0, 0, Header, 0, 1, 96
1, 0, Start_track
1, 0, SMPTE_offset, 96, 0, 3, 0, 0
1, 0, MIDI_port, 0
1, 0, System_exclusive, 5, 126, 127, 9, 1, 247
1, 0, MIDI_port, 0
1, 0, Time_signature, 4, 2, 24, 8
1, 0, Key_signature, -5, "major"
1, 0, Tempo, 731707
1, 98, Program_c, 0, 4
1, 99, Control_c, 0, 7, 105
1, 99, Control_c, 0, 10, 81
1, 99, Control_c, 0, 11, 127
1, 100, Control_c, 0, 91, 60
1, 100, Control_c, 0, 93, 30
1, 103, Program_c, 1, 35
1, 104, Control_c, 1, 7, 105
1, 104, Control_c, 1, 10, 64
1, 104, Control_c, 1, 11, 127
1, 105, Control_c, 1, 93, 10
1, 105, Control_c, 1, 91, 25
1, 108, Program_c, 2, 26
1, 109, Control_c, 2, 7, 49
1, 109, Control_c, 2, 10, 36
1, 109, Control_c, 2, 11, 127
1, 110, Control_c, 2, 93, 40
1, 110, Control_c, 2, 91, 50
1, 113, Program_c, 3, 24
1, 114, Control_c, 3, 7, 100
1, 114, Control_c, 3, 10, 64
1, 114, Control_c, 3, 11, 127
1, 115, Control_c, 3, 91, 60
1, 115, Control_c, 3, 93, 10
1, 118, Program_c, 4, 0
1, 119, Control_c, 4, 7, 80
1, 119, Control_c, 4, 10, 64
1, 119, Control_c, 4, 11, 127
1, 120, Control_c, 4, 91, 60
1, 120, Control_c, 4, 93, 0
1, 123, Program_c, 5, 29
1, 124, Control_c, 5, 7, 80
1, 124, Control_c, 5, 10, 60
1, 124, Control_c, 5, 11, 127
1, 125, Control_c, 5, 93, 60
1, 125, Control_c, 5, 91, 67
1, 128, Program_c, 6, 58
1, 129, Control_c, 6, 7, 95
1, 129, Control_c, 6, 10, 104
1, 129, Control_c, 6, 11, 127
1, 130, Control_c, 6, 91, 65
1, 130, Control_c, 6, 93, 10
1, 133, Program_c, 7, 60
1, 134, Control_c, 7, 7, 105
1, 134, Control_c, 7, 10, 44
1, 134, Control_c, 7, 11, 127
1, 135, Control_c, 7, 91, 67
1, 135, Control_c, 7, 93, 10
1, 138, Program_c, 8, 49
1, 139, Control_c, 9, 11, 127
1, 139, Control_c, 8, 7, 90
1, 139, Control_c, 8, 10, 88
1, 140, Control_c, 9, 91, 55
1, 140, Control_c, 9, 93, 0
1, 144, Control_c, 9, 7, 105
1, 144, Control_c, 8, 11, 0
1, 145, Control_c, 8, 93, 0
1, 145, Control_c, 8, 91, 60
1, 148, Program_c, 10, 48
1, 149, Control_c, 10, 7, 90
1, 149, Control_c, 10, 10, 64
1, 149, Control_c, 10, 11, 127
1, 150, Control_c, 10, 93, 5
1, 150, Control_c, 10, 91, 60
1, 153, Program_c, 11, 32
1, 154, Control_c, 11, 7, 105
1, 154, Control_c, 11, 10, 64
1, 154, Control_c, 11, 11, 127
1, 155, Control_c, 11, 91, 0
1, 155, Control_c, 11, 93, 0
1, 158, Program_c, 12, 31
1, 159, Control_c, 12, 7, 75
1, 159, Control_c, 12, 10, 64
1, 159, Control_c, 12, 11, 127
1, 160, Control_c, 12, 93, 40
1, 160, Control_c, 12, 91, 80
1, 163, Program_c, 13, 29
1, 164, Control_c, 13, 7, 40
1, 164, Control_c, 13, 10, 94
1, 164, Control_c, 13, 11, 127
1, 165, Control_c, 13, 91, 70
1, 165, Control_c, 13, 93, 60
1, 742, Note_on_c, 1, 44, 74
1, 742, Note_on_c, 2, 53, 61
1, 742, Note_on_c, 11, 44, 64
1, 742, Pitch_bend_c, 11, 8326
1, 743, Control_c, 1, 1, 0
1, 743, Pitch_bend_c, 1, 8192
1, 743, Pitch_bend_c, 2, 8192
1, 743, Control_c, 2, 1, 0
1, 743, Note_on_c, 9, 36, 67
1, 743, Control_c, 11, 1, 0
1, 744, Note_on_c, 9, 36, 0
1, 744, Pitch_bend_c, 9, 8192
1, 744, Control_c, 9, 1, 0
1, 752, Note_on_c, 2, 56, 58
1, 761, Note_on_c, 2, 60, 70
1, 764, Note_on_c, 8, 73, 68
1, 764, Note_on_c, 8, 85, 72
1, 765, Note_on_c, 0, 68, 54
1, 765, Note_on_c, 0, 65, 70
1, 765, Pitch_bend_c, 8, 8192
1, 765, Control_c, 8, 1, 0
1, 766, Control_c, 0, 1, 0
1, 766, Pitch_bend_c, 0, 8192
1, 766, Note_on_c, 0, 63, 61
1, 766, Note_on_c, 0, 77, 70
1, 766, Note_on_c, 0, 61, 60
1, 767, Note_on_c, 1, 49, 84
1, 767, Note_on_c, 9, 51, 70
1, 767, Note_on_c, 11, 49, 67
1, 768, Note_on_c, 9, 51, 0
1, 768, Note_on_c, 2, 63, 70
1, 768, Note_on_c, 9, 36, 74
1, 769, Note_on_c, 9, 36, 0
1, 770, Note_on_c, 11, 44, 0
1, 770, Note_on_c, 1, 44, 0
1, 814, Note_on_c, 0, 73, 55
1, 837, Note_on_c, 0, 77, 0
1, 838, Note_on_c, 0, 77, 65
1, 841, Note_on_c, 1, 37, 90
1, 841, Note_on_c, 9, 51, 51
1, 841, Note_on_c, 11, 37, 86
1, 842, Note_on_c, 9, 51, 0
1, 888, Note_on_c, 0, 72, 55
1, 896, Control_c, 8, 11, 2
1, 904, Control_c, 8, 11, 3
1, 912, Control_c, 8, 11, 4
1, 920, Control_c, 8, 11, 6
1, 928, Control_c, 8, 11, 7
1, 933, Note_on_c, 0, 77, 0
1, 934, Note_on_c, 0, 77, 58
1, 936, Control_c, 8, 11, 8
1, 937, Note_on_c, 9, 36, 63
1, 938, Note_on_c, 9, 36, 0
1, 944, Control_c, 8, 11, 10
1, 952, Control_c, 8, 11, 11
1, 960, Control_c, 8, 11, 12
1, 961, Note_on_c, 9, 36, 69
1, 962, Note_on_c, 9, 36, 0
1, 968, Control_c, 8, 11, 14
1, 976, Control_c, 8, 11, 15
1, 981, Note_on_c, 0, 73, 0
1, 982, Note_on_c, 0, 73, 54
1, 983, Note_on_c, 9, 51, 49
1, 984, Note_on_c, 9, 51, 0
1, 984, Control_c, 8, 11, 16
1, 986, Note_on_c, 2, 53, 0
1, 990, Note_on_c, 2, 60, 0
1, 992, Note_on_c, 2, 56, 0
1, 992, Control_c, 8, 11, 18
1, 1000, Note_on_c, 2, 63, 0
1, 1000, Control_c, 8, 11, 19
1, 1004, Note_on_c, 0, 77, 0
1, 1006, Note_on_c, 0, 77, 66
1, 1008, Control_c, 8, 11, 21
1, 1016, Control_c, 8, 11, 22
1, 1024, Control_c, 8, 11, 23
1, 1032, Control_c, 8, 11, 25
1, 1040, Control_c, 8, 11, 26
1, 1048, Control_c, 8, 11, 27
1, 1052, Note_on_c, 0, 72, 0
1, 1052, Note_on_c, 2, 63, 63
1, 1054, Note_on_c, 0, 72, 54
1, 1055, Note_on_c, 9, 51, 48
1, 1056, Note_on_c, 9, 51, 0
1, 1056, Control_c, 8, 11, 29
1, 1064, Note_on_c, 2, 63, 0
1, 1064, Control_c, 8, 11, 30
1, 1066, Note_on_c, 2, 65, 67
1, 1068, Note_on_c, 11, 49, 0
1, 1068, Note_on_c, 1, 49, 0
1, 1072, Control_c, 8, 11, 31
1, 1073, Note_on_c, 2, 63, 68
1, 1074, Note_on_c, 2, 65, 0
1, 1076, Note_on_c, 0, 77, 0
1, 1078, Note_on_c, 0, 77, 63
1, 1080, Note_on_c, 11, 37, 0
1, 1080, Note_on_c, 1, 37, 0
1, 1080, Control_c, 8, 11, 33
1, 1088, Control_c, 8, 11, 34
1, 1096, Control_c, 8, 11, 35
1, 1098, Note_on_c, 0, 73, 0
1, 1102, Note_on_c, 0, 73, 55
1, 1103, Note_on_c, 0, 65, 0
1, 1103, Note_on_c, 1, 51, 86
1, 1103, Note_on_c, 9, 51, 42
1, 1103, Note_on_c, 11, 51, 82
1, 1104, Note_on_c, 9, 51, 0
1, 1104, Control_c, 8, 11, 37
1, 1112, Note_on_c, 0, 61, 0
1, 1112, Control_c, 8, 11, 38
1, 1120, Control_c, 8, 11, 40
1, 1127, Note_on_c, 9, 36, 88
1, 1128, Note_on_c, 9, 36, 0
1, 1128, Note_on_c, 1, 44, 84
1, 1128, Control_c, 8, 11, 41
1, 1128, Note_on_c, 11, 44, 80
1, 1130, Note_on_c, 0, 68, 0
1, 1133, Note_on_c, 1, 51, 0
1, 1133, Note_on_c, 11, 51, 0
1, 1136, Control_c, 8, 11, 42
1, 1142, Note_on_c, 0, 63, 0
1, 1142, Note_on_c, 0, 72, 0
1, 1144, Note_on_c, 2, 53, 52
1, 1144, Control_c, 8, 11, 44
1, 1145, Note_on_c, 0, 73, 0
1, 1146, Note_on_c, 0, 77, 0
1, 1150, Note_on_c, 2, 63, 0
1, 1151, Note_on_c, 9, 51, 50
1, 1151, Note_on_c, 9, 36, 79
1, 1152, Note_on_c, 9, 36, 0
1, 1152, Note_on_c, 11, 44, 0
1, 1152, Note_on_c, 1, 44, 0
1, 1152, Note_on_c, 9, 51, 0
1, 1152, Note_on_c, 0, 66, 68
1, 1152, Note_on_c, 0, 78, 68
1, 1152, Note_on_c, 0, 59, 68
1, 1152, Note_on_c, 0, 68, 68
1, 1152, Note_on_c, 2, 56, 59
1, 1152, Control_c, 8, 11, 45
1, 1153, Note_on_c, 0, 63, 68
1, 1153, Note_on_c, 1, 49, 85
1, 1153, Note_on_c, 11, 49, 81
1, 1158, Note_on_c, 2, 59, 60
1, 1160, Control_c, 8, 11, 46
1, 1164, Note_on_c, 2, 63, 67
1, 1168, Control_c, 8, 11, 48
1, 1176, Control_c, 8, 11, 49
1, 1184, Control_c, 8, 11, 50
1, 1192, Control_c, 8, 11, 52
1, 1200, Note_on_c, 0, 73, 53
1, 1200, Control_c, 8, 11, 53
1, 1208, Control_c, 8, 11, 54
1, 1216, Control_c, 8, 11, 56
1, 1222, Note_on_c, 0, 78, 0
1, 1223, Note_on_c, 9, 51, 50
1, 1224, Note_on_c, 9, 51, 0
1, 1224, Note_on_c, 0, 78, 61
1, 1224, Note_on_c, 1, 37, 70
1, 1224, Control_c, 8, 11, 57
1, 1224, Note_on_c, 11, 37, 66
1, 1232, Control_c, 8, 11, 59
1, 1240, Control_c, 8, 11, 60
1, 1248, Control_c, 8, 11, 61
1, 1256, Control_c, 8, 11, 63
1, 1264, Control_c, 8, 11, 64
1, 1272, Note_on_c, 0, 71, 57
1, 1272, Control_c, 8, 11, 65
1, 1280, Control_c, 8, 11, 67
1, 1288, Control_c, 8, 11, 68
1, 1296, Control_c, 8, 11, 69
1, 1304, Control_c, 8, 11, 71
1, 1312, Control_c, 8, 11, 72
1, 1317, Note_on_c, 0, 78, 0
1, 1318, Note_on_c, 0, 78, 68
1, 1319, Note_on_c, 9, 36, 63
1, 1320, Note_on_c, 9, 36, 0
1, 1320, Control_c, 8, 11, 74
1, 1328, Control_c, 8, 11, 75
1, 1336, Control_c, 8, 11, 76
1, 1343, Note_on_c, 9, 36, 63
1, 1344, Note_on_c, 9, 36, 0
1, 1344, Control_c, 8, 11, 78
1, 1352, Control_c, 8, 11, 79
1, 1360, Control_c, 8, 11, 80
1, 1366, Note_on_c, 0, 73, 0
1, 1367, Note_on_c, 9, 51, 64
1, 1368, Note_on_c, 9, 51, 0
1, 1368, Note_on_c, 0, 73, 53
1, 1368, Control_c, 8, 11, 82
1, 1376, Control_c, 8, 11, 83
1, 1384, Control_c, 8, 11, 84
1, 1389, Note_on_c, 0, 78, 0
1, 1390, Note_on_c, 11, 49, 0
1, 1390, Note_on_c, 1, 49, 0
1, 1390, Note_on_c, 0, 78, 54
1, 1392, Control_c, 8, 11, 86
1, 1400, Control_c, 8, 11, 87
1, 1403, Note_on_c, 11, 37, 0
1, 1403, Note_on_c, 1, 37, 0
1, 1408, Control_c, 8, 11, 88
1, 1410, Note_on_c, 2, 56, 0
1, 1416, Control_c, 8, 11, 90
1, 1417, Note_on_c, 2, 53, 0
1, 1420, Note_on_c, 0, 71, 0
1, 1424, Note_on_c, 2, 59, 0
1, 1424, Control_c, 8, 11, 91
1, 1432, Control_c, 8, 11, 93
1, 1439, Note_on_c, 1, 51, 81
1, 1439, Note_on_c, 11, 51, 77
1, 1440, Note_on_c, 0, 71, 59
1, 1440, Note_on_c, 9, 51, 57
1, 1440, Control_c, 8, 11, 94
1, 1441, Note_on_c, 9, 51, 0
1, 1448, Control_c, 8, 11, 95
1, 1456, Control_c, 8, 11, 97
1, 1458, Note_on_c, 2, 63, 0
1, 1462, Note_on_c, 0, 78, 0
1, 1464, Note_on_c, 0, 78, 58
1, 1464, Note_on_c, 1, 44, 72
1, 1464, Control_c, 8, 11, 98
1, 1464, Note_on_c, 11, 44, 68
1, 1472, Control_c, 8, 11, 99
1, 1475, Note_on_c, 11, 51, 0
1, 1475, Note_on_c, 1, 51, 0
1, 1480, Control_c, 8, 11, 101
1, 1486, Note_on_c, 0, 73, 0
1, 1487, Note_on_c, 1, 51, 81
1, 1487, Note_on_c, 11, 51, 77
1, 1488, Note_on_c, 0, 73, 54
1, 1488, Control_c, 8, 11, 102
1, 1489, Note_on_c, 9, 51, 42
1, 1490, Note_on_c, 9, 51, 0
1, 1491, Note_on_c, 11, 44, 0
1, 1491, Note_on_c, 1, 44, 0
1, 1496, Control_c, 8, 11, 103
1, 1504, Control_c, 8, 11, 105
1, 1511, Note_on_c, 1, 44, 69
1, 1511, Note_on_c, 9, 36, 64
1, 1511, Note_on_c, 11, 44, 65
1, 1512, Note_on_c, 9, 36, 0
1, 1512, Control_c, 8, 11, 106
1, 1518, Note_on_c, 2, 54, 58
1, 1519, Note_on_c, 1, 51, 0
1, 1519, Note_on_c, 11, 51, 0
1, 1520, Control_c, 8, 11, 107
1, 1523, Note_on_c, 0, 63, 0
1, 1524, Note_on_c, 0, 78, 0
1, 1524, Note_on_c, 0, 59, 0
1, 1524, Note_on_c, 0, 71, 0
1, 1524, Note_on_c, 0, 73, 0
1, 1526, Note_on_c, 0, 66, 0
1, 1526, Note_on_c, 2, 58, 63
1, 1528, Note_on_c, 0, 68, 0
1, 1528, Control_c, 8, 11, 109
1, 1532, Note_on_c, 2, 61, 74
1, 1534, Note_on_c, 0, 58, 68
1, 1534, Note_on_c, 0, 78, 65
1, 1534, Note_on_c, 0, 66, 65
1, 1534, Note_on_c, 0, 63, 57
1, 1534, Note_on_c, 0, 75, 70
1, 1534, Note_on_c, 0, 68, 61
1, 1535, Note_on_c, 9, 36, 63
1, 1536, Note_on_c, 9, 36, 0
1, 1536, Note_on_c, 1, 49, 86
1, 1536, Note_on_c, 2, 63, 76
1, 1536, Control_c, 8, 11, 110
1, 1536, Note_on_c, 11, 49, 82
1, 1537, Note_on_c, 9, 51, 58
1, 1538, Note_on_c, 9, 51, 0
1, 1539, Note_on_c, 11, 44, 0
1, 1539, Note_on_c, 1, 44, 0
1, 1544, Control_c, 8, 11, 112
1, 1552, Control_c, 8, 11, 113
1, 1560, Control_c, 8, 11, 114
1, 1568, Control_c, 8, 11, 116
1, 1576, Control_c, 8, 11, 117
1, 1581, Note_on_c, 0, 73, 58
1, 1584, Control_c, 8, 11, 118
1, 1592, Control_c, 8, 11, 120
1, 1600, Control_c, 8, 11, 121
1, 1603, Note_on_c, 0, 78, 0
1, 1603, Note_on_c, 0, 75, 0
1, 1605, Note_on_c, 0, 75, 64
1, 1605, Note_on_c, 0, 78, 52
1, 1607, Note_on_c, 1, 37, 99
1, 1607, Note_on_c, 9, 51, 57
1, 1607, Note_on_c, 11, 37, 95
1, 1608, Note_on_c, 9, 51, 0
1, 1608, Control_c, 8, 11, 122
1, 1616, Control_c, 8, 11, 124
1, 1624, Control_c, 8, 11, 125
1, 1632, Control_c, 8, 11, 127
1, 1654, Note_on_c, 0, 70, 58
1, 1698, Note_on_c, 0, 78, 0
1, 1698, Note_on_c, 0, 75, 0
1, 1700, Note_on_c, 0, 78, 49
1, 1700, Note_on_c, 0, 75, 63
1, 1703, Note_on_c, 9, 36, 58
1, 1704, Note_on_c, 9, 36, 0
1, 1727, Note_on_c, 9, 36, 60
1, 1728, Note_on_c, 9, 36, 0
1, 1749, Note_on_c, 0, 73, 0
1, 1750, Note_on_c, 0, 73, 57
1, 1753, Note_on_c, 9, 51, 48
1, 1754, Note_on_c, 9, 51, 0
1, 1772, Note_on_c, 0, 75, 0
1, 1772, Note_on_c, 0, 78, 0
1, 1773, Note_on_c, 0, 78, 54
1, 1774, Note_on_c, 0, 75, 60
1, 1786, Note_on_c, 2, 61, 0
1, 1810, Note_on_c, 2, 58, 0
1, 1814, Note_on_c, 11, 49, 0
1, 1814, Note_on_c, 1, 49, 0
1, 1816, Note_on_c, 0, 70, 0
1, 1818, Note_on_c, 2, 63, 0
1, 1824, Note_on_c, 0, 70, 56
1, 1825, Note_on_c, 9, 51, 60
1, 1826, Note_on_c, 9, 51, 0
1, 1843, Note_on_c, 2, 54, 0
1, 1844, Note_on_c, 0, 75, 0
1, 1845, Note_on_c, 0, 78, 0
1, 1846, Note_on_c, 11, 37, 0
1, 1846, Note_on_c, 1, 37, 0
1, 1846, Note_on_c, 0, 78, 50
1, 1846, Note_on_c, 0, 75, 59
1, 1862, Note_on_c, 0, 73, 0
1, 1870, Note_on_c, 0, 73, 57
1, 1870, Note_on_c, 1, 51, 86
1, 1870, Note_on_c, 11, 51, 82
1, 1873, Note_on_c, 9, 51, 43
1, 1874, Note_on_c, 9, 51, 0
1, 1892, Note_on_c, 2, 54, 59
1, 1894, Note_on_c, 1, 44, 73
1, 1894, Note_on_c, 11, 44, 69
1, 1895, Note_on_c, 9, 36, 62
1, 1896, Note_on_c, 9, 36, 0
1, 1900, Note_on_c, 2, 57, 71
1, 1904, Note_on_c, 11, 51, 0
1, 1904, Note_on_c, 1, 51, 0
1, 1906, Note_on_c, 2, 61, 65
1, 1913, Note_on_c, 2, 63, 77
1, 1914, Note_on_c, 0, 73, 0
1, 1914, Note_on_c, 0, 66, 0
1, 1914, Note_on_c, 0, 58, 0
1, 1914, Note_on_c, 0, 63, 0
1, 1914, Note_on_c, 0, 78, 0
1, 1914, Note_on_c, 0, 75, 0
1, 1914, Note_on_c, 0, 70, 0
1, 1914, Note_on_c, 0, 68, 0
1, 1919, Note_on_c, 9, 51, 68
1, 1920, Note_on_c, 9, 51, 0
1, 1920, Note_on_c, 0, 66, 67
1, 1920, Note_on_c, 0, 75, 67
1, 1920, Note_on_c, 0, 57, 67
1, 1920, Note_on_c, 0, 78, 67
1, 1920, Note_on_c, 0, 68, 67
1, 1920, Note_on_c, 9, 36, 69
1, 1921, Note_on_c, 9, 36, 0
1, 1921, Note_on_c, 0, 63, 67
1, 1921, Note_on_c, 1, 49, 80
1, 1921, Note_on_c, 1, 45, 102
1, 1921, Note_on_c, 11, 49, 76
1, 1921, Note_on_c, 11, 45, 98
1, 1930, Note_on_c, 1, 44, 0
1, 1930, Note_on_c, 11, 44, 0
1, 1966, Note_on_c, 0, 73, 50
1, 1989, Note_on_c, 0, 75, 0
1, 1989, Note_on_c, 0, 78, 0
1, 1990, Note_on_c, 0, 75, 66
1, 1990, Note_on_c, 0, 78, 62
1, 1993, Note_on_c, 9, 51, 66
1, 1994, Note_on_c, 9, 51, 0
1, 2038, Note_on_c, 0, 69, 59
1, 2083, Note_on_c, 0, 78, 0
1, 2083, Note_on_c, 0, 75, 0
1, 2085, Note_on_c, 0, 75, 65
1, 2085, Note_on_c, 0, 78, 59
1, 2090, Note_on_c, 9, 36, 80
1, 2091, Note_on_c, 9, 36, 0
1, 2113, Note_on_c, 9, 36, 79
1, 2114, Note_on_c, 9, 36, 0
1, 2131, Note_on_c, 0, 73, 0
1, 2133, Note_on_c, 0, 73, 53
1, 2137, Note_on_c, 9, 51, 68
1, 2138, Note_on_c, 9, 51, 0
1, 2154, Note_on_c, 11, 45, 0
1, 2154, Note_on_c, 1, 45, 0
1, 2156, Note_on_c, 11, 49, 0
1, 2156, Note_on_c, 1, 49, 0
1, 2157, Note_on_c, 0, 78, 0
1, 2157, Note_on_c, 0, 75, 0
1, 2158, Note_on_c, 0, 75, 65
1, 2158, Note_on_c, 0, 78, 60
1, 2204, Note_on_c, 0, 69, 0
1, 2206, Note_on_c, 0, 69, 61
1, 2207, Note_on_c, 9, 45, 86
1, 2208, Note_on_c, 9, 45, 0
1, 2209, Note_on_c, 1, 44, 92
1, 2209, Note_on_c, 9, 51, 59
1, 2209, Note_on_c, 11, 44, 88
1, 2210, Note_on_c, 9, 51, 0
1, 2227, Note_on_c, 0, 78, 0
1, 2228, Note_on_c, 0, 75, 0
1, 2229, Note_on_c, 0, 78, 57
1, 2230, Note_on_c, 0, 75, 58
1, 2231, Note_on_c, 9, 45, 59
1, 2232, Note_on_c, 9, 45, 0
1, 2241, Note_on_c, 2, 54, 0
1, 2246, Note_on_c, 2, 57, 0
1, 2249, Note_on_c, 2, 61, 0
1, 2253, Note_on_c, 0, 73, 0
1, 2253, Note_on_c, 2, 63, 0
1, 2254, Note_on_c, 0, 73, 55
1, 2255, Note_on_c, 9, 45, 101
1, 2256, Note_on_c, 9, 45, 0
1, 2273, Pitch_bend_c, 1, 7936
1, 2273, Pitch_bend_c, 11, 7936
1, 2274, Pitch_bend_c, 1, 7680
1, 2274, Pitch_bend_c, 11, 7680
1, 2275, Pitch_bend_c, 1, 7424
1, 2275, Pitch_bend_c, 11, 7424
1, 2276, Pitch_bend_c, 1, 7296
1, 2276, Pitch_bend_c, 11, 7296
1, 2277, Pitch_bend_c, 1, 7168
1, 2277, Pitch_bend_c, 11, 7168
1, 2278, Pitch_bend_c, 1, 6912
1, 2278, Pitch_bend_c, 11, 6912
1, 2279, Pitch_bend_c, 1, 6784
1, 2279, Pitch_bend_c, 11, 6784
1, 2280, Pitch_bend_c, 1, 6528
1, 2280, Pitch_bend_c, 11, 6528
1, 2282, Pitch_bend_c, 1, 6144
1, 2282, Pitch_bend_c, 11, 6144
1, 2283, Pitch_bend_c, 1, 6016
1, 2283, Pitch_bend_c, 11, 6016
1, 2284, Pitch_bend_c, 1, 5760
1, 2284, Pitch_bend_c, 11, 5760
1, 2285, Pitch_bend_c, 1, 5120
1, 2285, Pitch_bend_c, 11, 5120
1, 2286, Pitch_bend_c, 1, 4352
1, 2286, Pitch_bend_c, 11, 4352
1, 2287, Pitch_bend_c, 1, 3840
1, 2287, Pitch_bend_c, 11, 3840
1, 2288, Pitch_bend_c, 1, 3456
1, 2288, Pitch_bend_c, 11, 3456
1, 2289, Pitch_bend_c, 1, 2944
1, 2289, Pitch_bend_c, 11, 2944
1, 2290, Pitch_bend_c, 1, 1920
1, 2290, Pitch_bend_c, 11, 1920
1, 2291, Pitch_bend_c, 1, 1024
1, 2291, Pitch_bend_c, 11, 1024
1, 2292, Pitch_bend_c, 1, 512
1, 2292, Pitch_bend_c, 11, 512
1, 2293, Pitch_bend_c, 1, 128
1, 2293, Pitch_bend_c, 11, 128
1, 2294, Note_on_c, 0, 78, 0
1, 2294, Pitch_bend_c, 1, 0
1, 2294, Pitch_bend_c, 11, 0
1, 2295, Note_on_c, 8, 73, 0
1, 2295, Note_on_c, 0, 73, 0
1, 2297, Note_on_c, 0, 66, 0
1, 2298, Note_on_c, 0, 63, 0
1, 2298, Note_on_c, 0, 68, 0
1, 2298, Note_on_c, 0, 69, 0
1, 2298, Note_on_c, 0, 75, 0
1, 2298, Note_on_c, 8, 85, 0
1, 2298, Pitch_bend_c, 1, 8192
1, 2298, Pitch_bend_c, 11, 8192
1, 2300, Note_on_c, 1, 44, 0
1, 2300, Note_on_c, 11, 44, 0
1, 2300, Note_on_c, 0, 57, 0
1, 2300, Note_on_c, 0, 75, 55
1, 2300, Note_on_c, 2, 56, 73
1, 2301, Note_on_c, 0, 68, 58
1, 2301, Note_on_c, 0, 72, 77
1, 2302, Note_on_c, 0, 65, 68
1, 2302, Note_on_c, 2, 60, 83
1, 2304, Note_on_c, 1, 37, 88
1, 2304, Note_on_c, 2, 65, 79
1, 2304, Note_on_c, 9, 36, 110
1, 2304, Note_on_c, 9, 42, 91
1, 2304, Note_on_c, 10, 56, 56
1, 2304, Note_on_c, 10, 60, 52
1, 2304, Note_on_c, 10, 53, 58
1, 2304, Control_c, 10, 1, 0
1, 2304, Note_on_c, 10, 63, 58
1, 2304, Pitch_bend_c, 10, 8192
1, 2304, Note_on_c, 11, 37, 84
1, 2305, Note_on_c, 9, 42, 0
1, 2305, Note_on_c, 9, 36, 0
1, 2315, Note_on_c, 0, 68, 0
1, 2315, Note_on_c, 0, 72, 0
1, 2327, Note_on_c, 0, 72, 62
1, 2327, Note_on_c, 9, 44, 44
1, 2328, Note_on_c, 9, 44, 0
1, 2328, Note_on_c, 0, 68, 52
1, 2340, Note_on_c, 2, 56, 0
1, 2344, Note_on_c, 2, 60, 0
1, 2345, Note_on_c, 2, 65, 0
1, 2350, Note_on_c, 9, 69, 33
1, 2351, Note_on_c, 9, 69, 0
1, 2351, Control_c, 9, 1, 0
1, 2351, Note_on_c, 9, 42, 40
1, 2351, Pitch_bend_c, 9, 8192
1, 2352, Note_on_c, 9, 42, 0
1, 2352, Note_on_c, 2, 65, 99
1, 2352, Note_on_c, 2, 60, 99
1, 2352, Note_on_c, 2, 68, 99
1, 2353, Note_on_c, 0, 61, 66
1, 2357, Note_on_c, 0, 72, 0
1, 2359, Note_on_c, 0, 68, 0
1, 2360, Note_on_c, 0, 75, 0
1, 2360, Note_on_c, 1, 37, 0
1, 2360, Note_on_c, 0, 65, 0
1, 2360, Note_on_c, 11, 37, 0
1, 2360, Note_on_c, 0, 61, 0
1, 2361, Note_on_c, 2, 65, 0
1, 2362, Note_on_c, 2, 60, 0
1, 2364, Note_on_c, 2, 68, 0
1, 2374, Note_on_c, 0, 75, 37
1, 2374, Note_on_c, 9, 69, 21
1, 2375, Note_on_c, 9, 69, 0
1, 2375, Note_on_c, 0, 65, 54
1, 2375, Note_on_c, 0, 68, 54
1, 2375, Note_on_c, 0, 72, 69
1, 2375, Note_on_c, 9, 42, 44
1, 2376, Note_on_c, 9, 42, 0
1, 2376, Note_on_c, 2, 60, 68
1, 2376, Note_on_c, 2, 68, 77
1, 2376, Note_on_c, 2, 56, 64
1, 2376, Note_on_c, 2, 65, 90
1, 2377, Note_on_c, 9, 62, 69
1, 2378, Note_on_c, 9, 62, 0
1, 2392, Note_on_c, 0, 72, 0
1, 2397, Note_on_c, 2, 65, 0
1, 2398, Note_on_c, 0, 68, 0
1, 2399, Note_on_c, 9, 40, 101
1, 2399, Note_on_c, 9, 75, 79
1, 2399, Note_on_c, 9, 42, 76
1, 2400, Note_on_c, 9, 42, 0
1, 2400, Note_on_c, 9, 40, 0
1, 2400, Note_on_c, 9, 75, 0
1, 2402, Note_on_c, 9, 62, 66
1, 2403, Note_on_c, 9, 62, 0
1, 2403, Note_on_c, 0, 65, 0
1, 2403, Note_on_c, 0, 75, 0
1, 2422, Note_on_c, 2, 56, 0
1, 2422, Note_on_c, 2, 60, 0
1, 2423, Note_on_c, 9, 44, 40
1, 2424, Note_on_c, 9, 44, 0
1, 2424, Note_on_c, 2, 68, 0
1, 2424, Note_on_c, 0, 68, 54
1, 2424, Note_on_c, 0, 65, 54
1, 2424, Note_on_c, 2, 56, 63
1, 2424, Note_on_c, 2, 65, 74
1, 2424, Note_on_c, 2, 60, 63
1, 2425, Note_on_c, 0, 72, 64
1, 2426, Note_on_c, 0, 75, 33
1, 2434, Note_on_c, 0, 72, 0
1, 2434, Note_on_c, 0, 68, 0
1, 2438, Note_on_c, 0, 75, 0
1, 2438, Note_on_c, 0, 65, 0
1, 2446, Note_on_c, 2, 65, 0
1, 2446, Note_on_c, 2, 60, 0
1, 2446, Note_on_c, 2, 56, 0
1, 2447, Note_on_c, 9, 42, 42
1, 2447, Note_on_c, 9, 69, 33
1, 2448, Note_on_c, 9, 69, 0
1, 2448, Note_on_c, 9, 42, 0
1, 2448, Note_on_c, 2, 56, 61
1, 2448, Note_on_c, 2, 60, 59
1, 2448, Note_on_c, 2, 65, 75
1, 2470, Note_on_c, 2, 65, 0
1, 2470, Note_on_c, 2, 56, 0
1, 2470, Note_on_c, 2, 60, 0
1, 2471, Note_on_c, 1, 32, 72
1, 2471, Note_on_c, 9, 69, 25
1, 2471, Note_on_c, 9, 62, 62
1, 2471, Note_on_c, 9, 42, 40
1, 2471, Note_on_c, 11, 32, 68
1, 2472, Note_on_c, 9, 42, 0
1, 2472, Note_on_c, 9, 62, 0
1, 2472, Note_on_c, 9, 69, 0
1, 2472, Note_on_c, 0, 61, 61
1, 2472, Note_on_c, 2, 65, 80
1, 2472, Note_on_c, 2, 60, 80
1, 2472, Note_on_c, 2, 56, 80
1, 2472, Note_on_c, 9, 36, 104
1, 2473, Note_on_c, 9, 36, 0
1, 2481, Note_on_c, 0, 61, 0
1, 2491, Note_on_c, 11, 32, 0
1, 2491, Note_on_c, 1, 32, 0
1, 2494, Note_on_c, 2, 60, 0
1, 2494, Note_on_c, 2, 65, 0
1, 2494, Note_on_c, 2, 56, 0
1, 2494, Note_on_c, 0, 68, 58
1, 2494, Note_on_c, 0, 75, 57
1, 2494, Note_on_c, 0, 72, 71
1, 2495, Note_on_c, 0, 65, 65
1, 2495, Note_on_c, 1, 37, 86
1, 2495, Note_on_c, 9, 42, 87
1, 2495, Note_on_c, 9, 36, 68
1, 2495, Note_on_c, 11, 37, 82
1, 2496, Note_on_c, 9, 36, 0
1, 2496, Note_on_c, 9, 42, 0
1, 2496, Note_on_c, 2, 65, 87
1, 2496, Note_on_c, 2, 60, 79
1, 2496, Note_on_c, 2, 56, 77
1, 2497, Note_on_c, 9, 62, 62
1, 2498, Note_on_c, 9, 62, 0
1, 2518, Note_on_c, 1, 32, 62
1, 2518, Note_on_c, 11, 32, 58
1, 2520, Note_on_c, 1, 37, 0
1, 2520, Note_on_c, 11, 37, 0
1, 2520, Note_on_c, 9, 44, 46
1, 2521, Note_on_c, 9, 44, 0
1, 2538, Note_on_c, 6, 56, 59
1, 2538, Pitch_bend_c, 6, 8660
1, 2538, Note_on_c, 7, 56, 88
1, 2539, Control_c, 6, 1, 0
1, 2539, Pitch_bend_c, 7, 8192
1, 2539, Control_c, 7, 1, 0
1, 2542, Note_on_c, 11, 32, 0
1, 2542, Note_on_c, 2, 65, 0
1, 2542, Note_on_c, 2, 60, 0
1, 2542, Note_on_c, 1, 32, 0
1, 2542, Note_on_c, 0, 61, 53
1, 2542, Note_on_c, 9, 69, 35
1, 2543, Note_on_c, 9, 69, 0
1, 2543, Note_on_c, 1, 37, 85
1, 2543, Note_on_c, 9, 36, 97
1, 2543, Note_on_c, 9, 42, 43
1, 2543, Note_on_c, 11, 37, 81
1, 2544, Note_on_c, 9, 42, 0
1, 2544, Note_on_c, 9, 36, 0
1, 2544, Note_on_c, 2, 56, 0
1, 2544, Note_on_c, 2, 60, 74
1, 2544, Note_on_c, 2, 65, 85
1, 2544, Note_on_c, 2, 68, 100
1, 2546, Note_on_c, 0, 72, 0
1, 2547, Note_on_c, 0, 61, 0
1, 2548, Note_on_c, 0, 68, 0
1, 2550, Note_on_c, 0, 75, 0
1, 2550, Note_on_c, 2, 65, 0
1, 2552, Note_on_c, 2, 60, 0
1, 2556, Note_on_c, 2, 68, 0
1, 2556, Note_on_c, 0, 65, 0
1, 2563, Note_on_c, 7, 56, 0
1, 2564, Note_on_c, 6, 61, 71
1, 2566, Note_on_c, 0, 75, 48
1, 2566, Note_on_c, 7, 61, 89
1, 2566, Note_on_c, 9, 62, 69
1, 2566, Note_on_c, 9, 69, 29
1, 2567, Note_on_c, 9, 69, 0
1, 2567, Note_on_c, 6, 56, 0
1, 2567, Note_on_c, 9, 62, 0
1, 2567, Note_on_c, 0, 68, 56
1, 2567, Note_on_c, 0, 72, 69
1, 2567, Note_on_c, 0, 65, 53
1, 2567, Note_on_c, 9, 42, 54
1, 2568, Note_on_c, 9, 42, 0
1, 2568, Note_on_c, 2, 68, 76
1, 2568, Note_on_c, 2, 56, 65
1, 2568, Note_on_c, 2, 65, 79
1, 2568, Note_on_c, 2, 60, 67
1, 2576, Note_on_c, 11, 37, 0
1, 2576, Note_on_c, 1, 37, 0
1, 2578, Note_on_c, 0, 72, 0
1, 2579, Note_on_c, 0, 68, 0
1, 2582, Note_on_c, 0, 75, 0
1, 2583, Note_on_c, 0, 65, 0
1, 2590, Note_on_c, 6, 61, 0
1, 2590, Note_on_c, 2, 56, 0
1, 2590, Note_on_c, 2, 65, 0
1, 2591, Note_on_c, 9, 62, 55
1, 2591, Note_on_c, 9, 42, 73
1, 2591, Note_on_c, 9, 40, 104
1, 2592, Note_on_c, 9, 40, 0
1, 2592, Note_on_c, 9, 42, 0
1, 2592, Note_on_c, 9, 62, 0
1, 2592, Note_on_c, 9, 75, 79
1, 2593, Note_on_c, 9, 75, 0
1, 2594, Note_on_c, 7, 61, 0
1, 2611, Note_on_c, 7, 63, 91
1, 2613, Note_on_c, 6, 63, 68
1, 2614, Note_on_c, 2, 60, 0
1, 2614, Note_on_c, 0, 65, 57
1, 2614, Note_on_c, 0, 72, 66
1, 2614, Note_on_c, 0, 75, 48
1, 2614, Note_on_c, 0, 68, 55
1, 2614, Note_on_c, 9, 62, 52
1, 2615, Note_on_c, 9, 62, 0
1, 2615, Note_on_c, 9, 44, 43
1, 2616, Note_on_c, 9, 44, 0
1, 2616, Note_on_c, 2, 68, 0
1, 2616, Note_on_c, 2, 65, 74
1, 2616, Note_on_c, 2, 56, 81
1, 2616, Note_on_c, 2, 60, 63
1, 2623, Note_on_c, 0, 72, 0
1, 2624, Note_on_c, 0, 75, 0
1, 2625, Note_on_c, 0, 68, 0
1, 2627, Note_on_c, 0, 65, 0
1, 2637, Note_on_c, 6, 63, 0
1, 2637, Note_on_c, 7, 63, 0
1, 2638, Note_on_c, 2, 65, 0
1, 2638, Note_on_c, 2, 56, 0
1, 2638, Note_on_c, 2, 60, 0
1, 2638, Note_on_c, 1, 32, 74
1, 2638, Note_on_c, 9, 62, 69
1, 2638, Note_on_c, 9, 69, 36
1, 2638, Note_on_c, 11, 32, 70
1, 2639, Note_on_c, 9, 69, 0
1, 2639, Note_on_c, 9, 62, 0
1, 2639, Note_on_c, 9, 42, 54
1, 2640, Note_on_c, 9, 42, 0
1, 2640, Note_on_c, 2, 56, 63
1, 2640, Note_on_c, 2, 60, 64
1, 2640, Note_on_c, 2, 65, 72
1, 2661, Note_on_c, 7, 65, 102
1, 2662, Note_on_c, 2, 65, 0
1, 2662, Note_on_c, 2, 60, 0
1, 2662, Note_on_c, 2, 56, 0
1, 2662, Note_on_c, 1, 34, 73
1, 2662, Note_on_c, 6, 65, 86
1, 2662, Note_on_c, 9, 69, 23
1, 2662, Note_on_c, 11, 34, 69
1, 2663, Note_on_c, 9, 69, 0
1, 2663, Note_on_c, 1, 32, 0
1, 2663, Note_on_c, 11, 32, 0
1, 2663, Note_on_c, 0, 61, 52
1, 2663, Note_on_c, 9, 42, 42
1, 2664, Note_on_c, 9, 42, 0
1, 2664, Note_on_c, 2, 65, 75
1, 2664, Note_on_c, 2, 56, 64
1, 2664, Note_on_c, 2, 60, 63
1, 2669, Note_on_c, 0, 61, 0
1, 2685, Note_on_c, 2, 56, 0
1, 2685, Note_on_c, 2, 65, 0
1, 2685, Note_on_c, 2, 60, 0
1, 2686, Note_on_c, 1, 37, 91
1, 2686, Note_on_c, 11, 37, 87
1, 2687, Note_on_c, 0, 71, 73
1, 2687, Note_on_c, 0, 65, 63
1, 2687, Note_on_c, 0, 68, 57
1, 2687, Note_on_c, 9, 42, 83
1, 2688, Note_on_c, 9, 42, 0
1, 2688, Note_on_c, 10, 60, 0
1, 2688, Note_on_c, 1, 34, 0
1, 2688, Note_on_c, 11, 34, 0
1, 2688, Note_on_c, 0, 75, 52
1, 2688, Note_on_c, 2, 59, 74
1, 2688, Note_on_c, 2, 56, 85
1, 2688, Note_on_c, 2, 65, 90
1, 2688, Note_on_c, 9, 36, 114
1, 2688, Note_on_c, 10, 59, 59
1, 2689, Note_on_c, 9, 36, 0
1, 2702, Note_on_c, 0, 71, 0
1, 2702, Note_on_c, 0, 68, 0
1, 2711, Note_on_c, 0, 71, 69
1, 2711, Note_on_c, 0, 68, 54
1, 2711, Note_on_c, 9, 44, 49
1, 2712, Note_on_c, 9, 44, 0
1, 2718, Note_on_c, 1, 37, 0
1, 2718, Note_on_c, 11, 37, 0
1, 2732, Note_on_c, 0, 71, 0
1, 2734, Note_on_c, 2, 65, 0
1, 2734, Note_on_c, 2, 59, 0
1, 2734, Note_on_c, 0, 61, 53
1, 2734, Note_on_c, 9, 69, 33
1, 2735, Note_on_c, 9, 69, 0
1, 2735, Note_on_c, 9, 42, 42
1, 2736, Note_on_c, 9, 42, 0
1, 2736, Note_on_c, 2, 56, 0
1, 2736, Note_on_c, 2, 59, 86
1, 2736, Note_on_c, 2, 65, 100
1, 2736, Note_on_c, 2, 68, 104
1, 2738, Note_on_c, 0, 75, 0
1, 2739, Note_on_c, 0, 68, 0
1, 2739, Note_on_c, 0, 65, 0
1, 2744, Note_on_c, 2, 59, 0
1, 2744, Note_on_c, 2, 65, 0
1, 2746, Note_on_c, 0, 61, 0
1, 2748, Note_on_c, 2, 68, 0
1, 2759, Note_on_c, 0, 75, 54
1, 2759, Note_on_c, 9, 69, 27
1, 2759, Note_on_c, 9, 42, 41
1, 2759, Note_on_c, 9, 62, 71
1, 2760, Note_on_c, 9, 62, 0
1, 2760, Note_on_c, 9, 42, 0
1, 2760, Note_on_c, 9, 69, 0
1, 2760, Note_on_c, 0, 71, 77
1, 2760, Note_on_c, 0, 68, 58
1, 2760, Note_on_c, 0, 65, 63
1, 2760, Note_on_c, 2, 56, 71
1, 2760, Note_on_c, 2, 68, 77
1, 2760, Note_on_c, 2, 59, 74
1, 2760, Note_on_c, 2, 65, 75
1, 2771, Note_on_c, 0, 71, 0
1, 2773, Note_on_c, 0, 68, 0
1, 2782, Note_on_c, 0, 65, 0
1, 2783, Note_on_c, 9, 75, 76
1, 2783, Note_on_c, 9, 40, 107
1, 2784, Note_on_c, 9, 40, 0
1, 2784, Note_on_c, 9, 75, 0
1, 2784, Note_on_c, 0, 75, 0
1, 2784, Note_on_c, 9, 42, 87
1, 2785, Note_on_c, 9, 42, 0
1, 2785, Note_on_c, 9, 62, 74
1, 2786, Note_on_c, 9, 62, 0
1, 2806, Note_on_c, 2, 56, 0
1, 2806, Note_on_c, 2, 65, 0
1, 2806, Note_on_c, 2, 59, 0
1, 2808, Note_on_c, 2, 68, 0
1, 2808, Note_on_c, 2, 56, 69
1, 2808, Note_on_c, 2, 65, 72
1, 2808, Note_on_c, 2, 59, 64
1, 2809, Note_on_c, 0, 68, 47
1, 2809, Note_on_c, 0, 75, 54
1, 2809, Note_on_c, 0, 65, 59
1, 2809, Note_on_c, 0, 71, 68
1, 2809, Note_on_c, 9, 44, 57
1, 2810, Note_on_c, 9, 44, 0
1, 2818, Note_on_c, 0, 71, 0
1, 2818, Note_on_c, 0, 68, 0
1, 2820, Note_on_c, 0, 75, 0
1, 2822, Note_on_c, 0, 65, 0
1, 2830, Note_on_c, 2, 56, 0
1, 2830, Note_on_c, 2, 59, 0
1, 2830, Note_on_c, 2, 65, 0
1, 2831, Note_on_c, 9, 69, 35
1, 2831, Note_on_c, 9, 42, 44
1, 2832, Note_on_c, 9, 42, 0
1, 2832, Note_on_c, 9, 69, 0
1, 2832, Note_on_c, 2, 65, 74
1, 2832, Note_on_c, 2, 56, 65
1, 2832, Note_on_c, 2, 59, 66
1, 2854, Note_on_c, 2, 59, 0
1, 2854, Note_on_c, 2, 56, 0
1, 2854, Note_on_c, 2, 65, 0
1, 2854, Note_on_c, 9, 69, 25
1, 2855, Note_on_c, 9, 69, 0
1, 2855, Note_on_c, 1, 32, 70
1, 2855, Note_on_c, 9, 42, 46
1, 2855, Note_on_c, 9, 62, 80
1, 2855, Note_on_c, 9, 36, 105
1, 2855, Note_on_c, 11, 32, 66
1, 2856, Note_on_c, 9, 36, 0
1, 2856, Note_on_c, 9, 62, 0
1, 2856, Note_on_c, 9, 42, 0
1, 2856, Note_on_c, 2, 65, 74
1, 2856, Note_on_c, 2, 59, 66
1, 2856, Note_on_c, 2, 56, 65
1, 2858, Note_on_c, 0, 61, 46
1, 2865, Note_on_c, 0, 61, 0
1, 2874, Note_on_c, 11, 32, 0
1, 2874, Note_on_c, 1, 32, 0
1, 2877, Note_on_c, 2, 56, 0
1, 2878, Note_on_c, 2, 65, 0
1, 2878, Note_on_c, 2, 59, 0
1, 2878, Note_on_c, 1, 37, 88
1, 2878, Note_on_c, 9, 36, 67
1, 2878, Note_on_c, 11, 37, 84
1, 2879, Note_on_c, 9, 36, 0
1, 2879, Note_on_c, 9, 62, 55
1, 2880, Note_on_c, 9, 62, 0
1, 2880, Note_on_c, 0, 68, 52
1, 2880, Note_on_c, 0, 65, 57
1, 2880, Note_on_c, 0, 75, 55
1, 2880, Note_on_c, 2, 59, 85
1, 2880, Note_on_c, 2, 56, 87
1, 2880, Note_on_c, 2, 65, 98
1, 2880, Note_on_c, 9, 42, 70
1, 2881, Note_on_c, 9, 42, 0
1, 2881, Note_on_c, 0, 71, 53
1, 2903, Note_on_c, 1, 32, 69
1, 2903, Note_on_c, 9, 44, 52
1, 2903, Note_on_c, 11, 32, 65
1, 2904, Note_on_c, 9, 44, 0
1, 2904, Note_on_c, 1, 37, 0
1, 2904, Note_on_c, 11, 37, 0
1, 2905, Note_on_c, 0, 71, 0
1, 2908, Note_on_c, 0, 75, 0
1, 2909, Note_on_c, 0, 68, 0
1, 2912, Note_on_c, 0, 65, 0
1, 2926, Note_on_c, 2, 59, 0
1, 2926, Note_on_c, 2, 65, 0
1, 2926, Note_on_c, 9, 69, 45
1, 2927, Note_on_c, 9, 69, 0
1, 2927, Note_on_c, 0, 68, 70
1, 2927, Note_on_c, 0, 71, 70
1, 2927, Note_on_c, 0, 75, 70
1, 2927, Note_on_c, 1, 37, 91
1, 2927, Note_on_c, 9, 42, 46
1, 2927, Note_on_c, 9, 62, 76
1, 2927, Note_on_c, 9, 36, 107
1, 2927, Note_on_c, 11, 37, 87
1, 2928, Note_on_c, 9, 36, 0
1, 2928, Note_on_c, 9, 62, 0
1, 2928, Note_on_c, 9, 42, 0
1, 2928, Note_on_c, 2, 56, 0
1, 2928, Note_on_c, 0, 65, 70
1, 2928, Note_on_c, 2, 59, 85
1, 2928, Note_on_c, 2, 68, 95
1, 2928, Note_on_c, 2, 65, 100
1, 2929, Note_on_c, 11, 32, 0
1, 2929, Note_on_c, 1, 32, 0
1, 2936, Note_on_c, 2, 65, 0
1, 2936, Note_on_c, 2, 59, 0
1, 2937, Note_on_c, 2, 68, 0
1, 2950, Note_on_c, 9, 69, 26
1, 2951, Note_on_c, 9, 69, 0
1, 2951, Note_on_c, 11, 37, 0
1, 2951, Note_on_c, 1, 37, 0
1, 2951, Note_on_c, 9, 42, 37
1, 2952, Note_on_c, 9, 42, 0
1, 2952, Note_on_c, 2, 59, 72
1, 2952, Note_on_c, 2, 56, 73
1, 2952, Note_on_c, 2, 68, 79
1, 2952, Note_on_c, 2, 65, 87
1, 2973, Note_on_c, 2, 65, 0
1, 2974, Note_on_c, 2, 56, 0
1, 2975, Note_on_c, 9, 42, 91
1, 2975, Note_on_c, 9, 75, 82
1, 2975, Note_on_c, 9, 40, 110
1, 2976, Note_on_c, 9, 40, 0
1, 2976, Note_on_c, 9, 75, 0
1, 2976, Note_on_c, 9, 42, 0
1, 2976, Note_on_c, 0, 61, 55
1, 2977, Note_on_c, 0, 68, 0
1, 2977, Note_on_c, 9, 62, 84
1, 2978, Note_on_c, 9, 62, 0
1, 2980, Note_on_c, 0, 75, 0
1, 2982, Note_on_c, 0, 71, 0
1, 2982, Note_on_c, 0, 65, 0
1, 2998, Note_on_c, 2, 59, 0
1, 2998, Note_on_c, 1, 32, 73
1, 2998, Note_on_c, 11, 32, 69
1, 2999, Note_on_c, 9, 44, 52
1, 3000, Note_on_c, 9, 44, 0
1, 3000, Note_on_c, 2, 68, 0
1, 3000, Note_on_c, 0, 75, 59
1, 3000, Note_on_c, 2, 56, 77
1, 3000, Note_on_c, 2, 59, 66
1, 3000, Note_on_c, 2, 65, 69
1, 3001, Note_on_c, 0, 61, 0
1, 3001, Note_on_c, 0, 65, 62
1, 3001, Note_on_c, 0, 68, 55
1, 3001, Note_on_c, 0, 71, 75
1, 3014, Note_on_c, 0, 71, 0
1, 3017, Note_on_c, 0, 65, 0
1, 3018, Note_on_c, 0, 68, 0
1, 3019, Note_on_c, 11, 32, 0
1, 3019, Note_on_c, 1, 32, 0
1, 3021, Note_on_c, 0, 75, 0
1, 3022, Note_on_c, 2, 56, 0
1, 3022, Note_on_c, 2, 59, 0
1, 3022, Note_on_c, 2, 65, 0
1, 3022, Note_on_c, 1, 35, 86
1, 3022, Note_on_c, 9, 69, 39
1, 3022, Note_on_c, 11, 35, 82
1, 3023, Note_on_c, 9, 69, 0
1, 3023, Note_on_c, 9, 42, 48
1, 3024, Note_on_c, 9, 42, 0
1, 3024, Note_on_c, 2, 65, 79
1, 3024, Note_on_c, 2, 56, 63
1, 3024, Note_on_c, 2, 59, 67
1, 3039, Note_on_c, 11, 35, 0
1, 3039, Note_on_c, 1, 35, 0
1, 3046, Note_on_c, 2, 56, 0
1, 3046, Note_on_c, 2, 65, 0
1, 3046, Note_on_c, 2, 59, 0
1, 3046, Note_on_c, 1, 36, 80
1, 3046, Note_on_c, 9, 69, 25
1, 3046, Note_on_c, 11, 36, 76
1, 3047, Note_on_c, 9, 69, 0
1, 3047, Note_on_c, 9, 42, 48
1, 3048, Note_on_c, 9, 42, 0
1, 3048, Note_on_c, 2, 65, 72
1, 3048, Note_on_c, 2, 56, 68
1, 3048, Note_on_c, 2, 59, 70
1, 3049, Note_on_c, 0, 61, 55
1, 3058, Note_on_c, 0, 61, 0
1, 3064, Note_on_c, 6, 65, 0
1, 3069, Note_on_c, 2, 56, 0
1, 3070, Note_on_c, 2, 65, 0
1, 3070, Note_on_c, 11, 36, 0
1, 3070, Note_on_c, 2, 59, 0
1, 3070, Note_on_c, 1, 36, 0
1, 3070, Note_on_c, 0, 73, 59
1, 3070, Note_on_c, 1, 37, 103
1, 3070, Note_on_c, 11, 37, 99
1, 3071, Note_on_c, 0, 75, 58
1, 3071, Note_on_c, 0, 66, 57
1, 3071, Note_on_c, 0, 70, 65
1, 3071, Note_on_c, 9, 36, 113
1, 3072, Note_on_c, 9, 36, 0
1, 3072, Note_on_c, 10, 59, 0
1, 3072, Note_on_c, 10, 56, 0
1, 3072, Note_on_c, 10, 53, 0
1, 3072, Note_on_c, 2, 58, 93
1, 3072, Note_on_c, 2, 63, 93
1, 3072, Note_on_c, 2, 54, 69
1, 3072, Note_on_c, 2, 61, 93
1, 3072, Note_on_c, 9, 42, 73
1, 3072, Note_on_c, 10, 58, 54
1, 3072, Note_on_c, 10, 54, 54
1, 3072, Note_on_c, 10, 61, 54
1, 3073, Note_on_c, 9, 42, 0
1, 3086, Note_on_c, 0, 70, 0
1, 3095, Note_on_c, 0, 70, 60
1, 3096, Note_on_c, 9, 44, 42
1, 3097, Note_on_c, 9, 44, 0
1, 3110, Note_on_c, 11, 37, 0
1, 3110, Note_on_c, 1, 37, 0
1, 3118, Note_on_c, 2, 58, 0
1, 3118, Note_on_c, 2, 54, 0
1, 3118, Note_on_c, 0, 73, 0
1, 3118, Note_on_c, 2, 63, 0
1, 3118, Note_on_c, 2, 61, 0
1, 3118, Note_on_c, 0, 61, 55
1, 3118, Note_on_c, 9, 69, 35
1, 3119, Note_on_c, 9, 69, 0
1, 3119, Note_on_c, 9, 42, 42
1, 3120, Note_on_c, 9, 42, 0
1, 3120, Note_on_c, 2, 63, 100
1, 3120, Note_on_c, 2, 54, 100
1, 3120, Note_on_c, 2, 61, 100
1, 3120, Note_on_c, 2, 58, 100
1, 3121, Note_on_c, 0, 70, 0
1, 3122, Note_on_c, 0, 75, 0
1, 3123, Note_on_c, 0, 66, 0
1, 3127, Note_on_c, 0, 61, 0
1, 3128, Note_on_c, 2, 58, 0
1, 3129, Note_on_c, 2, 61, 0
1, 3130, Note_on_c, 2, 63, 0
1, 3130, Note_on_c, 2, 54, 0
1, 3143, Note_on_c, 0, 75, 53
1, 3143, Note_on_c, 0, 73, 57
1, 3143, Note_on_c, 9, 62, 80
1, 3143, Note_on_c, 9, 42, 42
1, 3144, Note_on_c, 9, 42, 0
1, 3144, Note_on_c, 9, 62, 0
1, 3144, Note_on_c, 0, 70, 61
1, 3144, Note_on_c, 0, 66, 59
1, 3144, Note_on_c, 2, 54, 63
1, 3144, Note_on_c, 2, 58, 65
1, 3144, Note_on_c, 2, 63, 86
1, 3144, Note_on_c, 2, 61, 81
1, 3144, Note_on_c, 9, 69, 24
1, 3145, Note_on_c, 9, 69, 0
1, 3153, Note_on_c, 0, 70, 0
1, 3155, Note_on_c, 0, 75, 0
1, 3157, Note_on_c, 0, 66, 0
1, 3157, Note_on_c, 0, 73, 0
1, 3167, Note_on_c, 9, 40, 104
1, 3167, Note_on_c, 9, 75, 76
1, 3168, Note_on_c, 9, 75, 0
1, 3168, Note_on_c, 2, 54, 0
1, 3168, Note_on_c, 9, 40, 0
1, 3168, Note_on_c, 2, 58, 0
1, 3168, Note_on_c, 2, 61, 0
1, 3168, Note_on_c, 9, 42, 81
1, 3169, Note_on_c, 9, 42, 0
1, 3169, Note_on_c, 9, 62, 74
1, 3170, Note_on_c, 9, 62, 0
1, 3190, Note_on_c, 2, 63, 0
1, 3191, Note_on_c, 9, 44, 43
1, 3192, Note_on_c, 9, 44, 0
1, 3192, Note_on_c, 2, 63, 65
1, 3192, Note_on_c, 2, 61, 65
1, 3192, Note_on_c, 2, 58, 61
1, 3192, Note_on_c, 2, 54, 59
1, 3193, Note_on_c, 0, 73, 57
1, 3193, Note_on_c, 0, 70, 57
1, 3193, Note_on_c, 0, 66, 59
1, 3200, Note_on_c, 0, 70, 0
1, 3202, Note_on_c, 0, 73, 0
1, 3202, Note_on_c, 0, 66, 0
1, 3212, Note_on_c, 2, 63, 0
1, 3213, Note_on_c, 2, 58, 0
1, 3213, Note_on_c, 2, 61, 0
1, 3214, Note_on_c, 2, 54, 0
1, 3214, Note_on_c, 9, 69, 45
1, 3215, Note_on_c, 9, 69, 0
1, 3215, Note_on_c, 9, 42, 50
1, 3216, Note_on_c, 9, 42, 0
1, 3216, Note_on_c, 2, 54, 60
1, 3216, Note_on_c, 2, 63, 64
1, 3216, Note_on_c, 2, 61, 62
1, 3216, Note_on_c, 2, 58, 60
1, 3238, Note_on_c, 2, 58, 0
1, 3238, Note_on_c, 2, 61, 0
1, 3238, Note_on_c, 2, 63, 0
1, 3238, Note_on_c, 2, 54, 0
1, 3238, Note_on_c, 9, 62, 69
1, 3238, Note_on_c, 9, 69, 34
1, 3239, Note_on_c, 9, 69, 0
1, 3239, Note_on_c, 9, 62, 0
1, 3239, Note_on_c, 1, 32, 72
1, 3239, Note_on_c, 9, 42, 43
1, 3239, Note_on_c, 11, 32, 68
1, 3240, Note_on_c, 9, 42, 0
1, 3240, Note_on_c, 2, 61, 64
1, 3240, Note_on_c, 2, 63, 67
1, 3240, Note_on_c, 2, 54, 59
1, 3240, Note_on_c, 2, 58, 59
1, 3241, Note_on_c, 0, 61, 53
1, 3241, Note_on_c, 9, 36, 110
1, 3242, Note_on_c, 9, 36, 0
1, 3246, Note_on_c, 0, 61, 0
1, 3259, Note_on_c, 7, 65, 0
1, 3260, Note_on_c, 2, 54, 0
1, 3260, Note_on_c, 11, 32, 0
1, 3260, Note_on_c, 1, 32, 0
1, 3261, Note_on_c, 2, 63, 0
1, 3261, Note_on_c, 2, 61, 0
1, 3262, Note_on_c, 2, 58, 0
1, 3263, Note_on_c, 0, 70, 75
1, 3263, Note_on_c, 0, 66, 63
1, 3263, Note_on_c, 0, 73, 60
1, 3263, Note_on_c, 1, 37, 82
1, 3263, Note_on_c, 9, 36, 64
1, 3263, Note_on_c, 11, 37, 78
1, 3264, Note_on_c, 9, 36, 0
1, 3264, Note_on_c, 2, 58, 81
1, 3264, Note_on_c, 2, 54, 76
1, 3264, Note_on_c, 2, 61, 83
1, 3264, Note_on_c, 2, 63, 90
1, 3264, Note_on_c, 9, 42, 85
1, 3265, Note_on_c, 9, 42, 0
1, 3265, Note_on_c, 0, 75, 47
1, 3265, Note_on_c, 9, 62, 76
1, 3266, Note_on_c, 9, 62, 0
1, 3280, Note_on_c, 0, 70, 0
1, 3284, Note_on_c, 1, 37, 0
1, 3284, Note_on_c, 11, 37, 0
1, 3284, Note_on_c, 0, 75, 0
1, 3287, Note_on_c, 1, 32, 72
1, 3287, Note_on_c, 9, 44, 42
1, 3287, Note_on_c, 11, 32, 68
1, 3288, Note_on_c, 9, 44, 0
1, 3289, Note_on_c, 0, 75, 44
1, 3289, Note_on_c, 0, 70, 48
1, 3303, Note_on_c, 0, 70, 0
1, 3306, Note_on_c, 2, 54, 0
1, 3306, Note_on_c, 2, 63, 0
1, 3308, Note_on_c, 2, 61, 0
1, 3308, Note_on_c, 7, 66, 91
1, 3309, Note_on_c, 1, 32, 0
1, 3309, Note_on_c, 2, 58, 0
1, 3309, Note_on_c, 11, 32, 0
1, 3310, Note_on_c, 6, 66, 79
1, 3310, Note_on_c, 9, 69, 43
1, 3311, Note_on_c, 9, 69, 0
1, 3311, Note_on_c, 0, 75, 0
1, 3311, Note_on_c, 0, 61, 54
1, 3311, Note_on_c, 1, 37, 86
1, 3311, Note_on_c, 11, 37, 82
1, 3312, Note_on_c, 0, 73, 0
1, 3312, Note_on_c, 0, 66, 0
1, 3312, Note_on_c, 2, 58, 102
1, 3312, Note_on_c, 2, 54, 102
1, 3312, Note_on_c, 2, 61, 102
1, 3312, Note_on_c, 2, 63, 102
1, 3312, Note_on_c, 9, 42, 54
1, 3313, Note_on_c, 9, 42, 0
1, 3313, Note_on_c, 9, 36, 113
1, 3314, Note_on_c, 9, 36, 0
1, 3320, Note_on_c, 0, 61, 0
1, 3322, Note_on_c, 2, 61, 0
1, 3324, Note_on_c, 2, 54, 0
1, 3324, Note_on_c, 2, 58, 0
1, 3324, Note_on_c, 2, 63, 0
1, 3334, Note_on_c, 9, 69, 32
1, 3335, Note_on_c, 9, 69, 0
1, 3335, Note_on_c, 0, 70, 56
1, 3335, Note_on_c, 0, 75, 62
1, 3335, Note_on_c, 0, 66, 57
1, 3335, Note_on_c, 0, 73, 57
1, 3335, Note_on_c, 9, 42, 49
1, 3336, Note_on_c, 9, 42, 0
1, 3336, Note_on_c, 2, 54, 73
1, 3336, Note_on_c, 2, 58, 64
1, 3336, Note_on_c, 2, 61, 76
1, 3336, Note_on_c, 2, 63, 83
1, 3337, Note_on_c, 7, 65, 91
1, 3337, Note_on_c, 9, 62, 66
1, 3338, Note_on_c, 9, 62, 0
1, 3338, Note_on_c, 11, 37, 0
1, 3338, Note_on_c, 1, 37, 0
1, 3338, Note_on_c, 7, 66, 0
1, 3339, Note_on_c, 6, 66, 0
1, 3342, Note_on_c, 6, 65, 81
1, 3346, Note_on_c, 0, 70, 0
1, 3350, Note_on_c, 0, 73, 0
1, 3350, Note_on_c, 0, 75, 0
1, 3354, Note_on_c, 0, 66, 0
1, 3360, Note_on_c, 2, 61, 0
1, 3360, Note_on_c, 9, 75, 76
1, 3361, Note_on_c, 9, 75, 0
1, 3361, Note_on_c, 9, 40, 105
1, 3361, Note_on_c, 9, 42, 73
1, 3362, Note_on_c, 9, 42, 0
1, 3362, Note_on_c, 9, 40, 0
1, 3362, Note_on_c, 9, 62, 59
1, 3363, Note_on_c, 9, 62, 0
1, 3364, Note_on_c, 6, 65, 0
1, 3368, Note_on_c, 7, 65, 0
1, 3382, Note_on_c, 2, 54, 0
1, 3382, Note_on_c, 2, 58, 0
1, 3382, Note_on_c, 2, 63, 0
1, 3383, Note_on_c, 9, 44, 45
1, 3384, Note_on_c, 9, 44, 0
1, 3384, Note_on_c, 2, 58, 62
1, 3384, Note_on_c, 2, 54, 63
1, 3384, Note_on_c, 2, 61, 63
1, 3384, Note_on_c, 2, 63, 67
1, 3385, Note_on_c, 0, 66, 59
1, 3385, Note_on_c, 0, 73, 58
1, 3385, Note_on_c, 0, 70, 55
1, 3386, Note_on_c, 0, 75, 53
1, 3386, Note_on_c, 7, 63, 90
1, 3386, Note_on_c, 9, 62, 59
1, 3387, Note_on_c, 9, 62, 0
1, 3389, Note_on_c, 6, 63, 75
1, 3394, Note_on_c, 0, 70, 0
1, 3398, Note_on_c, 0, 73, 0
1, 3398, Note_on_c, 0, 66, 0
1, 3398, Note_on_c, 0, 75, 0
1, 3404, Note_on_c, 2, 61, 0
1, 3404, Note_on_c, 2, 58, 0
1, 3406, Note_on_c, 2, 63, 0
1, 3406, Note_on_c, 2, 54, 0
1, 3406, Note_on_c, 9, 69, 35
1, 3407, Note_on_c, 9, 69, 0
1, 3407, Note_on_c, 1, 32, 70
1, 3407, Note_on_c, 9, 42, 51
1, 3407, Note_on_c, 11, 32, 66
1, 3408, Note_on_c, 9, 42, 0
1, 3408, Note_on_c, 2, 58, 59
1, 3408, Note_on_c, 2, 63, 74
1, 3408, Note_on_c, 2, 54, 61
1, 3408, Note_on_c, 2, 61, 74
1, 3410, Note_on_c, 6, 63, 0
1, 3410, Note_on_c, 9, 62, 76
1, 3411, Note_on_c, 9, 62, 0
1, 3412, Note_on_c, 7, 63, 0
1, 3429, Note_on_c, 11, 32, 0
1, 3429, Note_on_c, 1, 32, 0
1, 3430, Note_on_c, 2, 63, 0
1, 3430, Note_on_c, 2, 58, 0
1, 3430, Note_on_c, 2, 54, 0
1, 3430, Note_on_c, 2, 61, 0
1, 3431, Note_on_c, 1, 35, 88
1, 3431, Note_on_c, 9, 69, 25
1, 3431, Note_on_c, 9, 42, 43
1, 3431, Note_on_c, 11, 35, 84
1, 3432, Note_on_c, 9, 42, 0
1, 3432, Note_on_c, 9, 69, 0
1, 3432, Note_on_c, 2, 61, 66
1, 3432, Note_on_c, 2, 54, 62
1, 3432, Note_on_c, 2, 63, 71
1, 3432, Note_on_c, 2, 58, 59
1, 3432, Note_on_c, 7, 61, 88
1, 3433, Note_on_c, 0, 61, 53
1, 3434, Note_on_c, 6, 61, 83
1, 3440, Note_on_c, 0, 61, 0
1, 3449, Note_on_c, 11, 35, 0
1, 3449, Note_on_c, 1, 35, 0
1, 3452, Note_on_c, 2, 54, 0
1, 3453, Note_on_c, 2, 63, 0
1, 3453, Note_on_c, 2, 61, 0
1, 3454, Note_on_c, 2, 58, 0
1, 3455, Note_on_c, 0, 73, 58
1, 3455, Note_on_c, 0, 75, 59
1, 3455, Note_on_c, 1, 37, 88
1, 3455, Note_on_c, 9, 36, 110
1, 3455, Note_on_c, 9, 42, 87
1, 3455, Note_on_c, 11, 37, 84
1, 3456, Note_on_c, 9, 42, 0
1, 3456, Note_on_c, 9, 36, 0
1, 3456, Note_on_c, 10, 58, 0
1, 3456, Note_on_c, 0, 69, 75
1, 3456, Note_on_c, 2, 61, 71
1, 3456, Note_on_c, 2, 57, 73
1, 3456, Note_on_c, 2, 54, 47
1, 3456, Note_on_c, 2, 63, 79
1, 3456, Note_on_c, 10, 57, 53
1, 3457, Note_on_c, 0, 66, 56
1, 3470, Note_on_c, 0, 69, 0
1, 3472, Note_on_c, 0, 75, 0
1, 3474, Note_on_c, 0, 73, 0
1, 3479, Note_on_c, 0, 73, 53
1, 3479, Note_on_c, 0, 69, 64
1, 3479, Note_on_c, 9, 44, 42
1, 3480, Note_on_c, 9, 44, 0
1, 3480, Note_on_c, 0, 75, 54
1, 3494, Note_on_c, 1, 37, 0
1, 3494, Note_on_c, 11, 37, 0
1, 3497, Note_on_c, 0, 69, 0
1, 3498, Note_on_c, 0, 75, 0
1, 3500, Note_on_c, 0, 73, 0
1, 3501, Note_on_c, 2, 61, 0
1, 3501, Note_on_c, 2, 54, 0
1, 3501, Note_on_c, 2, 57, 0
1, 3502, Note_on_c, 2, 63, 0
1, 3502, Note_on_c, 0, 61, 56
1, 3503, Note_on_c, 0, 66, 0
1, 3503, Note_on_c, 9, 42, 55
1, 3503, Note_on_c, 9, 69, 34
1, 3504, Note_on_c, 9, 69, 0
1, 3504, Note_on_c, 9, 42, 0
1, 3504, Note_on_c, 2, 57, 95
1, 3504, Note_on_c, 2, 61, 95
1, 3504, Note_on_c, 2, 54, 95
1, 3504, Note_on_c, 2, 63, 95
1, 3512, Note_on_c, 2, 63, 0
1, 3512, Note_on_c, 2, 57, 0
1, 3512, Note_on_c, 2, 54, 0
1, 3512, Note_on_c, 2, 61, 0
1, 3513, Note_on_c, 0, 61, 0
1, 3526, Note_on_c, 0, 73, 52
1, 3527, Note_on_c, 0, 66, 57
1, 3527, Note_on_c, 0, 69, 71
1, 3527, Note_on_c, 0, 75, 57
1, 3527, Note_on_c, 9, 42, 54
1, 3527, Note_on_c, 9, 62, 88
1, 3528, Note_on_c, 9, 62, 0
1, 3528, Note_on_c, 9, 42, 0
1, 3528, Note_on_c, 2, 57, 65
1, 3528, Note_on_c, 2, 61, 79
1, 3528, Note_on_c, 2, 54, 66
1, 3528, Note_on_c, 2, 63, 93
1, 3528, Note_on_c, 9, 69, 27
1, 3529, Note_on_c, 9, 69, 0
1, 3539, Note_on_c, 0, 69, 0
1, 3542, Note_on_c, 0, 75, 0
1, 3544, Note_on_c, 0, 73, 0
1, 3548, Note_on_c, 0, 66, 0
1, 3550, Note_on_c, 2, 61, 0
1, 3551, Note_on_c, 9, 42, 94
1, 3551, Note_on_c, 9, 40, 104
1, 3552, Note_on_c, 9, 40, 0
1, 3552, Note_on_c, 9, 42, 0
1, 3552, Note_on_c, 9, 75, 79
1, 3553, Note_on_c, 9, 75, 0
1, 3553, Note_on_c, 9, 62, 74
1, 3554, Note_on_c, 9, 62, 0
1, 3574, Note_on_c, 2, 57, 0
1, 3574, Note_on_c, 2, 54, 0
1, 3574, Note_on_c, 2, 63, 0
1, 3574, Note_on_c, 0, 73, 57
1, 3574, Note_on_c, 0, 69, 68
1, 3575, Note_on_c, 0, 75, 54
1, 3575, Note_on_c, 0, 66, 57
1, 3575, Note_on_c, 9, 44, 43
1, 3576, Note_on_c, 9, 44, 0
1, 3576, Note_on_c, 2, 61, 60
1, 3576, Note_on_c, 2, 54, 60
1, 3576, Note_on_c, 2, 57, 59
1, 3576, Note_on_c, 2, 63, 68
1, 3585, Note_on_c, 0, 69, 0
1, 3585, Note_on_c, 0, 66, 0
1, 3585, Note_on_c, 0, 75, 0
1, 3586, Note_on_c, 0, 73, 0
1, 3598, Note_on_c, 2, 61, 0
1, 3598, Note_on_c, 2, 63, 0
1, 3598, Note_on_c, 2, 54, 0
1, 3598, Note_on_c, 2, 57, 0
1, 3598, Note_on_c, 9, 69, 37
1, 3599, Note_on_c, 9, 69, 0
1, 3599, Note_on_c, 9, 42, 44
1, 3600, Note_on_c, 9, 42, 0
1, 3600, Note_on_c, 2, 54, 62
1, 3600, Note_on_c, 2, 57, 64
1, 3600, Note_on_c, 2, 61, 72
1, 3600, Note_on_c, 2, 63, 81
1, 3622, Note_on_c, 2, 63, 0
1, 3622, Note_on_c, 2, 61, 0
1, 3622, Note_on_c, 2, 54, 0
1, 3622, Note_on_c, 2, 57, 0
1, 3622, Note_on_c, 1, 32, 72
1, 3622, Note_on_c, 11, 32, 68
1, 3623, Note_on_c, 9, 69, 33
1, 3623, Note_on_c, 9, 62, 74
1, 3623, Note_on_c, 9, 42, 55
1, 3624, Note_on_c, 9, 42, 0
1, 3624, Note_on_c, 9, 62, 0
1, 3624, Note_on_c, 9, 69, 0
1, 3624, Note_on_c, 0, 61, 54
1, 3624, Note_on_c, 2, 63, 81
1, 3624, Note_on_c, 2, 54, 65
1, 3624, Note_on_c, 2, 61, 64
1, 3624, Note_on_c, 2, 57, 68
1, 3625, Note_on_c, 9, 36, 105
1, 3626, Note_on_c, 9, 36, 0
1, 3632, Note_on_c, 0, 61, 0
1, 3641, Note_on_c, 6, 63, 72
1, 3643, Note_on_c, 1, 32, 0
1, 3643, Note_on_c, 11, 32, 0
1, 3644, Note_on_c, 6, 61, 0
1, 3644, Note_on_c, 2, 57, 0
1, 3645, Note_on_c, 2, 54, 0
1, 3646, Note_on_c, 2, 63, 0
1, 3646, Note_on_c, 2, 61, 0
1, 3646, Note_on_c, 0, 75, 62
1, 3646, Note_on_c, 0, 69, 69
1, 3646, Note_on_c, 0, 73, 61
1, 3646, Note_on_c, 1, 37, 85
1, 3646, Note_on_c, 11, 37, 81
1, 3647, Note_on_c, 0, 66, 61
1, 3647, Note_on_c, 7, 63, 90
1, 3647, Note_on_c, 9, 62, 69
1, 3647, Note_on_c, 9, 42, 78
1, 3647, Note_on_c, 9, 36, 69
1, 3648, Note_on_c, 9, 36, 0
1, 3648, Note_on_c, 9, 42, 0
1, 3648, Note_on_c, 9, 62, 0
1, 3648, Note_on_c, 2, 57, 80
1, 3648, Note_on_c, 2, 61, 80
1, 3648, Note_on_c, 2, 63, 80
1, 3648, Note_on_c, 2, 54, 80
1, 3650, Note_on_c, 7, 61, 0
1, 3669, Note_on_c, 11, 37, 0
1, 3669, Note_on_c, 1, 37, 0
1, 3670, Note_on_c, 1, 32, 68
1, 3670, Note_on_c, 11, 32, 64
1, 3671, Note_on_c, 9, 44, 49
1, 3672, Note_on_c, 9, 44, 0
1, 3682, Note_on_c, 0, 69, 0
1, 3682, Note_on_c, 0, 75, 0
1, 3684, Note_on_c, 0, 73, 0
1, 3687, Note_on_c, 0, 66, 0
1, 3690, Note_on_c, 2, 63, 0
1, 3692, Note_on_c, 2, 57, 0
1, 3692, Note_on_c, 2, 61, 0
1, 3693, Note_on_c, 1, 32, 0
1, 3693, Note_on_c, 2, 54, 0
1, 3693, Note_on_c, 11, 32, 0
1, 3694, Control_c, 0, 64, 127
1, 3694, Note_on_c, 0, 61, 59
1, 3694, Note_on_c, 1, 37, 88
1, 3694, Note_on_c, 9, 69, 37
1, 3694, Note_on_c, 11, 37, 84
1, 3695, Note_on_c, 9, 69, 0
1, 3695, Note_on_c, 9, 42, 46
1, 3695, Note_on_c, 9, 36, 107
1, 3695, Note_on_c, 9, 62, 84
1, 3696, Note_on_c, 9, 62, 0
1, 3696, Note_on_c, 9, 42, 0
1, 3696, Note_on_c, 9, 36, 0
1, 3696, Note_on_c, 2, 61, 94
1, 3696, Note_on_c, 2, 63, 94
1, 3696, Note_on_c, 2, 54, 94
1, 3696, Note_on_c, 2, 57, 94
1, 3702, Note_on_c, 0, 61, 0
1, 3704, Note_on_c, 2, 63, 0
1, 3704, Note_on_c, 2, 61, 0
1, 3704, Note_on_c, 2, 57, 0
1, 3704, Note_on_c, 2, 54, 0
1, 3718, Note_on_c, 9, 69, 27
1, 3719, Note_on_c, 9, 69, 0
1, 3719, Note_on_c, 9, 42, 42
1, 3720, Note_on_c, 9, 42, 0
1, 3720, Note_on_c, 2, 54, 68
1, 3720, Note_on_c, 2, 63, 90
1, 3720, Note_on_c, 2, 61, 67
1, 3720, Note_on_c, 2, 57, 65
1, 3729, Note_on_c, 1, 37, 0
1, 3729, Note_on_c, 11, 37, 0
1, 3738, Note_on_c, 6, 64, 98
1, 3739, Note_on_c, 7, 63, 0
1, 3739, Note_on_c, 6, 63, 0
1, 3741, Note_on_c, 2, 63, 0
1, 3741, Note_on_c, 2, 57, 0
1, 3741, Note_on_c, 7, 64, 91
1, 3742, Note_on_c, 2, 54, 0
1, 3742, Note_on_c, 2, 61, 0
1, 3743, Note_on_c, 9, 62, 90
1, 3743, Note_on_c, 9, 40, 107
1, 3744, Note_on_c, 9, 40, 0
1, 3744, Note_on_c, 9, 62, 0
1, 3744, Note_on_c, 10, 63, 0
1, 3744, Note_on_c, 9, 75, 79
1, 3744, Note_on_c, 9, 42, 87
1, 3744, Note_on_c, 10, 64, 63
1, 3745, Note_on_c, 9, 42, 0
1, 3745, Note_on_c, 9, 75, 0
1, 3763, Control_c, 0, 64, 0
1, 3767, Note_on_c, 0, 64, 77
1, 3767, Note_on_c, 9, 44, 44
1, 3768, Note_on_c, 9, 44, 0
1, 3768, Note_on_c, 0, 61, 68
1, 3768, Note_on_c, 2, 61, 63
1, 3768, Note_on_c, 2, 57, 67
1, 3768, Note_on_c, 2, 64, 93
1, 3768, Note_on_c, 2, 54, 58
1, 3769, Note_on_c, 0, 54, 61
1, 3769, Note_on_c, 0, 57, 67
1, 3787, Control_c, 0, 64, 127
1, 3788, Note_on_c, 2, 54, 0
1, 3789, Note_on_c, 2, 61, 0
1, 3789, Note_on_c, 2, 64, 0
1, 3790, Note_on_c, 2, 57, 0
1, 3790, Note_on_c, 9, 69, 39
1, 3791, Note_on_c, 9, 69, 0
1, 3791, Note_on_c, 1, 32, 74
1, 3791, Note_on_c, 9, 42, 48
1, 3791, Note_on_c, 11, 32, 70
1, 3792, Note_on_c, 9, 42, 0
1, 3792, Note_on_c, 10, 54, 0
1, 3792, Note_on_c, 2, 61, 62
1, 3792, Note_on_c, 2, 57, 63
1, 3792, Note_on_c, 2, 54, 63
1, 3792, Note_on_c, 2, 64, 90
1, 3797, Note_on_c, 0, 64, 0
1, 3797, Note_on_c, 0, 57, 0
1, 3803, Note_on_c, 0, 61, 0
1, 3805, Note_on_c, 0, 54, 0
1, 3814, Note_on_c, 2, 61, 0
1, 3814, Note_on_c, 11, 32, 0
1, 3814, Note_on_c, 1, 32, 0
1, 3814, Note_on_c, 2, 57, 0
1, 3814, Note_on_c, 2, 54, 0
1, 3814, Note_on_c, 2, 64, 0
1, 3815, Note_on_c, 1, 35, 92
1, 3815, Note_on_c, 9, 69, 27
1, 3815, Note_on_c, 9, 42, 43
1, 3815, Note_on_c, 11, 35, 88
1, 3816, Note_on_c, 9, 42, 0
1, 3816, Note_on_c, 9, 69, 0
1, 3816, Note_on_c, 2, 64, 86
1, 3816, Note_on_c, 2, 61, 63
1, 3816, Note_on_c, 2, 57, 66
1, 3816, Note_on_c, 2, 54, 62
1, 3835, Note_on_c, 11, 35, 0
1, 3835, Note_on_c, 1, 35, 0
1, 3835, Note_on_c, 6, 65, 91
1, 3838, Note_on_c, 2, 54, 0
1, 3838, Note_on_c, 2, 64, 0
1, 3838, Note_on_c, 2, 57, 0
1, 3838, Note_on_c, 2, 61, 0
1, 3838, Note_on_c, 6, 64, 0
1, 3838, Note_on_c, 0, 60, 68
1, 3838, Note_on_c, 0, 53, 69
1, 3838, Note_on_c, 0, 63, 56
1, 3838, Note_on_c, 0, 56, 71
1, 3839, Note_on_c, 1, 37, 97
1, 3839, Note_on_c, 7, 65, 91
1, 3839, Note_on_c, 9, 36, 115
1, 3839, Note_on_c, 9, 42, 87
1, 3839, Note_on_c, 11, 37, 93
1, 3840, Note_on_c, 9, 42, 0
1, 3840, Note_on_c, 10, 57, 0
1, 3840, Note_on_c, 7, 64, 0
1, 3840, Note_on_c, 10, 61, 0
1, 3840, Note_on_c, 9, 36, 0
1, 3840, Note_on_c, 10, 64, 0
1, 3840, Note_on_c, 2, 56, 83
1, 3840, Note_on_c, 2, 60, 63
1, 3840, Note_on_c, 2, 65, 79
1, 3840, Note_on_c, 10, 60, 55
1, 3840, Note_on_c, 10, 63, 55
1, 3840, Note_on_c, 10, 56, 55
1, 3840, Note_on_c, 10, 53, 55
1, 3842, Control_c, 0, 64, 0
1, 3854, Note_on_c, 0, 60, 0
1, 3854, Note_on_c, 0, 56, 0
1, 3862, Note_on_c, 0, 60, 65
1, 3862, Note_on_c, 0, 56, 41
1, 3863, Note_on_c, 9, 44, 41
1, 3864, Note_on_c, 9, 44, 0
1, 3878, Note_on_c, 1, 37, 0
1, 3878, Note_on_c, 11, 37, 0
1, 3884, Note_on_c, 2, 60, 0
1, 3884, Note_on_c, 2, 65, 0
1, 3886, Note_on_c, 2, 56, 0
1, 3886, Note_on_c, 9, 69, 46
1, 3887, Note_on_c, 9, 69, 0
1, 3887, Note_on_c, 9, 42, 52
1, 3888, Note_on_c, 9, 42, 0
1, 3888, Note_on_c, 2, 60, 100
1, 3888, Note_on_c, 2, 65, 100
1, 3888, Note_on_c, 2, 56, 100
1, 3888, Note_on_c, 2, 68, 100
1, 3891, Note_on_c, 0, 60, 0
1, 3893, Note_on_c, 0, 56, 0
1, 3896, Note_on_c, 0, 53, 0
1, 3897, Note_on_c, 2, 56, 0
1, 3898, Note_on_c, 0, 63, 0
1, 3900, Note_on_c, 2, 60, 0
1, 3900, Note_on_c, 2, 65, 0
1, 3904, Note_on_c, 2, 68, 0
1, 3911, Note_on_c, 0, 56, 61
1, 3911, Note_on_c, 0, 63, 52
1, 3911, Note_on_c, 9, 42, 45
1, 3911, Note_on_c, 9, 69, 33
1, 3911, Note_on_c, 9, 62, 87
1, 3912, Note_on_c, 9, 62, 0
1, 3912, Note_on_c, 9, 69, 0
1, 3912, Note_on_c, 9, 42, 0
1, 3912, Note_on_c, 0, 53, 57
1, 3912, Note_on_c, 0, 60, 67
1, 3912, Note_on_c, 2, 56, 81
1, 3912, Note_on_c, 2, 65, 65
1, 3912, Note_on_c, 2, 68, 70
1, 3912, Note_on_c, 2, 60, 63
1, 3925, Note_on_c, 0, 60, 0
1, 3926, Note_on_c, 0, 56, 0
1, 3930, Note_on_c, 0, 63, 0
1, 3935, Note_on_c, 9, 40, 101
1, 3935, Note_on_c, 9, 75, 74
1, 3935, Note_on_c, 9, 42, 81
1, 3936, Note_on_c, 9, 42, 0
1, 3936, Note_on_c, 9, 75, 0
1, 3936, Note_on_c, 9, 40, 0
1, 3936, Note_on_c, 9, 62, 74
1, 3937, Note_on_c, 9, 62, 0
1, 3937, Note_on_c, 0, 49, 53
1, 3940, Note_on_c, 0, 49, 0
1, 3940, Note_on_c, 0, 53, 0
1, 3958, Note_on_c, 2, 56, 0
1, 3958, Note_on_c, 2, 60, 0
1, 3958, Note_on_c, 2, 65, 0
1, 3958, Note_on_c, 0, 63, 47
1, 3958, Note_on_c, 0, 60, 69
1, 3958, Note_on_c, 0, 56, 59
1, 3958, Note_on_c, 0, 53, 53
1, 3959, Note_on_c, 9, 44, 48
1, 3960, Note_on_c, 9, 44, 0
1, 3960, Note_on_c, 2, 68, 0
1, 3960, Note_on_c, 2, 56, 63
1, 3960, Note_on_c, 2, 60, 63
1, 3960, Note_on_c, 2, 65, 74
1, 3970, Note_on_c, 0, 56, 0
1, 3970, Note_on_c, 0, 60, 0
1, 3971, Note_on_c, 0, 63, 0
1, 3976, Note_on_c, 0, 53, 0
1, 3982, Note_on_c, 2, 56, 0
1, 3982, Note_on_c, 2, 65, 0
1, 3982, Note_on_c, 2, 60, 0
1, 3983, Note_on_c, 9, 42, 48
1, 3983, Note_on_c, 9, 69, 41
1, 3984, Note_on_c, 9, 69, 0
1, 3984, Note_on_c, 9, 42, 0
1, 3984, Note_on_c, 2, 60, 63
1, 3984, Note_on_c, 2, 65, 79
1, 3984, Note_on_c, 2, 56, 67
1, 4006, Note_on_c, 2, 56, 0
1, 4006, Note_on_c, 2, 65, 0
1, 4006, Note_on_c, 2, 60, 0
1, 4006, Note_on_c, 9, 62, 69
1, 4007, Note_on_c, 9, 62, 0
1, 4007, Note_on_c, 0, 49, 47
1, 4007, Note_on_c, 1, 32, 69
1, 4007, Note_on_c, 9, 36, 104
1, 4007, Note_on_c, 9, 42, 42
1, 4007, Note_on_c, 11, 32, 65
1, 4008, Note_on_c, 9, 42, 0
1, 4008, Note_on_c, 9, 36, 0
1, 4008, Note_on_c, 2, 56, 66
1, 4008, Note_on_c, 2, 60, 67
1, 4008, Note_on_c, 2, 65, 83
1, 4008, Note_on_c, 9, 69, 33
1, 4009, Note_on_c, 9, 69, 0
1, 4017, Note_on_c, 0, 49, 0
1, 4024, Note_on_c, 1, 32, 0
1, 4024, Note_on_c, 11, 32, 0
1, 4026, Note_on_c, 7, 65, 0
1, 4026, Note_on_c, 6, 65, 0
1, 4028, Note_on_c, 2, 65, 0
1, 4030, Note_on_c, 2, 60, 0
1, 4030, Note_on_c, 2, 56, 0
1, 4030, Note_on_c, 0, 56, 64
1, 4030, Note_on_c, 0, 63, 58
1, 4030, Note_on_c, 0, 53, 61
1, 4030, Note_on_c, 0, 60, 69
1, 4031, Note_on_c, 1, 37, 81
1, 4031, Note_on_c, 9, 36, 67
1, 4031, Note_on_c, 11, 37, 77
1, 4032, Note_on_c, 9, 36, 0
1, 4032, Note_on_c, 2, 65, 76
1, 4032, Note_on_c, 2, 60, 74
1, 4032, Note_on_c, 2, 56, 66
1, 4032, Note_on_c, 9, 42, 83
1, 4033, Note_on_c, 9, 42, 0
1, 4033, Note_on_c, 9, 62, 62
1, 4034, Note_on_c, 9, 62, 0
1, 4054, Note_on_c, 1, 37, 0
1, 4054, Note_on_c, 11, 37, 0
1, 4054, Note_on_c, 1, 32, 56
1, 4054, Note_on_c, 11, 32, 52
1, 4055, Note_on_c, 9, 44, 42
1, 4056, Note_on_c, 9, 44, 0
1, 4071, Note_on_c, 7, 56, 85
1, 4073, Note_on_c, 6, 56, 66
1, 4078, Note_on_c, 2, 56, 0
1, 4078, Note_on_c, 11, 32, 0
1, 4078, Note_on_c, 2, 65, 0
1, 4078, Note_on_c, 2, 60, 0
1, 4078, Note_on_c, 1, 32, 0
1, 4078, Note_on_c, 0, 49, 53
1, 4078, Note_on_c, 9, 69, 41
1, 4079, Note_on_c, 9, 69, 0
1, 4079, Note_on_c, 1, 37, 82
1, 4079, Note_on_c, 9, 36, 105
1, 4079, Note_on_c, 9, 42, 46
1, 4079, Note_on_c, 11, 37, 78
1, 4080, Note_on_c, 9, 42, 0
1, 4080, Note_on_c, 9, 36, 0
1, 4080, Note_on_c, 2, 60, 103
1, 4080, Note_on_c, 2, 68, 103
1, 4080, Note_on_c, 2, 56, 103
1, 4080, Note_on_c, 2, 65, 103
1, 4081, Note_on_c, 0, 60, 0
1, 4084, Note_on_c, 0, 56, 0
1, 4087, Note_on_c, 0, 53, 0
1, 4088, Note_on_c, 2, 65, 0
1, 4090, Note_on_c, 0, 63, 0
1, 4090, Note_on_c, 2, 60, 0
1, 4092, Note_on_c, 2, 56, 0
1, 4092, Note_on_c, 2, 68, 0
1, 4098, Note_on_c, 0, 49, 0
1, 4102, Note_on_c, 0, 63, 54
1, 4102, Note_on_c, 6, 61, 74
1, 4102, Note_on_c, 9, 62, 71
1, 4102, Note_on_c, 9, 69, 23
1, 4103, Note_on_c, 9, 69, 0
1, 4103, Note_on_c, 9, 62, 0
1, 4103, Note_on_c, 0, 53, 55
1, 4103, Note_on_c, 0, 60, 71
1, 4103, Note_on_c, 0, 56, 64
1, 4103, Note_on_c, 9, 42, 55
1, 4104, Note_on_c, 9, 42, 0
1, 4104, Note_on_c, 2, 60, 67
1, 4104, Note_on_c, 2, 56, 65
1, 4104, Note_on_c, 2, 65, 90
1, 4104, Note_on_c, 2, 68, 76
1, 4105, Note_on_c, 6, 56, 0
1, 4105, Note_on_c, 7, 61, 88
1, 4108, Note_on_c, 7, 56, 0
1, 4109, Note_on_c, 1, 37, 0
1, 4109, Note_on_c, 11, 37, 0
1, 4118, Note_on_c, 0, 60, 0
1, 4119, Note_on_c, 0, 56, 0
1, 4122, Note_on_c, 0, 63, 0
1, 4125, Note_on_c, 7, 61, 0
1, 4125, Note_on_c, 6, 61, 0
1, 4126, Note_on_c, 0, 53, 0
1, 4127, Note_on_c, 9, 42, 81
1, 4127, Note_on_c, 9, 40, 105
1, 4127, Note_on_c, 9, 75, 79
1, 4127, Note_on_c, 9, 62, 63
1, 4128, Note_on_c, 9, 62, 0
1, 4128, Note_on_c, 9, 40, 0
1, 4128, Note_on_c, 9, 42, 0
1, 4128, Note_on_c, 9, 75, 0
1, 4150, Note_on_c, 2, 65, 0
1, 4150, Note_on_c, 2, 56, 0
1, 4150, Note_on_c, 2, 60, 0
1, 4150, Note_on_c, 7, 70, 102
1, 4151, Note_on_c, 9, 44, 46
1, 4152, Note_on_c, 9, 44, 0
1, 4152, Note_on_c, 2, 68, 0
1, 4152, Note_on_c, 0, 63, 52
1, 4152, Note_on_c, 2, 65, 71
1, 4152, Note_on_c, 2, 56, 66
1, 4152, Note_on_c, 2, 60, 64
1, 4152, Note_on_c, 6, 70, 88
1, 4153, Note_on_c, 0, 56, 62
1, 4153, Note_on_c, 0, 60, 70
1, 4153, Note_on_c, 0, 53, 61
1, 4153, Note_on_c, 9, 62, 69
1, 4154, Note_on_c, 9, 62, 0
1, 4170, Note_on_c, 7, 70, 0
1, 4174, Note_on_c, 2, 60, 0
1, 4174, Note_on_c, 2, 56, 0
1, 4174, Note_on_c, 2, 65, 0
1, 4174, Note_on_c, 9, 69, 46
1, 4175, Note_on_c, 9, 69, 0
1, 4175, Note_on_c, 6, 70, 0
1, 4175, Note_on_c, 1, 32, 81
1, 4175, Note_on_c, 9, 42, 45
1, 4175, Note_on_c, 9, 62, 63
1, 4175, Note_on_c, 11, 32, 77
1, 4176, Note_on_c, 9, 62, 0
1, 4176, Note_on_c, 9, 42, 0
1, 4176, Note_on_c, 2, 60, 67
1, 4176, Note_on_c, 2, 65, 79
1, 4176, Note_on_c, 2, 56, 64
1, 4186, Note_on_c, 0, 60, 0
1, 4187, Note_on_c, 0, 53, 0
1, 4188, Note_on_c, 0, 63, 0
1, 4190, Note_on_c, 0, 56, 0
1, 4198, Note_on_c, 2, 60, 0
1, 4198, Note_on_c, 1, 32, 0
1, 4198, Note_on_c, 2, 65, 0
1, 4198, Note_on_c, 11, 32, 0
1, 4198, Note_on_c, 2, 56, 0
1, 4198, Note_on_c, 0, 49, 48
1, 4198, Note_on_c, 9, 69, 27
1, 4199, Note_on_c, 9, 69, 0
1, 4199, Note_on_c, 1, 34, 80
1, 4199, Note_on_c, 7, 68, 98
1, 4199, Note_on_c, 9, 42, 47
1, 4199, Note_on_c, 11, 34, 76
1, 4200, Note_on_c, 9, 42, 0
1, 4200, Note_on_c, 2, 65, 76
1, 4200, Note_on_c, 2, 60, 64
1, 4200, Note_on_c, 2, 56, 63
1, 4201, Note_on_c, 6, 68, 79
1, 4216, Note_on_c, 0, 49, 0
1, 4220, Note_on_c, 2, 65, 0
1, 4221, Note_on_c, 2, 56, 0
1, 4221, Note_on_c, 2, 60, 0
1, 4223, Note_on_c, 11, 34, 0
1, 4223, Note_on_c, 1, 34, 0
1, 4223, Note_on_c, 0, 59, 73
1, 4223, Note_on_c, 0, 56, 73
1, 4223, Note_on_c, 0, 53, 73
1, 4223, Note_on_c, 0, 63, 73
1, 4223, Note_on_c, 1, 37, 84
1, 4223, Note_on_c, 9, 36, 115
1, 4223, Note_on_c, 11, 37, 80
1, 4224, Note_on_c, 9, 36, 0
1, 4224, Note_on_c, 10, 60, 0
1, 4224, Note_on_c, 2, 56, 72
1, 4224, Note_on_c, 2, 65, 83
1, 4224, Note_on_c, 2, 59, 77
1, 4224, Note_on_c, 10, 59, 58
1, 4225, Note_on_c, 9, 42, 81
1, 4226, Note_on_c, 9, 42, 0
1, 4236, Note_on_c, 0, 59, 0
1, 4238, Note_on_c, 0, 63, 0
1, 4238, Note_on_c, 0, 56, 0
1, 4246, Note_on_c, 0, 59, 71
1, 4246, Note_on_c, 0, 56, 53
1, 4247, Note_on_c, 0, 63, 40
1, 4248, Note_on_c, 9, 44, 46
1, 4249, Note_on_c, 9, 44, 0
1, 4259, Note_on_c, 1, 37, 0
1, 4259, Note_on_c, 11, 37, 0
1, 4268, Note_on_c, 2, 56, 0
1, 4268, Note_on_c, 2, 65, 0
1, 4268, Note_on_c, 2, 59, 0
1, 4269, Note_on_c, 0, 53, 0
1, 4270, Note_on_c, 0, 49, 47
1, 4270, Note_on_c, 9, 69, 39
1, 4271, Note_on_c, 9, 69, 0
1, 4271, Note_on_c, 9, 42, 57
1, 4272, Note_on_c, 9, 42, 0
1, 4272, Note_on_c, 2, 65, 104
1, 4272, Note_on_c, 2, 68, 108
1, 4272, Note_on_c, 2, 56, 93
1, 4272, Note_on_c, 2, 59, 79
1, 4273, Note_on_c, 0, 63, 0
1, 4274, Note_on_c, 0, 59, 0
1, 4276, Note_on_c, 0, 56, 0
1, 4280, Note_on_c, 2, 65, 0
1, 4280, Note_on_c, 2, 56, 0
1, 4282, Note_on_c, 2, 59, 0
1, 4284, Note_on_c, 2, 68, 0
1, 4294, Note_on_c, 0, 49, 0
1, 4295, Note_on_c, 9, 69, 33
1, 4295, Note_on_c, 9, 42, 46
1, 4295, Note_on_c, 9, 62, 84
1, 4296, Note_on_c, 9, 62, 0
1, 4296, Note_on_c, 9, 42, 0
1, 4296, Note_on_c, 9, 69, 0
1, 4296, Note_on_c, 0, 63, 62
1, 4296, Note_on_c, 2, 56, 65
1, 4296, Note_on_c, 2, 65, 85
1, 4296, Note_on_c, 2, 59, 71
1, 4296, Note_on_c, 2, 68, 85
1, 4297, Note_on_c, 0, 53, 68
1, 4297, Note_on_c, 0, 56, 66
1, 4297, Note_on_c, 0, 59, 84
1, 4313, Note_on_c, 0, 59, 0
1, 4315, Note_on_c, 0, 56, 0
1, 4318, Note_on_c, 2, 56, 0
1, 4319, Note_on_c, 9, 75, 76
1, 4320, Note_on_c, 9, 75, 0
1, 4320, Note_on_c, 9, 40, 107
1, 4320, Note_on_c, 9, 42, 91
1, 4321, Note_on_c, 9, 42, 0
1, 4321, Note_on_c, 9, 40, 0
1, 4321, Note_on_c, 9, 62, 71
1, 4322, Note_on_c, 9, 62, 0
1, 4322, Note_on_c, 0, 63, 0
1, 4323, Note_on_c, 0, 53, 0
1, 4342, Note_on_c, 2, 65, 0
1, 4342, Note_on_c, 2, 59, 0
1, 4343, Note_on_c, 9, 44, 42
1, 4344, Note_on_c, 9, 44, 0
1, 4344, Note_on_c, 2, 68, 0
1, 4344, Note_on_c, 2, 56, 63
1, 4344, Note_on_c, 2, 59, 68
1, 4344, Note_on_c, 2, 65, 76
1, 4346, Note_on_c, 0, 59, 71
1, 4346, Note_on_c, 0, 56, 57
1, 4346, Note_on_c, 0, 63, 54
1, 4346, Note_on_c, 0, 53, 65
1, 4360, Note_on_c, 0, 56, 0
1, 4361, Note_on_c, 0, 59, 0
1, 4362, Note_on_c, 0, 53, 0
1, 4366, Note_on_c, 2, 59, 0
1, 4366, Note_on_c, 2, 56, 0
1, 4366, Note_on_c, 2, 65, 0
1, 4367, Note_on_c, 9, 69, 37
1, 4368, Note_on_c, 9, 69, 0
1, 4368, Note_on_c, 0, 63, 0
1, 4368, Note_on_c, 2, 65, 75
1, 4368, Note_on_c, 2, 56, 67
1, 4368, Note_on_c, 2, 59, 54
1, 4368, Note_on_c, 9, 42, 49
1, 4369, Note_on_c, 9, 42, 0
1, 4390, Note_on_c, 2, 59, 0
1, 4390, Note_on_c, 2, 65, 0
1, 4390, Note_on_c, 2, 56, 0
1, 4391, Note_on_c, 1, 32, 72
1, 4391, Note_on_c, 9, 42, 38
1, 4391, Note_on_c, 9, 69, 27
1, 4391, Note_on_c, 11, 32, 68
1, 4392, Note_on_c, 9, 69, 0
1, 4392, Note_on_c, 9, 42, 0
1, 4392, Note_on_c, 2, 59, 63
1, 4392, Note_on_c, 2, 65, 81
1, 4392, Note_on_c, 2, 56, 66
1, 4392, Note_on_c, 9, 62, 71
1, 4393, Note_on_c, 9, 62, 0
1, 4393, Note_on_c, 9, 36, 93
1, 4394, Note_on_c, 9, 36, 0
1, 4394, Note_on_c, 0, 49, 52
1, 4404, Note_on_c, 0, 49, 0
1, 4410, Note_on_c, 11, 32, 0
1, 4410, Note_on_c, 1, 32, 0
1, 4413, Note_on_c, 2, 59, 0
1, 4413, Note_on_c, 2, 65, 0
1, 4414, Note_on_c, 2, 56, 0
1, 4414, Note_on_c, 1, 37, 82
1, 4414, Note_on_c, 11, 37, 78
1, 4415, Note_on_c, 9, 36, 65
1, 4416, Note_on_c, 9, 36, 0
1, 4416, Note_on_c, 2, 56, 85
1, 4416, Note_on_c, 2, 59, 81
1, 4416, Note_on_c, 2, 65, 87
1, 4417, Note_on_c, 9, 42, 86
1, 4418, Note_on_c, 9, 42, 0
1, 4418, Note_on_c, 0, 59, 80
1, 4418, Note_on_c, 0, 63, 62
1, 4418, Note_on_c, 0, 53, 71
1, 4418, Note_on_c, 0, 56, 66
1, 4418, Note_on_c, 9, 62, 71
1, 4419, Note_on_c, 9, 62, 0
1, 4436, Note_on_c, 1, 37, 0
1, 4436, Note_on_c, 11, 37, 0
1, 4439, Note_on_c, 1, 32, 72
1, 4439, Note_on_c, 11, 32, 68
1, 4441, Note_on_c, 9, 44, 47
1, 4442, Note_on_c, 9, 44, 0
1, 4457, Note_on_c, 2, 65, 0
1, 4461, Note_on_c, 2, 56, 0
1, 4462, Note_on_c, 2, 59, 0
1, 4462, Note_on_c, 11, 32, 0
1, 4462, Note_on_c, 1, 32, 0
1, 4462, Note_on_c, 1, 37, 90
1, 4462, Note_on_c, 11, 37, 86
1, 4463, Note_on_c, 9, 69, 43
1, 4464, Note_on_c, 9, 69, 0
1, 4464, Note_on_c, 2, 65, 95
1, 4464, Note_on_c, 2, 59, 83
1, 4464, Note_on_c, 2, 56, 93
1, 4464, Note_on_c, 2, 68, 104
1, 4464, Note_on_c, 9, 62, 80
1, 4465, Note_on_c, 9, 62, 0
1, 4465, Note_on_c, 9, 42, 48
1, 4465, Note_on_c, 9, 36, 110
1, 4466, Note_on_c, 9, 36, 0
1, 4466, Note_on_c, 9, 42, 0
1, 4472, Note_on_c, 2, 65, 0
1, 4473, Note_on_c, 2, 59, 0
1, 4474, Note_on_c, 2, 68, 0
1, 4474, Note_on_c, 2, 56, 0
1, 4476, Note_on_c, 0, 53, 0
1, 4477, Note_on_c, 0, 56, 0
1, 4478, Note_on_c, 0, 63, 0
1, 4478, Note_on_c, 0, 59, 0
1, 4487, Note_on_c, 9, 69, 31
1, 4487, Note_on_c, 9, 42, 41
1, 4488, Note_on_c, 9, 42, 0
1, 4488, Note_on_c, 9, 69, 0
1, 4488, Note_on_c, 2, 65, 66
1, 4488, Note_on_c, 2, 59, 70
1, 4488, Note_on_c, 2, 68, 76
1, 4488, Note_on_c, 2, 56, 69
1, 4490, Note_on_c, 0, 59, 63
1, 4490, Note_on_c, 0, 63, 47
1, 4490, Note_on_c, 0, 53, 54
1, 4490, Note_on_c, 0, 56, 53
1, 4492, Note_on_c, 1, 37, 0
1, 4492, Note_on_c, 11, 37, 0
1, 4500, Note_on_c, 0, 59, 0
1, 4501, Note_on_c, 0, 56, 0
1, 4503, Note_on_c, 0, 53, 0
1, 4505, Note_on_c, 0, 63, 0
1, 4509, Note_on_c, 2, 56, 0
1, 4510, Note_on_c, 2, 65, 0
1, 4511, Note_on_c, 9, 75, 73
1, 4512, Note_on_c, 9, 75, 0
1, 4512, Note_on_c, 9, 40, 105
1, 4513, Note_on_c, 9, 40, 0
1, 4513, Note_on_c, 9, 62, 88
1, 4513, Note_on_c, 9, 42, 81
1, 4514, Note_on_c, 9, 42, 0
1, 4514, Note_on_c, 9, 62, 0
1, 4534, Note_on_c, 2, 59, 0
1, 4534, Note_on_c, 1, 32, 70
1, 4534, Note_on_c, 11, 32, 66
1, 4535, Note_on_c, 9, 44, 43
1, 4536, Note_on_c, 9, 44, 0
1, 4536, Note_on_c, 2, 68, 0
1, 4536, Note_on_c, 2, 59, 72
1, 4536, Note_on_c, 2, 56, 63
1, 4536, Note_on_c, 2, 65, 83
1, 4537, Note_on_c, 0, 56, 55
1, 4537, Note_on_c, 0, 59, 69
1, 4538, Note_on_c, 0, 53, 54
1, 4538, Note_on_c, 0, 63, 53
1, 4556, Note_on_c, 1, 32, 0
1, 4556, Note_on_c, 11, 32, 0
1, 4557, Note_on_c, 2, 65, 0
1, 4558, Note_on_c, 2, 59, 0
1, 4558, Note_on_c, 2, 56, 0
1, 4558, Note_on_c, 1, 35, 87
1, 4558, Note_on_c, 11, 35, 83
1, 4559, Note_on_c, 9, 42, 42
1, 4559, Note_on_c, 9, 69, 32
1, 4560, Note_on_c, 9, 69, 0
1, 4560, Note_on_c, 9, 42, 0
1, 4560, Note_on_c, 2, 65, 83
1, 4560, Note_on_c, 2, 59, 68
1, 4560, Note_on_c, 2, 56, 62
1, 4566, Note_on_c, 0, 56, 0
1, 4566, Note_on_c, 0, 53, 0
1, 4578, Note_on_c, 0, 63, 0
1, 4578, Note_on_c, 0, 59, 0
1, 4582, Note_on_c, 2, 65, 0
1, 4582, Note_on_c, 2, 59, 0
1, 4582, Note_on_c, 2, 56, 0
1, 4583, Note_on_c, 1, 36, 78
1, 4583, Note_on_c, 9, 42, 42
1, 4583, Note_on_c, 9, 69, 35
1, 4583, Note_on_c, 11, 36, 74
1, 4584, Note_on_c, 9, 69, 0
1, 4584, Note_on_c, 9, 42, 0
1, 4584, Note_on_c, 1, 35, 0
1, 4584, Note_on_c, 11, 35, 0
1, 4584, Note_on_c, 2, 56, 67
1, 4584, Note_on_c, 2, 59, 66
1, 4584, Note_on_c, 2, 65, 75
1, 4585, Note_on_c, 0, 49, 52
1, 4598, Note_on_c, 0, 49, 0
1, 4605, Note_on_c, 2, 56, 0
1, 4605, Note_on_c, 2, 65, 0
1, 4606, Note_on_c, 2, 59, 0
1, 4606, Note_on_c, 1, 36, 0
1, 4606, Note_on_c, 11, 36, 0
1, 4607, Note_on_c, 0, 54, 56
1, 4607, Note_on_c, 0, 58, 58
1, 4607, Note_on_c, 0, 63, 59
1, 4607, Note_on_c, 0, 61, 70
1, 4607, Note_on_c, 1, 37, 102
1, 4607, Note_on_c, 9, 42, 83
1, 4607, Note_on_c, 9, 36, 115
1, 4607, Note_on_c, 11, 37, 98
1, 4608, Note_on_c, 9, 36, 0
1, 4608, Note_on_c, 10, 53, 0
1, 4608, Note_on_c, 10, 56, 0
1, 4608, Note_on_c, 9, 42, 0
1, 4608, Note_on_c, 10, 59, 0
1, 4608, Note_on_c, 2, 61, 82
1, 4608, Note_on_c, 2, 54, 82
1, 4608, Note_on_c, 2, 63, 82
1, 4608, Note_on_c, 2, 58, 82
1, 4608, Note_on_c, 10, 61, 52
1, 4608, Note_on_c, 10, 54, 60
1, 4608, Note_on_c, 10, 58, 36
1, 4621, Note_on_c, 0, 63, 0
1, 4622, Note_on_c, 0, 58, 0
1, 4624, Note_on_c, 0, 61, 0
1, 4630, Note_on_c, 0, 63, 60
1, 4630, Note_on_c, 0, 61, 52
1, 4630, Note_on_c, 0, 58, 61
1, 4632, Note_on_c, 9, 44, 41
1, 4633, Note_on_c, 9, 44, 0
1, 4646, Note_on_c, 0, 63, 0
1, 4648, Note_on_c, 1, 37, 0
1, 4648, Note_on_c, 11, 37, 0
1, 4649, Note_on_c, 0, 58, 0
1, 4650, Note_on_c, 0, 54, 0
1, 4654, Note_on_c, 2, 61, 0
1, 4654, Note_on_c, 2, 54, 0
1, 4654, Note_on_c, 2, 58, 0
1, 4654, Note_on_c, 2, 63, 0
1, 4654, Note_on_c, 0, 49, 55
1, 4654, Note_on_c, 9, 69, 50
1, 4655, Note_on_c, 9, 69, 0
1, 4655, Note_on_c, 9, 42, 49
1, 4656, Note_on_c, 9, 42, 0
1, 4656, Note_on_c, 0, 61, 0
1, 4656, Note_on_c, 2, 61, 96
1, 4656, Note_on_c, 2, 58, 96
1, 4656, Note_on_c, 2, 54, 95
1, 4656, Note_on_c, 2, 63, 95
1, 4664, Note_on_c, 2, 54, 0
1, 4664, Note_on_c, 2, 61, 0
1, 4665, Note_on_c, 2, 58, 0
1, 4668, Note_on_c, 2, 63, 0
1, 4678, Note_on_c, 0, 61, 68
1, 4678, Note_on_c, 9, 62, 66
1, 4679, Note_on_c, 9, 62, 0
1, 4679, Note_on_c, 0, 58, 69
1, 4679, Note_on_c, 0, 54, 60
1, 4679, Note_on_c, 0, 63, 61
1, 4679, Note_on_c, 9, 69, 28
1, 4679, Note_on_c, 9, 42, 47
1, 4680, Note_on_c, 9, 42, 0
1, 4680, Note_on_c, 9, 69, 0
1, 4680, Note_on_c, 2, 61, 79
1, 4680, Note_on_c, 2, 54, 64
1, 4680, Note_on_c, 2, 58, 63
1, 4680, Note_on_c, 2, 63, 79
1, 4682, Note_on_c, 0, 49, 0
1, 4695, Note_on_c, 0, 58, 0
1, 4698, Note_on_c, 7, 68, 0
1, 4698, Note_on_c, 0, 61, 0
1, 4700, Note_on_c, 0, 54, 0
1, 4702, Note_on_c, 0, 63, 0
1, 4702, Note_on_c, 2, 63, 0
1, 4702, Note_on_c, 2, 61, 0
1, 4703, Note_on_c, 9, 42, 86
1, 4703, Note_on_c, 9, 40, 101
1, 4704, Note_on_c, 9, 40, 0
1, 4704, Note_on_c, 9, 42, 0
1, 4705, Note_on_c, 9, 75, 79
1, 4705, Note_on_c, 9, 62, 74
1, 4706, Note_on_c, 9, 62, 0
1, 4706, Note_on_c, 9, 75, 0
1, 4726, Note_on_c, 2, 58, 0
1, 4726, Note_on_c, 2, 54, 0
1, 4727, Note_on_c, 9, 44, 43
1, 4728, Note_on_c, 9, 44, 0
1, 4728, Note_on_c, 0, 61, 66
1, 4728, Note_on_c, 0, 58, 64
1, 4728, Note_on_c, 2, 61, 67
1, 4728, Note_on_c, 2, 58, 63
1, 4728, Note_on_c, 2, 54, 61
1, 4728, Note_on_c, 2, 63, 65
1, 4729, Note_on_c, 0, 54, 57
1, 4729, Note_on_c, 0, 63, 60
1, 4739, Note_on_c, 0, 58, 0
1, 4742, Note_on_c, 0, 61, 0
1, 4742, Note_on_c, 0, 63, 0
1, 4742, Note_on_c, 0, 54, 0
1, 4748, Note_on_c, 2, 61, 0
1, 4749, Note_on_c, 2, 58, 0
1, 4750, Note_on_c, 2, 63, 0
1, 4750, Note_on_c, 2, 54, 0
1, 4750, Note_on_c, 9, 69, 45
1, 4751, Note_on_c, 9, 69, 0
1, 4752, Note_on_c, 2, 63, 69
1, 4752, Note_on_c, 2, 61, 67
1, 4752, Note_on_c, 2, 54, 62
1, 4752, Note_on_c, 2, 58, 58
1, 4752, Note_on_c, 9, 42, 42
1, 4753, Note_on_c, 9, 42, 0
1, 4774, Note_on_c, 2, 58, 0
1, 4774, Note_on_c, 2, 61, 0
1, 4774, Note_on_c, 2, 54, 0
1, 4774, Note_on_c, 2, 63, 0
1, 4774, Note_on_c, 1, 32, 67
1, 4774, Note_on_c, 9, 69, 23
1, 4774, Note_on_c, 11, 32, 63
1, 4775, Note_on_c, 9, 69, 0
1, 4775, Note_on_c, 0, 49, 55
1, 4775, Note_on_c, 9, 36, 105
1, 4776, Note_on_c, 9, 36, 0
1, 4776, Note_on_c, 2, 63, 67
1, 4776, Note_on_c, 2, 61, 61
1, 4776, Note_on_c, 2, 54, 64
1, 4776, Note_on_c, 2, 58, 59
1, 4776, Note_on_c, 9, 42, 27
1, 4777, Note_on_c, 9, 42, 0
1, 4777, Note_on_c, 9, 62, 71
1, 4778, Note_on_c, 9, 62, 0
1, 4785, Note_on_c, 0, 49, 0
1, 4797, Note_on_c, 11, 32, 0
1, 4797, Note_on_c, 1, 32, 0
1, 4798, Note_on_c, 2, 63, 0
1, 4798, Note_on_c, 2, 54, 0
1, 4798, Note_on_c, 2, 61, 0
1, 4798, Note_on_c, 2, 58, 0
1, 4798, Note_on_c, 0, 58, 70
1, 4798, Note_on_c, 0, 54, 64
1, 4798, Note_on_c, 0, 61, 68
1, 4798, Note_on_c, 0, 63, 70
1, 4799, Note_on_c, 1, 37, 88
1, 4799, Note_on_c, 9, 36, 72
1, 4799, Note_on_c, 9, 42, 87
1, 4799, Note_on_c, 11, 37, 84
1, 4800, Note_on_c, 9, 42, 0
1, 4800, Note_on_c, 6, 68, 0
1, 4800, Note_on_c, 9, 36, 0
1, 4800, Note_on_c, 2, 63, 65
1, 4800, Note_on_c, 2, 58, 60
1, 4800, Note_on_c, 2, 54, 59
1, 4800, Note_on_c, 2, 61, 67
1, 4802, Note_on_c, 9, 62, 74
1, 4803, Note_on_c, 9, 62, 0
1, 4822, Note_on_c, 1, 37, 0
1, 4822, Note_on_c, 11, 37, 0
1, 4822, Note_on_c, 1, 32, 58
1, 4822, Note_on_c, 11, 32, 54
1, 4825, Note_on_c, 9, 44, 45
1, 4826, Note_on_c, 9, 44, 0
1, 4830, Note_on_c, 0, 63, 0
1, 4831, Note_on_c, 0, 58, 0
1, 4834, Note_on_c, 0, 61, 0
1, 4834, Note_on_c, 0, 54, 0
1, 4842, Note_on_c, 2, 63, 0
1, 4842, Note_on_c, 2, 54, 0
1, 4844, Note_on_c, 2, 61, 0
1, 4846, Note_on_c, 2, 58, 0
1, 4846, Note_on_c, 11, 32, 0
1, 4846, Note_on_c, 1, 32, 0
1, 4846, Note_on_c, 0, 61, 54
1, 4846, Note_on_c, 1, 37, 79
1, 4846, Note_on_c, 9, 69, 37
1, 4846, Note_on_c, 11, 37, 75
1, 4847, Note_on_c, 9, 69, 0
1, 4847, Note_on_c, 0, 54, 59
1, 4847, Note_on_c, 0, 58, 68
1, 4847, Note_on_c, 6, 65, 75
1, 4847, Note_on_c, 9, 42, 51
1, 4848, Note_on_c, 9, 42, 0
1, 4848, Note_on_c, 0, 63, 58
1, 4848, Note_on_c, 2, 63, 104
1, 4848, Note_on_c, 2, 61, 104
1, 4848, Note_on_c, 2, 58, 104
1, 4848, Note_on_c, 2, 54, 104
1, 4848, Note_on_c, 9, 36, 107
1, 4849, Note_on_c, 9, 36, 0
1, 4850, Note_on_c, 7, 65, 89
1, 4857, Note_on_c, 2, 61, 0
1, 4860, Note_on_c, 2, 54, 0
1, 4860, Note_on_c, 2, 58, 0
1, 4860, Note_on_c, 2, 63, 0
1, 4870, Note_on_c, 9, 69, 34
1, 4871, Note_on_c, 9, 69, 0
1, 4871, Note_on_c, 9, 62, 66
1, 4872, Note_on_c, 9, 62, 0
1, 4872, Note_on_c, 2, 58, 61
1, 4872, Note_on_c, 2, 61, 77
1, 4872, Note_on_c, 2, 63, 87
1, 4872, Note_on_c, 2, 54, 62
1, 4872, Note_on_c, 9, 42, 74
1, 4873, Note_on_c, 9, 42, 0
1, 4873, Note_on_c, 6, 66, 72
1, 4875, Note_on_c, 6, 65, 0
1, 4875, Note_on_c, 7, 66, 84
1, 4880, Note_on_c, 7, 65, 0
1, 4882, Note_on_c, 11, 37, 0
1, 4882, Note_on_c, 1, 37, 0
1, 4893, Note_on_c, 0, 63, 0
1, 4893, Note_on_c, 2, 63, 0
1, 4894, Note_on_c, 2, 54, 0
1, 4894, Note_on_c, 2, 58, 0
1, 4894, Note_on_c, 2, 61, 0
1, 4895, Note_on_c, 0, 54, 0
1, 4895, Note_on_c, 0, 58, 0
1, 4895, Note_on_c, 9, 42, 93
1, 4895, Note_on_c, 9, 75, 82
1, 4895, Note_on_c, 9, 40, 105
1, 4896, Note_on_c, 9, 40, 0
1, 4896, Note_on_c, 9, 75, 0
1, 4896, Note_on_c, 9, 42, 0
1, 4897, Note_on_c, 0, 49, 57
1, 4898, Note_on_c, 6, 66, 0
1, 4898, Note_on_c, 9, 62, 66
1, 4899, Note_on_c, 9, 62, 0
1, 4900, Note_on_c, 7, 66, 0
1, 4901, Note_on_c, 0, 61, 0
1, 4919, Note_on_c, 0, 58, 61
1, 4919, Note_on_c, 0, 61, 61
1, 4919, Note_on_c, 0, 63, 60
1, 4919, Note_on_c, 9, 44, 50
1, 4920, Note_on_c, 9, 44, 0
1, 4920, Note_on_c, 2, 58, 61
1, 4920, Note_on_c, 2, 54, 62
1, 4920, Note_on_c, 2, 61, 73
1, 4920, Note_on_c, 2, 63, 76
1, 4921, Note_on_c, 0, 54, 57
1, 4921, Note_on_c, 9, 62, 55
1, 4922, Note_on_c, 9, 62, 0
1, 4922, Note_on_c, 0, 49, 0
1, 4922, Note_on_c, 6, 68, 66
1, 4922, Note_on_c, 7, 68, 87
1, 4932, Note_on_c, 0, 63, 0
1, 4937, Note_on_c, 0, 58, 0
1, 4940, Note_on_c, 2, 58, 0
1, 4941, Note_on_c, 2, 54, 0
1, 4941, Note_on_c, 9, 69, 45
1, 4942, Note_on_c, 9, 69, 0
1, 4942, Note_on_c, 2, 61, 0
1, 4942, Note_on_c, 2, 63, 0
1, 4942, Note_on_c, 1, 32, 70
1, 4942, Note_on_c, 11, 32, 66
1, 4943, Note_on_c, 7, 68, 0
1, 4943, Note_on_c, 9, 42, 49
1, 4944, Note_on_c, 9, 42, 0
1, 4944, Note_on_c, 2, 54, 62
1, 4944, Note_on_c, 2, 63, 79
1, 4944, Note_on_c, 2, 58, 62
1, 4944, Note_on_c, 2, 61, 72
1, 4946, Note_on_c, 6, 68, 0
1, 4946, Note_on_c, 9, 62, 71
1, 4947, Note_on_c, 9, 62, 0
1, 4951, Note_on_c, 0, 54, 0
1, 4954, Note_on_c, 0, 61, 0
1, 4965, Note_on_c, 1, 32, 0
1, 4965, Note_on_c, 11, 32, 0
1, 4966, Note_on_c, 2, 63, 0
1, 4966, Note_on_c, 2, 58, 0
1, 4966, Note_on_c, 2, 54, 0
1, 4966, Note_on_c, 2, 61, 0
1, 4966, Note_on_c, 1, 35, 76
1, 4966, Note_on_c, 7, 61, 89
1, 4966, Note_on_c, 9, 69, 36
1, 4966, Note_on_c, 11, 35, 72
1, 4967, Note_on_c, 9, 69, 0
1, 4967, Note_on_c, 0, 49, 57
1, 4967, Note_on_c, 9, 42, 57
1, 4968, Note_on_c, 9, 42, 0
1, 4968, Note_on_c, 2, 63, 81
1, 4968, Note_on_c, 2, 54, 59
1, 4968, Note_on_c, 2, 58, 59
1, 4968, Note_on_c, 2, 61, 67
1, 4968, Note_on_c, 6, 61, 73
1, 4978, Note_on_c, 0, 49, 0
1, 4984, Note_on_c, 2, 58, 0
1, 4984, Note_on_c, 2, 54, 0
1, 4985, Note_on_c, 2, 63, 0
1, 4985, Note_on_c, 2, 61, 0
1, 4990, Note_on_c, 11, 35, 0
1, 4990, Note_on_c, 1, 35, 0
1, 4990, Note_on_c, 0, 61, 62
1, 4991, Note_on_c, 0, 57, 75
1, 4991, Note_on_c, 0, 63, 56
1, 4991, Note_on_c, 0, 54, 57
1, 4991, Note_on_c, 1, 37, 78
1, 4991, Note_on_c, 9, 42, 76
1, 4991, Note_on_c, 9, 36, 114
1, 4991, Note_on_c, 11, 37, 74
1, 4992, Note_on_c, 9, 36, 0
1, 4992, Note_on_c, 9, 42, 0
1, 4992, Note_on_c, 10, 58, 0
1, 4992, Note_on_c, 2, 63, 63
1, 4992, Note_on_c, 2, 61, 59
1, 4992, Note_on_c, 2, 57, 63
1, 4992, Note_on_c, 2, 54, 60
1, 4992, Note_on_c, 10, 57, 53
1, 5006, Note_on_c, 0, 63, 0
1, 5006, Note_on_c, 0, 57, 0
1, 5010, Note_on_c, 0, 61, 0
1, 5014, Note_on_c, 0, 57, 68
1, 5014, Note_on_c, 0, 61, 43
1, 5014, Note_on_c, 0, 63, 54
1, 5015, Note_on_c, 9, 44, 46
1, 5016, Note_on_c, 9, 44, 0
1, 5029, Note_on_c, 1, 37, 0
1, 5029, Note_on_c, 11, 37, 0
1, 5038, Note_on_c, 2, 57, 0
1, 5038, Note_on_c, 2, 61, 0
1, 5038, Note_on_c, 2, 63, 0
1, 5038, Note_on_c, 2, 54, 0
1, 5038, Note_on_c, 0, 49, 54
1, 5038, Note_on_c, 9, 69, 41
1, 5039, Note_on_c, 9, 69, 0
1, 5039, Note_on_c, 9, 42, 42
1, 5040, Note_on_c, 9, 42, 0
1, 5040, Note_on_c, 0, 57, 0
1, 5040, Note_on_c, 2, 54, 81
1, 5040, Note_on_c, 2, 57, 83
1, 5040, Note_on_c, 2, 63, 100
1, 5040, Note_on_c, 2, 61, 90
1, 5041, Note_on_c, 0, 54, 0
1, 5042, Note_on_c, 0, 63, 0
1, 5049, Note_on_c, 0, 61, 0
1, 5052, Note_on_c, 2, 61, 0
1, 5052, Note_on_c, 2, 57, 0
1, 5054, Note_on_c, 0, 49, 0
1, 5054, Note_on_c, 2, 54, 0
1, 5056, Note_on_c, 2, 63, 0
1, 5062, Note_on_c, 9, 69, 30
1, 5063, Note_on_c, 9, 69, 0
1, 5063, Note_on_c, 9, 42, 43
1, 5063, Note_on_c, 9, 62, 84
1, 5064, Note_on_c, 9, 62, 0
1, 5064, Note_on_c, 9, 42, 0
1, 5064, Note_on_c, 2, 63, 93
1, 5064, Note_on_c, 2, 61, 79
1, 5064, Note_on_c, 2, 57, 67
1, 5064, Note_on_c, 2, 54, 64
1, 5065, Note_on_c, 0, 63, 64
1, 5065, Note_on_c, 0, 54, 58
1, 5065, Note_on_c, 0, 57, 79
1, 5065, Note_on_c, 0, 61, 66
1, 5080, Note_on_c, 0, 57, 0
1, 5083, Note_on_c, 0, 61, 0
1, 5083, Note_on_c, 0, 63, 0
1, 5084, Note_on_c, 0, 54, 0
1, 5085, Note_on_c, 2, 61, 0
1, 5087, Note_on_c, 9, 75, 79
1, 5088, Note_on_c, 9, 75, 0
1, 5088, Note_on_c, 9, 42, 83
1, 5088, Note_on_c, 9, 40, 101
1, 5089, Note_on_c, 9, 40, 0
1, 5089, Note_on_c, 9, 42, 0
1, 5089, Note_on_c, 9, 62, 71
1, 5090, Note_on_c, 9, 62, 0
1, 5104, Note_on_c, 2, 54, 0
1, 5108, Note_on_c, 2, 57, 0
1, 5109, Note_on_c, 2, 63, 0
1, 5111, Note_on_c, 9, 44, 43
1, 5112, Note_on_c, 9, 44, 0
1, 5112, Note_on_c, 2, 57, 63
1, 5112, Note_on_c, 2, 63, 67
1, 5112, Note_on_c, 2, 61, 64
1, 5112, Note_on_c, 2, 54, 60
1, 5113, Note_on_c, 0, 57, 71
1, 5113, Note_on_c, 0, 61, 60
1, 5113, Note_on_c, 0, 63, 61
1, 5114, Note_on_c, 0, 54, 59
1, 5126, Note_on_c, 0, 63, 0
1, 5129, Note_on_c, 0, 54, 0
1, 5132, Note_on_c, 2, 61, 0
1, 5132, Note_on_c, 0, 57, 0
1, 5133, Note_on_c, 2, 57, 0
1, 5133, Note_on_c, 2, 63, 0
1, 5133, Note_on_c, 9, 69, 45
1, 5134, Note_on_c, 9, 69, 0
1, 5134, Note_on_c, 2, 54, 0
1, 5136, Note_on_c, 2, 57, 59
1, 5136, Note_on_c, 2, 61, 61
1, 5136, Note_on_c, 2, 63, 66
1, 5136, Note_on_c, 2, 54, 62
1, 5136, Note_on_c, 9, 42, 51
1, 5137, Note_on_c, 9, 42, 0
1, 5148, Note_on_c, 0, 61, 0
1, 5158, Note_on_c, 2, 61, 0
1, 5158, Note_on_c, 2, 54, 0
1, 5158, Note_on_c, 2, 57, 0
1, 5158, Note_on_c, 2, 63, 0
1, 5158, Note_on_c, 9, 69, 30
1, 5158, Note_on_c, 9, 62, 63
1, 5159, Note_on_c, 9, 62, 0
1, 5159, Note_on_c, 9, 69, 0
1, 5159, Note_on_c, 1, 32, 74
1, 5159, Note_on_c, 9, 42, 49
1, 5159, Note_on_c, 11, 32, 70
1, 5160, Note_on_c, 9, 42, 0
1, 5160, Note_on_c, 0, 49, 70
1, 5160, Note_on_c, 2, 61, 63
1, 5160, Note_on_c, 2, 57, 62
1, 5160, Note_on_c, 2, 63, 74
1, 5160, Note_on_c, 2, 54, 63
1, 5161, Note_on_c, 9, 36, 113
1, 5162, Note_on_c, 9, 36, 0
1, 5169, Note_on_c, 0, 49, 0
1, 5176, Note_on_c, 6, 63, 74
1, 5179, Note_on_c, 6, 61, 0
1, 5180, Note_on_c, 2, 54, 0
1, 5180, Note_on_c, 7, 63, 88
1, 5181, Note_on_c, 2, 61, 0
1, 5181, Note_on_c, 2, 63, 0
1, 5182, Note_on_c, 2, 57, 0
1, 5182, Note_on_c, 11, 32, 0
1, 5182, Note_on_c, 1, 32, 0
1, 5182, Note_on_c, 0, 63, 61
1, 5183, Note_on_c, 0, 57, 68
1, 5183, Note_on_c, 0, 61, 59
1, 5183, Note_on_c, 1, 37, 90
1, 5183, Note_on_c, 9, 36, 61
1, 5183, Note_on_c, 11, 37, 86
1, 5184, Note_on_c, 9, 36, 0
1, 5184, Note_on_c, 0, 54, 54
1, 5184, Note_on_c, 2, 57, 66
1, 5184, Note_on_c, 2, 61, 67
1, 5184, Note_on_c, 2, 63, 69
1, 5184, Note_on_c, 2, 54, 61
1, 5185, Note_on_c, 7, 61, 0
1, 5185, Note_on_c, 9, 62, 74
1, 5185, Note_on_c, 9, 42, 78
1, 5186, Note_on_c, 9, 42, 0
1, 5186, Note_on_c, 9, 62, 0
1, 5200, Note_on_c, 0, 63, 0
1, 5202, Note_on_c, 0, 57, 0
1, 5202, Note_on_c, 0, 61, 0
1, 5203, Note_on_c, 1, 37, 0
1, 5203, Note_on_c, 11, 37, 0
1, 5204, Note_on_c, 0, 54, 0
1, 5207, Note_on_c, 1, 32, 63
1, 5207, Note_on_c, 9, 44, 47
1, 5207, Note_on_c, 11, 32, 59
1, 5208, Note_on_c, 9, 44, 0
1, 5225, Note_on_c, 2, 57, 0
1, 5225, Note_on_c, 2, 61, 0
1, 5230, Note_on_c, 1, 32, 0
1, 5230, Note_on_c, 2, 63, 0
1, 5230, Note_on_c, 2, 54, 0
1, 5230, Note_on_c, 11, 32, 0
1, 5231, Note_on_c, 0, 57, 77
1, 5231, Note_on_c, 0, 63, 66
1, 5231, Note_on_c, 0, 61, 63
1, 5231, Note_on_c, 1, 37, 75
1, 5231, Note_on_c, 9, 62, 87
1, 5231, Note_on_c, 9, 42, 62
1, 5231, Note_on_c, 9, 69, 41
1, 5231, Note_on_c, 11, 37, 71
1, 5232, Note_on_c, 9, 69, 0
1, 5232, Note_on_c, 9, 42, 0
1, 5232, Note_on_c, 9, 62, 0
1, 5232, Note_on_c, 0, 54, 59
1, 5232, Note_on_c, 2, 63, 98
1, 5232, Note_on_c, 2, 57, 98
1, 5232, Note_on_c, 2, 61, 98
1, 5232, Note_on_c, 2, 54, 98
1, 5232, Note_on_c, 9, 36, 114
1, 5233, Note_on_c, 9, 36, 0
1, 5244, Note_on_c, 2, 61, 0
1, 5244, Note_on_c, 2, 57, 0
1, 5244, Note_on_c, 2, 63, 0
1, 5245, Note_on_c, 2, 54, 0
1, 5255, Note_on_c, 9, 69, 30
1, 5255, Note_on_c, 9, 42, 42
1, 5256, Note_on_c, 9, 42, 0
1, 5256, Note_on_c, 9, 69, 0
1, 5256, Note_on_c, 2, 63, 76
1, 5256, Note_on_c, 2, 54, 64
1, 5256, Note_on_c, 2, 57, 64
1, 5256, Note_on_c, 2, 61, 73
1, 5258, Note_on_c, 0, 54, 0
1, 5262, Note_on_c, 0, 57, 0
1, 5262, Note_on_c, 0, 63, 0
1, 5264, Note_on_c, 1, 37, 0
1, 5264, Note_on_c, 11, 37, 0
1, 5265, Note_on_c, 0, 61, 0
1, 5277, Note_on_c, 2, 57, 0
1, 5278, Note_on_c, 2, 61, 0
1, 5278, Note_on_c, 2, 54, 0
1, 5278, Note_on_c, 2, 63, 0
1, 5278, Note_on_c, 6, 66, 66
1, 5278, Note_on_c, 7, 66, 88
1, 5279, Note_on_c, 0, 49, 49
1, 5279, Note_on_c, 9, 42, 81
1, 5279, Note_on_c, 9, 75, 83
1, 5279, Note_on_c, 9, 40, 107
1, 5279, Note_on_c, 9, 62, 80
1, 5280, Note_on_c, 9, 62, 0
1, 5280, Note_on_c, 9, 42, 0
1, 5280, Note_on_c, 10, 63, 0
1, 5280, Note_on_c, 9, 40, 0
1, 5280, Note_on_c, 9, 75, 0
1, 5280, Note_on_c, 10, 64, 59
1, 5281, Note_on_c, 6, 63, 0
1, 5282, Note_on_c, 7, 63, 0
1, 5287, Note_on_c, 0, 49, 0
1, 5303, Note_on_c, 0, 64, 77
1, 5303, Note_on_c, 0, 61, 59
1, 5303, Note_on_c, 0, 57, 79
1, 5303, Note_on_c, 1, 32, 76
1, 5303, Note_on_c, 9, 44, 45
1, 5303, Note_on_c, 11, 32, 72
1, 5304, Note_on_c, 9, 44, 0
1, 5304, Note_on_c, 0, 54, 58
1, 5304, Note_on_c, 2, 57, 71
1, 5304, Note_on_c, 2, 64, 79
1, 5304, Note_on_c, 2, 54, 61
1, 5304, Note_on_c, 2, 61, 63
1, 5322, Note_on_c, 1, 32, 0
1, 5322, Note_on_c, 11, 32, 0
1, 5324, Note_on_c, 2, 64, 0
1, 5325, Note_on_c, 2, 57, 0
1, 5326, Note_on_c, 2, 61, 0
1, 5326, Note_on_c, 2, 54, 0
1, 5326, Note_on_c, 1, 35, 84
1, 5326, Note_on_c, 11, 35, 80
1, 5327, Note_on_c, 9, 69, 43
1, 5328, Note_on_c, 9, 69, 0
1, 5328, Note_on_c, 2, 57, 69
1, 5328, Note_on_c, 2, 54, 65
1, 5328, Note_on_c, 2, 64, 81
1, 5328, Note_on_c, 2, 61, 74
1, 5329, Note_on_c, 9, 42, 76
1, 5330, Note_on_c, 9, 42, 0
1, 5346, Note_on_c, 11, 35, 0
1, 5346, Note_on_c, 1, 35, 0
1, 5350, Note_on_c, 2, 54, 0
1, 5350, Note_on_c, 2, 61, 0
1, 5350, Note_on_c, 2, 57, 0
1, 5350, Note_on_c, 2, 64, 0
1, 5351, Note_on_c, 1, 36, 82
1, 5351, Note_on_c, 9, 42, 48
1, 5351, Note_on_c, 11, 36, 78
1, 5352, Note_on_c, 9, 42, 0
1, 5352, Note_on_c, 2, 57, 73
1, 5352, Note_on_c, 2, 61, 87
1, 5352, Note_on_c, 2, 54, 65
1, 5352, Note_on_c, 2, 64, 85
1, 5354, Note_on_c, 9, 69, 28
1, 5355, Note_on_c, 9, 69, 0
1, 5361, Note_on_c, 0, 54, 0
1, 5362, Note_on_c, 0, 64, 0
1, 5363, Note_on_c, 0, 57, 0
1, 5366, Note_on_c, 0, 61, 0
1, 5372, Note_on_c, 1, 36, 0
1, 5372, Note_on_c, 11, 36, 0
1, 5373, Note_on_c, 2, 61, 0
1, 5374, Note_on_c, 2, 54, 0
1, 5374, Note_on_c, 2, 64, 0
1, 5374, Note_on_c, 2, 57, 0
1, 5374, Note_on_c, 0, 56, 61
1, 5374, Note_on_c, 0, 65, 63
1, 5374, Note_on_c, 7, 65, 84
1, 5375, Note_on_c, 0, 63, 68
1, 5375, Note_on_c, 0, 60, 77
1, 5375, Note_on_c, 3, 70, 92
1, 5375, Note_on_c, 6, 65, 69
1, 5376, Note_on_c, 10, 61, 0
1, 5376, Note_on_c, 10, 64, 0
1, 5376, Note_on_c, 10, 54, 0
1, 5376, Note_on_c, 10, 57, 0
1, 5376, Note_on_c, 1, 37, 88
1, 5376, Note_on_c, 2, 65, 66
1, 5376, Note_on_c, 2, 60, 70
1, 5376, Note_on_c, 2, 56, 60
1, 5376, Note_on_c, 2, 53, 63
1, 5376, Control_c, 3, 1, 0
1, 5376, Pitch_bend_c, 3, 8192
1, 5376, Note_on_c, 4, 70, 67
1, 5376, Note_on_c, 9, 42, 91
1, 5376, Note_on_c, 9, 36, 110
1, 5376, Note_on_c, 10, 56, 64
1, 5376, Note_on_c, 10, 60, 64
1, 5376, Note_on_c, 10, 53, 64
1, 5376, Note_on_c, 10, 63, 64
1, 5376, Note_on_c, 11, 37, 84
1, 5377, Note_on_c, 9, 36, 0
1, 5377, Note_on_c, 9, 42, 0
1, 5377, Control_c, 4, 1, 0
1, 5377, Pitch_bend_c, 4, 8192
1, 5379, Note_on_c, 7, 66, 0
1, 5380, Note_on_c, 6, 66, 0
1, 5390, Note_on_c, 0, 60, 0
1, 5390, Note_on_c, 0, 56, 0
1, 5393, Note_on_c, 0, 65, 0
1, 5394, Note_on_c, 0, 63, 0
1, 5399, Note_on_c, 0, 60, 67
1, 5399, Note_on_c, 9, 44, 44
1, 5400, Note_on_c, 9, 44, 0
1, 5400, Note_on_c, 0, 65, 54
1, 5400, Note_on_c, 0, 56, 50
1, 5401, Note_on_c, 0, 63, 57
1, 5421, Note_on_c, 0, 63, 0
1, 5421, Note_on_c, 0, 60, 0
1, 5422, Note_on_c, 2, 65, 0
1, 5422, Note_on_c, 2, 60, 0
1, 5422, Note_on_c, 2, 56, 0
1, 5422, Note_on_c, 2, 53, 0
1, 5422, Note_on_c, 9, 69, 33
1, 5423, Note_on_c, 9, 69, 0
1, 5423, Note_on_c, 0, 49, 48
1, 5423, Note_on_c, 9, 42, 40
1, 5424, Note_on_c, 9, 42, 0
1, 5424, Note_on_c, 4, 70, 0
1, 5424, Note_on_c, 2, 65, 71
1, 5424, Note_on_c, 2, 53, 69
1, 5424, Note_on_c, 2, 56, 68
1, 5424, Note_on_c, 2, 60, 73
1, 5424, Note_on_c, 4, 65, 68
1, 5425, Note_on_c, 0, 56, 0
1, 5426, Note_on_c, 3, 70, 0
1, 5426, Note_on_c, 3, 65, 82
1, 5430, Note_on_c, 2, 56, 0
1, 5430, Note_on_c, 0, 65, 0
1, 5432, Note_on_c, 2, 60, 0
1, 5432, Note_on_c, 1, 37, 0
1, 5432, Note_on_c, 2, 65, 0
1, 5432, Note_on_c, 11, 37, 0
1, 5434, Note_on_c, 2, 53, 0
1, 5446, Note_on_c, 0, 60, 80
1, 5446, Note_on_c, 0, 65, 64
1, 5446, Note_on_c, 9, 69, 21
1, 5447, Note_on_c, 9, 69, 0
1, 5447, Note_on_c, 0, 56, 62
1, 5447, Note_on_c, 9, 42, 44
1, 5448, Note_on_c, 9, 42, 0
1, 5448, Note_on_c, 4, 65, 0
1, 5448, Note_on_c, 0, 63, 70
1, 5448, Note_on_c, 2, 60, 59
1, 5448, Note_on_c, 2, 65, 54
1, 5448, Note_on_c, 2, 53, 53
1, 5448, Note_on_c, 4, 68, 69
1, 5449, Note_on_c, 3, 65, 0
1, 5452, Note_on_c, 3, 68, 91
1, 5467, Note_on_c, 0, 63, 0
1, 5470, Note_on_c, 0, 60, 0
1, 5470, Note_on_c, 2, 53, 0
1, 5471, Note_on_c, 9, 42, 76
1, 5471, Note_on_c, 9, 40, 101
1, 5471, Note_on_c, 9, 75, 79
1, 5472, Note_on_c, 9, 75, 0
1, 5472, Note_on_c, 9, 40, 0
1, 5472, Note_on_c, 9, 42, 0
1, 5472, Note_on_c, 0, 56, 0
1, 5472, Note_on_c, 2, 53, 52
1, 5472, Note_on_c, 2, 56, 58
1, 5483, Note_on_c, 0, 65, 0
1, 5494, Note_on_c, 2, 60, 0
1, 5494, Note_on_c, 3, 68, 0
1, 5494, Note_on_c, 2, 56, 0
1, 5494, Note_on_c, 2, 65, 0
1, 5494, Note_on_c, 2, 53, 0
1, 5495, Note_on_c, 0, 60, 68
1, 5495, Note_on_c, 3, 70, 80
1, 5495, Note_on_c, 9, 44, 40
1, 5496, Note_on_c, 9, 44, 0
1, 5496, Note_on_c, 0, 49, 0
1, 5496, Note_on_c, 4, 68, 0
1, 5496, Note_on_c, 0, 65, 66
1, 5496, Note_on_c, 0, 56, 61
1, 5496, Note_on_c, 0, 63, 62
1, 5496, Note_on_c, 2, 53, 60
1, 5496, Note_on_c, 2, 65, 62
1, 5496, Note_on_c, 2, 56, 51
1, 5496, Note_on_c, 2, 60, 54
1, 5496, Note_on_c, 4, 70, 69
1, 5504, Note_on_c, 2, 60, 0
1, 5504, Note_on_c, 2, 56, 0
1, 5506, Note_on_c, 2, 65, 0
1, 5506, Note_on_c, 2, 53, 0
1, 5510, Note_on_c, 0, 63, 0
1, 5514, Note_on_c, 0, 65, 0
1, 5514, Note_on_c, 0, 60, 0
1, 5518, Note_on_c, 0, 49, 50
1, 5519, Note_on_c, 9, 42, 42
1, 5519, Note_on_c, 9, 69, 33
1, 5520, Note_on_c, 9, 69, 0
1, 5520, Note_on_c, 9, 42, 0
1, 5520, Note_on_c, 2, 65, 63
1, 5520, Note_on_c, 2, 60, 62
1, 5520, Note_on_c, 2, 56, 61
1, 5524, Note_on_c, 0, 56, 0
1, 5529, Note_on_c, 0, 49, 0
1, 5532, Note_on_c, 2, 56, 0
1, 5536, Note_on_c, 2, 65, 0
1, 5536, Note_on_c, 2, 60, 0
1, 5541, Note_on_c, 3, 68, 65
1, 5543, Note_on_c, 1, 32, 72
1, 5543, Note_on_c, 9, 42, 40
1, 5543, Note_on_c, 9, 69, 25
1, 5543, Note_on_c, 11, 32, 68
1, 5544, Note_on_c, 9, 69, 0
1, 5544, Note_on_c, 4, 70, 0
1, 5544, Note_on_c, 9, 42, 0
1, 5544, Note_on_c, 2, 65, 64
1, 5544, Note_on_c, 2, 53, 57
1, 5544, Note_on_c, 2, 56, 54
1, 5544, Note_on_c, 2, 60, 65
1, 5544, Note_on_c, 4, 68, 69
1, 5544, Note_on_c, 9, 36, 104
1, 5545, Note_on_c, 9, 36, 0
1, 5546, Note_on_c, 3, 70, 0
1, 5546, Note_on_c, 0, 49, 60
1, 5563, Note_on_c, 1, 32, 0
1, 5563, Note_on_c, 11, 32, 0
1, 5564, Note_on_c, 2, 65, 0
1, 5564, Note_on_c, 2, 56, 0
1, 5565, Note_on_c, 2, 60, 0
1, 5566, Note_on_c, 2, 53, 0
1, 5567, Note_on_c, 1, 37, 86
1, 5567, Note_on_c, 9, 36, 68
1, 5567, Note_on_c, 9, 42, 87
1, 5567, Note_on_c, 11, 37, 82
1, 5568, Note_on_c, 9, 42, 0
1, 5568, Note_on_c, 9, 36, 0
1, 5568, Note_on_c, 0, 53, 67
1, 5568, Note_on_c, 0, 63, 62
1, 5568, Note_on_c, 2, 60, 63
1, 5568, Note_on_c, 2, 53, 50
1, 5568, Note_on_c, 2, 65, 61
1, 5568, Note_on_c, 2, 56, 58
1, 5569, Note_on_c, 3, 68, 0
1, 5569, Note_on_c, 0, 56, 68
1, 5570, Note_on_c, 0, 60, 68
1, 5575, Note_on_c, 0, 49, 0
1, 5584, Note_on_c, 0, 60, 0
1, 5586, Note_on_c, 0, 56, 0
1, 5590, Note_on_c, 1, 32, 62
1, 5590, Note_on_c, 11, 32, 58
1, 5592, Note_on_c, 1, 37, 0
1, 5592, Note_on_c, 0, 63, 0
1, 5592, Note_on_c, 11, 37, 0
1, 5592, Note_on_c, 9, 44, 46
1, 5593, Note_on_c, 9, 44, 0
1, 5593, Note_on_c, 0, 53, 0
1, 5614, Note_on_c, 11, 32, 0
1, 5614, Note_on_c, 1, 32, 0
1, 5614, Note_on_c, 2, 65, 0
1, 5614, Note_on_c, 2, 53, 0
1, 5614, Note_on_c, 2, 56, 0
1, 5614, Note_on_c, 2, 60, 0
1, 5614, Note_on_c, 0, 63, 59
1, 5614, Note_on_c, 0, 56, 66
1, 5614, Note_on_c, 9, 69, 35
1, 5615, Note_on_c, 9, 69, 0
1, 5615, Note_on_c, 0, 53, 61
1, 5615, Note_on_c, 0, 60, 73
1, 5615, Note_on_c, 1, 37, 85
1, 5615, Note_on_c, 9, 36, 97
1, 5615, Note_on_c, 9, 42, 43
1, 5615, Note_on_c, 11, 37, 81
1, 5616, Note_on_c, 9, 42, 0
1, 5616, Note_on_c, 9, 36, 0
1, 5616, Note_on_c, 2, 65, 102
1, 5616, Note_on_c, 2, 53, 102
1, 5616, Note_on_c, 2, 56, 102
1, 5616, Note_on_c, 2, 60, 102
1, 5622, Note_on_c, 2, 60, 0
1, 5622, Note_on_c, 2, 56, 0
1, 5624, Note_on_c, 2, 65, 0
1, 5625, Note_on_c, 2, 53, 0
1, 5638, Note_on_c, 9, 69, 29
1, 5639, Note_on_c, 9, 69, 0
1, 5639, Note_on_c, 9, 42, 54
1, 5640, Note_on_c, 9, 42, 0
1, 5640, Note_on_c, 2, 56, 49
1, 5640, Note_on_c, 2, 53, 56
1, 5640, Note_on_c, 2, 65, 55
1, 5640, Note_on_c, 2, 60, 59
1, 5648, Note_on_c, 11, 37, 0
1, 5648, Note_on_c, 1, 37, 0
1, 5660, Note_on_c, 2, 60, 0
1, 5661, Note_on_c, 2, 65, 0
1, 5661, Note_on_c, 2, 56, 0
1, 5662, Note_on_c, 2, 53, 0
1, 5663, Note_on_c, 0, 49, 77
1, 5663, Note_on_c, 3, 65, 86
1, 5663, Note_on_c, 9, 40, 104
1, 5663, Note_on_c, 9, 42, 73
1, 5664, Note_on_c, 9, 42, 0
1, 5664, Note_on_c, 0, 60, 0
1, 5664, Note_on_c, 9, 40, 0
1, 5664, Note_on_c, 4, 68, 0
1, 5664, Note_on_c, 2, 53, 52
1, 5664, Note_on_c, 2, 60, 54
1, 5664, Note_on_c, 2, 65, 52
1, 5664, Note_on_c, 2, 56, 52
1, 5664, Note_on_c, 4, 65, 69
1, 5664, Note_on_c, 9, 75, 79
1, 5665, Note_on_c, 9, 75, 0
1, 5668, Note_on_c, 0, 53, 0
1, 5668, Note_on_c, 0, 56, 0
1, 5670, Note_on_c, 0, 63, 0
1, 5685, Note_on_c, 3, 65, 0
1, 5686, Note_on_c, 2, 65, 0
1, 5686, Note_on_c, 2, 60, 0
1, 5686, Note_on_c, 2, 53, 0
1, 5686, Note_on_c, 2, 56, 0
1, 5686, Note_on_c, 0, 63, 56
1, 5686, Note_on_c, 0, 60, 70
1, 5686, Note_on_c, 0, 53, 61
1, 5686, Note_on_c, 0, 56, 66
1, 5687, Note_on_c, 9, 44, 43
1, 5688, Note_on_c, 9, 44, 0
1, 5688, Note_on_c, 4, 65, 0
1, 5688, Note_on_c, 2, 56, 59
1, 5688, Note_on_c, 2, 60, 61
1, 5688, Note_on_c, 2, 53, 59
1, 5688, Note_on_c, 2, 65, 63
1, 5688, Note_on_c, 4, 68, 69
1, 5690, Note_on_c, 0, 49, 0
1, 5690, Note_on_c, 3, 68, 75
1, 5696, Note_on_c, 2, 60, 0
1, 5696, Note_on_c, 2, 56, 0
1, 5697, Note_on_c, 2, 65, 0
1, 5698, Note_on_c, 2, 53, 0
1, 5710, Note_on_c, 1, 32, 74
1, 5710, Note_on_c, 9, 69, 36
1, 5710, Note_on_c, 11, 32, 70
1, 5711, Note_on_c, 9, 69, 0
1, 5711, Note_on_c, 0, 60, 0
1, 5711, Note_on_c, 0, 49, 50
1, 5711, Note_on_c, 9, 42, 54
1, 5712, Note_on_c, 9, 42, 0
1, 5712, Note_on_c, 2, 56, 61
1, 5712, Note_on_c, 2, 60, 59
1, 5712, Note_on_c, 2, 65, 63
1, 5718, Note_on_c, 0, 56, 0
1, 5719, Note_on_c, 0, 63, 0
1, 5719, Note_on_c, 0, 49, 0
1, 5721, Note_on_c, 0, 53, 0
1, 5724, Note_on_c, 2, 56, 0
1, 5730, Note_on_c, 2, 65, 0
1, 5730, Note_on_c, 2, 60, 0
1, 5734, Note_on_c, 1, 34, 73
1, 5734, Note_on_c, 9, 69, 23
1, 5734, Note_on_c, 11, 34, 69
1, 5735, Note_on_c, 9, 69, 0
1, 5735, Note_on_c, 1, 32, 0
1, 5735, Note_on_c, 11, 32, 0
1, 5735, Note_on_c, 9, 42, 42
1, 5736, Note_on_c, 9, 42, 0
1, 5736, Note_on_c, 3, 68, 0
1, 5736, Note_on_c, 2, 56, 59
1, 5736, Note_on_c, 2, 59, 65
1, 5736, Note_on_c, 2, 63, 64
1, 5736, Note_on_c, 2, 53, 62
1, 5737, Note_on_c, 0, 49, 53
1, 5755, Note_on_c, 7, 65, 0
1, 5757, Note_on_c, 2, 59, 0
1, 5757, Note_on_c, 6, 65, 0
1, 5757, Note_on_c, 2, 63, 0
1, 5758, Note_on_c, 2, 56, 0
1, 5758, Note_on_c, 0, 56, 68
1, 5758, Note_on_c, 0, 63, 62
1, 5758, Note_on_c, 0, 53, 68
1, 5758, Note_on_c, 1, 37, 91
1, 5758, Note_on_c, 3, 70, 97
1, 5758, Note_on_c, 11, 37, 87
1, 5759, Note_on_c, 0, 59, 81
1, 5759, Note_on_c, 9, 42, 83
1, 5760, Note_on_c, 9, 42, 0
1, 5760, Note_on_c, 10, 60, 0
1, 5760, Note_on_c, 1, 34, 0
1, 5760, Note_on_c, 11, 34, 0
1, 5760, Note_on_c, 4, 68, 0
1, 5760, Note_on_c, 2, 59, 77
1, 5760, Note_on_c, 2, 56, 58
1, 5760, Note_on_c, 2, 63, 68
1, 5760, Note_on_c, 4, 70, 71
1, 5760, Note_on_c, 9, 36, 114
1, 5760, Note_on_c, 10, 59, 67
1, 5761, Note_on_c, 9, 36, 0
1, 5765, Note_on_c, 0, 49, 0
1, 5772, Note_on_c, 0, 59, 0
1, 5774, Note_on_c, 0, 56, 0
1, 5774, Note_on_c, 0, 53, 0
1, 5782, Note_on_c, 0, 53, 53
1, 5782, Note_on_c, 0, 56, 57
1, 5782, Note_on_c, 0, 59, 70
1, 5783, Note_on_c, 9, 44, 49
1, 5784, Note_on_c, 9, 44, 0
1, 5790, Note_on_c, 1, 37, 0
1, 5790, Note_on_c, 11, 37, 0
1, 5802, Note_on_c, 0, 59, 0
1, 5803, Note_on_c, 0, 56, 0
1, 5806, Note_on_c, 0, 53, 0
1, 5806, Note_on_c, 2, 53, 0
1, 5806, Note_on_c, 2, 63, 0
1, 5806, Note_on_c, 2, 59, 0
1, 5806, Note_on_c, 2, 56, 0
1, 5806, Note_on_c, 0, 49, 56
1, 5806, Note_on_c, 9, 69, 33
1, 5807, Note_on_c, 9, 69, 0
1, 5807, Note_on_c, 9, 42, 42
1, 5808, Note_on_c, 9, 42, 0
1, 5808, Note_on_c, 3, 70, 0
1, 5808, Note_on_c, 4, 70, 0
1, 5808, Note_on_c, 2, 63, 93
1, 5808, Note_on_c, 2, 59, 87
1, 5808, Note_on_c, 2, 53, 67
1, 5808, Note_on_c, 2, 56, 65
1, 5808, Note_on_c, 4, 65, 71
1, 5809, Note_on_c, 0, 63, 0
1, 5810, Note_on_c, 3, 65, 85
1, 5814, Note_on_c, 2, 56, 0
1, 5816, Note_on_c, 2, 59, 0
1, 5816, Note_on_c, 2, 53, 0
1, 5816, Note_on_c, 2, 63, 0
1, 5830, Note_on_c, 0, 63, 57
1, 5830, Note_on_c, 0, 53, 67
1, 5830, Note_on_c, 0, 56, 68
1, 5830, Note_on_c, 0, 59, 80
1, 5831, Note_on_c, 9, 69, 27
1, 5831, Note_on_c, 9, 42, 41
1, 5832, Note_on_c, 9, 42, 0
1, 5832, Note_on_c, 9, 69, 0
1, 5832, Note_on_c, 4, 65, 0
1, 5832, Note_on_c, 2, 59, 61
1, 5832, Note_on_c, 2, 56, 57
1, 5832, Note_on_c, 2, 53, 58
1, 5832, Note_on_c, 2, 63, 59
1, 5832, Note_on_c, 4, 68, 71
1, 5835, Note_on_c, 3, 65, 0
1, 5835, Note_on_c, 3, 68, 79
1, 5847, Note_on_c, 0, 56, 0
1, 5848, Note_on_c, 0, 59, 0
1, 5852, Note_on_c, 2, 56, 0
1, 5853, Note_on_c, 2, 63, 0
1, 5854, Note_on_c, 0, 63, 0
1, 5854, Note_on_c, 2, 59, 0
1, 5854, Note_on_c, 2, 53, 0
1, 5855, Note_on_c, 9, 75, 76
1, 5855, Note_on_c, 9, 40, 107
1, 5856, Note_on_c, 9, 40, 0
1, 5856, Note_on_c, 9, 75, 0
1, 5856, Note_on_c, 2, 56, 54
1, 5856, Note_on_c, 2, 63, 53
1, 5856, Note_on_c, 2, 53, 49
1, 5856, Note_on_c, 2, 59, 53
1, 5856, Note_on_c, 9, 42, 87
1, 5857, Note_on_c, 9, 42, 0
1, 5857, Note_on_c, 0, 53, 0
1, 5878, Note_on_c, 2, 53, 0
1, 5878, Note_on_c, 2, 56, 0
1, 5878, Note_on_c, 0, 49, 0
1, 5878, Note_on_c, 2, 63, 0
1, 5878, Note_on_c, 2, 59, 0
1, 5878, Note_on_c, 0, 63, 58
1, 5878, Note_on_c, 3, 70, 93
1, 5879, Note_on_c, 3, 68, 0
1, 5879, Note_on_c, 0, 59, 81
1, 5879, Note_on_c, 0, 56, 65
1, 5879, Note_on_c, 0, 53, 63
1, 5880, Note_on_c, 4, 68, 0
1, 5880, Note_on_c, 2, 56, 58
1, 5880, Note_on_c, 2, 59, 61
1, 5880, Note_on_c, 2, 63, 56
1, 5880, Note_on_c, 2, 53, 59
1, 5880, Note_on_c, 4, 70, 71
1, 5881, Note_on_c, 9, 44, 57
1, 5882, Note_on_c, 9, 44, 0
1, 5890, Note_on_c, 2, 56, 0
1, 5890, Note_on_c, 2, 59, 0
1, 5892, Note_on_c, 2, 63, 0
1, 5894, Note_on_c, 0, 56, 0
1, 5894, Note_on_c, 0, 63, 0
1, 5894, Note_on_c, 2, 53, 0
1, 5896, Note_on_c, 0, 59, 0
1, 5898, Note_on_c, 0, 53, 0
1, 5903, Note_on_c, 9, 69, 35
1, 5903, Note_on_c, 9, 42, 44
1, 5904, Note_on_c, 9, 42, 0
1, 5904, Note_on_c, 9, 69, 0
1, 5904, Note_on_c, 0, 49, 53
1, 5904, Note_on_c, 2, 56, 50
1, 5904, Note_on_c, 2, 59, 67
1, 5904, Note_on_c, 2, 53, 59
1, 5904, Note_on_c, 2, 63, 61
1, 5912, Note_on_c, 0, 49, 0
1, 5926, Note_on_c, 2, 59, 0
1, 5926, Note_on_c, 2, 63, 0
1, 5926, Note_on_c, 2, 56, 0
1, 5926, Note_on_c, 2, 53, 0
1, 5926, Note_on_c, 9, 69, 25
1, 5927, Note_on_c, 9, 69, 0
1, 5927, Note_on_c, 0, 49, 54
1, 5927, Note_on_c, 1, 32, 70
1, 5927, Note_on_c, 9, 42, 46
1, 5927, Note_on_c, 9, 36, 105
1, 5927, Note_on_c, 11, 32, 66
1, 5928, Note_on_c, 9, 36, 0
1, 5928, Note_on_c, 9, 42, 0
1, 5928, Note_on_c, 2, 56, 60
1, 5928, Note_on_c, 2, 59, 72
1, 5928, Note_on_c, 2, 63, 65
1, 5928, Note_on_c, 2, 53, 59
1, 5938, Note_on_c, 3, 70, 0
1, 5946, Note_on_c, 1, 32, 0
1, 5946, Note_on_c, 11, 32, 0
1, 5947, Note_on_c, 0, 63, 61
1, 5948, Note_on_c, 2, 56, 0
1, 5948, Note_on_c, 2, 63, 0
1, 5948, Note_on_c, 0, 56, 62
1, 5948, Note_on_c, 0, 53, 65
1, 5949, Note_on_c, 2, 59, 0
1, 5949, Note_on_c, 0, 59, 81
1, 5950, Note_on_c, 2, 53, 0
1, 5950, Note_on_c, 1, 37, 88
1, 5950, Note_on_c, 9, 36, 67
1, 5950, Note_on_c, 11, 37, 84
1, 5951, Note_on_c, 9, 36, 0
1, 5952, Note_on_c, 2, 56, 62
1, 5952, Note_on_c, 2, 53, 59
1, 5952, Note_on_c, 2, 59, 75
1, 5952, Note_on_c, 2, 63, 65
1, 5952, Note_on_c, 9, 42, 70
1, 5953, Note_on_c, 9, 42, 0
1, 5964, Note_on_c, 0, 56, 0
1, 5966, Note_on_c, 0, 63, 0
1, 5967, Note_on_c, 0, 59, 0
1, 5969, Note_on_c, 0, 53, 0
1, 5975, Note_on_c, 1, 32, 69
1, 5975, Note_on_c, 9, 44, 52
1, 5975, Note_on_c, 11, 32, 65
1, 5976, Note_on_c, 9, 44, 0
1, 5976, Note_on_c, 1, 37, 0
1, 5976, Note_on_c, 11, 37, 0
1, 5993, Note_on_c, 2, 53, 0
1, 5994, Note_on_c, 2, 63, 0
1, 5996, Note_on_c, 2, 56, 0
1, 5997, Note_on_c, 2, 59, 0
1, 5998, Note_on_c, 0, 49, 0
1, 5998, Note_on_c, 0, 56, 67
1, 5998, Note_on_c, 0, 63, 60
1, 5998, Note_on_c, 0, 53, 68
1, 5998, Note_on_c, 9, 69, 45
1, 5999, Note_on_c, 9, 69, 0
1, 5999, Note_on_c, 0, 59, 84
1, 5999, Note_on_c, 1, 37, 91
1, 5999, Note_on_c, 9, 36, 107
1, 5999, Note_on_c, 9, 42, 46
1, 5999, Note_on_c, 11, 37, 87
1, 6000, Note_on_c, 9, 42, 0
1, 6000, Note_on_c, 9, 36, 0
1, 6000, Note_on_c, 2, 56, 63
1, 6000, Note_on_c, 2, 59, 95
1, 6000, Note_on_c, 2, 63, 95
1, 6000, Note_on_c, 2, 53, 64
1, 6001, Note_on_c, 11, 32, 0
1, 6001, Note_on_c, 1, 32, 0
1, 6006, Note_on_c, 2, 59, 0
1, 6006, Note_on_c, 2, 56, 0
1, 6008, Note_on_c, 2, 53, 0
1, 6008, Note_on_c, 2, 63, 0
1, 6022, Note_on_c, 9, 69, 26
1, 6023, Note_on_c, 9, 69, 0
1, 6023, Note_on_c, 11, 37, 0
1, 6023, Note_on_c, 1, 37, 0
1, 6023, Note_on_c, 9, 42, 37
1, 6024, Note_on_c, 9, 42, 0
1, 6024, Note_on_c, 2, 63, 58
1, 6024, Note_on_c, 2, 56, 54
1, 6024, Note_on_c, 2, 53, 59
1, 6024, Note_on_c, 2, 59, 60
1, 6044, Note_on_c, 3, 65, 97
1, 6045, Note_on_c, 2, 59, 0
1, 6046, Note_on_c, 2, 63, 0
1, 6046, Note_on_c, 2, 56, 0
1, 6047, Note_on_c, 9, 40, 110
1, 6047, Note_on_c, 9, 42, 91
1, 6047, Note_on_c, 9, 75, 82
1, 6048, Note_on_c, 9, 75, 0
1, 6048, Note_on_c, 9, 42, 0
1, 6048, Note_on_c, 4, 70, 0
1, 6048, Note_on_c, 9, 40, 0
1, 6048, Note_on_c, 2, 59, 59
1, 6048, Note_on_c, 2, 56, 47
1, 6048, Note_on_c, 2, 63, 52
1, 6048, Note_on_c, 4, 65, 70
1, 6049, Note_on_c, 0, 49, 55
1, 6051, Note_on_c, 0, 59, 0
1, 6051, Note_on_c, 0, 56, 0
1, 6052, Note_on_c, 0, 63, 0
1, 6054, Note_on_c, 0, 53, 0
1, 6066, Note_on_c, 3, 65, 0
1, 6067, Note_on_c, 3, 68, 78
1, 6070, Note_on_c, 2, 53, 0
1, 6070, Note_on_c, 2, 59, 0
1, 6070, Note_on_c, 2, 56, 0
1, 6070, Note_on_c, 2, 63, 0
1, 6070, Note_on_c, 0, 49, 0
1, 6070, Note_on_c, 0, 59, 84
1, 6070, Note_on_c, 0, 63, 52
1, 6070, Note_on_c, 0, 56, 67
1, 6070, Note_on_c, 0, 53, 70
1, 6070, Note_on_c, 1, 32, 73
1, 6070, Note_on_c, 11, 32, 69
1, 6071, Note_on_c, 9, 44, 52
1, 6072, Note_on_c, 9, 44, 0
1, 6072, Note_on_c, 4, 65, 0
1, 6072, Note_on_c, 2, 56, 60
1, 6072, Note_on_c, 2, 59, 67
1, 6072, Note_on_c, 2, 53, 59
1, 6072, Note_on_c, 2, 63, 61
1, 6072, Note_on_c, 4, 68, 70
1, 6080, Note_on_c, 2, 56, 0
1, 6081, Note_on_c, 2, 59, 0
1, 6084, Note_on_c, 2, 63, 0
1, 6084, Note_on_c, 2, 53, 0
1, 6087, Note_on_c, 0, 53, 0
1, 6089, Note_on_c, 0, 63, 0
1, 6091, Note_on_c, 1, 32, 0
1, 6091, Note_on_c, 11, 32, 0
1, 6094, Note_on_c, 0, 56, 0
1, 6094, Note_on_c, 0, 59, 0
1, 6094, Note_on_c, 1, 35, 86
1, 6094, Note_on_c, 9, 69, 39
1, 6094, Note_on_c, 11, 35, 82
1, 6095, Note_on_c, 9, 69, 0
1, 6095, Note_on_c, 9, 42, 48
1, 6096, Note_on_c, 9, 42, 0
1, 6096, Note_on_c, 2, 63, 60
1, 6096, Note_on_c, 2, 56, 51
1, 6096, Note_on_c, 2, 59, 61
1, 6096, Note_on_c, 2, 53, 58
1, 6108, Note_on_c, 2, 53, 0
1, 6110, Note_on_c, 2, 56, 0
1, 6110, Note_on_c, 2, 63, 0
1, 6110, Note_on_c, 2, 59, 0
1, 6111, Note_on_c, 1, 35, 0
1, 6111, Note_on_c, 11, 35, 0
1, 6118, Note_on_c, 1, 36, 80
1, 6118, Note_on_c, 9, 69, 25
1, 6118, Note_on_c, 11, 36, 76
1, 6119, Note_on_c, 9, 69, 0
1, 6119, Note_on_c, 0, 49, 59
1, 6119, Note_on_c, 9, 42, 48
1, 6120, Note_on_c, 9, 42, 0
1, 6120, Note_on_c, 2, 61, 58
1, 6120, Note_on_c, 2, 54, 58
1, 6120, Note_on_c, 2, 63, 61
1, 6120, Note_on_c, 2, 58, 60
1, 6131, Note_on_c, 3, 68, 0
1, 6140, Note_on_c, 2, 61, 0
1, 6141, Note_on_c, 2, 54, 0
1, 6142, Note_on_c, 1, 36, 0
1, 6142, Note_on_c, 11, 36, 0
1, 6142, Note_on_c, 2, 58, 0
1, 6142, Note_on_c, 2, 63, 0
1, 6142, Note_on_c, 0, 61, 67
1, 6142, Note_on_c, 0, 63, 60
1, 6142, Note_on_c, 0, 54, 61
1, 6142, Note_on_c, 0, 58, 65
1, 6142, Note_on_c, 1, 37, 92
1, 6142, Note_on_c, 3, 70, 95
1, 6142, Note_on_c, 11, 37, 88
1, 6143, Note_on_c, 9, 36, 113
1, 6144, Note_on_c, 9, 36, 0
1, 6144, Note_on_c, 4, 68, 0
1, 6144, Note_on_c, 10, 53, 0
1, 6144, Note_on_c, 10, 59, 0
1, 6144, Note_on_c, 10, 56, 0
1, 6144, Note_on_c, 2, 54, 59
1, 6144, Note_on_c, 2, 61, 65
1, 6144, Note_on_c, 2, 58, 67
1, 6144, Note_on_c, 2, 63, 68
1, 6144, Note_on_c, 4, 70, 71
1, 6144, Note_on_c, 9, 42, 73
1, 6144, Note_on_c, 10, 61, 63
1, 6144, Note_on_c, 10, 54, 51
1, 6144, Note_on_c, 10, 58, 48
1, 6145, Note_on_c, 9, 42, 0
1, 6151, Note_on_c, 0, 49, 0
1, 6158, Note_on_c, 0, 61, 0
1, 6161, Note_on_c, 0, 63, 0
1, 6162, Note_on_c, 0, 58, 0
1, 6167, Note_on_c, 0, 61, 59
1, 6168, Note_on_c, 9, 44, 42
1, 6169, Note_on_c, 9, 44, 0
1, 6169, Note_on_c, 0, 63, 55
1, 6169, Note_on_c, 0, 58, 57
1, 6182, Note_on_c, 1, 37, 0
1, 6182, Note_on_c, 11, 37, 0
1, 6186, Note_on_c, 0, 63, 0
1, 6190, Note_on_c, 3, 70, 0
1, 6190, Note_on_c, 2, 54, 0
1, 6190, Note_on_c, 2, 61, 0
1, 6190, Note_on_c, 2, 58, 0
1, 6190, Note_on_c, 2, 63, 0
1, 6190, Note_on_c, 9, 69, 35
1, 6191, Note_on_c, 9, 69, 0
1, 6191, Note_on_c, 0, 58, 0
1, 6191, Note_on_c, 0, 49, 63
1, 6191, Note_on_c, 9, 42, 42
1, 6192, Note_on_c, 9, 42, 0
1, 6192, Note_on_c, 4, 70, 0
1, 6192, Note_on_c, 2, 58, 96
1, 6192, Note_on_c, 2, 63, 96
1, 6192, Note_on_c, 2, 61, 96
1, 6192, Note_on_c, 2, 54, 96
1, 6192, Note_on_c, 3, 65, 77
1, 6192, Note_on_c, 4, 65, 71
1, 6194, Note_on_c, 0, 61, 0
1, 6195, Note_on_c, 0, 54, 0
1, 6200, Note_on_c, 2, 63, 0
1, 6200, Note_on_c, 2, 58, 0
1, 6200, Note_on_c, 2, 61, 0
1, 6204, Note_on_c, 2, 54, 0
1, 6215, Note_on_c, 0, 58, 68
1, 6215, Note_on_c, 0, 63, 63
1, 6215, Note_on_c, 9, 42, 42
1, 6216, Note_on_c, 9, 42, 0
1, 6216, Note_on_c, 4, 65, 0
1, 6216, Note_on_c, 0, 61, 67
1, 6216, Note_on_c, 0, 54, 59
1, 6216, Note_on_c, 2, 63, 59
1, 6216, Note_on_c, 2, 54, 66
1, 6216, Note_on_c, 2, 61, 71
1, 6216, Note_on_c, 2, 58, 60
1, 6216, Note_on_c, 4, 68, 71
1, 6216, Note_on_c, 9, 69, 24
1, 6217, Note_on_c, 9, 69, 0
1, 6218, Note_on_c, 3, 65, 0
1, 6218, Note_on_c, 3, 68, 83
1, 6230, Note_on_c, 0, 63, 0
1, 6233, Note_on_c, 0, 58, 0
1, 6234, Note_on_c, 0, 61, 0
1, 6234, Note_on_c, 0, 54, 0
1, 6236, Note_on_c, 2, 58, 0
1, 6236, Note_on_c, 2, 54, 0
1, 6237, Note_on_c, 2, 61, 0
1, 6239, Note_on_c, 9, 40, 104
1, 6239, Note_on_c, 9, 75, 76
1, 6240, Note_on_c, 9, 75, 0
1, 6240, Note_on_c, 9, 40, 0
1, 6240, Note_on_c, 2, 54, 60
1, 6240, Note_on_c, 2, 61, 58
1, 6240, Note_on_c, 2, 58, 52
1, 6240, Note_on_c, 9, 42, 81
1, 6241, Note_on_c, 9, 42, 0
1, 6253, Note_on_c, 0, 49, 0
1, 6260, Note_on_c, 3, 68, 0
1, 6262, Note_on_c, 2, 63, 0
1, 6262, Note_on_c, 2, 61, 0
1, 6262, Note_on_c, 2, 54, 0
1, 6262, Note_on_c, 2, 58, 0
1, 6262, Note_on_c, 0, 61, 63
1, 6263, Note_on_c, 0, 54, 56
1, 6263, Note_on_c, 0, 63, 57
1, 6263, Note_on_c, 0, 58, 66
1, 6263, Note_on_c, 9, 44, 43
1, 6264, Note_on_c, 9, 44, 0
1, 6264, Note_on_c, 4, 68, 0
1, 6264, Note_on_c, 2, 63, 46
1, 6264, Note_on_c, 2, 58, 49
1, 6264, Note_on_c, 2, 54, 58
1, 6264, Note_on_c, 2, 61, 54
1, 6264, Note_on_c, 3, 70, 88
1, 6264, Note_on_c, 4, 70, 72
1, 6273, Note_on_c, 2, 61, 0
1, 6274, Note_on_c, 0, 63, 0
1, 6276, Note_on_c, 2, 58, 0
1, 6277, Note_on_c, 2, 63, 0
1, 6277, Note_on_c, 0, 61, 0
1, 6278, Note_on_c, 0, 58, 0
1, 6278, Note_on_c, 2, 54, 0
1, 6281, Note_on_c, 0, 54, 0
1, 6286, Note_on_c, 9, 69, 45
1, 6287, Note_on_c, 9, 69, 0
1, 6287, Note_on_c, 9, 42, 50
1, 6288, Note_on_c, 9, 42, 0
1, 6288, Note_on_c, 2, 54, 63
1, 6288, Note_on_c, 2, 58, 60
1, 6288, Note_on_c, 2, 61, 64
1, 6288, Note_on_c, 2, 63, 63
1, 6304, Note_on_c, 2, 61, 0
1, 6304, Note_on_c, 2, 54, 0
1, 6304, Note_on_c, 3, 70, 0
1, 6310, Note_on_c, 2, 58, 0
1, 6310, Note_on_c, 2, 63, 0
1, 6310, Note_on_c, 0, 49, 6
1, 6310, Note_on_c, 9, 69, 34
1, 6311, Note_on_c, 9, 69, 0
1, 6311, Note_on_c, 1, 32, 72
1, 6311, Note_on_c, 3, 68, 78
1, 6311, Note_on_c, 9, 42, 43
1, 6311, Note_on_c, 11, 32, 68
1, 6312, Note_on_c, 9, 42, 0
1, 6312, Note_on_c, 4, 70, 0
1, 6312, Note_on_c, 2, 54, 61
1, 6312, Note_on_c, 2, 61, 59
1, 6312, Note_on_c, 2, 58, 61
1, 6312, Note_on_c, 2, 63, 65
1, 6312, Note_on_c, 4, 68, 72
1, 6313, Note_on_c, 9, 36, 110
1, 6314, Note_on_c, 9, 36, 0
1, 6332, Note_on_c, 11, 32, 0
1, 6332, Note_on_c, 1, 32, 0
1, 6333, Note_on_c, 2, 54, 0
1, 6333, Note_on_c, 2, 63, 0
1, 6334, Note_on_c, 2, 58, 0
1, 6334, Note_on_c, 2, 61, 0
1, 6334, Note_on_c, 0, 54, 80
1, 6334, Note_on_c, 0, 61, 71
1, 6334, Note_on_c, 0, 58, 89
1, 6334, Note_on_c, 0, 63, 65
1, 6334, Note_on_c, 3, 65, 77
1, 6335, Note_on_c, 1, 37, 82
1, 6335, Note_on_c, 9, 36, 64
1, 6335, Note_on_c, 11, 37, 78
1, 6336, Note_on_c, 9, 36, 0
1, 6336, Note_on_c, 4, 68, 0
1, 6336, Note_on_c, 2, 63, 65
1, 6336, Note_on_c, 2, 54, 63
1, 6336, Note_on_c, 2, 61, 61
1, 6336, Note_on_c, 2, 58, 65
1, 6336, Note_on_c, 4, 65, 72
1, 6336, Note_on_c, 9, 42, 85
1, 6337, Note_on_c, 9, 42, 0
1, 6342, Note_on_c, 3, 68, 0
1, 6350, Note_on_c, 0, 61, 0
1, 6351, Note_on_c, 0, 54, 0
1, 6351, Note_on_c, 0, 58, 0
1, 6352, Note_on_c, 0, 63, 0
1, 6356, Note_on_c, 1, 37, 0
1, 6356, Note_on_c, 11, 37, 0
1, 6359, Note_on_c, 1, 32, 72
1, 6359, Note_on_c, 9, 44, 42
1, 6359, Note_on_c, 11, 32, 68
1, 6360, Note_on_c, 9, 44, 0
1, 6377, Note_on_c, 2, 61, 0
1, 6379, Note_on_c, 3, 65, 0
1, 6380, Note_on_c, 2, 54, 0
1, 6381, Note_on_c, 2, 58, 0
1, 6381, Note_on_c, 1, 32, 0
1, 6381, Note_on_c, 11, 32, 0
1, 6382, Note_on_c, 2, 63, 0
1, 6382, Note_on_c, 0, 54, 59
1, 6382, Note_on_c, 0, 61, 66
1, 6382, Note_on_c, 0, 58, 68
1, 6382, Note_on_c, 0, 63, 67
1, 6382, Note_on_c, 9, 69, 43
1, 6383, Note_on_c, 9, 69, 0
1, 6383, Note_on_c, 1, 37, 86
1, 6383, Note_on_c, 11, 37, 82
1, 6384, Note_on_c, 2, 58, 97
1, 6384, Note_on_c, 2, 61, 97
1, 6384, Note_on_c, 2, 63, 97
1, 6384, Note_on_c, 2, 54, 97
1, 6384, Note_on_c, 9, 42, 54
1, 6385, Note_on_c, 9, 42, 0
1, 6385, Note_on_c, 9, 36, 113
1, 6386, Note_on_c, 9, 36, 0
1, 6386, Note_on_c, 0, 49, 0
1, 6390, Note_on_c, 2, 63, 0
1, 6390, Note_on_c, 2, 61, 0
1, 6390, Note_on_c, 2, 58, 0
1, 6392, Note_on_c, 2, 54, 0
1, 6406, Note_on_c, 9, 69, 32
1, 6407, Note_on_c, 9, 69, 0
1, 6407, Note_on_c, 9, 42, 49
1, 6408, Note_on_c, 9, 42, 0
1, 6408, Note_on_c, 2, 58, 62
1, 6408, Note_on_c, 2, 61, 63
1, 6408, Note_on_c, 2, 63, 61
1, 6408, Note_on_c, 2, 54, 62
1, 6410, Note_on_c, 1, 37, 0
1, 6410, Note_on_c, 11, 37, 0
1, 6428, Note_on_c, 2, 58, 0
1, 6429, Note_on_c, 2, 63, 0
1, 6430, Note_on_c, 2, 54, 0
1, 6430, Note_on_c, 3, 65, 87
1, 6431, Note_on_c, 4, 65, 0
1, 6432, Note_on_c, 2, 58, 50
1, 6432, Note_on_c, 2, 63, 45
1, 6432, Note_on_c, 2, 54, 63
1, 6432, Note_on_c, 4, 65, 67
1, 6432, Note_on_c, 9, 75, 76
1, 6433, Note_on_c, 9, 75, 0
1, 6433, Note_on_c, 9, 42, 73
1, 6433, Note_on_c, 9, 40, 105
1, 6434, Note_on_c, 9, 40, 0
1, 6434, Note_on_c, 9, 42, 0
1, 6434, Note_on_c, 0, 49, 84
1, 6435, Note_on_c, 0, 63, 0
1, 6435, Note_on_c, 0, 58, 0
1, 6437, Note_on_c, 0, 54, 0
1, 6438, Note_on_c, 0, 61, 0
1, 6454, Note_on_c, 2, 63, 0
1, 6454, Note_on_c, 2, 58, 0
1, 6454, Note_on_c, 2, 54, 0
1, 6454, Note_on_c, 2, 61, 0
1, 6455, Note_on_c, 9, 44, 45
1, 6456, Note_on_c, 9, 44, 0
1, 6456, Note_on_c, 4, 65, 0
1, 6456, Note_on_c, 0, 63, 68
1, 6456, Note_on_c, 2, 61, 64
1, 6456, Note_on_c, 2, 63, 61
1, 6456, Note_on_c, 2, 54, 63
1, 6456, Note_on_c, 2, 58, 60
1, 6456, Note_on_c, 4, 68, 67
1, 6457, Note_on_c, 0, 54, 60
1, 6457, Note_on_c, 0, 58, 70
1, 6458, Note_on_c, 0, 49, 0
1, 6458, Note_on_c, 0, 61, 67
1, 6458, Note_on_c, 3, 68, 72
1, 6460, Note_on_c, 3, 65, 0
1, 6468, Note_on_c, 2, 61, 0
1, 6468, Note_on_c, 2, 58, 0
1, 6469, Note_on_c, 2, 54, 0
1, 6470, Note_on_c, 2, 63, 0
1, 6478, Note_on_c, 9, 69, 35
1, 6479, Note_on_c, 9, 69, 0
1, 6479, Note_on_c, 1, 32, 70
1, 6479, Note_on_c, 9, 42, 51
1, 6479, Note_on_c, 11, 32, 66
1, 6480, Note_on_c, 9, 42, 0
1, 6480, Note_on_c, 0, 49, 52
1, 6480, Note_on_c, 2, 63, 62
1, 6480, Note_on_c, 2, 61, 59
1, 6480, Note_on_c, 2, 54, 63
1, 6480, Note_on_c, 2, 58, 60
1, 6481, Note_on_c, 0, 63, 0
1, 6482, Note_on_c, 0, 58, 0
1, 6484, Note_on_c, 3, 68, 0
1, 6484, Note_on_c, 0, 61, 0
1, 6486, Note_on_c, 0, 49, 0
1, 6498, Note_on_c, 0, 54, 0
1, 6501, Note_on_c, 1, 32, 0
1, 6501, Note_on_c, 11, 32, 0
1, 6502, Note_on_c, 2, 54, 0
1, 6502, Note_on_c, 2, 63, 0
1, 6502, Note_on_c, 2, 61, 0
1, 6503, Note_on_c, 4, 68, 0
1, 6503, Note_on_c, 1, 35, 88
1, 6503, Note_on_c, 9, 42, 43
1, 6503, Note_on_c, 9, 69, 25
1, 6503, Note_on_c, 11, 35, 84
1, 6504, Note_on_c, 9, 69, 0
1, 6504, Note_on_c, 9, 42, 0
1, 6504, Note_on_c, 2, 61, 76
1, 6504, Note_on_c, 2, 63, 81
1, 6504, Note_on_c, 2, 57, 64
1, 6504, Note_on_c, 2, 54, 63
1, 6504, Note_on_c, 4, 68, 67
1, 6506, Note_on_c, 0, 49, 55
1, 6506, Note_on_c, 3, 68, 86
1, 6521, Note_on_c, 11, 35, 0
1, 6521, Note_on_c, 1, 35, 0
1, 6526, Note_on_c, 2, 54, 0
1, 6526, Note_on_c, 2, 61, 0
1, 6526, Note_on_c, 2, 57, 0
1, 6526, Note_on_c, 2, 63, 0
1, 6527, Note_on_c, 1, 37, 88
1, 6527, Note_on_c, 9, 36, 110
1, 6527, Note_on_c, 9, 42, 87
1, 6527, Note_on_c, 11, 37, 84
1, 6528, Note_on_c, 9, 42, 0
1, 6528, Note_on_c, 9, 36, 0
1, 6528, Note_on_c, 10, 58, 0
1, 6528, Note_on_c, 2, 57, 63
1, 6528, Note_on_c, 2, 63, 77
1, 6528, Note_on_c, 2, 61, 67
1, 6528, Note_on_c, 2, 54, 59
1, 6528, Note_on_c, 10, 57, 58
1, 6529, Note_on_c, 0, 63, 68
1, 6530, Note_on_c, 0, 57, 84
1, 6530, Note_on_c, 0, 61, 68
1, 6530, Note_on_c, 0, 54, 59
1, 6540, Note_on_c, 0, 54, 0
1, 6542, Note_on_c, 0, 61, 0
1, 6543, Note_on_c, 0, 57, 0
1, 6543, Note_on_c, 0, 63, 0
1, 6543, Note_on_c, 0, 49, 0
1, 6544, Note_on_c, 4, 68, 0
1, 6544, Note_on_c, 4, 65, 67
1, 6549, Note_on_c, 3, 65, 74
1, 6551, Note_on_c, 9, 44, 42
1, 6552, Note_on_c, 9, 44, 0
1, 6552, Note_on_c, 0, 63, 55
1, 6553, Note_on_c, 0, 57, 68
1, 6554, Note_on_c, 3, 68, 0
1, 6554, Note_on_c, 0, 54, 53
1, 6554, Note_on_c, 0, 61, 61
1, 6558, Note_on_c, 3, 63, 71
1, 6560, Note_on_c, 4, 65, 0
1, 6560, Note_on_c, 4, 63, 67
1, 6563, Note_on_c, 3, 65, 0
1, 6566, Note_on_c, 1, 37, 0
1, 6566, Note_on_c, 11, 37, 0
1, 6574, Note_on_c, 2, 63, 0
1, 6574, Note_on_c, 2, 57, 0
1, 6574, Note_on_c, 2, 61, 0
1, 6574, Note_on_c, 2, 54, 0
1, 6574, Note_on_c, 0, 63, 0
1, 6574, Note_on_c, 0, 49, 73
1, 6574, Note_on_c, 3, 61, 79
1, 6575, Note_on_c, 9, 69, 34
1, 6575, Note_on_c, 9, 42, 55
1, 6576, Note_on_c, 9, 42, 0
1, 6576, Note_on_c, 9, 69, 0
1, 6576, Note_on_c, 4, 63, 0
1, 6576, Note_on_c, 2, 57, 96
1, 6576, Note_on_c, 2, 61, 96
1, 6576, Note_on_c, 2, 63, 96
1, 6576, Note_on_c, 2, 54, 96
1, 6576, Note_on_c, 4, 61, 68
1, 6577, Note_on_c, 0, 61, 0
1, 6578, Note_on_c, 0, 57, 0
1, 6579, Note_on_c, 3, 63, 0
1, 6581, Note_on_c, 0, 54, 0
1, 6582, Note_on_c, 2, 58, 0
1, 6582, Note_on_c, 2, 61, 0
1, 6582, Note_on_c, 2, 63, 0
1, 6584, Note_on_c, 2, 57, 0
1, 6586, Note_on_c, 2, 54, 0
1, 6598, Note_on_c, 0, 63, 62
1, 6599, Note_on_c, 0, 54, 57
1, 6599, Note_on_c, 0, 57, 77
1, 6599, Note_on_c, 9, 42, 54
1, 6600, Note_on_c, 9, 42, 0
1, 6600, Note_on_c, 0, 61, 61
1, 6600, Note_on_c, 2, 61, 61
1, 6600, Note_on_c, 2, 57, 62
1, 6600, Note_on_c, 2, 54, 59
1, 6600, Note_on_c, 2, 63, 59
1, 6600, Note_on_c, 9, 69, 27
1, 6601, Note_on_c, 9, 69, 0
1, 6619, Note_on_c, 0, 63, 0
1, 6622, Note_on_c, 2, 57, 0
1, 6622, Note_on_c, 0, 57, 0
1, 6622, Note_on_c, 2, 63, 0
1, 6622, Note_on_c, 2, 61, 0
1, 6622, Note_on_c, 2, 54, 0
1, 6623, Note_on_c, 0, 61, 0
1, 6623, Note_on_c, 9, 42, 94
1, 6623, Note_on_c, 9, 40, 104
1, 6624, Note_on_c, 9, 40, 0
1, 6624, Note_on_c, 9, 42, 0
1, 6624, Note_on_c, 0, 54, 0
1, 6624, Note_on_c, 2, 61, 58
1, 6624, Note_on_c, 2, 54, 62
1, 6624, Note_on_c, 2, 63, 53
1, 6624, Note_on_c, 2, 57, 58
1, 6624, Note_on_c, 9, 75, 79
1, 6625, Note_on_c, 9, 75, 0
1, 6634, Note_on_c, 3, 61, 0
1, 6646, Note_on_c, 2, 54, 0
1, 6646, Note_on_c, 2, 57, 0
1, 6646, Note_on_c, 2, 61, 0
1, 6646, Note_on_c, 2, 63, 0
1, 6646, Note_on_c, 0, 63, 64
1, 6647, Note_on_c, 0, 57, 80
1, 6647, Note_on_c, 9, 44, 43
1, 6648, Note_on_c, 9, 44, 0
1, 6648, Note_on_c, 4, 61, 0
1, 6648, Note_on_c, 0, 54, 60
1, 6648, Note_on_c, 0, 61, 66
1, 6648, Note_on_c, 2, 63, 60
1, 6648, Note_on_c, 2, 54, 60
1, 6648, Note_on_c, 2, 61, 61
1, 6648, Note_on_c, 2, 57, 62
1, 6648, Note_on_c, 4, 64, 69
1, 6650, Note_on_c, 0, 49, 0
1, 6650, Note_on_c, 3, 64, 91
1, 6656, Note_on_c, 2, 61, 0
1, 6657, Note_on_c, 2, 57, 0
1, 6658, Note_on_c, 2, 54, 0
1, 6658, Note_on_c, 2, 63, 0
1, 6666, Note_on_c, 0, 63, 0
1, 6670, Note_on_c, 0, 57, 0
1, 6670, Note_on_c, 0, 54, 0
1, 6670, Note_on_c, 9, 69, 37
1, 6671, Note_on_c, 9, 69, 0
1, 6671, Note_on_c, 9, 42, 44
1, 6672, Note_on_c, 9, 42, 0
1, 6672, Note_on_c, 0, 61, 0
1, 6672, Note_on_c, 4, 64, 0
1, 6672, Note_on_c, 2, 54, 61
1, 6672, Note_on_c, 2, 57, 59
1, 6672, Note_on_c, 2, 63, 61
1, 6672, Note_on_c, 2, 61, 64
1, 6672, Note_on_c, 4, 63, 69
1, 6673, Note_on_c, 3, 64, 0
1, 6673, Note_on_c, 3, 63, 79
1, 6688, Note_on_c, 2, 61, 0
1, 6688, Note_on_c, 2, 54, 0
1, 6690, Note_on_c, 3, 63, 0
1, 6690, Note_on_c, 2, 63, 0
1, 6694, Note_on_c, 2, 57, 0
1, 6694, Note_on_c, 1, 32, 72
1, 6694, Note_on_c, 11, 32, 68
1, 6695, Note_on_c, 4, 63, 0
1, 6695, Note_on_c, 9, 69, 33
1, 6695, Note_on_c, 9, 42, 55
1, 6696, Note_on_c, 9, 42, 0
1, 6696, Note_on_c, 9, 69, 0
1, 6696, Note_on_c, 0, 49, 57
1, 6696, Note_on_c, 2, 63, 76
1, 6696, Note_on_c, 2, 54, 69
1, 6696, Note_on_c, 2, 57, 67
1, 6696, Note_on_c, 2, 61, 81
1, 6696, Note_on_c, 4, 63, 69
1, 6697, Note_on_c, 9, 36, 105
1, 6698, Note_on_c, 9, 36, 0
1, 6699, Note_on_c, 3, 63, 86
1, 6715, Note_on_c, 11, 32, 0
1, 6715, Note_on_c, 1, 32, 0
1, 6716, Note_on_c, 0, 63, 65
1, 6717, Note_on_c, 0, 57, 79
1, 6717, Note_on_c, 0, 54, 59
1, 6718, Note_on_c, 2, 61, 0
1, 6718, Note_on_c, 2, 63, 0
1, 6718, Note_on_c, 2, 57, 0
1, 6718, Note_on_c, 2, 54, 0
1, 6718, Note_on_c, 0, 61, 67
1, 6718, Note_on_c, 1, 37, 85
1, 6718, Note_on_c, 11, 37, 81
1, 6719, Note_on_c, 9, 42, 78
1, 6719, Note_on_c, 9, 36, 69
1, 6720, Note_on_c, 9, 36, 0
1, 6720, Note_on_c, 9, 42, 0
1, 6720, Note_on_c, 2, 61, 56
1, 6720, Note_on_c, 2, 57, 56
1, 6720, Note_on_c, 2, 54, 63
1, 6720, Note_on_c, 2, 63, 65
1, 6730, Note_on_c, 0, 49, 0
1, 6736, Note_on_c, 4, 63, 0
1, 6736, Note_on_c, 4, 64, 69
1, 6737, Note_on_c, 3, 63, 0
1, 6738, Note_on_c, 0, 61, 0
1, 6738, Note_on_c, 0, 63, 0
1, 6739, Note_on_c, 0, 54, 0
1, 6740, Note_on_c, 0, 57, 0
1, 6740, Note_on_c, 3, 64, 68
1, 6741, Note_on_c, 11, 37, 0
1, 6741, Note_on_c, 1, 37, 0
1, 6742, Note_on_c, 1, 32, 68
1, 6742, Note_on_c, 11, 32, 64
1, 6743, Note_on_c, 9, 44, 49
1, 6744, Note_on_c, 9, 44, 0
1, 6750, Note_on_c, 3, 63, 67
1, 6752, Note_on_c, 4, 64, 0
1, 6752, Note_on_c, 3, 64, 0
1, 6752, Note_on_c, 4, 63, 68
1, 6761, Note_on_c, 2, 57, 0
1, 6761, Note_on_c, 3, 61, 79
1, 6762, Note_on_c, 2, 63, 0
1, 6762, Note_on_c, 2, 54, 0
1, 6764, Note_on_c, 2, 61, 0
1, 6765, Note_on_c, 1, 32, 0
1, 6765, Note_on_c, 11, 32, 0
1, 6766, Note_on_c, 3, 63, 0
1, 6766, Note_on_c, 0, 63, 68
1, 6766, Note_on_c, 0, 57, 84
1, 6766, Note_on_c, 1, 37, 88
1, 6766, Note_on_c, 9, 69, 37
1, 6766, Note_on_c, 11, 37, 84
1, 6767, Note_on_c, 9, 69, 0
1, 6767, Note_on_c, 0, 54, 61
1, 6767, Note_on_c, 9, 36, 107
1, 6767, Note_on_c, 9, 42, 46
1, 6768, Note_on_c, 9, 42, 0
1, 6768, Note_on_c, 9, 36, 0
1, 6768, Note_on_c, 4, 63, 0
1, 6768, Note_on_c, 0, 61, 68
1, 6768, Note_on_c, 2, 57, 99
1, 6768, Note_on_c, 2, 63, 99
1, 6768, Note_on_c, 2, 61, 99
1, 6768, Note_on_c, 2, 54, 99
1, 6768, Note_on_c, 4, 61, 68
1, 6774, Note_on_c, 2, 61, 0
1, 6774, Note_on_c, 2, 63, 0
1, 6776, Note_on_c, 2, 57, 0
1, 6780, Note_on_c, 2, 54, 0
1, 6790, Note_on_c, 9, 69, 27
1, 6791, Note_on_c, 9, 69, 0
1, 6791, Note_on_c, 9, 42, 42
1, 6792, Note_on_c, 9, 42, 0
1, 6792, Note_on_c, 2, 63, 60
1, 6792, Note_on_c, 2, 61, 62
1, 6792, Note_on_c, 2, 54, 61
1, 6792, Note_on_c, 2, 57, 60
1, 6801, Note_on_c, 11, 37, 0
1, 6801, Note_on_c, 1, 37, 0
1, 6804, Note_on_c, 0, 63, 0
1, 6806, Note_on_c, 0, 57, 0
1, 6806, Note_on_c, 0, 54, 0
1, 6810, Note_on_c, 0, 61, 0
1, 6814, Note_on_c, 2, 61, 0
1, 6814, Note_on_c, 2, 63, 0
1, 6814, Note_on_c, 2, 54, 0
1, 6814, Note_on_c, 0, 49, 81
1, 6815, Note_on_c, 9, 40, 107
1, 6816, Note_on_c, 9, 40, 0
1, 6816, Note_on_c, 10, 63, 0
1, 6816, Note_on_c, 2, 61, 54
1, 6816, Note_on_c, 2, 54, 60
1, 6816, Note_on_c, 2, 63, 54
1, 6816, Note_on_c, 9, 42, 87
1, 6816, Note_on_c, 9, 75, 79
1, 6816, Note_on_c, 10, 64, 67
1, 6817, Note_on_c, 9, 75, 0
1, 6817, Note_on_c, 9, 42, 0
1, 6826, Note_on_c, 0, 49, 0
1, 6834, Note_on_c, 2, 54, 0
1, 6834, Note_on_c, 2, 61, 0
1, 6834, Note_on_c, 2, 57, 0
1, 6834, Note_on_c, 2, 63, 0
1, 6838, Note_on_c, 0, 64, 80
1, 6838, Note_on_c, 0, 54, 68
1, 6838, Note_on_c, 0, 61, 68
1, 6838, Note_on_c, 0, 57, 87
1, 6839, Note_on_c, 9, 44, 44
1, 6840, Note_on_c, 9, 44, 0
1, 6840, Note_on_c, 2, 64, 81
1, 6840, Note_on_c, 2, 54, 61
1, 6840, Note_on_c, 2, 57, 65
1, 6840, Note_on_c, 2, 61, 63
1, 6854, Note_on_c, 3, 61, 0
1, 6862, Note_on_c, 0, 54, 0
1, 6862, Note_on_c, 9, 69, 39
1, 6863, Note_on_c, 9, 69, 0
1, 6863, Note_on_c, 0, 64, 0
1, 6863, Note_on_c, 1, 32, 74
1, 6863, Note_on_c, 9, 42, 48
1, 6863, Note_on_c, 11, 32, 70
1, 6864, Note_on_c, 9, 42, 0
1, 6864, Note_on_c, 0, 57, 0
1, 6866, Note_on_c, 0, 61, 0
1, 6886, Note_on_c, 1, 32, 0
1, 6886, Note_on_c, 11, 32, 0
1, 6887, Note_on_c, 1, 35, 92
1, 6887, Note_on_c, 9, 69, 27
1, 6887, Note_on_c, 9, 42, 43
1, 6887, Note_on_c, 11, 35, 88
1, 6888, Note_on_c, 9, 42, 0
1, 6888, Note_on_c, 9, 69, 0
1, 6888, Note_on_c, 2, 60, 64
1, 6888, Note_on_c, 2, 65, 71
1, 6889, Note_on_c, 0, 49, 69
1, 6900, Note_on_c, 0, 49, 0
1, 6902, Note_on_c, 2, 64, 0
1, 6904, Note_on_c, 2, 61, 0
1, 6906, Note_on_c, 2, 54, 0
1, 6906, Note_on_c, 2, 60, 0
1, 6906, Note_on_c, 2, 57, 0
1, 6907, Note_on_c, 1, 35, 0
1, 6907, Note_on_c, 11, 35, 0
1, 6908, Note_on_c, 2, 65, 0
1, 6910, Note_on_c, 0, 65, 70
1, 6910, Note_on_c, 0, 56, 66
1, 6911, Note_on_c, 0, 63, 71
1, 6911, Note_on_c, 0, 60, 81
1, 6911, Note_on_c, 1, 37, 97
1, 6911, Note_on_c, 9, 36, 115
1, 6911, Note_on_c, 9, 42, 87
1, 6911, Note_on_c, 11, 37, 93
1, 6912, Note_on_c, 9, 42, 0
1, 6912, Note_on_c, 4, 61, 0
1, 6912, Note_on_c, 10, 64, 0
1, 6912, Note_on_c, 10, 61, 0
1, 6912, Note_on_c, 10, 54, 0
1, 6912, Note_on_c, 9, 36, 0
1, 6912, Note_on_c, 10, 57, 0
1, 6912, Note_on_c, 2, 65, 70
1, 6912, Note_on_c, 2, 60, 74
1, 6912, Note_on_c, 2, 56, 61
1, 6912, Note_on_c, 4, 70, 68
1, 6912, Note_on_c, 10, 60, 43
1, 6912, Note_on_c, 10, 63, 53
1, 6912, Note_on_c, 10, 53, 47
1, 6912, Note_on_c, 10, 56, 61
1, 6914, Note_on_c, 3, 70, 97
1, 6928, Note_on_c, 0, 60, 0
1, 6929, Note_on_c, 0, 63, 0
1, 6935, Note_on_c, 9, 44, 41
1, 6936, Note_on_c, 9, 44, 0
1, 6936, Note_on_c, 0, 60, 69
1, 6936, Note_on_c, 0, 63, 66
1, 6950, Note_on_c, 1, 37, 0
1, 6950, Note_on_c, 11, 37, 0
1, 6956, Note_on_c, 0, 60, 0
1, 6958, Note_on_c, 2, 56, 0
1, 6958, Note_on_c, 2, 60, 0
1, 6958, Note_on_c, 2, 65, 0
1, 6958, Note_on_c, 0, 63, 0
1, 6958, Note_on_c, 9, 69, 46
1, 6959, Note_on_c, 9, 69, 0
1, 6959, Note_on_c, 0, 49, 81
1, 6959, Note_on_c, 9, 42, 52
1, 6960, Note_on_c, 9, 42, 0
1, 6960, Note_on_c, 3, 70, 0
1, 6960, Note_on_c, 4, 70, 0
1, 6960, Note_on_c, 2, 56, 102
1, 6960, Note_on_c, 2, 60, 102
1, 6960, Note_on_c, 2, 65, 102
1, 6960, Note_on_c, 3, 65, 82
1, 6960, Note_on_c, 4, 65, 70
1, 6961, Note_on_c, 0, 65, 0
1, 6962, Note_on_c, 0, 56, 0
1, 6968, Note_on_c, 2, 60, 0
1, 6969, Note_on_c, 2, 56, 0
1, 6972, Note_on_c, 2, 65, 0
1, 6983, Note_on_c, 0, 60, 73
1, 6983, Note_on_c, 0, 65, 64
1, 6983, Note_on_c, 9, 42, 45
1, 6983, Note_on_c, 9, 69, 33
1, 6984, Note_on_c, 9, 69, 0
1, 6984, Note_on_c, 9, 42, 0
1, 6984, Note_on_c, 0, 49, 0
1, 6984, Note_on_c, 4, 65, 0
1, 6984, Note_on_c, 0, 56, 60
1, 6984, Note_on_c, 2, 56, 58
1, 6984, Note_on_c, 2, 60, 62
1, 6984, Note_on_c, 2, 65, 56
1, 6984, Note_on_c, 2, 53, 58
1, 6984, Note_on_c, 4, 68, 70
1, 6985, Note_on_c, 0, 63, 68
1, 6986, Note_on_c, 3, 68, 71
1, 6990, Note_on_c, 3, 65, 0
1, 7004, Note_on_c, 2, 60, 0
1, 7004, Note_on_c, 0, 63, 0
1, 7005, Note_on_c, 2, 56, 0
1, 7005, Note_on_c, 2, 53, 0
1, 7006, Note_on_c, 0, 60, 0
1, 7006, Note_on_c, 2, 65, 0
1, 7007, Note_on_c, 9, 42, 81
1, 7007, Note_on_c, 9, 40, 101
1, 7007, Note_on_c, 9, 75, 74
1, 7008, Note_on_c, 9, 75, 0
1, 7008, Note_on_c, 9, 40, 0
1, 7008, Note_on_c, 9, 42, 0
1, 7008, Note_on_c, 2, 65, 56
1, 7008, Note_on_c, 2, 60, 58
1, 7008, Note_on_c, 2, 53, 58
1, 7008, Note_on_c, 2, 56, 57
1, 7010, Note_on_c, 0, 56, 0
1, 7018, Note_on_c, 0, 65, 0
1, 7030, Note_on_c, 2, 65, 0
1, 7030, Note_on_c, 2, 53, 0
1, 7030, Note_on_c, 2, 60, 0
1, 7030, Note_on_c, 2, 56, 0
1, 7031, Note_on_c, 9, 44, 48
1, 7032, Note_on_c, 9, 44, 0
1, 7032, Note_on_c, 4, 68, 0
1, 7032, Note_on_c, 2, 56, 58
1, 7032, Note_on_c, 2, 53, 61
1, 7032, Note_on_c, 2, 65, 60
1, 7032, Note_on_c, 2, 60, 64
1, 7032, Note_on_c, 4, 70, 70
1, 7033, Note_on_c, 3, 68, 0
1, 7033, Note_on_c, 0, 63, 67
1, 7033, Note_on_c, 0, 60, 73
1, 7033, Note_on_c, 0, 65, 65
1, 7033, Note_on_c, 3, 70, 84
1, 7034, Note_on_c, 0, 56, 59
1, 7038, Note_on_c, 2, 56, 0
1, 7040, Note_on_c, 2, 60, 0
1, 7041, Note_on_c, 2, 65, 0
1, 7041, Note_on_c, 2, 53, 0
1, 7050, Note_on_c, 0, 60, 0
1, 7052, Note_on_c, 0, 63, 0
1, 7053, Note_on_c, 0, 65, 0
1, 7053, Note_on_c, 0, 49, 60
1, 7055, Note_on_c, 9, 69, 41
1, 7055, Note_on_c, 9, 42, 48
1, 7056, Note_on_c, 9, 42, 0
1, 7056, Note_on_c, 9, 69, 0
1, 7056, Note_on_c, 2, 60, 58
1, 7056, Note_on_c, 2, 56, 62
1, 7056, Note_on_c, 2, 65, 59
1, 7058, Note_on_c, 0, 56, 0
1, 7058, Note_on_c, 0, 49, 0
1, 7070, Note_on_c, 2, 65, 0
1, 7076, Note_on_c, 3, 70, 0
1, 7078, Note_on_c, 2, 60, 0
1, 7079, Note_on_c, 1, 32, 69
1, 7079, Note_on_c, 9, 42, 42
1, 7079, Note_on_c, 9, 36, 104
1, 7079, Note_on_c, 11, 32, 65
1, 7080, Note_on_c, 9, 36, 0
1, 7080, Note_on_c, 9, 42, 0
1, 7080, Note_on_c, 2, 53, 60
1, 7080, Note_on_c, 2, 60, 65
1, 7080, Note_on_c, 2, 65, 67
1, 7080, Note_on_c, 9, 69, 33
1, 7081, Note_on_c, 9, 69, 0
1, 7081, Note_on_c, 0, 49, 69
1, 7091, Note_on_c, 0, 49, 0
1, 7096, Note_on_c, 11, 32, 0
1, 7096, Note_on_c, 1, 32, 0
1, 7100, Note_on_c, 2, 53, 0
1, 7101, Note_on_c, 2, 65, 0
1, 7101, Note_on_c, 2, 60, 0
1, 7101, Note_on_c, 2, 56, 0
1, 7102, Note_on_c, 0, 56, 63
1, 7102, Note_on_c, 0, 60, 80
1, 7102, Note_on_c, 0, 65, 69
1, 7102, Note_on_c, 0, 63, 67
1, 7103, Note_on_c, 1, 37, 81
1, 7103, Note_on_c, 9, 36, 67
1, 7103, Note_on_c, 11, 37, 77
1, 7104, Note_on_c, 9, 36, 0
1, 7104, Note_on_c, 2, 60, 75
1, 7104, Note_on_c, 2, 56, 48
1, 7104, Note_on_c, 2, 65, 87
1, 7104, Note_on_c, 2, 53, 52
1, 7104, Note_on_c, 9, 42, 83
1, 7105, Note_on_c, 9, 42, 0
1, 7114, Note_on_c, 0, 63, 0
1, 7122, Note_on_c, 0, 60, 0
1, 7125, Note_on_c, 0, 56, 0
1, 7126, Note_on_c, 1, 37, 0
1, 7126, Note_on_c, 11, 37, 0
1, 7126, Note_on_c, 1, 32, 56
1, 7126, Note_on_c, 11, 32, 52
1, 7127, Note_on_c, 9, 44, 42
1, 7128, Note_on_c, 9, 44, 0
1, 7138, Note_on_c, 0, 65, 0
1, 7150, Note_on_c, 1, 32, 0
1, 7150, Note_on_c, 2, 56, 0
1, 7150, Note_on_c, 2, 65, 0
1, 7150, Note_on_c, 2, 60, 0
1, 7150, Note_on_c, 11, 32, 0
1, 7150, Note_on_c, 2, 53, 0
1, 7150, Note_on_c, 0, 65, 63
1, 7150, Note_on_c, 0, 60, 79
1, 7150, Note_on_c, 9, 69, 41
1, 7151, Note_on_c, 9, 69, 0
1, 7151, Note_on_c, 0, 56, 58
1, 7151, Note_on_c, 1, 37, 82
1, 7151, Note_on_c, 9, 42, 46
1, 7151, Note_on_c, 9, 36, 105
1, 7151, Note_on_c, 11, 37, 78
1, 7152, Note_on_c, 9, 36, 0
1, 7152, Note_on_c, 9, 42, 0
1, 7152, Note_on_c, 0, 63, 68
1, 7152, Note_on_c, 2, 53, 103
1, 7152, Note_on_c, 2, 60, 103
1, 7152, Note_on_c, 2, 56, 103
1, 7152, Note_on_c, 2, 65, 103
1, 7157, Note_on_c, 2, 56, 0
1, 7158, Note_on_c, 2, 65, 0
1, 7158, Note_on_c, 2, 60, 0
1, 7162, Note_on_c, 2, 53, 0
1, 7174, Note_on_c, 9, 69, 23
1, 7175, Note_on_c, 9, 69, 0
1, 7175, Note_on_c, 9, 42, 55
1, 7176, Note_on_c, 9, 42, 0
1, 7176, Note_on_c, 2, 65, 63
1, 7176, Note_on_c, 2, 60, 64
1, 7176, Note_on_c, 2, 56, 59
1, 7176, Note_on_c, 2, 53, 60
1, 7181, Note_on_c, 11, 37, 0
1, 7181, Note_on_c, 1, 37, 0
1, 7197, Note_on_c, 2, 65, 0
1, 7198, Note_on_c, 2, 60, 0
1, 7198, Note_on_c, 2, 53, 0
1, 7198, Note_on_c, 0, 49, 80
1, 7198, Note_on_c, 3, 65, 105
1, 7199, Note_on_c, 0, 60, 0
1, 7199, Note_on_c, 9, 42, 81
1, 7199, Note_on_c, 9, 40, 105
1, 7199, Note_on_c, 9, 75, 79
1, 7200, Note_on_c, 9, 75, 0
1, 7200, Note_on_c, 9, 40, 0
1, 7200, Note_on_c, 4, 70, 0
1, 7200, Note_on_c, 9, 42, 0
1, 7200, Note_on_c, 2, 65, 63
1, 7200, Note_on_c, 2, 53, 43
1, 7200, Note_on_c, 2, 60, 61
1, 7200, Note_on_c, 4, 65, 68
1, 7202, Note_on_c, 0, 63, 0
1, 7203, Note_on_c, 0, 65, 0
1, 7204, Note_on_c, 0, 56, 0
1, 7219, Note_on_c, 0, 49, 0
1, 7222, Note_on_c, 2, 53, 0
1, 7222, Note_on_c, 2, 65, 0
1, 7222, Note_on_c, 2, 60, 0
1, 7222, Note_on_c, 2, 56, 0
1, 7222, Note_on_c, 0, 65, 62
1, 7222, Note_on_c, 0, 60, 75
1, 7222, Note_on_c, 0, 63, 68
1, 7222, Note_on_c, 0, 56, 63
1, 7222, Note_on_c, 3, 68, 83
1, 7223, Note_on_c, 9, 44, 46
1, 7224, Note_on_c, 9, 44, 0
1, 7224, Note_on_c, 4, 65, 0
1, 7224, Note_on_c, 2, 65, 61
1, 7224, Note_on_c, 2, 56, 58
1, 7224, Note_on_c, 2, 60, 63
1, 7224, Note_on_c, 2, 53, 59
1, 7224, Note_on_c, 4, 68, 68
1, 7227, Note_on_c, 3, 65, 0
1, 7230, Note_on_c, 2, 56, 0
1, 7232, Note_on_c, 2, 60, 0
1, 7233, Note_on_c, 2, 65, 0
1, 7234, Note_on_c, 2, 53, 0
1, 7239, Note_on_c, 0, 65, 0
1, 7243, Note_on_c, 0, 63, 0
1, 7244, Note_on_c, 0, 60, 0
1, 7245, Note_on_c, 0, 49, 49
1, 7246, Note_on_c, 3, 70, 96
1, 7246, Note_on_c, 9, 69, 46
1, 7247, Note_on_c, 9, 69, 0
1, 7247, Note_on_c, 3, 68, 0
1, 7247, Note_on_c, 1, 32, 81
1, 7247, Note_on_c, 9, 42, 45
1, 7247, Note_on_c, 11, 32, 77
1, 7248, Note_on_c, 9, 42, 0
1, 7248, Note_on_c, 4, 68, 0
1, 7248, Note_on_c, 2, 56, 63
1, 7248, Note_on_c, 2, 65, 63
1, 7248, Note_on_c, 2, 60, 61
1, 7248, Note_on_c, 4, 70, 68
1, 7252, Note_on_c, 0, 49, 0
1, 7256, Note_on_c, 0, 56, 0
1, 7266, Note_on_c, 2, 56, 0
1, 7268, Note_on_c, 2, 60, 0
1, 7270, Note_on_c, 1, 32, 0
1, 7270, Note_on_c, 11, 32, 0
1, 7270, Note_on_c, 9, 69, 27
1, 7271, Note_on_c, 9, 69, 0
1, 7271, Note_on_c, 1, 34, 80
1, 7271, Note_on_c, 9, 42, 47
1, 7271, Note_on_c, 11, 34, 76
1, 7272, Note_on_c, 9, 42, 0
1, 7272, Note_on_c, 3, 70, 0
1, 7272, Note_on_c, 4, 70, 0
1, 7272, Note_on_c, 2, 53, 54
1, 7272, Note_on_c, 2, 59, 59
1, 7272, Note_on_c, 2, 56, 58
1, 7272, Note_on_c, 2, 63, 58
1, 7272, Note_on_c, 4, 73, 67
1, 7273, Note_on_c, 3, 73, 89
1, 7274, Note_on_c, 0, 49, 52
1, 7290, Note_on_c, 0, 49, 0
1, 7292, Note_on_c, 2, 63, 0
1, 7293, Note_on_c, 2, 59, 0
1, 7294, Note_on_c, 2, 56, 0
1, 7294, Note_on_c, 2, 53, 0
1, 7295, Note_on_c, 1, 34, 0
1, 7295, Note_on_c, 11, 34, 0
1, 7295, Note_on_c, 1, 37, 84
1, 7295, Note_on_c, 9, 36, 115
1, 7295, Note_on_c, 11, 37, 80
1, 7296, Note_on_c, 9, 36, 0
1, 7296, Note_on_c, 10, 60, 0
1, 7296, Note_on_c, 2, 56, 53
1, 7296, Note_on_c, 2, 53, 54
1, 7296, Note_on_c, 2, 59, 71
1, 7296, Note_on_c, 2, 63, 68
1, 7296, Note_on_c, 10, 59, 61
1, 7297, Note_on_c, 0, 53, 71
1, 7297, Note_on_c, 0, 63, 62
1, 7297, Note_on_c, 9, 42, 81
1, 7298, Note_on_c, 9, 42, 0
1, 7298, Note_on_c, 0, 59, 84
1, 7298, Note_on_c, 0, 56, 68
1, 7310, Note_on_c, 0, 56, 0
1, 7310, Note_on_c, 0, 59, 0
1, 7318, Note_on_c, 0, 56, 55
1, 7320, Note_on_c, 9, 44, 46
1, 7321, Note_on_c, 9, 44, 0
1, 7321, Note_on_c, 0, 59, 58
1, 7331, Note_on_c, 1, 37, 0
1, 7331, Note_on_c, 11, 37, 0
1, 7334, Note_on_c, 0, 59, 0
1, 7338, Note_on_c, 2, 65, 0
1, 7342, Note_on_c, 0, 56, 0
1, 7342, Note_on_c, 2, 56, 0
1, 7342, Note_on_c, 2, 59, 0
1, 7342, Note_on_c, 2, 53, 0
1, 7342, Note_on_c, 2, 63, 0
1, 7342, Note_on_c, 0, 53, 0
1, 7342, Note_on_c, 0, 49, 54
1, 7342, Note_on_c, 9, 69, 39
1, 7343, Note_on_c, 9, 69, 0
1, 7343, Note_on_c, 9, 42, 57
1, 7344, Note_on_c, 9, 42, 0
1, 7344, Note_on_c, 2, 56, 63
1, 7344, Note_on_c, 2, 59, 104
1, 7344, Note_on_c, 2, 63, 100
1, 7344, Note_on_c, 2, 53, 74
1, 7349, Note_on_c, 2, 56, 0
1, 7350, Note_on_c, 2, 63, 0
1, 7350, Note_on_c, 2, 59, 0
1, 7350, Note_on_c, 0, 63, 0
1, 7354, Note_on_c, 2, 53, 0
1, 7362, Note_on_c, 0, 49, 0
1, 7365, Note_on_c, 0, 63, 58
1, 7366, Note_on_c, 0, 53, 67
1, 7366, Note_on_c, 0, 59, 81
1, 7366, Note_on_c, 0, 56, 68
1, 7367, Note_on_c, 9, 69, 33
1, 7367, Note_on_c, 9, 42, 46
1, 7368, Note_on_c, 9, 42, 0
1, 7368, Note_on_c, 9, 69, 0
1, 7368, Note_on_c, 2, 53, 53
1, 7368, Note_on_c, 2, 56, 59
1, 7368, Note_on_c, 2, 63, 62
1, 7368, Note_on_c, 2, 59, 69
1, 7388, Note_on_c, 2, 56, 0
1, 7388, Note_on_c, 3, 73, 0
1, 7389, Note_on_c, 2, 53, 0
1, 7390, Note_on_c, 0, 59, 0
1, 7390, Note_on_c, 0, 56, 0
1, 7390, Note_on_c, 2, 63, 0
1, 7390, Note_on_c, 2, 59, 0
1, 7390, Note_on_c, 0, 49, 48
1, 7391, Note_on_c, 0, 53, 0
1, 7391, Note_on_c, 9, 75, 76
1, 7392, Note_on_c, 9, 75, 0
1, 7392, Note_on_c, 2, 59, 58
1, 7392, Note_on_c, 2, 63, 59
1, 7392, Note_on_c, 2, 53, 62
1, 7392, Note_on_c, 2, 56, 58
1, 7392, Note_on_c, 9, 42, 91
1, 7392, Note_on_c, 9, 40, 107
1, 7393, Note_on_c, 9, 40, 0
1, 7393, Note_on_c, 9, 42, 0
1, 7400, Note_on_c, 0, 63, 0
1, 7402, Note_on_c, 0, 49, 0
1, 7414, Note_on_c, 2, 53, 0
1, 7414, Note_on_c, 2, 63, 0
1, 7414, Note_on_c, 2, 59, 0
1, 7414, Note_on_c, 2, 56, 0
1, 7414, Note_on_c, 0, 63, 57
1, 7414, Note_on_c, 0, 59, 81
1, 7414, Note_on_c, 0, 56, 69
1, 7414, Note_on_c, 0, 53, 68
1, 7415, Note_on_c, 9, 44, 42
1, 7416, Note_on_c, 9, 44, 0
1, 7416, Note_on_c, 2, 56, 62
1, 7416, Note_on_c, 2, 63, 61
1, 7416, Note_on_c, 2, 53, 60
1, 7416, Note_on_c, 2, 59, 63
1, 7424, Note_on_c, 2, 59, 0
1, 7424, Note_on_c, 2, 56, 0
1, 7425, Note_on_c, 2, 63, 0
1, 7425, Note_on_c, 2, 53, 0
1, 7430, Note_on_c, 0, 56, 0
1, 7432, Note_on_c, 0, 59, 0
1, 7435, Note_on_c, 0, 49, 53
1, 7437, Note_on_c, 3, 70, 95
1, 7439, Note_on_c, 9, 69, 37
1, 7440, Note_on_c, 9, 69, 0
1, 7440, Note_on_c, 4, 73, 0
1, 7440, Note_on_c, 2, 59, 58
1, 7440, Note_on_c, 2, 53, 56
1, 7440, Note_on_c, 2, 63, 58
1, 7440, Note_on_c, 2, 56, 48
1, 7440, Note_on_c, 4, 70, 66
1, 7440, Note_on_c, 9, 42, 49
1, 7441, Note_on_c, 9, 42, 0
1, 7442, Note_on_c, 0, 49, 0
1, 7444, Note_on_c, 0, 53, 0
1, 7447, Note_on_c, 0, 63, 0
1, 7460, Note_on_c, 2, 56, 0
1, 7461, Note_on_c, 2, 59, 0
1, 7461, Note_on_c, 2, 53, 0
1, 7462, Note_on_c, 3, 70, 0
1, 7462, Note_on_c, 2, 63, 0
1, 7462, Note_on_c, 0, 49, 48
1, 7463, Note_on_c, 1, 32, 72
1, 7463, Note_on_c, 3, 68, 84
1, 7463, Note_on_c, 9, 42, 38
1, 7463, Note_on_c, 9, 69, 27
1, 7463, Note_on_c, 11, 32, 68
1, 7464, Note_on_c, 9, 69, 0
1, 7464, Note_on_c, 9, 42, 0
1, 7464, Note_on_c, 4, 70, 0
1, 7464, Note_on_c, 2, 63, 64
1, 7464, Note_on_c, 2, 59, 74
1, 7464, Note_on_c, 2, 53, 59
1, 7464, Note_on_c, 2, 56, 65
1, 7464, Note_on_c, 4, 68, 66
1, 7465, Note_on_c, 9, 36, 93
1, 7466, Note_on_c, 9, 36, 0
1, 7482, Note_on_c, 11, 32, 0
1, 7482, Note_on_c, 1, 32, 0
1, 7484, Note_on_c, 0, 63, 75
1, 7484, Note_on_c, 0, 53, 80
1, 7484, Note_on_c, 0, 59, 89
1, 7484, Note_on_c, 0, 56, 84
1, 7486, Note_on_c, 2, 53, 0
1, 7486, Note_on_c, 2, 59, 0
1, 7486, Note_on_c, 2, 63, 0
1, 7486, Note_on_c, 1, 37, 82
1, 7486, Note_on_c, 11, 37, 78
1, 7487, Note_on_c, 0, 49, 0
1, 7487, Note_on_c, 9, 36, 65
1, 7488, Note_on_c, 9, 36, 0
1, 7488, Note_on_c, 2, 53, 58
1, 7488, Note_on_c, 2, 63, 67
1, 7488, Note_on_c, 2, 59, 65
1, 7489, Note_on_c, 9, 42, 86
1, 7490, Note_on_c, 9, 42, 0
1, 7495, Note_on_c, 3, 68, 0
1, 7498, Note_on_c, 0, 59, 0
1, 7502, Note_on_c, 0, 56, 0
1, 7506, Note_on_c, 0, 53, 0
1, 7506, Note_on_c, 0, 63, 0
1, 7508, Note_on_c, 11, 37, 0
1, 7508, Note_on_c, 1, 37, 0
1, 7509, Note_on_c, 3, 68, 91
1, 7511, Note_on_c, 4, 68, 0
1, 7511, Note_on_c, 1, 32, 72
1, 7511, Note_on_c, 11, 32, 68
1, 7512, Note_on_c, 4, 68, 66
1, 7513, Note_on_c, 9, 44, 47
1, 7514, Note_on_c, 9, 44, 0
1, 7526, Note_on_c, 2, 56, 0
1, 7534, Note_on_c, 11, 32, 0
1, 7534, Note_on_c, 2, 59, 0
1, 7534, Note_on_c, 1, 32, 0
1, 7534, Note_on_c, 2, 63, 0
1, 7534, Note_on_c, 2, 53, 0
1, 7534, Note_on_c, 0, 56, 67
1, 7534, Note_on_c, 0, 53, 68
1, 7534, Note_on_c, 0, 63, 62
1, 7534, Note_on_c, 0, 59, 81
1, 7534, Note_on_c, 1, 37, 90
1, 7534, Note_on_c, 11, 37, 86
1, 7535, Note_on_c, 3, 68, 0
1, 7535, Note_on_c, 9, 69, 43
1, 7536, Note_on_c, 9, 69, 0
1, 7536, Note_on_c, 4, 68, 0
1, 7536, Note_on_c, 2, 59, 104
1, 7536, Note_on_c, 2, 56, 69
1, 7536, Note_on_c, 2, 63, 104
1, 7536, Note_on_c, 2, 53, 69
1, 7536, Note_on_c, 3, 65, 80
1, 7536, Note_on_c, 4, 65, 66
1, 7537, Note_on_c, 9, 42, 48
1, 7537, Note_on_c, 9, 36, 110
1, 7538, Note_on_c, 9, 36, 0
1, 7538, Note_on_c, 9, 42, 0
1, 7541, Note_on_c, 2, 56, 0
1, 7542, Note_on_c, 2, 59, 0
1, 7544, Note_on_c, 2, 63, 0
1, 7544, Note_on_c, 2, 53, 0
1, 7559, Note_on_c, 3, 63, 87
1, 7559, Note_on_c, 9, 69, 31
1, 7559, Note_on_c, 9, 42, 41
1, 7560, Note_on_c, 9, 42, 0
1, 7560, Note_on_c, 9, 69, 0
1, 7560, Note_on_c, 4, 65, 0
1, 7560, Note_on_c, 2, 56, 53
1, 7560, Note_on_c, 2, 63, 60
1, 7560, Note_on_c, 2, 59, 64
1, 7560, Note_on_c, 2, 53, 55
1, 7560, Note_on_c, 4, 63, 66
1, 7562, Note_on_c, 3, 65, 0
1, 7564, Note_on_c, 1, 37, 0
1, 7564, Note_on_c, 11, 37, 0
1, 7580, Note_on_c, 2, 59, 0
1, 7580, Note_on_c, 2, 63, 0
1, 7582, Note_on_c, 2, 53, 0
1, 7583, Note_on_c, 9, 75, 73
1, 7584, Note_on_c, 9, 75, 0
1, 7584, Note_on_c, 4, 63, 0
1, 7584, Note_on_c, 0, 49, 80
1, 7584, Note_on_c, 2, 59, 60
1, 7584, Note_on_c, 2, 53, 52
1, 7584, Note_on_c, 2, 63, 59
1, 7584, Note_on_c, 4, 61, 66
1, 7584, Note_on_c, 9, 40, 105
1, 7585, Note_on_c, 9, 40, 0
1, 7585, Note_on_c, 9, 42, 81
1, 7586, Note_on_c, 9, 42, 0
1, 7587, Note_on_c, 3, 61, 87
1, 7589, Note_on_c, 3, 63, 0
1, 7590, Note_on_c, 0, 53, 0
1, 7591, Note_on_c, 0, 63, 0
1, 7591, Note_on_c, 0, 56, 0
1, 7594, Note_on_c, 0, 59, 0
1, 7606, Note_on_c, 2, 59, 0
1, 7606, Note_on_c, 0, 49, 0
1, 7606, Note_on_c, 2, 53, 0
1, 7606, Note_on_c, 2, 56, 0
1, 7606, Note_on_c, 2, 63, 0
1, 7606, Note_on_c, 0, 63, 52
1, 7606, Note_on_c, 1, 32, 70
1, 7606, Note_on_c, 11, 32, 66
1, 7607, Note_on_c, 9, 44, 43
1, 7608, Note_on_c, 9, 44, 0
1, 7608, Note_on_c, 0, 59, 77
1, 7608, Note_on_c, 0, 56, 68
1, 7608, Note_on_c, 0, 53, 69
1, 7608, Note_on_c, 2, 56, 59
1, 7608, Note_on_c, 2, 63, 60
1, 7608, Note_on_c, 2, 59, 61
1, 7608, Note_on_c, 2, 53, 59
1, 7616, Note_on_c, 2, 56, 0
1, 7617, Note_on_c, 2, 59, 0
1, 7618, Note_on_c, 2, 63, 0
1, 7620, Note_on_c, 2, 53, 0
1, 7626, Note_on_c, 3, 61, 0
1, 7628, Note_on_c, 1, 32, 0
1, 7628, Note_on_c, 11, 32, 0
1, 7630, Note_on_c, 0, 56, 0
1, 7630, Note_on_c, 0, 49, 46
1, 7630, Note_on_c, 1, 35, 87
1, 7630, Note_on_c, 11, 35, 83
1, 7631, Note_on_c, 0, 53, 0
1, 7631, Note_on_c, 9, 69, 32
1, 7631, Note_on_c, 9, 42, 42
1, 7632, Note_on_c, 9, 42, 0
1, 7632, Note_on_c, 9, 69, 0
1, 7632, Note_on_c, 2, 56, 51
1, 7632, Note_on_c, 2, 59, 59
1, 7632, Note_on_c, 2, 53, 60
1, 7632, Note_on_c, 2, 63, 59
1, 7638, Note_on_c, 0, 49, 0
1, 7638, Note_on_c, 0, 59, 0
1, 7640, Note_on_c, 0, 63, 0
1, 7644, Note_on_c, 2, 56, 0
1, 7645, Note_on_c, 2, 53, 0
1, 7648, Note_on_c, 2, 59, 0
1, 7649, Note_on_c, 2, 63, 0
1, 7655, Note_on_c, 1, 36, 78
1, 7655, Note_on_c, 9, 69, 35
1, 7655, Note_on_c, 9, 42, 42
1, 7655, Note_on_c, 11, 36, 74
1, 7656, Note_on_c, 9, 42, 0
1, 7656, Note_on_c, 9, 69, 0
1, 7656, Note_on_c, 11, 35, 0
1, 7656, Note_on_c, 1, 35, 0
1, 7656, Note_on_c, 0, 49, 52
1, 7656, Note_on_c, 2, 54, 63
1, 7656, Note_on_c, 2, 61, 67
1, 7656, Note_on_c, 2, 58, 64
1, 7656, Note_on_c, 2, 63, 68
1, 7674, Note_on_c, 0, 49, 0
1, 7676, Note_on_c, 2, 54, 0
1, 7677, Note_on_c, 2, 58, 0
1, 7677, Note_on_c, 2, 63, 0
1, 7678, Note_on_c, 1, 36, 0
1, 7678, Note_on_c, 11, 36, 0
1, 7678, Note_on_c, 2, 61, 0
1, 7678, Note_on_c, 0, 63, 65
1, 7678, Note_on_c, 0, 61, 67
1, 7678, Note_on_c, 0, 54, 64
1, 7678, Note_on_c, 0, 58, 73
1, 7679, Note_on_c, 1, 37, 93
1, 7679, Note_on_c, 9, 42, 83
1, 7679, Note_on_c, 9, 36, 115
1, 7679, Note_on_c, 11, 37, 89
1, 7680, Note_on_c, 9, 36, 0
1, 7680, Note_on_c, 10, 56, 0
1, 7680, Note_on_c, 4, 61, 0
1, 7680, Note_on_c, 10, 53, 0
1, 7680, Note_on_c, 9, 42, 0
1, 7680, Note_on_c, 10, 59, 0
1, 7680, Note_on_c, 2, 61, 67
1, 7680, Note_on_c, 2, 58, 65
1, 7680, Note_on_c, 2, 54, 60
1, 7680, Note_on_c, 2, 63, 67
1, 7680, Note_on_c, 3, 70, 95
1, 7680, Note_on_c, 4, 70, 67
1, 7680, Note_on_c, 10, 54, 51
1, 7680, Note_on_c, 10, 61, 60
1, 7680, Note_on_c, 10, 58, 57
1, 7694, Note_on_c, 0, 61, 0
1, 7697, Note_on_c, 0, 58, 0
1, 7702, Note_on_c, 0, 58, 58
1, 7702, Note_on_c, 0, 61, 62
1, 7704, Note_on_c, 9, 44, 41
1, 7705, Note_on_c, 9, 44, 0
1, 7720, Note_on_c, 11, 37, 0
1, 7720, Note_on_c, 1, 37, 0
1, 7724, Note_on_c, 0, 58, 0
1, 7725, Note_on_c, 0, 61, 0
1, 7725, Note_on_c, 0, 54, 0
1, 7726, Note_on_c, 2, 61, 0
1, 7726, Note_on_c, 2, 63, 0
1, 7726, Note_on_c, 2, 58, 0
1, 7726, Note_on_c, 2, 54, 0
1, 7726, Note_on_c, 0, 63, 0
1, 7726, Note_on_c, 9, 69, 50
1, 7727, Note_on_c, 9, 69, 0
1, 7727, Note_on_c, 9, 42, 49
1, 7728, Note_on_c, 9, 42, 0
1, 7728, Note_on_c, 3, 70, 0
1, 7728, Note_on_c, 4, 70, 0
1, 7728, Note_on_c, 0, 49, 70
1, 7728, Note_on_c, 2, 54, 97
1, 7728, Note_on_c, 2, 58, 97
1, 7728, Note_on_c, 2, 61, 97
1, 7728, Note_on_c, 2, 63, 97
1, 7728, Note_on_c, 4, 65, 68
1, 7730, Note_on_c, 3, 65, 81
1, 7734, Note_on_c, 2, 61, 0
1, 7736, Note_on_c, 2, 63, 0
1, 7736, Note_on_c, 2, 58, 0
1, 7738, Note_on_c, 2, 54, 0
1, 7747, Note_on_c, 0, 49, 0
1, 7750, Note_on_c, 0, 54, 60
1, 7750, Note_on_c, 0, 61, 68
1, 7750, Note_on_c, 0, 63, 61
1, 7750, Note_on_c, 0, 58, 64
1, 7751, Note_on_c, 9, 69, 28
1, 7751, Note_on_c, 9, 42, 47
1, 7752, Note_on_c, 9, 42, 0
1, 7752, Note_on_c, 4, 65, 0
1, 7752, Note_on_c, 9, 69, 0
1, 7752, Note_on_c, 2, 63, 53
1, 7752, Note_on_c, 2, 58, 54
1, 7752, Note_on_c, 2, 54, 55
1, 7752, Note_on_c, 2, 61, 57
1, 7752, Note_on_c, 4, 68, 68
1, 7753, Note_on_c, 3, 65, 0
1, 7753, Note_on_c, 3, 68, 84
1, 7768, Note_on_c, 0, 63, 0
1, 7768, Note_on_c, 0, 61, 0
1, 7770, Note_on_c, 0, 58, 0
1, 7771, Note_on_c, 0, 54, 0
1, 7772, Note_on_c, 2, 58, 0
1, 7773, Note_on_c, 2, 61, 0
1, 7774, Note_on_c, 2, 54, 0
1, 7774, Note_on_c, 2, 63, 0
1, 7775, Note_on_c, 9, 42, 86
1, 7775, Note_on_c, 9, 40, 101
1, 7776, Note_on_c, 9, 40, 0
1, 7776, Note_on_c, 9, 42, 0
1, 7776, Note_on_c, 2, 61, 60
1, 7776, Note_on_c, 2, 63, 54
1, 7776, Note_on_c, 2, 54, 59
1, 7776, Note_on_c, 2, 58, 59
1, 7777, Note_on_c, 9, 75, 79
1, 7778, Note_on_c, 9, 75, 0
1, 7778, Note_on_c, 0, 49, 38
1, 7782, Note_on_c, 0, 49, 0
1, 7798, Note_on_c, 2, 54, 0
1, 7798, Note_on_c, 2, 63, 0
1, 7798, Note_on_c, 2, 61, 0
1, 7798, Note_on_c, 2, 58, 0
1, 7799, Note_on_c, 9, 44, 43
1, 7800, Note_on_c, 9, 44, 0
1, 7800, Note_on_c, 4, 68, 0
1, 7800, Note_on_c, 3, 68, 0
1, 7800, Note_on_c, 0, 63, 59
1, 7800, Note_on_c, 0, 58, 63
1, 7800, Note_on_c, 2, 63, 60
1, 7800, Note_on_c, 2, 61, 63
1, 7800, Note_on_c, 2, 58, 60
1, 7800, Note_on_c, 2, 54, 66
1, 7800, Note_on_c, 3, 70, 85
1, 7800, Note_on_c, 4, 70, 68
1, 7801, Note_on_c, 0, 54, 56
1, 7801, Note_on_c, 0, 61, 61
1, 7810, Note_on_c, 2, 58, 0
1, 7810, Note_on_c, 2, 61, 0
1, 7812, Note_on_c, 2, 63, 0
1, 7812, Note_on_c, 0, 63, 0
1, 7815, Note_on_c, 0, 54, 0
1, 7815, Note_on_c, 0, 58, 0
1, 7816, Note_on_c, 0, 61, 0
1, 7816, Note_on_c, 2, 54, 0
1, 7822, Note_on_c, 9, 69, 45
1, 7823, Note_on_c, 9, 69, 0
1, 7824, Note_on_c, 2, 54, 58
1, 7824, Note_on_c, 2, 63, 58
1, 7824, Note_on_c, 2, 58, 54
1, 7824, Note_on_c, 2, 61, 58
1, 7824, Note_on_c, 9, 42, 42
1, 7825, Note_on_c, 9, 42, 0
1, 7841, Note_on_c, 2, 61, 0
1, 7842, Note_on_c, 2, 58, 0
1, 7844, Note_on_c, 2, 54, 0
1, 7846, Note_on_c, 2, 63, 0
1, 7846, Note_on_c, 1, 32, 67
1, 7846, Note_on_c, 9, 69, 23
1, 7846, Note_on_c, 11, 32, 63
1, 7847, Note_on_c, 9, 69, 0
1, 7847, Note_on_c, 9, 36, 105
1, 7848, Note_on_c, 9, 36, 0
1, 7848, Note_on_c, 2, 63, 61
1, 7848, Note_on_c, 2, 58, 56
1, 7848, Note_on_c, 2, 54, 54
1, 7848, Note_on_c, 9, 42, 27
1, 7849, Note_on_c, 9, 42, 0
1, 7849, Note_on_c, 3, 70, 0
1, 7849, Note_on_c, 0, 49, 58
1, 7862, Note_on_c, 0, 49, 0
1, 7869, Note_on_c, 11, 32, 0
1, 7869, Note_on_c, 1, 32, 0
1, 7870, Note_on_c, 2, 54, 0
1, 7870, Note_on_c, 2, 63, 0
1, 7870, Note_on_c, 2, 58, 0
1, 7870, Note_on_c, 0, 54, 79
1, 7870, Note_on_c, 0, 63, 62
1, 7870, Note_on_c, 0, 61, 61
1, 7870, Note_on_c, 0, 58, 80
1, 7871, Note_on_c, 1, 37, 88
1, 7871, Note_on_c, 9, 42, 87
1, 7871, Note_on_c, 9, 36, 72
1, 7871, Note_on_c, 11, 37, 84
1, 7872, Note_on_c, 9, 36, 0
1, 7872, Note_on_c, 9, 42, 0
1, 7872, Note_on_c, 2, 58, 77
1, 7872, Note_on_c, 2, 61, 76
1, 7872, Note_on_c, 2, 54, 65
1, 7872, Note_on_c, 2, 63, 79
1, 7886, Note_on_c, 0, 61, 0
1, 7889, Note_on_c, 0, 58, 0
1, 7891, Note_on_c, 0, 63, 0
1, 7894, Note_on_c, 1, 37, 0
1, 7894, Note_on_c, 0, 54, 0
1, 7894, Note_on_c, 11, 37, 0
1, 7894, Note_on_c, 1, 32, 58
1, 7894, Note_on_c, 11, 32, 54
1, 7897, Note_on_c, 9, 44, 45
1, 7898, Note_on_c, 9, 44, 0
1, 7918, Note_on_c, 1, 32, 0
1, 7918, Note_on_c, 2, 61, 0
1, 7918, Note_on_c, 2, 54, 0
1, 7918, Note_on_c, 11, 32, 0
1, 7918, Note_on_c, 2, 58, 0
1, 7918, Note_on_c, 2, 63, 0
1, 7918, Note_on_c, 1, 37, 79
1, 7918, Note_on_c, 9, 69, 37
1, 7918, Note_on_c, 11, 37, 75
1, 7919, Note_on_c, 9, 69, 0
1, 7919, Note_on_c, 0, 54, 62
1, 7919, Note_on_c, 9, 42, 51
1, 7920, Note_on_c, 9, 42, 0
1, 7920, Note_on_c, 0, 58, 66
1, 7920, Note_on_c, 0, 61, 68
1, 7920, Note_on_c, 0, 63, 63
1, 7920, Note_on_c, 2, 58, 107
1, 7920, Note_on_c, 2, 63, 107
1, 7920, Note_on_c, 2, 61, 107
1, 7920, Note_on_c, 2, 54, 107
1, 7920, Note_on_c, 9, 36, 107
1, 7921, Note_on_c, 9, 36, 0
1, 7926, Note_on_c, 2, 61, 0
1, 7926, Note_on_c, 2, 63, 0
1, 7926, Note_on_c, 2, 58, 0
1, 7930, Note_on_c, 2, 54, 0
1, 7942, Note_on_c, 9, 69, 34
1, 7943, Note_on_c, 9, 69, 0
1, 7944, Note_on_c, 2, 61, 67
1, 7944, Note_on_c, 2, 54, 64
1, 7944, Note_on_c, 2, 58, 59
1, 7944, Note_on_c, 2, 63, 63
1, 7944, Note_on_c, 9, 42, 74
1, 7945, Note_on_c, 9, 42, 0
1, 7954, Note_on_c, 1, 37, 0
1, 7954, Note_on_c, 11, 37, 0
1, 7963, Note_on_c, 0, 63, 0
1, 7964, Note_on_c, 2, 54, 0
1, 7964, Note_on_c, 2, 58, 0
1, 7965, Note_on_c, 2, 63, 0
1, 7965, Note_on_c, 2, 61, 0
1, 7966, Note_on_c, 0, 61, 0
1, 7966, Note_on_c, 0, 58, 0
1, 7966, Note_on_c, 0, 49, 71
1, 7966, Note_on_c, 3, 65, 85
1, 7967, Note_on_c, 9, 42, 93
1, 7967, Note_on_c, 9, 75, 82
1, 7967, Note_on_c, 9, 40, 105
1, 7968, Note_on_c, 9, 40, 0
1, 7968, Note_on_c, 0, 54, 0
1, 7968, Note_on_c, 9, 75, 0
1, 7968, Note_on_c, 9, 42, 0
1, 7968, Note_on_c, 4, 70, 0
1, 7968, Note_on_c, 2, 61, 59
1, 7968, Note_on_c, 2, 58, 55
1, 7968, Note_on_c, 2, 63, 58
1, 7968, Note_on_c, 2, 54, 58
1, 7968, Note_on_c, 4, 65, 67
1, 7984, Note_on_c, 0, 49, 0
1, 7990, Note_on_c, 2, 54, 0
1, 7990, Note_on_c, 2, 58, 0
1, 7990, Note_on_c, 2, 63, 0
1, 7990, Note_on_c, 2, 61, 0
1, 7990, Note_on_c, 0, 61, 63
1, 7990, Note_on_c, 0, 54, 60
1, 7990, Note_on_c, 0, 63, 62
1, 7990, Note_on_c, 0, 58, 65
1, 7991, Note_on_c, 9, 44, 50
1, 7992, Note_on_c, 9, 44, 0
1, 7992, Note_on_c, 4, 65, 0
1, 7992, Note_on_c, 2, 63, 60
1, 7992, Note_on_c, 2, 58, 62
1, 7992, Note_on_c, 2, 54, 63
1, 7992, Note_on_c, 2, 61, 65
1, 7992, Note_on_c, 4, 68, 67
1, 7993, Note_on_c, 3, 68, 84
1, 7994, Note_on_c, 3, 65, 0
1, 8002, Note_on_c, 2, 58, 0
1, 8002, Note_on_c, 2, 61, 0
1, 8005, Note_on_c, 2, 63, 0
1, 8008, Note_on_c, 0, 63, 0
1, 8008, Note_on_c, 2, 54, 0
1, 8013, Note_on_c, 0, 58, 0
1, 8013, Note_on_c, 0, 61, 0
1, 8013, Note_on_c, 9, 69, 45
1, 8014, Note_on_c, 9, 69, 0
1, 8014, Note_on_c, 0, 49, 51
1, 8014, Note_on_c, 1, 32, 70
1, 8014, Note_on_c, 11, 32, 66
1, 8015, Note_on_c, 9, 42, 49
1, 8016, Note_on_c, 9, 42, 0
1, 8016, Note_on_c, 2, 58, 59
1, 8016, Note_on_c, 2, 63, 58
1, 8016, Note_on_c, 2, 61, 64
1, 8016, Note_on_c, 2, 54, 60
1, 8018, Note_on_c, 0, 54, 0
1, 8020, Note_on_c, 0, 49, 0
1, 8030, Note_on_c, 3, 68, 0
1, 8033, Note_on_c, 2, 58, 0
1, 8034, Note_on_c, 2, 54, 0
1, 8036, Note_on_c, 2, 61, 0
1, 8037, Note_on_c, 1, 32, 0
1, 8037, Note_on_c, 11, 32, 0
1, 8038, Note_on_c, 2, 63, 0
1, 8038, Note_on_c, 1, 35, 76
1, 8038, Note_on_c, 3, 68, 87
1, 8038, Note_on_c, 9, 69, 36
1, 8038, Note_on_c, 11, 35, 72
1, 8039, Note_on_c, 9, 69, 0
1, 8039, Note_on_c, 4, 68, 0
1, 8039, Note_on_c, 0, 49, 68
1, 8039, Note_on_c, 9, 42, 57
1, 8040, Note_on_c, 9, 42, 0
1, 8040, Note_on_c, 2, 61, 58
1, 8040, Note_on_c, 2, 63, 59
1, 8040, Note_on_c, 2, 54, 65
1, 8040, Note_on_c, 2, 57, 64
1, 8040, Note_on_c, 4, 68, 67
1, 8053, Note_on_c, 0, 49, 0
1, 8062, Note_on_c, 2, 54, 0
1, 8062, Note_on_c, 11, 35, 0
1, 8062, Note_on_c, 2, 63, 0
1, 8062, Note_on_c, 2, 61, 0
1, 8062, Note_on_c, 2, 57, 0
1, 8062, Note_on_c, 1, 35, 0
1, 8062, Note_on_c, 0, 63, 64
1, 8062, Note_on_c, 0, 54, 62
1, 8062, Note_on_c, 0, 57, 79
1, 8063, Note_on_c, 0, 61, 66
1, 8063, Note_on_c, 1, 37, 78
1, 8063, Note_on_c, 9, 36, 114
1, 8063, Note_on_c, 9, 42, 76
1, 8063, Note_on_c, 11, 37, 74
1, 8064, Note_on_c, 9, 42, 0
1, 8064, Note_on_c, 9, 36, 0
1, 8064, Note_on_c, 10, 58, 0
1, 8064, Note_on_c, 2, 61, 65
1, 8064, Note_on_c, 2, 54, 59
1, 8064, Note_on_c, 2, 63, 64
1, 8064, Note_on_c, 2, 57, 67
1, 8064, Note_on_c, 10, 57, 59
1, 8076, Note_on_c, 0, 61, 0
1, 8076, Note_on_c, 0, 57, 0
1, 8078, Note_on_c, 0, 54, 0
1, 8080, Note_on_c, 4, 68, 0
1, 8080, Note_on_c, 0, 63, 0
1, 8080, Note_on_c, 4, 65, 67
1, 8082, Note_on_c, 3, 65, 66
1, 8086, Note_on_c, 3, 68, 0
1, 8086, Note_on_c, 0, 54, 37
1, 8086, Note_on_c, 0, 61, 59
1, 8086, Note_on_c, 0, 57, 73
1, 8086, Note_on_c, 0, 63, 50
1, 8087, Note_on_c, 9, 44, 46
1, 8088, Note_on_c, 9, 44, 0
1, 8095, Note_on_c, 3, 63, 63
1, 8096, Note_on_c, 3, 65, 0
1, 8096, Note_on_c, 4, 65, 0
1, 8096, Note_on_c, 4, 63, 67
1, 8101, Note_on_c, 1, 37, 0
1, 8101, Note_on_c, 11, 37, 0
1, 8105, Note_on_c, 0, 63, 0
1, 8106, Note_on_c, 0, 57, 0
1, 8108, Note_on_c, 0, 61, 0
1, 8108, Note_on_c, 3, 61, 73
1, 8110, Note_on_c, 2, 57, 0
1, 8110, Note_on_c, 2, 63, 0
1, 8110, Note_on_c, 0, 54, 0
1, 8110, Note_on_c, 2, 61, 0
1, 8110, Note_on_c, 2, 54, 0
1, 8110, Note_on_c, 0, 49, 81
1, 8110, Note_on_c, 9, 69, 41
1, 8111, Note_on_c, 9, 69, 0
1, 8111, Note_on_c, 9, 42, 42
1, 8112, Note_on_c, 9, 42, 0
1, 8112, Note_on_c, 4, 63, 0
1, 8112, Note_on_c, 2, 63, 90
1, 8112, Note_on_c, 2, 54, 90
1, 8112, Note_on_c, 2, 61, 100
1, 8112, Note_on_c, 2, 57, 81
1, 8112, Note_on_c, 4, 61, 67
1, 8113, Note_on_c, 3, 63, 0
1, 8120, Note_on_c, 2, 57, 0
1, 8120, Note_on_c, 2, 61, 0
1, 8120, Note_on_c, 2, 63, 0
1, 8123, Note_on_c, 0, 49, 0
1, 8125, Note_on_c, 2, 54, 0
1, 8134, Note_on_c, 0, 61, 61
1, 8134, Note_on_c, 0, 63, 58
1, 8134, Note_on_c, 0, 57, 77
1, 8134, Note_on_c, 0, 54, 55
1, 8134, Note_on_c, 9, 69, 30
1, 8135, Note_on_c, 9, 69, 0
1, 8135, Note_on_c, 9, 42, 43
1, 8136, Note_on_c, 9, 42, 0
1, 8136, Note_on_c, 2, 57, 56
1, 8136, Note_on_c, 2, 63, 57
1, 8136, Note_on_c, 2, 61, 58
1, 8136, Note_on_c, 2, 54, 62
1, 8151, Note_on_c, 0, 63, 0
1, 8152, Note_on_c, 0, 54, 0
1, 8154, Note_on_c, 0, 61, 0
1, 8154, Note_on_c, 0, 57, 0
1, 8158, Note_on_c, 2, 57, 0
1, 8158, Note_on_c, 2, 54, 0
1, 8158, Note_on_c, 2, 63, 0
1, 8158, Note_on_c, 2, 61, 0
1, 8159, Note_on_c, 9, 75, 79
1, 8160, Note_on_c, 9, 75, 0
1, 8160, Note_on_c, 2, 63, 60
1, 8160, Note_on_c, 2, 57, 59
1, 8160, Note_on_c, 2, 61, 61
1, 8160, Note_on_c, 2, 54, 62
1, 8160, Note_on_c, 9, 40, 101
1, 8160, Note_on_c, 9, 42, 83
1, 8161, Note_on_c, 9, 42, 0
1, 8161, Note_on_c, 9, 40, 0
1, 8182, Note_on_c, 2, 57, 0
1, 8182, Note_on_c, 2, 54, 0
1, 8182, Note_on_c, 2, 63, 0
1, 8182, Note_on_c, 2, 61, 0
1, 8182, Note_on_c, 0, 61, 63
1, 8182, Note_on_c, 0, 63, 61
1, 8182, Note_on_c, 0, 54, 58
1, 8182, Note_on_c, 0, 57, 81
1, 8183, Note_on_c, 3, 61, 0
1, 8183, Note_on_c, 9, 44, 43
1, 8184, Note_on_c, 9, 44, 0
1, 8184, Note_on_c, 4, 61, 0
1, 8184, Note_on_c, 2, 54, 65
1, 8184, Note_on_c, 2, 61, 58
1, 8184, Note_on_c, 2, 63, 52
1, 8184, Note_on_c, 2, 57, 59
1, 8184, Note_on_c, 4, 64, 66
1, 8185, Note_on_c, 3, 64, 76
1, 8192, Note_on_c, 2, 57, 0
1, 8193, Note_on_c, 2, 61, 0
1, 8194, Note_on_c, 0, 61, 0
1, 8195, Note_on_c, 0, 57, 0
1, 8195, Note_on_c, 0, 63, 0
1, 8196, Note_on_c, 0, 54, 0
1, 8196, Note_on_c, 2, 63, 0
1, 8197, Note_on_c, 2, 54, 0
1, 8205, Note_on_c, 9, 69, 45
1, 8206, Note_on_c, 9, 69, 0
1, 8208, Note_on_c, 4, 64, 0
1, 8208, Note_on_c, 2, 61, 61
1, 8208, Note_on_c, 2, 63, 58
1, 8208, Note_on_c, 2, 57, 59
1, 8208, Note_on_c, 2, 54, 58
1, 8208, Note_on_c, 4, 61, 66
1, 8208, Note_on_c, 9, 42, 51
1, 8209, Note_on_c, 9, 42, 0
1, 8210, Note_on_c, 0, 49, 29
1, 8210, Note_on_c, 3, 61, 70
1, 8214, Note_on_c, 0, 49, 0
1, 8214, Note_on_c, 3, 64, 0
1, 8222, Note_on_c, 2, 54, 0
1, 8226, Note_on_c, 2, 61, 0
1, 8228, Note_on_c, 2, 63, 0
1, 8230, Note_on_c, 2, 57, 0
1, 8230, Note_on_c, 9, 69, 30
1, 8231, Note_on_c, 9, 69, 0
1, 8231, Note_on_c, 1, 32, 74
1, 8231, Note_on_c, 9, 42, 49
1, 8231, Note_on_c, 11, 32, 70
1, 8232, Note_on_c, 9, 42, 0
1, 8232, Note_on_c, 4, 61, 0
1, 8232, Note_on_c, 2, 54, 59
1, 8232, Note_on_c, 2, 57, 60
1, 8232, Note_on_c, 2, 61, 76
1, 8232, Note_on_c, 2, 63, 76
1, 8232, Note_on_c, 4, 63, 67
1, 8233, Note_on_c, 9, 36, 113
1, 8234, Note_on_c, 9, 36, 0
1, 8234, Note_on_c, 0, 49, 57
1, 8235, Note_on_c, 3, 63, 74
1, 8236, Note_on_c, 3, 61, 0
1, 8246, Note_on_c, 0, 49, 0
1, 8254, Note_on_c, 2, 63, 0
1, 8254, Note_on_c, 2, 54, 0
1, 8254, Note_on_c, 2, 57, 0
1, 8254, Note_on_c, 11, 32, 0
1, 8254, Note_on_c, 2, 61, 0
1, 8254, Note_on_c, 1, 32, 0
1, 8254, Note_on_c, 0, 54, 61
1, 8254, Note_on_c, 0, 63, 68
1, 8254, Note_on_c, 0, 61, 73
1, 8254, Note_on_c, 0, 57, 80
1, 8255, Note_on_c, 1, 37, 90
1, 8255, Note_on_c, 9, 36, 61
1, 8255, Note_on_c, 11, 37, 86
1, 8256, Note_on_c, 9, 36, 0
1, 8256, Note_on_c, 2, 54, 70
1, 8256, Note_on_c, 2, 57, 65
1, 8256, Note_on_c, 2, 63, 69
1, 8256, Note_on_c, 2, 61, 63
1, 8257, Note_on_c, 9, 42, 78
1, 8258, Note_on_c, 9, 42, 0
1, 8274, Note_on_c, 0, 63, 0
1, 8275, Note_on_c, 1, 37, 0
1, 8275, Note_on_c, 11, 37, 0
1, 8278, Note_on_c, 0, 57, 0
1, 8278, Note_on_c, 0, 54, 0
1, 8279, Note_on_c, 1, 32, 63
1, 8279, Note_on_c, 9, 44, 47
1, 8279, Note_on_c, 11, 32, 59
1, 8280, Note_on_c, 9, 44, 0
1, 8280, Note_on_c, 0, 61, 0
1, 8300, Note_on_c, 3, 61, 83
1, 8301, Note_on_c, 3, 63, 0
1, 8302, Note_on_c, 2, 54, 0
1, 8302, Note_on_c, 2, 57, 0
1, 8302, Note_on_c, 2, 61, 0
1, 8302, Note_on_c, 1, 32, 0
1, 8302, Note_on_c, 2, 63, 0
1, 8302, Note_on_c, 11, 32, 0
1, 8302, Note_on_c, 0, 57, 77
1, 8302, Note_on_c, 0, 54, 58
1, 8302, Note_on_c, 0, 63, 63
1, 8303, Note_on_c, 1, 37, 75
1, 8303, Note_on_c, 9, 42, 62
1, 8303, Note_on_c, 9, 69, 41
1, 8303, Note_on_c, 11, 37, 71
1, 8304, Note_on_c, 9, 69, 0
1, 8304, Note_on_c, 4, 63, 0
1, 8304, Note_on_c, 9, 42, 0
1, 8304, Note_on_c, 0, 61, 69
1, 8304, Note_on_c, 2, 57, 107
1, 8304, Note_on_c, 2, 61, 107
1, 8304, Note_on_c, 2, 54, 107
1, 8304, Note_on_c, 2, 63, 107
1, 8304, Note_on_c, 4, 61, 69
1, 8304, Note_on_c, 9, 36, 114
1, 8305, Note_on_c, 9, 36, 0
1, 8310, Note_on_c, 2, 63, 0
1, 8310, Note_on_c, 2, 61, 0
1, 8312, Note_on_c, 2, 54, 0
1, 8312, Note_on_c, 2, 57, 0
1, 8327, Note_on_c, 9, 69, 30
1, 8327, Note_on_c, 9, 42, 42
1, 8328, Note_on_c, 9, 42, 0
1, 8328, Note_on_c, 9, 69, 0
1, 8328, Note_on_c, 2, 54, 61
1, 8328, Note_on_c, 2, 57, 60
1, 8328, Note_on_c, 2, 61, 63
1, 8328, Note_on_c, 2, 63, 59
1, 8336, Note_on_c, 11, 37, 0
1, 8336, Note_on_c, 1, 37, 0
1, 8342, Note_on_c, 0, 61, 0
1, 8342, Note_on_c, 0, 54, 0
1, 8342, Note_on_c, 0, 57, 0
1, 8343, Note_on_c, 0, 63, 0
1, 8350, Note_on_c, 2, 63, 0
1, 8350, Note_on_c, 2, 57, 0
1, 8350, Note_on_c, 2, 54, 0
1, 8350, Note_on_c, 2, 61, 0
1, 8350, Note_on_c, 0, 49, 80
1, 8351, Note_on_c, 9, 75, 83
1, 8351, Note_on_c, 9, 42, 81
1, 8351, Note_on_c, 9, 40, 107
1, 8352, Note_on_c, 9, 40, 0
1, 8352, Note_on_c, 9, 42, 0
1, 8352, Note_on_c, 10, 63, 0
1, 8352, Note_on_c, 9, 75, 0
1, 8352, Note_on_c, 2, 63, 54
1, 8352, Note_on_c, 2, 57, 55
1, 8352, Note_on_c, 2, 54, 58
1, 8352, Note_on_c, 2, 61, 58
1, 8352, Note_on_c, 10, 64, 68
1, 8360, Note_on_c, 0, 49, 0
1, 8372, Note_on_c, 2, 61, 0
1, 8372, Note_on_c, 2, 57, 0
1, 8372, Note_on_c, 2, 54, 0
1, 8372, Note_on_c, 2, 63, 0
1, 8374, Note_on_c, 0, 61, 66
1, 8374, Note_on_c, 0, 54, 59
1, 8374, Note_on_c, 0, 57, 81
1, 8374, Note_on_c, 0, 64, 77
1, 8375, Note_on_c, 1, 32, 76
1, 8375, Note_on_c, 9, 44, 45
1, 8375, Note_on_c, 11, 32, 72
1, 8376, Note_on_c, 9, 44, 0
1, 8376, Note_on_c, 4, 61, 0
1, 8376, Note_on_c, 2, 54, 63
1, 8376, Note_on_c, 2, 64, 69
1, 8376, Note_on_c, 2, 57, 61
1, 8376, Note_on_c, 2, 61, 63
1, 8376, Note_on_c, 4, 58, 69
1, 8379, Note_on_c, 3, 58, 80
1, 8380, Note_on_c, 3, 61, 0
1, 8394, Note_on_c, 1, 32, 0
1, 8394, Note_on_c, 11, 32, 0
1, 8397, Note_on_c, 0, 49, 53
1, 8398, Note_on_c, 0, 57, 0
1, 8398, Note_on_c, 0, 54, 0
1, 8398, Note_on_c, 0, 64, 0
1, 8398, Note_on_c, 1, 35, 84
1, 8398, Note_on_c, 11, 35, 80
1, 8399, Note_on_c, 9, 69, 43
1, 8400, Note_on_c, 9, 69, 0
1, 8401, Note_on_c, 9, 42, 76
1, 8402, Note_on_c, 9, 42, 0
1, 8404, Note_on_c, 0, 61, 0
1, 8406, Note_on_c, 0, 49, 0
1, 8408, Note_on_c, 2, 57, 0
1, 8410, Note_on_c, 2, 61, 0
1, 8412, Note_on_c, 2, 54, 0
1, 8414, Note_on_c, 2, 64, 0
1, 8418, Note_on_c, 1, 35, 0
1, 8418, Note_on_c, 11, 35, 0
1, 8423, Note_on_c, 1, 36, 82
1, 8423, Note_on_c, 9, 42, 48
1, 8423, Note_on_c, 11, 36, 78
1, 8424, Note_on_c, 9, 42, 0
1, 8426, Note_on_c, 9, 69, 28
1, 8427, Note_on_c, 9, 69, 0
1, 8428, Note_on_c, 0, 49, 66
1, 8436, Note_on_c, 0, 49, 0
1, 8444, Note_on_c, 11, 36, 0
1, 8444, Note_on_c, 1, 36, 0
1, 8445, Note_on_c, 3, 58, 0
1, 8446, Note_on_c, 1, 37, 92
1, 8446, Note_on_c, 11, 37, 88
1, 8448, Note_on_c, 10, 64, 0
1, 8448, Note_on_c, 10, 57, 0
1, 8448, Note_on_c, 10, 54, 0
1, 8448, Note_on_c, 10, 61, 0
1, 8448, Note_on_c, 2, 60, 70
1, 8448, Note_on_c, 2, 56, 60
1, 8448, Note_on_c, 2, 53, 63
1, 8448, Note_on_c, 2, 65, 66
1, 8448, Note_on_c, 9, 42, 91
1, 8448, Note_on_c, 9, 36, 110
1, 8448, Note_on_c, 10, 65, 53
1, 8449, Note_on_c, 9, 36, 0
1, 8449, Note_on_c, 9, 42, 0
1, 8450, Note_on_c, 0, 65, 68
1, 8450, Note_on_c, 0, 63, 70
1, 8450, Note_on_c, 0, 56, 60
1, 8450, Note_on_c, 0, 60, 77
1, 8466, Note_on_c, 0, 63, 0
1, 8467, Note_on_c, 0, 60, 0
1, 8471, Note_on_c, 9, 44, 44
1, 8472, Note_on_c, 9, 44, 0
1, 8474, Note_on_c, 0, 63, 64
1, 8474, Note_on_c, 0, 60, 67
1, 8493, Note_on_c, 0, 60, 0
1, 8493, Note_on_c, 0, 63, 0
1, 8494, Note_on_c, 2, 65, 0
1, 8494, Note_on_c, 2, 60, 0
1, 8494, Note_on_c, 2, 53, 0
1, 8494, Note_on_c, 2, 56, 0
1, 8494, Note_on_c, 9, 69, 33
1, 8495, Note_on_c, 9, 69, 0
1, 8495, Note_on_c, 9, 42, 40
1, 8496, Note_on_c, 9, 42, 0
1, 8496, Note_on_c, 2, 60, 73
1, 8496, Note_on_c, 2, 56, 68
1, 8496, Note_on_c, 2, 65, 71
1, 8496, Note_on_c, 2, 53, 69
1, 8497, Note_on_c, 0, 65, 0
1, 8498, Note_on_c, 0, 56, 0
1, 8498, Note_on_c, 0, 49, 75
1, 8502, Note_on_c, 2, 56, 0
1, 8504, Note_on_c, 2, 65, 0
1, 8504, Note_on_c, 1, 37, 0
1, 8504, Note_on_c, 11, 37, 0
1, 8504, Note_on_c, 2, 60, 0
1, 8506, Note_on_c, 2, 53, 0
1, 8510, Note_on_c, 0, 49, 0
1, 8518, Note_on_c, 9, 69, 21
1, 8519, Note_on_c, 9, 69, 0
1, 8519, Note_on_c, 9, 42, 44
1, 8520, Note_on_c, 9, 42, 0
1, 8520, Note_on_c, 4, 58, 0
1, 8520, Note_on_c, 0, 60, 75
1, 8520, Note_on_c, 0, 63, 68
1, 8520, Note_on_c, 0, 65, 64
1, 8520, Note_on_c, 2, 53, 53
1, 8520, Note_on_c, 2, 60, 59
1, 8520, Note_on_c, 2, 65, 54
1, 8520, Note_on_c, 4, 49, 73
1, 8520, Note_on_c, 4, 61, 73
1, 8521, Note_on_c, 0, 56, 63
1, 8522, Note_on_c, 3, 61, 95
1, 8539, Note_on_c, 3, 61, 0
1, 8541, Note_on_c, 0, 63, 0
1, 8542, Note_on_c, 2, 53, 0
1, 8542, Note_on_c, 0, 60, 0
1, 8543, Note_on_c, 4, 61, 0
1, 8543, Note_on_c, 4, 49, 0
1, 8543, Note_on_c, 0, 65, 0
1, 8543, Note_on_c, 9, 75, 79
1, 8543, Note_on_c, 9, 40, 101
1, 8543, Note_on_c, 9, 42, 76
1, 8544, Note_on_c, 9, 42, 0
1, 8544, Note_on_c, 9, 75, 0
1, 8544, Note_on_c, 9, 40, 0
1, 8544, Note_on_c, 2, 56, 58
1, 8544, Note_on_c, 2, 53, 52
1, 8544, Note_on_c, 4, 49, 72
1, 8544, Note_on_c, 4, 61, 72
1, 8545, Note_on_c, 0, 56, 0
1, 8546, Note_on_c, 3, 61, 95
1, 8566, Note_on_c, 2, 56, 0
1, 8566, Note_on_c, 2, 60, 0
1, 8566, Note_on_c, 2, 53, 0
1, 8566, Note_on_c, 2, 65, 0
1, 8567, Note_on_c, 0, 63, 69
1, 8567, Note_on_c, 0, 60, 77
1, 8567, Note_on_c, 0, 56, 63
1, 8567, Note_on_c, 0, 65, 65
1, 8567, Note_on_c, 9, 44, 40
1, 8568, Note_on_c, 9, 44, 0
1, 8568, Note_on_c, 2, 56, 51
1, 8568, Note_on_c, 2, 65, 62
1, 8568, Note_on_c, 2, 60, 54
1, 8568, Note_on_c, 2, 53, 60
1, 8576, Note_on_c, 2, 60, 0
1, 8576, Note_on_c, 2, 56, 0
1, 8578, Note_on_c, 2, 65, 0
1, 8578, Note_on_c, 2, 53, 0
1, 8582, Note_on_c, 3, 61, 0
1, 8585, Note_on_c, 0, 63, 0
1, 8588, Note_on_c, 0, 60, 0
1, 8590, Note_on_c, 0, 65, 0
1, 8591, Note_on_c, 9, 42, 42
1, 8591, Note_on_c, 9, 69, 33
1, 8592, Note_on_c, 9, 69, 0
1, 8592, Note_on_c, 0, 56, 0
1, 8592, Note_on_c, 4, 61, 0
1, 8592, Note_on_c, 4, 49, 0
1, 8592, Note_on_c, 9, 42, 0
1, 8592, Note_on_c, 2, 65, 60
1, 8592, Note_on_c, 2, 60, 59
1, 8592, Note_on_c, 2, 56, 59
1, 8592, Note_on_c, 4, 70, 74
1, 8592, Note_on_c, 4, 58, 74
1, 8593, Note_on_c, 3, 70, 83
1, 8606, Note_on_c, 2, 60, 0
1, 8608, Note_on_c, 2, 65, 0
1, 8610, Note_on_c, 2, 56, 0
1, 8615, Note_on_c, 1, 32, 72
1, 8615, Note_on_c, 9, 69, 25
1, 8615, Note_on_c, 9, 42, 40
1, 8615, Note_on_c, 11, 32, 68
1, 8616, Note_on_c, 9, 42, 0
1, 8616, Note_on_c, 9, 69, 0
1, 8616, Note_on_c, 4, 70, 0
1, 8616, Note_on_c, 4, 58, 0
1, 8616, Note_on_c, 0, 49, 53
1, 8616, Note_on_c, 2, 56, 54
1, 8616, Note_on_c, 2, 60, 65
1, 8616, Note_on_c, 2, 53, 57
1, 8616, Note_on_c, 2, 65, 64
1, 8616, Note_on_c, 4, 68, 74
1, 8616, Note_on_c, 4, 56, 74
1, 8616, Note_on_c, 9, 36, 104
1, 8617, Note_on_c, 9, 36, 0
1, 8618, Note_on_c, 3, 68, 84
1, 8620, Note_on_c, 3, 70, 0
1, 8626, Note_on_c, 0, 49, 0
1, 8635, Note_on_c, 11, 32, 0
1, 8635, Note_on_c, 1, 32, 0
1, 8637, Note_on_c, 0, 56, 65
1, 8637, Note_on_c, 0, 60, 79
1, 8637, Note_on_c, 0, 65, 63
1, 8638, Note_on_c, 2, 53, 0
1, 8638, Note_on_c, 2, 65, 0
1, 8638, Note_on_c, 2, 60, 0
1, 8638, Note_on_c, 2, 56, 0
1, 8638, Note_on_c, 0, 63, 68
1, 8639, Note_on_c, 1, 37, 86
1, 8639, Note_on_c, 9, 36, 68
1, 8639, Note_on_c, 9, 42, 87
1, 8639, Note_on_c, 11, 37, 82
1, 8640, Note_on_c, 9, 42, 0
1, 8640, Note_on_c, 9, 36, 0
1, 8640, Note_on_c, 2, 53, 50
1, 8640, Note_on_c, 2, 60, 63
1, 8640, Note_on_c, 2, 65, 61
1, 8640, Note_on_c, 2, 56, 58
1, 8649, Note_on_c, 3, 68, 0
1, 8652, Note_on_c, 0, 63, 0
1, 8657, Note_on_c, 0, 60, 0
1, 8658, Note_on_c, 0, 65, 0
1, 8660, Note_on_c, 0, 56, 0
1, 8662, Note_on_c, 1, 32, 62
1, 8662, Note_on_c, 11, 32, 58
1, 8664, Note_on_c, 1, 37, 0
1, 8664, Note_on_c, 11, 37, 0
1, 8664, Note_on_c, 4, 68, 0
1, 8664, Note_on_c, 4, 56, 0
1, 8664, Note_on_c, 4, 54, 74
1, 8664, Note_on_c, 4, 66, 74
1, 8664, Note_on_c, 9, 44, 46
1, 8665, Note_on_c, 9, 44, 0
1, 8665, Note_on_c, 3, 66, 86
1, 8686, Note_on_c, 1, 32, 0
1, 8686, Note_on_c, 11, 32, 0
1, 8686, Note_on_c, 2, 56, 0
1, 8686, Note_on_c, 2, 60, 0
1, 8686, Note_on_c, 2, 65, 0
1, 8686, Note_on_c, 2, 53, 0
1, 8686, Note_on_c, 0, 60, 80
1, 8686, Note_on_c, 0, 56, 66
1, 8686, Note_on_c, 0, 65, 65
1, 8686, Note_on_c, 0, 63, 77
1, 8686, Note_on_c, 9, 69, 35
1, 8687, Note_on_c, 9, 69, 0
1, 8687, Note_on_c, 1, 37, 85
1, 8687, Note_on_c, 9, 42, 43
1, 8687, Note_on_c, 9, 36, 97
1, 8687, Note_on_c, 11, 37, 81
1, 8688, Note_on_c, 9, 36, 0
1, 8688, Note_on_c, 9, 42, 0
1, 8688, Note_on_c, 3, 66, 0
1, 8688, Note_on_c, 2, 56, 102
1, 8688, Note_on_c, 2, 65, 102
1, 8688, Note_on_c, 2, 60, 102
1, 8688, Note_on_c, 2, 53, 102
1, 8694, Note_on_c, 2, 60, 0
1, 8694, Note_on_c, 2, 56, 0
1, 8696, Note_on_c, 2, 65, 0
1, 8697, Note_on_c, 2, 53, 0
1, 8710, Note_on_c, 9, 69, 29
1, 8711, Note_on_c, 9, 69, 0
1, 8711, Note_on_c, 9, 42, 54
1, 8712, Note_on_c, 9, 42, 0
1, 8712, Note_on_c, 4, 54, 0
1, 8712, Note_on_c, 4, 66, 0
1, 8712, Note_on_c, 2, 60, 59
1, 8712, Note_on_c, 2, 53, 56
1, 8712, Note_on_c, 2, 56, 49
1, 8712, Note_on_c, 2, 65, 55
1, 8712, Note_on_c, 4, 53, 74
1, 8712, Note_on_c, 4, 65, 74
1, 8713, Note_on_c, 3, 65, 85
1, 8720, Note_on_c, 1, 37, 0
1, 8720, Note_on_c, 11, 37, 0
1, 8734, Note_on_c, 2, 65, 0
1, 8734, Note_on_c, 2, 60, 0
1, 8734, Note_on_c, 2, 56, 0
1, 8734, Note_on_c, 2, 53, 0
1, 8734, Note_on_c, 0, 49, 63
1, 8735, Note_on_c, 9, 42, 73
1, 8735, Note_on_c, 9, 40, 104
1, 8736, Note_on_c, 9, 40, 0
1, 8736, Note_on_c, 9, 42, 0
1, 8736, Note_on_c, 2, 56, 52
1, 8736, Note_on_c, 2, 53, 52
1, 8736, Note_on_c, 2, 60, 54
1, 8736, Note_on_c, 2, 65, 52
1, 8736, Note_on_c, 9, 75, 79
1, 8737, Note_on_c, 9, 75, 0
1, 8737, Note_on_c, 0, 63, 0
1, 8738, Note_on_c, 0, 60, 0
1, 8740, Note_on_c, 0, 56, 0
1, 8743, Note_on_c, 0, 65, 0
1, 8743, Note_on_c, 3, 65, 0
1, 8747, Note_on_c, 0, 49, 0
1, 8758, Note_on_c, 2, 65, 0
1, 8758, Note_on_c, 2, 56, 0
1, 8758, Note_on_c, 2, 53, 0
1, 8758, Note_on_c, 2, 60, 0
1, 8758, Note_on_c, 0, 65, 63
1, 8759, Note_on_c, 0, 56, 63
1, 8759, Note_on_c, 0, 60, 73
1, 8759, Note_on_c, 3, 61, 73
1, 8759, Note_on_c, 9, 44, 43
1, 8760, Note_on_c, 9, 44, 0
1, 8760, Note_on_c, 4, 53, 0
1, 8760, Note_on_c, 4, 65, 0
1, 8760, Note_on_c, 0, 63, 71
1, 8760, Note_on_c, 2, 53, 59
1, 8760, Note_on_c, 2, 65, 63
1, 8760, Note_on_c, 2, 60, 61
1, 8760, Note_on_c, 2, 56, 59
1, 8760, Note_on_c, 4, 61, 74
1, 8760, Note_on_c, 4, 49, 74
1, 8768, Note_on_c, 2, 56, 0
1, 8768, Note_on_c, 2, 60, 0
1, 8769, Note_on_c, 2, 65, 0
1, 8770, Note_on_c, 2, 53, 0
1, 8782, Note_on_c, 1, 32, 74
1, 8782, Note_on_c, 9, 69, 36
1, 8782, Note_on_c, 11, 32, 70
1, 8783, Note_on_c, 9, 69, 0
1, 8783, Note_on_c, 9, 42, 54
1, 8784, Note_on_c, 9, 42, 0
1, 8784, Note_on_c, 2, 56, 59
1, 8784, Note_on_c, 2, 60, 59
1, 8784, Note_on_c, 2, 65, 59
1, 8786, Note_on_c, 0, 63, 0
1, 8788, Note_on_c, 3, 61, 0
1, 8788, Note_on_c, 0, 60, 0
1, 8789, Note_on_c, 0, 56, 0
1, 8790, Note_on_c, 0, 65, 0
1, 8800, Note_on_c, 2, 56, 0
1, 8804, Note_on_c, 10, 65, 0
1, 8804, Note_on_c, 2, 60, 0
1, 8804, Note_on_c, 2, 65, 0
1, 8806, Note_on_c, 1, 34, 73
1, 8806, Note_on_c, 9, 69, 23
1, 8806, Note_on_c, 11, 34, 69
1, 8807, Note_on_c, 9, 69, 0
1, 8807, Note_on_c, 1, 32, 0
1, 8807, Note_on_c, 11, 32, 0
1, 8807, Note_on_c, 9, 42, 42
1, 8808, Note_on_c, 9, 42, 0
1, 8808, Note_on_c, 4, 49, 0
1, 8808, Note_on_c, 4, 61, 0
1, 8808, Note_on_c, 2, 63, 64
1, 8808, Note_on_c, 2, 59, 65
1, 8808, Note_on_c, 2, 56, 59
1, 8808, Note_on_c, 2, 53, 62
1, 8808, Note_on_c, 3, 64, 87
1, 8808, Note_on_c, 4, 52, 75
1, 8808, Note_on_c, 4, 64, 75
1, 8810, Note_on_c, 0, 49, 47
1, 8822, Note_on_c, 0, 49, 0
1, 8830, Note_on_c, 2, 63, 0
1, 8830, Note_on_c, 2, 56, 0
1, 8830, Note_on_c, 2, 59, 0
1, 8830, Note_on_c, 1, 37, 91
1, 8830, Note_on_c, 11, 37, 87
1, 8831, Note_on_c, 9, 42, 83
1, 8832, Note_on_c, 9, 42, 0
1, 8832, Note_on_c, 1, 34, 0
1, 8832, Note_on_c, 4, 64, 0
1, 8832, Note_on_c, 4, 52, 0
1, 8832, Note_on_c, 11, 34, 0
1, 8832, Note_on_c, 0, 65, 69
1, 8832, Note_on_c, 2, 63, 68
1, 8832, Note_on_c, 2, 59, 77
1, 8832, Note_on_c, 2, 56, 58
1, 8832, Note_on_c, 4, 49, 76
1, 8832, Note_on_c, 4, 61, 76
1, 8832, Note_on_c, 9, 36, 114
1, 8833, Note_on_c, 9, 36, 0
1, 8833, Note_on_c, 0, 59, 89
1, 8833, Note_on_c, 0, 63, 65
1, 8833, Note_on_c, 0, 56, 63
1, 8833, Note_on_c, 3, 61, 71
1, 8834, Note_on_c, 3, 64, 0
1, 8850, Note_on_c, 0, 59, 0
1, 8855, Note_on_c, 9, 44, 49
1, 8856, Note_on_c, 9, 44, 0
1, 8856, Note_on_c, 4, 61, 0
1, 8856, Note_on_c, 4, 49, 0
1, 8856, Note_on_c, 4, 63, 76
1, 8856, Note_on_c, 4, 51, 76
1, 8857, Note_on_c, 0, 59, 67
1, 8857, Note_on_c, 3, 63, 84
1, 8862, Note_on_c, 11, 37, 0
1, 8862, Note_on_c, 1, 37, 0
1, 8862, Note_on_c, 3, 61, 0
1, 8876, Note_on_c, 0, 65, 0
1, 8876, Note_on_c, 0, 59, 0
1, 8878, Note_on_c, 2, 63, 0
1, 8878, Note_on_c, 2, 56, 0
1, 8878, Note_on_c, 2, 53, 0
1, 8878, Note_on_c, 2, 59, 0
1, 8878, Note_on_c, 9, 69, 33
1, 8879, Note_on_c, 9, 69, 0
1, 8879, Note_on_c, 0, 63, 0
1, 8879, Note_on_c, 9, 42, 42
1, 8880, Note_on_c, 9, 42, 0
1, 8880, Note_on_c, 4, 51, 0
1, 8880, Note_on_c, 4, 63, 0
1, 8880, Note_on_c, 2, 56, 65
1, 8880, Note_on_c, 2, 59, 87
1, 8880, Note_on_c, 2, 53, 67
1, 8880, Note_on_c, 2, 63, 93
1, 8880, Note_on_c, 3, 64, 95
1, 8880, Note_on_c, 4, 52, 76
1, 8880, Note_on_c, 4, 64, 76
1, 8881, Note_on_c, 0, 49, 65
1, 8882, Note_on_c, 0, 56, 0
1, 8883, Note_on_c, 3, 63, 0
1, 8886, Note_on_c, 2, 56, 0
1, 8888, Note_on_c, 2, 59, 0
1, 8888, Note_on_c, 2, 53, 0
1, 8888, Note_on_c, 2, 63, 0
1, 8898, Note_on_c, 0, 49, 0
1, 8902, Note_on_c, 0, 65, 67
1, 8902, Note_on_c, 0, 63, 68
1, 8902, Note_on_c, 0, 59, 84
1, 8903, Note_on_c, 0, 56, 57
1, 8903, Note_on_c, 9, 69, 27
1, 8903, Note_on_c, 9, 42, 41
1, 8904, Note_on_c, 9, 42, 0
1, 8904, Note_on_c, 9, 69, 0
1, 8904, Note_on_c, 4, 52, 0
1, 8904, Note_on_c, 4, 64, 0
1, 8904, Note_on_c, 2, 56, 57
1, 8904, Note_on_c, 2, 59, 61
1, 8904, Note_on_c, 2, 53, 58
1, 8904, Note_on_c, 2, 63, 59
1, 8904, Note_on_c, 4, 63, 76
1, 8904, Note_on_c, 4, 51, 76
1, 8905, Note_on_c, 3, 63, 75
1, 8906, Note_on_c, 3, 64, 0
1, 8924, Note_on_c, 0, 59, 0
1, 8926, Note_on_c, 2, 63, 0
1, 8926, Note_on_c, 2, 53, 0
1, 8926, Note_on_c, 0, 63, 0
1, 8926, Note_on_c, 2, 56, 0
1, 8926, Note_on_c, 2, 59, 0
1, 8927, Note_on_c, 9, 40, 107
1, 8927, Note_on_c, 9, 75, 76
1, 8928, Note_on_c, 9, 75, 0
1, 8928, Note_on_c, 9, 40, 0
1, 8928, Note_on_c, 2, 56, 54
1, 8928, Note_on_c, 2, 63, 53
1, 8928, Note_on_c, 2, 59, 53
1, 8928, Note_on_c, 2, 53, 49
1, 8928, Note_on_c, 9, 42, 87
1, 8929, Note_on_c, 9, 42, 0
1, 8929, Note_on_c, 0, 56, 0
1, 8929, Note_on_c, 0, 65, 0
1, 8950, Note_on_c, 2, 59, 0
1, 8950, Note_on_c, 2, 63, 0
1, 8950, Note_on_c, 2, 53, 0
1, 8950, Note_on_c, 2, 56, 0
1, 8950, Note_on_c, 0, 59, 87
1, 8950, Note_on_c, 0, 63, 63
1, 8950, Note_on_c, 0, 65, 59
1, 8950, Note_on_c, 0, 56, 56
1, 8952, Note_on_c, 2, 63, 56
1, 8952, Note_on_c, 2, 53, 59
1, 8952, Note_on_c, 2, 56, 58
1, 8952, Note_on_c, 2, 59, 61
1, 8953, Note_on_c, 9, 44, 57
1, 8954, Note_on_c, 9, 44, 0
1, 8962, Note_on_c, 2, 56, 0
1, 8962, Note_on_c, 2, 59, 0
1, 8964, Note_on_c, 2, 63, 0
1, 8966, Note_on_c, 2, 53, 0
1, 8967, Note_on_c, 0, 65, 0
1, 8967, Note_on_c, 0, 59, 0
1, 8969, Note_on_c, 0, 63, 0
1, 8973, Note_on_c, 0, 56, 0
1, 8975, Note_on_c, 9, 69, 35
1, 8975, Note_on_c, 9, 42, 44
1, 8976, Note_on_c, 9, 42, 0
1, 8976, Note_on_c, 9, 69, 0
1, 8976, Note_on_c, 2, 56, 47
1, 8976, Note_on_c, 2, 59, 60
1, 8976, Note_on_c, 2, 53, 53
1, 8976, Note_on_c, 2, 63, 55
1, 8977, Note_on_c, 0, 49, 53
1, 8982, Note_on_c, 0, 49, 0
1, 8998, Note_on_c, 2, 63, 0
1, 8998, Note_on_c, 2, 59, 0
1, 8998, Note_on_c, 2, 56, 0
1, 8998, Note_on_c, 2, 53, 0
1, 8998, Note_on_c, 9, 69, 25
1, 8999, Note_on_c, 9, 69, 0
1, 8999, Note_on_c, 1, 32, 70
1, 8999, Note_on_c, 9, 36, 105
1, 8999, Note_on_c, 9, 42, 46
1, 8999, Note_on_c, 11, 32, 66
1, 9000, Note_on_c, 9, 42, 0
1, 9000, Note_on_c, 9, 36, 0
1, 9000, Note_on_c, 2, 63, 65
1, 9000, Note_on_c, 2, 56, 60
1, 9000, Note_on_c, 2, 53, 59
1, 9000, Note_on_c, 2, 59, 72
1, 9002, Note_on_c, 0, 49, 60
1, 9013, Note_on_c, 0, 49, 0
1, 9018, Note_on_c, 1, 32, 0
1, 9018, Note_on_c, 11, 32, 0
1, 9022, Note_on_c, 2, 53, 0
1, 9022, Note_on_c, 2, 56, 0
1, 9022, Note_on_c, 2, 59, 0
1, 9022, Note_on_c, 2, 63, 0
1, 9022, Note_on_c, 0, 56, 65
1, 9022, Note_on_c, 0, 65, 66
1, 9022, Note_on_c, 0, 59, 89
1, 9022, Note_on_c, 1, 37, 88
1, 9022, Note_on_c, 9, 36, 67
1, 9022, Note_on_c, 11, 37, 84
1, 9023, Note_on_c, 9, 36, 0
1, 9024, Note_on_c, 0, 63, 69
1, 9024, Note_on_c, 2, 53, 59
1, 9024, Note_on_c, 2, 59, 75
1, 9024, Note_on_c, 2, 63, 65
1, 9024, Note_on_c, 2, 56, 62
1, 9024, Note_on_c, 9, 42, 70
1, 9025, Note_on_c, 9, 42, 0
1, 9042, Note_on_c, 0, 63, 0
1, 9045, Note_on_c, 0, 59, 0
1, 9046, Note_on_c, 0, 56, 0
1, 9047, Note_on_c, 1, 32, 69
1, 9047, Note_on_c, 9, 44, 52
1, 9047, Note_on_c, 11, 32, 65
1, 9048, Note_on_c, 9, 44, 0
1, 9048, Note_on_c, 11, 37, 0
1, 9048, Note_on_c, 1, 37, 0
1, 9050, Note_on_c, 0, 65, 0
1, 9070, Note_on_c, 2, 53, 0
1, 9070, Note_on_c, 2, 63, 0
1, 9070, Note_on_c, 2, 59, 0
1, 9070, Note_on_c, 2, 56, 0
1, 9070, Note_on_c, 0, 56, 62
1, 9070, Note_on_c, 0, 59, 87
1, 9070, Note_on_c, 0, 65, 63
1, 9070, Note_on_c, 9, 69, 45
1, 9071, Note_on_c, 9, 69, 0
1, 9071, Note_on_c, 0, 63, 73
1, 9071, Note_on_c, 1, 37, 91
1, 9071, Note_on_c, 9, 36, 107
1, 9071, Note_on_c, 9, 42, 46
1, 9071, Note_on_c, 11, 37, 87
1, 9072, Note_on_c, 9, 42, 0
1, 9072, Note_on_c, 9, 36, 0
1, 9072, Note_on_c, 2, 63, 95
1, 9072, Note_on_c, 2, 59, 95
1, 9072, Note_on_c, 2, 56, 63
1, 9072, Note_on_c, 2, 53, 64
1, 9073, Note_on_c, 1, 32, 0
1, 9073, Note_on_c, 11, 32, 0
1, 9078, Note_on_c, 2, 59, 0
1, 9078, Note_on_c, 2, 56, 0
1, 9080, Note_on_c, 2, 63, 0
1, 9080, Note_on_c, 2, 53, 0
1, 9094, Note_on_c, 9, 69, 26
1, 9095, Note_on_c, 9, 69, 0
1, 9095, Note_on_c, 1, 37, 0
1, 9095, Note_on_c, 11, 37, 0
1, 9095, Note_on_c, 9, 42, 37
1, 9096, Note_on_c, 9, 42, 0
1, 9096, Note_on_c, 2, 56, 54
1, 9096, Note_on_c, 2, 59, 60
1, 9096, Note_on_c, 2, 63, 58
1, 9096, Note_on_c, 2, 53, 59
1, 9118, Note_on_c, 2, 63, 0
1, 9118, Note_on_c, 2, 59, 0
1, 9118, Note_on_c, 2, 56, 0
1, 9118, Note_on_c, 0, 49, 64
1, 9119, Note_on_c, 0, 63, 0
1, 9119, Note_on_c, 9, 40, 110
1, 9119, Note_on_c, 9, 75, 82
1, 9119, Note_on_c, 9, 42, 91
1, 9120, Note_on_c, 9, 42, 0
1, 9120, Note_on_c, 9, 75, 0
1, 9120, Note_on_c, 9, 40, 0
1, 9120, Note_on_c, 2, 56, 47
1, 9120, Note_on_c, 2, 59, 59
1, 9120, Note_on_c, 2, 63, 52
1, 9123, Note_on_c, 0, 59, 0
1, 9125, Note_on_c, 0, 65, 0
1, 9126, Note_on_c, 0, 56, 0
1, 9138, Note_on_c, 0, 49, 0
1, 9142, Note_on_c, 2, 56, 0
1, 9142, Note_on_c, 2, 59, 0
1, 9142, Note_on_c, 2, 63, 0
1, 9142, Note_on_c, 2, 53, 0
1, 9142, Note_on_c, 0, 56, 61
1, 9142, Note_on_c, 0, 65, 61
1, 9142, Note_on_c, 0, 59, 80
1, 9142, Note_on_c, 1, 32, 73
1, 9142, Note_on_c, 11, 32, 69
1, 9143, Note_on_c, 0, 63, 68
1, 9143, Note_on_c, 9, 44, 52
1, 9144, Note_on_c, 9, 44, 0
1, 9144, Note_on_c, 2, 56, 60
1, 9144, Note_on_c, 2, 63, 61
1, 9144, Note_on_c, 2, 59, 67
1, 9144, Note_on_c, 2, 53, 59
1, 9152, Note_on_c, 2, 56, 0
1, 9153, Note_on_c, 2, 59, 0
1, 9156, Note_on_c, 2, 63, 0
1, 9156, Note_on_c, 2, 53, 0
1, 9158, Note_on_c, 0, 63, 0
1, 9161, Note_on_c, 0, 65, 0
1, 9162, Note_on_c, 0, 59, 0
1, 9163, Note_on_c, 11, 32, 0
1, 9163, Note_on_c, 1, 32, 0
1, 9166, Note_on_c, 1, 35, 86
1, 9166, Note_on_c, 9, 69, 39
1, 9166, Note_on_c, 11, 35, 82
1, 9167, Note_on_c, 9, 69, 0
1, 9167, Note_on_c, 9, 42, 48
1, 9168, Note_on_c, 9, 42, 0
1, 9168, Note_on_c, 2, 59, 61
1, 9168, Note_on_c, 2, 63, 57
1, 9168, Note_on_c, 2, 53, 47
1, 9168, Note_on_c, 2, 56, 50
1, 9170, Note_on_c, 3, 63, 0
1, 9170, Note_on_c, 0, 56, 0
1, 9170, Note_on_c, 0, 49, 47
1, 9175, Note_on_c, 0, 49, 0
1, 9183, Note_on_c, 11, 35, 0
1, 9183, Note_on_c, 1, 35, 0
1, 9186, Note_on_c, 2, 53, 0
1, 9188, Note_on_c, 2, 59, 0
1, 9188, Note_on_c, 2, 56, 0
1, 9189, Note_on_c, 2, 63, 0
1, 9190, Note_on_c, 1, 36, 80
1, 9190, Note_on_c, 9, 69, 25
1, 9190, Note_on_c, 11, 36, 76
1, 9191, Note_on_c, 9, 69, 0
1, 9191, Note_on_c, 9, 42, 48
1, 9192, Note_on_c, 9, 42, 0
1, 9192, Note_on_c, 2, 61, 58
1, 9192, Note_on_c, 2, 63, 61
1, 9192, Note_on_c, 2, 58, 60
1, 9192, Note_on_c, 2, 54, 58
1, 9194, Note_on_c, 0, 49, 54
1, 9208, Note_on_c, 0, 49, 0
1, 9214, Note_on_c, 11, 36, 0
1, 9214, Note_on_c, 2, 54, 0
1, 9214, Note_on_c, 2, 61, 0
1, 9214, Note_on_c, 2, 58, 0
1, 9214, Note_on_c, 1, 36, 0
1, 9214, Note_on_c, 2, 63, 0
1, 9214, Note_on_c, 1, 37, 92
1, 9214, Note_on_c, 11, 37, 88
1, 9215, Note_on_c, 0, 58, 68
1, 9215, Note_on_c, 0, 63, 65
1, 9215, Note_on_c, 9, 36, 113
1, 9216, Note_on_c, 9, 36, 0
1, 9216, Note_on_c, 4, 63, 0
1, 9216, Note_on_c, 4, 51, 0
1, 9216, Note_on_c, 0, 61, 65
1, 9216, Note_on_c, 0, 54, 71
1, 9216, Note_on_c, 2, 54, 59
1, 9216, Note_on_c, 2, 58, 67
1, 9216, Note_on_c, 2, 61, 65
1, 9216, Note_on_c, 2, 63, 68
1, 9216, Note_on_c, 9, 42, 73
1, 9217, Note_on_c, 9, 42, 0
1, 9228, Note_on_c, 0, 61, 0
1, 9230, Note_on_c, 0, 58, 0
1, 9238, Note_on_c, 0, 58, 53
1, 9238, Note_on_c, 0, 61, 57
1, 9240, Note_on_c, 9, 44, 42
1, 9241, Note_on_c, 9, 44, 0
1, 9254, Note_on_c, 11, 37, 0
1, 9254, Note_on_c, 1, 37, 0
1, 9258, Note_on_c, 0, 58, 0
1, 9261, Note_on_c, 0, 61, 0
1, 9262, Note_on_c, 0, 63, 0
1, 9262, Note_on_c, 2, 58, 0
1, 9262, Note_on_c, 2, 63, 0
1, 9262, Note_on_c, 2, 61, 0
1, 9262, Note_on_c, 2, 54, 0
1, 9262, Note_on_c, 9, 69, 35
1, 9263, Note_on_c, 9, 69, 0
1, 9263, Note_on_c, 0, 54, 0
1, 9263, Note_on_c, 9, 42, 42
1, 9264, Note_on_c, 9, 42, 0
1, 9264, Note_on_c, 2, 61, 96
1, 9264, Note_on_c, 2, 63, 96
1, 9264, Note_on_c, 2, 54, 96
1, 9264, Note_on_c, 2, 58, 96
1, 9266, Note_on_c, 0, 49, 70
1, 9272, Note_on_c, 2, 58, 0
1, 9272, Note_on_c, 2, 63, 0
1, 9272, Note_on_c, 2, 61, 0
1, 9276, Note_on_c, 2, 54, 0
1, 9281, Note_on_c, 0, 49, 0
1, 9286, Note_on_c, 0, 63, 61
1, 9287, Note_on_c, 9, 42, 42
1, 9288, Note_on_c, 9, 42, 0
1, 9288, Note_on_c, 0, 58, 64
1, 9288, Note_on_c, 2, 54, 66
1, 9288, Note_on_c, 2, 61, 71
1, 9288, Note_on_c, 2, 58, 60
1, 9288, Note_on_c, 2, 63, 59
1, 9288, Note_on_c, 9, 69, 24
1, 9289, Note_on_c, 9, 69, 0
1, 9289, Note_on_c, 0, 54, 58
1, 9289, Note_on_c, 0, 61, 63
1, 9306, Note_on_c, 0, 63, 0
1, 9307, Note_on_c, 0, 58, 0
1, 9309, Note_on_c, 3, 61, 86
1, 9310, Note_on_c, 2, 61, 0
1, 9310, Note_on_c, 0, 61, 0
1, 9310, Note_on_c, 2, 58, 0
1, 9310, Note_on_c, 2, 54, 0
1, 9311, Note_on_c, 0, 49, 50
1, 9311, Note_on_c, 9, 40, 104
1, 9311, Note_on_c, 9, 75, 76
1, 9312, Note_on_c, 9, 75, 0
1, 9312, Note_on_c, 9, 40, 0
1, 9312, Note_on_c, 2, 58, 52
1, 9312, Note_on_c, 2, 61, 58
1, 9312, Note_on_c, 2, 54, 60
1, 9312, Note_on_c, 4, 49, 69
1, 9312, Note_on_c, 4, 61, 69
1, 9312, Note_on_c, 9, 42, 81
1, 9313, Note_on_c, 9, 42, 0
1, 9314, Note_on_c, 0, 54, 0
1, 9319, Note_on_c, 0, 49, 0
1, 9334, Note_on_c, 2, 63, 0
1, 9334, Note_on_c, 2, 61, 0
1, 9334, Note_on_c, 2, 58, 0
1, 9334, Note_on_c, 2, 54, 0
1, 9335, Note_on_c, 3, 61, 0
1, 9335, Note_on_c, 9, 44, 43
1, 9336, Note_on_c, 9, 44, 0
1, 9336, Note_on_c, 4, 49, 0
1, 9336, Note_on_c, 4, 61, 0
1, 9336, Note_on_c, 0, 54, 65
1, 9336, Note_on_c, 0, 58, 68
1, 9336, Note_on_c, 0, 63, 62
1, 9336, Note_on_c, 2, 58, 49
1, 9336, Note_on_c, 2, 61, 54
1, 9336, Note_on_c, 2, 54, 58
1, 9336, Note_on_c, 2, 63, 46
1, 9336, Note_on_c, 3, 68, 82
1, 9336, Note_on_c, 4, 68, 69
1, 9336, Note_on_c, 4, 56, 69
1, 9337, Note_on_c, 0, 61, 69
1, 9345, Note_on_c, 2, 61, 0
1, 9348, Note_on_c, 2, 58, 0
1, 9349, Note_on_c, 2, 63, 0
1, 9350, Note_on_c, 2, 54, 0
1, 9355, Note_on_c, 0, 63, 0
1, 9357, Note_on_c, 0, 58, 0
1, 9358, Note_on_c, 0, 61, 0
1, 9358, Note_on_c, 9, 69, 45
1, 9359, Note_on_c, 9, 69, 0
1, 9359, Note_on_c, 9, 42, 50
1, 9360, Note_on_c, 9, 42, 0
1, 9360, Note_on_c, 2, 61, 61
1, 9360, Note_on_c, 2, 63, 58
1, 9360, Note_on_c, 2, 54, 53
1, 9360, Note_on_c, 2, 58, 58
1, 9369, Note_on_c, 0, 54, 0
1, 9378, Note_on_c, 2, 61, 0
1, 9382, Note_on_c, 2, 63, 0
1, 9382, Note_on_c, 2, 58, 0
1, 9382, Note_on_c, 2, 54, 0
1, 9382, Note_on_c, 9, 69, 34
1, 9383, Note_on_c, 9, 69, 0
1, 9383, Note_on_c, 1, 32, 72
1, 9383, Note_on_c, 9, 42, 43
1, 9383, Note_on_c, 11, 32, 68
1, 9384, Note_on_c, 9, 42, 0
1, 9384, Note_on_c, 4, 56, 0
1, 9384, Note_on_c, 4, 68, 0
1, 9384, Note_on_c, 0, 49, 50
1, 9384, Note_on_c, 2, 61, 59
1, 9384, Note_on_c, 2, 63, 65
1, 9384, Note_on_c, 2, 58, 61
1, 9384, Note_on_c, 2, 54, 61
1, 9384, Note_on_c, 3, 66, 83
1, 9384, Note_on_c, 4, 66, 69
1, 9384, Note_on_c, 4, 54, 69
1, 9385, Note_on_c, 9, 36, 110
1, 9386, Note_on_c, 9, 36, 0
1, 9390, Note_on_c, 3, 68, 0
1, 9400, Note_on_c, 0, 49, 0
1, 9404, Note_on_c, 1, 32, 0
1, 9404, Note_on_c, 11, 32, 0
1, 9406, Note_on_c, 2, 54, 0
1, 9406, Note_on_c, 2, 58, 0
1, 9406, Note_on_c, 2, 61, 0
1, 9406, Note_on_c, 2, 63, 0
1, 9406, Note_on_c, 0, 58, 92
1, 9406, Note_on_c, 0, 54, 77
1, 9406, Note_on_c, 0, 61, 68
1, 9406, Note_on_c, 0, 63, 61
1, 9407, Note_on_c, 1, 37, 82
1, 9407, Note_on_c, 9, 36, 64
1, 9407, Note_on_c, 11, 37, 78
1, 9408, Note_on_c, 9, 36, 0
1, 9408, Note_on_c, 2, 58, 65
1, 9408, Note_on_c, 2, 61, 61
1, 9408, Note_on_c, 2, 54, 63
1, 9408, Note_on_c, 2, 63, 65
1, 9408, Note_on_c, 9, 42, 85
1, 9409, Note_on_c, 9, 42, 0
1, 9426, Note_on_c, 0, 61, 0
1, 9426, Note_on_c, 0, 58, 0
1, 9428, Note_on_c, 1, 37, 0
1, 9428, Note_on_c, 11, 37, 0
1, 9430, Note_on_c, 0, 54, 0
1, 9430, Note_on_c, 0, 63, 0
1, 9431, Note_on_c, 1, 32, 72
1, 9431, Note_on_c, 9, 44, 42
1, 9431, Note_on_c, 11, 32, 68
1, 9432, Note_on_c, 9, 44, 0
1, 9432, Note_on_c, 3, 66, 0
1, 9432, Note_on_c, 4, 66, 0
1, 9432, Note_on_c, 4, 54, 0
1, 9432, Note_on_c, 4, 53, 68
1, 9432, Note_on_c, 4, 65, 68
1, 9433, Note_on_c, 3, 65, 84
1, 9453, Note_on_c, 1, 32, 0
1, 9453, Note_on_c, 11, 32, 0
1, 9454, Note_on_c, 2, 54, 0
1, 9454, Note_on_c, 2, 63, 0
1, 9454, Note_on_c, 2, 58, 0
1, 9454, Note_on_c, 2, 61, 0
1, 9454, Note_on_c, 0, 58, 63
1, 9454, Note_on_c, 0, 61, 69
1, 9454, Note_on_c, 0, 63, 65
1, 9454, Note_on_c, 0, 54, 62
1, 9454, Note_on_c, 9, 69, 43
1, 9455, Note_on_c, 9, 69, 0
1, 9455, Note_on_c, 1, 37, 86
1, 9455, Note_on_c, 11, 37, 82
1, 9456, Note_on_c, 2, 58, 97
1, 9456, Note_on_c, 2, 61, 97
1, 9456, Note_on_c, 2, 54, 97
1, 9456, Note_on_c, 2, 63, 97
1, 9456, Note_on_c, 9, 42, 54
1, 9457, Note_on_c, 9, 42, 0
1, 9457, Note_on_c, 9, 36, 113
1, 9458, Note_on_c, 9, 36, 0
1, 9462, Note_on_c, 2, 61, 0
1, 9462, Note_on_c, 2, 58, 0
1, 9462, Note_on_c, 2, 63, 0
1, 9464, Note_on_c, 2, 54, 0
1, 9476, Note_on_c, 3, 63, 67
1, 9478, Note_on_c, 3, 65, 0
1, 9478, Note_on_c, 9, 69, 32
1, 9479, Note_on_c, 9, 69, 0
1, 9479, Note_on_c, 9, 42, 49
1, 9480, Note_on_c, 9, 42, 0
1, 9480, Note_on_c, 4, 53, 0
1, 9480, Note_on_c, 4, 65, 0
1, 9480, Note_on_c, 2, 61, 63
1, 9480, Note_on_c, 2, 63, 61
1, 9480, Note_on_c, 2, 58, 62
1, 9480, Note_on_c, 2, 54, 62
1, 9480, Note_on_c, 4, 63, 70
1, 9480, Note_on_c, 4, 51, 70
1, 9482, Note_on_c, 11, 37, 0
1, 9482, Note_on_c, 1, 37, 0
1, 9490, Note_on_c, 3, 65, 68
1, 9492, Note_on_c, 3, 63, 0
1, 9492, Note_on_c, 4, 51, 0
1, 9492, Note_on_c, 4, 63, 0
1, 9492, Note_on_c, 4, 65, 71
1, 9492, Note_on_c, 4, 53, 71
1, 9502, Note_on_c, 2, 63, 0
1, 9502, Note_on_c, 2, 54, 0
1, 9502, Note_on_c, 2, 58, 0
1, 9503, Note_on_c, 0, 63, 0
1, 9503, Note_on_c, 0, 49, 61
1, 9503, Note_on_c, 3, 63, 82
1, 9504, Note_on_c, 4, 65, 0
1, 9504, Note_on_c, 4, 53, 0
1, 9504, Note_on_c, 2, 58, 50
1, 9504, Note_on_c, 2, 63, 45
1, 9504, Note_on_c, 2, 54, 63
1, 9504, Note_on_c, 4, 51, 71
1, 9504, Note_on_c, 4, 63, 71
1, 9504, Note_on_c, 9, 75, 76
1, 9505, Note_on_c, 9, 75, 0
1, 9505, Note_on_c, 0, 61, 0
1, 9505, Note_on_c, 0, 54, 0
1, 9505, Note_on_c, 9, 40, 105
1, 9505, Note_on_c, 9, 42, 73
1, 9506, Note_on_c, 9, 42, 0
1, 9506, Note_on_c, 9, 40, 0
1, 9507, Note_on_c, 3, 65, 0
1, 9507, Note_on_c, 0, 58, 0
1, 9521, Note_on_c, 0, 49, 0
1, 9526, Note_on_c, 2, 58, 0
1, 9526, Note_on_c, 2, 63, 0
1, 9526, Note_on_c, 2, 54, 0
1, 9526, Note_on_c, 2, 61, 0
1, 9526, Note_on_c, 0, 54, 65
1, 9526, Note_on_c, 0, 63, 68
1, 9526, Note_on_c, 0, 58, 69
1, 9526, Note_on_c, 0, 61, 69
1, 9527, Note_on_c, 9, 44, 45
1, 9528, Note_on_c, 9, 44, 0
1, 9528, Note_on_c, 2, 58, 60
1, 9528, Note_on_c, 2, 61, 64
1, 9528, Note_on_c, 2, 63, 61
1, 9528, Note_on_c, 2, 54, 63
1, 9540, Note_on_c, 2, 61, 0
1, 9540, Note_on_c, 2, 58, 0
1, 9541, Note_on_c, 2, 54, 0
1, 9542, Note_on_c, 2, 63, 0
1, 9550, Note_on_c, 9, 69, 35
1, 9551, Note_on_c, 9, 69, 0
1, 9551, Note_on_c, 1, 32, 70
1, 9551, Note_on_c, 9, 42, 51
1, 9551, Note_on_c, 11, 32, 66
1, 9552, Note_on_c, 9, 42, 0
1, 9552, Note_on_c, 4, 63, 0
1, 9552, Note_on_c, 3, 63, 0
1, 9552, Note_on_c, 4, 51, 0
1, 9552, Note_on_c, 2, 61, 62
1, 9552, Note_on_c, 2, 63, 57
1, 9552, Note_on_c, 2, 54, 58
1, 9552, Note_on_c, 2, 58, 54
1, 9552, Note_on_c, 4, 49, 71
1, 9552, Note_on_c, 4, 61, 71
1, 9553, Note_on_c, 3, 61, 69
1, 9561, Note_on_c, 0, 58, 0
1, 9562, Note_on_c, 0, 63, 0
1, 9565, Note_on_c, 0, 61, 0
1, 9569, Note_on_c, 0, 54, 0
1, 9573, Note_on_c, 11, 32, 0
1, 9573, Note_on_c, 1, 32, 0
1, 9574, Note_on_c, 2, 63, 0
1, 9574, Note_on_c, 2, 54, 0
1, 9574, Note_on_c, 2, 61, 0
1, 9575, Note_on_c, 4, 49, 0
1, 9575, Note_on_c, 4, 61, 0
1, 9575, Note_on_c, 1, 35, 88
1, 9575, Note_on_c, 9, 42, 43
1, 9575, Note_on_c, 9, 69, 25
1, 9575, Note_on_c, 11, 35, 84
1, 9576, Note_on_c, 9, 69, 0
1, 9576, Note_on_c, 9, 42, 0
1, 9576, Note_on_c, 0, 49, 58
1, 9576, Note_on_c, 2, 57, 64
1, 9576, Note_on_c, 2, 54, 63
1, 9576, Note_on_c, 2, 61, 76
1, 9576, Note_on_c, 2, 63, 81
1, 9576, Note_on_c, 4, 49, 71
1, 9576, Note_on_c, 4, 61, 71
1, 9578, Note_on_c, 3, 61, 0
1, 9582, Note_on_c, 3, 61, 71
1, 9590, Note_on_c, 0, 49, 0
1, 9593, Note_on_c, 1, 35, 0
1, 9593, Note_on_c, 11, 35, 0
1, 9598, Note_on_c, 2, 63, 0
1, 9598, Note_on_c, 2, 61, 0
1, 9598, Note_on_c, 2, 54, 0
1, 9598, Note_on_c, 2, 57, 0
1, 9598, Note_on_c, 0, 63, 67
1, 9599, Note_on_c, 0, 54, 64
1, 9599, Note_on_c, 0, 57, 84
1, 9599, Note_on_c, 1, 37, 88
1, 9599, Note_on_c, 9, 36, 110
1, 9599, Note_on_c, 9, 42, 87
1, 9599, Note_on_c, 11, 37, 84
1, 9600, Note_on_c, 9, 42, 0
1, 9600, Note_on_c, 9, 36, 0
1, 9600, Note_on_c, 0, 61, 67
1, 9600, Note_on_c, 2, 57, 63
1, 9600, Note_on_c, 2, 61, 67
1, 9600, Note_on_c, 2, 54, 59
1, 9600, Note_on_c, 2, 63, 77
1, 9614, Note_on_c, 0, 57, 0
1, 9615, Note_on_c, 0, 63, 0
1, 9623, Note_on_c, 0, 57, 66
1, 9623, Note_on_c, 9, 44, 42
1, 9624, Note_on_c, 9, 44, 0
1, 9624, Note_on_c, 0, 63, 52
1, 9638, Note_on_c, 11, 37, 0
1, 9638, Note_on_c, 1, 37, 0
1, 9643, Note_on_c, 0, 57, 0
1, 9644, Note_on_c, 0, 63, 0
1, 9646, Note_on_c, 2, 63, 0
1, 9646, Note_on_c, 2, 57, 0
1, 9646, Note_on_c, 2, 54, 0
1, 9646, Note_on_c, 2, 61, 0
1, 9646, Note_on_c, 0, 49, 67
1, 9647, Note_on_c, 0, 54, 0
1, 9647, Note_on_c, 9, 69, 34
1, 9647, Note_on_c, 9, 42, 55
1, 9648, Note_on_c, 9, 42, 0
1, 9648, Note_on_c, 9, 69, 0
1, 9648, Note_on_c, 0, 61, 0
1, 9648, Note_on_c, 2, 57, 96
1, 9648, Note_on_c, 2, 61, 96
1, 9648, Note_on_c, 2, 54, 96
1, 9648, Note_on_c, 2, 63, 96
1, 9654, Note_on_c, 2, 63, 0
1, 9654, Note_on_c, 2, 61, 0
1, 9654, Note_on_c, 2, 58, 0
1, 9656, Note_on_c, 2, 57, 0
1, 9658, Note_on_c, 2, 54, 0
1, 9666, Note_on_c, 0, 49, 0
1, 9670, Note_on_c, 0, 57, 77
1, 9670, Note_on_c, 0, 54, 59
1, 9670, Note_on_c, 0, 61, 67
1, 9670, Note_on_c, 0, 63, 63
1, 9671, Note_on_c, 9, 42, 54
1, 9672, Note_on_c, 9, 42, 0
1, 9672, Note_on_c, 2, 61, 61
1, 9672, Note_on_c, 2, 63, 59
1, 9672, Note_on_c, 2, 57, 62
1, 9672, Note_on_c, 2, 54, 59
1, 9672, Note_on_c, 9, 69, 27
1, 9673, Note_on_c, 9, 69, 0
1, 9692, Note_on_c, 0, 63, 0
1, 9692, Note_on_c, 0, 57, 0
1, 9694, Note_on_c, 2, 54, 0
1, 9694, Note_on_c, 2, 61, 0
1, 9694, Note_on_c, 2, 57, 0
1, 9694, Note_on_c, 0, 61, 0
1, 9694, Note_on_c, 2, 63, 0
1, 9694, Note_on_c, 0, 49, 54
1, 9695, Note_on_c, 0, 54, 0
1, 9695, Note_on_c, 9, 40, 104
1, 9695, Note_on_c, 9, 42, 94
1, 9696, Note_on_c, 9, 42, 0
1, 9696, Note_on_c, 9, 40, 0
1, 9696, Note_on_c, 2, 57, 58
1, 9696, Note_on_c, 2, 54, 62
1, 9696, Note_on_c, 2, 61, 58
1, 9696, Note_on_c, 2, 63, 53
1, 9696, Note_on_c, 9, 75, 79
1, 9697, Note_on_c, 9, 75, 0
1, 9701, Note_on_c, 0, 49, 0
1, 9718, Note_on_c, 2, 57, 0
1, 9718, Note_on_c, 2, 54, 0
1, 9718, Note_on_c, 2, 63, 0
1, 9718, Note_on_c, 2, 61, 0
1, 9718, Note_on_c, 0, 63, 65
1, 9718, Note_on_c, 0, 57, 81
1, 9719, Note_on_c, 0, 54, 60
1, 9719, Note_on_c, 0, 61, 68
1, 9719, Note_on_c, 9, 44, 43
1, 9720, Note_on_c, 9, 44, 0
1, 9720, Note_on_c, 2, 54, 60
1, 9720, Note_on_c, 2, 57, 62
1, 9720, Note_on_c, 2, 63, 60
1, 9720, Note_on_c, 2, 61, 61
1, 9728, Note_on_c, 2, 61, 0
1, 9729, Note_on_c, 2, 57, 0
1, 9730, Note_on_c, 2, 54, 0
1, 9730, Note_on_c, 2, 63, 0
1, 9732, Note_on_c, 0, 57, 0
1, 9733, Note_on_c, 0, 63, 0
1, 9736, Note_on_c, 0, 61, 0
1, 9739, Note_on_c, 0, 54, 0
1, 9742, Note_on_c, 9, 69, 37
1, 9743, Note_on_c, 9, 69, 0
1, 9743, Note_on_c, 9, 42, 44
1, 9744, Note_on_c, 9, 42, 0
1, 9744, Note_on_c, 2, 57, 59
1, 9744, Note_on_c, 2, 54, 61
1, 9744, Note_on_c, 2, 61, 63
1, 9744, Note_on_c, 2, 63, 56
1, 9760, Note_on_c, 3, 61, 0
1, 9764, Note_on_c, 2, 54, 0
1, 9764, Note_on_c, 2, 63, 0
1, 9764, Note_on_c, 3, 61, 80
1, 9766, Note_on_c, 2, 57, 0
1, 9766, Note_on_c, 2, 61, 0
1, 9766, Note_on_c, 1, 32, 72
1, 9766, Note_on_c, 11, 32, 68
1, 9767, Note_on_c, 4, 49, 0
1, 9767, Note_on_c, 4, 61, 0
1, 9767, Note_on_c, 9, 42, 55
1, 9767, Note_on_c, 9, 69, 33
1, 9768, Note_on_c, 9, 69, 0
1, 9768, Note_on_c, 9, 42, 0
1, 9768, Note_on_c, 2, 61, 81
1, 9768, Note_on_c, 2, 57, 67
1, 9768, Note_on_c, 2, 63, 76
1, 9768, Note_on_c, 2, 54, 69
1, 9768, Note_on_c, 4, 49, 72
1, 9768, Note_on_c, 4, 61, 72
1, 9769, Note_on_c, 0, 49, 70
1, 9769, Note_on_c, 9, 36, 105
1, 9770, Note_on_c, 9, 36, 0
1, 9776, Note_on_c, 0, 49, 0
1, 9787, Note_on_c, 11, 32, 0
1, 9787, Note_on_c, 1, 32, 0
1, 9790, Note_on_c, 2, 61, 0
1, 9790, Note_on_c, 2, 54, 0
1, 9790, Note_on_c, 2, 57, 0
1, 9790, Note_on_c, 2, 63, 0
1, 9790, Note_on_c, 0, 54, 61
1, 9790, Note_on_c, 0, 61, 65
1, 9790, Note_on_c, 0, 63, 64
1, 9790, Note_on_c, 0, 57, 79
1, 9790, Note_on_c, 1, 37, 85
1, 9790, Note_on_c, 3, 63, 77
1, 9790, Note_on_c, 11, 37, 81
1, 9791, Note_on_c, 9, 36, 69
1, 9791, Note_on_c, 9, 42, 78
1, 9792, Note_on_c, 9, 42, 0
1, 9792, Note_on_c, 4, 61, 0
1, 9792, Note_on_c, 4, 49, 0
1, 9792, Note_on_c, 9, 36, 0
1, 9792, Note_on_c, 2, 61, 56
1, 9792, Note_on_c, 2, 57, 56
1, 9792, Note_on_c, 2, 54, 63
1, 9792, Note_on_c, 2, 63, 65
1, 9792, Note_on_c, 4, 51, 72
1, 9792, Note_on_c, 4, 63, 72
1, 9794, Note_on_c, 3, 61, 0
1, 9808, Note_on_c, 0, 57, 0
1, 9809, Note_on_c, 0, 63, 0
1, 9810, Note_on_c, 0, 54, 0
1, 9811, Note_on_c, 0, 61, 0
1, 9813, Note_on_c, 1, 37, 0
1, 9813, Note_on_c, 11, 37, 0
1, 9814, Note_on_c, 1, 32, 68
1, 9814, Note_on_c, 11, 32, 64
1, 9815, Note_on_c, 3, 64, 77
1, 9815, Note_on_c, 9, 44, 49
1, 9816, Note_on_c, 9, 44, 0
1, 9816, Note_on_c, 4, 51, 0
1, 9816, Note_on_c, 4, 63, 0
1, 9816, Note_on_c, 4, 52, 72
1, 9816, Note_on_c, 4, 64, 72
1, 9817, Note_on_c, 3, 63, 0
1, 9837, Note_on_c, 1, 32, 0
1, 9837, Note_on_c, 11, 32, 0
1, 9838, Note_on_c, 2, 57, 0
1, 9838, Note_on_c, 2, 54, 0
1, 9838, Note_on_c, 2, 63, 0
1, 9838, Note_on_c, 2, 61, 0
1, 9838, Note_on_c, 0, 63, 68
1, 9838, Note_on_c, 1, 37, 88
1, 9838, Note_on_c, 9, 69, 37
1, 9838, Note_on_c, 11, 37, 84
1, 9839, Note_on_c, 9, 69, 0
1, 9839, Note_on_c, 0, 57, 80
1, 9839, Note_on_c, 9, 36, 107
1, 9839, Note_on_c, 9, 42, 46
1, 9840, Note_on_c, 9, 42, 0
1, 9840, Note_on_c, 9, 36, 0
1, 9840, Note_on_c, 4, 52, 0
1, 9840, Note_on_c, 4, 64, 0
1, 9840, Note_on_c, 0, 54, 58
1, 9840, Note_on_c, 2, 54, 99
1, 9840, Note_on_c, 2, 63, 99
1, 9840, Note_on_c, 2, 57, 99
1, 9840, Note_on_c, 2, 61, 99
1, 9840, Note_on_c, 4, 51, 72
1, 9840, Note_on_c, 4, 63, 72
1, 9841, Note_on_c, 0, 61, 67
1, 9842, Note_on_c, 3, 63, 70
1, 9846, Note_on_c, 2, 61, 0
1, 9846, Note_on_c, 2, 63, 0
1, 9846, Note_on_c, 3, 64, 0
1, 9848, Note_on_c, 2, 57, 0
1, 9852, Note_on_c, 2, 54, 0
1, 9862, Note_on_c, 9, 69, 27
1, 9863, Note_on_c, 9, 69, 0
1, 9863, Note_on_c, 3, 61, 77
1, 9863, Note_on_c, 9, 42, 42
1, 9864, Note_on_c, 9, 42, 0
1, 9864, Note_on_c, 4, 51, 0
1, 9864, Note_on_c, 4, 63, 0
1, 9864, Note_on_c, 3, 63, 0
1, 9864, Note_on_c, 2, 57, 60
1, 9864, Note_on_c, 2, 54, 61
1, 9864, Note_on_c, 2, 61, 62
1, 9864, Note_on_c, 2, 63, 60
1, 9864, Note_on_c, 4, 61, 72
1, 9864, Note_on_c, 4, 49, 72
1, 9873, Note_on_c, 1, 37, 0
1, 9873, Note_on_c, 11, 37, 0
1, 9877, Note_on_c, 0, 57, 0
1, 9878, Note_on_c, 0, 61, 0
1, 9879, Note_on_c, 0, 63, 0
1, 9881, Note_on_c, 0, 54, 0
1, 9886, Note_on_c, 2, 54, 0
1, 9886, Note_on_c, 2, 61, 0
1, 9886, Note_on_c, 2, 63, 0
1, 9886, Note_on_c, 0, 49, 73
1, 9887, Note_on_c, 9, 40, 107
1, 9888, Note_on_c, 9, 40, 0
1, 9888, Note_on_c, 4, 49, 0
1, 9888, Note_on_c, 4, 61, 0
1, 9888, Note_on_c, 2, 63, 54
1, 9888, Note_on_c, 2, 54, 60
1, 9888, Note_on_c, 2, 61, 54
1, 9888, Note_on_c, 4, 46, 72
1, 9888, Note_on_c, 4, 58, 72
1, 9888, Note_on_c, 9, 75, 79
1, 9888, Note_on_c, 9, 42, 87
1, 9889, Note_on_c, 9, 42, 0
1, 9889, Note_on_c, 9, 75, 0
1, 9890, Note_on_c, 3, 58, 68
1, 9894, Note_on_c, 0, 49, 0
1, 9896, Note_on_c, 3, 61, 0
1, 9906, Note_on_c, 2, 57, 0
1, 9906, Note_on_c, 2, 54, 0
1, 9906, Note_on_c, 2, 63, 0
1, 9906, Note_on_c, 2, 61, 0
1, 9911, Note_on_c, 9, 44, 44
1, 9912, Note_on_c, 9, 44, 0
1, 9912, Note_on_c, 0, 64, 79
1, 9912, Note_on_c, 0, 54, 62
1, 9912, Note_on_c, 0, 61, 68
1, 9912, Note_on_c, 0, 57, 81
1, 9912, Note_on_c, 2, 54, 61
1, 9912, Note_on_c, 2, 57, 65
1, 9912, Note_on_c, 2, 61, 63
1, 9912, Note_on_c, 2, 64, 81
1, 9934, Note_on_c, 0, 54, 0
1, 9934, Note_on_c, 9, 69, 39
1, 9935, Note_on_c, 9, 69, 0
1, 9935, Note_on_c, 0, 64, 0
1, 9935, Note_on_c, 0, 49, 53
1, 9935, Note_on_c, 1, 32, 74
1, 9935, Note_on_c, 9, 42, 48
1, 9935, Note_on_c, 11, 32, 70
1, 9936, Note_on_c, 9, 42, 0
1, 9936, Note_on_c, 0, 57, 0
1, 9939, Note_on_c, 0, 61, 0
1, 9942, Note_on_c, 0, 49, 0
1, 9958, Note_on_c, 1, 32, 0
1, 9958, Note_on_c, 11, 32, 0
1, 9959, Note_on_c, 1, 35, 92
1, 9959, Note_on_c, 9, 69, 27
1, 9959, Note_on_c, 9, 42, 43
1, 9959, Note_on_c, 11, 35, 88
1, 9960, Note_on_c, 9, 42, 0
1, 9960, Note_on_c, 9, 69, 0
1, 9960, Note_on_c, 2, 60, 64
1, 9960, Note_on_c, 2, 65, 71
1, 9961, Note_on_c, 3, 58, 0
1, 9962, Note_on_c, 0, 49, 58
1, 9975, Note_on_c, 0, 49, 0
1, 9979, Note_on_c, 1, 35, 0
1, 9979, Note_on_c, 11, 35, 0
1, 9981, Note_on_c, 2, 57, 0
1, 9981, Note_on_c, 2, 60, 0
1, 9981, Note_on_c, 2, 61, 0
1, 9981, Note_on_c, 2, 64, 0
1, 9981, Note_on_c, 2, 65, 0
1, 9981, Note_on_c, 2, 54, 0
1, 9983, Note_on_c, 0, 65, 73
1, 9983, Note_on_c, 0, 63, 68
1, 9983, Note_on_c, 1, 37, 97
1, 9983, Note_on_c, 9, 42, 87
1, 9983, Note_on_c, 9, 36, 115
1, 9983, Note_on_c, 11, 37, 93
1, 9984, Note_on_c, 9, 36, 0
1, 9984, Note_on_c, 9, 42, 0
1, 9984, Note_on_c, 2, 60, 74
1, 9984, Note_on_c, 2, 56, 61
1, 9984, Note_on_c, 2, 65, 70
1, 9985, Note_on_c, 0, 56, 62
1, 9985, Note_on_c, 0, 60, 77
1, 9999, Note_on_c, 0, 63, 0
1, 10001, Note_on_c, 0, 60, 0
1, 10007, Note_on_c, 9, 44, 41
1, 10008, Note_on_c, 9, 44, 0
1, 10008, Note_on_c, 4, 46, 0
1, 10008, Note_on_c, 4, 58, 0
1, 10009, Note_on_c, 0, 63, 66
1, 10009, Note_on_c, 0, 60, 69
1, 10022, Note_on_c, 1, 37, 0
1, 10022, Note_on_c, 11, 37, 0
1, 10026, Note_on_c, 0, 60, 0
1, 10030, Note_on_c, 2, 60, 0
1, 10030, Note_on_c, 2, 65, 0
1, 10030, Note_on_c, 0, 63, 0
1, 10030, Note_on_c, 2, 56, 0
1, 10030, Note_on_c, 9, 69, 46
1, 10031, Note_on_c, 9, 69, 0
1, 10031, Note_on_c, 0, 65, 0
1, 10031, Note_on_c, 0, 49, 70
1, 10031, Note_on_c, 9, 42, 52
1, 10032, Note_on_c, 9, 42, 0
1, 10032, Note_on_c, 2, 60, 102
1, 10032, Note_on_c, 2, 65, 102
1, 10032, Note_on_c, 2, 56, 102
1, 10034, Note_on_c, 0, 56, 0
1, 10040, Note_on_c, 2, 60, 0
1, 10041, Note_on_c, 2, 56, 0
1, 10042, Note_on_c, 0, 49, 0
1, 10044, Note_on_c, 2, 65, 0
1, 10054, Note_on_c, 0, 65, 62
1, 10054, Note_on_c, 0, 56, 64
1, 10054, Note_on_c, 0, 60, 79
1, 10055, Note_on_c, 0, 63, 70
1, 10055, Note_on_c, 9, 69, 33
1, 10055, Note_on_c, 9, 42, 45
1, 10056, Note_on_c, 9, 42, 0
1, 10056, Note_on_c, 9, 69, 0
1, 10056, Note_on_c, 2, 65, 56
1, 10056, Note_on_c, 2, 53, 58
1, 10056, Note_on_c, 2, 56, 58
1, 10056, Note_on_c, 2, 60, 62
1, 10072, Note_on_c, 0, 60, 0
1, 10076, Note_on_c, 0, 49, 52
1, 10077, Note_on_c, 0, 63, 0
1, 10078, Note_on_c, 2, 60, 0
1, 10078, Note_on_c, 2, 53, 0
1, 10078, Note_on_c, 2, 65, 0
1, 10078, Note_on_c, 2, 56, 0
1, 10078, Note_on_c, 3, 61, 85
1, 10079, Note_on_c, 0, 56, 0
1, 10079, Note_on_c, 9, 75, 74
1, 10079, Note_on_c, 9, 40, 101
1, 10079, Note_on_c, 9, 42, 81
1, 10080, Note_on_c, 9, 42, 0
1, 10080, Note_on_c, 9, 75, 0
1, 10080, Note_on_c, 9, 40, 0
1, 10080, Note_on_c, 2, 56, 57
1, 10080, Note_on_c, 2, 60, 58
1, 10080, Note_on_c, 2, 53, 58
1, 10080, Note_on_c, 2, 65, 56
1, 10080, Note_on_c, 4, 61, 68
1, 10080, Note_on_c, 4, 49, 68
1, 10082, Note_on_c, 0, 49, 0
1, 10085, Note_on_c, 0, 65, 0
1, 10102, Note_on_c, 2, 60, 0
1, 10102, Note_on_c, 2, 65, 0
1, 10102, Note_on_c, 3, 61, 0
1, 10102, Note_on_c, 2, 56, 0
1, 10102, Note_on_c, 2, 53, 0
1, 10103, Note_on_c, 0, 65, 60
1, 10103, Note_on_c, 0, 60, 73
1, 10103, Note_on_c, 9, 44, 48
1, 10104, Note_on_c, 9, 44, 0
1, 10104, Note_on_c, 4, 49, 0
1, 10104, Note_on_c, 4, 61, 0
1, 10104, Note_on_c, 2, 56, 58
1, 10104, Note_on_c, 2, 60, 64
1, 10104, Note_on_c, 2, 53, 61
1, 10104, Note_on_c, 2, 65, 60
1, 10104, Note_on_c, 4, 58, 68
1, 10104, Note_on_c, 4, 70, 68
1, 10105, Note_on_c, 0, 56, 59
1, 10106, Note_on_c, 0, 63, 61
1, 10106, Note_on_c, 3, 70, 77
1, 10110, Note_on_c, 2, 56, 0
1, 10112, Note_on_c, 2, 60, 0
1, 10113, Note_on_c, 2, 53, 0
1, 10113, Note_on_c, 2, 65, 0
1, 10118, Note_on_c, 0, 60, 0
1, 10121, Note_on_c, 0, 63, 0
1, 10122, Note_on_c, 0, 56, 0
1, 10122, Note_on_c, 0, 65, 0
1, 10126, Note_on_c, 0, 49, 57
1, 10127, Note_on_c, 9, 69, 41
1, 10127, Note_on_c, 9, 42, 48
1, 10128, Note_on_c, 9, 42, 0
1, 10128, Note_on_c, 9, 69, 0
1, 10128, Note_on_c, 2, 65, 59
1, 10128, Note_on_c, 2, 56, 59
1, 10128, Note_on_c, 2, 60, 58
1, 10130, Note_on_c, 0, 49, 0
1, 10134, Note_on_c, 3, 70, 0
1, 10150, Note_on_c, 2, 65, 0
1, 10150, Note_on_c, 2, 60, 0
1, 10151, Note_on_c, 0, 49, 66
1, 10151, Note_on_c, 1, 32, 69
1, 10151, Note_on_c, 3, 68, 81
1, 10151, Note_on_c, 9, 42, 42
1, 10151, Note_on_c, 9, 36, 104
1, 10151, Note_on_c, 11, 32, 65
1, 10152, Note_on_c, 9, 36, 0
1, 10152, Note_on_c, 9, 42, 0
1, 10152, Note_on_c, 4, 58, 0
1, 10152, Note_on_c, 4, 70, 0
1, 10152, Note_on_c, 2, 60, 65
1, 10152, Note_on_c, 2, 65, 67
1, 10152, Note_on_c, 2, 53, 60
1, 10152, Note_on_c, 4, 68, 69
1, 10152, Note_on_c, 4, 56, 69
1, 10152, Note_on_c, 9, 69, 33
1, 10153, Note_on_c, 9, 69, 0
1, 10163, Note_on_c, 0, 49, 0
1, 10168, Note_on_c, 1, 32, 0
1, 10168, Note_on_c, 11, 32, 0
1, 10173, Note_on_c, 0, 65, 64
1, 10174, Note_on_c, 2, 53, 0
1, 10174, Note_on_c, 2, 65, 0
1, 10174, Note_on_c, 2, 60, 0
1, 10174, Note_on_c, 2, 56, 0
1, 10174, Note_on_c, 0, 56, 67
1, 10174, Note_on_c, 0, 60, 79
1, 10174, Note_on_c, 0, 63, 75
1, 10175, Note_on_c, 1, 37, 81
1, 10175, Note_on_c, 9, 36, 67
1, 10175, Note_on_c, 11, 37, 77
1, 10176, Note_on_c, 9, 36, 0
1, 10176, Note_on_c, 2, 53, 52
1, 10176, Note_on_c, 2, 60, 75
1, 10176, Note_on_c, 2, 65, 87
1, 10176, Note_on_c, 2, 56, 48
1, 10176, Note_on_c, 9, 42, 83
1, 10177, Note_on_c, 9, 42, 0
1, 10185, Note_on_c, 3, 68, 0
1, 10194, Note_on_c, 0, 60, 0
1, 10196, Note_on_c, 0, 63, 0
1, 10198, Note_on_c, 1, 37, 0
1, 10198, Note_on_c, 0, 65, 0
1, 10198, Note_on_c, 11, 37, 0
1, 10198, Note_on_c, 1, 32, 56
1, 10198, Note_on_c, 3, 66, 86
1, 10198, Note_on_c, 11, 32, 52
1, 10199, Note_on_c, 9, 44, 42
1, 10200, Note_on_c, 9, 44, 0
1, 10200, Note_on_c, 4, 56, 0
1, 10200, Note_on_c, 4, 68, 0
1, 10200, Note_on_c, 4, 66, 69
1, 10200, Note_on_c, 4, 54, 69
1, 10202, Note_on_c, 0, 56, 0
1, 10222, Note_on_c, 1, 32, 0
1, 10222, Note_on_c, 2, 60, 0
1, 10222, Note_on_c, 11, 32, 0
1, 10222, Note_on_c, 2, 56, 0
1, 10222, Note_on_c, 2, 65, 0
1, 10222, Note_on_c, 2, 53, 0
1, 10222, Note_on_c, 0, 56, 63
1, 10222, Note_on_c, 0, 63, 73
1, 10222, Note_on_c, 0, 65, 67
1, 10222, Note_on_c, 0, 60, 80
1, 10222, Note_on_c, 9, 69, 41
1, 10223, Note_on_c, 9, 69, 0
1, 10223, Note_on_c, 3, 66, 0
1, 10223, Note_on_c, 1, 37, 82
1, 10223, Note_on_c, 9, 36, 105
1, 10223, Note_on_c, 9, 42, 46
1, 10223, Note_on_c, 11, 37, 78
1, 10224, Note_on_c, 9, 42, 0
1, 10224, Note_on_c, 9, 36, 0
1, 10224, Note_on_c, 2, 53, 103
1, 10224, Note_on_c, 2, 65, 103
1, 10224, Note_on_c, 2, 60, 103
1, 10224, Note_on_c, 2, 56, 103
1, 10229, Note_on_c, 2, 56, 0
1, 10230, Note_on_c, 2, 65, 0
1, 10230, Note_on_c, 2, 60, 0
1, 10234, Note_on_c, 2, 53, 0
1, 10246, Note_on_c, 9, 69, 23
1, 10247, Note_on_c, 9, 69, 0
1, 10247, Note_on_c, 9, 42, 55
1, 10248, Note_on_c, 9, 42, 0
1, 10248, Note_on_c, 4, 54, 0
1, 10248, Note_on_c, 4, 66, 0
1, 10248, Note_on_c, 2, 56, 59
1, 10248, Note_on_c, 2, 53, 60
1, 10248, Note_on_c, 2, 60, 64
1, 10248, Note_on_c, 2, 63, 63
1, 10248, Note_on_c, 4, 53, 69
1, 10248, Note_on_c, 4, 65, 69
1, 10250, Note_on_c, 3, 65, 81
1, 10253, Note_on_c, 11, 37, 0
1, 10253, Note_on_c, 1, 37, 0
1, 10267, Note_on_c, 0, 60, 0
1, 10270, Note_on_c, 2, 60, 0
1, 10270, Note_on_c, 0, 63, 0
1, 10270, Note_on_c, 2, 53, 0
1, 10270, Note_on_c, 2, 63, 0
1, 10270, Note_on_c, 0, 49, 69
1, 10271, Note_on_c, 0, 65, 0
1, 10271, Note_on_c, 9, 42, 81
1, 10271, Note_on_c, 9, 75, 79
1, 10271, Note_on_c, 9, 40, 105
1, 10272, Note_on_c, 9, 40, 0
1, 10272, Note_on_c, 9, 75, 0
1, 10272, Note_on_c, 9, 42, 0
1, 10272, Note_on_c, 2, 53, 43
1, 10272, Note_on_c, 2, 63, 63
1, 10272, Note_on_c, 2, 60, 61
1, 10274, Note_on_c, 0, 56, 0
1, 10278, Note_on_c, 3, 65, 0
1, 10288, Note_on_c, 0, 49, 0
1, 10294, Note_on_c, 2, 53, 0
1, 10294, Note_on_c, 2, 56, 0
1, 10294, Note_on_c, 2, 60, 0
1, 10294, Note_on_c, 2, 63, 0
1, 10294, Note_on_c, 0, 63, 73
1, 10294, Note_on_c, 0, 65, 64
1, 10294, Note_on_c, 0, 60, 79
1, 10294, Note_on_c, 0, 56, 64
1, 10295, Note_on_c, 9, 44, 46
1, 10296, Note_on_c, 9, 44, 0
1, 10296, Note_on_c, 4, 65, 0
1, 10296, Note_on_c, 4, 53, 0
1, 10296, Note_on_c, 2, 56, 58
1, 10296, Note_on_c, 2, 63, 61
1, 10296, Note_on_c, 2, 60, 63
1, 10296, Note_on_c, 2, 53, 59
1, 10296, Note_on_c, 4, 49, 70
1, 10296, Note_on_c, 4, 61, 70
1, 10297, Note_on_c, 3, 61, 74
1, 10302, Note_on_c, 2, 56, 0
1, 10304, Note_on_c, 2, 60, 0
1, 10305, Note_on_c, 2, 63, 0
1, 10306, Note_on_c, 2, 53, 0
1, 10318, Note_on_c, 0, 60, 0
1, 10318, Note_on_c, 0, 63, 0
1, 10318, Note_on_c, 9, 69, 46
1, 10319, Note_on_c, 9, 69, 0
1, 10319, Note_on_c, 0, 65, 0
1, 10319, Note_on_c, 1, 32, 81
1, 10319, Note_on_c, 9, 42, 45
1, 10319, Note_on_c, 11, 32, 77
1, 10320, Note_on_c, 9, 42, 0
1, 10320, Note_on_c, 2, 60, 58
1, 10320, Note_on_c, 2, 63, 58
1, 10320, Note_on_c, 2, 56, 59
1, 10322, Note_on_c, 0, 56, 0
1, 10334, Note_on_c, 2, 56, 0
1, 10336, Note_on_c, 2, 60, 0
1, 10338, Note_on_c, 2, 63, 0
1, 10342, Note_on_c, 1, 32, 0
1, 10342, Note_on_c, 11, 32, 0
1, 10342, Note_on_c, 9, 69, 27
1, 10343, Note_on_c, 9, 69, 0
1, 10343, Note_on_c, 1, 34, 80
1, 10343, Note_on_c, 9, 42, 47
1, 10343, Note_on_c, 11, 34, 76
1, 10344, Note_on_c, 9, 42, 0
1, 10344, Note_on_c, 4, 49, 0
1, 10344, Note_on_c, 3, 61, 0
1, 10344, Note_on_c, 4, 61, 0
1, 10344, Note_on_c, 2, 53, 54
1, 10344, Note_on_c, 2, 59, 59
1, 10344, Note_on_c, 2, 56, 58
1, 10344, Note_on_c, 2, 63, 58
1, 10344, Note_on_c, 3, 64, 87
1, 10344, Note_on_c, 4, 64, 69
1, 10344, Note_on_c, 4, 52, 69
1, 10346, Note_on_c, 0, 49, 57
1, 10356, Note_on_c, 0, 49, 0
1, 10366, Note_on_c, 2, 53, 0
1, 10366, Note_on_c, 2, 63, 0
1, 10366, Note_on_c, 2, 59, 0
1, 10366, Note_on_c, 2, 56, 0
1, 10366, Note_on_c, 0, 59, 84
1, 10366, Note_on_c, 0, 56, 63
1, 10366, Note_on_c, 0, 63, 64
1, 10366, Note_on_c, 0, 65, 66
1, 10367, Note_on_c, 11, 34, 0
1, 10367, Note_on_c, 1, 34, 0
1, 10367, Note_on_c, 1, 37, 84
1, 10367, Note_on_c, 9, 36, 115
1, 10367, Note_on_c, 11, 37, 80
1, 10368, Note_on_c, 9, 36, 0
1, 10368, Note_on_c, 2, 53, 54
1, 10368, Note_on_c, 2, 59, 71
1, 10368, Note_on_c, 2, 63, 68
1, 10368, Note_on_c, 2, 56, 53
1, 10369, Note_on_c, 9, 42, 81
1, 10370, Note_on_c, 9, 42, 0
1, 10379, Note_on_c, 0, 59, 0
1, 10381, Note_on_c, 0, 63, 0
1, 10382, Note_on_c, 0, 65, 0
1, 10382, Note_on_c, 0, 56, 0
1, 10384, Note_on_c, 3, 64, 0
1, 10389, Note_on_c, 3, 61, 69
1, 10390, Note_on_c, 0, 65, 61
1, 10390, Note_on_c, 0, 63, 57
1, 10390, Note_on_c, 0, 56, 52
1, 10390, Note_on_c, 0, 59, 75
1, 10392, Note_on_c, 4, 52, 0
1, 10392, Note_on_c, 4, 64, 0
1, 10392, Note_on_c, 4, 49, 70
1, 10392, Note_on_c, 4, 61, 70
1, 10392, Note_on_c, 9, 44, 46
1, 10393, Note_on_c, 9, 44, 0
1, 10403, Note_on_c, 1, 37, 0
1, 10403, Note_on_c, 11, 37, 0
1, 10409, Note_on_c, 0, 65, 0
1, 10412, Note_on_c, 0, 63, 0
1, 10412, Note_on_c, 0, 59, 0
1, 10414, Note_on_c, 2, 53, 0
1, 10414, Note_on_c, 2, 56, 0
1, 10414, Note_on_c, 2, 63, 0
1, 10414, Note_on_c, 2, 59, 0
1, 10414, Note_on_c, 0, 49, 77
1, 10414, Note_on_c, 3, 63, 79
1, 10414, Note_on_c, 9, 69, 39
1, 10415, Note_on_c, 9, 69, 0
1, 10415, Note_on_c, 9, 42, 57
1, 10416, Note_on_c, 9, 42, 0
1, 10416, Note_on_c, 4, 61, 0
1, 10416, Note_on_c, 4, 49, 0
1, 10416, Note_on_c, 2, 63, 100
1, 10416, Note_on_c, 2, 59, 104
1, 10416, Note_on_c, 2, 53, 74
1, 10416, Note_on_c, 2, 56, 63
1, 10416, Note_on_c, 4, 63, 70
1, 10416, Note_on_c, 4, 51, 70
1, 10417, Note_on_c, 0, 56, 0
1, 10417, Note_on_c, 3, 61, 0
1, 10421, Note_on_c, 2, 56, 0
1, 10422, Note_on_c, 2, 63, 0
1, 10422, Note_on_c, 2, 59, 0
1, 10426, Note_on_c, 0, 49, 0
1, 10426, Note_on_c, 2, 53, 0
1, 10436, Note_on_c, 0, 63, 66
1, 10436, Note_on_c, 0, 59, 77
1, 10437, Note_on_c, 0, 56, 56
1, 10438, Note_on_c, 0, 65, 62
1, 10438, Note_on_c, 3, 64, 85
1, 10439, Note_on_c, 9, 42, 46
1, 10439, Note_on_c, 9, 69, 33
1, 10440, Note_on_c, 9, 69, 0
1, 10440, Note_on_c, 9, 42, 0
1, 10440, Note_on_c, 4, 51, 0
1, 10440, Note_on_c, 4, 63, 0
1, 10440, Note_on_c, 2, 59, 69
1, 10440, Note_on_c, 2, 53, 53
1, 10440, Note_on_c, 2, 56, 59
1, 10440, Note_on_c, 2, 63, 62
1, 10440, Note_on_c, 4, 52, 69
1, 10440, Note_on_c, 4, 64, 69
1, 10442, Note_on_c, 3, 63, 0
1, 10454, Note_on_c, 0, 65, 0
1, 10455, Note_on_c, 0, 59, 0
1, 10456, Note_on_c, 0, 63, 0
1, 10459, Note_on_c, 0, 56, 0
1, 10462, Note_on_c, 2, 53, 0
1, 10462, Note_on_c, 2, 56, 0
1, 10462, Note_on_c, 2, 63, 0
1, 10462, Note_on_c, 2, 59, 0
1, 10463, Note_on_c, 9, 75, 76
1, 10464, Note_on_c, 9, 75, 0
1, 10464, Note_on_c, 4, 64, 0
1, 10464, Note_on_c, 4, 52, 0
1, 10464, Note_on_c, 2, 59, 58
1, 10464, Note_on_c, 2, 63, 59
1, 10464, Note_on_c, 2, 56, 58
1, 10464, Note_on_c, 2, 53, 62
1, 10464, Note_on_c, 4, 51, 69
1, 10464, Note_on_c, 4, 63, 69
1, 10464, Note_on_c, 9, 40, 107
1, 10464, Note_on_c, 9, 42, 91
1, 10465, Note_on_c, 9, 42, 0
1, 10465, Note_on_c, 9, 40, 0
1, 10466, Note_on_c, 3, 63, 81
1, 10470, Note_on_c, 3, 64, 0
1, 10486, Note_on_c, 2, 59, 0
1, 10486, Note_on_c, 2, 53, 0
1, 10486, Note_on_c, 2, 56, 0
1, 10486, Note_on_c, 2, 63, 0
1, 10487, Note_on_c, 0, 59, 87
1, 10487, Note_on_c, 0, 63, 63
1, 10487, Note_on_c, 0, 56, 61
1, 10487, Note_on_c, 0, 65, 68
1, 10487, Note_on_c, 9, 44, 42
1, 10488, Note_on_c, 9, 44, 0
1, 10488, Note_on_c, 2, 53, 60
1, 10488, Note_on_c, 2, 56, 62
1, 10488, Note_on_c, 2, 63, 61
1, 10488, Note_on_c, 2, 59, 63
1, 10496, Note_on_c, 2, 59, 0
1, 10496, Note_on_c, 2, 56, 0
1, 10497, Note_on_c, 2, 53, 0
1, 10497, Note_on_c, 2, 63, 0
1, 10502, Note_on_c, 0, 65, 0
1, 10504, Note_on_c, 0, 63, 0
1, 10506, Note_on_c, 0, 59, 0
1, 10510, Note_on_c, 0, 49, 57
1, 10511, Note_on_c, 9, 69, 37
1, 10512, Note_on_c, 9, 69, 0
1, 10512, Note_on_c, 2, 53, 58
1, 10512, Note_on_c, 2, 59, 59
1, 10512, Note_on_c, 2, 63, 54
1, 10512, Note_on_c, 2, 56, 47
1, 10512, Note_on_c, 9, 42, 49
1, 10513, Note_on_c, 9, 42, 0
1, 10513, Note_on_c, 0, 56, 0
1, 10517, Note_on_c, 0, 49, 0
1, 10530, Note_on_c, 2, 59, 0
1, 10532, Note_on_c, 2, 53, 0
1, 10533, Note_on_c, 2, 63, 0
1, 10533, Note_on_c, 2, 56, 0
1, 10535, Note_on_c, 1, 32, 72
1, 10535, Note_on_c, 9, 69, 27
1, 10535, Note_on_c, 9, 42, 38
1, 10535, Note_on_c, 11, 32, 68
1, 10536, Note_on_c, 9, 42, 0
1, 10536, Note_on_c, 9, 69, 0
1, 10536, Note_on_c, 0, 49, 55
1, 10536, Note_on_c, 2, 59, 74
1, 10536, Note_on_c, 2, 53, 59
1, 10536, Note_on_c, 2, 63, 64
1, 10536, Note_on_c, 2, 56, 65
1, 10537, Note_on_c, 9, 36, 93
1, 10538, Note_on_c, 9, 36, 0
1, 10550, Note_on_c, 0, 49, 0
1, 10554, Note_on_c, 1, 32, 0
1, 10554, Note_on_c, 11, 32, 0
1, 10558, Note_on_c, 2, 53, 0
1, 10558, Note_on_c, 2, 63, 0
1, 10558, Note_on_c, 2, 59, 0
1, 10558, Note_on_c, 0, 56, 62
1, 10558, Note_on_c, 0, 65, 63
1, 10558, Note_on_c, 0, 63, 66
1, 10558, Note_on_c, 0, 59, 84
1, 10558, Note_on_c, 1, 37, 82
1, 10558, Note_on_c, 11, 37, 78
1, 10559, Note_on_c, 9, 36, 65
1, 10560, Note_on_c, 9, 36, 0
1, 10560, Note_on_c, 2, 63, 67
1, 10560, Note_on_c, 2, 53, 58
1, 10560, Note_on_c, 2, 59, 65
1, 10561, Note_on_c, 9, 42, 86
1, 10562, Note_on_c, 9, 42, 0
1, 10575, Note_on_c, 0, 63, 0
1, 10578, Note_on_c, 0, 59, 0
1, 10580, Note_on_c, 1, 37, 0
1, 10580, Note_on_c, 11, 37, 0
1, 10581, Note_on_c, 0, 56, 0
1, 10581, Note_on_c, 0, 65, 0
1, 10583, Note_on_c, 1, 32, 72
1, 10583, Note_on_c, 11, 32, 68
1, 10585, Note_on_c, 9, 44, 47
1, 10586, Note_on_c, 9, 44, 0
1, 10606, Note_on_c, 2, 63, 0
1, 10606, Note_on_c, 2, 56, 0
1, 10606, Note_on_c, 11, 32, 0
1, 10606, Note_on_c, 2, 53, 0
1, 10606, Note_on_c, 1, 32, 0
1, 10606, Note_on_c, 2, 59, 0
1, 10606, Note_on_c, 0, 59, 87
1, 10606, Note_on_c, 0, 65, 68
1, 10606, Note_on_c, 0, 63, 68
1, 10606, Note_on_c, 0, 56, 63
1, 10606, Note_on_c, 1, 37, 90
1, 10606, Note_on_c, 11, 37, 86
1, 10607, Note_on_c, 9, 69, 43
1, 10608, Note_on_c, 9, 69, 0
1, 10608, Note_on_c, 2, 63, 104
1, 10608, Note_on_c, 2, 53, 69
1, 10608, Note_on_c, 2, 59, 104
1, 10608, Note_on_c, 2, 56, 69
1, 10609, Note_on_c, 9, 36, 110
1, 10609, Note_on_c, 9, 42, 48
1, 10610, Note_on_c, 9, 42, 0
1, 10610, Note_on_c, 9, 36, 0
1, 10613, Note_on_c, 2, 56, 0
1, 10614, Note_on_c, 2, 59, 0
1, 10616, Note_on_c, 2, 63, 0
1, 10616, Note_on_c, 2, 53, 0
1, 10631, Note_on_c, 9, 69, 31
1, 10631, Note_on_c, 9, 42, 41
1, 10632, Note_on_c, 9, 42, 0
1, 10632, Note_on_c, 9, 69, 0
1, 10632, Note_on_c, 2, 53, 55
1, 10632, Note_on_c, 2, 59, 64
1, 10632, Note_on_c, 2, 63, 60
1, 10632, Note_on_c, 2, 56, 53
1, 10636, Note_on_c, 1, 37, 0
1, 10636, Note_on_c, 11, 37, 0
1, 10654, Note_on_c, 0, 63, 0
1, 10654, Note_on_c, 2, 59, 0
1, 10654, Note_on_c, 2, 53, 0
1, 10654, Note_on_c, 2, 63, 0
1, 10654, Note_on_c, 0, 49, 77
1, 10655, Note_on_c, 9, 75, 73
1, 10656, Note_on_c, 9, 75, 0
1, 10656, Note_on_c, 0, 59, 0
1, 10656, Note_on_c, 2, 59, 60
1, 10656, Note_on_c, 2, 53, 52
1, 10656, Note_on_c, 2, 63, 59
1, 10656, Note_on_c, 9, 40, 105
1, 10657, Note_on_c, 9, 40, 0
1, 10657, Note_on_c, 0, 65, 0
1, 10657, Note_on_c, 9, 42, 81
1, 10658, Note_on_c, 9, 42, 0
1, 10662, Note_on_c, 0, 56, 0
1, 10668, Note_on_c, 0, 49, 0
1, 10678, Note_on_c, 2, 56, 0
1, 10678, Note_on_c, 2, 59, 0
1, 10678, Note_on_c, 2, 53, 0
1, 10678, Note_on_c, 2, 63, 0
1, 10678, Note_on_c, 0, 56, 61
1, 10678, Note_on_c, 0, 65, 60
1, 10678, Note_on_c, 0, 63, 66
1, 10678, Note_on_c, 0, 59, 84
1, 10678, Note_on_c, 1, 32, 70
1, 10678, Note_on_c, 11, 32, 66
1, 10679, Note_on_c, 9, 44, 43
1, 10680, Note_on_c, 9, 44, 0
1, 10680, Note_on_c, 2, 63, 60
1, 10680, Note_on_c, 2, 59, 61
1, 10680, Note_on_c, 2, 53, 59
1, 10680, Note_on_c, 2, 56, 59
1, 10688, Note_on_c, 2, 56, 0
1, 10689, Note_on_c, 2, 59, 0
1, 10690, Note_on_c, 2, 63, 0
1, 10692, Note_on_c, 2, 53, 0
1, 10698, Note_on_c, 0, 65, 0
1, 10699, Note_on_c, 3, 63, 0
1, 10700, Note_on_c, 1, 32, 0
1, 10700, Note_on_c, 11, 32, 0
1, 10700, Note_on_c, 0, 63, 0
1, 10702, Note_on_c, 0, 59, 0
1, 10702, Note_on_c, 1, 35, 87
1, 10702, Note_on_c, 11, 35, 83
1, 10703, Note_on_c, 9, 42, 42
1, 10703, Note_on_c, 9, 69, 32
1, 10704, Note_on_c, 9, 69, 0
1, 10704, Note_on_c, 9, 42, 0
1, 10704, Note_on_c, 2, 53, 45
1, 10704, Note_on_c, 2, 63, 57
1, 10704, Note_on_c, 2, 59, 65
1, 10704, Note_on_c, 2, 56, 45
1, 10709, Note_on_c, 0, 56, 0
1, 10726, Note_on_c, 2, 63, 0
1, 10726, Note_on_c, 2, 53, 0
1, 10727, Note_on_c, 1, 36, 78
1, 10727, Note_on_c, 9, 69, 35
1, 10727, Note_on_c, 9, 42, 42
1, 10727, Note_on_c, 11, 36, 74
1, 10728, Note_on_c, 9, 42, 0
1, 10728, Note_on_c, 9, 69, 0
1, 10728, Note_on_c, 2, 56, 0
1, 10728, Note_on_c, 2, 59, 0
1, 10728, Note_on_c, 1, 35, 0
1, 10728, Note_on_c, 11, 35, 0
1, 10728, Note_on_c, 0, 49, 59
1, 10728, Note_on_c, 2, 63, 68
1, 10728, Note_on_c, 2, 54, 63
1, 10728, Note_on_c, 2, 58, 64
1, 10728, Note_on_c, 2, 61, 67
1, 10740, Note_on_c, 0, 49, 0
1, 10750, Note_on_c, 1, 36, 0
1, 10750, Note_on_c, 2, 61, 0
1, 10750, Note_on_c, 2, 63, 0
1, 10750, Note_on_c, 2, 58, 0
1, 10750, Note_on_c, 11, 36, 0
1, 10750, Note_on_c, 2, 54, 0
1, 10751, Note_on_c, 0, 54, 58
1, 10751, Note_on_c, 0, 58, 70
1, 10751, Note_on_c, 1, 37, 93
1, 10751, Note_on_c, 9, 36, 115
1, 10751, Note_on_c, 9, 42, 83
1, 10751, Note_on_c, 11, 37, 89
1, 10752, Note_on_c, 9, 42, 0
1, 10752, Note_on_c, 4, 63, 0
1, 10752, Note_on_c, 4, 51, 0
1, 10752, Note_on_c, 9, 36, 0
1, 10752, Note_on_c, 0, 63, 59
1, 10752, Note_on_c, 2, 61, 67
1, 10752, Note_on_c, 2, 63, 67
1, 10752, Note_on_c, 2, 54, 60
1, 10752, Note_on_c, 2, 58, 65
1, 10753, Note_on_c, 0, 61, 63
1, 10770, Note_on_c, 0, 61, 0
1, 10770, Note_on_c, 0, 58, 0
1, 10775, Note_on_c, 0, 61, 41
1, 10776, Note_on_c, 9, 44, 41
1, 10777, Note_on_c, 9, 44, 0
1, 10777, Note_on_c, 0, 58, 55
1, 10792, Note_on_c, 11, 37, 0
1, 10792, Note_on_c, 1, 37, 0
1, 10798, Note_on_c, 2, 54, 0
1, 10798, Note_on_c, 2, 58, 0
1, 10798, Note_on_c, 2, 61, 0
1, 10798, Note_on_c, 0, 54, 0
1, 10798, Note_on_c, 0, 58, 0
1, 10798, Note_on_c, 0, 61, 0
1, 10798, Note_on_c, 2, 63, 0
1, 10798, Note_on_c, 9, 69, 50
1, 10799, Note_on_c, 9, 69, 0
1, 10799, Note_on_c, 0, 63, 0
1, 10799, Note_on_c, 9, 42, 49
1, 10800, Note_on_c, 9, 42, 0
1, 10800, Note_on_c, 0, 49, 68
1, 10800, Note_on_c, 2, 61, 97
1, 10800, Note_on_c, 2, 58, 97
1, 10800, Note_on_c, 2, 54, 97
1, 10800, Note_on_c, 2, 63, 97
1, 10806, Note_on_c, 2, 61, 0
1, 10808, Note_on_c, 2, 63, 0
1, 10808, Note_on_c, 2, 58, 0
1, 10810, Note_on_c, 2, 54, 0
1, 10813, Note_on_c, 0, 49, 0
1, 10822, Note_on_c, 0, 63, 61
1, 10822, Note_on_c, 0, 54, 60
1, 10822, Note_on_c, 0, 58, 62
1, 10823, Note_on_c, 9, 42, 47
1, 10823, Note_on_c, 9, 69, 28
1, 10824, Note_on_c, 9, 69, 0
1, 10824, Note_on_c, 9, 42, 0
1, 10824, Note_on_c, 0, 61, 63
1, 10824, Note_on_c, 2, 63, 53
1, 10824, Note_on_c, 2, 61, 57
1, 10824, Note_on_c, 2, 58, 54
1, 10824, Note_on_c, 2, 54, 55
1, 10842, Note_on_c, 3, 61, 84
1, 10846, Note_on_c, 2, 54, 0
1, 10846, Note_on_c, 2, 58, 0
1, 10846, Note_on_c, 0, 63, 0
1, 10846, Note_on_c, 2, 63, 0
1, 10846, Note_on_c, 0, 54, 0
1, 10846, Note_on_c, 2, 61, 0
1, 10847, Note_on_c, 0, 61, 0
1, 10847, Note_on_c, 0, 58, 0
1, 10847, Note_on_c, 9, 42, 86
1, 10847, Note_on_c, 9, 40, 101
1, 10848, Note_on_c, 9, 40, 0
1, 10848, Note_on_c, 9, 42, 0
1, 10848, Note_on_c, 2, 54, 59
1, 10848, Note_on_c, 2, 58, 59
1, 10848, Note_on_c, 2, 61, 60
1, 10848, Note_on_c, 2, 63, 54
1, 10848, Note_on_c, 4, 61, 69
1, 10848, Note_on_c, 4, 49, 69
1, 10849, Note_on_c, 9, 75, 79
1, 10850, Note_on_c, 9, 75, 0
1, 10870, Note_on_c, 2, 63, 0
1, 10870, Note_on_c, 2, 61, 0
1, 10870, Note_on_c, 2, 58, 0
1, 10870, Note_on_c, 2, 54, 0
1, 10870, Note_on_c, 0, 63, 65
1, 10870, Note_on_c, 0, 54, 61
1, 10870, Note_on_c, 0, 58, 69
1, 10871, Note_on_c, 3, 68, 85
1, 10871, Note_on_c, 9, 44, 43
1, 10872, Note_on_c, 9, 44, 0
1, 10872, Note_on_c, 4, 61, 0
1, 10872, Note_on_c, 4, 49, 0
1, 10872, Note_on_c, 0, 61, 66
1, 10872, Note_on_c, 2, 58, 60
1, 10872, Note_on_c, 2, 63, 60
1, 10872, Note_on_c, 2, 54, 66
1, 10872, Note_on_c, 2, 61, 63
1, 10872, Note_on_c, 4, 56, 69
1, 10872, Note_on_c, 4, 68, 69
1, 10874, Note_on_c, 3, 61, 0
1, 10882, Note_on_c, 2, 61, 0
1, 10882, Note_on_c, 2, 58, 0
1, 10884, Note_on_c, 2, 63, 0
1, 10888, Note_on_c, 2, 54, 0
1, 10890, Note_on_c, 0, 63, 0
1, 10892, Note_on_c, 0, 58, 0
1, 10893, Note_on_c, 0, 61, 0
1, 10894, Note_on_c, 9, 69, 45
1, 10895, Note_on_c, 9, 69, 0
1, 10895, Note_on_c, 0, 54, 0
1, 10896, Note_on_c, 2, 63, 60
1, 10896, Note_on_c, 2, 58, 58
1, 10896, Note_on_c, 2, 61, 61
1, 10896, Note_on_c, 2, 54, 60
1, 10896, Note_on_c, 9, 42, 42
1, 10897, Note_on_c, 9, 42, 0
1, 10897, Note_on_c, 3, 68, 0
1, 10914, Note_on_c, 2, 61, 0
1, 10916, Note_on_c, 2, 58, 0
1, 10916, Note_on_c, 2, 54, 0
1, 10918, Note_on_c, 2, 63, 0
1, 10918, Note_on_c, 1, 32, 67
1, 10918, Note_on_c, 9, 69, 23
1, 10918, Note_on_c, 11, 32, 63
1, 10919, Note_on_c, 9, 69, 0
1, 10919, Note_on_c, 0, 49, 64
1, 10919, Note_on_c, 3, 66, 84
1, 10919, Note_on_c, 9, 36, 105
1, 10920, Note_on_c, 9, 36, 0
1, 10920, Note_on_c, 4, 68, 0
1, 10920, Note_on_c, 4, 56, 0
1, 10920, Note_on_c, 2, 63, 61
1, 10920, Note_on_c, 2, 58, 56
1, 10920, Note_on_c, 2, 54, 54
1, 10920, Note_on_c, 4, 66, 69
1, 10920, Note_on_c, 4, 54, 69
1, 10920, Note_on_c, 9, 42, 27
1, 10921, Note_on_c, 9, 42, 0
1, 10930, Note_on_c, 0, 49, 0
1, 10941, Note_on_c, 11, 32, 0
1, 10941, Note_on_c, 1, 32, 0
1, 10942, Note_on_c, 2, 58, 0
1, 10942, Note_on_c, 2, 63, 0
1, 10942, Note_on_c, 2, 54, 0
1, 10942, Note_on_c, 0, 58, 68
1, 10942, Note_on_c, 0, 54, 65
1, 10942, Note_on_c, 0, 63, 65
1, 10943, Note_on_c, 0, 61, 67
1, 10943, Note_on_c, 1, 37, 88
1, 10943, Note_on_c, 9, 42, 87
1, 10943, Note_on_c, 9, 36, 72
1, 10943, Note_on_c, 11, 37, 84
1, 10944, Note_on_c, 9, 36, 0
1, 10944, Note_on_c, 9, 42, 0
1, 10944, Note_on_c, 2, 63, 79
1, 10944, Note_on_c, 2, 54, 65
1, 10944, Note_on_c, 2, 58, 77
1, 10944, Note_on_c, 2, 61, 76
1, 10953, Note_on_c, 3, 66, 0
1, 10960, Note_on_c, 0, 61, 0
1, 10962, Note_on_c, 0, 63, 0
1, 10963, Note_on_c, 0, 58, 0
1, 10966, Note_on_c, 0, 54, 0
1, 10966, Note_on_c, 1, 37, 0
1, 10966, Note_on_c, 11, 37, 0
1, 10966, Note_on_c, 1, 32, 58
1, 10966, Note_on_c, 11, 32, 54
1, 10967, Note_on_c, 3, 65, 85
1, 10968, Note_on_c, 4, 66, 0
1, 10968, Note_on_c, 4, 54, 0
1, 10968, Note_on_c, 4, 65, 69
1, 10968, Note_on_c, 4, 53, 69
1, 10969, Note_on_c, 9, 44, 45
1, 10970, Note_on_c, 9, 44, 0
1, 10990, Note_on_c, 2, 54, 0
1, 10990, Note_on_c, 2, 63, 0
1, 10990, Note_on_c, 2, 61, 0
1, 10990, Note_on_c, 1, 32, 0
1, 10990, Note_on_c, 11, 32, 0
1, 10990, Note_on_c, 2, 58, 0
1, 10990, Note_on_c, 0, 63, 61
1, 10990, Note_on_c, 0, 54, 68
1, 10990, Note_on_c, 0, 61, 71
1, 10990, Note_on_c, 0, 58, 75
1, 10990, Note_on_c, 1, 37, 79
1, 10990, Note_on_c, 9, 69, 37
1, 10990, Note_on_c, 11, 37, 75
1, 10991, Note_on_c, 9, 69, 0
1, 10991, Note_on_c, 9, 42, 51
1, 10992, Note_on_c, 9, 42, 0
1, 10992, Note_on_c, 2, 63, 107
1, 10992, Note_on_c, 2, 61, 107
1, 10992, Note_on_c, 2, 58, 107
1, 10992, Note_on_c, 2, 54, 107
1, 10992, Note_on_c, 9, 36, 107
1, 10993, Note_on_c, 9, 36, 0
1, 10997, Note_on_c, 3, 65, 0
1, 10998, Note_on_c, 2, 61, 0
1, 10998, Note_on_c, 2, 63, 0
1, 10998, Note_on_c, 2, 58, 0
1, 11002, Note_on_c, 2, 54, 0
1, 11014, Note_on_c, 9, 69, 34
1, 11015, Note_on_c, 9, 69, 0
1, 11016, Note_on_c, 4, 65, 0
1, 11016, Note_on_c, 4, 53, 0
1, 11016, Note_on_c, 2, 63, 63
1, 11016, Note_on_c, 2, 61, 67
1, 11016, Note_on_c, 2, 58, 59
1, 11016, Note_on_c, 2, 54, 64
1, 11016, Note_on_c, 3, 63, 87
1, 11016, Note_on_c, 4, 63, 71
1, 11016, Note_on_c, 4, 51, 71
1, 11016, Note_on_c, 9, 42, 74
1, 11017, Note_on_c, 9, 42, 0
1, 11026, Note_on_c, 1, 37, 0
1, 11026, Note_on_c, 11, 37, 0
1, 11037, Note_on_c, 0, 63, 0
1, 11037, Note_on_c, 0, 49, 59
1, 11038, Note_on_c, 2, 58, 0
1, 11038, Note_on_c, 2, 61, 0
1, 11038, Note_on_c, 2, 54, 0
1, 11038, Note_on_c, 2, 63, 0
1, 11039, Note_on_c, 9, 40, 105
1, 11039, Note_on_c, 9, 42, 93
1, 11039, Note_on_c, 9, 75, 82
1, 11040, Note_on_c, 9, 75, 0
1, 11040, Note_on_c, 9, 42, 0
1, 11040, Note_on_c, 0, 58, 0
1, 11040, Note_on_c, 9, 40, 0
1, 11040, Note_on_c, 0, 61, 0
1, 11040, Note_on_c, 2, 54, 58
1, 11040, Note_on_c, 2, 58, 55
1, 11040, Note_on_c, 2, 61, 59
1, 11040, Note_on_c, 2, 63, 58
1, 11042, Note_on_c, 0, 54, 0
1, 11052, Note_on_c, 0, 49, 0
1, 11060, Note_on_c, 3, 63, 0
1, 11060, Note_on_c, 3, 61, 70
1, 11062, Note_on_c, 2, 54, 0
1, 11062, Note_on_c, 2, 63, 0
1, 11062, Note_on_c, 2, 61, 0
1, 11062, Note_on_c, 2, 58, 0
1, 11062, Note_on_c, 0, 54, 62
1, 11062, Note_on_c, 0, 61, 68
1, 11062, Note_on_c, 0, 63, 58
1, 11062, Note_on_c, 0, 58, 68
1, 11063, Note_on_c, 9, 44, 50
1, 11064, Note_on_c, 9, 44, 0
1, 11064, Note_on_c, 4, 63, 0
1, 11064, Note_on_c, 4, 51, 0
1, 11064, Note_on_c, 2, 61, 65
1, 11064, Note_on_c, 2, 58, 62
1, 11064, Note_on_c, 2, 63, 60
1, 11064, Note_on_c, 2, 54, 63
1, 11064, Note_on_c, 4, 61, 71
1, 11064, Note_on_c, 4, 49, 71
1, 11074, Note_on_c, 2, 58, 0
1, 11074, Note_on_c, 2, 61, 0
1, 11077, Note_on_c, 2, 63, 0
1, 11078, Note_on_c, 3, 61, 0
1, 11080, Note_on_c, 2, 54, 0
1, 11082, Note_on_c, 0, 63, 0
1, 11085, Note_on_c, 0, 61, 0
1, 11085, Note_on_c, 9, 69, 45
1, 11086, Note_on_c, 9, 69, 0
1, 11086, Note_on_c, 1, 32, 70
1, 11086, Note_on_c, 11, 32, 66
1, 11087, Note_on_c, 0, 58, 0
1, 11087, Note_on_c, 4, 49, 0
1, 11087, Note_on_c, 4, 61, 0
1, 11087, Note_on_c, 9, 42, 49
1, 11088, Note_on_c, 9, 42, 0
1, 11088, Note_on_c, 2, 54, 59
1, 11088, Note_on_c, 2, 63, 54
1, 11088, Note_on_c, 2, 61, 58
1, 11088, Note_on_c, 2, 58, 52
1, 11088, Note_on_c, 3, 61, 84
1, 11088, Note_on_c, 4, 61, 71
1, 11088, Note_on_c, 4, 49, 71
1, 11098, Note_on_c, 0, 54, 0
1, 11105, Note_on_c, 2, 54, 0
1, 11106, Note_on_c, 2, 61, 0
1, 11108, Note_on_c, 2, 63, 0
1, 11108, Note_on_c, 2, 58, 0
1, 11109, Note_on_c, 11, 32, 0
1, 11109, Note_on_c, 1, 32, 0
1, 11110, Note_on_c, 0, 49, 64
1, 11110, Note_on_c, 1, 35, 76
1, 11110, Note_on_c, 9, 69, 36
1, 11110, Note_on_c, 11, 35, 72
1, 11111, Note_on_c, 9, 69, 0
1, 11111, Note_on_c, 9, 42, 57
1, 11112, Note_on_c, 9, 42, 0
1, 11112, Note_on_c, 2, 57, 64
1, 11112, Note_on_c, 2, 61, 58
1, 11112, Note_on_c, 2, 63, 59
1, 11112, Note_on_c, 2, 54, 65
1, 11119, Note_on_c, 0, 49, 0
1, 11134, Note_on_c, 2, 54, 0
1, 11134, Note_on_c, 2, 61, 0
1, 11134, Note_on_c, 1, 35, 0
1, 11134, Note_on_c, 11, 35, 0
1, 11134, Note_on_c, 2, 63, 0
1, 11134, Note_on_c, 2, 57, 0
1, 11134, Note_on_c, 0, 57, 80
1, 11134, Note_on_c, 0, 63, 62
1, 11134, Note_on_c, 0, 54, 59
1, 11135, Note_on_c, 0, 61, 63
1, 11135, Note_on_c, 9, 42, 76
1, 11135, Note_on_c, 9, 36, 114
1, 11136, Note_on_c, 9, 36, 0
1, 11136, Note_on_c, 9, 42, 0
1, 11136, Note_on_c, 1, 37, 78
1, 11136, Note_on_c, 2, 54, 59
1, 11136, Note_on_c, 2, 57, 67
1, 11136, Note_on_c, 2, 61, 65
1, 11136, Note_on_c, 2, 63, 64
1, 11136, Note_on_c, 11, 37, 74
1, 11149, Note_on_c, 0, 57, 0
1, 11151, Note_on_c, 0, 63, 0
1, 11158, Note_on_c, 0, 63, 54
1, 11158, Note_on_c, 0, 57, 67
1, 11159, Note_on_c, 9, 44, 46
1, 11160, Note_on_c, 9, 44, 0
1, 11174, Note_on_c, 1, 37, 0
1, 11174, Note_on_c, 11, 37, 0
1, 11178, Note_on_c, 0, 63, 0
1, 11178, Note_on_c, 0, 57, 0
1, 11182, Note_on_c, 0, 61, 0
1, 11182, Note_on_c, 2, 54, 0
1, 11182, Note_on_c, 2, 61, 0
1, 11182, Note_on_c, 2, 57, 0
1, 11182, Note_on_c, 2, 63, 0
1, 11182, Note_on_c, 0, 49, 68
1, 11182, Note_on_c, 9, 69, 41
1, 11183, Note_on_c, 9, 69, 0
1, 11183, Note_on_c, 9, 42, 42
1, 11184, Note_on_c, 9, 42, 0
1, 11184, Note_on_c, 0, 54, 0
1, 11184, Note_on_c, 2, 63, 90
1, 11184, Note_on_c, 2, 54, 90
1, 11184, Note_on_c, 2, 57, 81
1, 11184, Note_on_c, 2, 61, 100
1, 11192, Note_on_c, 2, 61, 0
1, 11192, Note_on_c, 2, 57, 0
1, 11192, Note_on_c, 0, 49, 0
1, 11192, Note_on_c, 2, 63, 0
1, 11197, Note_on_c, 2, 54, 0
1, 11206, Note_on_c, 0, 63, 62
1, 11206, Note_on_c, 0, 54, 59
1, 11206, Note_on_c, 0, 61, 68
1, 11206, Note_on_c, 0, 57, 79
1, 11206, Note_on_c, 9, 69, 30
1, 11207, Note_on_c, 9, 69, 0
1, 11207, Note_on_c, 9, 42, 43
1, 11208, Note_on_c, 9, 42, 0
1, 11208, Note_on_c, 2, 63, 57
1, 11208, Note_on_c, 2, 57, 56
1, 11208, Note_on_c, 2, 61, 58
1, 11208, Note_on_c, 2, 54, 62
1, 11227, Note_on_c, 0, 63, 0
1, 11229, Note_on_c, 0, 57, 0
1, 11230, Note_on_c, 2, 54, 0
1, 11230, Note_on_c, 2, 63, 0
1, 11230, Note_on_c, 0, 54, 0
1, 11230, Note_on_c, 0, 61, 0
1, 11230, Note_on_c, 2, 61, 0
1, 11230, Note_on_c, 2, 57, 0
1, 11230, Note_on_c, 0, 49, 61
1, 11231, Note_on_c, 9, 75, 79
1, 11232, Note_on_c, 9, 75, 0
1, 11232, Note_on_c, 2, 61, 61
1, 11232, Note_on_c, 2, 63, 60
1, 11232, Note_on_c, 2, 57, 59
1, 11232, Note_on_c, 2, 54, 62
1, 11232, Note_on_c, 9, 40, 101
1, 11232, Note_on_c, 9, 42, 83
1, 11233, Note_on_c, 9, 42, 0
1, 11233, Note_on_c, 9, 40, 0
1, 11237, Note_on_c, 0, 49, 0
1, 11253, Note_on_c, 0, 63, 61
1, 11254, Note_on_c, 2, 61, 0
1, 11254, Note_on_c, 2, 54, 0
1, 11254, Note_on_c, 2, 63, 0
1, 11254, Note_on_c, 2, 57, 0
1, 11254, Note_on_c, 0, 61, 62
1, 11254, Note_on_c, 0, 54, 54
1, 11254, Note_on_c, 0, 57, 79
1, 11255, Note_on_c, 9, 44, 43
1, 11256, Note_on_c, 9, 44, 0
1, 11256, Note_on_c, 2, 57, 59
1, 11256, Note_on_c, 2, 61, 58
1, 11256, Note_on_c, 2, 63, 52
1, 11256, Note_on_c, 2, 54, 65
1, 11264, Note_on_c, 2, 57, 0
1, 11265, Note_on_c, 2, 61, 0
1, 11266, Note_on_c, 0, 54, 0
1, 11267, Note_on_c, 0, 57, 0
1, 11268, Note_on_c, 2, 63, 0
1, 11269, Note_on_c, 2, 54, 0
1, 11270, Note_on_c, 0, 61, 0
1, 11270, Note_on_c, 0, 63, 0
1, 11275, Note_on_c, 0, 49, 58
1, 11277, Note_on_c, 9, 69, 45
1, 11278, Note_on_c, 9, 69, 0
1, 11280, Note_on_c, 2, 63, 58
1, 11280, Note_on_c, 2, 61, 60
1, 11280, Note_on_c, 2, 57, 54
1, 11280, Note_on_c, 2, 54, 59
1, 11280, Note_on_c, 9, 42, 51
1, 11281, Note_on_c, 9, 42, 0
1, 11281, Note_on_c, 0, 49, 0
1, 11292, Note_on_c, 2, 54, 0
1, 11293, Note_on_c, 2, 61, 0
1, 11296, Note_on_c, 2, 63, 0
1, 11300, Note_on_c, 0, 49, 65
1, 11302, Note_on_c, 2, 57, 0
1, 11302, Note_on_c, 9, 69, 30
1, 11303, Note_on_c, 9, 69, 0
1, 11303, Note_on_c, 1, 32, 74
1, 11303, Note_on_c, 9, 42, 49
1, 11303, Note_on_c, 11, 32, 70
1, 11304, Note_on_c, 9, 42, 0
1, 11304, Note_on_c, 2, 57, 60
1, 11304, Note_on_c, 2, 63, 76
1, 11304, Note_on_c, 2, 61, 76
1, 11304, Note_on_c, 2, 54, 59
1, 11305, Note_on_c, 9, 36, 113
1, 11306, Note_on_c, 9, 36, 0
1, 11309, Note_on_c, 0, 49, 0
1, 11320, Note_on_c, 3, 61, 0
1, 11325, Note_on_c, 0, 63, 62
1, 11325, Note_on_c, 0, 57, 80
1, 11326, Note_on_c, 2, 63, 0
1, 11326, Note_on_c, 1, 32, 0
1, 11326, Note_on_c, 2, 61, 0
1, 11326, Note_on_c, 2, 54, 0
1, 11326, Note_on_c, 11, 32, 0
1, 11326, Note_on_c, 2, 57, 0
1, 11326, Note_on_c, 0, 61, 65
1, 11326, Note_on_c, 0, 54, 59
1, 11327, Note_on_c, 1, 37, 90
1, 11327, Note_on_c, 9, 36, 61
1, 11327, Note_on_c, 11, 37, 86
1, 11328, Note_on_c, 9, 36, 0
1, 11328, Note_on_c, 2, 63, 69
1, 11328, Note_on_c, 2, 54, 70
1, 11328, Note_on_c, 2, 61, 63
1, 11328, Note_on_c, 2, 57, 65
1, 11329, Note_on_c, 9, 42, 78
1, 11330, Note_on_c, 9, 42, 0
1, 11343, Note_on_c, 0, 63, 0
1, 11343, Note_on_c, 0, 57, 0
1, 11343, Note_on_c, 0, 61, 0
1, 11347, Note_on_c, 11, 37, 0
1, 11347, Note_on_c, 1, 37, 0
1, 11347, Note_on_c, 0, 54, 0
1, 11351, Note_on_c, 1, 32, 63
1, 11351, Note_on_c, 9, 44, 47
1, 11351, Note_on_c, 11, 32, 59
1, 11352, Note_on_c, 9, 44, 0
1, 11374, Note_on_c, 2, 63, 0
1, 11374, Note_on_c, 11, 32, 0
1, 11374, Note_on_c, 2, 61, 0
1, 11374, Note_on_c, 1, 32, 0
1, 11374, Note_on_c, 2, 57, 0
1, 11374, Note_on_c, 2, 54, 0
1, 11374, Note_on_c, 0, 57, 81
1, 11374, Note_on_c, 0, 63, 64
1, 11374, Note_on_c, 0, 54, 61
1, 11375, Note_on_c, 1, 37, 75
1, 11375, Note_on_c, 9, 69, 41
1, 11375, Note_on_c, 9, 42, 62
1, 11375, Note_on_c, 11, 37, 71
1, 11376, Note_on_c, 9, 42, 0
1, 11376, Note_on_c, 9, 69, 0
1, 11376, Note_on_c, 0, 61, 67
1, 11376, Note_on_c, 2, 63, 107
1, 11376, Note_on_c, 2, 61, 107
1, 11376, Note_on_c, 2, 54, 107
1, 11376, Note_on_c, 2, 57, 107
1, 11376, Note_on_c, 9, 36, 114
1, 11377, Note_on_c, 9, 36, 0
1, 11382, Note_on_c, 2, 63, 0
1, 11382, Note_on_c, 2, 61, 0
1, 11384, Note_on_c, 2, 54, 0
1, 11384, Note_on_c, 2, 57, 0
1, 11399, Note_on_c, 9, 69, 30
1, 11399, Note_on_c, 9, 42, 42
1, 11400, Note_on_c, 9, 42, 0
1, 11400, Note_on_c, 9, 69, 0
1, 11400, Note_on_c, 2, 61, 63
1, 11400, Note_on_c, 2, 54, 61
1, 11400, Note_on_c, 2, 57, 60
1, 11400, Note_on_c, 2, 63, 59
1, 11402, Note_on_c, 0, 54, 0
1, 11404, Note_on_c, 0, 57, 0
1, 11407, Note_on_c, 0, 63, 0
1, 11408, Note_on_c, 11, 37, 0
1, 11408, Note_on_c, 1, 37, 0
1, 11409, Note_on_c, 0, 61, 0
1, 11422, Note_on_c, 2, 57, 0
1, 11422, Note_on_c, 2, 63, 0
1, 11422, Note_on_c, 2, 54, 0
1, 11422, Note_on_c, 2, 61, 0
1, 11422, Note_on_c, 0, 49, 66
1, 11423, Note_on_c, 4, 49, 0
1, 11423, Note_on_c, 4, 61, 0
1, 11423, Note_on_c, 9, 42, 81
1, 11423, Note_on_c, 9, 40, 107
1, 11423, Note_on_c, 9, 75, 83
1, 11424, Note_on_c, 9, 75, 0
1, 11424, Note_on_c, 9, 40, 0
1, 11424, Note_on_c, 9, 42, 0
1, 11424, Note_on_c, 2, 61, 58
1, 11424, Note_on_c, 2, 57, 55
1, 11424, Note_on_c, 2, 63, 54
1, 11424, Note_on_c, 2, 54, 58
1, 11424, Note_on_c, 3, 61, 100
1, 11424, Note_on_c, 4, 61, 80
1, 11424, Note_on_c, 4, 49, 80
1, 11430, Note_on_c, 0, 49, 0
1, 11444, Note_on_c, 2, 54, 0
1, 11444, Note_on_c, 2, 61, 0
1, 11444, Note_on_c, 2, 63, 0
1, 11444, Note_on_c, 2, 57, 0
1, 11446, Note_on_c, 0, 54, 59
1, 11446, Note_on_c, 0, 64, 80
1, 11446, Note_on_c, 0, 61, 64
1, 11446, Note_on_c, 0, 57, 81
1, 11447, Note_on_c, 1, 32, 76
1, 11447, Note_on_c, 9, 44, 45
1, 11447, Note_on_c, 11, 32, 72
1, 11448, Note_on_c, 9, 44, 0
1, 11448, Note_on_c, 4, 49, 0
1, 11448, Note_on_c, 4, 61, 0
1, 11448, Note_on_c, 2, 64, 69
1, 11448, Note_on_c, 2, 61, 63
1, 11448, Note_on_c, 2, 57, 61
1, 11448, Note_on_c, 2, 54, 63
1, 11448, Note_on_c, 4, 66, 78
1, 11448, Note_on_c, 4, 58, 78
1, 11448, Note_on_c, 4, 70, 78
1, 11449, Note_on_c, 3, 61, 0
1, 11450, Note_on_c, 3, 70, 91
1, 11456, Control_c, 10, 11, 108
1, 11466, Note_on_c, 1, 32, 0
1, 11466, Note_on_c, 11, 32, 0
1, 11470, Note_on_c, 0, 49, 73
1, 11470, Note_on_c, 1, 35, 84
1, 11470, Note_on_c, 11, 35, 80
1, 11471, Note_on_c, 9, 69, 43
1, 11472, Note_on_c, 9, 69, 0
1, 11473, Note_on_c, 9, 42, 76
1, 11474, Note_on_c, 9, 42, 0
1, 11478, Note_on_c, 0, 49, 0
1, 11480, Note_on_c, 2, 57, 0
1, 11482, Note_on_c, 2, 61, 0
1, 11484, Note_on_c, 2, 54, 0
1, 11486, Note_on_c, 2, 64, 0
1, 11490, Note_on_c, 1, 35, 0
1, 11490, Note_on_c, 11, 35, 0
1, 11492, Note_on_c, 3, 70, 0
1, 11495, Note_on_c, 1, 36, 82
1, 11495, Note_on_c, 9, 42, 48
1, 11495, Note_on_c, 11, 36, 78
1, 11496, Note_on_c, 9, 42, 0
1, 11496, Note_on_c, 4, 66, 0
1, 11496, Note_on_c, 4, 70, 0
1, 11496, Note_on_c, 4, 58, 0
1, 11496, Note_on_c, 4, 56, 84
1, 11496, Note_on_c, 4, 68, 84
1, 11496, Note_on_c, 4, 65, 84
1, 11498, Note_on_c, 3, 68, 98
1, 11498, Note_on_c, 9, 69, 28
1, 11499, Note_on_c, 9, 69, 0
1, 11501, Note_on_c, 0, 64, 0
1, 11502, Note_on_c, 0, 54, 0
1, 11508, Note_on_c, 0, 57, 0
1, 11514, Note_on_c, 0, 61, 0
1, 11516, Note_on_c, 11, 36, 0
1, 11516, Note_on_c, 1, 36, 0
1, 11520, Note_on_c, 0, 63, 62
1, 11520, Note_on_c, 1, 37, 92
1, 11520, Note_on_c, 2, 60, 79
1, 11520, Note_on_c, 2, 56, 57
1, 11520, Note_on_c, 2, 65, 76
1, 11520, Note_on_c, 9, 51, 91
1, 11520, Note_on_c, 9, 36, 110
1, 11520, Note_on_c, 10, 53, 53
1, 11520, Note_on_c, 10, 56, 53
1, 11520, Note_on_c, 10, 63, 53
1, 11520, Note_on_c, 10, 60, 53
1, 11520, Note_on_c, 11, 37, 88
1, 11521, Note_on_c, 9, 36, 0
1, 11521, Note_on_c, 9, 51, 0
1, 11521, Note_on_c, 0, 60, 73
1, 11521, Note_on_c, 0, 53, 57
1, 11521, Note_on_c, 0, 65, 73
1, 11521, Note_on_c, 0, 56, 61
1, 11534, Note_on_c, 0, 53, 0
1, 11543, Note_on_c, 9, 44, 44
1, 11544, Note_on_c, 9, 44, 0
1, 11560, Note_on_c, 11, 37, 0
1, 11560, Note_on_c, 1, 37, 0
1, 11566, Note_on_c, 2, 56, 0
1, 11566, Note_on_c, 2, 65, 0
1, 11566, Note_on_c, 2, 60, 0
1, 11566, Note_on_c, 9, 69, 33
1, 11567, Note_on_c, 9, 69, 0
1, 11567, Note_on_c, 0, 53, 53
1, 11567, Note_on_c, 9, 51, 40
1, 11568, Note_on_c, 9, 51, 0
1, 11568, Note_on_c, 2, 65, 104
1, 11568, Note_on_c, 2, 60, 93
1, 11568, Note_on_c, 2, 56, 98
1, 11570, Note_on_c, 0, 60, 0
1, 11572, Note_on_c, 0, 63, 0
1, 11575, Note_on_c, 0, 65, 0
1, 11576, Note_on_c, 0, 56, 0
1, 11576, Note_on_c, 2, 60, 0
1, 11578, Note_on_c, 2, 56, 0
1, 11578, Note_on_c, 2, 65, 0
1, 11580, Note_on_c, 0, 53, 0
1, 11584, Control_c, 10, 11, 109
1, 11590, Note_on_c, 9, 69, 21
1, 11591, Note_on_c, 9, 69, 0
1, 11591, Note_on_c, 9, 51, 44
1, 11592, Note_on_c, 9, 51, 0
1, 11592, Note_on_c, 2, 56, 59
1, 11592, Note_on_c, 2, 60, 67
1, 11592, Note_on_c, 2, 65, 65
1, 11593, Note_on_c, 0, 65, 65
1, 11593, Note_on_c, 0, 63, 57
1, 11593, Note_on_c, 0, 60, 66
1, 11593, Note_on_c, 9, 62, 69
1, 11594, Note_on_c, 9, 62, 0
1, 11594, Note_on_c, 0, 56, 59
1, 11600, Control_c, 10, 11, 110
1, 11606, Note_on_c, 0, 60, 0
1, 11607, Note_on_c, 0, 63, 0
1, 11610, Note_on_c, 0, 65, 0
1, 11610, Note_on_c, 0, 56, 0
1, 11614, Note_on_c, 0, 53, 50
1, 11615, Note_on_c, 9, 75, 79
1, 11615, Note_on_c, 9, 51, 76
1, 11615, Note_on_c, 9, 40, 101
1, 11616, Note_on_c, 9, 40, 0
1, 11616, Note_on_c, 9, 51, 0
1, 11616, Note_on_c, 9, 75, 0
1, 11616, Control_c, 10, 11, 111
1, 11618, Note_on_c, 9, 62, 66
1, 11619, Note_on_c, 9, 62, 0
1, 11622, Note_on_c, 0, 53, 0
1, 11628, Note_on_c, 2, 56, 0
1, 11629, Note_on_c, 2, 65, 0
1, 11632, Note_on_c, 2, 60, 0
1, 11632, Control_c, 10, 11, 112
1, 11638, Note_on_c, 0, 60, 67
1, 11638, Note_on_c, 0, 56, 55
1, 11638, Note_on_c, 0, 63, 55
1, 11638, Note_on_c, 2, 56, 63
1, 11639, Note_on_c, 9, 44, 40
1, 11640, Note_on_c, 9, 44, 0
1, 11640, Note_on_c, 2, 60, 68
1, 11640, Note_on_c, 2, 65, 72
1, 11647, Note_on_c, 0, 63, 0
1, 11648, Note_on_c, 0, 60, 0
1, 11648, Control_c, 10, 11, 113
1, 11649, Note_on_c, 0, 56, 0
1, 11650, Note_on_c, 2, 65, 0
1, 11650, Note_on_c, 2, 56, 0
1, 11650, Note_on_c, 2, 60, 0
1, 11663, Note_on_c, 9, 69, 33
1, 11663, Note_on_c, 9, 51, 42
1, 11664, Note_on_c, 9, 51, 0
1, 11664, Note_on_c, 9, 69, 0
1, 11664, Note_on_c, 2, 56, 60
1, 11664, Note_on_c, 2, 65, 87
1, 11664, Control_c, 10, 11, 114
1, 11665, Note_on_c, 2, 60, 62
1, 11684, Note_on_c, 2, 65, 0
1, 11686, Note_on_c, 0, 56, 64
1, 11686, Note_on_c, 0, 63, 77
1, 11686, Note_on_c, 0, 60, 73
1, 11686, Note_on_c, 0, 65, 69
1, 11686, Note_on_c, 2, 65, 74
1, 11687, Note_on_c, 9, 51, 40
1, 11687, Note_on_c, 9, 62, 62
1, 11687, Note_on_c, 9, 69, 25
1, 11688, Note_on_c, 9, 69, 0
1, 11688, Note_on_c, 9, 62, 0
1, 11688, Note_on_c, 9, 51, 0
1, 11688, Note_on_c, 1, 32, 75
1, 11688, Note_on_c, 9, 36, 104
1, 11688, Control_c, 10, 11, 115
1, 11688, Note_on_c, 11, 32, 71
1, 11689, Note_on_c, 9, 36, 0
1, 11689, Note_on_c, 2, 56, 0
1, 11695, Note_on_c, 2, 65, 0
1, 11697, Note_on_c, 2, 60, 0
1, 11704, Control_c, 10, 11, 116
1, 11710, Note_on_c, 0, 53, 57
1, 11710, Note_on_c, 2, 56, 69
1, 11711, Note_on_c, 1, 37, 81
1, 11711, Note_on_c, 9, 51, 87
1, 11711, Note_on_c, 9, 36, 68
1, 11711, Note_on_c, 11, 37, 77
1, 11712, Note_on_c, 9, 36, 0
1, 11712, Note_on_c, 9, 51, 0
1, 11712, Note_on_c, 1, 32, 0
1, 11712, Note_on_c, 11, 32, 0
1, 11712, Note_on_c, 2, 65, 72
1, 11712, Note_on_c, 2, 60, 83
1, 11713, Note_on_c, 9, 62, 62
1, 11714, Note_on_c, 9, 62, 0
1, 11720, Control_c, 10, 11, 117
1, 11730, Note_on_c, 0, 56, 0
1, 11735, Note_on_c, 1, 32, 75
1, 11735, Note_on_c, 11, 32, 71
1, 11736, Note_on_c, 9, 44, 46
1, 11736, Control_c, 10, 11, 118
1, 11737, Note_on_c, 9, 44, 0
1, 11738, Note_on_c, 1, 37, 0
1, 11738, Note_on_c, 11, 37, 0
1, 11742, Note_on_c, 3, 68, 0
1, 11750, Note_on_c, 0, 63, 0
1, 11752, Control_c, 10, 11, 119
1, 11754, Note_on_c, 0, 60, 0
1, 11758, Note_on_c, 2, 65, 0
1, 11758, Note_on_c, 2, 56, 0
1, 11758, Note_on_c, 2, 60, 0
1, 11758, Note_on_c, 0, 56, 45
1, 11758, Note_on_c, 9, 69, 35
1, 11759, Note_on_c, 9, 69, 0
1, 11759, Note_on_c, 1, 37, 87
1, 11759, Note_on_c, 9, 36, 97
1, 11759, Note_on_c, 9, 51, 43
1, 11759, Note_on_c, 11, 37, 83
1, 11760, Note_on_c, 9, 51, 0
1, 11760, Note_on_c, 9, 36, 0
1, 11760, Note_on_c, 2, 56, 100
1, 11760, Note_on_c, 2, 65, 100
1, 11760, Note_on_c, 2, 60, 98
1, 11761, Note_on_c, 11, 32, 0
1, 11761, Note_on_c, 1, 32, 0
1, 11762, Note_on_c, 0, 65, 0
1, 11768, Note_on_c, 2, 60, 0
1, 11768, Note_on_c, 2, 65, 0
1, 11768, Note_on_c, 2, 56, 0
1, 11768, Control_c, 10, 11, 120
1, 11770, Note_on_c, 0, 53, 0
1, 11781, Note_on_c, 0, 60, 54
1, 11782, Note_on_c, 2, 65, 69
1, 11782, Note_on_c, 2, 60, 66
1, 11782, Note_on_c, 2, 56, 63
1, 11782, Note_on_c, 9, 69, 29
1, 11782, Note_on_c, 9, 62, 69
1, 11783, Note_on_c, 9, 62, 0
1, 11783, Note_on_c, 9, 69, 0
1, 11783, Note_on_c, 9, 51, 54
1, 11784, Note_on_c, 9, 51, 0
1, 11786, Note_on_c, 0, 56, 0
1, 11792, Control_c, 10, 11, 121
1, 11793, Note_on_c, 11, 37, 0
1, 11793, Note_on_c, 1, 37, 0
1, 11794, Note_on_c, 0, 60, 0
1, 11804, Note_on_c, 3, 65, 95
1, 11806, Note_on_c, 0, 63, 62
1, 11806, Note_on_c, 0, 60, 70
1, 11806, Note_on_c, 0, 65, 73
1, 11807, Note_on_c, 4, 65, 0
1, 11807, Note_on_c, 0, 56, 57
1, 11807, Note_on_c, 9, 51, 73
1, 11807, Note_on_c, 9, 40, 104
1, 11807, Note_on_c, 9, 62, 55
1, 11808, Note_on_c, 9, 62, 0
1, 11808, Note_on_c, 9, 40, 0
1, 11808, Note_on_c, 9, 51, 0
1, 11808, Note_on_c, 4, 68, 0
1, 11808, Note_on_c, 4, 56, 0
1, 11808, Note_on_c, 4, 53, 73
1, 11808, Note_on_c, 4, 65, 73
1, 11808, Note_on_c, 9, 75, 79
1, 11808, Control_c, 10, 11, 122
1, 11809, Note_on_c, 9, 75, 0
1, 11817, Note_on_c, 2, 65, 0
1, 11817, Note_on_c, 2, 60, 0
1, 11818, Note_on_c, 2, 56, 0
1, 11818, Note_on_c, 0, 63, 0
1, 11822, Note_on_c, 0, 60, 0
1, 11823, Note_on_c, 0, 65, 0
1, 11824, Control_c, 10, 11, 123
1, 11830, Note_on_c, 3, 65, 0
1, 11830, Note_on_c, 0, 65, 53
1, 11830, Note_on_c, 0, 60, 68
1, 11830, Note_on_c, 2, 60, 67
1, 11830, Note_on_c, 2, 56, 60
1, 11830, Note_on_c, 2, 65, 75
1, 11830, Note_on_c, 9, 62, 52
1, 11831, Note_on_c, 9, 62, 0
1, 11831, Note_on_c, 0, 63, 56
1, 11831, Note_on_c, 1, 37, 84
1, 11831, Note_on_c, 9, 44, 43
1, 11831, Note_on_c, 11, 37, 80
1, 11832, Note_on_c, 9, 44, 0
1, 11832, Note_on_c, 4, 53, 0
1, 11832, Note_on_c, 4, 65, 0
1, 11832, Note_on_c, 4, 75, 73
1, 11832, Note_on_c, 4, 63, 73
1, 11832, Note_on_c, 4, 70, 73
1, 11834, Note_on_c, 3, 75, 100
1, 11838, Note_on_c, 2, 56, 0
1, 11838, Note_on_c, 2, 60, 0
1, 11840, Control_c, 10, 11, 124
1, 11842, Note_on_c, 2, 65, 0
1, 11850, Note_on_c, 0, 60, 0
1, 11852, Note_on_c, 0, 63, 0
1, 11854, Note_on_c, 0, 56, 0
1, 11854, Note_on_c, 0, 53, 68
1, 11854, Note_on_c, 2, 65, 108
1, 11854, Note_on_c, 2, 60, 56
1, 11854, Note_on_c, 2, 56, 60
1, 11854, Note_on_c, 9, 69, 36
1, 11854, Note_on_c, 9, 62, 69
1, 11855, Note_on_c, 9, 62, 0
1, 11855, Note_on_c, 9, 69, 0
1, 11855, Note_on_c, 1, 41, 88
1, 11855, Note_on_c, 9, 51, 54
1, 11855, Note_on_c, 11, 41, 84
1, 11856, Note_on_c, 9, 51, 0
1, 11856, Control_c, 10, 11, 125
1, 11857, Note_on_c, 3, 75, 0
1, 11858, Note_on_c, 11, 37, 0
1, 11858, Note_on_c, 1, 37, 0
1, 11863, Note_on_c, 0, 53, 0
1, 11867, Note_on_c, 0, 65, 0
1, 11869, Note_on_c, 2, 60, 0
1, 11872, Control_c, 10, 11, 126
1, 11875, Note_on_c, 2, 65, 0
1, 11878, Note_on_c, 9, 69, 23
1, 11879, Note_on_c, 9, 69, 0
1, 11879, Note_on_c, 0, 56, 52
1, 11879, Note_on_c, 1, 42, 94
1, 11879, Note_on_c, 9, 51, 42
1, 11879, Note_on_c, 11, 42, 90
1, 11880, Note_on_c, 9, 51, 0
1, 11880, Note_on_c, 4, 63, 0
1, 11880, Note_on_c, 11, 41, 0
1, 11880, Note_on_c, 1, 41, 0
1, 11880, Note_on_c, 4, 75, 0
1, 11880, Note_on_c, 4, 70, 0
1, 11880, Note_on_c, 2, 56, 0
1, 11880, Note_on_c, 2, 65, 71
1, 11880, Note_on_c, 3, 73, 97
1, 11880, Note_on_c, 4, 71, 75
1, 11880, Note_on_c, 4, 67, 55
1, 11880, Note_on_c, 4, 73, 75
1, 11880, Note_on_c, 4, 61, 75
1, 11881, Note_on_c, 2, 60, 71
1, 11886, Note_on_c, 2, 60, 0
1, 11888, Note_on_c, 2, 65, 0
1, 11888, Control_c, 10, 11, 127
1, 11894, Note_on_c, 0, 56, 0
1, 11902, Note_on_c, 2, 59, 83
1, 11902, Note_on_c, 2, 63, 90
1, 11902, Note_on_c, 2, 53, 42
1, 11902, Note_on_c, 2, 56, 52
1, 11903, Note_on_c, 0, 56, 62
1, 11903, Note_on_c, 0, 65, 68
1, 11903, Note_on_c, 0, 63, 61
1, 11903, Note_on_c, 1, 43, 87
1, 11903, Note_on_c, 9, 51, 83
1, 11903, Note_on_c, 11, 43, 83
1, 11904, Note_on_c, 9, 51, 0
1, 11904, Note_on_c, 10, 60, 0
1, 11904, Note_on_c, 0, 59, 81
1, 11904, Note_on_c, 9, 36, 114
1, 11904, Note_on_c, 10, 59, 61
1, 11905, Note_on_c, 9, 36, 0
1, 11906, Note_on_c, 1, 42, 0
1, 11906, Note_on_c, 11, 42, 0
1, 11927, Note_on_c, 9, 44, 49
1, 11928, Note_on_c, 9, 44, 0
1, 11938, Note_on_c, 0, 59, 0
1, 11940, Note_on_c, 0, 63, 0
1, 11945, Note_on_c, 0, 56, 0
1, 11949, Note_on_c, 0, 65, 0
1, 11949, Note_on_c, 2, 63, 0
1, 11949, Note_on_c, 2, 59, 0
1, 11949, Note_on_c, 2, 53, 0
1, 11949, Note_on_c, 0, 53, 65
1, 11950, Note_on_c, 2, 56, 0
1, 11950, Note_on_c, 2, 59, 100
1, 11950, Note_on_c, 2, 63, 111
1, 11950, Note_on_c, 2, 53, 70
1, 11950, Note_on_c, 9, 69, 33
1, 11951, Note_on_c, 9, 69, 0
1, 11951, Note_on_c, 9, 51, 42
1, 11952, Note_on_c, 9, 51, 0
1, 11952, Note_on_c, 2, 56, 64
1, 11957, Note_on_c, 0, 53, 0
1, 11958, Note_on_c, 2, 63, 0
1, 11958, Note_on_c, 2, 59, 0
1, 11964, Note_on_c, 2, 56, 0
1, 11964, Note_on_c, 2, 53, 0
1, 11974, Note_on_c, 2, 59, 69
1, 11974, Note_on_c, 2, 56, 64
1, 11974, Note_on_c, 2, 63, 62
1, 11974, Note_on_c, 2, 53, 65
1, 11975, Note_on_c, 9, 69, 27
1, 11975, Note_on_c, 9, 51, 41
1, 11975, Note_on_c, 9, 62, 71
1, 11976, Note_on_c, 9, 62, 0
1, 11976, Note_on_c, 9, 51, 0
1, 11976, Note_on_c, 9, 69, 0
1, 11977, Note_on_c, 0, 59, 84
1, 11977, Note_on_c, 0, 65, 70
1, 11978, Note_on_c, 0, 56, 58
1, 11991, Note_on_c, 0, 59, 0
1, 11992, Note_on_c, 0, 56, 0
1, 11995, Note_on_c, 0, 65, 0
1, 11999, Note_on_c, 0, 53, 53
1, 11999, Note_on_c, 9, 75, 76
1, 11999, Note_on_c, 9, 40, 107
1, 12000, Note_on_c, 9, 40, 0
1, 12000, Note_on_c, 9, 75, 0
1, 12000, Note_on_c, 1, 43, 0
1, 12000, Note_on_c, 11, 43, 0
1, 12000, Note_on_c, 9, 51, 87
1, 12001, Note_on_c, 9, 51, 0
1, 12001, Note_on_c, 9, 62, 74
1, 12002, Note_on_c, 9, 62, 0
1, 12004, Note_on_c, 0, 53, 0
1, 12011, Note_on_c, 2, 53, 0
1, 12011, Note_on_c, 2, 59, 0
1, 12011, Note_on_c, 2, 56, 0
1, 12014, Note_on_c, 2, 63, 0
1, 12022, Note_on_c, 0, 63, 67
1, 12022, Note_on_c, 2, 59, 63
1, 12023, Note_on_c, 0, 56, 55
1, 12023, Note_on_c, 0, 59, 80
1, 12024, Note_on_c, 2, 63, 67
1, 12024, Note_on_c, 2, 53, 69
1, 12024, Note_on_c, 2, 56, 63
1, 12025, Note_on_c, 9, 44, 57
1, 12026, Note_on_c, 9, 44, 0
1, 12032, Note_on_c, 2, 56, 0
1, 12032, Note_on_c, 2, 59, 0
1, 12033, Note_on_c, 2, 63, 0
1, 12034, Note_on_c, 2, 53, 0
1, 12037, Note_on_c, 0, 63, 0
1, 12038, Note_on_c, 0, 56, 0
1, 12039, Note_on_c, 0, 59, 0
1, 12046, Note_on_c, 0, 53, 54
1, 12046, Note_on_c, 2, 63, 87
1, 12047, Note_on_c, 9, 69, 35
1, 12047, Note_on_c, 9, 51, 44
1, 12048, Note_on_c, 9, 51, 0
1, 12048, Note_on_c, 9, 69, 0
1, 12048, Note_on_c, 2, 53, 60
1, 12048, Note_on_c, 2, 59, 62
1, 12052, Note_on_c, 0, 53, 0
1, 12057, Note_on_c, 2, 59, 0
1, 12066, Note_on_c, 2, 63, 0
1, 12070, Note_on_c, 9, 69, 25
1, 12071, Note_on_c, 9, 69, 0
1, 12071, Note_on_c, 9, 51, 46
1, 12071, Note_on_c, 9, 62, 80
1, 12071, Note_on_c, 9, 36, 105
1, 12072, Note_on_c, 9, 36, 0
1, 12072, Note_on_c, 9, 62, 0
1, 12072, Note_on_c, 9, 51, 0
1, 12072, Note_on_c, 0, 65, 73
1, 12072, Note_on_c, 1, 38, 85
1, 12072, Note_on_c, 2, 59, 67
1, 12072, Note_on_c, 2, 63, 75
1, 12072, Note_on_c, 11, 38, 81
1, 12073, Note_on_c, 0, 56, 61
1, 12073, Note_on_c, 0, 63, 53
1, 12073, Note_on_c, 0, 59, 84
1, 12078, Note_on_c, 2, 63, 0
1, 12078, Note_on_c, 2, 53, 0
1, 12080, Note_on_c, 2, 59, 0
1, 12093, Note_on_c, 1, 38, 0
1, 12093, Note_on_c, 11, 38, 0
1, 12094, Note_on_c, 2, 56, 59
1, 12094, Note_on_c, 2, 53, 60
1, 12094, Note_on_c, 2, 59, 90
1, 12094, Note_on_c, 2, 63, 93
1, 12094, Note_on_c, 9, 36, 67
1, 12095, Note_on_c, 9, 36, 0
1, 12095, Note_on_c, 1, 43, 76
1, 12095, Note_on_c, 9, 62, 55
1, 12095, Note_on_c, 11, 43, 72
1, 12096, Note_on_c, 9, 62, 0
1, 12096, Note_on_c, 9, 51, 70
1, 12097, Note_on_c, 9, 51, 0
1, 12097, Note_on_c, 0, 53, 54
1, 12114, Note_on_c, 0, 53, 0
1, 12119, Note_on_c, 1, 38, 75
1, 12119, Note_on_c, 9, 44, 52
1, 12119, Note_on_c, 11, 38, 71
1, 12120, Note_on_c, 9, 44, 0
1, 12120, Note_on_c, 11, 43, 0
1, 12120, Note_on_c, 1, 43, 0
1, 12123, Note_on_c, 0, 56, 0
1, 12127, Note_on_c, 0, 63, 0
1, 12128, Note_on_c, 0, 65, 0
1, 12130, Note_on_c, 0, 59, 0
1, 12141, Note_on_c, 2, 53, 0
1, 12142, Note_on_c, 2, 63, 0
1, 12142, Note_on_c, 2, 59, 0
1, 12142, Note_on_c, 2, 56, 0
1, 12142, Note_on_c, 0, 56, 55
1, 12142, Note_on_c, 2, 53, 74
1, 12142, Note_on_c, 9, 69, 45
1, 12143, Note_on_c, 9, 69, 0
1, 12143, Note_on_c, 9, 51, 46
1, 12143, Note_on_c, 9, 62, 76
1, 12143, Note_on_c, 9, 36, 107
1, 12144, Note_on_c, 9, 36, 0
1, 12144, Note_on_c, 9, 62, 0
1, 12144, Note_on_c, 9, 51, 0
1, 12144, Note_on_c, 2, 59, 104
1, 12144, Note_on_c, 2, 63, 108
1, 12144, Note_on_c, 2, 56, 66
1, 12145, Note_on_c, 1, 43, 87
1, 12145, Note_on_c, 11, 43, 83
1, 12146, Note_on_c, 1, 38, 0
1, 12146, Note_on_c, 11, 38, 0
1, 12154, Note_on_c, 2, 56, 0
1, 12154, Note_on_c, 2, 59, 0
1, 12154, Note_on_c, 0, 56, 0
1, 12156, Note_on_c, 2, 63, 0
1, 12157, Note_on_c, 2, 53, 0
1, 12166, Note_on_c, 2, 53, 71
1, 12166, Note_on_c, 2, 56, 60
1, 12166, Note_on_c, 2, 59, 73
1, 12166, Note_on_c, 2, 63, 65
1, 12166, Note_on_c, 9, 69, 26
1, 12167, Note_on_c, 9, 69, 0
1, 12167, Note_on_c, 9, 51, 37
1, 12168, Note_on_c, 9, 51, 0
1, 12168, Note_on_c, 0, 59, 53
1, 12178, Note_on_c, 0, 59, 0
1, 12181, Note_on_c, 11, 43, 0
1, 12181, Note_on_c, 1, 43, 0
1, 12184, Note_on_c, 3, 73, 0
1, 12191, Note_on_c, 0, 56, 59
1, 12191, Note_on_c, 0, 59, 69
1, 12191, Note_on_c, 0, 65, 67
1, 12191, Note_on_c, 0, 63, 69
1, 12191, Note_on_c, 9, 40, 110
1, 12191, Note_on_c, 9, 51, 91
1, 12191, Note_on_c, 9, 75, 82
1, 12192, Note_on_c, 9, 75, 0
1, 12192, Note_on_c, 9, 51, 0
1, 12192, Note_on_c, 9, 40, 0
1, 12193, Note_on_c, 9, 62, 84
1, 12194, Note_on_c, 9, 62, 0
1, 12204, Note_on_c, 0, 63, 0
1, 12205, Note_on_c, 2, 56, 0
1, 12206, Note_on_c, 2, 53, 0
1, 12206, Note_on_c, 2, 59, 0
1, 12208, Note_on_c, 2, 63, 0
1, 12208, Note_on_c, 0, 59, 0
1, 12210, Note_on_c, 0, 56, 0
1, 12215, Note_on_c, 0, 56, 47
1, 12215, Note_on_c, 0, 59, 64
1, 12215, Note_on_c, 9, 44, 52
1, 12216, Note_on_c, 9, 44, 0
1, 12216, Note_on_c, 0, 63, 61
1, 12216, Note_on_c, 1, 38, 80
1, 12216, Note_on_c, 2, 63, 61
1, 12216, Note_on_c, 2, 59, 77
1, 12216, Note_on_c, 2, 56, 63
1, 12216, Note_on_c, 2, 53, 74
1, 12216, Note_on_c, 11, 38, 76
1, 12224, Note_on_c, 2, 56, 0
1, 12224, Note_on_c, 2, 59, 0
1, 12225, Note_on_c, 2, 63, 0
1, 12226, Note_on_c, 2, 53, 0
1, 12234, Note_on_c, 0, 59, 0
1, 12236, Note_on_c, 11, 38, 0
1, 12236, Note_on_c, 1, 38, 0
1, 12238, Note_on_c, 0, 56, 0
1, 12238, Note_on_c, 0, 65, 0
1, 12238, Note_on_c, 0, 63, 0
1, 12238, Note_on_c, 0, 53, 61
1, 12238, Note_on_c, 3, 63, 93
1, 12238, Note_on_c, 9, 69, 39
1, 12239, Note_on_c, 9, 69, 0
1, 12239, Note_on_c, 9, 51, 48
1, 12240, Note_on_c, 9, 51, 0
1, 12240, Note_on_c, 4, 67, 0
1, 12240, Note_on_c, 4, 73, 0
1, 12240, Note_on_c, 4, 71, 0
1, 12240, Note_on_c, 4, 61, 0
1, 12240, Note_on_c, 1, 43, 64
1, 12240, Note_on_c, 2, 59, 62
1, 12240, Note_on_c, 2, 63, 86
1, 12240, Note_on_c, 2, 53, 62
1, 12240, Note_on_c, 11, 43, 60
1, 12250, Note_on_c, 0, 53, 0
1, 12254, Note_on_c, 2, 59, 0
1, 12260, Note_on_c, 2, 63, 0
1, 12262, Note_on_c, 2, 53, 0
1, 12262, Note_on_c, 11, 43, 0
1, 12262, Note_on_c, 1, 43, 0
1, 12262, Note_on_c, 9, 69, 25
1, 12263, Note_on_c, 9, 69, 0
1, 12263, Note_on_c, 0, 56, 50
1, 12263, Note_on_c, 1, 37, 75
1, 12263, Note_on_c, 9, 51, 48
1, 12263, Note_on_c, 11, 37, 71
1, 12264, Note_on_c, 9, 51, 0
1, 12264, Note_on_c, 2, 63, 90
1, 12264, Note_on_c, 2, 59, 81
1, 12266, Note_on_c, 3, 65, 100
1, 12270, Note_on_c, 2, 59, 0
1, 12270, Note_on_c, 2, 63, 0
1, 12270, Note_on_c, 3, 63, 0
1, 12282, Note_on_c, 0, 56, 0
1, 12286, Note_on_c, 0, 65, 70
1, 12286, Note_on_c, 2, 65, 74
1, 12286, Note_on_c, 2, 56, 67
1, 12286, Note_on_c, 2, 58, 95
1, 12286, Note_on_c, 2, 61, 93
1, 12287, Note_on_c, 0, 61, 69
1, 12287, Note_on_c, 0, 58, 68
1, 12287, Note_on_c, 0, 56, 57
1, 12287, Note_on_c, 1, 42, 79
1, 12287, Note_on_c, 9, 36, 113
1, 12287, Note_on_c, 11, 42, 75
1, 12288, Note_on_c, 9, 36, 0
1, 12288, Note_on_c, 10, 59, 0
1, 12288, Note_on_c, 10, 63, 0
1, 12288, Note_on_c, 9, 51, 73
1, 12288, Note_on_c, 10, 58, 53
1, 12288, Note_on_c, 10, 61, 62
1, 12289, Note_on_c, 9, 51, 0
1, 12290, Note_on_c, 11, 37, 0
1, 12290, Note_on_c, 1, 37, 0
1, 12311, Note_on_c, 3, 65, 0
1, 12311, Note_on_c, 3, 61, 88
1, 12312, Note_on_c, 9, 44, 42
1, 12313, Note_on_c, 9, 44, 0
1, 12326, Note_on_c, 0, 58, 0
1, 12334, Note_on_c, 1, 42, 0
1, 12334, Note_on_c, 2, 65, 0
1, 12334, Note_on_c, 11, 42, 0
1, 12334, Note_on_c, 2, 56, 0
1, 12334, Note_on_c, 2, 58, 0
1, 12334, Note_on_c, 2, 61, 0
1, 12334, Note_on_c, 0, 53, 59
1, 12334, Note_on_c, 9, 69, 35
1, 12335, Note_on_c, 9, 69, 0
1, 12335, Note_on_c, 9, 51, 42
1, 12336, Note_on_c, 9, 51, 0
1, 12336, Note_on_c, 0, 61, 0
1, 12336, Note_on_c, 2, 65, 93
1, 12336, Note_on_c, 2, 58, 104
1, 12336, Note_on_c, 2, 56, 81
1, 12336, Note_on_c, 2, 61, 100
1, 12342, Note_on_c, 0, 53, 0
1, 12342, Note_on_c, 0, 65, 0
1, 12344, Note_on_c, 2, 58, 0
1, 12344, Note_on_c, 0, 56, 0
1, 12345, Note_on_c, 2, 61, 0
1, 12346, Note_on_c, 3, 61, 0
1, 12346, Note_on_c, 2, 56, 0
1, 12348, Note_on_c, 2, 65, 0
1, 12358, Note_on_c, 2, 65, 66
1, 12358, Note_on_c, 2, 56, 64
1, 12359, Note_on_c, 9, 62, 80
1, 12359, Note_on_c, 9, 51, 42
1, 12360, Note_on_c, 9, 51, 0
1, 12360, Note_on_c, 9, 62, 0
1, 12360, Note_on_c, 0, 65, 69
1, 12360, Note_on_c, 2, 58, 65
1, 12360, Note_on_c, 2, 61, 67
1, 12360, Note_on_c, 9, 69, 24
1, 12361, Note_on_c, 9, 69, 0
1, 12361, Note_on_c, 0, 56, 55
1, 12361, Note_on_c, 0, 58, 65
1, 12361, Note_on_c, 3, 61, 93
1, 12362, Note_on_c, 0, 61, 63
1, 12370, Note_on_c, 0, 58, 0
1, 12372, Note_on_c, 0, 61, 0
1, 12373, Note_on_c, 0, 56, 0
1, 12373, Note_on_c, 0, 65, 0
1, 12383, Note_on_c, 0, 53, 52
1, 12383, Note_on_c, 9, 75, 76
1, 12383, Note_on_c, 9, 40, 104
1, 12384, Note_on_c, 9, 40, 0
1, 12384, Note_on_c, 9, 75, 0
1, 12384, Note_on_c, 9, 51, 81
1, 12385, Note_on_c, 9, 51, 0
1, 12385, Note_on_c, 9, 62, 74
1, 12386, Note_on_c, 9, 62, 0
1, 12386, Note_on_c, 0, 53, 0
1, 12396, Note_on_c, 2, 61, 0
1, 12396, Note_on_c, 2, 58, 0
1, 12397, Note_on_c, 2, 65, 0
1, 12398, Note_on_c, 2, 56, 0
1, 12406, Note_on_c, 2, 61, 61
1, 12406, Note_on_c, 2, 65, 67
1, 12407, Note_on_c, 9, 44, 43
1, 12408, Note_on_c, 9, 44, 0
1, 12408, Note_on_c, 0, 63, 65
1, 12408, Note_on_c, 2, 58, 65
1, 12408, Note_on_c, 2, 56, 68
1, 12409, Note_on_c, 0, 58, 58
1, 12410, Note_on_c, 3, 61, 0
1, 12410, Note_on_c, 0, 56, 52
1, 12410, Note_on_c, 3, 58, 95
1, 12413, Note_on_c, 2, 61, 0
1, 12416, Note_on_c, 2, 56, 0
1, 12416, Note_on_c, 2, 58, 0
1, 12416, Note_on_c, 2, 65, 0
1, 12417, Note_on_c, 0, 58, 0
1, 12419, Note_on_c, 0, 63, 0
1, 12421, Note_on_c, 0, 56, 0
1, 12430, Note_on_c, 9, 69, 45
1, 12431, Note_on_c, 9, 69, 0
1, 12431, Note_on_c, 9, 51, 50
1, 12432, Note_on_c, 9, 51, 0
1, 12432, Note_on_c, 0, 53, 57
1, 12432, Note_on_c, 2, 58, 50
1, 12432, Note_on_c, 2, 65, 83
1, 12432, Note_on_c, 2, 61, 70
1, 12439, Note_on_c, 0, 53, 0
1, 12448, Note_on_c, 2, 61, 0
1, 12453, Note_on_c, 2, 65, 0
1, 12454, Note_on_c, 2, 58, 0
1, 12454, Note_on_c, 9, 62, 69
1, 12454, Note_on_c, 9, 69, 34
1, 12455, Note_on_c, 9, 69, 0
1, 12455, Note_on_c, 9, 62, 0
1, 12455, Note_on_c, 0, 65, 62
1, 12455, Note_on_c, 1, 37, 82
1, 12455, Note_on_c, 9, 51, 43
1, 12455, Note_on_c, 11, 37, 78
1, 12456, Note_on_c, 9, 51, 0
1, 12456, Note_on_c, 0, 56, 58
1, 12456, Note_on_c, 0, 61, 62
1, 12456, Note_on_c, 2, 65, 74
1, 12456, Note_on_c, 2, 61, 64
1, 12457, Note_on_c, 0, 58, 62
1, 12457, Note_on_c, 9, 36, 110
1, 12458, Note_on_c, 9, 36, 0
1, 12462, Note_on_c, 2, 65, 0
1, 12466, Note_on_c, 2, 61, 0
1, 12473, Note_on_c, 3, 58, 0
1, 12474, Note_on_c, 11, 37, 0
1, 12474, Note_on_c, 1, 37, 0
1, 12478, Note_on_c, 2, 65, 71
1, 12478, Note_on_c, 2, 61, 81
1, 12478, Note_on_c, 2, 56, 57
1, 12478, Note_on_c, 2, 58, 83
1, 12479, Note_on_c, 0, 53, 55
1, 12479, Note_on_c, 1, 42, 69
1, 12479, Note_on_c, 9, 36, 64
1, 12479, Note_on_c, 11, 42, 65
1, 12480, Note_on_c, 9, 36, 0
1, 12480, Note_on_c, 9, 51, 85
1, 12481, Note_on_c, 9, 51, 0
1, 12481, Note_on_c, 9, 62, 76
1, 12482, Note_on_c, 9, 62, 0
1, 12499, Note_on_c, 0, 56, 0
1, 12503, Note_on_c, 1, 40, 92
1, 12503, Note_on_c, 9, 44, 42
1, 12503, Note_on_c, 11, 40, 88
1, 12504, Note_on_c, 9, 44, 0
1, 12505, Note_on_c, 11, 42, 0
1, 12505, Note_on_c, 1, 42, 0
1, 12522, Note_on_c, 0, 61, 0
1, 12522, Note_on_c, 0, 58, 0
1, 12524, Note_on_c, 0, 65, 0
1, 12525, Note_on_c, 2, 65, 0
1, 12525, Note_on_c, 2, 56, 0
1, 12525, Note_on_c, 2, 61, 0
1, 12525, Note_on_c, 2, 58, 0
1, 12526, Note_on_c, 1, 40, 0
1, 12526, Note_on_c, 11, 40, 0
1, 12526, Note_on_c, 0, 56, 49
1, 12526, Note_on_c, 2, 58, 108
1, 12526, Note_on_c, 2, 61, 111
1, 12526, Note_on_c, 2, 65, 86
1, 12526, Note_on_c, 2, 56, 108
1, 12526, Note_on_c, 9, 69, 43
1, 12527, Note_on_c, 9, 69, 0
1, 12527, Note_on_c, 1, 37, 88
1, 12527, Note_on_c, 11, 37, 84
1, 12528, Note_on_c, 9, 51, 54
1, 12529, Note_on_c, 9, 51, 0
1, 12529, Note_on_c, 9, 36, 113
1, 12530, Note_on_c, 9, 36, 0
1, 12535, Note_on_c, 2, 58, 0
1, 12536, Note_on_c, 2, 61, 0
1, 12537, Note_on_c, 2, 56, 0
1, 12538, Note_on_c, 2, 65, 0
1, 12549, Note_on_c, 0, 58, 54
1, 12550, Note_on_c, 1, 37, 0
1, 12550, Note_on_c, 11, 37, 0
1, 12550, Note_on_c, 2, 65, 77
1, 12550, Note_on_c, 2, 61, 72
1, 12550, Note_on_c, 2, 56, 66
1, 12550, Note_on_c, 2, 58, 62
1, 12550, Note_on_c, 9, 69, 32
1, 12551, Note_on_c, 9, 69, 0
1, 12551, Note_on_c, 9, 51, 49
1, 12552, Note_on_c, 9, 51, 0
1, 12552, Note_on_c, 1, 29, 76
1, 12552, Note_on_c, 4, 61, 74
1, 12552, Note_on_c, 4, 58, 65
1, 12552, Note_on_c, 11, 29, 72
1, 12553, Note_on_c, 3, 58, 85
1, 12553, Note_on_c, 9, 62, 66
1, 12554, Note_on_c, 9, 62, 0
1, 12557, Note_on_c, 0, 56, 0
1, 12562, Note_on_c, 0, 58, 0
1, 12562, Note_on_c, 0, 53, 0
1, 12575, Note_on_c, 0, 65, 71
1, 12575, Note_on_c, 0, 58, 67
1, 12575, Note_on_c, 0, 56, 57
1, 12575, Note_on_c, 1, 30, 85
1, 12575, Note_on_c, 11, 30, 81
1, 12576, Note_on_c, 0, 61, 64
1, 12576, Note_on_c, 9, 75, 76
1, 12577, Note_on_c, 9, 75, 0
1, 12577, Note_on_c, 1, 29, 0
1, 12577, Note_on_c, 11, 29, 0
1, 12577, Note_on_c, 9, 51, 73
1, 12577, Note_on_c, 9, 40, 105
1, 12578, Note_on_c, 9, 40, 0
1, 12578, Note_on_c, 9, 51, 0
1, 12578, Note_on_c, 9, 62, 59
1, 12579, Note_on_c, 9, 62, 0
1, 12582, Note_on_c, 3, 58, 0
1, 12588, Note_on_c, 2, 65, 0
1, 12589, Note_on_c, 0, 61, 0
1, 12590, Note_on_c, 2, 58, 0
1, 12590, Note_on_c, 2, 61, 0
1, 12590, Note_on_c, 0, 58, 0
1, 12594, Note_on_c, 2, 56, 0
1, 12598, Note_on_c, 0, 58, 57
1, 12599, Note_on_c, 4, 61, 0
1, 12599, Note_on_c, 4, 58, 0
1, 12599, Note_on_c, 0, 61, 56
1, 12599, Note_on_c, 3, 58, 97
1, 12599, Note_on_c, 9, 44, 45
1, 12600, Note_on_c, 9, 44, 0
1, 12600, Note_on_c, 2, 58, 67
1, 12600, Note_on_c, 2, 56, 66
1, 12600, Note_on_c, 2, 65, 70
1, 12600, Note_on_c, 2, 61, 62
1, 12600, Note_on_c, 4, 58, 77
1, 12600, Note_on_c, 4, 61, 74
1, 12602, Note_on_c, 9, 62, 59
1, 12603, Note_on_c, 9, 62, 0
1, 12606, Note_on_c, 2, 56, 0
1, 12608, Note_on_c, 2, 61, 0
1, 12608, Note_on_c, 2, 58, 0
1, 12609, Note_on_c, 2, 65, 0
1, 12614, Note_on_c, 0, 56, 0
1, 12615, Note_on_c, 0, 58, 0
1, 12618, Note_on_c, 0, 65, 0
1, 12620, Note_on_c, 0, 61, 0
1, 12621, Note_on_c, 11, 30, 0
1, 12621, Note_on_c, 1, 30, 0
1, 12622, Note_on_c, 9, 69, 35
1, 12623, Note_on_c, 9, 69, 0
1, 12623, Note_on_c, 0, 53, 61
1, 12623, Note_on_c, 1, 42, 78
1, 12623, Note_on_c, 9, 51, 51
1, 12623, Note_on_c, 11, 42, 74
1, 12624, Note_on_c, 9, 51, 0
1, 12624, Note_on_c, 2, 65, 79
1, 12624, Note_on_c, 2, 61, 63
1, 12626, Note_on_c, 2, 58, 58
1, 12626, Note_on_c, 9, 62, 76
1, 12627, Note_on_c, 9, 62, 0
1, 12639, Note_on_c, 2, 58, 0
1, 12640, Note_on_c, 0, 53, 0
1, 12642, Note_on_c, 2, 61, 0
1, 12644, Note_on_c, 2, 65, 0
1, 12646, Note_on_c, 0, 56, 57
1, 12647, Note_on_c, 9, 51, 43
1, 12647, Note_on_c, 9, 69, 25
1, 12648, Note_on_c, 9, 69, 0
1, 12648, Note_on_c, 4, 61, 0
1, 12648, Note_on_c, 3, 58, 0
1, 12648, Note_on_c, 9, 51, 0
1, 12648, Note_on_c, 4, 58, 0
1, 12648, Note_on_c, 1, 35, 92
1, 12648, Note_on_c, 2, 61, 63
1, 12648, Note_on_c, 2, 65, 76
1, 12648, Note_on_c, 4, 63, 74
1, 12648, Note_on_c, 4, 60, 65
1, 12648, Note_on_c, 11, 35, 88
1, 12649, Note_on_c, 11, 42, 0
1, 12649, Note_on_c, 1, 42, 0
1, 12649, Note_on_c, 3, 60, 85
1, 12656, Note_on_c, 2, 61, 0
1, 12656, Note_on_c, 2, 65, 0
1, 12664, Note_on_c, 0, 56, 0
1, 12670, Note_on_c, 0, 60, 73
1, 12670, Note_on_c, 0, 53, 62
1, 12670, Note_on_c, 0, 63, 71
1, 12670, Note_on_c, 0, 56, 43
1, 12670, Note_on_c, 2, 53, 60
1, 12670, Note_on_c, 2, 63, 76
1, 12670, Note_on_c, 2, 60, 76
1, 12671, Note_on_c, 1, 35, 0
1, 12671, Note_on_c, 11, 35, 0
1, 12671, Note_on_c, 1, 41, 86
1, 12671, Note_on_c, 9, 51, 87
1, 12671, Note_on_c, 9, 36, 110
1, 12671, Note_on_c, 11, 41, 82
1, 12672, Note_on_c, 9, 36, 0
1, 12672, Note_on_c, 9, 51, 0
1, 12672, Note_on_c, 10, 58, 0
1, 12672, Note_on_c, 10, 61, 0
1, 12672, Note_on_c, 2, 56, 63
1, 12672, Note_on_c, 10, 63, 56
1, 12672, Note_on_c, 10, 60, 64
1, 12684, Note_on_c, 3, 60, 0
1, 12685, Note_on_c, 0, 53, 0
1, 12695, Note_on_c, 4, 60, 0
1, 12695, Note_on_c, 3, 56, 86
1, 12695, Note_on_c, 9, 44, 42
1, 12696, Note_on_c, 9, 44, 0
1, 12696, Note_on_c, 4, 63, 0
1, 12696, Note_on_c, 4, 56, 66
1, 12696, Note_on_c, 4, 60, 75
1, 12712, Note_on_c, 11, 41, 0
1, 12712, Note_on_c, 1, 41, 0
1, 12717, Note_on_c, 2, 63, 0
1, 12717, Note_on_c, 2, 53, 0
1, 12717, Note_on_c, 2, 60, 0
1, 12717, Note_on_c, 2, 56, 0
1, 12717, Note_on_c, 0, 53, 54
1, 12718, Note_on_c, 0, 60, 0
1, 12718, Note_on_c, 2, 60, 95
1, 12718, Note_on_c, 2, 53, 68
1, 12718, Note_on_c, 2, 56, 81
1, 12718, Note_on_c, 2, 63, 79
1, 12719, Note_on_c, 9, 51, 55
1, 12719, Note_on_c, 9, 69, 34
1, 12720, Note_on_c, 9, 69, 0
1, 12720, Note_on_c, 9, 51, 0
1, 12721, Note_on_c, 0, 63, 0
1, 12722, Note_on_c, 0, 56, 0
1, 12724, Note_on_c, 3, 56, 0
1, 12725, Note_on_c, 2, 56, 0
1, 12726, Note_on_c, 2, 60, 0
1, 12727, Note_on_c, 2, 63, 0
1, 12728, Note_on_c, 0, 53, 0
1, 12735, Note_on_c, 2, 53, 0
1, 12742, Note_on_c, 0, 60, 59
1, 12742, Note_on_c, 0, 63, 57
1, 12742, Note_on_c, 2, 60, 67
1, 12742, Note_on_c, 2, 63, 65
1, 12743, Note_on_c, 4, 60, 0
1, 12743, Note_on_c, 4, 56, 0
1, 12743, Note_on_c, 0, 56, 52
1, 12743, Note_on_c, 3, 56, 87
1, 12743, Note_on_c, 9, 51, 54
1, 12743, Note_on_c, 9, 62, 88
1, 12744, Note_on_c, 9, 62, 0
1, 12744, Note_on_c, 9, 51, 0
1, 12744, Note_on_c, 2, 53, 60
1, 12744, Note_on_c, 2, 56, 59
1, 12744, Note_on_c, 4, 60, 76
1, 12744, Note_on_c, 4, 56, 67
1, 12744, Note_on_c, 9, 69, 27
1, 12745, Note_on_c, 9, 69, 0
1, 12751, Note_on_c, 0, 60, 0
1, 12752, Note_on_c, 0, 56, 0
1, 12754, Note_on_c, 0, 63, 0
1, 12767, Note_on_c, 9, 51, 94
1, 12767, Note_on_c, 9, 40, 104
1, 12768, Note_on_c, 9, 40, 0
1, 12768, Note_on_c, 4, 56, 0
1, 12768, Note_on_c, 9, 51, 0
1, 12768, Note_on_c, 3, 56, 0
1, 12768, Note_on_c, 3, 58, 86
1, 12768, Note_on_c, 4, 58, 66
1, 12768, Note_on_c, 9, 75, 79
1, 12769, Note_on_c, 9, 75, 0
1, 12769, Note_on_c, 9, 62, 74
1, 12770, Note_on_c, 9, 62, 0
1, 12781, Note_on_c, 2, 53, 0
1, 12781, Note_on_c, 2, 63, 0
1, 12781, Note_on_c, 2, 60, 0
1, 12782, Note_on_c, 2, 56, 0
1, 12790, Note_on_c, 0, 63, 59
1, 12790, Note_on_c, 0, 56, 48
1, 12790, Note_on_c, 0, 60, 67
1, 12790, Note_on_c, 2, 53, 62
1, 12790, Note_on_c, 2, 63, 68
1, 12791, Note_on_c, 4, 58, 0
1, 12791, Note_on_c, 9, 44, 43
1, 12792, Note_on_c, 9, 44, 0
1, 12792, Note_on_c, 4, 60, 0
1, 12792, Note_on_c, 2, 56, 61
1, 12792, Note_on_c, 2, 60, 74
1, 12792, Note_on_c, 3, 56, 86
1, 12792, Note_on_c, 4, 56, 66
1, 12792, Note_on_c, 4, 58, 78
1, 12794, Note_on_c, 3, 58, 0
1, 12798, Note_on_c, 0, 63, 0
1, 12799, Note_on_c, 0, 60, 0
1, 12800, Note_on_c, 2, 56, 0
1, 12800, Note_on_c, 2, 60, 0
1, 12800, Note_on_c, 2, 63, 0
1, 12802, Note_on_c, 0, 56, 0
1, 12802, Note_on_c, 2, 53, 0
1, 12814, Note_on_c, 2, 63, 93
1, 12814, Note_on_c, 3, 53, 96
1, 12814, Note_on_c, 9, 69, 37
1, 12815, Note_on_c, 9, 69, 0
1, 12815, Note_on_c, 4, 56, 0
1, 12815, Note_on_c, 9, 51, 44
1, 12816, Note_on_c, 9, 51, 0
1, 12816, Note_on_c, 4, 58, 0
1, 12816, Note_on_c, 2, 56, 60
1, 12816, Note_on_c, 2, 60, 59
1, 12816, Note_on_c, 4, 53, 76
1, 12816, Note_on_c, 4, 56, 78
1, 12817, Note_on_c, 3, 56, 0
1, 12824, Note_on_c, 2, 60, 0
1, 12833, Note_on_c, 2, 63, 0
1, 12838, Note_on_c, 0, 60, 70
1, 12838, Note_on_c, 0, 56, 55
1, 12838, Note_on_c, 0, 63, 66
1, 12838, Note_on_c, 2, 63, 98
1, 12839, Note_on_c, 9, 51, 55
1, 12839, Note_on_c, 9, 69, 33
1, 12839, Note_on_c, 9, 62, 74
1, 12840, Note_on_c, 9, 62, 0
1, 12840, Note_on_c, 9, 69, 0
1, 12840, Note_on_c, 9, 51, 0
1, 12840, Note_on_c, 1, 36, 85
1, 12840, Note_on_c, 2, 60, 69
1, 12840, Note_on_c, 11, 36, 81
1, 12841, Note_on_c, 9, 36, 105
1, 12842, Note_on_c, 9, 36, 0
1, 12845, Note_on_c, 2, 56, 0
1, 12860, Note_on_c, 2, 63, 0
1, 12861, Note_on_c, 2, 60, 0
1, 12861, Note_on_c, 0, 53, 53
1, 12862, Note_on_c, 1, 36, 0
1, 12862, Note_on_c, 11, 36, 0
1, 12862, Note_on_c, 2, 63, 74
1, 12862, Note_on_c, 2, 56, 76
1, 12862, Note_on_c, 2, 53, 64
1, 12862, Note_on_c, 2, 60, 90
1, 12863, Note_on_c, 9, 62, 69
1, 12863, Note_on_c, 9, 51, 78
1, 12863, Note_on_c, 9, 36, 69
1, 12864, Note_on_c, 9, 36, 0
1, 12864, Note_on_c, 9, 51, 0
1, 12864, Note_on_c, 9, 62, 0
1, 12864, Note_on_c, 1, 41, 84
1, 12864, Note_on_c, 11, 41, 80
1, 12884, Note_on_c, 11, 41, 0
1, 12884, Note_on_c, 1, 41, 0
1, 12887, Note_on_c, 9, 44, 49
1, 12888, Note_on_c, 9, 44, 0
1, 12897, Note_on_c, 0, 60, 0
1, 12898, Note_on_c, 0, 56, 0
1, 12902, Note_on_c, 0, 63, 0
1, 12909, Note_on_c, 2, 56, 0
1, 12909, Note_on_c, 2, 60, 0
1, 12909, Note_on_c, 2, 63, 0
1, 12909, Note_on_c, 2, 53, 0
1, 12909, Note_on_c, 0, 63, 54
1, 12910, Note_on_c, 0, 53, 0
1, 12910, Note_on_c, 0, 56, 55
1, 12910, Note_on_c, 0, 60, 58
1, 12910, Note_on_c, 2, 56, 93
1, 12910, Note_on_c, 2, 60, 104
1, 12910, Note_on_c, 2, 63, 93
1, 12910, Note_on_c, 2, 53, 72
1, 12910, Note_on_c, 9, 69, 37
1, 12911, Note_on_c, 9, 69, 0
1, 12911, Note_on_c, 4, 56, 0
1, 12911, Note_on_c, 4, 53, 0
1, 12911, Note_on_c, 1, 29, 94
1, 12911, Note_on_c, 9, 62, 84
1, 12911, Note_on_c, 9, 36, 107
1, 12911, Note_on_c, 9, 51, 46
1, 12911, Note_on_c, 11, 29, 90
1, 12912, Note_on_c, 9, 51, 0
1, 12912, Note_on_c, 9, 36, 0
1, 12912, Note_on_c, 9, 62, 0
1, 12914, Note_on_c, 3, 61, 107
1, 12919, Note_on_c, 2, 56, 0
1, 12919, Note_on_c, 2, 60, 0
1, 12919, Note_on_c, 2, 53, 0
1, 12921, Note_on_c, 2, 63, 0
1, 12930, Note_on_c, 0, 60, 0
1, 12932, Note_on_c, 0, 63, 0
1, 12934, Note_on_c, 0, 56, 0
1, 12934, Note_on_c, 0, 53, 61
1, 12934, Note_on_c, 2, 60, 69
1, 12934, Note_on_c, 2, 56, 61
1, 12934, Note_on_c, 2, 63, 72
1, 12934, Note_on_c, 2, 53, 67
1, 12934, Note_on_c, 9, 69, 27
1, 12935, Note_on_c, 9, 69, 0
1, 12935, Note_on_c, 9, 51, 42
1, 12936, Note_on_c, 9, 51, 0
1, 12940, Note_on_c, 3, 53, 0
1, 12944, Note_on_c, 0, 53, 0
1, 12958, Note_on_c, 0, 60, 68
1, 12958, Note_on_c, 0, 63, 63
1, 12958, Note_on_c, 0, 56, 57
1, 12959, Note_on_c, 9, 40, 107
1, 12959, Note_on_c, 9, 62, 90
1, 12960, Note_on_c, 9, 62, 0
1, 12960, Note_on_c, 9, 40, 0
1, 12960, Note_on_c, 9, 75, 79
1, 12960, Note_on_c, 9, 51, 87
1, 12961, Note_on_c, 9, 51, 0
1, 12961, Note_on_c, 9, 75, 0
1, 12972, Note_on_c, 2, 53, 0
1, 12973, Note_on_c, 2, 63, 0
1, 12974, Note_on_c, 2, 56, 0
1, 12974, Note_on_c, 2, 60, 0
1, 12974, Note_on_c, 0, 60, 0
1, 12975, Note_on_c, 0, 63, 0
1, 12978, Note_on_c, 0, 56, 0
1, 12981, Note_on_c, 3, 64, 91
1, 12982, Note_on_c, 0, 60, 66
1, 12982, Note_on_c, 0, 56, 42
1, 12982, Note_on_c, 0, 63, 62
1, 12982, Note_on_c, 2, 60, 74
1, 12982, Note_on_c, 2, 63, 67
1, 12983, Note_on_c, 9, 44, 44
1, 12984, Note_on_c, 9, 44, 0
1, 12984, Note_on_c, 2, 53, 66
1, 12984, Note_on_c, 2, 56, 66
1, 12988, Note_on_c, 3, 61, 0
1, 12990, Note_on_c, 2, 60, 0
1, 12992, Note_on_c, 2, 63, 0
1, 12992, Note_on_c, 2, 56, 0
1, 12994, Note_on_c, 2, 53, 0
1, 12999, Note_on_c, 0, 60, 0
1, 13004, Note_on_c, 0, 56, 0
1, 13004, Note_on_c, 0, 63, 0
1, 13006, Note_on_c, 0, 53, 57
1, 13006, Note_on_c, 9, 69, 39
1, 13007, Note_on_c, 9, 69, 0
1, 13007, Note_on_c, 9, 51, 48
1, 13008, Note_on_c, 9, 51, 0
1, 13008, Note_on_c, 2, 60, 59
1, 13008, Note_on_c, 2, 56, 67
1, 13008, Note_on_c, 2, 63, 93
1, 13008, Note_on_c, 3, 65, 84
1, 13011, Note_on_c, 3, 64, 0
1, 13017, Note_on_c, 0, 53, 0
1, 13020, Note_on_c, 2, 60, 0
1, 13025, Note_on_c, 2, 63, 0
1, 13030, Note_on_c, 2, 56, 0
1, 13030, Note_on_c, 0, 63, 57
1, 13030, Note_on_c, 2, 63, 87
1, 13031, Note_on_c, 0, 60, 52
1, 13031, Note_on_c, 3, 64, 83
1, 13031, Note_on_c, 9, 51, 43
1, 13031, Note_on_c, 9, 69, 27
1, 13032, Note_on_c, 9, 69, 0
1, 13032, Note_on_c, 9, 51, 0
1, 13032, Note_on_c, 3, 65, 0
1, 13032, Note_on_c, 0, 56, 52
1, 13032, Note_on_c, 2, 60, 74
1, 13035, Note_on_c, 0, 60, 0
1, 13038, Note_on_c, 2, 63, 0
1, 13039, Note_on_c, 0, 63, 0
1, 13040, Note_on_c, 2, 60, 0
1, 13042, Note_on_c, 0, 56, 0
1, 13049, Note_on_c, 11, 29, 0
1, 13049, Note_on_c, 1, 29, 0
1, 13053, Note_on_c, 0, 65, 60
1, 13054, Note_on_c, 0, 58, 64
1, 13054, Note_on_c, 0, 61, 58
1, 13054, Note_on_c, 0, 56, 57
1, 13054, Note_on_c, 2, 58, 83
1, 13054, Note_on_c, 2, 65, 67
1, 13054, Note_on_c, 2, 61, 76
1, 13054, Note_on_c, 2, 56, 63
1, 13055, Note_on_c, 1, 30, 78
1, 13055, Note_on_c, 9, 36, 115
1, 13055, Note_on_c, 9, 51, 87
1, 13055, Note_on_c, 11, 30, 74
1, 13056, Note_on_c, 9, 51, 0
1, 13056, Note_on_c, 9, 36, 0
1, 13056, Note_on_c, 10, 53, 0
1, 13056, Note_on_c, 10, 63, 0
1, 13056, Note_on_c, 10, 60, 0
1, 13056, Note_on_c, 10, 61, 67
1, 13056, Note_on_c, 10, 65, 60
1, 13056, Note_on_c, 10, 58, 61
1, 13058, Note_on_c, 3, 64, 0
1, 13058, Note_on_c, 3, 65, 88
1, 13079, Note_on_c, 9, 44, 41
1, 13080, Note_on_c, 9, 44, 0
1, 13081, Note_on_c, 3, 63, 78
1, 13082, Note_on_c, 3, 65, 0
1, 13101, Note_on_c, 2, 65, 0
1, 13101, Note_on_c, 0, 58, 0
1, 13101, Note_on_c, 2, 58, 0
1, 13101, Note_on_c, 2, 61, 0
1, 13101, Note_on_c, 2, 56, 0
1, 13102, Note_on_c, 0, 56, 0
1, 13102, Note_on_c, 0, 53, 56
1, 13102, Note_on_c, 2, 61, 108
1, 13102, Note_on_c, 2, 56, 95
1, 13102, Note_on_c, 2, 58, 108
1, 13102, Note_on_c, 2, 65, 76
1, 13102, Note_on_c, 9, 69, 46
1, 13103, Note_on_c, 9, 69, 0
1, 13103, Note_on_c, 0, 61, 0
1, 13103, Note_on_c, 9, 51, 52
1, 13104, Note_on_c, 9, 51, 0
1, 13106, Note_on_c, 0, 65, 0
1, 13106, Note_on_c, 3, 61, 81
1, 13110, Note_on_c, 2, 61, 0
1, 13110, Note_on_c, 0, 53, 0
1, 13110, Note_on_c, 2, 58, 0
1, 13111, Note_on_c, 3, 63, 0
1, 13114, Note_on_c, 2, 56, 0
1, 13114, Note_on_c, 2, 65, 0
1, 13126, Note_on_c, 2, 56, 64
1, 13126, Note_on_c, 2, 61, 69
1, 13126, Note_on_c, 2, 65, 73
1, 13126, Note_on_c, 2, 58, 64
1, 13127, Note_on_c, 0, 58, 59
1, 13127, Note_on_c, 0, 65, 66
1, 13127, Note_on_c, 9, 69, 33
1, 13127, Note_on_c, 9, 62, 87
1, 13127, Note_on_c, 9, 51, 45
1, 13128, Note_on_c, 9, 51, 0
1, 13128, Note_on_c, 9, 62, 0
1, 13128, Note_on_c, 9, 69, 0
1, 13128, Note_on_c, 0, 56, 56
1, 13128, Note_on_c, 0, 61, 64
1, 13133, Note_on_c, 1, 30, 0
1, 13133, Note_on_c, 11, 30, 0
1, 13137, Note_on_c, 0, 58, 0
1, 13139, Note_on_c, 0, 56, 0
1, 13140, Note_on_c, 0, 61, 0
1, 13145, Note_on_c, 0, 65, 0
1, 13150, Note_on_c, 3, 63, 86
1, 13151, Note_on_c, 9, 51, 81
1, 13151, Note_on_c, 9, 40, 101
1, 13151, Note_on_c, 9, 75, 74
1, 13152, Note_on_c, 9, 75, 0
1, 13152, Note_on_c, 9, 40, 0
1, 13152, Note_on_c, 9, 51, 0
1, 13152, Note_on_c, 9, 62, 74
1, 13153, Note_on_c, 9, 62, 0
1, 13155, Note_on_c, 3, 61, 0
1, 13164, Note_on_c, 2, 58, 0
1, 13166, Note_on_c, 2, 56, 0
1, 13166, Note_on_c, 2, 65, 0
1, 13167, Note_on_c, 2, 61, 0
1, 13175, Note_on_c, 0, 63, 65
1, 13175, Note_on_c, 0, 58, 57
1, 13175, Note_on_c, 9, 44, 48
1, 13176, Note_on_c, 9, 44, 0
1, 13176, Note_on_c, 0, 56, 53
1, 13176, Note_on_c, 2, 56, 65
1, 13176, Note_on_c, 2, 61, 65
1, 13176, Note_on_c, 2, 65, 79
1, 13177, Note_on_c, 2, 58, 67
1, 13181, Note_on_c, 2, 58, 0
1, 13182, Note_on_c, 2, 61, 0
1, 13184, Note_on_c, 2, 65, 0
1, 13184, Note_on_c, 2, 56, 0
1, 13186, Note_on_c, 0, 56, 0
1, 13187, Note_on_c, 0, 58, 0
1, 13188, Note_on_c, 3, 63, 0
1, 13188, Note_on_c, 3, 65, 83
1, 13191, Note_on_c, 0, 63, 0
1, 13199, Note_on_c, 9, 51, 48
1, 13199, Note_on_c, 9, 69, 41
1, 13200, Note_on_c, 9, 69, 0
1, 13200, Note_on_c, 9, 51, 0
1, 13200, Note_on_c, 2, 65, 72
1, 13200, Note_on_c, 2, 61, 58
1, 13202, Note_on_c, 0, 53, 53
1, 13208, Note_on_c, 0, 53, 0
1, 13214, Note_on_c, 2, 61, 0
1, 13218, Note_on_c, 2, 65, 0
1, 13222, Note_on_c, 1, 37, 80
1, 13222, Note_on_c, 2, 61, 65
1, 13222, Note_on_c, 2, 65, 81
1, 13222, Note_on_c, 9, 62, 69
1, 13222, Note_on_c, 11, 37, 76
1, 13223, Note_on_c, 9, 62, 0
1, 13223, Note_on_c, 0, 65, 53
1, 13223, Note_on_c, 9, 51, 42
1, 13223, Note_on_c, 9, 36, 104
1, 13224, Note_on_c, 9, 36, 0
1, 13224, Note_on_c, 9, 51, 0
1, 13224, Note_on_c, 0, 61, 61
1, 13224, Note_on_c, 9, 69, 33
1, 13225, Note_on_c, 9, 69, 0
1, 13225, Note_on_c, 0, 58, 60
1, 13225, Note_on_c, 0, 56, 54
1, 13230, Note_on_c, 2, 61, 0
1, 13230, Note_on_c, 2, 65, 0
1, 13238, Note_on_c, 3, 65, 0
1, 13246, Note_on_c, 1, 42, 70
1, 13246, Note_on_c, 2, 56, 60
1, 13246, Note_on_c, 2, 58, 95
1, 13246, Note_on_c, 2, 61, 98
1, 13246, Note_on_c, 2, 65, 76
1, 13246, Note_on_c, 11, 42, 66
1, 13247, Note_on_c, 11, 37, 0
1, 13247, Note_on_c, 1, 37, 0
1, 13247, Note_on_c, 0, 53, 53
1, 13247, Note_on_c, 9, 36, 67
1, 13248, Note_on_c, 9, 36, 0
1, 13248, Note_on_c, 9, 51, 83
1, 13249, Note_on_c, 9, 51, 0
1, 13249, Note_on_c, 9, 62, 62
1, 13250, Note_on_c, 9, 62, 0
1, 13263, Note_on_c, 0, 56, 0
1, 13270, Note_on_c, 11, 42, 0
1, 13270, Note_on_c, 1, 42, 0
1, 13270, Note_on_c, 1, 40, 78
1, 13270, Note_on_c, 11, 40, 74
1, 13271, Note_on_c, 9, 44, 42
1, 13272, Note_on_c, 9, 44, 0
1, 13293, Note_on_c, 11, 40, 0
1, 13293, Note_on_c, 1, 40, 0
1, 13294, Note_on_c, 2, 56, 0
1, 13294, Note_on_c, 0, 58, 0
1, 13294, Note_on_c, 2, 65, 0
1, 13294, Note_on_c, 2, 61, 0
1, 13294, Note_on_c, 2, 58, 0
1, 13294, Note_on_c, 9, 69, 41
1, 13295, Note_on_c, 9, 69, 0
1, 13295, Note_on_c, 0, 61, 0
1, 13295, Note_on_c, 0, 56, 50
1, 13295, Note_on_c, 1, 37, 70
1, 13295, Note_on_c, 9, 51, 46
1, 13295, Note_on_c, 9, 36, 105
1, 13295, Note_on_c, 11, 37, 66
1, 13296, Note_on_c, 9, 36, 0
1, 13296, Note_on_c, 9, 51, 0
1, 13296, Note_on_c, 2, 61, 108
1, 13296, Note_on_c, 2, 58, 100
1, 13296, Note_on_c, 2, 56, 90
1, 13296, Note_on_c, 2, 65, 87
1, 13300, Note_on_c, 0, 53, 0
1, 13303, Note_on_c, 0, 65, 0
1, 13306, Note_on_c, 2, 61, 0
1, 13306, Note_on_c, 2, 56, 0
1, 13308, Note_on_c, 2, 58, 0
1, 13309, Note_on_c, 2, 65, 0
1, 13314, Note_on_c, 1, 37, 0
1, 13314, Note_on_c, 11, 37, 0
1, 13318, Note_on_c, 0, 58, 63
1, 13318, Note_on_c, 9, 62, 71
1, 13318, Note_on_c, 9, 69, 23
1, 13319, Note_on_c, 9, 69, 0
1, 13319, Note_on_c, 9, 62, 0
1, 13319, Note_on_c, 0, 56, 0
1, 13319, Note_on_c, 1, 29, 85
1, 13319, Note_on_c, 9, 51, 55
1, 13319, Note_on_c, 11, 29, 81
1, 13320, Note_on_c, 9, 51, 0
1, 13320, Note_on_c, 2, 65, 73
1, 13320, Note_on_c, 2, 56, 65
1, 13320, Note_on_c, 2, 58, 66
1, 13320, Note_on_c, 2, 61, 67
1, 13320, Note_on_c, 4, 58, 65
1, 13320, Note_on_c, 4, 61, 74
1, 13321, Note_on_c, 3, 58, 85
1, 13330, Note_on_c, 0, 58, 0
1, 13343, Note_on_c, 1, 30, 81
1, 13343, Note_on_c, 9, 62, 63
1, 13343, Note_on_c, 9, 40, 105
1, 13343, Note_on_c, 9, 51, 81
1, 13343, Note_on_c, 9, 75, 79
1, 13343, Note_on_c, 11, 30, 77
1, 13344, Note_on_c, 9, 75, 0
1, 13344, Note_on_c, 9, 51, 0
1, 13344, Note_on_c, 9, 40, 0
1, 13344, Note_on_c, 9, 62, 0
1, 13344, Note_on_c, 0, 58, 64
1, 13344, Note_on_c, 0, 65, 68
1, 13344, Note_on_c, 0, 61, 58
1, 13345, Note_on_c, 0, 56, 49
1, 13347, Note_on_c, 11, 29, 0
1, 13347, Note_on_c, 1, 29, 0
1, 13350, Note_on_c, 3, 58, 0
1, 13352, Note_on_c, 2, 58, 0
1, 13354, Note_on_c, 0, 58, 0
1, 13356, Note_on_c, 2, 65, 0
1, 13356, Note_on_c, 2, 61, 0
1, 13358, Note_on_c, 0, 56, 0
1, 13358, Note_on_c, 2, 56, 0
1, 13366, Note_on_c, 2, 58, 68
1, 13366, Note_on_c, 2, 61, 63
1, 13366, Note_on_c, 2, 65, 75
1, 13367, Note_on_c, 4, 58, 0
1, 13367, Note_on_c, 4, 61, 0
1, 13367, Note_on_c, 0, 58, 68
1, 13367, Note_on_c, 0, 56, 53
1, 13367, Note_on_c, 3, 58, 97
1, 13367, Note_on_c, 9, 44, 46
1, 13368, Note_on_c, 9, 44, 0
1, 13368, Note_on_c, 2, 56, 60
1, 13368, Note_on_c, 4, 58, 77
1, 13368, Note_on_c, 4, 61, 74
1, 13369, Note_on_c, 9, 62, 69
1, 13370, Note_on_c, 9, 62, 0
1, 13374, Note_on_c, 2, 56, 0
1, 13374, Note_on_c, 2, 58, 0
1, 13374, Note_on_c, 2, 61, 0
1, 13376, Note_on_c, 2, 65, 0
1, 13378, Note_on_c, 0, 56, 0
1, 13382, Note_on_c, 11, 30, 0
1, 13382, Note_on_c, 1, 30, 0
1, 13385, Note_on_c, 0, 58, 0
1, 13390, Note_on_c, 0, 53, 63
1, 13390, Note_on_c, 1, 42, 69
1, 13390, Note_on_c, 2, 61, 49
1, 13390, Note_on_c, 2, 58, 58
1, 13390, Note_on_c, 2, 65, 87
1, 13390, Note_on_c, 9, 69, 46
1, 13390, Note_on_c, 11, 42, 65
1, 13391, Note_on_c, 9, 69, 0
1, 13391, Note_on_c, 9, 62, 63
1, 13391, Note_on_c, 9, 51, 45
1, 13392, Note_on_c, 9, 51, 0
1, 13392, Note_on_c, 9, 62, 0
1, 13392, Note_on_c, 0, 61, 0
1, 13401, Note_on_c, 0, 53, 0
1, 13401, Note_on_c, 0, 65, 0
1, 13401, Note_on_c, 2, 61, 0
1, 13410, Note_on_c, 2, 58, 0
1, 13410, Note_on_c, 2, 65, 0
1, 13413, Note_on_c, 0, 56, 61
1, 13414, Note_on_c, 2, 61, 70
1, 13414, Note_on_c, 2, 65, 85
1, 13414, Note_on_c, 9, 69, 27
1, 13415, Note_on_c, 9, 69, 0
1, 13415, Note_on_c, 1, 35, 91
1, 13415, Note_on_c, 9, 51, 47
1, 13415, Note_on_c, 11, 35, 87
1, 13416, Note_on_c, 9, 51, 0
1, 13416, Note_on_c, 4, 61, 0
1, 13416, Note_on_c, 4, 58, 0
1, 13416, Note_on_c, 3, 58, 0
1, 13416, Note_on_c, 4, 63, 74
1, 13416, Note_on_c, 4, 60, 65
1, 13417, Note_on_c, 3, 60, 85
1, 13420, Note_on_c, 2, 61, 0
1, 13421, Note_on_c, 11, 42, 0
1, 13421, Note_on_c, 1, 42, 0
1, 13422, Note_on_c, 2, 65, 0
1, 13430, Note_on_c, 0, 56, 0
1, 13437, Note_on_c, 0, 60, 81
1, 13437, Note_on_c, 0, 63, 69
1, 13438, Note_on_c, 0, 53, 54
1, 13438, Note_on_c, 0, 56, 57
1, 13438, Note_on_c, 2, 56, 64
1, 13438, Note_on_c, 2, 53, 68
1, 13438, Note_on_c, 2, 63, 72
1, 13438, Note_on_c, 2, 60, 83
1, 13439, Note_on_c, 1, 41, 90
1, 13439, Note_on_c, 9, 36, 115
1, 13439, Note_on_c, 11, 41, 86
1, 13440, Note_on_c, 9, 36, 0
1, 13440, Note_on_c, 10, 65, 0
1, 13440, Note_on_c, 10, 61, 0
1, 13440, Note_on_c, 10, 58, 0
1, 13440, Note_on_c, 10, 60, 54
1, 13440, Note_on_c, 10, 53, 63
1, 13440, Note_on_c, 10, 63, 53
1, 13441, Note_on_c, 11, 35, 0
1, 13441, Note_on_c, 1, 35, 0
1, 13441, Note_on_c, 9, 51, 81
1, 13442, Note_on_c, 9, 51, 0
1, 13449, Note_on_c, 0, 53, 0
1, 13452, Note_on_c, 3, 60, 0
1, 13463, Note_on_c, 4, 60, 0
1, 13463, Note_on_c, 3, 56, 86
1, 13464, Note_on_c, 4, 63, 0
1, 13464, Note_on_c, 4, 60, 75
1, 13464, Note_on_c, 4, 56, 66
1, 13464, Note_on_c, 9, 44, 46
1, 13465, Note_on_c, 9, 44, 0
1, 13485, Note_on_c, 2, 60, 0
1, 13485, Note_on_c, 2, 63, 0
1, 13485, Note_on_c, 2, 53, 0
1, 13486, Note_on_c, 0, 60, 0
1, 13486, Note_on_c, 0, 63, 0
1, 13486, Note_on_c, 2, 56, 0
1, 13486, Note_on_c, 0, 53, 63
1, 13486, Note_on_c, 2, 53, 81
1, 13486, Note_on_c, 2, 63, 77
1, 13486, Note_on_c, 2, 60, 87
1, 13486, Note_on_c, 9, 69, 39
1, 13487, Note_on_c, 9, 69, 0
1, 13487, Note_on_c, 9, 51, 57
1, 13488, Note_on_c, 9, 51, 0
1, 13488, Note_on_c, 0, 56, 0
1, 13488, Note_on_c, 2, 56, 70
1, 13492, Note_on_c, 3, 56, 0
1, 13494, Note_on_c, 0, 53, 0
1, 13495, Note_on_c, 2, 60, 0
1, 13495, Note_on_c, 2, 53, 0
1, 13497, Note_on_c, 2, 63, 0
1, 13498, Note_on_c, 2, 56, 0
1, 13504, Note_on_c, 11, 41, 0
1, 13504, Note_on_c, 1, 41, 0
1, 13511, Note_on_c, 4, 56, 0
1, 13511, Note_on_c, 4, 60, 0
1, 13511, Note_on_c, 3, 56, 87
1, 13511, Note_on_c, 9, 51, 46
1, 13511, Note_on_c, 9, 62, 84
1, 13511, Note_on_c, 9, 69, 33
1, 13512, Note_on_c, 9, 69, 0
1, 13512, Note_on_c, 9, 62, 0
1, 13512, Note_on_c, 9, 51, 0
1, 13512, Note_on_c, 0, 63, 59
1, 13512, Note_on_c, 0, 60, 68
1, 13512, Note_on_c, 2, 56, 60
1, 13512, Note_on_c, 2, 63, 67
1, 13512, Note_on_c, 2, 53, 65
1, 13512, Note_on_c, 2, 60, 69
1, 13512, Note_on_c, 4, 60, 76
1, 13512, Note_on_c, 4, 56, 67
1, 13513, Note_on_c, 0, 56, 55
1, 13522, Note_on_c, 0, 60, 0
1, 13522, Note_on_c, 0, 63, 0
1, 13524, Note_on_c, 0, 56, 0
1, 13535, Note_on_c, 9, 75, 76
1, 13536, Note_on_c, 9, 75, 0
1, 13536, Note_on_c, 4, 56, 0
1, 13536, Note_on_c, 3, 56, 0
1, 13536, Note_on_c, 3, 58, 86
1, 13536, Note_on_c, 4, 58, 66
1, 13536, Note_on_c, 9, 51, 91
1, 13536, Note_on_c, 9, 40, 107
1, 13537, Note_on_c, 9, 40, 0
1, 13537, Note_on_c, 9, 51, 0
1, 13537, Note_on_c, 9, 62, 71
1, 13538, Note_on_c, 9, 62, 0
1, 13548, Note_on_c, 2, 63, 0
1, 13549, Note_on_c, 2, 53, 0
1, 13550, Note_on_c, 2, 56, 0
1, 13552, Note_on_c, 2, 60, 0
1, 13559, Note_on_c, 4, 58, 0
1, 13559, Note_on_c, 0, 60, 69
1, 13559, Note_on_c, 9, 44, 42
1, 13560, Note_on_c, 9, 44, 0
1, 13560, Note_on_c, 4, 60, 0
1, 13560, Note_on_c, 0, 63, 55
1, 13560, Note_on_c, 2, 53, 67
1, 13560, Note_on_c, 2, 60, 69
1, 13560, Note_on_c, 2, 63, 67
1, 13560, Note_on_c, 3, 56, 86
1, 13560, Note_on_c, 4, 58, 78
1, 13560, Note_on_c, 4, 56, 66
1, 13561, Note_on_c, 0, 56, 52
1, 13561, Note_on_c, 2, 56, 66
1, 13562, Note_on_c, 3, 58, 0
1, 13567, Note_on_c, 2, 56, 0
1, 13568, Note_on_c, 2, 60, 0
1, 13569, Note_on_c, 2, 53, 0
1, 13570, Note_on_c, 2, 63, 0
1, 13570, Note_on_c, 0, 60, 0
1, 13570, Note_on_c, 0, 56, 0
1, 13571, Note_on_c, 0, 63, 0
1, 13582, Note_on_c, 2, 63, 74
1, 13582, Note_on_c, 3, 53, 96
1, 13583, Note_on_c, 4, 56, 0
1, 13583, Note_on_c, 1, 36, 90
1, 13583, Note_on_c, 9, 69, 37
1, 13583, Note_on_c, 11, 36, 86
1, 13584, Note_on_c, 9, 69, 0
1, 13584, Note_on_c, 4, 58, 0
1, 13584, Note_on_c, 2, 60, 58
1, 13584, Note_on_c, 2, 56, 65
1, 13584, Note_on_c, 4, 56, 78
1, 13584, Note_on_c, 4, 53, 76
1, 13584, Note_on_c, 9, 51, 49
1, 13585, Note_on_c, 9, 51, 0
1, 13585, Note_on_c, 3, 56, 0
1, 13592, Note_on_c, 2, 60, 0
1, 13602, Note_on_c, 2, 63, 0
1, 13604, Note_on_c, 1, 36, 0
1, 13604, Note_on_c, 11, 36, 0
1, 13605, Note_on_c, 2, 56, 0
1, 13606, Note_on_c, 1, 39, 72
1, 13606, Note_on_c, 2, 63, 95
1, 13606, Note_on_c, 11, 39, 68
1, 13607, Note_on_c, 9, 51, 38
1, 13607, Note_on_c, 9, 69, 27
1, 13608, Note_on_c, 9, 69, 0
1, 13608, Note_on_c, 9, 51, 0
1, 13608, Note_on_c, 0, 63, 62
1, 13608, Note_on_c, 0, 60, 79
1, 13608, Note_on_c, 2, 60, 72
1, 13608, Note_on_c, 9, 62, 71
1, 13609, Note_on_c, 9, 62, 0
1, 13609, Note_on_c, 0, 56, 59
1, 13609, Note_on_c, 9, 36, 93
1, 13610, Note_on_c, 9, 36, 0
1, 13612, Note_on_c, 2, 63, 0
1, 13614, Note_on_c, 2, 60, 0
1, 13630, Note_on_c, 1, 39, 0
1, 13630, Note_on_c, 11, 39, 0
1, 13630, Note_on_c, 2, 56, 73
1, 13630, Note_on_c, 2, 53, 72
1, 13630, Note_on_c, 2, 60, 86
1, 13630, Note_on_c, 2, 63, 81
1, 13631, Note_on_c, 1, 41, 74
1, 13631, Note_on_c, 9, 36, 65
1, 13631, Note_on_c, 11, 41, 70
1, 13632, Note_on_c, 9, 36, 0
1, 13632, Note_on_c, 0, 53, 57
1, 13633, Note_on_c, 9, 51, 86
1, 13634, Note_on_c, 9, 51, 0
1, 13634, Note_on_c, 9, 62, 71
1, 13635, Note_on_c, 9, 62, 0
1, 13656, Note_on_c, 11, 41, 0
1, 13656, Note_on_c, 1, 41, 0
1, 13656, Note_on_c, 0, 56, 0
1, 13657, Note_on_c, 9, 44, 47
1, 13658, Note_on_c, 9, 44, 0
1, 13673, Note_on_c, 0, 60, 0
1, 13677, Note_on_c, 2, 56, 0
1, 13677, Note_on_c, 2, 63, 0
1, 13677, Note_on_c, 2, 53, 0
1, 13677, Note_on_c, 2, 60, 0
1, 13678, Note_on_c, 0, 63, 0
1, 13678, Note_on_c, 2, 53, 74
1, 13678, Note_on_c, 2, 60, 87
1, 13678, Note_on_c, 2, 56, 75
1, 13678, Note_on_c, 2, 63, 77
1, 13679, Note_on_c, 0, 56, 49
1, 13679, Note_on_c, 1, 29, 90
1, 13679, Note_on_c, 9, 69, 43
1, 13679, Note_on_c, 11, 29, 86
1, 13680, Note_on_c, 9, 69, 0
1, 13680, Note_on_c, 9, 62, 80
1, 13681, Note_on_c, 9, 62, 0
1, 13681, Note_on_c, 9, 51, 48
1, 13681, Note_on_c, 9, 36, 110
1, 13682, Note_on_c, 9, 36, 0
1, 13682, Note_on_c, 9, 51, 0
1, 13688, Note_on_c, 2, 53, 0
1, 13688, Note_on_c, 2, 60, 0
1, 13689, Note_on_c, 2, 56, 0
1, 13692, Note_on_c, 2, 63, 0
1, 13695, Note_on_c, 0, 56, 0
1, 13702, Note_on_c, 0, 60, 61
1, 13703, Note_on_c, 9, 51, 41
1, 13703, Note_on_c, 9, 69, 31
1, 13704, Note_on_c, 9, 69, 0
1, 13704, Note_on_c, 9, 51, 0
1, 13704, Note_on_c, 0, 53, 0
1, 13704, Note_on_c, 2, 53, 63
1, 13704, Note_on_c, 2, 56, 58
1, 13704, Note_on_c, 2, 60, 69
1, 13704, Note_on_c, 2, 63, 67
1, 13708, Note_on_c, 3, 53, 0
1, 13716, Note_on_c, 0, 60, 0
1, 13727, Note_on_c, 0, 60, 79
1, 13727, Note_on_c, 0, 56, 59
1, 13727, Note_on_c, 0, 63, 68
1, 13727, Note_on_c, 9, 75, 73
1, 13728, Note_on_c, 9, 75, 0
1, 13728, Note_on_c, 11, 29, 0
1, 13728, Note_on_c, 4, 53, 0
1, 13728, Note_on_c, 4, 56, 0
1, 13728, Note_on_c, 1, 29, 0
1, 13728, Note_on_c, 4, 61, 78
1, 13728, Note_on_c, 4, 76, 73
1, 13728, Note_on_c, 4, 73, 73
1, 13728, Note_on_c, 9, 40, 105
1, 13729, Note_on_c, 9, 40, 0
1, 13729, Note_on_c, 3, 61, 98
1, 13729, Note_on_c, 9, 62, 88
1, 13729, Note_on_c, 9, 51, 81
1, 13730, Note_on_c, 9, 51, 0
1, 13730, Note_on_c, 9, 62, 0
1, 13738, Note_on_c, 2, 56, 0
1, 13740, Note_on_c, 0, 63, 0
1, 13740, Note_on_c, 2, 53, 0
1, 13742, Note_on_c, 2, 63, 0
1, 13742, Note_on_c, 2, 60, 0
1, 13750, Note_on_c, 0, 63, 64
1, 13751, Note_on_c, 3, 63, 101
1, 13751, Note_on_c, 9, 44, 43
1, 13752, Note_on_c, 9, 44, 0
1, 13752, Note_on_c, 4, 76, 0
1, 13752, Note_on_c, 4, 61, 0
1, 13752, Note_on_c, 4, 73, 0
1, 13752, Note_on_c, 1, 39, 76
1, 13752, Note_on_c, 2, 56, 60
1, 13752, Note_on_c, 2, 60, 71
1, 13752, Note_on_c, 2, 53, 61
1, 13752, Note_on_c, 2, 63, 61
1, 13752, Note_on_c, 4, 75, 73
1, 13752, Note_on_c, 4, 63, 81
1, 13752, Note_on_c, 4, 70, 73
1, 13752, Note_on_c, 11, 39, 72
1, 13756, Note_on_c, 3, 61, 0
1, 13760, Note_on_c, 2, 56, 0
1, 13760, Note_on_c, 2, 53, 0
1, 13760, Note_on_c, 2, 60, 0
1, 13761, Note_on_c, 2, 63, 0
1, 13770, Note_on_c, 0, 56, 0
1, 13771, Note_on_c, 11, 39, 0
1, 13771, Note_on_c, 1, 39, 0
1, 13771, Note_on_c, 0, 63, 0
1, 13773, Note_on_c, 0, 60, 0
1, 13774, Note_on_c, 0, 53, 59
1, 13774, Note_on_c, 2, 56, 58
1, 13774, Note_on_c, 2, 60, 54
1, 13774, Note_on_c, 2, 63, 87
1, 13775, Note_on_c, 1, 40, 72
1, 13775, Note_on_c, 9, 51, 42
1, 13775, Note_on_c, 9, 69, 32
1, 13775, Note_on_c, 11, 40, 68
1, 13776, Note_on_c, 9, 69, 0
1, 13776, Note_on_c, 4, 70, 0
1, 13776, Note_on_c, 4, 75, 0
1, 13776, Note_on_c, 9, 51, 0
1, 13776, Note_on_c, 4, 63, 0
1, 13776, Note_on_c, 4, 68, 73
1, 13776, Note_on_c, 4, 73, 73
1, 13776, Note_on_c, 4, 65, 66
1, 13777, Note_on_c, 3, 65, 86
1, 13780, Note_on_c, 3, 63, 0
1, 13782, Note_on_c, 2, 60, 0
1, 13791, Note_on_c, 2, 63, 0
1, 13795, Note_on_c, 2, 56, 0
1, 13797, Note_on_c, 0, 53, 0
1, 13797, Note_on_c, 2, 63, 86
1, 13798, Note_on_c, 0, 56, 55
1, 13798, Note_on_c, 2, 60, 71
1, 13799, Note_on_c, 4, 68, 0
1, 13799, Note_on_c, 11, 40, 0
1, 13799, Note_on_c, 4, 73, 0
1, 13799, Note_on_c, 1, 40, 0
1, 13799, Note_on_c, 1, 41, 79
1, 13799, Note_on_c, 9, 69, 35
1, 13799, Note_on_c, 9, 51, 42
1, 13799, Note_on_c, 11, 41, 75
1, 13800, Note_on_c, 9, 51, 0
1, 13800, Note_on_c, 4, 65, 0
1, 13800, Note_on_c, 9, 69, 0
1, 13800, Note_on_c, 4, 68, 65
1, 13800, Note_on_c, 4, 77, 73
1, 13800, Note_on_c, 4, 73, 73
1, 13801, Note_on_c, 3, 68, 85
1, 13805, Note_on_c, 2, 63, 0
1, 13806, Note_on_c, 2, 60, 0
1, 13806, Note_on_c, 3, 65, 0
1, 13816, Note_on_c, 0, 56, 0
1, 13822, Note_on_c, 0, 58, 66
1, 13822, Note_on_c, 0, 56, 41
1, 13822, Note_on_c, 0, 65, 65
1, 13822, Note_on_c, 0, 61, 63
1, 13822, Note_on_c, 2, 56, 70
1, 13822, Note_on_c, 2, 65, 69
1, 13822, Note_on_c, 2, 58, 70
1, 13822, Note_on_c, 2, 61, 70
1, 13823, Note_on_c, 1, 42, 82
1, 13823, Note_on_c, 9, 36, 115
1, 13823, Note_on_c, 9, 51, 83
1, 13823, Note_on_c, 11, 42, 78
1, 13824, Note_on_c, 9, 51, 0
1, 13824, Note_on_c, 9, 36, 0
1, 13824, Note_on_c, 10, 63, 0
1, 13824, Note_on_c, 10, 60, 0
1, 13824, Note_on_c, 10, 58, 63
1, 13824, Note_on_c, 10, 61, 62
1, 13826, Note_on_c, 11, 41, 0
1, 13826, Note_on_c, 1, 41, 0
1, 13841, Note_on_c, 3, 68, 0
1, 13848, Note_on_c, 4, 68, 0
1, 13848, Note_on_c, 4, 73, 0
1, 13848, Note_on_c, 4, 77, 0
1, 13848, Note_on_c, 4, 65, 66
1, 13848, Note_on_c, 4, 70, 73
1, 13848, Note_on_c, 4, 75, 73
1, 13848, Note_on_c, 9, 44, 41
1, 13849, Note_on_c, 9, 44, 0
1, 13849, Note_on_c, 3, 65, 86
1, 13865, Note_on_c, 0, 58, 0
1, 13866, Note_on_c, 0, 65, 0
1, 13867, Note_on_c, 0, 61, 0
1, 13870, Note_on_c, 2, 61, 0
1, 13870, Note_on_c, 2, 56, 0
1, 13870, Note_on_c, 2, 65, 0
1, 13870, Note_on_c, 2, 58, 0
1, 13870, Note_on_c, 0, 53, 63
1, 13870, Note_on_c, 9, 69, 50
1, 13871, Note_on_c, 9, 69, 0
1, 13871, Note_on_c, 0, 56, 0
1, 13871, Note_on_c, 9, 51, 49
1, 13872, Note_on_c, 9, 51, 0
1, 13872, Note_on_c, 2, 61, 81
1, 13872, Note_on_c, 2, 58, 83
1, 13872, Note_on_c, 2, 56, 76
1, 13872, Note_on_c, 2, 65, 74
1, 13878, Note_on_c, 2, 56, 0
1, 13878, Note_on_c, 0, 53, 0
1, 13881, Note_on_c, 2, 61, 0
1, 13881, Note_on_c, 2, 58, 0
1, 13882, Note_on_c, 3, 65, 0
1, 13884, Note_on_c, 2, 65, 0
1, 13894, Note_on_c, 0, 65, 68
1, 13894, Note_on_c, 2, 56, 61
1, 13894, Note_on_c, 2, 65, 73
1, 13894, Note_on_c, 9, 62, 66
1, 13895, Note_on_c, 9, 62, 0
1, 13895, Note_on_c, 4, 70, 0
1, 13895, Note_on_c, 0, 58, 66
1, 13895, Note_on_c, 0, 56, 61
1, 13895, Note_on_c, 9, 69, 28
1, 13895, Note_on_c, 9, 51, 47
1, 13896, Note_on_c, 9, 51, 0
1, 13896, Note_on_c, 4, 75, 0
1, 13896, Note_on_c, 9, 69, 0
1, 13896, Note_on_c, 4, 65, 0
1, 13896, Note_on_c, 2, 58, 63
1, 13896, Note_on_c, 2, 61, 63
1, 13896, Note_on_c, 4, 70, 73
1, 13896, Note_on_c, 4, 73, 74
1, 13896, Note_on_c, 4, 64, 80
1, 13897, Note_on_c, 0, 61, 61
1, 13897, Note_on_c, 3, 64, 100
1, 13901, Note_on_c, 11, 42, 0
1, 13901, Note_on_c, 1, 42, 0
1, 13903, Note_on_c, 0, 61, 0
1, 13904, Note_on_c, 0, 58, 0
1, 13905, Note_on_c, 0, 65, 0
1, 13906, Note_on_c, 0, 56, 0
1, 13919, Note_on_c, 9, 40, 101
1, 13919, Note_on_c, 9, 51, 86
1, 13920, Note_on_c, 9, 51, 0
1, 13920, Note_on_c, 9, 40, 0
1, 13920, Note_on_c, 4, 73, 0
1, 13920, Note_on_c, 4, 64, 0
1, 13920, Note_on_c, 4, 65, 73
1, 13921, Note_on_c, 3, 64, 0
1, 13921, Note_on_c, 3, 65, 93
1, 13921, Note_on_c, 9, 62, 74
1, 13921, Note_on_c, 9, 75, 79
1, 13922, Note_on_c, 9, 75, 0
1, 13922, Note_on_c, 9, 62, 0
1, 13922, Note_on_c, 4, 75, 75
1, 13930, Note_on_c, 2, 65, 0
1, 13931, Note_on_c, 2, 56, 0
1, 13932, Note_on_c, 2, 58, 0
1, 13934, Note_on_c, 2, 61, 0
1, 13943, Note_on_c, 0, 58, 65
1, 13943, Note_on_c, 0, 65, 73
1, 13943, Note_on_c, 0, 56, 57
1, 13943, Note_on_c, 9, 44, 43
1, 13944, Note_on_c, 9, 44, 0
1, 13944, Note_on_c, 4, 65, 0
1, 13944, Note_on_c, 2, 61, 73
1, 13944, Note_on_c, 2, 58, 67
1, 13944, Note_on_c, 2, 56, 64
1, 13944, Note_on_c, 2, 65, 73
1, 13944, Note_on_c, 4, 63, 67
1, 13944, Note_on_c, 4, 77, 76
1, 13945, Note_on_c, 0, 61, 58
1, 13945, Note_on_c, 3, 63, 87
1, 13946, Note_on_c, 4, 75, 0
1, 13946, Note_on_c, 3, 65, 0
1, 13950, Note_on_c, 2, 61, 0
1, 13950, Note_on_c, 2, 56, 0
1, 13950, Note_on_c, 2, 58, 0
1, 13951, Note_on_c, 0, 61, 0
1, 13951, Note_on_c, 0, 65, 0
1, 13952, Note_on_c, 0, 58, 0
1, 13952, Note_on_c, 2, 65, 0
1, 13955, Note_on_c, 0, 56, 0
1, 13966, Note_on_c, 2, 61, 60
1, 13966, Note_on_c, 2, 65, 75
1, 13966, Note_on_c, 9, 69, 45
1, 13967, Note_on_c, 9, 69, 0
1, 13968, Note_on_c, 4, 63, 0
1, 13968, Note_on_c, 2, 58, 60
1, 13968, Note_on_c, 4, 61, 58
1, 13968, Note_on_c, 9, 51, 42
1, 13969, Note_on_c, 9, 51, 0
1, 13969, Note_on_c, 3, 61, 78
1, 13971, Note_on_c, 3, 63, 0
1, 13983, Note_on_c, 2, 61, 0
1, 13985, Note_on_c, 2, 65, 0
1, 13990, Note_on_c, 2, 58, 0
1, 13990, Note_on_c, 2, 65, 74
1, 13990, Note_on_c, 9, 69, 23
1, 13991, Note_on_c, 9, 69, 0
1, 13991, Note_on_c, 0, 58, 66
1, 13991, Note_on_c, 0, 56, 59
1, 13991, Note_on_c, 0, 61, 64
1, 13991, Note_on_c, 0, 65, 68
1, 13991, Note_on_c, 1, 37, 88
1, 13991, Note_on_c, 9, 36, 105
1, 13991, Note_on_c, 11, 37, 84
1, 13992, Note_on_c, 9, 36, 0
1, 13992, Note_on_c, 2, 61, 64
1, 13992, Note_on_c, 9, 51, 27
1, 13993, Note_on_c, 9, 51, 0
1, 13993, Note_on_c, 9, 62, 71
1, 13994, Note_on_c, 9, 62, 0
1, 13998, Note_on_c, 2, 65, 0
1, 14000, Note_on_c, 2, 61, 0
1, 14014, Note_on_c, 11, 37, 0
1, 14014, Note_on_c, 1, 37, 0
1, 14014, Note_on_c, 0, 53, 58
1, 14014, Note_on_c, 2, 56, 58
1, 14014, Note_on_c, 2, 65, 71
1, 14014, Note_on_c, 2, 61, 95
1, 14014, Note_on_c, 2, 58, 95
1, 14015, Note_on_c, 1, 42, 64
1, 14015, Note_on_c, 9, 36, 72
1, 14015, Note_on_c, 9, 51, 87
1, 14015, Note_on_c, 11, 42, 60
1, 14016, Note_on_c, 9, 51, 0
1, 14016, Note_on_c, 9, 36, 0
1, 14018, Note_on_c, 9, 62, 74
1, 14019, Note_on_c, 9, 62, 0
1, 14030, Note_on_c, 0, 56, 0
1, 14039, Note_on_c, 1, 34, 69
1, 14039, Note_on_c, 11, 34, 65
1, 14041, Note_on_c, 1, 42, 0
1, 14041, Note_on_c, 11, 42, 0
1, 14041, Note_on_c, 9, 44, 45
1, 14042, Note_on_c, 9, 44, 0
1, 14050, Note_on_c, 0, 58, 0
1, 14053, Note_on_c, 0, 61, 0
1, 14055, Note_on_c, 0, 65, 0
1, 14061, Note_on_c, 2, 65, 0
1, 14062, Note_on_c, 2, 61, 0
1, 14062, Note_on_c, 2, 58, 0
1, 14062, Note_on_c, 2, 56, 0
1, 14062, Note_on_c, 0, 56, 37
1, 14062, Note_on_c, 2, 65, 83
1, 14062, Note_on_c, 9, 69, 37
1, 14063, Note_on_c, 9, 69, 0
1, 14063, Note_on_c, 1, 42, 80
1, 14063, Note_on_c, 9, 51, 51
1, 14063, Note_on_c, 11, 42, 76
1, 14064, Note_on_c, 9, 51, 0
1, 14064, Note_on_c, 2, 58, 98
1, 14064, Note_on_c, 2, 61, 108
1, 14064, Note_on_c, 2, 56, 93
1, 14064, Note_on_c, 9, 36, 107
1, 14065, Note_on_c, 9, 36, 0
1, 14065, Note_on_c, 11, 34, 0
1, 14065, Note_on_c, 1, 34, 0
1, 14072, Note_on_c, 2, 58, 0
1, 14073, Note_on_c, 2, 61, 0
1, 14073, Note_on_c, 2, 56, 0
1, 14074, Note_on_c, 0, 53, 0
1, 14075, Note_on_c, 2, 65, 0
1, 14080, Note_on_c, 0, 56, 0
1, 14083, Note_on_c, 4, 61, 0
1, 14083, Note_on_c, 4, 70, 0
1, 14083, Note_on_c, 4, 77, 0
1, 14086, Note_on_c, 0, 58, 48
1, 14086, Note_on_c, 9, 69, 34
1, 14087, Note_on_c, 9, 69, 0
1, 14087, Note_on_c, 9, 62, 66
1, 14088, Note_on_c, 9, 62, 0
1, 14088, Note_on_c, 2, 61, 62
1, 14088, Note_on_c, 2, 58, 63
1, 14088, Note_on_c, 2, 65, 75
1, 14088, Note_on_c, 2, 56, 61
1, 14088, Note_on_c, 9, 51, 74
1, 14089, Note_on_c, 9, 51, 0
1, 14089, Note_on_c, 3, 63, 91
1, 14090, Note_on_c, 3, 61, 0
1, 14101, Note_on_c, 11, 42, 0
1, 14101, Note_on_c, 1, 42, 0
1, 14102, Note_on_c, 0, 58, 0
1, 14110, Note_on_c, 0, 65, 68
1, 14110, Note_on_c, 0, 61, 66
1, 14111, Note_on_c, 0, 58, 58
1, 14111, Note_on_c, 9, 75, 82
1, 14111, Note_on_c, 9, 51, 93
1, 14111, Note_on_c, 9, 40, 105
1, 14112, Note_on_c, 9, 40, 0
1, 14112, Note_on_c, 9, 51, 0
1, 14112, Note_on_c, 9, 75, 0
1, 14112, Note_on_c, 0, 56, 56
1, 14114, Note_on_c, 9, 62, 66
1, 14115, Note_on_c, 9, 62, 0
1, 14119, Note_on_c, 3, 63, 0
1, 14121, Note_on_c, 2, 56, 0
1, 14122, Note_on_c, 2, 58, 0
1, 14122, Note_on_c, 2, 65, 0
1, 14122, Note_on_c, 0, 56, 0
1, 14124, Note_on_c, 2, 61, 0
1, 14124, Note_on_c, 0, 58, 0
1, 14125, Note_on_c, 0, 61, 0
1, 14134, Note_on_c, 0, 58, 60
1, 14134, Note_on_c, 0, 56, 53
1, 14134, Note_on_c, 2, 61, 63
1, 14134, Note_on_c, 3, 65, 87
1, 14135, Note_on_c, 0, 61, 53
1, 14135, Note_on_c, 9, 44, 50
1, 14136, Note_on_c, 9, 44, 0
1, 14136, Note_on_c, 2, 65, 72
1, 14136, Note_on_c, 2, 56, 60
1, 14136, Note_on_c, 2, 58, 65
1, 14137, Note_on_c, 1, 37, 86
1, 14137, Note_on_c, 9, 62, 55
1, 14137, Note_on_c, 11, 37, 82
1, 14138, Note_on_c, 9, 62, 0
1, 14140, Note_on_c, 2, 61, 0
1, 14142, Note_on_c, 2, 56, 0
1, 14144, Note_on_c, 2, 65, 0
1, 14144, Note_on_c, 2, 58, 0
1, 14154, Note_on_c, 0, 56, 0
1, 14154, Note_on_c, 0, 61, 0
1, 14157, Note_on_c, 2, 65, 79
1, 14157, Note_on_c, 9, 69, 45
1, 14158, Note_on_c, 9, 69, 0
1, 14158, Note_on_c, 11, 37, 0
1, 14158, Note_on_c, 0, 58, 0
1, 14158, Note_on_c, 1, 37, 0
1, 14158, Note_on_c, 0, 53, 61
1, 14158, Note_on_c, 2, 61, 52
1, 14159, Note_on_c, 3, 65, 0
1, 14159, Note_on_c, 1, 42, 70
1, 14159, Note_on_c, 9, 51, 49
1, 14159, Note_on_c, 11, 42, 66
1, 14160, Note_on_c, 9, 51, 0
1, 14162, Note_on_c, 2, 58, 11
1, 14162, Note_on_c, 9, 62, 71
1, 14163, Note_on_c, 9, 62, 0
1, 14167, Note_on_c, 2, 61, 0
1, 14170, Note_on_c, 0, 53, 0
1, 14173, Note_on_c, 0, 65, 0
1, 14177, Note_on_c, 2, 65, 0
1, 14178, Note_on_c, 2, 58, 0
1, 14181, Note_on_c, 2, 65, 76
1, 14182, Note_on_c, 0, 56, 50
1, 14182, Note_on_c, 2, 61, 60
1, 14182, Note_on_c, 3, 68, 84
1, 14182, Note_on_c, 9, 69, 36
1, 14183, Note_on_c, 9, 69, 0
1, 14183, Note_on_c, 9, 51, 57
1, 14184, Note_on_c, 9, 51, 0
1, 14184, Note_on_c, 1, 35, 88
1, 14184, Note_on_c, 11, 35, 84
1, 14187, Note_on_c, 11, 42, 0
1, 14187, Note_on_c, 1, 42, 0
1, 14189, Note_on_c, 2, 65, 0
1, 14190, Note_on_c, 2, 61, 0
1, 14201, Note_on_c, 0, 56, 0
1, 14206, Note_on_c, 1, 35, 0
1, 14206, Note_on_c, 11, 35, 0
1, 14206, Note_on_c, 0, 56, 59
1, 14206, Note_on_c, 0, 60, 80
1, 14206, Note_on_c, 0, 63, 71
1, 14206, Note_on_c, 2, 53, 73
1, 14206, Note_on_c, 2, 56, 59
1, 14206, Note_on_c, 2, 60, 75
1, 14206, Note_on_c, 2, 63, 72
1, 14207, Note_on_c, 9, 36, 114
1, 14207, Note_on_c, 9, 51, 76
1, 14208, Note_on_c, 9, 51, 0
1, 14208, Note_on_c, 10, 58, 0
1, 14208, Note_on_c, 9, 36, 0
1, 14208, Note_on_c, 10, 61, 0
1, 14208, Note_on_c, 10, 63, 63
1, 14208, Note_on_c, 10, 60, 63
1, 14209, Note_on_c, 1, 41, 94
1, 14209, Note_on_c, 11, 41, 85
1, 14229, Note_on_c, 3, 65, 81
1, 14231, Note_on_c, 9, 44, 46
1, 14232, Note_on_c, 9, 44, 0
1, 14232, Note_on_c, 3, 68, 0
1, 14254, Note_on_c, 2, 53, 0
1, 14254, Note_on_c, 2, 60, 0
1, 14254, Note_on_c, 2, 56, 0
1, 14254, Note_on_c, 2, 63, 0
1, 14254, Note_on_c, 0, 53, 61
1, 14254, Note_on_c, 3, 63, 78
1, 14254, Note_on_c, 9, 69, 41
1, 14255, Note_on_c, 9, 69, 0
1, 14255, Note_on_c, 0, 60, 0
1, 14255, Note_on_c, 9, 51, 42
1, 14256, Note_on_c, 9, 51, 0
1, 14256, Note_on_c, 2, 53, 77
1, 14256, Note_on_c, 2, 63, 108
1, 14256, Note_on_c, 2, 56, 98
1, 14256, Note_on_c, 2, 60, 111
1, 14258, Note_on_c, 3, 65, 0
1, 14258, Note_on_c, 0, 63, 0
1, 14258, Note_on_c, 0, 56, 0
1, 14265, Note_on_c, 0, 53, 0
1, 14265, Note_on_c, 2, 56, 0
1, 14266, Note_on_c, 2, 53, 0
1, 14266, Note_on_c, 2, 60, 0
1, 14268, Note_on_c, 2, 63, 0
1, 14274, Note_on_c, 11, 41, 0
1, 14274, Note_on_c, 1, 41, 0
1, 14278, Note_on_c, 0, 56, 58
1, 14278, Note_on_c, 0, 60, 65
1, 14278, Note_on_c, 0, 63, 61
1, 14278, Note_on_c, 9, 69, 30
1, 14279, Note_on_c, 9, 69, 0
1, 14279, Note_on_c, 9, 62, 84
1, 14279, Note_on_c, 9, 51, 43
1, 14280, Note_on_c, 9, 51, 0
1, 14280, Note_on_c, 9, 62, 0
1, 14280, Note_on_c, 2, 60, 65
1, 14280, Note_on_c, 2, 63, 68
1, 14280, Note_on_c, 2, 56, 64
1, 14282, Note_on_c, 3, 61, 75
1, 14285, Note_on_c, 3, 63, 0
1, 14290, Note_on_c, 0, 60, 0
1, 14293, Note_on_c, 0, 63, 0
1, 14301, Note_on_c, 0, 56, 0
1, 14303, Note_on_c, 9, 75, 79
1, 14304, Note_on_c, 9, 75, 0
1, 14304, Note_on_c, 9, 40, 101
1, 14304, Note_on_c, 9, 51, 83
1, 14305, Note_on_c, 9, 51, 0
1, 14305, Note_on_c, 9, 40, 0
1, 14305, Note_on_c, 9, 62, 71
1, 14306, Note_on_c, 9, 62, 0
1, 14316, Note_on_c, 2, 56, 0
1, 14317, Note_on_c, 2, 63, 0
1, 14318, Note_on_c, 2, 60, 0
1, 14323, Note_on_c, 3, 61, 0
1, 14325, Note_on_c, 0, 56, 61
1, 14325, Note_on_c, 0, 60, 73
1, 14325, Note_on_c, 0, 63, 54
1, 14327, Note_on_c, 3, 65, 78
1, 14327, Note_on_c, 9, 44, 43
1, 14328, Note_on_c, 9, 44, 0
1, 14328, Note_on_c, 1, 41, 79
1, 14328, Note_on_c, 2, 60, 67
1, 14328, Note_on_c, 2, 56, 74
1, 14328, Note_on_c, 2, 63, 69
1, 14328, Note_on_c, 11, 41, 78
1, 14336, Note_on_c, 2, 60, 0
1, 14338, Note_on_c, 2, 56, 0
1, 14338, Note_on_c, 2, 63, 0
1, 14339, Note_on_c, 0, 60, 0
1, 14342, Note_on_c, 0, 63, 0
1, 14344, Note_on_c, 0, 56, 0
1, 14349, Note_on_c, 0, 53, 53
1, 14349, Note_on_c, 9, 69, 45
1, 14350, Note_on_c, 9, 69, 0
1, 14350, Note_on_c, 1, 41, 0
1, 14350, Note_on_c, 11, 41, 0
1, 14350, Note_on_c, 2, 60, 59
1, 14350, Note_on_c, 2, 63, 71
1, 14350, Note_on_c, 2, 56, 65
1, 14351, Note_on_c, 1, 48, 74
1, 14351, Note_on_c, 11, 48, 69
1, 14352, Note_on_c, 9, 51, 51
1, 14353, Note_on_c, 9, 51, 0
1, 14362, Note_on_c, 0, 53, 0
1, 14362, Note_on_c, 3, 65, 0
1, 14363, Note_on_c, 2, 60, 0
1, 14363, Note_on_c, 3, 68, 78
1, 14370, Note_on_c, 2, 63, 0
1, 14374, Note_on_c, 2, 56, 0
1, 14374, Note_on_c, 2, 60, 69
1, 14374, Note_on_c, 2, 63, 93
1, 14374, Note_on_c, 9, 69, 30
1, 14374, Note_on_c, 9, 62, 63
1, 14375, Note_on_c, 9, 62, 0
1, 14375, Note_on_c, 9, 69, 0
1, 14375, Note_on_c, 0, 53, 61
1, 14375, Note_on_c, 9, 51, 49
1, 14376, Note_on_c, 9, 51, 0
1, 14376, Note_on_c, 1, 47, 85
1, 14376, Note_on_c, 11, 47, 76
1, 14377, Note_on_c, 9, 36, 113
1, 14378, Note_on_c, 9, 36, 0
1, 14382, Note_on_c, 2, 63, 0
1, 14382, Note_on_c, 11, 48, 0
1, 14382, Note_on_c, 1, 48, 0
1, 14383, Note_on_c, 2, 60, 0
1, 14385, Note_on_c, 0, 53, 0
1, 14387, Note_on_c, 3, 68, 0
1, 14397, Note_on_c, 2, 53, 70
1, 14398, Note_on_c, 11, 47, 0
1, 14398, Note_on_c, 1, 47, 0
1, 14398, Note_on_c, 0, 60, 73
1, 14398, Note_on_c, 0, 56, 66
1, 14398, Note_on_c, 0, 63, 84
1, 14398, Note_on_c, 2, 63, 85
1, 14398, Note_on_c, 2, 56, 58
1, 14398, Note_on_c, 2, 60, 81
1, 14399, Note_on_c, 9, 36, 61
1, 14400, Note_on_c, 9, 36, 0
1, 14400, Note_on_c, 1, 46, 86
1, 14400, Note_on_c, 11, 46, 79
1, 14401, Note_on_c, 9, 51, 78
1, 14401, Note_on_c, 9, 62, 74
1, 14402, Note_on_c, 9, 62, 0
1, 14402, Note_on_c, 9, 51, 0
1, 14402, Note_on_c, 3, 68, 77
1, 14423, Note_on_c, 9, 44, 47
1, 14424, Note_on_c, 9, 44, 0
1, 14445, Note_on_c, 2, 56, 0
1, 14445, Note_on_c, 2, 53, 0
1, 14445, Note_on_c, 2, 63, 0
1, 14445, Note_on_c, 2, 60, 0
1, 14445, Note_on_c, 0, 53, 57
1, 14446, Note_on_c, 2, 56, 95
1, 14446, Note_on_c, 2, 60, 90
1, 14446, Note_on_c, 2, 63, 100
1, 14446, Note_on_c, 2, 53, 72
1, 14447, Note_on_c, 9, 62, 87
1, 14447, Note_on_c, 9, 51, 62
1, 14447, Note_on_c, 9, 69, 41
1, 14448, Note_on_c, 9, 69, 0
1, 14448, Note_on_c, 9, 51, 0
1, 14448, Note_on_c, 9, 62, 0
1, 14448, Note_on_c, 9, 36, 114
1, 14449, Note_on_c, 9, 36, 0
1, 14450, Note_on_c, 0, 63, 0
1, 14453, Note_on_c, 2, 60, 0
1, 14456, Note_on_c, 0, 60, 0
1, 14457, Note_on_c, 2, 63, 0
1, 14457, Note_on_c, 2, 56, 0
1, 14457, Note_on_c, 2, 53, 0
1, 14459, Note_on_c, 0, 56, 0
1, 14460, Note_on_c, 0, 53, 0
1, 14470, Note_on_c, 0, 63, 69
1, 14470, Note_on_c, 3, 65, 85
1, 14471, Note_on_c, 11, 46, 0
1, 14471, Note_on_c, 1, 46, 0
1, 14471, Note_on_c, 0, 56, 57
1, 14471, Note_on_c, 0, 60, 68
1, 14471, Note_on_c, 9, 69, 30
1, 14471, Note_on_c, 9, 51, 42
1, 14472, Note_on_c, 9, 51, 0
1, 14472, Note_on_c, 9, 69, 0
1, 14472, Note_on_c, 2, 56, 59
1, 14472, Note_on_c, 2, 63, 67
1, 14472, Note_on_c, 2, 58, 60
1, 14472, Note_on_c, 2, 53, 63
1, 14473, Note_on_c, 1, 41, 78
1, 14473, Note_on_c, 11, 41, 79
1, 14474, Note_on_c, 3, 68, 0
1, 14480, Note_on_c, 0, 63, 0
1, 14483, Note_on_c, 0, 60, 0
1, 14487, Note_on_c, 0, 56, 0
1, 14493, Note_on_c, 11, 41, 0
1, 14493, Note_on_c, 1, 41, 0
1, 14493, Note_on_c, 0, 53, 51
1, 14495, Note_on_c, 9, 40, 107
1, 14495, Note_on_c, 9, 75, 83
1, 14495, Note_on_c, 9, 62, 80
1, 14495, Note_on_c, 9, 51, 81
1, 14496, Note_on_c, 9, 51, 0
1, 14496, Note_on_c, 9, 62, 0
1, 14496, Note_on_c, 9, 40, 0
1, 14496, Note_on_c, 9, 75, 0
1, 14496, Note_on_c, 1, 46, 79
1, 14496, Note_on_c, 11, 46, 79
1, 14498, Note_on_c, 0, 53, 0
1, 14498, Note_on_c, 3, 63, 81
1, 14502, Note_on_c, 3, 65, 0
1, 14508, Note_on_c, 2, 58, 0
1, 14508, Note_on_c, 2, 63, 0
1, 14508, Note_on_c, 2, 53, 0
1, 14508, Note_on_c, 2, 56, 0
1, 14519, Note_on_c, 0, 56, 57
1, 14519, Note_on_c, 0, 63, 79
1, 14519, Note_on_c, 1, 38, 81
1, 14519, Note_on_c, 9, 44, 45
1, 14519, Note_on_c, 11, 38, 77
1, 14520, Note_on_c, 9, 44, 0
1, 14520, Note_on_c, 0, 60, 77
1, 14520, Note_on_c, 2, 53, 65
1, 14520, Note_on_c, 2, 63, 75
1, 14520, Note_on_c, 2, 58, 63
1, 14521, Note_on_c, 1, 46, 0
1, 14521, Note_on_c, 11, 46, 0
1, 14521, Note_on_c, 2, 56, 63
1, 14522, Note_on_c, 3, 63, 0
1, 14522, Note_on_c, 3, 61, 83
1, 14526, Note_on_c, 2, 63, 0
1, 14527, Note_on_c, 2, 56, 0
1, 14528, Note_on_c, 2, 58, 0
1, 14529, Note_on_c, 2, 53, 0
1, 14532, Note_on_c, 0, 63, 0
1, 14533, Note_on_c, 0, 60, 0
1, 14540, Note_on_c, 0, 53, 54
1, 14541, Note_on_c, 0, 56, 0
1, 14541, Note_on_c, 2, 58, 54
1, 14542, Note_on_c, 1, 38, 0
1, 14542, Note_on_c, 11, 38, 0
1, 14542, Note_on_c, 2, 56, 69
1, 14542, Note_on_c, 2, 63, 86
1, 14543, Note_on_c, 1, 46, 86
1, 14543, Note_on_c, 9, 69, 43
1, 14543, Note_on_c, 11, 46, 82
1, 14544, Note_on_c, 9, 69, 0
1, 14544, Note_on_c, 3, 58, 74
1, 14545, Note_on_c, 9, 51, 76
1, 14546, Note_on_c, 9, 51, 0
1, 14546, Note_on_c, 3, 61, 0
1, 14553, Note_on_c, 0, 53, 0
1, 14554, Note_on_c, 2, 56, 0
1, 14562, Note_on_c, 2, 58, 0
1, 14562, Note_on_c, 2, 63, 0
1, 14565, Note_on_c, 1, 46, 0
1, 14565, Note_on_c, 11, 46, 0
1, 14566, Note_on_c, 0, 56, 51
1, 14566, Note_on_c, 2, 63, 76
1, 14567, Note_on_c, 1, 38, 73
1, 14567, Note_on_c, 9, 51, 48
1, 14567, Note_on_c, 11, 38, 69
1, 14568, Note_on_c, 9, 51, 0
1, 14568, Note_on_c, 2, 58, 64
1, 14570, Note_on_c, 9, 69, 28
1, 14571, Note_on_c, 9, 69, 0
1, 14575, Note_on_c, 2, 63, 0
1, 14576, Note_on_c, 2, 58, 0
1, 14581, Note_on_c, 0, 56, 0
1, 14589, Note_on_c, 0, 54, 54
1, 14590, Note_on_c, 0, 61, 66
1, 14590, Note_on_c, 0, 58, 57
1, 14590, Note_on_c, 2, 54, 74
1, 14590, Note_on_c, 2, 58, 72
1, 14590, Note_on_c, 2, 63, 81
1, 14591, Note_on_c, 11, 38, 0
1, 14591, Note_on_c, 1, 38, 0
1, 14591, Note_on_c, 1, 39, 97
1, 14591, Note_on_c, 11, 39, 93
1, 14592, Note_on_c, 10, 56, 0
1, 14592, Note_on_c, 10, 53, 0
1, 14592, Note_on_c, 10, 60, 0
1, 14592, Note_on_c, 9, 36, 110
1, 14592, Note_on_c, 9, 51, 91
1, 14592, Note_on_c, 10, 54, 74
1, 14592, Note_on_c, 10, 61, 67
1, 14592, Note_on_c, 10, 58, 58
1, 14593, Note_on_c, 9, 51, 0
1, 14593, Note_on_c, 9, 36, 0
1, 14594, Note_on_c, 10, 63, 0
1, 14601, Note_on_c, 3, 58, 0
1, 14615, Note_on_c, 9, 44, 44
1, 14616, Note_on_c, 9, 44, 0
1, 14616, Note_on_c, 0, 54, 0
1, 14638, Note_on_c, 2, 58, 0
1, 14638, Note_on_c, 2, 63, 0
1, 14638, Note_on_c, 0, 61, 0
1, 14638, Note_on_c, 0, 58, 0
1, 14638, Note_on_c, 2, 54, 0
1, 14638, Note_on_c, 9, 69, 33
1, 14639, Note_on_c, 9, 69, 0
1, 14639, Note_on_c, 9, 51, 40
1, 14640, Note_on_c, 9, 51, 0
1, 14640, Note_on_c, 2, 63, 117
1, 14640, Note_on_c, 2, 58, 112
1, 14640, Note_on_c, 2, 54, 81
1, 14643, Note_on_c, 1, 39, 0
1, 14643, Note_on_c, 11, 39, 0
1, 14648, Note_on_c, 2, 58, 0
1, 14649, Note_on_c, 2, 54, 0
1, 14650, Note_on_c, 2, 63, 0
1, 14662, Note_on_c, 2, 54, 62
1, 14662, Note_on_c, 2, 58, 64
1, 14662, Note_on_c, 2, 61, 71
1, 14662, Note_on_c, 9, 69, 21
1, 14663, Note_on_c, 9, 69, 0
1, 14663, Note_on_c, 9, 51, 44
1, 14664, Note_on_c, 9, 51, 0
1, 14665, Note_on_c, 0, 61, 50
1, 14665, Note_on_c, 0, 58, 65
1, 14665, Note_on_c, 9, 62, 69
1, 14666, Note_on_c, 9, 62, 0
1, 14677, Note_on_c, 0, 58, 0
1, 14682, Note_on_c, 0, 61, 0
1, 14687, Note_on_c, 9, 75, 79
1, 14687, Note_on_c, 9, 40, 101
1, 14687, Note_on_c, 9, 51, 76
1, 14688, Note_on_c, 9, 51, 0
1, 14688, Note_on_c, 9, 40, 0
1, 14688, Note_on_c, 9, 75, 0
1, 14690, Note_on_c, 9, 62, 66
1, 14691, Note_on_c, 9, 62, 0
1, 14701, Note_on_c, 2, 54, 0
1, 14702, Note_on_c, 2, 58, 0
1, 14702, Note_on_c, 2, 61, 0
1, 14711, Note_on_c, 0, 61, 55
1, 14711, Note_on_c, 0, 73, 71
1, 14711, Note_on_c, 9, 44, 40
1, 14712, Note_on_c, 9, 44, 0
1, 14712, Note_on_c, 0, 54, 61
1, 14712, Note_on_c, 2, 54, 63
1, 14712, Note_on_c, 2, 61, 69
1, 14712, Note_on_c, 2, 58, 65
1, 14714, Note_on_c, 0, 58, 46
1, 14718, Note_on_c, 2, 58, 0
1, 14720, Note_on_c, 2, 61, 0
1, 14720, Note_on_c, 2, 54, 0
1, 14726, Note_on_c, 0, 58, 0
1, 14733, Note_on_c, 0, 73, 0
1, 14733, Note_on_c, 2, 61, 79
1, 14734, Note_on_c, 2, 54, 63
1, 14734, Note_on_c, 2, 58, 58
1, 14735, Note_on_c, 0, 70, 57
1, 14735, Note_on_c, 9, 51, 42
1, 14735, Note_on_c, 9, 69, 33
1, 14736, Note_on_c, 9, 69, 0
1, 14736, Note_on_c, 9, 51, 0
1, 14743, Note_on_c, 2, 58, 0
1, 14750, Note_on_c, 0, 54, 0
1, 14752, Note_on_c, 0, 61, 0
1, 14754, Note_on_c, 0, 70, 0
1, 14754, Note_on_c, 2, 61, 0
1, 14758, Note_on_c, 2, 54, 0
1, 14758, Note_on_c, 2, 58, 72
1, 14758, Note_on_c, 2, 61, 90
1, 14759, Note_on_c, 0, 68, 44
1, 14759, Note_on_c, 1, 34, 76
1, 14759, Note_on_c, 9, 51, 40
1, 14759, Note_on_c, 9, 62, 62
1, 14759, Note_on_c, 9, 69, 25
1, 14759, Note_on_c, 11, 34, 72
1, 14760, Note_on_c, 9, 69, 0
1, 14760, Note_on_c, 9, 62, 0
1, 14760, Note_on_c, 9, 51, 0
1, 14760, Note_on_c, 9, 36, 104
1, 14761, Note_on_c, 9, 36, 0
1, 14766, Note_on_c, 2, 61, 0
1, 14768, Note_on_c, 2, 58, 0
1, 14770, Note_on_c, 0, 68, 0
1, 14782, Note_on_c, 0, 54, 65
1, 14782, Note_on_c, 0, 73, 84
1, 14782, Note_on_c, 2, 61, 81
1, 14782, Note_on_c, 2, 54, 70
1, 14782, Note_on_c, 2, 58, 83
1, 14783, Note_on_c, 0, 58, 59
1, 14783, Note_on_c, 0, 61, 62
1, 14783, Note_on_c, 1, 39, 82
1, 14783, Note_on_c, 9, 51, 87
1, 14783, Note_on_c, 9, 36, 68
1, 14783, Note_on_c, 11, 39, 78
1, 14784, Note_on_c, 9, 36, 0
1, 14784, Note_on_c, 9, 51, 0
1, 14785, Note_on_c, 9, 62, 62
1, 14786, Note_on_c, 9, 62, 0
1, 14786, Note_on_c, 11, 34, 0
1, 14786, Note_on_c, 1, 34, 0
1, 14805, Note_on_c, 11, 39, 0
1, 14805, Note_on_c, 1, 39, 0
1, 14806, Note_on_c, 1, 34, 69
1, 14806, Note_on_c, 11, 34, 65
1, 14808, Note_on_c, 9, 44, 46
1, 14809, Note_on_c, 9, 44, 0
1, 14819, Note_on_c, 0, 58, 0
1, 14822, Note_on_c, 0, 54, 0
1, 14829, Note_on_c, 2, 54, 0
1, 14829, Note_on_c, 2, 61, 0
1, 14829, Note_on_c, 2, 58, 0
1, 14829, Note_on_c, 0, 54, 46
1, 14830, Note_on_c, 2, 58, 100
1, 14830, Note_on_c, 2, 61, 114
1, 14830, Note_on_c, 2, 54, 95
1, 14830, Note_on_c, 9, 69, 35
1, 14831, Note_on_c, 9, 69, 0
1, 14831, Note_on_c, 0, 70, 62
1, 14831, Note_on_c, 1, 39, 91
1, 14831, Note_on_c, 9, 36, 97
1, 14831, Note_on_c, 9, 51, 43
1, 14831, Note_on_c, 11, 39, 87
1, 14832, Note_on_c, 9, 51, 0
1, 14832, Note_on_c, 9, 36, 0
1, 14836, Note_on_c, 1, 34, 0
1, 14836, Note_on_c, 11, 34, 0
1, 14838, Note_on_c, 2, 61, 0
1, 14838, Note_on_c, 2, 58, 0
1, 14838, Note_on_c, 0, 73, 0
1, 14839, Note_on_c, 2, 54, 0
1, 14851, Note_on_c, 0, 70, 0
1, 14852, Note_on_c, 0, 54, 0
1, 14854, Note_on_c, 9, 69, 29
1, 14854, Note_on_c, 9, 62, 69
1, 14855, Note_on_c, 9, 62, 0
1, 14855, Note_on_c, 9, 69, 0
1, 14855, Note_on_c, 9, 51, 54
1, 14856, Note_on_c, 9, 51, 0
1, 14856, Note_on_c, 0, 68, 36
1, 14856, Note_on_c, 2, 58, 65
1, 14856, Note_on_c, 2, 61, 69
1, 14856, Note_on_c, 2, 54, 65
1, 14857, Note_on_c, 0, 61, 0
1, 14859, Note_on_c, 11, 39, 0
1, 14859, Note_on_c, 1, 39, 0
1, 14863, Note_on_c, 0, 68, 0
1, 14879, Note_on_c, 9, 40, 104
1, 14879, Note_on_c, 9, 62, 55
1, 14879, Note_on_c, 9, 51, 73
1, 14880, Note_on_c, 9, 51, 0
1, 14880, Note_on_c, 9, 62, 0
1, 14880, Note_on_c, 9, 40, 0
1, 14880, Note_on_c, 9, 75, 79
1, 14881, Note_on_c, 9, 75, 0
1, 14881, Note_on_c, 0, 54, 61
1, 14881, Note_on_c, 0, 61, 52
1, 14881, Note_on_c, 0, 73, 81
1, 14882, Note_on_c, 0, 58, 52
1, 14892, Note_on_c, 2, 54, 0
1, 14894, Note_on_c, 0, 73, 0
1, 14894, Note_on_c, 2, 58, 0
1, 14896, Note_on_c, 0, 54, 0
1, 14896, Note_on_c, 2, 61, 0
1, 14902, Note_on_c, 9, 62, 52
1, 14903, Note_on_c, 9, 62, 0
1, 14903, Note_on_c, 0, 54, 53
1, 14903, Note_on_c, 0, 73, 70
1, 14903, Note_on_c, 1, 39, 76
1, 14903, Note_on_c, 9, 44, 43
1, 14903, Note_on_c, 11, 39, 72
1, 14904, Note_on_c, 9, 44, 0
1, 14904, Note_on_c, 2, 58, 73
1, 14904, Note_on_c, 2, 61, 60
1, 14904, Note_on_c, 2, 54, 62
1, 14910, Note_on_c, 2, 58, 0
1, 14912, Note_on_c, 2, 61, 0
1, 14914, Note_on_c, 2, 54, 0
1, 14922, Note_on_c, 11, 39, 0
1, 14922, Note_on_c, 1, 39, 0
1, 14922, Note_on_c, 0, 54, 0
1, 14925, Note_on_c, 2, 61, 72
1, 14925, Note_on_c, 2, 58, 61
1, 14926, Note_on_c, 2, 54, 61
1, 14926, Note_on_c, 9, 62, 69
1, 14926, Note_on_c, 9, 69, 36
1, 14927, Note_on_c, 9, 69, 0
1, 14927, Note_on_c, 9, 62, 0
1, 14927, Note_on_c, 1, 46, 81
1, 14927, Note_on_c, 9, 51, 54
1, 14927, Note_on_c, 11, 46, 77
1, 14928, Note_on_c, 9, 51, 0
1, 14928, Note_on_c, 0, 70, 47
1, 14934, Note_on_c, 0, 73, 0
1, 14941, Note_on_c, 2, 58, 0
1, 14944, Note_on_c, 0, 70, 0
1, 14945, Note_on_c, 2, 61, 0
1, 14947, Note_on_c, 2, 54, 0
1, 14949, Note_on_c, 2, 61, 95
1, 14950, Note_on_c, 2, 58, 70
1, 14950, Note_on_c, 9, 69, 23
1, 14951, Note_on_c, 9, 69, 0
1, 14951, Note_on_c, 0, 58, 0
1, 14951, Note_on_c, 1, 45, 76
1, 14951, Note_on_c, 9, 51, 42
1, 14951, Note_on_c, 11, 45, 72
1, 14952, Note_on_c, 9, 51, 0
1, 14952, Note_on_c, 1, 46, 0
1, 14952, Note_on_c, 11, 46, 0
1, 14952, Note_on_c, 0, 61, 0
1, 14952, Note_on_c, 0, 68, 53
1, 14957, Note_on_c, 2, 61, 0
1, 14958, Note_on_c, 0, 68, 0
1, 14958, Note_on_c, 2, 58, 0
1, 14974, Note_on_c, 2, 54, 67
1, 14974, Note_on_c, 2, 58, 79
1, 14974, Note_on_c, 2, 61, 83
1, 14975, Note_on_c, 1, 44, 99
1, 14975, Note_on_c, 9, 51, 83
1, 14975, Note_on_c, 11, 44, 95
1, 14976, Note_on_c, 9, 51, 0
1, 14976, Note_on_c, 1, 45, 0
1, 14976, Note_on_c, 11, 45, 0
1, 14976, Note_on_c, 9, 36, 114
1, 14976, Note_on_c, 10, 68, 58
1, 14977, Note_on_c, 9, 36, 0
1, 14999, Note_on_c, 9, 44, 49
1, 15000, Note_on_c, 9, 44, 0
1, 15001, Note_on_c, 0, 73, 92
1, 15001, Note_on_c, 0, 61, 56
1, 15001, Note_on_c, 0, 63, 42
1, 15002, Note_on_c, 0, 54, 55
1, 15002, Note_on_c, 0, 58, 54
1, 15021, Note_on_c, 0, 54, 0
1, 15021, Note_on_c, 2, 61, 0
1, 15021, Note_on_c, 2, 58, 0
1, 15021, Note_on_c, 2, 54, 0
1, 15022, Note_on_c, 2, 58, 111
1, 15022, Note_on_c, 2, 61, 108
1, 15022, Note_on_c, 2, 54, 100
1, 15022, Note_on_c, 9, 69, 33
1, 15023, Note_on_c, 9, 69, 0
1, 15023, Note_on_c, 9, 51, 42
1, 15024, Note_on_c, 9, 51, 0
1, 15025, Note_on_c, 0, 63, 0
1, 15026, Note_on_c, 0, 73, 0
1, 15026, Note_on_c, 0, 70, 54
1, 15031, Note_on_c, 2, 54, 0
1, 15032, Note_on_c, 2, 58, 0
1, 15033, Note_on_c, 2, 61, 0
1, 15034, Note_on_c, 0, 58, 0
1, 15037, Note_on_c, 0, 61, 0
1, 15043, Note_on_c, 0, 70, 0
1, 15046, Note_on_c, 2, 54, 63
1, 15046, Note_on_c, 2, 61, 75
1, 15046, Note_on_c, 2, 58, 63
1, 15047, Note_on_c, 9, 62, 71
1, 15047, Note_on_c, 9, 69, 27
1, 15047, Note_on_c, 9, 51, 41
1, 15048, Note_on_c, 9, 51, 0
1, 15048, Note_on_c, 9, 62, 0
1, 15048, Note_on_c, 9, 69, 0
1, 15050, Note_on_c, 0, 68, 35
1, 15059, Note_on_c, 0, 68, 0
1, 15070, Note_on_c, 1, 44, 0
1, 15070, Note_on_c, 11, 44, 0
1, 15071, Note_on_c, 9, 75, 76
1, 15071, Note_on_c, 9, 40, 107
1, 15072, Note_on_c, 9, 40, 0
1, 15072, Note_on_c, 9, 75, 0
1, 15072, Note_on_c, 9, 51, 87
1, 15073, Note_on_c, 9, 51, 0
1, 15073, Note_on_c, 0, 63, 64
1, 15073, Note_on_c, 9, 62, 74
1, 15074, Note_on_c, 9, 62, 0
1, 15074, Note_on_c, 0, 58, 59
1, 15074, Note_on_c, 0, 73, 94
1, 15074, Note_on_c, 0, 54, 55
1, 15074, Note_on_c, 0, 61, 57
1, 15081, Note_on_c, 2, 54, 0
1, 15082, Note_on_c, 2, 58, 0
1, 15082, Note_on_c, 2, 61, 0
1, 15090, Note_on_c, 0, 61, 0
1, 15093, Note_on_c, 0, 54, 0
1, 15094, Note_on_c, 2, 61, 74
1, 15094, Note_on_c, 2, 54, 62
1, 15094, Note_on_c, 2, 58, 77
1, 15097, Note_on_c, 1, 39, 80
1, 15097, Note_on_c, 9, 44, 57
1, 15097, Note_on_c, 11, 39, 76
1, 15098, Note_on_c, 9, 44, 0
1, 15103, Note_on_c, 2, 54, 0
1, 15104, Note_on_c, 2, 58, 0
1, 15105, Note_on_c, 2, 61, 0
1, 15106, Note_on_c, 0, 58, 0
1, 15118, Note_on_c, 0, 54, 52
1, 15118, Note_on_c, 2, 61, 75
1, 15118, Note_on_c, 2, 58, 55
1, 15119, Note_on_c, 0, 61, 59
1, 15119, Note_on_c, 1, 30, 79
1, 15119, Note_on_c, 9, 69, 35
1, 15119, Note_on_c, 9, 51, 44
1, 15119, Note_on_c, 11, 30, 75
1, 15120, Note_on_c, 9, 51, 0
1, 15120, Note_on_c, 9, 69, 0
1, 15120, Note_on_c, 0, 70, 61
1, 15124, Note_on_c, 0, 73, 0
1, 15127, Note_on_c, 1, 39, 0
1, 15127, Note_on_c, 11, 39, 0
1, 15134, Note_on_c, 0, 63, 0
1, 15134, Note_on_c, 2, 58, 0
1, 15135, Note_on_c, 0, 54, 0
1, 15137, Note_on_c, 0, 61, 0
1, 15138, Note_on_c, 2, 61, 0
1, 15142, Note_on_c, 0, 70, 0
1, 15142, Note_on_c, 2, 58, 61
1, 15142, Note_on_c, 2, 61, 85
1, 15142, Note_on_c, 9, 69, 25
1, 15143, Note_on_c, 9, 69, 0
1, 15143, Note_on_c, 0, 68, 42
1, 15143, Note_on_c, 9, 51, 46
1, 15143, Note_on_c, 9, 36, 105
1, 15143, Note_on_c, 9, 62, 80
1, 15144, Note_on_c, 9, 62, 0
1, 15144, Note_on_c, 9, 51, 0
1, 15144, Note_on_c, 9, 36, 0
1, 15145, Note_on_c, 1, 31, 91
1, 15145, Note_on_c, 11, 31, 87
1, 15147, Note_on_c, 11, 30, 0
1, 15147, Note_on_c, 1, 30, 0
1, 15150, Note_on_c, 2, 61, 0
1, 15153, Note_on_c, 2, 58, 0
1, 15155, Note_on_c, 0, 68, 0
1, 15166, Note_on_c, 2, 54, 79
1, 15166, Note_on_c, 2, 58, 98
1, 15166, Note_on_c, 2, 61, 95
1, 15166, Note_on_c, 9, 36, 67
1, 15167, Note_on_c, 9, 36, 0
1, 15167, Note_on_c, 0, 58, 53
1, 15167, Note_on_c, 0, 63, 57
1, 15167, Note_on_c, 9, 62, 55
1, 15168, Note_on_c, 9, 62, 0
1, 15168, Note_on_c, 9, 51, 70
1, 15169, Note_on_c, 9, 51, 0
1, 15169, Note_on_c, 0, 54, 54
1, 15169, Note_on_c, 0, 73, 70
1, 15169, Note_on_c, 0, 61, 56
1, 15169, Note_on_c, 1, 32, 92
1, 15169, Note_on_c, 11, 32, 88
1, 15173, Note_on_c, 11, 31, 0
1, 15173, Note_on_c, 1, 31, 0
1, 15184, Note_on_c, 11, 32, 0
1, 15184, Note_on_c, 1, 32, 0
1, 15191, Note_on_c, 9, 44, 52
1, 15192, Note_on_c, 9, 44, 0
1, 15198, Note_on_c, 0, 61, 0
1, 15202, Note_on_c, 0, 54, 0
1, 15209, Note_on_c, 0, 73, 0
1, 15212, Note_on_c, 0, 58, 0
1, 15213, Note_on_c, 2, 54, 0
1, 15214, Note_on_c, 2, 61, 0
1, 15214, Note_on_c, 2, 58, 0
1, 15214, Note_on_c, 2, 54, 114
1, 15214, Note_on_c, 9, 69, 45
1, 15215, Note_on_c, 9, 69, 0
1, 15215, Note_on_c, 0, 61, 52
1, 15215, Note_on_c, 1, 32, 90
1, 15215, Note_on_c, 9, 51, 46
1, 15215, Note_on_c, 9, 36, 107
1, 15215, Note_on_c, 9, 62, 76
1, 15215, Note_on_c, 11, 32, 86
1, 15216, Note_on_c, 9, 62, 0
1, 15216, Note_on_c, 9, 36, 0
1, 15216, Note_on_c, 9, 51, 0
1, 15216, Note_on_c, 2, 58, 112
1, 15216, Note_on_c, 2, 61, 108
1, 15222, Note_on_c, 0, 61, 0
1, 15222, Note_on_c, 2, 54, 0
1, 15224, Note_on_c, 2, 61, 0
1, 15225, Note_on_c, 2, 58, 0
1, 15226, Note_on_c, 0, 63, 0
1, 15238, Note_on_c, 2, 61, 72
1, 15238, Note_on_c, 2, 54, 63
1, 15238, Note_on_c, 2, 58, 67
1, 15238, Note_on_c, 9, 69, 26
1, 15239, Note_on_c, 9, 69, 0
1, 15239, Note_on_c, 9, 51, 37
1, 15240, Note_on_c, 9, 51, 0
1, 15240, Note_on_c, 0, 61, 53
1, 15240, Note_on_c, 0, 73, 84
1, 15242, Note_on_c, 0, 63, 52
1, 15251, Note_on_c, 0, 73, 0
1, 15251, Note_on_c, 0, 61, 0
1, 15262, Note_on_c, 0, 63, 0
1, 15263, Note_on_c, 9, 51, 91
1, 15263, Note_on_c, 9, 75, 82
1, 15263, Note_on_c, 9, 40, 110
1, 15264, Note_on_c, 9, 40, 0
1, 15264, Note_on_c, 9, 51, 0
1, 15264, Note_on_c, 9, 75, 0
1, 15265, Note_on_c, 9, 62, 84
1, 15266, Note_on_c, 9, 62, 0
1, 15268, Note_on_c, 1, 32, 0
1, 15268, Note_on_c, 11, 32, 0
1, 15275, Note_on_c, 2, 54, 0
1, 15278, Note_on_c, 2, 58, 0
1, 15278, Note_on_c, 2, 61, 0
1, 15287, Note_on_c, 0, 58, 47
1, 15287, Note_on_c, 1, 32, 84
1, 15287, Note_on_c, 9, 44, 52
1, 15287, Note_on_c, 11, 32, 80
1, 15288, Note_on_c, 9, 44, 0
1, 15288, Note_on_c, 0, 68, 84
1, 15288, Note_on_c, 0, 61, 53
1, 15288, Note_on_c, 2, 61, 67
1, 15288, Note_on_c, 2, 58, 69
1, 15288, Note_on_c, 2, 54, 68
1, 15296, Note_on_c, 2, 54, 0
1, 15296, Note_on_c, 2, 58, 0
1, 15297, Note_on_c, 2, 61, 0
1, 15304, Note_on_c, 11, 32, 0
1, 15304, Note_on_c, 1, 32, 0
1, 15309, Note_on_c, 2, 58, 59
1, 15309, Note_on_c, 2, 61, 81
1, 15310, Note_on_c, 9, 69, 39
1, 15311, Note_on_c, 9, 69, 0
1, 15311, Note_on_c, 1, 39, 73
1, 15311, Note_on_c, 9, 51, 48
1, 15311, Note_on_c, 11, 39, 69
1, 15312, Note_on_c, 9, 51, 0
1, 15312, Note_on_c, 2, 54, 51
1, 15319, Note_on_c, 2, 58, 0
1, 15322, Note_on_c, 0, 61, 0
1, 15324, Note_on_c, 0, 58, 0
1, 15329, Note_on_c, 2, 61, 0
1, 15329, Note_on_c, 2, 54, 0
1, 15333, Note_on_c, 2, 61, 79
1, 15334, Note_on_c, 2, 58, 67
1, 15334, Note_on_c, 9, 69, 25
1, 15335, Note_on_c, 9, 69, 0
1, 15335, Note_on_c, 1, 32, 85
1, 15335, Note_on_c, 9, 51, 48
1, 15335, Note_on_c, 11, 32, 81
1, 15336, Note_on_c, 9, 51, 0
1, 15337, Note_on_c, 11, 39, 0
1, 15337, Note_on_c, 1, 39, 0
1, 15341, Note_on_c, 2, 61, 0
1, 15342, Note_on_c, 2, 58, 0
1, 15357, Note_on_c, 8, 72, 83
1, 15358, Note_on_c, 2, 56, 62
1, 15358, Note_on_c, 2, 65, 66
1, 15358, Note_on_c, 2, 60, 71
1, 15359, Note_on_c, 0, 61, 62
1, 15359, Note_on_c, 1, 37, 80
1, 15359, Note_on_c, 3, 70, 105
1, 15359, Note_on_c, 11, 37, 76
1, 15360, Note_on_c, 1, 32, 0
1, 15360, Note_on_c, 10, 68, 0
1, 15360, Note_on_c, 10, 54, 0
1, 15360, Note_on_c, 11, 32, 0
1, 15360, Note_on_c, 10, 58, 0
1, 15360, Note_on_c, 10, 61, 0
1, 15360, Note_on_c, 4, 70, 68
1, 15360, Note_on_c, 9, 51, 91
1, 15360, Note_on_c, 9, 36, 110
1, 15360, Note_on_c, 10, 60, 59
1, 15360, Note_on_c, 10, 63, 60
1, 15360, Note_on_c, 10, 53, 60
1, 15360, Note_on_c, 10, 56, 63
1, 15361, Note_on_c, 9, 36, 0
1, 15361, Note_on_c, 0, 68, 0
1, 15361, Note_on_c, 9, 51, 0
1, 15383, Note_on_c, 9, 44, 44
1, 15384, Note_on_c, 9, 44, 0
1, 15397, Note_on_c, 11, 37, 0
1, 15397, Note_on_c, 1, 37, 0
1, 15398, Note_on_c, 0, 61, 0
1, 15402, Note_on_c, 2, 56, 0
1, 15402, Note_on_c, 2, 65, 0
1, 15402, Note_on_c, 2, 60, 0
1, 15406, Note_on_c, 2, 65, 79
1, 15406, Note_on_c, 2, 60, 85
1, 15406, Note_on_c, 2, 56, 77
1, 15406, Note_on_c, 9, 69, 33
1, 15407, Note_on_c, 9, 69, 0
1, 15407, Note_on_c, 9, 51, 40
1, 15408, Note_on_c, 9, 51, 0
1, 15408, Note_on_c, 4, 70, 0
1, 15408, Note_on_c, 3, 65, 83
1, 15408, Note_on_c, 4, 65, 69
1, 15410, Note_on_c, 0, 60, 53
1, 15411, Note_on_c, 3, 70, 0
1, 15416, Note_on_c, 2, 60, 0
1, 15417, Note_on_c, 2, 56, 0
1, 15418, Note_on_c, 0, 60, 0
1, 15420, Note_on_c, 2, 65, 0
1, 15430, Note_on_c, 9, 69, 21
1, 15431, Note_on_c, 9, 69, 0
1, 15431, Note_on_c, 9, 51, 44
1, 15432, Note_on_c, 9, 51, 0
1, 15432, Note_on_c, 4, 65, 0
1, 15432, Note_on_c, 3, 65, 0
1, 15432, Note_on_c, 2, 65, 66
1, 15432, Note_on_c, 2, 60, 72
1, 15432, Note_on_c, 2, 56, 60
1, 15432, Note_on_c, 4, 68, 69
1, 15433, Note_on_c, 3, 68, 91
1, 15433, Note_on_c, 9, 62, 69
1, 15434, Note_on_c, 9, 62, 0
1, 15434, Note_on_c, 0, 65, 55
1, 15434, Note_on_c, 0, 60, 61
1, 15435, Note_on_c, 0, 56, 59
1, 15450, Note_on_c, 0, 56, 0
1, 15450, Note_on_c, 0, 60, 0
1, 15452, Note_on_c, 0, 65, 0
1, 15455, Note_on_c, 9, 51, 76
1, 15455, Note_on_c, 9, 75, 79
1, 15455, Note_on_c, 9, 40, 101
1, 15456, Note_on_c, 9, 40, 0
1, 15456, Note_on_c, 9, 75, 0
1, 15456, Note_on_c, 9, 51, 0
1, 15458, Note_on_c, 9, 62, 66
1, 15459, Note_on_c, 9, 62, 0
1, 15468, Note_on_c, 2, 56, 0
1, 15470, Note_on_c, 2, 60, 0
1, 15472, Note_on_c, 2, 65, 0
1, 15478, Note_on_c, 2, 56, 63
1, 15478, Note_on_c, 2, 65, 67
1, 15478, Note_on_c, 2, 60, 70
1, 15479, Note_on_c, 9, 44, 40
1, 15480, Note_on_c, 9, 44, 0
1, 15480, Note_on_c, 4, 68, 0
1, 15480, Note_on_c, 4, 70, 68
1, 15481, Note_on_c, 3, 68, 0
1, 15481, Note_on_c, 0, 56, 53
1, 15481, Note_on_c, 0, 63, 70
1, 15481, Note_on_c, 3, 70, 85
1, 15484, Note_on_c, 2, 56, 0
1, 15484, Note_on_c, 2, 60, 0
1, 15486, Note_on_c, 2, 65, 0
1, 15493, Note_on_c, 0, 63, 0
1, 15494, Note_on_c, 0, 56, 0
1, 15502, Note_on_c, 2, 65, 77
1, 15502, Note_on_c, 2, 60, 59
1, 15502, Note_on_c, 2, 56, 62
1, 15503, Note_on_c, 9, 51, 42
1, 15503, Note_on_c, 9, 69, 33
1, 15504, Note_on_c, 9, 69, 0
1, 15504, Note_on_c, 9, 51, 0
1, 15513, Note_on_c, 2, 60, 0
1, 15519, Note_on_c, 2, 65, 0
1, 15522, Note_on_c, 2, 56, 0
1, 15526, Note_on_c, 2, 60, 74
1, 15526, Note_on_c, 2, 65, 70
1, 15527, Note_on_c, 9, 62, 62
1, 15527, Note_on_c, 9, 51, 40
1, 15527, Note_on_c, 9, 69, 25
1, 15528, Note_on_c, 9, 69, 0
1, 15528, Note_on_c, 9, 62, 0
1, 15528, Note_on_c, 9, 51, 0
1, 15528, Note_on_c, 9, 36, 104
1, 15529, Note_on_c, 9, 36, 0
1, 15529, Note_on_c, 0, 60, 75
1, 15529, Note_on_c, 1, 32, 70
1, 15529, Note_on_c, 11, 32, 66
1, 15530, Note_on_c, 0, 65, 84
1, 15534, Note_on_c, 2, 65, 0
1, 15535, Note_on_c, 2, 60, 0
1, 15539, Note_on_c, 3, 70, 0
1, 15548, Note_on_c, 8, 77, 90
1, 15550, Note_on_c, 2, 65, 68
1, 15550, Note_on_c, 2, 56, 77
1, 15550, Note_on_c, 2, 60, 83
1, 15551, Note_on_c, 0, 56, 60
1, 15551, Note_on_c, 1, 37, 80
1, 15551, Note_on_c, 9, 36, 68
1, 15551, Note_on_c, 9, 51, 87
1, 15551, Note_on_c, 11, 37, 76
1, 15552, Note_on_c, 9, 51, 0
1, 15552, Note_on_c, 9, 36, 0
1, 15552, Note_on_c, 4, 70, 0
1, 15553, Note_on_c, 1, 32, 0
1, 15553, Note_on_c, 11, 32, 0
1, 15553, Note_on_c, 9, 62, 62
1, 15554, Note_on_c, 9, 62, 0
1, 15554, Note_on_c, 8, 72, 0
1, 15575, Note_on_c, 1, 32, 72
1, 15575, Note_on_c, 11, 32, 68
1, 15576, Note_on_c, 9, 44, 46
1, 15577, Note_on_c, 9, 44, 0
1, 15577, Note_on_c, 1, 37, 0
1, 15577, Note_on_c, 11, 37, 0
1, 15597, Note_on_c, 0, 60, 0
1, 15597, Note_on_c, 2, 60, 0
1, 15597, Note_on_c, 2, 56, 0
1, 15597, Note_on_c, 2, 65, 0
1, 15598, Note_on_c, 1, 32, 0
1, 15598, Note_on_c, 11, 32, 0
1, 15598, Note_on_c, 2, 60, 87
1, 15598, Note_on_c, 2, 56, 114
1, 15598, Note_on_c, 2, 65, 79
1, 15598, Note_on_c, 9, 69, 35
1, 15599, Note_on_c, 9, 69, 0
1, 15599, Note_on_c, 0, 63, 61
1, 15599, Note_on_c, 1, 37, 85
1, 15599, Note_on_c, 9, 36, 97
1, 15599, Note_on_c, 9, 51, 43
1, 15599, Note_on_c, 11, 37, 81
1, 15600, Note_on_c, 9, 51, 0
1, 15600, Note_on_c, 9, 36, 0
1, 15602, Note_on_c, 0, 65, 0
1, 15607, Note_on_c, 2, 56, 0
1, 15608, Note_on_c, 2, 60, 0
1, 15613, Note_on_c, 2, 65, 0
1, 15619, Note_on_c, 8, 75, 80
1, 15622, Note_on_c, 0, 63, 0
1, 15622, Note_on_c, 2, 65, 68
1, 15622, Note_on_c, 2, 56, 65
1, 15622, Note_on_c, 2, 60, 73
1, 15622, Note_on_c, 9, 62, 69
1, 15622, Note_on_c, 9, 69, 29
1, 15623, Note_on_c, 9, 69, 0
1, 15623, Note_on_c, 9, 62, 0
1, 15623, Note_on_c, 8, 77, 0
1, 15623, Note_on_c, 0, 60, 54
1, 15623, Note_on_c, 9, 51, 54
1, 15624, Note_on_c, 9, 51, 0
1, 15630, Note_on_c, 1, 37, 0
1, 15630, Note_on_c, 11, 37, 0
1, 15636, Note_on_c, 0, 60, 0
1, 15647, Note_on_c, 9, 51, 73
1, 15647, Note_on_c, 9, 40, 104
1, 15647, Note_on_c, 9, 62, 55
1, 15648, Note_on_c, 9, 62, 0
1, 15648, Note_on_c, 9, 51, 0
1, 15648, Note_on_c, 9, 40, 0
1, 15648, Note_on_c, 9, 75, 79
1, 15649, Note_on_c, 9, 75, 0
1, 15649, Note_on_c, 0, 60, 65
1, 15649, Note_on_c, 0, 65, 73
1, 15655, Note_on_c, 2, 65, 0
1, 15656, Note_on_c, 2, 56, 0
1, 15660, Note_on_c, 2, 60, 0
1, 15665, Note_on_c, 0, 65, 0
1, 15670, Note_on_c, 2, 65, 85
1, 15670, Note_on_c, 2, 60, 71
1, 15670, Note_on_c, 2, 56, 64
1, 15670, Note_on_c, 9, 62, 52
1, 15671, Note_on_c, 9, 62, 0
1, 15671, Note_on_c, 1, 37, 78
1, 15671, Note_on_c, 9, 44, 43
1, 15671, Note_on_c, 11, 37, 74
1, 15672, Note_on_c, 9, 44, 0
1, 15672, Note_on_c, 0, 56, 0
1, 15674, Note_on_c, 0, 65, 59
1, 15678, Note_on_c, 2, 60, 0
1, 15679, Note_on_c, 2, 56, 0
1, 15680, Note_on_c, 2, 65, 0
1, 15688, Note_on_c, 1, 37, 0
1, 15688, Note_on_c, 11, 37, 0
1, 15688, Note_on_c, 8, 73, 81
1, 15694, Note_on_c, 1, 41, 87
1, 15694, Note_on_c, 2, 56, 71
1, 15694, Note_on_c, 2, 65, 93
1, 15694, Note_on_c, 9, 62, 69
1, 15694, Note_on_c, 9, 69, 36
1, 15694, Note_on_c, 11, 41, 83
1, 15695, Note_on_c, 9, 69, 0
1, 15695, Note_on_c, 9, 62, 0
1, 15695, Note_on_c, 8, 75, 0
1, 15695, Note_on_c, 0, 56, 59
1, 15695, Note_on_c, 9, 51, 54
1, 15696, Note_on_c, 9, 51, 0
1, 15696, Note_on_c, 2, 60, 59
1, 15706, Note_on_c, 0, 56, 0
1, 15707, Note_on_c, 0, 60, 0
1, 15709, Note_on_c, 0, 65, 0
1, 15710, Note_on_c, 2, 60, 0
1, 15714, Note_on_c, 2, 65, 0
1, 15716, Note_on_c, 2, 56, 0
1, 15718, Note_on_c, 2, 60, 65
1, 15718, Note_on_c, 2, 65, 67
1, 15718, Note_on_c, 9, 69, 23
1, 15719, Note_on_c, 9, 69, 0
1, 15719, Note_on_c, 1, 42, 85
1, 15719, Note_on_c, 9, 51, 42
1, 15719, Note_on_c, 11, 42, 81
1, 15720, Note_on_c, 9, 51, 0
1, 15720, Note_on_c, 0, 63, 53
1, 15721, Note_on_c, 1, 41, 0
1, 15721, Note_on_c, 11, 41, 0
1, 15726, Note_on_c, 2, 60, 0
1, 15726, Note_on_c, 2, 65, 0
1, 15730, Note_on_c, 0, 63, 0
1, 15741, Note_on_c, 1, 42, 0
1, 15741, Note_on_c, 11, 42, 0
1, 15742, Note_on_c, 0, 53, 59
1, 15742, Note_on_c, 0, 56, 50
1, 15742, Note_on_c, 0, 59, 68
1, 15742, Note_on_c, 1, 43, 88
1, 15742, Note_on_c, 2, 63, 93
1, 15742, Note_on_c, 2, 56, 54
1, 15742, Note_on_c, 2, 53, 63
1, 15742, Note_on_c, 2, 59, 85
1, 15742, Note_on_c, 11, 43, 84
1, 15743, Note_on_c, 0, 65, 73
1, 15743, Note_on_c, 0, 63, 84
1, 15743, Note_on_c, 3, 70, 94
1, 15743, Note_on_c, 9, 51, 83
1, 15743, Note_on_c, 8, 71, 85
1, 15744, Note_on_c, 9, 51, 0
1, 15744, Note_on_c, 10, 60, 0
1, 15744, Note_on_c, 4, 70, 70
1, 15744, Note_on_c, 9, 36, 114
1, 15744, Note_on_c, 10, 59, 64
1, 15745, Note_on_c, 9, 36, 0
1, 15750, Note_on_c, 8, 73, 0
1, 15760, Note_on_c, 0, 56, 0
1, 15764, Note_on_c, 0, 53, 0
1, 15767, Note_on_c, 9, 44, 49
1, 15768, Note_on_c, 9, 44, 0
1, 15789, Note_on_c, 2, 63, 0
1, 15790, Note_on_c, 2, 56, 0
1, 15790, Note_on_c, 2, 59, 0
1, 15790, Note_on_c, 2, 53, 0
1, 15790, Note_on_c, 0, 53, 57
1, 15790, Note_on_c, 0, 56, 52
1, 15790, Note_on_c, 2, 63, 98
1, 15790, Note_on_c, 9, 69, 33
1, 15791, Note_on_c, 9, 69, 0
1, 15791, Note_on_c, 9, 51, 42
1, 15792, Note_on_c, 9, 51, 0
1, 15792, Note_on_c, 4, 70, 0
1, 15792, Note_on_c, 2, 59, 87
1, 15792, Note_on_c, 2, 56, 58
1, 15792, Note_on_c, 2, 53, 67
1, 15792, Note_on_c, 4, 65, 70
1, 15793, Note_on_c, 3, 65, 84
1, 15796, Note_on_c, 3, 70, 0
1, 15796, Note_on_c, 0, 63, 0
1, 15799, Note_on_c, 0, 59, 0
1, 15800, Note_on_c, 0, 65, 0
1, 15803, Note_on_c, 2, 63, 0
1, 15804, Note_on_c, 2, 53, 0
1, 15804, Note_on_c, 2, 56, 0
1, 15804, Note_on_c, 2, 59, 0
1, 15815, Note_on_c, 9, 69, 27
1, 15815, Note_on_c, 9, 51, 41
1, 15815, Note_on_c, 9, 62, 71
1, 15816, Note_on_c, 9, 62, 0
1, 15816, Note_on_c, 9, 51, 0
1, 15816, Note_on_c, 4, 65, 0
1, 15816, Note_on_c, 9, 69, 0
1, 15816, Note_on_c, 2, 53, 62
1, 15816, Note_on_c, 2, 59, 83
1, 15816, Note_on_c, 2, 63, 66
1, 15816, Note_on_c, 2, 56, 61
1, 15816, Note_on_c, 4, 68, 75
1, 15817, Note_on_c, 3, 68, 105
1, 15818, Note_on_c, 0, 63, 67
1, 15818, Note_on_c, 0, 59, 64
1, 15818, Note_on_c, 0, 65, 69
1, 15819, Note_on_c, 3, 65, 0
1, 15826, Note_on_c, 0, 63, 0
1, 15830, Note_on_c, 0, 65, 0
1, 15830, Note_on_c, 0, 59, 0
1, 15839, Note_on_c, 9, 75, 76
1, 15839, Note_on_c, 9, 40, 107
1, 15840, Note_on_c, 9, 40, 0
1, 15840, Note_on_c, 9, 75, 0
1, 15840, Note_on_c, 9, 51, 87
1, 15841, Note_on_c, 9, 51, 0
1, 15841, Note_on_c, 9, 62, 74
1, 15842, Note_on_c, 9, 62, 0
1, 15846, Note_on_c, 11, 43, 0
1, 15846, Note_on_c, 1, 43, 0
1, 15847, Note_on_c, 0, 56, 0
1, 15848, Note_on_c, 0, 53, 0
1, 15852, Note_on_c, 2, 56, 0
1, 15853, Note_on_c, 2, 53, 0
1, 15853, Note_on_c, 2, 59, 0
1, 15854, Note_on_c, 2, 63, 0
1, 15864, Note_on_c, 2, 56, 63
1, 15864, Note_on_c, 2, 53, 63
1, 15864, Note_on_c, 2, 63, 73
1, 15864, Note_on_c, 2, 59, 81
1, 15865, Note_on_c, 9, 44, 57
1, 15866, Note_on_c, 9, 44, 0
1, 15866, Note_on_c, 0, 63, 81
1, 15866, Note_on_c, 0, 59, 64
1, 15866, Note_on_c, 0, 56, 53
1, 15867, Note_on_c, 0, 53, 43
1, 15872, Note_on_c, 2, 63, 0
1, 15872, Note_on_c, 2, 56, 0
1, 15872, Note_on_c, 2, 59, 0
1, 15873, Note_on_c, 2, 53, 0
1, 15877, Note_on_c, 0, 63, 0
1, 15878, Note_on_c, 0, 59, 0
1, 15878, Note_on_c, 0, 53, 0
1, 15880, Note_on_c, 0, 56, 0
1, 15884, Note_on_c, 2, 63, 86
1, 15885, Note_on_c, 2, 56, 58
1, 15885, Note_on_c, 2, 59, 71
1, 15887, Note_on_c, 9, 69, 35
1, 15887, Note_on_c, 9, 51, 44
1, 15888, Note_on_c, 9, 51, 0
1, 15888, Note_on_c, 9, 69, 0
1, 15894, Note_on_c, 2, 59, 0
1, 15906, Note_on_c, 2, 63, 0
1, 15909, Note_on_c, 2, 63, 87
1, 15910, Note_on_c, 2, 59, 79
1, 15910, Note_on_c, 9, 69, 25
1, 15911, Note_on_c, 9, 69, 0
1, 15911, Note_on_c, 2, 56, 0
1, 15911, Note_on_c, 1, 38, 90
1, 15911, Note_on_c, 9, 51, 46
1, 15911, Note_on_c, 9, 62, 80
1, 15911, Note_on_c, 9, 36, 105
1, 15911, Note_on_c, 11, 38, 86
1, 15912, Note_on_c, 9, 36, 0
1, 15912, Note_on_c, 9, 62, 0
1, 15912, Note_on_c, 9, 51, 0
1, 15913, Note_on_c, 0, 65, 61
1, 15913, Note_on_c, 0, 56, 54
1, 15913, Note_on_c, 0, 53, 55
1, 15913, Note_on_c, 0, 63, 71
1, 15914, Note_on_c, 0, 59, 68
1, 15917, Note_on_c, 2, 63, 0
1, 15918, Note_on_c, 2, 59, 0
1, 15930, Note_on_c, 8, 77, 82
1, 15934, Note_on_c, 1, 38, 0
1, 15934, Note_on_c, 11, 38, 0
1, 15934, Note_on_c, 2, 56, 60
1, 15934, Note_on_c, 2, 53, 65
1, 15934, Note_on_c, 2, 59, 86
1, 15934, Note_on_c, 2, 63, 95
1, 15934, Note_on_c, 9, 36, 67
1, 15935, Note_on_c, 9, 36, 0
1, 15935, Note_on_c, 8, 71, 0
1, 15935, Note_on_c, 1, 43, 78
1, 15935, Note_on_c, 9, 62, 55
1, 15935, Note_on_c, 11, 43, 74
1, 15936, Note_on_c, 9, 62, 0
1, 15936, Note_on_c, 4, 68, 0
1, 15936, Note_on_c, 9, 51, 70
1, 15937, Note_on_c, 9, 51, 0
1, 15946, Note_on_c, 3, 68, 0
1, 15956, Note_on_c, 1, 43, 0
1, 15956, Note_on_c, 11, 43, 0
1, 15958, Note_on_c, 1, 35, 72
1, 15958, Note_on_c, 11, 35, 68
1, 15959, Note_on_c, 9, 44, 52
1, 15960, Note_on_c, 9, 44, 0
1, 15969, Note_on_c, 0, 59, 0
1, 15970, Note_on_c, 0, 63, 0
1, 15971, Note_on_c, 0, 65, 0
1, 15981, Note_on_c, 2, 56, 0
1, 15981, Note_on_c, 2, 53, 0
1, 15982, Note_on_c, 2, 59, 0
1, 15982, Note_on_c, 2, 63, 0
1, 15982, Note_on_c, 1, 43, 80
1, 15982, Note_on_c, 2, 53, 74
1, 15982, Note_on_c, 2, 56, 71
1, 15982, Note_on_c, 9, 69, 45
1, 15982, Note_on_c, 11, 43, 76
1, 15983, Note_on_c, 9, 69, 0
1, 15983, Note_on_c, 0, 65, 57
1, 15983, Note_on_c, 9, 62, 76
1, 15983, Note_on_c, 9, 51, 46
1, 15983, Note_on_c, 9, 36, 107
1, 15984, Note_on_c, 9, 36, 0
1, 15984, Note_on_c, 9, 51, 0
1, 15984, Note_on_c, 9, 62, 0
1, 15984, Note_on_c, 11, 35, 0
1, 15984, Note_on_c, 1, 35, 0
1, 15984, Note_on_c, 0, 63, 69
1, 15984, Note_on_c, 2, 63, 112
1, 15984, Note_on_c, 2, 59, 108
1, 15985, Note_on_c, 0, 59, 66
1, 15992, Note_on_c, 2, 56, 0
1, 15994, Note_on_c, 2, 53, 0
1, 15994, Note_on_c, 2, 59, 0
1, 15994, Note_on_c, 2, 63, 0
1, 15996, Note_on_c, 0, 65, 0
1, 16000, Note_on_c, 8, 75, 93
1, 16005, Note_on_c, 8, 77, 0
1, 16006, Note_on_c, 1, 43, 0
1, 16006, Note_on_c, 11, 43, 0
1, 16006, Note_on_c, 2, 56, 61
1, 16006, Note_on_c, 2, 63, 65
1, 16006, Note_on_c, 2, 53, 63
1, 16006, Note_on_c, 2, 59, 76
1, 16006, Note_on_c, 9, 69, 26
1, 16007, Note_on_c, 9, 69, 0
1, 16007, Note_on_c, 9, 51, 37
1, 16008, Note_on_c, 9, 51, 0
1, 16008, Note_on_c, 0, 59, 0
1, 16011, Note_on_c, 0, 63, 0
1, 16031, Note_on_c, 9, 51, 91
1, 16031, Note_on_c, 9, 40, 110
1, 16031, Note_on_c, 9, 75, 82
1, 16032, Note_on_c, 9, 75, 0
1, 16032, Note_on_c, 9, 40, 0
1, 16032, Note_on_c, 10, 63, 0
1, 16032, Note_on_c, 9, 51, 0
1, 16032, Note_on_c, 0, 59, 81
1, 16032, Note_on_c, 10, 65, 65
1, 16033, Note_on_c, 0, 65, 89
1, 16033, Note_on_c, 0, 63, 105
1, 16033, Note_on_c, 9, 62, 84
1, 16034, Note_on_c, 9, 62, 0
1, 16046, Note_on_c, 2, 56, 0
1, 16046, Note_on_c, 2, 63, 0
1, 16046, Note_on_c, 2, 59, 0
1, 16047, Note_on_c, 2, 53, 0
1, 16051, Note_on_c, 0, 63, 0
1, 16055, Note_on_c, 1, 38, 82
1, 16055, Note_on_c, 9, 44, 52
1, 16055, Note_on_c, 11, 38, 78
1, 16056, Note_on_c, 9, 44, 0
1, 16056, Note_on_c, 2, 63, 74
1, 16056, Note_on_c, 2, 59, 77
1, 16056, Note_on_c, 2, 53, 67
1, 16057, Note_on_c, 2, 56, 67
1, 16059, Note_on_c, 0, 63, 50
1, 16061, Note_on_c, 0, 56, 0
1, 16063, Note_on_c, 2, 56, 0
1, 16064, Note_on_c, 2, 59, 0
1, 16065, Note_on_c, 2, 53, 0
1, 16066, Note_on_c, 2, 63, 0
1, 16074, Note_on_c, 0, 65, 0
1, 16074, Note_on_c, 8, 73, 83
1, 16076, Note_on_c, 0, 63, 0
1, 16078, Note_on_c, 1, 38, 0
1, 16078, Note_on_c, 0, 59, 0
1, 16078, Note_on_c, 11, 38, 0
1, 16078, Note_on_c, 2, 59, 68
1, 16078, Note_on_c, 2, 63, 90
1, 16078, Note_on_c, 9, 69, 39
1, 16079, Note_on_c, 9, 69, 0
1, 16079, Note_on_c, 8, 75, 0
1, 16079, Note_on_c, 0, 56, 53
1, 16079, Note_on_c, 1, 43, 75
1, 16079, Note_on_c, 9, 51, 48
1, 16079, Note_on_c, 11, 43, 71
1, 16080, Note_on_c, 9, 51, 0
1, 16080, Note_on_c, 2, 56, 47
1, 16086, Note_on_c, 2, 59, 0
1, 16090, Note_on_c, 2, 63, 0
1, 16094, Note_on_c, 0, 53, 0
1, 16098, Note_on_c, 0, 56, 0
1, 16100, Note_on_c, 2, 56, 0
1, 16102, Note_on_c, 2, 59, 76
1, 16102, Note_on_c, 2, 63, 86
1, 16102, Note_on_c, 9, 69, 25
1, 16103, Note_on_c, 9, 69, 0
1, 16103, Note_on_c, 1, 37, 79
1, 16103, Note_on_c, 9, 51, 48
1, 16103, Note_on_c, 11, 37, 75
1, 16104, Note_on_c, 9, 51, 0
1, 16105, Note_on_c, 0, 59, 65
1, 16106, Note_on_c, 1, 43, 0
1, 16106, Note_on_c, 11, 43, 0
1, 16110, Note_on_c, 2, 59, 0
1, 16110, Note_on_c, 2, 63, 0
1, 16114, Note_on_c, 0, 59, 0
1, 16126, Note_on_c, 1, 37, 0
1, 16126, Note_on_c, 11, 37, 0
1, 16126, Note_on_c, 0, 56, 54
1, 16126, Note_on_c, 2, 58, 66
1, 16126, Note_on_c, 2, 61, 71
1, 16126, Note_on_c, 2, 56, 63
1, 16126, Note_on_c, 2, 65, 65
1, 16127, Note_on_c, 0, 61, 60
1, 16127, Note_on_c, 0, 53, 53
1, 16127, Note_on_c, 0, 58, 59
1, 16127, Note_on_c, 0, 65, 55
1, 16127, Note_on_c, 1, 42, 74
1, 16127, Note_on_c, 3, 70, 101
1, 16127, Note_on_c, 9, 36, 113
1, 16127, Note_on_c, 11, 42, 70
1, 16128, Note_on_c, 9, 36, 0
1, 16128, Note_on_c, 10, 65, 0
1, 16128, Note_on_c, 10, 59, 0
1, 16128, Note_on_c, 4, 70, 71
1, 16128, Note_on_c, 9, 51, 73
1, 16128, Note_on_c, 10, 58, 47
1, 16128, Note_on_c, 10, 61, 63
1, 16129, Note_on_c, 9, 51, 0
1, 16130, Note_on_c, 8, 70, 83
1, 16134, Note_on_c, 8, 73, 0
1, 16152, Note_on_c, 9, 44, 42
1, 16153, Note_on_c, 9, 44, 0
1, 16158, Note_on_c, 0, 53, 0
1, 16158, Note_on_c, 0, 56, 0
1, 16174, Note_on_c, 2, 56, 0
1, 16174, Note_on_c, 2, 61, 0
1, 16174, Note_on_c, 2, 65, 0
1, 16174, Note_on_c, 2, 58, 0
1, 16174, Note_on_c, 0, 56, 55
1, 16174, Note_on_c, 0, 53, 53
1, 16174, Note_on_c, 9, 69, 35
1, 16175, Note_on_c, 9, 69, 0
1, 16175, Note_on_c, 11, 42, 0
1, 16175, Note_on_c, 1, 42, 0
1, 16175, Note_on_c, 3, 65, 81
1, 16175, Note_on_c, 9, 51, 42
1, 16176, Note_on_c, 9, 51, 0
1, 16176, Note_on_c, 3, 70, 0
1, 16176, Note_on_c, 4, 70, 0
1, 16176, Note_on_c, 2, 56, 100
1, 16176, Note_on_c, 2, 61, 83
1, 16176, Note_on_c, 2, 65, 74
1, 16176, Note_on_c, 2, 58, 90
1, 16176, Note_on_c, 4, 65, 71
1, 16180, Note_on_c, 0, 61, 0
1, 16180, Note_on_c, 0, 58, 0
1, 16182, Note_on_c, 0, 65, 0
1, 16186, Note_on_c, 2, 56, 0
1, 16186, Note_on_c, 2, 58, 0
1, 16187, Note_on_c, 0, 53, 0
1, 16188, Note_on_c, 2, 65, 0
1, 16188, Note_on_c, 0, 56, 0
1, 16188, Note_on_c, 2, 61, 0
1, 16199, Note_on_c, 9, 62, 80
1, 16199, Note_on_c, 9, 51, 42
1, 16200, Note_on_c, 9, 51, 0
1, 16200, Note_on_c, 9, 62, 0
1, 16200, Note_on_c, 4, 65, 0
1, 16200, Note_on_c, 2, 65, 72
1, 16200, Note_on_c, 2, 56, 61
1, 16200, Note_on_c, 2, 61, 70
1, 16200, Note_on_c, 2, 58, 60
1, 16200, Note_on_c, 4, 68, 71
1, 16200, Note_on_c, 9, 69, 24
1, 16201, Note_on_c, 9, 69, 0
1, 16201, Note_on_c, 3, 65, 0
1, 16201, Note_on_c, 0, 65, 65
1, 16201, Note_on_c, 0, 56, 52
1, 16201, Note_on_c, 0, 61, 57
1, 16201, Note_on_c, 3, 68, 102
1, 16202, Note_on_c, 0, 58, 61
1, 16203, Note_on_c, 0, 53, 46
1, 16217, Note_on_c, 0, 58, 0
1, 16218, Note_on_c, 0, 61, 0
1, 16222, Note_on_c, 0, 53, 0
1, 16222, Note_on_c, 0, 56, 0
1, 16223, Note_on_c, 9, 40, 104
1, 16223, Note_on_c, 9, 75, 76
1, 16224, Note_on_c, 9, 75, 0
1, 16224, Note_on_c, 9, 40, 0
1, 16224, Note_on_c, 9, 51, 81
1, 16225, Note_on_c, 9, 51, 0
1, 16225, Note_on_c, 9, 62, 74
1, 16226, Note_on_c, 9, 62, 0
1, 16229, Note_on_c, 0, 65, 0
1, 16236, Note_on_c, 2, 58, 0
1, 16236, Note_on_c, 2, 56, 0
1, 16236, Note_on_c, 2, 61, 0
1, 16237, Note_on_c, 2, 65, 0
1, 16246, Note_on_c, 2, 65, 74
1, 16246, Note_on_c, 2, 61, 61
1, 16247, Note_on_c, 0, 56, 54
1, 16247, Note_on_c, 0, 53, 52
1, 16247, Note_on_c, 9, 44, 43
1, 16248, Note_on_c, 9, 44, 0
1, 16248, Note_on_c, 4, 68, 0
1, 16248, Note_on_c, 2, 58, 67
1, 16248, Note_on_c, 2, 56, 67
1, 16248, Note_on_c, 4, 70, 70
1, 16249, Note_on_c, 0, 58, 57
1, 16249, Note_on_c, 0, 61, 64
1, 16249, Note_on_c, 0, 63, 61
1, 16249, Note_on_c, 3, 70, 97
1, 16254, Note_on_c, 2, 56, 0
1, 16254, Note_on_c, 2, 61, 0
1, 16254, Note_on_c, 2, 58, 0
1, 16254, Note_on_c, 3, 68, 0
1, 16255, Note_on_c, 2, 65, 0
1, 16258, Note_on_c, 0, 58, 0
1, 16258, Note_on_c, 0, 61, 0
1, 16265, Note_on_c, 0, 56, 0
1, 16266, Note_on_c, 0, 63, 0
1, 16267, Note_on_c, 0, 53, 0
1, 16270, Note_on_c, 2, 65, 86
1, 16270, Note_on_c, 2, 61, 60
1, 16270, Note_on_c, 9, 69, 45
1, 16271, Note_on_c, 9, 69, 0
1, 16271, Note_on_c, 9, 51, 50
1, 16272, Note_on_c, 9, 51, 0
1, 16284, Note_on_c, 2, 61, 0
1, 16290, Note_on_c, 2, 65, 0
1, 16294, Note_on_c, 2, 65, 77
1, 16294, Note_on_c, 2, 61, 63
1, 16294, Note_on_c, 9, 69, 34
1, 16294, Note_on_c, 9, 62, 69
1, 16295, Note_on_c, 9, 62, 0
1, 16295, Note_on_c, 9, 69, 0
1, 16295, Note_on_c, 0, 56, 58
1, 16295, Note_on_c, 0, 61, 64
1, 16295, Note_on_c, 0, 53, 59
1, 16295, Note_on_c, 0, 65, 66
1, 16295, Note_on_c, 1, 37, 80
1, 16295, Note_on_c, 9, 51, 43
1, 16295, Note_on_c, 11, 37, 76
1, 16296, Note_on_c, 9, 51, 0
1, 16296, Note_on_c, 0, 58, 63
1, 16297, Note_on_c, 9, 36, 110
1, 16298, Note_on_c, 9, 36, 0
1, 16302, Note_on_c, 2, 65, 0
1, 16303, Note_on_c, 2, 61, 0
1, 16312, Note_on_c, 3, 70, 0
1, 16313, Note_on_c, 8, 77, 94
1, 16317, Note_on_c, 8, 70, 0
1, 16318, Note_on_c, 2, 61, 74
1, 16318, Note_on_c, 2, 65, 70
1, 16318, Note_on_c, 2, 56, 63
1, 16318, Note_on_c, 2, 58, 69
1, 16319, Note_on_c, 1, 42, 79
1, 16319, Note_on_c, 9, 36, 64
1, 16319, Note_on_c, 11, 42, 75
1, 16320, Note_on_c, 9, 36, 0
1, 16320, Note_on_c, 4, 70, 0
1, 16320, Note_on_c, 9, 51, 85
1, 16321, Note_on_c, 9, 51, 0
1, 16321, Note_on_c, 9, 62, 76
1, 16322, Note_on_c, 9, 62, 0
1, 16323, Note_on_c, 11, 37, 0
1, 16323, Note_on_c, 1, 37, 0
1, 16343, Note_on_c, 1, 40, 91
1, 16343, Note_on_c, 9, 44, 42
1, 16343, Note_on_c, 11, 40, 87
1, 16344, Note_on_c, 9, 44, 0
1, 16344, Note_on_c, 1, 42, 0
1, 16344, Note_on_c, 11, 42, 0
1, 16357, Note_on_c, 0, 58, 0
1, 16358, Note_on_c, 0, 61, 0
1, 16361, Note_on_c, 0, 65, 0
1, 16365, Note_on_c, 1, 40, 0
1, 16365, Note_on_c, 2, 56, 0
1, 16365, Note_on_c, 11, 40, 0
1, 16366, Note_on_c, 2, 58, 0
1, 16366, Note_on_c, 2, 61, 0
1, 16366, Note_on_c, 2, 65, 0
1, 16366, Note_on_c, 2, 56, 100
1, 16366, Note_on_c, 9, 69, 43
1, 16367, Note_on_c, 9, 69, 0
1, 16368, Note_on_c, 1, 42, 88
1, 16368, Note_on_c, 2, 65, 74
1, 16368, Note_on_c, 2, 61, 100
1, 16368, Note_on_c, 2, 58, 104
1, 16368, Note_on_c, 9, 51, 54
1, 16368, Note_on_c, 11, 42, 84
1, 16369, Note_on_c, 9, 51, 0
1, 16369, Note_on_c, 0, 61, 59
1, 16369, Note_on_c, 0, 58, 58
1, 16369, Note_on_c, 9, 36, 113
1, 16370, Note_on_c, 9, 36, 0
1, 16370, Note_on_c, 0, 65, 61
1, 16378, Note_on_c, 2, 56, 0
1, 16378, Note_on_c, 2, 58, 0
1, 16378, Note_on_c, 2, 61, 0
1, 16380, Note_on_c, 2, 65, 0
1, 16382, Note_on_c, 0, 56, 0
1, 16383, Note_on_c, 8, 78, 90
1, 16386, Note_on_c, 1, 42, 0
1, 16386, Note_on_c, 11, 42, 0
1, 16387, Note_on_c, 8, 77, 0
1, 16387, Note_on_c, 0, 53, 0
1, 16390, Note_on_c, 2, 58, 63
1, 16390, Note_on_c, 2, 65, 69
1, 16390, Note_on_c, 2, 56, 64
1, 16390, Note_on_c, 2, 61, 63
1, 16390, Note_on_c, 9, 69, 32
1, 16391, Note_on_c, 9, 69, 0
1, 16391, Note_on_c, 1, 29, 86
1, 16391, Note_on_c, 9, 51, 49
1, 16391, Note_on_c, 11, 29, 82
1, 16392, Note_on_c, 9, 51, 0
1, 16393, Note_on_c, 9, 62, 66
1, 16394, Note_on_c, 9, 62, 0
1, 16415, Note_on_c, 0, 58, 0
1, 16416, Note_on_c, 0, 65, 0
1, 16416, Note_on_c, 1, 30, 74
1, 16416, Note_on_c, 9, 75, 76
1, 16416, Note_on_c, 11, 30, 70
1, 16417, Note_on_c, 9, 75, 0
1, 16417, Note_on_c, 0, 56, 53
1, 16417, Note_on_c, 0, 53, 52
1, 16417, Note_on_c, 9, 40, 105
1, 16417, Note_on_c, 9, 51, 73
1, 16418, Note_on_c, 9, 51, 0
1, 16418, Note_on_c, 9, 40, 0
1, 16418, Note_on_c, 0, 61, 0
1, 16418, Note_on_c, 11, 29, 0
1, 16418, Note_on_c, 1, 29, 0
1, 16418, Note_on_c, 9, 62, 59
1, 16419, Note_on_c, 9, 62, 0
1, 16427, Note_on_c, 2, 58, 0
1, 16428, Note_on_c, 2, 65, 0
1, 16430, Note_on_c, 2, 56, 0
1, 16431, Note_on_c, 2, 61, 0
1, 16439, Note_on_c, 1, 46, 72
1, 16439, Note_on_c, 3, 68, 82
1, 16439, Note_on_c, 9, 44, 45
1, 16439, Note_on_c, 11, 46, 68
1, 16440, Note_on_c, 9, 44, 0
1, 16440, Note_on_c, 2, 65, 77
1, 16440, Note_on_c, 2, 58, 65
1, 16440, Note_on_c, 2, 61, 67
1, 16440, Note_on_c, 2, 56, 63
1, 16440, Note_on_c, 4, 68, 69
1, 16441, Note_on_c, 1, 30, 0
1, 16441, Note_on_c, 11, 30, 0
1, 16441, Note_on_c, 0, 65, 67
1, 16441, Note_on_c, 0, 58, 63
1, 16441, Note_on_c, 0, 61, 61
1, 16442, Note_on_c, 0, 53, 0
1, 16442, Note_on_c, 0, 56, 0
1, 16442, Note_on_c, 9, 62, 59
1, 16443, Note_on_c, 9, 62, 0
1, 16446, Note_on_c, 2, 56, 0
1, 16448, Note_on_c, 2, 58, 0
1, 16449, Note_on_c, 2, 61, 0
1, 16450, Note_on_c, 2, 65, 0
1, 16456, Note_on_c, 8, 80, 82
1, 16457, Note_on_c, 0, 58, 0
1, 16459, Note_on_c, 0, 65, 0
1, 16460, Note_on_c, 8, 78, 0
1, 16462, Note_on_c, 1, 46, 0
1, 16462, Note_on_c, 11, 46, 0
1, 16462, Note_on_c, 0, 53, 41
1, 16462, Note_on_c, 2, 65, 85
1, 16462, Note_on_c, 2, 61, 74
1, 16462, Note_on_c, 9, 69, 35
1, 16463, Note_on_c, 9, 69, 0
1, 16463, Note_on_c, 0, 56, 47
1, 16463, Note_on_c, 1, 53, 88
1, 16463, Note_on_c, 3, 70, 87
1, 16463, Note_on_c, 9, 51, 51
1, 16463, Note_on_c, 11, 53, 84
1, 16464, Note_on_c, 9, 51, 0
1, 16464, Note_on_c, 0, 61, 0
1, 16464, Note_on_c, 4, 68, 0
1, 16464, Note_on_c, 4, 70, 70
1, 16466, Note_on_c, 3, 68, 0
1, 16466, Note_on_c, 9, 62, 76
1, 16467, Note_on_c, 9, 62, 0
1, 16479, Note_on_c, 2, 61, 0
1, 16482, Note_on_c, 2, 65, 0
1, 16485, Note_on_c, 0, 53, 0
1, 16486, Note_on_c, 2, 65, 73
1, 16487, Note_on_c, 11, 53, 0
1, 16487, Note_on_c, 1, 53, 0
1, 16487, Note_on_c, 1, 41, 76
1, 16487, Note_on_c, 9, 51, 43
1, 16487, Note_on_c, 9, 69, 25
1, 16487, Note_on_c, 11, 41, 72
1, 16488, Note_on_c, 9, 69, 0
1, 16488, Note_on_c, 4, 70, 0
1, 16488, Note_on_c, 9, 51, 0
1, 16488, Note_on_c, 2, 61, 59
1, 16488, Note_on_c, 4, 77, 70
1, 16489, Note_on_c, 3, 77, 103
1, 16491, Note_on_c, 3, 70, 0
1, 16494, Note_on_c, 2, 61, 0
1, 16494, Note_on_c, 2, 65, 0
1, 16510, Note_on_c, 2, 57, 74
1, 16510, Note_on_c, 2, 68, 64
1, 16510, Note_on_c, 2, 63, 71
1, 16510, Note_on_c, 2, 61, 70
1, 16511, Note_on_c, 0, 56, 0
1, 16511, Note_on_c, 0, 68, 56
1, 16511, Note_on_c, 9, 36, 110
1, 16511, Note_on_c, 9, 51, 87
1, 16512, Note_on_c, 9, 51, 0
1, 16512, Note_on_c, 9, 36, 0
1, 16512, Note_on_c, 10, 58, 0
1, 16512, Note_on_c, 10, 53, 0
1, 16512, Note_on_c, 10, 56, 0
1, 16512, Note_on_c, 0, 63, 67
1, 16512, Note_on_c, 0, 57, 59
1, 16512, Note_on_c, 0, 61, 63
1, 16512, Note_on_c, 10, 63, 58
1, 16512, Note_on_c, 10, 57, 58
1, 16512, Note_on_c, 10, 68, 58
1, 16513, Note_on_c, 1, 35, 94
1, 16513, Note_on_c, 11, 35, 90
1, 16517, Note_on_c, 11, 41, 0
1, 16517, Note_on_c, 1, 41, 0
1, 16535, Note_on_c, 9, 44, 42
1, 16536, Note_on_c, 9, 44, 0
1, 16555, Note_on_c, 2, 61, 0
1, 16555, Note_on_c, 2, 57, 0
1, 16555, Note_on_c, 2, 68, 0
1, 16555, Note_on_c, 2, 63, 0
1, 16558, Note_on_c, 2, 57, 74
1, 16558, Note_on_c, 2, 63, 117
1, 16558, Note_on_c, 2, 61, 108
1, 16558, Note_on_c, 2, 68, 93
1, 16559, Note_on_c, 11, 35, 0
1, 16559, Note_on_c, 1, 35, 0
1, 16559, Note_on_c, 9, 69, 34
1, 16559, Note_on_c, 9, 51, 55
1, 16560, Note_on_c, 9, 51, 0
1, 16560, Note_on_c, 9, 69, 0
1, 16566, Note_on_c, 2, 63, 0
1, 16567, Note_on_c, 2, 61, 0
1, 16568, Note_on_c, 2, 68, 0
1, 16570, Note_on_c, 2, 57, 0
1, 16573, Note_on_c, 0, 63, 0
1, 16574, Note_on_c, 0, 68, 0
1, 16576, Note_on_c, 0, 61, 0
1, 16580, Note_on_c, 0, 57, 0
1, 16583, Note_on_c, 9, 51, 54
1, 16583, Note_on_c, 9, 62, 88
1, 16584, Note_on_c, 9, 62, 0
1, 16584, Note_on_c, 9, 51, 0
1, 16584, Note_on_c, 2, 63, 67
1, 16584, Note_on_c, 2, 57, 67
1, 16584, Note_on_c, 2, 68, 58
1, 16584, Note_on_c, 9, 69, 27
1, 16585, Note_on_c, 9, 69, 0
1, 16585, Note_on_c, 2, 61, 65
1, 16586, Note_on_c, 0, 61, 70
1, 16586, Note_on_c, 0, 57, 68
1, 16586, Note_on_c, 0, 63, 65
1, 16586, Note_on_c, 0, 68, 53
1, 16594, Note_on_c, 0, 63, 0
1, 16594, Note_on_c, 0, 57, 0
1, 16594, Note_on_c, 0, 61, 0
1, 16597, Note_on_c, 0, 68, 0
1, 16607, Note_on_c, 9, 51, 94
1, 16607, Note_on_c, 9, 40, 104
1, 16608, Note_on_c, 9, 40, 0
1, 16608, Note_on_c, 9, 51, 0
1, 16608, Note_on_c, 9, 75, 79
1, 16609, Note_on_c, 9, 75, 0
1, 16609, Note_on_c, 9, 62, 74
1, 16610, Note_on_c, 9, 62, 0
1, 16620, Note_on_c, 2, 57, 0
1, 16620, Note_on_c, 2, 63, 0
1, 16622, Note_on_c, 2, 61, 0
1, 16622, Note_on_c, 2, 68, 0
1, 16631, Note_on_c, 0, 68, 56
1, 16631, Note_on_c, 0, 63, 59
1, 16631, Note_on_c, 3, 75, 83
1, 16631, Note_on_c, 9, 44, 43
1, 16632, Note_on_c, 9, 44, 0
1, 16632, Note_on_c, 4, 77, 0
1, 16632, Note_on_c, 0, 61, 59
1, 16632, Note_on_c, 0, 57, 59
1, 16632, Note_on_c, 2, 68, 69
1, 16632, Note_on_c, 2, 61, 73
1, 16632, Note_on_c, 2, 63, 71
1, 16632, Note_on_c, 2, 57, 72
1, 16632, Note_on_c, 4, 75, 72
1, 16634, Note_on_c, 3, 77, 0
1, 16634, Note_on_c, 1, 42, 80
1, 16634, Note_on_c, 11, 42, 76
1, 16638, Note_on_c, 2, 63, 0
1, 16639, Note_on_c, 0, 63, 0
1, 16640, Note_on_c, 2, 68, 0
1, 16640, Note_on_c, 2, 57, 0
1, 16640, Note_on_c, 2, 61, 0
1, 16641, Note_on_c, 0, 57, 0
1, 16642, Note_on_c, 0, 61, 0
1, 16645, Note_on_c, 0, 68, 0
1, 16652, Note_on_c, 11, 42, 0
1, 16652, Note_on_c, 1, 42, 0
1, 16653, Note_on_c, 2, 68, 95
1, 16653, Note_on_c, 2, 63, 64
1, 16654, Note_on_c, 2, 59, 65
1, 16654, Note_on_c, 9, 69, 37
1, 16655, Note_on_c, 9, 69, 0
1, 16655, Note_on_c, 9, 51, 44
1, 16656, Note_on_c, 9, 51, 0
1, 16656, Note_on_c, 4, 75, 0
1, 16656, Note_on_c, 4, 73, 72
1, 16657, Note_on_c, 1, 47, 72
1, 16657, Note_on_c, 3, 73, 89
1, 16657, Note_on_c, 11, 47, 68
1, 16662, Note_on_c, 3, 75, 0
1, 16665, Note_on_c, 2, 63, 0
1, 16673, Note_on_c, 2, 68, 0
1, 16674, Note_on_c, 3, 73, 0
1, 16676, Note_on_c, 2, 59, 0
1, 16678, Note_on_c, 1, 47, 0
1, 16678, Note_on_c, 11, 47, 0
1, 16678, Note_on_c, 2, 63, 61
1, 16678, Note_on_c, 2, 68, 90
1, 16679, Note_on_c, 4, 73, 0
1, 16679, Note_on_c, 0, 57, 65
1, 16679, Note_on_c, 9, 69, 33
1, 16679, Note_on_c, 9, 62, 74
1, 16679, Note_on_c, 9, 51, 55
1, 16680, Note_on_c, 9, 51, 0
1, 16680, Note_on_c, 9, 62, 0
1, 16680, Note_on_c, 9, 69, 0
1, 16680, Note_on_c, 4, 73, 73
1, 16681, Note_on_c, 1, 40, 75
1, 16681, Note_on_c, 3, 73, 89
1, 16681, Note_on_c, 9, 36, 105
1, 16681, Note_on_c, 11, 40, 71
1, 16682, Note_on_c, 9, 36, 0
1, 16686, Note_on_c, 0, 57, 0
1, 16686, Note_on_c, 2, 68, 0
1, 16690, Note_on_c, 2, 63, 0
1, 16701, Note_on_c, 8, 77, 86
1, 16702, Note_on_c, 0, 68, 59
1, 16702, Note_on_c, 0, 63, 57
1, 16702, Note_on_c, 0, 61, 56
1, 16702, Note_on_c, 2, 57, 67
1, 16702, Note_on_c, 2, 63, 74
1, 16702, Note_on_c, 2, 61, 71
1, 16702, Note_on_c, 2, 68, 59
1, 16703, Note_on_c, 8, 80, 0
1, 16703, Note_on_c, 9, 36, 69
1, 16703, Note_on_c, 9, 62, 69
1, 16703, Note_on_c, 9, 51, 78
1, 16704, Note_on_c, 9, 51, 0
1, 16704, Note_on_c, 9, 62, 0
1, 16704, Note_on_c, 9, 36, 0
1, 16705, Note_on_c, 1, 45, 88
1, 16705, Note_on_c, 11, 45, 84
1, 16707, Note_on_c, 1, 40, 0
1, 16707, Note_on_c, 11, 40, 0
1, 16727, Note_on_c, 9, 44, 49
1, 16728, Note_on_c, 9, 44, 0
1, 16738, Note_on_c, 0, 63, 0
1, 16739, Note_on_c, 0, 68, 0
1, 16739, Note_on_c, 0, 61, 0
1, 16749, Note_on_c, 2, 68, 0
1, 16749, Note_on_c, 2, 61, 0
1, 16749, Note_on_c, 2, 57, 0
1, 16750, Note_on_c, 2, 63, 0
1, 16750, Note_on_c, 2, 68, 83
1, 16750, Note_on_c, 2, 61, 114
1, 16750, Note_on_c, 2, 57, 73
1, 16750, Note_on_c, 9, 69, 37
1, 16751, Note_on_c, 9, 69, 0
1, 16751, Note_on_c, 0, 63, 68
1, 16751, Note_on_c, 0, 68, 57
1, 16751, Note_on_c, 0, 61, 60
1, 16751, Note_on_c, 9, 62, 84
1, 16751, Note_on_c, 9, 51, 46
1, 16751, Note_on_c, 9, 36, 107
1, 16752, Note_on_c, 9, 36, 0
1, 16752, Note_on_c, 9, 51, 0
1, 16752, Note_on_c, 9, 62, 0
1, 16752, Note_on_c, 2, 63, 117
1, 16761, Note_on_c, 2, 61, 0
1, 16762, Note_on_c, 2, 63, 0
1, 16762, Note_on_c, 2, 57, 0
1, 16764, Note_on_c, 2, 68, 0
1, 16772, Note_on_c, 11, 45, 0
1, 16772, Note_on_c, 1, 45, 0
1, 16774, Note_on_c, 2, 61, 67
1, 16774, Note_on_c, 2, 63, 69
1, 16774, Note_on_c, 9, 69, 27
1, 16775, Note_on_c, 9, 69, 0
1, 16775, Note_on_c, 1, 40, 70
1, 16775, Note_on_c, 9, 51, 42
1, 16775, Note_on_c, 11, 40, 66
1, 16776, Note_on_c, 9, 51, 0
1, 16776, Note_on_c, 2, 68, 60
1, 16776, Note_on_c, 2, 57, 74
1, 16788, Note_on_c, 0, 63, 0
1, 16790, Note_on_c, 0, 61, 0
1, 16791, Note_on_c, 0, 68, 0
1, 16794, Note_on_c, 1, 40, 0
1, 16794, Note_on_c, 11, 40, 0
1, 16797, Note_on_c, 8, 80, 86
1, 16798, Note_on_c, 0, 57, 57
1, 16799, Note_on_c, 1, 45, 81
1, 16799, Note_on_c, 9, 40, 107
1, 16799, Note_on_c, 9, 62, 90
1, 16799, Note_on_c, 11, 45, 77
1, 16800, Note_on_c, 9, 62, 0
1, 16800, Note_on_c, 9, 40, 0
1, 16800, Note_on_c, 9, 75, 79
1, 16800, Note_on_c, 9, 51, 87
1, 16801, Note_on_c, 9, 51, 0
1, 16801, Note_on_c, 9, 75, 0
1, 16801, Note_on_c, 8, 77, 0
1, 16809, Note_on_c, 2, 61, 0
1, 16812, Note_on_c, 2, 57, 0
1, 16812, Note_on_c, 2, 63, 0
1, 16813, Note_on_c, 2, 68, 0
1, 16818, Note_on_c, 0, 57, 0
1, 16822, Note_on_c, 0, 68, 57
1, 16822, Note_on_c, 0, 63, 65
1, 16822, Note_on_c, 0, 61, 59
1, 16822, Note_on_c, 2, 68, 71
1, 16822, Note_on_c, 2, 57, 75
1, 16823, Note_on_c, 9, 44, 44
1, 16824, Note_on_c, 9, 44, 0
1, 16824, Note_on_c, 1, 37, 85
1, 16824, Note_on_c, 2, 61, 69
1, 16824, Note_on_c, 2, 63, 72
1, 16824, Note_on_c, 11, 37, 81
1, 16829, Note_on_c, 11, 45, 0
1, 16829, Note_on_c, 1, 45, 0
1, 16830, Note_on_c, 2, 57, 0
1, 16832, Note_on_c, 2, 63, 0
1, 16833, Note_on_c, 2, 61, 0
1, 16833, Note_on_c, 2, 68, 0
1, 16835, Note_on_c, 3, 73, 0
1, 16835, Note_on_c, 0, 61, 0
1, 16837, Note_on_c, 0, 63, 0
1, 16838, Note_on_c, 0, 68, 0
1, 16845, Note_on_c, 11, 37, 0
1, 16845, Note_on_c, 1, 37, 0
1, 16845, Note_on_c, 2, 68, 87
1, 16846, Note_on_c, 0, 57, 68
1, 16846, Note_on_c, 2, 63, 63
1, 16846, Note_on_c, 9, 69, 39
1, 16847, Note_on_c, 9, 69, 0
1, 16847, Note_on_c, 1, 30, 85
1, 16847, Note_on_c, 9, 51, 48
1, 16847, Note_on_c, 11, 30, 81
1, 16848, Note_on_c, 9, 51, 0
1, 16848, Note_on_c, 2, 59, 63
1, 16854, Note_on_c, 0, 57, 0
1, 16860, Note_on_c, 2, 59, 0
1, 16862, Note_on_c, 2, 63, 0
1, 16865, Note_on_c, 2, 68, 0
1, 16869, Note_on_c, 2, 68, 90
1, 16870, Note_on_c, 0, 61, 73
1, 16870, Note_on_c, 2, 63, 69
1, 16871, Note_on_c, 1, 31, 94
1, 16871, Note_on_c, 9, 69, 27
1, 16871, Note_on_c, 9, 51, 43
1, 16871, Note_on_c, 11, 31, 90
1, 16872, Note_on_c, 9, 51, 0
1, 16872, Note_on_c, 9, 69, 0
1, 16872, Note_on_c, 11, 30, 0
1, 16872, Note_on_c, 1, 30, 0
1, 16875, Note_on_c, 2, 68, 0
1, 16878, Note_on_c, 2, 63, 0
1, 16881, Note_on_c, 0, 61, 0
1, 16894, Note_on_c, 0, 70, 57
1, 16894, Note_on_c, 0, 68, 59
1, 16894, Note_on_c, 2, 58, 79
1, 16894, Note_on_c, 2, 65, 72
1, 16894, Note_on_c, 2, 61, 83
1, 16895, Note_on_c, 0, 61, 63
1, 16895, Note_on_c, 0, 56, 80
1, 16895, Note_on_c, 9, 51, 87
1, 16895, Note_on_c, 9, 36, 115
1, 16895, Note_on_c, 8, 82, 90
1, 16896, Note_on_c, 9, 36, 0
1, 16896, Note_on_c, 9, 51, 0
1, 16896, Note_on_c, 10, 63, 0
1, 16896, Note_on_c, 4, 73, 0
1, 16896, Note_on_c, 1, 31, 0
1, 16896, Note_on_c, 11, 31, 0
1, 16896, Note_on_c, 10, 57, 0
1, 16896, Note_on_c, 0, 65, 68
1, 16896, Note_on_c, 2, 56, 59
1, 16896, Note_on_c, 3, 70, 103
1, 16896, Note_on_c, 4, 70, 68
1, 16896, Note_on_c, 10, 65, 63
1, 16896, Note_on_c, 10, 56, 63
1, 16897, Note_on_c, 1, 32, 73
1, 16897, Note_on_c, 11, 32, 69
1, 16899, Note_on_c, 8, 80, 0
1, 16919, Note_on_c, 0, 56, 0
1, 16919, Note_on_c, 9, 44, 41
1, 16920, Note_on_c, 9, 44, 0
1, 16942, Note_on_c, 2, 65, 0
1, 16942, Note_on_c, 2, 58, 0
1, 16942, Note_on_c, 2, 56, 0
1, 16942, Note_on_c, 2, 61, 0
1, 16942, Note_on_c, 0, 56, 57
1, 16942, Note_on_c, 9, 69, 46
1, 16943, Note_on_c, 9, 69, 0
1, 16943, Note_on_c, 3, 70, 0
1, 16943, Note_on_c, 9, 51, 52
1, 16944, Note_on_c, 9, 51, 0
1, 16944, Note_on_c, 4, 70, 0
1, 16944, Note_on_c, 2, 65, 83
1, 16944, Note_on_c, 2, 61, 100
1, 16944, Note_on_c, 2, 56, 86
1, 16944, Note_on_c, 2, 58, 104
1, 16944, Note_on_c, 4, 65, 68
1, 16945, Note_on_c, 3, 65, 81
1, 16946, Note_on_c, 0, 70, 0
1, 16946, Note_on_c, 0, 68, 0
1, 16946, Note_on_c, 0, 65, 0
1, 16949, Note_on_c, 0, 61, 0
1, 16952, Note_on_c, 2, 61, 0
1, 16954, Note_on_c, 2, 58, 0
1, 16954, Note_on_c, 2, 56, 0
1, 16956, Note_on_c, 0, 56, 0
1, 16957, Note_on_c, 2, 65, 0
1, 16967, Note_on_c, 9, 62, 87
1, 16967, Note_on_c, 9, 69, 33
1, 16967, Note_on_c, 9, 51, 45
1, 16968, Note_on_c, 9, 51, 0
1, 16968, Note_on_c, 9, 62, 0
1, 16968, Note_on_c, 4, 65, 0
1, 16968, Note_on_c, 3, 65, 0
1, 16968, Note_on_c, 9, 69, 0
1, 16968, Note_on_c, 0, 56, 57
1, 16968, Note_on_c, 2, 65, 74
1, 16968, Note_on_c, 2, 61, 74
1, 16968, Note_on_c, 2, 58, 64
1, 16968, Note_on_c, 2, 56, 63
1, 16968, Note_on_c, 4, 68, 68
1, 16969, Note_on_c, 0, 70, 59
1, 16969, Note_on_c, 3, 68, 102
1, 16970, Note_on_c, 11, 32, 0
1, 16970, Note_on_c, 1, 32, 0
1, 16970, Note_on_c, 0, 68, 63
1, 16970, Note_on_c, 0, 65, 79
1, 16970, Note_on_c, 0, 61, 61
1, 16980, Note_on_c, 0, 65, 0
1, 16981, Note_on_c, 0, 61, 0
1, 16983, Note_on_c, 0, 68, 0
1, 16990, Note_on_c, 0, 56, 0
1, 16991, Note_on_c, 9, 75, 74
1, 16991, Note_on_c, 9, 40, 101
1, 16991, Note_on_c, 9, 51, 81
1, 16992, Note_on_c, 9, 51, 0
1, 16992, Note_on_c, 9, 40, 0
1, 16992, Note_on_c, 9, 75, 0
1, 16992, Note_on_c, 9, 62, 74
1, 16993, Note_on_c, 9, 62, 0
1, 16994, Note_on_c, 0, 70, 0
1, 17004, Note_on_c, 2, 65, 0
1, 17004, Note_on_c, 2, 58, 0
1, 17004, Note_on_c, 2, 61, 0
1, 17004, Note_on_c, 2, 56, 0
1, 17014, Note_on_c, 2, 65, 70
1, 17015, Note_on_c, 9, 44, 48
1, 17016, Note_on_c, 9, 44, 0
1, 17016, Note_on_c, 2, 61, 71
1, 17016, Note_on_c, 2, 58, 67
1, 17016, Note_on_c, 2, 56, 67
1, 17017, Note_on_c, 0, 65, 69
1, 17017, Note_on_c, 0, 70, 53
1, 17017, Note_on_c, 0, 68, 61
1, 17018, Note_on_c, 0, 61, 55
1, 17021, Note_on_c, 2, 61, 0
1, 17022, Note_on_c, 2, 56, 0
1, 17022, Note_on_c, 2, 58, 0
1, 17022, Note_on_c, 2, 65, 0
1, 17025, Note_on_c, 0, 61, 0
1, 17025, Note_on_c, 0, 65, 0
1, 17027, Note_on_c, 0, 68, 0
1, 17030, Note_on_c, 0, 70, 0
1, 17037, Note_on_c, 2, 65, 87
1, 17038, Note_on_c, 2, 61, 60
1, 17038, Note_on_c, 2, 58, 47
1, 17039, Note_on_c, 9, 69, 41
1, 17039, Note_on_c, 9, 51, 48
1, 17040, Note_on_c, 9, 51, 0
1, 17040, Note_on_c, 9, 69, 0
1, 17048, Note_on_c, 2, 61, 0
1, 17057, Note_on_c, 2, 65, 0
1, 17058, Note_on_c, 2, 58, 0
1, 17062, Note_on_c, 2, 65, 81
1, 17062, Note_on_c, 2, 61, 61
1, 17062, Note_on_c, 9, 62, 69
1, 17063, Note_on_c, 9, 62, 0
1, 17063, Note_on_c, 1, 39, 81
1, 17063, Note_on_c, 9, 51, 42
1, 17063, Note_on_c, 9, 36, 104
1, 17063, Note_on_c, 11, 39, 77
1, 17064, Note_on_c, 9, 36, 0
1, 17064, Note_on_c, 9, 51, 0
1, 17064, Note_on_c, 0, 68, 66
1, 17064, Note_on_c, 9, 69, 33
1, 17065, Note_on_c, 9, 69, 0
1, 17065, Note_on_c, 0, 65, 68
1, 17065, Note_on_c, 0, 61, 53
1, 17070, Note_on_c, 2, 65, 0
1, 17070, Note_on_c, 2, 61, 0
1, 17082, Note_on_c, 3, 68, 0
1, 17083, Note_on_c, 8, 80, 84
1, 17085, Note_on_c, 1, 39, 0
1, 17085, Note_on_c, 11, 39, 0
1, 17086, Note_on_c, 0, 56, 57
1, 17086, Note_on_c, 1, 44, 82
1, 17086, Note_on_c, 2, 61, 93
1, 17086, Note_on_c, 2, 65, 64
1, 17086, Note_on_c, 2, 56, 60
1, 17086, Note_on_c, 2, 58, 87
1, 17086, Note_on_c, 11, 44, 78
1, 17087, Note_on_c, 8, 82, 0
1, 17087, Note_on_c, 9, 36, 67
1, 17088, Note_on_c, 9, 36, 0
1, 17088, Note_on_c, 4, 68, 0
1, 17088, Note_on_c, 9, 51, 83
1, 17089, Note_on_c, 9, 51, 0
1, 17089, Note_on_c, 9, 62, 62
1, 17090, Note_on_c, 9, 62, 0
1, 17111, Note_on_c, 11, 44, 0
1, 17111, Note_on_c, 1, 44, 0
1, 17111, Note_on_c, 1, 32, 78
1, 17111, Note_on_c, 9, 44, 42
1, 17111, Note_on_c, 11, 32, 74
1, 17112, Note_on_c, 9, 44, 0
1, 17117, Note_on_c, 0, 65, 0
1, 17117, Note_on_c, 0, 61, 0
1, 17120, Note_on_c, 0, 68, 0
1, 17131, Note_on_c, 11, 32, 0
1, 17131, Note_on_c, 1, 32, 0
1, 17134, Note_on_c, 2, 61, 0
1, 17134, Note_on_c, 2, 58, 0
1, 17134, Note_on_c, 2, 56, 0
1, 17134, Note_on_c, 2, 65, 0
1, 17134, Note_on_c, 0, 68, 61
1, 17134, Note_on_c, 0, 61, 64
1, 17134, Note_on_c, 9, 69, 41
1, 17135, Note_on_c, 9, 69, 0
1, 17135, Note_on_c, 0, 65, 79
1, 17135, Note_on_c, 1, 44, 80
1, 17135, Note_on_c, 9, 51, 46
1, 17135, Note_on_c, 9, 36, 105
1, 17135, Note_on_c, 11, 44, 76
1, 17136, Note_on_c, 9, 36, 0
1, 17136, Note_on_c, 9, 51, 0
1, 17136, Note_on_c, 2, 65, 87
1, 17136, Note_on_c, 2, 56, 98
1, 17136, Note_on_c, 2, 61, 108
1, 17136, Note_on_c, 2, 58, 112
1, 17142, Note_on_c, 0, 56, 0
1, 17145, Note_on_c, 2, 58, 0
1, 17145, Note_on_c, 2, 61, 0
1, 17148, Note_on_c, 2, 65, 0
1, 17148, Note_on_c, 2, 56, 0
1, 17156, Note_on_c, 8, 77, 92
1, 17158, Note_on_c, 9, 62, 71
1, 17158, Note_on_c, 9, 69, 23
1, 17159, Note_on_c, 9, 69, 0
1, 17159, Note_on_c, 9, 62, 0
1, 17159, Note_on_c, 9, 51, 55
1, 17160, Note_on_c, 9, 51, 0
1, 17160, Note_on_c, 2, 65, 68
1, 17160, Note_on_c, 2, 58, 67
1, 17160, Note_on_c, 2, 61, 73
1, 17160, Note_on_c, 2, 56, 69
1, 17161, Note_on_c, 8, 80, 0
1, 17170, Note_on_c, 1, 44, 0
1, 17170, Note_on_c, 11, 44, 0
1, 17170, Note_on_c, 0, 68, 0
1, 17171, Note_on_c, 0, 61, 0
1, 17172, Note_on_c, 0, 65, 0
1, 17182, Note_on_c, 0, 56, 56
1, 17182, Note_on_c, 3, 65, 75
1, 17183, Note_on_c, 9, 40, 105
1, 17183, Note_on_c, 9, 75, 79
1, 17183, Note_on_c, 9, 51, 81
1, 17183, Note_on_c, 9, 62, 63
1, 17184, Note_on_c, 9, 62, 0
1, 17184, Note_on_c, 9, 40, 0
1, 17184, Note_on_c, 9, 51, 0
1, 17184, Note_on_c, 9, 75, 0
1, 17184, Note_on_c, 4, 65, 73
1, 17196, Note_on_c, 2, 61, 0
1, 17196, Note_on_c, 2, 65, 0
1, 17197, Note_on_c, 2, 58, 0
1, 17198, Note_on_c, 2, 56, 0
1, 17202, Note_on_c, 0, 56, 0
1, 17206, Note_on_c, 3, 68, 97
1, 17207, Note_on_c, 0, 68, 66
1, 17207, Note_on_c, 9, 44, 46
1, 17208, Note_on_c, 9, 44, 0
1, 17208, Note_on_c, 4, 65, 0
1, 17208, Note_on_c, 0, 65, 77
1, 17208, Note_on_c, 2, 65, 66
1, 17208, Note_on_c, 2, 56, 74
1, 17208, Note_on_c, 2, 61, 64
1, 17208, Note_on_c, 2, 58, 61
1, 17208, Note_on_c, 4, 68, 74
1, 17209, Note_on_c, 0, 61, 59
1, 17209, Note_on_c, 1, 32, 75
1, 17209, Note_on_c, 9, 62, 69
1, 17209, Note_on_c, 11, 32, 71
1, 17210, Note_on_c, 9, 62, 0
1, 17210, Note_on_c, 3, 65, 0
1, 17216, Note_on_c, 2, 56, 0
1, 17216, Note_on_c, 2, 58, 0
1, 17216, Note_on_c, 2, 61, 0
1, 17218, Note_on_c, 2, 65, 0
1, 17219, Note_on_c, 1, 32, 0
1, 17219, Note_on_c, 11, 32, 0
1, 17219, Note_on_c, 0, 65, 0
1, 17221, Note_on_c, 0, 68, 0
1, 17222, Note_on_c, 8, 73, 86
1, 17226, Note_on_c, 8, 77, 0
1, 17226, Note_on_c, 0, 61, 0
1, 17229, Note_on_c, 0, 56, 52
1, 17229, Note_on_c, 2, 65, 81
1, 17230, Note_on_c, 2, 61, 54
1, 17230, Note_on_c, 2, 58, 59
1, 17230, Note_on_c, 9, 69, 46
1, 17231, Note_on_c, 9, 69, 0
1, 17231, Note_on_c, 1, 39, 80
1, 17231, Note_on_c, 9, 51, 45
1, 17231, Note_on_c, 9, 62, 63
1, 17231, Note_on_c, 11, 39, 76
1, 17232, Note_on_c, 9, 62, 0
1, 17232, Note_on_c, 9, 51, 0
1, 17242, Note_on_c, 2, 61, 0
1, 17250, Note_on_c, 2, 65, 0
1, 17254, Note_on_c, 2, 58, 0
1, 17254, Note_on_c, 2, 65, 81
1, 17254, Note_on_c, 2, 61, 77
1, 17254, Note_on_c, 9, 69, 27
1, 17255, Note_on_c, 9, 69, 0
1, 17255, Note_on_c, 9, 51, 47
1, 17256, Note_on_c, 9, 51, 0
1, 17257, Note_on_c, 1, 32, 84
1, 17257, Note_on_c, 11, 32, 80
1, 17258, Note_on_c, 0, 59, 52
1, 17259, Note_on_c, 0, 56, 0
1, 17262, Note_on_c, 2, 65, 0
1, 17262, Note_on_c, 2, 61, 0
1, 17265, Note_on_c, 11, 39, 0
1, 17265, Note_on_c, 1, 39, 0
1, 17265, Note_on_c, 0, 59, 0
1, 17270, Note_on_c, 1, 32, 0
1, 17270, Note_on_c, 11, 32, 0
1, 17278, Note_on_c, 0, 53, 62
1, 17278, Note_on_c, 0, 65, 69
1, 17278, Note_on_c, 0, 56, 52
1, 17278, Note_on_c, 2, 59, 83
1, 17278, Note_on_c, 2, 63, 87
1, 17278, Note_on_c, 2, 56, 61
1, 17278, Note_on_c, 2, 53, 65
1, 17278, Note_on_c, 8, 71, 91
1, 17279, Note_on_c, 0, 63, 68
1, 17279, Note_on_c, 0, 59, 71
1, 17279, Note_on_c, 3, 70, 109
1, 17279, Note_on_c, 9, 36, 115
1, 17280, Note_on_c, 9, 36, 0
1, 17280, Note_on_c, 8, 73, 0
1, 17280, Note_on_c, 10, 68, 0
1, 17280, Note_on_c, 10, 61, 0
1, 17280, Note_on_c, 10, 65, 0
1, 17280, Note_on_c, 4, 68, 0
1, 17280, Note_on_c, 4, 70, 74
1, 17280, Note_on_c, 10, 59, 60
1, 17280, Note_on_c, 10, 63, 58
1, 17280, Note_on_c, 10, 53, 56
1, 17281, Note_on_c, 1, 37, 88
1, 17281, Note_on_c, 9, 51, 81
1, 17281, Note_on_c, 11, 37, 84
1, 17282, Note_on_c, 9, 51, 0
1, 17282, Note_on_c, 3, 68, 0
1, 17298, Note_on_c, 0, 56, 0
1, 17304, Note_on_c, 9, 44, 46
1, 17305, Note_on_c, 9, 44, 0
1, 17306, Note_on_c, 0, 53, 0
1, 17326, Note_on_c, 2, 59, 0
1, 17326, Note_on_c, 2, 63, 0
1, 17326, Note_on_c, 2, 56, 0
1, 17326, Note_on_c, 2, 53, 0
1, 17326, Note_on_c, 0, 53, 59
1, 17326, Note_on_c, 0, 56, 60
1, 17326, Note_on_c, 9, 69, 39
1, 17327, Note_on_c, 9, 69, 0
1, 17327, Note_on_c, 9, 51, 57
1, 17328, Note_on_c, 9, 51, 0
1, 17328, Note_on_c, 4, 70, 0
1, 17328, Note_on_c, 11, 37, 0
1, 17328, Note_on_c, 1, 37, 0
1, 17328, Note_on_c, 2, 56, 43
1, 17328, Note_on_c, 2, 59, 83
1, 17328, Note_on_c, 2, 53, 48
1, 17328, Note_on_c, 2, 63, 74
1, 17328, Note_on_c, 4, 65, 74
1, 17329, Note_on_c, 3, 65, 84
1, 17330, Note_on_c, 3, 70, 0
1, 17333, Note_on_c, 0, 63, 0
1, 17336, Note_on_c, 0, 59, 0
1, 17338, Note_on_c, 0, 65, 0
1, 17338, Note_on_c, 2, 59, 0
1, 17340, Note_on_c, 0, 56, 0
1, 17340, Note_on_c, 2, 56, 0
1, 17341, Note_on_c, 2, 63, 0
1, 17344, Note_on_c, 2, 53, 0
1, 17351, Note_on_c, 9, 51, 46
1, 17351, Note_on_c, 9, 69, 33
1, 17351, Note_on_c, 9, 62, 84
1, 17352, Note_on_c, 9, 62, 0
1, 17352, Note_on_c, 4, 65, 0
1, 17352, Note_on_c, 9, 69, 0
1, 17352, Note_on_c, 9, 51, 0
1, 17352, Note_on_c, 2, 59, 74
1, 17352, Note_on_c, 2, 53, 68
1, 17352, Note_on_c, 2, 63, 68
1, 17352, Note_on_c, 2, 56, 63
1, 17352, Note_on_c, 4, 68, 74
1, 17354, Note_on_c, 3, 65, 0
1, 17354, Note_on_c, 0, 65, 68
1, 17354, Note_on_c, 0, 56, 57
1, 17354, Note_on_c, 0, 59, 70
1, 17354, Note_on_c, 3, 68, 110
1, 17366, Note_on_c, 0, 56, 0
1, 17366, Note_on_c, 0, 65, 0
1, 17370, Note_on_c, 0, 53, 0
1, 17372, Note_on_c, 0, 59, 0
1, 17375, Note_on_c, 9, 75, 76
1, 17376, Note_on_c, 9, 75, 0
1, 17376, Note_on_c, 9, 40, 107
1, 17376, Note_on_c, 9, 51, 91
1, 17377, Note_on_c, 9, 51, 0
1, 17377, Note_on_c, 9, 40, 0
1, 17377, Note_on_c, 9, 62, 71
1, 17378, Note_on_c, 9, 62, 0
1, 17384, Note_on_c, 2, 53, 0
1, 17386, Note_on_c, 2, 56, 0
1, 17388, Note_on_c, 2, 59, 0
1, 17388, Note_on_c, 2, 63, 0
1, 17398, Note_on_c, 3, 68, 0
1, 17398, Note_on_c, 2, 59, 74
1, 17398, Note_on_c, 2, 63, 72
1, 17398, Note_on_c, 2, 53, 70
1, 17399, Note_on_c, 9, 44, 42
1, 17400, Note_on_c, 9, 44, 0
1, 17400, Note_on_c, 4, 68, 0
1, 17400, Note_on_c, 2, 56, 58
1, 17400, Note_on_c, 4, 70, 73
1, 17401, Note_on_c, 0, 56, 56
1, 17401, Note_on_c, 3, 70, 86
1, 17402, Note_on_c, 0, 63, 62
1, 17402, Note_on_c, 0, 53, 51
1, 17402, Note_on_c, 0, 59, 58
1, 17405, Note_on_c, 2, 59, 0
1, 17406, Note_on_c, 2, 56, 0
1, 17406, Note_on_c, 2, 63, 0
1, 17408, Note_on_c, 2, 53, 0
1, 17411, Note_on_c, 0, 59, 0
1, 17411, Note_on_c, 0, 53, 0
1, 17413, Note_on_c, 0, 63, 0
1, 17414, Note_on_c, 0, 56, 0
1, 17421, Note_on_c, 2, 56, 58
1, 17422, Note_on_c, 2, 63, 87
1, 17422, Note_on_c, 2, 59, 58
1, 17423, Note_on_c, 9, 69, 37
1, 17424, Note_on_c, 9, 69, 0
1, 17424, Note_on_c, 9, 51, 49
1, 17425, Note_on_c, 9, 51, 0
1, 17430, Note_on_c, 2, 59, 0
1, 17439, Note_on_c, 2, 63, 0
1, 17442, Note_on_c, 3, 70, 0
1, 17445, Note_on_c, 2, 56, 0
1, 17446, Note_on_c, 2, 63, 87
1, 17446, Note_on_c, 2, 59, 66
1, 17447, Note_on_c, 0, 65, 68
1, 17447, Note_on_c, 1, 37, 72
1, 17447, Note_on_c, 9, 51, 38
1, 17447, Note_on_c, 9, 69, 27
1, 17447, Note_on_c, 11, 37, 68
1, 17448, Note_on_c, 9, 69, 0
1, 17448, Note_on_c, 9, 51, 0
1, 17448, Note_on_c, 0, 59, 67
1, 17448, Note_on_c, 9, 62, 71
1, 17449, Note_on_c, 9, 62, 0
1, 17449, Note_on_c, 9, 36, 93
1, 17450, Note_on_c, 9, 36, 0
1, 17454, Note_on_c, 2, 63, 0
1, 17454, Note_on_c, 2, 59, 0
1, 17470, Note_on_c, 1, 37, 0
1, 17470, Note_on_c, 11, 37, 0
1, 17470, Note_on_c, 0, 56, 52
1, 17470, Note_on_c, 0, 53, 54
1, 17470, Note_on_c, 2, 53, 62
1, 17470, Note_on_c, 2, 56, 53
1, 17470, Note_on_c, 2, 59, 77
1, 17470, Note_on_c, 2, 63, 76
1, 17471, Note_on_c, 1, 43, 78
1, 17471, Note_on_c, 9, 36, 65
1, 17471, Note_on_c, 11, 43, 74
1, 17472, Note_on_c, 9, 36, 0
1, 17472, Note_on_c, 4, 70, 0
1, 17473, Note_on_c, 9, 51, 86
1, 17474, Note_on_c, 9, 51, 0
1, 17474, Note_on_c, 9, 62, 71
1, 17475, Note_on_c, 9, 62, 0
1, 17492, Note_on_c, 11, 43, 0
1, 17492, Note_on_c, 1, 43, 0
1, 17494, Note_on_c, 1, 38, 78
1, 17494, Note_on_c, 11, 38, 74
1, 17497, Note_on_c, 0, 59, 0
1, 17497, Note_on_c, 9, 44, 47
1, 17498, Note_on_c, 9, 44, 0
1, 17516, Note_on_c, 2, 63, 0
1, 17516, Note_on_c, 2, 53, 0
1, 17516, Note_on_c, 2, 56, 0
1, 17516, Note_on_c, 2, 59, 0
1, 17518, Note_on_c, 11, 38, 0
1, 17518, Note_on_c, 0, 56, 0
1, 17518, Note_on_c, 1, 38, 0
1, 17518, Note_on_c, 0, 59, 64
1, 17518, Note_on_c, 2, 53, 72
1, 17518, Note_on_c, 2, 63, 111
1, 17519, Note_on_c, 1, 43, 69
1, 17519, Note_on_c, 9, 69, 43
1, 17519, Note_on_c, 11, 43, 65
1, 17520, Note_on_c, 9, 69, 0
1, 17520, Note_on_c, 2, 59, 98
1, 17520, Note_on_c, 2, 56, 73
1, 17520, Note_on_c, 9, 62, 80
1, 17521, Note_on_c, 9, 62, 0
1, 17521, Note_on_c, 0, 65, 0
1, 17521, Note_on_c, 9, 51, 48
1, 17521, Note_on_c, 9, 36, 110
1, 17522, Note_on_c, 9, 36, 0
1, 17522, Note_on_c, 9, 51, 0
1, 17529, Note_on_c, 0, 59, 0
1, 17530, Note_on_c, 2, 53, 0
1, 17530, Note_on_c, 2, 63, 0
1, 17530, Note_on_c, 2, 56, 0
1, 17530, Note_on_c, 2, 59, 0
1, 17542, Note_on_c, 2, 56, 61
1, 17542, Note_on_c, 2, 63, 63
1, 17542, Note_on_c, 2, 53, 63
1, 17542, Note_on_c, 2, 59, 74
1, 17543, Note_on_c, 9, 51, 41
1, 17543, Note_on_c, 9, 69, 31
1, 17544, Note_on_c, 9, 69, 0
1, 17544, Note_on_c, 9, 51, 0
1, 17566, Note_on_c, 8, 73, 94
1, 17567, Note_on_c, 0, 59, 75
1, 17567, Note_on_c, 0, 65, 87
1, 17567, Note_on_c, 9, 75, 73
1, 17568, Note_on_c, 9, 75, 0
1, 17568, Note_on_c, 0, 53, 0
1, 17568, Note_on_c, 8, 71, 0
1, 17568, Note_on_c, 3, 65, 96
1, 17568, Note_on_c, 4, 65, 75
1, 17568, Note_on_c, 9, 40, 105
1, 17569, Note_on_c, 9, 40, 0
1, 17569, Note_on_c, 9, 51, 81
1, 17569, Note_on_c, 9, 62, 88
1, 17570, Note_on_c, 9, 62, 0
1, 17570, Note_on_c, 9, 51, 0
1, 17577, Note_on_c, 2, 56, 0
1, 17578, Note_on_c, 2, 53, 0
1, 17578, Note_on_c, 2, 63, 0
1, 17580, Note_on_c, 2, 59, 0
1, 17590, Note_on_c, 3, 65, 0
1, 17590, Note_on_c, 2, 56, 61
1, 17590, Note_on_c, 2, 59, 81
1, 17590, Note_on_c, 2, 63, 70
1, 17590, Note_on_c, 2, 53, 67
1, 17591, Note_on_c, 1, 38, 75
1, 17591, Note_on_c, 3, 68, 110
1, 17591, Note_on_c, 9, 44, 43
1, 17591, Note_on_c, 11, 38, 71
1, 17592, Note_on_c, 9, 44, 0
1, 17592, Note_on_c, 4, 65, 0
1, 17592, Note_on_c, 4, 68, 75
1, 17596, Note_on_c, 11, 43, 0
1, 17596, Note_on_c, 1, 43, 0
1, 17597, Note_on_c, 2, 56, 0
1, 17598, Note_on_c, 2, 53, 0
1, 17598, Note_on_c, 2, 59, 0
1, 17600, Note_on_c, 2, 63, 0
1, 17614, Note_on_c, 0, 53, 57
1, 17614, Note_on_c, 0, 56, 53
1, 17614, Note_on_c, 2, 59, 64
1, 17614, Note_on_c, 2, 56, 49
1, 17614, Note_on_c, 2, 63, 104
1, 17615, Note_on_c, 1, 43, 75
1, 17615, Note_on_c, 9, 69, 32
1, 17615, Note_on_c, 9, 51, 42
1, 17615, Note_on_c, 11, 43, 71
1, 17616, Note_on_c, 9, 51, 0
1, 17616, Note_on_c, 9, 69, 0
1, 17618, Note_on_c, 11, 38, 0
1, 17618, Note_on_c, 1, 38, 0
1, 17623, Note_on_c, 0, 59, 0
1, 17624, Note_on_c, 2, 59, 0
1, 17628, Note_on_c, 0, 53, 0
1, 17630, Note_on_c, 0, 56, 0
1, 17632, Note_on_c, 0, 65, 0
1, 17634, Note_on_c, 2, 63, 0
1, 17638, Note_on_c, 2, 56, 0
1, 17638, Note_on_c, 2, 63, 85
1, 17639, Note_on_c, 1, 37, 75
1, 17639, Note_on_c, 9, 51, 42
1, 17639, Note_on_c, 9, 69, 35
1, 17639, Note_on_c, 11, 37, 71
1, 17640, Note_on_c, 9, 69, 0
1, 17640, Note_on_c, 9, 51, 0
1, 17640, Note_on_c, 2, 59, 76
1, 17642, Note_on_c, 11, 43, 0
1, 17642, Note_on_c, 1, 43, 0
1, 17646, Note_on_c, 2, 63, 0
1, 17648, Note_on_c, 2, 59, 0
1, 17662, Note_on_c, 8, 73, 0
1, 17662, Note_on_c, 2, 65, 63
1, 17662, Note_on_c, 2, 61, 90
1, 17662, Note_on_c, 2, 58, 90
1, 17662, Note_on_c, 2, 56, 95
1, 17662, Note_on_c, 8, 77, 91
1, 17663, Note_on_c, 3, 68, 0
1, 17663, Note_on_c, 0, 56, 53
1, 17663, Note_on_c, 0, 65, 58
1, 17663, Note_on_c, 1, 42, 72
1, 17663, Note_on_c, 9, 51, 83
1, 17663, Note_on_c, 9, 36, 115
1, 17663, Note_on_c, 11, 42, 68
1, 17664, Note_on_c, 9, 36, 0
1, 17664, Note_on_c, 9, 51, 0
1, 17664, Note_on_c, 10, 59, 0
1, 17664, Note_on_c, 10, 63, 0
1, 17664, Note_on_c, 4, 68, 0
1, 17664, Note_on_c, 0, 61, 64
1, 17664, Note_on_c, 0, 58, 58
1, 17664, Note_on_c, 3, 70, 100
1, 17664, Note_on_c, 4, 70, 73
1, 17664, Note_on_c, 10, 61, 62
1, 17664, Note_on_c, 10, 58, 62
1, 17668, Note_on_c, 1, 37, 0
1, 17668, Note_on_c, 11, 37, 0
1, 17684, Note_on_c, 0, 56, 0
1, 17688, Note_on_c, 0, 58, 0
1, 17688, Note_on_c, 9, 44, 41
1, 17689, Note_on_c, 9, 44, 0
1, 17705, Note_on_c, 0, 61, 0
1, 17709, Note_on_c, 0, 65, 0
1, 17709, Note_on_c, 0, 56, 59
1, 17710, Note_on_c, 2, 65, 0
1, 17710, Note_on_c, 2, 61, 0
1, 17710, Note_on_c, 2, 58, 0
1, 17710, Note_on_c, 2, 56, 0
1, 17710, Note_on_c, 9, 69, 50
1, 17711, Note_on_c, 9, 69, 0
1, 17711, Note_on_c, 3, 70, 0
1, 17711, Note_on_c, 9, 51, 49
1, 17712, Note_on_c, 9, 51, 0
1, 17712, Note_on_c, 4, 70, 0
1, 17712, Note_on_c, 2, 65, 77
1, 17712, Note_on_c, 2, 56, 108
1, 17712, Note_on_c, 2, 58, 100
1, 17712, Note_on_c, 2, 61, 104
1, 17712, Note_on_c, 4, 65, 74
1, 17713, Note_on_c, 3, 65, 86
1, 17721, Note_on_c, 2, 61, 0
1, 17721, Note_on_c, 2, 56, 0
1, 17721, Note_on_c, 2, 58, 0
1, 17722, Note_on_c, 2, 65, 0
1, 17723, Note_on_c, 11, 42, 0
1, 17723, Note_on_c, 1, 42, 0
1, 17726, Note_on_c, 0, 56, 0
1, 17734, Note_on_c, 0, 56, 66
1, 17734, Note_on_c, 2, 65, 61
1, 17734, Note_on_c, 2, 56, 63
1, 17734, Note_on_c, 2, 58, 60
1, 17734, Note_on_c, 2, 61, 68
1, 17734, Note_on_c, 9, 62, 66
1, 17735, Note_on_c, 9, 62, 0
1, 17735, Note_on_c, 9, 51, 47
1, 17735, Note_on_c, 9, 69, 28
1, 17736, Note_on_c, 9, 69, 0
1, 17736, Note_on_c, 9, 51, 0
1, 17736, Note_on_c, 4, 65, 0
1, 17736, Note_on_c, 0, 61, 65
1, 17736, Note_on_c, 0, 65, 69
1, 17736, Note_on_c, 4, 68, 74
1, 17737, Note_on_c, 3, 68, 105
1, 17738, Note_on_c, 3, 65, 0
1, 17738, Note_on_c, 0, 58, 59
1, 17750, Note_on_c, 0, 58, 0
1, 17751, Note_on_c, 0, 61, 0
1, 17753, Note_on_c, 0, 56, 0
1, 17758, Note_on_c, 0, 65, 0
1, 17759, Note_on_c, 9, 40, 101
1, 17759, Note_on_c, 9, 51, 86
1, 17760, Note_on_c, 9, 51, 0
1, 17760, Note_on_c, 9, 40, 0
1, 17761, Note_on_c, 9, 75, 79
1, 17761, Note_on_c, 9, 62, 74
1, 17762, Note_on_c, 9, 62, 0
1, 17762, Note_on_c, 9, 75, 0
1, 17767, Note_on_c, 2, 56, 0
1, 17768, Note_on_c, 2, 61, 0
1, 17770, Note_on_c, 2, 65, 0
1, 17770, Note_on_c, 2, 58, 0
1, 17782, Note_on_c, 2, 61, 71
1, 17782, Note_on_c, 2, 56, 68
1, 17782, Note_on_c, 2, 65, 70
1, 17782, Note_on_c, 2, 58, 62
1, 17783, Note_on_c, 9, 44, 43
1, 17784, Note_on_c, 9, 44, 0
1, 17784, Note_on_c, 0, 63, 62
1, 17785, Note_on_c, 0, 58, 54
1, 17785, Note_on_c, 0, 56, 60
1, 17785, Note_on_c, 0, 61, 56
1, 17789, Note_on_c, 2, 61, 0
1, 17790, Note_on_c, 2, 58, 0
1, 17790, Note_on_c, 0, 61, 0
1, 17791, Note_on_c, 2, 65, 0
1, 17791, Note_on_c, 2, 56, 0
1, 17795, Note_on_c, 0, 58, 0
1, 17796, Note_on_c, 0, 63, 0
1, 17797, Note_on_c, 0, 56, 0
1, 17806, Note_on_c, 2, 65, 93
1, 17806, Note_on_c, 9, 69, 45
1, 17807, Note_on_c, 9, 69, 0
1, 17808, Note_on_c, 2, 61, 31
1, 17808, Note_on_c, 9, 51, 42
1, 17809, Note_on_c, 9, 51, 0
1, 17809, Note_on_c, 2, 58, 48
1, 17817, Note_on_c, 2, 61, 0
1, 17822, Note_on_c, 2, 58, 0
1, 17826, Note_on_c, 2, 65, 0
1, 17826, Note_on_c, 3, 68, 0
1, 17830, Note_on_c, 0, 56, 66
1, 17830, Note_on_c, 0, 61, 64
1, 17830, Note_on_c, 0, 58, 66
1, 17830, Note_on_c, 0, 65, 68
1, 17830, Note_on_c, 2, 65, 77
1, 17830, Note_on_c, 9, 69, 23
1, 17831, Note_on_c, 9, 69, 0
1, 17831, Note_on_c, 1, 37, 79
1, 17831, Note_on_c, 9, 36, 105
1, 17831, Note_on_c, 11, 37, 75
1, 17832, Note_on_c, 9, 36, 0
1, 17832, Note_on_c, 2, 61, 67
1, 17832, Note_on_c, 9, 51, 27
1, 17833, Note_on_c, 9, 51, 0
1, 17833, Note_on_c, 9, 62, 71
1, 17834, Note_on_c, 9, 62, 0
1, 17838, Note_on_c, 2, 65, 0
1, 17840, Note_on_c, 2, 61, 0
1, 17854, Note_on_c, 11, 37, 0
1, 17854, Note_on_c, 1, 37, 0
1, 17854, Note_on_c, 1, 42, 80
1, 17854, Note_on_c, 2, 58, 79
1, 17854, Note_on_c, 2, 61, 77
1, 17854, Note_on_c, 2, 65, 63
1, 17854, Note_on_c, 2, 56, 60
1, 17854, Note_on_c, 11, 42, 76
1, 17855, Note_on_c, 9, 51, 87
1, 17855, Note_on_c, 9, 36, 72
1, 17856, Note_on_c, 9, 36, 0
1, 17856, Note_on_c, 9, 51, 0
1, 17857, Note_on_c, 4, 68, 0
1, 17858, Note_on_c, 9, 62, 74
1, 17859, Note_on_c, 9, 62, 0
1, 17878, Note_on_c, 1, 42, 0
1, 17878, Note_on_c, 11, 42, 0
1, 17879, Note_on_c, 1, 34, 69
1, 17879, Note_on_c, 11, 34, 65
1, 17881, Note_on_c, 9, 44, 45
1, 17882, Note_on_c, 9, 44, 0
1, 17894, Note_on_c, 0, 61, 0
1, 17894, Note_on_c, 0, 58, 0
1, 17894, Note_on_c, 0, 65, 0
1, 17901, Note_on_c, 2, 61, 0
1, 17901, Note_on_c, 2, 56, 0
1, 17901, Note_on_c, 2, 58, 0
1, 17901, Note_on_c, 2, 65, 0
1, 17902, Note_on_c, 1, 34, 0
1, 17902, Note_on_c, 11, 34, 0
1, 17902, Note_on_c, 1, 42, 74
1, 17902, Note_on_c, 2, 65, 81
1, 17902, Note_on_c, 2, 56, 98
1, 17902, Note_on_c, 2, 61, 104
1, 17902, Note_on_c, 2, 58, 95
1, 17902, Note_on_c, 9, 69, 37
1, 17902, Note_on_c, 11, 42, 70
1, 17903, Note_on_c, 9, 69, 0
1, 17903, Note_on_c, 0, 58, 58
1, 17903, Note_on_c, 0, 65, 62
1, 17903, Note_on_c, 0, 61, 61
1, 17903, Note_on_c, 9, 51, 51
1, 17904, Note_on_c, 9, 51, 0
1, 17904, Note_on_c, 9, 36, 107
1, 17905, Note_on_c, 9, 36, 0
1, 17908, Note_on_c, 0, 56, 0
1, 17911, Note_on_c, 2, 56, 0
1, 17913, Note_on_c, 2, 58, 0
1, 17913, Note_on_c, 2, 61, 0
1, 17915, Note_on_c, 2, 65, 0
1, 17926, Note_on_c, 0, 65, 0
1, 17926, Note_on_c, 0, 56, 58
1, 17926, Note_on_c, 2, 58, 65
1, 17926, Note_on_c, 2, 65, 69
1, 17926, Note_on_c, 2, 56, 64
1, 17926, Note_on_c, 2, 61, 68
1, 17926, Note_on_c, 9, 69, 34
1, 17927, Note_on_c, 9, 69, 0
1, 17927, Note_on_c, 0, 61, 0
1, 17927, Note_on_c, 9, 62, 66
1, 17928, Note_on_c, 9, 62, 0
1, 17928, Note_on_c, 0, 58, 0
1, 17928, Note_on_c, 9, 51, 74
1, 17929, Note_on_c, 9, 51, 0
1, 17946, Note_on_c, 8, 78, 88
1, 17950, Note_on_c, 8, 77, 0
1, 17951, Note_on_c, 9, 40, 105
1, 17951, Note_on_c, 9, 75, 82
1, 17951, Note_on_c, 9, 51, 93
1, 17952, Note_on_c, 9, 51, 0
1, 17952, Note_on_c, 9, 75, 0
1, 17952, Note_on_c, 9, 40, 0
1, 17952, Note_on_c, 0, 61, 63
1, 17952, Note_on_c, 0, 65, 70
1, 17953, Note_on_c, 0, 58, 67
1, 17954, Note_on_c, 9, 62, 66
1, 17955, Note_on_c, 9, 62, 0
1, 17961, Note_on_c, 2, 56, 0
1, 17962, Note_on_c, 2, 58, 0
1, 17962, Note_on_c, 2, 65, 0
1, 17962, Note_on_c, 2, 61, 0
1, 17967, Note_on_c, 11, 42, 0
1, 17967, Note_on_c, 1, 42, 0
1, 17969, Note_on_c, 0, 61, 0
1, 17970, Note_on_c, 0, 58, 0
1, 17970, Note_on_c, 0, 65, 0
1, 17971, Note_on_c, 0, 56, 0
1, 17974, Note_on_c, 1, 37, 70
1, 17974, Note_on_c, 2, 61, 72
1, 17974, Note_on_c, 2, 65, 72
1, 17974, Note_on_c, 2, 56, 71
1, 17974, Note_on_c, 2, 58, 64
1, 17974, Note_on_c, 11, 37, 66
1, 17975, Note_on_c, 3, 65, 97
1, 17975, Note_on_c, 9, 44, 50
1, 17976, Note_on_c, 9, 44, 0
1, 17976, Note_on_c, 0, 61, 68
1, 17976, Note_on_c, 0, 58, 57
1, 17976, Note_on_c, 4, 65, 69
1, 17977, Note_on_c, 0, 65, 64
1, 17977, Note_on_c, 9, 62, 55
1, 17978, Note_on_c, 9, 62, 0
1, 17983, Note_on_c, 2, 58, 0
1, 17984, Note_on_c, 2, 56, 0
1, 17984, Note_on_c, 2, 61, 0
1, 17985, Note_on_c, 2, 65, 0
1, 17997, Note_on_c, 9, 69, 45
1, 17998, Note_on_c, 9, 69, 0
1, 17998, Note_on_c, 0, 56, 58
1, 17998, Note_on_c, 2, 61, 58
1, 17998, Note_on_c, 2, 65, 90
1, 17999, Note_on_c, 1, 42, 73
1, 17999, Note_on_c, 3, 68, 105
1, 17999, Note_on_c, 9, 51, 49
1, 17999, Note_on_c, 11, 42, 69
1, 18000, Note_on_c, 9, 51, 0
1, 18000, Note_on_c, 4, 65, 0
1, 18000, Note_on_c, 0, 58, 0
1, 18000, Note_on_c, 4, 68, 69
1, 18002, Note_on_c, 9, 62, 71
1, 18003, Note_on_c, 9, 62, 0
1, 18003, Note_on_c, 3, 65, 0
1, 18006, Note_on_c, 11, 37, 0
1, 18006, Note_on_c, 1, 37, 0
1, 18007, Note_on_c, 0, 61, 0
1, 18008, Note_on_c, 2, 61, 0
1, 18012, Note_on_c, 0, 56, 0
1, 18016, Note_on_c, 2, 65, 0
1, 18021, Note_on_c, 0, 65, 0
1, 18022, Note_on_c, 3, 68, 0
1, 18022, Note_on_c, 2, 61, 61
1, 18022, Note_on_c, 2, 65, 77
1, 18022, Note_on_c, 9, 69, 36
1, 18023, Note_on_c, 9, 69, 0
1, 18023, Note_on_c, 0, 58, 56
1, 18023, Note_on_c, 1, 35, 81
1, 18023, Note_on_c, 9, 51, 57
1, 18023, Note_on_c, 11, 35, 77
1, 18024, Note_on_c, 9, 51, 0
1, 18024, Note_on_c, 4, 68, 0
1, 18024, Note_on_c, 3, 73, 106
1, 18024, Note_on_c, 4, 73, 70
1, 18026, Note_on_c, 1, 42, 0
1, 18026, Note_on_c, 11, 42, 0
1, 18030, Note_on_c, 2, 61, 0
1, 18030, Note_on_c, 2, 65, 0
1, 18034, Note_on_c, 0, 58, 0
1, 18041, Note_on_c, 8, 80, 82
1, 18046, Note_on_c, 8, 78, 0
1, 18046, Note_on_c, 2, 56, 59
1, 18046, Note_on_c, 2, 53, 59
1, 18046, Note_on_c, 2, 60, 75
1, 18046, Note_on_c, 2, 63, 87
1, 18047, Note_on_c, 0, 60, 67
1, 18047, Note_on_c, 0, 63, 68
1, 18047, Note_on_c, 1, 41, 75
1, 18047, Note_on_c, 9, 36, 114
1, 18047, Note_on_c, 9, 51, 76
1, 18047, Note_on_c, 11, 41, 71
1, 18048, Note_on_c, 9, 51, 0
1, 18048, Note_on_c, 9, 36, 0
1, 18048, Note_on_c, 10, 58, 0
1, 18048, Note_on_c, 10, 61, 0
1, 18048, Note_on_c, 10, 63, 61
1, 18048, Note_on_c, 10, 60, 58
1, 18049, Note_on_c, 0, 56, 61
1, 18051, Note_on_c, 1, 35, 0
1, 18051, Note_on_c, 11, 35, 0
1, 18071, Note_on_c, 9, 44, 46
1, 18072, Note_on_c, 9, 44, 0
1, 18078, Note_on_c, 0, 56, 0
1, 18090, Note_on_c, 2, 53, 0
1, 18090, Note_on_c, 2, 56, 0
1, 18090, Note_on_c, 2, 60, 0
1, 18090, Note_on_c, 2, 63, 0
1, 18094, Note_on_c, 2, 63, 112
1, 18094, Note_on_c, 2, 56, 65
1, 18094, Note_on_c, 2, 60, 98
1, 18094, Note_on_c, 2, 53, 67
1, 18094, Note_on_c, 9, 69, 41
1, 18095, Note_on_c, 9, 69, 0
1, 18095, Note_on_c, 0, 56, 52
1, 18095, Note_on_c, 9, 51, 42
1, 18096, Note_on_c, 9, 51, 0
1, 18096, Note_on_c, 0, 60, 0
1, 18098, Note_on_c, 0, 63, 0
1, 18101, Note_on_c, 1, 41, 0
1, 18101, Note_on_c, 11, 41, 0
1, 18103, Note_on_c, 2, 60, 0
1, 18104, Note_on_c, 2, 63, 0
1, 18106, Note_on_c, 0, 56, 0
1, 18106, Note_on_c, 2, 56, 0
1, 18109, Note_on_c, 2, 53, 0
1, 18118, Note_on_c, 9, 69, 30
1, 18119, Note_on_c, 9, 69, 0
1, 18119, Note_on_c, 9, 62, 84
1, 18119, Note_on_c, 9, 51, 43
1, 18120, Note_on_c, 9, 51, 0
1, 18120, Note_on_c, 9, 62, 0
1, 18120, Note_on_c, 2, 63, 63
1, 18120, Note_on_c, 2, 56, 58
1, 18120, Note_on_c, 2, 60, 69
1, 18120, Note_on_c, 2, 53, 64
1, 18121, Note_on_c, 0, 63, 53
1, 18121, Note_on_c, 0, 56, 73
1, 18122, Note_on_c, 0, 60, 56
1, 18136, Note_on_c, 0, 60, 0
1, 18137, Note_on_c, 0, 56, 0
1, 18138, Note_on_c, 0, 63, 0
1, 18143, Note_on_c, 3, 68, 97
1, 18143, Note_on_c, 9, 75, 79
1, 18144, Note_on_c, 9, 75, 0
1, 18144, Note_on_c, 4, 73, 0
1, 18144, Note_on_c, 4, 68, 70
1, 18144, Note_on_c, 9, 51, 83
1, 18144, Note_on_c, 9, 40, 101
1, 18145, Note_on_c, 9, 40, 0
1, 18145, Note_on_c, 9, 51, 0
1, 18145, Note_on_c, 9, 62, 71
1, 18146, Note_on_c, 9, 62, 0
1, 18146, Note_on_c, 3, 73, 0
1, 18154, Note_on_c, 2, 60, 0
1, 18154, Note_on_c, 2, 56, 0
1, 18156, Note_on_c, 2, 63, 0
1, 18156, Note_on_c, 2, 53, 0
1, 18166, Note_on_c, 2, 56, 63
1, 18166, Note_on_c, 2, 63, 66
1, 18166, Note_on_c, 2, 53, 68
1, 18166, Note_on_c, 2, 60, 73
1, 18167, Note_on_c, 1, 41, 80
1, 18167, Note_on_c, 3, 70, 84
1, 18167, Note_on_c, 9, 44, 43
1, 18167, Note_on_c, 11, 41, 76
1, 18168, Note_on_c, 9, 44, 0
1, 18168, Note_on_c, 4, 68, 0
1, 18168, Note_on_c, 0, 63, 56
1, 18168, Note_on_c, 4, 70, 70
1, 18169, Note_on_c, 3, 68, 0
1, 18169, Note_on_c, 0, 60, 61
1, 18173, Note_on_c, 2, 60, 0
1, 18173, Note_on_c, 2, 56, 0
1, 18174, Note_on_c, 2, 53, 0
1, 18175, Note_on_c, 2, 63, 0
1, 18186, Note_on_c, 11, 41, 0
1, 18186, Note_on_c, 0, 60, 0
1, 18186, Note_on_c, 1, 41, 0
1, 18189, Note_on_c, 0, 56, 57
1, 18189, Note_on_c, 9, 69, 45
1, 18190, Note_on_c, 9, 69, 0
1, 18190, Note_on_c, 1, 48, 78
1, 18190, Note_on_c, 2, 56, 58
1, 18190, Note_on_c, 2, 60, 61
1, 18190, Note_on_c, 2, 63, 79
1, 18190, Note_on_c, 11, 48, 74
1, 18192, Note_on_c, 4, 70, 0
1, 18192, Note_on_c, 3, 70, 0
1, 18192, Note_on_c, 3, 65, 91
1, 18192, Note_on_c, 4, 65, 68
1, 18192, Note_on_c, 9, 51, 51
1, 18193, Note_on_c, 9, 51, 0
1, 18202, Note_on_c, 2, 60, 0
1, 18208, Note_on_c, 0, 63, 0
1, 18208, Note_on_c, 2, 63, 0
1, 18213, Note_on_c, 2, 63, 83
1, 18214, Note_on_c, 2, 56, 0
1, 18214, Note_on_c, 0, 60, 55
1, 18214, Note_on_c, 2, 60, 62
1, 18214, Note_on_c, 9, 62, 63
1, 18214, Note_on_c, 9, 69, 30
1, 18215, Note_on_c, 9, 69, 0
1, 18215, Note_on_c, 9, 62, 0
1, 18215, Note_on_c, 1, 47, 79
1, 18215, Note_on_c, 9, 51, 49
1, 18215, Note_on_c, 11, 47, 75
1, 18216, Note_on_c, 9, 51, 0
1, 18216, Note_on_c, 4, 65, 0
1, 18216, Note_on_c, 4, 68, 68
1, 18217, Note_on_c, 3, 68, 97
1, 18217, Note_on_c, 9, 36, 113
1, 18218, Note_on_c, 9, 36, 0
1, 18218, Note_on_c, 3, 65, 0
1, 18221, Note_on_c, 2, 63, 0
1, 18222, Note_on_c, 0, 56, 0
1, 18222, Note_on_c, 11, 48, 0
1, 18222, Note_on_c, 1, 48, 0
1, 18222, Note_on_c, 2, 60, 0
1, 18226, Note_on_c, 0, 60, 0
1, 18237, Note_on_c, 2, 62, 75
1, 18237, Note_on_c, 2, 56, 58
1, 18238, Note_on_c, 0, 60, 71
1, 18238, Note_on_c, 0, 62, 79
1, 18238, Note_on_c, 0, 56, 59
1, 18238, Note_on_c, 2, 53, 62
1, 18238, Note_on_c, 2, 58, 83
1, 18239, Note_on_c, 9, 36, 61
1, 18240, Note_on_c, 9, 36, 0
1, 18240, Note_on_c, 10, 63, 0
1, 18240, Note_on_c, 4, 68, 0
1, 18240, Note_on_c, 1, 46, 72
1, 18240, Note_on_c, 4, 64, 68
1, 18240, Note_on_c, 10, 62, 67
1, 18240, Note_on_c, 11, 46, 68
1, 18241, Note_on_c, 3, 64, 91
1, 18241, Note_on_c, 9, 62, 74
1, 18241, Note_on_c, 9, 51, 78
1, 18242, Note_on_c, 9, 51, 0
1, 18242, Note_on_c, 9, 62, 0
1, 18242, Note_on_c, 11, 47, 0
1, 18242, Note_on_c, 1, 47, 0
1, 18245, Note_on_c, 3, 68, 0
1, 18262, Note_on_c, 3, 64, 0
1, 18263, Note_on_c, 3, 65, 87
1, 18263, Note_on_c, 9, 44, 47
1, 18264, Note_on_c, 9, 44, 0
1, 18264, Note_on_c, 4, 64, 0
1, 18264, Note_on_c, 0, 56, 0
1, 18264, Note_on_c, 4, 65, 67
1, 18278, Note_on_c, 2, 58, 0
1, 18278, Note_on_c, 2, 62, 0
1, 18278, Note_on_c, 2, 53, 0
1, 18278, Note_on_c, 2, 56, 0
1, 18281, Note_on_c, 0, 60, 0
1, 18286, Note_on_c, 0, 56, 64
1, 18286, Note_on_c, 2, 53, 68
1, 18286, Note_on_c, 2, 58, 111
1, 18286, Note_on_c, 2, 56, 63
1, 18286, Note_on_c, 2, 62, 98
1, 18287, Note_on_c, 0, 60, 65
1, 18287, Note_on_c, 9, 51, 62
1, 18287, Note_on_c, 9, 62, 87
1, 18287, Note_on_c, 9, 69, 41
1, 18288, Note_on_c, 9, 69, 0
1, 18288, Note_on_c, 9, 62, 0
1, 18288, Note_on_c, 9, 51, 0
1, 18288, Note_on_c, 9, 36, 114
1, 18289, Note_on_c, 9, 36, 0
1, 18294, Note_on_c, 2, 58, 0
1, 18297, Note_on_c, 2, 62, 0
1, 18301, Note_on_c, 2, 56, 0
1, 18304, Note_on_c, 2, 53, 0
1, 18310, Note_on_c, 2, 62, 81
1, 18310, Note_on_c, 2, 53, 64
1, 18310, Note_on_c, 2, 56, 62
1, 18310, Note_on_c, 2, 58, 72
1, 18311, Note_on_c, 9, 69, 30
1, 18311, Note_on_c, 9, 51, 42
1, 18312, Note_on_c, 9, 51, 0
1, 18312, Note_on_c, 9, 69, 0
1, 18314, Note_on_c, 0, 56, 0
1, 18334, Note_on_c, 0, 56, 67
1, 18335, Note_on_c, 9, 51, 81
1, 18335, Note_on_c, 9, 62, 80
1, 18335, Note_on_c, 9, 75, 83
1, 18335, Note_on_c, 9, 40, 107
1, 18336, Note_on_c, 9, 40, 0
1, 18336, Note_on_c, 9, 75, 0
1, 18336, Note_on_c, 9, 51, 0
1, 18336, Note_on_c, 9, 62, 0
1, 18341, Note_on_c, 0, 60, 0
1, 18344, Note_on_c, 0, 62, 0
1, 18345, Note_on_c, 2, 56, 0
1, 18346, Note_on_c, 2, 62, 0
1, 18346, Note_on_c, 2, 53, 0
1, 18349, Note_on_c, 2, 58, 0
1, 18354, Note_on_c, 0, 56, 0
1, 18355, Note_on_c, 11, 46, 0
1, 18355, Note_on_c, 1, 46, 0
1, 18358, Note_on_c, 2, 53, 79
1, 18358, Note_on_c, 2, 58, 64
1, 18358, Note_on_c, 2, 62, 75
1, 18359, Note_on_c, 1, 34, 79
1, 18359, Note_on_c, 9, 44, 45
1, 18359, Note_on_c, 11, 34, 75
1, 18360, Note_on_c, 9, 44, 0
1, 18360, Note_on_c, 2, 56, 70
1, 18361, Note_on_c, 0, 60, 62
1, 18361, Note_on_c, 0, 62, 70
1, 18366, Note_on_c, 2, 58, 0
1, 18366, Note_on_c, 2, 62, 0
1, 18368, Note_on_c, 2, 56, 0
1, 18369, Note_on_c, 2, 53, 0
1, 18380, Note_on_c, 0, 56, 68
1, 18380, Note_on_c, 2, 58, 58
1, 18380, Note_on_c, 2, 62, 86
1, 18381, Note_on_c, 2, 56, 51
1, 18382, Note_on_c, 0, 60, 0
1, 18383, Note_on_c, 1, 41, 80
1, 18383, Note_on_c, 9, 69, 43
1, 18383, Note_on_c, 11, 41, 76
1, 18384, Note_on_c, 9, 69, 0
1, 18384, Note_on_c, 1, 34, 0
1, 18384, Note_on_c, 11, 34, 0
1, 18385, Note_on_c, 9, 51, 76
1, 18386, Note_on_c, 9, 51, 0
1, 18390, Note_on_c, 0, 56, 0
1, 18396, Note_on_c, 3, 65, 0
1, 18397, Note_on_c, 2, 58, 0
1, 18400, Note_on_c, 2, 62, 0
1, 18405, Note_on_c, 2, 56, 0
1, 18405, Note_on_c, 2, 62, 81
1, 18406, Note_on_c, 2, 58, 72
1, 18407, Note_on_c, 0, 62, 0
1, 18407, Note_on_c, 9, 51, 48
1, 18408, Note_on_c, 9, 51, 0
1, 18408, Note_on_c, 1, 34, 72
1, 18408, Note_on_c, 11, 34, 68
1, 18409, Note_on_c, 11, 41, 0
1, 18409, Note_on_c, 1, 41, 0
1, 18410, Note_on_c, 0, 60, 59
1, 18410, Note_on_c, 9, 69, 28
1, 18411, Note_on_c, 9, 69, 0
1, 18411, Note_on_c, 2, 62, 0
1, 18412, Note_on_c, 2, 58, 0
1, 18425, Note_on_c, 0, 60, 0
1, 18430, Note_on_c, 2, 54, 60
1, 18430, Note_on_c, 2, 61, 69
1, 18430, Note_on_c, 2, 58, 81
1, 18431, Note_on_c, 8, 85, 86
1, 18432, Note_on_c, 10, 60, 0
1, 18432, Note_on_c, 10, 53, 0
1, 18432, Note_on_c, 10, 62, 0
1, 18432, Note_on_c, 10, 56, 0
1, 18432, Note_on_c, 4, 65, 0
1, 18432, Note_on_c, 1, 39, 94
1, 18432, Note_on_c, 9, 51, 91
1, 18432, Note_on_c, 9, 36, 110
1, 18432, Note_on_c, 10, 58, 60
1, 18432, Note_on_c, 10, 61, 63
1, 18432, Note_on_c, 10, 54, 54
1, 18432, Note_on_c, 11, 39, 90
1, 18433, Note_on_c, 9, 36, 0
1, 18433, Note_on_c, 9, 51, 0
1, 18433, Note_on_c, 0, 61, 67
1, 18434, Note_on_c, 1, 34, 0
1, 18434, Note_on_c, 11, 34, 0
1, 18434, Note_on_c, 0, 58, 68
1, 18434, Note_on_c, 0, 54, 60
1, 18436, Note_on_c, 8, 80, 0
1, 18450, Note_on_c, 2, 61, 0
1, 18452, Note_on_c, 2, 61, 50
1, 18455, Note_on_c, 9, 44, 44
1, 18456, Note_on_c, 9, 44, 0
1, 18472, Note_on_c, 0, 58, 0
1, 18475, Note_on_c, 0, 61, 0
1, 18477, Note_on_c, 2, 58, 0
1, 18477, Note_on_c, 2, 61, 0
1, 18477, Note_on_c, 2, 54, 0
1, 18478, Note_on_c, 2, 61, 111
1, 18478, Note_on_c, 2, 54, 64
1, 18478, Note_on_c, 9, 69, 33
1, 18479, Note_on_c, 9, 69, 0
1, 18479, Note_on_c, 0, 54, 0
1, 18479, Note_on_c, 9, 51, 40
1, 18480, Note_on_c, 9, 51, 0
1, 18480, Note_on_c, 2, 58, 85
1, 18489, Note_on_c, 11, 39, 0
1, 18489, Note_on_c, 1, 39, 0
1, 18496, Note_on_c, 2, 61, 0
1, 18497, Note_on_c, 2, 58, 0
1, 18498, Note_on_c, 2, 54, 0
1, 18502, Note_on_c, 9, 69, 21
1, 18503, Note_on_c, 9, 69, 0
1, 18503, Note_on_c, 9, 51, 44
1, 18504, Note_on_c, 9, 51, 0
1, 18504, Note_on_c, 2, 58, 73
1, 18504, Note_on_c, 2, 54, 64
1, 18505, Note_on_c, 2, 61, 67
1, 18505, Note_on_c, 9, 62, 69
1, 18506, Note_on_c, 9, 62, 0
1, 18507, Note_on_c, 0, 61, 62
1, 18507, Note_on_c, 0, 63, 55
1, 18507, Note_on_c, 0, 58, 59
1, 18508, Note_on_c, 0, 54, 54
1, 18520, Note_on_c, 0, 58, 0
1, 18522, Note_on_c, 0, 63, 0
1, 18523, Note_on_c, 0, 54, 0
1, 18526, Note_on_c, 0, 61, 0
1, 18527, Note_on_c, 9, 75, 79
1, 18527, Note_on_c, 9, 40, 101
1, 18527, Note_on_c, 9, 51, 76
1, 18528, Note_on_c, 9, 51, 0
1, 18528, Note_on_c, 9, 40, 0
1, 18528, Note_on_c, 9, 75, 0
1, 18530, Note_on_c, 9, 62, 66
1, 18531, Note_on_c, 9, 62, 0
1, 18542, Note_on_c, 2, 58, 0
1, 18544, Note_on_c, 2, 54, 0
1, 18545, Note_on_c, 2, 61, 0
1, 18551, Note_on_c, 9, 44, 40
1, 18552, Note_on_c, 9, 44, 0
1, 18552, Note_on_c, 2, 61, 81
1, 18552, Note_on_c, 2, 58, 71
1, 18553, Note_on_c, 2, 54, 67
1, 18554, Note_on_c, 0, 63, 56
1, 18554, Note_on_c, 0, 61, 57
1, 18554, Note_on_c, 0, 54, 61
1, 18554, Note_on_c, 0, 73, 75
1, 18555, Note_on_c, 0, 58, 53
1, 18558, Note_on_c, 2, 54, 0
1, 18558, Note_on_c, 2, 61, 0
1, 18560, Note_on_c, 2, 58, 0
1, 18567, Note_on_c, 0, 58, 0
1, 18572, Note_on_c, 0, 73, 0
1, 18573, Note_on_c, 2, 61, 90
1, 18574, Note_on_c, 2, 54, 53
1, 18574, Note_on_c, 2, 58, 58
1, 18575, Note_on_c, 0, 70, 54
1, 18575, Note_on_c, 9, 51, 42
1, 18575, Note_on_c, 9, 69, 33
1, 18576, Note_on_c, 9, 69, 0
1, 18576, Note_on_c, 9, 51, 0
1, 18582, Note_on_c, 0, 54, 0
1, 18584, Note_on_c, 2, 58, 0
1, 18584, Note_on_c, 0, 61, 0
1, 18585, Note_on_c, 0, 63, 0
1, 18594, Note_on_c, 2, 61, 0
1, 18598, Note_on_c, 2, 54, 0
1, 18598, Note_on_c, 0, 70, 0
1, 18598, Note_on_c, 2, 61, 86
1, 18598, Note_on_c, 2, 58, 69
1, 18599, Note_on_c, 1, 34, 70
1, 18599, Note_on_c, 9, 69, 25
1, 18599, Note_on_c, 9, 51, 40
1, 18599, Note_on_c, 9, 62, 62
1, 18599, Note_on_c, 11, 34, 66
1, 18600, Note_on_c, 9, 62, 0
1, 18600, Note_on_c, 9, 51, 0
1, 18600, Note_on_c, 9, 69, 0
1, 18600, Note_on_c, 9, 36, 104
1, 18601, Note_on_c, 9, 36, 0
1, 18601, Note_on_c, 0, 68, 43
1, 18606, Note_on_c, 2, 58, 0
1, 18606, Note_on_c, 2, 61, 0
1, 18612, Note_on_c, 0, 68, 0
1, 18622, Note_on_c, 0, 54, 60
1, 18622, Note_on_c, 0, 73, 75
1, 18622, Note_on_c, 0, 63, 57
1, 18622, Note_on_c, 0, 61, 67
1, 18622, Note_on_c, 1, 39, 80
1, 18622, Note_on_c, 2, 54, 58
1, 18622, Note_on_c, 2, 58, 93
1, 18622, Note_on_c, 2, 61, 98
1, 18622, Note_on_c, 11, 39, 76
1, 18623, Note_on_c, 0, 58, 61
1, 18623, Note_on_c, 9, 36, 68
1, 18623, Note_on_c, 9, 51, 87
1, 18624, Note_on_c, 9, 51, 0
1, 18624, Note_on_c, 9, 36, 0
1, 18624, Note_on_c, 11, 34, 0
1, 18624, Note_on_c, 1, 34, 0
1, 18625, Note_on_c, 9, 62, 62
1, 18626, Note_on_c, 9, 62, 0
1, 18646, Note_on_c, 1, 39, 0
1, 18646, Note_on_c, 11, 39, 0
1, 18646, Note_on_c, 1, 34, 72
1, 18646, Note_on_c, 11, 34, 68
1, 18648, Note_on_c, 9, 44, 46
1, 18649, Note_on_c, 9, 44, 0
1, 18657, Note_on_c, 0, 61, 0
1, 18658, Note_on_c, 0, 58, 0
1, 18669, Note_on_c, 2, 61, 0
1, 18669, Note_on_c, 2, 54, 0
1, 18669, Note_on_c, 2, 58, 0
1, 18670, Note_on_c, 0, 61, 52
1, 18670, Note_on_c, 0, 70, 61
1, 18670, Note_on_c, 2, 61, 111
1, 18670, Note_on_c, 2, 58, 108
1, 18670, Note_on_c, 2, 54, 69
1, 18670, Note_on_c, 9, 69, 35
1, 18671, Note_on_c, 9, 69, 0
1, 18671, Note_on_c, 1, 39, 90
1, 18671, Note_on_c, 9, 36, 97
1, 18671, Note_on_c, 9, 51, 43
1, 18671, Note_on_c, 11, 39, 86
1, 18672, Note_on_c, 9, 51, 0
1, 18672, Note_on_c, 9, 36, 0
1, 18673, Note_on_c, 11, 34, 0
1, 18673, Note_on_c, 1, 34, 0
1, 18674, Note_on_c, 0, 73, 0
1, 18676, Note_on_c, 0, 54, 0
1, 18678, Note_on_c, 2, 58, 0
1, 18678, Note_on_c, 2, 61, 0
1, 18682, Note_on_c, 2, 54, 0
1, 18684, Note_on_c, 0, 63, 0
1, 18691, Note_on_c, 0, 70, 0
1, 18694, Note_on_c, 2, 58, 67
1, 18694, Note_on_c, 2, 61, 74
1, 18694, Note_on_c, 2, 54, 67
1, 18694, Note_on_c, 9, 69, 29
1, 18694, Note_on_c, 9, 62, 69
1, 18695, Note_on_c, 9, 62, 0
1, 18695, Note_on_c, 9, 69, 0
1, 18695, Note_on_c, 9, 51, 54
1, 18696, Note_on_c, 9, 51, 0
1, 18704, Note_on_c, 11, 39, 0
1, 18704, Note_on_c, 1, 39, 0
1, 18708, Note_on_c, 0, 61, 0
1, 18719, Note_on_c, 0, 73, 87
1, 18719, Note_on_c, 9, 51, 73
1, 18719, Note_on_c, 9, 40, 104
1, 18719, Note_on_c, 9, 62, 55
1, 18720, Note_on_c, 9, 62, 0
1, 18720, Note_on_c, 9, 40, 0
1, 18720, Note_on_c, 9, 51, 0
1, 18720, Note_on_c, 0, 54, 54
1, 18720, Note_on_c, 9, 75, 79
1, 18721, Note_on_c, 9, 75, 0
1, 18721, Note_on_c, 0, 61, 57
1, 18722, Note_on_c, 0, 63, 49
1, 18730, Note_on_c, 2, 54, 0
1, 18730, Note_on_c, 0, 73, 0
1, 18731, Note_on_c, 2, 58, 0
1, 18734, Note_on_c, 2, 61, 0
1, 18742, Note_on_c, 0, 73, 69
1, 18742, Note_on_c, 2, 58, 68
1, 18742, Note_on_c, 2, 61, 74
1, 18742, Note_on_c, 2, 54, 65
1, 18742, Note_on_c, 9, 62, 52
1, 18743, Note_on_c, 9, 62, 0
1, 18743, Note_on_c, 9, 44, 43
1, 18744, Note_on_c, 9, 44, 0
1, 18744, Note_on_c, 0, 58, 55
1, 18745, Note_on_c, 1, 29, 78
1, 18745, Note_on_c, 11, 29, 74
1, 18750, Note_on_c, 2, 61, 0
1, 18750, Note_on_c, 2, 54, 0
1, 18751, Note_on_c, 2, 58, 0
1, 18765, Note_on_c, 2, 58, 60
1, 18765, Note_on_c, 2, 61, 87
1, 18766, Note_on_c, 1, 29, 0
1, 18766, Note_on_c, 11, 29, 0
1, 18766, Note_on_c, 9, 69, 36
1, 18766, Note_on_c, 9, 62, 69
1, 18767, Note_on_c, 9, 62, 0
1, 18767, Note_on_c, 9, 69, 0
1, 18767, Note_on_c, 1, 30, 79
1, 18767, Note_on_c, 9, 51, 54
1, 18767, Note_on_c, 11, 30, 75
1, 18768, Note_on_c, 9, 51, 0
1, 18770, Note_on_c, 0, 70, 4
1, 18775, Note_on_c, 2, 58, 0
1, 18780, Note_on_c, 0, 70, 0
1, 18782, Note_on_c, 0, 58, 0
1, 18783, Note_on_c, 0, 73, 0
1, 18784, Note_on_c, 0, 54, 0
1, 18784, Note_on_c, 0, 61, 0
1, 18785, Note_on_c, 2, 61, 0
1, 18789, Note_on_c, 0, 63, 0
1, 18790, Note_on_c, 2, 61, 87
1, 18790, Note_on_c, 2, 58, 77
1, 18790, Note_on_c, 9, 69, 23
1, 18791, Note_on_c, 9, 69, 0
1, 18791, Note_on_c, 1, 29, 69
1, 18791, Note_on_c, 9, 51, 42
1, 18791, Note_on_c, 11, 29, 65
1, 18792, Note_on_c, 9, 51, 0
1, 18794, Note_on_c, 11, 30, 0
1, 18794, Note_on_c, 1, 30, 0
1, 18798, Note_on_c, 2, 58, 0
1, 18798, Note_on_c, 2, 61, 0
1, 18814, Note_on_c, 1, 29, 0
1, 18814, Note_on_c, 11, 29, 0
1, 18814, Note_on_c, 0, 73, 64
1, 18814, Note_on_c, 2, 61, 98
1, 18814, Note_on_c, 2, 54, 67
1, 18814, Note_on_c, 2, 58, 83
1, 18815, Note_on_c, 0, 54, 58
1, 18815, Note_on_c, 0, 63, 61
1, 18815, Note_on_c, 0, 61, 59
1, 18815, Note_on_c, 1, 32, 88
1, 18815, Note_on_c, 9, 51, 83
1, 18815, Note_on_c, 11, 32, 84
1, 18816, Note_on_c, 9, 51, 0
1, 18816, Note_on_c, 9, 36, 114
1, 18816, Note_on_c, 10, 68, 47
1, 18817, Note_on_c, 9, 36, 0
1, 18817, Note_on_c, 0, 58, 54
1, 18839, Note_on_c, 9, 44, 49
1, 18840, Note_on_c, 9, 44, 0
1, 18843, Note_on_c, 0, 61, 0
1, 18852, Note_on_c, 0, 58, 0
1, 18855, Note_on_c, 0, 54, 0
1, 18856, Note_on_c, 0, 63, 0
1, 18858, Note_on_c, 2, 54, 0
1, 18858, Note_on_c, 2, 58, 0
1, 18858, Note_on_c, 0, 73, 0
1, 18858, Note_on_c, 2, 61, 0
1, 18862, Note_on_c, 2, 54, 86
1, 18862, Note_on_c, 2, 61, 111
1, 18862, Note_on_c, 2, 58, 108
1, 18862, Note_on_c, 9, 69, 33
1, 18863, Note_on_c, 9, 69, 0
1, 18863, Note_on_c, 0, 61, 54
1, 18863, Note_on_c, 9, 51, 42
1, 18864, Note_on_c, 9, 51, 0
1, 18869, Note_on_c, 2, 61, 0
1, 18870, Note_on_c, 2, 54, 0
1, 18870, Note_on_c, 2, 58, 0
1, 18872, Note_on_c, 0, 61, 0
1, 18886, Note_on_c, 2, 54, 66
1, 18886, Note_on_c, 2, 61, 74
1, 18886, Note_on_c, 2, 58, 71
1, 18887, Note_on_c, 9, 62, 71
1, 18887, Note_on_c, 9, 51, 41
1, 18887, Note_on_c, 9, 69, 27
1, 18888, Note_on_c, 9, 69, 0
1, 18888, Note_on_c, 9, 51, 0
1, 18888, Note_on_c, 9, 62, 0
1, 18889, Note_on_c, 0, 58, 57
1, 18889, Note_on_c, 0, 63, 54
1, 18890, Note_on_c, 0, 73, 69
1, 18890, Note_on_c, 0, 54, 53
1, 18898, Note_on_c, 0, 58, 0
1, 18900, Note_on_c, 0, 73, 0
1, 18902, Note_on_c, 0, 63, 0
1, 18902, Note_on_c, 0, 54, 0
1, 18911, Note_on_c, 9, 75, 76
1, 18911, Note_on_c, 9, 40, 107
1, 18912, Note_on_c, 9, 40, 0
1, 18912, Note_on_c, 9, 75, 0
1, 18912, Note_on_c, 9, 51, 87
1, 18913, Note_on_c, 9, 51, 0
1, 18913, Note_on_c, 9, 62, 74
1, 18914, Note_on_c, 9, 62, 0
1, 18922, Note_on_c, 1, 32, 0
1, 18922, Note_on_c, 11, 32, 0
1, 18923, Note_on_c, 2, 54, 0
1, 18923, Note_on_c, 2, 58, 0
1, 18924, Note_on_c, 2, 61, 0
1, 18934, Note_on_c, 0, 54, 54
1, 18934, Note_on_c, 2, 54, 67
1, 18935, Note_on_c, 0, 63, 58
1, 18935, Note_on_c, 0, 73, 71
1, 18935, Note_on_c, 0, 58, 54
1, 18936, Note_on_c, 2, 61, 74
1, 18936, Note_on_c, 2, 58, 77
1, 18937, Note_on_c, 9, 44, 57
1, 18938, Note_on_c, 9, 44, 0
1, 18942, Note_on_c, 2, 58, 0
1, 18942, Note_on_c, 2, 54, 0
1, 18944, Note_on_c, 2, 61, 0
1, 18958, Note_on_c, 2, 54, 59
1, 18958, Note_on_c, 2, 58, 54
1, 18958, Note_on_c, 2, 61, 79
1, 18959, Note_on_c, 0, 73, 0
1, 18959, Note_on_c, 0, 70, 53
1, 18959, Note_on_c, 9, 69, 35
1, 18959, Note_on_c, 9, 51, 44
1, 18960, Note_on_c, 9, 51, 0
1, 18960, Note_on_c, 9, 69, 0
1, 18965, Note_on_c, 0, 58, 0
1, 18972, Note_on_c, 2, 58, 0
1, 18975, Note_on_c, 2, 61, 0
1, 18976, Note_on_c, 0, 54, 0
1, 18978, Note_on_c, 0, 63, 0
1, 18981, Note_on_c, 0, 70, 0
1, 18981, Note_on_c, 2, 54, 0
1, 18981, Note_on_c, 2, 61, 62
1, 18982, Note_on_c, 0, 68, 41
1, 18982, Note_on_c, 2, 58, 64
1, 18982, Note_on_c, 9, 69, 25
1, 18983, Note_on_c, 9, 69, 0
1, 18983, Note_on_c, 9, 62, 80
1, 18983, Note_on_c, 9, 51, 46
1, 18983, Note_on_c, 9, 36, 105
1, 18984, Note_on_c, 9, 36, 0
1, 18984, Note_on_c, 9, 51, 0
1, 18984, Note_on_c, 9, 62, 0
1, 18985, Note_on_c, 1, 39, 84
1, 18985, Note_on_c, 11, 39, 80
1, 18988, Note_on_c, 2, 58, 0
1, 18989, Note_on_c, 2, 61, 0
1, 19002, Note_on_c, 0, 68, 0
1, 19005, Note_on_c, 2, 54, 62
1, 19006, Note_on_c, 0, 61, 61
1, 19006, Note_on_c, 0, 54, 40
1, 19006, Note_on_c, 0, 63, 48
1, 19006, Note_on_c, 2, 61, 75
1, 19006, Note_on_c, 2, 58, 79
1, 19006, Note_on_c, 9, 36, 67
1, 19007, Note_on_c, 9, 36, 0
1, 19007, Note_on_c, 11, 39, 0
1, 19007, Note_on_c, 1, 39, 0
1, 19007, Note_on_c, 0, 58, 52
1, 19007, Note_on_c, 0, 70, 65
1, 19007, Note_on_c, 1, 44, 75
1, 19007, Note_on_c, 9, 62, 55
1, 19007, Note_on_c, 11, 44, 71
1, 19008, Note_on_c, 9, 62, 0
1, 19008, Note_on_c, 9, 51, 70
1, 19009, Note_on_c, 9, 51, 0
1, 19031, Note_on_c, 9, 44, 52
1, 19032, Note_on_c, 9, 44, 0
1, 19032, Note_on_c, 1, 32, 73
1, 19032, Note_on_c, 11, 32, 69
1, 19033, Note_on_c, 11, 44, 0
1, 19033, Note_on_c, 1, 44, 0
1, 19034, Note_on_c, 0, 61, 0
1, 19052, Note_on_c, 2, 58, 0
1, 19052, Note_on_c, 2, 61, 0
1, 19053, Note_on_c, 2, 54, 0
1, 19053, Note_on_c, 0, 58, 0
1, 19053, Note_on_c, 0, 61, 53
1, 19054, Note_on_c, 2, 61, 111
1, 19054, Note_on_c, 2, 58, 108
1, 19054, Note_on_c, 2, 54, 85
1, 19054, Note_on_c, 9, 69, 45
1, 19055, Note_on_c, 9, 69, 0
1, 19055, Note_on_c, 1, 44, 88
1, 19055, Note_on_c, 9, 36, 107
1, 19055, Note_on_c, 9, 62, 76
1, 19055, Note_on_c, 9, 51, 46
1, 19055, Note_on_c, 11, 44, 84
1, 19056, Note_on_c, 9, 51, 0
1, 19056, Note_on_c, 9, 62, 0
1, 19056, Note_on_c, 9, 36, 0
1, 19058, Note_on_c, 1, 32, 0
1, 19058, Note_on_c, 11, 32, 0
1, 19059, Note_on_c, 2, 61, 0
1, 19062, Note_on_c, 0, 63, 0
1, 19062, Note_on_c, 2, 58, 0
1, 19066, Note_on_c, 0, 54, 0
1, 19066, Note_on_c, 2, 54, 0
1, 19078, Note_on_c, 2, 58, 69
1, 19078, Note_on_c, 2, 54, 64
1, 19078, Note_on_c, 9, 69, 26
1, 19079, Note_on_c, 9, 69, 0
1, 19079, Note_on_c, 9, 51, 37
1, 19080, Note_on_c, 9, 51, 0
1, 19080, Note_on_c, 2, 61, 69
1, 19095, Note_on_c, 0, 61, 0
1, 19101, Note_on_c, 0, 70, 0
1, 19101, Note_on_c, 0, 61, 52
1, 19102, Note_on_c, 0, 73, 87
1, 19102, Note_on_c, 0, 54, 59
1, 19102, Note_on_c, 0, 63, 53
1, 19103, Note_on_c, 9, 51, 91
1, 19103, Note_on_c, 9, 40, 110
1, 19103, Note_on_c, 9, 75, 82
1, 19104, Note_on_c, 9, 75, 0
1, 19104, Note_on_c, 9, 40, 0
1, 19104, Note_on_c, 9, 51, 0
1, 19104, Note_on_c, 0, 58, 60
1, 19105, Note_on_c, 9, 62, 84
1, 19106, Note_on_c, 9, 62, 0
1, 19106, Note_on_c, 11, 44, 0
1, 19106, Note_on_c, 1, 44, 0
1, 19175, Note_on_c, 1, 51, 74
1, 19175, Note_on_c, 11, 51, 70
1, 19186, Note_on_c, 2, 58, 0
1, 19186, Note_on_c, 2, 54, 0
1, 19193, Note_on_c, 2, 61, 0
1, 19195, Note_on_c, 0, 58, 0
1, 19196, Note_on_c, 8, 92, 71
1, 19196, Note_on_c, 8, 80, 71
1, 19198, Note_on_c, 0, 73, 0
1, 19198, Note_on_c, 0, 61, 0
1, 19198, Note_on_c, 0, 54, 0
1, 19198, Note_on_c, 0, 63, 0
1, 19200, Note_on_c, 10, 58, 0
1, 19200, Note_on_c, 10, 61, 0
1, 19200, Note_on_c, 10, 54, 0
1, 19200, Note_on_c, 1, 49, 86
1, 19200, Note_on_c, 2, 63, 70
1, 19200, Note_on_c, 9, 36, 74
1, 19200, Note_on_c, 11, 49, 82
1, 19201, Note_on_c, 9, 36, 0
1, 19202, Note_on_c, 8, 85, 0
1, 19203, Note_on_c, 1, 51, 0
1, 19203, Note_on_c, 11, 51, 0
1, 19246, Note_on_c, 0, 73, 55
1, 19270, Note_on_c, 0, 77, 65
1, 19272, Note_on_c, 1, 37, 86
1, 19272, Note_on_c, 11, 37, 82
1, 19273, Note_on_c, 9, 51, 51
1, 19274, Note_on_c, 9, 51, 0
1, 19320, Note_on_c, 0, 72, 55
1, 19365, Note_on_c, 0, 77, 0
1, 19366, Note_on_c, 0, 77, 58
1, 19369, Note_on_c, 9, 36, 86
1, 19370, Note_on_c, 9, 36, 0
1, 19393, Note_on_c, 9, 36, 78
1, 19394, Note_on_c, 9, 36, 0
1, 19413, Note_on_c, 0, 73, 0
1, 19414, Note_on_c, 0, 73, 54
1, 19415, Note_on_c, 9, 51, 49
1, 19416, Note_on_c, 9, 51, 0
1, 19432, Note_on_c, 2, 63, 0
1, 19436, Note_on_c, 0, 77, 0
1, 19438, Note_on_c, 0, 77, 66
1, 19484, Note_on_c, 0, 72, 0
1, 19484, Note_on_c, 2, 63, 63
1, 19486, Note_on_c, 0, 72, 54
1, 19487, Note_on_c, 9, 51, 48
1, 19488, Note_on_c, 9, 51, 0
1, 19496, Note_on_c, 2, 63, 0
1, 19498, Note_on_c, 2, 65, 67
1, 19505, Note_on_c, 2, 63, 68
1, 19506, Note_on_c, 2, 65, 0
1, 19508, Note_on_c, 0, 77, 0
1, 19510, Note_on_c, 0, 77, 63
1, 19530, Note_on_c, 0, 73, 0
1, 19534, Note_on_c, 0, 73, 55
1, 19535, Note_on_c, 1, 51, 86
1, 19535, Note_on_c, 9, 51, 42
1, 19535, Note_on_c, 11, 51, 82
1, 19536, Note_on_c, 9, 51, 0
1, 19537, Note_on_c, 11, 49, 0
1, 19537, Note_on_c, 1, 37, 0
1, 19537, Note_on_c, 11, 37, 0
1, 19537, Note_on_c, 1, 49, 0
1, 19559, Note_on_c, 9, 36, 88
1, 19560, Note_on_c, 9, 36, 0
1, 19560, Note_on_c, 1, 44, 84
1, 19560, Note_on_c, 11, 44, 80
1, 19565, Note_on_c, 11, 51, 0
1, 19565, Note_on_c, 1, 51, 0
1, 19574, Note_on_c, 0, 72, 0
1, 19576, Note_on_c, 2, 53, 52
1, 19577, Note_on_c, 0, 73, 0
1, 19578, Note_on_c, 0, 77, 0
1, 19579, Note_on_c, 2, 63, 0
1, 19583, Note_on_c, 9, 51, 50
1, 19583, Note_on_c, 9, 36, 79
1, 19584, Note_on_c, 9, 36, 0
1, 19584, Note_on_c, 9, 51, 0
1, 19584, Note_on_c, 1, 44, 0
1, 19584, Note_on_c, 11, 44, 0
1, 19584, Note_on_c, 10, 68, 0
1, 19584, Note_on_c, 0, 68, 68
1, 19584, Note_on_c, 0, 78, 68
1, 19584, Note_on_c, 0, 59, 68
1, 19584, Note_on_c, 0, 66, 68
1, 19584, Note_on_c, 2, 56, 59
1, 19585, Note_on_c, 0, 63, 68
1, 19585, Note_on_c, 1, 49, 85
1, 19585, Note_on_c, 11, 49, 81
1, 19590, Note_on_c, 2, 59, 60
1, 19596, Note_on_c, 2, 63, 67
1, 19632, Note_on_c, 0, 73, 53
1, 19654, Note_on_c, 0, 78, 0
1, 19655, Note_on_c, 9, 51, 50
1, 19656, Note_on_c, 9, 51, 0
1, 19656, Note_on_c, 0, 78, 61
1, 19656, Note_on_c, 1, 37, 70
1, 19656, Note_on_c, 11, 37, 66
1, 19704, Note_on_c, 0, 71, 57
1, 19749, Note_on_c, 0, 78, 0
1, 19750, Note_on_c, 0, 78, 68
1, 19751, Note_on_c, 9, 36, 83
1, 19752, Note_on_c, 9, 36, 0
1, 19775, Note_on_c, 9, 36, 79
1, 19776, Note_on_c, 9, 36, 0
1, 19798, Note_on_c, 0, 73, 0
1, 19799, Note_on_c, 9, 51, 64
1, 19800, Note_on_c, 9, 51, 0
1, 19800, Note_on_c, 0, 73, 53
1, 19821, Note_on_c, 0, 78, 0
1, 19822, Note_on_c, 11, 49, 0
1, 19822, Note_on_c, 1, 49, 0
1, 19822, Note_on_c, 0, 78, 54
1, 19835, Note_on_c, 11, 37, 0
1, 19835, Note_on_c, 1, 37, 0
1, 19852, Note_on_c, 0, 71, 0
1, 19871, Note_on_c, 1, 51, 81
1, 19871, Note_on_c, 11, 51, 77
1, 19872, Note_on_c, 0, 71, 59
1, 19872, Note_on_c, 9, 51, 57
1, 19873, Note_on_c, 9, 51, 0
1, 19880, Note_on_c, 2, 59, 0
1, 19881, Note_on_c, 2, 53, 0
1, 19884, Note_on_c, 2, 56, 0
1, 19890, Note_on_c, 2, 63, 0
1, 19894, Note_on_c, 0, 78, 0
1, 19896, Note_on_c, 0, 78, 58
1, 19896, Note_on_c, 1, 44, 72
1, 19896, Note_on_c, 11, 44, 68
1, 19907, Note_on_c, 11, 51, 0
1, 19907, Note_on_c, 1, 51, 0
1, 19918, Note_on_c, 0, 73, 0
1, 19919, Note_on_c, 1, 51, 81
1, 19919, Note_on_c, 11, 51, 77
1, 19920, Note_on_c, 0, 73, 54
1, 19921, Note_on_c, 9, 51, 42
1, 19922, Note_on_c, 9, 51, 0
1, 19923, Note_on_c, 1, 44, 0
1, 19923, Note_on_c, 11, 44, 0
1, 19943, Note_on_c, 1, 44, 69
1, 19943, Note_on_c, 9, 36, 79
1, 19943, Note_on_c, 11, 44, 65
1, 19944, Note_on_c, 9, 36, 0
1, 19950, Note_on_c, 2, 54, 58
1, 19951, Note_on_c, 1, 51, 0
1, 19951, Note_on_c, 11, 51, 0
1, 19955, Note_on_c, 0, 63, 0
1, 19956, Note_on_c, 0, 71, 0
1, 19956, Note_on_c, 0, 78, 0
1, 19956, Note_on_c, 0, 73, 0
1, 19956, Note_on_c, 0, 59, 0
1, 19958, Note_on_c, 0, 66, 0
1, 19958, Note_on_c, 2, 58, 63
1, 19960, Note_on_c, 0, 68, 0
1, 19964, Note_on_c, 2, 61, 74
1, 19966, Note_on_c, 0, 78, 65
1, 19966, Note_on_c, 0, 66, 65
1, 19966, Note_on_c, 0, 63, 57
1, 19966, Note_on_c, 0, 75, 70
1, 19966, Note_on_c, 0, 58, 68
1, 19966, Note_on_c, 0, 68, 61
1, 19967, Note_on_c, 9, 36, 79
1, 19968, Note_on_c, 9, 36, 0
1, 19968, Note_on_c, 1, 49, 86
1, 19968, Note_on_c, 2, 63, 76
1, 19968, Note_on_c, 11, 49, 82
1, 19969, Note_on_c, 9, 51, 58
1, 19970, Note_on_c, 9, 51, 0
1, 19971, Note_on_c, 11, 44, 0
1, 19971, Note_on_c, 1, 44, 0
1, 20013, Note_on_c, 0, 73, 58
1, 20035, Note_on_c, 0, 75, 0
1, 20035, Note_on_c, 0, 78, 0
1, 20037, Note_on_c, 0, 75, 64
1, 20037, Note_on_c, 0, 78, 52
1, 20039, Note_on_c, 1, 37, 99
1, 20039, Note_on_c, 9, 51, 57
1, 20039, Note_on_c, 11, 37, 95
1, 20040, Note_on_c, 9, 51, 0
1, 20086, Note_on_c, 0, 70, 58
1, 20130, Note_on_c, 0, 78, 0
1, 20130, Note_on_c, 0, 75, 0
1, 20132, Note_on_c, 0, 75, 63
1, 20132, Note_on_c, 0, 78, 49
1, 20135, Note_on_c, 9, 36, 70
1, 20136, Note_on_c, 9, 36, 0
1, 20159, Note_on_c, 9, 36, 79
1, 20160, Note_on_c, 9, 36, 0
1, 20181, Note_on_c, 0, 73, 0
1, 20182, Note_on_c, 0, 73, 57
1, 20185, Note_on_c, 9, 51, 48
1, 20186, Note_on_c, 9, 51, 0
1, 20204, Note_on_c, 0, 78, 0
1, 20204, Note_on_c, 0, 75, 0
1, 20205, Note_on_c, 0, 78, 54
1, 20206, Note_on_c, 0, 75, 60
1, 20246, Note_on_c, 11, 49, 0
1, 20246, Note_on_c, 1, 49, 0
1, 20248, Note_on_c, 0, 70, 0
1, 20256, Note_on_c, 0, 70, 56
1, 20257, Note_on_c, 9, 51, 60
1, 20258, Note_on_c, 9, 51, 0
1, 20264, Note_on_c, 2, 61, 0
1, 20269, Note_on_c, 2, 63, 0
1, 20270, Note_on_c, 2, 58, 0
1, 20275, Note_on_c, 2, 54, 0
1, 20276, Note_on_c, 0, 75, 0
1, 20277, Note_on_c, 0, 78, 0
1, 20278, Note_on_c, 1, 37, 0
1, 20278, Note_on_c, 11, 37, 0
1, 20278, Note_on_c, 0, 78, 50
1, 20278, Note_on_c, 0, 75, 59
1, 20294, Note_on_c, 0, 73, 0
1, 20302, Note_on_c, 0, 73, 57
1, 20302, Note_on_c, 1, 51, 86
1, 20302, Note_on_c, 11, 51, 82
1, 20305, Note_on_c, 9, 51, 43
1, 20306, Note_on_c, 9, 51, 0
1, 20324, Note_on_c, 2, 54, 59
1, 20326, Note_on_c, 1, 44, 73
1, 20326, Note_on_c, 11, 44, 69
1, 20327, Note_on_c, 9, 36, 91
1, 20328, Note_on_c, 9, 36, 0
1, 20332, Note_on_c, 2, 57, 71
1, 20336, Note_on_c, 11, 51, 0
1, 20336, Note_on_c, 1, 51, 0
1, 20338, Note_on_c, 2, 61, 65
1, 20345, Note_on_c, 2, 63, 77
1, 20346, Note_on_c, 0, 73, 0
1, 20346, Note_on_c, 0, 70, 0
1, 20346, Note_on_c, 0, 58, 0
1, 20346, Note_on_c, 0, 63, 0
1, 20346, Note_on_c, 0, 78, 0
1, 20346, Note_on_c, 0, 75, 0
1, 20346, Note_on_c, 0, 68, 0
1, 20346, Note_on_c, 0, 66, 0
1, 20351, Note_on_c, 9, 51, 59
1, 20352, Note_on_c, 9, 51, 0
1, 20352, Note_on_c, 8, 80, 0
1, 20352, Note_on_c, 0, 68, 67
1, 20352, Note_on_c, 0, 66, 67
1, 20352, Note_on_c, 0, 78, 67
1, 20352, Note_on_c, 0, 75, 67
1, 20352, Note_on_c, 0, 57, 67
1, 20352, Note_on_c, 9, 36, 78
1, 20352, Note_on_c, 8, 81, 70
1, 20353, Note_on_c, 9, 36, 0
1, 20353, Note_on_c, 0, 63, 67
1, 20353, Note_on_c, 1, 45, 102
1, 20353, Note_on_c, 1, 49, 80
1, 20353, Note_on_c, 8, 93, 70
1, 20353, Note_on_c, 11, 45, 98
1, 20353, Note_on_c, 11, 49, 76
1, 20354, Note_on_c, 8, 92, 0
1, 20362, Note_on_c, 11, 44, 0
1, 20362, Note_on_c, 1, 44, 0
1, 20398, Note_on_c, 0, 73, 50
1, 20421, Note_on_c, 0, 78, 0
1, 20421, Note_on_c, 0, 75, 0
1, 20422, Note_on_c, 0, 75, 66
1, 20422, Note_on_c, 0, 78, 62
1, 20425, Note_on_c, 9, 51, 66
1, 20426, Note_on_c, 9, 51, 0
1, 20440, Control_c, 8, 11, 126
1, 20448, Control_c, 8, 11, 125
1, 20464, Control_c, 8, 11, 124
1, 20470, Note_on_c, 0, 69, 59
1, 20472, Control_c, 8, 11, 123
1, 20480, Control_c, 8, 11, 122
1, 20496, Control_c, 8, 11, 121
1, 20504, Control_c, 8, 11, 120
1, 20515, Note_on_c, 0, 78, 0
1, 20515, Note_on_c, 0, 75, 0
1, 20517, Note_on_c, 0, 78, 59
1, 20517, Note_on_c, 0, 75, 65
1, 20520, Control_c, 8, 11, 119
1, 20522, Note_on_c, 9, 36, 80
1, 20523, Note_on_c, 9, 36, 0
1, 20528, Control_c, 8, 11, 118
1, 20536, Control_c, 8, 11, 117
1, 20545, Note_on_c, 9, 36, 79
1, 20546, Note_on_c, 9, 36, 0
1, 20552, Control_c, 8, 11, 116
1, 20560, Control_c, 8, 11, 115
1, 20563, Note_on_c, 0, 73, 0
1, 20565, Note_on_c, 0, 73, 53
1, 20569, Note_on_c, 9, 51, 68
1, 20570, Note_on_c, 9, 51, 0
1, 20576, Control_c, 8, 11, 114
1, 20584, Control_c, 8, 11, 113
1, 20586, Note_on_c, 11, 45, 0
1, 20586, Note_on_c, 1, 45, 0
1, 20588, Note_on_c, 11, 49, 0
1, 20588, Note_on_c, 1, 49, 0
1, 20589, Note_on_c, 0, 75, 0
1, 20589, Note_on_c, 0, 78, 0
1, 20590, Note_on_c, 0, 78, 60
1, 20590, Note_on_c, 0, 75, 65
1, 20592, Control_c, 8, 11, 112
1, 20608, Control_c, 8, 11, 111
1, 20616, Control_c, 8, 11, 110
1, 20632, Control_c, 8, 11, 109
1, 20636, Note_on_c, 0, 69, 0
1, 20638, Note_on_c, 0, 69, 61
1, 20639, Note_on_c, 9, 45, 86
1, 20640, Note_on_c, 9, 45, 0
1, 20640, Control_c, 8, 11, 108
1, 20641, Note_on_c, 1, 44, 92
1, 20641, Note_on_c, 9, 51, 59
1, 20641, Note_on_c, 11, 44, 88
1, 20642, Note_on_c, 9, 51, 0
1, 20648, Control_c, 8, 11, 107
1, 20659, Note_on_c, 0, 78, 0
1, 20660, Note_on_c, 0, 75, 0
1, 20661, Note_on_c, 0, 78, 57
1, 20662, Note_on_c, 0, 75, 58
1, 20663, Note_on_c, 9, 45, 59
1, 20664, Note_on_c, 9, 45, 0
1, 20664, Control_c, 8, 11, 106
1, 20672, Control_c, 8, 11, 105
1, 20673, Note_on_c, 2, 54, 0
1, 20678, Note_on_c, 2, 57, 0
1, 20681, Note_on_c, 2, 61, 0
1, 20685, Note_on_c, 0, 73, 0
1, 20685, Note_on_c, 2, 63, 0
1, 20686, Note_on_c, 0, 73, 55
1, 20687, Note_on_c, 9, 45, 101
1, 20688, Note_on_c, 9, 45, 0
1, 20688, Control_c, 8, 11, 104
1, 20696, Control_c, 8, 11, 103
1, 20704, Control_c, 8, 11, 102
1, 20705, Pitch_bend_c, 1, 7936
1, 20705, Pitch_bend_c, 11, 7936
1, 20706, Pitch_bend_c, 1, 7680
1, 20706, Pitch_bend_c, 11, 7680
1, 20707, Pitch_bend_c, 1, 7424
1, 20707, Pitch_bend_c, 11, 7424
1, 20708, Pitch_bend_c, 1, 7296
1, 20708, Pitch_bend_c, 11, 7296
1, 20709, Pitch_bend_c, 1, 7168
1, 20709, Pitch_bend_c, 11, 7168
1, 20710, Pitch_bend_c, 1, 6912
1, 20710, Pitch_bend_c, 11, 6912
1, 20711, Pitch_bend_c, 1, 6784
1, 20711, Pitch_bend_c, 11, 6784
1, 20712, Pitch_bend_c, 1, 6528
1, 20712, Pitch_bend_c, 11, 6528
1, 20714, Pitch_bend_c, 1, 6144
1, 20714, Pitch_bend_c, 11, 6144
1, 20715, Pitch_bend_c, 1, 6016
1, 20715, Pitch_bend_c, 11, 6016
1, 20716, Pitch_bend_c, 1, 5760
1, 20716, Pitch_bend_c, 11, 5760
1, 20717, Pitch_bend_c, 1, 5120
1, 20717, Pitch_bend_c, 11, 5120
1, 20718, Pitch_bend_c, 1, 4352
1, 20718, Pitch_bend_c, 11, 4352
1, 20719, Pitch_bend_c, 1, 3840
1, 20719, Pitch_bend_c, 11, 3840
1, 20720, Pitch_bend_c, 1, 3456
1, 20720, Control_c, 8, 11, 101
1, 20720, Pitch_bend_c, 11, 3456
1, 20721, Pitch_bend_c, 1, 2944
1, 20721, Pitch_bend_c, 11, 2944
1, 20722, Pitch_bend_c, 1, 1920
1, 20722, Pitch_bend_c, 11, 1920
1, 20723, Pitch_bend_c, 1, 1024
1, 20723, Pitch_bend_c, 11, 1024
1, 20724, Pitch_bend_c, 1, 512
1, 20724, Pitch_bend_c, 11, 512
1, 20725, Pitch_bend_c, 1, 128
1, 20725, Pitch_bend_c, 11, 128
1, 20726, Note_on_c, 0, 78, 0
1, 20726, Pitch_bend_c, 1, 0
1, 20726, Pitch_bend_c, 11, 0
1, 20727, Note_on_c, 0, 73, 0
1, 20728, Control_c, 8, 11, 100
1, 20729, Note_on_c, 0, 66, 0
1, 20730, Note_on_c, 0, 63, 0
1, 20730, Note_on_c, 0, 75, 0
1, 20730, Note_on_c, 0, 68, 0
1, 20730, Note_on_c, 0, 69, 0
1, 20730, Pitch_bend_c, 1, 8192
1, 20730, Pitch_bend_c, 11, 8192
1, 20732, Note_on_c, 11, 44, 0
1, 20732, Note_on_c, 1, 44, 0
1, 20732, Note_on_c, 0, 57, 0
1, 20734, Note_on_c, 2, 61, 83
1, 20734, Note_on_c, 2, 58, 79
1, 20734, Note_on_c, 2, 65, 72
1, 20736, Note_on_c, 0, 56, 56
1, 20736, Note_on_c, 0, 61, 68
1, 20736, Note_on_c, 0, 58, 59
1, 20736, Note_on_c, 0, 65, 60
1, 20736, Note_on_c, 1, 37, 87
1, 20736, Note_on_c, 2, 56, 59
1, 20736, Note_on_c, 9, 36, 110
1, 20736, Note_on_c, 9, 42, 91
1, 20736, Control_c, 8, 11, 99
1, 20736, Note_on_c, 11, 37, 83
1, 20737, Note_on_c, 9, 42, 0
1, 20737, Note_on_c, 9, 36, 0
1, 20738, Note_on_c, 8, 81, 0
1, 20738, Note_on_c, 8, 93, 0
1, 20759, Note_on_c, 9, 44, 44
1, 20760, Note_on_c, 9, 44, 0
1, 20771, Note_on_c, 0, 61, 0
1, 20771, Note_on_c, 0, 56, 0
1, 20773, Note_on_c, 0, 65, 0
1, 20774, Note_on_c, 0, 58, 0
1, 20782, Note_on_c, 2, 65, 0
1, 20782, Note_on_c, 2, 58, 0
1, 20782, Note_on_c, 2, 56, 0
1, 20782, Note_on_c, 2, 61, 0
1, 20782, Note_on_c, 9, 69, 33
1, 20783, Note_on_c, 9, 69, 0
1, 20783, Note_on_c, 9, 42, 40
1, 20784, Note_on_c, 9, 42, 0
1, 20784, Note_on_c, 2, 58, 104
1, 20784, Note_on_c, 2, 61, 100
1, 20784, Note_on_c, 2, 56, 86
1, 20784, Note_on_c, 2, 65, 83
1, 20785, Note_on_c, 0, 61, 63
1, 20785, Note_on_c, 0, 58, 59
1, 20785, Note_on_c, 0, 65, 59
1, 20785, Note_on_c, 0, 56, 52
1, 20792, Note_on_c, 2, 61, 0
1, 20794, Note_on_c, 2, 56, 0
1, 20794, Note_on_c, 2, 58, 0
1, 20797, Note_on_c, 2, 65, 0
1, 20806, Note_on_c, 9, 69, 21
1, 20807, Note_on_c, 9, 69, 0
1, 20807, Note_on_c, 9, 42, 44
1, 20808, Note_on_c, 9, 42, 0
1, 20808, Note_on_c, 0, 58, 0
1, 20808, Note_on_c, 0, 56, 0
1, 20808, Note_on_c, 2, 61, 74
1, 20808, Note_on_c, 2, 58, 64
1, 20808, Note_on_c, 2, 65, 74
1, 20808, Note_on_c, 2, 56, 63
1, 20810, Note_on_c, 0, 61, 0
1, 20815, Note_on_c, 0, 65, 0
1, 20831, Note_on_c, 9, 42, 76
1, 20831, Note_on_c, 9, 75, 79
1, 20831, Note_on_c, 9, 40, 101
1, 20832, Note_on_c, 9, 40, 0
1, 20832, Note_on_c, 9, 75, 0
1, 20832, Note_on_c, 9, 42, 0
1, 20834, Note_on_c, 11, 37, 0
1, 20834, Note_on_c, 1, 37, 0
1, 20844, Note_on_c, 2, 61, 0
1, 20844, Note_on_c, 2, 65, 0
1, 20844, Note_on_c, 2, 58, 0
1, 20844, Note_on_c, 2, 56, 0
1, 20854, Note_on_c, 2, 65, 70
1, 20855, Note_on_c, 0, 65, 70
1, 20855, Note_on_c, 0, 58, 70
1, 20855, Note_on_c, 9, 44, 40
1, 20856, Note_on_c, 9, 44, 0
1, 20856, Note_on_c, 0, 56, 58
1, 20856, Note_on_c, 2, 61, 71
1, 20856, Note_on_c, 2, 58, 67
1, 20856, Note_on_c, 2, 56, 67
1, 20861, Note_on_c, 2, 61, 0
1, 20862, Note_on_c, 2, 58, 0
1, 20862, Note_on_c, 2, 65, 0
1, 20862, Note_on_c, 2, 56, 0
1, 20877, Note_on_c, 2, 65, 87
1, 20878, Note_on_c, 0, 61, 60
1, 20878, Note_on_c, 2, 61, 60
1, 20878, Note_on_c, 2, 58, 47
1, 20879, Note_on_c, 0, 56, 0
1, 20879, Note_on_c, 9, 69, 33
1, 20879, Note_on_c, 9, 42, 42
1, 20880, Note_on_c, 9, 42, 0
1, 20880, Note_on_c, 9, 69, 0
1, 20880, Control_c, 8, 11, 127
1, 20882, Note_on_c, 0, 58, 0
1, 20888, Note_on_c, 2, 61, 0
1, 20891, Note_on_c, 0, 65, 0
1, 20897, Note_on_c, 2, 65, 0
1, 20898, Note_on_c, 2, 58, 0
1, 20902, Note_on_c, 0, 61, 0
1, 20902, Note_on_c, 0, 56, 8
1, 20902, Note_on_c, 2, 65, 81
1, 20902, Note_on_c, 2, 61, 61
1, 20903, Note_on_c, 1, 32, 70
1, 20903, Note_on_c, 9, 42, 40
1, 20903, Note_on_c, 9, 69, 25
1, 20903, Note_on_c, 11, 32, 66
1, 20904, Note_on_c, 9, 69, 0
1, 20904, Note_on_c, 9, 42, 0
1, 20904, Note_on_c, 9, 36, 104
1, 20905, Note_on_c, 9, 36, 0
1, 20906, Note_on_c, 0, 58, 57
1, 20910, Note_on_c, 2, 65, 0
1, 20910, Note_on_c, 2, 61, 0
1, 20918, Note_on_c, 0, 58, 0
1, 20923, Note_on_c, 0, 56, 0
1, 20926, Note_on_c, 2, 56, 60
1, 20926, Note_on_c, 2, 58, 87
1, 20926, Note_on_c, 2, 61, 93
1, 20926, Note_on_c, 2, 65, 64
1, 20927, Note_on_c, 0, 65, 79
1, 20927, Note_on_c, 1, 37, 78
1, 20927, Note_on_c, 9, 42, 87
1, 20927, Note_on_c, 9, 36, 68
1, 20927, Note_on_c, 11, 37, 74
1, 20928, Note_on_c, 9, 36, 0
1, 20928, Note_on_c, 9, 42, 0
1, 20928, Note_on_c, 0, 58, 70
1, 20929, Note_on_c, 0, 56, 55
1, 20930, Note_on_c, 5, 64, 94
1, 20931, Note_on_c, 1, 32, 0
1, 20931, Note_on_c, 11, 32, 0
1, 20931, Pitch_bend_c, 5, 8192
1, 20931, Control_c, 5, 1, 0
1, 20951, Note_on_c, 0, 61, 52
1, 20951, Note_on_c, 1, 32, 69
1, 20951, Note_on_c, 11, 32, 65
1, 20952, Note_on_c, 9, 44, 46
1, 20953, Note_on_c, 9, 44, 0
1, 20954, Note_on_c, 1, 37, 0
1, 20954, Note_on_c, 11, 37, 0
1, 20954, Note_on_c, 5, 65, 97
1, 20954, Note_on_c, 13, 64, 88
1, 20954, Pitch_bend_c, 13, 7796
1, 20955, Control_c, 13, 1, 0
1, 20958, Note_on_c, 5, 64, 0
1, 20959, Note_on_c, 0, 58, 0
1, 20967, Note_on_c, 0, 65, 0
1, 20971, Note_on_c, 1, 32, 0
1, 20971, Note_on_c, 11, 32, 0
1, 20974, Note_on_c, 2, 58, 0
1, 20974, Note_on_c, 2, 56, 0
1, 20974, Note_on_c, 2, 65, 0
1, 20974, Note_on_c, 2, 61, 0
1, 20974, Note_on_c, 9, 69, 35
1, 20975, Note_on_c, 9, 69, 0
1, 20975, Note_on_c, 1, 37, 80
1, 20975, Note_on_c, 9, 36, 97
1, 20975, Note_on_c, 9, 42, 43
1, 20975, Note_on_c, 11, 37, 76
1, 20976, Note_on_c, 9, 42, 0
1, 20976, Note_on_c, 9, 36, 0
1, 20976, Note_on_c, 2, 65, 87
1, 20976, Note_on_c, 2, 56, 98
1, 20976, Note_on_c, 2, 61, 108
1, 20976, Note_on_c, 2, 58, 112
1, 20978, Note_on_c, 0, 61, 0
1, 20978, Note_on_c, 0, 58, 48
1, 20978, Note_on_c, 5, 73, 104
1, 20978, Note_on_c, 13, 65, 91
1, 20982, Note_on_c, 13, 64, 0
1, 20985, Note_on_c, 2, 61, 0
1, 20985, Note_on_c, 2, 58, 0
1, 20988, Note_on_c, 2, 56, 0
1, 20988, Note_on_c, 2, 65, 0
1, 20991, Note_on_c, 0, 56, 0
1, 20992, Note_on_c, 0, 58, 0
1, 20998, Note_on_c, 9, 69, 29
1, 20999, Note_on_c, 9, 69, 0
1, 20999, Note_on_c, 9, 42, 54
1, 21000, Note_on_c, 9, 42, 0
1, 21000, Note_on_c, 0, 65, 75
1, 21000, Note_on_c, 2, 56, 69
1, 21000, Note_on_c, 2, 61, 73
1, 21000, Note_on_c, 2, 58, 67
1, 21000, Note_on_c, 2, 65, 68
1, 21001, Note_on_c, 0, 56, 56
1, 21001, Note_on_c, 0, 58, 75
1, 21002, Note_on_c, 13, 73, 98
1, 21023, Note_on_c, 9, 40, 104
1, 21023, Note_on_c, 9, 42, 73
1, 21024, Note_on_c, 9, 42, 0
1, 21024, Note_on_c, 9, 40, 0
1, 21024, Note_on_c, 9, 75, 79
1, 21025, Note_on_c, 9, 75, 0
1, 21026, Note_on_c, 11, 37, 0
1, 21026, Note_on_c, 1, 37, 0
1, 21027, Note_on_c, 0, 65, 0
1, 21028, Note_on_c, 0, 58, 0
1, 21029, Note_on_c, 0, 56, 0
1, 21036, Note_on_c, 2, 65, 0
1, 21036, Note_on_c, 2, 61, 0
1, 21037, Note_on_c, 2, 58, 0
1, 21038, Note_on_c, 2, 56, 0
1, 21047, Note_on_c, 1, 37, 66
1, 21047, Note_on_c, 9, 44, 43
1, 21047, Note_on_c, 11, 37, 62
1, 21048, Note_on_c, 9, 44, 0
1, 21048, Note_on_c, 0, 65, 67
1, 21048, Note_on_c, 2, 58, 61
1, 21048, Note_on_c, 2, 65, 66
1, 21048, Note_on_c, 2, 61, 64
1, 21048, Note_on_c, 2, 56, 74
1, 21049, Note_on_c, 0, 56, 53
1, 21049, Note_on_c, 0, 58, 68
1, 21049, Control_c, 5, 1, 1
1, 21050, Control_c, 5, 1, 2
1, 21051, Control_c, 5, 1, 3
1, 21054, Control_c, 5, 1, 4
1, 21056, Note_on_c, 2, 56, 0
1, 21056, Note_on_c, 2, 61, 0
1, 21056, Note_on_c, 2, 58, 0
1, 21058, Note_on_c, 2, 65, 0
1, 21065, Control_c, 5, 1, 3
1, 21069, Note_on_c, 2, 65, 81
1, 21070, Note_on_c, 1, 37, 0
1, 21070, Note_on_c, 11, 37, 0
1, 21070, Note_on_c, 0, 61, 62
1, 21070, Note_on_c, 2, 61, 54
1, 21070, Note_on_c, 2, 58, 59
1, 21070, Control_c, 5, 1, 2
1, 21070, Note_on_c, 9, 69, 36
1, 21071, Note_on_c, 9, 69, 0
1, 21071, Note_on_c, 1, 41, 78
1, 21071, Note_on_c, 9, 42, 54
1, 21071, Note_on_c, 11, 41, 74
1, 21072, Note_on_c, 9, 42, 0
1, 21073, Control_c, 13, 1, 1
1, 21074, Control_c, 13, 1, 2
1, 21075, Control_c, 13, 1, 3
1, 21076, Note_on_c, 0, 58, 0
1, 21078, Control_c, 13, 1, 4
1, 21080, Control_c, 5, 1, 3
1, 21081, Control_c, 5, 1, 4
1, 21082, Note_on_c, 2, 61, 0
1, 21082, Control_c, 5, 1, 5
1, 21083, Control_c, 5, 1, 6
1, 21084, Control_c, 5, 1, 7
1, 21086, Control_c, 5, 1, 8
1, 21088, Note_on_c, 0, 65, 0
1, 21089, Control_c, 13, 1, 3
1, 21090, Note_on_c, 2, 65, 0
1, 21094, Note_on_c, 0, 61, 0
1, 21094, Note_on_c, 2, 58, 0
1, 21094, Note_on_c, 2, 61, 77
1, 21094, Note_on_c, 2, 65, 81
1, 21094, Control_c, 5, 1, 7
1, 21094, Note_on_c, 9, 69, 23
1, 21094, Control_c, 13, 1, 2
1, 21095, Note_on_c, 9, 69, 0
1, 21095, Note_on_c, 1, 42, 88
1, 21095, Control_c, 5, 1, 6
1, 21095, Note_on_c, 9, 42, 42
1, 21095, Note_on_c, 11, 42, 84
1, 21096, Note_on_c, 9, 42, 0
1, 21096, Control_c, 5, 1, 5
1, 21097, Note_on_c, 1, 41, 0
1, 21097, Note_on_c, 11, 41, 0
1, 21097, Note_on_c, 0, 58, 60
1, 21098, Control_c, 5, 1, 3
1, 21099, Control_c, 5, 1, 2
1, 21101, Control_c, 5, 1, 1
1, 21102, Note_on_c, 2, 61, 0
1, 21102, Note_on_c, 2, 65, 0
1, 21102, Control_c, 5, 1, 0
1, 21104, Control_c, 13, 1, 3
1, 21105, Control_c, 13, 1, 4
1, 21106, Note_on_c, 0, 58, 0
1, 21106, Control_c, 13, 1, 5
1, 21107, Control_c, 13, 1, 6
1, 21108, Control_c, 13, 1, 7
1, 21110, Control_c, 13, 1, 8
1, 21113, Note_on_c, 0, 56, 0
1, 21117, Note_on_c, 1, 42, 0
1, 21117, Note_on_c, 11, 42, 0
1, 21118, Note_on_c, 2, 56, 61
1, 21118, Note_on_c, 2, 59, 83
1, 21118, Note_on_c, 2, 63, 87
1, 21118, Note_on_c, 2, 53, 65
1, 21118, Control_c, 13, 1, 7
1, 21119, Note_on_c, 1, 43, 88
1, 21119, Note_on_c, 9, 42, 83
1, 21119, Note_on_c, 11, 43, 84
1, 21119, Control_c, 13, 1, 6
1, 21120, Note_on_c, 9, 42, 0
1, 21120, Note_on_c, 0, 61, 53
1, 21120, Note_on_c, 9, 36, 114
1, 21120, Control_c, 13, 1, 5
1, 21121, Note_on_c, 9, 36, 0
1, 21121, Note_on_c, 0, 56, 48
1, 21121, Note_on_c, 0, 65, 48
1, 21122, Note_on_c, 0, 59, 65
1, 21122, Control_c, 13, 1, 3
1, 21123, Note_on_c, 5, 65, 0
1, 21123, Control_c, 13, 1, 2
1, 21125, Control_c, 13, 1, 1
1, 21126, Control_c, 13, 1, 0
1, 21136, Note_on_c, 0, 61, 0
1, 21143, Note_on_c, 0, 65, 0
1, 21143, Note_on_c, 9, 44, 49
1, 21144, Note_on_c, 9, 44, 0
1, 21146, Note_on_c, 0, 59, 0
1, 21147, Note_on_c, 13, 65, 0
1, 21150, Note_on_c, 0, 56, 0
1, 21166, Note_on_c, 2, 63, 0
1, 21166, Note_on_c, 2, 56, 0
1, 21166, Note_on_c, 2, 53, 0
1, 21166, Note_on_c, 2, 59, 0
1, 21166, Note_on_c, 9, 69, 33
1, 21167, Note_on_c, 9, 69, 0
1, 21167, Note_on_c, 9, 42, 42
1, 21168, Note_on_c, 9, 42, 0
1, 21168, Note_on_c, 2, 63, 74
1, 21168, Note_on_c, 2, 56, 43
1, 21168, Note_on_c, 2, 59, 83
1, 21168, Note_on_c, 2, 53, 48
1, 21169, Note_on_c, 0, 65, 65
1, 21170, Note_on_c, 0, 59, 87
1, 21170, Note_on_c, 0, 61, 68
1, 21170, Note_on_c, 0, 56, 58
1, 21178, Note_on_c, 2, 59, 0
1, 21180, Note_on_c, 2, 56, 0
1, 21181, Note_on_c, 2, 63, 0
1, 21184, Note_on_c, 2, 53, 0
1, 21191, Note_on_c, 9, 42, 41
1, 21191, Note_on_c, 9, 69, 27
1, 21192, Note_on_c, 9, 69, 0
1, 21192, Note_on_c, 9, 42, 0
1, 21192, Note_on_c, 2, 63, 68
1, 21192, Note_on_c, 2, 59, 74
1, 21192, Note_on_c, 2, 56, 63
1, 21192, Note_on_c, 2, 53, 68
1, 21208, Note_on_c, 0, 59, 0
1, 21209, Note_on_c, 0, 61, 0
1, 21215, Note_on_c, 9, 40, 107
1, 21215, Note_on_c, 9, 75, 76
1, 21216, Note_on_c, 9, 75, 0
1, 21216, Note_on_c, 9, 40, 0
1, 21216, Note_on_c, 9, 42, 87
1, 21217, Note_on_c, 9, 42, 0
1, 21217, Note_on_c, 0, 65, 0
1, 21222, Note_on_c, 1, 43, 0
1, 21222, Note_on_c, 11, 43, 0
1, 21222, Note_on_c, 0, 56, 0
1, 21224, Note_on_c, 2, 53, 0
1, 21226, Note_on_c, 2, 56, 0
1, 21228, Note_on_c, 2, 59, 0
1, 21228, Note_on_c, 2, 63, 0
1, 21238, Note_on_c, 2, 63, 72
1, 21238, Note_on_c, 2, 53, 70
1, 21238, Note_on_c, 2, 59, 74
1, 21240, Note_on_c, 2, 56, 58
1, 21241, Note_on_c, 0, 65, 73
1, 21241, Note_on_c, 0, 59, 84
1, 21241, Note_on_c, 9, 44, 57
1, 21242, Note_on_c, 9, 44, 0
1, 21242, Note_on_c, 0, 56, 57
1, 21245, Note_on_c, 2, 59, 0
1, 21246, Note_on_c, 2, 63, 0
1, 21246, Note_on_c, 2, 56, 0
1, 21248, Note_on_c, 2, 53, 0
1, 21261, Note_on_c, 2, 56, 58
1, 21262, Note_on_c, 0, 59, 0
1, 21262, Note_on_c, 2, 59, 58
1, 21262, Note_on_c, 2, 63, 87
1, 21263, Note_on_c, 0, 56, 0
1, 21263, Note_on_c, 9, 42, 44
1, 21263, Note_on_c, 9, 69, 35
1, 21264, Note_on_c, 9, 69, 0
1, 21264, Note_on_c, 9, 42, 0
1, 21264, Note_on_c, 0, 61, 47
1, 21266, Note_on_c, 0, 65, 0
1, 21270, Note_on_c, 2, 59, 0
1, 21271, Note_on_c, 5, 73, 0
1, 21279, Note_on_c, 2, 63, 0
1, 21285, Note_on_c, 2, 56, 0
1, 21286, Note_on_c, 2, 63, 87
1, 21286, Note_on_c, 2, 59, 66
1, 21286, Note_on_c, 9, 69, 25
1, 21287, Note_on_c, 9, 69, 0
1, 21287, Note_on_c, 1, 38, 78
1, 21287, Note_on_c, 9, 42, 46
1, 21287, Note_on_c, 9, 36, 105
1, 21287, Note_on_c, 11, 38, 74
1, 21288, Note_on_c, 9, 36, 0
1, 21288, Note_on_c, 9, 42, 0
1, 21288, Note_on_c, 0, 56, 48
1, 21293, Note_on_c, 0, 61, 0
1, 21294, Note_on_c, 2, 59, 0
1, 21294, Note_on_c, 2, 63, 0
1, 21295, Note_on_c, 13, 73, 0
1, 21310, Note_on_c, 2, 59, 77
1, 21310, Note_on_c, 2, 56, 53
1, 21310, Note_on_c, 2, 53, 62
1, 21310, Note_on_c, 2, 63, 76
1, 21310, Note_on_c, 5, 69, 102
1, 21310, Note_on_c, 9, 36, 67
1, 21311, Note_on_c, 9, 36, 0
1, 21311, Note_on_c, 1, 38, 0
1, 21311, Note_on_c, 11, 38, 0
1, 21311, Note_on_c, 0, 65, 75
1, 21311, Note_on_c, 1, 43, 78
1, 21311, Note_on_c, 11, 43, 74
1, 21312, Note_on_c, 0, 59, 84
1, 21312, Note_on_c, 5, 70, 102
1, 21312, Note_on_c, 9, 42, 70
1, 21313, Note_on_c, 9, 42, 0
1, 21322, Note_on_c, 5, 69, 0
1, 21334, Note_on_c, 0, 61, 55
1, 21334, Note_on_c, 13, 69, 96
1, 21335, Note_on_c, 1, 38, 73
1, 21335, Note_on_c, 9, 44, 52
1, 21335, Note_on_c, 11, 38, 69
1, 21336, Note_on_c, 9, 44, 0
1, 21336, Note_on_c, 13, 70, 96
1, 21338, Note_on_c, 1, 43, 0
1, 21338, Note_on_c, 11, 43, 0
1, 21338, Note_on_c, 0, 59, 0
1, 21342, Note_on_c, 0, 65, 0
1, 21346, Note_on_c, 13, 69, 0
1, 21356, Note_on_c, 2, 56, 0
1, 21356, Note_on_c, 2, 63, 0
1, 21356, Note_on_c, 2, 59, 0
1, 21356, Note_on_c, 2, 53, 0
1, 21358, Note_on_c, 0, 61, 0
1, 21358, Note_on_c, 11, 38, 0
1, 21358, Note_on_c, 1, 38, 0
1, 21358, Note_on_c, 2, 63, 111
1, 21358, Note_on_c, 2, 53, 72
1, 21358, Note_on_c, 5, 73, 116
1, 21358, Note_on_c, 9, 69, 45
1, 21359, Note_on_c, 9, 69, 0
1, 21359, Note_on_c, 5, 70, 0
1, 21359, Note_on_c, 1, 43, 78
1, 21359, Note_on_c, 9, 42, 46
1, 21359, Note_on_c, 9, 36, 107
1, 21359, Note_on_c, 11, 43, 74
1, 21360, Note_on_c, 9, 36, 0
1, 21360, Note_on_c, 9, 42, 0
1, 21360, Note_on_c, 2, 56, 73
1, 21360, Note_on_c, 2, 59, 98
1, 21370, Note_on_c, 2, 59, 0
1, 21370, Note_on_c, 2, 56, 0
1, 21370, Note_on_c, 2, 63, 0
1, 21370, Note_on_c, 2, 53, 0
1, 21372, Note_on_c, 0, 56, 0
1, 21382, Note_on_c, 2, 59, 74
1, 21382, Note_on_c, 2, 56, 61
1, 21382, Note_on_c, 2, 53, 63
1, 21382, Note_on_c, 2, 63, 63
1, 21382, Note_on_c, 9, 69, 26
1, 21382, Note_on_c, 13, 73, 110
1, 21383, Note_on_c, 9, 69, 0
1, 21383, Note_on_c, 13, 70, 0
1, 21383, Note_on_c, 9, 42, 37
1, 21384, Note_on_c, 9, 42, 0
1, 21384, Note_on_c, 0, 65, 70
1, 21385, Note_on_c, 0, 56, 52
1, 21385, Note_on_c, 0, 59, 70
1, 21406, Note_on_c, 0, 65, 0
1, 21407, Note_on_c, 9, 40, 110
1, 21407, Note_on_c, 9, 42, 91
1, 21407, Note_on_c, 9, 75, 82
1, 21408, Note_on_c, 9, 75, 0
1, 21408, Note_on_c, 9, 42, 0
1, 21408, Note_on_c, 9, 40, 0
1, 21409, Note_on_c, 0, 59, 0
1, 21409, Note_on_c, 0, 56, 0
1, 21417, Note_on_c, 2, 56, 0
1, 21418, Note_on_c, 2, 63, 0
1, 21418, Note_on_c, 2, 53, 0
1, 21420, Note_on_c, 2, 59, 0
1, 21430, Note_on_c, 2, 59, 81
1, 21430, Note_on_c, 2, 56, 61
1, 21430, Note_on_c, 2, 63, 70
1, 21430, Note_on_c, 2, 53, 67
1, 21431, Note_on_c, 1, 38, 78
1, 21431, Note_on_c, 9, 44, 52
1, 21431, Note_on_c, 11, 38, 74
1, 21432, Note_on_c, 9, 44, 0
1, 21433, Note_on_c, 0, 59, 75
1, 21433, Note_on_c, 0, 56, 58
1, 21433, Note_on_c, 0, 65, 65
1, 21434, Note_on_c, 11, 43, 0
1, 21434, Note_on_c, 1, 43, 0
1, 21437, Note_on_c, 2, 56, 0
1, 21438, Note_on_c, 2, 59, 0
1, 21438, Note_on_c, 2, 53, 0
1, 21440, Note_on_c, 2, 63, 0
1, 21453, Note_on_c, 11, 38, 0
1, 21453, Note_on_c, 1, 38, 0
1, 21453, Note_on_c, 0, 56, 0
1, 21454, Note_on_c, 2, 59, 64
1, 21454, Note_on_c, 2, 63, 104
1, 21454, Note_on_c, 2, 56, 49
1, 21454, Note_on_c, 9, 69, 39
1, 21455, Note_on_c, 9, 69, 0
1, 21455, Note_on_c, 9, 42, 48
1, 21456, Note_on_c, 9, 42, 0
1, 21456, Note_on_c, 0, 59, 0
1, 21456, Note_on_c, 0, 61, 64
1, 21456, Note_on_c, 1, 43, 70
1, 21456, Note_on_c, 11, 43, 66
1, 21462, Note_on_c, 0, 65, 0
1, 21462, Note_on_c, 5, 73, 0
1, 21464, Note_on_c, 2, 59, 0
1, 21474, Note_on_c, 2, 63, 0
1, 21478, Note_on_c, 2, 56, 0
1, 21478, Note_on_c, 0, 61, 0
1, 21478, Note_on_c, 2, 63, 85
1, 21478, Note_on_c, 9, 69, 25
1, 21479, Note_on_c, 9, 69, 0
1, 21479, Note_on_c, 9, 42, 48
1, 21480, Note_on_c, 9, 42, 0
1, 21480, Note_on_c, 0, 56, 52
1, 21480, Note_on_c, 2, 59, 76
1, 21481, Note_on_c, 1, 37, 69
1, 21481, Note_on_c, 11, 37, 65
1, 21485, Note_on_c, 11, 43, 0
1, 21485, Note_on_c, 1, 43, 0
1, 21486, Note_on_c, 2, 63, 0
1, 21486, Note_on_c, 13, 73, 0
1, 21488, Note_on_c, 2, 59, 0
1, 21498, Note_on_c, 0, 56, 0
1, 21502, Note_on_c, 2, 65, 63
1, 21502, Note_on_c, 2, 58, 90
1, 21502, Note_on_c, 2, 56, 95
1, 21502, Note_on_c, 2, 61, 90
1, 21503, Note_on_c, 0, 65, 68
1, 21503, Note_on_c, 0, 58, 61
1, 21503, Note_on_c, 5, 76, 112
1, 21503, Note_on_c, 9, 36, 113
1, 21504, Note_on_c, 9, 36, 0
1, 21504, Note_on_c, 9, 42, 73
1, 21505, Note_on_c, 9, 42, 0
1, 21505, Note_on_c, 0, 56, 50
1, 21505, Note_on_c, 0, 61, 59
1, 21505, Note_on_c, 1, 42, 90
1, 21505, Note_on_c, 11, 42, 86
1, 21510, Note_on_c, 1, 37, 0
1, 21510, Note_on_c, 11, 37, 0
1, 21520, Pitch_bend_c, 5, 8322
1, 21521, Pitch_bend_c, 5, 8452
1, 21522, Note_on_c, 0, 61, 0
1, 21522, Note_on_c, 0, 56, 0
1, 21522, Pitch_bend_c, 5, 8582
1, 21523, Note_on_c, 0, 65, 0
1, 21523, Pitch_bend_c, 5, 8712
1, 21525, Pitch_bend_c, 5, 8842
1, 21527, Note_on_c, 0, 58, 0
1, 21527, Note_on_c, 13, 76, 106
1, 21528, Note_on_c, 9, 44, 42
1, 21529, Note_on_c, 9, 44, 0
1, 21529, Pitch_bend_c, 5, 8972
1, 21534, Pitch_bend_c, 5, 9102
1, 21535, Pitch_bend_c, 5, 9232
1, 21536, Pitch_bend_c, 5, 9362
1, 21538, Pitch_bend_c, 5, 9492
1, 21540, Pitch_bend_c, 5, 9622
1, 21543, Pitch_bend_c, 5, 9752
1, 21544, Pitch_bend_c, 13, 8322
1, 21545, Pitch_bend_c, 13, 8452
1, 21546, Pitch_bend_c, 13, 8582
1, 21547, Pitch_bend_c, 13, 8712
1, 21549, Pitch_bend_c, 13, 8842
1, 21550, Note_on_c, 2, 58, 0
1, 21550, Note_on_c, 2, 56, 0
1, 21550, Note_on_c, 2, 61, 0
1, 21550, Note_on_c, 2, 65, 0
1, 21550, Pitch_bend_c, 5, 9882
1, 21550, Note_on_c, 9, 69, 35
1, 21551, Note_on_c, 9, 69, 0
1, 21551, Pitch_bend_c, 5, 10012
1, 21551, Note_on_c, 9, 42, 42
1, 21552, Note_on_c, 9, 42, 0
1, 21552, Note_on_c, 2, 61, 104
1, 21552, Note_on_c, 2, 58, 100
1, 21552, Note_on_c, 2, 65, 77
1, 21552, Note_on_c, 2, 56, 108
1, 21553, Note_on_c, 0, 65, 71
1, 21553, Note_on_c, 0, 58, 68
1, 21553, Note_on_c, 0, 56, 60
1, 21553, Pitch_bend_c, 5, 10142
1, 21553, Pitch_bend_c, 13, 8972
1, 21554, Note_on_c, 0, 61, 68
1, 21554, Pitch_bend_c, 5, 10272
1, 21556, Pitch_bend_c, 5, 10402
1, 21558, Pitch_bend_c, 5, 10532
1, 21558, Pitch_bend_c, 13, 9102
1, 21559, Pitch_bend_c, 13, 9232
1, 21560, Pitch_bend_c, 13, 9362
1, 21561, Note_on_c, 2, 56, 0
1, 21561, Note_on_c, 2, 58, 0
1, 21561, Note_on_c, 2, 61, 0
1, 21562, Note_on_c, 2, 65, 0
1, 21562, Pitch_bend_c, 5, 10662
1, 21562, Pitch_bend_c, 13, 9492
1, 21564, Pitch_bend_c, 13, 9622
1, 21565, Pitch_bend_c, 5, 10792
1, 21567, Pitch_bend_c, 13, 9752
1, 21569, Pitch_bend_c, 5, 10922
1, 21572, Pitch_bend_c, 5, 11052
1, 21574, Note_on_c, 11, 42, 0
1, 21574, Note_on_c, 1, 42, 0
1, 21574, Note_on_c, 2, 65, 61
1, 21574, Note_on_c, 2, 56, 63
1, 21574, Note_on_c, 2, 61, 68
1, 21574, Note_on_c, 2, 58, 60
1, 21574, Pitch_bend_c, 13, 9882
1, 21575, Note_on_c, 9, 42, 42
1, 21575, Pitch_bend_c, 13, 10012
1, 21576, Note_on_c, 9, 42, 0
1, 21576, Note_on_c, 9, 69, 24
1, 21577, Note_on_c, 9, 69, 0
1, 21577, Pitch_bend_c, 13, 10142
1, 21578, Pitch_bend_c, 13, 10272
1, 21580, Pitch_bend_c, 13, 10402
1, 21582, Pitch_bend_c, 13, 10532
1, 21585, Pitch_bend_c, 5, 11312
1, 21586, Pitch_bend_c, 13, 10662
1, 21589, Pitch_bend_c, 13, 10792
1, 21592, Note_on_c, 0, 58, 0
1, 21593, Pitch_bend_c, 13, 10922
1, 21596, Pitch_bend_c, 13, 11052
1, 21597, Note_on_c, 0, 61, 0
1, 21597, Note_on_c, 0, 65, 0
1, 21599, Note_on_c, 0, 56, 0
1, 21599, Pitch_bend_c, 5, 11442
1, 21599, Note_on_c, 9, 75, 76
1, 21599, Note_on_c, 9, 40, 104
1, 21600, Note_on_c, 9, 40, 0
1, 21600, Note_on_c, 9, 75, 0
1, 21600, Note_on_c, 9, 42, 81
1, 21601, Note_on_c, 9, 42, 0
1, 21607, Note_on_c, 2, 56, 0
1, 21608, Note_on_c, 2, 61, 0
1, 21609, Pitch_bend_c, 13, 11312
1, 21610, Note_on_c, 2, 58, 0
1, 21610, Note_on_c, 2, 65, 0
1, 21612, Pitch_bend_c, 5, 11572
1, 21616, Pitch_bend_c, 5, 11702
1, 21622, Note_on_c, 2, 61, 71
1, 21622, Note_on_c, 2, 65, 70
1, 21622, Note_on_c, 2, 58, 62
1, 21622, Note_on_c, 2, 56, 68
1, 21623, Note_on_c, 9, 44, 43
1, 21623, Pitch_bend_c, 13, 11442
1, 21624, Note_on_c, 9, 44, 0
1, 21625, Note_on_c, 0, 58, 68
1, 21625, Note_on_c, 0, 56, 59
1, 21625, Note_on_c, 0, 65, 70
1, 21628, Pitch_bend_c, 5, 11832
1, 21629, Note_on_c, 2, 61, 0
1, 21630, Note_on_c, 2, 58, 0
1, 21631, Note_on_c, 2, 65, 0
1, 21631, Note_on_c, 2, 56, 0
1, 21633, Pitch_bend_c, 5, 11962
1, 21636, Pitch_bend_c, 13, 11572
1, 21640, Pitch_bend_c, 13, 11702
1, 21642, Pitch_bend_c, 5, 12092
1, 21645, Pitch_bend_c, 5, 12222
1, 21646, Note_on_c, 0, 61, 54
1, 21646, Note_on_c, 2, 65, 93
1, 21646, Pitch_bend_c, 5, 12352
1, 21646, Note_on_c, 9, 69, 45
1, 21647, Note_on_c, 9, 69, 0
1, 21647, Note_on_c, 0, 56, 0
1, 21647, Pitch_bend_c, 5, 12482
1, 21647, Note_on_c, 9, 42, 50
1, 21648, Note_on_c, 9, 42, 0
1, 21648, Note_on_c, 2, 61, 31
1, 21649, Note_on_c, 2, 58, 48
1, 21649, Pitch_bend_c, 5, 12612
1, 21650, Pitch_bend_c, 5, 12742
1, 21651, Note_on_c, 0, 58, 0
1, 21651, Pitch_bend_c, 5, 12872
1, 21652, Pitch_bend_c, 5, 13002
1, 21652, Pitch_bend_c, 13, 11832
1, 21654, Note_on_c, 5, 76, 0
1, 21654, Pitch_bend_c, 5, 13132
1, 21657, Note_on_c, 2, 61, 0
1, 21657, Pitch_bend_c, 5, 13262
1, 21657, Pitch_bend_c, 13, 11962
1, 21659, Note_on_c, 0, 65, 0
1, 21659, Pitch_bend_c, 5, 13392
1, 21662, Note_on_c, 2, 58, 0
1, 21665, Pitch_bend_c, 5, 13262
1, 21666, Note_on_c, 2, 65, 0
1, 21666, Pitch_bend_c, 5, 11312
1, 21666, Pitch_bend_c, 13, 12092
1, 21667, Pitch_bend_c, 5, 8972
1, 21668, Pitch_bend_c, 5, 8192
1, 21669, Pitch_bend_c, 13, 12222
1, 21670, Note_on_c, 0, 61, 0
1, 21670, Note_on_c, 0, 56, 47
1, 21670, Note_on_c, 2, 65, 77
1, 21670, Note_on_c, 9, 69, 34
1, 21670, Pitch_bend_c, 13, 12352
1, 21671, Note_on_c, 9, 69, 0
1, 21671, Note_on_c, 1, 37, 82
1, 21671, Note_on_c, 9, 42, 43
1, 21671, Note_on_c, 11, 37, 78
1, 21671, Pitch_bend_c, 13, 12482
1, 21672, Note_on_c, 9, 42, 0
1, 21672, Note_on_c, 2, 61, 67
1, 21673, Note_on_c, 9, 36, 110
1, 21673, Pitch_bend_c, 13, 12612
1, 21674, Note_on_c, 9, 36, 0
1, 21674, Pitch_bend_c, 13, 12742
1, 21675, Pitch_bend_c, 13, 12872
1, 21676, Pitch_bend_c, 13, 13002
1, 21678, Note_on_c, 13, 76, 0
1, 21678, Note_on_c, 2, 65, 0
1, 21678, Pitch_bend_c, 13, 13132
1, 21680, Note_on_c, 2, 61, 0
1, 21681, Pitch_bend_c, 13, 13262
1, 21683, Pitch_bend_c, 13, 13392
1, 21689, Pitch_bend_c, 13, 13262
1, 21690, Pitch_bend_c, 13, 11312
1, 21691, Pitch_bend_c, 13, 8972
1, 21692, Note_on_c, 0, 56, 0
1, 21692, Pitch_bend_c, 13, 8192
1, 21694, Note_on_c, 0, 65, 71
1, 21694, Note_on_c, 2, 58, 79
1, 21694, Note_on_c, 2, 65, 63
1, 21694, Note_on_c, 2, 61, 77
1, 21694, Note_on_c, 2, 56, 60
1, 21695, Note_on_c, 0, 58, 75
1, 21695, Note_on_c, 0, 56, 57
1, 21695, Note_on_c, 1, 42, 76
1, 21695, Note_on_c, 9, 36, 64
1, 21695, Note_on_c, 11, 42, 72
1, 21696, Note_on_c, 9, 36, 0
1, 21696, Note_on_c, 11, 37, 0
1, 21696, Note_on_c, 1, 37, 0
1, 21696, Note_on_c, 9, 42, 85
1, 21697, Note_on_c, 9, 42, 0
1, 21718, Note_on_c, 0, 61, 55
1, 21719, Note_on_c, 1, 34, 74
1, 21719, Note_on_c, 9, 44, 42
1, 21719, Note_on_c, 11, 34, 70
1, 21720, Note_on_c, 9, 44, 0
1, 21722, Note_on_c, 0, 56, 0
1, 21723, Note_on_c, 0, 58, 0
1, 21724, Note_on_c, 0, 65, 0
1, 21726, Note_on_c, 1, 42, 0
1, 21726, Note_on_c, 11, 42, 0
1, 21739, Note_on_c, 0, 61, 0
1, 21741, Note_on_c, 2, 56, 0
1, 21741, Note_on_c, 2, 58, 0
1, 21741, Note_on_c, 2, 65, 0
1, 21741, Note_on_c, 2, 61, 0
1, 21742, Note_on_c, 0, 56, 30
1, 21742, Note_on_c, 2, 65, 81
1, 21742, Note_on_c, 2, 61, 104
1, 21742, Note_on_c, 2, 58, 95
1, 21742, Note_on_c, 2, 56, 98
1, 21742, Note_on_c, 9, 69, 43
1, 21743, Note_on_c, 9, 69, 0
1, 21744, Note_on_c, 1, 42, 79
1, 21744, Note_on_c, 9, 42, 54
1, 21744, Note_on_c, 11, 42, 75
1, 21745, Note_on_c, 9, 42, 0
1, 21745, Note_on_c, 1, 34, 0
1, 21745, Note_on_c, 11, 34, 0
1, 21745, Note_on_c, 9, 36, 113
1, 21746, Note_on_c, 9, 36, 0
1, 21751, Note_on_c, 2, 56, 0
1, 21753, Note_on_c, 2, 61, 0
1, 21753, Note_on_c, 2, 58, 0
1, 21755, Note_on_c, 2, 65, 0
1, 21764, Note_on_c, 0, 56, 0
1, 21766, Note_on_c, 2, 56, 64
1, 21766, Note_on_c, 2, 65, 69
1, 21766, Note_on_c, 2, 58, 65
1, 21766, Note_on_c, 2, 61, 68
1, 21766, Note_on_c, 9, 69, 32
1, 21767, Note_on_c, 9, 69, 0
1, 21767, Note_on_c, 9, 42, 49
1, 21768, Note_on_c, 9, 42, 0
1, 21768, Note_on_c, 0, 58, 79
1, 21768, Note_on_c, 0, 65, 61
1, 21769, Note_on_c, 0, 56, 52
1, 21792, Note_on_c, 9, 75, 76
1, 21793, Note_on_c, 9, 75, 0
1, 21793, Note_on_c, 9, 40, 105
1, 21793, Note_on_c, 9, 42, 73
1, 21794, Note_on_c, 9, 42, 0
1, 21794, Note_on_c, 9, 40, 0
1, 21798, Note_on_c, 0, 65, 0
1, 21799, Note_on_c, 0, 56, 0
1, 21799, Note_on_c, 0, 58, 0
1, 21801, Note_on_c, 2, 56, 0
1, 21802, Note_on_c, 2, 65, 0
1, 21802, Note_on_c, 2, 58, 0
1, 21802, Note_on_c, 2, 61, 0
1, 21810, Note_on_c, 11, 42, 0
1, 21810, Note_on_c, 1, 42, 0
1, 21814, Note_on_c, 2, 56, 71
1, 21814, Note_on_c, 2, 58, 64
1, 21814, Note_on_c, 2, 61, 72
1, 21814, Note_on_c, 2, 65, 72
1, 21814, Note_on_c, 5, 68, 96
1, 21815, Note_on_c, 0, 58, 63
1, 21815, Note_on_c, 9, 44, 45
1, 21816, Note_on_c, 9, 44, 0
1, 21816, Note_on_c, 0, 56, 61
1, 21816, Note_on_c, 0, 65, 67
1, 21816, Note_on_c, 5, 70, 111
1, 21817, Note_on_c, 1, 37, 81
1, 21817, Note_on_c, 11, 37, 77
1, 21823, Note_on_c, 2, 58, 0
1, 21824, Note_on_c, 2, 56, 0
1, 21824, Note_on_c, 2, 61, 0
1, 21825, Note_on_c, 2, 65, 0
1, 21826, Note_on_c, 5, 68, 0
1, 21838, Note_on_c, 2, 61, 58
1, 21838, Note_on_c, 2, 65, 90
1, 21838, Note_on_c, 9, 69, 35
1, 21838, Note_on_c, 13, 68, 90
1, 21839, Note_on_c, 9, 69, 0
1, 21839, Note_on_c, 9, 42, 51
1, 21840, Note_on_c, 9, 42, 0
1, 21840, Note_on_c, 13, 70, 105
1, 21841, Note_on_c, 0, 65, 0
1, 21841, Note_on_c, 0, 56, 0
1, 21841, Note_on_c, 1, 42, 78
1, 21841, Note_on_c, 5, 73, 106
1, 21841, Note_on_c, 11, 42, 74
1, 21842, Note_on_c, 11, 37, 0
1, 21842, Note_on_c, 1, 37, 0
1, 21842, Note_on_c, 0, 58, 0
1, 21843, Note_on_c, 5, 70, 0
1, 21848, Note_on_c, 2, 61, 0
1, 21850, Note_on_c, 13, 68, 0
1, 21856, Note_on_c, 2, 65, 0
1, 21862, Note_on_c, 0, 56, 52
1, 21862, Note_on_c, 2, 65, 77
1, 21862, Note_on_c, 2, 61, 61
1, 21862, Note_on_c, 5, 70, 93
1, 21863, Note_on_c, 9, 69, 25
1, 21863, Note_on_c, 9, 42, 43
1, 21864, Note_on_c, 9, 42, 0
1, 21864, Note_on_c, 9, 69, 0
1, 21865, Note_on_c, 1, 34, 70
1, 21865, Note_on_c, 11, 34, 66
1, 21865, Note_on_c, 13, 73, 100
1, 21866, Note_on_c, 5, 73, 0
1, 21866, Note_on_c, 1, 42, 0
1, 21866, Note_on_c, 11, 42, 0
1, 21867, Note_on_c, 13, 70, 0
1, 21870, Note_on_c, 2, 65, 0
1, 21870, Note_on_c, 2, 61, 0
1, 21877, Note_on_c, 0, 56, 0
1, 21886, Note_on_c, 0, 68, 68
1, 21886, Note_on_c, 0, 57, 66
1, 21886, Note_on_c, 2, 68, 64
1, 21886, Note_on_c, 2, 63, 71
1, 21886, Note_on_c, 2, 57, 74
1, 21886, Note_on_c, 2, 61, 70
1, 21886, Note_on_c, 13, 70, 87
1, 21887, Note_on_c, 5, 70, 0
1, 21887, Note_on_c, 5, 75, 102
1, 21887, Note_on_c, 9, 36, 110
1, 21887, Note_on_c, 9, 42, 87
1, 21888, Note_on_c, 9, 42, 0
1, 21888, Note_on_c, 9, 36, 0
1, 21889, Note_on_c, 0, 63, 35
1, 21889, Note_on_c, 0, 61, 9
1, 21889, Note_on_c, 1, 35, 99
1, 21889, Note_on_c, 11, 35, 95
1, 21890, Note_on_c, 13, 73, 0
1, 21893, Note_on_c, 1, 34, 0
1, 21893, Note_on_c, 11, 34, 0
1, 21904, Note_on_c, 0, 61, 0
1, 21905, Note_on_c, 5, 75, 0
1, 21910, Note_on_c, 0, 63, 0
1, 21911, Note_on_c, 13, 70, 0
1, 21911, Note_on_c, 9, 44, 42
1, 21911, Note_on_c, 13, 75, 96
1, 21912, Note_on_c, 9, 44, 0
1, 21912, Note_on_c, 0, 68, 0
1, 21921, Note_on_c, 0, 57, 0
1, 21929, Note_on_c, 13, 75, 0
1, 21931, Note_on_c, 2, 68, 0
1, 21931, Note_on_c, 2, 61, 0
1, 21931, Note_on_c, 2, 63, 0
1, 21931, Note_on_c, 2, 57, 0
1, 21934, Note_on_c, 2, 61, 108
1, 21934, Note_on_c, 2, 68, 93
1, 21934, Note_on_c, 2, 57, 74
1, 21934, Note_on_c, 2, 63, 117
1, 21935, Note_on_c, 9, 42, 55
1, 21935, Note_on_c, 9, 69, 34
1, 21936, Note_on_c, 9, 69, 0
1, 21936, Note_on_c, 9, 42, 0
1, 21936, Note_on_c, 0, 68, 69
1, 21937, Note_on_c, 0, 63, 62
1, 21937, Note_on_c, 0, 57, 68
1, 21937, Note_on_c, 0, 61, 66
1, 21938, Note_on_c, 5, 73, 111
1, 21942, Note_on_c, 2, 63, 0
1, 21943, Note_on_c, 2, 61, 0
1, 21944, Note_on_c, 2, 68, 0
1, 21946, Note_on_c, 2, 57, 0
1, 21953, Note_on_c, 1, 35, 0
1, 21953, Note_on_c, 11, 35, 0
1, 21958, Note_on_c, 0, 63, 0
1, 21959, Note_on_c, 9, 42, 54
1, 21960, Note_on_c, 9, 42, 0
1, 21960, Note_on_c, 2, 63, 67
1, 21960, Note_on_c, 2, 57, 67
1, 21960, Note_on_c, 2, 68, 58
1, 21960, Note_on_c, 9, 69, 27
1, 21961, Note_on_c, 9, 69, 0
1, 21961, Note_on_c, 2, 61, 65
1, 21962, Note_on_c, 13, 73, 105
1, 21966, Note_on_c, 0, 61, 0
1, 21976, Note_on_c, 0, 57, 0
1, 21976, Note_on_c, 0, 68, 0
1, 21983, Note_on_c, 9, 42, 94
1, 21983, Note_on_c, 9, 40, 104
1, 21984, Note_on_c, 9, 40, 0
1, 21984, Note_on_c, 9, 42, 0
1, 21984, Note_on_c, 9, 75, 79
1, 21985, Note_on_c, 9, 75, 0
1, 21985, Note_on_c, 5, 76, 108
1, 21987, Note_on_c, 5, 73, 0
1, 21996, Note_on_c, 2, 63, 0
1, 21996, Note_on_c, 2, 57, 0
1, 21998, Note_on_c, 2, 68, 0
1, 21998, Note_on_c, 2, 61, 0
1, 22007, Note_on_c, 1, 42, 75
1, 22007, Note_on_c, 9, 44, 43
1, 22007, Note_on_c, 11, 42, 71
1, 22008, Note_on_c, 9, 44, 0
1, 22008, Note_on_c, 0, 61, 73
1, 22008, Note_on_c, 0, 57, 55
1, 22008, Note_on_c, 0, 68, 66
1, 22008, Note_on_c, 2, 61, 73
1, 22008, Note_on_c, 2, 57, 72
1, 22008, Note_on_c, 2, 63, 71
1, 22008, Note_on_c, 2, 68, 69
1, 22009, Note_on_c, 0, 63, 81
1, 22009, Note_on_c, 13, 76, 102
1, 22010, Pitch_bend_c, 5, 8452
1, 22011, Note_on_c, 13, 73, 0
1, 22011, Pitch_bend_c, 5, 8582
1, 22012, Pitch_bend_c, 5, 8712
1, 22013, Pitch_bend_c, 5, 8842
1, 22014, Note_on_c, 2, 63, 0
1, 22014, Pitch_bend_c, 5, 8972
1, 22015, Pitch_bend_c, 5, 9102
1, 22016, Note_on_c, 2, 61, 0
1, 22016, Note_on_c, 2, 68, 0
1, 22016, Note_on_c, 2, 57, 0
1, 22016, Pitch_bend_c, 5, 9232
1, 22017, Pitch_bend_c, 5, 9362
1, 22018, Pitch_bend_c, 5, 9622
1, 22020, Pitch_bend_c, 5, 9752
1, 22021, Pitch_bend_c, 5, 9882
1, 22022, Pitch_bend_c, 5, 10012
1, 22025, Pitch_bend_c, 5, 10142
1, 22026, Note_on_c, 0, 57, 0
1, 22026, Pitch_bend_c, 5, 10272
1, 22029, Note_on_c, 2, 68, 95
1, 22029, Note_on_c, 2, 63, 64
1, 22029, Pitch_bend_c, 5, 10402
1, 22030, Note_on_c, 0, 61, 0
1, 22030, Note_on_c, 2, 59, 65
1, 22030, Pitch_bend_c, 5, 10532
1, 22030, Note_on_c, 9, 69, 37
1, 22031, Note_on_c, 9, 69, 0
1, 22031, Note_on_c, 0, 63, 0
1, 22031, Note_on_c, 1, 47, 85
1, 22031, Pitch_bend_c, 5, 10662
1, 22031, Note_on_c, 9, 42, 44
1, 22031, Note_on_c, 11, 47, 81
1, 22032, Note_on_c, 9, 42, 0
1, 22034, Pitch_bend_c, 5, 10792
1, 22034, Pitch_bend_c, 13, 8452
1, 22035, Note_on_c, 1, 42, 0
1, 22035, Note_on_c, 11, 42, 0
1, 22035, Pitch_bend_c, 13, 8582
1, 22036, Pitch_bend_c, 13, 8712
1, 22037, Pitch_bend_c, 5, 10922
1, 22037, Pitch_bend_c, 13, 8842
1, 22038, Pitch_bend_c, 13, 8972
1, 22039, Pitch_bend_c, 13, 9102
1, 22040, Pitch_bend_c, 13, 9232
1, 22041, Note_on_c, 2, 63, 0
1, 22041, Pitch_bend_c, 13, 9362
1, 22042, Pitch_bend_c, 5, 11052
1, 22042, Pitch_bend_c, 13, 9622
1, 22044, Pitch_bend_c, 13, 9752
1, 22045, Pitch_bend_c, 13, 9882
1, 22046, Pitch_bend_c, 5, 11312
1, 22046, Pitch_bend_c, 13, 10012
1, 22048, Pitch_bend_c, 5, 11442
1, 22049, Note_on_c, 2, 68, 0
1, 22049, Pitch_bend_c, 13, 10142
1, 22050, Pitch_bend_c, 13, 10272
1, 22052, Note_on_c, 2, 59, 0
1, 22053, Pitch_bend_c, 13, 10402
1, 22054, Note_on_c, 2, 63, 61
1, 22054, Note_on_c, 2, 68, 90
1, 22054, Pitch_bend_c, 13, 10532
1, 22055, Note_on_c, 0, 57, 55
1, 22055, Note_on_c, 1, 42, 74
1, 22055, Pitch_bend_c, 5, 11572
1, 22055, Note_on_c, 9, 42, 55
1, 22055, Note_on_c, 9, 69, 33
1, 22055, Note_on_c, 11, 42, 70
1, 22055, Pitch_bend_c, 13, 10662
1, 22056, Note_on_c, 9, 69, 0
1, 22056, Note_on_c, 9, 42, 0
1, 22056, Note_on_c, 0, 68, 0
1, 22057, Note_on_c, 9, 36, 105
1, 22058, Note_on_c, 9, 36, 0
1, 22058, Pitch_bend_c, 13, 10792
1, 22059, Note_on_c, 11, 47, 0
1, 22059, Note_on_c, 1, 47, 0
1, 22059, Pitch_bend_c, 5, 11702
1, 22061, Pitch_bend_c, 13, 10922
1, 22062, Note_on_c, 2, 68, 0
1, 22063, Pitch_bend_c, 5, 11832
1, 22066, Note_on_c, 2, 63, 0
1, 22066, Pitch_bend_c, 5, 12092
1, 22066, Pitch_bend_c, 13, 11052
1, 22069, Pitch_bend_c, 5, 12222
1, 22070, Pitch_bend_c, 5, 12352
1, 22070, Pitch_bend_c, 13, 11312
1, 22071, Note_on_c, 5, 76, 0
1, 22071, Pitch_bend_c, 5, 12482
1, 22072, Pitch_bend_c, 5, 12612
1, 22072, Pitch_bend_c, 13, 11442
1, 22073, Pitch_bend_c, 5, 12872
1, 22074, Pitch_bend_c, 5, 13262
1, 22075, Pitch_bend_c, 5, 13392
1, 22076, Pitch_bend_c, 5, 13522
1, 22078, Note_on_c, 2, 57, 67
1, 22078, Note_on_c, 2, 61, 71
1, 22078, Note_on_c, 2, 63, 74
1, 22078, Note_on_c, 2, 68, 59
1, 22078, Pitch_bend_c, 5, 13652
1, 22079, Note_on_c, 1, 42, 0
1, 22079, Note_on_c, 11, 42, 0
1, 22079, Note_on_c, 0, 66, 57
1, 22079, Note_on_c, 1, 45, 84
1, 22079, Note_on_c, 9, 36, 69
1, 22079, Note_on_c, 9, 42, 78
1, 22079, Note_on_c, 11, 45, 80
1, 22079, Pitch_bend_c, 13, 11572
1, 22080, Note_on_c, 9, 42, 0
1, 22080, Note_on_c, 9, 36, 0
1, 22080, Note_on_c, 0, 63, 46
1, 22081, Note_on_c, 0, 61, 48
1, 22082, Pitch_bend_c, 5, 12612
1, 22083, Pitch_bend_c, 5, 10662
1, 22083, Pitch_bend_c, 13, 11702
1, 22084, Pitch_bend_c, 5, 9232
1, 22085, Pitch_bend_c, 5, 8192
1, 22087, Pitch_bend_c, 13, 11832
1, 22090, Note_on_c, 0, 61, 0
1, 22090, Note_on_c, 0, 63, 0
1, 22090, Pitch_bend_c, 13, 12092
1, 22091, Note_on_c, 0, 66, 0
1, 22093, Pitch_bend_c, 13, 12222
1, 22094, Note_on_c, 0, 57, 0
1, 22094, Pitch_bend_c, 13, 12352
1, 22095, Note_on_c, 13, 76, 0
1, 22095, Pitch_bend_c, 13, 12482
1, 22096, Pitch_bend_c, 13, 12612
1, 22097, Pitch_bend_c, 13, 12872
1, 22098, Pitch_bend_c, 13, 13262
1, 22099, Pitch_bend_c, 13, 13392
1, 22100, Pitch_bend_c, 13, 13522
1, 22102, Pitch_bend_c, 13, 13652
1, 22103, Note_on_c, 1, 40, 62
1, 22103, Note_on_c, 9, 44, 49
1, 22103, Note_on_c, 11, 40, 58
1, 22104, Note_on_c, 9, 44, 0
1, 22106, Note_on_c, 1, 45, 0
1, 22106, Note_on_c, 11, 45, 0
1, 22106, Pitch_bend_c, 13, 12612
1, 22107, Pitch_bend_c, 13, 10662
1, 22108, Pitch_bend_c, 13, 9232
1, 22109, Pitch_bend_c, 13, 8192
1, 22125, Note_on_c, 2, 68, 0
1, 22125, Note_on_c, 2, 61, 0
1, 22125, Note_on_c, 2, 57, 0
1, 22126, Note_on_c, 2, 63, 0
1, 22126, Note_on_c, 2, 61, 114
1, 22126, Note_on_c, 2, 68, 83
1, 22126, Note_on_c, 2, 57, 73
1, 22126, Note_on_c, 9, 69, 37
1, 22127, Note_on_c, 9, 69, 0
1, 22127, Note_on_c, 9, 42, 46
1, 22127, Note_on_c, 9, 36, 107
1, 22128, Note_on_c, 9, 36, 0
1, 22128, Note_on_c, 9, 42, 0
1, 22128, Note_on_c, 2, 63, 117
1, 22129, Note_on_c, 0, 63, 79
1, 22129, Note_on_c, 0, 66, 80
1, 22129, Note_on_c, 0, 57, 73
1, 22129, Note_on_c, 0, 61, 79
1, 22129, Note_on_c, 1, 45, 84
1, 22129, Note_on_c, 11, 45, 80
1, 22131, Note_on_c, 11, 40, 0
1, 22131, Note_on_c, 1, 40, 0
1, 22137, Note_on_c, 2, 61, 0
1, 22138, Note_on_c, 2, 57, 0
1, 22138, Note_on_c, 2, 63, 0
1, 22140, Note_on_c, 2, 68, 0
1, 22150, Note_on_c, 2, 61, 67
1, 22150, Note_on_c, 2, 63, 69
1, 22150, Note_on_c, 9, 69, 27
1, 22151, Note_on_c, 9, 69, 0
1, 22151, Note_on_c, 9, 42, 42
1, 22152, Note_on_c, 9, 42, 0
1, 22152, Note_on_c, 2, 68, 60
1, 22152, Note_on_c, 2, 57, 74
1, 22162, Note_on_c, 0, 63, 0
1, 22168, Note_on_c, 0, 57, 0
1, 22171, Note_on_c, 0, 61, 0
1, 22174, Note_on_c, 0, 66, 0
1, 22174, Note_on_c, 5, 68, 97
1, 22175, Note_on_c, 0, 57, 41
1, 22175, Note_on_c, 9, 40, 107
1, 22176, Note_on_c, 9, 40, 0
1, 22176, Note_on_c, 5, 70, 111
1, 22176, Note_on_c, 9, 75, 79
1, 22176, Note_on_c, 9, 42, 87
1, 22177, Note_on_c, 9, 42, 0
1, 22177, Note_on_c, 9, 75, 0
1, 22184, Note_on_c, 5, 68, 0
1, 22185, Note_on_c, 2, 61, 0
1, 22188, Note_on_c, 2, 57, 0
1, 22188, Note_on_c, 2, 63, 0
1, 22189, Note_on_c, 2, 68, 0
1, 22198, Note_on_c, 1, 45, 0
1, 22198, Note_on_c, 11, 45, 0
1, 22198, Note_on_c, 2, 57, 75
1, 22198, Note_on_c, 2, 68, 71
1, 22198, Note_on_c, 13, 68, 91
1, 22199, Note_on_c, 1, 33, 80
1, 22199, Note_on_c, 9, 44, 44
1, 22199, Note_on_c, 11, 33, 76
1, 22200, Note_on_c, 9, 44, 0
1, 22200, Note_on_c, 2, 63, 72
1, 22200, Note_on_c, 2, 61, 69
1, 22200, Note_on_c, 13, 70, 105
1, 22201, Note_on_c, 0, 61, 77
1, 22201, Note_on_c, 0, 66, 73
1, 22201, Note_on_c, 0, 63, 84
1, 22206, Note_on_c, 2, 57, 0
1, 22208, Note_on_c, 2, 63, 0
1, 22208, Note_on_c, 13, 68, 0
1, 22209, Note_on_c, 2, 61, 0
1, 22209, Note_on_c, 2, 68, 0
1, 22218, Note_on_c, 0, 57, 0
1, 22221, Note_on_c, 2, 68, 87
1, 22222, Note_on_c, 2, 63, 63
1, 22222, Note_on_c, 9, 69, 39
1, 22223, Note_on_c, 9, 69, 0
1, 22223, Note_on_c, 11, 33, 0
1, 22223, Note_on_c, 1, 33, 0
1, 22223, Note_on_c, 1, 30, 64
1, 22223, Note_on_c, 9, 42, 48
1, 22223, Note_on_c, 11, 30, 60
1, 22224, Note_on_c, 9, 42, 0
1, 22224, Note_on_c, 2, 59, 63
1, 22224, Note_on_c, 5, 73, 105
1, 22230, Note_on_c, 5, 70, 0
1, 22235, Note_on_c, 0, 63, 0
1, 22236, Note_on_c, 2, 59, 0
1, 22237, Note_on_c, 0, 66, 0
1, 22238, Note_on_c, 2, 63, 0
1, 22240, Note_on_c, 5, 73, 0
1, 22241, Note_on_c, 0, 61, 0
1, 22241, Note_on_c, 2, 68, 0
1, 22245, Note_on_c, 2, 68, 90
1, 22246, Note_on_c, 1, 30, 0
1, 22246, Note_on_c, 11, 30, 0
1, 22246, Note_on_c, 2, 63, 69
1, 22247, Note_on_c, 1, 31, 85
1, 22247, Note_on_c, 9, 42, 43
1, 22247, Note_on_c, 9, 69, 27
1, 22247, Note_on_c, 11, 31, 81
1, 22248, Note_on_c, 9, 69, 0
1, 22248, Note_on_c, 9, 42, 0
1, 22248, Note_on_c, 0, 57, 57
1, 22248, Note_on_c, 13, 73, 99
1, 22251, Note_on_c, 2, 68, 0
1, 22254, Note_on_c, 13, 70, 0
1, 22254, Note_on_c, 2, 63, 0
1, 22261, Note_on_c, 0, 57, 0
1, 22264, Note_on_c, 13, 73, 0
1, 22270, Note_on_c, 0, 65, 61
1, 22270, Note_on_c, 2, 65, 72
1, 22270, Note_on_c, 2, 61, 83
1, 22270, Note_on_c, 2, 58, 79
1, 22271, Note_on_c, 0, 58, 63
1, 22271, Note_on_c, 0, 61, 65
1, 22271, Note_on_c, 1, 32, 97
1, 22271, Note_on_c, 9, 36, 115
1, 22271, Note_on_c, 9, 42, 87
1, 22271, Note_on_c, 11, 32, 93
1, 22272, Note_on_c, 9, 42, 0
1, 22272, Note_on_c, 9, 36, 0
1, 22272, Note_on_c, 2, 56, 59
1, 22274, Note_on_c, 11, 31, 0
1, 22274, Note_on_c, 1, 31, 0
1, 22274, Note_on_c, 5, 75, 118
1, 22295, Note_on_c, 9, 44, 41
1, 22296, Note_on_c, 9, 44, 0
1, 22298, Note_on_c, 13, 75, 112
1, 22302, Note_on_c, 0, 58, 0
1, 22302, Note_on_c, 0, 65, 0
1, 22302, Pitch_bend_c, 5, 8322
1, 22303, Pitch_bend_c, 5, 8582
1, 22304, Note_on_c, 0, 61, 0
1, 22304, Pitch_bend_c, 5, 8842
1, 22305, Pitch_bend_c, 5, 8972
1, 22306, Pitch_bend_c, 5, 9362
1, 22307, Pitch_bend_c, 5, 9622
1, 22308, Pitch_bend_c, 5, 9752
1, 22310, Pitch_bend_c, 5, 10012
1, 22314, Pitch_bend_c, 5, 9882
1, 22315, Pitch_bend_c, 5, 9232
1, 22316, Pitch_bend_c, 5, 8192
1, 22318, Note_on_c, 2, 61, 0
1, 22318, Note_on_c, 2, 65, 0
1, 22318, Note_on_c, 2, 56, 0
1, 22318, Note_on_c, 2, 58, 0
1, 22318, Note_on_c, 9, 69, 46
1, 22319, Note_on_c, 9, 69, 0
1, 22319, Note_on_c, 0, 61, 67
1, 22319, Note_on_c, 0, 65, 59
1, 22319, Note_on_c, 9, 42, 52
1, 22320, Note_on_c, 9, 42, 0
1, 22320, Note_on_c, 0, 58, 64
1, 22320, Note_on_c, 2, 56, 86
1, 22320, Note_on_c, 2, 58, 104
1, 22320, Note_on_c, 2, 61, 100
1, 22320, Note_on_c, 2, 65, 83
1, 22321, Note_on_c, 5, 76, 99
1, 22322, Note_on_c, 5, 75, 0
1, 22322, Note_on_c, 0, 56, 41
1, 22326, Pitch_bend_c, 13, 8322
1, 22327, Pitch_bend_c, 13, 8582
1, 22328, Note_on_c, 2, 61, 0
1, 22328, Pitch_bend_c, 13, 8842
1, 22329, Pitch_bend_c, 13, 8972
1, 22330, Note_on_c, 2, 56, 0
1, 22330, Note_on_c, 2, 58, 0
1, 22330, Pitch_bend_c, 13, 9362
1, 22331, Pitch_bend_c, 13, 9622
1, 22332, Pitch_bend_c, 13, 9752
1, 22333, Note_on_c, 2, 65, 0
1, 22333, Note_on_c, 5, 75, 92
1, 22334, Pitch_bend_c, 13, 10012
1, 22335, Note_on_c, 0, 56, 0
1, 22337, Note_on_c, 0, 58, 0
1, 22338, Pitch_bend_c, 13, 9882
1, 22339, Pitch_bend_c, 13, 9232
1, 22340, Note_on_c, 0, 61, 0
1, 22340, Pitch_bend_c, 13, 8192
1, 22342, Note_on_c, 5, 76, 0
1, 22343, Note_on_c, 0, 65, 0
1, 22343, Note_on_c, 9, 42, 45
1, 22343, Note_on_c, 9, 69, 33
1, 22344, Note_on_c, 9, 69, 0
1, 22344, Note_on_c, 9, 42, 0
1, 22344, Note_on_c, 2, 58, 64
1, 22344, Note_on_c, 2, 65, 74
1, 22344, Note_on_c, 2, 56, 63
1, 22344, Note_on_c, 2, 61, 74
1, 22345, Note_on_c, 13, 76, 93
1, 22346, Note_on_c, 13, 75, 0
1, 22346, Note_on_c, 5, 73, 92
1, 22352, Note_on_c, 5, 75, 0
1, 22357, Note_on_c, 13, 75, 86
1, 22358, Note_on_c, 5, 70, 97
1, 22360, Note_on_c, 11, 32, 0
1, 22360, Note_on_c, 1, 32, 0
1, 22362, Note_on_c, 5, 73, 0
1, 22366, Note_on_c, 13, 76, 0
1, 22367, Note_on_c, 9, 40, 101
1, 22367, Note_on_c, 9, 75, 74
1, 22367, Note_on_c, 9, 42, 81
1, 22368, Note_on_c, 9, 42, 0
1, 22368, Note_on_c, 9, 75, 0
1, 22368, Note_on_c, 9, 40, 0
1, 22370, Note_on_c, 5, 73, 111
1, 22370, Note_on_c, 13, 73, 86
1, 22374, Note_on_c, 5, 70, 0
1, 22376, Note_on_c, 13, 75, 0
1, 22380, Note_on_c, 2, 56, 0
1, 22380, Note_on_c, 2, 65, 0
1, 22380, Note_on_c, 2, 61, 0
1, 22380, Note_on_c, 2, 58, 0
1, 22382, Note_on_c, 13, 70, 91
1, 22386, Note_on_c, 13, 73, 0
1, 22390, Note_on_c, 2, 65, 70
1, 22391, Note_on_c, 0, 58, 68
1, 22391, Note_on_c, 0, 56, 67
1, 22391, Note_on_c, 0, 65, 73
1, 22391, Note_on_c, 9, 44, 48
1, 22392, Note_on_c, 9, 44, 0
1, 22392, Note_on_c, 2, 58, 67
1, 22392, Note_on_c, 2, 61, 71
1, 22392, Note_on_c, 2, 56, 67
1, 22394, Note_on_c, 13, 73, 105
1, 22397, Note_on_c, 2, 61, 0
1, 22398, Note_on_c, 2, 56, 0
1, 22398, Note_on_c, 2, 58, 0
1, 22398, Note_on_c, 13, 70, 0
1, 22398, Note_on_c, 2, 65, 0
1, 22409, Note_on_c, 0, 56, 0
1, 22413, Note_on_c, 2, 65, 87
1, 22414, Note_on_c, 0, 61, 54
1, 22414, Note_on_c, 2, 58, 47
1, 22414, Note_on_c, 2, 61, 60
1, 22415, Note_on_c, 5, 76, 114
1, 22415, Note_on_c, 9, 69, 41
1, 22415, Note_on_c, 9, 42, 48
1, 22416, Note_on_c, 9, 42, 0
1, 22416, Note_on_c, 9, 69, 0
1, 22419, Note_on_c, 5, 73, 0
1, 22419, Note_on_c, 0, 58, 0
1, 22424, Note_on_c, 2, 61, 0
1, 22430, Note_on_c, 0, 65, 0
1, 22433, Note_on_c, 2, 65, 0
1, 22434, Note_on_c, 2, 58, 0
1, 22437, Note_on_c, 0, 61, 0
1, 22438, Note_on_c, 0, 56, 53
1, 22438, Note_on_c, 2, 65, 81
1, 22438, Note_on_c, 2, 61, 61
1, 22438, Pitch_bend_c, 5, 8322
1, 22439, Note_on_c, 1, 39, 79
1, 22439, Pitch_bend_c, 5, 8452
1, 22439, Note_on_c, 9, 36, 104
1, 22439, Note_on_c, 9, 42, 42
1, 22439, Note_on_c, 11, 39, 75
1, 22439, Note_on_c, 13, 76, 108
1, 22440, Note_on_c, 9, 42, 0
1, 22440, Note_on_c, 9, 36, 0
1, 22440, Note_on_c, 9, 69, 33
1, 22441, Note_on_c, 9, 69, 0
1, 22441, Pitch_bend_c, 5, 8582
1, 22442, Pitch_bend_c, 5, 8712
1, 22443, Note_on_c, 13, 73, 0
1, 22444, Pitch_bend_c, 5, 8842
1, 22446, Note_on_c, 2, 61, 0
1, 22446, Note_on_c, 2, 65, 0
1, 22446, Pitch_bend_c, 5, 8972
1, 22447, Pitch_bend_c, 5, 9102
1, 22448, Pitch_bend_c, 5, 9232
1, 22449, Pitch_bend_c, 5, 9362
1, 22450, Pitch_bend_c, 5, 9492
1, 22451, Pitch_bend_c, 5, 9622
1, 22452, Pitch_bend_c, 5, 9752
1, 22454, Pitch_bend_c, 5, 10012
1, 22456, Pitch_bend_c, 5, 10142
1, 22457, Pitch_bend_c, 5, 10272
1, 22458, Note_on_c, 0, 56, 0
1, 22458, Pitch_bend_c, 5, 10532
1, 22460, Pitch_bend_c, 5, 10662
1, 22461, Note_on_c, 11, 39, 0
1, 22461, Note_on_c, 1, 39, 0
1, 22462, Note_on_c, 2, 65, 64
1, 22462, Note_on_c, 2, 61, 93
1, 22462, Note_on_c, 2, 58, 87
1, 22462, Note_on_c, 2, 56, 60
1, 22462, Pitch_bend_c, 5, 10922
1, 22462, Pitch_bend_c, 13, 8322
1, 22463, Note_on_c, 0, 56, 61
1, 22463, Note_on_c, 0, 58, 69
1, 22463, Note_on_c, 0, 65, 75
1, 22463, Note_on_c, 1, 44, 74
1, 22463, Pitch_bend_c, 5, 11052
1, 22463, Note_on_c, 9, 36, 67
1, 22463, Note_on_c, 11, 44, 70
1, 22463, Pitch_bend_c, 13, 8452
1, 22464, Note_on_c, 9, 36, 0
1, 22464, Pitch_bend_c, 5, 11312
1, 22464, Note_on_c, 9, 42, 83
1, 22465, Note_on_c, 9, 42, 0
1, 22465, Pitch_bend_c, 5, 11442
1, 22465, Pitch_bend_c, 13, 8582
1, 22466, Pitch_bend_c, 5, 11702
1, 22466, Pitch_bend_c, 13, 8712
1, 22468, Pitch_bend_c, 5, 11962
1, 22468, Pitch_bend_c, 13, 8842
1, 22469, Pitch_bend_c, 5, 12092
1, 22470, Pitch_bend_c, 5, 12222
1, 22470, Pitch_bend_c, 13, 8972
1, 22471, Pitch_bend_c, 5, 12352
1, 22471, Pitch_bend_c, 13, 9102
1, 22472, Pitch_bend_c, 5, 12482
1, 22472, Pitch_bend_c, 13, 9232
1, 22473, Note_on_c, 5, 76, 0
1, 22473, Pitch_bend_c, 13, 9362
1, 22474, Pitch_bend_c, 5, 12092
1, 22474, Pitch_bend_c, 13, 9492
1, 22475, Pitch_bend_c, 5, 11442
1, 22475, Pitch_bend_c, 13, 9622
1, 22476, Pitch_bend_c, 5, 10272
1, 22476, Pitch_bend_c, 13, 9752
1, 22477, Pitch_bend_c, 5, 9232
1, 22478, Pitch_bend_c, 5, 8192
1, 22478, Pitch_bend_c, 13, 10012
1, 22480, Pitch_bend_c, 13, 10142
1, 22481, Pitch_bend_c, 13, 10272
1, 22482, Pitch_bend_c, 13, 10532
1, 22484, Pitch_bend_c, 13, 10662
1, 22486, Note_on_c, 0, 56, 0
1, 22486, Pitch_bend_c, 13, 10922
1, 22487, Note_on_c, 1, 32, 75
1, 22487, Note_on_c, 9, 44, 42
1, 22487, Note_on_c, 11, 32, 71
1, 22487, Pitch_bend_c, 13, 11052
1, 22488, Note_on_c, 9, 44, 0
1, 22488, Pitch_bend_c, 13, 11312
1, 22489, Pitch_bend_c, 13, 11442
1, 22490, Note_on_c, 1, 44, 0
1, 22490, Note_on_c, 11, 44, 0
1, 22490, Pitch_bend_c, 13, 11702
1, 22492, Pitch_bend_c, 13, 11962
1, 22493, Pitch_bend_c, 13, 12092
1, 22494, Pitch_bend_c, 13, 12222
1, 22495, Pitch_bend_c, 13, 12352
1, 22496, Pitch_bend_c, 13, 12482
1, 22497, Note_on_c, 13, 76, 0
1, 22498, Note_on_c, 0, 58, 0
1, 22498, Pitch_bend_c, 13, 12092
1, 22499, Pitch_bend_c, 13, 11442
1, 22500, Pitch_bend_c, 13, 10272
1, 22501, Pitch_bend_c, 13, 9232
1, 22502, Note_on_c, 0, 65, 0
1, 22502, Pitch_bend_c, 13, 8192
1, 22510, Note_on_c, 2, 56, 0
1, 22510, Note_on_c, 2, 61, 0
1, 22510, Note_on_c, 2, 58, 0
1, 22510, Note_on_c, 2, 65, 0
1, 22510, Note_on_c, 0, 56, 51
1, 22510, Note_on_c, 9, 69, 41
1, 22511, Note_on_c, 9, 69, 0
1, 22511, Note_on_c, 1, 44, 80
1, 22511, Note_on_c, 9, 36, 105
1, 22511, Note_on_c, 9, 42, 46
1, 22511, Note_on_c, 11, 44, 76
1, 22512, Note_on_c, 9, 42, 0
1, 22512, Note_on_c, 9, 36, 0
1, 22512, Note_on_c, 2, 58, 112
1, 22512, Note_on_c, 2, 56, 98
1, 22512, Note_on_c, 2, 61, 108
1, 22512, Note_on_c, 2, 65, 87
1, 22512, Note_on_c, 5, 70, 94
1, 22513, Note_on_c, 11, 32, 0
1, 22513, Note_on_c, 1, 32, 0
1, 22521, Note_on_c, 2, 61, 0
1, 22521, Note_on_c, 2, 58, 0
1, 22523, Note_on_c, 5, 70, 0
1, 22524, Note_on_c, 2, 65, 0
1, 22524, Note_on_c, 2, 56, 0
1, 22525, Note_on_c, 0, 56, 0
1, 22534, Note_on_c, 0, 58, 62
1, 22534, Note_on_c, 0, 65, 70
1, 22534, Note_on_c, 9, 69, 23
1, 22535, Note_on_c, 9, 69, 0
1, 22535, Note_on_c, 0, 56, 59
1, 22535, Note_on_c, 9, 42, 55
1, 22536, Note_on_c, 9, 42, 0
1, 22536, Note_on_c, 2, 58, 67
1, 22536, Note_on_c, 2, 65, 68
1, 22536, Note_on_c, 2, 61, 73
1, 22536, Note_on_c, 2, 56, 69
1, 22536, Note_on_c, 13, 70, 88
1, 22547, Note_on_c, 13, 70, 0
1, 22553, Note_on_c, 0, 56, 0
1, 22559, Note_on_c, 0, 58, 0
1, 22559, Note_on_c, 9, 42, 81
1, 22559, Note_on_c, 9, 40, 105
1, 22559, Note_on_c, 9, 75, 79
1, 22560, Note_on_c, 9, 75, 0
1, 22560, Note_on_c, 9, 40, 0
1, 22560, Note_on_c, 0, 65, 0
1, 22560, Note_on_c, 9, 42, 0
1, 22561, Note_on_c, 5, 73, 114
1, 22572, Note_on_c, 2, 61, 0
1, 22572, Note_on_c, 2, 65, 0
1, 22573, Note_on_c, 2, 58, 0
1, 22574, Note_on_c, 2, 56, 0
1, 22580, Note_on_c, 1, 44, 0
1, 22580, Note_on_c, 11, 44, 0
1, 22582, Pitch_bend_c, 5, 8712
1, 22583, Note_on_c, 0, 56, 70
1, 22583, Note_on_c, 0, 58, 73
1, 22583, Note_on_c, 0, 65, 61
1, 22583, Note_on_c, 1, 32, 72
1, 22583, Pitch_bend_c, 5, 8972
1, 22583, Note_on_c, 9, 44, 46
1, 22583, Note_on_c, 11, 32, 68
1, 22584, Note_on_c, 9, 44, 0
1, 22584, Note_on_c, 2, 61, 64
1, 22584, Note_on_c, 2, 65, 66
1, 22584, Note_on_c, 2, 58, 61
1, 22584, Note_on_c, 2, 56, 74
1, 22584, Pitch_bend_c, 5, 9232
1, 22585, Pitch_bend_c, 5, 9492
1, 22585, Note_on_c, 13, 73, 108
1, 22586, Pitch_bend_c, 5, 9752
1, 22587, Pitch_bend_c, 5, 9882
1, 22588, Pitch_bend_c, 5, 10012
1, 22589, Pitch_bend_c, 5, 10142
1, 22592, Note_on_c, 2, 56, 0
1, 22592, Note_on_c, 2, 58, 0
1, 22592, Note_on_c, 2, 61, 0
1, 22593, Pitch_bend_c, 5, 9882
1, 22594, Note_on_c, 2, 65, 0
1, 22594, Pitch_bend_c, 5, 8712
1, 22595, Pitch_bend_c, 5, 8192
1, 22605, Note_on_c, 0, 56, 0
1, 22605, Note_on_c, 2, 65, 81
1, 22606, Note_on_c, 2, 61, 54
1, 22606, Note_on_c, 2, 58, 59
1, 22606, Note_on_c, 9, 69, 46
1, 22606, Pitch_bend_c, 13, 8712
1, 22607, Note_on_c, 9, 69, 0
1, 22607, Note_on_c, 1, 39, 80
1, 22607, Note_on_c, 9, 42, 45
1, 22607, Note_on_c, 11, 39, 76
1, 22607, Pitch_bend_c, 13, 8972
1, 22608, Note_on_c, 9, 42, 0
1, 22608, Pitch_bend_c, 13, 9232
1, 22609, Note_on_c, 1, 32, 0
1, 22609, Note_on_c, 11, 32, 0
1, 22609, Note_on_c, 0, 61, 26
1, 22609, Pitch_bend_c, 13, 9492
1, 22610, Pitch_bend_c, 13, 9752
1, 22611, Pitch_bend_c, 13, 9882
1, 22612, Pitch_bend_c, 13, 10012
1, 22613, Note_on_c, 5, 70, 96
1, 22613, Pitch_bend_c, 13, 10142
1, 22614, Note_on_c, 5, 73, 0
1, 22614, Note_on_c, 0, 58, 0
1, 22617, Pitch_bend_c, 13, 9882
1, 22618, Note_on_c, 2, 61, 0
1, 22618, Note_on_c, 0, 65, 0
1, 22618, Pitch_bend_c, 13, 8712
1, 22619, Pitch_bend_c, 13, 8192
1, 22626, Note_on_c, 2, 65, 0
1, 22630, Note_on_c, 2, 58, 0
1, 22630, Note_on_c, 11, 39, 0
1, 22630, Note_on_c, 0, 61, 0
1, 22630, Note_on_c, 1, 39, 0
1, 22630, Note_on_c, 2, 65, 81
1, 22630, Note_on_c, 2, 61, 77
1, 22630, Note_on_c, 9, 69, 27
1, 22631, Note_on_c, 9, 69, 0
1, 22631, Note_on_c, 0, 56, 53
1, 22631, Note_on_c, 1, 32, 70
1, 22631, Note_on_c, 9, 42, 47
1, 22631, Note_on_c, 11, 32, 66
1, 22632, Note_on_c, 9, 42, 0
1, 22634, Note_on_c, 5, 70, 0
1, 22637, Note_on_c, 13, 70, 90
1, 22638, Note_on_c, 2, 61, 0
1, 22638, Note_on_c, 13, 73, 0
1, 22638, Note_on_c, 2, 65, 0
1, 22653, Note_on_c, 0, 56, 0
1, 22654, Note_on_c, 2, 59, 83
1, 22654, Note_on_c, 2, 53, 65
1, 22654, Note_on_c, 2, 56, 61
1, 22654, Note_on_c, 2, 63, 87
1, 22655, Note_on_c, 0, 65, 61
1, 22655, Note_on_c, 0, 61, 65
1, 22655, Note_on_c, 1, 37, 88
1, 22655, Note_on_c, 9, 36, 115
1, 22655, Note_on_c, 11, 37, 84
1, 22656, Note_on_c, 9, 36, 0
1, 22657, Note_on_c, 0, 59, 58
1, 22657, Note_on_c, 9, 42, 81
1, 22658, Note_on_c, 9, 42, 0
1, 22658, Note_on_c, 13, 70, 0
1, 22658, Note_on_c, 11, 32, 0
1, 22658, Note_on_c, 1, 32, 0
1, 22658, Note_on_c, 0, 56, 41
1, 22672, Note_on_c, 0, 59, 0
1, 22675, Note_on_c, 0, 56, 0
1, 22678, Note_on_c, 0, 65, 0
1, 22678, Note_on_c, 0, 61, 0
1, 22680, Note_on_c, 9, 44, 46
1, 22681, Note_on_c, 9, 44, 0
1, 22702, Note_on_c, 2, 56, 0
1, 22702, Note_on_c, 2, 59, 0
1, 22702, Note_on_c, 2, 53, 0
1, 22702, Note_on_c, 2, 63, 0
1, 22702, Note_on_c, 9, 69, 39
1, 22703, Note_on_c, 9, 69, 0
1, 22703, Note_on_c, 0, 65, 70
1, 22703, Note_on_c, 9, 42, 57
1, 22704, Note_on_c, 9, 42, 0
1, 22704, Note_on_c, 2, 53, 48
1, 22704, Note_on_c, 2, 56, 43
1, 22704, Note_on_c, 2, 59, 83
1, 22704, Note_on_c, 2, 63, 74
1, 22705, Note_on_c, 0, 56, 58
1, 22705, Note_on_c, 0, 61, 65
1, 22705, Note_on_c, 0, 59, 87
1, 22714, Note_on_c, 2, 59, 0
1, 22716, Note_on_c, 1, 37, 0
1, 22716, Note_on_c, 11, 37, 0
1, 22716, Note_on_c, 2, 56, 0
1, 22717, Note_on_c, 2, 63, 0
1, 22720, Note_on_c, 2, 53, 0
1, 22727, Note_on_c, 9, 42, 46
1, 22727, Note_on_c, 9, 69, 33
1, 22728, Note_on_c, 9, 69, 0
1, 22728, Note_on_c, 9, 42, 0
1, 22728, Note_on_c, 2, 56, 63
1, 22728, Note_on_c, 2, 63, 68
1, 22728, Note_on_c, 2, 53, 68
1, 22728, Note_on_c, 2, 59, 74
1, 22743, Note_on_c, 0, 59, 0
1, 22747, Note_on_c, 0, 61, 0
1, 22747, Note_on_c, 0, 65, 0
1, 22751, Note_on_c, 9, 75, 76
1, 22752, Note_on_c, 9, 75, 0
1, 22752, Note_on_c, 9, 40, 107
1, 22752, Note_on_c, 9, 42, 91
1, 22753, Note_on_c, 9, 42, 0
1, 22753, Note_on_c, 9, 40, 0
1, 22755, Note_on_c, 0, 56, 0
1, 22760, Note_on_c, 2, 53, 0
1, 22762, Note_on_c, 2, 56, 0
1, 22764, Note_on_c, 2, 63, 0
1, 22764, Note_on_c, 2, 59, 0
1, 22774, Note_on_c, 2, 59, 74
1, 22774, Note_on_c, 2, 63, 72
1, 22774, Note_on_c, 2, 53, 70
1, 22775, Note_on_c, 9, 44, 42
1, 22776, Note_on_c, 9, 44, 0
1, 22776, Note_on_c, 2, 56, 58
1, 22777, Note_on_c, 0, 59, 87
1, 22777, Note_on_c, 0, 65, 73
1, 22778, Note_on_c, 0, 56, 58
1, 22781, Note_on_c, 2, 59, 0
1, 22782, Note_on_c, 2, 56, 0
1, 22782, Note_on_c, 2, 63, 0
1, 22784, Note_on_c, 2, 53, 0
1, 22797, Note_on_c, 0, 56, 0
1, 22797, Note_on_c, 2, 56, 58
1, 22798, Note_on_c, 2, 59, 58
1, 22798, Note_on_c, 2, 63, 87
1, 22799, Note_on_c, 9, 69, 37
1, 22800, Note_on_c, 9, 69, 0
1, 22800, Note_on_c, 9, 42, 49
1, 22801, Note_on_c, 9, 42, 0
1, 22801, Note_on_c, 0, 61, 46
1, 22802, Note_on_c, 0, 59, 0
1, 22806, Note_on_c, 2, 59, 0
1, 22809, Note_on_c, 0, 65, 0
1, 22815, Note_on_c, 2, 63, 0
1, 22821, Note_on_c, 2, 56, 0
1, 22822, Note_on_c, 2, 59, 66
1, 22822, Note_on_c, 2, 63, 87
1, 22823, Note_on_c, 1, 37, 73
1, 22823, Note_on_c, 9, 69, 27
1, 22823, Note_on_c, 9, 42, 38
1, 22823, Note_on_c, 11, 37, 69
1, 22824, Note_on_c, 9, 42, 0
1, 22824, Note_on_c, 9, 69, 0
1, 22825, Note_on_c, 0, 61, 0
1, 22825, Note_on_c, 0, 56, 52
1, 22825, Note_on_c, 9, 36, 93
1, 22826, Note_on_c, 9, 36, 0
1, 22830, Note_on_c, 2, 63, 0
1, 22830, Note_on_c, 2, 59, 0
1, 22845, Note_on_c, 5, 81, 107
1, 22846, Note_on_c, 2, 63, 76
1, 22846, Note_on_c, 2, 53, 62
1, 22846, Note_on_c, 2, 56, 53
1, 22846, Note_on_c, 2, 59, 77
1, 22847, Note_on_c, 1, 43, 78
1, 22847, Note_on_c, 9, 36, 65
1, 22847, Note_on_c, 11, 43, 74
1, 22848, Note_on_c, 9, 36, 0
1, 22848, Note_on_c, 1, 37, 0
1, 22848, Note_on_c, 11, 37, 0
1, 22849, Note_on_c, 0, 65, 79
1, 22849, Note_on_c, 9, 42, 86
1, 22850, Note_on_c, 9, 42, 0
1, 22850, Note_on_c, 0, 59, 84
1, 22860, Pitch_bend_c, 5, 8452
1, 22861, Pitch_bend_c, 5, 8582
1, 22862, Pitch_bend_c, 5, 8842
1, 22863, Pitch_bend_c, 5, 8972
1, 22864, Pitch_bend_c, 5, 9102
1, 22865, Pitch_bend_c, 5, 9232
1, 22866, Pitch_bend_c, 5, 9362
1, 22868, Pitch_bend_c, 5, 9492
1, 22869, Note_on_c, 13, 81, 101
1, 22871, Note_on_c, 1, 38, 74
1, 22871, Pitch_bend_c, 5, 9622
1, 22871, Note_on_c, 11, 38, 70
1, 22872, Note_on_c, 1, 43, 0
1, 22872, Note_on_c, 11, 43, 0
1, 22872, Note_on_c, 0, 61, 53
1, 22873, Pitch_bend_c, 5, 9752
1, 22873, Note_on_c, 9, 44, 47
1, 22874, Note_on_c, 9, 44, 0
1, 22874, Pitch_bend_c, 5, 9882
1, 22875, Note_on_c, 0, 59, 0
1, 22875, Pitch_bend_c, 5, 10012
1, 22876, Note_on_c, 0, 65, 0
1, 22877, Pitch_bend_c, 5, 10142
1, 22878, Pitch_bend_c, 5, 10402
1, 22879, Pitch_bend_c, 5, 10532
1, 22881, Pitch_bend_c, 5, 10662
1, 22882, Note_on_c, 0, 56, 0
1, 22882, Pitch_bend_c, 5, 10792
1, 22884, Pitch_bend_c, 13, 8452
1, 22885, Pitch_bend_c, 5, 10922
1, 22885, Pitch_bend_c, 13, 8582
1, 22886, Pitch_bend_c, 5, 11052
1, 22886, Pitch_bend_c, 13, 8842
1, 22887, Pitch_bend_c, 13, 8972
1, 22888, Pitch_bend_c, 13, 9102
1, 22889, Pitch_bend_c, 5, 11312
1, 22889, Pitch_bend_c, 13, 9232
1, 22890, Pitch_bend_c, 13, 9362
1, 22892, Note_on_c, 2, 63, 0
1, 22892, Note_on_c, 2, 59, 0
1, 22892, Note_on_c, 2, 53, 0
1, 22892, Note_on_c, 2, 56, 0
1, 22892, Pitch_bend_c, 13, 9492
1, 22894, Note_on_c, 1, 38, 0
1, 22894, Note_on_c, 11, 38, 0
1, 22894, Note_on_c, 0, 61, 0
1, 22894, Note_on_c, 0, 56, 42
1, 22894, Note_on_c, 2, 63, 111
1, 22894, Note_on_c, 2, 53, 72
1, 22894, Pitch_bend_c, 5, 11442
1, 22895, Note_on_c, 1, 43, 70
1, 22895, Note_on_c, 9, 69, 43
1, 22895, Note_on_c, 11, 43, 66
1, 22895, Pitch_bend_c, 13, 9622
1, 22896, Note_on_c, 9, 69, 0
1, 22896, Note_on_c, 2, 59, 98
1, 22896, Note_on_c, 2, 56, 73
1, 22897, Pitch_bend_c, 5, 11572
1, 22897, Note_on_c, 9, 36, 110
1, 22897, Note_on_c, 9, 42, 48
1, 22897, Pitch_bend_c, 13, 9752
1, 22898, Note_on_c, 9, 42, 0
1, 22898, Note_on_c, 9, 36, 0
1, 22898, Pitch_bend_c, 13, 9882
1, 22899, Pitch_bend_c, 5, 11702
1, 22899, Pitch_bend_c, 13, 10012
1, 22901, Pitch_bend_c, 13, 10142
1, 22902, Pitch_bend_c, 5, 11832
1, 22902, Pitch_bend_c, 13, 10402
1, 22903, Pitch_bend_c, 13, 10532
1, 22905, Pitch_bend_c, 5, 11962
1, 22905, Pitch_bend_c, 13, 10662
1, 22906, Note_on_c, 2, 59, 0
1, 22906, Note_on_c, 2, 63, 0
1, 22906, Note_on_c, 2, 56, 0
1, 22906, Note_on_c, 2, 53, 0
1, 22906, Pitch_bend_c, 13, 10792
1, 22908, Pitch_bend_c, 5, 12092
1, 22909, Pitch_bend_c, 13, 10922
1, 22910, Pitch_bend_c, 13, 11052
1, 22913, Pitch_bend_c, 13, 11312
1, 22918, Note_on_c, 0, 56, 0
1, 22918, Note_on_c, 5, 81, 0
1, 22918, Note_on_c, 2, 56, 61
1, 22918, Note_on_c, 2, 53, 63
1, 22918, Note_on_c, 2, 63, 63
1, 22918, Note_on_c, 2, 59, 74
1, 22918, Pitch_bend_c, 13, 11442
1, 22919, Note_on_c, 0, 65, 77
1, 22919, Pitch_bend_c, 5, 11832
1, 22919, Note_on_c, 9, 69, 31
1, 22919, Note_on_c, 9, 42, 41
1, 22920, Note_on_c, 9, 42, 0
1, 22920, Note_on_c, 9, 69, 0
1, 22920, Note_on_c, 0, 56, 53
1, 22920, Pitch_bend_c, 5, 11702
1, 22921, Note_on_c, 0, 59, 87
1, 22921, Pitch_bend_c, 5, 11572
1, 22921, Pitch_bend_c, 13, 11572
1, 22922, Pitch_bend_c, 5, 11052
1, 22923, Pitch_bend_c, 5, 10792
1, 22923, Pitch_bend_c, 13, 11702
1, 22924, Pitch_bend_c, 5, 10532
1, 22925, Pitch_bend_c, 5, 10272
1, 22926, Pitch_bend_c, 5, 9362
1, 22926, Pitch_bend_c, 13, 11832
1, 22927, Pitch_bend_c, 5, 8842
1, 22928, Pitch_bend_c, 5, 8322
1, 22929, Pitch_bend_c, 5, 8192
1, 22929, Pitch_bend_c, 13, 11962
1, 22932, Pitch_bend_c, 13, 12092
1, 22942, Note_on_c, 13, 81, 0
1, 22943, Note_on_c, 0, 59, 0
1, 22943, Note_on_c, 9, 75, 73
1, 22943, Pitch_bend_c, 13, 11832
1, 22944, Note_on_c, 9, 75, 0
1, 22944, Note_on_c, 5, 81, 111
1, 22944, Note_on_c, 9, 40, 105
1, 22944, Pitch_bend_c, 13, 11702
1, 22945, Note_on_c, 9, 40, 0
1, 22945, Note_on_c, 9, 42, 81
1, 22945, Pitch_bend_c, 13, 11572
1, 22946, Note_on_c, 9, 42, 0
1, 22946, Note_on_c, 0, 65, 0
1, 22946, Pitch_bend_c, 13, 11052
1, 22947, Pitch_bend_c, 13, 10792
1, 22948, Pitch_bend_c, 13, 10532
1, 22949, Pitch_bend_c, 13, 10272
1, 22950, Note_on_c, 0, 56, 0
1, 22950, Pitch_bend_c, 13, 9362
1, 22951, Pitch_bend_c, 13, 8842
1, 22952, Pitch_bend_c, 13, 8322
1, 22953, Note_on_c, 2, 56, 0
1, 22953, Pitch_bend_c, 13, 8192
1, 22954, Note_on_c, 2, 53, 0
1, 22954, Note_on_c, 2, 63, 0
1, 22956, Note_on_c, 2, 59, 0
1, 22961, Pitch_bend_c, 5, 8452
1, 22962, Pitch_bend_c, 5, 8712
1, 22963, Pitch_bend_c, 5, 8842
1, 22964, Pitch_bend_c, 5, 8972
1, 22965, Pitch_bend_c, 5, 9102
1, 22966, Note_on_c, 1, 43, 0
1, 22966, Note_on_c, 11, 43, 0
1, 22966, Note_on_c, 2, 63, 70
1, 22966, Note_on_c, 2, 59, 81
1, 22966, Note_on_c, 2, 53, 67
1, 22966, Note_on_c, 2, 56, 61
1, 22966, Pitch_bend_c, 5, 9362
1, 22967, Note_on_c, 0, 65, 70
1, 22967, Note_on_c, 0, 59, 81
1, 22967, Note_on_c, 0, 56, 57
1, 22967, Note_on_c, 1, 38, 72
1, 22967, Pitch_bend_c, 5, 9492
1, 22967, Note_on_c, 9, 44, 43
1, 22967, Note_on_c, 11, 38, 68
1, 22968, Note_on_c, 9, 44, 0
1, 22968, Pitch_bend_c, 5, 9622
1, 22968, Note_on_c, 13, 81, 105
1, 22970, Pitch_bend_c, 5, 9752
1, 22973, Note_on_c, 2, 56, 0
1, 22973, Pitch_bend_c, 5, 9882
1, 22974, Note_on_c, 2, 53, 0
1, 22974, Note_on_c, 2, 59, 0
1, 22974, Pitch_bend_c, 5, 10012
1, 22975, Pitch_bend_c, 5, 10142
1, 22976, Note_on_c, 2, 63, 0
1, 22976, Pitch_bend_c, 5, 10272
1, 22977, Pitch_bend_c, 5, 10402
1, 22978, Pitch_bend_c, 5, 10662
1, 22980, Pitch_bend_c, 5, 10792
1, 22982, Pitch_bend_c, 5, 10922
1, 22984, Pitch_bend_c, 5, 11052
1, 22985, Pitch_bend_c, 13, 8452
1, 22986, Pitch_bend_c, 5, 11312
1, 22986, Pitch_bend_c, 13, 8712
1, 22987, Pitch_bend_c, 13, 8842
1, 22988, Pitch_bend_c, 13, 8972
1, 22989, Pitch_bend_c, 13, 9102
1, 22990, Note_on_c, 0, 56, 0
1, 22990, Note_on_c, 2, 59, 64
1, 22990, Note_on_c, 2, 56, 49
1, 22990, Note_on_c, 2, 63, 104
1, 22990, Pitch_bend_c, 13, 9362
1, 22991, Note_on_c, 0, 61, 53
1, 22991, Note_on_c, 1, 43, 75
1, 22991, Note_on_c, 9, 42, 42
1, 22991, Note_on_c, 9, 69, 32
1, 22991, Note_on_c, 11, 43, 71
1, 22991, Pitch_bend_c, 13, 9492
1, 22992, Note_on_c, 9, 69, 0
1, 22992, Note_on_c, 9, 42, 0
1, 22992, Note_on_c, 0, 59, 0
1, 22992, Pitch_bend_c, 5, 11442
1, 22992, Pitch_bend_c, 13, 9622
1, 22993, Note_on_c, 0, 65, 0
1, 22994, Note_on_c, 1, 38, 0
1, 22994, Note_on_c, 11, 38, 0
1, 22994, Pitch_bend_c, 5, 11572
1, 22994, Pitch_bend_c, 13, 9752
1, 22997, Pitch_bend_c, 5, 11702
1, 22997, Pitch_bend_c, 13, 9882
1, 22998, Pitch_bend_c, 13, 10012
1, 22999, Pitch_bend_c, 13, 10142
1, 23000, Note_on_c, 2, 59, 0
1, 23000, Pitch_bend_c, 13, 10272
1, 23001, Pitch_bend_c, 5, 11832
1, 23001, Pitch_bend_c, 13, 10402
1, 23002, Pitch_bend_c, 13, 10662
1, 23004, Pitch_bend_c, 13, 10792
1, 23006, Pitch_bend_c, 13, 10922
1, 23008, Pitch_bend_c, 5, 11962
1, 23008, Pitch_bend_c, 13, 11052
1, 23010, Note_on_c, 2, 63, 0
1, 23010, Pitch_bend_c, 13, 11312
1, 23013, Pitch_bend_c, 5, 12092
1, 23014, Note_on_c, 2, 56, 0
1, 23014, Note_on_c, 2, 63, 85
1, 23015, Note_on_c, 0, 56, 41
1, 23015, Note_on_c, 1, 37, 69
1, 23015, Note_on_c, 9, 69, 35
1, 23015, Note_on_c, 9, 42, 42
1, 23015, Note_on_c, 11, 37, 65
1, 23016, Note_on_c, 9, 42, 0
1, 23016, Note_on_c, 9, 69, 0
1, 23016, Note_on_c, 2, 59, 76
1, 23016, Pitch_bend_c, 5, 12222
1, 23016, Pitch_bend_c, 13, 11442
1, 23017, Note_on_c, 1, 43, 0
1, 23017, Note_on_c, 11, 43, 0
1, 23018, Note_on_c, 0, 61, 0
1, 23018, Pitch_bend_c, 13, 11572
1, 23019, Pitch_bend_c, 5, 12352
1, 23021, Pitch_bend_c, 13, 11702
1, 23022, Note_on_c, 2, 63, 0
1, 23022, Pitch_bend_c, 5, 12482
1, 23024, Note_on_c, 2, 59, 0
1, 23025, Pitch_bend_c, 13, 11832
1, 23027, Pitch_bend_c, 5, 12222
1, 23028, Pitch_bend_c, 5, 11572
1, 23029, Pitch_bend_c, 5, 9882
1, 23030, Pitch_bend_c, 5, 8192
1, 23032, Pitch_bend_c, 13, 11962
1, 23036, Note_on_c, 5, 81, 0
1, 23037, Pitch_bend_c, 13, 12092
1, 23038, Note_on_c, 2, 58, 90
1, 23038, Note_on_c, 2, 65, 63
1, 23038, Note_on_c, 2, 61, 90
1, 23038, Note_on_c, 2, 56, 95
1, 23039, Note_on_c, 0, 61, 57
1, 23039, Note_on_c, 0, 65, 68
1, 23039, Note_on_c, 1, 42, 74
1, 23039, Note_on_c, 9, 42, 83
1, 23039, Note_on_c, 9, 36, 115
1, 23039, Note_on_c, 11, 42, 70
1, 23040, Note_on_c, 9, 36, 0
1, 23040, Note_on_c, 9, 42, 0
1, 23040, Pitch_bend_c, 13, 12222
1, 23041, Note_on_c, 5, 80, 105
1, 23042, Note_on_c, 0, 58, 60
1, 23043, Pitch_bend_c, 13, 12352
1, 23045, Note_on_c, 11, 37, 0
1, 23045, Note_on_c, 1, 37, 0
1, 23046, Pitch_bend_c, 13, 12482
1, 23051, Pitch_bend_c, 13, 12222
1, 23052, Pitch_bend_c, 13, 11572
1, 23053, Pitch_bend_c, 13, 9882
1, 23054, Pitch_bend_c, 13, 8192
1, 23060, Note_on_c, 13, 81, 0
1, 23062, Note_on_c, 0, 65, 0
1, 23062, Note_on_c, 5, 78, 103
1, 23063, Note_on_c, 0, 61, 0
1, 23064, Note_on_c, 9, 44, 41
1, 23065, Note_on_c, 9, 44, 0
1, 23065, Note_on_c, 0, 58, 0
1, 23065, Note_on_c, 13, 80, 99
1, 23066, Note_on_c, 5, 80, 0
1, 23068, Note_on_c, 0, 56, 0
1, 23086, Note_on_c, 2, 56, 0
1, 23086, Note_on_c, 5, 78, 0
1, 23086, Note_on_c, 2, 61, 0
1, 23086, Note_on_c, 2, 65, 0
1, 23086, Note_on_c, 2, 58, 0
1, 23086, Note_on_c, 9, 69, 50
1, 23086, Note_on_c, 13, 78, 97
1, 23087, Note_on_c, 9, 69, 0
1, 23087, Note_on_c, 0, 65, 70
1, 23087, Note_on_c, 0, 58, 68
1, 23087, Note_on_c, 0, 56, 59
1, 23087, Note_on_c, 9, 42, 49
1, 23088, Note_on_c, 9, 42, 0
1, 23088, Note_on_c, 0, 61, 64
1, 23088, Note_on_c, 2, 65, 77
1, 23088, Note_on_c, 2, 58, 100
1, 23088, Note_on_c, 2, 61, 104
1, 23088, Note_on_c, 2, 56, 108
1, 23090, Note_on_c, 13, 80, 0
1, 23097, Note_on_c, 2, 61, 0
1, 23097, Note_on_c, 2, 58, 0
1, 23097, Note_on_c, 2, 56, 0
1, 23098, Note_on_c, 2, 65, 0
1, 23110, Note_on_c, 13, 78, 0
1, 23110, Note_on_c, 2, 56, 63
1, 23110, Note_on_c, 2, 61, 68
1, 23110, Note_on_c, 2, 58, 60
1, 23110, Note_on_c, 2, 65, 61
1, 23111, Note_on_c, 9, 69, 28
1, 23111, Note_on_c, 9, 42, 47
1, 23112, Note_on_c, 9, 42, 0
1, 23112, Note_on_c, 9, 69, 0
1, 23113, Note_on_c, 1, 42, 0
1, 23113, Note_on_c, 11, 42, 0
1, 23114, Note_on_c, 0, 58, 0
1, 23116, Note_on_c, 0, 61, 0
1, 23120, Note_on_c, 0, 65, 0
1, 23133, Note_on_c, 5, 73, 94
1, 23135, Note_on_c, 9, 40, 101
1, 23135, Note_on_c, 9, 42, 86
1, 23136, Note_on_c, 9, 42, 0
1, 23136, Note_on_c, 9, 40, 0
1, 23137, Note_on_c, 9, 75, 79
1, 23138, Note_on_c, 9, 75, 0
1, 23140, Note_on_c, 0, 56, 0
1, 23143, Note_on_c, 2, 56, 0
1, 23144, Note_on_c, 2, 61, 0
1, 23146, Note_on_c, 2, 65, 0
1, 23146, Note_on_c, 2, 58, 0
1, 23157, Note_on_c, 13, 73, 88
1, 23158, Note_on_c, 0, 65, 75
1, 23158, Note_on_c, 2, 56, 68
1, 23158, Note_on_c, 2, 58, 62
1, 23158, Note_on_c, 2, 65, 70
1, 23158, Note_on_c, 2, 61, 71
1, 23159, Note_on_c, 0, 56, 61
1, 23159, Note_on_c, 0, 58, 75
1, 23159, Note_on_c, 9, 44, 43
1, 23160, Note_on_c, 9, 44, 0
1, 23165, Note_on_c, 2, 61, 0
1, 23166, Note_on_c, 2, 58, 0
1, 23167, Note_on_c, 2, 56, 0
1, 23167, Note_on_c, 2, 65, 0
1, 23182, Note_on_c, 2, 65, 93
1, 23182, Note_on_c, 9, 69, 45
1, 23183, Note_on_c, 9, 69, 0
1, 23183, Note_on_c, 0, 61, 50
1, 23184, Note_on_c, 0, 56, 0
1, 23184, Note_on_c, 2, 61, 31
1, 23184, Note_on_c, 9, 42, 42
1, 23185, Note_on_c, 9, 42, 0
1, 23185, Note_on_c, 2, 58, 48
1, 23185, Note_on_c, 5, 76, 109
1, 23186, Note_on_c, 0, 58, 0
1, 23189, Note_on_c, 5, 73, 0
1, 23193, Note_on_c, 2, 61, 0
1, 23198, Note_on_c, 2, 58, 0
1, 23199, Note_on_c, 0, 65, 0
1, 23202, Note_on_c, 2, 65, 0
1, 23205, Note_on_c, 0, 61, 0
1, 23206, Note_on_c, 0, 56, 48
1, 23206, Note_on_c, 2, 65, 77
1, 23206, Note_on_c, 9, 69, 23
1, 23207, Note_on_c, 9, 69, 0
1, 23207, Note_on_c, 1, 37, 84
1, 23207, Note_on_c, 9, 36, 105
1, 23207, Note_on_c, 11, 37, 80
1, 23208, Note_on_c, 9, 36, 0
1, 23208, Note_on_c, 2, 61, 67
1, 23208, Note_on_c, 9, 42, 27
1, 23209, Note_on_c, 9, 42, 0
1, 23209, Note_on_c, 13, 76, 103
1, 23211, Pitch_bend_c, 5, 8322
1, 23212, Pitch_bend_c, 5, 8452
1, 23213, Note_on_c, 13, 73, 0
1, 23214, Note_on_c, 2, 65, 0
1, 23214, Pitch_bend_c, 5, 8842
1, 23215, Pitch_bend_c, 5, 8972
1, 23216, Note_on_c, 2, 61, 0
1, 23217, Pitch_bend_c, 5, 9102
1, 23218, Pitch_bend_c, 5, 9232
1, 23219, Pitch_bend_c, 5, 9362
1, 23220, Pitch_bend_c, 5, 9492
1, 23222, Pitch_bend_c, 5, 9622
1, 23224, Pitch_bend_c, 5, 9752
1, 23226, Pitch_bend_c, 5, 10012
1, 23227, Pitch_bend_c, 5, 10142
1, 23228, Pitch_bend_c, 5, 10272
1, 23229, Pitch_bend_c, 5, 10532
1, 23230, Note_on_c, 0, 56, 0
1, 23230, Note_on_c, 1, 37, 0
1, 23230, Note_on_c, 11, 37, 0
1, 23230, Note_on_c, 0, 65, 75
1, 23230, Note_on_c, 2, 65, 63
1, 23230, Note_on_c, 2, 56, 60
1, 23230, Note_on_c, 2, 61, 77
1, 23230, Note_on_c, 2, 58, 79
1, 23230, Pitch_bend_c, 5, 10792
1, 23231, Note_on_c, 0, 56, 53
1, 23231, Note_on_c, 0, 58, 66
1, 23231, Note_on_c, 1, 42, 80
1, 23231, Pitch_bend_c, 5, 11052
1, 23231, Note_on_c, 9, 42, 87
1, 23231, Note_on_c, 9, 36, 72
1, 23231, Note_on_c, 11, 42, 76
1, 23232, Note_on_c, 9, 36, 0
1, 23232, Note_on_c, 9, 42, 0
1, 23232, Pitch_bend_c, 5, 11312
1, 23233, Pitch_bend_c, 5, 11442
1, 23234, Pitch_bend_c, 5, 11702
1, 23235, Pitch_bend_c, 5, 11832
1, 23235, Pitch_bend_c, 13, 8322
1, 23236, Pitch_bend_c, 5, 11962
1, 23236, Pitch_bend_c, 13, 8452
1, 23237, Pitch_bend_c, 5, 12092
1, 23238, Pitch_bend_c, 5, 12222
1, 23238, Pitch_bend_c, 13, 8842
1, 23239, Pitch_bend_c, 13, 8972
1, 23241, Pitch_bend_c, 5, 12352
1, 23241, Pitch_bend_c, 13, 9102
1, 23242, Pitch_bend_c, 13, 9232
1, 23243, Note_on_c, 5, 76, 0
1, 23243, Pitch_bend_c, 13, 9362
1, 23244, Pitch_bend_c, 13, 9492
1, 23246, Pitch_bend_c, 5, 12092
1, 23246, Pitch_bend_c, 13, 9622
1, 23247, Pitch_bend_c, 5, 11702
1, 23248, Pitch_bend_c, 5, 10922
1, 23248, Pitch_bend_c, 13, 9752
1, 23249, Pitch_bend_c, 5, 9752
1, 23250, Pitch_bend_c, 5, 8192
1, 23250, Pitch_bend_c, 13, 10012
1, 23251, Pitch_bend_c, 13, 10142
1, 23252, Pitch_bend_c, 13, 10272
1, 23253, Pitch_bend_c, 13, 10532
1, 23254, Note_on_c, 1, 42, 0
1, 23254, Note_on_c, 11, 42, 0
1, 23254, Pitch_bend_c, 13, 10792
1, 23255, Note_on_c, 0, 61, 41
1, 23255, Note_on_c, 1, 34, 72
1, 23255, Note_on_c, 11, 34, 68
1, 23255, Pitch_bend_c, 13, 11052
1, 23256, Pitch_bend_c, 13, 11312
1, 23257, Note_on_c, 9, 44, 45
1, 23257, Pitch_bend_c, 13, 11442
1, 23258, Note_on_c, 9, 44, 0
1, 23258, Note_on_c, 0, 56, 0
1, 23258, Pitch_bend_c, 13, 11702
1, 23259, Pitch_bend_c, 13, 11832
1, 23260, Pitch_bend_c, 13, 11962
1, 23261, Note_on_c, 0, 58, 0
1, 23261, Pitch_bend_c, 13, 12092
1, 23262, Pitch_bend_c, 13, 12222
1, 23265, Pitch_bend_c, 13, 12352
1, 23266, Note_on_c, 0, 65, 0
1, 23267, Note_on_c, 13, 76, 0
1, 23270, Pitch_bend_c, 13, 12092
1, 23271, Pitch_bend_c, 13, 11702
1, 23272, Pitch_bend_c, 13, 10922
1, 23273, Pitch_bend_c, 13, 9752
1, 23274, Note_on_c, 0, 61, 0
1, 23274, Pitch_bend_c, 13, 8192
1, 23277, Note_on_c, 2, 58, 0
1, 23277, Note_on_c, 2, 65, 0
1, 23277, Note_on_c, 2, 61, 0
1, 23277, Note_on_c, 2, 56, 0
1, 23277, Note_on_c, 0, 56, 48
1, 23278, Note_on_c, 2, 65, 81
1, 23278, Note_on_c, 2, 61, 104
1, 23278, Note_on_c, 2, 58, 95
1, 23278, Note_on_c, 2, 56, 98
1, 23278, Note_on_c, 9, 69, 37
1, 23279, Note_on_c, 9, 69, 0
1, 23279, Note_on_c, 1, 42, 76
1, 23279, Note_on_c, 9, 42, 51
1, 23279, Note_on_c, 11, 42, 72
1, 23280, Note_on_c, 9, 42, 0
1, 23280, Note_on_c, 11, 34, 0
1, 23280, Note_on_c, 1, 34, 0
1, 23280, Note_on_c, 9, 36, 107
1, 23281, Note_on_c, 9, 36, 0
1, 23287, Note_on_c, 2, 56, 0
1, 23289, Note_on_c, 2, 61, 0
1, 23289, Note_on_c, 2, 58, 0
1, 23291, Note_on_c, 2, 65, 0
1, 23302, Note_on_c, 2, 56, 64
1, 23302, Note_on_c, 2, 61, 68
1, 23302, Note_on_c, 2, 65, 69
1, 23302, Note_on_c, 2, 58, 65
1, 23302, Note_on_c, 9, 69, 34
1, 23303, Note_on_c, 9, 69, 0
1, 23303, Note_on_c, 0, 56, 0
1, 23303, Note_on_c, 0, 58, 73
1, 23303, Note_on_c, 0, 65, 69
1, 23304, Note_on_c, 0, 56, 59
1, 23304, Note_on_c, 9, 42, 74
1, 23305, Note_on_c, 9, 42, 0
1, 23327, Note_on_c, 9, 40, 105
1, 23327, Note_on_c, 9, 75, 82
1, 23327, Note_on_c, 9, 42, 93
1, 23328, Note_on_c, 9, 42, 0
1, 23328, Note_on_c, 9, 40, 0
1, 23328, Note_on_c, 0, 58, 0
1, 23328, Note_on_c, 9, 75, 0
1, 23331, Note_on_c, 0, 65, 0
1, 23331, Note_on_c, 0, 56, 0
1, 23337, Note_on_c, 2, 56, 0
1, 23338, Note_on_c, 2, 61, 0
1, 23338, Note_on_c, 2, 65, 0
1, 23338, Note_on_c, 2, 58, 0
1, 23350, Note_on_c, 2, 65, 72
1, 23350, Note_on_c, 2, 56, 71
1, 23350, Note_on_c, 2, 58, 64
1, 23350, Note_on_c, 2, 61, 72
1, 23351, Note_on_c, 0, 56, 60
1, 23351, Note_on_c, 0, 65, 68
1, 23351, Note_on_c, 0, 58, 66
1, 23351, Note_on_c, 1, 37, 78
1, 23351, Note_on_c, 9, 44, 50
1, 23351, Note_on_c, 11, 37, 74
1, 23352, Note_on_c, 9, 44, 0
1, 23353, Note_on_c, 11, 42, 0
1, 23353, Note_on_c, 1, 42, 0
1, 23359, Note_on_c, 2, 58, 0
1, 23360, Note_on_c, 2, 56, 0
1, 23360, Note_on_c, 2, 61, 0
1, 23361, Note_on_c, 2, 65, 0
1, 23373, Note_on_c, 5, 69, 95
1, 23373, Note_on_c, 9, 69, 45
1, 23374, Note_on_c, 9, 69, 0
1, 23374, Note_on_c, 0, 56, 0
1, 23374, Note_on_c, 0, 61, 57
1, 23374, Note_on_c, 2, 61, 58
1, 23374, Note_on_c, 2, 65, 90
1, 23375, Note_on_c, 1, 42, 74
1, 23375, Note_on_c, 9, 42, 49
1, 23375, Note_on_c, 11, 42, 70
1, 23376, Note_on_c, 9, 42, 0
1, 23376, Note_on_c, 1, 37, 0
1, 23376, Note_on_c, 11, 37, 0
1, 23384, Note_on_c, 2, 61, 0
1, 23386, Note_on_c, 0, 58, 0
1, 23389, Note_on_c, 0, 65, 0
1, 23392, Note_on_c, 2, 65, 0
1, 23397, Note_on_c, 0, 61, 0
1, 23397, Note_on_c, 13, 69, 89
1, 23398, Note_on_c, 5, 69, 0
1, 23398, Note_on_c, 0, 56, 47
1, 23398, Note_on_c, 2, 61, 61
1, 23398, Note_on_c, 2, 65, 77
1, 23398, Note_on_c, 5, 70, 92
1, 23398, Note_on_c, 9, 69, 36
1, 23399, Note_on_c, 9, 69, 0
1, 23399, Note_on_c, 1, 34, 74
1, 23399, Note_on_c, 9, 42, 57
1, 23399, Note_on_c, 11, 34, 70
1, 23400, Note_on_c, 9, 42, 0
1, 23406, Note_on_c, 2, 65, 0
1, 23406, Note_on_c, 11, 42, 0
1, 23406, Note_on_c, 2, 61, 0
1, 23406, Note_on_c, 1, 42, 0
1, 23414, Note_on_c, 0, 56, 0
1, 23420, Note_on_c, 5, 73, 104
1, 23422, Note_on_c, 13, 69, 0
1, 23422, Note_on_c, 2, 63, 71
1, 23422, Note_on_c, 2, 61, 70
1, 23422, Note_on_c, 2, 57, 74
1, 23422, Note_on_c, 2, 68, 64
1, 23422, Note_on_c, 13, 70, 86
1, 23423, Note_on_c, 1, 35, 85
1, 23423, Note_on_c, 9, 36, 114
1, 23423, Note_on_c, 9, 42, 76
1, 23423, Note_on_c, 11, 35, 81
1, 23424, Note_on_c, 9, 42, 0
1, 23424, Note_on_c, 9, 36, 0
1, 23424, Note_on_c, 0, 68, 61
1, 23424, Note_on_c, 0, 57, 62
1, 23427, Note_on_c, 11, 34, 0
1, 23427, Note_on_c, 1, 34, 0
1, 23429, Note_on_c, 5, 70, 0
1, 23441, Note_on_c, 5, 73, 0
1, 23444, Note_on_c, 13, 73, 98
1, 23445, Note_on_c, 0, 68, 0
1, 23447, Note_on_c, 9, 44, 46
1, 23448, Note_on_c, 9, 44, 0
1, 23448, Note_on_c, 0, 57, 0
1, 23453, Note_on_c, 13, 70, 0
1, 23465, Note_on_c, 13, 73, 0
1, 23467, Note_on_c, 2, 57, 0
1, 23467, Note_on_c, 2, 68, 0
1, 23467, Note_on_c, 2, 61, 0
1, 23467, Note_on_c, 2, 63, 0
1, 23470, Note_on_c, 2, 61, 108
1, 23470, Note_on_c, 2, 68, 93
1, 23470, Note_on_c, 2, 57, 74
1, 23470, Note_on_c, 2, 63, 117
1, 23470, Note_on_c, 9, 69, 41
1, 23471, Note_on_c, 9, 69, 0
1, 23471, Note_on_c, 0, 68, 67
1, 23471, Note_on_c, 5, 73, 103
1, 23471, Note_on_c, 9, 42, 42
1, 23472, Note_on_c, 9, 42, 0
1, 23472, Note_on_c, 0, 57, 75
1, 23473, Note_on_c, 0, 61, 52
1, 23473, Note_on_c, 0, 63, 54
1, 23478, Note_on_c, 2, 63, 0
1, 23479, Note_on_c, 2, 61, 0
1, 23480, Note_on_c, 2, 68, 0
1, 23482, Note_on_c, 2, 57, 0
1, 23494, Note_on_c, 1, 35, 0
1, 23494, Note_on_c, 11, 35, 0
1, 23494, Note_on_c, 9, 69, 30
1, 23495, Note_on_c, 9, 69, 0
1, 23495, Note_on_c, 9, 42, 43
1, 23495, Note_on_c, 13, 73, 97
1, 23496, Note_on_c, 9, 42, 0
1, 23496, Note_on_c, 2, 57, 67
1, 23496, Note_on_c, 2, 63, 67
1, 23496, Note_on_c, 2, 68, 58
1, 23497, Note_on_c, 2, 61, 65
1, 23501, Note_on_c, 0, 63, 0
1, 23503, Control_c, 5, 1, 1
1, 23504, Control_c, 5, 1, 3
1, 23505, Control_c, 5, 1, 4
1, 23506, Control_c, 5, 1, 9
1, 23507, Note_on_c, 0, 61, 0
1, 23507, Control_c, 5, 1, 11
1, 23508, Control_c, 5, 1, 13
1, 23509, Control_c, 5, 1, 16
1, 23510, Control_c, 5, 1, 20
1, 23511, Control_c, 5, 1, 22
1, 23512, Control_c, 5, 1, 24
1, 23513, Control_c, 5, 1, 26
1, 23514, Control_c, 5, 1, 30
1, 23515, Note_on_c, 0, 68, 0
1, 23515, Control_c, 5, 1, 33
1, 23516, Control_c, 5, 1, 35
1, 23517, Control_c, 5, 1, 37
1, 23518, Control_c, 5, 1, 41
1, 23519, Control_c, 5, 1, 43
1, 23519, Note_on_c, 9, 75, 79
1, 23520, Note_on_c, 9, 75, 0
1, 23520, Control_c, 5, 1, 44
1, 23520, Note_on_c, 9, 40, 101
1, 23520, Note_on_c, 9, 42, 83
1, 23521, Note_on_c, 9, 42, 0
1, 23521, Note_on_c, 9, 40, 0
1, 23521, Control_c, 5, 1, 47
1, 23522, Control_c, 5, 1, 49
1, 23523, Note_on_c, 0, 57, 0
1, 23523, Control_c, 5, 1, 50
1, 23524, Control_c, 5, 1, 51
1, 23525, Control_c, 5, 1, 52
1, 23526, Control_c, 5, 1, 54
1, 23527, Control_c, 5, 1, 55
1, 23527, Control_c, 13, 1, 1
1, 23528, Control_c, 13, 1, 3
1, 23529, Control_c, 5, 1, 56
1, 23529, Control_c, 13, 1, 4
1, 23530, Control_c, 13, 1, 9
1, 23531, Control_c, 13, 1, 11
1, 23532, Note_on_c, 2, 63, 0
1, 23532, Note_on_c, 2, 57, 0
1, 23532, Control_c, 5, 1, 57
1, 23532, Control_c, 13, 1, 13
1, 23533, Control_c, 13, 1, 16
1, 23534, Note_on_c, 2, 61, 0
1, 23534, Note_on_c, 2, 68, 0
1, 23534, Control_c, 13, 1, 20
1, 23535, Control_c, 13, 1, 22
1, 23536, Control_c, 13, 1, 24
1, 23537, Control_c, 13, 1, 26
1, 23538, Control_c, 13, 1, 30
1, 23539, Control_c, 13, 1, 33
1, 23540, Control_c, 13, 1, 35
1, 23541, Control_c, 13, 1, 37
1, 23542, Control_c, 13, 1, 41
1, 23543, Note_on_c, 0, 61, 56
1, 23543, Note_on_c, 0, 68, 61
1, 23543, Note_on_c, 0, 57, 68
1, 23543, Note_on_c, 1, 42, 78
1, 23543, Note_on_c, 9, 44, 43
1, 23543, Note_on_c, 11, 42, 74
1, 23543, Control_c, 13, 1, 43
1, 23544, Note_on_c, 9, 44, 0
1, 23544, Note_on_c, 2, 61, 73
1, 23544, Note_on_c, 2, 68, 69
1, 23544, Note_on_c, 2, 63, 71
1, 23544, Note_on_c, 2, 57, 72
1, 23544, Control_c, 13, 1, 44
1, 23545, Note_on_c, 0, 63, 44
1, 23545, Control_c, 13, 1, 47
1, 23546, Control_c, 13, 1, 49
1, 23547, Control_c, 5, 1, 56
1, 23547, Control_c, 13, 1, 50
1, 23548, Control_c, 13, 1, 51
1, 23549, Control_c, 5, 1, 55
1, 23549, Control_c, 13, 1, 52
1, 23550, Note_on_c, 2, 63, 0
1, 23550, Control_c, 5, 1, 52
1, 23550, Control_c, 13, 1, 54
1, 23551, Control_c, 5, 1, 51
1, 23551, Control_c, 13, 1, 55
1, 23552, Note_on_c, 2, 57, 0
1, 23552, Note_on_c, 2, 68, 0
1, 23552, Note_on_c, 2, 61, 0
1, 23552, Control_c, 5, 1, 50
1, 23553, Control_c, 5, 1, 47
1, 23553, Control_c, 13, 1, 56
1, 23554, Control_c, 5, 1, 43
1, 23555, Control_c, 5, 1, 40
1, 23556, Control_c, 5, 1, 38
1, 23556, Control_c, 13, 1, 57
1, 23557, Control_c, 5, 1, 35
1, 23558, Control_c, 5, 1, 30
1, 23559, Control_c, 5, 1, 27
1, 23560, Control_c, 5, 1, 25
1, 23561, Control_c, 5, 1, 24
1, 23562, Control_c, 5, 1, 20
1, 23563, Control_c, 5, 1, 18
1, 23564, Control_c, 5, 1, 16
1, 23565, Note_on_c, 2, 68, 95
1, 23565, Note_on_c, 2, 63, 64
1, 23565, Control_c, 5, 1, 13
1, 23565, Note_on_c, 9, 69, 45
1, 23566, Note_on_c, 9, 69, 0
1, 23566, Note_on_c, 2, 59, 65
1, 23566, Control_c, 5, 1, 9
1, 23567, Note_on_c, 1, 47, 87
1, 23567, Control_c, 5, 1, 7
1, 23567, Note_on_c, 11, 47, 83
1, 23568, Control_c, 5, 1, 5
1, 23568, Note_on_c, 9, 42, 51
1, 23569, Note_on_c, 9, 42, 0
1, 23569, Note_on_c, 11, 42, 0
1, 23569, Note_on_c, 1, 42, 0
1, 23569, Control_c, 5, 1, 3
1, 23570, Note_on_c, 0, 57, 0
1, 23570, Control_c, 5, 1, 1
1, 23571, Control_c, 5, 1, 0
1, 23571, Control_c, 13, 1, 56
1, 23573, Control_c, 13, 1, 55
1, 23574, Control_c, 13, 1, 52
1, 23575, Control_c, 13, 1, 51
1, 23576, Control_c, 13, 1, 50
1, 23577, Note_on_c, 2, 63, 0
1, 23577, Control_c, 13, 1, 47
1, 23578, Control_c, 13, 1, 43
1, 23579, Control_c, 13, 1, 40
1, 23580, Control_c, 13, 1, 38
1, 23581, Control_c, 13, 1, 35
1, 23582, Control_c, 13, 1, 30
1, 23583, Control_c, 13, 1, 27
1, 23584, Control_c, 13, 1, 25
1, 23585, Note_on_c, 2, 68, 0
1, 23585, Control_c, 13, 1, 24
1, 23586, Control_c, 13, 1, 20
1, 23587, Control_c, 13, 1, 18
1, 23588, Note_on_c, 2, 59, 0
1, 23588, Note_on_c, 0, 63, 0
1, 23588, Control_c, 13, 1, 16
1, 23589, Note_on_c, 0, 61, 0
1, 23589, Control_c, 13, 1, 13
1, 23590, Note_on_c, 2, 68, 90
1, 23590, Note_on_c, 2, 63, 61
1, 23590, Note_on_c, 9, 69, 30
1, 23590, Control_c, 13, 1, 9
1, 23591, Note_on_c, 9, 69, 0
1, 23591, Note_on_c, 0, 57, 57
1, 23591, Note_on_c, 1, 42, 67
1, 23591, Note_on_c, 9, 42, 49
1, 23591, Note_on_c, 11, 42, 63
1, 23591, Control_c, 13, 1, 7
1, 23592, Note_on_c, 9, 42, 0
1, 23592, Note_on_c, 0, 68, 0
1, 23592, Control_c, 13, 1, 5
1, 23593, Note_on_c, 9, 36, 113
1, 23593, Control_c, 13, 1, 3
1, 23594, Note_on_c, 9, 36, 0
1, 23594, Control_c, 13, 1, 1
1, 23595, Control_c, 13, 1, 0
1, 23597, Note_on_c, 11, 47, 0
1, 23597, Note_on_c, 1, 47, 0
1, 23598, Note_on_c, 2, 68, 0
1, 23602, Note_on_c, 2, 63, 0
1, 23614, Note_on_c, 2, 63, 74
1, 23614, Note_on_c, 2, 68, 59
1, 23614, Note_on_c, 2, 57, 67
1, 23614, Note_on_c, 2, 61, 71
1, 23614, Note_on_c, 5, 70, 94
1, 23615, Note_on_c, 0, 61, 68
1, 23615, Note_on_c, 0, 63, 71
1, 23615, Note_on_c, 0, 66, 79
1, 23615, Note_on_c, 1, 45, 81
1, 23615, Note_on_c, 9, 36, 61
1, 23615, Note_on_c, 11, 45, 77
1, 23616, Note_on_c, 9, 36, 0
1, 23617, Note_on_c, 9, 42, 78
1, 23618, Note_on_c, 9, 42, 0
1, 23618, Note_on_c, 5, 73, 0
1, 23618, Note_on_c, 1, 42, 0
1, 23618, Note_on_c, 11, 42, 0
1, 23628, Note_on_c, 5, 70, 0
1, 23628, Note_on_c, 0, 63, 0
1, 23631, Note_on_c, 0, 61, 0
1, 23632, Note_on_c, 0, 66, 0
1, 23638, Note_on_c, 0, 57, 0
1, 23638, Note_on_c, 13, 70, 88
1, 23639, Note_on_c, 1, 40, 69
1, 23639, Note_on_c, 9, 44, 47
1, 23639, Note_on_c, 11, 40, 65
1, 23640, Note_on_c, 9, 44, 0
1, 23641, Note_on_c, 11, 45, 0
1, 23641, Note_on_c, 1, 45, 0
1, 23642, Note_on_c, 13, 73, 0
1, 23652, Note_on_c, 13, 70, 0
1, 23661, Note_on_c, 2, 68, 0
1, 23661, Note_on_c, 2, 61, 0
1, 23661, Note_on_c, 2, 57, 0
1, 23662, Note_on_c, 2, 63, 0
1, 23662, Note_on_c, 2, 61, 114
1, 23662, Note_on_c, 2, 57, 73
1, 23662, Note_on_c, 2, 68, 83
1, 23663, Note_on_c, 5, 73, 105
1, 23663, Note_on_c, 9, 42, 62
1, 23663, Note_on_c, 9, 69, 41
1, 23664, Note_on_c, 9, 69, 0
1, 23664, Note_on_c, 9, 42, 0
1, 23664, Note_on_c, 0, 66, 68
1, 23664, Note_on_c, 1, 45, 76
1, 23664, Note_on_c, 2, 63, 117
1, 23664, Note_on_c, 9, 36, 114
1, 23664, Note_on_c, 11, 45, 72
1, 23665, Note_on_c, 9, 36, 0
1, 23665, Note_on_c, 0, 57, 67
1, 23665, Note_on_c, 0, 63, 65
1, 23665, Note_on_c, 0, 61, 71
1, 23667, Note_on_c, 1, 40, 0
1, 23667, Note_on_c, 11, 40, 0
1, 23673, Note_on_c, 2, 61, 0
1, 23673, Control_c, 5, 1, 1
1, 23674, Note_on_c, 2, 63, 0
1, 23674, Note_on_c, 2, 57, 0
1, 23674, Control_c, 5, 1, 7
1, 23675, Control_c, 5, 1, 11
1, 23676, Note_on_c, 2, 68, 0
1, 23676, Control_c, 5, 1, 13
1, 23677, Control_c, 5, 1, 16
1, 23678, Control_c, 5, 1, 22
1, 23679, Control_c, 5, 1, 26
1, 23680, Control_c, 5, 1, 28
1, 23681, Control_c, 5, 1, 31
1, 23682, Control_c, 5, 1, 36
1, 23683, Control_c, 5, 1, 39
1, 23684, Control_c, 5, 1, 42
1, 23685, Control_c, 5, 1, 45
1, 23686, Note_on_c, 2, 63, 69
1, 23686, Note_on_c, 2, 61, 67
1, 23686, Control_c, 5, 1, 50
1, 23687, Control_c, 5, 1, 52
1, 23687, Note_on_c, 9, 69, 30
1, 23687, Note_on_c, 9, 42, 42
1, 23687, Note_on_c, 13, 73, 99
1, 23688, Note_on_c, 9, 42, 0
1, 23688, Note_on_c, 9, 69, 0
1, 23688, Note_on_c, 2, 57, 74
1, 23688, Note_on_c, 2, 68, 60
1, 23688, Control_c, 5, 1, 55
1, 23689, Control_c, 5, 1, 57
1, 23690, Control_c, 5, 1, 60
1, 23691, Control_c, 5, 1, 62
1, 23693, Control_c, 5, 1, 63
1, 23694, Control_c, 5, 1, 64
1, 23697, Control_c, 13, 1, 1
1, 23698, Control_c, 5, 1, 63
1, 23698, Control_c, 13, 1, 7
1, 23699, Control_c, 5, 1, 62
1, 23699, Control_c, 13, 1, 11
1, 23700, Control_c, 13, 1, 13
1, 23701, Control_c, 5, 1, 61
1, 23701, Control_c, 13, 1, 16
1, 23702, Control_c, 5, 1, 59
1, 23702, Control_c, 13, 1, 22
1, 23703, Control_c, 5, 1, 58
1, 23703, Control_c, 13, 1, 26
1, 23704, Control_c, 5, 1, 57
1, 23704, Control_c, 13, 1, 28
1, 23705, Control_c, 13, 1, 31
1, 23706, Note_on_c, 0, 63, 0
1, 23706, Note_on_c, 0, 66, 0
1, 23706, Control_c, 5, 1, 55
1, 23706, Control_c, 13, 1, 36
1, 23707, Control_c, 5, 1, 54
1, 23707, Control_c, 13, 1, 39
1, 23708, Control_c, 5, 1, 53
1, 23708, Control_c, 13, 1, 42
1, 23709, Control_c, 5, 1, 51
1, 23709, Control_c, 13, 1, 45
1, 23710, Control_c, 5, 1, 47
1, 23710, Control_c, 13, 1, 50
1, 23711, Control_c, 5, 1, 44
1, 23711, Note_on_c, 9, 75, 83
1, 23711, Note_on_c, 9, 40, 107
1, 23711, Note_on_c, 9, 42, 81
1, 23711, Control_c, 13, 1, 52
1, 23712, Note_on_c, 9, 42, 0
1, 23712, Note_on_c, 0, 61, 0
1, 23712, Note_on_c, 9, 40, 0
1, 23712, Note_on_c, 9, 75, 0
1, 23712, Control_c, 5, 1, 40
1, 23712, Control_c, 13, 1, 55
1, 23713, Control_c, 5, 1, 35
1, 23713, Control_c, 13, 1, 57
1, 23714, Control_c, 5, 1, 27
1, 23714, Control_c, 13, 1, 60
1, 23715, Control_c, 5, 1, 23
1, 23715, Control_c, 13, 1, 62
1, 23716, Control_c, 5, 1, 20
1, 23717, Control_c, 5, 1, 16
1, 23717, Control_c, 13, 1, 63
1, 23718, Control_c, 5, 1, 9
1, 23718, Control_c, 13, 1, 64
1, 23719, Control_c, 5, 1, 6
1, 23720, Control_c, 5, 1, 3
1, 23721, Note_on_c, 2, 61, 0
1, 23721, Control_c, 5, 1, 1
1, 23722, Control_c, 13, 1, 63
1, 23723, Control_c, 13, 1, 62
1, 23724, Note_on_c, 2, 63, 0
1, 23724, Note_on_c, 2, 57, 0
1, 23725, Note_on_c, 2, 68, 0
1, 23725, Control_c, 13, 1, 61
1, 23726, Control_c, 13, 1, 59
1, 23727, Control_c, 13, 1, 58
1, 23728, Control_c, 13, 1, 57
1, 23730, Control_c, 13, 1, 55
1, 23731, Control_c, 13, 1, 54
1, 23732, Control_c, 13, 1, 53
1, 23733, Control_c, 13, 1, 51
1, 23734, Note_on_c, 1, 45, 0
1, 23734, Note_on_c, 11, 45, 0
1, 23734, Note_on_c, 2, 57, 75
1, 23734, Note_on_c, 2, 68, 71
1, 23734, Control_c, 13, 1, 47
1, 23735, Note_on_c, 1, 33, 86
1, 23735, Note_on_c, 9, 44, 45
1, 23735, Note_on_c, 11, 33, 82
1, 23735, Control_c, 13, 1, 44
1, 23736, Note_on_c, 9, 44, 0
1, 23736, Note_on_c, 2, 61, 69
1, 23736, Note_on_c, 2, 63, 72
1, 23736, Control_c, 13, 1, 40
1, 23737, Control_c, 13, 1, 35
1, 23738, Control_c, 13, 1, 27
1, 23739, Control_c, 13, 1, 23
1, 23740, Control_c, 13, 1, 20
1, 23741, Control_c, 13, 1, 16
1, 23742, Note_on_c, 2, 57, 0
1, 23742, Control_c, 13, 1, 9
1, 23743, Control_c, 13, 1, 6
1, 23744, Note_on_c, 2, 63, 0
1, 23744, Control_c, 13, 1, 3
1, 23745, Note_on_c, 2, 68, 0
1, 23745, Note_on_c, 2, 61, 0
1, 23745, Control_c, 13, 1, 1
1, 23757, Note_on_c, 2, 68, 87
1, 23758, Note_on_c, 2, 63, 63
1, 23759, Note_on_c, 1, 30, 70
1, 23759, Note_on_c, 9, 69, 43
1, 23759, Note_on_c, 11, 30, 66
1, 23760, Note_on_c, 9, 69, 0
1, 23760, Note_on_c, 2, 59, 63
1, 23760, Note_on_c, 5, 70, 96
1, 23761, Note_on_c, 0, 61, 64
1, 23761, Note_on_c, 0, 66, 60
1, 23761, Note_on_c, 0, 63, 64
1, 23761, Note_on_c, 9, 42, 76
1, 23762, Note_on_c, 9, 42, 0
1, 23762, Note_on_c, 5, 73, 0
1, 23762, Note_on_c, 11, 33, 0
1, 23762, Note_on_c, 1, 33, 0
1, 23770, Note_on_c, 0, 57, 0
1, 23771, Control_c, 5, 1, 0
1, 23772, Note_on_c, 2, 59, 0
1, 23774, Note_on_c, 2, 63, 0
1, 23774, Note_on_c, 5, 70, 0
1, 23777, Note_on_c, 2, 68, 0
1, 23780, Note_on_c, 0, 66, 0
1, 23781, Note_on_c, 0, 63, 0
1, 23781, Note_on_c, 2, 68, 90
1, 23782, Note_on_c, 11, 30, 0
1, 23782, Note_on_c, 0, 61, 0
1, 23782, Note_on_c, 1, 30, 0
1, 23782, Note_on_c, 2, 63, 69
1, 23783, Note_on_c, 1, 31, 86
1, 23783, Note_on_c, 9, 42, 48
1, 23783, Note_on_c, 11, 31, 82
1, 23784, Note_on_c, 9, 42, 0
1, 23784, Note_on_c, 13, 70, 90
1, 23785, Note_on_c, 0, 57, 54
1, 23786, Note_on_c, 13, 73, 0
1, 23786, Note_on_c, 9, 69, 28
1, 23787, Note_on_c, 9, 69, 0
1, 23787, Note_on_c, 2, 68, 0
1, 23790, Note_on_c, 2, 63, 0
1, 23795, Control_c, 13, 1, 0
1, 23796, Note_on_c, 0, 57, 0
1, 23798, Note_on_c, 13, 70, 0
1, 23806, Note_on_c, 2, 65, 72
1, 23806, Note_on_c, 2, 58, 79
1, 23806, Note_on_c, 2, 61, 83
1, 23807, Note_on_c, 1, 32, 75
1, 23807, Note_on_c, 11, 32, 71
1, 23808, Note_on_c, 0, 58, 73
1, 23808, Note_on_c, 0, 65, 55
1, 23808, Note_on_c, 2, 56, 59
1, 23808, Note_on_c, 9, 42, 91
1, 23808, Note_on_c, 9, 36, 110
1, 23809, Note_on_c, 9, 36, 0
1, 23809, Note_on_c, 9, 42, 0
1, 23809, Note_on_c, 0, 61, 70
1, 23809, Note_on_c, 5, 75, 103
1, 23814, Note_on_c, 1, 31, 0
1, 23814, Note_on_c, 11, 31, 0
1, 23830, Note_on_c, 0, 58, 0
1, 23831, Note_on_c, 0, 61, 0
1, 23831, Note_on_c, 9, 44, 44
1, 23832, Note_on_c, 9, 44, 0
1, 23832, Note_on_c, 5, 73, 103
1, 23833, Note_on_c, 13, 75, 97
1, 23838, Note_on_c, 5, 75, 0
1, 23840, Note_on_c, 0, 65, 0
1, 23854, Note_on_c, 2, 61, 0
1, 23854, Note_on_c, 2, 58, 0
1, 23854, Note_on_c, 2, 56, 0
1, 23854, Note_on_c, 2, 65, 0
1, 23854, Note_on_c, 9, 69, 33
1, 23855, Note_on_c, 9, 69, 0
1, 23855, Note_on_c, 9, 42, 40
1, 23856, Note_on_c, 9, 42, 0
1, 23856, Note_on_c, 2, 56, 86
1, 23856, Note_on_c, 2, 61, 100
1, 23856, Note_on_c, 2, 65, 83
1, 23856, Note_on_c, 2, 58, 104
1, 23856, Note_on_c, 5, 70, 97
1, 23856, Note_on_c, 13, 73, 97
1, 23857, Note_on_c, 0, 65, 67
1, 23857, Note_on_c, 0, 58, 65
1, 23857, Note_on_c, 0, 56, 53
1, 23858, Note_on_c, 0, 61, 66
1, 23861, Note_on_c, 5, 73, 0
1, 23862, Note_on_c, 13, 75, 0
1, 23864, Note_on_c, 2, 61, 0
1, 23866, Note_on_c, 2, 58, 0
1, 23866, Note_on_c, 2, 56, 0
1, 23869, Note_on_c, 2, 65, 0
1, 23874, Note_on_c, 5, 70, 0
1, 23878, Note_on_c, 9, 69, 21
1, 23879, Note_on_c, 9, 69, 0
1, 23879, Note_on_c, 9, 42, 44
1, 23880, Note_on_c, 9, 42, 0
1, 23880, Note_on_c, 2, 65, 74
1, 23880, Note_on_c, 2, 61, 74
1, 23880, Note_on_c, 2, 58, 64
1, 23880, Note_on_c, 2, 56, 63
1, 23880, Note_on_c, 13, 70, 91
1, 23885, Note_on_c, 13, 73, 0
1, 23887, Note_on_c, 0, 58, 0
1, 23893, Note_on_c, 0, 61, 0
1, 23894, Note_on_c, 11, 32, 0
1, 23894, Note_on_c, 1, 32, 0
1, 23895, Note_on_c, 0, 56, 0
1, 23897, Note_on_c, 0, 65, 0
1, 23898, Note_on_c, 13, 70, 0
1, 23903, Note_on_c, 9, 75, 79
1, 23903, Note_on_c, 9, 40, 101
1, 23903, Note_on_c, 9, 42, 76
1, 23904, Note_on_c, 9, 42, 0
1, 23904, Note_on_c, 9, 75, 0
1, 23904, Note_on_c, 9, 40, 0
1, 23906, Note_on_c, 5, 73, 106
1, 23914, Control_c, 5, 1, 4
1, 23915, Control_c, 5, 1, 6
1, 23916, Note_on_c, 2, 61, 0
1, 23916, Note_on_c, 2, 58, 0
1, 23916, Note_on_c, 2, 56, 0
1, 23916, Note_on_c, 2, 65, 0
1, 23916, Control_c, 5, 1, 10
1, 23917, Control_c, 5, 1, 12
1, 23918, Control_c, 5, 1, 18
1, 23919, Control_c, 5, 1, 21
1, 23920, Control_c, 5, 1, 23
1, 23921, Control_c, 5, 1, 25
1, 23922, Control_c, 5, 1, 29
1, 23923, Control_c, 5, 1, 31
1, 23924, Control_c, 5, 1, 33
1, 23925, Control_c, 5, 1, 35
1, 23926, Note_on_c, 2, 65, 70
1, 23926, Control_c, 5, 1, 38
1, 23927, Control_c, 5, 1, 40
1, 23927, Note_on_c, 9, 44, 40
1, 23928, Note_on_c, 9, 44, 0
1, 23928, Note_on_c, 2, 61, 71
1, 23928, Note_on_c, 2, 56, 67
1, 23928, Note_on_c, 2, 58, 67
1, 23928, Control_c, 5, 1, 41
1, 23929, Note_on_c, 0, 58, 73
1, 23929, Note_on_c, 0, 65, 75
1, 23929, Note_on_c, 0, 56, 60
1, 23929, Control_c, 5, 1, 42
1, 23930, Control_c, 5, 1, 44
1, 23930, Note_on_c, 13, 73, 100
1, 23932, Control_c, 5, 1, 45
1, 23933, Note_on_c, 2, 61, 0
1, 23934, Note_on_c, 2, 58, 0
1, 23934, Note_on_c, 2, 56, 0
1, 23934, Note_on_c, 2, 65, 0
1, 23934, Control_c, 5, 1, 46
1, 23938, Control_c, 13, 1, 4
1, 23939, Control_c, 13, 1, 6
1, 23940, Control_c, 13, 1, 10
1, 23941, Control_c, 13, 1, 12
1, 23942, Control_c, 13, 1, 18
1, 23943, Control_c, 13, 1, 21
1, 23944, Control_c, 13, 1, 23
1, 23945, Control_c, 13, 1, 25
1, 23946, Control_c, 13, 1, 29
1, 23947, Control_c, 13, 1, 31
1, 23948, Control_c, 13, 1, 33
1, 23949, Note_on_c, 2, 65, 87
1, 23949, Control_c, 13, 1, 35
1, 23950, Note_on_c, 0, 56, 0
1, 23950, Note_on_c, 2, 58, 47
1, 23950, Note_on_c, 2, 61, 60
1, 23950, Control_c, 5, 1, 45
1, 23950, Control_c, 13, 1, 38
1, 23951, Note_on_c, 9, 42, 42
1, 23951, Note_on_c, 9, 69, 33
1, 23951, Control_c, 13, 1, 40
1, 23952, Note_on_c, 9, 69, 0
1, 23952, Note_on_c, 9, 42, 0
1, 23952, Note_on_c, 0, 61, 57
1, 23952, Control_c, 5, 1, 44
1, 23952, Note_on_c, 5, 70, 94
1, 23952, Control_c, 13, 1, 41
1, 23953, Control_c, 5, 1, 43
1, 23953, Control_c, 13, 1, 42
1, 23954, Note_on_c, 5, 73, 0
1, 23954, Control_c, 5, 1, 41
1, 23954, Control_c, 13, 1, 44
1, 23955, Note_on_c, 0, 65, 0
1, 23955, Control_c, 5, 1, 40
1, 23956, Note_on_c, 0, 58, 0
1, 23956, Control_c, 5, 1, 39
1, 23956, Control_c, 13, 1, 45
1, 23957, Control_c, 5, 1, 38
1, 23958, Control_c, 5, 1, 36
1, 23958, Control_c, 13, 1, 46
1, 23959, Control_c, 5, 1, 35
1, 23960, Note_on_c, 2, 61, 0
1, 23960, Control_c, 5, 1, 34
1, 23962, Control_c, 5, 1, 33
1, 23963, Control_c, 5, 1, 32
1, 23964, Control_c, 5, 1, 31
1, 23965, Control_c, 5, 1, 30
1, 23966, Control_c, 5, 1, 28
1, 23967, Control_c, 5, 1, 27
1, 23968, Note_on_c, 5, 70, 0
1, 23969, Note_on_c, 2, 65, 0
1, 23969, Control_c, 5, 1, 26
1, 23970, Note_on_c, 2, 58, 0
1, 23970, Control_c, 5, 1, 23
1, 23971, Control_c, 5, 1, 22
1, 23972, Control_c, 5, 1, 20
1, 23973, Control_c, 5, 1, 19
1, 23974, Note_on_c, 0, 61, 0
1, 23974, Note_on_c, 2, 65, 81
1, 23974, Note_on_c, 2, 61, 61
1, 23974, Control_c, 5, 1, 14
1, 23974, Control_c, 13, 1, 45
1, 23975, Note_on_c, 0, 56, 52
1, 23975, Control_c, 5, 1, 12
1, 23975, Note_on_c, 9, 42, 40
1, 23975, Note_on_c, 9, 69, 25
1, 23976, Note_on_c, 9, 69, 0
1, 23976, Note_on_c, 9, 42, 0
1, 23976, Note_on_c, 1, 39, 84
1, 23976, Control_c, 5, 1, 10
1, 23976, Note_on_c, 9, 36, 104
1, 23976, Note_on_c, 11, 39, 80
1, 23976, Note_on_c, 13, 70, 88
1, 23976, Control_c, 13, 1, 44
1, 23977, Note_on_c, 9, 36, 0
1, 23977, Control_c, 5, 1, 9
1, 23977, Control_c, 13, 1, 43
1, 23978, Note_on_c, 13, 73, 0
1, 23978, Control_c, 5, 1, 5
1, 23978, Control_c, 13, 1, 41
1, 23979, Control_c, 5, 1, 4
1, 23979, Control_c, 13, 1, 40
1, 23980, Control_c, 5, 1, 3
1, 23980, Control_c, 13, 1, 39
1, 23981, Control_c, 5, 1, 2
1, 23981, Control_c, 13, 1, 38
1, 23982, Note_on_c, 2, 65, 0
1, 23982, Note_on_c, 2, 61, 0
1, 23982, Control_c, 5, 1, 1
1, 23982, Control_c, 13, 1, 36
1, 23983, Control_c, 5, 1, 0
1, 23983, Control_c, 13, 1, 35
1, 23984, Control_c, 13, 1, 34
1, 23986, Control_c, 13, 1, 33
1, 23987, Control_c, 13, 1, 32
1, 23988, Control_c, 13, 1, 31
1, 23989, Control_c, 13, 1, 30
1, 23990, Control_c, 13, 1, 28
1, 23991, Control_c, 13, 1, 27
1, 23992, Note_on_c, 13, 70, 0
1, 23993, Control_c, 13, 1, 26
1, 23994, Control_c, 13, 1, 23
1, 23995, Control_c, 13, 1, 22
1, 23996, Control_c, 13, 1, 20
1, 23997, Control_c, 13, 1, 19
1, 23998, Note_on_c, 0, 56, 0
1, 23998, Note_on_c, 2, 61, 93
1, 23998, Note_on_c, 2, 65, 64
1, 23998, Note_on_c, 2, 58, 87
1, 23998, Note_on_c, 2, 56, 60
1, 23998, Control_c, 13, 1, 14
1, 23999, Note_on_c, 11, 39, 0
1, 23999, Note_on_c, 1, 39, 0
1, 23999, Note_on_c, 1, 44, 70
1, 23999, Note_on_c, 9, 42, 87
1, 23999, Note_on_c, 9, 36, 68
1, 23999, Note_on_c, 11, 44, 66
1, 23999, Control_c, 13, 1, 12
1, 24000, Note_on_c, 9, 36, 0
1, 24000, Note_on_c, 9, 42, 0
1, 24000, Control_c, 13, 1, 10
1, 24001, Note_on_c, 0, 65, 71
1, 24001, Note_on_c, 0, 56, 50
1, 24001, Note_on_c, 0, 58, 68
1, 24001, Control_c, 13, 1, 9
1, 24002, Control_c, 13, 1, 5
1, 24003, Control_c, 13, 1, 4
1, 24004, Control_c, 13, 1, 3
1, 24005, Control_c, 13, 1, 2
1, 24006, Control_c, 13, 1, 1
1, 24007, Control_c, 13, 1, 0
1, 24023, Note_on_c, 0, 56, 0
1, 24024, Note_on_c, 1, 32, 74
1, 24024, Note_on_c, 9, 44, 46
1, 24024, Note_on_c, 11, 32, 70
1, 24025, Note_on_c, 9, 44, 0
1, 24025, Note_on_c, 0, 61, 55
1, 24028, Note_on_c, 11, 44, 0
1, 24028, Note_on_c, 1, 44, 0
1, 24030, Note_on_c, 0, 65, 0
1, 24032, Note_on_c, 0, 58, 0
1, 24044, Note_on_c, 1, 32, 0
1, 24044, Note_on_c, 11, 32, 0
1, 24046, Note_on_c, 2, 56, 0
1, 24046, Note_on_c, 2, 58, 0
1, 24046, Note_on_c, 2, 65, 0
1, 24046, Note_on_c, 2, 61, 0
1, 24046, Note_on_c, 0, 61, 0
1, 24046, Note_on_c, 0, 56, 52
1, 24046, Note_on_c, 9, 69, 35
1, 24047, Note_on_c, 9, 69, 0
1, 24047, Note_on_c, 1, 44, 79
1, 24047, Note_on_c, 9, 36, 97
1, 24047, Note_on_c, 9, 42, 43
1, 24047, Note_on_c, 11, 44, 75
1, 24048, Note_on_c, 9, 42, 0
1, 24048, Note_on_c, 9, 36, 0
1, 24048, Note_on_c, 2, 61, 108
1, 24048, Note_on_c, 2, 56, 98
1, 24048, Note_on_c, 2, 58, 112
1, 24048, Note_on_c, 2, 65, 87
1, 24057, Note_on_c, 2, 58, 0
1, 24057, Note_on_c, 2, 61, 0
1, 24059, Note_on_c, 0, 56, 0
1, 24060, Note_on_c, 2, 56, 0
1, 24060, Note_on_c, 2, 65, 0
1, 24070, Note_on_c, 9, 69, 29
1, 24071, Note_on_c, 9, 69, 0
1, 24071, Note_on_c, 9, 42, 54
1, 24072, Note_on_c, 9, 42, 0
1, 24072, Note_on_c, 0, 65, 65
1, 24072, Note_on_c, 2, 65, 68
1, 24072, Note_on_c, 2, 58, 67
1, 24072, Note_on_c, 2, 56, 69
1, 24072, Note_on_c, 2, 61, 73
1, 24073, Note_on_c, 0, 58, 64
1, 24073, Note_on_c, 0, 61, 59
1, 24073, Note_on_c, 0, 56, 58
1, 24085, Note_on_c, 0, 61, 0
1, 24090, Note_on_c, 0, 56, 0
1, 24092, Note_on_c, 0, 65, 0
1, 24093, Note_on_c, 0, 58, 0
1, 24095, Note_on_c, 9, 42, 73
1, 24095, Note_on_c, 9, 40, 104
1, 24095, Note_on_c, 12, 61, 81
1, 24096, Note_on_c, 9, 40, 0
1, 24096, Note_on_c, 9, 42, 0
1, 24096, Note_on_c, 5, 85, 97
1, 24096, Note_on_c, 9, 75, 79
1, 24096, Pitch_bend_c, 12, 8192
1, 24096, Control_c, 12, 1, 0
1, 24097, Note_on_c, 9, 75, 0
1, 24108, Note_on_c, 2, 65, 0
1, 24108, Note_on_c, 2, 61, 0
1, 24109, Note_on_c, 2, 58, 0
1, 24110, Note_on_c, 2, 56, 0
1, 24114, Note_on_c, 1, 44, 0
1, 24114, Note_on_c, 11, 44, 0
1, 24119, Note_on_c, 0, 58, 71
1, 24119, Note_on_c, 0, 65, 62
1, 24119, Note_on_c, 0, 56, 75
1, 24119, Note_on_c, 1, 32, 70
1, 24119, Note_on_c, 9, 44, 43
1, 24119, Note_on_c, 11, 32, 66
1, 24120, Note_on_c, 9, 44, 0
1, 24120, Note_on_c, 2, 61, 64
1, 24120, Note_on_c, 2, 65, 66
1, 24120, Note_on_c, 2, 56, 74
1, 24120, Note_on_c, 2, 58, 61
1, 24120, Note_on_c, 13, 85, 91
1, 24128, Note_on_c, 2, 58, 0
1, 24128, Note_on_c, 2, 56, 0
1, 24128, Note_on_c, 2, 61, 0
1, 24130, Note_on_c, 2, 65, 0
1, 24141, Note_on_c, 0, 56, 0
1, 24141, Note_on_c, 2, 65, 81
1, 24142, Note_on_c, 2, 58, 59
1, 24142, Note_on_c, 2, 61, 54
1, 24142, Note_on_c, 9, 69, 36
1, 24143, Note_on_c, 9, 69, 0
1, 24143, Note_on_c, 11, 32, 0
1, 24143, Note_on_c, 1, 32, 0
1, 24143, Note_on_c, 0, 61, 56
1, 24143, Note_on_c, 9, 42, 54
1, 24144, Note_on_c, 9, 42, 0
1, 24144, Note_on_c, 1, 39, 78
1, 24144, Note_on_c, 11, 39, 74
1, 24149, Note_on_c, 0, 58, 0
1, 24151, Note_on_c, 0, 65, 0
1, 24154, Note_on_c, 2, 61, 0
1, 24162, Note_on_c, 2, 65, 0
1, 24166, Note_on_c, 1, 39, 0
1, 24166, Note_on_c, 11, 39, 0
1, 24166, Note_on_c, 2, 58, 0
1, 24166, Note_on_c, 2, 65, 81
1, 24166, Note_on_c, 2, 61, 77
1, 24166, Note_on_c, 9, 69, 23
1, 24167, Note_on_c, 9, 69, 0
1, 24167, Note_on_c, 1, 32, 72
1, 24167, Note_on_c, 9, 42, 42
1, 24167, Note_on_c, 11, 32, 68
1, 24168, Note_on_c, 9, 42, 0
1, 24168, Note_on_c, 0, 61, 0
1, 24168, Note_on_c, 0, 56, 53
1, 24174, Note_on_c, 2, 65, 0
1, 24174, Note_on_c, 2, 61, 0
1, 24184, Note_on_c, 11, 32, 0
1, 24184, Note_on_c, 1, 32, 0
1, 24190, Note_on_c, 2, 63, 87
1, 24190, Note_on_c, 2, 53, 65
1, 24190, Note_on_c, 2, 56, 61
1, 24190, Note_on_c, 2, 59, 83
1, 24191, Note_on_c, 0, 61, 62
1, 24191, Note_on_c, 0, 65, 73
1, 24191, Note_on_c, 1, 37, 80
1, 24191, Note_on_c, 9, 42, 83
1, 24191, Note_on_c, 11, 37, 76
1, 24192, Note_on_c, 9, 42, 0
1, 24192, Note_on_c, 0, 59, 80
1, 24192, Note_on_c, 9, 36, 114
1, 24193, Note_on_c, 9, 36, 0
1, 24211, Note_on_c, 0, 59, 0
1, 24212, Note_on_c, 0, 61, 0
1, 24213, Note_on_c, 0, 65, 0
1, 24215, Note_on_c, 9, 44, 49
1, 24216, Note_on_c, 9, 44, 0
1, 24217, Note_on_c, 0, 56, 0
1, 24238, Note_on_c, 2, 63, 0
1, 24238, Note_on_c, 2, 59, 0
1, 24238, Note_on_c, 2, 56, 0
1, 24238, Note_on_c, 2, 53, 0
1, 24238, Note_on_c, 9, 69, 33
1, 24239, Note_on_c, 9, 69, 0
1, 24239, Note_on_c, 9, 42, 42
1, 24240, Note_on_c, 9, 42, 0
1, 24240, Note_on_c, 0, 59, 84
1, 24240, Note_on_c, 0, 65, 67
1, 24240, Note_on_c, 2, 63, 74
1, 24240, Note_on_c, 2, 59, 83
1, 24240, Note_on_c, 2, 53, 48
1, 24240, Note_on_c, 2, 56, 43
1, 24241, Note_on_c, 0, 56, 56
1, 24241, Note_on_c, 0, 61, 57
1, 24250, Note_on_c, 2, 59, 0
1, 24252, Note_on_c, 2, 56, 0
1, 24253, Note_on_c, 2, 63, 0
1, 24256, Note_on_c, 2, 53, 0
1, 24263, Note_on_c, 9, 69, 27
1, 24263, Note_on_c, 9, 42, 41
1, 24264, Note_on_c, 9, 42, 0
1, 24264, Note_on_c, 9, 69, 0
1, 24264, Note_on_c, 2, 53, 68
1, 24264, Note_on_c, 2, 63, 68
1, 24264, Note_on_c, 2, 59, 74
1, 24264, Note_on_c, 2, 56, 63
1, 24268, Note_on_c, 0, 61, 0
1, 24272, Note_on_c, 1, 37, 0
1, 24272, Note_on_c, 11, 37, 0
1, 24274, Note_on_c, 0, 65, 0
1, 24276, Note_on_c, 0, 59, 0
1, 24286, Note_on_c, 0, 56, 0
1, 24287, Note_on_c, 9, 75, 76
1, 24287, Note_on_c, 9, 40, 107
1, 24288, Note_on_c, 9, 40, 0
1, 24288, Note_on_c, 9, 75, 0
1, 24288, Note_on_c, 9, 42, 87
1, 24289, Note_on_c, 9, 42, 0
1, 24296, Note_on_c, 2, 53, 0
1, 24298, Note_on_c, 2, 56, 0
1, 24300, Note_on_c, 2, 59, 0
1, 24300, Note_on_c, 2, 63, 0
1, 24310, Note_on_c, 0, 65, 71
1, 24310, Note_on_c, 2, 53, 70
1, 24310, Note_on_c, 2, 59, 74
1, 24310, Note_on_c, 2, 63, 72
1, 24311, Note_on_c, 0, 56, 54
1, 24311, Note_on_c, 0, 59, 81
1, 24312, Note_on_c, 2, 56, 58
1, 24313, Note_on_c, 9, 44, 57
1, 24314, Note_on_c, 9, 44, 0
1, 24317, Note_on_c, 2, 59, 0
1, 24318, Note_on_c, 2, 56, 0
1, 24318, Note_on_c, 2, 63, 0
1, 24320, Note_on_c, 2, 53, 0
1, 24332, Note_on_c, 0, 56, 0
1, 24333, Note_on_c, 2, 56, 58
1, 24334, Note_on_c, 0, 61, 57
1, 24334, Note_on_c, 2, 59, 58
1, 24334, Note_on_c, 2, 63, 87
1, 24335, Note_on_c, 9, 69, 35
1, 24335, Note_on_c, 9, 42, 44
1, 24336, Note_on_c, 9, 42, 0
1, 24336, Note_on_c, 9, 69, 0
1, 24336, Note_on_c, 0, 65, 0
1, 24338, Note_on_c, 0, 59, 0
1, 24342, Note_on_c, 2, 59, 0
1, 24351, Note_on_c, 2, 63, 0
1, 24357, Note_on_c, 2, 56, 0
1, 24358, Note_on_c, 0, 61, 0
1, 24358, Note_on_c, 2, 63, 87
1, 24358, Note_on_c, 2, 59, 66
1, 24358, Note_on_c, 9, 69, 25
1, 24359, Note_on_c, 9, 69, 0
1, 24359, Note_on_c, 1, 37, 75
1, 24359, Note_on_c, 9, 42, 46
1, 24359, Note_on_c, 9, 36, 105
1, 24359, Note_on_c, 11, 37, 71
1, 24360, Note_on_c, 9, 36, 0
1, 24360, Note_on_c, 9, 42, 0
1, 24360, Note_on_c, 0, 56, 52
1, 24365, Note_on_c, 5, 85, 0
1, 24366, Note_on_c, 2, 59, 0
1, 24366, Note_on_c, 2, 63, 0
1, 24377, Note_on_c, 5, 63, 90
1, 24378, Note_on_c, 0, 56, 0
1, 24381, Note_on_c, 5, 64, 107
1, 24382, Note_on_c, 2, 53, 62
1, 24382, Note_on_c, 2, 59, 77
1, 24382, Note_on_c, 2, 56, 53
1, 24382, Note_on_c, 2, 63, 76
1, 24382, Note_on_c, 9, 36, 67
1, 24383, Note_on_c, 9, 36, 0
1, 24383, Note_on_c, 11, 37, 0
1, 24383, Note_on_c, 1, 37, 0
1, 24383, Note_on_c, 1, 43, 80
1, 24383, Note_on_c, 11, 43, 76
1, 24384, Note_on_c, 9, 42, 70
1, 24385, Note_on_c, 9, 42, 0
1, 24385, Note_on_c, 5, 63, 0
1, 24385, Note_on_c, 0, 59, 84
1, 24385, Note_on_c, 0, 56, 61
1, 24385, Note_on_c, 0, 65, 73
1, 24389, Note_on_c, 13, 85, 0
1, 24393, Pitch_bend_c, 5, 8322
1, 24394, Pitch_bend_c, 5, 8842
1, 24395, Pitch_bend_c, 5, 9102
1, 24396, Pitch_bend_c, 5, 9492
1, 24397, Pitch_bend_c, 5, 9622
1, 24398, Pitch_bend_c, 5, 10012
1, 24399, Pitch_bend_c, 5, 10142
1, 24406, Note_on_c, 0, 56, 0
1, 24406, Note_on_c, 1, 43, 0
1, 24406, Note_on_c, 11, 43, 0
1, 24406, Pitch_bend_c, 5, 9752
1, 24407, Note_on_c, 1, 38, 75
1, 24407, Pitch_bend_c, 5, 9232
1, 24407, Note_on_c, 9, 44, 52
1, 24407, Note_on_c, 11, 38, 71
1, 24408, Note_on_c, 9, 44, 0
1, 24408, Pitch_bend_c, 5, 8192
1, 24408, Note_on_c, 5, 63, 97
1, 24409, Note_on_c, 0, 65, 0
1, 24411, Note_on_c, 5, 64, 0
1, 24414, Note_on_c, 0, 59, 0
1, 24428, Note_on_c, 2, 63, 0
1, 24428, Note_on_c, 2, 59, 0
1, 24428, Note_on_c, 2, 53, 0
1, 24428, Note_on_c, 2, 56, 0
1, 24430, Note_on_c, 12, 61, 0
1, 24430, Note_on_c, 0, 56, 52
1, 24430, Note_on_c, 2, 53, 72
1, 24430, Note_on_c, 2, 63, 111
1, 24430, Note_on_c, 5, 61, 98
1, 24430, Note_on_c, 9, 69, 45
1, 24431, Note_on_c, 9, 69, 0
1, 24431, Note_on_c, 1, 43, 78
1, 24431, Note_on_c, 9, 42, 46
1, 24431, Note_on_c, 9, 36, 107
1, 24431, Note_on_c, 11, 43, 74
1, 24432, Note_on_c, 9, 36, 0
1, 24432, Note_on_c, 9, 42, 0
1, 24432, Note_on_c, 5, 63, 0
1, 24432, Note_on_c, 2, 56, 73
1, 24432, Note_on_c, 2, 59, 98
1, 24439, Note_on_c, 11, 38, 0
1, 24439, Note_on_c, 1, 38, 0
1, 24442, Note_on_c, 2, 59, 0
1, 24442, Note_on_c, 2, 53, 0
1, 24442, Note_on_c, 2, 56, 0
1, 24442, Note_on_c, 2, 63, 0
1, 24449, Note_on_c, 0, 56, 0
1, 24452, Note_on_c, 5, 61, 0
1, 24454, Note_on_c, 2, 56, 61
1, 24454, Note_on_c, 2, 53, 63
1, 24454, Note_on_c, 2, 59, 74
1, 24454, Note_on_c, 2, 63, 63
1, 24454, Note_on_c, 5, 58, 89
1, 24454, Note_on_c, 9, 69, 26
1, 24455, Note_on_c, 9, 69, 0
1, 24455, Note_on_c, 0, 65, 79
1, 24455, Note_on_c, 9, 42, 37
1, 24456, Note_on_c, 9, 42, 0
1, 24457, Note_on_c, 0, 61, 61
1, 24457, Note_on_c, 0, 59, 89
1, 24457, Note_on_c, 0, 56, 61
1, 24476, Note_on_c, 5, 58, 0
1, 24478, Note_on_c, 5, 61, 103
1, 24479, Note_on_c, 9, 75, 82
1, 24479, Note_on_c, 9, 42, 91
1, 24479, Note_on_c, 9, 40, 110
1, 24480, Note_on_c, 9, 40, 0
1, 24480, Note_on_c, 9, 42, 0
1, 24480, Note_on_c, 0, 59, 0
1, 24480, Note_on_c, 9, 75, 0
1, 24482, Note_on_c, 0, 65, 0
1, 24482, Note_on_c, 0, 56, 0
1, 24483, Note_on_c, 0, 61, 0
1, 24489, Note_on_c, 2, 56, 0
1, 24490, Note_on_c, 2, 53, 0
1, 24490, Note_on_c, 2, 63, 0
1, 24492, Note_on_c, 2, 59, 0
1, 24502, Note_on_c, 1, 43, 0
1, 24502, Note_on_c, 11, 43, 0
1, 24502, Note_on_c, 2, 59, 81
1, 24502, Note_on_c, 2, 56, 61
1, 24502, Note_on_c, 2, 53, 67
1, 24502, Note_on_c, 2, 63, 70
1, 24503, Note_on_c, 1, 38, 79
1, 24503, Note_on_c, 5, 64, 101
1, 24503, Note_on_c, 9, 44, 52
1, 24503, Note_on_c, 11, 38, 75
1, 24504, Note_on_c, 9, 44, 0
1, 24504, Note_on_c, 0, 65, 75
1, 24505, Note_on_c, 0, 56, 60
1, 24505, Note_on_c, 0, 59, 84
1, 24506, Note_on_c, 5, 61, 0
1, 24509, Note_on_c, 2, 56, 0
1, 24510, Note_on_c, 2, 53, 0
1, 24510, Note_on_c, 2, 59, 0
1, 24512, Note_on_c, 2, 63, 0
1, 24523, Note_on_c, 5, 63, 93
1, 24525, Note_on_c, 0, 56, 0
1, 24526, Note_on_c, 2, 59, 64
1, 24526, Note_on_c, 2, 56, 49
1, 24526, Note_on_c, 2, 63, 104
1, 24526, Note_on_c, 9, 69, 39
1, 24527, Note_on_c, 9, 69, 0
1, 24527, Note_on_c, 0, 61, 46
1, 24527, Note_on_c, 1, 43, 80
1, 24527, Note_on_c, 9, 42, 48
1, 24527, Note_on_c, 11, 43, 76
1, 24528, Note_on_c, 9, 42, 0
1, 24528, Note_on_c, 5, 64, 0
1, 24532, Note_on_c, 11, 38, 0
1, 24532, Note_on_c, 0, 59, 0
1, 24532, Note_on_c, 1, 38, 0
1, 24536, Note_on_c, 2, 59, 0
1, 24538, Note_on_c, 0, 65, 0
1, 24543, Note_on_c, 5, 61, 95
1, 24546, Note_on_c, 2, 63, 0
1, 24547, Note_on_c, 5, 63, 0
1, 24550, Note_on_c, 2, 56, 0
1, 24550, Note_on_c, 11, 43, 0
1, 24550, Note_on_c, 1, 43, 0
1, 24550, Note_on_c, 2, 63, 85
1, 24550, Note_on_c, 9, 69, 25
1, 24551, Note_on_c, 9, 69, 0
1, 24551, Note_on_c, 0, 56, 52
1, 24551, Note_on_c, 1, 37, 62
1, 24551, Note_on_c, 9, 42, 48
1, 24551, Note_on_c, 11, 37, 58
1, 24552, Note_on_c, 9, 42, 0
1, 24552, Note_on_c, 2, 59, 76
1, 24554, Note_on_c, 0, 61, 0
1, 24558, Note_on_c, 2, 63, 0
1, 24558, Note_on_c, 5, 58, 93
1, 24560, Note_on_c, 2, 59, 0
1, 24564, Note_on_c, 5, 61, 0
1, 24574, Note_on_c, 2, 56, 95
1, 24574, Note_on_c, 2, 61, 90
1, 24574, Note_on_c, 2, 65, 63
1, 24574, Note_on_c, 2, 58, 90
1, 24575, Note_on_c, 0, 65, 66
1, 24575, Note_on_c, 9, 36, 113
1, 24576, Note_on_c, 9, 36, 0
1, 24576, Note_on_c, 0, 61, 62
1, 24576, Note_on_c, 0, 58, 67
1, 24576, Note_on_c, 9, 42, 73
1, 24577, Note_on_c, 9, 42, 0
1, 24577, Note_on_c, 1, 42, 80
1, 24577, Note_on_c, 11, 42, 76
1, 24578, Note_on_c, 1, 37, 0
1, 24578, Note_on_c, 11, 37, 0
1, 24578, Note_on_c, 5, 61, 105
1, 24580, Note_on_c, 5, 58, 0
1, 24595, Note_on_c, 0, 58, 0
1, 24595, Note_on_c, 0, 61, 0
1, 24600, Note_on_c, 0, 56, 0
1, 24600, Note_on_c, 9, 44, 42
1, 24601, Note_on_c, 9, 44, 0
1, 24605, Note_on_c, 0, 65, 0
1, 24606, Note_on_c, 5, 58, 100
1, 24607, Note_on_c, 5, 61, 0
1, 24622, Note_on_c, 2, 58, 0
1, 24622, Note_on_c, 2, 65, 0
1, 24622, Note_on_c, 2, 56, 0
1, 24622, Note_on_c, 2, 61, 0
1, 24622, Note_on_c, 9, 69, 35
1, 24623, Note_on_c, 9, 69, 0
1, 24623, Note_on_c, 0, 56, 60
1, 24623, Note_on_c, 0, 61, 65
1, 24623, Note_on_c, 0, 58, 67
1, 24623, Note_on_c, 0, 65, 66
1, 24623, Note_on_c, 9, 42, 42
1, 24624, Note_on_c, 9, 42, 0
1, 24624, Note_on_c, 2, 61, 104
1, 24624, Note_on_c, 2, 56, 108
1, 24624, Note_on_c, 2, 65, 77
1, 24624, Note_on_c, 2, 58, 100
1, 24633, Note_on_c, 2, 58, 0
1, 24633, Note_on_c, 2, 56, 0
1, 24633, Note_on_c, 2, 61, 0
1, 24634, Note_on_c, 2, 65, 0
1, 24646, Note_on_c, 1, 42, 0
1, 24646, Note_on_c, 11, 42, 0
1, 24646, Note_on_c, 2, 61, 68
1, 24646, Note_on_c, 2, 56, 63
1, 24646, Note_on_c, 2, 58, 60
1, 24646, Note_on_c, 2, 65, 61
1, 24647, Note_on_c, 9, 42, 42
1, 24648, Note_on_c, 9, 42, 0
1, 24648, Note_on_c, 9, 69, 24
1, 24649, Note_on_c, 9, 69, 0
1, 24653, Note_on_c, 0, 65, 0
1, 24654, Note_on_c, 0, 61, 0
1, 24655, Note_on_c, 0, 58, 0
1, 24657, Note_on_c, 0, 56, 0
1, 24671, Note_on_c, 9, 75, 76
1, 24671, Note_on_c, 9, 40, 104
1, 24672, Note_on_c, 9, 40, 0
1, 24672, Note_on_c, 9, 75, 0
1, 24672, Note_on_c, 9, 42, 81
1, 24673, Note_on_c, 9, 42, 0
1, 24678, Pitch_bend_c, 5, 7808
1, 24679, Note_on_c, 2, 56, 0
1, 24679, Pitch_bend_c, 5, 7552
1, 24680, Note_on_c, 2, 61, 0
1, 24680, Pitch_bend_c, 5, 7296
1, 24681, Pitch_bend_c, 5, 7040
1, 24682, Note_on_c, 2, 58, 0
1, 24682, Note_on_c, 2, 65, 0
1, 24682, Pitch_bend_c, 5, 6784
1, 24683, Pitch_bend_c, 5, 6528
1, 24684, Pitch_bend_c, 5, 6400
1, 24685, Pitch_bend_c, 5, 6272
1, 24686, Pitch_bend_c, 5, 6144
1, 24687, Pitch_bend_c, 5, 6016
1, 24688, Pitch_bend_c, 5, 5888
1, 24694, Note_on_c, 5, 58, 0
1, 24694, Note_on_c, 2, 58, 62
1, 24694, Note_on_c, 2, 56, 68
1, 24694, Note_on_c, 2, 61, 71
1, 24694, Note_on_c, 2, 65, 70
1, 24695, Note_on_c, 0, 65, 69
1, 24695, Note_on_c, 0, 58, 67
1, 24695, Note_on_c, 9, 44, 43
1, 24696, Note_on_c, 9, 44, 0
1, 24697, Note_on_c, 0, 56, 57
1, 24698, Pitch_bend_c, 5, 7936
1, 24699, Pitch_bend_c, 5, 8192
1, 24701, Note_on_c, 2, 61, 0
1, 24702, Note_on_c, 2, 58, 0
1, 24703, Note_on_c, 2, 65, 0
1, 24703, Note_on_c, 2, 56, 0
1, 24711, Note_on_c, 0, 56, 0
1, 24718, Note_on_c, 0, 61, 54
1, 24718, Note_on_c, 2, 65, 93
1, 24718, Note_on_c, 9, 69, 45
1, 24719, Note_on_c, 9, 69, 0
1, 24719, Note_on_c, 9, 42, 50
1, 24720, Note_on_c, 9, 42, 0
1, 24720, Note_on_c, 2, 61, 31
1, 24721, Note_on_c, 2, 58, 48
1, 24725, Note_on_c, 0, 58, 0
1, 24729, Note_on_c, 2, 61, 0
1, 24734, Note_on_c, 2, 58, 0
1, 24737, Note_on_c, 0, 65, 0
1, 24738, Note_on_c, 2, 65, 0
1, 24742, Note_on_c, 0, 56, 48
1, 24742, Note_on_c, 2, 65, 77
1, 24742, Note_on_c, 9, 69, 34
1, 24743, Note_on_c, 9, 69, 0
1, 24743, Note_on_c, 0, 61, 0
1, 24743, Note_on_c, 1, 37, 81
1, 24743, Note_on_c, 9, 42, 43
1, 24743, Note_on_c, 11, 37, 77
1, 24744, Note_on_c, 9, 42, 0
1, 24744, Note_on_c, 2, 61, 67
1, 24745, Note_on_c, 9, 36, 110
1, 24746, Note_on_c, 9, 36, 0
1, 24750, Note_on_c, 2, 65, 0
1, 24752, Note_on_c, 2, 61, 0
1, 24766, Note_on_c, 0, 58, 68
1, 24766, Note_on_c, 0, 65, 67
1, 24766, Note_on_c, 2, 65, 63
1, 24766, Note_on_c, 2, 58, 79
1, 24766, Note_on_c, 2, 61, 77
1, 24766, Note_on_c, 2, 56, 60
1, 24767, Note_on_c, 1, 42, 76
1, 24767, Note_on_c, 9, 36, 64
1, 24767, Note_on_c, 11, 42, 72
1, 24768, Note_on_c, 9, 36, 0
1, 24768, Note_on_c, 9, 42, 85
1, 24769, Note_on_c, 9, 42, 0
1, 24769, Note_on_c, 11, 37, 0
1, 24769, Note_on_c, 1, 37, 0
1, 24786, Note_on_c, 0, 56, 0
1, 24790, Note_on_c, 1, 42, 0
1, 24790, Note_on_c, 11, 42, 0
1, 24791, Note_on_c, 1, 34, 70
1, 24791, Note_on_c, 9, 44, 42
1, 24791, Note_on_c, 11, 34, 66
1, 24792, Note_on_c, 9, 44, 0
1, 24798, Note_on_c, 0, 58, 0
1, 24802, Note_on_c, 0, 65, 0
1, 24813, Note_on_c, 2, 56, 0
1, 24813, Note_on_c, 2, 65, 0
1, 24813, Note_on_c, 2, 58, 0
1, 24813, Note_on_c, 2, 61, 0
1, 24814, Note_on_c, 0, 56, 46
1, 24814, Note_on_c, 2, 56, 98
1, 24814, Note_on_c, 2, 65, 81
1, 24814, Note_on_c, 2, 61, 104
1, 24814, Note_on_c, 2, 58, 95
1, 24814, Note_on_c, 9, 69, 43
1, 24815, Note_on_c, 9, 69, 0
1, 24815, Note_on_c, 1, 42, 80
1, 24815, Note_on_c, 11, 42, 76
1, 24816, Note_on_c, 9, 42, 54
1, 24817, Note_on_c, 9, 42, 0
1, 24817, Note_on_c, 9, 36, 113
1, 24818, Note_on_c, 9, 36, 0
1, 24818, Note_on_c, 11, 34, 0
1, 24818, Note_on_c, 1, 34, 0
1, 24823, Note_on_c, 2, 56, 0
1, 24825, Note_on_c, 2, 61, 0
1, 24825, Note_on_c, 2, 58, 0
1, 24827, Note_on_c, 2, 65, 0
1, 24834, Note_on_c, 0, 56, 0
1, 24838, Note_on_c, 2, 58, 65
1, 24838, Note_on_c, 2, 65, 69
1, 24838, Note_on_c, 2, 61, 68
1, 24838, Note_on_c, 2, 56, 64
1, 24838, Note_on_c, 9, 69, 32
1, 24839, Note_on_c, 9, 69, 0
1, 24839, Note_on_c, 0, 58, 58
1, 24839, Note_on_c, 0, 65, 70
1, 24839, Note_on_c, 9, 42, 49
1, 24840, Note_on_c, 9, 42, 0
1, 24841, Note_on_c, 0, 61, 61
1, 24841, Note_on_c, 0, 56, 55
1, 24862, Note_on_c, 5, 56, 104
1, 24864, Note_on_c, 9, 75, 76
1, 24865, Note_on_c, 9, 75, 0
1, 24865, Note_on_c, 0, 61, 0
1, 24865, Note_on_c, 9, 40, 105
1, 24865, Note_on_c, 9, 42, 73
1, 24866, Note_on_c, 9, 42, 0
1, 24866, Note_on_c, 9, 40, 0
1, 24868, Note_on_c, 0, 58, 0
1, 24870, Note_on_c, 0, 56, 0
1, 24870, Note_on_c, 0, 65, 0
1, 24873, Note_on_c, 2, 56, 0
1, 24874, Note_on_c, 2, 65, 0
1, 24874, Note_on_c, 2, 58, 0
1, 24874, Note_on_c, 2, 61, 0
1, 24886, Note_on_c, 2, 56, 71
1, 24886, Note_on_c, 2, 61, 72
1, 24886, Note_on_c, 2, 58, 64
1, 24886, Note_on_c, 2, 65, 72
1, 24886, Note_on_c, 5, 58, 97
1, 24886, Note_on_c, 13, 56, 98
1, 24887, Note_on_c, 1, 42, 0
1, 24887, Note_on_c, 11, 42, 0
1, 24887, Note_on_c, 0, 65, 70
1, 24887, Note_on_c, 0, 58, 65
1, 24887, Note_on_c, 1, 37, 80
1, 24887, Note_on_c, 9, 44, 45
1, 24887, Note_on_c, 11, 37, 76
1, 24888, Note_on_c, 9, 44, 0
1, 24889, Note_on_c, 0, 56, 54
1, 24890, Note_on_c, 5, 56, 0
1, 24895, Note_on_c, 2, 58, 0
1, 24896, Note_on_c, 2, 56, 0
1, 24896, Note_on_c, 2, 61, 0
1, 24897, Note_on_c, 2, 65, 0
1, 24906, Note_on_c, 0, 56, 0
1, 24910, Note_on_c, 2, 61, 58
1, 24910, Note_on_c, 2, 65, 90
1, 24910, Note_on_c, 5, 61, 97
1, 24910, Note_on_c, 9, 69, 35
1, 24910, Note_on_c, 13, 58, 91
1, 24911, Note_on_c, 9, 69, 0
1, 24911, Note_on_c, 9, 42, 51
1, 24912, Note_on_c, 9, 42, 0
1, 24912, Note_on_c, 1, 42, 70
1, 24912, Note_on_c, 11, 42, 66
1, 24914, Note_on_c, 13, 56, 0
1, 24914, Note_on_c, 1, 37, 0
1, 24914, Note_on_c, 11, 37, 0
1, 24914, Note_on_c, 0, 61, 7
1, 24916, Note_on_c, 5, 58, 0
1, 24920, Note_on_c, 2, 61, 0
1, 24923, Note_on_c, 0, 65, 0
1, 24924, Note_on_c, 0, 58, 0
1, 24928, Note_on_c, 2, 65, 0
1, 24931, Note_on_c, 0, 61, 0
1, 24934, Note_on_c, 2, 65, 77
1, 24934, Note_on_c, 2, 61, 61
1, 24934, Note_on_c, 5, 63, 97
1, 24934, Note_on_c, 13, 61, 91
1, 24935, Note_on_c, 0, 56, 41
1, 24935, Note_on_c, 1, 34, 72
1, 24935, Note_on_c, 9, 69, 25
1, 24935, Note_on_c, 9, 42, 43
1, 24935, Note_on_c, 11, 34, 68
1, 24936, Note_on_c, 9, 42, 0
1, 24936, Note_on_c, 9, 69, 0
1, 24938, Note_on_c, 5, 61, 0
1, 24940, Note_on_c, 13, 58, 0
1, 24942, Note_on_c, 2, 65, 0
1, 24942, Note_on_c, 2, 61, 0
1, 24947, Note_on_c, 11, 42, 0
1, 24947, Note_on_c, 1, 42, 0
1, 24949, Note_on_c, 0, 56, 0
1, 24958, Note_on_c, 2, 57, 74
1, 24958, Note_on_c, 2, 63, 71
1, 24958, Note_on_c, 2, 61, 70
1, 24958, Note_on_c, 2, 68, 64
1, 24958, Note_on_c, 13, 63, 91
1, 24959, Note_on_c, 0, 57, 61
1, 24959, Note_on_c, 0, 61, 54
1, 24959, Note_on_c, 0, 68, 67
1, 24959, Note_on_c, 9, 42, 87
1, 24959, Note_on_c, 9, 36, 110
1, 24960, Note_on_c, 9, 36, 0
1, 24960, Note_on_c, 9, 42, 0
1, 24960, Note_on_c, 5, 65, 97
1, 24961, Note_on_c, 1, 34, 0
1, 24961, Note_on_c, 11, 34, 0
1, 24961, Note_on_c, 0, 63, 44
1, 24961, Note_on_c, 1, 35, 91
1, 24961, Note_on_c, 11, 35, 87
1, 24962, Note_on_c, 13, 61, 0
1, 24966, Note_on_c, 5, 63, 0
1, 24978, Note_on_c, 0, 61, 0
1, 24978, Note_on_c, 0, 63, 0
1, 24979, Note_on_c, 0, 57, 0
1, 24983, Note_on_c, 9, 44, 42
1, 24984, Note_on_c, 9, 44, 0
1, 24984, Note_on_c, 13, 65, 91
1, 24987, Note_on_c, 0, 68, 0
1, 24990, Note_on_c, 13, 63, 0
1, 24992, Pitch_bend_c, 5, 8322
1, 24993, Pitch_bend_c, 5, 8452
1, 24994, Pitch_bend_c, 5, 8582
1, 24996, Pitch_bend_c, 5, 8712
1, 24998, Pitch_bend_c, 5, 8842
1, 25003, Note_on_c, 2, 68, 0
1, 25003, Note_on_c, 2, 57, 0
1, 25003, Note_on_c, 2, 61, 0
1, 25003, Note_on_c, 2, 63, 0
1, 25006, Note_on_c, 2, 57, 74
1, 25006, Note_on_c, 2, 63, 117
1, 25006, Note_on_c, 2, 68, 93
1, 25006, Note_on_c, 2, 61, 108
1, 25007, Pitch_bend_c, 5, 8712
1, 25007, Note_on_c, 9, 42, 55
1, 25007, Note_on_c, 9, 69, 34
1, 25008, Note_on_c, 9, 69, 0
1, 25008, Note_on_c, 9, 42, 0
1, 25008, Note_on_c, 0, 68, 56
1, 25009, Note_on_c, 0, 61, 58
1, 25009, Note_on_c, 0, 57, 75
1, 25009, Note_on_c, 0, 63, 57
1, 25012, Pitch_bend_c, 5, 8582
1, 25013, Pitch_bend_c, 5, 8452
1, 25014, Note_on_c, 2, 63, 0
1, 25014, Pitch_bend_c, 5, 8192
1, 25015, Note_on_c, 2, 61, 0
1, 25016, Note_on_c, 2, 68, 0
1, 25016, Pitch_bend_c, 13, 8322
1, 25017, Pitch_bend_c, 13, 8452
1, 25018, Note_on_c, 2, 57, 0
1, 25018, Pitch_bend_c, 13, 8582
1, 25020, Pitch_bend_c, 13, 8712
1, 25022, Note_on_c, 11, 35, 0
1, 25022, Note_on_c, 1, 35, 0
1, 25022, Pitch_bend_c, 13, 8842
1, 25031, Note_on_c, 9, 42, 54
1, 25031, Pitch_bend_c, 13, 8712
1, 25032, Note_on_c, 9, 42, 0
1, 25032, Note_on_c, 2, 57, 67
1, 25032, Note_on_c, 2, 68, 58
1, 25032, Note_on_c, 2, 63, 67
1, 25032, Note_on_c, 9, 69, 27
1, 25033, Note_on_c, 9, 69, 0
1, 25033, Note_on_c, 2, 61, 65
1, 25036, Pitch_bend_c, 13, 8582
1, 25037, Pitch_bend_c, 13, 8452
1, 25038, Pitch_bend_c, 13, 8192
1, 25040, Note_on_c, 0, 57, 0
1, 25042, Note_on_c, 0, 63, 0
1, 25043, Note_on_c, 0, 61, 0
1, 25049, Note_on_c, 0, 68, 0
1, 25050, Note_on_c, 5, 68, 94
1, 25054, Note_on_c, 5, 65, 0
1, 25054, Note_on_c, 0, 57, 53
1, 25055, Note_on_c, 9, 40, 104
1, 25055, Note_on_c, 9, 42, 94
1, 25056, Note_on_c, 9, 42, 0
1, 25056, Note_on_c, 9, 40, 0
1, 25056, Note_on_c, 9, 75, 79
1, 25057, Note_on_c, 9, 75, 0
1, 25063, Note_on_c, 0, 57, 0
1, 25068, Note_on_c, 2, 57, 0
1, 25068, Note_on_c, 2, 63, 0
1, 25070, Note_on_c, 2, 61, 0
1, 25070, Note_on_c, 2, 68, 0
1, 25074, Note_on_c, 13, 68, 88
1, 25077, Note_on_c, 5, 65, 93
1, 25078, Note_on_c, 13, 65, 0
1, 25079, Note_on_c, 1, 42, 79
1, 25079, Note_on_c, 9, 44, 43
1, 25079, Note_on_c, 11, 42, 75
1, 25080, Note_on_c, 9, 44, 0
1, 25080, Note_on_c, 2, 61, 73
1, 25080, Note_on_c, 2, 57, 72
1, 25080, Note_on_c, 2, 63, 71
1, 25080, Note_on_c, 2, 68, 69
1, 25081, Note_on_c, 0, 57, 80
1, 25081, Note_on_c, 0, 68, 55
1, 25081, Note_on_c, 0, 61, 66
1, 25081, Note_on_c, 0, 63, 57
1, 25082, Note_on_c, 5, 68, 0
1, 25086, Note_on_c, 2, 63, 0
1, 25088, Note_on_c, 2, 68, 0
1, 25088, Note_on_c, 2, 57, 0
1, 25088, Note_on_c, 2, 61, 0
1, 25094, Note_on_c, 0, 57, 0
1, 25094, Note_on_c, 0, 63, 0
1, 25100, Note_on_c, 5, 70, 103
1, 25101, Note_on_c, 2, 68, 95
1, 25101, Note_on_c, 2, 63, 64
1, 25101, Note_on_c, 13, 65, 87
1, 25102, Note_on_c, 2, 59, 65
1, 25102, Note_on_c, 9, 69, 37
1, 25103, Note_on_c, 9, 69, 0
1, 25103, Note_on_c, 1, 47, 88
1, 25103, Note_on_c, 9, 42, 44
1, 25103, Note_on_c, 11, 47, 84
1, 25104, Note_on_c, 9, 42, 0
1, 25106, Note_on_c, 0, 61, 0
1, 25106, Note_on_c, 5, 65, 0
1, 25106, Note_on_c, 11, 42, 0
1, 25106, Note_on_c, 1, 42, 0
1, 25106, Note_on_c, 13, 68, 0
1, 25113, Note_on_c, 2, 63, 0
1, 25114, Pitch_bend_c, 5, 8452
1, 25115, Pitch_bend_c, 5, 8582
1, 25116, Pitch_bend_c, 5, 8842
1, 25118, Pitch_bend_c, 5, 9102
1, 25120, Pitch_bend_c, 5, 9232
1, 25121, Note_on_c, 2, 68, 0
1, 25121, Pitch_bend_c, 5, 9362
1, 25122, Pitch_bend_c, 5, 9492
1, 25123, Note_on_c, 0, 68, 0
1, 25124, Note_on_c, 2, 59, 0
1, 25124, Note_on_c, 13, 70, 97
1, 25125, Pitch_bend_c, 5, 9622
1, 25126, Note_on_c, 2, 68, 90
1, 25126, Note_on_c, 2, 63, 61
1, 25126, Pitch_bend_c, 5, 9752
1, 25127, Note_on_c, 1, 42, 75
1, 25127, Pitch_bend_c, 5, 9882
1, 25127, Note_on_c, 9, 42, 55
1, 25127, Note_on_c, 9, 69, 33
1, 25127, Note_on_c, 11, 42, 71
1, 25128, Note_on_c, 9, 69, 0
1, 25128, Note_on_c, 9, 42, 0
1, 25129, Note_on_c, 0, 57, 62
1, 25129, Pitch_bend_c, 5, 10012
1, 25129, Note_on_c, 9, 36, 105
1, 25130, Note_on_c, 9, 36, 0
1, 25130, Note_on_c, 13, 65, 0
1, 25130, Pitch_bend_c, 5, 10142
1, 25131, Pitch_bend_c, 5, 10272
1, 25132, Pitch_bend_c, 5, 10402
1, 25134, Note_on_c, 1, 47, 0
1, 25134, Note_on_c, 2, 68, 0
1, 25134, Note_on_c, 11, 47, 0
1, 25134, Pitch_bend_c, 5, 10532
1, 25135, Pitch_bend_c, 5, 10662
1, 25137, Pitch_bend_c, 5, 10792
1, 25138, Note_on_c, 2, 63, 0
1, 25138, Pitch_bend_c, 5, 10922
1, 25138, Pitch_bend_c, 13, 8452
1, 25139, Pitch_bend_c, 13, 8582
1, 25140, Pitch_bend_c, 5, 11052
1, 25140, Pitch_bend_c, 13, 8842
1, 25142, Pitch_bend_c, 5, 11312
1, 25142, Pitch_bend_c, 13, 9102
1, 25144, Pitch_bend_c, 5, 11442
1, 25144, Pitch_bend_c, 13, 9232
1, 25145, Pitch_bend_c, 13, 9362
1, 25146, Pitch_bend_c, 5, 11572
1, 25146, Pitch_bend_c, 13, 9492
1, 25148, Note_on_c, 0, 57, 0
1, 25149, Pitch_bend_c, 13, 9622
1, 25150, Note_on_c, 2, 63, 74
1, 25150, Note_on_c, 2, 57, 67
1, 25150, Note_on_c, 2, 61, 71
1, 25150, Note_on_c, 2, 68, 59
1, 25150, Pitch_bend_c, 5, 11702
1, 25150, Pitch_bend_c, 13, 9752
1, 25151, Note_on_c, 1, 45, 80
1, 25151, Note_on_c, 9, 36, 69
1, 25151, Note_on_c, 9, 42, 78
1, 25151, Note_on_c, 11, 45, 76
1, 25151, Pitch_bend_c, 13, 9882
1, 25152, Note_on_c, 9, 42, 0
1, 25152, Note_on_c, 9, 36, 0
1, 25152, Note_on_c, 0, 57, 50
1, 25152, Note_on_c, 0, 66, 68
1, 25152, Note_on_c, 0, 61, 55
1, 25152, Pitch_bend_c, 5, 11442
1, 25153, Note_on_c, 11, 42, 0
1, 25153, Note_on_c, 1, 42, 0
1, 25153, Note_on_c, 0, 63, 53
1, 25153, Pitch_bend_c, 5, 10142
1, 25153, Pitch_bend_c, 13, 10012
1, 25154, Pitch_bend_c, 5, 8192
1, 25154, Pitch_bend_c, 13, 10142
1, 25155, Pitch_bend_c, 13, 10272
1, 25156, Pitch_bend_c, 13, 10402
1, 25158, Pitch_bend_c, 13, 10532
1, 25159, Pitch_bend_c, 13, 10662
1, 25161, Pitch_bend_c, 13, 10792
1, 25162, Note_on_c, 0, 63, 0
1, 25162, Pitch_bend_c, 13, 10922
1, 25163, Note_on_c, 0, 61, 0
1, 25164, Note_on_c, 0, 66, 0
1, 25164, Pitch_bend_c, 13, 11052
1, 25166, Note_on_c, 0, 57, 0
1, 25166, Note_on_c, 5, 68, 92
1, 25166, Pitch_bend_c, 13, 11312
1, 25168, Pitch_bend_c, 13, 11442
1, 25170, Pitch_bend_c, 13, 11572
1, 25172, Note_on_c, 5, 70, 0
1, 25174, Pitch_bend_c, 13, 11702
1, 25175, Note_on_c, 1, 40, 72
1, 25175, Note_on_c, 9, 44, 49
1, 25175, Note_on_c, 11, 40, 68
1, 25176, Note_on_c, 9, 44, 0
1, 25176, Note_on_c, 1, 45, 0
1, 25176, Note_on_c, 11, 45, 0
1, 25176, Pitch_bend_c, 13, 11442
1, 25177, Pitch_bend_c, 13, 10142
1, 25178, Pitch_bend_c, 13, 8192
1, 25181, Note_on_c, 5, 65, 93
1, 25183, Note_on_c, 5, 68, 0
1, 25190, Note_on_c, 13, 68, 86
1, 25196, Note_on_c, 13, 70, 0
1, 25197, Note_on_c, 2, 68, 0
1, 25197, Note_on_c, 2, 57, 0
1, 25197, Note_on_c, 2, 61, 0
1, 25197, Note_on_c, 5, 68, 97
1, 25198, Note_on_c, 2, 63, 0
1, 25198, Note_on_c, 2, 68, 83
1, 25198, Note_on_c, 2, 61, 114
1, 25198, Note_on_c, 2, 57, 73
1, 25198, Note_on_c, 9, 69, 37
1, 25199, Note_on_c, 9, 69, 0
1, 25199, Note_on_c, 5, 65, 0
1, 25199, Note_on_c, 1, 45, 86
1, 25199, Note_on_c, 9, 36, 107
1, 25199, Note_on_c, 9, 42, 46
1, 25199, Note_on_c, 11, 45, 82
1, 25200, Note_on_c, 9, 42, 0
1, 25200, Note_on_c, 9, 36, 0
1, 25200, Note_on_c, 2, 63, 117
1, 25201, Note_on_c, 11, 40, 0
1, 25201, Note_on_c, 1, 40, 0
1, 25201, Note_on_c, 0, 57, 66
1, 25201, Note_on_c, 0, 61, 75
1, 25201, Note_on_c, 0, 66, 70
1, 25205, Note_on_c, 13, 65, 87
1, 25207, Note_on_c, 13, 68, 0
1, 25209, Note_on_c, 2, 61, 0
1, 25210, Note_on_c, 2, 57, 0
1, 25210, Note_on_c, 2, 63, 0
1, 25212, Note_on_c, 2, 68, 0
1, 25221, Note_on_c, 13, 68, 91
1, 25222, Note_on_c, 2, 63, 69
1, 25222, Note_on_c, 2, 61, 67
1, 25222, Note_on_c, 9, 69, 27
1, 25223, Note_on_c, 9, 69, 0
1, 25223, Note_on_c, 13, 65, 0
1, 25223, Note_on_c, 9, 42, 42
1, 25224, Note_on_c, 9, 42, 0
1, 25224, Note_on_c, 2, 68, 60
1, 25224, Note_on_c, 2, 57, 74
1, 25224, Note_on_c, 5, 69, 96
1, 25229, Note_on_c, 5, 68, 0
1, 25246, Note_on_c, 0, 66, 0
1, 25247, Note_on_c, 9, 40, 107
1, 25248, Note_on_c, 9, 40, 0
1, 25248, Note_on_c, 0, 61, 0
1, 25248, Note_on_c, 9, 75, 79
1, 25248, Note_on_c, 9, 42, 87
1, 25248, Note_on_c, 13, 69, 90
1, 25249, Note_on_c, 9, 42, 0
1, 25249, Note_on_c, 9, 75, 0
1, 25252, Note_on_c, 5, 70, 105
1, 25253, Note_on_c, 13, 68, 0
1, 25254, Note_on_c, 5, 69, 0
1, 25257, Note_on_c, 2, 61, 0
1, 25260, Note_on_c, 2, 63, 0
1, 25260, Note_on_c, 2, 57, 0
1, 25261, Note_on_c, 2, 68, 0
1, 25268, Note_on_c, 11, 45, 0
1, 25268, Note_on_c, 1, 45, 0
1, 25270, Note_on_c, 2, 68, 71
1, 25270, Note_on_c, 2, 57, 75
1, 25271, Note_on_c, 1, 33, 86
1, 25271, Note_on_c, 9, 44, 44
1, 25271, Note_on_c, 11, 33, 82
1, 25272, Note_on_c, 9, 44, 0
1, 25272, Note_on_c, 2, 63, 72
1, 25272, Note_on_c, 2, 61, 69
1, 25276, Note_on_c, 13, 70, 99
1, 25278, Note_on_c, 13, 69, 0
1, 25278, Note_on_c, 2, 57, 0
1, 25280, Note_on_c, 2, 63, 0
1, 25281, Note_on_c, 2, 68, 0
1, 25281, Note_on_c, 2, 61, 0
1, 25282, Pitch_bend_c, 5, 8322
1, 25283, Pitch_bend_c, 5, 8452
1, 25284, Pitch_bend_c, 5, 8582
1, 25285, Pitch_bend_c, 5, 8712
1, 25286, Pitch_bend_c, 5, 8972
1, 25288, Pitch_bend_c, 5, 9102
1, 25289, Pitch_bend_c, 5, 9232
1, 25290, Pitch_bend_c, 5, 9362
1, 25293, Note_on_c, 0, 57, 0
1, 25293, Note_on_c, 2, 68, 87
1, 25293, Pitch_bend_c, 5, 9232
1, 25294, Note_on_c, 2, 63, 63
1, 25294, Pitch_bend_c, 5, 8192
1, 25294, Note_on_c, 9, 69, 39
1, 25295, Note_on_c, 9, 69, 0
1, 25295, Note_on_c, 1, 30, 66
1, 25295, Note_on_c, 9, 42, 48
1, 25295, Note_on_c, 11, 30, 62
1, 25296, Note_on_c, 9, 42, 0
1, 25296, Note_on_c, 1, 33, 0
1, 25296, Note_on_c, 11, 33, 0
1, 25296, Note_on_c, 0, 66, 61
1, 25296, Note_on_c, 2, 59, 63
1, 25297, Note_on_c, 0, 61, 66
1, 25297, Note_on_c, 0, 63, 62
1, 25298, Note_on_c, 0, 57, 53
1, 25298, Note_on_c, 5, 73, 102
1, 25299, Note_on_c, 5, 70, 0
1, 25306, Note_on_c, 0, 57, 0
1, 25306, Pitch_bend_c, 13, 8322
1, 25307, Pitch_bend_c, 13, 8452
1, 25308, Note_on_c, 2, 59, 0
1, 25308, Pitch_bend_c, 13, 8582
1, 25309, Pitch_bend_c, 13, 8712
1, 25310, Note_on_c, 2, 63, 0
1, 25310, Pitch_bend_c, 13, 8972
1, 25312, Pitch_bend_c, 13, 9102
1, 25313, Note_on_c, 2, 68, 0
1, 25313, Pitch_bend_c, 13, 9232
1, 25314, Pitch_bend_c, 13, 9362
1, 25317, Note_on_c, 2, 68, 90
1, 25317, Pitch_bend_c, 13, 9232
1, 25318, Note_on_c, 0, 61, 0
1, 25318, Note_on_c, 0, 63, 0
1, 25318, Note_on_c, 0, 66, 0
1, 25318, Note_on_c, 2, 63, 69
1, 25318, Pitch_bend_c, 13, 8192
1, 25319, Note_on_c, 1, 31, 82
1, 25319, Note_on_c, 9, 42, 43
1, 25319, Note_on_c, 9, 69, 27
1, 25319, Note_on_c, 11, 31, 78
1, 25320, Note_on_c, 9, 69, 0
1, 25320, Note_on_c, 9, 42, 0
1, 25321, Note_on_c, 0, 57, 54
1, 25322, Note_on_c, 5, 70, 105
1, 25322, Note_on_c, 13, 73, 96
1, 25323, Note_on_c, 13, 70, 0
1, 25323, Note_on_c, 2, 68, 0
1, 25324, Note_on_c, 11, 30, 0
1, 25324, Note_on_c, 1, 30, 0
1, 25326, Note_on_c, 2, 63, 0
1, 25329, Note_on_c, 5, 73, 0
1, 25335, Note_on_c, 0, 57, 0
1, 25342, Note_on_c, 2, 65, 72
1, 25342, Note_on_c, 2, 61, 83
1, 25342, Note_on_c, 2, 58, 79
1, 25343, Note_on_c, 3, 70, 92
1, 25344, Note_on_c, 0, 65, 60
1, 25344, Note_on_c, 0, 56, 56
1, 25344, Note_on_c, 0, 58, 59
1, 25344, Note_on_c, 0, 61, 68
1, 25344, Note_on_c, 1, 37, 87
1, 25344, Note_on_c, 2, 56, 59
1, 25344, Note_on_c, 4, 70, 67
1, 25344, Note_on_c, 9, 51, 91
1, 25344, Note_on_c, 9, 36, 110
1, 25344, Note_on_c, 10, 58, 49
1, 25344, Note_on_c, 10, 68, 56
1, 25344, Note_on_c, 10, 61, 60
1, 25344, Note_on_c, 10, 65, 64
1, 25344, Note_on_c, 11, 37, 83
1, 25345, Note_on_c, 9, 36, 0
1, 25345, Note_on_c, 9, 51, 0
1, 25345, Note_on_c, 5, 70, 0
1, 25346, Note_on_c, 1, 31, 0
1, 25346, Note_on_c, 11, 31, 0
1, 25346, Note_on_c, 13, 70, 99
1, 25353, Note_on_c, 13, 73, 0
1, 25367, Note_on_c, 9, 44, 44
1, 25368, Note_on_c, 9, 44, 0
1, 25369, Note_on_c, 13, 70, 0
1, 25379, Note_on_c, 0, 56, 0
1, 25379, Note_on_c, 0, 61, 0
1, 25381, Note_on_c, 0, 65, 0
1, 25382, Note_on_c, 0, 58, 0
1, 25390, Note_on_c, 2, 58, 0
1, 25390, Note_on_c, 2, 65, 0
1, 25390, Note_on_c, 2, 61, 0
1, 25390, Note_on_c, 2, 56, 0
1, 25390, Note_on_c, 9, 69, 33
1, 25391, Note_on_c, 9, 69, 0
1, 25391, Note_on_c, 9, 51, 40
1, 25392, Note_on_c, 9, 51, 0
1, 25392, Note_on_c, 4, 70, 0
1, 25392, Note_on_c, 2, 58, 104
1, 25392, Note_on_c, 2, 56, 86
1, 25392, Note_on_c, 2, 61, 100
1, 25392, Note_on_c, 2, 65, 83
1, 25392, Note_on_c, 4, 65, 68
1, 25393, Note_on_c, 0, 65, 59
1, 25393, Note_on_c, 0, 61, 63
1, 25393, Note_on_c, 0, 56, 52
1, 25393, Note_on_c, 0, 58, 59
1, 25394, Note_on_c, 3, 70, 0
1, 25394, Note_on_c, 3, 65, 82
1, 25400, Note_on_c, 2, 61, 0
1, 25402, Note_on_c, 2, 58, 0
1, 25402, Note_on_c, 2, 56, 0
1, 25405, Note_on_c, 2, 65, 0
1, 25414, Note_on_c, 9, 69, 21
1, 25415, Note_on_c, 9, 69, 0
1, 25415, Note_on_c, 9, 51, 44
1, 25416, Note_on_c, 9, 51, 0
1, 25416, Note_on_c, 0, 58, 0
1, 25416, Note_on_c, 0, 56, 0
1, 25416, Note_on_c, 4, 65, 0
1, 25416, Note_on_c, 2, 56, 63
1, 25416, Note_on_c, 2, 61, 74
1, 25416, Note_on_c, 2, 65, 74
1, 25416, Note_on_c, 2, 58, 64
1, 25416, Note_on_c, 4, 68, 69
1, 25417, Note_on_c, 3, 65, 0
1, 25417, Note_on_c, 9, 62, 69
1, 25418, Note_on_c, 9, 62, 0
1, 25418, Note_on_c, 0, 61, 0
1, 25420, Note_on_c, 3, 68, 91
1, 25423, Note_on_c, 0, 65, 0
1, 25439, Note_on_c, 9, 51, 76
1, 25439, Note_on_c, 9, 75, 79
1, 25439, Note_on_c, 9, 40, 101
1, 25440, Note_on_c, 9, 40, 0
1, 25440, Note_on_c, 9, 75, 0
1, 25440, Note_on_c, 9, 51, 0
1, 25442, Note_on_c, 11, 37, 0
1, 25442, Note_on_c, 1, 37, 0
1, 25442, Note_on_c, 9, 62, 66
1, 25443, Note_on_c, 9, 62, 0
1, 25452, Note_on_c, 2, 61, 0
1, 25452, Note_on_c, 2, 56, 0
1, 25452, Note_on_c, 2, 58, 0
1, 25452, Note_on_c, 2, 65, 0
1, 25462, Note_on_c, 3, 68, 0
1, 25462, Note_on_c, 2, 65, 70
1, 25463, Note_on_c, 0, 65, 70
1, 25463, Note_on_c, 0, 58, 70
1, 25463, Note_on_c, 3, 70, 80
1, 25463, Note_on_c, 9, 44, 40
1, 25464, Note_on_c, 9, 44, 0
1, 25464, Note_on_c, 4, 68, 0
1, 25464, Note_on_c, 0, 56, 58
1, 25464, Note_on_c, 2, 61, 71
1, 25464, Note_on_c, 2, 56, 67
1, 25464, Note_on_c, 2, 58, 67
1, 25464, Note_on_c, 4, 70, 69
1, 25469, Note_on_c, 2, 61, 0
1, 25470, Note_on_c, 2, 56, 0
1, 25470, Note_on_c, 2, 65, 0
1, 25470, Note_on_c, 2, 58, 0
1, 25485, Note_on_c, 2, 65, 87
1, 25486, Note_on_c, 0, 61, 60
1, 25486, Note_on_c, 2, 58, 47
1, 25486, Note_on_c, 2, 61, 60
1, 25487, Note_on_c, 0, 56, 0
1, 25487, Note_on_c, 9, 69, 33
1, 25487, Note_on_c, 9, 51, 42
1, 25488, Note_on_c, 9, 51, 0
1, 25488, Note_on_c, 9, 69, 0
1, 25490, Note_on_c, 0, 58, 0
1, 25496, Note_on_c, 2, 61, 0
1, 25499, Note_on_c, 0, 65, 0
1, 25505, Note_on_c, 2, 65, 0
1, 25506, Note_on_c, 2, 58, 0
1, 25510, Note_on_c, 0, 61, 0
1, 25510, Note_on_c, 0, 56, 8
1, 25510, Note_on_c, 2, 61, 61
1, 25510, Note_on_c, 2, 65, 81
1, 25511, Note_on_c, 1, 32, 70
1, 25511, Note_on_c, 9, 69, 25
1, 25511, Note_on_c, 9, 51, 40
1, 25511, Note_on_c, 9, 62, 62
1, 25511, Note_on_c, 11, 32, 66
1, 25512, Note_on_c, 9, 62, 0
1, 25512, Note_on_c, 9, 51, 0
1, 25512, Note_on_c, 9, 69, 0
1, 25512, Note_on_c, 9, 36, 104
1, 25513, Note_on_c, 9, 36, 0
1, 25514, Note_on_c, 0, 58, 57
1, 25518, Note_on_c, 2, 61, 0
1, 25518, Note_on_c, 2, 65, 0
1, 25526, Note_on_c, 0, 58, 0
1, 25531, Note_on_c, 0, 56, 0
1, 25534, Note_on_c, 2, 56, 60
1, 25534, Note_on_c, 2, 58, 87
1, 25534, Note_on_c, 2, 65, 64
1, 25534, Note_on_c, 2, 61, 93
1, 25535, Note_on_c, 0, 65, 79
1, 25535, Note_on_c, 1, 37, 78
1, 25535, Note_on_c, 9, 51, 87
1, 25535, Note_on_c, 9, 36, 68
1, 25535, Note_on_c, 11, 37, 74
1, 25536, Note_on_c, 9, 36, 0
1, 25536, Note_on_c, 9, 51, 0
1, 25536, Note_on_c, 0, 58, 70
1, 25537, Note_on_c, 0, 56, 55
1, 25537, Note_on_c, 9, 62, 62
1, 25538, Note_on_c, 9, 62, 0
1, 25539, Note_on_c, 1, 32, 0
1, 25539, Note_on_c, 11, 32, 0
1, 25557, Note_on_c, 5, 76, 113
1, 25559, Note_on_c, 0, 61, 52
1, 25559, Note_on_c, 1, 32, 69
1, 25559, Note_on_c, 11, 32, 65
1, 25560, Note_on_c, 9, 44, 46
1, 25561, Note_on_c, 9, 44, 0
1, 25562, Note_on_c, 11, 37, 0
1, 25562, Note_on_c, 1, 37, 0
1, 25567, Note_on_c, 0, 58, 0
1, 25574, Pitch_bend_c, 5, 8452
1, 25575, Note_on_c, 0, 65, 0
1, 25575, Pitch_bend_c, 5, 8582
1, 25576, Note_on_c, 3, 70, 0
1, 25576, Pitch_bend_c, 5, 8712
1, 25577, Pitch_bend_c, 5, 8842
1, 25578, Pitch_bend_c, 5, 9102
1, 25579, Note_on_c, 11, 32, 0
1, 25579, Note_on_c, 1, 32, 0
1, 25580, Pitch_bend_c, 5, 9362
1, 25582, Note_on_c, 2, 56, 0
1, 25582, Note_on_c, 2, 65, 0
1, 25582, Note_on_c, 2, 58, 0
1, 25582, Note_on_c, 2, 61, 0
1, 25582, Pitch_bend_c, 5, 9622
1, 25582, Note_on_c, 9, 69, 35
1, 25583, Note_on_c, 9, 69, 0
1, 25583, Note_on_c, 1, 37, 80
1, 25583, Pitch_bend_c, 5, 9752
1, 25583, Note_on_c, 9, 51, 43
1, 25583, Note_on_c, 9, 36, 97
1, 25583, Note_on_c, 11, 37, 76
1, 25584, Note_on_c, 9, 36, 0
1, 25584, Note_on_c, 9, 51, 0
1, 25584, Note_on_c, 2, 58, 112
1, 25584, Note_on_c, 2, 65, 87
1, 25584, Note_on_c, 2, 56, 98
1, 25584, Note_on_c, 2, 61, 108
1, 25586, Note_on_c, 0, 61, 0
1, 25586, Note_on_c, 0, 58, 48
1, 25586, Pitch_bend_c, 5, 10012
1, 25589, Pitch_bend_c, 5, 10142
1, 25591, Pitch_bend_c, 5, 10272
1, 25593, Note_on_c, 2, 58, 0
1, 25593, Note_on_c, 2, 61, 0
1, 25594, Pitch_bend_c, 5, 10532
1, 25596, Note_on_c, 2, 65, 0
1, 25596, Note_on_c, 2, 56, 0
1, 25597, Pitch_bend_c, 5, 10662
1, 25598, Pitch_bend_c, 5, 10792
1, 25599, Note_on_c, 0, 56, 0
1, 25599, Pitch_bend_c, 5, 10922
1, 25600, Note_on_c, 0, 58, 0
1, 25601, Pitch_bend_c, 5, 11052
1, 25602, Pitch_bend_c, 5, 11312
1, 25604, Pitch_bend_c, 5, 11442
1, 25606, Pitch_bend_c, 5, 11572
1, 25606, Note_on_c, 9, 62, 69
1, 25606, Note_on_c, 9, 69, 29
1, 25607, Note_on_c, 9, 69, 0
1, 25607, Note_on_c, 9, 62, 0
1, 25607, Pitch_bend_c, 5, 11702
1, 25607, Note_on_c, 9, 51, 54
1, 25608, Note_on_c, 9, 51, 0
1, 25608, Note_on_c, 0, 65, 75
1, 25608, Note_on_c, 2, 58, 67
1, 25608, Note_on_c, 2, 56, 69
1, 25608, Note_on_c, 2, 61, 73
1, 25608, Note_on_c, 2, 65, 68
1, 25609, Note_on_c, 0, 58, 75
1, 25609, Note_on_c, 0, 56, 56
1, 25609, Pitch_bend_c, 5, 11832
1, 25610, Pitch_bend_c, 5, 11962
1, 25612, Pitch_bend_c, 5, 12092
1, 25620, Pitch_bend_c, 5, 11962
1, 25621, Pitch_bend_c, 5, 11702
1, 25622, Pitch_bend_c, 5, 10142
1, 25623, Pitch_bend_c, 5, 9232
1, 25624, Pitch_bend_c, 5, 8192
1, 25627, Note_on_c, 5, 75, 99
1, 25631, Note_on_c, 5, 76, 0
1, 25631, Note_on_c, 3, 65, 86
1, 25631, Note_on_c, 9, 51, 73
1, 25631, Note_on_c, 9, 40, 104
1, 25631, Note_on_c, 9, 62, 55
1, 25632, Note_on_c, 9, 62, 0
1, 25632, Note_on_c, 9, 40, 0
1, 25632, Note_on_c, 9, 51, 0
1, 25632, Note_on_c, 4, 70, 0
1, 25632, Note_on_c, 4, 65, 69
1, 25632, Note_on_c, 9, 75, 79
1, 25633, Note_on_c, 9, 75, 0
1, 25634, Note_on_c, 1, 37, 0
1, 25634, Note_on_c, 11, 37, 0
1, 25635, Note_on_c, 0, 65, 0
1, 25636, Note_on_c, 0, 58, 0
1, 25637, Note_on_c, 0, 56, 0
1, 25638, Note_on_c, 5, 73, 94
1, 25643, Note_on_c, 5, 75, 0
1, 25644, Note_on_c, 2, 61, 0
1, 25644, Note_on_c, 2, 65, 0
1, 25645, Note_on_c, 2, 58, 0
1, 25646, Note_on_c, 2, 56, 0
1, 25653, Note_on_c, 3, 65, 0
1, 25653, Note_on_c, 5, 70, 98
1, 25654, Note_on_c, 9, 62, 52
1, 25655, Note_on_c, 9, 62, 0
1, 25655, Note_on_c, 1, 37, 66
1, 25655, Note_on_c, 9, 44, 43
1, 25655, Note_on_c, 11, 37, 62
1, 25656, Note_on_c, 9, 44, 0
1, 25656, Note_on_c, 4, 65, 0
1, 25656, Note_on_c, 0, 65, 67
1, 25656, Note_on_c, 2, 61, 64
1, 25656, Note_on_c, 2, 65, 66
1, 25656, Note_on_c, 2, 56, 74
1, 25656, Note_on_c, 2, 58, 61
1, 25656, Note_on_c, 4, 68, 69
1, 25657, Note_on_c, 0, 58, 68
1, 25657, Note_on_c, 0, 56, 53
1, 25658, Note_on_c, 3, 68, 75
1, 25659, Note_on_c, 5, 73, 0
1, 25664, Note_on_c, 2, 61, 0
1, 25664, Note_on_c, 2, 58, 0
1, 25664, Note_on_c, 2, 56, 0
1, 25666, Note_on_c, 2, 65, 0
1, 25677, Note_on_c, 2, 65, 81
1, 25677, Note_on_c, 5, 73, 100
1, 25678, Note_on_c, 11, 37, 0
1, 25678, Note_on_c, 1, 37, 0
1, 25678, Note_on_c, 0, 61, 62
1, 25678, Note_on_c, 2, 61, 54
1, 25678, Note_on_c, 2, 58, 59
1, 25678, Note_on_c, 9, 69, 36
1, 25678, Note_on_c, 9, 62, 69
1, 25679, Note_on_c, 9, 62, 0
1, 25679, Note_on_c, 9, 69, 0
1, 25679, Note_on_c, 1, 41, 78
1, 25679, Note_on_c, 9, 51, 54
1, 25679, Note_on_c, 11, 41, 74
1, 25680, Note_on_c, 9, 51, 0
1, 25680, Note_on_c, 10, 58, 0
1, 25680, Note_on_c, 5, 70, 0
1, 25684, Note_on_c, 0, 58, 0
1, 25690, Note_on_c, 2, 61, 0
1, 25696, Note_on_c, 0, 65, 0
1, 25698, Note_on_c, 2, 65, 0
1, 25702, Note_on_c, 0, 61, 0
1, 25702, Note_on_c, 2, 58, 0
1, 25702, Note_on_c, 2, 65, 81
1, 25702, Note_on_c, 2, 61, 77
1, 25702, Note_on_c, 9, 69, 23
1, 25703, Note_on_c, 9, 69, 0
1, 25703, Note_on_c, 1, 42, 88
1, 25703, Note_on_c, 9, 51, 42
1, 25703, Note_on_c, 11, 42, 84
1, 25704, Note_on_c, 9, 51, 0
1, 25704, Note_on_c, 3, 68, 0
1, 25704, Note_on_c, 5, 70, 98
1, 25705, Note_on_c, 1, 41, 0
1, 25705, Note_on_c, 11, 41, 0
1, 25705, Note_on_c, 0, 58, 60
1, 25707, Note_on_c, 5, 73, 0
1, 25710, Note_on_c, 2, 61, 0
1, 25710, Note_on_c, 2, 65, 0
1, 25714, Note_on_c, 0, 58, 0
1, 25721, Note_on_c, 0, 56, 0
1, 25725, Note_on_c, 1, 42, 0
1, 25725, Note_on_c, 11, 42, 0
1, 25726, Note_on_c, 2, 59, 83
1, 25726, Note_on_c, 2, 53, 65
1, 25726, Note_on_c, 2, 63, 87
1, 25726, Note_on_c, 2, 56, 61
1, 25726, Note_on_c, 3, 70, 97
1, 25727, Note_on_c, 1, 43, 88
1, 25727, Note_on_c, 9, 51, 83
1, 25727, Note_on_c, 11, 43, 84
1, 25728, Note_on_c, 9, 51, 0
1, 25728, Note_on_c, 10, 61, 0
1, 25728, Note_on_c, 4, 68, 0
1, 25728, Note_on_c, 0, 61, 53
1, 25728, Note_on_c, 4, 70, 71
1, 25728, Note_on_c, 9, 36, 114
1, 25728, Note_on_c, 10, 59, 71
1, 25728, Note_on_c, 10, 63, 61
1, 25729, Note_on_c, 9, 36, 0
1, 25729, Note_on_c, 0, 65, 48
1, 25729, Note_on_c, 0, 56, 48
1, 25729, Note_on_c, 5, 75, 113
1, 25730, Note_on_c, 0, 59, 65
1, 25733, Note_on_c, 5, 70, 0
1, 25744, Note_on_c, 0, 61, 0
1, 25750, Pitch_bend_c, 5, 8452
1, 25751, Note_on_c, 0, 65, 0
1, 25751, Pitch_bend_c, 5, 8712
1, 25751, Note_on_c, 9, 44, 49
1, 25752, Note_on_c, 9, 44, 0
1, 25752, Pitch_bend_c, 5, 8842
1, 25753, Pitch_bend_c, 5, 8972
1, 25754, Note_on_c, 0, 59, 0
1, 25754, Pitch_bend_c, 5, 9232
1, 25755, Pitch_bend_c, 5, 9492
1, 25756, Pitch_bend_c, 5, 9622
1, 25757, Pitch_bend_c, 5, 9752
1, 25758, Note_on_c, 0, 56, 0
1, 25758, Pitch_bend_c, 5, 10012
1, 25759, Pitch_bend_c, 5, 10142
1, 25762, Pitch_bend_c, 5, 10272
1, 25765, Pitch_bend_c, 5, 10402
1, 25766, Pitch_bend_c, 5, 10532
1, 25768, Pitch_bend_c, 5, 10662
1, 25769, Pitch_bend_c, 5, 10792
1, 25770, Pitch_bend_c, 5, 10922
1, 25771, Pitch_bend_c, 5, 11052
1, 25772, Pitch_bend_c, 5, 11312
1, 25774, Note_on_c, 2, 56, 0
1, 25774, Note_on_c, 2, 63, 0
1, 25774, Note_on_c, 2, 53, 0
1, 25774, Note_on_c, 2, 59, 0
1, 25774, Pitch_bend_c, 5, 11442
1, 25774, Note_on_c, 9, 69, 33
1, 25775, Note_on_c, 9, 69, 0
1, 25775, Note_on_c, 9, 51, 42
1, 25776, Note_on_c, 9, 51, 0
1, 25776, Note_on_c, 3, 70, 0
1, 25776, Note_on_c, 4, 70, 0
1, 25776, Note_on_c, 2, 59, 83
1, 25776, Note_on_c, 2, 63, 74
1, 25776, Note_on_c, 2, 56, 43
1, 25776, Note_on_c, 2, 53, 48
1, 25776, Note_on_c, 4, 65, 71
1, 25777, Note_on_c, 0, 65, 65
1, 25778, Note_on_c, 0, 61, 68
1, 25778, Note_on_c, 0, 56, 58
1, 25778, Note_on_c, 0, 59, 87
1, 25778, Note_on_c, 3, 65, 85
1, 25779, Pitch_bend_c, 5, 11312
1, 25780, Pitch_bend_c, 5, 10792
1, 25781, Pitch_bend_c, 5, 10532
1, 25782, Pitch_bend_c, 5, 8192
1, 25786, Note_on_c, 2, 59, 0
1, 25788, Note_on_c, 2, 56, 0
1, 25789, Note_on_c, 2, 63, 0
1, 25792, Note_on_c, 2, 53, 0
1, 25795, Note_on_c, 5, 75, 0
1, 25795, Note_on_c, 5, 73, 101
1, 25799, Note_on_c, 9, 69, 27
1, 25799, Note_on_c, 9, 51, 41
1, 25799, Note_on_c, 9, 62, 71
1, 25800, Note_on_c, 9, 62, 0
1, 25800, Note_on_c, 9, 51, 0
1, 25800, Note_on_c, 9, 69, 0
1, 25800, Note_on_c, 4, 65, 0
1, 25800, Note_on_c, 2, 56, 63
1, 25800, Note_on_c, 2, 63, 68
1, 25800, Note_on_c, 2, 59, 74
1, 25800, Note_on_c, 2, 53, 68
1, 25800, Note_on_c, 4, 68, 71
1, 25803, Note_on_c, 3, 65, 0
1, 25803, Note_on_c, 3, 68, 79
1, 25808, Note_on_c, 5, 70, 99
1, 25812, Note_on_c, 5, 73, 0
1, 25816, Note_on_c, 0, 59, 0
1, 25817, Note_on_c, 0, 61, 0
1, 25823, Note_on_c, 9, 75, 76
1, 25823, Note_on_c, 9, 40, 107
1, 25824, Note_on_c, 9, 40, 0
1, 25824, Note_on_c, 9, 75, 0
1, 25824, Note_on_c, 9, 51, 87
1, 25825, Note_on_c, 9, 51, 0
1, 25825, Note_on_c, 0, 65, 0
1, 25825, Note_on_c, 5, 73, 99
1, 25825, Note_on_c, 9, 62, 74
1, 25826, Note_on_c, 9, 62, 0
1, 25827, Note_on_c, 5, 70, 0
1, 25830, Note_on_c, 0, 56, 0
1, 25830, Note_on_c, 11, 43, 0
1, 25830, Note_on_c, 1, 43, 0
1, 25832, Note_on_c, 2, 53, 0
1, 25834, Note_on_c, 2, 56, 0
1, 25836, Note_on_c, 2, 59, 0
1, 25836, Note_on_c, 2, 63, 0
1, 25846, Note_on_c, 2, 53, 70
1, 25846, Note_on_c, 2, 63, 72
1, 25846, Note_on_c, 2, 59, 74
1, 25846, Note_on_c, 3, 70, 93
1, 25847, Note_on_c, 3, 68, 0
1, 25848, Note_on_c, 5, 73, 0
1, 25848, Note_on_c, 4, 68, 0
1, 25848, Note_on_c, 2, 56, 58
1, 25848, Note_on_c, 4, 70, 71
1, 25848, Note_on_c, 5, 70, 95
1, 25849, Note_on_c, 0, 65, 73
1, 25849, Note_on_c, 0, 59, 84
1, 25849, Note_on_c, 9, 44, 57
1, 25850, Note_on_c, 9, 44, 0
1, 25850, Note_on_c, 0, 56, 57
1, 25853, Note_on_c, 2, 59, 0
1, 25854, Note_on_c, 2, 56, 0
1, 25854, Note_on_c, 2, 63, 0
1, 25856, Note_on_c, 2, 53, 0
1, 25869, Note_on_c, 2, 56, 58
1, 25870, Note_on_c, 5, 70, 0
1, 25870, Note_on_c, 0, 59, 0
1, 25870, Note_on_c, 2, 63, 87
1, 25870, Note_on_c, 2, 59, 58
1, 25871, Note_on_c, 0, 56, 0
1, 25871, Note_on_c, 9, 69, 35
1, 25871, Note_on_c, 9, 51, 44
1, 25872, Note_on_c, 9, 51, 0
1, 25872, Note_on_c, 9, 69, 0
1, 25872, Note_on_c, 0, 61, 47
1, 25874, Note_on_c, 0, 65, 0
1, 25878, Note_on_c, 2, 59, 0
1, 25887, Note_on_c, 2, 63, 0
1, 25893, Note_on_c, 2, 56, 0
1, 25894, Note_on_c, 2, 63, 87
1, 25894, Note_on_c, 2, 59, 66
1, 25894, Note_on_c, 9, 69, 25
1, 25895, Note_on_c, 9, 69, 0
1, 25895, Note_on_c, 1, 38, 78
1, 25895, Note_on_c, 9, 36, 105
1, 25895, Note_on_c, 9, 62, 80
1, 25895, Note_on_c, 9, 51, 46
1, 25895, Note_on_c, 11, 38, 74
1, 25896, Note_on_c, 9, 51, 0
1, 25896, Note_on_c, 9, 62, 0
1, 25896, Note_on_c, 9, 36, 0
1, 25896, Note_on_c, 0, 56, 48
1, 25901, Note_on_c, 0, 61, 0
1, 25902, Note_on_c, 2, 63, 0
1, 25902, Note_on_c, 2, 59, 0
1, 25906, Note_on_c, 3, 70, 0
1, 25918, Note_on_c, 2, 59, 77
1, 25918, Note_on_c, 2, 56, 53
1, 25918, Note_on_c, 2, 53, 62
1, 25918, Note_on_c, 2, 63, 76
1, 25918, Note_on_c, 9, 36, 67
1, 25919, Note_on_c, 9, 36, 0
1, 25919, Note_on_c, 1, 38, 0
1, 25919, Note_on_c, 11, 38, 0
1, 25919, Note_on_c, 0, 65, 75
1, 25919, Note_on_c, 1, 43, 78
1, 25919, Note_on_c, 9, 62, 55
1, 25919, Note_on_c, 11, 43, 74
1, 25920, Note_on_c, 9, 62, 0
1, 25920, Note_on_c, 0, 59, 84
1, 25920, Note_on_c, 9, 51, 70
1, 25921, Note_on_c, 9, 51, 0
1, 25942, Note_on_c, 0, 61, 55
1, 25943, Note_on_c, 1, 38, 73
1, 25943, Note_on_c, 9, 44, 52
1, 25943, Note_on_c, 11, 38, 69
1, 25944, Note_on_c, 9, 44, 0
1, 25946, Note_on_c, 1, 43, 0
1, 25946, Note_on_c, 0, 59, 0
1, 25946, Note_on_c, 11, 43, 0
1, 25950, Note_on_c, 0, 65, 0
1, 25964, Note_on_c, 2, 59, 0
1, 25964, Note_on_c, 2, 53, 0
1, 25964, Note_on_c, 2, 56, 0
1, 25964, Note_on_c, 2, 63, 0
1, 25966, Note_on_c, 1, 38, 0
1, 25966, Note_on_c, 11, 38, 0
1, 25966, Note_on_c, 0, 61, 0
1, 25966, Note_on_c, 2, 63, 111
1, 25966, Note_on_c, 2, 53, 72
1, 25966, Note_on_c, 9, 69, 45
1, 25967, Note_on_c, 9, 69, 0
1, 25967, Note_on_c, 1, 43, 78
1, 25967, Note_on_c, 9, 36, 107
1, 25967, Note_on_c, 9, 62, 76
1, 25967, Note_on_c, 9, 51, 46
1, 25967, Note_on_c, 11, 43, 74
1, 25968, Note_on_c, 9, 51, 0
1, 25968, Note_on_c, 9, 36, 0
1, 25968, Note_on_c, 9, 62, 0
1, 25968, Note_on_c, 2, 56, 73
1, 25968, Note_on_c, 2, 59, 98
1, 25978, Note_on_c, 2, 59, 0
1, 25978, Note_on_c, 2, 53, 0
1, 25978, Note_on_c, 2, 63, 0
1, 25978, Note_on_c, 2, 56, 0
1, 25980, Note_on_c, 0, 56, 0
1, 25990, Note_on_c, 2, 56, 61
1, 25990, Note_on_c, 2, 59, 74
1, 25990, Note_on_c, 2, 53, 63
1, 25990, Note_on_c, 2, 63, 63
1, 25990, Note_on_c, 9, 69, 26
1, 25991, Note_on_c, 9, 69, 0
1, 25991, Note_on_c, 9, 51, 37
1, 25992, Note_on_c, 9, 51, 0
1, 25992, Note_on_c, 0, 65, 70
1, 25993, Note_on_c, 0, 56, 52
1, 25993, Note_on_c, 0, 59, 70
1, 26012, Note_on_c, 3, 65, 97
1, 26013, Note_on_c, 5, 80, 101
1, 26014, Note_on_c, 0, 65, 0
1, 26015, Note_on_c, 9, 51, 91
1, 26015, Note_on_c, 9, 75, 82
1, 26015, Note_on_c, 9, 40, 110
1, 26016, Note_on_c, 9, 40, 0
1, 26016, Note_on_c, 9, 75, 0
1, 26016, Note_on_c, 9, 51, 0
1, 26016, Note_on_c, 4, 70, 0
1, 26016, Note_on_c, 4, 65, 70
1, 26017, Note_on_c, 0, 56, 0
1, 26017, Note_on_c, 0, 59, 0
1, 26017, Note_on_c, 9, 62, 84
1, 26018, Note_on_c, 9, 62, 0
1, 26022, Pitch_bend_c, 5, 8582
1, 26023, Pitch_bend_c, 5, 8842
1, 26024, Pitch_bend_c, 5, 8972
1, 26025, Note_on_c, 2, 56, 0
1, 26025, Pitch_bend_c, 5, 9362
1, 26026, Note_on_c, 2, 63, 0
1, 26026, Note_on_c, 2, 53, 0
1, 26026, Pitch_bend_c, 5, 10012
1, 26027, Pitch_bend_c, 5, 10272
1, 26028, Note_on_c, 2, 59, 0
1, 26028, Pitch_bend_c, 5, 10662
1, 26029, Pitch_bend_c, 5, 10922
1, 26030, Pitch_bend_c, 5, 12092
1, 26031, Pitch_bend_c, 5, 12352
1, 26032, Pitch_bend_c, 5, 13002
1, 26033, Pitch_bend_c, 5, 13652
1, 26034, Note_on_c, 3, 65, 0
1, 26034, Pitch_bend_c, 5, 14432
1, 26035, Note_on_c, 3, 68, 78
1, 26035, Pitch_bend_c, 5, 14952
1, 26036, Pitch_bend_c, 5, 15342
1, 26037, Pitch_bend_c, 5, 15602
1, 26038, Note_on_c, 2, 63, 70
1, 26038, Note_on_c, 2, 59, 81
1, 26038, Note_on_c, 2, 53, 67
1, 26038, Note_on_c, 2, 56, 61
1, 26038, Pitch_bend_c, 5, 16252
1, 26039, Note_on_c, 1, 38, 78
1, 26039, Pitch_bend_c, 5, 16382
1, 26039, Note_on_c, 9, 44, 52
1, 26039, Note_on_c, 11, 38, 74
1, 26040, Note_on_c, 9, 44, 0
1, 26040, Note_on_c, 4, 65, 0
1, 26040, Note_on_c, 4, 68, 70
1, 26041, Note_on_c, 0, 65, 65
1, 26041, Note_on_c, 0, 56, 58
1, 26041, Note_on_c, 0, 59, 75
1, 26042, Note_on_c, 1, 43, 0
1, 26042, Note_on_c, 11, 43, 0
1, 26045, Note_on_c, 2, 56, 0
1, 26046, Note_on_c, 2, 59, 0
1, 26046, Note_on_c, 2, 53, 0
1, 26048, Note_on_c, 2, 63, 0
1, 26061, Note_on_c, 0, 56, 0
1, 26061, Note_on_c, 11, 38, 0
1, 26061, Note_on_c, 1, 38, 0
1, 26062, Note_on_c, 2, 56, 49
1, 26062, Note_on_c, 2, 59, 64
1, 26062, Note_on_c, 2, 63, 104
1, 26062, Pitch_bend_c, 5, 15602
1, 26062, Note_on_c, 9, 69, 39
1, 26063, Note_on_c, 9, 69, 0
1, 26063, Pitch_bend_c, 5, 15212
1, 26063, Note_on_c, 9, 51, 48
1, 26064, Note_on_c, 9, 51, 0
1, 26064, Note_on_c, 0, 59, 0
1, 26064, Note_on_c, 10, 59, 0
1, 26064, Note_on_c, 0, 61, 64
1, 26064, Note_on_c, 1, 43, 70
1, 26064, Pitch_bend_c, 5, 14562
1, 26064, Note_on_c, 11, 43, 66
1, 26065, Pitch_bend_c, 5, 13912
1, 26066, Pitch_bend_c, 5, 12352
1, 26067, Pitch_bend_c, 5, 11442
1, 26068, Pitch_bend_c, 5, 10792
1, 26069, Pitch_bend_c, 5, 10012
1, 26070, Note_on_c, 0, 65, 0
1, 26070, Pitch_bend_c, 5, 8582
1, 26071, Pitch_bend_c, 5, 8192
1, 26072, Note_on_c, 2, 59, 0
1, 26082, Note_on_c, 2, 63, 0
1, 26086, Note_on_c, 0, 61, 0
1, 26086, Note_on_c, 2, 56, 0
1, 26086, Note_on_c, 2, 63, 85
1, 26086, Note_on_c, 9, 69, 25
1, 26087, Note_on_c, 9, 69, 0
1, 26087, Note_on_c, 9, 51, 48
1, 26088, Note_on_c, 9, 51, 0
1, 26088, Note_on_c, 0, 56, 52
1, 26088, Note_on_c, 2, 59, 76
1, 26089, Note_on_c, 1, 37, 69
1, 26089, Note_on_c, 11, 37, 65
1, 26093, Note_on_c, 1, 43, 0
1, 26093, Note_on_c, 11, 43, 0
1, 26094, Note_on_c, 2, 63, 0
1, 26096, Note_on_c, 2, 59, 0
1, 26099, Note_on_c, 3, 68, 0
1, 26106, Note_on_c, 0, 56, 0
1, 26110, Note_on_c, 2, 61, 90
1, 26110, Note_on_c, 2, 56, 95
1, 26110, Note_on_c, 2, 65, 63
1, 26110, Note_on_c, 2, 58, 90
1, 26110, Note_on_c, 3, 70, 95
1, 26111, Note_on_c, 0, 58, 61
1, 26111, Note_on_c, 0, 65, 68
1, 26111, Note_on_c, 9, 36, 113
1, 26112, Note_on_c, 9, 36, 0
1, 26112, Note_on_c, 10, 63, 0
1, 26112, Note_on_c, 4, 68, 0
1, 26112, Note_on_c, 4, 70, 71
1, 26112, Note_on_c, 9, 51, 73
1, 26112, Note_on_c, 10, 61, 64
1, 26112, Note_on_c, 10, 58, 54
1, 26113, Note_on_c, 9, 51, 0
1, 26113, Note_on_c, 0, 56, 50
1, 26113, Note_on_c, 0, 61, 59
1, 26113, Note_on_c, 1, 42, 90
1, 26113, Note_on_c, 11, 42, 86
1, 26118, Note_on_c, 11, 37, 0
1, 26118, Note_on_c, 1, 37, 0
1, 26130, Note_on_c, 0, 61, 0
1, 26130, Note_on_c, 0, 56, 0
1, 26131, Note_on_c, 0, 65, 0
1, 26135, Note_on_c, 0, 58, 0
1, 26136, Note_on_c, 9, 44, 42
1, 26137, Note_on_c, 9, 44, 0
1, 26158, Note_on_c, 2, 61, 0
1, 26158, Note_on_c, 2, 65, 0
1, 26158, Note_on_c, 2, 56, 0
1, 26158, Note_on_c, 2, 58, 0
1, 26158, Note_on_c, 3, 70, 0
1, 26158, Note_on_c, 9, 69, 35
1, 26159, Note_on_c, 9, 69, 0
1, 26159, Note_on_c, 9, 51, 42
1, 26160, Note_on_c, 9, 51, 0
1, 26160, Note_on_c, 4, 70, 0
1, 26160, Note_on_c, 2, 65, 77
1, 26160, Note_on_c, 2, 58, 100
1, 26160, Note_on_c, 2, 56, 108
1, 26160, Note_on_c, 2, 61, 104
1, 26160, Note_on_c, 3, 65, 77
1, 26160, Note_on_c, 4, 65, 71
1, 26161, Note_on_c, 0, 65, 71
1, 26161, Note_on_c, 0, 58, 68
1, 26161, Note_on_c, 0, 56, 60
1, 26162, Note_on_c, 0, 61, 68
1, 26166, Note_on_c, 5, 76, 111
1, 26169, Note_on_c, 2, 61, 0
1, 26169, Note_on_c, 2, 56, 0
1, 26169, Note_on_c, 2, 58, 0
1, 26170, Note_on_c, 2, 65, 0
1, 26171, Note_on_c, 5, 80, 0
1, 26179, Pitch_bend_c, 5, 8322
1, 26180, Pitch_bend_c, 5, 8452
1, 26181, Pitch_bend_c, 5, 8582
1, 26182, Note_on_c, 11, 42, 0
1, 26182, Note_on_c, 1, 42, 0
1, 26182, Note_on_c, 2, 65, 61
1, 26182, Note_on_c, 2, 56, 63
1, 26182, Note_on_c, 2, 61, 68
1, 26182, Note_on_c, 2, 58, 60
1, 26182, Pitch_bend_c, 5, 8842
1, 26183, Pitch_bend_c, 5, 8972
1, 26183, Note_on_c, 9, 62, 80
1, 26183, Note_on_c, 9, 51, 42
1, 26184, Note_on_c, 9, 51, 0
1, 26184, Note_on_c, 9, 62, 0
1, 26184, Note_on_c, 4, 65, 0
1, 26184, Note_on_c, 4, 68, 71
1, 26184, Pitch_bend_c, 5, 9102
1, 26184, Note_on_c, 9, 69, 24
1, 26185, Note_on_c, 9, 69, 0
1, 26185, Pitch_bend_c, 5, 9232
1, 26186, Note_on_c, 3, 65, 0
1, 26186, Note_on_c, 3, 68, 83
1, 26186, Pitch_bend_c, 5, 9622
1, 26187, Pitch_bend_c, 5, 9752
1, 26188, Pitch_bend_c, 5, 9882
1, 26189, Pitch_bend_c, 5, 10012
1, 26190, Pitch_bend_c, 5, 10272
1, 26191, Pitch_bend_c, 5, 10402
1, 26193, Pitch_bend_c, 5, 10532
1, 26194, Pitch_bend_c, 5, 10662
1, 26195, Pitch_bend_c, 5, 10792
1, 26196, Pitch_bend_c, 5, 10922
1, 26198, Pitch_bend_c, 5, 11312
1, 26200, Note_on_c, 0, 58, 0
1, 26205, Note_on_c, 0, 65, 0
1, 26205, Note_on_c, 0, 61, 0
1, 26205, Pitch_bend_c, 5, 11052
1, 26206, Pitch_bend_c, 5, 10402
1, 26207, Note_on_c, 0, 56, 0
1, 26207, Pitch_bend_c, 5, 8972
1, 26207, Note_on_c, 9, 40, 104
1, 26207, Note_on_c, 9, 75, 76
1, 26208, Note_on_c, 9, 75, 0
1, 26208, Note_on_c, 9, 40, 0
1, 26208, Pitch_bend_c, 5, 8192
1, 26208, Note_on_c, 9, 51, 81
1, 26209, Note_on_c, 9, 51, 0
1, 26209, Note_on_c, 9, 62, 74
1, 26210, Note_on_c, 9, 62, 0
1, 26213, Note_on_c, 5, 75, 96
1, 26215, Note_on_c, 2, 56, 0
1, 26216, Note_on_c, 2, 61, 0
1, 26217, Note_on_c, 5, 76, 0
1, 26218, Note_on_c, 2, 58, 0
1, 26218, Note_on_c, 2, 65, 0
1, 26223, Note_on_c, 5, 73, 93
1, 26224, Note_on_c, 5, 75, 0
1, 26228, Note_on_c, 3, 68, 0
1, 26230, Note_on_c, 2, 61, 71
1, 26230, Note_on_c, 2, 58, 62
1, 26230, Note_on_c, 2, 65, 70
1, 26230, Note_on_c, 2, 56, 68
1, 26231, Note_on_c, 9, 44, 43
1, 26232, Note_on_c, 9, 44, 0
1, 26232, Note_on_c, 4, 68, 0
1, 26232, Note_on_c, 3, 70, 88
1, 26232, Note_on_c, 4, 70, 72
1, 26233, Note_on_c, 0, 56, 59
1, 26233, Note_on_c, 0, 58, 68
1, 26233, Note_on_c, 0, 65, 70
1, 26234, Note_on_c, 5, 70, 98
1, 26237, Note_on_c, 2, 61, 0
1, 26238, Note_on_c, 2, 58, 0
1, 26239, Note_on_c, 2, 65, 0
1, 26239, Note_on_c, 2, 56, 0
1, 26241, Note_on_c, 5, 73, 0
1, 26254, Note_on_c, 0, 61, 54
1, 26254, Note_on_c, 2, 65, 93
1, 26254, Note_on_c, 9, 69, 45
1, 26255, Note_on_c, 9, 69, 0
1, 26255, Note_on_c, 0, 56, 0
1, 26255, Note_on_c, 9, 51, 50
1, 26256, Note_on_c, 9, 51, 0
1, 26256, Note_on_c, 2, 61, 31
1, 26257, Note_on_c, 2, 58, 48
1, 26259, Note_on_c, 0, 58, 0
1, 26261, Note_on_c, 5, 73, 105
1, 26265, Note_on_c, 2, 61, 0
1, 26267, Note_on_c, 0, 65, 0
1, 26268, Note_on_c, 5, 70, 0
1, 26270, Note_on_c, 2, 58, 0
1, 26272, Note_on_c, 3, 70, 0
1, 26274, Note_on_c, 2, 65, 0
1, 26278, Note_on_c, 0, 61, 0
1, 26278, Note_on_c, 0, 56, 47
1, 26278, Note_on_c, 2, 65, 77
1, 26278, Note_on_c, 9, 69, 34
1, 26278, Note_on_c, 9, 62, 69
1, 26279, Note_on_c, 9, 62, 0
1, 26279, Note_on_c, 9, 69, 0
1, 26279, Note_on_c, 1, 37, 82
1, 26279, Note_on_c, 3, 68, 78
1, 26279, Note_on_c, 9, 51, 43
1, 26279, Note_on_c, 11, 37, 78
1, 26280, Note_on_c, 9, 51, 0
1, 26280, Note_on_c, 4, 70, 0
1, 26280, Note_on_c, 2, 61, 67
1, 26280, Note_on_c, 4, 68, 72
1, 26281, Note_on_c, 9, 36, 110
1, 26282, Note_on_c, 9, 36, 0
1, 26282, Note_on_c, 5, 70, 98
1, 26285, Note_on_c, 5, 73, 0
1, 26286, Note_on_c, 2, 65, 0
1, 26288, Note_on_c, 2, 61, 0
1, 26300, Note_on_c, 0, 56, 0
1, 26302, Note_on_c, 0, 65, 71
1, 26302, Note_on_c, 2, 56, 60
1, 26302, Note_on_c, 2, 58, 79
1, 26302, Note_on_c, 2, 61, 77
1, 26302, Note_on_c, 2, 65, 63
1, 26302, Note_on_c, 3, 65, 77
1, 26303, Note_on_c, 0, 56, 57
1, 26303, Note_on_c, 0, 58, 75
1, 26303, Note_on_c, 1, 42, 76
1, 26303, Note_on_c, 9, 36, 64
1, 26303, Note_on_c, 11, 42, 72
1, 26304, Note_on_c, 9, 36, 0
1, 26304, Note_on_c, 11, 37, 0
1, 26304, Note_on_c, 1, 37, 0
1, 26304, Note_on_c, 4, 68, 0
1, 26304, Note_on_c, 4, 65, 72
1, 26304, Note_on_c, 9, 51, 85
1, 26305, Note_on_c, 9, 51, 0
1, 26305, Note_on_c, 5, 70, 0
1, 26305, Note_on_c, 9, 62, 76
1, 26306, Note_on_c, 9, 62, 0
1, 26306, Note_on_c, 5, 76, 110
1, 26310, Note_on_c, 3, 68, 0
1, 26326, Note_on_c, 0, 61, 55
1, 26326, Pitch_bend_c, 5, 8452
1, 26327, Note_on_c, 1, 34, 74
1, 26327, Note_on_c, 9, 44, 42
1, 26327, Note_on_c, 11, 34, 70
1, 26328, Note_on_c, 9, 44, 0
1, 26328, Pitch_bend_c, 5, 8582
1, 26329, Pitch_bend_c, 5, 8712
1, 26330, Note_on_c, 0, 56, 0
1, 26330, Pitch_bend_c, 5, 8842
1, 26331, Note_on_c, 0, 58, 0
1, 26331, Pitch_bend_c, 5, 8972
1, 26332, Note_on_c, 0, 65, 0
1, 26333, Pitch_bend_c, 5, 9102
1, 26334, Note_on_c, 11, 42, 0
1, 26334, Note_on_c, 1, 42, 0
1, 26334, Pitch_bend_c, 5, 9362
1, 26335, Pitch_bend_c, 5, 9492
1, 26337, Pitch_bend_c, 5, 9622
1, 26338, Pitch_bend_c, 5, 9752
1, 26340, Pitch_bend_c, 5, 9882
1, 26341, Pitch_bend_c, 5, 10012
1, 26342, Pitch_bend_c, 5, 10402
1, 26343, Pitch_bend_c, 5, 10532
1, 26344, Pitch_bend_c, 5, 10662
1, 26345, Pitch_bend_c, 5, 10922
1, 26346, Pitch_bend_c, 5, 11312
1, 26347, Note_on_c, 0, 61, 0
1, 26347, Note_on_c, 3, 65, 0
1, 26347, Pitch_bend_c, 5, 11442
1, 26348, Pitch_bend_c, 5, 11572
1, 26349, Note_on_c, 2, 56, 0
1, 26349, Note_on_c, 2, 58, 0
1, 26349, Note_on_c, 2, 61, 0
1, 26349, Note_on_c, 2, 65, 0
1, 26349, Pitch_bend_c, 5, 11702
1, 26350, Note_on_c, 0, 56, 30
1, 26350, Note_on_c, 2, 56, 98
1, 26350, Note_on_c, 2, 58, 95
1, 26350, Note_on_c, 2, 61, 104
1, 26350, Note_on_c, 2, 65, 81
1, 26350, Pitch_bend_c, 5, 11832
1, 26350, Note_on_c, 9, 69, 43
1, 26351, Note_on_c, 9, 69, 0
1, 26351, Pitch_bend_c, 5, 11962
1, 26352, Note_on_c, 1, 42, 79
1, 26352, Note_on_c, 9, 51, 54
1, 26352, Note_on_c, 11, 42, 75
1, 26353, Note_on_c, 9, 51, 0
1, 26353, Note_on_c, 1, 34, 0
1, 26353, Note_on_c, 11, 34, 0
1, 26353, Note_on_c, 9, 36, 113
1, 26354, Note_on_c, 9, 36, 0
1, 26354, Pitch_bend_c, 5, 12092
1, 26357, Pitch_bend_c, 5, 12222
1, 26359, Note_on_c, 2, 56, 0
1, 26360, Note_on_c, 5, 76, 0
1, 26361, Note_on_c, 2, 58, 0
1, 26361, Note_on_c, 2, 61, 0
1, 26362, Pitch_bend_c, 5, 12092
1, 26363, Note_on_c, 2, 65, 0
1, 26363, Pitch_bend_c, 5, 11832
1, 26364, Pitch_bend_c, 5, 11702
1, 26365, Pitch_bend_c, 5, 11572
1, 26366, Pitch_bend_c, 5, 11052
1, 26367, Pitch_bend_c, 5, 10922
1, 26368, Pitch_bend_c, 5, 10662
1, 26369, Pitch_bend_c, 5, 10272
1, 26370, Pitch_bend_c, 5, 9362
1, 26371, Pitch_bend_c, 5, 8192
1, 26372, Note_on_c, 0, 56, 0
1, 26374, Note_on_c, 2, 56, 64
1, 26374, Note_on_c, 2, 65, 69
1, 26374, Note_on_c, 2, 61, 68
1, 26374, Note_on_c, 2, 58, 65
1, 26374, Note_on_c, 9, 69, 32
1, 26375, Note_on_c, 9, 69, 0
1, 26375, Note_on_c, 9, 51, 49
1, 26376, Note_on_c, 9, 51, 0
1, 26376, Note_on_c, 0, 65, 61
1, 26376, Note_on_c, 0, 58, 79
1, 26377, Note_on_c, 0, 56, 52
1, 26377, Note_on_c, 9, 62, 66
1, 26378, Note_on_c, 9, 62, 0
1, 26398, Note_on_c, 3, 65, 87
1, 26399, Note_on_c, 4, 65, 0
1, 26400, Note_on_c, 4, 65, 67
1, 26400, Note_on_c, 9, 75, 76
1, 26401, Note_on_c, 9, 75, 0
1, 26401, Note_on_c, 9, 51, 73
1, 26401, Note_on_c, 9, 40, 105
1, 26402, Note_on_c, 9, 40, 0
1, 26402, Note_on_c, 9, 51, 0
1, 26402, Note_on_c, 5, 75, 107
1, 26402, Note_on_c, 9, 62, 59
1, 26403, Note_on_c, 9, 62, 0
1, 26406, Note_on_c, 0, 65, 0
1, 26407, Note_on_c, 0, 58, 0
1, 26407, Note_on_c, 0, 56, 0
1, 26409, Note_on_c, 2, 56, 0
1, 26410, Note_on_c, 2, 65, 0
1, 26410, Note_on_c, 2, 58, 0
1, 26410, Note_on_c, 2, 61, 0
1, 26418, Note_on_c, 11, 42, 0
1, 26418, Note_on_c, 1, 42, 0
1, 26422, Note_on_c, 2, 61, 72
1, 26422, Note_on_c, 2, 65, 72
1, 26422, Note_on_c, 2, 58, 64
1, 26422, Note_on_c, 2, 56, 71
1, 26423, Note_on_c, 0, 58, 63
1, 26423, Note_on_c, 9, 44, 45
1, 26424, Note_on_c, 9, 44, 0
1, 26424, Note_on_c, 4, 65, 0
1, 26424, Note_on_c, 0, 65, 67
1, 26424, Note_on_c, 0, 56, 61
1, 26424, Note_on_c, 4, 68, 67
1, 26425, Note_on_c, 1, 37, 81
1, 26425, Note_on_c, 11, 37, 77
1, 26426, Note_on_c, 3, 68, 72
1, 26426, Note_on_c, 9, 62, 59
1, 26427, Note_on_c, 9, 62, 0
1, 26428, Note_on_c, 3, 65, 0
1, 26431, Note_on_c, 2, 58, 0
1, 26432, Note_on_c, 2, 56, 0
1, 26432, Note_on_c, 2, 61, 0
1, 26433, Note_on_c, 2, 65, 0
1, 26446, Note_on_c, 2, 61, 58
1, 26446, Note_on_c, 2, 65, 90
1, 26446, Note_on_c, 9, 69, 35
1, 26447, Note_on_c, 9, 69, 0
1, 26447, Note_on_c, 9, 51, 51
1, 26448, Note_on_c, 9, 51, 0
1, 26449, Note_on_c, 0, 56, 0
1, 26449, Note_on_c, 0, 65, 0
1, 26449, Note_on_c, 1, 42, 78
1, 26449, Note_on_c, 11, 42, 74
1, 26450, Note_on_c, 11, 37, 0
1, 26450, Note_on_c, 0, 58, 0
1, 26450, Note_on_c, 1, 37, 0
1, 26450, Note_on_c, 9, 62, 76
1, 26451, Note_on_c, 9, 62, 0
1, 26452, Note_on_c, 3, 68, 0
1, 26453, Note_on_c, 5, 73, 103
1, 26456, Note_on_c, 5, 75, 0
1, 26456, Note_on_c, 2, 61, 0
1, 26464, Note_on_c, 2, 65, 0
1, 26470, Note_on_c, 0, 56, 52
1, 26470, Note_on_c, 2, 61, 61
1, 26470, Note_on_c, 2, 65, 77
1, 26471, Note_on_c, 4, 68, 0
1, 26471, Note_on_c, 9, 51, 43
1, 26471, Note_on_c, 9, 69, 25
1, 26472, Note_on_c, 9, 69, 0
1, 26472, Note_on_c, 9, 51, 0
1, 26472, Note_on_c, 4, 68, 67
1, 26473, Note_on_c, 1, 34, 70
1, 26473, Note_on_c, 11, 34, 66
1, 26474, Note_on_c, 1, 42, 0
1, 26474, Note_on_c, 11, 42, 0
1, 26474, Note_on_c, 3, 68, 86
1, 26478, Note_on_c, 2, 61, 0
1, 26478, Note_on_c, 2, 65, 0
1, 26480, Control_c, 5, 1, 1
1, 26481, Control_c, 5, 1, 3
1, 26482, Control_c, 5, 1, 10
1, 26483, Control_c, 5, 1, 13
1, 26484, Control_c, 5, 1, 15
1, 26485, Note_on_c, 0, 56, 0
1, 26485, Control_c, 5, 1, 18
1, 26486, Control_c, 5, 1, 23
1, 26487, Control_c, 5, 1, 25
1, 26488, Control_c, 5, 1, 27
1, 26489, Control_c, 5, 1, 29
1, 26490, Control_c, 5, 1, 33
1, 26491, Control_c, 5, 1, 35
1, 26492, Control_c, 5, 1, 36
1, 26493, Control_c, 5, 1, 38
1, 26494, Note_on_c, 0, 68, 68
1, 26494, Note_on_c, 2, 57, 74
1, 26494, Note_on_c, 2, 68, 64
1, 26494, Note_on_c, 2, 61, 70
1, 26494, Note_on_c, 2, 63, 71
1, 26494, Control_c, 5, 1, 41
1, 26495, Note_on_c, 9, 36, 110
1, 26495, Note_on_c, 9, 51, 87
1, 26496, Note_on_c, 9, 51, 0
1, 26496, Note_on_c, 9, 36, 0
1, 26496, Note_on_c, 10, 58, 0
1, 26496, Note_on_c, 10, 65, 0
1, 26496, Control_c, 5, 1, 42
1, 26496, Note_on_c, 10, 57, 60
1, 26496, Note_on_c, 10, 63, 64
1, 26497, Note_on_c, 0, 63, 35
1, 26497, Note_on_c, 0, 61, 9
1, 26497, Note_on_c, 1, 35, 99
1, 26497, Control_c, 5, 1, 43
1, 26497, Note_on_c, 11, 35, 95
1, 26498, Control_c, 5, 1, 44
1, 26500, Control_c, 5, 1, 45
1, 26501, Note_on_c, 1, 34, 0
1, 26501, Note_on_c, 11, 34, 0
1, 26512, Note_on_c, 0, 61, 0
1, 26512, Note_on_c, 4, 68, 0
1, 26512, Note_on_c, 4, 65, 67
1, 26515, Control_c, 5, 1, 44
1, 26517, Note_on_c, 3, 65, 74
1, 26517, Control_c, 5, 1, 43
1, 26518, Note_on_c, 0, 63, 0
1, 26518, Control_c, 5, 1, 42
1, 26519, Control_c, 5, 1, 41
1, 26519, Note_on_c, 9, 44, 42
1, 26520, Note_on_c, 9, 44, 0
1, 26520, Note_on_c, 0, 68, 0
1, 26521, Control_c, 5, 1, 40
1, 26522, Note_on_c, 3, 68, 0
1, 26526, Note_on_c, 3, 63, 71
1, 26528, Note_on_c, 4, 65, 0
1, 26528, Note_on_c, 4, 63, 67
1, 26531, Note_on_c, 3, 65, 0
1, 26538, Control_c, 5, 1, 39
1, 26539, Note_on_c, 2, 63, 0
1, 26539, Note_on_c, 2, 61, 0
1, 26539, Note_on_c, 2, 57, 0
1, 26539, Note_on_c, 2, 68, 0
1, 26540, Control_c, 5, 1, 38
1, 26541, Control_c, 5, 1, 37
1, 26542, Note_on_c, 2, 57, 74
1, 26542, Note_on_c, 2, 61, 108
1, 26542, Note_on_c, 2, 68, 93
1, 26542, Note_on_c, 2, 63, 117
1, 26542, Note_on_c, 3, 61, 79
1, 26542, Control_c, 5, 1, 35
1, 26543, Control_c, 5, 1, 34
1, 26543, Note_on_c, 9, 69, 34
1, 26543, Note_on_c, 9, 51, 55
1, 26544, Note_on_c, 9, 51, 0
1, 26544, Note_on_c, 9, 69, 0
1, 26544, Note_on_c, 4, 63, 0
1, 26544, Note_on_c, 0, 68, 69
1, 26544, Note_on_c, 4, 61, 68
1, 26544, Control_c, 5, 1, 33
1, 26545, Note_on_c, 0, 63, 62
1, 26545, Note_on_c, 0, 61, 66
1, 26545, Control_c, 5, 1, 32
1, 26546, Control_c, 5, 1, 29
1, 26547, Note_on_c, 3, 63, 0
1, 26547, Control_c, 5, 1, 28
1, 26548, Control_c, 5, 1, 26
1, 26549, Control_c, 5, 1, 24
1, 26550, Note_on_c, 2, 63, 0
1, 26550, Control_c, 5, 1, 20
1, 26551, Note_on_c, 2, 61, 0
1, 26551, Control_c, 5, 1, 17
1, 26552, Note_on_c, 2, 68, 0
1, 26552, Control_c, 5, 1, 15
1, 26553, Control_c, 5, 1, 13
1, 26554, Note_on_c, 2, 57, 0
1, 26554, Control_c, 5, 1, 9
1, 26555, Control_c, 5, 1, 6
1, 26556, Control_c, 5, 1, 4
1, 26557, Control_c, 5, 1, 2
1, 26558, Control_c, 5, 1, 0
1, 26561, Note_on_c, 1, 35, 0
1, 26561, Note_on_c, 11, 35, 0
1, 26566, Note_on_c, 0, 63, 0
1, 26567, Note_on_c, 9, 62, 88
1, 26567, Note_on_c, 9, 51, 54
1, 26568, Note_on_c, 9, 51, 0
1, 26568, Note_on_c, 9, 62, 0
1, 26568, Note_on_c, 2, 63, 67
1, 26568, Note_on_c, 2, 57, 67
1, 26568, Note_on_c, 2, 68, 58
1, 26568, Note_on_c, 9, 69, 27
1, 26569, Note_on_c, 9, 69, 0
1, 26569, Note_on_c, 2, 61, 65
1, 26574, Note_on_c, 0, 61, 0
1, 26584, Note_on_c, 0, 68, 0
1, 26591, Note_on_c, 9, 51, 94
1, 26591, Note_on_c, 9, 40, 104
1, 26592, Note_on_c, 9, 40, 0
1, 26592, Note_on_c, 9, 51, 0
1, 26592, Note_on_c, 9, 75, 79
1, 26593, Note_on_c, 9, 75, 0
1, 26593, Note_on_c, 9, 62, 74
1, 26594, Note_on_c, 9, 62, 0
1, 26602, Note_on_c, 3, 61, 0
1, 26604, Note_on_c, 2, 57, 0
1, 26604, Note_on_c, 2, 63, 0
1, 26606, Note_on_c, 2, 61, 0
1, 26606, Note_on_c, 2, 68, 0
1, 26615, Note_on_c, 1, 42, 75
1, 26615, Note_on_c, 9, 44, 43
1, 26615, Note_on_c, 11, 42, 71
1, 26616, Note_on_c, 9, 44, 0
1, 26616, Note_on_c, 4, 61, 0
1, 26616, Note_on_c, 0, 68, 66
1, 26616, Note_on_c, 0, 61, 73
1, 26616, Note_on_c, 2, 57, 72
1, 26616, Note_on_c, 2, 63, 71
1, 26616, Note_on_c, 2, 68, 69
1, 26616, Note_on_c, 2, 61, 73
1, 26616, Note_on_c, 4, 64, 69
1, 26617, Note_on_c, 0, 63, 81
1, 26618, Note_on_c, 3, 64, 91
1, 26622, Note_on_c, 2, 63, 0
1, 26624, Note_on_c, 2, 57, 0
1, 26624, Note_on_c, 2, 61, 0
1, 26624, Note_on_c, 2, 68, 0
1, 26637, Note_on_c, 2, 68, 95
1, 26637, Note_on_c, 2, 63, 64
1, 26638, Note_on_c, 0, 61, 0
1, 26638, Note_on_c, 2, 59, 65
1, 26638, Note_on_c, 9, 69, 37
1, 26639, Note_on_c, 9, 69, 0
1, 26639, Note_on_c, 0, 63, 0
1, 26639, Note_on_c, 1, 47, 85
1, 26639, Note_on_c, 9, 51, 44
1, 26639, Note_on_c, 11, 47, 81
1, 26640, Note_on_c, 9, 51, 0
1, 26640, Note_on_c, 4, 64, 0
1, 26640, Note_on_c, 4, 63, 69
1, 26641, Note_on_c, 3, 64, 0
1, 26641, Note_on_c, 3, 63, 79
1, 26643, Note_on_c, 1, 42, 0
1, 26643, Note_on_c, 11, 42, 0
1, 26649, Note_on_c, 2, 63, 0
1, 26657, Note_on_c, 2, 68, 0
1, 26658, Note_on_c, 3, 63, 0
1, 26660, Note_on_c, 2, 59, 0
1, 26662, Note_on_c, 2, 68, 90
1, 26662, Note_on_c, 2, 63, 61
1, 26663, Note_on_c, 4, 63, 0
1, 26663, Note_on_c, 1, 42, 74
1, 26663, Note_on_c, 9, 62, 74
1, 26663, Note_on_c, 9, 51, 55
1, 26663, Note_on_c, 9, 69, 33
1, 26663, Note_on_c, 11, 42, 70
1, 26664, Note_on_c, 9, 69, 0
1, 26664, Note_on_c, 9, 51, 0
1, 26664, Note_on_c, 0, 68, 0
1, 26664, Note_on_c, 9, 62, 0
1, 26664, Note_on_c, 4, 63, 69
1, 26665, Note_on_c, 9, 36, 105
1, 26666, Note_on_c, 9, 36, 0
1, 26667, Note_on_c, 11, 47, 0
1, 26667, Note_on_c, 1, 47, 0
1, 26667, Note_on_c, 3, 63, 86
1, 26670, Note_on_c, 2, 68, 0
1, 26674, Note_on_c, 2, 63, 0
1, 26683, Note_on_c, 5, 73, 0
1, 26686, Note_on_c, 2, 57, 67
1, 26686, Note_on_c, 2, 61, 71
1, 26686, Note_on_c, 2, 63, 74
1, 26686, Note_on_c, 2, 68, 59
1, 26687, Note_on_c, 1, 42, 0
1, 26687, Note_on_c, 11, 42, 0
1, 26687, Note_on_c, 0, 66, 57
1, 26687, Note_on_c, 1, 45, 84
1, 26687, Note_on_c, 9, 62, 69
1, 26687, Note_on_c, 9, 36, 69
1, 26687, Note_on_c, 9, 51, 78
1, 26687, Note_on_c, 11, 45, 80
1, 26688, Note_on_c, 9, 51, 0
1, 26688, Note_on_c, 9, 36, 0
1, 26688, Note_on_c, 9, 62, 0
1, 26688, Note_on_c, 0, 63, 46
1, 26689, Note_on_c, 0, 61, 48
1, 26698, Note_on_c, 0, 61, 0
1, 26698, Note_on_c, 0, 63, 0
1, 26699, Note_on_c, 0, 66, 0
1, 26704, Note_on_c, 4, 63, 0
1, 26704, Note_on_c, 4, 64, 69
1, 26705, Note_on_c, 3, 63, 0
1, 26708, Note_on_c, 3, 64, 68
1, 26711, Note_on_c, 1, 40, 62
1, 26711, Note_on_c, 9, 44, 49
1, 26711, Note_on_c, 11, 40, 58
1, 26712, Note_on_c, 9, 44, 0
1, 26714, Note_on_c, 11, 45, 0
1, 26714, Note_on_c, 1, 45, 0
1, 26718, Note_on_c, 3, 63, 67
1, 26720, Note_on_c, 3, 64, 0
1, 26720, Note_on_c, 4, 64, 0
1, 26720, Note_on_c, 4, 63, 68
1, 26729, Note_on_c, 3, 61, 79
1, 26733, Note_on_c, 2, 68, 0
1, 26733, Note_on_c, 2, 57, 0
1, 26733, Note_on_c, 2, 61, 0
1, 26734, Note_on_c, 2, 63, 0
1, 26734, Note_on_c, 3, 63, 0
1, 26734, Note_on_c, 2, 68, 83
1, 26734, Note_on_c, 2, 61, 114
1, 26734, Note_on_c, 2, 57, 73
1, 26734, Note_on_c, 9, 69, 37
1, 26735, Note_on_c, 9, 69, 0
1, 26735, Note_on_c, 9, 51, 46
1, 26735, Note_on_c, 9, 36, 107
1, 26735, Note_on_c, 9, 62, 84
1, 26736, Note_on_c, 9, 62, 0
1, 26736, Note_on_c, 9, 36, 0
1, 26736, Note_on_c, 4, 63, 0
1, 26736, Note_on_c, 9, 51, 0
1, 26736, Note_on_c, 2, 63, 117
1, 26736, Note_on_c, 4, 61, 68
1, 26737, Note_on_c, 0, 66, 80
1, 26737, Note_on_c, 0, 61, 79
1, 26737, Note_on_c, 0, 63, 79
1, 26737, Note_on_c, 1, 45, 84
1, 26737, Note_on_c, 11, 45, 80
1, 26739, Note_on_c, 1, 40, 0
1, 26739, Note_on_c, 11, 40, 0
1, 26745, Note_on_c, 2, 61, 0
1, 26746, Note_on_c, 2, 63, 0
1, 26746, Note_on_c, 2, 57, 0
1, 26748, Note_on_c, 2, 68, 0
1, 26758, Note_on_c, 2, 63, 69
1, 26758, Note_on_c, 2, 61, 67
1, 26758, Note_on_c, 9, 69, 27
1, 26759, Note_on_c, 9, 69, 0
1, 26759, Note_on_c, 9, 51, 42
1, 26760, Note_on_c, 9, 51, 0
1, 26760, Note_on_c, 2, 68, 60
1, 26760, Note_on_c, 2, 57, 74
1, 26770, Note_on_c, 0, 63, 0
1, 26779, Note_on_c, 0, 61, 0
1, 26782, Note_on_c, 0, 66, 0
1, 26783, Note_on_c, 9, 62, 90
1, 26783, Note_on_c, 9, 40, 107
1, 26784, Note_on_c, 9, 40, 0
1, 26784, Note_on_c, 9, 62, 0
1, 26784, Note_on_c, 9, 75, 79
1, 26784, Note_on_c, 9, 51, 87
1, 26785, Note_on_c, 9, 51, 0
1, 26785, Note_on_c, 9, 75, 0
1, 26793, Note_on_c, 2, 61, 0
1, 26796, Note_on_c, 2, 63, 0
1, 26796, Note_on_c, 2, 57, 0
1, 26797, Note_on_c, 2, 68, 0
1, 26806, Note_on_c, 11, 45, 0
1, 26806, Note_on_c, 1, 45, 0
1, 26806, Note_on_c, 2, 68, 71
1, 26806, Note_on_c, 2, 57, 75
1, 26807, Note_on_c, 1, 33, 80
1, 26807, Note_on_c, 9, 44, 44
1, 26807, Note_on_c, 11, 33, 76
1, 26808, Note_on_c, 9, 44, 0
1, 26808, Note_on_c, 2, 61, 69
1, 26808, Note_on_c, 2, 63, 72
1, 26809, Note_on_c, 0, 66, 73
1, 26809, Note_on_c, 0, 63, 84
1, 26809, Note_on_c, 0, 61, 77
1, 26814, Note_on_c, 2, 57, 0
1, 26816, Note_on_c, 2, 63, 0
1, 26817, Note_on_c, 2, 61, 0
1, 26817, Note_on_c, 2, 68, 0
1, 26822, Note_on_c, 3, 61, 0
1, 26829, Note_on_c, 2, 68, 87
1, 26830, Note_on_c, 2, 63, 63
1, 26830, Note_on_c, 9, 69, 39
1, 26831, Note_on_c, 9, 69, 0
1, 26831, Note_on_c, 11, 33, 0
1, 26831, Note_on_c, 1, 33, 0
1, 26831, Note_on_c, 1, 30, 64
1, 26831, Note_on_c, 9, 51, 48
1, 26831, Note_on_c, 11, 30, 60
1, 26832, Note_on_c, 9, 51, 0
1, 26832, Note_on_c, 2, 59, 63
1, 26843, Note_on_c, 0, 63, 0
1, 26844, Note_on_c, 2, 59, 0
1, 26845, Note_on_c, 0, 66, 0
1, 26846, Note_on_c, 2, 63, 0
1, 26849, Note_on_c, 0, 61, 0
1, 26849, Note_on_c, 2, 68, 0
1, 26853, Note_on_c, 2, 68, 90
1, 26854, Note_on_c, 1, 30, 0
1, 26854, Note_on_c, 11, 30, 0
1, 26854, Note_on_c, 2, 63, 69
1, 26855, Note_on_c, 1, 31, 85
1, 26855, Note_on_c, 9, 69, 27
1, 26855, Note_on_c, 9, 51, 43
1, 26855, Note_on_c, 11, 31, 81
1, 26856, Note_on_c, 9, 51, 0
1, 26856, Note_on_c, 9, 69, 0
1, 26859, Note_on_c, 2, 68, 0
1, 26862, Note_on_c, 2, 63, 0
1, 26878, Note_on_c, 4, 61, 0
1, 26878, Note_on_c, 0, 65, 61
1, 26878, Note_on_c, 2, 65, 72
1, 26878, Note_on_c, 2, 58, 79
1, 26878, Note_on_c, 2, 61, 83
1, 26879, Note_on_c, 0, 61, 65
1, 26879, Note_on_c, 1, 32, 97
1, 26879, Note_on_c, 9, 51, 87
1, 26879, Note_on_c, 9, 36, 115
1, 26879, Note_on_c, 11, 32, 93
1, 26880, Note_on_c, 9, 36, 0
1, 26880, Note_on_c, 9, 51, 0
1, 26880, Note_on_c, 10, 57, 0
1, 26880, Note_on_c, 10, 63, 0
1, 26880, Note_on_c, 3, 73, 97
1, 26880, Note_on_c, 4, 77, 69
1, 26880, Note_on_c, 4, 73, 69
1, 26880, Note_on_c, 10, 65, 74
1, 26880, Note_on_c, 10, 58, 61
1, 26882, Note_on_c, 1, 31, 0
1, 26882, Note_on_c, 11, 31, 0
1, 26903, Note_on_c, 9, 44, 41
1, 26904, Note_on_c, 9, 44, 0
1, 26910, Note_on_c, 0, 65, 0
1, 26912, Note_on_c, 0, 61, 0
1, 26926, Note_on_c, 2, 65, 0
1, 26926, Note_on_c, 2, 58, 0
1, 26926, Note_on_c, 2, 61, 0
1, 26926, Note_on_c, 9, 69, 46
1, 26927, Note_on_c, 9, 69, 0
1, 26927, Note_on_c, 9, 51, 52
1, 26928, Note_on_c, 9, 51, 0
1, 26928, Note_on_c, 4, 73, 0
1, 26928, Note_on_c, 4, 77, 0
1, 26928, Note_on_c, 2, 65, 83
1, 26928, Note_on_c, 2, 58, 104
1, 26928, Note_on_c, 2, 61, 100
1, 26928, Note_on_c, 4, 75, 70
1, 26928, Note_on_c, 4, 68, 70
1, 26929, Note_on_c, 3, 68, 86
1, 26930, Note_on_c, 3, 73, 0
1, 26930, Note_on_c, 5, 73, 108
1, 26936, Note_on_c, 2, 61, 0
1, 26938, Note_on_c, 2, 58, 0
1, 26941, Note_on_c, 2, 65, 0
1, 26951, Note_on_c, 9, 69, 33
1, 26951, Note_on_c, 9, 62, 87
1, 26951, Note_on_c, 9, 51, 45
1, 26952, Note_on_c, 9, 51, 0
1, 26952, Note_on_c, 4, 68, 0
1, 26952, Note_on_c, 4, 75, 0
1, 26952, Note_on_c, 9, 62, 0
1, 26952, Note_on_c, 9, 69, 0
1, 26952, Note_on_c, 2, 61, 74
1, 26952, Note_on_c, 2, 58, 64
1, 26952, Note_on_c, 2, 65, 74
1, 26952, Note_on_c, 4, 73, 70
1, 26952, Note_on_c, 4, 70, 70
1, 26954, Note_on_c, 5, 70, 100
1, 26956, Note_on_c, 3, 70, 84
1, 26957, Note_on_c, 3, 68, 0
1, 26962, Note_on_c, 5, 73, 0
1, 26968, Note_on_c, 1, 32, 0
1, 26968, Note_on_c, 11, 32, 0
1, 26975, Note_on_c, 9, 40, 101
1, 26975, Note_on_c, 9, 75, 74
1, 26975, Note_on_c, 9, 51, 81
1, 26976, Note_on_c, 9, 51, 0
1, 26976, Note_on_c, 9, 75, 0
1, 26976, Note_on_c, 9, 40, 0
1, 26976, Note_on_c, 9, 62, 74
1, 26977, Note_on_c, 9, 62, 0
1, 26978, Note_on_c, 5, 73, 114
1, 26983, Note_on_c, 5, 70, 0
1, 26988, Note_on_c, 2, 61, 0
1, 26988, Note_on_c, 2, 65, 0
1, 26988, Note_on_c, 2, 58, 0
1, 26998, Note_on_c, 2, 65, 70
1, 26999, Note_on_c, 4, 73, 0
1, 26999, Note_on_c, 9, 44, 48
1, 27000, Note_on_c, 9, 44, 0
1, 27000, Note_on_c, 4, 70, 0
1, 27000, Note_on_c, 2, 61, 71
1, 27000, Note_on_c, 2, 58, 67
1, 27000, Note_on_c, 4, 77, 70
1, 27000, Note_on_c, 4, 73, 70
1, 27001, Note_on_c, 3, 73, 93
1, 27003, Note_on_c, 3, 70, 0
1, 27005, Note_on_c, 2, 61, 0
1, 27006, Note_on_c, 2, 58, 0
1, 27006, Note_on_c, 2, 65, 0
1, 27021, Note_on_c, 2, 65, 87
1, 27022, Note_on_c, 2, 61, 60
1, 27022, Note_on_c, 2, 58, 47
1, 27023, Note_on_c, 9, 69, 41
1, 27023, Note_on_c, 9, 51, 48
1, 27024, Note_on_c, 9, 51, 0
1, 27024, Note_on_c, 9, 69, 0
1, 27024, Note_on_c, 5, 70, 100
1, 27030, Note_on_c, 5, 73, 0
1, 27032, Note_on_c, 2, 61, 0
1, 27041, Note_on_c, 2, 65, 0
1, 27042, Note_on_c, 2, 58, 0
1, 27046, Note_on_c, 2, 65, 81
1, 27046, Note_on_c, 2, 61, 61
1, 27046, Note_on_c, 9, 62, 69
1, 27047, Note_on_c, 9, 62, 0
1, 27047, Note_on_c, 1, 39, 79
1, 27047, Note_on_c, 5, 73, 112
1, 27047, Note_on_c, 9, 51, 42
1, 27047, Note_on_c, 9, 36, 104
1, 27047, Note_on_c, 11, 39, 75
1, 27048, Note_on_c, 9, 36, 0
1, 27048, Note_on_c, 9, 51, 0
1, 27048, Note_on_c, 9, 69, 33
1, 27049, Note_on_c, 9, 69, 0
1, 27054, Note_on_c, 2, 65, 0
1, 27054, Note_on_c, 2, 61, 0
1, 27055, Note_on_c, 5, 70, 0
1, 27069, Note_on_c, 1, 39, 0
1, 27069, Note_on_c, 5, 73, 0
1, 27069, Note_on_c, 11, 39, 0
1, 27070, Note_on_c, 2, 61, 93
1, 27070, Note_on_c, 2, 58, 87
1, 27070, Note_on_c, 2, 65, 64
1, 27071, Note_on_c, 1, 44, 74
1, 27071, Note_on_c, 9, 36, 67
1, 27071, Note_on_c, 11, 44, 70
1, 27072, Note_on_c, 9, 36, 0
1, 27072, Note_on_c, 9, 51, 83
1, 27073, Note_on_c, 9, 51, 0
1, 27073, Note_on_c, 9, 62, 62
1, 27074, Note_on_c, 9, 62, 0
1, 27074, Note_on_c, 5, 73, 105
1, 27095, Note_on_c, 1, 32, 75
1, 27095, Note_on_c, 9, 44, 42
1, 27095, Note_on_c, 11, 32, 71
1, 27096, Note_on_c, 9, 44, 0
1, 27098, Note_on_c, 11, 44, 0
1, 27098, Note_on_c, 1, 44, 0
1, 27118, Note_on_c, 2, 65, 0
1, 27118, Note_on_c, 2, 58, 0
1, 27118, Note_on_c, 2, 61, 0
1, 27118, Note_on_c, 9, 69, 41
1, 27119, Note_on_c, 9, 69, 0
1, 27119, Note_on_c, 1, 44, 80
1, 27119, Note_on_c, 9, 36, 105
1, 27119, Note_on_c, 9, 51, 46
1, 27119, Note_on_c, 11, 44, 76
1, 27120, Note_on_c, 9, 51, 0
1, 27120, Note_on_c, 9, 36, 0
1, 27120, Note_on_c, 2, 58, 112
1, 27120, Note_on_c, 2, 65, 87
1, 27120, Note_on_c, 2, 61, 108
1, 27121, Note_on_c, 11, 32, 0
1, 27121, Note_on_c, 1, 32, 0
1, 27122, Note_on_c, 5, 73, 0
1, 27122, Note_on_c, 5, 76, 114
1, 27129, Note_on_c, 2, 58, 0
1, 27129, Note_on_c, 2, 61, 0
1, 27132, Note_on_c, 2, 65, 0
1, 27142, Note_on_c, 9, 69, 23
1, 27142, Note_on_c, 9, 62, 71
1, 27143, Note_on_c, 9, 62, 0
1, 27143, Note_on_c, 9, 69, 0
1, 27143, Note_on_c, 9, 51, 55
1, 27144, Note_on_c, 9, 51, 0
1, 27144, Note_on_c, 3, 73, 0
1, 27144, Note_on_c, 2, 61, 73
1, 27144, Note_on_c, 2, 65, 68
1, 27144, Note_on_c, 2, 58, 67
1, 27146, Pitch_bend_c, 5, 8452
1, 27147, Pitch_bend_c, 5, 8582
1, 27148, Pitch_bend_c, 5, 8712
1, 27149, Pitch_bend_c, 5, 8842
1, 27150, Pitch_bend_c, 5, 8972
1, 27152, Pitch_bend_c, 5, 9102
1, 27154, Pitch_bend_c, 5, 9232
1, 27156, Pitch_bend_c, 5, 9362
1, 27158, Pitch_bend_c, 5, 9492
1, 27160, Pitch_bend_c, 5, 9622
1, 27161, Pitch_bend_c, 5, 9752
1, 27162, Pitch_bend_c, 5, 10012
1, 27164, Pitch_bend_c, 5, 10142
1, 27165, Pitch_bend_c, 5, 10272
1, 27166, Pitch_bend_c, 5, 10532
1, 27167, Pitch_bend_c, 5, 10662
1, 27167, Note_on_c, 9, 62, 63
1, 27167, Note_on_c, 9, 75, 79
1, 27167, Note_on_c, 9, 51, 81
1, 27167, Note_on_c, 9, 40, 105
1, 27168, Note_on_c, 9, 40, 0
1, 27168, Note_on_c, 9, 51, 0
1, 27168, Note_on_c, 9, 75, 0
1, 27168, Note_on_c, 9, 62, 0
1, 27168, Pitch_bend_c, 5, 10792
1, 27169, Pitch_bend_c, 5, 10922
1, 27170, Pitch_bend_c, 5, 11312
1, 27171, Pitch_bend_c, 5, 11442
1, 27172, Pitch_bend_c, 5, 11572
1, 27173, Pitch_bend_c, 5, 11702
1, 27174, Pitch_bend_c, 5, 11962
1, 27175, Pitch_bend_c, 5, 12092
1, 27176, Note_on_c, 5, 76, 0
1, 27178, Pitch_bend_c, 5, 12222
1, 27180, Note_on_c, 2, 65, 0
1, 27180, Note_on_c, 2, 61, 0
1, 27181, Note_on_c, 2, 58, 0
1, 27181, Pitch_bend_c, 5, 11962
1, 27182, Pitch_bend_c, 5, 10402
1, 27183, Pitch_bend_c, 5, 8842
1, 27184, Pitch_bend_c, 5, 8192
1, 27187, Note_on_c, 6, 61, 56
1, 27188, Note_on_c, 1, 44, 0
1, 27188, Note_on_c, 11, 44, 0
1, 27190, Note_on_c, 7, 61, 78
1, 27190, Note_on_c, 7, 70, 82
1, 27191, Note_on_c, 1, 32, 72
1, 27191, Note_on_c, 6, 65, 62
1, 27191, Note_on_c, 9, 44, 46
1, 27191, Note_on_c, 11, 32, 68
1, 27192, Note_on_c, 9, 44, 0
1, 27192, Note_on_c, 2, 58, 61
1, 27192, Note_on_c, 2, 65, 66
1, 27192, Note_on_c, 2, 61, 64
1, 27192, Note_on_c, 6, 70, 59
1, 27193, Note_on_c, 9, 62, 69
1, 27194, Note_on_c, 9, 62, 0
1, 27200, Note_on_c, 2, 61, 0
1, 27200, Note_on_c, 2, 58, 0
1, 27202, Note_on_c, 6, 61, 0
1, 27202, Note_on_c, 6, 70, 0
1, 27202, Note_on_c, 7, 61, 0
1, 27202, Note_on_c, 2, 65, 0
1, 27203, Note_on_c, 6, 65, 0
1, 27206, Note_on_c, 7, 70, 0
1, 27213, Note_on_c, 2, 65, 81
1, 27214, Note_on_c, 2, 58, 59
1, 27214, Note_on_c, 2, 61, 54
1, 27214, Note_on_c, 9, 69, 46
1, 27215, Note_on_c, 9, 69, 0
1, 27215, Note_on_c, 1, 39, 80
1, 27215, Note_on_c, 9, 62, 63
1, 27215, Note_on_c, 9, 51, 45
1, 27215, Note_on_c, 11, 39, 76
1, 27216, Note_on_c, 9, 51, 0
1, 27216, Note_on_c, 9, 62, 0
1, 27217, Note_on_c, 11, 32, 0
1, 27217, Note_on_c, 1, 32, 0
1, 27226, Note_on_c, 2, 61, 0
1, 27234, Note_on_c, 2, 65, 0
1, 27238, Note_on_c, 2, 58, 0
1, 27238, Note_on_c, 1, 39, 0
1, 27238, Note_on_c, 11, 39, 0
1, 27238, Note_on_c, 2, 65, 81
1, 27238, Note_on_c, 2, 61, 77
1, 27238, Note_on_c, 9, 69, 27
1, 27239, Note_on_c, 9, 69, 0
1, 27239, Note_on_c, 1, 32, 70
1, 27239, Note_on_c, 9, 51, 47
1, 27239, Note_on_c, 11, 32, 66
1, 27240, Note_on_c, 9, 51, 0
1, 27246, Note_on_c, 2, 61, 0
1, 27246, Note_on_c, 2, 65, 0
1, 27262, Note_on_c, 2, 59, 83
1, 27262, Note_on_c, 2, 56, 61
1, 27262, Note_on_c, 2, 63, 87
1, 27263, Note_on_c, 4, 73, 0
1, 27263, Note_on_c, 4, 77, 0
1, 27263, Note_on_c, 1, 37, 88
1, 27263, Note_on_c, 9, 36, 115
1, 27263, Note_on_c, 11, 37, 84
1, 27264, Note_on_c, 9, 36, 0
1, 27264, Note_on_c, 10, 61, 0
1, 27264, Note_on_c, 10, 65, 0
1, 27264, Note_on_c, 10, 58, 0
1, 27264, Note_on_c, 4, 73, 67
1, 27264, Note_on_c, 4, 77, 67
1, 27264, Note_on_c, 10, 63, 62
1, 27264, Note_on_c, 10, 59, 73
1, 27265, Note_on_c, 9, 51, 81
1, 27266, Note_on_c, 9, 51, 0
1, 27266, Note_on_c, 11, 32, 0
1, 27266, Note_on_c, 1, 32, 0
1, 27266, Note_on_c, 3, 73, 105
1, 27288, Note_on_c, 9, 44, 46
1, 27289, Note_on_c, 9, 44, 0
1, 27310, Note_on_c, 2, 59, 0
1, 27310, Note_on_c, 2, 56, 0
1, 27310, Note_on_c, 2, 63, 0
1, 27310, Note_on_c, 9, 69, 39
1, 27311, Note_on_c, 9, 69, 0
1, 27311, Note_on_c, 9, 51, 57
1, 27312, Note_on_c, 9, 51, 0
1, 27312, Note_on_c, 4, 73, 0
1, 27312, Note_on_c, 4, 77, 0
1, 27312, Note_on_c, 2, 59, 83
1, 27312, Note_on_c, 2, 56, 43
1, 27312, Note_on_c, 2, 63, 74
1, 27312, Note_on_c, 4, 75, 67
1, 27312, Note_on_c, 4, 68, 67
1, 27314, Note_on_c, 3, 68, 80
1, 27316, Note_on_c, 3, 73, 0
1, 27322, Note_on_c, 2, 59, 0
1, 27324, Note_on_c, 2, 56, 0
1, 27324, Note_on_c, 1, 37, 0
1, 27324, Note_on_c, 11, 37, 0
1, 27325, Note_on_c, 2, 63, 0
1, 27333, Note_on_c, 6, 70, 60
1, 27334, Note_on_c, 6, 59, 62
1, 27334, Note_on_c, 7, 70, 58
1, 27335, Note_on_c, 9, 62, 84
1, 27335, Note_on_c, 9, 69, 33
1, 27335, Note_on_c, 9, 51, 46
1, 27336, Note_on_c, 9, 51, 0
1, 27336, Note_on_c, 9, 62, 0
1, 27336, Note_on_c, 4, 75, 0
1, 27336, Note_on_c, 4, 68, 0
1, 27336, Note_on_c, 9, 69, 0
1, 27336, Note_on_c, 2, 59, 74
1, 27336, Note_on_c, 2, 63, 68
1, 27336, Note_on_c, 2, 56, 63
1, 27336, Note_on_c, 4, 70, 69
1, 27336, Note_on_c, 4, 73, 68
1, 27341, Note_on_c, 3, 70, 84
1, 27342, Note_on_c, 3, 68, 0
1, 27354, Note_on_c, 7, 70, 0
1, 27354, Note_on_c, 6, 59, 0
1, 27355, Note_on_c, 6, 70, 0
1, 27358, Note_on_c, 6, 59, 58
1, 27359, Note_on_c, 6, 70, 61
1, 27359, Note_on_c, 9, 75, 76
1, 27360, Note_on_c, 9, 75, 0
1, 27360, Note_on_c, 9, 51, 91
1, 27360, Note_on_c, 9, 40, 107
1, 27361, Note_on_c, 9, 40, 0
1, 27361, Note_on_c, 9, 51, 0
1, 27361, Note_on_c, 9, 62, 71
1, 27362, Note_on_c, 9, 62, 0
1, 27362, Note_on_c, 6, 65, 51
1, 27362, Note_on_c, 7, 70, 82
1, 27370, Note_on_c, 2, 56, 0
1, 27372, Note_on_c, 2, 59, 0
1, 27372, Note_on_c, 2, 63, 0
1, 27373, Note_on_c, 6, 59, 0
1, 27379, Note_on_c, 6, 70, 0
1, 27381, Note_on_c, 6, 65, 0
1, 27382, Note_on_c, 7, 70, 0
1, 27382, Note_on_c, 2, 63, 72
1, 27382, Note_on_c, 2, 59, 74
1, 27383, Note_on_c, 4, 73, 0
1, 27383, Note_on_c, 9, 44, 42
1, 27384, Note_on_c, 9, 44, 0
1, 27384, Note_on_c, 4, 70, 0
1, 27384, Note_on_c, 2, 56, 58
1, 27384, Note_on_c, 4, 77, 70
1, 27384, Note_on_c, 4, 73, 70
1, 27386, Note_on_c, 6, 59, 62
1, 27386, Note_on_c, 6, 70, 70
1, 27386, Note_on_c, 7, 70, 73
1, 27387, Note_on_c, 3, 73, 93
1, 27389, Note_on_c, 2, 59, 0
1, 27389, Note_on_c, 3, 70, 0
1, 27389, Note_on_c, 6, 65, 50
1, 27390, Note_on_c, 2, 56, 0
1, 27390, Note_on_c, 2, 63, 0
1, 27397, Note_on_c, 6, 59, 0
1, 27402, Note_on_c, 7, 70, 0
1, 27402, Note_on_c, 6, 65, 0
1, 27403, Note_on_c, 6, 70, 0
1, 27405, Note_on_c, 2, 56, 58
1, 27406, Note_on_c, 2, 59, 58
1, 27406, Note_on_c, 2, 63, 87
1, 27407, Note_on_c, 9, 69, 37
1, 27408, Note_on_c, 9, 69, 0
1, 27408, Note_on_c, 9, 51, 49
1, 27409, Note_on_c, 9, 51, 0
1, 27414, Note_on_c, 2, 59, 0
1, 27423, Note_on_c, 2, 63, 0
1, 27429, Note_on_c, 2, 56, 0
1, 27430, Note_on_c, 2, 59, 66
1, 27430, Note_on_c, 2, 63, 87
1, 27431, Note_on_c, 1, 37, 73
1, 27431, Note_on_c, 9, 69, 27
1, 27431, Note_on_c, 9, 51, 38
1, 27431, Note_on_c, 11, 37, 69
1, 27432, Note_on_c, 9, 51, 0
1, 27432, Note_on_c, 9, 69, 0
1, 27432, Note_on_c, 9, 62, 71
1, 27433, Note_on_c, 9, 62, 0
1, 27433, Note_on_c, 9, 36, 93
1, 27434, Note_on_c, 9, 36, 0
1, 27438, Note_on_c, 2, 63, 0
1, 27438, Note_on_c, 2, 59, 0
1, 27454, Note_on_c, 2, 56, 53
1, 27454, Note_on_c, 2, 59, 77
1, 27454, Note_on_c, 2, 63, 76
1, 27455, Note_on_c, 1, 43, 78
1, 27455, Note_on_c, 9, 36, 65
1, 27455, Note_on_c, 11, 43, 74
1, 27456, Note_on_c, 9, 36, 0
1, 27456, Note_on_c, 1, 37, 0
1, 27456, Note_on_c, 11, 37, 0
1, 27456, Note_on_c, 10, 65, 70
1, 27457, Note_on_c, 9, 51, 86
1, 27458, Note_on_c, 9, 51, 0
1, 27458, Note_on_c, 9, 62, 71
1, 27459, Note_on_c, 9, 62, 0
1, 27479, Note_on_c, 1, 38, 74
1, 27479, Note_on_c, 11, 38, 70
1, 27480, Note_on_c, 1, 43, 0
1, 27480, Note_on_c, 11, 43, 0
1, 27481, Note_on_c, 9, 44, 47
1, 27482, Note_on_c, 9, 44, 0
1, 27500, Note_on_c, 2, 59, 0
1, 27500, Note_on_c, 2, 56, 0
1, 27500, Note_on_c, 2, 63, 0
1, 27502, Note_on_c, 3, 73, 0
1, 27502, Note_on_c, 1, 38, 0
1, 27502, Note_on_c, 11, 38, 0
1, 27502, Note_on_c, 2, 63, 111
1, 27503, Note_on_c, 1, 43, 70
1, 27503, Note_on_c, 9, 69, 43
1, 27503, Note_on_c, 11, 43, 66
1, 27504, Note_on_c, 9, 69, 0
1, 27504, Note_on_c, 2, 56, 73
1, 27504, Note_on_c, 2, 59, 98
1, 27504, Note_on_c, 9, 62, 80
1, 27505, Note_on_c, 9, 62, 0
1, 27505, Note_on_c, 9, 51, 48
1, 27505, Note_on_c, 9, 36, 110
1, 27506, Note_on_c, 9, 36, 0
1, 27506, Note_on_c, 9, 51, 0
1, 27514, Note_on_c, 2, 63, 0
1, 27514, Note_on_c, 2, 59, 0
1, 27514, Note_on_c, 2, 56, 0
1, 27526, Note_on_c, 2, 63, 63
1, 27526, Note_on_c, 2, 56, 61
1, 27526, Note_on_c, 2, 59, 74
1, 27527, Note_on_c, 9, 69, 31
1, 27527, Note_on_c, 9, 51, 41
1, 27528, Note_on_c, 9, 51, 0
1, 27528, Note_on_c, 9, 69, 0
1, 27551, Note_on_c, 9, 75, 73
1, 27552, Note_on_c, 9, 75, 0
1, 27552, Note_on_c, 9, 40, 105
1, 27553, Note_on_c, 9, 40, 0
1, 27553, Note_on_c, 5, 66, 102
1, 27553, Note_on_c, 9, 62, 88
1, 27553, Note_on_c, 9, 51, 81
1, 27554, Note_on_c, 9, 51, 0
1, 27554, Note_on_c, 9, 62, 0
1, 27561, Note_on_c, 2, 56, 0
1, 27562, Note_on_c, 2, 63, 0
1, 27564, Note_on_c, 2, 59, 0
1, 27574, Note_on_c, 1, 43, 0
1, 27574, Note_on_c, 11, 43, 0
1, 27574, Note_on_c, 2, 59, 81
1, 27574, Note_on_c, 2, 63, 70
1, 27574, Note_on_c, 2, 56, 61
1, 27574, Note_on_c, 6, 65, 59
1, 27574, Note_on_c, 6, 70, 59
1, 27575, Note_on_c, 1, 38, 72
1, 27575, Note_on_c, 9, 44, 43
1, 27575, Note_on_c, 11, 38, 68
1, 27576, Note_on_c, 9, 44, 0
1, 27577, Note_on_c, 6, 59, 59
1, 27577, Note_on_c, 7, 70, 75
1, 27577, Note_on_c, 7, 59, 74
1, 27578, Note_on_c, 5, 68, 105
1, 27581, Note_on_c, 2, 56, 0
1, 27582, Note_on_c, 2, 59, 0
1, 27584, Note_on_c, 2, 63, 0
1, 27586, Note_on_c, 5, 66, 0
1, 27588, Note_on_c, 7, 70, 0
1, 27589, Note_on_c, 7, 59, 0
1, 27590, Note_on_c, 6, 65, 0
1, 27591, Note_on_c, 6, 59, 0
1, 27594, Note_on_c, 5, 68, 0
1, 27594, Note_on_c, 5, 67, 92
1, 27595, Note_on_c, 6, 70, 0
1, 27598, Note_on_c, 2, 63, 104
1, 27598, Note_on_c, 2, 59, 64
1, 27598, Note_on_c, 2, 56, 49
1, 27599, Note_on_c, 1, 43, 75
1, 27599, Note_on_c, 9, 69, 32
1, 27599, Note_on_c, 9, 51, 42
1, 27599, Note_on_c, 11, 43, 71
1, 27600, Note_on_c, 9, 51, 0
1, 27600, Note_on_c, 9, 69, 0
1, 27602, Note_on_c, 11, 38, 0
1, 27602, Note_on_c, 1, 38, 0
1, 27602, Note_on_c, 5, 68, 109
1, 27608, Note_on_c, 2, 59, 0
1, 27612, Note_on_c, 5, 67, 0
1, 27618, Note_on_c, 2, 63, 0
1, 27622, Note_on_c, 2, 56, 0
1, 27622, Note_on_c, 2, 63, 85
1, 27623, Note_on_c, 1, 37, 69
1, 27623, Note_on_c, 9, 69, 35
1, 27623, Note_on_c, 9, 51, 42
1, 27623, Note_on_c, 11, 37, 65
1, 27624, Note_on_c, 9, 51, 0
1, 27624, Note_on_c, 9, 69, 0
1, 27624, Note_on_c, 2, 59, 76
1, 27625, Note_on_c, 11, 43, 0
1, 27625, Note_on_c, 1, 43, 0
1, 27630, Note_on_c, 2, 63, 0
1, 27632, Note_on_c, 2, 59, 0
1, 27646, Note_on_c, 2, 65, 63
1, 27646, Note_on_c, 2, 61, 90
1, 27646, Note_on_c, 2, 56, 95
1, 27646, Note_on_c, 2, 58, 90
1, 27647, Note_on_c, 4, 73, 0
1, 27647, Note_on_c, 4, 77, 0
1, 27647, Note_on_c, 1, 42, 74
1, 27647, Note_on_c, 9, 51, 83
1, 27647, Note_on_c, 9, 36, 115
1, 27647, Note_on_c, 11, 42, 70
1, 27648, Note_on_c, 9, 36, 0
1, 27648, Note_on_c, 9, 51, 0
1, 27648, Note_on_c, 10, 63, 0
1, 27648, Note_on_c, 10, 59, 0
1, 27648, Note_on_c, 4, 73, 71
1, 27648, Note_on_c, 4, 77, 71
1, 27648, Note_on_c, 10, 61, 61
1, 27648, Note_on_c, 10, 58, 54
1, 27648, Note_on_c, 10, 56, 62
1, 27649, Note_on_c, 3, 73, 101
1, 27653, Note_on_c, 11, 37, 0
1, 27653, Note_on_c, 1, 37, 0
1, 27669, Control_c, 5, 1, 1
1, 27670, Control_c, 5, 1, 3
1, 27671, Control_c, 5, 1, 5
1, 27672, Control_c, 5, 1, 7
1, 27672, Note_on_c, 9, 44, 41
1, 27673, Note_on_c, 9, 44, 0
1, 27673, Control_c, 5, 1, 9
1, 27674, Control_c, 5, 1, 12
1, 27675, Control_c, 5, 1, 13
1, 27676, Control_c, 5, 1, 15
1, 27677, Control_c, 5, 1, 16
1, 27678, Control_c, 5, 1, 19
1, 27679, Control_c, 5, 1, 21
1, 27680, Control_c, 5, 1, 22
1, 27682, Control_c, 5, 1, 24
1, 27683, Control_c, 5, 1, 25
1, 27684, Control_c, 5, 1, 26
1, 27686, Control_c, 5, 1, 27
1, 27687, Control_c, 5, 1, 28
1, 27691, Control_c, 5, 1, 29
1, 27694, Note_on_c, 2, 56, 0
1, 27694, Note_on_c, 2, 58, 0
1, 27694, Note_on_c, 2, 61, 0
1, 27694, Note_on_c, 2, 65, 0
1, 27694, Note_on_c, 9, 69, 50
1, 27695, Note_on_c, 9, 69, 0
1, 27695, Note_on_c, 9, 51, 49
1, 27696, Note_on_c, 9, 51, 0
1, 27696, Note_on_c, 4, 77, 0
1, 27696, Note_on_c, 4, 73, 0
1, 27696, Note_on_c, 2, 58, 100
1, 27696, Note_on_c, 2, 56, 108
1, 27696, Note_on_c, 2, 61, 104
1, 27696, Note_on_c, 2, 65, 77
1, 27696, Note_on_c, 4, 68, 78
1, 27696, Note_on_c, 4, 75, 78
1, 27697, Note_on_c, 3, 68, 84
1, 27699, Note_on_c, 3, 73, 0
1, 27702, Control_c, 5, 1, 28
1, 27705, Note_on_c, 2, 56, 0
1, 27705, Note_on_c, 2, 58, 0
1, 27705, Note_on_c, 2, 61, 0
1, 27705, Control_c, 5, 1, 27
1, 27706, Note_on_c, 2, 65, 0
1, 27706, Control_c, 5, 1, 26
1, 27707, Control_c, 5, 1, 25
1, 27710, Control_c, 5, 1, 23
1, 27712, Control_c, 5, 1, 22
1, 27714, Control_c, 5, 1, 21
1, 27718, Note_on_c, 2, 58, 60
1, 27718, Note_on_c, 2, 61, 68
1, 27718, Note_on_c, 2, 56, 63
1, 27718, Note_on_c, 2, 65, 61
1, 27718, Note_on_c, 9, 62, 66
1, 27719, Note_on_c, 9, 62, 0
1, 27719, Note_on_c, 9, 51, 47
1, 27719, Note_on_c, 9, 69, 28
1, 27720, Note_on_c, 9, 69, 0
1, 27720, Note_on_c, 9, 51, 0
1, 27720, Note_on_c, 4, 68, 0
1, 27720, Note_on_c, 4, 75, 0
1, 27720, Note_on_c, 4, 73, 81
1, 27720, Note_on_c, 4, 70, 81
1, 27721, Note_on_c, 1, 42, 0
1, 27721, Note_on_c, 11, 42, 0
1, 27722, Note_on_c, 3, 70, 78
1, 27725, Note_on_c, 3, 68, 0
1, 27737, Control_c, 5, 1, 20
1, 27738, Control_c, 5, 1, 19
1, 27740, Control_c, 5, 1, 18
1, 27742, Control_c, 5, 1, 17
1, 27743, Control_c, 5, 1, 16
1, 27743, Note_on_c, 9, 51, 86
1, 27743, Note_on_c, 9, 40, 101
1, 27744, Note_on_c, 9, 40, 0
1, 27744, Note_on_c, 9, 51, 0
1, 27745, Control_c, 5, 1, 15
1, 27745, Note_on_c, 9, 75, 79
1, 27745, Note_on_c, 9, 62, 74
1, 27746, Note_on_c, 9, 62, 0
1, 27746, Note_on_c, 9, 75, 0
1, 27746, Control_c, 5, 1, 13
1, 27748, Control_c, 5, 1, 12
1, 27749, Control_c, 5, 1, 10
1, 27750, Control_c, 5, 1, 8
1, 27751, Note_on_c, 2, 56, 0
1, 27751, Control_c, 5, 1, 7
1, 27752, Note_on_c, 2, 61, 0
1, 27752, Control_c, 5, 1, 5
1, 27754, Note_on_c, 2, 65, 0
1, 27754, Note_on_c, 2, 58, 0
1, 27754, Control_c, 5, 1, 3
1, 27755, Control_c, 5, 1, 2
1, 27756, Control_c, 5, 1, 1
1, 27758, Control_c, 5, 1, 0
1, 27766, Note_on_c, 2, 58, 62
1, 27766, Note_on_c, 2, 56, 68
1, 27766, Note_on_c, 2, 61, 71
1, 27766, Note_on_c, 2, 65, 70
1, 27767, Note_on_c, 4, 73, 0
1, 27767, Note_on_c, 9, 44, 43
1, 27768, Note_on_c, 9, 44, 0
1, 27768, Note_on_c, 4, 70, 0
1, 27768, Note_on_c, 4, 77, 82
1, 27768, Note_on_c, 4, 73, 82
1, 27769, Note_on_c, 7, 58, 73
1, 27770, Note_on_c, 3, 73, 81
1, 27772, Note_on_c, 3, 70, 0
1, 27773, Note_on_c, 2, 61, 0
1, 27774, Note_on_c, 2, 58, 0
1, 27775, Note_on_c, 2, 65, 0
1, 27775, Note_on_c, 2, 56, 0
1, 27783, Note_on_c, 7, 58, 0
1, 27790, Note_on_c, 2, 65, 93
1, 27790, Note_on_c, 9, 69, 45
1, 27791, Note_on_c, 9, 69, 0
1, 27792, Note_on_c, 2, 61, 31
1, 27792, Note_on_c, 9, 51, 42
1, 27793, Note_on_c, 9, 51, 0
1, 27793, Note_on_c, 2, 58, 48
1, 27801, Note_on_c, 2, 61, 0
1, 27806, Note_on_c, 2, 58, 0
1, 27810, Note_on_c, 2, 65, 0
1, 27814, Note_on_c, 2, 65, 77
1, 27814, Note_on_c, 9, 69, 23
1, 27815, Note_on_c, 9, 69, 0
1, 27815, Note_on_c, 1, 37, 84
1, 27815, Note_on_c, 9, 36, 105
1, 27815, Note_on_c, 11, 37, 80
1, 27816, Note_on_c, 9, 36, 0
1, 27816, Note_on_c, 2, 61, 67
1, 27816, Note_on_c, 9, 51, 27
1, 27817, Note_on_c, 9, 51, 0
1, 27817, Note_on_c, 9, 62, 71
1, 27818, Note_on_c, 9, 62, 0
1, 27822, Note_on_c, 2, 65, 0
1, 27824, Note_on_c, 2, 61, 0
1, 27838, Note_on_c, 1, 37, 0
1, 27838, Note_on_c, 11, 37, 0
1, 27838, Note_on_c, 2, 58, 79
1, 27838, Note_on_c, 2, 61, 77
1, 27838, Note_on_c, 2, 65, 63
1, 27838, Note_on_c, 2, 56, 60
1, 27839, Note_on_c, 1, 42, 80
1, 27839, Note_on_c, 9, 51, 87
1, 27839, Note_on_c, 9, 36, 72
1, 27839, Note_on_c, 11, 42, 76
1, 27840, Note_on_c, 9, 36, 0
1, 27840, Note_on_c, 9, 51, 0
1, 27842, Control_c, 5, 1, 2
1, 27842, Note_on_c, 9, 62, 74
1, 27843, Note_on_c, 9, 62, 0
1, 27843, Control_c, 5, 1, 3
1, 27844, Control_c, 5, 1, 4
1, 27845, Control_c, 5, 1, 5
1, 27846, Control_c, 5, 1, 7
1, 27847, Control_c, 5, 1, 8
1, 27849, Control_c, 5, 1, 9
1, 27852, Control_c, 5, 1, 10
1, 27862, Note_on_c, 11, 42, 0
1, 27862, Note_on_c, 1, 42, 0
1, 27863, Note_on_c, 1, 34, 72
1, 27863, Note_on_c, 11, 34, 68
1, 27865, Note_on_c, 9, 44, 45
1, 27866, Note_on_c, 9, 44, 0
1, 27869, Control_c, 5, 1, 9
1, 27870, Control_c, 5, 1, 8
1, 27871, Control_c, 5, 1, 7
1, 27872, Control_c, 5, 1, 6
1, 27873, Control_c, 5, 1, 5
1, 27874, Control_c, 5, 1, 3
1, 27875, Control_c, 5, 1, 2
1, 27877, Control_c, 5, 1, 1
1, 27878, Control_c, 5, 1, 0
1, 27885, Note_on_c, 2, 58, 0
1, 27885, Note_on_c, 2, 65, 0
1, 27885, Note_on_c, 2, 61, 0
1, 27885, Note_on_c, 2, 56, 0
1, 27886, Note_on_c, 2, 61, 104
1, 27886, Note_on_c, 2, 56, 98
1, 27886, Note_on_c, 2, 58, 95
1, 27886, Note_on_c, 2, 65, 81
1, 27886, Note_on_c, 9, 69, 37
1, 27887, Note_on_c, 9, 69, 0
1, 27887, Note_on_c, 1, 42, 76
1, 27887, Note_on_c, 9, 51, 51
1, 27887, Note_on_c, 11, 42, 72
1, 27888, Note_on_c, 9, 51, 0
1, 27888, Note_on_c, 11, 34, 0
1, 27888, Note_on_c, 1, 34, 0
1, 27888, Note_on_c, 9, 36, 107
1, 27889, Note_on_c, 9, 36, 0
1, 27889, Note_on_c, 3, 73, 0
1, 27895, Note_on_c, 2, 56, 0
1, 27897, Note_on_c, 2, 61, 0
1, 27897, Note_on_c, 2, 58, 0
1, 27899, Note_on_c, 2, 65, 0
1, 27910, Note_on_c, 2, 65, 69
1, 27910, Note_on_c, 2, 58, 65
1, 27910, Note_on_c, 2, 56, 64
1, 27910, Note_on_c, 2, 61, 68
1, 27910, Note_on_c, 9, 69, 34
1, 27911, Note_on_c, 9, 69, 0
1, 27911, Note_on_c, 9, 62, 66
1, 27912, Note_on_c, 9, 62, 0
1, 27912, Note_on_c, 9, 51, 74
1, 27913, Note_on_c, 9, 51, 0
1, 27935, Note_on_c, 9, 51, 93
1, 27935, Note_on_c, 9, 75, 82
1, 27935, Note_on_c, 9, 40, 105
1, 27936, Note_on_c, 9, 40, 0
1, 27936, Note_on_c, 9, 75, 0
1, 27936, Note_on_c, 9, 51, 0
1, 27938, Note_on_c, 9, 62, 66
1, 27939, Note_on_c, 9, 62, 0
1, 27945, Note_on_c, 2, 56, 0
1, 27946, Note_on_c, 2, 58, 0
1, 27946, Note_on_c, 2, 65, 0
1, 27946, Note_on_c, 2, 61, 0
1, 27958, Note_on_c, 2, 56, 71
1, 27958, Note_on_c, 2, 61, 72
1, 27958, Note_on_c, 2, 65, 72
1, 27958, Note_on_c, 2, 58, 64
1, 27958, Note_on_c, 6, 58, 64
1, 27959, Note_on_c, 1, 37, 78
1, 27959, Note_on_c, 6, 65, 59
1, 27959, Note_on_c, 6, 68, 61
1, 27959, Note_on_c, 9, 44, 50
1, 27959, Note_on_c, 11, 37, 74
1, 27960, Note_on_c, 9, 44, 0
1, 27961, Note_on_c, 1, 42, 0
1, 27961, Note_on_c, 11, 42, 0
1, 27961, Note_on_c, 7, 68, 74
1, 27961, Note_on_c, 9, 62, 55
1, 27962, Note_on_c, 9, 62, 0
1, 27967, Note_on_c, 2, 58, 0
1, 27968, Note_on_c, 2, 56, 0
1, 27968, Note_on_c, 2, 61, 0
1, 27969, Note_on_c, 2, 65, 0
1, 27970, Note_on_c, 6, 68, 0
1, 27974, Note_on_c, 6, 58, 0
1, 27976, Note_on_c, 6, 65, 0
1, 27976, Note_on_c, 7, 68, 0
1, 27981, Note_on_c, 9, 69, 45
1, 27982, Note_on_c, 9, 69, 0
1, 27982, Note_on_c, 2, 65, 90
1, 27982, Note_on_c, 2, 61, 58
1, 27983, Note_on_c, 1, 42, 74
1, 27983, Note_on_c, 9, 51, 49
1, 27983, Note_on_c, 11, 42, 70
1, 27984, Note_on_c, 9, 51, 0
1, 27984, Note_on_c, 11, 37, 0
1, 27984, Note_on_c, 1, 37, 0
1, 27986, Note_on_c, 9, 62, 71
1, 27987, Note_on_c, 9, 62, 0
1, 27992, Note_on_c, 2, 61, 0
1, 28000, Note_on_c, 2, 65, 0
1, 28006, Note_on_c, 2, 61, 61
1, 28006, Note_on_c, 2, 65, 77
1, 28006, Note_on_c, 9, 69, 36
1, 28007, Note_on_c, 9, 69, 0
1, 28007, Note_on_c, 4, 77, 0
1, 28007, Note_on_c, 4, 73, 0
1, 28007, Note_on_c, 1, 34, 74
1, 28007, Note_on_c, 3, 77, 95
1, 28007, Note_on_c, 9, 51, 57
1, 28007, Note_on_c, 11, 34, 70
1, 28008, Note_on_c, 9, 51, 0
1, 28008, Note_on_c, 4, 77, 68
1, 28008, Note_on_c, 4, 73, 68
1, 28014, Note_on_c, 11, 42, 0
1, 28014, Note_on_c, 2, 61, 0
1, 28014, Note_on_c, 1, 42, 0
1, 28014, Note_on_c, 2, 65, 0
1, 28029, Note_on_c, 5, 68, 0
1, 28029, Note_on_c, 5, 73, 109
1, 28030, Note_on_c, 2, 63, 71
1, 28030, Note_on_c, 2, 68, 64
1, 28031, Note_on_c, 1, 35, 85
1, 28031, Note_on_c, 9, 36, 114
1, 28031, Note_on_c, 9, 51, 76
1, 28031, Note_on_c, 11, 35, 81
1, 28032, Note_on_c, 9, 51, 0
1, 28032, Note_on_c, 9, 36, 0
1, 28032, Note_on_c, 10, 58, 0
1, 28032, Note_on_c, 4, 73, 0
1, 28032, Note_on_c, 10, 56, 0
1, 28032, Note_on_c, 10, 65, 0
1, 28032, Note_on_c, 4, 77, 0
1, 28032, Note_on_c, 4, 75, 69
1, 28032, Note_on_c, 4, 71, 69
1, 28032, Note_on_c, 10, 57, 64
1, 28032, Note_on_c, 10, 63, 68
1, 28034, Note_on_c, 3, 75, 75
1, 28035, Note_on_c, 1, 34, 0
1, 28035, Note_on_c, 11, 34, 0
1, 28037, Note_on_c, 3, 77, 0
1, 28042, Control_c, 5, 1, 2
1, 28043, Control_c, 5, 1, 4
1, 28044, Control_c, 5, 1, 9
1, 28045, Control_c, 5, 1, 11
1, 28046, Control_c, 5, 1, 16
1, 28047, Control_c, 5, 1, 19
1, 28048, Control_c, 5, 1, 22
1, 28049, Control_c, 5, 1, 25
1, 28050, Control_c, 5, 1, 30
1, 28051, Control_c, 5, 1, 33
1, 28052, Control_c, 5, 1, 36
1, 28053, Control_c, 5, 1, 38
1, 28054, Control_c, 5, 1, 42
1, 28055, Control_c, 5, 1, 44
1, 28055, Note_on_c, 9, 44, 46
1, 28056, Note_on_c, 9, 44, 0
1, 28056, Note_on_c, 4, 75, 0
1, 28056, Note_on_c, 4, 71, 0
1, 28056, Note_on_c, 4, 73, 69
1, 28056, Note_on_c, 4, 69, 69
1, 28056, Control_c, 5, 1, 46
1, 28057, Note_on_c, 3, 73, 81
1, 28057, Control_c, 5, 1, 47
1, 28058, Control_c, 5, 1, 50
1, 28060, Control_c, 5, 1, 51
1, 28061, Note_on_c, 3, 75, 0
1, 28064, Control_c, 5, 1, 50
1, 28065, Control_c, 5, 1, 49
1, 28066, Control_c, 5, 1, 47
1, 28067, Control_c, 5, 1, 45
1, 28068, Control_c, 5, 1, 43
1, 28069, Control_c, 5, 1, 41
1, 28070, Control_c, 5, 1, 36
1, 28071, Control_c, 5, 1, 34
1, 28072, Control_c, 5, 1, 31
1, 28073, Control_c, 5, 1, 27
1, 28074, Control_c, 5, 1, 22
1, 28075, Note_on_c, 2, 68, 0
1, 28075, Note_on_c, 2, 63, 0
1, 28075, Control_c, 5, 1, 19
1, 28076, Control_c, 5, 1, 16
1, 28077, Control_c, 5, 1, 13
1, 28078, Note_on_c, 2, 68, 93
1, 28078, Note_on_c, 2, 63, 117
1, 28078, Control_c, 5, 1, 8
1, 28078, Note_on_c, 9, 69, 41
1, 28079, Note_on_c, 9, 69, 0
1, 28079, Control_c, 5, 1, 5
1, 28079, Note_on_c, 9, 51, 42
1, 28080, Note_on_c, 9, 51, 0
1, 28080, Control_c, 5, 1, 3
1, 28081, Control_c, 5, 1, 2
1, 28082, Control_c, 5, 1, 0
1, 28086, Note_on_c, 2, 63, 0
1, 28088, Note_on_c, 2, 68, 0
1, 28100, Note_on_c, 6, 68, 57
1, 28101, Note_on_c, 6, 57, 57
1, 28101, Note_on_c, 6, 65, 57
1, 28101, Note_on_c, 7, 68, 65
1, 28102, Note_on_c, 11, 35, 0
1, 28102, Note_on_c, 1, 35, 0
1, 28102, Note_on_c, 9, 69, 30
1, 28103, Note_on_c, 9, 69, 0
1, 28103, Note_on_c, 9, 62, 84
1, 28103, Note_on_c, 9, 51, 43
1, 28104, Note_on_c, 9, 51, 0
1, 28104, Note_on_c, 9, 62, 0
1, 28104, Note_on_c, 3, 73, 0
1, 28104, Note_on_c, 2, 63, 67
1, 28104, Note_on_c, 2, 68, 58
1, 28106, Note_on_c, 5, 70, 100
1, 28118, Note_on_c, 5, 73, 0
1, 28122, Note_on_c, 6, 68, 0
1, 28123, Note_on_c, 6, 57, 0
1, 28123, Note_on_c, 7, 68, 0
1, 28125, Note_on_c, 6, 65, 0
1, 28126, Note_on_c, 6, 68, 57
1, 28127, Note_on_c, 7, 68, 75
1, 28127, Note_on_c, 9, 75, 79
1, 28128, Note_on_c, 9, 75, 0
1, 28128, Note_on_c, 6, 57, 55
1, 28128, Note_on_c, 9, 40, 101
1, 28128, Note_on_c, 9, 51, 83
1, 28129, Note_on_c, 9, 51, 0
1, 28129, Note_on_c, 9, 40, 0
1, 28129, Note_on_c, 5, 73, 113
1, 28129, Note_on_c, 6, 65, 56
1, 28129, Note_on_c, 9, 62, 71
1, 28130, Note_on_c, 9, 62, 0
1, 28134, Note_on_c, 5, 70, 0
1, 28140, Note_on_c, 2, 63, 0
1, 28142, Note_on_c, 2, 68, 0
1, 28144, Note_on_c, 6, 68, 0
1, 28146, Note_on_c, 6, 65, 0
1, 28148, Note_on_c, 7, 68, 0
1, 28148, Note_on_c, 6, 57, 0
1, 28151, Note_on_c, 4, 73, 0
1, 28151, Note_on_c, 1, 42, 78
1, 28151, Note_on_c, 3, 77, 97
1, 28151, Note_on_c, 9, 44, 43
1, 28151, Note_on_c, 11, 42, 74
1, 28152, Note_on_c, 9, 44, 0
1, 28152, Note_on_c, 4, 69, 0
1, 28152, Note_on_c, 2, 68, 69
1, 28152, Note_on_c, 2, 63, 71
1, 28152, Note_on_c, 4, 77, 70
1, 28152, Note_on_c, 4, 73, 70
1, 28154, Note_on_c, 5, 70, 99
1, 28154, Note_on_c, 6, 57, 62
1, 28154, Note_on_c, 6, 65, 64
1, 28154, Note_on_c, 7, 68, 75
1, 28155, Note_on_c, 6, 68, 68
1, 28158, Note_on_c, 2, 63, 0
1, 28160, Note_on_c, 2, 68, 0
1, 28162, Note_on_c, 5, 73, 0
1, 28162, Note_on_c, 6, 65, 0
1, 28166, Note_on_c, 5, 70, 0
1, 28167, Note_on_c, 7, 68, 0
1, 28169, Note_on_c, 6, 68, 0
1, 28170, Note_on_c, 6, 57, 0
1, 28173, Note_on_c, 2, 68, 95
1, 28173, Note_on_c, 2, 63, 64
1, 28173, Note_on_c, 9, 69, 45
1, 28174, Note_on_c, 9, 69, 0
1, 28175, Note_on_c, 1, 47, 87
1, 28175, Note_on_c, 3, 75, 82
1, 28175, Note_on_c, 11, 47, 83
1, 28176, Note_on_c, 4, 77, 0
1, 28176, Note_on_c, 4, 73, 0
1, 28176, Note_on_c, 4, 75, 70
1, 28176, Note_on_c, 4, 71, 70
1, 28176, Note_on_c, 5, 73, 107
1, 28176, Note_on_c, 9, 51, 51
1, 28177, Note_on_c, 9, 51, 0
1, 28177, Note_on_c, 1, 42, 0
1, 28177, Note_on_c, 11, 42, 0
1, 28179, Note_on_c, 3, 77, 0
1, 28185, Note_on_c, 2, 63, 0
1, 28193, Note_on_c, 2, 68, 0
1, 28194, Control_c, 5, 1, 1
1, 28196, Control_c, 5, 1, 2
1, 28197, Control_c, 5, 1, 3
1, 28198, Note_on_c, 2, 63, 61
1, 28198, Note_on_c, 2, 68, 90
1, 28198, Control_c, 5, 1, 4
1, 28198, Note_on_c, 9, 62, 63
1, 28198, Note_on_c, 9, 69, 30
1, 28199, Note_on_c, 9, 69, 0
1, 28199, Note_on_c, 9, 62, 0
1, 28199, Note_on_c, 1, 42, 67
1, 28199, Control_c, 5, 1, 5
1, 28199, Note_on_c, 9, 51, 49
1, 28199, Note_on_c, 11, 42, 63
1, 28200, Note_on_c, 9, 51, 0
1, 28200, Note_on_c, 4, 75, 0
1, 28200, Note_on_c, 3, 75, 0
1, 28200, Note_on_c, 4, 71, 0
1, 28200, Note_on_c, 3, 73, 87
1, 28200, Note_on_c, 4, 69, 70
1, 28200, Note_on_c, 4, 73, 70
1, 28201, Control_c, 5, 1, 7
1, 28201, Note_on_c, 9, 36, 113
1, 28202, Note_on_c, 9, 36, 0
1, 28202, Control_c, 5, 1, 9
1, 28203, Control_c, 5, 1, 10
1, 28204, Control_c, 5, 1, 11
1, 28205, Note_on_c, 11, 47, 0
1, 28205, Note_on_c, 1, 47, 0
1, 28205, Control_c, 5, 1, 12
1, 28206, Note_on_c, 2, 68, 0
1, 28206, Control_c, 5, 1, 13
1, 28207, Control_c, 5, 1, 14
1, 28208, Control_c, 5, 1, 16
1, 28209, Control_c, 5, 1, 17
1, 28210, Note_on_c, 2, 63, 0
1, 28210, Control_c, 5, 1, 19
1, 28211, Control_c, 5, 1, 20
1, 28212, Control_c, 5, 1, 21
1, 28214, Control_c, 5, 1, 22
1, 28215, Control_c, 5, 1, 23
1, 28216, Control_c, 5, 1, 24
1, 28219, Control_c, 5, 1, 25
1, 28222, Note_on_c, 2, 68, 59
1, 28222, Note_on_c, 2, 63, 74
1, 28223, Note_on_c, 1, 45, 81
1, 28223, Note_on_c, 9, 36, 61
1, 28223, Note_on_c, 11, 45, 77
1, 28224, Note_on_c, 9, 36, 0
1, 28225, Control_c, 5, 1, 26
1, 28225, Note_on_c, 9, 51, 78
1, 28225, Note_on_c, 9, 62, 74
1, 28226, Note_on_c, 9, 62, 0
1, 28226, Note_on_c, 9, 51, 0
1, 28226, Note_on_c, 11, 42, 0
1, 28226, Note_on_c, 1, 42, 0
1, 28235, Control_c, 5, 1, 25
1, 28236, Control_c, 5, 1, 24
1, 28237, Control_c, 5, 1, 23
1, 28238, Control_c, 5, 1, 20
1, 28239, Control_c, 5, 1, 18
1, 28240, Control_c, 5, 1, 16
1, 28241, Control_c, 5, 1, 13
1, 28242, Control_c, 5, 1, 7
1, 28243, Control_c, 5, 1, 4
1, 28244, Control_c, 5, 1, 3
1, 28245, Control_c, 5, 1, 1
1, 28246, Control_c, 5, 1, 0
1, 28247, Note_on_c, 1, 40, 69
1, 28247, Note_on_c, 6, 69, 60
1, 28247, Note_on_c, 9, 44, 47
1, 28247, Note_on_c, 11, 40, 65
1, 28248, Note_on_c, 9, 44, 0
1, 28248, Note_on_c, 3, 73, 0
1, 28248, Note_on_c, 6, 65, 53
1, 28248, Note_on_c, 6, 61, 49
1, 28249, Note_on_c, 1, 45, 0
1, 28249, Note_on_c, 11, 45, 0
1, 28250, Note_on_c, 7, 69, 82
1, 28262, Note_on_c, 6, 61, 0
1, 28262, Note_on_c, 6, 65, 0
1, 28263, Note_on_c, 6, 69, 0
1, 28263, Note_on_c, 7, 69, 0
1, 28269, Note_on_c, 2, 68, 0
1, 28270, Note_on_c, 2, 63, 0
1, 28270, Note_on_c, 2, 68, 83
1, 28270, Note_on_c, 3, 77, 84
1, 28271, Note_on_c, 4, 73, 0
1, 28271, Note_on_c, 9, 69, 41
1, 28271, Note_on_c, 9, 62, 87
1, 28271, Note_on_c, 9, 51, 62
1, 28272, Note_on_c, 9, 51, 0
1, 28272, Note_on_c, 4, 69, 0
1, 28272, Note_on_c, 9, 62, 0
1, 28272, Note_on_c, 9, 69, 0
1, 28272, Note_on_c, 1, 45, 76
1, 28272, Note_on_c, 2, 63, 117
1, 28272, Note_on_c, 4, 73, 72
1, 28272, Note_on_c, 4, 77, 72
1, 28272, Note_on_c, 9, 36, 114
1, 28272, Note_on_c, 11, 45, 72
1, 28273, Note_on_c, 9, 36, 0
1, 28274, Control_c, 5, 1, 2
1, 28275, Note_on_c, 1, 40, 0
1, 28275, Note_on_c, 11, 40, 0
1, 28275, Control_c, 5, 1, 4
1, 28276, Control_c, 5, 1, 6
1, 28277, Control_c, 5, 1, 8
1, 28278, Control_c, 5, 1, 12
1, 28279, Control_c, 5, 1, 14
1, 28280, Control_c, 5, 1, 15
1, 28281, Control_c, 5, 1, 17
1, 28282, Note_on_c, 2, 63, 0
1, 28282, Control_c, 5, 1, 19
1, 28283, Control_c, 5, 1, 20
1, 28284, Note_on_c, 2, 68, 0
1, 28285, Control_c, 5, 1, 21
1, 28290, Control_c, 5, 1, 18
1, 28291, Control_c, 5, 1, 17
1, 28292, Control_c, 5, 1, 16
1, 28293, Control_c, 5, 1, 14
1, 28294, Note_on_c, 2, 63, 69
1, 28294, Note_on_c, 3, 75, 89
1, 28294, Control_c, 5, 1, 11
1, 28295, Control_c, 5, 1, 9
1, 28295, Note_on_c, 9, 69, 30
1, 28295, Note_on_c, 9, 51, 42
1, 28296, Note_on_c, 9, 51, 0
1, 28296, Note_on_c, 9, 69, 0
1, 28296, Note_on_c, 4, 77, 0
1, 28296, Note_on_c, 4, 73, 0
1, 28296, Note_on_c, 2, 68, 60
1, 28296, Note_on_c, 4, 71, 72
1, 28296, Note_on_c, 4, 75, 72
1, 28296, Control_c, 5, 1, 8
1, 28297, Control_c, 5, 1, 6
1, 28298, Note_on_c, 3, 77, 0
1, 28298, Note_on_c, 5, 70, 99
1, 28298, Control_c, 5, 1, 3
1, 28299, Control_c, 5, 1, 2
1, 28300, Control_c, 5, 1, 1
1, 28301, Control_c, 5, 1, 0
1, 28302, Note_on_c, 5, 73, 0
1, 28316, Note_on_c, 7, 69, 79
1, 28317, Note_on_c, 6, 64, 56
1, 28317, Note_on_c, 6, 61, 60
1, 28317, Note_on_c, 6, 69, 64
1, 28318, Note_on_c, 3, 73, 97
1, 28319, Note_on_c, 3, 75, 0
1, 28319, Note_on_c, 9, 40, 107
1, 28319, Note_on_c, 9, 75, 83
1, 28319, Note_on_c, 9, 62, 80
1, 28319, Note_on_c, 9, 51, 81
1, 28320, Note_on_c, 9, 51, 0
1, 28320, Note_on_c, 9, 62, 0
1, 28320, Note_on_c, 9, 40, 0
1, 28320, Note_on_c, 4, 71, 0
1, 28320, Note_on_c, 9, 75, 0
1, 28320, Note_on_c, 4, 75, 0
1, 28320, Note_on_c, 4, 73, 72
1, 28320, Note_on_c, 4, 69, 72
1, 28322, Note_on_c, 5, 73, 109
1, 28323, Note_on_c, 5, 70, 0
1, 28326, Control_c, 5, 1, 2
1, 28327, Control_c, 5, 1, 3
1, 28328, Control_c, 5, 1, 4
1, 28329, Control_c, 5, 1, 5
1, 28330, Control_c, 5, 1, 9
1, 28331, Control_c, 5, 1, 11
1, 28332, Note_on_c, 2, 63, 0
1, 28332, Control_c, 5, 1, 13
1, 28333, Note_on_c, 2, 68, 0
1, 28333, Control_c, 5, 1, 14
1, 28334, Control_c, 5, 1, 18
1, 28335, Control_c, 5, 1, 20
1, 28336, Control_c, 5, 1, 21
1, 28337, Control_c, 5, 1, 23
1, 28338, Control_c, 5, 1, 26
1, 28339, Control_c, 5, 1, 28
1, 28340, Control_c, 5, 1, 29
1, 28341, Control_c, 5, 1, 31
1, 28342, Note_on_c, 1, 45, 0
1, 28342, Note_on_c, 11, 45, 0
1, 28342, Note_on_c, 2, 68, 71
1, 28342, Control_c, 5, 1, 33
1, 28343, Note_on_c, 1, 33, 86
1, 28343, Note_on_c, 9, 44, 45
1, 28343, Note_on_c, 11, 33, 82
1, 28344, Note_on_c, 9, 44, 0
1, 28344, Note_on_c, 2, 63, 72
1, 28344, Control_c, 5, 1, 34
1, 28346, Control_c, 5, 1, 35
1, 28352, Note_on_c, 2, 63, 0
1, 28353, Note_on_c, 2, 68, 0
1, 28364, Control_c, 5, 1, 34
1, 28365, Note_on_c, 2, 68, 87
1, 28366, Note_on_c, 2, 63, 63
1, 28366, Control_c, 5, 1, 32
1, 28367, Note_on_c, 1, 30, 70
1, 28367, Control_c, 5, 1, 31
1, 28367, Note_on_c, 9, 69, 43
1, 28367, Note_on_c, 11, 30, 66
1, 28368, Note_on_c, 9, 69, 0
1, 28368, Control_c, 5, 1, 30
1, 28369, Control_c, 5, 1, 28
1, 28369, Note_on_c, 9, 51, 76
1, 28370, Note_on_c, 9, 51, 0
1, 28370, Note_on_c, 11, 33, 0
1, 28370, Note_on_c, 1, 33, 0
1, 28370, Control_c, 5, 1, 26
1, 28371, Control_c, 5, 1, 25
1, 28372, Control_c, 5, 1, 23
1, 28373, Control_c, 5, 1, 22
1, 28374, Control_c, 5, 1, 19
1, 28375, Control_c, 5, 1, 18
1, 28376, Control_c, 5, 1, 17
1, 28377, Control_c, 5, 1, 15
1, 28378, Control_c, 5, 1, 12
1, 28379, Control_c, 5, 1, 10
1, 28380, Control_c, 5, 1, 8
1, 28381, Control_c, 5, 1, 5
1, 28382, Note_on_c, 2, 63, 0
1, 28382, Control_c, 5, 1, 2
1, 28383, Control_c, 5, 1, 1
1, 28384, Control_c, 5, 1, 0
1, 28385, Note_on_c, 2, 68, 0
1, 28388, Note_on_c, 6, 64, 0
1, 28389, Note_on_c, 2, 68, 90
1, 28390, Note_on_c, 11, 30, 0
1, 28390, Note_on_c, 1, 30, 0
1, 28390, Note_on_c, 2, 63, 69
1, 28391, Note_on_c, 1, 31, 86
1, 28391, Note_on_c, 9, 51, 48
1, 28391, Note_on_c, 11, 31, 82
1, 28392, Note_on_c, 9, 51, 0
1, 28394, Note_on_c, 9, 69, 28
1, 28395, Note_on_c, 9, 69, 0
1, 28395, Note_on_c, 2, 68, 0
1, 28398, Note_on_c, 6, 69, 0
1, 28398, Note_on_c, 2, 63, 0
1, 28400, Note_on_c, 7, 69, 0
1, 28407, Note_on_c, 5, 73, 0
1, 28411, Note_on_c, 6, 61, 0
1, 28412, Note_on_c, 3, 73, 0
1, 28413, Note_on_c, 8, 82, 81
1, 28414, Note_on_c, 2, 65, 72
1, 28414, Note_on_c, 2, 61, 83
1, 28414, Note_on_c, 8, 70, 81
1, 28415, Note_on_c, 4, 73, 0
1, 28415, Note_on_c, 10, 68, 0
1, 28415, Note_on_c, 3, 73, 102
1, 28415, Note_on_c, 9, 51, 87
1, 28415, Note_on_c, 9, 36, 115
1, 28416, Note_on_c, 9, 36, 0
1, 28416, Note_on_c, 10, 63, 0
1, 28416, Note_on_c, 10, 61, 0
1, 28416, Note_on_c, 9, 51, 0
1, 28416, Note_on_c, 4, 69, 0
1, 28416, Note_on_c, 10, 57, 0
1, 28416, Note_on_c, 4, 73, 69
1, 28416, Note_on_c, 4, 77, 69
1, 28416, Note_on_c, 10, 65, 63
1, 28416, Note_on_c, 10, 68, 58
1, 28416, Note_on_c, 10, 56, 63
1, 28417, Note_on_c, 1, 32, 73
1, 28417, Note_on_c, 11, 32, 69
1, 28422, Note_on_c, 1, 31, 0
1, 28422, Note_on_c, 11, 31, 0
1, 28439, Note_on_c, 9, 44, 41
1, 28440, Note_on_c, 9, 44, 0
1, 28462, Note_on_c, 2, 61, 0
1, 28462, Note_on_c, 2, 65, 0
1, 28462, Note_on_c, 9, 69, 46
1, 28463, Note_on_c, 9, 69, 0
1, 28463, Note_on_c, 9, 51, 52
1, 28464, Note_on_c, 9, 51, 0
1, 28464, Note_on_c, 4, 77, 0
1, 28464, Note_on_c, 4, 73, 0
1, 28464, Note_on_c, 2, 61, 100
1, 28464, Note_on_c, 2, 65, 83
1, 28464, Note_on_c, 3, 68, 84
1, 28464, Note_on_c, 4, 75, 67
1, 28464, Note_on_c, 4, 68, 67
1, 28466, Note_on_c, 3, 73, 0
1, 28472, Note_on_c, 2, 61, 0
1, 28477, Note_on_c, 2, 65, 0
1, 28487, Note_on_c, 9, 69, 33
1, 28487, Note_on_c, 9, 51, 45
1, 28488, Note_on_c, 9, 51, 0
1, 28488, Note_on_c, 4, 68, 0
1, 28488, Note_on_c, 9, 69, 0
1, 28488, Note_on_c, 4, 75, 0
1, 28488, Note_on_c, 2, 65, 74
1, 28488, Note_on_c, 2, 61, 74
1, 28488, Note_on_c, 4, 70, 66
1, 28488, Note_on_c, 4, 73, 66
1, 28489, Note_on_c, 9, 62, 69
1, 28490, Note_on_c, 9, 62, 0
1, 28490, Note_on_c, 11, 32, 0
1, 28490, Note_on_c, 1, 32, 0
1, 28490, Note_on_c, 3, 70, 87
1, 28494, Note_on_c, 3, 68, 0
1, 28511, Note_on_c, 9, 51, 81
1, 28511, Note_on_c, 9, 40, 101
1, 28511, Note_on_c, 9, 75, 74
1, 28512, Note_on_c, 9, 75, 0
1, 28512, Note_on_c, 9, 40, 0
1, 28512, Note_on_c, 9, 51, 0
1, 28514, Note_on_c, 9, 62, 66
1, 28515, Note_on_c, 9, 62, 0
1, 28524, Note_on_c, 2, 65, 0
1, 28524, Note_on_c, 2, 61, 0
1, 28534, Note_on_c, 2, 65, 70
1, 28535, Note_on_c, 4, 73, 0
1, 28535, Note_on_c, 9, 44, 48
1, 28536, Note_on_c, 9, 44, 0
1, 28536, Note_on_c, 4, 70, 0
1, 28536, Note_on_c, 2, 61, 71
1, 28536, Note_on_c, 3, 73, 100
1, 28536, Note_on_c, 4, 73, 70
1, 28536, Note_on_c, 4, 77, 70
1, 28537, Note_on_c, 3, 70, 0
1, 28541, Note_on_c, 2, 61, 0
1, 28542, Note_on_c, 2, 65, 0
1, 28557, Note_on_c, 2, 65, 87
1, 28558, Note_on_c, 2, 61, 60
1, 28559, Note_on_c, 9, 51, 48
1, 28559, Note_on_c, 9, 69, 41
1, 28560, Note_on_c, 9, 69, 0
1, 28560, Note_on_c, 9, 51, 0
1, 28568, Note_on_c, 2, 61, 0
1, 28577, Note_on_c, 2, 65, 0
1, 28582, Note_on_c, 2, 61, 61
1, 28582, Note_on_c, 2, 65, 81
1, 28583, Note_on_c, 1, 39, 81
1, 28583, Note_on_c, 9, 36, 104
1, 28583, Note_on_c, 9, 51, 42
1, 28583, Note_on_c, 9, 62, 62
1, 28583, Note_on_c, 11, 39, 77
1, 28584, Note_on_c, 9, 62, 0
1, 28584, Note_on_c, 9, 51, 0
1, 28584, Note_on_c, 9, 36, 0
1, 28584, Note_on_c, 9, 69, 33
1, 28585, Note_on_c, 9, 69, 0
1, 28590, Note_on_c, 2, 61, 0
1, 28590, Note_on_c, 2, 65, 0
1, 28605, Note_on_c, 1, 39, 0
1, 28605, Note_on_c, 11, 39, 0
1, 28606, Note_on_c, 1, 44, 82
1, 28606, Note_on_c, 2, 61, 93
1, 28606, Note_on_c, 2, 65, 64
1, 28606, Note_on_c, 11, 44, 78
1, 28607, Note_on_c, 9, 36, 67
1, 28608, Note_on_c, 9, 36, 0
1, 28608, Note_on_c, 9, 51, 83
1, 28609, Note_on_c, 9, 51, 0
1, 28609, Note_on_c, 9, 62, 62
1, 28610, Note_on_c, 9, 62, 0
1, 28631, Note_on_c, 11, 44, 0
1, 28631, Note_on_c, 1, 44, 0
1, 28631, Note_on_c, 1, 32, 78
1, 28631, Note_on_c, 9, 44, 42
1, 28631, Note_on_c, 11, 32, 74
1, 28632, Note_on_c, 9, 44, 0
1, 28651, Note_on_c, 11, 32, 0
1, 28651, Note_on_c, 1, 32, 0
1, 28654, Note_on_c, 2, 65, 0
1, 28654, Note_on_c, 2, 61, 0
1, 28654, Note_on_c, 9, 69, 41
1, 28655, Note_on_c, 9, 69, 0
1, 28655, Note_on_c, 1, 44, 80
1, 28655, Note_on_c, 9, 36, 105
1, 28655, Note_on_c, 9, 51, 46
1, 28655, Note_on_c, 11, 44, 76
1, 28656, Note_on_c, 9, 51, 0
1, 28656, Note_on_c, 9, 36, 0
1, 28656, Note_on_c, 2, 61, 108
1, 28656, Note_on_c, 2, 65, 87
1, 28665, Note_on_c, 2, 61, 0
1, 28668, Note_on_c, 2, 65, 0
1, 28678, Note_on_c, 9, 62, 69
1, 28678, Note_on_c, 9, 69, 23
1, 28679, Note_on_c, 9, 69, 0
1, 28679, Note_on_c, 9, 62, 0
1, 28679, Note_on_c, 9, 51, 55
1, 28680, Note_on_c, 9, 51, 0
1, 28680, Note_on_c, 2, 61, 73
1, 28680, Note_on_c, 2, 65, 68
1, 28690, Note_on_c, 1, 44, 0
1, 28690, Note_on_c, 11, 44, 0
1, 28703, Note_on_c, 9, 40, 105
1, 28703, Note_on_c, 9, 75, 79
1, 28703, Note_on_c, 9, 51, 81
1, 28703, Note_on_c, 9, 62, 55
1, 28704, Note_on_c, 9, 62, 0
1, 28704, Note_on_c, 9, 51, 0
1, 28704, Note_on_c, 9, 40, 0
1, 28704, Note_on_c, 9, 75, 0
1, 28716, Note_on_c, 2, 61, 0
1, 28716, Note_on_c, 2, 65, 0
1, 28721, Note_on_c, 3, 73, 0
1, 28723, Note_on_c, 6, 61, 56
1, 28726, Note_on_c, 7, 61, 78
1, 28726, Note_on_c, 7, 70, 82
1, 28726, Note_on_c, 9, 62, 52
1, 28727, Note_on_c, 9, 62, 0
1, 28727, Note_on_c, 6, 65, 62
1, 28727, Note_on_c, 9, 44, 46
1, 28728, Note_on_c, 9, 44, 0
1, 28728, Note_on_c, 2, 61, 64
1, 28728, Note_on_c, 2, 65, 66
1, 28728, Note_on_c, 6, 70, 59
1, 28729, Note_on_c, 1, 32, 75
1, 28729, Note_on_c, 11, 32, 71
1, 28736, Note_on_c, 2, 61, 0
1, 28738, Note_on_c, 6, 70, 0
1, 28738, Note_on_c, 6, 61, 0
1, 28738, Note_on_c, 7, 61, 0
1, 28738, Note_on_c, 2, 65, 0
1, 28739, Note_on_c, 11, 32, 0
1, 28739, Note_on_c, 6, 65, 0
1, 28739, Note_on_c, 1, 32, 0
1, 28742, Note_on_c, 7, 70, 0
1, 28749, Note_on_c, 2, 65, 81
1, 28750, Note_on_c, 2, 61, 54
1, 28750, Note_on_c, 9, 69, 46
1, 28750, Note_on_c, 9, 62, 69
1, 28751, Note_on_c, 9, 62, 0
1, 28751, Note_on_c, 9, 69, 0
1, 28751, Note_on_c, 1, 39, 80
1, 28751, Note_on_c, 9, 51, 45
1, 28751, Note_on_c, 11, 39, 76
1, 28752, Note_on_c, 9, 51, 0
1, 28762, Note_on_c, 2, 61, 0
1, 28770, Note_on_c, 2, 65, 0
1, 28774, Note_on_c, 2, 61, 77
1, 28774, Note_on_c, 2, 65, 81
1, 28774, Note_on_c, 9, 69, 27
1, 28775, Note_on_c, 9, 69, 0
1, 28775, Note_on_c, 9, 51, 47
1, 28776, Note_on_c, 9, 51, 0
1, 28777, Note_on_c, 1, 32, 84
1, 28777, Note_on_c, 11, 32, 80
1, 28782, Note_on_c, 2, 61, 0
1, 28782, Note_on_c, 2, 65, 0
1, 28785, Note_on_c, 1, 39, 0
1, 28785, Note_on_c, 11, 39, 0
1, 28788, Note_on_c, 8, 82, 0
1, 28790, Note_on_c, 1, 32, 0
1, 28790, Note_on_c, 11, 32, 0
1, 28792, Note_on_c, 8, 70, 0
1, 28795, Note_on_c, 8, 83, 78
1, 28796, Note_on_c, 8, 71, 79
1, 28798, Note_on_c, 2, 59, 83
1, 28798, Note_on_c, 2, 63, 87
1, 28798, Note_on_c, 2, 56, 61
1, 28798, Note_on_c, 3, 73, 103
1, 28799, Note_on_c, 4, 73, 0
1, 28799, Note_on_c, 4, 77, 0
1, 28799, Note_on_c, 9, 36, 115
1, 28800, Note_on_c, 9, 36, 0
1, 28800, Note_on_c, 10, 65, 0
1, 28800, Note_on_c, 4, 73, 69
1, 28800, Note_on_c, 4, 77, 69
1, 28800, Note_on_c, 10, 53, 56
1, 28800, Note_on_c, 10, 63, 58
1, 28800, Note_on_c, 10, 59, 60
1, 28801, Note_on_c, 1, 37, 88
1, 28801, Note_on_c, 9, 51, 81
1, 28801, Note_on_c, 11, 37, 84
1, 28802, Note_on_c, 9, 51, 0
1, 28824, Note_on_c, 9, 44, 46
1, 28825, Note_on_c, 9, 44, 0
1, 28846, Note_on_c, 2, 63, 0
1, 28846, Note_on_c, 2, 59, 0
1, 28846, Note_on_c, 2, 56, 0
1, 28846, Note_on_c, 9, 69, 39
1, 28847, Note_on_c, 9, 69, 0
1, 28847, Note_on_c, 9, 51, 57
1, 28848, Note_on_c, 9, 51, 0
1, 28848, Note_on_c, 1, 37, 0
1, 28848, Note_on_c, 4, 77, 0
1, 28848, Note_on_c, 11, 37, 0
1, 28848, Note_on_c, 4, 73, 0
1, 28848, Note_on_c, 2, 56, 43
1, 28848, Note_on_c, 2, 59, 83
1, 28848, Note_on_c, 2, 63, 74
1, 28848, Note_on_c, 3, 68, 82
1, 28848, Note_on_c, 4, 75, 69
1, 28848, Note_on_c, 4, 68, 69
1, 28849, Note_on_c, 3, 73, 0
1, 28858, Note_on_c, 2, 59, 0
1, 28860, Note_on_c, 2, 56, 0
1, 28861, Note_on_c, 2, 63, 0
1, 28869, Note_on_c, 6, 70, 60
1, 28870, Note_on_c, 6, 59, 62
1, 28870, Note_on_c, 7, 70, 58
1, 28871, Note_on_c, 9, 51, 46
1, 28871, Note_on_c, 9, 62, 71
1, 28871, Note_on_c, 9, 69, 33
1, 28872, Note_on_c, 9, 69, 0
1, 28872, Note_on_c, 9, 62, 0
1, 28872, Note_on_c, 4, 75, 0
1, 28872, Note_on_c, 9, 51, 0
1, 28872, Note_on_c, 4, 68, 0
1, 28872, Note_on_c, 2, 56, 63
1, 28872, Note_on_c, 2, 63, 68
1, 28872, Note_on_c, 4, 73, 69
1, 28872, Note_on_c, 4, 70, 69
1, 28875, Note_on_c, 3, 70, 84
1, 28878, Note_on_c, 3, 68, 0
1, 28890, Note_on_c, 6, 59, 0
1, 28890, Note_on_c, 7, 70, 0
1, 28891, Note_on_c, 6, 70, 0
1, 28894, Note_on_c, 6, 59, 58
1, 28895, Note_on_c, 6, 70, 61
1, 28895, Note_on_c, 9, 75, 76
1, 28896, Note_on_c, 9, 75, 0
1, 28896, Note_on_c, 9, 40, 107
1, 28896, Note_on_c, 9, 51, 91
1, 28897, Note_on_c, 9, 51, 0
1, 28897, Note_on_c, 9, 40, 0
1, 28897, Note_on_c, 9, 62, 74
1, 28898, Note_on_c, 9, 62, 0
1, 28898, Note_on_c, 6, 65, 51
1, 28898, Note_on_c, 7, 70, 82
1, 28906, Note_on_c, 2, 56, 0
1, 28908, Note_on_c, 2, 63, 0
1, 28909, Note_on_c, 6, 59, 0
1, 28915, Note_on_c, 6, 70, 0
1, 28917, Note_on_c, 6, 65, 0
1, 28918, Note_on_c, 7, 70, 0
1, 28918, Note_on_c, 2, 63, 72
1, 28918, Note_on_c, 2, 59, 74
1, 28919, Note_on_c, 4, 73, 0
1, 28919, Note_on_c, 9, 44, 42
1, 28920, Note_on_c, 9, 44, 0
1, 28920, Note_on_c, 4, 70, 0
1, 28920, Note_on_c, 2, 56, 58
1, 28920, Note_on_c, 4, 77, 70
1, 28920, Note_on_c, 4, 73, 70
1, 28922, Note_on_c, 3, 73, 97
1, 28922, Note_on_c, 6, 59, 62
1, 28922, Note_on_c, 6, 70, 70
1, 28922, Note_on_c, 7, 70, 73
1, 28923, Note_on_c, 3, 70, 0
1, 28925, Note_on_c, 2, 59, 0
1, 28925, Note_on_c, 6, 65, 50
1, 28926, Note_on_c, 2, 56, 0
1, 28926, Note_on_c, 2, 63, 0
1, 28933, Note_on_c, 6, 59, 0
1, 28938, Note_on_c, 6, 65, 0
1, 28938, Note_on_c, 7, 70, 0
1, 28939, Note_on_c, 6, 70, 0
1, 28941, Note_on_c, 2, 56, 58
1, 28942, Note_on_c, 2, 63, 87
1, 28942, Note_on_c, 2, 59, 58
1, 28943, Note_on_c, 9, 69, 37
1, 28944, Note_on_c, 9, 69, 0
1, 28944, Note_on_c, 9, 51, 49
1, 28945, Note_on_c, 9, 51, 0
1, 28950, Note_on_c, 2, 59, 0
1, 28959, Note_on_c, 2, 63, 0
1, 28965, Note_on_c, 2, 56, 0
1, 28966, Note_on_c, 2, 59, 66
1, 28966, Note_on_c, 2, 63, 87
1, 28967, Note_on_c, 1, 37, 72
1, 28967, Note_on_c, 9, 69, 27
1, 28967, Note_on_c, 9, 62, 80
1, 28967, Note_on_c, 9, 51, 38
1, 28967, Note_on_c, 11, 37, 68
1, 28968, Note_on_c, 9, 51, 0
1, 28968, Note_on_c, 9, 62, 0
1, 28968, Note_on_c, 9, 69, 0
1, 28969, Note_on_c, 9, 36, 93
1, 28970, Note_on_c, 9, 36, 0
1, 28974, Note_on_c, 2, 63, 0
1, 28974, Note_on_c, 2, 59, 0
1, 28990, Note_on_c, 11, 37, 0
1, 28990, Note_on_c, 1, 37, 0
1, 28990, Note_on_c, 2, 63, 76
1, 28990, Note_on_c, 2, 56, 53
1, 28990, Note_on_c, 2, 59, 77
1, 28991, Note_on_c, 1, 43, 78
1, 28991, Note_on_c, 9, 62, 55
1, 28991, Note_on_c, 9, 36, 65
1, 28991, Note_on_c, 11, 43, 74
1, 28992, Note_on_c, 9, 36, 0
1, 28992, Note_on_c, 9, 62, 0
1, 28993, Note_on_c, 9, 51, 86
1, 28994, Note_on_c, 9, 51, 0
1, 29012, Note_on_c, 11, 43, 0
1, 29012, Note_on_c, 1, 43, 0
1, 29014, Note_on_c, 1, 38, 78
1, 29014, Note_on_c, 11, 38, 74
1, 29017, Note_on_c, 9, 44, 47
1, 29018, Note_on_c, 9, 44, 0
1, 29036, Note_on_c, 2, 56, 0
1, 29036, Note_on_c, 2, 63, 0
1, 29036, Note_on_c, 2, 59, 0
1, 29038, Note_on_c, 1, 38, 0
1, 29038, Note_on_c, 11, 38, 0
1, 29038, Note_on_c, 2, 63, 111
1, 29039, Note_on_c, 1, 43, 69
1, 29039, Note_on_c, 9, 69, 43
1, 29039, Note_on_c, 9, 62, 76
1, 29039, Note_on_c, 11, 43, 65
1, 29040, Note_on_c, 9, 62, 0
1, 29040, Note_on_c, 9, 69, 0
1, 29040, Note_on_c, 2, 56, 73
1, 29040, Note_on_c, 2, 59, 98
1, 29041, Note_on_c, 9, 36, 110
1, 29041, Note_on_c, 9, 51, 48
1, 29042, Note_on_c, 9, 51, 0
1, 29042, Note_on_c, 9, 36, 0
1, 29050, Note_on_c, 2, 59, 0
1, 29050, Note_on_c, 2, 56, 0
1, 29050, Note_on_c, 2, 63, 0
1, 29051, Note_on_c, 3, 73, 0
1, 29062, Note_on_c, 2, 63, 63
1, 29062, Note_on_c, 2, 56, 61
1, 29062, Note_on_c, 2, 59, 74
1, 29063, Note_on_c, 9, 69, 31
1, 29063, Note_on_c, 9, 51, 41
1, 29064, Note_on_c, 9, 51, 0
1, 29064, Note_on_c, 9, 69, 0
1, 29087, Note_on_c, 9, 75, 73
1, 29088, Note_on_c, 9, 75, 0
1, 29088, Note_on_c, 9, 40, 105
1, 29089, Note_on_c, 9, 40, 0
1, 29089, Note_on_c, 9, 62, 84
1, 29089, Note_on_c, 9, 51, 81
1, 29090, Note_on_c, 9, 51, 0
1, 29090, Note_on_c, 9, 62, 0
1, 29097, Note_on_c, 2, 56, 0
1, 29098, Note_on_c, 2, 63, 0
1, 29100, Note_on_c, 2, 59, 0
1, 29110, Note_on_c, 2, 56, 61
1, 29110, Note_on_c, 2, 63, 70
1, 29110, Note_on_c, 2, 59, 81
1, 29110, Note_on_c, 6, 65, 59
1, 29110, Note_on_c, 6, 70, 59
1, 29111, Note_on_c, 1, 38, 75
1, 29111, Note_on_c, 9, 44, 43
1, 29111, Note_on_c, 11, 38, 71
1, 29112, Note_on_c, 9, 44, 0
1, 29113, Note_on_c, 6, 59, 59
1, 29113, Note_on_c, 7, 59, 74
1, 29113, Note_on_c, 7, 70, 75
1, 29116, Note_on_c, 1, 43, 0
1, 29116, Note_on_c, 11, 43, 0
1, 29117, Note_on_c, 2, 56, 0
1, 29118, Note_on_c, 2, 59, 0
1, 29120, Note_on_c, 2, 63, 0
1, 29124, Note_on_c, 7, 70, 0
1, 29125, Note_on_c, 7, 59, 0
1, 29126, Note_on_c, 6, 65, 0
1, 29127, Note_on_c, 6, 59, 0
1, 29131, Note_on_c, 6, 70, 0
1, 29134, Note_on_c, 2, 59, 64
1, 29134, Note_on_c, 2, 63, 104
1, 29134, Note_on_c, 2, 56, 49
1, 29135, Note_on_c, 1, 43, 75
1, 29135, Note_on_c, 9, 51, 42
1, 29135, Note_on_c, 9, 69, 32
1, 29135, Note_on_c, 11, 43, 71
1, 29136, Note_on_c, 9, 69, 0
1, 29136, Note_on_c, 9, 51, 0
1, 29138, Note_on_c, 1, 38, 0
1, 29138, Note_on_c, 11, 38, 0
1, 29144, Note_on_c, 2, 59, 0
1, 29154, Note_on_c, 2, 63, 0
1, 29158, Note_on_c, 2, 56, 0
1, 29158, Note_on_c, 2, 63, 85
1, 29159, Note_on_c, 1, 37, 75
1, 29159, Note_on_c, 9, 51, 42
1, 29159, Note_on_c, 9, 69, 35
1, 29159, Note_on_c, 11, 37, 71
1, 29160, Note_on_c, 9, 69, 0
1, 29160, Note_on_c, 9, 51, 0
1, 29160, Note_on_c, 2, 59, 76
1, 29162, Note_on_c, 11, 43, 0
1, 29162, Note_on_c, 1, 43, 0
1, 29166, Note_on_c, 2, 63, 0
1, 29168, Note_on_c, 8, 71, 0
1, 29168, Note_on_c, 2, 59, 0
1, 29170, Note_on_c, 8, 83, 0
1, 29178, Note_on_c, 8, 73, 77
1, 29178, Note_on_c, 8, 85, 77
1, 29182, Note_on_c, 2, 58, 90
1, 29182, Note_on_c, 2, 65, 63
1, 29182, Note_on_c, 2, 61, 90
1, 29182, Note_on_c, 3, 80, 96
1, 29183, Note_on_c, 1, 42, 72
1, 29183, Note_on_c, 9, 36, 115
1, 29183, Note_on_c, 9, 51, 83
1, 29183, Note_on_c, 11, 42, 68
1, 29184, Note_on_c, 9, 51, 0
1, 29184, Note_on_c, 9, 36, 0
1, 29184, Note_on_c, 10, 63, 0
1, 29184, Note_on_c, 4, 73, 0
1, 29184, Note_on_c, 4, 77, 0
1, 29184, Note_on_c, 10, 59, 0
1, 29184, Note_on_c, 4, 80, 75
1, 29184, Note_on_c, 10, 61, 62
1, 29184, Note_on_c, 10, 58, 62
1, 29188, Note_on_c, 1, 37, 0
1, 29188, Note_on_c, 11, 37, 0
1, 29208, Note_on_c, 9, 44, 41
1, 29209, Note_on_c, 9, 44, 0
1, 29230, Note_on_c, 2, 61, 0
1, 29230, Note_on_c, 2, 58, 0
1, 29230, Note_on_c, 2, 65, 0
1, 29230, Note_on_c, 9, 69, 50
1, 29231, Note_on_c, 9, 69, 0
1, 29231, Note_on_c, 9, 51, 49
1, 29232, Note_on_c, 9, 51, 0
1, 29232, Note_on_c, 2, 58, 100
1, 29232, Note_on_c, 2, 61, 104
1, 29232, Note_on_c, 2, 65, 77
1, 29241, Note_on_c, 2, 61, 0
1, 29241, Note_on_c, 2, 58, 0
1, 29242, Note_on_c, 2, 65, 0
1, 29243, Note_on_c, 1, 42, 0
1, 29243, Note_on_c, 11, 42, 0
1, 29251, Note_on_c, 3, 76, 78
1, 29254, Note_on_c, 3, 80, 0
1, 29254, Note_on_c, 2, 61, 68
1, 29254, Note_on_c, 2, 65, 61
1, 29254, Note_on_c, 2, 58, 60
1, 29254, Note_on_c, 3, 77, 100
1, 29255, Note_on_c, 9, 69, 28
1, 29255, Note_on_c, 9, 51, 47
1, 29256, Note_on_c, 9, 51, 0
1, 29256, Note_on_c, 9, 69, 0
1, 29256, Note_on_c, 4, 80, 0
1, 29256, Note_on_c, 4, 77, 65
1, 29257, Note_on_c, 9, 62, 69
1, 29258, Note_on_c, 9, 62, 0
1, 29259, Note_on_c, 3, 76, 0
1, 29279, Note_on_c, 9, 51, 86
1, 29279, Note_on_c, 9, 40, 101
1, 29280, Note_on_c, 9, 40, 0
1, 29280, Note_on_c, 9, 51, 0
1, 29281, Note_on_c, 9, 75, 79
1, 29282, Note_on_c, 9, 75, 0
1, 29282, Note_on_c, 9, 62, 66
1, 29283, Note_on_c, 9, 62, 0
1, 29288, Note_on_c, 2, 61, 0
1, 29290, Note_on_c, 2, 65, 0
1, 29290, Note_on_c, 2, 58, 0
1, 29302, Note_on_c, 2, 61, 71
1, 29302, Note_on_c, 2, 58, 62
1, 29302, Note_on_c, 2, 65, 70
1, 29303, Note_on_c, 9, 44, 43
1, 29304, Note_on_c, 9, 44, 0
1, 29304, Note_on_c, 4, 77, 0
1, 29304, Note_on_c, 3, 73, 99
1, 29304, Note_on_c, 4, 73, 88
1, 29305, Note_on_c, 7, 58, 73
1, 29306, Note_on_c, 3, 77, 0
1, 29309, Note_on_c, 2, 61, 0
1, 29310, Note_on_c, 2, 58, 0
1, 29311, Note_on_c, 2, 65, 0
1, 29319, Note_on_c, 7, 58, 0
1, 29326, Note_on_c, 2, 65, 93
1, 29326, Note_on_c, 9, 69, 45
1, 29327, Note_on_c, 9, 69, 0
1, 29328, Note_on_c, 2, 61, 31
1, 29328, Note_on_c, 9, 51, 42
1, 29329, Note_on_c, 9, 51, 0
1, 29329, Note_on_c, 2, 58, 48
1, 29337, Note_on_c, 2, 61, 0
1, 29342, Note_on_c, 2, 58, 0
1, 29346, Note_on_c, 2, 65, 0
1, 29350, Note_on_c, 2, 65, 77
1, 29350, Note_on_c, 9, 69, 23
1, 29351, Note_on_c, 9, 69, 0
1, 29351, Note_on_c, 1, 37, 79
1, 29351, Note_on_c, 9, 62, 62
1, 29351, Note_on_c, 9, 36, 105
1, 29351, Note_on_c, 11, 37, 75
1, 29352, Note_on_c, 9, 36, 0
1, 29352, Note_on_c, 9, 62, 0
1, 29352, Note_on_c, 2, 61, 67
1, 29352, Note_on_c, 9, 51, 27
1, 29353, Note_on_c, 9, 51, 0
1, 29358, Note_on_c, 2, 65, 0
1, 29360, Note_on_c, 2, 61, 0
1, 29374, Note_on_c, 1, 37, 0
1, 29374, Note_on_c, 11, 37, 0
1, 29374, Note_on_c, 1, 42, 80
1, 29374, Note_on_c, 2, 61, 77
1, 29374, Note_on_c, 2, 65, 63
1, 29374, Note_on_c, 2, 58, 79
1, 29374, Note_on_c, 11, 42, 76
1, 29375, Note_on_c, 9, 36, 72
1, 29375, Note_on_c, 9, 51, 87
1, 29376, Note_on_c, 9, 51, 0
1, 29376, Note_on_c, 9, 36, 0
1, 29377, Note_on_c, 9, 62, 62
1, 29378, Note_on_c, 9, 62, 0
1, 29398, Note_on_c, 11, 42, 0
1, 29398, Note_on_c, 1, 42, 0
1, 29399, Note_on_c, 1, 34, 69
1, 29399, Note_on_c, 11, 34, 65
1, 29401, Note_on_c, 9, 44, 45
1, 29402, Note_on_c, 9, 44, 0
1, 29418, Note_on_c, 5, 61, 108
1, 29420, Note_on_c, 5, 63, 106
1, 29421, Note_on_c, 2, 58, 0
1, 29421, Note_on_c, 2, 61, 0
1, 29421, Note_on_c, 2, 65, 0
1, 29422, Note_on_c, 1, 34, 0
1, 29422, Note_on_c, 11, 34, 0
1, 29422, Note_on_c, 1, 42, 74
1, 29422, Note_on_c, 2, 65, 81
1, 29422, Note_on_c, 2, 61, 104
1, 29422, Note_on_c, 2, 58, 95
1, 29422, Note_on_c, 9, 69, 37
1, 29422, Note_on_c, 11, 42, 70
1, 29423, Note_on_c, 9, 69, 0
1, 29423, Note_on_c, 9, 51, 51
1, 29424, Note_on_c, 9, 51, 0
1, 29424, Note_on_c, 9, 36, 107
1, 29425, Note_on_c, 9, 36, 0
1, 29427, Note_on_c, 5, 61, 0
1, 29433, Note_on_c, 2, 58, 0
1, 29433, Note_on_c, 2, 61, 0
1, 29435, Note_on_c, 2, 65, 0
1, 29442, Note_on_c, 13, 61, 102
1, 29444, Note_on_c, 13, 63, 100
1, 29446, Note_on_c, 2, 58, 65
1, 29446, Note_on_c, 2, 65, 69
1, 29446, Note_on_c, 2, 61, 68
1, 29446, Note_on_c, 9, 69, 34
1, 29446, Note_on_c, 9, 62, 69
1, 29447, Note_on_c, 9, 62, 0
1, 29447, Note_on_c, 9, 69, 0
1, 29448, Note_on_c, 9, 51, 74
1, 29449, Note_on_c, 9, 51, 0
1, 29449, Control_c, 5, 1, 1
1, 29450, Control_c, 5, 1, 4
1, 29451, Note_on_c, 13, 61, 0
1, 29451, Control_c, 5, 1, 6
1, 29452, Control_c, 5, 1, 8
1, 29453, Control_c, 5, 1, 10
1, 29454, Control_c, 5, 1, 13
1, 29455, Control_c, 5, 1, 15
1, 29456, Control_c, 5, 1, 16
1, 29457, Control_c, 5, 1, 18
1, 29458, Control_c, 5, 1, 20
1, 29459, Note_on_c, 3, 73, 0
1, 29459, Control_c, 5, 1, 21
1, 29460, Control_c, 5, 1, 22
1, 29462, Control_c, 5, 1, 24
1, 29464, Control_c, 5, 1, 25
1, 29466, Control_c, 5, 1, 26
1, 29467, Control_c, 5, 1, 27
1, 29469, Control_c, 5, 1, 28
1, 29471, Note_on_c, 9, 75, 82
1, 29471, Note_on_c, 9, 62, 55
1, 29471, Note_on_c, 9, 51, 93
1, 29471, Note_on_c, 9, 40, 105
1, 29472, Note_on_c, 9, 40, 0
1, 29472, Note_on_c, 9, 51, 0
1, 29472, Note_on_c, 9, 62, 0
1, 29472, Note_on_c, 9, 75, 0
1, 29473, Control_c, 13, 1, 1
1, 29474, Control_c, 13, 1, 4
1, 29475, Control_c, 5, 1, 27
1, 29475, Control_c, 13, 1, 6
1, 29476, Control_c, 5, 1, 25
1, 29476, Control_c, 13, 1, 8
1, 29477, Control_c, 5, 1, 24
1, 29477, Control_c, 13, 1, 10
1, 29478, Control_c, 5, 1, 21
1, 29478, Control_c, 13, 1, 13
1, 29479, Control_c, 5, 1, 19
1, 29479, Control_c, 13, 1, 15
1, 29480, Control_c, 5, 1, 17
1, 29480, Control_c, 13, 1, 16
1, 29481, Control_c, 5, 1, 15
1, 29481, Control_c, 13, 1, 18
1, 29482, Note_on_c, 2, 61, 0
1, 29482, Note_on_c, 2, 65, 0
1, 29482, Note_on_c, 2, 58, 0
1, 29482, Control_c, 5, 1, 12
1, 29482, Control_c, 13, 1, 20
1, 29483, Control_c, 5, 1, 9
1, 29483, Control_c, 13, 1, 21
1, 29484, Control_c, 5, 1, 7
1, 29484, Control_c, 13, 1, 22
1, 29485, Control_c, 5, 1, 4
1, 29486, Control_c, 5, 1, 0
1, 29486, Control_c, 13, 1, 24
1, 29487, Note_on_c, 11, 42, 0
1, 29487, Note_on_c, 1, 42, 0
1, 29488, Control_c, 13, 1, 25
1, 29490, Control_c, 13, 1, 26
1, 29491, Control_c, 13, 1, 27
1, 29493, Control_c, 13, 1, 28
1, 29494, Note_on_c, 1, 37, 70
1, 29494, Note_on_c, 2, 65, 72
1, 29494, Note_on_c, 2, 58, 64
1, 29494, Note_on_c, 2, 61, 72
1, 29494, Note_on_c, 6, 58, 64
1, 29494, Note_on_c, 9, 62, 52
1, 29494, Note_on_c, 11, 37, 66
1, 29495, Note_on_c, 9, 62, 0
1, 29495, Note_on_c, 6, 65, 59
1, 29495, Note_on_c, 6, 68, 61
1, 29495, Note_on_c, 9, 44, 50
1, 29496, Note_on_c, 9, 44, 0
1, 29497, Note_on_c, 7, 68, 74
1, 29499, Control_c, 13, 1, 27
1, 29500, Control_c, 13, 1, 25
1, 29501, Control_c, 13, 1, 24
1, 29502, Control_c, 13, 1, 21
1, 29503, Note_on_c, 2, 58, 0
1, 29503, Control_c, 13, 1, 19
1, 29504, Note_on_c, 2, 61, 0
1, 29504, Control_c, 13, 1, 17
1, 29505, Note_on_c, 2, 65, 0
1, 29505, Control_c, 13, 1, 15
1, 29506, Note_on_c, 6, 68, 0
1, 29506, Control_c, 13, 1, 12
1, 29507, Control_c, 13, 1, 9
1, 29508, Control_c, 13, 1, 7
1, 29509, Control_c, 13, 1, 4
1, 29510, Note_on_c, 6, 58, 0
1, 29510, Control_c, 13, 1, 0
1, 29512, Note_on_c, 7, 68, 0
1, 29512, Note_on_c, 6, 65, 0
1, 29517, Note_on_c, 9, 69, 45
1, 29518, Note_on_c, 9, 69, 0
1, 29518, Note_on_c, 2, 65, 90
1, 29518, Note_on_c, 2, 61, 58
1, 29518, Note_on_c, 9, 62, 69
1, 29519, Note_on_c, 9, 62, 0
1, 29519, Note_on_c, 1, 42, 73
1, 29519, Note_on_c, 9, 51, 49
1, 29519, Note_on_c, 11, 42, 69
1, 29520, Note_on_c, 9, 51, 0
1, 29522, Note_on_c, 5, 61, 104
1, 29525, Note_on_c, 5, 63, 0
1, 29526, Note_on_c, 1, 37, 0
1, 29526, Note_on_c, 11, 37, 0
1, 29528, Note_on_c, 2, 61, 0
1, 29536, Note_on_c, 2, 65, 0
1, 29542, Note_on_c, 2, 61, 61
1, 29542, Note_on_c, 2, 65, 77
1, 29542, Note_on_c, 9, 69, 36
1, 29543, Note_on_c, 9, 69, 0
1, 29543, Note_on_c, 1, 35, 81
1, 29543, Note_on_c, 9, 51, 57
1, 29543, Note_on_c, 11, 35, 77
1, 29544, Note_on_c, 9, 51, 0
1, 29546, Note_on_c, 11, 42, 0
1, 29546, Note_on_c, 1, 42, 0
1, 29546, Note_on_c, 13, 61, 98
1, 29549, Note_on_c, 13, 63, 0
1, 29550, Note_on_c, 2, 61, 0
1, 29550, Note_on_c, 2, 65, 0
1, 29562, Note_on_c, 8, 73, 0
1, 29564, Note_on_c, 8, 85, 0
1, 29564, Note_on_c, 8, 87, 78
1, 29566, Note_on_c, 2, 56, 59
1, 29566, Note_on_c, 2, 60, 75
1, 29566, Note_on_c, 2, 63, 87
1, 29566, Note_on_c, 5, 64, 112
1, 29566, Note_on_c, 8, 75, 71
1, 29567, Note_on_c, 1, 41, 75
1, 29567, Note_on_c, 9, 36, 114
1, 29567, Note_on_c, 9, 51, 76
1, 29567, Note_on_c, 11, 41, 71
1, 29568, Note_on_c, 9, 51, 0
1, 29568, Note_on_c, 9, 36, 0
1, 29568, Note_on_c, 10, 61, 0
1, 29568, Note_on_c, 10, 58, 0
1, 29568, Note_on_c, 4, 73, 0
1, 29568, Note_on_c, 10, 68, 0
1, 29568, Note_on_c, 10, 60, 58
1, 29568, Note_on_c, 10, 63, 61
1, 29570, Note_on_c, 5, 61, 0
1, 29571, Note_on_c, 1, 35, 0
1, 29571, Note_on_c, 11, 35, 0
1, 29590, Note_on_c, 5, 63, 98
1, 29590, Note_on_c, 13, 64, 106
1, 29591, Note_on_c, 5, 64, 0
1, 29591, Note_on_c, 9, 44, 46
1, 29592, Note_on_c, 9, 44, 0
1, 29594, Note_on_c, 13, 61, 0
1, 29610, Note_on_c, 2, 63, 0
1, 29610, Note_on_c, 2, 60, 0
1, 29610, Note_on_c, 2, 56, 0
1, 29614, Note_on_c, 2, 60, 98
1, 29614, Note_on_c, 2, 56, 65
1, 29614, Note_on_c, 2, 63, 112
1, 29614, Note_on_c, 9, 69, 41
1, 29614, Note_on_c, 13, 63, 92
1, 29615, Note_on_c, 9, 69, 0
1, 29615, Note_on_c, 5, 63, 0
1, 29615, Note_on_c, 13, 64, 0
1, 29615, Note_on_c, 9, 51, 42
1, 29616, Note_on_c, 9, 51, 0
1, 29621, Note_on_c, 11, 41, 0
1, 29621, Note_on_c, 1, 41, 0
1, 29623, Note_on_c, 2, 60, 0
1, 29624, Note_on_c, 2, 63, 0
1, 29626, Note_on_c, 2, 56, 0
1, 29638, Note_on_c, 9, 69, 30
1, 29639, Note_on_c, 9, 69, 0
1, 29639, Note_on_c, 13, 63, 0
1, 29639, Note_on_c, 5, 63, 113
1, 29639, Note_on_c, 9, 62, 71
1, 29639, Note_on_c, 9, 51, 43
1, 29640, Note_on_c, 9, 51, 0
1, 29640, Note_on_c, 9, 62, 0
1, 29640, Note_on_c, 2, 56, 58
1, 29640, Note_on_c, 2, 60, 69
1, 29640, Note_on_c, 2, 63, 63
1, 29658, Note_on_c, 6, 68, 69
1, 29659, Control_c, 5, 1, 2
1, 29659, Note_on_c, 6, 60, 67
1, 29660, Control_c, 5, 1, 4
1, 29661, Control_c, 5, 1, 7
1, 29662, Control_c, 5, 1, 12
1, 29662, Note_on_c, 7, 68, 84
1, 29663, Control_c, 5, 1, 14
1, 29663, Note_on_c, 9, 75, 79
1, 29663, Note_on_c, 13, 63, 107
1, 29664, Note_on_c, 9, 75, 0
1, 29664, Control_c, 5, 1, 16
1, 29664, Note_on_c, 9, 51, 83
1, 29664, Note_on_c, 9, 40, 101
1, 29665, Note_on_c, 9, 40, 0
1, 29665, Note_on_c, 9, 51, 0
1, 29665, Control_c, 5, 1, 18
1, 29665, Note_on_c, 9, 62, 74
1, 29666, Note_on_c, 9, 62, 0
1, 29666, Control_c, 5, 1, 22
1, 29667, Control_c, 5, 1, 24
1, 29668, Control_c, 5, 1, 26
1, 29669, Control_c, 5, 1, 27
1, 29670, Control_c, 5, 1, 29
1, 29671, Control_c, 5, 1, 31
1, 29672, Control_c, 5, 1, 32
1, 29673, Control_c, 5, 1, 33
1, 29674, Note_on_c, 2, 56, 0
1, 29674, Note_on_c, 2, 60, 0
1, 29675, Control_c, 5, 1, 34
1, 29676, Note_on_c, 2, 63, 0
1, 29681, Control_c, 5, 1, 33
1, 29683, Control_c, 5, 1, 32
1, 29683, Control_c, 13, 1, 2
1, 29684, Control_c, 13, 1, 4
1, 29685, Control_c, 13, 1, 7
1, 29686, Note_on_c, 2, 60, 73
1, 29686, Note_on_c, 2, 56, 63
1, 29686, Note_on_c, 2, 63, 66
1, 29686, Control_c, 13, 1, 12
1, 29687, Note_on_c, 1, 41, 80
1, 29687, Note_on_c, 9, 44, 43
1, 29687, Note_on_c, 11, 41, 76
1, 29687, Control_c, 13, 1, 14
1, 29688, Note_on_c, 9, 44, 0
1, 29688, Control_c, 13, 1, 16
1, 29689, Control_c, 13, 1, 18
1, 29690, Control_c, 13, 1, 22
1, 29691, Control_c, 13, 1, 24
1, 29692, Control_c, 13, 1, 26
1, 29693, Note_on_c, 2, 56, 0
1, 29693, Note_on_c, 2, 60, 0
1, 29693, Control_c, 13, 1, 27
1, 29694, Control_c, 13, 1, 29
1, 29695, Note_on_c, 2, 63, 0
1, 29695, Control_c, 13, 1, 31
1, 29696, Control_c, 13, 1, 32
1, 29697, Control_c, 13, 1, 33
1, 29699, Control_c, 13, 1, 34
1, 29700, Control_c, 5, 1, 31
1, 29701, Control_c, 5, 1, 30
1, 29702, Control_c, 5, 1, 29
1, 29703, Control_c, 5, 1, 28
1, 29704, Control_c, 5, 1, 27
1, 29705, Control_c, 5, 1, 25
1, 29705, Control_c, 13, 1, 33
1, 29706, Note_on_c, 11, 41, 0
1, 29706, Note_on_c, 1, 41, 0
1, 29706, Control_c, 5, 1, 23
1, 29707, Control_c, 5, 1, 21
1, 29707, Control_c, 13, 1, 32
1, 29708, Control_c, 5, 1, 20
1, 29709, Control_c, 5, 1, 18
1, 29709, Note_on_c, 9, 69, 45
1, 29710, Note_on_c, 9, 69, 0
1, 29710, Note_on_c, 1, 48, 78
1, 29710, Note_on_c, 2, 60, 61
1, 29710, Note_on_c, 2, 63, 79
1, 29710, Note_on_c, 2, 56, 58
1, 29710, Control_c, 5, 1, 15
1, 29710, Note_on_c, 11, 48, 74
1, 29711, Control_c, 5, 1, 13
1, 29712, Control_c, 5, 1, 11
1, 29712, Note_on_c, 9, 51, 51
1, 29713, Note_on_c, 9, 51, 0
1, 29713, Control_c, 5, 1, 9
1, 29714, Control_c, 5, 1, 4
1, 29715, Control_c, 5, 1, 3
1, 29716, Control_c, 5, 1, 1
1, 29717, Control_c, 5, 1, 0
1, 29722, Note_on_c, 2, 60, 0
1, 29724, Control_c, 13, 1, 31
1, 29725, Control_c, 13, 1, 30
1, 29726, Control_c, 13, 1, 29
1, 29727, Control_c, 13, 1, 28
1, 29728, Note_on_c, 2, 63, 0
1, 29728, Control_c, 13, 1, 27
1, 29729, Control_c, 13, 1, 25
1, 29730, Control_c, 13, 1, 23
1, 29731, Control_c, 13, 1, 21
1, 29732, Control_c, 13, 1, 20
1, 29733, Note_on_c, 2, 63, 83
1, 29733, Control_c, 13, 1, 18
1, 29734, Note_on_c, 2, 56, 0
1, 29734, Note_on_c, 2, 60, 62
1, 29734, Note_on_c, 9, 69, 30
1, 29734, Control_c, 13, 1, 15
1, 29735, Note_on_c, 9, 69, 0
1, 29735, Note_on_c, 1, 47, 79
1, 29735, Note_on_c, 9, 62, 80
1, 29735, Note_on_c, 9, 51, 49
1, 29735, Note_on_c, 11, 47, 75
1, 29735, Control_c, 13, 1, 13
1, 29736, Note_on_c, 9, 51, 0
1, 29736, Note_on_c, 9, 62, 0
1, 29736, Control_c, 13, 1, 11
1, 29737, Note_on_c, 9, 36, 113
1, 29737, Control_c, 13, 1, 9
1, 29738, Note_on_c, 9, 36, 0
1, 29738, Control_c, 13, 1, 4
1, 29739, Control_c, 13, 1, 3
1, 29740, Control_c, 13, 1, 1
1, 29741, Note_on_c, 2, 63, 0
1, 29741, Control_c, 13, 1, 0
1, 29742, Note_on_c, 11, 48, 0
1, 29742, Note_on_c, 2, 60, 0
1, 29742, Note_on_c, 1, 48, 0
1, 29757, Note_on_c, 2, 56, 58
1, 29757, Note_on_c, 2, 63, 75
1, 29758, Note_on_c, 2, 58, 83
1, 29759, Note_on_c, 9, 62, 55
1, 29759, Note_on_c, 9, 36, 61
1, 29760, Note_on_c, 9, 36, 0
1, 29760, Note_on_c, 9, 62, 0
1, 29760, Note_on_c, 1, 46, 72
1, 29760, Note_on_c, 11, 46, 68
1, 29761, Note_on_c, 9, 51, 78
1, 29762, Note_on_c, 9, 51, 0
1, 29762, Note_on_c, 11, 47, 0
1, 29762, Note_on_c, 1, 47, 0
1, 29783, Note_on_c, 9, 44, 47
1, 29784, Note_on_c, 9, 44, 0
1, 29798, Note_on_c, 2, 58, 0
1, 29798, Note_on_c, 2, 63, 0
1, 29798, Note_on_c, 2, 56, 0
1, 29798, Note_on_c, 5, 63, 0
1, 29806, Note_on_c, 2, 58, 111
1, 29806, Note_on_c, 2, 63, 98
1, 29806, Note_on_c, 2, 56, 63
1, 29807, Note_on_c, 9, 62, 76
1, 29807, Note_on_c, 9, 69, 41
1, 29807, Note_on_c, 9, 51, 62
1, 29808, Note_on_c, 9, 51, 0
1, 29808, Note_on_c, 9, 69, 0
1, 29808, Note_on_c, 9, 62, 0
1, 29808, Note_on_c, 9, 36, 114
1, 29809, Note_on_c, 9, 36, 0
1, 29814, Note_on_c, 2, 58, 0
1, 29817, Note_on_c, 2, 63, 0
1, 29821, Note_on_c, 2, 56, 0
1, 29822, Note_on_c, 13, 63, 0
1, 29830, Note_on_c, 2, 58, 72
1, 29830, Note_on_c, 2, 63, 81
1, 29830, Note_on_c, 2, 56, 62
1, 29831, Note_on_c, 9, 69, 30
1, 29831, Note_on_c, 9, 51, 42
1, 29832, Note_on_c, 9, 51, 0
1, 29832, Note_on_c, 9, 69, 0
1, 29855, Note_on_c, 9, 40, 107
1, 29855, Note_on_c, 9, 51, 81
1, 29855, Note_on_c, 9, 75, 83
1, 29856, Note_on_c, 9, 75, 0
1, 29856, Note_on_c, 9, 51, 0
1, 29856, Note_on_c, 9, 40, 0
1, 29857, Note_on_c, 9, 62, 84
1, 29858, Note_on_c, 9, 62, 0
1, 29865, Note_on_c, 2, 56, 0
1, 29866, Note_on_c, 2, 63, 0
1, 29869, Note_on_c, 2, 58, 0
1, 29875, Note_on_c, 1, 46, 0
1, 29875, Note_on_c, 11, 46, 0
1, 29878, Note_on_c, 2, 58, 64
1, 29878, Note_on_c, 2, 63, 75
1, 29879, Note_on_c, 1, 34, 79
1, 29879, Note_on_c, 9, 44, 45
1, 29879, Note_on_c, 11, 34, 75
1, 29880, Note_on_c, 9, 44, 0
1, 29880, Note_on_c, 2, 56, 70
1, 29881, Note_on_c, 5, 58, 105
1, 29886, Note_on_c, 2, 58, 0
1, 29886, Note_on_c, 2, 63, 0
1, 29888, Note_on_c, 2, 56, 0
1, 29900, Note_on_c, 2, 58, 58
1, 29900, Note_on_c, 2, 63, 86
1, 29901, Note_on_c, 2, 56, 51
1, 29902, Note_on_c, 5, 61, 103
1, 29903, Note_on_c, 1, 41, 80
1, 29903, Note_on_c, 9, 69, 43
1, 29903, Note_on_c, 11, 41, 76
1, 29904, Note_on_c, 9, 69, 0
1, 29904, Note_on_c, 1, 34, 0
1, 29904, Note_on_c, 11, 34, 0
1, 29905, Note_on_c, 9, 51, 76
1, 29905, Note_on_c, 13, 58, 99
1, 29906, Note_on_c, 9, 51, 0
1, 29906, Note_on_c, 5, 58, 0
1, 29914, Note_on_c, 6, 68, 0
1, 29917, Note_on_c, 2, 58, 0
1, 29920, Note_on_c, 6, 60, 0
1, 29920, Note_on_c, 2, 63, 0
1, 29925, Note_on_c, 2, 56, 0
1, 29925, Note_on_c, 2, 63, 81
1, 29926, Note_on_c, 2, 58, 72
1, 29926, Note_on_c, 13, 61, 97
1, 29927, Note_on_c, 5, 58, 104
1, 29927, Note_on_c, 9, 51, 48
1, 29928, Note_on_c, 9, 51, 0
1, 29928, Note_on_c, 1, 34, 72
1, 29928, Note_on_c, 11, 34, 68
1, 29929, Note_on_c, 1, 41, 0
1, 29929, Note_on_c, 11, 41, 0
1, 29930, Note_on_c, 13, 58, 0
1, 29930, Note_on_c, 9, 69, 28
1, 29931, Note_on_c, 9, 69, 0
1, 29931, Note_on_c, 2, 63, 0
1, 29932, Note_on_c, 2, 58, 0
1, 29940, Note_on_c, 8, 75, 0
1, 29941, Note_on_c, 5, 61, 0
1, 29944, Note_on_c, 8, 87, 0
1, 29948, Note_on_c, 7, 68, 0
1, 29949, Note_on_c, 7, 65, 87
1, 29949, Note_on_c, 8, 89, 81
1, 29950, Note_on_c, 2, 58, 81
1, 29950, Note_on_c, 2, 61, 69
1, 29950, Note_on_c, 2, 54, 60
1, 29950, Note_on_c, 6, 65, 69
1, 29950, Note_on_c, 6, 61, 67
1, 29950, Note_on_c, 8, 77, 81
1, 29951, Note_on_c, 13, 58, 98
1, 29952, Note_on_c, 10, 53, 0
1, 29952, Note_on_c, 10, 60, 0
1, 29952, Note_on_c, 10, 56, 0
1, 29952, Note_on_c, 10, 63, 0
1, 29952, Note_on_c, 1, 39, 94
1, 29952, Note_on_c, 5, 64, 106
1, 29952, Note_on_c, 9, 36, 110
1, 29952, Note_on_c, 9, 51, 91
1, 29952, Note_on_c, 10, 58, 60
1, 29952, Note_on_c, 10, 61, 63
1, 29952, Note_on_c, 10, 54, 54
1, 29952, Note_on_c, 11, 39, 90
1, 29953, Note_on_c, 9, 51, 0
1, 29953, Note_on_c, 9, 36, 0
1, 29954, Note_on_c, 1, 34, 0
1, 29954, Note_on_c, 11, 34, 0
1, 29959, Note_on_c, 5, 58, 0
1, 29965, Note_on_c, 13, 61, 0
1, 29970, Note_on_c, 2, 61, 0
1, 29972, Note_on_c, 2, 61, 50
1, 29975, Note_on_c, 9, 44, 44
1, 29976, Note_on_c, 9, 44, 0
1, 29976, Note_on_c, 5, 63, 103
1, 29976, Note_on_c, 13, 64, 100
1, 29982, Note_on_c, 5, 64, 0
1, 29983, Note_on_c, 13, 58, 0
1, 29997, Note_on_c, 2, 58, 0
1, 29997, Note_on_c, 2, 61, 0
1, 29997, Note_on_c, 2, 54, 0
1, 29998, Note_on_c, 2, 54, 64
1, 29998, Note_on_c, 2, 61, 111
1, 29998, Note_on_c, 9, 69, 33
1, 29999, Note_on_c, 9, 69, 0
1, 29999, Note_on_c, 9, 51, 40
1, 30000, Note_on_c, 9, 51, 0
1, 30000, Note_on_c, 2, 58, 85
1, 30000, Note_on_c, 13, 63, 97
1, 30002, Control_c, 5, 1, 1
1, 30003, Control_c, 5, 1, 2
1, 30004, Control_c, 5, 1, 3
1, 30005, Control_c, 5, 1, 4
1, 30006, Note_on_c, 13, 64, 0
1, 30006, Control_c, 5, 1, 8
1, 30007, Control_c, 5, 1, 9
1, 30008, Control_c, 5, 1, 11
1, 30009, Note_on_c, 11, 39, 0
1, 30009, Note_on_c, 1, 39, 0
1, 30009, Control_c, 5, 1, 13
1, 30010, Control_c, 5, 1, 16
1, 30011, Control_c, 5, 1, 17
1, 30012, Control_c, 5, 1, 18
1, 30013, Control_c, 5, 1, 20
1, 30014, Control_c, 5, 1, 22
1, 30015, Control_c, 5, 1, 23
1, 30016, Note_on_c, 2, 61, 0
1, 30016, Control_c, 5, 1, 24
1, 30017, Note_on_c, 2, 58, 0
1, 30017, Control_c, 5, 1, 25
1, 30018, Note_on_c, 2, 54, 0
1, 30018, Control_c, 5, 1, 26
1, 30022, Note_on_c, 9, 69, 21
1, 30023, Note_on_c, 9, 69, 0
1, 30023, Note_on_c, 9, 62, 80
1, 30023, Note_on_c, 9, 51, 44
1, 30024, Note_on_c, 9, 51, 0
1, 30024, Note_on_c, 9, 62, 0
1, 30024, Note_on_c, 2, 54, 64
1, 30024, Note_on_c, 2, 58, 73
1, 30025, Note_on_c, 2, 61, 67
1, 30026, Control_c, 13, 1, 1
1, 30027, Control_c, 13, 1, 2
1, 30028, Control_c, 13, 1, 3
1, 30029, Control_c, 13, 1, 4
1, 30030, Control_c, 13, 1, 8
1, 30031, Control_c, 13, 1, 9
1, 30032, Control_c, 13, 1, 11
1, 30033, Control_c, 13, 1, 13
1, 30034, Control_c, 13, 1, 16
1, 30035, Control_c, 13, 1, 17
1, 30036, Control_c, 13, 1, 18
1, 30037, Control_c, 13, 1, 20
1, 30038, Control_c, 5, 1, 25
1, 30038, Control_c, 13, 1, 22
1, 30039, Control_c, 13, 1, 23
1, 30040, Control_c, 5, 1, 24
1, 30040, Control_c, 13, 1, 24
1, 30041, Control_c, 13, 1, 25
1, 30042, Control_c, 5, 1, 23
1, 30042, Control_c, 13, 1, 26
1, 30043, Control_c, 5, 1, 22
1, 30045, Control_c, 5, 1, 21
1, 30046, Control_c, 5, 1, 20
1, 30047, Note_on_c, 9, 51, 76
1, 30047, Note_on_c, 9, 40, 101
1, 30047, Note_on_c, 9, 75, 79
1, 30048, Note_on_c, 9, 75, 0
1, 30048, Note_on_c, 9, 40, 0
1, 30048, Note_on_c, 9, 51, 0
1, 30048, Control_c, 5, 1, 19
1, 30049, Note_on_c, 9, 62, 74
1, 30050, Note_on_c, 9, 62, 0
1, 30050, Control_c, 5, 1, 18
1, 30051, Control_c, 5, 1, 17
1, 30055, Control_c, 5, 1, 16
1, 30062, Note_on_c, 2, 58, 0
1, 30062, Control_c, 13, 1, 25
1, 30064, Note_on_c, 2, 54, 0
1, 30064, Control_c, 13, 1, 24
1, 30065, Note_on_c, 2, 61, 0
1, 30066, Control_c, 13, 1, 23
1, 30067, Control_c, 13, 1, 22
1, 30068, Control_c, 5, 1, 15
1, 30069, Control_c, 13, 1, 21
1, 30070, Control_c, 13, 1, 20
1, 30071, Note_on_c, 9, 44, 40
1, 30072, Note_on_c, 9, 44, 0
1, 30072, Note_on_c, 2, 58, 71
1, 30072, Note_on_c, 2, 61, 81
1, 30072, Control_c, 5, 1, 14
1, 30072, Control_c, 13, 1, 19
1, 30073, Note_on_c, 2, 54, 67
1, 30074, Control_c, 13, 1, 18
1, 30075, Control_c, 13, 1, 17
1, 30076, Control_c, 5, 1, 13
1, 30078, Note_on_c, 2, 54, 0
1, 30078, Note_on_c, 2, 61, 0
1, 30078, Control_c, 5, 1, 12
1, 30079, Control_c, 13, 1, 16
1, 30080, Note_on_c, 2, 58, 0
1, 30080, Control_c, 5, 1, 11
1, 30081, Control_c, 5, 1, 9
1, 30082, Control_c, 5, 1, 6
1, 30083, Control_c, 5, 1, 4
1, 30084, Control_c, 5, 1, 3
1, 30085, Control_c, 5, 1, 2
1, 30086, Control_c, 5, 1, 0
1, 30092, Control_c, 13, 1, 15
1, 30093, Note_on_c, 2, 61, 90
1, 30094, Note_on_c, 2, 54, 53
1, 30094, Note_on_c, 2, 58, 58
1, 30095, Note_on_c, 9, 69, 33
1, 30095, Note_on_c, 9, 51, 42
1, 30096, Note_on_c, 9, 51, 0
1, 30096, Note_on_c, 9, 69, 0
1, 30096, Control_c, 13, 1, 14
1, 30100, Control_c, 13, 1, 13
1, 30102, Control_c, 13, 1, 12
1, 30104, Note_on_c, 2, 58, 0
1, 30104, Control_c, 13, 1, 11
1, 30105, Control_c, 13, 1, 9
1, 30106, Control_c, 13, 1, 6
1, 30107, Control_c, 13, 1, 4
1, 30108, Control_c, 13, 1, 3
1, 30109, Control_c, 13, 1, 2
1, 30110, Control_c, 13, 1, 0
1, 30114, Note_on_c, 2, 61, 0
1, 30118, Note_on_c, 2, 54, 0
1, 30118, Note_on_c, 2, 58, 69
1, 30118, Note_on_c, 2, 61, 86
1, 30118, Note_on_c, 9, 62, 69
1, 30119, Note_on_c, 9, 62, 0
1, 30119, Note_on_c, 1, 34, 70
1, 30119, Note_on_c, 9, 69, 25
1, 30119, Note_on_c, 9, 51, 40
1, 30119, Note_on_c, 11, 34, 66
1, 30120, Note_on_c, 9, 51, 0
1, 30120, Note_on_c, 9, 69, 0
1, 30120, Note_on_c, 9, 36, 104
1, 30121, Note_on_c, 9, 36, 0
1, 30126, Note_on_c, 2, 61, 0
1, 30126, Note_on_c, 2, 58, 0
1, 30142, Note_on_c, 1, 39, 80
1, 30142, Note_on_c, 2, 54, 58
1, 30142, Note_on_c, 2, 58, 93
1, 30142, Note_on_c, 2, 61, 98
1, 30142, Note_on_c, 11, 39, 76
1, 30143, Note_on_c, 9, 36, 68
1, 30143, Note_on_c, 9, 51, 87
1, 30144, Note_on_c, 9, 51, 0
1, 30144, Note_on_c, 9, 36, 0
1, 30144, Note_on_c, 11, 34, 0
1, 30144, Note_on_c, 1, 34, 0
1, 30145, Note_on_c, 9, 62, 76
1, 30146, Note_on_c, 9, 62, 0
1, 30166, Note_on_c, 11, 39, 0
1, 30166, Note_on_c, 1, 39, 0
1, 30166, Note_on_c, 1, 34, 72
1, 30166, Note_on_c, 11, 34, 68
1, 30168, Note_on_c, 9, 44, 46
1, 30169, Note_on_c, 9, 44, 0
1, 30189, Note_on_c, 2, 61, 0
1, 30189, Note_on_c, 2, 54, 0
1, 30189, Note_on_c, 2, 58, 0
1, 30190, Note_on_c, 2, 58, 108
1, 30190, Note_on_c, 2, 61, 111
1, 30190, Note_on_c, 2, 54, 69
1, 30190, Note_on_c, 9, 69, 35
1, 30191, Note_on_c, 9, 69, 0
1, 30191, Note_on_c, 1, 39, 90
1, 30191, Note_on_c, 9, 51, 43
1, 30191, Note_on_c, 9, 36, 97
1, 30191, Note_on_c, 11, 39, 86
1, 30192, Note_on_c, 9, 36, 0
1, 30192, Note_on_c, 9, 51, 0
1, 30193, Note_on_c, 1, 34, 0
1, 30193, Note_on_c, 11, 34, 0
1, 30198, Note_on_c, 2, 58, 0
1, 30198, Note_on_c, 2, 61, 0
1, 30202, Note_on_c, 2, 54, 0
1, 30214, Note_on_c, 2, 58, 67
1, 30214, Note_on_c, 2, 61, 74
1, 30214, Note_on_c, 2, 54, 67
1, 30214, Note_on_c, 9, 69, 29
1, 30215, Note_on_c, 9, 69, 0
1, 30215, Note_on_c, 9, 51, 54
1, 30216, Note_on_c, 9, 51, 0
1, 30217, Note_on_c, 9, 62, 66
1, 30218, Note_on_c, 9, 62, 0
1, 30224, Note_on_c, 1, 39, 0
1, 30224, Note_on_c, 11, 39, 0
1, 30239, Note_on_c, 9, 51, 73
1, 30239, Note_on_c, 9, 40, 104
1, 30240, Note_on_c, 9, 40, 0
1, 30240, Note_on_c, 9, 51, 0
1, 30240, Note_on_c, 9, 75, 79
1, 30241, Note_on_c, 9, 75, 0
1, 30242, Note_on_c, 9, 62, 59
1, 30243, Note_on_c, 9, 62, 0
1, 30250, Note_on_c, 2, 54, 0
1, 30251, Note_on_c, 2, 58, 0
1, 30254, Note_on_c, 2, 61, 0
1, 30262, Note_on_c, 2, 58, 68
1, 30262, Note_on_c, 2, 61, 74
1, 30262, Note_on_c, 2, 54, 65
1, 30263, Note_on_c, 9, 44, 43
1, 30264, Note_on_c, 9, 44, 0
1, 30265, Note_on_c, 1, 29, 78
1, 30265, Note_on_c, 11, 29, 74
1, 30266, Note_on_c, 9, 62, 59
1, 30267, Note_on_c, 9, 62, 0
1, 30270, Note_on_c, 2, 54, 0
1, 30270, Note_on_c, 2, 61, 0
1, 30271, Note_on_c, 2, 58, 0
1, 30285, Note_on_c, 2, 61, 87
1, 30285, Note_on_c, 2, 58, 60
1, 30286, Note_on_c, 1, 29, 0
1, 30286, Note_on_c, 11, 29, 0
1, 30286, Note_on_c, 9, 69, 36
1, 30287, Note_on_c, 9, 69, 0
1, 30287, Note_on_c, 1, 30, 79
1, 30287, Note_on_c, 9, 51, 54
1, 30287, Note_on_c, 11, 30, 75
1, 30288, Note_on_c, 9, 51, 0
1, 30289, Note_on_c, 7, 65, 0
1, 30290, Note_on_c, 9, 62, 76
1, 30291, Note_on_c, 9, 62, 0
1, 30295, Note_on_c, 2, 58, 0
1, 30305, Note_on_c, 2, 61, 0
1, 30310, Note_on_c, 2, 58, 77
1, 30310, Note_on_c, 2, 61, 87
1, 30310, Note_on_c, 9, 69, 23
1, 30311, Note_on_c, 9, 69, 0
1, 30311, Note_on_c, 1, 29, 69
1, 30311, Note_on_c, 9, 51, 42
1, 30311, Note_on_c, 11, 29, 65
1, 30312, Note_on_c, 9, 51, 0
1, 30314, Note_on_c, 1, 30, 0
1, 30314, Note_on_c, 11, 30, 0
1, 30318, Note_on_c, 2, 61, 0
1, 30318, Note_on_c, 2, 58, 0
1, 30326, Note_on_c, 8, 90, 72
1, 30327, Note_on_c, 8, 78, 74
1, 30331, Note_on_c, 6, 63, 71
1, 30332, Note_on_c, 8, 89, 0
1, 30333, Note_on_c, 7, 63, 85
1, 30334, Note_on_c, 11, 29, 0
1, 30334, Note_on_c, 8, 77, 0
1, 30334, Note_on_c, 1, 29, 0
1, 30334, Note_on_c, 2, 54, 67
1, 30334, Note_on_c, 2, 61, 98
1, 30334, Note_on_c, 2, 58, 83
1, 30335, Note_on_c, 1, 32, 88
1, 30335, Note_on_c, 9, 51, 83
1, 30335, Note_on_c, 11, 32, 84
1, 30336, Note_on_c, 9, 51, 0
1, 30336, Note_on_c, 6, 65, 0
1, 30336, Note_on_c, 9, 36, 114
1, 30336, Note_on_c, 10, 68, 47
1, 30337, Note_on_c, 9, 36, 0
1, 30337, Note_on_c, 5, 63, 0
1, 30337, Note_on_c, 0, 58, 54
1, 30359, Note_on_c, 9, 44, 49
1, 30360, Note_on_c, 9, 44, 0
1, 30361, Note_on_c, 13, 63, 0
1, 30372, Note_on_c, 0, 58, 0
1, 30378, Note_on_c, 2, 58, 0
1, 30378, Note_on_c, 2, 54, 0
1, 30378, Note_on_c, 2, 61, 0
1, 30382, Note_on_c, 2, 54, 86
1, 30382, Note_on_c, 2, 58, 108
1, 30382, Note_on_c, 2, 61, 111
1, 30382, Note_on_c, 9, 69, 33
1, 30383, Note_on_c, 9, 69, 0
1, 30383, Note_on_c, 0, 61, 54
1, 30383, Note_on_c, 9, 51, 42
1, 30384, Note_on_c, 9, 51, 0
1, 30389, Note_on_c, 2, 61, 0
1, 30390, Note_on_c, 2, 54, 0
1, 30390, Note_on_c, 2, 58, 0
1, 30392, Note_on_c, 0, 61, 0
1, 30406, Note_on_c, 2, 58, 71
1, 30406, Note_on_c, 2, 54, 66
1, 30406, Note_on_c, 2, 61, 74
1, 30407, Note_on_c, 9, 69, 27
1, 30407, Note_on_c, 9, 62, 88
1, 30407, Note_on_c, 9, 51, 41
1, 30408, Note_on_c, 9, 51, 0
1, 30408, Note_on_c, 9, 62, 0
1, 30408, Note_on_c, 9, 69, 0
1, 30409, Note_on_c, 0, 63, 54
1, 30409, Note_on_c, 0, 58, 57
1, 30410, Note_on_c, 0, 73, 69
1, 30418, Note_on_c, 0, 58, 0
1, 30420, Note_on_c, 0, 73, 0
1, 30422, Note_on_c, 0, 63, 0
1, 30431, Note_on_c, 9, 40, 107
1, 30431, Note_on_c, 9, 75, 76
1, 30432, Note_on_c, 9, 75, 0
1, 30432, Note_on_c, 9, 40, 0
1, 30432, Note_on_c, 9, 51, 87
1, 30433, Note_on_c, 9, 51, 0
1, 30433, Note_on_c, 9, 62, 74
1, 30434, Note_on_c, 9, 62, 0
1, 30442, Note_on_c, 1, 32, 0
1, 30442, Note_on_c, 11, 32, 0
1, 30443, Note_on_c, 2, 54, 0
1, 30443, Note_on_c, 2, 58, 0
1, 30444, Note_on_c, 2, 61, 0
1, 30454, Note_on_c, 2, 54, 67
1, 30455, Note_on_c, 0, 73, 71
1, 30455, Note_on_c, 0, 58, 54
1, 30455, Note_on_c, 0, 63, 58
1, 30456, Note_on_c, 2, 61, 74
1, 30456, Note_on_c, 2, 58, 77
1, 30457, Note_on_c, 9, 44, 57
1, 30458, Note_on_c, 9, 44, 0
1, 30462, Note_on_c, 2, 58, 0
1, 30462, Note_on_c, 2, 54, 0
1, 30464, Note_on_c, 2, 61, 0
1, 30478, Note_on_c, 2, 58, 54
1, 30478, Note_on_c, 2, 61, 79
1, 30478, Note_on_c, 2, 54, 59
1, 30479, Note_on_c, 0, 73, 0
1, 30479, Note_on_c, 0, 70, 53
1, 30479, Note_on_c, 9, 51, 44
1, 30479, Note_on_c, 9, 69, 35
1, 30480, Note_on_c, 9, 69, 0
1, 30480, Note_on_c, 9, 51, 0
1, 30485, Note_on_c, 0, 58, 0
1, 30492, Note_on_c, 2, 58, 0
1, 30495, Note_on_c, 2, 61, 0
1, 30498, Note_on_c, 0, 63, 0
1, 30501, Note_on_c, 2, 54, 0
1, 30501, Note_on_c, 0, 70, 0
1, 30501, Note_on_c, 2, 61, 62
1, 30502, Note_on_c, 0, 68, 41
1, 30502, Note_on_c, 2, 58, 64
1, 30502, Note_on_c, 9, 69, 25
1, 30503, Note_on_c, 9, 69, 0
1, 30503, Note_on_c, 9, 62, 74
1, 30503, Note_on_c, 9, 51, 46
1, 30503, Note_on_c, 9, 36, 105
1, 30504, Note_on_c, 9, 36, 0
1, 30504, Note_on_c, 9, 51, 0
1, 30504, Note_on_c, 9, 62, 0
1, 30505, Note_on_c, 1, 39, 84
1, 30505, Note_on_c, 11, 39, 80
1, 30508, Note_on_c, 2, 58, 0
1, 30509, Note_on_c, 2, 61, 0
1, 30518, Note_on_c, 8, 90, 0
1, 30522, Note_on_c, 0, 68, 0
1, 30522, Note_on_c, 8, 78, 0
1, 30525, Note_on_c, 2, 54, 62
1, 30525, Note_on_c, 8, 80, 67
1, 30526, Note_on_c, 0, 61, 61
1, 30526, Note_on_c, 0, 63, 48
1, 30526, Note_on_c, 2, 58, 79
1, 30526, Note_on_c, 2, 61, 75
1, 30526, Note_on_c, 9, 36, 67
1, 30526, Note_on_c, 8, 92, 66
1, 30527, Note_on_c, 9, 36, 0
1, 30527, Note_on_c, 1, 39, 0
1, 30527, Note_on_c, 11, 39, 0
1, 30527, Note_on_c, 0, 58, 52
1, 30527, Note_on_c, 0, 70, 65
1, 30527, Note_on_c, 1, 44, 75
1, 30527, Note_on_c, 9, 62, 69
1, 30527, Note_on_c, 11, 44, 71
1, 30528, Note_on_c, 9, 62, 0
1, 30528, Note_on_c, 9, 51, 70
1, 30529, Note_on_c, 9, 51, 0
1, 30551, Note_on_c, 9, 44, 52
1, 30552, Note_on_c, 9, 44, 0
1, 30552, Note_on_c, 1, 32, 73
1, 30552, Note_on_c, 11, 32, 69
1, 30553, Note_on_c, 11, 44, 0
1, 30553, Note_on_c, 1, 44, 0
1, 30554, Note_on_c, 0, 61, 0
1, 30572, Note_on_c, 2, 58, 0
1, 30572, Note_on_c, 2, 61, 0
1, 30573, Note_on_c, 2, 54, 0
1, 30573, Note_on_c, 0, 58, 0
1, 30573, Note_on_c, 0, 61, 53
1, 30574, Note_on_c, 2, 58, 108
1, 30574, Note_on_c, 2, 54, 85
1, 30574, Note_on_c, 2, 61, 111
1, 30574, Note_on_c, 9, 69, 45
1, 30575, Note_on_c, 9, 69, 0
1, 30575, Note_on_c, 1, 44, 88
1, 30575, Note_on_c, 9, 62, 84
1, 30575, Note_on_c, 9, 51, 46
1, 30575, Note_on_c, 9, 36, 107
1, 30575, Note_on_c, 11, 44, 84
1, 30576, Note_on_c, 9, 36, 0
1, 30576, Note_on_c, 9, 51, 0
1, 30576, Note_on_c, 9, 62, 0
1, 30578, Note_on_c, 11, 32, 0
1, 30578, Note_on_c, 1, 32, 0
1, 30579, Note_on_c, 2, 61, 0
1, 30582, Note_on_c, 2, 58, 0
1, 30582, Note_on_c, 0, 63, 0
1, 30586, Note_on_c, 2, 54, 0
1, 30598, Note_on_c, 2, 54, 64
1, 30598, Note_on_c, 2, 58, 69
1, 30598, Note_on_c, 9, 69, 26
1, 30599, Note_on_c, 9, 69, 0
1, 30599, Note_on_c, 9, 51, 37
1, 30600, Note_on_c, 9, 51, 0
1, 30600, Note_on_c, 2, 61, 69
1, 30615, Note_on_c, 0, 61, 0
1, 30621, Note_on_c, 0, 70, 0
1, 30621, Note_on_c, 0, 61, 51
1, 30622, Note_on_c, 0, 63, 51
1, 30622, Note_on_c, 0, 68, 51
1, 30623, Note_on_c, 9, 75, 82
1, 30623, Note_on_c, 9, 62, 90
1, 30623, Note_on_c, 9, 51, 91
1, 30623, Note_on_c, 9, 40, 110
1, 30624, Note_on_c, 9, 40, 0
1, 30624, Note_on_c, 9, 51, 0
1, 30624, Note_on_c, 9, 62, 0
1, 30624, Note_on_c, 9, 75, 0
1, 30624, Note_on_c, 0, 58, 51
1, 30706, Note_on_c, 2, 58, 0
1, 30706, Note_on_c, 2, 54, 0
1, 30712, Note_on_c, 1, 44, 0
1, 30712, Note_on_c, 6, 61, 0
1, 30712, Note_on_c, 11, 44, 0
1, 30713, Note_on_c, 2, 61, 0
1, 30715, Note_on_c, 0, 58, 0
1, 30718, Note_on_c, 0, 68, 0
1, 30718, Note_on_c, 0, 63, 0
1, 30718, Note_on_c, 0, 61, 0
1, 30719, Note_on_c, 7, 63, 0
1, 30720, Note_on_c, 10, 61, 0
1, 30720, Note_on_c, 10, 68, 0
1, 30720, Note_on_c, 10, 58, 0
1, 30720, Note_on_c, 10, 54, 0
1, 30720, Note_on_c, 8, 80, 0
1, 30720, Note_on_c, 1, 37, 88
1, 30720, Note_on_c, 2, 56, 60
1, 30720, Note_on_c, 2, 60, 70
1, 30720, Note_on_c, 2, 53, 63
1, 30720, Note_on_c, 2, 65, 66
1, 30720, Note_on_c, 9, 42, 91
1, 30720, Note_on_c, 9, 36, 110
1, 30720, Note_on_c, 11, 37, 84
1, 30721, Note_on_c, 9, 36, 0
1, 30721, Note_on_c, 9, 42, 0
1, 30722, Note_on_c, 6, 63, 0
1, 30722, Note_on_c, 0, 63, 70
1, 30722, Note_on_c, 0, 56, 60
1, 30722, Note_on_c, 0, 65, 68
1, 30722, Note_on_c, 0, 60, 77
1, 30725, Note_on_c, 8, 92, 0
1, 30738, Note_on_c, 0, 63, 0
1, 30739, Note_on_c, 0, 60, 0
1, 30743, Note_on_c, 9, 44, 44
1, 30744, Note_on_c, 9, 44, 0
1, 30746, Note_on_c, 0, 63, 64
1, 30746, Note_on_c, 0, 60, 67
1, 30765, Note_on_c, 0, 60, 0
1, 30765, Note_on_c, 0, 63, 0
1, 30766, Note_on_c, 2, 60, 0
1, 30766, Note_on_c, 2, 56, 0
1, 30766, Note_on_c, 2, 53, 0
1, 30766, Note_on_c, 2, 65, 0
1, 30766, Note_on_c, 9, 69, 33
1, 30767, Note_on_c, 9, 69, 0
1, 30767, Note_on_c, 9, 42, 40
1, 30768, Note_on_c, 9, 42, 0
1, 30768, Note_on_c, 2, 60, 73
1, 30768, Note_on_c, 2, 56, 68
1, 30768, Note_on_c, 2, 65, 71
1, 30768, Note_on_c, 2, 53, 69
1, 30769, Note_on_c, 0, 65, 0
1, 30770, Note_on_c, 0, 56, 0
1, 30770, Note_on_c, 0, 49, 75
1, 30774, Note_on_c, 2, 56, 0
1, 30776, Note_on_c, 11, 37, 0
1, 30776, Note_on_c, 1, 37, 0
1, 30776, Note_on_c, 2, 60, 0
1, 30776, Note_on_c, 2, 65, 0
1, 30778, Note_on_c, 2, 53, 0
1, 30782, Note_on_c, 0, 49, 0
1, 30790, Note_on_c, 9, 69, 21
1, 30791, Note_on_c, 9, 69, 0
1, 30791, Note_on_c, 9, 42, 44
1, 30792, Note_on_c, 9, 42, 0
1, 30792, Note_on_c, 0, 63, 68
1, 30792, Note_on_c, 0, 60, 75
1, 30792, Note_on_c, 0, 65, 64
1, 30792, Note_on_c, 2, 65, 54
1, 30792, Note_on_c, 2, 60, 59
1, 30792, Note_on_c, 2, 53, 53
1, 30792, Note_on_c, 4, 61, 73
1, 30792, Note_on_c, 4, 49, 73
1, 30793, Note_on_c, 0, 56, 63
1, 30794, Note_on_c, 3, 61, 95
1, 30811, Note_on_c, 3, 61, 0
1, 30813, Note_on_c, 0, 63, 0
1, 30814, Note_on_c, 0, 60, 0
1, 30814, Note_on_c, 2, 53, 0
1, 30815, Note_on_c, 4, 61, 0
1, 30815, Note_on_c, 4, 49, 0
1, 30815, Note_on_c, 0, 65, 0
1, 30815, Note_on_c, 9, 42, 76
1, 30815, Note_on_c, 9, 40, 101
1, 30815, Note_on_c, 9, 75, 79
1, 30816, Note_on_c, 9, 75, 0
1, 30816, Note_on_c, 9, 42, 0
1, 30816, Note_on_c, 9, 40, 0
1, 30816, Note_on_c, 2, 56, 58
1, 30816, Note_on_c, 2, 53, 52
1, 30816, Note_on_c, 4, 49, 72
1, 30816, Note_on_c, 4, 61, 72
1, 30817, Note_on_c, 0, 56, 0
1, 30818, Note_on_c, 3, 61, 95
1, 30838, Note_on_c, 2, 53, 0
1, 30838, Note_on_c, 2, 65, 0
1, 30838, Note_on_c, 2, 56, 0
1, 30838, Note_on_c, 2, 60, 0
1, 30839, Note_on_c, 0, 56, 63
1, 30839, Note_on_c, 0, 63, 69
1, 30839, Note_on_c, 0, 60, 77
1, 30839, Note_on_c, 0, 65, 65
1, 30839, Note_on_c, 9, 44, 40
1, 30840, Note_on_c, 9, 44, 0
1, 30840, Note_on_c, 2, 56, 51
1, 30840, Note_on_c, 2, 65, 62
1, 30840, Note_on_c, 2, 53, 60
1, 30840, Note_on_c, 2, 60, 54
1, 30848, Note_on_c, 2, 60, 0
1, 30848, Note_on_c, 2, 56, 0
1, 30850, Note_on_c, 2, 65, 0
1, 30850, Note_on_c, 2, 53, 0
1, 30854, Note_on_c, 3, 61, 0
1, 30857, Note_on_c, 0, 63, 0
1, 30860, Note_on_c, 0, 60, 0
1, 30862, Note_on_c, 0, 65, 0
1, 30863, Note_on_c, 9, 42, 42
1, 30863, Note_on_c, 9, 69, 33
1, 30864, Note_on_c, 9, 69, 0
1, 30864, Note_on_c, 4, 61, 0
1, 30864, Note_on_c, 0, 56, 0
1, 30864, Note_on_c, 4, 49, 0
1, 30864, Note_on_c, 9, 42, 0
1, 30864, Note_on_c, 2, 65, 60
1, 30864, Note_on_c, 2, 60, 59
1, 30864, Note_on_c, 2, 56, 59
1, 30864, Note_on_c, 4, 58, 74
1, 30864, Note_on_c, 4, 70, 74
1, 30865, Note_on_c, 3, 70, 83
1, 30878, Note_on_c, 2, 60, 0
1, 30880, Note_on_c, 2, 65, 0
1, 30882, Note_on_c, 2, 56, 0
1, 30887, Note_on_c, 1, 32, 72
1, 30887, Note_on_c, 9, 69, 25
1, 30887, Note_on_c, 9, 42, 40
1, 30887, Note_on_c, 11, 32, 68
1, 30888, Note_on_c, 9, 42, 0
1, 30888, Note_on_c, 4, 58, 0
1, 30888, Note_on_c, 4, 70, 0
1, 30888, Note_on_c, 9, 69, 0
1, 30888, Note_on_c, 0, 49, 53
1, 30888, Note_on_c, 2, 56, 54
1, 30888, Note_on_c, 2, 60, 65
1, 30888, Note_on_c, 2, 53, 57
1, 30888, Note_on_c, 2, 65, 64
1, 30888, Note_on_c, 4, 56, 74
1, 30888, Note_on_c, 4, 68, 74
1, 30888, Note_on_c, 9, 36, 104
1, 30889, Note_on_c, 9, 36, 0
1, 30890, Note_on_c, 3, 68, 84
1, 30892, Note_on_c, 3, 70, 0
1, 30898, Note_on_c, 0, 49, 0
1, 30907, Note_on_c, 1, 32, 0
1, 30907, Note_on_c, 11, 32, 0
1, 30909, Note_on_c, 0, 60, 79
1, 30909, Note_on_c, 0, 56, 65
1, 30909, Note_on_c, 0, 65, 63
1, 30910, Note_on_c, 2, 65, 0
1, 30910, Note_on_c, 2, 56, 0
1, 30910, Note_on_c, 2, 60, 0
1, 30910, Note_on_c, 2, 53, 0
1, 30910, Note_on_c, 0, 63, 68
1, 30911, Note_on_c, 1, 37, 86
1, 30911, Note_on_c, 9, 36, 68
1, 30911, Note_on_c, 9, 42, 87
1, 30911, Note_on_c, 11, 37, 82
1, 30912, Note_on_c, 9, 42, 0
1, 30912, Note_on_c, 9, 36, 0
1, 30912, Note_on_c, 2, 65, 61
1, 30912, Note_on_c, 2, 56, 58
1, 30912, Note_on_c, 2, 53, 50
1, 30912, Note_on_c, 2, 60, 63
1, 30921, Note_on_c, 3, 68, 0
1, 30924, Note_on_c, 0, 63, 0
1, 30929, Note_on_c, 0, 60, 0
1, 30930, Note_on_c, 0, 65, 0
1, 30932, Note_on_c, 0, 56, 0
1, 30934, Note_on_c, 1, 32, 62
1, 30934, Note_on_c, 11, 32, 58
1, 30936, Note_on_c, 1, 37, 0
1, 30936, Note_on_c, 11, 37, 0
1, 30936, Note_on_c, 4, 68, 0
1, 30936, Note_on_c, 4, 56, 0
1, 30936, Note_on_c, 4, 54, 74
1, 30936, Note_on_c, 4, 66, 74
1, 30936, Note_on_c, 9, 44, 46
1, 30937, Note_on_c, 9, 44, 0
1, 30937, Note_on_c, 3, 66, 86
1, 30958, Note_on_c, 2, 53, 0
1, 30958, Note_on_c, 2, 60, 0
1, 30958, Note_on_c, 1, 32, 0
1, 30958, Note_on_c, 11, 32, 0
1, 30958, Note_on_c, 2, 65, 0
1, 30958, Note_on_c, 2, 56, 0
1, 30958, Note_on_c, 0, 60, 80
1, 30958, Note_on_c, 0, 65, 65
1, 30958, Note_on_c, 0, 63, 77
1, 30958, Note_on_c, 0, 56, 66
1, 30958, Note_on_c, 9, 69, 35
1, 30959, Note_on_c, 9, 69, 0
1, 30959, Note_on_c, 1, 37, 85
1, 30959, Note_on_c, 9, 36, 97
1, 30959, Note_on_c, 9, 42, 43
1, 30959, Note_on_c, 11, 37, 81
1, 30960, Note_on_c, 9, 42, 0
1, 30960, Note_on_c, 9, 36, 0
1, 30960, Note_on_c, 3, 66, 0
1, 30960, Note_on_c, 2, 60, 102
1, 30960, Note_on_c, 2, 53, 102
1, 30960, Note_on_c, 2, 56, 102
1, 30960, Note_on_c, 2, 65, 102
1, 30966, Note_on_c, 2, 56, 0
1, 30966, Note_on_c, 2, 60, 0
1, 30968, Note_on_c, 2, 65, 0
1, 30969, Note_on_c, 2, 53, 0
1, 30982, Note_on_c, 9, 69, 29
1, 30983, Note_on_c, 9, 69, 0
1, 30983, Note_on_c, 9, 42, 54
1, 30984, Note_on_c, 9, 42, 0
1, 30984, Note_on_c, 4, 54, 0
1, 30984, Note_on_c, 4, 66, 0
1, 30984, Note_on_c, 2, 53, 56
1, 30984, Note_on_c, 2, 65, 55
1, 30984, Note_on_c, 2, 60, 59
1, 30984, Note_on_c, 2, 56, 49
1, 30984, Note_on_c, 4, 53, 74
1, 30984, Note_on_c, 4, 65, 74
1, 30985, Note_on_c, 3, 65, 85
1, 30992, Note_on_c, 1, 37, 0
1, 30992, Note_on_c, 11, 37, 0
1, 31006, Note_on_c, 2, 60, 0
1, 31006, Note_on_c, 2, 65, 0
1, 31006, Note_on_c, 2, 56, 0
1, 31006, Note_on_c, 2, 53, 0
1, 31006, Note_on_c, 0, 49, 63
1, 31007, Note_on_c, 9, 40, 104
1, 31007, Note_on_c, 9, 42, 73
1, 31008, Note_on_c, 9, 42, 0
1, 31008, Note_on_c, 9, 40, 0
1, 31008, Note_on_c, 2, 60, 54
1, 31008, Note_on_c, 2, 65, 52
1, 31008, Note_on_c, 2, 53, 52
1, 31008, Note_on_c, 2, 56, 52
1, 31008, Note_on_c, 9, 75, 79
1, 31009, Note_on_c, 9, 75, 0
1, 31009, Note_on_c, 0, 63, 0
1, 31010, Note_on_c, 0, 60, 0
1, 31012, Note_on_c, 0, 56, 0
1, 31015, Note_on_c, 0, 65, 0
1, 31015, Note_on_c, 3, 65, 0
1, 31019, Note_on_c, 0, 49, 0
1, 31030, Note_on_c, 2, 53, 0
1, 31030, Note_on_c, 2, 56, 0
1, 31030, Note_on_c, 2, 65, 0
1, 31030, Note_on_c, 2, 60, 0
1, 31030, Note_on_c, 0, 65, 63
1, 31031, Note_on_c, 0, 56, 63
1, 31031, Note_on_c, 0, 60, 73
1, 31031, Note_on_c, 3, 61, 73
1, 31031, Note_on_c, 9, 44, 43
1, 31032, Note_on_c, 9, 44, 0
1, 31032, Note_on_c, 4, 53, 0
1, 31032, Note_on_c, 4, 65, 0
1, 31032, Note_on_c, 0, 63, 71
1, 31032, Note_on_c, 2, 60, 61
1, 31032, Note_on_c, 2, 56, 59
1, 31032, Note_on_c, 2, 65, 63
1, 31032, Note_on_c, 2, 53, 59
1, 31032, Note_on_c, 4, 49, 74
1, 31032, Note_on_c, 4, 61, 74
1, 31040, Note_on_c, 2, 56, 0
1, 31040, Note_on_c, 2, 60, 0
1, 31041, Note_on_c, 2, 65, 0
1, 31042, Note_on_c, 2, 53, 0
1, 31054, Note_on_c, 1, 32, 74
1, 31054, Note_on_c, 9, 69, 36
1, 31054, Note_on_c, 11, 32, 70
1, 31055, Note_on_c, 9, 69, 0
1, 31055, Note_on_c, 9, 42, 54
1, 31056, Note_on_c, 9, 42, 0
1, 31056, Note_on_c, 2, 65, 59
1, 31056, Note_on_c, 2, 60, 59
1, 31056, Note_on_c, 2, 56, 59
1, 31058, Note_on_c, 0, 63, 0
1, 31060, Note_on_c, 3, 61, 0
1, 31060, Note_on_c, 0, 60, 0
1, 31061, Note_on_c, 0, 56, 0
1, 31062, Note_on_c, 0, 65, 0
1, 31072, Note_on_c, 2, 56, 0
1, 31076, Note_on_c, 2, 60, 0
1, 31076, Note_on_c, 2, 65, 0
1, 31078, Note_on_c, 1, 34, 73
1, 31078, Note_on_c, 9, 69, 23
1, 31078, Note_on_c, 11, 34, 69
1, 31079, Note_on_c, 9, 69, 0
1, 31079, Note_on_c, 1, 32, 0
1, 31079, Note_on_c, 11, 32, 0
1, 31079, Note_on_c, 9, 42, 42
1, 31080, Note_on_c, 9, 42, 0
1, 31080, Note_on_c, 4, 49, 0
1, 31080, Note_on_c, 4, 61, 0
1, 31080, Note_on_c, 2, 56, 59
1, 31080, Note_on_c, 2, 53, 62
1, 31080, Note_on_c, 2, 63, 64
1, 31080, Note_on_c, 2, 59, 65
1, 31080, Note_on_c, 3, 64, 87
1, 31080, Note_on_c, 4, 64, 75
1, 31080, Note_on_c, 4, 52, 75
1, 31082, Note_on_c, 0, 49, 47
1, 31094, Note_on_c, 0, 49, 0
1, 31102, Note_on_c, 2, 59, 0
1, 31102, Note_on_c, 2, 56, 0
1, 31102, Note_on_c, 2, 63, 0
1, 31102, Note_on_c, 1, 37, 91
1, 31102, Note_on_c, 11, 37, 87
1, 31103, Note_on_c, 9, 42, 83
1, 31104, Note_on_c, 9, 42, 0
1, 31104, Note_on_c, 4, 64, 0
1, 31104, Note_on_c, 4, 52, 0
1, 31104, Note_on_c, 1, 34, 0
1, 31104, Note_on_c, 11, 34, 0
1, 31104, Note_on_c, 0, 65, 69
1, 31104, Note_on_c, 2, 59, 77
1, 31104, Note_on_c, 2, 56, 58
1, 31104, Note_on_c, 2, 63, 68
1, 31104, Note_on_c, 4, 49, 76
1, 31104, Note_on_c, 4, 61, 76
1, 31104, Note_on_c, 9, 36, 114
1, 31105, Note_on_c, 9, 36, 0
1, 31105, Note_on_c, 0, 59, 89
1, 31105, Note_on_c, 0, 56, 63
1, 31105, Note_on_c, 0, 63, 65
1, 31105, Note_on_c, 3, 61, 71
1, 31106, Note_on_c, 3, 64, 0
1, 31122, Note_on_c, 0, 59, 0
1, 31127, Note_on_c, 9, 44, 49
1, 31128, Note_on_c, 9, 44, 0
1, 31128, Note_on_c, 4, 61, 0
1, 31128, Note_on_c, 4, 49, 0
1, 31128, Note_on_c, 4, 51, 76
1, 31128, Note_on_c, 4, 63, 76
1, 31129, Note_on_c, 0, 59, 67
1, 31129, Note_on_c, 3, 63, 84
1, 31134, Note_on_c, 11, 37, 0
1, 31134, Note_on_c, 1, 37, 0
1, 31134, Note_on_c, 3, 61, 0
1, 31148, Note_on_c, 0, 65, 0
1, 31148, Note_on_c, 0, 59, 0
1, 31150, Note_on_c, 2, 59, 0
1, 31150, Note_on_c, 2, 63, 0
1, 31150, Note_on_c, 2, 53, 0
1, 31150, Note_on_c, 2, 56, 0
1, 31150, Note_on_c, 9, 69, 33
1, 31151, Note_on_c, 9, 69, 0
1, 31151, Note_on_c, 0, 63, 0
1, 31151, Note_on_c, 9, 42, 42
1, 31152, Note_on_c, 9, 42, 0
1, 31152, Note_on_c, 4, 63, 0
1, 31152, Note_on_c, 4, 51, 0
1, 31152, Note_on_c, 2, 63, 93
1, 31152, Note_on_c, 2, 53, 67
1, 31152, Note_on_c, 2, 56, 65
1, 31152, Note_on_c, 2, 59, 87
1, 31152, Note_on_c, 3, 64, 95
1, 31152, Note_on_c, 4, 52, 76
1, 31152, Note_on_c, 4, 64, 76
1, 31153, Note_on_c, 0, 49, 65
1, 31154, Note_on_c, 0, 56, 0
1, 31155, Note_on_c, 3, 63, 0
1, 31158, Note_on_c, 2, 56, 0
1, 31160, Note_on_c, 2, 53, 0
1, 31160, Note_on_c, 2, 59, 0
1, 31160, Note_on_c, 2, 63, 0
1, 31170, Note_on_c, 0, 49, 0
1, 31174, Note_on_c, 0, 65, 67
1, 31174, Note_on_c, 0, 63, 68
1, 31174, Note_on_c, 0, 59, 84
1, 31175, Note_on_c, 0, 56, 57
1, 31175, Note_on_c, 9, 42, 41
1, 31175, Note_on_c, 9, 69, 27
1, 31176, Note_on_c, 9, 69, 0
1, 31176, Note_on_c, 4, 52, 0
1, 31176, Note_on_c, 9, 42, 0
1, 31176, Note_on_c, 4, 64, 0
1, 31176, Note_on_c, 2, 56, 57
1, 31176, Note_on_c, 2, 53, 58
1, 31176, Note_on_c, 2, 59, 61
1, 31176, Note_on_c, 2, 63, 59
1, 31176, Note_on_c, 4, 63, 76
1, 31176, Note_on_c, 4, 51, 76
1, 31177, Note_on_c, 3, 63, 75
1, 31178, Note_on_c, 3, 64, 0
1, 31196, Note_on_c, 0, 59, 0
1, 31198, Note_on_c, 2, 63, 0
1, 31198, Note_on_c, 2, 59, 0
1, 31198, Note_on_c, 0, 63, 0
1, 31198, Note_on_c, 2, 56, 0
1, 31198, Note_on_c, 2, 53, 0
1, 31199, Note_on_c, 9, 75, 76
1, 31199, Note_on_c, 9, 40, 107
1, 31200, Note_on_c, 9, 40, 0
1, 31200, Note_on_c, 9, 75, 0
1, 31200, Note_on_c, 2, 63, 53
1, 31200, Note_on_c, 2, 59, 53
1, 31200, Note_on_c, 2, 53, 49
1, 31200, Note_on_c, 2, 56, 54
1, 31200, Note_on_c, 9, 42, 87
1, 31201, Note_on_c, 9, 42, 0
1, 31201, Note_on_c, 0, 56, 0
1, 31201, Note_on_c, 0, 65, 0
1, 31222, Note_on_c, 2, 53, 0
1, 31222, Note_on_c, 2, 59, 0
1, 31222, Note_on_c, 2, 56, 0
1, 31222, Note_on_c, 2, 63, 0
1, 31222, Note_on_c, 0, 65, 59
1, 31222, Note_on_c, 0, 59, 87
1, 31222, Note_on_c, 0, 56, 56
1, 31222, Note_on_c, 0, 63, 63
1, 31224, Note_on_c, 2, 56, 58
1, 31224, Note_on_c, 2, 59, 61
1, 31224, Note_on_c, 2, 63, 56
1, 31224, Note_on_c, 2, 53, 59
1, 31225, Note_on_c, 9, 44, 57
1, 31226, Note_on_c, 9, 44, 0
1, 31234, Note_on_c, 2, 56, 0
1, 31234, Note_on_c, 2, 59, 0
1, 31236, Note_on_c, 2, 63, 0
1, 31238, Note_on_c, 2, 53, 0
1, 31239, Note_on_c, 0, 65, 0
1, 31239, Note_on_c, 0, 59, 0
1, 31241, Note_on_c, 0, 63, 0
1, 31245, Note_on_c, 0, 56, 0
1, 31247, Note_on_c, 9, 69, 35
1, 31247, Note_on_c, 9, 42, 44
1, 31248, Note_on_c, 9, 42, 0
1, 31248, Note_on_c, 9, 69, 0
1, 31248, Note_on_c, 2, 53, 53
1, 31248, Note_on_c, 2, 59, 60
1, 31248, Note_on_c, 2, 63, 55
1, 31248, Note_on_c, 2, 56, 47
1, 31249, Note_on_c, 0, 49, 53
1, 31254, Note_on_c, 0, 49, 0
1, 31270, Note_on_c, 2, 56, 0
1, 31270, Note_on_c, 2, 59, 0
1, 31270, Note_on_c, 2, 53, 0
1, 31270, Note_on_c, 2, 63, 0
1, 31270, Note_on_c, 9, 69, 25
1, 31271, Note_on_c, 9, 69, 0
1, 31271, Note_on_c, 1, 32, 70
1, 31271, Note_on_c, 9, 42, 46
1, 31271, Note_on_c, 9, 36, 105
1, 31271, Note_on_c, 11, 32, 66
1, 31272, Note_on_c, 9, 36, 0
1, 31272, Note_on_c, 9, 42, 0
1, 31272, Note_on_c, 2, 53, 59
1, 31272, Note_on_c, 2, 63, 65
1, 31272, Note_on_c, 2, 56, 60
1, 31272, Note_on_c, 2, 59, 72
1, 31274, Note_on_c, 0, 49, 60
1, 31285, Note_on_c, 0, 49, 0
1, 31290, Note_on_c, 1, 32, 0
1, 31290, Note_on_c, 11, 32, 0
1, 31294, Note_on_c, 2, 56, 0
1, 31294, Note_on_c, 2, 63, 0
1, 31294, Note_on_c, 2, 59, 0
1, 31294, Note_on_c, 2, 53, 0
1, 31294, Note_on_c, 0, 59, 89
1, 31294, Note_on_c, 0, 56, 65
1, 31294, Note_on_c, 0, 65, 66
1, 31294, Note_on_c, 1, 37, 88
1, 31294, Note_on_c, 9, 36, 67
1, 31294, Note_on_c, 11, 37, 84
1, 31295, Note_on_c, 9, 36, 0
1, 31296, Note_on_c, 0, 63, 69
1, 31296, Note_on_c, 2, 56, 62
1, 31296, Note_on_c, 2, 59, 75
1, 31296, Note_on_c, 2, 53, 59
1, 31296, Note_on_c, 2, 63, 65
1, 31296, Note_on_c, 9, 42, 70
1, 31297, Note_on_c, 9, 42, 0
1, 31314, Note_on_c, 0, 63, 0
1, 31317, Note_on_c, 0, 59, 0
1, 31318, Note_on_c, 0, 56, 0
1, 31319, Note_on_c, 1, 32, 69
1, 31319, Note_on_c, 9, 44, 52
1, 31319, Note_on_c, 11, 32, 65
1, 31320, Note_on_c, 9, 44, 0
1, 31320, Note_on_c, 11, 37, 0
1, 31320, Note_on_c, 1, 37, 0
1, 31322, Note_on_c, 0, 65, 0
1, 31342, Note_on_c, 2, 56, 0
1, 31342, Note_on_c, 2, 53, 0
1, 31342, Note_on_c, 2, 59, 0
1, 31342, Note_on_c, 2, 63, 0
1, 31342, Note_on_c, 0, 65, 63
1, 31342, Note_on_c, 0, 59, 87
1, 31342, Note_on_c, 0, 56, 62
1, 31342, Note_on_c, 9, 69, 45
1, 31343, Note_on_c, 9, 69, 0
1, 31343, Note_on_c, 0, 63, 73
1, 31343, Note_on_c, 1, 37, 91
1, 31343, Note_on_c, 9, 36, 107
1, 31343, Note_on_c, 9, 42, 46
1, 31343, Note_on_c, 11, 37, 87
1, 31344, Note_on_c, 9, 42, 0
1, 31344, Note_on_c, 9, 36, 0
1, 31344, Note_on_c, 2, 56, 63
1, 31344, Note_on_c, 2, 59, 95
1, 31344, Note_on_c, 2, 63, 95
1, 31344, Note_on_c, 2, 53, 64
1, 31345, Note_on_c, 1, 32, 0
1, 31345, Note_on_c, 11, 32, 0
1, 31350, Note_on_c, 2, 59, 0
1, 31350, Note_on_c, 2, 56, 0
1, 31352, Note_on_c, 2, 63, 0
1, 31352, Note_on_c, 2, 53, 0
1, 31366, Note_on_c, 9, 69, 26
1, 31367, Note_on_c, 9, 69, 0
1, 31367, Note_on_c, 1, 37, 0
1, 31367, Note_on_c, 11, 37, 0
1, 31367, Note_on_c, 9, 42, 37
1, 31368, Note_on_c, 9, 42, 0
1, 31368, Note_on_c, 2, 59, 60
1, 31368, Note_on_c, 2, 56, 54
1, 31368, Note_on_c, 2, 53, 59
1, 31368, Note_on_c, 2, 63, 58
1, 31390, Note_on_c, 2, 63, 0
1, 31390, Note_on_c, 2, 56, 0
1, 31390, Note_on_c, 2, 59, 0
1, 31390, Note_on_c, 0, 49, 64
1, 31391, Note_on_c, 0, 63, 0
1, 31391, Note_on_c, 9, 40, 110
1, 31391, Note_on_c, 9, 42, 91
1, 31391, Note_on_c, 9, 75, 82
1, 31392, Note_on_c, 9, 75, 0
1, 31392, Note_on_c, 9, 42, 0
1, 31392, Note_on_c, 9, 40, 0
1, 31392, Note_on_c, 2, 59, 59
1, 31392, Note_on_c, 2, 56, 47
1, 31392, Note_on_c, 2, 63, 52
1, 31395, Note_on_c, 0, 59, 0
1, 31397, Note_on_c, 0, 65, 0
1, 31398, Note_on_c, 0, 56, 0
1, 31410, Note_on_c, 0, 49, 0
1, 31414, Note_on_c, 2, 59, 0
1, 31414, Note_on_c, 2, 53, 0
1, 31414, Note_on_c, 2, 63, 0
1, 31414, Note_on_c, 2, 56, 0
1, 31414, Note_on_c, 0, 56, 61
1, 31414, Note_on_c, 0, 65, 61
1, 31414, Note_on_c, 0, 59, 80
1, 31414, Note_on_c, 1, 32, 73
1, 31414, Note_on_c, 11, 32, 69
1, 31415, Note_on_c, 0, 63, 68
1, 31415, Note_on_c, 9, 44, 52
1, 31416, Note_on_c, 9, 44, 0
1, 31416, Note_on_c, 2, 56, 60
1, 31416, Note_on_c, 2, 53, 59
1, 31416, Note_on_c, 2, 59, 67
1, 31416, Note_on_c, 2, 63, 61
1, 31424, Note_on_c, 2, 56, 0
1, 31425, Note_on_c, 2, 59, 0
1, 31428, Note_on_c, 2, 53, 0
1, 31428, Note_on_c, 2, 63, 0
1, 31430, Note_on_c, 0, 63, 0
1, 31433, Note_on_c, 0, 65, 0
1, 31434, Note_on_c, 0, 59, 0
1, 31435, Note_on_c, 11, 32, 0
1, 31435, Note_on_c, 1, 32, 0
1, 31438, Note_on_c, 1, 35, 86
1, 31438, Note_on_c, 9, 69, 39
1, 31438, Note_on_c, 11, 35, 82
1, 31439, Note_on_c, 9, 69, 0
1, 31439, Note_on_c, 9, 42, 48
1, 31440, Note_on_c, 9, 42, 0
1, 31440, Note_on_c, 2, 56, 50
1, 31440, Note_on_c, 2, 53, 47
1, 31440, Note_on_c, 2, 59, 61
1, 31440, Note_on_c, 2, 63, 57
1, 31442, Note_on_c, 3, 63, 0
1, 31442, Note_on_c, 0, 56, 0
1, 31442, Note_on_c, 0, 49, 47
1, 31447, Note_on_c, 0, 49, 0
1, 31455, Note_on_c, 11, 35, 0
1, 31455, Note_on_c, 1, 35, 0
1, 31458, Note_on_c, 2, 53, 0
1, 31460, Note_on_c, 2, 59, 0
1, 31460, Note_on_c, 2, 56, 0
1, 31461, Note_on_c, 2, 63, 0
1, 31462, Note_on_c, 1, 36, 80
1, 31462, Note_on_c, 9, 69, 25
1, 31462, Note_on_c, 11, 36, 76
1, 31463, Note_on_c, 9, 69, 0
1, 31463, Note_on_c, 9, 42, 48
1, 31464, Note_on_c, 9, 42, 0
1, 31464, Note_on_c, 2, 61, 58
1, 31464, Note_on_c, 2, 63, 61
1, 31464, Note_on_c, 2, 58, 60
1, 31464, Note_on_c, 2, 54, 58
1, 31466, Note_on_c, 0, 49, 54
1, 31480, Note_on_c, 0, 49, 0
1, 31486, Note_on_c, 11, 36, 0
1, 31486, Note_on_c, 2, 54, 0
1, 31486, Note_on_c, 2, 61, 0
1, 31486, Note_on_c, 2, 58, 0
1, 31486, Note_on_c, 1, 36, 0
1, 31486, Note_on_c, 2, 63, 0
1, 31486, Note_on_c, 1, 37, 92
1, 31486, Note_on_c, 11, 37, 88
1, 31487, Note_on_c, 0, 63, 65
1, 31487, Note_on_c, 0, 58, 68
1, 31487, Note_on_c, 9, 36, 113
1, 31488, Note_on_c, 9, 36, 0
1, 31488, Note_on_c, 4, 63, 0
1, 31488, Note_on_c, 4, 51, 0
1, 31488, Note_on_c, 0, 61, 65
1, 31488, Note_on_c, 0, 54, 71
1, 31488, Note_on_c, 2, 63, 68
1, 31488, Note_on_c, 2, 61, 65
1, 31488, Note_on_c, 2, 58, 67
1, 31488, Note_on_c, 2, 54, 59
1, 31488, Note_on_c, 9, 42, 73
1, 31489, Note_on_c, 9, 42, 0
1, 31500, Note_on_c, 0, 61, 0
1, 31502, Note_on_c, 0, 58, 0
1, 31510, Note_on_c, 0, 61, 57
1, 31510, Note_on_c, 0, 58, 53
1, 31512, Note_on_c, 9, 44, 42
1, 31513, Note_on_c, 9, 44, 0
1, 31526, Note_on_c, 11, 37, 0
1, 31526, Note_on_c, 1, 37, 0
1, 31530, Note_on_c, 0, 58, 0
1, 31533, Note_on_c, 0, 61, 0
1, 31534, Note_on_c, 2, 63, 0
1, 31534, Note_on_c, 0, 63, 0
1, 31534, Note_on_c, 2, 58, 0
1, 31534, Note_on_c, 2, 61, 0
1, 31534, Note_on_c, 2, 54, 0
1, 31534, Note_on_c, 9, 69, 35
1, 31535, Note_on_c, 9, 69, 0
1, 31535, Note_on_c, 0, 54, 0
1, 31535, Note_on_c, 9, 42, 42
1, 31536, Note_on_c, 9, 42, 0
1, 31536, Note_on_c, 2, 63, 96
1, 31536, Note_on_c, 2, 58, 96
1, 31536, Note_on_c, 2, 54, 96
1, 31536, Note_on_c, 2, 61, 96
1, 31538, Note_on_c, 0, 49, 70
1, 31544, Note_on_c, 2, 61, 0
1, 31544, Note_on_c, 2, 58, 0
1, 31544, Note_on_c, 2, 63, 0
1, 31548, Note_on_c, 2, 54, 0
1, 31553, Note_on_c, 0, 49, 0
1, 31558, Note_on_c, 0, 63, 61
1, 31559, Note_on_c, 9, 42, 42
1, 31560, Note_on_c, 9, 42, 0
1, 31560, Note_on_c, 0, 58, 64
1, 31560, Note_on_c, 2, 63, 59
1, 31560, Note_on_c, 2, 61, 71
1, 31560, Note_on_c, 2, 58, 60
1, 31560, Note_on_c, 2, 54, 66
1, 31560, Note_on_c, 9, 69, 24
1, 31561, Note_on_c, 9, 69, 0
1, 31561, Note_on_c, 0, 54, 58
1, 31561, Note_on_c, 0, 61, 63
1, 31578, Note_on_c, 0, 63, 0
1, 31579, Note_on_c, 0, 58, 0
1, 31581, Note_on_c, 3, 61, 86
1, 31582, Note_on_c, 2, 61, 0
1, 31582, Note_on_c, 0, 61, 0
1, 31582, Note_on_c, 2, 58, 0
1, 31582, Note_on_c, 2, 54, 0
1, 31583, Note_on_c, 0, 49, 50
1, 31583, Note_on_c, 9, 40, 104
1, 31583, Note_on_c, 9, 75, 76
1, 31584, Note_on_c, 9, 75, 0
1, 31584, Note_on_c, 9, 40, 0
1, 31584, Note_on_c, 2, 54, 60
1, 31584, Note_on_c, 2, 58, 52
1, 31584, Note_on_c, 2, 61, 58
1, 31584, Note_on_c, 4, 61, 69
1, 31584, Note_on_c, 4, 49, 69
1, 31584, Note_on_c, 9, 42, 81
1, 31585, Note_on_c, 9, 42, 0
1, 31586, Note_on_c, 0, 54, 0
1, 31591, Note_on_c, 0, 49, 0
1, 31606, Note_on_c, 2, 63, 0
1, 31606, Note_on_c, 2, 58, 0
1, 31606, Note_on_c, 2, 54, 0
1, 31606, Note_on_c, 2, 61, 0
1, 31607, Note_on_c, 3, 61, 0
1, 31607, Note_on_c, 9, 44, 43
1, 31608, Note_on_c, 9, 44, 0
1, 31608, Note_on_c, 4, 61, 0
1, 31608, Note_on_c, 4, 49, 0
1, 31608, Note_on_c, 0, 54, 65
1, 31608, Note_on_c, 0, 58, 68
1, 31608, Note_on_c, 0, 63, 62
1, 31608, Note_on_c, 2, 54, 58
1, 31608, Note_on_c, 2, 58, 49
1, 31608, Note_on_c, 2, 61, 54
1, 31608, Note_on_c, 2, 63, 46
1, 31608, Note_on_c, 3, 68, 82
1, 31608, Note_on_c, 4, 56, 69
1, 31608, Note_on_c, 4, 68, 69
1, 31609, Note_on_c, 0, 61, 69
1, 31617, Note_on_c, 2, 61, 0
1, 31620, Note_on_c, 2, 58, 0
1, 31621, Note_on_c, 2, 63, 0
1, 31622, Note_on_c, 2, 54, 0
1, 31627, Note_on_c, 0, 63, 0
1, 31629, Note_on_c, 0, 58, 0
1, 31630, Note_on_c, 0, 61, 0
1, 31630, Note_on_c, 9, 69, 45
1, 31631, Note_on_c, 9, 69, 0
1, 31631, Note_on_c, 9, 42, 50
1, 31632, Note_on_c, 9, 42, 0
1, 31632, Note_on_c, 2, 63, 58
1, 31632, Note_on_c, 2, 61, 61
1, 31632, Note_on_c, 2, 58, 58
1, 31632, Note_on_c, 2, 54, 53
1, 31641, Note_on_c, 0, 54, 0
1, 31650, Note_on_c, 2, 61, 0
1, 31654, Note_on_c, 2, 54, 0
1, 31654, Note_on_c, 2, 63, 0
1, 31654, Note_on_c, 2, 58, 0
1, 31654, Note_on_c, 9, 69, 34
1, 31655, Note_on_c, 9, 69, 0
1, 31655, Note_on_c, 1, 32, 72
1, 31655, Note_on_c, 9, 42, 43
1, 31655, Note_on_c, 11, 32, 68
1, 31656, Note_on_c, 9, 42, 0
1, 31656, Note_on_c, 4, 68, 0
1, 31656, Note_on_c, 4, 56, 0
1, 31656, Note_on_c, 0, 49, 50
1, 31656, Note_on_c, 2, 63, 65
1, 31656, Note_on_c, 2, 61, 59
1, 31656, Note_on_c, 2, 58, 61
1, 31656, Note_on_c, 2, 54, 61
1, 31656, Note_on_c, 3, 66, 83
1, 31656, Note_on_c, 4, 66, 69
1, 31656, Note_on_c, 4, 54, 69
1, 31657, Note_on_c, 9, 36, 110
1, 31658, Note_on_c, 9, 36, 0
1, 31662, Note_on_c, 3, 68, 0
1, 31672, Note_on_c, 0, 49, 0
1, 31676, Note_on_c, 1, 32, 0
1, 31676, Note_on_c, 11, 32, 0
1, 31678, Note_on_c, 2, 54, 0
1, 31678, Note_on_c, 2, 58, 0
1, 31678, Note_on_c, 2, 63, 0
1, 31678, Note_on_c, 2, 61, 0
1, 31678, Note_on_c, 0, 63, 61
1, 31678, Note_on_c, 0, 54, 77
1, 31678, Note_on_c, 0, 61, 68
1, 31678, Note_on_c, 0, 58, 92
1, 31679, Note_on_c, 1, 37, 82
1, 31679, Note_on_c, 9, 36, 64
1, 31679, Note_on_c, 11, 37, 78
1, 31680, Note_on_c, 9, 36, 0
1, 31680, Note_on_c, 2, 58, 65
1, 31680, Note_on_c, 2, 61, 61
1, 31680, Note_on_c, 2, 54, 63
1, 31680, Note_on_c, 2, 63, 65
1, 31680, Note_on_c, 9, 42, 85
1, 31681, Note_on_c, 9, 42, 0
1, 31698, Note_on_c, 0, 58, 0
1, 31698, Note_on_c, 0, 61, 0
1, 31700, Note_on_c, 1, 37, 0
1, 31700, Note_on_c, 11, 37, 0
1, 31702, Note_on_c, 0, 63, 0
1, 31702, Note_on_c, 0, 54, 0
1, 31703, Note_on_c, 1, 32, 72
1, 31703, Note_on_c, 9, 44, 42
1, 31703, Note_on_c, 11, 32, 68
1, 31704, Note_on_c, 9, 44, 0
1, 31704, Note_on_c, 3, 66, 0
1, 31704, Note_on_c, 4, 66, 0
1, 31704, Note_on_c, 4, 54, 0
1, 31704, Note_on_c, 4, 65, 68
1, 31704, Note_on_c, 4, 53, 68
1, 31705, Note_on_c, 3, 65, 84
1, 31725, Note_on_c, 1, 32, 0
1, 31725, Note_on_c, 11, 32, 0
1, 31726, Note_on_c, 2, 54, 0
1, 31726, Note_on_c, 2, 63, 0
1, 31726, Note_on_c, 2, 58, 0
1, 31726, Note_on_c, 2, 61, 0
1, 31726, Note_on_c, 0, 61, 69
1, 31726, Note_on_c, 0, 58, 63
1, 31726, Note_on_c, 0, 63, 65
1, 31726, Note_on_c, 0, 54, 62
1, 31726, Note_on_c, 9, 69, 43
1, 31727, Note_on_c, 9, 69, 0
1, 31727, Note_on_c, 1, 37, 86
1, 31727, Note_on_c, 11, 37, 82
1, 31728, Note_on_c, 2, 61, 97
1, 31728, Note_on_c, 2, 54, 97
1, 31728, Note_on_c, 2, 58, 97
1, 31728, Note_on_c, 2, 63, 97
1, 31728, Note_on_c, 9, 42, 54
1, 31729, Note_on_c, 9, 42, 0
1, 31729, Note_on_c, 9, 36, 113
1, 31730, Note_on_c, 9, 36, 0
1, 31734, Note_on_c, 2, 58, 0
1, 31734, Note_on_c, 2, 63, 0
1, 31734, Note_on_c, 2, 61, 0
1, 31736, Note_on_c, 2, 54, 0
1, 31748, Note_on_c, 3, 63, 67
1, 31750, Note_on_c, 3, 65, 0
1, 31750, Note_on_c, 9, 69, 32
1, 31751, Note_on_c, 9, 69, 0
1, 31751, Note_on_c, 9, 42, 49
1, 31752, Note_on_c, 9, 42, 0
1, 31752, Note_on_c, 4, 65, 0
1, 31752, Note_on_c, 4, 53, 0
1, 31752, Note_on_c, 2, 54, 62
1, 31752, Note_on_c, 2, 58, 62
1, 31752, Note_on_c, 2, 63, 61
1, 31752, Note_on_c, 2, 61, 63
1, 31752, Note_on_c, 4, 63, 70
1, 31752, Note_on_c, 4, 51, 70
1, 31754, Note_on_c, 11, 37, 0
1, 31754, Note_on_c, 1, 37, 0
1, 31762, Note_on_c, 3, 65, 68
1, 31764, Note_on_c, 3, 63, 0
1, 31764, Note_on_c, 4, 51, 0
1, 31764, Note_on_c, 4, 63, 0
1, 31764, Note_on_c, 4, 65, 71
1, 31764, Note_on_c, 4, 53, 71
1, 31774, Note_on_c, 2, 54, 0
1, 31774, Note_on_c, 2, 58, 0
1, 31774, Note_on_c, 2, 63, 0
1, 31775, Note_on_c, 0, 63, 0
1, 31775, Note_on_c, 0, 49, 61
1, 31775, Note_on_c, 3, 63, 82
1, 31776, Note_on_c, 4, 65, 0
1, 31776, Note_on_c, 4, 53, 0
1, 31776, Note_on_c, 2, 63, 45
1, 31776, Note_on_c, 2, 58, 50
1, 31776, Note_on_c, 2, 54, 63
1, 31776, Note_on_c, 4, 63, 71
1, 31776, Note_on_c, 4, 51, 71
1, 31776, Note_on_c, 9, 75, 76
1, 31777, Note_on_c, 9, 75, 0
1, 31777, Note_on_c, 0, 61, 0
1, 31777, Note_on_c, 0, 54, 0
1, 31777, Note_on_c, 9, 40, 105
1, 31777, Note_on_c, 9, 42, 73
1, 31778, Note_on_c, 9, 42, 0
1, 31778, Note_on_c, 9, 40, 0
1, 31779, Note_on_c, 0, 58, 0
1, 31779, Note_on_c, 3, 65, 0
1, 31793, Note_on_c, 0, 49, 0
1, 31798, Note_on_c, 2, 58, 0
1, 31798, Note_on_c, 2, 63, 0
1, 31798, Note_on_c, 2, 54, 0
1, 31798, Note_on_c, 2, 61, 0
1, 31798, Note_on_c, 0, 54, 65
1, 31798, Note_on_c, 0, 58, 69
1, 31798, Note_on_c, 0, 63, 68
1, 31798, Note_on_c, 0, 61, 69
1, 31799, Note_on_c, 9, 44, 45
1, 31800, Note_on_c, 9, 44, 0
1, 31800, Note_on_c, 2, 63, 61
1, 31800, Note_on_c, 2, 58, 60
1, 31800, Note_on_c, 2, 61, 64
1, 31800, Note_on_c, 2, 54, 63
1, 31812, Note_on_c, 2, 61, 0
1, 31812, Note_on_c, 2, 58, 0
1, 31813, Note_on_c, 2, 54, 0
1, 31814, Note_on_c, 2, 63, 0
1, 31822, Note_on_c, 9, 69, 35
1, 31823, Note_on_c, 9, 69, 0
1, 31823, Note_on_c, 1, 32, 70
1, 31823, Note_on_c, 9, 42, 51
1, 31823, Note_on_c, 11, 32, 66
1, 31824, Note_on_c, 9, 42, 0
1, 31824, Note_on_c, 4, 51, 0
1, 31824, Note_on_c, 4, 63, 0
1, 31824, Note_on_c, 3, 63, 0
1, 31824, Note_on_c, 2, 54, 58
1, 31824, Note_on_c, 2, 63, 57
1, 31824, Note_on_c, 2, 58, 54
1, 31824, Note_on_c, 2, 61, 62
1, 31824, Note_on_c, 4, 61, 71
1, 31824, Note_on_c, 4, 49, 71
1, 31825, Note_on_c, 3, 61, 69
1, 31833, Note_on_c, 0, 58, 0
1, 31834, Note_on_c, 0, 63, 0
1, 31837, Note_on_c, 0, 61, 0
1, 31841, Note_on_c, 0, 54, 0
1, 31845, Note_on_c, 11, 32, 0
1, 31845, Note_on_c, 1, 32, 0
1, 31846, Note_on_c, 2, 63, 0
1, 31846, Note_on_c, 2, 61, 0
1, 31846, Note_on_c, 2, 54, 0
1, 31847, Note_on_c, 4, 61, 0
1, 31847, Note_on_c, 4, 49, 0
1, 31847, Note_on_c, 1, 35, 88
1, 31847, Note_on_c, 9, 69, 25
1, 31847, Note_on_c, 9, 42, 43
1, 31847, Note_on_c, 11, 35, 84
1, 31848, Note_on_c, 9, 42, 0
1, 31848, Note_on_c, 9, 69, 0
1, 31848, Note_on_c, 0, 49, 58
1, 31848, Note_on_c, 2, 63, 81
1, 31848, Note_on_c, 2, 57, 64
1, 31848, Note_on_c, 2, 61, 76
1, 31848, Note_on_c, 2, 54, 63
1, 31848, Note_on_c, 4, 61, 71
1, 31848, Note_on_c, 4, 49, 71
1, 31850, Note_on_c, 3, 61, 0
1, 31854, Note_on_c, 3, 61, 71
1, 31862, Note_on_c, 0, 49, 0
1, 31865, Note_on_c, 1, 35, 0
1, 31865, Note_on_c, 11, 35, 0
1, 31870, Note_on_c, 2, 54, 0
1, 31870, Note_on_c, 2, 61, 0
1, 31870, Note_on_c, 2, 57, 0
1, 31870, Note_on_c, 2, 63, 0
1, 31870, Note_on_c, 0, 63, 67
1, 31871, Note_on_c, 0, 57, 84
1, 31871, Note_on_c, 0, 54, 64
1, 31871, Note_on_c, 1, 37, 88
1, 31871, Note_on_c, 9, 42, 87
1, 31871, Note_on_c, 9, 36, 110
1, 31871, Note_on_c, 11, 37, 84
1, 31872, Note_on_c, 9, 36, 0
1, 31872, Note_on_c, 9, 42, 0
1, 31872, Note_on_c, 0, 61, 67
1, 31872, Note_on_c, 2, 63, 77
1, 31872, Note_on_c, 2, 61, 67
1, 31872, Note_on_c, 2, 57, 63
1, 31872, Note_on_c, 2, 54, 59
1, 31886, Note_on_c, 0, 57, 0
1, 31887, Note_on_c, 0, 63, 0
1, 31895, Note_on_c, 0, 57, 66
1, 31895, Note_on_c, 9, 44, 42
1, 31896, Note_on_c, 9, 44, 0
1, 31896, Note_on_c, 0, 63, 52
1, 31910, Note_on_c, 11, 37, 0
1, 31910, Note_on_c, 1, 37, 0
1, 31915, Note_on_c, 0, 57, 0
1, 31916, Note_on_c, 0, 63, 0
1, 31918, Note_on_c, 2, 54, 0
1, 31918, Note_on_c, 2, 63, 0
1, 31918, Note_on_c, 2, 57, 0
1, 31918, Note_on_c, 2, 61, 0
1, 31918, Note_on_c, 0, 49, 67
1, 31919, Note_on_c, 0, 54, 0
1, 31919, Note_on_c, 9, 69, 34
1, 31919, Note_on_c, 9, 42, 55
1, 31920, Note_on_c, 9, 42, 0
1, 31920, Note_on_c, 9, 69, 0
1, 31920, Note_on_c, 0, 61, 0
1, 31920, Note_on_c, 2, 57, 96
1, 31920, Note_on_c, 2, 54, 96
1, 31920, Note_on_c, 2, 61, 96
1, 31920, Note_on_c, 2, 63, 96
1, 31926, Note_on_c, 2, 63, 0
1, 31926, Note_on_c, 2, 61, 0
1, 31926, Note_on_c, 2, 58, 0
1, 31928, Note_on_c, 2, 57, 0
1, 31930, Note_on_c, 2, 54, 0
1, 31938, Note_on_c, 0, 49, 0
1, 31942, Note_on_c, 0, 54, 59
1, 31942, Note_on_c, 0, 63, 63
1, 31942, Note_on_c, 0, 61, 67
1, 31942, Note_on_c, 0, 57, 77
1, 31943, Note_on_c, 9, 42, 54
1, 31944, Note_on_c, 9, 42, 0
1, 31944, Note_on_c, 2, 61, 61
1, 31944, Note_on_c, 2, 63, 59
1, 31944, Note_on_c, 2, 57, 62
1, 31944, Note_on_c, 2, 54, 59
1, 31944, Note_on_c, 9, 69, 27
1, 31945, Note_on_c, 9, 69, 0
1, 31964, Note_on_c, 0, 57, 0
1, 31964, Note_on_c, 0, 63, 0
1, 31966, Note_on_c, 2, 54, 0
1, 31966, Note_on_c, 2, 61, 0
1, 31966, Note_on_c, 2, 57, 0
1, 31966, Note_on_c, 0, 61, 0
1, 31966, Note_on_c, 2, 63, 0
1, 31966, Note_on_c, 0, 49, 54
1, 31967, Note_on_c, 0, 54, 0
1, 31967, Note_on_c, 9, 42, 94
1, 31967, Note_on_c, 9, 40, 104
1, 31968, Note_on_c, 9, 40, 0
1, 31968, Note_on_c, 9, 42, 0
1, 31968, Note_on_c, 2, 54, 62
1, 31968, Note_on_c, 2, 61, 58
1, 31968, Note_on_c, 2, 57, 58
1, 31968, Note_on_c, 2, 63, 53
1, 31968, Note_on_c, 9, 75, 79
1, 31969, Note_on_c, 9, 75, 0
1, 31973, Note_on_c, 0, 49, 0
1, 31990, Note_on_c, 2, 54, 0
1, 31990, Note_on_c, 2, 61, 0
1, 31990, Note_on_c, 2, 63, 0
1, 31990, Note_on_c, 2, 57, 0
1, 31990, Note_on_c, 0, 57, 81
1, 31990, Note_on_c, 0, 63, 65
1, 31991, Note_on_c, 0, 54, 60
1, 31991, Note_on_c, 0, 61, 68
1, 31991, Note_on_c, 9, 44, 43
1, 31992, Note_on_c, 9, 44, 0
1, 31992, Note_on_c, 2, 57, 62
1, 31992, Note_on_c, 2, 61, 61
1, 31992, Note_on_c, 2, 54, 60
1, 31992, Note_on_c, 2, 63, 60
1, 32000, Note_on_c, 2, 61, 0
1, 32001, Note_on_c, 2, 57, 0
1, 32002, Note_on_c, 2, 54, 0
1, 32002, Note_on_c, 2, 63, 0
1, 32004, Note_on_c, 0, 57, 0
1, 32005, Note_on_c, 0, 63, 0
1, 32008, Note_on_c, 0, 61, 0
1, 32011, Note_on_c, 0, 54, 0
1, 32014, Note_on_c, 9, 69, 37
1, 32015, Note_on_c, 9, 69, 0
1, 32015, Note_on_c, 9, 42, 44
1, 32016, Note_on_c, 9, 42, 0
1, 32016, Note_on_c, 2, 54, 61
1, 32016, Note_on_c, 2, 57, 59
1, 32016, Note_on_c, 2, 61, 63
1, 32016, Note_on_c, 2, 63, 56
1, 32032, Note_on_c, 3, 61, 0
1, 32036, Note_on_c, 2, 54, 0
1, 32036, Note_on_c, 2, 63, 0
1, 32036, Note_on_c, 3, 61, 80
1, 32038, Note_on_c, 2, 57, 0
1, 32038, Note_on_c, 2, 61, 0
1, 32038, Note_on_c, 1, 32, 72
1, 32038, Note_on_c, 11, 32, 68
1, 32039, Note_on_c, 4, 61, 0
1, 32039, Note_on_c, 4, 49, 0
1, 32039, Note_on_c, 9, 69, 33
1, 32039, Note_on_c, 9, 42, 55
1, 32040, Note_on_c, 9, 42, 0
1, 32040, Note_on_c, 9, 69, 0
1, 32040, Note_on_c, 2, 54, 69
1, 32040, Note_on_c, 2, 63, 76
1, 32040, Note_on_c, 2, 57, 67
1, 32040, Note_on_c, 2, 61, 81
1, 32040, Note_on_c, 4, 49, 72
1, 32040, Note_on_c, 4, 61, 72
1, 32041, Note_on_c, 0, 49, 70
1, 32041, Note_on_c, 9, 36, 105
1, 32042, Note_on_c, 9, 36, 0
1, 32048, Note_on_c, 0, 49, 0
1, 32059, Note_on_c, 11, 32, 0
1, 32059, Note_on_c, 1, 32, 0
1, 32062, Note_on_c, 2, 54, 0
1, 32062, Note_on_c, 2, 61, 0
1, 32062, Note_on_c, 2, 63, 0
1, 32062, Note_on_c, 2, 57, 0
1, 32062, Note_on_c, 0, 61, 65
1, 32062, Note_on_c, 0, 57, 79
1, 32062, Note_on_c, 0, 54, 61
1, 32062, Note_on_c, 0, 63, 64
1, 32062, Note_on_c, 1, 37, 85
1, 32062, Note_on_c, 3, 63, 77
1, 32062, Note_on_c, 11, 37, 81
1, 32063, Note_on_c, 9, 36, 69
1, 32063, Note_on_c, 9, 42, 78
1, 32064, Note_on_c, 9, 42, 0
1, 32064, Note_on_c, 4, 61, 0
1, 32064, Note_on_c, 4, 49, 0
1, 32064, Note_on_c, 9, 36, 0
1, 32064, Note_on_c, 2, 54, 63
1, 32064, Note_on_c, 2, 61, 56
1, 32064, Note_on_c, 2, 63, 65
1, 32064, Note_on_c, 2, 57, 56
1, 32064, Note_on_c, 4, 51, 72
1, 32064, Note_on_c, 4, 63, 72
1, 32066, Note_on_c, 3, 61, 0
1, 32080, Note_on_c, 0, 57, 0
1, 32081, Note_on_c, 0, 63, 0
1, 32082, Note_on_c, 0, 54, 0
1, 32083, Note_on_c, 0, 61, 0
1, 32085, Note_on_c, 1, 37, 0
1, 32085, Note_on_c, 11, 37, 0
1, 32086, Note_on_c, 1, 32, 68
1, 32086, Note_on_c, 11, 32, 64
1, 32087, Note_on_c, 3, 64, 77
1, 32087, Note_on_c, 9, 44, 49
1, 32088, Note_on_c, 9, 44, 0
1, 32088, Note_on_c, 4, 51, 0
1, 32088, Note_on_c, 4, 63, 0
1, 32088, Note_on_c, 4, 64, 72
1, 32088, Note_on_c, 4, 52, 72
1, 32089, Note_on_c, 3, 63, 0
1, 32109, Note_on_c, 1, 32, 0
1, 32109, Note_on_c, 11, 32, 0
1, 32110, Note_on_c, 2, 63, 0
1, 32110, Note_on_c, 2, 57, 0
1, 32110, Note_on_c, 2, 61, 0
1, 32110, Note_on_c, 2, 54, 0
1, 32110, Note_on_c, 0, 63, 68
1, 32110, Note_on_c, 1, 37, 88
1, 32110, Note_on_c, 9, 69, 37
1, 32110, Note_on_c, 11, 37, 84
1, 32111, Note_on_c, 9, 69, 0
1, 32111, Note_on_c, 0, 57, 80
1, 32111, Note_on_c, 9, 42, 46
1, 32111, Note_on_c, 9, 36, 107
1, 32112, Note_on_c, 9, 36, 0
1, 32112, Note_on_c, 9, 42, 0
1, 32112, Note_on_c, 4, 64, 0
1, 32112, Note_on_c, 4, 52, 0
1, 32112, Note_on_c, 0, 54, 58
1, 32112, Note_on_c, 2, 61, 99
1, 32112, Note_on_c, 2, 54, 99
1, 32112, Note_on_c, 2, 57, 99
1, 32112, Note_on_c, 2, 63, 99
1, 32112, Note_on_c, 4, 51, 72
1, 32112, Note_on_c, 4, 63, 72
1, 32113, Note_on_c, 0, 61, 67
1, 32114, Note_on_c, 3, 63, 70
1, 32118, Note_on_c, 2, 63, 0
1, 32118, Note_on_c, 2, 61, 0
1, 32118, Note_on_c, 3, 64, 0
1, 32120, Note_on_c, 2, 57, 0
1, 32124, Note_on_c, 2, 54, 0
1, 32134, Note_on_c, 9, 69, 27
1, 32135, Note_on_c, 9, 69, 0
1, 32135, Note_on_c, 3, 61, 77
1, 32135, Note_on_c, 9, 42, 42
1, 32136, Note_on_c, 9, 42, 0
1, 32136, Note_on_c, 4, 51, 0
1, 32136, Note_on_c, 4, 63, 0
1, 32136, Note_on_c, 3, 63, 0
1, 32136, Note_on_c, 2, 63, 60
1, 32136, Note_on_c, 2, 54, 61
1, 32136, Note_on_c, 2, 57, 60
1, 32136, Note_on_c, 2, 61, 62
1, 32136, Note_on_c, 4, 49, 72
1, 32136, Note_on_c, 4, 61, 72
1, 32145, Note_on_c, 1, 37, 0
1, 32145, Note_on_c, 11, 37, 0
1, 32149, Note_on_c, 0, 57, 0
1, 32150, Note_on_c, 0, 61, 0
1, 32151, Note_on_c, 0, 63, 0
1, 32153, Note_on_c, 0, 54, 0
1, 32158, Note_on_c, 2, 63, 0
1, 32158, Note_on_c, 2, 54, 0
1, 32158, Note_on_c, 2, 61, 0
1, 32158, Note_on_c, 0, 49, 73
1, 32159, Note_on_c, 9, 40, 107
1, 32160, Note_on_c, 9, 40, 0
1, 32160, Note_on_c, 4, 49, 0
1, 32160, Note_on_c, 4, 61, 0
1, 32160, Note_on_c, 2, 54, 60
1, 32160, Note_on_c, 2, 61, 54
1, 32160, Note_on_c, 2, 63, 54
1, 32160, Note_on_c, 4, 46, 72
1, 32160, Note_on_c, 4, 58, 72
1, 32160, Note_on_c, 9, 75, 79
1, 32160, Note_on_c, 9, 42, 87
1, 32161, Note_on_c, 9, 42, 0
1, 32161, Note_on_c, 9, 75, 0
1, 32162, Note_on_c, 3, 58, 68
1, 32166, Note_on_c, 0, 49, 0
1, 32168, Note_on_c, 3, 61, 0
1, 32178, Note_on_c, 2, 57, 0
1, 32178, Note_on_c, 2, 61, 0
1, 32178, Note_on_c, 2, 54, 0
1, 32178, Note_on_c, 2, 63, 0
1, 32183, Note_on_c, 9, 44, 44
1, 32184, Note_on_c, 9, 44, 0
1, 32184, Note_on_c, 0, 64, 79
1, 32184, Note_on_c, 0, 61, 68
1, 32184, Note_on_c, 0, 57, 81
1, 32184, Note_on_c, 0, 54, 62
1, 32184, Note_on_c, 2, 57, 65
1, 32184, Note_on_c, 2, 54, 61
1, 32184, Note_on_c, 2, 61, 63
1, 32184, Note_on_c, 2, 64, 81
1, 32206, Note_on_c, 0, 54, 0
1, 32206, Note_on_c, 9, 69, 39
1, 32207, Note_on_c, 9, 69, 0
1, 32207, Note_on_c, 0, 64, 0
1, 32207, Note_on_c, 0, 49, 53
1, 32207, Note_on_c, 1, 32, 74
1, 32207, Note_on_c, 9, 42, 48
1, 32207, Note_on_c, 11, 32, 70
1, 32208, Note_on_c, 9, 42, 0
1, 32208, Note_on_c, 0, 57, 0
1, 32211, Note_on_c, 0, 61, 0
1, 32214, Note_on_c, 0, 49, 0
1, 32230, Note_on_c, 1, 32, 0
1, 32230, Note_on_c, 11, 32, 0
1, 32231, Note_on_c, 1, 35, 92
1, 32231, Note_on_c, 9, 69, 27
1, 32231, Note_on_c, 9, 42, 43
1, 32231, Note_on_c, 11, 35, 88
1, 32232, Note_on_c, 9, 42, 0
1, 32232, Note_on_c, 9, 69, 0
1, 32232, Note_on_c, 2, 60, 64
1, 32232, Note_on_c, 2, 65, 71
1, 32233, Note_on_c, 3, 58, 0
1, 32234, Note_on_c, 0, 49, 58
1, 32247, Note_on_c, 0, 49, 0
1, 32251, Note_on_c, 1, 35, 0
1, 32251, Note_on_c, 11, 35, 0
1, 32253, Note_on_c, 2, 60, 0
1, 32253, Note_on_c, 2, 54, 0
1, 32253, Note_on_c, 2, 64, 0
1, 32253, Note_on_c, 2, 61, 0
1, 32253, Note_on_c, 2, 65, 0
1, 32253, Note_on_c, 2, 57, 0
1, 32255, Note_on_c, 0, 63, 68
1, 32255, Note_on_c, 0, 65, 73
1, 32255, Note_on_c, 1, 37, 97
1, 32255, Note_on_c, 9, 36, 115
1, 32255, Note_on_c, 9, 42, 87
1, 32255, Note_on_c, 11, 37, 93
1, 32256, Note_on_c, 9, 42, 0
1, 32256, Note_on_c, 9, 36, 0
1, 32256, Note_on_c, 2, 56, 61
1, 32256, Note_on_c, 2, 65, 70
1, 32256, Note_on_c, 2, 60, 74
1, 32257, Note_on_c, 0, 60, 77
1, 32257, Note_on_c, 0, 56, 62
1, 32271, Note_on_c, 0, 63, 0
1, 32273, Note_on_c, 0, 60, 0
1, 32279, Note_on_c, 9, 44, 41
1, 32280, Note_on_c, 9, 44, 0
1, 32280, Note_on_c, 4, 58, 0
1, 32280, Note_on_c, 4, 46, 0
1, 32281, Note_on_c, 0, 63, 66
1, 32281, Note_on_c, 0, 60, 69
1, 32294, Note_on_c, 1, 37, 0
1, 32294, Note_on_c, 11, 37, 0
1, 32298, Note_on_c, 0, 60, 0
1, 32302, Note_on_c, 2, 56, 0
1, 32302, Note_on_c, 2, 65, 0
1, 32302, Note_on_c, 0, 63, 0
1, 32302, Note_on_c, 2, 60, 0
1, 32302, Note_on_c, 9, 69, 46
1, 32303, Note_on_c, 9, 69, 0
1, 32303, Note_on_c, 0, 65, 0
1, 32303, Note_on_c, 0, 49, 70
1, 32303, Note_on_c, 9, 42, 52
1, 32304, Note_on_c, 9, 42, 0
1, 32304, Note_on_c, 2, 65, 102
1, 32304, Note_on_c, 2, 56, 102
1, 32304, Note_on_c, 2, 60, 102
1, 32306, Note_on_c, 0, 56, 0
1, 32312, Note_on_c, 2, 60, 0
1, 32313, Note_on_c, 2, 56, 0
1, 32314, Note_on_c, 0, 49, 0
1, 32316, Note_on_c, 2, 65, 0
1, 32326, Note_on_c, 0, 60, 79
1, 32326, Note_on_c, 0, 56, 64
1, 32326, Note_on_c, 0, 65, 62
1, 32327, Note_on_c, 0, 63, 70
1, 32327, Note_on_c, 9, 69, 33
1, 32327, Note_on_c, 9, 42, 45
1, 32328, Note_on_c, 9, 42, 0
1, 32328, Note_on_c, 9, 69, 0
1, 32328, Note_on_c, 2, 60, 62
1, 32328, Note_on_c, 2, 65, 56
1, 32328, Note_on_c, 2, 56, 58
1, 32328, Note_on_c, 2, 53, 58
1, 32344, Note_on_c, 0, 60, 0
1, 32348, Note_on_c, 0, 49, 52
1, 32349, Note_on_c, 0, 63, 0
1, 32350, Note_on_c, 2, 53, 0
1, 32350, Note_on_c, 2, 65, 0
1, 32350, Note_on_c, 2, 60, 0
1, 32350, Note_on_c, 2, 56, 0
1, 32350, Note_on_c, 3, 61, 93
1, 32351, Note_on_c, 0, 56, 0
1, 32351, Note_on_c, 9, 40, 101
1, 32351, Note_on_c, 9, 75, 74
1, 32351, Note_on_c, 9, 42, 81
1, 32352, Note_on_c, 9, 42, 0
1, 32352, Note_on_c, 9, 40, 0
1, 32352, Note_on_c, 9, 75, 0
1, 32352, Note_on_c, 2, 56, 57
1, 32352, Note_on_c, 2, 65, 56
1, 32352, Note_on_c, 2, 53, 58
1, 32352, Note_on_c, 2, 60, 58
1, 32352, Note_on_c, 4, 49, 68
1, 32352, Note_on_c, 4, 61, 68
1, 32354, Note_on_c, 0, 49, 0
1, 32357, Note_on_c, 0, 65, 0
1, 32374, Note_on_c, 2, 56, 0
1, 32374, Note_on_c, 2, 53, 0
1, 32374, Note_on_c, 3, 61, 0
1, 32374, Note_on_c, 2, 65, 0
1, 32374, Note_on_c, 2, 60, 0
1, 32375, Note_on_c, 0, 65, 60
1, 32375, Note_on_c, 0, 60, 73
1, 32375, Note_on_c, 9, 44, 48
1, 32376, Note_on_c, 9, 44, 0
1, 32376, Note_on_c, 4, 49, 0
1, 32376, Note_on_c, 4, 61, 0
1, 32376, Note_on_c, 2, 56, 58
1, 32376, Note_on_c, 2, 53, 61
1, 32376, Note_on_c, 2, 60, 64
1, 32376, Note_on_c, 2, 65, 60
1, 32376, Note_on_c, 4, 70, 68
1, 32376, Note_on_c, 4, 58, 68
1, 32377, Note_on_c, 0, 56, 59
1, 32378, Note_on_c, 0, 63, 61
1, 32378, Note_on_c, 3, 70, 77
1, 32382, Note_on_c, 2, 56, 0
1, 32384, Note_on_c, 2, 60, 0
1, 32385, Note_on_c, 2, 53, 0
1, 32385, Note_on_c, 2, 65, 0
1, 32390, Note_on_c, 0, 60, 0
1, 32393, Note_on_c, 0, 63, 0
1, 32394, Note_on_c, 0, 56, 0
1, 32394, Note_on_c, 0, 65, 0
1, 32398, Note_on_c, 0, 49, 57
1, 32399, Note_on_c, 9, 69, 41
1, 32399, Note_on_c, 9, 42, 48
1, 32400, Note_on_c, 9, 42, 0
1, 32400, Note_on_c, 9, 69, 0
1, 32400, Note_on_c, 2, 60, 58
1, 32400, Note_on_c, 2, 56, 59
1, 32400, Note_on_c, 2, 65, 59
1, 32402, Note_on_c, 0, 49, 0
1, 32406, Note_on_c, 3, 70, 0
1, 32422, Note_on_c, 2, 60, 0
1, 32422, Note_on_c, 2, 65, 0
1, 32423, Note_on_c, 0, 49, 66
1, 32423, Note_on_c, 1, 32, 69
1, 32423, Note_on_c, 3, 68, 81
1, 32423, Note_on_c, 9, 42, 42
1, 32423, Note_on_c, 9, 36, 104
1, 32423, Note_on_c, 11, 32, 65
1, 32424, Note_on_c, 9, 36, 0
1, 32424, Note_on_c, 9, 42, 0
1, 32424, Note_on_c, 4, 70, 0
1, 32424, Note_on_c, 4, 58, 0
1, 32424, Note_on_c, 2, 53, 60
1, 32424, Note_on_c, 2, 65, 67
1, 32424, Note_on_c, 2, 60, 65
1, 32424, Note_on_c, 4, 56, 69
1, 32424, Note_on_c, 4, 68, 69
1, 32424, Note_on_c, 9, 69, 33
1, 32425, Note_on_c, 9, 69, 0
1, 32435, Note_on_c, 0, 49, 0
1, 32440, Note_on_c, 1, 32, 0
1, 32440, Note_on_c, 11, 32, 0
1, 32445, Note_on_c, 0, 65, 64
1, 32446, Note_on_c, 2, 60, 0
1, 32446, Note_on_c, 2, 65, 0
1, 32446, Note_on_c, 2, 53, 0
1, 32446, Note_on_c, 2, 56, 0
1, 32446, Note_on_c, 0, 56, 67
1, 32446, Note_on_c, 0, 63, 75
1, 32446, Note_on_c, 0, 60, 79
1, 32447, Note_on_c, 1, 37, 81
1, 32447, Note_on_c, 9, 36, 67
1, 32447, Note_on_c, 11, 37, 77
1, 32448, Note_on_c, 9, 36, 0
1, 32448, Note_on_c, 2, 65, 87
1, 32448, Note_on_c, 2, 53, 52
1, 32448, Note_on_c, 2, 60, 75
1, 32448, Note_on_c, 2, 56, 48
1, 32448, Note_on_c, 9, 42, 83
1, 32449, Note_on_c, 9, 42, 0
1, 32457, Note_on_c, 3, 68, 0
1, 32466, Note_on_c, 0, 60, 0
1, 32468, Note_on_c, 0, 63, 0
1, 32470, Note_on_c, 1, 37, 0
1, 32470, Note_on_c, 0, 65, 0
1, 32470, Note_on_c, 11, 37, 0
1, 32470, Note_on_c, 1, 32, 56
1, 32470, Note_on_c, 3, 66, 86
1, 32470, Note_on_c, 11, 32, 52
1, 32471, Note_on_c, 9, 44, 42
1, 32472, Note_on_c, 9, 44, 0
1, 32472, Note_on_c, 4, 68, 0
1, 32472, Note_on_c, 4, 56, 0
1, 32472, Note_on_c, 4, 66, 69
1, 32472, Note_on_c, 4, 54, 69
1, 32474, Note_on_c, 0, 56, 0
1, 32494, Note_on_c, 1, 32, 0
1, 32494, Note_on_c, 2, 53, 0
1, 32494, Note_on_c, 11, 32, 0
1, 32494, Note_on_c, 2, 56, 0
1, 32494, Note_on_c, 2, 60, 0
1, 32494, Note_on_c, 2, 65, 0
1, 32494, Note_on_c, 0, 56, 63
1, 32494, Note_on_c, 0, 63, 73
1, 32494, Note_on_c, 0, 65, 67
1, 32494, Note_on_c, 0, 60, 80
1, 32494, Note_on_c, 9, 69, 41
1, 32495, Note_on_c, 9, 69, 0
1, 32495, Note_on_c, 3, 66, 0
1, 32495, Note_on_c, 1, 37, 82
1, 32495, Note_on_c, 9, 42, 46
1, 32495, Note_on_c, 9, 36, 105
1, 32495, Note_on_c, 11, 37, 78
1, 32496, Note_on_c, 9, 36, 0
1, 32496, Note_on_c, 9, 42, 0
1, 32496, Note_on_c, 2, 53, 103
1, 32496, Note_on_c, 2, 60, 103
1, 32496, Note_on_c, 2, 65, 103
1, 32496, Note_on_c, 2, 56, 103
1, 32501, Note_on_c, 2, 56, 0
1, 32502, Note_on_c, 2, 60, 0
1, 32502, Note_on_c, 2, 65, 0
1, 32506, Note_on_c, 2, 53, 0
1, 32518, Note_on_c, 9, 69, 23
1, 32519, Note_on_c, 9, 69, 0
1, 32519, Note_on_c, 9, 42, 55
1, 32520, Note_on_c, 9, 42, 0
1, 32520, Note_on_c, 4, 54, 0
1, 32520, Note_on_c, 4, 66, 0
1, 32520, Note_on_c, 2, 53, 60
1, 32520, Note_on_c, 2, 56, 59
1, 32520, Note_on_c, 2, 60, 64
1, 32520, Note_on_c, 2, 63, 63
1, 32520, Note_on_c, 4, 65, 69
1, 32520, Note_on_c, 4, 53, 69
1, 32522, Note_on_c, 3, 65, 93
1, 32525, Note_on_c, 11, 37, 0
1, 32525, Note_on_c, 1, 37, 0
1, 32539, Note_on_c, 0, 60, 0
1, 32542, Note_on_c, 2, 60, 0
1, 32542, Note_on_c, 2, 63, 0
1, 32542, Note_on_c, 0, 63, 0
1, 32542, Note_on_c, 2, 53, 0
1, 32542, Note_on_c, 0, 49, 69
1, 32543, Note_on_c, 0, 65, 0
1, 32543, Note_on_c, 9, 40, 105
1, 32543, Note_on_c, 9, 75, 79
1, 32543, Note_on_c, 9, 42, 81
1, 32544, Note_on_c, 9, 42, 0
1, 32544, Note_on_c, 9, 75, 0
1, 32544, Note_on_c, 9, 40, 0
1, 32544, Note_on_c, 2, 63, 63
1, 32544, Note_on_c, 2, 53, 43
1, 32544, Note_on_c, 2, 60, 61
1, 32546, Note_on_c, 0, 56, 0
1, 32550, Note_on_c, 3, 65, 0
1, 32560, Note_on_c, 0, 49, 0
1, 32566, Note_on_c, 2, 63, 0
1, 32566, Note_on_c, 2, 56, 0
1, 32566, Note_on_c, 2, 60, 0
1, 32566, Note_on_c, 2, 53, 0
1, 32566, Note_on_c, 0, 60, 79
1, 32566, Note_on_c, 0, 56, 64
1, 32566, Note_on_c, 0, 63, 73
1, 32566, Note_on_c, 0, 65, 64
1, 32567, Note_on_c, 9, 44, 46
1, 32568, Note_on_c, 9, 44, 0
1, 32568, Note_on_c, 4, 65, 0
1, 32568, Note_on_c, 4, 53, 0
1, 32568, Note_on_c, 2, 60, 63
1, 32568, Note_on_c, 2, 63, 61
1, 32568, Note_on_c, 2, 53, 59
1, 32568, Note_on_c, 2, 56, 58
1, 32568, Note_on_c, 4, 49, 70
1, 32568, Note_on_c, 4, 61, 70
1, 32569, Note_on_c, 3, 61, 74
1, 32574, Note_on_c, 2, 56, 0
1, 32576, Note_on_c, 2, 60, 0
1, 32577, Note_on_c, 2, 63, 0
1, 32578, Note_on_c, 2, 53, 0
1, 32590, Note_on_c, 0, 63, 0
1, 32590, Note_on_c, 0, 60, 0
1, 32590, Note_on_c, 9, 69, 46
1, 32591, Note_on_c, 9, 69, 0
1, 32591, Note_on_c, 0, 65, 0
1, 32591, Note_on_c, 1, 32, 81
1, 32591, Note_on_c, 9, 42, 45
1, 32591, Note_on_c, 11, 32, 77
1, 32592, Note_on_c, 9, 42, 0
1, 32592, Note_on_c, 2, 63, 58
1, 32592, Note_on_c, 2, 60, 58
1, 32592, Note_on_c, 2, 56, 59
1, 32594, Note_on_c, 0, 56, 0
1, 32606, Note_on_c, 2, 56, 0
1, 32608, Note_on_c, 2, 60, 0
1, 32610, Note_on_c, 2, 63, 0
1, 32614, Note_on_c, 1, 32, 0
1, 32614, Note_on_c, 11, 32, 0
1, 32614, Note_on_c, 9, 69, 27
1, 32615, Note_on_c, 9, 69, 0
1, 32615, Note_on_c, 1, 34, 80
1, 32615, Note_on_c, 9, 42, 47
1, 32615, Note_on_c, 11, 34, 76
1, 32616, Note_on_c, 9, 42, 0
1, 32616, Note_on_c, 4, 49, 0
1, 32616, Note_on_c, 4, 61, 0
1, 32616, Note_on_c, 3, 61, 0
1, 32616, Note_on_c, 2, 59, 59
1, 32616, Note_on_c, 2, 53, 54
1, 32616, Note_on_c, 2, 63, 58
1, 32616, Note_on_c, 2, 56, 58
1, 32616, Note_on_c, 3, 64, 87
1, 32616, Note_on_c, 4, 64, 69
1, 32616, Note_on_c, 4, 52, 69
1, 32618, Note_on_c, 0, 49, 57
1, 32628, Note_on_c, 0, 49, 0
1, 32638, Note_on_c, 2, 59, 0
1, 32638, Note_on_c, 2, 56, 0
1, 32638, Note_on_c, 2, 53, 0
1, 32638, Note_on_c, 2, 63, 0
1, 32638, Note_on_c, 0, 56, 63
1, 32638, Note_on_c, 0, 59, 84
1, 32638, Note_on_c, 0, 63, 64
1, 32638, Note_on_c, 0, 65, 66
1, 32639, Note_on_c, 11, 34, 0
1, 32639, Note_on_c, 1, 34, 0
1, 32639, Note_on_c, 1, 37, 84
1, 32639, Note_on_c, 9, 36, 115
1, 32639, Note_on_c, 11, 37, 80
1, 32640, Note_on_c, 9, 36, 0
1, 32640, Note_on_c, 2, 53, 54
1, 32640, Note_on_c, 2, 59, 71
1, 32640, Note_on_c, 2, 56, 53
1, 32640, Note_on_c, 2, 63, 68
1, 32641, Note_on_c, 9, 42, 81
1, 32642, Note_on_c, 9, 42, 0
1, 32651, Note_on_c, 0, 59, 0
1, 32653, Note_on_c, 0, 63, 0
1, 32654, Note_on_c, 0, 65, 0
1, 32654, Note_on_c, 0, 56, 0
1, 32656, Note_on_c, 3, 64, 0
1, 32661, Note_on_c, 3, 61, 69
1, 32662, Note_on_c, 0, 63, 57
1, 32662, Note_on_c, 0, 56, 52
1, 32662, Note_on_c, 0, 65, 61
1, 32662, Note_on_c, 0, 59, 75
1, 32664, Note_on_c, 4, 52, 0
1, 32664, Note_on_c, 4, 64, 0
1, 32664, Note_on_c, 4, 49, 70
1, 32664, Note_on_c, 4, 61, 70
1, 32664, Note_on_c, 9, 44, 46
1, 32665, Note_on_c, 9, 44, 0
1, 32675, Note_on_c, 1, 37, 0
1, 32675, Note_on_c, 11, 37, 0
1, 32681, Note_on_c, 0, 65, 0
1, 32684, Note_on_c, 0, 63, 0
1, 32684, Note_on_c, 0, 59, 0
1, 32686, Note_on_c, 2, 53, 0
1, 32686, Note_on_c, 2, 63, 0
1, 32686, Note_on_c, 2, 59, 0
1, 32686, Note_on_c, 2, 56, 0
1, 32686, Note_on_c, 0, 49, 77
1, 32686, Note_on_c, 3, 63, 79
1, 32686, Note_on_c, 9, 69, 39
1, 32687, Note_on_c, 9, 69, 0
1, 32687, Note_on_c, 9, 42, 57
1, 32688, Note_on_c, 9, 42, 0
1, 32688, Note_on_c, 4, 61, 0
1, 32688, Note_on_c, 4, 49, 0
1, 32688, Note_on_c, 2, 56, 63
1, 32688, Note_on_c, 2, 63, 100
1, 32688, Note_on_c, 2, 59, 104
1, 32688, Note_on_c, 2, 53, 74
1, 32688, Note_on_c, 4, 63, 70
1, 32688, Note_on_c, 4, 51, 70
1, 32689, Note_on_c, 0, 56, 0
1, 32689, Note_on_c, 3, 61, 0
1, 32693, Note_on_c, 2, 56, 0
1, 32694, Note_on_c, 2, 59, 0
1, 32694, Note_on_c, 2, 63, 0
1, 32698, Note_on_c, 2, 53, 0
1, 32698, Note_on_c, 0, 49, 0
1, 32708, Note_on_c, 0, 59, 77
1, 32708, Note_on_c, 0, 63, 66
1, 32709, Note_on_c, 0, 56, 56
1, 32710, Note_on_c, 0, 65, 62
1, 32710, Note_on_c, 3, 64, 85
1, 32711, Note_on_c, 9, 42, 46
1, 32711, Note_on_c, 9, 69, 33
1, 32712, Note_on_c, 9, 69, 0
1, 32712, Note_on_c, 9, 42, 0
1, 32712, Note_on_c, 4, 51, 0
1, 32712, Note_on_c, 4, 63, 0
1, 32712, Note_on_c, 2, 59, 69
1, 32712, Note_on_c, 2, 53, 53
1, 32712, Note_on_c, 2, 56, 59
1, 32712, Note_on_c, 2, 63, 62
1, 32712, Note_on_c, 4, 52, 69
1, 32712, Note_on_c, 4, 64, 69
1, 32714, Note_on_c, 3, 63, 0
1, 32726, Note_on_c, 0, 65, 0
1, 32727, Note_on_c, 0, 59, 0
1, 32728, Note_on_c, 0, 63, 0
1, 32731, Note_on_c, 0, 56, 0
1, 32734, Note_on_c, 2, 56, 0
1, 32734, Note_on_c, 2, 53, 0
1, 32734, Note_on_c, 2, 63, 0
1, 32734, Note_on_c, 2, 59, 0
1, 32735, Note_on_c, 9, 75, 76
1, 32736, Note_on_c, 9, 75, 0
1, 32736, Note_on_c, 4, 64, 0
1, 32736, Note_on_c, 4, 52, 0
1, 32736, Note_on_c, 2, 56, 58
1, 32736, Note_on_c, 2, 59, 58
1, 32736, Note_on_c, 2, 63, 59
1, 32736, Note_on_c, 2, 53, 62
1, 32736, Note_on_c, 4, 63, 69
1, 32736, Note_on_c, 4, 51, 69
1, 32736, Note_on_c, 9, 40, 107
1, 32736, Note_on_c, 9, 42, 91
1, 32737, Note_on_c, 9, 42, 0
1, 32737, Note_on_c, 9, 40, 0
1, 32738, Note_on_c, 3, 63, 81
1, 32742, Note_on_c, 3, 64, 0
1, 32758, Note_on_c, 2, 56, 0
1, 32758, Note_on_c, 2, 53, 0
1, 32758, Note_on_c, 2, 63, 0
1, 32758, Note_on_c, 2, 59, 0
1, 32759, Note_on_c, 0, 63, 63
1, 32759, Note_on_c, 0, 59, 87
1, 32759, Note_on_c, 0, 56, 61
1, 32759, Note_on_c, 0, 65, 68
1, 32759, Note_on_c, 9, 44, 42
1, 32760, Note_on_c, 9, 44, 0
1, 32760, Note_on_c, 2, 56, 62
1, 32760, Note_on_c, 2, 59, 63
1, 32760, Note_on_c, 2, 53, 60
1, 32760, Note_on_c, 2, 63, 61
1, 32768, Note_on_c, 2, 59, 0
1, 32768, Note_on_c, 2, 56, 0
1, 32769, Note_on_c, 2, 53, 0
1, 32769, Note_on_c, 2, 63, 0
1, 32774, Note_on_c, 0, 65, 0
1, 32776, Note_on_c, 0, 63, 0
1, 32778, Note_on_c, 0, 59, 0
1, 32782, Note_on_c, 0, 49, 57
1, 32783, Note_on_c, 9, 69, 37
1, 32784, Note_on_c, 9, 69, 0
1, 32784, Note_on_c, 2, 59, 59
1, 32784, Note_on_c, 2, 53, 58
1, 32784, Note_on_c, 2, 63, 54
1, 32784, Note_on_c, 2, 56, 47
1, 32784, Note_on_c, 9, 42, 49
1, 32785, Note_on_c, 9, 42, 0
1, 32785, Note_on_c, 0, 56, 0
1, 32789, Note_on_c, 0, 49, 0
1, 32802, Note_on_c, 2, 59, 0
1, 32804, Note_on_c, 2, 53, 0
1, 32805, Note_on_c, 2, 63, 0
1, 32805, Note_on_c, 2, 56, 0
1, 32807, Note_on_c, 1, 32, 72
1, 32807, Note_on_c, 9, 69, 27
1, 32807, Note_on_c, 9, 42, 38
1, 32807, Note_on_c, 11, 32, 68
1, 32808, Note_on_c, 9, 42, 0
1, 32808, Note_on_c, 9, 69, 0
1, 32808, Note_on_c, 0, 49, 55
1, 32808, Note_on_c, 2, 56, 65
1, 32808, Note_on_c, 2, 53, 59
1, 32808, Note_on_c, 2, 63, 64
1, 32808, Note_on_c, 2, 59, 74
1, 32809, Note_on_c, 9, 36, 93
1, 32810, Note_on_c, 9, 36, 0
1, 32822, Note_on_c, 0, 49, 0
1, 32826, Note_on_c, 1, 32, 0
1, 32826, Note_on_c, 11, 32, 0
1, 32830, Note_on_c, 2, 63, 0
1, 32830, Note_on_c, 2, 53, 0
1, 32830, Note_on_c, 2, 59, 0
1, 32830, Note_on_c, 0, 63, 66
1, 32830, Note_on_c, 0, 59, 84
1, 32830, Note_on_c, 0, 56, 62
1, 32830, Note_on_c, 0, 65, 63
1, 32830, Note_on_c, 1, 37, 82
1, 32830, Note_on_c, 11, 37, 78
1, 32831, Note_on_c, 9, 36, 65
1, 32832, Note_on_c, 9, 36, 0
1, 32832, Note_on_c, 2, 59, 65
1, 32832, Note_on_c, 2, 53, 58
1, 32832, Note_on_c, 2, 63, 67
1, 32833, Note_on_c, 9, 42, 86
1, 32834, Note_on_c, 9, 42, 0
1, 32847, Note_on_c, 0, 63, 0
1, 32850, Note_on_c, 0, 59, 0
1, 32852, Note_on_c, 1, 37, 0
1, 32852, Note_on_c, 11, 37, 0
1, 32853, Note_on_c, 0, 65, 0
1, 32853, Note_on_c, 0, 56, 0
1, 32855, Note_on_c, 1, 32, 72
1, 32855, Note_on_c, 11, 32, 68
1, 32857, Note_on_c, 9, 44, 47
1, 32858, Note_on_c, 9, 44, 0
1, 32878, Note_on_c, 11, 32, 0
1, 32878, Note_on_c, 2, 56, 0
1, 32878, Note_on_c, 2, 59, 0
1, 32878, Note_on_c, 2, 53, 0
1, 32878, Note_on_c, 1, 32, 0
1, 32878, Note_on_c, 2, 63, 0
1, 32878, Note_on_c, 0, 63, 68
1, 32878, Note_on_c, 0, 56, 63
1, 32878, Note_on_c, 0, 59, 87
1, 32878, Note_on_c, 0, 65, 68
1, 32878, Note_on_c, 1, 37, 90
1, 32878, Note_on_c, 11, 37, 86
1, 32879, Note_on_c, 9, 69, 43
1, 32880, Note_on_c, 9, 69, 0
1, 32880, Note_on_c, 2, 53, 69
1, 32880, Note_on_c, 2, 59, 104
1, 32880, Note_on_c, 2, 56, 69
1, 32880, Note_on_c, 2, 63, 104
1, 32881, Note_on_c, 9, 42, 48
1, 32881, Note_on_c, 9, 36, 110
1, 32882, Note_on_c, 9, 36, 0
1, 32882, Note_on_c, 9, 42, 0
1, 32885, Note_on_c, 2, 56, 0
1, 32886, Note_on_c, 2, 59, 0
1, 32888, Note_on_c, 2, 53, 0
1, 32888, Note_on_c, 2, 63, 0
1, 32903, Note_on_c, 9, 69, 31
1, 32903, Note_on_c, 9, 42, 41
1, 32904, Note_on_c, 9, 42, 0
1, 32904, Note_on_c, 9, 69, 0
1, 32904, Note_on_c, 2, 59, 64
1, 32904, Note_on_c, 2, 56, 53
1, 32904, Note_on_c, 2, 63, 60
1, 32904, Note_on_c, 2, 53, 55
1, 32908, Note_on_c, 1, 37, 0
1, 32908, Note_on_c, 11, 37, 0
1, 32926, Note_on_c, 0, 63, 0
1, 32926, Note_on_c, 2, 59, 0
1, 32926, Note_on_c, 2, 53, 0
1, 32926, Note_on_c, 2, 63, 0
1, 32926, Note_on_c, 0, 49, 77
1, 32927, Note_on_c, 9, 75, 73
1, 32928, Note_on_c, 9, 75, 0
1, 32928, Note_on_c, 0, 59, 0
1, 32928, Note_on_c, 2, 53, 52
1, 32928, Note_on_c, 2, 59, 60
1, 32928, Note_on_c, 2, 63, 59
1, 32928, Note_on_c, 9, 40, 105
1, 32929, Note_on_c, 9, 40, 0
1, 32929, Note_on_c, 0, 65, 0
1, 32929, Note_on_c, 9, 42, 81
1, 32930, Note_on_c, 9, 42, 0
1, 32934, Note_on_c, 0, 56, 0
1, 32940, Note_on_c, 0, 49, 0
1, 32950, Note_on_c, 2, 53, 0
1, 32950, Note_on_c, 2, 59, 0
1, 32950, Note_on_c, 2, 56, 0
1, 32950, Note_on_c, 2, 63, 0
1, 32950, Note_on_c, 0, 59, 84
1, 32950, Note_on_c, 0, 63, 66
1, 32950, Note_on_c, 0, 65, 60
1, 32950, Note_on_c, 0, 56, 61
1, 32950, Note_on_c, 1, 32, 70
1, 32950, Note_on_c, 11, 32, 66
1, 32951, Note_on_c, 9, 44, 43
1, 32952, Note_on_c, 9, 44, 0
1, 32952, Note_on_c, 2, 63, 60
1, 32952, Note_on_c, 2, 56, 59
1, 32952, Note_on_c, 2, 53, 59
1, 32952, Note_on_c, 2, 59, 61
1, 32960, Note_on_c, 2, 56, 0
1, 32961, Note_on_c, 2, 59, 0
1, 32962, Note_on_c, 2, 63, 0
1, 32964, Note_on_c, 2, 53, 0
1, 32970, Note_on_c, 0, 65, 0
1, 32971, Note_on_c, 3, 63, 0
1, 32972, Note_on_c, 0, 63, 0
1, 32972, Note_on_c, 11, 32, 0
1, 32972, Note_on_c, 1, 32, 0
1, 32974, Note_on_c, 0, 59, 0
1, 32974, Note_on_c, 1, 35, 87
1, 32974, Note_on_c, 11, 35, 83
1, 32975, Note_on_c, 9, 69, 32
1, 32975, Note_on_c, 9, 42, 42
1, 32976, Note_on_c, 9, 42, 0
1, 32976, Note_on_c, 9, 69, 0
1, 32976, Note_on_c, 2, 53, 45
1, 32976, Note_on_c, 2, 59, 65
1, 32976, Note_on_c, 2, 63, 57
1, 32976, Note_on_c, 2, 56, 45
1, 32981, Note_on_c, 0, 56, 0
1, 32998, Note_on_c, 2, 63, 0
1, 32998, Note_on_c, 2, 53, 0
1, 32999, Note_on_c, 1, 36, 78
1, 32999, Note_on_c, 9, 69, 35
1, 32999, Note_on_c, 9, 42, 42
1, 32999, Note_on_c, 11, 36, 74
1, 33000, Note_on_c, 9, 42, 0
1, 33000, Note_on_c, 9, 69, 0
1, 33000, Note_on_c, 11, 35, 0
1, 33000, Note_on_c, 2, 56, 0
1, 33000, Note_on_c, 1, 35, 0
1, 33000, Note_on_c, 2, 59, 0
1, 33000, Note_on_c, 0, 49, 59
1, 33000, Note_on_c, 2, 58, 64
1, 33000, Note_on_c, 2, 63, 68
1, 33000, Note_on_c, 2, 61, 67
1, 33000, Note_on_c, 2, 54, 63
1, 33012, Note_on_c, 0, 49, 0
1, 33022, Note_on_c, 1, 36, 0
1, 33022, Note_on_c, 2, 54, 0
1, 33022, Note_on_c, 2, 58, 0
1, 33022, Note_on_c, 2, 61, 0
1, 33022, Note_on_c, 11, 36, 0
1, 33022, Note_on_c, 2, 63, 0
1, 33023, Note_on_c, 0, 54, 58
1, 33023, Note_on_c, 0, 58, 70
1, 33023, Note_on_c, 1, 37, 93
1, 33023, Note_on_c, 9, 42, 83
1, 33023, Note_on_c, 9, 36, 115
1, 33023, Note_on_c, 11, 37, 89
1, 33024, Note_on_c, 9, 36, 0
1, 33024, Note_on_c, 4, 51, 0
1, 33024, Note_on_c, 4, 63, 0
1, 33024, Note_on_c, 9, 42, 0
1, 33024, Note_on_c, 0, 63, 59
1, 33024, Note_on_c, 2, 61, 67
1, 33024, Note_on_c, 2, 58, 65
1, 33024, Note_on_c, 2, 54, 60
1, 33024, Note_on_c, 2, 63, 67
1, 33025, Note_on_c, 0, 61, 63
1, 33025, Note_on_c, 3, 61, 95
1, 33042, Note_on_c, 0, 61, 0
1, 33042, Note_on_c, 0, 58, 0
1, 33047, Note_on_c, 0, 61, 41
1, 33048, Note_on_c, 9, 44, 41
1, 33049, Note_on_c, 9, 44, 0
1, 33049, Note_on_c, 0, 58, 55
1, 33064, Note_on_c, 11, 37, 0
1, 33064, Note_on_c, 1, 37, 0
1, 33070, Note_on_c, 0, 61, 0
1, 33070, Note_on_c, 2, 54, 0
1, 33070, Note_on_c, 2, 63, 0
1, 33070, Note_on_c, 2, 61, 0
1, 33070, Note_on_c, 0, 54, 0
1, 33070, Note_on_c, 0, 58, 0
1, 33070, Note_on_c, 2, 58, 0
1, 33070, Note_on_c, 9, 69, 50
1, 33071, Note_on_c, 9, 69, 0
1, 33071, Note_on_c, 0, 63, 0
1, 33071, Note_on_c, 9, 42, 49
1, 33072, Note_on_c, 9, 42, 0
1, 33072, Note_on_c, 0, 49, 68
1, 33072, Note_on_c, 2, 63, 97
1, 33072, Note_on_c, 2, 54, 97
1, 33072, Note_on_c, 2, 61, 97
1, 33072, Note_on_c, 2, 58, 97
1, 33078, Note_on_c, 2, 61, 0
1, 33080, Note_on_c, 2, 63, 0
1, 33080, Note_on_c, 2, 58, 0
1, 33082, Note_on_c, 2, 54, 0
1, 33085, Note_on_c, 0, 49, 0
1, 33094, Note_on_c, 0, 63, 61
1, 33094, Note_on_c, 0, 58, 62
1, 33094, Note_on_c, 0, 54, 60
1, 33095, Note_on_c, 9, 42, 47
1, 33095, Note_on_c, 9, 69, 28
1, 33096, Note_on_c, 9, 69, 0
1, 33096, Note_on_c, 9, 42, 0
1, 33096, Note_on_c, 0, 61, 63
1, 33096, Note_on_c, 2, 63, 53
1, 33096, Note_on_c, 2, 61, 57
1, 33096, Note_on_c, 2, 58, 54
1, 33096, Note_on_c, 2, 54, 55
1, 33114, Note_on_c, 3, 61, 0
1, 33118, Note_on_c, 0, 54, 0
1, 33118, Note_on_c, 0, 63, 0
1, 33118, Note_on_c, 2, 63, 0
1, 33118, Note_on_c, 2, 54, 0
1, 33118, Note_on_c, 2, 58, 0
1, 33118, Note_on_c, 2, 61, 0
1, 33119, Note_on_c, 0, 58, 0
1, 33119, Note_on_c, 0, 61, 0
1, 33119, Note_on_c, 9, 42, 86
1, 33119, Note_on_c, 9, 40, 101
1, 33120, Note_on_c, 9, 40, 0
1, 33120, Note_on_c, 9, 42, 0
1, 33120, Note_on_c, 2, 58, 59
1, 33120, Note_on_c, 2, 63, 54
1, 33120, Note_on_c, 2, 61, 60
1, 33120, Note_on_c, 2, 54, 59
1, 33121, Note_on_c, 9, 75, 79
1, 33122, Note_on_c, 9, 75, 0
1, 33142, Note_on_c, 2, 61, 0
1, 33142, Note_on_c, 2, 58, 0
1, 33142, Note_on_c, 2, 63, 0
1, 33142, Note_on_c, 2, 54, 0
1, 33142, Note_on_c, 0, 63, 65
1, 33142, Note_on_c, 0, 54, 61
1, 33142, Note_on_c, 0, 58, 69
1, 33143, Note_on_c, 9, 44, 43
1, 33144, Note_on_c, 9, 44, 0
1, 33144, Note_on_c, 0, 61, 66
1, 33144, Note_on_c, 2, 63, 60
1, 33144, Note_on_c, 2, 58, 60
1, 33144, Note_on_c, 2, 61, 63
1, 33144, Note_on_c, 2, 54, 66
1, 33154, Note_on_c, 2, 61, 0
1, 33154, Note_on_c, 2, 58, 0
1, 33156, Note_on_c, 2, 63, 0
1, 33160, Note_on_c, 2, 54, 0
1, 33162, Note_on_c, 0, 63, 0
1, 33164, Note_on_c, 0, 58, 0
1, 33165, Note_on_c, 0, 61, 0
1, 33166, Note_on_c, 9, 69, 45
1, 33167, Note_on_c, 9, 69, 0
1, 33167, Note_on_c, 0, 54, 0
1, 33168, Note_on_c, 2, 58, 58
1, 33168, Note_on_c, 2, 63, 60
1, 33168, Note_on_c, 2, 61, 61
1, 33168, Note_on_c, 2, 54, 60
1, 33168, Note_on_c, 9, 42, 42
1, 33169, Note_on_c, 9, 42, 0
1, 33186, Note_on_c, 2, 61, 0
1, 33188, Note_on_c, 2, 54, 0
1, 33188, Note_on_c, 2, 58, 0
1, 33190, Note_on_c, 2, 63, 0
1, 33190, Note_on_c, 1, 32, 67
1, 33190, Note_on_c, 3, 68, 83
1, 33190, Note_on_c, 9, 69, 23
1, 33190, Note_on_c, 11, 32, 63
1, 33191, Note_on_c, 9, 69, 0
1, 33191, Note_on_c, 0, 49, 64
1, 33191, Note_on_c, 9, 36, 105
1, 33192, Note_on_c, 9, 36, 0
1, 33192, Note_on_c, 2, 63, 61
1, 33192, Note_on_c, 2, 54, 54
1, 33192, Note_on_c, 2, 58, 56
1, 33192, Note_on_c, 9, 42, 27
1, 33193, Note_on_c, 9, 42, 0
1, 33202, Note_on_c, 0, 49, 0
1, 33213, Note_on_c, 11, 32, 0
1, 33213, Note_on_c, 1, 32, 0
1, 33214, Note_on_c, 2, 63, 0
1, 33214, Note_on_c, 2, 58, 0
1, 33214, Note_on_c, 2, 54, 0
1, 33214, Note_on_c, 0, 54, 65
1, 33214, Note_on_c, 0, 63, 65
1, 33214, Note_on_c, 0, 58, 68
1, 33215, Note_on_c, 0, 61, 67
1, 33215, Note_on_c, 1, 37, 88
1, 33215, Note_on_c, 9, 36, 72
1, 33215, Note_on_c, 9, 42, 87
1, 33215, Note_on_c, 11, 37, 84
1, 33216, Note_on_c, 9, 42, 0
1, 33216, Note_on_c, 9, 36, 0
1, 33216, Note_on_c, 2, 58, 77
1, 33216, Note_on_c, 2, 54, 65
1, 33216, Note_on_c, 2, 63, 79
1, 33216, Note_on_c, 2, 61, 76
1, 33220, Note_on_c, 3, 68, 0
1, 33232, Note_on_c, 0, 61, 0
1, 33234, Note_on_c, 0, 63, 0
1, 33235, Note_on_c, 0, 58, 0
1, 33238, Note_on_c, 11, 37, 0
1, 33238, Note_on_c, 0, 54, 0
1, 33238, Note_on_c, 1, 37, 0
1, 33238, Note_on_c, 1, 32, 58
1, 33238, Note_on_c, 11, 32, 54
1, 33241, Note_on_c, 3, 64, 75
1, 33241, Note_on_c, 9, 44, 45
1, 33242, Note_on_c, 9, 44, 0
1, 33259, Note_on_c, 3, 65, 71
1, 33261, Note_on_c, 3, 64, 0
1, 33262, Note_on_c, 2, 54, 0
1, 33262, Note_on_c, 1, 32, 0
1, 33262, Note_on_c, 2, 63, 0
1, 33262, Note_on_c, 2, 58, 0
1, 33262, Note_on_c, 2, 61, 0
1, 33262, Note_on_c, 11, 32, 0
1, 33262, Note_on_c, 0, 58, 75
1, 33262, Note_on_c, 0, 63, 61
1, 33262, Note_on_c, 0, 54, 68
1, 33262, Note_on_c, 0, 61, 71
1, 33262, Note_on_c, 1, 37, 79
1, 33262, Note_on_c, 9, 69, 37
1, 33262, Note_on_c, 11, 37, 75
1, 33263, Note_on_c, 9, 69, 0
1, 33263, Note_on_c, 9, 42, 51
1, 33264, Note_on_c, 9, 42, 0
1, 33264, Note_on_c, 2, 63, 107
1, 33264, Note_on_c, 2, 54, 107
1, 33264, Note_on_c, 2, 61, 107
1, 33264, Note_on_c, 2, 58, 107
1, 33264, Note_on_c, 9, 36, 107
1, 33265, Note_on_c, 9, 36, 0
1, 33270, Note_on_c, 2, 61, 0
1, 33270, Note_on_c, 2, 63, 0
1, 33270, Note_on_c, 2, 58, 0
1, 33274, Note_on_c, 2, 54, 0
1, 33279, Note_on_c, 3, 63, 77
1, 33284, Note_on_c, 3, 65, 0
1, 33286, Note_on_c, 9, 69, 34
1, 33287, Note_on_c, 9, 69, 0
1, 33288, Note_on_c, 2, 58, 59
1, 33288, Note_on_c, 2, 61, 67
1, 33288, Note_on_c, 2, 54, 64
1, 33288, Note_on_c, 2, 63, 63
1, 33288, Note_on_c, 9, 42, 74
1, 33289, Note_on_c, 9, 42, 0
1, 33295, Note_on_c, 3, 61, 79
1, 33298, Note_on_c, 11, 37, 0
1, 33298, Note_on_c, 3, 63, 0
1, 33298, Note_on_c, 1, 37, 0
1, 33309, Note_on_c, 0, 63, 0
1, 33309, Note_on_c, 0, 49, 59
1, 33310, Note_on_c, 2, 61, 0
1, 33310, Note_on_c, 2, 58, 0
1, 33310, Note_on_c, 2, 54, 0
1, 33310, Note_on_c, 2, 63, 0
1, 33311, Note_on_c, 9, 40, 105
1, 33311, Note_on_c, 9, 42, 93
1, 33311, Note_on_c, 9, 75, 82
1, 33312, Note_on_c, 9, 75, 0
1, 33312, Note_on_c, 9, 42, 0
1, 33312, Note_on_c, 0, 61, 0
1, 33312, Note_on_c, 0, 58, 0
1, 33312, Note_on_c, 9, 40, 0
1, 33312, Note_on_c, 2, 58, 55
1, 33312, Note_on_c, 2, 54, 58
1, 33312, Note_on_c, 2, 61, 59
1, 33312, Note_on_c, 2, 63, 58
1, 33312, Note_on_c, 3, 58, 76
1, 33314, Note_on_c, 0, 54, 0
1, 33320, Note_on_c, 3, 61, 0
1, 33324, Note_on_c, 0, 49, 0
1, 33334, Note_on_c, 2, 61, 0
1, 33334, Note_on_c, 2, 54, 0
1, 33334, Note_on_c, 2, 58, 0
1, 33334, Note_on_c, 2, 63, 0
1, 33334, Note_on_c, 0, 61, 68
1, 33334, Note_on_c, 0, 54, 62
1, 33334, Note_on_c, 0, 58, 68
1, 33334, Note_on_c, 0, 63, 58
1, 33335, Note_on_c, 9, 44, 50
1, 33336, Note_on_c, 9, 44, 0
1, 33336, Note_on_c, 2, 61, 65
1, 33336, Note_on_c, 2, 54, 63
1, 33336, Note_on_c, 2, 63, 60
1, 33336, Note_on_c, 2, 58, 62
1, 33346, Note_on_c, 2, 58, 0
1, 33346, Note_on_c, 2, 61, 0
1, 33349, Note_on_c, 2, 63, 0
1, 33352, Note_on_c, 3, 58, 0
1, 33352, Note_on_c, 2, 54, 0
1, 33354, Note_on_c, 0, 63, 0
1, 33357, Note_on_c, 0, 61, 0
1, 33357, Note_on_c, 9, 69, 45
1, 33358, Note_on_c, 9, 69, 0
1, 33358, Note_on_c, 1, 32, 70
1, 33358, Note_on_c, 11, 32, 66
1, 33359, Note_on_c, 0, 58, 0
1, 33359, Note_on_c, 9, 42, 49
1, 33360, Note_on_c, 9, 42, 0
1, 33360, Note_on_c, 2, 61, 58
1, 33360, Note_on_c, 2, 58, 52
1, 33360, Note_on_c, 2, 54, 59
1, 33360, Note_on_c, 2, 63, 54
1, 33361, Note_on_c, 3, 64, 79
1, 33370, Note_on_c, 0, 54, 0
1, 33377, Note_on_c, 2, 54, 0
1, 33378, Note_on_c, 2, 61, 0
1, 33378, Note_on_c, 3, 61, 78
1, 33379, Note_on_c, 3, 64, 0
1, 33380, Note_on_c, 2, 58, 0
1, 33380, Note_on_c, 2, 63, 0
1, 33381, Note_on_c, 11, 32, 0
1, 33381, Note_on_c, 1, 32, 0
1, 33382, Note_on_c, 0, 49, 64
1, 33382, Note_on_c, 1, 35, 76
1, 33382, Note_on_c, 9, 69, 36
1, 33382, Note_on_c, 11, 35, 72
1, 33383, Note_on_c, 9, 69, 0
1, 33383, Note_on_c, 9, 42, 57
1, 33384, Note_on_c, 9, 42, 0
1, 33384, Note_on_c, 2, 61, 58
1, 33384, Note_on_c, 2, 57, 64
1, 33384, Note_on_c, 2, 54, 65
1, 33384, Note_on_c, 2, 63, 59
1, 33391, Note_on_c, 0, 49, 0
1, 33392, Note_on_c, 3, 63, 76
1, 33394, Note_on_c, 3, 61, 0
1, 33406, Note_on_c, 11, 35, 0
1, 33406, Note_on_c, 2, 57, 0
1, 33406, Note_on_c, 1, 35, 0
1, 33406, Note_on_c, 2, 61, 0
1, 33406, Note_on_c, 2, 63, 0
1, 33406, Note_on_c, 2, 54, 0
1, 33406, Note_on_c, 0, 63, 62
1, 33406, Note_on_c, 0, 57, 80
1, 33406, Note_on_c, 0, 54, 59
1, 33407, Note_on_c, 0, 61, 63
1, 33407, Note_on_c, 9, 42, 76
1, 33407, Note_on_c, 9, 36, 114
1, 33408, Note_on_c, 9, 36, 0
1, 33408, Note_on_c, 9, 42, 0
1, 33408, Note_on_c, 1, 37, 78
1, 33408, Note_on_c, 2, 61, 65
1, 33408, Note_on_c, 2, 63, 64
1, 33408, Note_on_c, 2, 57, 67
1, 33408, Note_on_c, 2, 54, 59
1, 33408, Note_on_c, 11, 37, 74
1, 33421, Note_on_c, 0, 57, 0
1, 33423, Note_on_c, 0, 63, 0
1, 33430, Note_on_c, 0, 63, 54
1, 33430, Note_on_c, 0, 57, 67
1, 33431, Note_on_c, 9, 44, 46
1, 33432, Note_on_c, 9, 44, 0
1, 33446, Note_on_c, 11, 37, 0
1, 33446, Note_on_c, 1, 37, 0
1, 33450, Note_on_c, 0, 57, 0
1, 33450, Note_on_c, 0, 63, 0
1, 33454, Note_on_c, 0, 61, 0
1, 33454, Note_on_c, 2, 61, 0
1, 33454, Note_on_c, 2, 57, 0
1, 33454, Note_on_c, 2, 54, 0
1, 33454, Note_on_c, 2, 63, 0
1, 33454, Note_on_c, 0, 49, 68
1, 33454, Note_on_c, 9, 69, 41
1, 33455, Note_on_c, 9, 69, 0
1, 33455, Note_on_c, 9, 42, 42
1, 33456, Note_on_c, 9, 42, 0
1, 33456, Note_on_c, 0, 54, 0
1, 33456, Note_on_c, 2, 61, 100
1, 33456, Note_on_c, 2, 57, 81
1, 33456, Note_on_c, 2, 63, 90
1, 33456, Note_on_c, 2, 54, 90
1, 33464, Note_on_c, 2, 63, 0
1, 33464, Note_on_c, 2, 57, 0
1, 33464, Note_on_c, 2, 61, 0
1, 33464, Note_on_c, 0, 49, 0
1, 33469, Note_on_c, 2, 54, 0
1, 33478, Note_on_c, 0, 57, 79
1, 33478, Note_on_c, 0, 54, 59
1, 33478, Note_on_c, 0, 63, 62
1, 33478, Note_on_c, 0, 61, 68
1, 33478, Note_on_c, 9, 69, 30
1, 33479, Note_on_c, 9, 69, 0
1, 33479, Note_on_c, 9, 42, 43
1, 33480, Note_on_c, 9, 42, 0
1, 33480, Note_on_c, 2, 54, 62
1, 33480, Note_on_c, 2, 57, 56
1, 33480, Note_on_c, 2, 63, 57
1, 33480, Note_on_c, 2, 61, 58
1, 33499, Note_on_c, 0, 63, 0
1, 33501, Note_on_c, 0, 57, 0
1, 33502, Note_on_c, 2, 63, 0
1, 33502, Note_on_c, 2, 54, 0
1, 33502, Note_on_c, 0, 54, 0
1, 33502, Note_on_c, 0, 61, 0
1, 33502, Note_on_c, 2, 61, 0
1, 33502, Note_on_c, 2, 57, 0
1, 33502, Note_on_c, 0, 49, 61
1, 33503, Note_on_c, 9, 75, 79
1, 33504, Note_on_c, 9, 75, 0
1, 33504, Note_on_c, 2, 61, 61
1, 33504, Note_on_c, 2, 54, 62
1, 33504, Note_on_c, 2, 57, 59
1, 33504, Note_on_c, 2, 63, 60
1, 33504, Note_on_c, 9, 40, 101
1, 33504, Note_on_c, 9, 42, 83
1, 33505, Note_on_c, 9, 42, 0
1, 33505, Note_on_c, 9, 40, 0
1, 33509, Note_on_c, 0, 49, 0
1, 33525, Note_on_c, 0, 63, 61
1, 33526, Note_on_c, 2, 61, 0
1, 33526, Note_on_c, 2, 57, 0
1, 33526, Note_on_c, 2, 54, 0
1, 33526, Note_on_c, 2, 63, 0
1, 33526, Note_on_c, 0, 57, 79
1, 33526, Note_on_c, 0, 54, 54
1, 33526, Note_on_c, 0, 61, 62
1, 33527, Note_on_c, 9, 44, 43
1, 33528, Note_on_c, 9, 44, 0
1, 33528, Note_on_c, 2, 54, 65
1, 33528, Note_on_c, 2, 61, 58
1, 33528, Note_on_c, 2, 63, 52
1, 33528, Note_on_c, 2, 57, 59
1, 33536, Note_on_c, 2, 57, 0
1, 33537, Note_on_c, 2, 61, 0
1, 33538, Note_on_c, 0, 54, 0
1, 33539, Note_on_c, 0, 57, 0
1, 33540, Note_on_c, 2, 63, 0
1, 33541, Note_on_c, 2, 54, 0
1, 33542, Note_on_c, 0, 63, 0
1, 33542, Note_on_c, 0, 61, 0
1, 33547, Note_on_c, 0, 49, 58
1, 33549, Note_on_c, 9, 69, 45
1, 33550, Note_on_c, 9, 69, 0
1, 33552, Note_on_c, 2, 61, 60
1, 33552, Note_on_c, 2, 57, 54
1, 33552, Note_on_c, 2, 54, 59
1, 33552, Note_on_c, 2, 63, 58
1, 33552, Note_on_c, 9, 42, 51
1, 33553, Note_on_c, 9, 42, 0
1, 33553, Note_on_c, 0, 49, 0
1, 33564, Note_on_c, 2, 54, 0
1, 33565, Note_on_c, 2, 61, 0
1, 33568, Note_on_c, 2, 63, 0
1, 33572, Note_on_c, 0, 49, 65
1, 33574, Note_on_c, 2, 57, 0
1, 33574, Note_on_c, 9, 69, 30
1, 33575, Note_on_c, 9, 69, 0
1, 33575, Note_on_c, 1, 32, 74
1, 33575, Note_on_c, 9, 42, 49
1, 33575, Note_on_c, 11, 32, 70
1, 33576, Note_on_c, 9, 42, 0
1, 33576, Note_on_c, 2, 54, 59
1, 33576, Note_on_c, 2, 63, 76
1, 33576, Note_on_c, 2, 57, 60
1, 33576, Note_on_c, 2, 61, 76
1, 33577, Note_on_c, 9, 36, 113
1, 33578, Note_on_c, 9, 36, 0
1, 33581, Note_on_c, 0, 49, 0
1, 33597, Note_on_c, 0, 63, 62
1, 33597, Note_on_c, 0, 57, 80
1, 33598, Note_on_c, 2, 54, 0
1, 33598, Note_on_c, 2, 61, 0
1, 33598, Note_on_c, 11, 32, 0
1, 33598, Note_on_c, 2, 63, 0
1, 33598, Note_on_c, 1, 32, 0
1, 33598, Note_on_c, 2, 57, 0
1, 33598, Note_on_c, 0, 61, 65
1, 33598, Note_on_c, 0, 54, 59
1, 33599, Note_on_c, 1, 37, 90
1, 33599, Note_on_c, 9, 36, 61
1, 33599, Note_on_c, 11, 37, 86
1, 33600, Note_on_c, 9, 36, 0
1, 33600, Note_on_c, 2, 54, 70
1, 33600, Note_on_c, 2, 61, 63
1, 33600, Note_on_c, 2, 63, 69
1, 33600, Note_on_c, 2, 57, 65
1, 33601, Note_on_c, 9, 42, 78
1, 33602, Note_on_c, 9, 42, 0
1, 33615, Note_on_c, 0, 57, 0
1, 33615, Note_on_c, 0, 61, 0
1, 33615, Note_on_c, 0, 63, 0
1, 33619, Note_on_c, 11, 37, 0
1, 33619, Note_on_c, 0, 54, 0
1, 33619, Note_on_c, 1, 37, 0
1, 33623, Note_on_c, 1, 32, 63
1, 33623, Note_on_c, 9, 44, 47
1, 33623, Note_on_c, 11, 32, 59
1, 33624, Note_on_c, 9, 44, 0
1, 33636, Note_on_c, 3, 63, 0
1, 33646, Note_on_c, 1, 32, 0
1, 33646, Note_on_c, 2, 57, 0
1, 33646, Note_on_c, 2, 61, 0
1, 33646, Note_on_c, 2, 63, 0
1, 33646, Note_on_c, 2, 54, 0
1, 33646, Note_on_c, 11, 32, 0
1, 33646, Note_on_c, 0, 54, 61
1, 33646, Note_on_c, 0, 57, 81
1, 33646, Note_on_c, 0, 63, 64
1, 33647, Note_on_c, 1, 37, 75
1, 33647, Note_on_c, 9, 42, 62
1, 33647, Note_on_c, 9, 69, 41
1, 33647, Note_on_c, 11, 37, 71
1, 33648, Note_on_c, 9, 69, 0
1, 33648, Note_on_c, 9, 42, 0
1, 33648, Note_on_c, 0, 61, 67
1, 33648, Note_on_c, 2, 57, 107
1, 33648, Note_on_c, 2, 63, 107
1, 33648, Note_on_c, 2, 61, 107
1, 33648, Note_on_c, 2, 54, 107
1, 33648, Note_on_c, 9, 36, 114
1, 33649, Note_on_c, 9, 36, 0
1, 33654, Note_on_c, 2, 61, 0
1, 33654, Note_on_c, 2, 63, 0
1, 33656, Note_on_c, 2, 57, 0
1, 33656, Note_on_c, 2, 54, 0
1, 33671, Note_on_c, 9, 42, 42
1, 33671, Note_on_c, 9, 69, 30
1, 33672, Note_on_c, 9, 69, 0
1, 33672, Note_on_c, 9, 42, 0
1, 33672, Note_on_c, 2, 63, 59
1, 33672, Note_on_c, 2, 57, 60
1, 33672, Note_on_c, 2, 61, 63
1, 33672, Note_on_c, 2, 54, 61
1, 33674, Note_on_c, 0, 54, 0
1, 33676, Note_on_c, 0, 57, 0
1, 33679, Note_on_c, 0, 63, 0
1, 33680, Note_on_c, 1, 37, 0
1, 33680, Note_on_c, 11, 37, 0
1, 33681, Note_on_c, 0, 61, 0
1, 33694, Note_on_c, 2, 57, 0
1, 33694, Note_on_c, 2, 54, 0
1, 33694, Note_on_c, 2, 61, 0
1, 33694, Note_on_c, 2, 63, 0
1, 33694, Note_on_c, 0, 49, 66
1, 33695, Note_on_c, 9, 75, 83
1, 33695, Note_on_c, 9, 40, 107
1, 33695, Note_on_c, 9, 42, 81
1, 33696, Note_on_c, 9, 42, 0
1, 33696, Note_on_c, 9, 40, 0
1, 33696, Note_on_c, 9, 75, 0
1, 33696, Note_on_c, 2, 57, 55
1, 33696, Note_on_c, 2, 61, 58
1, 33696, Note_on_c, 2, 54, 58
1, 33696, Note_on_c, 2, 63, 54
1, 33696, Note_on_c, 3, 61, 100
1, 33696, Note_on_c, 4, 49, 80
1, 33696, Note_on_c, 4, 61, 80
1, 33702, Note_on_c, 0, 49, 0
1, 33716, Note_on_c, 2, 63, 0
1, 33716, Note_on_c, 2, 57, 0
1, 33716, Note_on_c, 2, 54, 0
1, 33716, Note_on_c, 2, 61, 0
1, 33718, Note_on_c, 0, 64, 80
1, 33718, Note_on_c, 0, 57, 81
1, 33718, Note_on_c, 0, 61, 64
1, 33718, Note_on_c, 0, 54, 59
1, 33719, Note_on_c, 1, 32, 76
1, 33719, Note_on_c, 9, 44, 45
1, 33719, Note_on_c, 11, 32, 72
1, 33720, Note_on_c, 9, 44, 0
1, 33720, Note_on_c, 4, 61, 0
1, 33720, Note_on_c, 4, 49, 0
1, 33720, Note_on_c, 2, 54, 63
1, 33720, Note_on_c, 2, 57, 61
1, 33720, Note_on_c, 2, 64, 69
1, 33720, Note_on_c, 2, 61, 63
1, 33720, Note_on_c, 4, 70, 78
1, 33720, Note_on_c, 4, 58, 78
1, 33720, Note_on_c, 4, 66, 78
1, 33721, Note_on_c, 3, 61, 0
1, 33722, Note_on_c, 3, 70, 91
1, 33738, Note_on_c, 1, 32, 0
1, 33738, Note_on_c, 11, 32, 0
1, 33742, Note_on_c, 0, 49, 73
1, 33742, Note_on_c, 1, 35, 84
1, 33742, Note_on_c, 11, 35, 80
1, 33743, Note_on_c, 9, 69, 43
1, 33744, Note_on_c, 9, 69, 0
1, 33745, Note_on_c, 9, 42, 76
1, 33746, Note_on_c, 9, 42, 0
1, 33750, Note_on_c, 0, 49, 0
1, 33752, Note_on_c, 2, 57, 0
1, 33754, Note_on_c, 2, 61, 0
1, 33756, Note_on_c, 2, 54, 0
1, 33758, Note_on_c, 2, 64, 0
1, 33762, Note_on_c, 1, 35, 0
1, 33762, Note_on_c, 11, 35, 0
1, 33764, Note_on_c, 3, 70, 0
1, 33767, Note_on_c, 1, 36, 82
1, 33767, Note_on_c, 9, 42, 48
1, 33767, Note_on_c, 11, 36, 78
1, 33768, Note_on_c, 9, 42, 0
1, 33768, Note_on_c, 4, 66, 0
1, 33768, Note_on_c, 4, 58, 0
1, 33768, Note_on_c, 4, 70, 0
1, 33768, Note_on_c, 4, 65, 84
1, 33768, Note_on_c, 4, 68, 84
1, 33768, Note_on_c, 4, 56, 84
1, 33770, Note_on_c, 3, 68, 98
1, 33770, Note_on_c, 9, 69, 28
1, 33771, Note_on_c, 9, 69, 0
1, 33773, Note_on_c, 0, 64, 0
1, 33774, Note_on_c, 0, 54, 0
1, 33780, Note_on_c, 0, 57, 0
1, 33786, Note_on_c, 0, 61, 0
1, 33788, Note_on_c, 1, 36, 0
1, 33788, Note_on_c, 11, 36, 0
1, 33792, Note_on_c, 0, 63, 62
1, 33792, Note_on_c, 1, 37, 92
1, 33792, Note_on_c, 2, 60, 79
1, 33792, Note_on_c, 2, 65, 76
1, 33792, Note_on_c, 2, 56, 57
1, 33792, Note_on_c, 9, 36, 110
1, 33792, Note_on_c, 9, 51, 91
1, 33792, Note_on_c, 10, 60, 53
1, 33792, Note_on_c, 10, 53, 53
1, 33792, Note_on_c, 10, 63, 53
1, 33792, Note_on_c, 10, 56, 53
1, 33792, Note_on_c, 11, 37, 88
1, 33793, Note_on_c, 9, 51, 0
1, 33793, Note_on_c, 9, 36, 0
1, 33793, Note_on_c, 0, 53, 57
1, 33793, Note_on_c, 0, 56, 61
1, 33793, Note_on_c, 0, 65, 73
1, 33793, Note_on_c, 0, 60, 73
1, 33806, Note_on_c, 0, 53, 0
1, 33815, Note_on_c, 9, 44, 44
1, 33816, Note_on_c, 9, 44, 0
1, 33832, Note_on_c, 1, 37, 0
1, 33832, Note_on_c, 11, 37, 0
1, 33832, Control_c, 10, 11, 108
1, 33838, Note_on_c, 2, 65, 0
1, 33838, Note_on_c, 2, 56, 0
1, 33838, Note_on_c, 2, 60, 0
1, 33838, Note_on_c, 9, 69, 33
1, 33839, Note_on_c, 9, 69, 0
1, 33839, Note_on_c, 0, 53, 53
1, 33839, Note_on_c, 9, 51, 40
1, 33840, Note_on_c, 9, 51, 0
1, 33840, Note_on_c, 2, 56, 98
1, 33840, Note_on_c, 2, 60, 93
1, 33840, Note_on_c, 2, 65, 104
1, 33842, Note_on_c, 0, 60, 0
1, 33844, Note_on_c, 0, 63, 0
1, 33847, Note_on_c, 0, 65, 0
1, 33848, Note_on_c, 0, 56, 0
1, 33848, Note_on_c, 2, 60, 0
1, 33850, Note_on_c, 2, 65, 0
1, 33850, Note_on_c, 2, 56, 0
1, 33852, Note_on_c, 0, 53, 0
1, 33856, Control_c, 10, 11, 109
1, 33862, Note_on_c, 9, 69, 21
1, 33863, Note_on_c, 9, 69, 0
1, 33863, Note_on_c, 9, 51, 44
1, 33864, Note_on_c, 9, 51, 0
1, 33864, Note_on_c, 2, 65, 65
1, 33864, Note_on_c, 2, 56, 59
1, 33864, Note_on_c, 2, 60, 67
1, 33865, Note_on_c, 0, 65, 65
1, 33865, Note_on_c, 0, 63, 57
1, 33865, Note_on_c, 0, 60, 66
1, 33865, Note_on_c, 9, 62, 69
1, 33866, Note_on_c, 9, 62, 0
1, 33866, Note_on_c, 0, 56, 59
1, 33872, Control_c, 10, 11, 110
1, 33878, Note_on_c, 0, 60, 0
1, 33879, Note_on_c, 0, 63, 0
1, 33882, Note_on_c, 0, 65, 0
1, 33882, Note_on_c, 0, 56, 0
1, 33886, Note_on_c, 0, 53, 50
1, 33887, Note_on_c, 9, 51, 76
1, 33887, Note_on_c, 9, 40, 101
1, 33887, Note_on_c, 9, 75, 79
1, 33888, Note_on_c, 9, 75, 0
1, 33888, Note_on_c, 9, 40, 0
1, 33888, Note_on_c, 9, 51, 0
1, 33888, Control_c, 10, 11, 111
1, 33890, Note_on_c, 9, 62, 66
1, 33891, Note_on_c, 9, 62, 0
1, 33894, Note_on_c, 0, 53, 0
1, 33900, Note_on_c, 2, 56, 0
1, 33901, Note_on_c, 2, 65, 0
1, 33904, Note_on_c, 2, 60, 0
1, 33904, Control_c, 10, 11, 112
1, 33910, Note_on_c, 0, 63, 55
1, 33910, Note_on_c, 0, 60, 67
1, 33910, Note_on_c, 0, 56, 55
1, 33910, Note_on_c, 2, 56, 63
1, 33911, Note_on_c, 9, 44, 40
1, 33912, Note_on_c, 9, 44, 0
1, 33912, Note_on_c, 2, 60, 68
1, 33912, Note_on_c, 2, 65, 72
1, 33919, Note_on_c, 0, 63, 0
1, 33920, Note_on_c, 0, 60, 0
1, 33920, Control_c, 10, 11, 113
1, 33921, Note_on_c, 0, 56, 0
1, 33922, Note_on_c, 2, 65, 0
1, 33922, Note_on_c, 2, 56, 0
1, 33922, Note_on_c, 2, 60, 0
1, 33935, Note_on_c, 9, 51, 42
1, 33935, Note_on_c, 9, 69, 33
1, 33936, Note_on_c, 9, 69, 0
1, 33936, Note_on_c, 9, 51, 0
1, 33936, Note_on_c, 2, 56, 60
1, 33936, Note_on_c, 2, 65, 87
1, 33936, Control_c, 10, 11, 114
1, 33937, Note_on_c, 2, 60, 62
1, 33956, Note_on_c, 2, 65, 0
1, 33958, Note_on_c, 0, 56, 64
1, 33958, Note_on_c, 0, 60, 73
1, 33958, Note_on_c, 0, 63, 77
1, 33958, Note_on_c, 0, 65, 69
1, 33958, Note_on_c, 2, 65, 74
1, 33959, Note_on_c, 9, 62, 62
1, 33959, Note_on_c, 9, 69, 25
1, 33959, Note_on_c, 9, 51, 40
1, 33960, Note_on_c, 9, 51, 0
1, 33960, Note_on_c, 9, 69, 0
1, 33960, Note_on_c, 9, 62, 0
1, 33960, Note_on_c, 1, 32, 75
1, 33960, Note_on_c, 9, 36, 104
1, 33960, Control_c, 10, 11, 115
1, 33960, Note_on_c, 11, 32, 71
1, 33961, Note_on_c, 9, 36, 0
1, 33961, Note_on_c, 2, 56, 0
1, 33967, Note_on_c, 2, 65, 0
1, 33969, Note_on_c, 2, 60, 0
1, 33976, Control_c, 10, 11, 116
1, 33982, Note_on_c, 0, 53, 57
1, 33982, Note_on_c, 2, 56, 69
1, 33983, Note_on_c, 1, 37, 81
1, 33983, Note_on_c, 9, 51, 87
1, 33983, Note_on_c, 9, 36, 68
1, 33983, Note_on_c, 11, 37, 77
1, 33984, Note_on_c, 9, 36, 0
1, 33984, Note_on_c, 9, 51, 0
1, 33984, Note_on_c, 1, 32, 0
1, 33984, Note_on_c, 11, 32, 0
1, 33984, Note_on_c, 2, 60, 83
1, 33984, Note_on_c, 2, 65, 72
1, 33985, Note_on_c, 9, 62, 62
1, 33986, Note_on_c, 9, 62, 0
1, 33992, Control_c, 10, 11, 117
1, 34002, Note_on_c, 0, 56, 0
1, 34007, Note_on_c, 1, 32, 75
1, 34007, Note_on_c, 11, 32, 71
1, 34008, Note_on_c, 9, 44, 46
1, 34008, Control_c, 10, 11, 118
1, 34009, Note_on_c, 9, 44, 0
1, 34010, Note_on_c, 1, 37, 0
1, 34010, Note_on_c, 11, 37, 0
1, 34014, Note_on_c, 3, 68, 0
1, 34022, Note_on_c, 0, 63, 0
1, 34024, Control_c, 10, 11, 119
1, 34026, Note_on_c, 0, 60, 0
1, 34030, Note_on_c, 2, 60, 0
1, 34030, Note_on_c, 2, 56, 0
1, 34030, Note_on_c, 2, 65, 0
1, 34030, Note_on_c, 0, 56, 45
1, 34030, Note_on_c, 9, 69, 35
1, 34031, Note_on_c, 9, 69, 0
1, 34031, Note_on_c, 1, 37, 87
1, 34031, Note_on_c, 9, 51, 43
1, 34031, Note_on_c, 9, 36, 97
1, 34031, Note_on_c, 11, 37, 83
1, 34032, Note_on_c, 9, 36, 0
1, 34032, Note_on_c, 9, 51, 0
1, 34032, Note_on_c, 2, 60, 98
1, 34032, Note_on_c, 2, 65, 100
1, 34032, Note_on_c, 2, 56, 100
1, 34033, Note_on_c, 11, 32, 0
1, 34033, Note_on_c, 1, 32, 0
1, 34034, Note_on_c, 0, 65, 0
1, 34040, Note_on_c, 2, 56, 0
1, 34040, Note_on_c, 2, 65, 0
1, 34040, Note_on_c, 2, 60, 0
1, 34040, Control_c, 10, 11, 120
1, 34042, Note_on_c, 0, 53, 0
1, 34053, Note_on_c, 0, 60, 54
1, 34054, Note_on_c, 2, 65, 69
1, 34054, Note_on_c, 2, 60, 66
1, 34054, Note_on_c, 2, 56, 63
1, 34054, Note_on_c, 9, 69, 29
1, 34054, Note_on_c, 9, 62, 69
1, 34055, Note_on_c, 9, 62, 0
1, 34055, Note_on_c, 9, 69, 0
1, 34055, Note_on_c, 9, 51, 54
1, 34056, Note_on_c, 9, 51, 0
1, 34058, Note_on_c, 0, 56, 0
1, 34064, Control_c, 10, 11, 121
1, 34065, Note_on_c, 11, 37, 0
1, 34065, Note_on_c, 1, 37, 0
1, 34066, Note_on_c, 0, 60, 0
1, 34076, Note_on_c, 3, 65, 95
1, 34078, Note_on_c, 0, 63, 62
1, 34078, Note_on_c, 0, 60, 70
1, 34078, Note_on_c, 0, 65, 73
1, 34079, Note_on_c, 4, 65, 0
1, 34079, Note_on_c, 0, 56, 57
1, 34079, Note_on_c, 9, 51, 73
1, 34079, Note_on_c, 9, 40, 104
1, 34079, Note_on_c, 9, 62, 55
1, 34080, Note_on_c, 9, 62, 0
1, 34080, Note_on_c, 9, 40, 0
1, 34080, Note_on_c, 9, 51, 0
1, 34080, Note_on_c, 4, 56, 0
1, 34080, Note_on_c, 4, 68, 0
1, 34080, Note_on_c, 4, 53, 73
1, 34080, Note_on_c, 4, 65, 73
1, 34080, Note_on_c, 9, 75, 79
1, 34080, Control_c, 10, 11, 122
1, 34081, Note_on_c, 9, 75, 0
1, 34089, Note_on_c, 2, 60, 0
1, 34089, Note_on_c, 2, 65, 0
1, 34090, Note_on_c, 2, 56, 0
1, 34090, Note_on_c, 0, 63, 0
1, 34094, Note_on_c, 0, 60, 0
1, 34095, Note_on_c, 0, 65, 0
1, 34096, Control_c, 10, 11, 123
1, 34102, Note_on_c, 3, 65, 0
1, 34102, Note_on_c, 0, 65, 53
1, 34102, Note_on_c, 0, 60, 68
1, 34102, Note_on_c, 2, 60, 67
1, 34102, Note_on_c, 2, 65, 75
1, 34102, Note_on_c, 2, 56, 60
1, 34102, Note_on_c, 9, 62, 52
1, 34103, Note_on_c, 9, 62, 0
1, 34103, Note_on_c, 0, 63, 56
1, 34103, Note_on_c, 1, 37, 84
1, 34103, Note_on_c, 9, 44, 43
1, 34103, Note_on_c, 11, 37, 80
1, 34104, Note_on_c, 9, 44, 0
1, 34104, Note_on_c, 4, 53, 0
1, 34104, Note_on_c, 4, 65, 0
1, 34104, Note_on_c, 4, 75, 73
1, 34104, Note_on_c, 4, 63, 73
1, 34104, Note_on_c, 4, 70, 73
1, 34106, Note_on_c, 3, 75, 100
1, 34110, Note_on_c, 2, 60, 0
1, 34110, Note_on_c, 2, 56, 0
1, 34112, Control_c, 10, 11, 124
1, 34114, Note_on_c, 2, 65, 0
1, 34122, Note_on_c, 0, 60, 0
1, 34124, Note_on_c, 0, 63, 0
1, 34126, Note_on_c, 0, 56, 0
1, 34126, Note_on_c, 0, 53, 68
1, 34126, Note_on_c, 2, 56, 60
1, 34126, Note_on_c, 2, 60, 56
1, 34126, Note_on_c, 2, 65, 108
1, 34126, Note_on_c, 9, 69, 36
1, 34126, Note_on_c, 9, 62, 69
1, 34127, Note_on_c, 9, 62, 0
1, 34127, Note_on_c, 9, 69, 0
1, 34127, Note_on_c, 1, 41, 88
1, 34127, Note_on_c, 9, 51, 54
1, 34127, Note_on_c, 11, 41, 84
1, 34128, Note_on_c, 9, 51, 0
1, 34128, Control_c, 10, 11, 125
1, 34129, Note_on_c, 3, 75, 0
1, 34130, Note_on_c, 11, 37, 0
1, 34130, Note_on_c, 1, 37, 0
1, 34135, Note_on_c, 0, 53, 0
1, 34139, Note_on_c, 0, 65, 0
1, 34141, Note_on_c, 2, 60, 0
1, 34144, Control_c, 10, 11, 126
1, 34147, Note_on_c, 2, 65, 0
1, 34150, Note_on_c, 9, 69, 23
1, 34151, Note_on_c, 9, 69, 0
1, 34151, Note_on_c, 0, 56, 52
1, 34151, Note_on_c, 1, 42, 94
1, 34151, Note_on_c, 9, 51, 42
1, 34151, Note_on_c, 11, 42, 90
1, 34152, Note_on_c, 9, 51, 0
1, 34152, Note_on_c, 1, 41, 0
1, 34152, Note_on_c, 11, 41, 0
1, 34152, Note_on_c, 4, 63, 0
1, 34152, Note_on_c, 4, 70, 0
1, 34152, Note_on_c, 2, 56, 0
1, 34152, Note_on_c, 4, 75, 0
1, 34152, Note_on_c, 2, 65, 71
1, 34152, Note_on_c, 3, 73, 97
1, 34152, Note_on_c, 4, 71, 75
1, 34152, Note_on_c, 4, 61, 75
1, 34152, Note_on_c, 4, 67, 55
1, 34152, Note_on_c, 4, 73, 75
1, 34153, Note_on_c, 2, 60, 71
1, 34158, Note_on_c, 2, 60, 0
1, 34160, Note_on_c, 2, 65, 0
1, 34160, Control_c, 10, 11, 127
1, 34166, Note_on_c, 0, 56, 0
1, 34174, Note_on_c, 2, 59, 83
1, 34174, Note_on_c, 2, 63, 90
1, 34174, Note_on_c, 2, 56, 52
1, 34174, Note_on_c, 2, 53, 42
1, 34175, Note_on_c, 0, 65, 68
1, 34175, Note_on_c, 0, 63, 61
1, 34175, Note_on_c, 0, 56, 62
1, 34175, Note_on_c, 1, 43, 87
1, 34175, Note_on_c, 9, 51, 83
1, 34175, Note_on_c, 11, 43, 83
1, 34176, Note_on_c, 9, 51, 0
1, 34176, Note_on_c, 10, 60, 0
1, 34176, Note_on_c, 0, 59, 81
1, 34176, Note_on_c, 9, 36, 114
1, 34176, Note_on_c, 10, 59, 61
1, 34177, Note_on_c, 9, 36, 0
1, 34178, Note_on_c, 1, 42, 0
1, 34178, Note_on_c, 11, 42, 0
1, 34199, Note_on_c, 9, 44, 49
1, 34200, Note_on_c, 9, 44, 0
1, 34210, Note_on_c, 0, 59, 0
1, 34212, Note_on_c, 0, 63, 0
1, 34217, Note_on_c, 0, 56, 0
1, 34221, Note_on_c, 0, 65, 0
1, 34221, Note_on_c, 2, 63, 0
1, 34221, Note_on_c, 2, 59, 0
1, 34221, Note_on_c, 2, 53, 0
1, 34221, Note_on_c, 0, 53, 65
1, 34222, Note_on_c, 2, 56, 0
1, 34222, Note_on_c, 2, 53, 70
1, 34222, Note_on_c, 2, 59, 100
1, 34222, Note_on_c, 2, 63, 111
1, 34222, Note_on_c, 9, 69, 33
1, 34223, Note_on_c, 9, 69, 0
1, 34223, Note_on_c, 9, 51, 42
1, 34224, Note_on_c, 9, 51, 0
1, 34224, Note_on_c, 2, 56, 64
1, 34229, Note_on_c, 0, 53, 0
1, 34230, Note_on_c, 2, 63, 0
1, 34230, Note_on_c, 2, 59, 0
1, 34236, Note_on_c, 2, 56, 0
1, 34236, Note_on_c, 2, 53, 0
1, 34246, Note_on_c, 2, 63, 62
1, 34246, Note_on_c, 2, 56, 64
1, 34246, Note_on_c, 2, 53, 65
1, 34246, Note_on_c, 2, 59, 69
1, 34247, Note_on_c, 9, 62, 71
1, 34247, Note_on_c, 9, 69, 27
1, 34247, Note_on_c, 9, 51, 41
1, 34248, Note_on_c, 9, 51, 0
1, 34248, Note_on_c, 9, 69, 0
1, 34248, Note_on_c, 9, 62, 0
1, 34249, Note_on_c, 0, 65, 70
1, 34249, Note_on_c, 0, 59, 84
1, 34250, Note_on_c, 0, 56, 58
1, 34263, Note_on_c, 0, 59, 0
1, 34264, Note_on_c, 0, 56, 0
1, 34267, Note_on_c, 0, 65, 0
1, 34271, Note_on_c, 0, 53, 53
1, 34271, Note_on_c, 9, 75, 76
1, 34271, Note_on_c, 9, 40, 107
1, 34272, Note_on_c, 9, 40, 0
1, 34272, Note_on_c, 9, 75, 0
1, 34272, Note_on_c, 1, 43, 0
1, 34272, Note_on_c, 11, 43, 0
1, 34272, Note_on_c, 9, 51, 87
1, 34273, Note_on_c, 9, 51, 0
1, 34273, Note_on_c, 9, 62, 74
1, 34274, Note_on_c, 9, 62, 0
1, 34276, Note_on_c, 0, 53, 0
1, 34283, Note_on_c, 2, 56, 0
1, 34283, Note_on_c, 2, 59, 0
1, 34283, Note_on_c, 2, 53, 0
1, 34286, Note_on_c, 2, 63, 0
1, 34294, Note_on_c, 0, 63, 67
1, 34294, Note_on_c, 2, 59, 63
1, 34295, Note_on_c, 0, 56, 55
1, 34295, Note_on_c, 0, 59, 80
1, 34296, Note_on_c, 2, 53, 69
1, 34296, Note_on_c, 2, 63, 67
1, 34296, Note_on_c, 2, 56, 63
1, 34297, Note_on_c, 9, 44, 57
1, 34298, Note_on_c, 9, 44, 0
1, 34304, Note_on_c, 2, 56, 0
1, 34304, Note_on_c, 2, 59, 0
1, 34305, Note_on_c, 2, 63, 0
1, 34306, Note_on_c, 2, 53, 0
1, 34309, Note_on_c, 0, 63, 0
1, 34310, Note_on_c, 0, 56, 0
1, 34311, Note_on_c, 0, 59, 0
1, 34318, Note_on_c, 0, 53, 54
1, 34318, Note_on_c, 2, 63, 87
1, 34319, Note_on_c, 9, 69, 35
1, 34319, Note_on_c, 9, 51, 44
1, 34320, Note_on_c, 9, 51, 0
1, 34320, Note_on_c, 9, 69, 0
1, 34320, Note_on_c, 2, 59, 62
1, 34320, Note_on_c, 2, 53, 60
1, 34324, Note_on_c, 0, 53, 0
1, 34329, Note_on_c, 2, 59, 0
1, 34338, Note_on_c, 2, 63, 0
1, 34342, Note_on_c, 9, 69, 25
1, 34343, Note_on_c, 9, 69, 0
1, 34343, Note_on_c, 9, 51, 46
1, 34343, Note_on_c, 9, 36, 105
1, 34343, Note_on_c, 9, 62, 80
1, 34344, Note_on_c, 9, 62, 0
1, 34344, Note_on_c, 9, 36, 0
1, 34344, Note_on_c, 9, 51, 0
1, 34344, Note_on_c, 0, 65, 73
1, 34344, Note_on_c, 1, 38, 85
1, 34344, Note_on_c, 2, 59, 67
1, 34344, Note_on_c, 2, 63, 75
1, 34344, Note_on_c, 11, 38, 81
1, 34345, Note_on_c, 0, 59, 84
1, 34345, Note_on_c, 0, 63, 53
1, 34345, Note_on_c, 0, 56, 61
1, 34350, Note_on_c, 2, 63, 0
1, 34350, Note_on_c, 2, 53, 0
1, 34352, Note_on_c, 2, 59, 0
1, 34365, Note_on_c, 1, 38, 0
1, 34365, Note_on_c, 11, 38, 0
1, 34366, Note_on_c, 2, 63, 93
1, 34366, Note_on_c, 2, 53, 60
1, 34366, Note_on_c, 2, 56, 59
1, 34366, Note_on_c, 2, 59, 90
1, 34366, Note_on_c, 9, 36, 67
1, 34367, Note_on_c, 9, 36, 0
1, 34367, Note_on_c, 1, 43, 76
1, 34367, Note_on_c, 9, 62, 55
1, 34367, Note_on_c, 11, 43, 72
1, 34368, Note_on_c, 9, 62, 0
1, 34368, Note_on_c, 9, 51, 70
1, 34369, Note_on_c, 9, 51, 0
1, 34369, Note_on_c, 0, 53, 54
1, 34386, Note_on_c, 0, 53, 0
1, 34391, Note_on_c, 1, 38, 75
1, 34391, Note_on_c, 9, 44, 52
1, 34391, Note_on_c, 11, 38, 71
1, 34392, Note_on_c, 9, 44, 0
1, 34392, Note_on_c, 11, 43, 0
1, 34392, Note_on_c, 1, 43, 0
1, 34395, Note_on_c, 0, 56, 0
1, 34399, Note_on_c, 0, 63, 0
1, 34400, Note_on_c, 0, 65, 0
1, 34402, Note_on_c, 0, 59, 0
1, 34413, Note_on_c, 2, 53, 0
1, 34414, Note_on_c, 2, 56, 0
1, 34414, Note_on_c, 2, 59, 0
1, 34414, Note_on_c, 2, 63, 0
1, 34414, Note_on_c, 0, 56, 55
1, 34414, Note_on_c, 2, 53, 74
1, 34414, Note_on_c, 9, 69, 45
1, 34415, Note_on_c, 9, 69, 0
1, 34415, Note_on_c, 9, 51, 46
1, 34415, Note_on_c, 9, 36, 107
1, 34415, Note_on_c, 9, 62, 76
1, 34416, Note_on_c, 9, 62, 0
1, 34416, Note_on_c, 9, 36, 0
1, 34416, Note_on_c, 9, 51, 0
1, 34416, Note_on_c, 2, 56, 66
1, 34416, Note_on_c, 2, 63, 108
1, 34416, Note_on_c, 2, 59, 104
1, 34417, Note_on_c, 1, 43, 87
1, 34417, Note_on_c, 11, 43, 83
1, 34418, Note_on_c, 1, 38, 0
1, 34418, Note_on_c, 11, 38, 0
1, 34426, Note_on_c, 2, 59, 0
1, 34426, Note_on_c, 2, 56, 0
1, 34426, Note_on_c, 0, 56, 0
1, 34428, Note_on_c, 2, 63, 0
1, 34429, Note_on_c, 2, 53, 0
1, 34438, Note_on_c, 2, 53, 71
1, 34438, Note_on_c, 2, 63, 65
1, 34438, Note_on_c, 2, 56, 60
1, 34438, Note_on_c, 2, 59, 73
1, 34438, Note_on_c, 9, 69, 26
1, 34439, Note_on_c, 9, 69, 0
1, 34439, Note_on_c, 9, 51, 37
1, 34440, Note_on_c, 9, 51, 0
1, 34440, Note_on_c, 0, 59, 53
1, 34450, Note_on_c, 0, 59, 0
1, 34453, Note_on_c, 11, 43, 0
1, 34453, Note_on_c, 1, 43, 0
1, 34456, Note_on_c, 3, 73, 0
1, 34463, Note_on_c, 0, 56, 59
1, 34463, Note_on_c, 0, 59, 69
1, 34463, Note_on_c, 0, 65, 67
1, 34463, Note_on_c, 0, 63, 69
1, 34463, Note_on_c, 9, 51, 91
1, 34463, Note_on_c, 9, 75, 82
1, 34463, Note_on_c, 9, 40, 110
1, 34464, Note_on_c, 9, 40, 0
1, 34464, Note_on_c, 9, 75, 0
1, 34464, Note_on_c, 9, 51, 0
1, 34465, Note_on_c, 9, 62, 84
1, 34466, Note_on_c, 9, 62, 0
1, 34476, Note_on_c, 0, 63, 0
1, 34477, Note_on_c, 2, 56, 0
1, 34478, Note_on_c, 2, 53, 0
1, 34478, Note_on_c, 2, 59, 0
1, 34480, Note_on_c, 2, 63, 0
1, 34480, Note_on_c, 0, 59, 0
1, 34482, Note_on_c, 0, 56, 0
1, 34487, Note_on_c, 0, 56, 47
1, 34487, Note_on_c, 0, 59, 64
1, 34487, Note_on_c, 3, 61, 73
1, 34487, Note_on_c, 9, 44, 52
1, 34488, Note_on_c, 9, 44, 0
1, 34488, Note_on_c, 0, 63, 61
1, 34488, Note_on_c, 1, 38, 80
1, 34488, Note_on_c, 2, 56, 63
1, 34488, Note_on_c, 2, 59, 77
1, 34488, Note_on_c, 2, 63, 61
1, 34488, Note_on_c, 2, 53, 74
1, 34488, Note_on_c, 11, 38, 76
1, 34496, Note_on_c, 2, 59, 0
1, 34496, Note_on_c, 2, 56, 0
1, 34497, Note_on_c, 2, 63, 0
1, 34498, Note_on_c, 2, 53, 0
1, 34506, Note_on_c, 0, 59, 0
1, 34507, Note_on_c, 3, 61, 0
1, 34508, Note_on_c, 11, 38, 0
1, 34508, Note_on_c, 1, 38, 0
1, 34510, Note_on_c, 0, 56, 0
1, 34510, Note_on_c, 0, 65, 0
1, 34510, Note_on_c, 0, 63, 0
1, 34510, Note_on_c, 0, 53, 61
1, 34510, Note_on_c, 3, 63, 93
1, 34510, Note_on_c, 9, 69, 39
1, 34511, Note_on_c, 9, 69, 0
1, 34511, Note_on_c, 9, 51, 48
1, 34512, Note_on_c, 9, 51, 0
1, 34512, Note_on_c, 4, 71, 0
1, 34512, Note_on_c, 4, 73, 0
1, 34512, Note_on_c, 4, 61, 0
1, 34512, Note_on_c, 4, 67, 0
1, 34512, Note_on_c, 1, 43, 64
1, 34512, Note_on_c, 2, 59, 62
1, 34512, Note_on_c, 2, 63, 86
1, 34512, Note_on_c, 2, 53, 62
1, 34512, Note_on_c, 11, 43, 60
1, 34522, Note_on_c, 0, 53, 0
1, 34526, Note_on_c, 2, 59, 0
1, 34532, Note_on_c, 2, 63, 0
1, 34534, Note_on_c, 2, 53, 0
1, 34534, Note_on_c, 11, 43, 0
1, 34534, Note_on_c, 1, 43, 0
1, 34534, Note_on_c, 9, 69, 25
1, 34535, Note_on_c, 9, 69, 0
1, 34535, Note_on_c, 0, 56, 50
1, 34535, Note_on_c, 1, 37, 75
1, 34535, Note_on_c, 9, 51, 48
1, 34535, Note_on_c, 11, 37, 71
1, 34536, Note_on_c, 9, 51, 0
1, 34536, Note_on_c, 2, 63, 90
1, 34536, Note_on_c, 2, 59, 81
1, 34538, Note_on_c, 3, 65, 100
1, 34542, Note_on_c, 2, 59, 0
1, 34542, Note_on_c, 2, 63, 0
1, 34542, Note_on_c, 3, 63, 0
1, 34554, Note_on_c, 0, 56, 0
1, 34558, Note_on_c, 0, 65, 70
1, 34558, Note_on_c, 2, 65, 74
1, 34558, Note_on_c, 2, 61, 93
1, 34558, Note_on_c, 2, 58, 95
1, 34558, Note_on_c, 2, 56, 67
1, 34559, Note_on_c, 0, 58, 68
1, 34559, Note_on_c, 0, 56, 57
1, 34559, Note_on_c, 0, 61, 69
1, 34559, Note_on_c, 1, 42, 79
1, 34559, Note_on_c, 9, 36, 113
1, 34559, Note_on_c, 11, 42, 75
1, 34560, Note_on_c, 9, 36, 0
1, 34560, Note_on_c, 10, 63, 0
1, 34560, Note_on_c, 10, 59, 0
1, 34560, Note_on_c, 9, 51, 73
1, 34560, Note_on_c, 10, 58, 53
1, 34560, Note_on_c, 10, 61, 62
1, 34561, Note_on_c, 9, 51, 0
1, 34562, Note_on_c, 11, 37, 0
1, 34562, Note_on_c, 1, 37, 0
1, 34583, Note_on_c, 3, 65, 0
1, 34583, Note_on_c, 3, 61, 88
1, 34584, Note_on_c, 9, 44, 42
1, 34585, Note_on_c, 9, 44, 0
1, 34598, Note_on_c, 0, 58, 0
1, 34606, Note_on_c, 1, 42, 0
1, 34606, Note_on_c, 2, 65, 0
1, 34606, Note_on_c, 11, 42, 0
1, 34606, Note_on_c, 2, 61, 0
1, 34606, Note_on_c, 2, 58, 0
1, 34606, Note_on_c, 2, 56, 0
1, 34606, Note_on_c, 0, 53, 59
1, 34606, Note_on_c, 9, 69, 35
1, 34607, Note_on_c, 9, 69, 0
1, 34607, Note_on_c, 9, 51, 42
1, 34608, Note_on_c, 9, 51, 0
1, 34608, Note_on_c, 0, 61, 0
1, 34608, Note_on_c, 2, 61, 100
1, 34608, Note_on_c, 2, 56, 81
1, 34608, Note_on_c, 2, 58, 104
1, 34608, Note_on_c, 2, 65, 93
1, 34614, Note_on_c, 0, 53, 0
1, 34614, Note_on_c, 0, 65, 0
1, 34616, Note_on_c, 2, 58, 0
1, 34616, Note_on_c, 0, 56, 0
1, 34617, Note_on_c, 2, 61, 0
1, 34618, Note_on_c, 3, 61, 0
1, 34618, Note_on_c, 2, 56, 0
1, 34620, Note_on_c, 2, 65, 0
1, 34630, Note_on_c, 2, 65, 66
1, 34630, Note_on_c, 2, 56, 64
1, 34631, Note_on_c, 9, 62, 80
1, 34631, Note_on_c, 9, 51, 42
1, 34632, Note_on_c, 9, 51, 0
1, 34632, Note_on_c, 9, 62, 0
1, 34632, Note_on_c, 0, 65, 69
1, 34632, Note_on_c, 2, 61, 67
1, 34632, Note_on_c, 2, 58, 65
1, 34632, Note_on_c, 9, 69, 24
1, 34633, Note_on_c, 9, 69, 0
1, 34633, Note_on_c, 0, 56, 55
1, 34633, Note_on_c, 0, 58, 65
1, 34633, Note_on_c, 3, 61, 93
1, 34634, Note_on_c, 0, 61, 63
1, 34642, Note_on_c, 0, 58, 0
1, 34644, Note_on_c, 0, 61, 0
1, 34645, Note_on_c, 0, 56, 0
1, 34645, Note_on_c, 0, 65, 0
1, 34655, Note_on_c, 0, 53, 52
1, 34655, Note_on_c, 9, 75, 76
1, 34655, Note_on_c, 9, 40, 104
1, 34656, Note_on_c, 9, 40, 0
1, 34656, Note_on_c, 9, 75, 0
1, 34656, Note_on_c, 9, 51, 81
1, 34657, Note_on_c, 9, 51, 0
1, 34657, Note_on_c, 9, 62, 74
1, 34658, Note_on_c, 9, 62, 0
1, 34658, Note_on_c, 0, 53, 0
1, 34668, Note_on_c, 2, 58, 0
1, 34668, Note_on_c, 2, 61, 0
1, 34669, Note_on_c, 2, 65, 0
1, 34670, Note_on_c, 2, 56, 0
1, 34678, Note_on_c, 2, 65, 67
1, 34678, Note_on_c, 2, 61, 61
1, 34679, Note_on_c, 9, 44, 43
1, 34680, Note_on_c, 9, 44, 0
1, 34680, Note_on_c, 0, 63, 65
1, 34680, Note_on_c, 2, 58, 65
1, 34680, Note_on_c, 2, 56, 68
1, 34681, Note_on_c, 0, 58, 58
1, 34682, Note_on_c, 3, 61, 0
1, 34682, Note_on_c, 0, 56, 52
1, 34682, Note_on_c, 3, 58, 95
1, 34685, Note_on_c, 2, 61, 0
1, 34688, Note_on_c, 2, 56, 0
1, 34688, Note_on_c, 2, 58, 0
1, 34688, Note_on_c, 2, 65, 0
1, 34689, Note_on_c, 0, 58, 0
1, 34691, Note_on_c, 0, 63, 0
1, 34693, Note_on_c, 0, 56, 0
1, 34702, Note_on_c, 9, 69, 45
1, 34703, Note_on_c, 9, 69, 0
1, 34703, Note_on_c, 9, 51, 50
1, 34704, Note_on_c, 9, 51, 0
1, 34704, Note_on_c, 0, 53, 57
1, 34704, Note_on_c, 2, 61, 70
1, 34704, Note_on_c, 2, 58, 50
1, 34704, Note_on_c, 2, 65, 83
1, 34711, Note_on_c, 0, 53, 0
1, 34720, Note_on_c, 2, 61, 0
1, 34725, Note_on_c, 2, 65, 0
1, 34726, Note_on_c, 2, 58, 0
1, 34726, Note_on_c, 9, 62, 69
1, 34726, Note_on_c, 9, 69, 34
1, 34727, Note_on_c, 9, 69, 0
1, 34727, Note_on_c, 9, 62, 0
1, 34727, Note_on_c, 0, 65, 62
1, 34727, Note_on_c, 1, 37, 82
1, 34727, Note_on_c, 9, 51, 43
1, 34727, Note_on_c, 11, 37, 78
1, 34728, Note_on_c, 9, 51, 0
1, 34728, Note_on_c, 0, 61, 62
1, 34728, Note_on_c, 0, 56, 58
1, 34728, Note_on_c, 2, 61, 64
1, 34728, Note_on_c, 2, 65, 74
1, 34729, Note_on_c, 0, 58, 62
1, 34729, Note_on_c, 9, 36, 110
1, 34730, Note_on_c, 9, 36, 0
1, 34734, Note_on_c, 2, 65, 0
1, 34738, Note_on_c, 2, 61, 0
1, 34745, Note_on_c, 3, 58, 0
1, 34746, Note_on_c, 11, 37, 0
1, 34746, Note_on_c, 1, 37, 0
1, 34750, Note_on_c, 2, 61, 81
1, 34750, Note_on_c, 2, 65, 71
1, 34750, Note_on_c, 2, 58, 83
1, 34750, Note_on_c, 2, 56, 57
1, 34751, Note_on_c, 0, 53, 55
1, 34751, Note_on_c, 1, 42, 69
1, 34751, Note_on_c, 9, 36, 64
1, 34751, Note_on_c, 11, 42, 65
1, 34752, Note_on_c, 9, 36, 0
1, 34752, Note_on_c, 9, 51, 85
1, 34753, Note_on_c, 9, 51, 0
1, 34753, Note_on_c, 9, 62, 76
1, 34754, Note_on_c, 9, 62, 0
1, 34771, Note_on_c, 0, 56, 0
1, 34775, Note_on_c, 1, 40, 92
1, 34775, Note_on_c, 9, 44, 42
1, 34775, Note_on_c, 11, 40, 88
1, 34776, Note_on_c, 9, 44, 0
1, 34777, Note_on_c, 11, 42, 0
1, 34777, Note_on_c, 1, 42, 0
1, 34794, Note_on_c, 0, 61, 0
1, 34794, Note_on_c, 0, 58, 0
1, 34796, Note_on_c, 0, 65, 0
1, 34797, Note_on_c, 2, 61, 0
1, 34797, Note_on_c, 2, 58, 0
1, 34797, Note_on_c, 2, 65, 0
1, 34797, Note_on_c, 2, 56, 0
1, 34798, Note_on_c, 1, 40, 0
1, 34798, Note_on_c, 11, 40, 0
1, 34798, Note_on_c, 0, 56, 49
1, 34798, Note_on_c, 2, 56, 108
1, 34798, Note_on_c, 2, 61, 111
1, 34798, Note_on_c, 2, 58, 108
1, 34798, Note_on_c, 2, 65, 86
1, 34798, Note_on_c, 9, 69, 43
1, 34799, Note_on_c, 9, 69, 0
1, 34799, Note_on_c, 1, 37, 88
1, 34799, Note_on_c, 11, 37, 84
1, 34800, Note_on_c, 9, 51, 54
1, 34801, Note_on_c, 9, 51, 0
1, 34801, Note_on_c, 9, 36, 113
1, 34802, Note_on_c, 9, 36, 0
1, 34807, Note_on_c, 2, 58, 0
1, 34808, Note_on_c, 2, 61, 0
1, 34809, Note_on_c, 2, 56, 0
1, 34810, Note_on_c, 2, 65, 0
1, 34821, Note_on_c, 0, 58, 54
1, 34822, Note_on_c, 1, 37, 0
1, 34822, Note_on_c, 11, 37, 0
1, 34822, Note_on_c, 2, 61, 72
1, 34822, Note_on_c, 2, 65, 77
1, 34822, Note_on_c, 2, 56, 66
1, 34822, Note_on_c, 2, 58, 62
1, 34822, Note_on_c, 9, 69, 32
1, 34823, Note_on_c, 9, 69, 0
1, 34823, Note_on_c, 9, 51, 49
1, 34824, Note_on_c, 9, 51, 0
1, 34824, Note_on_c, 1, 29, 76
1, 34824, Note_on_c, 4, 58, 65
1, 34824, Note_on_c, 4, 61, 74
1, 34824, Note_on_c, 11, 29, 72
1, 34825, Note_on_c, 3, 58, 85
1, 34825, Note_on_c, 9, 62, 66
1, 34826, Note_on_c, 9, 62, 0
1, 34829, Note_on_c, 0, 56, 0
1, 34834, Note_on_c, 0, 58, 0
1, 34834, Note_on_c, 0, 53, 0
1, 34847, Note_on_c, 0, 56, 57
1, 34847, Note_on_c, 0, 58, 67
1, 34847, Note_on_c, 0, 65, 71
1, 34847, Note_on_c, 1, 30, 85
1, 34847, Note_on_c, 11, 30, 81
1, 34848, Note_on_c, 0, 61, 64
1, 34848, Note_on_c, 9, 75, 76
1, 34849, Note_on_c, 9, 75, 0
1, 34849, Note_on_c, 1, 29, 0
1, 34849, Note_on_c, 11, 29, 0
1, 34849, Note_on_c, 9, 51, 73
1, 34849, Note_on_c, 9, 40, 105
1, 34850, Note_on_c, 9, 40, 0
1, 34850, Note_on_c, 9, 51, 0
1, 34850, Note_on_c, 9, 62, 59
1, 34851, Note_on_c, 9, 62, 0
1, 34854, Note_on_c, 3, 58, 0
1, 34860, Note_on_c, 2, 65, 0
1, 34861, Note_on_c, 0, 61, 0
1, 34862, Note_on_c, 2, 58, 0
1, 34862, Note_on_c, 2, 61, 0
1, 34862, Note_on_c, 0, 58, 0
1, 34866, Note_on_c, 2, 56, 0
1, 34870, Note_on_c, 0, 58, 57
1, 34871, Note_on_c, 4, 58, 0
1, 34871, Note_on_c, 4, 61, 0
1, 34871, Note_on_c, 0, 61, 56
1, 34871, Note_on_c, 3, 58, 97
1, 34871, Note_on_c, 9, 44, 45
1, 34872, Note_on_c, 9, 44, 0
1, 34872, Note_on_c, 2, 58, 67
1, 34872, Note_on_c, 2, 56, 66
1, 34872, Note_on_c, 2, 65, 70
1, 34872, Note_on_c, 2, 61, 62
1, 34872, Note_on_c, 4, 58, 77
1, 34872, Note_on_c, 4, 61, 74
1, 34874, Note_on_c, 9, 62, 59
1, 34875, Note_on_c, 9, 62, 0
1, 34878, Note_on_c, 2, 56, 0
1, 34880, Note_on_c, 2, 61, 0
1, 34880, Note_on_c, 2, 58, 0
1, 34881, Note_on_c, 2, 65, 0
1, 34886, Note_on_c, 0, 56, 0
1, 34887, Note_on_c, 0, 58, 0
1, 34890, Note_on_c, 0, 65, 0
1, 34892, Note_on_c, 0, 61, 0
1, 34893, Note_on_c, 1, 30, 0
1, 34893, Note_on_c, 11, 30, 0
1, 34894, Note_on_c, 9, 69, 35
1, 34895, Note_on_c, 9, 69, 0
1, 34895, Note_on_c, 0, 53, 61
1, 34895, Note_on_c, 1, 42, 78
1, 34895, Note_on_c, 9, 51, 51
1, 34895, Note_on_c, 11, 42, 74
1, 34896, Note_on_c, 9, 51, 0
1, 34896, Note_on_c, 2, 65, 79
1, 34896, Note_on_c, 2, 61, 63
1, 34898, Note_on_c, 2, 58, 58
1, 34898, Note_on_c, 9, 62, 76
1, 34899, Note_on_c, 9, 62, 0
1, 34911, Note_on_c, 2, 58, 0
1, 34912, Note_on_c, 0, 53, 0
1, 34914, Note_on_c, 2, 61, 0
1, 34916, Note_on_c, 2, 65, 0
1, 34918, Note_on_c, 0, 56, 57
1, 34919, Note_on_c, 9, 51, 43
1, 34919, Note_on_c, 9, 69, 25
1, 34920, Note_on_c, 9, 69, 0
1, 34920, Note_on_c, 3, 58, 0
1, 34920, Note_on_c, 9, 51, 0
1, 34920, Note_on_c, 4, 61, 0
1, 34920, Note_on_c, 4, 58, 0
1, 34920, Note_on_c, 1, 35, 92
1, 34920, Note_on_c, 2, 65, 76
1, 34920, Note_on_c, 2, 61, 63
1, 34920, Note_on_c, 4, 63, 74
1, 34920, Note_on_c, 4, 60, 65
1, 34920, Note_on_c, 11, 35, 88
1, 34921, Note_on_c, 1, 42, 0
1, 34921, Note_on_c, 11, 42, 0
1, 34921, Note_on_c, 3, 60, 85
1, 34928, Note_on_c, 2, 65, 0
1, 34928, Note_on_c, 2, 61, 0
1, 34936, Note_on_c, 0, 56, 0
1, 34942, Note_on_c, 0, 53, 62
1, 34942, Note_on_c, 0, 60, 73
1, 34942, Note_on_c, 0, 56, 43
1, 34942, Note_on_c, 0, 63, 71
1, 34942, Note_on_c, 2, 60, 76
1, 34942, Note_on_c, 2, 63, 76
1, 34942, Note_on_c, 2, 53, 60
1, 34943, Note_on_c, 1, 35, 0
1, 34943, Note_on_c, 11, 35, 0
1, 34943, Note_on_c, 1, 41, 86
1, 34943, Note_on_c, 9, 51, 87
1, 34943, Note_on_c, 9, 36, 110
1, 34943, Note_on_c, 11, 41, 82
1, 34944, Note_on_c, 9, 36, 0
1, 34944, Note_on_c, 9, 51, 0
1, 34944, Note_on_c, 10, 58, 0
1, 34944, Note_on_c, 10, 61, 0
1, 34944, Note_on_c, 2, 56, 63
1, 34944, Note_on_c, 10, 60, 64
1, 34944, Note_on_c, 10, 63, 56
1, 34956, Note_on_c, 3, 60, 0
1, 34957, Note_on_c, 0, 53, 0
1, 34967, Note_on_c, 4, 60, 0
1, 34967, Note_on_c, 3, 56, 86
1, 34967, Note_on_c, 9, 44, 42
1, 34968, Note_on_c, 9, 44, 0
1, 34968, Note_on_c, 4, 63, 0
1, 34968, Note_on_c, 4, 60, 75
1, 34968, Note_on_c, 4, 56, 66
1, 34984, Note_on_c, 11, 41, 0
1, 34984, Note_on_c, 1, 41, 0
1, 34989, Note_on_c, 2, 60, 0
1, 34989, Note_on_c, 2, 63, 0
1, 34989, Note_on_c, 2, 53, 0
1, 34989, Note_on_c, 2, 56, 0
1, 34989, Note_on_c, 0, 53, 54
1, 34990, Note_on_c, 0, 60, 0
1, 34990, Note_on_c, 2, 56, 81
1, 34990, Note_on_c, 2, 60, 95
1, 34990, Note_on_c, 2, 53, 68
1, 34990, Note_on_c, 2, 63, 79
1, 34991, Note_on_c, 9, 69, 34
1, 34991, Note_on_c, 9, 51, 55
1, 34992, Note_on_c, 9, 51, 0
1, 34992, Note_on_c, 9, 69, 0
1, 34993, Note_on_c, 0, 63, 0
1, 34994, Note_on_c, 0, 56, 0
1, 34996, Note_on_c, 3, 56, 0
1, 34997, Note_on_c, 2, 56, 0
1, 34998, Note_on_c, 2, 60, 0
1, 34999, Note_on_c, 2, 63, 0
1, 35000, Note_on_c, 0, 53, 0
1, 35007, Note_on_c, 2, 53, 0
1, 35014, Note_on_c, 0, 63, 57
1, 35014, Note_on_c, 0, 60, 59
1, 35014, Note_on_c, 2, 63, 65
1, 35014, Note_on_c, 2, 60, 67
1, 35015, Note_on_c, 4, 56, 0
1, 35015, Note_on_c, 4, 60, 0
1, 35015, Note_on_c, 0, 56, 52
1, 35015, Note_on_c, 3, 56, 87
1, 35015, Note_on_c, 9, 51, 54
1, 35015, Note_on_c, 9, 62, 88
1, 35016, Note_on_c, 9, 62, 0
1, 35016, Note_on_c, 9, 51, 0
1, 35016, Note_on_c, 2, 53, 60
1, 35016, Note_on_c, 2, 56, 59
1, 35016, Note_on_c, 4, 60, 76
1, 35016, Note_on_c, 4, 56, 67
1, 35016, Note_on_c, 9, 69, 27
1, 35017, Note_on_c, 9, 69, 0
1, 35023, Note_on_c, 0, 60, 0
1, 35024, Note_on_c, 0, 56, 0
1, 35026, Note_on_c, 0, 63, 0
1, 35039, Note_on_c, 9, 40, 104
1, 35039, Note_on_c, 9, 51, 94
1, 35040, Note_on_c, 9, 51, 0
1, 35040, Note_on_c, 4, 56, 0
1, 35040, Note_on_c, 9, 40, 0
1, 35040, Note_on_c, 3, 56, 0
1, 35040, Note_on_c, 3, 58, 86
1, 35040, Note_on_c, 4, 58, 66
1, 35040, Note_on_c, 9, 75, 79
1, 35041, Note_on_c, 9, 75, 0
1, 35041, Note_on_c, 9, 62, 74
1, 35042, Note_on_c, 9, 62, 0
1, 35053, Note_on_c, 2, 53, 0
1, 35053, Note_on_c, 2, 60, 0
1, 35053, Note_on_c, 2, 63, 0
1, 35054, Note_on_c, 2, 56, 0
1, 35062, Note_on_c, 0, 56, 48
1, 35062, Note_on_c, 0, 63, 59
1, 35062, Note_on_c, 0, 60, 67
1, 35062, Note_on_c, 2, 63, 68
1, 35062, Note_on_c, 2, 53, 62
1, 35063, Note_on_c, 4, 58, 0
1, 35063, Note_on_c, 9, 44, 43
1, 35064, Note_on_c, 9, 44, 0
1, 35064, Note_on_c, 4, 60, 0
1, 35064, Note_on_c, 2, 60, 74
1, 35064, Note_on_c, 2, 56, 61
1, 35064, Note_on_c, 3, 56, 86
1, 35064, Note_on_c, 4, 56, 66
1, 35064, Note_on_c, 4, 58, 78
1, 35066, Note_on_c, 3, 58, 0
1, 35070, Note_on_c, 0, 63, 0
1, 35071, Note_on_c, 0, 60, 0
1, 35072, Note_on_c, 2, 60, 0
1, 35072, Note_on_c, 2, 56, 0
1, 35072, Note_on_c, 2, 63, 0
1, 35074, Note_on_c, 0, 56, 0
1, 35074, Note_on_c, 2, 53, 0
1, 35086, Note_on_c, 2, 63, 93
1, 35086, Note_on_c, 3, 53, 96
1, 35086, Note_on_c, 9, 69, 37
1, 35087, Note_on_c, 9, 69, 0
1, 35087, Note_on_c, 4, 56, 0
1, 35087, Note_on_c, 9, 51, 44
1, 35088, Note_on_c, 9, 51, 0
1, 35088, Note_on_c, 4, 58, 0
1, 35088, Note_on_c, 2, 60, 59
1, 35088, Note_on_c, 2, 56, 60
1, 35088, Note_on_c, 4, 56, 78
1, 35088, Note_on_c, 4, 53, 76
1, 35089, Note_on_c, 3, 56, 0
1, 35096, Note_on_c, 2, 60, 0
1, 35105, Note_on_c, 2, 63, 0
1, 35110, Note_on_c, 0, 60, 70
1, 35110, Note_on_c, 0, 56, 55
1, 35110, Note_on_c, 0, 63, 66
1, 35110, Note_on_c, 2, 63, 98
1, 35111, Note_on_c, 9, 51, 55
1, 35111, Note_on_c, 9, 69, 33
1, 35111, Note_on_c, 9, 62, 74
1, 35112, Note_on_c, 9, 62, 0
1, 35112, Note_on_c, 9, 69, 0
1, 35112, Note_on_c, 9, 51, 0
1, 35112, Note_on_c, 1, 36, 85
1, 35112, Note_on_c, 2, 60, 69
1, 35112, Note_on_c, 11, 36, 81
1, 35113, Note_on_c, 9, 36, 105
1, 35114, Note_on_c, 9, 36, 0
1, 35117, Note_on_c, 2, 56, 0
1, 35132, Note_on_c, 2, 63, 0
1, 35133, Note_on_c, 2, 60, 0
1, 35133, Note_on_c, 0, 53, 53
1, 35134, Note_on_c, 1, 36, 0
1, 35134, Note_on_c, 11, 36, 0
1, 35134, Note_on_c, 2, 53, 64
1, 35134, Note_on_c, 2, 60, 90
1, 35134, Note_on_c, 2, 63, 74
1, 35134, Note_on_c, 2, 56, 76
1, 35135, Note_on_c, 9, 36, 69
1, 35135, Note_on_c, 9, 62, 69
1, 35135, Note_on_c, 9, 51, 78
1, 35136, Note_on_c, 9, 51, 0
1, 35136, Note_on_c, 9, 62, 0
1, 35136, Note_on_c, 9, 36, 0
1, 35136, Note_on_c, 1, 41, 84
1, 35136, Note_on_c, 11, 41, 80
1, 35156, Note_on_c, 11, 41, 0
1, 35156, Note_on_c, 1, 41, 0
1, 35159, Note_on_c, 9, 44, 49
1, 35160, Note_on_c, 9, 44, 0
1, 35169, Note_on_c, 0, 60, 0
1, 35170, Note_on_c, 0, 56, 0
1, 35174, Note_on_c, 0, 63, 0
1, 35181, Note_on_c, 2, 60, 0
1, 35181, Note_on_c, 2, 56, 0
1, 35181, Note_on_c, 2, 53, 0
1, 35181, Note_on_c, 2, 63, 0
1, 35181, Note_on_c, 0, 63, 54
1, 35182, Note_on_c, 0, 53, 0
1, 35182, Note_on_c, 0, 56, 55
1, 35182, Note_on_c, 0, 60, 58
1, 35182, Note_on_c, 2, 60, 104
1, 35182, Note_on_c, 2, 56, 93
1, 35182, Note_on_c, 2, 63, 93
1, 35182, Note_on_c, 2, 53, 72
1, 35182, Note_on_c, 9, 69, 37
1, 35183, Note_on_c, 9, 69, 0
1, 35183, Note_on_c, 4, 53, 0
1, 35183, Note_on_c, 4, 56, 0
1, 35183, Note_on_c, 1, 29, 94
1, 35183, Note_on_c, 9, 36, 107
1, 35183, Note_on_c, 9, 62, 84
1, 35183, Note_on_c, 9, 51, 46
1, 35183, Note_on_c, 11, 29, 90
1, 35184, Note_on_c, 9, 51, 0
1, 35184, Note_on_c, 9, 62, 0
1, 35184, Note_on_c, 9, 36, 0
1, 35186, Note_on_c, 3, 61, 107
1, 35191, Note_on_c, 2, 60, 0
1, 35191, Note_on_c, 2, 56, 0
1, 35191, Note_on_c, 2, 53, 0
1, 35193, Note_on_c, 2, 63, 0
1, 35202, Note_on_c, 0, 60, 0
1, 35204, Note_on_c, 0, 63, 0
1, 35206, Note_on_c, 0, 56, 0
1, 35206, Note_on_c, 0, 53, 61
1, 35206, Note_on_c, 2, 60, 69
1, 35206, Note_on_c, 2, 56, 61
1, 35206, Note_on_c, 2, 63, 72
1, 35206, Note_on_c, 2, 53, 67
1, 35206, Note_on_c, 9, 69, 27
1, 35207, Note_on_c, 9, 69, 0
1, 35207, Note_on_c, 9, 51, 42
1, 35208, Note_on_c, 9, 51, 0
1, 35212, Note_on_c, 3, 53, 0
1, 35216, Note_on_c, 0, 53, 0
1, 35230, Note_on_c, 0, 56, 57
1, 35230, Note_on_c, 0, 63, 63
1, 35230, Note_on_c, 0, 60, 68
1, 35231, Note_on_c, 9, 40, 107
1, 35231, Note_on_c, 9, 62, 90
1, 35232, Note_on_c, 9, 62, 0
1, 35232, Note_on_c, 9, 40, 0
1, 35232, Note_on_c, 9, 51, 87
1, 35232, Note_on_c, 9, 75, 79
1, 35233, Note_on_c, 9, 75, 0
1, 35233, Note_on_c, 9, 51, 0
1, 35244, Note_on_c, 2, 53, 0
1, 35245, Note_on_c, 2, 63, 0
1, 35246, Note_on_c, 2, 56, 0
1, 35246, Note_on_c, 2, 60, 0
1, 35246, Note_on_c, 0, 60, 0
1, 35247, Note_on_c, 0, 63, 0
1, 35250, Note_on_c, 0, 56, 0
1, 35253, Note_on_c, 3, 64, 91
1, 35254, Note_on_c, 0, 56, 42
1, 35254, Note_on_c, 0, 60, 66
1, 35254, Note_on_c, 0, 63, 62
1, 35254, Note_on_c, 2, 63, 67
1, 35254, Note_on_c, 2, 60, 74
1, 35255, Note_on_c, 9, 44, 44
1, 35256, Note_on_c, 9, 44, 0
1, 35256, Note_on_c, 2, 56, 66
1, 35256, Note_on_c, 2, 53, 66
1, 35260, Note_on_c, 3, 61, 0
1, 35262, Note_on_c, 2, 60, 0
1, 35264, Note_on_c, 2, 63, 0
1, 35264, Note_on_c, 2, 56, 0
1, 35266, Note_on_c, 2, 53, 0
1, 35271, Note_on_c, 0, 60, 0
1, 35276, Note_on_c, 0, 56, 0
1, 35276, Note_on_c, 0, 63, 0
1, 35278, Note_on_c, 0, 53, 57
1, 35278, Note_on_c, 9, 69, 39
1, 35279, Note_on_c, 9, 69, 0
1, 35279, Note_on_c, 9, 51, 48
1, 35280, Note_on_c, 9, 51, 0
1, 35280, Note_on_c, 2, 56, 67
1, 35280, Note_on_c, 2, 63, 93
1, 35280, Note_on_c, 2, 60, 59
1, 35280, Note_on_c, 3, 65, 84
1, 35283, Note_on_c, 3, 64, 0
1, 35289, Note_on_c, 0, 53, 0
1, 35292, Note_on_c, 2, 60, 0
1, 35297, Note_on_c, 2, 63, 0
1, 35302, Note_on_c, 2, 56, 0
1, 35302, Note_on_c, 0, 63, 57
1, 35302, Note_on_c, 2, 63, 87
1, 35303, Note_on_c, 0, 60, 52
1, 35303, Note_on_c, 3, 64, 83
1, 35303, Note_on_c, 9, 51, 43
1, 35303, Note_on_c, 9, 69, 27
1, 35304, Note_on_c, 9, 69, 0
1, 35304, Note_on_c, 9, 51, 0
1, 35304, Note_on_c, 3, 65, 0
1, 35304, Note_on_c, 0, 56, 52
1, 35304, Note_on_c, 2, 60, 74
1, 35307, Note_on_c, 0, 60, 0
1, 35310, Note_on_c, 2, 63, 0
1, 35311, Note_on_c, 0, 63, 0
1, 35312, Note_on_c, 2, 60, 0
1, 35314, Note_on_c, 0, 56, 0
1, 35321, Note_on_c, 11, 29, 0
1, 35321, Note_on_c, 1, 29, 0
1, 35325, Note_on_c, 0, 65, 60
1, 35326, Note_on_c, 0, 56, 57
1, 35326, Note_on_c, 0, 61, 58
1, 35326, Note_on_c, 0, 58, 64
1, 35326, Note_on_c, 2, 65, 67
1, 35326, Note_on_c, 2, 61, 76
1, 35326, Note_on_c, 2, 56, 63
1, 35326, Note_on_c, 2, 58, 83
1, 35327, Note_on_c, 1, 30, 78
1, 35327, Note_on_c, 9, 36, 115
1, 35327, Note_on_c, 9, 51, 87
1, 35327, Note_on_c, 11, 30, 74
1, 35328, Note_on_c, 9, 51, 0
1, 35328, Note_on_c, 9, 36, 0
1, 35328, Note_on_c, 10, 63, 0
1, 35328, Note_on_c, 10, 60, 0
1, 35328, Note_on_c, 10, 53, 0
1, 35328, Note_on_c, 10, 65, 60
1, 35328, Note_on_c, 10, 61, 67
1, 35328, Note_on_c, 10, 58, 61
1, 35330, Note_on_c, 3, 64, 0
1, 35330, Note_on_c, 3, 65, 88
1, 35351, Note_on_c, 9, 44, 41
1, 35352, Note_on_c, 9, 44, 0
1, 35353, Note_on_c, 3, 63, 78
1, 35354, Note_on_c, 3, 65, 0
1, 35373, Note_on_c, 2, 65, 0
1, 35373, Note_on_c, 2, 61, 0
1, 35373, Note_on_c, 0, 58, 0
1, 35373, Note_on_c, 2, 58, 0
1, 35373, Note_on_c, 2, 56, 0
1, 35374, Note_on_c, 0, 56, 0
1, 35374, Note_on_c, 0, 53, 56
1, 35374, Note_on_c, 2, 56, 95
1, 35374, Note_on_c, 2, 58, 108
1, 35374, Note_on_c, 2, 65, 76
1, 35374, Note_on_c, 2, 61, 108
1, 35374, Note_on_c, 9, 69, 46
1, 35375, Note_on_c, 9, 69, 0
1, 35375, Note_on_c, 0, 61, 0
1, 35375, Note_on_c, 9, 51, 52
1, 35376, Note_on_c, 9, 51, 0
1, 35378, Note_on_c, 0, 65, 0
1, 35378, Note_on_c, 3, 61, 81
1, 35382, Note_on_c, 0, 53, 0
1, 35382, Note_on_c, 2, 61, 0
1, 35382, Note_on_c, 2, 58, 0
1, 35383, Note_on_c, 3, 63, 0
1, 35386, Note_on_c, 2, 56, 0
1, 35386, Note_on_c, 2, 65, 0
1, 35398, Note_on_c, 2, 56, 64
1, 35398, Note_on_c, 2, 65, 73
1, 35398, Note_on_c, 2, 61, 69
1, 35398, Note_on_c, 2, 58, 64
1, 35399, Note_on_c, 0, 58, 59
1, 35399, Note_on_c, 0, 65, 66
1, 35399, Note_on_c, 9, 51, 45
1, 35399, Note_on_c, 9, 62, 87
1, 35399, Note_on_c, 9, 69, 33
1, 35400, Note_on_c, 9, 69, 0
1, 35400, Note_on_c, 9, 62, 0
1, 35400, Note_on_c, 9, 51, 0
1, 35400, Note_on_c, 0, 61, 64
1, 35400, Note_on_c, 0, 56, 56
1, 35405, Note_on_c, 11, 30, 0
1, 35405, Note_on_c, 1, 30, 0
1, 35409, Note_on_c, 0, 58, 0
1, 35411, Note_on_c, 0, 56, 0
1, 35412, Note_on_c, 0, 61, 0
1, 35417, Note_on_c, 0, 65, 0
1, 35422, Note_on_c, 3, 63, 86
1, 35423, Note_on_c, 9, 40, 101
1, 35423, Note_on_c, 9, 75, 74
1, 35423, Note_on_c, 9, 51, 81
1, 35424, Note_on_c, 9, 51, 0
1, 35424, Note_on_c, 9, 75, 0
1, 35424, Note_on_c, 9, 40, 0
1, 35424, Note_on_c, 9, 62, 74
1, 35425, Note_on_c, 9, 62, 0
1, 35427, Note_on_c, 3, 61, 0
1, 35436, Note_on_c, 2, 58, 0
1, 35438, Note_on_c, 2, 65, 0
1, 35438, Note_on_c, 2, 56, 0
1, 35439, Note_on_c, 2, 61, 0
1, 35447, Note_on_c, 0, 63, 65
1, 35447, Note_on_c, 0, 58, 57
1, 35447, Note_on_c, 9, 44, 48
1, 35448, Note_on_c, 9, 44, 0
1, 35448, Note_on_c, 0, 56, 53
1, 35448, Note_on_c, 2, 56, 65
1, 35448, Note_on_c, 2, 65, 79
1, 35448, Note_on_c, 2, 61, 65
1, 35449, Note_on_c, 2, 58, 67
1, 35453, Note_on_c, 2, 58, 0
1, 35454, Note_on_c, 2, 61, 0
1, 35456, Note_on_c, 2, 65, 0
1, 35456, Note_on_c, 2, 56, 0
1, 35458, Note_on_c, 0, 56, 0
1, 35459, Note_on_c, 0, 58, 0
1, 35460, Note_on_c, 3, 63, 0
1, 35460, Note_on_c, 3, 65, 83
1, 35463, Note_on_c, 0, 63, 0
1, 35471, Note_on_c, 9, 69, 41
1, 35471, Note_on_c, 9, 51, 48
1, 35472, Note_on_c, 9, 51, 0
1, 35472, Note_on_c, 9, 69, 0
1, 35472, Note_on_c, 2, 61, 58
1, 35472, Note_on_c, 2, 65, 72
1, 35474, Note_on_c, 0, 53, 53
1, 35480, Note_on_c, 0, 53, 0
1, 35486, Note_on_c, 2, 61, 0
1, 35490, Note_on_c, 2, 65, 0
1, 35494, Note_on_c, 1, 37, 80
1, 35494, Note_on_c, 2, 65, 81
1, 35494, Note_on_c, 2, 61, 65
1, 35494, Note_on_c, 9, 62, 69
1, 35494, Note_on_c, 11, 37, 76
1, 35495, Note_on_c, 9, 62, 0
1, 35495, Note_on_c, 0, 65, 53
1, 35495, Note_on_c, 9, 36, 104
1, 35495, Note_on_c, 9, 51, 42
1, 35496, Note_on_c, 9, 51, 0
1, 35496, Note_on_c, 9, 36, 0
1, 35496, Note_on_c, 0, 61, 61
1, 35496, Note_on_c, 9, 69, 33
1, 35497, Note_on_c, 9, 69, 0
1, 35497, Note_on_c, 0, 56, 54
1, 35497, Note_on_c, 0, 58, 60
1, 35502, Note_on_c, 2, 65, 0
1, 35502, Note_on_c, 2, 61, 0
1, 35510, Note_on_c, 3, 65, 0
1, 35518, Note_on_c, 1, 42, 70
1, 35518, Note_on_c, 2, 65, 76
1, 35518, Note_on_c, 2, 56, 60
1, 35518, Note_on_c, 2, 61, 98
1, 35518, Note_on_c, 2, 58, 95
1, 35518, Note_on_c, 11, 42, 66
1, 35519, Note_on_c, 11, 37, 0
1, 35519, Note_on_c, 1, 37, 0
1, 35519, Note_on_c, 0, 53, 53
1, 35519, Note_on_c, 9, 36, 67
1, 35520, Note_on_c, 9, 36, 0
1, 35520, Note_on_c, 9, 51, 83
1, 35521, Note_on_c, 9, 51, 0
1, 35521, Note_on_c, 9, 62, 62
1, 35522, Note_on_c, 9, 62, 0
1, 35535, Note_on_c, 0, 56, 0
1, 35542, Note_on_c, 11, 42, 0
1, 35542, Note_on_c, 1, 42, 0
1, 35542, Note_on_c, 1, 40, 78
1, 35542, Note_on_c, 11, 40, 74
1, 35543, Note_on_c, 9, 44, 42
1, 35544, Note_on_c, 9, 44, 0
1, 35565, Note_on_c, 11, 40, 0
1, 35565, Note_on_c, 1, 40, 0
1, 35566, Note_on_c, 2, 65, 0
1, 35566, Note_on_c, 0, 58, 0
1, 35566, Note_on_c, 2, 58, 0
1, 35566, Note_on_c, 2, 61, 0
1, 35566, Note_on_c, 2, 56, 0
1, 35566, Note_on_c, 9, 69, 41
1, 35567, Note_on_c, 9, 69, 0
1, 35567, Note_on_c, 0, 61, 0
1, 35567, Note_on_c, 0, 56, 50
1, 35567, Note_on_c, 1, 37, 70
1, 35567, Note_on_c, 9, 36, 105
1, 35567, Note_on_c, 9, 51, 46
1, 35567, Note_on_c, 11, 37, 66
1, 35568, Note_on_c, 9, 51, 0
1, 35568, Note_on_c, 9, 36, 0
1, 35568, Note_on_c, 2, 58, 100
1, 35568, Note_on_c, 2, 61, 108
1, 35568, Note_on_c, 2, 56, 90
1, 35568, Note_on_c, 2, 65, 87
1, 35572, Note_on_c, 0, 53, 0
1, 35575, Note_on_c, 0, 65, 0
1, 35578, Note_on_c, 2, 61, 0
1, 35578, Note_on_c, 2, 56, 0
1, 35580, Note_on_c, 2, 58, 0
1, 35581, Note_on_c, 2, 65, 0
1, 35586, Note_on_c, 1, 37, 0
1, 35586, Note_on_c, 11, 37, 0
1, 35590, Note_on_c, 0, 58, 63
1, 35590, Note_on_c, 9, 62, 71
1, 35590, Note_on_c, 9, 69, 23
1, 35591, Note_on_c, 9, 69, 0
1, 35591, Note_on_c, 9, 62, 0
1, 35591, Note_on_c, 0, 56, 0
1, 35591, Note_on_c, 1, 29, 85
1, 35591, Note_on_c, 9, 51, 55
1, 35591, Note_on_c, 11, 29, 81
1, 35592, Note_on_c, 9, 51, 0
1, 35592, Note_on_c, 2, 56, 65
1, 35592, Note_on_c, 2, 65, 73
1, 35592, Note_on_c, 2, 58, 66
1, 35592, Note_on_c, 2, 61, 67
1, 35592, Note_on_c, 4, 58, 65
1, 35592, Note_on_c, 4, 61, 74
1, 35593, Note_on_c, 3, 58, 85
1, 35602, Note_on_c, 0, 58, 0
1, 35615, Note_on_c, 1, 30, 81
1, 35615, Note_on_c, 9, 40, 105
1, 35615, Note_on_c, 9, 51, 81
1, 35615, Note_on_c, 9, 75, 79
1, 35615, Note_on_c, 9, 62, 63
1, 35615, Note_on_c, 11, 30, 77
1, 35616, Note_on_c, 9, 62, 0
1, 35616, Note_on_c, 9, 75, 0
1, 35616, Note_on_c, 9, 51, 0
1, 35616, Note_on_c, 9, 40, 0
1, 35616, Note_on_c, 0, 65, 68
1, 35616, Note_on_c, 0, 61, 58
1, 35616, Note_on_c, 0, 58, 64
1, 35617, Note_on_c, 0, 56, 49
1, 35619, Note_on_c, 11, 29, 0
1, 35619, Note_on_c, 1, 29, 0
1, 35622, Note_on_c, 3, 58, 0
1, 35624, Note_on_c, 2, 58, 0
1, 35626, Note_on_c, 0, 58, 0
1, 35628, Note_on_c, 2, 65, 0
1, 35628, Note_on_c, 2, 61, 0
1, 35630, Note_on_c, 2, 56, 0
1, 35630, Note_on_c, 0, 56, 0
1, 35638, Note_on_c, 2, 65, 75
1, 35638, Note_on_c, 2, 58, 68
1, 35638, Note_on_c, 2, 61, 63
1, 35639, Note_on_c, 4, 61, 0
1, 35639, Note_on_c, 4, 58, 0
1, 35639, Note_on_c, 0, 58, 68
1, 35639, Note_on_c, 0, 56, 53
1, 35639, Note_on_c, 3, 58, 97
1, 35639, Note_on_c, 9, 44, 46
1, 35640, Note_on_c, 9, 44, 0
1, 35640, Note_on_c, 2, 56, 60
1, 35640, Note_on_c, 4, 61, 74
1, 35640, Note_on_c, 4, 58, 77
1, 35641, Note_on_c, 9, 62, 69
1, 35642, Note_on_c, 9, 62, 0
1, 35646, Note_on_c, 2, 56, 0
1, 35646, Note_on_c, 2, 58, 0
1, 35646, Note_on_c, 2, 61, 0
1, 35648, Note_on_c, 2, 65, 0
1, 35650, Note_on_c, 0, 56, 0
1, 35654, Note_on_c, 11, 30, 0
1, 35654, Note_on_c, 1, 30, 0
1, 35657, Note_on_c, 0, 58, 0
1, 35662, Note_on_c, 0, 53, 63
1, 35662, Note_on_c, 1, 42, 69
1, 35662, Note_on_c, 2, 65, 87
1, 35662, Note_on_c, 2, 61, 49
1, 35662, Note_on_c, 2, 58, 58
1, 35662, Note_on_c, 9, 69, 46
1, 35662, Note_on_c, 11, 42, 65
1, 35663, Note_on_c, 9, 69, 0
1, 35663, Note_on_c, 9, 62, 63
1, 35663, Note_on_c, 9, 51, 45
1, 35664, Note_on_c, 9, 51, 0
1, 35664, Note_on_c, 9, 62, 0
1, 35664, Note_on_c, 0, 61, 0
1, 35673, Note_on_c, 0, 53, 0
1, 35673, Note_on_c, 0, 65, 0
1, 35673, Note_on_c, 2, 61, 0
1, 35682, Note_on_c, 2, 65, 0
1, 35682, Note_on_c, 2, 58, 0
1, 35685, Note_on_c, 0, 56, 61
1, 35686, Note_on_c, 2, 61, 70
1, 35686, Note_on_c, 2, 65, 85
1, 35686, Note_on_c, 9, 69, 27
1, 35687, Note_on_c, 9, 69, 0
1, 35687, Note_on_c, 1, 35, 91
1, 35687, Note_on_c, 9, 51, 47
1, 35687, Note_on_c, 11, 35, 87
1, 35688, Note_on_c, 9, 51, 0
1, 35688, Note_on_c, 3, 58, 0
1, 35688, Note_on_c, 4, 61, 0
1, 35688, Note_on_c, 4, 58, 0
1, 35688, Note_on_c, 4, 60, 65
1, 35688, Note_on_c, 4, 63, 74
1, 35689, Note_on_c, 3, 60, 85
1, 35692, Note_on_c, 2, 61, 0
1, 35693, Note_on_c, 11, 42, 0
1, 35693, Note_on_c, 1, 42, 0
1, 35694, Note_on_c, 2, 65, 0
1, 35702, Note_on_c, 0, 56, 0
1, 35709, Note_on_c, 0, 60, 81
1, 35709, Note_on_c, 0, 63, 69
1, 35710, Note_on_c, 0, 53, 54
1, 35710, Note_on_c, 0, 56, 57
1, 35710, Note_on_c, 2, 63, 72
1, 35710, Note_on_c, 2, 53, 68
1, 35710, Note_on_c, 2, 56, 64
1, 35710, Note_on_c, 2, 60, 83
1, 35711, Note_on_c, 1, 41, 90
1, 35711, Note_on_c, 9, 36, 115
1, 35711, Note_on_c, 11, 41, 86
1, 35712, Note_on_c, 9, 36, 0
1, 35712, Note_on_c, 10, 58, 0
1, 35712, Note_on_c, 10, 61, 0
1, 35712, Note_on_c, 10, 65, 0
1, 35712, Note_on_c, 10, 63, 53
1, 35712, Note_on_c, 10, 53, 63
1, 35712, Note_on_c, 10, 60, 54
1, 35713, Note_on_c, 11, 35, 0
1, 35713, Note_on_c, 1, 35, 0
1, 35713, Note_on_c, 9, 51, 81
1, 35714, Note_on_c, 9, 51, 0
1, 35721, Note_on_c, 0, 53, 0
1, 35724, Note_on_c, 3, 60, 0
1, 35735, Note_on_c, 4, 60, 0
1, 35735, Note_on_c, 3, 56, 86
1, 35736, Note_on_c, 4, 63, 0
1, 35736, Note_on_c, 4, 56, 66
1, 35736, Note_on_c, 4, 60, 75
1, 35736, Note_on_c, 9, 44, 46
1, 35737, Note_on_c, 9, 44, 0
1, 35757, Note_on_c, 2, 60, 0
1, 35757, Note_on_c, 2, 63, 0
1, 35757, Note_on_c, 2, 53, 0
1, 35758, Note_on_c, 2, 56, 0
1, 35758, Note_on_c, 0, 60, 0
1, 35758, Note_on_c, 0, 63, 0
1, 35758, Note_on_c, 0, 53, 63
1, 35758, Note_on_c, 2, 60, 87
1, 35758, Note_on_c, 2, 63, 77
1, 35758, Note_on_c, 2, 53, 81
1, 35758, Note_on_c, 9, 69, 39
1, 35759, Note_on_c, 9, 69, 0
1, 35759, Note_on_c, 9, 51, 57
1, 35760, Note_on_c, 9, 51, 0
1, 35760, Note_on_c, 0, 56, 0
1, 35760, Note_on_c, 2, 56, 70
1, 35764, Note_on_c, 3, 56, 0
1, 35766, Note_on_c, 0, 53, 0
1, 35767, Note_on_c, 2, 53, 0
1, 35767, Note_on_c, 2, 60, 0
1, 35769, Note_on_c, 2, 63, 0
1, 35770, Note_on_c, 2, 56, 0
1, 35776, Note_on_c, 11, 41, 0
1, 35776, Note_on_c, 1, 41, 0
1, 35783, Note_on_c, 4, 60, 0
1, 35783, Note_on_c, 4, 56, 0
1, 35783, Note_on_c, 3, 56, 87
1, 35783, Note_on_c, 9, 62, 84
1, 35783, Note_on_c, 9, 51, 46
1, 35783, Note_on_c, 9, 69, 33
1, 35784, Note_on_c, 9, 69, 0
1, 35784, Note_on_c, 9, 51, 0
1, 35784, Note_on_c, 9, 62, 0
1, 35784, Note_on_c, 0, 60, 68
1, 35784, Note_on_c, 0, 63, 59
1, 35784, Note_on_c, 2, 53, 65
1, 35784, Note_on_c, 2, 56, 60
1, 35784, Note_on_c, 2, 63, 67
1, 35784, Note_on_c, 2, 60, 69
1, 35784, Note_on_c, 4, 60, 76
1, 35784, Note_on_c, 4, 56, 67
1, 35785, Note_on_c, 0, 56, 55
1, 35794, Note_on_c, 0, 63, 0
1, 35794, Note_on_c, 0, 60, 0
1, 35796, Note_on_c, 0, 56, 0
1, 35807, Note_on_c, 9, 75, 76
1, 35808, Note_on_c, 9, 75, 0
1, 35808, Note_on_c, 4, 56, 0
1, 35808, Note_on_c, 3, 56, 0
1, 35808, Note_on_c, 3, 58, 86
1, 35808, Note_on_c, 4, 58, 66
1, 35808, Note_on_c, 9, 51, 91
1, 35808, Note_on_c, 9, 40, 107
1, 35809, Note_on_c, 9, 40, 0
1, 35809, Note_on_c, 9, 51, 0
1, 35809, Note_on_c, 9, 62, 71
1, 35810, Note_on_c, 9, 62, 0
1, 35820, Note_on_c, 2, 63, 0
1, 35821, Note_on_c, 2, 53, 0
1, 35822, Note_on_c, 2, 56, 0
1, 35824, Note_on_c, 2, 60, 0
1, 35831, Note_on_c, 4, 58, 0
1, 35831, Note_on_c, 0, 60, 69
1, 35831, Note_on_c, 9, 44, 42
1, 35832, Note_on_c, 9, 44, 0
1, 35832, Note_on_c, 4, 60, 0
1, 35832, Note_on_c, 0, 63, 55
1, 35832, Note_on_c, 2, 53, 67
1, 35832, Note_on_c, 2, 63, 67
1, 35832, Note_on_c, 2, 60, 69
1, 35832, Note_on_c, 3, 56, 86
1, 35832, Note_on_c, 4, 56, 66
1, 35832, Note_on_c, 4, 58, 78
1, 35833, Note_on_c, 0, 56, 52
1, 35833, Note_on_c, 2, 56, 66
1, 35834, Note_on_c, 3, 58, 0
1, 35839, Note_on_c, 2, 56, 0
1, 35840, Note_on_c, 2, 60, 0
1, 35841, Note_on_c, 2, 53, 0
1, 35842, Note_on_c, 2, 63, 0
1, 35842, Note_on_c, 0, 60, 0
1, 35842, Note_on_c, 0, 56, 0
1, 35843, Note_on_c, 0, 63, 0
1, 35854, Note_on_c, 2, 63, 74
1, 35854, Note_on_c, 3, 53, 96
1, 35855, Note_on_c, 4, 56, 0
1, 35855, Note_on_c, 1, 36, 90
1, 35855, Note_on_c, 9, 69, 37
1, 35855, Note_on_c, 11, 36, 86
1, 35856, Note_on_c, 9, 69, 0
1, 35856, Note_on_c, 4, 58, 0
1, 35856, Note_on_c, 2, 56, 65
1, 35856, Note_on_c, 2, 60, 58
1, 35856, Note_on_c, 4, 56, 78
1, 35856, Note_on_c, 4, 53, 76
1, 35856, Note_on_c, 9, 51, 49
1, 35857, Note_on_c, 9, 51, 0
1, 35857, Note_on_c, 3, 56, 0
1, 35864, Note_on_c, 2, 60, 0
1, 35874, Note_on_c, 2, 63, 0
1, 35876, Note_on_c, 1, 36, 0
1, 35876, Note_on_c, 11, 36, 0
1, 35877, Note_on_c, 2, 56, 0
1, 35878, Note_on_c, 1, 39, 72
1, 35878, Note_on_c, 2, 63, 95
1, 35878, Note_on_c, 11, 39, 68
1, 35879, Note_on_c, 9, 69, 27
1, 35879, Note_on_c, 9, 51, 38
1, 35880, Note_on_c, 9, 51, 0
1, 35880, Note_on_c, 9, 69, 0
1, 35880, Note_on_c, 0, 63, 62
1, 35880, Note_on_c, 0, 60, 79
1, 35880, Note_on_c, 2, 60, 72
1, 35880, Note_on_c, 9, 62, 71
1, 35881, Note_on_c, 9, 62, 0
1, 35881, Note_on_c, 0, 56, 59
1, 35881, Note_on_c, 9, 36, 93
1, 35882, Note_on_c, 9, 36, 0
1, 35884, Note_on_c, 2, 63, 0
1, 35886, Note_on_c, 2, 60, 0
1, 35902, Note_on_c, 1, 39, 0
1, 35902, Note_on_c, 11, 39, 0
1, 35902, Note_on_c, 2, 63, 81
1, 35902, Note_on_c, 2, 56, 73
1, 35902, Note_on_c, 2, 53, 72
1, 35902, Note_on_c, 2, 60, 86
1, 35903, Note_on_c, 1, 41, 74
1, 35903, Note_on_c, 9, 36, 65
1, 35903, Note_on_c, 11, 41, 70
1, 35904, Note_on_c, 9, 36, 0
1, 35904, Note_on_c, 0, 53, 57
1, 35905, Note_on_c, 9, 51, 86
1, 35906, Note_on_c, 9, 51, 0
1, 35906, Note_on_c, 9, 62, 71
1, 35907, Note_on_c, 9, 62, 0
1, 35928, Note_on_c, 11, 41, 0
1, 35928, Note_on_c, 1, 41, 0
1, 35928, Note_on_c, 0, 56, 0
1, 35929, Note_on_c, 9, 44, 47
1, 35930, Note_on_c, 9, 44, 0
1, 35945, Note_on_c, 0, 60, 0
1, 35949, Note_on_c, 2, 63, 0
1, 35949, Note_on_c, 2, 60, 0
1, 35949, Note_on_c, 2, 56, 0
1, 35949, Note_on_c, 2, 53, 0
1, 35950, Note_on_c, 0, 63, 0
1, 35950, Note_on_c, 2, 56, 75
1, 35950, Note_on_c, 2, 53, 74
1, 35950, Note_on_c, 2, 60, 87
1, 35950, Note_on_c, 2, 63, 77
1, 35951, Note_on_c, 0, 56, 49
1, 35951, Note_on_c, 1, 29, 90
1, 35951, Note_on_c, 9, 69, 43
1, 35951, Note_on_c, 11, 29, 86
1, 35952, Note_on_c, 9, 69, 0
1, 35952, Note_on_c, 9, 62, 80
1, 35953, Note_on_c, 9, 62, 0
1, 35953, Note_on_c, 9, 36, 110
1, 35953, Note_on_c, 9, 51, 48
1, 35954, Note_on_c, 9, 51, 0
1, 35954, Note_on_c, 9, 36, 0
1, 35960, Note_on_c, 2, 53, 0
1, 35960, Note_on_c, 2, 60, 0
1, 35961, Note_on_c, 2, 56, 0
1, 35964, Note_on_c, 2, 63, 0
1, 35967, Note_on_c, 0, 56, 0
1, 35974, Note_on_c, 0, 60, 61
1, 35975, Note_on_c, 9, 69, 31
1, 35975, Note_on_c, 9, 51, 41
1, 35976, Note_on_c, 9, 51, 0
1, 35976, Note_on_c, 9, 69, 0
1, 35976, Note_on_c, 0, 53, 0
1, 35976, Note_on_c, 2, 60, 69
1, 35976, Note_on_c, 2, 63, 67
1, 35976, Note_on_c, 2, 56, 58
1, 35976, Note_on_c, 2, 53, 63
1, 35980, Note_on_c, 3, 53, 0
1, 35988, Note_on_c, 0, 60, 0
1, 35998, Note_on_c, 3, 73, 96
1, 35999, Note_on_c, 0, 56, 59
1, 35999, Note_on_c, 0, 60, 79
1, 35999, Note_on_c, 0, 63, 68
1, 35999, Note_on_c, 9, 75, 73
1, 36000, Note_on_c, 9, 75, 0
1, 36000, Note_on_c, 11, 29, 0
1, 36000, Note_on_c, 4, 53, 0
1, 36000, Note_on_c, 4, 56, 0
1, 36000, Note_on_c, 1, 29, 0
1, 36000, Note_on_c, 4, 61, 75
1, 36000, Note_on_c, 4, 73, 75
1, 36000, Note_on_c, 9, 40, 105
1, 36001, Note_on_c, 9, 40, 0
1, 36001, Note_on_c, 9, 62, 88
1, 36001, Note_on_c, 9, 51, 81
1, 36002, Note_on_c, 9, 51, 0
1, 36002, Note_on_c, 9, 62, 0
1, 36010, Note_on_c, 2, 56, 0
1, 36012, Note_on_c, 2, 53, 0
1, 36012, Note_on_c, 0, 63, 0
1, 36014, Note_on_c, 2, 63, 0
1, 36014, Note_on_c, 2, 60, 0
1, 36022, Note_on_c, 0, 63, 64
1, 36022, Note_on_c, 3, 70, 85
1, 36023, Note_on_c, 9, 44, 43
1, 36024, Note_on_c, 9, 44, 0
1, 36024, Note_on_c, 4, 73, 0
1, 36024, Note_on_c, 4, 61, 0
1, 36024, Note_on_c, 1, 39, 76
1, 36024, Note_on_c, 2, 53, 61
1, 36024, Note_on_c, 2, 63, 61
1, 36024, Note_on_c, 2, 60, 71
1, 36024, Note_on_c, 2, 56, 60
1, 36024, Note_on_c, 4, 70, 75
1, 36024, Note_on_c, 4, 63, 75
1, 36024, Note_on_c, 11, 39, 72
1, 36026, Note_on_c, 3, 73, 0
1, 36032, Note_on_c, 2, 53, 0
1, 36032, Note_on_c, 2, 56, 0
1, 36032, Note_on_c, 2, 60, 0
1, 36033, Note_on_c, 2, 63, 0
1, 36042, Note_on_c, 0, 56, 0
1, 36043, Note_on_c, 11, 39, 0
1, 36043, Note_on_c, 0, 63, 0
1, 36043, Note_on_c, 1, 39, 0
1, 36045, Note_on_c, 0, 60, 0
1, 36046, Note_on_c, 0, 53, 59
1, 36046, Note_on_c, 2, 60, 54
1, 36046, Note_on_c, 2, 56, 58
1, 36046, Note_on_c, 2, 63, 87
1, 36047, Note_on_c, 1, 40, 72
1, 36047, Note_on_c, 3, 68, 74
1, 36047, Note_on_c, 9, 51, 42
1, 36047, Note_on_c, 9, 69, 32
1, 36047, Note_on_c, 11, 40, 68
1, 36048, Note_on_c, 9, 69, 0
1, 36048, Note_on_c, 9, 51, 0
1, 36048, Note_on_c, 4, 63, 0
1, 36048, Note_on_c, 4, 70, 0
1, 36048, Note_on_c, 4, 68, 75
1, 36048, Note_on_c, 4, 65, 75
1, 36053, Note_on_c, 3, 70, 0
1, 36054, Note_on_c, 2, 60, 0
1, 36063, Note_on_c, 2, 63, 0
1, 36067, Note_on_c, 2, 56, 0
1, 36069, Note_on_c, 0, 53, 0
1, 36069, Note_on_c, 2, 63, 86
1, 36070, Note_on_c, 0, 56, 55
1, 36070, Note_on_c, 2, 60, 71
1, 36071, Note_on_c, 11, 40, 0
1, 36071, Note_on_c, 4, 68, 0
1, 36071, Note_on_c, 1, 40, 0
1, 36071, Note_on_c, 1, 41, 79
1, 36071, Note_on_c, 9, 69, 35
1, 36071, Note_on_c, 9, 51, 42
1, 36071, Note_on_c, 11, 41, 75
1, 36072, Note_on_c, 9, 51, 0
1, 36072, Note_on_c, 4, 65, 0
1, 36072, Note_on_c, 9, 69, 0
1, 36072, Note_on_c, 4, 73, 74
1, 36072, Note_on_c, 4, 68, 74
1, 36074, Note_on_c, 3, 73, 73
1, 36077, Note_on_c, 2, 63, 0
1, 36078, Note_on_c, 2, 60, 0
1, 36081, Note_on_c, 3, 68, 0
1, 36088, Note_on_c, 0, 56, 0
1, 36094, Note_on_c, 0, 58, 66
1, 36094, Note_on_c, 0, 56, 41
1, 36094, Note_on_c, 0, 65, 65
1, 36094, Note_on_c, 0, 61, 63
1, 36094, Note_on_c, 2, 61, 70
1, 36094, Note_on_c, 2, 65, 69
1, 36094, Note_on_c, 2, 56, 70
1, 36094, Note_on_c, 2, 58, 70
1, 36095, Note_on_c, 1, 42, 82
1, 36095, Note_on_c, 9, 51, 83
1, 36095, Note_on_c, 9, 36, 115
1, 36095, Note_on_c, 11, 42, 78
1, 36096, Note_on_c, 9, 36, 0
1, 36096, Note_on_c, 9, 51, 0
1, 36096, Note_on_c, 10, 63, 0
1, 36096, Note_on_c, 10, 60, 0
1, 36096, Note_on_c, 10, 58, 63
1, 36096, Note_on_c, 10, 61, 62
1, 36098, Note_on_c, 1, 41, 0
1, 36098, Note_on_c, 11, 41, 0
1, 36098, Note_on_c, 3, 73, 0
1, 36120, Note_on_c, 4, 68, 0
1, 36120, Note_on_c, 4, 73, 0
1, 36120, Note_on_c, 4, 65, 74
1, 36120, Note_on_c, 4, 70, 74
1, 36120, Note_on_c, 9, 44, 41
1, 36121, Note_on_c, 9, 44, 0
1, 36121, Note_on_c, 3, 70, 83
1, 36137, Note_on_c, 0, 58, 0
1, 36138, Note_on_c, 0, 65, 0
1, 36139, Note_on_c, 0, 61, 0
1, 36142, Note_on_c, 2, 56, 0
1, 36142, Note_on_c, 2, 65, 0
1, 36142, Note_on_c, 2, 58, 0
1, 36142, Note_on_c, 2, 61, 0
1, 36142, Note_on_c, 0, 53, 63
1, 36142, Note_on_c, 9, 69, 50
1, 36143, Note_on_c, 9, 69, 0
1, 36143, Note_on_c, 0, 56, 0
1, 36143, Note_on_c, 9, 51, 49
1, 36144, Note_on_c, 9, 51, 0
1, 36144, Note_on_c, 2, 58, 83
1, 36144, Note_on_c, 2, 56, 76
1, 36144, Note_on_c, 2, 65, 74
1, 36144, Note_on_c, 2, 61, 81
1, 36150, Note_on_c, 2, 56, 0
1, 36150, Note_on_c, 0, 53, 0
1, 36153, Note_on_c, 2, 58, 0
1, 36153, Note_on_c, 2, 61, 0
1, 36156, Note_on_c, 2, 65, 0
1, 36166, Note_on_c, 0, 65, 68
1, 36166, Note_on_c, 2, 56, 61
1, 36166, Note_on_c, 2, 65, 73
1, 36166, Note_on_c, 9, 62, 66
1, 36167, Note_on_c, 9, 62, 0
1, 36167, Note_on_c, 0, 58, 66
1, 36167, Note_on_c, 0, 56, 61
1, 36167, Note_on_c, 9, 51, 47
1, 36167, Note_on_c, 9, 69, 28
1, 36168, Note_on_c, 9, 69, 0
1, 36168, Note_on_c, 9, 51, 0
1, 36168, Note_on_c, 4, 65, 0
1, 36168, Note_on_c, 4, 70, 0
1, 36168, Note_on_c, 2, 61, 63
1, 36168, Note_on_c, 2, 58, 63
1, 36168, Note_on_c, 4, 64, 73
1, 36168, Note_on_c, 4, 68, 73
1, 36169, Note_on_c, 0, 61, 61
1, 36169, Note_on_c, 3, 68, 76
1, 36170, Note_on_c, 3, 70, 0
1, 36173, Note_on_c, 1, 42, 0
1, 36173, Note_on_c, 11, 42, 0
1, 36175, Note_on_c, 0, 61, 0
1, 36176, Note_on_c, 0, 58, 0
1, 36177, Note_on_c, 0, 65, 0
1, 36178, Note_on_c, 0, 56, 0
1, 36191, Note_on_c, 9, 40, 101
1, 36191, Note_on_c, 9, 51, 86
1, 36192, Note_on_c, 9, 51, 0
1, 36192, Note_on_c, 4, 64, 0
1, 36192, Note_on_c, 9, 40, 0
1, 36192, Note_on_c, 4, 68, 0
1, 36192, Note_on_c, 4, 65, 72
1, 36192, Note_on_c, 4, 70, 72
1, 36193, Note_on_c, 3, 70, 77
1, 36193, Note_on_c, 9, 75, 79
1, 36193, Note_on_c, 9, 62, 74
1, 36194, Note_on_c, 9, 62, 0
1, 36194, Note_on_c, 9, 75, 0
1, 36198, Note_on_c, 3, 68, 0
1, 36202, Note_on_c, 2, 65, 0
1, 36203, Note_on_c, 2, 56, 0
1, 36204, Note_on_c, 2, 58, 0
1, 36206, Note_on_c, 2, 61, 0
1, 36215, Note_on_c, 0, 56, 57
1, 36215, Note_on_c, 0, 65, 73
1, 36215, Note_on_c, 0, 58, 65
1, 36215, Note_on_c, 9, 44, 43
1, 36216, Note_on_c, 9, 44, 0
1, 36216, Note_on_c, 4, 70, 0
1, 36216, Note_on_c, 4, 65, 0
1, 36216, Note_on_c, 2, 65, 73
1, 36216, Note_on_c, 2, 58, 67
1, 36216, Note_on_c, 2, 61, 73
1, 36216, Note_on_c, 2, 56, 64
1, 36216, Note_on_c, 4, 63, 72
1, 36216, Note_on_c, 4, 73, 72
1, 36217, Note_on_c, 0, 61, 58
1, 36217, Note_on_c, 3, 73, 83
1, 36222, Note_on_c, 2, 56, 0
1, 36222, Note_on_c, 2, 58, 0
1, 36222, Note_on_c, 3, 70, 0
1, 36222, Note_on_c, 2, 61, 0
1, 36223, Note_on_c, 0, 65, 0
1, 36223, Note_on_c, 0, 61, 0
1, 36224, Note_on_c, 2, 65, 0
1, 36224, Note_on_c, 0, 58, 0
1, 36227, Note_on_c, 0, 56, 0
1, 36238, Note_on_c, 2, 61, 60
1, 36238, Note_on_c, 2, 65, 75
1, 36238, Note_on_c, 9, 69, 45
1, 36239, Note_on_c, 9, 69, 0
1, 36240, Note_on_c, 4, 63, 0
1, 36240, Note_on_c, 2, 58, 60
1, 36240, Note_on_c, 4, 61, 72
1, 36240, Note_on_c, 9, 51, 42
1, 36241, Note_on_c, 9, 51, 0
1, 36255, Note_on_c, 2, 61, 0
1, 36257, Note_on_c, 2, 65, 0
1, 36262, Note_on_c, 2, 58, 0
1, 36262, Note_on_c, 2, 65, 74
1, 36262, Note_on_c, 9, 69, 23
1, 36263, Note_on_c, 9, 69, 0
1, 36263, Note_on_c, 0, 65, 68
1, 36263, Note_on_c, 0, 58, 66
1, 36263, Note_on_c, 0, 56, 59
1, 36263, Note_on_c, 0, 61, 64
1, 36263, Note_on_c, 1, 37, 88
1, 36263, Note_on_c, 9, 36, 105
1, 36263, Note_on_c, 11, 37, 84
1, 36264, Note_on_c, 9, 36, 0
1, 36264, Note_on_c, 2, 61, 64
1, 36264, Note_on_c, 9, 51, 27
1, 36265, Note_on_c, 9, 51, 0
1, 36265, Note_on_c, 9, 62, 71
1, 36266, Note_on_c, 9, 62, 0
1, 36270, Note_on_c, 2, 65, 0
1, 36272, Note_on_c, 2, 61, 0
1, 36286, Note_on_c, 3, 73, 0
1, 36286, Note_on_c, 11, 37, 0
1, 36286, Note_on_c, 1, 37, 0
1, 36286, Note_on_c, 0, 53, 58
1, 36286, Note_on_c, 2, 61, 95
1, 36286, Note_on_c, 2, 58, 95
1, 36286, Note_on_c, 2, 56, 58
1, 36286, Note_on_c, 2, 65, 71
1, 36287, Note_on_c, 1, 42, 64
1, 36287, Note_on_c, 9, 51, 87
1, 36287, Note_on_c, 9, 36, 72
1, 36287, Note_on_c, 11, 42, 60
1, 36288, Note_on_c, 9, 36, 0
1, 36288, Note_on_c, 9, 51, 0
1, 36290, Note_on_c, 9, 62, 74
1, 36291, Note_on_c, 9, 62, 0
1, 36302, Note_on_c, 0, 56, 0
1, 36311, Note_on_c, 1, 34, 69
1, 36311, Note_on_c, 11, 34, 65
1, 36313, Note_on_c, 1, 42, 0
1, 36313, Note_on_c, 11, 42, 0
1, 36313, Note_on_c, 9, 44, 45
1, 36314, Note_on_c, 9, 44, 0
1, 36322, Note_on_c, 0, 58, 0
1, 36325, Note_on_c, 0, 61, 0
1, 36327, Note_on_c, 0, 65, 0
1, 36333, Note_on_c, 4, 73, 0
1, 36333, Note_on_c, 4, 61, 0
1, 36333, Note_on_c, 2, 65, 0
1, 36334, Note_on_c, 2, 61, 0
1, 36334, Note_on_c, 2, 58, 0
1, 36334, Note_on_c, 2, 56, 0
1, 36334, Note_on_c, 0, 56, 37
1, 36334, Note_on_c, 2, 65, 83
1, 36334, Note_on_c, 9, 69, 37
1, 36335, Note_on_c, 9, 69, 0
1, 36335, Note_on_c, 1, 42, 80
1, 36335, Note_on_c, 3, 61, 90
1, 36335, Note_on_c, 9, 51, 51
1, 36335, Note_on_c, 11, 42, 76
1, 36336, Note_on_c, 9, 51, 0
1, 36336, Note_on_c, 2, 56, 93
1, 36336, Note_on_c, 2, 58, 98
1, 36336, Note_on_c, 2, 61, 108
1, 36336, Note_on_c, 9, 36, 107
1, 36337, Note_on_c, 9, 36, 0
1, 36337, Note_on_c, 1, 34, 0
1, 36337, Note_on_c, 11, 34, 0
1, 36344, Note_on_c, 2, 58, 0
1, 36345, Note_on_c, 2, 56, 0
1, 36345, Note_on_c, 2, 61, 0
1, 36346, Note_on_c, 0, 53, 0
1, 36347, Note_on_c, 2, 65, 0
1, 36352, Note_on_c, 0, 56, 0
1, 36358, Note_on_c, 0, 58, 48
1, 36358, Note_on_c, 9, 69, 34
1, 36359, Note_on_c, 9, 69, 0
1, 36359, Note_on_c, 9, 62, 66
1, 36360, Note_on_c, 9, 62, 0
1, 36360, Note_on_c, 2, 61, 62
1, 36360, Note_on_c, 2, 65, 75
1, 36360, Note_on_c, 2, 58, 63
1, 36360, Note_on_c, 2, 56, 61
1, 36360, Note_on_c, 9, 51, 74
1, 36361, Note_on_c, 9, 51, 0
1, 36373, Note_on_c, 1, 42, 0
1, 36373, Note_on_c, 11, 42, 0
1, 36374, Note_on_c, 0, 58, 0
1, 36382, Note_on_c, 0, 61, 66
1, 36382, Note_on_c, 0, 65, 68
1, 36383, Note_on_c, 0, 58, 58
1, 36383, Note_on_c, 9, 40, 105
1, 36383, Note_on_c, 9, 51, 93
1, 36383, Note_on_c, 9, 75, 82
1, 36384, Note_on_c, 9, 75, 0
1, 36384, Note_on_c, 9, 51, 0
1, 36384, Note_on_c, 9, 40, 0
1, 36384, Note_on_c, 0, 56, 56
1, 36386, Note_on_c, 9, 62, 66
1, 36387, Note_on_c, 9, 62, 0
1, 36393, Note_on_c, 2, 56, 0
1, 36394, Note_on_c, 2, 65, 0
1, 36394, Note_on_c, 2, 58, 0
1, 36394, Note_on_c, 0, 56, 0
1, 36396, Note_on_c, 2, 61, 0
1, 36396, Note_on_c, 0, 58, 0
1, 36397, Note_on_c, 0, 61, 0
1, 36406, Note_on_c, 0, 56, 53
1, 36406, Note_on_c, 0, 58, 60
1, 36406, Note_on_c, 2, 61, 63
1, 36407, Note_on_c, 0, 61, 53
1, 36407, Note_on_c, 3, 63, 84
1, 36407, Note_on_c, 9, 44, 50
1, 36408, Note_on_c, 9, 44, 0
1, 36408, Note_on_c, 2, 58, 65
1, 36408, Note_on_c, 2, 65, 72
1, 36408, Note_on_c, 2, 56, 60
1, 36409, Note_on_c, 3, 61, 0
1, 36409, Note_on_c, 1, 37, 86
1, 36409, Note_on_c, 9, 62, 55
1, 36409, Note_on_c, 11, 37, 82
1, 36410, Note_on_c, 9, 62, 0
1, 36412, Note_on_c, 2, 61, 0
1, 36414, Note_on_c, 2, 56, 0
1, 36416, Note_on_c, 2, 58, 0
1, 36416, Note_on_c, 2, 65, 0
1, 36426, Note_on_c, 0, 61, 0
1, 36426, Note_on_c, 0, 56, 0
1, 36429, Note_on_c, 2, 65, 79
1, 36429, Note_on_c, 9, 69, 45
1, 36430, Note_on_c, 9, 69, 0
1, 36430, Note_on_c, 11, 37, 0
1, 36430, Note_on_c, 0, 58, 0
1, 36430, Note_on_c, 1, 37, 0
1, 36430, Note_on_c, 0, 53, 61
1, 36430, Note_on_c, 2, 61, 52
1, 36431, Note_on_c, 1, 42, 70
1, 36431, Note_on_c, 9, 51, 49
1, 36431, Note_on_c, 11, 42, 66
1, 36432, Note_on_c, 9, 51, 0
1, 36434, Note_on_c, 2, 58, 11
1, 36434, Note_on_c, 9, 62, 71
1, 36435, Note_on_c, 9, 62, 0
1, 36439, Note_on_c, 2, 61, 0
1, 36442, Note_on_c, 0, 53, 0
1, 36443, Note_on_c, 3, 65, 85
1, 36445, Note_on_c, 0, 65, 0
1, 36446, Note_on_c, 3, 63, 0
1, 36449, Note_on_c, 2, 65, 0
1, 36450, Note_on_c, 2, 58, 0
1, 36453, Note_on_c, 2, 65, 76
1, 36454, Note_on_c, 0, 56, 50
1, 36454, Note_on_c, 2, 61, 60
1, 36454, Note_on_c, 9, 69, 36
1, 36455, Note_on_c, 9, 69, 0
1, 36455, Note_on_c, 9, 51, 57
1, 36456, Note_on_c, 9, 51, 0
1, 36456, Note_on_c, 1, 35, 88
1, 36456, Note_on_c, 11, 35, 84
1, 36459, Note_on_c, 11, 42, 0
1, 36459, Note_on_c, 1, 42, 0
1, 36461, Note_on_c, 2, 65, 0
1, 36462, Note_on_c, 2, 61, 0
1, 36473, Note_on_c, 0, 56, 0
1, 36478, Note_on_c, 1, 35, 0
1, 36478, Note_on_c, 11, 35, 0
1, 36478, Note_on_c, 0, 63, 71
1, 36478, Note_on_c, 0, 60, 80
1, 36478, Note_on_c, 0, 56, 59
1, 36478, Note_on_c, 2, 56, 59
1, 36478, Note_on_c, 2, 53, 73
1, 36478, Note_on_c, 2, 60, 75
1, 36478, Note_on_c, 2, 63, 72
1, 36479, Note_on_c, 9, 36, 114
1, 36479, Note_on_c, 9, 51, 76
1, 36480, Note_on_c, 9, 51, 0
1, 36480, Note_on_c, 10, 61, 0
1, 36480, Note_on_c, 9, 36, 0
1, 36480, Note_on_c, 10, 58, 0
1, 36480, Note_on_c, 3, 65, 0
1, 36480, Note_on_c, 10, 63, 63
1, 36480, Note_on_c, 10, 60, 63
1, 36481, Note_on_c, 1, 41, 94
1, 36481, Note_on_c, 3, 65, 93
1, 36481, Note_on_c, 11, 41, 90
1, 36501, Note_on_c, 3, 65, 0
1, 36503, Note_on_c, 9, 44, 46
1, 36504, Note_on_c, 9, 44, 0
1, 36506, Note_on_c, 3, 65, 83
1, 36526, Note_on_c, 2, 60, 0
1, 36526, Note_on_c, 2, 53, 0
1, 36526, Note_on_c, 2, 63, 0
1, 36526, Note_on_c, 2, 56, 0
1, 36526, Note_on_c, 0, 53, 61
1, 36526, Note_on_c, 9, 69, 41
1, 36527, Note_on_c, 9, 69, 0
1, 36527, Note_on_c, 0, 60, 0
1, 36527, Note_on_c, 9, 51, 42
1, 36528, Note_on_c, 9, 51, 0
1, 36528, Note_on_c, 2, 60, 111
1, 36528, Note_on_c, 2, 56, 98
1, 36528, Note_on_c, 2, 63, 108
1, 36528, Note_on_c, 2, 53, 77
1, 36530, Note_on_c, 0, 56, 0
1, 36530, Note_on_c, 0, 63, 0
1, 36534, Note_on_c, 3, 65, 0
1, 36537, Note_on_c, 0, 53, 0
1, 36537, Note_on_c, 2, 56, 0
1, 36538, Note_on_c, 2, 60, 0
1, 36538, Note_on_c, 2, 53, 0
1, 36540, Note_on_c, 2, 63, 0
1, 36546, Note_on_c, 11, 41, 0
1, 36546, Note_on_c, 1, 41, 0
1, 36550, Note_on_c, 0, 60, 65
1, 36550, Note_on_c, 0, 63, 61
1, 36550, Note_on_c, 0, 56, 58
1, 36550, Note_on_c, 9, 69, 30
1, 36551, Note_on_c, 9, 69, 0
1, 36551, Note_on_c, 9, 51, 43
1, 36551, Note_on_c, 9, 62, 84
1, 36552, Note_on_c, 9, 62, 0
1, 36552, Note_on_c, 9, 51, 0
1, 36552, Note_on_c, 2, 60, 65
1, 36552, Note_on_c, 2, 63, 68
1, 36552, Note_on_c, 2, 56, 64
1, 36554, Note_on_c, 3, 65, 84
1, 36562, Note_on_c, 0, 60, 0
1, 36565, Note_on_c, 0, 63, 0
1, 36573, Note_on_c, 0, 56, 0
1, 36575, Note_on_c, 9, 75, 79
1, 36576, Note_on_c, 9, 75, 0
1, 36576, Note_on_c, 9, 51, 83
1, 36576, Note_on_c, 9, 40, 101
1, 36577, Note_on_c, 9, 40, 0
1, 36577, Note_on_c, 9, 51, 0
1, 36577, Note_on_c, 9, 62, 71
1, 36578, Note_on_c, 9, 62, 0
1, 36582, Note_on_c, 3, 65, 0
1, 36588, Note_on_c, 2, 56, 0
1, 36589, Note_on_c, 2, 63, 0
1, 36590, Note_on_c, 2, 60, 0
1, 36597, Note_on_c, 0, 60, 73
1, 36597, Note_on_c, 0, 63, 54
1, 36597, Note_on_c, 0, 56, 61
1, 36599, Note_on_c, 9, 44, 43
1, 36600, Note_on_c, 9, 44, 0
1, 36600, Note_on_c, 1, 41, 79
1, 36600, Note_on_c, 2, 60, 67
1, 36600, Note_on_c, 2, 56, 74
1, 36600, Note_on_c, 2, 63, 69
1, 36600, Note_on_c, 11, 41, 75
1, 36601, Note_on_c, 3, 65, 83
1, 36608, Note_on_c, 2, 60, 0
1, 36610, Note_on_c, 2, 63, 0
1, 36610, Note_on_c, 2, 56, 0
1, 36611, Note_on_c, 0, 60, 0
1, 36614, Note_on_c, 0, 63, 0
1, 36616, Note_on_c, 0, 56, 0
1, 36621, Note_on_c, 0, 53, 53
1, 36621, Note_on_c, 9, 69, 45
1, 36622, Note_on_c, 9, 69, 0
1, 36622, Note_on_c, 1, 41, 0
1, 36622, Note_on_c, 11, 41, 0
1, 36622, Note_on_c, 2, 60, 59
1, 36622, Note_on_c, 2, 56, 65
1, 36622, Note_on_c, 2, 63, 71
1, 36623, Note_on_c, 1, 48, 74
1, 36623, Note_on_c, 11, 48, 70
1, 36624, Note_on_c, 9, 51, 51
1, 36625, Note_on_c, 9, 51, 0
1, 36633, Note_on_c, 3, 65, 0
1, 36634, Note_on_c, 0, 53, 0
1, 36635, Note_on_c, 2, 60, 0
1, 36642, Note_on_c, 2, 63, 0
1, 36646, Note_on_c, 2, 56, 0
1, 36646, Note_on_c, 2, 63, 93
1, 36646, Note_on_c, 2, 60, 69
1, 36646, Note_on_c, 9, 69, 30
1, 36646, Note_on_c, 9, 62, 63
1, 36647, Note_on_c, 9, 62, 0
1, 36647, Note_on_c, 9, 69, 0
1, 36647, Note_on_c, 0, 53, 61
1, 36647, Note_on_c, 9, 51, 49
1, 36648, Note_on_c, 9, 51, 0
1, 36648, Note_on_c, 1, 47, 85
1, 36648, Note_on_c, 11, 47, 81
1, 36649, Note_on_c, 3, 65, 88
1, 36649, Note_on_c, 9, 36, 113
1, 36650, Note_on_c, 9, 36, 0
1, 36654, Note_on_c, 2, 63, 0
1, 36654, Note_on_c, 11, 48, 0
1, 36654, Note_on_c, 1, 48, 0
1, 36655, Note_on_c, 2, 60, 0
1, 36657, Note_on_c, 0, 53, 0
1, 36669, Note_on_c, 2, 53, 70
1, 36670, Note_on_c, 11, 47, 0
1, 36670, Note_on_c, 1, 47, 0
1, 36670, Note_on_c, 0, 56, 66
1, 36670, Note_on_c, 0, 63, 84
1, 36670, Note_on_c, 0, 60, 73
1, 36670, Note_on_c, 2, 60, 81
1, 36670, Note_on_c, 2, 63, 85
1, 36670, Note_on_c, 2, 56, 58
1, 36671, Note_on_c, 9, 36, 61
1, 36672, Note_on_c, 9, 36, 0
1, 36672, Note_on_c, 1, 46, 86
1, 36672, Note_on_c, 11, 46, 82
1, 36673, Note_on_c, 3, 65, 0
1, 36673, Note_on_c, 3, 63, 89
1, 36673, Note_on_c, 9, 62, 74
1, 36673, Note_on_c, 9, 51, 78
1, 36674, Note_on_c, 9, 51, 0
1, 36674, Note_on_c, 9, 62, 0
1, 36695, Note_on_c, 9, 44, 47
1, 36696, Note_on_c, 9, 44, 0
1, 36696, Note_on_c, 3, 61, 69
1, 36698, Note_on_c, 3, 63, 0
1, 36717, Note_on_c, 2, 60, 0
1, 36717, Note_on_c, 2, 53, 0
1, 36717, Note_on_c, 2, 63, 0
1, 36717, Note_on_c, 2, 56, 0
1, 36717, Note_on_c, 0, 53, 57
1, 36718, Note_on_c, 2, 63, 100
1, 36718, Note_on_c, 2, 56, 95
1, 36718, Note_on_c, 2, 53, 72
1, 36718, Note_on_c, 2, 60, 90
1, 36719, Note_on_c, 3, 58, 74
1, 36719, Note_on_c, 9, 62, 87
1, 36719, Note_on_c, 9, 69, 41
1, 36719, Note_on_c, 9, 51, 62
1, 36720, Note_on_c, 9, 51, 0
1, 36720, Note_on_c, 9, 69, 0
1, 36720, Note_on_c, 9, 62, 0
1, 36720, Note_on_c, 9, 36, 114
1, 36721, Note_on_c, 9, 36, 0
1, 36722, Note_on_c, 3, 61, 0
1, 36722, Note_on_c, 0, 63, 0
1, 36725, Note_on_c, 2, 60, 0
1, 36728, Note_on_c, 0, 60, 0
1, 36729, Note_on_c, 2, 56, 0
1, 36729, Note_on_c, 2, 63, 0
1, 36729, Note_on_c, 2, 53, 0
1, 36731, Note_on_c, 0, 56, 0
1, 36732, Note_on_c, 0, 53, 0
1, 36742, Note_on_c, 0, 63, 69
1, 36743, Note_on_c, 11, 46, 0
1, 36743, Note_on_c, 1, 46, 0
1, 36743, Note_on_c, 0, 56, 57
1, 36743, Note_on_c, 0, 60, 68
1, 36743, Note_on_c, 3, 61, 81
1, 36743, Note_on_c, 9, 69, 30
1, 36743, Note_on_c, 9, 51, 42
1, 36744, Note_on_c, 9, 51, 0
1, 36744, Note_on_c, 9, 69, 0
1, 36744, Note_on_c, 2, 56, 59
1, 36744, Note_on_c, 2, 58, 60
1, 36744, Note_on_c, 2, 63, 67
1, 36744, Note_on_c, 2, 53, 63
1, 36745, Note_on_c, 1, 41, 78
1, 36745, Note_on_c, 11, 41, 74
1, 36746, Note_on_c, 3, 58, 0
1, 36752, Note_on_c, 0, 63, 0
1, 36755, Note_on_c, 0, 60, 0
1, 36759, Note_on_c, 0, 56, 0
1, 36765, Note_on_c, 1, 41, 0
1, 36765, Note_on_c, 11, 41, 0
1, 36765, Note_on_c, 0, 53, 51
1, 36767, Note_on_c, 9, 75, 83
1, 36767, Note_on_c, 9, 51, 81
1, 36767, Note_on_c, 9, 62, 80
1, 36767, Note_on_c, 9, 40, 107
1, 36768, Note_on_c, 9, 40, 0
1, 36768, Note_on_c, 9, 62, 0
1, 36768, Note_on_c, 9, 75, 0
1, 36768, Note_on_c, 9, 51, 0
1, 36768, Note_on_c, 1, 46, 79
1, 36768, Note_on_c, 11, 46, 75
1, 36770, Note_on_c, 0, 53, 0
1, 36780, Note_on_c, 2, 56, 0
1, 36780, Note_on_c, 2, 58, 0
1, 36780, Note_on_c, 2, 63, 0
1, 36780, Note_on_c, 2, 53, 0
1, 36791, Note_on_c, 0, 56, 57
1, 36791, Note_on_c, 0, 63, 79
1, 36791, Note_on_c, 1, 38, 81
1, 36791, Note_on_c, 3, 58, 59
1, 36791, Note_on_c, 9, 44, 45
1, 36791, Note_on_c, 11, 38, 77
1, 36792, Note_on_c, 9, 44, 0
1, 36792, Note_on_c, 0, 60, 77
1, 36792, Note_on_c, 2, 63, 75
1, 36792, Note_on_c, 2, 58, 63
1, 36792, Note_on_c, 2, 53, 65
1, 36793, Note_on_c, 1, 46, 0
1, 36793, Note_on_c, 3, 61, 0
1, 36793, Note_on_c, 11, 46, 0
1, 36793, Note_on_c, 2, 56, 63
1, 36798, Note_on_c, 2, 63, 0
1, 36799, Note_on_c, 2, 56, 0
1, 36800, Note_on_c, 2, 58, 0
1, 36801, Note_on_c, 2, 53, 0
1, 36804, Note_on_c, 0, 63, 0
1, 36805, Note_on_c, 0, 60, 0
1, 36812, Note_on_c, 0, 53, 54
1, 36813, Note_on_c, 0, 56, 0
1, 36813, Note_on_c, 2, 58, 54
1, 36814, Note_on_c, 11, 38, 0
1, 36814, Note_on_c, 1, 38, 0
1, 36814, Note_on_c, 2, 63, 86
1, 36814, Note_on_c, 2, 56, 69
1, 36815, Note_on_c, 1, 46, 86
1, 36815, Note_on_c, 9, 69, 43
1, 36815, Note_on_c, 11, 46, 82
1, 36816, Note_on_c, 9, 69, 0
1, 36817, Note_on_c, 9, 51, 76
1, 36818, Note_on_c, 9, 51, 0
1, 36825, Note_on_c, 0, 53, 0
1, 36826, Note_on_c, 2, 56, 0
1, 36834, Note_on_c, 2, 63, 0
1, 36834, Note_on_c, 2, 58, 0
1, 36837, Note_on_c, 1, 46, 0
1, 36837, Note_on_c, 11, 46, 0
1, 36838, Note_on_c, 3, 58, 0
1, 36838, Note_on_c, 0, 56, 51
1, 36838, Note_on_c, 2, 63, 76
1, 36839, Note_on_c, 1, 38, 73
1, 36839, Note_on_c, 9, 51, 48
1, 36839, Note_on_c, 11, 38, 69
1, 36840, Note_on_c, 9, 51, 0
1, 36840, Note_on_c, 2, 58, 64
1, 36840, Note_on_c, 3, 61, 91
1, 36840, Note_on_c, 4, 61, 71
1, 36842, Note_on_c, 9, 69, 28
1, 36843, Note_on_c, 9, 69, 0
1, 36847, Note_on_c, 2, 63, 0
1, 36848, Note_on_c, 2, 58, 0
1, 36853, Note_on_c, 0, 56, 0
1, 36860, Note_on_c, 10, 63, 0
1, 36861, Note_on_c, 0, 54, 54
1, 36862, Note_on_c, 0, 61, 66
1, 36862, Note_on_c, 0, 58, 57
1, 36862, Note_on_c, 2, 63, 81
1, 36862, Note_on_c, 2, 54, 74
1, 36862, Note_on_c, 2, 58, 72
1, 36863, Note_on_c, 11, 38, 0
1, 36863, Note_on_c, 1, 38, 0
1, 36863, Note_on_c, 1, 39, 97
1, 36863, Note_on_c, 11, 39, 93
1, 36864, Note_on_c, 10, 56, 0
1, 36864, Note_on_c, 10, 53, 0
1, 36864, Note_on_c, 10, 60, 0
1, 36864, Note_on_c, 9, 51, 91
1, 36864, Note_on_c, 9, 36, 110
1, 36864, Note_on_c, 10, 58, 58
1, 36864, Note_on_c, 10, 54, 74
1, 36864, Note_on_c, 10, 61, 67
1, 36865, Note_on_c, 9, 36, 0
1, 36865, Note_on_c, 9, 51, 0
1, 36887, Note_on_c, 9, 44, 44
1, 36888, Note_on_c, 9, 44, 0
1, 36888, Note_on_c, 0, 54, 0
1, 36889, Note_on_c, 4, 61, 0
1, 36889, Note_on_c, 3, 58, 96
1, 36889, Note_on_c, 4, 58, 76
1, 36890, Note_on_c, 3, 61, 0
1, 36910, Note_on_c, 2, 63, 0
1, 36910, Note_on_c, 0, 61, 0
1, 36910, Note_on_c, 0, 58, 0
1, 36910, Note_on_c, 2, 54, 0
1, 36910, Note_on_c, 2, 58, 0
1, 36910, Note_on_c, 9, 69, 33
1, 36911, Note_on_c, 9, 69, 0
1, 36911, Note_on_c, 9, 51, 40
1, 36912, Note_on_c, 9, 51, 0
1, 36912, Note_on_c, 2, 54, 81
1, 36912, Note_on_c, 2, 58, 112
1, 36912, Note_on_c, 2, 63, 117
1, 36915, Note_on_c, 11, 39, 0
1, 36915, Note_on_c, 1, 39, 0
1, 36920, Note_on_c, 2, 58, 0
1, 36921, Note_on_c, 2, 54, 0
1, 36922, Note_on_c, 2, 63, 0
1, 36934, Note_on_c, 2, 54, 62
1, 36934, Note_on_c, 2, 61, 71
1, 36934, Note_on_c, 2, 58, 64
1, 36934, Note_on_c, 9, 69, 21
1, 36935, Note_on_c, 9, 69, 0
1, 36935, Note_on_c, 9, 51, 44
1, 36936, Note_on_c, 9, 51, 0
1, 36937, Note_on_c, 4, 58, 0
1, 36937, Note_on_c, 0, 58, 65
1, 36937, Note_on_c, 0, 61, 50
1, 36937, Note_on_c, 3, 61, 96
1, 36937, Note_on_c, 4, 61, 76
1, 36937, Note_on_c, 9, 62, 69
1, 36938, Note_on_c, 9, 62, 0
1, 36938, Note_on_c, 3, 58, 0
1, 36949, Note_on_c, 0, 58, 0
1, 36954, Note_on_c, 0, 61, 0
1, 36959, Note_on_c, 9, 75, 79
1, 36959, Note_on_c, 9, 51, 76
1, 36959, Note_on_c, 9, 40, 101
1, 36960, Note_on_c, 9, 40, 0
1, 36960, Note_on_c, 9, 51, 0
1, 36960, Note_on_c, 9, 75, 0
1, 36962, Note_on_c, 9, 62, 66
1, 36963, Note_on_c, 9, 62, 0
1, 36973, Note_on_c, 2, 54, 0
1, 36974, Note_on_c, 2, 58, 0
1, 36974, Note_on_c, 2, 61, 0
1, 36983, Note_on_c, 0, 61, 55
1, 36983, Note_on_c, 0, 73, 71
1, 36983, Note_on_c, 9, 44, 40
1, 36984, Note_on_c, 9, 44, 0
1, 36984, Note_on_c, 0, 54, 61
1, 36984, Note_on_c, 2, 54, 63
1, 36984, Note_on_c, 2, 61, 69
1, 36984, Note_on_c, 2, 58, 65
1, 36986, Note_on_c, 3, 61, 0
1, 36986, Note_on_c, 4, 61, 0
1, 36986, Note_on_c, 0, 58, 46
1, 36986, Note_on_c, 3, 58, 81
1, 36986, Note_on_c, 4, 58, 61
1, 36990, Note_on_c, 2, 58, 0
1, 36992, Note_on_c, 2, 54, 0
1, 36992, Note_on_c, 2, 61, 0
1, 36998, Note_on_c, 0, 58, 0
1, 37005, Note_on_c, 0, 73, 0
1, 37005, Note_on_c, 2, 61, 79
1, 37006, Note_on_c, 2, 58, 58
1, 37006, Note_on_c, 2, 54, 63
1, 37007, Note_on_c, 0, 70, 57
1, 37007, Note_on_c, 9, 69, 33
1, 37007, Note_on_c, 9, 51, 42
1, 37008, Note_on_c, 9, 51, 0
1, 37008, Note_on_c, 9, 69, 0
1, 37015, Note_on_c, 2, 58, 0
1, 37022, Note_on_c, 0, 54, 0
1, 37024, Note_on_c, 0, 61, 0
1, 37026, Note_on_c, 2, 61, 0
1, 37026, Note_on_c, 0, 70, 0
1, 37028, Note_on_c, 3, 58, 0
1, 37030, Note_on_c, 2, 54, 0
1, 37030, Note_on_c, 2, 58, 72
1, 37030, Note_on_c, 2, 61, 90
1, 37031, Note_on_c, 4, 58, 0
1, 37031, Note_on_c, 0, 68, 44
1, 37031, Note_on_c, 1, 34, 76
1, 37031, Note_on_c, 3, 61, 80
1, 37031, Note_on_c, 4, 61, 60
1, 37031, Note_on_c, 9, 51, 40
1, 37031, Note_on_c, 9, 69, 25
1, 37031, Note_on_c, 9, 62, 62
1, 37031, Note_on_c, 11, 34, 72
1, 37032, Note_on_c, 9, 62, 0
1, 37032, Note_on_c, 9, 51, 0
1, 37032, Note_on_c, 9, 69, 0
1, 37032, Note_on_c, 9, 36, 104
1, 37033, Note_on_c, 9, 36, 0
1, 37038, Note_on_c, 2, 61, 0
1, 37040, Note_on_c, 2, 58, 0
1, 37042, Note_on_c, 0, 68, 0
1, 37054, Note_on_c, 0, 73, 84
1, 37054, Note_on_c, 0, 54, 65
1, 37054, Note_on_c, 2, 58, 83
1, 37054, Note_on_c, 2, 61, 81
1, 37054, Note_on_c, 2, 54, 70
1, 37055, Note_on_c, 0, 61, 62
1, 37055, Note_on_c, 0, 58, 59
1, 37055, Note_on_c, 1, 39, 82
1, 37055, Note_on_c, 9, 51, 87
1, 37055, Note_on_c, 9, 36, 68
1, 37055, Note_on_c, 11, 39, 78
1, 37056, Note_on_c, 9, 36, 0
1, 37056, Note_on_c, 9, 51, 0
1, 37057, Note_on_c, 9, 62, 62
1, 37058, Note_on_c, 9, 62, 0
1, 37058, Note_on_c, 11, 34, 0
1, 37058, Note_on_c, 1, 34, 0
1, 37077, Note_on_c, 11, 39, 0
1, 37077, Note_on_c, 1, 39, 0
1, 37078, Note_on_c, 1, 34, 69
1, 37078, Note_on_c, 11, 34, 65
1, 37080, Note_on_c, 9, 44, 46
1, 37081, Note_on_c, 9, 44, 0
1, 37081, Note_on_c, 4, 61, 0
1, 37081, Note_on_c, 3, 58, 93
1, 37081, Note_on_c, 4, 58, 73
1, 37086, Note_on_c, 3, 61, 0
1, 37091, Note_on_c, 0, 58, 0
1, 37094, Note_on_c, 0, 54, 0
1, 37101, Note_on_c, 2, 61, 0
1, 37101, Note_on_c, 2, 58, 0
1, 37101, Note_on_c, 2, 54, 0
1, 37101, Note_on_c, 0, 54, 46
1, 37102, Note_on_c, 2, 61, 114
1, 37102, Note_on_c, 2, 58, 100
1, 37102, Note_on_c, 2, 54, 95
1, 37102, Note_on_c, 9, 69, 35
1, 37103, Note_on_c, 9, 69, 0
1, 37103, Note_on_c, 0, 70, 62
1, 37103, Note_on_c, 1, 39, 91
1, 37103, Note_on_c, 9, 36, 97
1, 37103, Note_on_c, 9, 51, 43
1, 37103, Note_on_c, 11, 39, 87
1, 37104, Note_on_c, 9, 51, 0
1, 37104, Note_on_c, 9, 36, 0
1, 37108, Note_on_c, 1, 34, 0
1, 37108, Note_on_c, 11, 34, 0
1, 37110, Note_on_c, 2, 61, 0
1, 37110, Note_on_c, 0, 73, 0
1, 37110, Note_on_c, 2, 58, 0
1, 37111, Note_on_c, 2, 54, 0
1, 37123, Note_on_c, 0, 70, 0
1, 37124, Note_on_c, 0, 54, 0
1, 37126, Note_on_c, 9, 62, 69
1, 37126, Note_on_c, 9, 69, 29
1, 37127, Note_on_c, 9, 69, 0
1, 37127, Note_on_c, 9, 62, 0
1, 37127, Note_on_c, 9, 51, 54
1, 37128, Note_on_c, 9, 51, 0
1, 37128, Note_on_c, 0, 68, 36
1, 37128, Note_on_c, 2, 54, 65
1, 37128, Note_on_c, 2, 61, 69
1, 37128, Note_on_c, 2, 58, 65
1, 37129, Note_on_c, 0, 61, 0
1, 37131, Note_on_c, 11, 39, 0
1, 37131, Note_on_c, 1, 39, 0
1, 37135, Note_on_c, 0, 68, 0
1, 37151, Note_on_c, 9, 51, 73
1, 37151, Note_on_c, 9, 62, 55
1, 37151, Note_on_c, 9, 40, 104
1, 37152, Note_on_c, 9, 40, 0
1, 37152, Note_on_c, 9, 62, 0
1, 37152, Note_on_c, 9, 51, 0
1, 37152, Note_on_c, 9, 75, 79
1, 37153, Note_on_c, 9, 75, 0
1, 37153, Note_on_c, 0, 73, 81
1, 37153, Note_on_c, 0, 54, 61
1, 37153, Note_on_c, 0, 61, 52
1, 37154, Note_on_c, 0, 58, 52
1, 37164, Note_on_c, 2, 54, 0
1, 37166, Note_on_c, 0, 73, 0
1, 37166, Note_on_c, 2, 58, 0
1, 37168, Note_on_c, 2, 61, 0
1, 37168, Note_on_c, 0, 54, 0
1, 37174, Note_on_c, 9, 62, 52
1, 37175, Note_on_c, 9, 62, 0
1, 37175, Note_on_c, 0, 54, 53
1, 37175, Note_on_c, 0, 73, 70
1, 37175, Note_on_c, 1, 39, 76
1, 37175, Note_on_c, 9, 44, 43
1, 37175, Note_on_c, 11, 39, 72
1, 37176, Note_on_c, 9, 44, 0
1, 37176, Note_on_c, 2, 58, 73
1, 37176, Note_on_c, 2, 54, 62
1, 37176, Note_on_c, 2, 61, 60
1, 37182, Note_on_c, 2, 58, 0
1, 37184, Note_on_c, 2, 61, 0
1, 37186, Note_on_c, 2, 54, 0
1, 37194, Note_on_c, 0, 54, 0
1, 37194, Note_on_c, 11, 39, 0
1, 37194, Note_on_c, 1, 39, 0
1, 37197, Note_on_c, 2, 58, 61
1, 37197, Note_on_c, 2, 61, 72
1, 37198, Note_on_c, 2, 54, 61
1, 37198, Note_on_c, 9, 62, 69
1, 37198, Note_on_c, 9, 69, 36
1, 37199, Note_on_c, 9, 69, 0
1, 37199, Note_on_c, 9, 62, 0
1, 37199, Note_on_c, 1, 46, 81
1, 37199, Note_on_c, 9, 51, 54
1, 37199, Note_on_c, 11, 46, 77
1, 37200, Note_on_c, 9, 51, 0
1, 37200, Note_on_c, 0, 70, 47
1, 37206, Note_on_c, 0, 73, 0
1, 37213, Note_on_c, 2, 58, 0
1, 37216, Note_on_c, 0, 70, 0
1, 37217, Note_on_c, 2, 61, 0
1, 37219, Note_on_c, 2, 54, 0
1, 37221, Note_on_c, 2, 61, 95
1, 37222, Note_on_c, 2, 58, 70
1, 37222, Note_on_c, 9, 69, 23
1, 37223, Note_on_c, 9, 69, 0
1, 37223, Note_on_c, 0, 58, 0
1, 37223, Note_on_c, 1, 45, 76
1, 37223, Note_on_c, 9, 51, 42
1, 37223, Note_on_c, 11, 45, 72
1, 37224, Note_on_c, 9, 51, 0
1, 37224, Note_on_c, 0, 61, 0
1, 37224, Note_on_c, 11, 46, 0
1, 37224, Note_on_c, 1, 46, 0
1, 37224, Note_on_c, 0, 68, 53
1, 37228, Note_on_c, 3, 58, 0
1, 37229, Note_on_c, 2, 61, 0
1, 37230, Note_on_c, 2, 58, 0
1, 37230, Note_on_c, 0, 68, 0
1, 37246, Note_on_c, 2, 54, 67
1, 37246, Note_on_c, 2, 58, 79
1, 37246, Note_on_c, 2, 61, 83
1, 37247, Note_on_c, 1, 44, 99
1, 37247, Note_on_c, 9, 51, 83
1, 37247, Note_on_c, 11, 44, 95
1, 37248, Note_on_c, 9, 51, 0
1, 37248, Note_on_c, 4, 58, 0
1, 37248, Note_on_c, 11, 45, 0
1, 37248, Note_on_c, 1, 45, 0
1, 37248, Note_on_c, 9, 36, 114
1, 37248, Note_on_c, 10, 68, 58
1, 37249, Note_on_c, 9, 36, 0
1, 37271, Note_on_c, 9, 44, 49
1, 37272, Note_on_c, 9, 44, 0
1, 37273, Note_on_c, 0, 61, 56
1, 37273, Note_on_c, 0, 63, 42
1, 37273, Note_on_c, 0, 58, 54
1, 37273, Note_on_c, 0, 73, 92
1, 37273, Note_on_c, 0, 54, 55
1, 37291, Note_on_c, 0, 54, 0
1, 37293, Note_on_c, 2, 58, 0
1, 37293, Note_on_c, 2, 61, 0
1, 37294, Note_on_c, 2, 54, 0
1, 37295, Note_on_c, 2, 54, 100
1, 37295, Note_on_c, 2, 58, 111
1, 37295, Note_on_c, 2, 61, 108
1, 37295, Note_on_c, 9, 69, 33
1, 37295, Note_on_c, 9, 51, 42
1, 37296, Note_on_c, 9, 51, 0
1, 37296, Note_on_c, 9, 69, 0
1, 37297, Note_on_c, 0, 63, 0
1, 37297, Note_on_c, 0, 70, 54
1, 37298, Note_on_c, 0, 73, 0
1, 37304, Note_on_c, 2, 54, 0
1, 37305, Note_on_c, 2, 58, 0
1, 37306, Note_on_c, 2, 61, 0
1, 37306, Note_on_c, 0, 58, 0
1, 37309, Note_on_c, 0, 61, 0
1, 37314, Note_on_c, 0, 70, 0
1, 37319, Note_on_c, 2, 61, 75
1, 37319, Note_on_c, 2, 58, 63
1, 37319, Note_on_c, 2, 54, 63
1, 37319, Note_on_c, 9, 69, 27
1, 37319, Note_on_c, 9, 62, 71
1, 37319, Note_on_c, 9, 51, 41
1, 37320, Note_on_c, 9, 51, 0
1, 37320, Note_on_c, 9, 69, 0
1, 37320, Note_on_c, 9, 62, 0
1, 37321, Note_on_c, 0, 68, 35
1, 37330, Note_on_c, 0, 68, 0
1, 37342, Note_on_c, 1, 44, 0
1, 37342, Note_on_c, 11, 44, 0
1, 37343, Note_on_c, 9, 75, 76
1, 37343, Note_on_c, 9, 40, 107
1, 37344, Note_on_c, 9, 40, 0
1, 37344, Note_on_c, 9, 75, 0
1, 37344, Note_on_c, 9, 51, 87
1, 37345, Note_on_c, 9, 51, 0
1, 37345, Note_on_c, 0, 63, 64
1, 37345, Note_on_c, 0, 54, 55
1, 37345, Note_on_c, 0, 58, 59
1, 37345, Note_on_c, 0, 61, 57
1, 37345, Note_on_c, 0, 73, 94
1, 37345, Note_on_c, 9, 62, 74
1, 37346, Note_on_c, 9, 62, 0
1, 37354, Note_on_c, 2, 54, 0
1, 37355, Note_on_c, 2, 58, 0
1, 37355, Note_on_c, 2, 61, 0
1, 37362, Note_on_c, 0, 61, 0
1, 37364, Note_on_c, 0, 54, 0
1, 37367, Note_on_c, 2, 54, 62
1, 37367, Note_on_c, 2, 61, 74
1, 37367, Note_on_c, 2, 58, 77
1, 37369, Note_on_c, 1, 39, 80
1, 37369, Note_on_c, 9, 44, 57
1, 37369, Note_on_c, 11, 39, 76
1, 37370, Note_on_c, 9, 44, 0
1, 37376, Note_on_c, 2, 54, 0
1, 37377, Note_on_c, 2, 58, 0
1, 37377, Note_on_c, 0, 58, 0
1, 37378, Note_on_c, 2, 61, 0
1, 37391, Note_on_c, 0, 61, 59
1, 37391, Note_on_c, 0, 54, 52
1, 37391, Note_on_c, 1, 30, 79
1, 37391, Note_on_c, 2, 58, 55
1, 37391, Note_on_c, 2, 61, 75
1, 37391, Note_on_c, 9, 69, 35
1, 37391, Note_on_c, 9, 51, 44
1, 37391, Note_on_c, 11, 30, 75
1, 37392, Note_on_c, 9, 51, 0
1, 37392, Note_on_c, 9, 69, 0
1, 37392, Note_on_c, 0, 70, 61
1, 37395, Note_on_c, 0, 73, 0
1, 37399, Note_on_c, 1, 39, 0
1, 37399, Note_on_c, 11, 39, 0
1, 37406, Note_on_c, 0, 63, 0
1, 37407, Note_on_c, 2, 58, 0
1, 37408, Note_on_c, 0, 54, 0
1, 37409, Note_on_c, 0, 61, 0
1, 37411, Note_on_c, 2, 61, 0
1, 37414, Note_on_c, 0, 70, 0
1, 37415, Note_on_c, 0, 68, 42
1, 37415, Note_on_c, 2, 58, 61
1, 37415, Note_on_c, 2, 61, 85
1, 37415, Note_on_c, 9, 62, 80
1, 37415, Note_on_c, 9, 51, 46
1, 37415, Note_on_c, 9, 36, 105
1, 37415, Note_on_c, 9, 69, 25
1, 37416, Note_on_c, 9, 69, 0
1, 37416, Note_on_c, 9, 62, 0
1, 37416, Note_on_c, 9, 36, 0
1, 37416, Note_on_c, 9, 51, 0
1, 37417, Note_on_c, 1, 31, 91
1, 37417, Note_on_c, 11, 31, 87
1, 37419, Note_on_c, 11, 30, 0
1, 37419, Note_on_c, 1, 30, 0
1, 37424, Note_on_c, 2, 61, 0
1, 37426, Note_on_c, 2, 58, 0
1, 37427, Note_on_c, 0, 68, 0
1, 37439, Note_on_c, 0, 63, 57
1, 37439, Note_on_c, 0, 58, 53
1, 37439, Note_on_c, 2, 54, 79
1, 37439, Note_on_c, 2, 58, 98
1, 37439, Note_on_c, 2, 61, 95
1, 37439, Note_on_c, 9, 36, 67
1, 37439, Note_on_c, 9, 62, 55
1, 37440, Note_on_c, 9, 62, 0
1, 37440, Note_on_c, 9, 36, 0
1, 37440, Note_on_c, 9, 51, 70
1, 37441, Note_on_c, 9, 51, 0
1, 37441, Note_on_c, 0, 54, 54
1, 37441, Note_on_c, 0, 61, 56
1, 37441, Note_on_c, 0, 73, 70
1, 37441, Note_on_c, 1, 32, 92
1, 37441, Note_on_c, 11, 32, 88
1, 37445, Note_on_c, 11, 31, 0
1, 37445, Note_on_c, 1, 31, 0
1, 37456, Note_on_c, 11, 32, 0
1, 37456, Note_on_c, 1, 32, 0
1, 37463, Note_on_c, 9, 44, 52
1, 37464, Note_on_c, 9, 44, 0
1, 37470, Note_on_c, 0, 61, 0
1, 37474, Note_on_c, 0, 54, 0
1, 37481, Note_on_c, 0, 73, 0
1, 37484, Note_on_c, 0, 58, 0
1, 37486, Note_on_c, 2, 54, 0
1, 37487, Note_on_c, 2, 61, 0
1, 37487, Note_on_c, 2, 58, 0
1, 37487, Note_on_c, 0, 61, 52
1, 37487, Note_on_c, 1, 32, 90
1, 37487, Note_on_c, 2, 54, 114
1, 37487, Note_on_c, 9, 69, 45
1, 37487, Note_on_c, 9, 62, 76
1, 37487, Note_on_c, 9, 36, 107
1, 37487, Note_on_c, 9, 51, 46
1, 37487, Note_on_c, 11, 32, 86
1, 37488, Note_on_c, 9, 51, 0
1, 37488, Note_on_c, 9, 62, 0
1, 37488, Note_on_c, 9, 69, 0
1, 37488, Note_on_c, 9, 36, 0
1, 37488, Note_on_c, 2, 58, 112
1, 37488, Note_on_c, 2, 61, 108
1, 37494, Note_on_c, 0, 61, 0
1, 37495, Note_on_c, 2, 54, 0
1, 37496, Note_on_c, 2, 61, 0
1, 37497, Note_on_c, 2, 58, 0
1, 37498, Note_on_c, 0, 63, 0
1, 37511, Note_on_c, 2, 58, 67
1, 37511, Note_on_c, 2, 54, 63
1, 37511, Note_on_c, 2, 61, 72
1, 37511, Note_on_c, 9, 69, 26
1, 37511, Note_on_c, 9, 51, 37
1, 37512, Note_on_c, 9, 51, 0
1, 37512, Note_on_c, 9, 69, 0
1, 37512, Note_on_c, 0, 61, 53
1, 37512, Note_on_c, 0, 73, 84
1, 37513, Note_on_c, 0, 63, 52
1, 37523, Note_on_c, 0, 73, 0
1, 37523, Note_on_c, 0, 61, 0
1, 37534, Note_on_c, 0, 63, 0
1, 37535, Note_on_c, 9, 40, 110
1, 37535, Note_on_c, 9, 75, 82
1, 37535, Note_on_c, 9, 51, 91
1, 37536, Note_on_c, 9, 51, 0
1, 37536, Note_on_c, 9, 40, 0
1, 37536, Note_on_c, 9, 75, 0
1, 37537, Note_on_c, 9, 62, 84
1, 37538, Note_on_c, 9, 62, 0
1, 37540, Note_on_c, 11, 32, 0
1, 37540, Note_on_c, 1, 32, 0
1, 37549, Note_on_c, 2, 54, 0
1, 37551, Note_on_c, 2, 58, 0
1, 37552, Note_on_c, 2, 61, 0
1, 37559, Note_on_c, 0, 58, 47
1, 37559, Note_on_c, 1, 32, 84
1, 37559, Note_on_c, 9, 44, 52
1, 37559, Note_on_c, 11, 32, 80
1, 37560, Note_on_c, 9, 44, 0
1, 37560, Note_on_c, 0, 61, 53
1, 37560, Note_on_c, 0, 68, 84
1, 37560, Note_on_c, 2, 58, 69
1, 37560, Note_on_c, 2, 54, 68
1, 37560, Note_on_c, 2, 61, 67
1, 37568, Note_on_c, 2, 54, 0
1, 37568, Note_on_c, 2, 58, 0
1, 37569, Note_on_c, 2, 61, 0
1, 37576, Note_on_c, 11, 32, 0
1, 37576, Note_on_c, 1, 32, 0
1, 37583, Note_on_c, 1, 39, 73
1, 37583, Note_on_c, 2, 61, 81
1, 37583, Note_on_c, 2, 58, 59
1, 37583, Note_on_c, 9, 51, 48
1, 37583, Note_on_c, 9, 69, 39
1, 37583, Note_on_c, 11, 39, 69
1, 37584, Note_on_c, 9, 69, 0
1, 37584, Note_on_c, 9, 51, 0
1, 37584, Note_on_c, 2, 54, 51
1, 37594, Note_on_c, 2, 58, 0
1, 37594, Note_on_c, 0, 61, 0
1, 37596, Note_on_c, 0, 58, 0
1, 37601, Note_on_c, 2, 54, 0
1, 37603, Note_on_c, 2, 61, 0
1, 37607, Note_on_c, 1, 32, 85
1, 37607, Note_on_c, 2, 58, 67
1, 37607, Note_on_c, 2, 61, 79
1, 37607, Note_on_c, 9, 69, 25
1, 37607, Note_on_c, 9, 51, 48
1, 37607, Note_on_c, 11, 32, 81
1, 37608, Note_on_c, 9, 51, 0
1, 37608, Note_on_c, 9, 69, 0
1, 37609, Note_on_c, 1, 39, 0
1, 37609, Note_on_c, 11, 39, 0
1, 37615, Note_on_c, 2, 58, 0
1, 37615, Note_on_c, 2, 61, 0
1, 37616, Note_on_c, 0, 68, 0
1, 37631, Note_on_c, 10, 61, 0
1, 37631, Note_on_c, 10, 58, 0
1, 37631, Note_on_c, 1, 37, 87
1, 37631, Note_on_c, 2, 58, 79
1, 37631, Note_on_c, 2, 65, 72
1, 37631, Note_on_c, 2, 61, 83
1, 37631, Note_on_c, 11, 37, 83
1, 37632, Note_on_c, 10, 68, 0
1, 37632, Note_on_c, 1, 32, 0
1, 37632, Note_on_c, 10, 54, 0
1, 37632, Note_on_c, 11, 32, 0
1, 37632, Note_on_c, 0, 65, 60
1, 37632, Note_on_c, 0, 61, 68
1, 37632, Note_on_c, 0, 58, 59
1, 37632, Note_on_c, 2, 56, 59
1, 37632, Note_on_c, 9, 51, 91
1, 37632, Note_on_c, 9, 36, 110
1, 37632, Note_on_c, 10, 56, 59
1, 37632, Note_on_c, 10, 61, 59
1, 37632, Note_on_c, 10, 58, 59
1, 37632, Note_on_c, 10, 65, 59
1, 37633, Note_on_c, 9, 36, 0
1, 37633, Note_on_c, 9, 51, 0
1, 37633, Note_on_c, 3, 70, 87
1, 37633, Note_on_c, 4, 70, 67
1, 37655, Note_on_c, 9, 44, 44
1, 37656, Note_on_c, 9, 44, 0
1, 37667, Note_on_c, 0, 61, 0
1, 37669, Note_on_c, 0, 65, 0
1, 37670, Note_on_c, 0, 58, 0
1, 37678, Note_on_c, 2, 56, 0
1, 37679, Note_on_c, 2, 61, 0
1, 37679, Note_on_c, 2, 65, 0
1, 37679, Note_on_c, 2, 58, 0
1, 37679, Note_on_c, 9, 69, 33
1, 37679, Note_on_c, 9, 51, 40
1, 37680, Note_on_c, 9, 51, 0
1, 37680, Note_on_c, 9, 69, 0
1, 37680, Note_on_c, 4, 70, 0
1, 37680, Note_on_c, 2, 58, 104
1, 37680, Note_on_c, 2, 56, 86
1, 37680, Note_on_c, 2, 65, 83
1, 37680, Note_on_c, 2, 61, 100
1, 37680, Note_on_c, 3, 65, 75
1, 37680, Note_on_c, 4, 65, 55
1, 37681, Note_on_c, 3, 70, 0
1, 37681, Note_on_c, 0, 56, 52
1, 37681, Note_on_c, 0, 61, 63
1, 37681, Note_on_c, 0, 58, 59
1, 37681, Note_on_c, 0, 65, 59
1, 37688, Note_on_c, 2, 61, 0
1, 37690, Note_on_c, 2, 58, 0
1, 37690, Note_on_c, 2, 56, 0
1, 37693, Note_on_c, 2, 65, 0
1, 37703, Note_on_c, 9, 51, 44
1, 37703, Note_on_c, 9, 69, 21
1, 37704, Note_on_c, 9, 69, 0
1, 37704, Note_on_c, 0, 56, 0
1, 37704, Note_on_c, 4, 65, 0
1, 37704, Note_on_c, 9, 51, 0
1, 37704, Note_on_c, 0, 58, 0
1, 37704, Note_on_c, 3, 65, 0
1, 37704, Note_on_c, 2, 56, 63
1, 37704, Note_on_c, 2, 65, 74
1, 37704, Note_on_c, 2, 61, 74
1, 37704, Note_on_c, 2, 58, 64
1, 37704, Note_on_c, 3, 68, 79
1, 37704, Note_on_c, 4, 68, 59
1, 37705, Note_on_c, 9, 62, 69
1, 37706, Note_on_c, 9, 62, 0
1, 37706, Note_on_c, 0, 61, 0
1, 37711, Note_on_c, 0, 65, 0
1, 37727, Note_on_c, 9, 51, 76
1, 37727, Note_on_c, 9, 75, 79
1, 37727, Note_on_c, 9, 40, 101
1, 37728, Note_on_c, 9, 40, 0
1, 37728, Note_on_c, 9, 75, 0
1, 37728, Note_on_c, 9, 51, 0
1, 37729, Note_on_c, 1, 37, 0
1, 37729, Note_on_c, 11, 37, 0
1, 37729, Note_on_c, 9, 62, 66
1, 37730, Note_on_c, 9, 62, 0
1, 37740, Note_on_c, 2, 65, 0
1, 37740, Note_on_c, 2, 61, 0
1, 37740, Note_on_c, 2, 56, 0
1, 37740, Note_on_c, 2, 58, 0
1, 37751, Note_on_c, 0, 58, 70
1, 37751, Note_on_c, 0, 65, 70
1, 37751, Note_on_c, 2, 65, 70
1, 37751, Note_on_c, 9, 44, 40
1, 37752, Note_on_c, 9, 44, 0
1, 37752, Note_on_c, 3, 68, 0
1, 37752, Note_on_c, 4, 68, 0
1, 37752, Note_on_c, 0, 56, 58
1, 37752, Note_on_c, 2, 58, 67
1, 37752, Note_on_c, 2, 56, 67
1, 37752, Note_on_c, 2, 61, 71
1, 37752, Note_on_c, 3, 70, 87
1, 37752, Note_on_c, 4, 70, 67
1, 37757, Note_on_c, 2, 61, 0
1, 37758, Note_on_c, 2, 56, 0
1, 37758, Note_on_c, 2, 58, 0
1, 37759, Note_on_c, 2, 65, 0
1, 37775, Note_on_c, 0, 56, 0
1, 37775, Note_on_c, 0, 61, 60
1, 37775, Note_on_c, 2, 65, 87
1, 37775, Note_on_c, 2, 61, 60
1, 37775, Note_on_c, 2, 58, 47
1, 37775, Note_on_c, 9, 69, 33
1, 37775, Note_on_c, 9, 51, 42
1, 37776, Note_on_c, 9, 51, 0
1, 37776, Note_on_c, 9, 69, 0
1, 37778, Note_on_c, 0, 58, 0
1, 37786, Note_on_c, 2, 61, 0
1, 37787, Note_on_c, 0, 65, 0
1, 37795, Note_on_c, 2, 65, 0
1, 37795, Note_on_c, 2, 58, 0
1, 37799, Note_on_c, 0, 61, 0
1, 37799, Note_on_c, 0, 56, 8
1, 37799, Note_on_c, 1, 32, 70
1, 37799, Note_on_c, 2, 61, 61
1, 37799, Note_on_c, 2, 65, 81
1, 37799, Note_on_c, 9, 62, 62
1, 37799, Note_on_c, 9, 51, 40
1, 37799, Note_on_c, 9, 69, 25
1, 37799, Note_on_c, 11, 32, 66
1, 37800, Note_on_c, 9, 69, 0
1, 37800, Note_on_c, 9, 51, 0
1, 37800, Note_on_c, 9, 62, 0
1, 37800, Note_on_c, 9, 36, 104
1, 37801, Note_on_c, 9, 36, 0
1, 37801, Note_on_c, 0, 58, 57
1, 37807, Note_on_c, 2, 61, 0
1, 37807, Note_on_c, 2, 65, 0
1, 37814, Note_on_c, 0, 58, 0
1, 37821, Note_on_c, 0, 56, 0
1, 37823, Note_on_c, 0, 65, 79
1, 37823, Note_on_c, 1, 37, 78
1, 37823, Note_on_c, 2, 65, 64
1, 37823, Note_on_c, 2, 56, 60
1, 37823, Note_on_c, 2, 61, 93
1, 37823, Note_on_c, 2, 58, 87
1, 37823, Note_on_c, 9, 51, 87
1, 37823, Note_on_c, 9, 36, 68
1, 37823, Note_on_c, 11, 37, 74
1, 37824, Note_on_c, 9, 36, 0
1, 37824, Note_on_c, 9, 51, 0
1, 37824, Note_on_c, 3, 70, 0
1, 37824, Note_on_c, 0, 58, 70
1, 37825, Note_on_c, 0, 56, 55
1, 37825, Note_on_c, 9, 62, 62
1, 37826, Note_on_c, 9, 62, 0
1, 37827, Note_on_c, 1, 32, 0
1, 37827, Note_on_c, 11, 32, 0
1, 37840, Note_on_c, 4, 70, 0
1, 37847, Note_on_c, 0, 61, 52
1, 37847, Note_on_c, 1, 32, 69
1, 37847, Note_on_c, 11, 32, 65
1, 37848, Note_on_c, 9, 44, 46
1, 37849, Note_on_c, 9, 44, 0
1, 37850, Note_on_c, 11, 37, 0
1, 37850, Note_on_c, 1, 37, 0
1, 37855, Note_on_c, 0, 58, 0
1, 37863, Note_on_c, 0, 65, 0
1, 37867, Note_on_c, 11, 32, 0
1, 37867, Note_on_c, 1, 32, 0
1, 37871, Note_on_c, 2, 56, 0
1, 37871, Note_on_c, 2, 65, 0
1, 37871, Note_on_c, 2, 61, 0
1, 37871, Note_on_c, 2, 58, 0
1, 37871, Note_on_c, 1, 37, 80
1, 37871, Note_on_c, 9, 36, 97
1, 37871, Note_on_c, 9, 51, 43
1, 37871, Note_on_c, 9, 69, 35
1, 37871, Note_on_c, 11, 37, 76
1, 37872, Note_on_c, 9, 69, 0
1, 37872, Note_on_c, 9, 51, 0
1, 37872, Note_on_c, 9, 36, 0
1, 37872, Note_on_c, 2, 65, 87
1, 37872, Note_on_c, 2, 58, 112
1, 37872, Note_on_c, 2, 56, 98
1, 37872, Note_on_c, 2, 61, 108
1, 37873, Note_on_c, 0, 58, 48
1, 37874, Note_on_c, 0, 61, 0
1, 37881, Note_on_c, 2, 58, 0
1, 37881, Note_on_c, 2, 61, 0
1, 37884, Note_on_c, 2, 56, 0
1, 37884, Note_on_c, 2, 65, 0
1, 37886, Note_on_c, 0, 58, 0
1, 37887, Note_on_c, 0, 56, 0
1, 37895, Note_on_c, 9, 69, 29
1, 37895, Note_on_c, 9, 51, 54
1, 37895, Note_on_c, 9, 62, 69
1, 37896, Note_on_c, 9, 62, 0
1, 37896, Note_on_c, 9, 51, 0
1, 37896, Note_on_c, 9, 69, 0
1, 37896, Note_on_c, 0, 65, 75
1, 37896, Note_on_c, 2, 65, 68
1, 37896, Note_on_c, 2, 61, 73
1, 37896, Note_on_c, 2, 56, 69
1, 37896, Note_on_c, 2, 58, 67
1, 37897, Note_on_c, 0, 58, 75
1, 37897, Note_on_c, 0, 56, 56
1, 37919, Note_on_c, 9, 62, 55
1, 37919, Note_on_c, 9, 51, 73
1, 37919, Note_on_c, 9, 40, 104
1, 37920, Note_on_c, 9, 40, 0
1, 37920, Note_on_c, 9, 51, 0
1, 37920, Note_on_c, 9, 62, 0
1, 37920, Note_on_c, 9, 75, 79
1, 37921, Note_on_c, 9, 75, 0
1, 37922, Note_on_c, 11, 37, 0
1, 37922, Note_on_c, 1, 37, 0
1, 37923, Note_on_c, 0, 65, 0
1, 37924, Note_on_c, 0, 58, 0
1, 37925, Note_on_c, 0, 56, 0
1, 37932, Note_on_c, 2, 61, 0
1, 37932, Note_on_c, 2, 65, 0
1, 37933, Note_on_c, 2, 58, 0
1, 37934, Note_on_c, 2, 56, 0
1, 37943, Note_on_c, 1, 37, 66
1, 37943, Note_on_c, 9, 44, 43
1, 37943, Note_on_c, 9, 62, 52
1, 37943, Note_on_c, 11, 37, 62
1, 37944, Note_on_c, 9, 62, 0
1, 37944, Note_on_c, 9, 44, 0
1, 37944, Note_on_c, 0, 65, 67
1, 37944, Note_on_c, 2, 65, 66
1, 37944, Note_on_c, 2, 61, 64
1, 37944, Note_on_c, 2, 58, 61
1, 37944, Note_on_c, 2, 56, 74
1, 37945, Note_on_c, 0, 58, 68
1, 37945, Note_on_c, 0, 56, 53
1, 37952, Note_on_c, 2, 56, 0
1, 37952, Note_on_c, 2, 58, 0
1, 37952, Note_on_c, 2, 61, 0
1, 37954, Note_on_c, 2, 65, 0
1, 37966, Note_on_c, 11, 37, 0
1, 37966, Note_on_c, 1, 37, 0
1, 37967, Note_on_c, 0, 61, 62
1, 37967, Note_on_c, 1, 41, 78
1, 37967, Note_on_c, 2, 61, 54
1, 37967, Note_on_c, 2, 58, 59
1, 37967, Note_on_c, 2, 65, 81
1, 37967, Note_on_c, 9, 51, 54
1, 37967, Note_on_c, 9, 69, 36
1, 37967, Note_on_c, 9, 62, 69
1, 37967, Note_on_c, 11, 41, 74
1, 37968, Note_on_c, 9, 62, 0
1, 37968, Note_on_c, 9, 69, 0
1, 37968, Note_on_c, 9, 51, 0
1, 37972, Note_on_c, 0, 58, 0
1, 37979, Note_on_c, 2, 61, 0
1, 37984, Note_on_c, 0, 65, 0
1, 37988, Note_on_c, 2, 65, 0
1, 37990, Note_on_c, 0, 61, 0
1, 37991, Note_on_c, 2, 58, 0
1, 37991, Note_on_c, 1, 42, 88
1, 37991, Note_on_c, 2, 65, 81
1, 37991, Note_on_c, 2, 61, 77
1, 37991, Note_on_c, 9, 51, 42
1, 37991, Note_on_c, 9, 69, 23
1, 37991, Note_on_c, 11, 42, 84
1, 37992, Note_on_c, 9, 69, 0
1, 37992, Note_on_c, 9, 51, 0
1, 37993, Note_on_c, 11, 41, 0
1, 37993, Note_on_c, 1, 41, 0
1, 37993, Note_on_c, 0, 58, 60
1, 37999, Note_on_c, 2, 65, 0
1, 37999, Note_on_c, 2, 61, 0
1, 38002, Note_on_c, 0, 58, 0
1, 38009, Note_on_c, 0, 56, 0
1, 38013, Note_on_c, 1, 42, 0
1, 38013, Note_on_c, 11, 42, 0
1, 38015, Note_on_c, 1, 43, 88
1, 38015, Note_on_c, 2, 53, 65
1, 38015, Note_on_c, 2, 63, 87
1, 38015, Note_on_c, 2, 59, 83
1, 38015, Note_on_c, 2, 56, 61
1, 38015, Note_on_c, 9, 51, 83
1, 38015, Note_on_c, 11, 43, 84
1, 38016, Note_on_c, 9, 51, 0
1, 38016, Note_on_c, 10, 61, 0
1, 38016, Note_on_c, 10, 58, 0
1, 38016, Note_on_c, 0, 61, 53
1, 38016, Note_on_c, 3, 70, 82
1, 38016, Note_on_c, 4, 70, 62
1, 38016, Note_on_c, 9, 36, 114
1, 38016, Note_on_c, 10, 63, 59
1, 38016, Note_on_c, 10, 59, 59
1, 38017, Note_on_c, 9, 36, 0
1, 38017, Note_on_c, 0, 65, 48
1, 38017, Note_on_c, 0, 56, 48
1, 38018, Note_on_c, 0, 59, 65
1, 38032, Note_on_c, 0, 61, 0
1, 38039, Note_on_c, 0, 65, 0
1, 38039, Note_on_c, 9, 44, 49
1, 38040, Note_on_c, 9, 44, 0
1, 38042, Note_on_c, 0, 59, 0
1, 38046, Note_on_c, 0, 56, 0
1, 38062, Note_on_c, 9, 69, 33
1, 38063, Note_on_c, 9, 69, 0
1, 38063, Note_on_c, 2, 59, 0
1, 38063, Note_on_c, 2, 56, 0
1, 38063, Note_on_c, 2, 53, 0
1, 38063, Note_on_c, 2, 63, 0
1, 38063, Note_on_c, 9, 51, 42
1, 38064, Note_on_c, 9, 51, 0
1, 38064, Note_on_c, 4, 70, 0
1, 38064, Note_on_c, 3, 70, 0
1, 38064, Note_on_c, 2, 63, 74
1, 38064, Note_on_c, 2, 56, 43
1, 38064, Note_on_c, 2, 59, 83
1, 38064, Note_on_c, 2, 53, 48
1, 38064, Note_on_c, 3, 65, 75
1, 38064, Note_on_c, 4, 65, 55
1, 38065, Note_on_c, 0, 65, 65
1, 38066, Note_on_c, 0, 59, 87
1, 38066, Note_on_c, 0, 61, 68
1, 38066, Note_on_c, 0, 56, 58
1, 38074, Note_on_c, 2, 59, 0
1, 38076, Note_on_c, 2, 56, 0
1, 38077, Note_on_c, 2, 63, 0
1, 38080, Note_on_c, 2, 53, 0
1, 38087, Note_on_c, 9, 69, 27
1, 38087, Note_on_c, 9, 51, 41
1, 38087, Note_on_c, 9, 62, 71
1, 38088, Note_on_c, 9, 62, 0
1, 38088, Note_on_c, 3, 65, 0
1, 38088, Note_on_c, 9, 51, 0
1, 38088, Note_on_c, 4, 65, 0
1, 38088, Note_on_c, 9, 69, 0
1, 38088, Note_on_c, 2, 56, 63
1, 38088, Note_on_c, 2, 53, 68
1, 38088, Note_on_c, 2, 63, 68
1, 38088, Note_on_c, 2, 59, 74
1, 38088, Note_on_c, 3, 68, 81
1, 38088, Note_on_c, 4, 68, 61
1, 38104, Note_on_c, 0, 59, 0
1, 38105, Note_on_c, 0, 61, 0
1, 38111, Note_on_c, 9, 40, 107
1, 38111, Note_on_c, 9, 75, 76
1, 38112, Note_on_c, 9, 75, 0
1, 38112, Note_on_c, 9, 40, 0
1, 38112, Note_on_c, 9, 51, 87
1, 38113, Note_on_c, 9, 51, 0
1, 38113, Note_on_c, 0, 65, 0
1, 38113, Note_on_c, 9, 62, 74
1, 38114, Note_on_c, 9, 62, 0
1, 38118, Note_on_c, 11, 43, 0
1, 38118, Note_on_c, 0, 56, 0
1, 38118, Note_on_c, 1, 43, 0
1, 38120, Note_on_c, 2, 53, 0
1, 38122, Note_on_c, 2, 56, 0
1, 38124, Note_on_c, 2, 59, 0
1, 38124, Note_on_c, 2, 63, 0
1, 38134, Note_on_c, 2, 53, 70
1, 38134, Note_on_c, 2, 63, 72
1, 38134, Note_on_c, 2, 59, 74
1, 38136, Note_on_c, 2, 56, 58
1, 38137, Note_on_c, 0, 65, 73
1, 38137, Note_on_c, 0, 59, 84
1, 38137, Note_on_c, 9, 44, 57
1, 38138, Note_on_c, 9, 44, 0
1, 38138, Note_on_c, 0, 56, 57
1, 38141, Note_on_c, 2, 59, 0
1, 38142, Note_on_c, 2, 56, 0
1, 38142, Note_on_c, 2, 63, 0
1, 38144, Note_on_c, 2, 53, 0
1, 38157, Note_on_c, 2, 56, 58
1, 38158, Note_on_c, 0, 59, 0
1, 38158, Note_on_c, 2, 59, 58
1, 38158, Note_on_c, 2, 63, 87
1, 38159, Note_on_c, 0, 56, 0
1, 38159, Note_on_c, 9, 69, 35
1, 38159, Note_on_c, 9, 51, 44
1, 38160, Note_on_c, 9, 51, 0
1, 38160, Note_on_c, 9, 69, 0
1, 38160, Note_on_c, 0, 61, 47
1, 38162, Note_on_c, 0, 65, 0
1, 38166, Note_on_c, 2, 59, 0
1, 38175, Note_on_c, 2, 63, 0
1, 38181, Note_on_c, 2, 56, 0
1, 38182, Note_on_c, 2, 63, 87
1, 38182, Note_on_c, 2, 59, 66
1, 38182, Note_on_c, 9, 69, 25
1, 38183, Note_on_c, 9, 69, 0
1, 38183, Note_on_c, 1, 38, 78
1, 38183, Note_on_c, 9, 62, 80
1, 38183, Note_on_c, 9, 51, 46
1, 38183, Note_on_c, 9, 36, 105
1, 38183, Note_on_c, 11, 38, 74
1, 38184, Note_on_c, 9, 36, 0
1, 38184, Note_on_c, 9, 51, 0
1, 38184, Note_on_c, 9, 62, 0
1, 38184, Note_on_c, 0, 56, 48
1, 38189, Note_on_c, 0, 61, 0
1, 38190, Note_on_c, 2, 63, 0
1, 38190, Note_on_c, 2, 59, 0
1, 38206, Note_on_c, 2, 56, 53
1, 38206, Note_on_c, 2, 53, 62
1, 38206, Note_on_c, 2, 63, 76
1, 38206, Note_on_c, 2, 59, 77
1, 38206, Note_on_c, 9, 36, 67
1, 38207, Note_on_c, 9, 36, 0
1, 38207, Note_on_c, 1, 38, 0
1, 38207, Note_on_c, 11, 38, 0
1, 38207, Note_on_c, 0, 65, 75
1, 38207, Note_on_c, 1, 43, 78
1, 38207, Note_on_c, 9, 62, 55
1, 38207, Note_on_c, 11, 43, 74
1, 38208, Note_on_c, 9, 62, 0
1, 38208, Note_on_c, 0, 59, 84
1, 38208, Note_on_c, 9, 51, 70
1, 38209, Note_on_c, 9, 51, 0
1, 38219, Note_on_c, 4, 68, 0
1, 38230, Note_on_c, 0, 61, 55
1, 38231, Note_on_c, 1, 38, 73
1, 38231, Note_on_c, 9, 44, 52
1, 38231, Note_on_c, 11, 38, 69
1, 38232, Note_on_c, 9, 44, 0
1, 38234, Note_on_c, 11, 43, 0
1, 38234, Note_on_c, 0, 59, 0
1, 38234, Note_on_c, 1, 43, 0
1, 38238, Note_on_c, 0, 65, 0
1, 38252, Note_on_c, 2, 53, 0
1, 38252, Note_on_c, 2, 56, 0
1, 38252, Note_on_c, 2, 59, 0
1, 38252, Note_on_c, 2, 63, 0
1, 38254, Note_on_c, 1, 38, 0
1, 38254, Note_on_c, 11, 38, 0
1, 38254, Note_on_c, 0, 61, 0
1, 38254, Note_on_c, 2, 63, 111
1, 38254, Note_on_c, 2, 53, 72
1, 38254, Note_on_c, 9, 69, 45
1, 38255, Note_on_c, 9, 69, 0
1, 38255, Note_on_c, 1, 43, 78
1, 38255, Note_on_c, 9, 51, 46
1, 38255, Note_on_c, 9, 62, 76
1, 38255, Note_on_c, 9, 36, 107
1, 38255, Note_on_c, 11, 43, 74
1, 38256, Note_on_c, 9, 36, 0
1, 38256, Note_on_c, 9, 51, 0
1, 38256, Note_on_c, 9, 62, 0
1, 38256, Note_on_c, 2, 59, 98
1, 38256, Note_on_c, 2, 56, 73
1, 38266, Note_on_c, 2, 56, 0
1, 38266, Note_on_c, 2, 53, 0
1, 38266, Note_on_c, 2, 63, 0
1, 38266, Note_on_c, 2, 59, 0
1, 38268, Note_on_c, 0, 56, 0
1, 38278, Note_on_c, 2, 56, 61
1, 38278, Note_on_c, 2, 53, 63
1, 38278, Note_on_c, 2, 63, 63
1, 38278, Note_on_c, 2, 59, 74
1, 38278, Note_on_c, 9, 69, 26
1, 38279, Note_on_c, 9, 69, 0
1, 38279, Note_on_c, 9, 51, 37
1, 38280, Note_on_c, 9, 51, 0
1, 38280, Note_on_c, 0, 65, 70
1, 38281, Note_on_c, 0, 59, 70
1, 38281, Note_on_c, 0, 56, 52
1, 38302, Note_on_c, 0, 65, 0
1, 38303, Note_on_c, 9, 75, 82
1, 38303, Note_on_c, 9, 51, 91
1, 38303, Note_on_c, 9, 40, 110
1, 38304, Note_on_c, 9, 40, 0
1, 38304, Note_on_c, 9, 51, 0
1, 38304, Note_on_c, 9, 75, 0
1, 38304, Note_on_c, 3, 68, 0
1, 38305, Note_on_c, 0, 56, 0
1, 38305, Note_on_c, 0, 59, 0
1, 38305, Note_on_c, 9, 62, 84
1, 38306, Note_on_c, 9, 62, 0
1, 38313, Note_on_c, 2, 56, 0
1, 38314, Note_on_c, 2, 63, 0
1, 38314, Note_on_c, 2, 53, 0
1, 38316, Note_on_c, 2, 59, 0
1, 38326, Note_on_c, 2, 59, 81
1, 38326, Note_on_c, 2, 53, 67
1, 38326, Note_on_c, 2, 63, 70
1, 38326, Note_on_c, 2, 56, 61
1, 38327, Note_on_c, 1, 38, 78
1, 38327, Note_on_c, 9, 44, 52
1, 38327, Note_on_c, 11, 38, 74
1, 38328, Note_on_c, 9, 44, 0
1, 38329, Note_on_c, 0, 59, 75
1, 38329, Note_on_c, 0, 56, 58
1, 38329, Note_on_c, 0, 65, 65
1, 38330, Note_on_c, 11, 43, 0
1, 38330, Note_on_c, 1, 43, 0
1, 38333, Note_on_c, 2, 56, 0
1, 38334, Note_on_c, 2, 53, 0
1, 38334, Note_on_c, 2, 59, 0
1, 38336, Note_on_c, 2, 63, 0
1, 38349, Note_on_c, 1, 38, 0
1, 38349, Note_on_c, 11, 38, 0
1, 38349, Note_on_c, 0, 56, 0
1, 38350, Note_on_c, 2, 63, 104
1, 38350, Note_on_c, 2, 59, 64
1, 38350, Note_on_c, 2, 56, 49
1, 38350, Note_on_c, 9, 69, 39
1, 38351, Note_on_c, 9, 69, 0
1, 38351, Note_on_c, 9, 51, 48
1, 38352, Note_on_c, 9, 51, 0
1, 38352, Note_on_c, 0, 59, 0
1, 38352, Note_on_c, 0, 61, 64
1, 38352, Note_on_c, 1, 43, 70
1, 38352, Note_on_c, 11, 43, 66
1, 38358, Note_on_c, 0, 65, 0
1, 38360, Note_on_c, 2, 59, 0
1, 38370, Note_on_c, 2, 63, 0
1, 38374, Note_on_c, 0, 61, 0
1, 38374, Note_on_c, 2, 56, 0
1, 38374, Note_on_c, 2, 63, 85
1, 38374, Note_on_c, 9, 69, 25
1, 38375, Note_on_c, 9, 69, 0
1, 38375, Note_on_c, 9, 51, 48
1, 38376, Note_on_c, 9, 51, 0
1, 38376, Note_on_c, 0, 56, 52
1, 38376, Note_on_c, 2, 59, 76
1, 38377, Note_on_c, 1, 37, 69
1, 38377, Note_on_c, 11, 37, 65
1, 38381, Note_on_c, 1, 43, 0
1, 38381, Note_on_c, 11, 43, 0
1, 38382, Note_on_c, 2, 63, 0
1, 38384, Note_on_c, 2, 59, 0
1, 38394, Note_on_c, 0, 56, 0
1, 38398, Note_on_c, 2, 58, 90
1, 38398, Note_on_c, 2, 56, 95
1, 38398, Note_on_c, 2, 61, 90
1, 38398, Note_on_c, 2, 65, 63
1, 38399, Note_on_c, 0, 58, 61
1, 38399, Note_on_c, 0, 65, 68
1, 38399, Note_on_c, 9, 36, 113
1, 38400, Note_on_c, 9, 36, 0
1, 38400, Note_on_c, 10, 63, 0
1, 38400, Note_on_c, 10, 59, 0
1, 38400, Note_on_c, 3, 70, 95
1, 38400, Note_on_c, 4, 70, 75
1, 38400, Note_on_c, 9, 51, 73
1, 38400, Note_on_c, 10, 58, 59
1, 38400, Note_on_c, 10, 61, 60
1, 38401, Note_on_c, 9, 51, 0
1, 38401, Note_on_c, 0, 61, 59
1, 38401, Note_on_c, 0, 56, 50
1, 38401, Note_on_c, 1, 42, 90
1, 38401, Note_on_c, 11, 42, 86
1, 38406, Note_on_c, 11, 37, 0
1, 38406, Note_on_c, 1, 37, 0
1, 38418, Note_on_c, 0, 56, 0
1, 38418, Note_on_c, 0, 61, 0
1, 38419, Note_on_c, 0, 65, 0
1, 38423, Note_on_c, 0, 58, 0
1, 38424, Note_on_c, 9, 44, 42
1, 38425, Note_on_c, 9, 44, 0
1, 38446, Note_on_c, 2, 56, 0
1, 38446, Note_on_c, 2, 65, 0
1, 38446, Note_on_c, 2, 61, 0
1, 38446, Note_on_c, 2, 58, 0
1, 38446, Note_on_c, 9, 69, 35
1, 38447, Note_on_c, 9, 69, 0
1, 38447, Note_on_c, 9, 51, 42
1, 38448, Note_on_c, 9, 51, 0
1, 38448, Note_on_c, 4, 70, 0
1, 38448, Note_on_c, 3, 70, 0
1, 38448, Note_on_c, 2, 58, 100
1, 38448, Note_on_c, 2, 56, 108
1, 38448, Note_on_c, 2, 61, 104
1, 38448, Note_on_c, 2, 65, 77
1, 38448, Note_on_c, 3, 65, 75
1, 38448, Note_on_c, 4, 65, 55
1, 38449, Note_on_c, 0, 58, 68
1, 38449, Note_on_c, 0, 56, 60
1, 38449, Note_on_c, 0, 65, 71
1, 38450, Note_on_c, 0, 61, 68
1, 38457, Note_on_c, 2, 61, 0
1, 38457, Note_on_c, 2, 56, 0
1, 38457, Note_on_c, 2, 58, 0
1, 38458, Note_on_c, 2, 65, 0
1, 38470, Note_on_c, 1, 42, 0
1, 38470, Note_on_c, 11, 42, 0
1, 38470, Note_on_c, 2, 61, 68
1, 38470, Note_on_c, 2, 56, 63
1, 38470, Note_on_c, 2, 65, 61
1, 38470, Note_on_c, 2, 58, 60
1, 38471, Note_on_c, 9, 62, 80
1, 38471, Note_on_c, 9, 51, 42
1, 38472, Note_on_c, 9, 51, 0
1, 38472, Note_on_c, 9, 62, 0
1, 38472, Note_on_c, 3, 65, 0
1, 38472, Note_on_c, 4, 65, 0
1, 38472, Note_on_c, 3, 68, 78
1, 38472, Note_on_c, 4, 68, 58
1, 38472, Note_on_c, 9, 69, 24
1, 38473, Note_on_c, 9, 69, 0
1, 38488, Note_on_c, 0, 58, 0
1, 38493, Note_on_c, 0, 61, 0
1, 38493, Note_on_c, 0, 65, 0
1, 38495, Note_on_c, 0, 56, 0
1, 38495, Note_on_c, 9, 75, 76
1, 38495, Note_on_c, 9, 40, 104
1, 38496, Note_on_c, 9, 40, 0
1, 38496, Note_on_c, 9, 75, 0
1, 38496, Note_on_c, 9, 51, 81
1, 38497, Note_on_c, 9, 51, 0
1, 38497, Note_on_c, 9, 62, 74
1, 38498, Note_on_c, 9, 62, 0
1, 38503, Note_on_c, 2, 56, 0
1, 38504, Note_on_c, 2, 61, 0
1, 38506, Note_on_c, 2, 65, 0
1, 38506, Note_on_c, 2, 58, 0
1, 38518, Note_on_c, 2, 58, 62
1, 38518, Note_on_c, 2, 61, 71
1, 38518, Note_on_c, 2, 56, 68
1, 38518, Note_on_c, 2, 65, 70
1, 38519, Note_on_c, 9, 44, 43
1, 38520, Note_on_c, 9, 44, 0
1, 38520, Note_on_c, 3, 68, 0
1, 38520, Note_on_c, 4, 68, 0
1, 38520, Note_on_c, 3, 70, 95
1, 38520, Note_on_c, 4, 70, 75
1, 38521, Note_on_c, 0, 56, 59
1, 38521, Note_on_c, 0, 65, 70
1, 38521, Note_on_c, 0, 58, 68
1, 38525, Note_on_c, 2, 61, 0
1, 38526, Note_on_c, 2, 58, 0
1, 38527, Note_on_c, 2, 56, 0
1, 38527, Note_on_c, 2, 65, 0
1, 38542, Note_on_c, 0, 61, 54
1, 38542, Note_on_c, 2, 65, 93
1, 38542, Note_on_c, 9, 69, 45
1, 38543, Note_on_c, 9, 69, 0
1, 38543, Note_on_c, 0, 56, 0
1, 38543, Note_on_c, 9, 51, 50
1, 38544, Note_on_c, 9, 51, 0
1, 38544, Note_on_c, 2, 61, 31
1, 38545, Note_on_c, 2, 58, 48
1, 38547, Note_on_c, 0, 58, 0
1, 38553, Note_on_c, 2, 61, 0
1, 38555, Note_on_c, 0, 65, 0
1, 38558, Note_on_c, 2, 58, 0
1, 38562, Note_on_c, 2, 65, 0
1, 38566, Note_on_c, 0, 61, 0
1, 38566, Note_on_c, 0, 56, 47
1, 38566, Note_on_c, 2, 65, 77
1, 38566, Note_on_c, 9, 69, 34
1, 38566, Note_on_c, 9, 62, 69
1, 38567, Note_on_c, 9, 62, 0
1, 38567, Note_on_c, 9, 69, 0
1, 38567, Note_on_c, 1, 37, 82
1, 38567, Note_on_c, 9, 51, 43
1, 38567, Note_on_c, 11, 37, 78
1, 38568, Note_on_c, 9, 51, 0
1, 38568, Note_on_c, 3, 70, 0
1, 38568, Note_on_c, 2, 61, 67
1, 38569, Note_on_c, 9, 36, 110
1, 38570, Note_on_c, 9, 36, 0
1, 38574, Note_on_c, 2, 65, 0
1, 38576, Note_on_c, 2, 61, 0
1, 38588, Note_on_c, 0, 56, 0
1, 38590, Note_on_c, 0, 65, 71
1, 38590, Note_on_c, 2, 58, 79
1, 38590, Note_on_c, 2, 61, 77
1, 38590, Note_on_c, 2, 65, 63
1, 38590, Note_on_c, 2, 56, 60
1, 38591, Note_on_c, 0, 58, 75
1, 38591, Note_on_c, 0, 56, 57
1, 38591, Note_on_c, 1, 42, 76
1, 38591, Note_on_c, 9, 36, 64
1, 38591, Note_on_c, 11, 42, 72
1, 38592, Note_on_c, 9, 36, 0
1, 38592, Note_on_c, 11, 37, 0
1, 38592, Note_on_c, 1, 37, 0
1, 38592, Note_on_c, 9, 51, 85
1, 38593, Note_on_c, 9, 51, 0
1, 38593, Note_on_c, 4, 70, 0
1, 38593, Note_on_c, 9, 62, 76
1, 38594, Note_on_c, 9, 62, 0
1, 38614, Note_on_c, 0, 61, 55
1, 38615, Note_on_c, 1, 34, 74
1, 38615, Note_on_c, 9, 44, 42
1, 38615, Note_on_c, 11, 34, 70
1, 38616, Note_on_c, 9, 44, 0
1, 38618, Note_on_c, 0, 56, 0
1, 38619, Note_on_c, 0, 58, 0
1, 38620, Note_on_c, 0, 65, 0
1, 38622, Note_on_c, 11, 42, 0
1, 38622, Note_on_c, 1, 42, 0
1, 38635, Note_on_c, 0, 61, 0
1, 38637, Note_on_c, 2, 61, 0
1, 38637, Note_on_c, 2, 58, 0
1, 38637, Note_on_c, 2, 65, 0
1, 38637, Note_on_c, 2, 56, 0
1, 38638, Note_on_c, 0, 56, 30
1, 38638, Note_on_c, 2, 56, 98
1, 38638, Note_on_c, 2, 65, 81
1, 38638, Note_on_c, 2, 61, 104
1, 38638, Note_on_c, 2, 58, 95
1, 38638, Note_on_c, 9, 69, 43
1, 38639, Note_on_c, 9, 69, 0
1, 38640, Note_on_c, 1, 42, 79
1, 38640, Note_on_c, 9, 51, 54
1, 38640, Note_on_c, 11, 42, 75
1, 38641, Note_on_c, 9, 51, 0
1, 38641, Note_on_c, 11, 34, 0
1, 38641, Note_on_c, 1, 34, 0
1, 38641, Note_on_c, 9, 36, 113
1, 38642, Note_on_c, 9, 36, 0
1, 38647, Note_on_c, 2, 56, 0
1, 38649, Note_on_c, 2, 58, 0
1, 38649, Note_on_c, 2, 61, 0
1, 38651, Note_on_c, 2, 65, 0
1, 38660, Note_on_c, 0, 56, 0
1, 38662, Note_on_c, 2, 61, 68
1, 38662, Note_on_c, 2, 65, 69
1, 38662, Note_on_c, 2, 58, 65
1, 38662, Note_on_c, 2, 56, 64
1, 38662, Note_on_c, 9, 69, 32
1, 38663, Note_on_c, 9, 69, 0
1, 38663, Note_on_c, 9, 51, 49
1, 38664, Note_on_c, 9, 51, 0
1, 38664, Note_on_c, 0, 65, 61
1, 38664, Note_on_c, 0, 58, 79
1, 38665, Note_on_c, 0, 56, 52
1, 38665, Note_on_c, 9, 62, 66
1, 38666, Note_on_c, 9, 62, 0
1, 38688, Note_on_c, 9, 75, 76
1, 38689, Note_on_c, 9, 75, 0
1, 38689, Note_on_c, 9, 51, 73
1, 38689, Note_on_c, 9, 40, 105
1, 38690, Note_on_c, 9, 40, 0
1, 38690, Note_on_c, 9, 51, 0
1, 38690, Note_on_c, 9, 62, 59
1, 38691, Note_on_c, 9, 62, 0
1, 38694, Note_on_c, 0, 65, 0
1, 38695, Note_on_c, 0, 56, 0
1, 38695, Note_on_c, 0, 58, 0
1, 38697, Note_on_c, 2, 56, 0
1, 38698, Note_on_c, 2, 65, 0
1, 38698, Note_on_c, 2, 61, 0
1, 38698, Note_on_c, 2, 58, 0
1, 38706, Note_on_c, 11, 42, 0
1, 38706, Note_on_c, 1, 42, 0
1, 38710, Note_on_c, 2, 56, 71
1, 38710, Note_on_c, 2, 61, 72
1, 38710, Note_on_c, 2, 58, 64
1, 38710, Note_on_c, 2, 65, 72
1, 38711, Note_on_c, 0, 58, 63
1, 38711, Note_on_c, 9, 44, 45
1, 38712, Note_on_c, 9, 44, 0
1, 38712, Note_on_c, 0, 65, 67
1, 38712, Note_on_c, 0, 56, 61
1, 38712, Note_on_c, 3, 68, 74
1, 38712, Note_on_c, 4, 68, 54
1, 38713, Note_on_c, 1, 37, 81
1, 38713, Note_on_c, 11, 37, 77
1, 38714, Note_on_c, 9, 62, 59
1, 38715, Note_on_c, 9, 62, 0
1, 38719, Note_on_c, 2, 58, 0
1, 38720, Note_on_c, 2, 61, 0
1, 38720, Note_on_c, 2, 56, 0
1, 38721, Note_on_c, 2, 65, 0
1, 38734, Note_on_c, 2, 61, 58
1, 38734, Note_on_c, 2, 65, 90
1, 38734, Note_on_c, 9, 69, 35
1, 38735, Note_on_c, 9, 69, 0
1, 38735, Note_on_c, 9, 51, 51
1, 38736, Note_on_c, 9, 51, 0
1, 38736, Note_on_c, 4, 68, 0
1, 38736, Note_on_c, 3, 68, 0
1, 38736, Note_on_c, 3, 70, 84
1, 38736, Note_on_c, 4, 70, 64
1, 38737, Note_on_c, 0, 56, 0
1, 38737, Note_on_c, 0, 65, 0
1, 38737, Note_on_c, 1, 42, 78
1, 38737, Note_on_c, 11, 42, 74
1, 38738, Note_on_c, 0, 58, 0
1, 38738, Note_on_c, 1, 37, 0
1, 38738, Note_on_c, 11, 37, 0
1, 38738, Note_on_c, 9, 62, 76
1, 38739, Note_on_c, 9, 62, 0
1, 38744, Note_on_c, 2, 61, 0
1, 38752, Note_on_c, 2, 65, 0
1, 38758, Note_on_c, 0, 56, 52
1, 38758, Note_on_c, 2, 65, 77
1, 38758, Note_on_c, 2, 61, 61
1, 38759, Note_on_c, 9, 69, 25
1, 38759, Note_on_c, 9, 51, 43
1, 38760, Note_on_c, 9, 51, 0
1, 38760, Note_on_c, 4, 70, 0
1, 38760, Note_on_c, 9, 69, 0
1, 38760, Note_on_c, 3, 70, 0
1, 38760, Note_on_c, 3, 73, 91
1, 38760, Note_on_c, 4, 73, 71
1, 38761, Note_on_c, 1, 34, 70
1, 38761, Note_on_c, 11, 34, 66
1, 38762, Note_on_c, 1, 42, 0
1, 38762, Note_on_c, 11, 42, 0
1, 38766, Note_on_c, 2, 61, 0
1, 38766, Note_on_c, 2, 65, 0
1, 38773, Note_on_c, 0, 56, 0
1, 38782, Note_on_c, 0, 57, 66
1, 38782, Note_on_c, 0, 68, 68
1, 38782, Note_on_c, 2, 68, 64
1, 38782, Note_on_c, 2, 61, 70
1, 38782, Note_on_c, 2, 57, 74
1, 38782, Note_on_c, 2, 63, 71
1, 38783, Note_on_c, 9, 51, 87
1, 38783, Note_on_c, 9, 36, 110
1, 38784, Note_on_c, 9, 36, 0
1, 38784, Note_on_c, 9, 51, 0
1, 38784, Note_on_c, 10, 56, 0
1, 38784, Note_on_c, 10, 65, 0
1, 38784, Note_on_c, 10, 58, 0
1, 38784, Note_on_c, 10, 63, 60
1, 38784, Note_on_c, 10, 57, 61
1, 38784, Note_on_c, 10, 68, 58
1, 38785, Note_on_c, 0, 61, 9
1, 38785, Note_on_c, 0, 63, 35
1, 38785, Note_on_c, 1, 35, 99
1, 38785, Note_on_c, 11, 35, 95
1, 38789, Note_on_c, 1, 34, 0
1, 38789, Note_on_c, 11, 34, 0
1, 38800, Note_on_c, 0, 61, 0
1, 38806, Note_on_c, 0, 63, 0
1, 38807, Note_on_c, 9, 44, 42
1, 38808, Note_on_c, 9, 44, 0
1, 38808, Note_on_c, 0, 68, 0
1, 38817, Note_on_c, 0, 57, 0
1, 38827, Note_on_c, 2, 63, 0
1, 38827, Note_on_c, 2, 68, 0
1, 38827, Note_on_c, 2, 61, 0
1, 38827, Note_on_c, 2, 57, 0
1, 38830, Note_on_c, 2, 68, 93
1, 38830, Note_on_c, 2, 61, 108
1, 38830, Note_on_c, 2, 57, 74
1, 38830, Note_on_c, 2, 63, 117
1, 38831, Note_on_c, 9, 69, 34
1, 38831, Note_on_c, 9, 51, 55
1, 38832, Note_on_c, 9, 51, 0
1, 38832, Note_on_c, 9, 69, 0
1, 38832, Note_on_c, 0, 68, 69
1, 38833, Note_on_c, 0, 61, 66
1, 38833, Note_on_c, 0, 63, 62
1, 38833, Note_on_c, 0, 57, 68
1, 38838, Note_on_c, 2, 63, 0
1, 38839, Note_on_c, 2, 61, 0
1, 38840, Note_on_c, 2, 68, 0
1, 38842, Note_on_c, 2, 57, 0
1, 38849, Note_on_c, 11, 35, 0
1, 38849, Note_on_c, 1, 35, 0
1, 38854, Note_on_c, 0, 63, 0
1, 38855, Note_on_c, 9, 51, 54
1, 38855, Note_on_c, 9, 62, 88
1, 38856, Note_on_c, 9, 62, 0
1, 38856, Note_on_c, 9, 51, 0
1, 38856, Note_on_c, 2, 63, 67
1, 38856, Note_on_c, 2, 57, 67
1, 38856, Note_on_c, 2, 68, 58
1, 38856, Note_on_c, 9, 69, 27
1, 38857, Note_on_c, 9, 69, 0
1, 38857, Note_on_c, 2, 61, 65
1, 38862, Note_on_c, 0, 61, 0
1, 38872, Note_on_c, 0, 57, 0
1, 38872, Note_on_c, 0, 68, 0
1, 38879, Note_on_c, 9, 40, 104
1, 38879, Note_on_c, 9, 51, 94
1, 38880, Note_on_c, 9, 51, 0
1, 38880, Note_on_c, 9, 40, 0
1, 38880, Note_on_c, 9, 75, 79
1, 38881, Note_on_c, 9, 75, 0
1, 38881, Note_on_c, 9, 62, 74
1, 38882, Note_on_c, 9, 62, 0
1, 38892, Note_on_c, 2, 57, 0
1, 38892, Note_on_c, 2, 63, 0
1, 38894, Note_on_c, 2, 68, 0
1, 38894, Note_on_c, 2, 61, 0
1, 38903, Note_on_c, 1, 42, 75
1, 38903, Note_on_c, 9, 44, 43
1, 38903, Note_on_c, 11, 42, 71
1, 38904, Note_on_c, 9, 44, 0
1, 38904, Note_on_c, 0, 68, 66
1, 38904, Note_on_c, 0, 61, 73
1, 38904, Note_on_c, 0, 57, 55
1, 38904, Note_on_c, 2, 63, 71
1, 38904, Note_on_c, 2, 57, 72
1, 38904, Note_on_c, 2, 61, 73
1, 38904, Note_on_c, 2, 68, 69
1, 38905, Note_on_c, 0, 63, 81
1, 38910, Note_on_c, 2, 63, 0
1, 38912, Note_on_c, 2, 68, 0
1, 38912, Note_on_c, 2, 61, 0
1, 38912, Note_on_c, 2, 57, 0
1, 38922, Note_on_c, 0, 57, 0
1, 38925, Note_on_c, 2, 68, 95
1, 38925, Note_on_c, 2, 63, 64
1, 38926, Note_on_c, 0, 61, 0
1, 38926, Note_on_c, 2, 59, 65
1, 38926, Note_on_c, 9, 69, 37
1, 38927, Note_on_c, 9, 69, 0
1, 38927, Note_on_c, 0, 63, 0
1, 38927, Note_on_c, 1, 47, 85
1, 38927, Note_on_c, 9, 51, 44
1, 38927, Note_on_c, 11, 47, 81
1, 38928, Note_on_c, 9, 51, 0
1, 38931, Note_on_c, 1, 42, 0
1, 38931, Note_on_c, 11, 42, 0
1, 38937, Note_on_c, 2, 63, 0
1, 38945, Note_on_c, 2, 68, 0
1, 38948, Note_on_c, 2, 59, 0
1, 38950, Note_on_c, 2, 63, 61
1, 38950, Note_on_c, 2, 68, 90
1, 38951, Note_on_c, 0, 57, 55
1, 38951, Note_on_c, 1, 42, 74
1, 38951, Note_on_c, 9, 62, 74
1, 38951, Note_on_c, 9, 69, 33
1, 38951, Note_on_c, 9, 51, 55
1, 38951, Note_on_c, 11, 42, 70
1, 38952, Note_on_c, 9, 51, 0
1, 38952, Note_on_c, 9, 69, 0
1, 38952, Note_on_c, 9, 62, 0
1, 38952, Note_on_c, 0, 68, 0
1, 38953, Note_on_c, 9, 36, 105
1, 38954, Note_on_c, 9, 36, 0
1, 38955, Note_on_c, 11, 47, 0
1, 38955, Note_on_c, 1, 47, 0
1, 38958, Note_on_c, 2, 68, 0
1, 38962, Note_on_c, 2, 63, 0
1, 38974, Note_on_c, 2, 63, 74
1, 38974, Note_on_c, 2, 61, 71
1, 38974, Note_on_c, 2, 57, 67
1, 38974, Note_on_c, 2, 68, 59
1, 38975, Note_on_c, 11, 42, 0
1, 38975, Note_on_c, 1, 42, 0
1, 38975, Note_on_c, 0, 66, 57
1, 38975, Note_on_c, 1, 45, 84
1, 38975, Note_on_c, 9, 62, 69
1, 38975, Note_on_c, 9, 51, 78
1, 38975, Note_on_c, 9, 36, 69
1, 38975, Note_on_c, 11, 45, 80
1, 38976, Note_on_c, 9, 36, 0
1, 38976, Note_on_c, 9, 51, 0
1, 38976, Note_on_c, 9, 62, 0
1, 38976, Note_on_c, 0, 63, 46
1, 38977, Note_on_c, 0, 61, 48
1, 38986, Note_on_c, 0, 61, 0
1, 38986, Note_on_c, 0, 63, 0
1, 38987, Note_on_c, 0, 66, 0
1, 38990, Note_on_c, 0, 57, 0
1, 38999, Note_on_c, 1, 40, 62
1, 38999, Note_on_c, 9, 44, 49
1, 38999, Note_on_c, 11, 40, 58
1, 39000, Note_on_c, 9, 44, 0
1, 39002, Note_on_c, 11, 45, 0
1, 39002, Note_on_c, 1, 45, 0
1, 39021, Note_on_c, 2, 57, 0
1, 39021, Note_on_c, 2, 61, 0
1, 39021, Note_on_c, 2, 68, 0
1, 39022, Note_on_c, 2, 63, 0
1, 39022, Note_on_c, 2, 68, 83
1, 39022, Note_on_c, 2, 61, 114
1, 39022, Note_on_c, 2, 57, 73
1, 39022, Note_on_c, 9, 69, 37
1, 39023, Note_on_c, 9, 69, 0
1, 39023, Note_on_c, 9, 62, 84
1, 39023, Note_on_c, 9, 51, 46
1, 39023, Note_on_c, 9, 36, 107
1, 39024, Note_on_c, 9, 36, 0
1, 39024, Note_on_c, 9, 51, 0
1, 39024, Note_on_c, 9, 62, 0
1, 39024, Note_on_c, 2, 63, 117
1, 39025, Note_on_c, 0, 57, 73
1, 39025, Note_on_c, 0, 66, 80
1, 39025, Note_on_c, 0, 63, 79
1, 39025, Note_on_c, 0, 61, 79
1, 39025, Note_on_c, 1, 45, 84
1, 39025, Note_on_c, 11, 45, 80
1, 39027, Note_on_c, 11, 40, 0
1, 39027, Note_on_c, 1, 40, 0
1, 39033, Note_on_c, 2, 61, 0
1, 39034, Note_on_c, 2, 57, 0
1, 39034, Note_on_c, 2, 63, 0
1, 39036, Note_on_c, 2, 68, 0
1, 39046, Note_on_c, 2, 63, 69
1, 39046, Note_on_c, 2, 61, 67
1, 39046, Note_on_c, 9, 69, 27
1, 39047, Note_on_c, 9, 69, 0
1, 39047, Note_on_c, 9, 51, 42
1, 39048, Note_on_c, 9, 51, 0
1, 39048, Note_on_c, 2, 57, 74
1, 39048, Note_on_c, 2, 68, 60
1, 39058, Note_on_c, 0, 63, 0
1, 39064, Note_on_c, 0, 57, 0
1, 39067, Note_on_c, 0, 61, 0
1, 39070, Note_on_c, 0, 66, 0
1, 39071, Note_on_c, 0, 57, 41
1, 39071, Note_on_c, 9, 62, 90
1, 39071, Note_on_c, 9, 40, 107
1, 39072, Note_on_c, 9, 40, 0
1, 39072, Note_on_c, 9, 62, 0
1, 39072, Note_on_c, 10, 68, 0
1, 39072, Note_on_c, 9, 51, 87
1, 39072, Note_on_c, 9, 75, 79
1, 39072, Note_on_c, 10, 66, 64
1, 39073, Note_on_c, 9, 75, 0
1, 39073, Note_on_c, 9, 51, 0
1, 39081, Note_on_c, 2, 61, 0
1, 39084, Note_on_c, 2, 57, 0
1, 39084, Note_on_c, 2, 63, 0
1, 39085, Note_on_c, 2, 68, 0
1, 39094, Note_on_c, 11, 45, 0
1, 39094, Note_on_c, 1, 45, 0
1, 39094, Note_on_c, 2, 57, 75
1, 39094, Note_on_c, 2, 68, 71
1, 39095, Note_on_c, 1, 33, 80
1, 39095, Note_on_c, 9, 44, 44
1, 39095, Note_on_c, 11, 33, 76
1, 39096, Note_on_c, 9, 44, 0
1, 39096, Note_on_c, 3, 73, 0
1, 39096, Note_on_c, 2, 61, 69
1, 39096, Note_on_c, 2, 63, 72
1, 39097, Note_on_c, 0, 63, 84
1, 39097, Note_on_c, 0, 66, 73
1, 39097, Note_on_c, 0, 61, 77
1, 39102, Note_on_c, 2, 57, 0
1, 39104, Note_on_c, 2, 63, 0
1, 39105, Note_on_c, 2, 61, 0
1, 39105, Note_on_c, 2, 68, 0
1, 39114, Note_on_c, 0, 57, 0
1, 39117, Note_on_c, 2, 68, 87
1, 39118, Note_on_c, 2, 63, 63
1, 39118, Note_on_c, 9, 69, 39
1, 39119, Note_on_c, 9, 69, 0
1, 39119, Note_on_c, 1, 33, 0
1, 39119, Note_on_c, 11, 33, 0
1, 39119, Note_on_c, 1, 30, 64
1, 39119, Note_on_c, 9, 51, 48
1, 39119, Note_on_c, 11, 30, 60
1, 39120, Note_on_c, 9, 51, 0
1, 39120, Note_on_c, 2, 59, 63
1, 39131, Note_on_c, 0, 63, 0
1, 39132, Note_on_c, 2, 59, 0
1, 39133, Note_on_c, 0, 66, 0
1, 39134, Note_on_c, 2, 63, 0
1, 39137, Note_on_c, 2, 68, 0
1, 39137, Note_on_c, 0, 61, 0
1, 39141, Note_on_c, 2, 68, 90
1, 39142, Note_on_c, 1, 30, 0
1, 39142, Note_on_c, 11, 30, 0
1, 39142, Note_on_c, 2, 63, 69
1, 39143, Note_on_c, 1, 31, 85
1, 39143, Note_on_c, 9, 69, 27
1, 39143, Note_on_c, 9, 51, 43
1, 39143, Note_on_c, 11, 31, 81
1, 39144, Note_on_c, 9, 51, 0
1, 39144, Note_on_c, 9, 69, 0
1, 39144, Note_on_c, 0, 57, 57
1, 39147, Note_on_c, 2, 68, 0
1, 39150, Note_on_c, 2, 63, 0
1, 39157, Note_on_c, 0, 57, 0
1, 39166, Note_on_c, 0, 65, 61
1, 39166, Note_on_c, 2, 65, 72
1, 39166, Note_on_c, 2, 58, 79
1, 39166, Note_on_c, 2, 61, 83
1, 39167, Note_on_c, 0, 61, 65
1, 39167, Note_on_c, 0, 58, 63
1, 39167, Note_on_c, 1, 32, 97
1, 39167, Note_on_c, 9, 36, 115
1, 39167, Note_on_c, 9, 51, 87
1, 39167, Note_on_c, 11, 32, 93
1, 39168, Note_on_c, 9, 51, 0
1, 39168, Note_on_c, 9, 36, 0
1, 39168, Note_on_c, 10, 66, 0
1, 39168, Note_on_c, 10, 63, 0
1, 39168, Note_on_c, 4, 73, 0
1, 39168, Note_on_c, 10, 57, 0
1, 39168, Note_on_c, 2, 56, 59
1, 39168, Note_on_c, 3, 70, 100
1, 39168, Note_on_c, 4, 70, 80
1, 39168, Note_on_c, 10, 56, 59
1, 39168, Note_on_c, 10, 58, 53
1, 39168, Note_on_c, 10, 65, 65
1, 39170, Note_on_c, 11, 31, 0
1, 39170, Note_on_c, 1, 31, 0
1, 39191, Note_on_c, 9, 44, 41
1, 39192, Note_on_c, 9, 44, 0
1, 39198, Note_on_c, 0, 65, 0
1, 39198, Note_on_c, 0, 58, 0
1, 39200, Note_on_c, 0, 61, 0
1, 39214, Note_on_c, 2, 65, 0
1, 39214, Note_on_c, 2, 58, 0
1, 39214, Note_on_c, 2, 61, 0
1, 39214, Note_on_c, 2, 56, 0
1, 39214, Note_on_c, 9, 69, 46
1, 39215, Note_on_c, 9, 69, 0
1, 39215, Note_on_c, 0, 65, 59
1, 39215, Note_on_c, 0, 61, 67
1, 39215, Note_on_c, 9, 51, 52
1, 39216, Note_on_c, 9, 51, 0
1, 39216, Note_on_c, 3, 70, 0
1, 39216, Note_on_c, 4, 70, 0
1, 39216, Note_on_c, 0, 58, 64
1, 39216, Note_on_c, 2, 56, 86
1, 39216, Note_on_c, 2, 58, 104
1, 39216, Note_on_c, 2, 65, 83
1, 39216, Note_on_c, 2, 61, 100
1, 39216, Note_on_c, 3, 65, 72
1, 39216, Note_on_c, 4, 65, 52
1, 39218, Note_on_c, 0, 56, 41
1, 39224, Note_on_c, 2, 61, 0
1, 39226, Note_on_c, 2, 56, 0
1, 39226, Note_on_c, 2, 58, 0
1, 39229, Note_on_c, 2, 65, 0
1, 39231, Note_on_c, 0, 56, 0
1, 39233, Note_on_c, 0, 58, 0
1, 39236, Note_on_c, 0, 61, 0
1, 39239, Note_on_c, 0, 65, 0
1, 39239, Note_on_c, 9, 69, 33
1, 39239, Note_on_c, 9, 51, 45
1, 39239, Note_on_c, 9, 62, 87
1, 39240, Note_on_c, 9, 62, 0
1, 39240, Note_on_c, 3, 65, 0
1, 39240, Note_on_c, 9, 51, 0
1, 39240, Note_on_c, 9, 69, 0
1, 39240, Note_on_c, 4, 65, 0
1, 39240, Note_on_c, 2, 56, 63
1, 39240, Note_on_c, 2, 61, 74
1, 39240, Note_on_c, 2, 58, 64
1, 39240, Note_on_c, 2, 65, 74
1, 39240, Note_on_c, 3, 68, 86
1, 39240, Note_on_c, 4, 68, 66
1, 39256, Note_on_c, 11, 32, 0
1, 39256, Note_on_c, 1, 32, 0
1, 39263, Note_on_c, 9, 40, 101
1, 39263, Note_on_c, 9, 51, 81
1, 39263, Note_on_c, 9, 75, 74
1, 39264, Note_on_c, 9, 75, 0
1, 39264, Note_on_c, 9, 51, 0
1, 39264, Note_on_c, 9, 40, 0
1, 39264, Note_on_c, 9, 62, 74
1, 39265, Note_on_c, 9, 62, 0
1, 39276, Note_on_c, 2, 61, 0
1, 39276, Note_on_c, 2, 58, 0
1, 39276, Note_on_c, 2, 65, 0
1, 39276, Note_on_c, 2, 56, 0
1, 39286, Note_on_c, 2, 65, 70
1, 39287, Note_on_c, 0, 56, 67
1, 39287, Note_on_c, 0, 58, 68
1, 39287, Note_on_c, 0, 65, 73
1, 39287, Note_on_c, 9, 44, 48
1, 39288, Note_on_c, 9, 44, 0
1, 39288, Note_on_c, 2, 56, 67
1, 39288, Note_on_c, 2, 58, 67
1, 39288, Note_on_c, 2, 61, 71
1, 39293, Note_on_c, 2, 61, 0
1, 39294, Note_on_c, 2, 65, 0
1, 39294, Note_on_c, 2, 58, 0
1, 39294, Note_on_c, 2, 56, 0
1, 39305, Note_on_c, 0, 56, 0
1, 39309, Note_on_c, 2, 65, 87
1, 39310, Note_on_c, 0, 61, 54
1, 39310, Note_on_c, 2, 58, 47
1, 39310, Note_on_c, 2, 61, 60
1, 39311, Note_on_c, 9, 69, 41
1, 39311, Note_on_c, 9, 51, 48
1, 39312, Note_on_c, 9, 51, 0
1, 39312, Note_on_c, 9, 69, 0
1, 39315, Note_on_c, 0, 58, 0
1, 39320, Note_on_c, 2, 61, 0
1, 39326, Note_on_c, 0, 65, 0
1, 39329, Note_on_c, 2, 65, 0
1, 39330, Note_on_c, 2, 58, 0
1, 39333, Note_on_c, 0, 61, 0
1, 39334, Note_on_c, 0, 56, 53
1, 39334, Note_on_c, 2, 61, 61
1, 39334, Note_on_c, 2, 65, 81
1, 39334, Note_on_c, 9, 62, 69
1, 39335, Note_on_c, 9, 62, 0
1, 39335, Note_on_c, 1, 39, 79
1, 39335, Note_on_c, 9, 36, 104
1, 39335, Note_on_c, 9, 51, 42
1, 39335, Note_on_c, 11, 39, 75
1, 39336, Note_on_c, 9, 51, 0
1, 39336, Note_on_c, 9, 36, 0
1, 39336, Note_on_c, 9, 69, 33
1, 39337, Note_on_c, 9, 69, 0
1, 39342, Note_on_c, 2, 61, 0
1, 39342, Note_on_c, 2, 65, 0
1, 39354, Note_on_c, 0, 56, 0
1, 39357, Note_on_c, 1, 39, 0
1, 39357, Note_on_c, 11, 39, 0
1, 39358, Note_on_c, 2, 65, 64
1, 39358, Note_on_c, 2, 61, 93
1, 39358, Note_on_c, 2, 58, 87
1, 39358, Note_on_c, 2, 56, 60
1, 39359, Note_on_c, 0, 65, 75
1, 39359, Note_on_c, 0, 56, 61
1, 39359, Note_on_c, 0, 58, 69
1, 39359, Note_on_c, 1, 44, 74
1, 39359, Note_on_c, 9, 36, 67
1, 39359, Note_on_c, 11, 44, 70
1, 39360, Note_on_c, 9, 36, 0
1, 39360, Note_on_c, 4, 68, 0
1, 39360, Note_on_c, 3, 68, 0
1, 39360, Note_on_c, 9, 51, 83
1, 39361, Note_on_c, 9, 51, 0
1, 39361, Note_on_c, 9, 62, 62
1, 39362, Note_on_c, 9, 62, 0
1, 39382, Note_on_c, 0, 56, 0
1, 39383, Note_on_c, 1, 32, 75
1, 39383, Note_on_c, 9, 44, 42
1, 39383, Note_on_c, 11, 32, 71
1, 39384, Note_on_c, 9, 44, 0
1, 39386, Note_on_c, 11, 44, 0
1, 39386, Note_on_c, 1, 44, 0
1, 39394, Note_on_c, 0, 58, 0
1, 39398, Note_on_c, 0, 65, 0
1, 39406, Note_on_c, 2, 58, 0
1, 39406, Note_on_c, 2, 61, 0
1, 39406, Note_on_c, 2, 56, 0
1, 39406, Note_on_c, 2, 65, 0
1, 39406, Note_on_c, 0, 56, 51
1, 39406, Note_on_c, 9, 69, 41
1, 39407, Note_on_c, 9, 69, 0
1, 39407, Note_on_c, 1, 44, 80
1, 39407, Note_on_c, 9, 51, 46
1, 39407, Note_on_c, 9, 36, 105
1, 39407, Note_on_c, 11, 44, 76
1, 39408, Note_on_c, 9, 36, 0
1, 39408, Note_on_c, 9, 51, 0
1, 39408, Note_on_c, 2, 61, 108
1, 39408, Note_on_c, 2, 56, 98
1, 39408, Note_on_c, 2, 58, 112
1, 39408, Note_on_c, 2, 65, 87
1, 39409, Note_on_c, 1, 32, 0
1, 39409, Note_on_c, 11, 32, 0
1, 39417, Note_on_c, 2, 61, 0
1, 39417, Note_on_c, 2, 58, 0
1, 39420, Note_on_c, 2, 56, 0
1, 39420, Note_on_c, 2, 65, 0
1, 39421, Note_on_c, 0, 56, 0
1, 39430, Note_on_c, 0, 58, 62
1, 39430, Note_on_c, 0, 65, 70
1, 39430, Note_on_c, 9, 62, 71
1, 39430, Note_on_c, 9, 69, 23
1, 39431, Note_on_c, 9, 69, 0
1, 39431, Note_on_c, 9, 62, 0
1, 39431, Note_on_c, 0, 56, 59
1, 39431, Note_on_c, 9, 51, 55
1, 39432, Note_on_c, 9, 51, 0
1, 39432, Note_on_c, 2, 58, 67
1, 39432, Note_on_c, 2, 61, 73
1, 39432, Note_on_c, 2, 65, 68
1, 39432, Note_on_c, 2, 56, 69
1, 39449, Note_on_c, 0, 56, 0
1, 39455, Note_on_c, 0, 58, 0
1, 39455, Note_on_c, 9, 51, 81
1, 39455, Note_on_c, 9, 40, 105
1, 39455, Note_on_c, 9, 75, 79
1, 39455, Note_on_c, 9, 62, 63
1, 39456, Note_on_c, 9, 62, 0
1, 39456, Note_on_c, 9, 51, 0
1, 39456, Note_on_c, 9, 75, 0
1, 39456, Note_on_c, 0, 65, 0
1, 39456, Note_on_c, 9, 40, 0
1, 39456, Note_on_c, 3, 65, 75
1, 39456, Note_on_c, 4, 65, 55
1, 39468, Note_on_c, 2, 61, 0
1, 39468, Note_on_c, 2, 65, 0
1, 39469, Note_on_c, 2, 58, 0
1, 39470, Note_on_c, 2, 56, 0
1, 39475, Note_on_c, 6, 61, 56
1, 39476, Note_on_c, 11, 44, 0
1, 39476, Note_on_c, 1, 44, 0
1, 39478, Note_on_c, 7, 61, 78
1, 39478, Note_on_c, 7, 70, 82
1, 39479, Note_on_c, 0, 58, 73
1, 39479, Note_on_c, 0, 65, 61
1, 39479, Note_on_c, 0, 56, 70
1, 39479, Note_on_c, 1, 32, 72
1, 39479, Note_on_c, 6, 65, 62
1, 39479, Note_on_c, 9, 44, 46
1, 39479, Note_on_c, 11, 32, 68
1, 39480, Note_on_c, 9, 44, 0
1, 39480, Note_on_c, 3, 65, 0
1, 39480, Note_on_c, 4, 65, 0
1, 39480, Note_on_c, 2, 61, 64
1, 39480, Note_on_c, 2, 65, 66
1, 39480, Note_on_c, 2, 56, 74
1, 39480, Note_on_c, 2, 58, 61
1, 39480, Note_on_c, 3, 68, 69
1, 39480, Note_on_c, 4, 68, 49
1, 39480, Note_on_c, 6, 70, 59
1, 39481, Note_on_c, 9, 62, 69
1, 39482, Note_on_c, 9, 62, 0
1, 39488, Note_on_c, 2, 58, 0
1, 39488, Note_on_c, 2, 61, 0
1, 39488, Note_on_c, 2, 56, 0
1, 39490, Note_on_c, 6, 61, 0
1, 39490, Note_on_c, 6, 70, 0
1, 39490, Note_on_c, 2, 65, 0
1, 39490, Note_on_c, 7, 61, 0
1, 39491, Note_on_c, 6, 65, 0
1, 39494, Note_on_c, 7, 70, 0
1, 39501, Note_on_c, 0, 56, 0
1, 39501, Note_on_c, 2, 65, 81
1, 39502, Note_on_c, 2, 61, 54
1, 39502, Note_on_c, 2, 58, 59
1, 39502, Note_on_c, 9, 69, 46
1, 39503, Note_on_c, 9, 69, 0
1, 39503, Note_on_c, 1, 39, 80
1, 39503, Note_on_c, 9, 62, 63
1, 39503, Note_on_c, 9, 51, 45
1, 39503, Note_on_c, 11, 39, 76
1, 39504, Note_on_c, 9, 51, 0
1, 39504, Note_on_c, 9, 62, 0
1, 39505, Note_on_c, 11, 32, 0
1, 39505, Note_on_c, 1, 32, 0
1, 39505, Note_on_c, 0, 61, 26
1, 39510, Note_on_c, 0, 58, 0
1, 39514, Note_on_c, 0, 65, 0
1, 39514, Note_on_c, 2, 61, 0
1, 39522, Note_on_c, 2, 65, 0
1, 39526, Note_on_c, 11, 39, 0
1, 39526, Note_on_c, 1, 39, 0
1, 39526, Note_on_c, 2, 58, 0
1, 39526, Note_on_c, 0, 61, 0
1, 39526, Note_on_c, 2, 65, 81
1, 39526, Note_on_c, 2, 61, 77
1, 39526, Note_on_c, 9, 69, 27
1, 39527, Note_on_c, 9, 69, 0
1, 39527, Note_on_c, 0, 56, 53
1, 39527, Note_on_c, 1, 32, 70
1, 39527, Note_on_c, 9, 51, 47
1, 39527, Note_on_c, 11, 32, 66
1, 39528, Note_on_c, 9, 51, 0
1, 39534, Note_on_c, 2, 61, 0
1, 39534, Note_on_c, 2, 65, 0
1, 39549, Note_on_c, 0, 56, 0
1, 39550, Note_on_c, 2, 59, 83
1, 39550, Note_on_c, 2, 56, 61
1, 39550, Note_on_c, 2, 63, 87
1, 39550, Note_on_c, 2, 53, 65
1, 39551, Note_on_c, 0, 65, 61
1, 39551, Note_on_c, 0, 61, 65
1, 39551, Note_on_c, 1, 37, 88
1, 39551, Note_on_c, 9, 36, 115
1, 39551, Note_on_c, 11, 37, 84
1, 39552, Note_on_c, 9, 36, 0
1, 39552, Note_on_c, 4, 68, 0
1, 39552, Note_on_c, 3, 68, 0
1, 39552, Note_on_c, 10, 61, 0
1, 39552, Note_on_c, 10, 58, 0
1, 39552, Note_on_c, 3, 70, 96
1, 39552, Note_on_c, 4, 70, 76
1, 39552, Note_on_c, 10, 63, 62
1, 39552, Note_on_c, 10, 59, 70
1, 39553, Note_on_c, 0, 59, 58
1, 39553, Note_on_c, 9, 51, 81
1, 39554, Note_on_c, 9, 51, 0
1, 39554, Note_on_c, 1, 32, 0
1, 39554, Note_on_c, 11, 32, 0
1, 39554, Note_on_c, 0, 56, 41
1, 39568, Note_on_c, 0, 59, 0
1, 39571, Note_on_c, 0, 56, 0
1, 39574, Note_on_c, 0, 65, 0
1, 39574, Note_on_c, 0, 61, 0
1, 39576, Note_on_c, 9, 44, 46
1, 39577, Note_on_c, 9, 44, 0
1, 39598, Note_on_c, 2, 63, 0
1, 39598, Note_on_c, 2, 56, 0
1, 39598, Note_on_c, 2, 59, 0
1, 39598, Note_on_c, 2, 53, 0
1, 39598, Note_on_c, 9, 69, 39
1, 39599, Note_on_c, 9, 69, 0
1, 39599, Note_on_c, 0, 65, 70
1, 39599, Note_on_c, 9, 51, 57
1, 39600, Note_on_c, 9, 51, 0
1, 39600, Note_on_c, 3, 70, 0
1, 39600, Note_on_c, 4, 70, 0
1, 39600, Note_on_c, 2, 59, 83
1, 39600, Note_on_c, 2, 56, 43
1, 39600, Note_on_c, 2, 63, 74
1, 39600, Note_on_c, 2, 53, 48
1, 39600, Note_on_c, 3, 65, 76
1, 39600, Note_on_c, 4, 65, 56
1, 39601, Note_on_c, 0, 59, 87
1, 39601, Note_on_c, 0, 61, 65
1, 39601, Note_on_c, 0, 56, 58
1, 39610, Note_on_c, 2, 59, 0
1, 39612, Note_on_c, 2, 56, 0
1, 39612, Note_on_c, 11, 37, 0
1, 39612, Note_on_c, 1, 37, 0
1, 39613, Note_on_c, 2, 63, 0
1, 39616, Note_on_c, 2, 53, 0
1, 39621, Note_on_c, 6, 70, 60
1, 39622, Note_on_c, 6, 59, 62
1, 39622, Note_on_c, 7, 70, 58
1, 39623, Note_on_c, 9, 69, 33
1, 39623, Note_on_c, 9, 62, 84
1, 39623, Note_on_c, 9, 51, 46
1, 39624, Note_on_c, 9, 51, 0
1, 39624, Note_on_c, 9, 62, 0
1, 39624, Note_on_c, 3, 65, 0
1, 39624, Note_on_c, 9, 69, 0
1, 39624, Note_on_c, 4, 65, 0
1, 39624, Note_on_c, 2, 59, 74
1, 39624, Note_on_c, 2, 56, 63
1, 39624, Note_on_c, 2, 53, 68
1, 39624, Note_on_c, 2, 63, 68
1, 39624, Note_on_c, 3, 68, 85
1, 39624, Note_on_c, 4, 68, 65
1, 39639, Note_on_c, 0, 59, 0
1, 39642, Note_on_c, 7, 70, 0
1, 39642, Note_on_c, 6, 59, 0
1, 39643, Note_on_c, 6, 70, 0
1, 39643, Note_on_c, 0, 65, 0
1, 39643, Note_on_c, 0, 61, 0
1, 39646, Note_on_c, 6, 59, 58
1, 39647, Note_on_c, 6, 70, 61
1, 39647, Note_on_c, 9, 75, 76
1, 39648, Note_on_c, 9, 75, 0
1, 39648, Note_on_c, 9, 51, 91
1, 39648, Note_on_c, 9, 40, 107
1, 39649, Note_on_c, 9, 40, 0
1, 39649, Note_on_c, 9, 51, 0
1, 39649, Note_on_c, 9, 62, 71
1, 39650, Note_on_c, 9, 62, 0
1, 39650, Note_on_c, 6, 65, 51
1, 39650, Note_on_c, 7, 70, 82
1, 39651, Note_on_c, 0, 56, 0
1, 39656, Note_on_c, 2, 53, 0
1, 39658, Note_on_c, 2, 56, 0
1, 39660, Note_on_c, 2, 59, 0
1, 39660, Note_on_c, 2, 63, 0
1, 39661, Note_on_c, 6, 59, 0
1, 39667, Note_on_c, 6, 70, 0
1, 39669, Note_on_c, 6, 65, 0
1, 39670, Note_on_c, 7, 70, 0
1, 39670, Note_on_c, 2, 53, 70
1, 39670, Note_on_c, 2, 63, 72
1, 39670, Note_on_c, 2, 59, 74
1, 39671, Note_on_c, 9, 44, 42
1, 39672, Note_on_c, 9, 44, 0
1, 39672, Note_on_c, 4, 68, 0
1, 39672, Note_on_c, 3, 68, 0
1, 39672, Note_on_c, 2, 56, 58
1, 39672, Note_on_c, 3, 70, 79
1, 39672, Note_on_c, 4, 70, 59
1, 39673, Note_on_c, 0, 65, 73
1, 39673, Note_on_c, 0, 59, 87
1, 39674, Note_on_c, 0, 56, 58
1, 39674, Note_on_c, 6, 59, 62
1, 39674, Note_on_c, 6, 70, 70
1, 39674, Note_on_c, 7, 70, 73
1, 39677, Note_on_c, 2, 59, 0
1, 39677, Note_on_c, 6, 65, 50
1, 39678, Note_on_c, 2, 56, 0
1, 39678, Note_on_c, 2, 63, 0
1, 39680, Note_on_c, 2, 53, 0
1, 39685, Note_on_c, 6, 59, 0
1, 39690, Note_on_c, 6, 65, 0
1, 39690, Note_on_c, 7, 70, 0
1, 39691, Note_on_c, 6, 70, 0
1, 39693, Note_on_c, 0, 56, 0
1, 39693, Note_on_c, 2, 56, 58
1, 39694, Note_on_c, 2, 59, 58
1, 39694, Note_on_c, 2, 63, 87
1, 39695, Note_on_c, 9, 69, 37
1, 39696, Note_on_c, 9, 69, 0
1, 39696, Note_on_c, 9, 51, 49
1, 39697, Note_on_c, 9, 51, 0
1, 39697, Note_on_c, 0, 61, 46
1, 39698, Note_on_c, 0, 59, 0
1, 39702, Note_on_c, 2, 59, 0
1, 39705, Note_on_c, 0, 65, 0
1, 39711, Note_on_c, 2, 63, 0
1, 39717, Note_on_c, 2, 56, 0
1, 39718, Note_on_c, 2, 59, 66
1, 39718, Note_on_c, 2, 63, 87
1, 39719, Note_on_c, 1, 37, 73
1, 39719, Note_on_c, 9, 69, 27
1, 39719, Note_on_c, 9, 51, 38
1, 39719, Note_on_c, 11, 37, 69
1, 39720, Note_on_c, 9, 51, 0
1, 39720, Note_on_c, 3, 70, 0
1, 39720, Note_on_c, 9, 69, 0
1, 39720, Note_on_c, 9, 62, 71
1, 39721, Note_on_c, 9, 62, 0
1, 39721, Note_on_c, 0, 61, 0
1, 39721, Note_on_c, 0, 56, 52
1, 39721, Note_on_c, 9, 36, 93
1, 39722, Note_on_c, 9, 36, 0
1, 39726, Note_on_c, 2, 63, 0
1, 39726, Note_on_c, 2, 59, 0
1, 39742, Note_on_c, 2, 56, 53
1, 39742, Note_on_c, 2, 53, 62
1, 39742, Note_on_c, 2, 63, 76
1, 39742, Note_on_c, 2, 59, 77
1, 39743, Note_on_c, 1, 43, 78
1, 39743, Note_on_c, 9, 36, 65
1, 39743, Note_on_c, 11, 43, 74
1, 39744, Note_on_c, 9, 36, 0
1, 39744, Note_on_c, 11, 37, 0
1, 39744, Note_on_c, 1, 37, 0
1, 39745, Note_on_c, 0, 65, 79
1, 39745, Note_on_c, 9, 51, 86
1, 39746, Note_on_c, 9, 51, 0
1, 39746, Note_on_c, 0, 59, 84
1, 39746, Note_on_c, 9, 62, 71
1, 39747, Note_on_c, 9, 62, 0
1, 39747, Note_on_c, 4, 70, 0
1, 39767, Note_on_c, 1, 38, 74
1, 39767, Note_on_c, 11, 38, 70
1, 39768, Note_on_c, 1, 43, 0
1, 39768, Note_on_c, 11, 43, 0
1, 39768, Note_on_c, 0, 61, 53
1, 39769, Note_on_c, 9, 44, 47
1, 39770, Note_on_c, 9, 44, 0
1, 39771, Note_on_c, 0, 59, 0
1, 39772, Note_on_c, 0, 65, 0
1, 39778, Note_on_c, 0, 56, 0
1, 39788, Note_on_c, 2, 56, 0
1, 39788, Note_on_c, 2, 63, 0
1, 39788, Note_on_c, 2, 53, 0
1, 39788, Note_on_c, 2, 59, 0
1, 39790, Note_on_c, 1, 38, 0
1, 39790, Note_on_c, 0, 61, 0
1, 39790, Note_on_c, 11, 38, 0
1, 39790, Note_on_c, 0, 56, 42
1, 39790, Note_on_c, 2, 53, 72
1, 39790, Note_on_c, 2, 63, 111
1, 39791, Note_on_c, 1, 43, 70
1, 39791, Note_on_c, 9, 69, 43
1, 39791, Note_on_c, 11, 43, 66
1, 39792, Note_on_c, 9, 69, 0
1, 39792, Note_on_c, 2, 56, 73
1, 39792, Note_on_c, 2, 59, 98
1, 39792, Note_on_c, 9, 62, 80
1, 39793, Note_on_c, 9, 62, 0
1, 39793, Note_on_c, 9, 51, 48
1, 39793, Note_on_c, 9, 36, 110
1, 39794, Note_on_c, 9, 36, 0
1, 39794, Note_on_c, 9, 51, 0
1, 39802, Note_on_c, 2, 53, 0
1, 39802, Note_on_c, 2, 63, 0
1, 39802, Note_on_c, 2, 59, 0
1, 39802, Note_on_c, 2, 56, 0
1, 39814, Note_on_c, 0, 56, 0
1, 39814, Note_on_c, 2, 56, 61
1, 39814, Note_on_c, 2, 53, 63
1, 39814, Note_on_c, 2, 59, 74
1, 39814, Note_on_c, 2, 63, 63
1, 39815, Note_on_c, 0, 65, 77
1, 39815, Note_on_c, 9, 51, 41
1, 39815, Note_on_c, 9, 69, 31
1, 39816, Note_on_c, 9, 69, 0
1, 39816, Note_on_c, 9, 51, 0
1, 39816, Note_on_c, 0, 56, 53
1, 39817, Note_on_c, 0, 59, 87
1, 39839, Note_on_c, 0, 59, 0
1, 39839, Note_on_c, 9, 75, 73
1, 39840, Note_on_c, 9, 75, 0
1, 39840, Note_on_c, 3, 65, 84
1, 39840, Note_on_c, 4, 65, 64
1, 39840, Note_on_c, 9, 40, 105
1, 39841, Note_on_c, 9, 40, 0
1, 39841, Note_on_c, 9, 51, 81
1, 39841, Note_on_c, 9, 62, 88
1, 39842, Note_on_c, 9, 62, 0
1, 39842, Note_on_c, 9, 51, 0
1, 39842, Note_on_c, 0, 65, 0
1, 39846, Note_on_c, 0, 56, 0
1, 39849, Note_on_c, 2, 56, 0
1, 39850, Note_on_c, 2, 63, 0
1, 39850, Note_on_c, 2, 53, 0
1, 39852, Note_on_c, 2, 59, 0
1, 39862, Note_on_c, 11, 43, 0
1, 39862, Note_on_c, 1, 43, 0
1, 39862, Note_on_c, 2, 63, 70
1, 39862, Note_on_c, 2, 56, 61
1, 39862, Note_on_c, 2, 53, 67
1, 39862, Note_on_c, 2, 59, 81
1, 39862, Note_on_c, 6, 70, 59
1, 39862, Note_on_c, 6, 65, 59
1, 39863, Note_on_c, 0, 59, 81
1, 39863, Note_on_c, 0, 56, 57
1, 39863, Note_on_c, 0, 65, 70
1, 39863, Note_on_c, 1, 38, 72
1, 39863, Note_on_c, 9, 44, 43
1, 39863, Note_on_c, 11, 38, 68
1, 39864, Note_on_c, 9, 44, 0
1, 39864, Note_on_c, 4, 65, 0
1, 39864, Note_on_c, 3, 65, 0
1, 39864, Note_on_c, 3, 68, 73
1, 39864, Note_on_c, 4, 68, 53
1, 39865, Note_on_c, 6, 59, 59
1, 39865, Note_on_c, 7, 70, 75
1, 39865, Note_on_c, 7, 59, 74
1, 39869, Note_on_c, 2, 56, 0
1, 39870, Note_on_c, 2, 53, 0
1, 39870, Note_on_c, 2, 59, 0
1, 39872, Note_on_c, 2, 63, 0
1, 39876, Note_on_c, 7, 70, 0
1, 39877, Note_on_c, 7, 59, 0
1, 39878, Note_on_c, 6, 65, 0
1, 39879, Note_on_c, 6, 59, 0
1, 39883, Note_on_c, 6, 70, 0
1, 39886, Note_on_c, 0, 56, 0
1, 39886, Note_on_c, 2, 56, 49
1, 39886, Note_on_c, 2, 59, 64
1, 39886, Note_on_c, 2, 63, 104
1, 39887, Note_on_c, 0, 61, 53
1, 39887, Note_on_c, 1, 43, 75
1, 39887, Note_on_c, 9, 69, 32
1, 39887, Note_on_c, 9, 51, 42
1, 39887, Note_on_c, 11, 43, 71
1, 39888, Note_on_c, 9, 51, 0
1, 39888, Note_on_c, 9, 69, 0
1, 39888, Note_on_c, 0, 59, 0
1, 39889, Note_on_c, 0, 65, 0
1, 39890, Note_on_c, 11, 38, 0
1, 39890, Note_on_c, 1, 38, 0
1, 39896, Note_on_c, 2, 59, 0
1, 39906, Note_on_c, 2, 63, 0
1, 39910, Note_on_c, 2, 56, 0
1, 39910, Note_on_c, 2, 63, 85
1, 39911, Note_on_c, 0, 56, 41
1, 39911, Note_on_c, 1, 37, 69
1, 39911, Note_on_c, 9, 51, 42
1, 39911, Note_on_c, 9, 69, 35
1, 39911, Note_on_c, 11, 37, 65
1, 39912, Note_on_c, 9, 69, 0
1, 39912, Note_on_c, 9, 51, 0
1, 39912, Note_on_c, 2, 59, 76
1, 39913, Note_on_c, 1, 43, 0
1, 39913, Note_on_c, 11, 43, 0
1, 39914, Note_on_c, 0, 61, 0
1, 39918, Note_on_c, 2, 63, 0
1, 39920, Note_on_c, 2, 59, 0
1, 39934, Note_on_c, 2, 58, 90
1, 39934, Note_on_c, 2, 56, 95
1, 39934, Note_on_c, 2, 65, 63
1, 39934, Note_on_c, 2, 61, 90
1, 39935, Note_on_c, 0, 65, 68
1, 39935, Note_on_c, 0, 61, 57
1, 39935, Note_on_c, 1, 42, 74
1, 39935, Note_on_c, 9, 36, 115
1, 39935, Note_on_c, 9, 51, 83
1, 39935, Note_on_c, 11, 42, 70
1, 39936, Note_on_c, 9, 51, 0
1, 39936, Note_on_c, 9, 36, 0
1, 39936, Note_on_c, 10, 59, 0
1, 39936, Note_on_c, 10, 63, 0
1, 39936, Note_on_c, 4, 68, 0
1, 39936, Note_on_c, 3, 68, 0
1, 39936, Note_on_c, 3, 70, 84
1, 39936, Note_on_c, 4, 70, 64
1, 39936, Note_on_c, 10, 61, 61
1, 39936, Note_on_c, 10, 58, 60
1, 39938, Note_on_c, 0, 58, 60
1, 39941, Note_on_c, 1, 37, 0
1, 39941, Note_on_c, 11, 37, 0
1, 39958, Note_on_c, 0, 65, 0
1, 39959, Note_on_c, 0, 61, 0
1, 39960, Note_on_c, 9, 44, 41
1, 39961, Note_on_c, 9, 44, 0
1, 39961, Note_on_c, 0, 58, 0
1, 39964, Note_on_c, 0, 56, 0
1, 39982, Note_on_c, 2, 58, 0
1, 39982, Note_on_c, 2, 56, 0
1, 39982, Note_on_c, 2, 65, 0
1, 39982, Note_on_c, 2, 61, 0
1, 39982, Note_on_c, 9, 69, 50
1, 39983, Note_on_c, 9, 69, 0
1, 39983, Note_on_c, 0, 58, 68
1, 39983, Note_on_c, 0, 65, 70
1, 39983, Note_on_c, 0, 56, 59
1, 39983, Note_on_c, 9, 51, 49
1, 39984, Note_on_c, 9, 51, 0
1, 39984, Note_on_c, 4, 70, 0
1, 39984, Note_on_c, 3, 70, 0
1, 39984, Note_on_c, 0, 61, 64
1, 39984, Note_on_c, 2, 65, 77
1, 39984, Note_on_c, 2, 58, 100
1, 39984, Note_on_c, 2, 56, 108
1, 39984, Note_on_c, 2, 61, 104
1, 39984, Note_on_c, 3, 65, 75
1, 39984, Note_on_c, 4, 65, 55
1, 39993, Note_on_c, 2, 61, 0
1, 39993, Note_on_c, 2, 56, 0
1, 39993, Note_on_c, 2, 58, 0
1, 39994, Note_on_c, 2, 65, 0
1, 40006, Note_on_c, 2, 56, 63
1, 40006, Note_on_c, 2, 65, 61
1, 40006, Note_on_c, 2, 58, 60
1, 40006, Note_on_c, 2, 61, 68
1, 40006, Note_on_c, 9, 62, 66
1, 40007, Note_on_c, 9, 62, 0
1, 40007, Note_on_c, 9, 69, 28
1, 40007, Note_on_c, 9, 51, 47
1, 40008, Note_on_c, 9, 51, 0
1, 40008, Note_on_c, 9, 69, 0
1, 40008, Note_on_c, 4, 65, 0
1, 40008, Note_on_c, 3, 65, 0
1, 40008, Note_on_c, 3, 68, 74
1, 40008, Note_on_c, 4, 68, 54
1, 40009, Note_on_c, 11, 42, 0
1, 40009, Note_on_c, 1, 42, 0
1, 40010, Note_on_c, 0, 58, 0
1, 40012, Note_on_c, 0, 61, 0
1, 40016, Note_on_c, 0, 65, 0
1, 40031, Note_on_c, 9, 40, 101
1, 40031, Note_on_c, 9, 51, 86
1, 40032, Note_on_c, 9, 51, 0
1, 40032, Note_on_c, 9, 40, 0
1, 40033, Note_on_c, 9, 75, 79
1, 40033, Note_on_c, 9, 62, 74
1, 40034, Note_on_c, 9, 62, 0
1, 40034, Note_on_c, 9, 75, 0
1, 40036, Note_on_c, 0, 56, 0
1, 40039, Note_on_c, 2, 56, 0
1, 40040, Note_on_c, 2, 61, 0
1, 40042, Note_on_c, 2, 65, 0
1, 40042, Note_on_c, 2, 58, 0
1, 40054, Note_on_c, 0, 65, 75
1, 40054, Note_on_c, 2, 58, 62
1, 40054, Note_on_c, 2, 61, 71
1, 40054, Note_on_c, 2, 65, 70
1, 40054, Note_on_c, 2, 56, 68
1, 40055, Note_on_c, 0, 56, 61
1, 40055, Note_on_c, 0, 58, 75
1, 40055, Note_on_c, 9, 44, 43
1, 40056, Note_on_c, 9, 44, 0
1, 40057, Note_on_c, 7, 58, 73
1, 40061, Note_on_c, 2, 61, 0
1, 40062, Note_on_c, 2, 58, 0
1, 40063, Note_on_c, 2, 56, 0
1, 40063, Note_on_c, 2, 65, 0
1, 40071, Note_on_c, 7, 58, 0
1, 40078, Note_on_c, 2, 65, 93
1, 40078, Note_on_c, 9, 69, 45
1, 40079, Note_on_c, 9, 69, 0
1, 40079, Note_on_c, 0, 61, 50
1, 40080, Note_on_c, 0, 56, 0
1, 40080, Note_on_c, 2, 61, 31
1, 40080, Note_on_c, 9, 51, 42
1, 40081, Note_on_c, 9, 51, 0
1, 40081, Note_on_c, 2, 58, 48
1, 40082, Note_on_c, 0, 58, 0
1, 40089, Note_on_c, 2, 61, 0
1, 40094, Note_on_c, 2, 58, 0
1, 40095, Note_on_c, 0, 65, 0
1, 40098, Note_on_c, 2, 65, 0
1, 40101, Note_on_c, 0, 61, 0
1, 40102, Note_on_c, 0, 56, 48
1, 40102, Note_on_c, 2, 65, 77
1, 40102, Note_on_c, 9, 69, 23
1, 40103, Note_on_c, 9, 69, 0
1, 40103, Note_on_c, 1, 37, 84
1, 40103, Note_on_c, 9, 36, 105
1, 40103, Note_on_c, 11, 37, 80
1, 40104, Note_on_c, 9, 36, 0
1, 40104, Note_on_c, 2, 61, 67
1, 40104, Note_on_c, 9, 51, 27
1, 40105, Note_on_c, 9, 51, 0
1, 40105, Note_on_c, 9, 62, 71
1, 40106, Note_on_c, 9, 62, 0
1, 40110, Note_on_c, 2, 65, 0
1, 40112, Note_on_c, 2, 61, 0
1, 40126, Note_on_c, 11, 37, 0
1, 40126, Note_on_c, 0, 56, 0
1, 40126, Note_on_c, 1, 37, 0
1, 40126, Note_on_c, 0, 65, 75
1, 40126, Note_on_c, 2, 65, 63
1, 40126, Note_on_c, 2, 61, 77
1, 40126, Note_on_c, 2, 56, 60
1, 40126, Note_on_c, 2, 58, 79
1, 40127, Note_on_c, 0, 56, 53
1, 40127, Note_on_c, 0, 58, 66
1, 40127, Note_on_c, 1, 42, 80
1, 40127, Note_on_c, 9, 36, 72
1, 40127, Note_on_c, 9, 51, 87
1, 40127, Note_on_c, 11, 42, 76
1, 40128, Note_on_c, 9, 51, 0
1, 40128, Note_on_c, 9, 36, 0
1, 40128, Note_on_c, 4, 68, 0
1, 40128, Note_on_c, 3, 68, 0
1, 40130, Note_on_c, 9, 62, 74
1, 40131, Note_on_c, 9, 62, 0
1, 40150, Note_on_c, 11, 42, 0
1, 40150, Note_on_c, 1, 42, 0
1, 40151, Note_on_c, 0, 61, 41
1, 40151, Note_on_c, 1, 34, 72
1, 40151, Note_on_c, 11, 34, 68
1, 40153, Note_on_c, 9, 44, 45
1, 40154, Note_on_c, 9, 44, 0
1, 40154, Note_on_c, 0, 56, 0
1, 40157, Note_on_c, 0, 58, 0
1, 40162, Note_on_c, 0, 65, 0
1, 40170, Note_on_c, 0, 61, 0
1, 40173, Note_on_c, 2, 61, 0
1, 40173, Note_on_c, 2, 65, 0
1, 40173, Note_on_c, 2, 58, 0
1, 40173, Note_on_c, 2, 56, 0
1, 40173, Note_on_c, 0, 56, 48
1, 40174, Note_on_c, 2, 65, 81
1, 40174, Note_on_c, 2, 61, 104
1, 40174, Note_on_c, 2, 58, 95
1, 40174, Note_on_c, 2, 56, 98
1, 40174, Note_on_c, 9, 69, 37
1, 40175, Note_on_c, 9, 69, 0
1, 40175, Note_on_c, 1, 42, 76
1, 40175, Note_on_c, 9, 51, 51
1, 40175, Note_on_c, 11, 42, 72
1, 40176, Note_on_c, 9, 51, 0
1, 40176, Note_on_c, 11, 34, 0
1, 40176, Note_on_c, 1, 34, 0
1, 40176, Note_on_c, 9, 36, 107
1, 40177, Note_on_c, 9, 36, 0
1, 40183, Note_on_c, 2, 56, 0
1, 40185, Note_on_c, 2, 58, 0
1, 40185, Note_on_c, 2, 61, 0
1, 40187, Note_on_c, 2, 65, 0
1, 40198, Note_on_c, 2, 56, 64
1, 40198, Note_on_c, 2, 58, 65
1, 40198, Note_on_c, 2, 65, 69
1, 40198, Note_on_c, 2, 61, 68
1, 40198, Note_on_c, 9, 69, 34
1, 40199, Note_on_c, 9, 69, 0
1, 40199, Note_on_c, 0, 56, 0
1, 40199, Note_on_c, 0, 58, 73
1, 40199, Note_on_c, 0, 65, 69
1, 40199, Note_on_c, 9, 62, 66
1, 40200, Note_on_c, 9, 62, 0
1, 40200, Note_on_c, 0, 56, 59
1, 40200, Note_on_c, 9, 51, 74
1, 40201, Note_on_c, 9, 51, 0
1, 40223, Note_on_c, 9, 51, 93
1, 40223, Note_on_c, 9, 40, 105
1, 40223, Note_on_c, 9, 75, 82
1, 40224, Note_on_c, 9, 75, 0
1, 40224, Note_on_c, 9, 40, 0
1, 40224, Note_on_c, 9, 51, 0
1, 40224, Note_on_c, 0, 58, 0
1, 40224, Note_on_c, 3, 65, 87
1, 40224, Note_on_c, 4, 65, 67
1, 40226, Note_on_c, 9, 62, 66
1, 40227, Note_on_c, 9, 62, 0
1, 40227, Note_on_c, 0, 56, 0
1, 40227, Note_on_c, 0, 65, 0
1, 40233, Note_on_c, 2, 56, 0
1, 40234, Note_on_c, 2, 58, 0
1, 40234, Note_on_c, 2, 65, 0
1, 40234, Note_on_c, 2, 61, 0
1, 40246, Note_on_c, 2, 61, 72
1, 40246, Note_on_c, 2, 56, 71
1, 40246, Note_on_c, 2, 65, 72
1, 40246, Note_on_c, 2, 58, 64
1, 40246, Note_on_c, 6, 58, 64
1, 40247, Note_on_c, 0, 65, 68
1, 40247, Note_on_c, 0, 56, 60
1, 40247, Note_on_c, 0, 58, 66
1, 40247, Note_on_c, 1, 37, 78
1, 40247, Note_on_c, 6, 65, 59
1, 40247, Note_on_c, 6, 68, 61
1, 40247, Note_on_c, 9, 44, 50
1, 40247, Note_on_c, 11, 37, 74
1, 40248, Note_on_c, 9, 44, 0
1, 40248, Note_on_c, 3, 65, 0
1, 40248, Note_on_c, 4, 65, 0
1, 40248, Note_on_c, 3, 68, 74
1, 40248, Note_on_c, 4, 68, 54
1, 40249, Note_on_c, 1, 42, 0
1, 40249, Note_on_c, 11, 42, 0
1, 40249, Note_on_c, 7, 68, 74
1, 40249, Note_on_c, 9, 62, 55
1, 40250, Note_on_c, 9, 62, 0
1, 40255, Note_on_c, 2, 58, 0
1, 40256, Note_on_c, 2, 61, 0
1, 40256, Note_on_c, 2, 56, 0
1, 40257, Note_on_c, 2, 65, 0
1, 40258, Note_on_c, 6, 68, 0
1, 40262, Note_on_c, 6, 58, 0
1, 40264, Note_on_c, 7, 68, 0
1, 40264, Note_on_c, 6, 65, 0
1, 40269, Note_on_c, 9, 69, 45
1, 40270, Note_on_c, 9, 69, 0
1, 40270, Note_on_c, 0, 56, 0
1, 40270, Note_on_c, 0, 61, 57
1, 40270, Note_on_c, 2, 61, 58
1, 40270, Note_on_c, 2, 65, 90
1, 40271, Note_on_c, 1, 42, 74
1, 40271, Note_on_c, 9, 51, 49
1, 40271, Note_on_c, 11, 42, 70
1, 40272, Note_on_c, 9, 51, 0
1, 40272, Note_on_c, 1, 37, 0
1, 40272, Note_on_c, 4, 68, 0
1, 40272, Note_on_c, 11, 37, 0
1, 40272, Note_on_c, 3, 68, 0
1, 40272, Note_on_c, 3, 70, 77
1, 40272, Note_on_c, 4, 70, 57
1, 40274, Note_on_c, 9, 62, 71
1, 40275, Note_on_c, 9, 62, 0
1, 40280, Note_on_c, 2, 61, 0
1, 40282, Note_on_c, 0, 58, 0
1, 40285, Note_on_c, 0, 65, 0
1, 40288, Note_on_c, 2, 65, 0
1, 40293, Note_on_c, 0, 61, 0
1, 40294, Note_on_c, 0, 56, 47
1, 40294, Note_on_c, 2, 61, 61
1, 40294, Note_on_c, 2, 65, 77
1, 40294, Note_on_c, 9, 69, 36
1, 40295, Note_on_c, 9, 69, 0
1, 40295, Note_on_c, 1, 34, 74
1, 40295, Note_on_c, 9, 51, 57
1, 40295, Note_on_c, 11, 34, 70
1, 40296, Note_on_c, 9, 51, 0
1, 40296, Note_on_c, 3, 70, 0
1, 40296, Note_on_c, 4, 70, 0
1, 40296, Note_on_c, 3, 73, 87
1, 40296, Note_on_c, 4, 73, 67
1, 40302, Note_on_c, 2, 65, 0
1, 40302, Note_on_c, 2, 61, 0
1, 40302, Note_on_c, 11, 42, 0
1, 40302, Note_on_c, 1, 42, 0
1, 40310, Note_on_c, 0, 56, 0
1, 40318, Note_on_c, 2, 68, 64
1, 40318, Note_on_c, 2, 61, 70
1, 40318, Note_on_c, 2, 57, 74
1, 40318, Note_on_c, 2, 63, 71
1, 40319, Note_on_c, 1, 35, 85
1, 40319, Note_on_c, 9, 51, 76
1, 40319, Note_on_c, 9, 36, 114
1, 40319, Note_on_c, 11, 35, 81
1, 40320, Note_on_c, 9, 36, 0
1, 40320, Note_on_c, 10, 56, 0
1, 40320, Note_on_c, 10, 65, 0
1, 40320, Note_on_c, 9, 51, 0
1, 40320, Note_on_c, 10, 58, 0
1, 40320, Note_on_c, 0, 68, 61
1, 40320, Note_on_c, 0, 57, 62
1, 40320, Note_on_c, 10, 63, 50
1, 40320, Note_on_c, 10, 57, 61
1, 40320, Note_on_c, 10, 68, 60
1, 40323, Note_on_c, 11, 34, 0
1, 40323, Note_on_c, 1, 34, 0
1, 40341, Note_on_c, 0, 68, 0
1, 40343, Note_on_c, 9, 44, 46
1, 40344, Note_on_c, 9, 44, 0
1, 40344, Note_on_c, 0, 57, 0
1, 40363, Note_on_c, 2, 68, 0
1, 40363, Note_on_c, 2, 61, 0
1, 40363, Note_on_c, 2, 57, 0
1, 40363, Note_on_c, 2, 63, 0
1, 40366, Note_on_c, 2, 68, 93
1, 40366, Note_on_c, 2, 57, 74
1, 40366, Note_on_c, 2, 63, 117
1, 40366, Note_on_c, 2, 61, 108
1, 40366, Note_on_c, 9, 69, 41
1, 40367, Note_on_c, 9, 69, 0
1, 40367, Note_on_c, 0, 68, 67
1, 40367, Note_on_c, 9, 51, 42
1, 40368, Note_on_c, 9, 51, 0
1, 40368, Note_on_c, 0, 57, 75
1, 40369, Note_on_c, 0, 61, 52
1, 40369, Note_on_c, 0, 63, 54
1, 40374, Note_on_c, 2, 63, 0
1, 40375, Note_on_c, 2, 61, 0
1, 40376, Note_on_c, 2, 68, 0
1, 40378, Note_on_c, 2, 57, 0
1, 40388, Note_on_c, 6, 68, 57
1, 40389, Note_on_c, 6, 57, 57
1, 40389, Note_on_c, 6, 65, 57
1, 40389, Note_on_c, 7, 68, 65
1, 40390, Note_on_c, 11, 35, 0
1, 40390, Note_on_c, 1, 35, 0
1, 40390, Note_on_c, 9, 69, 30
1, 40391, Note_on_c, 9, 69, 0
1, 40391, Note_on_c, 9, 51, 43
1, 40391, Note_on_c, 9, 62, 84
1, 40392, Note_on_c, 9, 62, 0
1, 40392, Note_on_c, 9, 51, 0
1, 40392, Note_on_c, 3, 73, 0
1, 40392, Note_on_c, 2, 57, 67
1, 40392, Note_on_c, 2, 63, 67
1, 40392, Note_on_c, 2, 68, 58
1, 40393, Note_on_c, 2, 61, 65
1, 40397, Note_on_c, 0, 63, 0
1, 40403, Note_on_c, 0, 61, 0
1, 40410, Note_on_c, 6, 68, 0
1, 40411, Note_on_c, 7, 68, 0
1, 40411, Note_on_c, 0, 68, 0
1, 40411, Note_on_c, 6, 57, 0
1, 40413, Note_on_c, 6, 65, 0
1, 40414, Note_on_c, 6, 68, 57
1, 40415, Note_on_c, 7, 68, 75
1, 40415, Note_on_c, 9, 75, 79
1, 40416, Note_on_c, 9, 75, 0
1, 40416, Note_on_c, 4, 73, 0
1, 40416, Note_on_c, 3, 70, 95
1, 40416, Note_on_c, 4, 70, 75
1, 40416, Note_on_c, 6, 57, 55
1, 40416, Note_on_c, 9, 51, 83
1, 40416, Note_on_c, 9, 40, 101
1, 40417, Note_on_c, 9, 40, 0
1, 40417, Note_on_c, 9, 51, 0
1, 40417, Note_on_c, 6, 65, 56
1, 40417, Note_on_c, 9, 62, 71
1, 40418, Note_on_c, 9, 62, 0
1, 40419, Note_on_c, 0, 57, 0
1, 40428, Note_on_c, 2, 63, 0
1, 40428, Note_on_c, 2, 57, 0
1, 40430, Note_on_c, 2, 61, 0
1, 40430, Note_on_c, 2, 68, 0
1, 40432, Note_on_c, 6, 68, 0
1, 40434, Note_on_c, 6, 65, 0
1, 40436, Note_on_c, 6, 57, 0
1, 40436, Note_on_c, 7, 68, 0
1, 40439, Note_on_c, 0, 61, 56
1, 40439, Note_on_c, 0, 57, 68
1, 40439, Note_on_c, 0, 68, 61
1, 40439, Note_on_c, 1, 42, 78
1, 40439, Note_on_c, 9, 44, 43
1, 40439, Note_on_c, 11, 42, 74
1, 40440, Note_on_c, 9, 44, 0
1, 40440, Note_on_c, 2, 61, 73
1, 40440, Note_on_c, 2, 63, 71
1, 40440, Note_on_c, 2, 57, 72
1, 40440, Note_on_c, 2, 68, 69
1, 40441, Note_on_c, 0, 63, 44
1, 40442, Note_on_c, 6, 57, 62
1, 40442, Note_on_c, 6, 65, 64
1, 40442, Note_on_c, 7, 68, 75
1, 40443, Note_on_c, 6, 68, 68
1, 40446, Note_on_c, 2, 63, 0
1, 40448, Note_on_c, 2, 68, 0
1, 40448, Note_on_c, 2, 57, 0
1, 40448, Note_on_c, 2, 61, 0
1, 40450, Note_on_c, 6, 65, 0
1, 40455, Note_on_c, 7, 68, 0
1, 40457, Note_on_c, 6, 68, 0
1, 40458, Note_on_c, 6, 57, 0
1, 40461, Note_on_c, 2, 68, 95
1, 40461, Note_on_c, 2, 63, 64
1, 40461, Note_on_c, 9, 69, 45
1, 40462, Note_on_c, 9, 69, 0
1, 40462, Note_on_c, 2, 59, 65
1, 40463, Note_on_c, 1, 47, 87
1, 40463, Note_on_c, 11, 47, 83
1, 40464, Note_on_c, 4, 70, 0
1, 40464, Note_on_c, 3, 70, 0
1, 40464, Note_on_c, 3, 65, 70
1, 40464, Note_on_c, 4, 65, 50
1, 40464, Note_on_c, 9, 51, 51
1, 40465, Note_on_c, 9, 51, 0
1, 40465, Note_on_c, 11, 42, 0
1, 40465, Note_on_c, 1, 42, 0
1, 40466, Note_on_c, 0, 57, 0
1, 40473, Note_on_c, 2, 63, 0
1, 40481, Note_on_c, 2, 68, 0
1, 40484, Note_on_c, 0, 63, 0
1, 40484, Note_on_c, 2, 59, 0
1, 40485, Note_on_c, 0, 61, 0
1, 40486, Note_on_c, 2, 68, 90
1, 40486, Note_on_c, 2, 63, 61
1, 40486, Note_on_c, 9, 62, 63
1, 40486, Note_on_c, 9, 69, 30
1, 40487, Note_on_c, 9, 69, 0
1, 40487, Note_on_c, 9, 62, 0
1, 40487, Note_on_c, 0, 57, 57
1, 40487, Note_on_c, 1, 42, 67
1, 40487, Note_on_c, 9, 51, 49
1, 40487, Note_on_c, 11, 42, 63
1, 40488, Note_on_c, 9, 51, 0
1, 40488, Note_on_c, 0, 68, 0
1, 40488, Note_on_c, 4, 65, 0
1, 40488, Note_on_c, 3, 65, 0
1, 40488, Note_on_c, 3, 68, 68
1, 40488, Note_on_c, 4, 68, 48
1, 40489, Note_on_c, 9, 36, 113
1, 40490, Note_on_c, 9, 36, 0
1, 40493, Note_on_c, 1, 47, 0
1, 40493, Note_on_c, 11, 47, 0
1, 40494, Note_on_c, 2, 68, 0
1, 40498, Note_on_c, 2, 63, 0
1, 40510, Note_on_c, 2, 61, 71
1, 40510, Note_on_c, 2, 63, 74
1, 40510, Note_on_c, 2, 68, 59
1, 40510, Note_on_c, 2, 57, 67
1, 40511, Note_on_c, 0, 66, 79
1, 40511, Note_on_c, 0, 61, 68
1, 40511, Note_on_c, 0, 63, 71
1, 40511, Note_on_c, 1, 45, 81
1, 40511, Note_on_c, 9, 36, 61
1, 40511, Note_on_c, 11, 45, 77
1, 40512, Note_on_c, 9, 36, 0
1, 40512, Note_on_c, 3, 68, 0
1, 40512, Note_on_c, 4, 68, 0
1, 40512, Note_on_c, 3, 64, 75
1, 40512, Note_on_c, 4, 64, 55
1, 40513, Note_on_c, 9, 51, 78
1, 40513, Note_on_c, 9, 62, 74
1, 40514, Note_on_c, 9, 62, 0
1, 40514, Note_on_c, 9, 51, 0
1, 40514, Note_on_c, 11, 42, 0
1, 40514, Note_on_c, 1, 42, 0
1, 40524, Note_on_c, 0, 63, 0
1, 40527, Note_on_c, 0, 61, 0
1, 40528, Note_on_c, 0, 66, 0
1, 40534, Note_on_c, 0, 57, 0
1, 40535, Note_on_c, 1, 40, 69
1, 40535, Note_on_c, 6, 69, 60
1, 40535, Note_on_c, 9, 44, 47
1, 40535, Note_on_c, 11, 40, 65
1, 40536, Note_on_c, 9, 44, 0
1, 40536, Note_on_c, 4, 64, 0
1, 40536, Note_on_c, 3, 64, 0
1, 40536, Note_on_c, 3, 63, 73
1, 40536, Note_on_c, 4, 63, 53
1, 40536, Note_on_c, 6, 61, 49
1, 40536, Note_on_c, 6, 65, 53
1, 40537, Note_on_c, 1, 45, 0
1, 40537, Note_on_c, 11, 45, 0
1, 40538, Note_on_c, 7, 69, 82
1, 40550, Note_on_c, 6, 65, 0
1, 40550, Note_on_c, 6, 61, 0
1, 40551, Note_on_c, 7, 69, 0
1, 40551, Note_on_c, 6, 69, 0
1, 40557, Note_on_c, 2, 57, 0
1, 40557, Note_on_c, 2, 61, 0
1, 40557, Note_on_c, 2, 68, 0
1, 40558, Note_on_c, 2, 63, 0
1, 40558, Note_on_c, 2, 68, 83
1, 40558, Note_on_c, 2, 57, 73
1, 40558, Note_on_c, 2, 61, 114
1, 40559, Note_on_c, 9, 69, 41
1, 40559, Note_on_c, 9, 51, 62
1, 40559, Note_on_c, 9, 62, 87
1, 40560, Note_on_c, 9, 62, 0
1, 40560, Note_on_c, 9, 51, 0
1, 40560, Note_on_c, 4, 63, 0
1, 40560, Note_on_c, 3, 63, 0
1, 40560, Note_on_c, 9, 69, 0
1, 40560, Note_on_c, 0, 66, 68
1, 40560, Note_on_c, 1, 45, 76
1, 40560, Note_on_c, 2, 63, 117
1, 40560, Note_on_c, 3, 61, 71
1, 40560, Note_on_c, 4, 61, 51
1, 40560, Note_on_c, 9, 36, 114
1, 40560, Note_on_c, 11, 45, 72
1, 40561, Note_on_c, 9, 36, 0
1, 40561, Note_on_c, 0, 63, 65
1, 40561, Note_on_c, 0, 57, 67
1, 40561, Note_on_c, 0, 61, 71
1, 40563, Note_on_c, 1, 40, 0
1, 40563, Note_on_c, 11, 40, 0
1, 40569, Note_on_c, 2, 61, 0
1, 40570, Note_on_c, 2, 63, 0
1, 40570, Note_on_c, 2, 57, 0
1, 40572, Note_on_c, 2, 68, 0
1, 40582, Note_on_c, 2, 61, 67
1, 40582, Note_on_c, 2, 63, 69
1, 40583, Note_on_c, 9, 69, 30
1, 40583, Note_on_c, 9, 51, 42
1, 40584, Note_on_c, 9, 51, 0
1, 40584, Note_on_c, 9, 69, 0
1, 40584, Note_on_c, 2, 68, 60
1, 40584, Note_on_c, 2, 57, 74
1, 40602, Note_on_c, 0, 66, 0
1, 40602, Note_on_c, 0, 63, 0
1, 40604, Note_on_c, 7, 69, 79
1, 40605, Note_on_c, 6, 69, 64
1, 40605, Note_on_c, 6, 61, 60
1, 40605, Note_on_c, 6, 65, 56
1, 40607, Note_on_c, 9, 75, 83
1, 40607, Note_on_c, 9, 51, 81
1, 40607, Note_on_c, 9, 40, 107
1, 40607, Note_on_c, 9, 62, 80
1, 40608, Note_on_c, 9, 62, 0
1, 40608, Note_on_c, 9, 40, 0
1, 40608, Note_on_c, 0, 61, 0
1, 40608, Note_on_c, 9, 51, 0
1, 40608, Note_on_c, 10, 63, 0
1, 40608, Note_on_c, 9, 75, 0
1, 40608, Note_on_c, 10, 68, 0
1, 40608, Note_on_c, 10, 66, 64
1, 40617, Note_on_c, 2, 61, 0
1, 40620, Note_on_c, 2, 57, 0
1, 40620, Note_on_c, 2, 63, 0
1, 40621, Note_on_c, 2, 68, 0
1, 40630, Note_on_c, 1, 45, 0
1, 40630, Note_on_c, 11, 45, 0
1, 40630, Note_on_c, 2, 57, 75
1, 40630, Note_on_c, 2, 68, 71
1, 40631, Note_on_c, 1, 33, 86
1, 40631, Note_on_c, 9, 44, 45
1, 40631, Note_on_c, 11, 33, 82
1, 40632, Note_on_c, 9, 44, 0
1, 40632, Note_on_c, 2, 63, 72
1, 40632, Note_on_c, 2, 61, 69
1, 40638, Note_on_c, 2, 57, 0
1, 40640, Note_on_c, 2, 63, 0
1, 40641, Note_on_c, 2, 61, 0
1, 40641, Note_on_c, 2, 68, 0
1, 40653, Note_on_c, 2, 68, 87
1, 40654, Note_on_c, 2, 63, 63
1, 40655, Note_on_c, 1, 30, 70
1, 40655, Note_on_c, 9, 69, 43
1, 40655, Note_on_c, 11, 30, 66
1, 40656, Note_on_c, 9, 69, 0
1, 40656, Note_on_c, 2, 59, 63
1, 40657, Note_on_c, 0, 63, 64
1, 40657, Note_on_c, 0, 61, 64
1, 40657, Note_on_c, 0, 66, 60
1, 40657, Note_on_c, 9, 51, 76
1, 40658, Note_on_c, 9, 51, 0
1, 40658, Note_on_c, 1, 33, 0
1, 40658, Note_on_c, 11, 33, 0
1, 40666, Note_on_c, 0, 57, 0
1, 40668, Note_on_c, 2, 59, 0
1, 40670, Note_on_c, 2, 63, 0
1, 40673, Note_on_c, 2, 68, 0
1, 40676, Note_on_c, 6, 65, 0
1, 40676, Note_on_c, 0, 66, 0
1, 40677, Note_on_c, 0, 63, 0
1, 40677, Note_on_c, 2, 68, 90
1, 40678, Note_on_c, 11, 30, 0
1, 40678, Note_on_c, 0, 61, 0
1, 40678, Note_on_c, 1, 30, 0
1, 40678, Note_on_c, 2, 63, 69
1, 40679, Note_on_c, 1, 31, 86
1, 40679, Note_on_c, 9, 51, 48
1, 40679, Note_on_c, 11, 31, 82
1, 40680, Note_on_c, 9, 51, 0
1, 40681, Note_on_c, 0, 57, 54
1, 40682, Note_on_c, 9, 69, 28
1, 40683, Note_on_c, 9, 69, 0
1, 40683, Note_on_c, 2, 68, 0
1, 40686, Note_on_c, 2, 63, 0
1, 40686, Note_on_c, 6, 69, 0
1, 40688, Note_on_c, 7, 69, 0
1, 40692, Note_on_c, 0, 57, 0
1, 40699, Note_on_c, 6, 61, 0
1, 40702, Note_on_c, 0, 68, 59
1, 40702, Note_on_c, 0, 70, 57
1, 40702, Note_on_c, 2, 65, 72
1, 40702, Note_on_c, 2, 61, 83
1, 40702, Note_on_c, 2, 58, 79
1, 40703, Note_on_c, 0, 61, 63
1, 40703, Note_on_c, 0, 56, 80
1, 40703, Note_on_c, 9, 36, 110
1, 40703, Note_on_c, 9, 51, 87
1, 40704, Note_on_c, 9, 36, 0
1, 40704, Note_on_c, 3, 61, 0
1, 40704, Note_on_c, 10, 57, 0
1, 40704, Note_on_c, 10, 66, 0
1, 40704, Note_on_c, 0, 65, 60
1, 40704, Note_on_c, 0, 58, 59
1, 40704, Note_on_c, 1, 37, 87
1, 40704, Note_on_c, 2, 56, 59
1, 40704, Note_on_c, 10, 56, 61
1, 40704, Note_on_c, 10, 58, 60
1, 40704, Note_on_c, 10, 65, 60
1, 40704, Note_on_c, 11, 37, 83
1, 40705, Note_on_c, 9, 51, 0
1, 40710, Note_on_c, 1, 31, 0
1, 40710, Note_on_c, 11, 31, 0
1, 40727, Note_on_c, 9, 44, 44
1, 40728, Note_on_c, 9, 44, 0
1, 40734, Note_on_c, 4, 61, 0
1, 40739, Note_on_c, 0, 56, 0
1, 40741, Note_on_c, 0, 65, 0
1, 40742, Note_on_c, 0, 58, 0
1, 40750, Note_on_c, 2, 56, 0
1, 40750, Note_on_c, 2, 65, 0
1, 40750, Note_on_c, 2, 61, 0
1, 40750, Note_on_c, 2, 58, 0
1, 40750, Note_on_c, 9, 69, 33
1, 40751, Note_on_c, 9, 69, 0
1, 40751, Note_on_c, 9, 51, 40
1, 40752, Note_on_c, 9, 51, 0
1, 40752, Note_on_c, 0, 61, 0
1, 40752, Note_on_c, 2, 61, 100
1, 40752, Note_on_c, 2, 56, 86
1, 40752, Note_on_c, 2, 65, 83
1, 40752, Note_on_c, 2, 58, 104
1, 40753, Note_on_c, 0, 58, 59
1, 40753, Note_on_c, 0, 65, 59
1, 40753, Note_on_c, 0, 56, 52
1, 40753, Note_on_c, 0, 61, 63
1, 40754, Note_on_c, 0, 68, 0
1, 40754, Note_on_c, 0, 70, 0
1, 40760, Note_on_c, 2, 61, 0
1, 40762, Note_on_c, 2, 56, 0
1, 40762, Note_on_c, 2, 58, 0
1, 40765, Note_on_c, 2, 65, 0
1, 40774, Note_on_c, 9, 69, 21
1, 40775, Note_on_c, 9, 69, 0
1, 40775, Note_on_c, 9, 51, 44
1, 40776, Note_on_c, 9, 51, 0
1, 40776, Note_on_c, 0, 58, 0
1, 40776, Note_on_c, 0, 56, 0
1, 40776, Note_on_c, 2, 58, 64
1, 40776, Note_on_c, 2, 56, 63
1, 40776, Note_on_c, 2, 65, 74
1, 40776, Note_on_c, 2, 61, 74
1, 40777, Note_on_c, 9, 62, 69
1, 40778, Note_on_c, 9, 62, 0
1, 40778, Note_on_c, 0, 61, 0
1, 40783, Note_on_c, 0, 65, 0
1, 40799, Note_on_c, 9, 40, 101
1, 40799, Note_on_c, 9, 51, 76
1, 40799, Note_on_c, 9, 75, 79
1, 40800, Note_on_c, 9, 75, 0
1, 40800, Note_on_c, 9, 51, 0
1, 40800, Note_on_c, 9, 40, 0
1, 40802, Note_on_c, 11, 37, 0
1, 40802, Note_on_c, 1, 37, 0
1, 40802, Note_on_c, 9, 62, 66
1, 40803, Note_on_c, 9, 62, 0
1, 40812, Note_on_c, 2, 65, 0
1, 40812, Note_on_c, 2, 58, 0
1, 40812, Note_on_c, 2, 56, 0
1, 40812, Note_on_c, 2, 61, 0
1, 40822, Note_on_c, 2, 65, 70
1, 40823, Note_on_c, 0, 65, 70
1, 40823, Note_on_c, 0, 58, 70
1, 40823, Note_on_c, 9, 44, 40
1, 40824, Note_on_c, 9, 44, 0
1, 40824, Note_on_c, 0, 56, 58
1, 40824, Note_on_c, 2, 56, 67
1, 40824, Note_on_c, 2, 58, 67
1, 40824, Note_on_c, 2, 61, 71
1, 40829, Note_on_c, 2, 61, 0
1, 40830, Note_on_c, 2, 65, 0
1, 40830, Note_on_c, 2, 58, 0
1, 40830, Note_on_c, 2, 56, 0
1, 40845, Note_on_c, 2, 65, 87
1, 40846, Note_on_c, 0, 61, 60
1, 40846, Note_on_c, 2, 61, 60
1, 40846, Note_on_c, 2, 58, 47
1, 40847, Note_on_c, 0, 56, 0
1, 40847, Note_on_c, 9, 51, 42
1, 40847, Note_on_c, 9, 69, 33
1, 40848, Note_on_c, 9, 69, 0
1, 40848, Note_on_c, 9, 51, 0
1, 40850, Note_on_c, 0, 58, 0
1, 40856, Note_on_c, 2, 61, 0
1, 40859, Note_on_c, 0, 65, 0
1, 40865, Note_on_c, 2, 65, 0
1, 40866, Note_on_c, 2, 58, 0
1, 40870, Note_on_c, 0, 61, 0
1, 40870, Note_on_c, 0, 56, 8
1, 40870, Note_on_c, 2, 61, 61
1, 40870, Note_on_c, 2, 65, 81
1, 40871, Note_on_c, 1, 32, 70
1, 40871, Note_on_c, 9, 62, 62
1, 40871, Note_on_c, 9, 51, 40
1, 40871, Note_on_c, 9, 69, 25
1, 40871, Note_on_c, 11, 32, 66
1, 40872, Note_on_c, 9, 69, 0
1, 40872, Note_on_c, 9, 51, 0
1, 40872, Note_on_c, 9, 62, 0
1, 40872, Note_on_c, 9, 36, 104
1, 40873, Note_on_c, 9, 36, 0
1, 40874, Note_on_c, 0, 58, 57
1, 40878, Note_on_c, 2, 65, 0
1, 40878, Note_on_c, 2, 61, 0
1, 40886, Note_on_c, 0, 58, 0
1, 40891, Note_on_c, 0, 56, 0
1, 40894, Note_on_c, 2, 65, 64
1, 40894, Note_on_c, 2, 61, 93
1, 40894, Note_on_c, 2, 56, 60
1, 40894, Note_on_c, 2, 58, 87
1, 40895, Note_on_c, 0, 65, 79
1, 40895, Note_on_c, 1, 37, 78
1, 40895, Note_on_c, 9, 51, 87
1, 40895, Note_on_c, 9, 36, 68
1, 40895, Note_on_c, 11, 37, 74
1, 40896, Note_on_c, 9, 36, 0
1, 40896, Note_on_c, 9, 51, 0
1, 40896, Note_on_c, 0, 58, 70
1, 40897, Note_on_c, 0, 56, 55
1, 40897, Note_on_c, 9, 62, 62
1, 40898, Note_on_c, 9, 62, 0
1, 40899, Note_on_c, 11, 32, 0
1, 40899, Note_on_c, 1, 32, 0
1, 40919, Note_on_c, 0, 61, 52
1, 40919, Note_on_c, 1, 32, 69
1, 40919, Note_on_c, 11, 32, 65
1, 40920, Note_on_c, 9, 44, 46
1, 40921, Note_on_c, 9, 44, 0
1, 40922, Note_on_c, 11, 37, 0
1, 40922, Note_on_c, 1, 37, 0
1, 40927, Note_on_c, 0, 58, 0
1, 40935, Note_on_c, 0, 65, 0
1, 40939, Note_on_c, 11, 32, 0
1, 40939, Note_on_c, 1, 32, 0
1, 40942, Note_on_c, 2, 56, 0
1, 40942, Note_on_c, 2, 61, 0
1, 40942, Note_on_c, 2, 58, 0
1, 40942, Note_on_c, 2, 65, 0
1, 40942, Note_on_c, 9, 69, 35
1, 40943, Note_on_c, 9, 69, 0
1, 40943, Note_on_c, 1, 37, 80
1, 40943, Note_on_c, 9, 36, 97
1, 40943, Note_on_c, 9, 51, 43
1, 40943, Note_on_c, 11, 37, 76
1, 40944, Note_on_c, 9, 51, 0
1, 40944, Note_on_c, 9, 36, 0
1, 40944, Note_on_c, 2, 58, 112
1, 40944, Note_on_c, 2, 65, 87
1, 40944, Note_on_c, 2, 61, 108
1, 40944, Note_on_c, 2, 56, 98
1, 40946, Note_on_c, 0, 61, 0
1, 40946, Note_on_c, 0, 58, 48
1, 40953, Note_on_c, 2, 61, 0
1, 40953, Note_on_c, 2, 58, 0
1, 40956, Note_on_c, 2, 65, 0
1, 40956, Note_on_c, 2, 56, 0
1, 40959, Note_on_c, 0, 56, 0
1, 40960, Note_on_c, 0, 58, 0
1, 40966, Note_on_c, 9, 62, 69
1, 40966, Note_on_c, 9, 69, 29
1, 40967, Note_on_c, 9, 69, 0
1, 40967, Note_on_c, 9, 62, 0
1, 40967, Note_on_c, 9, 51, 54
1, 40968, Note_on_c, 9, 51, 0
1, 40968, Note_on_c, 0, 65, 75
1, 40968, Note_on_c, 2, 61, 73
1, 40968, Note_on_c, 2, 58, 67
1, 40968, Note_on_c, 2, 65, 68
1, 40968, Note_on_c, 2, 56, 69
1, 40969, Note_on_c, 0, 56, 56
1, 40969, Note_on_c, 0, 58, 75
1, 40991, Note_on_c, 9, 51, 73
1, 40991, Note_on_c, 9, 40, 104
1, 40991, Note_on_c, 9, 62, 55
1, 40992, Note_on_c, 9, 62, 0
1, 40992, Note_on_c, 9, 40, 0
1, 40992, Note_on_c, 9, 51, 0
1, 40992, Note_on_c, 9, 75, 79
1, 40993, Note_on_c, 9, 75, 0
1, 40994, Note_on_c, 11, 37, 0
1, 40994, Note_on_c, 1, 37, 0
1, 40995, Note_on_c, 0, 65, 0
1, 40996, Note_on_c, 0, 58, 0
1, 40997, Note_on_c, 0, 56, 0
1, 41004, Note_on_c, 2, 65, 0
1, 41004, Note_on_c, 2, 61, 0
1, 41005, Note_on_c, 2, 58, 0
1, 41006, Note_on_c, 2, 56, 0
1, 41011, Note_on_c, 6, 61, 56
1, 41014, Note_on_c, 7, 70, 82
1, 41014, Note_on_c, 7, 61, 78
1, 41014, Note_on_c, 9, 62, 52
1, 41015, Note_on_c, 9, 62, 0
1, 41015, Note_on_c, 1, 37, 66
1, 41015, Note_on_c, 6, 65, 62
1, 41015, Note_on_c, 9, 44, 43
1, 41015, Note_on_c, 11, 37, 62
1, 41016, Note_on_c, 9, 44, 0
1, 41016, Note_on_c, 0, 65, 67
1, 41016, Note_on_c, 2, 58, 61
1, 41016, Note_on_c, 2, 61, 64
1, 41016, Note_on_c, 2, 65, 66
1, 41016, Note_on_c, 2, 56, 74
1, 41016, Note_on_c, 6, 70, 59
1, 41017, Note_on_c, 0, 58, 68
1, 41017, Note_on_c, 0, 56, 53
1, 41024, Note_on_c, 2, 56, 0
1, 41024, Note_on_c, 2, 61, 0
1, 41024, Note_on_c, 2, 58, 0
1, 41026, Note_on_c, 6, 70, 0
1, 41026, Note_on_c, 7, 61, 0
1, 41026, Note_on_c, 6, 61, 0
1, 41026, Note_on_c, 2, 65, 0
1, 41027, Note_on_c, 6, 65, 0
1, 41030, Note_on_c, 7, 70, 0
1, 41037, Note_on_c, 2, 65, 81
1, 41038, Note_on_c, 1, 37, 0
1, 41038, Note_on_c, 11, 37, 0
1, 41038, Note_on_c, 0, 61, 62
1, 41038, Note_on_c, 2, 61, 54
1, 41038, Note_on_c, 2, 58, 59
1, 41038, Note_on_c, 9, 62, 69
1, 41038, Note_on_c, 9, 69, 36
1, 41039, Note_on_c, 9, 69, 0
1, 41039, Note_on_c, 9, 62, 0
1, 41039, Note_on_c, 1, 41, 78
1, 41039, Note_on_c, 9, 51, 54
1, 41039, Note_on_c, 11, 41, 74
1, 41040, Note_on_c, 9, 51, 0
1, 41044, Note_on_c, 0, 58, 0
1, 41050, Note_on_c, 2, 61, 0
1, 41056, Note_on_c, 0, 65, 0
1, 41058, Note_on_c, 2, 65, 0
1, 41062, Note_on_c, 0, 61, 0
1, 41062, Note_on_c, 2, 58, 0
1, 41062, Note_on_c, 2, 65, 81
1, 41062, Note_on_c, 2, 61, 77
1, 41062, Note_on_c, 9, 69, 23
1, 41063, Note_on_c, 9, 69, 0
1, 41063, Note_on_c, 1, 42, 88
1, 41063, Note_on_c, 9, 51, 42
1, 41063, Note_on_c, 11, 42, 84
1, 41064, Note_on_c, 9, 51, 0
1, 41065, Note_on_c, 1, 41, 0
1, 41065, Note_on_c, 11, 41, 0
1, 41065, Note_on_c, 0, 58, 60
1, 41070, Note_on_c, 2, 65, 0
1, 41070, Note_on_c, 2, 61, 0
1, 41074, Note_on_c, 0, 58, 0
1, 41081, Note_on_c, 0, 56, 0
1, 41085, Note_on_c, 1, 42, 0
1, 41085, Note_on_c, 11, 42, 0
1, 41086, Note_on_c, 2, 53, 65
1, 41086, Note_on_c, 2, 59, 83
1, 41086, Note_on_c, 2, 63, 87
1, 41086, Note_on_c, 2, 56, 61
1, 41087, Note_on_c, 1, 43, 88
1, 41087, Note_on_c, 9, 51, 83
1, 41087, Note_on_c, 11, 43, 84
1, 41088, Note_on_c, 9, 51, 0
1, 41088, Note_on_c, 10, 61, 0
1, 41088, Note_on_c, 10, 58, 0
1, 41088, Note_on_c, 0, 61, 53
1, 41088, Note_on_c, 9, 36, 114
1, 41088, Note_on_c, 10, 59, 63
1, 41088, Note_on_c, 10, 63, 60
1, 41089, Note_on_c, 9, 36, 0
1, 41089, Note_on_c, 0, 65, 48
1, 41089, Note_on_c, 0, 56, 48
1, 41090, Note_on_c, 0, 59, 65
1, 41104, Note_on_c, 0, 61, 0
1, 41111, Note_on_c, 0, 65, 0
1, 41111, Note_on_c, 9, 44, 49
1, 41112, Note_on_c, 9, 44, 0
1, 41114, Note_on_c, 0, 59, 0
1, 41118, Note_on_c, 0, 56, 0
1, 41134, Note_on_c, 2, 53, 0
1, 41134, Note_on_c, 2, 56, 0
1, 41134, Note_on_c, 2, 63, 0
1, 41134, Note_on_c, 2, 59, 0
1, 41134, Note_on_c, 9, 69, 33
1, 41135, Note_on_c, 9, 69, 0
1, 41135, Note_on_c, 9, 51, 42
1, 41136, Note_on_c, 9, 51, 0
1, 41136, Note_on_c, 2, 56, 43
1, 41136, Note_on_c, 2, 59, 83
1, 41136, Note_on_c, 2, 63, 74
1, 41136, Note_on_c, 2, 53, 48
1, 41137, Note_on_c, 0, 65, 65
1, 41138, Note_on_c, 0, 56, 58
1, 41138, Note_on_c, 0, 59, 87
1, 41138, Note_on_c, 0, 61, 68
1, 41146, Note_on_c, 2, 59, 0
1, 41148, Note_on_c, 2, 56, 0
1, 41149, Note_on_c, 2, 63, 0
1, 41152, Note_on_c, 2, 53, 0
1, 41157, Note_on_c, 6, 70, 60
1, 41158, Note_on_c, 6, 59, 62
1, 41158, Note_on_c, 7, 70, 58
1, 41159, Note_on_c, 9, 62, 71
1, 41159, Note_on_c, 9, 51, 41
1, 41159, Note_on_c, 9, 69, 27
1, 41160, Note_on_c, 9, 69, 0
1, 41160, Note_on_c, 9, 51, 0
1, 41160, Note_on_c, 9, 62, 0
1, 41160, Note_on_c, 2, 63, 68
1, 41160, Note_on_c, 2, 56, 63
1, 41160, Note_on_c, 2, 59, 74
1, 41160, Note_on_c, 2, 53, 68
1, 41176, Note_on_c, 0, 59, 0
1, 41177, Note_on_c, 0, 61, 0
1, 41178, Note_on_c, 7, 70, 0
1, 41178, Note_on_c, 6, 59, 0
1, 41179, Note_on_c, 6, 70, 0
1, 41182, Note_on_c, 6, 59, 58
1, 41183, Note_on_c, 6, 70, 61
1, 41183, Note_on_c, 9, 40, 107
1, 41183, Note_on_c, 9, 75, 76
1, 41184, Note_on_c, 9, 75, 0
1, 41184, Note_on_c, 9, 40, 0
1, 41184, Note_on_c, 9, 51, 87
1, 41185, Note_on_c, 9, 51, 0
1, 41185, Note_on_c, 0, 65, 0
1, 41185, Note_on_c, 9, 62, 74
1, 41186, Note_on_c, 9, 62, 0
1, 41186, Note_on_c, 6, 65, 51
1, 41186, Note_on_c, 7, 70, 82
1, 41190, Note_on_c, 11, 43, 0
1, 41190, Note_on_c, 1, 43, 0
1, 41190, Note_on_c, 0, 56, 0
1, 41192, Note_on_c, 2, 53, 0
1, 41194, Note_on_c, 2, 56, 0
1, 41196, Note_on_c, 2, 59, 0
1, 41196, Note_on_c, 2, 63, 0
1, 41197, Note_on_c, 6, 59, 0
1, 41203, Note_on_c, 6, 70, 0
1, 41205, Note_on_c, 6, 65, 0
1, 41206, Note_on_c, 7, 70, 0
1, 41206, Note_on_c, 2, 63, 72
1, 41206, Note_on_c, 2, 59, 74
1, 41206, Note_on_c, 2, 53, 70
1, 41208, Note_on_c, 2, 56, 58
1, 41209, Note_on_c, 0, 59, 84
1, 41209, Note_on_c, 0, 65, 73
1, 41209, Note_on_c, 9, 44, 57
1, 41210, Note_on_c, 9, 44, 0
1, 41210, Note_on_c, 0, 56, 57
1, 41210, Note_on_c, 6, 59, 62
1, 41210, Note_on_c, 6, 70, 70
1, 41210, Note_on_c, 7, 70, 73
1, 41213, Note_on_c, 2, 59, 0
1, 41213, Note_on_c, 6, 65, 50
1, 41214, Note_on_c, 2, 56, 0
1, 41214, Note_on_c, 2, 63, 0
1, 41216, Note_on_c, 2, 53, 0
1, 41221, Note_on_c, 6, 59, 0
1, 41226, Note_on_c, 7, 70, 0
1, 41226, Note_on_c, 6, 65, 0
1, 41227, Note_on_c, 6, 70, 0
1, 41229, Note_on_c, 2, 56, 58
1, 41230, Note_on_c, 0, 59, 0
1, 41230, Note_on_c, 2, 59, 58
1, 41230, Note_on_c, 2, 63, 87
1, 41231, Note_on_c, 0, 56, 0
1, 41231, Note_on_c, 9, 69, 35
1, 41231, Note_on_c, 9, 51, 44
1, 41232, Note_on_c, 9, 51, 0
1, 41232, Note_on_c, 9, 69, 0
1, 41232, Note_on_c, 0, 61, 47
1, 41234, Note_on_c, 0, 65, 0
1, 41238, Note_on_c, 2, 59, 0
1, 41247, Note_on_c, 2, 63, 0
1, 41253, Note_on_c, 2, 56, 0
1, 41254, Note_on_c, 2, 59, 66
1, 41254, Note_on_c, 2, 63, 87
1, 41254, Note_on_c, 9, 69, 25
1, 41255, Note_on_c, 9, 69, 0
1, 41255, Note_on_c, 1, 38, 78
1, 41255, Note_on_c, 9, 51, 46
1, 41255, Note_on_c, 9, 62, 80
1, 41255, Note_on_c, 9, 36, 105
1, 41255, Note_on_c, 11, 38, 74
1, 41256, Note_on_c, 9, 36, 0
1, 41256, Note_on_c, 9, 62, 0
1, 41256, Note_on_c, 9, 51, 0
1, 41256, Note_on_c, 0, 56, 48
1, 41261, Note_on_c, 0, 61, 0
1, 41262, Note_on_c, 2, 63, 0
1, 41262, Note_on_c, 2, 59, 0
1, 41278, Note_on_c, 2, 63, 76
1, 41278, Note_on_c, 2, 59, 77
1, 41278, Note_on_c, 2, 56, 53
1, 41278, Note_on_c, 2, 53, 62
1, 41278, Note_on_c, 9, 36, 67
1, 41279, Note_on_c, 9, 36, 0
1, 41279, Note_on_c, 1, 38, 0
1, 41279, Note_on_c, 11, 38, 0
1, 41279, Note_on_c, 0, 65, 75
1, 41279, Note_on_c, 1, 43, 78
1, 41279, Note_on_c, 9, 62, 55
1, 41279, Note_on_c, 11, 43, 74
1, 41280, Note_on_c, 9, 62, 0
1, 41280, Note_on_c, 0, 59, 84
1, 41280, Note_on_c, 9, 51, 70
1, 41281, Note_on_c, 9, 51, 0
1, 41302, Note_on_c, 0, 61, 55
1, 41303, Note_on_c, 1, 38, 73
1, 41303, Note_on_c, 9, 44, 52
1, 41303, Note_on_c, 11, 38, 69
1, 41304, Note_on_c, 9, 44, 0
1, 41306, Note_on_c, 0, 59, 0
1, 41306, Note_on_c, 1, 43, 0
1, 41306, Note_on_c, 11, 43, 0
1, 41310, Note_on_c, 0, 65, 0
1, 41324, Note_on_c, 2, 53, 0
1, 41324, Note_on_c, 2, 56, 0
1, 41324, Note_on_c, 2, 63, 0
1, 41324, Note_on_c, 2, 59, 0
1, 41326, Note_on_c, 11, 38, 0
1, 41326, Note_on_c, 1, 38, 0
1, 41326, Note_on_c, 0, 61, 0
1, 41326, Note_on_c, 2, 63, 111
1, 41326, Note_on_c, 2, 53, 72
1, 41326, Note_on_c, 9, 69, 45
1, 41327, Note_on_c, 9, 69, 0
1, 41327, Note_on_c, 1, 43, 78
1, 41327, Note_on_c, 9, 36, 107
1, 41327, Note_on_c, 9, 62, 76
1, 41327, Note_on_c, 9, 51, 46
1, 41327, Note_on_c, 11, 43, 74
1, 41328, Note_on_c, 9, 51, 0
1, 41328, Note_on_c, 9, 62, 0
1, 41328, Note_on_c, 9, 36, 0
1, 41328, Note_on_c, 2, 56, 73
1, 41328, Note_on_c, 2, 59, 98
1, 41338, Note_on_c, 2, 59, 0
1, 41338, Note_on_c, 2, 56, 0
1, 41338, Note_on_c, 2, 53, 0
1, 41338, Note_on_c, 2, 63, 0
1, 41340, Note_on_c, 0, 56, 0
1, 41350, Note_on_c, 2, 53, 63
1, 41350, Note_on_c, 2, 59, 74
1, 41350, Note_on_c, 2, 56, 61
1, 41350, Note_on_c, 2, 63, 63
1, 41350, Note_on_c, 9, 69, 26
1, 41351, Note_on_c, 9, 69, 0
1, 41351, Note_on_c, 9, 51, 37
1, 41352, Note_on_c, 9, 51, 0
1, 41352, Note_on_c, 0, 65, 70
1, 41353, Note_on_c, 0, 56, 52
1, 41353, Note_on_c, 0, 59, 70
1, 41374, Note_on_c, 0, 65, 0
1, 41375, Note_on_c, 9, 75, 82
1, 41375, Note_on_c, 9, 51, 91
1, 41375, Note_on_c, 9, 40, 110
1, 41376, Note_on_c, 9, 40, 0
1, 41376, Note_on_c, 9, 51, 0
1, 41376, Note_on_c, 9, 75, 0
1, 41377, Note_on_c, 0, 56, 0
1, 41377, Note_on_c, 0, 59, 0
1, 41377, Note_on_c, 9, 62, 84
1, 41378, Note_on_c, 9, 62, 0
1, 41385, Note_on_c, 2, 56, 0
1, 41386, Note_on_c, 2, 63, 0
1, 41386, Note_on_c, 2, 53, 0
1, 41388, Note_on_c, 2, 59, 0
1, 41398, Note_on_c, 2, 63, 70
1, 41398, Note_on_c, 2, 53, 67
1, 41398, Note_on_c, 2, 59, 81
1, 41398, Note_on_c, 2, 56, 61
1, 41398, Note_on_c, 6, 70, 59
1, 41398, Note_on_c, 6, 65, 59
1, 41399, Note_on_c, 1, 38, 78
1, 41399, Note_on_c, 9, 44, 52
1, 41399, Note_on_c, 11, 38, 74
1, 41400, Note_on_c, 9, 44, 0
1, 41401, Note_on_c, 0, 59, 75
1, 41401, Note_on_c, 0, 65, 65
1, 41401, Note_on_c, 0, 56, 58
1, 41401, Note_on_c, 6, 59, 59
1, 41401, Note_on_c, 7, 70, 75
1, 41401, Note_on_c, 7, 59, 74
1, 41402, Note_on_c, 1, 43, 0
1, 41402, Note_on_c, 11, 43, 0
1, 41405, Note_on_c, 2, 56, 0
1, 41406, Note_on_c, 2, 53, 0
1, 41406, Note_on_c, 2, 59, 0
1, 41408, Note_on_c, 2, 63, 0
1, 41412, Note_on_c, 7, 70, 0
1, 41413, Note_on_c, 7, 59, 0
1, 41414, Note_on_c, 6, 65, 0
1, 41415, Note_on_c, 6, 59, 0
1, 41419, Note_on_c, 6, 70, 0
1, 41421, Note_on_c, 0, 56, 0
1, 41421, Note_on_c, 1, 38, 0
1, 41421, Note_on_c, 11, 38, 0
1, 41422, Note_on_c, 2, 59, 64
1, 41422, Note_on_c, 2, 63, 104
1, 41422, Note_on_c, 2, 56, 49
1, 41422, Note_on_c, 9, 69, 39
1, 41423, Note_on_c, 9, 69, 0
1, 41423, Note_on_c, 9, 51, 48
1, 41424, Note_on_c, 9, 51, 0
1, 41424, Note_on_c, 0, 59, 0
1, 41424, Note_on_c, 0, 61, 64
1, 41424, Note_on_c, 1, 43, 70
1, 41424, Note_on_c, 11, 43, 66
1, 41430, Note_on_c, 0, 65, 0
1, 41432, Note_on_c, 2, 59, 0
1, 41442, Note_on_c, 2, 63, 0
1, 41446, Note_on_c, 0, 61, 0
1, 41446, Note_on_c, 2, 56, 0
1, 41446, Note_on_c, 2, 63, 85
1, 41446, Note_on_c, 9, 69, 25
1, 41447, Note_on_c, 9, 69, 0
1, 41447, Note_on_c, 9, 51, 48
1, 41448, Note_on_c, 9, 51, 0
1, 41448, Note_on_c, 0, 56, 52
1, 41448, Note_on_c, 2, 59, 76
1, 41449, Note_on_c, 1, 37, 69
1, 41449, Note_on_c, 11, 37, 65
1, 41453, Note_on_c, 11, 43, 0
1, 41453, Note_on_c, 1, 43, 0
1, 41454, Note_on_c, 2, 63, 0
1, 41456, Note_on_c, 2, 59, 0
1, 41466, Note_on_c, 0, 56, 0
1, 41470, Note_on_c, 2, 65, 63
1, 41470, Note_on_c, 2, 61, 90
1, 41470, Note_on_c, 2, 56, 95
1, 41470, Note_on_c, 2, 58, 90
1, 41471, Note_on_c, 0, 58, 61
1, 41471, Note_on_c, 0, 65, 68
1, 41471, Note_on_c, 9, 36, 113
1, 41472, Note_on_c, 9, 36, 0
1, 41472, Note_on_c, 10, 63, 0
1, 41472, Note_on_c, 10, 59, 0
1, 41472, Note_on_c, 9, 51, 73
1, 41472, Note_on_c, 10, 61, 54
1, 41472, Note_on_c, 10, 58, 59
1, 41473, Note_on_c, 9, 51, 0
1, 41473, Note_on_c, 0, 56, 50
1, 41473, Note_on_c, 0, 61, 59
1, 41473, Note_on_c, 1, 42, 90
1, 41473, Note_on_c, 11, 42, 86
1, 41478, Note_on_c, 11, 37, 0
1, 41478, Note_on_c, 1, 37, 0
1, 41490, Note_on_c, 0, 56, 0
1, 41490, Note_on_c, 0, 61, 0
1, 41491, Note_on_c, 0, 65, 0
1, 41495, Note_on_c, 0, 58, 0
1, 41496, Note_on_c, 9, 44, 42
1, 41497, Note_on_c, 9, 44, 0
1, 41518, Note_on_c, 2, 58, 0
1, 41518, Note_on_c, 2, 56, 0
1, 41518, Note_on_c, 2, 61, 0
1, 41518, Note_on_c, 2, 65, 0
1, 41518, Note_on_c, 9, 69, 35
1, 41519, Note_on_c, 9, 69, 0
1, 41519, Note_on_c, 9, 51, 42
1, 41520, Note_on_c, 9, 51, 0
1, 41520, Note_on_c, 2, 61, 104
1, 41520, Note_on_c, 2, 58, 100
1, 41520, Note_on_c, 2, 56, 108
1, 41520, Note_on_c, 2, 65, 77
1, 41521, Note_on_c, 0, 56, 60
1, 41521, Note_on_c, 0, 58, 68
1, 41521, Note_on_c, 0, 65, 71
1, 41522, Note_on_c, 0, 61, 68
1, 41529, Note_on_c, 2, 56, 0
1, 41529, Note_on_c, 2, 58, 0
1, 41529, Note_on_c, 2, 61, 0
1, 41530, Note_on_c, 2, 65, 0
1, 41542, Note_on_c, 11, 42, 0
1, 41542, Note_on_c, 1, 42, 0
1, 41542, Note_on_c, 2, 58, 60
1, 41542, Note_on_c, 2, 56, 63
1, 41542, Note_on_c, 2, 61, 68
1, 41542, Note_on_c, 2, 65, 61
1, 41543, Note_on_c, 9, 51, 42
1, 41543, Note_on_c, 9, 62, 80
1, 41544, Note_on_c, 9, 62, 0
1, 41544, Note_on_c, 9, 51, 0
1, 41544, Note_on_c, 9, 69, 24
1, 41545, Note_on_c, 9, 69, 0
1, 41560, Note_on_c, 0, 58, 0
1, 41565, Note_on_c, 0, 61, 0
1, 41565, Note_on_c, 0, 65, 0
1, 41567, Note_on_c, 0, 56, 0
1, 41567, Note_on_c, 9, 75, 76
1, 41567, Note_on_c, 9, 40, 104
1, 41568, Note_on_c, 9, 40, 0
1, 41568, Note_on_c, 9, 75, 0
1, 41568, Note_on_c, 9, 51, 81
1, 41569, Note_on_c, 9, 51, 0
1, 41569, Note_on_c, 9, 62, 74
1, 41570, Note_on_c, 9, 62, 0
1, 41575, Note_on_c, 2, 56, 0
1, 41576, Note_on_c, 2, 61, 0
1, 41578, Note_on_c, 2, 58, 0
1, 41578, Note_on_c, 2, 65, 0
1, 41590, Note_on_c, 2, 61, 71
1, 41590, Note_on_c, 2, 65, 70
1, 41590, Note_on_c, 2, 58, 62
1, 41590, Note_on_c, 2, 56, 68
1, 41591, Note_on_c, 9, 44, 43
1, 41592, Note_on_c, 9, 44, 0
1, 41593, Note_on_c, 0, 65, 70
1, 41593, Note_on_c, 0, 56, 59
1, 41593, Note_on_c, 0, 58, 68
1, 41593, Note_on_c, 7, 58, 73
1, 41597, Note_on_c, 2, 61, 0
1, 41598, Note_on_c, 2, 58, 0
1, 41599, Note_on_c, 2, 56, 0
1, 41599, Note_on_c, 2, 65, 0
1, 41607, Note_on_c, 7, 58, 0
1, 41614, Note_on_c, 0, 61, 54
1, 41614, Note_on_c, 2, 65, 93
1, 41614, Note_on_c, 9, 69, 45
1, 41615, Note_on_c, 9, 69, 0
1, 41615, Note_on_c, 0, 56, 0
1, 41615, Note_on_c, 9, 51, 50
1, 41616, Note_on_c, 9, 51, 0
1, 41616, Note_on_c, 2, 61, 31
1, 41617, Note_on_c, 2, 58, 48
1, 41619, Note_on_c, 0, 58, 0
1, 41625, Note_on_c, 2, 61, 0
1, 41627, Note_on_c, 0, 65, 0
1, 41630, Note_on_c, 2, 58, 0
1, 41634, Note_on_c, 2, 65, 0
1, 41638, Note_on_c, 0, 61, 0
1, 41638, Note_on_c, 0, 56, 47
1, 41638, Note_on_c, 2, 65, 77
1, 41638, Note_on_c, 9, 62, 69
1, 41638, Note_on_c, 9, 69, 34
1, 41639, Note_on_c, 9, 69, 0
1, 41639, Note_on_c, 9, 62, 0
1, 41639, Note_on_c, 1, 37, 82
1, 41639, Note_on_c, 9, 51, 43
1, 41639, Note_on_c, 11, 37, 78
1, 41640, Note_on_c, 9, 51, 0
1, 41640, Note_on_c, 2, 61, 67
1, 41641, Note_on_c, 9, 36, 110
1, 41642, Note_on_c, 9, 36, 0
1, 41646, Note_on_c, 2, 65, 0
1, 41648, Note_on_c, 2, 61, 0
1, 41660, Note_on_c, 0, 56, 0
1, 41662, Note_on_c, 0, 65, 71
1, 41662, Note_on_c, 2, 56, 60
1, 41662, Note_on_c, 2, 65, 63
1, 41662, Note_on_c, 2, 61, 77
1, 41662, Note_on_c, 2, 58, 79
1, 41663, Note_on_c, 0, 56, 57
1, 41663, Note_on_c, 0, 58, 75
1, 41663, Note_on_c, 1, 42, 76
1, 41663, Note_on_c, 9, 36, 64
1, 41663, Note_on_c, 11, 42, 72
1, 41664, Note_on_c, 9, 36, 0
1, 41664, Note_on_c, 11, 37, 0
1, 41664, Note_on_c, 1, 37, 0
1, 41664, Note_on_c, 9, 51, 85
1, 41665, Note_on_c, 9, 51, 0
1, 41665, Note_on_c, 9, 62, 76
1, 41666, Note_on_c, 9, 62, 0
1, 41686, Note_on_c, 0, 61, 55
1, 41687, Note_on_c, 1, 34, 74
1, 41687, Note_on_c, 9, 44, 42
1, 41687, Note_on_c, 11, 34, 70
1, 41688, Note_on_c, 9, 44, 0
1, 41690, Note_on_c, 0, 56, 0
1, 41691, Note_on_c, 0, 58, 0
1, 41692, Note_on_c, 0, 65, 0
1, 41694, Note_on_c, 11, 42, 0
1, 41694, Note_on_c, 1, 42, 0
1, 41707, Note_on_c, 0, 61, 0
1, 41709, Note_on_c, 2, 65, 0
1, 41709, Note_on_c, 2, 58, 0
1, 41709, Note_on_c, 2, 56, 0
1, 41709, Note_on_c, 2, 61, 0
1, 41710, Note_on_c, 0, 56, 30
1, 41710, Note_on_c, 2, 56, 98
1, 41710, Note_on_c, 2, 61, 104
1, 41710, Note_on_c, 2, 65, 81
1, 41710, Note_on_c, 2, 58, 95
1, 41710, Note_on_c, 9, 69, 43
1, 41711, Note_on_c, 9, 69, 0
1, 41712, Note_on_c, 1, 42, 79
1, 41712, Note_on_c, 9, 51, 54
1, 41712, Note_on_c, 11, 42, 75
1, 41713, Note_on_c, 9, 51, 0
1, 41713, Note_on_c, 11, 34, 0
1, 41713, Note_on_c, 1, 34, 0
1, 41713, Note_on_c, 9, 36, 113
1, 41714, Note_on_c, 9, 36, 0
1, 41719, Note_on_c, 2, 56, 0
1, 41721, Note_on_c, 2, 61, 0
1, 41721, Note_on_c, 2, 58, 0
1, 41723, Note_on_c, 2, 65, 0
1, 41732, Note_on_c, 0, 56, 0
1, 41734, Note_on_c, 2, 61, 68
1, 41734, Note_on_c, 2, 65, 69
1, 41734, Note_on_c, 2, 56, 64
1, 41734, Note_on_c, 2, 58, 65
1, 41734, Note_on_c, 9, 69, 32
1, 41735, Note_on_c, 9, 69, 0
1, 41735, Note_on_c, 9, 51, 49
1, 41736, Note_on_c, 9, 51, 0
1, 41736, Note_on_c, 0, 65, 61
1, 41736, Note_on_c, 0, 58, 79
1, 41737, Note_on_c, 0, 56, 52
1, 41737, Note_on_c, 9, 62, 66
1, 41738, Note_on_c, 9, 62, 0
1, 41760, Note_on_c, 9, 75, 76
1, 41761, Note_on_c, 9, 75, 0
1, 41761, Note_on_c, 9, 40, 105
1, 41761, Note_on_c, 9, 51, 73
1, 41762, Note_on_c, 9, 51, 0
1, 41762, Note_on_c, 9, 40, 0
1, 41762, Note_on_c, 9, 62, 59
1, 41763, Note_on_c, 9, 62, 0
1, 41766, Note_on_c, 0, 65, 0
1, 41767, Note_on_c, 0, 56, 0
1, 41767, Note_on_c, 0, 58, 0
1, 41769, Note_on_c, 2, 56, 0
1, 41770, Note_on_c, 2, 65, 0
1, 41770, Note_on_c, 2, 61, 0
1, 41770, Note_on_c, 2, 58, 0
1, 41778, Note_on_c, 1, 42, 0
1, 41778, Note_on_c, 11, 42, 0
1, 41782, Note_on_c, 2, 65, 72
1, 41782, Note_on_c, 2, 61, 72
1, 41782, Note_on_c, 2, 56, 71
1, 41782, Note_on_c, 2, 58, 64
1, 41782, Note_on_c, 6, 58, 64
1, 41783, Note_on_c, 0, 58, 63
1, 41783, Note_on_c, 6, 65, 59
1, 41783, Note_on_c, 6, 68, 61
1, 41783, Note_on_c, 9, 44, 45
1, 41784, Note_on_c, 9, 44, 0
1, 41784, Note_on_c, 0, 56, 61
1, 41784, Note_on_c, 0, 65, 67
1, 41785, Note_on_c, 1, 37, 81
1, 41785, Note_on_c, 7, 68, 74
1, 41785, Note_on_c, 11, 37, 77
1, 41786, Note_on_c, 9, 62, 59
1, 41787, Note_on_c, 9, 62, 0
1, 41791, Note_on_c, 2, 58, 0
1, 41792, Note_on_c, 2, 56, 0
1, 41792, Note_on_c, 2, 61, 0
1, 41793, Note_on_c, 2, 65, 0
1, 41794, Note_on_c, 6, 68, 0
1, 41798, Note_on_c, 6, 58, 0
1, 41800, Note_on_c, 7, 68, 0
1, 41800, Note_on_c, 6, 65, 0
1, 41806, Note_on_c, 2, 61, 58
1, 41806, Note_on_c, 2, 65, 90
1, 41806, Note_on_c, 9, 69, 35
1, 41807, Note_on_c, 9, 69, 0
1, 41807, Note_on_c, 9, 51, 51
1, 41808, Note_on_c, 9, 51, 0
1, 41809, Note_on_c, 0, 56, 0
1, 41809, Note_on_c, 0, 65, 0
1, 41809, Note_on_c, 1, 42, 78
1, 41809, Note_on_c, 11, 42, 74
1, 41810, Note_on_c, 11, 37, 0
1, 41810, Note_on_c, 0, 58, 0
1, 41810, Note_on_c, 1, 37, 0
1, 41810, Note_on_c, 9, 62, 76
1, 41811, Note_on_c, 9, 62, 0
1, 41816, Note_on_c, 2, 61, 0
1, 41824, Note_on_c, 2, 65, 0
1, 41830, Note_on_c, 0, 56, 52
1, 41830, Note_on_c, 2, 65, 77
1, 41830, Note_on_c, 2, 61, 61
1, 41831, Note_on_c, 9, 69, 25
1, 41831, Note_on_c, 9, 51, 43
1, 41832, Note_on_c, 9, 51, 0
1, 41832, Note_on_c, 9, 69, 0
1, 41833, Note_on_c, 1, 34, 70
1, 41833, Note_on_c, 11, 34, 66
1, 41834, Note_on_c, 11, 42, 0
1, 41834, Note_on_c, 1, 42, 0
1, 41838, Note_on_c, 2, 65, 0
1, 41838, Note_on_c, 2, 61, 0
1, 41845, Note_on_c, 0, 56, 0
1, 41854, Note_on_c, 0, 68, 68
1, 41854, Note_on_c, 0, 57, 66
1, 41854, Note_on_c, 2, 57, 74
1, 41854, Note_on_c, 2, 61, 70
1, 41854, Note_on_c, 2, 63, 71
1, 41854, Note_on_c, 2, 68, 64
1, 41855, Note_on_c, 9, 36, 110
1, 41855, Note_on_c, 9, 51, 87
1, 41856, Note_on_c, 9, 51, 0
1, 41856, Note_on_c, 10, 58, 0
1, 41856, Note_on_c, 9, 36, 0
1, 41856, Note_on_c, 10, 65, 0
1, 41856, Note_on_c, 10, 56, 0
1, 41856, Note_on_c, 10, 63, 60
1, 41856, Note_on_c, 10, 57, 60
1, 41856, Note_on_c, 10, 68, 63
1, 41857, Note_on_c, 0, 61, 9
1, 41857, Note_on_c, 0, 63, 35
1, 41857, Note_on_c, 1, 35, 99
1, 41857, Note_on_c, 11, 35, 95
1, 41861, Note_on_c, 11, 34, 0
1, 41861, Note_on_c, 1, 34, 0
1, 41872, Note_on_c, 0, 61, 0
1, 41878, Note_on_c, 0, 63, 0
1, 41879, Note_on_c, 9, 44, 42
1, 41880, Note_on_c, 9, 44, 0
1, 41880, Note_on_c, 0, 68, 0
1, 41889, Note_on_c, 0, 57, 0
1, 41899, Note_on_c, 2, 57, 0
1, 41899, Note_on_c, 2, 61, 0
1, 41899, Note_on_c, 2, 68, 0
1, 41899, Note_on_c, 2, 63, 0
1, 41902, Note_on_c, 2, 68, 93
1, 41902, Note_on_c, 2, 61, 108
1, 41902, Note_on_c, 2, 63, 117
1, 41902, Note_on_c, 2, 57, 74
1, 41903, Note_on_c, 9, 69, 34
1, 41903, Note_on_c, 9, 51, 55
1, 41904, Note_on_c, 9, 51, 0
1, 41904, Note_on_c, 9, 69, 0
1, 41904, Note_on_c, 0, 68, 69
1, 41905, Note_on_c, 0, 61, 66
1, 41905, Note_on_c, 0, 63, 62
1, 41905, Note_on_c, 0, 57, 68
1, 41910, Note_on_c, 2, 63, 0
1, 41911, Note_on_c, 2, 61, 0
1, 41912, Note_on_c, 2, 68, 0
1, 41914, Note_on_c, 2, 57, 0
1, 41921, Note_on_c, 11, 35, 0
1, 41921, Note_on_c, 1, 35, 0
1, 41924, Note_on_c, 6, 68, 57
1, 41925, Note_on_c, 6, 57, 57
1, 41925, Note_on_c, 6, 65, 57
1, 41925, Note_on_c, 7, 68, 65
1, 41926, Note_on_c, 0, 63, 0
1, 41927, Note_on_c, 9, 51, 54
1, 41927, Note_on_c, 9, 62, 88
1, 41928, Note_on_c, 9, 62, 0
1, 41928, Note_on_c, 9, 51, 0
1, 41928, Note_on_c, 2, 68, 58
1, 41928, Note_on_c, 2, 57, 67
1, 41928, Note_on_c, 2, 63, 67
1, 41928, Note_on_c, 9, 69, 27
1, 41929, Note_on_c, 9, 69, 0
1, 41929, Note_on_c, 2, 61, 65
1, 41934, Note_on_c, 0, 61, 0
1, 41944, Note_on_c, 0, 57, 0
1, 41944, Note_on_c, 0, 68, 0
1, 41946, Note_on_c, 6, 68, 0
1, 41947, Note_on_c, 6, 57, 0
1, 41947, Note_on_c, 7, 68, 0
1, 41949, Note_on_c, 6, 65, 0
1, 41950, Note_on_c, 6, 68, 57
1, 41951, Note_on_c, 7, 68, 75
1, 41951, Note_on_c, 9, 40, 104
1, 41951, Note_on_c, 9, 51, 94
1, 41952, Note_on_c, 9, 51, 0
1, 41952, Note_on_c, 9, 40, 0
1, 41952, Note_on_c, 6, 57, 55
1, 41952, Note_on_c, 9, 75, 79
1, 41953, Note_on_c, 9, 75, 0
1, 41953, Note_on_c, 6, 65, 56
1, 41953, Note_on_c, 9, 62, 74
1, 41954, Note_on_c, 9, 62, 0
1, 41964, Note_on_c, 2, 57, 0
1, 41964, Note_on_c, 2, 63, 0
1, 41966, Note_on_c, 2, 61, 0
1, 41966, Note_on_c, 2, 68, 0
1, 41968, Note_on_c, 6, 68, 0
1, 41970, Note_on_c, 6, 65, 0
1, 41972, Note_on_c, 7, 68, 0
1, 41972, Note_on_c, 6, 57, 0
1, 41975, Note_on_c, 1, 42, 75
1, 41975, Note_on_c, 9, 44, 43
1, 41975, Note_on_c, 11, 42, 71
1, 41976, Note_on_c, 9, 44, 0
1, 41976, Note_on_c, 0, 61, 73
1, 41976, Note_on_c, 0, 68, 66
1, 41976, Note_on_c, 0, 57, 55
1, 41976, Note_on_c, 2, 61, 73
1, 41976, Note_on_c, 2, 68, 69
1, 41976, Note_on_c, 2, 63, 71
1, 41976, Note_on_c, 2, 57, 72
1, 41977, Note_on_c, 0, 63, 81
1, 41978, Note_on_c, 6, 65, 64
1, 41978, Note_on_c, 6, 57, 62
1, 41978, Note_on_c, 7, 68, 75
1, 41979, Note_on_c, 6, 68, 68
1, 41982, Note_on_c, 2, 63, 0
1, 41984, Note_on_c, 2, 61, 0
1, 41984, Note_on_c, 2, 57, 0
1, 41984, Note_on_c, 2, 68, 0
1, 41986, Note_on_c, 6, 65, 0
1, 41991, Note_on_c, 7, 68, 0
1, 41993, Note_on_c, 6, 68, 0
1, 41994, Note_on_c, 6, 57, 0
1, 41994, Note_on_c, 0, 57, 0
1, 41997, Note_on_c, 2, 63, 64
1, 41997, Note_on_c, 2, 68, 95
1, 41998, Note_on_c, 0, 61, 0
1, 41998, Note_on_c, 2, 59, 65
1, 41998, Note_on_c, 9, 69, 37
1, 41999, Note_on_c, 9, 69, 0
1, 41999, Note_on_c, 0, 63, 0
1, 41999, Note_on_c, 1, 47, 85
1, 41999, Note_on_c, 9, 51, 44
1, 41999, Note_on_c, 11, 47, 81
1, 42000, Note_on_c, 9, 51, 0
1, 42003, Note_on_c, 1, 42, 0
1, 42003, Note_on_c, 11, 42, 0
1, 42009, Note_on_c, 2, 63, 0
1, 42017, Note_on_c, 2, 68, 0
1, 42020, Note_on_c, 2, 59, 0
1, 42022, Note_on_c, 2, 63, 61
1, 42022, Note_on_c, 2, 68, 90
1, 42023, Note_on_c, 0, 57, 55
1, 42023, Note_on_c, 1, 42, 74
1, 42023, Note_on_c, 9, 51, 55
1, 42023, Note_on_c, 9, 62, 74
1, 42023, Note_on_c, 9, 69, 33
1, 42023, Note_on_c, 11, 42, 70
1, 42024, Note_on_c, 9, 69, 0
1, 42024, Note_on_c, 9, 62, 0
1, 42024, Note_on_c, 0, 68, 0
1, 42024, Note_on_c, 9, 51, 0
1, 42025, Note_on_c, 9, 36, 105
1, 42026, Note_on_c, 9, 36, 0
1, 42027, Note_on_c, 1, 47, 0
1, 42027, Note_on_c, 11, 47, 0
1, 42030, Note_on_c, 2, 68, 0
1, 42034, Note_on_c, 2, 63, 0
1, 42046, Note_on_c, 2, 61, 71
1, 42046, Note_on_c, 2, 63, 74
1, 42046, Note_on_c, 2, 57, 67
1, 42046, Note_on_c, 2, 68, 59
1, 42047, Note_on_c, 1, 42, 0
1, 42047, Note_on_c, 11, 42, 0
1, 42047, Note_on_c, 0, 66, 57
1, 42047, Note_on_c, 1, 45, 84
1, 42047, Note_on_c, 9, 36, 69
1, 42047, Note_on_c, 9, 62, 69
1, 42047, Note_on_c, 9, 51, 78
1, 42047, Note_on_c, 11, 45, 80
1, 42048, Note_on_c, 9, 51, 0
1, 42048, Note_on_c, 9, 62, 0
1, 42048, Note_on_c, 9, 36, 0
1, 42048, Note_on_c, 0, 63, 46
1, 42049, Note_on_c, 0, 61, 48
1, 42058, Note_on_c, 0, 61, 0
1, 42058, Note_on_c, 0, 63, 0
1, 42059, Note_on_c, 0, 66, 0
1, 42062, Note_on_c, 0, 57, 0
1, 42071, Note_on_c, 1, 40, 62
1, 42071, Note_on_c, 6, 69, 60
1, 42071, Note_on_c, 9, 44, 49
1, 42071, Note_on_c, 11, 40, 58
1, 42072, Note_on_c, 9, 44, 0
1, 42072, Note_on_c, 6, 65, 53
1, 42072, Note_on_c, 6, 61, 49
1, 42074, Note_on_c, 1, 45, 0
1, 42074, Note_on_c, 11, 45, 0
1, 42074, Note_on_c, 7, 69, 82
1, 42086, Note_on_c, 6, 65, 0
1, 42086, Note_on_c, 6, 61, 0
1, 42087, Note_on_c, 6, 69, 0
1, 42087, Note_on_c, 7, 69, 0
1, 42093, Note_on_c, 2, 68, 0
1, 42093, Note_on_c, 2, 57, 0
1, 42093, Note_on_c, 2, 61, 0
1, 42094, Note_on_c, 2, 63, 0
1, 42094, Note_on_c, 2, 68, 83
1, 42094, Note_on_c, 2, 57, 73
1, 42094, Note_on_c, 2, 61, 114
1, 42094, Note_on_c, 9, 69, 37
1, 42095, Note_on_c, 9, 69, 0
1, 42095, Note_on_c, 9, 51, 46
1, 42095, Note_on_c, 9, 62, 84
1, 42095, Note_on_c, 9, 36, 107
1, 42096, Note_on_c, 9, 36, 0
1, 42096, Note_on_c, 9, 51, 0
1, 42096, Note_on_c, 9, 62, 0
1, 42096, Note_on_c, 2, 63, 117
1, 42097, Note_on_c, 0, 63, 79
1, 42097, Note_on_c, 0, 61, 79
1, 42097, Note_on_c, 0, 66, 80
1, 42097, Note_on_c, 0, 57, 73
1, 42097, Note_on_c, 1, 45, 84
1, 42097, Note_on_c, 11, 45, 80
1, 42099, Note_on_c, 1, 40, 0
1, 42099, Note_on_c, 11, 40, 0
1, 42105, Note_on_c, 2, 61, 0
1, 42106, Note_on_c, 2, 57, 0
1, 42106, Note_on_c, 2, 63, 0
1, 42108, Note_on_c, 2, 68, 0
1, 42118, Note_on_c, 2, 63, 69
1, 42118, Note_on_c, 2, 61, 67
1, 42118, Note_on_c, 9, 69, 27
1, 42119, Note_on_c, 9, 69, 0
1, 42119, Note_on_c, 9, 51, 42
1, 42120, Note_on_c, 9, 51, 0
1, 42120, Note_on_c, 2, 68, 60
1, 42120, Note_on_c, 2, 57, 74
1, 42130, Note_on_c, 0, 63, 0
1, 42136, Note_on_c, 0, 57, 0
1, 42139, Note_on_c, 0, 61, 0
1, 42140, Note_on_c, 7, 69, 79
1, 42141, Note_on_c, 6, 65, 56
1, 42141, Note_on_c, 6, 61, 60
1, 42141, Note_on_c, 6, 69, 64
1, 42142, Note_on_c, 0, 66, 0
1, 42143, Note_on_c, 0, 57, 41
1, 42143, Note_on_c, 9, 62, 90
1, 42143, Note_on_c, 9, 40, 107
1, 42144, Note_on_c, 9, 40, 0
1, 42144, Note_on_c, 9, 62, 0
1, 42144, Note_on_c, 10, 68, 0
1, 42144, Note_on_c, 10, 63, 0
1, 42144, Note_on_c, 9, 51, 87
1, 42144, Note_on_c, 9, 75, 79
1, 42144, Note_on_c, 10, 66, 63
1, 42145, Note_on_c, 9, 75, 0
1, 42145, Note_on_c, 9, 51, 0
1, 42153, Note_on_c, 2, 61, 0
1, 42156, Note_on_c, 2, 57, 0
1, 42156, Note_on_c, 2, 63, 0
1, 42157, Note_on_c, 2, 68, 0
1, 42166, Note_on_c, 11, 45, 0
1, 42166, Note_on_c, 1, 45, 0
1, 42166, Note_on_c, 2, 68, 71
1, 42166, Note_on_c, 2, 57, 75
1, 42167, Note_on_c, 1, 33, 80
1, 42167, Note_on_c, 9, 44, 44
1, 42167, Note_on_c, 11, 33, 76
1, 42168, Note_on_c, 9, 44, 0
1, 42168, Note_on_c, 2, 61, 69
1, 42168, Note_on_c, 2, 63, 72
1, 42169, Note_on_c, 0, 63, 84
1, 42169, Note_on_c, 0, 66, 73
1, 42169, Note_on_c, 0, 61, 77
1, 42174, Note_on_c, 2, 57, 0
1, 42176, Note_on_c, 2, 63, 0
1, 42177, Note_on_c, 2, 68, 0
1, 42177, Note_on_c, 2, 61, 0
1, 42186, Note_on_c, 0, 57, 0
1, 42189, Note_on_c, 2, 68, 87
1, 42190, Note_on_c, 2, 63, 63
1, 42190, Note_on_c, 9, 69, 39
1, 42191, Note_on_c, 9, 69, 0
1, 42191, Note_on_c, 1, 33, 0
1, 42191, Note_on_c, 11, 33, 0
1, 42191, Note_on_c, 1, 30, 64
1, 42191, Note_on_c, 9, 51, 48
1, 42191, Note_on_c, 11, 30, 60
1, 42192, Note_on_c, 9, 51, 0
1, 42192, Note_on_c, 2, 59, 63
1, 42203, Note_on_c, 0, 63, 0
1, 42204, Note_on_c, 2, 59, 0
1, 42205, Note_on_c, 0, 66, 0
1, 42206, Note_on_c, 2, 63, 0
1, 42209, Note_on_c, 0, 61, 0
1, 42209, Note_on_c, 2, 68, 0
1, 42212, Note_on_c, 6, 65, 0
1, 42213, Note_on_c, 2, 68, 90
1, 42214, Note_on_c, 11, 30, 0
1, 42214, Note_on_c, 1, 30, 0
1, 42214, Note_on_c, 2, 63, 69
1, 42215, Note_on_c, 1, 31, 85
1, 42215, Note_on_c, 9, 69, 27
1, 42215, Note_on_c, 9, 51, 43
1, 42215, Note_on_c, 11, 31, 81
1, 42216, Note_on_c, 9, 51, 0
1, 42216, Note_on_c, 9, 69, 0
1, 42216, Note_on_c, 0, 57, 57
1, 42219, Note_on_c, 2, 68, 0
1, 42222, Note_on_c, 6, 69, 0
1, 42222, Note_on_c, 2, 63, 0
1, 42224, Note_on_c, 7, 69, 0
1, 42229, Note_on_c, 0, 57, 0
1, 42235, Note_on_c, 6, 61, 0
1, 42236, Pitch_bend_c, 6, 8192
1, 42238, Note_on_c, 0, 65, 61
1, 42238, Note_on_c, 2, 65, 72
1, 42238, Note_on_c, 2, 58, 79
1, 42238, Note_on_c, 2, 61, 83
1, 42239, Note_on_c, 0, 61, 65
1, 42239, Note_on_c, 0, 58, 63
1, 42239, Note_on_c, 1, 32, 97
1, 42239, Note_on_c, 9, 36, 115
1, 42239, Note_on_c, 9, 51, 87
1, 42239, Note_on_c, 11, 32, 93
1, 42240, Note_on_c, 9, 51, 0
1, 42240, Note_on_c, 9, 36, 0
1, 42240, Note_on_c, 10, 66, 0
1, 42240, Note_on_c, 10, 57, 0
1, 42240, Note_on_c, 2, 56, 59
1, 42240, Note_on_c, 10, 58, 58
1, 42240, Note_on_c, 10, 65, 58
1, 42240, Note_on_c, 10, 56, 60
1, 42242, Note_on_c, 1, 31, 0
1, 42242, Note_on_c, 11, 31, 0
1, 42263, Note_on_c, 9, 44, 41
1, 42264, Note_on_c, 9, 44, 0
1, 42270, Note_on_c, 0, 58, 0
1, 42270, Note_on_c, 0, 65, 0
1, 42272, Note_on_c, 0, 61, 0
1, 42286, Note_on_c, 2, 61, 0
1, 42286, Note_on_c, 2, 58, 0
1, 42286, Note_on_c, 2, 56, 0
1, 42286, Note_on_c, 2, 65, 0
1, 42286, Note_on_c, 9, 69, 46
1, 42287, Note_on_c, 9, 69, 0
1, 42287, Note_on_c, 0, 61, 67
1, 42287, Note_on_c, 0, 65, 59
1, 42287, Note_on_c, 9, 51, 52
1, 42288, Note_on_c, 9, 51, 0
1, 42288, Note_on_c, 0, 58, 64
1, 42288, Note_on_c, 2, 56, 86
1, 42288, Note_on_c, 2, 58, 104
1, 42288, Note_on_c, 2, 61, 100
1, 42288, Note_on_c, 2, 65, 83
1, 42290, Note_on_c, 0, 56, 41
1, 42296, Note_on_c, 2, 61, 0
1, 42298, Note_on_c, 2, 56, 0
1, 42298, Note_on_c, 2, 58, 0
1, 42301, Note_on_c, 2, 65, 0
1, 42303, Note_on_c, 0, 56, 0
1, 42305, Note_on_c, 0, 58, 0
1, 42308, Note_on_c, 0, 61, 0
1, 42311, Note_on_c, 0, 65, 0
1, 42311, Note_on_c, 9, 69, 33
1, 42311, Note_on_c, 9, 62, 87
1, 42311, Note_on_c, 9, 51, 45
1, 42312, Note_on_c, 9, 51, 0
1, 42312, Note_on_c, 9, 62, 0
1, 42312, Note_on_c, 9, 69, 0
1, 42312, Note_on_c, 2, 65, 74
1, 42312, Note_on_c, 2, 56, 63
1, 42312, Note_on_c, 2, 58, 64
1, 42312, Note_on_c, 2, 61, 74
1, 42328, Note_on_c, 11, 32, 0
1, 42328, Note_on_c, 1, 32, 0
1, 42335, Note_on_c, 9, 40, 101
1, 42335, Note_on_c, 9, 75, 74
1, 42335, Note_on_c, 9, 51, 81
1, 42336, Note_on_c, 9, 51, 0
1, 42336, Note_on_c, 9, 75, 0
1, 42336, Note_on_c, 9, 40, 0
1, 42336, Note_on_c, 9, 62, 74
1, 42337, Note_on_c, 9, 62, 0
1, 42348, Note_on_c, 2, 58, 0
1, 42348, Note_on_c, 2, 56, 0
1, 42348, Note_on_c, 2, 61, 0
1, 42348, Note_on_c, 2, 65, 0
1, 42358, Note_on_c, 2, 65, 70
1, 42359, Note_on_c, 0, 56, 67
1, 42359, Note_on_c, 0, 65, 73
1, 42359, Note_on_c, 0, 58, 68
1, 42359, Note_on_c, 9, 44, 48
1, 42360, Note_on_c, 9, 44, 0
1, 42360, Note_on_c, 2, 61, 71
1, 42360, Note_on_c, 2, 58, 67
1, 42360, Note_on_c, 2, 56, 67
1, 42365, Note_on_c, 2, 61, 0
1, 42366, Note_on_c, 2, 65, 0
1, 42366, Note_on_c, 2, 56, 0
1, 42366, Note_on_c, 2, 58, 0
1, 42377, Note_on_c, 0, 56, 0
1, 42381, Note_on_c, 2, 65, 87
1, 42382, Note_on_c, 0, 61, 54
1, 42382, Note_on_c, 2, 61, 60
1, 42382, Note_on_c, 2, 58, 47
1, 42383, Note_on_c, 9, 51, 48
1, 42383, Note_on_c, 9, 69, 41
1, 42384, Note_on_c, 9, 69, 0
1, 42384, Note_on_c, 9, 51, 0
1, 42387, Note_on_c, 0, 58, 0
1, 42392, Note_on_c, 2, 61, 0
1, 42398, Note_on_c, 0, 65, 0
1, 42401, Note_on_c, 2, 65, 0
1, 42402, Note_on_c, 2, 58, 0
1, 42405, Note_on_c, 0, 61, 0
1, 42406, Note_on_c, 0, 56, 53
1, 42406, Note_on_c, 2, 61, 61
1, 42406, Note_on_c, 2, 65, 81
1, 42406, Note_on_c, 9, 62, 69
1, 42407, Note_on_c, 9, 62, 0
1, 42407, Note_on_c, 1, 39, 79
1, 42407, Note_on_c, 9, 51, 42
1, 42407, Note_on_c, 9, 36, 104
1, 42407, Note_on_c, 11, 39, 75
1, 42408, Note_on_c, 9, 36, 0
1, 42408, Note_on_c, 9, 51, 0
1, 42408, Note_on_c, 9, 69, 33
1, 42409, Note_on_c, 9, 69, 0
1, 42414, Note_on_c, 2, 65, 0
1, 42414, Note_on_c, 2, 61, 0
1, 42424, Note_on_c, 5, 75, 116
1, 42426, Note_on_c, 0, 56, 0
1, 42429, Note_on_c, 11, 39, 0
1, 42429, Note_on_c, 1, 39, 0
1, 42430, Note_on_c, 2, 65, 64
1, 42430, Note_on_c, 2, 56, 60
1, 42430, Note_on_c, 2, 58, 87
1, 42430, Note_on_c, 2, 61, 93
1, 42431, Note_on_c, 0, 65, 75
1, 42431, Note_on_c, 0, 58, 69
1, 42431, Note_on_c, 0, 56, 61
1, 42431, Note_on_c, 1, 44, 74
1, 42431, Note_on_c, 9, 36, 67
1, 42431, Note_on_c, 11, 44, 70
1, 42432, Note_on_c, 9, 36, 0
1, 42432, Note_on_c, 9, 51, 83
1, 42433, Note_on_c, 9, 51, 0
1, 42433, Note_on_c, 9, 62, 62
1, 42434, Note_on_c, 9, 62, 0
1, 42438, Pitch_bend_c, 5, 8322
1, 42439, Pitch_bend_c, 5, 8452
1, 42440, Pitch_bend_c, 5, 8582
1, 42441, Pitch_bend_c, 5, 8712
1, 42442, Pitch_bend_c, 5, 8842
1, 42443, Pitch_bend_c, 5, 8972
1, 42445, Pitch_bend_c, 5, 9102
1, 42447, Pitch_bend_c, 5, 9232
1, 42448, Pitch_bend_c, 5, 9362
1, 42448, Note_on_c, 13, 75, 110
1, 42453, Pitch_bend_c, 5, 9492
1, 42454, Note_on_c, 0, 56, 0
1, 42455, Note_on_c, 1, 32, 75
1, 42455, Pitch_bend_c, 5, 9622
1, 42455, Note_on_c, 9, 44, 42
1, 42455, Note_on_c, 11, 32, 71
1, 42456, Note_on_c, 9, 44, 0
1, 42458, Note_on_c, 1, 44, 0
1, 42458, Note_on_c, 11, 44, 0
1, 42458, Pitch_bend_c, 5, 9752
1, 42460, Pitch_bend_c, 5, 9882
1, 42461, Pitch_bend_c, 5, 10012
1, 42462, Pitch_bend_c, 5, 10142
1, 42462, Pitch_bend_c, 13, 8322
1, 42463, Pitch_bend_c, 5, 10272
1, 42463, Pitch_bend_c, 13, 8452
1, 42464, Pitch_bend_c, 13, 8582
1, 42465, Pitch_bend_c, 5, 10402
1, 42465, Pitch_bend_c, 13, 8712
1, 42466, Note_on_c, 0, 58, 0
1, 42466, Pitch_bend_c, 5, 10662
1, 42466, Pitch_bend_c, 13, 8842
1, 42467, Pitch_bend_c, 13, 8972
1, 42468, Pitch_bend_c, 5, 10792
1, 42469, Pitch_bend_c, 13, 9102
1, 42470, Note_on_c, 0, 65, 0
1, 42470, Pitch_bend_c, 5, 10922
1, 42471, Pitch_bend_c, 13, 9232
1, 42472, Pitch_bend_c, 13, 9362
1, 42477, Pitch_bend_c, 13, 9492
1, 42478, Note_on_c, 2, 56, 0
1, 42478, Note_on_c, 2, 61, 0
1, 42478, Note_on_c, 2, 58, 0
1, 42478, Note_on_c, 2, 65, 0
1, 42478, Note_on_c, 0, 56, 51
1, 42478, Note_on_c, 9, 69, 41
1, 42479, Note_on_c, 9, 69, 0
1, 42479, Note_on_c, 1, 44, 80
1, 42479, Note_on_c, 9, 36, 105
1, 42479, Note_on_c, 9, 51, 46
1, 42479, Note_on_c, 11, 44, 76
1, 42479, Pitch_bend_c, 13, 9622
1, 42480, Note_on_c, 9, 51, 0
1, 42480, Note_on_c, 9, 36, 0
1, 42480, Note_on_c, 2, 58, 112
1, 42480, Note_on_c, 2, 61, 108
1, 42480, Note_on_c, 2, 56, 98
1, 42480, Note_on_c, 2, 65, 87
1, 42481, Note_on_c, 11, 32, 0
1, 42481, Note_on_c, 1, 32, 0
1, 42482, Pitch_bend_c, 13, 9752
1, 42484, Pitch_bend_c, 13, 9882
1, 42485, Pitch_bend_c, 5, 11052
1, 42485, Pitch_bend_c, 13, 10012
1, 42486, Pitch_bend_c, 13, 10142
1, 42487, Pitch_bend_c, 13, 10272
1, 42489, Note_on_c, 2, 61, 0
1, 42489, Note_on_c, 2, 58, 0
1, 42489, Pitch_bend_c, 13, 10402
1, 42490, Pitch_bend_c, 5, 11312
1, 42490, Pitch_bend_c, 13, 10662
1, 42492, Note_on_c, 2, 56, 0
1, 42492, Note_on_c, 2, 65, 0
1, 42492, Pitch_bend_c, 13, 10792
1, 42493, Note_on_c, 0, 56, 0
1, 42494, Pitch_bend_c, 13, 10922
1, 42499, Pitch_bend_c, 5, 11052
1, 42500, Pitch_bend_c, 5, 10922
1, 42501, Pitch_bend_c, 5, 10792
1, 42502, Note_on_c, 0, 65, 70
1, 42502, Note_on_c, 0, 58, 62
1, 42502, Pitch_bend_c, 5, 10532
1, 42502, Note_on_c, 9, 62, 71
1, 42502, Note_on_c, 9, 69, 23
1, 42503, Note_on_c, 9, 69, 0
1, 42503, Note_on_c, 9, 62, 0
1, 42503, Note_on_c, 0, 56, 59
1, 42503, Pitch_bend_c, 5, 10142
1, 42503, Note_on_c, 9, 51, 55
1, 42504, Note_on_c, 9, 51, 0
1, 42504, Note_on_c, 2, 58, 67
1, 42504, Note_on_c, 2, 56, 69
1, 42504, Note_on_c, 2, 61, 73
1, 42504, Note_on_c, 2, 65, 68
1, 42504, Pitch_bend_c, 5, 9882
1, 42505, Pitch_bend_c, 5, 9492
1, 42506, Pitch_bend_c, 5, 8322
1, 42507, Pitch_bend_c, 5, 8192
1, 42509, Pitch_bend_c, 13, 11052
1, 42514, Pitch_bend_c, 13, 11312
1, 42521, Note_on_c, 0, 56, 0
1, 42523, Pitch_bend_c, 13, 11052
1, 42524, Note_on_c, 5, 73, 104
1, 42524, Pitch_bend_c, 13, 10922
1, 42525, Pitch_bend_c, 13, 10792
1, 42526, Pitch_bend_c, 13, 10532
1, 42527, Note_on_c, 0, 58, 0
1, 42527, Note_on_c, 9, 62, 63
1, 42527, Note_on_c, 9, 75, 79
1, 42527, Note_on_c, 9, 40, 105
1, 42527, Note_on_c, 9, 51, 81
1, 42527, Pitch_bend_c, 13, 10142
1, 42528, Note_on_c, 9, 51, 0
1, 42528, Note_on_c, 9, 40, 0
1, 42528, Note_on_c, 9, 75, 0
1, 42528, Note_on_c, 9, 62, 0
1, 42528, Note_on_c, 0, 65, 0
1, 42528, Pitch_bend_c, 13, 9882
1, 42529, Note_on_c, 5, 75, 0
1, 42529, Pitch_bend_c, 13, 9492
1, 42530, Pitch_bend_c, 13, 8322
1, 42531, Pitch_bend_c, 13, 8192
1, 42540, Note_on_c, 2, 61, 0
1, 42540, Note_on_c, 2, 65, 0
1, 42541, Note_on_c, 2, 58, 0
1, 42542, Note_on_c, 2, 56, 0
1, 42548, Note_on_c, 11, 44, 0
1, 42548, Note_on_c, 1, 44, 0
1, 42548, Note_on_c, 5, 70, 99
1, 42548, Note_on_c, 13, 73, 98
1, 42551, Note_on_c, 0, 56, 70
1, 42551, Note_on_c, 0, 58, 73
1, 42551, Note_on_c, 0, 65, 61
1, 42551, Note_on_c, 1, 32, 72
1, 42551, Note_on_c, 9, 44, 46
1, 42551, Note_on_c, 11, 32, 68
1, 42552, Note_on_c, 9, 44, 0
1, 42552, Note_on_c, 2, 58, 61
1, 42552, Note_on_c, 2, 56, 74
1, 42552, Note_on_c, 2, 61, 64
1, 42552, Note_on_c, 2, 65, 66
1, 42553, Note_on_c, 13, 75, 0
1, 42553, Note_on_c, 9, 62, 69
1, 42554, Note_on_c, 9, 62, 0
1, 42555, Note_on_c, 5, 73, 0
1, 42560, Note_on_c, 2, 61, 0
1, 42560, Note_on_c, 2, 56, 0
1, 42560, Note_on_c, 2, 58, 0
1, 42562, Note_on_c, 2, 65, 0
1, 42572, Note_on_c, 13, 70, 93
1, 42573, Note_on_c, 0, 56, 0
1, 42573, Note_on_c, 2, 65, 81
1, 42574, Note_on_c, 2, 61, 54
1, 42574, Note_on_c, 2, 58, 59
1, 42574, Note_on_c, 5, 73, 104
1, 42574, Note_on_c, 9, 69, 46
1, 42575, Note_on_c, 9, 69, 0
1, 42575, Note_on_c, 1, 39, 80
1, 42575, Note_on_c, 9, 51, 45
1, 42575, Note_on_c, 9, 62, 63
1, 42575, Note_on_c, 11, 39, 76
1, 42576, Note_on_c, 9, 62, 0
1, 42576, Note_on_c, 9, 51, 0
1, 42577, Note_on_c, 11, 32, 0
1, 42577, Note_on_c, 1, 32, 0
1, 42577, Note_on_c, 0, 61, 26
1, 42579, Note_on_c, 13, 73, 0
1, 42581, Note_on_c, 5, 70, 0
1, 42582, Note_on_c, 0, 58, 0
1, 42586, Note_on_c, 0, 65, 0
1, 42586, Note_on_c, 2, 61, 0
1, 42594, Note_on_c, 2, 65, 0
1, 42598, Note_on_c, 0, 61, 0
1, 42598, Note_on_c, 1, 39, 0
1, 42598, Note_on_c, 11, 39, 0
1, 42598, Note_on_c, 2, 58, 0
1, 42598, Note_on_c, 2, 65, 81
1, 42598, Note_on_c, 2, 61, 77
1, 42598, Note_on_c, 9, 69, 27
1, 42598, Note_on_c, 13, 73, 98
1, 42599, Note_on_c, 9, 69, 0
1, 42599, Note_on_c, 0, 56, 53
1, 42599, Note_on_c, 1, 32, 70
1, 42599, Note_on_c, 9, 51, 47
1, 42599, Note_on_c, 11, 32, 66
1, 42600, Note_on_c, 9, 51, 0
1, 42600, Pitch_bend_c, 5, 8322
1, 42601, Pitch_bend_c, 5, 8582
1, 42602, Pitch_bend_c, 5, 8712
1, 42603, Pitch_bend_c, 5, 8842
1, 42605, Note_on_c, 13, 70, 0
1, 42606, Note_on_c, 2, 61, 0
1, 42606, Note_on_c, 2, 65, 0
1, 42612, Pitch_bend_c, 5, 8712
1, 42613, Pitch_bend_c, 5, 8582
1, 42614, Pitch_bend_c, 5, 8322
1, 42615, Pitch_bend_c, 5, 8192
1, 42621, Note_on_c, 0, 56, 0
1, 42622, Note_on_c, 2, 56, 61
1, 42622, Note_on_c, 2, 59, 83
1, 42622, Note_on_c, 2, 63, 87
1, 42622, Note_on_c, 2, 53, 65
1, 42623, Note_on_c, 0, 65, 61
1, 42623, Note_on_c, 0, 61, 65
1, 42623, Note_on_c, 1, 37, 88
1, 42623, Note_on_c, 9, 36, 115
1, 42623, Note_on_c, 11, 37, 84
1, 42624, Note_on_c, 9, 36, 0
1, 42624, Note_on_c, 10, 61, 0
1, 42624, Note_on_c, 10, 58, 0
1, 42624, Note_on_c, 10, 63, 58
1, 42624, Note_on_c, 10, 59, 68
1, 42624, Pitch_bend_c, 13, 8322
1, 42625, Note_on_c, 0, 59, 58
1, 42625, Note_on_c, 9, 51, 81
1, 42625, Pitch_bend_c, 13, 8582
1, 42626, Note_on_c, 9, 51, 0
1, 42626, Note_on_c, 1, 32, 0
1, 42626, Note_on_c, 11, 32, 0
1, 42626, Note_on_c, 0, 56, 41
1, 42626, Pitch_bend_c, 13, 8712
1, 42627, Pitch_bend_c, 13, 8842
1, 42631, Pitch_bend_c, 5, 8322
1, 42632, Pitch_bend_c, 5, 8452
1, 42634, Pitch_bend_c, 5, 8712
1, 42635, Pitch_bend_c, 5, 8842
1, 42636, Pitch_bend_c, 5, 8972
1, 42636, Pitch_bend_c, 13, 8712
1, 42637, Pitch_bend_c, 13, 8582
1, 42638, Pitch_bend_c, 13, 8322
1, 42639, Pitch_bend_c, 5, 9102
1, 42639, Pitch_bend_c, 13, 8192
1, 42640, Note_on_c, 0, 59, 0
1, 42643, Note_on_c, 0, 56, 0
1, 42646, Note_on_c, 0, 65, 0
1, 42646, Note_on_c, 0, 61, 0
1, 42646, Pitch_bend_c, 5, 8972
1, 42647, Pitch_bend_c, 5, 8712
1, 42648, Pitch_bend_c, 5, 8582
1, 42648, Note_on_c, 9, 44, 46
1, 42649, Note_on_c, 9, 44, 0
1, 42649, Pitch_bend_c, 5, 8452
1, 42650, Pitch_bend_c, 5, 8192
1, 42655, Pitch_bend_c, 13, 8322
1, 42656, Pitch_bend_c, 13, 8452
1, 42658, Pitch_bend_c, 13, 8712
1, 42659, Pitch_bend_c, 13, 8842
1, 42660, Pitch_bend_c, 13, 8972
1, 42663, Pitch_bend_c, 13, 9102
1, 42670, Note_on_c, 2, 63, 0
1, 42670, Note_on_c, 2, 59, 0
1, 42670, Note_on_c, 2, 56, 0
1, 42670, Note_on_c, 2, 53, 0
1, 42670, Note_on_c, 9, 69, 39
1, 42670, Pitch_bend_c, 13, 8972
1, 42671, Note_on_c, 9, 69, 0
1, 42671, Note_on_c, 0, 65, 70
1, 42671, Note_on_c, 9, 51, 57
1, 42671, Pitch_bend_c, 13, 8712
1, 42672, Note_on_c, 9, 51, 0
1, 42672, Note_on_c, 2, 53, 48
1, 42672, Note_on_c, 2, 56, 43
1, 42672, Note_on_c, 2, 59, 83
1, 42672, Note_on_c, 2, 63, 74
1, 42672, Pitch_bend_c, 13, 8582
1, 42673, Note_on_c, 0, 59, 87
1, 42673, Note_on_c, 0, 61, 65
1, 42673, Note_on_c, 0, 56, 58
1, 42673, Pitch_bend_c, 13, 8452
1, 42674, Pitch_bend_c, 13, 8192
1, 42682, Note_on_c, 2, 59, 0
1, 42684, Note_on_c, 1, 37, 0
1, 42684, Note_on_c, 11, 37, 0
1, 42684, Note_on_c, 2, 56, 0
1, 42685, Note_on_c, 2, 63, 0
1, 42688, Note_on_c, 2, 53, 0
1, 42695, Note_on_c, 9, 51, 46
1, 42695, Note_on_c, 9, 69, 33
1, 42695, Note_on_c, 9, 62, 84
1, 42696, Note_on_c, 9, 62, 0
1, 42696, Note_on_c, 9, 69, 0
1, 42696, Note_on_c, 9, 51, 0
1, 42696, Note_on_c, 2, 56, 63
1, 42696, Note_on_c, 2, 59, 74
1, 42696, Note_on_c, 2, 53, 68
1, 42696, Note_on_c, 2, 63, 68
1, 42704, Pitch_bend_c, 5, 8322
1, 42705, Pitch_bend_c, 5, 8452
1, 42706, Pitch_bend_c, 5, 8842
1, 42707, Pitch_bend_c, 5, 8972
1, 42709, Pitch_bend_c, 5, 9102
1, 42711, Note_on_c, 0, 59, 0
1, 42711, Pitch_bend_c, 5, 9232
1, 42715, Note_on_c, 0, 61, 0
1, 42715, Note_on_c, 0, 65, 0
1, 42716, Pitch_bend_c, 5, 9102
1, 42717, Pitch_bend_c, 5, 8972
1, 42718, Pitch_bend_c, 5, 8452
1, 42719, Pitch_bend_c, 5, 8192
1, 42719, Note_on_c, 9, 75, 76
1, 42720, Note_on_c, 9, 75, 0
1, 42720, Note_on_c, 9, 40, 107
1, 42720, Note_on_c, 9, 51, 91
1, 42721, Note_on_c, 9, 51, 0
1, 42721, Note_on_c, 9, 40, 0
1, 42721, Note_on_c, 9, 62, 71
1, 42722, Note_on_c, 9, 62, 0
1, 42723, Note_on_c, 0, 56, 0
1, 42728, Note_on_c, 2, 53, 0
1, 42728, Pitch_bend_c, 13, 8322
1, 42729, Pitch_bend_c, 13, 8452
1, 42730, Note_on_c, 2, 56, 0
1, 42730, Pitch_bend_c, 13, 8842
1, 42731, Pitch_bend_c, 13, 8972
1, 42732, Note_on_c, 2, 59, 0
1, 42732, Note_on_c, 2, 63, 0
1, 42733, Pitch_bend_c, 13, 9102
1, 42735, Pitch_bend_c, 13, 9232
1, 42740, Pitch_bend_c, 13, 9102
1, 42741, Pitch_bend_c, 13, 8972
1, 42742, Note_on_c, 2, 63, 72
1, 42742, Note_on_c, 2, 59, 74
1, 42742, Note_on_c, 2, 53, 70
1, 42742, Pitch_bend_c, 13, 8452
1, 42743, Note_on_c, 9, 44, 42
1, 42743, Pitch_bend_c, 13, 8192
1, 42744, Note_on_c, 9, 44, 0
1, 42744, Note_on_c, 2, 56, 58
1, 42745, Note_on_c, 0, 65, 73
1, 42745, Note_on_c, 0, 59, 87
1, 42746, Note_on_c, 0, 56, 58
1, 42749, Note_on_c, 2, 59, 0
1, 42750, Note_on_c, 2, 56, 0
1, 42750, Note_on_c, 2, 63, 0
1, 42752, Note_on_c, 2, 53, 0
1, 42765, Note_on_c, 0, 56, 0
1, 42765, Note_on_c, 2, 56, 58
1, 42766, Note_on_c, 2, 63, 87
1, 42766, Note_on_c, 2, 59, 58
1, 42767, Note_on_c, 9, 69, 37
1, 42768, Note_on_c, 9, 69, 0
1, 42768, Note_on_c, 9, 51, 49
1, 42769, Note_on_c, 9, 51, 0
1, 42769, Note_on_c, 0, 61, 46
1, 42770, Note_on_c, 0, 59, 0
1, 42774, Note_on_c, 2, 59, 0
1, 42777, Note_on_c, 0, 65, 0
1, 42783, Note_on_c, 2, 63, 0
1, 42787, Note_on_c, 5, 70, 101
1, 42789, Note_on_c, 2, 56, 0
1, 42789, Note_on_c, 5, 73, 0
1, 42790, Note_on_c, 2, 59, 66
1, 42790, Note_on_c, 2, 63, 87
1, 42791, Note_on_c, 1, 37, 73
1, 42791, Note_on_c, 9, 51, 38
1, 42791, Note_on_c, 9, 69, 27
1, 42791, Note_on_c, 11, 37, 69
1, 42792, Note_on_c, 9, 69, 0
1, 42792, Note_on_c, 9, 51, 0
1, 42792, Note_on_c, 9, 62, 71
1, 42793, Note_on_c, 9, 62, 0
1, 42793, Note_on_c, 0, 61, 0
1, 42793, Note_on_c, 0, 56, 52
1, 42793, Note_on_c, 9, 36, 93
1, 42794, Note_on_c, 9, 36, 0
1, 42798, Note_on_c, 5, 70, 0
1, 42798, Note_on_c, 2, 63, 0
1, 42798, Note_on_c, 2, 59, 0
1, 42811, Note_on_c, 13, 70, 95
1, 42813, Note_on_c, 13, 73, 0
1, 42814, Note_on_c, 2, 59, 77
1, 42814, Note_on_c, 2, 63, 76
1, 42814, Note_on_c, 2, 53, 62
1, 42814, Note_on_c, 2, 56, 53
1, 42815, Note_on_c, 1, 43, 78
1, 42815, Note_on_c, 9, 36, 65
1, 42815, Note_on_c, 11, 43, 74
1, 42816, Note_on_c, 9, 36, 0
1, 42816, Note_on_c, 1, 37, 0
1, 42816, Note_on_c, 11, 37, 0
1, 42817, Note_on_c, 0, 65, 79
1, 42817, Note_on_c, 9, 51, 86
1, 42818, Note_on_c, 9, 51, 0
1, 42818, Note_on_c, 0, 59, 84
1, 42818, Note_on_c, 5, 80, 108
1, 42818, Note_on_c, 9, 62, 71
1, 42819, Note_on_c, 9, 62, 0
1, 42822, Note_on_c, 13, 70, 0
1, 42825, Pitch_bend_c, 5, 8322
1, 42826, Pitch_bend_c, 5, 8712
1, 42827, Pitch_bend_c, 5, 8972
1, 42828, Pitch_bend_c, 5, 9232
1, 42829, Pitch_bend_c, 5, 9492
1, 42830, Pitch_bend_c, 5, 10012
1, 42831, Pitch_bend_c, 5, 10272
1, 42832, Pitch_bend_c, 5, 10662
1, 42833, Pitch_bend_c, 5, 10792
1, 42834, Pitch_bend_c, 5, 11702
1, 42835, Pitch_bend_c, 5, 12092
1, 42836, Pitch_bend_c, 5, 12352
1, 42837, Pitch_bend_c, 5, 12612
1, 42838, Pitch_bend_c, 5, 13392
1, 42839, Note_on_c, 1, 38, 74
1, 42839, Pitch_bend_c, 5, 13652
1, 42839, Note_on_c, 11, 38, 70
1, 42840, Note_on_c, 11, 43, 0
1, 42840, Note_on_c, 1, 43, 0
1, 42840, Note_on_c, 0, 61, 53
1, 42840, Pitch_bend_c, 5, 13912
1, 42841, Pitch_bend_c, 5, 14172
1, 42841, Note_on_c, 9, 44, 47
1, 42842, Note_on_c, 9, 44, 0
1, 42842, Pitch_bend_c, 5, 14692
1, 42842, Note_on_c, 13, 80, 102
1, 42843, Note_on_c, 0, 59, 0
1, 42843, Pitch_bend_c, 5, 15082
1, 42844, Note_on_c, 0, 65, 0
1, 42844, Pitch_bend_c, 5, 15212
1, 42845, Pitch_bend_c, 5, 15602
1, 42846, Pitch_bend_c, 5, 16122
1, 42847, Pitch_bend_c, 5, 16252
1, 42848, Pitch_bend_c, 5, 16382
1, 42849, Pitch_bend_c, 13, 8322
1, 42850, Note_on_c, 0, 56, 0
1, 42850, Pitch_bend_c, 13, 8712
1, 42851, Pitch_bend_c, 13, 8972
1, 42852, Pitch_bend_c, 13, 9232
1, 42853, Pitch_bend_c, 13, 9492
1, 42854, Pitch_bend_c, 13, 10012
1, 42855, Pitch_bend_c, 13, 10272
1, 42856, Pitch_bend_c, 13, 10662
1, 42857, Pitch_bend_c, 13, 10792
1, 42858, Pitch_bend_c, 13, 11702
1, 42859, Pitch_bend_c, 13, 12092
1, 42860, Note_on_c, 2, 59, 0
1, 42860, Note_on_c, 2, 63, 0
1, 42860, Note_on_c, 2, 53, 0
1, 42860, Note_on_c, 2, 56, 0
1, 42860, Pitch_bend_c, 13, 12352
1, 42861, Pitch_bend_c, 5, 15992
1, 42861, Pitch_bend_c, 13, 12612
1, 42862, Note_on_c, 1, 38, 0
1, 42862, Note_on_c, 11, 38, 0
1, 42862, Note_on_c, 0, 61, 0
1, 42862, Note_on_c, 0, 56, 42
1, 42862, Note_on_c, 2, 63, 111
1, 42862, Note_on_c, 2, 53, 72
1, 42862, Pitch_bend_c, 5, 14952
1, 42862, Pitch_bend_c, 13, 13392
1, 42863, Note_on_c, 1, 43, 70
1, 42863, Pitch_bend_c, 5, 13782
1, 42863, Note_on_c, 9, 69, 43
1, 42863, Note_on_c, 11, 43, 66
1, 42863, Pitch_bend_c, 13, 13652
1, 42864, Note_on_c, 9, 69, 0
1, 42864, Note_on_c, 2, 59, 98
1, 42864, Note_on_c, 2, 56, 73
1, 42864, Pitch_bend_c, 5, 12742
1, 42864, Note_on_c, 9, 62, 80
1, 42864, Pitch_bend_c, 13, 13912
1, 42865, Note_on_c, 9, 62, 0
1, 42865, Pitch_bend_c, 5, 11702
1, 42865, Note_on_c, 9, 36, 110
1, 42865, Note_on_c, 9, 51, 48
1, 42865, Pitch_bend_c, 13, 14172
1, 42866, Note_on_c, 9, 51, 0
1, 42866, Note_on_c, 9, 36, 0
1, 42866, Pitch_bend_c, 5, 9752
1, 42866, Pitch_bend_c, 13, 14692
1, 42867, Pitch_bend_c, 5, 8972
1, 42867, Pitch_bend_c, 13, 15082
1, 42868, Pitch_bend_c, 5, 8192
1, 42868, Pitch_bend_c, 13, 15212
1, 42869, Pitch_bend_c, 13, 15602
1, 42870, Pitch_bend_c, 13, 16122
1, 42871, Pitch_bend_c, 13, 16252
1, 42872, Pitch_bend_c, 13, 16382
1, 42874, Note_on_c, 2, 59, 0
1, 42874, Note_on_c, 2, 56, 0
1, 42874, Note_on_c, 2, 53, 0
1, 42874, Note_on_c, 2, 63, 0
1, 42885, Pitch_bend_c, 13, 15992
1, 42886, Note_on_c, 0, 56, 0
1, 42886, Note_on_c, 2, 53, 63
1, 42886, Note_on_c, 2, 56, 61
1, 42886, Note_on_c, 2, 63, 63
1, 42886, Note_on_c, 2, 59, 74
1, 42886, Pitch_bend_c, 13, 14952
1, 42887, Note_on_c, 0, 65, 77
1, 42887, Note_on_c, 9, 51, 41
1, 42887, Note_on_c, 9, 69, 31
1, 42887, Pitch_bend_c, 13, 13782
1, 42888, Note_on_c, 9, 69, 0
1, 42888, Note_on_c, 9, 51, 0
1, 42888, Note_on_c, 0, 56, 53
1, 42888, Pitch_bend_c, 13, 12742
1, 42889, Note_on_c, 0, 59, 87
1, 42889, Pitch_bend_c, 13, 11702
1, 42890, Pitch_bend_c, 13, 9752
1, 42891, Pitch_bend_c, 13, 8972
1, 42892, Pitch_bend_c, 13, 8192
1, 42897, Pitch_bend_c, 5, 8322
1, 42898, Pitch_bend_c, 5, 8582
1, 42899, Pitch_bend_c, 5, 8712
1, 42900, Pitch_bend_c, 5, 8842
1, 42902, Pitch_bend_c, 5, 8972
1, 42909, Pitch_bend_c, 5, 8712
1, 42910, Pitch_bend_c, 5, 8322
1, 42911, Note_on_c, 0, 59, 0
1, 42911, Pitch_bend_c, 5, 8192
1, 42911, Note_on_c, 9, 75, 73
1, 42912, Note_on_c, 9, 75, 0
1, 42912, Note_on_c, 9, 40, 105
1, 42913, Note_on_c, 9, 40, 0
1, 42913, Note_on_c, 9, 51, 81
1, 42913, Note_on_c, 9, 62, 88
1, 42914, Note_on_c, 9, 62, 0
1, 42914, Note_on_c, 9, 51, 0
1, 42914, Note_on_c, 0, 65, 0
1, 42918, Note_on_c, 0, 56, 0
1, 42921, Note_on_c, 2, 56, 0
1, 42921, Pitch_bend_c, 13, 8322
1, 42922, Note_on_c, 2, 63, 0
1, 42922, Note_on_c, 2, 53, 0
1, 42922, Pitch_bend_c, 13, 8582
1, 42923, Pitch_bend_c, 13, 8712
1, 42924, Note_on_c, 2, 59, 0
1, 42924, Pitch_bend_c, 13, 8842
1, 42926, Pitch_bend_c, 13, 8972
1, 42930, Pitch_bend_c, 5, 8452
1, 42931, Pitch_bend_c, 5, 8582
1, 42932, Pitch_bend_c, 5, 8712
1, 42933, Pitch_bend_c, 13, 8712
1, 42934, Note_on_c, 1, 43, 0
1, 42934, Note_on_c, 11, 43, 0
1, 42934, Note_on_c, 2, 63, 70
1, 42934, Note_on_c, 2, 59, 81
1, 42934, Note_on_c, 2, 53, 67
1, 42934, Note_on_c, 2, 56, 61
1, 42934, Pitch_bend_c, 5, 8842
1, 42934, Pitch_bend_c, 13, 8322
1, 42935, Note_on_c, 0, 56, 57
1, 42935, Note_on_c, 0, 59, 81
1, 42935, Note_on_c, 0, 65, 70
1, 42935, Note_on_c, 1, 38, 72
1, 42935, Note_on_c, 9, 44, 43
1, 42935, Note_on_c, 11, 38, 68
1, 42935, Pitch_bend_c, 13, 8192
1, 42936, Note_on_c, 9, 44, 0
1, 42941, Note_on_c, 2, 56, 0
1, 42942, Note_on_c, 2, 53, 0
1, 42942, Note_on_c, 2, 59, 0
1, 42942, Pitch_bend_c, 5, 8712
1, 42943, Pitch_bend_c, 5, 8582
1, 42944, Note_on_c, 2, 63, 0
1, 42945, Pitch_bend_c, 5, 8322
1, 42946, Pitch_bend_c, 5, 8192
1, 42954, Pitch_bend_c, 13, 8452
1, 42955, Pitch_bend_c, 13, 8582
1, 42956, Pitch_bend_c, 13, 8712
1, 42958, Note_on_c, 0, 56, 0
1, 42958, Note_on_c, 2, 59, 64
1, 42958, Note_on_c, 2, 56, 49
1, 42958, Note_on_c, 2, 63, 104
1, 42958, Pitch_bend_c, 13, 8842
1, 42959, Note_on_c, 0, 61, 53
1, 42959, Note_on_c, 1, 43, 75
1, 42959, Note_on_c, 9, 51, 42
1, 42959, Note_on_c, 9, 69, 32
1, 42959, Note_on_c, 11, 43, 71
1, 42960, Note_on_c, 9, 69, 0
1, 42960, Note_on_c, 9, 51, 0
1, 42960, Note_on_c, 0, 59, 0
1, 42961, Note_on_c, 0, 65, 0
1, 42962, Note_on_c, 11, 38, 0
1, 42962, Note_on_c, 1, 38, 0
1, 42966, Pitch_bend_c, 13, 8712
1, 42967, Pitch_bend_c, 13, 8582
1, 42968, Note_on_c, 2, 59, 0
1, 42969, Pitch_bend_c, 13, 8322
1, 42970, Pitch_bend_c, 5, 8322
1, 42970, Pitch_bend_c, 13, 8192
1, 42971, Pitch_bend_c, 5, 8452
1, 42973, Pitch_bend_c, 5, 8582
1, 42974, Pitch_bend_c, 5, 8842
1, 42977, Pitch_bend_c, 5, 8972
1, 42978, Note_on_c, 2, 63, 0
1, 42982, Note_on_c, 2, 56, 0
1, 42982, Note_on_c, 2, 63, 85
1, 42983, Note_on_c, 0, 56, 41
1, 42983, Note_on_c, 1, 37, 69
1, 42983, Note_on_c, 9, 51, 42
1, 42983, Note_on_c, 9, 69, 35
1, 42983, Note_on_c, 11, 37, 65
1, 42984, Note_on_c, 9, 69, 0
1, 42984, Note_on_c, 9, 51, 0
1, 42984, Note_on_c, 2, 59, 76
1, 42985, Note_on_c, 1, 43, 0
1, 42985, Note_on_c, 11, 43, 0
1, 42985, Pitch_bend_c, 5, 8842
1, 42986, Note_on_c, 0, 61, 0
1, 42986, Pitch_bend_c, 5, 8582
1, 42987, Pitch_bend_c, 5, 8322
1, 42988, Pitch_bend_c, 5, 8192
1, 42990, Note_on_c, 2, 63, 0
1, 42992, Note_on_c, 2, 59, 0
1, 42994, Pitch_bend_c, 13, 8322
1, 42995, Pitch_bend_c, 13, 8452
1, 42997, Pitch_bend_c, 13, 8582
1, 42998, Pitch_bend_c, 13, 8842
1, 43001, Pitch_bend_c, 13, 8972
1, 43006, Note_on_c, 2, 61, 90
1, 43006, Note_on_c, 2, 58, 90
1, 43006, Note_on_c, 2, 56, 95
1, 43006, Note_on_c, 2, 65, 63
1, 43007, Note_on_c, 0, 65, 68
1, 43007, Note_on_c, 0, 61, 57
1, 43007, Note_on_c, 1, 42, 74
1, 43007, Note_on_c, 9, 36, 115
1, 43007, Note_on_c, 9, 51, 83
1, 43007, Note_on_c, 11, 42, 70
1, 43008, Note_on_c, 9, 51, 0
1, 43008, Note_on_c, 9, 36, 0
1, 43008, Note_on_c, 10, 59, 0
1, 43008, Note_on_c, 10, 63, 0
1, 43008, Note_on_c, 10, 61, 60
1, 43008, Note_on_c, 10, 58, 59
1, 43009, Pitch_bend_c, 13, 8842
1, 43010, Note_on_c, 0, 58, 60
1, 43010, Pitch_bend_c, 13, 8582
1, 43011, Pitch_bend_c, 13, 8322
1, 43012, Pitch_bend_c, 13, 8192
1, 43013, Note_on_c, 1, 37, 0
1, 43013, Note_on_c, 11, 37, 0
1, 43030, Note_on_c, 0, 65, 0
1, 43031, Note_on_c, 0, 61, 0
1, 43032, Note_on_c, 9, 44, 41
1, 43033, Note_on_c, 9, 44, 0
1, 43033, Note_on_c, 0, 58, 0
1, 43036, Note_on_c, 0, 56, 0
1, 43054, Note_on_c, 2, 61, 0
1, 43054, Note_on_c, 2, 58, 0
1, 43054, Note_on_c, 2, 56, 0
1, 43054, Note_on_c, 2, 65, 0
1, 43054, Note_on_c, 9, 69, 50
1, 43055, Note_on_c, 9, 69, 0
1, 43055, Note_on_c, 0, 58, 68
1, 43055, Note_on_c, 0, 56, 59
1, 43055, Note_on_c, 0, 65, 70
1, 43055, Note_on_c, 9, 51, 49
1, 43056, Note_on_c, 9, 51, 0
1, 43056, Note_on_c, 0, 61, 64
1, 43056, Note_on_c, 2, 65, 77
1, 43056, Note_on_c, 2, 56, 108
1, 43056, Note_on_c, 2, 61, 104
1, 43056, Note_on_c, 2, 58, 100
1, 43065, Note_on_c, 2, 58, 0
1, 43065, Note_on_c, 2, 61, 0
1, 43065, Note_on_c, 2, 56, 0
1, 43066, Note_on_c, 2, 65, 0
1, 43074, Note_on_c, 5, 80, 0
1, 43078, Note_on_c, 2, 58, 60
1, 43078, Note_on_c, 2, 61, 68
1, 43078, Note_on_c, 2, 65, 61
1, 43078, Note_on_c, 2, 56, 63
1, 43078, Note_on_c, 9, 62, 66
1, 43079, Note_on_c, 9, 62, 0
1, 43079, Note_on_c, 9, 51, 47
1, 43079, Note_on_c, 9, 69, 28
1, 43080, Note_on_c, 9, 69, 0
1, 43080, Note_on_c, 9, 51, 0
1, 43081, Note_on_c, 1, 42, 0
1, 43081, Note_on_c, 11, 42, 0
1, 43082, Note_on_c, 0, 58, 0
1, 43084, Note_on_c, 0, 61, 0
1, 43088, Note_on_c, 0, 65, 0
1, 43098, Note_on_c, 13, 80, 0
1, 43103, Note_on_c, 9, 51, 86
1, 43103, Note_on_c, 9, 40, 101
1, 43104, Note_on_c, 9, 40, 0
1, 43104, Note_on_c, 9, 51, 0
1, 43105, Note_on_c, 9, 75, 79
1, 43105, Note_on_c, 9, 62, 74
1, 43106, Note_on_c, 9, 62, 0
1, 43106, Note_on_c, 9, 75, 0
1, 43108, Note_on_c, 0, 56, 0
1, 43111, Note_on_c, 2, 56, 0
1, 43112, Note_on_c, 2, 61, 0
1, 43114, Note_on_c, 2, 58, 0
1, 43114, Note_on_c, 2, 65, 0
1, 43126, Note_on_c, 0, 65, 75
1, 43126, Note_on_c, 2, 58, 62
1, 43126, Note_on_c, 2, 56, 68
1, 43126, Note_on_c, 2, 65, 70
1, 43126, Note_on_c, 2, 61, 71
1, 43127, Note_on_c, 0, 56, 61
1, 43127, Note_on_c, 0, 58, 75
1, 43127, Note_on_c, 9, 44, 43
1, 43128, Note_on_c, 9, 44, 0
1, 43133, Note_on_c, 2, 61, 0
1, 43134, Note_on_c, 2, 58, 0
1, 43135, Note_on_c, 2, 65, 0
1, 43135, Note_on_c, 2, 56, 0
1, 43150, Note_on_c, 2, 65, 93
1, 43150, Note_on_c, 9, 69, 45
1, 43151, Note_on_c, 9, 69, 0
1, 43151, Note_on_c, 0, 61, 50
1, 43152, Note_on_c, 0, 56, 0
1, 43152, Note_on_c, 2, 61, 31
1, 43152, Note_on_c, 9, 51, 42
1, 43153, Note_on_c, 9, 51, 0
1, 43153, Note_on_c, 2, 58, 48
1, 43154, Note_on_c, 0, 58, 0
1, 43161, Note_on_c, 2, 61, 0
1, 43166, Note_on_c, 2, 58, 0
1, 43167, Note_on_c, 0, 65, 0
1, 43170, Note_on_c, 2, 65, 0
1, 43173, Note_on_c, 0, 61, 0
1, 43174, Note_on_c, 0, 56, 48
1, 43174, Note_on_c, 2, 65, 77
1, 43174, Note_on_c, 5, 70, 96
1, 43174, Note_on_c, 9, 69, 23
1, 43175, Note_on_c, 9, 69, 0
1, 43175, Note_on_c, 1, 37, 84
1, 43175, Note_on_c, 9, 36, 105
1, 43175, Note_on_c, 11, 37, 80
1, 43176, Note_on_c, 9, 36, 0
1, 43176, Note_on_c, 2, 61, 67
1, 43176, Note_on_c, 9, 51, 27
1, 43177, Note_on_c, 9, 51, 0
1, 43177, Note_on_c, 9, 62, 71
1, 43178, Note_on_c, 9, 62, 0
1, 43182, Note_on_c, 5, 70, 0
1, 43182, Note_on_c, 2, 65, 0
1, 43184, Note_on_c, 2, 61, 0
1, 43198, Note_on_c, 1, 37, 0
1, 43198, Note_on_c, 0, 56, 0
1, 43198, Note_on_c, 11, 37, 0
1, 43198, Note_on_c, 0, 65, 75
1, 43198, Note_on_c, 2, 61, 77
1, 43198, Note_on_c, 2, 56, 60
1, 43198, Note_on_c, 2, 65, 63
1, 43198, Note_on_c, 2, 58, 79
1, 43198, Note_on_c, 5, 75, 116
1, 43198, Note_on_c, 13, 70, 90
1, 43199, Note_on_c, 0, 56, 53
1, 43199, Note_on_c, 0, 58, 66
1, 43199, Note_on_c, 1, 42, 80
1, 43199, Note_on_c, 9, 51, 87
1, 43199, Note_on_c, 9, 36, 72
1, 43199, Note_on_c, 11, 42, 76
1, 43200, Note_on_c, 9, 36, 0
1, 43200, Note_on_c, 9, 51, 0
1, 43202, Note_on_c, 9, 62, 74
1, 43203, Note_on_c, 9, 62, 0
1, 43206, Note_on_c, 13, 70, 0
1, 43212, Note_on_c, 5, 75, 0
1, 43222, Note_on_c, 11, 42, 0
1, 43222, Note_on_c, 1, 42, 0
1, 43222, Note_on_c, 13, 75, 110
1, 43223, Note_on_c, 0, 61, 41
1, 43223, Note_on_c, 1, 34, 72
1, 43223, Note_on_c, 11, 34, 68
1, 43225, Note_on_c, 9, 44, 45
1, 43226, Note_on_c, 9, 44, 0
1, 43226, Note_on_c, 0, 56, 0
1, 43229, Note_on_c, 0, 58, 0
1, 43234, Note_on_c, 0, 65, 0
1, 43236, Note_on_c, 13, 75, 0
1, 43242, Note_on_c, 0, 61, 0
1, 43245, Note_on_c, 2, 58, 0
1, 43245, Note_on_c, 2, 65, 0
1, 43245, Note_on_c, 2, 61, 0
1, 43245, Note_on_c, 2, 56, 0
1, 43245, Note_on_c, 0, 56, 48
1, 43246, Note_on_c, 2, 65, 81
1, 43246, Note_on_c, 2, 58, 95
1, 43246, Note_on_c, 2, 56, 98
1, 43246, Note_on_c, 2, 61, 104
1, 43246, Note_on_c, 5, 75, 114
1, 43246, Note_on_c, 9, 69, 37
1, 43247, Note_on_c, 9, 69, 0
1, 43247, Note_on_c, 1, 42, 76
1, 43247, Note_on_c, 9, 51, 51
1, 43247, Note_on_c, 11, 42, 72
1, 43248, Note_on_c, 9, 51, 0
1, 43248, Note_on_c, 1, 34, 0
1, 43248, Note_on_c, 11, 34, 0
1, 43248, Note_on_c, 9, 36, 107
1, 43249, Note_on_c, 9, 36, 0
1, 43255, Note_on_c, 2, 56, 0
1, 43257, Note_on_c, 2, 61, 0
1, 43257, Note_on_c, 2, 58, 0
1, 43257, Pitch_bend_c, 5, 8452
1, 43258, Pitch_bend_c, 5, 8712
1, 43259, Note_on_c, 2, 65, 0
1, 43259, Pitch_bend_c, 5, 8842
1, 43260, Pitch_bend_c, 5, 8972
1, 43261, Pitch_bend_c, 5, 9102
1, 43262, Pitch_bend_c, 5, 9362
1, 43263, Pitch_bend_c, 5, 9492
1, 43265, Pitch_bend_c, 5, 9622
1, 43266, Pitch_bend_c, 5, 9752
1, 43268, Pitch_bend_c, 5, 9882
1, 43270, Note_on_c, 2, 58, 65
1, 43270, Note_on_c, 2, 56, 64
1, 43270, Note_on_c, 2, 65, 69
1, 43270, Note_on_c, 2, 61, 68
1, 43270, Note_on_c, 9, 69, 34
1, 43270, Note_on_c, 13, 75, 108
1, 43271, Note_on_c, 9, 69, 0
1, 43271, Note_on_c, 0, 56, 0
1, 43271, Note_on_c, 0, 58, 73
1, 43271, Note_on_c, 0, 65, 69
1, 43271, Note_on_c, 9, 62, 66
1, 43272, Note_on_c, 9, 62, 0
1, 43272, Note_on_c, 0, 56, 59
1, 43272, Note_on_c, 9, 51, 74
1, 43273, Note_on_c, 9, 51, 0
1, 43274, Pitch_bend_c, 5, 10012
1, 43278, Pitch_bend_c, 5, 10142
1, 43279, Pitch_bend_c, 5, 10272
1, 43281, Pitch_bend_c, 5, 10402
1, 43281, Pitch_bend_c, 13, 8452
1, 43282, Pitch_bend_c, 5, 10532
1, 43282, Pitch_bend_c, 13, 8712
1, 43283, Pitch_bend_c, 13, 8842
1, 43284, Pitch_bend_c, 5, 10662
1, 43284, Pitch_bend_c, 13, 8972
1, 43285, Pitch_bend_c, 13, 9102
1, 43286, Pitch_bend_c, 5, 10792
1, 43286, Pitch_bend_c, 13, 9362
1, 43287, Pitch_bend_c, 13, 9492
1, 43288, Pitch_bend_c, 5, 10922
1, 43289, Pitch_bend_c, 13, 9622
1, 43290, Pitch_bend_c, 5, 11312
1, 43290, Pitch_bend_c, 13, 9752
1, 43292, Pitch_bend_c, 13, 9882
1, 43295, Note_on_c, 9, 51, 93
1, 43295, Note_on_c, 9, 75, 82
1, 43295, Note_on_c, 9, 40, 105
1, 43296, Note_on_c, 9, 40, 0
1, 43296, Note_on_c, 9, 75, 0
1, 43296, Note_on_c, 9, 51, 0
1, 43296, Note_on_c, 0, 58, 0
1, 43298, Pitch_bend_c, 5, 11052
1, 43298, Note_on_c, 9, 62, 66
1, 43298, Pitch_bend_c, 13, 10012
1, 43299, Note_on_c, 9, 62, 0
1, 43299, Note_on_c, 0, 56, 0
1, 43299, Note_on_c, 0, 65, 0
1, 43299, Pitch_bend_c, 5, 10792
1, 43300, Pitch_bend_c, 5, 10532
1, 43301, Pitch_bend_c, 5, 9102
1, 43302, Pitch_bend_c, 5, 8192
1, 43302, Pitch_bend_c, 13, 10142
1, 43303, Pitch_bend_c, 13, 10272
1, 43305, Note_on_c, 2, 56, 0
1, 43305, Pitch_bend_c, 13, 10402
1, 43306, Note_on_c, 2, 65, 0
1, 43306, Note_on_c, 2, 58, 0
1, 43306, Note_on_c, 2, 61, 0
1, 43306, Pitch_bend_c, 13, 10532
1, 43308, Pitch_bend_c, 13, 10662
1, 43310, Pitch_bend_c, 13, 10792
1, 43312, Pitch_bend_c, 13, 10922
1, 43314, Pitch_bend_c, 13, 11312
1, 43318, Note_on_c, 2, 58, 64
1, 43318, Note_on_c, 2, 65, 72
1, 43318, Note_on_c, 2, 56, 71
1, 43318, Note_on_c, 2, 61, 72
1, 43319, Note_on_c, 0, 65, 68
1, 43319, Note_on_c, 0, 58, 66
1, 43319, Note_on_c, 0, 56, 60
1, 43319, Note_on_c, 1, 37, 78
1, 43319, Note_on_c, 9, 44, 50
1, 43319, Note_on_c, 11, 37, 74
1, 43320, Note_on_c, 9, 44, 0
1, 43321, Note_on_c, 1, 42, 0
1, 43321, Note_on_c, 11, 42, 0
1, 43321, Note_on_c, 9, 62, 55
1, 43322, Note_on_c, 9, 62, 0
1, 43322, Note_on_c, 5, 73, 103
1, 43322, Pitch_bend_c, 13, 11052
1, 43323, Pitch_bend_c, 13, 10792
1, 43324, Pitch_bend_c, 13, 10532
1, 43325, Pitch_bend_c, 13, 9102
1, 43326, Note_on_c, 5, 75, 0
1, 43326, Pitch_bend_c, 13, 8192
1, 43327, Note_on_c, 2, 58, 0
1, 43328, Note_on_c, 2, 56, 0
1, 43328, Note_on_c, 2, 61, 0
1, 43329, Note_on_c, 2, 65, 0
1, 43341, Note_on_c, 5, 73, 0
1, 43341, Note_on_c, 9, 69, 45
1, 43342, Note_on_c, 9, 69, 0
1, 43342, Note_on_c, 0, 56, 0
1, 43342, Note_on_c, 0, 61, 57
1, 43342, Note_on_c, 2, 61, 58
1, 43342, Note_on_c, 2, 65, 90
1, 43342, Note_on_c, 5, 70, 84
1, 43343, Note_on_c, 1, 42, 74
1, 43343, Note_on_c, 9, 51, 49
1, 43343, Note_on_c, 11, 42, 70
1, 43344, Note_on_c, 9, 51, 0
1, 43344, Note_on_c, 1, 37, 0
1, 43344, Note_on_c, 11, 37, 0
1, 43346, Note_on_c, 9, 62, 71
1, 43346, Note_on_c, 13, 73, 97
1, 43347, Note_on_c, 9, 62, 0
1, 43350, Note_on_c, 13, 75, 0
1, 43352, Note_on_c, 2, 61, 0
1, 43354, Note_on_c, 0, 58, 0
1, 43357, Note_on_c, 0, 65, 0
1, 43360, Note_on_c, 2, 65, 0
1, 43365, Note_on_c, 0, 61, 0
1, 43365, Note_on_c, 13, 73, 0
1, 43366, Note_on_c, 0, 56, 47
1, 43366, Note_on_c, 2, 61, 61
1, 43366, Note_on_c, 2, 65, 77
1, 43366, Note_on_c, 5, 73, 100
1, 43366, Note_on_c, 9, 69, 36
1, 43366, Note_on_c, 13, 70, 78
1, 43367, Note_on_c, 9, 69, 0
1, 43367, Note_on_c, 1, 34, 74
1, 43367, Note_on_c, 9, 51, 57
1, 43367, Note_on_c, 11, 34, 70
1, 43368, Note_on_c, 9, 51, 0
1, 43373, Note_on_c, 5, 70, 0
1, 43374, Note_on_c, 2, 65, 0
1, 43374, Note_on_c, 11, 42, 0
1, 43374, Note_on_c, 2, 61, 0
1, 43374, Note_on_c, 1, 42, 0
1, 43382, Note_on_c, 0, 56, 0
1, 43386, Pitch_bend_c, 5, 8452
1, 43387, Pitch_bend_c, 5, 8582
1, 43388, Pitch_bend_c, 5, 8842
1, 43390, Note_on_c, 2, 61, 70
1, 43390, Note_on_c, 2, 68, 64
1, 43390, Note_on_c, 2, 63, 71
1, 43390, Note_on_c, 2, 57, 74
1, 43390, Pitch_bend_c, 5, 9102
1, 43390, Note_on_c, 13, 73, 94
1, 43391, Note_on_c, 1, 35, 85
1, 43391, Note_on_c, 9, 36, 114
1, 43391, Note_on_c, 9, 51, 76
1, 43391, Note_on_c, 11, 35, 81
1, 43392, Note_on_c, 9, 51, 0
1, 43392, Note_on_c, 9, 36, 0
1, 43392, Note_on_c, 10, 58, 0
1, 43392, Note_on_c, 10, 56, 0
1, 43392, Note_on_c, 10, 65, 0
1, 43392, Note_on_c, 0, 68, 61
1, 43392, Note_on_c, 0, 57, 62
1, 43392, Pitch_bend_c, 5, 9232
1, 43392, Note_on_c, 10, 57, 57
1, 43392, Note_on_c, 10, 68, 60
1, 43392, Note_on_c, 10, 63, 60
1, 43394, Pitch_bend_c, 5, 9362
1, 43395, Note_on_c, 11, 34, 0
1, 43395, Note_on_c, 1, 34, 0
1, 43397, Note_on_c, 13, 70, 0
1, 43399, Pitch_bend_c, 5, 9232
1, 43400, Pitch_bend_c, 5, 9102
1, 43401, Pitch_bend_c, 5, 8972
1, 43402, Pitch_bend_c, 5, 8582
1, 43403, Pitch_bend_c, 5, 8322
1, 43404, Pitch_bend_c, 5, 8192
1, 43410, Pitch_bend_c, 13, 8452
1, 43411, Pitch_bend_c, 13, 8582
1, 43412, Pitch_bend_c, 13, 8842
1, 43413, Note_on_c, 0, 68, 0
1, 43414, Pitch_bend_c, 13, 9102
1, 43415, Note_on_c, 9, 44, 46
1, 43416, Note_on_c, 9, 44, 0
1, 43416, Note_on_c, 0, 57, 0
1, 43416, Pitch_bend_c, 13, 9232
1, 43418, Pitch_bend_c, 13, 9362
1, 43420, Pitch_bend_c, 5, 8452
1, 43422, Pitch_bend_c, 5, 8582
1, 43423, Pitch_bend_c, 13, 9232
1, 43424, Pitch_bend_c, 5, 8452
1, 43424, Pitch_bend_c, 13, 9102
1, 43425, Pitch_bend_c, 5, 8192
1, 43425, Pitch_bend_c, 13, 8972
1, 43426, Pitch_bend_c, 13, 8582
1, 43427, Pitch_bend_c, 13, 8322
1, 43428, Pitch_bend_c, 13, 8192
1, 43435, Note_on_c, 2, 61, 0
1, 43435, Note_on_c, 2, 68, 0
1, 43435, Note_on_c, 2, 63, 0
1, 43435, Note_on_c, 2, 57, 0
1, 43438, Note_on_c, 2, 57, 74
1, 43438, Note_on_c, 2, 68, 93
1, 43438, Note_on_c, 2, 63, 117
1, 43438, Note_on_c, 2, 61, 108
1, 43438, Note_on_c, 5, 70, 92
1, 43438, Note_on_c, 9, 69, 41
1, 43439, Note_on_c, 9, 69, 0
1, 43439, Note_on_c, 0, 68, 67
1, 43439, Note_on_c, 9, 51, 42
1, 43440, Note_on_c, 9, 51, 0
1, 43440, Note_on_c, 5, 73, 0
1, 43440, Note_on_c, 0, 57, 75
1, 43441, Note_on_c, 0, 63, 54
1, 43441, Note_on_c, 0, 61, 52
1, 43444, Pitch_bend_c, 13, 8452
1, 43446, Note_on_c, 2, 63, 0
1, 43446, Pitch_bend_c, 13, 8582
1, 43447, Note_on_c, 2, 61, 0
1, 43448, Note_on_c, 2, 68, 0
1, 43448, Pitch_bend_c, 13, 8452
1, 43449, Pitch_bend_c, 13, 8192
1, 43450, Note_on_c, 2, 57, 0
1, 43457, Note_on_c, 5, 70, 0
1, 43462, Note_on_c, 11, 35, 0
1, 43462, Note_on_c, 1, 35, 0
1, 43462, Note_on_c, 9, 69, 30
1, 43462, Note_on_c, 13, 70, 86
1, 43463, Note_on_c, 9, 69, 0
1, 43463, Note_on_c, 9, 62, 84
1, 43463, Note_on_c, 9, 51, 43
1, 43464, Note_on_c, 9, 51, 0
1, 43464, Note_on_c, 13, 73, 0
1, 43464, Note_on_c, 9, 62, 0
1, 43464, Note_on_c, 2, 57, 67
1, 43464, Note_on_c, 2, 63, 67
1, 43464, Note_on_c, 2, 68, 58
1, 43465, Note_on_c, 2, 61, 65
1, 43469, Note_on_c, 0, 63, 0
1, 43475, Note_on_c, 0, 61, 0
1, 43481, Note_on_c, 13, 70, 0
1, 43483, Note_on_c, 0, 68, 0
1, 43487, Note_on_c, 9, 75, 79
1, 43488, Note_on_c, 9, 75, 0
1, 43488, Note_on_c, 9, 40, 101
1, 43488, Note_on_c, 9, 51, 83
1, 43489, Note_on_c, 9, 51, 0
1, 43489, Note_on_c, 9, 40, 0
1, 43489, Note_on_c, 9, 62, 71
1, 43490, Note_on_c, 9, 62, 0
1, 43491, Note_on_c, 0, 57, 0
1, 43500, Note_on_c, 2, 57, 0
1, 43500, Note_on_c, 2, 63, 0
1, 43502, Note_on_c, 2, 68, 0
1, 43502, Note_on_c, 2, 61, 0
1, 43511, Note_on_c, 0, 57, 68
1, 43511, Note_on_c, 0, 68, 61
1, 43511, Note_on_c, 0, 61, 56
1, 43511, Note_on_c, 1, 42, 78
1, 43511, Note_on_c, 5, 70, 99
1, 43511, Note_on_c, 9, 44, 43
1, 43511, Note_on_c, 11, 42, 74
1, 43512, Note_on_c, 9, 44, 0
1, 43512, Note_on_c, 2, 61, 73
1, 43512, Note_on_c, 2, 57, 72
1, 43512, Note_on_c, 2, 63, 71
1, 43512, Note_on_c, 2, 68, 69
1, 43513, Note_on_c, 0, 63, 44
1, 43518, Note_on_c, 2, 63, 0
1, 43520, Note_on_c, 5, 70, 0
1, 43520, Note_on_c, 2, 68, 0
1, 43520, Note_on_c, 2, 61, 0
1, 43520, Note_on_c, 2, 57, 0
1, 43533, Note_on_c, 2, 63, 64
1, 43533, Note_on_c, 2, 68, 95
1, 43533, Note_on_c, 9, 69, 45
1, 43534, Note_on_c, 9, 69, 0
1, 43534, Note_on_c, 2, 59, 65
1, 43535, Note_on_c, 1, 47, 87
1, 43535, Note_on_c, 11, 47, 83
1, 43535, Note_on_c, 13, 70, 93
1, 43536, Note_on_c, 9, 51, 51
1, 43537, Note_on_c, 9, 51, 0
1, 43537, Note_on_c, 11, 42, 0
1, 43537, Note_on_c, 1, 42, 0
1, 43538, Note_on_c, 0, 57, 0
1, 43544, Note_on_c, 13, 70, 0
1, 43545, Note_on_c, 2, 63, 0
1, 43553, Note_on_c, 2, 68, 0
1, 43556, Note_on_c, 0, 63, 0
1, 43556, Note_on_c, 2, 59, 0
1, 43557, Note_on_c, 0, 61, 0
1, 43558, Note_on_c, 2, 63, 61
1, 43558, Note_on_c, 2, 68, 90
1, 43558, Note_on_c, 9, 69, 30
1, 43558, Note_on_c, 9, 62, 63
1, 43559, Note_on_c, 9, 62, 0
1, 43559, Note_on_c, 9, 69, 0
1, 43559, Note_on_c, 0, 57, 57
1, 43559, Note_on_c, 1, 42, 67
1, 43559, Note_on_c, 5, 70, 97
1, 43559, Note_on_c, 9, 51, 49
1, 43559, Note_on_c, 11, 42, 63
1, 43560, Note_on_c, 9, 51, 0
1, 43560, Note_on_c, 0, 68, 0
1, 43561, Note_on_c, 9, 36, 113
1, 43562, Note_on_c, 9, 36, 0
1, 43565, Note_on_c, 11, 47, 0
1, 43565, Note_on_c, 1, 47, 0
1, 43566, Note_on_c, 2, 68, 0
1, 43569, Note_on_c, 5, 70, 0
1, 43570, Note_on_c, 2, 63, 0
1, 43582, Note_on_c, 2, 61, 71
1, 43582, Note_on_c, 2, 68, 59
1, 43582, Note_on_c, 2, 57, 67
1, 43582, Note_on_c, 2, 63, 74
1, 43583, Note_on_c, 0, 63, 71
1, 43583, Note_on_c, 0, 61, 68
1, 43583, Note_on_c, 0, 66, 79
1, 43583, Note_on_c, 1, 45, 81
1, 43583, Note_on_c, 5, 73, 107
1, 43583, Note_on_c, 9, 36, 61
1, 43583, Note_on_c, 11, 45, 77
1, 43583, Note_on_c, 13, 70, 91
1, 43584, Note_on_c, 9, 36, 0
1, 43585, Note_on_c, 9, 62, 74
1, 43585, Note_on_c, 9, 51, 78
1, 43586, Note_on_c, 9, 51, 0
1, 43586, Note_on_c, 9, 62, 0
1, 43586, Note_on_c, 1, 42, 0
1, 43586, Note_on_c, 11, 42, 0
1, 43593, Note_on_c, 13, 70, 0
1, 43596, Note_on_c, 0, 63, 0
1, 43599, Note_on_c, 0, 61, 0
1, 43600, Note_on_c, 0, 66, 0
1, 43606, Note_on_c, 0, 57, 0
1, 43607, Note_on_c, 1, 40, 69
1, 43607, Note_on_c, 9, 44, 47
1, 43607, Note_on_c, 11, 40, 65
1, 43607, Note_on_c, 13, 73, 101
1, 43608, Note_on_c, 9, 44, 0
1, 43609, Note_on_c, 11, 45, 0
1, 43609, Note_on_c, 1, 45, 0
1, 43610, Note_on_c, 5, 73, 0
1, 43629, Note_on_c, 2, 57, 0
1, 43629, Note_on_c, 2, 61, 0
1, 43629, Note_on_c, 2, 68, 0
1, 43630, Note_on_c, 2, 63, 0
1, 43630, Note_on_c, 2, 68, 83
1, 43630, Note_on_c, 2, 57, 73
1, 43630, Note_on_c, 2, 61, 114
1, 43631, Note_on_c, 9, 51, 62
1, 43631, Note_on_c, 9, 69, 41
1, 43631, Note_on_c, 9, 62, 87
1, 43632, Note_on_c, 9, 62, 0
1, 43632, Note_on_c, 9, 69, 0
1, 43632, Note_on_c, 9, 51, 0
1, 43632, Note_on_c, 0, 66, 68
1, 43632, Note_on_c, 1, 45, 76
1, 43632, Note_on_c, 2, 63, 117
1, 43632, Note_on_c, 9, 36, 114
1, 43632, Note_on_c, 11, 45, 72
1, 43633, Note_on_c, 9, 36, 0
1, 43633, Note_on_c, 0, 63, 65
1, 43633, Note_on_c, 0, 61, 71
1, 43633, Note_on_c, 0, 57, 67
1, 43634, Note_on_c, 13, 73, 0
1, 43634, Note_on_c, 5, 73, 106
1, 43635, Note_on_c, 1, 40, 0
1, 43635, Note_on_c, 11, 40, 0
1, 43641, Note_on_c, 2, 61, 0
1, 43642, Note_on_c, 2, 57, 0
1, 43642, Note_on_c, 2, 63, 0
1, 43644, Note_on_c, 2, 68, 0
1, 43651, Pitch_bend_c, 5, 8322
1, 43652, Pitch_bend_c, 5, 8452
1, 43653, Pitch_bend_c, 5, 8582
1, 43654, Note_on_c, 2, 61, 67
1, 43654, Note_on_c, 2, 63, 69
1, 43654, Pitch_bend_c, 5, 8842
1, 43655, Note_on_c, 9, 51, 42
1, 43655, Note_on_c, 9, 69, 30
1, 43656, Note_on_c, 9, 69, 0
1, 43656, Note_on_c, 9, 51, 0
1, 43656, Note_on_c, 2, 68, 60
1, 43656, Note_on_c, 2, 57, 74
1, 43657, Pitch_bend_c, 5, 8972
1, 43658, Note_on_c, 13, 73, 100
1, 43667, Pitch_bend_c, 5, 8842
1, 43668, Pitch_bend_c, 5, 8712
1, 43669, Pitch_bend_c, 5, 8452
1, 43670, Pitch_bend_c, 5, 8192
1, 43674, Note_on_c, 0, 63, 0
1, 43674, Note_on_c, 0, 66, 0
1, 43675, Pitch_bend_c, 13, 8322
1, 43676, Pitch_bend_c, 13, 8452
1, 43677, Pitch_bend_c, 13, 8582
1, 43678, Pitch_bend_c, 13, 8842
1, 43679, Note_on_c, 9, 40, 107
1, 43679, Note_on_c, 9, 62, 80
1, 43679, Note_on_c, 9, 51, 81
1, 43679, Note_on_c, 9, 75, 83
1, 43680, Note_on_c, 9, 75, 0
1, 43680, Note_on_c, 9, 51, 0
1, 43680, Note_on_c, 9, 62, 0
1, 43680, Note_on_c, 9, 40, 0
1, 43680, Note_on_c, 0, 61, 0
1, 43681, Pitch_bend_c, 13, 8972
1, 43687, Pitch_bend_c, 5, 8322
1, 43688, Pitch_bend_c, 5, 8452
1, 43689, Note_on_c, 2, 61, 0
1, 43690, Pitch_bend_c, 5, 8712
1, 43691, Pitch_bend_c, 13, 8842
1, 43692, Note_on_c, 2, 63, 0
1, 43692, Note_on_c, 2, 57, 0
1, 43692, Pitch_bend_c, 13, 8712
1, 43693, Note_on_c, 2, 68, 0
1, 43693, Pitch_bend_c, 13, 8452
1, 43694, Pitch_bend_c, 13, 8192
1, 43699, Pitch_bend_c, 5, 8582
1, 43700, Pitch_bend_c, 5, 8452
1, 43702, Note_on_c, 11, 45, 0
1, 43702, Note_on_c, 1, 45, 0
1, 43702, Note_on_c, 2, 68, 71
1, 43702, Note_on_c, 2, 57, 75
1, 43702, Pitch_bend_c, 5, 8322
1, 43703, Note_on_c, 1, 33, 86
1, 43703, Pitch_bend_c, 5, 8192
1, 43703, Note_on_c, 9, 44, 45
1, 43703, Note_on_c, 11, 33, 82
1, 43704, Note_on_c, 9, 44, 0
1, 43704, Note_on_c, 2, 63, 72
1, 43704, Note_on_c, 2, 61, 69
1, 43710, Note_on_c, 2, 57, 0
1, 43711, Pitch_bend_c, 13, 8322
1, 43712, Note_on_c, 2, 63, 0
1, 43712, Pitch_bend_c, 13, 8452
1, 43713, Note_on_c, 2, 68, 0
1, 43713, Note_on_c, 2, 61, 0
1, 43714, Pitch_bend_c, 13, 8712
1, 43723, Pitch_bend_c, 13, 8582
1, 43724, Pitch_bend_c, 13, 8452
1, 43725, Note_on_c, 2, 68, 87
1, 43726, Note_on_c, 2, 63, 63
1, 43726, Pitch_bend_c, 13, 8322
1, 43727, Note_on_c, 1, 30, 70
1, 43727, Note_on_c, 9, 69, 43
1, 43727, Note_on_c, 11, 30, 66
1, 43727, Pitch_bend_c, 13, 8192
1, 43728, Note_on_c, 9, 69, 0
1, 43728, Note_on_c, 2, 59, 63
1, 43729, Note_on_c, 0, 66, 60
1, 43729, Note_on_c, 0, 61, 64
1, 43729, Note_on_c, 0, 63, 64
1, 43729, Note_on_c, 9, 51, 76
1, 43730, Note_on_c, 9, 51, 0
1, 43730, Note_on_c, 1, 33, 0
1, 43730, Note_on_c, 11, 33, 0
1, 43738, Note_on_c, 0, 57, 0
1, 43740, Note_on_c, 2, 59, 0
1, 43742, Note_on_c, 2, 63, 0
1, 43745, Note_on_c, 2, 68, 0
1, 43748, Note_on_c, 0, 66, 0
1, 43749, Note_on_c, 0, 63, 0
1, 43749, Note_on_c, 2, 68, 90
1, 43750, Note_on_c, 0, 61, 0
1, 43750, Note_on_c, 1, 30, 0
1, 43750, Note_on_c, 11, 30, 0
1, 43750, Note_on_c, 2, 63, 69
1, 43751, Note_on_c, 1, 31, 86
1, 43751, Note_on_c, 9, 51, 48
1, 43751, Note_on_c, 11, 31, 82
1, 43752, Note_on_c, 9, 51, 0
1, 43753, Note_on_c, 0, 57, 54
1, 43754, Note_on_c, 9, 69, 28
1, 43755, Note_on_c, 9, 69, 0
1, 43755, Note_on_c, 2, 68, 0
1, 43758, Note_on_c, 2, 63, 0
1, 43764, Note_on_c, 0, 57, 0
1, 43773, Note_on_c, 1, 37, 103
1, 43773, Note_on_c, 11, 37, 99
1, 43774, Note_on_c, 0, 61, 66
1, 43774, Note_on_c, 0, 56, 55
1, 43774, Note_on_c, 0, 65, 68
1, 43774, Note_on_c, 0, 63, 61
1, 43775, Note_on_c, 12, 68, 71
1, 43776, Note_on_c, 10, 57, 0
1, 43776, Note_on_c, 9, 51, 95
1, 43776, Note_on_c, 10, 56, 57
1, 43776, Note_on_c, 10, 65, 57
1, 43777, Note_on_c, 9, 51, 0
1, 43777, Note_on_c, 9, 36, 107
1, 43778, Note_on_c, 9, 36, 0
1, 43782, Note_on_c, 11, 31, 0
1, 43782, Note_on_c, 1, 31, 0
1, 44160, Note_on_c, 10, 56, 0
1, 44160, Note_on_c, 10, 63, 0
1, 44160, Note_on_c, 10, 65, 0
1, 44160, Note_on_c, 10, 68, 0
1, 44160, Note_on_c, 10, 61, 0
1, 44174, Note_on_c, 1, 37, 0
1, 44174, Note_on_c, 11, 37, 0
1, 44178, Note_on_c, 5, 73, 0
1, 44182, Note_on_c, 0, 63, 0
1, 44182, Note_on_c, 0, 56, 0
1, 44183, Note_on_c, 0, 61, 0
1, 44184, Note_on_c, 0, 65, 0
1, 44202, Note_on_c, 13, 73, 0
1, 44225, Note_on_c, 12, 68, 0
1, 44225, End_track
0, 0, End_of_file
