0, 0, Header, 1, 21, 240
1, 0, Start_track
1, 0, Time_signature, 4, 2, 24, 8
1, 0, Tempo, 612245
1, 960, Marker_t, "THAT OLD FEELING......................thank you Frank.... ;-)"
1, 83520, Marker_t, "thanks for listening..................."
1, 83520, End_track
2, 0, Start_track
2, 0, Title_t, "   "" THAT OLD FEELING """
2, 0, End_track
3, 0, Start_track
3, 0, End_track
4, 0, Start_track
4, 0, Title_t, "Orchestration & midi prep by"
4, 0, End_track
5, 0, Start_track
5, 0, Title_t, "            MEL WEBB"
5, 0, End_track
6, 0, Start_track
6, 0, End_track
7, 0, Start_track
7, 0, Title_t, "Bass / Acoustic bass"
7, 0, Control_c, 1, 0, 0
7, 0, Control_c, 1, 32, 0
7, 0, Program_c, 1, 32
7, 0, Control_c, 1, 7, 75
7, 0, Control_c, 1, 10, 64
7, 0, Control_c, 1, 123, 0
7, 0, Control_c, 1, 91, 40
7, 0, Control_c, 1, 93, 0
7, 0, Control_c, 1, 64, 0
7, 1920, Note_on_c, 1, 39, 82
7, 2400, Note_off_c, 1, 39, 64
7, 2400, Note_on_c, 1, 43, 85
7, 2720, Note_on_c, 1, 31, 47
7, 2740, Note_off_c, 1, 43, 64
7, 2774, Note_off_c, 1, 31, 64
7, 2800, Note_on_c, 1, 43, 82
7, 2824, Note_off_c, 1, 43, 64
7, 2880, Note_on_c, 1, 39, 70
7, 3120, Note_off_c, 1, 39, 64
7, 3120, Note_on_c, 1, 39, 68
7, 3288, Note_off_c, 1, 39, 64
7, 3296, Note_on_c, 1, 27, 73
7, 3338, Note_off_c, 1, 27, 64
7, 3360, Note_on_c, 1, 39, 85
7, 3680, Note_on_c, 1, 27, 47
7, 3700, Note_off_c, 1, 39, 64
7, 3734, Note_off_c, 1, 27, 64
7, 3760, Note_on_c, 1, 39, 82
7, 3784, Note_off_c, 1, 39, 64
7, 3840, Note_on_c, 1, 34, 76
7, 4186, Note_off_c, 1, 34, 64
7, 4256, Note_on_c, 1, 34, 84
7, 4320, Note_on_c, 1, 41, 68
7, 4356, Note_off_c, 1, 34, 64
7, 4656, Note_off_c, 1, 41, 64
7, 4736, Note_on_c, 1, 41, 65
7, 4790, Note_off_c, 1, 41, 64
7, 4800, Note_on_c, 1, 36, 69
7, 5106, Note_off_c, 1, 36, 64
7, 5212, Note_on_c, 1, 36, 69
7, 5280, Note_on_c, 1, 43, 68
7, 5316, Note_off_c, 1, 36, 64
7, 5388, Note_off_c, 1, 43, 64
7, 5452, Note_on_c, 1, 43, 78
7, 5520, Note_on_c, 1, 42, 77
7, 5536, Note_off_c, 1, 43, 64
7, 5760, Note_off_c, 1, 42, 64
7, 5760, Note_on_c, 1, 41, 70
7, 6240, Note_off_c, 1, 41, 64
7, 6240, Note_on_c, 1, 36, 82
7, 6720, Note_off_c, 1, 36, 64
7, 6720, Note_on_c, 1, 41, 82
7, 7200, Note_on_c, 1, 48, 85
7, 7218, Note_off_c, 1, 41, 64
7, 7616, Note_off_c, 1, 48, 64
7, 7616, Note_on_c, 1, 41, 82
7, 7660, Note_off_c, 1, 41, 64
7, 7680, Note_on_c, 1, 44, 76
7, 8026, Note_off_c, 1, 44, 64
7, 8096, Note_on_c, 1, 44, 84
7, 8160, Note_on_c, 1, 39, 68
7, 8196, Note_off_c, 1, 44, 64
7, 8496, Note_off_c, 1, 39, 64
7, 8576, Note_on_c, 1, 39, 65
7, 8630, Note_off_c, 1, 39, 64
7, 8640, Note_on_c, 1, 34, 80
7, 9028, Note_off_c, 1, 34, 64
7, 9056, Note_on_c, 1, 34, 81
7, 9120, Note_off_c, 1, 34, 64
7, 9120, Note_on_c, 1, 35, 81
7, 9246, Note_off_c, 1, 35, 64
7, 9296, Note_on_c, 1, 35, 71
7, 9360, Note_on_c, 1, 41, 73
7, 9376, Note_off_c, 1, 35, 64
7, 9600, Note_off_c, 1, 41, 64
7, 9600, Note_on_c, 1, 36, 78
7, 10070, Note_off_c, 1, 36, 64
7, 10080, Note_on_c, 1, 43, 82
7, 10496, Note_on_c, 1, 24, 60
7, 10510, Note_off_c, 1, 43, 64
7, 10518, Note_off_c, 1, 24, 64
7, 10560, Note_on_c, 1, 43, 82
7, 11040, Note_on_c, 1, 50, 85
7, 11058, Note_off_c, 1, 43, 64
7, 11456, Note_off_c, 1, 50, 64
7, 11456, Note_on_c, 1, 43, 82
7, 11500, Note_off_c, 1, 43, 64
7, 11520, Note_on_c, 1, 34, 76
7, 12000, Note_on_c, 1, 41, 61
7, 12028, Note_off_c, 1, 34, 64
7, 12480, Note_off_c, 1, 41, 64
7, 12480, Note_on_c, 1, 36, 78
7, 12950, Note_off_c, 1, 36, 64
7, 12960, Note_on_c, 1, 43, 82
7, 13376, Note_on_c, 1, 24, 60
7, 13390, Note_off_c, 1, 43, 64
7, 13398, Note_off_c, 1, 24, 64
7, 13440, Note_on_c, 1, 41, 85
7, 13920, Note_off_c, 1, 41, 64
7, 13920, Note_on_c, 1, 36, 85
7, 14292, Note_off_c, 1, 36, 64
7, 14336, Note_on_c, 1, 42, 80
7, 14400, Note_off_c, 1, 42, 64
7, 14400, Note_on_c, 1, 41, 76
7, 14880, Note_on_c, 1, 48, 61
7, 14908, Note_off_c, 1, 41, 64
7, 15360, Note_off_c, 1, 48, 64
7, 15360, Note_on_c, 1, 44, 78
7, 15830, Note_off_c, 1, 44, 64
7, 15840, Note_on_c, 1, 39, 82
7, 16256, Note_on_c, 1, 32, 60
7, 16270, Note_off_c, 1, 39, 64
7, 16278, Note_off_c, 1, 32, 64
7, 16320, Note_on_c, 1, 41, 85
7, 16640, Note_on_c, 1, 29, 47
7, 16660, Note_off_c, 1, 41, 64
7, 16694, Note_off_c, 1, 29, 64
7, 16720, Note_on_c, 1, 41, 82
7, 16744, Note_off_c, 1, 41, 64
7, 16800, Note_on_c, 1, 34, 70
7, 17280, Note_off_c, 1, 34, 64
7, 17280, Note_on_c, 1, 39, 73
7, 17508, Note_off_c, 1, 39, 64
7, 17520, Note_on_c, 1, 42, 67
7, 17760, Note_off_c, 1, 42, 64
7, 17760, Note_on_c, 1, 43, 67
7, 18000, Note_off_c, 1, 43, 64
7, 18000, Note_on_c, 1, 40, 74
7, 18240, Note_off_c, 1, 40, 64
7, 18240, Note_on_c, 1, 39, 65
7, 18480, Note_off_c, 1, 39, 64
7, 18480, Note_on_c, 1, 39, 70
7, 18608, Note_off_c, 1, 39, 64
7, 18658, Note_on_c, 1, 39, 67
7, 18720, Note_off_c, 1, 39, 64
7, 18720, Note_on_c, 1, 39, 71
7, 18960, Note_on_c, 1, 46, 70
7, 19004, Note_off_c, 1, 39, 64
7, 19200, Note_off_c, 1, 46, 64
7, 19200, Note_on_c, 1, 34, 74
7, 19358, Note_off_c, 1, 34, 64
7, 19376, Note_on_c, 1, 22, 82
7, 19422, Note_off_c, 1, 22, 64
7, 19440, Note_on_c, 1, 36, 74
7, 19678, Note_off_c, 1, 36, 64
7, 19680, Note_on_c, 1, 37, 54
7, 19920, Note_off_c, 1, 37, 64
7, 19920, Note_on_c, 1, 41, 67
7, 20088, Note_off_c, 1, 41, 64
7, 20096, Note_on_c, 1, 34, 72
7, 20160, Note_off_c, 1, 34, 64
7, 20160, Note_on_c, 1, 36, 85
7, 20248, Note_off_c, 1, 36, 64
7, 20338, Note_on_c, 1, 36, 73
7, 20400, Note_on_c, 1, 38, 64
7, 20442, Note_off_c, 1, 36, 64
7, 20640, Note_off_c, 1, 38, 64
7, 20640, Note_on_c, 1, 40, 75
7, 20878, Note_off_c, 1, 40, 64
7, 20880, Note_on_c, 1, 43, 67
7, 21120, Note_off_c, 1, 43, 64
7, 21120, Note_on_c, 1, 41, 67
7, 21360, Note_off_c, 1, 41, 64
7, 21360, Note_on_c, 1, 37, 74
7, 21600, Note_off_c, 1, 37, 64
7, 21600, Note_on_c, 1, 36, 77
7, 21728, Note_off_c, 1, 36, 64
7, 21778, Note_on_c, 1, 36, 70
7, 21840, Note_on_c, 1, 43, 63
7, 21848, Note_off_c, 1, 36, 64
7, 22080, Note_off_c, 1, 43, 64
7, 22080, Note_on_c, 1, 41, 89
7, 22258, Note_on_c, 1, 36, 40
7, 22266, Note_off_c, 1, 41, 64
7, 22320, Note_off_c, 1, 36, 64
7, 22320, Note_on_c, 1, 48, 72
7, 22530, Note_off_c, 1, 48, 64
7, 22560, Note_on_c, 1, 44, 80
7, 22800, Note_off_c, 1, 44, 64
7, 22800, Note_on_c, 1, 41, 82
7, 22902, Note_off_c, 1, 41, 64
7, 22978, Note_on_c, 1, 36, 60
7, 23040, Note_off_c, 1, 36, 64
7, 23040, Note_on_c, 1, 44, 76
7, 23280, Note_on_c, 1, 56, 59
7, 23298, Note_off_c, 1, 44, 64
7, 23520, Note_on_c, 1, 51, 71
7, 23548, Note_off_c, 1, 56, 64
7, 23760, Note_on_c, 1, 47, 77
7, 23766, Note_off_c, 1, 51, 64
7, 24000, Note_off_c, 1, 47, 64
7, 24000, Note_on_c, 1, 43, 71
7, 24240, Note_on_c, 1, 45, 73
7, 24280, Note_off_c, 1, 43, 64
7, 24480, Note_on_c, 1, 47, 68
7, 24502, Note_off_c, 1, 45, 64
7, 24720, Note_on_c, 1, 50, 69
7, 24760, Note_off_c, 1, 47, 64
7, 24960, Note_off_c, 1, 50, 64
7, 24960, Note_on_c, 1, 36, 78
7, 25128, Note_on_c, 1, 24, 55
7, 25176, Note_off_c, 1, 36, 64
7, 25192, Note_off_c, 1, 24, 64
7, 25200, Note_on_c, 1, 37, 78
7, 25440, Note_off_c, 1, 37, 64
7, 25440, Note_on_c, 1, 36, 78
7, 25608, Note_on_c, 1, 24, 55
7, 25656, Note_off_c, 1, 36, 64
7, 25672, Note_off_c, 1, 24, 64
7, 25680, Note_on_c, 1, 35, 78
7, 25920, Note_off_c, 1, 35, 64
7, 25920, Note_on_c, 1, 46, 71
7, 26160, Note_on_c, 1, 41, 70
7, 26190, Note_off_c, 1, 46, 64
7, 26400, Note_off_c, 1, 41, 64
7, 26400, Note_on_c, 1, 36, 67
7, 26640, Note_off_c, 1, 36, 64
7, 26640, Note_on_c, 1, 42, 74
7, 26880, Note_off_c, 1, 42, 64
7, 26880, Note_on_c, 1, 41, 69
7, 27120, Note_off_c, 1, 41, 64
7, 27120, Note_on_c, 1, 48, 68
7, 27362, Note_off_c, 1, 48, 64
7, 27362, Note_on_c, 1, 44, 63
7, 27604, Note_off_c, 1, 44, 64
7, 27604, Note_on_c, 1, 41, 81
7, 27840, Note_off_c, 1, 41, 64
7, 27840, Note_on_c, 1, 44, 76
7, 28080, Note_on_c, 1, 56, 59
7, 28098, Note_off_c, 1, 44, 64
7, 28320, Note_on_c, 1, 51, 71
7, 28348, Note_off_c, 1, 56, 64
7, 28560, Note_on_c, 1, 47, 77
7, 28566, Note_off_c, 1, 51, 64
7, 28800, Note_off_c, 1, 47, 64
7, 28800, Note_on_c, 1, 36, 69
7, 29040, Note_on_c, 1, 43, 67
7, 29084, Note_off_c, 1, 36, 64
7, 29280, Note_on_c, 1, 48, 73
7, 29298, Note_off_c, 1, 43, 64
7, 29520, Note_on_c, 1, 43, 84
7, 29530, Note_off_c, 1, 48, 64
7, 29688, Note_on_c, 1, 42, 60
7, 29702, Note_off_c, 1, 43, 64
7, 29760, Note_off_c, 1, 42, 64
7, 29760, Note_on_c, 1, 41, 69
7, 30000, Note_on_c, 1, 48, 67
7, 30044, Note_off_c, 1, 41, 64
7, 30240, Note_on_c, 1, 53, 73
7, 30258, Note_off_c, 1, 48, 64
7, 30480, Note_on_c, 1, 48, 84
7, 30490, Note_off_c, 1, 53, 64
7, 30648, Note_on_c, 1, 42, 60
7, 30662, Note_off_c, 1, 48, 64
7, 30720, Note_off_c, 1, 42, 64
7, 30720, Note_on_c, 1, 41, 84
7, 30896, Note_on_c, 1, 36, 60
7, 30936, Note_off_c, 1, 36, 64
7, 30950, Note_off_c, 1, 41, 64
7, 30960, Note_on_c, 1, 48, 77
7, 31136, Note_off_c, 1, 48, 64
7, 31136, Note_on_c, 1, 36, 62
7, 31170, Note_off_c, 1, 36, 64
7, 31200, Note_on_c, 1, 34, 69
7, 31348, Note_off_c, 1, 34, 64
7, 31376, Note_on_c, 1, 34, 81
7, 31428, Note_off_c, 1, 34, 64
7, 31440, Note_on_c, 1, 38, 62
7, 31680, Note_off_c, 1, 38, 64
7, 31680, Note_on_c, 1, 39, 89
7, 31858, Note_on_c, 1, 34, 40
7, 31866, Note_off_c, 1, 39, 64
7, 31920, Note_off_c, 1, 34, 64
7, 31920, Note_on_c, 1, 46, 72
7, 32130, Note_off_c, 1, 46, 64
7, 32160, Note_on_c, 1, 43, 80
7, 32400, Note_off_c, 1, 43, 64
7, 32400, Note_on_c, 1, 39, 82
7, 32502, Note_off_c, 1, 39, 64
7, 32578, Note_on_c, 1, 34, 60
7, 32640, Note_off_c, 1, 34, 64
7, 32640, Note_on_c, 1, 39, 73
7, 32868, Note_off_c, 1, 39, 64
7, 32880, Note_on_c, 1, 42, 67
7, 33120, Note_off_c, 1, 42, 64
7, 33120, Note_on_c, 1, 43, 73
7, 33348, Note_off_c, 1, 43, 64
7, 33360, Note_on_c, 1, 38, 67
7, 33600, Note_off_c, 1, 38, 64
7, 33600, Note_on_c, 1, 39, 67
7, 33780, Note_off_c, 1, 39, 64
7, 33780, Note_on_c, 1, 27, 64
7, 33796, Note_off_c, 1, 27, 64
7, 33840, Note_on_c, 1, 39, 70
7, 33968, Note_off_c, 1, 39, 64
7, 34018, Note_on_c, 1, 39, 67
7, 34080, Note_off_c, 1, 39, 64
7, 34080, Note_on_c, 1, 39, 69
7, 34228, Note_off_c, 1, 39, 64
7, 34256, Note_on_c, 1, 39, 81
7, 34308, Note_off_c, 1, 39, 64
7, 34320, Note_on_c, 1, 33, 62
7, 34560, Note_off_c, 1, 33, 64
7, 34560, Note_on_c, 1, 34, 89
7, 34738, Note_on_c, 1, 29, 40
7, 34746, Note_off_c, 1, 34, 64
7, 34800, Note_off_c, 1, 29, 64
7, 34800, Note_on_c, 1, 41, 72
7, 35010, Note_off_c, 1, 41, 64
7, 35040, Note_on_c, 1, 37, 80
7, 35280, Note_off_c, 1, 37, 64
7, 35280, Note_on_c, 1, 34, 82
7, 35382, Note_off_c, 1, 34, 64
7, 35458, Note_on_c, 1, 29, 60
7, 35520, Note_off_c, 1, 29, 64
7, 35520, Note_on_c, 1, 36, 87
7, 35698, Note_on_c, 1, 31, 30
7, 35722, Note_off_c, 1, 36, 64
7, 35760, Note_off_c, 1, 31, 64
7, 35760, Note_on_c, 1, 38, 81
7, 36000, Note_on_c, 1, 39, 83
7, 36034, Note_off_c, 1, 38, 64
7, 36178, Note_on_c, 1, 31, 56
7, 36204, Note_off_c, 1, 39, 64
7, 36228, Note_off_c, 1, 31, 64
7, 36240, Note_on_c, 1, 40, 87
7, 36466, Note_off_c, 1, 40, 64
7, 36480, Note_on_c, 1, 41, 67
7, 36720, Note_off_c, 1, 41, 64
7, 36720, Note_on_c, 1, 41, 74
7, 36960, Note_off_c, 1, 41, 64
7, 36960, Note_on_c, 1, 48, 68
7, 37036, Note_off_c, 1, 48, 64
7, 37142, Note_on_c, 1, 48, 54
7, 37210, Note_on_c, 1, 43, 75
7, 37218, Note_off_c, 1, 48, 64
7, 37440, Note_off_c, 1, 43, 64
7, 37440, Note_on_c, 1, 41, 85
7, 37528, Note_off_c, 1, 41, 64
7, 37618, Note_on_c, 1, 41, 73
7, 37680, Note_on_c, 1, 43, 64
7, 37722, Note_off_c, 1, 41, 64
7, 37920, Note_off_c, 1, 43, 64
7, 37920, Note_on_c, 1, 44, 75
7, 38158, Note_off_c, 1, 44, 64
7, 38160, Note_on_c, 1, 48, 67
7, 38400, Note_off_c, 1, 48, 64
7, 38400, Note_on_c, 1, 44, 69
7, 38640, Note_off_c, 1, 44, 64
7, 38640, Note_on_c, 1, 51, 68
7, 38882, Note_off_c, 1, 51, 64
7, 38882, Note_on_c, 1, 47, 63
7, 39124, Note_off_c, 1, 47, 64
7, 39124, Note_on_c, 1, 44, 81
7, 39360, Note_off_c, 1, 44, 64
7, 39360, Note_on_c, 1, 34, 67
7, 39600, Note_off_c, 1, 34, 64
7, 39600, Note_on_c, 1, 36, 74
7, 39840, Note_off_c, 1, 36, 64
7, 39840, Note_on_c, 1, 47, 71
7, 40080, Note_on_c, 1, 41, 70
7, 40110, Note_off_c, 1, 47, 64
7, 40320, Note_off_c, 1, 41, 64
7, 40320, Note_on_c, 1, 36, 74
7, 40458, Note_off_c, 1, 36, 64
7, 40498, Note_on_c, 1, 24, 82
7, 40544, Note_off_c, 1, 24, 64
7, 40560, Note_on_c, 1, 38, 74
7, 40778, Note_off_c, 1, 38, 64
7, 40800, Note_on_c, 1, 39, 54
7, 41024, Note_off_c, 1, 39, 64
7, 41040, Note_on_c, 1, 43, 67
7, 41206, Note_off_c, 1, 43, 64
7, 41218, Note_on_c, 1, 36, 72
7, 41280, Note_off_c, 1, 36, 64
7, 41280, Note_on_c, 1, 43, 71
7, 41520, Note_on_c, 1, 45, 73
7, 41560, Note_off_c, 1, 43, 64
7, 41760, Note_on_c, 1, 47, 68
7, 41782, Note_off_c, 1, 45, 64
7, 42000, Note_on_c, 1, 50, 69
7, 42040, Note_off_c, 1, 47, 64
7, 42240, Note_off_c, 1, 50, 64
7, 42240, Note_on_c, 1, 34, 74
7, 42398, Note_off_c, 1, 34, 64
7, 42416, Note_on_c, 1, 22, 82
7, 42462, Note_off_c, 1, 22, 64
7, 42480, Note_on_c, 1, 36, 74
7, 42718, Note_off_c, 1, 36, 64
7, 42720, Note_on_c, 1, 37, 54
7, 42960, Note_off_c, 1, 37, 64
7, 42960, Note_on_c, 1, 41, 67
7, 43128, Note_off_c, 1, 41, 64
7, 43136, Note_on_c, 1, 34, 72
7, 43200, Note_off_c, 1, 34, 64
7, 43200, Note_on_c, 1, 36, 70
7, 43334, Note_off_c, 1, 36, 64
7, 43376, Note_on_c, 1, 24, 77
7, 43428, Note_off_c, 1, 24, 64
7, 43440, Note_on_c, 1, 34, 62
7, 43676, Note_off_c, 1, 34, 64
7, 43680, Note_on_c, 1, 32, 68
7, 43920, Note_on_c, 1, 31, 64
7, 43936, Note_off_c, 1, 32, 64
7, 44096, Note_on_c, 1, 42, 79
7, 44134, Note_off_c, 1, 31, 64
7, 44160, Note_off_c, 1, 42, 64
7, 44160, Note_on_c, 1, 41, 69
7, 44400, Note_off_c, 1, 41, 64
7, 44400, Note_on_c, 1, 48, 68
7, 44642, Note_off_c, 1, 48, 64
7, 44642, Note_on_c, 1, 45, 63
7, 44884, Note_off_c, 1, 45, 64
7, 44884, Note_on_c, 1, 41, 81
7, 45120, Note_off_c, 1, 41, 64
7, 45120, Note_on_c, 1, 41, 85
7, 45208, Note_off_c, 1, 41, 64
7, 45298, Note_on_c, 1, 41, 73
7, 45360, Note_on_c, 1, 43, 64
7, 45402, Note_off_c, 1, 41, 64
7, 45600, Note_off_c, 1, 43, 64
7, 45600, Note_on_c, 1, 45, 75
7, 45838, Note_off_c, 1, 45, 64
7, 45840, Note_on_c, 1, 48, 67
7, 46080, Note_off_c, 1, 48, 64
7, 46080, Note_on_c, 1, 44, 85
7, 46168, Note_off_c, 1, 44, 64
7, 46258, Note_on_c, 1, 44, 73
7, 46320, Note_on_c, 1, 46, 64
7, 46362, Note_off_c, 1, 44, 64
7, 46560, Note_off_c, 1, 46, 64
7, 46560, Note_on_c, 1, 47, 75
7, 46798, Note_off_c, 1, 47, 64
7, 46800, Note_on_c, 1, 51, 67
7, 47040, Note_off_c, 1, 51, 64
7, 47040, Note_on_c, 1, 41, 77
7, 47168, Note_off_c, 1, 41, 64
7, 47218, Note_on_c, 1, 41, 70
7, 47280, Note_on_c, 1, 48, 63
7, 47288, Note_off_c, 1, 41, 64
7, 47520, Note_off_c, 1, 48, 64
7, 47520, Note_on_c, 1, 46, 68
7, 47596, Note_off_c, 1, 46, 64
7, 47702, Note_on_c, 1, 46, 54
7, 47770, Note_on_c, 1, 41, 75
7, 47778, Note_off_c, 1, 46, 64
7, 48000, Note_off_c, 1, 41, 64
7, 48000, Note_on_c, 1, 39, 67
7, 48240, Note_off_c, 1, 39, 64
7, 48240, Note_on_c, 1, 39, 74
7, 48480, Note_off_c, 1, 39, 64
7, 48480, Note_on_c, 1, 43, 69
7, 48628, Note_off_c, 1, 43, 64
7, 48656, Note_on_c, 1, 43, 81
7, 48708, Note_off_c, 1, 43, 64
7, 48720, Note_on_c, 1, 38, 62
7, 48960, Note_off_c, 1, 38, 64
7, 48960, Note_on_c, 1, 39, 70
7, 49088, Note_off_c, 1, 39, 64
7, 49138, Note_on_c, 1, 39, 67
7, 49200, Note_off_c, 1, 39, 64
7, 49200, Note_on_c, 1, 39, 67
7, 49380, Note_off_c, 1, 39, 64
7, 49380, Note_on_c, 1, 27, 64
7, 49396, Note_off_c, 1, 27, 64
7, 49440, Note_on_c, 1, 39, 67
7, 49680, Note_off_c, 1, 39, 64
7, 49680, Note_on_c, 1, 39, 74
7, 49920, Note_off_c, 1, 39, 64
7, 49920, Note_on_c, 1, 34, 71
7, 50160, Note_on_c, 1, 36, 73
7, 50200, Note_off_c, 1, 34, 64
7, 50400, Note_on_c, 1, 37, 68
7, 50422, Note_off_c, 1, 36, 64
7, 50640, Note_on_c, 1, 41, 69
7, 50680, Note_off_c, 1, 37, 64
7, 50880, Note_off_c, 1, 41, 64
7, 50880, Note_on_c, 1, 36, 69
7, 51120, Note_on_c, 1, 43, 67
7, 51164, Note_off_c, 1, 36, 64
7, 51360, Note_on_c, 1, 48, 73
7, 51378, Note_off_c, 1, 43, 64
7, 51600, Note_on_c, 1, 43, 84
7, 51610, Note_off_c, 1, 48, 64
7, 51768, Note_on_c, 1, 42, 60
7, 51782, Note_off_c, 1, 43, 64
7, 51840, Note_off_c, 1, 42, 64
7, 51840, Note_on_c, 1, 41, 73
7, 52068, Note_off_c, 1, 41, 64
7, 52080, Note_on_c, 1, 35, 67
7, 52320, Note_off_c, 1, 35, 64
7, 52320, Note_on_c, 1, 36, 77
7, 52448, Note_off_c, 1, 36, 64
7, 52498, Note_on_c, 1, 36, 70
7, 52560, Note_on_c, 1, 43, 63
7, 52568, Note_off_c, 1, 36, 64
7, 52800, Note_off_c, 1, 43, 64
7, 52800, Note_on_c, 1, 41, 76
7, 53040, Note_off_c, 1, 41, 64
7, 53040, Note_on_c, 1, 43, 76
7, 53266, Note_off_c, 1, 43, 64
7, 53280, Note_on_c, 1, 44, 66
7, 53520, Note_off_c, 1, 44, 64
7, 53520, Note_on_c, 1, 48, 69
7, 53690, Note_off_c, 1, 48, 64
7, 53690, Note_on_c, 1, 41, 66
7, 53760, Note_off_c, 1, 41, 64
7, 53760, Note_on_c, 1, 44, 71
7, 54000, Note_on_c, 1, 46, 73
7, 54040, Note_off_c, 1, 44, 64
7, 54240, Note_on_c, 1, 47, 68
7, 54262, Note_off_c, 1, 46, 64
7, 54480, Note_on_c, 1, 51, 69
7, 54520, Note_off_c, 1, 47, 64
7, 54720, Note_off_c, 1, 51, 64
7, 54720, Note_on_c, 1, 43, 85
7, 54808, Note_off_c, 1, 43, 64
7, 54898, Note_on_c, 1, 43, 73
7, 54960, Note_on_c, 1, 45, 64
7, 55002, Note_off_c, 1, 43, 64
7, 55200, Note_off_c, 1, 45, 64
7, 55200, Note_on_c, 1, 47, 75
7, 55438, Note_off_c, 1, 47, 64
7, 55440, Note_on_c, 1, 50, 67
7, 55680, Note_off_c, 1, 50, 64
7, 55680, Note_on_c, 1, 36, 64
7, 55882, Note_off_c, 1, 36, 64
7, 55920, Note_on_c, 1, 36, 79
7, 56160, Note_off_c, 1, 36, 64
7, 56160, Note_on_c, 1, 36, 78
7, 56328, Note_on_c, 1, 24, 55
7, 56376, Note_off_c, 1, 36, 64
7, 56392, Note_off_c, 1, 24, 64
7, 56400, Note_on_c, 1, 35, 78
7, 56640, Note_off_c, 1, 35, 64
7, 56640, Note_on_c, 1, 34, 67
7, 56880, Note_off_c, 1, 34, 64
7, 56880, Note_on_c, 1, 37, 74
7, 57120, Note_off_c, 1, 37, 64
7, 57120, Note_on_c, 1, 36, 72
7, 57296, Note_on_c, 1, 24, 65
7, 57302, Note_off_c, 1, 36, 64
7, 57358, Note_off_c, 1, 24, 64
7, 57360, Note_on_c, 1, 36, 74
7, 57598, Note_off_c, 1, 36, 64
7, 57600, Note_on_c, 1, 41, 71
7, 57840, Note_on_c, 1, 43, 73
7, 57880, Note_off_c, 1, 41, 64
7, 58080, Note_on_c, 1, 44, 68
7, 58102, Note_off_c, 1, 43, 64
7, 58320, Note_on_c, 1, 48, 69
7, 58360, Note_off_c, 1, 44, 64
7, 58560, Note_off_c, 1, 48, 64
7, 58560, Note_on_c, 1, 44, 85
7, 58648, Note_off_c, 1, 44, 64
7, 58738, Note_on_c, 1, 44, 73
7, 58800, Note_on_c, 1, 46, 64
7, 58842, Note_off_c, 1, 44, 64
7, 59040, Note_off_c, 1, 46, 64
7, 59040, Note_on_c, 1, 47, 75
7, 59278, Note_off_c, 1, 47, 64
7, 59280, Note_on_c, 1, 51, 67
7, 59520, Note_off_c, 1, 51, 64
7, 59520, Note_on_c, 1, 36, 89
7, 59698, Note_on_c, 1, 31, 40
7, 59706, Note_off_c, 1, 36, 64
7, 59760, Note_off_c, 1, 31, 64
7, 59760, Note_on_c, 1, 43, 72
7, 59970, Note_off_c, 1, 43, 64
7, 60000, Note_on_c, 1, 39, 80
7, 60240, Note_off_c, 1, 39, 64
7, 60240, Note_on_c, 1, 36, 82
7, 60342, Note_off_c, 1, 36, 64
7, 60418, Note_on_c, 1, 31, 60
7, 60480, Note_off_c, 1, 31, 64
7, 60480, Note_on_c, 1, 41, 69
7, 60720, Note_off_c, 1, 41, 64
7, 60720, Note_on_c, 1, 48, 68
7, 60962, Note_off_c, 1, 48, 64
7, 60962, Note_on_c, 1, 45, 63
7, 61204, Note_off_c, 1, 45, 64
7, 61204, Note_on_c, 1, 41, 81
7, 61440, Note_off_c, 1, 41, 64
7, 61440, Note_on_c, 1, 41, 64
7, 61642, Note_off_c, 1, 41, 64
7, 61680, Note_on_c, 1, 41, 79
7, 61920, Note_off_c, 1, 41, 64
7, 61920, Note_on_c, 1, 34, 77
7, 62048, Note_off_c, 1, 34, 64
7, 62098, Note_on_c, 1, 34, 70
7, 62160, Note_on_c, 1, 41, 63
7, 62168, Note_off_c, 1, 34, 64
7, 62400, Note_off_c, 1, 41, 64
7, 62400, Note_on_c, 1, 39, 69
7, 62640, Note_off_c, 1, 39, 64
7, 62640, Note_on_c, 1, 46, 68
7, 62882, Note_off_c, 1, 46, 64
7, 62882, Note_on_c, 1, 43, 63
7, 63124, Note_off_c, 1, 43, 64
7, 63124, Note_on_c, 1, 39, 81
7, 63360, Note_off_c, 1, 39, 64
7, 63360, Note_on_c, 1, 39, 76
7, 63776, Note_off_c, 1, 39, 64
7, 63776, Note_on_c, 1, 44, 78
7, 63840, Note_off_c, 1, 44, 64
7, 63840, Note_on_c, 1, 43, 80
7, 64228, Note_off_c, 1, 43, 64
7, 64256, Note_on_c, 1, 38, 81
7, 64320, Note_off_c, 1, 38, 64
7, 64320, Note_on_c, 1, 39, 68
7, 64488, Note_off_c, 1, 39, 64
7, 64496, Note_on_c, 1, 27, 73
7, 64538, Note_off_c, 1, 27, 64
7, 64560, Note_on_c, 1, 39, 70
7, 64800, Note_off_c, 1, 39, 64
7, 64800, Note_on_c, 1, 39, 82
7, 65280, Note_off_c, 1, 39, 64
7, 65280, Note_on_c, 1, 34, 82
7, 65760, Note_on_c, 1, 41, 85
7, 65778, Note_off_c, 1, 34, 64
7, 66176, Note_off_c, 1, 41, 64
7, 66176, Note_on_c, 1, 34, 82
7, 66220, Note_off_c, 1, 34, 64
7, 66240, Note_on_c, 1, 36, 89
7, 66734, Note_off_c, 1, 36, 64
7, 66734, Note_on_c, 1, 43, 82
7, 67156, Note_off_c, 1, 43, 64
7, 67200, Note_on_c, 1, 41, 70
7, 67680, Note_off_c, 1, 41, 64
7, 67680, Note_on_c, 1, 36, 85
7, 68080, Note_off_c, 1, 36, 64
7, 68080, Note_on_c, 1, 24, 55
7, 68118, Note_off_c, 1, 24, 64
7, 68160, Note_on_c, 1, 41, 76
7, 68506, Note_off_c, 1, 41, 64
7, 68576, Note_on_c, 1, 41, 84
7, 68640, Note_on_c, 1, 36, 68
7, 68676, Note_off_c, 1, 41, 64
7, 68976, Note_off_c, 1, 36, 64
7, 69056, Note_on_c, 1, 36, 65
7, 69110, Note_off_c, 1, 36, 64
7, 69120, Note_on_c, 1, 44, 82
7, 69600, Note_on_c, 1, 51, 85
7, 69618, Note_off_c, 1, 44, 64
7, 70016, Note_off_c, 1, 51, 64
7, 70016, Note_on_c, 1, 44, 82
7, 70060, Note_off_c, 1, 44, 64
7, 70080, Note_on_c, 1, 34, 85
7, 70480, Note_off_c, 1, 34, 64
7, 70480, Note_on_c, 1, 22, 55
7, 70518, Note_off_c, 1, 22, 64
7, 70560, Note_on_c, 1, 35, 76
7, 70976, Note_off_c, 1, 35, 64
7, 70976, Note_on_c, 1, 37, 78
7, 71040, Note_off_c, 1, 37, 64
7, 71040, Note_on_c, 1, 36, 76
7, 71386, Note_off_c, 1, 36, 64
7, 71456, Note_on_c, 1, 36, 84
7, 71520, Note_on_c, 1, 43, 68
7, 71556, Note_off_c, 1, 36, 64
7, 71856, Note_off_c, 1, 43, 64
7, 71936, Note_on_c, 1, 43, 65
7, 71990, Note_off_c, 1, 43, 64
7, 72000, Note_on_c, 1, 43, 78
7, 72470, Note_off_c, 1, 43, 64
7, 72480, Note_on_c, 1, 38, 82
7, 72896, Note_on_c, 1, 31, 60
7, 72910, Note_off_c, 1, 38, 64
7, 72918, Note_off_c, 1, 31, 64
7, 72960, Note_on_c, 1, 34, 76
7, 73440, Note_on_c, 1, 41, 61
7, 73468, Note_off_c, 1, 34, 64
7, 73920, Note_off_c, 1, 41, 64
7, 73920, Note_on_c, 1, 36, 87
7, 74400, Note_on_c, 1, 43, 87
7, 74470, Note_off_c, 1, 36, 64
7, 74880, Note_off_c, 1, 43, 64
7, 74880, Note_on_c, 1, 41, 78
7, 75350, Note_off_c, 1, 41, 64
7, 75360, Note_on_c, 1, 36, 82
7, 75776, Note_on_c, 1, 29, 60
7, 75790, Note_off_c, 1, 36, 64
7, 75798, Note_off_c, 1, 29, 64
7, 75840, Note_on_c, 1, 41, 72
7, 76242, Note_off_c, 1, 41, 64
7, 76242, Note_on_c, 1, 48, 82
7, 76320, Note_on_c, 1, 53, 74
7, 76352, Note_off_c, 1, 48, 64
7, 76432, Note_off_c, 1, 53, 64
7, 76480, Note_on_c, 1, 48, 100
7, 76560, Note_on_c, 1, 41, 89
7, 76578, Note_off_c, 1, 48, 64
7, 76786, Note_off_c, 1, 41, 64
7, 76800, Note_on_c, 1, 44, 82
7, 77280, Note_on_c, 1, 51, 85
7, 77298, Note_off_c, 1, 44, 64
7, 77696, Note_off_c, 1, 51, 64
7, 77696, Note_on_c, 1, 44, 82
7, 77740, Note_off_c, 1, 44, 64
7, 77760, Note_on_c, 1, 41, 82
7, 78240, Note_off_c, 1, 41, 64
7, 78240, Note_on_c, 1, 34, 70
7, 78720, Note_off_c, 1, 34, 64
7, 78720, Note_on_c, 1, 39, 67
7, 78960, Note_off_c, 1, 39, 64
7, 78960, Note_on_c, 1, 39, 74
7, 79200, Note_off_c, 1, 39, 64
7, 79200, Note_on_c, 1, 43, 69
7, 79348, Note_off_c, 1, 43, 64
7, 79376, Note_on_c, 1, 43, 81
7, 79428, Note_off_c, 1, 43, 64
7, 79440, Note_on_c, 1, 38, 62
7, 79680, Note_off_c, 1, 38, 64
7, 79680, Note_on_c, 1, 39, 65
7, 79920, Note_off_c, 1, 39, 64
7, 79920, Note_on_c, 1, 39, 67
7, 80100, Note_off_c, 1, 39, 64
7, 80100, Note_on_c, 1, 27, 64
7, 80116, Note_off_c, 1, 27, 64
7, 80160, Note_on_c, 1, 39, 73
7, 80388, Note_off_c, 1, 39, 64
7, 80400, Note_on_c, 1, 33, 67
7, 80640, Note_off_c, 1, 33, 64
7, 80640, Note_on_c, 1, 34, 69
7, 80880, Note_on_c, 1, 41, 67
7, 80924, Note_off_c, 1, 34, 64
7, 81120, Note_on_c, 1, 46, 73
7, 81138, Note_off_c, 1, 41, 64
7, 81360, Note_on_c, 1, 41, 84
7, 81370, Note_off_c, 1, 46, 64
7, 81528, Note_on_c, 1, 37, 60
7, 81542, Note_off_c, 1, 41, 64
7, 81600, Note_off_c, 1, 37, 64
7, 81600, Note_on_c, 1, 36, 69
7, 81840, Note_on_c, 1, 43, 67
7, 81884, Note_off_c, 1, 36, 64
7, 82080, Note_on_c, 1, 48, 73
7, 82098, Note_off_c, 1, 43, 64
7, 82320, Note_on_c, 1, 43, 84
7, 82330, Note_off_c, 1, 48, 64
7, 82488, Note_on_c, 1, 42, 60
7, 82502, Note_off_c, 1, 43, 64
7, 82560, Note_off_c, 1, 42, 64
7, 82560, Note_on_c, 1, 41, 72
7, 82736, Note_on_c, 1, 29, 65
7, 82742, Note_off_c, 1, 41, 64
7, 82798, Note_off_c, 1, 29, 64
7, 82800, Note_on_c, 1, 41, 74
7, 83038, Note_off_c, 1, 41, 64
7, 83040, Note_on_c, 1, 36, 77
7, 83168, Note_off_c, 1, 36, 64
7, 83218, Note_on_c, 1, 36, 70
7, 83280, Note_on_c, 1, 43, 63
7, 83288, Note_off_c, 1, 36, 64
7, 83520, Note_off_c, 1, 43, 64
7, 83520, Note_on_c, 1, 41, 85
7, 83608, Note_off_c, 1, 41, 64
7, 83698, Note_on_c, 1, 41, 73
7, 83760, Note_on_c, 1, 43, 64
7, 83802, Note_off_c, 1, 41, 64
7, 84000, Note_off_c, 1, 43, 64
7, 84000, Note_on_c, 1, 44, 75
7, 84238, Note_off_c, 1, 44, 64
7, 84240, Note_on_c, 1, 48, 67
7, 84480, Note_off_c, 1, 48, 64
7, 84480, Note_on_c, 1, 44, 76
7, 84720, Note_on_c, 1, 56, 59
7, 84738, Note_off_c, 1, 44, 64
7, 84960, Note_on_c, 1, 51, 71
7, 84988, Note_off_c, 1, 56, 64
7, 85200, Note_on_c, 1, 47, 77
7, 85206, Note_off_c, 1, 51, 64
7, 85440, Note_off_c, 1, 47, 64
7, 85440, Note_on_c, 1, 43, 69
7, 85680, Note_off_c, 1, 43, 64
7, 85680, Note_on_c, 1, 50, 68
7, 85922, Note_off_c, 1, 50, 64
7, 85922, Note_on_c, 1, 47, 63
7, 86164, Note_off_c, 1, 47, 64
7, 86164, Note_on_c, 1, 43, 81
7, 86400, Note_off_c, 1, 43, 64
7, 86400, Note_on_c, 1, 36, 72
7, 86576, Note_on_c, 1, 24, 65
7, 86582, Note_off_c, 1, 36, 64
7, 86638, Note_off_c, 1, 24, 64
7, 86640, Note_on_c, 1, 36, 74
7, 86878, Note_off_c, 1, 36, 64
7, 86880, Note_on_c, 1, 48, 71
7, 87120, Note_on_c, 1, 43, 70
7, 87150, Note_off_c, 1, 48, 64
7, 87360, Note_off_c, 1, 43, 64
7, 87360, Note_on_c, 1, 34, 64
7, 87562, Note_off_c, 1, 34, 64
7, 87600, Note_on_c, 1, 34, 79
7, 87840, Note_off_c, 1, 34, 64
7, 87840, Note_on_c, 1, 36, 71
7, 88080, Note_on_c, 1, 43, 70
7, 88124, Note_off_c, 1, 36, 64
7, 88320, Note_off_c, 1, 43, 64
7, 88320, Note_on_c, 1, 41, 71
7, 88560, Note_on_c, 1, 43, 73
7, 88600, Note_off_c, 1, 41, 64
7, 88800, Note_on_c, 1, 44, 68
7, 88822, Note_off_c, 1, 43, 64
7, 89040, Note_on_c, 1, 48, 69
7, 89080, Note_off_c, 1, 44, 64
7, 89280, Note_off_c, 1, 48, 64
7, 89280, Note_on_c, 1, 44, 78
7, 89456, Note_on_c, 1, 39, 57
7, 89464, Note_off_c, 1, 44, 64
7, 89494, Note_off_c, 1, 39, 64
7, 89520, Note_on_c, 1, 46, 76
7, 89758, Note_off_c, 1, 46, 64
7, 89760, Note_on_c, 1, 47, 83
7, 89916, Note_off_c, 1, 47, 64
7, 89936, Note_on_c, 1, 39, 61
7, 89972, Note_off_c, 1, 39, 64
7, 90000, Note_on_c, 1, 51, 85
7, 90160, Note_off_c, 1, 51, 64
7, 90176, Note_on_c, 1, 39, 54
7, 90196, Note_off_c, 1, 39, 64
7, 90240, Note_on_c, 1, 36, 70
7, 90374, Note_off_c, 1, 36, 64
7, 90416, Note_on_c, 1, 24, 77
7, 90468, Note_off_c, 1, 24, 64
7, 90480, Note_on_c, 1, 34, 62
7, 90716, Note_off_c, 1, 34, 64
7, 90720, Note_on_c, 1, 32, 68
7, 90960, Note_on_c, 1, 31, 64
7, 90976, Note_off_c, 1, 32, 64
7, 91136, Note_on_c, 1, 42, 79
7, 91174, Note_off_c, 1, 31, 64
7, 91200, Note_off_c, 1, 42, 64
7, 91200, Note_on_c, 1, 41, 71
7, 91440, Note_on_c, 1, 43, 73
7, 91480, Note_off_c, 1, 41, 64
7, 91680, Note_on_c, 1, 45, 68
7, 91702, Note_off_c, 1, 43, 64
7, 91920, Note_on_c, 1, 48, 69
7, 91960, Note_off_c, 1, 45, 64
7, 92160, Note_off_c, 1, 48, 64
7, 92160, Note_on_c, 1, 41, 72
7, 92336, Note_on_c, 1, 29, 65
7, 92342, Note_off_c, 1, 41, 64
7, 92398, Note_off_c, 1, 29, 64
7, 92400, Note_on_c, 1, 41, 74
7, 92638, Note_off_c, 1, 41, 64
7, 92640, Note_on_c, 1, 34, 72
7, 92816, Note_on_c, 1, 22, 65
7, 92822, Note_off_c, 1, 34, 64
7, 92878, Note_off_c, 1, 22, 64
7, 92880, Note_on_c, 1, 34, 74
7, 93118, Note_off_c, 1, 34, 64
7, 93120, Note_on_c, 1, 39, 71
7, 93360, Note_on_c, 1, 41, 73
7, 93400, Note_off_c, 1, 39, 64
7, 93600, Note_on_c, 1, 43, 68
7, 93622, Note_off_c, 1, 41, 64
7, 93840, Note_on_c, 1, 46, 69
7, 93880, Note_off_c, 1, 43, 64
7, 94080, Note_off_c, 1, 46, 64
7, 94080, Note_on_c, 1, 39, 80
7, 94166, Note_off_c, 1, 39, 64
7, 94256, Note_on_c, 1, 39, 82
7, 94320, Note_on_c, 1, 43, 74
7, 94350, Note_off_c, 1, 39, 64
7, 94560, Note_on_c, 1, 44, 68
7, 94564, Note_off_c, 1, 43, 64
7, 94800, Note_on_c, 1, 45, 72
7, 94834, Note_off_c, 1, 44, 64
7, 95040, Note_on_c, 1, 46, 74
7, 95062, Note_off_c, 1, 45, 64
7, 95204, Note_off_c, 1, 46, 64
7, 95280, Note_on_c, 1, 46, 72
7, 95402, Note_off_c, 1, 46, 64
7, 95456, Note_on_c, 1, 39, 93
7, 95996, Note_off_c, 1, 39, 64
7, 95996, End_track
8, 0, Start_track
8, 0, Title_t, "Piano / Rhodes electric"
8, 0, Control_c, 2, 0, 0
8, 0, Control_c, 2, 32, 0
8, 0, Program_c, 2, 4
8, 0, Control_c, 2, 7, 85
8, 0, Control_c, 2, 10, 64
8, 0, Control_c, 2, 123, 0
8, 0, Control_c, 2, 91, 50
8, 0, Control_c, 2, 93, 10
8, 0, Control_c, 2, 64, 0
8, 1920, Note_on_c, 2, 63, 60
8, 1920, Note_on_c, 2, 55, 60
8, 1920, Note_on_c, 2, 58, 60
8, 2400, Note_off_c, 2, 58, 64
8, 2400, Note_off_c, 2, 55, 64
8, 2400, Note_off_c, 2, 63, 64
8, 2400, Note_on_c, 2, 62, 60
8, 2400, Note_on_c, 2, 58, 60
8, 2400, Note_on_c, 2, 67, 60
8, 2400, Note_on_c, 2, 55, 60
8, 2880, Note_off_c, 2, 55, 64
8, 2880, Note_off_c, 2, 67, 64
8, 2880, Note_off_c, 2, 58, 64
8, 2880, Note_off_c, 2, 62, 64
8, 2880, Note_on_c, 2, 60, 60
8, 2880, Note_on_c, 2, 63, 60
8, 2880, Note_on_c, 2, 55, 60
8, 2880, Note_on_c, 2, 70, 60
8, 3120, Note_off_c, 2, 70, 64
8, 3120, Note_off_c, 2, 55, 64
8, 3120, Note_off_c, 2, 63, 64
8, 3120, Note_off_c, 2, 60, 64
8, 3120, Note_on_c, 2, 63, 60
8, 3120, Note_on_c, 2, 55, 60
8, 3120, Note_on_c, 2, 58, 60
8, 3360, Note_off_c, 2, 58, 64
8, 3360, Note_off_c, 2, 55, 64
8, 3360, Note_off_c, 2, 63, 64
8, 3360, Note_on_c, 2, 70, 60
8, 3360, Note_on_c, 2, 55, 60
8, 3360, Note_on_c, 2, 63, 60
8, 3840, Note_off_c, 2, 63, 64
8, 3840, Note_off_c, 2, 55, 64
8, 3840, Note_off_c, 2, 70, 64
8, 3840, Note_on_c, 2, 55, 60
8, 3840, Note_on_c, 2, 70, 60
8, 3840, Note_on_c, 2, 61, 60
8, 3840, Note_on_c, 2, 65, 60
8, 4710, Note_off_c, 2, 65, 64
8, 4710, Note_off_c, 2, 61, 64
8, 4710, Note_off_c, 2, 70, 64
8, 4710, Note_off_c, 2, 55, 64
8, 5040, Note_on_c, 2, 58, 44
8, 5040, Note_on_c, 2, 62, 44
8, 5040, Note_on_c, 2, 64, 44
8, 5040, Note_on_c, 2, 67, 44
8, 5172, Note_off_c, 2, 67, 64
8, 5172, Note_off_c, 2, 64, 64
8, 5172, Note_off_c, 2, 62, 64
8, 5172, Note_off_c, 2, 58, 64
8, 5208, Note_on_c, 2, 58, 46
8, 5208, Note_on_c, 2, 62, 46
8, 5208, Note_on_c, 2, 64, 46
8, 5208, Note_on_c, 2, 67, 46
8, 5280, Note_off_c, 2, 67, 64
8, 5280, Note_off_c, 2, 64, 64
8, 5280, Note_off_c, 2, 62, 64
8, 5280, Note_off_c, 2, 58, 64
8, 5280, Note_on_c, 2, 58, 52
8, 5280, Note_on_c, 2, 62, 52
8, 5280, Note_on_c, 2, 64, 52
8, 5280, Note_on_c, 2, 67, 52
8, 5390, Note_off_c, 2, 67, 64
8, 5390, Note_off_c, 2, 64, 64
8, 5390, Note_off_c, 2, 62, 64
8, 5390, Note_off_c, 2, 58, 64
8, 5448, Note_on_c, 2, 58, 61
8, 5448, Note_on_c, 2, 62, 61
8, 5448, Note_on_c, 2, 64, 61
8, 5448, Note_on_c, 2, 67, 61
8, 5520, Note_off_c, 2, 67, 64
8, 5520, Note_off_c, 2, 64, 64
8, 5520, Note_off_c, 2, 62, 64
8, 5520, Note_off_c, 2, 58, 64
8, 5520, Note_on_c, 2, 58, 72
8, 5520, Note_on_c, 2, 62, 72
8, 5520, Note_on_c, 2, 64, 72
8, 5520, Note_on_c, 2, 67, 72
8, 5638, Note_off_c, 2, 67, 64
8, 5638, Note_off_c, 2, 64, 64
8, 5638, Note_off_c, 2, 62, 64
8, 5638, Note_off_c, 2, 58, 64
8, 5760, Note_on_c, 2, 65, 60
8, 5760, Note_on_c, 2, 56, 60
8, 5760, Note_on_c, 2, 72, 60
8, 6240, Note_off_c, 2, 72, 64
8, 6240, Note_off_c, 2, 56, 64
8, 6240, Note_off_c, 2, 65, 64
8, 6240, Note_on_c, 2, 67, 60
8, 6240, Note_on_c, 2, 64, 60
8, 6240, Note_on_c, 2, 74, 60
8, 6240, Note_on_c, 2, 59, 60
8, 6720, Note_off_c, 2, 59, 64
8, 6720, Note_off_c, 2, 74, 64
8, 6720, Note_off_c, 2, 64, 64
8, 6720, Note_off_c, 2, 67, 64
8, 6720, Note_on_c, 2, 63, 60
8, 6720, Note_on_c, 2, 67, 60
8, 6720, Note_on_c, 2, 56, 60
8, 6720, Note_on_c, 2, 72, 60
8, 7590, Note_off_c, 2, 72, 64
8, 7590, Note_off_c, 2, 56, 64
8, 7590, Note_off_c, 2, 67, 64
8, 7590, Note_off_c, 2, 63, 64
8, 7610, Note_on_c, 2, 63, 60
8, 7610, Note_on_c, 2, 59, 60
8, 7610, Note_on_c, 2, 68, 60
8, 7610, Note_on_c, 2, 53, 60
8, 8636, Note_off_c, 2, 53, 64
8, 8636, Note_off_c, 2, 68, 64
8, 8636, Note_off_c, 2, 59, 64
8, 8636, Note_off_c, 2, 63, 64
8, 8640, Note_on_c, 2, 56, 60
8, 8640, Note_on_c, 2, 60, 60
8, 8640, Note_on_c, 2, 62, 60
8, 8640, Note_on_c, 2, 67, 60
8, 9030, Note_off_c, 2, 67, 64
8, 9030, Note_off_c, 2, 62, 64
8, 9030, Note_off_c, 2, 60, 64
8, 9030, Note_off_c, 2, 56, 64
8, 9050, Note_on_c, 2, 56, 60
8, 9050, Note_on_c, 2, 59, 60
8, 9050, Note_on_c, 2, 62, 60
8, 9050, Note_on_c, 2, 65, 60
8, 9596, Note_off_c, 2, 65, 64
8, 9596, Note_off_c, 2, 62, 64
8, 9596, Note_off_c, 2, 59, 64
8, 9596, Note_off_c, 2, 56, 64
8, 9600, Note_on_c, 2, 67, 60
8, 9600, Note_on_c, 2, 63, 60
8, 9600, Note_on_c, 2, 60, 60
8, 10560, Note_off_c, 2, 60, 64
8, 10560, Note_off_c, 2, 63, 64
8, 10560, Note_off_c, 2, 67, 64
8, 10560, Note_on_c, 2, 76, 60
8, 10560, Note_on_c, 2, 59, 60
8, 10560, Note_on_c, 2, 69, 60
8, 10560, Note_on_c, 2, 65, 60
8, 11520, Note_off_c, 2, 65, 64
8, 11520, Note_off_c, 2, 69, 64
8, 11520, Note_off_c, 2, 59, 64
8, 11520, Note_off_c, 2, 76, 64
8, 11520, Note_on_c, 2, 65, 60
8, 11520, Note_on_c, 2, 61, 60
8, 11520, Note_on_c, 2, 58, 60
8, 11520, Note_on_c, 2, 55, 60
8, 12480, Note_off_c, 2, 55, 64
8, 12480, Note_off_c, 2, 58, 64
8, 12480, Note_off_c, 2, 61, 64
8, 12480, Note_off_c, 2, 65, 64
8, 12480, Note_on_c, 2, 68, 60
8, 12480, Note_on_c, 2, 64, 60
8, 12480, Note_on_c, 2, 73, 60
8, 12480, Note_on_c, 2, 58, 60
8, 13440, Note_off_c, 2, 58, 64
8, 13440, Note_off_c, 2, 73, 64
8, 13440, Note_off_c, 2, 64, 64
8, 13440, Note_off_c, 2, 68, 64
8, 13440, Note_on_c, 2, 62, 60
8, 13440, Note_on_c, 2, 57, 60
8, 13440, Note_on_c, 2, 67, 60
8, 13440, Note_on_c, 2, 63, 60
8, 14400, Note_off_c, 2, 63, 64
8, 14400, Note_off_c, 2, 67, 64
8, 14400, Note_off_c, 2, 57, 64
8, 14400, Note_off_c, 2, 62, 64
8, 14400, Note_on_c, 2, 59, 60
8, 14400, Note_on_c, 2, 74, 60
8, 14400, Note_on_c, 2, 57, 60
8, 14400, Note_on_c, 2, 67, 60
8, 14400, Note_on_c, 2, 63, 60
8, 15360, Note_off_c, 2, 63, 64
8, 15360, Note_off_c, 2, 67, 64
8, 15360, Note_off_c, 2, 57, 64
8, 15360, Note_off_c, 2, 74, 64
8, 15360, Note_off_c, 2, 59, 64
8, 15360, Note_on_c, 2, 63, 60
8, 15360, Note_on_c, 2, 59, 60
8, 15360, Note_on_c, 2, 68, 60
8, 15360, Note_on_c, 2, 56, 60
8, 16320, Note_off_c, 2, 56, 64
8, 16320, Note_off_c, 2, 68, 64
8, 16320, Note_off_c, 2, 59, 64
8, 16320, Note_off_c, 2, 63, 64
8, 16320, Note_on_c, 2, 63, 60
8, 16320, Note_on_c, 2, 65, 60
8, 16320, Note_on_c, 2, 56, 60
8, 16320, Note_on_c, 2, 72, 60
8, 16800, Note_off_c, 2, 72, 64
8, 16800, Note_off_c, 2, 56, 64
8, 16800, Note_off_c, 2, 65, 64
8, 16800, Note_off_c, 2, 63, 64
8, 16800, Note_on_c, 2, 65, 60
8, 16800, Note_on_c, 2, 62, 60
8, 16800, Note_on_c, 2, 70, 60
8, 16800, Note_on_c, 2, 56, 60
8, 17280, Note_off_c, 2, 56, 64
8, 17280, Note_off_c, 2, 70, 64
8, 17280, Note_off_c, 2, 62, 64
8, 17280, Note_off_c, 2, 65, 64
8, 17760, Note_on_c, 2, 62, 60
8, 17760, Note_on_c, 2, 58, 60
8, 17760, Note_on_c, 2, 67, 60
8, 17760, Note_on_c, 2, 55, 60
8, 18240, Note_off_c, 2, 55, 64
8, 18240, Note_off_c, 2, 67, 64
8, 18240, Note_off_c, 2, 58, 64
8, 18240, Note_off_c, 2, 62, 64
8, 18240, Note_on_c, 2, 60, 60
8, 18240, Note_on_c, 2, 63, 60
8, 18240, Note_on_c, 2, 55, 60
8, 18240, Note_on_c, 2, 58, 60
8, 18480, Note_off_c, 2, 58, 64
8, 18480, Note_off_c, 2, 55, 64
8, 18480, Note_off_c, 2, 63, 64
8, 18480, Note_off_c, 2, 60, 64
8, 18480, Note_on_c, 2, 63, 60
8, 18480, Note_on_c, 2, 55, 60
8, 18480, Note_on_c, 2, 58, 60
8, 18720, Note_off_c, 2, 58, 64
8, 18720, Note_off_c, 2, 55, 64
8, 18720, Note_off_c, 2, 63, 64
8, 18720, Note_on_c, 2, 63, 52
8, 18720, Note_on_c, 2, 67, 42
8, 18720, Note_on_c, 2, 58, 66
8, 18720, Note_on_c, 2, 51, 43
8, 19110, Note_off_c, 2, 51, 64
8, 19110, Note_off_c, 2, 58, 64
8, 19110, Note_off_c, 2, 67, 64
8, 19110, Note_off_c, 2, 63, 64
8, 19130, Note_on_c, 2, 65, 60
8, 19130, Note_on_c, 2, 61, 60
8, 19130, Note_on_c, 2, 70, 60
8, 19130, Note_on_c, 2, 55, 60
8, 20070, Note_off_c, 2, 55, 64
8, 20070, Note_off_c, 2, 70, 64
8, 20070, Note_off_c, 2, 61, 64
8, 20070, Note_off_c, 2, 65, 64
8, 20090, Note_on_c, 2, 67, 60
8, 20090, Note_on_c, 2, 64, 60
8, 20090, Note_on_c, 2, 72, 60
8, 20090, Note_on_c, 2, 58, 60
8, 21116, Note_off_c, 2, 58, 64
8, 21116, Note_off_c, 2, 72, 64
8, 21116, Note_off_c, 2, 64, 64
8, 21116, Note_off_c, 2, 67, 64
8, 21120, Note_on_c, 2, 65, 52
8, 21120, Note_on_c, 2, 68, 42
8, 21120, Note_on_c, 2, 60, 66
8, 21120, Note_on_c, 2, 53, 43
8, 21510, Note_off_c, 2, 53, 64
8, 21510, Note_off_c, 2, 60, 64
8, 21510, Note_off_c, 2, 68, 64
8, 21510, Note_off_c, 2, 65, 64
8, 21530, Note_on_c, 2, 60, 35
8, 21530, Note_on_c, 2, 55, 36
8, 21530, Note_on_c, 2, 71, 69
8, 21530, Note_on_c, 2, 64, 30
8, 21530, Note_on_c, 2, 76, 60
8, 21530, Note_on_c, 2, 59, 54
8, 21736, Note_off_c, 2, 76, 64
8, 21758, Note_off_c, 2, 71, 64
8, 21776, Note_on_c, 2, 74, 60
8, 21776, Note_on_c, 2, 67, 58
8, 22076, Note_off_c, 2, 59, 64
8, 22076, Note_off_c, 2, 64, 64
8, 22076, Note_off_c, 2, 55, 64
8, 22076, Note_off_c, 2, 60, 64
8, 22080, Note_off_c, 2, 67, 64
8, 22080, Note_off_c, 2, 74, 64
8, 22080, Note_on_c, 2, 51, 43
8, 22080, Note_on_c, 2, 56, 66
8, 22080, Note_on_c, 2, 65, 42
8, 22080, Note_on_c, 2, 60, 52
8, 23040, Note_off_c, 2, 60, 64
8, 23040, Note_off_c, 2, 65, 64
8, 23040, Note_off_c, 2, 56, 64
8, 23040, Note_off_c, 2, 51, 64
8, 23040, Note_on_c, 2, 65, 60
8, 23040, Note_on_c, 2, 68, 60
8, 23040, Note_on_c, 2, 59, 60
8, 23040, Note_on_c, 2, 75, 60
8, 23910, Note_off_c, 2, 75, 64
8, 23910, Note_off_c, 2, 59, 64
8, 23910, Note_off_c, 2, 68, 64
8, 23910, Note_off_c, 2, 65, 64
8, 23930, Note_on_c, 2, 53, 43
8, 23930, Note_on_c, 2, 59, 66
8, 23930, Note_on_c, 2, 67, 42
8, 23930, Note_on_c, 2, 62, 52
8, 24956, Note_off_c, 2, 62, 64
8, 24956, Note_off_c, 2, 67, 64
8, 24956, Note_off_c, 2, 59, 64
8, 24956, Note_off_c, 2, 53, 64
8, 24960, Note_on_c, 2, 58, 60
8, 24960, Note_on_c, 2, 60, 60
8, 24960, Note_on_c, 2, 64, 60
8, 24960, Note_on_c, 2, 67, 60
8, 25350, Note_off_c, 2, 67, 64
8, 25350, Note_off_c, 2, 64, 64
8, 25350, Note_off_c, 2, 60, 64
8, 25350, Note_off_c, 2, 58, 64
8, 25370, Note_on_c, 2, 62, 52
8, 25370, Note_on_c, 2, 67, 42
8, 25370, Note_on_c, 2, 58, 66
8, 25370, Note_on_c, 2, 52, 43
8, 25916, Note_off_c, 2, 52, 64
8, 25916, Note_off_c, 2, 58, 64
8, 25916, Note_off_c, 2, 67, 64
8, 25916, Note_off_c, 2, 62, 64
8, 25920, Note_on_c, 2, 58, 52
8, 25920, Note_on_c, 2, 65, 42
8, 25920, Note_on_c, 2, 55, 66
8, 25920, Note_on_c, 2, 49, 43
8, 26310, Note_off_c, 2, 49, 64
8, 26310, Note_off_c, 2, 55, 64
8, 26310, Note_off_c, 2, 65, 64
8, 26310, Note_off_c, 2, 58, 64
8, 26576, Note_on_c, 2, 84, 55
8, 26576, Note_on_c, 2, 72, 52
8, 26576, Note_on_c, 2, 64, 50
8, 26576, Note_on_c, 2, 55, 40
8, 26576, Note_on_c, 2, 60, 38
8, 26576, Note_on_c, 2, 58, 57
8, 26790, Note_off_c, 2, 58, 64
8, 26790, Note_off_c, 2, 60, 64
8, 26790, Note_off_c, 2, 55, 64
8, 26790, Note_off_c, 2, 64, 64
8, 26790, Note_off_c, 2, 72, 64
8, 26790, Note_off_c, 2, 84, 64
8, 26810, Note_on_c, 2, 60, 60
8, 26810, Note_on_c, 2, 56, 60
8, 26810, Note_on_c, 2, 67, 60
8, 26810, Note_on_c, 2, 63, 60
8, 27836, Note_off_c, 2, 63, 64
8, 27836, Note_off_c, 2, 67, 64
8, 27836, Note_off_c, 2, 56, 64
8, 27836, Note_off_c, 2, 60, 64
8, 27840, Note_on_c, 2, 53, 60
8, 27840, Note_on_c, 2, 68, 60
8, 27840, Note_on_c, 2, 59, 60
8, 27840, Note_on_c, 2, 63, 60
8, 28710, Note_off_c, 2, 63, 64
8, 28710, Note_off_c, 2, 59, 64
8, 28710, Note_off_c, 2, 68, 64
8, 28710, Note_off_c, 2, 53, 64
8, 28730, Note_on_c, 2, 51, 43
8, 28730, Note_on_c, 2, 60, 66
8, 28730, Note_on_c, 2, 67, 42
8, 28730, Note_on_c, 2, 63, 52
8, 29756, Note_off_c, 2, 63, 64
8, 29756, Note_off_c, 2, 67, 64
8, 29756, Note_off_c, 2, 60, 64
8, 29756, Note_off_c, 2, 51, 64
8, 29760, Note_on_c, 2, 51, 43
8, 29760, Note_on_c, 2, 57, 66
8, 29760, Note_on_c, 2, 67, 42
8, 29760, Note_on_c, 2, 60, 52
8, 30720, Note_off_c, 2, 60, 64
8, 30720, Note_off_c, 2, 67, 64
8, 30720, Note_off_c, 2, 57, 64
8, 30720, Note_off_c, 2, 51, 64
8, 30720, Note_on_c, 2, 51, 60
8, 30720, Note_on_c, 2, 67, 60
8, 30720, Note_on_c, 2, 57, 60
8, 30720, Note_on_c, 2, 62, 60
8, 31200, Note_off_c, 2, 62, 64
8, 31200, Note_off_c, 2, 57, 64
8, 31200, Note_off_c, 2, 67, 64
8, 31200, Note_off_c, 2, 51, 64
8, 31200, Note_on_c, 2, 56, 60
8, 31200, Note_on_c, 2, 59, 60
8, 31200, Note_on_c, 2, 62, 60
8, 31200, Note_on_c, 2, 66, 60
8, 31590, Note_off_c, 2, 66, 64
8, 31590, Note_off_c, 2, 62, 64
8, 31590, Note_off_c, 2, 59, 64
8, 31590, Note_off_c, 2, 56, 64
8, 31622, Note_on_c, 2, 67, 58
8, 31628, Note_on_c, 2, 58, 48
8, 31628, Note_on_c, 2, 63, 48
8, 31932, Note_on_c, 2, 75, 85
8, 32114, Note_on_c, 2, 70, 53
8, 32120, Note_off_c, 2, 75, 64
8, 32192, Note_off_c, 2, 70, 64
8, 32344, Note_on_c, 2, 75, 90
8, 32448, Note_off_c, 2, 75, 64
8, 32448, Note_on_c, 2, 70, 49
8, 32526, Note_off_c, 2, 70, 64
8, 32636, Note_off_c, 2, 67, 64
8, 32636, Note_off_c, 2, 63, 64
8, 32636, Note_off_c, 2, 58, 64
8, 32640, Note_on_c, 2, 63, 60
8, 32640, Note_on_c, 2, 55, 60
8, 32640, Note_on_c, 2, 58, 60
8, 33120, Note_off_c, 2, 58, 64
8, 33120, Note_off_c, 2, 55, 64
8, 33120, Note_off_c, 2, 63, 64
8, 33120, Note_on_c, 2, 55, 43
8, 33120, Note_on_c, 2, 62, 66
8, 33120, Note_on_c, 2, 70, 42
8, 33120, Note_on_c, 2, 67, 52
8, 33600, Note_off_c, 2, 67, 64
8, 33600, Note_off_c, 2, 70, 64
8, 33600, Note_off_c, 2, 62, 64
8, 33600, Note_off_c, 2, 55, 64
8, 33600, Note_on_c, 2, 60, 60
8, 33600, Note_on_c, 2, 63, 60
8, 33600, Note_on_c, 2, 55, 60
8, 33600, Note_on_c, 2, 70, 60
8, 33750, Note_off_c, 2, 70, 64
8, 33750, Note_off_c, 2, 55, 64
8, 33750, Note_off_c, 2, 63, 64
8, 33750, Note_off_c, 2, 60, 64
8, 33770, Note_on_c, 2, 63, 60
8, 33770, Note_on_c, 2, 55, 60
8, 33770, Note_on_c, 2, 58, 60
8, 33990, Note_off_c, 2, 58, 64
8, 33990, Note_off_c, 2, 55, 64
8, 33990, Note_off_c, 2, 63, 64
8, 34010, Note_on_c, 2, 63, 35
8, 34010, Note_on_c, 2, 55, 36
8, 34010, Note_on_c, 2, 70, 69
8, 34010, Note_on_c, 2, 67, 30
8, 34010, Note_on_c, 2, 79, 60
8, 34010, Note_on_c, 2, 58, 54
8, 34216, Note_off_c, 2, 79, 64
8, 34238, Note_off_c, 2, 70, 64
8, 34256, Note_on_c, 2, 75, 60
8, 34556, Note_off_c, 2, 58, 64
8, 34556, Note_off_c, 2, 67, 64
8, 34556, Note_off_c, 2, 55, 64
8, 34556, Note_off_c, 2, 63, 64
8, 34560, Note_off_c, 2, 75, 64
8, 34560, Note_on_c, 2, 65, 60
8, 34560, Note_on_c, 2, 61, 60
8, 34560, Note_on_c, 2, 70, 60
8, 34560, Note_on_c, 2, 55, 60
8, 35520, Note_off_c, 2, 55, 64
8, 35520, Note_off_c, 2, 70, 64
8, 35520, Note_off_c, 2, 61, 64
8, 35520, Note_off_c, 2, 65, 64
8, 35520, Note_on_c, 2, 58, 60
8, 35520, Note_on_c, 2, 61, 60
8, 35520, Note_on_c, 2, 64, 60
8, 35520, Note_on_c, 2, 68, 60
8, 36390, Note_off_c, 2, 68, 64
8, 36390, Note_off_c, 2, 64, 64
8, 36390, Note_off_c, 2, 61, 64
8, 36390, Note_off_c, 2, 58, 64
8, 36410, Note_on_c, 2, 60, 60
8, 36410, Note_on_c, 2, 56, 60
8, 36410, Note_on_c, 2, 65, 60
8, 36870, Note_off_c, 2, 65, 64
8, 36870, Note_off_c, 2, 56, 64
8, 36870, Note_off_c, 2, 60, 64
8, 36890, Note_on_c, 2, 59, 60
8, 36890, Note_on_c, 2, 74, 60
8, 36890, Note_on_c, 2, 64, 60
8, 36890, Note_on_c, 2, 67, 60
8, 37436, Note_off_c, 2, 67, 64
8, 37436, Note_off_c, 2, 64, 64
8, 37436, Note_off_c, 2, 74, 64
8, 37436, Note_off_c, 2, 59, 64
8, 37440, Note_on_c, 2, 72, 60
8, 37440, Note_on_c, 2, 56, 60
8, 37440, Note_on_c, 2, 65, 60
8, 37440, Note_on_c, 2, 63, 60
8, 38400, Note_off_c, 2, 63, 64
8, 38400, Note_off_c, 2, 65, 64
8, 38400, Note_off_c, 2, 56, 64
8, 38400, Note_off_c, 2, 72, 64
8, 38400, Note_on_c, 2, 53, 43
8, 38400, Note_on_c, 2, 59, 66
8, 38400, Note_on_c, 2, 68, 42
8, 38400, Note_on_c, 2, 63, 52
8, 39360, Note_off_c, 2, 63, 64
8, 39360, Note_off_c, 2, 68, 64
8, 39360, Note_off_c, 2, 59, 64
8, 39360, Note_off_c, 2, 53, 64
8, 39360, Note_on_c, 2, 56, 60
8, 39360, Note_on_c, 2, 72, 60
8, 39360, Note_on_c, 2, 62, 60
8, 39360, Note_on_c, 2, 67, 60
8, 39840, Note_off_c, 2, 67, 64
8, 39840, Note_off_c, 2, 62, 64
8, 39840, Note_off_c, 2, 72, 64
8, 39840, Note_off_c, 2, 56, 64
8, 39840, Note_on_c, 2, 59, 52
8, 39840, Note_on_c, 2, 65, 42
8, 39840, Note_on_c, 2, 56, 66
8, 39840, Note_on_c, 2, 50, 43
8, 40230, Note_off_c, 2, 50, 64
8, 40230, Note_off_c, 2, 56, 64
8, 40230, Note_off_c, 2, 65, 64
8, 40230, Note_off_c, 2, 59, 64
8, 40250, Note_on_c, 2, 67, 60
8, 40250, Note_on_c, 2, 63, 60
8, 40250, Note_on_c, 2, 72, 60
8, 40250, Note_on_c, 2, 60, 60
8, 41190, Note_off_c, 2, 60, 64
8, 41190, Note_off_c, 2, 72, 64
8, 41190, Note_off_c, 2, 63, 64
8, 41190, Note_off_c, 2, 67, 64
8, 41210, Note_on_c, 2, 76, 60
8, 41210, Note_on_c, 2, 59, 60
8, 41210, Note_on_c, 2, 69, 60
8, 41210, Note_on_c, 2, 65, 60
8, 42236, Note_off_c, 2, 65, 64
8, 42236, Note_off_c, 2, 69, 64
8, 42236, Note_off_c, 2, 59, 64
8, 42236, Note_off_c, 2, 76, 64
8, 42240, Note_on_c, 2, 58, 52
8, 42240, Note_on_c, 2, 65, 42
8, 42240, Note_on_c, 2, 55, 66
8, 42240, Note_on_c, 2, 49, 43
8, 43110, Note_off_c, 2, 49, 64
8, 43110, Note_off_c, 2, 55, 64
8, 43110, Note_off_c, 2, 65, 64
8, 43110, Note_off_c, 2, 58, 64
8, 43130, Note_on_c, 2, 58, 48
8, 43130, Note_on_c, 2, 60, 48
8, 43130, Note_on_c, 2, 55, 50
8, 43130, Note_on_c, 2, 64, 51
8, 43618, Note_on_c, 2, 67, 72
8, 43618, Note_on_c, 2, 72, 79
8, 43680, Note_off_c, 2, 72, 64
8, 43692, Note_off_c, 2, 67, 64
8, 43858, Note_on_c, 2, 72, 72
8, 43858, Note_on_c, 2, 67, 63
8, 43936, Note_off_c, 2, 67, 64
8, 43936, Note_off_c, 2, 72, 64
8, 44070, Note_off_c, 2, 64, 64
8, 44070, Note_off_c, 2, 55, 64
8, 44070, Note_off_c, 2, 60, 64
8, 44070, Note_off_c, 2, 58, 64
8, 44090, Note_on_c, 2, 74, 60
8, 44090, Note_on_c, 2, 57, 60
8, 44090, Note_on_c, 2, 67, 60
8, 44090, Note_on_c, 2, 63, 60
8, 45116, Note_off_c, 2, 63, 64
8, 45116, Note_off_c, 2, 67, 64
8, 45116, Note_off_c, 2, 57, 64
8, 45116, Note_off_c, 2, 74, 64
8, 45120, Note_on_c, 2, 74, 60
8, 45120, Note_on_c, 2, 57, 60
8, 45120, Note_on_c, 2, 67, 60
8, 45120, Note_on_c, 2, 63, 60
8, 46080, Note_off_c, 2, 63, 64
8, 46080, Note_off_c, 2, 67, 64
8, 46080, Note_off_c, 2, 57, 64
8, 46080, Note_off_c, 2, 74, 64
8, 46080, Note_on_c, 2, 63, 60
8, 46080, Note_on_c, 2, 59, 60
8, 46080, Note_on_c, 2, 68, 60
8, 47040, Note_off_c, 2, 68, 64
8, 47040, Note_off_c, 2, 59, 64
8, 47040, Note_off_c, 2, 63, 64
8, 47040, Note_on_c, 2, 63, 60
8, 47040, Note_on_c, 2, 65, 60
8, 47040, Note_on_c, 2, 56, 60
8, 47040, Note_on_c, 2, 60, 60
8, 47430, Note_off_c, 2, 60, 64
8, 47430, Note_off_c, 2, 56, 64
8, 47430, Note_off_c, 2, 65, 64
8, 47430, Note_off_c, 2, 63, 64
8, 47696, Note_on_c, 2, 56, 57
8, 47696, Note_on_c, 2, 58, 38
8, 47696, Note_on_c, 2, 53, 40
8, 47696, Note_on_c, 2, 62, 50
8, 47696, Note_on_c, 2, 70, 52
8, 47696, Note_on_c, 2, 82, 55
8, 48000, Note_off_c, 2, 82, 64
8, 48000, Note_off_c, 2, 70, 64
8, 48000, Note_off_c, 2, 62, 64
8, 48000, Note_off_c, 2, 53, 64
8, 48000, Note_off_c, 2, 58, 64
8, 48000, Note_off_c, 2, 56, 64
8, 48000, Note_on_c, 2, 63, 60
8, 48000, Note_on_c, 2, 55, 60
8, 48000, Note_on_c, 2, 70, 60
8, 48480, Note_off_c, 2, 70, 64
8, 48480, Note_off_c, 2, 55, 64
8, 48480, Note_off_c, 2, 63, 64
8, 48480, Note_on_c, 2, 55, 43
8, 48480, Note_on_c, 2, 62, 66
8, 48480, Note_on_c, 2, 70, 42
8, 48480, Note_on_c, 2, 67, 52
8, 48960, Note_off_c, 2, 67, 64
8, 48960, Note_off_c, 2, 70, 64
8, 48960, Note_off_c, 2, 62, 64
8, 48960, Note_off_c, 2, 55, 64
8, 48960, Note_on_c, 2, 60, 60
8, 48960, Note_on_c, 2, 63, 60
8, 48960, Note_on_c, 2, 55, 60
8, 48960, Note_on_c, 2, 70, 60
8, 49200, Note_off_c, 2, 70, 64
8, 49200, Note_off_c, 2, 55, 64
8, 49200, Note_off_c, 2, 63, 64
8, 49200, Note_off_c, 2, 60, 64
8, 49200, Note_on_c, 2, 63, 60
8, 49200, Note_on_c, 2, 55, 60
8, 49200, Note_on_c, 2, 58, 60
8, 49440, Note_off_c, 2, 58, 64
8, 49440, Note_off_c, 2, 55, 64
8, 49440, Note_off_c, 2, 63, 64
8, 49440, Note_on_c, 2, 70, 60
8, 49440, Note_on_c, 2, 55, 60
8, 49440, Note_on_c, 2, 63, 60
8, 49920, Note_off_c, 2, 63, 64
8, 49920, Note_off_c, 2, 55, 64
8, 49920, Note_off_c, 2, 70, 64
8, 49920, Note_on_c, 2, 65, 60
8, 49920, Note_on_c, 2, 61, 60
8, 49920, Note_on_c, 2, 70, 60
8, 49920, Note_on_c, 2, 55, 60
8, 50880, Note_off_c, 2, 55, 64
8, 50880, Note_off_c, 2, 70, 64
8, 50880, Note_off_c, 2, 61, 64
8, 50880, Note_off_c, 2, 65, 64
8, 50880, Note_on_c, 2, 52, 43
8, 50880, Note_on_c, 2, 58, 66
8, 50880, Note_on_c, 2, 67, 42
8, 50880, Note_on_c, 2, 60, 52
8, 51840, Note_off_c, 2, 60, 64
8, 51840, Note_off_c, 2, 67, 64
8, 51840, Note_off_c, 2, 58, 64
8, 51840, Note_off_c, 2, 52, 64
8, 51840, Note_on_c, 2, 65, 60
8, 51840, Note_on_c, 2, 56, 60
8, 51840, Note_on_c, 2, 72, 60
8, 52320, Note_off_c, 2, 72, 64
8, 52320, Note_off_c, 2, 56, 64
8, 52320, Note_off_c, 2, 65, 64
8, 52320, Note_on_c, 2, 59, 60
8, 52320, Note_on_c, 2, 74, 60
8, 52320, Note_on_c, 2, 64, 60
8, 52320, Note_on_c, 2, 67, 60
8, 52710, Note_off_c, 2, 67, 64
8, 52710, Note_off_c, 2, 64, 64
8, 52710, Note_off_c, 2, 74, 64
8, 52710, Note_off_c, 2, 59, 64
8, 52730, Note_on_c, 2, 72, 60
8, 52730, Note_on_c, 2, 56, 60
8, 52730, Note_on_c, 2, 67, 60
8, 52730, Note_on_c, 2, 63, 60
8, 53756, Note_off_c, 2, 63, 64
8, 53756, Note_off_c, 2, 67, 64
8, 53756, Note_off_c, 2, 56, 64
8, 53756, Note_off_c, 2, 72, 64
8, 53760, Note_on_c, 2, 65, 60
8, 53760, Note_on_c, 2, 68, 60
8, 53760, Note_on_c, 2, 59, 60
8, 53760, Note_on_c, 2, 75, 60
8, 54630, Note_off_c, 2, 75, 64
8, 54630, Note_off_c, 2, 59, 64
8, 54630, Note_off_c, 2, 68, 64
8, 54630, Note_off_c, 2, 65, 64
8, 54650, Note_on_c, 2, 63, 60
8, 54650, Note_on_c, 2, 59, 60
8, 54650, Note_on_c, 2, 68, 60
8, 54650, Note_on_c, 2, 65, 60
8, 55676, Note_off_c, 2, 65, 64
8, 55676, Note_off_c, 2, 68, 64
8, 55676, Note_off_c, 2, 59, 64
8, 55676, Note_off_c, 2, 63, 64
8, 55680, Note_on_c, 2, 60, 52
8, 55680, Note_on_c, 2, 67, 42
8, 55680, Note_on_c, 2, 58, 66
8, 55680, Note_on_c, 2, 52, 43
8, 56070, Note_off_c, 2, 52, 64
8, 56070, Note_off_c, 2, 58, 64
8, 56070, Note_off_c, 2, 67, 64
8, 56070, Note_off_c, 2, 60, 64
8, 56090, Note_on_c, 2, 62, 35
8, 56090, Note_on_c, 2, 55, 36
8, 56090, Note_on_c, 2, 70, 69
8, 56090, Note_on_c, 2, 64, 30
8, 56090, Note_on_c, 2, 76, 60
8, 56090, Note_on_c, 2, 58, 54
8, 56296, Note_off_c, 2, 76, 64
8, 56318, Note_off_c, 2, 70, 64
8, 56336, Note_on_c, 2, 67, 58
8, 56336, Note_on_c, 2, 74, 60
8, 56550, Note_off_c, 2, 74, 64
8, 56550, Note_off_c, 2, 67, 64
8, 56550, Note_off_c, 2, 58, 64
8, 56550, Note_off_c, 2, 64, 64
8, 56550, Note_off_c, 2, 55, 64
8, 56550, Note_off_c, 2, 62, 64
8, 56570, Note_on_c, 2, 49, 43
8, 56570, Note_on_c, 2, 55, 66
8, 56570, Note_on_c, 2, 65, 42
8, 56570, Note_on_c, 2, 58, 52
8, 57116, Note_off_c, 2, 58, 64
8, 57116, Note_off_c, 2, 65, 64
8, 57116, Note_off_c, 2, 55, 64
8, 57116, Note_off_c, 2, 49, 64
8, 57296, Note_on_c, 2, 84, 55
8, 57296, Note_on_c, 2, 72, 52
8, 57296, Note_on_c, 2, 64, 50
8, 57296, Note_on_c, 2, 55, 40
8, 57296, Note_on_c, 2, 60, 38
8, 57296, Note_on_c, 2, 58, 57
8, 57510, Note_off_c, 2, 58, 64
8, 57510, Note_off_c, 2, 60, 64
8, 57510, Note_off_c, 2, 55, 64
8, 57510, Note_off_c, 2, 64, 64
8, 57510, Note_off_c, 2, 72, 64
8, 57510, Note_off_c, 2, 84, 64
8, 57530, Note_on_c, 2, 72, 60
8, 57530, Note_on_c, 2, 56, 60
8, 57530, Note_on_c, 2, 65, 60
8, 57530, Note_on_c, 2, 63, 60
8, 58470, Note_off_c, 2, 63, 64
8, 58470, Note_off_c, 2, 65, 64
8, 58470, Note_off_c, 2, 56, 64
8, 58470, Note_off_c, 2, 72, 64
8, 58490, Note_on_c, 2, 53, 43
8, 58490, Note_on_c, 2, 59, 66
8, 58490, Note_on_c, 2, 68, 42
8, 58490, Note_on_c, 2, 63, 52
8, 59430, Note_off_c, 2, 63, 64
8, 59430, Note_off_c, 2, 68, 64
8, 59430, Note_off_c, 2, 59, 64
8, 59430, Note_off_c, 2, 53, 64
8, 59450, Note_on_c, 2, 67, 60
8, 59450, Note_on_c, 2, 63, 60
8, 59450, Note_on_c, 2, 60, 60
8, 60390, Note_off_c, 2, 60, 64
8, 60390, Note_off_c, 2, 63, 64
8, 60390, Note_off_c, 2, 67, 64
8, 60410, Note_on_c, 2, 74, 60
8, 60410, Note_on_c, 2, 57, 60
8, 60410, Note_on_c, 2, 67, 60
8, 60410, Note_on_c, 2, 63, 60
8, 61350, Note_off_c, 2, 63, 64
8, 61350, Note_off_c, 2, 67, 64
8, 61350, Note_off_c, 2, 57, 64
8, 61350, Note_off_c, 2, 74, 64
8, 61370, Note_on_c, 2, 59, 60
8, 61370, Note_on_c, 2, 74, 60
8, 61370, Note_on_c, 2, 57, 60
8, 61370, Note_on_c, 2, 67, 60
8, 61370, Note_on_c, 2, 63, 60
8, 61830, Note_off_c, 2, 63, 64
8, 61830, Note_off_c, 2, 67, 64
8, 61830, Note_off_c, 2, 57, 64
8, 61830, Note_off_c, 2, 74, 64
8, 61830, Note_off_c, 2, 59, 64
8, 61850, Note_on_c, 2, 56, 60
8, 61850, Note_on_c, 2, 70, 60
8, 61850, Note_on_c, 2, 62, 60
8, 61850, Note_on_c, 2, 65, 60
8, 62310, Note_off_c, 2, 65, 64
8, 62310, Note_off_c, 2, 62, 64
8, 62310, Note_off_c, 2, 70, 64
8, 62310, Note_off_c, 2, 56, 64
8, 62330, Note_on_c, 2, 70, 60
8, 62330, Note_on_c, 2, 55, 60
8, 62330, Note_on_c, 2, 63, 60
8, 63356, Note_off_c, 2, 63, 64
8, 63356, Note_off_c, 2, 55, 64
8, 63356, Note_off_c, 2, 70, 64
8, 63360, Note_on_c, 2, 63, 60
8, 63360, Note_on_c, 2, 55, 60
8, 63360, Note_on_c, 2, 58, 60
8, 63840, Note_off_c, 2, 58, 64
8, 63840, Note_off_c, 2, 55, 64
8, 63840, Note_off_c, 2, 63, 64
8, 63840, Note_on_c, 2, 62, 60
8, 63840, Note_on_c, 2, 58, 60
8, 63840, Note_on_c, 2, 67, 60
8, 63840, Note_on_c, 2, 55, 60
8, 64320, Note_off_c, 2, 55, 64
8, 64320, Note_off_c, 2, 67, 64
8, 64320, Note_off_c, 2, 58, 64
8, 64320, Note_off_c, 2, 62, 64
8, 64320, Note_on_c, 2, 60, 60
8, 64320, Note_on_c, 2, 63, 60
8, 64320, Note_on_c, 2, 55, 60
8, 64320, Note_on_c, 2, 70, 60
8, 64560, Note_off_c, 2, 70, 64
8, 64560, Note_off_c, 2, 55, 64
8, 64560, Note_off_c, 2, 63, 64
8, 64560, Note_off_c, 2, 60, 64
8, 64560, Note_on_c, 2, 63, 60
8, 64560, Note_on_c, 2, 55, 60
8, 64560, Note_on_c, 2, 70, 60
8, 64800, Note_off_c, 2, 70, 64
8, 64800, Note_off_c, 2, 55, 64
8, 64800, Note_off_c, 2, 63, 64
8, 64800, Note_on_c, 2, 70, 60
8, 64800, Note_on_c, 2, 55, 60
8, 64800, Note_on_c, 2, 63, 60
8, 65280, Note_off_c, 2, 63, 64
8, 65280, Note_off_c, 2, 55, 64
8, 65280, Note_off_c, 2, 70, 64
8, 65280, Note_on_c, 2, 65, 60
8, 65280, Note_on_c, 2, 61, 60
8, 65280, Note_on_c, 2, 58, 60
8, 65280, Note_on_c, 2, 55, 60
8, 66240, Note_off_c, 2, 55, 64
8, 66240, Note_off_c, 2, 58, 64
8, 66240, Note_off_c, 2, 61, 64
8, 66240, Note_off_c, 2, 65, 64
8, 66480, Note_on_c, 2, 58, 44
8, 66480, Note_on_c, 2, 61, 44
8, 66480, Note_on_c, 2, 64, 44
8, 66480, Note_on_c, 2, 68, 44
8, 66612, Note_off_c, 2, 68, 64
8, 66612, Note_off_c, 2, 64, 64
8, 66612, Note_off_c, 2, 61, 64
8, 66612, Note_off_c, 2, 58, 64
8, 66648, Note_on_c, 2, 58, 46
8, 66648, Note_on_c, 2, 61, 46
8, 66648, Note_on_c, 2, 64, 46
8, 66648, Note_on_c, 2, 68, 46
8, 66720, Note_off_c, 2, 68, 64
8, 66720, Note_off_c, 2, 64, 64
8, 66720, Note_off_c, 2, 61, 64
8, 66720, Note_off_c, 2, 58, 64
8, 66720, Note_on_c, 2, 58, 52
8, 66720, Note_on_c, 2, 61, 52
8, 66720, Note_on_c, 2, 64, 52
8, 66720, Note_on_c, 2, 68, 52
8, 66830, Note_off_c, 2, 68, 64
8, 66830, Note_off_c, 2, 64, 64
8, 66830, Note_off_c, 2, 61, 64
8, 66830, Note_off_c, 2, 58, 64
8, 66888, Note_on_c, 2, 58, 61
8, 66888, Note_on_c, 2, 61, 61
8, 66888, Note_on_c, 2, 64, 61
8, 66888, Note_on_c, 2, 68, 61
8, 66960, Note_off_c, 2, 68, 64
8, 66960, Note_off_c, 2, 64, 64
8, 66960, Note_off_c, 2, 61, 64
8, 66960, Note_off_c, 2, 58, 64
8, 66960, Note_on_c, 2, 58, 72
8, 66960, Note_on_c, 2, 61, 72
8, 66960, Note_on_c, 2, 64, 72
8, 66960, Note_on_c, 2, 68, 72
8, 67078, Note_off_c, 2, 68, 64
8, 67078, Note_off_c, 2, 64, 64
8, 67078, Note_off_c, 2, 61, 64
8, 67078, Note_off_c, 2, 58, 64
8, 67200, Note_on_c, 2, 65, 60
8, 67200, Note_on_c, 2, 56, 60
8, 67200, Note_on_c, 2, 72, 60
8, 67590, Note_off_c, 2, 72, 64
8, 67590, Note_off_c, 2, 56, 64
8, 67590, Note_off_c, 2, 65, 64
8, 67610, Note_on_c, 2, 59, 60
8, 67610, Note_on_c, 2, 74, 60
8, 67610, Note_on_c, 2, 64, 60
8, 67610, Note_on_c, 2, 67, 60
8, 68156, Note_off_c, 2, 67, 64
8, 68156, Note_off_c, 2, 64, 64
8, 68156, Note_off_c, 2, 74, 64
8, 68156, Note_off_c, 2, 59, 64
8, 68160, Note_on_c, 2, 60, 60
8, 68160, Note_on_c, 2, 56, 60
8, 68160, Note_on_c, 2, 67, 60
8, 68160, Note_on_c, 2, 63, 60
8, 69120, Note_off_c, 2, 63, 64
8, 69120, Note_off_c, 2, 67, 64
8, 69120, Note_off_c, 2, 56, 64
8, 69120, Note_off_c, 2, 60, 64
8, 69120, Note_on_c, 2, 65, 60
8, 69120, Note_on_c, 2, 68, 60
8, 69120, Note_on_c, 2, 59, 60
8, 69120, Note_on_c, 2, 75, 60
8, 69990, Note_off_c, 2, 75, 64
8, 69990, Note_off_c, 2, 59, 64
8, 69990, Note_off_c, 2, 68, 64
8, 69990, Note_off_c, 2, 65, 64
8, 70010, Note_on_c, 2, 67, 60
8, 70010, Note_on_c, 2, 62, 60
8, 70010, Note_on_c, 2, 72, 60
8, 70010, Note_on_c, 2, 68, 60
8, 70556, Note_off_c, 2, 68, 64
8, 70556, Note_off_c, 2, 72, 64
8, 70556, Note_off_c, 2, 62, 64
8, 70556, Note_off_c, 2, 67, 64
8, 70560, Note_on_c, 2, 77, 60
8, 70560, Note_on_c, 2, 62, 60
8, 70560, Note_on_c, 2, 71, 60
8, 70560, Note_on_c, 2, 68, 60
8, 71040, Note_off_c, 2, 68, 64
8, 71040, Note_off_c, 2, 71, 64
8, 71040, Note_off_c, 2, 62, 64
8, 71040, Note_off_c, 2, 77, 64
8, 71040, Note_on_c, 2, 67, 60
8, 71040, Note_on_c, 2, 63, 60
8, 71040, Note_on_c, 2, 72, 60
8, 71040, Note_on_c, 2, 60, 60
8, 72000, Note_off_c, 2, 60, 64
8, 72000, Note_off_c, 2, 72, 64
8, 72000, Note_off_c, 2, 63, 64
8, 72000, Note_off_c, 2, 67, 64
8, 72000, Note_on_c, 2, 76, 60
8, 72000, Note_on_c, 2, 59, 60
8, 72000, Note_on_c, 2, 69, 60
8, 72000, Note_on_c, 2, 65, 60
8, 72960, Note_off_c, 2, 65, 64
8, 72960, Note_off_c, 2, 69, 64
8, 72960, Note_off_c, 2, 59, 64
8, 72960, Note_off_c, 2, 76, 64
8, 72960, Note_on_c, 2, 65, 60
8, 72960, Note_on_c, 2, 61, 60
8, 72960, Note_on_c, 2, 70, 60
8, 72960, Note_on_c, 2, 67, 60
8, 73920, Note_off_c, 2, 67, 64
8, 73920, Note_off_c, 2, 70, 64
8, 73920, Note_off_c, 2, 61, 64
8, 73920, Note_off_c, 2, 65, 64
8, 73920, Note_on_c, 2, 58, 48
8, 73920, Note_on_c, 2, 60, 48
8, 73920, Note_on_c, 2, 55, 50
8, 73920, Note_on_c, 2, 64, 51
8, 74338, Note_on_c, 2, 67, 72
8, 74338, Note_on_c, 2, 72, 79
8, 74400, Note_off_c, 2, 72, 64
8, 74412, Note_off_c, 2, 67, 64
8, 74578, Note_on_c, 2, 72, 72
8, 74578, Note_on_c, 2, 67, 63
8, 74656, Note_off_c, 2, 67, 64
8, 74656, Note_off_c, 2, 72, 64
8, 74818, Note_on_c, 2, 67, 58
8, 74880, Note_off_c, 2, 67, 64
8, 74880, Note_off_c, 2, 64, 64
8, 74880, Note_off_c, 2, 55, 64
8, 74880, Note_off_c, 2, 60, 64
8, 74880, Note_off_c, 2, 58, 64
8, 74880, Note_on_c, 2, 74, 60
8, 74880, Note_on_c, 2, 57, 60
8, 74880, Note_on_c, 2, 67, 60
8, 74880, Note_on_c, 2, 63, 60
8, 75840, Note_off_c, 2, 63, 64
8, 75840, Note_off_c, 2, 67, 64
8, 75840, Note_off_c, 2, 57, 64
8, 75840, Note_off_c, 2, 74, 64
8, 75840, Note_on_c, 2, 59, 60
8, 75840, Note_on_c, 2, 74, 60
8, 75840, Note_on_c, 2, 57, 60
8, 75840, Note_on_c, 2, 67, 60
8, 75840, Note_on_c, 2, 63, 60
8, 76800, Note_off_c, 2, 63, 64
8, 76800, Note_off_c, 2, 67, 64
8, 76800, Note_off_c, 2, 57, 64
8, 76800, Note_off_c, 2, 74, 64
8, 76800, Note_off_c, 2, 59, 64
8, 76800, Note_on_c, 2, 56, 60
8, 76800, Note_on_c, 2, 68, 60
8, 76800, Note_on_c, 2, 59, 60
8, 76800, Note_on_c, 2, 63, 60
8, 77670, Note_off_c, 2, 63, 64
8, 77670, Note_off_c, 2, 59, 64
8, 77670, Note_off_c, 2, 68, 64
8, 77670, Note_off_c, 2, 56, 64
8, 77690, Note_on_c, 2, 60, 60
8, 77690, Note_on_c, 2, 56, 60
8, 77690, Note_on_c, 2, 55, 60
8, 77690, Note_on_c, 2, 51, 60
8, 78150, Note_off_c, 2, 51, 64
8, 78150, Note_off_c, 2, 55, 64
8, 78150, Note_off_c, 2, 56, 64
8, 78150, Note_off_c, 2, 60, 64
8, 78170, Note_on_c, 2, 56, 60
8, 78170, Note_on_c, 2, 71, 60
8, 78170, Note_on_c, 2, 62, 60
8, 78170, Note_on_c, 2, 66, 60
8, 78716, Note_off_c, 2, 66, 64
8, 78716, Note_off_c, 2, 62, 64
8, 78716, Note_off_c, 2, 71, 64
8, 78716, Note_off_c, 2, 56, 64
8, 79200, Note_on_c, 2, 67, 35
8, 79200, Note_on_c, 2, 58, 36
8, 79200, Note_on_c, 2, 74, 69
8, 79200, Note_on_c, 2, 70, 30
8, 79200, Note_on_c, 2, 82, 60
8, 79200, Note_on_c, 2, 62, 54
8, 79340, Note_off_c, 2, 82, 64
8, 79362, Note_off_c, 2, 74, 64
8, 79376, Note_on_c, 2, 79, 60
8, 79590, Note_off_c, 2, 79, 64
8, 79590, Note_off_c, 2, 62, 64
8, 79590, Note_off_c, 2, 70, 64
8, 79590, Note_off_c, 2, 58, 64
8, 79590, Note_off_c, 2, 67, 64
8, 79610, Note_on_c, 2, 70, 60
8, 79610, Note_on_c, 2, 55, 60
8, 79610, Note_on_c, 2, 63, 60
8, 79610, Note_on_c, 2, 60, 60
8, 79830, Note_off_c, 2, 60, 64
8, 79830, Note_off_c, 2, 63, 64
8, 79830, Note_off_c, 2, 55, 64
8, 79830, Note_off_c, 2, 70, 64
8, 79850, Note_on_c, 2, 63, 60
8, 79850, Note_on_c, 2, 55, 60
8, 79850, Note_on_c, 2, 70, 60
8, 80156, Note_off_c, 2, 70, 64
8, 80156, Note_off_c, 2, 55, 64
8, 80156, Note_off_c, 2, 63, 64
8, 80336, Note_on_c, 2, 58, 57
8, 80336, Note_on_c, 2, 63, 38
8, 80336, Note_on_c, 2, 55, 40
8, 80336, Note_on_c, 2, 67, 50
8, 80336, Note_on_c, 2, 75, 52
8, 80336, Note_on_c, 2, 87, 55
8, 80640, Note_off_c, 2, 87, 64
8, 80640, Note_off_c, 2, 75, 64
8, 80640, Note_off_c, 2, 67, 64
8, 80640, Note_off_c, 2, 55, 64
8, 80640, Note_off_c, 2, 63, 64
8, 80640, Note_off_c, 2, 58, 64
8, 80640, Note_on_c, 2, 49, 43
8, 80640, Note_on_c, 2, 55, 66
8, 80640, Note_on_c, 2, 65, 42
8, 80640, Note_on_c, 2, 58, 52
8, 81600, Note_off_c, 2, 58, 64
8, 81600, Note_off_c, 2, 65, 64
8, 81600, Note_off_c, 2, 55, 64
8, 81600, Note_off_c, 2, 49, 64
8, 82012, Note_on_c, 2, 67, 60
8, 82012, Note_on_c, 2, 64, 60
8, 82012, Note_on_c, 2, 63, 60
8, 82012, Note_on_c, 2, 58, 60
8, 82560, Note_off_c, 2, 58, 64
8, 82560, Note_off_c, 2, 63, 64
8, 82560, Note_off_c, 2, 64, 64
8, 82560, Note_off_c, 2, 67, 64
8, 82560, Note_on_c, 2, 65, 60
8, 82560, Note_on_c, 2, 56, 60
8, 82560, Note_on_c, 2, 72, 60
8, 83040, Note_off_c, 2, 72, 64
8, 83040, Note_off_c, 2, 56, 64
8, 83040, Note_off_c, 2, 65, 64
8, 83040, Note_on_c, 2, 60, 35
8, 83040, Note_on_c, 2, 55, 36
8, 83040, Note_on_c, 2, 71, 69
8, 83040, Note_on_c, 2, 64, 30
8, 83040, Note_on_c, 2, 76, 60
8, 83040, Note_on_c, 2, 59, 54
8, 83180, Note_off_c, 2, 76, 64
8, 83202, Note_off_c, 2, 71, 64
8, 83216, Note_on_c, 2, 67, 58
8, 83216, Note_on_c, 2, 74, 60
8, 83430, Note_off_c, 2, 74, 64
8, 83430, Note_off_c, 2, 67, 64
8, 83430, Note_off_c, 2, 59, 64
8, 83430, Note_off_c, 2, 64, 64
8, 83430, Note_off_c, 2, 55, 64
8, 83430, Note_off_c, 2, 60, 64
8, 83450, Note_on_c, 2, 51, 43
8, 83450, Note_on_c, 2, 56, 66
8, 83450, Note_on_c, 2, 65, 42
8, 83450, Note_on_c, 2, 60, 52
8, 84476, Note_off_c, 2, 60, 64
8, 84476, Note_off_c, 2, 65, 64
8, 84476, Note_off_c, 2, 56, 64
8, 84476, Note_off_c, 2, 51, 64
8, 84480, Note_on_c, 2, 63, 52
8, 84480, Note_on_c, 2, 68, 42
8, 84480, Note_on_c, 2, 59, 66
8, 84480, Note_on_c, 2, 53, 43
8, 85350, Note_off_c, 2, 53, 64
8, 85350, Note_off_c, 2, 59, 64
8, 85350, Note_off_c, 2, 68, 64
8, 85350, Note_off_c, 2, 63, 64
8, 85370, Note_on_c, 2, 75, 60
8, 85370, Note_on_c, 2, 59, 60
8, 85370, Note_on_c, 2, 68, 60
8, 85370, Note_on_c, 2, 65, 60
8, 86310, Note_off_c, 2, 65, 64
8, 86310, Note_off_c, 2, 68, 64
8, 86310, Note_off_c, 2, 59, 64
8, 86310, Note_off_c, 2, 75, 64
8, 86330, Note_on_c, 2, 69, 60
8, 86330, Note_on_c, 2, 64, 60
8, 86330, Note_on_c, 2, 74, 60
8, 86330, Note_on_c, 2, 58, 60
8, 86876, Note_off_c, 2, 58, 64
8, 86876, Note_off_c, 2, 74, 64
8, 86876, Note_off_c, 2, 64, 64
8, 86876, Note_off_c, 2, 69, 64
8, 86880, Note_on_c, 2, 62, 52
8, 86880, Note_on_c, 2, 67, 42
8, 86880, Note_on_c, 2, 58, 66
8, 86880, Note_on_c, 2, 52, 43
8, 87270, Note_off_c, 2, 52, 64
8, 87270, Note_off_c, 2, 58, 64
8, 87270, Note_off_c, 2, 67, 64
8, 87270, Note_off_c, 2, 62, 64
8, 87290, Note_on_c, 2, 65, 60
8, 87290, Note_on_c, 2, 61, 60
8, 87290, Note_on_c, 2, 70, 60
8, 87290, Note_on_c, 2, 67, 60
8, 87836, Note_off_c, 2, 67, 64
8, 87836, Note_off_c, 2, 70, 64
8, 87836, Note_off_c, 2, 61, 64
8, 87836, Note_off_c, 2, 65, 64
8, 87840, Note_on_c, 2, 58, 60
8, 87840, Note_on_c, 2, 74, 60
8, 87840, Note_on_c, 2, 64, 60
8, 87840, Note_on_c, 2, 67, 60
8, 88230, Note_off_c, 2, 67, 64
8, 88230, Note_off_c, 2, 64, 64
8, 88230, Note_off_c, 2, 74, 64
8, 88230, Note_off_c, 2, 58, 64
8, 88250, Note_on_c, 2, 60, 60
8, 88250, Note_on_c, 2, 56, 60
8, 88250, Note_on_c, 2, 65, 60
8, 88250, Note_on_c, 2, 63, 60
8, 89190, Note_off_c, 2, 63, 64
8, 89190, Note_off_c, 2, 65, 64
8, 89190, Note_off_c, 2, 56, 64
8, 89190, Note_off_c, 2, 60, 64
8, 89210, Note_on_c, 2, 53, 43
8, 89210, Note_on_c, 2, 59, 66
8, 89210, Note_on_c, 2, 68, 42
8, 89210, Note_on_c, 2, 63, 52
8, 90236, Note_off_c, 2, 63, 64
8, 90236, Note_off_c, 2, 68, 64
8, 90236, Note_off_c, 2, 59, 64
8, 90236, Note_off_c, 2, 53, 64
8, 90240, Note_on_c, 2, 63, 52
8, 90240, Note_on_c, 2, 67, 42
8, 90240, Note_on_c, 2, 60, 66
8, 90240, Note_on_c, 2, 51, 43
8, 91110, Note_off_c, 2, 51, 64
8, 91110, Note_off_c, 2, 60, 64
8, 91110, Note_off_c, 2, 67, 64
8, 91110, Note_off_c, 2, 63, 64
8, 91130, Note_on_c, 2, 62, 60
8, 91130, Note_on_c, 2, 57, 60
8, 91130, Note_on_c, 2, 67, 60
8, 91130, Note_on_c, 2, 63, 60
8, 92156, Note_off_c, 2, 63, 64
8, 92156, Note_off_c, 2, 67, 64
8, 92156, Note_off_c, 2, 57, 64
8, 92156, Note_off_c, 2, 62, 64
8, 92160, Note_on_c, 2, 63, 60
8, 92160, Note_on_c, 2, 67, 60
8, 92160, Note_on_c, 2, 57, 60
8, 92160, Note_on_c, 2, 74, 60
8, 92550, Note_off_c, 2, 74, 64
8, 92550, Note_off_c, 2, 57, 64
8, 92550, Note_off_c, 2, 67, 64
8, 92550, Note_off_c, 2, 63, 64
8, 92570, Note_on_c, 2, 58, 35
8, 92570, Note_on_c, 2, 53, 36
8, 92570, Note_on_c, 2, 68, 69
8, 92570, Note_on_c, 2, 62, 30
8, 92570, Note_on_c, 2, 74, 60
8, 92570, Note_on_c, 2, 56, 54
8, 92776, Note_off_c, 2, 74, 64
8, 92798, Note_off_c, 2, 68, 64
8, 92816, Note_on_c, 2, 65, 58
8, 92816, Note_on_c, 2, 70, 60
8, 93030, Note_off_c, 2, 70, 64
8, 93030, Note_off_c, 2, 65, 64
8, 93030, Note_off_c, 2, 56, 64
8, 93030, Note_off_c, 2, 62, 64
8, 93030, Note_off_c, 2, 53, 64
8, 93030, Note_off_c, 2, 58, 64
8, 93062, Note_on_c, 2, 67, 58
8, 93068, Note_on_c, 2, 58, 48
8, 93068, Note_on_c, 2, 63, 48
8, 93372, Note_on_c, 2, 75, 85
8, 93554, Note_on_c, 2, 70, 53
8, 93560, Note_off_c, 2, 75, 64
8, 93632, Note_off_c, 2, 70, 64
8, 93784, Note_on_c, 2, 75, 90
8, 93888, Note_off_c, 2, 75, 64
8, 93888, Note_on_c, 2, 70, 49
8, 93966, Note_off_c, 2, 70, 64
8, 94076, Note_off_c, 2, 67, 64
8, 94076, Note_off_c, 2, 63, 64
8, 94076, Note_off_c, 2, 58, 64
8, 94080, Note_on_c, 2, 67, 64
8, 94080, Note_on_c, 2, 63, 76
8, 94080, Note_on_c, 2, 58, 46
8, 94320, Note_on_c, 2, 82, 81
8, 94478, Note_off_c, 2, 82, 64
8, 94496, Note_on_c, 2, 77, 57
8, 94688, Note_off_c, 2, 77, 64
8, 94736, Note_on_c, 2, 82, 75
8, 94816, Note_off_c, 2, 82, 64
8, 94816, Note_on_c, 2, 77, 51
8, 94856, Note_off_c, 2, 77, 64
8, 94888, Note_off_c, 2, 58, 64
8, 94888, Note_off_c, 2, 63, 64
8, 94906, Note_off_c, 2, 67, 64
8, 95040, Note_on_c, 2, 67, 69
8, 95040, Note_on_c, 2, 63, 56
8, 95040, Note_on_c, 2, 58, 53
8, 95040, Note_on_c, 2, 77, 66
8, 95040, Note_on_c, 2, 82, 85
8, 95098, Note_off_c, 2, 82, 64
8, 95098, Note_off_c, 2, 77, 64
8, 95098, Note_off_c, 2, 63, 64
8, 95102, Note_off_c, 2, 58, 64
8, 95126, Note_off_c, 2, 67, 64
8, 95456, Note_on_c, 2, 63, 69
8, 95456, Note_on_c, 2, 67, 54
8, 95456, Note_on_c, 2, 58, 43
8, 95456, Note_on_c, 2, 87, 75
8, 95456, Note_on_c, 2, 77, 65
8, 95456, Note_on_c, 2, 82, 73
8, 96000, Note_off_c, 2, 82, 64
8, 96000, Note_off_c, 2, 77, 64
8, 96000, Note_off_c, 2, 87, 64
8, 96000, Note_off_c, 2, 58, 64
8, 96000, Note_off_c, 2, 67, 64
8, 96000, Note_off_c, 2, 63, 64
8, 96000, Control_c, 2, 64, 0
8, 96000, End_track
9, 0, Start_track
9, 0, Title_t, "Melody / Rhodes piano"
9, 0, Control_c, 3, 0, 0
9, 0, Control_c, 3, 32, 0
9, 0, Program_c, 3, 4
9, 0, Control_c, 3, 7, 90
9, 0, Control_c, 3, 93, 10
9, 0, Control_c, 3, 91, 50
9, 0, Control_c, 3, 10, 64
9, 0, Control_c, 3, 123, 0
9, 2156, Note_on_c, 3, 67, 96
9, 2396, Note_off_c, 3, 67, 64
9, 2400, Note_on_c, 3, 70, 104
9, 2562, Note_off_c, 3, 70, 64
9, 2578, Note_on_c, 3, 67, 89
9, 2742, Note_off_c, 3, 67, 64
9, 2746, Note_on_c, 3, 70, 101
9, 2868, Note_off_c, 3, 70, 64
9, 2882, Note_on_c, 3, 67, 84
9, 3276, Note_off_c, 3, 67, 64
9, 3280, Note_on_c, 3, 63, 94
9, 3364, Note_off_c, 3, 63, 64
9, 3364, Note_on_c, 3, 67, 94
9, 3602, Note_on_c, 3, 70, 96
9, 3612, Note_off_c, 3, 67, 64
9, 3726, Note_off_c, 3, 70, 64
9, 3826, Note_on_c, 3, 73, 117
9, 4668, Note_off_c, 3, 73, 64
9, 4802, Note_on_c, 3, 72, 99
9, 5030, Note_off_c, 3, 72, 64
9, 5030, Note_on_c, 3, 67, 60
9, 5558, Note_off_c, 3, 67, 64
9, 5920, Note_on_c, 3, 68, 92
9, 6082, Note_off_c, 3, 68, 64
9, 6126, Note_on_c, 3, 72, 99
9, 6224, Note_off_c, 3, 72, 64
9, 6250, Note_on_c, 3, 68, 87
9, 6408, Note_off_c, 3, 68, 64
9, 6412, Note_on_c, 3, 72, 92
9, 6606, Note_off_c, 3, 72, 64
9, 6624, Note_on_c, 3, 68, 89
9, 7100, Note_off_c, 3, 68, 64
9, 7108, Note_on_c, 3, 65, 84
9, 7192, Note_off_c, 3, 65, 64
9, 7198, Note_on_c, 3, 68, 89
9, 7430, Note_off_c, 3, 68, 64
9, 7444, Note_on_c, 3, 70, 99
9, 7576, Note_off_c, 3, 70, 64
9, 7678, Note_on_c, 3, 71, 113
9, 8510, Note_off_c, 3, 71, 64
9, 8642, Note_on_c, 3, 70, 101
9, 8872, Note_off_c, 3, 70, 64
9, 8878, Note_on_c, 3, 65, 76
9, 9474, Note_off_c, 3, 65, 64
9, 9850, Note_on_c, 3, 63, 87
9, 9960, Note_off_c, 3, 63, 64
9, 10008, Note_on_c, 3, 63, 80
9, 10188, Note_off_c, 3, 63, 64
9, 10228, Note_on_c, 3, 62, 96
9, 10312, Note_off_c, 3, 62, 64
9, 10320, Note_on_c, 3, 63, 86
9, 10448, Note_off_c, 3, 63, 64
9, 10558, Note_on_c, 3, 67, 96
9, 10730, Note_off_c, 3, 67, 64
9, 10800, Note_on_c, 3, 67, 76
9, 10932, Note_off_c, 3, 67, 64
9, 11004, Note_on_c, 3, 67, 71
9, 11502, Note_off_c, 3, 67, 64
9, 11774, Note_on_c, 3, 67, 94
9, 11920, Note_off_c, 3, 67, 64
9, 12008, Note_on_c, 3, 67, 82
9, 12126, Note_off_c, 3, 67, 64
9, 12192, Note_on_c, 3, 67, 80
9, 12302, Note_off_c, 3, 67, 64
9, 12422, Note_on_c, 3, 72, 77
9, 13210, Note_off_c, 3, 72, 64
9, 13668, Note_on_c, 3, 72, 99
9, 13804, Note_off_c, 3, 72, 64
9, 13922, Note_on_c, 3, 72, 89
9, 14054, Note_off_c, 3, 72, 64
9, 14160, Note_on_c, 3, 72, 89
9, 14306, Note_off_c, 3, 72, 64
9, 14398, Note_on_c, 3, 74, 96
9, 14558, Note_off_c, 3, 74, 64
9, 14642, Note_on_c, 3, 74, 101
9, 14752, Note_off_c, 3, 74, 64
9, 14818, Note_on_c, 3, 74, 86
9, 15280, Note_off_c, 3, 74, 64
9, 15604, Note_on_c, 3, 75, 107
9, 15754, Note_off_c, 3, 75, 64
9, 15850, Note_on_c, 3, 75, 89
9, 15956, Note_off_c, 3, 75, 64
9, 16088, Note_on_c, 3, 75, 94
9, 16160, Note_off_c, 3, 75, 64
9, 16314, Note_on_c, 3, 65, 72
9, 17056, Note_off_c, 3, 65, 64
9, 17448, Note_on_c, 3, 67, 80
9, 17602, Note_off_c, 3, 67, 64
9, 17650, Note_on_c, 3, 70, 92
9, 17754, Note_off_c, 3, 70, 64
9, 17772, Note_on_c, 3, 67, 79
9, 17958, Note_off_c, 3, 67, 64
9, 17962, Note_on_c, 3, 70, 92
9, 18148, Note_off_c, 3, 70, 64
9, 18164, Note_on_c, 3, 67, 68
9, 18612, Note_off_c, 3, 67, 64
9, 18620, Note_on_c, 3, 63, 76
9, 18722, Note_on_c, 3, 67, 89
9, 18734, Note_off_c, 3, 63, 64
9, 18884, Note_on_c, 3, 70, 82
9, 18902, Note_off_c, 3, 67, 64
9, 19030, Note_off_c, 3, 70, 64
9, 19114, Note_on_c, 3, 73, 113
9, 19978, Note_off_c, 3, 73, 64
9, 20164, Note_on_c, 3, 72, 101
9, 20374, Note_off_c, 3, 72, 64
9, 20382, Note_on_c, 3, 67, 79
9, 20906, Note_off_c, 3, 67, 64
9, 21298, Note_on_c, 3, 68, 94
9, 21466, Note_off_c, 3, 68, 64
9, 21506, Note_on_c, 3, 72, 80
9, 21602, Note_off_c, 3, 72, 64
9, 21616, Note_on_c, 3, 68, 82
9, 21774, Note_off_c, 3, 68, 64
9, 21774, Note_on_c, 3, 72, 96
9, 21986, Note_off_c, 3, 72, 64
9, 21990, Note_on_c, 3, 68, 80
9, 22466, Note_off_c, 3, 68, 64
9, 22470, Note_on_c, 3, 65, 87
9, 22554, Note_off_c, 3, 65, 64
9, 22562, Note_on_c, 3, 68, 94
9, 22810, Note_on_c, 3, 70, 99
9, 22818, Note_off_c, 3, 68, 64
9, 22964, Note_off_c, 3, 70, 64
9, 23052, Note_on_c, 3, 75, 87
9, 23932, Note_off_c, 3, 75, 64
9, 24012, Note_on_c, 3, 75, 117
9, 24254, Note_off_c, 3, 75, 64
9, 24258, Note_on_c, 3, 74, 94
9, 24378, Note_off_c, 3, 74, 64
9, 24412, Note_on_c, 3, 74, 79
9, 24946, Note_off_c, 3, 74, 64
9, 25192, Note_on_c, 3, 73, 107
9, 25374, Note_off_c, 3, 73, 64
9, 25440, Note_on_c, 3, 73, 97
9, 25612, Note_off_c, 3, 73, 64
9, 25690, Note_on_c, 3, 73, 93
9, 25836, Note_off_c, 3, 73, 64
9, 25924, Note_on_c, 3, 73, 97
9, 26086, Note_off_c, 3, 73, 64
9, 26166, Note_on_c, 3, 72, 89
9, 26286, Note_off_c, 3, 72, 64
9, 26312, Note_on_c, 3, 70, 82
9, 26474, Note_off_c, 3, 70, 64
9, 26546, Note_on_c, 3, 68, 96
9, 26630, Note_off_c, 3, 68, 64
9, 26642, Note_on_c, 3, 67, 72
9, 26770, Note_off_c, 3, 67, 64
9, 27122, Note_on_c, 3, 70, 114
9, 27224, Note_off_c, 3, 70, 64
9, 27302, Note_on_c, 3, 70, 92
9, 27434, Note_off_c, 3, 70, 64
9, 27502, Note_on_c, 3, 69, 113
9, 27572, Note_off_c, 3, 69, 64
9, 27584, Note_on_c, 3, 68, 73
9, 27748, Note_off_c, 3, 68, 64
9, 27840, Note_on_c, 3, 75, 107
9, 28338, Note_off_c, 3, 75, 64
9, 28466, Note_on_c, 3, 63, 74
9, 28550, Note_off_c, 3, 63, 64
9, 28554, Note_on_c, 3, 65, 96
9, 28722, Note_off_c, 3, 65, 64
9, 28796, Note_on_c, 3, 67, 92
9, 29616, Note_off_c, 3, 67, 64
9, 29756, Note_on_c, 3, 67, 94
9, 29906, Note_off_c, 3, 67, 64
9, 29916, Note_on_c, 3, 72, 104
9, 30478, Note_off_c, 3, 72, 64
9, 30960, Note_on_c, 3, 63, 99
9, 31100, Note_off_c, 3, 63, 64
9, 31122, Note_on_c, 3, 65, 99
9, 31342, Note_off_c, 3, 65, 64
9, 31352, Note_on_c, 3, 63, 74
9, 31430, Note_off_c, 3, 63, 64
9, 31444, Note_on_c, 3, 65, 94
9, 31634, Note_off_c, 3, 65, 64
9, 31650, Note_on_c, 3, 63, 89
9, 32682, Note_off_c, 3, 63, 64
9, 63596, Note_on_c, 3, 67, 96
9, 63836, Note_off_c, 3, 67, 64
9, 63840, Note_on_c, 3, 70, 104
9, 64002, Note_off_c, 3, 70, 64
9, 64018, Note_on_c, 3, 67, 89
9, 64182, Note_off_c, 3, 67, 64
9, 64186, Note_on_c, 3, 70, 101
9, 64308, Note_off_c, 3, 70, 64
9, 64322, Note_on_c, 3, 67, 84
9, 64716, Note_off_c, 3, 67, 64
9, 64720, Note_on_c, 3, 63, 94
9, 64804, Note_off_c, 3, 63, 64
9, 64804, Note_on_c, 3, 67, 94
9, 65042, Note_on_c, 3, 70, 96
9, 65052, Note_off_c, 3, 67, 64
9, 65166, Note_off_c, 3, 70, 64
9, 65266, Note_on_c, 3, 73, 117
9, 66108, Note_off_c, 3, 73, 64
9, 66242, Note_on_c, 3, 72, 99
9, 66470, Note_off_c, 3, 72, 64
9, 66470, Note_on_c, 3, 67, 60
9, 66998, Note_off_c, 3, 67, 64
9, 67360, Note_on_c, 3, 68, 92
9, 67522, Note_off_c, 3, 68, 64
9, 67566, Note_on_c, 3, 72, 99
9, 67664, Note_off_c, 3, 72, 64
9, 67690, Note_on_c, 3, 68, 87
9, 67848, Note_off_c, 3, 68, 64
9, 67852, Note_on_c, 3, 72, 92
9, 68046, Note_off_c, 3, 72, 64
9, 68064, Note_on_c, 3, 68, 89
9, 68540, Note_off_c, 3, 68, 64
9, 68548, Note_on_c, 3, 65, 84
9, 68632, Note_off_c, 3, 65, 64
9, 68638, Note_on_c, 3, 68, 89
9, 68870, Note_off_c, 3, 68, 64
9, 68884, Note_on_c, 3, 70, 99
9, 69016, Note_off_c, 3, 70, 64
9, 69118, Note_on_c, 3, 71, 113
9, 69950, Note_off_c, 3, 71, 64
9, 70082, Note_on_c, 3, 70, 101
9, 70312, Note_off_c, 3, 70, 64
9, 70318, Note_on_c, 3, 65, 76
9, 70914, Note_off_c, 3, 65, 64
9, 71290, Note_on_c, 3, 63, 87
9, 71400, Note_off_c, 3, 63, 64
9, 71448, Note_on_c, 3, 63, 80
9, 71628, Note_off_c, 3, 63, 64
9, 71668, Note_on_c, 3, 62, 96
9, 71752, Note_off_c, 3, 62, 64
9, 71760, Note_on_c, 3, 63, 86
9, 71888, Note_off_c, 3, 63, 64
9, 71998, Note_on_c, 3, 67, 96
9, 72170, Note_off_c, 3, 67, 64
9, 72240, Note_on_c, 3, 67, 76
9, 72372, Note_off_c, 3, 67, 64
9, 72444, Note_on_c, 3, 67, 71
9, 72942, Note_off_c, 3, 67, 64
9, 73214, Note_on_c, 3, 67, 94
9, 73360, Note_off_c, 3, 67, 64
9, 73448, Note_on_c, 3, 67, 82
9, 73566, Note_off_c, 3, 67, 64
9, 73632, Note_on_c, 3, 67, 80
9, 73742, Note_off_c, 3, 67, 64
9, 73862, Note_on_c, 3, 72, 77
9, 74650, Note_off_c, 3, 72, 64
9, 75108, Note_on_c, 3, 72, 99
9, 75244, Note_off_c, 3, 72, 64
9, 75362, Note_on_c, 3, 72, 89
9, 75494, Note_off_c, 3, 72, 64
9, 75600, Note_on_c, 3, 72, 89
9, 75746, Note_off_c, 3, 72, 64
9, 75838, Note_on_c, 3, 74, 96
9, 75998, Note_off_c, 3, 74, 64
9, 76082, Note_on_c, 3, 74, 101
9, 76192, Note_off_c, 3, 74, 64
9, 76258, Note_on_c, 3, 74, 86
9, 76720, Note_off_c, 3, 74, 64
9, 77044, Note_on_c, 3, 75, 107
9, 77194, Note_off_c, 3, 75, 64
9, 77290, Note_on_c, 3, 75, 89
9, 77396, Note_off_c, 3, 75, 64
9, 77528, Note_on_c, 3, 75, 94
9, 77600, Note_off_c, 3, 75, 64
9, 77754, Note_on_c, 3, 65, 72
9, 78496, Note_off_c, 3, 65, 64
9, 78888, Note_on_c, 3, 67, 80
9, 79042, Note_off_c, 3, 67, 64
9, 79090, Note_on_c, 3, 70, 92
9, 79194, Note_off_c, 3, 70, 64
9, 79212, Note_on_c, 3, 67, 79
9, 79398, Note_off_c, 3, 67, 64
9, 79402, Note_on_c, 3, 70, 92
9, 79588, Note_off_c, 3, 70, 64
9, 79604, Note_on_c, 3, 67, 68
9, 80052, Note_off_c, 3, 67, 64
9, 80060, Note_on_c, 3, 63, 76
9, 80162, Note_on_c, 3, 67, 89
9, 80174, Note_off_c, 3, 63, 64
9, 80324, Note_on_c, 3, 70, 82
9, 80342, Note_off_c, 3, 67, 64
9, 80470, Note_off_c, 3, 70, 64
9, 80554, Note_on_c, 3, 73, 113
9, 81418, Note_off_c, 3, 73, 64
9, 81604, Note_on_c, 3, 72, 101
9, 81814, Note_off_c, 3, 72, 64
9, 81822, Note_on_c, 3, 67, 79
9, 82346, Note_off_c, 3, 67, 64
9, 82738, Note_on_c, 3, 68, 94
9, 82906, Note_off_c, 3, 68, 64
9, 82946, Note_on_c, 3, 72, 80
9, 83042, Note_off_c, 3, 72, 64
9, 83056, Note_on_c, 3, 68, 82
9, 83214, Note_off_c, 3, 68, 64
9, 83214, Note_on_c, 3, 72, 96
9, 83426, Note_off_c, 3, 72, 64
9, 83430, Note_on_c, 3, 68, 80
9, 83906, Note_off_c, 3, 68, 64
9, 83910, Note_on_c, 3, 65, 87
9, 83994, Note_off_c, 3, 65, 64
9, 84002, Note_on_c, 3, 68, 94
9, 84250, Note_on_c, 3, 70, 99
9, 84258, Note_off_c, 3, 68, 64
9, 84404, Note_off_c, 3, 70, 64
9, 84492, Note_on_c, 3, 75, 87
9, 85372, Note_off_c, 3, 75, 64
9, 85452, Note_on_c, 3, 75, 117
9, 85694, Note_off_c, 3, 75, 64
9, 85698, Note_on_c, 3, 74, 94
9, 85818, Note_off_c, 3, 74, 64
9, 85852, Note_on_c, 3, 74, 79
9, 86386, Note_off_c, 3, 74, 64
9, 86632, Note_on_c, 3, 73, 107
9, 86814, Note_off_c, 3, 73, 64
9, 86880, Note_on_c, 3, 73, 97
9, 87052, Note_off_c, 3, 73, 64
9, 87130, Note_on_c, 3, 73, 93
9, 87276, Note_off_c, 3, 73, 64
9, 87364, Note_on_c, 3, 73, 97
9, 87526, Note_off_c, 3, 73, 64
9, 87606, Note_on_c, 3, 72, 89
9, 87726, Note_off_c, 3, 72, 64
9, 87752, Note_on_c, 3, 70, 82
9, 87914, Note_off_c, 3, 70, 64
9, 87986, Note_on_c, 3, 68, 96
9, 88070, Note_off_c, 3, 68, 64
9, 88082, Note_on_c, 3, 67, 72
9, 88210, Note_off_c, 3, 67, 64
9, 88562, Note_on_c, 3, 70, 114
9, 88664, Note_off_c, 3, 70, 64
9, 88742, Note_on_c, 3, 70, 92
9, 88874, Note_off_c, 3, 70, 64
9, 88942, Note_on_c, 3, 69, 113
9, 89012, Note_off_c, 3, 69, 64
9, 89024, Note_on_c, 3, 68, 73
9, 89188, Note_off_c, 3, 68, 64
9, 89280, Note_on_c, 3, 75, 107
9, 89778, Note_off_c, 3, 75, 64
9, 89906, Note_on_c, 3, 63, 74
9, 89990, Note_off_c, 3, 63, 64
9, 89994, Note_on_c, 3, 65, 96
9, 90162, Note_off_c, 3, 65, 64
9, 90236, Note_on_c, 3, 67, 92
9, 91056, Note_off_c, 3, 67, 64
9, 91196, Note_on_c, 3, 67, 94
9, 91346, Note_off_c, 3, 67, 64
9, 91356, Note_on_c, 3, 72, 104
9, 91918, Note_off_c, 3, 72, 64
9, 92400, Note_on_c, 3, 63, 99
9, 92540, Note_off_c, 3, 63, 64
9, 92562, Note_on_c, 3, 65, 99
9, 92782, Note_off_c, 3, 65, 64
9, 92792, Note_on_c, 3, 63, 74
9, 92870, Note_off_c, 3, 63, 64
9, 92884, Note_on_c, 3, 65, 94
9, 93074, Note_off_c, 3, 65, 64
9, 93090, Note_on_c, 3, 63, 89
9, 94122, Note_off_c, 3, 63, 64
9, 94122, End_track
10, 0, Start_track
10, 0, Title_t, "Solo / Mute trumpet"
10, 0, Control_c, 4, 0, 0
10, 0, Control_c, 4, 32, 0
10, 0, Program_c, 4, 59
10, 0, Control_c, 4, 7, 105
10, 0, Control_c, 4, 93, 0
10, 0, Control_c, 4, 91, 40
10, 0, Control_c, 4, 10, 64
10, 0, Control_c, 4, 123, 0
10, 0, Program_c, 4, 59
10, 32552, Note_on_c, 4, 72, 127
10, 32638, Note_off_c, 4, 72, 64
10, 32670, Note_on_c, 4, 70, 100
10, 32750, Note_off_c, 4, 70, 64
10, 32790, Note_on_c, 4, 67, 114
10, 32878, Note_off_c, 4, 67, 64
10, 32910, Note_on_c, 4, 63, 75
10, 33034, Note_on_c, 4, 60, 64
10, 33070, Note_off_c, 4, 63, 64
10, 33106, Note_off_c, 4, 60, 64
10, 33154, Note_on_c, 4, 62, 115
10, 33256, Note_off_c, 4, 62, 64
10, 33280, Note_on_c, 4, 57, 83
10, 33366, Note_off_c, 4, 57, 64
10, 33388, Note_on_c, 4, 58, 94
10, 33436, Note_off_c, 4, 58, 64
10, 33474, Note_on_c, 4, 62, 59
10, 33530, Note_off_c, 4, 62, 64
10, 33538, Note_on_c, 4, 65, 127
10, 33608, Note_off_c, 4, 65, 64
10, 33634, Note_on_c, 4, 67, 115
10, 33756, Note_off_c, 4, 67, 64
10, 33770, Note_on_c, 4, 70, 127
10, 33866, Note_off_c, 4, 70, 64
10, 33872, Note_on_c, 4, 67, 96
10, 33978, Note_off_c, 4, 67, 64
10, 34012, Note_on_c, 4, 63, 105
10, 34098, Note_off_c, 4, 63, 64
10, 34146, Note_on_c, 4, 58, 75
10, 34274, Note_off_c, 4, 58, 64
10, 34350, Note_on_c, 4, 58, 76
10, 34584, Note_off_c, 4, 58, 64
10, 34960, Note_on_c, 4, 61, 85
10, 35022, Note_off_c, 4, 61, 64
10, 35052, Note_on_c, 4, 63, 127
10, 35174, Note_off_c, 4, 63, 64
10, 35188, Note_on_c, 4, 61, 125
10, 35272, Note_off_c, 4, 61, 64
10, 35308, Note_on_c, 4, 58, 75
10, 35394, Note_off_c, 4, 58, 64
10, 35436, Note_on_c, 4, 57, 89
10, 35494, Note_off_c, 4, 57, 64
10, 35690, Note_on_c, 4, 60, 81
10, 35774, Note_off_c, 4, 60, 64
10, 35806, Note_on_c, 4, 61, 61
10, 35846, Note_off_c, 4, 61, 64
10, 35870, Note_on_c, 4, 65, 84
10, 35926, Note_off_c, 4, 65, 64
10, 35938, Note_on_c, 4, 68, 119
10, 35972, Note_off_c, 4, 68, 64
10, 36038, Note_on_c, 4, 72, 127
10, 36128, Note_off_c, 4, 72, 64
10, 36154, Note_on_c, 4, 75, 126
10, 36238, Note_off_c, 4, 75, 64
10, 36282, Note_on_c, 4, 73, 96
10, 36392, Note_off_c, 4, 73, 64
10, 37464, Note_on_c, 4, 72, 86
10, 37582, Note_on_c, 4, 77, 103
10, 37640, Note_off_c, 4, 72, 64
10, 37666, Note_off_c, 4, 77, 64
10, 37688, Note_on_c, 4, 82, 127
10, 37848, Note_off_c, 4, 82, 64
10, 37926, Note_on_c, 4, 79, 106
10, 38136, Note_off_c, 4, 79, 64
10, 39500, Note_on_c, 4, 74, 108
10, 39596, Note_off_c, 4, 74, 64
10, 39608, Note_on_c, 4, 72, 79
10, 39696, Note_off_c, 4, 72, 64
10, 39704, Note_on_c, 4, 70, 83
10, 39790, Note_off_c, 4, 70, 64
10, 39790, Note_on_c, 4, 68, 100
10, 39874, Note_off_c, 4, 68, 64
10, 39876, Note_on_c, 4, 67, 126
10, 39982, Note_off_c, 4, 67, 64
10, 39986, Note_on_c, 4, 68, 127
10, 40078, Note_off_c, 4, 68, 64
10, 40116, Note_on_c, 4, 67, 113
10, 40206, Note_off_c, 4, 67, 64
10, 40220, Note_on_c, 4, 65, 120
10, 40334, Note_off_c, 4, 65, 64
10, 40360, Note_on_c, 4, 63, 124
10, 40450, Note_off_c, 4, 63, 64
10, 40478, Note_on_c, 4, 62, 127
10, 40562, Note_off_c, 4, 62, 64
10, 40604, Note_on_c, 4, 60, 108
10, 40692, Note_off_c, 4, 60, 64
10, 40716, Note_on_c, 4, 58, 118
10, 40808, Note_off_c, 4, 58, 64
10, 40836, Note_on_c, 4, 55, 94
10, 41000, Note_off_c, 4, 55, 64
10, 42172, Note_on_c, 4, 58, 68
10, 42230, Note_off_c, 4, 58, 64
10, 42248, Note_on_c, 4, 61, 125
10, 42410, Note_on_c, 4, 58, 55
10, 42422, Note_off_c, 4, 61, 64
10, 42468, Note_off_c, 4, 58, 64
10, 42498, Note_on_c, 4, 61, 100
10, 42618, Note_off_c, 4, 61, 64
10, 42636, Note_on_c, 4, 63, 127
10, 42730, Note_off_c, 4, 63, 64
10, 43198, Note_on_c, 4, 55, 113
10, 43446, Note_off_c, 4, 55, 64
10, 43592, Note_on_c, 4, 69, 127
10, 43690, Note_off_c, 4, 69, 64
10, 43832, Note_on_c, 4, 67, 127
10, 43998, Note_off_c, 4, 67, 64
10, 44066, Note_on_c, 4, 62, 127
10, 44152, Note_off_c, 4, 62, 64
10, 44210, Note_on_c, 4, 63, 93
10, 44324, Note_on_c, 4, 60, 58
10, 44328, Note_off_c, 4, 63, 64
10, 44402, Note_off_c, 4, 60, 64
10, 44428, Note_on_c, 4, 62, 91
10, 44538, Note_off_c, 4, 62, 64
10, 44554, Note_on_c, 4, 63, 121
10, 44634, Note_off_c, 4, 63, 64
10, 44680, Note_on_c, 4, 65, 108
10, 44782, Note_off_c, 4, 65, 64
10, 44798, Note_on_c, 4, 64, 113
10, 44890, Note_off_c, 4, 64, 64
10, 44922, Note_on_c, 4, 63, 94
10, 44998, Note_off_c, 4, 63, 64
10, 45036, Note_on_c, 4, 67, 113
10, 45152, Note_off_c, 4, 67, 64
10, 45160, Note_on_c, 4, 62, 81
10, 45264, Note_off_c, 4, 62, 64
10, 45272, Note_on_c, 4, 59, 64
10, 45346, Note_off_c, 4, 59, 64
10, 45382, Note_on_c, 4, 60, 99
10, 45728, Note_off_c, 4, 60, 64
10, 46334, Note_on_c, 4, 66, 127
10, 46454, Note_off_c, 4, 66, 64
10, 46582, Note_on_c, 4, 63, 109
10, 46776, Note_off_c, 4, 63, 64
10, 46944, Note_on_c, 4, 59, 127
10, 47036, Note_off_c, 4, 59, 64
10, 47096, Note_on_c, 4, 60, 78
10, 47204, Note_on_c, 4, 63, 88
10, 47260, Note_off_c, 4, 60, 64
10, 47288, Note_off_c, 4, 63, 64
10, 47330, Note_on_c, 4, 67, 110
10, 47448, Note_off_c, 4, 67, 64
10, 47450, Note_on_c, 4, 63, 65
10, 47524, Note_off_c, 4, 63, 64
10, 47552, Note_on_c, 4, 65, 106
10, 47658, Note_off_c, 4, 65, 64
10, 47684, Note_on_c, 4, 62, 70
10, 47804, Note_off_c, 4, 62, 64
10, 48152, Note_on_c, 4, 62, 94
10, 48232, Note_off_c, 4, 62, 64
10, 48262, Note_on_c, 4, 65, 114
10, 48370, Note_off_c, 4, 65, 64
10, 48384, Note_on_c, 4, 62, 98
10, 48472, Note_off_c, 4, 62, 64
10, 48502, Note_on_c, 4, 63, 127
10, 48564, Note_off_c, 4, 63, 64
10, 48630, Note_on_c, 4, 61, 118
10, 48696, Note_off_c, 4, 61, 64
10, 48742, Note_on_c, 4, 62, 120
10, 48846, Note_off_c, 4, 62, 64
10, 48858, Note_on_c, 4, 58, 127
10, 48954, Note_off_c, 4, 58, 64
10, 49000, Note_on_c, 4, 60, 89
10, 49122, Note_on_c, 4, 62, 88
10, 49156, Note_off_c, 4, 60, 64
10, 49204, Note_off_c, 4, 62, 64
10, 49236, Note_on_c, 4, 63, 108
10, 49330, Note_off_c, 4, 63, 64
10, 49356, Note_on_c, 4, 65, 125
10, 49442, Note_off_c, 4, 65, 64
10, 49486, Note_on_c, 4, 58, 88
10, 49592, Note_off_c, 4, 58, 64
10, 49688, Note_on_c, 4, 58, 83
10, 49896, Note_off_c, 4, 58, 64
10, 50092, Note_on_c, 4, 60, 114
10, 50196, Note_on_c, 4, 61, 98
10, 50198, Note_off_c, 4, 60, 64
10, 50268, Note_off_c, 4, 61, 64
10, 50276, Note_on_c, 4, 65, 38
10, 50330, Note_off_c, 4, 65, 64
10, 50354, Note_on_c, 4, 69, 53
10, 50406, Note_off_c, 4, 69, 64
10, 50436, Note_on_c, 4, 72, 113
10, 50480, Note_off_c, 4, 72, 64
10, 50660, Note_on_c, 4, 72, 94
10, 50780, Note_off_c, 4, 72, 64
10, 50924, Note_on_c, 4, 70, 109
10, 51014, Note_off_c, 4, 70, 64
10, 51028, Note_on_c, 4, 67, 99
10, 51116, Note_off_c, 4, 67, 64
10, 51158, Note_on_c, 4, 64, 95
10, 51238, Note_off_c, 4, 64, 64
10, 51272, Note_on_c, 4, 63, 111
10, 51376, Note_off_c, 4, 63, 64
10, 51406, Note_on_c, 4, 62, 84
10, 51530, Note_off_c, 4, 62, 64
10, 51740, Note_on_c, 4, 70, 123
10, 51832, Note_off_c, 4, 70, 64
10, 51984, Note_on_c, 4, 68, 115
10, 52088, Note_off_c, 4, 68, 64
10, 52222, Note_on_c, 4, 70, 119
10, 52328, Note_off_c, 4, 70, 64
10, 52368, Note_on_c, 4, 67, 79
10, 52480, Note_on_c, 4, 69, 95
10, 52490, Note_off_c, 4, 67, 64
10, 52578, Note_off_c, 4, 69, 64
10, 52604, Note_on_c, 4, 71, 86
10, 52710, Note_on_c, 4, 74, 101
10, 52714, Note_off_c, 4, 71, 64
10, 52780, Note_off_c, 4, 74, 64
10, 52816, Note_on_c, 4, 75, 116
10, 52930, Note_off_c, 4, 75, 64
10, 52956, Note_on_c, 4, 72, 101
10, 53052, Note_off_c, 4, 72, 64
10, 53064, Note_on_c, 4, 68, 104
10, 53206, Note_on_c, 4, 65, 60
10, 53242, Note_off_c, 4, 68, 64
10, 53278, Note_off_c, 4, 65, 64
10, 53296, Note_on_c, 4, 70, 121
10, 53420, Note_on_c, 4, 67, 104
10, 53432, Note_off_c, 4, 70, 64
10, 53688, Note_off_c, 4, 67, 64
10, 54740, Note_on_c, 4, 71, 109
10, 54924, Note_off_c, 4, 71, 64
10, 54984, Note_on_c, 4, 79, 127
10, 55100, Note_off_c, 4, 79, 64
10, 55210, Note_on_c, 4, 69, 74
10, 55398, Note_off_c, 4, 69, 64
10, 55446, Note_on_c, 4, 77, 127
10, 55576, Note_off_c, 4, 77, 64
10, 55702, Note_on_c, 4, 76, 127
10, 55806, Note_off_c, 4, 76, 64
10, 55826, Note_on_c, 4, 74, 81
10, 55888, Note_off_c, 4, 74, 64
10, 55930, Note_on_c, 4, 75, 127
10, 56024, Note_off_c, 4, 75, 64
10, 56060, Note_on_c, 4, 73, 120
10, 56140, Note_off_c, 4, 73, 64
10, 56198, Note_on_c, 4, 72, 100
10, 56310, Note_off_c, 4, 72, 64
10, 56320, Note_on_c, 4, 76, 125
10, 56410, Note_off_c, 4, 76, 64
10, 56434, Note_on_c, 4, 79, 127
10, 56532, Note_on_c, 4, 78, 127
10, 56538, Note_off_c, 4, 79, 64
10, 56576, Note_off_c, 4, 78, 64
10, 56696, Note_on_c, 4, 77, 98
10, 56802, Note_off_c, 4, 77, 64
10, 56904, Note_on_c, 4, 73, 93
10, 57028, Note_off_c, 4, 73, 64
10, 57172, Note_on_c, 4, 76, 127
10, 57266, Note_off_c, 4, 76, 64
10, 57290, Note_on_c, 4, 72, 48
10, 57384, Note_off_c, 4, 72, 64
10, 57390, Note_on_c, 4, 74, 95
10, 57474, Note_off_c, 4, 74, 64
10, 57504, Note_on_c, 4, 76, 127
10, 57594, Note_off_c, 4, 76, 64
10, 57616, Note_on_c, 4, 77, 123
10, 57736, Note_off_c, 4, 77, 64
10, 57750, Note_on_c, 4, 75, 127
10, 57832, Note_off_c, 4, 75, 64
10, 57872, Note_on_c, 4, 72, 59
10, 57956, Note_off_c, 4, 72, 64
10, 57984, Note_on_c, 4, 68, 110
10, 58070, Note_off_c, 4, 68, 64
10, 58100, Note_on_c, 4, 67, 69
10, 58222, Note_off_c, 4, 67, 64
10, 58234, Note_on_c, 4, 65, 51
10, 58312, Note_off_c, 4, 65, 64
10, 58330, Note_on_c, 4, 70, 126
10, 58468, Note_off_c, 4, 70, 64
10, 60018, Note_on_c, 4, 67, 63
10, 60168, Note_off_c, 4, 67, 64
10, 60248, Note_on_c, 4, 70, 127
10, 60400, Note_on_c, 4, 67, 93
10, 60428, Note_off_c, 4, 70, 64
10, 60476, Note_off_c, 4, 67, 64
10, 60510, Note_on_c, 4, 74, 127
10, 60608, Note_off_c, 4, 74, 64
10, 60620, Note_on_c, 4, 77, 120
10, 60714, Note_off_c, 4, 77, 64
10, 60748, Note_on_c, 4, 75, 114
10, 60824, Note_off_c, 4, 75, 64
10, 60860, Note_on_c, 4, 70, 124
10, 60944, Note_off_c, 4, 70, 64
10, 60978, Note_on_c, 4, 65, 86
10, 61088, Note_off_c, 4, 65, 64
10, 61094, Note_on_c, 4, 63, 121
10, 61192, Note_off_c, 4, 63, 64
10, 61222, Note_on_c, 4, 62, 78
10, 61334, Note_off_c, 4, 62, 64
10, 61342, Note_on_c, 4, 63, 106
10, 61438, Note_off_c, 4, 63, 64
10, 61460, Note_on_c, 4, 65, 78
10, 61568, Note_off_c, 4, 65, 64
10, 61584, Note_on_c, 4, 69, 103
10, 61654, Note_off_c, 4, 69, 64
10, 61690, Note_on_c, 4, 72, 104
10, 61784, Note_off_c, 4, 72, 64
10, 62188, Note_on_c, 4, 70, 66
10, 62250, Note_on_c, 4, 71, 75
10, 62276, Note_off_c, 4, 70, 64
10, 62284, Note_on_c, 4, 74, 91
10, 62286, Note_off_c, 4, 71, 64
10, 62338, Note_on_c, 4, 77, 114
10, 62346, Note_off_c, 4, 74, 64
10, 62410, Note_off_c, 4, 77, 64
10, 62430, Note_on_c, 4, 79, 127
10, 62536, Note_off_c, 4, 79, 64
10, 62564, Note_on_c, 4, 74, 63
10, 62644, Note_off_c, 4, 74, 64
10, 62658, Note_on_c, 4, 77, 100
10, 62770, Note_off_c, 4, 77, 64
10, 62806, Note_on_c, 4, 74, 64
10, 62888, Note_off_c, 4, 74, 64
10, 62912, Note_on_c, 4, 75, 85
10, 63032, Note_off_c, 4, 75, 64
10, 63044, Note_on_c, 4, 72, 79
10, 63214, Note_off_c, 4, 72, 64
10, 63214, End_track
11, 0, Start_track
11, 0, Title_t, "Strings / Slow strings"
11, 0, Control_c, 5, 0, 0
11, 0, Control_c, 5, 32, 0
11, 0, Program_c, 5, 49
11, 0, Control_c, 5, 7, 55
11, 0, Control_c, 5, 10, 64
11, 0, Control_c, 5, 123, 0
11, 0, Control_c, 5, 91, 120
11, 0, Control_c, 5, 93, 100
11, 0, Control_c, 5, 64, 0
11, 17280, Note_on_c, 5, 67, 42
11, 17280, Note_on_c, 5, 63, 52
11, 17280, Note_on_c, 5, 58, 66
11, 17280, Note_on_c, 5, 51, 43
11, 17760, Note_off_c, 5, 51, 64
11, 17760, Note_off_c, 5, 58, 64
11, 17760, Note_off_c, 5, 63, 64
11, 17760, Note_off_c, 5, 67, 64
11, 17760, Note_on_c, 5, 70, 42
11, 17760, Note_on_c, 5, 67, 52
11, 17760, Note_on_c, 5, 62, 66
11, 17760, Note_on_c, 5, 55, 43
11, 18240, Note_off_c, 5, 55, 64
11, 18240, Note_off_c, 5, 62, 64
11, 18240, Note_off_c, 5, 67, 64
11, 18240, Note_off_c, 5, 70, 64
11, 18240, Note_on_c, 5, 63, 42
11, 18240, Note_on_c, 5, 58, 52
11, 18240, Note_on_c, 5, 55, 66
11, 18240, Note_on_c, 5, 48, 43
11, 18480, Note_off_c, 5, 48, 64
11, 18480, Note_off_c, 5, 55, 64
11, 18480, Note_off_c, 5, 58, 64
11, 18480, Note_off_c, 5, 63, 64
11, 18480, Note_on_c, 5, 67, 42
11, 18480, Note_on_c, 5, 63, 52
11, 18480, Note_on_c, 5, 58, 66
11, 18480, Note_on_c, 5, 51, 43
11, 18720, Note_off_c, 5, 51, 64
11, 18720, Note_off_c, 5, 58, 64
11, 18720, Note_off_c, 5, 63, 64
11, 18720, Note_off_c, 5, 67, 64
11, 18720, Note_on_c, 5, 67, 42
11, 18720, Note_on_c, 5, 63, 52
11, 18720, Note_on_c, 5, 58, 66
11, 18720, Note_on_c, 5, 51, 43
11, 19200, Note_off_c, 5, 51, 64
11, 19200, Note_off_c, 5, 58, 64
11, 19200, Note_off_c, 5, 63, 64
11, 19200, Note_off_c, 5, 67, 64
11, 19200, Note_on_c, 5, 65, 42
11, 19200, Note_on_c, 5, 58, 52
11, 19200, Note_on_c, 5, 55, 66
11, 19200, Note_on_c, 5, 49, 43
11, 20160, Note_off_c, 5, 49, 64
11, 20160, Note_off_c, 5, 55, 64
11, 20160, Note_off_c, 5, 58, 64
11, 20160, Note_off_c, 5, 65, 64
11, 20160, Note_on_c, 5, 67, 42
11, 20160, Note_on_c, 5, 60, 52
11, 20160, Note_on_c, 5, 58, 66
11, 20160, Note_on_c, 5, 52, 43
11, 21120, Note_off_c, 5, 52, 64
11, 21120, Note_off_c, 5, 58, 64
11, 21120, Note_off_c, 5, 60, 64
11, 21120, Note_off_c, 5, 67, 64
11, 21120, Note_on_c, 5, 68, 42
11, 21120, Note_on_c, 5, 65, 52
11, 21120, Note_on_c, 5, 60, 66
11, 21120, Note_on_c, 5, 53, 43
11, 21600, Note_off_c, 5, 53, 64
11, 21600, Note_off_c, 5, 60, 64
11, 21600, Note_off_c, 5, 65, 64
11, 21600, Note_off_c, 5, 68, 64
11, 21600, Note_on_c, 5, 67, 42
11, 21600, Note_on_c, 5, 60, 52
11, 21600, Note_on_c, 5, 59, 66
11, 21600, Note_on_c, 5, 52, 43
11, 22080, Note_off_c, 5, 52, 64
11, 22080, Note_off_c, 5, 59, 64
11, 22080, Note_off_c, 5, 60, 64
11, 22080, Note_off_c, 5, 67, 64
11, 22080, Note_on_c, 5, 65, 42
11, 22080, Note_on_c, 5, 60, 52
11, 22080, Note_on_c, 5, 56, 66
11, 22080, Note_on_c, 5, 51, 43
11, 23040, Note_off_c, 5, 51, 64
11, 23040, Note_off_c, 5, 56, 64
11, 23040, Note_off_c, 5, 60, 64
11, 23040, Note_off_c, 5, 65, 64
11, 23040, Note_on_c, 5, 68, 42
11, 23040, Note_on_c, 5, 63, 52
11, 23040, Note_on_c, 5, 59, 66
11, 23040, Note_on_c, 5, 53, 43
11, 24000, Note_off_c, 5, 53, 64
11, 24000, Note_off_c, 5, 59, 64
11, 24000, Note_off_c, 5, 63, 64
11, 24000, Note_off_c, 5, 68, 64
11, 24000, Note_on_c, 5, 67, 42
11, 24000, Note_on_c, 5, 62, 52
11, 24000, Note_on_c, 5, 59, 66
11, 24000, Note_on_c, 5, 53, 43
11, 24960, Note_off_c, 5, 53, 64
11, 24960, Note_off_c, 5, 59, 64
11, 24960, Note_off_c, 5, 62, 64
11, 24960, Note_off_c, 5, 67, 64
11, 24960, Note_on_c, 5, 67, 42
11, 24960, Note_on_c, 5, 60, 52
11, 24960, Note_on_c, 5, 58, 66
11, 24960, Note_on_c, 5, 52, 43
11, 25440, Note_off_c, 5, 52, 64
11, 25440, Note_off_c, 5, 58, 64
11, 25440, Note_off_c, 5, 60, 64
11, 25440, Note_off_c, 5, 67, 64
11, 25440, Note_on_c, 5, 67, 42
11, 25440, Note_on_c, 5, 62, 52
11, 25440, Note_on_c, 5, 58, 66
11, 25440, Note_on_c, 5, 52, 43
11, 25920, Note_off_c, 5, 52, 64
11, 25920, Note_off_c, 5, 58, 64
11, 25920, Note_off_c, 5, 62, 64
11, 25920, Note_off_c, 5, 67, 64
11, 25920, Note_on_c, 5, 65, 42
11, 25920, Note_on_c, 5, 58, 52
11, 25920, Note_on_c, 5, 55, 66
11, 25920, Note_on_c, 5, 49, 43
11, 26400, Note_off_c, 5, 49, 64
11, 26400, Note_off_c, 5, 55, 64
11, 26400, Note_off_c, 5, 58, 64
11, 26400, Note_off_c, 5, 65, 64
11, 26400, Note_on_c, 5, 67, 42
11, 26400, Note_on_c, 5, 60, 52
11, 26400, Note_on_c, 5, 58, 66
11, 26400, Note_on_c, 5, 52, 43
11, 26880, Note_off_c, 5, 52, 64
11, 26880, Note_off_c, 5, 58, 64
11, 26880, Note_off_c, 5, 60, 64
11, 26880, Note_off_c, 5, 67, 64
11, 26880, Note_on_c, 5, 65, 42
11, 26880, Note_on_c, 5, 60, 52
11, 26880, Note_on_c, 5, 56, 66
11, 26880, Note_on_c, 5, 51, 43
11, 27840, Note_off_c, 5, 51, 64
11, 27840, Note_off_c, 5, 56, 64
11, 27840, Note_off_c, 5, 60, 64
11, 27840, Note_off_c, 5, 65, 64
11, 27840, Note_on_c, 5, 68, 42
11, 27840, Note_on_c, 5, 63, 52
11, 27840, Note_on_c, 5, 59, 66
11, 27840, Note_on_c, 5, 53, 43
11, 28800, Note_off_c, 5, 53, 64
11, 28800, Note_off_c, 5, 59, 64
11, 28800, Note_off_c, 5, 63, 64
11, 28800, Note_off_c, 5, 68, 64
11, 28800, Note_on_c, 5, 67, 42
11, 28800, Note_on_c, 5, 63, 52
11, 28800, Note_on_c, 5, 60, 66
11, 28800, Note_on_c, 5, 51, 43
11, 29760, Note_off_c, 5, 51, 64
11, 29760, Note_off_c, 5, 60, 64
11, 29760, Note_off_c, 5, 63, 64
11, 29760, Note_off_c, 5, 67, 64
11, 29760, Note_on_c, 5, 67, 42
11, 29760, Note_on_c, 5, 60, 52
11, 29760, Note_on_c, 5, 57, 66
11, 29760, Note_on_c, 5, 51, 43
11, 30720, Note_off_c, 5, 51, 64
11, 30720, Note_off_c, 5, 57, 64
11, 30720, Note_off_c, 5, 60, 64
11, 30720, Note_off_c, 5, 67, 64
11, 30720, Note_on_c, 5, 65, 42
11, 30720, Note_on_c, 5, 60, 52
11, 30720, Note_on_c, 5, 57, 66
11, 30720, Note_on_c, 5, 51, 43
11, 31200, Note_off_c, 5, 51, 64
11, 31200, Note_off_c, 5, 57, 64
11, 31200, Note_off_c, 5, 60, 64
11, 31200, Note_off_c, 5, 65, 64
11, 31200, Note_on_c, 5, 65, 42
11, 31200, Note_on_c, 5, 58, 52
11, 31200, Note_on_c, 5, 56, 66
11, 31200, Note_on_c, 5, 50, 43
11, 31680, Note_off_c, 5, 50, 64
11, 31680, Note_off_c, 5, 56, 64
11, 31680, Note_off_c, 5, 58, 64
11, 31680, Note_off_c, 5, 65, 64
11, 31680, Note_on_c, 5, 67, 42
11, 31680, Note_on_c, 5, 63, 52
11, 31680, Note_on_c, 5, 58, 66
11, 31680, Note_on_c, 5, 51, 43
11, 32640, Note_off_c, 5, 51, 64
11, 32640, Note_off_c, 5, 58, 64
11, 32640, Note_off_c, 5, 63, 64
11, 32640, Note_off_c, 5, 67, 64
11, 32640, Note_on_c, 5, 67, 42
11, 32640, Note_on_c, 5, 63, 52
11, 32640, Note_on_c, 5, 58, 66
11, 32640, Note_on_c, 5, 51, 43
11, 33120, Note_off_c, 5, 51, 64
11, 33120, Note_off_c, 5, 58, 64
11, 33120, Note_off_c, 5, 63, 64
11, 33120, Note_off_c, 5, 67, 64
11, 33120, Note_on_c, 5, 70, 42
11, 33120, Note_on_c, 5, 67, 52
11, 33120, Note_on_c, 5, 62, 66
11, 33120, Note_on_c, 5, 55, 43
11, 33600, Note_off_c, 5, 55, 64
11, 33600, Note_off_c, 5, 62, 64
11, 33600, Note_off_c, 5, 67, 64
11, 33600, Note_off_c, 5, 70, 64
11, 33600, Note_on_c, 5, 63, 42
11, 33600, Note_on_c, 5, 58, 52
11, 33600, Note_on_c, 5, 55, 66
11, 33600, Note_on_c, 5, 48, 43
11, 33840, Note_off_c, 5, 48, 64
11, 33840, Note_off_c, 5, 55, 64
11, 33840, Note_off_c, 5, 58, 64
11, 33840, Note_off_c, 5, 63, 64
11, 33840, Note_on_c, 5, 67, 42
11, 33840, Note_on_c, 5, 63, 52
11, 33840, Note_on_c, 5, 58, 66
11, 33840, Note_on_c, 5, 51, 43
11, 34080, Note_off_c, 5, 51, 64
11, 34080, Note_off_c, 5, 58, 64
11, 34080, Note_off_c, 5, 63, 64
11, 34080, Note_off_c, 5, 67, 64
11, 34080, Note_on_c, 5, 67, 42
11, 34080, Note_on_c, 5, 63, 52
11, 34080, Note_on_c, 5, 58, 66
11, 34080, Note_on_c, 5, 51, 43
11, 34560, Note_off_c, 5, 51, 64
11, 34560, Note_off_c, 5, 58, 64
11, 34560, Note_off_c, 5, 63, 64
11, 34560, Note_off_c, 5, 67, 64
11, 34560, Note_on_c, 5, 65, 42
11, 34560, Note_on_c, 5, 58, 52
11, 34560, Note_on_c, 5, 55, 66
11, 34560, Note_on_c, 5, 49, 43
11, 35520, Note_off_c, 5, 49, 64
11, 35520, Note_off_c, 5, 55, 64
11, 35520, Note_off_c, 5, 58, 64
11, 35520, Note_off_c, 5, 65, 64
11, 35520, Note_on_c, 5, 67, 42
11, 35520, Note_on_c, 5, 60, 52
11, 35520, Note_on_c, 5, 58, 66
11, 35520, Note_on_c, 5, 52, 43
11, 36480, Note_off_c, 5, 52, 64
11, 36480, Note_off_c, 5, 58, 64
11, 36480, Note_off_c, 5, 60, 64
11, 36480, Note_off_c, 5, 67, 64
11, 36480, Note_on_c, 5, 68, 42
11, 36480, Note_on_c, 5, 65, 52
11, 36480, Note_on_c, 5, 60, 66
11, 36480, Note_on_c, 5, 53, 43
11, 36960, Note_off_c, 5, 53, 64
11, 36960, Note_off_c, 5, 60, 64
11, 36960, Note_off_c, 5, 65, 64
11, 36960, Note_off_c, 5, 68, 64
11, 36960, Note_on_c, 5, 67, 42
11, 36960, Note_on_c, 5, 60, 52
11, 36960, Note_on_c, 5, 59, 66
11, 36960, Note_on_c, 5, 52, 43
11, 37440, Note_off_c, 5, 52, 64
11, 37440, Note_off_c, 5, 59, 64
11, 37440, Note_off_c, 5, 60, 64
11, 37440, Note_off_c, 5, 67, 64
11, 37440, Note_on_c, 5, 65, 42
11, 37440, Note_on_c, 5, 60, 52
11, 37440, Note_on_c, 5, 56, 66
11, 37440, Note_on_c, 5, 51, 43
11, 38400, Note_off_c, 5, 51, 64
11, 38400, Note_off_c, 5, 56, 64
11, 38400, Note_off_c, 5, 60, 64
11, 38400, Note_off_c, 5, 65, 64
11, 38400, Note_on_c, 5, 68, 42
11, 38400, Note_on_c, 5, 63, 52
11, 38400, Note_on_c, 5, 59, 66
11, 38400, Note_on_c, 5, 53, 43
11, 39360, Note_off_c, 5, 53, 64
11, 39360, Note_off_c, 5, 59, 64
11, 39360, Note_off_c, 5, 63, 64
11, 39360, Note_off_c, 5, 68, 64
11, 39360, Note_on_c, 5, 65, 42
11, 39360, Note_on_c, 5, 58, 52
11, 39360, Note_on_c, 5, 56, 66
11, 39360, Note_on_c, 5, 50, 43
11, 39840, Note_off_c, 5, 50, 64
11, 39840, Note_off_c, 5, 56, 64
11, 39840, Note_off_c, 5, 58, 64
11, 39840, Note_off_c, 5, 65, 64
11, 39840, Note_on_c, 5, 65, 42
11, 39840, Note_on_c, 5, 59, 52
11, 39840, Note_on_c, 5, 56, 66
11, 39840, Note_on_c, 5, 50, 43
11, 40320, Note_off_c, 5, 50, 64
11, 40320, Note_off_c, 5, 56, 64
11, 40320, Note_off_c, 5, 59, 64
11, 40320, Note_off_c, 5, 65, 64
11, 40320, Note_on_c, 5, 67, 42
11, 40320, Note_on_c, 5, 63, 52
11, 40320, Note_on_c, 5, 60, 66
11, 40320, Note_on_c, 5, 51, 43
11, 41280, Note_off_c, 5, 51, 64
11, 41280, Note_off_c, 5, 60, 64
11, 41280, Note_off_c, 5, 63, 64
11, 41280, Note_off_c, 5, 67, 64
11, 41280, Note_on_c, 5, 67, 42
11, 41280, Note_on_c, 5, 62, 52
11, 41280, Note_on_c, 5, 59, 66
11, 41280, Note_on_c, 5, 53, 43
11, 42240, Note_off_c, 5, 53, 64
11, 42240, Note_off_c, 5, 59, 64
11, 42240, Note_off_c, 5, 62, 64
11, 42240, Note_off_c, 5, 67, 64
11, 42240, Note_on_c, 5, 65, 42
11, 42240, Note_on_c, 5, 58, 52
11, 42240, Note_on_c, 5, 55, 66
11, 42240, Note_on_c, 5, 49, 43
11, 43200, Note_off_c, 5, 49, 64
11, 43200, Note_off_c, 5, 55, 64
11, 43200, Note_off_c, 5, 58, 64
11, 43200, Note_off_c, 5, 65, 64
11, 43200, Note_on_c, 5, 67, 42
11, 43200, Note_on_c, 5, 60, 52
11, 43200, Note_on_c, 5, 58, 66
11, 43200, Note_on_c, 5, 52, 43
11, 44160, Note_off_c, 5, 52, 64
11, 44160, Note_off_c, 5, 58, 64
11, 44160, Note_off_c, 5, 60, 64
11, 44160, Note_off_c, 5, 67, 64
11, 44160, Note_on_c, 5, 67, 42
11, 44160, Note_on_c, 5, 60, 52
11, 44160, Note_on_c, 5, 57, 66
11, 44160, Note_on_c, 5, 51, 43
11, 45120, Note_off_c, 5, 51, 64
11, 45120, Note_off_c, 5, 57, 64
11, 45120, Note_off_c, 5, 60, 64
11, 45120, Note_off_c, 5, 67, 64
11, 45120, Note_on_c, 5, 65, 42
11, 45120, Note_on_c, 5, 60, 52
11, 45120, Note_on_c, 5, 57, 66
11, 45120, Note_on_c, 5, 51, 43
11, 46080, Note_off_c, 5, 51, 64
11, 46080, Note_off_c, 5, 57, 64
11, 46080, Note_off_c, 5, 60, 64
11, 46080, Note_off_c, 5, 65, 64
11, 46080, Note_on_c, 5, 71, 42
11, 46080, Note_on_c, 5, 68, 52
11, 46080, Note_on_c, 5, 63, 66
11, 46080, Note_on_c, 5, 56, 43
11, 47040, Note_off_c, 5, 56, 64
11, 47040, Note_off_c, 5, 63, 64
11, 47040, Note_off_c, 5, 68, 64
11, 47040, Note_off_c, 5, 71, 64
11, 47040, Note_on_c, 5, 65, 42
11, 47040, Note_on_c, 5, 60, 52
11, 47040, Note_on_c, 5, 56, 66
11, 47040, Note_on_c, 5, 51, 43
11, 47520, Note_off_c, 5, 51, 64
11, 47520, Note_off_c, 5, 56, 64
11, 47520, Note_off_c, 5, 60, 64
11, 47520, Note_off_c, 5, 65, 64
11, 47520, Note_on_c, 5, 65, 42
11, 47520, Note_on_c, 5, 58, 52
11, 47520, Note_on_c, 5, 56, 66
11, 47520, Note_on_c, 5, 50, 43
11, 48000, Note_off_c, 5, 50, 64
11, 48000, Note_off_c, 5, 56, 64
11, 48000, Note_off_c, 5, 58, 64
11, 48000, Note_off_c, 5, 65, 64
11, 48000, Note_on_c, 5, 67, 42
11, 48000, Note_on_c, 5, 63, 52
11, 48000, Note_on_c, 5, 58, 66
11, 48000, Note_on_c, 5, 51, 43
11, 48480, Note_off_c, 5, 51, 64
11, 48480, Note_off_c, 5, 58, 64
11, 48480, Note_off_c, 5, 63, 64
11, 48480, Note_off_c, 5, 67, 64
11, 48480, Note_on_c, 5, 70, 42
11, 48480, Note_on_c, 5, 67, 52
11, 48480, Note_on_c, 5, 62, 66
11, 48480, Note_on_c, 5, 55, 43
11, 48960, Note_off_c, 5, 55, 64
11, 48960, Note_off_c, 5, 62, 64
11, 48960, Note_off_c, 5, 67, 64
11, 48960, Note_off_c, 5, 70, 64
11, 48960, Note_on_c, 5, 63, 42
11, 48960, Note_on_c, 5, 58, 52
11, 48960, Note_on_c, 5, 55, 66
11, 48960, Note_on_c, 5, 48, 43
11, 49200, Note_off_c, 5, 48, 64
11, 49200, Note_off_c, 5, 55, 64
11, 49200, Note_off_c, 5, 58, 64
11, 49200, Note_off_c, 5, 63, 64
11, 49200, Note_on_c, 5, 67, 42
11, 49200, Note_on_c, 5, 63, 52
11, 49200, Note_on_c, 5, 58, 66
11, 49200, Note_on_c, 5, 51, 43
11, 49440, Note_off_c, 5, 51, 64
11, 49440, Note_off_c, 5, 58, 64
11, 49440, Note_off_c, 5, 63, 64
11, 49440, Note_off_c, 5, 67, 64
11, 49440, Note_on_c, 5, 67, 42
11, 49440, Note_on_c, 5, 63, 52
11, 49440, Note_on_c, 5, 58, 66
11, 49440, Note_on_c, 5, 51, 43
11, 49920, Note_off_c, 5, 51, 64
11, 49920, Note_off_c, 5, 58, 64
11, 49920, Note_off_c, 5, 63, 64
11, 49920, Note_off_c, 5, 67, 64
11, 49920, Note_on_c, 5, 65, 42
11, 49920, Note_on_c, 5, 58, 52
11, 49920, Note_on_c, 5, 55, 66
11, 49920, Note_on_c, 5, 49, 43
11, 50880, Note_off_c, 5, 49, 64
11, 50880, Note_off_c, 5, 55, 64
11, 50880, Note_off_c, 5, 58, 64
11, 50880, Note_off_c, 5, 65, 64
11, 50880, Note_on_c, 5, 67, 42
11, 50880, Note_on_c, 5, 60, 52
11, 50880, Note_on_c, 5, 58, 66
11, 50880, Note_on_c, 5, 52, 43
11, 51840, Note_off_c, 5, 52, 64
11, 51840, Note_off_c, 5, 58, 64
11, 51840, Note_off_c, 5, 60, 64
11, 51840, Note_off_c, 5, 67, 64
11, 51840, Note_on_c, 5, 68, 42
11, 51840, Note_on_c, 5, 65, 52
11, 51840, Note_on_c, 5, 60, 66
11, 51840, Note_on_c, 5, 53, 43
11, 52320, Note_off_c, 5, 53, 64
11, 52320, Note_off_c, 5, 60, 64
11, 52320, Note_off_c, 5, 65, 64
11, 52320, Note_off_c, 5, 68, 64
11, 52320, Note_on_c, 5, 67, 42
11, 52320, Note_on_c, 5, 60, 52
11, 52320, Note_on_c, 5, 59, 66
11, 52320, Note_on_c, 5, 52, 43
11, 52800, Note_off_c, 5, 52, 64
11, 52800, Note_off_c, 5, 59, 64
11, 52800, Note_off_c, 5, 60, 64
11, 52800, Note_off_c, 5, 67, 64
11, 52800, Note_on_c, 5, 65, 42
11, 52800, Note_on_c, 5, 60, 52
11, 52800, Note_on_c, 5, 56, 66
11, 52800, Note_on_c, 5, 51, 43
11, 53760, Note_off_c, 5, 51, 64
11, 53760, Note_off_c, 5, 56, 64
11, 53760, Note_off_c, 5, 60, 64
11, 53760, Note_off_c, 5, 65, 64
11, 53760, Note_on_c, 5, 68, 42
11, 53760, Note_on_c, 5, 63, 52
11, 53760, Note_on_c, 5, 59, 66
11, 53760, Note_on_c, 5, 53, 43
11, 54720, Note_off_c, 5, 53, 64
11, 54720, Note_off_c, 5, 59, 64
11, 54720, Note_off_c, 5, 63, 64
11, 54720, Note_off_c, 5, 68, 64
11, 54720, Note_on_c, 5, 67, 42
11, 54720, Note_on_c, 5, 62, 52
11, 54720, Note_on_c, 5, 59, 66
11, 54720, Note_on_c, 5, 53, 43
11, 55680, Note_off_c, 5, 53, 64
11, 55680, Note_off_c, 5, 59, 64
11, 55680, Note_off_c, 5, 62, 64
11, 55680, Note_off_c, 5, 67, 64
11, 55680, Note_on_c, 5, 67, 42
11, 55680, Note_on_c, 5, 60, 52
11, 55680, Note_on_c, 5, 58, 66
11, 55680, Note_on_c, 5, 52, 43
11, 56160, Note_off_c, 5, 52, 64
11, 56160, Note_off_c, 5, 58, 64
11, 56160, Note_off_c, 5, 60, 64
11, 56160, Note_off_c, 5, 67, 64
11, 56160, Note_on_c, 5, 67, 42
11, 56160, Note_on_c, 5, 62, 52
11, 56160, Note_on_c, 5, 58, 66
11, 56160, Note_on_c, 5, 52, 43
11, 56640, Note_off_c, 5, 52, 64
11, 56640, Note_off_c, 5, 58, 64
11, 56640, Note_off_c, 5, 62, 64
11, 56640, Note_off_c, 5, 67, 64
11, 56640, Note_on_c, 5, 65, 42
11, 56640, Note_on_c, 5, 58, 52
11, 56640, Note_on_c, 5, 55, 66
11, 56640, Note_on_c, 5, 49, 43
11, 57120, Note_off_c, 5, 49, 64
11, 57120, Note_off_c, 5, 55, 64
11, 57120, Note_off_c, 5, 58, 64
11, 57120, Note_off_c, 5, 65, 64
11, 57120, Note_on_c, 5, 67, 42
11, 57120, Note_on_c, 5, 60, 52
11, 57120, Note_on_c, 5, 58, 66
11, 57120, Note_on_c, 5, 52, 43
11, 57600, Note_off_c, 5, 52, 64
11, 57600, Note_off_c, 5, 58, 64
11, 57600, Note_off_c, 5, 60, 64
11, 57600, Note_off_c, 5, 67, 64
11, 57600, Note_on_c, 5, 65, 42
11, 57600, Note_on_c, 5, 60, 52
11, 57600, Note_on_c, 5, 56, 66
11, 57600, Note_on_c, 5, 51, 43
11, 58560, Note_off_c, 5, 51, 64
11, 58560, Note_off_c, 5, 56, 64
11, 58560, Note_off_c, 5, 60, 64
11, 58560, Note_off_c, 5, 65, 64
11, 58560, Note_on_c, 5, 68, 42
11, 58560, Note_on_c, 5, 63, 52
11, 58560, Note_on_c, 5, 59, 66
11, 58560, Note_on_c, 5, 53, 43
11, 59520, Note_off_c, 5, 53, 64
11, 59520, Note_off_c, 5, 59, 64
11, 59520, Note_off_c, 5, 63, 64
11, 59520, Note_off_c, 5, 68, 64
11, 59520, Note_on_c, 5, 67, 42
11, 59520, Note_on_c, 5, 63, 52
11, 59520, Note_on_c, 5, 60, 66
11, 59520, Note_on_c, 5, 51, 43
11, 60480, Note_off_c, 5, 51, 64
11, 60480, Note_off_c, 5, 60, 64
11, 60480, Note_off_c, 5, 63, 64
11, 60480, Note_off_c, 5, 67, 64
11, 60480, Note_on_c, 5, 67, 42
11, 60480, Note_on_c, 5, 60, 52
11, 60480, Note_on_c, 5, 57, 66
11, 60480, Note_on_c, 5, 51, 43
11, 61440, Note_off_c, 5, 51, 64
11, 61440, Note_off_c, 5, 57, 64
11, 61440, Note_off_c, 5, 60, 64
11, 61440, Note_off_c, 5, 67, 64
11, 61440, Note_on_c, 5, 65, 42
11, 61440, Note_on_c, 5, 60, 52
11, 61440, Note_on_c, 5, 57, 66
11, 61440, Note_on_c, 5, 51, 43
11, 61920, Note_off_c, 5, 51, 64
11, 61920, Note_off_c, 5, 57, 64
11, 61920, Note_off_c, 5, 60, 64
11, 61920, Note_off_c, 5, 65, 64
11, 61920, Note_on_c, 5, 65, 42
11, 61920, Note_on_c, 5, 58, 52
11, 61920, Note_on_c, 5, 56, 66
11, 61920, Note_on_c, 5, 50, 43
11, 62400, Note_off_c, 5, 50, 64
11, 62400, Note_off_c, 5, 56, 64
11, 62400, Note_off_c, 5, 58, 64
11, 62400, Note_off_c, 5, 65, 64
11, 62400, Note_on_c, 5, 67, 42
11, 62400, Note_on_c, 5, 63, 52
11, 62400, Note_on_c, 5, 58, 66
11, 62400, Note_on_c, 5, 51, 43
11, 63360, Note_off_c, 5, 51, 64
11, 63360, Note_off_c, 5, 58, 64
11, 63360, Note_off_c, 5, 63, 64
11, 63360, Note_off_c, 5, 67, 64
11, 78720, Note_on_c, 5, 67, 42
11, 78720, Note_on_c, 5, 63, 52
11, 78720, Note_on_c, 5, 58, 66
11, 78720, Note_on_c, 5, 51, 43
11, 79200, Note_off_c, 5, 51, 64
11, 79200, Note_off_c, 5, 58, 64
11, 79200, Note_off_c, 5, 63, 64
11, 79200, Note_off_c, 5, 67, 64
11, 79200, Note_on_c, 5, 70, 42
11, 79200, Note_on_c, 5, 67, 52
11, 79200, Note_on_c, 5, 62, 66
11, 79200, Note_on_c, 5, 55, 43
11, 79680, Note_off_c, 5, 55, 64
11, 79680, Note_off_c, 5, 62, 64
11, 79680, Note_off_c, 5, 67, 64
11, 79680, Note_off_c, 5, 70, 64
11, 79680, Note_on_c, 5, 63, 42
11, 79680, Note_on_c, 5, 58, 52
11, 79680, Note_on_c, 5, 55, 66
11, 79680, Note_on_c, 5, 48, 43
11, 79920, Note_off_c, 5, 48, 64
11, 79920, Note_off_c, 5, 55, 64
11, 79920, Note_off_c, 5, 58, 64
11, 79920, Note_off_c, 5, 63, 64
11, 79920, Note_on_c, 5, 67, 42
11, 79920, Note_on_c, 5, 63, 52
11, 79920, Note_on_c, 5, 58, 66
11, 79920, Note_on_c, 5, 51, 43
11, 80160, Note_off_c, 5, 51, 64
11, 80160, Note_off_c, 5, 58, 64
11, 80160, Note_off_c, 5, 63, 64
11, 80160, Note_off_c, 5, 67, 64
11, 80160, Note_on_c, 5, 67, 42
11, 80160, Note_on_c, 5, 63, 52
11, 80160, Note_on_c, 5, 58, 66
11, 80160, Note_on_c, 5, 51, 43
11, 80640, Note_off_c, 5, 51, 64
11, 80640, Note_off_c, 5, 58, 64
11, 80640, Note_off_c, 5, 63, 64
11, 80640, Note_off_c, 5, 67, 64
11, 80640, Note_on_c, 5, 65, 42
11, 80640, Note_on_c, 5, 58, 52
11, 80640, Note_on_c, 5, 55, 66
11, 80640, Note_on_c, 5, 49, 43
11, 81600, Note_off_c, 5, 49, 64
11, 81600, Note_off_c, 5, 55, 64
11, 81600, Note_off_c, 5, 58, 64
11, 81600, Note_off_c, 5, 65, 64
11, 81600, Note_on_c, 5, 67, 42
11, 81600, Note_on_c, 5, 60, 52
11, 81600, Note_on_c, 5, 58, 66
11, 81600, Note_on_c, 5, 52, 43
11, 82560, Note_off_c, 5, 52, 64
11, 82560, Note_off_c, 5, 58, 64
11, 82560, Note_off_c, 5, 60, 64
11, 82560, Note_off_c, 5, 67, 64
11, 82560, Note_on_c, 5, 68, 42
11, 82560, Note_on_c, 5, 65, 52
11, 82560, Note_on_c, 5, 60, 66
11, 82560, Note_on_c, 5, 53, 43
11, 83040, Note_off_c, 5, 53, 64
11, 83040, Note_off_c, 5, 60, 64
11, 83040, Note_off_c, 5, 65, 64
11, 83040, Note_off_c, 5, 68, 64
11, 83040, Note_on_c, 5, 67, 42
11, 83040, Note_on_c, 5, 60, 52
11, 83040, Note_on_c, 5, 59, 66
11, 83040, Note_on_c, 5, 52, 43
11, 83520, Note_off_c, 5, 52, 64
11, 83520, Note_off_c, 5, 59, 64
11, 83520, Note_off_c, 5, 60, 64
11, 83520, Note_off_c, 5, 67, 64
11, 83520, Note_on_c, 5, 65, 42
11, 83520, Note_on_c, 5, 60, 52
11, 83520, Note_on_c, 5, 56, 66
11, 83520, Note_on_c, 5, 51, 43
11, 84480, Note_off_c, 5, 51, 64
11, 84480, Note_off_c, 5, 56, 64
11, 84480, Note_off_c, 5, 60, 64
11, 84480, Note_off_c, 5, 65, 64
11, 84480, Note_on_c, 5, 68, 42
11, 84480, Note_on_c, 5, 63, 52
11, 84480, Note_on_c, 5, 59, 66
11, 84480, Note_on_c, 5, 53, 43
11, 85440, Note_off_c, 5, 53, 64
11, 85440, Note_off_c, 5, 59, 64
11, 85440, Note_off_c, 5, 63, 64
11, 85440, Note_off_c, 5, 68, 64
11, 85440, Note_on_c, 5, 67, 42
11, 85440, Note_on_c, 5, 62, 52
11, 85440, Note_on_c, 5, 59, 66
11, 85440, Note_on_c, 5, 53, 43
11, 86400, Note_off_c, 5, 53, 64
11, 86400, Note_off_c, 5, 59, 64
11, 86400, Note_off_c, 5, 62, 64
11, 86400, Note_off_c, 5, 67, 64
11, 86400, Note_on_c, 5, 67, 42
11, 86400, Note_on_c, 5, 60, 52
11, 86400, Note_on_c, 5, 58, 66
11, 86400, Note_on_c, 5, 52, 43
11, 86880, Note_off_c, 5, 52, 64
11, 86880, Note_off_c, 5, 58, 64
11, 86880, Note_off_c, 5, 60, 64
11, 86880, Note_off_c, 5, 67, 64
11, 86880, Note_on_c, 5, 67, 42
11, 86880, Note_on_c, 5, 62, 52
11, 86880, Note_on_c, 5, 58, 66
11, 86880, Note_on_c, 5, 52, 43
11, 87360, Note_off_c, 5, 52, 64
11, 87360, Note_off_c, 5, 58, 64
11, 87360, Note_off_c, 5, 62, 64
11, 87360, Note_off_c, 5, 67, 64
11, 87360, Note_on_c, 5, 65, 42
11, 87360, Note_on_c, 5, 58, 52
11, 87360, Note_on_c, 5, 55, 66
11, 87360, Note_on_c, 5, 49, 43
11, 87840, Note_off_c, 5, 49, 64
11, 87840, Note_off_c, 5, 55, 64
11, 87840, Note_off_c, 5, 58, 64
11, 87840, Note_off_c, 5, 65, 64
11, 87840, Note_on_c, 5, 67, 42
11, 87840, Note_on_c, 5, 60, 52
11, 87840, Note_on_c, 5, 58, 66
11, 87840, Note_on_c, 5, 52, 43
11, 88320, Note_off_c, 5, 52, 64
11, 88320, Note_off_c, 5, 58, 64
11, 88320, Note_off_c, 5, 60, 64
11, 88320, Note_off_c, 5, 67, 64
11, 88320, Note_on_c, 5, 65, 42
11, 88320, Note_on_c, 5, 60, 52
11, 88320, Note_on_c, 5, 56, 66
11, 88320, Note_on_c, 5, 51, 43
11, 89280, Note_off_c, 5, 51, 64
11, 89280, Note_off_c, 5, 56, 64
11, 89280, Note_off_c, 5, 60, 64
11, 89280, Note_off_c, 5, 65, 64
11, 89280, Note_on_c, 5, 68, 42
11, 89280, Note_on_c, 5, 63, 52
11, 89280, Note_on_c, 5, 59, 66
11, 89280, Note_on_c, 5, 53, 43
11, 90240, Note_off_c, 5, 53, 64
11, 90240, Note_off_c, 5, 59, 64
11, 90240, Note_off_c, 5, 63, 64
11, 90240, Note_off_c, 5, 68, 64
11, 90240, Note_on_c, 5, 67, 42
11, 90240, Note_on_c, 5, 63, 52
11, 90240, Note_on_c, 5, 60, 66
11, 90240, Note_on_c, 5, 51, 43
11, 91200, Note_off_c, 5, 51, 64
11, 91200, Note_off_c, 5, 60, 64
11, 91200, Note_off_c, 5, 63, 64
11, 91200, Note_off_c, 5, 67, 64
11, 91200, Note_on_c, 5, 67, 42
11, 91200, Note_on_c, 5, 60, 52
11, 91200, Note_on_c, 5, 57, 66
11, 91200, Note_on_c, 5, 51, 43
11, 92160, Note_off_c, 5, 51, 64
11, 92160, Note_off_c, 5, 57, 64
11, 92160, Note_off_c, 5, 60, 64
11, 92160, Note_off_c, 5, 67, 64
11, 92160, Note_on_c, 5, 65, 42
11, 92160, Note_on_c, 5, 60, 52
11, 92160, Note_on_c, 5, 57, 66
11, 92160, Note_on_c, 5, 51, 43
11, 92640, Note_off_c, 5, 51, 64
11, 92640, Note_off_c, 5, 57, 64
11, 92640, Note_off_c, 5, 60, 64
11, 92640, Note_off_c, 5, 65, 64
11, 92640, Note_on_c, 5, 65, 42
11, 92640, Note_on_c, 5, 58, 52
11, 92640, Note_on_c, 5, 56, 66
11, 92640, Note_on_c, 5, 50, 43
11, 93120, Note_off_c, 5, 50, 64
11, 93120, Note_off_c, 5, 56, 64
11, 93120, Note_off_c, 5, 58, 64
11, 93120, Note_off_c, 5, 65, 64
11, 93120, Note_on_c, 5, 67, 42
11, 93120, Note_on_c, 5, 63, 52
11, 93120, Note_on_c, 5, 58, 66
11, 93120, Note_on_c, 5, 51, 43
11, 94080, Note_off_c, 5, 51, 64
11, 94080, Note_off_c, 5, 58, 64
11, 94080, Note_off_c, 5, 63, 64
11, 94080, Note_off_c, 5, 67, 64
11, 94080, Note_on_c, 5, 67, 42
11, 94080, Note_on_c, 5, 63, 52
11, 94080, Note_on_c, 5, 58, 66
11, 94080, Note_on_c, 5, 51, 43
11, 95976, Note_off_c, 5, 51, 64
11, 95986, Note_off_c, 5, 58, 64
11, 95994, Note_off_c, 5, 63, 64
11, 95994, Note_off_c, 5, 67, 64
11, 96000, Control_c, 5, 64, 0
11, 96000, End_track
12, 0, Start_track
12, 0, Title_t, "Voices / Who who's"
12, 0, Control_c, 6, 0, 0
12, 0, Control_c, 6, 32, 0
12, 0, Program_c, 6, 53
12, 0, Control_c, 6, 7, 80
12, 0, Control_c, 6, 10, 64
12, 0, Control_c, 6, 123, 0
12, 0, Control_c, 6, 91, 40
12, 0, Control_c, 6, 93, 0
12, 0, Control_c, 6, 64, 0
12, 2160, Note_on_c, 6, 58, 73
12, 2160, Note_on_c, 6, 51, 47
12, 2222, Note_off_c, 6, 51, 64
12, 2222, Note_off_c, 6, 58, 64
12, 2640, Note_on_c, 6, 62, 73
12, 2640, Note_on_c, 6, 55, 47
12, 2702, Note_off_c, 6, 55, 64
12, 2702, Note_off_c, 6, 62, 64
12, 3120, Note_on_c, 6, 58, 65
12, 3120, Note_on_c, 6, 51, 46
12, 3170, Note_off_c, 6, 51, 64
12, 3170, Note_off_c, 6, 58, 64
12, 3600, Note_on_c, 6, 58, 73
12, 3600, Note_on_c, 6, 51, 47
12, 3662, Note_off_c, 6, 51, 64
12, 3662, Note_off_c, 6, 58, 64
12, 4080, Note_on_c, 6, 55, 73
12, 4080, Note_on_c, 6, 49, 47
12, 4142, Note_off_c, 6, 49, 64
12, 4142, Note_off_c, 6, 55, 64
12, 4560, Note_on_c, 6, 55, 70
12, 4560, Note_on_c, 6, 49, 52
12, 4626, Note_off_c, 6, 55, 64
12, 4634, Note_off_c, 6, 49, 64
12, 5040, Note_on_c, 6, 58, 73
12, 5040, Note_on_c, 6, 52, 47
12, 5102, Note_off_c, 6, 52, 64
12, 5102, Note_off_c, 6, 58, 64
12, 5520, Note_on_c, 6, 58, 70
12, 5520, Note_on_c, 6, 52, 52
12, 5586, Note_off_c, 6, 58, 64
12, 5594, Note_off_c, 6, 52, 64
12, 6000, Note_on_c, 6, 60, 73
12, 6000, Note_on_c, 6, 53, 47
12, 6062, Note_off_c, 6, 53, 64
12, 6062, Note_off_c, 6, 60, 64
12, 6480, Note_on_c, 6, 59, 73
12, 6480, Note_on_c, 6, 52, 47
12, 6542, Note_off_c, 6, 52, 64
12, 6542, Note_off_c, 6, 59, 64
12, 6960, Note_on_c, 6, 56, 73
12, 6960, Note_on_c, 6, 51, 47
12, 7022, Note_off_c, 6, 51, 64
12, 7022, Note_off_c, 6, 56, 64
12, 7440, Note_on_c, 6, 56, 70
12, 7440, Note_on_c, 6, 51, 52
12, 7506, Note_off_c, 6, 56, 64
12, 7514, Note_off_c, 6, 51, 64
12, 7920, Note_on_c, 6, 59, 73
12, 7920, Note_on_c, 6, 53, 47
12, 7982, Note_off_c, 6, 53, 64
12, 7982, Note_off_c, 6, 59, 64
12, 8400, Note_on_c, 6, 59, 70
12, 8400, Note_on_c, 6, 53, 52
12, 8466, Note_off_c, 6, 59, 64
12, 8474, Note_off_c, 6, 53, 64
12, 8880, Note_on_c, 6, 56, 68
12, 8936, Note_off_c, 6, 56, 64
12, 9360, Note_on_c, 6, 56, 68
12, 9416, Note_off_c, 6, 56, 64
12, 9840, Note_on_c, 6, 60, 73
12, 9840, Note_on_c, 6, 51, 47
12, 9902, Note_off_c, 6, 51, 64
12, 9902, Note_off_c, 6, 60, 64
12, 10320, Note_on_c, 6, 60, 70
12, 10320, Note_on_c, 6, 51, 52
12, 10386, Note_off_c, 6, 60, 64
12, 10394, Note_off_c, 6, 51, 64
12, 10800, Note_on_c, 6, 59, 73
12, 10800, Note_on_c, 6, 53, 47
12, 10862, Note_off_c, 6, 53, 64
12, 10862, Note_off_c, 6, 59, 64
12, 11280, Note_on_c, 6, 59, 70
12, 11280, Note_on_c, 6, 53, 52
12, 11346, Note_off_c, 6, 59, 64
12, 11354, Note_off_c, 6, 53, 64
12, 11760, Note_on_c, 6, 55, 73
12, 11760, Note_on_c, 6, 49, 47
12, 11822, Note_off_c, 6, 49, 64
12, 11822, Note_off_c, 6, 55, 64
12, 12240, Note_on_c, 6, 55, 70
12, 12240, Note_on_c, 6, 49, 52
12, 12306, Note_off_c, 6, 55, 64
12, 12314, Note_off_c, 6, 49, 64
12, 12720, Note_on_c, 6, 58, 68
12, 12776, Note_off_c, 6, 58, 64
12, 12960, Note_on_c, 6, 58, 61
12, 12960, Note_on_c, 6, 52, 12
12, 13008, Note_off_c, 6, 52, 64
12, 13014, Note_off_c, 6, 58, 64
12, 13200, Note_on_c, 6, 52, 73
12, 13200, Note_on_c, 6, 58, 88
12, 13258, Note_off_c, 6, 58, 64
12, 13258, Note_off_c, 6, 52, 64
12, 13680, Note_on_c, 6, 57, 73
12, 13680, Note_on_c, 6, 51, 47
12, 13742, Note_off_c, 6, 51, 64
12, 13742, Note_off_c, 6, 57, 64
12, 14160, Note_on_c, 6, 57, 70
12, 14160, Note_on_c, 6, 51, 52
12, 14226, Note_off_c, 6, 57, 64
12, 14234, Note_off_c, 6, 51, 64
12, 14640, Note_on_c, 6, 57, 73
12, 14640, Note_on_c, 6, 51, 47
12, 14702, Note_off_c, 6, 51, 64
12, 14702, Note_off_c, 6, 57, 64
12, 15120, Note_on_c, 6, 57, 70
12, 15120, Note_on_c, 6, 51, 52
12, 15186, Note_off_c, 6, 57, 64
12, 15194, Note_off_c, 6, 51, 64
12, 15600, Note_on_c, 6, 63, 73
12, 15600, Note_on_c, 6, 56, 47
12, 15662, Note_off_c, 6, 56, 64
12, 15662, Note_off_c, 6, 63, 64
12, 16080, Note_on_c, 6, 63, 70
12, 16080, Note_on_c, 6, 56, 52
12, 16146, Note_off_c, 6, 63, 64
12, 16154, Note_off_c, 6, 56, 64
12, 16560, Note_on_c, 6, 56, 68
12, 16561, Note_off_c, 6, 56, 64
12, 17040, Note_on_c, 6, 56, 73
12, 17040, Note_on_c, 6, 50, 47
12, 17102, Note_off_c, 6, 50, 64
12, 17102, Note_off_c, 6, 56, 64
12, 17280, Note_on_c, 6, 58, 54
12, 17280, Note_on_c, 6, 51, 39
12, 17398, Note_off_c, 6, 58, 64
12, 17414, Note_off_c, 6, 51, 64
12, 17520, Note_on_c, 6, 58, 78
12, 17520, Note_on_c, 6, 51, 51
12, 17584, Note_off_c, 6, 58, 64
12, 17596, Note_off_c, 6, 51, 64
12, 17760, Note_on_c, 6, 55, 52
12, 17760, Note_on_c, 6, 62, 64
12, 17986, Note_off_c, 6, 62, 64
12, 17998, Note_off_c, 6, 55, 64
12, 18000, Note_on_c, 6, 62, 63
12, 18000, Note_on_c, 6, 55, 46
12, 18046, Note_off_c, 6, 55, 64
12, 18062, Note_off_c, 6, 62, 64
12, 18240, Note_on_c, 6, 55, 51
12, 18240, Note_on_c, 6, 48, 30
12, 18480, Note_off_c, 6, 48, 64
12, 18480, Note_off_c, 6, 55, 64
12, 18480, Note_on_c, 6, 58, 65
12, 18480, Note_on_c, 6, 51, 46
12, 18530, Note_off_c, 6, 51, 64
12, 18530, Note_off_c, 6, 58, 64
12, 18720, Note_on_c, 6, 58, 54
12, 18720, Note_on_c, 6, 51, 39
12, 18838, Note_off_c, 6, 58, 64
12, 18854, Note_off_c, 6, 51, 64
12, 18960, Note_on_c, 6, 58, 78
12, 18960, Note_on_c, 6, 51, 51
12, 19024, Note_off_c, 6, 58, 64
12, 19036, Note_off_c, 6, 51, 64
12, 19200, Note_on_c, 6, 55, 54
12, 19200, Note_on_c, 6, 49, 39
12, 19318, Note_off_c, 6, 55, 64
12, 19334, Note_off_c, 6, 49, 64
12, 19440, Note_on_c, 6, 55, 78
12, 19440, Note_on_c, 6, 49, 51
12, 19504, Note_off_c, 6, 55, 64
12, 19516, Note_off_c, 6, 49, 64
12, 19680, Note_on_c, 6, 55, 33
12, 19770, Note_off_c, 6, 55, 64
12, 19920, Note_on_c, 6, 55, 80
12, 19920, Note_on_c, 6, 49, 65
12, 19988, Note_off_c, 6, 55, 64
12, 19998, Note_off_c, 6, 49, 64
12, 20160, Note_on_c, 6, 58, 48
12, 20160, Note_on_c, 6, 52, 41
12, 20396, Note_off_c, 6, 58, 64
12, 20400, Note_off_c, 6, 52, 64
12, 20400, Note_on_c, 6, 58, 79
12, 20400, Note_on_c, 6, 52, 57
12, 20482, Note_off_c, 6, 52, 64
12, 20482, Note_off_c, 6, 58, 64
12, 20640, Note_on_c, 6, 58, 30
12, 20640, Note_on_c, 6, 52, 25
12, 20864, Note_off_c, 6, 52, 64
12, 20864, Note_off_c, 6, 58, 64
12, 20880, Note_on_c, 6, 58, 86
12, 20880, Note_on_c, 6, 52, 52
12, 20974, Note_off_c, 6, 52, 64
12, 20974, Note_off_c, 6, 58, 64
12, 21120, Note_on_c, 6, 60, 48
12, 21120, Note_on_c, 6, 53, 41
12, 21316, Note_off_c, 6, 60, 64
12, 21322, Note_off_c, 6, 53, 64
12, 21360, Note_on_c, 6, 60, 79
12, 21360, Note_on_c, 6, 53, 57
12, 21402, Note_off_c, 6, 53, 64
12, 21402, Note_off_c, 6, 60, 64
12, 21600, Note_on_c, 6, 59, 54
12, 21600, Note_on_c, 6, 52, 39
12, 21718, Note_off_c, 6, 59, 64
12, 21734, Note_off_c, 6, 52, 64
12, 21840, Note_on_c, 6, 59, 78
12, 21840, Note_on_c, 6, 52, 51
12, 21904, Note_off_c, 6, 59, 64
12, 21916, Note_off_c, 6, 52, 64
12, 22080, Note_on_c, 6, 56, 48
12, 22080, Note_on_c, 6, 51, 41
12, 22316, Note_off_c, 6, 56, 64
12, 22320, Note_off_c, 6, 51, 64
12, 22320, Note_on_c, 6, 56, 79
12, 22320, Note_on_c, 6, 51, 57
12, 22402, Note_off_c, 6, 51, 64
12, 22402, Note_off_c, 6, 56, 64
12, 22560, Note_on_c, 6, 56, 30
12, 22560, Note_on_c, 6, 51, 25
12, 22784, Note_off_c, 6, 51, 64
12, 22784, Note_off_c, 6, 56, 64
12, 22800, Note_on_c, 6, 56, 86
12, 22800, Note_on_c, 6, 51, 52
12, 22894, Note_off_c, 6, 51, 64
12, 22894, Note_off_c, 6, 56, 64
12, 23280, Note_on_c, 6, 59, 73
12, 23280, Note_on_c, 6, 53, 47
12, 23338, Note_off_c, 6, 53, 64
12, 23338, Note_off_c, 6, 59, 64
12, 23760, Note_on_c, 6, 59, 70
12, 23760, Note_on_c, 6, 53, 52
12, 23822, Note_off_c, 6, 59, 64
12, 23830, Note_off_c, 6, 53, 64
12, 24000, Note_on_c, 6, 59, 48
12, 24000, Note_on_c, 6, 53, 41
12, 24236, Note_off_c, 6, 59, 64
12, 24240, Note_off_c, 6, 53, 64
12, 24240, Note_on_c, 6, 59, 79
12, 24240, Note_on_c, 6, 53, 57
12, 24322, Note_off_c, 6, 53, 64
12, 24322, Note_off_c, 6, 59, 64
12, 24480, Note_on_c, 6, 59, 30
12, 24480, Note_on_c, 6, 53, 25
12, 24704, Note_off_c, 6, 53, 64
12, 24704, Note_off_c, 6, 59, 64
12, 24720, Note_on_c, 6, 59, 86
12, 24720, Note_on_c, 6, 53, 52
12, 24814, Note_off_c, 6, 53, 64
12, 24814, Note_off_c, 6, 59, 64
12, 24960, Note_on_c, 6, 58, 48
12, 24960, Note_on_c, 6, 52, 41
12, 25156, Note_off_c, 6, 58, 64
12, 25162, Note_off_c, 6, 52, 64
12, 25200, Note_on_c, 6, 58, 79
12, 25200, Note_on_c, 6, 52, 57
12, 25242, Note_off_c, 6, 52, 64
12, 25242, Note_off_c, 6, 58, 64
12, 25440, Note_on_c, 6, 52, 52
12, 25440, Note_on_c, 6, 58, 64
12, 25666, Note_off_c, 6, 58, 64
12, 25678, Note_off_c, 6, 52, 64
12, 25680, Note_on_c, 6, 58, 63
12, 25680, Note_on_c, 6, 52, 46
12, 25726, Note_off_c, 6, 52, 64
12, 25742, Note_off_c, 6, 58, 64
12, 25920, Note_on_c, 6, 55, 48
12, 25920, Note_on_c, 6, 49, 41
12, 26116, Note_off_c, 6, 55, 64
12, 26122, Note_off_c, 6, 49, 64
12, 26160, Note_on_c, 6, 55, 79
12, 26160, Note_on_c, 6, 49, 57
12, 26202, Note_off_c, 6, 49, 64
12, 26202, Note_off_c, 6, 55, 64
12, 26400, Note_on_c, 6, 52, 52
12, 26400, Note_on_c, 6, 58, 64
12, 26626, Note_off_c, 6, 58, 64
12, 26638, Note_off_c, 6, 52, 64
12, 26640, Note_on_c, 6, 58, 63
12, 26640, Note_on_c, 6, 52, 46
12, 26686, Note_off_c, 6, 52, 64
12, 26702, Note_off_c, 6, 58, 64
12, 26880, Note_on_c, 6, 51, 48
12, 26880, Note_on_c, 6, 56, 60
12, 27086, Note_off_c, 6, 56, 64
12, 27098, Note_off_c, 6, 51, 64
12, 27120, Note_on_c, 6, 56, 59
12, 27120, Note_on_c, 6, 51, 42
12, 27146, Note_off_c, 6, 51, 64
12, 27162, Note_off_c, 6, 56, 64
12, 27360, Note_on_c, 6, 51, 26
12, 27360, Note_on_c, 6, 56, 39
12, 27574, Note_off_c, 6, 56, 64
12, 27574, Note_off_c, 6, 51, 64
12, 27600, Note_on_c, 6, 56, 62
12, 27600, Note_on_c, 6, 51, 28
12, 27640, Note_off_c, 6, 51, 64
12, 27640, Note_off_c, 6, 56, 64
12, 27840, Note_on_c, 6, 53, 48
12, 27840, Note_on_c, 6, 59, 60
12, 28046, Note_off_c, 6, 59, 64
12, 28058, Note_off_c, 6, 53, 64
12, 28080, Note_on_c, 6, 59, 59
12, 28080, Note_on_c, 6, 53, 42
12, 28106, Note_off_c, 6, 53, 64
12, 28122, Note_off_c, 6, 59, 64
12, 28320, Note_on_c, 6, 53, 26
12, 28320, Note_on_c, 6, 59, 39
12, 28534, Note_off_c, 6, 59, 64
12, 28534, Note_off_c, 6, 53, 64
12, 28560, Note_on_c, 6, 59, 62
12, 28560, Note_on_c, 6, 53, 28
12, 28600, Note_off_c, 6, 53, 64
12, 28600, Note_off_c, 6, 59, 64
12, 28800, Note_on_c, 6, 60, 48
12, 28800, Note_on_c, 6, 51, 41
12, 29036, Note_off_c, 6, 60, 64
12, 29040, Note_off_c, 6, 51, 64
12, 29040, Note_on_c, 6, 60, 79
12, 29040, Note_on_c, 6, 51, 57
12, 29122, Note_off_c, 6, 51, 64
12, 29122, Note_off_c, 6, 60, 64
12, 29280, Note_on_c, 6, 60, 30
12, 29280, Note_on_c, 6, 51, 25
12, 29504, Note_off_c, 6, 51, 64
12, 29504, Note_off_c, 6, 60, 64
12, 29520, Note_on_c, 6, 60, 86
12, 29520, Note_on_c, 6, 51, 52
12, 29614, Note_off_c, 6, 51, 64
12, 29614, Note_off_c, 6, 60, 64
12, 29760, Note_on_c, 6, 57, 48
12, 29760, Note_on_c, 6, 51, 41
12, 29996, Note_off_c, 6, 57, 64
12, 30000, Note_off_c, 6, 51, 64
12, 30000, Note_on_c, 6, 57, 79
12, 30000, Note_on_c, 6, 51, 57
12, 30082, Note_off_c, 6, 51, 64
12, 30082, Note_off_c, 6, 57, 64
12, 30240, Note_on_c, 6, 57, 30
12, 30240, Note_on_c, 6, 51, 25
12, 30464, Note_off_c, 6, 51, 64
12, 30464, Note_off_c, 6, 57, 64
12, 30480, Note_on_c, 6, 57, 86
12, 30480, Note_on_c, 6, 51, 52
12, 30574, Note_off_c, 6, 51, 64
12, 30574, Note_off_c, 6, 57, 64
12, 30720, Note_on_c, 6, 57, 54
12, 30720, Note_on_c, 6, 51, 39
12, 30838, Note_off_c, 6, 57, 64
12, 30854, Note_off_c, 6, 51, 64
12, 30960, Note_on_c, 6, 57, 78
12, 30960, Note_on_c, 6, 51, 51
12, 31024, Note_off_c, 6, 57, 64
12, 31036, Note_off_c, 6, 51, 64
12, 31200, Note_on_c, 6, 56, 48
12, 31200, Note_on_c, 6, 50, 41
12, 31396, Note_off_c, 6, 56, 64
12, 31402, Note_off_c, 6, 50, 64
12, 31440, Note_on_c, 6, 56, 79
12, 31440, Note_on_c, 6, 50, 57
12, 31482, Note_off_c, 6, 50, 64
12, 31482, Note_off_c, 6, 56, 64
12, 31920, Note_on_c, 6, 58, 73
12, 31920, Note_on_c, 6, 51, 47
12, 31978, Note_off_c, 6, 51, 64
12, 31978, Note_off_c, 6, 58, 64
12, 32400, Note_on_c, 6, 58, 70
12, 32400, Note_on_c, 6, 51, 52
12, 32462, Note_off_c, 6, 58, 64
12, 32470, Note_off_c, 6, 51, 64
12, 32640, Note_on_c, 6, 51, 52
12, 32640, Note_on_c, 6, 58, 64
12, 32866, Note_off_c, 6, 58, 64
12, 32878, Note_off_c, 6, 51, 64
12, 32880, Note_on_c, 6, 58, 63
12, 32880, Note_on_c, 6, 51, 46
12, 32926, Note_off_c, 6, 51, 64
12, 32942, Note_off_c, 6, 58, 64
12, 33120, Note_on_c, 6, 62, 48
12, 33120, Note_on_c, 6, 55, 41
12, 33316, Note_off_c, 6, 62, 64
12, 33322, Note_off_c, 6, 55, 64
12, 33360, Note_on_c, 6, 62, 79
12, 33360, Note_on_c, 6, 55, 57
12, 33402, Note_off_c, 6, 55, 64
12, 33402, Note_off_c, 6, 62, 64
12, 33600, Note_on_c, 6, 55, 51
12, 33600, Note_on_c, 6, 48, 30
12, 33840, Note_off_c, 6, 48, 64
12, 33840, Note_off_c, 6, 55, 64
12, 33840, Note_on_c, 6, 58, 65
12, 33840, Note_on_c, 6, 51, 46
12, 33890, Note_off_c, 6, 51, 64
12, 33890, Note_off_c, 6, 58, 64
12, 34080, Note_on_c, 6, 51, 52
12, 34080, Note_on_c, 6, 58, 64
12, 34306, Note_off_c, 6, 58, 64
12, 34318, Note_off_c, 6, 51, 64
12, 34320, Note_on_c, 6, 58, 63
12, 34320, Note_on_c, 6, 51, 46
12, 34366, Note_off_c, 6, 51, 64
12, 34382, Note_off_c, 6, 58, 64
12, 34560, Note_on_c, 6, 49, 48
12, 34560, Note_on_c, 6, 55, 60
12, 34766, Note_off_c, 6, 55, 64
12, 34778, Note_off_c, 6, 49, 64
12, 34800, Note_on_c, 6, 55, 59
12, 34800, Note_on_c, 6, 49, 42
12, 34826, Note_off_c, 6, 49, 64
12, 34842, Note_off_c, 6, 55, 64
12, 35040, Note_on_c, 6, 49, 26
12, 35040, Note_on_c, 6, 55, 39
12, 35254, Note_off_c, 6, 55, 64
12, 35254, Note_off_c, 6, 49, 64
12, 35280, Note_on_c, 6, 55, 62
12, 35280, Note_on_c, 6, 49, 28
12, 35320, Note_off_c, 6, 49, 64
12, 35320, Note_off_c, 6, 55, 64
12, 35520, Note_on_c, 6, 58, 48
12, 35520, Note_on_c, 6, 52, 41
12, 35756, Note_off_c, 6, 58, 64
12, 35760, Note_off_c, 6, 52, 64
12, 35760, Note_on_c, 6, 58, 79
12, 35760, Note_on_c, 6, 52, 57
12, 35842, Note_off_c, 6, 52, 64
12, 35842, Note_off_c, 6, 58, 64
12, 36000, Note_on_c, 6, 58, 30
12, 36000, Note_on_c, 6, 52, 25
12, 36224, Note_off_c, 6, 52, 64
12, 36224, Note_off_c, 6, 58, 64
12, 36240, Note_on_c, 6, 58, 86
12, 36240, Note_on_c, 6, 52, 52
12, 36334, Note_off_c, 6, 52, 64
12, 36334, Note_off_c, 6, 58, 64
12, 36480, Note_on_c, 6, 53, 52
12, 36480, Note_on_c, 6, 60, 64
12, 36706, Note_off_c, 6, 60, 64
12, 36718, Note_off_c, 6, 53, 64
12, 36720, Note_on_c, 6, 60, 63
12, 36720, Note_on_c, 6, 53, 46
12, 36766, Note_off_c, 6, 53, 64
12, 36782, Note_off_c, 6, 60, 64
12, 36960, Note_on_c, 6, 52, 52
12, 36960, Note_on_c, 6, 59, 64
12, 37186, Note_off_c, 6, 59, 64
12, 37198, Note_off_c, 6, 52, 64
12, 37200, Note_on_c, 6, 59, 63
12, 37200, Note_on_c, 6, 52, 46
12, 37246, Note_off_c, 6, 52, 64
12, 37262, Note_off_c, 6, 59, 64
12, 37440, Note_on_c, 6, 51, 48
12, 37440, Note_on_c, 6, 56, 60
12, 37646, Note_off_c, 6, 56, 64
12, 37658, Note_off_c, 6, 51, 64
12, 37680, Note_on_c, 6, 56, 59
12, 37680, Note_on_c, 6, 51, 42
12, 37706, Note_off_c, 6, 51, 64
12, 37722, Note_off_c, 6, 56, 64
12, 37920, Note_on_c, 6, 51, 26
12, 37920, Note_on_c, 6, 56, 39
12, 38134, Note_off_c, 6, 56, 64
12, 38134, Note_off_c, 6, 51, 64
12, 38160, Note_on_c, 6, 56, 62
12, 38160, Note_on_c, 6, 51, 28
12, 38200, Note_off_c, 6, 51, 64
12, 38200, Note_off_c, 6, 56, 64
12, 38640, Note_on_c, 6, 59, 73
12, 38640, Note_on_c, 6, 53, 47
12, 38698, Note_off_c, 6, 53, 64
12, 38698, Note_off_c, 6, 59, 64
12, 39120, Note_on_c, 6, 59, 70
12, 39120, Note_on_c, 6, 53, 52
12, 39182, Note_off_c, 6, 59, 64
12, 39190, Note_off_c, 6, 53, 64
12, 39360, Note_on_c, 6, 50, 52
12, 39360, Note_on_c, 6, 56, 64
12, 39586, Note_off_c, 6, 56, 64
12, 39598, Note_off_c, 6, 50, 64
12, 39600, Note_on_c, 6, 56, 63
12, 39600, Note_on_c, 6, 50, 46
12, 39646, Note_off_c, 6, 50, 64
12, 39662, Note_off_c, 6, 56, 64
12, 39840, Note_on_c, 6, 56, 48
12, 39840, Note_on_c, 6, 50, 41
12, 40036, Note_off_c, 6, 56, 64
12, 40042, Note_off_c, 6, 50, 64
12, 40080, Note_on_c, 6, 56, 79
12, 40080, Note_on_c, 6, 50, 57
12, 40122, Note_off_c, 6, 50, 64
12, 40122, Note_off_c, 6, 56, 64
12, 40320, Note_on_c, 6, 51, 48
12, 40320, Note_on_c, 6, 60, 60
12, 40526, Note_off_c, 6, 60, 64
12, 40538, Note_off_c, 6, 51, 64
12, 40560, Note_on_c, 6, 60, 59
12, 40560, Note_on_c, 6, 51, 42
12, 40586, Note_off_c, 6, 51, 64
12, 40602, Note_off_c, 6, 60, 64
12, 40800, Note_on_c, 6, 51, 26
12, 40800, Note_on_c, 6, 60, 39
12, 41014, Note_off_c, 6, 60, 64
12, 41014, Note_off_c, 6, 51, 64
12, 41040, Note_on_c, 6, 60, 62
12, 41040, Note_on_c, 6, 51, 28
12, 41080, Note_off_c, 6, 51, 64
12, 41080, Note_off_c, 6, 60, 64
12, 41280, Note_on_c, 6, 59, 54
12, 41280, Note_on_c, 6, 53, 39
12, 41398, Note_off_c, 6, 59, 64
12, 41414, Note_off_c, 6, 53, 64
12, 41520, Note_on_c, 6, 59, 78
12, 41520, Note_on_c, 6, 53, 51
12, 41584, Note_off_c, 6, 59, 64
12, 41596, Note_off_c, 6, 53, 64
12, 41760, Note_on_c, 6, 59, 33
12, 41850, Note_off_c, 6, 59, 64
12, 42000, Note_on_c, 6, 59, 80
12, 42000, Note_on_c, 6, 53, 65
12, 42068, Note_off_c, 6, 59, 64
12, 42078, Note_off_c, 6, 53, 64
12, 42240, Note_on_c, 6, 49, 48
12, 42240, Note_on_c, 6, 55, 60
12, 42446, Note_off_c, 6, 55, 64
12, 42458, Note_off_c, 6, 49, 64
12, 42480, Note_on_c, 6, 55, 59
12, 42480, Note_on_c, 6, 49, 42
12, 42506, Note_off_c, 6, 49, 64
12, 42522, Note_off_c, 6, 55, 64
12, 42720, Note_on_c, 6, 49, 26
12, 42720, Note_on_c, 6, 55, 39
12, 42934, Note_off_c, 6, 55, 64
12, 42934, Note_off_c, 6, 49, 64
12, 42960, Note_on_c, 6, 55, 62
12, 42960, Note_on_c, 6, 49, 28
12, 43000, Note_off_c, 6, 49, 64
12, 43000, Note_off_c, 6, 55, 64
12, 43440, Note_on_c, 6, 58, 73
12, 43440, Note_on_c, 6, 52, 47
12, 43498, Note_off_c, 6, 52, 64
12, 43498, Note_off_c, 6, 58, 64
12, 43920, Note_on_c, 6, 58, 70
12, 43920, Note_on_c, 6, 52, 52
12, 43982, Note_off_c, 6, 58, 64
12, 43990, Note_off_c, 6, 52, 64
12, 44160, Note_on_c, 6, 51, 48
12, 44160, Note_on_c, 6, 57, 60
12, 44366, Note_off_c, 6, 57, 64
12, 44378, Note_off_c, 6, 51, 64
12, 44400, Note_on_c, 6, 57, 59
12, 44400, Note_on_c, 6, 51, 42
12, 44426, Note_off_c, 6, 51, 64
12, 44442, Note_off_c, 6, 57, 64
12, 44640, Note_on_c, 6, 51, 26
12, 44640, Note_on_c, 6, 57, 39
12, 44854, Note_off_c, 6, 57, 64
12, 44854, Note_off_c, 6, 51, 64
12, 44880, Note_on_c, 6, 57, 62
12, 44880, Note_on_c, 6, 51, 28
12, 44920, Note_off_c, 6, 51, 64
12, 44920, Note_off_c, 6, 57, 64
12, 45360, Note_on_c, 6, 57, 73
12, 45360, Note_on_c, 6, 51, 47
12, 45418, Note_off_c, 6, 51, 64
12, 45418, Note_off_c, 6, 57, 64
12, 45840, Note_on_c, 6, 57, 70
12, 45840, Note_on_c, 6, 51, 52
12, 45902, Note_off_c, 6, 57, 64
12, 45910, Note_off_c, 6, 51, 64
12, 46080, Note_on_c, 6, 56, 48
12, 46080, Note_on_c, 6, 63, 60
12, 46286, Note_off_c, 6, 63, 64
12, 46298, Note_off_c, 6, 56, 64
12, 46320, Note_on_c, 6, 63, 59
12, 46320, Note_on_c, 6, 56, 42
12, 46346, Note_off_c, 6, 56, 64
12, 46362, Note_off_c, 6, 63, 64
12, 46560, Note_on_c, 6, 56, 26
12, 46560, Note_on_c, 6, 63, 39
12, 46774, Note_off_c, 6, 63, 64
12, 46774, Note_off_c, 6, 56, 64
12, 46800, Note_on_c, 6, 63, 62
12, 46800, Note_on_c, 6, 56, 28
12, 46840, Note_off_c, 6, 56, 64
12, 46840, Note_off_c, 6, 63, 64
12, 47040, Note_on_c, 6, 51, 52
12, 47040, Note_on_c, 6, 56, 64
12, 47266, Note_off_c, 6, 56, 64
12, 47278, Note_off_c, 6, 51, 64
12, 47280, Note_on_c, 6, 56, 63
12, 47280, Note_on_c, 6, 51, 46
12, 47326, Note_off_c, 6, 51, 64
12, 47342, Note_off_c, 6, 56, 64
12, 47520, Note_on_c, 6, 56, 48
12, 47520, Note_on_c, 6, 50, 41
12, 47716, Note_off_c, 6, 56, 64
12, 47722, Note_off_c, 6, 50, 64
12, 47760, Note_on_c, 6, 56, 79
12, 47760, Note_on_c, 6, 50, 57
12, 47802, Note_off_c, 6, 50, 64
12, 47802, Note_off_c, 6, 56, 64
12, 48000, Note_on_c, 6, 51, 52
12, 48000, Note_on_c, 6, 58, 64
12, 48226, Note_off_c, 6, 58, 64
12, 48238, Note_off_c, 6, 51, 64
12, 48240, Note_on_c, 6, 58, 63
12, 48240, Note_on_c, 6, 51, 46
12, 48286, Note_off_c, 6, 51, 64
12, 48302, Note_off_c, 6, 58, 64
12, 48480, Note_on_c, 6, 55, 52
12, 48480, Note_on_c, 6, 62, 64
12, 48706, Note_off_c, 6, 62, 64
12, 48718, Note_off_c, 6, 55, 64
12, 48720, Note_on_c, 6, 62, 63
12, 48720, Note_on_c, 6, 55, 46
12, 48766, Note_off_c, 6, 55, 64
12, 48782, Note_off_c, 6, 62, 64
12, 48960, Note_on_c, 6, 55, 51
12, 48960, Note_on_c, 6, 48, 30
12, 49200, Note_off_c, 6, 48, 64
12, 49200, Note_off_c, 6, 55, 64
12, 49200, Note_on_c, 6, 58, 65
12, 49200, Note_on_c, 6, 51, 46
12, 49250, Note_off_c, 6, 51, 64
12, 49250, Note_off_c, 6, 58, 64
12, 49440, Note_on_c, 6, 51, 52
12, 49440, Note_on_c, 6, 58, 64
12, 49666, Note_off_c, 6, 58, 64
12, 49678, Note_off_c, 6, 51, 64
12, 49680, Note_on_c, 6, 58, 63
12, 49680, Note_on_c, 6, 51, 46
12, 49726, Note_off_c, 6, 51, 64
12, 49742, Note_off_c, 6, 58, 64
12, 50160, Note_on_c, 6, 55, 73
12, 50160, Note_on_c, 6, 49, 47
12, 50218, Note_off_c, 6, 49, 64
12, 50218, Note_off_c, 6, 55, 64
12, 50640, Note_on_c, 6, 55, 70
12, 50640, Note_on_c, 6, 49, 52
12, 50702, Note_off_c, 6, 55, 64
12, 50710, Note_off_c, 6, 49, 64
12, 50880, Note_on_c, 6, 58, 54
12, 50880, Note_on_c, 6, 52, 39
12, 50998, Note_off_c, 6, 58, 64
12, 51014, Note_off_c, 6, 52, 64
12, 51120, Note_on_c, 6, 58, 78
12, 51120, Note_on_c, 6, 52, 51
12, 51184, Note_off_c, 6, 58, 64
12, 51196, Note_off_c, 6, 52, 64
12, 51360, Note_on_c, 6, 58, 33
12, 51450, Note_off_c, 6, 58, 64
12, 51600, Note_on_c, 6, 58, 80
12, 51600, Note_on_c, 6, 52, 65
12, 51668, Note_off_c, 6, 58, 64
12, 51678, Note_off_c, 6, 52, 64
12, 51840, Note_on_c, 6, 60, 48
12, 51840, Note_on_c, 6, 53, 41
12, 52036, Note_off_c, 6, 60, 64
12, 52042, Note_off_c, 6, 53, 64
12, 52080, Note_on_c, 6, 60, 79
12, 52080, Note_on_c, 6, 53, 57
12, 52122, Note_off_c, 6, 53, 64
12, 52122, Note_off_c, 6, 60, 64
12, 52320, Note_on_c, 6, 52, 52
12, 52320, Note_on_c, 6, 59, 64
12, 52546, Note_off_c, 6, 59, 64
12, 52558, Note_off_c, 6, 52, 64
12, 52560, Note_on_c, 6, 59, 63
12, 52560, Note_on_c, 6, 52, 46
12, 52606, Note_off_c, 6, 52, 64
12, 52622, Note_off_c, 6, 59, 64
12, 52800, Note_on_c, 6, 56, 54
12, 52800, Note_on_c, 6, 51, 39
12, 52918, Note_off_c, 6, 56, 64
12, 52934, Note_off_c, 6, 51, 64
12, 53040, Note_on_c, 6, 56, 78
12, 53040, Note_on_c, 6, 51, 51
12, 53104, Note_off_c, 6, 56, 64
12, 53116, Note_off_c, 6, 51, 64
12, 53280, Note_on_c, 6, 56, 33
12, 53370, Note_off_c, 6, 56, 64
12, 53520, Note_on_c, 6, 56, 80
12, 53520, Note_on_c, 6, 51, 65
12, 53588, Note_off_c, 6, 56, 64
12, 53598, Note_off_c, 6, 51, 64
12, 53760, Note_on_c, 6, 53, 48
12, 53760, Note_on_c, 6, 59, 60
12, 53966, Note_off_c, 6, 59, 64
12, 53978, Note_off_c, 6, 53, 64
12, 54000, Note_on_c, 6, 59, 59
12, 54000, Note_on_c, 6, 53, 42
12, 54026, Note_off_c, 6, 53, 64
12, 54042, Note_off_c, 6, 59, 64
12, 54240, Note_on_c, 6, 53, 26
12, 54240, Note_on_c, 6, 59, 39
12, 54454, Note_off_c, 6, 59, 64
12, 54454, Note_off_c, 6, 53, 64
12, 54480, Note_on_c, 6, 59, 62
12, 54480, Note_on_c, 6, 53, 28
12, 54520, Note_off_c, 6, 53, 64
12, 54520, Note_off_c, 6, 59, 64
12, 54720, Note_on_c, 6, 59, 48
12, 54720, Note_on_c, 6, 53, 41
12, 54956, Note_off_c, 6, 59, 64
12, 54960, Note_off_c, 6, 53, 64
12, 54960, Note_on_c, 6, 59, 79
12, 54960, Note_on_c, 6, 53, 57
12, 55042, Note_off_c, 6, 53, 64
12, 55042, Note_off_c, 6, 59, 64
12, 55200, Note_on_c, 6, 59, 30
12, 55200, Note_on_c, 6, 53, 25
12, 55424, Note_off_c, 6, 53, 64
12, 55424, Note_off_c, 6, 59, 64
12, 55440, Note_on_c, 6, 59, 86
12, 55440, Note_on_c, 6, 53, 52
12, 55534, Note_off_c, 6, 53, 64
12, 55534, Note_off_c, 6, 59, 64
12, 55680, Note_on_c, 6, 58, 54
12, 55680, Note_on_c, 6, 52, 39
12, 55798, Note_off_c, 6, 58, 64
12, 55814, Note_off_c, 6, 52, 64
12, 55920, Note_on_c, 6, 58, 78
12, 55920, Note_on_c, 6, 52, 51
12, 55984, Note_off_c, 6, 58, 64
12, 55996, Note_off_c, 6, 52, 64
12, 56160, Note_on_c, 6, 58, 54
12, 56160, Note_on_c, 6, 52, 39
12, 56278, Note_off_c, 6, 58, 64
12, 56294, Note_off_c, 6, 52, 64
12, 56400, Note_on_c, 6, 58, 78
12, 56400, Note_on_c, 6, 52, 51
12, 56464, Note_off_c, 6, 58, 64
12, 56476, Note_off_c, 6, 52, 64
12, 56640, Note_on_c, 6, 49, 52
12, 56640, Note_on_c, 6, 55, 64
12, 56866, Note_off_c, 6, 55, 64
12, 56878, Note_off_c, 6, 49, 64
12, 56880, Note_on_c, 6, 55, 63
12, 56880, Note_on_c, 6, 49, 46
12, 56926, Note_off_c, 6, 49, 64
12, 56942, Note_off_c, 6, 55, 64
12, 57120, Note_on_c, 6, 52, 52
12, 57120, Note_on_c, 6, 58, 64
12, 57346, Note_off_c, 6, 58, 64
12, 57358, Note_off_c, 6, 52, 64
12, 57360, Note_on_c, 6, 58, 63
12, 57360, Note_on_c, 6, 52, 46
12, 57406, Note_off_c, 6, 52, 64
12, 57422, Note_off_c, 6, 58, 64
12, 57600, Note_on_c, 6, 51, 48
12, 57600, Note_on_c, 6, 56, 60
12, 57806, Note_off_c, 6, 56, 64
12, 57818, Note_off_c, 6, 51, 64
12, 57840, Note_on_c, 6, 56, 59
12, 57840, Note_on_c, 6, 51, 42
12, 57866, Note_off_c, 6, 51, 64
12, 57882, Note_off_c, 6, 56, 64
12, 58080, Note_on_c, 6, 51, 26
12, 58080, Note_on_c, 6, 56, 39
12, 58294, Note_off_c, 6, 56, 64
12, 58294, Note_off_c, 6, 51, 64
12, 58320, Note_on_c, 6, 56, 62
12, 58320, Note_on_c, 6, 51, 28
12, 58360, Note_off_c, 6, 51, 64
12, 58360, Note_off_c, 6, 56, 64
12, 58560, Note_on_c, 6, 59, 54
12, 58560, Note_on_c, 6, 53, 39
12, 58678, Note_off_c, 6, 59, 64
12, 58694, Note_off_c, 6, 53, 64
12, 58800, Note_on_c, 6, 59, 78
12, 58800, Note_on_c, 6, 53, 51
12, 58864, Note_off_c, 6, 59, 64
12, 58876, Note_off_c, 6, 53, 64
12, 59040, Note_on_c, 6, 59, 33
12, 59130, Note_off_c, 6, 59, 64
12, 59280, Note_on_c, 6, 59, 80
12, 59280, Note_on_c, 6, 53, 65
12, 59348, Note_off_c, 6, 59, 64
12, 59358, Note_off_c, 6, 53, 64
12, 59760, Note_on_c, 6, 60, 73
12, 59760, Note_on_c, 6, 51, 47
12, 59818, Note_off_c, 6, 51, 64
12, 59818, Note_off_c, 6, 60, 64
12, 60240, Note_on_c, 6, 60, 70
12, 60240, Note_on_c, 6, 51, 52
12, 60302, Note_off_c, 6, 60, 64
12, 60310, Note_off_c, 6, 51, 64
12, 60480, Note_on_c, 6, 51, 48
12, 60480, Note_on_c, 6, 57, 60
12, 60686, Note_off_c, 6, 57, 64
12, 60698, Note_off_c, 6, 51, 64
12, 60720, Note_on_c, 6, 57, 59
12, 60720, Note_on_c, 6, 51, 42
12, 60746, Note_off_c, 6, 51, 64
12, 60762, Note_off_c, 6, 57, 64
12, 60960, Note_on_c, 6, 51, 26
12, 60960, Note_on_c, 6, 57, 39
12, 61174, Note_off_c, 6, 57, 64
12, 61174, Note_off_c, 6, 51, 64
12, 61200, Note_on_c, 6, 57, 62
12, 61200, Note_on_c, 6, 51, 28
12, 61240, Note_off_c, 6, 51, 64
12, 61240, Note_off_c, 6, 57, 64
12, 61440, Note_on_c, 6, 57, 48
12, 61440, Note_on_c, 6, 51, 41
12, 61636, Note_off_c, 6, 57, 64
12, 61642, Note_off_c, 6, 51, 64
12, 61680, Note_on_c, 6, 57, 79
12, 61680, Note_on_c, 6, 51, 57
12, 61722, Note_off_c, 6, 51, 64
12, 61722, Note_off_c, 6, 57, 64
12, 61920, Note_on_c, 6, 56, 48
12, 61920, Note_on_c, 6, 50, 41
12, 62116, Note_off_c, 6, 56, 64
12, 62122, Note_off_c, 6, 50, 64
12, 62160, Note_on_c, 6, 56, 79
12, 62160, Note_on_c, 6, 50, 57
12, 62202, Note_off_c, 6, 50, 64
12, 62202, Note_off_c, 6, 56, 64
12, 62400, Note_on_c, 6, 51, 48
12, 62400, Note_on_c, 6, 58, 60
12, 62606, Note_off_c, 6, 58, 64
12, 62618, Note_off_c, 6, 51, 64
12, 62640, Note_on_c, 6, 58, 59
12, 62640, Note_on_c, 6, 51, 42
12, 62666, Note_off_c, 6, 51, 64
12, 62682, Note_off_c, 6, 58, 64
12, 62880, Note_on_c, 6, 51, 26
12, 62880, Note_on_c, 6, 58, 39
12, 63094, Note_off_c, 6, 58, 64
12, 63094, Note_off_c, 6, 51, 64
12, 63120, Note_on_c, 6, 58, 62
12, 63120, Note_on_c, 6, 51, 28
12, 63160, Note_off_c, 6, 51, 64
12, 63160, Note_off_c, 6, 58, 64
12, 63600, Note_on_c, 6, 58, 73
12, 63600, Note_on_c, 6, 51, 47
12, 63662, Note_off_c, 6, 51, 64
12, 63662, Note_off_c, 6, 58, 64
12, 64080, Note_on_c, 6, 62, 73
12, 64080, Note_on_c, 6, 55, 47
12, 64142, Note_off_c, 6, 55, 64
12, 64142, Note_off_c, 6, 62, 64
12, 64560, Note_on_c, 6, 58, 65
12, 64560, Note_on_c, 6, 51, 46
12, 64610, Note_off_c, 6, 51, 64
12, 64610, Note_off_c, 6, 58, 64
12, 65040, Note_on_c, 6, 58, 73
12, 65040, Note_on_c, 6, 51, 47
12, 65102, Note_off_c, 6, 51, 64
12, 65102, Note_off_c, 6, 58, 64
12, 65520, Note_on_c, 6, 55, 73
12, 65520, Note_on_c, 6, 49, 47
12, 65582, Note_off_c, 6, 49, 64
12, 65582, Note_off_c, 6, 55, 64
12, 66000, Note_on_c, 6, 55, 70
12, 66000, Note_on_c, 6, 49, 52
12, 66066, Note_off_c, 6, 55, 64
12, 66074, Note_off_c, 6, 49, 64
12, 66480, Note_on_c, 6, 58, 73
12, 66480, Note_on_c, 6, 52, 47
12, 66542, Note_off_c, 6, 52, 64
12, 66542, Note_off_c, 6, 58, 64
12, 66960, Note_on_c, 6, 58, 70
12, 66960, Note_on_c, 6, 52, 52
12, 67026, Note_off_c, 6, 58, 64
12, 67034, Note_off_c, 6, 52, 64
12, 67440, Note_on_c, 6, 60, 73
12, 67440, Note_on_c, 6, 53, 47
12, 67502, Note_off_c, 6, 53, 64
12, 67502, Note_off_c, 6, 60, 64
12, 67920, Note_on_c, 6, 59, 73
12, 67920, Note_on_c, 6, 52, 47
12, 67982, Note_off_c, 6, 52, 64
12, 67982, Note_off_c, 6, 59, 64
12, 68400, Note_on_c, 6, 56, 73
12, 68400, Note_on_c, 6, 51, 47
12, 68462, Note_off_c, 6, 51, 64
12, 68462, Note_off_c, 6, 56, 64
12, 68880, Note_on_c, 6, 56, 70
12, 68880, Note_on_c, 6, 51, 52
12, 68946, Note_off_c, 6, 56, 64
12, 68954, Note_off_c, 6, 51, 64
12, 69360, Note_on_c, 6, 59, 73
12, 69360, Note_on_c, 6, 53, 47
12, 69422, Note_off_c, 6, 53, 64
12, 69422, Note_off_c, 6, 59, 64
12, 69840, Note_on_c, 6, 59, 70
12, 69840, Note_on_c, 6, 53, 52
12, 69906, Note_off_c, 6, 59, 64
12, 69914, Note_off_c, 6, 53, 64
12, 70320, Note_on_c, 6, 56, 73
12, 70320, Note_on_c, 6, 50, 47
12, 70382, Note_off_c, 6, 50, 64
12, 70382, Note_off_c, 6, 56, 64
12, 70800, Note_on_c, 6, 56, 68
12, 70856, Note_off_c, 6, 56, 64
12, 71280, Note_on_c, 6, 60, 73
12, 71280, Note_on_c, 6, 51, 47
12, 71342, Note_off_c, 6, 51, 64
12, 71342, Note_off_c, 6, 60, 64
12, 71760, Note_on_c, 6, 60, 70
12, 71760, Note_on_c, 6, 51, 52
12, 71826, Note_off_c, 6, 60, 64
12, 71834, Note_off_c, 6, 51, 64
12, 72240, Note_on_c, 6, 59, 73
12, 72240, Note_on_c, 6, 53, 47
12, 72302, Note_off_c, 6, 53, 64
12, 72302, Note_off_c, 6, 59, 64
12, 72720, Note_on_c, 6, 59, 70
12, 72720, Note_on_c, 6, 53, 52
12, 72786, Note_off_c, 6, 59, 64
12, 72794, Note_off_c, 6, 53, 64
12, 73200, Note_on_c, 6, 55, 73
12, 73200, Note_on_c, 6, 49, 47
12, 73262, Note_off_c, 6, 49, 64
12, 73262, Note_off_c, 6, 55, 64
12, 73680, Note_on_c, 6, 55, 70
12, 73680, Note_on_c, 6, 49, 52
12, 73746, Note_off_c, 6, 55, 64
12, 73754, Note_off_c, 6, 49, 64
12, 74160, Note_on_c, 6, 58, 68
12, 74216, Note_off_c, 6, 58, 64
12, 74400, Note_on_c, 6, 58, 61
12, 74400, Note_on_c, 6, 52, 12
12, 74448, Note_off_c, 6, 52, 64
12, 74454, Note_off_c, 6, 58, 64
12, 74640, Note_on_c, 6, 52, 73
12, 74640, Note_on_c, 6, 58, 88
12, 74698, Note_off_c, 6, 58, 64
12, 74698, Note_off_c, 6, 52, 64
12, 75120, Note_on_c, 6, 57, 73
12, 75120, Note_on_c, 6, 51, 47
12, 75182, Note_off_c, 6, 51, 64
12, 75182, Note_off_c, 6, 57, 64
12, 75600, Note_on_c, 6, 57, 70
12, 75600, Note_on_c, 6, 51, 52
12, 75666, Note_off_c, 6, 57, 64
12, 75674, Note_off_c, 6, 51, 64
12, 76080, Note_on_c, 6, 57, 73
12, 76080, Note_on_c, 6, 51, 47
12, 76142, Note_off_c, 6, 51, 64
12, 76142, Note_off_c, 6, 57, 64
12, 76560, Note_on_c, 6, 57, 70
12, 76560, Note_on_c, 6, 51, 52
12, 76626, Note_off_c, 6, 57, 64
12, 76634, Note_off_c, 6, 51, 64
12, 77040, Note_on_c, 6, 63, 73
12, 77040, Note_on_c, 6, 56, 47
12, 77102, Note_off_c, 6, 56, 64
12, 77102, Note_off_c, 6, 63, 64
12, 77520, Note_on_c, 6, 63, 70
12, 77520, Note_on_c, 6, 56, 52
12, 77586, Note_off_c, 6, 63, 64
12, 77594, Note_off_c, 6, 56, 64
12, 78000, Note_on_c, 6, 56, 73
12, 78000, Note_on_c, 6, 51, 47
12, 78062, Note_off_c, 6, 51, 64
12, 78062, Note_off_c, 6, 56, 64
12, 78480, Note_on_c, 6, 56, 73
12, 78480, Note_on_c, 6, 50, 47
12, 78542, Note_off_c, 6, 50, 64
12, 78542, Note_off_c, 6, 56, 64
12, 78720, Note_on_c, 6, 51, 52
12, 78720, Note_on_c, 6, 58, 64
12, 78946, Note_off_c, 6, 58, 64
12, 78958, Note_off_c, 6, 51, 64
12, 78960, Note_on_c, 6, 58, 63
12, 78960, Note_on_c, 6, 51, 46
12, 79006, Note_off_c, 6, 51, 64
12, 79022, Note_off_c, 6, 58, 64
12, 79200, Note_on_c, 6, 62, 48
12, 79200, Note_on_c, 6, 55, 41
12, 79396, Note_off_c, 6, 62, 64
12, 79402, Note_off_c, 6, 55, 64
12, 79440, Note_on_c, 6, 62, 79
12, 79440, Note_on_c, 6, 55, 57
12, 79482, Note_off_c, 6, 55, 64
12, 79482, Note_off_c, 6, 62, 64
12, 79680, Note_on_c, 6, 55, 51
12, 79680, Note_on_c, 6, 48, 30
12, 79920, Note_off_c, 6, 48, 64
12, 79920, Note_off_c, 6, 55, 64
12, 79920, Note_on_c, 6, 58, 65
12, 79920, Note_on_c, 6, 51, 46
12, 79970, Note_off_c, 6, 51, 64
12, 79970, Note_off_c, 6, 58, 64
12, 80160, Note_on_c, 6, 58, 48
12, 80160, Note_on_c, 6, 51, 41
12, 80356, Note_off_c, 6, 58, 64
12, 80362, Note_off_c, 6, 51, 64
12, 80400, Note_on_c, 6, 58, 79
12, 80400, Note_on_c, 6, 51, 57
12, 80442, Note_off_c, 6, 51, 64
12, 80442, Note_off_c, 6, 58, 64
12, 80880, Note_on_c, 6, 55, 73
12, 80880, Note_on_c, 6, 49, 47
12, 80938, Note_off_c, 6, 49, 64
12, 80938, Note_off_c, 6, 55, 64
12, 81360, Note_on_c, 6, 55, 70
12, 81360, Note_on_c, 6, 49, 52
12, 81422, Note_off_c, 6, 55, 64
12, 81430, Note_off_c, 6, 49, 64
12, 81600, Note_on_c, 6, 58, 54
12, 81600, Note_on_c, 6, 52, 39
12, 81718, Note_off_c, 6, 58, 64
12, 81734, Note_off_c, 6, 52, 64
12, 81840, Note_on_c, 6, 58, 78
12, 81840, Note_on_c, 6, 52, 51
12, 81904, Note_off_c, 6, 58, 64
12, 81916, Note_off_c, 6, 52, 64
12, 82080, Note_on_c, 6, 58, 33
12, 82170, Note_off_c, 6, 58, 64
12, 82320, Note_on_c, 6, 58, 80
12, 82320, Note_on_c, 6, 52, 65
12, 82388, Note_off_c, 6, 58, 64
12, 82398, Note_off_c, 6, 52, 64
12, 82560, Note_on_c, 6, 53, 52
12, 82560, Note_on_c, 6, 60, 64
12, 82786, Note_off_c, 6, 60, 64
12, 82798, Note_off_c, 6, 53, 64
12, 82800, Note_on_c, 6, 60, 63
12, 82800, Note_on_c, 6, 53, 46
12, 82846, Note_off_c, 6, 53, 64
12, 82862, Note_off_c, 6, 60, 64
12, 83040, Note_on_c, 6, 59, 54
12, 83040, Note_on_c, 6, 52, 39
12, 83158, Note_off_c, 6, 59, 64
12, 83174, Note_off_c, 6, 52, 64
12, 83280, Note_on_c, 6, 59, 78
12, 83280, Note_on_c, 6, 52, 51
12, 83344, Note_off_c, 6, 59, 64
12, 83356, Note_off_c, 6, 52, 64
12, 83520, Note_on_c, 6, 56, 48
12, 83520, Note_on_c, 6, 51, 41
12, 83756, Note_off_c, 6, 56, 64
12, 83760, Note_off_c, 6, 51, 64
12, 83760, Note_on_c, 6, 56, 79
12, 83760, Note_on_c, 6, 51, 57
12, 83842, Note_off_c, 6, 51, 64
12, 83842, Note_off_c, 6, 56, 64
12, 84000, Note_on_c, 6, 56, 30
12, 84000, Note_on_c, 6, 51, 25
12, 84224, Note_off_c, 6, 51, 64
12, 84224, Note_off_c, 6, 56, 64
12, 84240, Note_on_c, 6, 56, 86
12, 84240, Note_on_c, 6, 51, 52
12, 84334, Note_off_c, 6, 51, 64
12, 84334, Note_off_c, 6, 56, 64
12, 84720, Note_on_c, 6, 59, 73
12, 84720, Note_on_c, 6, 53, 47
12, 84778, Note_off_c, 6, 53, 64
12, 84778, Note_off_c, 6, 59, 64
12, 85200, Note_on_c, 6, 59, 70
12, 85200, Note_on_c, 6, 53, 52
12, 85262, Note_off_c, 6, 59, 64
12, 85270, Note_off_c, 6, 53, 64
12, 85440, Note_on_c, 6, 59, 48
12, 85440, Note_on_c, 6, 53, 41
12, 85676, Note_off_c, 6, 59, 64
12, 85680, Note_off_c, 6, 53, 64
12, 85680, Note_on_c, 6, 59, 79
12, 85680, Note_on_c, 6, 53, 57
12, 85762, Note_off_c, 6, 53, 64
12, 85762, Note_off_c, 6, 59, 64
12, 85920, Note_on_c, 6, 59, 30
12, 85920, Note_on_c, 6, 53, 25
12, 86144, Note_off_c, 6, 53, 64
12, 86144, Note_off_c, 6, 59, 64
12, 86160, Note_on_c, 6, 59, 86
12, 86160, Note_on_c, 6, 53, 52
12, 86254, Note_off_c, 6, 53, 64
12, 86254, Note_off_c, 6, 59, 64
12, 86400, Note_on_c, 6, 58, 48
12, 86400, Note_on_c, 6, 52, 41
12, 86596, Note_off_c, 6, 58, 64
12, 86602, Note_off_c, 6, 52, 64
12, 86640, Note_on_c, 6, 58, 79
12, 86640, Note_on_c, 6, 52, 57
12, 86682, Note_off_c, 6, 52, 64
12, 86682, Note_off_c, 6, 58, 64
12, 86880, Note_on_c, 6, 58, 48
12, 86880, Note_on_c, 6, 52, 41
12, 87076, Note_off_c, 6, 58, 64
12, 87082, Note_off_c, 6, 52, 64
12, 87120, Note_on_c, 6, 58, 79
12, 87120, Note_on_c, 6, 52, 57
12, 87162, Note_off_c, 6, 52, 64
12, 87162, Note_off_c, 6, 58, 64
12, 87360, Note_on_c, 6, 49, 52
12, 87360, Note_on_c, 6, 55, 64
12, 87586, Note_off_c, 6, 55, 64
12, 87598, Note_off_c, 6, 49, 64
12, 87600, Note_on_c, 6, 55, 63
12, 87600, Note_on_c, 6, 49, 46
12, 87646, Note_off_c, 6, 49, 64
12, 87662, Note_off_c, 6, 55, 64
12, 87840, Note_on_c, 6, 52, 52
12, 87840, Note_on_c, 6, 58, 64
12, 88066, Note_off_c, 6, 58, 64
12, 88078, Note_off_c, 6, 52, 64
12, 88080, Note_on_c, 6, 58, 63
12, 88080, Note_on_c, 6, 52, 46
12, 88126, Note_off_c, 6, 52, 64
12, 88142, Note_off_c, 6, 58, 64
12, 88320, Note_on_c, 6, 56, 48
12, 88320, Note_on_c, 6, 51, 41
12, 88556, Note_off_c, 6, 56, 64
12, 88560, Note_off_c, 6, 51, 64
12, 88560, Note_on_c, 6, 56, 79
12, 88560, Note_on_c, 6, 51, 57
12, 88642, Note_off_c, 6, 51, 64
12, 88642, Note_off_c, 6, 56, 64
12, 88800, Note_on_c, 6, 56, 30
12, 88800, Note_on_c, 6, 51, 25
12, 89024, Note_off_c, 6, 51, 64
12, 89024, Note_off_c, 6, 56, 64
12, 89040, Note_on_c, 6, 56, 86
12, 89040, Note_on_c, 6, 51, 52
12, 89134, Note_off_c, 6, 51, 64
12, 89134, Note_off_c, 6, 56, 64
12, 89280, Note_on_c, 6, 59, 48
12, 89280, Note_on_c, 6, 53, 41
12, 89516, Note_off_c, 6, 59, 64
12, 89520, Note_off_c, 6, 53, 64
12, 89520, Note_on_c, 6, 59, 79
12, 89520, Note_on_c, 6, 53, 57
12, 89602, Note_off_c, 6, 53, 64
12, 89602, Note_off_c, 6, 59, 64
12, 89760, Note_on_c, 6, 59, 30
12, 89760, Note_on_c, 6, 53, 25
12, 89984, Note_off_c, 6, 53, 64
12, 89984, Note_off_c, 6, 59, 64
12, 90000, Note_on_c, 6, 59, 86
12, 90000, Note_on_c, 6, 53, 52
12, 90094, Note_off_c, 6, 53, 64
12, 90094, Note_off_c, 6, 59, 64
12, 90240, Note_on_c, 6, 60, 54
12, 90240, Note_on_c, 6, 51, 39
12, 90358, Note_off_c, 6, 60, 64
12, 90374, Note_off_c, 6, 51, 64
12, 90480, Note_on_c, 6, 60, 78
12, 90480, Note_on_c, 6, 51, 51
12, 90544, Note_off_c, 6, 60, 64
12, 90556, Note_off_c, 6, 51, 64
12, 90720, Note_on_c, 6, 60, 33
12, 90810, Note_off_c, 6, 60, 64
12, 90960, Note_on_c, 6, 60, 80
12, 90960, Note_on_c, 6, 51, 65
12, 91028, Note_off_c, 6, 60, 64
12, 91038, Note_off_c, 6, 51, 64
12, 91200, Note_on_c, 6, 51, 48
12, 91200, Note_on_c, 6, 57, 60
12, 91406, Note_off_c, 6, 57, 64
12, 91418, Note_off_c, 6, 51, 64
12, 91440, Note_on_c, 6, 57, 59
12, 91440, Note_on_c, 6, 51, 42
12, 91466, Note_off_c, 6, 51, 64
12, 91482, Note_off_c, 6, 57, 64
12, 91680, Note_on_c, 6, 51, 26
12, 91680, Note_on_c, 6, 57, 39
12, 91894, Note_off_c, 6, 57, 64
12, 91894, Note_off_c, 6, 51, 64
12, 91920, Note_on_c, 6, 57, 62
12, 91920, Note_on_c, 6, 51, 28
12, 91960, Note_off_c, 6, 51, 64
12, 91960, Note_off_c, 6, 57, 64
12, 92160, Note_on_c, 6, 51, 52
12, 92160, Note_on_c, 6, 57, 64
12, 92386, Note_off_c, 6, 57, 64
12, 92398, Note_off_c, 6, 51, 64
12, 92400, Note_on_c, 6, 57, 63
12, 92400, Note_on_c, 6, 51, 46
12, 92446, Note_off_c, 6, 51, 64
12, 92462, Note_off_c, 6, 57, 64
12, 92640, Note_on_c, 6, 50, 52
12, 92640, Note_on_c, 6, 56, 64
12, 92866, Note_off_c, 6, 56, 64
12, 92878, Note_off_c, 6, 50, 64
12, 92880, Note_on_c, 6, 56, 63
12, 92880, Note_on_c, 6, 50, 46
12, 92926, Note_off_c, 6, 50, 64
12, 92942, Note_off_c, 6, 56, 64
12, 93120, Note_on_c, 6, 58, 48
12, 93120, Note_on_c, 6, 51, 41
12, 93356, Note_off_c, 6, 58, 64
12, 93360, Note_off_c, 6, 51, 64
12, 93360, Note_on_c, 6, 58, 79
12, 93360, Note_on_c, 6, 51, 57
12, 93442, Note_off_c, 6, 51, 64
12, 93442, Note_off_c, 6, 58, 64
12, 93600, Note_on_c, 6, 58, 30
12, 93600, Note_on_c, 6, 51, 25
12, 93824, Note_off_c, 6, 51, 64
12, 93824, Note_off_c, 6, 58, 64
12, 93840, Note_on_c, 6, 58, 86
12, 93840, Note_on_c, 6, 51, 52
12, 93934, Note_off_c, 6, 51, 64
12, 93934, Note_off_c, 6, 58, 64
12, 94318, Note_on_c, 6, 63, 75
12, 94328, Note_on_c, 6, 55, 55
12, 94358, Note_off_c, 6, 63, 64
12, 94368, Note_off_c, 6, 55, 64
12, 94798, Note_on_c, 6, 63, 63
12, 94808, Note_on_c, 6, 55, 29
12, 94834, Note_off_c, 6, 63, 64
12, 94838, Note_off_c, 6, 55, 64
12, 95046, Note_on_c, 6, 55, 50
12, 95046, Note_on_c, 6, 63, 71
12, 95098, Note_off_c, 6, 63, 64
12, 95108, Note_off_c, 6, 55, 64
12, 95460, Note_on_c, 6, 63, 51
12, 95464, Note_on_c, 6, 55, 16
12, 95944, Note_off_c, 6, 63, 64
12, 95954, Note_off_c, 6, 55, 64
12, 96000, Control_c, 6, 64, 0
12, 96000, End_track
13, 0, Start_track
13, 0, Title_t, "Drums / Traps"
13, 0, Control_c, 9, 0, 0
13, 0, Control_c, 9, 32, 0
13, 0, Program_c, 9, 25
13, 0, Control_c, 9, 7, 75
13, 0, Control_c, 9, 10, 64
13, 0, Control_c, 9, 123, 0
13, 0, Control_c, 9, 91, 40
13, 0, Control_c, 9, 93, 0
13, 1920, Note_on_c, 9, 35, 60
13, 1920, Note_on_c, 9, 42, 80
13, 1970, Note_off_c, 9, 42, 64
13, 1970, Note_off_c, 9, 35, 64
13, 2160, Note_on_c, 9, 42, 90
13, 2160, Note_on_c, 9, 37, 70
13, 2210, Note_off_c, 9, 37, 64
13, 2210, Note_off_c, 9, 42, 64
13, 2332, Note_on_c, 9, 42, 40
13, 2382, Note_off_c, 9, 42, 64
13, 2400, Note_on_c, 9, 35, 60
13, 2400, Note_on_c, 9, 42, 80
13, 2450, Note_off_c, 9, 42, 64
13, 2450, Note_off_c, 9, 35, 64
13, 2640, Note_on_c, 9, 42, 90
13, 2640, Note_on_c, 9, 37, 85
13, 2690, Note_off_c, 9, 37, 64
13, 2690, Note_off_c, 9, 42, 64
13, 2812, Note_on_c, 9, 42, 50
13, 2862, Note_off_c, 9, 42, 64
13, 2880, Note_on_c, 9, 35, 60
13, 2880, Note_on_c, 9, 42, 70
13, 2930, Note_off_c, 9, 42, 64
13, 2930, Note_off_c, 9, 35, 64
13, 3120, Note_on_c, 9, 42, 90
13, 3120, Note_on_c, 9, 37, 70
13, 3170, Note_off_c, 9, 37, 64
13, 3170, Note_off_c, 9, 42, 64
13, 3296, Note_on_c, 9, 42, 40
13, 3346, Note_off_c, 9, 42, 64
13, 3360, Note_on_c, 9, 35, 60
13, 3360, Note_on_c, 9, 42, 80
13, 3410, Note_off_c, 9, 42, 64
13, 3410, Note_off_c, 9, 35, 64
13, 3600, Note_on_c, 9, 42, 90
13, 3600, Note_on_c, 9, 37, 80
13, 3650, Note_off_c, 9, 37, 64
13, 3650, Note_off_c, 9, 42, 64
13, 3776, Note_on_c, 9, 42, 50
13, 3826, Note_off_c, 9, 42, 64
13, 3840, Note_on_c, 9, 35, 60
13, 3840, Note_on_c, 9, 42, 70
13, 3890, Note_off_c, 9, 42, 64
13, 3890, Note_off_c, 9, 35, 64
13, 4080, Note_on_c, 9, 42, 90
13, 4080, Note_on_c, 9, 37, 80
13, 4130, Note_off_c, 9, 37, 64
13, 4130, Note_off_c, 9, 42, 64
13, 4252, Note_on_c, 9, 42, 40
13, 4302, Note_off_c, 9, 42, 64
13, 4320, Note_on_c, 9, 35, 60
13, 4320, Note_on_c, 9, 42, 70
13, 4370, Note_off_c, 9, 42, 64
13, 4370, Note_off_c, 9, 35, 64
13, 4560, Note_on_c, 9, 42, 90
13, 4560, Note_on_c, 9, 37, 78
13, 4610, Note_off_c, 9, 37, 64
13, 4610, Note_off_c, 9, 42, 64
13, 4732, Note_on_c, 9, 42, 50
13, 4782, Note_off_c, 9, 42, 64
13, 4800, Note_on_c, 9, 42, 80
13, 4850, Note_off_c, 9, 42, 64
13, 5040, Note_on_c, 9, 42, 90
13, 5040, Note_on_c, 9, 37, 70
13, 5090, Note_off_c, 9, 37, 64
13, 5090, Note_off_c, 9, 42, 64
13, 5214, Note_on_c, 9, 42, 40
13, 5264, Note_off_c, 9, 42, 64
13, 5280, Note_on_c, 9, 35, 60
13, 5280, Note_on_c, 9, 42, 80
13, 5330, Note_off_c, 9, 42, 64
13, 5330, Note_off_c, 9, 35, 64
13, 5454, Note_on_c, 9, 37, 90
13, 5504, Note_off_c, 9, 37, 64
13, 5520, Note_on_c, 9, 42, 90
13, 5570, Note_off_c, 9, 42, 64
13, 5694, Note_on_c, 9, 42, 50
13, 5744, Note_off_c, 9, 42, 64
13, 5760, Note_on_c, 9, 35, 60
13, 5760, Note_on_c, 9, 46, 54
13, 5810, Note_off_c, 9, 46, 64
13, 5810, Note_off_c, 9, 35, 64
13, 6000, Note_on_c, 9, 42, 70
13, 6000, Note_on_c, 9, 37, 80
13, 6050, Note_off_c, 9, 37, 64
13, 6050, Note_off_c, 9, 42, 64
13, 6172, Note_on_c, 9, 42, 40
13, 6222, Note_off_c, 9, 42, 64
13, 6240, Note_on_c, 9, 35, 60
13, 6240, Note_on_c, 9, 42, 80
13, 6290, Note_off_c, 9, 42, 64
13, 6290, Note_off_c, 9, 35, 64
13, 6480, Note_on_c, 9, 35, 60
13, 6480, Note_on_c, 9, 42, 80
13, 6530, Note_off_c, 9, 42, 64
13, 6530, Note_off_c, 9, 35, 64
13, 6652, Note_on_c, 9, 42, 50
13, 6702, Note_off_c, 9, 42, 64
13, 6720, Note_on_c, 9, 35, 60
13, 6720, Note_on_c, 9, 42, 70
13, 6770, Note_off_c, 9, 42, 64
13, 6770, Note_off_c, 9, 35, 64
13, 6960, Note_on_c, 9, 42, 90
13, 6960, Note_on_c, 9, 37, 70
13, 7010, Note_off_c, 9, 37, 64
13, 7010, Note_off_c, 9, 42, 64
13, 7136, Note_on_c, 9, 42, 40
13, 7186, Note_off_c, 9, 42, 64
13, 7200, Note_on_c, 9, 35, 60
13, 7200, Note_on_c, 9, 42, 80
13, 7250, Note_off_c, 9, 42, 64
13, 7250, Note_off_c, 9, 35, 64
13, 7440, Note_on_c, 9, 42, 90
13, 7440, Note_on_c, 9, 37, 80
13, 7490, Note_off_c, 9, 37, 64
13, 7490, Note_off_c, 9, 42, 64
13, 7616, Note_on_c, 9, 42, 50
13, 7666, Note_off_c, 9, 42, 64
13, 7680, Note_on_c, 9, 35, 60
13, 7680, Note_on_c, 9, 42, 70
13, 7730, Note_off_c, 9, 42, 64
13, 7730, Note_off_c, 9, 35, 64
13, 7920, Note_on_c, 9, 42, 90
13, 7920, Note_on_c, 9, 37, 70
13, 7970, Note_off_c, 9, 37, 64
13, 7970, Note_off_c, 9, 42, 64
13, 8096, Note_on_c, 9, 42, 40
13, 8146, Note_off_c, 9, 42, 64
13, 8160, Note_on_c, 9, 35, 60
13, 8160, Note_on_c, 9, 42, 80
13, 8210, Note_off_c, 9, 42, 64
13, 8210, Note_off_c, 9, 35, 64
13, 8400, Note_on_c, 9, 42, 90
13, 8400, Note_on_c, 9, 37, 80
13, 8450, Note_off_c, 9, 37, 64
13, 8450, Note_off_c, 9, 42, 64
13, 8576, Note_on_c, 9, 42, 50
13, 8626, Note_off_c, 9, 42, 64
13, 8640, Note_on_c, 9, 35, 60
13, 8640, Note_on_c, 9, 42, 70
13, 8690, Note_off_c, 9, 42, 64
13, 8690, Note_off_c, 9, 35, 64
13, 8880, Note_on_c, 9, 42, 90
13, 8880, Note_on_c, 9, 37, 70
13, 8930, Note_off_c, 9, 37, 64
13, 8930, Note_off_c, 9, 42, 64
13, 9056, Note_on_c, 9, 42, 40
13, 9106, Note_off_c, 9, 42, 64
13, 9120, Note_on_c, 9, 35, 60
13, 9120, Note_on_c, 9, 42, 80
13, 9170, Note_off_c, 9, 42, 64
13, 9170, Note_off_c, 9, 35, 64
13, 9360, Note_on_c, 9, 42, 90
13, 9360, Note_on_c, 9, 37, 80
13, 9410, Note_off_c, 9, 37, 64
13, 9410, Note_off_c, 9, 42, 64
13, 9536, Note_on_c, 9, 35, 50
13, 9536, Note_on_c, 9, 42, 50
13, 9586, Note_off_c, 9, 42, 64
13, 9586, Note_off_c, 9, 35, 64
13, 9600, Note_on_c, 9, 35, 60
13, 9600, Note_on_c, 9, 42, 70
13, 9650, Note_off_c, 9, 42, 64
13, 9650, Note_off_c, 9, 35, 64
13, 9840, Note_on_c, 9, 42, 90
13, 9840, Note_on_c, 9, 37, 80
13, 9890, Note_off_c, 9, 37, 64
13, 9890, Note_off_c, 9, 42, 64
13, 10012, Note_on_c, 9, 42, 40
13, 10062, Note_off_c, 9, 42, 64
13, 10080, Note_on_c, 9, 35, 60
13, 10080, Note_on_c, 9, 42, 70
13, 10130, Note_off_c, 9, 42, 64
13, 10130, Note_off_c, 9, 35, 64
13, 10320, Note_on_c, 9, 42, 90
13, 10320, Note_on_c, 9, 37, 78
13, 10370, Note_off_c, 9, 37, 64
13, 10370, Note_off_c, 9, 42, 64
13, 10492, Note_on_c, 9, 42, 50
13, 10542, Note_off_c, 9, 42, 64
13, 10560, Note_on_c, 9, 35, 60
13, 10560, Note_on_c, 9, 42, 70
13, 10610, Note_off_c, 9, 42, 64
13, 10610, Note_off_c, 9, 35, 64
13, 10800, Note_on_c, 9, 42, 90
13, 10800, Note_on_c, 9, 37, 70
13, 10850, Note_off_c, 9, 37, 64
13, 10850, Note_off_c, 9, 42, 64
13, 10976, Note_on_c, 9, 42, 40
13, 11026, Note_off_c, 9, 42, 64
13, 11040, Note_on_c, 9, 35, 60
13, 11040, Note_on_c, 9, 42, 80
13, 11090, Note_off_c, 9, 42, 64
13, 11090, Note_off_c, 9, 35, 64
13, 11280, Note_on_c, 9, 42, 90
13, 11280, Note_on_c, 9, 37, 80
13, 11330, Note_off_c, 9, 37, 64
13, 11330, Note_off_c, 9, 42, 64
13, 11456, Note_on_c, 9, 42, 50
13, 11506, Note_off_c, 9, 42, 64
13, 11520, Note_on_c, 9, 35, 60
13, 11520, Note_on_c, 9, 42, 70
13, 11570, Note_off_c, 9, 42, 64
13, 11570, Note_off_c, 9, 35, 64
13, 11760, Note_on_c, 9, 42, 90
13, 11760, Note_on_c, 9, 37, 70
13, 11810, Note_off_c, 9, 37, 64
13, 11810, Note_off_c, 9, 42, 64
13, 11936, Note_on_c, 9, 42, 40
13, 11986, Note_off_c, 9, 42, 64
13, 12000, Note_on_c, 9, 35, 60
13, 12000, Note_on_c, 9, 42, 80
13, 12050, Note_off_c, 9, 42, 64
13, 12050, Note_off_c, 9, 35, 64
13, 12240, Note_on_c, 9, 42, 90
13, 12240, Note_on_c, 9, 37, 80
13, 12290, Note_off_c, 9, 37, 64
13, 12290, Note_off_c, 9, 42, 64
13, 12416, Note_on_c, 9, 42, 50
13, 12466, Note_off_c, 9, 42, 64
13, 12480, Note_on_c, 9, 35, 50
13, 12480, Note_on_c, 9, 42, 70
13, 12530, Note_off_c, 9, 42, 64
13, 12530, Note_off_c, 9, 35, 64
13, 12720, Note_on_c, 9, 42, 80
13, 12720, Note_on_c, 9, 37, 60
13, 12770, Note_off_c, 9, 37, 64
13, 12770, Note_off_c, 9, 42, 64
13, 12896, Note_on_c, 9, 42, 40
13, 12946, Note_off_c, 9, 42, 64
13, 12960, Note_on_c, 9, 35, 60
13, 12960, Note_on_c, 9, 42, 70
13, 13010, Note_off_c, 9, 42, 64
13, 13010, Note_off_c, 9, 35, 64
13, 13136, Note_on_c, 9, 38, 60
13, 13186, Note_off_c, 9, 38, 64
13, 13200, Note_on_c, 9, 35, 80
13, 13200, Note_on_c, 9, 42, 80
13, 13200, Note_on_c, 9, 37, 80
13, 13250, Note_off_c, 9, 37, 64
13, 13250, Note_off_c, 9, 42, 64
13, 13250, Note_off_c, 9, 35, 64
13, 13376, Note_on_c, 9, 42, 40
13, 13426, Note_off_c, 9, 42, 64
13, 13440, Note_on_c, 9, 35, 60
13, 13440, Note_on_c, 9, 42, 80
13, 13490, Note_off_c, 9, 42, 64
13, 13490, Note_off_c, 9, 35, 64
13, 13680, Note_on_c, 9, 42, 90
13, 13680, Note_on_c, 9, 37, 70
13, 13730, Note_off_c, 9, 37, 64
13, 13730, Note_off_c, 9, 42, 64
13, 13854, Note_on_c, 9, 42, 40
13, 13904, Note_off_c, 9, 42, 64
13, 13920, Note_on_c, 9, 35, 60
13, 13920, Note_on_c, 9, 42, 80
13, 13970, Note_off_c, 9, 42, 64
13, 13970, Note_off_c, 9, 35, 64
13, 14160, Note_on_c, 9, 42, 90
13, 14160, Note_on_c, 9, 37, 85
13, 14210, Note_off_c, 9, 37, 64
13, 14210, Note_off_c, 9, 42, 64
13, 14334, Note_on_c, 9, 42, 50
13, 14384, Note_off_c, 9, 42, 64
13, 14400, Note_on_c, 9, 35, 60
13, 14400, Note_on_c, 9, 42, 70
13, 14450, Note_off_c, 9, 42, 64
13, 14450, Note_off_c, 9, 35, 64
13, 14640, Note_on_c, 9, 42, 90
13, 14640, Note_on_c, 9, 37, 70
13, 14690, Note_off_c, 9, 37, 64
13, 14690, Note_off_c, 9, 42, 64
13, 14816, Note_on_c, 9, 42, 40
13, 14866, Note_off_c, 9, 42, 64
13, 14880, Note_on_c, 9, 35, 60
13, 14880, Note_on_c, 9, 42, 80
13, 14930, Note_off_c, 9, 42, 64
13, 14930, Note_off_c, 9, 35, 64
13, 15120, Note_on_c, 9, 42, 90
13, 15120, Note_on_c, 9, 37, 80
13, 15170, Note_off_c, 9, 37, 64
13, 15170, Note_off_c, 9, 42, 64
13, 15296, Note_on_c, 9, 42, 50
13, 15346, Note_off_c, 9, 42, 64
13, 15360, Note_on_c, 9, 35, 60
13, 15360, Note_on_c, 9, 42, 70
13, 15410, Note_off_c, 9, 42, 64
13, 15410, Note_off_c, 9, 35, 64
13, 15600, Note_on_c, 9, 42, 90
13, 15600, Note_on_c, 9, 37, 70
13, 15650, Note_off_c, 9, 37, 64
13, 15650, Note_off_c, 9, 42, 64
13, 15776, Note_on_c, 9, 42, 40
13, 15826, Note_off_c, 9, 42, 64
13, 15840, Note_on_c, 9, 35, 60
13, 15840, Note_on_c, 9, 42, 80
13, 15890, Note_off_c, 9, 42, 64
13, 15890, Note_off_c, 9, 35, 64
13, 16080, Note_on_c, 9, 42, 90
13, 16080, Note_on_c, 9, 37, 80
13, 16130, Note_off_c, 9, 37, 64
13, 16130, Note_off_c, 9, 42, 64
13, 16256, Note_on_c, 9, 42, 50
13, 16306, Note_off_c, 9, 42, 64
13, 16320, Note_on_c, 9, 38, 50
13, 16320, Note_on_c, 9, 42, 70
13, 16370, Note_off_c, 9, 42, 64
13, 16370, Note_off_c, 9, 38, 64
13, 16488, Note_on_c, 9, 35, 70
13, 16538, Note_off_c, 9, 35, 64
13, 16560, Note_on_c, 9, 42, 80
13, 16610, Note_off_c, 9, 42, 64
13, 16728, Note_on_c, 9, 38, 50
13, 16778, Note_off_c, 9, 38, 64
13, 16800, Note_on_c, 9, 35, 60
13, 16800, Note_on_c, 9, 42, 70
13, 16850, Note_off_c, 9, 42, 64
13, 16850, Note_off_c, 9, 35, 64
13, 16968, Note_on_c, 9, 38, 30
13, 17018, Note_off_c, 9, 38, 64
13, 17040, Note_on_c, 9, 38, 50
13, 17040, Note_on_c, 9, 42, 100
13, 17090, Note_off_c, 9, 42, 64
13, 17090, Note_off_c, 9, 38, 64
13, 17120, Note_on_c, 9, 38, 25
13, 17170, Note_off_c, 9, 38, 64
13, 17208, Note_on_c, 9, 38, 40
13, 17258, Note_off_c, 9, 38, 64
13, 17280, Note_on_c, 9, 38, 50
13, 17330, Note_off_c, 9, 38, 64
13, 17520, Note_on_c, 9, 42, 80
13, 17520, Note_on_c, 9, 37, 70
13, 17520, Note_on_c, 9, 51, 90
13, 17570, Note_off_c, 9, 51, 64
13, 17570, Note_off_c, 9, 37, 64
13, 17570, Note_off_c, 9, 42, 64
13, 17694, Note_on_c, 9, 51, 70
13, 17744, Note_off_c, 9, 51, 64
13, 17760, Note_on_c, 9, 38, 40
13, 17760, Note_on_c, 9, 51, 70
13, 17810, Note_off_c, 9, 51, 64
13, 17810, Note_off_c, 9, 38, 64
13, 18000, Note_on_c, 9, 42, 100
13, 18000, Note_on_c, 9, 37, 70
13, 18000, Note_on_c, 9, 51, 90
13, 18050, Note_off_c, 9, 51, 64
13, 18050, Note_off_c, 9, 37, 64
13, 18050, Note_off_c, 9, 42, 64
13, 18174, Note_on_c, 9, 51, 70
13, 18224, Note_off_c, 9, 51, 64
13, 18240, Note_on_c, 9, 51, 80
13, 18290, Note_off_c, 9, 51, 64
13, 18480, Note_on_c, 9, 42, 70
13, 18480, Note_on_c, 9, 37, 70
13, 18480, Note_on_c, 9, 51, 90
13, 18530, Note_off_c, 9, 51, 64
13, 18530, Note_off_c, 9, 37, 64
13, 18530, Note_off_c, 9, 42, 64
13, 18654, Note_on_c, 9, 51, 70
13, 18704, Note_off_c, 9, 51, 64
13, 18720, Note_on_c, 9, 51, 90
13, 18770, Note_off_c, 9, 51, 64
13, 18960, Note_on_c, 9, 42, 100
13, 18960, Note_on_c, 9, 51, 90
13, 19010, Note_off_c, 9, 51, 64
13, 19010, Note_off_c, 9, 42, 64
13, 19134, Note_on_c, 9, 51, 70
13, 19184, Note_off_c, 9, 51, 64
13, 19200, Note_on_c, 9, 51, 70
13, 19250, Note_off_c, 9, 51, 64
13, 19440, Note_on_c, 9, 42, 100
13, 19440, Note_on_c, 9, 37, 70
13, 19440, Note_on_c, 9, 51, 90
13, 19490, Note_off_c, 9, 51, 64
13, 19490, Note_off_c, 9, 37, 64
13, 19490, Note_off_c, 9, 42, 64
13, 19614, Note_on_c, 9, 38, 40
13, 19614, Note_on_c, 9, 51, 50
13, 19664, Note_off_c, 9, 51, 64
13, 19664, Note_off_c, 9, 38, 64
13, 19680, Note_on_c, 9, 51, 80
13, 19730, Note_off_c, 9, 51, 64
13, 19920, Note_on_c, 9, 42, 100
13, 19920, Note_on_c, 9, 37, 70
13, 19920, Note_on_c, 9, 51, 90
13, 19970, Note_off_c, 9, 51, 64
13, 19970, Note_off_c, 9, 37, 64
13, 19970, Note_off_c, 9, 42, 64
13, 20094, Note_on_c, 9, 38, 40
13, 20094, Note_on_c, 9, 51, 50
13, 20144, Note_off_c, 9, 51, 64
13, 20144, Note_off_c, 9, 38, 64
13, 20160, Note_on_c, 9, 51, 70
13, 20210, Note_off_c, 9, 51, 64
13, 20400, Note_on_c, 9, 42, 80
13, 20400, Note_on_c, 9, 37, 70
13, 20400, Note_on_c, 9, 51, 90
13, 20450, Note_off_c, 9, 51, 64
13, 20450, Note_off_c, 9, 37, 64
13, 20450, Note_off_c, 9, 42, 64
13, 20574, Note_on_c, 9, 51, 70
13, 20624, Note_off_c, 9, 51, 64
13, 20640, Note_on_c, 9, 51, 80
13, 20690, Note_off_c, 9, 51, 64
13, 20880, Note_on_c, 9, 42, 100
13, 20880, Note_on_c, 9, 37, 80
13, 20880, Note_on_c, 9, 51, 90
13, 20930, Note_off_c, 9, 51, 64
13, 20930, Note_off_c, 9, 37, 64
13, 20930, Note_off_c, 9, 42, 64
13, 21054, Note_on_c, 9, 51, 70
13, 21104, Note_off_c, 9, 51, 64
13, 21120, Note_on_c, 9, 51, 70
13, 21170, Note_off_c, 9, 51, 64
13, 21360, Note_on_c, 9, 42, 100
13, 21360, Note_on_c, 9, 37, 70
13, 21360, Note_on_c, 9, 51, 90
13, 21410, Note_off_c, 9, 51, 64
13, 21410, Note_off_c, 9, 37, 64
13, 21410, Note_off_c, 9, 42, 64
13, 21534, Note_on_c, 9, 38, 40
13, 21534, Note_on_c, 9, 51, 50
13, 21584, Note_off_c, 9, 51, 64
13, 21584, Note_off_c, 9, 38, 64
13, 21600, Note_on_c, 9, 51, 80
13, 21650, Note_off_c, 9, 51, 64
13, 21840, Note_on_c, 9, 42, 100
13, 21840, Note_on_c, 9, 37, 70
13, 21840, Note_on_c, 9, 51, 90
13, 21890, Note_off_c, 9, 51, 64
13, 21890, Note_off_c, 9, 37, 64
13, 21890, Note_off_c, 9, 42, 64
13, 22014, Note_on_c, 9, 38, 40
13, 22014, Note_on_c, 9, 51, 50
13, 22064, Note_off_c, 9, 51, 64
13, 22064, Note_off_c, 9, 38, 64
13, 22080, Note_on_c, 9, 51, 80
13, 22130, Note_off_c, 9, 51, 64
13, 22320, Note_on_c, 9, 42, 80
13, 22320, Note_on_c, 9, 37, 70
13, 22320, Note_on_c, 9, 51, 90
13, 22370, Note_off_c, 9, 51, 64
13, 22370, Note_off_c, 9, 37, 64
13, 22370, Note_off_c, 9, 42, 64
13, 22496, Note_on_c, 9, 51, 70
13, 22546, Note_off_c, 9, 51, 64
13, 22560, Note_on_c, 9, 38, 40
13, 22560, Note_on_c, 9, 51, 80
13, 22610, Note_off_c, 9, 51, 64
13, 22610, Note_off_c, 9, 38, 64
13, 22736, Note_on_c, 9, 38, 40
13, 22786, Note_off_c, 9, 38, 64
13, 22800, Note_on_c, 9, 42, 100
13, 22800, Note_on_c, 9, 37, 70
13, 22800, Note_on_c, 9, 51, 90
13, 22850, Note_off_c, 9, 51, 64
13, 22850, Note_off_c, 9, 37, 64
13, 22850, Note_off_c, 9, 42, 64
13, 22976, Note_on_c, 9, 51, 70
13, 23026, Note_off_c, 9, 51, 64
13, 23040, Note_on_c, 9, 51, 70
13, 23090, Note_off_c, 9, 51, 64
13, 23280, Note_on_c, 9, 42, 90
13, 23280, Note_on_c, 9, 37, 60
13, 23280, Note_on_c, 9, 51, 90
13, 23330, Note_off_c, 9, 51, 64
13, 23330, Note_off_c, 9, 37, 64
13, 23330, Note_off_c, 9, 42, 64
13, 23456, Note_on_c, 9, 38, 40
13, 23456, Note_on_c, 9, 51, 70
13, 23506, Note_off_c, 9, 51, 64
13, 23506, Note_off_c, 9, 38, 64
13, 23520, Note_on_c, 9, 51, 80
13, 23570, Note_off_c, 9, 51, 64
13, 23760, Note_on_c, 9, 42, 100
13, 23760, Note_on_c, 9, 37, 70
13, 23760, Note_on_c, 9, 51, 90
13, 23810, Note_off_c, 9, 51, 64
13, 23810, Note_off_c, 9, 37, 64
13, 23810, Note_off_c, 9, 42, 64
13, 23936, Note_on_c, 9, 51, 70
13, 23986, Note_off_c, 9, 51, 64
13, 24000, Note_on_c, 9, 51, 80
13, 24050, Note_off_c, 9, 51, 64
13, 24240, Note_on_c, 9, 42, 80
13, 24240, Note_on_c, 9, 37, 70
13, 24240, Note_on_c, 9, 51, 90
13, 24290, Note_off_c, 9, 51, 64
13, 24290, Note_off_c, 9, 37, 64
13, 24290, Note_off_c, 9, 42, 64
13, 24412, Note_on_c, 9, 35, 70
13, 24412, Note_on_c, 9, 51, 70
13, 24462, Note_off_c, 9, 51, 64
13, 24462, Note_off_c, 9, 35, 64
13, 24480, Note_on_c, 9, 51, 80
13, 24530, Note_off_c, 9, 51, 64
13, 24652, Note_on_c, 9, 38, 60
13, 24702, Note_off_c, 9, 38, 64
13, 24720, Note_on_c, 9, 42, 100
13, 24720, Note_on_c, 9, 37, 80
13, 24720, Note_on_c, 9, 51, 90
13, 24770, Note_off_c, 9, 51, 64
13, 24770, Note_off_c, 9, 37, 64
13, 24770, Note_off_c, 9, 42, 64
13, 24892, Note_on_c, 9, 38, 50
13, 24892, Note_on_c, 9, 51, 70
13, 24942, Note_off_c, 9, 51, 64
13, 24942, Note_off_c, 9, 38, 64
13, 24960, Note_on_c, 9, 51, 70
13, 25010, Note_off_c, 9, 51, 64
13, 25200, Note_on_c, 9, 42, 100
13, 25200, Note_on_c, 9, 37, 70
13, 25200, Note_on_c, 9, 51, 90
13, 25250, Note_off_c, 9, 51, 64
13, 25250, Note_off_c, 9, 37, 64
13, 25250, Note_off_c, 9, 42, 64
13, 25374, Note_on_c, 9, 38, 40
13, 25374, Note_on_c, 9, 51, 50
13, 25424, Note_off_c, 9, 51, 64
13, 25424, Note_off_c, 9, 38, 64
13, 25440, Note_on_c, 9, 51, 80
13, 25490, Note_off_c, 9, 51, 64
13, 25680, Note_on_c, 9, 42, 100
13, 25680, Note_on_c, 9, 37, 70
13, 25680, Note_on_c, 9, 51, 90
13, 25730, Note_off_c, 9, 51, 64
13, 25730, Note_off_c, 9, 37, 64
13, 25730, Note_off_c, 9, 42, 64
13, 25854, Note_on_c, 9, 38, 40
13, 25854, Note_on_c, 9, 51, 50
13, 25904, Note_off_c, 9, 51, 64
13, 25904, Note_off_c, 9, 38, 64
13, 25920, Note_on_c, 9, 51, 80
13, 25970, Note_off_c, 9, 51, 64
13, 26160, Note_on_c, 9, 42, 70
13, 26160, Note_on_c, 9, 37, 70
13, 26160, Note_on_c, 9, 51, 90
13, 26210, Note_off_c, 9, 51, 64
13, 26210, Note_off_c, 9, 37, 64
13, 26210, Note_off_c, 9, 42, 64
13, 26334, Note_on_c, 9, 51, 70
13, 26384, Note_off_c, 9, 51, 64
13, 26400, Note_on_c, 9, 51, 90
13, 26450, Note_off_c, 9, 51, 64
13, 26640, Note_on_c, 9, 42, 100
13, 26640, Note_on_c, 9, 51, 90
13, 26690, Note_off_c, 9, 51, 64
13, 26690, Note_off_c, 9, 42, 64
13, 26814, Note_on_c, 9, 51, 70
13, 26864, Note_off_c, 9, 51, 64
13, 26880, Note_on_c, 9, 51, 70
13, 26930, Note_off_c, 9, 51, 64
13, 27120, Note_on_c, 9, 42, 100
13, 27120, Note_on_c, 9, 37, 70
13, 27120, Note_on_c, 9, 51, 90
13, 27170, Note_off_c, 9, 51, 64
13, 27170, Note_off_c, 9, 37, 64
13, 27170, Note_off_c, 9, 42, 64
13, 27294, Note_on_c, 9, 38, 40
13, 27294, Note_on_c, 9, 51, 50
13, 27344, Note_off_c, 9, 51, 64
13, 27344, Note_off_c, 9, 38, 64
13, 27360, Note_on_c, 9, 51, 80
13, 27410, Note_off_c, 9, 51, 64
13, 27600, Note_on_c, 9, 42, 100
13, 27600, Note_on_c, 9, 37, 70
13, 27600, Note_on_c, 9, 51, 90
13, 27650, Note_off_c, 9, 51, 64
13, 27650, Note_off_c, 9, 37, 64
13, 27650, Note_off_c, 9, 42, 64
13, 27774, Note_on_c, 9, 38, 40
13, 27774, Note_on_c, 9, 51, 50
13, 27824, Note_off_c, 9, 51, 64
13, 27824, Note_off_c, 9, 38, 64
13, 27840, Note_on_c, 9, 51, 80
13, 27890, Note_off_c, 9, 51, 64
13, 28080, Note_on_c, 9, 42, 80
13, 28080, Note_on_c, 9, 37, 70
13, 28080, Note_on_c, 9, 51, 90
13, 28130, Note_off_c, 9, 51, 64
13, 28130, Note_off_c, 9, 37, 64
13, 28130, Note_off_c, 9, 42, 64
13, 28252, Note_on_c, 9, 35, 70
13, 28252, Note_on_c, 9, 51, 70
13, 28302, Note_off_c, 9, 51, 64
13, 28302, Note_off_c, 9, 35, 64
13, 28320, Note_on_c, 9, 51, 80
13, 28370, Note_off_c, 9, 51, 64
13, 28492, Note_on_c, 9, 38, 60
13, 28542, Note_off_c, 9, 38, 64
13, 28560, Note_on_c, 9, 42, 100
13, 28560, Note_on_c, 9, 37, 80
13, 28560, Note_on_c, 9, 51, 90
13, 28610, Note_off_c, 9, 51, 64
13, 28610, Note_off_c, 9, 37, 64
13, 28610, Note_off_c, 9, 42, 64
13, 28732, Note_on_c, 9, 38, 50
13, 28732, Note_on_c, 9, 51, 70
13, 28782, Note_off_c, 9, 51, 64
13, 28782, Note_off_c, 9, 38, 64
13, 28800, Note_on_c, 9, 51, 70
13, 28850, Note_off_c, 9, 51, 64
13, 29040, Note_on_c, 9, 42, 100
13, 29040, Note_on_c, 9, 37, 70
13, 29040, Note_on_c, 9, 51, 90
13, 29090, Note_off_c, 9, 51, 64
13, 29090, Note_off_c, 9, 37, 64
13, 29090, Note_off_c, 9, 42, 64
13, 29214, Note_on_c, 9, 38, 40
13, 29214, Note_on_c, 9, 51, 50
13, 29264, Note_off_c, 9, 51, 64
13, 29264, Note_off_c, 9, 38, 64
13, 29280, Note_on_c, 9, 51, 80
13, 29330, Note_off_c, 9, 51, 64
13, 29520, Note_on_c, 9, 42, 100
13, 29520, Note_on_c, 9, 37, 70
13, 29520, Note_on_c, 9, 51, 90
13, 29570, Note_off_c, 9, 51, 64
13, 29570, Note_off_c, 9, 37, 64
13, 29570, Note_off_c, 9, 42, 64
13, 29694, Note_on_c, 9, 38, 40
13, 29694, Note_on_c, 9, 51, 50
13, 29744, Note_off_c, 9, 51, 64
13, 29744, Note_off_c, 9, 38, 64
13, 29760, Note_on_c, 9, 51, 80
13, 29810, Note_off_c, 9, 51, 64
13, 30000, Note_on_c, 9, 42, 80
13, 30000, Note_on_c, 9, 37, 70
13, 30000, Note_on_c, 9, 51, 90
13, 30050, Note_off_c, 9, 51, 64
13, 30050, Note_off_c, 9, 37, 64
13, 30050, Note_off_c, 9, 42, 64
13, 30176, Note_on_c, 9, 38, 30
13, 30176, Note_on_c, 9, 51, 70
13, 30226, Note_off_c, 9, 51, 64
13, 30226, Note_off_c, 9, 38, 64
13, 30240, Note_on_c, 9, 38, 40
13, 30240, Note_on_c, 9, 51, 80
13, 30290, Note_off_c, 9, 51, 64
13, 30290, Note_off_c, 9, 38, 64
13, 30480, Note_on_c, 9, 42, 100
13, 30480, Note_on_c, 9, 37, 70
13, 30480, Note_on_c, 9, 51, 90
13, 30530, Note_off_c, 9, 51, 64
13, 30530, Note_off_c, 9, 37, 64
13, 30530, Note_off_c, 9, 42, 64
13, 30656, Note_on_c, 9, 51, 70
13, 30706, Note_off_c, 9, 51, 64
13, 30720, Note_on_c, 9, 51, 70
13, 30770, Note_off_c, 9, 51, 64
13, 30960, Note_on_c, 9, 42, 100
13, 30960, Note_on_c, 9, 37, 70
13, 30960, Note_on_c, 9, 51, 90
13, 31010, Note_off_c, 9, 51, 64
13, 31010, Note_off_c, 9, 37, 64
13, 31010, Note_off_c, 9, 42, 64
13, 31134, Note_on_c, 9, 38, 40
13, 31134, Note_on_c, 9, 51, 50
13, 31184, Note_off_c, 9, 51, 64
13, 31184, Note_off_c, 9, 38, 64
13, 31200, Note_on_c, 9, 51, 80
13, 31250, Note_off_c, 9, 51, 64
13, 31440, Note_on_c, 9, 42, 100
13, 31440, Note_on_c, 9, 37, 70
13, 31440, Note_on_c, 9, 51, 90
13, 31490, Note_off_c, 9, 51, 64
13, 31490, Note_off_c, 9, 37, 64
13, 31490, Note_off_c, 9, 42, 64
13, 31614, Note_on_c, 9, 38, 40
13, 31614, Note_on_c, 9, 51, 50
13, 31664, Note_off_c, 9, 51, 64
13, 31664, Note_off_c, 9, 38, 64
13, 31680, Note_on_c, 9, 38, 60
13, 31680, Note_on_c, 9, 51, 90
13, 31730, Note_off_c, 9, 51, 64
13, 31730, Note_off_c, 9, 38, 64
13, 31840, Note_on_c, 9, 38, 50
13, 31890, Note_off_c, 9, 38, 64
13, 31920, Note_on_c, 9, 35, 90
13, 31920, Note_on_c, 9, 42, 100
13, 31970, Note_off_c, 9, 42, 64
13, 31970, Note_off_c, 9, 35, 64
13, 32000, Note_on_c, 9, 38, 40
13, 32050, Note_off_c, 9, 38, 64
13, 32080, Note_on_c, 9, 45, 50
13, 32130, Note_off_c, 9, 45, 64
13, 32160, Note_on_c, 9, 38, 40
13, 32210, Note_off_c, 9, 38, 64
13, 32240, Note_on_c, 9, 38, 40
13, 32290, Note_off_c, 9, 38, 64
13, 32320, Note_on_c, 9, 41, 50
13, 32370, Note_off_c, 9, 41, 64
13, 32400, Note_on_c, 9, 42, 100
13, 32400, Note_on_c, 9, 48, 60
13, 32450, Note_off_c, 9, 48, 64
13, 32450, Note_off_c, 9, 42, 64
13, 32480, Note_on_c, 9, 45, 50
13, 32530, Note_off_c, 9, 45, 64
13, 32560, Note_on_c, 9, 38, 70
13, 32560, Note_on_c, 9, 41, 40
13, 32610, Note_off_c, 9, 41, 64
13, 32610, Note_off_c, 9, 38, 64
13, 32640, Note_on_c, 9, 51, 70
13, 32690, Note_off_c, 9, 51, 64
13, 32880, Note_on_c, 9, 42, 100
13, 32880, Note_on_c, 9, 37, 70
13, 32880, Note_on_c, 9, 51, 90
13, 32930, Note_off_c, 9, 51, 64
13, 32930, Note_off_c, 9, 37, 64
13, 32930, Note_off_c, 9, 42, 64
13, 33054, Note_on_c, 9, 38, 40
13, 33054, Note_on_c, 9, 51, 50
13, 33104, Note_off_c, 9, 51, 64
13, 33104, Note_off_c, 9, 38, 64
13, 33120, Note_on_c, 9, 51, 80
13, 33170, Note_off_c, 9, 51, 64
13, 33360, Note_on_c, 9, 42, 100
13, 33360, Note_on_c, 9, 37, 70
13, 33360, Note_on_c, 9, 51, 90
13, 33410, Note_off_c, 9, 51, 64
13, 33410, Note_off_c, 9, 37, 64
13, 33410, Note_off_c, 9, 42, 64
13, 33534, Note_on_c, 9, 38, 40
13, 33534, Note_on_c, 9, 51, 50
13, 33584, Note_off_c, 9, 51, 64
13, 33584, Note_off_c, 9, 38, 64
13, 33600, Note_on_c, 9, 51, 80
13, 33650, Note_off_c, 9, 51, 64
13, 33840, Note_on_c, 9, 42, 80
13, 33840, Note_on_c, 9, 37, 70
13, 33840, Note_on_c, 9, 51, 90
13, 33890, Note_off_c, 9, 51, 64
13, 33890, Note_off_c, 9, 37, 64
13, 33890, Note_off_c, 9, 42, 64
13, 34016, Note_on_c, 9, 38, 30
13, 34016, Note_on_c, 9, 51, 70
13, 34066, Note_off_c, 9, 51, 64
13, 34066, Note_off_c, 9, 38, 64
13, 34080, Note_on_c, 9, 38, 40
13, 34080, Note_on_c, 9, 51, 80
13, 34130, Note_off_c, 9, 51, 64
13, 34130, Note_off_c, 9, 38, 64
13, 34320, Note_on_c, 9, 42, 100
13, 34320, Note_on_c, 9, 37, 70
13, 34320, Note_on_c, 9, 51, 90
13, 34370, Note_off_c, 9, 51, 64
13, 34370, Note_off_c, 9, 37, 64
13, 34370, Note_off_c, 9, 42, 64
13, 34496, Note_on_c, 9, 51, 70
13, 34546, Note_off_c, 9, 51, 64
13, 34560, Note_on_c, 9, 51, 70
13, 34610, Note_off_c, 9, 51, 64
13, 34800, Note_on_c, 9, 42, 90
13, 34800, Note_on_c, 9, 37, 60
13, 34800, Note_on_c, 9, 51, 90
13, 34850, Note_off_c, 9, 51, 64
13, 34850, Note_off_c, 9, 37, 64
13, 34850, Note_off_c, 9, 42, 64
13, 34976, Note_on_c, 9, 38, 40
13, 34976, Note_on_c, 9, 51, 70
13, 35026, Note_off_c, 9, 51, 64
13, 35026, Note_off_c, 9, 38, 64
13, 35040, Note_on_c, 9, 51, 80
13, 35090, Note_off_c, 9, 51, 64
13, 35280, Note_on_c, 9, 42, 100
13, 35280, Note_on_c, 9, 37, 70
13, 35280, Note_on_c, 9, 51, 90
13, 35330, Note_off_c, 9, 51, 64
13, 35330, Note_off_c, 9, 37, 64
13, 35330, Note_off_c, 9, 42, 64
13, 35456, Note_on_c, 9, 51, 70
13, 35506, Note_off_c, 9, 51, 64
13, 35520, Note_on_c, 9, 51, 80
13, 35570, Note_off_c, 9, 51, 64
13, 35760, Note_on_c, 9, 42, 80
13, 35760, Note_on_c, 9, 37, 70
13, 35760, Note_on_c, 9, 51, 90
13, 35810, Note_off_c, 9, 51, 64
13, 35810, Note_off_c, 9, 37, 64
13, 35810, Note_off_c, 9, 42, 64
13, 35936, Note_on_c, 9, 51, 70
13, 35986, Note_off_c, 9, 51, 64
13, 36000, Note_on_c, 9, 38, 40
13, 36000, Note_on_c, 9, 51, 80
13, 36050, Note_off_c, 9, 51, 64
13, 36050, Note_off_c, 9, 38, 64
13, 36240, Note_on_c, 9, 42, 100
13, 36240, Note_on_c, 9, 37, 70
13, 36240, Note_on_c, 9, 51, 90
13, 36290, Note_off_c, 9, 51, 64
13, 36290, Note_off_c, 9, 37, 64
13, 36290, Note_off_c, 9, 42, 64
13, 36416, Note_on_c, 9, 51, 70
13, 36466, Note_off_c, 9, 51, 64
13, 36480, Note_on_c, 9, 51, 70
13, 36530, Note_off_c, 9, 51, 64
13, 36720, Note_on_c, 9, 42, 90
13, 36720, Note_on_c, 9, 37, 60
13, 36720, Note_on_c, 9, 51, 90
13, 36770, Note_off_c, 9, 51, 64
13, 36770, Note_off_c, 9, 37, 64
13, 36770, Note_off_c, 9, 42, 64
13, 36896, Note_on_c, 9, 38, 40
13, 36896, Note_on_c, 9, 51, 70
13, 36946, Note_off_c, 9, 51, 64
13, 36946, Note_off_c, 9, 38, 64
13, 36960, Note_on_c, 9, 51, 80
13, 37010, Note_off_c, 9, 51, 64
13, 37200, Note_on_c, 9, 42, 100
13, 37200, Note_on_c, 9, 37, 70
13, 37200, Note_on_c, 9, 51, 90
13, 37250, Note_off_c, 9, 51, 64
13, 37250, Note_off_c, 9, 37, 64
13, 37250, Note_off_c, 9, 42, 64
13, 37376, Note_on_c, 9, 51, 70
13, 37426, Note_off_c, 9, 51, 64
13, 37440, Note_on_c, 9, 51, 80
13, 37490, Note_off_c, 9, 51, 64
13, 37680, Note_on_c, 9, 42, 70
13, 37680, Note_on_c, 9, 37, 70
13, 37680, Note_on_c, 9, 51, 90
13, 37730, Note_off_c, 9, 51, 64
13, 37730, Note_off_c, 9, 37, 64
13, 37730, Note_off_c, 9, 42, 64
13, 37854, Note_on_c, 9, 38, 40
13, 37854, Note_on_c, 9, 51, 70
13, 37904, Note_off_c, 9, 51, 64
13, 37904, Note_off_c, 9, 38, 64
13, 37920, Note_on_c, 9, 51, 90
13, 37970, Note_off_c, 9, 51, 64
13, 38160, Note_on_c, 9, 42, 100
13, 38160, Note_on_c, 9, 51, 90
13, 38210, Note_off_c, 9, 51, 64
13, 38210, Note_off_c, 9, 42, 64
13, 38334, Note_on_c, 9, 51, 70
13, 38384, Note_off_c, 9, 51, 64
13, 38400, Note_on_c, 9, 51, 70
13, 38450, Note_off_c, 9, 51, 64
13, 38640, Note_on_c, 9, 42, 100
13, 38640, Note_on_c, 9, 37, 70
13, 38640, Note_on_c, 9, 51, 90
13, 38690, Note_off_c, 9, 51, 64
13, 38690, Note_off_c, 9, 37, 64
13, 38690, Note_off_c, 9, 42, 64
13, 38814, Note_on_c, 9, 38, 40
13, 38814, Note_on_c, 9, 51, 50
13, 38864, Note_off_c, 9, 51, 64
13, 38864, Note_off_c, 9, 38, 64
13, 38880, Note_on_c, 9, 51, 80
13, 38930, Note_off_c, 9, 51, 64
13, 39120, Note_on_c, 9, 42, 100
13, 39120, Note_on_c, 9, 37, 70
13, 39120, Note_on_c, 9, 51, 90
13, 39170, Note_off_c, 9, 51, 64
13, 39170, Note_off_c, 9, 37, 64
13, 39170, Note_off_c, 9, 42, 64
13, 39294, Note_on_c, 9, 38, 40
13, 39294, Note_on_c, 9, 51, 50
13, 39344, Note_off_c, 9, 51, 64
13, 39344, Note_off_c, 9, 38, 64
13, 39360, Note_on_c, 9, 51, 80
13, 39410, Note_off_c, 9, 51, 64
13, 39600, Note_on_c, 9, 42, 80
13, 39600, Note_on_c, 9, 37, 70
13, 39600, Note_on_c, 9, 51, 100
13, 39650, Note_off_c, 9, 51, 64
13, 39650, Note_off_c, 9, 37, 64
13, 39650, Note_off_c, 9, 42, 64
13, 39776, Note_on_c, 9, 38, 40
13, 39776, Note_on_c, 9, 51, 70
13, 39826, Note_off_c, 9, 51, 64
13, 39826, Note_off_c, 9, 38, 64
13, 39840, Note_on_c, 9, 51, 80
13, 39890, Note_off_c, 9, 51, 64
13, 40016, Note_on_c, 9, 38, 60
13, 40016, Note_on_c, 9, 51, 50
13, 40066, Note_off_c, 9, 51, 64
13, 40066, Note_off_c, 9, 38, 64
13, 40080, Note_on_c, 9, 42, 100
13, 40080, Note_on_c, 9, 37, 80
13, 40080, Note_on_c, 9, 51, 90
13, 40130, Note_off_c, 9, 51, 64
13, 40130, Note_off_c, 9, 37, 64
13, 40130, Note_off_c, 9, 42, 64
13, 40256, Note_on_c, 9, 38, 50
13, 40256, Note_on_c, 9, 51, 70
13, 40306, Note_off_c, 9, 51, 64
13, 40306, Note_off_c, 9, 38, 64
13, 40320, Note_on_c, 9, 51, 70
13, 40370, Note_off_c, 9, 51, 64
13, 40560, Note_on_c, 9, 42, 100
13, 40560, Note_on_c, 9, 37, 70
13, 40560, Note_on_c, 9, 51, 90
13, 40610, Note_off_c, 9, 51, 64
13, 40610, Note_off_c, 9, 37, 64
13, 40610, Note_off_c, 9, 42, 64
13, 40734, Note_on_c, 9, 38, 40
13, 40734, Note_on_c, 9, 51, 50
13, 40784, Note_off_c, 9, 51, 64
13, 40784, Note_off_c, 9, 38, 64
13, 40800, Note_on_c, 9, 51, 80
13, 40850, Note_off_c, 9, 51, 64
13, 41040, Note_on_c, 9, 42, 100
13, 41040, Note_on_c, 9, 37, 70
13, 41040, Note_on_c, 9, 51, 90
13, 41090, Note_off_c, 9, 51, 64
13, 41090, Note_off_c, 9, 37, 64
13, 41090, Note_off_c, 9, 42, 64
13, 41214, Note_on_c, 9, 38, 40
13, 41214, Note_on_c, 9, 51, 50
13, 41264, Note_off_c, 9, 51, 64
13, 41264, Note_off_c, 9, 38, 64
13, 41280, Note_on_c, 9, 51, 80
13, 41330, Note_off_c, 9, 51, 64
13, 41520, Note_on_c, 9, 42, 80
13, 41520, Note_on_c, 9, 37, 70
13, 41520, Note_on_c, 9, 51, 90
13, 41570, Note_off_c, 9, 51, 64
13, 41570, Note_off_c, 9, 37, 64
13, 41570, Note_off_c, 9, 42, 64
13, 41696, Note_on_c, 9, 38, 30
13, 41696, Note_on_c, 9, 51, 70
13, 41746, Note_off_c, 9, 51, 64
13, 41746, Note_off_c, 9, 38, 64
13, 41760, Note_on_c, 9, 38, 40
13, 41760, Note_on_c, 9, 51, 80
13, 41810, Note_off_c, 9, 51, 64
13, 41810, Note_off_c, 9, 38, 64
13, 42000, Note_on_c, 9, 42, 100
13, 42000, Note_on_c, 9, 37, 70
13, 42000, Note_on_c, 9, 51, 90
13, 42050, Note_off_c, 9, 51, 64
13, 42050, Note_off_c, 9, 37, 64
13, 42050, Note_off_c, 9, 42, 64
13, 42176, Note_on_c, 9, 51, 70
13, 42226, Note_off_c, 9, 51, 64
13, 42240, Note_on_c, 9, 51, 70
13, 42290, Note_off_c, 9, 51, 64
13, 42480, Note_on_c, 9, 42, 100
13, 42480, Note_on_c, 9, 37, 70
13, 42480, Note_on_c, 9, 51, 90
13, 42530, Note_off_c, 9, 51, 64
13, 42530, Note_off_c, 9, 37, 64
13, 42530, Note_off_c, 9, 42, 64
13, 42654, Note_on_c, 9, 38, 40
13, 42654, Note_on_c, 9, 51, 50
13, 42704, Note_off_c, 9, 51, 64
13, 42704, Note_off_c, 9, 38, 64
13, 42720, Note_on_c, 9, 51, 80
13, 42770, Note_off_c, 9, 51, 64
13, 42960, Note_on_c, 9, 42, 100
13, 42960, Note_on_c, 9, 37, 70
13, 42960, Note_on_c, 9, 51, 90
13, 43010, Note_off_c, 9, 51, 64
13, 43010, Note_off_c, 9, 37, 64
13, 43010, Note_off_c, 9, 42, 64
13, 43134, Note_on_c, 9, 38, 40
13, 43134, Note_on_c, 9, 51, 50
13, 43184, Note_off_c, 9, 51, 64
13, 43184, Note_off_c, 9, 38, 64
13, 43200, Note_on_c, 9, 51, 80
13, 43250, Note_off_c, 9, 51, 64
13, 43376, Note_on_c, 9, 38, 30
13, 43426, Note_off_c, 9, 38, 64
13, 43440, Note_on_c, 9, 42, 80
13, 43440, Note_on_c, 9, 37, 70
13, 43440, Note_on_c, 9, 51, 90
13, 43490, Note_off_c, 9, 51, 64
13, 43490, Note_off_c, 9, 37, 64
13, 43490, Note_off_c, 9, 42, 64
13, 43616, Note_on_c, 9, 38, 40
13, 43616, Note_on_c, 9, 51, 70
13, 43666, Note_off_c, 9, 51, 64
13, 43666, Note_off_c, 9, 38, 64
13, 43680, Note_on_c, 9, 51, 80
13, 43730, Note_off_c, 9, 51, 64
13, 43856, Note_on_c, 9, 38, 30
13, 43906, Note_off_c, 9, 38, 64
13, 43920, Note_on_c, 9, 42, 100
13, 43920, Note_on_c, 9, 37, 70
13, 43920, Note_on_c, 9, 51, 90
13, 43970, Note_off_c, 9, 51, 64
13, 43970, Note_off_c, 9, 37, 64
13, 43970, Note_off_c, 9, 42, 64
13, 44096, Note_on_c, 9, 51, 70
13, 44146, Note_off_c, 9, 51, 64
13, 44160, Note_on_c, 9, 51, 80
13, 44210, Note_off_c, 9, 51, 64
13, 44400, Note_on_c, 9, 42, 80
13, 44400, Note_on_c, 9, 37, 70
13, 44400, Note_on_c, 9, 51, 90
13, 44450, Note_off_c, 9, 51, 64
13, 44450, Note_off_c, 9, 37, 64
13, 44450, Note_off_c, 9, 42, 64
13, 44576, Note_on_c, 9, 38, 30
13, 44576, Note_on_c, 9, 51, 70
13, 44626, Note_off_c, 9, 51, 64
13, 44626, Note_off_c, 9, 38, 64
13, 44640, Note_on_c, 9, 38, 40
13, 44640, Note_on_c, 9, 51, 80
13, 44690, Note_off_c, 9, 51, 64
13, 44690, Note_off_c, 9, 38, 64
13, 44816, Note_on_c, 9, 38, 40
13, 44866, Note_off_c, 9, 38, 64
13, 44880, Note_on_c, 9, 42, 100
13, 44880, Note_on_c, 9, 37, 70
13, 44880, Note_on_c, 9, 51, 90
13, 44930, Note_off_c, 9, 51, 64
13, 44930, Note_off_c, 9, 37, 64
13, 44930, Note_off_c, 9, 42, 64
13, 45056, Note_on_c, 9, 51, 70
13, 45106, Note_off_c, 9, 51, 64
13, 45120, Note_on_c, 9, 51, 80
13, 45170, Note_off_c, 9, 51, 64
13, 45360, Note_on_c, 9, 42, 70
13, 45360, Note_on_c, 9, 37, 70
13, 45360, Note_on_c, 9, 51, 90
13, 45410, Note_off_c, 9, 51, 64
13, 45410, Note_off_c, 9, 37, 64
13, 45410, Note_off_c, 9, 42, 64
13, 45534, Note_on_c, 9, 51, 70
13, 45584, Note_off_c, 9, 51, 64
13, 45600, Note_on_c, 9, 51, 90
13, 45650, Note_off_c, 9, 51, 64
13, 45840, Note_on_c, 9, 42, 100
13, 45840, Note_on_c, 9, 51, 90
13, 45890, Note_off_c, 9, 51, 64
13, 45890, Note_off_c, 9, 42, 64
13, 46014, Note_on_c, 9, 51, 70
13, 46064, Note_off_c, 9, 51, 64
13, 46080, Note_on_c, 9, 51, 80
13, 46130, Note_off_c, 9, 51, 64
13, 46320, Note_on_c, 9, 42, 80
13, 46320, Note_on_c, 9, 37, 70
13, 46320, Note_on_c, 9, 51, 90
13, 46370, Note_off_c, 9, 51, 64
13, 46370, Note_off_c, 9, 37, 64
13, 46370, Note_off_c, 9, 42, 64
13, 46492, Note_on_c, 9, 38, 40
13, 46492, Note_on_c, 9, 51, 60
13, 46542, Note_off_c, 9, 51, 64
13, 46542, Note_off_c, 9, 38, 64
13, 46560, Note_on_c, 9, 51, 80
13, 46610, Note_off_c, 9, 51, 64
13, 46800, Note_on_c, 9, 42, 100
13, 46800, Note_on_c, 9, 37, 80
13, 46800, Note_on_c, 9, 51, 100
13, 46850, Note_off_c, 9, 51, 64
13, 46850, Note_off_c, 9, 37, 64
13, 46850, Note_off_c, 9, 42, 64
13, 46972, Note_on_c, 9, 38, 60
13, 46972, Note_on_c, 9, 51, 70
13, 47022, Note_off_c, 9, 51, 64
13, 47022, Note_off_c, 9, 38, 64
13, 47040, Note_on_c, 9, 38, 60
13, 47040, Note_on_c, 9, 51, 90
13, 47090, Note_off_c, 9, 51, 64
13, 47090, Note_off_c, 9, 38, 64
13, 47200, Note_on_c, 9, 38, 50
13, 47250, Note_off_c, 9, 38, 64
13, 47280, Note_on_c, 9, 35, 90
13, 47280, Note_on_c, 9, 42, 100
13, 47330, Note_off_c, 9, 42, 64
13, 47330, Note_off_c, 9, 35, 64
13, 47360, Note_on_c, 9, 38, 40
13, 47410, Note_off_c, 9, 38, 64
13, 47440, Note_on_c, 9, 45, 50
13, 47490, Note_off_c, 9, 45, 64
13, 47520, Note_on_c, 9, 38, 40
13, 47570, Note_off_c, 9, 38, 64
13, 47600, Note_on_c, 9, 38, 40
13, 47650, Note_off_c, 9, 38, 64
13, 47680, Note_on_c, 9, 41, 50
13, 47730, Note_off_c, 9, 41, 64
13, 47760, Note_on_c, 9, 42, 100
13, 47760, Note_on_c, 9, 48, 60
13, 47810, Note_off_c, 9, 48, 64
13, 47810, Note_off_c, 9, 42, 64
13, 47840, Note_on_c, 9, 45, 50
13, 47890, Note_off_c, 9, 45, 64
13, 47920, Note_on_c, 9, 38, 70
13, 47920, Note_on_c, 9, 41, 40
13, 47970, Note_off_c, 9, 41, 64
13, 47970, Note_off_c, 9, 38, 64
13, 48000, Note_on_c, 9, 51, 70
13, 48050, Note_off_c, 9, 51, 64
13, 48240, Note_on_c, 9, 42, 100
13, 48240, Note_on_c, 9, 37, 70
13, 48240, Note_on_c, 9, 51, 90
13, 48290, Note_off_c, 9, 51, 64
13, 48290, Note_off_c, 9, 37, 64
13, 48290, Note_off_c, 9, 42, 64
13, 48414, Note_on_c, 9, 38, 40
13, 48414, Note_on_c, 9, 51, 50
13, 48464, Note_off_c, 9, 51, 64
13, 48464, Note_off_c, 9, 38, 64
13, 48480, Note_on_c, 9, 51, 80
13, 48530, Note_off_c, 9, 51, 64
13, 48720, Note_on_c, 9, 42, 100
13, 48720, Note_on_c, 9, 37, 70
13, 48720, Note_on_c, 9, 51, 90
13, 48770, Note_off_c, 9, 51, 64
13, 48770, Note_off_c, 9, 37, 64
13, 48770, Note_off_c, 9, 42, 64
13, 48894, Note_on_c, 9, 38, 40
13, 48894, Note_on_c, 9, 51, 50
13, 48944, Note_off_c, 9, 51, 64
13, 48944, Note_off_c, 9, 38, 64
13, 48960, Note_on_c, 9, 51, 80
13, 49010, Note_off_c, 9, 51, 64
13, 49200, Note_on_c, 9, 42, 70
13, 49200, Note_on_c, 9, 37, 70
13, 49200, Note_on_c, 9, 51, 90
13, 49250, Note_off_c, 9, 51, 64
13, 49250, Note_off_c, 9, 37, 64
13, 49250, Note_off_c, 9, 42, 64
13, 49374, Note_on_c, 9, 51, 70
13, 49424, Note_off_c, 9, 51, 64
13, 49440, Note_on_c, 9, 51, 90
13, 49490, Note_off_c, 9, 51, 64
13, 49680, Note_on_c, 9, 42, 100
13, 49680, Note_on_c, 9, 51, 90
13, 49730, Note_off_c, 9, 51, 64
13, 49730, Note_off_c, 9, 42, 64
13, 49854, Note_on_c, 9, 51, 70
13, 49904, Note_off_c, 9, 51, 64
13, 49920, Note_on_c, 9, 51, 70
13, 49970, Note_off_c, 9, 51, 64
13, 50160, Note_on_c, 9, 42, 90
13, 50160, Note_on_c, 9, 37, 60
13, 50160, Note_on_c, 9, 51, 90
13, 50210, Note_off_c, 9, 51, 64
13, 50210, Note_off_c, 9, 37, 64
13, 50210, Note_off_c, 9, 42, 64
13, 50336, Note_on_c, 9, 38, 40
13, 50336, Note_on_c, 9, 51, 70
13, 50386, Note_off_c, 9, 51, 64
13, 50386, Note_off_c, 9, 38, 64
13, 50400, Note_on_c, 9, 51, 80
13, 50450, Note_off_c, 9, 51, 64
13, 50576, Note_on_c, 9, 38, 50
13, 50626, Note_off_c, 9, 38, 64
13, 50640, Note_on_c, 9, 42, 100
13, 50640, Note_on_c, 9, 37, 70
13, 50640, Note_on_c, 9, 51, 90
13, 50690, Note_off_c, 9, 51, 64
13, 50690, Note_off_c, 9, 37, 64
13, 50690, Note_off_c, 9, 42, 64
13, 50816, Note_on_c, 9, 51, 70
13, 50866, Note_off_c, 9, 51, 64
13, 50880, Note_on_c, 9, 51, 80
13, 50930, Note_off_c, 9, 51, 64
13, 51120, Note_on_c, 9, 42, 80
13, 51120, Note_on_c, 9, 37, 70
13, 51120, Note_on_c, 9, 51, 90
13, 51170, Note_off_c, 9, 51, 64
13, 51170, Note_off_c, 9, 37, 64
13, 51170, Note_off_c, 9, 42, 64
13, 51296, Note_on_c, 9, 38, 40
13, 51296, Note_on_c, 9, 51, 70
13, 51346, Note_off_c, 9, 51, 64
13, 51346, Note_off_c, 9, 38, 64
13, 51360, Note_on_c, 9, 51, 80
13, 51410, Note_off_c, 9, 51, 64
13, 51536, Note_on_c, 9, 38, 30
13, 51586, Note_off_c, 9, 38, 64
13, 51600, Note_on_c, 9, 42, 100
13, 51600, Note_on_c, 9, 37, 70
13, 51600, Note_on_c, 9, 51, 90
13, 51650, Note_off_c, 9, 51, 64
13, 51650, Note_off_c, 9, 37, 64
13, 51650, Note_off_c, 9, 42, 64
13, 51776, Note_on_c, 9, 38, 40
13, 51776, Note_on_c, 9, 51, 70
13, 51826, Note_off_c, 9, 51, 64
13, 51826, Note_off_c, 9, 38, 64
13, 51840, Note_on_c, 9, 51, 70
13, 51890, Note_off_c, 9, 51, 64
13, 52080, Note_on_c, 9, 42, 90
13, 52080, Note_on_c, 9, 37, 60
13, 52080, Note_on_c, 9, 51, 90
13, 52130, Note_off_c, 9, 51, 64
13, 52130, Note_off_c, 9, 37, 64
13, 52130, Note_off_c, 9, 42, 64
13, 52256, Note_on_c, 9, 38, 40
13, 52256, Note_on_c, 9, 51, 70
13, 52306, Note_off_c, 9, 51, 64
13, 52306, Note_off_c, 9, 38, 64
13, 52320, Note_on_c, 9, 51, 80
13, 52370, Note_off_c, 9, 51, 64
13, 52496, Note_on_c, 9, 38, 50
13, 52546, Note_off_c, 9, 38, 64
13, 52560, Note_on_c, 9, 42, 100
13, 52560, Note_on_c, 9, 37, 70
13, 52560, Note_on_c, 9, 51, 90
13, 52610, Note_off_c, 9, 51, 64
13, 52610, Note_off_c, 9, 37, 64
13, 52610, Note_off_c, 9, 42, 64
13, 52736, Note_on_c, 9, 51, 70
13, 52786, Note_off_c, 9, 51, 64
13, 52800, Note_on_c, 9, 51, 80
13, 52850, Note_off_c, 9, 51, 64
13, 53040, Note_on_c, 9, 42, 80
13, 53040, Note_on_c, 9, 37, 70
13, 53040, Note_on_c, 9, 51, 90
13, 53090, Note_off_c, 9, 51, 64
13, 53090, Note_off_c, 9, 37, 64
13, 53090, Note_off_c, 9, 42, 64
13, 53216, Note_on_c, 9, 51, 70
13, 53266, Note_off_c, 9, 51, 64
13, 53280, Note_on_c, 9, 38, 40
13, 53280, Note_on_c, 9, 51, 80
13, 53330, Note_off_c, 9, 51, 64
13, 53330, Note_off_c, 9, 38, 64
13, 53456, Note_on_c, 9, 38, 40
13, 53506, Note_off_c, 9, 38, 64
13, 53520, Note_on_c, 9, 42, 100
13, 53520, Note_on_c, 9, 37, 70
13, 53520, Note_on_c, 9, 51, 90
13, 53570, Note_off_c, 9, 51, 64
13, 53570, Note_off_c, 9, 37, 64
13, 53570, Note_off_c, 9, 42, 64
13, 53696, Note_on_c, 9, 51, 70
13, 53746, Note_off_c, 9, 51, 64
13, 53760, Note_on_c, 9, 51, 80
13, 53810, Note_off_c, 9, 51, 64
13, 54000, Note_on_c, 9, 42, 80
13, 54000, Note_on_c, 9, 37, 70
13, 54000, Note_on_c, 9, 51, 90
13, 54050, Note_off_c, 9, 51, 64
13, 54050, Note_off_c, 9, 37, 64
13, 54050, Note_off_c, 9, 42, 64
13, 54176, Note_on_c, 9, 51, 70
13, 54226, Note_off_c, 9, 51, 64
13, 54240, Note_on_c, 9, 38, 40
13, 54240, Note_on_c, 9, 51, 80
13, 54290, Note_off_c, 9, 51, 64
13, 54290, Note_off_c, 9, 38, 64
13, 54480, Note_on_c, 9, 42, 100
13, 54480, Note_on_c, 9, 37, 70
13, 54480, Note_on_c, 9, 51, 90
13, 54530, Note_off_c, 9, 51, 64
13, 54530, Note_off_c, 9, 37, 64
13, 54530, Note_off_c, 9, 42, 64
13, 54656, Note_on_c, 9, 51, 70
13, 54706, Note_off_c, 9, 51, 64
13, 54720, Note_on_c, 9, 51, 80
13, 54770, Note_off_c, 9, 51, 64
13, 54960, Note_on_c, 9, 42, 80
13, 54960, Note_on_c, 9, 37, 70
13, 54960, Note_on_c, 9, 51, 90
13, 55010, Note_off_c, 9, 51, 64
13, 55010, Note_off_c, 9, 37, 64
13, 55010, Note_off_c, 9, 42, 64
13, 55136, Note_on_c, 9, 51, 70
13, 55186, Note_off_c, 9, 51, 64
13, 55200, Note_on_c, 9, 38, 40
13, 55200, Note_on_c, 9, 51, 80
13, 55250, Note_off_c, 9, 51, 64
13, 55250, Note_off_c, 9, 38, 64
13, 55440, Note_on_c, 9, 42, 100
13, 55440, Note_on_c, 9, 37, 70
13, 55440, Note_on_c, 9, 51, 90
13, 55490, Note_off_c, 9, 51, 64
13, 55490, Note_off_c, 9, 37, 64
13, 55490, Note_off_c, 9, 42, 64
13, 55616, Note_on_c, 9, 51, 70
13, 55666, Note_off_c, 9, 51, 64
13, 55680, Note_on_c, 9, 51, 80
13, 55730, Note_off_c, 9, 51, 64
13, 55920, Note_on_c, 9, 42, 80
13, 55920, Note_on_c, 9, 37, 70
13, 55920, Note_on_c, 9, 51, 90
13, 55970, Note_off_c, 9, 51, 64
13, 55970, Note_off_c, 9, 37, 64
13, 55970, Note_off_c, 9, 42, 64
13, 56096, Note_on_c, 9, 51, 70
13, 56146, Note_off_c, 9, 51, 64
13, 56160, Note_on_c, 9, 38, 40
13, 56160, Note_on_c, 9, 51, 80
13, 56210, Note_off_c, 9, 51, 64
13, 56210, Note_off_c, 9, 38, 64
13, 56400, Note_on_c, 9, 42, 100
13, 56400, Note_on_c, 9, 37, 70
13, 56400, Note_on_c, 9, 51, 90
13, 56450, Note_off_c, 9, 51, 64
13, 56450, Note_off_c, 9, 37, 64
13, 56450, Note_off_c, 9, 42, 64
13, 56576, Note_on_c, 9, 51, 70
13, 56626, Note_off_c, 9, 51, 64
13, 56640, Note_on_c, 9, 51, 80
13, 56690, Note_off_c, 9, 51, 64
13, 56880, Note_on_c, 9, 42, 80
13, 56880, Note_on_c, 9, 37, 70
13, 56880, Note_on_c, 9, 51, 90
13, 56930, Note_off_c, 9, 51, 64
13, 56930, Note_off_c, 9, 37, 64
13, 56930, Note_off_c, 9, 42, 64
13, 57056, Note_on_c, 9, 38, 30
13, 57056, Note_on_c, 9, 51, 70
13, 57106, Note_off_c, 9, 51, 64
13, 57106, Note_off_c, 9, 38, 64
13, 57120, Note_on_c, 9, 38, 40
13, 57120, Note_on_c, 9, 51, 80
13, 57170, Note_off_c, 9, 51, 64
13, 57170, Note_off_c, 9, 38, 64
13, 57296, Note_on_c, 9, 38, 40
13, 57346, Note_off_c, 9, 38, 64
13, 57360, Note_on_c, 9, 42, 100
13, 57360, Note_on_c, 9, 37, 70
13, 57360, Note_on_c, 9, 51, 90
13, 57410, Note_off_c, 9, 51, 64
13, 57410, Note_off_c, 9, 37, 64
13, 57410, Note_off_c, 9, 42, 64
13, 57536, Note_on_c, 9, 51, 70
13, 57586, Note_off_c, 9, 51, 64
13, 57600, Note_on_c, 9, 51, 70
13, 57650, Note_off_c, 9, 51, 64
13, 57840, Note_on_c, 9, 42, 90
13, 57840, Note_on_c, 9, 37, 60
13, 57840, Note_on_c, 9, 51, 90
13, 57890, Note_off_c, 9, 51, 64
13, 57890, Note_off_c, 9, 37, 64
13, 57890, Note_off_c, 9, 42, 64
13, 58016, Note_on_c, 9, 38, 40
13, 58016, Note_on_c, 9, 51, 70
13, 58066, Note_off_c, 9, 51, 64
13, 58066, Note_off_c, 9, 38, 64
13, 58080, Note_on_c, 9, 51, 80
13, 58130, Note_off_c, 9, 51, 64
13, 58320, Note_on_c, 9, 42, 100
13, 58320, Note_on_c, 9, 37, 70
13, 58320, Note_on_c, 9, 51, 90
13, 58370, Note_off_c, 9, 51, 64
13, 58370, Note_off_c, 9, 37, 64
13, 58370, Note_off_c, 9, 42, 64
13, 58496, Note_on_c, 9, 51, 70
13, 58546, Note_off_c, 9, 51, 64
13, 58560, Note_on_c, 9, 51, 80
13, 58610, Note_off_c, 9, 51, 64
13, 58800, Note_on_c, 9, 42, 80
13, 58800, Note_on_c, 9, 37, 70
13, 58800, Note_on_c, 9, 51, 100
13, 58850, Note_off_c, 9, 51, 64
13, 58850, Note_off_c, 9, 37, 64
13, 58850, Note_off_c, 9, 42, 64
13, 58976, Note_on_c, 9, 38, 40
13, 58976, Note_on_c, 9, 51, 70
13, 59026, Note_off_c, 9, 51, 64
13, 59026, Note_off_c, 9, 38, 64
13, 59040, Note_on_c, 9, 51, 80
13, 59090, Note_off_c, 9, 51, 64
13, 59216, Note_on_c, 9, 38, 60
13, 59266, Note_off_c, 9, 38, 64
13, 59280, Note_on_c, 9, 42, 100
13, 59280, Note_on_c, 9, 37, 80
13, 59280, Note_on_c, 9, 51, 90
13, 59330, Note_off_c, 9, 51, 64
13, 59330, Note_off_c, 9, 37, 64
13, 59330, Note_off_c, 9, 42, 64
13, 59456, Note_on_c, 9, 38, 50
13, 59456, Note_on_c, 9, 51, 70
13, 59506, Note_off_c, 9, 51, 64
13, 59506, Note_off_c, 9, 38, 64
13, 59520, Note_on_c, 9, 51, 80
13, 59570, Note_off_c, 9, 51, 64
13, 59760, Note_on_c, 9, 42, 80
13, 59760, Note_on_c, 9, 37, 70
13, 59760, Note_on_c, 9, 51, 90
13, 59810, Note_off_c, 9, 51, 64
13, 59810, Note_off_c, 9, 37, 64
13, 59810, Note_off_c, 9, 42, 64
13, 59936, Note_on_c, 9, 51, 70
13, 59986, Note_off_c, 9, 51, 64
13, 60000, Note_on_c, 9, 38, 40
13, 60000, Note_on_c, 9, 51, 80
13, 60050, Note_off_c, 9, 51, 64
13, 60050, Note_off_c, 9, 38, 64
13, 60240, Note_on_c, 9, 42, 100
13, 60240, Note_on_c, 9, 37, 70
13, 60240, Note_on_c, 9, 51, 90
13, 60290, Note_off_c, 9, 51, 64
13, 60290, Note_off_c, 9, 37, 64
13, 60290, Note_off_c, 9, 42, 64
13, 60416, Note_on_c, 9, 51, 70
13, 60466, Note_off_c, 9, 51, 64
13, 60480, Note_on_c, 9, 51, 80
13, 60530, Note_off_c, 9, 51, 64
13, 60720, Note_on_c, 9, 42, 70
13, 60720, Note_on_c, 9, 37, 70
13, 60720, Note_on_c, 9, 51, 90
13, 60770, Note_off_c, 9, 51, 64
13, 60770, Note_off_c, 9, 37, 64
13, 60770, Note_off_c, 9, 42, 64
13, 60894, Note_on_c, 9, 51, 70
13, 60944, Note_off_c, 9, 51, 64
13, 60960, Note_on_c, 9, 51, 90
13, 61010, Note_off_c, 9, 51, 64
13, 61200, Note_on_c, 9, 42, 100
13, 61200, Note_on_c, 9, 51, 90
13, 61250, Note_off_c, 9, 51, 64
13, 61250, Note_off_c, 9, 42, 64
13, 61374, Note_on_c, 9, 51, 70
13, 61424, Note_off_c, 9, 51, 64
13, 61440, Note_on_c, 9, 51, 70
13, 61490, Note_off_c, 9, 51, 64
13, 61680, Note_on_c, 9, 42, 100
13, 61680, Note_on_c, 9, 37, 70
13, 61680, Note_on_c, 9, 51, 90
13, 61730, Note_off_c, 9, 51, 64
13, 61730, Note_off_c, 9, 37, 64
13, 61730, Note_off_c, 9, 42, 64
13, 61854, Note_on_c, 9, 38, 40
13, 61854, Note_on_c, 9, 51, 50
13, 61904, Note_off_c, 9, 51, 64
13, 61904, Note_off_c, 9, 38, 64
13, 61920, Note_on_c, 9, 51, 80
13, 61970, Note_off_c, 9, 51, 64
13, 62160, Note_on_c, 9, 42, 100
13, 62160, Note_on_c, 9, 37, 70
13, 62160, Note_on_c, 9, 51, 90
13, 62210, Note_off_c, 9, 51, 64
13, 62210, Note_off_c, 9, 37, 64
13, 62210, Note_off_c, 9, 42, 64
13, 62334, Note_on_c, 9, 38, 40
13, 62334, Note_on_c, 9, 51, 50
13, 62384, Note_off_c, 9, 51, 64
13, 62384, Note_off_c, 9, 38, 64
13, 62400, Note_on_c, 9, 35, 84
13, 62400, Note_on_c, 9, 42, 70
13, 62400, Note_on_c, 9, 51, 70
13, 62450, Note_off_c, 9, 51, 64
13, 62450, Note_off_c, 9, 42, 64
13, 62450, Note_off_c, 9, 35, 64
13, 62640, Note_on_c, 9, 42, 100
13, 62640, Note_on_c, 9, 51, 90
13, 62690, Note_off_c, 9, 51, 64
13, 62690, Note_off_c, 9, 42, 64
13, 62806, Note_on_c, 9, 35, 90
13, 62806, Note_on_c, 9, 49, 50
13, 62856, Note_off_c, 9, 49, 64
13, 62856, Note_off_c, 9, 35, 64
13, 62960, Note_on_c, 9, 38, 60
13, 63010, Note_off_c, 9, 38, 64
13, 63046, Note_on_c, 9, 35, 70
13, 63096, Note_off_c, 9, 35, 64
13, 63120, Note_on_c, 9, 38, 40
13, 63120, Note_on_c, 9, 42, 100
13, 63170, Note_off_c, 9, 42, 64
13, 63170, Note_off_c, 9, 38, 64
13, 63200, Note_on_c, 9, 38, 50
13, 63250, Note_off_c, 9, 38, 64
13, 63286, Note_on_c, 9, 38, 70
13, 63336, Note_off_c, 9, 38, 64
13, 63360, Note_on_c, 9, 35, 60
13, 63360, Note_on_c, 9, 42, 70
13, 63410, Note_off_c, 9, 42, 64
13, 63410, Note_off_c, 9, 35, 64
13, 63600, Note_on_c, 9, 42, 90
13, 63600, Note_on_c, 9, 37, 70
13, 63650, Note_off_c, 9, 37, 64
13, 63650, Note_off_c, 9, 42, 64
13, 63776, Note_on_c, 9, 42, 40
13, 63826, Note_off_c, 9, 42, 64
13, 63840, Note_on_c, 9, 35, 60
13, 63840, Note_on_c, 9, 42, 80
13, 63890, Note_off_c, 9, 42, 64
13, 63890, Note_off_c, 9, 35, 64
13, 64080, Note_on_c, 9, 42, 90
13, 64080, Note_on_c, 9, 37, 80
13, 64130, Note_off_c, 9, 37, 64
13, 64130, Note_off_c, 9, 42, 64
13, 64256, Note_on_c, 9, 42, 50
13, 64306, Note_off_c, 9, 42, 64
13, 64320, Note_on_c, 9, 35, 60
13, 64320, Note_on_c, 9, 42, 70
13, 64370, Note_off_c, 9, 42, 64
13, 64370, Note_off_c, 9, 35, 64
13, 64560, Note_on_c, 9, 42, 80
13, 64560, Note_on_c, 9, 37, 70
13, 64610, Note_off_c, 9, 37, 64
13, 64610, Note_off_c, 9, 42, 64
13, 64736, Note_on_c, 9, 42, 40
13, 64786, Note_off_c, 9, 42, 64
13, 64800, Note_on_c, 9, 35, 60
13, 64800, Note_on_c, 9, 42, 80
13, 64850, Note_off_c, 9, 42, 64
13, 64850, Note_off_c, 9, 35, 64
13, 65040, Note_on_c, 9, 42, 80
13, 65040, Note_on_c, 9, 37, 80
13, 65090, Note_off_c, 9, 37, 64
13, 65090, Note_off_c, 9, 42, 64
13, 65216, Note_on_c, 9, 42, 50
13, 65266, Note_off_c, 9, 42, 64
13, 65280, Note_on_c, 9, 35, 60
13, 65280, Note_on_c, 9, 42, 70
13, 65330, Note_off_c, 9, 42, 64
13, 65330, Note_off_c, 9, 35, 64
13, 65520, Note_on_c, 9, 42, 90
13, 65520, Note_on_c, 9, 37, 70
13, 65570, Note_off_c, 9, 37, 64
13, 65570, Note_off_c, 9, 42, 64
13, 65696, Note_on_c, 9, 42, 40
13, 65746, Note_off_c, 9, 42, 64
13, 65760, Note_on_c, 9, 35, 60
13, 65760, Note_on_c, 9, 42, 80
13, 65810, Note_off_c, 9, 42, 64
13, 65810, Note_off_c, 9, 35, 64
13, 66000, Note_on_c, 9, 42, 90
13, 66000, Note_on_c, 9, 37, 80
13, 66050, Note_off_c, 9, 37, 64
13, 66050, Note_off_c, 9, 42, 64
13, 66176, Note_on_c, 9, 42, 50
13, 66226, Note_off_c, 9, 42, 64
13, 66240, Note_on_c, 9, 35, 60
13, 66240, Note_on_c, 9, 42, 80
13, 66290, Note_off_c, 9, 42, 64
13, 66290, Note_off_c, 9, 35, 64
13, 66480, Note_on_c, 9, 42, 90
13, 66480, Note_on_c, 9, 37, 70
13, 66530, Note_off_c, 9, 37, 64
13, 66530, Note_off_c, 9, 42, 64
13, 66654, Note_on_c, 9, 42, 40
13, 66704, Note_off_c, 9, 42, 64
13, 66720, Note_on_c, 9, 35, 60
13, 66720, Note_on_c, 9, 42, 80
13, 66770, Note_off_c, 9, 42, 64
13, 66770, Note_off_c, 9, 35, 64
13, 66894, Note_on_c, 9, 37, 90
13, 66944, Note_off_c, 9, 37, 64
13, 66960, Note_on_c, 9, 42, 90
13, 67010, Note_off_c, 9, 42, 64
13, 67134, Note_on_c, 9, 42, 50
13, 67184, Note_off_c, 9, 42, 64
13, 67200, Note_on_c, 9, 46, 54
13, 67250, Note_off_c, 9, 46, 64
13, 67440, Note_on_c, 9, 42, 70
13, 67440, Note_on_c, 9, 37, 80
13, 67490, Note_off_c, 9, 37, 64
13, 67490, Note_off_c, 9, 42, 64
13, 67612, Note_on_c, 9, 42, 40
13, 67662, Note_off_c, 9, 42, 64
13, 67680, Note_on_c, 9, 35, 60
13, 67680, Note_on_c, 9, 42, 80
13, 67730, Note_off_c, 9, 42, 64
13, 67730, Note_off_c, 9, 35, 64
13, 67920, Note_on_c, 9, 35, 60
13, 67920, Note_on_c, 9, 42, 80
13, 67970, Note_off_c, 9, 42, 64
13, 67970, Note_off_c, 9, 35, 64
13, 68092, Note_on_c, 9, 42, 50
13, 68142, Note_off_c, 9, 42, 64
13, 68160, Note_on_c, 9, 35, 60
13, 68160, Note_on_c, 9, 42, 70
13, 68210, Note_off_c, 9, 42, 64
13, 68210, Note_off_c, 9, 35, 64
13, 68400, Note_on_c, 9, 42, 90
13, 68400, Note_on_c, 9, 37, 70
13, 68450, Note_off_c, 9, 37, 64
13, 68450, Note_off_c, 9, 42, 64
13, 68576, Note_on_c, 9, 42, 40
13, 68626, Note_off_c, 9, 42, 64
13, 68640, Note_on_c, 9, 35, 60
13, 68640, Note_on_c, 9, 42, 80
13, 68690, Note_off_c, 9, 42, 64
13, 68690, Note_off_c, 9, 35, 64
13, 68880, Note_on_c, 9, 42, 90
13, 68880, Note_on_c, 9, 37, 80
13, 68930, Note_off_c, 9, 37, 64
13, 68930, Note_off_c, 9, 42, 64
13, 69056, Note_on_c, 9, 42, 50
13, 69106, Note_off_c, 9, 42, 64
13, 69120, Note_on_c, 9, 35, 60
13, 69120, Note_on_c, 9, 42, 80
13, 69170, Note_off_c, 9, 42, 64
13, 69170, Note_off_c, 9, 35, 64
13, 69360, Note_on_c, 9, 42, 90
13, 69360, Note_on_c, 9, 37, 70
13, 69410, Note_off_c, 9, 37, 64
13, 69410, Note_off_c, 9, 42, 64
13, 69534, Note_on_c, 9, 42, 40
13, 69584, Note_off_c, 9, 42, 64
13, 69600, Note_on_c, 9, 35, 60
13, 69600, Note_on_c, 9, 42, 80
13, 69650, Note_off_c, 9, 42, 64
13, 69650, Note_off_c, 9, 35, 64
13, 69840, Note_on_c, 9, 42, 90
13, 69840, Note_on_c, 9, 37, 85
13, 69890, Note_off_c, 9, 37, 64
13, 69890, Note_off_c, 9, 42, 64
13, 70014, Note_on_c, 9, 42, 50
13, 70064, Note_off_c, 9, 42, 64
13, 70080, Note_on_c, 9, 35, 60
13, 70080, Note_on_c, 9, 42, 70
13, 70130, Note_off_c, 9, 42, 64
13, 70130, Note_off_c, 9, 35, 64
13, 70320, Note_on_c, 9, 42, 90
13, 70320, Note_on_c, 9, 37, 70
13, 70370, Note_off_c, 9, 37, 64
13, 70370, Note_off_c, 9, 42, 64
13, 70496, Note_on_c, 9, 42, 40
13, 70546, Note_off_c, 9, 42, 64
13, 70560, Note_on_c, 9, 35, 60
13, 70560, Note_on_c, 9, 42, 80
13, 70610, Note_off_c, 9, 42, 64
13, 70610, Note_off_c, 9, 35, 64
13, 70800, Note_on_c, 9, 42, 90
13, 70800, Note_on_c, 9, 37, 80
13, 70850, Note_off_c, 9, 37, 64
13, 70850, Note_off_c, 9, 42, 64
13, 70976, Note_on_c, 9, 35, 50
13, 70976, Note_on_c, 9, 42, 50
13, 71026, Note_off_c, 9, 42, 64
13, 71026, Note_off_c, 9, 35, 64
13, 71040, Note_on_c, 9, 35, 60
13, 71040, Note_on_c, 9, 42, 70
13, 71090, Note_off_c, 9, 42, 64
13, 71090, Note_off_c, 9, 35, 64
13, 71280, Note_on_c, 9, 42, 90
13, 71280, Note_on_c, 9, 37, 70
13, 71330, Note_off_c, 9, 37, 64
13, 71330, Note_off_c, 9, 42, 64
13, 71456, Note_on_c, 9, 42, 40
13, 71506, Note_off_c, 9, 42, 64
13, 71520, Note_on_c, 9, 35, 60
13, 71520, Note_on_c, 9, 42, 80
13, 71570, Note_off_c, 9, 42, 64
13, 71570, Note_off_c, 9, 35, 64
13, 71760, Note_on_c, 9, 42, 90
13, 71760, Note_on_c, 9, 37, 80
13, 71810, Note_off_c, 9, 37, 64
13, 71810, Note_off_c, 9, 42, 64
13, 71936, Note_on_c, 9, 42, 50
13, 71986, Note_off_c, 9, 42, 64
13, 72000, Note_on_c, 9, 35, 60
13, 72000, Note_on_c, 9, 42, 80
13, 72050, Note_off_c, 9, 42, 64
13, 72050, Note_off_c, 9, 35, 64
13, 72240, Note_on_c, 9, 42, 90
13, 72240, Note_on_c, 9, 37, 70
13, 72290, Note_off_c, 9, 37, 64
13, 72290, Note_off_c, 9, 42, 64
13, 72414, Note_on_c, 9, 42, 40
13, 72464, Note_off_c, 9, 42, 64
13, 72480, Note_on_c, 9, 35, 60
13, 72480, Note_on_c, 9, 42, 80
13, 72530, Note_off_c, 9, 42, 64
13, 72530, Note_off_c, 9, 35, 64
13, 72720, Note_on_c, 9, 42, 90
13, 72720, Note_on_c, 9, 37, 85
13, 72770, Note_off_c, 9, 37, 64
13, 72770, Note_off_c, 9, 42, 64
13, 72894, Note_on_c, 9, 42, 50
13, 72944, Note_off_c, 9, 42, 64
13, 72960, Note_on_c, 9, 35, 60
13, 72960, Note_on_c, 9, 42, 80
13, 73010, Note_off_c, 9, 42, 64
13, 73010, Note_off_c, 9, 35, 64
13, 73200, Note_on_c, 9, 42, 90
13, 73200, Note_on_c, 9, 37, 70
13, 73250, Note_off_c, 9, 37, 64
13, 73250, Note_off_c, 9, 42, 64
13, 73374, Note_on_c, 9, 42, 40
13, 73424, Note_off_c, 9, 42, 64
13, 73440, Note_on_c, 9, 35, 60
13, 73440, Note_on_c, 9, 42, 80
13, 73490, Note_off_c, 9, 42, 64
13, 73490, Note_off_c, 9, 35, 64
13, 73680, Note_on_c, 9, 42, 90
13, 73680, Note_on_c, 9, 37, 85
13, 73730, Note_off_c, 9, 37, 64
13, 73730, Note_off_c, 9, 42, 64
13, 73854, Note_on_c, 9, 42, 50
13, 73904, Note_off_c, 9, 42, 64
13, 73920, Note_on_c, 9, 35, 60
13, 73920, Note_on_c, 9, 42, 80
13, 73970, Note_off_c, 9, 42, 64
13, 73970, Note_off_c, 9, 35, 64
13, 74160, Note_on_c, 9, 42, 70
13, 74160, Note_on_c, 9, 37, 70
13, 74210, Note_off_c, 9, 37, 64
13, 74210, Note_off_c, 9, 42, 64
13, 74332, Note_on_c, 9, 42, 40
13, 74382, Note_off_c, 9, 42, 64
13, 74400, Note_on_c, 9, 35, 60
13, 74400, Note_on_c, 9, 42, 80
13, 74450, Note_off_c, 9, 42, 64
13, 74450, Note_off_c, 9, 35, 64
13, 74640, Note_on_c, 9, 42, 70
13, 74640, Note_on_c, 9, 37, 85
13, 74690, Note_off_c, 9, 37, 64
13, 74690, Note_off_c, 9, 42, 64
13, 74812, Note_on_c, 9, 42, 50
13, 74862, Note_off_c, 9, 42, 64
13, 74880, Note_on_c, 9, 35, 60
13, 74880, Note_on_c, 9, 42, 70
13, 74930, Note_off_c, 9, 42, 64
13, 74930, Note_off_c, 9, 35, 64
13, 75120, Note_on_c, 9, 42, 80
13, 75120, Note_on_c, 9, 37, 70
13, 75170, Note_off_c, 9, 37, 64
13, 75170, Note_off_c, 9, 42, 64
13, 75296, Note_on_c, 9, 42, 40
13, 75346, Note_off_c, 9, 42, 64
13, 75360, Note_on_c, 9, 35, 60
13, 75360, Note_on_c, 9, 42, 80
13, 75410, Note_off_c, 9, 42, 64
13, 75410, Note_off_c, 9, 35, 64
13, 75600, Note_on_c, 9, 42, 80
13, 75600, Note_on_c, 9, 37, 80
13, 75650, Note_off_c, 9, 37, 64
13, 75650, Note_off_c, 9, 42, 64
13, 75776, Note_on_c, 9, 42, 50
13, 75826, Note_off_c, 9, 42, 64
13, 75840, Note_on_c, 9, 35, 60
13, 75840, Note_on_c, 9, 42, 70
13, 75890, Note_off_c, 9, 42, 64
13, 75890, Note_off_c, 9, 35, 64
13, 76080, Note_on_c, 9, 42, 80
13, 76080, Note_on_c, 9, 37, 70
13, 76130, Note_off_c, 9, 37, 64
13, 76130, Note_off_c, 9, 42, 64
13, 76256, Note_on_c, 9, 42, 40
13, 76306, Note_off_c, 9, 42, 64
13, 76320, Note_on_c, 9, 35, 60
13, 76320, Note_on_c, 9, 42, 80
13, 76370, Note_off_c, 9, 42, 64
13, 76370, Note_off_c, 9, 35, 64
13, 76560, Note_on_c, 9, 42, 80
13, 76560, Note_on_c, 9, 37, 80
13, 76610, Note_off_c, 9, 37, 64
13, 76610, Note_off_c, 9, 42, 64
13, 76736, Note_on_c, 9, 42, 50
13, 76786, Note_off_c, 9, 42, 64
13, 76800, Note_on_c, 9, 35, 60
13, 76800, Note_on_c, 9, 42, 70
13, 76850, Note_off_c, 9, 42, 64
13, 76850, Note_off_c, 9, 35, 64
13, 77040, Note_on_c, 9, 42, 90
13, 77040, Note_on_c, 9, 37, 70
13, 77090, Note_off_c, 9, 37, 64
13, 77090, Note_off_c, 9, 42, 64
13, 77216, Note_on_c, 9, 42, 40
13, 77266, Note_off_c, 9, 42, 64
13, 77280, Note_on_c, 9, 35, 60
13, 77280, Note_on_c, 9, 42, 80
13, 77330, Note_off_c, 9, 42, 64
13, 77330, Note_off_c, 9, 35, 64
13, 77520, Note_on_c, 9, 42, 90
13, 77520, Note_on_c, 9, 37, 80
13, 77570, Note_off_c, 9, 37, 64
13, 77570, Note_off_c, 9, 42, 64
13, 77696, Note_on_c, 9, 35, 50
13, 77696, Note_on_c, 9, 42, 50
13, 77746, Note_off_c, 9, 42, 64
13, 77746, Note_off_c, 9, 35, 64
13, 77760, Note_on_c, 9, 38, 50
13, 77760, Note_on_c, 9, 42, 70
13, 77810, Note_off_c, 9, 42, 64
13, 77810, Note_off_c, 9, 38, 64
13, 77928, Note_on_c, 9, 35, 70
13, 77978, Note_off_c, 9, 35, 64
13, 78000, Note_on_c, 9, 42, 80
13, 78050, Note_off_c, 9, 42, 64
13, 78168, Note_on_c, 9, 38, 50
13, 78218, Note_off_c, 9, 38, 64
13, 78240, Note_on_c, 9, 35, 60
13, 78240, Note_on_c, 9, 42, 70
13, 78290, Note_off_c, 9, 42, 64
13, 78290, Note_off_c, 9, 35, 64
13, 78408, Note_on_c, 9, 38, 30
13, 78458, Note_off_c, 9, 38, 64
13, 78480, Note_on_c, 9, 38, 50
13, 78480, Note_on_c, 9, 42, 100
13, 78530, Note_off_c, 9, 42, 64
13, 78530, Note_off_c, 9, 38, 64
13, 78560, Note_on_c, 9, 38, 25
13, 78610, Note_off_c, 9, 38, 64
13, 78648, Note_on_c, 9, 38, 40
13, 78698, Note_off_c, 9, 38, 64
13, 78720, Note_on_c, 9, 38, 50
13, 78770, Note_off_c, 9, 38, 64
13, 78960, Note_on_c, 9, 42, 80
13, 78960, Note_on_c, 9, 37, 70
13, 78960, Note_on_c, 9, 51, 90
13, 79010, Note_off_c, 9, 51, 64
13, 79010, Note_off_c, 9, 37, 64
13, 79010, Note_off_c, 9, 42, 64
13, 79134, Note_on_c, 9, 51, 70
13, 79184, Note_off_c, 9, 51, 64
13, 79200, Note_on_c, 9, 38, 40
13, 79200, Note_on_c, 9, 51, 70
13, 79250, Note_off_c, 9, 51, 64
13, 79250, Note_off_c, 9, 38, 64
13, 79440, Note_on_c, 9, 42, 100
13, 79440, Note_on_c, 9, 37, 70
13, 79440, Note_on_c, 9, 51, 90
13, 79490, Note_off_c, 9, 51, 64
13, 79490, Note_off_c, 9, 37, 64
13, 79490, Note_off_c, 9, 42, 64
13, 79614, Note_on_c, 9, 51, 70
13, 79664, Note_off_c, 9, 51, 64
13, 79680, Note_on_c, 9, 51, 80
13, 79730, Note_off_c, 9, 51, 64
13, 79920, Note_on_c, 9, 42, 70
13, 79920, Note_on_c, 9, 37, 70
13, 79920, Note_on_c, 9, 51, 90
13, 79970, Note_off_c, 9, 51, 64
13, 79970, Note_off_c, 9, 37, 64
13, 79970, Note_off_c, 9, 42, 64
13, 80094, Note_on_c, 9, 51, 70
13, 80144, Note_off_c, 9, 51, 64
13, 80160, Note_on_c, 9, 51, 90
13, 80210, Note_off_c, 9, 51, 64
13, 80400, Note_on_c, 9, 42, 100
13, 80400, Note_on_c, 9, 51, 90
13, 80450, Note_off_c, 9, 51, 64
13, 80450, Note_off_c, 9, 42, 64
13, 80574, Note_on_c, 9, 51, 70
13, 80624, Note_off_c, 9, 51, 64
13, 80640, Note_on_c, 9, 51, 70
13, 80690, Note_off_c, 9, 51, 64
13, 80880, Note_on_c, 9, 42, 90
13, 80880, Note_on_c, 9, 37, 60
13, 80880, Note_on_c, 9, 51, 90
13, 80930, Note_off_c, 9, 51, 64
13, 80930, Note_off_c, 9, 37, 64
13, 80930, Note_off_c, 9, 42, 64
13, 81056, Note_on_c, 9, 38, 40
13, 81056, Note_on_c, 9, 51, 70
13, 81106, Note_off_c, 9, 51, 64
13, 81106, Note_off_c, 9, 38, 64
13, 81120, Note_on_c, 9, 51, 80
13, 81170, Note_off_c, 9, 51, 64
13, 81360, Note_on_c, 9, 42, 100
13, 81360, Note_on_c, 9, 37, 70
13, 81360, Note_on_c, 9, 51, 90
13, 81410, Note_off_c, 9, 51, 64
13, 81410, Note_off_c, 9, 37, 64
13, 81410, Note_off_c, 9, 42, 64
13, 81536, Note_on_c, 9, 51, 70
13, 81586, Note_off_c, 9, 51, 64
13, 81600, Note_on_c, 9, 51, 80
13, 81650, Note_off_c, 9, 51, 64
13, 81840, Note_on_c, 9, 42, 80
13, 81840, Note_on_c, 9, 37, 70
13, 81840, Note_on_c, 9, 51, 90
13, 81890, Note_off_c, 9, 51, 64
13, 81890, Note_off_c, 9, 37, 64
13, 81890, Note_off_c, 9, 42, 64
13, 82016, Note_on_c, 9, 51, 70
13, 82066, Note_off_c, 9, 51, 64
13, 82080, Note_on_c, 9, 38, 40
13, 82080, Note_on_c, 9, 51, 80
13, 82130, Note_off_c, 9, 51, 64
13, 82130, Note_off_c, 9, 38, 64
13, 82320, Note_on_c, 9, 42, 100
13, 82320, Note_on_c, 9, 37, 70
13, 82320, Note_on_c, 9, 51, 90
13, 82370, Note_off_c, 9, 51, 64
13, 82370, Note_off_c, 9, 37, 64
13, 82370, Note_off_c, 9, 42, 64
13, 82496, Note_on_c, 9, 51, 70
13, 82546, Note_off_c, 9, 51, 64
13, 82560, Note_on_c, 9, 51, 70
13, 82610, Note_off_c, 9, 51, 64
13, 82800, Note_on_c, 9, 42, 100
13, 82800, Note_on_c, 9, 37, 70
13, 82800, Note_on_c, 9, 51, 90
13, 82850, Note_off_c, 9, 51, 64
13, 82850, Note_off_c, 9, 37, 64
13, 82850, Note_off_c, 9, 42, 64
13, 82974, Note_on_c, 9, 38, 40
13, 82974, Note_on_c, 9, 51, 50
13, 83024, Note_off_c, 9, 51, 64
13, 83024, Note_off_c, 9, 38, 64
13, 83040, Note_on_c, 9, 51, 80
13, 83090, Note_off_c, 9, 51, 64
13, 83280, Note_on_c, 9, 42, 100
13, 83280, Note_on_c, 9, 37, 70
13, 83280, Note_on_c, 9, 51, 90
13, 83330, Note_off_c, 9, 51, 64
13, 83330, Note_off_c, 9, 37, 64
13, 83330, Note_off_c, 9, 42, 64
13, 83454, Note_on_c, 9, 38, 40
13, 83454, Note_on_c, 9, 51, 50
13, 83504, Note_off_c, 9, 51, 64
13, 83504, Note_off_c, 9, 38, 64
13, 83520, Note_on_c, 9, 51, 80
13, 83570, Note_off_c, 9, 51, 64
13, 83760, Note_on_c, 9, 42, 70
13, 83760, Note_on_c, 9, 37, 70
13, 83760, Note_on_c, 9, 51, 90
13, 83810, Note_off_c, 9, 51, 64
13, 83810, Note_off_c, 9, 37, 64
13, 83810, Note_off_c, 9, 42, 64
13, 83934, Note_on_c, 9, 51, 70
13, 83984, Note_off_c, 9, 51, 64
13, 84000, Note_on_c, 9, 51, 90
13, 84050, Note_off_c, 9, 51, 64
13, 84240, Note_on_c, 9, 42, 100
13, 84240, Note_on_c, 9, 51, 90
13, 84290, Note_off_c, 9, 51, 64
13, 84290, Note_off_c, 9, 42, 64
13, 84414, Note_on_c, 9, 51, 70
13, 84464, Note_off_c, 9, 51, 64
13, 84480, Note_on_c, 9, 51, 70
13, 84530, Note_off_c, 9, 51, 64
13, 84720, Note_on_c, 9, 42, 100
13, 84720, Note_on_c, 9, 37, 70
13, 84720, Note_on_c, 9, 51, 90
13, 84770, Note_off_c, 9, 51, 64
13, 84770, Note_off_c, 9, 37, 64
13, 84770, Note_off_c, 9, 42, 64
13, 84894, Note_on_c, 9, 38, 40
13, 84894, Note_on_c, 9, 51, 50
13, 84944, Note_off_c, 9, 51, 64
13, 84944, Note_off_c, 9, 38, 64
13, 84960, Note_on_c, 9, 51, 80
13, 85010, Note_off_c, 9, 51, 64
13, 85200, Note_on_c, 9, 42, 100
13, 85200, Note_on_c, 9, 37, 70
13, 85200, Note_on_c, 9, 51, 90
13, 85250, Note_off_c, 9, 51, 64
13, 85250, Note_off_c, 9, 37, 64
13, 85250, Note_off_c, 9, 42, 64
13, 85374, Note_on_c, 9, 38, 40
13, 85374, Note_on_c, 9, 51, 50
13, 85424, Note_off_c, 9, 51, 64
13, 85424, Note_off_c, 9, 38, 64
13, 85440, Note_on_c, 9, 51, 80
13, 85490, Note_off_c, 9, 51, 64
13, 85616, Note_on_c, 9, 38, 30
13, 85666, Note_off_c, 9, 38, 64
13, 85680, Note_on_c, 9, 42, 80
13, 85680, Note_on_c, 9, 37, 70
13, 85680, Note_on_c, 9, 51, 90
13, 85730, Note_off_c, 9, 51, 64
13, 85730, Note_off_c, 9, 37, 64
13, 85730, Note_off_c, 9, 42, 64
13, 85856, Note_on_c, 9, 38, 40
13, 85856, Note_on_c, 9, 51, 70
13, 85906, Note_off_c, 9, 51, 64
13, 85906, Note_off_c, 9, 38, 64
13, 85920, Note_on_c, 9, 51, 80
13, 85970, Note_off_c, 9, 51, 64
13, 86096, Note_on_c, 9, 38, 30
13, 86146, Note_off_c, 9, 38, 64
13, 86160, Note_on_c, 9, 42, 100
13, 86160, Note_on_c, 9, 37, 70
13, 86160, Note_on_c, 9, 51, 90
13, 86210, Note_off_c, 9, 51, 64
13, 86210, Note_off_c, 9, 37, 64
13, 86210, Note_off_c, 9, 42, 64
13, 86336, Note_on_c, 9, 51, 70
13, 86386, Note_off_c, 9, 51, 64
13, 86400, Note_on_c, 9, 51, 80
13, 86450, Note_off_c, 9, 51, 64
13, 86640, Note_on_c, 9, 42, 80
13, 86640, Note_on_c, 9, 37, 70
13, 86640, Note_on_c, 9, 51, 90
13, 86690, Note_off_c, 9, 51, 64
13, 86690, Note_off_c, 9, 37, 64
13, 86690, Note_off_c, 9, 42, 64
13, 86816, Note_on_c, 9, 51, 70
13, 86866, Note_off_c, 9, 51, 64
13, 86880, Note_on_c, 9, 38, 40
13, 86880, Note_on_c, 9, 51, 80
13, 86930, Note_off_c, 9, 51, 64
13, 86930, Note_off_c, 9, 38, 64
13, 87120, Note_on_c, 9, 42, 100
13, 87120, Note_on_c, 9, 37, 70
13, 87120, Note_on_c, 9, 51, 90
13, 87170, Note_off_c, 9, 51, 64
13, 87170, Note_off_c, 9, 37, 64
13, 87170, Note_off_c, 9, 42, 64
13, 87296, Note_on_c, 9, 51, 70
13, 87346, Note_off_c, 9, 51, 64
13, 87360, Note_on_c, 9, 51, 80
13, 87410, Note_off_c, 9, 51, 64
13, 87600, Note_on_c, 9, 42, 70
13, 87600, Note_on_c, 9, 37, 70
13, 87600, Note_on_c, 9, 51, 90
13, 87650, Note_off_c, 9, 51, 64
13, 87650, Note_off_c, 9, 37, 64
13, 87650, Note_off_c, 9, 42, 64
13, 87774, Note_on_c, 9, 51, 70
13, 87824, Note_off_c, 9, 51, 64
13, 87840, Note_on_c, 9, 51, 90
13, 87890, Note_off_c, 9, 51, 64
13, 88080, Note_on_c, 9, 42, 100
13, 88080, Note_on_c, 9, 51, 90
13, 88130, Note_off_c, 9, 51, 64
13, 88130, Note_off_c, 9, 42, 64
13, 88254, Note_on_c, 9, 51, 70
13, 88304, Note_off_c, 9, 51, 64
13, 88320, Note_on_c, 9, 51, 70
13, 88370, Note_off_c, 9, 51, 64
13, 88560, Note_on_c, 9, 42, 90
13, 88560, Note_on_c, 9, 37, 60
13, 88560, Note_on_c, 9, 51, 90
13, 88610, Note_off_c, 9, 51, 64
13, 88610, Note_off_c, 9, 37, 64
13, 88610, Note_off_c, 9, 42, 64
13, 88736, Note_on_c, 9, 38, 40
13, 88736, Note_on_c, 9, 51, 70
13, 88786, Note_off_c, 9, 51, 64
13, 88786, Note_off_c, 9, 38, 64
13, 88800, Note_on_c, 9, 51, 80
13, 88850, Note_off_c, 9, 51, 64
13, 89040, Note_on_c, 9, 42, 100
13, 89040, Note_on_c, 9, 37, 70
13, 89040, Note_on_c, 9, 51, 90
13, 89090, Note_off_c, 9, 51, 64
13, 89090, Note_off_c, 9, 37, 64
13, 89090, Note_off_c, 9, 42, 64
13, 89216, Note_on_c, 9, 51, 70
13, 89266, Note_off_c, 9, 51, 64
13, 89280, Note_on_c, 9, 51, 70
13, 89330, Note_off_c, 9, 51, 64
13, 89520, Note_on_c, 9, 42, 80
13, 89520, Note_on_c, 9, 37, 70
13, 89520, Note_on_c, 9, 51, 90
13, 89570, Note_off_c, 9, 51, 64
13, 89570, Note_off_c, 9, 37, 64
13, 89570, Note_off_c, 9, 42, 64
13, 89694, Note_on_c, 9, 51, 70
13, 89744, Note_off_c, 9, 51, 64
13, 89760, Note_on_c, 9, 51, 80
13, 89810, Note_off_c, 9, 51, 64
13, 90000, Note_on_c, 9, 42, 100
13, 90000, Note_on_c, 9, 37, 80
13, 90000, Note_on_c, 9, 51, 90
13, 90050, Note_off_c, 9, 51, 64
13, 90050, Note_off_c, 9, 37, 64
13, 90050, Note_off_c, 9, 42, 64
13, 90174, Note_on_c, 9, 51, 70
13, 90224, Note_off_c, 9, 51, 64
13, 90240, Note_on_c, 9, 51, 70
13, 90290, Note_off_c, 9, 51, 64
13, 90416, Note_on_c, 9, 38, 60
13, 90466, Note_off_c, 9, 38, 64
13, 90480, Note_on_c, 9, 42, 90
13, 90480, Note_on_c, 9, 37, 60
13, 90480, Note_on_c, 9, 51, 90
13, 90530, Note_off_c, 9, 51, 64
13, 90530, Note_off_c, 9, 37, 64
13, 90530, Note_off_c, 9, 42, 64
13, 90656, Note_on_c, 9, 38, 40
13, 90656, Note_on_c, 9, 51, 70
13, 90706, Note_off_c, 9, 51, 64
13, 90706, Note_off_c, 9, 38, 64
13, 90720, Note_on_c, 9, 51, 80
13, 90770, Note_off_c, 9, 51, 64
13, 90960, Note_on_c, 9, 42, 100
13, 90960, Note_on_c, 9, 37, 70
13, 90960, Note_on_c, 9, 51, 90
13, 91010, Note_off_c, 9, 51, 64
13, 91010, Note_off_c, 9, 37, 64
13, 91010, Note_off_c, 9, 42, 64
13, 91136, Note_on_c, 9, 51, 70
13, 91186, Note_off_c, 9, 51, 64
13, 91200, Note_on_c, 9, 51, 80
13, 91250, Note_off_c, 9, 51, 64
13, 91440, Note_on_c, 9, 42, 70
13, 91440, Note_on_c, 9, 37, 70
13, 91440, Note_on_c, 9, 51, 90
13, 91490, Note_off_c, 9, 51, 64
13, 91490, Note_off_c, 9, 37, 64
13, 91490, Note_off_c, 9, 42, 64
13, 91614, Note_on_c, 9, 51, 70
13, 91664, Note_off_c, 9, 51, 64
13, 91680, Note_on_c, 9, 51, 90
13, 91730, Note_off_c, 9, 51, 64
13, 91920, Note_on_c, 9, 42, 100
13, 91920, Note_on_c, 9, 51, 90
13, 91970, Note_off_c, 9, 51, 64
13, 91970, Note_off_c, 9, 42, 64
13, 92094, Note_on_c, 9, 51, 70
13, 92144, Note_off_c, 9, 51, 64
13, 92160, Note_on_c, 9, 51, 70
13, 92210, Note_off_c, 9, 51, 64
13, 92400, Note_on_c, 9, 42, 90
13, 92400, Note_on_c, 9, 37, 60
13, 92400, Note_on_c, 9, 51, 90
13, 92450, Note_off_c, 9, 51, 64
13, 92450, Note_off_c, 9, 37, 64
13, 92450, Note_off_c, 9, 42, 64
13, 92576, Note_on_c, 9, 38, 40
13, 92576, Note_on_c, 9, 51, 70
13, 92626, Note_off_c, 9, 51, 64
13, 92626, Note_off_c, 9, 38, 64
13, 92640, Note_on_c, 9, 51, 80
13, 92690, Note_off_c, 9, 51, 64
13, 92880, Note_on_c, 9, 42, 100
13, 92880, Note_on_c, 9, 37, 70
13, 92880, Note_on_c, 9, 51, 90
13, 92930, Note_off_c, 9, 51, 64
13, 92930, Note_off_c, 9, 37, 64
13, 92930, Note_off_c, 9, 42, 64
13, 93056, Note_on_c, 9, 51, 70
13, 93106, Note_off_c, 9, 51, 64
13, 93120, Note_on_c, 9, 38, 70
13, 93120, Note_on_c, 9, 51, 70
13, 93170, Note_off_c, 9, 51, 64
13, 93170, Note_off_c, 9, 38, 64
13, 93284, Note_on_c, 9, 35, 80
13, 93334, Note_off_c, 9, 35, 64
13, 93360, Note_on_c, 9, 42, 70
13, 93360, Note_on_c, 9, 51, 90
13, 93410, Note_off_c, 9, 51, 64
13, 93410, Note_off_c, 9, 42, 64
13, 93524, Note_on_c, 9, 38, 80
13, 93574, Note_off_c, 9, 38, 64
13, 93600, Note_on_c, 9, 35, 90
13, 93600, Note_on_c, 9, 51, 80
13, 93650, Note_off_c, 9, 51, 64
13, 93650, Note_off_c, 9, 35, 64
13, 93764, Note_on_c, 9, 38, 60
13, 93814, Note_off_c, 9, 38, 64
13, 93840, Note_on_c, 9, 42, 100
13, 93840, Note_on_c, 9, 51, 90
13, 93890, Note_off_c, 9, 51, 64
13, 93890, Note_off_c, 9, 42, 64
13, 93920, Note_on_c, 9, 38, 40
13, 93970, Note_off_c, 9, 38, 64
13, 94004, Note_on_c, 9, 38, 40
13, 94004, Note_on_c, 9, 45, 70
13, 94054, Note_off_c, 9, 45, 64
13, 94054, Note_off_c, 9, 38, 64
13, 94080, Note_on_c, 9, 35, 60
13, 94080, Note_on_c, 9, 49, 40
13, 94130, Note_off_c, 9, 49, 64
13, 94130, Note_off_c, 9, 35, 64
13, 94252, Note_on_c, 9, 38, 50
13, 94302, Note_off_c, 9, 38, 64
13, 94320, Note_on_c, 9, 42, 80
13, 94370, Note_off_c, 9, 42, 64
13, 94492, Note_on_c, 9, 38, 40
13, 94542, Note_off_c, 9, 38, 64
13, 94560, Note_on_c, 9, 42, 70
13, 94610, Note_off_c, 9, 42, 64
13, 94732, Note_on_c, 9, 38, 60
13, 94782, Note_off_c, 9, 38, 64
13, 94800, Note_on_c, 9, 46, 80
13, 94850, Note_off_c, 9, 46, 64
13, 94880, Note_on_c, 9, 38, 60
13, 94930, Note_off_c, 9, 38, 64
13, 94972, Note_on_c, 9, 38, 50
13, 95022, Note_off_c, 9, 38, 64
13, 95040, Note_on_c, 9, 35, 70
13, 95040, Note_on_c, 9, 38, 70
13, 95090, Note_off_c, 9, 38, 64
13, 95090, Note_off_c, 9, 35, 64
13, 95200, Note_on_c, 9, 38, 30
13, 95250, Note_off_c, 9, 38, 64
13, 95280, Note_on_c, 9, 38, 60
13, 95330, Note_off_c, 9, 38, 64
13, 95440, Note_on_c, 9, 35, 50
13, 95440, Note_on_c, 9, 38, 70
13, 95490, Note_off_c, 9, 38, 64
13, 95490, Note_off_c, 9, 35, 64
13, 95600, Note_on_c, 9, 38, 20
13, 95650, Note_off_c, 9, 38, 64
13, 95680, Note_on_c, 9, 38, 25
13, 95730, Note_off_c, 9, 38, 64
13, 95760, Note_on_c, 9, 35, 80
13, 95760, Note_on_c, 9, 38, 60
13, 95810, Note_off_c, 9, 38, 64
13, 95810, Note_off_c, 9, 35, 64
13, 95810, End_track
14, 0, Start_track
14, 0, End_track
15, 0, Start_track
15, 0, Title_t, "All instr/Roland Sound Canvas"
15, 0, End_track
16, 0, Start_track
16, 0, Title_t, "Freely distr/ GS/GMidi type 1"
16, 0, End_track
17, 0, Start_track
17, 0, Title_t, "DO NOT  attempt to sell this "
17, 0, End_track
18, 0, Start_track
18, 0, Title_t, "copyright tune"
18, 0, End_track
19, 0, Start_track
19, 0, Title_t, "Contact kmel@powernet.net"
19, 0, End_track
20, 0, Start_track
20, 0, Title_t, "Run time 4:10 / Ez listening"
20, 0, End_track
21, 0, Start_track
21, 0, Title_t, "OCT 18 / 98"
21, 0, End_track
0, 0, End_of_file
