0, 0, Header, 1, 16, 384
1, 0, Start_track
1, 0, Time_signature, 4, 2, 96, 8
1, 0, Sequencer_specific, 3, 0, 0, 65
1, 0, Tempo, 535714
1, 0, End_track
2, 0, Start_track
2, 0, Title_t, "Drums"
2, 0, Control_c, 9, 10, 67
2, 0, Key_signature, 0, "major"
2, 3072, Note_on_c, 9, 41, 42
2, 3412, Note_off_c, 9, 41, 41
2, 3456, Note_on_c, 9, 51, 43
2, 3456, Note_on_c, 9, 49, 43
2, 3628, Note_off_c, 9, 49, 25
2, 3636, Note_off_c, 9, 51, 20
2, 3840, Note_on_c, 9, 41, 43
2, 3964, Note_off_c, 9, 41, 52
2, 4224, Note_on_c, 9, 49, 43
2, 4224, Note_on_c, 9, 51, 43
2, 4360, Note_off_c, 9, 49, 32
2, 4364, Note_off_c, 9, 51, 34
2, 4608, Note_on_c, 9, 41, 43
2, 4608, Note_off_c, 9, 41, 46
2, 4992, Note_on_c, 9, 49, 43
2, 4992, Note_on_c, 9, 51, 43
2, 5096, Note_off_c, 9, 49, 28
2, 5104, Note_off_c, 9, 51, 40
2, 5376, Note_on_c, 9, 41, 45
2, 5484, Note_off_c, 9, 41, 40
2, 5760, Note_on_c, 9, 49, 45
2, 5760, Note_on_c, 9, 51, 45
2, 5848, Note_off_c, 9, 51, 52
2, 5852, Note_off_c, 9, 49, 56
2, 6144, Note_on_c, 9, 41, 45
2, 6264, Note_off_c, 9, 41, 60
2, 6528, Note_on_c, 9, 49, 45
2, 6528, Note_on_c, 9, 51, 45
2, 6616, Note_off_c, 9, 49, 55
2, 6620, Note_off_c, 9, 51, 65
2, 6912, Note_on_c, 9, 41, 45
2, 7032, Note_off_c, 9, 41, 47
2, 7296, Note_on_c, 9, 51, 46
2, 7296, Note_on_c, 9, 49, 46
2, 7384, Note_off_c, 9, 49, 32
2, 7392, Note_off_c, 9, 51, 36
2, 7680, Note_on_c, 9, 41, 46
2, 7808, Note_off_c, 9, 41, 46
2, 8064, Note_on_c, 9, 49, 46
2, 8064, Note_on_c, 9, 51, 46
2, 8168, Note_off_c, 9, 49, 40
2, 8172, Note_off_c, 9, 51, 35
2, 8448, Note_on_c, 9, 41, 46
2, 8576, Note_off_c, 9, 41, 46
2, 8832, Note_on_c, 9, 49, 46
2, 8832, Note_on_c, 9, 51, 46
2, 8940, Note_off_c, 9, 49, 27
2, 8952, Note_off_c, 9, 51, 52
2, 9216, Note_on_c, 9, 41, 46
2, 9312, Note_off_c, 9, 41, 60
2, 9600, Note_on_c, 9, 49, 46
2, 9600, Note_on_c, 9, 51, 46
2, 9688, Note_off_c, 9, 49, 40
2, 9700, Note_off_c, 9, 51, 46
2, 10368, Note_on_c, 9, 49, 46
2, 10368, Note_on_c, 9, 51, 46
2, 10472, Note_off_c, 9, 49, 27
2, 10476, Note_off_c, 9, 51, 34
2, 11136, Note_on_c, 9, 49, 47
2, 11136, Note_on_c, 9, 51, 47
2, 11264, Note_off_c, 9, 49, 17
2, 11280, Note_off_c, 9, 51, 22
2, 11520, Note_on_c, 9, 41, 47
2, 11612, Note_off_c, 9, 41, 50
2, 11904, Note_on_c, 9, 51, 47
2, 11904, Note_on_c, 9, 49, 47
2, 12008, Note_off_c, 9, 49, 25
2, 12024, Note_off_c, 9, 51, 40
2, 12672, Note_on_c, 9, 49, 47
2, 12672, Note_on_c, 9, 51, 47
2, 12772, Note_off_c, 9, 49, 34
2, 12776, Note_off_c, 9, 51, 32
2, 13440, Note_on_c, 9, 49, 48
2, 13440, Note_on_c, 9, 51, 48
2, 13560, Note_off_c, 9, 49, 23
2, 13572, Note_off_c, 9, 51, 31
2, 14208, Note_on_c, 9, 51, 48
2, 14208, Note_on_c, 9, 49, 48
2, 14424, Note_off_c, 9, 51, 29
2, 14424, Note_off_c, 9, 49, 13
2, 15744, Note_on_c, 9, 49, 49
2, 15744, Note_on_c, 9, 51, 49
2, 15856, Note_off_c, 9, 49, 28
2, 15860, Note_off_c, 9, 51, 38
2, 16512, Note_on_c, 9, 49, 49
2, 16512, Note_on_c, 9, 51, 49
2, 16592, Note_off_c, 9, 49, 60
2, 16600, Note_off_c, 9, 51, 65
2, 17280, Note_on_c, 9, 49, 50
2, 17280, Note_on_c, 9, 51, 50
2, 17368, Note_off_c, 9, 49, 48
2, 17384, Note_off_c, 9, 51, 55
2, 18048, Note_on_c, 9, 49, 50
2, 18048, Note_on_c, 9, 51, 50
2, 18148, Note_off_c, 9, 49, 39
2, 18160, Note_off_c, 9, 51, 40
2, 18816, Note_on_c, 9, 49, 52
2, 18816, Note_on_c, 9, 51, 52
2, 18916, Note_off_c, 9, 49, 53
2, 18920, Note_off_c, 9, 51, 56
2, 19584, Note_on_c, 9, 49, 52
2, 19584, Note_on_c, 9, 51, 52
2, 19704, Note_off_c, 9, 49, 33
2, 19708, Note_off_c, 9, 51, 29
2, 19968, Note_on_c, 9, 41, 52
2, 20060, Note_off_c, 9, 41, 60
2, 20352, Note_on_c, 9, 49, 52
2, 20352, Note_on_c, 9, 51, 52
2, 20456, Note_off_c, 9, 49, 46
2, 20460, Note_off_c, 9, 51, 52
2, 20736, Note_on_c, 9, 41, 52
2, 20808, Note_off_c, 9, 41, 78
2, 21120, Note_on_c, 9, 49, 52
2, 21120, Note_on_c, 9, 51, 52
2, 21224, Note_off_c, 9, 49, 34
2, 21236, Note_off_c, 9, 51, 53
2, 21504, Note_on_c, 9, 41, 52
2, 21600, Note_off_c, 9, 41, 78
2, 21888, Note_on_c, 9, 49, 52
2, 21888, Note_on_c, 9, 51, 52
2, 21980, Note_off_c, 9, 49, 47
2, 21996, Note_off_c, 9, 51, 52
2, 22272, Note_on_c, 9, 41, 52
2, 22364, Note_off_c, 9, 41, 65
2, 22656, Note_on_c, 9, 49, 53
2, 22656, Note_on_c, 9, 51, 53
2, 22744, Note_off_c, 9, 49, 32
2, 22760, Note_off_c, 9, 51, 41
2, 23040, Note_on_c, 9, 41, 53
2, 23132, Note_off_c, 9, 41, 60
2, 23424, Note_on_c, 9, 49, 53
2, 23424, Note_on_c, 9, 51, 53
2, 23524, Note_off_c, 9, 49, 32
2, 23536, Note_off_c, 9, 51, 47
2, 23808, Note_on_c, 9, 41, 53
2, 23900, Note_off_c, 9, 41, 73
2, 24192, Note_on_c, 9, 49, 53
2, 24192, Note_on_c, 9, 51, 53
2, 24284, Note_off_c, 9, 49, 42
2, 24292, Note_off_c, 9, 51, 49
2, 24576, Note_on_c, 9, 41, 53
2, 24636, Note_off_c, 9, 41, 46
2, 24960, Note_on_c, 9, 49, 53
2, 24960, Note_on_c, 9, 51, 53
2, 25064, Note_off_c, 9, 49, 31
2, 25080, Note_off_c, 9, 51, 34
2, 25344, Note_on_c, 9, 41, 53
2, 25440, Note_off_c, 9, 41, 48
2, 25728, Note_on_c, 9, 49, 53
2, 25728, Note_on_c, 9, 51, 53
2, 25828, Note_off_c, 9, 49, 23
2, 25848, Note_off_c, 9, 51, 42
2, 26112, Note_on_c, 9, 41, 53
2, 26204, Note_off_c, 9, 41, 60
2, 26496, Note_on_c, 9, 51, 55
2, 26496, Note_on_c, 9, 49, 55
2, 26588, Note_off_c, 9, 49, 45
2, 26608, Note_off_c, 9, 51, 47
2, 26880, Note_on_c, 9, 41, 55
2, 26976, Note_off_c, 9, 41, 50
2, 27264, Note_on_c, 9, 49, 55
2, 27264, Note_on_c, 9, 51, 55
2, 27348, Note_off_c, 9, 49, 38
2, 27368, Note_off_c, 9, 51, 53
2, 27648, Note_on_c, 9, 41, 55
2, 27756, Note_off_c, 9, 41, 60
2, 28032, Note_on_c, 9, 49, 55
2, 28032, Note_on_c, 9, 51, 55
2, 28112, Note_off_c, 9, 49, 32
2, 28128, Note_off_c, 9, 51, 42
2, 28416, Note_on_c, 9, 41, 56
2, 28524, Note_off_c, 9, 41, 55
2, 28800, Note_on_c, 9, 51, 56
2, 28800, Note_on_c, 9, 49, 56
2, 28864, Note_off_c, 9, 49, 39
2, 28900, Note_off_c, 9, 51, 49
2, 29184, Note_on_c, 9, 41, 56
2, 29304, Note_off_c, 9, 41, 60
2, 29568, Note_on_c, 9, 49, 56
2, 29568, Note_on_c, 9, 51, 56
2, 29656, Note_off_c, 9, 49, 34
2, 29664, Note_off_c, 9, 51, 46
2, 29952, Note_on_c, 9, 41, 57
2, 30064, Note_off_c, 9, 41, 60
2, 30336, Note_on_c, 9, 49, 57
2, 30336, Note_on_c, 9, 51, 57
2, 30420, Note_off_c, 9, 49, 33
2, 30432, Note_off_c, 9, 51, 52
2, 30720, Note_on_c, 9, 41, 57
2, 30828, Note_off_c, 9, 41, 55
2, 31104, Note_on_c, 9, 49, 57
2, 31104, Note_on_c, 9, 51, 57
2, 31188, Note_off_c, 9, 49, 40
2, 31200, Note_off_c, 9, 51, 56
2, 31488, Note_on_c, 9, 41, 57
2, 31588, Note_off_c, 9, 41, 57
2, 31872, Note_on_c, 9, 51, 58
2, 31872, Note_on_c, 9, 49, 58
2, 31956, Note_off_c, 9, 49, 34
2, 31968, Note_off_c, 9, 51, 46
2, 32256, Note_on_c, 9, 41, 58
2, 32352, Note_off_c, 9, 41, 45
2, 32640, Note_on_c, 9, 51, 58
2, 32640, Note_on_c, 9, 49, 58
2, 33032, Note_off_c, 9, 49, 17
2, 33048, Note_off_c, 9, 51, 32
2, 34176, Note_on_c, 9, 49, 59
2, 34236, Note_off_c, 9, 49, 46
2, 35904, Note_on_c, 9, 42, 60
2, 36028, Note_off_c, 9, 42, 34
2, 36672, Note_on_c, 9, 42, 60
2, 36780, Note_off_c, 9, 42, 24
2, 37632, Note_on_c, 9, 42, 60
2, 37736, Note_off_c, 9, 42, 59
2, 38976, Note_on_c, 9, 42, 60
2, 39180, Note_off_c, 9, 42, 46
2, 39552, Note_on_c, 9, 42, 62
2, 39684, Note_off_c, 9, 42, 45
2, 40320, Note_on_c, 9, 42, 62
2, 40440, Note_off_c, 9, 42, 23
2, 41088, Note_on_c, 9, 42, 62
2, 41216, Note_off_c, 9, 42, 31
2, 41856, Note_on_c, 9, 44, 63
2, 42000, Note_off_c, 9, 44, 36
2, 42432, Note_on_c, 9, 44, 63
2, 42596, Note_off_c, 9, 44, 0
2, 43392, Note_on_c, 9, 44, 63
2, 43512, Note_off_c, 9, 44, 53
2, 43968, Note_on_c, 9, 44, 63
2, 44100, Note_off_c, 9, 44, 53
2, 44928, Note_on_c, 9, 44, 63
2, 45036, Note_off_c, 9, 44, 69
2, 45504, Note_on_c, 9, 44, 65
2, 45764, Note_off_c, 9, 44, 11
2, 46464, Note_on_c, 9, 44, 65
2, 46588, Note_off_c, 9, 44, 39
2, 47232, Note_on_c, 9, 44, 66
2, 47332, Note_off_c, 9, 44, 41
2, 49152, Note_on_c, 9, 36, 84
2, 49216, Note_off_c, 9, 36, 52
2, 49344, Note_on_c, 9, 36, 83
2, 49424, Note_off_c, 9, 36, 36
2, 49536, Note_on_c, 9, 46, 83
2, 49536, Note_on_c, 9, 42, 83
2, 49536, Note_on_c, 9, 36, 83
2, 49604, Note_off_c, 9, 36, 45
2, 49608, Note_off_c, 9, 46, 63
2, 49656, Note_off_c, 9, 42, 72
2, 49728, Note_on_c, 9, 36, 83
2, 49804, Note_off_c, 9, 36, 34
2, 49824, Note_on_c, 9, 46, 83
2, 49904, Note_off_c, 9, 46, 52
2, 49920, Note_on_c, 9, 38, 83
2, 49920, Note_on_c, 9, 36, 83
2, 49992, Note_off_c, 9, 36, 46
2, 50016, Note_off_c, 9, 38, 34
2, 50112, Note_on_c, 9, 49, 83
2, 50112, Note_on_c, 9, 51, 83
2, 50112, Note_on_c, 9, 46, 83
2, 50112, Note_on_c, 9, 36, 83
2, 50192, Note_off_c, 9, 36, 36
2, 50216, Note_off_c, 9, 49, 57
2, 50252, Note_off_c, 9, 51, 41
2, 50292, Note_off_c, 9, 46, 40
2, 50304, Note_on_c, 9, 36, 82
2, 50380, Note_off_c, 9, 36, 41
2, 50496, Note_on_c, 9, 36, 82
2, 50572, Note_off_c, 9, 36, 40
2, 50688, Note_on_c, 9, 42, 82
2, 50688, Note_on_c, 9, 36, 82
2, 50688, Note_on_c, 9, 46, 82
2, 50764, Note_off_c, 9, 36, 60
2, 50768, Note_off_c, 9, 46, 46
2, 50808, Note_off_c, 9, 42, 60
2, 50880, Note_on_c, 9, 36, 82
2, 50964, Note_off_c, 9, 36, 38
2, 51072, Note_on_c, 9, 36, 82
2, 51148, Note_off_c, 9, 36, 43
2, 51264, Note_on_c, 9, 46, 80
2, 51264, Note_on_c, 9, 36, 80
2, 51264, Note_on_c, 9, 42, 80
2, 51352, Note_off_c, 9, 36, 38
2, 51368, Note_off_c, 9, 46, 19
2, 51456, Note_off_c, 9, 42, 23
2, 51456, Note_on_c, 9, 36, 80
2, 51532, Note_off_c, 9, 36, 47
2, 51648, Note_on_c, 9, 36, 80
2, 51648, Note_on_c, 9, 42, 80
2, 51732, Note_off_c, 9, 36, 38
2, 51772, Note_off_c, 9, 42, 65
2, 51840, Note_on_c, 9, 49, 80
2, 51840, Note_on_c, 9, 51, 80
2, 51840, Note_on_c, 9, 36, 80
2, 51916, Note_off_c, 9, 36, 46
2, 51940, Note_off_c, 9, 49, 28
2, 52032, Note_on_c, 9, 36, 80
2, 52084, Note_off_c, 9, 51, 24
2, 52104, Note_off_c, 9, 36, 45
2, 52224, Note_on_c, 9, 36, 80
2, 52224, Note_on_c, 9, 42, 80
2, 52304, Note_off_c, 9, 36, 60
2, 52340, Note_off_c, 9, 42, 58
2, 52416, Note_on_c, 9, 36, 80
2, 52500, Note_off_c, 9, 36, 41
2, 52608, Note_on_c, 9, 46, 80
2, 52608, Note_on_c, 9, 36, 80
2, 52688, Note_off_c, 9, 46, 53
2, 52688, Note_off_c, 9, 36, 38
2, 52800, Note_on_c, 9, 36, 80
2, 52800, Note_on_c, 9, 42, 80
2, 52880, Note_off_c, 9, 36, 35
2, 52896, Note_on_c, 9, 46, 80
2, 52928, Note_off_c, 9, 42, 72
2, 52980, Note_off_c, 9, 46, 56
2, 52992, Note_on_c, 9, 36, 80
2, 52992, Note_on_c, 9, 38, 80
2, 53072, Note_off_c, 9, 36, 45
2, 53072, Note_off_c, 9, 38, 35
2, 53184, Note_on_c, 9, 36, 80
2, 53184, Note_on_c, 9, 46, 80
2, 53184, Note_on_c, 9, 42, 80
2, 53256, Note_off_c, 9, 36, 42
2, 53288, Note_off_c, 9, 42, 57
2, 53300, Note_off_c, 9, 46, 40
2, 53376, Note_on_c, 9, 36, 80
2, 53376, Note_on_c, 9, 49, 80
2, 53376, Note_on_c, 9, 51, 80
2, 53460, Note_off_c, 9, 36, 40
2, 53480, Note_off_c, 9, 49, 31
2, 53500, Note_off_c, 9, 51, 69
2, 53568, Note_on_c, 9, 36, 80
2, 53652, Note_off_c, 9, 36, 39
2, 53760, Note_on_c, 9, 36, 80
2, 53760, Note_on_c, 9, 42, 80
2, 53848, Note_off_c, 9, 36, 60
2, 53876, Note_off_c, 9, 42, 60
2, 53952, Note_on_c, 9, 36, 80
2, 54036, Note_off_c, 9, 36, 41
2, 54144, Note_on_c, 9, 36, 80
2, 54144, Note_on_c, 9, 46, 80
2, 54220, Note_off_c, 9, 46, 63
2, 54232, Note_off_c, 9, 36, 36
2, 54336, Note_on_c, 9, 42, 78
2, 54336, Note_on_c, 9, 36, 78
2, 54336, Note_on_c, 9, 46, 78
2, 54424, Note_off_c, 9, 36, 42
2, 54424, Note_off_c, 9, 46, 46
2, 54444, Note_off_c, 9, 42, 69
2, 54528, Note_on_c, 9, 38, 78
2, 54528, Note_on_c, 9, 36, 78
2, 54608, Note_off_c, 9, 36, 40
2, 54612, Note_off_c, 9, 38, 39
2, 54624, Note_on_c, 9, 42, 78
2, 54720, Note_on_c, 9, 46, 78
2, 54720, Note_on_c, 9, 36, 78
2, 54732, Note_off_c, 9, 42, 53
2, 54808, Note_off_c, 9, 36, 43
2, 54844, Note_off_c, 9, 46, 33
2, 54912, Note_on_c, 9, 49, 78
2, 54912, Note_on_c, 9, 51, 78
2, 54912, Note_on_c, 9, 36, 78
2, 54992, Note_off_c, 9, 36, 45
2, 54996, Note_off_c, 9, 49, 65
2, 55012, Note_off_c, 9, 51, 62
2, 55104, Note_on_c, 9, 46, 78
2, 55104, Note_on_c, 9, 36, 78
2, 55188, Note_off_c, 9, 46, 48
2, 55188, Note_off_c, 9, 36, 41
2, 55296, Note_on_c, 9, 36, 77
2, 55376, Note_off_c, 9, 36, 60
2, 55488, Note_on_c, 9, 36, 77
2, 55564, Note_off_c, 9, 36, 43
2, 55680, Note_on_c, 9, 46, 77
2, 55680, Note_on_c, 9, 36, 77
2, 55756, Note_off_c, 9, 46, 73
2, 55764, Note_off_c, 9, 36, 42
2, 55872, Note_on_c, 9, 51, 77
2, 55872, Note_on_c, 9, 49, 77
2, 55872, Note_on_c, 9, 36, 77
2, 55956, Note_off_c, 9, 49, 48
2, 55956, Note_off_c, 9, 36, 40
2, 55968, Note_on_c, 9, 46, 77
2, 55992, Note_off_c, 9, 51, 29
2, 56048, Note_off_c, 9, 46, 53
2, 56064, Note_on_c, 9, 38, 77
2, 56064, Note_on_c, 9, 36, 77
2, 56128, Note_off_c, 9, 38, 41
2, 56144, Note_off_c, 9, 36, 46
2, 56256, Note_on_c, 9, 46, 75
2, 56256, Note_on_c, 9, 36, 75
2, 56332, Note_off_c, 9, 46, 59
2, 56340, Note_off_c, 9, 36, 42
2, 56448, Note_on_c, 9, 51, 75
2, 56448, Note_on_c, 9, 49, 75
2, 56448, Note_on_c, 9, 36, 75
2, 56528, Note_off_c, 9, 36, 46
2, 56544, Note_off_c, 9, 49, 52
2, 56564, Note_off_c, 9, 51, 57
2, 56640, Note_on_c, 9, 36, 75
2, 56716, Note_off_c, 9, 36, 42
2, 56832, Note_on_c, 9, 36, 75
2, 56832, Note_on_c, 9, 42, 75
2, 56916, Note_off_c, 9, 36, 49
2, 56964, Note_off_c, 9, 42, 60
2, 57024, Note_on_c, 9, 36, 75
2, 57100, Note_off_c, 9, 36, 46
2, 57216, Note_on_c, 9, 46, 74
2, 57216, Note_on_c, 9, 36, 74
2, 57280, Note_off_c, 9, 46, 93
2, 57292, Note_off_c, 9, 36, 49
2, 57312, Note_on_c, 9, 51, 74
2, 57312, Note_on_c, 9, 49, 74
2, 57396, Note_off_c, 9, 49, 62
2, 57408, Note_on_c, 9, 36, 74
2, 57412, Note_off_c, 9, 51, 47
2, 57480, Note_off_c, 9, 36, 47
2, 57504, Note_on_c, 9, 46, 74
2, 57576, Note_off_c, 9, 46, 55
2, 57600, Note_on_c, 9, 38, 74
2, 57600, Note_on_c, 9, 36, 74
2, 57672, Note_off_c, 9, 38, 52
2, 57692, Note_off_c, 9, 36, 40
2, 57792, Note_on_c, 9, 46, 74
2, 57792, Note_on_c, 9, 36, 74
2, 57868, Note_off_c, 9, 46, 87
2, 57872, Note_off_c, 9, 36, 46
2, 57984, Note_on_c, 9, 36, 74
2, 58064, Note_off_c, 9, 36, 41
2, 58176, Note_on_c, 9, 36, 73
2, 58252, Note_off_c, 9, 36, 45
2, 58368, Note_on_c, 9, 36, 73
2, 58368, Note_on_c, 9, 42, 73
2, 58452, Note_off_c, 9, 36, 60
2, 58500, Note_off_c, 9, 42, 60
2, 58560, Note_on_c, 9, 36, 73
2, 58644, Note_off_c, 9, 36, 42
2, 58752, Note_on_c, 9, 36, 73
2, 58752, Note_on_c, 9, 46, 73
2, 58824, Note_off_c, 9, 46, 73
2, 58836, Note_off_c, 9, 36, 40
2, 58944, Note_on_c, 9, 49, 73
2, 58944, Note_on_c, 9, 51, 73
2, 58944, Note_on_c, 9, 36, 73
2, 59008, Note_off_c, 9, 49, 95
2, 59012, Note_off_c, 9, 36, 45
2, 59020, Note_off_c, 9, 51, 95
2, 59040, Note_on_c, 9, 46, 73
2, 59116, Note_off_c, 9, 46, 60
2, 59136, Note_on_c, 9, 38, 73
2, 59136, Note_on_c, 9, 36, 73
2, 59216, Note_off_c, 9, 38, 35
2, 59220, Note_off_c, 9, 36, 43
2, 59328, Note_on_c, 9, 46, 73
2, 59328, Note_on_c, 9, 36, 73
2, 59400, Note_off_c, 9, 36, 35
2, 59404, Note_off_c, 9, 46, 63
2, 59520, Note_on_c, 9, 36, 73
2, 59600, Note_off_c, 9, 36, 29
2, 59712, Note_on_c, 9, 46, 73
2, 59712, Note_on_c, 9, 36, 73
2, 59784, Note_off_c, 9, 36, 43
2, 59848, Note_off_c, 9, 46, 41
2, 59904, Note_on_c, 9, 42, 73
2, 59904, Note_on_c, 9, 36, 73
2, 59980, Note_off_c, 9, 36, 60
2, 60036, Note_off_c, 9, 42, 60
2, 60096, Note_on_c, 9, 36, 73
2, 60184, Note_off_c, 9, 36, 41
2, 60288, Note_on_c, 9, 36, 72
2, 60288, Note_on_c, 9, 46, 72
2, 60352, Note_off_c, 9, 46, 80
2, 60368, Note_off_c, 9, 36, 41
2, 60480, Note_on_c, 9, 51, 72
2, 60480, Note_on_c, 9, 49, 72
2, 60480, Note_on_c, 9, 36, 72
2, 60560, Note_off_c, 9, 36, 40
2, 60568, Note_off_c, 9, 49, 42
2, 60576, Note_on_c, 9, 46, 72
2, 60592, Note_off_c, 9, 51, 47
2, 60648, Note_off_c, 9, 46, 42
2, 60672, Note_on_c, 9, 38, 72
2, 60672, Note_on_c, 9, 36, 72
2, 60748, Note_off_c, 9, 36, 45
2, 60752, Note_off_c, 9, 38, 46
2, 60864, Note_on_c, 9, 51, 72
2, 60864, Note_on_c, 9, 49, 72
2, 60864, Note_on_c, 9, 46, 72
2, 60864, Note_on_c, 9, 36, 72
2, 60932, Note_off_c, 9, 46, 92
2, 60936, Note_off_c, 9, 36, 38
2, 61008, Note_off_c, 9, 49, 29
2, 61032, Note_off_c, 9, 51, 34
2, 61056, Note_on_c, 9, 36, 72
2, 61132, Note_off_c, 9, 36, 42
2, 61248, Note_on_c, 9, 46, 70
2, 61248, Note_on_c, 9, 36, 70
2, 61328, Note_off_c, 9, 36, 39
2, 61356, Note_off_c, 9, 46, 39
2, 61440, Note_on_c, 9, 42, 70
2, 61440, Note_on_c, 9, 36, 70
2, 61524, Note_off_c, 9, 36, 60
2, 61572, Note_off_c, 9, 42, 60
2, 61632, Note_on_c, 9, 36, 70
2, 61716, Note_off_c, 9, 36, 39
2, 61824, Note_on_c, 9, 36, 70
2, 61900, Note_off_c, 9, 36, 43
2, 62016, Note_on_c, 9, 51, 70
2, 62016, Note_on_c, 9, 49, 70
2, 62016, Note_on_c, 9, 36, 70
2, 62100, Note_off_c, 9, 36, 35
2, 62120, Note_off_c, 9, 49, 21
2, 62208, Note_on_c, 9, 49, 69
2, 62208, Note_on_c, 9, 36, 69
2, 62288, Note_off_c, 9, 36, 46
2, 62320, Note_off_c, 9, 51, 19
2, 62328, Note_off_c, 9, 49, 11
2, 62400, Note_on_c, 9, 36, 69
2, 62472, Note_off_c, 9, 36, 43
2, 62592, Note_on_c, 9, 46, 69
2, 62592, Note_on_c, 9, 36, 69
2, 62660, Note_off_c, 9, 46, 72
2, 62676, Note_off_c, 9, 36, 45
2, 62784, Note_on_c, 9, 36, 69
2, 62864, Note_off_c, 9, 36, 46
2, 62976, Note_on_c, 9, 36, 69
2, 62976, Note_on_c, 9, 42, 69
2, 63048, Note_off_c, 9, 36, 53
2, 63120, Note_off_c, 9, 42, 60
2, 63168, Note_on_c, 9, 36, 69
2, 63248, Note_off_c, 9, 36, 46
2, 63360, Note_on_c, 9, 46, 69
2, 63360, Note_on_c, 9, 36, 69
2, 63432, Note_off_c, 9, 36, 46
2, 63436, Note_off_c, 9, 46, 38
2, 63456, Note_on_c, 9, 49, 69
2, 63540, Note_off_c, 9, 49, 63
2, 63552, Note_on_c, 9, 51, 69
2, 63552, Note_on_c, 9, 36, 69
2, 63624, Note_off_c, 9, 36, 45
2, 63632, Note_off_c, 9, 51, 59
2, 63744, Note_on_c, 9, 36, 69
2, 63816, Note_off_c, 9, 36, 46
2, 63936, Note_on_c, 9, 46, 69
2, 63936, Note_on_c, 9, 36, 69
2, 64012, Note_off_c, 9, 36, 41
2, 64060, Note_off_c, 9, 46, 49
2, 64128, Note_on_c, 9, 36, 67
2, 64208, Note_off_c, 9, 36, 49
2, 64320, Note_on_c, 9, 36, 67
2, 64392, Note_off_c, 9, 36, 49
2, 64512, Note_on_c, 9, 42, 67
2, 64512, Note_on_c, 9, 36, 67
2, 64588, Note_off_c, 9, 36, 52
2, 64636, Note_off_c, 9, 42, 60
2, 64704, Note_on_c, 9, 36, 67
2, 64772, Note_off_c, 9, 36, 52
2, 64896, Note_on_c, 9, 46, 67
2, 64896, Note_on_c, 9, 36, 67
2, 64968, Note_off_c, 9, 46, 73
2, 64968, Note_off_c, 9, 36, 45
2, 65088, Note_on_c, 9, 51, 67
2, 65088, Note_on_c, 9, 49, 67
2, 65088, Note_on_c, 9, 36, 66
2, 65156, Note_off_c, 9, 49, 31
2, 65164, Note_off_c, 9, 36, 46
2, 65172, Note_off_c, 9, 51, 43
2, 65184, Note_on_c, 9, 46, 66
2, 65256, Note_off_c, 9, 46, 28
2, 65280, Note_on_c, 9, 38, 66
2, 65280, Note_on_c, 9, 36, 66
2, 65352, Note_off_c, 9, 38, 42
2, 65364, Note_off_c, 9, 36, 45
2, 65472, Note_on_c, 9, 46, 66
2, 65472, Note_on_c, 9, 36, 66
2, 65540, Note_off_c, 9, 36, 52
2, 65552, Note_off_c, 9, 46, 73
2, 65664, Note_on_c, 9, 51, 66
2, 65664, Note_on_c, 9, 49, 66
2, 65664, Note_on_c, 9, 36, 66
2, 65732, Note_off_c, 9, 49, 43
2, 65732, Note_off_c, 9, 36, 53
2, 65752, Note_off_c, 9, 51, 75
2, 65856, Note_on_c, 9, 36, 66
2, 65932, Note_off_c, 9, 36, 46
2, 66048, Note_on_c, 9, 42, 66
2, 66048, Note_on_c, 9, 36, 66
2, 66120, Note_off_c, 9, 36, 59
2, 66172, Note_off_c, 9, 42, 60
2, 66240, Note_on_c, 9, 36, 65
2, 66312, Note_off_c, 9, 36, 48
2, 66432, Note_on_c, 9, 46, 65
2, 66432, Note_on_c, 9, 36, 65
2, 66496, Note_off_c, 9, 46, 85
2, 66512, Note_off_c, 9, 36, 41
2, 66624, Note_on_c, 9, 36, 65
2, 66624, Note_on_c, 9, 51, 65
2, 66624, Note_on_c, 9, 49, 65
2, 66624, Note_on_c, 9, 46, 65
2, 66696, Note_off_c, 9, 36, 43
2, 66696, Note_off_c, 9, 49, 32
2, 66696, Note_off_c, 9, 46, 41
2, 66704, Note_off_c, 9, 51, 38
2, 66816, Note_on_c, 9, 38, 65
2, 66816, Note_on_c, 9, 36, 65
2, 66888, Note_off_c, 9, 36, 46
2, 66892, Note_off_c, 9, 38, 41
2, 67008, Note_on_c, 9, 46, 65
2, 67008, Note_on_c, 9, 36, 65
2, 67080, Note_off_c, 9, 36, 46
2, 67088, Note_off_c, 9, 46, 74
2, 67200, Note_on_c, 9, 36, 63
2, 67200, Note_on_c, 9, 51, 63
2, 67280, Note_off_c, 9, 36, 45
2, 67292, Note_off_c, 9, 51, 78
2, 67296, Note_on_c, 9, 49, 63
2, 67296, Note_off_c, 9, 49, 50
2, 67392, Note_on_c, 9, 36, 63
2, 67472, Note_off_c, 9, 36, 47
2, 67584, Note_on_c, 9, 36, 63
2, 67584, Note_on_c, 9, 42, 63
2, 67664, Note_off_c, 9, 36, 60
2, 67776, Note_on_c, 9, 36, 63
2, 67848, Note_off_c, 9, 36, 42
2, 67968, Note_on_c, 9, 36, 63
2, 68048, Note_off_c, 9, 36, 46
2, 68104, Note_off_c, 9, 42, 60
2, 68160, Note_on_c, 9, 36, 63
2, 68244, Note_off_c, 9, 36, 41
2, 68352, Note_on_c, 9, 42, 63
2, 68352, Note_on_c, 9, 36, 63
2, 68424, Note_off_c, 9, 36, 63
2, 68808, Note_off_c, 9, 42, 49
2, 69120, Note_on_c, 9, 42, 62
2, 69120, Note_on_c, 9, 36, 62
2, 69192, Note_off_c, 9, 36, 59
2, 69312, Note_on_c, 9, 36, 62
2, 69384, Note_off_c, 9, 36, 48
2, 69504, Note_on_c, 9, 46, 62
2, 69504, Note_on_c, 9, 36, 62
2, 69512, Note_off_c, 9, 42, 60
2, 69568, Note_off_c, 9, 46, 85
2, 69584, Note_off_c, 9, 36, 41
2, 69696, Note_on_c, 9, 36, 62
2, 69696, Note_on_c, 9, 46, 62
2, 69768, Note_off_c, 9, 36, 43
2, 69768, Note_off_c, 9, 46, 41
2, 69888, Note_on_c, 9, 38, 62
2, 69888, Note_on_c, 9, 42, 62
2, 69888, Note_on_c, 9, 36, 62
2, 69960, Note_off_c, 9, 36, 46
2, 69964, Note_off_c, 9, 38, 41
2, 70080, Note_on_c, 9, 46, 60
2, 70080, Note_on_c, 9, 36, 60
2, 70152, Note_off_c, 9, 36, 46
2, 70160, Note_off_c, 9, 46, 74
2, 70272, Note_on_c, 9, 36, 60
2, 70352, Note_off_c, 9, 36, 45
2, 70464, Note_on_c, 9, 36, 60
2, 70488, Note_off_c, 9, 42, 40
2, 70544, Note_off_c, 9, 36, 47
2, 70656, Note_on_c, 9, 42, 60
2, 70656, Note_on_c, 9, 36, 60
2, 70732, Note_off_c, 9, 36, 60
2, 70848, Note_on_c, 9, 36, 60
2, 70920, Note_off_c, 9, 36, 42
2, 71040, Note_on_c, 9, 36, 60
2, 71120, Note_off_c, 9, 36, 46
2, 71232, Note_on_c, 9, 36, 60
2, 71272, Note_off_c, 9, 42, 60
2, 71316, Note_off_c, 9, 36, 41
2, 71424, Note_on_c, 9, 42, 60
2, 71424, Note_on_c, 9, 36, 60
2, 71496, Note_off_c, 9, 36, 63
2, 71856, Note_off_c, 9, 42, 43
2, 72192, Note_on_c, 9, 42, 59
2, 72664, Note_off_c, 9, 42, 60
2, 72664, End_track
3, 0, Start_track
3, 0, Title_t, "Lo Vocals"
3, 0, Control_c, 1, 0, 0
3, 0, Program_c, 1, 85
3, 0, Control_c, 1, 10, 48
3, 0, Key_signature, 0, "major"
3, 3312, Note_on_c, 1, 50, 35
3, 3456, Note_on_c, 1, 54, 54
3, 3468, Note_off_c, 1, 50, 10
3, 3672, Note_on_c, 1, 57, 48
3, 3692, Note_off_c, 1, 54, 6
3, 3840, Note_on_c, 1, 55, 39
3, 3856, Note_off_c, 1, 57, 0
3, 4056, Note_on_c, 1, 54, 44
3, 4064, Note_off_c, 1, 55, 10
3, 4212, Note_off_c, 1, 54, 7
3, 4224, Note_on_c, 1, 52, 44
3, 4416, Note_off_c, 1, 52, 13
3, 4440, Note_on_c, 1, 50, 41
3, 4536, Note_off_c, 1, 50, 16
3, 4608, Note_on_c, 1, 50, 46
3, 6112, Note_off_c, 1, 50, 2
3, 6384, Note_on_c, 1, 50, 46
3, 6528, Note_on_c, 1, 54, 58
3, 6548, Note_off_c, 1, 50, 0
3, 6768, Note_off_c, 1, 54, 7
3, 6768, Note_on_c, 1, 57, 46
3, 6936, Note_on_c, 1, 55, 54
3, 6960, Note_off_c, 1, 57, 0
3, 7152, Note_on_c, 1, 54, 29
3, 7168, Note_off_c, 1, 55, 6
3, 7320, Note_on_c, 1, 52, 39
3, 7328, Note_off_c, 1, 54, 6
3, 7508, Note_off_c, 1, 52, 17
3, 7536, Note_on_c, 1, 50, 48
3, 7836, Note_off_c, 1, 50, 45
3, 8088, Note_on_c, 1, 62, 41
3, 9184, Note_off_c, 1, 62, 29
3, 9456, Note_on_c, 1, 50, 46
3, 9600, Note_on_c, 1, 54, 54
3, 9616, Note_off_c, 1, 50, 4
3, 9796, Note_off_c, 1, 54, 2
3, 9840, Note_on_c, 1, 57, 54
3, 9984, Note_on_c, 1, 55, 46
3, 9988, Note_off_c, 1, 57, 7
3, 10192, Note_off_c, 1, 55, 10
3, 10224, Note_on_c, 1, 54, 41
3, 10348, Note_off_c, 1, 54, 13
3, 10368, Note_on_c, 1, 52, 52
3, 10556, Note_off_c, 1, 52, 10
3, 10632, Note_on_c, 1, 50, 41
3, 10724, Note_off_c, 1, 50, 17
3, 10800, Note_on_c, 1, 50, 46
3, 12276, Note_off_c, 1, 50, 6
3, 12504, Note_on_c, 1, 50, 52
3, 12648, Note_on_c, 1, 54, 59
3, 12676, Note_off_c, 1, 50, 0
3, 12864, Note_on_c, 1, 57, 59
3, 12880, Note_off_c, 1, 54, 7
3, 13024, Note_off_c, 1, 57, 10
3, 13032, Note_on_c, 1, 55, 58
3, 13272, Note_off_c, 1, 55, 13
3, 13272, Note_on_c, 1, 54, 46
3, 13408, Note_off_c, 1, 54, 18
3, 13416, Note_on_c, 1, 52, 54
3, 13620, Note_off_c, 1, 52, 13
3, 13656, Note_on_c, 1, 50, 54
3, 13836, Note_off_c, 1, 50, 45
3, 14184, Note_on_c, 1, 62, 59
3, 14988, Note_off_c, 1, 62, 10
3, 21744, Note_on_c, 1, 50, 35
3, 21888, Note_on_c, 1, 54, 54
3, 21900, Note_off_c, 1, 50, 10
3, 22104, Note_on_c, 1, 57, 48
3, 22124, Note_off_c, 1, 54, 6
3, 22272, Note_on_c, 1, 55, 39
3, 22288, Note_off_c, 1, 57, 0
3, 22488, Note_on_c, 1, 54, 44
3, 22496, Note_off_c, 1, 55, 10
3, 22644, Note_off_c, 1, 54, 7
3, 22656, Note_on_c, 1, 52, 44
3, 22848, Note_off_c, 1, 52, 13
3, 22872, Note_on_c, 1, 50, 41
3, 22968, Note_off_c, 1, 50, 16
3, 23040, Note_on_c, 1, 50, 46
3, 24544, Note_off_c, 1, 50, 2
3, 24816, Note_on_c, 1, 50, 46
3, 24944, Control_c, 1, 64, 127
3, 24960, Note_on_c, 1, 54, 58
3, 24980, Note_off_c, 1, 50, 0
3, 25056, Control_c, 1, 64, 0
3, 25200, Note_off_c, 1, 54, 7
3, 25200, Note_on_c, 1, 57, 46
3, 25368, Note_on_c, 1, 55, 54
3, 25372, Control_c, 1, 64, 127
3, 25392, Note_off_c, 1, 57, 0
3, 25476, Control_c, 1, 64, 0
3, 25584, Note_on_c, 1, 54, 29
3, 25600, Note_off_c, 1, 55, 6
3, 25752, Note_on_c, 1, 52, 39
3, 25760, Note_off_c, 1, 54, 6
3, 25920, Note_on_c, 1, 50, 54
3, 25940, Note_off_c, 1, 52, 17
3, 26112, Note_off_c, 1, 50, 19
3, 26496, Note_on_c, 1, 62, 59
3, 26588, Control_c, 1, 64, 127
3, 26792, Control_c, 1, 64, 0
3, 27264, Note_off_c, 1, 62, 19
3, 27312, Control_c, 1, 64, 127
3, 27608, Control_c, 1, 64, 0
3, 27632, Control_c, 1, 64, 127
3, 27888, Note_on_c, 1, 50, 46
3, 27968, Control_c, 1, 64, 127
3, 28028, Control_c, 1, 64, 0
3, 28032, Note_on_c, 1, 54, 54
3, 28048, Note_off_c, 1, 50, 4
3, 28176, Control_c, 1, 64, 0
3, 28228, Note_off_c, 1, 54, 2
3, 28272, Note_on_c, 1, 57, 54
3, 28416, Note_on_c, 1, 55, 46
3, 28420, Note_off_c, 1, 57, 7
3, 28624, Note_off_c, 1, 55, 10
3, 28656, Note_on_c, 1, 54, 41
3, 28780, Note_off_c, 1, 54, 13
3, 28800, Note_on_c, 1, 52, 52
3, 28988, Note_off_c, 1, 52, 10
3, 29064, Note_on_c, 1, 50, 41
3, 29136, Note_on_c, 1, 50, 46
3, 29156, Note_off_c, 1, 50, 17
3, 30000, Control_c, 1, 64, 127
3, 30280, Control_c, 1, 64, 127
3, 30484, Control_c, 1, 64, 0
3, 30496, Control_c, 1, 64, 0
3, 30612, Note_off_c, 1, 50, 6
3, 30936, Note_on_c, 1, 50, 52
3, 31080, Note_on_c, 1, 54, 59
3, 31108, Note_off_c, 1, 50, 0
3, 31296, Note_on_c, 1, 57, 59
3, 31312, Note_off_c, 1, 54, 7
3, 31456, Note_off_c, 1, 57, 10
3, 31464, Note_on_c, 1, 55, 58
3, 31704, Note_off_c, 1, 55, 13
3, 31704, Note_on_c, 1, 54, 46
3, 31840, Note_off_c, 1, 54, 18
3, 31848, Note_on_c, 1, 52, 54
3, 32052, Note_off_c, 1, 52, 13
3, 32088, Note_on_c, 1, 50, 54
3, 32268, Note_off_c, 1, 50, 45
3, 32664, Note_on_c, 1, 62, 54
3, 32676, Control_c, 1, 64, 127
3, 32776, Control_c, 1, 64, 127
3, 33368, Control_c, 1, 64, 0
3, 33432, Note_on_c, 1, 57, 59
3, 33444, Control_c, 1, 64, 127
3, 33548, Note_off_c, 1, 62, 13
3, 33556, Control_c, 1, 64, 0
3, 33656, Note_off_c, 1, 57, 13
3, 33768, Control_c, 1, 64, 0
3, 33840, Note_on_c, 1, 57, 59
3, 34312, Note_off_c, 1, 57, 22
3, 34392, Note_on_c, 1, 57, 59
3, 34576, Note_off_c, 1, 57, 16
3, 34584, Note_on_c, 1, 59, 59
3, 34752, Note_off_c, 1, 59, 18
3, 34776, Note_on_c, 1, 60, 54
3, 35136, Note_on_c, 1, 64, 59
3, 35164, Note_off_c, 1, 60, 22
3, 35904, Note_off_c, 1, 64, 45
3, 36072, Note_on_c, 1, 62, 52
3, 36300, Note_off_c, 1, 62, 18
3, 36312, Note_on_c, 1, 60, 48
3, 36636, Note_off_c, 1, 60, 13
3, 36720, Note_on_c, 1, 62, 46
3, 37076, Note_off_c, 1, 62, 45
3, 37080, Note_on_c, 1, 60, 54
3, 37428, Note_off_c, 1, 60, 18
3, 37464, Note_on_c, 1, 59, 52
3, 37836, Note_off_c, 1, 59, 10
3, 37848, Note_on_c, 1, 60, 48
3, 38212, Note_off_c, 1, 60, 2
3, 38232, Note_on_c, 1, 62, 54
3, 38936, Note_off_c, 1, 62, 45
3, 39168, Note_on_c, 1, 60, 59
3, 39344, Note_off_c, 1, 60, 22
3, 39360, Note_on_c, 1, 59, 52
3, 39592, Note_off_c, 1, 59, 17
3, 39768, Note_on_c, 1, 60, 59
3, 40012, Note_off_c, 1, 60, 45
3, 40152, Note_on_c, 1, 59, 52
3, 40512, Note_off_c, 1, 59, 17
3, 40536, Note_on_c, 1, 57, 54
3, 40824, Note_off_c, 1, 57, 13
3, 40896, Note_on_c, 1, 59, 59
3, 41096, Note_off_c, 1, 59, 0
3, 41304, Note_on_c, 1, 60, 54
3, 42024, Note_off_c, 1, 60, 45
3, 42240, Note_on_c, 1, 60, 59
3, 42332, Note_off_c, 1, 60, 22
3, 42432, Note_on_c, 1, 60, 48
3, 42616, Note_off_c, 1, 60, 10
3, 42816, Note_on_c, 1, 59, 54
3, 43116, Note_off_c, 1, 59, 45
3, 43224, Note_on_c, 1, 57, 59
3, 43484, Note_off_c, 1, 57, 5
3, 43560, Note_on_c, 1, 56, 59
3, 43924, Note_off_c, 1, 56, 0
3, 43992, Note_on_c, 1, 57, 54
3, 44288, Note_off_c, 1, 57, 6
3, 44376, Note_on_c, 1, 59, 54
3, 45060, Note_off_c, 1, 59, 45
3, 45312, Note_on_c, 1, 59, 52
3, 45496, Note_off_c, 1, 59, 7
3, 45528, Note_on_c, 1, 60, 52
3, 46080, Note_off_c, 1, 60, 7
3, 46128, Note_on_c, 1, 59, 48
3, 46556, Note_off_c, 1, 59, 4
3, 46632, Note_on_c, 1, 57, 54
3, 46732, Note_off_c, 1, 57, 18
3, 46848, Note_on_c, 1, 57, 54
3, 47224, Control_c, 1, 64, 127
3, 47816, Control_c, 1, 64, 0
3, 47964, Note_off_c, 1, 57, 45
3, 48292, Control_c, 1, 64, 0
3, 48960, Note_on_c, 1, 52, 54
3, 49088, Note_off_c, 1, 52, 19
3, 49152, Note_on_c, 1, 55, 52
3, 50288, Note_off_c, 1, 55, 45
3, 50376, Note_on_c, 1, 52, 52
3, 50496, Note_on_c, 1, 53, 52
3, 50576, Note_off_c, 1, 52, 10
3, 50688, Note_off_c, 1, 53, 0
3, 50712, Note_on_c, 1, 55, 59
3, 51064, Note_off_c, 1, 55, 18
3, 51072, Note_on_c, 1, 57, 52
3, 51256, Note_off_c, 1, 57, 13
3, 51288, Note_on_c, 1, 59, 59
3, 51608, Note_off_c, 1, 59, 2
3, 51648, Note_on_c, 1, 60, 39
3, 52008, Note_on_c, 1, 62, 52
3, 52012, Note_off_c, 1, 60, 17
3, 52212, Note_off_c, 1, 62, 17
3, 52224, Note_on_c, 1, 64, 59
3, 54400, Note_off_c, 1, 64, 45
3, 54528, Note_on_c, 1, 64, 59
3, 55072, Note_off_c, 1, 64, 19
3, 55296, Note_on_c, 1, 64, 59
3, 55880, Note_off_c, 1, 64, 45
3, 55896, Note_on_c, 1, 60, 59
3, 57192, Note_off_c, 1, 60, 45
3, 57216, Note_on_c, 1, 57, 46
3, 57432, Note_on_c, 1, 59, 59
3, 57484, Note_off_c, 1, 57, 6
3, 57792, Note_off_c, 1, 59, 6
3, 57816, Note_on_c, 1, 60, 46
3, 58164, Note_off_c, 1, 60, 22
3, 58200, Note_on_c, 1, 59, 59
3, 58568, Note_off_c, 1, 59, 45
3, 58584, Note_on_c, 1, 55, 48
3, 58772, Note_off_c, 1, 55, 13
3, 58944, Note_on_c, 1, 52, 46
3, 60872, Note_off_c, 1, 52, 45
3, 60888, Note_on_c, 1, 64, 59
3, 61376, Note_off_c, 1, 64, 17
3, 61440, Note_on_c, 1, 64, 46
3, 62016, Note_on_c, 1, 60, 52
3, 62020, Note_off_c, 1, 64, 45
3, 63348, Note_off_c, 1, 60, 45
3, 63360, Note_on_c, 1, 57, 52
3, 63600, Note_on_c, 1, 59, 59
3, 63632, Note_off_c, 1, 57, 4
3, 63884, Note_off_c, 1, 59, 6
3, 63960, Note_on_c, 1, 60, 59
3, 64292, Note_off_c, 1, 60, 22
3, 64320, Note_on_c, 1, 59, 59
3, 64696, Note_off_c, 1, 59, 45
3, 64728, Note_on_c, 1, 55, 52
3, 65032, Note_off_c, 1, 55, 13
3, 65112, Note_on_c, 1, 52, 59
3, 67216, Note_off_c, 1, 52, 45
3, 67560, Note_on_c, 1, 57, 54
3, 69120, Note_off_c, 1, 57, 45
3, 69120, Note_on_c, 1, 65, 59
3, 70616, Note_off_c, 1, 65, 22
3, 70680, Note_on_c, 1, 64, 52
3, 72288, Note_off_c, 1, 64, 45
3, 72288, End_track
4, 0, Start_track
4, 0, Title_t, "Hi Vocals"
4, 0, Control_c, 2, 0, 0
4, 0, Program_c, 2, 53
4, 0, Control_c, 2, 10, 81
4, 0, Key_signature, 0, "major"
4, 3320, Note_on_c, 2, 62, 53
4, 3460, Note_on_c, 2, 66, 83
4, 3476, Note_off_c, 2, 62, 18
4, 3680, Note_on_c, 2, 69, 75
4, 3696, Note_off_c, 2, 66, 10
4, 3848, Note_on_c, 2, 67, 59
4, 3864, Note_off_c, 2, 69, 0
4, 4064, Note_on_c, 2, 66, 67
4, 4072, Note_off_c, 2, 67, 16
4, 4212, Note_on_c, 2, 64, 67
4, 4220, Note_off_c, 2, 66, 13
4, 4404, Note_off_c, 2, 64, 24
4, 4440, Note_on_c, 2, 62, 60
4, 4536, Note_off_c, 2, 62, 28
4, 4612, Note_on_c, 2, 62, 71
4, 6116, Note_off_c, 2, 62, 1
4, 6380, Note_on_c, 2, 62, 71
4, 6536, Note_on_c, 2, 66, 89
4, 6544, Note_off_c, 2, 62, 0
4, 6760, Note_on_c, 2, 69, 71
4, 6776, Note_off_c, 2, 66, 13
4, 6924, Note_on_c, 2, 67, 83
4, 6952, Note_off_c, 2, 69, 0
4, 7144, Note_on_c, 2, 66, 43
4, 7156, Note_off_c, 2, 67, 10
4, 7312, Note_on_c, 2, 64, 59
4, 7320, Note_off_c, 2, 66, 10
4, 7500, Note_off_c, 2, 64, 28
4, 7528, Note_on_c, 2, 62, 75
4, 7828, Note_off_c, 2, 62, 0
4, 8084, Note_on_c, 2, 74, 60
4, 9180, Note_off_c, 2, 74, 51
4, 9448, Note_on_c, 2, 62, 71
4, 9600, Note_on_c, 2, 66, 83
4, 9608, Note_off_c, 2, 62, 6
4, 9796, Note_off_c, 2, 66, 1
4, 9832, Note_on_c, 2, 69, 83
4, 9980, Note_off_c, 2, 69, 13
4, 9980, Note_on_c, 2, 67, 71
4, 10188, Note_off_c, 2, 67, 16
4, 10212, Note_on_c, 2, 66, 60
4, 10336, Note_off_c, 2, 66, 24
4, 10372, Note_on_c, 2, 64, 77
4, 10560, Note_off_c, 2, 64, 16
4, 10620, Note_on_c, 2, 62, 60
4, 10712, Note_off_c, 2, 62, 28
4, 10792, Note_on_c, 2, 62, 71
4, 12268, Note_off_c, 2, 62, 10
4, 12496, Note_on_c, 2, 62, 77
4, 12644, Note_on_c, 2, 66, 89
4, 12668, Note_off_c, 2, 62, 0
4, 12868, Note_on_c, 2, 69, 98
4, 12876, Note_off_c, 2, 66, 13
4, 13024, Note_on_c, 2, 67, 89
4, 13028, Note_off_c, 2, 69, 16
4, 13264, Note_off_c, 2, 67, 24
4, 13272, Note_on_c, 2, 66, 71
4, 13408, Note_off_c, 2, 66, 32
4, 13412, Note_on_c, 2, 64, 83
4, 13616, Note_off_c, 2, 64, 21
4, 13648, Note_on_c, 2, 62, 83
4, 13828, Note_off_c, 2, 62, 16
4, 14188, Note_on_c, 2, 74, 94
4, 14992, Note_off_c, 2, 74, 18
4, 21752, Note_on_c, 2, 62, 53
4, 21892, Note_on_c, 2, 66, 83
4, 21908, Note_off_c, 2, 62, 18
4, 22112, Note_on_c, 2, 69, 75
4, 22128, Note_off_c, 2, 66, 10
4, 22280, Note_on_c, 2, 67, 59
4, 22296, Note_off_c, 2, 69, 0
4, 22496, Note_on_c, 2, 66, 67
4, 22504, Note_off_c, 2, 67, 16
4, 22644, Note_on_c, 2, 64, 67
4, 22652, Note_off_c, 2, 66, 13
4, 22836, Note_off_c, 2, 64, 24
4, 22872, Note_on_c, 2, 62, 60
4, 22968, Note_off_c, 2, 62, 28
4, 23044, Note_on_c, 2, 62, 71
4, 24548, Note_off_c, 2, 62, 1
4, 24812, Note_on_c, 2, 62, 71
4, 24944, Control_c, 2, 64, 127
4, 24968, Note_on_c, 2, 66, 89
4, 24976, Note_off_c, 2, 62, 0
4, 25056, Control_c, 2, 64, 0
4, 25192, Note_on_c, 2, 69, 71
4, 25208, Note_off_c, 2, 66, 13
4, 25356, Note_on_c, 2, 67, 83
4, 25372, Control_c, 2, 64, 127
4, 25384, Note_off_c, 2, 69, 0
4, 25476, Control_c, 2, 64, 0
4, 25576, Note_on_c, 2, 66, 43
4, 25588, Note_off_c, 2, 67, 10
4, 25744, Note_on_c, 2, 64, 59
4, 25752, Note_off_c, 2, 66, 10
4, 25920, Note_on_c, 2, 62, 83
4, 25932, Note_off_c, 2, 64, 28
4, 26112, Note_off_c, 2, 62, 33
4, 26496, Note_on_c, 2, 74, 98
4, 26588, Control_c, 2, 64, 127
4, 26792, Control_c, 2, 64, 0
4, 27264, Note_off_c, 2, 74, 33
4, 27312, Control_c, 2, 64, 127
4, 27608, Control_c, 2, 64, 0
4, 27632, Control_c, 2, 64, 127
4, 27880, Note_on_c, 2, 62, 71
4, 27968, Control_c, 2, 64, 127
4, 28028, Control_c, 2, 64, 0
4, 28032, Note_on_c, 2, 66, 83
4, 28040, Note_off_c, 2, 62, 6
4, 28176, Control_c, 2, 64, 0
4, 28228, Note_off_c, 2, 66, 1
4, 28264, Note_on_c, 2, 69, 83
4, 28412, Note_off_c, 2, 69, 13
4, 28412, Note_on_c, 2, 67, 71
4, 28620, Note_off_c, 2, 67, 16
4, 28644, Note_on_c, 2, 66, 60
4, 28768, Note_off_c, 2, 66, 24
4, 28804, Note_on_c, 2, 64, 77
4, 28992, Note_off_c, 2, 64, 16
4, 29052, Note_on_c, 2, 62, 60
4, 29144, Note_off_c, 2, 62, 28
4, 29224, Note_on_c, 2, 62, 71
4, 30000, Control_c, 2, 64, 127
4, 30280, Control_c, 2, 64, 127
4, 30484, Control_c, 2, 64, 0
4, 30496, Control_c, 2, 64, 0
4, 30700, Note_off_c, 2, 62, 10
4, 30928, Note_on_c, 2, 62, 77
4, 31076, Note_on_c, 2, 66, 89
4, 31100, Note_off_c, 2, 62, 0
4, 31300, Note_on_c, 2, 69, 98
4, 31308, Note_off_c, 2, 66, 13
4, 31456, Note_on_c, 2, 67, 89
4, 31460, Note_off_c, 2, 69, 16
4, 31696, Note_off_c, 2, 67, 24
4, 31704, Note_on_c, 2, 66, 71
4, 31840, Note_off_c, 2, 66, 32
4, 31844, Note_on_c, 2, 64, 83
4, 32048, Note_off_c, 2, 64, 21
4, 32080, Note_on_c, 2, 62, 83
4, 32260, Note_off_c, 2, 62, 0
4, 32664, Note_on_c, 2, 74, 83
4, 32676, Control_c, 2, 64, 127
4, 32776, Control_c, 2, 64, 127
4, 33368, Control_c, 2, 64, 0
4, 33424, Note_on_c, 2, 69, 98
4, 33444, Control_c, 2, 64, 127
4, 33548, Note_off_c, 2, 74, 21
4, 33556, Control_c, 2, 64, 0
4, 33648, Note_off_c, 2, 69, 21
4, 33768, Control_c, 2, 64, 0
4, 33828, Note_on_c, 2, 69, 98
4, 34300, Note_off_c, 2, 69, 40
4, 34384, Note_on_c, 2, 69, 94
4, 34568, Note_off_c, 2, 69, 28
4, 34576, Note_on_c, 2, 71, 94
4, 34744, Note_off_c, 2, 71, 32
4, 34764, Note_on_c, 2, 72, 83
4, 35136, Note_on_c, 2, 76, 91
4, 35152, Note_off_c, 2, 72, 40
4, 35904, Note_off_c, 2, 76, 79
4, 36076, Note_on_c, 2, 74, 77
4, 36304, Note_off_c, 2, 74, 32
4, 36308, Note_on_c, 2, 72, 75
4, 36632, Note_off_c, 2, 72, 24
4, 36712, Note_on_c, 2, 74, 71
4, 37068, Note_off_c, 2, 74, 13
4, 37080, Note_on_c, 2, 72, 83
4, 37428, Note_off_c, 2, 72, 32
4, 37452, Note_on_c, 2, 71, 77
4, 37824, Note_off_c, 2, 71, 16
4, 37844, Note_on_c, 2, 72, 75
4, 38208, Note_off_c, 2, 72, 1
4, 38232, Note_on_c, 2, 74, 83
4, 38936, Note_off_c, 2, 74, 28
4, 39156, Note_on_c, 2, 72, 89
4, 39332, Note_off_c, 2, 72, 39
4, 39356, Note_on_c, 2, 71, 77
4, 39588, Note_off_c, 2, 71, 29
4, 39756, Note_on_c, 2, 72, 94
4, 40000, Note_off_c, 2, 72, 29
4, 40144, Note_on_c, 2, 71, 77
4, 40504, Note_off_c, 2, 71, 28
4, 40528, Note_on_c, 2, 69, 83
4, 40816, Note_off_c, 2, 69, 21
4, 40904, Note_on_c, 2, 71, 94
4, 41104, Note_off_c, 2, 71, 0
4, 41296, Note_on_c, 2, 72, 83
4, 42016, Note_off_c, 2, 72, 15
4, 42248, Note_on_c, 2, 72, 89
4, 42340, Note_off_c, 2, 72, 39
4, 42424, Note_on_c, 2, 72, 75
4, 42608, Note_off_c, 2, 72, 16
4, 42804, Note_on_c, 2, 71, 83
4, 43104, Note_off_c, 2, 71, 0
4, 43212, Note_on_c, 2, 69, 106
4, 43472, Note_off_c, 2, 69, 9
4, 43560, Note_on_c, 2, 68, 98
4, 43924, Note_off_c, 2, 68, 0
4, 43980, Note_on_c, 2, 69, 83
4, 44276, Note_off_c, 2, 69, 10
4, 44364, Note_on_c, 2, 71, 83
4, 45048, Note_off_c, 2, 71, 32
4, 45300, Note_on_c, 2, 71, 77
4, 45484, Note_off_c, 2, 71, 13
4, 45520, Note_on_c, 2, 72, 77
4, 46072, Note_off_c, 2, 72, 13
4, 46120, Note_on_c, 2, 71, 75
4, 46548, Note_off_c, 2, 71, 6
4, 46640, Note_on_c, 2, 69, 83
4, 46740, Note_off_c, 2, 69, 32
4, 46836, Note_on_c, 2, 69, 83
4, 47224, Control_c, 2, 64, 127
4, 47816, Control_c, 2, 64, 0
4, 47952, Note_off_c, 2, 69, 24
4, 48292, Control_c, 2, 64, 0
4, 48960, Note_on_c, 2, 64, 83
4, 49088, Note_off_c, 2, 64, 33
4, 49148, Note_on_c, 2, 67, 77
4, 50284, Note_off_c, 2, 67, 0
4, 50364, Note_on_c, 2, 64, 77
4, 50496, Note_on_c, 2, 65, 77
4, 50564, Note_off_c, 2, 64, 18
4, 50688, Note_off_c, 2, 65, 0
4, 50700, Note_on_c, 2, 67, 89
4, 51052, Note_off_c, 2, 67, 32
4, 51072, Note_on_c, 2, 69, 77
4, 51256, Note_off_c, 2, 69, 21
4, 51288, Note_on_c, 2, 71, 89
4, 51608, Note_off_c, 2, 71, 1
4, 51648, Note_on_c, 2, 72, 59
4, 51996, Note_on_c, 2, 74, 77
4, 52012, Note_off_c, 2, 72, 29
4, 52200, Note_off_c, 2, 74, 29
4, 52228, Note_on_c, 2, 76, 89
4, 54404, Note_off_c, 2, 76, 0
4, 54528, Note_on_c, 2, 76, 94
4, 55072, Note_off_c, 2, 76, 33
4, 55292, Note_on_c, 2, 76, 98
4, 55876, Note_off_c, 2, 76, 0
4, 55900, Note_on_c, 2, 72, 89
4, 57196, Note_off_c, 2, 72, 0
4, 57208, Note_on_c, 2, 69, 71
4, 57440, Note_on_c, 2, 71, 94
4, 57476, Note_off_c, 2, 69, 10
4, 57800, Note_off_c, 2, 71, 10
4, 57816, Note_on_c, 2, 72, 71
4, 58164, Note_off_c, 2, 72, 40
4, 58192, Note_on_c, 2, 71, 98
4, 58560, Note_off_c, 2, 71, 0
4, 58588, Note_on_c, 2, 67, 75
4, 58776, Note_off_c, 2, 67, 24
4, 58940, Note_on_c, 2, 64, 71
4, 60868, Note_off_c, 2, 64, 0
4, 60884, Note_on_c, 2, 76, 105
4, 61372, Note_off_c, 2, 76, 29
4, 61436, Note_on_c, 2, 76, 71
4, 62016, Note_off_c, 2, 76, 0
4, 62016, Note_on_c, 2, 72, 77
4, 63348, Note_off_c, 2, 72, 0
4, 63364, Note_on_c, 2, 69, 77
4, 63596, Note_on_c, 2, 71, 98
4, 63636, Note_off_c, 2, 69, 6
4, 63880, Note_off_c, 2, 71, 10
4, 63960, Note_on_c, 2, 72, 94
4, 64292, Note_off_c, 2, 72, 39
4, 64328, Note_on_c, 2, 71, 89
4, 64704, Note_off_c, 2, 71, 0
4, 64732, Note_on_c, 2, 67, 77
4, 65036, Note_off_c, 2, 67, 21
4, 65108, Note_on_c, 2, 64, 89
4, 67212, Note_off_c, 2, 64, 0
4, 67568, Note_on_c, 2, 69, 83
4, 69124, Note_on_c, 2, 77, 105
4, 69128, Note_off_c, 2, 69, 10
4, 70620, Note_off_c, 2, 77, 39
4, 70676, Note_on_c, 2, 76, 77
4, 72284, Note_off_c, 2, 76, 18
4, 72284, End_track
5, 0, Start_track
5, 0, Title_t, "Bass"
5, 0, Control_c, 3, 0, 0
5, 0, Program_c, 3, 33
5, 0, Control_c, 3, 10, 53
5, 0, Key_signature, 0, "major"
5, 2520, Note_on_c, 3, 48, 60
5, 2736, Note_off_c, 3, 48, 42
5, 2832, Note_on_c, 3, 48, 63
5, 3040, Note_off_c, 3, 48, 45
5, 3096, Note_on_c, 3, 50, 60
5, 4148, Note_off_c, 3, 50, 46
5, 5592, Note_on_c, 3, 48, 60
5, 5732, Note_off_c, 3, 48, 41
5, 5880, Note_on_c, 3, 48, 63
5, 6012, Note_off_c, 3, 48, 53
5, 6144, Note_on_c, 3, 50, 63
5, 6896, Note_off_c, 3, 50, 60
5, 8664, Note_on_c, 3, 48, 77
5, 8800, Note_off_c, 3, 48, 42
5, 8928, Note_on_c, 3, 48, 79
5, 9120, Note_off_c, 3, 48, 27
5, 9216, Note_on_c, 3, 50, 79
5, 10012, Note_off_c, 3, 50, 60
5, 11760, Note_on_c, 3, 48, 82
5, 11912, Note_off_c, 3, 48, 46
5, 12024, Note_on_c, 3, 48, 82
5, 12192, Note_off_c, 3, 48, 38
5, 12288, Note_on_c, 3, 50, 77
5, 12744, Note_off_c, 3, 50, 60
5, 15384, Note_on_c, 3, 50, 63
5, 15996, Note_off_c, 3, 50, 26
5, 16104, Note_on_c, 3, 48, 72
5, 16728, Note_off_c, 3, 48, 34
5, 16896, Note_on_c, 3, 47, 54
5, 17420, Note_off_c, 3, 47, 60
5, 17664, Note_on_c, 3, 48, 72
5, 18160, Note_off_c, 3, 48, 17
5, 18432, Note_on_c, 3, 50, 54
5, 18920, Note_off_c, 3, 50, 60
5, 19176, Note_on_c, 3, 48, 79
5, 19716, Note_off_c, 3, 48, 0
5, 19944, Note_on_c, 3, 47, 52
5, 20484, Note_off_c, 3, 47, 60
5, 20952, Note_on_c, 3, 48, 82
5, 21120, Note_off_c, 3, 48, 54
5, 21240, Note_on_c, 3, 48, 82
5, 21404, Note_off_c, 3, 48, 30
5, 21504, Note_on_c, 3, 50, 75
5, 22228, Note_off_c, 3, 50, 86
5, 24000, Note_on_c, 3, 48, 81
5, 24172, Note_off_c, 3, 48, 62
5, 24288, Note_on_c, 3, 48, 66
5, 24488, Note_off_c, 3, 48, 32
5, 24576, Note_on_c, 3, 50, 63
5, 25344, Note_off_c, 3, 50, 38
5, 27072, Note_on_c, 3, 48, 81
5, 27188, Note_off_c, 3, 48, 42
5, 27360, Note_on_c, 3, 48, 72
5, 27528, Note_off_c, 3, 48, 39
5, 27624, Note_on_c, 3, 50, 72
5, 28396, Note_off_c, 3, 50, 60
5, 30144, Note_on_c, 3, 48, 81
5, 30260, Note_off_c, 3, 48, 42
5, 30432, Note_on_c, 3, 48, 72
5, 30600, Note_off_c, 3, 48, 39
5, 30744, Note_on_c, 3, 50, 72
5, 31456, Note_off_c, 3, 50, 24
5, 33816, Note_on_c, 3, 48, 60
5, 36668, Note_off_c, 3, 48, 60
5, 36840, Note_on_c, 3, 47, 47
5, 39544, Note_off_c, 3, 47, 60
5, 39720, Note_on_c, 3, 47, 62
5, 39868, Note_off_c, 3, 47, 20
5, 39912, Note_on_c, 3, 45, 51
5, 42600, Note_off_c, 3, 45, 60
5, 42792, Note_on_c, 3, 45, 52
5, 42980, Note_off_c, 3, 45, 28
5, 42984, Note_on_c, 3, 44, 60
5, 45740, Note_off_c, 3, 44, 60
5, 46056, Note_on_c, 3, 45, 30
5, 48412, Note_off_c, 3, 45, 60
5, 49200, Note_on_c, 3, 48, 82
5, 49324, Note_off_c, 3, 48, 28
5, 49704, Note_on_c, 3, 48, 60
5, 49820, Note_off_c, 3, 48, 13
5, 49896, Note_on_c, 3, 43, 66
5, 50016, Note_off_c, 3, 43, 24
5, 50088, Note_on_c, 3, 48, 71
5, 50232, Note_off_c, 3, 48, 65
5, 50472, Note_on_c, 3, 48, 54
5, 50560, Note_off_c, 3, 48, 39
5, 50688, Note_on_c, 3, 47, 73
5, 50800, Note_off_c, 3, 47, 60
5, 51264, Note_on_c, 3, 47, 66
5, 51372, Note_off_c, 3, 47, 30
5, 51456, Note_on_c, 3, 43, 54
5, 51552, Note_off_c, 3, 43, 39
5, 51648, Note_on_c, 3, 47, 77
5, 51752, Note_off_c, 3, 47, 52
5, 52032, Note_on_c, 3, 47, 73
5, 52128, Note_off_c, 3, 47, 30
5, 52200, Note_on_c, 3, 45, 75
5, 52312, Note_off_c, 3, 45, 60
5, 52584, Note_on_c, 3, 40, 71
5, 52680, Note_off_c, 3, 40, 37
5, 52800, Note_on_c, 3, 45, 81
5, 52916, Note_off_c, 3, 45, 47
5, 53184, Note_on_c, 3, 40, 79
5, 53284, Note_off_c, 3, 40, 20
5, 53352, Note_on_c, 3, 45, 75
5, 53448, Note_off_c, 3, 45, 42
5, 53736, Note_on_c, 3, 43, 72
5, 53968, Note_off_c, 3, 43, 60
5, 54144, Note_on_c, 3, 40, 72
5, 54224, Note_off_c, 3, 40, 28
5, 54336, Note_on_c, 3, 43, 65
5, 54436, Note_off_c, 3, 43, 24
5, 54696, Note_on_c, 3, 40, 79
5, 54776, Note_off_c, 3, 40, 30
5, 54912, Note_on_c, 3, 43, 72
5, 55000, Note_off_c, 3, 43, 36
5, 55272, Note_on_c, 3, 48, 82
5, 55364, Note_off_c, 3, 48, 60
5, 55536, Note_on_c, 3, 45, 66
5, 55644, Note_off_c, 3, 45, 35
5, 55776, Note_on_c, 3, 41, 75
5, 55888, Note_off_c, 3, 41, 32
5, 56016, Note_on_c, 3, 48, 60
5, 56116, Note_off_c, 3, 48, 30
5, 56304, Note_on_c, 3, 45, 72
5, 56392, Note_off_c, 3, 45, 28
5, 56568, Note_on_c, 3, 41, 82
5, 56680, Note_off_c, 3, 41, 30
5, 56808, Note_on_c, 3, 48, 69
5, 56896, Note_off_c, 3, 48, 60
5, 57048, Note_on_c, 3, 45, 66
5, 57148, Note_off_c, 3, 45, 34
5, 57336, Note_on_c, 3, 41, 65
5, 57460, Note_off_c, 3, 41, 27
5, 57576, Note_on_c, 3, 48, 63
5, 57680, Note_off_c, 3, 48, 30
5, 57816, Note_on_c, 3, 45, 71
5, 57920, Note_off_c, 3, 45, 30
5, 58080, Note_on_c, 3, 41, 73
5, 58204, Note_off_c, 3, 41, 32
5, 58320, Note_on_c, 3, 47, 75
5, 58408, Note_off_c, 3, 47, 60
5, 58584, Note_on_c, 3, 43, 72
5, 58696, Note_off_c, 3, 43, 39
5, 58824, Note_on_c, 3, 40, 65
5, 58932, Note_off_c, 3, 40, 36
5, 59088, Note_on_c, 3, 47, 69
5, 59192, Note_off_c, 3, 47, 52
5, 59352, Note_on_c, 3, 43, 60
5, 59464, Note_off_c, 3, 43, 39
5, 59616, Note_on_c, 3, 40, 75
5, 59724, Note_off_c, 3, 40, 28
5, 59880, Note_on_c, 3, 47, 71
5, 59976, Note_off_c, 3, 47, 60
5, 60120, Note_on_c, 3, 43, 66
5, 60248, Note_off_c, 3, 43, 39
5, 60384, Note_on_c, 3, 40, 72
5, 60496, Note_off_c, 3, 40, 38
5, 60648, Note_on_c, 3, 47, 81
5, 60744, Note_off_c, 3, 47, 54
5, 60888, Note_on_c, 3, 43, 72
5, 61008, Note_off_c, 3, 43, 32
5, 61152, Note_on_c, 3, 40, 73
5, 61260, Note_off_c, 3, 40, 38
5, 61392, Note_on_c, 3, 48, 72
5, 61488, Note_off_c, 3, 48, 60
5, 61632, Note_on_c, 3, 45, 73
5, 61732, Note_off_c, 3, 45, 42
5, 61896, Note_on_c, 3, 41, 82
5, 62008, Note_off_c, 3, 41, 39
5, 62160, Note_on_c, 3, 48, 79
5, 62248, Note_off_c, 3, 48, 30
5, 62400, Note_on_c, 3, 45, 63
5, 62500, Note_off_c, 3, 45, 34
5, 62664, Note_on_c, 3, 41, 82
5, 62776, Note_off_c, 3, 41, 35
5, 62904, Note_on_c, 3, 48, 82
5, 63008, Note_off_c, 3, 48, 60
5, 63168, Note_on_c, 3, 45, 72
5, 63268, Note_off_c, 3, 45, 34
5, 63432, Note_on_c, 3, 41, 73
5, 63544, Note_off_c, 3, 41, 38
5, 63696, Note_on_c, 3, 48, 73
5, 63792, Note_off_c, 3, 48, 32
5, 63960, Note_on_c, 3, 45, 72
5, 64056, Note_off_c, 3, 45, 32
5, 64176, Note_on_c, 3, 41, 77
5, 64284, Note_off_c, 3, 41, 38
5, 64464, Note_on_c, 3, 47, 72
5, 64544, Note_off_c, 3, 47, 60
5, 64728, Note_on_c, 3, 43, 58
5, 64812, Note_off_c, 3, 43, 38
5, 64992, Note_on_c, 3, 40, 63
5, 65096, Note_off_c, 3, 40, 34
5, 65256, Note_on_c, 3, 47, 60
5, 65348, Note_off_c, 3, 47, 48
5, 65496, Note_on_c, 3, 43, 69
5, 65592, Note_off_c, 3, 43, 41
5, 65736, Note_on_c, 3, 40, 72
5, 65840, Note_off_c, 3, 40, 43
5, 66000, Note_on_c, 3, 47, 69
5, 66088, Note_off_c, 3, 47, 60
5, 66264, Note_on_c, 3, 43, 63
5, 66356, Note_off_c, 3, 43, 39
5, 66504, Note_on_c, 3, 40, 71
5, 66608, Note_off_c, 3, 40, 41
5, 66792, Note_on_c, 3, 47, 75
5, 66880, Note_off_c, 3, 47, 57
5, 67032, Note_on_c, 3, 43, 75
5, 67120, Note_off_c, 3, 43, 35
5, 67296, Note_on_c, 3, 40, 60
5, 67400, Note_off_c, 3, 40, 38
5, 67584, Note_on_c, 3, 50, 82
5, 69100, Note_off_c, 3, 50, 0
5, 69120, Note_on_c, 3, 41, 81
5, 70644, Note_off_c, 3, 41, 60
5, 70656, Note_on_c, 3, 36, 66
5, 72476, Note_off_c, 3, 36, 60
5, 72476, End_track
6, 0, Start_track
6, 0, Title_t, "Fute"
6, 0, Control_c, 4, 0, 0
6, 0, Program_c, 4, 74
6, 0, Control_c, 4, 10, 95
6, 0, Key_signature, 0, "major"
6, 5348, Note_on_c, 4, 72, 89
6, 5592, Note_off_c, 4, 72, 21
6, 5600, Note_on_c, 4, 71, 89
6, 5888, Note_off_c, 4, 71, 35
6, 5896, Note_on_c, 4, 69, 89
6, 6000, Note_off_c, 4, 69, 46
6, 6004, Note_on_c, 4, 67, 89
6, 6124, Note_off_c, 4, 67, 26
6, 6148, Note_on_c, 4, 69, 89
6, 8244, Note_off_c, 4, 69, 14
6, 8448, Note_on_c, 4, 67, 89
6, 8688, Note_off_c, 4, 67, 29
6, 8708, Note_on_c, 4, 66, 89
6, 8944, Note_off_c, 4, 66, 21
6, 8972, Note_on_c, 4, 64, 89
6, 9188, Note_off_c, 4, 64, 21
6, 9228, Note_on_c, 4, 62, 89
6, 11180, Note_off_c, 4, 62, 18
6, 11516, Note_on_c, 4, 64, 89
6, 11772, Note_on_c, 4, 66, 89
6, 11776, Note_off_c, 4, 64, 21
6, 12048, Note_off_c, 4, 66, 10
6, 12080, Note_on_c, 4, 67, 89
6, 12208, Note_off_c, 4, 67, 46
6, 12208, Note_on_c, 4, 71, 89
6, 12312, Note_off_c, 4, 71, 23
6, 12352, Note_on_c, 4, 69, 89
6, 13932, Note_off_c, 4, 69, 16
6, 18412, Note_on_c, 4, 81, 89
6, 18900, Note_off_c, 4, 81, 21
6, 18932, Note_on_c, 4, 79, 89
6, 19028, Note_off_c, 4, 79, 37
6, 19032, Note_on_c, 4, 78, 89
6, 19172, Note_off_c, 4, 78, 26
6, 19192, Note_on_c, 4, 79, 89
6, 19684, Note_off_c, 4, 79, 16
6, 19704, Note_on_c, 4, 78, 89
6, 19804, Note_off_c, 4, 78, 46
6, 19828, Note_on_c, 4, 76, 89
6, 19940, Note_off_c, 4, 76, 39
6, 19952, Note_on_c, 4, 78, 89
6, 20436, Note_off_c, 4, 78, 0
6, 20476, Note_on_c, 4, 76, 89
6, 20572, Note_off_c, 4, 76, 54
6, 20584, Note_on_c, 4, 74, 89
6, 20708, Note_off_c, 4, 74, 29
6, 20728, Note_on_c, 4, 76, 89
6, 21204, Note_off_c, 4, 76, 45
6, 21232, Note_on_c, 4, 74, 89
6, 21320, Note_off_c, 4, 74, 32
6, 21336, Note_on_c, 4, 72, 89
6, 21460, Note_off_c, 4, 72, 35
6, 21480, Note_on_c, 4, 74, 89
6, 22108, Note_off_c, 4, 74, 23
6, 23780, Note_on_c, 4, 72, 89
6, 24024, Note_off_c, 4, 72, 21
6, 24032, Note_on_c, 4, 71, 89
6, 24320, Note_off_c, 4, 71, 35
6, 24328, Note_on_c, 4, 69, 89
6, 24432, Note_off_c, 4, 69, 46
6, 24436, Note_on_c, 4, 67, 89
6, 24556, Note_off_c, 4, 67, 26
6, 24580, Note_on_c, 4, 69, 89
6, 26676, Note_off_c, 4, 69, 0
6, 26880, Note_on_c, 4, 67, 89
6, 27120, Note_off_c, 4, 67, 29
6, 27140, Note_on_c, 4, 66, 89
6, 27376, Note_off_c, 4, 66, 21
6, 27404, Note_on_c, 4, 64, 89
6, 27620, Note_off_c, 4, 64, 21
6, 27660, Note_on_c, 4, 62, 89
6, 29612, Note_off_c, 4, 62, 0
6, 29948, Note_on_c, 4, 64, 89
6, 30204, Note_on_c, 4, 66, 89
6, 30208, Note_off_c, 4, 64, 21
6, 30416, Note_on_c, 4, 67, 89
6, 30480, Note_off_c, 4, 66, 10
6, 30528, Note_on_c, 4, 71, 89
6, 30544, Note_off_c, 4, 67, 46
6, 30620, Note_off_c, 4, 71, 55
6, 30720, Note_on_c, 4, 69, 89
6, 32244, Control_c, 4, 64, 127
6, 32328, Control_c, 4, 64, 0
6, 33020, Note_off_c, 4, 69, 55
6, 33816, Note_on_c, 4, 72, 89
6, 33816, Note_on_c, 4, 69, 89
6, 36628, Note_off_c, 4, 69, 0
6, 36660, Note_off_c, 4, 72, 0
6, 36884, Note_on_c, 4, 67, 89
6, 36888, Note_on_c, 4, 71, 89
6, 39748, Note_off_c, 4, 67, 4
6, 39748, Note_off_c, 4, 71, 8
6, 39940, Note_on_c, 4, 69, 89
6, 39952, Note_on_c, 4, 65, 89
6, 42800, Note_off_c, 4, 65, 4
6, 42872, Note_off_c, 4, 69, 4
6, 42988, Note_on_c, 4, 68, 89
6, 43000, Note_on_c, 4, 64, 89
6, 45772, Note_off_c, 4, 64, 45
6, 45780, Note_off_c, 4, 68, 14
6, 46068, Note_on_c, 4, 69, 89
6, 46080, Note_on_c, 4, 64, 89
6, 46104, Note_on_c, 4, 60, 89
6, 47824, Note_off_c, 4, 60, 39
6, 47824, Note_off_c, 4, 64, 7
6, 47908, Note_off_c, 4, 69, 10
6, 49224, Note_on_c, 4, 67, 89
6, 49232, Note_on_c, 4, 60, 89
6, 49236, Note_on_c, 4, 64, 89
6, 50132, Note_off_c, 4, 64, 17
6, 50268, Note_on_c, 4, 64, 89
6, 50312, Note_off_c, 4, 67, 62
6, 50552, Note_off_c, 4, 60, 20
6, 50552, Note_off_c, 4, 64, 37
6, 50672, Note_on_c, 4, 59, 89
6, 50672, Note_on_c, 4, 67, 89
6, 51144, Note_off_c, 4, 59, 20
6, 51156, Note_off_c, 4, 67, 20
6, 51232, Note_on_c, 4, 59, 89
6, 51236, Note_on_c, 4, 62, 89
6, 51236, Note_on_c, 4, 67, 89
6, 51688, Note_off_c, 4, 59, 14
6, 51688, Note_off_c, 4, 62, 17
6, 51716, Note_off_c, 4, 67, 18
6, 51816, Note_on_c, 4, 62, 89
6, 51820, Note_on_c, 4, 67, 89
6, 51820, Note_on_c, 4, 59, 89
6, 51964, Note_off_c, 4, 59, 21
6, 51980, Note_off_c, 4, 62, 20
6, 52076, Note_off_c, 4, 67, 46
6, 52200, Note_on_c, 4, 60, 89
6, 52208, Note_on_c, 4, 64, 89
6, 52208, Note_on_c, 4, 69, 89
6, 53124, Note_off_c, 4, 60, 26
6, 53128, Note_off_c, 4, 64, 46
6, 53132, Note_off_c, 4, 69, 45
6, 53180, Note_on_c, 4, 69, 89
6, 53184, Note_on_c, 4, 64, 89
6, 53188, Note_on_c, 4, 60, 89
6, 53632, Note_off_c, 4, 60, 0
6, 53664, Note_off_c, 4, 69, 35
6, 53672, Note_off_c, 4, 64, 4
6, 53716, Note_on_c, 4, 64, 89
6, 53724, Note_on_c, 4, 67, 89
6, 53744, Note_on_c, 4, 59, 89
6, 54624, Note_off_c, 4, 59, 40
6, 54648, Note_off_c, 4, 67, 40
6, 54652, Note_off_c, 4, 64, 24
6, 54712, Note_on_c, 4, 67, 89
6, 54712, Note_on_c, 4, 59, 89
6, 54712, Note_on_c, 4, 64, 89
6, 55212, Note_off_c, 4, 67, 35
6, 55228, Note_off_c, 4, 64, 21
6, 55240, Note_off_c, 4, 59, 62
6, 55248, Note_on_c, 4, 65, 89
6, 55256, Note_on_c, 4, 69, 89
6, 55264, Note_on_c, 4, 60, 89
6, 56412, Note_on_c, 4, 72, 89
6, 56656, Note_off_c, 4, 65, 23
6, 56724, Note_off_c, 4, 60, 39
6, 56736, Note_off_c, 4, 69, 18
6, 56796, Note_on_c, 4, 60, 89
6, 56796, Note_on_c, 4, 65, 89
6, 56800, Note_on_c, 4, 69, 89
6, 56844, Note_off_c, 4, 72, 45
6, 57404, Note_on_c, 4, 72, 89
6, 57648, Note_off_c, 4, 69, 29
6, 57692, Note_off_c, 4, 65, 4
6, 57920, Note_on_c, 4, 65, 89
6, 57928, Note_on_c, 4, 69, 89
6, 58008, Note_off_c, 4, 72, 14
6, 58288, Note_off_c, 4, 60, 14
6, 58304, Note_off_c, 4, 65, 7
6, 58332, Note_off_c, 4, 69, 33
6, 58340, Note_on_c, 4, 71, 89
6, 58340, Note_on_c, 4, 67, 89
6, 58356, Note_on_c, 4, 64, 89
6, 59768, Note_off_c, 4, 64, 21
6, 59896, Note_on_c, 4, 64, 89
6, 59980, Note_off_c, 4, 67, 23
6, 60392, Note_off_c, 4, 64, 18
6, 60472, Note_on_c, 4, 67, 89
6, 60672, Note_on_c, 4, 64, 89
6, 60688, Note_off_c, 4, 71, 37
6, 60708, Note_off_c, 4, 67, 32
6, 61016, Note_on_c, 4, 67, 89
6, 61200, Note_on_c, 4, 69, 89
6, 61240, Note_off_c, 4, 67, 29
6, 61264, Note_off_c, 4, 64, 21
6, 61432, Note_off_c, 4, 69, 42
6, 61432, Note_on_c, 4, 72, 89
6, 61432, Note_on_c, 4, 65, 89
6, 62900, Note_off_c, 4, 65, 0
6, 62904, Note_off_c, 4, 72, 17
6, 62948, Note_on_c, 4, 72, 89
6, 62948, Note_on_c, 4, 69, 89
6, 62948, Note_on_c, 4, 65, 89
6, 63436, Note_off_c, 4, 69, 42
6, 63548, Note_on_c, 4, 69, 89
6, 63588, Note_off_c, 4, 72, 35
6, 63920, Note_on_c, 4, 72, 89
6, 64396, Note_off_c, 4, 65, 0
6, 64420, Note_off_c, 4, 69, 21
6, 64420, Note_off_c, 4, 72, 21
6, 64476, Note_on_c, 4, 71, 89
6, 64476, Note_on_c, 4, 67, 89
6, 64492, Note_on_c, 4, 64, 89
6, 65832, Note_off_c, 4, 64, 10
6, 66040, Note_on_c, 4, 64, 89
6, 66484, Note_off_c, 4, 71, 16
6, 66496, Note_off_c, 4, 67, 10
6, 66628, Note_on_c, 4, 71, 89
6, 66628, Note_on_c, 4, 67, 89
6, 66860, Note_off_c, 4, 64, 0
6, 67152, Note_on_c, 4, 64, 89
6, 67488, Note_off_c, 4, 64, 1
6, 67544, Note_off_c, 4, 67, 4
6, 67556, Note_off_c, 4, 71, 21
6, 67588, Note_on_c, 4, 69, 89
6, 67596, Note_on_c, 4, 65, 89
6, 67608, Note_on_c, 4, 62, 89
6, 68880, Note_off_c, 4, 62, 0
6, 68960, Note_off_c, 4, 65, 4
6, 69016, Note_off_c, 4, 69, 20
6, 69096, Note_on_c, 4, 68, 89
6, 69116, Note_on_c, 4, 65, 89
6, 69120, Note_on_c, 4, 72, 89
6, 69120, Note_on_c, 4, 77, 89
6, 70148, Note_off_c, 4, 72, 42
6, 70148, Note_off_c, 4, 77, 42
6, 70508, Note_off_c, 4, 65, 14
6, 70564, Note_off_c, 4, 68, 42
6, 70632, Note_on_c, 4, 64, 89
6, 70636, Note_on_c, 4, 67, 89
6, 70656, Note_on_c, 4, 72, 89
6, 70656, Note_on_c, 4, 76, 89
6, 72420, Note_off_c, 4, 67, 14
6, 72432, Note_off_c, 4, 64, 45
6, 72448, Note_off_c, 4, 72, 42
6, 72448, Note_off_c, 4, 76, 42
6, 72448, End_track
7, 0, Start_track
7, 0, Title_t, "Guitar 1"
7, 0, Control_c, 5, 0, 0
7, 0, Program_c, 5, 24
7, 0, Control_c, 5, 10, 87
7, 0, Key_signature, 0, "major"
7, 0, Note_on_c, 5, 78, 35
7, 80, Note_off_c, 5, 78, 0
7, 112, Note_on_c, 5, 74, 32
7, 196, Note_off_c, 5, 74, 33
7, 228, Note_on_c, 5, 78, 35
7, 360, Note_off_c, 5, 78, 43
7, 376, Note_on_c, 5, 74, 35
7, 476, Note_off_c, 5, 74, 11
7, 488, Note_on_c, 5, 78, 38
7, 624, Note_off_c, 5, 78, 42
7, 632, Note_on_c, 5, 74, 30
7, 720, Note_off_c, 5, 74, 22
7, 764, Note_on_c, 5, 76, 40
7, 880, Note_off_c, 5, 76, 57
7, 908, Note_on_c, 5, 72, 35
7, 1020, Note_off_c, 5, 72, 22
7, 1040, Note_on_c, 5, 76, 20
7, 1148, Note_off_c, 5, 76, 53
7, 1160, Note_on_c, 5, 72, 30
7, 1276, Note_on_c, 5, 76, 25
7, 1288, Note_off_c, 5, 72, 36
7, 1392, Note_off_c, 5, 76, 57
7, 1396, Note_on_c, 5, 72, 32
7, 1516, Note_off_c, 5, 72, 28
7, 1536, Note_on_c, 5, 74, 50
7, 1644, Note_off_c, 5, 74, 32
7, 1660, Note_on_c, 5, 71, 31
7, 1772, Note_on_c, 5, 74, 33
7, 1780, Note_off_c, 5, 71, 22
7, 1908, Note_off_c, 5, 74, 40
7, 1912, Note_on_c, 5, 71, 44
7, 2024, Note_off_c, 5, 71, 28
7, 2024, Note_on_c, 5, 74, 44
7, 2156, Note_on_c, 5, 71, 44
7, 2180, Note_off_c, 5, 74, 40
7, 2256, Note_off_c, 5, 71, 35
7, 2292, Note_on_c, 5, 76, 50
7, 2424, Note_off_c, 5, 76, 57
7, 2432, Note_on_c, 5, 72, 44
7, 2552, Note_on_c, 5, 76, 53
7, 2568, Note_off_c, 5, 72, 30
7, 2668, Note_off_c, 5, 76, 57
7, 2692, Note_on_c, 5, 72, 44
7, 2808, Note_on_c, 5, 76, 42
7, 2812, Note_off_c, 5, 72, 44
7, 2928, Note_off_c, 5, 76, 57
7, 2948, Note_on_c, 5, 72, 36
7, 3052, Note_off_c, 5, 72, 33
7, 3056, Note_on_c, 5, 78, 73
7, 3152, Note_off_c, 5, 78, 50
7, 3184, Note_on_c, 5, 74, 69
7, 3268, Note_off_c, 5, 74, 33
7, 3300, Note_on_c, 5, 78, 73
7, 3432, Note_off_c, 5, 78, 43
7, 3448, Note_on_c, 5, 74, 73
7, 3548, Note_off_c, 5, 74, 11
7, 3560, Note_on_c, 5, 78, 80
7, 3696, Note_off_c, 5, 78, 42
7, 3704, Note_on_c, 5, 74, 63
7, 3792, Note_off_c, 5, 74, 22
7, 3836, Note_on_c, 5, 76, 85
7, 3952, Note_off_c, 5, 76, 57
7, 3980, Note_on_c, 5, 72, 73
7, 4092, Note_off_c, 5, 72, 22
7, 4112, Note_on_c, 5, 76, 43
7, 4220, Note_off_c, 5, 76, 53
7, 4232, Note_on_c, 5, 72, 67
7, 4348, Note_on_c, 5, 76, 57
7, 4360, Note_off_c, 5, 72, 36
7, 4464, Note_off_c, 5, 76, 57
7, 4468, Note_on_c, 5, 72, 69
7, 4588, Note_off_c, 5, 72, 28
7, 4608, Note_on_c, 5, 74, 73
7, 4716, Note_off_c, 5, 74, 32
7, 4732, Note_on_c, 5, 71, 48
7, 4844, Note_on_c, 5, 74, 51
7, 4852, Note_off_c, 5, 71, 22
7, 4980, Note_off_c, 5, 74, 40
7, 4984, Note_on_c, 5, 71, 69
7, 5096, Note_off_c, 5, 71, 28
7, 5096, Note_on_c, 5, 74, 69
7, 5228, Note_on_c, 5, 71, 69
7, 5252, Note_off_c, 5, 74, 40
7, 5328, Note_off_c, 5, 71, 35
7, 5364, Note_on_c, 5, 76, 73
7, 5496, Note_off_c, 5, 76, 57
7, 5504, Note_on_c, 5, 72, 69
7, 5624, Note_on_c, 5, 76, 80
7, 5640, Note_off_c, 5, 72, 30
7, 5740, Note_off_c, 5, 76, 57
7, 5764, Note_on_c, 5, 72, 69
7, 5880, Note_on_c, 5, 76, 63
7, 5884, Note_off_c, 5, 72, 44
7, 6000, Note_off_c, 5, 76, 57
7, 6020, Note_on_c, 5, 72, 57
7, 6124, Note_off_c, 5, 72, 33
7, 6128, Note_on_c, 5, 78, 67
7, 6240, Note_off_c, 5, 78, 36
7, 6260, Note_on_c, 5, 74, 48
7, 6364, Note_off_c, 5, 74, 25
7, 6384, Note_on_c, 5, 78, 69
7, 6504, Note_off_c, 5, 78, 42
7, 6524, Note_on_c, 5, 74, 63
7, 6620, Note_off_c, 5, 74, 39
7, 6636, Note_on_c, 5, 78, 43
7, 6764, Note_off_c, 5, 78, 50
7, 6772, Note_on_c, 5, 74, 57
7, 6864, Note_off_c, 5, 74, 30
7, 6908, Note_on_c, 5, 76, 80
7, 7028, Note_off_c, 5, 76, 57
7, 7056, Note_on_c, 5, 72, 67
7, 7172, Note_on_c, 5, 76, 67
7, 7176, Note_off_c, 5, 72, 36
7, 7292, Note_off_c, 5, 76, 57
7, 7308, Note_on_c, 5, 72, 73
7, 7428, Note_on_c, 5, 76, 80
7, 7440, Note_off_c, 5, 72, 45
7, 7540, Note_off_c, 5, 76, 57
7, 7556, Note_on_c, 5, 72, 67
7, 7668, Note_off_c, 5, 72, 44
7, 7688, Note_on_c, 5, 74, 51
7, 7804, Note_off_c, 5, 74, 44
7, 7812, Note_on_c, 5, 71, 69
7, 7936, Note_off_c, 5, 71, 32
7, 7944, Note_on_c, 5, 74, 63
7, 8064, Note_off_c, 5, 74, 30
7, 8072, Note_on_c, 5, 71, 63
7, 8184, Note_off_c, 5, 71, 39
7, 8188, Note_on_c, 5, 74, 57
7, 8316, Note_off_c, 5, 74, 43
7, 8316, Note_on_c, 5, 71, 69
7, 8420, Note_off_c, 5, 71, 39
7, 8452, Note_on_c, 5, 76, 69
7, 8556, Note_off_c, 5, 76, 57
7, 8588, Note_on_c, 5, 72, 69
7, 8700, Note_on_c, 5, 76, 69
7, 8716, Note_off_c, 5, 72, 47
7, 8808, Note_off_c, 5, 76, 47
7, 8840, Note_on_c, 5, 72, 80
7, 8952, Note_on_c, 5, 76, 69
7, 8960, Note_off_c, 5, 72, 42
7, 9068, Note_off_c, 5, 76, 42
7, 9084, Note_on_c, 5, 72, 69
7, 9184, Note_off_c, 5, 72, 40
7, 9204, Note_on_c, 5, 78, 69
7, 9308, Note_off_c, 5, 78, 50
7, 9336, Note_on_c, 5, 74, 69
7, 9428, Note_off_c, 5, 74, 24
7, 9452, Note_on_c, 5, 78, 51
7, 9560, Note_off_c, 5, 78, 47
7, 9580, Note_on_c, 5, 74, 48
7, 9676, Note_off_c, 5, 74, 40
7, 9692, Note_on_c, 5, 78, 43
7, 9812, Note_off_c, 5, 78, 53
7, 9824, Note_on_c, 5, 74, 67
7, 9916, Note_off_c, 5, 74, 33
7, 9968, Note_on_c, 5, 76, 69
7, 10072, Note_off_c, 5, 76, 47
7, 10108, Note_on_c, 5, 72, 73
7, 10220, Note_on_c, 5, 76, 51
7, 10224, Note_off_c, 5, 72, 35
7, 10336, Note_off_c, 5, 76, 49
7, 10368, Note_on_c, 5, 72, 69
7, 10484, Note_on_c, 5, 76, 63
7, 10492, Note_off_c, 5, 72, 43
7, 10608, Note_off_c, 5, 76, 53
7, 10632, Note_on_c, 5, 72, 80
7, 10740, Note_off_c, 5, 72, 47
7, 10752, Note_on_c, 5, 74, 69
7, 10848, Note_off_c, 5, 74, 36
7, 10888, Note_on_c, 5, 71, 57
7, 10984, Note_off_c, 5, 71, 30
7, 11000, Note_on_c, 5, 74, 48
7, 11120, Note_off_c, 5, 74, 49
7, 11136, Note_on_c, 5, 71, 48
7, 11240, Note_off_c, 5, 71, 30
7, 11244, Note_on_c, 5, 74, 43
7, 11360, Note_off_c, 5, 74, 40
7, 11368, Note_on_c, 5, 71, 73
7, 11464, Note_off_c, 5, 71, 43
7, 11496, Note_on_c, 5, 76, 85
7, 11596, Note_off_c, 5, 76, 57
7, 11624, Note_on_c, 5, 72, 57
7, 11728, Note_off_c, 5, 72, 28
7, 11744, Note_on_c, 5, 76, 67
7, 11844, Note_off_c, 5, 76, 49
7, 11884, Note_on_c, 5, 72, 80
7, 11988, Note_off_c, 5, 72, 42
7, 12004, Note_on_c, 5, 76, 63
7, 12104, Note_off_c, 5, 76, 50
7, 12140, Note_on_c, 5, 72, 80
7, 12248, Note_off_c, 5, 72, 33
7, 12272, Note_on_c, 5, 78, 80
7, 12364, Note_off_c, 5, 78, 50
7, 12408, Note_on_c, 5, 74, 73
7, 12488, Note_off_c, 5, 74, 40
7, 12532, Note_on_c, 5, 78, 48
7, 12652, Note_off_c, 5, 78, 39
7, 12668, Note_on_c, 5, 74, 69
7, 12756, Note_off_c, 5, 74, 40
7, 12788, Note_on_c, 5, 78, 48
7, 12904, Note_off_c, 5, 78, 57
7, 12912, Note_on_c, 5, 74, 67
7, 13000, Note_off_c, 5, 74, 40
7, 13036, Note_on_c, 5, 76, 91
7, 13144, Note_off_c, 5, 76, 49
7, 13180, Note_on_c, 5, 72, 80
7, 13288, Note_on_c, 5, 76, 67
7, 13300, Note_off_c, 5, 72, 44
7, 13400, Note_off_c, 5, 76, 57
7, 13436, Note_on_c, 5, 72, 80
7, 13544, Note_on_c, 5, 76, 73
7, 13548, Note_off_c, 5, 72, 57
7, 13660, Note_off_c, 5, 76, 57
7, 13680, Note_on_c, 5, 72, 73
7, 13780, Note_off_c, 5, 72, 50
7, 14184, Note_on_c, 5, 71, 80
7, 14296, Note_off_c, 5, 71, 33
7, 14316, Note_on_c, 5, 74, 73
7, 14424, Note_off_c, 5, 74, 35
7, 14436, Note_on_c, 5, 71, 67
7, 14560, Note_off_c, 5, 71, 30
7, 14616, Note_on_c, 5, 76, 91
7, 14712, Note_off_c, 5, 76, 57
7, 14732, Note_on_c, 5, 72, 69
7, 14860, Note_on_c, 5, 76, 67
7, 14872, Note_off_c, 5, 72, 53
7, 14964, Note_off_c, 5, 76, 57
7, 14996, Note_on_c, 5, 72, 73
7, 15096, Note_on_c, 5, 76, 67
7, 15100, Note_off_c, 5, 72, 53
7, 15212, Note_off_c, 5, 76, 57
7, 15232, Note_on_c, 5, 72, 80
7, 15340, Note_off_c, 5, 72, 28
7, 15356, Note_on_c, 5, 78, 48
7, 15496, Note_off_c, 5, 78, 57
7, 15508, Note_on_c, 5, 74, 57
7, 15588, Note_off_c, 5, 74, 40
7, 15600, Note_on_c, 5, 78, 67
7, 15712, Note_off_c, 5, 78, 53
7, 15732, Note_on_c, 5, 74, 43
7, 15832, Note_off_c, 5, 74, 24
7, 15840, Note_on_c, 5, 78, 69
7, 15980, Note_off_c, 5, 78, 50
7, 15984, Note_on_c, 5, 74, 57
7, 16076, Note_off_c, 5, 74, 24
7, 16100, Note_on_c, 5, 76, 80
7, 16212, Note_off_c, 5, 76, 57
7, 16228, Note_on_c, 5, 72, 73
7, 16352, Note_on_c, 5, 76, 69
7, 16364, Note_off_c, 5, 72, 40
7, 16468, Note_off_c, 5, 76, 53
7, 16492, Note_on_c, 5, 72, 73
7, 16608, Note_on_c, 5, 76, 69
7, 16620, Note_off_c, 5, 72, 49
7, 16724, Note_off_c, 5, 76, 53
7, 16736, Note_on_c, 5, 72, 67
7, 16852, Note_off_c, 5, 72, 42
7, 16864, Note_on_c, 5, 74, 69
7, 16988, Note_off_c, 5, 74, 32
7, 17000, Note_on_c, 5, 71, 67
7, 17124, Note_off_c, 5, 71, 26
7, 17128, Note_on_c, 5, 74, 51
7, 17252, Note_off_c, 5, 74, 30
7, 17256, Note_on_c, 5, 71, 69
7, 17380, Note_off_c, 5, 71, 33
7, 17384, Note_on_c, 5, 74, 69
7, 17508, Note_on_c, 5, 71, 69
7, 17532, Note_off_c, 5, 74, 24
7, 17608, Note_off_c, 5, 71, 33
7, 17644, Note_on_c, 5, 76, 73
7, 17744, Note_off_c, 5, 76, 57
7, 17772, Note_on_c, 5, 72, 57
7, 17896, Note_off_c, 5, 72, 44
7, 17896, Note_on_c, 5, 76, 57
7, 18016, Note_off_c, 5, 76, 47
7, 18044, Note_on_c, 5, 72, 67
7, 18152, Note_off_c, 5, 72, 33
7, 18152, Note_on_c, 5, 76, 69
7, 18268, Note_off_c, 5, 76, 57
7, 18288, Note_on_c, 5, 72, 57
7, 18404, Note_on_c, 5, 78, 48
7, 18424, Note_off_c, 5, 72, 33
7, 18512, Note_off_c, 5, 78, 43
7, 18532, Note_on_c, 5, 74, 57
7, 18624, Note_off_c, 5, 74, 32
7, 18648, Note_on_c, 5, 78, 25
7, 18780, Note_off_c, 5, 78, 57
7, 18800, Note_on_c, 5, 74, 48
7, 18904, Note_on_c, 5, 78, 63
7, 18908, Note_off_c, 5, 74, 25
7, 19036, Note_off_c, 5, 78, 57
7, 19044, Note_on_c, 5, 74, 51
7, 19144, Note_off_c, 5, 74, 26
7, 19168, Note_on_c, 5, 76, 80
7, 19276, Note_off_c, 5, 76, 53
7, 19308, Note_on_c, 5, 72, 80
7, 19436, Note_on_c, 5, 76, 67
7, 19448, Note_off_c, 5, 72, 49
7, 19544, Note_off_c, 5, 76, 56
7, 19576, Note_on_c, 5, 72, 69
7, 19696, Note_on_c, 5, 76, 69
7, 19716, Note_off_c, 5, 72, 44
7, 19812, Note_off_c, 5, 76, 57
7, 19828, Note_on_c, 5, 72, 67
7, 19936, Note_off_c, 5, 72, 43
7, 19948, Note_on_c, 5, 74, 69
7, 20068, Note_off_c, 5, 74, 30
7, 20088, Note_on_c, 5, 71, 48
7, 20200, Note_off_c, 5, 71, 40
7, 20204, Note_on_c, 5, 74, 69
7, 20336, Note_off_c, 5, 74, 33
7, 20352, Note_on_c, 5, 71, 51
7, 20464, Note_off_c, 5, 71, 33
7, 20464, Note_on_c, 5, 74, 67
7, 20584, Note_on_c, 5, 71, 73
7, 20588, Note_off_c, 5, 74, 36
7, 20696, Note_off_c, 5, 71, 42
7, 20724, Note_on_c, 5, 76, 67
7, 20828, Note_off_c, 5, 76, 57
7, 20856, Note_on_c, 5, 72, 67
7, 20980, Note_on_c, 5, 76, 51
7, 20988, Note_off_c, 5, 72, 26
7, 21104, Note_off_c, 5, 76, 57
7, 21132, Note_on_c, 5, 72, 80
7, 21240, Note_on_c, 5, 76, 69
7, 21268, Note_off_c, 5, 72, 43
7, 21360, Note_off_c, 5, 76, 57
7, 21384, Note_on_c, 5, 72, 57
7, 21460, Note_off_c, 5, 72, 43
7, 21472, Note_on_c, 5, 74, 25
7, 21568, Note_off_c, 5, 74, 40
7, 21608, Note_on_c, 5, 78, 69
7, 21728, Note_off_c, 5, 78, 57
7, 21744, Note_on_c, 5, 74, 67
7, 21852, Note_off_c, 5, 74, 30
7, 21864, Note_on_c, 5, 78, 57
7, 21992, Note_off_c, 5, 78, 57
7, 22004, Note_on_c, 5, 74, 48
7, 22116, Note_off_c, 5, 74, 28
7, 22116, Note_on_c, 5, 78, 67
7, 22244, Note_off_c, 5, 78, 48
7, 22260, Note_on_c, 5, 76, 80
7, 22360, Note_off_c, 5, 76, 57
7, 22392, Note_on_c, 5, 72, 73
7, 22512, Note_on_c, 5, 76, 69
7, 22520, Note_off_c, 5, 72, 20
7, 22628, Note_off_c, 5, 76, 50
7, 22660, Note_on_c, 5, 72, 69
7, 22776, Note_on_c, 5, 76, 69
7, 22800, Note_off_c, 5, 72, 40
7, 22896, Note_off_c, 5, 76, 57
7, 22908, Note_on_c, 5, 72, 69
7, 23008, Note_off_c, 5, 72, 43
7, 23016, Note_on_c, 5, 74, 57
7, 23164, Note_off_c, 5, 74, 47
7, 23164, Note_on_c, 5, 71, 69
7, 23284, Note_on_c, 5, 74, 63
7, 23296, Note_off_c, 5, 71, 22
7, 23404, Note_off_c, 5, 74, 36
7, 23416, Note_on_c, 5, 71, 51
7, 23528, Note_off_c, 5, 71, 32
7, 23532, Note_on_c, 5, 74, 63
7, 23656, Note_on_c, 5, 71, 67
7, 23664, Note_off_c, 5, 74, 17
7, 23752, Note_off_c, 5, 71, 44
7, 23792, Note_on_c, 5, 76, 69
7, 23900, Note_off_c, 5, 76, 57
7, 23924, Note_on_c, 5, 72, 73
7, 24032, Note_off_c, 5, 72, 36
7, 24040, Note_on_c, 5, 76, 63
7, 24152, Note_off_c, 5, 76, 53
7, 24184, Note_on_c, 5, 72, 80
7, 24300, Note_off_c, 5, 72, 30
7, 24312, Note_on_c, 5, 76, 57
7, 24420, Note_off_c, 5, 76, 53
7, 24448, Note_on_c, 5, 72, 73
7, 24540, Note_off_c, 5, 72, 32
7, 24568, Note_on_c, 5, 78, 69
7, 24660, Note_off_c, 5, 78, 44
7, 24696, Note_on_c, 5, 74, 63
7, 24776, Note_off_c, 5, 74, 26
7, 24824, Note_on_c, 5, 78, 73
7, 24948, Note_off_c, 5, 78, 35
7, 24968, Note_on_c, 5, 74, 63
7, 25052, Note_off_c, 5, 74, 30
7, 25080, Note_on_c, 5, 78, 73
7, 25200, Note_off_c, 5, 78, 56
7, 25208, Note_on_c, 5, 74, 69
7, 25288, Note_off_c, 5, 74, 43
7, 25328, Note_on_c, 5, 76, 85
7, 25428, Note_off_c, 5, 76, 42
7, 25468, Note_on_c, 5, 72, 73
7, 25584, Note_off_c, 5, 72, 40
7, 25584, Note_on_c, 5, 76, 51
7, 25704, Note_off_c, 5, 76, 57
7, 25736, Note_on_c, 5, 72, 73
7, 25852, Note_on_c, 5, 76, 69
7, 25860, Note_off_c, 5, 72, 32
7, 25968, Note_off_c, 5, 76, 57
7, 25984, Note_on_c, 5, 72, 69
7, 26084, Note_off_c, 5, 72, 49
7, 26108, Note_on_c, 5, 74, 57
7, 26220, Note_off_c, 5, 74, 30
7, 26240, Note_on_c, 5, 71, 25
7, 26356, Note_off_c, 5, 71, 28
7, 26372, Note_on_c, 5, 74, 43
7, 26492, Note_off_c, 5, 74, 30
7, 26508, Note_on_c, 5, 71, 63
7, 26620, Note_off_c, 5, 71, 30
7, 26632, Note_on_c, 5, 74, 48
7, 26740, Note_off_c, 5, 74, 43
7, 26752, Note_on_c, 5, 71, 69
7, 26876, Note_off_c, 5, 71, 42
7, 26892, Note_on_c, 5, 76, 48
7, 27000, Note_off_c, 5, 76, 57
7, 27028, Note_on_c, 5, 72, 80
7, 27136, Note_on_c, 5, 76, 57
7, 27144, Note_off_c, 5, 72, 32
7, 27240, Note_off_c, 5, 76, 57
7, 27276, Note_on_c, 5, 72, 69
7, 27388, Note_on_c, 5, 76, 43
7, 27392, Note_off_c, 5, 72, 35
7, 27512, Note_off_c, 5, 76, 57
7, 27536, Note_on_c, 5, 72, 73
7, 27656, Note_on_c, 5, 78, 69
7, 27680, Note_off_c, 5, 72, 23
7, 27760, Note_off_c, 5, 78, 42
7, 27784, Note_on_c, 5, 74, 67
7, 27876, Note_off_c, 5, 74, 17
7, 27896, Note_on_c, 5, 78, 51
7, 28012, Note_off_c, 5, 78, 56
7, 28024, Note_on_c, 5, 74, 69
7, 28124, Note_off_c, 5, 74, 26
7, 28136, Note_on_c, 5, 78, 57
7, 28264, Note_off_c, 5, 78, 57
7, 28272, Note_on_c, 5, 74, 67
7, 28380, Note_off_c, 5, 74, 20
7, 28396, Note_on_c, 5, 76, 69
7, 28496, Note_off_c, 5, 76, 56
7, 28528, Note_on_c, 5, 72, 69
7, 28648, Note_on_c, 5, 76, 63
7, 28676, Note_off_c, 5, 72, 43
7, 28772, Note_off_c, 5, 76, 57
7, 28796, Note_on_c, 5, 72, 80
7, 28908, Note_on_c, 5, 76, 63
7, 28936, Note_off_c, 5, 72, 44
7, 29024, Note_off_c, 5, 76, 57
7, 29044, Note_on_c, 5, 72, 73
7, 29136, Note_off_c, 5, 72, 49
7, 29168, Note_on_c, 5, 74, 67
7, 29288, Note_off_c, 5, 74, 35
7, 29296, Note_on_c, 5, 71, 43
7, 29420, Note_on_c, 5, 74, 67
7, 29432, Note_off_c, 5, 71, 25
7, 29556, Note_off_c, 5, 74, 26
7, 29560, Note_on_c, 5, 71, 69
7, 29672, Note_off_c, 5, 71, 33
7, 29680, Note_on_c, 5, 74, 69
7, 29792, Note_off_c, 5, 74, 28
7, 29800, Note_on_c, 5, 71, 69
7, 29888, Note_off_c, 5, 71, 47
7, 29936, Note_on_c, 5, 76, 63
7, 30028, Note_off_c, 5, 76, 57
7, 30060, Note_on_c, 5, 72, 69
7, 30184, Note_off_c, 5, 72, 23
7, 30192, Note_on_c, 5, 76, 67
7, 30304, Note_off_c, 5, 76, 40
7, 30340, Note_on_c, 5, 72, 85
7, 30448, Note_off_c, 5, 72, 24
7, 30452, Note_on_c, 5, 76, 69
7, 30556, Note_off_c, 5, 76, 53
7, 30592, Note_on_c, 5, 72, 80
7, 30704, Note_off_c, 5, 72, 22
7, 30716, Note_on_c, 5, 78, 69
7, 30808, Note_off_c, 5, 78, 44
7, 30844, Note_on_c, 5, 74, 67
7, 30920, Note_off_c, 5, 74, 24
7, 30972, Note_on_c, 5, 78, 69
7, 31096, Note_off_c, 5, 78, 50
7, 31112, Note_on_c, 5, 74, 69
7, 31200, Note_off_c, 5, 74, 33
7, 31232, Note_on_c, 5, 78, 33
7, 31348, Note_off_c, 5, 78, 56
7, 31360, Note_on_c, 5, 74, 67
7, 31432, Note_off_c, 5, 74, 36
7, 31476, Note_on_c, 5, 76, 73
7, 31580, Note_off_c, 5, 76, 49
7, 31616, Note_on_c, 5, 72, 73
7, 31724, Note_on_c, 5, 76, 63
7, 31744, Note_off_c, 5, 72, 30
7, 31844, Note_off_c, 5, 76, 40
7, 31888, Note_on_c, 5, 72, 73
7, 31996, Note_off_c, 5, 72, 26
7, 31996, Note_on_c, 5, 76, 67
7, 32108, Note_off_c, 5, 76, 57
7, 32128, Note_on_c, 5, 72, 69
7, 32224, Note_off_c, 5, 72, 40
7, 32256, Note_on_c, 5, 74, 51
7, 32360, Note_off_c, 5, 74, 22
7, 32396, Note_on_c, 5, 71, 73
7, 32504, Note_off_c, 5, 71, 33
7, 32520, Note_on_c, 5, 74, 51
7, 32636, Note_off_c, 5, 74, 48
7, 32652, Note_on_c, 5, 71, 48
7, 32756, Note_off_c, 5, 71, 28
7, 32772, Note_on_c, 5, 74, 43
7, 32896, Note_on_c, 5, 71, 69
7, 32900, Note_off_c, 5, 74, 42
7, 33008, Note_off_c, 5, 71, 28
7, 33024, Note_on_c, 5, 76, 67
7, 33136, Note_off_c, 5, 76, 57
7, 33164, Note_on_c, 5, 72, 57
7, 33276, Note_on_c, 5, 76, 69
7, 33308, Note_off_c, 5, 72, 47
7, 33400, Note_off_c, 5, 76, 57
7, 33428, Note_on_c, 5, 72, 69
7, 33532, Note_on_c, 5, 76, 69
7, 33552, Note_off_c, 5, 72, 43
7, 33648, Note_off_c, 5, 76, 57
7, 33648, End_track
8, 0, Start_track
8, 0, Title_t, "Guitar 2"
8, 0, Control_c, 6, 0, 0
8, 0, Program_c, 6, 27
8, 0, Control_c, 6, 10, 56
8, 0, Key_signature, 0, "major"
8, 3044, Note_on_c, 6, 62, 40
8, 3072, Note_on_c, 6, 50, 37
8, 3172, Note_on_c, 6, 57, 41
8, 3176, Note_off_c, 6, 62, 37
8, 3276, Note_off_c, 6, 57, 24
8, 3292, Note_on_c, 6, 62, 38
8, 3428, Note_off_c, 6, 62, 50
8, 3452, Note_on_c, 6, 57, 44
8, 3552, Note_off_c, 6, 57, 24
8, 3556, Note_on_c, 6, 62, 40
8, 3684, Note_off_c, 6, 62, 44
8, 3692, Note_on_c, 6, 57, 46
8, 3796, Note_off_c, 6, 57, 32
8, 3812, Note_on_c, 6, 62, 40
8, 3824, Note_off_c, 6, 50, 25
8, 3840, Note_on_c, 6, 48, 35
8, 3944, Note_off_c, 6, 62, 49
8, 3956, Note_on_c, 6, 57, 41
8, 4076, Note_off_c, 6, 57, 14
8, 4076, Note_on_c, 6, 62, 40
8, 4208, Note_off_c, 6, 62, 51
8, 4220, Note_on_c, 6, 57, 46
8, 4328, Note_off_c, 6, 57, 28
8, 4340, Note_on_c, 6, 62, 41
8, 4468, Note_off_c, 6, 62, 51
8, 4468, Note_on_c, 6, 57, 44
8, 4496, Note_off_c, 6, 48, 26
8, 4568, Note_off_c, 6, 57, 29
8, 4580, Note_on_c, 6, 62, 43
8, 4608, Note_on_c, 6, 47, 39
8, 4692, Note_off_c, 6, 62, 42
8, 4700, Note_on_c, 6, 57, 38
8, 4804, Note_off_c, 6, 57, 24
8, 4820, Note_on_c, 6, 62, 36
8, 4956, Note_off_c, 6, 62, 40
8, 4964, Note_on_c, 6, 57, 42
8, 5084, Note_on_c, 6, 62, 40
8, 5092, Note_off_c, 6, 57, 18
8, 5212, Note_on_c, 6, 57, 40
8, 5216, Note_off_c, 6, 62, 52
8, 5324, Note_off_c, 6, 47, 37
8, 5324, Note_off_c, 6, 57, 23
8, 5352, Note_on_c, 6, 62, 43
8, 5376, Note_on_c, 6, 48, 44
8, 5476, Note_on_c, 6, 57, 37
8, 5480, Note_off_c, 6, 62, 57
8, 5588, Note_off_c, 6, 57, 31
8, 5612, Note_on_c, 6, 62, 37
8, 5756, Note_on_c, 6, 57, 45
8, 5760, Note_off_c, 6, 62, 51
8, 5864, Note_off_c, 6, 57, 27
8, 5876, Note_on_c, 6, 62, 37
8, 5996, Note_off_c, 6, 62, 57
8, 5996, Note_on_c, 6, 57, 47
8, 6100, Note_off_c, 6, 48, 38
8, 6100, Note_off_c, 6, 57, 25
8, 6116, Note_on_c, 6, 62, 40
8, 6144, Note_on_c, 6, 50, 43
8, 6244, Note_on_c, 6, 57, 41
8, 6248, Note_off_c, 6, 62, 42
8, 6348, Note_off_c, 6, 57, 24
8, 6364, Note_on_c, 6, 62, 38
8, 6500, Note_off_c, 6, 62, 50
8, 6524, Note_on_c, 6, 57, 44
8, 6624, Note_off_c, 6, 57, 24
8, 6628, Note_on_c, 6, 62, 40
8, 6756, Note_off_c, 6, 62, 44
8, 6764, Note_on_c, 6, 57, 46
8, 6828, Note_off_c, 6, 50, 37
8, 6868, Note_off_c, 6, 57, 32
8, 6884, Note_on_c, 6, 62, 40
8, 6912, Note_on_c, 6, 48, 40
8, 7016, Note_off_c, 6, 62, 49
8, 7028, Note_on_c, 6, 57, 41
8, 7148, Note_off_c, 6, 57, 14
8, 7148, Note_on_c, 6, 62, 40
8, 7280, Note_off_c, 6, 62, 51
8, 7292, Note_on_c, 6, 57, 46
8, 7400, Note_off_c, 6, 57, 28
8, 7412, Note_on_c, 6, 62, 41
8, 7540, Note_off_c, 6, 62, 51
8, 7540, Note_on_c, 6, 57, 44
8, 7560, Note_off_c, 6, 48, 21
8, 7640, Note_off_c, 6, 57, 29
8, 7660, Note_on_c, 6, 62, 44
8, 7680, Note_on_c, 6, 47, 39
8, 7792, Note_off_c, 6, 62, 42
8, 7800, Note_on_c, 6, 57, 42
8, 7916, Note_off_c, 6, 57, 20
8, 7920, Note_on_c, 6, 62, 41
8, 8064, Note_off_c, 6, 62, 42
8, 8068, Note_on_c, 6, 57, 52
8, 8164, Note_off_c, 6, 57, 29
8, 8188, Note_on_c, 6, 62, 43
8, 8308, Note_on_c, 6, 57, 45
8, 8316, Note_off_c, 6, 47, 18
8, 8320, Note_off_c, 6, 62, 49
8, 8416, Note_off_c, 6, 57, 29
8, 8444, Note_on_c, 6, 62, 45
8, 8448, Note_on_c, 6, 48, 38
8, 8580, Note_off_c, 6, 62, 47
8, 8588, Note_on_c, 6, 57, 46
8, 8696, Note_off_c, 6, 57, 29
8, 8708, Note_on_c, 6, 62, 43
8, 8836, Note_on_c, 6, 57, 50
8, 8848, Note_off_c, 6, 62, 58
8, 8928, Note_off_c, 6, 57, 29
8, 8952, Note_on_c, 6, 62, 40
8, 9084, Note_off_c, 6, 62, 56
8, 9088, Note_off_c, 6, 48, 35
8, 9092, Note_on_c, 6, 57, 48
8, 9196, Note_on_c, 6, 62, 35
8, 9200, Note_off_c, 6, 57, 28
8, 9216, Note_on_c, 6, 50, 47
8, 9332, Note_off_c, 6, 62, 42
8, 9340, Note_on_c, 6, 57, 47
8, 9448, Note_off_c, 6, 57, 20
8, 9460, Note_on_c, 6, 62, 43
8, 9588, Note_off_c, 6, 62, 52
8, 9596, Note_on_c, 6, 57, 48
8, 9700, Note_on_c, 6, 62, 43
8, 9708, Note_off_c, 6, 57, 27
8, 9836, Note_off_c, 6, 62, 52
8, 9836, Note_on_c, 6, 57, 45
8, 9936, Note_off_c, 6, 50, 10
8, 9964, Note_off_c, 6, 57, 23
8, 9964, Note_on_c, 6, 62, 46
8, 9984, Note_on_c, 6, 48, 40
8, 10096, Note_off_c, 6, 62, 52
8, 10104, Note_on_c, 6, 57, 43
8, 10204, Note_off_c, 6, 57, 24
8, 10220, Note_on_c, 6, 62, 41
8, 10360, Note_off_c, 6, 62, 51
8, 10364, Note_on_c, 6, 57, 44
8, 10468, Note_on_c, 6, 62, 40
8, 10472, Note_off_c, 6, 57, 20
8, 10608, Note_off_c, 6, 62, 52
8, 10608, Note_on_c, 6, 57, 44
8, 10668, Note_off_c, 6, 48, 21
8, 10720, Note_off_c, 6, 57, 25
8, 10728, Note_on_c, 6, 62, 41
8, 10752, Note_on_c, 6, 47, 40
8, 10860, Note_off_c, 6, 62, 42
8, 10868, Note_on_c, 6, 57, 41
8, 10972, Note_on_c, 6, 62, 41
8, 10976, Note_off_c, 6, 57, 32
8, 11116, Note_off_c, 6, 62, 51
8, 11132, Note_on_c, 6, 57, 42
8, 11236, Note_on_c, 6, 62, 40
8, 11244, Note_off_c, 6, 57, 28
8, 11380, Note_off_c, 6, 62, 52
8, 11380, Note_on_c, 6, 57, 43
8, 11424, Note_off_c, 6, 47, 37
8, 11488, Note_off_c, 6, 57, 29
8, 11500, Note_on_c, 6, 62, 43
8, 11520, Note_on_c, 6, 48, 38
8, 11624, Note_off_c, 6, 62, 50
8, 11644, Note_on_c, 6, 57, 38
8, 11740, Note_off_c, 6, 57, 27
8, 11756, Note_on_c, 6, 62, 37
8, 11896, Note_off_c, 6, 62, 37
8, 11900, Note_on_c, 6, 57, 46
8, 11972, Note_off_c, 6, 48, 17
8, 12012, Note_off_c, 6, 57, 20
8, 12028, Note_on_c, 6, 62, 40
8, 12144, Note_off_c, 6, 62, 47
8, 12164, Note_on_c, 6, 57, 40
8, 12256, Note_off_c, 6, 57, 29
8, 12260, Note_on_c, 6, 62, 37
8, 12288, Note_on_c, 6, 50, 37
8, 12388, Note_on_c, 6, 57, 47
8, 12392, Note_off_c, 6, 62, 42
8, 12480, Note_off_c, 6, 57, 32
8, 12508, Note_on_c, 6, 62, 40
8, 12620, Note_off_c, 6, 62, 52
8, 12620, Note_on_c, 6, 57, 43
8, 12712, Note_off_c, 6, 57, 37
8, 12740, Note_on_c, 6, 62, 33
8, 12868, Note_on_c, 6, 57, 48
8, 12884, Note_off_c, 6, 62, 58
8, 12928, Note_off_c, 6, 50, 18
8, 12976, Note_off_c, 6, 57, 24
8, 13004, Note_on_c, 6, 62, 35
8, 13056, Note_on_c, 6, 48, 48
8, 13140, Note_off_c, 6, 62, 55
8, 13148, Note_on_c, 6, 57, 39
8, 13256, Note_off_c, 6, 57, 26
8, 13268, Note_on_c, 6, 62, 44
8, 13388, Note_off_c, 6, 62, 56
8, 13396, Note_on_c, 6, 57, 41
8, 13492, Note_off_c, 6, 57, 29
8, 13508, Note_on_c, 6, 62, 35
8, 13636, Note_on_c, 6, 57, 47
8, 13640, Note_off_c, 6, 62, 56
8, 13668, Note_off_c, 6, 48, 22
8, 13740, Note_off_c, 6, 57, 27
8, 13772, Note_on_c, 6, 62, 43
8, 13824, Note_on_c, 6, 47, 48
8, 13900, Note_off_c, 6, 62, 42
8, 13916, Note_on_c, 6, 57, 42
8, 14012, Note_off_c, 6, 57, 31
8, 14020, Note_on_c, 6, 62, 37
8, 14152, Note_off_c, 6, 62, 47
8, 14156, Note_on_c, 6, 57, 44
8, 14260, Note_off_c, 6, 57, 25
8, 14300, Note_on_c, 6, 62, 40
8, 14424, Note_on_c, 6, 57, 40
8, 14428, Note_off_c, 6, 62, 49
8, 14464, Note_off_c, 6, 47, 37
8, 14548, Note_off_c, 6, 57, 20
8, 14588, Note_on_c, 6, 62, 37
8, 14592, Note_on_c, 6, 48, 48
8, 14716, Note_on_c, 6, 57, 40
8, 14720, Note_off_c, 6, 62, 43
8, 14820, Note_off_c, 6, 57, 31
8, 14828, Note_on_c, 6, 62, 40
8, 14972, Note_on_c, 6, 57, 41
8, 14980, Note_off_c, 6, 62, 40
8, 15088, Note_off_c, 6, 57, 28
8, 15092, Note_on_c, 6, 62, 42
8, 15216, Note_on_c, 6, 57, 48
8, 15224, Note_off_c, 6, 48, 0
8, 15236, Note_off_c, 6, 62, 47
8, 15336, Note_off_c, 6, 57, 25
8, 15340, Note_on_c, 6, 62, 44
8, 15360, Note_on_c, 6, 50, 40
8, 15492, Note_off_c, 6, 62, 42
8, 15500, Note_on_c, 6, 57, 33
8, 15588, Note_off_c, 6, 57, 29
8, 15604, Note_on_c, 6, 62, 38
8, 15744, Note_off_c, 6, 62, 45
8, 15764, Note_on_c, 6, 57, 40
8, 15848, Note_off_c, 6, 57, 28
8, 15860, Note_on_c, 6, 62, 33
8, 15980, Note_on_c, 6, 57, 44
8, 15988, Note_off_c, 6, 62, 50
8, 16068, Note_off_c, 6, 50, 7
8, 16104, Note_off_c, 6, 57, 18
8, 16124, Note_on_c, 6, 62, 44
8, 16128, Note_on_c, 6, 48, 48
8, 16244, Note_on_c, 6, 57, 39
8, 16248, Note_off_c, 6, 62, 43
8, 16336, Note_off_c, 6, 57, 29
8, 16348, Note_on_c, 6, 62, 35
8, 16484, Note_on_c, 6, 57, 48
8, 16496, Note_off_c, 6, 62, 44
8, 16600, Note_off_c, 6, 57, 18
8, 16604, Note_on_c, 6, 62, 43
8, 16728, Note_on_c, 6, 57, 48
8, 16740, Note_off_c, 6, 62, 45
8, 16760, Note_off_c, 6, 48, 0
8, 16828, Note_off_c, 6, 57, 29
8, 16844, Note_on_c, 6, 62, 44
8, 16896, Note_on_c, 6, 47, 37
8, 16988, Note_on_c, 6, 57, 44
8, 16996, Note_off_c, 6, 62, 42
8, 17100, Note_off_c, 6, 57, 16
8, 17112, Note_on_c, 6, 62, 36
8, 17252, Note_on_c, 6, 57, 50
8, 17260, Note_off_c, 6, 62, 47
8, 17356, Note_off_c, 6, 57, 21
8, 17372, Note_on_c, 6, 62, 40
8, 17500, Note_on_c, 6, 57, 46
8, 17528, Note_off_c, 6, 62, 54
8, 17612, Note_off_c, 6, 47, 37
8, 17620, Note_off_c, 6, 57, 22
8, 17636, Note_on_c, 6, 62, 46
8, 17664, Note_on_c, 6, 48, 44
8, 17760, Note_off_c, 6, 62, 39
8, 17760, Note_on_c, 6, 57, 41
8, 17852, Note_off_c, 6, 57, 26
8, 17876, Note_on_c, 6, 62, 41
8, 18000, Note_on_c, 6, 57, 40
8, 18020, Note_off_c, 6, 62, 38
8, 18108, Note_off_c, 6, 57, 19
8, 18120, Note_on_c, 6, 62, 41
8, 18244, Note_on_c, 6, 57, 48
8, 18260, Note_off_c, 6, 62, 44
8, 18352, Note_off_c, 6, 48, 40
8, 18356, Note_off_c, 6, 57, 20
8, 18384, Note_on_c, 6, 62, 41
8, 18432, Note_on_c, 6, 50, 36
8, 18508, Note_on_c, 6, 57, 46
8, 18520, Note_off_c, 6, 62, 42
8, 18608, Note_off_c, 6, 57, 27
8, 18644, Note_on_c, 6, 62, 40
8, 18764, Note_on_c, 6, 57, 44
8, 18776, Note_off_c, 6, 62, 46
8, 18852, Note_off_c, 6, 57, 29
8, 18884, Note_on_c, 6, 62, 41
8, 18988, Note_on_c, 6, 57, 38
8, 19020, Note_off_c, 6, 62, 41
8, 19112, Note_off_c, 6, 50, 37
8, 19112, Note_off_c, 6, 57, 16
8, 19148, Note_on_c, 6, 62, 44
8, 19200, Note_on_c, 6, 48, 44
8, 19276, Note_on_c, 6, 57, 45
8, 19284, Note_off_c, 6, 62, 43
8, 19372, Note_off_c, 6, 57, 29
8, 19396, Note_on_c, 6, 62, 37
8, 19532, Note_on_c, 6, 57, 43
8, 19540, Note_off_c, 6, 62, 48
8, 19632, Note_off_c, 6, 57, 27
8, 19656, Note_on_c, 6, 62, 41
8, 19756, Note_off_c, 6, 48, 1
8, 19796, Note_off_c, 6, 62, 47
8, 19796, Note_on_c, 6, 57, 48
8, 19896, Note_off_c, 6, 57, 29
8, 19916, Note_on_c, 6, 62, 47
8, 19968, Note_on_c, 6, 47, 42
8, 20060, Note_on_c, 6, 57, 48
8, 20064, Note_off_c, 6, 62, 42
8, 20160, Note_off_c, 6, 57, 26
8, 20188, Note_on_c, 6, 62, 37
8, 20320, Note_off_c, 6, 62, 52
8, 20324, Note_on_c, 6, 57, 46
8, 20420, Note_off_c, 6, 57, 27
8, 20452, Note_on_c, 6, 62, 40
8, 20588, Note_off_c, 6, 62, 50
8, 20588, Note_on_c, 6, 57, 43
8, 20692, Note_off_c, 6, 57, 33
8, 20708, Note_on_c, 6, 62, 48
8, 20732, Note_off_c, 6, 47, 37
8, 20736, Note_on_c, 6, 48, 37
8, 20844, Note_off_c, 6, 62, 38
8, 20852, Note_on_c, 6, 57, 44
8, 20956, Note_off_c, 6, 57, 24
8, 20972, Note_on_c, 6, 62, 31
8, 21100, Note_on_c, 6, 57, 48
8, 21116, Note_off_c, 6, 62, 61
8, 21220, Note_off_c, 6, 57, 13
8, 21240, Note_on_c, 6, 62, 43
8, 21380, Note_off_c, 6, 62, 40
8, 21380, Note_on_c, 6, 57, 45
8, 21412, Note_off_c, 6, 48, 15
8, 21480, Note_off_c, 6, 57, 31
8, 21484, Note_on_c, 6, 62, 44
8, 21504, Note_on_c, 6, 50, 40
8, 21624, Note_off_c, 6, 62, 42
8, 21628, Note_on_c, 6, 57, 41
8, 21728, Note_off_c, 6, 57, 22
8, 21764, Note_on_c, 6, 62, 37
8, 21908, Note_on_c, 6, 57, 43
8, 21920, Note_off_c, 6, 62, 35
8, 22012, Note_on_c, 6, 62, 40
8, 22016, Note_off_c, 6, 57, 20
8, 22152, Note_off_c, 6, 50, 0
8, 22152, Note_on_c, 6, 57, 44
8, 22156, Note_off_c, 6, 62, 48
8, 22252, Note_off_c, 6, 57, 36
8, 22272, Note_on_c, 6, 62, 45
8, 22272, Note_on_c, 6, 48, 43
8, 22412, Note_off_c, 6, 62, 48
8, 22412, Note_on_c, 6, 57, 45
8, 22516, Note_off_c, 6, 57, 26
8, 22532, Note_on_c, 6, 62, 40
8, 22660, Note_on_c, 6, 57, 46
8, 22676, Note_off_c, 6, 62, 52
8, 22764, Note_off_c, 6, 57, 32
8, 22796, Note_on_c, 6, 62, 37
8, 22920, Note_on_c, 6, 57, 48
8, 22940, Note_off_c, 6, 48, 15
8, 22940, Note_off_c, 6, 62, 46
8, 23016, Note_off_c, 6, 57, 36
8, 23036, Note_on_c, 6, 62, 41
8, 23040, Note_on_c, 6, 47, 40
8, 23168, Note_off_c, 6, 62, 42
8, 23180, Note_on_c, 6, 57, 43
8, 23280, Note_off_c, 6, 57, 28
8, 23284, Note_on_c, 6, 62, 40
8, 23424, Note_on_c, 6, 57, 48
8, 23432, Note_off_c, 6, 62, 36
8, 23544, Note_off_c, 6, 57, 23
8, 23564, Note_on_c, 6, 62, 43
8, 23684, Note_on_c, 6, 57, 49
8, 23700, Note_off_c, 6, 62, 40
8, 23728, Note_off_c, 6, 47, 34
8, 23788, Note_off_c, 6, 57, 29
8, 23808, Note_on_c, 6, 62, 43
8, 23808, Note_on_c, 6, 48, 35
8, 23952, Note_on_c, 6, 57, 48
8, 23956, Note_off_c, 6, 62, 37
8, 24044, Note_off_c, 6, 57, 36
8, 24052, Note_on_c, 6, 62, 37
8, 24192, Note_on_c, 6, 57, 48
8, 24204, Note_off_c, 6, 62, 55
8, 24316, Note_off_c, 6, 57, 23
8, 24316, Note_on_c, 6, 62, 48
8, 24452, Note_off_c, 6, 62, 40
8, 24452, Note_on_c, 6, 57, 45
8, 24556, Note_off_c, 6, 57, 32
8, 24564, Note_off_c, 6, 48, 48
8, 24572, Note_on_c, 6, 62, 45
8, 24576, Note_on_c, 6, 50, 36
8, 24708, Note_off_c, 6, 62, 42
8, 24716, Note_on_c, 6, 57, 43
8, 24804, Note_off_c, 6, 57, 32
8, 24816, Note_on_c, 6, 62, 43
8, 24956, Note_on_c, 6, 57, 52
8, 24968, Note_off_c, 6, 62, 40
8, 25052, Note_off_c, 6, 57, 25
8, 25076, Note_on_c, 6, 62, 39
8, 25208, Note_off_c, 6, 62, 52
8, 25220, Note_on_c, 6, 57, 43
8, 25284, Note_off_c, 6, 50, 9
8, 25316, Note_off_c, 6, 57, 23
8, 25324, Note_on_c, 6, 62, 40
8, 25344, Note_on_c, 6, 48, 38
8, 25472, Note_off_c, 6, 62, 40
8, 25484, Note_on_c, 6, 57, 44
8, 25584, Note_off_c, 6, 57, 29
8, 25588, Note_on_c, 6, 62, 40
8, 25716, Note_off_c, 6, 62, 47
8, 25724, Note_on_c, 6, 57, 48
8, 25824, Note_off_c, 6, 57, 31
8, 25844, Note_on_c, 6, 62, 41
8, 25956, Note_off_c, 6, 48, 13
8, 25972, Note_on_c, 6, 57, 51
8, 25984, Note_off_c, 6, 62, 44
8, 26072, Note_off_c, 6, 57, 38
8, 26084, Note_on_c, 6, 62, 47
8, 26112, Note_on_c, 6, 47, 37
8, 26228, Note_off_c, 6, 62, 42
8, 26236, Note_on_c, 6, 57, 48
8, 26332, Note_off_c, 6, 57, 29
8, 26356, Note_on_c, 6, 62, 37
8, 26492, Note_on_c, 6, 57, 49
8, 26500, Note_off_c, 6, 62, 48
8, 26588, Note_off_c, 6, 57, 29
8, 26620, Note_on_c, 6, 62, 42
8, 26740, Note_off_c, 6, 47, 37
8, 26740, Note_off_c, 6, 62, 49
8, 26740, Note_on_c, 6, 57, 45
8, 26832, Note_off_c, 6, 57, 31
8, 26876, Note_on_c, 6, 62, 44
8, 26880, Note_on_c, 6, 48, 36
8, 26996, Note_off_c, 6, 62, 44
8, 27000, Note_on_c, 6, 57, 43
8, 27088, Note_off_c, 6, 57, 29
8, 27120, Note_on_c, 6, 62, 31
8, 27244, Note_on_c, 6, 57, 43
8, 27260, Note_off_c, 6, 62, 46
8, 27356, Note_off_c, 6, 57, 25
8, 27404, Note_on_c, 6, 62, 42
8, 27484, Note_off_c, 6, 48, 14
8, 27508, Note_on_c, 6, 57, 43
8, 27520, Note_off_c, 6, 62, 33
8, 27600, Note_off_c, 6, 57, 25
8, 27628, Note_on_c, 6, 62, 42
8, 27648, Note_on_c, 6, 50, 42
8, 27764, Note_off_c, 6, 62, 42
8, 27764, Note_on_c, 6, 57, 41
8, 27860, Note_off_c, 6, 57, 31
8, 27888, Note_on_c, 6, 62, 38
8, 28024, Note_off_c, 6, 62, 50
8, 28028, Note_on_c, 6, 57, 44
8, 28124, Note_off_c, 6, 57, 31
8, 28152, Note_on_c, 6, 62, 37
8, 28192, Note_off_c, 6, 50, 0
8, 28268, Note_on_c, 6, 57, 48
8, 28280, Note_off_c, 6, 62, 39
8, 28360, Note_off_c, 6, 57, 31
8, 28416, Note_on_c, 6, 62, 45
8, 28416, Note_on_c, 6, 48, 43
8, 28556, Note_off_c, 6, 62, 48
8, 28556, Note_on_c, 6, 57, 45
8, 28660, Note_off_c, 6, 57, 26
8, 28676, Note_on_c, 6, 62, 40
8, 28804, Note_on_c, 6, 57, 46
8, 28820, Note_off_c, 6, 62, 52
8, 28908, Note_off_c, 6, 57, 32
8, 28940, Note_on_c, 6, 62, 37
8, 29064, Note_on_c, 6, 57, 48
8, 29084, Note_off_c, 6, 48, 15
8, 29084, Note_off_c, 6, 62, 46
8, 29160, Note_off_c, 6, 57, 36
8, 29164, Note_on_c, 6, 62, 49
8, 29184, Note_on_c, 6, 47, 45
8, 29296, Note_off_c, 6, 62, 42
8, 29300, Note_on_c, 6, 57, 40
8, 29388, Note_off_c, 6, 57, 29
8, 29404, Note_on_c, 6, 62, 40
8, 29540, Note_off_c, 6, 62, 32
8, 29544, Note_on_c, 6, 57, 41
8, 29636, Note_off_c, 6, 57, 21
8, 29660, Note_on_c, 6, 62, 41
8, 29692, Note_off_c, 6, 47, 37
8, 29784, Note_on_c, 6, 57, 48
8, 29796, Note_off_c, 6, 62, 40
8, 29888, Note_off_c, 6, 57, 27
8, 29924, Note_on_c, 6, 62, 41
8, 29952, Note_on_c, 6, 48, 37
8, 30052, Note_on_c, 6, 57, 46
8, 30072, Note_off_c, 6, 62, 41
8, 30152, Note_off_c, 6, 57, 36
8, 30188, Note_on_c, 6, 62, 40
8, 30292, Note_on_c, 6, 57, 47
8, 30320, Note_off_c, 6, 62, 48
8, 30392, Note_off_c, 6, 57, 21
8, 30432, Note_on_c, 6, 62, 37
8, 30512, Note_off_c, 6, 48, 32
8, 30556, Note_on_c, 6, 57, 45
8, 30568, Note_off_c, 6, 62, 37
8, 30648, Note_off_c, 6, 57, 38
8, 30700, Note_on_c, 6, 62, 44
8, 30720, Note_on_c, 6, 50, 48
8, 30840, Note_off_c, 6, 62, 37
8, 30844, Note_on_c, 6, 57, 41
8, 30944, Note_off_c, 6, 57, 22
8, 30976, Note_off_c, 6, 50, 40
8, 30980, Note_on_c, 6, 62, 37
8, 31124, Note_on_c, 6, 57, 43
8, 31136, Note_off_c, 6, 62, 35
8, 31228, Note_on_c, 6, 62, 40
8, 31232, Note_off_c, 6, 57, 20
8, 31368, Note_on_c, 6, 57, 44
8, 31372, Note_off_c, 6, 62, 48
8, 31468, Note_off_c, 6, 57, 36
8, 31488, Note_on_c, 6, 62, 45
8, 31488, Note_on_c, 6, 48, 46
8, 31628, Note_off_c, 6, 62, 48
8, 31628, Note_on_c, 6, 57, 45
8, 31732, Note_off_c, 6, 57, 26
8, 31748, Note_on_c, 6, 62, 40
8, 31876, Note_on_c, 6, 57, 46
8, 31892, Note_off_c, 6, 62, 52
8, 31956, Note_off_c, 6, 48, 0
8, 31980, Note_off_c, 6, 57, 32
8, 32012, Note_on_c, 6, 62, 37
8, 32136, Note_on_c, 6, 57, 48
8, 32156, Note_off_c, 6, 62, 46
8, 32232, Note_off_c, 6, 57, 36
8, 32256, Note_on_c, 6, 57, 49
8, 32256, Note_on_c, 6, 47, 38
8, 32356, Note_off_c, 6, 57, 27
8, 32372, Note_on_c, 6, 62, 42
8, 32492, Note_on_c, 6, 57, 43
8, 32520, Note_off_c, 6, 62, 35
8, 32604, Note_off_c, 6, 57, 24
8, 32620, Note_on_c, 6, 62, 40
8, 32756, Note_on_c, 6, 57, 40
8, 32768, Note_off_c, 6, 62, 31
8, 32776, Note_off_c, 6, 47, 37
8, 32864, Note_off_c, 6, 57, 25
8, 32880, Note_on_c, 6, 62, 42
8, 33020, Note_on_c, 6, 57, 43
8, 33024, Note_off_c, 6, 62, 40
8, 33024, Note_on_c, 6, 48, 35
8, 33136, Note_off_c, 6, 57, 24
8, 33140, Note_on_c, 6, 62, 40
8, 33284, Note_on_c, 6, 57, 43
8, 33292, Note_off_c, 6, 62, 37
8, 33376, Note_off_c, 6, 57, 33
8, 33388, Note_on_c, 6, 62, 40
8, 33508, Note_on_c, 6, 57, 42
8, 33532, Note_off_c, 6, 62, 33
8, 33544, Note_off_c, 6, 48, 26
8, 33612, Note_off_c, 6, 57, 24
8, 33624, Note_on_c, 6, 62, 41
8, 33776, Note_off_c, 6, 62, 33
8, 33820, Note_on_c, 6, 57, 27
8, 34004, Note_on_c, 6, 60, 14
8, 34172, Note_on_c, 6, 64, 32
8, 34348, Note_on_c, 6, 69, 39
8, 34556, Note_on_c, 6, 76, 48
8, 34560, Note_off_c, 6, 69, 3
8, 34644, Note_off_c, 6, 57, 0
8, 34756, Note_off_c, 6, 76, 17
8, 34772, Note_on_c, 6, 72, 13
8, 34920, Note_off_c, 6, 72, 29
8, 34948, Note_on_c, 6, 69, 29
8, 34964, Note_off_c, 6, 60, 5
8, 35140, Note_on_c, 6, 72, 39
8, 35256, Note_off_c, 6, 64, 0
8, 35332, Note_off_c, 6, 69, 42
8, 35332, Note_off_c, 6, 72, 42
8, 35356, Note_on_c, 6, 57, 27
8, 35540, Note_on_c, 6, 60, 14
8, 35708, Note_on_c, 6, 64, 32
8, 35884, Note_on_c, 6, 69, 39
8, 36092, Note_on_c, 6, 76, 48
8, 36096, Note_off_c, 6, 69, 3
8, 36180, Note_off_c, 6, 57, 0
8, 36292, Note_off_c, 6, 76, 17
8, 36308, Note_on_c, 6, 72, 13
8, 36456, Note_off_c, 6, 72, 29
8, 36484, Note_on_c, 6, 69, 29
8, 36500, Note_off_c, 6, 60, 5
8, 36676, Note_on_c, 6, 72, 39
8, 36792, Note_off_c, 6, 64, 0
8, 36868, Note_off_c, 6, 69, 42
8, 36868, Note_off_c, 6, 72, 42
8, 36892, Note_on_c, 6, 55, 35
8, 37100, Note_on_c, 6, 59, 35
8, 37272, Note_on_c, 6, 62, 36
8, 37460, Note_on_c, 6, 67, 29
8, 37488, Note_off_c, 6, 55, 0
8, 37652, Note_on_c, 6, 74, 47
8, 37724, Note_off_c, 6, 67, 0
8, 37820, Note_off_c, 6, 74, 16
8, 37848, Note_on_c, 6, 71, 24
8, 38020, Note_off_c, 6, 71, 18
8, 38036, Note_on_c, 6, 67, 24
8, 38204, Note_off_c, 6, 59, 13
8, 38228, Note_on_c, 6, 71, 29
8, 38292, Note_off_c, 6, 62, 15
8, 38408, Note_off_c, 6, 67, 42
8, 38424, Note_on_c, 6, 55, 39
8, 38492, Note_off_c, 6, 71, 42
8, 38612, Note_on_c, 6, 59, 36
8, 38804, Note_on_c, 6, 62, 32
8, 38996, Note_on_c, 6, 67, 36
8, 39044, Note_off_c, 6, 55, 0
8, 39172, Note_on_c, 6, 74, 48
8, 39232, Note_off_c, 6, 67, 9
8, 39328, Note_off_c, 6, 74, 20
8, 39340, Note_on_c, 6, 71, 32
8, 39520, Note_off_c, 6, 71, 31
8, 39532, Note_on_c, 6, 67, 36
8, 39708, Note_off_c, 6, 67, 13
8, 39716, Note_on_c, 6, 71, 32
8, 39744, Note_off_c, 6, 62, 9
8, 39748, Note_off_c, 6, 59, 5
8, 39892, Note_off_c, 6, 71, 29
8, 39932, Note_on_c, 6, 53, 21
8, 40100, Note_on_c, 6, 57, 24
8, 40292, Note_on_c, 6, 60, 44
8, 40492, Note_on_c, 6, 65, 39
8, 40700, Note_on_c, 6, 72, 53
8, 40716, Note_off_c, 6, 65, 13
8, 40860, Note_off_c, 6, 72, 25
8, 40876, Note_on_c, 6, 69, 27
8, 41068, Note_off_c, 6, 69, 23
8, 41068, Note_on_c, 6, 65, 36
8, 41136, Note_off_c, 6, 53, 42
8, 41276, Note_on_c, 6, 69, 21
8, 41280, Note_off_c, 6, 57, 37
8, 41312, Note_off_c, 6, 60, 18
8, 41432, Note_off_c, 6, 65, 6
8, 41476, Note_on_c, 6, 53, 41
8, 41584, Note_off_c, 6, 69, 42
8, 41660, Note_on_c, 6, 57, 27
8, 41852, Note_on_c, 6, 60, 44
8, 42044, Note_on_c, 6, 65, 41
8, 42236, Note_off_c, 6, 65, 13
8, 42236, Note_on_c, 6, 72, 48
8, 42288, Note_off_c, 6, 53, 0
8, 42408, Note_off_c, 6, 72, 20
8, 42428, Note_on_c, 6, 69, 42
8, 42604, Note_off_c, 6, 69, 22
8, 42604, Note_on_c, 6, 65, 39
8, 42652, Note_off_c, 6, 57, 3
8, 42680, Note_off_c, 6, 60, 11
8, 42792, Note_on_c, 6, 69, 27
8, 42988, Note_off_c, 6, 65, 0
8, 42988, Note_on_c, 6, 52, 39
8, 43116, Note_off_c, 6, 69, 42
8, 43156, Note_on_c, 6, 56, 24
8, 43368, Note_on_c, 6, 59, 49
8, 43564, Note_on_c, 6, 64, 40
8, 43736, Note_off_c, 6, 64, 7
8, 43748, Note_on_c, 6, 68, 48
8, 43916, Note_off_c, 6, 68, 27
8, 43944, Note_on_c, 6, 64, 32
8, 44132, Note_on_c, 6, 71, 52
8, 44144, Note_off_c, 6, 64, 9
8, 44248, Note_off_c, 6, 52, 42
8, 44332, Note_on_c, 6, 64, 32
8, 44340, Note_off_c, 6, 56, 21
8, 44388, Note_off_c, 6, 59, 19
8, 44392, Note_off_c, 6, 71, 0
8, 44540, Note_on_c, 6, 52, 39
8, 44564, Note_off_c, 6, 64, 42
8, 44712, Note_on_c, 6, 56, 9
8, 44900, Note_on_c, 6, 59, 41
8, 45092, Note_on_c, 6, 64, 21
8, 45292, Note_on_c, 6, 68, 43
8, 45328, Note_off_c, 6, 64, 13
8, 45464, Note_off_c, 6, 68, 21
8, 45484, Note_on_c, 6, 64, 29
8, 45516, Note_off_c, 6, 52, 42
8, 45652, Note_off_c, 6, 56, 6
8, 45676, Note_on_c, 6, 71, 39
8, 45712, Note_off_c, 6, 64, 1
8, 45800, Note_off_c, 6, 59, 20
8, 45884, Note_on_c, 6, 68, 32
8, 45992, Note_off_c, 6, 68, 11
8, 46036, Note_off_c, 6, 71, 0
8, 46084, Note_on_c, 6, 64, 29
8, 46100, Note_on_c, 6, 57, 44
8, 46112, Note_off_c, 6, 64, 29
8, 46276, Note_on_c, 6, 60, 32
8, 46460, Note_on_c, 6, 64, 29
8, 46656, Note_on_c, 6, 69, 32
8, 46824, Note_off_c, 6, 69, 17
8, 46828, Note_on_c, 6, 72, 41
8, 47192, Note_off_c, 6, 72, 22
8, 47228, Note_on_c, 6, 69, 15
8, 47408, Note_off_c, 6, 57, 0
8, 47588, Note_on_c, 6, 57, 36
8, 47748, Note_off_c, 6, 69, 42
8, 48160, Note_off_c, 6, 64, 42
8, 48216, Note_off_c, 6, 60, 42
8, 48256, Note_off_c, 6, 57, 42
8, 49004, Control_c, 6, 64, 0
8, 49004, End_track
9, 0, Start_track
9, 0, Title_t, "Guitar 3"
9, 0, Control_c, 7, 0, 0
9, 0, Program_c, 7, 26
9, 0, Control_c, 7, 10, 81
9, 0, Key_signature, 0, "major"
9, 1660, Control_c, 7, 64, 127
9, 1920, Control_c, 7, 64, 0
9, 2308, Control_c, 7, 64, 127
9, 2980, Control_c, 7, 64, 0
9, 3044, Note_on_c, 7, 54, 26
9, 3072, Note_on_c, 7, 57, 34
9, 3076, Note_on_c, 7, 50, 46
9, 3092, Control_c, 7, 64, 127
9, 3104, Note_on_c, 7, 62, 59
9, 3172, Note_off_c, 7, 62, 19
9, 3200, Note_off_c, 7, 57, 14
9, 3212, Note_off_c, 7, 54, 16
9, 3440, Note_on_c, 7, 54, 17
9, 3448, Note_on_c, 7, 57, 41
9, 3464, Note_on_c, 7, 62, 52
9, 3540, Note_off_c, 7, 57, 34
9, 3560, Note_off_c, 7, 50, 26
9, 3572, Note_off_c, 7, 54, 15
9, 3572, Note_off_c, 7, 62, 39
9, 3764, Control_c, 7, 64, 0
9, 3816, Note_on_c, 7, 48, 46
9, 3820, Note_on_c, 7, 52, 25
9, 3824, Note_on_c, 7, 55, 51
9, 3844, Note_on_c, 7, 60, 61
9, 3864, Control_c, 7, 64, 127
9, 3948, Note_off_c, 7, 52, 25
9, 3948, Note_off_c, 7, 55, 34
9, 3960, Note_off_c, 7, 60, 33
9, 4208, Note_on_c, 7, 55, 50
9, 4208, Note_on_c, 7, 52, 28
9, 4220, Note_on_c, 7, 60, 61
9, 4284, Note_off_c, 7, 55, 42
9, 4296, Note_off_c, 7, 48, 34
9, 4300, Note_off_c, 7, 52, 26
9, 4300, Note_off_c, 7, 60, 39
9, 4528, Control_c, 7, 64, 0
9, 4576, Note_on_c, 7, 47, 41
9, 4584, Note_on_c, 7, 55, 52
9, 4592, Note_on_c, 7, 50, 14
9, 4616, Note_on_c, 7, 59, 78
9, 4656, Control_c, 7, 64, 127
9, 4696, Note_off_c, 7, 50, 7
9, 4724, Note_off_c, 7, 55, 7
9, 4724, Note_off_c, 7, 59, 39
9, 4980, Note_on_c, 7, 55, 34
9, 4980, Note_on_c, 7, 50, 21
9, 4996, Note_on_c, 7, 59, 75
9, 5060, Note_off_c, 7, 50, 28
9, 5076, Note_off_c, 7, 55, 54
9, 5080, Note_off_c, 7, 59, 33
9, 5268, Note_off_c, 7, 47, 23
9, 5328, Control_c, 7, 64, 0
9, 5356, Note_on_c, 7, 52, 26
9, 5364, Note_on_c, 7, 48, 61
9, 5364, Note_on_c, 7, 55, 41
9, 5396, Note_on_c, 7, 60, 59
9, 5448, Control_c, 7, 64, 127
9, 5472, Note_off_c, 7, 52, 33
9, 5472, Note_off_c, 7, 55, 59
9, 5492, Note_off_c, 7, 60, 42
9, 5728, Note_on_c, 7, 52, 28
9, 5740, Note_on_c, 7, 55, 51
9, 5756, Note_on_c, 7, 60, 66
9, 5812, Note_off_c, 7, 52, 39
9, 5816, Note_off_c, 7, 55, 34
9, 5856, Note_off_c, 7, 60, 37
9, 5932, Note_off_c, 7, 48, 34
9, 6088, Control_c, 7, 64, 0
9, 6112, Note_on_c, 7, 54, 28
9, 6132, Note_on_c, 7, 50, 50
9, 6144, Note_on_c, 7, 57, 50
9, 6156, Note_on_c, 7, 62, 75
9, 6204, Control_c, 7, 64, 127
9, 6232, Note_off_c, 7, 57, 25
9, 6236, Note_off_c, 7, 62, 31
9, 6240, Note_off_c, 7, 54, 15
9, 6520, Note_on_c, 7, 54, 26
9, 6536, Note_on_c, 7, 57, 51
9, 6552, Note_on_c, 7, 62, 70
9, 6604, Note_off_c, 7, 57, 39
9, 6620, Note_off_c, 7, 50, 21
9, 6620, Note_off_c, 7, 54, 17
9, 6632, Note_off_c, 7, 62, 16
9, 6876, Control_c, 7, 64, 0
9, 6900, Note_on_c, 7, 52, 28
9, 6908, Note_on_c, 7, 48, 55
9, 6916, Note_on_c, 7, 55, 52
9, 6928, Note_on_c, 7, 60, 78
9, 6984, Control_c, 7, 64, 127
9, 6992, Note_off_c, 7, 55, 49
9, 6996, Note_off_c, 7, 52, 31
9, 7008, Note_off_c, 7, 60, 33
9, 7292, Note_on_c, 7, 55, 41
9, 7296, Note_on_c, 7, 52, 25
9, 7304, Note_on_c, 7, 60, 56
9, 7340, Note_off_c, 7, 48, 29
9, 7364, Note_off_c, 7, 55, 61
9, 7376, Note_off_c, 7, 52, 39
9, 7380, Note_off_c, 7, 60, 49
9, 7648, Control_c, 7, 64, 0
9, 7660, Note_on_c, 7, 50, 14
9, 7668, Note_on_c, 7, 55, 51
9, 7676, Note_on_c, 7, 47, 55
9, 7684, Note_on_c, 7, 59, 75
9, 7760, Note_off_c, 7, 50, 14
9, 7768, Control_c, 7, 64, 127
9, 7776, Note_off_c, 7, 55, 17
9, 7776, Note_off_c, 7, 59, 25
9, 8060, Note_on_c, 7, 50, 28
9, 8064, Note_on_c, 7, 55, 39
9, 8064, Note_on_c, 7, 59, 66
9, 8124, Note_off_c, 7, 50, 31
9, 8148, Note_off_c, 7, 55, 33
9, 8160, Note_off_c, 7, 59, 33
9, 8196, Note_off_c, 7, 47, 29
9, 8368, Control_c, 7, 64, 0
9, 8428, Note_on_c, 7, 55, 39
9, 8432, Note_on_c, 7, 52, 28
9, 8432, Note_on_c, 7, 48, 48
9, 8452, Note_on_c, 7, 60, 70
9, 8496, Control_c, 7, 64, 127
9, 8528, Note_off_c, 7, 52, 31
9, 8532, Note_off_c, 7, 55, 39
9, 8544, Note_off_c, 7, 60, 26
9, 8800, Note_on_c, 7, 52, 21
9, 8804, Note_on_c, 7, 55, 51
9, 8820, Note_on_c, 7, 60, 63
9, 8872, Note_off_c, 7, 55, 43
9, 8876, Note_off_c, 7, 52, 39
9, 8904, Note_off_c, 7, 60, 36
9, 8920, Note_off_c, 7, 48, 25
9, 9160, Control_c, 7, 64, 0
9, 9192, Note_on_c, 7, 54, 28
9, 9212, Note_on_c, 7, 57, 41
9, 9216, Note_on_c, 7, 62, 66
9, 9220, Note_on_c, 7, 50, 41
9, 9276, Control_c, 7, 64, 127
9, 9288, Note_off_c, 7, 57, 10
9, 9300, Note_off_c, 7, 54, 23
9, 9312, Note_off_c, 7, 62, 21
9, 9580, Note_on_c, 7, 54, 25
9, 9596, Note_on_c, 7, 57, 39
9, 9604, Note_on_c, 7, 62, 70
9, 9672, Note_off_c, 7, 50, 25
9, 9680, Note_off_c, 7, 54, 17
9, 9680, Note_off_c, 7, 57, 36
9, 9684, Note_off_c, 7, 62, 36
9, 9920, Control_c, 7, 64, 0
9, 9952, Note_on_c, 7, 52, 28
9, 9960, Note_on_c, 7, 55, 56
9, 9960, Note_on_c, 7, 48, 39
9, 9988, Note_on_c, 7, 60, 59
9, 10032, Control_c, 7, 64, 127
9, 10060, Note_off_c, 7, 52, 28
9, 10068, Note_off_c, 7, 55, 41
9, 10080, Note_off_c, 7, 60, 31
9, 10348, Note_on_c, 7, 52, 25
9, 10348, Note_on_c, 7, 55, 52
9, 10360, Note_on_c, 7, 60, 55
9, 10408, Note_off_c, 7, 55, 42
9, 10416, Note_off_c, 7, 48, 28
9, 10424, Note_off_c, 7, 52, 36
9, 10432, Note_off_c, 7, 60, 39
9, 10680, Control_c, 7, 64, 0
9, 10736, Note_on_c, 7, 50, 15
9, 10736, Note_on_c, 7, 47, 50
9, 10748, Note_on_c, 7, 55, 37
9, 10756, Note_on_c, 7, 59, 63
9, 10788, Control_c, 7, 64, 127
9, 10836, Note_off_c, 7, 50, 19
9, 10848, Note_off_c, 7, 55, 50
9, 10852, Note_off_c, 7, 59, 30
9, 11120, Note_on_c, 7, 50, 21
9, 11128, Note_on_c, 7, 59, 66
9, 11132, Note_on_c, 7, 55, 21
9, 11188, Note_off_c, 7, 50, 31
9, 11212, Note_off_c, 7, 55, 50
9, 11220, Note_off_c, 7, 59, 37
9, 11288, Note_off_c, 7, 47, 15
9, 11460, Control_c, 7, 64, 0
9, 11496, Note_on_c, 7, 52, 28
9, 11496, Note_on_c, 7, 48, 41
9, 11508, Note_on_c, 7, 55, 46
9, 11536, Note_on_c, 7, 60, 56
9, 11576, Control_c, 7, 64, 127
9, 11600, Note_off_c, 7, 52, 37
9, 11604, Note_off_c, 7, 55, 54
9, 11616, Note_off_c, 7, 60, 40
9, 11884, Note_on_c, 7, 55, 48
9, 11888, Note_on_c, 7, 52, 17
9, 11888, Note_on_c, 7, 60, 61
9, 11940, Note_off_c, 7, 48, 39
9, 11944, Note_off_c, 7, 52, 28
9, 11956, Note_off_c, 7, 55, 34
9, 11980, Note_off_c, 7, 60, 50
9, 12200, Control_c, 7, 64, 0
9, 12252, Note_on_c, 7, 54, 21
9, 12280, Note_on_c, 7, 50, 50
9, 12288, Note_on_c, 7, 62, 67
9, 12288, Note_on_c, 7, 57, 37
9, 12312, Control_c, 7, 64, 127
9, 12360, Note_off_c, 7, 54, 19
9, 12360, Note_off_c, 7, 57, 13
9, 12368, Note_off_c, 7, 62, 28
9, 12652, Note_on_c, 7, 54, 25
9, 12668, Note_on_c, 7, 57, 37
9, 12676, Note_on_c, 7, 62, 56
9, 12712, Note_off_c, 7, 50, 7
9, 12732, Note_off_c, 7, 57, 43
9, 12736, Note_off_c, 7, 54, 22
9, 12744, Note_off_c, 7, 62, 39
9, 12980, Control_c, 7, 64, 0
9, 13028, Note_on_c, 7, 48, 46
9, 13032, Note_on_c, 7, 52, 28
9, 13032, Note_on_c, 7, 55, 56
9, 13056, Note_on_c, 7, 60, 66
9, 13084, Control_c, 7, 64, 127
9, 13108, Note_off_c, 7, 55, 33
9, 13112, Note_off_c, 7, 52, 29
9, 13132, Note_off_c, 7, 60, 36
9, 13412, Note_on_c, 7, 52, 28
9, 13416, Note_on_c, 7, 60, 67
9, 13420, Note_on_c, 7, 55, 61
9, 13480, Note_off_c, 7, 48, 14
9, 13500, Note_off_c, 7, 55, 25
9, 13504, Note_off_c, 7, 52, 25
9, 13520, Note_off_c, 7, 60, 34
9, 13700, Control_c, 7, 64, 0
9, 14216, Note_on_c, 7, 47, 67
9, 14224, Note_on_c, 7, 55, 51
9, 14224, Note_on_c, 7, 59, 77
9, 14228, Note_on_c, 7, 50, 37
9, 14400, Note_off_c, 7, 50, 21
9, 14404, Note_off_c, 7, 47, 41
9, 14412, Note_off_c, 7, 55, 50
9, 14428, Note_off_c, 7, 59, 59
9, 14620, Note_on_c, 7, 48, 59
9, 14620, Note_on_c, 7, 52, 46
9, 14620, Note_on_c, 7, 55, 70
9, 14620, Note_on_c, 7, 60, 74
9, 14700, Note_off_c, 7, 55, 59
9, 14704, Note_off_c, 7, 52, 33
9, 14712, Note_off_c, 7, 48, 73
9, 14716, Note_off_c, 7, 60, 51
9, 14852, Note_on_c, 7, 48, 61
9, 14856, Note_on_c, 7, 55, 74
9, 14856, Note_on_c, 7, 52, 66
9, 14856, Note_on_c, 7, 60, 84
9, 14924, Control_c, 7, 64, 127
9, 15048, Note_off_c, 7, 52, 26
9, 15052, Note_off_c, 7, 48, 51
9, 15096, Note_off_c, 7, 55, 43
9, 15096, Note_off_c, 7, 60, 73
9, 15200, Control_c, 7, 64, 0
9, 15216, Control_c, 7, 64, 0
9, 15344, Note_on_c, 7, 54, 25
9, 15364, Note_on_c, 7, 57, 50
9, 15368, Note_on_c, 7, 62, 61
9, 15372, Note_on_c, 7, 50, 41
9, 15464, Note_off_c, 7, 62, 25
9, 15464, Control_c, 7, 64, 127
9, 15468, Note_off_c, 7, 57, 28
9, 15472, Note_off_c, 7, 54, 22
9, 15712, Note_on_c, 7, 54, 25
9, 15720, Note_on_c, 7, 57, 46
9, 15732, Note_on_c, 7, 62, 61
9, 15740, Note_off_c, 7, 50, 19
9, 15812, Note_off_c, 7, 57, 40
9, 15816, Note_off_c, 7, 54, 19
9, 15820, Note_off_c, 7, 62, 29
9, 16068, Control_c, 7, 64, 0
9, 16100, Note_on_c, 7, 52, 25
9, 16100, Note_on_c, 7, 55, 52
9, 16108, Note_on_c, 7, 48, 50
9, 16124, Note_on_c, 7, 60, 63
9, 16172, Control_c, 7, 64, 127
9, 16192, Note_off_c, 7, 52, 34
9, 16192, Note_off_c, 7, 55, 43
9, 16208, Note_off_c, 7, 60, 39
9, 16492, Note_on_c, 7, 55, 56
9, 16492, Note_on_c, 7, 60, 56
9, 16496, Note_on_c, 7, 52, 33
9, 16556, Note_off_c, 7, 48, 42
9, 16560, Note_off_c, 7, 55, 37
9, 16576, Note_off_c, 7, 52, 36
9, 16584, Note_off_c, 7, 60, 40
9, 16828, Control_c, 7, 64, 0
9, 16880, Note_on_c, 7, 50, 21
9, 16884, Note_on_c, 7, 47, 51
9, 16892, Note_on_c, 7, 55, 39
9, 16892, Note_on_c, 7, 59, 75
9, 16944, Control_c, 7, 64, 127
9, 16984, Note_off_c, 7, 50, 19
9, 16992, Note_off_c, 7, 59, 37
9, 16996, Note_off_c, 7, 55, 23
9, 17284, Note_on_c, 7, 59, 56
9, 17288, Note_on_c, 7, 55, 46
9, 17292, Note_on_c, 7, 50, 28
9, 17352, Note_off_c, 7, 50, 26
9, 17384, Note_off_c, 7, 55, 42
9, 17388, Note_off_c, 7, 59, 33
9, 17424, Note_off_c, 7, 47, 19
9, 17584, Control_c, 7, 64, 0
9, 17640, Note_on_c, 7, 52, 25
9, 17648, Note_on_c, 7, 48, 51
9, 17652, Note_on_c, 7, 55, 48
9, 17672, Note_on_c, 7, 60, 66
9, 17704, Control_c, 7, 64, 127
9, 17748, Note_off_c, 7, 55, 36
9, 17756, Note_off_c, 7, 52, 29
9, 17760, Note_off_c, 7, 60, 39
9, 18028, Note_on_c, 7, 52, 25
9, 18036, Note_on_c, 7, 60, 59
9, 18036, Note_on_c, 7, 55, 50
9, 18104, Note_off_c, 7, 52, 34
9, 18112, Note_off_c, 7, 55, 44
9, 18128, Note_off_c, 7, 48, 48
9, 18152, Note_off_c, 7, 60, 33
9, 18384, Control_c, 7, 64, 0
9, 18408, Note_on_c, 7, 54, 28
9, 18424, Note_on_c, 7, 57, 51
9, 18436, Note_on_c, 7, 50, 43
9, 18448, Note_on_c, 7, 62, 51
9, 18500, Control_c, 7, 64, 127
9, 18516, Note_off_c, 7, 54, 21
9, 18524, Note_off_c, 7, 57, 29
9, 18540, Note_off_c, 7, 62, 7
9, 18792, Note_on_c, 7, 54, 33
9, 18796, Note_on_c, 7, 62, 59
9, 18804, Note_on_c, 7, 57, 46
9, 18868, Note_off_c, 7, 57, 34
9, 18888, Note_off_c, 7, 50, 19
9, 18888, Note_off_c, 7, 62, 39
9, 18896, Note_off_c, 7, 54, 19
9, 19144, Control_c, 7, 64, 0
9, 19168, Note_on_c, 7, 52, 28
9, 19180, Note_on_c, 7, 55, 56
9, 19188, Note_on_c, 7, 48, 41
9, 19200, Note_on_c, 7, 60, 66
9, 19256, Control_c, 7, 64, 127
9, 19272, Note_off_c, 7, 52, 33
9, 19280, Note_off_c, 7, 55, 43
9, 19300, Note_off_c, 7, 60, 39
9, 19568, Note_on_c, 7, 60, 61
9, 19568, Note_on_c, 7, 55, 52
9, 19568, Note_on_c, 7, 52, 33
9, 19624, Note_off_c, 7, 48, 39
9, 19640, Note_off_c, 7, 55, 39
9, 19648, Note_off_c, 7, 52, 30
9, 19656, Note_off_c, 7, 60, 50
9, 19896, Control_c, 7, 64, 0
9, 19940, Note_on_c, 7, 47, 50
9, 19948, Note_on_c, 7, 50, 21
9, 19952, Note_on_c, 7, 55, 51
9, 19964, Note_on_c, 7, 59, 74
9, 20012, Control_c, 7, 64, 127
9, 20044, Note_off_c, 7, 50, 22
9, 20056, Note_off_c, 7, 55, 54
9, 20056, Note_off_c, 7, 59, 36
9, 20340, Note_on_c, 7, 55, 51
9, 20340, Note_on_c, 7, 59, 59
9, 20340, Note_on_c, 7, 50, 21
9, 20412, Note_off_c, 7, 50, 29
9, 20436, Note_off_c, 7, 55, 39
9, 20436, Note_off_c, 7, 59, 39
9, 20460, Note_off_c, 7, 47, 37
9, 20676, Control_c, 7, 64, 0
9, 20724, Note_on_c, 7, 52, 28
9, 20728, Note_on_c, 7, 55, 56
9, 20728, Note_on_c, 7, 48, 34
9, 20748, Note_on_c, 7, 60, 56
9, 20784, Control_c, 7, 64, 127
9, 20824, Note_off_c, 7, 52, 37
9, 20824, Note_off_c, 7, 55, 58
9, 20848, Note_off_c, 7, 60, 49
9, 21084, Note_on_c, 7, 52, 11
9, 21096, Note_on_c, 7, 55, 56
9, 21104, Note_on_c, 7, 60, 66
9, 21164, Note_off_c, 7, 52, 42
9, 21172, Note_off_c, 7, 55, 50
9, 21192, Note_off_c, 7, 48, 37
9, 21200, Note_off_c, 7, 60, 42
9, 21468, Control_c, 7, 64, 0
9, 21492, Note_on_c, 7, 54, 33
9, 21504, Note_on_c, 7, 57, 50
9, 21512, Note_on_c, 7, 62, 77
9, 21520, Note_on_c, 7, 50, 46
9, 21576, Note_off_c, 7, 57, 40
9, 21580, Control_c, 7, 64, 127
9, 21584, Note_off_c, 7, 54, 23
9, 21584, Note_off_c, 7, 62, 36
9, 21584, Control_c, 7, 64, 127
9, 21876, Note_on_c, 7, 54, 33
9, 21884, Note_on_c, 7, 57, 50
9, 21884, Note_on_c, 7, 62, 67
9, 21932, Note_off_c, 7, 50, 7
9, 21952, Note_off_c, 7, 54, 23
9, 21956, Note_off_c, 7, 57, 52
9, 21960, Note_off_c, 7, 62, 31
9, 22184, Control_c, 7, 64, 0
9, 22256, Note_on_c, 7, 52, 28
9, 22256, Note_on_c, 7, 48, 50
9, 22256, Control_c, 7, 64, 0
9, 22260, Note_on_c, 7, 55, 52
9, 22276, Note_on_c, 7, 60, 66
9, 22340, Note_off_c, 7, 52, 33
9, 22344, Note_off_c, 7, 55, 49
9, 22356, Note_off_c, 7, 60, 33
9, 22360, Control_c, 7, 64, 127
9, 22512, Control_c, 7, 64, 127
9, 22548, Control_c, 7, 64, 0
9, 22604, Control_c, 7, 64, 127
9, 22644, Note_on_c, 7, 52, 33
9, 22644, Note_on_c, 7, 55, 52
9, 22656, Note_on_c, 7, 60, 61
9, 22744, Note_off_c, 7, 48, 28
9, 22752, Note_off_c, 7, 55, 26
9, 22760, Note_off_c, 7, 52, 19
9, 22784, Note_off_c, 7, 60, 40
9, 22784, Control_c, 7, 64, 0
9, 22980, Control_c, 7, 64, 127
9, 22984, Control_c, 7, 64, 0
9, 23024, Note_on_c, 7, 55, 41
9, 23024, Note_on_c, 7, 50, 28
9, 23028, Note_on_c, 7, 47, 46
9, 23036, Note_on_c, 7, 59, 70
9, 23104, Control_c, 7, 64, 127
9, 23128, Note_off_c, 7, 50, 7
9, 23148, Note_off_c, 7, 55, 39
9, 23168, Note_off_c, 7, 59, 40
9, 23424, Note_on_c, 7, 55, 39
9, 23428, Note_on_c, 7, 59, 59
9, 23428, Note_on_c, 7, 50, 25
9, 23512, Note_off_c, 7, 50, 23
9, 23528, Note_off_c, 7, 55, 39
9, 23544, Note_off_c, 7, 59, 42
9, 23560, Note_off_c, 7, 47, 33
9, 23752, Control_c, 7, 64, 0
9, 23772, Control_c, 7, 64, 0
9, 23788, Note_on_c, 7, 52, 33
9, 23796, Note_on_c, 7, 55, 50
9, 23804, Note_on_c, 7, 48, 41
9, 23816, Note_on_c, 7, 60, 63
9, 23832, Control_c, 7, 64, 127
9, 23876, Control_c, 7, 64, 127
9, 23908, Note_off_c, 7, 55, 28
9, 23920, Note_off_c, 7, 52, 26
9, 23920, Note_off_c, 7, 60, 34
9, 24176, Note_on_c, 7, 52, 28
9, 24188, Note_on_c, 7, 60, 66
9, 24188, Note_on_c, 7, 55, 56
9, 24232, Note_off_c, 7, 48, 15
9, 24252, Note_off_c, 7, 52, 40
9, 24256, Note_off_c, 7, 55, 39
9, 24292, Note_off_c, 7, 60, 37
9, 24368, Control_c, 7, 64, 0
9, 24524, Control_c, 7, 64, 0
9, 24540, Control_c, 7, 64, 127
9, 24556, Note_on_c, 7, 54, 25
9, 24572, Note_on_c, 7, 57, 33
9, 24576, Note_on_c, 7, 62, 63
9, 24592, Note_on_c, 7, 50, 46
9, 24648, Control_c, 7, 64, 127
9, 24652, Control_c, 7, 64, 127
9, 24696, Note_off_c, 7, 54, 19
9, 24704, Note_off_c, 7, 57, 31
9, 24708, Note_off_c, 7, 62, 31
9, 24920, Control_c, 7, 64, 127
9, 24948, Control_c, 7, 64, 0
9, 24952, Note_on_c, 7, 54, 26
9, 24964, Note_on_c, 7, 62, 59
9, 24968, Note_on_c, 7, 57, 34
9, 25020, Note_off_c, 7, 50, 17
9, 25064, Note_off_c, 7, 62, 33
9, 25064, Note_off_c, 7, 57, 13
9, 25072, Note_off_c, 7, 54, 17
9, 25276, Control_c, 7, 64, 0
9, 25340, Control_c, 7, 64, 0
9, 25348, Note_on_c, 7, 55, 50
9, 25352, Note_on_c, 7, 48, 51
9, 25352, Note_on_c, 7, 52, 33
9, 25376, Note_on_c, 7, 60, 61
9, 25380, Control_c, 7, 64, 0
9, 25380, Control_c, 7, 64, 127
9, 25444, Control_c, 7, 64, 127
9, 25468, Note_off_c, 7, 52, 26
9, 25484, Note_off_c, 7, 55, 33
9, 25496, Control_c, 7, 64, 127
9, 25504, Note_off_c, 7, 60, 36
9, 25536, Control_c, 7, 64, 127
9, 25600, Control_c, 7, 64, 127
9, 25660, Control_c, 7, 64, 0
9, 25716, Note_on_c, 7, 52, 28
9, 25724, Note_on_c, 7, 55, 52
9, 25724, Note_on_c, 7, 60, 59
9, 25768, Note_off_c, 7, 48, 29
9, 25816, Note_off_c, 7, 55, 39
9, 25828, Note_off_c, 7, 52, 26
9, 25832, Note_off_c, 7, 60, 33
9, 26044, Control_c, 7, 64, 0
9, 26060, Control_c, 7, 64, 0
9, 26072, Control_c, 7, 64, 0
9, 26072, Control_c, 7, 64, 0
9, 26084, Note_on_c, 7, 50, 21
9, 26092, Note_on_c, 7, 55, 33
9, 26096, Note_on_c, 7, 47, 52
9, 26104, Note_on_c, 7, 59, 63
9, 26160, Control_c, 7, 64, 127
9, 26168, Control_c, 7, 64, 127
9, 26196, Control_c, 7, 64, 127
9, 26236, Note_off_c, 7, 50, 13
9, 26256, Note_off_c, 7, 59, 17
9, 26260, Note_off_c, 7, 55, 34
9, 26336, Control_c, 7, 64, 127
9, 26348, Control_c, 7, 64, 127
9, 26476, Note_on_c, 7, 55, 33
9, 26476, Note_on_c, 7, 50, 28
9, 26484, Note_on_c, 7, 59, 61
9, 26580, Note_off_c, 7, 50, 23
9, 26612, Note_off_c, 7, 55, 66
9, 26612, Note_off_c, 7, 59, 33
9, 26640, Note_off_c, 7, 47, 21
9, 26704, Control_c, 7, 64, 127
9, 26716, Control_c, 7, 64, 0
9, 26772, Control_c, 7, 64, 0
9, 26840, Control_c, 7, 64, 0
9, 26844, Control_c, 7, 64, 0
9, 26848, Control_c, 7, 64, 0
9, 26872, Note_on_c, 7, 52, 25
9, 26872, Note_on_c, 7, 55, 50
9, 26876, Note_on_c, 7, 48, 43
9, 26876, Control_c, 7, 64, 0
9, 26880, Note_on_c, 7, 60, 63
9, 26884, Control_c, 7, 64, 127
9, 26904, Control_c, 7, 64, 127
9, 26940, Control_c, 7, 64, 127
9, 26960, Control_c, 7, 64, 127
9, 26972, Note_off_c, 7, 52, 28
9, 26976, Note_off_c, 7, 55, 42
9, 26992, Note_off_c, 7, 60, 40
9, 27056, Control_c, 7, 64, 127
9, 27248, Note_on_c, 7, 60, 59
9, 27252, Note_on_c, 7, 52, 33
9, 27256, Note_on_c, 7, 55, 55
9, 27316, Note_off_c, 7, 52, 37
9, 27324, Note_off_c, 7, 55, 39
9, 27328, Note_off_c, 7, 48, 31
9, 27352, Note_off_c, 7, 60, 34
9, 27524, Control_c, 7, 64, 0
9, 27544, Control_c, 7, 64, 0
9, 27568, Control_c, 7, 64, 0
9, 27600, Control_c, 7, 64, 0
9, 27604, Control_c, 7, 64, 0
9, 27620, Note_on_c, 7, 54, 28
9, 27632, Note_on_c, 7, 57, 51
9, 27648, Note_on_c, 7, 62, 61
9, 27660, Note_on_c, 7, 50, 39
9, 27660, Control_c, 7, 64, 127
9, 27676, Control_c, 7, 64, 127
9, 27700, Control_c, 7, 64, 127
9, 27716, Control_c, 7, 64, 127
9, 27728, Control_c, 7, 64, 127
9, 27776, Note_off_c, 7, 54, 13
9, 27780, Note_off_c, 7, 57, 29
9, 27780, Note_off_c, 7, 62, 34
9, 28032, Note_on_c, 7, 54, 21
9, 28048, Note_on_c, 7, 62, 56
9, 28056, Note_on_c, 7, 57, 26
9, 28108, Note_off_c, 7, 50, 14
9, 28124, Note_off_c, 7, 57, 21
9, 28140, Note_off_c, 7, 62, 19
9, 28144, Note_off_c, 7, 54, 15
9, 28344, Control_c, 7, 64, 0
9, 28372, Control_c, 7, 64, 0
9, 28400, Control_c, 7, 64, 0
9, 28404, Note_on_c, 7, 52, 25
9, 28404, Note_on_c, 7, 48, 48
9, 28408, Control_c, 7, 64, 0
9, 28416, Note_on_c, 7, 55, 48
9, 28428, Note_on_c, 7, 60, 63
9, 28440, Control_c, 7, 64, 0
9, 28444, Control_c, 7, 64, 127
9, 28448, Control_c, 7, 64, 127
9, 28496, Control_c, 7, 64, 127
9, 28520, Control_c, 7, 64, 127
9, 28536, Note_off_c, 7, 52, 21
9, 28536, Note_off_c, 7, 55, 34
9, 28540, Control_c, 7, 64, 127
9, 28544, Note_off_c, 7, 60, 29
9, 28780, Note_on_c, 7, 52, 28
9, 28792, Note_on_c, 7, 55, 46
9, 28792, Note_on_c, 7, 60, 63
9, 28840, Note_off_c, 7, 48, 23
9, 28872, Note_off_c, 7, 55, 28
9, 28884, Note_off_c, 7, 52, 17
9, 28884, Note_off_c, 7, 60, 34
9, 29092, Control_c, 7, 64, 0
9, 29108, Control_c, 7, 64, 0
9, 29116, Control_c, 7, 64, 0
9, 29164, Control_c, 7, 64, 0
9, 29172, Note_on_c, 7, 47, 52
9, 29172, Control_c, 7, 64, 0
9, 29184, Note_on_c, 7, 50, 17
9, 29184, Note_on_c, 7, 55, 28
9, 29192, Note_on_c, 7, 59, 66
9, 29208, Control_c, 7, 64, 127
9, 29232, Control_c, 7, 64, 127
9, 29244, Control_c, 7, 64, 127
9, 29260, Control_c, 7, 64, 127
9, 29288, Note_off_c, 7, 50, 4
9, 29288, Control_c, 7, 64, 127
9, 29296, Note_off_c, 7, 55, 31
9, 29304, Note_off_c, 7, 59, 36
9, 29452, Control_c, 7, 64, 127
9, 29548, Note_on_c, 7, 50, 25
9, 29560, Note_on_c, 7, 59, 66
9, 29564, Note_on_c, 7, 55, 28
9, 29652, Note_off_c, 7, 50, 26
9, 29680, Note_off_c, 7, 55, 30
9, 29688, Note_off_c, 7, 59, 50
9, 29700, Note_off_c, 7, 47, 21
9, 29864, Control_c, 7, 64, 0
9, 29872, Control_c, 7, 64, 0
9, 29904, Control_c, 7, 64, 0
9, 29904, Control_c, 7, 64, 0
9, 29912, Control_c, 7, 64, 0
9, 29920, Control_c, 7, 64, 0
9, 29944, Note_on_c, 7, 52, 33
9, 29948, Note_on_c, 7, 60, 61
9, 29948, Note_on_c, 7, 55, 48
9, 29952, Note_on_c, 7, 48, 50
9, 29972, Control_c, 7, 64, 127
9, 29996, Control_c, 7, 64, 127
9, 30016, Control_c, 7, 64, 127
9, 30028, Control_c, 7, 64, 127
9, 30040, Note_off_c, 7, 52, 22
9, 30044, Note_off_c, 7, 55, 39
9, 30048, Control_c, 7, 64, 127
9, 30060, Note_off_c, 7, 60, 39
9, 30240, Control_c, 7, 64, 127
9, 30336, Note_on_c, 7, 55, 41
9, 30336, Note_on_c, 7, 52, 28
9, 30344, Note_on_c, 7, 60, 56
9, 30356, Control_c, 7, 64, 0
9, 30392, Note_off_c, 7, 48, 17
9, 30400, Note_off_c, 7, 52, 34
9, 30420, Note_off_c, 7, 55, 52
9, 30448, Note_off_c, 7, 60, 49
9, 30596, Control_c, 7, 64, 0
9, 30596, Control_c, 7, 64, 0
9, 30620, Control_c, 7, 64, 0
9, 30672, Control_c, 7, 64, 0
9, 30680, Control_c, 7, 64, 127
9, 30696, Note_on_c, 7, 54, 33
9, 30704, Control_c, 7, 64, 127
9, 30720, Note_on_c, 7, 50, 56
9, 30728, Note_on_c, 7, 62, 63
9, 30740, Note_on_c, 7, 57, 12
9, 30740, Control_c, 7, 64, 127
9, 30836, Note_off_c, 7, 54, 7
9, 30848, Note_off_c, 7, 50, 13
9, 30860, Note_off_c, 7, 57, 19
9, 30860, Control_c, 7, 64, 127
9, 30864, Note_off_c, 7, 62, 23
9, 30972, Control_c, 7, 64, 0
9, 31068, Note_on_c, 7, 54, 25
9, 31080, Note_on_c, 7, 57, 50
9, 31080, Note_on_c, 7, 50, 51
9, 31112, Note_on_c, 7, 62, 59
9, 31176, Note_off_c, 7, 50, 19
9, 31180, Note_off_c, 7, 54, 7
9, 31180, Note_off_c, 7, 57, 14
9, 31200, Note_off_c, 7, 62, 42
9, 31464, Note_on_c, 7, 48, 51
9, 31468, Note_on_c, 7, 52, 17
9, 31468, Note_on_c, 7, 55, 51
9, 31468, Control_c, 7, 64, 0
9, 31492, Note_on_c, 7, 60, 70
9, 31540, Note_off_c, 7, 52, 21
9, 31544, Control_c, 7, 64, 127
9, 31576, Note_off_c, 7, 55, 19
9, 31604, Note_off_c, 7, 60, 34
9, 31608, Note_off_c, 7, 48, 44
9, 31852, Note_on_c, 7, 48, 51
9, 31860, Note_on_c, 7, 55, 51
9, 31860, Note_on_c, 7, 60, 70
9, 31872, Note_on_c, 7, 52, 21
9, 31936, Note_off_c, 7, 48, 29
9, 31964, Note_off_c, 7, 55, 37
9, 31976, Note_off_c, 7, 60, 37
9, 31976, Note_off_c, 7, 52, 21
9, 32200, Control_c, 7, 64, 0
9, 32208, Control_c, 7, 64, 0
9, 32648, Note_on_c, 7, 47, 67
9, 32656, Note_on_c, 7, 55, 51
9, 32656, Note_on_c, 7, 59, 77
9, 32660, Note_on_c, 7, 50, 37
9, 32832, Note_off_c, 7, 50, 21
9, 32836, Note_off_c, 7, 47, 41
9, 32844, Note_off_c, 7, 55, 50
9, 32860, Note_off_c, 7, 59, 59
9, 33052, Note_on_c, 7, 48, 59
9, 33052, Note_on_c, 7, 52, 46
9, 33052, Note_on_c, 7, 55, 70
9, 33052, Note_on_c, 7, 60, 74
9, 33132, Note_off_c, 7, 55, 59
9, 33136, Note_off_c, 7, 52, 33
9, 33144, Note_off_c, 7, 48, 73
9, 33148, Note_off_c, 7, 60, 51
9, 33284, Note_on_c, 7, 48, 61
9, 33288, Note_on_c, 7, 55, 74
9, 33288, Note_on_c, 7, 52, 66
9, 33288, Note_on_c, 7, 60, 84
9, 33356, Control_c, 7, 64, 127
9, 33480, Note_off_c, 7, 52, 26
9, 33484, Note_off_c, 7, 48, 51
9, 33528, Note_off_c, 7, 55, 43
9, 33528, Note_off_c, 7, 60, 73
9, 33632, Control_c, 7, 64, 0
9, 33824, Note_on_c, 7, 57, 33
9, 33996, Note_on_c, 7, 60, 16
9, 34168, Note_on_c, 7, 64, 39
9, 34348, Note_on_c, 7, 69, 46
9, 34552, Note_on_c, 7, 76, 56
9, 34560, Note_off_c, 7, 69, 4
9, 34648, Note_off_c, 7, 57, 0
9, 34752, Note_off_c, 7, 76, 23
9, 34768, Note_on_c, 7, 72, 14
9, 34916, Note_off_c, 7, 72, 41
9, 34948, Note_on_c, 7, 69, 33
9, 34956, Note_off_c, 7, 60, 7
9, 35144, Note_on_c, 7, 72, 46
9, 35252, Note_off_c, 7, 64, 0
9, 35332, Note_off_c, 7, 69, 61
9, 35336, Note_off_c, 7, 72, 61
9, 35360, Note_on_c, 7, 57, 33
9, 35532, Note_on_c, 7, 60, 16
9, 35704, Note_on_c, 7, 64, 39
9, 35884, Note_on_c, 7, 69, 46
9, 36088, Note_on_c, 7, 76, 56
9, 36096, Note_off_c, 7, 69, 4
9, 36184, Note_off_c, 7, 57, 0
9, 36288, Note_off_c, 7, 76, 23
9, 36304, Note_on_c, 7, 72, 14
9, 36452, Note_off_c, 7, 72, 41
9, 36484, Note_on_c, 7, 69, 33
9, 36492, Note_off_c, 7, 60, 7
9, 36680, Note_on_c, 7, 72, 46
9, 36788, Note_off_c, 7, 64, 0
9, 36868, Note_off_c, 7, 69, 13
9, 36872, Note_off_c, 7, 72, 28
9, 36896, Note_on_c, 7, 55, 41
9, 37100, Note_on_c, 7, 59, 41
9, 37272, Note_on_c, 7, 62, 41
9, 37460, Note_on_c, 7, 67, 33
9, 37492, Note_off_c, 7, 55, 0
9, 37644, Note_on_c, 7, 74, 55
9, 37724, Note_off_c, 7, 67, 0
9, 37812, Note_off_c, 7, 74, 22
9, 37848, Note_on_c, 7, 71, 28
9, 38020, Note_off_c, 7, 71, 25
9, 38032, Note_on_c, 7, 67, 28
9, 38204, Note_off_c, 7, 59, 16
9, 38228, Note_on_c, 7, 71, 34
9, 38292, Note_off_c, 7, 62, 21
9, 38404, Note_off_c, 7, 67, 19
9, 38424, Note_on_c, 7, 55, 46
9, 38492, Note_off_c, 7, 71, 16
9, 38604, Note_on_c, 7, 59, 41
9, 38796, Note_on_c, 7, 62, 39
9, 38988, Note_on_c, 7, 67, 41
9, 39044, Note_off_c, 7, 55, 0
9, 39176, Note_on_c, 7, 74, 56
9, 39224, Note_off_c, 7, 67, 13
9, 39332, Note_off_c, 7, 74, 28
9, 39340, Note_on_c, 7, 71, 39
9, 39520, Note_off_c, 7, 71, 42
9, 39532, Note_on_c, 7, 67, 41
9, 39708, Note_off_c, 7, 67, 17
9, 39716, Note_on_c, 7, 71, 39
9, 39736, Note_off_c, 7, 62, 13
9, 39740, Note_off_c, 7, 59, 8
9, 39892, Note_off_c, 7, 71, 40
9, 39928, Note_on_c, 7, 53, 25
9, 40096, Note_on_c, 7, 57, 28
9, 40292, Note_on_c, 7, 60, 52
9, 40496, Note_on_c, 7, 65, 46
9, 40692, Note_on_c, 7, 72, 63
9, 40720, Note_off_c, 7, 65, 19
9, 40852, Note_off_c, 7, 72, 34
9, 40880, Note_on_c, 7, 69, 33
9, 41072, Note_off_c, 7, 69, 31
9, 41072, Note_on_c, 7, 65, 41
9, 41132, Note_off_c, 7, 53, 0
9, 41276, Note_off_c, 7, 57, 50
9, 41276, Note_on_c, 7, 69, 25
9, 41312, Note_off_c, 7, 60, 25
9, 41436, Note_off_c, 7, 65, 10
9, 41476, Note_on_c, 7, 53, 50
9, 41584, Note_off_c, 7, 69, 2
9, 41652, Note_on_c, 7, 57, 33
9, 41852, Note_on_c, 7, 60, 52
9, 42040, Note_on_c, 7, 65, 50
9, 42228, Note_on_c, 7, 72, 56
9, 42232, Note_off_c, 7, 65, 19
9, 42288, Note_off_c, 7, 53, 0
9, 42400, Note_off_c, 7, 72, 28
9, 42420, Note_on_c, 7, 69, 51
9, 42596, Note_off_c, 7, 69, 30
9, 42608, Note_on_c, 7, 65, 46
9, 42644, Note_off_c, 7, 57, 4
9, 42680, Note_off_c, 7, 60, 14
9, 42792, Note_on_c, 7, 69, 33
9, 42992, Note_off_c, 7, 65, 0
9, 42992, Note_on_c, 7, 52, 46
9, 43116, Note_off_c, 7, 69, 21
9, 43160, Note_on_c, 7, 56, 28
9, 43368, Note_on_c, 7, 59, 59
9, 43564, Note_on_c, 7, 64, 48
9, 43736, Note_off_c, 7, 64, 11
9, 43740, Note_on_c, 7, 68, 56
9, 43908, Note_off_c, 7, 68, 36
9, 43944, Note_on_c, 7, 64, 39
9, 44128, Note_on_c, 7, 71, 61
9, 44144, Note_off_c, 7, 64, 13
9, 44252, Note_off_c, 7, 52, 0
9, 44332, Note_on_c, 7, 64, 39
9, 44344, Note_off_c, 7, 56, 29
9, 44388, Note_off_c, 7, 59, 26
9, 44388, Note_off_c, 7, 71, 0
9, 44532, Note_on_c, 7, 52, 46
9, 44564, Note_off_c, 7, 64, 22
9, 44712, Note_on_c, 7, 56, 11
9, 44900, Note_on_c, 7, 59, 50
9, 45092, Note_on_c, 7, 64, 25
9, 45296, Note_on_c, 7, 68, 51
9, 45328, Note_off_c, 7, 64, 19
9, 45468, Note_off_c, 7, 68, 29
9, 45488, Note_on_c, 7, 64, 34
9, 45508, Note_off_c, 7, 52, 0
9, 45652, Note_off_c, 7, 56, 10
9, 45680, Note_on_c, 7, 71, 46
9, 45716, Note_off_c, 7, 64, 2
9, 45800, Note_off_c, 7, 59, 28
9, 45876, Note_on_c, 7, 68, 39
9, 45984, Note_off_c, 7, 68, 15
9, 46040, Note_off_c, 7, 71, 0
9, 46088, Note_on_c, 7, 64, 33
9, 46100, Note_on_c, 7, 57, 52
9, 46116, Note_off_c, 7, 64, 41
9, 46276, Note_on_c, 7, 60, 39
9, 46452, Note_on_c, 7, 64, 33
9, 46656, Note_on_c, 7, 69, 39
9, 46824, Note_off_c, 7, 69, 23
9, 46832, Note_on_c, 7, 72, 50
9, 47196, Note_off_c, 7, 72, 30
9, 47228, Note_on_c, 7, 69, 17
9, 47408, Note_off_c, 7, 57, 0
9, 47588, Note_on_c, 7, 57, 41
9, 47748, Note_off_c, 7, 69, 13
9, 48152, Note_off_c, 7, 64, 0
9, 48216, Note_off_c, 7, 60, 0
9, 48256, Note_off_c, 7, 57, 22
9, 49004, Control_c, 7, 64, 0
9, 49152, Note_on_c, 7, 55, 33
9, 49156, Note_on_c, 7, 60, 33
9, 49164, Note_on_c, 7, 52, 41
9, 50364, Note_off_c, 7, 60, 19
9, 50380, Note_off_c, 7, 55, 33
9, 50404, Note_off_c, 7, 52, 6
9, 50700, Note_on_c, 7, 55, 41
9, 50704, Note_on_c, 7, 59, 51
9, 50740, Note_on_c, 7, 50, 4
9, 51920, Note_off_c, 7, 55, 0
9, 51948, Note_off_c, 7, 50, 13
9, 52016, Note_off_c, 7, 59, 29
9, 52228, Note_on_c, 7, 52, 28
9, 52236, Note_on_c, 7, 60, 46
9, 52236, Note_on_c, 7, 57, 39
9, 53216, Note_off_c, 7, 57, 42
9, 53224, Note_off_c, 7, 60, 36
9, 53296, Note_on_c, 7, 57, 48
9, 53296, Note_on_c, 7, 60, 52
9, 53608, Note_off_c, 7, 52, 7
9, 53616, Note_off_c, 7, 60, 23
9, 53636, Note_off_c, 7, 57, 19
9, 53772, Note_on_c, 7, 52, 11
9, 53780, Note_on_c, 7, 55, 41
9, 53780, Note_on_c, 7, 59, 50
9, 54980, Note_off_c, 7, 52, 52
9, 54980, Note_off_c, 7, 55, 58
9, 55008, Note_off_c, 7, 59, 61
9, 55284, Note_on_c, 7, 60, 50
9, 55292, Note_on_c, 7, 53, 52
9, 55292, Note_on_c, 7, 57, 50
9, 55296, Note_on_c, 7, 64, 51
9, 56592, Note_off_c, 7, 53, 0
9, 56600, Note_off_c, 7, 60, 0
9, 56612, Note_off_c, 7, 57, 0
9, 56612, Note_off_c, 7, 64, 16
9, 56832, Note_on_c, 7, 60, 51
9, 56836, Note_on_c, 7, 57, 37
9, 56844, Note_on_c, 7, 53, 41
9, 56844, Note_on_c, 7, 64, 41
9, 57792, Note_off_c, 7, 64, 13
9, 57860, Note_off_c, 7, 57, 2
9, 57872, Note_off_c, 7, 60, 3
9, 57936, Note_off_c, 7, 53, 49
9, 58396, Note_on_c, 7, 59, 56
9, 58396, Note_on_c, 7, 55, 51
9, 58404, Note_on_c, 7, 52, 34
9, 59632, Note_off_c, 7, 59, 34
9, 59636, Note_off_c, 7, 55, 23
9, 59652, Note_off_c, 7, 52, 33
9, 59904, Note_on_c, 7, 55, 51
9, 59904, Note_on_c, 7, 52, 46
9, 59908, Note_on_c, 7, 59, 52
9, 60520, Note_off_c, 7, 55, 6
9, 60528, Note_off_c, 7, 59, 0
9, 60820, Note_off_c, 7, 52, 12
9, 60908, Note_on_c, 7, 59, 50
9, 60924, Note_on_c, 7, 55, 21
9, 60936, Note_on_c, 7, 52, 28
9, 61176, Note_off_c, 7, 55, 37
9, 61176, Note_off_c, 7, 52, 34
9, 61208, Note_off_c, 7, 59, 54
9, 61428, Note_on_c, 7, 60, 52
9, 61436, Note_on_c, 7, 57, 39
9, 61440, Note_on_c, 7, 53, 28
9, 62848, Note_off_c, 7, 60, 0
9, 62860, Note_off_c, 7, 53, 23
9, 62880, Note_off_c, 7, 57, 0
9, 63008, Note_on_c, 7, 57, 28
9, 63012, Note_on_c, 7, 60, 46
9, 63024, Note_on_c, 7, 53, 41
9, 64096, Note_off_c, 7, 60, 2
9, 64112, Note_off_c, 7, 57, 17
9, 64228, Note_off_c, 7, 53, 25
9, 64532, Note_on_c, 7, 59, 52
9, 64532, Note_on_c, 7, 55, 39
9, 64544, Note_on_c, 7, 52, 46
9, 65796, Note_off_c, 7, 59, 19
9, 65800, Note_off_c, 7, 55, 13
9, 65808, Note_off_c, 7, 52, 29
9, 66056, Note_on_c, 7, 59, 46
9, 66056, Note_on_c, 7, 52, 34
9, 66068, Note_on_c, 7, 55, 51
9, 67024, Note_off_c, 7, 55, 0
9, 67072, Note_off_c, 7, 59, 7
9, 67096, Note_off_c, 7, 52, 0
9, 67516, Note_on_c, 7, 53, 46
9, 67524, Note_on_c, 7, 57, 33
9, 67548, Note_on_c, 7, 62, 70
9, 67656, Note_on_c, 7, 65, 63
9, 68824, Note_off_c, 7, 53, 54
9, 68868, Note_off_c, 7, 57, 7
9, 68908, Note_off_c, 7, 62, 22
9, 69000, Note_off_c, 7, 65, 34
9, 69072, Note_on_c, 7, 53, 52
9, 69084, Note_on_c, 7, 56, 33
9, 69116, Note_on_c, 7, 60, 51
9, 69224, Note_on_c, 7, 65, 61
9, 70368, Note_off_c, 7, 53, 44
9, 70380, Note_off_c, 7, 56, 51
9, 70388, Note_off_c, 7, 60, 25
9, 70460, Note_off_c, 7, 65, 31
9, 70604, Note_on_c, 7, 48, 43
9, 70668, Note_on_c, 7, 60, 28
9, 70668, Note_on_c, 7, 52, 61
9, 70708, Note_on_c, 7, 64, 59
9, 70712, Note_on_c, 7, 55, 37
9, 72504, Note_off_c, 7, 48, 42
9, 72504, Note_off_c, 7, 52, 75
9, 72504, Note_off_c, 7, 55, 40
9, 72504, Note_off_c, 7, 60, 54
9, 72504, Note_off_c, 7, 64, 77
9, 72504, End_track
10, 0, Start_track
10, 0, Title_t, "Strings/Melotron"
10, 0, Control_c, 8, 0, 0
10, 0, Program_c, 8, 49
10, 0, Key_signature, 0, "major"
10, 49148, Note_on_c, 8, 67, 84
10, 50284, Note_off_c, 8, 67, 58
10, 50364, Note_on_c, 8, 64, 82
10, 50496, Note_on_c, 8, 65, 84
10, 50564, Note_off_c, 8, 64, 24
10, 50688, Note_off_c, 8, 65, 38
10, 50700, Note_on_c, 8, 67, 93
10, 51052, Note_off_c, 8, 67, 35
10, 51072, Note_on_c, 8, 69, 84
10, 51256, Note_off_c, 8, 69, 25
10, 51288, Note_on_c, 8, 71, 93
10, 51608, Note_off_c, 8, 71, 10
10, 51648, Note_on_c, 8, 72, 60
10, 51996, Note_on_c, 8, 74, 82
10, 52012, Note_off_c, 8, 72, 33
10, 52200, Note_off_c, 8, 74, 34
10, 52228, Note_on_c, 8, 76, 93
10, 54404, Note_off_c, 8, 76, 58
10, 54528, Note_on_c, 8, 76, 96
10, 55072, Note_off_c, 8, 76, 38
10, 55292, Note_on_c, 8, 76, 100
10, 55876, Note_off_c, 8, 76, 58
10, 55900, Note_on_c, 8, 72, 93
10, 57196, Note_off_c, 8, 72, 58
10, 57208, Note_on_c, 8, 69, 76
10, 57440, Note_on_c, 8, 71, 96
10, 57476, Note_off_c, 8, 69, 14
10, 57800, Note_off_c, 8, 71, 14
10, 57816, Note_on_c, 8, 72, 76
10, 58164, Note_off_c, 8, 72, 42
10, 58192, Note_on_c, 8, 71, 97
10, 58560, Note_off_c, 8, 71, 58
10, 58588, Note_on_c, 8, 67, 77
10, 58776, Note_off_c, 8, 67, 27
10, 58940, Note_on_c, 8, 64, 72
10, 60868, Note_off_c, 8, 64, 58
10, 60884, Note_on_c, 8, 76, 102
10, 61372, Note_off_c, 8, 76, 33
10, 61436, Note_on_c, 8, 76, 76
10, 61444, Note_on_c, 8, 64, 84
10, 62016, Note_off_c, 8, 76, 58
10, 62016, Note_on_c, 8, 72, 82
10, 62868, Note_off_c, 8, 64, 15
10, 63020, Note_on_c, 8, 64, 58
10, 63348, Note_off_c, 8, 72, 58
10, 63364, Note_on_c, 8, 69, 84
10, 63596, Note_on_c, 8, 71, 100
10, 63636, Note_off_c, 8, 69, 13
10, 63880, Note_off_c, 8, 71, 15
10, 63956, Note_off_c, 8, 64, 18
10, 63960, Note_on_c, 8, 72, 96
10, 64292, Note_off_c, 8, 72, 42
10, 64328, Note_on_c, 8, 71, 93
10, 64704, Note_off_c, 8, 71, 58
10, 64732, Note_on_c, 8, 67, 84
10, 65036, Note_off_c, 8, 67, 25
10, 65108, Note_on_c, 8, 64, 93
10, 67212, Note_off_c, 8, 64, 58
10, 67608, Note_on_c, 8, 62, 29
10, 68880, Note_off_c, 8, 62, 0
10, 69116, Note_on_c, 8, 65, 60
10, 69120, Note_on_c, 8, 68, 84
10, 70148, Note_off_c, 8, 68, 58
10, 70508, Note_off_c, 8, 65, 58
10, 70632, Note_on_c, 8, 64, 72
10, 70636, Note_on_c, 8, 67, 69
10, 70656, Note_on_c, 8, 72, 84
10, 72420, Note_off_c, 8, 67, 58
10, 72432, Note_off_c, 8, 64, 58
10, 72448, Note_off_c, 8, 72, 58
10, 72448, End_track
11, 0, Start_track
11, 0, Key_signature, 0, "major"
11, 0, End_track
12, 0, Start_track
12, 0, Key_signature, 0, "major"
12, 0, End_track
13, 0, Start_track
13, 0, Key_signature, 0, "major"
13, 0, End_track
14, 0, Start_track
14, 0, Key_signature, 0, "major"
14, 0, End_track
15, 0, Start_track
15, 0, Key_signature, 0, "major"
15, 0, End_track
16, 0, Start_track
16, 0, Key_signature, 0, "major"
16, 0, End_track
0, 0, End_of_file
