0, 0, Header, 0, 1, 96
1, 0, Start_track
1, 0, Title_t, "The Boy Is Mine"
1, 0, MIDI_port, 0
1, 0, System_exclusive, 5, 126, 127, 9, 1, 247
1, 0, MIDI_port, 0
1, 0, Time_signature, 4, 2, 24, 8
1, 0, Key_signature, 0, "major"
1, 0, Tempo, 659341
1, 96, Control_c, 0, 0, 0
1, 97, Control_c, 0, 32, 0
1, 98, Program_c, 0, 53
1, 99, Control_c, 0, 7, 90
1, 99, Control_c, 0, 10, 64
1, 99, Control_c, 0, 11, 127
1, 100, Control_c, 0, 91, 40
1, 100, Control_c, 0, 93, 44
1, 101, Control_c, 1, 0, 0
1, 102, Control_c, 1, 32, 0
1, 103, Program_c, 1, 39
1, 104, Control_c, 1, 7, 100
1, 104, Control_c, 1, 10, 64
1, 104, Control_c, 1, 11, 127
1, 105, Control_c, 1, 91, 0
1, 105, Control_c, 1, 93, 32
1, 106, Control_c, 2, 0, 0
1, 107, Control_c, 2, 32, 0
1, 108, Program_c, 2, 65
1, 109, Control_c, 2, 7, 102
1, 109, Control_c, 2, 10, 43
1, 109, Control_c, 2, 11, 127
1, 110, Control_c, 2, 91, 86
1, 110, Control_c, 2, 93, 0
1, 111, Control_c, 3, 0, 0
1, 112, Control_c, 3, 32, 0
1, 113, Program_c, 3, 64
1, 114, Control_c, 3, 7, 99
1, 114, Control_c, 3, 10, 74
1, 114, Control_c, 3, 11, 127
1, 115, Control_c, 3, 91, 85
1, 115, Control_c, 3, 93, 0
1, 119, Control_c, 5, 11, 127
1, 120, Control_c, 5, 91, 76
1, 120, Control_c, 5, 93, 20
1, 121, Control_c, 5, 0, 0
1, 122, Control_c, 5, 32, 0
1, 123, Program_c, 5, 0
1, 124, Control_c, 5, 7, 60
1, 124, Control_c, 5, 10, 64
1, 124, Control_c, 6, 11, 127
1, 125, Control_c, 6, 91, 32
1, 125, Control_c, 6, 93, 4
1, 126, Control_c, 6, 0, 0
1, 127, Control_c, 6, 32, 0
1, 128, Program_c, 6, 7
1, 129, Control_c, 6, 7, 76
1, 129, Control_c, 6, 10, 8
1, 129, Control_c, 7, 11, 127
1, 130, Control_c, 7, 91, 40
1, 130, Control_c, 7, 93, 0
1, 131, Control_c, 7, 0, 0
1, 132, Control_c, 7, 32, 0
1, 133, Program_c, 7, 27
1, 134, Control_c, 7, 7, 96
1, 134, Control_c, 7, 10, 64
1, 134, Control_c, 8, 11, 127
1, 135, Control_c, 8, 91, 30
1, 135, Control_c, 8, 93, 2
1, 136, Control_c, 8, 0, 0
1, 137, Control_c, 8, 32, 0
1, 138, Program_c, 8, 24
1, 139, Control_c, 8, 7, 63
1, 139, Control_c, 8, 10, 90
1, 139, Control_c, 9, 11, 127
1, 140, Control_c, 9, 91, 30
1, 140, Control_c, 9, 93, 0
1, 141, Control_c, 9, 0, 0
1, 142, Control_c, 9, 32, 0
1, 143, Program_c, 9, 0
1, 144, Control_c, 9, 7, 100
1, 144, Control_c, 9, 10, 64
1, 144, Control_c, 10, 11, 127
1, 145, Control_c, 10, 91, 31
1, 145, Control_c, 10, 93, 21
1, 146, Control_c, 10, 0, 0
1, 147, Control_c, 10, 32, 0
1, 148, Program_c, 10, 43
1, 149, Control_c, 10, 7, 88
1, 149, Control_c, 10, 10, 64
1, 149, Control_c, 11, 11, 127
1, 150, Control_c, 11, 91, 40
1, 150, Control_c, 11, 93, 0
1, 151, Control_c, 11, 0, 0
1, 152, Control_c, 11, 32, 0
1, 153, Program_c, 11, 38
1, 154, Control_c, 11, 7, 100
1, 154, Control_c, 11, 10, 64
1, 154, Control_c, 12, 11, 127
1, 155, Control_c, 12, 91, 71
1, 155, Control_c, 12, 93, 20
1, 156, Control_c, 12, 0, 0
1, 157, Control_c, 12, 32, 0
1, 158, Program_c, 12, 52
1, 159, Control_c, 12, 7, 90
1, 159, Control_c, 12, 10, 49
1, 159, Control_c, 13, 11, 127
1, 160, Control_c, 13, 91, 65
1, 160, Control_c, 13, 93, 33
1, 161, Control_c, 13, 0, 0
1, 162, Control_c, 13, 32, 0
1, 163, Program_c, 13, 48
1, 164, Control_c, 13, 7, 42
1, 164, Control_c, 13, 10, 64
1, 164, Control_c, 14, 11, 127
1, 165, Control_c, 14, 91, 57
1, 165, Control_c, 14, 93, 44
1, 166, Control_c, 14, 0, 0
1, 167, Control_c, 14, 32, 0
1, 168, Program_c, 14, 48
1, 169, Control_c, 14, 7, 75
1, 169, Control_c, 14, 10, 64
1, 169, Control_c, 15, 11, 127
1, 170, Control_c, 15, 91, 0
1, 170, Control_c, 15, 93, 0
1, 171, Control_c, 15, 0, 0
1, 172, Control_c, 15, 32, 0
1, 173, Program_c, 15, 46
1, 174, Control_c, 15, 7, 80
1, 174, Control_c, 15, 10, 64
1, 576, Lyric_t, "(Intro) "
1, 576, Lyric_t, "\015"
1, 768, Pitch_bend_c, 9, 8192
1, 768, Control_c, 9, 1, 0
1, 768, Note_on_c, 9, 42, 120
1, 768, Lyric_t, ". "
1, 772, Note_on_c, 9, 42, 0
1, 864, Note_on_c, 9, 42, 70
1, 868, Note_on_c, 9, 42, 0
1, 960, Note_on_c, 9, 42, 70
1, 964, Note_on_c, 9, 42, 0
1, 1056, Note_on_c, 9, 42, 70
1, 1060, Note_on_c, 9, 42, 0
1, 1152, Tempo, 652174
1, 1152, Pitch_bend_c, 8, 8192
1, 1152, Control_c, 8, 1, 0
1, 1152, Note_on_c, 8, 54, 99
1, 1152, Note_on_c, 9, 84, 18
1, 1152, Pitch_bend_c, 15, 8192
1, 1152, Control_c, 15, 1, 0
1, 1152, Note_on_c, 15, 54, 78
1, 1152, Lyric_t, ". "
1, 1156, Note_on_c, 9, 84, 0
1, 1176, Note_on_c, 15, 57, 76
1, 1197, Note_on_c, 15, 57, 0
1, 1200, Note_on_c, 15, 61, 81
1, 1224, Note_on_c, 15, 64, 76
1, 1228, Note_on_c, 15, 61, 0
1, 1248, Note_on_c, 15, 64, 0
1, 1248, Note_on_c, 9, 84, 18
1, 1248, Note_on_c, 15, 68, 76
1, 1252, Note_on_c, 9, 84, 0
1, 1272, Note_on_c, 15, 64, 77
1, 1275, Note_on_c, 15, 68, 0
1, 1283, Note_on_c, 8, 54, 0
1, 1296, Note_on_c, 8, 57, 95
1, 1297, Note_on_c, 15, 57, 73
1, 1298, Note_on_c, 15, 64, 0
1, 1315, Note_on_c, 15, 57, 0
1, 1319, Note_on_c, 15, 61, 77
1, 1326, Note_on_c, 8, 57, 0
1, 1330, Note_on_c, 15, 54, 0
1, 1335, Note_on_c, 15, 61, 0
1, 1343, Note_on_c, 9, 84, 23
1, 1344, Note_on_c, 8, 54, 95
1, 1344, Note_on_c, 15, 54, 73
1, 1347, Note_on_c, 9, 84, 0
1, 1368, Note_on_c, 15, 69, 81
1, 1372, Note_on_c, 8, 54, 0
1, 1392, Note_on_c, 8, 57, 95
1, 1392, Note_on_c, 15, 57, 74
1, 1393, Note_on_c, 15, 69, 0
1, 1410, Note_on_c, 15, 57, 0
1, 1416, Note_on_c, 15, 64, 73
1, 1439, Note_on_c, 9, 84, 20
1, 1440, Note_on_c, 15, 61, 77
1, 1440, Note_on_c, 15, 57, 76
1, 1441, Note_on_c, 15, 64, 0
1, 1443, Note_on_c, 9, 84, 0
1, 1459, Note_on_c, 15, 57, 0
1, 1464, Note_on_c, 15, 57, 79
1, 1465, Note_on_c, 15, 61, 0
1, 1486, Note_on_c, 15, 57, 0
1, 1488, Note_on_c, 15, 61, 74
1, 1488, Note_on_c, 15, 57, 73
1, 1493, Note_on_c, 8, 57, 0
1, 1504, Note_on_c, 15, 54, 0
1, 1505, Note_on_c, 15, 57, 0
1, 1512, Note_on_c, 8, 54, 99
1, 1512, Note_on_c, 15, 54, 76
1, 1513, Note_on_c, 15, 61, 0
1, 1533, Note_on_c, 8, 54, 0
1, 1536, Note_on_c, 15, 54, 0
1, 1536, Note_on_c, 8, 54, 99
1, 1536, Note_on_c, 15, 66, 73
1, 1536, Lyric_t, ". "
1, 1559, Note_on_c, 15, 57, 79
1, 1578, Note_on_c, 15, 57, 0
1, 1583, Note_on_c, 15, 61, 80
1, 1607, Note_on_c, 15, 57, 72
1, 1627, Note_on_c, 15, 57, 0
1, 1628, Note_on_c, 15, 61, 0
1, 1631, Note_on_c, 15, 57, 72
1, 1631, Note_on_c, 15, 64, 79
1, 1645, Note_on_c, 15, 57, 0
1, 1650, Note_on_c, 15, 64, 0
1, 1650, Note_on_c, 15, 66, 0
1, 1656, Note_on_c, 15, 68, 75
1, 1669, Note_on_c, 8, 54, 0
1, 1677, Note_on_c, 15, 68, 0
1, 1679, Note_on_c, 8, 57, 97
1, 1680, Note_on_c, 15, 57, 78
1, 1696, Note_on_c, 15, 57, 0
1, 1699, Note_on_c, 8, 57, 0
1, 1703, Note_on_c, 15, 69, 75
1, 1722, Note_on_c, 15, 69, 0
1, 1727, Note_on_c, 8, 57, 96
1, 1728, Note_on_c, 15, 57, 80
1, 1747, Note_on_c, 15, 57, 0
1, 1747, Note_on_c, 8, 57, 0
1, 1752, Note_on_c, 15, 64, 78
1, 1770, Note_on_c, 15, 64, 0
1, 1775, Note_on_c, 8, 57, 95
1, 1775, Note_on_c, 15, 57, 77
1, 1793, Note_on_c, 15, 57, 0
1, 1794, Note_on_c, 8, 57, 0
1, 1800, Note_on_c, 15, 61, 80
1, 1820, Note_on_c, 15, 61, 0
1, 1823, Note_on_c, 8, 54, 98
1, 1823, Note_on_c, 15, 54, 78
1, 1847, Note_on_c, 15, 61, 75
1, 1870, Note_on_c, 15, 61, 0
1, 1870, Note_on_c, 15, 64, 79
1, 1871, Note_on_c, 15, 54, 0
1, 1895, Note_on_c, 15, 64, 0
1, 1895, Note_on_c, 15, 68, 75
1, 1908, Note_on_c, 8, 54, 0
1, 1912, Note_on_c, 15, 68, 0
1, 1920, Tempo, 645161
1, 1920, Note_on_c, 9, 84, 22
1, 1920, Note_on_c, 15, 49, 75
1, 1920, Lyric_t, ". "
1, 1924, Note_on_c, 9, 84, 0
1, 1943, Note_on_c, 15, 56, 80
1, 1944, Note_on_c, 8, 56, 99
1, 1958, Note_on_c, 8, 56, 0
1, 1964, Note_on_c, 15, 56, 0
1, 1967, Note_on_c, 15, 59, 75
1, 1991, Note_on_c, 15, 56, 72
1, 1992, Note_on_c, 8, 56, 100
1, 1995, Note_on_c, 15, 59, 0
1, 2009, Note_on_c, 8, 56, 0
1, 2012, Note_on_c, 15, 56, 0
1, 2015, Note_on_c, 15, 63, 72
1, 2016, Note_on_c, 9, 84, 23
1, 2020, Note_on_c, 9, 84, 0
1, 2037, Note_on_c, 15, 63, 0
1, 2039, Note_on_c, 8, 56, 95
1, 2039, Note_on_c, 15, 56, 80
1, 2057, Note_on_c, 8, 56, 0
1, 2060, Note_on_c, 15, 56, 0
1, 2063, Note_on_c, 15, 59, 80
1, 2087, Note_on_c, 15, 59, 0
1, 2087, Note_on_c, 8, 56, 96
1, 2087, Note_on_c, 15, 56, 72
1, 2106, Note_on_c, 8, 56, 0
1, 2111, Note_on_c, 9, 84, 20
1, 2111, Note_on_c, 15, 63, 73
1, 2112, Note_on_c, 15, 56, 0
1, 2115, Note_on_c, 9, 84, 0
1, 2130, Note_on_c, 15, 63, 0
1, 2135, Note_on_c, 8, 56, 103
1, 2135, Note_on_c, 15, 56, 77
1, 2149, Note_on_c, 15, 56, 0
1, 2154, Note_on_c, 8, 56, 0
1, 2159, Note_on_c, 15, 56, 79
1, 2159, Note_on_c, 15, 61, 79
1, 2170, Note_on_c, 15, 61, 0
1, 2173, Note_on_c, 15, 56, 0
1, 2183, Note_on_c, 15, 56, 75
1, 2183, Note_on_c, 15, 64, 78
1, 2184, Note_on_c, 8, 56, 98
1, 2197, Note_on_c, 8, 56, 0
1, 2199, Note_on_c, 15, 64, 0
1, 2208, Note_on_c, 8, 56, 100
1, 2208, Note_on_c, 9, 84, 16
1, 2211, Note_on_c, 15, 49, 0
1, 2212, Note_on_c, 9, 84, 0
1, 2223, Note_on_c, 15, 56, 0
1, 2231, Note_on_c, 15, 66, 73
1, 2234, Note_on_c, 8, 56, 0
1, 2255, Note_on_c, 8, 56, 99
1, 2255, Note_on_c, 15, 56, 79
1, 2257, Note_on_c, 15, 66, 0
1, 2278, Note_on_c, 8, 56, 0
1, 2280, Note_on_c, 15, 56, 0
1, 2304, Note_on_c, 15, 59, 77
1, 2304, Lyric_t, ". "
1, 2327, Note_on_c, 15, 64, 77
1, 2328, Note_on_c, 8, 64, 101
1, 2337, Note_on_c, 15, 59, 0
1, 2345, Note_on_c, 8, 64, 0
1, 2352, Note_on_c, 15, 64, 0
1, 2352, Note_on_c, 15, 59, 81
1, 2375, Note_on_c, 15, 61, 80
1, 2376, Note_on_c, 8, 63, 99
1, 2386, Note_on_c, 15, 59, 0
1, 2393, Note_on_c, 8, 63, 0
1, 2394, Note_on_c, 15, 61, 0
1, 2400, Note_on_c, 15, 64, 81
1, 2423, Note_on_c, 15, 68, 75
1, 2424, Note_on_c, 8, 63, 97
1, 2434, Note_on_c, 15, 64, 0
1, 2441, Note_on_c, 8, 63, 0
1, 2447, Note_on_c, 15, 63, 79
1, 2471, Note_on_c, 15, 64, 74
1, 2472, Note_on_c, 8, 64, 102
1, 2487, Note_on_c, 8, 64, 0
1, 2487, Note_on_c, 15, 63, 0
1, 2492, Note_on_c, 15, 68, 0
1, 2493, Note_on_c, 15, 64, 0
1, 2495, Note_on_c, 15, 71, 77
1, 2519, Note_on_c, 8, 64, 101
1, 2519, Note_on_c, 15, 64, 76
1, 2539, Note_on_c, 8, 64, 0
1, 2543, Note_on_c, 15, 68, 74
1, 2546, Note_on_c, 15, 64, 0
1, 2546, Note_on_c, 15, 71, 0
1, 2567, Note_on_c, 15, 75, 76
1, 2568, Note_on_c, 15, 71, 75
1, 2569, Note_on_c, 15, 68, 0
1, 2588, Note_on_c, 15, 71, 0
1, 2591, Note_on_c, 15, 71, 77
1, 2592, Tempo, 645161
1, 2616, Note_on_c, 15, 80, 79
1, 2633, Note_on_c, 15, 71, 0
1, 2636, Note_on_c, 15, 75, 0
1, 2640, Note_on_c, 15, 61, 81
1, 2640, Note_on_c, 15, 71, 81
1, 2647, Note_on_c, 15, 80, 0
1, 2664, Note_on_c, 15, 83, 76
1, 2664, Note_on_c, 15, 56, 78
1, 2666, Note_on_c, 15, 61, 0
1, 2676, Note_on_c, 15, 71, 0
1, 2685, Note_on_c, 15, 56, 0
1, 2688, Note_on_c, 8, 54, 101
1, 2688, Note_on_c, 9, 42, 79
1, 2688, Note_on_c, 9, 84, 19
1, 2688, Note_on_c, 15, 54, 75
1, 2688, Lyric_t, ". "
1, 2691, Note_on_c, 15, 83, 0
1, 2692, Note_on_c, 9, 84, 0
1, 2692, Note_on_c, 9, 42, 0
1, 2712, Note_on_c, 15, 57, 80
1, 2733, Note_on_c, 15, 57, 0
1, 2735, Pitch_bend_c, 14, 8192
1, 2735, Control_c, 14, 1, 0
1, 2735, Note_on_c, 14, 54, 82
1, 2736, Note_on_c, 9, 42, 76
1, 2736, Note_on_c, 15, 61, 74
1, 2740, Note_on_c, 9, 42, 0
1, 2747, Note_on_c, 14, 54, 0
1, 2760, Note_on_c, 15, 64, 76
1, 2764, Note_on_c, 15, 61, 0
1, 2784, Note_on_c, 15, 64, 0
1, 2784, Pitch_bend_c, 1, 8192
1, 2784, Control_c, 1, 1, 0
1, 2784, Note_on_c, 1, 42, 94
1, 2784, Note_on_c, 9, 36, 95
1, 2784, Note_on_c, 9, 69, 93
1, 2784, Note_on_c, 9, 84, 16
1, 2784, Pitch_bend_c, 10, 8192
1, 2784, Control_c, 10, 1, 0
1, 2784, Note_on_c, 10, 42, 58
1, 2784, Pitch_bend_c, 11, 8192
1, 2784, Control_c, 11, 1, 0
1, 2784, Note_on_c, 11, 42, 62
1, 2784, Note_on_c, 15, 68, 73
1, 2788, Note_on_c, 9, 84, 0
1, 2788, Note_on_c, 9, 36, 0
1, 2788, Note_on_c, 9, 69, 0
1, 2808, Note_on_c, 9, 42, 77
1, 2808, Note_on_c, 9, 69, 100
1, 2808, Note_on_c, 15, 64, 77
1, 2811, Note_on_c, 15, 68, 0
1, 2812, Note_on_c, 9, 69, 0
1, 2812, Note_on_c, 9, 42, 0
1, 2819, Note_on_c, 8, 54, 0
1, 2827, Note_on_c, 11, 42, 0
1, 2827, Note_on_c, 10, 42, 0
1, 2827, Note_on_c, 1, 42, 0
1, 2831, Note_on_c, 14, 56, 85
1, 2832, Note_on_c, 8, 57, 103
1, 2832, Note_on_c, 9, 69, 92
1, 2833, Note_on_c, 15, 57, 72
1, 2834, Note_on_c, 15, 64, 0
1, 2836, Note_on_c, 9, 69, 0
1, 2845, Note_on_c, 14, 56, 0
1, 2851, Note_on_c, 15, 57, 0
1, 2855, Note_on_c, 15, 61, 73
1, 2856, Note_on_c, 9, 69, 97
1, 2860, Note_on_c, 9, 69, 0
1, 2862, Note_on_c, 8, 57, 0
1, 2866, Note_on_c, 15, 54, 0
1, 2871, Note_on_c, 15, 61, 0
1, 2879, Note_on_c, 9, 84, 18
1, 2880, Note_on_c, 8, 54, 96
1, 2880, Note_on_c, 9, 42, 84
1, 2880, Note_on_c, 9, 69, 93
1, 2880, Note_on_c, 15, 54, 74
1, 2883, Note_on_c, 9, 84, 0
1, 2884, Note_on_c, 9, 69, 0
1, 2884, Note_on_c, 9, 42, 0
1, 2904, Note_on_c, 9, 42, 52
1, 2904, Note_on_c, 15, 69, 72
1, 2908, Note_on_c, 9, 42, 0
1, 2908, Note_on_c, 8, 54, 0
1, 2927, Note_on_c, 14, 57, 79
1, 2928, Note_on_c, 8, 57, 97
1, 2928, Note_on_c, 15, 57, 80
1, 2929, Note_on_c, 15, 69, 0
1, 2942, Note_on_c, 14, 57, 0
1, 2946, Note_on_c, 15, 57, 0
1, 2952, Note_on_c, 9, 42, 79
1, 2952, Note_on_c, 15, 64, 80
1, 2956, Note_on_c, 9, 42, 0
1, 2975, Note_on_c, 1, 42, 91
1, 2975, Note_on_c, 9, 36, 102
1, 2975, Note_on_c, 9, 84, 23
1, 2975, Note_on_c, 10, 42, 60
1, 2975, Note_on_c, 11, 42, 64
1, 2976, Note_on_c, 15, 61, 72
1, 2976, Note_on_c, 15, 57, 74
1, 2977, Note_on_c, 15, 64, 0
1, 2979, Note_on_c, 9, 36, 0
1, 2979, Note_on_c, 9, 84, 0
1, 2995, Note_on_c, 15, 57, 0
1, 3000, Note_on_c, 15, 57, 74
1, 3001, Note_on_c, 15, 61, 0
1, 3013, Note_on_c, 10, 42, 0
1, 3013, Note_on_c, 1, 42, 0
1, 3013, Note_on_c, 11, 42, 0
1, 3022, Note_on_c, 15, 57, 0
1, 3023, Note_on_c, 14, 56, 76
1, 3024, Note_on_c, 9, 42, 78
1, 3024, Note_on_c, 15, 61, 74
1, 3024, Note_on_c, 15, 57, 78
1, 3028, Note_on_c, 9, 42, 0
1, 3029, Note_on_c, 8, 57, 0
1, 3039, Note_on_c, 14, 56, 0
1, 3040, Note_on_c, 15, 54, 0
1, 3041, Note_on_c, 15, 57, 0
1, 3048, Note_on_c, 8, 54, 95
1, 3048, Note_on_c, 15, 54, 80
1, 3049, Note_on_c, 15, 61, 0
1, 3069, Note_on_c, 8, 54, 0
1, 3072, Tempo, 645161
1, 3072, Note_on_c, 15, 54, 0
1, 3072, Pitch_bend_c, 7, 8192
1, 3072, Control_c, 7, 1, 0
1, 3072, Note_on_c, 7, 42, 85
1, 3072, Note_on_c, 8, 54, 99
1, 3072, Note_on_c, 15, 66, 74
1, 3072, Lyric_t, ". "
1, 3095, Note_on_c, 15, 57, 73
1, 3114, Note_on_c, 15, 57, 0
1, 3119, Note_on_c, 14, 54, 80
1, 3119, Note_on_c, 15, 61, 72
1, 3132, Note_on_c, 14, 54, 0
1, 3143, Note_on_c, 15, 57, 79
1, 3144, Note_on_c, 7, 42, 0
1, 3144, Note_on_c, 7, 42, 72
1, 3144, Note_on_c, 9, 42, 82
1, 3148, Note_on_c, 9, 42, 0
1, 3163, Note_on_c, 15, 57, 0
1, 3164, Note_on_c, 15, 61, 0
1, 3167, Note_on_c, 7, 42, 0
1, 3167, Note_on_c, 9, 42, 75
1, 3167, Note_on_c, 9, 69, 92
1, 3167, Note_on_c, 15, 57, 76
1, 3167, Note_on_c, 15, 64, 78
1, 3168, Note_on_c, 1, 42, 94
1, 3168, Note_on_c, 9, 36, 103
1, 3168, Note_on_c, 11, 42, 65
1, 3169, Note_on_c, 10, 42, 53
1, 3171, Note_on_c, 9, 69, 0
1, 3171, Note_on_c, 9, 42, 0
1, 3172, Note_on_c, 9, 36, 0
1, 3181, Note_on_c, 15, 57, 0
1, 3186, Note_on_c, 15, 64, 0
1, 3186, Note_on_c, 15, 66, 0
1, 3192, Note_on_c, 15, 68, 80
1, 3205, Note_on_c, 8, 54, 0
1, 3211, Note_on_c, 11, 42, 0
1, 3211, Note_on_c, 10, 42, 0
1, 3211, Note_on_c, 1, 42, 0
1, 3213, Note_on_c, 15, 68, 0
1, 3215, Note_on_c, 8, 57, 103
1, 3215, Note_on_c, 9, 69, 101
1, 3215, Note_on_c, 9, 42, 76
1, 3215, Note_on_c, 14, 56, 79
1, 3216, Note_on_c, 7, 42, 70
1, 3216, Note_on_c, 15, 57, 79
1, 3219, Note_on_c, 9, 42, 0
1, 3219, Note_on_c, 9, 69, 0
1, 3231, Note_on_c, 14, 56, 0
1, 3232, Note_on_c, 15, 57, 0
1, 3235, Note_on_c, 8, 57, 0
1, 3237, Note_on_c, 7, 42, 0
1, 3239, Note_on_c, 15, 69, 81
1, 3258, Note_on_c, 15, 69, 0
1, 3263, Note_on_c, 8, 57, 102
1, 3263, Note_on_c, 9, 42, 76
1, 3264, Note_on_c, 15, 57, 79
1, 3267, Note_on_c, 9, 42, 0
1, 3283, Note_on_c, 15, 57, 0
1, 3283, Note_on_c, 8, 57, 0
1, 3288, Note_on_c, 9, 42, 55
1, 3288, Note_on_c, 15, 64, 80
1, 3292, Note_on_c, 9, 42, 0
1, 3306, Note_on_c, 15, 64, 0
1, 3311, Note_on_c, 8, 57, 98
1, 3311, Note_on_c, 9, 69, 94
1, 3311, Note_on_c, 14, 57, 85
1, 3311, Note_on_c, 15, 57, 75
1, 3312, Note_on_c, 7, 42, 69
1, 3315, Note_on_c, 9, 69, 0
1, 3327, Note_on_c, 7, 42, 0
1, 3327, Note_on_c, 14, 57, 0
1, 3329, Note_on_c, 15, 57, 0
1, 3330, Note_on_c, 8, 57, 0
1, 3336, Note_on_c, 15, 61, 73
1, 3341, Note_on_c, 9, 39, 81
1, 3345, Note_on_c, 9, 39, 0
1, 3356, Note_on_c, 15, 61, 0
1, 3359, Note_on_c, 8, 54, 102
1, 3359, Note_on_c, 15, 54, 80
1, 3360, Note_on_c, 1, 45, 85
1, 3360, Note_on_c, 9, 36, 103
1, 3360, Note_on_c, 11, 45, 61
1, 3361, Note_on_c, 10, 45, 59
1, 3364, Note_on_c, 9, 36, 0
1, 3383, Note_on_c, 15, 61, 72
1, 3406, Note_on_c, 15, 61, 0
1, 3406, Note_on_c, 15, 64, 72
1, 3407, Note_on_c, 15, 54, 0
1, 3407, Note_on_c, 14, 56, 82
1, 3409, Note_on_c, 9, 42, 75
1, 3413, Note_on_c, 9, 42, 0
1, 3420, Note_on_c, 14, 56, 0
1, 3421, Note_on_c, 1, 45, 0
1, 3421, Note_on_c, 11, 45, 0
1, 3422, Note_on_c, 10, 45, 0
1, 3431, Note_on_c, 15, 64, 0
1, 3431, Note_on_c, 15, 68, 74
1, 3436, Note_on_c, 9, 39, 80
1, 3440, Note_on_c, 9, 39, 0
1, 3444, Note_on_c, 8, 54, 0
1, 3448, Note_on_c, 15, 68, 0
1, 3456, Note_on_c, 9, 42, 81
1, 3456, Note_on_c, 9, 84, 20
1, 3456, Note_on_c, 15, 49, 76
1, 3456, Lyric_t, ". "
1, 3460, Note_on_c, 9, 84, 0
1, 3460, Note_on_c, 9, 42, 0
1, 3479, Note_on_c, 15, 56, 80
1, 3480, Note_on_c, 8, 56, 98
1, 3494, Note_on_c, 8, 56, 0
1, 3500, Note_on_c, 15, 56, 0
1, 3503, Note_on_c, 14, 49, 84
1, 3503, Note_on_c, 15, 59, 73
1, 3504, Note_on_c, 9, 42, 84
1, 3508, Note_on_c, 9, 42, 0
1, 3519, Note_on_c, 14, 49, 0
1, 3527, Note_on_c, 15, 56, 81
1, 3528, Note_on_c, 8, 56, 95
1, 3531, Note_on_c, 15, 59, 0
1, 3545, Note_on_c, 8, 56, 0
1, 3548, Note_on_c, 15, 56, 0
1, 3551, Note_on_c, 15, 63, 73
1, 3552, Note_on_c, 1, 37, 85
1, 3552, Note_on_c, 9, 36, 96
1, 3552, Note_on_c, 9, 69, 95
1, 3552, Note_on_c, 9, 84, 14
1, 3552, Note_on_c, 11, 37, 67
1, 3556, Note_on_c, 9, 84, 0
1, 3556, Note_on_c, 9, 36, 0
1, 3556, Note_on_c, 9, 69, 0
1, 3557, Note_on_c, 10, 37, 53
1, 3573, Note_on_c, 15, 63, 0
1, 3575, Note_on_c, 8, 56, 97
1, 3575, Note_on_c, 15, 56, 75
1, 3576, Note_on_c, 9, 42, 81
1, 3576, Note_on_c, 9, 69, 97
1, 3580, Note_on_c, 9, 69, 0
1, 3580, Note_on_c, 9, 42, 0
1, 3589, Note_on_c, 1, 37, 0
1, 3589, Note_on_c, 11, 37, 0
1, 3593, Note_on_c, 8, 56, 0
1, 3594, Note_on_c, 10, 37, 0
1, 3596, Note_on_c, 15, 56, 0
1, 3599, Note_on_c, 14, 51, 83
1, 3599, Note_on_c, 15, 59, 80
1, 3600, Note_on_c, 9, 69, 92
1, 3604, Note_on_c, 9, 69, 0
1, 3621, Note_on_c, 14, 51, 0
1, 3623, Note_on_c, 15, 59, 0
1, 3623, Note_on_c, 8, 56, 101
1, 3623, Note_on_c, 15, 56, 76
1, 3624, Note_on_c, 9, 69, 101
1, 3628, Note_on_c, 9, 69, 0
1, 3642, Note_on_c, 8, 56, 0
1, 3647, Note_on_c, 9, 84, 16
1, 3647, Note_on_c, 15, 63, 76
1, 3648, Note_on_c, 15, 56, 0
1, 3648, Note_on_c, 9, 42, 84
1, 3648, Note_on_c, 9, 69, 93
1, 3651, Note_on_c, 9, 84, 0
1, 3652, Note_on_c, 9, 42, 0
1, 3652, Note_on_c, 9, 69, 0
1, 3666, Note_on_c, 15, 63, 0
1, 3671, Note_on_c, 8, 56, 97
1, 3671, Note_on_c, 15, 56, 76
1, 3672, Note_on_c, 9, 42, 57
1, 3676, Note_on_c, 9, 42, 0
1, 3685, Note_on_c, 15, 56, 0
1, 3690, Note_on_c, 8, 56, 0
1, 3695, Note_on_c, 14, 52, 81
1, 3695, Note_on_c, 15, 56, 78
1, 3695, Note_on_c, 15, 61, 79
1, 3706, Note_on_c, 15, 61, 0
1, 3709, Note_on_c, 15, 56, 0
1, 3716, Note_on_c, 14, 52, 0
1, 3719, Note_on_c, 15, 56, 75
1, 3719, Note_on_c, 15, 64, 77
1, 3720, Note_on_c, 8, 56, 103
1, 3720, Note_on_c, 9, 42, 76
1, 3724, Note_on_c, 9, 42, 0
1, 3733, Note_on_c, 8, 56, 0
1, 3735, Note_on_c, 15, 64, 0
1, 3744, Note_on_c, 1, 37, 88
1, 3744, Note_on_c, 8, 56, 101
1, 3744, Note_on_c, 9, 36, 95
1, 3744, Note_on_c, 9, 84, 18
1, 3744, Note_on_c, 11, 37, 66
1, 3746, Note_on_c, 10, 37, 59
1, 3747, Note_on_c, 15, 49, 0
1, 3748, Note_on_c, 9, 36, 0
1, 3748, Note_on_c, 9, 84, 0
1, 3759, Note_on_c, 15, 56, 0
1, 3767, Note_on_c, 15, 66, 81
1, 3770, Note_on_c, 8, 56, 0
1, 3783, Note_on_c, 1, 37, 0
1, 3783, Note_on_c, 11, 37, 0
1, 3785, Note_on_c, 10, 37, 0
1, 3791, Note_on_c, 8, 56, 100
1, 3791, Note_on_c, 14, 51, 83
1, 3791, Note_on_c, 15, 56, 81
1, 3792, Note_on_c, 9, 42, 75
1, 3793, Note_on_c, 15, 66, 0
1, 3796, Note_on_c, 9, 42, 0
1, 3810, Note_on_c, 14, 51, 0
1, 3814, Note_on_c, 8, 56, 0
1, 3816, Note_on_c, 15, 56, 0
1, 3840, Tempo, 645161
1, 3840, Note_on_c, 7, 37, 91
1, 3840, Pitch_bend_c, 13, 8192
1, 3840, Control_c, 13, 1, 0
1, 3840, Note_on_c, 13, 80, 82
1, 3840, Note_on_c, 13, 68, 81
1, 3840, Note_on_c, 15, 59, 72
1, 3840, Lyric_t, ". "
1, 3863, Note_on_c, 15, 64, 72
1, 3864, Note_on_c, 8, 64, 96
1, 3873, Note_on_c, 15, 59, 0
1, 3881, Note_on_c, 8, 64, 0
1, 3887, Note_on_c, 14, 49, 79
1, 3888, Note_on_c, 15, 64, 0
1, 3888, Note_on_c, 15, 59, 78
1, 3905, Note_on_c, 14, 49, 0
1, 3906, Note_on_c, 7, 37, 0
1, 3911, Note_on_c, 15, 61, 81
1, 3912, Note_on_c, 7, 37, 73
1, 3912, Note_on_c, 8, 63, 98
1, 3912, Note_on_c, 9, 42, 80
1, 3916, Note_on_c, 9, 42, 0
1, 3922, Note_on_c, 15, 59, 0
1, 3929, Note_on_c, 8, 63, 0
1, 3930, Note_on_c, 15, 61, 0
1, 3935, Note_on_c, 9, 42, 77
1, 3935, Note_on_c, 9, 69, 92
1, 3935, Note_on_c, 13, 85, 84
1, 3935, Note_on_c, 13, 73, 84
1, 3936, Note_on_c, 13, 80, 0
1, 3936, Note_on_c, 13, 68, 0
1, 3936, Note_on_c, 1, 37, 94
1, 3936, Note_on_c, 9, 36, 96
1, 3936, Note_on_c, 11, 37, 62
1, 3936, Note_on_c, 15, 64, 77
1, 3938, Note_on_c, 10, 37, 57
1, 3939, Note_on_c, 9, 69, 0
1, 3939, Note_on_c, 9, 42, 0
1, 3940, Note_on_c, 9, 36, 0
1, 3942, Note_on_c, 7, 37, 0
1, 3959, Note_on_c, 15, 68, 73
1, 3960, Note_on_c, 8, 63, 102
1, 3970, Note_on_c, 15, 64, 0
1, 3977, Note_on_c, 8, 63, 0
1, 3983, Note_on_c, 9, 69, 98
1, 3983, Note_on_c, 9, 42, 79
1, 3983, Note_on_c, 13, 87, 83
1, 3983, Note_on_c, 13, 75, 77
1, 3983, Note_on_c, 14, 51, 84
1, 3983, Note_on_c, 15, 63, 77
1, 3984, Note_on_c, 13, 85, 0
1, 3984, Note_on_c, 13, 73, 0
1, 3985, Note_on_c, 11, 37, 0
1, 3985, Note_on_c, 1, 37, 0
1, 3987, Note_on_c, 9, 42, 0
1, 3987, Note_on_c, 10, 37, 0
1, 3987, Note_on_c, 9, 69, 0
1, 4005, Note_on_c, 14, 51, 0
1, 4007, Note_on_c, 15, 64, 77
1, 4008, Note_on_c, 8, 64, 96
1, 4023, Note_on_c, 8, 64, 0
1, 4023, Note_on_c, 15, 63, 0
1, 4028, Note_on_c, 15, 68, 0
1, 4029, Note_on_c, 15, 64, 0
1, 4031, Note_on_c, 9, 42, 79
1, 4031, Note_on_c, 13, 88, 85
1, 4031, Note_on_c, 13, 76, 81
1, 4031, Note_on_c, 15, 71, 78
1, 4032, Note_on_c, 1, 37, 94
1, 4032, Note_on_c, 9, 36, 104
1, 4032, Note_on_c, 11, 37, 67
1, 4033, Note_on_c, 13, 87, 0
1, 4033, Note_on_c, 13, 75, 0
1, 4033, Note_on_c, 10, 37, 59
1, 4035, Note_on_c, 9, 42, 0
1, 4036, Note_on_c, 9, 36, 0
1, 4055, Note_on_c, 8, 64, 100
1, 4055, Note_on_c, 9, 38, 52
1, 4055, Note_on_c, 15, 64, 73
1, 4056, Note_on_c, 9, 42, 61
1, 4059, Note_on_c, 9, 38, 0
1, 4060, Note_on_c, 9, 42, 0
1, 4075, Note_on_c, 8, 64, 0
1, 4079, Note_on_c, 9, 69, 96
1, 4079, Note_on_c, 14, 52, 85
1, 4079, Note_on_c, 15, 68, 79
1, 4080, Note_on_c, 7, 37, 68
1, 4080, Note_on_c, 9, 38, 55
1, 4080, Note_on_c, 9, 39, 74
1, 4080, Note_on_c, 13, 87, 81
1, 4080, Note_on_c, 13, 75, 80
1, 4081, Note_on_c, 13, 76, 0
1, 4081, Note_on_c, 13, 88, 0
1, 4082, Note_on_c, 15, 64, 0
1, 4082, Note_on_c, 15, 71, 0
1, 4083, Note_on_c, 9, 69, 0
1, 4084, Note_on_c, 9, 38, 0
1, 4084, Note_on_c, 9, 39, 0
1, 4091, Note_on_c, 11, 37, 0
1, 4091, Note_on_c, 10, 37, 0
1, 4091, Note_on_c, 1, 37, 0
1, 4097, Note_on_c, 7, 37, 0
1, 4102, Note_on_c, 14, 52, 0
1, 4103, Note_on_c, 15, 75, 80
1, 4104, Note_on_c, 9, 38, 52
1, 4104, Note_on_c, 15, 71, 80
1, 4105, Note_on_c, 15, 68, 0
1, 4108, Note_on_c, 9, 38, 0
1, 4124, Note_on_c, 15, 71, 0
1, 4127, Note_on_c, 15, 71, 76
1, 4128, Note_on_c, 1, 40, 94
1, 4128, Note_on_c, 9, 36, 98
1, 4128, Note_on_c, 9, 38, 56
1, 4128, Note_on_c, 11, 40, 67
1, 4128, Note_on_c, 13, 85, 76
1, 4128, Note_on_c, 13, 73, 77
1, 4129, Note_on_c, 13, 75, 0
1, 4129, Note_on_c, 13, 87, 0
1, 4132, Note_on_c, 9, 36, 0
1, 4132, Note_on_c, 9, 38, 0
1, 4132, Note_on_c, 10, 40, 58
1, 4152, Note_on_c, 7, 37, 70
1, 4152, Note_on_c, 15, 80, 78
1, 4160, Note_on_c, 9, 39, 79
1, 4164, Note_on_c, 9, 39, 0
1, 4169, Note_on_c, 7, 37, 0
1, 4169, Note_on_c, 15, 71, 0
1, 4172, Note_on_c, 15, 75, 0
1, 4174, Note_on_c, 1, 40, 0
1, 4174, Note_on_c, 11, 40, 0
1, 4175, Note_on_c, 14, 51, 79
1, 4176, Note_on_c, 1, 44, 92
1, 4176, Note_on_c, 9, 36, 102
1, 4176, Note_on_c, 10, 44, 61
1, 4176, Note_on_c, 11, 44, 64
1, 4176, Note_on_c, 13, 80, 83
1, 4176, Note_on_c, 13, 68, 83
1, 4176, Note_on_c, 15, 61, 72
1, 4176, Note_on_c, 15, 71, 80
1, 4177, Note_on_c, 13, 85, 0
1, 4177, Note_on_c, 13, 73, 0
1, 4177, Note_on_c, 9, 42, 77
1, 4178, Note_on_c, 10, 40, 0
1, 4180, Note_on_c, 9, 36, 0
1, 4181, Note_on_c, 9, 42, 0
1, 4183, Note_on_c, 15, 80, 0
1, 4195, Note_on_c, 14, 51, 0
1, 4200, Note_on_c, 15, 83, 74
1, 4200, Note_on_c, 15, 56, 72
1, 4202, Note_on_c, 15, 61, 0
1, 4212, Note_on_c, 15, 71, 0
1, 4214, Note_on_c, 11, 44, 0
1, 4214, Note_on_c, 1, 44, 0
1, 4214, Note_on_c, 10, 44, 0
1, 4221, Note_on_c, 15, 56, 0
1, 4224, Note_on_c, 1, 42, 85
1, 4224, Note_on_c, 8, 54, 99
1, 4224, Note_on_c, 9, 36, 97
1, 4224, Note_on_c, 9, 49, 35
1, 4224, Note_on_c, 9, 81, 30
1, 4224, Note_on_c, 9, 42, 84
1, 4224, Note_on_c, 9, 84, 15
1, 4224, Note_on_c, 10, 42, 58
1, 4224, Note_on_c, 11, 42, 68
1, 4224, Note_on_c, 13, 81, 82
1, 4224, Note_on_c, 13, 69, 81
1, 4224, Note_on_c, 15, 54, 81
1, 4224, Lyric_t, ". "
1, 4224, Lyric_t, "\015"
1, 4224, Lyric_t, "\012"
1, 4226, Note_on_c, 13, 80, 0
1, 4226, Note_on_c, 13, 68, 0
1, 4227, Note_on_c, 15, 83, 0
1, 4228, Note_on_c, 9, 42, 0
1, 4228, Note_on_c, 9, 81, 0
1, 4228, Note_on_c, 9, 84, 0
1, 4228, Note_on_c, 9, 36, 0
1, 4228, Note_on_c, 9, 49, 0
1, 4248, Note_on_c, 15, 57, 72
1, 4262, Note_on_c, 1, 42, 0
1, 4262, Note_on_c, 10, 42, 0
1, 4262, Note_on_c, 11, 42, 0
1, 4269, Note_on_c, 15, 57, 0
1, 4271, Note_on_c, 9, 81, 24
1, 4272, Note_on_c, 9, 42, 75
1, 4272, Note_on_c, 15, 61, 74
1, 4275, Note_on_c, 9, 81, 0
1, 4276, Note_on_c, 9, 42, 0
1, 4296, Note_on_c, 15, 64, 78
1, 4300, Note_on_c, 15, 61, 0
1, 4319, Pitch_bend_c, 6, 8192
1, 4319, Control_c, 6, 1, 0
1, 4319, Note_on_c, 6, 49, 76
1, 4319, Note_on_c, 9, 81, 27
1, 4320, Tempo, 645161
1, 4320, Note_on_c, 15, 64, 0
1, 4320, Note_on_c, 1, 42, 85
1, 4320, Note_on_c, 9, 36, 98
1, 4320, Note_on_c, 9, 37, 72
1, 4320, Note_on_c, 9, 40, 97
1, 4320, Note_on_c, 9, 69, 93
1, 4320, Note_on_c, 9, 84, 16
1, 4320, Note_on_c, 10, 42, 54
1, 4320, Note_on_c, 11, 42, 63
1, 4320, Note_on_c, 15, 68, 80
1, 4321, Note_on_c, 9, 39, 53
1, 4323, Note_on_c, 9, 81, 0
1, 4324, Note_on_c, 9, 69, 0
1, 4324, Note_on_c, 9, 36, 0
1, 4324, Note_on_c, 9, 40, 0
1, 4324, Note_on_c, 9, 37, 0
1, 4324, Note_on_c, 9, 84, 0
1, 4325, Note_on_c, 9, 39, 0
1, 4343, Note_on_c, 6, 49, 0
1, 4343, Note_on_c, 9, 81, 23
1, 4344, Note_on_c, 9, 42, 83
1, 4344, Note_on_c, 9, 69, 94
1, 4344, Note_on_c, 15, 64, 77
1, 4347, Note_on_c, 9, 81, 0
1, 4347, Note_on_c, 15, 68, 0
1, 4348, Note_on_c, 9, 69, 0
1, 4348, Note_on_c, 9, 42, 0
1, 4352, Note_on_c, 11, 42, 0
1, 4352, Note_on_c, 10, 42, 0
1, 4352, Note_on_c, 1, 42, 0
1, 4355, Note_on_c, 8, 54, 0
1, 4367, Pitch_bend_c, 0, 8192
1, 4367, Control_c, 0, 1, 0
1, 4367, Note_on_c, 0, 59, 48
1, 4367, Note_on_c, 9, 81, 29
1, 4367, Lyric_t, "You "
1, 4368, Pitch_bend_c, 5, 8192
1, 4368, Control_c, 5, 1, 0
1, 4368, Note_on_c, 5, 90, 97
1, 4368, Note_on_c, 6, 47, 73
1, 4368, Note_on_c, 8, 57, 103
1, 4368, Note_on_c, 9, 39, 23
1, 4368, Note_on_c, 9, 69, 96
1, 4369, Pitch_bend_c, 12, 8192
1, 4369, Control_c, 12, 1, 0
1, 4369, Note_on_c, 12, 59, 72
1, 4369, Note_on_c, 15, 57, 78
1, 4370, Note_on_c, 15, 64, 0
1, 4371, Note_on_c, 9, 81, 0
1, 4372, Note_on_c, 9, 69, 0
1, 4372, Note_on_c, 9, 39, 0
1, 4385, Note_on_c, 5, 90, 0
1, 4387, Note_on_c, 15, 57, 0
1, 4391, Note_on_c, 15, 61, 72
1, 4392, Note_on_c, 6, 47, 0
1, 4392, Note_on_c, 9, 69, 97
1, 4396, Note_on_c, 9, 69, 0
1, 4398, Note_on_c, 8, 57, 0
1, 4399, Note_on_c, 5, 92, 93
1, 4402, Note_on_c, 15, 54, 0
1, 4407, Note_on_c, 15, 61, 0
1, 4412, Note_on_c, 0, 59, 0
1, 4414, Note_on_c, 12, 59, 0
1, 4415, Note_on_c, 0, 64, 51
1, 4415, Note_on_c, 9, 84, 19
1, 4415, Lyric_t, "need "
1, 4416, Note_on_c, 1, 42, 93
1, 4416, Note_on_c, 5, 93, 91
1, 4416, Note_on_c, 6, 49, 78
1, 4416, Note_on_c, 8, 54, 96
1, 4416, Note_on_c, 9, 36, 99
1, 4416, Note_on_c, 9, 42, 84
1, 4416, Note_on_c, 9, 69, 98
1, 4416, Note_on_c, 9, 81, 27
1, 4416, Note_on_c, 10, 42, 58
1, 4416, Note_on_c, 11, 42, 66
1, 4416, Note_on_c, 12, 64, 73
1, 4416, Note_on_c, 15, 54, 75
1, 4419, Note_on_c, 9, 84, 0
1, 4420, Note_on_c, 9, 42, 0
1, 4420, Note_on_c, 9, 36, 0
1, 4420, Note_on_c, 5, 92, 0
1, 4420, Note_on_c, 9, 81, 0
1, 4420, Note_on_c, 9, 69, 0
1, 4435, Note_on_c, 5, 93, 0
1, 4440, Note_on_c, 9, 42, 60
1, 4440, Note_on_c, 9, 81, 23
1, 4440, Note_on_c, 15, 69, 78
1, 4444, Note_on_c, 9, 81, 0
1, 4444, Note_on_c, 8, 54, 0
1, 4444, Note_on_c, 9, 42, 0
1, 4446, Note_on_c, 6, 49, 0
1, 4446, Note_on_c, 10, 42, 0
1, 4446, Note_on_c, 1, 42, 0
1, 4446, Note_on_c, 11, 42, 0
1, 4459, Note_on_c, 12, 64, 0
1, 4464, Note_on_c, 0, 64, 0
1, 4464, Note_on_c, 0, 63, 54
1, 4464, Note_on_c, 5, 90, 86
1, 4464, Note_on_c, 8, 57, 101
1, 4464, Note_on_c, 9, 81, 26
1, 4464, Note_on_c, 12, 63, 70
1, 4464, Note_on_c, 15, 57, 81
1, 4464, Lyric_t, "to "
1, 4465, Note_on_c, 15, 69, 0
1, 4468, Note_on_c, 9, 81, 0
1, 4482, Note_on_c, 15, 57, 0
1, 4483, Note_on_c, 5, 90, 0
1, 4488, Note_on_c, 9, 42, 80
1, 4488, Note_on_c, 9, 81, 22
1, 4488, Note_on_c, 15, 64, 73
1, 4492, Note_on_c, 9, 81, 0
1, 4492, Note_on_c, 9, 42, 0
1, 4495, Note_on_c, 5, 92, 83
1, 4509, Note_on_c, 12, 63, 0
1, 4511, Note_on_c, 0, 63, 0
1, 4511, Note_on_c, 9, 84, 17
1, 4512, Note_on_c, 0, 61, 51
1, 4512, Note_on_c, 1, 42, 90
1, 4512, Note_on_c, 5, 93, 81
1, 4512, Note_on_c, 9, 36, 99
1, 4512, Note_on_c, 9, 37, 78
1, 4512, Note_on_c, 9, 40, 103
1, 4512, Note_on_c, 9, 39, 58
1, 4512, Note_on_c, 10, 42, 59
1, 4512, Note_on_c, 11, 42, 68
1, 4512, Note_on_c, 15, 61, 76
1, 4512, Note_on_c, 15, 57, 74
1, 4512, Lyric_t, "give "
1, 4513, Note_on_c, 15, 64, 0
1, 4513, Note_on_c, 12, 64, 68
1, 4515, Note_on_c, 9, 84, 0
1, 4516, Note_on_c, 9, 36, 0
1, 4516, Note_on_c, 5, 92, 0
1, 4516, Note_on_c, 9, 40, 0
1, 4516, Note_on_c, 9, 37, 0
1, 4516, Note_on_c, 9, 39, 0
1, 4531, Note_on_c, 15, 57, 0
1, 4531, Note_on_c, 5, 93, 0
1, 4536, Note_on_c, 15, 57, 74
1, 4537, Note_on_c, 15, 61, 0
1, 4546, Note_on_c, 11, 42, 0
1, 4546, Note_on_c, 1, 42, 0
1, 4546, Note_on_c, 10, 42, 0
1, 4556, Note_on_c, 12, 64, 0
1, 4558, Note_on_c, 15, 57, 0
1, 4559, Note_on_c, 9, 39, 27
1, 4560, Note_on_c, 0, 59, 56
1, 4560, Note_on_c, 5, 90, 75
1, 4560, Note_on_c, 9, 42, 79
1, 4560, Note_on_c, 9, 81, 28
1, 4560, Note_on_c, 15, 61, 75
1, 4560, Note_on_c, 15, 57, 74
1, 4560, Lyric_t, "it "
1, 4561, Note_on_c, 12, 64, 67
1, 4563, Note_on_c, 9, 39, 0
1, 4563, Note_on_c, 0, 61, 0
1, 4564, Note_on_c, 9, 81, 0
1, 4564, Note_on_c, 9, 42, 0
1, 4565, Note_on_c, 8, 57, 0
1, 4576, Note_on_c, 15, 54, 0
1, 4577, Note_on_c, 15, 57, 0
1, 4579, Note_on_c, 5, 90, 0
1, 4584, Note_on_c, 8, 54, 103
1, 4584, Note_on_c, 15, 54, 76
1, 4585, Note_on_c, 15, 61, 0
1, 4591, Note_on_c, 5, 92, 72
1, 4605, Note_on_c, 8, 54, 0
1, 4606, Note_on_c, 12, 64, 0
1, 4607, Note_on_c, 0, 61, 55
1, 4607, Lyric_t, "up, "
1, 4607, Lyric_t, "\015"
1, 4608, Note_on_c, 15, 54, 0
1, 4608, Note_on_c, 1, 42, 91
1, 4608, Note_on_c, 5, 93, 70
1, 4608, Note_on_c, 7, 42, 84
1, 4608, Note_on_c, 8, 54, 95
1, 4608, Note_on_c, 9, 36, 98
1, 4608, Note_on_c, 9, 81, 31
1, 4608, Note_on_c, 10, 42, 57
1, 4608, Note_on_c, 11, 42, 64
1, 4608, Note_on_c, 15, 66, 72
1, 4609, Note_on_c, 12, 66, 70
1, 4612, Note_on_c, 9, 81, 0
1, 4612, Note_on_c, 9, 36, 0
1, 4613, Note_on_c, 0, 59, 0
1, 4616, Note_on_c, 5, 92, 0
1, 4631, Note_on_c, 15, 57, 80
1, 4637, Note_on_c, 5, 93, 0
1, 4646, Note_on_c, 1, 42, 0
1, 4646, Note_on_c, 11, 42, 0
1, 4646, Note_on_c, 10, 42, 0
1, 4650, Note_on_c, 15, 57, 0
1, 4655, Note_on_c, 9, 81, 30
1, 4655, Note_on_c, 15, 61, 79
1, 4659, Note_on_c, 9, 81, 0
1, 4679, Note_on_c, 7, 42, 0
1, 4679, Note_on_c, 15, 57, 76
1, 4680, Note_on_c, 7, 42, 67
1, 4680, Note_on_c, 9, 42, 81
1, 4684, Note_on_c, 9, 42, 0
1, 4695, Note_on_c, 13, 69, 0
1, 4695, Note_on_c, 13, 81, 0
1, 4699, Note_on_c, 15, 57, 0
1, 4700, Note_on_c, 15, 61, 0
1, 4703, Note_on_c, 7, 42, 0
1, 4703, Note_on_c, 6, 49, 81
1, 4703, Note_on_c, 9, 42, 83
1, 4703, Note_on_c, 9, 69, 95
1, 4703, Note_on_c, 9, 81, 28
1, 4703, Note_on_c, 13, 83, 77
1, 4703, Note_on_c, 13, 71, 85
1, 4703, Note_on_c, 15, 57, 76
1, 4703, Note_on_c, 15, 64, 76
1, 4704, Note_on_c, 1, 42, 92
1, 4704, Note_on_c, 9, 36, 95
1, 4704, Note_on_c, 9, 37, 72
1, 4704, Note_on_c, 9, 40, 99
1, 4704, Note_on_c, 10, 42, 55
1, 4704, Note_on_c, 11, 42, 59
1, 4705, Note_on_c, 9, 39, 49
1, 4707, Note_on_c, 9, 81, 0
1, 4707, Note_on_c, 9, 69, 0
1, 4707, Note_on_c, 9, 42, 0
1, 4708, Note_on_c, 9, 40, 0
1, 4708, Note_on_c, 9, 37, 0
1, 4708, Note_on_c, 9, 36, 0
1, 4709, Note_on_c, 9, 39, 0
1, 4717, Note_on_c, 15, 57, 0
1, 4722, Note_on_c, 15, 64, 0
1, 4722, Note_on_c, 15, 66, 0
1, 4727, Note_on_c, 9, 81, 30
1, 4728, Note_on_c, 6, 49, 0
1, 4728, Note_on_c, 15, 68, 74
1, 4731, Note_on_c, 9, 81, 0
1, 4736, Note_on_c, 11, 42, 0
1, 4736, Note_on_c, 10, 42, 0
1, 4736, Note_on_c, 1, 42, 0
1, 4741, Note_on_c, 8, 54, 0
1, 4743, Note_on_c, 12, 66, 0
1, 4749, Note_on_c, 15, 68, 0
1, 4751, Note_on_c, 8, 57, 95
1, 4751, Note_on_c, 9, 69, 96
1, 4751, Note_on_c, 9, 81, 27
1, 4751, Note_on_c, 9, 42, 82
1, 4751, Note_on_c, 13, 85, 80
1, 4751, Note_on_c, 13, 73, 82
1, 4752, Note_on_c, 6, 47, 79
1, 4752, Note_on_c, 7, 42, 74
1, 4752, Note_on_c, 9, 39, 21
1, 4752, Note_on_c, 15, 57, 73
1, 4754, Note_on_c, 13, 71, 0
1, 4754, Note_on_c, 13, 83, 0
1, 4755, Note_on_c, 9, 69, 0
1, 4755, Note_on_c, 9, 81, 0
1, 4755, Note_on_c, 9, 42, 0
1, 4756, Note_on_c, 9, 39, 0
1, 4767, Note_on_c, 0, 61, 0
1, 4768, Note_on_c, 15, 57, 0
1, 4771, Note_on_c, 8, 57, 0
1, 4773, Note_on_c, 7, 42, 0
1, 4774, Note_on_c, 6, 47, 0
1, 4775, Note_on_c, 15, 69, 80
1, 4784, Note_on_c, 9, 40, 77
1, 4788, Note_on_c, 9, 40, 0
1, 4794, Note_on_c, 15, 69, 0
1, 4798, Note_on_c, 13, 85, 0
1, 4798, Note_on_c, 13, 73, 0
1, 4799, Note_on_c, 0, 66, 53
1, 4799, Note_on_c, 8, 57, 96
1, 4799, Note_on_c, 9, 42, 81
1, 4799, Note_on_c, 13, 87, 77
1, 4799, Note_on_c, 13, 75, 78
1, 4799, Lyric_t, "Had "
1, 4800, Note_on_c, 1, 42, 91
1, 4800, Note_on_c, 6, 49, 76
1, 4800, Note_on_c, 9, 36, 95
1, 4800, Note_on_c, 9, 81, 29
1, 4800, Note_on_c, 10, 42, 55
1, 4800, Note_on_c, 11, 42, 68
1, 4800, Note_on_c, 15, 57, 78
1, 4801, Note_on_c, 12, 66, 71
1, 4803, Note_on_c, 9, 42, 0
1, 4804, Note_on_c, 9, 81, 0
1, 4804, Note_on_c, 9, 36, 0
1, 4819, Note_on_c, 15, 57, 0
1, 4819, Note_on_c, 8, 57, 0
1, 4824, Note_on_c, 9, 42, 56
1, 4824, Note_on_c, 9, 81, 30
1, 4824, Note_on_c, 15, 64, 79
1, 4828, Note_on_c, 9, 81, 0
1, 4828, Note_on_c, 9, 42, 0
1, 4829, Note_on_c, 6, 49, 0
1, 4830, Note_on_c, 1, 42, 0
1, 4830, Note_on_c, 11, 42, 0
1, 4830, Note_on_c, 10, 42, 0
1, 4842, Note_on_c, 15, 64, 0
1, 4847, Note_on_c, 13, 75, 0
1, 4847, Note_on_c, 13, 87, 0
1, 4847, Note_on_c, 8, 57, 97
1, 4847, Note_on_c, 9, 69, 98
1, 4847, Note_on_c, 13, 85, 81
1, 4847, Note_on_c, 13, 73, 82
1, 4847, Note_on_c, 15, 57, 79
1, 4848, Note_on_c, 0, 64, 50
1, 4848, Note_on_c, 7, 42, 69
1, 4848, Note_on_c, 9, 81, 22
1, 4848, Lyric_t, "a"
1, 4850, Note_on_c, 12, 64, 67
1, 4851, Note_on_c, 9, 69, 0
1, 4851, Note_on_c, 0, 66, 0
1, 4852, Note_on_c, 12, 66, 0
1, 4852, Note_on_c, 9, 81, 0
1, 4859, Note_on_c, 7, 42, 0
1, 4865, Note_on_c, 15, 57, 0
1, 4866, Note_on_c, 8, 57, 0
1, 4872, Note_on_c, 9, 81, 31
1, 4872, Note_on_c, 15, 61, 80
1, 4876, Note_on_c, 9, 81, 0
1, 4892, Note_on_c, 15, 61, 0
1, 4894, Note_on_c, 12, 64, 0
1, 4895, Note_on_c, 8, 54, 104
1, 4895, Note_on_c, 13, 83, 79
1, 4895, Note_on_c, 13, 71, 77
1, 4895, Note_on_c, 15, 54, 72
1, 4896, Note_on_c, 13, 85, 0
1, 4896, Note_on_c, 13, 73, 0
1, 4896, Note_on_c, 0, 63, 52
1, 4896, Note_on_c, 1, 44, 85
1, 4896, Note_on_c, 9, 36, 96
1, 4896, Note_on_c, 9, 37, 74
1, 4896, Note_on_c, 9, 40, 100
1, 4896, Note_on_c, 9, 39, 58
1, 4896, Note_on_c, 10, 44, 58
1, 4896, Note_on_c, 11, 44, 61
1, 4896, Lyric_t, "bout "
1, 4897, Note_on_c, 12, 63, 74
1, 4900, Note_on_c, 9, 39, 0
1, 4900, Note_on_c, 9, 40, 0
1, 4900, Note_on_c, 0, 64, 0
1, 4900, Note_on_c, 9, 37, 0
1, 4900, Note_on_c, 9, 36, 0
1, 4919, Note_on_c, 15, 61, 75
1, 4940, Note_on_c, 1, 44, 0
1, 4940, Note_on_c, 11, 44, 0
1, 4940, Note_on_c, 10, 44, 0
1, 4942, Note_on_c, 15, 61, 0
1, 4942, Note_on_c, 15, 64, 79
1, 4943, Note_on_c, 15, 54, 0
1, 4943, Note_on_c, 9, 39, 28
1, 4944, Note_on_c, 0, 61, 48
1, 4944, Note_on_c, 1, 39, 86
1, 4944, Note_on_c, 9, 36, 95
1, 4944, Note_on_c, 9, 81, 29
1, 4944, Note_on_c, 11, 39, 66
1, 4944, Note_on_c, 13, 78, 78
1, 4944, Note_on_c, 13, 66, 76
1, 4944, Lyric_t, "e"
1, 4945, Note_on_c, 13, 71, 0
1, 4945, Note_on_c, 13, 83, 0
1, 4945, Note_on_c, 9, 42, 82
1, 4946, Note_on_c, 0, 63, 0
1, 4946, Note_on_c, 10, 39, 59
1, 4946, Note_on_c, 12, 66, 66
1, 4947, Note_on_c, 9, 39, 0
1, 4948, Note_on_c, 9, 81, 0
1, 4948, Note_on_c, 9, 36, 0
1, 4949, Note_on_c, 9, 42, 0
1, 4950, Note_on_c, 12, 63, 0
1, 4967, Note_on_c, 15, 64, 0
1, 4967, Note_on_c, 15, 68, 75
1, 4980, Note_on_c, 8, 54, 0
1, 4984, Note_on_c, 15, 68, 0
1, 4986, Note_on_c, 1, 39, 0
1, 4986, Note_on_c, 11, 39, 0
1, 4988, Note_on_c, 10, 39, 0
1, 4990, Note_on_c, 13, 78, 0
1, 4990, Note_on_c, 13, 66, 0
1, 4991, Note_on_c, 13, 80, 82
1, 4991, Note_on_c, 13, 68, 84
1, 4992, Note_on_c, 0, 63, 54
1, 4992, Note_on_c, 1, 37, 93
1, 4992, Note_on_c, 9, 36, 101
1, 4992, Note_on_c, 9, 49, 27
1, 4992, Note_on_c, 9, 81, 22
1, 4992, Note_on_c, 9, 42, 76
1, 4992, Note_on_c, 9, 84, 14
1, 4992, Note_on_c, 10, 37, 53
1, 4992, Note_on_c, 11, 37, 64
1, 4992, Note_on_c, 15, 49, 73
1, 4992, Lyric_t, "nough, "
1, 4992, Lyric_t, "\015"
1, 4992, Lyric_t, "\012"
1, 4994, Note_on_c, 12, 66, 0
1, 4994, Note_on_c, 12, 68, 69
1, 4996, Note_on_c, 9, 84, 0
1, 4996, Note_on_c, 9, 49, 0
1, 4996, Note_on_c, 9, 42, 0
1, 4996, Note_on_c, 9, 81, 0
1, 4996, Note_on_c, 9, 36, 0
1, 4998, Note_on_c, 0, 61, 0
1, 5015, Note_on_c, 15, 56, 73
1, 5016, Note_on_c, 8, 56, 103
1, 5030, Note_on_c, 8, 56, 0
1, 5036, Note_on_c, 15, 56, 0
1, 5039, Note_on_c, 9, 81, 23
1, 5039, Note_on_c, 15, 59, 80
1, 5040, Note_on_c, 9, 42, 81
1, 5043, Note_on_c, 9, 81, 0
1, 5044, Note_on_c, 9, 42, 0
1, 5045, Note_on_c, 10, 37, 0
1, 5045, Note_on_c, 11, 37, 0
1, 5045, Note_on_c, 1, 37, 0
1, 5063, Note_on_c, 15, 56, 73
1, 5064, Note_on_c, 8, 56, 103
1, 5067, Note_on_c, 15, 59, 0
1, 5081, Note_on_c, 8, 56, 0
1, 5084, Note_on_c, 15, 56, 0
1, 5087, Note_on_c, 6, 49, 73
1, 5087, Note_on_c, 9, 81, 30
1, 5087, Note_on_c, 15, 63, 73
1, 5088, Note_on_c, 1, 37, 88
1, 5088, Note_on_c, 9, 36, 102
1, 5088, Note_on_c, 9, 37, 72
1, 5088, Note_on_c, 9, 40, 100
1, 5088, Note_on_c, 9, 69, 93
1, 5088, Note_on_c, 9, 84, 23
1, 5088, Note_on_c, 10, 37, 56
1, 5088, Note_on_c, 11, 37, 64
1, 5089, Note_on_c, 9, 39, 52
1, 5091, Note_on_c, 9, 81, 0
1, 5092, Note_on_c, 9, 37, 0
1, 5092, Note_on_c, 9, 36, 0
1, 5092, Note_on_c, 9, 84, 0
1, 5092, Note_on_c, 9, 40, 0
1, 5092, Note_on_c, 9, 69, 0
1, 5093, Note_on_c, 9, 39, 0
1, 5109, Note_on_c, 15, 63, 0
1, 5111, Note_on_c, 6, 49, 0
1, 5111, Note_on_c, 8, 56, 98
1, 5111, Note_on_c, 9, 81, 23
1, 5111, Note_on_c, 15, 56, 74
1, 5112, Note_on_c, 9, 42, 78
1, 5112, Note_on_c, 9, 69, 97
1, 5115, Note_on_c, 9, 81, 0
1, 5116, Note_on_c, 9, 69, 0
1, 5116, Note_on_c, 9, 42, 0
1, 5118, Note_on_c, 11, 37, 0
1, 5118, Note_on_c, 1, 37, 0
1, 5118, Note_on_c, 10, 37, 0
1, 5129, Note_on_c, 8, 56, 0
1, 5132, Note_on_c, 15, 56, 0
1, 5135, Note_on_c, 9, 81, 26
1, 5135, Note_on_c, 15, 59, 72
1, 5136, Note_on_c, 5, 88, 95
1, 5136, Note_on_c, 6, 47, 81
1, 5136, Note_on_c, 9, 39, 23
1, 5136, Note_on_c, 9, 69, 100
1, 5138, Note_on_c, 12, 68, 0
1, 5139, Note_on_c, 9, 81, 0
1, 5140, Note_on_c, 9, 69, 0
1, 5140, Note_on_c, 9, 39, 0
1, 5154, Note_on_c, 5, 88, 0
1, 5159, Note_on_c, 15, 59, 0
1, 5159, Note_on_c, 8, 56, 98
1, 5159, Note_on_c, 15, 56, 81
1, 5160, Note_on_c, 0, 63, 0
1, 5160, Note_on_c, 6, 47, 0
1, 5160, Note_on_c, 9, 69, 95
1, 5164, Note_on_c, 9, 69, 0
1, 5168, Note_on_c, 5, 90, 91
1, 5178, Note_on_c, 8, 56, 0
1, 5183, Note_on_c, 0, 64, 48
1, 5183, Note_on_c, 1, 37, 92
1, 5183, Note_on_c, 5, 92, 89
1, 5183, Note_on_c, 9, 36, 100
1, 5183, Note_on_c, 9, 84, 17
1, 5183, Note_on_c, 10, 37, 54
1, 5183, Note_on_c, 11, 37, 65
1, 5183, Note_on_c, 15, 63, 72
1, 5183, Lyric_t, "It's "
1, 5184, Note_on_c, 15, 56, 0
1, 5184, Note_on_c, 6, 49, 75
1, 5184, Note_on_c, 9, 42, 77
1, 5184, Note_on_c, 9, 69, 94
1, 5184, Note_on_c, 9, 81, 23
1, 5185, Note_on_c, 5, 90, 0
1, 5185, Note_on_c, 12, 64, 71
1, 5187, Note_on_c, 9, 84, 0
1, 5187, Note_on_c, 9, 36, 0
1, 5188, Note_on_c, 9, 81, 0
1, 5188, Note_on_c, 9, 69, 0
1, 5188, Note_on_c, 9, 42, 0
1, 5198, Note_on_c, 5, 92, 0
1, 5202, Note_on_c, 15, 63, 0
1, 5207, Note_on_c, 8, 56, 100
1, 5207, Note_on_c, 15, 56, 73
1, 5208, Note_on_c, 9, 42, 52
1, 5208, Note_on_c, 9, 81, 25
1, 5212, Note_on_c, 9, 81, 0
1, 5212, Note_on_c, 9, 42, 0
1, 5214, Note_on_c, 6, 49, 0
1, 5220, Note_on_c, 10, 37, 0
1, 5220, Note_on_c, 11, 37, 0
1, 5220, Note_on_c, 1, 37, 0
1, 5221, Note_on_c, 15, 56, 0
1, 5226, Note_on_c, 8, 56, 0
1, 5230, Note_on_c, 12, 64, 0
1, 5231, Note_on_c, 15, 56, 80
1, 5231, Note_on_c, 15, 61, 77
1, 5232, Note_on_c, 0, 63, 53
1, 5232, Note_on_c, 5, 88, 81
1, 5232, Note_on_c, 9, 81, 31
1, 5232, Lyric_t, "not "
1, 5233, Note_on_c, 12, 63, 70
1, 5234, Note_on_c, 0, 64, 0
1, 5236, Note_on_c, 9, 81, 0
1, 5242, Note_on_c, 15, 61, 0
1, 5245, Note_on_c, 15, 56, 0
1, 5247, Note_on_c, 5, 88, 0
1, 5255, Note_on_c, 15, 56, 73
1, 5255, Note_on_c, 15, 64, 72
1, 5256, Note_on_c, 8, 56, 96
1, 5256, Note_on_c, 9, 42, 75
1, 5256, Note_on_c, 9, 81, 31
1, 5260, Note_on_c, 9, 81, 0
1, 5260, Note_on_c, 9, 42, 0
1, 5264, Note_on_c, 5, 90, 77
1, 5269, Note_on_c, 8, 56, 0
1, 5271, Note_on_c, 15, 64, 0
1, 5276, Note_on_c, 0, 63, 0
1, 5277, Note_on_c, 5, 90, 0
1, 5278, Note_on_c, 12, 63, 0
1, 5279, Note_on_c, 5, 92, 74
1, 5280, Note_on_c, 0, 61, 48
1, 5280, Note_on_c, 1, 37, 93
1, 5280, Note_on_c, 8, 56, 95
1, 5280, Note_on_c, 9, 36, 96
1, 5280, Note_on_c, 9, 37, 80
1, 5280, Note_on_c, 9, 40, 95
1, 5280, Note_on_c, 9, 39, 49
1, 5280, Note_on_c, 9, 84, 16
1, 5280, Note_on_c, 10, 37, 62
1, 5280, Note_on_c, 11, 37, 59
1, 5280, Lyric_t, "hard "
1, 5282, Note_on_c, 12, 61, 70
1, 5283, Note_on_c, 15, 49, 0
1, 5284, Note_on_c, 9, 40, 0
1, 5284, Note_on_c, 9, 37, 0
1, 5284, Note_on_c, 9, 36, 0
1, 5284, Note_on_c, 9, 84, 0
1, 5284, Note_on_c, 9, 39, 0
1, 5293, Note_on_c, 5, 92, 0
1, 5295, Note_on_c, 15, 56, 0
1, 5303, Note_on_c, 15, 66, 78
1, 5306, Note_on_c, 8, 56, 0
1, 5313, Note_on_c, 10, 37, 0
1, 5313, Note_on_c, 1, 37, 0
1, 5313, Note_on_c, 11, 37, 0
1, 5325, Note_on_c, 0, 61, 0
1, 5326, Note_on_c, 12, 61, 0
1, 5327, Note_on_c, 5, 88, 67
1, 5327, Note_on_c, 8, 56, 100
1, 5327, Note_on_c, 9, 39, 21
1, 5327, Note_on_c, 15, 56, 78
1, 5328, Note_on_c, 0, 59, 52
1, 5328, Note_on_c, 9, 42, 80
1, 5328, Note_on_c, 9, 81, 30
1, 5328, Lyric_t, "to "
1, 5329, Note_on_c, 15, 66, 0
1, 5329, Note_on_c, 12, 59, 74
1, 5331, Note_on_c, 9, 39, 0
1, 5332, Note_on_c, 9, 81, 0
1, 5332, Note_on_c, 9, 42, 0
1, 5342, Note_on_c, 5, 88, 0
1, 5350, Note_on_c, 8, 56, 0
1, 5352, Note_on_c, 15, 56, 0
1, 5360, Note_on_c, 5, 90, 62
1, 5370, Note_on_c, 0, 59, 0
1, 5371, Note_on_c, 5, 90, 0
1, 5372, Note_on_c, 12, 59, 0
1, 5373, Note_on_c, 13, 68, 0
1, 5373, Note_on_c, 13, 80, 0
1, 5375, Note_on_c, 0, 61, 50
1, 5375, Note_on_c, 5, 92, 60
1, 5375, Lyric_t, "see "
1, 5376, Tempo, 652174
1, 5376, Note_on_c, 1, 37, 91
1, 5376, Note_on_c, 7, 37, 85
1, 5376, Note_on_c, 9, 36, 102
1, 5376, Note_on_c, 9, 81, 31
1, 5376, Note_on_c, 10, 37, 62
1, 5376, Note_on_c, 11, 37, 59
1, 5376, Note_on_c, 12, 61, 74
1, 5376, Note_on_c, 13, 80, 82
1, 5376, Note_on_c, 13, 68, 80
1, 5376, Note_on_c, 15, 59, 74
1, 5380, Note_on_c, 9, 81, 0
1, 5380, Note_on_c, 9, 36, 0
1, 5389, Note_on_c, 5, 92, 0
1, 5399, Note_on_c, 15, 64, 74
1, 5400, Note_on_c, 8, 64, 97
1, 5409, Note_on_c, 15, 59, 0
1, 5417, Note_on_c, 8, 64, 0
1, 5423, Note_on_c, 9, 81, 22
1, 5424, Note_on_c, 15, 64, 0
1, 5424, Note_on_c, 15, 59, 81
1, 5427, Note_on_c, 9, 81, 0
1, 5429, Note_on_c, 11, 37, 0
1, 5429, Note_on_c, 1, 37, 0
1, 5429, Note_on_c, 10, 37, 0
1, 5442, Note_on_c, 7, 37, 0
1, 5447, Note_on_c, 15, 61, 72
1, 5448, Note_on_c, 7, 37, 68
1, 5448, Note_on_c, 8, 63, 100
1, 5448, Note_on_c, 9, 42, 83
1, 5452, Note_on_c, 9, 42, 0
1, 5458, Note_on_c, 15, 59, 0
1, 5465, Note_on_c, 8, 63, 0
1, 5466, Note_on_c, 15, 61, 0
1, 5471, Note_on_c, 6, 49, 78
1, 5471, Note_on_c, 9, 42, 76
1, 5471, Note_on_c, 9, 69, 92
1, 5471, Note_on_c, 9, 81, 29
1, 5471, Note_on_c, 13, 85, 83
1, 5471, Note_on_c, 13, 73, 80
1, 5472, Note_on_c, 13, 68, 0
1, 5472, Note_on_c, 13, 80, 0
1, 5472, Note_on_c, 12, 61, 0
1, 5472, Note_on_c, 0, 61, 0
1, 5472, Note_on_c, 0, 56, 48
1, 5472, Note_on_c, 1, 37, 93
1, 5472, Note_on_c, 9, 36, 98
1, 5472, Note_on_c, 9, 37, 75
1, 5472, Note_on_c, 9, 40, 100
1, 5472, Note_on_c, 10, 37, 57
1, 5472, Note_on_c, 11, 37, 66
1, 5472, Note_on_c, 15, 64, 72
1, 5472, Lyric_t, "the "
1, 5473, Note_on_c, 9, 39, 50
1, 5475, Note_on_c, 9, 81, 0
1, 5475, Note_on_c, 9, 69, 0
1, 5475, Note_on_c, 9, 42, 0
1, 5476, Note_on_c, 9, 37, 0
1, 5476, Note_on_c, 9, 36, 0
1, 5476, Note_on_c, 9, 40, 0
1, 5477, Note_on_c, 9, 39, 0
1, 5478, Note_on_c, 7, 37, 0
1, 5495, Note_on_c, 9, 81, 24
1, 5495, Note_on_c, 15, 68, 79
1, 5496, Note_on_c, 6, 49, 0
1, 5496, Note_on_c, 8, 63, 101
1, 5499, Note_on_c, 9, 81, 0
1, 5506, Note_on_c, 15, 64, 0
1, 5510, Note_on_c, 10, 37, 0
1, 5510, Note_on_c, 1, 37, 0
1, 5510, Note_on_c, 11, 37, 0
1, 5513, Note_on_c, 8, 63, 0
1, 5519, Note_on_c, 9, 69, 96
1, 5519, Note_on_c, 9, 81, 22
1, 5519, Note_on_c, 9, 42, 80
1, 5519, Note_on_c, 13, 87, 76
1, 5519, Note_on_c, 13, 75, 81
1, 5519, Note_on_c, 15, 63, 76
1, 5520, Note_on_c, 13, 85, 0
1, 5520, Note_on_c, 13, 73, 0
1, 5520, Note_on_c, 6, 47, 73
1, 5520, Note_on_c, 9, 39, 22
1, 5523, Note_on_c, 9, 69, 0
1, 5523, Note_on_c, 9, 81, 0
1, 5523, Note_on_c, 9, 42, 0
1, 5524, Note_on_c, 9, 39, 0
1, 5542, Note_on_c, 6, 47, 0
1, 5543, Note_on_c, 15, 64, 75
1, 5544, Note_on_c, 8, 64, 102
1, 5552, Note_on_c, 9, 40, 79
1, 5554, Note_on_c, 0, 56, 0
1, 5556, Note_on_c, 9, 40, 0
1, 5559, Note_on_c, 15, 63, 0
1, 5559, Note_on_c, 8, 64, 0
1, 5564, Note_on_c, 15, 68, 0
1, 5565, Note_on_c, 15, 64, 0
1, 5567, Note_on_c, 0, 61, 50
1, 5567, Note_on_c, 1, 37, 87
1, 5567, Note_on_c, 9, 42, 76
1, 5567, Note_on_c, 9, 36, 103
1, 5567, Note_on_c, 10, 37, 60
1, 5567, Note_on_c, 11, 37, 59
1, 5567, Note_on_c, 13, 88, 78
1, 5567, Note_on_c, 13, 76, 82
1, 5567, Note_on_c, 15, 71, 76
1, 5567, Lyric_t, "boy "
1, 5568, Note_on_c, 6, 49, 72
1, 5568, Note_on_c, 9, 81, 24
1, 5569, Note_on_c, 13, 75, 0
1, 5569, Note_on_c, 13, 87, 0
1, 5571, Note_on_c, 9, 42, 0
1, 5571, Note_on_c, 9, 36, 0
1, 5572, Note_on_c, 9, 81, 0
1, 5591, Note_on_c, 8, 64, 95
1, 5591, Note_on_c, 9, 38, 56
1, 5591, Note_on_c, 15, 64, 79
1, 5592, Note_on_c, 9, 42, 58
1, 5592, Note_on_c, 9, 81, 30
1, 5595, Note_on_c, 9, 38, 0
1, 5596, Note_on_c, 9, 81, 0
1, 5596, Note_on_c, 9, 42, 0
1, 5597, Note_on_c, 6, 49, 0
1, 5604, Note_on_c, 1, 37, 0
1, 5604, Note_on_c, 11, 37, 0
1, 5604, Note_on_c, 10, 37, 0
1, 5611, Note_on_c, 8, 64, 0
1, 5615, Note_on_c, 9, 69, 93
1, 5615, Note_on_c, 15, 68, 78
1, 5616, Note_on_c, 7, 37, 72
1, 5616, Note_on_c, 9, 38, 50
1, 5616, Note_on_c, 9, 81, 25
1, 5616, Note_on_c, 13, 87, 76
1, 5616, Note_on_c, 13, 75, 77
1, 5617, Note_on_c, 13, 88, 0
1, 5617, Note_on_c, 13, 76, 0
1, 5618, Note_on_c, 15, 71, 0
1, 5618, Note_on_c, 15, 64, 0
1, 5619, Note_on_c, 9, 69, 0
1, 5620, Note_on_c, 9, 38, 0
1, 5620, Note_on_c, 9, 81, 0
1, 5633, Note_on_c, 7, 37, 0
1, 5639, Note_on_c, 15, 75, 72
1, 5640, Note_on_c, 9, 38, 55
1, 5640, Note_on_c, 9, 81, 27
1, 5640, Note_on_c, 15, 71, 76
1, 5641, Note_on_c, 15, 68, 0
1, 5644, Note_on_c, 9, 81, 0
1, 5644, Note_on_c, 9, 38, 0
1, 5655, Note_on_c, 0, 61, 0
1, 5660, Note_on_c, 15, 71, 0
1, 5663, Note_on_c, 0, 56, 48
1, 5663, Note_on_c, 15, 71, 79
1, 5663, Lyric_t, "is "
1, 5664, Note_on_c, 1, 40, 88
1, 5664, Note_on_c, 9, 36, 95
1, 5664, Note_on_c, 9, 38, 57
1, 5664, Note_on_c, 9, 37, 78
1, 5664, Note_on_c, 9, 40, 96
1, 5664, Note_on_c, 9, 39, 54
1, 5664, Note_on_c, 10, 40, 60
1, 5664, Note_on_c, 11, 40, 62
1, 5664, Note_on_c, 13, 85, 84
1, 5664, Note_on_c, 13, 73, 82
1, 5665, Note_on_c, 13, 75, 0
1, 5665, Note_on_c, 13, 87, 0
1, 5668, Note_on_c, 9, 39, 0
1, 5668, Note_on_c, 9, 38, 0
1, 5668, Note_on_c, 9, 40, 0
1, 5668, Note_on_c, 9, 37, 0
1, 5668, Note_on_c, 9, 36, 0
1, 5688, Note_on_c, 7, 37, 76
1, 5688, Note_on_c, 15, 80, 76
1, 5705, Note_on_c, 7, 37, 0
1, 5705, Note_on_c, 15, 71, 0
1, 5708, Note_on_c, 15, 75, 0
1, 5711, Note_on_c, 10, 40, 0
1, 5711, Note_on_c, 1, 40, 0
1, 5711, Note_on_c, 11, 40, 0
1, 5711, Note_on_c, 9, 39, 26
1, 5712, Note_on_c, 1, 44, 87
1, 5712, Note_on_c, 9, 36, 99
1, 5712, Note_on_c, 9, 81, 31
1, 5712, Note_on_c, 10, 44, 62
1, 5712, Note_on_c, 11, 44, 65
1, 5712, Note_on_c, 13, 80, 78
1, 5712, Note_on_c, 13, 68, 78
1, 5712, Note_on_c, 15, 61, 74
1, 5712, Note_on_c, 15, 71, 72
1, 5713, Note_on_c, 13, 85, 0
1, 5713, Note_on_c, 13, 73, 0
1, 5713, Note_on_c, 9, 42, 79
1, 5715, Note_on_c, 9, 39, 0
1, 5716, Note_on_c, 9, 81, 0
1, 5716, Note_on_c, 9, 36, 0
1, 5717, Note_on_c, 9, 42, 0
1, 5719, Note_on_c, 15, 80, 0
1, 5736, Note_on_c, 15, 83, 81
1, 5736, Note_on_c, 15, 56, 78
1, 5738, Note_on_c, 15, 61, 0
1, 5748, Note_on_c, 15, 71, 0
1, 5752, Note_on_c, 0, 56, 0
1, 5754, Note_on_c, 10, 44, 0
1, 5754, Note_on_c, 1, 44, 0
1, 5754, Note_on_c, 11, 44, 0
1, 5757, Note_on_c, 15, 56, 0
1, 5759, Note_on_c, 0, 57, 48
1, 5759, Lyric_t, "mine. "
1, 5759, Lyric_t, "\015"
1, 5760, Note_on_c, 1, 42, 93
1, 5760, Note_on_c, 8, 54, 103
1, 5760, Note_on_c, 9, 36, 103
1, 5760, Note_on_c, 9, 49, 31
1, 5760, Note_on_c, 9, 81, 27
1, 5760, Note_on_c, 9, 42, 83
1, 5760, Note_on_c, 9, 84, 22
1, 5760, Note_on_c, 10, 42, 53
1, 5760, Note_on_c, 11, 42, 62
1, 5760, Note_on_c, 13, 81, 84
1, 5760, Note_on_c, 13, 69, 81
1, 5760, Note_on_c, 15, 54, 72
1, 5762, Note_on_c, 13, 68, 0
1, 5762, Note_on_c, 13, 80, 0
1, 5763, Note_on_c, 15, 83, 0
1, 5764, Note_on_c, 9, 81, 0
1, 5764, Note_on_c, 9, 49, 0
1, 5764, Note_on_c, 9, 84, 0
1, 5764, Note_on_c, 9, 42, 0
1, 5764, Note_on_c, 9, 36, 0
1, 5784, Note_on_c, 15, 57, 79
1, 5798, Note_on_c, 10, 42, 0
1, 5798, Note_on_c, 1, 42, 0
1, 5798, Note_on_c, 11, 42, 0
1, 5805, Note_on_c, 15, 57, 0
1, 5807, Note_on_c, 9, 81, 31
1, 5808, Note_on_c, 9, 42, 75
1, 5808, Note_on_c, 15, 61, 72
1, 5811, Note_on_c, 9, 81, 0
1, 5812, Note_on_c, 9, 42, 0
1, 5832, Note_on_c, 15, 64, 78
1, 5836, Note_on_c, 15, 61, 0
1, 5855, Note_on_c, 6, 49, 77
1, 5855, Note_on_c, 9, 81, 28
1, 5856, Note_on_c, 15, 64, 0
1, 5856, Note_on_c, 1, 42, 92
1, 5856, Note_on_c, 9, 36, 101
1, 5856, Note_on_c, 9, 37, 78
1, 5856, Note_on_c, 9, 40, 103
1, 5856, Note_on_c, 9, 69, 97
1, 5856, Note_on_c, 9, 84, 15
1, 5856, Note_on_c, 10, 42, 61
1, 5856, Note_on_c, 11, 42, 67
1, 5856, Note_on_c, 15, 68, 77
1, 5857, Note_on_c, 9, 39, 55
1, 5859, Note_on_c, 9, 81, 0
1, 5860, Note_on_c, 9, 40, 0
1, 5860, Note_on_c, 9, 37, 0
1, 5860, Note_on_c, 9, 36, 0
1, 5860, Note_on_c, 9, 84, 0
1, 5860, Note_on_c, 9, 69, 0
1, 5861, Note_on_c, 9, 39, 0
1, 5879, Note_on_c, 6, 49, 0
1, 5879, Note_on_c, 9, 81, 26
1, 5880, Note_on_c, 9, 42, 78
1, 5880, Note_on_c, 9, 69, 95
1, 5880, Note_on_c, 15, 64, 76
1, 5883, Note_on_c, 9, 81, 0
1, 5883, Note_on_c, 15, 68, 0
1, 5884, Note_on_c, 9, 42, 0
1, 5884, Note_on_c, 9, 69, 0
1, 5888, Note_on_c, 1, 42, 0
1, 5888, Note_on_c, 10, 42, 0
1, 5888, Note_on_c, 11, 42, 0
1, 5891, Note_on_c, 8, 54, 0
1, 5903, Note_on_c, 9, 81, 29
1, 5904, Note_on_c, 5, 90, 96
1, 5904, Note_on_c, 6, 47, 73
1, 5904, Note_on_c, 8, 57, 99
1, 5904, Note_on_c, 9, 39, 25
1, 5904, Note_on_c, 9, 69, 96
1, 5905, Note_on_c, 15, 57, 75
1, 5906, Note_on_c, 15, 64, 0
1, 5907, Note_on_c, 9, 81, 0
1, 5908, Note_on_c, 9, 69, 0
1, 5908, Note_on_c, 9, 39, 0
1, 5912, Note_on_c, 0, 57, 0
1, 5921, Note_on_c, 5, 90, 0
1, 5923, Note_on_c, 15, 57, 0
1, 5927, Note_on_c, 15, 61, 74
1, 5928, Note_on_c, 6, 47, 0
1, 5928, Note_on_c, 9, 69, 100
1, 5932, Note_on_c, 9, 69, 0
1, 5934, Note_on_c, 8, 57, 0
1, 5935, Note_on_c, 5, 92, 92
1, 5938, Note_on_c, 15, 54, 0
1, 5943, Note_on_c, 15, 61, 0
1, 5951, Note_on_c, 0, 64, 52
1, 5951, Note_on_c, 9, 84, 17
1, 5951, Lyric_t, "I'm "
1, 5952, Note_on_c, 1, 42, 85
1, 5952, Note_on_c, 5, 93, 90
1, 5952, Note_on_c, 6, 49, 73
1, 5952, Note_on_c, 8, 54, 98
1, 5952, Note_on_c, 9, 36, 104
1, 5952, Note_on_c, 9, 42, 77
1, 5952, Note_on_c, 9, 69, 101
1, 5952, Note_on_c, 9, 81, 26
1, 5952, Note_on_c, 10, 42, 54
1, 5952, Note_on_c, 11, 42, 62
1, 5952, Note_on_c, 12, 64, 71
1, 5952, Note_on_c, 15, 54, 79
1, 5955, Note_on_c, 9, 84, 0
1, 5956, Note_on_c, 9, 42, 0
1, 5956, Note_on_c, 9, 36, 0
1, 5956, Note_on_c, 5, 92, 0
1, 5956, Note_on_c, 9, 81, 0
1, 5956, Note_on_c, 9, 69, 0
1, 5971, Note_on_c, 5, 93, 0
1, 5976, Note_on_c, 9, 42, 61
1, 5976, Note_on_c, 9, 81, 30
1, 5976, Note_on_c, 15, 69, 72
1, 5980, Note_on_c, 9, 81, 0
1, 5980, Note_on_c, 8, 54, 0
1, 5980, Note_on_c, 9, 42, 0
1, 5982, Note_on_c, 6, 49, 0
1, 5982, Note_on_c, 10, 42, 0
1, 5982, Note_on_c, 1, 42, 0
1, 5982, Note_on_c, 11, 42, 0
1, 5995, Note_on_c, 12, 64, 0
1, 6000, Note_on_c, 0, 64, 0
1, 6000, Note_on_c, 0, 63, 52
1, 6000, Note_on_c, 5, 90, 85
1, 6000, Note_on_c, 8, 57, 103
1, 6000, Note_on_c, 9, 81, 25
1, 6000, Note_on_c, 12, 63, 74
1, 6000, Note_on_c, 15, 57, 81
1, 6000, Lyric_t, "sor"
1, 6001, Note_on_c, 15, 69, 0
1, 6004, Note_on_c, 9, 81, 0
1, 6018, Note_on_c, 15, 57, 0
1, 6019, Note_on_c, 5, 90, 0
1, 6024, Note_on_c, 9, 42, 83
1, 6024, Note_on_c, 9, 81, 23
1, 6024, Note_on_c, 15, 64, 80
1, 6028, Note_on_c, 9, 81, 0
1, 6028, Note_on_c, 9, 42, 0
1, 6031, Note_on_c, 5, 92, 81
1, 6045, Note_on_c, 12, 63, 0
1, 6047, Note_on_c, 0, 63, 0
1, 6047, Note_on_c, 9, 84, 21
1, 6048, Note_on_c, 0, 61, 48
1, 6048, Note_on_c, 1, 42, 93
1, 6048, Note_on_c, 5, 93, 79
1, 6048, Note_on_c, 9, 36, 98
1, 6048, Note_on_c, 9, 37, 81
1, 6048, Note_on_c, 9, 40, 104
1, 6048, Note_on_c, 9, 39, 57
1, 6048, Note_on_c, 10, 42, 60
1, 6048, Note_on_c, 11, 42, 59
1, 6048, Note_on_c, 15, 61, 81
1, 6048, Note_on_c, 15, 57, 77
1, 6048, Lyric_t, "ry "
1, 6049, Note_on_c, 15, 64, 0
1, 6049, Note_on_c, 12, 64, 69
1, 6051, Note_on_c, 9, 84, 0
1, 6052, Note_on_c, 9, 36, 0
1, 6052, Note_on_c, 5, 92, 0
1, 6052, Note_on_c, 9, 40, 0
1, 6052, Note_on_c, 9, 37, 0
1, 6052, Note_on_c, 9, 39, 0
1, 6067, Note_on_c, 15, 57, 0
1, 6067, Note_on_c, 5, 93, 0
1, 6072, Note_on_c, 15, 57, 77
1, 6073, Note_on_c, 15, 61, 0
1, 6082, Note_on_c, 11, 42, 0
1, 6082, Note_on_c, 1, 42, 0
1, 6082, Note_on_c, 10, 42, 0
1, 6092, Note_on_c, 12, 64, 0
1, 6094, Note_on_c, 15, 57, 0
1, 6095, Note_on_c, 9, 39, 21
1, 6096, Note_on_c, 0, 59, 48
1, 6096, Note_on_c, 5, 90, 73
1, 6096, Note_on_c, 9, 42, 84
1, 6096, Note_on_c, 9, 81, 26
1, 6096, Note_on_c, 15, 61, 72
1, 6096, Note_on_c, 15, 57, 74
1, 6096, Lyric_t, "that "
1, 6097, Note_on_c, 12, 64, 72
1, 6099, Note_on_c, 9, 39, 0
1, 6099, Note_on_c, 0, 61, 0
1, 6100, Note_on_c, 9, 81, 0
1, 6100, Note_on_c, 9, 42, 0
1, 6101, Note_on_c, 8, 57, 0
1, 6112, Note_on_c, 15, 54, 0
1, 6113, Note_on_c, 15, 57, 0
1, 6115, Note_on_c, 5, 90, 0
1, 6120, Note_on_c, 8, 54, 95
1, 6120, Note_on_c, 15, 54, 76
1, 6121, Note_on_c, 15, 61, 0
1, 6127, Note_on_c, 5, 92, 70
1, 6141, Note_on_c, 8, 54, 0
1, 6142, Note_on_c, 12, 64, 0
1, 6143, Note_on_c, 0, 61, 50
1, 6143, Lyric_t, "you "
1, 6144, Note_on_c, 15, 54, 0
1, 6144, Note_on_c, 1, 42, 85
1, 6144, Note_on_c, 5, 93, 68
1, 6144, Note_on_c, 7, 42, 91
1, 6144, Note_on_c, 8, 54, 103
1, 6144, Note_on_c, 9, 36, 99
1, 6144, Note_on_c, 9, 81, 22
1, 6144, Note_on_c, 10, 42, 53
1, 6144, Note_on_c, 11, 42, 65
1, 6144, Note_on_c, 15, 66, 78
1, 6145, Note_on_c, 12, 66, 75
1, 6148, Note_on_c, 9, 81, 0
1, 6148, Note_on_c, 9, 36, 0
1, 6149, Note_on_c, 0, 59, 0
1, 6152, Note_on_c, 5, 92, 0
1, 6167, Note_on_c, 15, 57, 80
1, 6173, Note_on_c, 5, 93, 0
1, 6182, Note_on_c, 1, 42, 0
1, 6182, Note_on_c, 11, 42, 0
1, 6182, Note_on_c, 10, 42, 0
1, 6186, Note_on_c, 15, 57, 0
1, 6191, Note_on_c, 9, 81, 27
1, 6191, Note_on_c, 15, 61, 80
1, 6195, Note_on_c, 9, 81, 0
1, 6213, Note_on_c, 7, 42, 0
1, 6215, Note_on_c, 15, 57, 75
1, 6216, Note_on_c, 7, 42, 72
1, 6216, Note_on_c, 9, 42, 77
1, 6220, Note_on_c, 9, 42, 0
1, 6231, Note_on_c, 13, 69, 0
1, 6231, Note_on_c, 13, 81, 0
1, 6235, Note_on_c, 15, 57, 0
1, 6236, Note_on_c, 15, 61, 0
1, 6239, Note_on_c, 7, 42, 0
1, 6239, Note_on_c, 6, 49, 74
1, 6239, Note_on_c, 9, 42, 84
1, 6239, Note_on_c, 9, 69, 95
1, 6239, Note_on_c, 9, 81, 30
1, 6239, Note_on_c, 13, 83, 85
1, 6239, Note_on_c, 13, 71, 77
1, 6239, Note_on_c, 15, 57, 78
1, 6239, Note_on_c, 15, 64, 77
1, 6240, Note_on_c, 1, 42, 93
1, 6240, Note_on_c, 9, 36, 97
1, 6240, Note_on_c, 9, 37, 78
1, 6240, Note_on_c, 9, 40, 95
1, 6240, Note_on_c, 10, 42, 60
1, 6240, Note_on_c, 11, 42, 62
1, 6241, Note_on_c, 9, 39, 58
1, 6243, Note_on_c, 9, 81, 0
1, 6243, Note_on_c, 9, 69, 0
1, 6243, Note_on_c, 9, 42, 0
1, 6244, Note_on_c, 9, 40, 0
1, 6244, Note_on_c, 9, 37, 0
1, 6244, Note_on_c, 9, 36, 0
1, 6245, Note_on_c, 9, 39, 0
1, 6253, Note_on_c, 15, 57, 0
1, 6258, Note_on_c, 15, 64, 0
1, 6258, Note_on_c, 15, 66, 0
1, 6263, Note_on_c, 9, 81, 27
1, 6264, Note_on_c, 6, 49, 0
1, 6264, Note_on_c, 15, 68, 79
1, 6267, Note_on_c, 9, 81, 0
1, 6272, Note_on_c, 11, 42, 0
1, 6272, Note_on_c, 10, 42, 0
1, 6272, Note_on_c, 1, 42, 0
1, 6277, Note_on_c, 8, 54, 0
1, 6279, Note_on_c, 12, 66, 0
1, 6285, Note_on_c, 15, 68, 0
1, 6287, Note_on_c, 8, 57, 99
1, 6287, Note_on_c, 9, 69, 101
1, 6287, Note_on_c, 9, 81, 27
1, 6287, Note_on_c, 9, 42, 78
1, 6287, Note_on_c, 13, 85, 83
1, 6287, Note_on_c, 13, 73, 78
1, 6288, Note_on_c, 6, 47, 78
1, 6288, Note_on_c, 7, 42, 71
1, 6288, Note_on_c, 9, 39, 21
1, 6288, Note_on_c, 15, 57, 78
1, 6290, Note_on_c, 13, 71, 0
1, 6290, Note_on_c, 13, 83, 0
1, 6291, Note_on_c, 9, 69, 0
1, 6291, Note_on_c, 9, 81, 0
1, 6291, Note_on_c, 9, 42, 0
1, 6292, Note_on_c, 9, 39, 0
1, 6303, Note_on_c, 0, 61, 0
1, 6304, Note_on_c, 15, 57, 0
1, 6307, Note_on_c, 8, 57, 0
1, 6309, Note_on_c, 7, 42, 0
1, 6310, Note_on_c, 6, 47, 0
1, 6311, Note_on_c, 15, 69, 74
1, 6320, Note_on_c, 9, 40, 74
1, 6324, Note_on_c, 9, 40, 0
1, 6330, Note_on_c, 15, 69, 0
1, 6334, Note_on_c, 13, 85, 0
1, 6334, Note_on_c, 13, 73, 0
1, 6335, Note_on_c, 0, 66, 53
1, 6335, Note_on_c, 8, 57, 104
1, 6335, Note_on_c, 9, 42, 84
1, 6335, Note_on_c, 13, 87, 80
1, 6335, Note_on_c, 13, 75, 80
1, 6335, Lyric_t, "seem "
1, 6336, Note_on_c, 1, 42, 88
1, 6336, Note_on_c, 6, 49, 78
1, 6336, Note_on_c, 9, 36, 99
1, 6336, Note_on_c, 9, 81, 22
1, 6336, Note_on_c, 10, 42, 59
1, 6336, Note_on_c, 11, 42, 60
1, 6336, Note_on_c, 15, 57, 78
1, 6337, Note_on_c, 12, 66, 73
1, 6339, Note_on_c, 9, 42, 0
1, 6340, Note_on_c, 9, 81, 0
1, 6340, Note_on_c, 9, 36, 0
1, 6355, Note_on_c, 15, 57, 0
1, 6355, Note_on_c, 8, 57, 0
1, 6360, Note_on_c, 9, 42, 56
1, 6360, Note_on_c, 9, 81, 25
1, 6360, Note_on_c, 15, 64, 80
1, 6364, Note_on_c, 9, 81, 0
1, 6364, Note_on_c, 9, 42, 0
1, 6365, Note_on_c, 6, 49, 0
1, 6366, Note_on_c, 1, 42, 0
1, 6366, Note_on_c, 11, 42, 0
1, 6366, Note_on_c, 10, 42, 0
1, 6378, Note_on_c, 15, 64, 0
1, 6383, Note_on_c, 13, 75, 0
1, 6383, Note_on_c, 13, 87, 0
1, 6383, Note_on_c, 8, 57, 104
1, 6383, Note_on_c, 9, 69, 95
1, 6383, Note_on_c, 13, 85, 85
1, 6383, Note_on_c, 13, 73, 83
1, 6383, Note_on_c, 15, 57, 74
1, 6384, Note_on_c, 0, 64, 52
1, 6384, Note_on_c, 7, 42, 68
1, 6384, Note_on_c, 9, 81, 25
1, 6384, Lyric_t, "to "
1, 6386, Note_on_c, 12, 64, 68
1, 6387, Note_on_c, 9, 69, 0
1, 6387, Note_on_c, 0, 66, 0
1, 6388, Note_on_c, 9, 81, 0
1, 6392, Note_on_c, 12, 66, 0
1, 6401, Note_on_c, 7, 42, 0
1, 6401, Note_on_c, 15, 57, 0
1, 6402, Note_on_c, 8, 57, 0
1, 6408, Note_on_c, 9, 81, 23
1, 6408, Note_on_c, 15, 61, 81
1, 6412, Note_on_c, 9, 81, 0
1, 6428, Note_on_c, 15, 61, 0
1, 6430, Note_on_c, 12, 64, 0
1, 6431, Note_on_c, 13, 85, 0
1, 6431, Note_on_c, 13, 73, 0
1, 6431, Note_on_c, 8, 54, 95
1, 6431, Note_on_c, 13, 83, 84
1, 6431, Note_on_c, 13, 71, 76
1, 6431, Note_on_c, 15, 54, 81
1, 6432, Tempo, 645161
1, 6432, Note_on_c, 0, 63, 51
1, 6432, Note_on_c, 1, 44, 94
1, 6432, Note_on_c, 9, 36, 101
1, 6432, Note_on_c, 9, 37, 73
1, 6432, Note_on_c, 9, 40, 100
1, 6432, Note_on_c, 9, 39, 57
1, 6432, Note_on_c, 10, 44, 62
1, 6432, Note_on_c, 11, 44, 65
1, 6432, Lyric_t, "be "
1, 6433, Note_on_c, 12, 63, 70
1, 6436, Note_on_c, 9, 39, 0
1, 6436, Note_on_c, 9, 40, 0
1, 6436, Note_on_c, 0, 64, 0
1, 6436, Note_on_c, 9, 37, 0
1, 6436, Note_on_c, 9, 36, 0
1, 6455, Note_on_c, 15, 61, 73
1, 6476, Note_on_c, 1, 44, 0
1, 6476, Note_on_c, 11, 44, 0
1, 6476, Note_on_c, 10, 44, 0
1, 6478, Note_on_c, 15, 61, 0
1, 6478, Note_on_c, 15, 64, 74
1, 6479, Note_on_c, 15, 54, 0
1, 6479, Note_on_c, 9, 39, 23
1, 6480, Note_on_c, 0, 61, 56
1, 6480, Note_on_c, 1, 39, 85
1, 6480, Note_on_c, 9, 36, 96
1, 6480, Note_on_c, 9, 81, 24
1, 6480, Note_on_c, 11, 39, 63
1, 6480, Note_on_c, 13, 78, 83
1, 6480, Note_on_c, 13, 66, 80
1, 6480, Lyric_t, "con"
1, 6481, Note_on_c, 13, 83, 0
1, 6481, Note_on_c, 13, 71, 0
1, 6481, Note_on_c, 9, 42, 83
1, 6482, Note_on_c, 0, 63, 0
1, 6482, Note_on_c, 10, 39, 55
1, 6482, Note_on_c, 12, 66, 75
1, 6483, Note_on_c, 9, 39, 0
1, 6484, Note_on_c, 9, 81, 0
1, 6484, Note_on_c, 9, 36, 0
1, 6485, Note_on_c, 9, 42, 0
1, 6486, Note_on_c, 12, 63, 0
1, 6503, Note_on_c, 15, 64, 0
1, 6503, Note_on_c, 15, 68, 75
1, 6516, Note_on_c, 8, 54, 0
1, 6520, Note_on_c, 15, 68, 0
1, 6522, Note_on_c, 1, 39, 0
1, 6522, Note_on_c, 11, 39, 0
1, 6524, Note_on_c, 10, 39, 0
1, 6525, Note_on_c, 13, 78, 0
1, 6525, Note_on_c, 13, 66, 0
1, 6527, Note_on_c, 13, 80, 79
1, 6527, Note_on_c, 13, 68, 81
1, 6528, Note_on_c, 0, 63, 50
1, 6528, Note_on_c, 1, 37, 92
1, 6528, Note_on_c, 9, 36, 98
1, 6528, Note_on_c, 9, 49, 30
1, 6528, Note_on_c, 9, 81, 27
1, 6528, Note_on_c, 9, 42, 82
1, 6528, Note_on_c, 9, 84, 18
1, 6528, Note_on_c, 10, 37, 58
1, 6528, Note_on_c, 11, 37, 62
1, 6528, Note_on_c, 15, 49, 79
1, 6528, Lyric_t, "fused, "
1, 6528, Lyric_t, "\015"
1, 6528, Lyric_t, "\012"
1, 6530, Note_on_c, 12, 66, 0
1, 6530, Note_on_c, 12, 68, 71
1, 6532, Note_on_c, 9, 84, 0
1, 6532, Note_on_c, 9, 49, 0
1, 6532, Note_on_c, 9, 42, 0
1, 6532, Note_on_c, 9, 81, 0
1, 6532, Note_on_c, 9, 36, 0
1, 6534, Note_on_c, 0, 61, 0
1, 6551, Note_on_c, 15, 56, 74
1, 6552, Note_on_c, 8, 56, 102
1, 6566, Note_on_c, 8, 56, 0
1, 6572, Note_on_c, 15, 56, 0
1, 6575, Note_on_c, 9, 81, 29
1, 6575, Note_on_c, 15, 59, 73
1, 6576, Note_on_c, 9, 42, 84
1, 6579, Note_on_c, 9, 81, 0
1, 6580, Note_on_c, 9, 42, 0
1, 6581, Note_on_c, 10, 37, 0
1, 6581, Note_on_c, 11, 37, 0
1, 6581, Note_on_c, 1, 37, 0
1, 6599, Note_on_c, 15, 56, 78
1, 6600, Note_on_c, 8, 56, 103
1, 6603, Note_on_c, 15, 59, 0
1, 6617, Note_on_c, 8, 56, 0
1, 6620, Note_on_c, 15, 56, 0
1, 6623, Note_on_c, 6, 49, 75
1, 6623, Note_on_c, 9, 81, 28
1, 6623, Note_on_c, 15, 63, 73
1, 6624, Note_on_c, 1, 37, 93
1, 6624, Note_on_c, 9, 36, 101
1, 6624, Note_on_c, 9, 37, 80
1, 6624, Note_on_c, 9, 40, 103
1, 6624, Note_on_c, 9, 69, 99
1, 6624, Note_on_c, 9, 84, 19
1, 6624, Note_on_c, 10, 37, 58
1, 6624, Note_on_c, 11, 37, 60
1, 6625, Note_on_c, 9, 39, 55
1, 6627, Note_on_c, 9, 81, 0
1, 6628, Note_on_c, 9, 37, 0
1, 6628, Note_on_c, 9, 36, 0
1, 6628, Note_on_c, 9, 84, 0
1, 6628, Note_on_c, 9, 40, 0
1, 6628, Note_on_c, 9, 69, 0
1, 6629, Note_on_c, 9, 39, 0
1, 6645, Note_on_c, 15, 63, 0
1, 6647, Note_on_c, 6, 49, 0
1, 6647, Note_on_c, 8, 56, 98
1, 6647, Note_on_c, 9, 81, 22
1, 6647, Note_on_c, 15, 56, 73
1, 6648, Note_on_c, 9, 42, 81
1, 6648, Note_on_c, 9, 69, 92
1, 6651, Note_on_c, 9, 81, 0
1, 6652, Note_on_c, 9, 69, 0
1, 6652, Note_on_c, 9, 42, 0
1, 6654, Note_on_c, 11, 37, 0
1, 6654, Note_on_c, 1, 37, 0
1, 6654, Note_on_c, 10, 37, 0
1, 6665, Note_on_c, 8, 56, 0
1, 6668, Note_on_c, 15, 56, 0
1, 6671, Note_on_c, 9, 81, 31
1, 6671, Note_on_c, 15, 59, 76
1, 6672, Note_on_c, 5, 88, 92
1, 6672, Note_on_c, 6, 47, 76
1, 6672, Note_on_c, 9, 39, 23
1, 6672, Note_on_c, 9, 69, 100
1, 6674, Note_on_c, 12, 68, 0
1, 6675, Note_on_c, 9, 81, 0
1, 6676, Note_on_c, 9, 69, 0
1, 6676, Note_on_c, 9, 39, 0
1, 6690, Note_on_c, 5, 88, 0
1, 6695, Note_on_c, 15, 59, 0
1, 6695, Note_on_c, 8, 56, 96
1, 6695, Note_on_c, 15, 56, 80
1, 6696, Note_on_c, 0, 63, 0
1, 6696, Note_on_c, 6, 47, 0
1, 6696, Note_on_c, 9, 69, 100
1, 6700, Note_on_c, 9, 69, 0
1, 6704, Note_on_c, 5, 90, 88
1, 6714, Note_on_c, 8, 56, 0
1, 6719, Note_on_c, 0, 64, 48
1, 6719, Note_on_c, 1, 37, 85
1, 6719, Note_on_c, 5, 92, 86
1, 6719, Note_on_c, 9, 36, 100
1, 6719, Note_on_c, 9, 84, 19
1, 6719, Note_on_c, 10, 37, 60
1, 6719, Note_on_c, 11, 37, 65
1, 6719, Note_on_c, 15, 63, 72
1, 6719, Lyric_t, "He "
1, 6720, Note_on_c, 15, 56, 0
1, 6720, Note_on_c, 6, 49, 74
1, 6720, Note_on_c, 9, 42, 75
1, 6720, Note_on_c, 9, 69, 94
1, 6720, Note_on_c, 9, 81, 25
1, 6721, Note_on_c, 5, 90, 0
1, 6721, Note_on_c, 12, 64, 67
1, 6723, Note_on_c, 9, 84, 0
1, 6723, Note_on_c, 9, 36, 0
1, 6724, Note_on_c, 9, 81, 0
1, 6724, Note_on_c, 9, 69, 0
1, 6724, Note_on_c, 9, 42, 0
1, 6734, Note_on_c, 5, 92, 0
1, 6738, Note_on_c, 15, 63, 0
1, 6743, Note_on_c, 8, 56, 99
1, 6743, Note_on_c, 15, 56, 75
1, 6744, Note_on_c, 9, 42, 61
1, 6744, Note_on_c, 9, 81, 30
1, 6748, Note_on_c, 9, 81, 0
1, 6748, Note_on_c, 9, 42, 0
1, 6750, Note_on_c, 6, 49, 0
1, 6756, Note_on_c, 10, 37, 0
1, 6756, Note_on_c, 11, 37, 0
1, 6756, Note_on_c, 1, 37, 0
1, 6757, Note_on_c, 15, 56, 0
1, 6762, Note_on_c, 8, 56, 0
1, 6766, Note_on_c, 12, 64, 0
1, 6767, Note_on_c, 15, 56, 73
1, 6767, Note_on_c, 15, 61, 78
1, 6768, Note_on_c, 0, 63, 50
1, 6768, Note_on_c, 5, 88, 80
1, 6768, Note_on_c, 9, 81, 24
1, 6768, Lyric_t, "be"
1, 6769, Note_on_c, 12, 63, 67
1, 6770, Note_on_c, 0, 64, 0
1, 6772, Note_on_c, 9, 81, 0
1, 6778, Note_on_c, 15, 61, 0
1, 6781, Note_on_c, 15, 56, 0
1, 6783, Note_on_c, 5, 88, 0
1, 6791, Note_on_c, 15, 56, 73
1, 6791, Note_on_c, 15, 64, 79
1, 6792, Note_on_c, 8, 56, 101
1, 6792, Note_on_c, 9, 42, 75
1, 6792, Note_on_c, 9, 81, 25
1, 6796, Note_on_c, 9, 81, 0
1, 6796, Note_on_c, 9, 42, 0
1, 6800, Note_on_c, 5, 90, 76
1, 6805, Note_on_c, 8, 56, 0
1, 6807, Note_on_c, 15, 64, 0
1, 6812, Note_on_c, 0, 63, 0
1, 6813, Note_on_c, 5, 90, 0
1, 6814, Note_on_c, 12, 63, 0
1, 6815, Note_on_c, 5, 92, 74
1, 6816, Note_on_c, 0, 61, 52
1, 6816, Note_on_c, 1, 37, 91
1, 6816, Note_on_c, 8, 56, 103
1, 6816, Note_on_c, 9, 36, 103
1, 6816, Note_on_c, 9, 37, 72
1, 6816, Note_on_c, 9, 40, 95
1, 6816, Note_on_c, 9, 39, 55
1, 6816, Note_on_c, 9, 84, 21
1, 6816, Note_on_c, 10, 37, 56
1, 6816, Note_on_c, 11, 37, 62
1, 6816, Lyric_t, "longs "
1, 6818, Note_on_c, 12, 61, 74
1, 6819, Note_on_c, 15, 49, 0
1, 6820, Note_on_c, 9, 40, 0
1, 6820, Note_on_c, 9, 37, 0
1, 6820, Note_on_c, 9, 36, 0
1, 6820, Note_on_c, 9, 84, 0
1, 6820, Note_on_c, 9, 39, 0
1, 6829, Note_on_c, 5, 92, 0
1, 6831, Note_on_c, 15, 56, 0
1, 6839, Note_on_c, 15, 66, 76
1, 6842, Note_on_c, 8, 56, 0
1, 6849, Note_on_c, 10, 37, 0
1, 6849, Note_on_c, 1, 37, 0
1, 6849, Note_on_c, 11, 37, 0
1, 6861, Note_on_c, 0, 61, 0
1, 6862, Note_on_c, 12, 61, 0
1, 6863, Note_on_c, 5, 88, 68
1, 6863, Note_on_c, 8, 56, 103
1, 6863, Note_on_c, 9, 39, 24
1, 6863, Note_on_c, 15, 56, 74
1, 6864, Note_on_c, 0, 59, 53
1, 6864, Note_on_c, 9, 42, 78
1, 6864, Note_on_c, 9, 81, 29
1, 6864, Lyric_t, "to "
1, 6865, Note_on_c, 15, 66, 0
1, 6865, Note_on_c, 12, 59, 70
1, 6867, Note_on_c, 9, 39, 0
1, 6868, Note_on_c, 9, 81, 0
1, 6868, Note_on_c, 9, 42, 0
1, 6878, Note_on_c, 5, 88, 0
1, 6886, Note_on_c, 8, 56, 0
1, 6888, Note_on_c, 15, 56, 0
1, 6896, Note_on_c, 5, 90, 63
1, 6906, Note_on_c, 0, 59, 0
1, 6907, Note_on_c, 5, 90, 0
1, 6908, Note_on_c, 12, 59, 0
1, 6909, Note_on_c, 13, 68, 0
1, 6909, Note_on_c, 13, 80, 0
1, 6911, Note_on_c, 5, 92, 62
1, 6912, Note_on_c, 0, 61, 54
1, 6912, Note_on_c, 1, 37, 94
1, 6912, Note_on_c, 7, 37, 89
1, 6912, Note_on_c, 9, 36, 99
1, 6912, Note_on_c, 9, 81, 22
1, 6912, Note_on_c, 10, 37, 58
1, 6912, Note_on_c, 11, 37, 67
1, 6912, Note_on_c, 12, 64, 72
1, 6912, Note_on_c, 13, 80, 84
1, 6912, Note_on_c, 13, 68, 83
1, 6912, Note_on_c, 15, 59, 79
1, 6912, Lyric_t, "me, "
1, 6916, Note_on_c, 9, 81, 0
1, 6916, Note_on_c, 9, 36, 0
1, 6925, Note_on_c, 5, 92, 0
1, 6935, Note_on_c, 15, 64, 80
1, 6936, Note_on_c, 8, 64, 103
1, 6945, Note_on_c, 15, 59, 0
1, 6953, Note_on_c, 8, 64, 0
1, 6959, Note_on_c, 9, 81, 31
1, 6960, Note_on_c, 15, 64, 0
1, 6960, Note_on_c, 15, 59, 78
1, 6963, Note_on_c, 9, 81, 0
1, 6965, Note_on_c, 11, 37, 0
1, 6965, Note_on_c, 1, 37, 0
1, 6965, Note_on_c, 10, 37, 0
1, 6982, Note_on_c, 7, 37, 0
1, 6983, Note_on_c, 15, 61, 78
1, 6984, Note_on_c, 7, 37, 68
1, 6984, Note_on_c, 8, 63, 103
1, 6984, Note_on_c, 9, 42, 77
1, 6988, Note_on_c, 9, 42, 0
1, 6994, Note_on_c, 15, 59, 0
1, 6999, Note_on_c, 12, 64, 0
1, 7001, Note_on_c, 8, 63, 0
1, 7002, Note_on_c, 15, 61, 0
1, 7004, Note_on_c, 0, 61, 0
1, 7007, Note_on_c, 6, 49, 77
1, 7007, Note_on_c, 9, 42, 75
1, 7007, Note_on_c, 9, 69, 94
1, 7007, Note_on_c, 9, 81, 29
1, 7007, Note_on_c, 13, 85, 81
1, 7007, Note_on_c, 13, 73, 81
1, 7008, Note_on_c, 13, 80, 0
1, 7008, Note_on_c, 13, 68, 0
1, 7008, Note_on_c, 0, 56, 50
1, 7008, Note_on_c, 1, 37, 87
1, 7008, Note_on_c, 9, 36, 99
1, 7008, Note_on_c, 9, 37, 77
1, 7008, Note_on_c, 9, 40, 97
1, 7008, Note_on_c, 10, 37, 56
1, 7008, Note_on_c, 11, 37, 64
1, 7008, Note_on_c, 15, 64, 80
1, 7008, Lyric_t, "the "
1, 7009, Note_on_c, 9, 39, 51
1, 7009, Note_on_c, 12, 56, 75
1, 7011, Note_on_c, 9, 42, 0
1, 7011, Note_on_c, 9, 69, 0
1, 7011, Note_on_c, 9, 81, 0
1, 7012, Note_on_c, 9, 37, 0
1, 7012, Note_on_c, 9, 36, 0
1, 7012, Note_on_c, 9, 40, 0
1, 7013, Note_on_c, 9, 39, 0
1, 7014, Note_on_c, 7, 37, 0
1, 7031, Note_on_c, 9, 81, 27
1, 7031, Note_on_c, 15, 68, 74
1, 7032, Note_on_c, 6, 49, 0
1, 7032, Note_on_c, 8, 63, 97
1, 7035, Note_on_c, 9, 81, 0
1, 7042, Note_on_c, 15, 64, 0
1, 7046, Note_on_c, 1, 37, 0
1, 7046, Note_on_c, 11, 37, 0
1, 7046, Note_on_c, 10, 37, 0
1, 7049, Note_on_c, 8, 63, 0
1, 7055, Note_on_c, 9, 69, 94
1, 7055, Note_on_c, 9, 81, 27
1, 7055, Note_on_c, 9, 42, 80
1, 7055, Note_on_c, 13, 87, 82
1, 7055, Note_on_c, 13, 75, 79
1, 7055, Note_on_c, 15, 63, 72
1, 7056, Note_on_c, 13, 85, 0
1, 7056, Note_on_c, 13, 73, 0
1, 7056, Note_on_c, 6, 47, 79
1, 7056, Note_on_c, 9, 39, 22
1, 7059, Note_on_c, 9, 42, 0
1, 7059, Note_on_c, 9, 81, 0
1, 7059, Note_on_c, 9, 69, 0
1, 7060, Note_on_c, 9, 39, 0
1, 7078, Note_on_c, 6, 47, 0
1, 7079, Note_on_c, 15, 64, 80
1, 7080, Note_on_c, 8, 64, 102
1, 7085, Note_on_c, 12, 56, 0
1, 7088, Note_on_c, 9, 40, 79
1, 7092, Note_on_c, 9, 40, 0
1, 7095, Note_on_c, 8, 64, 0
1, 7095, Note_on_c, 15, 63, 0
1, 7099, Note_on_c, 0, 56, 0
1, 7100, Note_on_c, 15, 68, 0
1, 7101, Note_on_c, 15, 64, 0
1, 7103, Note_on_c, 1, 37, 91
1, 7103, Note_on_c, 9, 42, 76
1, 7103, Note_on_c, 9, 36, 102
1, 7103, Note_on_c, 10, 37, 58
1, 7103, Note_on_c, 11, 37, 61
1, 7103, Note_on_c, 13, 88, 81
1, 7103, Note_on_c, 13, 76, 76
1, 7103, Note_on_c, 15, 71, 78
1, 7104, Note_on_c, 0, 61, 55
1, 7104, Note_on_c, 6, 49, 81
1, 7104, Note_on_c, 9, 81, 23
1, 7104, Note_on_c, 12, 61, 71
1, 7104, Lyric_t, "boy "
1, 7105, Note_on_c, 13, 75, 0
1, 7105, Note_on_c, 13, 87, 0
1, 7107, Note_on_c, 9, 42, 0
1, 7107, Note_on_c, 9, 36, 0
1, 7108, Note_on_c, 9, 81, 0
1, 7127, Note_on_c, 8, 64, 97
1, 7127, Note_on_c, 9, 38, 56
1, 7127, Note_on_c, 15, 64, 79
1, 7128, Note_on_c, 9, 42, 54
1, 7128, Note_on_c, 9, 81, 22
1, 7131, Note_on_c, 9, 38, 0
1, 7132, Note_on_c, 9, 81, 0
1, 7132, Note_on_c, 9, 42, 0
1, 7133, Note_on_c, 6, 49, 0
1, 7140, Note_on_c, 1, 37, 0
1, 7140, Note_on_c, 11, 37, 0
1, 7140, Note_on_c, 10, 37, 0
1, 7147, Note_on_c, 8, 64, 0
1, 7151, Note_on_c, 9, 69, 98
1, 7151, Note_on_c, 15, 68, 77
1, 7152, Note_on_c, 7, 37, 70
1, 7152, Note_on_c, 9, 38, 50
1, 7152, Note_on_c, 9, 81, 28
1, 7152, Note_on_c, 13, 87, 85
1, 7152, Note_on_c, 13, 75, 84
1, 7153, Note_on_c, 13, 88, 0
1, 7153, Note_on_c, 13, 76, 0
1, 7154, Note_on_c, 15, 71, 0
1, 7154, Note_on_c, 15, 64, 0
1, 7155, Note_on_c, 9, 69, 0
1, 7156, Note_on_c, 9, 81, 0
1, 7156, Note_on_c, 9, 38, 0
1, 7169, Note_on_c, 7, 37, 0
1, 7175, Note_on_c, 15, 75, 74
1, 7176, Note_on_c, 9, 38, 58
1, 7176, Note_on_c, 9, 81, 31
1, 7176, Note_on_c, 15, 71, 77
1, 7177, Note_on_c, 15, 68, 0
1, 7180, Note_on_c, 9, 81, 0
1, 7180, Note_on_c, 9, 38, 0
1, 7186, Note_on_c, 12, 61, 0
1, 7195, Note_on_c, 0, 61, 0
1, 7196, Note_on_c, 15, 71, 0
1, 7199, Note_on_c, 15, 71, 72
1, 7200, Tempo, 645161
1, 7200, Note_on_c, 0, 56, 55
1, 7200, Note_on_c, 1, 40, 86
1, 7200, Note_on_c, 9, 36, 98
1, 7200, Note_on_c, 9, 38, 56
1, 7200, Note_on_c, 9, 37, 81
1, 7200, Note_on_c, 9, 40, 104
1, 7200, Note_on_c, 9, 39, 58
1, 7200, Note_on_c, 10, 40, 54
1, 7200, Note_on_c, 11, 40, 68
1, 7200, Note_on_c, 13, 85, 81
1, 7200, Note_on_c, 13, 73, 77
1, 7200, Lyric_t, "is "
1, 7201, Note_on_c, 13, 75, 0
1, 7201, Note_on_c, 13, 87, 0
1, 7201, Note_on_c, 12, 56, 72
1, 7204, Note_on_c, 9, 37, 0
1, 7204, Note_on_c, 9, 38, 0
1, 7204, Note_on_c, 9, 39, 0
1, 7204, Note_on_c, 9, 40, 0
1, 7204, Note_on_c, 9, 36, 0
1, 7224, Note_on_c, 7, 37, 70
1, 7224, Note_on_c, 15, 80, 78
1, 7241, Note_on_c, 7, 37, 0
1, 7241, Note_on_c, 15, 71, 0
1, 7244, Note_on_c, 15, 75, 0
1, 7247, Note_on_c, 1, 40, 0
1, 7247, Note_on_c, 10, 40, 0
1, 7247, Note_on_c, 11, 40, 0
1, 7247, Note_on_c, 9, 39, 23
1, 7248, Note_on_c, 1, 44, 88
1, 7248, Note_on_c, 9, 36, 95
1, 7248, Note_on_c, 9, 81, 31
1, 7248, Note_on_c, 10, 44, 60
1, 7248, Note_on_c, 11, 44, 65
1, 7248, Note_on_c, 13, 80, 76
1, 7248, Note_on_c, 13, 68, 85
1, 7248, Note_on_c, 15, 61, 80
1, 7248, Note_on_c, 15, 71, 78
1, 7249, Note_on_c, 13, 85, 0
1, 7249, Note_on_c, 13, 73, 0
1, 7249, Note_on_c, 9, 42, 80
1, 7251, Note_on_c, 9, 39, 0
1, 7252, Note_on_c, 9, 81, 0
1, 7252, Note_on_c, 9, 36, 0
1, 7253, Note_on_c, 9, 42, 0
1, 7255, Note_on_c, 15, 80, 0
1, 7272, Note_on_c, 15, 83, 77
1, 7272, Note_on_c, 15, 56, 76
1, 7274, Note_on_c, 15, 61, 0
1, 7274, Note_on_c, 12, 56, 0
1, 7284, Note_on_c, 15, 71, 0
1, 7286, Note_on_c, 0, 56, 0
1, 7290, Note_on_c, 10, 44, 0
1, 7290, Note_on_c, 11, 44, 0
1, 7290, Note_on_c, 1, 44, 0
1, 7293, Note_on_c, 15, 56, 0
1, 7295, Note_on_c, 13, 68, 0
1, 7295, Note_on_c, 13, 80, 0
1, 7296, Note_on_c, 0, 57, 48
1, 7296, Note_on_c, 1, 42, 88
1, 7296, Note_on_c, 8, 54, 100
1, 7296, Note_on_c, 9, 36, 99
1, 7296, Note_on_c, 9, 49, 27
1, 7296, Note_on_c, 9, 81, 26
1, 7296, Note_on_c, 9, 42, 78
1, 7296, Note_on_c, 9, 84, 19
1, 7296, Note_on_c, 10, 42, 61
1, 7296, Note_on_c, 11, 42, 67
1, 7296, Note_on_c, 12, 57, 73
1, 7296, Note_on_c, 15, 54, 79
1, 7296, Lyric_t, "mine. "
1, 7296, Lyric_t, "\015"
1, 7296, Lyric_t, "\012"
1, 7299, Note_on_c, 15, 83, 0
1, 7300, Note_on_c, 9, 84, 0
1, 7300, Note_on_c, 9, 42, 0
1, 7300, Note_on_c, 9, 36, 0
1, 7300, Note_on_c, 9, 81, 0
1, 7300, Note_on_c, 9, 49, 0
1, 7316, Pitch_bend_c, 12, 8582
1, 7317, Pitch_bend_c, 12, 11052
1, 7320, Note_on_c, 15, 57, 81
1, 7321, Pitch_bend_c, 0, 12482
1, 7321, Pitch_bend_c, 12, 13912
1, 7324, Pitch_bend_c, 0, 16382
1, 7324, Pitch_bend_c, 12, 16382
1, 7334, Note_on_c, 10, 42, 0
1, 7334, Note_on_c, 11, 42, 0
1, 7334, Note_on_c, 1, 42, 0
1, 7341, Note_on_c, 15, 57, 0
1, 7343, Note_on_c, 9, 81, 30
1, 7344, Note_on_c, 9, 42, 84
1, 7344, Note_on_c, 15, 61, 73
1, 7346, Pitch_bend_c, 12, 13782
1, 7347, Note_on_c, 9, 81, 0
1, 7348, Note_on_c, 9, 42, 0
1, 7349, Pitch_bend_c, 12, 10272
1, 7350, Pitch_bend_c, 0, 13912
1, 7352, Pitch_bend_c, 12, 8192
1, 7353, Pitch_bend_c, 0, 8192
1, 7368, Note_on_c, 15, 64, 73
1, 7372, Note_on_c, 15, 61, 0
1, 7391, Pitch_bend_c, 3, 8192
1, 7391, Control_c, 3, 1, 0
1, 7391, Note_on_c, 3, 64, 98
1, 7391, Note_on_c, 6, 49, 76
1, 7391, Note_on_c, 9, 81, 26
1, 7391, Lyric_t, "Think "
1, 7392, Note_on_c, 15, 64, 0
1, 7392, Note_on_c, 9, 69, 99
1, 7392, Note_on_c, 9, 84, 15
1, 7392, Note_on_c, 15, 68, 81
1, 7393, Note_on_c, 9, 39, 52
1, 7395, Note_on_c, 9, 81, 0
1, 7396, Note_on_c, 9, 84, 0
1, 7396, Note_on_c, 9, 69, 0
1, 7397, Note_on_c, 9, 39, 0
1, 7402, Note_on_c, 12, 57, 0
1, 7403, Note_on_c, 0, 57, 0
1, 7415, Note_on_c, 6, 49, 0
1, 7415, Note_on_c, 9, 81, 27
1, 7416, Note_on_c, 9, 42, 77
1, 7416, Note_on_c, 9, 69, 100
1, 7416, Note_on_c, 15, 64, 79
1, 7418, Note_on_c, 3, 64, 0
1, 7419, Note_on_c, 9, 81, 0
1, 7419, Note_on_c, 15, 68, 0
1, 7420, Note_on_c, 9, 42, 0
1, 7420, Note_on_c, 9, 69, 0
1, 7427, Note_on_c, 8, 54, 0
1, 7439, Note_on_c, 3, 64, 100
1, 7439, Note_on_c, 9, 81, 24
1, 7439, Lyric_t, "it's "
1, 7440, Note_on_c, 5, 90, 91
1, 7440, Note_on_c, 6, 47, 79
1, 7440, Note_on_c, 8, 57, 96
1, 7440, Note_on_c, 9, 39, 28
1, 7440, Note_on_c, 9, 69, 97
1, 7441, Note_on_c, 15, 57, 73
1, 7442, Note_on_c, 15, 64, 0
1, 7443, Note_on_c, 9, 81, 0
1, 7444, Note_on_c, 9, 69, 0
1, 7444, Note_on_c, 9, 39, 0
1, 7457, Note_on_c, 5, 90, 0
1, 7459, Note_on_c, 15, 57, 0
1, 7463, Note_on_c, 15, 61, 72
1, 7464, Note_on_c, 6, 47, 0
1, 7464, Note_on_c, 9, 69, 92
1, 7467, Note_on_c, 3, 64, 0
1, 7468, Note_on_c, 9, 69, 0
1, 7470, Note_on_c, 8, 57, 0
1, 7471, Note_on_c, 5, 92, 87
1, 7474, Note_on_c, 15, 54, 0
1, 7479, Note_on_c, 15, 61, 0
1, 7487, Note_on_c, 9, 84, 22
1, 7488, Note_on_c, 3, 63, 96
1, 7488, Note_on_c, 5, 93, 85
1, 7488, Note_on_c, 6, 49, 81
1, 7488, Note_on_c, 8, 54, 99
1, 7488, Note_on_c, 9, 42, 82
1, 7488, Note_on_c, 9, 69, 97
1, 7488, Note_on_c, 9, 81, 29
1, 7488, Note_on_c, 15, 54, 81
1, 7488, Lyric_t, "time "
1, 7491, Note_on_c, 9, 84, 0
1, 7492, Note_on_c, 9, 81, 0
1, 7492, Note_on_c, 9, 69, 0
1, 7492, Note_on_c, 5, 92, 0
1, 7492, Note_on_c, 9, 42, 0
1, 7507, Note_on_c, 5, 93, 0
1, 7512, Note_on_c, 9, 42, 56
1, 7512, Note_on_c, 9, 81, 27
1, 7512, Note_on_c, 15, 69, 80
1, 7516, Note_on_c, 9, 81, 0
1, 7516, Note_on_c, 8, 54, 0
1, 7516, Note_on_c, 9, 42, 0
1, 7518, Note_on_c, 6, 49, 0
1, 7535, Note_on_c, 3, 63, 0
1, 7536, Note_on_c, 3, 61, 100
1, 7536, Note_on_c, 5, 90, 79
1, 7536, Note_on_c, 8, 57, 104
1, 7536, Note_on_c, 9, 81, 31
1, 7536, Note_on_c, 15, 57, 74
1, 7536, Lyric_t, "we "
1, 7537, Note_on_c, 15, 69, 0
1, 7540, Note_on_c, 9, 81, 0
1, 7552, Note_on_c, 3, 61, 0
1, 7554, Note_on_c, 15, 57, 0
1, 7555, Note_on_c, 5, 90, 0
1, 7560, Note_on_c, 3, 61, 104
1, 7560, Note_on_c, 9, 42, 77
1, 7560, Note_on_c, 9, 81, 28
1, 7560, Note_on_c, 15, 64, 78
1, 7560, Lyric_t, "got "
1, 7564, Note_on_c, 9, 81, 0
1, 7564, Note_on_c, 9, 42, 0
1, 7567, Note_on_c, 5, 92, 75
1, 7583, Note_on_c, 9, 84, 17
1, 7584, Note_on_c, 5, 93, 73
1, 7584, Note_on_c, 9, 37, 76
1, 7584, Note_on_c, 9, 40, 95
1, 7584, Note_on_c, 9, 39, 49
1, 7584, Note_on_c, 15, 61, 73
1, 7584, Note_on_c, 15, 57, 76
1, 7585, Note_on_c, 15, 64, 0
1, 7587, Note_on_c, 3, 61, 0
1, 7587, Note_on_c, 9, 84, 0
1, 7588, Note_on_c, 5, 92, 0
1, 7588, Note_on_c, 9, 40, 0
1, 7588, Note_on_c, 9, 37, 0
1, 7588, Note_on_c, 9, 39, 0
1, 7603, Note_on_c, 5, 93, 0
1, 7603, Note_on_c, 15, 57, 0
1, 7608, Note_on_c, 3, 61, 96
1, 7608, Note_on_c, 15, 57, 75
1, 7608, Lyric_t, "this "
1, 7609, Note_on_c, 15, 61, 0
1, 7630, Note_on_c, 15, 57, 0
1, 7630, Pitch_bend_c, 3, 5760
1, 7631, Note_on_c, 9, 39, 29
1, 7632, Pitch_bend_c, 3, 1920
1, 7632, Note_on_c, 5, 90, 67
1, 7632, Note_on_c, 9, 42, 76
1, 7632, Note_on_c, 9, 81, 30
1, 7632, Note_on_c, 15, 61, 80
1, 7632, Note_on_c, 15, 57, 77
1, 7635, Note_on_c, 9, 39, 0
1, 7636, Note_on_c, 9, 81, 0
1, 7636, Note_on_c, 9, 42, 0
1, 7636, Pitch_bend_c, 3, 0
1, 7637, Note_on_c, 8, 57, 0
1, 7644, Note_on_c, 3, 61, 0
1, 7648, Note_on_c, 15, 54, 0
1, 7649, Note_on_c, 15, 57, 0
1, 7651, Note_on_c, 5, 90, 0
1, 7656, Pitch_bend_c, 3, 8192
1, 7656, Note_on_c, 3, 61, 101
1, 7656, Note_on_c, 8, 54, 95
1, 7656, Note_on_c, 15, 54, 79
1, 7656, Lyric_t, "straight, "
1, 7656, Lyric_t, "\015"
1, 7657, Note_on_c, 15, 61, 0
1, 7663, Note_on_c, 5, 92, 63
1, 7677, Note_on_c, 8, 54, 0
1, 7680, Note_on_c, 15, 54, 0
1, 7680, Note_on_c, 1, 42, 91
1, 7680, Note_on_c, 5, 93, 61
1, 7680, Note_on_c, 7, 42, 85
1, 7680, Note_on_c, 8, 54, 104
1, 7680, Note_on_c, 9, 36, 97
1, 7680, Note_on_c, 9, 81, 30
1, 7680, Note_on_c, 10, 42, 56
1, 7680, Note_on_c, 11, 42, 63
1, 7680, Note_on_c, 15, 66, 73
1, 7684, Note_on_c, 9, 81, 0
1, 7684, Note_on_c, 9, 36, 0
1, 7688, Note_on_c, 5, 92, 0
1, 7703, Note_on_c, 15, 57, 73
1, 7709, Note_on_c, 5, 93, 0
1, 7715, Control_c, 3, 1, 12
1, 7718, Note_on_c, 10, 42, 0
1, 7718, Note_on_c, 11, 42, 0
1, 7718, Note_on_c, 1, 42, 0
1, 7719, Control_c, 3, 1, 24
1, 7722, Note_on_c, 15, 57, 0
1, 7723, Control_c, 3, 1, 43
1, 7727, Note_on_c, 9, 81, 27
1, 7727, Note_on_c, 15, 61, 72
1, 7728, Control_c, 3, 1, 54
1, 7731, Note_on_c, 9, 81, 0
1, 7732, Control_c, 3, 1, 61
1, 7737, Control_c, 3, 1, 64
1, 7746, Note_on_c, 3, 61, 0
1, 7748, Control_c, 3, 1, 61
1, 7751, Note_on_c, 7, 42, 0
1, 7751, Note_on_c, 15, 57, 80
1, 7752, Note_on_c, 3, 61, 98
1, 7752, Control_c, 3, 1, 56
1, 7752, Note_on_c, 7, 42, 73
1, 7752, Note_on_c, 9, 42, 78
1, 7752, Lyric_t, "Let's "
1, 7755, Control_c, 3, 1, 48
1, 7756, Note_on_c, 9, 42, 0
1, 7759, Control_c, 3, 1, 9
1, 7764, Control_c, 3, 1, 0
1, 7771, Note_on_c, 15, 57, 0
1, 7772, Note_on_c, 3, 61, 0
1, 7772, Note_on_c, 15, 61, 0
1, 7775, Note_on_c, 7, 42, 0
1, 7775, Note_on_c, 6, 49, 73
1, 7775, Note_on_c, 9, 42, 76
1, 7775, Note_on_c, 9, 69, 92
1, 7775, Note_on_c, 9, 81, 26
1, 7775, Note_on_c, 15, 57, 72
1, 7775, Note_on_c, 15, 64, 77
1, 7776, Note_on_c, 1, 42, 93
1, 7776, Note_on_c, 3, 64, 98
1, 7776, Note_on_c, 9, 36, 99
1, 7776, Note_on_c, 9, 37, 77
1, 7776, Note_on_c, 9, 40, 103
1, 7776, Note_on_c, 10, 42, 60
1, 7776, Note_on_c, 11, 42, 63
1, 7776, Lyric_t, "sit "
1, 7777, Note_on_c, 9, 39, 51
1, 7779, Note_on_c, 9, 81, 0
1, 7779, Note_on_c, 9, 42, 0
1, 7779, Note_on_c, 9, 69, 0
1, 7780, Note_on_c, 9, 36, 0
1, 7780, Note_on_c, 9, 40, 0
1, 7780, Note_on_c, 9, 37, 0
1, 7781, Note_on_c, 9, 39, 0
1, 7789, Note_on_c, 15, 57, 0
1, 7794, Note_on_c, 15, 64, 0
1, 7794, Note_on_c, 15, 66, 0
1, 7797, Note_on_c, 3, 64, 0
1, 7799, Note_on_c, 9, 81, 26
1, 7800, Note_on_c, 6, 49, 0
1, 7800, Note_on_c, 15, 68, 73
1, 7803, Note_on_c, 9, 81, 0
1, 7808, Note_on_c, 10, 42, 0
1, 7808, Note_on_c, 1, 42, 0
1, 7808, Note_on_c, 11, 42, 0
1, 7813, Note_on_c, 8, 54, 0
1, 7821, Note_on_c, 15, 68, 0
1, 7823, Note_on_c, 3, 64, 96
1, 7823, Note_on_c, 8, 57, 95
1, 7823, Note_on_c, 9, 69, 92
1, 7823, Note_on_c, 9, 81, 24
1, 7823, Note_on_c, 9, 42, 77
1, 7823, Lyric_t, "and "
1, 7824, Note_on_c, 6, 47, 79
1, 7824, Note_on_c, 7, 42, 71
1, 7824, Note_on_c, 9, 39, 28
1, 7824, Note_on_c, 15, 57, 81
1, 7827, Note_on_c, 9, 42, 0
1, 7827, Note_on_c, 9, 81, 0
1, 7827, Note_on_c, 9, 69, 0
1, 7828, Note_on_c, 9, 39, 0
1, 7840, Note_on_c, 15, 57, 0
1, 7843, Note_on_c, 8, 57, 0
1, 7845, Note_on_c, 7, 42, 0
1, 7846, Note_on_c, 6, 47, 0
1, 7847, Note_on_c, 15, 69, 74
1, 7851, Note_on_c, 3, 64, 0
1, 7856, Note_on_c, 9, 40, 81
1, 7860, Note_on_c, 9, 40, 0
1, 7866, Note_on_c, 15, 69, 0
1, 7871, Note_on_c, 3, 63, 95
1, 7871, Note_on_c, 8, 57, 96
1, 7871, Note_on_c, 9, 42, 77
1, 7871, Lyric_t, "talk "
1, 7872, Note_on_c, 1, 42, 92
1, 7872, Note_on_c, 6, 49, 73
1, 7872, Note_on_c, 9, 36, 98
1, 7872, Note_on_c, 9, 81, 22
1, 7872, Note_on_c, 10, 42, 53
1, 7872, Note_on_c, 11, 42, 66
1, 7872, Note_on_c, 15, 57, 78
1, 7875, Note_on_c, 9, 42, 0
1, 7876, Note_on_c, 9, 81, 0
1, 7876, Note_on_c, 9, 36, 0
1, 7891, Note_on_c, 15, 57, 0
1, 7891, Note_on_c, 8, 57, 0
1, 7896, Note_on_c, 9, 42, 58
1, 7896, Note_on_c, 9, 81, 22
1, 7896, Note_on_c, 15, 64, 73
1, 7900, Note_on_c, 9, 81, 0
1, 7900, Note_on_c, 9, 42, 0
1, 7901, Note_on_c, 6, 49, 0
1, 7902, Note_on_c, 10, 42, 0
1, 7902, Note_on_c, 11, 42, 0
1, 7902, Note_on_c, 1, 42, 0
1, 7914, Note_on_c, 15, 64, 0
1, 7916, Pitch_bend_c, 3, 7168
1, 7919, Note_on_c, 8, 57, 102
1, 7919, Note_on_c, 9, 69, 96
1, 7919, Note_on_c, 15, 57, 73
1, 7920, Pitch_bend_c, 3, 6144
1, 7920, Note_on_c, 7, 42, 67
1, 7920, Note_on_c, 9, 81, 28
1, 7923, Note_on_c, 9, 69, 0
1, 7924, Note_on_c, 9, 81, 0
1, 7924, Pitch_bend_c, 3, 5504
1, 7926, Pitch_bend_c, 3, 4864
1, 7931, Note_on_c, 7, 42, 0
1, 7936, Note_on_c, 3, 63, 0
1, 7937, Note_on_c, 15, 57, 0
1, 7938, Note_on_c, 8, 57, 0
1, 7941, Pitch_bend_c, 3, 8192
1, 7944, Note_on_c, 3, 61, 97
1, 7944, Note_on_c, 9, 81, 25
1, 7944, Note_on_c, 15, 61, 75
1, 7944, Lyric_t, "face "
1, 7948, Note_on_c, 9, 81, 0
1, 7964, Note_on_c, 15, 61, 0
1, 7966, Note_on_c, 3, 61, 0
1, 7967, Note_on_c, 8, 54, 99
1, 7967, Note_on_c, 15, 54, 72
1, 7968, Tempo, 645161
1, 7968, Note_on_c, 1, 44, 89
1, 7968, Note_on_c, 9, 36, 102
1, 7968, Note_on_c, 9, 37, 79
1, 7968, Note_on_c, 9, 40, 98
1, 7968, Note_on_c, 9, 39, 57
1, 7968, Note_on_c, 10, 44, 57
1, 7968, Note_on_c, 11, 44, 60
1, 7972, Note_on_c, 9, 39, 0
1, 7972, Note_on_c, 9, 36, 0
1, 7972, Note_on_c, 9, 40, 0
1, 7972, Note_on_c, 9, 37, 0
1, 7991, Note_on_c, 15, 61, 73
1, 7992, Note_on_c, 3, 59, 99
1, 7992, Lyric_t, "to "
1, 8002, Note_on_c, 11, 44, 0
1, 8002, Note_on_c, 1, 44, 0
1, 8010, Note_on_c, 3, 59, 0
1, 8012, Note_on_c, 10, 44, 0
1, 8014, Note_on_c, 15, 61, 0
1, 8014, Note_on_c, 15, 64, 74
1, 8015, Note_on_c, 15, 54, 0
1, 8015, Note_on_c, 1, 39, 90
1, 8015, Note_on_c, 9, 36, 97
1, 8015, Note_on_c, 9, 39, 28
1, 8015, Note_on_c, 11, 39, 68
1, 8016, Note_on_c, 9, 81, 29
1, 8017, Note_on_c, 9, 42, 78
1, 8018, Note_on_c, 10, 39, 59
1, 8019, Note_on_c, 9, 39, 0
1, 8019, Note_on_c, 9, 36, 0
1, 8020, Note_on_c, 9, 81, 0
1, 8021, Note_on_c, 9, 42, 0
1, 8039, Note_on_c, 15, 64, 0
1, 8039, Note_on_c, 15, 68, 78
1, 8040, Note_on_c, 3, 61, 96
1, 8040, Lyric_t, "face, "
1, 8040, Lyric_t, "\015"
1, 8040, Lyric_t, "\012"
1, 8049, Note_on_c, 11, 39, 0
1, 8049, Note_on_c, 1, 39, 0
1, 8052, Note_on_c, 8, 54, 0
1, 8056, Note_on_c, 15, 68, 0
1, 8060, Note_on_c, 10, 39, 0
1, 8064, Note_on_c, 1, 37, 89
1, 8064, Note_on_c, 9, 36, 97
1, 8064, Note_on_c, 9, 49, 28
1, 8064, Note_on_c, 9, 81, 22
1, 8064, Note_on_c, 9, 42, 76
1, 8064, Note_on_c, 9, 84, 21
1, 8064, Note_on_c, 10, 37, 56
1, 8064, Note_on_c, 11, 37, 64
1, 8064, Note_on_c, 15, 49, 80
1, 8068, Note_on_c, 9, 84, 0
1, 8068, Note_on_c, 9, 49, 0
1, 8068, Note_on_c, 9, 36, 0
1, 8068, Note_on_c, 9, 42, 0
1, 8068, Note_on_c, 9, 81, 0
1, 8072, Control_c, 3, 1, 7
1, 8074, Control_c, 3, 1, 40
1, 8079, Control_c, 3, 1, 50
1, 8083, Control_c, 3, 1, 55
1, 8087, Note_on_c, 15, 56, 77
1, 8088, Note_on_c, 8, 56, 100
1, 8091, Control_c, 3, 1, 56
1, 8102, Note_on_c, 8, 56, 0
1, 8103, Note_on_c, 3, 61, 0
1, 8103, Control_c, 3, 1, 55
1, 8108, Note_on_c, 15, 56, 0
1, 8108, Control_c, 3, 1, 54
1, 8111, Note_on_c, 9, 81, 25
1, 8111, Note_on_c, 15, 59, 73
1, 8112, Control_c, 3, 1, 51
1, 8112, Note_on_c, 9, 42, 79
1, 8115, Note_on_c, 9, 81, 0
1, 8115, Control_c, 3, 1, 44
1, 8116, Note_on_c, 9, 42, 0
1, 8117, Note_on_c, 10, 37, 0
1, 8117, Note_on_c, 11, 37, 0
1, 8117, Note_on_c, 1, 37, 0
1, 8120, Control_c, 3, 1, 18
1, 8124, Control_c, 3, 1, 0
1, 8135, Note_on_c, 15, 56, 74
1, 8136, Note_on_c, 8, 56, 99
1, 8139, Note_on_c, 15, 59, 0
1, 8153, Note_on_c, 8, 56, 0
1, 8156, Note_on_c, 15, 56, 0
1, 8159, Note_on_c, 6, 49, 72
1, 8159, Note_on_c, 9, 81, 29
1, 8159, Note_on_c, 15, 63, 79
1, 8160, Note_on_c, 1, 37, 93
1, 8160, Note_on_c, 3, 59, 97
1, 8160, Note_on_c, 9, 36, 95
1, 8160, Note_on_c, 9, 37, 79
1, 8160, Note_on_c, 9, 40, 101
1, 8160, Note_on_c, 9, 69, 96
1, 8160, Note_on_c, 9, 84, 20
1, 8160, Note_on_c, 10, 37, 62
1, 8160, Note_on_c, 11, 37, 59
1, 8160, Lyric_t, "There "
1, 8161, Note_on_c, 9, 39, 57
1, 8163, Note_on_c, 9, 81, 0
1, 8164, Note_on_c, 9, 84, 0
1, 8164, Note_on_c, 9, 37, 0
1, 8164, Note_on_c, 9, 69, 0
1, 8164, Note_on_c, 9, 40, 0
1, 8164, Note_on_c, 9, 36, 0
1, 8165, Note_on_c, 9, 39, 0
1, 8181, Note_on_c, 15, 63, 0
1, 8183, Note_on_c, 6, 49, 0
1, 8183, Note_on_c, 8, 56, 103
1, 8183, Note_on_c, 9, 81, 27
1, 8183, Note_on_c, 15, 56, 74
1, 8184, Note_on_c, 3, 61, 102
1, 8184, Note_on_c, 9, 42, 78
1, 8184, Note_on_c, 9, 69, 96
1, 8184, Lyric_t, "is "
1, 8187, Note_on_c, 9, 81, 0
1, 8188, Note_on_c, 9, 69, 0
1, 8188, Note_on_c, 9, 42, 0
1, 8188, Note_on_c, 3, 59, 0
1, 8190, Note_on_c, 10, 37, 0
1, 8190, Note_on_c, 1, 37, 0
1, 8190, Note_on_c, 11, 37, 0
1, 8201, Note_on_c, 8, 56, 0
1, 8204, Note_on_c, 15, 56, 0
1, 8207, Note_on_c, 3, 63, 100
1, 8207, Note_on_c, 9, 81, 28
1, 8207, Note_on_c, 15, 59, 80
1, 8207, Lyric_t, "no "
1, 8208, Note_on_c, 3, 61, 0
1, 8208, Note_on_c, 5, 88, 87
1, 8208, Note_on_c, 6, 47, 73
1, 8208, Note_on_c, 9, 39, 24
1, 8208, Note_on_c, 9, 69, 96
1, 8211, Note_on_c, 9, 81, 0
1, 8212, Note_on_c, 9, 69, 0
1, 8212, Note_on_c, 9, 39, 0
1, 8226, Note_on_c, 5, 88, 0
1, 8231, Note_on_c, 15, 59, 0
1, 8231, Note_on_c, 3, 63, 0
1, 8231, Note_on_c, 8, 56, 100
1, 8231, Note_on_c, 15, 56, 73
1, 8232, Note_on_c, 6, 47, 0
1, 8232, Note_on_c, 9, 69, 95
1, 8236, Note_on_c, 9, 69, 0
1, 8240, Note_on_c, 5, 90, 84
1, 8241, Pitch_bend_c, 3, 16382
1, 8250, Note_on_c, 8, 56, 0
1, 8255, Note_on_c, 1, 37, 88
1, 8255, Note_on_c, 3, 61, 101
1, 8255, Note_on_c, 5, 92, 82
1, 8255, Note_on_c, 9, 36, 102
1, 8255, Note_on_c, 9, 84, 21
1, 8255, Note_on_c, 10, 37, 60
1, 8255, Note_on_c, 11, 37, 68
1, 8255, Note_on_c, 15, 63, 79
1, 8255, Lyric_t, "way "
1, 8256, Note_on_c, 15, 56, 0
1, 8256, Note_on_c, 6, 49, 75
1, 8256, Note_on_c, 9, 42, 78
1, 8256, Note_on_c, 9, 69, 95
1, 8256, Note_on_c, 9, 81, 22
1, 8257, Note_on_c, 5, 90, 0
1, 8259, Note_on_c, 9, 84, 0
1, 8259, Note_on_c, 9, 36, 0
1, 8260, Note_on_c, 9, 42, 0
1, 8260, Note_on_c, 9, 69, 0
1, 8260, Note_on_c, 9, 81, 0
1, 8270, Note_on_c, 5, 92, 0
1, 8274, Note_on_c, 15, 63, 0
1, 8274, Control_c, 3, 1, 15
1, 8277, Control_c, 3, 1, 39
1, 8279, Note_on_c, 3, 61, 0
1, 8279, Pitch_bend_c, 3, 15212
1, 8279, Note_on_c, 8, 56, 97
1, 8279, Note_on_c, 15, 56, 73
1, 8280, Note_on_c, 3, 61, 101
1, 8280, Pitch_bend_c, 3, 6400
1, 8280, Note_on_c, 9, 42, 55
1, 8280, Note_on_c, 9, 81, 27
1, 8280, Lyric_t, "you "
1, 8281, Control_c, 3, 1, 45
1, 8283, Pitch_bend_c, 3, 8192
1, 8284, Note_on_c, 9, 81, 0
1, 8284, Note_on_c, 9, 42, 0
1, 8286, Note_on_c, 6, 49, 0
1, 8287, Control_c, 3, 1, 46
1, 8292, Note_on_c, 1, 37, 0
1, 8292, Note_on_c, 11, 37, 0
1, 8292, Note_on_c, 10, 37, 0
1, 8292, Control_c, 3, 1, 45
1, 8293, Note_on_c, 15, 56, 0
1, 8296, Control_c, 3, 1, 44
1, 8298, Note_on_c, 8, 56, 0
1, 8303, Note_on_c, 15, 56, 74
1, 8303, Note_on_c, 15, 61, 73
1, 8304, Note_on_c, 3, 61, 0
1, 8304, Note_on_c, 5, 88, 77
1, 8304, Note_on_c, 9, 81, 27
1, 8308, Note_on_c, 9, 81, 0
1, 8311, Control_c, 3, 1, 43
1, 8313, Control_c, 3, 1, 31
1, 8314, Note_on_c, 15, 61, 0
1, 8317, Note_on_c, 15, 56, 0
1, 8317, Control_c, 3, 1, 0
1, 8319, Note_on_c, 5, 88, 0
1, 8327, Note_on_c, 15, 56, 76
1, 8327, Note_on_c, 15, 64, 76
1, 8328, Note_on_c, 3, 61, 104
1, 8328, Note_on_c, 8, 56, 98
1, 8328, Note_on_c, 9, 42, 84
1, 8328, Note_on_c, 9, 81, 22
1, 8328, Lyric_t, "could "
1, 8332, Note_on_c, 9, 81, 0
1, 8332, Note_on_c, 9, 42, 0
1, 8336, Note_on_c, 5, 90, 73
1, 8341, Note_on_c, 8, 56, 0
1, 8343, Note_on_c, 15, 64, 0
1, 8349, Note_on_c, 5, 90, 0
1, 8351, Note_on_c, 5, 92, 71
1, 8352, Note_on_c, 1, 37, 85
1, 8352, Note_on_c, 8, 56, 95
1, 8352, Note_on_c, 9, 36, 102
1, 8352, Note_on_c, 9, 37, 78
1, 8352, Note_on_c, 9, 40, 96
1, 8352, Note_on_c, 9, 39, 56
1, 8352, Note_on_c, 9, 84, 16
1, 8352, Note_on_c, 10, 37, 59
1, 8352, Note_on_c, 11, 37, 63
1, 8353, Note_on_c, 3, 61, 0
1, 8355, Note_on_c, 15, 49, 0
1, 8356, Note_on_c, 9, 84, 0
1, 8356, Note_on_c, 9, 40, 0
1, 8356, Note_on_c, 9, 37, 0
1, 8356, Note_on_c, 9, 39, 0
1, 8356, Note_on_c, 9, 36, 0
1, 8365, Note_on_c, 5, 92, 0
1, 8367, Note_on_c, 15, 56, 0
1, 8375, Note_on_c, 15, 66, 76
1, 8376, Note_on_c, 3, 59, 99
1, 8376, Lyric_t, "mis"
1, 8378, Note_on_c, 8, 56, 0
1, 8385, Note_on_c, 10, 37, 0
1, 8385, Note_on_c, 11, 37, 0
1, 8385, Note_on_c, 1, 37, 0
1, 8399, Note_on_c, 5, 88, 66
1, 8399, Note_on_c, 8, 56, 98
1, 8399, Note_on_c, 9, 39, 25
1, 8399, Note_on_c, 15, 56, 80
1, 8400, Note_on_c, 9, 42, 81
1, 8400, Note_on_c, 9, 81, 23
1, 8401, Note_on_c, 15, 66, 0
1, 8402, Note_on_c, 3, 59, 0
1, 8403, Note_on_c, 9, 39, 0
1, 8404, Note_on_c, 9, 81, 0
1, 8404, Note_on_c, 9, 42, 0
1, 8414, Note_on_c, 5, 88, 0
1, 8422, Note_on_c, 8, 56, 0
1, 8424, Note_on_c, 15, 56, 0
1, 8424, Note_on_c, 3, 61, 103
1, 8424, Lyric_t, "take, "
1, 8424, Lyric_t, "\015"
1, 8432, Note_on_c, 5, 90, 62
1, 8443, Note_on_c, 5, 90, 0
1, 8446, Control_c, 3, 1, 13
1, 8447, Note_on_c, 5, 92, 61
1, 8448, Note_on_c, 1, 37, 87
1, 8448, Control_c, 3, 1, 41
1, 8448, Note_on_c, 7, 37, 90
1, 8448, Note_on_c, 9, 36, 102
1, 8448, Note_on_c, 9, 81, 29
1, 8448, Note_on_c, 10, 37, 60
1, 8448, Note_on_c, 11, 37, 63
1, 8448, Note_on_c, 15, 59, 81
1, 8452, Note_on_c, 9, 81, 0
1, 8452, Note_on_c, 9, 36, 0
1, 8452, Control_c, 3, 1, 51
1, 8457, Control_c, 3, 1, 53
1, 8461, Note_on_c, 5, 92, 0
1, 8468, Control_c, 3, 1, 52
1, 8471, Note_on_c, 15, 64, 73
1, 8472, Note_on_c, 8, 64, 98
1, 8481, Note_on_c, 15, 59, 0
1, 8489, Note_on_c, 8, 64, 0
1, 8490, Note_on_c, 3, 61, 0
1, 8495, Note_on_c, 9, 81, 29
1, 8496, Note_on_c, 15, 64, 0
1, 8496, Note_on_c, 15, 59, 79
1, 8499, Note_on_c, 9, 81, 0
1, 8501, Note_on_c, 11, 37, 0
1, 8501, Note_on_c, 10, 37, 0
1, 8501, Note_on_c, 1, 37, 0
1, 8501, Control_c, 3, 1, 51
1, 8503, Control_c, 3, 1, 43
1, 8506, Control_c, 3, 1, 1
1, 8514, Note_on_c, 7, 37, 0
1, 8519, Note_on_c, 15, 61, 78
1, 8520, Note_on_c, 7, 37, 76
1, 8520, Note_on_c, 8, 63, 102
1, 8520, Note_on_c, 9, 42, 83
1, 8524, Note_on_c, 9, 42, 0
1, 8530, Note_on_c, 15, 59, 0
1, 8537, Note_on_c, 8, 63, 0
1, 8538, Note_on_c, 15, 61, 0
1, 8543, Note_on_c, 6, 49, 74
1, 8543, Note_on_c, 9, 42, 79
1, 8543, Note_on_c, 9, 69, 98
1, 8543, Note_on_c, 9, 81, 28
1, 8544, Note_on_c, 1, 37, 90
1, 8544, Note_on_c, 3, 59, 104
1, 8544, Note_on_c, 9, 36, 103
1, 8544, Note_on_c, 9, 37, 72
1, 8544, Note_on_c, 9, 40, 99
1, 8544, Note_on_c, 10, 37, 58
1, 8544, Note_on_c, 11, 37, 62
1, 8544, Note_on_c, 15, 64, 76
1, 8544, Lyric_t, "Oh "
1, 8545, Note_on_c, 9, 39, 54
1, 8547, Note_on_c, 9, 81, 0
1, 8547, Note_on_c, 9, 69, 0
1, 8547, Note_on_c, 9, 42, 0
1, 8548, Note_on_c, 9, 37, 0
1, 8548, Note_on_c, 9, 36, 0
1, 8548, Note_on_c, 9, 40, 0
1, 8549, Note_on_c, 9, 39, 0
1, 8550, Note_on_c, 7, 37, 0
1, 8567, Note_on_c, 3, 59, 0
1, 8567, Note_on_c, 9, 81, 28
1, 8567, Note_on_c, 15, 68, 72
1, 8568, Note_on_c, 6, 49, 0
1, 8568, Note_on_c, 3, 61, 97
1, 8568, Note_on_c, 8, 63, 97
1, 8568, Lyric_t, "boy, "
1, 8571, Note_on_c, 9, 81, 0
1, 8578, Note_on_c, 15, 64, 0
1, 8582, Note_on_c, 1, 37, 0
1, 8582, Note_on_c, 11, 37, 0
1, 8582, Note_on_c, 10, 37, 0
1, 8585, Note_on_c, 3, 61, 0
1, 8585, Note_on_c, 8, 63, 0
1, 8591, Note_on_c, 3, 63, 95
1, 8591, Note_on_c, 9, 69, 98
1, 8591, Note_on_c, 9, 81, 30
1, 8591, Note_on_c, 9, 42, 81
1, 8591, Note_on_c, 15, 63, 79
1, 8591, Lyric_t, "oh "
1, 8592, Note_on_c, 6, 47, 79
1, 8592, Note_on_c, 9, 39, 24
1, 8595, Note_on_c, 9, 42, 0
1, 8595, Note_on_c, 9, 81, 0
1, 8595, Note_on_c, 9, 69, 0
1, 8596, Note_on_c, 9, 39, 0
1, 8614, Note_on_c, 6, 47, 0
1, 8615, Note_on_c, 15, 64, 80
1, 8616, Note_on_c, 8, 64, 98
1, 8620, Note_on_c, 3, 63, 0
1, 8624, Note_on_c, 9, 40, 75
1, 8628, Note_on_c, 9, 40, 0
1, 8631, Note_on_c, 8, 64, 0
1, 8631, Note_on_c, 15, 63, 0
1, 8636, Note_on_c, 15, 68, 0
1, 8637, Note_on_c, 15, 64, 0
1, 8639, Note_on_c, 1, 37, 91
1, 8639, Note_on_c, 3, 63, 104
1, 8639, Note_on_c, 9, 42, 83
1, 8639, Note_on_c, 9, 36, 98
1, 8639, Note_on_c, 10, 37, 57
1, 8639, Note_on_c, 11, 37, 65
1, 8639, Note_on_c, 15, 71, 74
1, 8639, Lyric_t, "man "
1, 8640, Note_on_c, 6, 49, 74
1, 8640, Note_on_c, 9, 81, 26
1, 8643, Note_on_c, 9, 36, 0
1, 8643, Note_on_c, 9, 42, 0
1, 8644, Note_on_c, 9, 81, 0
1, 8663, Note_on_c, 8, 64, 95
1, 8663, Note_on_c, 9, 38, 51
1, 8663, Note_on_c, 15, 64, 80
1, 8664, Note_on_c, 9, 42, 55
1, 8664, Note_on_c, 9, 81, 26
1, 8665, Pitch_bend_c, 3, 6528
1, 8667, Note_on_c, 9, 38, 0
1, 8668, Note_on_c, 9, 81, 0
1, 8668, Note_on_c, 9, 42, 0
1, 8669, Note_on_c, 6, 49, 0
1, 8669, Pitch_bend_c, 3, 5632
1, 8672, Pitch_bend_c, 3, 4480
1, 8675, Pitch_bend_c, 3, 3968
1, 8676, Note_on_c, 10, 37, 0
1, 8676, Note_on_c, 11, 37, 0
1, 8676, Note_on_c, 1, 37, 0
1, 8680, Pitch_bend_c, 3, 3840
1, 8683, Note_on_c, 8, 64, 0
1, 8683, Pitch_bend_c, 3, 4480
1, 8684, Note_on_c, 3, 63, 0
1, 8686, Pitch_bend_c, 3, 8192
1, 8687, Note_on_c, 9, 69, 99
1, 8687, Note_on_c, 15, 68, 73
1, 8688, Note_on_c, 3, 61, 95
1, 8688, Note_on_c, 7, 37, 74
1, 8688, Note_on_c, 9, 38, 53
1, 8688, Note_on_c, 9, 81, 28
1, 8688, Lyric_t, "are "
1, 8690, Note_on_c, 15, 71, 0
1, 8690, Note_on_c, 15, 64, 0
1, 8691, Note_on_c, 9, 69, 0
1, 8692, Note_on_c, 9, 81, 0
1, 8692, Note_on_c, 9, 38, 0
1, 8702, Note_on_c, 3, 61, 0
1, 8705, Note_on_c, 7, 37, 0
1, 8711, Note_on_c, 15, 75, 78
1, 8712, Note_on_c, 3, 61, 104
1, 8712, Note_on_c, 9, 38, 52
1, 8712, Note_on_c, 9, 81, 24
1, 8712, Note_on_c, 15, 71, 75
1, 8712, Lyric_t, "you "
1, 8713, Note_on_c, 15, 68, 0
1, 8716, Note_on_c, 9, 81, 0
1, 8716, Note_on_c, 9, 38, 0
1, 8732, Note_on_c, 15, 71, 0
1, 8733, Note_on_c, 3, 61, 0
1, 8735, Note_on_c, 15, 71, 77
1, 8736, Tempo, 652174
1, 8736, Note_on_c, 1, 40, 90
1, 8736, Note_on_c, 9, 36, 100
1, 8736, Note_on_c, 9, 38, 49
1, 8736, Note_on_c, 9, 37, 74
1, 8736, Note_on_c, 9, 40, 101
1, 8736, Note_on_c, 9, 39, 50
1, 8736, Note_on_c, 10, 40, 58
1, 8736, Note_on_c, 11, 40, 59
1, 8740, Note_on_c, 9, 39, 0
1, 8740, Note_on_c, 9, 40, 0
1, 8740, Note_on_c, 9, 36, 0
1, 8740, Note_on_c, 9, 37, 0
1, 8740, Note_on_c, 9, 38, 0
1, 8759, Note_on_c, 3, 59, 99
1, 8759, Lyric_t, "in"
1, 8760, Note_on_c, 7, 37, 71
1, 8760, Note_on_c, 15, 80, 77
1, 8777, Note_on_c, 7, 37, 0
1, 8777, Note_on_c, 15, 71, 0
1, 8780, Note_on_c, 15, 75, 0
1, 8783, Note_on_c, 1, 40, 0
1, 8783, Note_on_c, 10, 40, 0
1, 8783, Note_on_c, 11, 40, 0
1, 8783, Note_on_c, 9, 39, 30
1, 8784, Note_on_c, 1, 44, 91
1, 8784, Note_on_c, 9, 36, 103
1, 8784, Note_on_c, 9, 81, 25
1, 8784, Note_on_c, 10, 44, 57
1, 8784, Note_on_c, 11, 44, 62
1, 8784, Note_on_c, 15, 61, 78
1, 8784, Note_on_c, 15, 71, 81
1, 8785, Note_on_c, 9, 42, 78
1, 8786, Note_on_c, 3, 59, 0
1, 8787, Note_on_c, 9, 39, 0
1, 8788, Note_on_c, 9, 36, 0
1, 8788, Note_on_c, 9, 81, 0
1, 8789, Note_on_c, 9, 42, 0
1, 8791, Note_on_c, 15, 80, 0
1, 8804, Pitch_bend_c, 3, 16382
1, 8808, Note_on_c, 3, 59, 101
1, 8808, Note_on_c, 15, 83, 81
1, 8808, Note_on_c, 15, 56, 73
1, 8808, Lyric_t, "sane? "
1, 8808, Lyric_t, "\015"
1, 8808, Lyric_t, "\012"
1, 8810, Note_on_c, 15, 61, 0
1, 8820, Note_on_c, 15, 71, 0
1, 8826, Note_on_c, 1, 44, 0
1, 8826, Note_on_c, 11, 44, 0
1, 8826, Note_on_c, 10, 44, 0
1, 8829, Note_on_c, 15, 56, 0
1, 8832, Note_on_c, 1, 42, 91
1, 8832, Note_on_c, 8, 54, 98
1, 8832, Note_on_c, 9, 36, 99
1, 8832, Note_on_c, 9, 49, 29
1, 8832, Note_on_c, 9, 81, 25
1, 8832, Note_on_c, 9, 42, 83
1, 8832, Note_on_c, 9, 84, 16
1, 8832, Note_on_c, 10, 42, 60
1, 8832, Note_on_c, 11, 42, 65
1, 8832, Note_on_c, 15, 54, 80
1, 8835, Note_on_c, 15, 83, 0
1, 8836, Note_on_c, 9, 84, 0
1, 8836, Note_on_c, 9, 42, 0
1, 8836, Note_on_c, 9, 36, 0
1, 8836, Note_on_c, 9, 81, 0
1, 8836, Note_on_c, 9, 49, 0
1, 8856, Pitch_bend_c, 3, 8192
1, 8856, Note_on_c, 15, 57, 76
1, 8870, Note_on_c, 10, 42, 0
1, 8870, Note_on_c, 11, 42, 0
1, 8870, Note_on_c, 1, 42, 0
1, 8877, Note_on_c, 15, 57, 0
1, 8879, Note_on_c, 9, 81, 27
1, 8880, Pitch_bend_c, 3, 0
1, 8880, Note_on_c, 9, 42, 76
1, 8880, Note_on_c, 15, 61, 76
1, 8883, Note_on_c, 9, 81, 0
1, 8884, Note_on_c, 9, 42, 0
1, 8896, Control_c, 3, 11, 127
1, 8900, Control_c, 3, 11, 125
1, 8904, Pitch_bend_c, 2, 8192
1, 8904, Control_c, 2, 1, 0
1, 8904, Note_on_c, 2, 64, 103
1, 8904, Control_c, 3, 11, 122
1, 8904, Note_on_c, 15, 64, 81
1, 8904, Lyric_t, "You "
1, 8908, Note_on_c, 15, 61, 0
1, 8908, Control_c, 3, 11, 120
1, 8912, Control_c, 3, 11, 117
1, 8914, Note_on_c, 2, 64, 0
1, 8916, Control_c, 3, 11, 112
1, 8917, Control_c, 3, 1, 7
1, 8921, Control_c, 3, 1, 23
1, 8924, Control_c, 3, 11, 109
1, 8925, Control_c, 3, 1, 36
1, 8927, Note_on_c, 6, 49, 74
1, 8927, Note_on_c, 9, 81, 24
1, 8928, Note_on_c, 15, 64, 0
1, 8928, Note_on_c, 1, 42, 89
1, 8928, Note_on_c, 2, 64, 104
1, 8928, Control_c, 3, 11, 107
1, 8928, Note_on_c, 9, 36, 102
1, 8928, Note_on_c, 9, 37, 75
1, 8928, Note_on_c, 9, 40, 98
1, 8928, Note_on_c, 9, 69, 99
1, 8928, Note_on_c, 9, 84, 15
1, 8928, Note_on_c, 10, 42, 61
1, 8928, Note_on_c, 11, 42, 65
1, 8928, Note_on_c, 15, 68, 79
1, 8928, Lyric_t, "see "
1, 8929, Control_c, 3, 1, 45
1, 8929, Note_on_c, 9, 39, 54
1, 8931, Note_on_c, 9, 81, 0
1, 8932, Note_on_c, 9, 69, 0
1, 8932, Note_on_c, 9, 36, 0
1, 8932, Note_on_c, 9, 40, 0
1, 8932, Note_on_c, 9, 37, 0
1, 8932, Note_on_c, 9, 84, 0
1, 8932, Control_c, 3, 11, 104
1, 8933, Note_on_c, 9, 39, 0
1, 8934, Control_c, 3, 1, 48
1, 8936, Control_c, 3, 11, 102
1, 8940, Control_c, 3, 11, 99
1, 8940, Control_c, 3, 1, 49
1, 8944, Control_c, 3, 11, 96
1, 8948, Control_c, 3, 11, 94
1, 8951, Note_on_c, 6, 49, 0
1, 8951, Note_on_c, 9, 81, 31
1, 8952, Control_c, 3, 1, 50
1, 8952, Control_c, 3, 11, 89
1, 8952, Note_on_c, 9, 42, 82
1, 8952, Note_on_c, 9, 69, 95
1, 8952, Note_on_c, 15, 64, 76
1, 8955, Note_on_c, 9, 81, 0
1, 8955, Note_on_c, 15, 68, 0
1, 8956, Note_on_c, 9, 69, 0
1, 8956, Note_on_c, 9, 42, 0
1, 8959, Note_on_c, 2, 64, 0
1, 8960, Note_on_c, 11, 42, 0
1, 8960, Note_on_c, 10, 42, 0
1, 8960, Note_on_c, 1, 42, 0
1, 8960, Control_c, 3, 11, 86
1, 8961, Control_c, 3, 1, 51
1, 8963, Note_on_c, 8, 54, 0
1, 8964, Control_c, 3, 11, 83
1, 8968, Control_c, 3, 11, 81
1, 8972, Control_c, 3, 11, 78
1, 8975, Note_on_c, 9, 81, 27
1, 8976, Note_on_c, 2, 64, 104
1, 8976, Control_c, 3, 11, 76
1, 8976, Note_on_c, 5, 90, 91
1, 8976, Note_on_c, 6, 47, 81
1, 8976, Note_on_c, 8, 57, 100
1, 8976, Note_on_c, 9, 39, 29
1, 8976, Note_on_c, 9, 69, 95
1, 8976, Lyric_t, "I "
1, 8977, Note_on_c, 15, 57, 75
1, 8978, Note_on_c, 15, 64, 0
1, 8979, Note_on_c, 9, 81, 0
1, 8980, Note_on_c, 9, 39, 0
1, 8980, Note_on_c, 9, 69, 0
1, 8980, Control_c, 3, 11, 73
1, 8984, Control_c, 3, 11, 70
1, 8988, Control_c, 3, 11, 65
1, 8993, Note_on_c, 5, 90, 0
1, 8995, Note_on_c, 15, 57, 0
1, 8996, Note_on_c, 3, 59, 0
1, 8996, Control_c, 3, 11, 63
1, 8999, Note_on_c, 15, 61, 76
1, 9000, Note_on_c, 6, 47, 0
1, 9000, Control_c, 3, 11, 60
1, 9000, Note_on_c, 9, 69, 99
1, 9004, Note_on_c, 9, 69, 0
1, 9004, Control_c, 3, 11, 57
1, 9006, Note_on_c, 8, 57, 0
1, 9007, Control_c, 3, 1, 50
1, 9007, Note_on_c, 5, 92, 87
1, 9008, Control_c, 3, 11, 55
1, 9009, Note_on_c, 2, 64, 0
1, 9010, Note_on_c, 15, 54, 0
1, 9012, Control_c, 3, 11, 52
1, 9015, Note_on_c, 15, 61, 0
1, 9015, Control_c, 3, 1, 44
1, 9016, Control_c, 3, 11, 50
1, 9019, Control_c, 3, 1, 27
1, 9020, Control_c, 3, 11, 47
1, 9023, Note_on_c, 9, 84, 17
1, 9024, Note_on_c, 1, 42, 85
1, 9024, Note_on_c, 2, 63, 103
1, 9024, Control_c, 3, 11, 42
1, 9024, Control_c, 3, 1, 2
1, 9024, Note_on_c, 5, 93, 85
1, 9024, Note_on_c, 6, 49, 75
1, 9024, Note_on_c, 8, 54, 104
1, 9024, Note_on_c, 9, 36, 97
1, 9024, Note_on_c, 9, 42, 78
1, 9024, Note_on_c, 9, 69, 97
1, 9024, Note_on_c, 9, 81, 26
1, 9024, Note_on_c, 10, 42, 57
1, 9024, Note_on_c, 11, 42, 65
1, 9024, Note_on_c, 15, 54, 75
1, 9024, Lyric_t, "know "
1, 9027, Note_on_c, 9, 84, 0
1, 9028, Note_on_c, 9, 81, 0
1, 9028, Note_on_c, 9, 36, 0
1, 9028, Note_on_c, 5, 92, 0
1, 9028, Note_on_c, 9, 69, 0
1, 9028, Note_on_c, 9, 42, 0
1, 9028, Control_c, 3, 1, 0
1, 9032, Control_c, 3, 11, 39
1, 9036, Control_c, 3, 11, 37
1, 9040, Control_c, 3, 11, 127
1, 9043, Note_on_c, 5, 93, 0
1, 9048, Note_on_c, 9, 42, 56
1, 9048, Note_on_c, 9, 81, 28
1, 9048, Note_on_c, 15, 69, 81
1, 9052, Note_on_c, 9, 81, 0
1, 9052, Note_on_c, 9, 42, 0
1, 9052, Note_on_c, 8, 54, 0
1, 9054, Note_on_c, 10, 42, 0
1, 9054, Note_on_c, 6, 49, 0
1, 9054, Note_on_c, 1, 42, 0
1, 9054, Note_on_c, 11, 42, 0
1, 9064, Note_on_c, 2, 63, 0
1, 9072, Note_on_c, 2, 61, 101
1, 9072, Note_on_c, 5, 90, 79
1, 9072, Note_on_c, 8, 57, 99
1, 9072, Note_on_c, 9, 81, 22
1, 9072, Note_on_c, 15, 57, 80
1, 9072, Lyric_t, "that "
1, 9073, Note_on_c, 15, 69, 0
1, 9076, Note_on_c, 9, 81, 0
1, 9081, Pitch_bend_c, 3, 8192
1, 9084, Note_on_c, 2, 61, 0
1, 9090, Note_on_c, 15, 57, 0
1, 9091, Note_on_c, 5, 90, 0
1, 9096, Note_on_c, 2, 61, 103
1, 9096, Note_on_c, 9, 42, 84
1, 9096, Note_on_c, 9, 81, 31
1, 9096, Note_on_c, 15, 64, 78
1, 9096, Lyric_t, "you "
1, 9100, Note_on_c, 9, 81, 0
1, 9100, Note_on_c, 9, 42, 0
1, 9103, Note_on_c, 5, 92, 75
1, 9119, Note_on_c, 9, 84, 18
1, 9120, Note_on_c, 1, 42, 92
1, 9120, Note_on_c, 5, 93, 73
1, 9120, Note_on_c, 9, 36, 102
1, 9120, Note_on_c, 9, 37, 80
1, 9120, Note_on_c, 9, 40, 97
1, 9120, Note_on_c, 9, 39, 50
1, 9120, Note_on_c, 10, 42, 56
1, 9120, Note_on_c, 11, 42, 61
1, 9120, Note_on_c, 15, 61, 72
1, 9120, Note_on_c, 15, 57, 80
1, 9121, Note_on_c, 15, 64, 0
1, 9123, Note_on_c, 9, 84, 0
1, 9124, Note_on_c, 9, 40, 0
1, 9124, Note_on_c, 5, 92, 0
1, 9124, Note_on_c, 9, 37, 0
1, 9124, Note_on_c, 2, 61, 0
1, 9124, Note_on_c, 9, 36, 0
1, 9124, Note_on_c, 9, 39, 0
1, 9139, Note_on_c, 15, 57, 0
1, 9139, Note_on_c, 5, 93, 0
1, 9144, Note_on_c, 2, 59, 99
1, 9144, Note_on_c, 15, 57, 81
1, 9144, Lyric_t, "may"
1, 9145, Note_on_c, 15, 61, 0
1, 9154, Note_on_c, 11, 42, 0
1, 9154, Note_on_c, 1, 42, 0
1, 9154, Note_on_c, 10, 42, 0
1, 9166, Note_on_c, 15, 57, 0
1, 9167, Note_on_c, 9, 39, 29
1, 9168, Note_on_c, 5, 90, 67
1, 9168, Note_on_c, 9, 42, 82
1, 9168, Note_on_c, 9, 81, 24
1, 9168, Note_on_c, 15, 61, 79
1, 9168, Note_on_c, 15, 57, 79
1, 9171, Note_on_c, 9, 39, 0
1, 9172, Note_on_c, 9, 81, 0
1, 9172, Note_on_c, 9, 42, 0
1, 9173, Note_on_c, 8, 57, 0
1, 9174, Note_on_c, 2, 59, 0
1, 9184, Note_on_c, 15, 54, 0
1, 9185, Note_on_c, 15, 57, 0
1, 9187, Note_on_c, 5, 90, 0
1, 9191, Note_on_c, 2, 61, 97
1, 9191, Lyric_t, "be "
1, 9191, Lyric_t, "\015"
1, 9192, Note_on_c, 8, 54, 99
1, 9192, Note_on_c, 15, 54, 76
1, 9193, Note_on_c, 15, 61, 0
1, 9199, Note_on_c, 5, 92, 63
1, 9213, Note_on_c, 8, 54, 0
1, 9216, Tempo, 645161
1, 9216, Note_on_c, 15, 54, 0
1, 9216, Note_on_c, 1, 42, 86
1, 9216, Note_on_c, 5, 93, 61
1, 9216, Note_on_c, 7, 42, 86
1, 9216, Note_on_c, 8, 54, 99
1, 9216, Note_on_c, 9, 36, 104
1, 9216, Note_on_c, 9, 81, 29
1, 9216, Note_on_c, 10, 42, 57
1, 9216, Note_on_c, 11, 42, 62
1, 9216, Note_on_c, 15, 66, 74
1, 9217, Control_c, 2, 1, 2
1, 9218, Control_c, 2, 1, 24
1, 9220, Note_on_c, 9, 81, 0
1, 9220, Note_on_c, 9, 36, 0
1, 9222, Control_c, 2, 1, 45
1, 9224, Note_on_c, 5, 92, 0
1, 9226, Control_c, 2, 1, 64
1, 9232, Control_c, 2, 1, 71
1, 9233, Note_on_c, 2, 61, 0
1, 9236, Control_c, 2, 1, 72
1, 9239, Note_on_c, 15, 57, 80
1, 9245, Note_on_c, 5, 93, 0
1, 9253, Control_c, 2, 1, 71
1, 9254, Note_on_c, 10, 42, 0
1, 9254, Note_on_c, 11, 42, 0
1, 9254, Note_on_c, 1, 42, 0
1, 9255, Control_c, 2, 1, 69
1, 9258, Note_on_c, 15, 57, 0
1, 9259, Control_c, 2, 1, 62
1, 9263, Control_c, 2, 1, 41
1, 9263, Note_on_c, 9, 81, 26
1, 9263, Note_on_c, 15, 61, 72
1, 9267, Note_on_c, 9, 81, 0
1, 9267, Control_c, 2, 1, 12
1, 9271, Control_c, 2, 1, 0
1, 9287, Note_on_c, 7, 42, 0
1, 9287, Note_on_c, 15, 57, 75
1, 9288, Note_on_c, 7, 42, 68
1, 9288, Note_on_c, 9, 42, 76
1, 9292, Note_on_c, 9, 42, 0
1, 9307, Note_on_c, 15, 57, 0
1, 9308, Note_on_c, 15, 61, 0
1, 9311, Note_on_c, 7, 42, 0
1, 9311, Note_on_c, 2, 61, 98
1, 9311, Note_on_c, 6, 49, 78
1, 9311, Note_on_c, 9, 42, 79
1, 9311, Note_on_c, 9, 69, 95
1, 9311, Note_on_c, 9, 81, 22
1, 9311, Note_on_c, 15, 57, 79
1, 9311, Note_on_c, 15, 64, 76
1, 9311, Lyric_t, "just "
1, 9312, Note_on_c, 1, 42, 86
1, 9312, Note_on_c, 9, 36, 100
1, 9312, Note_on_c, 9, 37, 81
1, 9312, Note_on_c, 9, 40, 99
1, 9312, Note_on_c, 10, 42, 59
1, 9312, Note_on_c, 11, 42, 59
1, 9313, Note_on_c, 9, 39, 49
1, 9315, Note_on_c, 9, 81, 0
1, 9315, Note_on_c, 9, 69, 0
1, 9315, Note_on_c, 9, 42, 0
1, 9316, Note_on_c, 9, 36, 0
1, 9316, Note_on_c, 9, 40, 0
1, 9316, Note_on_c, 9, 37, 0
1, 9317, Note_on_c, 9, 39, 0
1, 9325, Note_on_c, 15, 57, 0
1, 9327, Note_on_c, 2, 61, 0
1, 9330, Note_on_c, 15, 64, 0
1, 9330, Note_on_c, 15, 66, 0
1, 9335, Note_on_c, 9, 81, 26
1, 9336, Note_on_c, 6, 49, 0
1, 9336, Note_on_c, 2, 63, 98
1, 9336, Note_on_c, 15, 68, 75
1, 9336, Lyric_t, "a "
1, 9339, Note_on_c, 9, 81, 0
1, 9344, Note_on_c, 11, 42, 0
1, 9344, Note_on_c, 1, 42, 0
1, 9344, Note_on_c, 10, 42, 0
1, 9349, Note_on_c, 8, 54, 0
1, 9352, Note_on_c, 2, 63, 0
1, 9357, Note_on_c, 15, 68, 0
1, 9359, Note_on_c, 2, 64, 101
1, 9359, Note_on_c, 8, 57, 103
1, 9359, Note_on_c, 9, 69, 98
1, 9359, Note_on_c, 9, 81, 24
1, 9359, Note_on_c, 9, 42, 78
1, 9359, Lyric_t, "bit "
1, 9360, Note_on_c, 6, 47, 73
1, 9360, Note_on_c, 7, 42, 75
1, 9360, Note_on_c, 9, 39, 29
1, 9360, Note_on_c, 15, 57, 72
1, 9363, Note_on_c, 9, 42, 0
1, 9363, Note_on_c, 9, 81, 0
1, 9363, Note_on_c, 9, 69, 0
1, 9364, Note_on_c, 9, 39, 0
1, 9376, Note_on_c, 15, 57, 0
1, 9377, Note_on_c, 2, 64, 0
1, 9379, Note_on_c, 8, 57, 0
1, 9381, Note_on_c, 7, 42, 0
1, 9382, Note_on_c, 6, 47, 0
1, 9383, Note_on_c, 15, 69, 72
1, 9392, Note_on_c, 9, 40, 73
1, 9396, Note_on_c, 9, 40, 0
1, 9402, Note_on_c, 15, 69, 0
1, 9407, Note_on_c, 2, 61, 103
1, 9407, Note_on_c, 8, 57, 102
1, 9407, Note_on_c, 9, 42, 76
1, 9407, Lyric_t, "jeal"
1, 9408, Note_on_c, 1, 42, 89
1, 9408, Note_on_c, 6, 49, 77
1, 9408, Note_on_c, 9, 36, 99
1, 9408, Note_on_c, 9, 81, 31
1, 9408, Note_on_c, 10, 42, 61
1, 9408, Note_on_c, 11, 42, 65
1, 9408, Note_on_c, 15, 57, 79
1, 9411, Note_on_c, 9, 42, 0
1, 9412, Note_on_c, 9, 81, 0
1, 9412, Note_on_c, 9, 36, 0
1, 9417, Pitch_bend_c, 2, 9622
1, 9421, Pitch_bend_c, 2, 11702
1, 9425, Pitch_bend_c, 2, 13522
1, 9426, Control_c, 2, 1, 9
1, 9427, Note_on_c, 15, 57, 0
1, 9427, Note_on_c, 8, 57, 0
1, 9428, Pitch_bend_c, 2, 14692
1, 9429, Control_c, 2, 1, 25
1, 9431, Pitch_bend_c, 2, 15732
1, 9432, Note_on_c, 9, 42, 59
1, 9432, Note_on_c, 9, 81, 22
1, 9432, Note_on_c, 15, 64, 76
1, 9433, Control_c, 2, 1, 36
1, 9435, Pitch_bend_c, 2, 16382
1, 9436, Note_on_c, 9, 81, 0
1, 9436, Note_on_c, 9, 42, 0
1, 9437, Note_on_c, 6, 49, 0
1, 9438, Note_on_c, 10, 42, 0
1, 9438, Note_on_c, 11, 42, 0
1, 9438, Note_on_c, 1, 42, 0
1, 9438, Control_c, 2, 1, 41
1, 9442, Control_c, 2, 1, 45
1, 9449, Control_c, 2, 1, 46
1, 9450, Note_on_c, 15, 64, 0
1, 9454, Control_c, 2, 1, 44
1, 9455, Note_on_c, 8, 57, 99
1, 9455, Note_on_c, 9, 69, 101
1, 9455, Note_on_c, 15, 57, 77
1, 9456, Control_c, 2, 1, 29
1, 9456, Note_on_c, 7, 42, 69
1, 9456, Note_on_c, 9, 81, 23
1, 9459, Note_on_c, 9, 69, 0
1, 9460, Note_on_c, 9, 81, 0
1, 9460, Control_c, 2, 1, 9
1, 9465, Control_c, 2, 1, 0
1, 9467, Note_on_c, 7, 42, 0
1, 9467, Pitch_bend_c, 2, 15472
1, 9470, Pitch_bend_c, 2, 14042
1, 9473, Note_on_c, 15, 57, 0
1, 9474, Note_on_c, 8, 57, 0
1, 9474, Pitch_bend_c, 2, 12482
1, 9477, Pitch_bend_c, 2, 10272
1, 9480, Note_on_c, 9, 81, 27
1, 9480, Note_on_c, 15, 61, 81
1, 9481, Note_on_c, 2, 61, 0
1, 9481, Note_on_c, 2, 61, 95
1, 9481, Pitch_bend_c, 2, 8192
1, 9481, Lyric_t, "ous "
1, 9484, Note_on_c, 9, 81, 0
1, 9495, Note_on_c, 2, 61, 0
1, 9500, Note_on_c, 15, 61, 0
1, 9503, Note_on_c, 8, 54, 102
1, 9503, Note_on_c, 15, 54, 75
1, 9504, Note_on_c, 1, 44, 93
1, 9504, Note_on_c, 9, 36, 103
1, 9504, Note_on_c, 9, 37, 80
1, 9504, Note_on_c, 9, 40, 95
1, 9504, Note_on_c, 9, 39, 57
1, 9504, Note_on_c, 10, 44, 62
1, 9504, Note_on_c, 11, 44, 63
1, 9508, Note_on_c, 9, 39, 0
1, 9508, Note_on_c, 9, 36, 0
1, 9508, Note_on_c, 9, 40, 0
1, 9508, Note_on_c, 9, 37, 0
1, 9527, Note_on_c, 15, 61, 72
1, 9528, Note_on_c, 2, 59, 100
1, 9528, Lyric_t, "of "
1, 9548, Note_on_c, 2, 59, 0
1, 9548, Note_on_c, 11, 44, 0
1, 9548, Note_on_c, 1, 44, 0
1, 9548, Note_on_c, 10, 44, 0
1, 9550, Note_on_c, 15, 61, 0
1, 9550, Note_on_c, 15, 64, 81
1, 9551, Note_on_c, 15, 54, 0
1, 9551, Note_on_c, 9, 39, 26
1, 9552, Note_on_c, 1, 39, 85
1, 9552, Note_on_c, 9, 36, 95
1, 9552, Note_on_c, 9, 81, 26
1, 9552, Note_on_c, 11, 39, 65
1, 9553, Note_on_c, 9, 42, 84
1, 9554, Note_on_c, 10, 39, 53
1, 9555, Note_on_c, 9, 39, 0
1, 9556, Note_on_c, 9, 36, 0
1, 9556, Note_on_c, 9, 81, 0
1, 9557, Note_on_c, 9, 42, 0
1, 9575, Note_on_c, 15, 64, 0
1, 9575, Note_on_c, 15, 68, 77
1, 9576, Note_on_c, 2, 61, 103
1, 9576, Lyric_t, "me, "
1, 9576, Lyric_t, "\015"
1, 9576, Lyric_t, "\012"
1, 9588, Note_on_c, 8, 54, 0
1, 9590, Control_c, 2, 1, 6
1, 9591, Control_c, 2, 1, 31
1, 9592, Note_on_c, 15, 68, 0
1, 9594, Note_on_c, 11, 39, 0
1, 9594, Note_on_c, 1, 39, 0
1, 9595, Control_c, 2, 1, 50
1, 9596, Note_on_c, 10, 39, 0
1, 9600, Note_on_c, 1, 37, 93
1, 9600, Control_c, 2, 1, 55
1, 9600, Note_on_c, 9, 36, 103
1, 9600, Note_on_c, 9, 49, 35
1, 9600, Note_on_c, 9, 81, 29
1, 9600, Note_on_c, 9, 42, 76
1, 9600, Note_on_c, 9, 84, 19
1, 9600, Note_on_c, 10, 37, 60
1, 9600, Note_on_c, 11, 37, 59
1, 9600, Note_on_c, 15, 49, 79
1, 9604, Note_on_c, 9, 84, 0
1, 9604, Note_on_c, 9, 49, 0
1, 9604, Note_on_c, 9, 36, 0
1, 9604, Note_on_c, 9, 42, 0
1, 9604, Note_on_c, 9, 81, 0
1, 9613, Control_c, 2, 1, 51
1, 9618, Control_c, 2, 1, 49
1, 9622, Control_c, 2, 1, 42
1, 9623, Note_on_c, 15, 56, 77
1, 9624, Note_on_c, 8, 56, 103
1, 9627, Control_c, 2, 1, 23
1, 9632, Control_c, 2, 1, 1
1, 9638, Note_on_c, 8, 56, 0
1, 9639, Note_on_c, 2, 61, 0
1, 9644, Note_on_c, 15, 56, 0
1, 9647, Note_on_c, 9, 81, 31
1, 9647, Note_on_c, 15, 59, 74
1, 9648, Note_on_c, 9, 42, 83
1, 9651, Note_on_c, 9, 81, 0
1, 9652, Note_on_c, 9, 42, 0
1, 9653, Note_on_c, 10, 37, 0
1, 9653, Note_on_c, 11, 37, 0
1, 9653, Note_on_c, 1, 37, 0
1, 9671, Note_on_c, 15, 56, 81
1, 9672, Note_on_c, 8, 56, 98
1, 9675, Note_on_c, 15, 59, 0
1, 9689, Note_on_c, 8, 56, 0
1, 9692, Note_on_c, 15, 56, 0
1, 9692, Pitch_bend_c, 2, 1656
1, 9695, Note_on_c, 2, 61, 99
1, 9695, Note_on_c, 6, 49, 78
1, 9695, Note_on_c, 9, 81, 26
1, 9695, Note_on_c, 15, 63, 78
1, 9695, Lyric_t, "'Cause "
1, 9696, Note_on_c, 1, 37, 87
1, 9696, Pitch_bend_c, 2, 2337
1, 9696, Note_on_c, 9, 36, 101
1, 9696, Note_on_c, 9, 37, 74
1, 9696, Note_on_c, 9, 40, 98
1, 9696, Note_on_c, 9, 69, 96
1, 9696, Note_on_c, 9, 84, 23
1, 9696, Note_on_c, 10, 37, 58
1, 9696, Note_on_c, 11, 37, 59
1, 9697, Note_on_c, 9, 39, 53
1, 9699, Note_on_c, 9, 81, 0
1, 9700, Note_on_c, 9, 84, 0
1, 9700, Note_on_c, 9, 37, 0
1, 9700, Note_on_c, 9, 69, 0
1, 9700, Note_on_c, 9, 40, 0
1, 9700, Note_on_c, 9, 36, 0
1, 9700, Pitch_bend_c, 2, 3018
1, 9701, Note_on_c, 9, 39, 0
1, 9704, Pitch_bend_c, 2, 3699
1, 9708, Pitch_bend_c, 2, 4380
1, 9712, Pitch_bend_c, 2, 5061
1, 9716, Pitch_bend_c, 2, 5743
1, 9717, Note_on_c, 15, 63, 0
1, 9719, Note_on_c, 6, 49, 0
1, 9719, Note_on_c, 8, 56, 97
1, 9719, Note_on_c, 9, 81, 24
1, 9719, Note_on_c, 15, 56, 77
1, 9720, Pitch_bend_c, 2, 6424
1, 9720, Note_on_c, 9, 42, 83
1, 9720, Note_on_c, 9, 69, 93
1, 9723, Note_on_c, 9, 81, 0
1, 9724, Note_on_c, 9, 69, 0
1, 9724, Note_on_c, 9, 42, 0
1, 9724, Pitch_bend_c, 2, 7105
1, 9726, Note_on_c, 10, 37, 0
1, 9726, Note_on_c, 1, 37, 0
1, 9726, Note_on_c, 11, 37, 0
1, 9728, Pitch_bend_c, 2, 8192
1, 9736, Note_on_c, 2, 61, 0
1, 9737, Note_on_c, 8, 56, 0
1, 9740, Note_on_c, 15, 56, 0
1, 9743, Note_on_c, 2, 63, 103
1, 9743, Note_on_c, 9, 81, 26
1, 9743, Note_on_c, 15, 59, 81
1, 9743, Lyric_t, "you're "
1, 9744, Note_on_c, 5, 88, 86
1, 9744, Note_on_c, 6, 47, 72
1, 9744, Note_on_c, 9, 39, 24
1, 9744, Note_on_c, 9, 69, 95
1, 9747, Note_on_c, 9, 81, 0
1, 9748, Note_on_c, 9, 69, 0
1, 9748, Note_on_c, 9, 39, 0
1, 9762, Note_on_c, 5, 88, 0
1, 9767, Note_on_c, 15, 59, 0
1, 9767, Note_on_c, 8, 56, 104
1, 9767, Note_on_c, 15, 56, 75
1, 9768, Note_on_c, 6, 47, 0
1, 9768, Note_on_c, 9, 69, 98
1, 9772, Note_on_c, 9, 69, 0
1, 9776, Note_on_c, 5, 90, 82
1, 9780, Note_on_c, 2, 63, 0
1, 9786, Note_on_c, 8, 56, 0
1, 9791, Note_on_c, 1, 37, 89
1, 9791, Note_on_c, 2, 63, 103
1, 9791, Note_on_c, 5, 92, 81
1, 9791, Note_on_c, 9, 36, 96
1, 9791, Note_on_c, 9, 84, 15
1, 9791, Note_on_c, 10, 37, 53
1, 9791, Note_on_c, 11, 37, 62
1, 9791, Note_on_c, 15, 63, 81
1, 9791, Lyric_t, "blind "
1, 9792, Note_on_c, 15, 56, 0
1, 9792, Note_on_c, 6, 49, 81
1, 9792, Note_on_c, 9, 42, 84
1, 9792, Note_on_c, 9, 69, 98
1, 9792, Note_on_c, 9, 81, 27
1, 9793, Note_on_c, 5, 90, 0
1, 9795, Note_on_c, 9, 84, 0
1, 9795, Note_on_c, 9, 36, 0
1, 9796, Note_on_c, 9, 42, 0
1, 9796, Note_on_c, 9, 69, 0
1, 9796, Note_on_c, 9, 81, 0
1, 9806, Note_on_c, 5, 92, 0
1, 9810, Note_on_c, 15, 63, 0
1, 9815, Note_on_c, 8, 56, 102
1, 9815, Note_on_c, 15, 56, 72
1, 9816, Note_on_c, 2, 63, 0
1, 9816, Note_on_c, 9, 42, 61
1, 9816, Note_on_c, 9, 81, 25
1, 9820, Note_on_c, 9, 81, 0
1, 9820, Note_on_c, 9, 42, 0
1, 9822, Note_on_c, 6, 49, 0
1, 9828, Note_on_c, 1, 37, 0
1, 9828, Note_on_c, 11, 37, 0
1, 9828, Note_on_c, 10, 37, 0
1, 9829, Note_on_c, 15, 56, 0
1, 9834, Note_on_c, 8, 56, 0
1, 9839, Note_on_c, 15, 56, 80
1, 9839, Note_on_c, 15, 61, 73
1, 9840, Note_on_c, 2, 61, 101
1, 9840, Note_on_c, 5, 88, 74
1, 9840, Note_on_c, 9, 81, 29
1, 9840, Lyric_t, "if "
1, 9844, Note_on_c, 9, 81, 0
1, 9849, Note_on_c, 2, 61, 0
1, 9850, Note_on_c, 15, 61, 0
1, 9853, Note_on_c, 15, 56, 0
1, 9855, Note_on_c, 5, 88, 0
1, 9863, Note_on_c, 15, 56, 72
1, 9863, Note_on_c, 15, 64, 75
1, 9864, Note_on_c, 2, 61, 99
1, 9864, Note_on_c, 8, 56, 103
1, 9864, Note_on_c, 9, 42, 79
1, 9864, Note_on_c, 9, 81, 22
1, 9864, Lyric_t, "you "
1, 9868, Note_on_c, 9, 81, 0
1, 9868, Note_on_c, 9, 42, 0
1, 9872, Note_on_c, 5, 90, 71
1, 9877, Note_on_c, 8, 56, 0
1, 9879, Note_on_c, 15, 64, 0
1, 9885, Note_on_c, 5, 90, 0
1, 9887, Note_on_c, 5, 92, 69
1, 9888, Note_on_c, 1, 37, 88
1, 9888, Note_on_c, 8, 56, 100
1, 9888, Note_on_c, 9, 36, 96
1, 9888, Note_on_c, 9, 37, 80
1, 9888, Note_on_c, 9, 40, 96
1, 9888, Note_on_c, 9, 39, 58
1, 9888, Note_on_c, 9, 84, 19
1, 9888, Note_on_c, 10, 37, 59
1, 9888, Note_on_c, 11, 37, 64
1, 9891, Note_on_c, 15, 49, 0
1, 9892, Note_on_c, 9, 84, 0
1, 9892, Note_on_c, 9, 37, 0
1, 9892, Note_on_c, 9, 39, 0
1, 9892, Note_on_c, 9, 40, 0
1, 9892, Note_on_c, 9, 36, 0
1, 9894, Note_on_c, 2, 61, 0
1, 9901, Note_on_c, 5, 92, 0
1, 9903, Note_on_c, 15, 56, 0
1, 9911, Note_on_c, 15, 66, 81
1, 9912, Note_on_c, 2, 61, 97
1, 9912, Lyric_t, "can't "
1, 9914, Note_on_c, 8, 56, 0
1, 9921, Note_on_c, 1, 37, 0
1, 9921, Note_on_c, 11, 37, 0
1, 9921, Note_on_c, 10, 37, 0
1, 9929, Note_on_c, 2, 61, 0
1, 9935, Note_on_c, 5, 88, 63
1, 9935, Note_on_c, 8, 56, 104
1, 9935, Note_on_c, 9, 39, 25
1, 9935, Note_on_c, 15, 56, 81
1, 9936, Note_on_c, 9, 42, 80
1, 9936, Note_on_c, 9, 81, 31
1, 9937, Note_on_c, 15, 66, 0
1, 9939, Note_on_c, 9, 39, 0
1, 9940, Note_on_c, 9, 42, 0
1, 9940, Note_on_c, 9, 81, 0
1, 9950, Note_on_c, 5, 88, 0
1, 9958, Note_on_c, 8, 56, 0
1, 9959, Note_on_c, 2, 61, 103
1, 9959, Lyric_t, "see "
1, 9959, Lyric_t, "\015"
1, 9960, Note_on_c, 15, 56, 0
1, 9968, Note_on_c, 5, 90, 59
1, 9971, Control_c, 2, 1, 3
1, 9973, Control_c, 2, 1, 41
1, 9978, Control_c, 2, 1, 55
1, 9979, Note_on_c, 5, 90, 0
1, 9983, Control_c, 2, 1, 59
1, 9983, Note_on_c, 5, 92, 57
1, 9984, Tempo, 645161
1, 9984, Note_on_c, 1, 37, 87
1, 9984, Note_on_c, 7, 37, 85
1, 9984, Note_on_c, 9, 36, 102
1, 9984, Note_on_c, 9, 81, 22
1, 9984, Note_on_c, 10, 37, 60
1, 9984, Note_on_c, 11, 37, 68
1, 9984, Note_on_c, 15, 59, 80
1, 9987, Control_c, 2, 1, 60
1, 9988, Note_on_c, 9, 81, 0
1, 9988, Note_on_c, 9, 36, 0
1, 9993, Control_c, 2, 1, 59
1, 9996, Control_c, 2, 1, 57
1, 9997, Note_on_c, 5, 92, 0
1, 10000, Note_on_c, 2, 61, 0
1, 10000, Control_c, 2, 1, 56
1, 10007, Note_on_c, 15, 64, 81
1, 10008, Note_on_c, 8, 64, 103
1, 10011, Control_c, 2, 1, 55
1, 10014, Control_c, 2, 1, 51
1, 10017, Note_on_c, 15, 59, 0
1, 10018, Control_c, 2, 1, 39
1, 10023, Control_c, 2, 1, 17
1, 10025, Note_on_c, 8, 64, 0
1, 10027, Control_c, 2, 1, 0
1, 10031, Note_on_c, 9, 81, 30
1, 10032, Note_on_c, 15, 64, 0
1, 10032, Note_on_c, 15, 59, 75
1, 10035, Note_on_c, 9, 81, 0
1, 10037, Note_on_c, 1, 37, 0
1, 10037, Note_on_c, 10, 37, 0
1, 10037, Note_on_c, 11, 37, 0
1, 10050, Note_on_c, 7, 37, 0
1, 10055, Note_on_c, 15, 61, 80
1, 10056, Note_on_c, 7, 37, 68
1, 10056, Note_on_c, 8, 63, 98
1, 10056, Note_on_c, 9, 42, 81
1, 10060, Note_on_c, 9, 42, 0
1, 10066, Note_on_c, 15, 59, 0
1, 10073, Note_on_c, 8, 63, 0
1, 10074, Note_on_c, 15, 61, 0
1, 10079, Note_on_c, 6, 49, 79
1, 10079, Note_on_c, 9, 42, 83
1, 10079, Note_on_c, 9, 69, 94
1, 10079, Note_on_c, 9, 81, 31
1, 10080, Note_on_c, 1, 37, 93
1, 10080, Note_on_c, 2, 61, 101
1, 10080, Note_on_c, 9, 37, 75
1, 10080, Note_on_c, 9, 40, 103
1, 10080, Note_on_c, 10, 37, 62
1, 10080, Note_on_c, 11, 37, 64
1, 10080, Note_on_c, 15, 64, 75
1, 10080, Lyric_t, "that "
1, 10081, Note_on_c, 9, 39, 49
1, 10083, Note_on_c, 9, 81, 0
1, 10083, Note_on_c, 9, 69, 0
1, 10083, Note_on_c, 9, 42, 0
1, 10084, Note_on_c, 9, 40, 0
1, 10084, Note_on_c, 9, 37, 0
1, 10085, Note_on_c, 9, 39, 0
1, 10086, Note_on_c, 7, 37, 0
1, 10103, Note_on_c, 9, 81, 25
1, 10103, Note_on_c, 15, 68, 78
1, 10104, Note_on_c, 6, 49, 0
1, 10104, Note_on_c, 8, 63, 96
1, 10107, Note_on_c, 9, 81, 0
1, 10114, Note_on_c, 15, 64, 0
1, 10118, Note_on_c, 11, 37, 0
1, 10118, Note_on_c, 10, 37, 0
1, 10118, Note_on_c, 1, 37, 0
1, 10121, Note_on_c, 8, 63, 0
1, 10122, Note_on_c, 2, 61, 0
1, 10127, Note_on_c, 9, 69, 99
1, 10127, Note_on_c, 9, 81, 27
1, 10127, Note_on_c, 9, 42, 84
1, 10127, Note_on_c, 15, 63, 76
1, 10128, Note_on_c, 2, 63, 95
1, 10128, Note_on_c, 6, 47, 77
1, 10128, Note_on_c, 9, 39, 25
1, 10128, Lyric_t, "his "
1, 10131, Note_on_c, 9, 42, 0
1, 10131, Note_on_c, 9, 81, 0
1, 10131, Note_on_c, 9, 69, 0
1, 10132, Note_on_c, 9, 39, 0
1, 10150, Note_on_c, 6, 47, 0
1, 10151, Note_on_c, 15, 64, 73
1, 10152, Pitch_bend_c, 2, 0
1, 10152, Note_on_c, 8, 64, 102
1, 10160, Note_on_c, 9, 40, 72
1, 10164, Note_on_c, 9, 40, 0
1, 10165, Note_on_c, 2, 63, 0
1, 10167, Note_on_c, 8, 64, 0
1, 10167, Note_on_c, 15, 63, 0
1, 10172, Note_on_c, 15, 68, 0
1, 10173, Note_on_c, 15, 64, 0
1, 10175, Note_on_c, 1, 37, 86
1, 10175, Note_on_c, 9, 42, 80
1, 10175, Note_on_c, 10, 37, 56
1, 10175, Note_on_c, 11, 37, 63
1, 10175, Note_on_c, 15, 71, 81
1, 10176, Note_on_c, 2, 61, 99
1, 10176, Note_on_c, 6, 49, 76
1, 10176, Note_on_c, 9, 81, 27
1, 10176, Lyric_t, "love "
1, 10177, Pitch_bend_c, 2, 16382
1, 10179, Note_on_c, 9, 42, 0
1, 10180, Note_on_c, 9, 81, 0
1, 10199, Note_on_c, 8, 64, 103
1, 10199, Note_on_c, 9, 38, 54
1, 10199, Note_on_c, 15, 64, 81
1, 10200, Pitch_bend_c, 2, 16321
1, 10200, Note_on_c, 9, 42, 59
1, 10200, Note_on_c, 9, 81, 22
1, 10200, Lyric_t, "is "
1, 10203, Note_on_c, 9, 38, 0
1, 10204, Note_on_c, 9, 81, 0
1, 10204, Note_on_c, 9, 42, 0
1, 10204, Pitch_bend_c, 2, 13828
1, 10205, Note_on_c, 6, 49, 0
1, 10208, Pitch_bend_c, 2, 11334
1, 10212, Note_on_c, 1, 37, 0
1, 10212, Note_on_c, 11, 37, 0
1, 10212, Note_on_c, 10, 37, 0
1, 10212, Pitch_bend_c, 2, 8192
1, 10215, Control_c, 2, 1, 3
1, 10216, Control_c, 2, 1, 23
1, 10219, Note_on_c, 8, 64, 0
1, 10221, Control_c, 2, 1, 24
1, 10223, Note_on_c, 9, 69, 100
1, 10223, Note_on_c, 15, 68, 76
1, 10224, Note_on_c, 7, 37, 75
1, 10224, Note_on_c, 9, 38, 58
1, 10224, Note_on_c, 9, 81, 27
1, 10225, Control_c, 2, 1, 3
1, 10226, Note_on_c, 15, 64, 0
1, 10226, Note_on_c, 15, 71, 0
1, 10227, Note_on_c, 9, 69, 0
1, 10228, Note_on_c, 9, 81, 0
1, 10228, Note_on_c, 9, 38, 0
1, 10230, Control_c, 2, 1, 0
1, 10236, Note_on_c, 2, 61, 0
1, 10241, Note_on_c, 7, 37, 0
1, 10247, Note_on_c, 15, 75, 78
1, 10248, Note_on_c, 2, 61, 102
1, 10248, Note_on_c, 9, 38, 58
1, 10248, Note_on_c, 9, 81, 29
1, 10248, Note_on_c, 15, 71, 72
1, 10248, Lyric_t, "all "
1, 10249, Note_on_c, 15, 68, 0
1, 10252, Note_on_c, 9, 81, 0
1, 10252, Note_on_c, 9, 38, 0
1, 10268, Note_on_c, 2, 61, 0
1, 10268, Note_on_c, 15, 71, 0
1, 10271, Note_on_c, 15, 71, 74
1, 10272, Note_on_c, 1, 40, 85
1, 10272, Note_on_c, 9, 36, 100
1, 10272, Note_on_c, 9, 38, 52
1, 10272, Note_on_c, 9, 37, 81
1, 10272, Note_on_c, 9, 40, 95
1, 10272, Note_on_c, 9, 39, 52
1, 10272, Note_on_c, 10, 40, 58
1, 10272, Note_on_c, 11, 40, 68
1, 10276, Note_on_c, 9, 39, 0
1, 10276, Note_on_c, 9, 40, 0
1, 10276, Note_on_c, 9, 36, 0
1, 10276, Note_on_c, 9, 37, 0
1, 10276, Note_on_c, 9, 38, 0
1, 10296, Note_on_c, 2, 59, 95
1, 10296, Note_on_c, 7, 37, 75
1, 10296, Note_on_c, 15, 80, 74
1, 10296, Lyric_t, "in "
1, 10313, Note_on_c, 7, 37, 0
1, 10313, Note_on_c, 15, 71, 0
1, 10315, Note_on_c, 2, 59, 0
1, 10316, Note_on_c, 15, 75, 0
1, 10319, Note_on_c, 10, 40, 0
1, 10319, Note_on_c, 1, 40, 0
1, 10319, Note_on_c, 11, 40, 0
1, 10319, Note_on_c, 9, 39, 22
1, 10320, Note_on_c, 1, 44, 87
1, 10320, Note_on_c, 9, 36, 97
1, 10320, Note_on_c, 9, 81, 27
1, 10320, Note_on_c, 10, 44, 58
1, 10320, Note_on_c, 11, 44, 61
1, 10320, Note_on_c, 15, 61, 78
1, 10320, Note_on_c, 15, 71, 78
1, 10321, Note_on_c, 9, 42, 83
1, 10323, Note_on_c, 9, 39, 0
1, 10324, Note_on_c, 9, 81, 0
1, 10324, Note_on_c, 9, 36, 0
1, 10325, Note_on_c, 9, 42, 0
1, 10327, Note_on_c, 15, 80, 0
1, 10338, Pitch_bend_c, 2, 16382
1, 10344, Note_on_c, 2, 59, 100
1, 10344, Note_on_c, 15, 83, 72
1, 10344, Note_on_c, 15, 56, 74
1, 10344, Lyric_t, "me. "
1, 10344, Lyric_t, "\015"
1, 10344, Lyric_t, "\012"
1, 10346, Note_on_c, 15, 61, 0
1, 10356, Note_on_c, 15, 71, 0
1, 10362, Note_on_c, 10, 44, 0
1, 10362, Note_on_c, 1, 44, 0
1, 10362, Note_on_c, 11, 44, 0
1, 10365, Note_on_c, 15, 56, 0
1, 10368, Note_on_c, 1, 42, 85
1, 10368, Note_on_c, 8, 54, 100
1, 10368, Note_on_c, 9, 36, 97
1, 10368, Note_on_c, 9, 49, 31
1, 10368, Note_on_c, 9, 81, 28
1, 10368, Note_on_c, 9, 42, 82
1, 10368, Note_on_c, 9, 84, 21
1, 10368, Note_on_c, 10, 42, 62
1, 10368, Note_on_c, 11, 42, 60
1, 10368, Note_on_c, 15, 54, 77
1, 10371, Note_on_c, 15, 83, 0
1, 10372, Note_on_c, 9, 84, 0
1, 10372, Note_on_c, 9, 42, 0
1, 10372, Note_on_c, 9, 36, 0
1, 10372, Note_on_c, 9, 81, 0
1, 10372, Note_on_c, 9, 49, 0
1, 10392, Note_on_c, 15, 57, 77
1, 10393, Pitch_bend_c, 2, 14562
1, 10394, Pitch_bend_c, 2, 9856
1, 10397, Pitch_bend_c, 2, 8192
1, 10406, Note_on_c, 10, 42, 0
1, 10406, Note_on_c, 11, 42, 0
1, 10406, Note_on_c, 1, 42, 0
1, 10413, Note_on_c, 15, 57, 0
1, 10414, Note_on_c, 2, 59, 0
1, 10415, Note_on_c, 9, 81, 26
1, 10416, Note_on_c, 2, 57, 99
1, 10416, Note_on_c, 9, 42, 84
1, 10416, Note_on_c, 15, 61, 81
1, 10419, Note_on_c, 9, 81, 0
1, 10420, Note_on_c, 9, 42, 0
1, 10439, Control_c, 2, 1, 7
1, 10440, Note_on_c, 15, 64, 81
1, 10441, Control_c, 2, 1, 30
1, 10444, Note_on_c, 15, 61, 0
1, 10446, Control_c, 2, 1, 42
1, 10450, Control_c, 2, 1, 50
1, 10455, Control_c, 2, 1, 51
1, 10460, Control_c, 2, 11, 127
1, 10461, Note_on_c, 3, 64, 97
1, 10461, Lyric_t, "See, "
1, 10463, Note_on_c, 6, 49, 77
1, 10463, Note_on_c, 9, 81, 26
1, 10464, Note_on_c, 15, 64, 0
1, 10464, Note_on_c, 1, 42, 85
1, 10464, Control_c, 2, 11, 114
1, 10464, Note_on_c, 9, 36, 95
1, 10464, Note_on_c, 9, 37, 80
1, 10464, Note_on_c, 9, 40, 100
1, 10464, Note_on_c, 9, 69, 96
1, 10464, Note_on_c, 9, 84, 14
1, 10464, Note_on_c, 10, 42, 59
1, 10464, Note_on_c, 11, 42, 61
1, 10464, Note_on_c, 15, 68, 72
1, 10465, Note_on_c, 9, 39, 51
1, 10467, Note_on_c, 9, 81, 0
1, 10468, Note_on_c, 9, 69, 0
1, 10468, Note_on_c, 9, 36, 0
1, 10468, Note_on_c, 9, 40, 0
1, 10468, Note_on_c, 9, 37, 0
1, 10468, Note_on_c, 9, 84, 0
1, 10469, Note_on_c, 9, 39, 0
1, 10472, Control_c, 2, 11, 107
1, 10476, Control_c, 2, 11, 101
1, 10480, Control_c, 2, 11, 94
1, 10484, Control_c, 2, 11, 88
1, 10485, Control_c, 2, 1, 50
1, 10487, Note_on_c, 6, 49, 0
1, 10487, Note_on_c, 9, 81, 22
1, 10488, Control_c, 2, 11, 81
1, 10488, Note_on_c, 9, 42, 81
1, 10488, Note_on_c, 9, 69, 99
1, 10488, Note_on_c, 15, 64, 81
1, 10491, Note_on_c, 9, 81, 0
1, 10491, Note_on_c, 15, 68, 0
1, 10492, Note_on_c, 9, 69, 0
1, 10492, Note_on_c, 9, 42, 0
1, 10492, Control_c, 2, 11, 75
1, 10496, Note_on_c, 11, 42, 0
1, 10496, Note_on_c, 10, 42, 0
1, 10496, Note_on_c, 1, 42, 0
1, 10496, Control_c, 2, 11, 68
1, 10499, Note_on_c, 8, 54, 0
1, 10499, Control_c, 2, 1, 49
1, 10500, Note_on_c, 3, 64, 0
1, 10500, Control_c, 2, 11, 55
1, 10502, Note_on_c, 2, 57, 0
1, 10505, Control_c, 2, 1, 46
1, 10508, Control_c, 2, 11, 48
1, 10508, Note_on_c, 3, 64, 102
1, 10508, Lyric_t, "I "
1, 10510, Control_c, 2, 1, 40
1, 10511, Note_on_c, 9, 81, 26
1, 10512, Control_c, 2, 11, 42
1, 10512, Note_on_c, 5, 90, 84
1, 10512, Note_on_c, 6, 47, 77
1, 10512, Note_on_c, 8, 57, 104
1, 10512, Note_on_c, 9, 39, 29
1, 10512, Note_on_c, 9, 69, 99
1, 10513, Control_c, 2, 1, 26
1, 10513, Note_on_c, 15, 57, 79
1, 10514, Note_on_c, 15, 64, 0
1, 10515, Note_on_c, 9, 81, 0
1, 10516, Note_on_c, 9, 69, 0
1, 10516, Note_on_c, 9, 39, 0
1, 10516, Control_c, 2, 11, 35
1, 10518, Control_c, 2, 1, 12
1, 10520, Control_c, 2, 11, 29
1, 10522, Control_c, 2, 1, 0
1, 10529, Note_on_c, 5, 90, 0
1, 10531, Note_on_c, 15, 57, 0
1, 10535, Note_on_c, 15, 61, 80
1, 10536, Note_on_c, 6, 47, 0
1, 10536, Note_on_c, 9, 69, 98
1, 10540, Note_on_c, 9, 69, 0
1, 10542, Note_on_c, 8, 57, 0
1, 10543, Note_on_c, 5, 92, 80
1, 10545, Note_on_c, 3, 64, 0
1, 10546, Note_on_c, 15, 54, 0
1, 10551, Note_on_c, 15, 61, 0
1, 10552, Control_c, 2, 11, 127
1, 10559, Note_on_c, 3, 63, 95
1, 10559, Note_on_c, 9, 84, 18
1, 10559, Lyric_t, "try "
1, 10560, Note_on_c, 1, 42, 85
1, 10560, Note_on_c, 5, 93, 78
1, 10560, Note_on_c, 6, 49, 77
1, 10560, Note_on_c, 8, 54, 101
1, 10560, Note_on_c, 9, 36, 95
1, 10560, Note_on_c, 9, 42, 81
1, 10560, Note_on_c, 9, 69, 93
1, 10560, Note_on_c, 9, 81, 27
1, 10560, Note_on_c, 10, 42, 62
1, 10560, Note_on_c, 11, 42, 64
1, 10560, Note_on_c, 15, 54, 75
1, 10563, Note_on_c, 9, 84, 0
1, 10564, Note_on_c, 9, 81, 0
1, 10564, Note_on_c, 9, 36, 0
1, 10564, Note_on_c, 9, 69, 0
1, 10564, Note_on_c, 9, 42, 0
1, 10564, Note_on_c, 5, 92, 0
1, 10579, Note_on_c, 5, 93, 0
1, 10584, Note_on_c, 9, 42, 56
1, 10584, Note_on_c, 9, 81, 29
1, 10584, Note_on_c, 15, 69, 75
1, 10588, Note_on_c, 9, 81, 0
1, 10588, Note_on_c, 9, 42, 0
1, 10588, Note_on_c, 8, 54, 0
1, 10590, Note_on_c, 10, 42, 0
1, 10590, Note_on_c, 1, 42, 0
1, 10590, Note_on_c, 6, 49, 0
1, 10590, Note_on_c, 11, 42, 0
1, 10592, Control_c, 3, 11, 127
1, 10595, Pitch_bend_c, 3, 7552
1, 10596, Control_c, 3, 11, 118
1, 10597, Pitch_bend_c, 3, 5888
1, 10600, Control_c, 3, 11, 108
1, 10600, Pitch_bend_c, 3, 4352
1, 10602, Note_on_c, 3, 63, 0
1, 10604, Control_c, 3, 11, 99
1, 10604, Pitch_bend_c, 3, 3072
1, 10605, Control_c, 3, 11, 127
1, 10607, Pitch_bend_c, 3, 8192
1, 10608, Note_on_c, 3, 61, 96
1, 10608, Note_on_c, 5, 90, 73
1, 10608, Note_on_c, 8, 57, 96
1, 10608, Note_on_c, 9, 81, 31
1, 10608, Note_on_c, 15, 57, 73
1, 10608, Lyric_t, "to "
1, 10609, Note_on_c, 15, 69, 0
1, 10612, Note_on_c, 9, 81, 0
1, 10614, Note_on_c, 3, 61, 0
1, 10626, Note_on_c, 15, 57, 0
1, 10627, Note_on_c, 5, 90, 0
1, 10632, Note_on_c, 9, 42, 84
1, 10632, Note_on_c, 9, 81, 25
1, 10632, Note_on_c, 15, 64, 74
1, 10636, Note_on_c, 9, 81, 0
1, 10636, Note_on_c, 9, 42, 0
1, 10639, Note_on_c, 5, 92, 69
1, 10640, Note_on_c, 3, 61, 96
1, 10640, Lyric_t, "hes"
1, 10655, Note_on_c, 9, 84, 16
1, 10656, Note_on_c, 1, 42, 89
1, 10656, Note_on_c, 5, 93, 67
1, 10656, Note_on_c, 9, 36, 103
1, 10656, Note_on_c, 9, 37, 74
1, 10656, Note_on_c, 9, 40, 104
1, 10656, Note_on_c, 9, 39, 52
1, 10656, Note_on_c, 10, 42, 57
1, 10656, Note_on_c, 11, 42, 63
1, 10656, Note_on_c, 15, 61, 79
1, 10656, Note_on_c, 15, 57, 76
1, 10657, Note_on_c, 15, 64, 0
1, 10659, Note_on_c, 9, 84, 0
1, 10660, Note_on_c, 9, 40, 0
1, 10660, Note_on_c, 5, 92, 0
1, 10660, Note_on_c, 9, 37, 0
1, 10660, Note_on_c, 9, 36, 0
1, 10660, Note_on_c, 9, 39, 0
1, 10669, Note_on_c, 3, 61, 0
1, 10675, Note_on_c, 15, 57, 0
1, 10675, Note_on_c, 5, 93, 0
1, 10680, Note_on_c, 15, 57, 73
1, 10681, Note_on_c, 15, 61, 0
1, 10681, Pitch_bend_c, 3, 0
1, 10690, Note_on_c, 11, 42, 0
1, 10690, Note_on_c, 1, 42, 0
1, 10690, Note_on_c, 10, 42, 0
1, 10690, Note_on_c, 3, 61, 97
1, 10690, Lyric_t, "i"
1, 10702, Note_on_c, 15, 57, 0
1, 10703, Note_on_c, 9, 39, 23
1, 10704, Note_on_c, 5, 90, 62
1, 10704, Note_on_c, 9, 42, 76
1, 10704, Note_on_c, 9, 81, 27
1, 10704, Note_on_c, 15, 61, 76
1, 10704, Note_on_c, 15, 57, 75
1, 10707, Note_on_c, 9, 39, 0
1, 10708, Note_on_c, 9, 81, 0
1, 10708, Note_on_c, 9, 42, 0
1, 10709, Note_on_c, 8, 57, 0
1, 10718, Note_on_c, 3, 61, 0
1, 10720, Note_on_c, 15, 54, 0
1, 10721, Note_on_c, 15, 57, 0
1, 10723, Note_on_c, 5, 90, 0
1, 10728, Note_on_c, 8, 54, 99
1, 10728, Note_on_c, 15, 54, 76
1, 10729, Note_on_c, 15, 61, 0
1, 10733, Pitch_bend_c, 3, 8192
1, 10734, Note_on_c, 3, 61, 99
1, 10734, Lyric_t, "tate, "
1, 10734, Lyric_t, "\015"
1, 10735, Note_on_c, 5, 92, 58
1, 10749, Note_on_c, 8, 54, 0
1, 10752, Tempo, 652174
1, 10752, Note_on_c, 15, 54, 0
1, 10752, Note_on_c, 5, 92, 0
1, 10752, Note_on_c, 1, 42, 87
1, 10752, Note_on_c, 5, 93, 56
1, 10752, Note_on_c, 7, 42, 90
1, 10752, Note_on_c, 8, 54, 103
1, 10752, Note_on_c, 9, 36, 102
1, 10752, Note_on_c, 9, 81, 27
1, 10752, Note_on_c, 10, 42, 62
1, 10752, Note_on_c, 11, 42, 60
1, 10752, Note_on_c, 15, 66, 74
1, 10756, Note_on_c, 9, 81, 0
1, 10756, Note_on_c, 9, 36, 0
1, 10759, Control_c, 3, 1, 7
1, 10761, Control_c, 3, 1, 34
1, 10765, Control_c, 3, 1, 45
1, 10770, Control_c, 3, 1, 48
1, 10774, Control_c, 3, 1, 50
1, 10775, Note_on_c, 15, 57, 80
1, 10781, Note_on_c, 5, 93, 0
1, 10787, Control_c, 3, 1, 51
1, 10790, Note_on_c, 11, 42, 0
1, 10790, Note_on_c, 10, 42, 0
1, 10790, Note_on_c, 1, 42, 0
1, 10793, Control_c, 3, 1, 52
1, 10794, Note_on_c, 15, 57, 0
1, 10799, Note_on_c, 3, 61, 0
1, 10799, Note_on_c, 9, 81, 27
1, 10799, Note_on_c, 15, 61, 77
1, 10801, Control_c, 3, 1, 53
1, 10803, Note_on_c, 9, 81, 0
1, 10814, Control_c, 3, 1, 52
1, 10816, Control_c, 3, 1, 46
1, 10819, Control_c, 3, 1, 10
1, 10823, Note_on_c, 15, 57, 80
1, 10824, Note_on_c, 7, 42, 0
1, 10824, Note_on_c, 2, 64, 101
1, 10824, Control_c, 3, 1, 0
1, 10824, Note_on_c, 7, 42, 75
1, 10824, Note_on_c, 9, 42, 82
1, 10824, Lyric_t, "I "
1, 10828, Note_on_c, 9, 42, 0
1, 10830, Note_on_c, 2, 64, 0
1, 10843, Note_on_c, 15, 57, 0
1, 10844, Note_on_c, 15, 61, 0
1, 10847, Note_on_c, 7, 42, 0
1, 10847, Note_on_c, 6, 49, 81
1, 10847, Note_on_c, 9, 42, 80
1, 10847, Note_on_c, 9, 69, 100
1, 10847, Note_on_c, 9, 81, 31
1, 10847, Note_on_c, 15, 57, 74
1, 10847, Note_on_c, 15, 64, 75
1, 10848, Note_on_c, 1, 42, 91
1, 10848, Note_on_c, 2, 64, 99
1, 10848, Note_on_c, 9, 36, 97
1, 10848, Note_on_c, 9, 37, 81
1, 10848, Note_on_c, 9, 40, 104
1, 10848, Note_on_c, 10, 42, 61
1, 10848, Note_on_c, 11, 42, 62
1, 10848, Lyric_t, "did"
1, 10849, Note_on_c, 9, 39, 56
1, 10851, Note_on_c, 9, 81, 0
1, 10851, Note_on_c, 9, 42, 0
1, 10851, Note_on_c, 9, 69, 0
1, 10852, Note_on_c, 9, 36, 0
1, 10852, Note_on_c, 9, 40, 0
1, 10852, Note_on_c, 9, 37, 0
1, 10853, Note_on_c, 9, 39, 0
1, 10854, Note_on_c, 2, 64, 0
1, 10861, Note_on_c, 15, 57, 0
1, 10866, Note_on_c, 15, 64, 0
1, 10866, Note_on_c, 15, 66, 0
1, 10871, Note_on_c, 2, 64, 67
1, 10871, Note_on_c, 9, 81, 23
1, 10871, Lyric_t, "n't "
1, 10872, Note_on_c, 6, 49, 0
1, 10872, Note_on_c, 15, 68, 79
1, 10875, Note_on_c, 9, 81, 0
1, 10879, Note_on_c, 2, 64, 0
1, 10880, Note_on_c, 11, 42, 0
1, 10880, Note_on_c, 10, 42, 0
1, 10880, Note_on_c, 1, 42, 0
1, 10885, Note_on_c, 8, 54, 0
1, 10893, Note_on_c, 15, 68, 0
1, 10895, Note_on_c, 2, 64, 101
1, 10895, Note_on_c, 8, 57, 95
1, 10895, Note_on_c, 9, 69, 101
1, 10895, Note_on_c, 9, 81, 28
1, 10895, Note_on_c, 9, 42, 83
1, 10895, Lyric_t, "want "
1, 10896, Note_on_c, 6, 47, 75
1, 10896, Note_on_c, 7, 42, 69
1, 10896, Note_on_c, 9, 39, 27
1, 10896, Note_on_c, 15, 57, 77
1, 10899, Note_on_c, 9, 42, 0
1, 10899, Note_on_c, 9, 81, 0
1, 10899, Note_on_c, 9, 69, 0
1, 10900, Note_on_c, 9, 39, 0
1, 10904, Note_on_c, 2, 64, 0
1, 10912, Note_on_c, 15, 57, 0
1, 10915, Note_on_c, 8, 57, 0
1, 10917, Note_on_c, 7, 42, 0
1, 10918, Note_on_c, 6, 47, 0
1, 10919, Note_on_c, 2, 64, 63
1, 10919, Note_on_c, 15, 69, 73
1, 10919, Lyric_t, "to "
1, 10928, Note_on_c, 9, 40, 77
1, 10929, Note_on_c, 2, 64, 0
1, 10932, Note_on_c, 9, 40, 0
1, 10938, Note_on_c, 15, 69, 0
1, 10943, Note_on_c, 2, 63, 96
1, 10943, Note_on_c, 8, 57, 100
1, 10943, Note_on_c, 9, 42, 76
1, 10943, Lyric_t, "say "
1, 10944, Note_on_c, 1, 42, 93
1, 10944, Note_on_c, 6, 49, 77
1, 10944, Note_on_c, 9, 36, 101
1, 10944, Note_on_c, 9, 81, 24
1, 10944, Note_on_c, 10, 42, 57
1, 10944, Note_on_c, 11, 42, 67
1, 10944, Note_on_c, 15, 57, 74
1, 10947, Note_on_c, 9, 42, 0
1, 10948, Note_on_c, 9, 81, 0
1, 10948, Note_on_c, 9, 36, 0
1, 10959, Control_c, 2, 1, 22
1, 10963, Note_on_c, 15, 57, 0
1, 10963, Note_on_c, 8, 57, 0
1, 10964, Control_c, 2, 1, 37
1, 10968, Control_c, 2, 1, 43
1, 10968, Note_on_c, 9, 42, 52
1, 10968, Note_on_c, 9, 81, 22
1, 10968, Note_on_c, 15, 64, 75
1, 10972, Note_on_c, 9, 81, 0
1, 10972, Note_on_c, 9, 42, 0
1, 10972, Control_c, 2, 11, 127
1, 10973, Note_on_c, 6, 49, 0
1, 10973, Pitch_bend_c, 2, 7680
1, 10974, Note_on_c, 10, 42, 0
1, 10974, Note_on_c, 11, 42, 0
1, 10974, Note_on_c, 1, 42, 0
1, 10974, Control_c, 2, 1, 44
1, 10975, Pitch_bend_c, 2, 6528
1, 10976, Control_c, 2, 11, 118
1, 10977, Control_c, 2, 1, 38
1, 10979, Pitch_bend_c, 2, 5504
1, 10980, Control_c, 2, 11, 109
1, 10982, Control_c, 2, 1, 25
1, 10982, Pitch_bend_c, 2, 4608
1, 10984, Control_c, 2, 11, 100
1, 10986, Note_on_c, 15, 64, 0
1, 10986, Note_on_c, 2, 63, 0
1, 10986, Pitch_bend_c, 2, 3584
1, 10986, Control_c, 2, 1, 2
1, 10988, Control_c, 2, 11, 127
1, 10990, Pitch_bend_c, 2, 8192
1, 10990, Control_c, 2, 1, 0
1, 10991, Note_on_c, 8, 57, 96
1, 10991, Note_on_c, 9, 69, 96
1, 10991, Note_on_c, 15, 57, 81
1, 10992, Note_on_c, 2, 61, 83
1, 10992, Note_on_c, 7, 42, 76
1, 10992, Note_on_c, 9, 81, 28
1, 10992, Lyric_t, "what "
1, 10995, Note_on_c, 9, 69, 0
1, 10996, Note_on_c, 9, 81, 0
1, 11003, Note_on_c, 7, 42, 0
1, 11009, Note_on_c, 15, 57, 0
1, 11010, Note_on_c, 8, 57, 0
1, 11010, Note_on_c, 2, 61, 0
1, 11016, Note_on_c, 2, 61, 104
1, 11016, Note_on_c, 9, 81, 31
1, 11016, Note_on_c, 15, 61, 75
1, 11016, Lyric_t, "he "
1, 11020, Note_on_c, 9, 81, 0
1, 11036, Note_on_c, 15, 61, 0
1, 11039, Note_on_c, 8, 54, 103
1, 11039, Note_on_c, 15, 54, 77
1, 11040, Note_on_c, 1, 44, 90
1, 11040, Note_on_c, 9, 36, 100
1, 11040, Note_on_c, 9, 37, 73
1, 11040, Note_on_c, 9, 40, 96
1, 11040, Note_on_c, 9, 39, 52
1, 11040, Note_on_c, 10, 44, 62
1, 11040, Note_on_c, 11, 44, 68
1, 11043, Note_on_c, 2, 61, 0
1, 11044, Note_on_c, 9, 39, 0
1, 11044, Note_on_c, 9, 36, 0
1, 11044, Note_on_c, 9, 40, 0
1, 11044, Note_on_c, 9, 37, 0
1, 11063, Note_on_c, 15, 61, 75
1, 11064, Note_on_c, 2, 59, 103
1, 11064, Lyric_t, "told "
1, 11084, Note_on_c, 10, 44, 0
1, 11084, Note_on_c, 1, 44, 0
1, 11084, Note_on_c, 11, 44, 0
1, 11086, Note_on_c, 15, 61, 0
1, 11086, Note_on_c, 2, 59, 0
1, 11086, Note_on_c, 15, 64, 73
1, 11087, Note_on_c, 15, 54, 0
1, 11087, Note_on_c, 9, 39, 25
1, 11088, Note_on_c, 1, 39, 91
1, 11088, Note_on_c, 9, 36, 101
1, 11088, Note_on_c, 9, 81, 27
1, 11088, Note_on_c, 11, 39, 66
1, 11089, Note_on_c, 9, 42, 78
1, 11090, Note_on_c, 10, 39, 53
1, 11091, Note_on_c, 9, 39, 0
1, 11092, Note_on_c, 9, 36, 0
1, 11092, Note_on_c, 9, 81, 0
1, 11093, Note_on_c, 9, 42, 0
1, 11111, Note_on_c, 15, 64, 0
1, 11111, Note_on_c, 2, 61, 104
1, 11111, Note_on_c, 15, 68, 81
1, 11111, Lyric_t, "me, "
1, 11111, Lyric_t, "\015"
1, 11111, Lyric_t, "\012"
1, 11124, Note_on_c, 8, 54, 0
1, 11128, Note_on_c, 15, 68, 0
1, 11130, Note_on_c, 11, 39, 0
1, 11130, Note_on_c, 1, 39, 0
1, 11132, Note_on_c, 10, 39, 0
1, 11135, Control_c, 2, 1, 19
1, 11136, Note_on_c, 1, 37, 89
1, 11136, Note_on_c, 9, 36, 96
1, 11136, Note_on_c, 9, 49, 35
1, 11136, Note_on_c, 9, 81, 26
1, 11136, Note_on_c, 9, 42, 81
1, 11136, Note_on_c, 9, 84, 22
1, 11136, Note_on_c, 10, 37, 55
1, 11136, Note_on_c, 11, 37, 64
1, 11136, Note_on_c, 15, 49, 78
1, 11139, Control_c, 2, 1, 33
1, 11140, Note_on_c, 9, 84, 0
1, 11140, Note_on_c, 9, 49, 0
1, 11140, Note_on_c, 9, 36, 0
1, 11140, Note_on_c, 9, 42, 0
1, 11140, Note_on_c, 9, 81, 0
1, 11144, Control_c, 2, 1, 35
1, 11148, Control_c, 2, 1, 37
1, 11159, Note_on_c, 15, 56, 80
1, 11160, Note_on_c, 8, 56, 102
1, 11165, Note_on_c, 2, 61, 0
1, 11174, Note_on_c, 8, 56, 0
1, 11176, Control_c, 2, 1, 38
1, 11180, Note_on_c, 15, 56, 0
1, 11183, Note_on_c, 9, 81, 24
1, 11183, Note_on_c, 15, 59, 73
1, 11184, Note_on_c, 9, 42, 75
1, 11187, Note_on_c, 9, 81, 0
1, 11188, Note_on_c, 9, 42, 0
1, 11189, Note_on_c, 10, 37, 0
1, 11189, Note_on_c, 11, 37, 0
1, 11189, Note_on_c, 1, 37, 0
1, 11195, Control_c, 2, 1, 35
1, 11197, Control_c, 2, 1, 21
1, 11202, Control_c, 2, 1, 0
1, 11207, Note_on_c, 15, 56, 72
1, 11208, Note_on_c, 2, 61, 100
1, 11208, Note_on_c, 8, 56, 98
1, 11208, Lyric_t, "He "
1, 11211, Note_on_c, 15, 59, 0
1, 11220, Note_on_c, 2, 61, 0
1, 11225, Note_on_c, 8, 56, 0
1, 11228, Note_on_c, 15, 56, 0
1, 11231, Note_on_c, 6, 49, 78
1, 11231, Note_on_c, 9, 81, 27
1, 11231, Note_on_c, 15, 63, 76
1, 11232, Note_on_c, 1, 37, 86
1, 11232, Note_on_c, 2, 61, 102
1, 11232, Note_on_c, 9, 36, 96
1, 11232, Note_on_c, 9, 37, 75
1, 11232, Note_on_c, 9, 40, 99
1, 11232, Note_on_c, 9, 69, 100
1, 11232, Note_on_c, 9, 84, 18
1, 11232, Note_on_c, 10, 37, 61
1, 11232, Note_on_c, 11, 37, 61
1, 11232, Lyric_t, "said "
1, 11233, Note_on_c, 9, 39, 50
1, 11235, Note_on_c, 9, 81, 0
1, 11236, Note_on_c, 9, 84, 0
1, 11236, Note_on_c, 9, 37, 0
1, 11236, Note_on_c, 9, 69, 0
1, 11236, Note_on_c, 9, 40, 0
1, 11236, Note_on_c, 9, 36, 0
1, 11237, Note_on_c, 9, 39, 0
1, 11240, Note_on_c, 2, 61, 0
1, 11253, Note_on_c, 15, 63, 0
1, 11255, Note_on_c, 6, 49, 0
1, 11255, Note_on_c, 2, 61, 98
1, 11255, Note_on_c, 8, 56, 100
1, 11255, Note_on_c, 9, 81, 30
1, 11255, Note_on_c, 15, 56, 74
1, 11255, Lyric_t, "with"
1, 11256, Note_on_c, 9, 42, 82
1, 11256, Note_on_c, 9, 69, 93
1, 11259, Note_on_c, 9, 81, 0
1, 11260, Note_on_c, 9, 69, 0
1, 11260, Note_on_c, 9, 42, 0
1, 11262, Note_on_c, 1, 37, 0
1, 11262, Note_on_c, 11, 37, 0
1, 11262, Note_on_c, 10, 37, 0
1, 11265, Note_on_c, 2, 61, 0
1, 11273, Note_on_c, 8, 56, 0
1, 11276, Note_on_c, 15, 56, 0
1, 11279, Note_on_c, 2, 63, 97
1, 11279, Note_on_c, 9, 81, 31
1, 11279, Note_on_c, 15, 59, 79
1, 11280, Note_on_c, 5, 88, 84
1, 11280, Note_on_c, 6, 47, 77
1, 11280, Note_on_c, 9, 39, 30
1, 11280, Note_on_c, 9, 69, 95
1, 11280, Lyric_t, "out "
1, 11283, Note_on_c, 9, 81, 0
1, 11284, Note_on_c, 9, 69, 0
1, 11284, Note_on_c, 9, 39, 0
1, 11298, Note_on_c, 5, 88, 0
1, 11303, Note_on_c, 15, 59, 0
1, 11303, Note_on_c, 8, 56, 101
1, 11303, Note_on_c, 15, 56, 76
1, 11304, Note_on_c, 6, 47, 0
1, 11304, Note_on_c, 9, 69, 96
1, 11308, Note_on_c, 9, 69, 0
1, 11310, Note_on_c, 2, 63, 0
1, 11312, Note_on_c, 5, 90, 80
1, 11322, Note_on_c, 8, 56, 0
1, 11327, Note_on_c, 1, 37, 91
1, 11327, Note_on_c, 2, 63, 95
1, 11327, Note_on_c, 5, 92, 78
1, 11327, Note_on_c, 9, 36, 104
1, 11327, Note_on_c, 9, 84, 16
1, 11327, Note_on_c, 10, 37, 61
1, 11327, Note_on_c, 11, 37, 60
1, 11327, Note_on_c, 15, 63, 76
1, 11327, Lyric_t, "me "
1, 11328, Note_on_c, 15, 56, 0
1, 11328, Note_on_c, 6, 49, 79
1, 11328, Note_on_c, 9, 42, 83
1, 11328, Note_on_c, 9, 69, 93
1, 11328, Note_on_c, 9, 81, 31
1, 11329, Note_on_c, 5, 90, 0
1, 11331, Note_on_c, 9, 84, 0
1, 11331, Note_on_c, 9, 36, 0
1, 11332, Note_on_c, 9, 42, 0
1, 11332, Note_on_c, 9, 69, 0
1, 11332, Note_on_c, 9, 81, 0
1, 11342, Note_on_c, 5, 92, 0
1, 11343, Control_c, 2, 1, 12
1, 11346, Note_on_c, 15, 63, 0
1, 11346, Control_c, 2, 1, 31
1, 11351, Control_c, 2, 1, 39
1, 11351, Note_on_c, 8, 56, 99
1, 11351, Note_on_c, 15, 56, 72
1, 11352, Note_on_c, 9, 42, 61
1, 11352, Note_on_c, 9, 81, 22
1, 11352, Lyric_t, "he "
1, 11354, Pitch_bend_c, 2, 4992
1, 11355, Control_c, 2, 1, 40
1, 11356, Note_on_c, 9, 81, 0
1, 11356, Note_on_c, 9, 42, 0
1, 11356, Pitch_bend_c, 2, 1280
1, 11358, Note_on_c, 6, 49, 0
1, 11360, Pitch_bend_c, 2, 0
1, 11361, Control_c, 2, 1, 36
1, 11364, Note_on_c, 11, 37, 0
1, 11364, Note_on_c, 1, 37, 0
1, 11364, Note_on_c, 10, 37, 0
1, 11365, Note_on_c, 15, 56, 0
1, 11365, Control_c, 2, 1, 22
1, 11369, Control_c, 2, 1, 0
1, 11370, Note_on_c, 8, 56, 0
1, 11375, Note_on_c, 15, 56, 77
1, 11375, Note_on_c, 15, 61, 74
1, 11376, Note_on_c, 5, 88, 72
1, 11376, Note_on_c, 9, 81, 22
1, 11380, Note_on_c, 9, 81, 0
1, 11384, Note_on_c, 2, 63, 0
1, 11386, Note_on_c, 15, 61, 0
1, 11389, Note_on_c, 15, 56, 0
1, 11391, Note_on_c, 5, 88, 0
1, 11399, Pitch_bend_c, 2, 8192
1, 11399, Note_on_c, 15, 56, 73
1, 11399, Note_on_c, 15, 64, 78
1, 11400, Note_on_c, 2, 61, 104
1, 11400, Note_on_c, 8, 56, 102
1, 11400, Note_on_c, 9, 42, 79
1, 11400, Note_on_c, 9, 81, 23
1, 11400, Lyric_t, "could"
1, 11404, Note_on_c, 9, 81, 0
1, 11404, Note_on_c, 9, 42, 0
1, 11408, Note_on_c, 5, 90, 68
1, 11413, Note_on_c, 8, 56, 0
1, 11415, Note_on_c, 15, 64, 0
1, 11421, Note_on_c, 5, 90, 0
1, 11423, Note_on_c, 5, 92, 66
1, 11424, Note_on_c, 1, 37, 92
1, 11424, Note_on_c, 8, 56, 98
1, 11424, Note_on_c, 9, 36, 98
1, 11424, Note_on_c, 9, 37, 73
1, 11424, Note_on_c, 9, 40, 96
1, 11424, Note_on_c, 9, 39, 54
1, 11424, Note_on_c, 9, 84, 18
1, 11424, Note_on_c, 10, 37, 62
1, 11424, Note_on_c, 11, 37, 64
1, 11427, Note_on_c, 15, 49, 0
1, 11428, Note_on_c, 9, 84, 0
1, 11428, Note_on_c, 9, 37, 0
1, 11428, Note_on_c, 9, 39, 0
1, 11428, Note_on_c, 9, 40, 0
1, 11428, Note_on_c, 9, 36, 0
1, 11430, Note_on_c, 2, 61, 0
1, 11437, Note_on_c, 5, 92, 0
1, 11439, Note_on_c, 15, 56, 0
1, 11447, Note_on_c, 15, 66, 81
1, 11448, Note_on_c, 2, 59, 97
1, 11448, Lyric_t, "n't "
1, 11450, Note_on_c, 8, 56, 0
1, 11457, Note_on_c, 1, 37, 0
1, 11457, Note_on_c, 11, 37, 0
1, 11457, Note_on_c, 10, 37, 0
1, 11471, Note_on_c, 5, 88, 60
1, 11471, Note_on_c, 8, 56, 98
1, 11471, Note_on_c, 9, 39, 24
1, 11471, Note_on_c, 15, 56, 75
1, 11472, Note_on_c, 9, 42, 82
1, 11472, Note_on_c, 9, 81, 24
1, 11473, Note_on_c, 2, 59, 0
1, 11473, Note_on_c, 15, 66, 0
1, 11475, Note_on_c, 9, 39, 0
1, 11476, Note_on_c, 9, 81, 0
1, 11476, Note_on_c, 9, 42, 0
1, 11486, Note_on_c, 5, 88, 0
1, 11494, Note_on_c, 8, 56, 0
1, 11495, Note_on_c, 2, 61, 102
1, 11495, Lyric_t, "make "
1, 11495, Lyric_t, "\015"
1, 11496, Note_on_c, 15, 56, 0
1, 11504, Note_on_c, 5, 90, 56
1, 11508, Control_c, 2, 1, 19
1, 11512, Control_c, 2, 1, 39
1, 11515, Note_on_c, 5, 90, 0
1, 11517, Control_c, 2, 1, 46
1, 11519, Note_on_c, 5, 92, 54
1, 11520, Tempo, 638298
1, 11520, Note_on_c, 1, 37, 88
1, 11520, Note_on_c, 7, 37, 83
1, 11520, Note_on_c, 9, 36, 96
1, 11520, Note_on_c, 9, 81, 29
1, 11520, Note_on_c, 10, 37, 61
1, 11520, Note_on_c, 11, 37, 62
1, 11520, Note_on_c, 15, 59, 72
1, 11522, Control_c, 2, 1, 50
1, 11524, Note_on_c, 9, 81, 0
1, 11524, Note_on_c, 9, 36, 0
1, 11533, Note_on_c, 5, 92, 0
1, 11540, Control_c, 2, 1, 48
1, 11543, Note_on_c, 15, 64, 76
1, 11544, Note_on_c, 2, 61, 0
1, 11544, Note_on_c, 8, 64, 98
1, 11547, Control_c, 2, 1, 47
1, 11552, Control_c, 2, 1, 46
1, 11553, Note_on_c, 15, 59, 0
1, 11561, Note_on_c, 8, 64, 0
1, 11562, Control_c, 2, 1, 43
1, 11567, Control_c, 2, 1, 39
1, 11567, Note_on_c, 9, 81, 28
1, 11568, Note_on_c, 15, 64, 0
1, 11568, Note_on_c, 15, 59, 75
1, 11571, Note_on_c, 9, 81, 0
1, 11571, Control_c, 2, 1, 25
1, 11573, Note_on_c, 11, 37, 0
1, 11573, Note_on_c, 10, 37, 0
1, 11573, Note_on_c, 1, 37, 0
1, 11576, Control_c, 2, 1, 0
1, 11586, Note_on_c, 7, 37, 0
1, 11591, Note_on_c, 15, 61, 76
1, 11592, Note_on_c, 7, 37, 74
1, 11592, Note_on_c, 8, 63, 95
1, 11592, Note_on_c, 9, 42, 80
1, 11592, Lyric_t, "it "
1, 11596, Note_on_c, 9, 42, 0
1, 11602, Note_on_c, 15, 59, 0
1, 11609, Note_on_c, 8, 63, 0
1, 11610, Note_on_c, 15, 61, 0
1, 11615, Note_on_c, 6, 49, 79
1, 11615, Note_on_c, 9, 42, 82
1, 11615, Note_on_c, 9, 69, 93
1, 11615, Note_on_c, 9, 81, 27
1, 11616, Note_on_c, 1, 37, 86
1, 11616, Note_on_c, 3, 63, 103
1, 11616, Note_on_c, 9, 36, 96
1, 11616, Note_on_c, 9, 37, 72
1, 11616, Note_on_c, 9, 40, 96
1, 11616, Note_on_c, 10, 37, 59
1, 11616, Note_on_c, 11, 37, 68
1, 11616, Note_on_c, 15, 64, 76
1, 11616, Lyric_t, "through "
1, 11617, Note_on_c, 9, 39, 51
1, 11619, Note_on_c, 9, 81, 0
1, 11619, Note_on_c, 9, 69, 0
1, 11619, Note_on_c, 9, 42, 0
1, 11620, Note_on_c, 9, 37, 0
1, 11620, Note_on_c, 9, 36, 0
1, 11620, Note_on_c, 9, 40, 0
1, 11621, Note_on_c, 9, 39, 0
1, 11622, Note_on_c, 7, 37, 0
1, 11639, Note_on_c, 9, 81, 26
1, 11639, Note_on_c, 15, 68, 77
1, 11640, Note_on_c, 6, 49, 0
1, 11640, Note_on_c, 8, 63, 98
1, 11643, Note_on_c, 9, 81, 0
1, 11648, Note_on_c, 3, 63, 0
1, 11650, Note_on_c, 15, 64, 0
1, 11654, Note_on_c, 10, 37, 0
1, 11654, Note_on_c, 11, 37, 0
1, 11654, Note_on_c, 1, 37, 0
1, 11657, Note_on_c, 8, 63, 0
1, 11663, Note_on_c, 9, 69, 93
1, 11663, Note_on_c, 9, 81, 31
1, 11663, Note_on_c, 9, 42, 76
1, 11663, Note_on_c, 15, 63, 72
1, 11664, Note_on_c, 6, 47, 73
1, 11664, Note_on_c, 9, 39, 30
1, 11665, Note_on_c, 3, 63, 101
1, 11665, Lyric_t, "the "
1, 11667, Note_on_c, 9, 42, 0
1, 11667, Note_on_c, 9, 81, 0
1, 11667, Note_on_c, 9, 69, 0
1, 11668, Note_on_c, 9, 39, 0
1, 11686, Note_on_c, 6, 47, 0
1, 11687, Note_on_c, 15, 64, 79
1, 11688, Note_on_c, 8, 64, 97
1, 11691, Note_on_c, 3, 63, 0
1, 11696, Note_on_c, 9, 40, 73
1, 11700, Note_on_c, 9, 40, 0
1, 11703, Note_on_c, 8, 64, 0
1, 11703, Note_on_c, 15, 63, 0
1, 11708, Note_on_c, 15, 68, 0
1, 11709, Note_on_c, 15, 64, 0
1, 11711, Note_on_c, 1, 37, 85
1, 11711, Note_on_c, 9, 42, 81
1, 11711, Note_on_c, 9, 36, 96
1, 11711, Note_on_c, 10, 37, 61
1, 11711, Note_on_c, 11, 37, 65
1, 11711, Note_on_c, 15, 71, 72
1, 11712, Note_on_c, 3, 63, 97
1, 11712, Note_on_c, 6, 49, 72
1, 11712, Note_on_c, 9, 81, 29
1, 11712, Lyric_t, "day, "
1, 11714, Control_c, 3, 1, 1
1, 11715, Note_on_c, 9, 36, 0
1, 11715, Note_on_c, 9, 42, 0
1, 11715, Control_c, 3, 1, 46
1, 11716, Note_on_c, 9, 81, 0
1, 11719, Control_c, 3, 1, 60
1, 11724, Control_c, 3, 1, 68
1, 11730, Control_c, 3, 1, 69
1, 11735, Control_c, 3, 1, 68
1, 11735, Note_on_c, 8, 64, 103
1, 11735, Note_on_c, 9, 38, 53
1, 11735, Note_on_c, 15, 64, 72
1, 11736, Note_on_c, 3, 63, 0
1, 11736, Note_on_c, 3, 63, 97
1, 11736, Note_on_c, 9, 42, 55
1, 11736, Note_on_c, 9, 81, 25
1, 11736, Lyric_t, "ain't "
1, 11738, Control_c, 3, 1, 66
1, 11738, Pitch_bend_c, 3, 5248
1, 11739, Note_on_c, 9, 38, 0
1, 11740, Note_on_c, 9, 81, 0
1, 11740, Note_on_c, 9, 42, 0
1, 11741, Note_on_c, 6, 49, 0
1, 11741, Pitch_bend_c, 3, 1920
1, 11742, Control_c, 3, 1, 64
1, 11745, Pitch_bend_c, 3, 0
1, 11748, Note_on_c, 1, 37, 0
1, 11748, Note_on_c, 10, 37, 0
1, 11748, Note_on_c, 11, 37, 0
1, 11748, Control_c, 3, 1, 62
1, 11751, Control_c, 3, 1, 58
1, 11755, Note_on_c, 8, 64, 0
1, 11755, Control_c, 3, 1, 54
1, 11759, Note_on_c, 9, 69, 98
1, 11759, Note_on_c, 15, 68, 73
1, 11760, Note_on_c, 3, 63, 0
1, 11760, Note_on_c, 7, 37, 68
1, 11760, Note_on_c, 9, 38, 54
1, 11760, Note_on_c, 9, 81, 27
1, 11761, Control_c, 3, 1, 50
1, 11762, Note_on_c, 15, 64, 0
1, 11762, Note_on_c, 15, 71, 0
1, 11763, Note_on_c, 9, 69, 0
1, 11764, Note_on_c, 9, 38, 0
1, 11764, Note_on_c, 9, 81, 0
1, 11765, Control_c, 3, 1, 40
1, 11769, Control_c, 3, 1, 26
1, 11773, Control_c, 3, 1, 5
1, 11777, Note_on_c, 7, 37, 0
1, 11778, Control_c, 3, 1, 0
1, 11783, Pitch_bend_c, 3, 9102
1, 11783, Note_on_c, 15, 75, 72
1, 11784, Note_on_c, 9, 38, 50
1, 11784, Note_on_c, 9, 81, 28
1, 11784, Note_on_c, 15, 71, 74
1, 11785, Note_on_c, 15, 68, 0
1, 11785, Note_on_c, 3, 61, 102
1, 11785, Lyric_t, "that "
1, 11787, Pitch_bend_c, 3, 8192
1, 11788, Note_on_c, 9, 81, 0
1, 11788, Note_on_c, 9, 38, 0
1, 11804, Note_on_c, 15, 71, 0
1, 11807, Note_on_c, 15, 71, 80
1, 11808, Note_on_c, 1, 40, 90
1, 11808, Note_on_c, 9, 36, 97
1, 11808, Note_on_c, 9, 38, 49
1, 11808, Note_on_c, 9, 37, 77
1, 11808, Note_on_c, 9, 40, 98
1, 11808, Note_on_c, 9, 39, 58
1, 11808, Note_on_c, 10, 40, 54
1, 11808, Note_on_c, 11, 40, 67
1, 11812, Note_on_c, 9, 39, 0
1, 11812, Note_on_c, 9, 40, 0
1, 11812, Note_on_c, 9, 37, 0
1, 11812, Note_on_c, 9, 38, 0
1, 11812, Note_on_c, 9, 36, 0
1, 11821, Note_on_c, 3, 61, 0
1, 11831, Note_on_c, 3, 59, 95
1, 11831, Lyric_t, "a "
1, 11832, Note_on_c, 7, 37, 74
1, 11832, Note_on_c, 15, 80, 81
1, 11849, Note_on_c, 7, 37, 0
1, 11849, Note_on_c, 15, 71, 0
1, 11852, Note_on_c, 15, 75, 0
1, 11855, Note_on_c, 10, 40, 0
1, 11855, Note_on_c, 11, 40, 0
1, 11855, Note_on_c, 1, 40, 0
1, 11855, Note_on_c, 9, 39, 25
1, 11856, Note_on_c, 1, 44, 89
1, 11856, Note_on_c, 9, 36, 103
1, 11856, Note_on_c, 9, 81, 23
1, 11856, Note_on_c, 10, 44, 62
1, 11856, Note_on_c, 11, 44, 60
1, 11856, Note_on_c, 15, 61, 72
1, 11856, Note_on_c, 15, 71, 81
1, 11857, Note_on_c, 9, 42, 84
1, 11859, Note_on_c, 9, 39, 0
1, 11860, Note_on_c, 9, 36, 0
1, 11860, Note_on_c, 9, 81, 0
1, 11861, Note_on_c, 9, 42, 0
1, 11863, Note_on_c, 15, 80, 0
1, 11872, Note_on_c, 3, 59, 0
1, 11880, Note_on_c, 3, 61, 98
1, 11880, Note_on_c, 15, 83, 72
1, 11880, Note_on_c, 15, 56, 73
1, 11880, Lyric_t, "shame. "
1, 11880, Lyric_t, "\015"
1, 11880, Lyric_t, "\012"
1, 11880, Lyric_t, "\012"
1, 11882, Note_on_c, 15, 61, 0
1, 11892, Note_on_c, 15, 71, 0
1, 11898, Note_on_c, 1, 44, 0
1, 11898, Note_on_c, 10, 44, 0
1, 11898, Note_on_c, 11, 44, 0
1, 11901, Note_on_c, 15, 56, 0
1, 11904, Note_on_c, 1, 42, 89
1, 11904, Note_on_c, 8, 54, 103
1, 11904, Note_on_c, 9, 36, 101
1, 11904, Note_on_c, 9, 49, 35
1, 11904, Note_on_c, 9, 81, 31
1, 11904, Note_on_c, 9, 42, 81
1, 11904, Note_on_c, 9, 84, 19
1, 11904, Note_on_c, 10, 42, 62
1, 11904, Note_on_c, 11, 42, 65
1, 11904, Note_on_c, 15, 54, 73
1, 11907, Note_on_c, 15, 83, 0
1, 11907, Note_on_c, 3, 61, 0
1, 11908, Note_on_c, 9, 84, 0
1, 11908, Note_on_c, 9, 42, 0
1, 11908, Note_on_c, 9, 36, 0
1, 11908, Note_on_c, 9, 81, 0
1, 11908, Note_on_c, 9, 49, 0
1, 11928, Note_on_c, 3, 59, 87
1, 11928, Note_on_c, 15, 57, 76
1, 11942, Note_on_c, 11, 42, 0
1, 11942, Note_on_c, 10, 42, 0
1, 11942, Note_on_c, 1, 42, 0
1, 11949, Note_on_c, 15, 57, 0
1, 11951, Note_on_c, 9, 81, 26
1, 11952, Note_on_c, 3, 61, 97
1, 11952, Note_on_c, 9, 42, 82
1, 11952, Note_on_c, 15, 61, 77
1, 11954, Note_on_c, 3, 59, 0
1, 11955, Note_on_c, 9, 81, 0
1, 11956, Note_on_c, 9, 42, 0
1, 11965, Control_c, 3, 1, 13
1, 11967, Control_c, 3, 1, 34
1, 11972, Control_c, 3, 1, 42
1, 11976, Note_on_c, 2, 64, 102
1, 11976, Control_c, 3, 1, 46
1, 11976, Note_on_c, 3, 40, 97
1, 11976, Note_on_c, 15, 64, 80
1, 11976, Lyric_t, "Re"
1, 11980, Note_on_c, 15, 61, 0
1, 11981, Note_on_c, 2, 64, 0
1, 11981, Control_c, 3, 1, 50
1, 11988, Control_c, 3, 1, 51
1, 11990, Note_on_c, 3, 40, 0
1, 11999, Control_c, 3, 1, 50
1, 11999, Note_on_c, 6, 49, 81
1, 11999, Note_on_c, 9, 81, 24
1, 12000, Note_on_c, 15, 64, 0
1, 12000, Note_on_c, 1, 42, 89
1, 12000, Note_on_c, 2, 64, 100
1, 12000, Note_on_c, 3, 40, 97
1, 12000, Note_on_c, 9, 36, 102
1, 12000, Note_on_c, 9, 37, 73
1, 12000, Note_on_c, 9, 40, 99
1, 12000, Note_on_c, 9, 69, 94
1, 12000, Note_on_c, 9, 84, 21
1, 12000, Note_on_c, 10, 42, 53
1, 12000, Note_on_c, 11, 42, 61
1, 12000, Note_on_c, 15, 68, 79
1, 12000, Lyric_t, "mem"
1, 12001, Note_on_c, 9, 39, 49
1, 12003, Note_on_c, 9, 81, 0
1, 12003, Control_c, 3, 1, 47
1, 12004, Note_on_c, 9, 40, 0
1, 12004, Note_on_c, 9, 37, 0
1, 12004, Note_on_c, 9, 36, 0
1, 12004, Note_on_c, 9, 84, 0
1, 12004, Note_on_c, 9, 69, 0
1, 12005, Note_on_c, 9, 39, 0
1, 12007, Control_c, 3, 1, 42
1, 12009, Note_on_c, 2, 64, 0
1, 12012, Control_c, 3, 1, 32
1, 12014, Note_on_c, 3, 40, 0
1, 12016, Control_c, 3, 1, 14
1, 12021, Control_c, 3, 1, 1
1, 12023, Note_on_c, 6, 49, 0
1, 12023, Note_on_c, 9, 81, 31
1, 12024, Note_on_c, 2, 64, 101
1, 12024, Note_on_c, 3, 40, 97
1, 12024, Note_on_c, 9, 42, 77
1, 12024, Note_on_c, 9, 69, 98
1, 12024, Note_on_c, 15, 64, 73
1, 12024, Lyric_t, "ber "
1, 12027, Note_on_c, 9, 81, 0
1, 12027, Note_on_c, 15, 68, 0
1, 12028, Note_on_c, 9, 42, 0
1, 12028, Note_on_c, 9, 69, 0
1, 12031, Note_on_c, 2, 64, 0
1, 12032, Note_on_c, 10, 42, 0
1, 12032, Note_on_c, 1, 42, 0
1, 12032, Note_on_c, 11, 42, 0
1, 12035, Note_on_c, 8, 54, 0
1, 12038, Note_on_c, 3, 40, 0
1, 12039, Note_on_c, 3, 61, 0
1, 12047, Note_on_c, 2, 64, 97
1, 12047, Note_on_c, 9, 81, 25
1, 12047, Lyric_t, "you "
1, 12048, Note_on_c, 5, 90, 84
1, 12048, Note_on_c, 6, 47, 75
1, 12048, Note_on_c, 8, 57, 102
1, 12048, Note_on_c, 9, 39, 29
1, 12048, Note_on_c, 9, 69, 100
1, 12049, Note_on_c, 15, 57, 74
1, 12050, Note_on_c, 15, 64, 0
1, 12051, Note_on_c, 9, 81, 0
1, 12052, Note_on_c, 9, 69, 0
1, 12052, Note_on_c, 9, 39, 0
1, 12065, Note_on_c, 5, 90, 0
1, 12067, Note_on_c, 15, 57, 0
1, 12071, Note_on_c, 15, 61, 74
1, 12072, Note_on_c, 2, 64, 0
1, 12072, Note_on_c, 6, 47, 0
1, 12072, Note_on_c, 9, 69, 98
1, 12076, Note_on_c, 9, 69, 0
1, 12078, Note_on_c, 8, 57, 0
1, 12079, Note_on_c, 5, 92, 81
1, 12082, Note_on_c, 15, 54, 0
1, 12087, Note_on_c, 15, 61, 0
1, 12090, Pitch_bend_c, 2, 9102
1, 12091, Pitch_bend_c, 2, 10532
1, 12095, Note_on_c, 2, 64, 100
1, 12095, Pitch_bend_c, 2, 12092
1, 12095, Note_on_c, 9, 84, 14
1, 12095, Lyric_t, "mis"
1, 12096, Note_on_c, 1, 42, 87
1, 12096, Note_on_c, 5, 93, 79
1, 12096, Note_on_c, 6, 49, 81
1, 12096, Note_on_c, 8, 54, 99
1, 12096, Note_on_c, 9, 36, 104
1, 12096, Note_on_c, 9, 42, 78
1, 12096, Note_on_c, 9, 69, 100
1, 12096, Note_on_c, 9, 81, 25
1, 12096, Note_on_c, 10, 42, 58
1, 12096, Note_on_c, 11, 42, 67
1, 12096, Note_on_c, 15, 54, 79
1, 12098, Pitch_bend_c, 2, 13652
1, 12099, Note_on_c, 9, 84, 0
1, 12100, Note_on_c, 9, 81, 0
1, 12100, Note_on_c, 9, 36, 0
1, 12100, Note_on_c, 9, 69, 0
1, 12100, Note_on_c, 9, 42, 0
1, 12100, Note_on_c, 5, 92, 0
1, 12102, Pitch_bend_c, 2, 14562
1, 12106, Pitch_bend_c, 2, 15342
1, 12109, Pitch_bend_c, 2, 15992
1, 12112, Pitch_bend_c, 2, 16382
1, 12115, Note_on_c, 5, 93, 0
1, 12120, Note_on_c, 9, 42, 58
1, 12120, Note_on_c, 9, 81, 30
1, 12120, Note_on_c, 15, 69, 77
1, 12124, Note_on_c, 9, 81, 0
1, 12124, Note_on_c, 9, 42, 0
1, 12124, Note_on_c, 8, 54, 0
1, 12125, Pitch_bend_c, 2, 15992
1, 12126, Note_on_c, 10, 42, 0
1, 12126, Note_on_c, 1, 42, 0
1, 12126, Note_on_c, 6, 49, 0
1, 12126, Note_on_c, 11, 42, 0
1, 12126, Pitch_bend_c, 2, 14692
1, 12129, Control_c, 3, 1, 22
1, 12130, Pitch_bend_c, 2, 8192
1, 12134, Control_c, 3, 1, 37
1, 12138, Control_c, 3, 1, 46
1, 12142, Control_c, 3, 1, 51
1, 12144, Note_on_c, 5, 90, 73
1, 12144, Note_on_c, 8, 57, 98
1, 12144, Note_on_c, 9, 81, 22
1, 12144, Note_on_c, 15, 57, 79
1, 12145, Note_on_c, 15, 69, 0
1, 12148, Note_on_c, 9, 81, 0
1, 12148, Control_c, 3, 1, 53
1, 12151, Note_on_c, 2, 64, 0
1, 12155, Control_c, 3, 1, 54
1, 12162, Note_on_c, 15, 57, 0
1, 12163, Note_on_c, 5, 90, 0
1, 12167, Note_on_c, 2, 63, 98
1, 12167, Lyric_t, "un"
1, 12168, Note_on_c, 9, 42, 76
1, 12168, Note_on_c, 9, 81, 26
1, 12168, Note_on_c, 15, 64, 74
1, 12172, Note_on_c, 9, 81, 0
1, 12172, Note_on_c, 9, 42, 0
1, 12175, Note_on_c, 5, 92, 69
1, 12187, Control_c, 3, 1, 53
1, 12191, Note_on_c, 9, 84, 14
1, 12192, Note_on_c, 1, 42, 92
1, 12192, Control_c, 3, 11, 109
1, 12192, Note_on_c, 5, 93, 67
1, 12192, Note_on_c, 9, 36, 100
1, 12192, Note_on_c, 9, 37, 76
1, 12192, Note_on_c, 9, 40, 103
1, 12192, Note_on_c, 9, 39, 53
1, 12192, Note_on_c, 10, 42, 54
1, 12192, Note_on_c, 11, 42, 60
1, 12192, Note_on_c, 15, 61, 79
1, 12192, Note_on_c, 15, 57, 73
1, 12193, Note_on_c, 15, 64, 0
1, 12193, Pitch_bend_c, 3, 7552
1, 12195, Note_on_c, 9, 84, 0
1, 12196, Note_on_c, 9, 40, 0
1, 12196, Note_on_c, 5, 92, 0
1, 12196, Note_on_c, 9, 37, 0
1, 12196, Note_on_c, 2, 63, 0
1, 12196, Note_on_c, 9, 36, 0
1, 12196, Note_on_c, 9, 39, 0
1, 12197, Pitch_bend_c, 3, 7040
1, 12200, Control_c, 3, 11, 93
1, 12200, Pitch_bend_c, 3, 6656
1, 12203, Control_c, 3, 1, 52
1, 12204, Control_c, 3, 11, 92
1, 12204, Pitch_bend_c, 3, 6144
1, 12208, Control_c, 3, 11, 85
1, 12208, Pitch_bend_c, 3, 5888
1, 12211, Note_on_c, 15, 57, 0
1, 12211, Note_on_c, 5, 93, 0
1, 12211, Pitch_bend_c, 3, 5376
1, 12212, Control_c, 3, 11, 79
1, 12213, Control_c, 3, 1, 51
1, 12214, Pitch_bend_c, 3, 4992
1, 12216, Note_on_c, 2, 64, 103
1, 12216, Control_c, 3, 11, 72
1, 12216, Note_on_c, 15, 57, 76
1, 12216, Lyric_t, "der"
1, 12217, Note_on_c, 15, 61, 0
1, 12217, Pitch_bend_c, 3, 4480
1, 12220, Control_c, 3, 11, 65
1, 12221, Pitch_bend_c, 3, 3456
1, 12222, Control_c, 3, 1, 50
1, 12224, Control_c, 3, 11, 59
1, 12224, Pitch_bend_c, 3, 2560
1, 12226, Note_on_c, 11, 42, 0
1, 12226, Note_on_c, 1, 42, 0
1, 12226, Note_on_c, 10, 42, 0
1, 12228, Control_c, 3, 11, 45
1, 12228, Pitch_bend_c, 3, 1664
1, 12230, Control_c, 3, 1, 49
1, 12232, Pitch_bend_c, 3, 1024
1, 12233, Control_c, 3, 1, 47
1, 12235, Pitch_bend_c, 3, 512
1, 12236, Control_c, 3, 11, 39
1, 12238, Note_on_c, 15, 57, 0
1, 12238, Control_c, 3, 1, 45
1, 12239, Pitch_bend_c, 3, 128
1, 12239, Note_on_c, 9, 39, 29
1, 12240, Control_c, 3, 11, 32
1, 12240, Note_on_c, 5, 90, 61
1, 12240, Note_on_c, 9, 42, 80
1, 12240, Note_on_c, 9, 81, 26
1, 12240, Note_on_c, 15, 61, 78
1, 12240, Note_on_c, 15, 57, 74
1, 12241, Control_c, 3, 1, 39
1, 12243, Note_on_c, 9, 39, 0
1, 12243, Note_on_c, 2, 64, 0
1, 12244, Note_on_c, 9, 81, 0
1, 12244, Note_on_c, 9, 42, 0
1, 12245, Note_on_c, 8, 57, 0
1, 12246, Control_c, 3, 1, 31
1, 12251, Control_c, 3, 1, 22
1, 12255, Control_c, 3, 1, 12
1, 12256, Note_on_c, 15, 54, 0
1, 12257, Note_on_c, 15, 57, 0
1, 12259, Note_on_c, 5, 90, 0
1, 12260, Control_c, 3, 1, 4
1, 12264, Note_on_c, 2, 61, 101
1, 12264, Control_c, 3, 11, 127
1, 12264, Control_c, 3, 1, 0
1, 12264, Note_on_c, 8, 54, 96
1, 12264, Note_on_c, 15, 54, 78
1, 12264, Lyric_t, "stood, "
1, 12264, Lyric_t, "\015"
1, 12265, Note_on_c, 15, 61, 0
1, 12266, Pitch_bend_c, 3, 8192
1, 12271, Note_on_c, 5, 92, 57
1, 12285, Note_on_c, 8, 54, 0
1, 12287, Control_c, 2, 1, 14
1, 12288, Tempo, 645161
1, 12288, Note_on_c, 15, 54, 0
1, 12288, Note_on_c, 1, 42, 87
1, 12288, Note_on_c, 5, 93, 55
1, 12288, Note_on_c, 7, 42, 87
1, 12288, Note_on_c, 8, 54, 96
1, 12288, Note_on_c, 9, 36, 103
1, 12288, Note_on_c, 9, 81, 26
1, 12288, Note_on_c, 10, 42, 58
1, 12288, Note_on_c, 11, 42, 68
1, 12288, Note_on_c, 15, 66, 81
1, 12291, Control_c, 2, 1, 34
1, 12292, Note_on_c, 9, 81, 0
1, 12292, Note_on_c, 9, 36, 0
1, 12295, Control_c, 2, 1, 46
1, 12296, Note_on_c, 5, 92, 0
1, 12300, Control_c, 2, 1, 53
1, 12305, Control_c, 2, 1, 57
1, 12309, Control_c, 2, 1, 60
1, 12311, Note_on_c, 15, 57, 74
1, 12314, Control_c, 2, 1, 62
1, 12317, Note_on_c, 5, 93, 0
1, 12320, Control_c, 2, 11, 126
1, 12324, Control_c, 2, 11, 119
1, 12326, Note_on_c, 10, 42, 0
1, 12326, Note_on_c, 11, 42, 0
1, 12326, Note_on_c, 1, 42, 0
1, 12326, Control_c, 2, 1, 61
1, 12327, Control_c, 2, 1, 58
1, 12328, Control_c, 2, 11, 112
1, 12330, Note_on_c, 15, 57, 0
1, 12332, Control_c, 2, 11, 105
1, 12332, Control_c, 2, 1, 53
1, 12335, Note_on_c, 9, 81, 23
1, 12335, Note_on_c, 15, 61, 72
1, 12336, Control_c, 2, 11, 92
1, 12337, Control_c, 2, 1, 48
1, 12339, Note_on_c, 9, 81, 0
1, 12340, Control_c, 2, 1, 33
1, 12344, Control_c, 2, 11, 85
1, 12345, Control_c, 2, 1, 0
1, 12348, Control_c, 2, 11, 79
1, 12349, Note_on_c, 2, 61, 0
1, 12352, Control_c, 2, 11, 72
1, 12356, Control_c, 2, 11, 65
1, 12358, Note_on_c, 7, 42, 0
1, 12359, Note_on_c, 15, 57, 79
1, 12360, Note_on_c, 7, 42, 67
1, 12360, Note_on_c, 9, 42, 78
1, 12364, Note_on_c, 9, 42, 0
1, 12372, Control_c, 2, 11, 127
1, 12379, Note_on_c, 15, 57, 0
1, 12380, Note_on_c, 15, 61, 0
1, 12383, Note_on_c, 7, 42, 0
1, 12383, Note_on_c, 2, 64, 98
1, 12383, Note_on_c, 6, 49, 81
1, 12383, Note_on_c, 9, 42, 83
1, 12383, Note_on_c, 9, 69, 93
1, 12383, Note_on_c, 9, 81, 31
1, 12383, Note_on_c, 15, 57, 78
1, 12383, Note_on_c, 15, 64, 75
1, 12383, Lyric_t, "Plus "
1, 12384, Note_on_c, 1, 42, 86
1, 12384, Note_on_c, 9, 36, 98
1, 12384, Note_on_c, 9, 37, 76
1, 12384, Note_on_c, 9, 40, 104
1, 12384, Note_on_c, 10, 42, 59
1, 12384, Note_on_c, 11, 42, 62
1, 12385, Note_on_c, 9, 39, 57
1, 12387, Note_on_c, 9, 81, 0
1, 12387, Note_on_c, 9, 69, 0
1, 12387, Note_on_c, 9, 42, 0
1, 12388, Note_on_c, 9, 36, 0
1, 12388, Note_on_c, 9, 40, 0
1, 12388, Note_on_c, 9, 37, 0
1, 12389, Note_on_c, 9, 39, 0
1, 12389, Note_on_c, 2, 64, 0
1, 12397, Note_on_c, 15, 57, 0
1, 12402, Note_on_c, 15, 64, 0
1, 12402, Note_on_c, 15, 66, 0
1, 12407, Note_on_c, 2, 64, 103
1, 12407, Note_on_c, 9, 81, 22
1, 12407, Lyric_t, "I "
1, 12408, Note_on_c, 6, 49, 0
1, 12408, Note_on_c, 15, 68, 81
1, 12411, Note_on_c, 9, 81, 0
1, 12416, Note_on_c, 11, 42, 0
1, 12416, Note_on_c, 10, 42, 0
1, 12416, Note_on_c, 1, 42, 0
1, 12416, Note_on_c, 2, 64, 0
1, 12421, Note_on_c, 8, 54, 0
1, 12429, Note_on_c, 15, 68, 0
1, 12431, Note_on_c, 2, 64, 97
1, 12431, Note_on_c, 8, 57, 97
1, 12431, Note_on_c, 9, 69, 92
1, 12431, Note_on_c, 9, 81, 28
1, 12431, Note_on_c, 9, 42, 78
1, 12431, Lyric_t, "can't "
1, 12432, Note_on_c, 6, 47, 77
1, 12432, Note_on_c, 7, 42, 71
1, 12432, Note_on_c, 9, 39, 26
1, 12432, Note_on_c, 15, 57, 73
1, 12435, Note_on_c, 9, 42, 0
1, 12435, Note_on_c, 9, 81, 0
1, 12435, Note_on_c, 9, 69, 0
1, 12436, Note_on_c, 9, 39, 0
1, 12448, Note_on_c, 15, 57, 0
1, 12451, Note_on_c, 8, 57, 0
1, 12453, Note_on_c, 7, 42, 0
1, 12454, Note_on_c, 6, 47, 0
1, 12455, Note_on_c, 15, 69, 74
1, 12460, Note_on_c, 2, 64, 0
1, 12464, Note_on_c, 9, 40, 80
1, 12468, Note_on_c, 9, 40, 0
1, 12474, Note_on_c, 15, 69, 0
1, 12479, Note_on_c, 2, 63, 96
1, 12479, Note_on_c, 8, 57, 97
1, 12479, Note_on_c, 9, 42, 81
1, 12479, Lyric_t, "see "
1, 12480, Note_on_c, 1, 42, 87
1, 12480, Note_on_c, 6, 49, 79
1, 12480, Note_on_c, 9, 36, 97
1, 12480, Note_on_c, 9, 81, 24
1, 12480, Note_on_c, 10, 42, 62
1, 12480, Note_on_c, 11, 42, 61
1, 12480, Note_on_c, 15, 57, 72
1, 12483, Note_on_c, 9, 42, 0
1, 12484, Note_on_c, 9, 81, 0
1, 12484, Note_on_c, 9, 36, 0
1, 12499, Note_on_c, 15, 57, 0
1, 12499, Note_on_c, 8, 57, 0
1, 12504, Note_on_c, 9, 42, 56
1, 12504, Note_on_c, 9, 81, 28
1, 12504, Note_on_c, 15, 64, 72
1, 12508, Note_on_c, 9, 81, 0
1, 12508, Note_on_c, 9, 42, 0
1, 12509, Note_on_c, 6, 49, 0
1, 12510, Note_on_c, 10, 42, 0
1, 12510, Note_on_c, 11, 42, 0
1, 12510, Note_on_c, 1, 42, 0
1, 12519, Pitch_bend_c, 2, 7552
1, 12522, Note_on_c, 15, 64, 0
1, 12522, Pitch_bend_c, 2, 6784
1, 12526, Pitch_bend_c, 2, 6144
1, 12527, Note_on_c, 8, 57, 99
1, 12527, Note_on_c, 9, 69, 101
1, 12527, Note_on_c, 15, 57, 81
1, 12528, Note_on_c, 7, 42, 74
1, 12528, Note_on_c, 9, 81, 30
1, 12529, Pitch_bend_c, 2, 5632
1, 12531, Note_on_c, 9, 69, 0
1, 12532, Note_on_c, 9, 81, 0
1, 12532, Pitch_bend_c, 2, 4864
1, 12536, Pitch_bend_c, 2, 4480
1, 12539, Note_on_c, 7, 42, 0
1, 12540, Pitch_bend_c, 2, 3968
1, 12543, Pitch_bend_c, 2, 3712
1, 12544, Note_on_c, 2, 63, 0
1, 12545, Note_on_c, 15, 57, 0
1, 12546, Note_on_c, 8, 57, 0
1, 12552, Pitch_bend_c, 2, 8192
1, 12552, Note_on_c, 2, 61, 101
1, 12552, Note_on_c, 9, 81, 25
1, 12552, Note_on_c, 15, 61, 77
1, 12552, Lyric_t, "how "
1, 12556, Note_on_c, 9, 81, 0
1, 12572, Note_on_c, 15, 61, 0
1, 12575, Note_on_c, 8, 54, 101
1, 12575, Note_on_c, 15, 54, 75
1, 12576, Note_on_c, 1, 44, 92
1, 12576, Note_on_c, 9, 36, 97
1, 12576, Note_on_c, 9, 37, 73
1, 12576, Note_on_c, 9, 40, 102
1, 12576, Note_on_c, 9, 39, 57
1, 12576, Note_on_c, 10, 44, 58
1, 12576, Note_on_c, 11, 44, 68
1, 12579, Note_on_c, 2, 61, 0
1, 12580, Note_on_c, 9, 39, 0
1, 12580, Note_on_c, 9, 36, 0
1, 12580, Note_on_c, 9, 40, 0
1, 12580, Note_on_c, 9, 37, 0
1, 12599, Note_on_c, 15, 61, 76
1, 12600, Note_on_c, 2, 59, 95
1, 12600, Lyric_t, "he "
1, 12620, Note_on_c, 10, 44, 0
1, 12620, Note_on_c, 1, 44, 0
1, 12620, Note_on_c, 11, 44, 0
1, 12622, Note_on_c, 15, 61, 0
1, 12622, Note_on_c, 15, 64, 77
1, 12623, Note_on_c, 15, 54, 0
1, 12623, Note_on_c, 9, 39, 28
1, 12624, Note_on_c, 1, 39, 85
1, 12624, Note_on_c, 9, 36, 97
1, 12624, Note_on_c, 9, 81, 28
1, 12624, Note_on_c, 11, 39, 59
1, 12625, Note_on_c, 9, 42, 80
1, 12626, Note_on_c, 10, 39, 62
1, 12627, Note_on_c, 9, 39, 0
1, 12628, Note_on_c, 9, 81, 0
1, 12628, Note_on_c, 9, 36, 0
1, 12629, Note_on_c, 9, 42, 0
1, 12631, Note_on_c, 2, 59, 0
1, 12647, Note_on_c, 15, 64, 0
1, 12647, Note_on_c, 15, 68, 78
1, 12648, Note_on_c, 2, 61, 102
1, 12648, Lyric_t, "could, "
1, 12648, Lyric_t, "\015"
1, 12648, Lyric_t, "\012"
1, 12659, Control_c, 2, 1, 1
1, 12660, Note_on_c, 8, 54, 0
1, 12660, Control_c, 2, 1, 23
1, 12664, Note_on_c, 15, 68, 0
1, 12664, Control_c, 2, 1, 46
1, 12666, Note_on_c, 11, 39, 0
1, 12666, Note_on_c, 1, 39, 0
1, 12668, Note_on_c, 10, 39, 0
1, 12669, Control_c, 2, 1, 49
1, 12672, Note_on_c, 1, 37, 93
1, 12672, Note_on_c, 9, 36, 99
1, 12672, Note_on_c, 9, 49, 29
1, 12672, Note_on_c, 9, 81, 31
1, 12672, Note_on_c, 9, 42, 76
1, 12672, Note_on_c, 9, 84, 17
1, 12672, Note_on_c, 10, 37, 58
1, 12672, Note_on_c, 11, 37, 63
1, 12672, Note_on_c, 15, 49, 76
1, 12675, Control_c, 2, 1, 45
1, 12676, Note_on_c, 9, 84, 0
1, 12676, Note_on_c, 9, 49, 0
1, 12676, Note_on_c, 9, 36, 0
1, 12676, Note_on_c, 9, 42, 0
1, 12676, Note_on_c, 9, 81, 0
1, 12678, Control_c, 2, 1, 30
1, 12682, Control_c, 2, 1, 1
1, 12687, Control_c, 2, 1, 0
1, 12694, Note_on_c, 2, 59, 67
1, 12695, Note_on_c, 15, 56, 72
1, 12696, Note_on_c, 2, 61, 0
1, 12696, Note_on_c, 8, 56, 97
1, 12710, Note_on_c, 8, 56, 0
1, 12716, Note_on_c, 15, 56, 0
1, 12716, Note_on_c, 2, 59, 0
1, 12719, Note_on_c, 2, 56, 63
1, 12719, Note_on_c, 9, 81, 30
1, 12719, Note_on_c, 15, 59, 81
1, 12720, Note_on_c, 9, 42, 82
1, 12723, Note_on_c, 9, 81, 0
1, 12724, Note_on_c, 9, 42, 0
1, 12725, Note_on_c, 11, 37, 0
1, 12725, Note_on_c, 1, 37, 0
1, 12725, Note_on_c, 10, 37, 0
1, 12741, Note_on_c, 2, 56, 0
1, 12743, Note_on_c, 15, 56, 79
1, 12744, Note_on_c, 8, 56, 96
1, 12747, Note_on_c, 15, 59, 0
1, 12761, Note_on_c, 8, 56, 0
1, 12764, Note_on_c, 15, 56, 0
1, 12767, Note_on_c, 6, 49, 72
1, 12767, Note_on_c, 9, 81, 26
1, 12767, Note_on_c, 15, 63, 79
1, 12768, Note_on_c, 1, 37, 87
1, 12768, Note_on_c, 9, 36, 100
1, 12768, Note_on_c, 9, 37, 77
1, 12768, Note_on_c, 9, 40, 101
1, 12768, Note_on_c, 9, 69, 98
1, 12768, Note_on_c, 9, 84, 23
1, 12768, Note_on_c, 10, 37, 56
1, 12768, Note_on_c, 11, 37, 66
1, 12769, Note_on_c, 2, 59, 95
1, 12769, Note_on_c, 9, 39, 49
1, 12769, Lyric_t, "Wan"
1, 12771, Note_on_c, 9, 81, 0
1, 12772, Note_on_c, 9, 84, 0
1, 12772, Note_on_c, 9, 40, 0
1, 12772, Note_on_c, 9, 69, 0
1, 12772, Note_on_c, 9, 37, 0
1, 12772, Note_on_c, 9, 36, 0
1, 12773, Note_on_c, 9, 39, 0
1, 12789, Note_on_c, 15, 63, 0
1, 12791, Note_on_c, 6, 49, 0
1, 12791, Note_on_c, 2, 59, 0
1, 12791, Note_on_c, 2, 61, 95
1, 12791, Note_on_c, 8, 56, 103
1, 12791, Note_on_c, 9, 81, 30
1, 12791, Note_on_c, 15, 56, 81
1, 12791, Lyric_t, "na "
1, 12792, Note_on_c, 9, 42, 83
1, 12792, Note_on_c, 9, 69, 100
1, 12795, Note_on_c, 9, 81, 0
1, 12796, Note_on_c, 9, 69, 0
1, 12796, Note_on_c, 9, 42, 0
1, 12798, Note_on_c, 11, 37, 0
1, 12798, Note_on_c, 1, 37, 0
1, 12798, Note_on_c, 10, 37, 0
1, 12809, Note_on_c, 8, 56, 0
1, 12811, Note_on_c, 2, 61, 0
1, 12812, Note_on_c, 15, 56, 0
1, 12815, Note_on_c, 9, 81, 30
1, 12815, Note_on_c, 15, 59, 72
1, 12816, Note_on_c, 2, 63, 102
1, 12816, Note_on_c, 5, 88, 84
1, 12816, Note_on_c, 6, 47, 80
1, 12816, Note_on_c, 9, 39, 24
1, 12816, Note_on_c, 9, 69, 93
1, 12816, Lyric_t, "tell "
1, 12819, Note_on_c, 9, 81, 0
1, 12820, Note_on_c, 9, 69, 0
1, 12820, Note_on_c, 9, 39, 0
1, 12834, Note_on_c, 5, 88, 0
1, 12834, Lyric_t, "you "
1, 12839, Note_on_c, 15, 59, 0
1, 12839, Pitch_bend_c, 2, 0
1, 12839, Note_on_c, 8, 56, 95
1, 12839, Note_on_c, 15, 56, 75
1, 12840, Note_on_c, 6, 47, 0
1, 12840, Control_c, 2, 11, 80
1, 12840, Note_on_c, 9, 69, 93
1, 12844, Note_on_c, 9, 69, 0
1, 12848, Note_on_c, 5, 90, 81
1, 12853, Note_on_c, 2, 63, 0
1, 12858, Note_on_c, 8, 56, 0
1, 12862, Pitch_bend_c, 2, 13522
1, 12862, Control_c, 2, 11, 127
1, 12863, Note_on_c, 1, 37, 88
1, 12863, Note_on_c, 5, 92, 79
1, 12863, Note_on_c, 9, 36, 100
1, 12863, Note_on_c, 9, 84, 15
1, 12863, Note_on_c, 10, 37, 53
1, 12863, Note_on_c, 11, 37, 63
1, 12863, Note_on_c, 15, 63, 80
1, 12864, Note_on_c, 15, 56, 0
1, 12864, Note_on_c, 2, 61, 100
1, 12864, Note_on_c, 6, 49, 77
1, 12864, Note_on_c, 9, 42, 84
1, 12864, Note_on_c, 9, 69, 96
1, 12864, Note_on_c, 9, 81, 26
1, 12864, Lyric_t, "some"
1, 12865, Note_on_c, 5, 90, 0
1, 12865, Pitch_bend_c, 2, 14432
1, 12867, Note_on_c, 9, 84, 0
1, 12867, Note_on_c, 9, 36, 0
1, 12868, Note_on_c, 9, 42, 0
1, 12868, Note_on_c, 9, 69, 0
1, 12868, Note_on_c, 9, 81, 0
1, 12870, Pitch_bend_c, 2, 14952
1, 12872, Pitch_bend_c, 2, 15472
1, 12876, Pitch_bend_c, 2, 15862
1, 12878, Note_on_c, 5, 92, 0
1, 12879, Pitch_bend_c, 2, 16382
1, 12882, Note_on_c, 15, 63, 0
1, 12887, Note_on_c, 8, 56, 95
1, 12887, Note_on_c, 15, 56, 75
1, 12888, Note_on_c, 9, 42, 61
1, 12888, Note_on_c, 9, 81, 31
1, 12892, Note_on_c, 9, 81, 0
1, 12892, Note_on_c, 9, 42, 0
1, 12894, Note_on_c, 6, 49, 0
1, 12894, Note_on_c, 2, 61, 0
1, 12900, Note_on_c, 11, 37, 0
1, 12900, Note_on_c, 1, 37, 0
1, 12900, Note_on_c, 10, 37, 0
1, 12901, Note_on_c, 15, 56, 0
1, 12904, Pitch_bend_c, 2, 11832
1, 12906, Note_on_c, 8, 56, 0
1, 12907, Pitch_bend_c, 2, 8192
1, 12911, Note_on_c, 15, 56, 77
1, 12911, Note_on_c, 15, 61, 73
1, 12912, Note_on_c, 2, 61, 97
1, 12912, Note_on_c, 5, 88, 73
1, 12912, Note_on_c, 9, 81, 22
1, 12912, Lyric_t, "thing "
1, 12916, Note_on_c, 9, 81, 0
1, 12922, Note_on_c, 15, 61, 0
1, 12923, Note_on_c, 2, 61, 0
1, 12925, Note_on_c, 15, 56, 0
1, 12927, Note_on_c, 5, 88, 0
1, 12935, Note_on_c, 15, 56, 72
1, 12935, Note_on_c, 15, 64, 73
1, 12936, Note_on_c, 2, 61, 95
1, 12936, Note_on_c, 8, 56, 95
1, 12936, Note_on_c, 9, 42, 80
1, 12936, Note_on_c, 9, 81, 23
1, 12936, Lyric_t, "that's "
1, 12940, Note_on_c, 9, 81, 0
1, 12940, Note_on_c, 9, 42, 0
1, 12944, Note_on_c, 5, 90, 70
1, 12949, Note_on_c, 8, 56, 0
1, 12951, Note_on_c, 15, 64, 0
1, 12957, Note_on_c, 5, 90, 0
1, 12959, Note_on_c, 5, 92, 68
1, 12960, Note_on_c, 1, 37, 86
1, 12960, Note_on_c, 8, 56, 96
1, 12960, Note_on_c, 9, 36, 100
1, 12960, Note_on_c, 9, 37, 77
1, 12960, Note_on_c, 9, 40, 101
1, 12960, Note_on_c, 9, 39, 57
1, 12960, Note_on_c, 9, 84, 19
1, 12960, Note_on_c, 10, 37, 57
1, 12960, Note_on_c, 11, 37, 62
1, 12961, Note_on_c, 2, 61, 0
1, 12963, Note_on_c, 15, 49, 0
1, 12964, Note_on_c, 9, 84, 0
1, 12964, Note_on_c, 9, 40, 0
1, 12964, Note_on_c, 9, 37, 0
1, 12964, Note_on_c, 9, 39, 0
1, 12964, Note_on_c, 9, 36, 0
1, 12973, Note_on_c, 5, 92, 0
1, 12975, Note_on_c, 15, 56, 0
1, 12983, Note_on_c, 2, 59, 98
1, 12983, Note_on_c, 15, 66, 80
1, 12983, Lyric_t, "so "
1, 12986, Note_on_c, 8, 56, 0
1, 12993, Note_on_c, 10, 37, 0
1, 12993, Note_on_c, 11, 37, 0
1, 12993, Note_on_c, 1, 37, 0
1, 13007, Note_on_c, 5, 88, 63
1, 13007, Note_on_c, 8, 56, 101
1, 13007, Note_on_c, 9, 39, 23
1, 13007, Note_on_c, 15, 56, 74
1, 13008, Note_on_c, 2, 59, 0
1, 13008, Note_on_c, 9, 42, 77
1, 13008, Note_on_c, 9, 81, 30
1, 13009, Note_on_c, 15, 66, 0
1, 13011, Note_on_c, 9, 39, 0
1, 13012, Note_on_c, 9, 42, 0
1, 13012, Note_on_c, 9, 81, 0
1, 13022, Note_on_c, 5, 88, 0
1, 13030, Note_on_c, 8, 56, 0
1, 13031, Note_on_c, 2, 61, 104
1, 13031, Lyric_t, "good, "
1, 13031, Lyric_t, "\015"
1, 13032, Note_on_c, 15, 56, 0
1, 13033, Control_c, 2, 1, 21
1, 13038, Control_c, 2, 1, 47
1, 13040, Note_on_c, 5, 90, 59
1, 13042, Control_c, 2, 1, 55
1, 13047, Control_c, 2, 1, 58
1, 13051, Note_on_c, 5, 90, 0
1, 13055, Note_on_c, 5, 92, 57
1, 13056, Tempo, 645161
1, 13056, Note_on_c, 1, 37, 92
1, 13056, Note_on_c, 7, 37, 87
1, 13056, Note_on_c, 9, 36, 99
1, 13056, Note_on_c, 9, 81, 27
1, 13056, Note_on_c, 10, 37, 58
1, 13056, Note_on_c, 11, 37, 61
1, 13056, Note_on_c, 15, 59, 72
1, 13058, Control_c, 2, 1, 57
1, 13060, Note_on_c, 9, 81, 0
1, 13060, Note_on_c, 9, 36, 0
1, 13069, Note_on_c, 5, 92, 0
1, 13070, Note_on_c, 2, 61, 0
1, 13077, Control_c, 2, 1, 58
1, 13079, Note_on_c, 15, 64, 77
1, 13080, Note_on_c, 8, 64, 103
1, 13084, Control_c, 2, 1, 54
1, 13088, Control_c, 2, 1, 41
1, 13089, Note_on_c, 15, 59, 0
1, 13092, Control_c, 2, 1, 10
1, 13096, Control_c, 2, 1, 0
1, 13097, Note_on_c, 8, 64, 0
1, 13103, Note_on_c, 9, 81, 26
1, 13104, Note_on_c, 15, 64, 0
1, 13104, Note_on_c, 15, 59, 78
1, 13107, Note_on_c, 9, 81, 0
1, 13109, Note_on_c, 1, 37, 0
1, 13109, Note_on_c, 10, 37, 0
1, 13109, Note_on_c, 11, 37, 0
1, 13122, Note_on_c, 7, 37, 0
1, 13127, Note_on_c, 15, 61, 75
1, 13128, Note_on_c, 7, 37, 71
1, 13128, Note_on_c, 8, 63, 102
1, 13128, Note_on_c, 9, 42, 76
1, 13132, Note_on_c, 9, 42, 0
1, 13138, Note_on_c, 15, 59, 0
1, 13145, Note_on_c, 8, 63, 0
1, 13146, Note_on_c, 15, 61, 0
1, 13151, Note_on_c, 6, 49, 77
1, 13151, Note_on_c, 9, 42, 75
1, 13151, Note_on_c, 9, 69, 97
1, 13151, Note_on_c, 9, 81, 27
1, 13151, Note_on_c, 12, 56, 74
1, 13151, Note_on_c, 13, 85, 83
1, 13151, Note_on_c, 13, 73, 78
1, 13152, Note_on_c, 1, 37, 91
1, 13152, Note_on_c, 2, 61, 103
1, 13152, Note_on_c, 9, 36, 104
1, 13152, Note_on_c, 9, 37, 78
1, 13152, Note_on_c, 9, 40, 101
1, 13152, Note_on_c, 10, 37, 54
1, 13152, Note_on_c, 11, 37, 59
1, 13152, Note_on_c, 15, 64, 78
1, 13152, Lyric_t, "All "
1, 13153, Note_on_c, 9, 39, 51
1, 13155, Note_on_c, 9, 81, 0
1, 13155, Note_on_c, 9, 69, 0
1, 13155, Note_on_c, 9, 42, 0
1, 13156, Note_on_c, 9, 36, 0
1, 13156, Note_on_c, 9, 40, 0
1, 13156, Note_on_c, 9, 37, 0
1, 13157, Note_on_c, 9, 39, 0
1, 13158, Note_on_c, 7, 37, 0
1, 13170, Note_on_c, 2, 61, 0
1, 13175, Note_on_c, 9, 81, 27
1, 13175, Note_on_c, 15, 68, 77
1, 13176, Note_on_c, 6, 49, 0
1, 13176, Note_on_c, 2, 63, 95
1, 13176, Note_on_c, 8, 63, 100
1, 13176, Lyric_t, "of "
1, 13179, Note_on_c, 9, 81, 0
1, 13186, Note_on_c, 15, 64, 0
1, 13190, Note_on_c, 10, 37, 0
1, 13190, Note_on_c, 1, 37, 0
1, 13190, Note_on_c, 11, 37, 0
1, 13193, Note_on_c, 8, 63, 0
1, 13193, Note_on_c, 2, 63, 0
1, 13199, Note_on_c, 9, 69, 95
1, 13199, Note_on_c, 9, 81, 26
1, 13199, Note_on_c, 9, 42, 81
1, 13199, Note_on_c, 13, 87, 81
1, 13199, Note_on_c, 13, 75, 83
1, 13199, Note_on_c, 15, 63, 75
1, 13200, Note_on_c, 13, 73, 0
1, 13200, Note_on_c, 13, 85, 0
1, 13200, Note_on_c, 2, 63, 95
1, 13200, Note_on_c, 6, 47, 80
1, 13200, Note_on_c, 9, 39, 24
1, 13200, Lyric_t, "my "
1, 13203, Note_on_c, 9, 69, 0
1, 13203, Note_on_c, 9, 81, 0
1, 13203, Note_on_c, 9, 42, 0
1, 13204, Note_on_c, 9, 39, 0
1, 13222, Note_on_c, 6, 47, 0
1, 13223, Note_on_c, 15, 64, 78
1, 13224, Note_on_c, 8, 64, 103
1, 13232, Note_on_c, 9, 40, 75
1, 13235, Note_on_c, 12, 56, 0
1, 13236, Note_on_c, 9, 40, 0
1, 13236, Note_on_c, 2, 63, 0
1, 13239, Note_on_c, 8, 64, 0
1, 13239, Note_on_c, 15, 63, 0
1, 13244, Note_on_c, 15, 68, 0
1, 13245, Note_on_c, 15, 64, 0
1, 13247, Note_on_c, 1, 37, 89
1, 13247, Note_on_c, 2, 63, 103
1, 13247, Note_on_c, 9, 42, 83
1, 13247, Note_on_c, 9, 36, 103
1, 13247, Note_on_c, 10, 37, 62
1, 13247, Note_on_c, 11, 37, 59
1, 13247, Note_on_c, 12, 61, 73
1, 13247, Note_on_c, 13, 88, 78
1, 13247, Note_on_c, 13, 76, 82
1, 13247, Note_on_c, 15, 71, 75
1, 13247, Lyric_t, "love "
1, 13248, Note_on_c, 6, 49, 72
1, 13248, Note_on_c, 9, 81, 28
1, 13249, Note_on_c, 13, 75, 0
1, 13249, Note_on_c, 13, 87, 0
1, 13251, Note_on_c, 9, 42, 0
1, 13251, Note_on_c, 9, 36, 0
1, 13252, Note_on_c, 9, 81, 0
1, 13269, Pitch_bend_c, 2, 7296
1, 13271, Note_on_c, 8, 64, 99
1, 13271, Note_on_c, 9, 38, 57
1, 13271, Note_on_c, 15, 64, 78
1, 13272, Pitch_bend_c, 2, 5504
1, 13272, Note_on_c, 9, 42, 59
1, 13272, Note_on_c, 9, 81, 22
1, 13275, Note_on_c, 9, 38, 0
1, 13276, Note_on_c, 9, 81, 0
1, 13276, Note_on_c, 9, 42, 0
1, 13276, Pitch_bend_c, 2, 4608
1, 13277, Note_on_c, 6, 49, 0
1, 13278, Pitch_bend_c, 2, 3840
1, 13282, Pitch_bend_c, 2, 3712
1, 13284, Note_on_c, 10, 37, 0
1, 13284, Note_on_c, 11, 37, 0
1, 13284, Note_on_c, 1, 37, 0
1, 13286, Pitch_bend_c, 2, 4352
1, 13288, Note_on_c, 2, 63, 0
1, 13289, Pitch_bend_c, 2, 3072
1, 13291, Note_on_c, 8, 64, 0
1, 13292, Pitch_bend_c, 2, 8192
1, 13295, Note_on_c, 9, 69, 93
1, 13295, Note_on_c, 15, 68, 74
1, 13296, Note_on_c, 2, 61, 104
1, 13296, Note_on_c, 7, 37, 72
1, 13296, Note_on_c, 9, 38, 52
1, 13296, Note_on_c, 9, 81, 24
1, 13296, Note_on_c, 13, 87, 77
1, 13296, Note_on_c, 13, 75, 78
1, 13296, Lyric_t, "was "
1, 13297, Note_on_c, 13, 88, 0
1, 13297, Note_on_c, 13, 76, 0
1, 13298, Note_on_c, 15, 71, 0
1, 13298, Note_on_c, 15, 64, 0
1, 13299, Note_on_c, 9, 69, 0
1, 13300, Note_on_c, 9, 38, 0
1, 13300, Note_on_c, 9, 81, 0
1, 13308, Note_on_c, 2, 61, 0
1, 13313, Note_on_c, 7, 37, 0
1, 13319, Note_on_c, 15, 75, 77
1, 13320, Note_on_c, 9, 38, 53
1, 13320, Note_on_c, 9, 81, 31
1, 13320, Note_on_c, 15, 71, 76
1, 13321, Note_on_c, 15, 68, 0
1, 13321, Note_on_c, 2, 61, 104
1, 13321, Lyric_t, "all "
1, 13324, Note_on_c, 9, 81, 0
1, 13324, Note_on_c, 9, 38, 0
1, 13337, Note_on_c, 12, 61, 0
1, 13340, Note_on_c, 15, 71, 0
1, 13341, Note_on_c, 2, 61, 0
1, 13343, Note_on_c, 15, 71, 72
1, 13344, Note_on_c, 1, 40, 91
1, 13344, Note_on_c, 9, 36, 99
1, 13344, Note_on_c, 9, 38, 52
1, 13344, Note_on_c, 9, 37, 80
1, 13344, Note_on_c, 9, 40, 96
1, 13344, Note_on_c, 9, 39, 58
1, 13344, Note_on_c, 10, 40, 61
1, 13344, Note_on_c, 11, 40, 59
1, 13344, Note_on_c, 12, 56, 75
1, 13344, Note_on_c, 13, 85, 82
1, 13344, Note_on_c, 13, 73, 82
1, 13345, Note_on_c, 13, 87, 0
1, 13345, Note_on_c, 13, 75, 0
1, 13348, Note_on_c, 9, 40, 0
1, 13348, Note_on_c, 9, 37, 0
1, 13348, Note_on_c, 9, 39, 0
1, 13348, Note_on_c, 9, 38, 0
1, 13348, Note_on_c, 9, 36, 0
1, 13368, Note_on_c, 2, 59, 103
1, 13368, Note_on_c, 7, 37, 70
1, 13368, Note_on_c, 15, 80, 78
1, 13368, Lyric_t, "it "
1, 13385, Note_on_c, 7, 37, 0
1, 13385, Note_on_c, 15, 71, 0
1, 13388, Note_on_c, 15, 75, 0
1, 13389, Note_on_c, 2, 59, 0
1, 13391, Note_on_c, 11, 40, 0
1, 13391, Note_on_c, 1, 40, 0
1, 13391, Note_on_c, 10, 40, 0
1, 13391, Note_on_c, 9, 39, 23
1, 13392, Note_on_c, 1, 44, 85
1, 13392, Note_on_c, 9, 36, 100
1, 13392, Note_on_c, 9, 81, 25
1, 13392, Note_on_c, 10, 44, 61
1, 13392, Note_on_c, 11, 44, 60
1, 13392, Note_on_c, 13, 80, 82
1, 13392, Note_on_c, 13, 68, 84
1, 13392, Note_on_c, 15, 61, 76
1, 13392, Note_on_c, 15, 71, 81
1, 13393, Note_on_c, 13, 85, 0
1, 13393, Note_on_c, 13, 73, 0
1, 13393, Note_on_c, 9, 42, 81
1, 13395, Note_on_c, 9, 39, 0
1, 13396, Note_on_c, 9, 81, 0
1, 13396, Note_on_c, 9, 36, 0
1, 13397, Note_on_c, 9, 42, 0
1, 13399, Note_on_c, 15, 80, 0
1, 13415, Note_on_c, 2, 61, 102
1, 13415, Lyric_t, "took. "
1, 13415, Lyric_t, "\015"
1, 13415, Lyric_t, "\012"
1, 13416, Note_on_c, 15, 83, 81
1, 13416, Note_on_c, 15, 56, 76
1, 13418, Note_on_c, 15, 61, 0
1, 13428, Note_on_c, 15, 71, 0
1, 13434, Note_on_c, 10, 44, 0
1, 13434, Note_on_c, 11, 44, 0
1, 13434, Note_on_c, 12, 56, 0
1, 13434, Note_on_c, 1, 44, 0
1, 13437, Note_on_c, 15, 56, 0
1, 13440, Note_on_c, 1, 42, 86
1, 13440, Note_on_c, 8, 54, 103
1, 13440, Note_on_c, 9, 36, 96
1, 13440, Note_on_c, 9, 49, 34
1, 13440, Note_on_c, 9, 81, 31
1, 13440, Note_on_c, 9, 42, 78
1, 13440, Note_on_c, 9, 84, 19
1, 13440, Note_on_c, 10, 42, 55
1, 13440, Note_on_c, 11, 42, 63
1, 13440, Note_on_c, 12, 59, 74
1, 13440, Note_on_c, 13, 81, 79
1, 13440, Note_on_c, 13, 69, 76
1, 13440, Note_on_c, 15, 54, 74
1, 13442, Note_on_c, 13, 80, 0
1, 13442, Note_on_c, 13, 68, 0
1, 13443, Note_on_c, 15, 83, 0
1, 13444, Note_on_c, 9, 81, 0
1, 13444, Note_on_c, 9, 49, 0
1, 13444, Note_on_c, 9, 84, 0
1, 13444, Note_on_c, 9, 42, 0
1, 13444, Note_on_c, 9, 36, 0
1, 13464, Note_on_c, 15, 57, 72
1, 13465, Note_on_c, 12, 56, 75
1, 13468, Control_c, 2, 11, 125
1, 13472, Control_c, 2, 11, 120
1, 13476, Control_c, 2, 11, 115
1, 13477, Note_on_c, 12, 59, 0
1, 13478, Note_on_c, 10, 42, 0
1, 13478, Note_on_c, 1, 42, 0
1, 13478, Note_on_c, 11, 42, 0
1, 13480, Control_c, 2, 11, 111
1, 13484, Control_c, 2, 11, 106
1, 13485, Note_on_c, 15, 57, 0
1, 13487, Note_on_c, 9, 81, 25
1, 13488, Control_c, 2, 11, 97
1, 13488, Control_c, 2, 1, 27
1, 13488, Note_on_c, 9, 42, 75
1, 13488, Note_on_c, 12, 57, 74
1, 13488, Note_on_c, 15, 61, 77
1, 13491, Note_on_c, 9, 81, 0
1, 13492, Note_on_c, 9, 42, 0
1, 13493, Control_c, 2, 1, 47
1, 13496, Control_c, 2, 11, 92
1, 13497, Control_c, 2, 1, 63
1, 13498, Note_on_c, 12, 56, 0
1, 13500, Control_c, 2, 11, 88
1, 13501, Control_c, 2, 1, 67
1, 13504, Control_c, 2, 11, 83
1, 13505, Note_on_c, 2, 61, 0
1, 13506, Control_c, 2, 1, 69
1, 13508, Control_c, 2, 11, 78
1, 13512, Control_c, 2, 11, 74
1, 13512, Note_on_c, 15, 64, 74
1, 13515, Control_c, 2, 1, 65
1, 13516, Note_on_c, 15, 61, 0
1, 13516, Control_c, 2, 11, 69
1, 13520, Control_c, 2, 1, 56
1, 13520, Control_c, 2, 11, 64
1, 13524, Control_c, 2, 11, 55
1, 13525, Control_c, 2, 1, 25
1, 13529, Control_c, 2, 1, 1
1, 13535, Note_on_c, 6, 49, 79
1, 13535, Note_on_c, 9, 81, 30
1, 13536, Tempo, 652174
1, 13536, Note_on_c, 15, 64, 0
1, 13536, Note_on_c, 1, 42, 90
1, 13536, Note_on_c, 9, 36, 100
1, 13536, Note_on_c, 9, 37, 73
1, 13536, Note_on_c, 9, 40, 96
1, 13536, Note_on_c, 9, 69, 92
1, 13536, Note_on_c, 9, 84, 15
1, 13536, Note_on_c, 10, 42, 56
1, 13536, Note_on_c, 11, 42, 64
1, 13536, Note_on_c, 15, 68, 78
1, 13537, Note_on_c, 9, 39, 54
1, 13539, Note_on_c, 9, 81, 0
1, 13540, Note_on_c, 9, 40, 0
1, 13540, Note_on_c, 9, 37, 0
1, 13540, Note_on_c, 9, 36, 0
1, 13540, Note_on_c, 9, 84, 0
1, 13540, Note_on_c, 9, 69, 0
1, 13541, Note_on_c, 9, 39, 0
1, 13559, Note_on_c, 6, 49, 0
1, 13559, Note_on_c, 9, 81, 28
1, 13560, Control_c, 2, 11, 127
1, 13560, Note_on_c, 9, 42, 75
1, 13560, Note_on_c, 9, 69, 96
1, 13560, Note_on_c, 15, 64, 76
1, 13563, Note_on_c, 9, 81, 0
1, 13563, Note_on_c, 15, 68, 0
1, 13564, Note_on_c, 9, 42, 0
1, 13564, Note_on_c, 9, 69, 0
1, 13568, Note_on_c, 1, 42, 0
1, 13568, Note_on_c, 10, 42, 0
1, 13568, Note_on_c, 11, 42, 0
1, 13571, Note_on_c, 8, 54, 0
1, 13583, Note_on_c, 0, 59, 47
1, 13583, Note_on_c, 9, 81, 30
1, 13583, Lyric_t, "You "
1, 13584, Note_on_c, 5, 90, 85
1, 13584, Note_on_c, 6, 47, 78
1, 13584, Note_on_c, 8, 57, 95
1, 13584, Note_on_c, 9, 39, 25
1, 13584, Note_on_c, 9, 69, 93
1, 13585, Note_on_c, 12, 59, 75
1, 13585, Note_on_c, 15, 57, 78
1, 13586, Note_on_c, 15, 64, 0
1, 13587, Note_on_c, 9, 81, 0
1, 13588, Note_on_c, 9, 39, 0
1, 13588, Note_on_c, 9, 69, 0
1, 13601, Note_on_c, 5, 90, 0
1, 13603, Note_on_c, 15, 57, 0
1, 13607, Note_on_c, 15, 61, 77
1, 13608, Note_on_c, 6, 47, 0
1, 13608, Note_on_c, 9, 69, 98
1, 13612, Note_on_c, 9, 69, 0
1, 13614, Note_on_c, 8, 57, 0
1, 13615, Note_on_c, 5, 92, 81
1, 13618, Note_on_c, 15, 54, 0
1, 13622, Note_on_c, 12, 59, 0
1, 13623, Note_on_c, 15, 61, 0
1, 13628, Note_on_c, 0, 59, 0
1, 13631, Note_on_c, 0, 64, 53
1, 13631, Note_on_c, 9, 84, 20
1, 13631, Lyric_t, "need "
1, 13632, Note_on_c, 1, 42, 91
1, 13632, Note_on_c, 5, 93, 79
1, 13632, Note_on_c, 6, 49, 81
1, 13632, Note_on_c, 8, 54, 102
1, 13632, Note_on_c, 9, 36, 97
1, 13632, Note_on_c, 9, 42, 77
1, 13632, Note_on_c, 9, 69, 96
1, 13632, Note_on_c, 9, 81, 26
1, 13632, Note_on_c, 10, 42, 62
1, 13632, Note_on_c, 11, 42, 65
1, 13632, Note_on_c, 12, 64, 75
1, 13632, Note_on_c, 15, 54, 73
1, 13635, Note_on_c, 9, 84, 0
1, 13636, Note_on_c, 9, 36, 0
1, 13636, Note_on_c, 9, 81, 0
1, 13636, Note_on_c, 9, 42, 0
1, 13636, Note_on_c, 5, 92, 0
1, 13636, Note_on_c, 9, 69, 0
1, 13646, Control_c, 3, 1, 21
1, 13650, Control_c, 3, 1, 37
1, 13651, Note_on_c, 5, 93, 0
1, 13655, Control_c, 3, 1, 41
1, 13656, Note_on_c, 9, 42, 57
1, 13656, Note_on_c, 9, 81, 29
1, 13656, Note_on_c, 15, 69, 75
1, 13659, Control_c, 3, 1, 46
1, 13660, Note_on_c, 9, 81, 0
1, 13660, Note_on_c, 9, 42, 0
1, 13660, Note_on_c, 8, 54, 0
1, 13662, Note_on_c, 11, 42, 0
1, 13662, Note_on_c, 6, 49, 0
1, 13662, Note_on_c, 1, 42, 0
1, 13662, Note_on_c, 10, 42, 0
1, 13664, Control_c, 3, 1, 50
1, 13668, Control_c, 3, 1, 53
1, 13672, Control_c, 3, 1, 57
1, 13675, Note_on_c, 12, 64, 0
1, 13677, Note_on_c, 12, 57, 0
1, 13680, Note_on_c, 0, 64, 0
1, 13680, Note_on_c, 0, 63, 51
1, 13680, Note_on_c, 5, 90, 73
1, 13680, Note_on_c, 8, 57, 95
1, 13680, Note_on_c, 9, 81, 24
1, 13680, Note_on_c, 12, 63, 71
1, 13680, Note_on_c, 15, 57, 75
1, 13680, Lyric_t, "to "
1, 13681, Note_on_c, 15, 69, 0
1, 13684, Note_on_c, 9, 81, 0
1, 13685, Control_c, 3, 1, 56
1, 13687, Control_c, 3, 1, 53
1, 13690, Control_c, 3, 1, 48
1, 13695, Control_c, 3, 1, 37
1, 13698, Note_on_c, 15, 57, 0
1, 13699, Note_on_c, 5, 90, 0
1, 13700, Control_c, 3, 1, 21
1, 13704, Control_c, 3, 1, 0
1, 13704, Note_on_c, 9, 42, 84
1, 13704, Note_on_c, 9, 81, 27
1, 13704, Note_on_c, 15, 64, 74
1, 13708, Note_on_c, 9, 81, 0
1, 13708, Note_on_c, 9, 42, 0
1, 13711, Note_on_c, 5, 92, 69
1, 13725, Note_on_c, 12, 63, 0
1, 13727, Note_on_c, 0, 63, 0
1, 13727, Note_on_c, 9, 84, 15
1, 13728, Note_on_c, 0, 61, 48
1, 13728, Note_on_c, 1, 42, 94
1, 13728, Note_on_c, 5, 93, 67
1, 13728, Note_on_c, 9, 36, 99
1, 13728, Note_on_c, 9, 37, 73
1, 13728, Note_on_c, 9, 40, 104
1, 13728, Note_on_c, 9, 39, 56
1, 13728, Note_on_c, 10, 42, 57
1, 13728, Note_on_c, 11, 42, 63
1, 13728, Note_on_c, 15, 61, 79
1, 13728, Note_on_c, 15, 57, 72
1, 13728, Lyric_t, "give "
1, 13729, Note_on_c, 15, 64, 0
1, 13729, Note_on_c, 12, 64, 73
1, 13731, Note_on_c, 9, 84, 0
1, 13732, Note_on_c, 9, 36, 0
1, 13732, Note_on_c, 5, 92, 0
1, 13732, Note_on_c, 9, 40, 0
1, 13732, Note_on_c, 9, 37, 0
1, 13732, Note_on_c, 9, 39, 0
1, 13747, Note_on_c, 15, 57, 0
1, 13747, Note_on_c, 5, 93, 0
1, 13752, Note_on_c, 15, 57, 76
1, 13753, Note_on_c, 15, 61, 0
1, 13762, Note_on_c, 11, 42, 0
1, 13762, Note_on_c, 1, 42, 0
1, 13762, Note_on_c, 10, 42, 0
1, 13772, Note_on_c, 12, 64, 0
1, 13774, Note_on_c, 15, 57, 0
1, 13775, Note_on_c, 9, 39, 29
1, 13776, Note_on_c, 0, 59, 56
1, 13776, Note_on_c, 5, 90, 61
1, 13776, Note_on_c, 9, 42, 78
1, 13776, Note_on_c, 9, 81, 31
1, 13776, Note_on_c, 15, 61, 73
1, 13776, Note_on_c, 15, 57, 73
1, 13776, Lyric_t, "it "
1, 13777, Note_on_c, 12, 64, 75
1, 13779, Note_on_c, 9, 39, 0
1, 13779, Note_on_c, 0, 61, 0
1, 13780, Note_on_c, 9, 81, 0
1, 13780, Note_on_c, 9, 42, 0
1, 13781, Note_on_c, 8, 57, 0
1, 13792, Note_on_c, 15, 54, 0
1, 13793, Note_on_c, 15, 57, 0
1, 13795, Note_on_c, 5, 90, 0
1, 13800, Note_on_c, 8, 54, 101
1, 13800, Note_on_c, 15, 54, 79
1, 13801, Note_on_c, 15, 61, 0
1, 13807, Note_on_c, 5, 92, 57
1, 13821, Note_on_c, 8, 54, 0
1, 13822, Note_on_c, 12, 64, 0
1, 13823, Note_on_c, 0, 61, 51
1, 13823, Lyric_t, "up, "
1, 13823, Lyric_t, "\015"
1, 13824, Note_on_c, 15, 54, 0
1, 13824, Note_on_c, 1, 42, 92
1, 13824, Note_on_c, 5, 93, 55
1, 13824, Note_on_c, 7, 42, 89
1, 13824, Note_on_c, 8, 54, 98
1, 13824, Note_on_c, 9, 36, 102
1, 13824, Note_on_c, 9, 81, 31
1, 13824, Note_on_c, 10, 42, 54
1, 13824, Note_on_c, 11, 42, 61
1, 13824, Note_on_c, 15, 66, 80
1, 13825, Note_on_c, 12, 66, 68
1, 13828, Note_on_c, 9, 81, 0
1, 13828, Note_on_c, 9, 36, 0
1, 13829, Note_on_c, 0, 59, 0
1, 13832, Note_on_c, 5, 92, 0
1, 13834, Control_c, 3, 1, 1
1, 13835, Control_c, 3, 1, 25
1, 13839, Control_c, 3, 1, 41
1, 13844, Control_c, 3, 1, 46
1, 13847, Note_on_c, 15, 57, 80
1, 13848, Control_c, 3, 1, 50
1, 13853, Note_on_c, 5, 93, 0
1, 13853, Control_c, 3, 1, 52
1, 13861, Control_c, 3, 1, 53
1, 13862, Note_on_c, 1, 42, 0
1, 13862, Note_on_c, 11, 42, 0
1, 13862, Note_on_c, 10, 42, 0
1, 13866, Note_on_c, 15, 57, 0
1, 13866, Control_c, 3, 1, 54
1, 13871, Note_on_c, 9, 81, 23
1, 13871, Note_on_c, 15, 61, 72
1, 13873, Control_c, 3, 1, 55
1, 13875, Note_on_c, 9, 81, 0
1, 13880, Control_c, 3, 1, 56
1, 13894, Note_on_c, 7, 42, 0
1, 13895, Note_on_c, 15, 57, 72
1, 13896, Note_on_c, 7, 42, 76
1, 13896, Note_on_c, 9, 42, 75
1, 13900, Note_on_c, 9, 42, 0
1, 13906, Control_c, 3, 1, 55
1, 13908, Control_c, 3, 1, 53
1, 13911, Note_on_c, 13, 81, 0
1, 13911, Note_on_c, 13, 69, 0
1, 13911, Control_c, 3, 1, 50
1, 13915, Note_on_c, 15, 57, 0
1, 13915, Control_c, 3, 1, 40
1, 13916, Note_on_c, 15, 61, 0
1, 13919, Note_on_c, 7, 42, 0
1, 13919, Note_on_c, 6, 49, 72
1, 13919, Note_on_c, 9, 42, 77
1, 13919, Note_on_c, 9, 69, 94
1, 13919, Note_on_c, 9, 81, 30
1, 13919, Note_on_c, 13, 83, 76
1, 13919, Note_on_c, 13, 71, 79
1, 13919, Note_on_c, 15, 57, 77
1, 13919, Note_on_c, 15, 64, 74
1, 13920, Note_on_c, 1, 42, 85
1, 13920, Control_c, 3, 1, 25
1, 13920, Note_on_c, 9, 36, 104
1, 13920, Note_on_c, 9, 37, 78
1, 13920, Note_on_c, 9, 40, 96
1, 13920, Note_on_c, 10, 42, 54
1, 13920, Note_on_c, 11, 42, 62
1, 13921, Note_on_c, 9, 39, 54
1, 13923, Note_on_c, 9, 81, 0
1, 13923, Note_on_c, 9, 69, 0
1, 13923, Note_on_c, 9, 42, 0
1, 13924, Note_on_c, 9, 40, 0
1, 13924, Note_on_c, 9, 37, 0
1, 13924, Note_on_c, 9, 36, 0
1, 13924, Control_c, 3, 1, 0
1, 13925, Note_on_c, 9, 39, 0
1, 13933, Note_on_c, 15, 57, 0
1, 13938, Note_on_c, 15, 64, 0
1, 13938, Note_on_c, 15, 66, 0
1, 13943, Note_on_c, 9, 81, 22
1, 13944, Note_on_c, 6, 49, 0
1, 13944, Note_on_c, 15, 68, 73
1, 13947, Note_on_c, 9, 81, 0
1, 13952, Note_on_c, 11, 42, 0
1, 13952, Note_on_c, 10, 42, 0
1, 13952, Note_on_c, 1, 42, 0
1, 13957, Note_on_c, 8, 54, 0
1, 13959, Note_on_c, 12, 66, 0
1, 13965, Note_on_c, 15, 68, 0
1, 13967, Note_on_c, 8, 57, 103
1, 13967, Note_on_c, 9, 69, 92
1, 13967, Note_on_c, 9, 81, 29
1, 13967, Note_on_c, 9, 42, 79
1, 13967, Note_on_c, 13, 85, 83
1, 13967, Note_on_c, 13, 73, 79
1, 13968, Note_on_c, 6, 47, 80
1, 13968, Note_on_c, 7, 42, 68
1, 13968, Note_on_c, 9, 39, 24
1, 13968, Note_on_c, 15, 57, 73
1, 13970, Note_on_c, 13, 71, 0
1, 13970, Note_on_c, 13, 83, 0
1, 13971, Note_on_c, 9, 69, 0
1, 13971, Note_on_c, 9, 81, 0
1, 13971, Note_on_c, 9, 42, 0
1, 13972, Note_on_c, 9, 39, 0
1, 13983, Note_on_c, 0, 61, 0
1, 13984, Note_on_c, 15, 57, 0
1, 13987, Note_on_c, 8, 57, 0
1, 13989, Note_on_c, 7, 42, 0
1, 13990, Note_on_c, 6, 47, 0
1, 13991, Note_on_c, 15, 69, 73
1, 14000, Note_on_c, 9, 40, 80
1, 14004, Note_on_c, 9, 40, 0
1, 14010, Note_on_c, 15, 69, 0
1, 14014, Note_on_c, 13, 85, 0
1, 14014, Note_on_c, 13, 73, 0
1, 14015, Note_on_c, 0, 66, 47
1, 14015, Note_on_c, 8, 57, 99
1, 14015, Note_on_c, 9, 42, 82
1, 14015, Note_on_c, 13, 87, 78
1, 14015, Note_on_c, 13, 75, 76
1, 14015, Lyric_t, "Had "
1, 14016, Note_on_c, 1, 42, 91
1, 14016, Note_on_c, 6, 49, 73
1, 14016, Note_on_c, 9, 36, 97
1, 14016, Note_on_c, 9, 81, 31
1, 14016, Note_on_c, 10, 42, 57
1, 14016, Note_on_c, 11, 42, 67
1, 14016, Note_on_c, 15, 57, 81
1, 14017, Note_on_c, 12, 66, 70
1, 14019, Note_on_c, 9, 42, 0
1, 14020, Note_on_c, 9, 81, 0
1, 14020, Note_on_c, 9, 36, 0
1, 14035, Note_on_c, 15, 57, 0
1, 14035, Note_on_c, 8, 57, 0
1, 14040, Note_on_c, 9, 42, 58
1, 14040, Note_on_c, 9, 81, 22
1, 14040, Note_on_c, 15, 64, 74
1, 14044, Note_on_c, 9, 81, 0
1, 14044, Note_on_c, 9, 42, 0
1, 14045, Note_on_c, 6, 49, 0
1, 14046, Note_on_c, 1, 42, 0
1, 14046, Note_on_c, 11, 42, 0
1, 14046, Note_on_c, 10, 42, 0
1, 14058, Note_on_c, 15, 64, 0
1, 14063, Note_on_c, 13, 75, 0
1, 14063, Note_on_c, 13, 87, 0
1, 14063, Note_on_c, 8, 57, 104
1, 14063, Note_on_c, 9, 69, 94
1, 14063, Note_on_c, 13, 85, 84
1, 14063, Note_on_c, 13, 73, 83
1, 14063, Note_on_c, 15, 57, 72
1, 14064, Note_on_c, 0, 64, 56
1, 14064, Note_on_c, 7, 42, 76
1, 14064, Note_on_c, 9, 81, 29
1, 14064, Lyric_t, "a"
1, 14066, Note_on_c, 12, 64, 72
1, 14067, Note_on_c, 9, 69, 0
1, 14068, Note_on_c, 9, 81, 0
1, 14069, Note_on_c, 0, 66, 0
1, 14072, Note_on_c, 12, 66, 0
1, 14075, Note_on_c, 7, 42, 0
1, 14081, Note_on_c, 15, 57, 0
1, 14082, Note_on_c, 8, 57, 0
1, 14088, Note_on_c, 9, 81, 29
1, 14088, Note_on_c, 15, 61, 81
1, 14092, Note_on_c, 9, 81, 0
1, 14108, Note_on_c, 15, 61, 0
1, 14110, Note_on_c, 12, 64, 0
1, 14111, Note_on_c, 8, 54, 100
1, 14111, Note_on_c, 13, 83, 80
1, 14111, Note_on_c, 13, 71, 78
1, 14111, Note_on_c, 15, 54, 79
1, 14112, Note_on_c, 13, 85, 0
1, 14112, Note_on_c, 13, 73, 0
1, 14112, Note_on_c, 0, 63, 55
1, 14112, Note_on_c, 1, 44, 90
1, 14112, Note_on_c, 9, 36, 99
1, 14112, Note_on_c, 9, 37, 78
1, 14112, Note_on_c, 9, 40, 98
1, 14112, Note_on_c, 9, 39, 51
1, 14112, Note_on_c, 10, 44, 57
1, 14112, Note_on_c, 11, 44, 65
1, 14112, Lyric_t, "bout "
1, 14113, Note_on_c, 12, 63, 67
1, 14116, Note_on_c, 9, 39, 0
1, 14116, Note_on_c, 9, 40, 0
1, 14116, Note_on_c, 0, 64, 0
1, 14116, Note_on_c, 9, 37, 0
1, 14116, Note_on_c, 9, 36, 0
1, 14135, Note_on_c, 15, 61, 77
1, 14156, Note_on_c, 1, 44, 0
1, 14156, Note_on_c, 11, 44, 0
1, 14156, Note_on_c, 10, 44, 0
1, 14158, Note_on_c, 15, 61, 0
1, 14158, Note_on_c, 15, 64, 78
1, 14159, Note_on_c, 15, 54, 0
1, 14159, Note_on_c, 9, 39, 30
1, 14160, Note_on_c, 0, 61, 51
1, 14160, Note_on_c, 1, 39, 90
1, 14160, Note_on_c, 9, 36, 104
1, 14160, Note_on_c, 9, 81, 22
1, 14160, Note_on_c, 11, 39, 68
1, 14160, Note_on_c, 13, 78, 77
1, 14160, Note_on_c, 13, 66, 83
1, 14160, Lyric_t, "e"
1, 14161, Note_on_c, 13, 71, 0
1, 14161, Note_on_c, 13, 83, 0
1, 14161, Note_on_c, 9, 42, 80
1, 14162, Note_on_c, 0, 63, 0
1, 14162, Note_on_c, 10, 39, 57
1, 14162, Note_on_c, 12, 66, 70
1, 14163, Note_on_c, 9, 39, 0
1, 14164, Note_on_c, 9, 81, 0
1, 14164, Note_on_c, 9, 36, 0
1, 14165, Note_on_c, 9, 42, 0
1, 14166, Note_on_c, 12, 63, 0
1, 14183, Note_on_c, 15, 64, 0
1, 14183, Note_on_c, 15, 68, 73
1, 14196, Note_on_c, 8, 54, 0
1, 14200, Note_on_c, 15, 68, 0
1, 14202, Note_on_c, 1, 39, 0
1, 14202, Note_on_c, 11, 39, 0
1, 14204, Note_on_c, 10, 39, 0
1, 14206, Note_on_c, 13, 78, 0
1, 14206, Note_on_c, 13, 66, 0
1, 14207, Note_on_c, 13, 80, 81
1, 14207, Note_on_c, 13, 68, 79
1, 14208, Note_on_c, 0, 63, 56
1, 14208, Note_on_c, 1, 37, 86
1, 14208, Note_on_c, 9, 36, 101
1, 14208, Note_on_c, 9, 49, 31
1, 14208, Note_on_c, 9, 81, 29
1, 14208, Note_on_c, 9, 42, 79
1, 14208, Note_on_c, 9, 84, 15
1, 14208, Note_on_c, 10, 37, 54
1, 14208, Note_on_c, 11, 37, 60
1, 14208, Note_on_c, 15, 49, 78
1, 14208, Lyric_t, "nough, "
1, 14208, Lyric_t, "\015"
1, 14210, Note_on_c, 12, 66, 0
1, 14210, Note_on_c, 12, 68, 73
1, 14212, Note_on_c, 9, 84, 0
1, 14212, Note_on_c, 9, 49, 0
1, 14212, Note_on_c, 9, 42, 0
1, 14212, Note_on_c, 9, 81, 0
1, 14212, Note_on_c, 9, 36, 0
1, 14214, Note_on_c, 0, 61, 0
1, 14231, Note_on_c, 15, 56, 77
1, 14232, Note_on_c, 8, 56, 104
1, 14246, Note_on_c, 8, 56, 0
1, 14252, Note_on_c, 15, 56, 0
1, 14255, Note_on_c, 9, 81, 29
1, 14255, Note_on_c, 15, 59, 77
1, 14256, Note_on_c, 2, 68, 99
1, 14256, Note_on_c, 9, 42, 84
1, 14259, Note_on_c, 9, 81, 0
1, 14260, Note_on_c, 9, 42, 0
1, 14261, Note_on_c, 10, 37, 0
1, 14261, Note_on_c, 11, 37, 0
1, 14261, Note_on_c, 1, 37, 0
1, 14279, Note_on_c, 15, 56, 75
1, 14280, Note_on_c, 8, 56, 99
1, 14283, Note_on_c, 15, 59, 0
1, 14297, Note_on_c, 8, 56, 0
1, 14300, Note_on_c, 15, 56, 0
1, 14303, Note_on_c, 2, 68, 0
1, 14303, Note_on_c, 2, 66, 98
1, 14303, Note_on_c, 6, 49, 74
1, 14303, Note_on_c, 9, 81, 23
1, 14303, Note_on_c, 15, 63, 73
1, 14304, Tempo, 652174
1, 14304, Note_on_c, 1, 37, 88
1, 14304, Note_on_c, 9, 36, 101
1, 14304, Note_on_c, 9, 37, 74
1, 14304, Note_on_c, 9, 40, 95
1, 14304, Note_on_c, 9, 69, 95
1, 14304, Note_on_c, 9, 84, 18
1, 14304, Note_on_c, 10, 37, 55
1, 14304, Note_on_c, 11, 37, 61
1, 14305, Note_on_c, 9, 39, 52
1, 14307, Note_on_c, 9, 81, 0
1, 14308, Note_on_c, 9, 36, 0
1, 14308, Note_on_c, 9, 84, 0
1, 14308, Note_on_c, 9, 37, 0
1, 14308, Note_on_c, 9, 69, 0
1, 14308, Note_on_c, 9, 40, 0
1, 14309, Note_on_c, 9, 39, 0
1, 14325, Note_on_c, 15, 63, 0
1, 14327, Note_on_c, 6, 49, 0
1, 14327, Note_on_c, 2, 64, 101
1, 14327, Note_on_c, 8, 56, 95
1, 14327, Note_on_c, 9, 81, 23
1, 14327, Note_on_c, 15, 56, 79
1, 14328, Note_on_c, 9, 42, 80
1, 14328, Note_on_c, 9, 69, 99
1, 14331, Note_on_c, 9, 81, 0
1, 14332, Note_on_c, 9, 69, 0
1, 14332, Note_on_c, 9, 42, 0
1, 14333, Note_on_c, 2, 66, 0
1, 14334, Note_on_c, 11, 37, 0
1, 14334, Note_on_c, 1, 37, 0
1, 14334, Note_on_c, 10, 37, 0
1, 14345, Note_on_c, 8, 56, 0
1, 14348, Note_on_c, 15, 56, 0
1, 14351, Note_on_c, 2, 61, 104
1, 14351, Note_on_c, 9, 81, 31
1, 14351, Note_on_c, 15, 59, 79
1, 14352, Note_on_c, 5, 88, 84
1, 14352, Note_on_c, 6, 47, 72
1, 14352, Note_on_c, 9, 39, 30
1, 14352, Note_on_c, 9, 69, 94
1, 14353, Note_on_c, 2, 64, 0
1, 14354, Note_on_c, 12, 68, 0
1, 14355, Note_on_c, 9, 81, 0
1, 14356, Note_on_c, 9, 39, 0
1, 14356, Note_on_c, 9, 69, 0
1, 14370, Note_on_c, 5, 88, 0
1, 14372, Note_on_c, 2, 61, 0
1, 14375, Note_on_c, 15, 59, 0
1, 14375, Note_on_c, 2, 59, 98
1, 14375, Note_on_c, 8, 56, 102
1, 14375, Note_on_c, 15, 56, 73
1, 14376, Note_on_c, 0, 63, 0
1, 14376, Note_on_c, 6, 47, 0
1, 14376, Note_on_c, 9, 69, 101
1, 14380, Note_on_c, 9, 69, 0
1, 14384, Note_on_c, 5, 90, 80
1, 14390, Note_on_c, 2, 59, 0
1, 14394, Note_on_c, 8, 56, 0
1, 14399, Note_on_c, 0, 64, 53
1, 14399, Note_on_c, 1, 37, 92
1, 14399, Note_on_c, 2, 64, 95
1, 14399, Note_on_c, 5, 92, 78
1, 14399, Note_on_c, 9, 36, 97
1, 14399, Note_on_c, 9, 84, 18
1, 14399, Note_on_c, 10, 37, 60
1, 14399, Note_on_c, 11, 37, 59
1, 14399, Note_on_c, 15, 63, 76
1, 14399, Lyric_t, "It's "
1, 14400, Note_on_c, 15, 56, 0
1, 14400, Note_on_c, 6, 49, 75
1, 14400, Note_on_c, 9, 42, 75
1, 14400, Note_on_c, 9, 69, 100
1, 14400, Note_on_c, 9, 81, 25
1, 14401, Note_on_c, 5, 90, 0
1, 14401, Note_on_c, 12, 64, 72
1, 14403, Note_on_c, 9, 84, 0
1, 14403, Note_on_c, 9, 36, 0
1, 14404, Note_on_c, 9, 81, 0
1, 14404, Note_on_c, 9, 69, 0
1, 14404, Note_on_c, 9, 42, 0
1, 14414, Note_on_c, 5, 92, 0
1, 14415, Pitch_bend_c, 2, 10532
1, 14418, Note_on_c, 15, 63, 0
1, 14419, Pitch_bend_c, 2, 13132
1, 14422, Pitch_bend_c, 2, 16382
1, 14423, Note_on_c, 8, 56, 96
1, 14423, Note_on_c, 15, 56, 77
1, 14424, Note_on_c, 9, 42, 54
1, 14424, Note_on_c, 9, 81, 24
1, 14428, Note_on_c, 9, 81, 0
1, 14428, Note_on_c, 9, 42, 0
1, 14430, Note_on_c, 6, 49, 0
1, 14432, Control_c, 2, 1, 4
1, 14433, Control_c, 2, 1, 35
1, 14436, Note_on_c, 10, 37, 0
1, 14436, Note_on_c, 11, 37, 0
1, 14436, Note_on_c, 1, 37, 0
1, 14437, Note_on_c, 15, 56, 0
1, 14437, Control_c, 2, 1, 47
1, 14442, Note_on_c, 8, 56, 0
1, 14442, Control_c, 2, 1, 53
1, 14444, Pitch_bend_c, 2, 13652
1, 14446, Note_on_c, 12, 64, 0
1, 14446, Control_c, 2, 1, 58
1, 14447, Pitch_bend_c, 2, 8192
1, 14447, Note_on_c, 15, 56, 80
1, 14447, Note_on_c, 15, 61, 78
1, 14448, Note_on_c, 0, 63, 53
1, 14448, Note_on_c, 5, 88, 73
1, 14448, Note_on_c, 9, 81, 24
1, 14448, Lyric_t, "not "
1, 14449, Note_on_c, 12, 63, 70
1, 14450, Note_on_c, 0, 64, 0
1, 14451, Control_c, 2, 1, 62
1, 14452, Note_on_c, 9, 81, 0
1, 14456, Control_c, 2, 1, 65
1, 14458, Note_on_c, 15, 61, 0
1, 14460, Control_c, 2, 1, 68
1, 14461, Note_on_c, 15, 56, 0
1, 14463, Note_on_c, 5, 88, 0
1, 14464, Control_c, 2, 1, 69
1, 14471, Note_on_c, 15, 56, 79
1, 14471, Note_on_c, 15, 64, 72
1, 14472, Note_on_c, 8, 56, 103
1, 14472, Note_on_c, 9, 42, 80
1, 14472, Note_on_c, 9, 81, 25
1, 14475, Control_c, 2, 1, 68
1, 14476, Note_on_c, 9, 81, 0
1, 14476, Note_on_c, 9, 42, 0
1, 14478, Control_c, 2, 1, 66
1, 14480, Note_on_c, 5, 90, 69
1, 14485, Note_on_c, 8, 56, 0
1, 14486, Control_c, 2, 1, 65
1, 14487, Note_on_c, 15, 64, 0
1, 14492, Note_on_c, 0, 63, 0
1, 14493, Note_on_c, 5, 90, 0
1, 14494, Note_on_c, 12, 63, 0
1, 14495, Note_on_c, 5, 92, 67
1, 14496, Note_on_c, 2, 64, 0
1, 14496, Note_on_c, 0, 61, 56
1, 14496, Note_on_c, 1, 37, 92
1, 14496, Control_c, 2, 1, 64
1, 14496, Note_on_c, 8, 56, 100
1, 14496, Note_on_c, 9, 36, 98
1, 14496, Note_on_c, 9, 37, 72
1, 14496, Note_on_c, 9, 40, 96
1, 14496, Note_on_c, 9, 39, 49
1, 14496, Note_on_c, 9, 84, 16
1, 14496, Note_on_c, 10, 37, 59
1, 14496, Note_on_c, 11, 37, 64
1, 14496, Lyric_t, "hard "
1, 14498, Note_on_c, 12, 61, 75
1, 14499, Note_on_c, 15, 49, 0
1, 14500, Note_on_c, 9, 40, 0
1, 14500, Note_on_c, 9, 37, 0
1, 14500, Note_on_c, 9, 36, 0
1, 14500, Note_on_c, 9, 84, 0
1, 14500, Note_on_c, 9, 39, 0
1, 14502, Control_c, 2, 1, 63
1, 14509, Note_on_c, 5, 92, 0
1, 14511, Note_on_c, 15, 56, 0
1, 14519, Note_on_c, 15, 66, 73
1, 14520, Control_c, 2, 1, 62
1, 14520, Note_on_c, 2, 63, 98
1, 14520, Lyric_t, "to "
1, 14522, Note_on_c, 8, 56, 0
1, 14523, Control_c, 2, 1, 55
1, 14526, Note_on_c, 2, 63, 0
1, 14528, Control_c, 2, 1, 41
1, 14529, Note_on_c, 10, 37, 0
1, 14529, Note_on_c, 1, 37, 0
1, 14529, Note_on_c, 11, 37, 0
1, 14532, Control_c, 2, 1, 14
1, 14536, Control_c, 2, 1, 0
1, 14541, Note_on_c, 0, 61, 0
1, 14542, Note_on_c, 12, 61, 0
1, 14543, Note_on_c, 2, 63, 102
1, 14543, Note_on_c, 5, 88, 62
1, 14543, Note_on_c, 8, 56, 101
1, 14543, Note_on_c, 9, 39, 30
1, 14543, Note_on_c, 15, 56, 80
1, 14544, Note_on_c, 0, 59, 53
1, 14544, Note_on_c, 9, 42, 76
1, 14544, Note_on_c, 9, 81, 31
1, 14545, Note_on_c, 15, 66, 0
1, 14545, Note_on_c, 12, 59, 67
1, 14547, Note_on_c, 9, 39, 0
1, 14548, Note_on_c, 9, 81, 0
1, 14548, Note_on_c, 9, 42, 0
1, 14558, Note_on_c, 5, 88, 0
1, 14566, Note_on_c, 2, 63, 0
1, 14566, Note_on_c, 8, 56, 0
1, 14568, Note_on_c, 15, 56, 0
1, 14568, Note_on_c, 2, 64, 103
1, 14576, Note_on_c, 5, 90, 58
1, 14586, Note_on_c, 0, 59, 0
1, 14587, Note_on_c, 5, 90, 0
1, 14588, Note_on_c, 12, 59, 0
1, 14589, Note_on_c, 13, 68, 0
1, 14589, Note_on_c, 13, 80, 0
1, 14591, Note_on_c, 0, 61, 56
1, 14591, Note_on_c, 5, 92, 56
1, 14592, Note_on_c, 2, 64, 0
1, 14592, Note_on_c, 1, 37, 89
1, 14592, Note_on_c, 2, 61, 103
1, 14592, Note_on_c, 7, 37, 90
1, 14592, Note_on_c, 9, 36, 97
1, 14592, Note_on_c, 9, 81, 26
1, 14592, Note_on_c, 10, 37, 56
1, 14592, Note_on_c, 11, 37, 61
1, 14592, Note_on_c, 12, 61, 68
1, 14592, Note_on_c, 13, 80, 84
1, 14592, Note_on_c, 13, 68, 78
1, 14592, Note_on_c, 15, 59, 78
1, 14592, Lyric_t, "see "
1, 14596, Note_on_c, 9, 81, 0
1, 14596, Note_on_c, 9, 36, 0
1, 14605, Note_on_c, 5, 92, 0
1, 14614, Note_on_c, 2, 61, 0
1, 14614, Note_on_c, 2, 59, 103
1, 14615, Note_on_c, 15, 64, 72
1, 14616, Note_on_c, 8, 64, 98
1, 14625, Note_on_c, 15, 59, 0
1, 14633, Note_on_c, 8, 64, 0
1, 14635, Note_on_c, 2, 59, 0
1, 14639, Note_on_c, 2, 56, 102
1, 14639, Note_on_c, 9, 81, 31
1, 14640, Note_on_c, 15, 64, 0
1, 14640, Note_on_c, 15, 59, 72
1, 14643, Note_on_c, 9, 81, 0
1, 14645, Note_on_c, 11, 37, 0
1, 14645, Note_on_c, 10, 37, 0
1, 14645, Note_on_c, 1, 37, 0
1, 14658, Note_on_c, 7, 37, 0
1, 14661, Note_on_c, 2, 56, 0
1, 14663, Note_on_c, 2, 54, 100
1, 14663, Note_on_c, 15, 61, 80
1, 14664, Note_on_c, 7, 37, 70
1, 14664, Note_on_c, 8, 63, 100
1, 14664, Note_on_c, 9, 42, 80
1, 14668, Note_on_c, 9, 42, 0
1, 14674, Note_on_c, 15, 59, 0
1, 14681, Note_on_c, 8, 63, 0
1, 14682, Note_on_c, 15, 61, 0
1, 14684, Note_on_c, 2, 54, 0
1, 14687, Note_on_c, 2, 56, 102
1, 14687, Note_on_c, 6, 49, 76
1, 14687, Note_on_c, 9, 42, 83
1, 14687, Note_on_c, 9, 69, 96
1, 14687, Note_on_c, 9, 81, 29
1, 14687, Note_on_c, 13, 85, 83
1, 14687, Note_on_c, 13, 73, 82
1, 14688, Note_on_c, 12, 61, 0
1, 14688, Note_on_c, 13, 68, 0
1, 14688, Note_on_c, 0, 61, 0
1, 14688, Note_on_c, 13, 80, 0
1, 14688, Note_on_c, 0, 56, 54
1, 14688, Note_on_c, 1, 37, 90
1, 14688, Note_on_c, 9, 36, 103
1, 14688, Note_on_c, 9, 37, 76
1, 14688, Note_on_c, 9, 40, 96
1, 14688, Note_on_c, 10, 37, 55
1, 14688, Note_on_c, 11, 37, 65
1, 14688, Note_on_c, 15, 64, 74
1, 14689, Note_on_c, 9, 39, 56
1, 14689, Lyric_t, "the "
1, 14691, Note_on_c, 9, 69, 0
1, 14691, Note_on_c, 9, 42, 0
1, 14691, Note_on_c, 9, 81, 0
1, 14692, Note_on_c, 9, 36, 0
1, 14692, Note_on_c, 9, 40, 0
1, 14692, Note_on_c, 9, 37, 0
1, 14693, Note_on_c, 9, 39, 0
1, 14694, Note_on_c, 7, 37, 0
1, 14711, Note_on_c, 9, 81, 30
1, 14711, Note_on_c, 15, 68, 80
1, 14712, Note_on_c, 2, 56, 0
1, 14712, Note_on_c, 6, 49, 0
1, 14712, Note_on_c, 2, 59, 101
1, 14712, Note_on_c, 8, 63, 99
1, 14715, Note_on_c, 9, 81, 0
1, 14722, Note_on_c, 15, 64, 0
1, 14725, Control_c, 2, 1, 1
1, 14726, Note_on_c, 11, 37, 0
1, 14726, Note_on_c, 1, 37, 0
1, 14726, Note_on_c, 10, 37, 0
1, 14726, Control_c, 2, 1, 4
1, 14729, Note_on_c, 8, 63, 0
1, 14730, Control_c, 2, 1, 43
1, 14735, Control_c, 2, 1, 54
1, 14735, Note_on_c, 9, 69, 97
1, 14735, Note_on_c, 9, 81, 30
1, 14735, Note_on_c, 9, 42, 81
1, 14735, Note_on_c, 13, 87, 80
1, 14735, Note_on_c, 13, 75, 81
1, 14735, Note_on_c, 15, 63, 80
1, 14736, Note_on_c, 13, 73, 0
1, 14736, Note_on_c, 13, 85, 0
1, 14736, Note_on_c, 6, 47, 73
1, 14736, Note_on_c, 9, 39, 26
1, 14739, Note_on_c, 9, 42, 0
1, 14739, Note_on_c, 9, 69, 0
1, 14739, Note_on_c, 9, 81, 0
1, 14739, Control_c, 2, 1, 59
1, 14740, Note_on_c, 9, 39, 0
1, 14744, Control_c, 2, 1, 60
1, 14752, Control_c, 2, 1, 59
1, 14758, Note_on_c, 6, 47, 0
1, 14759, Note_on_c, 15, 64, 73
1, 14760, Control_c, 2, 11, 127
1, 14760, Note_on_c, 8, 64, 100
1, 14764, Control_c, 2, 11, 121
1, 14768, Control_c, 2, 11, 115
1, 14768, Note_on_c, 9, 40, 79
1, 14769, Control_c, 2, 1, 58
1, 14770, Note_on_c, 0, 56, 0
1, 14772, Note_on_c, 9, 40, 0
1, 14772, Control_c, 2, 11, 109
1, 14775, Note_on_c, 8, 64, 0
1, 14775, Note_on_c, 15, 63, 0
1, 14776, Control_c, 2, 11, 104
1, 14780, Note_on_c, 15, 68, 0
1, 14780, Control_c, 2, 11, 98
1, 14781, Note_on_c, 2, 59, 0
1, 14781, Note_on_c, 15, 64, 0
1, 14782, Control_c, 2, 1, 57
1, 14783, Note_on_c, 0, 61, 55
1, 14783, Note_on_c, 1, 37, 92
1, 14783, Note_on_c, 9, 42, 77
1, 14783, Note_on_c, 9, 36, 95
1, 14783, Note_on_c, 10, 37, 53
1, 14783, Note_on_c, 11, 37, 60
1, 14783, Note_on_c, 13, 88, 83
1, 14783, Note_on_c, 13, 76, 82
1, 14783, Note_on_c, 15, 71, 77
1, 14784, Control_c, 2, 11, 86
1, 14784, Note_on_c, 6, 49, 74
1, 14784, Note_on_c, 9, 81, 24
1, 14785, Note_on_c, 13, 75, 0
1, 14785, Note_on_c, 13, 87, 0
1, 14785, Lyric_t, "boy "
1, 14787, Note_on_c, 9, 42, 0
1, 14787, Note_on_c, 9, 36, 0
1, 14787, Control_c, 2, 1, 56
1, 14788, Note_on_c, 9, 81, 0
1, 14791, Control_c, 2, 1, 53
1, 14792, Control_c, 2, 11, 81
1, 14793, Control_c, 2, 1, 48
1, 14796, Control_c, 2, 11, 75
1, 14797, Control_c, 2, 1, 38
1, 14800, Control_c, 2, 11, 69
1, 14802, Control_c, 2, 1, 6
1, 14806, Control_c, 2, 1, 0
1, 14807, Note_on_c, 8, 64, 97
1, 14807, Note_on_c, 9, 38, 57
1, 14807, Note_on_c, 15, 64, 73
1, 14808, Note_on_c, 9, 42, 55
1, 14808, Note_on_c, 9, 81, 25
1, 14811, Note_on_c, 9, 38, 0
1, 14812, Note_on_c, 9, 81, 0
1, 14812, Note_on_c, 9, 42, 0
1, 14813, Note_on_c, 6, 49, 0
1, 14820, Note_on_c, 1, 37, 0
1, 14820, Note_on_c, 11, 37, 0
1, 14820, Note_on_c, 10, 37, 0
1, 14827, Note_on_c, 8, 64, 0
1, 14831, Note_on_c, 9, 69, 95
1, 14831, Note_on_c, 15, 68, 81
1, 14832, Note_on_c, 7, 37, 73
1, 14832, Note_on_c, 9, 38, 58
1, 14832, Note_on_c, 9, 81, 23
1, 14832, Note_on_c, 13, 87, 83
1, 14832, Note_on_c, 13, 75, 82
1, 14833, Note_on_c, 13, 88, 0
1, 14833, Note_on_c, 13, 76, 0
1, 14834, Note_on_c, 15, 71, 0
1, 14834, Note_on_c, 15, 64, 0
1, 14835, Note_on_c, 9, 69, 0
1, 14836, Note_on_c, 9, 38, 0
1, 14836, Note_on_c, 9, 81, 0
1, 14844, Control_c, 2, 11, 127
1, 14849, Note_on_c, 7, 37, 0
1, 14855, Note_on_c, 15, 75, 77
1, 14856, Note_on_c, 9, 38, 49
1, 14856, Note_on_c, 9, 81, 26
1, 14856, Note_on_c, 15, 71, 73
1, 14857, Note_on_c, 15, 68, 0
1, 14860, Note_on_c, 9, 81, 0
1, 14860, Note_on_c, 9, 38, 0
1, 14860, Pitch_bend_c, 2, 128
1, 14871, Note_on_c, 0, 61, 0
1, 14876, Note_on_c, 15, 71, 0
1, 14879, Note_on_c, 0, 56, 50
1, 14879, Note_on_c, 2, 61, 103
1, 14879, Note_on_c, 15, 71, 73
1, 14880, Note_on_c, 1, 40, 93
1, 14880, Pitch_bend_c, 2, 512
1, 14880, Note_on_c, 9, 36, 104
1, 14880, Note_on_c, 9, 38, 54
1, 14880, Note_on_c, 9, 37, 73
1, 14880, Note_on_c, 9, 40, 97
1, 14880, Note_on_c, 9, 39, 57
1, 14880, Note_on_c, 10, 40, 53
1, 14880, Note_on_c, 11, 40, 59
1, 14880, Note_on_c, 13, 85, 83
1, 14880, Note_on_c, 13, 73, 78
1, 14881, Note_on_c, 13, 75, 0
1, 14881, Note_on_c, 13, 87, 0
1, 14881, Pitch_bend_c, 2, 2304
1, 14881, Lyric_t, "is "
1, 14884, Note_on_c, 9, 40, 0
1, 14884, Note_on_c, 9, 36, 0
1, 14884, Note_on_c, 9, 37, 0
1, 14884, Note_on_c, 9, 38, 0
1, 14884, Note_on_c, 9, 39, 0
1, 14884, Pitch_bend_c, 2, 3328
1, 14888, Pitch_bend_c, 2, 4096
1, 14892, Pitch_bend_c, 2, 4864
1, 14895, Pitch_bend_c, 2, 7040
1, 14899, Pitch_bend_c, 2, 8192
1, 14904, Note_on_c, 7, 37, 71
1, 14904, Note_on_c, 15, 80, 77
1, 14921, Note_on_c, 7, 37, 0
1, 14921, Note_on_c, 15, 71, 0
1, 14924, Note_on_c, 15, 75, 0
1, 14927, Note_on_c, 10, 40, 0
1, 14927, Note_on_c, 1, 40, 0
1, 14927, Note_on_c, 11, 40, 0
1, 14927, Note_on_c, 9, 39, 25
1, 14928, Note_on_c, 2, 61, 0
1, 14928, Note_on_c, 1, 44, 86
1, 14928, Note_on_c, 2, 63, 97
1, 14928, Note_on_c, 9, 36, 95
1, 14928, Note_on_c, 9, 81, 26
1, 14928, Note_on_c, 10, 44, 59
1, 14928, Note_on_c, 11, 44, 64
1, 14928, Note_on_c, 13, 80, 79
1, 14928, Note_on_c, 13, 68, 79
1, 14928, Note_on_c, 15, 61, 73
1, 14928, Note_on_c, 15, 71, 72
1, 14929, Note_on_c, 13, 85, 0
1, 14929, Note_on_c, 13, 73, 0
1, 14929, Note_on_c, 9, 42, 84
1, 14931, Note_on_c, 9, 39, 0
1, 14932, Note_on_c, 9, 81, 0
1, 14932, Note_on_c, 9, 36, 0
1, 14933, Note_on_c, 9, 42, 0
1, 14935, Note_on_c, 15, 80, 0
1, 14952, Note_on_c, 15, 83, 74
1, 14952, Note_on_c, 15, 56, 77
1, 14954, Note_on_c, 15, 61, 0
1, 14964, Note_on_c, 15, 71, 0
1, 14967, Note_on_c, 2, 63, 0
1, 14968, Note_on_c, 0, 56, 0
1, 14970, Note_on_c, 11, 44, 0
1, 14970, Note_on_c, 10, 44, 0
1, 14970, Note_on_c, 1, 44, 0
1, 14973, Note_on_c, 15, 56, 0
1, 14975, Note_on_c, 0, 57, 56
1, 14975, Lyric_t, "mine. "
1, 14975, Lyric_t, "\015"
1, 14975, Lyric_t, "\012"
1, 14976, Note_on_c, 1, 42, 88
1, 14976, Note_on_c, 2, 59, 100
1, 14976, Note_on_c, 8, 54, 104
1, 14976, Note_on_c, 9, 36, 103
1, 14976, Note_on_c, 9, 49, 29
1, 14976, Note_on_c, 9, 81, 26
1, 14976, Note_on_c, 9, 42, 76
1, 14976, Note_on_c, 9, 84, 21
1, 14976, Note_on_c, 10, 42, 60
1, 14976, Note_on_c, 11, 42, 67
1, 14976, Note_on_c, 13, 81, 83
1, 14976, Note_on_c, 13, 69, 85
1, 14976, Note_on_c, 15, 54, 79
1, 14978, Note_on_c, 13, 80, 0
1, 14978, Note_on_c, 13, 68, 0
1, 14979, Note_on_c, 15, 83, 0
1, 14980, Note_on_c, 9, 49, 0
1, 14980, Note_on_c, 9, 36, 0
1, 14980, Note_on_c, 9, 42, 0
1, 14980, Note_on_c, 9, 81, 0
1, 14980, Note_on_c, 9, 84, 0
1, 14997, Note_on_c, 2, 59, 0
1, 14999, Note_on_c, 2, 57, 99
1, 15000, Note_on_c, 15, 57, 81
1, 15014, Note_on_c, 10, 42, 0
1, 15014, Note_on_c, 1, 42, 0
1, 15014, Note_on_c, 11, 42, 0
1, 15019, Note_on_c, 2, 57, 0
1, 15021, Note_on_c, 15, 57, 0
1, 15023, Note_on_c, 2, 56, 103
1, 15023, Note_on_c, 9, 81, 30
1, 15024, Note_on_c, 9, 42, 81
1, 15024, Note_on_c, 15, 61, 74
1, 15027, Note_on_c, 9, 81, 0
1, 15028, Note_on_c, 9, 42, 0
1, 15042, Note_on_c, 2, 56, 0
1, 15047, Note_on_c, 2, 54, 100
1, 15048, Note_on_c, 15, 64, 78
1, 15052, Note_on_c, 15, 61, 0
1, 15066, Note_on_c, 2, 54, 0
1, 15071, Note_on_c, 2, 56, 104
1, 15071, Note_on_c, 6, 49, 79
1, 15071, Note_on_c, 9, 81, 24
1, 15072, Tempo, 645161
1, 15072, Note_on_c, 15, 64, 0
1, 15072, Note_on_c, 1, 42, 88
1, 15072, Note_on_c, 9, 36, 103
1, 15072, Note_on_c, 9, 37, 72
1, 15072, Note_on_c, 9, 40, 104
1, 15072, Note_on_c, 9, 69, 99
1, 15072, Note_on_c, 9, 84, 23
1, 15072, Note_on_c, 10, 42, 55
1, 15072, Note_on_c, 11, 42, 62
1, 15072, Note_on_c, 15, 68, 77
1, 15073, Note_on_c, 9, 39, 56
1, 15075, Note_on_c, 9, 81, 0
1, 15076, Note_on_c, 9, 37, 0
1, 15076, Note_on_c, 9, 36, 0
1, 15076, Note_on_c, 9, 84, 0
1, 15076, Note_on_c, 9, 40, 0
1, 15076, Note_on_c, 9, 69, 0
1, 15077, Note_on_c, 9, 39, 0
1, 15093, Note_on_c, 2, 56, 0
1, 15095, Note_on_c, 6, 49, 0
1, 15095, Note_on_c, 9, 81, 28
1, 15096, Note_on_c, 2, 54, 99
1, 15096, Note_on_c, 9, 42, 81
1, 15096, Note_on_c, 9, 69, 94
1, 15096, Note_on_c, 15, 64, 81
1, 15099, Note_on_c, 9, 81, 0
1, 15099, Note_on_c, 15, 68, 0
1, 15100, Note_on_c, 9, 69, 0
1, 15100, Note_on_c, 9, 42, 0
1, 15104, Note_on_c, 1, 42, 0
1, 15104, Note_on_c, 11, 42, 0
1, 15104, Note_on_c, 10, 42, 0
1, 15107, Note_on_c, 8, 54, 0
1, 15119, Note_on_c, 9, 81, 28
1, 15120, Note_on_c, 5, 90, 84
1, 15120, Note_on_c, 6, 47, 76
1, 15120, Note_on_c, 8, 57, 99
1, 15120, Note_on_c, 9, 39, 29
1, 15120, Note_on_c, 9, 69, 99
1, 15121, Note_on_c, 15, 57, 72
1, 15122, Note_on_c, 15, 64, 0
1, 15123, Note_on_c, 9, 81, 0
1, 15124, Note_on_c, 9, 39, 0
1, 15124, Note_on_c, 9, 69, 0
1, 15126, Control_c, 2, 1, 22
1, 15128, Note_on_c, 0, 57, 0
1, 15130, Control_c, 2, 1, 42
1, 15135, Control_c, 2, 1, 53
1, 15137, Note_on_c, 5, 90, 0
1, 15139, Note_on_c, 15, 57, 0
1, 15139, Control_c, 2, 1, 57
1, 15143, Note_on_c, 15, 61, 77
1, 15144, Note_on_c, 6, 47, 0
1, 15144, Control_c, 2, 1, 58
1, 15144, Note_on_c, 9, 69, 98
1, 15148, Note_on_c, 9, 69, 0
1, 15150, Note_on_c, 8, 57, 0
1, 15151, Note_on_c, 5, 92, 81
1, 15152, Control_c, 2, 11, 126
1, 15154, Note_on_c, 15, 54, 0
1, 15156, Control_c, 2, 11, 121
1, 15159, Note_on_c, 15, 61, 0
1, 15160, Control_c, 2, 11, 117
1, 15160, Control_c, 2, 1, 59
1, 15164, Control_c, 2, 11, 112
1, 15167, Note_on_c, 0, 64, 47
1, 15167, Note_on_c, 9, 84, 22
1, 15167, Lyric_t, "I'm "
1, 15168, Note_on_c, 1, 42, 88
1, 15168, Control_c, 2, 11, 107
1, 15168, Note_on_c, 5, 93, 79
1, 15168, Note_on_c, 6, 49, 75
1, 15168, Note_on_c, 8, 54, 103
1, 15168, Note_on_c, 9, 36, 101
1, 15168, Note_on_c, 9, 42, 81
1, 15168, Note_on_c, 9, 69, 101
1, 15168, Note_on_c, 9, 81, 22
1, 15168, Note_on_c, 10, 42, 58
1, 15168, Note_on_c, 11, 42, 64
1, 15168, Note_on_c, 12, 64, 75
1, 15168, Note_on_c, 15, 54, 72
1, 15171, Note_on_c, 9, 84, 0
1, 15172, Note_on_c, 9, 36, 0
1, 15172, Note_on_c, 9, 81, 0
1, 15172, Note_on_c, 9, 42, 0
1, 15172, Note_on_c, 5, 92, 0
1, 15172, Note_on_c, 9, 69, 0
1, 15172, Control_c, 2, 11, 102
1, 15176, Control_c, 2, 11, 98
1, 15177, Control_c, 2, 1, 58
1, 15180, Control_c, 2, 11, 88
1, 15187, Note_on_c, 2, 54, 0
1, 15187, Note_on_c, 5, 93, 0
1, 15188, Control_c, 2, 11, 83
1, 15192, Control_c, 2, 11, 78
1, 15192, Note_on_c, 9, 42, 55
1, 15192, Note_on_c, 9, 81, 25
1, 15192, Note_on_c, 15, 69, 77
1, 15193, Control_c, 2, 1, 57
1, 15196, Note_on_c, 9, 81, 0
1, 15196, Note_on_c, 8, 54, 0
1, 15196, Note_on_c, 9, 42, 0
1, 15196, Control_c, 2, 11, 74
1, 15198, Note_on_c, 6, 49, 0
1, 15198, Note_on_c, 11, 42, 0
1, 15198, Note_on_c, 1, 42, 0
1, 15198, Note_on_c, 10, 42, 0
1, 15200, Control_c, 2, 11, 69
1, 15201, Control_c, 2, 1, 56
1, 15204, Control_c, 2, 1, 54
1, 15207, Control_c, 2, 1, 50
1, 15211, Note_on_c, 12, 64, 0
1, 15212, Control_c, 2, 1, 43
1, 15216, Note_on_c, 0, 64, 0
1, 15216, Note_on_c, 0, 63, 50
1, 15216, Control_c, 2, 1, 30
1, 15216, Note_on_c, 5, 90, 74
1, 15216, Note_on_c, 8, 57, 103
1, 15216, Note_on_c, 9, 81, 31
1, 15216, Note_on_c, 12, 63, 67
1, 15216, Note_on_c, 15, 57, 76
1, 15216, Lyric_t, "sor"
1, 15217, Note_on_c, 15, 69, 0
1, 15220, Note_on_c, 9, 81, 0
1, 15220, Control_c, 2, 1, 14
1, 15224, Control_c, 2, 11, 127
1, 15225, Control_c, 2, 1, 4
1, 15229, Control_c, 2, 1, 0
1, 15234, Note_on_c, 15, 57, 0
1, 15235, Note_on_c, 5, 90, 0
1, 15240, Note_on_c, 9, 42, 84
1, 15240, Note_on_c, 9, 81, 22
1, 15240, Note_on_c, 15, 64, 80
1, 15244, Note_on_c, 9, 81, 0
1, 15244, Note_on_c, 9, 42, 0
1, 15247, Note_on_c, 5, 92, 70
1, 15261, Note_on_c, 12, 63, 0
1, 15263, Note_on_c, 0, 63, 0
1, 15263, Note_on_c, 9, 84, 21
1, 15264, Note_on_c, 0, 61, 54
1, 15264, Note_on_c, 1, 42, 89
1, 15264, Note_on_c, 5, 93, 68
1, 15264, Note_on_c, 9, 36, 95
1, 15264, Note_on_c, 9, 37, 75
1, 15264, Note_on_c, 9, 40, 101
1, 15264, Note_on_c, 9, 39, 51
1, 15264, Note_on_c, 10, 42, 56
1, 15264, Note_on_c, 11, 42, 64
1, 15264, Note_on_c, 15, 61, 77
1, 15264, Note_on_c, 15, 57, 76
1, 15264, Lyric_t, "ry "
1, 15265, Note_on_c, 15, 64, 0
1, 15265, Note_on_c, 12, 64, 73
1, 15267, Note_on_c, 9, 84, 0
1, 15268, Note_on_c, 9, 36, 0
1, 15268, Note_on_c, 5, 92, 0
1, 15268, Note_on_c, 9, 40, 0
1, 15268, Note_on_c, 9, 37, 0
1, 15268, Note_on_c, 9, 39, 0
1, 15283, Note_on_c, 15, 57, 0
1, 15283, Note_on_c, 5, 93, 0
1, 15288, Note_on_c, 15, 57, 81
1, 15289, Note_on_c, 15, 61, 0
1, 15297, Pitch_bend_c, 3, 0
1, 15298, Note_on_c, 11, 42, 0
1, 15298, Note_on_c, 1, 42, 0
1, 15298, Note_on_c, 10, 42, 0
1, 15308, Note_on_c, 12, 64, 0
1, 15310, Note_on_c, 15, 57, 0
1, 15310, Pitch_bend_c, 3, 384
1, 15311, Note_on_c, 3, 68, 97
1, 15311, Pitch_bend_c, 3, 3584
1, 15311, Note_on_c, 9, 39, 24
1, 15311, Lyric_t, "that "
1, 15312, Note_on_c, 0, 59, 47
1, 15312, Note_on_c, 5, 90, 63
1, 15312, Note_on_c, 9, 42, 77
1, 15312, Note_on_c, 9, 81, 22
1, 15312, Note_on_c, 15, 61, 75
1, 15312, Note_on_c, 15, 57, 76
1, 15313, Note_on_c, 12, 64, 74
1, 15315, Note_on_c, 9, 39, 0
1, 15315, Note_on_c, 0, 61, 0
1, 15315, Pitch_bend_c, 3, 5376
1, 15316, Note_on_c, 9, 81, 0
1, 15316, Note_on_c, 9, 42, 0
1, 15317, Note_on_c, 8, 57, 0
1, 15318, Pitch_bend_c, 3, 6272
1, 15322, Pitch_bend_c, 3, 6912
1, 15326, Pitch_bend_c, 3, 8192
1, 15328, Note_on_c, 15, 54, 0
1, 15329, Note_on_c, 15, 57, 0
1, 15331, Note_on_c, 5, 90, 0
1, 15336, Note_on_c, 8, 54, 96
1, 15336, Note_on_c, 15, 54, 81
1, 15337, Note_on_c, 15, 61, 0
1, 15343, Note_on_c, 5, 92, 60
1, 15352, Note_on_c, 3, 68, 0
1, 15357, Note_on_c, 8, 54, 0
1, 15358, Note_on_c, 12, 64, 0
1, 15359, Note_on_c, 0, 61, 52
1, 15359, Note_on_c, 3, 71, 97
1, 15359, Lyric_t, "you "
1, 15360, Note_on_c, 15, 54, 0
1, 15360, Note_on_c, 1, 42, 85
1, 15360, Note_on_c, 5, 93, 58
1, 15360, Note_on_c, 7, 42, 87
1, 15360, Note_on_c, 8, 54, 99
1, 15360, Note_on_c, 9, 36, 95
1, 15360, Note_on_c, 9, 81, 27
1, 15360, Note_on_c, 10, 42, 54
1, 15360, Note_on_c, 11, 42, 64
1, 15360, Note_on_c, 15, 66, 72
1, 15361, Note_on_c, 12, 66, 69
1, 15364, Note_on_c, 9, 81, 0
1, 15364, Note_on_c, 9, 36, 0
1, 15365, Note_on_c, 0, 59, 0
1, 15368, Note_on_c, 5, 92, 0
1, 15383, Note_on_c, 15, 57, 72
1, 15389, Note_on_c, 5, 93, 0
1, 15398, Note_on_c, 10, 42, 0
1, 15398, Note_on_c, 1, 42, 0
1, 15398, Note_on_c, 11, 42, 0
1, 15402, Note_on_c, 15, 57, 0
1, 15403, Note_on_c, 3, 71, 0
1, 15407, Note_on_c, 9, 81, 29
1, 15407, Note_on_c, 15, 61, 75
1, 15408, Note_on_c, 3, 69, 102
1, 15408, Lyric_t, "seem "
1, 15411, Note_on_c, 9, 81, 0
1, 15431, Note_on_c, 15, 57, 79
1, 15432, Note_on_c, 7, 42, 0
1, 15432, Note_on_c, 3, 66, 99
1, 15432, Note_on_c, 7, 42, 68
1, 15432, Note_on_c, 9, 42, 78
1, 15432, Lyric_t, "to "
1, 15433, Note_on_c, 3, 69, 0
1, 15436, Note_on_c, 9, 42, 0
1, 15447, Note_on_c, 13, 69, 0
1, 15447, Note_on_c, 13, 81, 0
1, 15451, Note_on_c, 15, 57, 0
1, 15452, Note_on_c, 15, 61, 0
1, 15455, Note_on_c, 7, 42, 0
1, 15455, Note_on_c, 6, 49, 75
1, 15455, Note_on_c, 9, 42, 83
1, 15455, Note_on_c, 9, 69, 99
1, 15455, Note_on_c, 9, 81, 24
1, 15455, Note_on_c, 13, 83, 82
1, 15455, Note_on_c, 13, 71, 85
1, 15455, Note_on_c, 15, 57, 75
1, 15455, Note_on_c, 15, 64, 79
1, 15456, Note_on_c, 1, 42, 88
1, 15456, Note_on_c, 9, 36, 95
1, 15456, Note_on_c, 9, 37, 79
1, 15456, Note_on_c, 9, 40, 96
1, 15456, Note_on_c, 10, 42, 54
1, 15456, Note_on_c, 11, 42, 65
1, 15457, Note_on_c, 9, 39, 56
1, 15459, Note_on_c, 9, 81, 0
1, 15459, Note_on_c, 9, 69, 0
1, 15459, Note_on_c, 9, 42, 0
1, 15460, Note_on_c, 9, 40, 0
1, 15460, Note_on_c, 9, 37, 0
1, 15460, Note_on_c, 9, 36, 0
1, 15461, Note_on_c, 9, 39, 0
1, 15468, Control_c, 3, 1, 21
1, 15469, Note_on_c, 15, 57, 0
1, 15473, Control_c, 3, 1, 32
1, 15474, Note_on_c, 15, 64, 0
1, 15474, Note_on_c, 15, 66, 0
1, 15477, Control_c, 3, 1, 40
1, 15479, Note_on_c, 9, 81, 26
1, 15480, Note_on_c, 6, 49, 0
1, 15480, Note_on_c, 15, 68, 72
1, 15481, Control_c, 3, 1, 49
1, 15483, Note_on_c, 9, 81, 0
1, 15486, Control_c, 3, 1, 55
1, 15488, Note_on_c, 11, 42, 0
1, 15488, Note_on_c, 10, 42, 0
1, 15488, Note_on_c, 1, 42, 0
1, 15490, Control_c, 3, 1, 60
1, 15493, Note_on_c, 8, 54, 0
1, 15495, Note_on_c, 12, 66, 0
1, 15495, Control_c, 3, 1, 65
1, 15500, Control_c, 3, 1, 68
1, 15501, Note_on_c, 15, 68, 0
1, 15503, Note_on_c, 8, 57, 102
1, 15503, Note_on_c, 9, 69, 97
1, 15503, Note_on_c, 9, 81, 28
1, 15503, Note_on_c, 9, 42, 78
1, 15503, Note_on_c, 13, 85, 78
1, 15503, Note_on_c, 13, 73, 76
1, 15504, Note_on_c, 6, 47, 73
1, 15504, Note_on_c, 7, 42, 71
1, 15504, Note_on_c, 9, 39, 25
1, 15504, Note_on_c, 15, 57, 78
1, 15506, Note_on_c, 13, 71, 0
1, 15506, Note_on_c, 13, 83, 0
1, 15507, Note_on_c, 9, 42, 0
1, 15507, Note_on_c, 9, 69, 0
1, 15507, Note_on_c, 9, 81, 0
1, 15508, Note_on_c, 9, 39, 0
1, 15510, Control_c, 3, 1, 66
1, 15513, Control_c, 3, 1, 62
1, 15518, Control_c, 3, 1, 57
1, 15519, Note_on_c, 0, 61, 0
1, 15520, Note_on_c, 15, 57, 0
1, 15522, Control_c, 3, 1, 53
1, 15523, Note_on_c, 8, 57, 0
1, 15525, Note_on_c, 7, 42, 0
1, 15526, Note_on_c, 6, 47, 0
1, 15526, Control_c, 3, 1, 50
1, 15527, Note_on_c, 15, 69, 81
1, 15531, Control_c, 3, 1, 44
1, 15536, Control_c, 3, 1, 39
1, 15536, Note_on_c, 9, 40, 77
1, 15540, Note_on_c, 9, 40, 0
1, 15540, Control_c, 3, 1, 26
1, 15544, Control_c, 3, 1, 1
1, 15546, Note_on_c, 15, 69, 0
1, 15550, Note_on_c, 13, 73, 0
1, 15550, Note_on_c, 13, 85, 0
1, 15551, Note_on_c, 0, 66, 49
1, 15551, Note_on_c, 8, 57, 103
1, 15551, Note_on_c, 9, 42, 77
1, 15551, Note_on_c, 13, 87, 82
1, 15551, Note_on_c, 13, 75, 82
1, 15551, Lyric_t, "be "
1, 15552, Note_on_c, 1, 42, 92
1, 15552, Note_on_c, 3, 68, 100
1, 15552, Note_on_c, 6, 49, 76
1, 15552, Note_on_c, 9, 36, 96
1, 15552, Note_on_c, 9, 81, 27
1, 15552, Note_on_c, 10, 42, 54
1, 15552, Note_on_c, 11, 42, 65
1, 15552, Note_on_c, 15, 57, 79
1, 15553, Note_on_c, 12, 66, 75
1, 15555, Note_on_c, 9, 42, 0
1, 15556, Note_on_c, 9, 81, 0
1, 15556, Note_on_c, 9, 36, 0
1, 15558, Note_on_c, 3, 66, 0
1, 15571, Note_on_c, 15, 57, 0
1, 15571, Note_on_c, 8, 57, 0
1, 15576, Note_on_c, 9, 42, 58
1, 15576, Note_on_c, 9, 81, 25
1, 15576, Note_on_c, 15, 64, 72
1, 15580, Note_on_c, 9, 81, 0
1, 15580, Note_on_c, 9, 42, 0
1, 15581, Note_on_c, 6, 49, 0
1, 15582, Note_on_c, 10, 42, 0
1, 15582, Note_on_c, 1, 42, 0
1, 15582, Note_on_c, 11, 42, 0
1, 15586, Control_c, 3, 1, 19
1, 15590, Control_c, 3, 1, 30
1, 15592, Control_c, 3, 11, 127
1, 15594, Note_on_c, 15, 64, 0
1, 15594, Control_c, 3, 1, 36
1, 15596, Control_c, 3, 11, 122
1, 15598, Control_c, 3, 1, 42
1, 15599, Note_on_c, 13, 87, 0
1, 15599, Note_on_c, 13, 75, 0
1, 15599, Note_on_c, 8, 57, 96
1, 15599, Note_on_c, 9, 69, 95
1, 15599, Note_on_c, 13, 85, 82
1, 15599, Note_on_c, 13, 73, 84
1, 15599, Note_on_c, 15, 57, 77
1, 15600, Note_on_c, 0, 64, 51
1, 15600, Control_c, 3, 11, 116
1, 15600, Note_on_c, 7, 42, 73
1, 15600, Note_on_c, 9, 81, 22
1, 15600, Lyric_t, "con"
1, 15602, Note_on_c, 12, 64, 75
1, 15603, Note_on_c, 9, 69, 0
1, 15603, Note_on_c, 0, 66, 0
1, 15603, Control_c, 3, 1, 46
1, 15604, Note_on_c, 9, 81, 0
1, 15604, Control_c, 3, 11, 111
1, 15604, Pitch_bend_c, 3, 8222
1, 15607, Control_c, 3, 1, 50
1, 15608, Note_on_c, 12, 66, 0
1, 15608, Control_c, 3, 11, 105
1, 15608, Pitch_bend_c, 3, 7863
1, 15611, Note_on_c, 7, 42, 0
1, 15612, Control_c, 3, 1, 53
1, 15612, Control_c, 3, 11, 95
1, 15612, Pitch_bend_c, 3, 7503
1, 15616, Pitch_bend_c, 3, 7144
1, 15617, Note_on_c, 15, 57, 0
1, 15618, Note_on_c, 8, 57, 0
1, 15620, Control_c, 3, 11, 89
1, 15620, Pitch_bend_c, 3, 6784
1, 15624, Control_c, 3, 11, 84
1, 15624, Pitch_bend_c, 3, 6425
1, 15624, Note_on_c, 9, 81, 31
1, 15624, Note_on_c, 15, 61, 72
1, 15627, Control_c, 3, 1, 51
1, 15628, Note_on_c, 9, 81, 0
1, 15628, Control_c, 3, 11, 78
1, 15628, Pitch_bend_c, 3, 6066
1, 15631, Control_c, 3, 1, 49
1, 15632, Control_c, 3, 11, 73
1, 15632, Pitch_bend_c, 3, 5706
1, 15635, Control_c, 3, 1, 47
1, 15636, Control_c, 3, 11, 67
1, 15636, Pitch_bend_c, 3, 5347
1, 15640, Control_c, 3, 11, 62
1, 15640, Pitch_bend_c, 3, 4988
1, 15643, Control_c, 3, 1, 46
1, 15644, Note_on_c, 15, 61, 0
1, 15644, Control_c, 3, 11, 57
1, 15644, Pitch_bend_c, 3, 4628
1, 15646, Note_on_c, 12, 64, 0
1, 15647, Note_on_c, 13, 73, 0
1, 15647, Note_on_c, 13, 85, 0
1, 15647, Note_on_c, 8, 54, 97
1, 15647, Note_on_c, 13, 83, 80
1, 15647, Note_on_c, 13, 71, 84
1, 15647, Note_on_c, 15, 54, 73
1, 15648, Note_on_c, 0, 63, 52
1, 15648, Note_on_c, 1, 44, 92
1, 15648, Control_c, 3, 11, 46
1, 15648, Pitch_bend_c, 3, 4269
1, 15648, Note_on_c, 9, 36, 100
1, 15648, Note_on_c, 9, 37, 79
1, 15648, Note_on_c, 9, 40, 99
1, 15648, Note_on_c, 9, 39, 51
1, 15648, Note_on_c, 10, 44, 57
1, 15648, Note_on_c, 11, 44, 59
1, 15648, Lyric_t, "fused, "
1, 15648, Lyric_t, "\015"
1, 15649, Note_on_c, 12, 63, 67
1, 15651, Note_on_c, 3, 68, 0
1, 15651, Control_c, 3, 1, 45
1, 15652, Note_on_c, 9, 40, 0
1, 15652, Note_on_c, 0, 64, 0
1, 15652, Note_on_c, 9, 37, 0
1, 15652, Note_on_c, 9, 36, 0
1, 15652, Note_on_c, 9, 39, 0
1, 15652, Pitch_bend_c, 3, 3909
1, 15653, Control_c, 3, 1, 42
1, 15656, Control_c, 3, 11, 40
1, 15656, Pitch_bend_c, 3, 3550
1, 15657, Control_c, 3, 1, 38
1, 15662, Control_c, 3, 1, 33
1, 15666, Control_c, 3, 1, 26
1, 15668, Pitch_bend_c, 3, 8192
1, 15671, Control_c, 3, 1, 20
1, 15671, Note_on_c, 15, 61, 72
1, 15676, Control_c, 3, 1, 13
1, 15676, Control_c, 3, 11, 127
1, 15680, Control_c, 3, 1, 8
1, 15684, Control_c, 3, 1, 3
1, 15688, Control_c, 3, 1, 1
1, 15692, Note_on_c, 1, 44, 0
1, 15692, Note_on_c, 10, 44, 0
1, 15692, Note_on_c, 11, 44, 0
1, 15694, Note_on_c, 15, 61, 0
1, 15694, Note_on_c, 15, 64, 77
1, 15695, Note_on_c, 15, 54, 0
1, 15695, Note_on_c, 9, 39, 28
1, 15696, Note_on_c, 0, 61, 53
1, 15696, Note_on_c, 1, 39, 86
1, 15696, Note_on_c, 9, 36, 102
1, 15696, Note_on_c, 9, 81, 27
1, 15696, Note_on_c, 11, 39, 61
1, 15696, Note_on_c, 13, 78, 84
1, 15696, Note_on_c, 13, 66, 79
1, 15696, Lyric_t, "He "
1, 15697, Note_on_c, 13, 83, 0
1, 15697, Note_on_c, 13, 71, 0
1, 15697, Note_on_c, 9, 42, 81
1, 15698, Note_on_c, 0, 63, 0
1, 15698, Note_on_c, 10, 39, 59
1, 15698, Note_on_c, 12, 66, 70
1, 15699, Note_on_c, 9, 39, 0
1, 15700, Note_on_c, 9, 81, 0
1, 15700, Note_on_c, 9, 36, 0
1, 15701, Note_on_c, 9, 42, 0
1, 15702, Note_on_c, 12, 63, 0
1, 15719, Note_on_c, 15, 64, 0
1, 15719, Note_on_c, 15, 68, 80
1, 15732, Note_on_c, 8, 54, 0
1, 15736, Note_on_c, 15, 68, 0
1, 15738, Note_on_c, 1, 39, 0
1, 15738, Note_on_c, 11, 39, 0
1, 15740, Note_on_c, 10, 39, 0
1, 15741, Note_on_c, 13, 66, 0
1, 15741, Note_on_c, 13, 78, 0
1, 15743, Note_on_c, 13, 80, 78
1, 15743, Note_on_c, 13, 68, 78
1, 15744, Note_on_c, 0, 63, 51
1, 15744, Note_on_c, 1, 37, 90
1, 15744, Note_on_c, 9, 36, 104
1, 15744, Note_on_c, 9, 49, 33
1, 15744, Note_on_c, 9, 81, 25
1, 15744, Note_on_c, 9, 42, 83
1, 15744, Note_on_c, 9, 84, 14
1, 15744, Note_on_c, 10, 37, 59
1, 15744, Note_on_c, 11, 37, 60
1, 15744, Note_on_c, 15, 49, 81
1, 15746, Note_on_c, 12, 66, 0
1, 15746, Note_on_c, 12, 68, 74
1, 15748, Note_on_c, 9, 84, 0
1, 15748, Note_on_c, 9, 49, 0
1, 15748, Note_on_c, 9, 42, 0
1, 15748, Note_on_c, 9, 81, 0
1, 15748, Note_on_c, 9, 36, 0
1, 15750, Note_on_c, 0, 61, 0
1, 15767, Note_on_c, 15, 56, 79
1, 15768, Note_on_c, 8, 56, 95
1, 15782, Note_on_c, 8, 56, 0
1, 15788, Note_on_c, 15, 56, 0
1, 15791, Note_on_c, 9, 81, 27
1, 15791, Note_on_c, 15, 59, 76
1, 15792, Note_on_c, 9, 42, 81
1, 15793, Note_on_c, 3, 68, 103
1, 15793, Lyric_t, "be"
1, 15795, Note_on_c, 9, 81, 0
1, 15796, Note_on_c, 9, 42, 0
1, 15797, Note_on_c, 10, 37, 0
1, 15797, Note_on_c, 11, 37, 0
1, 15797, Note_on_c, 1, 37, 0
1, 15815, Note_on_c, 15, 56, 79
1, 15816, Note_on_c, 3, 68, 0
1, 15816, Note_on_c, 8, 56, 97
1, 15819, Note_on_c, 15, 59, 0
1, 15833, Note_on_c, 8, 56, 0
1, 15836, Note_on_c, 15, 56, 0
1, 15839, Note_on_c, 6, 49, 77
1, 15839, Note_on_c, 9, 81, 26
1, 15839, Note_on_c, 15, 63, 78
1, 15840, Tempo, 645161
1, 15840, Note_on_c, 1, 37, 92
1, 15840, Note_on_c, 9, 36, 100
1, 15840, Note_on_c, 9, 37, 74
1, 15840, Note_on_c, 9, 40, 95
1, 15840, Note_on_c, 9, 69, 97
1, 15840, Note_on_c, 9, 84, 21
1, 15840, Note_on_c, 10, 37, 60
1, 15840, Note_on_c, 11, 37, 60
1, 15841, Note_on_c, 3, 66, 96
1, 15841, Note_on_c, 9, 39, 49
1, 15841, Lyric_t, "longs "
1, 15843, Note_on_c, 9, 81, 0
1, 15844, Note_on_c, 9, 37, 0
1, 15844, Note_on_c, 9, 36, 0
1, 15844, Note_on_c, 9, 84, 0
1, 15844, Note_on_c, 9, 40, 0
1, 15844, Note_on_c, 9, 69, 0
1, 15845, Note_on_c, 9, 39, 0
1, 15860, Control_c, 3, 1, 14
1, 15861, Note_on_c, 15, 63, 0
1, 15863, Note_on_c, 6, 49, 0
1, 15863, Note_on_c, 8, 56, 95
1, 15863, Note_on_c, 9, 81, 27
1, 15863, Note_on_c, 15, 56, 72
1, 15864, Control_c, 3, 1, 29
1, 15864, Note_on_c, 9, 42, 81
1, 15864, Note_on_c, 9, 69, 100
1, 15867, Note_on_c, 9, 81, 0
1, 15868, Note_on_c, 9, 69, 0
1, 15868, Note_on_c, 9, 42, 0
1, 15869, Control_c, 3, 1, 35
1, 15870, Note_on_c, 1, 37, 0
1, 15870, Note_on_c, 11, 37, 0
1, 15870, Note_on_c, 10, 37, 0
1, 15873, Control_c, 3, 1, 38
1, 15878, Control_c, 3, 1, 40
1, 15881, Note_on_c, 8, 56, 0
1, 15884, Note_on_c, 15, 56, 0
1, 15887, Note_on_c, 9, 81, 30
1, 15887, Note_on_c, 15, 59, 80
1, 15888, Note_on_c, 5, 88, 87
1, 15888, Note_on_c, 6, 47, 73
1, 15888, Note_on_c, 9, 39, 27
1, 15888, Note_on_c, 9, 69, 97
1, 15890, Note_on_c, 12, 68, 0
1, 15891, Note_on_c, 9, 81, 0
1, 15892, Note_on_c, 9, 39, 0
1, 15892, Note_on_c, 9, 69, 0
1, 15892, Control_c, 3, 1, 38
1, 15896, Control_c, 3, 1, 33
1, 15900, Control_c, 3, 1, 22
1, 15905, Control_c, 3, 1, 2
1, 15906, Note_on_c, 3, 66, 0
1, 15906, Note_on_c, 5, 88, 0
1, 15909, Control_c, 3, 1, 0
1, 15911, Note_on_c, 15, 59, 0
1, 15911, Note_on_c, 8, 56, 103
1, 15911, Note_on_c, 15, 56, 73
1, 15912, Note_on_c, 6, 47, 0
1, 15912, Note_on_c, 0, 63, 0
1, 15912, Note_on_c, 9, 69, 99
1, 15916, Note_on_c, 9, 69, 0
1, 15920, Note_on_c, 5, 90, 83
1, 15930, Note_on_c, 8, 56, 0
1, 15935, Note_on_c, 0, 64, 50
1, 15935, Note_on_c, 1, 37, 85
1, 15935, Note_on_c, 5, 92, 81
1, 15935, Note_on_c, 9, 36, 96
1, 15935, Note_on_c, 9, 84, 15
1, 15935, Note_on_c, 10, 37, 61
1, 15935, Note_on_c, 11, 37, 64
1, 15935, Note_on_c, 15, 63, 80
1, 15936, Note_on_c, 15, 56, 0
1, 15936, Note_on_c, 6, 49, 76
1, 15936, Note_on_c, 9, 42, 75
1, 15936, Note_on_c, 9, 69, 93
1, 15936, Note_on_c, 9, 81, 26
1, 15937, Note_on_c, 5, 90, 0
1, 15937, Note_on_c, 12, 64, 66
1, 15939, Note_on_c, 9, 84, 0
1, 15939, Note_on_c, 9, 36, 0
1, 15939, Note_on_c, 3, 63, 101
1, 15939, Lyric_t, "to "
1, 15940, Note_on_c, 9, 81, 0
1, 15940, Note_on_c, 9, 69, 0
1, 15940, Note_on_c, 9, 42, 0
1, 15950, Note_on_c, 5, 92, 0
1, 15954, Note_on_c, 15, 63, 0
1, 15959, Note_on_c, 8, 56, 99
1, 15959, Note_on_c, 15, 56, 78
1, 15960, Note_on_c, 9, 42, 59
1, 15960, Note_on_c, 9, 81, 23
1, 15964, Note_on_c, 9, 81, 0
1, 15964, Note_on_c, 9, 42, 0
1, 15966, Note_on_c, 6, 49, 0
1, 15972, Note_on_c, 10, 37, 0
1, 15972, Note_on_c, 11, 37, 0
1, 15972, Note_on_c, 1, 37, 0
1, 15973, Note_on_c, 15, 56, 0
1, 15978, Note_on_c, 8, 56, 0
1, 15982, Note_on_c, 12, 64, 0
1, 15983, Note_on_c, 15, 56, 79
1, 15983, Note_on_c, 15, 61, 76
1, 15984, Note_on_c, 0, 63, 53
1, 15984, Note_on_c, 5, 88, 75
1, 15984, Note_on_c, 9, 81, 29
1, 15985, Note_on_c, 12, 63, 68
1, 15986, Note_on_c, 0, 64, 0
1, 15988, Note_on_c, 9, 81, 0
1, 15994, Note_on_c, 15, 61, 0
1, 15997, Note_on_c, 15, 56, 0
1, 15999, Note_on_c, 5, 88, 0
1, 16003, Note_on_c, 3, 63, 0
1, 16007, Note_on_c, 15, 56, 80
1, 16007, Note_on_c, 15, 64, 80
1, 16008, Note_on_c, 8, 56, 100
1, 16008, Note_on_c, 9, 42, 83
1, 16008, Note_on_c, 9, 81, 23
1, 16012, Note_on_c, 9, 81, 0
1, 16012, Note_on_c, 9, 42, 0
1, 16015, Note_on_c, 3, 61, 104
1, 16015, Lyric_t, "me, "
1, 16015, Lyric_t, "\015"
1, 16016, Note_on_c, 5, 90, 72
1, 16021, Note_on_c, 8, 56, 0
1, 16023, Note_on_c, 15, 64, 0
1, 16024, Note_on_c, 3, 63, 79
1, 16027, Note_on_c, 3, 61, 0
1, 16028, Note_on_c, 0, 63, 0
1, 16029, Note_on_c, 5, 90, 0
1, 16030, Note_on_c, 12, 63, 0
1, 16031, Note_on_c, 3, 61, 102
1, 16031, Note_on_c, 5, 92, 70
1, 16032, Note_on_c, 0, 61, 52
1, 16032, Note_on_c, 1, 37, 88
1, 16032, Note_on_c, 8, 56, 102
1, 16032, Note_on_c, 9, 36, 103
1, 16032, Note_on_c, 9, 37, 80
1, 16032, Note_on_c, 9, 40, 103
1, 16032, Note_on_c, 9, 39, 52
1, 16032, Note_on_c, 9, 84, 14
1, 16032, Note_on_c, 10, 37, 56
1, 16032, Note_on_c, 11, 37, 59
1, 16034, Note_on_c, 12, 61, 66
1, 16035, Note_on_c, 15, 49, 0
1, 16036, Note_on_c, 9, 36, 0
1, 16036, Note_on_c, 3, 63, 0
1, 16036, Note_on_c, 9, 84, 0
1, 16036, Note_on_c, 9, 40, 0
1, 16036, Note_on_c, 9, 37, 0
1, 16036, Note_on_c, 9, 39, 0
1, 16045, Note_on_c, 5, 92, 0
1, 16047, Note_on_c, 15, 56, 0
1, 16055, Note_on_c, 15, 66, 80
1, 16058, Note_on_c, 8, 56, 0
1, 16061, Control_c, 3, 1, 2
1, 16062, Control_c, 3, 1, 19
1, 16065, Note_on_c, 11, 37, 0
1, 16065, Note_on_c, 10, 37, 0
1, 16065, Note_on_c, 1, 37, 0
1, 16067, Control_c, 3, 1, 36
1, 16071, Control_c, 3, 1, 43
1, 16076, Control_c, 3, 1, 47
1, 16077, Note_on_c, 0, 61, 0
1, 16078, Note_on_c, 12, 61, 0
1, 16079, Note_on_c, 5, 88, 64
1, 16079, Note_on_c, 8, 56, 102
1, 16079, Note_on_c, 9, 39, 30
1, 16079, Note_on_c, 15, 56, 81
1, 16080, Note_on_c, 0, 59, 51
1, 16080, Note_on_c, 9, 42, 84
1, 16080, Note_on_c, 9, 81, 29
1, 16081, Note_on_c, 15, 66, 0
1, 16081, Note_on_c, 12, 59, 69
1, 16083, Note_on_c, 9, 39, 0
1, 16084, Note_on_c, 9, 81, 0
1, 16084, Note_on_c, 9, 42, 0
1, 16088, Control_c, 3, 1, 46
1, 16091, Control_c, 3, 1, 44
1, 16093, Control_c, 3, 1, 41
1, 16094, Note_on_c, 5, 88, 0
1, 16099, Control_c, 3, 1, 39
1, 16102, Note_on_c, 8, 56, 0
1, 16103, Control_c, 3, 1, 36
1, 16104, Note_on_c, 15, 56, 0
1, 16108, Control_c, 3, 1, 28
1, 16112, Control_c, 3, 1, 14
1, 16112, Note_on_c, 5, 90, 60
1, 16116, Control_c, 3, 1, 0
1, 16118, Note_on_c, 3, 61, 0
1, 16122, Note_on_c, 0, 59, 0
1, 16123, Note_on_c, 5, 90, 0
1, 16124, Note_on_c, 12, 59, 0
1, 16125, Note_on_c, 13, 68, 0
1, 16125, Note_on_c, 13, 80, 0
1, 16127, Note_on_c, 0, 61, 53
1, 16127, Note_on_c, 5, 92, 58
1, 16128, Note_on_c, 1, 37, 85
1, 16128, Note_on_c, 3, 56, 99
1, 16128, Note_on_c, 7, 37, 83
1, 16128, Note_on_c, 9, 36, 101
1, 16128, Note_on_c, 9, 81, 24
1, 16128, Note_on_c, 10, 37, 60
1, 16128, Note_on_c, 11, 37, 65
1, 16128, Note_on_c, 12, 64, 73
1, 16128, Note_on_c, 13, 80, 84
1, 16128, Note_on_c, 13, 68, 77
1, 16128, Note_on_c, 15, 59, 80
1, 16128, Lyric_t, "the "
1, 16132, Note_on_c, 9, 81, 0
1, 16132, Note_on_c, 9, 36, 0
1, 16141, Note_on_c, 5, 92, 0
1, 16151, Note_on_c, 15, 64, 73
1, 16152, Note_on_c, 8, 64, 96
1, 16161, Note_on_c, 15, 59, 0
1, 16169, Note_on_c, 8, 64, 0
1, 16175, Note_on_c, 9, 81, 28
1, 16176, Note_on_c, 15, 64, 0
1, 16176, Note_on_c, 15, 59, 78
1, 16179, Note_on_c, 9, 81, 0
1, 16181, Note_on_c, 11, 37, 0
1, 16181, Note_on_c, 10, 37, 0
1, 16181, Note_on_c, 1, 37, 0
1, 16194, Note_on_c, 7, 37, 0
1, 16198, Note_on_c, 3, 56, 0
1, 16199, Note_on_c, 15, 61, 76
1, 16200, Note_on_c, 7, 37, 72
1, 16200, Note_on_c, 8, 63, 97
1, 16200, Note_on_c, 9, 42, 83
1, 16204, Note_on_c, 9, 42, 0
1, 16210, Note_on_c, 15, 59, 0
1, 16215, Note_on_c, 12, 64, 0
1, 16217, Note_on_c, 8, 63, 0
1, 16218, Note_on_c, 15, 61, 0
1, 16223, Note_on_c, 3, 59, 95
1, 16223, Note_on_c, 6, 49, 76
1, 16223, Note_on_c, 9, 42, 84
1, 16223, Note_on_c, 9, 69, 96
1, 16223, Note_on_c, 9, 81, 24
1, 16223, Note_on_c, 13, 85, 82
1, 16223, Note_on_c, 13, 73, 81
1, 16223, Lyric_t, "boy "
1, 16224, Note_on_c, 13, 80, 0
1, 16224, Note_on_c, 13, 68, 0
1, 16224, Note_on_c, 0, 61, 0
1, 16224, Note_on_c, 0, 56, 55
1, 16224, Note_on_c, 1, 37, 89
1, 16224, Note_on_c, 9, 36, 104
1, 16224, Note_on_c, 9, 37, 77
1, 16224, Note_on_c, 9, 40, 95
1, 16224, Note_on_c, 10, 37, 58
1, 16224, Note_on_c, 11, 37, 68
1, 16224, Note_on_c, 15, 64, 81
1, 16225, Note_on_c, 9, 39, 52
1, 16225, Note_on_c, 12, 56, 66
1, 16227, Note_on_c, 9, 81, 0
1, 16227, Note_on_c, 9, 69, 0
1, 16227, Note_on_c, 9, 42, 0
1, 16228, Note_on_c, 9, 36, 0
1, 16228, Note_on_c, 9, 40, 0
1, 16228, Note_on_c, 9, 37, 0
1, 16229, Note_on_c, 9, 39, 0
1, 16230, Note_on_c, 7, 37, 0
1, 16247, Note_on_c, 3, 59, 0
1, 16247, Note_on_c, 3, 56, 71
1, 16247, Note_on_c, 9, 81, 30
1, 16247, Note_on_c, 15, 68, 79
1, 16248, Note_on_c, 6, 49, 0
1, 16248, Note_on_c, 8, 63, 98
1, 16251, Note_on_c, 9, 81, 0
1, 16258, Note_on_c, 15, 64, 0
1, 16262, Note_on_c, 10, 37, 0
1, 16262, Note_on_c, 1, 37, 0
1, 16262, Note_on_c, 11, 37, 0
1, 16265, Note_on_c, 8, 63, 0
1, 16271, Note_on_c, 3, 59, 96
1, 16271, Note_on_c, 9, 69, 98
1, 16271, Note_on_c, 9, 81, 22
1, 16271, Note_on_c, 9, 42, 84
1, 16271, Note_on_c, 13, 87, 76
1, 16271, Note_on_c, 13, 75, 79
1, 16271, Note_on_c, 15, 63, 77
1, 16271, Lyric_t, "is "
1, 16272, Note_on_c, 13, 85, 0
1, 16272, Note_on_c, 13, 73, 0
1, 16272, Note_on_c, 6, 47, 78
1, 16272, Note_on_c, 9, 39, 27
1, 16275, Note_on_c, 9, 81, 0
1, 16275, Note_on_c, 9, 69, 0
1, 16275, Note_on_c, 9, 42, 0
1, 16275, Note_on_c, 3, 56, 0
1, 16276, Note_on_c, 9, 39, 0
1, 16294, Note_on_c, 6, 47, 0
1, 16295, Note_on_c, 3, 61, 103
1, 16295, Note_on_c, 15, 64, 72
1, 16296, Note_on_c, 8, 64, 101
1, 16299, Note_on_c, 3, 59, 0
1, 16301, Note_on_c, 12, 56, 0
1, 16304, Note_on_c, 9, 40, 76
1, 16308, Note_on_c, 9, 40, 0
1, 16308, Note_on_c, 3, 61, 0
1, 16311, Note_on_c, 15, 63, 0
1, 16311, Note_on_c, 8, 64, 0
1, 16315, Note_on_c, 0, 56, 0
1, 16316, Note_on_c, 15, 68, 0
1, 16317, Note_on_c, 15, 64, 0
1, 16319, Note_on_c, 1, 37, 85
1, 16319, Note_on_c, 3, 61, 95
1, 16319, Note_on_c, 9, 42, 80
1, 16319, Note_on_c, 9, 36, 101
1, 16319, Note_on_c, 10, 37, 61
1, 16319, Note_on_c, 11, 37, 67
1, 16319, Note_on_c, 13, 88, 85
1, 16319, Note_on_c, 13, 76, 85
1, 16319, Note_on_c, 15, 71, 72
1, 16319, Lyric_t, "mine. "
1, 16319, Lyric_t, "\015"
1, 16319, Lyric_t, "\012"
1, 16320, Note_on_c, 0, 61, 53
1, 16320, Note_on_c, 6, 49, 74
1, 16320, Note_on_c, 9, 81, 26
1, 16320, Note_on_c, 12, 61, 72
1, 16321, Note_on_c, 13, 87, 0
1, 16321, Note_on_c, 13, 75, 0
1, 16323, Note_on_c, 9, 42, 0
1, 16323, Note_on_c, 9, 36, 0
1, 16324, Note_on_c, 9, 81, 0
1, 16341, Control_c, 3, 1, 12
1, 16343, Note_on_c, 8, 64, 97
1, 16343, Note_on_c, 9, 38, 56
1, 16343, Note_on_c, 15, 64, 80
1, 16344, Note_on_c, 9, 42, 52
1, 16344, Note_on_c, 9, 81, 31
1, 16345, Control_c, 3, 1, 31
1, 16347, Note_on_c, 9, 38, 0
1, 16348, Note_on_c, 9, 81, 0
1, 16348, Note_on_c, 9, 42, 0
1, 16349, Note_on_c, 6, 49, 0
1, 16350, Control_c, 3, 1, 38
1, 16354, Control_c, 3, 1, 43
1, 16356, Note_on_c, 10, 37, 0
1, 16356, Note_on_c, 11, 37, 0
1, 16356, Note_on_c, 1, 37, 0
1, 16356, Control_c, 3, 11, 127
1, 16359, Control_c, 3, 1, 47
1, 16360, Control_c, 3, 11, 119
1, 16360, Pitch_bend_c, 3, 8192
1, 16363, Note_on_c, 8, 64, 0
1, 16363, Control_c, 3, 1, 51
1, 16364, Control_c, 3, 11, 112
1, 16364, Pitch_bend_c, 3, 7933
1, 16367, Note_on_c, 9, 69, 92
1, 16367, Note_on_c, 15, 68, 73
1, 16368, Control_c, 3, 11, 97
1, 16368, Pitch_bend_c, 3, 7673
1, 16368, Note_on_c, 7, 37, 76
1, 16368, Note_on_c, 9, 38, 50
1, 16368, Note_on_c, 9, 81, 24
1, 16368, Note_on_c, 13, 87, 83
1, 16368, Note_on_c, 13, 75, 79
1, 16369, Note_on_c, 13, 88, 0
1, 16369, Note_on_c, 13, 76, 0
1, 16369, Control_c, 3, 1, 54
1, 16370, Note_on_c, 15, 64, 0
1, 16370, Note_on_c, 15, 71, 0
1, 16371, Note_on_c, 9, 69, 0
1, 16372, Note_on_c, 9, 38, 0
1, 16372, Note_on_c, 9, 81, 0
1, 16372, Pitch_bend_c, 3, 7414
1, 16372, Control_c, 3, 1, 56
1, 16376, Control_c, 3, 11, 90
1, 16376, Pitch_bend_c, 3, 7154
1, 16380, Control_c, 3, 11, 83
1, 16380, Pitch_bend_c, 3, 6895
1, 16384, Control_c, 3, 11, 75
1, 16384, Pitch_bend_c, 3, 6635
1, 16385, Note_on_c, 7, 37, 0
1, 16388, Control_c, 3, 11, 68
1, 16388, Pitch_bend_c, 3, 6376
1, 16391, Note_on_c, 15, 75, 76
1, 16392, Control_c, 3, 11, 61
1, 16392, Pitch_bend_c, 3, 6116
1, 16392, Note_on_c, 9, 38, 50
1, 16392, Note_on_c, 9, 81, 24
1, 16392, Note_on_c, 15, 71, 78
1, 16393, Note_on_c, 15, 68, 0
1, 16395, Note_on_c, 3, 61, 0
1, 16396, Note_on_c, 9, 81, 0
1, 16396, Note_on_c, 9, 38, 0
1, 16396, Control_c, 3, 11, 53
1, 16396, Pitch_bend_c, 3, 5857
1, 16400, Control_c, 3, 11, 46
1, 16400, Pitch_bend_c, 3, 5597
1, 16402, Note_on_c, 12, 61, 0
1, 16402, Control_c, 3, 1, 55
1, 16405, Control_c, 3, 1, 52
1, 16409, Control_c, 3, 1, 48
1, 16411, Note_on_c, 0, 61, 0
1, 16412, Note_on_c, 15, 71, 0
1, 16413, Control_c, 3, 1, 40
1, 16415, Note_on_c, 15, 71, 76
1, 16416, Note_on_c, 0, 56, 52
1, 16416, Note_on_c, 1, 40, 92
1, 16416, Control_c, 3, 11, 127
1, 16416, Pitch_bend_c, 3, 8192
1, 16416, Note_on_c, 9, 36, 104
1, 16416, Note_on_c, 9, 38, 56
1, 16416, Note_on_c, 9, 37, 75
1, 16416, Note_on_c, 9, 40, 102
1, 16416, Note_on_c, 9, 39, 58
1, 16416, Note_on_c, 10, 40, 53
1, 16416, Note_on_c, 11, 40, 59
1, 16416, Note_on_c, 13, 85, 76
1, 16416, Note_on_c, 13, 73, 76
1, 16417, Note_on_c, 13, 87, 0
1, 16417, Note_on_c, 13, 75, 0
1, 16417, Note_on_c, 12, 56, 67
1, 16418, Control_c, 3, 1, 32
1, 16420, Note_on_c, 9, 39, 0
1, 16420, Note_on_c, 9, 38, 0
1, 16420, Note_on_c, 9, 40, 0
1, 16420, Note_on_c, 9, 37, 0
1, 16420, Note_on_c, 9, 36, 0
1, 16422, Control_c, 3, 1, 20
1, 16427, Control_c, 3, 1, 13
1, 16431, Control_c, 3, 1, 6
1, 16435, Control_c, 3, 1, 3
1, 16440, Control_c, 3, 1, 0
1, 16440, Note_on_c, 7, 37, 69
1, 16440, Note_on_c, 15, 80, 78
1, 16457, Note_on_c, 7, 37, 0
1, 16457, Note_on_c, 15, 71, 0
1, 16460, Note_on_c, 15, 75, 0
1, 16463, Note_on_c, 1, 40, 0
1, 16463, Note_on_c, 10, 40, 0
1, 16463, Note_on_c, 11, 40, 0
1, 16463, Note_on_c, 9, 39, 24
1, 16464, Note_on_c, 1, 44, 86
1, 16464, Note_on_c, 9, 36, 103
1, 16464, Note_on_c, 9, 81, 25
1, 16464, Note_on_c, 10, 44, 61
1, 16464, Note_on_c, 11, 44, 59
1, 16464, Note_on_c, 13, 80, 78
1, 16464, Note_on_c, 13, 68, 84
1, 16464, Note_on_c, 15, 61, 79
1, 16464, Note_on_c, 15, 71, 75
1, 16465, Note_on_c, 13, 85, 0
1, 16465, Note_on_c, 13, 73, 0
1, 16465, Note_on_c, 9, 42, 80
1, 16467, Note_on_c, 9, 39, 0
1, 16468, Note_on_c, 9, 81, 0
1, 16468, Note_on_c, 9, 36, 0
1, 16469, Note_on_c, 9, 42, 0
1, 16471, Note_on_c, 15, 80, 0
1, 16488, Note_on_c, 15, 83, 77
1, 16488, Note_on_c, 15, 56, 81
1, 16490, Note_on_c, 12, 56, 0
1, 16490, Note_on_c, 15, 61, 0
1, 16500, Note_on_c, 15, 71, 0
1, 16502, Note_on_c, 0, 56, 0
1, 16506, Note_on_c, 1, 44, 0
1, 16506, Note_on_c, 10, 44, 0
1, 16506, Note_on_c, 11, 44, 0
1, 16509, Note_on_c, 15, 56, 0
1, 16511, Note_on_c, 13, 68, 0
1, 16511, Note_on_c, 13, 80, 0
1, 16512, Note_on_c, 0, 57, 51
1, 16512, Note_on_c, 1, 42, 89
1, 16512, Note_on_c, 9, 36, 100
1, 16512, Note_on_c, 9, 49, 33
1, 16512, Note_on_c, 9, 81, 27
1, 16512, Note_on_c, 9, 42, 80
1, 16512, Note_on_c, 9, 84, 19
1, 16512, Note_on_c, 10, 42, 55
1, 16512, Note_on_c, 11, 42, 65
1, 16512, Note_on_c, 12, 57, 71
1, 16515, Note_on_c, 15, 83, 0
1, 16516, Note_on_c, 9, 84, 0
1, 16516, Note_on_c, 9, 49, 0
1, 16516, Note_on_c, 9, 36, 0
1, 16516, Note_on_c, 9, 42, 0
1, 16516, Note_on_c, 9, 81, 0
1, 16532, Pitch_bend_c, 12, 8582
1, 16533, Pitch_bend_c, 12, 11052
1, 16537, Pitch_bend_c, 0, 12482
1, 16537, Pitch_bend_c, 12, 13912
1, 16540, Pitch_bend_c, 0, 16382
1, 16540, Pitch_bend_c, 12, 16382
1, 16550, Note_on_c, 10, 42, 0
1, 16550, Note_on_c, 11, 42, 0
1, 16550, Note_on_c, 1, 42, 0
1, 16559, Note_on_c, 9, 81, 27
1, 16560, Note_on_c, 9, 42, 82
1, 16562, Pitch_bend_c, 12, 13782
1, 16563, Note_on_c, 9, 81, 0
1, 16564, Note_on_c, 9, 42, 0
1, 16565, Pitch_bend_c, 12, 10272
1, 16566, Pitch_bend_c, 0, 13912
1, 16568, Pitch_bend_c, 12, 8192
1, 16569, Pitch_bend_c, 0, 8192
1, 16607, Note_on_c, 9, 81, 30
1, 16608, Tempo, 645161
1, 16608, Note_on_c, 2, 66, 101
1, 16608, Note_on_c, 9, 69, 99
1, 16608, Note_on_c, 9, 84, 20
1, 16608, Lyric_t, "Must "
1, 16609, Note_on_c, 9, 39, 51
1, 16611, Note_on_c, 9, 81, 0
1, 16612, Note_on_c, 9, 69, 0
1, 16612, Note_on_c, 9, 84, 0
1, 16613, Note_on_c, 9, 39, 0
1, 16618, Note_on_c, 12, 57, 0
1, 16619, Note_on_c, 0, 57, 0
1, 16631, Note_on_c, 9, 81, 25
1, 16632, Note_on_c, 9, 42, 81
1, 16632, Note_on_c, 9, 69, 96
1, 16635, Note_on_c, 9, 81, 0
1, 16636, Note_on_c, 9, 69, 0
1, 16636, Note_on_c, 9, 42, 0
1, 16640, Note_on_c, 2, 66, 0
1, 16655, Pitch_bend_c, 2, 13652
1, 16655, Note_on_c, 9, 81, 22
1, 16656, Note_on_c, 2, 66, 98
1, 16656, Note_on_c, 5, 90, 88
1, 16656, Note_on_c, 9, 39, 23
1, 16656, Note_on_c, 9, 69, 100
1, 16656, Lyric_t, "you "
1, 16659, Note_on_c, 9, 81, 0
1, 16659, Pitch_bend_c, 2, 14822
1, 16660, Note_on_c, 9, 39, 0
1, 16660, Note_on_c, 9, 69, 0
1, 16662, Pitch_bend_c, 2, 16252
1, 16666, Pitch_bend_c, 2, 16382
1, 16673, Note_on_c, 5, 90, 0
1, 16680, Note_on_c, 9, 69, 93
1, 16684, Note_on_c, 9, 69, 0
1, 16686, Note_on_c, 2, 66, 0
1, 16687, Note_on_c, 5, 92, 84
1, 16702, Pitch_bend_c, 2, 8192
1, 16703, Note_on_c, 2, 66, 100
1, 16703, Note_on_c, 9, 84, 18
1, 16703, Lyric_t, "do "
1, 16704, Note_on_c, 5, 93, 82
1, 16704, Note_on_c, 9, 42, 75
1, 16704, Note_on_c, 9, 69, 97
1, 16704, Note_on_c, 9, 81, 25
1, 16707, Note_on_c, 9, 84, 0
1, 16708, Note_on_c, 9, 69, 0
1, 16708, Note_on_c, 5, 92, 0
1, 16708, Note_on_c, 9, 42, 0
1, 16708, Note_on_c, 9, 81, 0
1, 16723, Note_on_c, 5, 93, 0
1, 16728, Note_on_c, 9, 42, 56
1, 16728, Note_on_c, 9, 81, 31
1, 16732, Note_on_c, 9, 81, 0
1, 16732, Note_on_c, 9, 42, 0
1, 16738, Note_on_c, 2, 66, 0
1, 16751, Note_on_c, 2, 64, 96
1, 16751, Lyric_t, "the "
1, 16752, Note_on_c, 5, 90, 75
1, 16752, Note_on_c, 9, 81, 24
1, 16756, Note_on_c, 9, 81, 0
1, 16771, Note_on_c, 5, 90, 0
1, 16776, Note_on_c, 9, 42, 76
1, 16776, Note_on_c, 9, 81, 29
1, 16777, Note_on_c, 2, 64, 0
1, 16780, Note_on_c, 9, 81, 0
1, 16780, Note_on_c, 9, 42, 0
1, 16780, Note_on_c, 2, 61, 102
1, 16780, Lyric_t, "things "
1, 16783, Note_on_c, 5, 92, 71
1, 16799, Note_on_c, 2, 61, 0
1, 16799, Note_on_c, 9, 84, 23
1, 16800, Note_on_c, 5, 93, 69
1, 16800, Note_on_c, 9, 37, 81
1, 16800, Note_on_c, 9, 40, 101
1, 16800, Note_on_c, 9, 39, 54
1, 16803, Note_on_c, 9, 84, 0
1, 16804, Note_on_c, 9, 40, 0
1, 16804, Note_on_c, 9, 37, 0
1, 16804, Note_on_c, 5, 92, 0
1, 16804, Note_on_c, 9, 39, 0
1, 16819, Note_on_c, 5, 93, 0
1, 16825, Note_on_c, 2, 66, 102
1, 16825, Lyric_t, "you "
1, 16847, Note_on_c, 9, 39, 26
1, 16848, Note_on_c, 5, 90, 62
1, 16848, Note_on_c, 9, 42, 84
1, 16848, Note_on_c, 9, 81, 23
1, 16850, Note_on_c, 2, 66, 0
1, 16851, Note_on_c, 9, 39, 0
1, 16852, Note_on_c, 9, 42, 0
1, 16852, Note_on_c, 9, 81, 0
1, 16867, Note_on_c, 5, 90, 0
1, 16873, Note_on_c, 2, 66, 104
1, 16873, Lyric_t, "do, "
1, 16873, Lyric_t, "\015"
1, 16879, Note_on_c, 5, 92, 58
1, 16882, Control_c, 2, 1, 21
1, 16886, Control_c, 2, 1, 39
1, 16890, Control_c, 2, 1, 48
1, 16894, Control_c, 2, 1, 50
1, 16896, Note_on_c, 1, 42, 86
1, 16896, Note_on_c, 5, 93, 55
1, 16896, Note_on_c, 7, 42, 82
1, 16896, Note_on_c, 8, 54, 98
1, 16896, Note_on_c, 9, 36, 97
1, 16896, Note_on_c, 9, 81, 22
1, 16896, Note_on_c, 10, 42, 56
1, 16896, Note_on_c, 11, 42, 64
1, 16896, Note_on_c, 15, 66, 79
1, 16900, Note_on_c, 9, 81, 0
1, 16900, Note_on_c, 9, 36, 0
1, 16904, Note_on_c, 5, 92, 0
1, 16906, Control_c, 2, 1, 49
1, 16909, Control_c, 2, 1, 48
1, 16919, Note_on_c, 15, 57, 76
1, 16920, Control_c, 2, 1, 47
1, 16925, Note_on_c, 5, 93, 0
1, 16925, Control_c, 2, 1, 46
1, 16927, Note_on_c, 2, 66, 0
1, 16928, Control_c, 2, 1, 44
1, 16930, Control_c, 2, 1, 40
1, 16934, Note_on_c, 10, 42, 0
1, 16934, Note_on_c, 11, 42, 0
1, 16934, Note_on_c, 1, 42, 0
1, 16935, Control_c, 2, 1, 30
1, 16938, Note_on_c, 15, 57, 0
1, 16940, Control_c, 2, 1, 13
1, 16943, Note_on_c, 9, 81, 31
1, 16943, Note_on_c, 15, 61, 80
1, 16944, Control_c, 2, 1, 0
1, 16944, Note_on_c, 2, 66, 101
1, 16944, Lyric_t, "You "
1, 16947, Note_on_c, 9, 81, 0
1, 16964, Note_on_c, 7, 42, 0
1, 16967, Note_on_c, 15, 57, 77
1, 16968, Note_on_c, 7, 42, 68
1, 16968, Note_on_c, 9, 42, 80
1, 16972, Note_on_c, 9, 42, 0
1, 16975, Note_on_c, 2, 66, 0
1, 16987, Note_on_c, 15, 57, 0
1, 16988, Note_on_c, 15, 61, 0
1, 16991, Note_on_c, 7, 42, 0
1, 16991, Note_on_c, 6, 49, 75
1, 16991, Note_on_c, 9, 42, 78
1, 16991, Note_on_c, 9, 69, 94
1, 16991, Note_on_c, 9, 81, 25
1, 16991, Note_on_c, 15, 57, 80
1, 16991, Note_on_c, 15, 64, 72
1, 16992, Note_on_c, 1, 42, 88
1, 16992, Note_on_c, 2, 66, 97
1, 16992, Note_on_c, 9, 36, 100
1, 16992, Note_on_c, 9, 37, 81
1, 16992, Note_on_c, 9, 40, 103
1, 16992, Note_on_c, 10, 42, 54
1, 16992, Note_on_c, 11, 42, 66
1, 16992, Lyric_t, "keep "
1, 16993, Note_on_c, 9, 39, 51
1, 16995, Note_on_c, 9, 81, 0
1, 16995, Note_on_c, 9, 42, 0
1, 16995, Note_on_c, 9, 69, 0
1, 16996, Note_on_c, 9, 36, 0
1, 16996, Note_on_c, 9, 40, 0
1, 16996, Note_on_c, 9, 37, 0
1, 16997, Note_on_c, 9, 39, 0
1, 17005, Note_on_c, 15, 57, 0
1, 17010, Note_on_c, 15, 64, 0
1, 17010, Note_on_c, 15, 66, 0
1, 17015, Note_on_c, 9, 81, 29
1, 17016, Note_on_c, 6, 49, 0
1, 17016, Note_on_c, 15, 68, 73
1, 17019, Note_on_c, 9, 81, 0
1, 17024, Note_on_c, 10, 42, 0
1, 17024, Note_on_c, 1, 42, 0
1, 17024, Note_on_c, 11, 42, 0
1, 17026, Note_on_c, 2, 66, 0
1, 17029, Note_on_c, 8, 54, 0
1, 17037, Note_on_c, 15, 68, 0
1, 17039, Note_on_c, 2, 68, 102
1, 17039, Note_on_c, 8, 57, 104
1, 17039, Note_on_c, 9, 69, 100
1, 17039, Note_on_c, 9, 81, 26
1, 17039, Note_on_c, 9, 42, 82
1, 17039, Lyric_t, "on "
1, 17040, Note_on_c, 6, 47, 75
1, 17040, Note_on_c, 7, 42, 69
1, 17040, Note_on_c, 9, 39, 29
1, 17040, Note_on_c, 15, 57, 80
1, 17043, Note_on_c, 9, 42, 0
1, 17043, Note_on_c, 9, 81, 0
1, 17043, Note_on_c, 9, 69, 0
1, 17044, Note_on_c, 9, 39, 0
1, 17056, Note_on_c, 15, 57, 0
1, 17059, Note_on_c, 8, 57, 0
1, 17061, Note_on_c, 7, 42, 0
1, 17062, Note_on_c, 6, 47, 0
1, 17063, Note_on_c, 15, 69, 78
1, 17069, Note_on_c, 2, 68, 0
1, 17072, Note_on_c, 9, 40, 81
1, 17076, Note_on_c, 9, 40, 0
1, 17082, Note_on_c, 15, 69, 0
1, 17087, Note_on_c, 2, 69, 98
1, 17087, Note_on_c, 8, 57, 97
1, 17087, Note_on_c, 9, 42, 80
1, 17087, Lyric_t, "act"
1, 17088, Note_on_c, 1, 42, 91
1, 17088, Note_on_c, 6, 49, 72
1, 17088, Note_on_c, 9, 36, 102
1, 17088, Note_on_c, 9, 81, 24
1, 17088, Note_on_c, 10, 42, 61
1, 17088, Note_on_c, 11, 42, 60
1, 17088, Note_on_c, 15, 57, 78
1, 17091, Note_on_c, 9, 42, 0
1, 17092, Note_on_c, 9, 81, 0
1, 17092, Note_on_c, 9, 36, 0
1, 17092, Pitch_bend_c, 2, 9102
1, 17093, Pitch_bend_c, 2, 11442
1, 17096, Pitch_bend_c, 2, 14562
1, 17100, Pitch_bend_c, 2, 16382
1, 17107, Note_on_c, 15, 57, 0
1, 17107, Note_on_c, 8, 57, 0
1, 17112, Note_on_c, 9, 42, 52
1, 17112, Note_on_c, 9, 81, 23
1, 17112, Note_on_c, 15, 64, 81
1, 17114, Note_on_c, 2, 69, 0
1, 17116, Note_on_c, 9, 81, 0
1, 17116, Note_on_c, 9, 42, 0
1, 17117, Note_on_c, 6, 49, 0
1, 17118, Note_on_c, 1, 42, 0
1, 17118, Note_on_c, 11, 42, 0
1, 17118, Note_on_c, 10, 42, 0
1, 17120, Pitch_bend_c, 2, 15472
1, 17121, Pitch_bend_c, 2, 7040
1, 17125, Pitch_bend_c, 2, 8192
1, 17130, Note_on_c, 15, 64, 0
1, 17135, Note_on_c, 2, 68, 100
1, 17135, Note_on_c, 8, 57, 95
1, 17135, Note_on_c, 9, 69, 94
1, 17135, Note_on_c, 15, 57, 73
1, 17135, Lyric_t, "ing "
1, 17136, Note_on_c, 7, 42, 74
1, 17136, Note_on_c, 9, 81, 30
1, 17139, Note_on_c, 9, 69, 0
1, 17140, Note_on_c, 9, 81, 0
1, 17147, Note_on_c, 7, 42, 0
1, 17147, Note_on_c, 2, 68, 0
1, 17153, Note_on_c, 15, 57, 0
1, 17154, Note_on_c, 8, 57, 0
1, 17160, Note_on_c, 2, 66, 104
1, 17160, Note_on_c, 9, 81, 23
1, 17160, Note_on_c, 15, 61, 81
1, 17160, Lyric_t, "like "
1, 17164, Note_on_c, 9, 81, 0
1, 17180, Note_on_c, 15, 61, 0
1, 17180, Note_on_c, 2, 66, 0
1, 17183, Note_on_c, 8, 54, 99
1, 17183, Note_on_c, 15, 54, 72
1, 17184, Note_on_c, 1, 44, 89
1, 17184, Note_on_c, 9, 36, 95
1, 17184, Note_on_c, 9, 37, 72
1, 17184, Note_on_c, 9, 40, 100
1, 17184, Note_on_c, 9, 39, 55
1, 17184, Note_on_c, 10, 44, 60
1, 17184, Note_on_c, 11, 44, 68
1, 17188, Note_on_c, 9, 39, 0
1, 17188, Note_on_c, 9, 36, 0
1, 17188, Note_on_c, 9, 40, 0
1, 17188, Note_on_c, 9, 37, 0
1, 17207, Note_on_c, 15, 61, 79
1, 17208, Note_on_c, 2, 64, 101
1, 17208, Lyric_t, "a "
1, 17228, Note_on_c, 10, 44, 0
1, 17228, Note_on_c, 11, 44, 0
1, 17228, Note_on_c, 1, 44, 0
1, 17230, Note_on_c, 15, 61, 0
1, 17230, Note_on_c, 15, 64, 74
1, 17231, Note_on_c, 15, 54, 0
1, 17231, Note_on_c, 9, 39, 21
1, 17232, Note_on_c, 1, 39, 88
1, 17232, Note_on_c, 9, 36, 100
1, 17232, Note_on_c, 9, 81, 27
1, 17232, Note_on_c, 11, 39, 60
1, 17233, Note_on_c, 9, 42, 76
1, 17234, Note_on_c, 10, 39, 55
1, 17235, Note_on_c, 9, 39, 0
1, 17236, Note_on_c, 9, 81, 0
1, 17236, Note_on_c, 9, 36, 0
1, 17237, Note_on_c, 9, 42, 0
1, 17252, Pitch_bend_c, 2, 8222
1, 17255, Note_on_c, 15, 64, 0
1, 17255, Note_on_c, 15, 68, 77
1, 17256, Pitch_bend_c, 2, 8038
1, 17260, Pitch_bend_c, 2, 7854
1, 17264, Pitch_bend_c, 2, 7547
1, 17268, Note_on_c, 8, 54, 0
1, 17268, Pitch_bend_c, 2, 7041
1, 17272, Note_on_c, 15, 68, 0
1, 17272, Pitch_bend_c, 2, 6535
1, 17274, Note_on_c, 1, 39, 0
1, 17274, Note_on_c, 11, 39, 0
1, 17274, Note_on_c, 2, 64, 0
1, 17276, Note_on_c, 10, 39, 0
1, 17276, Pitch_bend_c, 2, 6029
1, 17280, Note_on_c, 1, 37, 91
1, 17280, Pitch_bend_c, 2, 8192
1, 17280, Note_on_c, 2, 59, 100
1, 17280, Note_on_c, 9, 36, 98
1, 17280, Note_on_c, 9, 49, 35
1, 17280, Note_on_c, 9, 81, 28
1, 17280, Note_on_c, 9, 42, 80
1, 17280, Note_on_c, 9, 84, 23
1, 17280, Note_on_c, 10, 37, 58
1, 17280, Note_on_c, 11, 37, 67
1, 17280, Note_on_c, 15, 49, 79
1, 17280, Lyric_t, "fool, "
1, 17280, Lyric_t, "\015"
1, 17280, Lyric_t, "\012"
1, 17284, Note_on_c, 9, 84, 0
1, 17284, Note_on_c, 9, 49, 0
1, 17284, Note_on_c, 9, 36, 0
1, 17284, Note_on_c, 9, 42, 0
1, 17284, Note_on_c, 9, 81, 0
1, 17303, Note_on_c, 2, 57, 75
1, 17303, Note_on_c, 15, 56, 80
1, 17304, Note_on_c, 8, 56, 103
1, 17305, Note_on_c, 2, 59, 0
1, 17318, Note_on_c, 8, 56, 0
1, 17318, Note_on_c, 2, 57, 0
1, 17319, Note_on_c, 2, 56, 55
1, 17324, Note_on_c, 15, 56, 0
1, 17327, Note_on_c, 9, 81, 24
1, 17327, Note_on_c, 15, 59, 76
1, 17328, Note_on_c, 9, 42, 84
1, 17331, Note_on_c, 9, 81, 0
1, 17332, Note_on_c, 9, 42, 0
1, 17333, Note_on_c, 10, 37, 0
1, 17333, Note_on_c, 1, 37, 0
1, 17333, Note_on_c, 11, 37, 0
1, 17335, Note_on_c, 2, 56, 0
1, 17351, Note_on_c, 15, 56, 78
1, 17352, Note_on_c, 8, 56, 99
1, 17355, Note_on_c, 15, 59, 0
1, 17369, Note_on_c, 8, 56, 0
1, 17372, Note_on_c, 15, 56, 0
1, 17375, Note_on_c, 6, 49, 75
1, 17375, Note_on_c, 9, 81, 31
1, 17375, Note_on_c, 15, 63, 75
1, 17376, Tempo, 652174
1, 17376, Note_on_c, 1, 37, 92
1, 17376, Note_on_c, 2, 59, 101
1, 17376, Note_on_c, 9, 36, 99
1, 17376, Note_on_c, 9, 37, 81
1, 17376, Note_on_c, 9, 40, 100
1, 17376, Note_on_c, 9, 69, 93
1, 17376, Note_on_c, 9, 84, 23
1, 17376, Note_on_c, 10, 37, 61
1, 17376, Note_on_c, 11, 37, 59
1, 17376, Lyric_t, "You "
1, 17377, Note_on_c, 9, 39, 52
1, 17379, Note_on_c, 9, 81, 0
1, 17380, Note_on_c, 9, 84, 0
1, 17380, Note_on_c, 9, 37, 0
1, 17380, Note_on_c, 9, 69, 0
1, 17380, Note_on_c, 9, 40, 0
1, 17380, Note_on_c, 9, 36, 0
1, 17381, Note_on_c, 9, 39, 0
1, 17387, Note_on_c, 2, 59, 0
1, 17397, Note_on_c, 15, 63, 0
1, 17399, Note_on_c, 6, 49, 0
1, 17399, Note_on_c, 8, 56, 98
1, 17399, Note_on_c, 9, 81, 28
1, 17399, Note_on_c, 15, 56, 75
1, 17400, Note_on_c, 2, 61, 59
1, 17400, Note_on_c, 9, 42, 76
1, 17400, Note_on_c, 9, 69, 96
1, 17400, Lyric_t, "need "
1, 17403, Note_on_c, 9, 81, 0
1, 17404, Note_on_c, 9, 69, 0
1, 17404, Note_on_c, 9, 42, 0
1, 17406, Note_on_c, 1, 37, 0
1, 17406, Note_on_c, 10, 37, 0
1, 17406, Note_on_c, 11, 37, 0
1, 17412, Note_on_c, 2, 61, 0
1, 17417, Note_on_c, 8, 56, 0
1, 17420, Note_on_c, 15, 56, 0
1, 17423, Note_on_c, 2, 63, 99
1, 17423, Note_on_c, 9, 81, 30
1, 17423, Note_on_c, 15, 59, 77
1, 17423, Lyric_t, "to "
1, 17424, Note_on_c, 5, 88, 86
1, 17424, Note_on_c, 6, 47, 74
1, 17424, Note_on_c, 9, 39, 21
1, 17424, Note_on_c, 9, 69, 98
1, 17427, Note_on_c, 9, 81, 0
1, 17428, Note_on_c, 9, 69, 0
1, 17428, Note_on_c, 9, 39, 0
1, 17442, Note_on_c, 5, 88, 0
1, 17447, Note_on_c, 15, 59, 0
1, 17447, Note_on_c, 8, 56, 95
1, 17447, Note_on_c, 15, 56, 75
1, 17448, Note_on_c, 6, 47, 0
1, 17448, Note_on_c, 9, 69, 100
1, 17452, Note_on_c, 9, 69, 0
1, 17456, Note_on_c, 5, 90, 82
1, 17460, Note_on_c, 2, 63, 0
1, 17466, Note_on_c, 8, 56, 0
1, 17471, Note_on_c, 1, 37, 85
1, 17471, Note_on_c, 2, 63, 98
1, 17471, Note_on_c, 5, 92, 81
1, 17471, Note_on_c, 9, 36, 102
1, 17471, Note_on_c, 9, 84, 22
1, 17471, Note_on_c, 10, 37, 58
1, 17471, Note_on_c, 11, 37, 66
1, 17471, Note_on_c, 15, 63, 79
1, 17471, Lyric_t, "know "
1, 17472, Note_on_c, 15, 56, 0
1, 17472, Note_on_c, 6, 49, 74
1, 17472, Note_on_c, 9, 42, 75
1, 17472, Note_on_c, 9, 69, 95
1, 17472, Note_on_c, 9, 81, 30
1, 17473, Note_on_c, 5, 90, 0
1, 17475, Note_on_c, 9, 84, 0
1, 17475, Note_on_c, 9, 36, 0
1, 17476, Note_on_c, 9, 42, 0
1, 17476, Note_on_c, 9, 69, 0
1, 17476, Note_on_c, 9, 81, 0
1, 17480, Control_c, 2, 1, 23
1, 17484, Control_c, 2, 1, 48
1, 17486, Note_on_c, 5, 92, 0
1, 17489, Control_c, 2, 1, 58
1, 17490, Note_on_c, 15, 63, 0
1, 17493, Control_c, 2, 1, 63
1, 17494, Pitch_bend_c, 2, 7424
1, 17495, Note_on_c, 8, 56, 98
1, 17495, Note_on_c, 15, 56, 72
1, 17496, Pitch_bend_c, 2, 5376
1, 17496, Note_on_c, 9, 42, 55
1, 17496, Note_on_c, 9, 81, 30
1, 17499, Pitch_bend_c, 2, 3328
1, 17499, Control_c, 2, 1, 60
1, 17500, Note_on_c, 9, 81, 0
1, 17500, Note_on_c, 9, 42, 0
1, 17502, Note_on_c, 6, 49, 0
1, 17502, Control_c, 2, 1, 49
1, 17502, Pitch_bend_c, 2, 640
1, 17506, Pitch_bend_c, 2, 0
1, 17506, Control_c, 2, 1, 30
1, 17508, Note_on_c, 11, 37, 0
1, 17508, Note_on_c, 1, 37, 0
1, 17508, Note_on_c, 10, 37, 0
1, 17509, Note_on_c, 15, 56, 0
1, 17511, Note_on_c, 2, 63, 0
1, 17511, Control_c, 2, 1, 10
1, 17514, Note_on_c, 8, 56, 0
1, 17515, Control_c, 2, 1, 0
1, 17519, Note_on_c, 15, 56, 79
1, 17519, Note_on_c, 15, 61, 77
1, 17520, Pitch_bend_c, 2, 8192
1, 17520, Note_on_c, 2, 61, 104
1, 17520, Note_on_c, 5, 88, 75
1, 17520, Note_on_c, 9, 81, 22
1, 17520, Lyric_t, "it's "
1, 17524, Note_on_c, 9, 81, 0
1, 17530, Note_on_c, 15, 61, 0
1, 17532, Note_on_c, 2, 61, 0
1, 17533, Note_on_c, 15, 56, 0
1, 17535, Note_on_c, 5, 88, 0
1, 17543, Note_on_c, 15, 56, 77
1, 17543, Note_on_c, 15, 64, 72
1, 17544, Note_on_c, 2, 61, 99
1, 17544, Note_on_c, 8, 56, 95
1, 17544, Note_on_c, 9, 42, 84
1, 17544, Note_on_c, 9, 81, 26
1, 17544, Lyric_t, "me "
1, 17548, Note_on_c, 9, 81, 0
1, 17548, Note_on_c, 9, 42, 0
1, 17552, Note_on_c, 5, 90, 72
1, 17557, Note_on_c, 8, 56, 0
1, 17559, Note_on_c, 15, 64, 0
1, 17563, Note_on_c, 2, 61, 0
1, 17565, Note_on_c, 5, 90, 0
1, 17567, Note_on_c, 5, 92, 70
1, 17568, Note_on_c, 1, 37, 87
1, 17568, Note_on_c, 8, 56, 103
1, 17568, Note_on_c, 9, 36, 102
1, 17568, Note_on_c, 9, 37, 81
1, 17568, Note_on_c, 9, 40, 100
1, 17568, Note_on_c, 9, 39, 54
1, 17568, Note_on_c, 9, 84, 23
1, 17568, Note_on_c, 10, 37, 55
1, 17568, Note_on_c, 11, 37, 67
1, 17571, Note_on_c, 15, 49, 0
1, 17572, Note_on_c, 9, 84, 0
1, 17572, Note_on_c, 9, 40, 0
1, 17572, Note_on_c, 9, 39, 0
1, 17572, Note_on_c, 9, 37, 0
1, 17572, Note_on_c, 9, 36, 0
1, 17581, Note_on_c, 5, 92, 0
1, 17583, Note_on_c, 15, 56, 0
1, 17591, Note_on_c, 15, 66, 74
1, 17592, Note_on_c, 2, 59, 101
1, 17592, Lyric_t, "not "
1, 17594, Note_on_c, 8, 56, 0
1, 17601, Note_on_c, 1, 37, 0
1, 17601, Note_on_c, 10, 37, 0
1, 17601, Note_on_c, 11, 37, 0
1, 17613, Note_on_c, 2, 59, 0
1, 17615, Note_on_c, 5, 88, 65
1, 17615, Note_on_c, 8, 56, 95
1, 17615, Note_on_c, 9, 39, 29
1, 17615, Note_on_c, 15, 56, 79
1, 17616, Note_on_c, 9, 42, 75
1, 17616, Note_on_c, 9, 81, 27
1, 17617, Note_on_c, 15, 66, 0
1, 17619, Note_on_c, 9, 39, 0
1, 17620, Note_on_c, 9, 42, 0
1, 17620, Note_on_c, 9, 81, 0
1, 17630, Note_on_c, 5, 88, 0
1, 17638, Note_on_c, 8, 56, 0
1, 17640, Note_on_c, 15, 56, 0
1, 17640, Note_on_c, 2, 61, 97
1, 17640, Lyric_t, "you, "
1, 17640, Lyric_t, "\015"
1, 17643, Control_c, 2, 1, 9
1, 17646, Control_c, 2, 1, 29
1, 17648, Note_on_c, 5, 90, 61
1, 17650, Control_c, 2, 1, 45
1, 17655, Control_c, 2, 1, 55
1, 17659, Note_on_c, 5, 90, 0
1, 17659, Control_c, 2, 1, 60
1, 17663, Note_on_c, 5, 92, 60
1, 17664, Note_on_c, 1, 37, 92
1, 17664, Control_c, 2, 1, 62
1, 17664, Note_on_c, 7, 37, 89
1, 17664, Note_on_c, 9, 36, 95
1, 17664, Note_on_c, 9, 81, 24
1, 17664, Note_on_c, 10, 37, 58
1, 17664, Note_on_c, 11, 37, 60
1, 17664, Note_on_c, 15, 59, 77
1, 17668, Note_on_c, 9, 81, 0
1, 17668, Note_on_c, 9, 36, 0
1, 17677, Note_on_c, 5, 92, 0
1, 17687, Note_on_c, 2, 61, 0
1, 17687, Note_on_c, 15, 64, 81
1, 17688, Control_c, 2, 1, 60
1, 17688, Note_on_c, 8, 64, 102
1, 17692, Control_c, 2, 1, 58
1, 17695, Control_c, 2, 1, 52
1, 17697, Note_on_c, 15, 59, 0
1, 17700, Control_c, 2, 1, 37
1, 17705, Note_on_c, 8, 64, 0
1, 17705, Control_c, 2, 1, 19
1, 17709, Control_c, 2, 1, 0
1, 17711, Note_on_c, 9, 81, 24
1, 17712, Note_on_c, 15, 64, 0
1, 17712, Note_on_c, 15, 59, 72
1, 17715, Note_on_c, 9, 81, 0
1, 17717, Note_on_c, 1, 37, 0
1, 17717, Note_on_c, 10, 37, 0
1, 17717, Note_on_c, 11, 37, 0
1, 17730, Note_on_c, 7, 37, 0
1, 17735, Note_on_c, 15, 61, 79
1, 17736, Note_on_c, 2, 59, 96
1, 17736, Note_on_c, 7, 37, 69
1, 17736, Note_on_c, 8, 63, 101
1, 17736, Note_on_c, 9, 42, 78
1, 17736, Lyric_t, "Well, "
1, 17740, Note_on_c, 9, 42, 0
1, 17742, Note_on_c, 2, 59, 0
1, 17746, Note_on_c, 15, 59, 0
1, 17753, Note_on_c, 8, 63, 0
1, 17754, Note_on_c, 15, 61, 0
1, 17759, Note_on_c, 6, 49, 76
1, 17759, Note_on_c, 9, 42, 84
1, 17759, Note_on_c, 9, 69, 99
1, 17759, Note_on_c, 9, 81, 24
1, 17760, Note_on_c, 1, 37, 93
1, 17760, Note_on_c, 2, 59, 99
1, 17760, Note_on_c, 9, 36, 96
1, 17760, Note_on_c, 9, 37, 76
1, 17760, Note_on_c, 9, 40, 98
1, 17760, Note_on_c, 10, 37, 53
1, 17760, Note_on_c, 11, 37, 62
1, 17760, Note_on_c, 15, 64, 81
1, 17760, Lyric_t, "if "
1, 17761, Note_on_c, 9, 39, 55
1, 17763, Note_on_c, 9, 81, 0
1, 17763, Note_on_c, 9, 69, 0
1, 17763, Note_on_c, 9, 42, 0
1, 17764, Note_on_c, 9, 37, 0
1, 17764, Note_on_c, 9, 36, 0
1, 17764, Note_on_c, 9, 40, 0
1, 17765, Note_on_c, 9, 39, 0
1, 17766, Note_on_c, 7, 37, 0
1, 17776, Note_on_c, 2, 59, 0
1, 17783, Note_on_c, 2, 61, 98
1, 17783, Note_on_c, 9, 81, 31
1, 17783, Note_on_c, 15, 68, 76
1, 17783, Lyric_t, "you "
1, 17784, Note_on_c, 6, 49, 0
1, 17784, Note_on_c, 8, 63, 96
1, 17787, Note_on_c, 9, 81, 0
1, 17794, Note_on_c, 15, 64, 0
1, 17798, Note_on_c, 1, 37, 0
1, 17798, Note_on_c, 11, 37, 0
1, 17798, Note_on_c, 10, 37, 0
1, 17798, Note_on_c, 2, 61, 0
1, 17801, Note_on_c, 8, 63, 0
1, 17807, Note_on_c, 2, 63, 102
1, 17807, Note_on_c, 9, 69, 97
1, 17807, Note_on_c, 9, 81, 26
1, 17807, Note_on_c, 9, 42, 82
1, 17807, Note_on_c, 15, 63, 77
1, 17807, Lyric_t, "did"
1, 17808, Pitch_bend_c, 2, 5215
1, 17808, Note_on_c, 6, 47, 77
1, 17808, Note_on_c, 9, 39, 23
1, 17811, Note_on_c, 9, 42, 0
1, 17811, Note_on_c, 9, 81, 0
1, 17811, Note_on_c, 9, 69, 0
1, 17812, Note_on_c, 9, 39, 0
1, 17812, Pitch_bend_c, 2, 5927
1, 17816, Pitch_bend_c, 2, 6639
1, 17820, Pitch_bend_c, 2, 7350
1, 17824, Pitch_bend_c, 2, 8192
1, 17829, Note_on_c, 2, 63, 0
1, 17830, Note_on_c, 6, 47, 0
1, 17831, Note_on_c, 2, 61, 100
1, 17831, Note_on_c, 15, 64, 75
1, 17831, Lyric_t, "n't "
1, 17832, Note_on_c, 8, 64, 100
1, 17840, Note_on_c, 9, 40, 73
1, 17841, Note_on_c, 2, 61, 0
1, 17844, Note_on_c, 9, 40, 0
1, 17847, Note_on_c, 8, 64, 0
1, 17847, Note_on_c, 15, 63, 0
1, 17852, Note_on_c, 15, 68, 0
1, 17852, Pitch_bend_c, 2, 3865
1, 17853, Note_on_c, 15, 64, 0
1, 17855, Note_on_c, 1, 37, 87
1, 17855, Note_on_c, 2, 63, 102
1, 17855, Note_on_c, 9, 42, 81
1, 17855, Note_on_c, 9, 36, 103
1, 17855, Note_on_c, 10, 37, 57
1, 17855, Note_on_c, 11, 37, 59
1, 17855, Note_on_c, 15, 71, 73
1, 17855, Lyric_t, "know "
1, 17856, Pitch_bend_c, 2, 4822
1, 17856, Note_on_c, 6, 49, 72
1, 17856, Note_on_c, 9, 81, 28
1, 17859, Note_on_c, 9, 36, 0
1, 17859, Note_on_c, 9, 42, 0
1, 17860, Note_on_c, 9, 81, 0
1, 17860, Pitch_bend_c, 2, 5779
1, 17864, Pitch_bend_c, 2, 6737
1, 17868, Pitch_bend_c, 2, 7694
1, 17872, Pitch_bend_c, 2, 8192
1, 17875, Note_on_c, 2, 63, 0
1, 17879, Note_on_c, 2, 61, 104
1, 17879, Note_on_c, 8, 64, 98
1, 17879, Note_on_c, 9, 38, 56
1, 17879, Note_on_c, 15, 64, 80
1, 17879, Lyric_t, "it, "
1, 17880, Note_on_c, 9, 42, 61
1, 17880, Note_on_c, 9, 81, 30
1, 17883, Note_on_c, 9, 38, 0
1, 17884, Note_on_c, 9, 81, 0
1, 17884, Note_on_c, 9, 42, 0
1, 17885, Note_on_c, 6, 49, 0
1, 17892, Note_on_c, 1, 37, 0
1, 17892, Note_on_c, 10, 37, 0
1, 17892, Note_on_c, 11, 37, 0
1, 17899, Note_on_c, 8, 64, 0
1, 17899, Note_on_c, 2, 61, 0
1, 17903, Note_on_c, 9, 69, 94
1, 17903, Note_on_c, 15, 68, 73
1, 17904, Note_on_c, 7, 37, 72
1, 17904, Note_on_c, 9, 38, 58
1, 17904, Note_on_c, 9, 81, 27
1, 17906, Note_on_c, 15, 64, 0
1, 17906, Note_on_c, 15, 71, 0
1, 17907, Note_on_c, 9, 69, 0
1, 17908, Note_on_c, 9, 81, 0
1, 17908, Note_on_c, 9, 38, 0
1, 17921, Note_on_c, 7, 37, 0
1, 17927, Note_on_c, 15, 75, 74
1, 17928, Note_on_c, 2, 61, 99
1, 17928, Note_on_c, 9, 38, 52
1, 17928, Note_on_c, 9, 81, 31
1, 17928, Note_on_c, 15, 71, 75
1, 17928, Lyric_t, "girl "
1, 17929, Note_on_c, 15, 68, 0
1, 17932, Note_on_c, 9, 81, 0
1, 17932, Note_on_c, 9, 38, 0
1, 17948, Note_on_c, 15, 71, 0
1, 17948, Pitch_bend_c, 2, 8038
1, 17951, Note_on_c, 15, 71, 77
1, 17952, Note_on_c, 1, 40, 86
1, 17952, Pitch_bend_c, 2, 7535
1, 17952, Note_on_c, 9, 36, 99
1, 17952, Note_on_c, 9, 38, 53
1, 17952, Note_on_c, 9, 37, 74
1, 17952, Note_on_c, 9, 40, 97
1, 17952, Note_on_c, 9, 39, 53
1, 17952, Note_on_c, 10, 40, 53
1, 17952, Note_on_c, 11, 40, 60
1, 17956, Note_on_c, 9, 39, 0
1, 17956, Note_on_c, 9, 40, 0
1, 17956, Note_on_c, 9, 37, 0
1, 17956, Note_on_c, 9, 38, 0
1, 17956, Note_on_c, 9, 36, 0
1, 17956, Pitch_bend_c, 2, 7032
1, 17960, Note_on_c, 2, 61, 0
1, 17960, Pitch_bend_c, 2, 6529
1, 17964, Pitch_bend_c, 2, 6026
1, 17976, Pitch_bend_c, 2, 8192
1, 17976, Note_on_c, 2, 59, 99
1, 17976, Note_on_c, 7, 37, 68
1, 17976, Note_on_c, 15, 80, 80
1, 17976, Lyric_t, "it's "
1, 17993, Note_on_c, 7, 37, 0
1, 17993, Note_on_c, 15, 71, 0
1, 17996, Note_on_c, 15, 75, 0
1, 17999, Note_on_c, 10, 40, 0
1, 17999, Note_on_c, 11, 40, 0
1, 17999, Note_on_c, 1, 40, 0
1, 17999, Note_on_c, 9, 39, 30
1, 18000, Note_on_c, 1, 44, 87
1, 18000, Note_on_c, 9, 36, 96
1, 18000, Note_on_c, 9, 81, 31
1, 18000, Note_on_c, 10, 44, 57
1, 18000, Note_on_c, 11, 44, 64
1, 18000, Note_on_c, 15, 61, 78
1, 18000, Note_on_c, 15, 71, 76
1, 18001, Note_on_c, 9, 42, 82
1, 18003, Note_on_c, 9, 39, 0
1, 18004, Note_on_c, 9, 36, 0
1, 18004, Note_on_c, 9, 81, 0
1, 18005, Note_on_c, 9, 42, 0
1, 18006, Note_on_c, 2, 59, 0
1, 18007, Note_on_c, 15, 80, 0
1, 18018, Pitch_bend_c, 2, 16383
1, 18024, Note_on_c, 2, 59, 98
1, 18024, Note_on_c, 15, 83, 72
1, 18024, Note_on_c, 15, 56, 75
1, 18024, Lyric_t, "true. "
1, 18024, Lyric_t, "\015"
1, 18024, Lyric_t, "\012"
1, 18026, Note_on_c, 15, 61, 0
1, 18036, Note_on_c, 15, 71, 0
1, 18042, Note_on_c, 1, 44, 0
1, 18042, Note_on_c, 10, 44, 0
1, 18042, Note_on_c, 11, 44, 0
1, 18045, Note_on_c, 15, 56, 0
1, 18048, Note_on_c, 1, 42, 90
1, 18048, Note_on_c, 8, 54, 96
1, 18048, Note_on_c, 9, 36, 97
1, 18048, Note_on_c, 9, 49, 30
1, 18048, Note_on_c, 9, 81, 22
1, 18048, Note_on_c, 9, 42, 79
1, 18048, Note_on_c, 9, 84, 21
1, 18048, Note_on_c, 10, 42, 57
1, 18048, Note_on_c, 11, 42, 66
1, 18048, Note_on_c, 15, 54, 76
1, 18051, Note_on_c, 15, 83, 0
1, 18052, Note_on_c, 9, 84, 0
1, 18052, Note_on_c, 9, 42, 0
1, 18052, Note_on_c, 9, 36, 0
1, 18052, Note_on_c, 9, 81, 0
1, 18052, Note_on_c, 9, 49, 0
1, 18068, Pitch_bend_c, 2, 10012
1, 18069, Pitch_bend_c, 2, 8192
1, 18072, Note_on_c, 15, 57, 75
1, 18086, Note_on_c, 10, 42, 0
1, 18086, Note_on_c, 11, 42, 0
1, 18086, Note_on_c, 1, 42, 0
1, 18093, Note_on_c, 15, 57, 0
1, 18095, Pitch_bend_c, 2, 0
1, 18095, Control_c, 2, 1, 3
1, 18095, Note_on_c, 9, 81, 31
1, 18096, Control_c, 2, 1, 35
1, 18096, Note_on_c, 9, 42, 76
1, 18096, Note_on_c, 15, 61, 74
1, 18099, Note_on_c, 9, 81, 0
1, 18100, Note_on_c, 9, 42, 0
1, 18101, Control_c, 2, 1, 51
1, 18105, Control_c, 2, 1, 62
1, 18108, Control_c, 3, 11, 127
1, 18110, Control_c, 2, 1, 67
1, 18114, Control_c, 2, 1, 69
1, 18118, Control_c, 2, 1, 70
1, 18120, Note_on_c, 3, 64, 101
1, 18120, Note_on_c, 15, 64, 78
1, 18120, Lyric_t, "I "
1, 18124, Note_on_c, 15, 61, 0
1, 18134, Note_on_c, 3, 64, 0
1, 18143, Note_on_c, 6, 49, 75
1, 18143, Note_on_c, 9, 81, 31
1, 18144, Tempo, 652174
1, 18144, Note_on_c, 15, 64, 0
1, 18144, Note_on_c, 1, 42, 88
1, 18144, Control_c, 2, 11, 127
1, 18144, Note_on_c, 3, 64, 97
1, 18144, Note_on_c, 9, 36, 103
1, 18144, Note_on_c, 9, 37, 74
1, 18144, Note_on_c, 9, 40, 99
1, 18144, Note_on_c, 9, 69, 93
1, 18144, Note_on_c, 9, 84, 18
1, 18144, Note_on_c, 10, 42, 58
1, 18144, Note_on_c, 11, 42, 61
1, 18144, Note_on_c, 15, 68, 75
1, 18144, Lyric_t, "think "
1, 18145, Note_on_c, 9, 39, 55
1, 18147, Note_on_c, 9, 81, 0
1, 18148, Note_on_c, 9, 69, 0
1, 18148, Note_on_c, 9, 36, 0
1, 18148, Note_on_c, 9, 40, 0
1, 18148, Note_on_c, 9, 37, 0
1, 18148, Note_on_c, 9, 84, 0
1, 18148, Control_c, 2, 11, 120
1, 18149, Note_on_c, 9, 39, 0
1, 18152, Control_c, 2, 11, 113
1, 18156, Control_c, 2, 11, 106
1, 18160, Control_c, 2, 11, 99
1, 18164, Control_c, 2, 11, 92
1, 18164, Control_c, 2, 1, 69
1, 18167, Note_on_c, 6, 49, 0
1, 18167, Note_on_c, 9, 81, 24
1, 18168, Control_c, 2, 11, 78
1, 18168, Note_on_c, 9, 42, 84
1, 18168, Note_on_c, 9, 69, 96
1, 18168, Note_on_c, 15, 64, 79
1, 18171, Note_on_c, 9, 81, 0
1, 18171, Note_on_c, 15, 68, 0
1, 18172, Note_on_c, 9, 69, 0
1, 18172, Note_on_c, 9, 42, 0
1, 18176, Note_on_c, 1, 42, 0
1, 18176, Note_on_c, 11, 42, 0
1, 18176, Note_on_c, 10, 42, 0
1, 18176, Control_c, 2, 11, 71
1, 18179, Note_on_c, 8, 54, 0
1, 18179, Note_on_c, 3, 64, 0
1, 18179, Control_c, 2, 1, 68
1, 18180, Control_c, 2, 11, 63
1, 18184, Note_on_c, 2, 59, 0
1, 18184, Control_c, 2, 11, 56
1, 18186, Control_c, 2, 1, 67
1, 18188, Control_c, 2, 11, 49
1, 18190, Control_c, 2, 1, 64
1, 18191, Note_on_c, 3, 64, 100
1, 18191, Note_on_c, 9, 81, 28
1, 18191, Lyric_t, "that "
1, 18192, Control_c, 2, 11, 42
1, 18192, Note_on_c, 5, 90, 84
1, 18192, Note_on_c, 6, 47, 75
1, 18192, Note_on_c, 8, 57, 97
1, 18192, Note_on_c, 9, 39, 25
1, 18192, Note_on_c, 9, 69, 96
1, 18193, Note_on_c, 15, 57, 75
1, 18194, Note_on_c, 15, 64, 0
1, 18195, Note_on_c, 9, 81, 0
1, 18195, Control_c, 2, 1, 57
1, 18196, Note_on_c, 9, 69, 0
1, 18196, Note_on_c, 9, 39, 0
1, 18196, Control_c, 2, 11, 35
1, 18199, Control_c, 2, 1, 43
1, 18200, Control_c, 2, 11, 28
1, 18204, Control_c, 2, 1, 28
1, 18208, Control_c, 2, 1, 7
1, 18209, Note_on_c, 5, 90, 0
1, 18211, Note_on_c, 15, 57, 0
1, 18213, Control_c, 2, 1, 0
1, 18215, Note_on_c, 15, 61, 76
1, 18216, Note_on_c, 6, 47, 0
1, 18216, Note_on_c, 9, 69, 98
1, 18220, Note_on_c, 9, 69, 0
1, 18220, Control_c, 2, 11, 127
1, 18222, Note_on_c, 8, 57, 0
1, 18223, Note_on_c, 5, 92, 80
1, 18226, Note_on_c, 15, 54, 0
1, 18231, Note_on_c, 15, 61, 0
1, 18231, Note_on_c, 3, 64, 0
1, 18236, Pitch_bend_c, 3, 3681
1, 18239, Note_on_c, 3, 66, 98
1, 18239, Note_on_c, 9, 84, 15
1, 18239, Lyric_t, "you "
1, 18240, Note_on_c, 1, 42, 92
1, 18240, Pitch_bend_c, 3, 4393
1, 18240, Note_on_c, 5, 93, 78
1, 18240, Note_on_c, 6, 49, 77
1, 18240, Note_on_c, 8, 54, 102
1, 18240, Note_on_c, 9, 36, 97
1, 18240, Note_on_c, 9, 42, 81
1, 18240, Note_on_c, 9, 69, 98
1, 18240, Note_on_c, 9, 81, 31
1, 18240, Note_on_c, 10, 42, 62
1, 18240, Note_on_c, 11, 42, 60
1, 18240, Note_on_c, 15, 54, 76
1, 18243, Note_on_c, 9, 84, 0
1, 18244, Note_on_c, 9, 81, 0
1, 18244, Note_on_c, 9, 36, 0
1, 18244, Note_on_c, 9, 69, 0
1, 18244, Note_on_c, 9, 42, 0
1, 18244, Note_on_c, 5, 92, 0
1, 18244, Pitch_bend_c, 3, 5105
1, 18248, Pitch_bend_c, 3, 5816
1, 18252, Pitch_bend_c, 3, 6528
1, 18256, Pitch_bend_c, 3, 7240
1, 18259, Note_on_c, 5, 93, 0
1, 18260, Pitch_bend_c, 3, 7792
1, 18264, Pitch_bend_c, 3, 8192
1, 18264, Note_on_c, 9, 42, 52
1, 18264, Note_on_c, 9, 81, 22
1, 18264, Note_on_c, 15, 69, 80
1, 18268, Note_on_c, 9, 81, 0
1, 18268, Note_on_c, 9, 42, 0
1, 18268, Note_on_c, 8, 54, 0
1, 18270, Note_on_c, 10, 42, 0
1, 18270, Note_on_c, 1, 42, 0
1, 18270, Note_on_c, 6, 49, 0
1, 18270, Note_on_c, 11, 42, 0
1, 18278, Note_on_c, 3, 66, 0
1, 18288, Note_on_c, 3, 64, 103
1, 18288, Note_on_c, 5, 90, 71
1, 18288, Note_on_c, 8, 57, 98
1, 18288, Note_on_c, 9, 81, 30
1, 18288, Note_on_c, 15, 57, 72
1, 18288, Lyric_t, "should "
1, 18289, Note_on_c, 15, 69, 0
1, 18292, Note_on_c, 9, 81, 0
1, 18304, Note_on_c, 3, 64, 0
1, 18306, Note_on_c, 15, 57, 0
1, 18307, Note_on_c, 5, 90, 0
1, 18312, Note_on_c, 9, 42, 83
1, 18312, Note_on_c, 9, 81, 30
1, 18312, Note_on_c, 15, 64, 78
1, 18313, Note_on_c, 3, 63, 96
1, 18313, Lyric_t, "re"
1, 18316, Note_on_c, 9, 81, 0
1, 18316, Note_on_c, 9, 42, 0
1, 18319, Note_on_c, 5, 92, 67
1, 18335, Note_on_c, 9, 84, 17
1, 18336, Note_on_c, 1, 42, 87
1, 18336, Note_on_c, 5, 93, 65
1, 18336, Note_on_c, 9, 36, 104
1, 18336, Note_on_c, 9, 37, 80
1, 18336, Note_on_c, 9, 40, 100
1, 18336, Note_on_c, 9, 39, 52
1, 18336, Note_on_c, 10, 42, 56
1, 18336, Note_on_c, 11, 42, 64
1, 18336, Note_on_c, 15, 61, 77
1, 18336, Note_on_c, 15, 57, 80
1, 18337, Note_on_c, 15, 64, 0
1, 18339, Note_on_c, 9, 84, 0
1, 18340, Note_on_c, 9, 40, 0
1, 18340, Note_on_c, 5, 92, 0
1, 18340, Note_on_c, 9, 37, 0
1, 18340, Note_on_c, 9, 36, 0
1, 18340, Note_on_c, 9, 39, 0
1, 18344, Note_on_c, 3, 63, 0
1, 18355, Note_on_c, 15, 57, 0
1, 18355, Note_on_c, 5, 93, 0
1, 18360, Note_on_c, 3, 64, 99
1, 18360, Note_on_c, 15, 57, 75
1, 18360, Lyric_t, "a"
1, 18361, Note_on_c, 15, 61, 0
1, 18363, Pitch_bend_c, 2, 8192
1, 18370, Note_on_c, 11, 42, 0
1, 18370, Note_on_c, 10, 42, 0
1, 18370, Note_on_c, 1, 42, 0
1, 18380, Pitch_bend_c, 3, 8283
1, 18382, Note_on_c, 15, 57, 0
1, 18383, Note_on_c, 9, 39, 23
1, 18384, Pitch_bend_c, 3, 8079
1, 18384, Note_on_c, 5, 90, 59
1, 18384, Note_on_c, 9, 42, 83
1, 18384, Note_on_c, 9, 81, 27
1, 18384, Note_on_c, 15, 61, 74
1, 18384, Note_on_c, 15, 57, 72
1, 18387, Note_on_c, 9, 39, 0
1, 18388, Note_on_c, 9, 81, 0
1, 18388, Note_on_c, 9, 42, 0
1, 18388, Pitch_bend_c, 3, 7875
1, 18389, Note_on_c, 8, 57, 0
1, 18392, Pitch_bend_c, 3, 7670
1, 18396, Note_on_c, 3, 64, 0
1, 18396, Pitch_bend_c, 3, 7466
1, 18400, Note_on_c, 15, 54, 0
1, 18400, Pitch_bend_c, 3, 7261
1, 18401, Note_on_c, 15, 57, 0
1, 18403, Note_on_c, 5, 90, 0
1, 18404, Pitch_bend_c, 3, 8192
1, 18408, Note_on_c, 3, 61, 99
1, 18408, Note_on_c, 8, 54, 101
1, 18408, Note_on_c, 15, 54, 81
1, 18408, Lyric_t, "lise "
1, 18408, Lyric_t, "\015"
1, 18409, Note_on_c, 15, 61, 0
1, 18415, Note_on_c, 5, 92, 55
1, 18429, Note_on_c, 8, 54, 0
1, 18432, Note_on_c, 15, 54, 0
1, 18432, Note_on_c, 1, 42, 85
1, 18432, Note_on_c, 5, 93, 52
1, 18432, Note_on_c, 7, 42, 91
1, 18432, Note_on_c, 8, 54, 95
1, 18432, Note_on_c, 9, 36, 99
1, 18432, Note_on_c, 9, 81, 27
1, 18432, Note_on_c, 10, 42, 62
1, 18432, Note_on_c, 11, 42, 61
1, 18432, Note_on_c, 15, 66, 75
1, 18436, Note_on_c, 9, 81, 0
1, 18436, Note_on_c, 9, 36, 0
1, 18438, Control_c, 3, 1, 24
1, 18440, Note_on_c, 5, 92, 0
1, 18443, Control_c, 3, 1, 45
1, 18447, Control_c, 3, 1, 62
1, 18449, Note_on_c, 3, 61, 0
1, 18452, Control_c, 3, 1, 65
1, 18455, Note_on_c, 15, 57, 76
1, 18461, Note_on_c, 5, 93, 0
1, 18468, Control_c, 3, 1, 64
1, 18470, Note_on_c, 10, 42, 0
1, 18470, Note_on_c, 11, 42, 0
1, 18470, Note_on_c, 1, 42, 0
1, 18472, Control_c, 3, 1, 63
1, 18474, Note_on_c, 15, 57, 0
1, 18479, Control_c, 3, 1, 58
1, 18479, Note_on_c, 9, 81, 24
1, 18479, Note_on_c, 15, 61, 78
1, 18483, Note_on_c, 9, 81, 0
1, 18483, Control_c, 3, 1, 44
1, 18487, Control_c, 3, 1, 8
1, 18492, Control_c, 3, 1, 0
1, 18502, Note_on_c, 7, 42, 0
1, 18503, Note_on_c, 15, 57, 79
1, 18504, Note_on_c, 3, 64, 99
1, 18504, Note_on_c, 7, 42, 67
1, 18504, Note_on_c, 9, 42, 81
1, 18504, Lyric_t, "and "
1, 18508, Note_on_c, 9, 42, 0
1, 18516, Note_on_c, 3, 64, 0
1, 18523, Note_on_c, 15, 57, 0
1, 18524, Note_on_c, 15, 61, 0
1, 18527, Note_on_c, 7, 42, 0
1, 18527, Note_on_c, 3, 64, 103
1, 18527, Note_on_c, 6, 49, 72
1, 18527, Note_on_c, 9, 42, 84
1, 18527, Note_on_c, 9, 69, 98
1, 18527, Note_on_c, 9, 81, 30
1, 18527, Note_on_c, 15, 57, 80
1, 18527, Note_on_c, 15, 64, 81
1, 18527, Lyric_t, "try "
1, 18528, Note_on_c, 1, 42, 88
1, 18528, Note_on_c, 9, 36, 103
1, 18528, Note_on_c, 9, 37, 72
1, 18528, Note_on_c, 9, 40, 104
1, 18528, Note_on_c, 10, 42, 54
1, 18528, Note_on_c, 11, 42, 63
1, 18529, Note_on_c, 9, 39, 53
1, 18531, Note_on_c, 9, 81, 0
1, 18531, Note_on_c, 9, 69, 0
1, 18531, Note_on_c, 9, 42, 0
1, 18532, Note_on_c, 9, 36, 0
1, 18532, Note_on_c, 9, 40, 0
1, 18532, Note_on_c, 9, 37, 0
1, 18533, Note_on_c, 9, 39, 0
1, 18541, Note_on_c, 15, 57, 0
1, 18546, Note_on_c, 15, 64, 0
1, 18546, Note_on_c, 15, 66, 0
1, 18551, Note_on_c, 9, 81, 23
1, 18552, Note_on_c, 6, 49, 0
1, 18552, Note_on_c, 15, 68, 80
1, 18555, Note_on_c, 9, 81, 0
1, 18560, Note_on_c, 10, 42, 0
1, 18560, Note_on_c, 1, 42, 0
1, 18560, Note_on_c, 11, 42, 0
1, 18565, Note_on_c, 3, 64, 0
1, 18565, Note_on_c, 8, 54, 0
1, 18573, Note_on_c, 15, 68, 0
1, 18575, Note_on_c, 3, 64, 103
1, 18575, Note_on_c, 8, 57, 103
1, 18575, Note_on_c, 9, 69, 94
1, 18575, Note_on_c, 9, 81, 24
1, 18575, Note_on_c, 9, 42, 80
1, 18575, Lyric_t, "to "
1, 18576, Note_on_c, 6, 47, 76
1, 18576, Note_on_c, 7, 42, 71
1, 18576, Note_on_c, 9, 39, 30
1, 18576, Note_on_c, 15, 57, 73
1, 18579, Note_on_c, 9, 42, 0
1, 18579, Note_on_c, 9, 81, 0
1, 18579, Note_on_c, 9, 69, 0
1, 18580, Note_on_c, 9, 39, 0
1, 18592, Note_on_c, 15, 57, 0
1, 18595, Note_on_c, 8, 57, 0
1, 18597, Note_on_c, 7, 42, 0
1, 18598, Note_on_c, 6, 47, 0
1, 18599, Note_on_c, 15, 69, 75
1, 18608, Note_on_c, 9, 40, 80
1, 18612, Note_on_c, 9, 40, 0
1, 18614, Note_on_c, 3, 64, 0
1, 18618, Note_on_c, 15, 69, 0
1, 18623, Note_on_c, 3, 63, 103
1, 18623, Note_on_c, 8, 57, 103
1, 18623, Note_on_c, 9, 42, 82
1, 18623, Lyric_t, "un"
1, 18624, Note_on_c, 1, 42, 93
1, 18624, Note_on_c, 6, 49, 73
1, 18624, Note_on_c, 9, 36, 104
1, 18624, Note_on_c, 9, 81, 27
1, 18624, Note_on_c, 10, 42, 61
1, 18624, Note_on_c, 11, 42, 64
1, 18624, Note_on_c, 15, 57, 73
1, 18627, Note_on_c, 9, 42, 0
1, 18628, Note_on_c, 9, 81, 0
1, 18628, Note_on_c, 9, 36, 0
1, 18643, Note_on_c, 15, 57, 0
1, 18643, Note_on_c, 8, 57, 0
1, 18648, Note_on_c, 9, 42, 55
1, 18648, Note_on_c, 9, 81, 30
1, 18648, Note_on_c, 15, 64, 78
1, 18652, Note_on_c, 9, 81, 0
1, 18652, Note_on_c, 9, 42, 0
1, 18653, Note_on_c, 6, 49, 0
1, 18654, Note_on_c, 10, 42, 0
1, 18654, Note_on_c, 11, 42, 0
1, 18654, Note_on_c, 1, 42, 0
1, 18666, Note_on_c, 15, 64, 0
1, 18671, Note_on_c, 8, 57, 99
1, 18671, Note_on_c, 9, 69, 92
1, 18671, Note_on_c, 15, 57, 72
1, 18672, Note_on_c, 7, 42, 71
1, 18672, Note_on_c, 9, 81, 22
1, 18673, Pitch_bend_c, 3, 7808
1, 18675, Note_on_c, 9, 69, 0
1, 18675, Pitch_bend_c, 3, 7424
1, 18676, Note_on_c, 9, 81, 0
1, 18678, Pitch_bend_c, 3, 7168
1, 18682, Pitch_bend_c, 3, 6912
1, 18683, Note_on_c, 7, 42, 0
1, 18685, Pitch_bend_c, 3, 6528
1, 18689, Note_on_c, 15, 57, 0
1, 18689, Pitch_bend_c, 3, 6272
1, 18690, Note_on_c, 8, 57, 0
1, 18693, Pitch_bend_c, 3, 5888
1, 18696, Note_on_c, 3, 63, 0
1, 18696, Pitch_bend_c, 3, 8192
1, 18696, Note_on_c, 9, 81, 25
1, 18696, Note_on_c, 15, 61, 74
1, 18697, Note_on_c, 3, 61, 98
1, 18697, Lyric_t, "der"
1, 18700, Note_on_c, 9, 81, 0
1, 18716, Note_on_c, 15, 61, 0
1, 18719, Note_on_c, 8, 54, 104
1, 18719, Note_on_c, 15, 54, 74
1, 18720, Note_on_c, 1, 44, 87
1, 18720, Note_on_c, 9, 36, 95
1, 18720, Note_on_c, 9, 37, 79
1, 18720, Note_on_c, 9, 40, 104
1, 18720, Note_on_c, 9, 39, 57
1, 18720, Note_on_c, 10, 44, 53
1, 18720, Note_on_c, 11, 44, 67
1, 18724, Note_on_c, 9, 39, 0
1, 18724, Note_on_c, 9, 40, 0
1, 18724, Note_on_c, 9, 37, 0
1, 18724, Note_on_c, 9, 36, 0
1, 18725, Note_on_c, 3, 61, 0
1, 18743, Note_on_c, 15, 61, 75
1, 18744, Note_on_c, 3, 59, 97
1, 18744, Lyric_t, "stand "
1, 18764, Note_on_c, 1, 44, 0
1, 18764, Note_on_c, 11, 44, 0
1, 18764, Note_on_c, 10, 44, 0
1, 18766, Note_on_c, 15, 61, 0
1, 18766, Note_on_c, 15, 64, 76
1, 18767, Note_on_c, 15, 54, 0
1, 18767, Note_on_c, 9, 39, 30
1, 18768, Note_on_c, 1, 39, 89
1, 18768, Note_on_c, 9, 36, 97
1, 18768, Note_on_c, 9, 81, 22
1, 18768, Note_on_c, 11, 39, 61
1, 18769, Note_on_c, 9, 42, 79
1, 18770, Note_on_c, 10, 39, 55
1, 18771, Note_on_c, 9, 39, 0
1, 18772, Note_on_c, 9, 81, 0
1, 18772, Note_on_c, 9, 36, 0
1, 18773, Note_on_c, 9, 42, 0
1, 18784, Note_on_c, 3, 59, 0
1, 18791, Note_on_c, 15, 64, 0
1, 18791, Note_on_c, 15, 68, 72
1, 18792, Note_on_c, 3, 61, 101
1, 18792, Lyric_t, "why, "
1, 18792, Lyric_t, "\015"
1, 18792, Lyric_t, "\012"
1, 18804, Note_on_c, 8, 54, 0
1, 18808, Note_on_c, 15, 68, 0
1, 18810, Note_on_c, 11, 39, 0
1, 18810, Note_on_c, 1, 39, 0
1, 18812, Note_on_c, 10, 39, 0
1, 18816, Note_on_c, 1, 37, 88
1, 18816, Note_on_c, 9, 36, 99
1, 18816, Note_on_c, 9, 49, 31
1, 18816, Note_on_c, 9, 81, 28
1, 18816, Note_on_c, 9, 42, 80
1, 18816, Note_on_c, 9, 84, 23
1, 18816, Note_on_c, 10, 37, 59
1, 18816, Note_on_c, 11, 37, 66
1, 18816, Note_on_c, 15, 49, 77
1, 18818, Control_c, 3, 1, 12
1, 18820, Note_on_c, 9, 84, 0
1, 18820, Note_on_c, 9, 49, 0
1, 18820, Note_on_c, 9, 36, 0
1, 18820, Note_on_c, 9, 42, 0
1, 18820, Note_on_c, 9, 81, 0
1, 18820, Control_c, 3, 1, 41
1, 18825, Control_c, 3, 1, 53
1, 18830, Control_c, 3, 1, 57
1, 18837, Control_c, 3, 1, 58
1, 18839, Note_on_c, 15, 56, 72
1, 18840, Note_on_c, 8, 56, 96
1, 18844, Control_c, 3, 1, 56
1, 18849, Control_c, 3, 1, 55
1, 18853, Control_c, 3, 1, 54
1, 18854, Note_on_c, 8, 56, 0
1, 18860, Note_on_c, 15, 56, 0
1, 18863, Note_on_c, 9, 81, 30
1, 18863, Note_on_c, 15, 59, 80
1, 18864, Note_on_c, 9, 42, 83
1, 18867, Note_on_c, 9, 81, 0
1, 18868, Note_on_c, 9, 42, 0
1, 18869, Note_on_c, 11, 37, 0
1, 18869, Note_on_c, 10, 37, 0
1, 18869, Note_on_c, 1, 37, 0
1, 18870, Note_on_c, 3, 61, 0
1, 18877, Control_c, 3, 1, 51
1, 18879, Control_c, 3, 1, 40
1, 18884, Control_c, 3, 1, 24
1, 18887, Note_on_c, 15, 56, 75
1, 18888, Control_c, 3, 1, 2
1, 18888, Note_on_c, 8, 56, 98
1, 18891, Note_on_c, 15, 59, 0
1, 18892, Control_c, 3, 1, 0
1, 18905, Note_on_c, 8, 56, 0
1, 18908, Note_on_c, 15, 56, 0
1, 18911, Note_on_c, 6, 49, 74
1, 18911, Note_on_c, 9, 81, 28
1, 18911, Note_on_c, 15, 63, 75
1, 18912, Note_on_c, 1, 37, 87
1, 18912, Note_on_c, 3, 61, 97
1, 18912, Note_on_c, 9, 36, 100
1, 18912, Note_on_c, 9, 37, 75
1, 18912, Note_on_c, 9, 40, 97
1, 18912, Note_on_c, 9, 69, 98
1, 18912, Note_on_c, 9, 84, 14
1, 18912, Note_on_c, 10, 37, 59
1, 18912, Note_on_c, 11, 37, 61
1, 18912, Lyric_t, "He "
1, 18913, Note_on_c, 9, 39, 56
1, 18915, Note_on_c, 9, 81, 0
1, 18916, Note_on_c, 9, 84, 0
1, 18916, Note_on_c, 9, 37, 0
1, 18916, Note_on_c, 9, 69, 0
1, 18916, Note_on_c, 9, 40, 0
1, 18916, Note_on_c, 9, 36, 0
1, 18917, Note_on_c, 9, 39, 0
1, 18933, Note_on_c, 15, 63, 0
1, 18935, Note_on_c, 6, 49, 0
1, 18935, Note_on_c, 8, 56, 101
1, 18935, Note_on_c, 9, 81, 23
1, 18935, Note_on_c, 15, 56, 72
1, 18936, Note_on_c, 9, 42, 79
1, 18936, Note_on_c, 9, 69, 94
1, 18939, Note_on_c, 9, 81, 0
1, 18940, Note_on_c, 9, 69, 0
1, 18940, Note_on_c, 9, 42, 0
1, 18942, Note_on_c, 1, 37, 0
1, 18942, Note_on_c, 10, 37, 0
1, 18942, Note_on_c, 11, 37, 0
1, 18949, Note_on_c, 3, 61, 0
1, 18953, Note_on_c, 8, 56, 0
1, 18956, Note_on_c, 15, 56, 0
1, 18959, Note_on_c, 3, 63, 98
1, 18959, Note_on_c, 9, 81, 28
1, 18959, Note_on_c, 15, 59, 79
1, 18959, Lyric_t, "is "
1, 18960, Note_on_c, 5, 88, 85
1, 18960, Note_on_c, 6, 47, 78
1, 18960, Note_on_c, 9, 39, 21
1, 18960, Note_on_c, 9, 69, 95
1, 18963, Note_on_c, 9, 81, 0
1, 18964, Note_on_c, 9, 69, 0
1, 18964, Note_on_c, 9, 39, 0
1, 18977, Note_on_c, 3, 63, 0
1, 18978, Note_on_c, 5, 88, 0
1, 18983, Note_on_c, 15, 59, 0
1, 18983, Note_on_c, 3, 63, 104
1, 18983, Note_on_c, 8, 56, 97
1, 18983, Note_on_c, 15, 56, 76
1, 18983, Lyric_t, "a "
1, 18984, Note_on_c, 6, 47, 0
1, 18984, Note_on_c, 9, 69, 97
1, 18988, Note_on_c, 9, 69, 0
1, 18992, Note_on_c, 5, 90, 81
1, 18997, Note_on_c, 3, 63, 0
1, 19002, Note_on_c, 8, 56, 0
1, 19007, Note_on_c, 1, 37, 86
1, 19007, Note_on_c, 3, 63, 100
1, 19007, Note_on_c, 5, 92, 79
1, 19007, Note_on_c, 9, 36, 97
1, 19007, Note_on_c, 9, 84, 23
1, 19007, Note_on_c, 10, 37, 53
1, 19007, Note_on_c, 11, 37, 60
1, 19007, Note_on_c, 15, 63, 80
1, 19007, Lyric_t, "part "
1, 19008, Note_on_c, 15, 56, 0
1, 19008, Note_on_c, 6, 49, 76
1, 19008, Note_on_c, 9, 42, 84
1, 19008, Note_on_c, 9, 69, 96
1, 19008, Note_on_c, 9, 81, 27
1, 19009, Note_on_c, 5, 90, 0
1, 19011, Note_on_c, 9, 84, 0
1, 19011, Note_on_c, 9, 36, 0
1, 19012, Note_on_c, 9, 42, 0
1, 19012, Note_on_c, 9, 69, 0
1, 19012, Note_on_c, 9, 81, 0
1, 19022, Note_on_c, 5, 92, 0
1, 19026, Note_on_c, 15, 63, 0
1, 19027, Control_c, 3, 1, 3
1, 19028, Control_c, 3, 1, 14
1, 19031, Note_on_c, 8, 56, 102
1, 19031, Note_on_c, 15, 56, 79
1, 19032, Control_c, 3, 1, 36
1, 19032, Note_on_c, 9, 42, 56
1, 19032, Note_on_c, 9, 81, 23
1, 19036, Note_on_c, 9, 81, 0
1, 19036, Note_on_c, 9, 42, 0
1, 19038, Note_on_c, 6, 49, 0
1, 19038, Control_c, 3, 1, 38
1, 19044, Note_on_c, 11, 37, 0
1, 19044, Note_on_c, 1, 37, 0
1, 19044, Note_on_c, 10, 37, 0
1, 19044, Pitch_bend_c, 3, 8192
1, 19045, Note_on_c, 15, 56, 0
1, 19045, Control_c, 3, 1, 36
1, 19048, Pitch_bend_c, 3, 7931
1, 19050, Note_on_c, 8, 56, 0
1, 19050, Control_c, 3, 1, 29
1, 19052, Pitch_bend_c, 3, 7670
1, 19054, Control_c, 3, 1, 18
1, 19055, Note_on_c, 15, 56, 73
1, 19055, Note_on_c, 15, 61, 74
1, 19056, Pitch_bend_c, 3, 7410
1, 19056, Note_on_c, 5, 88, 72
1, 19056, Note_on_c, 9, 81, 23
1, 19059, Control_c, 3, 1, 0
1, 19060, Note_on_c, 9, 81, 0
1, 19060, Pitch_bend_c, 3, 7149
1, 19064, Pitch_bend_c, 3, 6888
1, 19066, Note_on_c, 15, 61, 0
1, 19068, Note_on_c, 3, 63, 0
1, 19069, Note_on_c, 15, 56, 0
1, 19071, Note_on_c, 5, 88, 0
1, 19076, Pitch_bend_c, 3, 8192
1, 19079, Note_on_c, 15, 56, 72
1, 19079, Note_on_c, 15, 64, 76
1, 19080, Note_on_c, 3, 61, 97
1, 19080, Note_on_c, 8, 56, 98
1, 19080, Note_on_c, 9, 42, 83
1, 19080, Note_on_c, 9, 81, 25
1, 19080, Lyric_t, "of "
1, 19084, Note_on_c, 9, 81, 0
1, 19084, Note_on_c, 9, 42, 0
1, 19088, Note_on_c, 5, 90, 68
1, 19093, Note_on_c, 8, 56, 0
1, 19095, Note_on_c, 15, 64, 0
1, 19101, Note_on_c, 5, 90, 0
1, 19103, Note_on_c, 5, 92, 66
1, 19104, Note_on_c, 1, 37, 94
1, 19104, Note_on_c, 8, 56, 100
1, 19104, Note_on_c, 9, 36, 98
1, 19104, Note_on_c, 9, 37, 79
1, 19104, Note_on_c, 9, 40, 103
1, 19104, Note_on_c, 9, 39, 57
1, 19104, Note_on_c, 9, 84, 15
1, 19104, Note_on_c, 10, 37, 59
1, 19104, Note_on_c, 11, 37, 62
1, 19107, Note_on_c, 15, 49, 0
1, 19108, Note_on_c, 9, 84, 0
1, 19108, Note_on_c, 9, 37, 0
1, 19108, Note_on_c, 9, 39, 0
1, 19108, Note_on_c, 9, 40, 0
1, 19108, Note_on_c, 9, 36, 0
1, 19115, Note_on_c, 3, 61, 0
1, 19117, Note_on_c, 5, 92, 0
1, 19119, Note_on_c, 15, 56, 0
1, 19127, Note_on_c, 15, 66, 79
1, 19128, Note_on_c, 3, 59, 95
1, 19128, Lyric_t, "my "
1, 19130, Note_on_c, 8, 56, 0
1, 19137, Note_on_c, 1, 37, 0
1, 19137, Note_on_c, 11, 37, 0
1, 19137, Note_on_c, 10, 37, 0
1, 19151, Note_on_c, 5, 88, 59
1, 19151, Note_on_c, 8, 56, 104
1, 19151, Note_on_c, 9, 39, 27
1, 19151, Note_on_c, 15, 56, 79
1, 19152, Note_on_c, 9, 42, 82
1, 19152, Note_on_c, 9, 81, 30
1, 19153, Note_on_c, 15, 66, 0
1, 19155, Note_on_c, 9, 39, 0
1, 19156, Note_on_c, 9, 81, 0
1, 19156, Note_on_c, 9, 42, 0
1, 19158, Note_on_c, 3, 59, 0
1, 19166, Note_on_c, 5, 88, 0
1, 19174, Note_on_c, 8, 56, 0
1, 19176, Note_on_c, 15, 56, 0
1, 19176, Note_on_c, 3, 61, 98
1, 19176, Lyric_t, "life "
1, 19176, Lyric_t, "\015"
1, 19184, Note_on_c, 5, 90, 54
1, 19195, Note_on_c, 5, 90, 0
1, 19199, Note_on_c, 5, 92, 52
1, 19200, Tempo, 652174
1, 19200, Note_on_c, 1, 37, 89
1, 19200, Note_on_c, 7, 37, 84
1, 19200, Note_on_c, 9, 36, 97
1, 19200, Note_on_c, 9, 81, 27
1, 19200, Note_on_c, 10, 37, 58
1, 19200, Note_on_c, 11, 37, 62
1, 19200, Note_on_c, 15, 59, 80
1, 19202, Control_c, 3, 1, 3
1, 19203, Control_c, 3, 1, 24
1, 19204, Note_on_c, 9, 81, 0
1, 19204, Note_on_c, 9, 36, 0
1, 19208, Control_c, 3, 1, 36
1, 19212, Control_c, 3, 1, 41
1, 19213, Note_on_c, 5, 92, 0
1, 19217, Control_c, 3, 1, 44
1, 19223, Control_c, 3, 1, 45
1, 19223, Note_on_c, 15, 64, 72
1, 19224, Note_on_c, 8, 64, 99
1, 19225, Control_c, 3, 1, 47
1, 19232, Control_c, 3, 1, 48
1, 19233, Note_on_c, 15, 59, 0
1, 19241, Note_on_c, 8, 64, 0
1, 19241, Note_on_c, 3, 61, 0
1, 19247, Note_on_c, 9, 81, 26
1, 19248, Note_on_c, 15, 64, 0
1, 19248, Note_on_c, 15, 59, 74
1, 19250, Control_c, 3, 1, 46
1, 19251, Note_on_c, 9, 81, 0
1, 19253, Note_on_c, 11, 37, 0
1, 19253, Note_on_c, 10, 37, 0
1, 19253, Note_on_c, 1, 37, 0
1, 19254, Control_c, 3, 1, 43
1, 19257, Control_c, 3, 1, 33
1, 19262, Control_c, 3, 1, 11
1, 19266, Control_c, 3, 1, 1
1, 19271, Note_on_c, 15, 61, 76
1, 19272, Note_on_c, 7, 37, 0
1, 19272, Note_on_c, 3, 64, 103
1, 19272, Note_on_c, 7, 37, 72
1, 19272, Note_on_c, 8, 63, 97
1, 19272, Note_on_c, 9, 42, 79
1, 19272, Lyric_t, "I "
1, 19276, Note_on_c, 9, 42, 0
1, 19282, Note_on_c, 15, 59, 0
1, 19284, Note_on_c, 3, 64, 0
1, 19289, Note_on_c, 8, 63, 0
1, 19290, Note_on_c, 15, 61, 0
1, 19292, Pitch_bend_c, 3, 4908
1, 19295, Note_on_c, 6, 49, 78
1, 19295, Note_on_c, 9, 42, 78
1, 19295, Note_on_c, 9, 69, 94
1, 19295, Note_on_c, 9, 81, 29
1, 19296, Note_on_c, 1, 37, 93
1, 19296, Pitch_bend_c, 3, 5364
1, 19296, Note_on_c, 3, 71, 96
1, 19296, Note_on_c, 9, 36, 104
1, 19296, Note_on_c, 9, 37, 79
1, 19296, Note_on_c, 9, 40, 104
1, 19296, Note_on_c, 10, 37, 60
1, 19296, Note_on_c, 11, 37, 63
1, 19296, Note_on_c, 15, 64, 73
1, 19296, Lyric_t, "know "
1, 19297, Note_on_c, 9, 39, 56
1, 19299, Note_on_c, 9, 81, 0
1, 19299, Note_on_c, 9, 69, 0
1, 19299, Note_on_c, 9, 42, 0
1, 19300, Note_on_c, 9, 37, 0
1, 19300, Note_on_c, 9, 36, 0
1, 19300, Note_on_c, 9, 40, 0
1, 19300, Pitch_bend_c, 3, 5820
1, 19301, Note_on_c, 9, 39, 0
1, 19302, Note_on_c, 7, 37, 0
1, 19304, Pitch_bend_c, 3, 6276
1, 19308, Pitch_bend_c, 3, 6731
1, 19312, Pitch_bend_c, 3, 7187
1, 19316, Pitch_bend_c, 3, 7643
1, 19319, Note_on_c, 9, 81, 23
1, 19319, Note_on_c, 15, 68, 81
1, 19320, Note_on_c, 6, 49, 0
1, 19320, Pitch_bend_c, 3, 8192
1, 19320, Note_on_c, 8, 63, 97
1, 19323, Note_on_c, 9, 81, 0
1, 19330, Note_on_c, 15, 64, 0
1, 19334, Note_on_c, 11, 37, 0
1, 19334, Note_on_c, 1, 37, 0
1, 19334, Note_on_c, 10, 37, 0
1, 19337, Note_on_c, 8, 63, 0
1, 19339, Note_on_c, 3, 71, 0
1, 19343, Note_on_c, 3, 69, 97
1, 19343, Note_on_c, 9, 69, 92
1, 19343, Note_on_c, 9, 81, 28
1, 19343, Note_on_c, 9, 42, 82
1, 19343, Note_on_c, 15, 63, 77
1, 19343, Lyric_t, "it's "
1, 19344, Note_on_c, 6, 47, 81
1, 19344, Note_on_c, 9, 39, 28
1, 19347, Note_on_c, 9, 42, 0
1, 19347, Note_on_c, 9, 81, 0
1, 19347, Note_on_c, 9, 69, 0
1, 19348, Note_on_c, 9, 39, 0
1, 19366, Note_on_c, 6, 47, 0
1, 19367, Note_on_c, 15, 64, 76
1, 19368, Note_on_c, 8, 64, 99
1, 19369, Note_on_c, 3, 69, 0
1, 19376, Note_on_c, 9, 40, 81
1, 19380, Note_on_c, 9, 40, 0
1, 19383, Note_on_c, 8, 64, 0
1, 19383, Note_on_c, 15, 63, 0
1, 19388, Note_on_c, 15, 68, 0
1, 19388, Pitch_bend_c, 3, 5706
1, 19389, Note_on_c, 15, 64, 0
1, 19391, Note_on_c, 1, 37, 90
1, 19391, Note_on_c, 3, 68, 103
1, 19391, Note_on_c, 9, 42, 79
1, 19391, Note_on_c, 9, 36, 98
1, 19391, Note_on_c, 10, 37, 55
1, 19391, Note_on_c, 11, 37, 65
1, 19391, Note_on_c, 15, 71, 75
1, 19391, Lyric_t, "kil"
1, 19392, Pitch_bend_c, 3, 6749
1, 19392, Note_on_c, 6, 49, 77
1, 19392, Note_on_c, 9, 81, 28
1, 19395, Note_on_c, 9, 36, 0
1, 19395, Note_on_c, 9, 42, 0
1, 19396, Note_on_c, 9, 81, 0
1, 19396, Pitch_bend_c, 3, 7792
1, 19400, Pitch_bend_c, 3, 8192
1, 19415, Note_on_c, 8, 64, 95
1, 19415, Note_on_c, 9, 38, 54
1, 19415, Note_on_c, 15, 64, 76
1, 19416, Pitch_bend_c, 3, 7793
1, 19416, Note_on_c, 9, 42, 58
1, 19416, Note_on_c, 9, 81, 28
1, 19419, Note_on_c, 9, 38, 0
1, 19420, Note_on_c, 9, 81, 0
1, 19420, Note_on_c, 9, 42, 0
1, 19420, Pitch_bend_c, 3, 7363
1, 19421, Note_on_c, 6, 49, 0
1, 19424, Pitch_bend_c, 3, 6934
1, 19428, Note_on_c, 10, 37, 0
1, 19428, Note_on_c, 11, 37, 0
1, 19428, Note_on_c, 1, 37, 0
1, 19428, Pitch_bend_c, 3, 6504
1, 19432, Pitch_bend_c, 3, 6075
1, 19435, Note_on_c, 3, 68, 0
1, 19435, Note_on_c, 8, 64, 0
1, 19436, Pitch_bend_c, 3, 8192
1, 19439, Note_on_c, 3, 66, 98
1, 19439, Note_on_c, 9, 69, 92
1, 19439, Note_on_c, 15, 68, 72
1, 19439, Lyric_t, "ling "
1, 19440, Note_on_c, 7, 37, 71
1, 19440, Note_on_c, 9, 38, 57
1, 19440, Note_on_c, 9, 81, 29
1, 19442, Note_on_c, 15, 64, 0
1, 19442, Note_on_c, 15, 71, 0
1, 19443, Note_on_c, 9, 69, 0
1, 19444, Note_on_c, 9, 81, 0
1, 19444, Note_on_c, 9, 38, 0
1, 19454, Note_on_c, 3, 66, 0
1, 19457, Note_on_c, 7, 37, 0
1, 19463, Note_on_c, 15, 75, 76
1, 19464, Note_on_c, 3, 66, 104
1, 19464, Note_on_c, 9, 38, 58
1, 19464, Note_on_c, 9, 81, 22
1, 19464, Note_on_c, 15, 71, 72
1, 19464, Lyric_t, "you "
1, 19465, Note_on_c, 15, 68, 0
1, 19468, Note_on_c, 9, 81, 0
1, 19468, Note_on_c, 9, 38, 0
1, 19484, Note_on_c, 15, 71, 0
1, 19486, Note_on_c, 3, 66, 0
1, 19487, Note_on_c, 15, 71, 72
1, 19488, Note_on_c, 1, 40, 88
1, 19488, Note_on_c, 9, 36, 100
1, 19488, Note_on_c, 9, 38, 56
1, 19488, Note_on_c, 9, 37, 72
1, 19488, Note_on_c, 9, 40, 97
1, 19488, Note_on_c, 9, 39, 56
1, 19488, Note_on_c, 10, 40, 57
1, 19488, Note_on_c, 11, 40, 59
1, 19492, Note_on_c, 9, 39, 0
1, 19492, Note_on_c, 9, 40, 0
1, 19492, Note_on_c, 9, 36, 0
1, 19492, Note_on_c, 9, 37, 0
1, 19492, Note_on_c, 9, 38, 0
1, 19511, Note_on_c, 3, 64, 98
1, 19511, Lyric_t, "in"
1, 19512, Note_on_c, 7, 37, 70
1, 19512, Note_on_c, 15, 80, 75
1, 19529, Note_on_c, 7, 37, 0
1, 19529, Note_on_c, 15, 71, 0
1, 19532, Note_on_c, 15, 75, 0
1, 19535, Note_on_c, 1, 40, 0
1, 19535, Note_on_c, 10, 40, 0
1, 19535, Note_on_c, 11, 40, 0
1, 19535, Note_on_c, 9, 39, 30
1, 19536, Note_on_c, 1, 44, 88
1, 19536, Note_on_c, 9, 36, 96
1, 19536, Note_on_c, 9, 81, 28
1, 19536, Note_on_c, 10, 44, 60
1, 19536, Note_on_c, 11, 44, 61
1, 19536, Note_on_c, 15, 61, 72
1, 19536, Note_on_c, 15, 71, 73
1, 19537, Note_on_c, 3, 64, 0
1, 19537, Note_on_c, 9, 42, 79
1, 19539, Note_on_c, 9, 39, 0
1, 19540, Note_on_c, 9, 36, 0
1, 19540, Note_on_c, 9, 81, 0
1, 19541, Note_on_c, 9, 42, 0
1, 19543, Note_on_c, 15, 80, 0
1, 19559, Note_on_c, 3, 61, 99
1, 19559, Lyric_t, "side. "
1, 19559, Lyric_t, "\015"
1, 19559, Lyric_t, "\012"
1, 19560, Note_on_c, 15, 83, 78
1, 19560, Note_on_c, 15, 56, 76
1, 19562, Note_on_c, 15, 61, 0
1, 19567, Control_c, 3, 1, 4
1, 19568, Control_c, 3, 1, 25
1, 19572, Note_on_c, 15, 71, 0
1, 19572, Control_c, 3, 1, 42
1, 19577, Control_c, 3, 1, 46
1, 19578, Note_on_c, 11, 44, 0
1, 19578, Note_on_c, 10, 44, 0
1, 19578, Note_on_c, 1, 44, 0
1, 19581, Note_on_c, 15, 56, 0
1, 19581, Control_c, 3, 1, 47
1, 19584, Note_on_c, 1, 42, 89
1, 19584, Note_on_c, 9, 36, 97
1, 19584, Note_on_c, 9, 49, 35
1, 19584, Note_on_c, 9, 81, 22
1, 19584, Note_on_c, 9, 42, 84
1, 19584, Note_on_c, 9, 84, 20
1, 19584, Note_on_c, 10, 42, 60
1, 19584, Note_on_c, 11, 42, 61
1, 19587, Note_on_c, 15, 83, 0
1, 19588, Note_on_c, 9, 84, 0
1, 19588, Note_on_c, 9, 49, 0
1, 19588, Note_on_c, 9, 36, 0
1, 19588, Note_on_c, 9, 81, 0
1, 19588, Note_on_c, 9, 42, 0
1, 19600, Note_on_c, 3, 61, 0
1, 19600, Control_c, 3, 1, 46
1, 19604, Control_c, 3, 1, 42
1, 19608, Control_c, 3, 1, 34
1, 19612, Control_c, 3, 1, 0
1, 19622, Note_on_c, 11, 42, 0
1, 19622, Note_on_c, 1, 42, 0
1, 19622, Note_on_c, 10, 42, 0
1, 19631, Note_on_c, 3, 66, 95
1, 19631, Note_on_c, 9, 81, 27
1, 19631, Lyric_t, "You "
1, 19632, Note_on_c, 9, 42, 82
1, 19635, Note_on_c, 9, 81, 0
1, 19636, Note_on_c, 9, 42, 0
1, 19655, Note_on_c, 3, 64, 71
1, 19655, Lyric_t, "can "
1, 19661, Note_on_c, 3, 66, 0
1, 19678, Note_on_c, 3, 64, 0
1, 19678, Note_on_c, 3, 66, 102
1, 19678, Lyric_t, "say "
1, 19679, Note_on_c, 6, 49, 79
1, 19679, Note_on_c, 9, 81, 31
1, 19680, Note_on_c, 2, 66, 97
1, 19680, Note_on_c, 9, 69, 95
1, 19680, Note_on_c, 9, 84, 20
1, 19681, Note_on_c, 9, 39, 50
1, 19683, Note_on_c, 9, 81, 0
1, 19684, Note_on_c, 9, 69, 0
1, 19684, Note_on_c, 9, 84, 0
1, 19685, Note_on_c, 9, 39, 0
1, 19701, Note_on_c, 2, 66, 0
1, 19703, Note_on_c, 6, 49, 0
1, 19703, Note_on_c, 3, 64, 71
1, 19703, Note_on_c, 9, 81, 31
1, 19703, Lyric_t, "what "
1, 19704, Note_on_c, 2, 66, 97
1, 19704, Note_on_c, 9, 42, 78
1, 19704, Note_on_c, 9, 69, 92
1, 19707, Note_on_c, 9, 81, 0
1, 19708, Note_on_c, 9, 42, 0
1, 19708, Note_on_c, 9, 69, 0
1, 19710, Note_on_c, 3, 66, 0
1, 19716, Note_on_c, 2, 66, 0
1, 19727, Note_on_c, 3, 64, 0
1, 19727, Note_on_c, 2, 64, 95
1, 19727, Note_on_c, 9, 81, 31
1, 19728, Note_on_c, 3, 64, 71
1, 19728, Note_on_c, 5, 90, 84
1, 19728, Note_on_c, 6, 47, 81
1, 19728, Note_on_c, 9, 39, 28
1, 19728, Note_on_c, 9, 69, 94
1, 19728, Lyric_t, "you "
1, 19731, Note_on_c, 9, 81, 0
1, 19731, Control_c, 3, 1, 13
1, 19732, Note_on_c, 9, 39, 0
1, 19732, Note_on_c, 9, 69, 0
1, 19734, Control_c, 3, 1, 44
1, 19738, Control_c, 3, 1, 50
1, 19745, Note_on_c, 5, 90, 0
1, 19746, Note_on_c, 2, 64, 0
1, 19749, Control_c, 3, 1, 47
1, 19752, Note_on_c, 3, 64, 0
1, 19752, Note_on_c, 6, 47, 0
1, 19752, Control_c, 3, 1, 35
1, 19752, Note_on_c, 9, 69, 99
1, 19756, Note_on_c, 9, 69, 0
1, 19757, Control_c, 3, 1, 15
1, 19759, Note_on_c, 5, 92, 80
1, 19761, Control_c, 3, 1, 0
1, 19772, Pitch_bend_c, 2, 3313
1, 19775, Note_on_c, 2, 66, 103
1, 19775, Note_on_c, 3, 69, 103
1, 19775, Note_on_c, 9, 84, 16
1, 19775, Lyric_t, "wan"
1, 19776, Pitch_bend_c, 2, 4102
1, 19776, Pitch_bend_c, 3, 3988
1, 19776, Note_on_c, 5, 93, 77
1, 19776, Note_on_c, 6, 49, 72
1, 19776, Note_on_c, 9, 42, 75
1, 19776, Note_on_c, 9, 69, 99
1, 19776, Note_on_c, 9, 81, 28
1, 19779, Note_on_c, 9, 84, 0
1, 19780, Note_on_c, 5, 92, 0
1, 19780, Note_on_c, 9, 81, 0
1, 19780, Note_on_c, 9, 69, 0
1, 19780, Note_on_c, 9, 42, 0
1, 19780, Pitch_bend_c, 2, 4891
1, 19780, Pitch_bend_c, 3, 4540
1, 19784, Pitch_bend_c, 2, 5680
1, 19784, Pitch_bend_c, 3, 5092
1, 19788, Pitch_bend_c, 2, 6469
1, 19788, Pitch_bend_c, 3, 5644
1, 19792, Pitch_bend_c, 2, 7258
1, 19792, Pitch_bend_c, 3, 6197
1, 19792, Control_c, 3, 1, 27
1, 19795, Note_on_c, 5, 93, 0
1, 19796, Pitch_bend_c, 2, 8192
1, 19796, Pitch_bend_c, 3, 6749
1, 19797, Control_c, 3, 1, 44
1, 19800, Pitch_bend_c, 3, 7301
1, 19800, Note_on_c, 9, 42, 57
1, 19800, Note_on_c, 9, 81, 29
1, 19802, Control_c, 3, 1, 49
1, 19804, Note_on_c, 9, 81, 0
1, 19804, Note_on_c, 9, 42, 0
1, 19804, Pitch_bend_c, 3, 7854
1, 19806, Note_on_c, 6, 49, 0
1, 19807, Control_c, 3, 1, 50
1, 19808, Pitch_bend_c, 3, 8192
1, 19813, Control_c, 3, 1, 49
1, 19815, Control_c, 3, 1, 45
1, 19820, Control_c, 3, 1, 41
1, 19822, Note_on_c, 2, 66, 0
1, 19824, Control_c, 3, 1, 38
1, 19824, Note_on_c, 5, 90, 71
1, 19824, Note_on_c, 9, 81, 26
1, 19825, Note_on_c, 2, 64, 103
1, 19825, Lyric_t, "na "
1, 19828, Note_on_c, 9, 81, 0
1, 19830, Control_c, 3, 1, 36
1, 19837, Control_c, 3, 1, 31
1, 19842, Control_c, 3, 1, 18
1, 19843, Note_on_c, 5, 90, 0
1, 19846, Control_c, 3, 1, 0
1, 19848, Note_on_c, 3, 69, 0
1, 19848, Note_on_c, 9, 42, 84
1, 19848, Note_on_c, 9, 81, 26
1, 19849, Note_on_c, 2, 66, 95
1, 19849, Note_on_c, 3, 68, 95
1, 19849, Lyric_t, "say, "
1, 19849, Lyric_t, "\015"
1, 19850, Note_on_c, 2, 64, 0
1, 19852, Note_on_c, 9, 42, 0
1, 19852, Note_on_c, 9, 81, 0
1, 19855, Note_on_c, 5, 92, 66
1, 19870, Note_on_c, 2, 66, 0
1, 19871, Note_on_c, 9, 84, 15
1, 19872, Note_on_c, 5, 93, 64
1, 19872, Note_on_c, 9, 40, 99
1, 19872, Note_on_c, 9, 39, 54
1, 19875, Note_on_c, 9, 84, 0
1, 19876, Note_on_c, 5, 92, 0
1, 19876, Note_on_c, 3, 68, 0
1, 19876, Note_on_c, 9, 40, 0
1, 19876, Note_on_c, 9, 39, 0
1, 19891, Note_on_c, 5, 93, 0
1, 19897, Note_on_c, 2, 71, 101
1, 19914, Note_on_c, 2, 71, 0
1, 19919, Note_on_c, 9, 39, 27
1, 19920, Note_on_c, 5, 90, 57
1, 19920, Note_on_c, 9, 42, 84
1, 19920, Note_on_c, 9, 81, 27
1, 19923, Note_on_c, 9, 39, 0
1, 19924, Note_on_c, 9, 81, 0
1, 19924, Note_on_c, 9, 42, 0
1, 19939, Note_on_c, 5, 90, 0
1, 19951, Note_on_c, 5, 92, 53
1, 19968, Tempo, 645161
1, 19968, Note_on_c, 1, 42, 89
1, 19968, Note_on_c, 2, 68, 102
1, 19968, Note_on_c, 5, 93, 50
1, 19968, Note_on_c, 7, 42, 88
1, 19968, Note_on_c, 9, 36, 95
1, 19968, Note_on_c, 9, 81, 31
1, 19968, Note_on_c, 10, 42, 58
1, 19968, Note_on_c, 11, 42, 67
1, 19972, Note_on_c, 9, 81, 0
1, 19972, Note_on_c, 9, 36, 0
1, 19976, Note_on_c, 5, 92, 0
1, 19988, Note_on_c, 2, 68, 0
1, 19991, Note_on_c, 2, 66, 75
1, 19997, Note_on_c, 5, 93, 0
1, 20006, Note_on_c, 1, 42, 0
1, 20006, Note_on_c, 11, 42, 0
1, 20006, Note_on_c, 10, 42, 0
1, 20014, Note_on_c, 2, 66, 0
1, 20015, Note_on_c, 2, 64, 63
1, 20015, Note_on_c, 9, 81, 28
1, 20019, Note_on_c, 9, 81, 0
1, 20038, Note_on_c, 7, 42, 0
1, 20040, Note_on_c, 7, 42, 76
1, 20040, Note_on_c, 9, 42, 75
1, 20044, Note_on_c, 9, 42, 0
1, 20047, Note_on_c, 2, 64, 0
1, 20063, Note_on_c, 7, 42, 0
1, 20063, Note_on_c, 6, 49, 77
1, 20063, Note_on_c, 9, 42, 80
1, 20063, Note_on_c, 9, 69, 94
1, 20063, Note_on_c, 9, 81, 28
1, 20064, Note_on_c, 1, 42, 90
1, 20064, Note_on_c, 2, 64, 95
1, 20064, Note_on_c, 9, 36, 98
1, 20064, Note_on_c, 9, 37, 75
1, 20064, Note_on_c, 9, 40, 97
1, 20064, Note_on_c, 10, 42, 57
1, 20064, Note_on_c, 11, 42, 66
1, 20064, Lyric_t, "What "
1, 20065, Note_on_c, 9, 39, 56
1, 20067, Note_on_c, 9, 81, 0
1, 20067, Note_on_c, 9, 69, 0
1, 20067, Note_on_c, 9, 42, 0
1, 20068, Note_on_c, 9, 40, 0
1, 20068, Note_on_c, 9, 37, 0
1, 20068, Note_on_c, 9, 36, 0
1, 20069, Note_on_c, 9, 39, 0
1, 20087, Note_on_c, 9, 81, 28
1, 20088, Note_on_c, 6, 49, 0
1, 20091, Note_on_c, 9, 81, 0
1, 20093, Note_on_c, 2, 64, 0
1, 20096, Note_on_c, 1, 42, 0
1, 20096, Note_on_c, 10, 42, 0
1, 20096, Note_on_c, 11, 42, 0
1, 20111, Note_on_c, 9, 69, 93
1, 20111, Note_on_c, 9, 81, 29
1, 20111, Note_on_c, 9, 42, 83
1, 20112, Note_on_c, 2, 64, 104
1, 20112, Note_on_c, 6, 47, 78
1, 20112, Note_on_c, 7, 42, 68
1, 20112, Note_on_c, 9, 39, 24
1, 20112, Lyric_t, "we "
1, 20115, Note_on_c, 9, 42, 0
1, 20115, Note_on_c, 9, 69, 0
1, 20115, Note_on_c, 9, 81, 0
1, 20116, Note_on_c, 9, 39, 0
1, 20133, Note_on_c, 7, 42, 0
1, 20134, Note_on_c, 6, 47, 0
1, 20144, Note_on_c, 9, 40, 77
1, 20148, Note_on_c, 9, 40, 0
1, 20149, Note_on_c, 2, 64, 0
1, 20159, Note_on_c, 9, 42, 83
1, 20160, Note_on_c, 1, 42, 85
1, 20160, Pitch_bend_c, 2, 4049
1, 20160, Note_on_c, 2, 66, 98
1, 20160, Note_on_c, 6, 49, 74
1, 20160, Note_on_c, 9, 36, 104
1, 20160, Note_on_c, 9, 81, 27
1, 20160, Note_on_c, 10, 42, 61
1, 20160, Note_on_c, 11, 42, 66
1, 20160, Lyric_t, "have "
1, 20163, Note_on_c, 9, 42, 0
1, 20164, Note_on_c, 9, 36, 0
1, 20164, Note_on_c, 9, 81, 0
1, 20164, Pitch_bend_c, 2, 5644
1, 20168, Pitch_bend_c, 2, 7240
1, 20172, Pitch_bend_c, 2, 8192
1, 20184, Pitch_bend_c, 2, 7516
1, 20184, Note_on_c, 9, 42, 59
1, 20184, Note_on_c, 9, 81, 30
1, 20188, Note_on_c, 9, 81, 0
1, 20188, Note_on_c, 9, 42, 0
1, 20188, Pitch_bend_c, 2, 6811
1, 20189, Note_on_c, 6, 49, 0
1, 20190, Note_on_c, 1, 42, 0
1, 20190, Note_on_c, 11, 42, 0
1, 20190, Note_on_c, 10, 42, 0
1, 20192, Pitch_bend_c, 2, 6105
1, 20195, Note_on_c, 2, 66, 0
1, 20196, Pitch_bend_c, 2, 5399
1, 20200, Pitch_bend_c, 2, 4694
1, 20204, Pitch_bend_c, 2, 8192
1, 20207, Note_on_c, 2, 64, 99
1, 20207, Note_on_c, 9, 69, 95
1, 20207, Lyric_t, "a "
1, 20208, Note_on_c, 7, 42, 75
1, 20208, Note_on_c, 9, 81, 26
1, 20211, Note_on_c, 9, 69, 0
1, 20212, Note_on_c, 9, 81, 0
1, 20219, Note_on_c, 7, 42, 0
1, 20222, Note_on_c, 2, 64, 0
1, 20232, Note_on_c, 2, 64, 95
1, 20232, Note_on_c, 9, 81, 24
1, 20232, Lyric_t, "you "
1, 20236, Note_on_c, 9, 81, 0
1, 20256, Note_on_c, 1, 44, 94
1, 20256, Note_on_c, 9, 36, 97
1, 20256, Note_on_c, 9, 37, 73
1, 20256, Note_on_c, 9, 40, 101
1, 20256, Note_on_c, 9, 39, 54
1, 20256, Note_on_c, 10, 44, 54
1, 20256, Note_on_c, 11, 44, 66
1, 20260, Note_on_c, 9, 39, 0
1, 20260, Note_on_c, 9, 37, 0
1, 20260, Note_on_c, 9, 36, 0
1, 20260, Note_on_c, 9, 40, 0
1, 20262, Note_on_c, 2, 64, 0
1, 20280, Note_on_c, 2, 68, 101
1, 20280, Lyric_t, "can't "
1, 20300, Note_on_c, 11, 44, 0
1, 20300, Note_on_c, 10, 44, 0
1, 20300, Note_on_c, 1, 44, 0
1, 20303, Note_on_c, 9, 39, 30
1, 20304, Note_on_c, 1, 39, 89
1, 20304, Note_on_c, 9, 36, 96
1, 20304, Note_on_c, 9, 81, 29
1, 20304, Note_on_c, 11, 39, 66
1, 20305, Note_on_c, 2, 68, 0
1, 20305, Note_on_c, 9, 42, 78
1, 20306, Note_on_c, 10, 39, 58
1, 20307, Note_on_c, 9, 39, 0
1, 20308, Note_on_c, 9, 36, 0
1, 20308, Note_on_c, 9, 81, 0
1, 20309, Note_on_c, 9, 42, 0
1, 20330, Note_on_c, 2, 68, 99
1, 20330, Lyric_t, "take, "
1, 20330, Lyric_t, "\015"
1, 20330, Lyric_t, "\012"
1, 20346, Note_on_c, 1, 39, 0
1, 20346, Note_on_c, 11, 39, 0
1, 20348, Note_on_c, 10, 39, 0
1, 20352, Note_on_c, 1, 37, 94
1, 20352, Note_on_c, 9, 36, 95
1, 20352, Note_on_c, 9, 49, 33
1, 20352, Note_on_c, 9, 81, 25
1, 20352, Note_on_c, 9, 42, 78
1, 20352, Note_on_c, 9, 84, 20
1, 20352, Note_on_c, 10, 37, 58
1, 20352, Note_on_c, 11, 37, 60
1, 20355, Control_c, 2, 1, 26
1, 20356, Note_on_c, 9, 84, 0
1, 20356, Note_on_c, 9, 49, 0
1, 20356, Note_on_c, 9, 36, 0
1, 20356, Note_on_c, 9, 81, 0
1, 20356, Note_on_c, 9, 42, 0
1, 20360, Control_c, 2, 1, 47
1, 20364, Control_c, 2, 1, 57
1, 20368, Control_c, 2, 1, 63
1, 20372, Control_c, 2, 11, 127
1, 20376, Control_c, 2, 11, 122
1, 20380, Control_c, 2, 11, 116
1, 20381, Control_c, 2, 1, 62
1, 20383, Control_c, 2, 1, 61
1, 20384, Control_c, 2, 11, 111
1, 20388, Control_c, 2, 11, 105
1, 20388, Control_c, 2, 1, 60
1, 20392, Control_c, 2, 11, 100
1, 20393, Control_c, 2, 1, 59
1, 20396, Control_c, 2, 11, 94
1, 20396, Control_c, 2, 1, 52
1, 20397, Note_on_c, 2, 68, 0
1, 20399, Note_on_c, 9, 81, 28
1, 20400, Control_c, 2, 11, 83
1, 20400, Control_c, 2, 1, 31
1, 20400, Note_on_c, 9, 42, 80
1, 20403, Note_on_c, 9, 81, 0
1, 20404, Note_on_c, 9, 42, 0
1, 20405, Note_on_c, 1, 37, 0
1, 20405, Note_on_c, 10, 37, 0
1, 20405, Note_on_c, 11, 37, 0
1, 20405, Control_c, 2, 1, 2
1, 20408, Control_c, 2, 11, 78
1, 20409, Control_c, 2, 1, 0
1, 20412, Control_c, 2, 11, 73
1, 20424, Control_c, 2, 11, 127
1, 20447, Note_on_c, 2, 71, 101
1, 20447, Note_on_c, 6, 49, 76
1, 20447, Note_on_c, 9, 81, 27
1, 20447, Lyric_t, "From "
1, 20448, Note_on_c, 1, 37, 91
1, 20448, Pitch_bend_c, 2, 3313
1, 20448, Note_on_c, 9, 36, 95
1, 20448, Note_on_c, 9, 37, 72
1, 20448, Note_on_c, 9, 40, 96
1, 20448, Note_on_c, 9, 69, 94
1, 20448, Note_on_c, 9, 84, 23
1, 20448, Note_on_c, 10, 37, 60
1, 20448, Note_on_c, 11, 37, 68
1, 20449, Note_on_c, 9, 39, 49
1, 20451, Note_on_c, 9, 81, 0
1, 20452, Note_on_c, 9, 84, 0
1, 20452, Note_on_c, 9, 69, 0
1, 20452, Note_on_c, 9, 36, 0
1, 20452, Note_on_c, 9, 40, 0
1, 20452, Note_on_c, 9, 37, 0
1, 20452, Pitch_bend_c, 2, 4393
1, 20453, Note_on_c, 9, 39, 0
1, 20456, Pitch_bend_c, 2, 5473
1, 20460, Pitch_bend_c, 2, 6553
1, 20464, Pitch_bend_c, 2, 7633
1, 20468, Pitch_bend_c, 2, 8192
1, 20471, Note_on_c, 6, 49, 0
1, 20471, Note_on_c, 9, 81, 24
1, 20472, Note_on_c, 9, 42, 77
1, 20472, Note_on_c, 9, 69, 100
1, 20475, Note_on_c, 9, 81, 0
1, 20476, Note_on_c, 9, 42, 0
1, 20476, Note_on_c, 9, 69, 0
1, 20478, Note_on_c, 1, 37, 0
1, 20478, Note_on_c, 11, 37, 0
1, 20478, Note_on_c, 10, 37, 0
1, 20487, Note_on_c, 2, 71, 0
1, 20495, Note_on_c, 2, 69, 95
1, 20495, Note_on_c, 9, 81, 27
1, 20495, Lyric_t, "the "
1, 20496, Note_on_c, 5, 88, 82
1, 20496, Note_on_c, 6, 47, 74
1, 20496, Note_on_c, 9, 39, 24
1, 20496, Note_on_c, 9, 69, 97
1, 20499, Note_on_c, 9, 81, 0
1, 20500, Note_on_c, 9, 39, 0
1, 20500, Note_on_c, 9, 69, 0
1, 20514, Note_on_c, 5, 88, 0
1, 20520, Note_on_c, 6, 47, 0
1, 20520, Note_on_c, 9, 69, 97
1, 20524, Note_on_c, 9, 69, 0
1, 20527, Note_on_c, 2, 69, 0
1, 20528, Note_on_c, 5, 90, 77
1, 20543, Note_on_c, 1, 37, 91
1, 20543, Note_on_c, 2, 68, 96
1, 20543, Note_on_c, 5, 92, 75
1, 20543, Note_on_c, 9, 36, 104
1, 20543, Note_on_c, 9, 84, 14
1, 20543, Note_on_c, 10, 37, 55
1, 20543, Note_on_c, 11, 37, 59
1, 20543, Lyric_t, "truth "
1, 20544, Note_on_c, 6, 49, 73
1, 20544, Note_on_c, 9, 42, 81
1, 20544, Note_on_c, 9, 69, 97
1, 20544, Note_on_c, 9, 81, 25
1, 20545, Note_on_c, 5, 90, 0
1, 20547, Note_on_c, 9, 36, 0
1, 20547, Note_on_c, 9, 84, 0
1, 20548, Note_on_c, 9, 69, 0
1, 20548, Note_on_c, 9, 42, 0
1, 20548, Note_on_c, 9, 81, 0
1, 20558, Note_on_c, 5, 92, 0
1, 20568, Note_on_c, 9, 42, 61
1, 20568, Note_on_c, 9, 81, 28
1, 20571, Note_on_c, 2, 68, 0
1, 20572, Note_on_c, 9, 42, 0
1, 20572, Note_on_c, 9, 81, 0
1, 20574, Note_on_c, 6, 49, 0
1, 20580, Note_on_c, 10, 37, 0
1, 20580, Note_on_c, 1, 37, 0
1, 20580, Note_on_c, 11, 37, 0
1, 20591, Note_on_c, 2, 64, 75
1, 20591, Lyric_t, "you "
1, 20592, Note_on_c, 5, 88, 68
1, 20592, Note_on_c, 9, 81, 22
1, 20596, Note_on_c, 9, 81, 0
1, 20607, Note_on_c, 5, 88, 0
1, 20616, Note_on_c, 2, 63, 67
1, 20616, Note_on_c, 9, 42, 80
1, 20616, Note_on_c, 9, 81, 23
1, 20616, Lyric_t, "can't "
1, 20617, Note_on_c, 2, 64, 0
1, 20620, Note_on_c, 9, 81, 0
1, 20620, Note_on_c, 9, 42, 0
1, 20624, Note_on_c, 5, 90, 63
1, 20637, Note_on_c, 5, 90, 0
1, 20639, Note_on_c, 5, 92, 61
1, 20640, Note_on_c, 1, 37, 90
1, 20640, Note_on_c, 9, 36, 98
1, 20640, Note_on_c, 9, 37, 77
1, 20640, Note_on_c, 9, 40, 95
1, 20640, Note_on_c, 9, 39, 57
1, 20640, Note_on_c, 9, 84, 22
1, 20640, Note_on_c, 10, 37, 60
1, 20640, Note_on_c, 11, 37, 64
1, 20644, Note_on_c, 9, 84, 0
1, 20644, Note_on_c, 9, 39, 0
1, 20644, Note_on_c, 9, 36, 0
1, 20644, Note_on_c, 2, 63, 0
1, 20644, Note_on_c, 9, 37, 0
1, 20644, Note_on_c, 9, 40, 0
1, 20653, Note_on_c, 5, 92, 0
1, 20664, Note_on_c, 2, 64, 99
1, 20664, Lyric_t, "es"
1, 20673, Note_on_c, 11, 37, 0
1, 20673, Note_on_c, 10, 37, 0
1, 20673, Note_on_c, 1, 37, 0
1, 20687, Note_on_c, 5, 88, 54
1, 20687, Note_on_c, 9, 39, 24
1, 20688, Note_on_c, 9, 42, 78
1, 20688, Note_on_c, 9, 81, 23
1, 20691, Note_on_c, 9, 39, 0
1, 20692, Note_on_c, 9, 42, 0
1, 20692, Note_on_c, 9, 81, 0
1, 20692, Note_on_c, 2, 64, 0
1, 20702, Note_on_c, 5, 88, 0
1, 20712, Pitch_bend_c, 2, 5399
1, 20712, Note_on_c, 2, 66, 97
1, 20712, Lyric_t, "cape, "
1, 20712, Lyric_t, "\015"
1, 20716, Pitch_bend_c, 2, 5740
1, 20720, Pitch_bend_c, 2, 6081
1, 20720, Note_on_c, 5, 90, 49
1, 20724, Pitch_bend_c, 2, 6422
1, 20728, Pitch_bend_c, 2, 6763
1, 20731, Note_on_c, 5, 90, 0
1, 20732, Pitch_bend_c, 2, 7103
1, 20735, Note_on_c, 5, 92, 47
1, 20736, Note_on_c, 1, 37, 89
1, 20736, Pitch_bend_c, 2, 7444
1, 20736, Note_on_c, 7, 37, 88
1, 20736, Note_on_c, 9, 36, 104
1, 20736, Note_on_c, 9, 81, 29
1, 20736, Note_on_c, 10, 37, 62
1, 20736, Note_on_c, 11, 37, 62
1, 20738, Control_c, 2, 1, 18
1, 20740, Note_on_c, 9, 81, 0
1, 20740, Note_on_c, 9, 36, 0
1, 20740, Pitch_bend_c, 2, 7785
1, 20742, Control_c, 2, 1, 41
1, 20744, Pitch_bend_c, 2, 8192
1, 20746, Control_c, 2, 1, 56
1, 20749, Note_on_c, 5, 92, 0
1, 20751, Control_c, 2, 1, 63
1, 20761, Control_c, 2, 1, 58
1, 20765, Control_c, 2, 1, 51
1, 20769, Control_c, 2, 1, 37
1, 20774, Control_c, 2, 1, 22
1, 20776, Pitch_bend_c, 2, 8222
1, 20778, Control_c, 2, 1, 4
1, 20780, Pitch_bend_c, 2, 7750
1, 20782, Control_c, 2, 1, 0
1, 20783, Note_on_c, 9, 81, 23
1, 20784, Pitch_bend_c, 2, 7277
1, 20787, Note_on_c, 9, 81, 0
1, 20788, Control_c, 2, 11, 114
1, 20788, Pitch_bend_c, 2, 6805
1, 20789, Note_on_c, 1, 37, 0
1, 20789, Note_on_c, 11, 37, 0
1, 20789, Note_on_c, 10, 37, 0
1, 20792, Control_c, 2, 11, 102
1, 20792, Pitch_bend_c, 2, 6332
1, 20796, Control_c, 2, 11, 77
1, 20796, Pitch_bend_c, 2, 5860
1, 20800, Note_on_c, 2, 66, 0
1, 20800, Pitch_bend_c, 2, 5387
1, 20802, Note_on_c, 7, 37, 0
1, 20804, Control_c, 2, 11, 64
1, 20804, Pitch_bend_c, 2, 4915
1, 20808, Control_c, 2, 11, 52
1, 20808, Pitch_bend_c, 2, 4442
1, 20808, Note_on_c, 7, 37, 68
1, 20808, Note_on_c, 9, 42, 79
1, 20812, Note_on_c, 9, 42, 0
1, 20812, Control_c, 2, 11, 39
1, 20812, Pitch_bend_c, 2, 3970
1, 20816, Pitch_bend_c, 2, 8192
1, 20820, Control_c, 2, 11, 127
1, 20829, Note_on_c, 2, 64, 96
1, 20829, Lyric_t, "I "
1, 20831, Note_on_c, 6, 49, 75
1, 20831, Note_on_c, 9, 42, 75
1, 20831, Note_on_c, 9, 69, 93
1, 20831, Note_on_c, 9, 81, 30
1, 20832, Tempo, 638298
1, 20832, Note_on_c, 1, 37, 87
1, 20832, Note_on_c, 9, 36, 97
1, 20832, Note_on_c, 9, 37, 73
1, 20832, Note_on_c, 9, 40, 97
1, 20832, Note_on_c, 10, 37, 61
1, 20832, Note_on_c, 11, 37, 66
1, 20833, Note_on_c, 9, 39, 55
1, 20835, Note_on_c, 9, 81, 0
1, 20835, Note_on_c, 9, 42, 0
1, 20835, Note_on_c, 9, 69, 0
1, 20836, Note_on_c, 9, 37, 0
1, 20836, Note_on_c, 9, 36, 0
1, 20836, Note_on_c, 9, 40, 0
1, 20837, Note_on_c, 9, 39, 0
1, 20838, Note_on_c, 7, 37, 0
1, 20853, Note_on_c, 2, 64, 0
1, 20855, Note_on_c, 9, 81, 29
1, 20856, Note_on_c, 6, 49, 0
1, 20859, Note_on_c, 9, 81, 0
1, 20870, Note_on_c, 1, 37, 0
1, 20870, Note_on_c, 10, 37, 0
1, 20870, Note_on_c, 11, 37, 0
1, 20878, Note_on_c, 2, 64, 103
1, 20878, Lyric_t, "can "
1, 20879, Note_on_c, 9, 69, 98
1, 20879, Note_on_c, 9, 81, 31
1, 20879, Note_on_c, 9, 42, 77
1, 20880, Note_on_c, 6, 47, 74
1, 20880, Note_on_c, 9, 39, 27
1, 20883, Note_on_c, 9, 42, 0
1, 20883, Note_on_c, 9, 81, 0
1, 20883, Note_on_c, 9, 69, 0
1, 20884, Note_on_c, 9, 39, 0
1, 20885, Note_on_c, 2, 64, 0
1, 20901, Note_on_c, 2, 64, 63
1, 20901, Lyric_t, "tell "
1, 20902, Note_on_c, 6, 47, 0
1, 20909, Note_on_c, 2, 64, 0
1, 20912, Note_on_c, 9, 40, 76
1, 20916, Note_on_c, 9, 40, 0
1, 20925, Note_on_c, 2, 66, 101
1, 20925, Lyric_t, "real "
1, 20927, Note_on_c, 1, 37, 94
1, 20927, Note_on_c, 9, 42, 81
1, 20927, Note_on_c, 9, 36, 98
1, 20927, Note_on_c, 10, 37, 61
1, 20927, Note_on_c, 11, 37, 64
1, 20928, Note_on_c, 6, 49, 73
1, 20928, Note_on_c, 9, 81, 28
1, 20931, Note_on_c, 9, 36, 0
1, 20931, Note_on_c, 9, 42, 0
1, 20932, Note_on_c, 9, 81, 0
1, 20934, Control_c, 2, 1, 4
1, 20935, Control_c, 2, 1, 27
1, 20940, Control_c, 2, 1, 45
1, 20944, Control_c, 2, 1, 55
1, 20950, Control_c, 2, 1, 57
1, 20951, Note_on_c, 9, 38, 49
1, 20952, Note_on_c, 9, 42, 52
1, 20952, Note_on_c, 9, 81, 28
1, 20953, Pitch_bend_c, 2, 7808
1, 20954, Pitch_bend_c, 2, 5376
1, 20955, Note_on_c, 9, 38, 0
1, 20955, Control_c, 2, 1, 54
1, 20956, Note_on_c, 9, 81, 0
1, 20956, Note_on_c, 9, 42, 0
1, 20957, Note_on_c, 6, 49, 0
1, 20957, Pitch_bend_c, 2, 0
1, 20958, Control_c, 2, 1, 47
1, 20962, Control_c, 2, 1, 39
1, 20964, Note_on_c, 10, 37, 0
1, 20964, Note_on_c, 11, 37, 0
1, 20964, Note_on_c, 1, 37, 0
1, 20967, Control_c, 2, 1, 27
1, 20972, Control_c, 2, 1, 17
1, 20975, Note_on_c, 9, 69, 101
1, 20976, Control_c, 2, 1, 1
1, 20976, Note_on_c, 7, 37, 75
1, 20976, Note_on_c, 9, 38, 54
1, 20976, Note_on_c, 9, 81, 27
1, 20979, Note_on_c, 9, 69, 0
1, 20980, Note_on_c, 9, 38, 0
1, 20980, Note_on_c, 2, 66, 0
1, 20980, Note_on_c, 9, 81, 0
1, 20992, Pitch_bend_c, 2, 8192
1, 20993, Note_on_c, 7, 37, 0
1, 20998, Note_on_c, 2, 64, 97
1, 20998, Lyric_t, "the "
1, 21000, Note_on_c, 9, 38, 50
1, 21000, Note_on_c, 9, 81, 31
1, 21004, Note_on_c, 9, 81, 0
1, 21004, Note_on_c, 9, 38, 0
1, 21024, Note_on_c, 1, 40, 94
1, 21024, Note_on_c, 9, 36, 98
1, 21024, Note_on_c, 9, 38, 55
1, 21024, Note_on_c, 9, 37, 76
1, 21024, Note_on_c, 9, 40, 95
1, 21024, Note_on_c, 9, 39, 52
1, 21024, Note_on_c, 10, 40, 56
1, 21024, Note_on_c, 11, 40, 60
1, 21028, Note_on_c, 9, 39, 0
1, 21028, Note_on_c, 9, 38, 0
1, 21028, Note_on_c, 9, 36, 0
1, 21028, Note_on_c, 9, 37, 0
1, 21028, Note_on_c, 9, 40, 0
1, 21038, Note_on_c, 2, 64, 0
1, 21044, Pitch_bend_c, 2, 2761
1, 21048, Pitch_bend_c, 2, 3722
1, 21048, Note_on_c, 7, 37, 75
1, 21049, Note_on_c, 2, 71, 99
1, 21049, Lyric_t, "from "
1, 21052, Pitch_bend_c, 2, 4683
1, 21056, Pitch_bend_c, 2, 5644
1, 21060, Pitch_bend_c, 2, 6606
1, 21064, Pitch_bend_c, 2, 7567
1, 21065, Note_on_c, 7, 37, 0
1, 21068, Pitch_bend_c, 2, 8192
1, 21071, Note_on_c, 11, 40, 0
1, 21071, Note_on_c, 1, 40, 0
1, 21071, Note_on_c, 10, 40, 0
1, 21071, Note_on_c, 9, 39, 25
1, 21072, Note_on_c, 1, 44, 90
1, 21072, Note_on_c, 9, 36, 97
1, 21072, Note_on_c, 9, 81, 26
1, 21072, Note_on_c, 10, 44, 62
1, 21072, Note_on_c, 11, 44, 63
1, 21073, Note_on_c, 2, 71, 0
1, 21073, Note_on_c, 9, 42, 76
1, 21075, Note_on_c, 9, 39, 0
1, 21076, Note_on_c, 9, 36, 0
1, 21076, Note_on_c, 9, 81, 0
1, 21077, Note_on_c, 9, 42, 0
1, 21097, Note_on_c, 2, 69, 101
1, 21097, Lyric_t, "the "
1, 21114, Note_on_c, 10, 44, 0
1, 21114, Note_on_c, 1, 44, 0
1, 21114, Note_on_c, 11, 44, 0
1, 21120, Note_on_c, 1, 42, 94
1, 21120, Note_on_c, 8, 54, 101
1, 21120, Note_on_c, 9, 36, 95
1, 21120, Note_on_c, 9, 49, 29
1, 21120, Note_on_c, 9, 81, 30
1, 21120, Note_on_c, 9, 42, 78
1, 21120, Note_on_c, 9, 84, 18
1, 21120, Note_on_c, 10, 42, 54
1, 21120, Note_on_c, 11, 42, 68
1, 21120, Note_on_c, 15, 54, 74
1, 21124, Note_on_c, 9, 84, 0
1, 21124, Note_on_c, 9, 42, 0
1, 21124, Note_on_c, 9, 36, 0
1, 21124, Note_on_c, 9, 81, 0
1, 21124, Note_on_c, 9, 49, 0
1, 21144, Note_on_c, 15, 57, 72
1, 21146, Note_on_c, 2, 68, 71
1, 21146, Lyric_t, "fake. "
1, 21146, Lyric_t, "\015"
1, 21146, Lyric_t, "\012"
1, 21149, Note_on_c, 2, 69, 0
1, 21158, Note_on_c, 1, 42, 0
1, 21158, Note_on_c, 11, 42, 0
1, 21158, Note_on_c, 10, 42, 0
1, 21165, Note_on_c, 15, 57, 0
1, 21167, Note_on_c, 9, 81, 25
1, 21168, Note_on_c, 9, 42, 82
1, 21168, Note_on_c, 15, 61, 80
1, 21171, Note_on_c, 9, 81, 0
1, 21172, Note_on_c, 9, 42, 0
1, 21189, Control_c, 2, 1, 14
1, 21192, Control_c, 2, 1, 32
1, 21192, Note_on_c, 15, 64, 77
1, 21196, Note_on_c, 15, 61, 0
1, 21196, Control_c, 2, 1, 42
1, 21200, Control_c, 2, 11, 126
1, 21201, Control_c, 2, 1, 50
1, 21204, Control_c, 2, 11, 121
1, 21206, Control_c, 2, 1, 53
1, 21208, Control_c, 2, 11, 117
1, 21210, Control_c, 2, 1, 55
1, 21212, Control_c, 2, 11, 112
1, 21215, Note_on_c, 6, 49, 76
1, 21215, Note_on_c, 9, 81, 27
1, 21216, Note_on_c, 15, 64, 0
1, 21216, Control_c, 2, 11, 107
1, 21216, Pitch_bend_c, 3, 4724
1, 21216, Note_on_c, 3, 64, 97
1, 21216, Note_on_c, 9, 69, 95
1, 21216, Note_on_c, 9, 84, 15
1, 21216, Note_on_c, 15, 68, 76
1, 21216, Lyric_t, "When "
1, 21217, Note_on_c, 9, 39, 51
1, 21219, Note_on_c, 9, 81, 0
1, 21220, Note_on_c, 9, 84, 0
1, 21220, Note_on_c, 9, 69, 0
1, 21220, Control_c, 2, 11, 102
1, 21220, Pitch_bend_c, 3, 5782
1, 21221, Note_on_c, 9, 39, 0
1, 21224, Control_c, 2, 11, 98
1, 21224, Pitch_bend_c, 3, 6841
1, 21228, Control_c, 2, 11, 88
1, 21228, Pitch_bend_c, 3, 7899
1, 21232, Pitch_bend_c, 3, 8283
1, 21236, Control_c, 2, 11, 83
1, 21239, Note_on_c, 6, 49, 0
1, 21239, Note_on_c, 9, 81, 24
1, 21240, Control_c, 2, 11, 78
1, 21240, Note_on_c, 9, 42, 76
1, 21240, Note_on_c, 9, 69, 95
1, 21240, Note_on_c, 15, 64, 78
1, 21241, Note_on_c, 2, 68, 0
1, 21243, Note_on_c, 9, 81, 0
1, 21243, Note_on_c, 15, 68, 0
1, 21243, Control_c, 2, 1, 54
1, 21244, Note_on_c, 9, 69, 0
1, 21244, Note_on_c, 9, 42, 0
1, 21244, Control_c, 2, 11, 74
1, 21248, Control_c, 2, 11, 69
1, 21249, Note_on_c, 3, 64, 0
1, 21249, Control_c, 2, 1, 53
1, 21251, Note_on_c, 8, 54, 0
1, 21252, Control_c, 2, 1, 52
1, 21252, Control_c, 2, 11, 64
1, 21256, Control_c, 2, 11, 59
1, 21256, Control_c, 2, 1, 51
1, 21260, Control_c, 2, 11, 55
1, 21263, Note_on_c, 3, 71, 102
1, 21263, Note_on_c, 9, 81, 29
1, 21263, Lyric_t, "will "
1, 21264, Control_c, 2, 11, 45
1, 21264, Note_on_c, 5, 90, 86
1, 21264, Note_on_c, 6, 47, 75
1, 21264, Note_on_c, 8, 57, 103
1, 21264, Note_on_c, 9, 39, 27
1, 21264, Note_on_c, 9, 69, 95
1, 21265, Note_on_c, 15, 57, 80
1, 21266, Note_on_c, 15, 64, 0
1, 21267, Note_on_c, 9, 81, 0
1, 21267, Control_c, 2, 1, 50
1, 21268, Note_on_c, 9, 69, 0
1, 21268, Note_on_c, 9, 39, 0
1, 21270, Control_c, 2, 1, 48
1, 21272, Control_c, 2, 11, 40
1, 21272, Pitch_bend_c, 3, 8774
1, 21273, Control_c, 2, 1, 42
1, 21276, Control_c, 2, 11, 36
1, 21277, Control_c, 2, 1, 35
1, 21281, Note_on_c, 5, 90, 0
1, 21282, Control_c, 2, 1, 28
1, 21283, Note_on_c, 15, 57, 0
1, 21286, Control_c, 2, 1, 21
1, 21287, Note_on_c, 15, 61, 75
1, 21288, Note_on_c, 6, 47, 0
1, 21288, Control_c, 2, 11, 127
1, 21288, Note_on_c, 9, 69, 97
1, 21291, Control_c, 2, 1, 13
1, 21292, Note_on_c, 9, 69, 0
1, 21294, Note_on_c, 8, 57, 0
1, 21295, Control_c, 2, 1, 8
1, 21295, Note_on_c, 5, 92, 82
1, 21296, Pitch_bend_c, 3, 8283
1, 21298, Note_on_c, 15, 54, 0
1, 21301, Control_c, 2, 1, 4
1, 21303, Note_on_c, 15, 61, 0
1, 21304, Note_on_c, 3, 71, 0
1, 21304, Control_c, 2, 1, 1
1, 21311, Note_on_c, 3, 69, 101
1, 21311, Note_on_c, 9, 84, 16
1, 21311, Lyric_t, "you "
1, 21312, Note_on_c, 5, 93, 80
1, 21312, Note_on_c, 6, 49, 72
1, 21312, Note_on_c, 8, 54, 95
1, 21312, Note_on_c, 9, 42, 81
1, 21312, Note_on_c, 9, 69, 99
1, 21312, Note_on_c, 9, 81, 23
1, 21312, Note_on_c, 15, 54, 76
1, 21315, Note_on_c, 9, 84, 0
1, 21316, Note_on_c, 9, 81, 0
1, 21316, Note_on_c, 9, 69, 0
1, 21316, Note_on_c, 9, 42, 0
1, 21316, Note_on_c, 5, 92, 0
1, 21331, Note_on_c, 5, 93, 0
1, 21332, Pitch_bend_c, 3, 8192
1, 21336, Pitch_bend_c, 3, 7768
1, 21336, Note_on_c, 9, 42, 53
1, 21336, Note_on_c, 9, 81, 26
1, 21336, Note_on_c, 15, 69, 76
1, 21340, Note_on_c, 9, 81, 0
1, 21340, Note_on_c, 8, 54, 0
1, 21340, Note_on_c, 9, 42, 0
1, 21340, Pitch_bend_c, 3, 7343
1, 21342, Note_on_c, 6, 49, 0
1, 21344, Pitch_bend_c, 3, 6919
1, 21348, Pitch_bend_c, 3, 6494
1, 21349, Note_on_c, 3, 69, 0
1, 21352, Pitch_bend_c, 3, 6070
1, 21356, Pitch_bend_c, 3, 8192
1, 21359, Note_on_c, 3, 68, 98
1, 21359, Lyric_t, "get "
1, 21360, Note_on_c, 5, 90, 73
1, 21360, Note_on_c, 8, 57, 95
1, 21360, Note_on_c, 9, 81, 28
1, 21360, Note_on_c, 15, 57, 74
1, 21361, Note_on_c, 15, 69, 0
1, 21364, Note_on_c, 9, 81, 0
1, 21375, Note_on_c, 3, 68, 0
1, 21378, Note_on_c, 15, 57, 0
1, 21379, Note_on_c, 5, 90, 0
1, 21384, Note_on_c, 3, 66, 101
1, 21384, Note_on_c, 9, 42, 83
1, 21384, Note_on_c, 9, 81, 29
1, 21384, Note_on_c, 15, 64, 72
1, 21384, Lyric_t, "the "
1, 21388, Note_on_c, 9, 81, 0
1, 21388, Note_on_c, 9, 42, 0
1, 21391, Note_on_c, 5, 92, 69
1, 21403, Note_on_c, 3, 66, 0
1, 21407, Note_on_c, 9, 84, 18
1, 21408, Note_on_c, 5, 93, 67
1, 21408, Note_on_c, 9, 37, 73
1, 21408, Note_on_c, 9, 40, 99
1, 21408, Note_on_c, 9, 39, 50
1, 21408, Note_on_c, 15, 61, 80
1, 21408, Note_on_c, 15, 57, 77
1, 21409, Note_on_c, 15, 64, 0
1, 21411, Note_on_c, 9, 84, 0
1, 21412, Note_on_c, 9, 39, 0
1, 21412, Note_on_c, 9, 40, 0
1, 21412, Note_on_c, 5, 92, 0
1, 21412, Note_on_c, 9, 37, 0
1, 21427, Note_on_c, 15, 57, 0
1, 21427, Note_on_c, 5, 93, 0
1, 21432, Note_on_c, 3, 64, 103
1, 21432, Note_on_c, 15, 57, 72
1, 21432, Lyric_t, "pic"
1, 21433, Note_on_c, 15, 61, 0
1, 21454, Note_on_c, 3, 64, 0
1, 21454, Note_on_c, 15, 57, 0
1, 21455, Note_on_c, 9, 39, 24
1, 21456, Note_on_c, 5, 90, 61
1, 21456, Note_on_c, 9, 42, 79
1, 21456, Note_on_c, 9, 81, 28
1, 21456, Note_on_c, 15, 61, 79
1, 21456, Note_on_c, 15, 57, 72
1, 21459, Note_on_c, 9, 39, 0
1, 21460, Note_on_c, 9, 42, 0
1, 21460, Note_on_c, 9, 81, 0
1, 21461, Note_on_c, 8, 57, 0
1, 21472, Note_on_c, 15, 54, 0
1, 21473, Note_on_c, 15, 57, 0
1, 21475, Note_on_c, 5, 90, 0
1, 21480, Note_on_c, 3, 61, 99
1, 21480, Note_on_c, 8, 54, 95
1, 21480, Note_on_c, 15, 54, 77
1, 21480, Lyric_t, "ture, "
1, 21480, Lyric_t, "\015"
1, 21481, Note_on_c, 15, 61, 0
1, 21487, Note_on_c, 5, 92, 57
1, 21501, Note_on_c, 8, 54, 0
1, 21504, Note_on_c, 15, 54, 0
1, 21504, Note_on_c, 1, 42, 85
1, 21504, Note_on_c, 5, 93, 55
1, 21504, Note_on_c, 7, 42, 85
1, 21504, Note_on_c, 8, 54, 97
1, 21504, Note_on_c, 9, 36, 97
1, 21504, Note_on_c, 9, 81, 25
1, 21504, Note_on_c, 10, 42, 57
1, 21504, Note_on_c, 11, 42, 59
1, 21504, Note_on_c, 15, 66, 75
1, 21505, Control_c, 3, 1, 6
1, 21507, Control_c, 3, 1, 23
1, 21508, Note_on_c, 9, 81, 0
1, 21508, Note_on_c, 9, 36, 0
1, 21511, Control_c, 3, 1, 36
1, 21512, Note_on_c, 5, 92, 0
1, 21516, Control_c, 3, 1, 43
1, 21520, Control_c, 3, 1, 45
1, 21525, Control_c, 3, 1, 46
1, 21527, Note_on_c, 15, 57, 78
1, 21532, Control_c, 3, 1, 45
1, 21533, Note_on_c, 5, 93, 0
1, 21534, Control_c, 3, 1, 42
1, 21541, Control_c, 3, 1, 41
1, 21542, Note_on_c, 10, 42, 0
1, 21542, Note_on_c, 11, 42, 0
1, 21542, Note_on_c, 1, 42, 0
1, 21546, Note_on_c, 15, 57, 0
1, 21551, Note_on_c, 9, 81, 22
1, 21551, Note_on_c, 15, 61, 79
1, 21555, Note_on_c, 9, 81, 0
1, 21563, Note_on_c, 3, 61, 0
1, 21563, Control_c, 3, 1, 38
1, 21566, Control_c, 3, 1, 29
1, 21570, Control_c, 3, 1, 0
1, 21575, Note_on_c, 15, 57, 73
1, 21576, Note_on_c, 7, 42, 0
1, 21576, Note_on_c, 7, 42, 76
1, 21576, Note_on_c, 9, 42, 83
1, 21580, Note_on_c, 9, 42, 0
1, 21595, Note_on_c, 15, 57, 0
1, 21596, Note_on_c, 15, 61, 0
1, 21597, Note_on_c, 3, 66, 99
1, 21597, Lyric_t, "You're "
1, 21599, Note_on_c, 7, 42, 0
1, 21599, Note_on_c, 6, 49, 75
1, 21599, Note_on_c, 9, 42, 77
1, 21599, Note_on_c, 9, 69, 99
1, 21599, Note_on_c, 9, 81, 28
1, 21599, Note_on_c, 15, 57, 80
1, 21599, Note_on_c, 15, 64, 74
1, 21600, Tempo, 645161
1, 21600, Note_on_c, 1, 42, 91
1, 21600, Note_on_c, 9, 36, 99
1, 21600, Note_on_c, 9, 37, 77
1, 21600, Note_on_c, 9, 40, 104
1, 21600, Note_on_c, 10, 42, 60
1, 21600, Note_on_c, 11, 42, 62
1, 21601, Note_on_c, 9, 39, 56
1, 21603, Note_on_c, 9, 81, 0
1, 21603, Note_on_c, 9, 69, 0
1, 21603, Note_on_c, 9, 42, 0
1, 21604, Note_on_c, 9, 36, 0
1, 21604, Note_on_c, 9, 40, 0
1, 21604, Note_on_c, 9, 37, 0
1, 21605, Note_on_c, 9, 39, 0
1, 21613, Note_on_c, 15, 57, 0
1, 21618, Note_on_c, 15, 64, 0
1, 21618, Note_on_c, 15, 66, 0
1, 21623, Note_on_c, 9, 81, 25
1, 21624, Note_on_c, 6, 49, 0
1, 21624, Note_on_c, 15, 68, 81
1, 21627, Note_on_c, 9, 81, 0
1, 21632, Note_on_c, 10, 42, 0
1, 21632, Note_on_c, 1, 42, 0
1, 21632, Note_on_c, 11, 42, 0
1, 21633, Note_on_c, 3, 66, 0
1, 21637, Note_on_c, 8, 54, 0
1, 21645, Note_on_c, 15, 68, 0
1, 21646, Note_on_c, 3, 68, 99
1, 21646, Lyric_t, "the "
1, 21647, Note_on_c, 8, 57, 98
1, 21647, Note_on_c, 9, 69, 94
1, 21647, Note_on_c, 9, 81, 30
1, 21647, Note_on_c, 9, 42, 83
1, 21648, Note_on_c, 6, 47, 79
1, 21648, Note_on_c, 7, 42, 72
1, 21648, Note_on_c, 9, 39, 28
1, 21648, Note_on_c, 15, 57, 75
1, 21651, Note_on_c, 9, 42, 0
1, 21651, Note_on_c, 9, 81, 0
1, 21651, Note_on_c, 9, 69, 0
1, 21652, Note_on_c, 9, 39, 0
1, 21664, Note_on_c, 15, 57, 0
1, 21667, Note_on_c, 8, 57, 0
1, 21669, Note_on_c, 7, 42, 0
1, 21670, Note_on_c, 6, 47, 0
1, 21671, Note_on_c, 15, 69, 76
1, 21677, Note_on_c, 3, 68, 0
1, 21680, Note_on_c, 9, 40, 78
1, 21684, Note_on_c, 9, 40, 0
1, 21690, Note_on_c, 15, 69, 0
1, 21694, Note_on_c, 3, 68, 102
1, 21694, Lyric_t, "best "
1, 21695, Note_on_c, 8, 57, 99
1, 21695, Note_on_c, 9, 42, 81
1, 21696, Note_on_c, 1, 42, 94
1, 21696, Note_on_c, 6, 49, 74
1, 21696, Note_on_c, 9, 36, 102
1, 21696, Note_on_c, 9, 81, 25
1, 21696, Note_on_c, 10, 42, 53
1, 21696, Note_on_c, 11, 42, 66
1, 21696, Note_on_c, 15, 57, 80
1, 21699, Note_on_c, 9, 42, 0
1, 21700, Note_on_c, 9, 81, 0
1, 21700, Note_on_c, 9, 36, 0
1, 21715, Note_on_c, 15, 57, 0
1, 21715, Note_on_c, 8, 57, 0
1, 21720, Note_on_c, 9, 42, 59
1, 21720, Note_on_c, 9, 81, 28
1, 21720, Note_on_c, 15, 64, 76
1, 21724, Note_on_c, 9, 81, 0
1, 21724, Note_on_c, 9, 42, 0
1, 21725, Note_on_c, 6, 49, 0
1, 21726, Note_on_c, 10, 42, 0
1, 21726, Note_on_c, 11, 42, 0
1, 21726, Note_on_c, 1, 42, 0
1, 21738, Note_on_c, 15, 64, 0
1, 21742, Note_on_c, 3, 66, 102
1, 21742, Lyric_t, "in "
1, 21743, Note_on_c, 8, 57, 97
1, 21743, Note_on_c, 9, 69, 100
1, 21743, Note_on_c, 15, 57, 79
1, 21744, Note_on_c, 3, 68, 0
1, 21744, Note_on_c, 7, 42, 71
1, 21744, Note_on_c, 9, 81, 29
1, 21747, Note_on_c, 9, 69, 0
1, 21748, Note_on_c, 9, 81, 0
1, 21755, Note_on_c, 7, 42, 0
1, 21758, Note_on_c, 3, 66, 0
1, 21761, Note_on_c, 15, 57, 0
1, 21762, Note_on_c, 8, 57, 0
1, 21767, Note_on_c, 3, 66, 96
1, 21767, Lyric_t, "the "
1, 21768, Note_on_c, 9, 81, 26
1, 21768, Note_on_c, 15, 61, 81
1, 21772, Note_on_c, 9, 81, 0
1, 21788, Note_on_c, 15, 61, 0
1, 21791, Note_on_c, 8, 54, 96
1, 21791, Note_on_c, 15, 54, 72
1, 21792, Note_on_c, 1, 44, 88
1, 21792, Note_on_c, 9, 36, 102
1, 21792, Note_on_c, 9, 37, 77
1, 21792, Note_on_c, 9, 40, 95
1, 21792, Note_on_c, 9, 39, 53
1, 21792, Note_on_c, 10, 44, 54
1, 21792, Note_on_c, 11, 44, 65
1, 21796, Note_on_c, 9, 39, 0
1, 21796, Note_on_c, 9, 40, 0
1, 21796, Note_on_c, 9, 37, 0
1, 21796, Note_on_c, 9, 36, 0
1, 21803, Note_on_c, 3, 66, 0
1, 21815, Note_on_c, 15, 61, 72
1, 21819, Note_on_c, 3, 64, 98
1, 21819, Lyric_t, "fu"
1, 21836, Note_on_c, 1, 44, 0
1, 21836, Note_on_c, 11, 44, 0
1, 21836, Note_on_c, 10, 44, 0
1, 21838, Note_on_c, 15, 61, 0
1, 21838, Note_on_c, 15, 64, 74
1, 21839, Note_on_c, 15, 54, 0
1, 21839, Note_on_c, 9, 39, 28
1, 21840, Note_on_c, 1, 39, 93
1, 21840, Note_on_c, 9, 36, 99
1, 21840, Note_on_c, 9, 81, 22
1, 21840, Note_on_c, 11, 39, 61
1, 21841, Pitch_bend_c, 3, 9232
1, 21841, Note_on_c, 9, 42, 81
1, 21842, Pitch_bend_c, 3, 13132
1, 21842, Note_on_c, 10, 39, 53
1, 21843, Note_on_c, 9, 39, 0
1, 21844, Note_on_c, 9, 81, 0
1, 21844, Note_on_c, 9, 36, 0
1, 21845, Note_on_c, 9, 42, 0
1, 21847, Pitch_bend_c, 3, 15732
1, 21849, Pitch_bend_c, 3, 16382
1, 21863, Note_on_c, 15, 64, 0
1, 21863, Note_on_c, 15, 68, 73
1, 21866, Note_on_c, 3, 64, 0
1, 21876, Note_on_c, 8, 54, 0
1, 21877, Pitch_bend_c, 3, 8192
1, 21880, Note_on_c, 15, 68, 0
1, 21882, Note_on_c, 11, 39, 0
1, 21882, Note_on_c, 1, 39, 0
1, 21884, Note_on_c, 10, 39, 0
1, 21888, Note_on_c, 1, 37, 88
1, 21888, Note_on_c, 3, 66, 95
1, 21888, Note_on_c, 9, 36, 97
1, 21888, Note_on_c, 9, 49, 29
1, 21888, Note_on_c, 9, 81, 28
1, 21888, Note_on_c, 9, 42, 80
1, 21888, Note_on_c, 9, 84, 20
1, 21888, Note_on_c, 10, 37, 59
1, 21888, Note_on_c, 11, 37, 60
1, 21888, Note_on_c, 15, 49, 74
1, 21888, Lyric_t, "ture, "
1, 21888, Lyric_t, "\015"
1, 21888, Lyric_t, "\012"
1, 21892, Note_on_c, 9, 84, 0
1, 21892, Note_on_c, 9, 49, 0
1, 21892, Note_on_c, 9, 36, 0
1, 21892, Note_on_c, 9, 42, 0
1, 21892, Note_on_c, 9, 81, 0
1, 21911, Note_on_c, 15, 56, 80
1, 21912, Note_on_c, 8, 56, 97
1, 21926, Note_on_c, 8, 56, 0
1, 21932, Note_on_c, 15, 56, 0
1, 21935, Note_on_c, 9, 81, 27
1, 21935, Note_on_c, 15, 59, 72
1, 21936, Note_on_c, 9, 42, 76
1, 21939, Note_on_c, 9, 81, 0
1, 21940, Note_on_c, 9, 42, 0
1, 21941, Note_on_c, 11, 37, 0
1, 21941, Note_on_c, 10, 37, 0
1, 21941, Note_on_c, 1, 37, 0
1, 21951, Note_on_c, 3, 66, 0
1, 21959, Note_on_c, 15, 56, 81
1, 21960, Note_on_c, 8, 56, 104
1, 21963, Note_on_c, 15, 59, 0
1, 21977, Note_on_c, 8, 56, 0
1, 21980, Note_on_c, 15, 56, 0
1, 21983, Note_on_c, 3, 64, 98
1, 21983, Note_on_c, 6, 49, 72
1, 21983, Note_on_c, 9, 81, 23
1, 21983, Note_on_c, 15, 63, 80
1, 21983, Lyric_t, "Get "
1, 21984, Note_on_c, 1, 37, 86
1, 21984, Note_on_c, 9, 36, 99
1, 21984, Note_on_c, 9, 37, 78
1, 21984, Note_on_c, 9, 40, 97
1, 21984, Note_on_c, 9, 69, 100
1, 21984, Note_on_c, 9, 84, 15
1, 21984, Note_on_c, 10, 37, 60
1, 21984, Note_on_c, 11, 37, 66
1, 21985, Note_on_c, 9, 39, 56
1, 21987, Note_on_c, 9, 81, 0
1, 21988, Note_on_c, 9, 84, 0
1, 21988, Note_on_c, 9, 37, 0
1, 21988, Note_on_c, 9, 69, 0
1, 21988, Note_on_c, 9, 40, 0
1, 21988, Note_on_c, 9, 36, 0
1, 21989, Note_on_c, 9, 39, 0
1, 22005, Note_on_c, 15, 63, 0
1, 22007, Note_on_c, 6, 49, 0
1, 22007, Note_on_c, 3, 66, 103
1, 22007, Note_on_c, 8, 56, 103
1, 22007, Note_on_c, 9, 81, 29
1, 22007, Note_on_c, 15, 56, 74
1, 22007, Lyric_t, "a"
1, 22008, Note_on_c, 9, 42, 76
1, 22008, Note_on_c, 9, 69, 100
1, 22011, Note_on_c, 9, 81, 0
1, 22012, Note_on_c, 9, 69, 0
1, 22012, Note_on_c, 9, 42, 0
1, 22013, Note_on_c, 3, 64, 0
1, 22014, Note_on_c, 11, 37, 0
1, 22014, Note_on_c, 1, 37, 0
1, 22014, Note_on_c, 10, 37, 0
1, 22025, Note_on_c, 8, 56, 0
1, 22026, Note_on_c, 3, 66, 0
1, 22028, Note_on_c, 15, 56, 0
1, 22031, Note_on_c, 3, 68, 103
1, 22031, Note_on_c, 9, 81, 28
1, 22031, Note_on_c, 15, 59, 77
1, 22031, Lyric_t, "way, "
1, 22032, Note_on_c, 5, 88, 87
1, 22032, Note_on_c, 6, 47, 77
1, 22032, Note_on_c, 9, 39, 26
1, 22032, Note_on_c, 9, 69, 99
1, 22035, Note_on_c, 9, 81, 0
1, 22036, Note_on_c, 9, 69, 0
1, 22036, Note_on_c, 9, 39, 0
1, 22050, Note_on_c, 5, 88, 0
1, 22055, Note_on_c, 15, 59, 0
1, 22055, Note_on_c, 8, 56, 103
1, 22055, Note_on_c, 15, 56, 79
1, 22056, Note_on_c, 3, 68, 0
1, 22056, Note_on_c, 6, 47, 0
1, 22056, Note_on_c, 3, 66, 64
1, 22056, Note_on_c, 9, 69, 98
1, 22056, Lyric_t, "it's "
1, 22060, Note_on_c, 9, 69, 0
1, 22064, Note_on_c, 5, 90, 83
1, 22068, Note_on_c, 3, 66, 0
1, 22074, Note_on_c, 8, 56, 0
1, 22079, Note_on_c, 1, 37, 88
1, 22079, Note_on_c, 3, 68, 102
1, 22079, Note_on_c, 5, 92, 81
1, 22079, Note_on_c, 9, 36, 101
1, 22079, Note_on_c, 9, 84, 22
1, 22079, Note_on_c, 10, 37, 57
1, 22079, Note_on_c, 11, 37, 60
1, 22079, Note_on_c, 15, 63, 73
1, 22079, Lyric_t, "my "
1, 22080, Note_on_c, 15, 56, 0
1, 22080, Note_on_c, 6, 49, 80
1, 22080, Note_on_c, 9, 42, 76
1, 22080, Note_on_c, 9, 69, 99
1, 22080, Note_on_c, 9, 81, 29
1, 22081, Note_on_c, 5, 90, 0
1, 22083, Note_on_c, 9, 84, 0
1, 22083, Note_on_c, 9, 36, 0
1, 22084, Note_on_c, 9, 42, 0
1, 22084, Note_on_c, 9, 69, 0
1, 22084, Note_on_c, 9, 81, 0
1, 22094, Note_on_c, 5, 92, 0
1, 22098, Note_on_c, 15, 63, 0
1, 22102, Pitch_bend_c, 3, 0
1, 22103, Note_on_c, 8, 56, 102
1, 22103, Note_on_c, 15, 56, 74
1, 22104, Note_on_c, 9, 42, 54
1, 22104, Note_on_c, 9, 81, 31
1, 22108, Note_on_c, 9, 81, 0
1, 22108, Note_on_c, 9, 42, 0
1, 22110, Note_on_c, 6, 49, 0
1, 22116, Note_on_c, 11, 37, 0
1, 22116, Note_on_c, 1, 37, 0
1, 22116, Note_on_c, 10, 37, 0
1, 22117, Note_on_c, 15, 56, 0
1, 22121, Note_on_c, 3, 68, 0
1, 22122, Note_on_c, 8, 56, 0
1, 22127, Note_on_c, 15, 56, 81
1, 22127, Note_on_c, 15, 61, 74
1, 22128, Note_on_c, 5, 88, 75
1, 22128, Note_on_c, 9, 81, 29
1, 22132, Note_on_c, 9, 81, 0
1, 22138, Note_on_c, 15, 61, 0
1, 22141, Note_on_c, 15, 56, 0
1, 22141, Pitch_bend_c, 3, 8192
1, 22143, Note_on_c, 5, 88, 0
1, 22151, Note_on_c, 15, 56, 80
1, 22151, Note_on_c, 15, 64, 78
1, 22152, Note_on_c, 3, 66, 103
1, 22152, Note_on_c, 8, 56, 99
1, 22152, Note_on_c, 9, 42, 76
1, 22152, Note_on_c, 9, 81, 31
1, 22152, Lyric_t, "time "
1, 22156, Note_on_c, 9, 81, 0
1, 22156, Note_on_c, 9, 42, 0
1, 22160, Note_on_c, 5, 90, 71
1, 22165, Note_on_c, 8, 56, 0
1, 22167, Note_on_c, 15, 64, 0
1, 22173, Note_on_c, 5, 90, 0
1, 22175, Note_on_c, 5, 92, 69
1, 22176, Note_on_c, 1, 37, 85
1, 22176, Note_on_c, 8, 56, 97
1, 22176, Note_on_c, 9, 36, 100
1, 22176, Note_on_c, 9, 37, 80
1, 22176, Note_on_c, 9, 40, 100
1, 22176, Note_on_c, 9, 39, 51
1, 22176, Note_on_c, 9, 84, 19
1, 22176, Note_on_c, 10, 37, 58
1, 22176, Note_on_c, 11, 37, 64
1, 22179, Note_on_c, 15, 49, 0
1, 22180, Note_on_c, 9, 84, 0
1, 22180, Note_on_c, 9, 37, 0
1, 22180, Note_on_c, 9, 39, 0
1, 22180, Note_on_c, 9, 40, 0
1, 22180, Note_on_c, 9, 36, 0
1, 22181, Note_on_c, 3, 66, 0
1, 22189, Note_on_c, 5, 92, 0
1, 22191, Note_on_c, 15, 56, 0
1, 22199, Note_on_c, 15, 66, 73
1, 22200, Note_on_c, 3, 71, 100
1, 22200, Lyric_t, "to "
1, 22202, Note_on_c, 8, 56, 0
1, 22209, Note_on_c, 1, 37, 0
1, 22209, Note_on_c, 11, 37, 0
1, 22209, Note_on_c, 10, 37, 0
1, 22223, Note_on_c, 5, 88, 63
1, 22223, Note_on_c, 8, 56, 96
1, 22223, Note_on_c, 9, 39, 22
1, 22223, Note_on_c, 15, 56, 72
1, 22224, Note_on_c, 9, 42, 77
1, 22224, Note_on_c, 9, 81, 29
1, 22225, Note_on_c, 15, 66, 0
1, 22227, Note_on_c, 9, 39, 0
1, 22228, Note_on_c, 9, 81, 0
1, 22228, Note_on_c, 9, 42, 0
1, 22238, Note_on_c, 5, 88, 0
1, 22240, Note_on_c, 3, 71, 0
1, 22246, Note_on_c, 8, 56, 0
1, 22248, Note_on_c, 15, 56, 0
1, 22248, Note_on_c, 3, 71, 96
1, 22248, Lyric_t, "shine, "
1, 22248, Lyric_t, "\015"
1, 22256, Note_on_c, 5, 90, 58
1, 22267, Note_on_c, 5, 90, 0
1, 22271, Note_on_c, 5, 92, 56
1, 22272, Note_on_c, 1, 37, 94
1, 22272, Note_on_c, 7, 37, 89
1, 22272, Note_on_c, 9, 36, 98
1, 22272, Note_on_c, 9, 81, 25
1, 22272, Note_on_c, 10, 37, 60
1, 22272, Note_on_c, 11, 37, 66
1, 22272, Note_on_c, 15, 59, 76
1, 22276, Note_on_c, 9, 81, 0
1, 22276, Note_on_c, 9, 36, 0
1, 22276, Control_c, 3, 1, 2
1, 22277, Control_c, 3, 1, 22
1, 22281, Control_c, 3, 1, 35
1, 22285, Note_on_c, 5, 92, 0
1, 22285, Control_c, 3, 1, 41
1, 22290, Control_c, 3, 1, 45
1, 22295, Note_on_c, 15, 64, 73
1, 22296, Note_on_c, 8, 64, 103
1, 22304, Control_c, 3, 1, 43
1, 22305, Note_on_c, 15, 59, 0
1, 22313, Note_on_c, 8, 64, 0
1, 22319, Note_on_c, 9, 81, 28
1, 22320, Note_on_c, 15, 64, 0
1, 22320, Note_on_c, 15, 59, 75
1, 22323, Note_on_c, 9, 81, 0
1, 22325, Note_on_c, 10, 37, 0
1, 22325, Note_on_c, 1, 37, 0
1, 22325, Note_on_c, 11, 37, 0
1, 22333, Control_c, 3, 1, 42
1, 22337, Control_c, 3, 1, 41
1, 22338, Note_on_c, 7, 37, 0
1, 22341, Control_c, 3, 1, 39
1, 22343, Note_on_c, 15, 61, 75
1, 22344, Note_on_c, 7, 37, 72
1, 22344, Note_on_c, 8, 63, 99
1, 22344, Note_on_c, 9, 42, 81
1, 22346, Control_c, 3, 1, 36
1, 22348, Note_on_c, 9, 42, 0
1, 22349, Control_c, 3, 1, 26
1, 22353, Control_c, 3, 1, 2
1, 22354, Note_on_c, 15, 59, 0
1, 22357, Control_c, 3, 1, 0
1, 22359, Note_on_c, 3, 71, 0
1, 22361, Note_on_c, 8, 63, 0
1, 22362, Note_on_c, 15, 61, 0
1, 22367, Note_on_c, 6, 49, 80
1, 22367, Note_on_c, 9, 42, 80
1, 22367, Note_on_c, 9, 69, 98
1, 22367, Note_on_c, 9, 81, 25
1, 22367, Note_on_c, 12, 56, 73
1, 22367, Note_on_c, 13, 85, 79
1, 22367, Note_on_c, 13, 73, 82
1, 22368, Note_on_c, 9, 37, 73
1, 22368, Note_on_c, 15, 64, 77
1, 22369, Note_on_c, 3, 66, 101
1, 22369, Note_on_c, 9, 39, 54
1, 22369, Lyric_t, "If "
1, 22371, Note_on_c, 9, 81, 0
1, 22371, Note_on_c, 9, 69, 0
1, 22371, Note_on_c, 9, 42, 0
1, 22372, Note_on_c, 9, 37, 0
1, 22373, Note_on_c, 9, 39, 0
1, 22374, Note_on_c, 7, 37, 0
1, 22391, Note_on_c, 9, 81, 25
1, 22391, Note_on_c, 15, 68, 81
1, 22392, Note_on_c, 6, 49, 0
1, 22392, Note_on_c, 3, 66, 0
1, 22392, Note_on_c, 8, 63, 102
1, 22393, Note_on_c, 3, 68, 101
1, 22393, Lyric_t, "you "
1, 22395, Note_on_c, 9, 81, 0
1, 22402, Note_on_c, 15, 64, 0
1, 22406, Note_on_c, 3, 68, 0
1, 22409, Note_on_c, 8, 63, 0
1, 22415, Note_on_c, 9, 69, 92
1, 22415, Note_on_c, 9, 81, 31
1, 22415, Note_on_c, 9, 42, 79
1, 22415, Note_on_c, 13, 87, 84
1, 22415, Note_on_c, 13, 75, 76
1, 22415, Note_on_c, 15, 63, 81
1, 22416, Note_on_c, 13, 85, 0
1, 22416, Note_on_c, 13, 73, 0
1, 22416, Note_on_c, 6, 47, 73
1, 22416, Note_on_c, 9, 39, 23
1, 22417, Note_on_c, 3, 68, 100
1, 22417, Lyric_t, "did"
1, 22419, Note_on_c, 9, 69, 0
1, 22419, Note_on_c, 9, 42, 0
1, 22419, Note_on_c, 9, 81, 0
1, 22420, Note_on_c, 9, 39, 0
1, 22438, Note_on_c, 6, 47, 0
1, 22439, Note_on_c, 15, 64, 76
1, 22440, Note_on_c, 3, 68, 0
1, 22440, Note_on_c, 3, 66, 101
1, 22440, Note_on_c, 8, 64, 103
1, 22440, Lyric_t, "n't "
1, 22448, Note_on_c, 9, 40, 77
1, 22451, Note_on_c, 12, 56, 0
1, 22452, Note_on_c, 9, 40, 0
1, 22453, Note_on_c, 3, 66, 0
1, 22455, Note_on_c, 15, 63, 0
1, 22455, Note_on_c, 8, 64, 0
1, 22460, Note_on_c, 15, 68, 0
1, 22461, Note_on_c, 15, 64, 0
1, 22463, Note_on_c, 3, 68, 104
1, 22463, Note_on_c, 9, 42, 75
1, 22463, Note_on_c, 12, 61, 69
1, 22463, Note_on_c, 13, 88, 78
1, 22463, Note_on_c, 13, 76, 85
1, 22463, Note_on_c, 15, 71, 74
1, 22463, Lyric_t, "know "
1, 22464, Note_on_c, 6, 49, 81
1, 22464, Note_on_c, 9, 81, 31
1, 22465, Note_on_c, 13, 87, 0
1, 22465, Note_on_c, 13, 75, 0
1, 22467, Note_on_c, 9, 42, 0
1, 22468, Note_on_c, 9, 81, 0
1, 22480, Pitch_bend_c, 3, 8191
1, 22481, Control_c, 3, 1, 12
1, 22484, Control_c, 3, 1, 32
1, 22484, Pitch_bend_c, 3, 7691
1, 22487, Note_on_c, 8, 64, 104
1, 22487, Note_on_c, 9, 38, 55
1, 22487, Note_on_c, 15, 64, 80
1, 22488, Pitch_bend_c, 3, 7192
1, 22488, Control_c, 3, 1, 37
1, 22488, Note_on_c, 9, 42, 57
1, 22488, Note_on_c, 9, 81, 25
1, 22491, Note_on_c, 9, 38, 0
1, 22492, Note_on_c, 9, 81, 0
1, 22492, Note_on_c, 9, 42, 0
1, 22492, Pitch_bend_c, 3, 6692
1, 22493, Note_on_c, 6, 49, 0
1, 22493, Control_c, 3, 1, 39
1, 22496, Pitch_bend_c, 3, 6192
1, 22500, Pitch_bend_c, 3, 5693
1, 22501, Control_c, 3, 1, 35
1, 22504, Pitch_bend_c, 3, 5193
1, 22506, Control_c, 3, 1, 29
1, 22507, Note_on_c, 8, 64, 0
1, 22508, Note_on_c, 3, 68, 0
1, 22508, Pitch_bend_c, 3, 8192
1, 22510, Control_c, 3, 1, 16
1, 22511, Note_on_c, 3, 66, 103
1, 22511, Note_on_c, 9, 69, 101
1, 22511, Note_on_c, 15, 68, 80
1, 22511, Lyric_t, "the "
1, 22512, Note_on_c, 7, 37, 76
1, 22512, Note_on_c, 9, 38, 51
1, 22512, Note_on_c, 9, 81, 29
1, 22512, Note_on_c, 13, 87, 82
1, 22512, Note_on_c, 13, 75, 79
1, 22513, Note_on_c, 13, 76, 0
1, 22513, Note_on_c, 13, 88, 0
1, 22514, Note_on_c, 15, 71, 0
1, 22514, Note_on_c, 15, 64, 0
1, 22515, Note_on_c, 9, 69, 0
1, 22515, Control_c, 3, 1, 0
1, 22516, Note_on_c, 9, 38, 0
1, 22516, Note_on_c, 9, 81, 0
1, 22527, Note_on_c, 3, 66, 0
1, 22529, Note_on_c, 7, 37, 0
1, 22535, Note_on_c, 15, 75, 73
1, 22536, Note_on_c, 9, 38, 49
1, 22536, Note_on_c, 9, 81, 27
1, 22536, Note_on_c, 15, 71, 80
1, 22537, Note_on_c, 15, 68, 0
1, 22537, Note_on_c, 3, 66, 102
1, 22537, Lyric_t, "boy "
1, 22540, Note_on_c, 9, 81, 0
1, 22540, Note_on_c, 9, 38, 0
1, 22553, Note_on_c, 12, 61, 0
1, 22556, Note_on_c, 15, 71, 0
1, 22559, Note_on_c, 15, 71, 75
1, 22560, Note_on_c, 1, 40, 86
1, 22560, Note_on_c, 9, 36, 100
1, 22560, Note_on_c, 9, 38, 57
1, 22560, Note_on_c, 9, 37, 73
1, 22560, Note_on_c, 9, 40, 95
1, 22560, Note_on_c, 9, 39, 52
1, 22560, Note_on_c, 11, 40, 66
1, 22560, Note_on_c, 12, 56, 70
1, 22560, Note_on_c, 13, 85, 84
1, 22560, Note_on_c, 13, 73, 82
1, 22561, Note_on_c, 13, 87, 0
1, 22561, Note_on_c, 13, 75, 0
1, 22562, Note_on_c, 3, 66, 0
1, 22564, Note_on_c, 9, 37, 0
1, 22564, Note_on_c, 9, 38, 0
1, 22564, Note_on_c, 9, 39, 0
1, 22564, Note_on_c, 9, 40, 0
1, 22564, Note_on_c, 9, 36, 0
1, 22584, Pitch_bend_c, 3, 3308
1, 22584, Note_on_c, 3, 73, 96
1, 22584, Note_on_c, 7, 37, 73
1, 22584, Note_on_c, 15, 80, 72
1, 22584, Lyric_t, "is "
1, 22588, Pitch_bend_c, 3, 4208
1, 22592, Pitch_bend_c, 3, 5107
1, 22596, Pitch_bend_c, 3, 6007
1, 22600, Pitch_bend_c, 3, 6907
1, 22601, Note_on_c, 7, 37, 0
1, 22601, Note_on_c, 15, 71, 0
1, 22604, Note_on_c, 15, 75, 0
1, 22604, Pitch_bend_c, 3, 7807
1, 22607, Note_on_c, 1, 40, 0
1, 22607, Note_on_c, 11, 40, 0
1, 22607, Note_on_c, 9, 39, 24
1, 22608, Note_on_c, 1, 44, 89
1, 22608, Pitch_bend_c, 3, 8192
1, 22608, Note_on_c, 9, 36, 98
1, 22608, Note_on_c, 9, 81, 26
1, 22608, Note_on_c, 10, 44, 55
1, 22608, Note_on_c, 11, 44, 63
1, 22608, Note_on_c, 13, 80, 76
1, 22608, Note_on_c, 13, 68, 83
1, 22608, Note_on_c, 15, 61, 81
1, 22608, Note_on_c, 15, 71, 77
1, 22609, Note_on_c, 13, 85, 0
1, 22609, Note_on_c, 13, 73, 0
1, 22609, Note_on_c, 9, 42, 84
1, 22611, Note_on_c, 3, 73, 0
1, 22611, Note_on_c, 9, 39, 0
1, 22612, Note_on_c, 9, 81, 0
1, 22612, Note_on_c, 9, 36, 0
1, 22613, Note_on_c, 9, 42, 0
1, 22615, Note_on_c, 15, 80, 0
1, 22632, Note_on_c, 15, 83, 73
1, 22632, Note_on_c, 15, 56, 81
1, 22633, Note_on_c, 3, 71, 98
1, 22633, Lyric_t, "mine. "
1, 22633, Lyric_t, "\015"
1, 22633, Lyric_t, "\012"
1, 22634, Note_on_c, 15, 61, 0
1, 22644, Note_on_c, 15, 71, 0
1, 22650, Note_on_c, 12, 56, 0
1, 22650, Note_on_c, 1, 44, 0
1, 22650, Note_on_c, 10, 44, 0
1, 22650, Note_on_c, 11, 44, 0
1, 22653, Note_on_c, 15, 56, 0
1, 22656, Tempo, 645161
1, 22656, Note_on_c, 1, 42, 94
1, 22656, Note_on_c, 8, 54, 104
1, 22656, Note_on_c, 9, 36, 96
1, 22656, Note_on_c, 9, 49, 28
1, 22656, Note_on_c, 9, 81, 29
1, 22656, Note_on_c, 9, 42, 79
1, 22656, Note_on_c, 9, 84, 17
1, 22656, Note_on_c, 10, 42, 59
1, 22656, Note_on_c, 11, 42, 62
1, 22656, Note_on_c, 12, 59, 73
1, 22656, Note_on_c, 13, 81, 84
1, 22656, Note_on_c, 13, 69, 78
1, 22656, Note_on_c, 15, 54, 74
1, 22658, Note_on_c, 13, 68, 0
1, 22658, Note_on_c, 13, 80, 0
1, 22659, Note_on_c, 15, 83, 0
1, 22660, Note_on_c, 9, 81, 0
1, 22660, Note_on_c, 9, 49, 0
1, 22660, Note_on_c, 9, 84, 0
1, 22660, Note_on_c, 9, 42, 0
1, 22660, Note_on_c, 9, 36, 0
1, 22680, Note_on_c, 15, 57, 72
1, 22681, Note_on_c, 12, 56, 71
1, 22690, Control_c, 3, 1, 22
1, 22693, Note_on_c, 12, 59, 0
1, 22694, Note_on_c, 10, 42, 0
1, 22694, Note_on_c, 1, 42, 0
1, 22694, Note_on_c, 11, 42, 0
1, 22695, Control_c, 3, 1, 36
1, 22699, Control_c, 3, 1, 41
1, 22701, Note_on_c, 15, 57, 0
1, 22703, Note_on_c, 9, 81, 24
1, 22704, Control_c, 3, 1, 42
1, 22704, Note_on_c, 9, 42, 79
1, 22704, Note_on_c, 12, 57, 68
1, 22704, Note_on_c, 15, 61, 78
1, 22707, Note_on_c, 9, 81, 0
1, 22708, Note_on_c, 9, 42, 0
1, 22714, Note_on_c, 12, 56, 0
1, 22715, Control_c, 3, 1, 41
1, 22718, Control_c, 3, 1, 39
1, 22723, Control_c, 3, 1, 36
1, 22727, Control_c, 3, 1, 29
1, 22728, Note_on_c, 15, 64, 74
1, 22731, Control_c, 3, 1, 5
1, 22732, Note_on_c, 15, 61, 0
1, 22736, Control_c, 3, 1, 0
1, 22751, Note_on_c, 6, 49, 73
1, 22751, Note_on_c, 9, 81, 24
1, 22752, Note_on_c, 15, 64, 0
1, 22752, Note_on_c, 1, 42, 91
1, 22752, Note_on_c, 9, 36, 95
1, 22752, Note_on_c, 9, 37, 78
1, 22752, Note_on_c, 9, 40, 99
1, 22752, Note_on_c, 9, 69, 97
1, 22752, Note_on_c, 9, 84, 15
1, 22752, Note_on_c, 10, 42, 58
1, 22752, Note_on_c, 11, 42, 63
1, 22752, Note_on_c, 15, 68, 73
1, 22753, Note_on_c, 3, 71, 0
1, 22753, Note_on_c, 9, 39, 57
1, 22755, Note_on_c, 9, 81, 0
1, 22756, Note_on_c, 9, 37, 0
1, 22756, Note_on_c, 9, 36, 0
1, 22756, Note_on_c, 9, 84, 0
1, 22756, Note_on_c, 9, 40, 0
1, 22756, Note_on_c, 9, 69, 0
1, 22757, Note_on_c, 9, 39, 0
1, 22775, Note_on_c, 6, 49, 0
1, 22775, Note_on_c, 9, 81, 27
1, 22776, Note_on_c, 9, 42, 79
1, 22776, Note_on_c, 9, 69, 99
1, 22776, Note_on_c, 15, 64, 80
1, 22779, Note_on_c, 9, 81, 0
1, 22779, Note_on_c, 15, 68, 0
1, 22780, Note_on_c, 9, 42, 0
1, 22780, Note_on_c, 9, 69, 0
1, 22784, Note_on_c, 11, 42, 0
1, 22784, Note_on_c, 1, 42, 0
1, 22784, Note_on_c, 10, 42, 0
1, 22787, Note_on_c, 8, 54, 0
1, 22799, Note_on_c, 0, 59, 47
1, 22799, Note_on_c, 9, 81, 25
1, 22799, Lyric_t, "You "
1, 22800, Note_on_c, 5, 90, 89
1, 22800, Note_on_c, 6, 47, 72
1, 22800, Note_on_c, 8, 57, 96
1, 22800, Note_on_c, 9, 39, 21
1, 22800, Note_on_c, 9, 69, 95
1, 22801, Note_on_c, 12, 59, 69
1, 22801, Note_on_c, 15, 57, 81
1, 22802, Note_on_c, 15, 64, 0
1, 22803, Note_on_c, 9, 81, 0
1, 22804, Note_on_c, 9, 39, 0
1, 22804, Note_on_c, 9, 69, 0
1, 22817, Note_on_c, 5, 90, 0
1, 22819, Note_on_c, 15, 57, 0
1, 22823, Note_on_c, 15, 61, 77
1, 22824, Note_on_c, 6, 47, 0
1, 22824, Note_on_c, 9, 69, 101
1, 22828, Note_on_c, 9, 69, 0
1, 22830, Note_on_c, 8, 57, 0
1, 22831, Note_on_c, 5, 92, 85
1, 22834, Note_on_c, 15, 54, 0
1, 22838, Note_on_c, 12, 59, 0
1, 22839, Note_on_c, 15, 61, 0
1, 22844, Note_on_c, 0, 59, 0
1, 22847, Note_on_c, 0, 64, 56
1, 22847, Note_on_c, 9, 84, 15
1, 22847, Lyric_t, "need "
1, 22848, Note_on_c, 1, 42, 89
1, 22848, Note_on_c, 5, 93, 83
1, 22848, Note_on_c, 6, 49, 77
1, 22848, Note_on_c, 8, 54, 100
1, 22848, Note_on_c, 9, 36, 97
1, 22848, Note_on_c, 9, 42, 82
1, 22848, Note_on_c, 9, 69, 100
1, 22848, Note_on_c, 9, 81, 23
1, 22848, Note_on_c, 10, 42, 57
1, 22848, Note_on_c, 11, 42, 67
1, 22848, Note_on_c, 12, 64, 73
1, 22848, Note_on_c, 15, 54, 72
1, 22851, Note_on_c, 9, 84, 0
1, 22852, Note_on_c, 9, 36, 0
1, 22852, Note_on_c, 9, 81, 0
1, 22852, Note_on_c, 9, 42, 0
1, 22852, Note_on_c, 5, 92, 0
1, 22852, Note_on_c, 9, 69, 0
1, 22855, Control_c, 3, 1, 11
1, 22857, Control_c, 3, 1, 30
1, 22861, Control_c, 3, 1, 36
1, 22867, Note_on_c, 5, 93, 0
1, 22868, Control_c, 3, 1, 37
1, 22872, Control_c, 3, 1, 35
1, 22872, Note_on_c, 9, 42, 61
1, 22872, Note_on_c, 9, 81, 31
1, 22872, Note_on_c, 15, 69, 79
1, 22876, Note_on_c, 9, 81, 0
1, 22876, Note_on_c, 9, 42, 0
1, 22876, Note_on_c, 8, 54, 0
1, 22876, Control_c, 3, 1, 32
1, 22878, Note_on_c, 11, 42, 0
1, 22878, Note_on_c, 6, 49, 0
1, 22878, Note_on_c, 1, 42, 0
1, 22878, Note_on_c, 10, 42, 0
1, 22879, Control_c, 3, 1, 28
1, 22884, Control_c, 3, 1, 22
1, 22888, Control_c, 3, 1, 6
1, 22891, Note_on_c, 12, 64, 0
1, 22893, Note_on_c, 12, 57, 0
1, 22893, Control_c, 3, 1, 0
1, 22896, Note_on_c, 0, 64, 0
1, 22896, Note_on_c, 0, 63, 51
1, 22896, Note_on_c, 5, 90, 76
1, 22896, Note_on_c, 8, 57, 97
1, 22896, Note_on_c, 9, 81, 24
1, 22896, Note_on_c, 12, 63, 66
1, 22896, Note_on_c, 15, 57, 75
1, 22896, Lyric_t, "to "
1, 22897, Note_on_c, 15, 69, 0
1, 22900, Note_on_c, 9, 81, 0
1, 22914, Note_on_c, 15, 57, 0
1, 22915, Note_on_c, 5, 90, 0
1, 22920, Note_on_c, 9, 42, 84
1, 22920, Note_on_c, 9, 81, 24
1, 22920, Note_on_c, 15, 64, 76
1, 22924, Note_on_c, 9, 81, 0
1, 22924, Note_on_c, 9, 42, 0
1, 22927, Note_on_c, 5, 92, 72
1, 22941, Note_on_c, 12, 63, 0
1, 22943, Note_on_c, 0, 63, 0
1, 22943, Note_on_c, 9, 84, 20
1, 22944, Note_on_c, 0, 61, 48
1, 22944, Note_on_c, 1, 42, 91
1, 22944, Note_on_c, 5, 93, 70
1, 22944, Note_on_c, 9, 36, 98
1, 22944, Note_on_c, 9, 37, 78
1, 22944, Note_on_c, 9, 40, 103
1, 22944, Note_on_c, 9, 39, 52
1, 22944, Note_on_c, 10, 42, 62
1, 22944, Note_on_c, 11, 42, 68
1, 22944, Note_on_c, 15, 61, 76
1, 22944, Note_on_c, 15, 57, 76
1, 22944, Lyric_t, "give "
1, 22945, Note_on_c, 15, 64, 0
1, 22945, Note_on_c, 12, 64, 68
1, 22947, Note_on_c, 9, 84, 0
1, 22948, Note_on_c, 9, 36, 0
1, 22948, Note_on_c, 5, 92, 0
1, 22948, Note_on_c, 9, 40, 0
1, 22948, Note_on_c, 9, 37, 0
1, 22948, Note_on_c, 9, 39, 0
1, 22963, Note_on_c, 15, 57, 0
1, 22963, Note_on_c, 5, 93, 0
1, 22968, Note_on_c, 15, 57, 73
1, 22969, Note_on_c, 15, 61, 0
1, 22978, Note_on_c, 11, 42, 0
1, 22978, Note_on_c, 1, 42, 0
1, 22978, Note_on_c, 10, 42, 0
1, 22988, Note_on_c, 12, 64, 0
1, 22990, Note_on_c, 15, 57, 0
1, 22991, Note_on_c, 9, 39, 22
1, 22992, Note_on_c, 0, 59, 54
1, 22992, Note_on_c, 5, 90, 64
1, 22992, Note_on_c, 9, 42, 83
1, 22992, Note_on_c, 9, 81, 22
1, 22992, Note_on_c, 15, 61, 74
1, 22992, Note_on_c, 15, 57, 73
1, 22992, Lyric_t, "it "
1, 22993, Note_on_c, 12, 64, 70
1, 22995, Note_on_c, 9, 39, 0
1, 22995, Note_on_c, 0, 61, 0
1, 22996, Note_on_c, 9, 81, 0
1, 22996, Note_on_c, 9, 42, 0
1, 22997, Note_on_c, 8, 57, 0
1, 23008, Note_on_c, 15, 54, 0
1, 23009, Note_on_c, 15, 57, 0
1, 23011, Note_on_c, 5, 90, 0
1, 23016, Note_on_c, 8, 54, 97
1, 23016, Note_on_c, 15, 54, 75
1, 23017, Note_on_c, 15, 61, 0
1, 23023, Note_on_c, 5, 92, 60
1, 23037, Note_on_c, 8, 54, 0
1, 23038, Note_on_c, 12, 64, 0
1, 23039, Note_on_c, 0, 61, 49
1, 23039, Lyric_t, "up, "
1, 23039, Lyric_t, "\015"
1, 23040, Note_on_c, 15, 54, 0
1, 23040, Note_on_c, 1, 42, 94
1, 23040, Note_on_c, 5, 93, 57
1, 23040, Note_on_c, 7, 42, 88
1, 23040, Note_on_c, 8, 54, 102
1, 23040, Note_on_c, 9, 36, 102
1, 23040, Note_on_c, 9, 81, 27
1, 23040, Note_on_c, 10, 42, 54
1, 23040, Note_on_c, 11, 42, 66
1, 23040, Note_on_c, 15, 66, 81
1, 23041, Note_on_c, 12, 66, 73
1, 23044, Note_on_c, 9, 81, 0
1, 23044, Note_on_c, 9, 36, 0
1, 23045, Note_on_c, 0, 59, 0
1, 23048, Note_on_c, 5, 92, 0
1, 23063, Note_on_c, 15, 57, 73
1, 23069, Note_on_c, 5, 93, 0
1, 23078, Note_on_c, 1, 42, 0
1, 23078, Note_on_c, 11, 42, 0
1, 23078, Note_on_c, 10, 42, 0
1, 23082, Note_on_c, 15, 57, 0
1, 23087, Note_on_c, 9, 81, 29
1, 23087, Note_on_c, 15, 61, 79
1, 23091, Note_on_c, 9, 81, 0
1, 23099, Pitch_bend_c, 3, 9362
1, 23103, Pitch_bend_c, 3, 10402
1, 23106, Pitch_bend_c, 3, 12092
1, 23110, Note_on_c, 7, 42, 0
1, 23110, Pitch_bend_c, 3, 13392
1, 23111, Note_on_c, 15, 57, 79
1, 23112, Note_on_c, 7, 42, 73
1, 23112, Note_on_c, 9, 42, 82
1, 23113, Pitch_bend_c, 3, 14562
1, 23116, Note_on_c, 9, 42, 0
1, 23116, Pitch_bend_c, 3, 15602
1, 23120, Pitch_bend_c, 3, 16382
1, 23127, Note_on_c, 13, 69, 0
1, 23127, Note_on_c, 13, 81, 0
1, 23127, Control_c, 3, 1, 15
1, 23131, Note_on_c, 15, 57, 0
1, 23131, Control_c, 3, 1, 27
1, 23132, Note_on_c, 15, 61, 0
1, 23135, Note_on_c, 7, 42, 0
1, 23135, Note_on_c, 6, 49, 79
1, 23135, Note_on_c, 9, 42, 82
1, 23135, Note_on_c, 9, 69, 98
1, 23135, Note_on_c, 9, 81, 22
1, 23135, Note_on_c, 13, 83, 77
1, 23135, Note_on_c, 13, 71, 77
1, 23135, Note_on_c, 15, 57, 75
1, 23135, Note_on_c, 15, 64, 81
1, 23136, Note_on_c, 1, 42, 86
1, 23136, Pitch_bend_c, 3, 12288
1, 23136, Control_c, 3, 1, 34
1, 23136, Note_on_c, 9, 36, 103
1, 23136, Note_on_c, 9, 37, 74
1, 23136, Note_on_c, 9, 40, 95
1, 23136, Note_on_c, 10, 42, 57
1, 23136, Note_on_c, 11, 42, 61
1, 23137, Note_on_c, 9, 39, 49
1, 23139, Note_on_c, 9, 81, 0
1, 23139, Note_on_c, 9, 69, 0
1, 23139, Note_on_c, 9, 42, 0
1, 23140, Note_on_c, 9, 40, 0
1, 23140, Note_on_c, 9, 37, 0
1, 23140, Note_on_c, 9, 36, 0
1, 23140, Control_c, 3, 1, 37
1, 23141, Note_on_c, 9, 39, 0
1, 23146, Control_c, 3, 1, 39
1, 23149, Note_on_c, 15, 57, 0
1, 23152, Control_c, 3, 1, 40
1, 23154, Note_on_c, 15, 64, 0
1, 23154, Note_on_c, 15, 66, 0
1, 23159, Note_on_c, 9, 81, 22
1, 23160, Note_on_c, 6, 49, 0
1, 23160, Note_on_c, 15, 68, 81
1, 23163, Note_on_c, 9, 81, 0
1, 23168, Note_on_c, 11, 42, 0
1, 23168, Note_on_c, 10, 42, 0
1, 23168, Note_on_c, 1, 42, 0
1, 23173, Note_on_c, 8, 54, 0
1, 23175, Note_on_c, 12, 66, 0
1, 23180, Control_c, 3, 1, 39
1, 23181, Note_on_c, 15, 68, 0
1, 23183, Note_on_c, 8, 57, 96
1, 23183, Note_on_c, 9, 69, 93
1, 23183, Note_on_c, 9, 81, 31
1, 23183, Note_on_c, 9, 42, 84
1, 23183, Note_on_c, 13, 85, 80
1, 23183, Note_on_c, 13, 73, 83
1, 23184, Note_on_c, 6, 47, 74
1, 23184, Note_on_c, 7, 42, 68
1, 23184, Note_on_c, 9, 39, 28
1, 23184, Note_on_c, 15, 57, 73
1, 23186, Note_on_c, 13, 71, 0
1, 23186, Note_on_c, 13, 83, 0
1, 23187, Note_on_c, 9, 69, 0
1, 23187, Note_on_c, 9, 81, 0
1, 23187, Note_on_c, 9, 42, 0
1, 23188, Note_on_c, 9, 39, 0
1, 23193, Control_c, 3, 1, 38
1, 23196, Control_c, 3, 1, 37
1, 23199, Note_on_c, 0, 61, 0
1, 23199, Control_c, 3, 1, 35
1, 23200, Note_on_c, 15, 57, 0
1, 23203, Note_on_c, 8, 57, 0
1, 23204, Control_c, 3, 1, 31
1, 23205, Note_on_c, 7, 42, 0
1, 23206, Note_on_c, 6, 47, 0
1, 23207, Note_on_c, 15, 69, 81
1, 23208, Control_c, 3, 1, 26
1, 23213, Control_c, 3, 1, 22
1, 23216, Note_on_c, 9, 40, 77
1, 23218, Control_c, 3, 1, 17
1, 23220, Note_on_c, 9, 40, 0
1, 23223, Control_c, 3, 1, 14
1, 23226, Note_on_c, 15, 69, 0
1, 23226, Control_c, 3, 1, 9
1, 23230, Note_on_c, 13, 85, 0
1, 23230, Note_on_c, 13, 73, 0
1, 23230, Control_c, 3, 1, 2
1, 23231, Note_on_c, 0, 66, 48
1, 23231, Note_on_c, 8, 57, 97
1, 23231, Note_on_c, 9, 42, 75
1, 23231, Note_on_c, 13, 87, 77
1, 23231, Note_on_c, 13, 75, 84
1, 23231, Lyric_t, "Had "
1, 23232, Note_on_c, 1, 42, 93
1, 23232, Note_on_c, 6, 49, 74
1, 23232, Note_on_c, 9, 36, 101
1, 23232, Note_on_c, 9, 81, 24
1, 23232, Note_on_c, 10, 42, 62
1, 23232, Note_on_c, 11, 42, 64
1, 23232, Note_on_c, 15, 57, 78
1, 23233, Note_on_c, 12, 66, 67
1, 23235, Note_on_c, 9, 42, 0
1, 23236, Note_on_c, 9, 81, 0
1, 23236, Note_on_c, 9, 36, 0
1, 23236, Control_c, 3, 1, 0
1, 23251, Note_on_c, 15, 57, 0
1, 23251, Note_on_c, 8, 57, 0
1, 23256, Note_on_c, 9, 42, 59
1, 23256, Note_on_c, 9, 81, 24
1, 23256, Note_on_c, 15, 64, 78
1, 23260, Note_on_c, 9, 81, 0
1, 23260, Note_on_c, 9, 42, 0
1, 23260, Pitch_bend_c, 3, 8192
1, 23261, Note_on_c, 6, 49, 0
1, 23262, Note_on_c, 1, 42, 0
1, 23262, Note_on_c, 11, 42, 0
1, 23262, Note_on_c, 10, 42, 0
1, 23274, Note_on_c, 15, 64, 0
1, 23279, Note_on_c, 13, 75, 0
1, 23279, Note_on_c, 13, 87, 0
1, 23279, Note_on_c, 8, 57, 104
1, 23279, Note_on_c, 9, 69, 93
1, 23279, Note_on_c, 13, 85, 76
1, 23279, Note_on_c, 13, 73, 83
1, 23279, Note_on_c, 15, 57, 77
1, 23280, Note_on_c, 0, 64, 52
1, 23280, Note_on_c, 7, 42, 69
1, 23280, Note_on_c, 9, 81, 25
1, 23280, Lyric_t, "a"
1, 23281, Note_on_c, 0, 66, 0
1, 23282, Note_on_c, 12, 64, 71
1, 23283, Note_on_c, 9, 69, 0
1, 23284, Note_on_c, 9, 81, 0
1, 23288, Note_on_c, 12, 66, 0
1, 23291, Note_on_c, 7, 42, 0
1, 23297, Note_on_c, 15, 57, 0
1, 23298, Note_on_c, 8, 57, 0
1, 23304, Note_on_c, 9, 81, 24
1, 23304, Note_on_c, 15, 61, 81
1, 23308, Note_on_c, 9, 81, 0
1, 23324, Note_on_c, 15, 61, 0
1, 23326, Note_on_c, 12, 64, 0
1, 23327, Note_on_c, 8, 54, 98
1, 23327, Note_on_c, 13, 83, 83
1, 23327, Note_on_c, 13, 71, 84
1, 23327, Note_on_c, 15, 54, 81
1, 23328, Note_on_c, 13, 85, 0
1, 23328, Note_on_c, 13, 73, 0
1, 23328, Note_on_c, 0, 63, 50
1, 23328, Note_on_c, 1, 44, 85
1, 23328, Note_on_c, 9, 36, 97
1, 23328, Note_on_c, 9, 37, 72
1, 23328, Note_on_c, 9, 40, 99
1, 23328, Note_on_c, 9, 39, 49
1, 23328, Note_on_c, 10, 44, 55
1, 23328, Note_on_c, 11, 44, 63
1, 23328, Lyric_t, "bout "
1, 23329, Note_on_c, 12, 63, 75
1, 23332, Note_on_c, 9, 39, 0
1, 23332, Note_on_c, 9, 40, 0
1, 23332, Note_on_c, 0, 64, 0
1, 23332, Note_on_c, 9, 37, 0
1, 23332, Note_on_c, 9, 36, 0
1, 23351, Note_on_c, 15, 61, 80
1, 23372, Note_on_c, 1, 44, 0
1, 23372, Note_on_c, 11, 44, 0
1, 23372, Note_on_c, 10, 44, 0
1, 23374, Note_on_c, 15, 61, 0
1, 23374, Note_on_c, 15, 64, 73
1, 23375, Note_on_c, 15, 54, 0
1, 23375, Note_on_c, 9, 39, 27
1, 23376, Note_on_c, 0, 61, 48
1, 23376, Note_on_c, 1, 39, 88
1, 23376, Note_on_c, 9, 36, 96
1, 23376, Note_on_c, 9, 81, 22
1, 23376, Note_on_c, 11, 39, 59
1, 23376, Note_on_c, 13, 78, 76
1, 23376, Note_on_c, 13, 66, 78
1, 23376, Lyric_t, "e"
1, 23377, Note_on_c, 13, 71, 0
1, 23377, Note_on_c, 13, 83, 0
1, 23377, Note_on_c, 9, 42, 77
1, 23378, Note_on_c, 0, 63, 0
1, 23378, Note_on_c, 10, 39, 56
1, 23378, Note_on_c, 12, 66, 66
1, 23379, Note_on_c, 9, 39, 0
1, 23380, Note_on_c, 9, 81, 0
1, 23380, Note_on_c, 9, 36, 0
1, 23381, Note_on_c, 9, 42, 0
1, 23382, Note_on_c, 12, 63, 0
1, 23399, Note_on_c, 15, 64, 0
1, 23399, Note_on_c, 15, 68, 80
1, 23412, Note_on_c, 8, 54, 0
1, 23416, Note_on_c, 15, 68, 0
1, 23418, Note_on_c, 1, 39, 0
1, 23418, Note_on_c, 11, 39, 0
1, 23420, Note_on_c, 10, 39, 0
1, 23422, Note_on_c, 13, 78, 0
1, 23422, Note_on_c, 13, 66, 0
1, 23423, Note_on_c, 13, 80, 83
1, 23423, Note_on_c, 13, 68, 79
1, 23424, Tempo, 652174
1, 23424, Note_on_c, 0, 63, 49
1, 23424, Note_on_c, 1, 37, 92
1, 23424, Note_on_c, 9, 36, 102
1, 23424, Note_on_c, 9, 49, 33
1, 23424, Note_on_c, 9, 81, 31
1, 23424, Note_on_c, 9, 42, 75
1, 23424, Note_on_c, 9, 84, 14
1, 23424, Note_on_c, 10, 37, 58
1, 23424, Note_on_c, 11, 37, 67
1, 23424, Note_on_c, 15, 49, 73
1, 23424, Lyric_t, "nough, "
1, 23424, Lyric_t, "\015"
1, 23426, Note_on_c, 12, 66, 0
1, 23426, Note_on_c, 12, 68, 70
1, 23428, Note_on_c, 9, 84, 0
1, 23428, Note_on_c, 9, 49, 0
1, 23428, Note_on_c, 9, 42, 0
1, 23428, Note_on_c, 9, 81, 0
1, 23428, Note_on_c, 9, 36, 0
1, 23430, Note_on_c, 0, 61, 0
1, 23447, Note_on_c, 15, 56, 79
1, 23448, Note_on_c, 8, 56, 96
1, 23462, Note_on_c, 8, 56, 0
1, 23468, Note_on_c, 15, 56, 0
1, 23471, Note_on_c, 9, 81, 23
1, 23471, Note_on_c, 15, 59, 79
1, 23472, Note_on_c, 9, 42, 77
1, 23475, Note_on_c, 9, 81, 0
1, 23476, Note_on_c, 9, 42, 0
1, 23477, Note_on_c, 10, 37, 0
1, 23477, Note_on_c, 11, 37, 0
1, 23477, Note_on_c, 1, 37, 0
1, 23495, Note_on_c, 15, 56, 79
1, 23496, Note_on_c, 8, 56, 97
1, 23499, Note_on_c, 15, 59, 0
1, 23513, Note_on_c, 8, 56, 0
1, 23516, Note_on_c, 15, 56, 0
1, 23519, Note_on_c, 6, 49, 78
1, 23519, Note_on_c, 9, 81, 31
1, 23519, Note_on_c, 15, 63, 74
1, 23520, Note_on_c, 1, 37, 87
1, 23520, Note_on_c, 9, 36, 101
1, 23520, Note_on_c, 9, 37, 77
1, 23520, Note_on_c, 9, 40, 95
1, 23520, Note_on_c, 9, 69, 101
1, 23520, Note_on_c, 9, 84, 23
1, 23520, Note_on_c, 10, 37, 60
1, 23520, Note_on_c, 11, 37, 63
1, 23521, Note_on_c, 9, 39, 52
1, 23523, Note_on_c, 9, 81, 0
1, 23524, Note_on_c, 9, 37, 0
1, 23524, Note_on_c, 9, 36, 0
1, 23524, Note_on_c, 9, 84, 0
1, 23524, Note_on_c, 9, 40, 0
1, 23524, Note_on_c, 9, 69, 0
1, 23525, Note_on_c, 9, 39, 0
1, 23541, Note_on_c, 15, 63, 0
1, 23543, Note_on_c, 6, 49, 0
1, 23543, Note_on_c, 8, 56, 101
1, 23543, Note_on_c, 9, 81, 31
1, 23543, Note_on_c, 15, 56, 81
1, 23544, Note_on_c, 9, 42, 77
1, 23544, Note_on_c, 9, 69, 101
1, 23547, Note_on_c, 9, 81, 0
1, 23548, Note_on_c, 9, 69, 0
1, 23548, Note_on_c, 9, 42, 0
1, 23550, Note_on_c, 11, 37, 0
1, 23550, Note_on_c, 1, 37, 0
1, 23550, Note_on_c, 10, 37, 0
1, 23561, Note_on_c, 8, 56, 0
1, 23564, Note_on_c, 15, 56, 0
1, 23567, Note_on_c, 9, 81, 29
1, 23567, Note_on_c, 15, 59, 77
1, 23568, Note_on_c, 5, 88, 88
1, 23568, Note_on_c, 6, 47, 72
1, 23568, Note_on_c, 9, 39, 28
1, 23568, Note_on_c, 9, 69, 95
1, 23570, Note_on_c, 12, 68, 0
1, 23571, Note_on_c, 9, 81, 0
1, 23572, Note_on_c, 9, 69, 0
1, 23572, Note_on_c, 9, 39, 0
1, 23586, Note_on_c, 5, 88, 0
1, 23591, Note_on_c, 15, 59, 0
1, 23591, Note_on_c, 8, 56, 100
1, 23591, Note_on_c, 15, 56, 80
1, 23592, Note_on_c, 0, 63, 0
1, 23592, Note_on_c, 6, 47, 0
1, 23592, Note_on_c, 9, 69, 100
1, 23596, Note_on_c, 9, 69, 0
1, 23597, Control_c, 3, 1, 5
1, 23599, Control_c, 3, 1, 19
1, 23600, Note_on_c, 5, 90, 83
1, 23604, Control_c, 3, 1, 25
1, 23608, Control_c, 3, 1, 30
1, 23610, Note_on_c, 8, 56, 0
1, 23613, Control_c, 3, 1, 33
1, 23615, Note_on_c, 0, 64, 48
1, 23615, Note_on_c, 1, 37, 87
1, 23615, Note_on_c, 5, 92, 81
1, 23615, Note_on_c, 9, 36, 102
1, 23615, Note_on_c, 9, 84, 15
1, 23615, Note_on_c, 10, 37, 57
1, 23615, Note_on_c, 11, 37, 68
1, 23615, Note_on_c, 15, 63, 76
1, 23615, Lyric_t, "It's "
1, 23616, Note_on_c, 15, 56, 0
1, 23616, Note_on_c, 6, 49, 72
1, 23616, Note_on_c, 9, 42, 76
1, 23616, Note_on_c, 9, 69, 92
1, 23616, Note_on_c, 9, 81, 28
1, 23617, Note_on_c, 5, 90, 0
1, 23617, Control_c, 3, 1, 35
1, 23617, Note_on_c, 12, 64, 74
1, 23619, Note_on_c, 9, 84, 0
1, 23619, Note_on_c, 9, 36, 0
1, 23620, Note_on_c, 9, 81, 0
1, 23620, Note_on_c, 9, 69, 0
1, 23620, Note_on_c, 9, 42, 0
1, 23626, Control_c, 3, 1, 36
1, 23630, Note_on_c, 5, 92, 0
1, 23634, Note_on_c, 15, 63, 0
1, 23638, Control_c, 3, 1, 35
1, 23639, Note_on_c, 8, 56, 103
1, 23639, Note_on_c, 15, 56, 75
1, 23640, Note_on_c, 9, 42, 52
1, 23640, Note_on_c, 9, 81, 28
1, 23644, Note_on_c, 9, 81, 0
1, 23644, Note_on_c, 9, 42, 0
1, 23646, Note_on_c, 6, 49, 0
1, 23647, Control_c, 3, 1, 34
1, 23652, Note_on_c, 10, 37, 0
1, 23652, Note_on_c, 11, 37, 0
1, 23652, Note_on_c, 1, 37, 0
1, 23653, Note_on_c, 15, 56, 0
1, 23656, Control_c, 3, 1, 33
1, 23658, Note_on_c, 8, 56, 0
1, 23661, Pitch_bend_c, 3, 8582
1, 23662, Note_on_c, 12, 64, 0
1, 23662, Pitch_bend_c, 3, 11442
1, 23663, Note_on_c, 15, 56, 78
1, 23663, Note_on_c, 15, 61, 74
1, 23664, Note_on_c, 0, 63, 49
1, 23664, Note_on_c, 5, 88, 74
1, 23664, Note_on_c, 9, 81, 27
1, 23664, Lyric_t, "not "
1, 23665, Note_on_c, 12, 63, 69
1, 23666, Note_on_c, 0, 64, 0
1, 23666, Pitch_bend_c, 3, 14692
1, 23668, Note_on_c, 9, 81, 0
1, 23669, Pitch_bend_c, 3, 16382
1, 23674, Note_on_c, 15, 61, 0
1, 23677, Note_on_c, 15, 56, 0
1, 23679, Note_on_c, 5, 88, 0
1, 23686, Control_c, 3, 1, 32
1, 23687, Note_on_c, 15, 56, 76
1, 23687, Note_on_c, 15, 64, 73
1, 23688, Note_on_c, 8, 56, 101
1, 23688, Note_on_c, 9, 42, 83
1, 23688, Note_on_c, 9, 81, 26
1, 23690, Control_c, 3, 1, 31
1, 23692, Note_on_c, 9, 81, 0
1, 23692, Note_on_c, 9, 42, 0
1, 23694, Control_c, 3, 1, 29
1, 23696, Note_on_c, 5, 90, 70
1, 23701, Note_on_c, 8, 56, 0
1, 23702, Control_c, 3, 1, 28
1, 23703, Note_on_c, 15, 64, 0
1, 23706, Control_c, 3, 1, 27
1, 23708, Note_on_c, 0, 63, 0
1, 23709, Note_on_c, 5, 90, 0
1, 23709, Control_c, 3, 1, 26
1, 23710, Note_on_c, 12, 63, 0
1, 23711, Note_on_c, 5, 92, 68
1, 23712, Note_on_c, 0, 61, 54
1, 23712, Note_on_c, 1, 37, 85
1, 23712, Control_c, 3, 1, 24
1, 23712, Note_on_c, 8, 56, 101
1, 23712, Note_on_c, 9, 36, 103
1, 23712, Note_on_c, 9, 37, 77
1, 23712, Note_on_c, 9, 40, 100
1, 23712, Note_on_c, 9, 39, 49
1, 23712, Note_on_c, 9, 84, 14
1, 23712, Note_on_c, 10, 37, 59
1, 23712, Note_on_c, 11, 37, 65
1, 23712, Lyric_t, "hard "
1, 23714, Note_on_c, 12, 61, 71
1, 23715, Note_on_c, 15, 49, 0
1, 23716, Note_on_c, 9, 40, 0
1, 23716, Note_on_c, 9, 37, 0
1, 23716, Note_on_c, 9, 36, 0
1, 23716, Note_on_c, 9, 84, 0
1, 23716, Note_on_c, 9, 39, 0
1, 23718, Control_c, 3, 1, 21
1, 23722, Control_c, 3, 1, 17
1, 23725, Note_on_c, 5, 92, 0
1, 23725, Control_c, 3, 1, 10
1, 23727, Note_on_c, 15, 56, 0
1, 23730, Control_c, 3, 1, 2
1, 23734, Control_c, 3, 1, 1
1, 23735, Note_on_c, 15, 66, 77
1, 23738, Note_on_c, 8, 56, 0
1, 23743, Pitch_bend_c, 3, 8192
1, 23745, Note_on_c, 10, 37, 0
1, 23745, Note_on_c, 1, 37, 0
1, 23745, Note_on_c, 11, 37, 0
1, 23757, Note_on_c, 0, 61, 0
1, 23758, Note_on_c, 12, 61, 0
1, 23759, Note_on_c, 5, 88, 61
1, 23759, Note_on_c, 8, 56, 95
1, 23759, Note_on_c, 9, 39, 27
1, 23759, Note_on_c, 15, 56, 73
1, 23760, Note_on_c, 0, 59, 54
1, 23760, Note_on_c, 9, 42, 79
1, 23760, Note_on_c, 9, 81, 24
1, 23760, Lyric_t, "to "
1, 23761, Note_on_c, 15, 66, 0
1, 23761, Note_on_c, 12, 59, 70
1, 23763, Note_on_c, 9, 39, 0
1, 23764, Note_on_c, 9, 81, 0
1, 23764, Note_on_c, 9, 42, 0
1, 23774, Note_on_c, 5, 88, 0
1, 23782, Note_on_c, 8, 56, 0
1, 23784, Note_on_c, 15, 56, 0
1, 23792, Note_on_c, 5, 90, 57
1, 23802, Note_on_c, 0, 59, 0
1, 23803, Note_on_c, 5, 90, 0
1, 23804, Note_on_c, 12, 59, 0
1, 23805, Note_on_c, 13, 68, 0
1, 23805, Note_on_c, 13, 80, 0
1, 23807, Note_on_c, 0, 61, 53
1, 23807, Note_on_c, 5, 92, 55
1, 23807, Lyric_t, "see "
1, 23808, Note_on_c, 1, 37, 94
1, 23808, Note_on_c, 7, 37, 85
1, 23808, Note_on_c, 9, 36, 101
1, 23808, Note_on_c, 9, 81, 22
1, 23808, Note_on_c, 10, 37, 54
1, 23808, Note_on_c, 11, 37, 64
1, 23808, Note_on_c, 12, 61, 70
1, 23808, Note_on_c, 13, 80, 77
1, 23808, Note_on_c, 13, 68, 76
1, 23808, Note_on_c, 15, 59, 72
1, 23812, Note_on_c, 9, 81, 0
1, 23812, Note_on_c, 9, 36, 0
1, 23821, Note_on_c, 5, 92, 0
1, 23831, Note_on_c, 15, 64, 80
1, 23832, Note_on_c, 8, 64, 96
1, 23841, Note_on_c, 15, 59, 0
1, 23849, Note_on_c, 8, 64, 0
1, 23855, Note_on_c, 9, 81, 26
1, 23856, Note_on_c, 15, 64, 0
1, 23856, Note_on_c, 15, 59, 75
1, 23859, Note_on_c, 9, 81, 0
1, 23861, Note_on_c, 11, 37, 0
1, 23861, Note_on_c, 1, 37, 0
1, 23861, Note_on_c, 10, 37, 0
1, 23874, Note_on_c, 7, 37, 0
1, 23879, Note_on_c, 15, 61, 75
1, 23880, Note_on_c, 7, 37, 71
1, 23880, Note_on_c, 8, 63, 95
1, 23880, Note_on_c, 9, 42, 78
1, 23884, Note_on_c, 9, 42, 0
1, 23890, Note_on_c, 15, 59, 0
1, 23897, Note_on_c, 8, 63, 0
1, 23898, Note_on_c, 15, 61, 0
1, 23903, Note_on_c, 6, 49, 77
1, 23903, Note_on_c, 9, 42, 78
1, 23903, Note_on_c, 9, 69, 95
1, 23903, Note_on_c, 9, 81, 29
1, 23903, Note_on_c, 13, 85, 77
1, 23903, Note_on_c, 13, 73, 85
1, 23904, Note_on_c, 13, 68, 0
1, 23904, Note_on_c, 13, 80, 0
1, 23904, Note_on_c, 12, 61, 0
1, 23904, Note_on_c, 0, 61, 0
1, 23904, Note_on_c, 0, 56, 56
1, 23904, Note_on_c, 1, 37, 87
1, 23904, Pitch_bend_c, 3, 3743
1, 23904, Note_on_c, 9, 36, 95
1, 23904, Note_on_c, 9, 37, 78
1, 23904, Note_on_c, 9, 40, 102
1, 23904, Note_on_c, 10, 37, 55
1, 23904, Note_on_c, 11, 37, 60
1, 23904, Note_on_c, 15, 64, 78
1, 23904, Lyric_t, "the "
1, 23905, Note_on_c, 9, 39, 58
1, 23907, Note_on_c, 9, 81, 0
1, 23907, Note_on_c, 9, 69, 0
1, 23907, Note_on_c, 9, 42, 0
1, 23908, Note_on_c, 9, 37, 0
1, 23908, Note_on_c, 9, 36, 0
1, 23908, Note_on_c, 9, 40, 0
1, 23908, Pitch_bend_c, 3, 5379
1, 23909, Note_on_c, 9, 39, 0
1, 23910, Note_on_c, 7, 37, 0
1, 23912, Pitch_bend_c, 3, 7015
1, 23916, Pitch_bend_c, 3, 8192
1, 23927, Note_on_c, 9, 81, 29
1, 23927, Note_on_c, 15, 68, 77
1, 23928, Note_on_c, 6, 49, 0
1, 23928, Note_on_c, 8, 63, 104
1, 23931, Note_on_c, 9, 81, 0
1, 23938, Note_on_c, 15, 64, 0
1, 23942, Note_on_c, 10, 37, 0
1, 23942, Note_on_c, 1, 37, 0
1, 23942, Note_on_c, 11, 37, 0
1, 23945, Note_on_c, 8, 63, 0
1, 23951, Note_on_c, 9, 69, 99
1, 23951, Note_on_c, 9, 81, 24
1, 23951, Note_on_c, 9, 42, 75
1, 23951, Note_on_c, 13, 87, 77
1, 23951, Note_on_c, 13, 75, 85
1, 23951, Note_on_c, 15, 63, 79
1, 23952, Note_on_c, 13, 85, 0
1, 23952, Note_on_c, 13, 73, 0
1, 23952, Note_on_c, 6, 47, 76
1, 23952, Note_on_c, 9, 39, 27
1, 23955, Note_on_c, 9, 69, 0
1, 23955, Note_on_c, 9, 81, 0
1, 23955, Note_on_c, 9, 42, 0
1, 23956, Note_on_c, 9, 39, 0
1, 23974, Note_on_c, 6, 47, 0
1, 23975, Note_on_c, 15, 64, 77
1, 23976, Note_on_c, 8, 64, 103
1, 23984, Note_on_c, 9, 40, 74
1, 23986, Note_on_c, 0, 56, 0
1, 23988, Note_on_c, 9, 40, 0
1, 23991, Note_on_c, 15, 63, 0
1, 23991, Note_on_c, 8, 64, 0
1, 23995, Control_c, 3, 1, 3
1, 23996, Note_on_c, 15, 68, 0
1, 23996, Control_c, 3, 1, 18
1, 23997, Note_on_c, 15, 64, 0
1, 23999, Note_on_c, 0, 61, 49
1, 23999, Note_on_c, 1, 37, 87
1, 23999, Note_on_c, 9, 42, 78
1, 23999, Note_on_c, 9, 36, 103
1, 23999, Note_on_c, 10, 37, 57
1, 23999, Note_on_c, 11, 37, 59
1, 23999, Note_on_c, 13, 88, 76
1, 23999, Note_on_c, 13, 76, 80
1, 23999, Note_on_c, 15, 71, 74
1, 23999, Lyric_t, "boy "
1, 24000, Control_c, 3, 1, 24
1, 24000, Note_on_c, 6, 49, 80
1, 24000, Note_on_c, 9, 81, 31
1, 24001, Note_on_c, 13, 75, 0
1, 24001, Note_on_c, 13, 87, 0
1, 24003, Note_on_c, 9, 42, 0
1, 24003, Note_on_c, 9, 36, 0
1, 24004, Note_on_c, 9, 81, 0
1, 24004, Control_c, 3, 1, 28
1, 24010, Control_c, 3, 1, 29
1, 24017, Control_c, 3, 1, 28
1, 24020, Control_c, 3, 1, 27
1, 24023, Control_c, 3, 1, 26
1, 24023, Note_on_c, 8, 64, 98
1, 24023, Note_on_c, 9, 38, 54
1, 24023, Note_on_c, 15, 64, 80
1, 24024, Note_on_c, 9, 42, 53
1, 24024, Note_on_c, 9, 81, 29
1, 24027, Note_on_c, 9, 38, 0
1, 24027, Control_c, 3, 1, 25
1, 24028, Note_on_c, 9, 81, 0
1, 24028, Note_on_c, 9, 42, 0
1, 24029, Note_on_c, 6, 49, 0
1, 24033, Control_c, 3, 1, 24
1, 24036, Note_on_c, 1, 37, 0
1, 24036, Note_on_c, 11, 37, 0
1, 24036, Note_on_c, 10, 37, 0
1, 24038, Control_c, 3, 1, 23
1, 24043, Note_on_c, 8, 64, 0
1, 24047, Note_on_c, 9, 69, 93
1, 24047, Note_on_c, 15, 68, 79
1, 24048, Note_on_c, 7, 37, 73
1, 24048, Note_on_c, 9, 38, 57
1, 24048, Note_on_c, 9, 81, 30
1, 24048, Note_on_c, 13, 87, 78
1, 24048, Note_on_c, 13, 75, 79
1, 24049, Note_on_c, 13, 88, 0
1, 24049, Note_on_c, 13, 76, 0
1, 24050, Note_on_c, 15, 71, 0
1, 24050, Note_on_c, 15, 64, 0
1, 24051, Note_on_c, 9, 69, 0
1, 24052, Note_on_c, 9, 38, 0
1, 24052, Note_on_c, 9, 81, 0
1, 24058, Control_c, 3, 1, 22
1, 24063, Control_c, 3, 1, 21
1, 24065, Note_on_c, 7, 37, 0
1, 24068, Control_c, 3, 1, 20
1, 24071, Note_on_c, 15, 75, 73
1, 24072, Note_on_c, 9, 38, 55
1, 24072, Note_on_c, 9, 81, 29
1, 24072, Note_on_c, 15, 71, 74
1, 24073, Note_on_c, 15, 68, 0
1, 24073, Control_c, 3, 1, 19
1, 24076, Note_on_c, 9, 81, 0
1, 24076, Note_on_c, 9, 38, 0
1, 24087, Note_on_c, 0, 61, 0
1, 24092, Note_on_c, 15, 71, 0
1, 24095, Note_on_c, 0, 56, 51
1, 24095, Control_c, 3, 1, 14
1, 24095, Note_on_c, 15, 71, 80
1, 24095, Lyric_t, "is "
1, 24096, Note_on_c, 1, 40, 93
1, 24096, Note_on_c, 9, 36, 95
1, 24096, Note_on_c, 9, 38, 54
1, 24096, Note_on_c, 9, 37, 80
1, 24096, Note_on_c, 9, 40, 104
1, 24096, Note_on_c, 9, 39, 57
1, 24096, Note_on_c, 10, 40, 56
1, 24096, Note_on_c, 11, 40, 59
1, 24096, Note_on_c, 13, 85, 77
1, 24096, Note_on_c, 13, 73, 85
1, 24097, Note_on_c, 13, 75, 0
1, 24097, Note_on_c, 13, 87, 0
1, 24099, Control_c, 3, 1, 0
1, 24100, Note_on_c, 9, 39, 0
1, 24100, Note_on_c, 9, 38, 0
1, 24100, Note_on_c, 9, 40, 0
1, 24100, Note_on_c, 9, 37, 0
1, 24100, Note_on_c, 9, 36, 0
1, 24120, Note_on_c, 7, 37, 70
1, 24120, Note_on_c, 15, 80, 75
1, 24137, Note_on_c, 7, 37, 0
1, 24137, Note_on_c, 15, 71, 0
1, 24140, Note_on_c, 15, 75, 0
1, 24140, Pitch_bend_c, 3, 5829
1, 24143, Note_on_c, 10, 40, 0
1, 24143, Note_on_c, 1, 40, 0
1, 24143, Note_on_c, 11, 40, 0
1, 24143, Note_on_c, 9, 39, 24
1, 24144, Note_on_c, 1, 44, 89
1, 24144, Pitch_bend_c, 3, 6393
1, 24144, Note_on_c, 9, 36, 99
1, 24144, Note_on_c, 9, 81, 27
1, 24144, Note_on_c, 10, 44, 53
1, 24144, Note_on_c, 11, 44, 66
1, 24144, Note_on_c, 13, 80, 81
1, 24144, Note_on_c, 13, 68, 85
1, 24144, Note_on_c, 15, 61, 72
1, 24144, Note_on_c, 15, 71, 78
1, 24145, Note_on_c, 13, 85, 0
1, 24145, Note_on_c, 13, 73, 0
1, 24145, Note_on_c, 9, 42, 84
1, 24147, Note_on_c, 9, 39, 0
1, 24148, Note_on_c, 9, 81, 0
1, 24148, Note_on_c, 9, 36, 0
1, 24148, Pitch_bend_c, 3, 6957
1, 24149, Note_on_c, 9, 42, 0
1, 24151, Note_on_c, 15, 80, 0
1, 24152, Pitch_bend_c, 3, 7522
1, 24156, Pitch_bend_c, 3, 8086
1, 24160, Pitch_bend_c, 3, 8192
1, 24168, Note_on_c, 15, 83, 80
1, 24168, Note_on_c, 15, 56, 76
1, 24170, Note_on_c, 15, 61, 0
1, 24180, Note_on_c, 15, 71, 0
1, 24184, Note_on_c, 0, 56, 0
1, 24186, Note_on_c, 10, 44, 0
1, 24186, Note_on_c, 1, 44, 0
1, 24186, Note_on_c, 11, 44, 0
1, 24189, Note_on_c, 15, 56, 0
1, 24191, Note_on_c, 0, 57, 50
1, 24191, Lyric_t, "mine. "
1, 24191, Lyric_t, "\015"
1, 24191, Lyric_t, "\012"
1, 24192, Tempo, 645161
1, 24192, Note_on_c, 1, 42, 90
1, 24192, Note_on_c, 8, 54, 98
1, 24192, Note_on_c, 9, 36, 98
1, 24192, Note_on_c, 9, 49, 31
1, 24192, Note_on_c, 9, 81, 23
1, 24192, Note_on_c, 9, 42, 81
1, 24192, Note_on_c, 9, 84, 15
1, 24192, Note_on_c, 10, 42, 61
1, 24192, Note_on_c, 11, 42, 66
1, 24192, Note_on_c, 13, 81, 81
1, 24192, Note_on_c, 13, 69, 79
1, 24192, Note_on_c, 15, 54, 75
1, 24194, Note_on_c, 13, 68, 0
1, 24194, Note_on_c, 13, 80, 0
1, 24195, Note_on_c, 15, 83, 0
1, 24196, Note_on_c, 9, 81, 0
1, 24196, Note_on_c, 9, 49, 0
1, 24196, Note_on_c, 9, 84, 0
1, 24196, Note_on_c, 9, 42, 0
1, 24196, Note_on_c, 9, 36, 0
1, 24216, Note_on_c, 15, 57, 76
1, 24230, Note_on_c, 10, 42, 0
1, 24230, Note_on_c, 1, 42, 0
1, 24230, Note_on_c, 11, 42, 0
1, 24237, Note_on_c, 15, 57, 0
1, 24239, Note_on_c, 9, 81, 26
1, 24240, Note_on_c, 9, 42, 78
1, 24240, Note_on_c, 15, 61, 78
1, 24243, Note_on_c, 9, 81, 0
1, 24244, Note_on_c, 9, 42, 0
1, 24264, Note_on_c, 15, 64, 78
1, 24268, Note_on_c, 15, 61, 0
1, 24287, Note_on_c, 6, 49, 81
1, 24287, Note_on_c, 9, 81, 31
1, 24288, Note_on_c, 15, 64, 0
1, 24288, Note_on_c, 1, 42, 93
1, 24288, Note_on_c, 9, 36, 99
1, 24288, Note_on_c, 9, 37, 73
1, 24288, Note_on_c, 9, 40, 96
1, 24288, Note_on_c, 9, 69, 93
1, 24288, Note_on_c, 9, 84, 18
1, 24288, Note_on_c, 10, 42, 60
1, 24288, Note_on_c, 11, 42, 68
1, 24288, Note_on_c, 15, 68, 80
1, 24289, Note_on_c, 9, 39, 55
1, 24291, Note_on_c, 9, 81, 0
1, 24291, Pitch_bend_c, 3, 8712
1, 24292, Note_on_c, 9, 40, 0
1, 24292, Note_on_c, 9, 37, 0
1, 24292, Note_on_c, 9, 36, 0
1, 24292, Note_on_c, 9, 84, 0
1, 24292, Note_on_c, 9, 69, 0
1, 24292, Pitch_bend_c, 3, 10402
1, 24293, Note_on_c, 9, 39, 0
1, 24296, Pitch_bend_c, 3, 11962
1, 24299, Pitch_bend_c, 3, 13132
1, 24303, Pitch_bend_c, 3, 13912
1, 24306, Pitch_bend_c, 3, 14952
1, 24310, Pitch_bend_c, 3, 16382
1, 24311, Note_on_c, 6, 49, 0
1, 24311, Note_on_c, 9, 81, 25
1, 24312, Note_on_c, 9, 42, 75
1, 24312, Note_on_c, 9, 69, 98
1, 24312, Note_on_c, 15, 64, 74
1, 24313, Control_c, 3, 1, 5
1, 24315, Note_on_c, 9, 81, 0
1, 24315, Note_on_c, 15, 68, 0
1, 24315, Control_c, 3, 1, 20
1, 24316, Note_on_c, 9, 42, 0
1, 24316, Note_on_c, 9, 69, 0
1, 24319, Control_c, 3, 1, 28
1, 24320, Note_on_c, 1, 42, 0
1, 24320, Note_on_c, 10, 42, 0
1, 24320, Note_on_c, 11, 42, 0
1, 24323, Note_on_c, 8, 54, 0
1, 24324, Control_c, 3, 1, 31
1, 24331, Control_c, 3, 1, 32
1, 24335, Note_on_c, 9, 81, 28
1, 24336, Note_on_c, 5, 90, 87
1, 24336, Note_on_c, 6, 47, 77
1, 24336, Note_on_c, 8, 57, 96
1, 24336, Note_on_c, 9, 39, 29
1, 24336, Note_on_c, 9, 69, 100
1, 24337, Note_on_c, 15, 57, 79
1, 24338, Note_on_c, 15, 64, 0
1, 24339, Note_on_c, 9, 81, 0
1, 24340, Note_on_c, 9, 69, 0
1, 24340, Note_on_c, 9, 39, 0
1, 24341, Pitch_bend_c, 3, 11572
1, 24342, Control_c, 3, 1, 34
1, 24344, Note_on_c, 0, 57, 0
1, 24345, Pitch_bend_c, 3, 8192
1, 24348, Control_c, 3, 1, 35
1, 24352, Control_c, 3, 1, 36
1, 24353, Note_on_c, 5, 90, 0
1, 24355, Note_on_c, 15, 57, 0
1, 24356, Control_c, 3, 1, 37
1, 24359, Note_on_c, 15, 61, 78
1, 24360, Note_on_c, 6, 47, 0
1, 24360, Note_on_c, 9, 69, 92
1, 24364, Note_on_c, 9, 69, 0
1, 24366, Note_on_c, 8, 57, 0
1, 24367, Note_on_c, 5, 92, 83
1, 24370, Note_on_c, 15, 54, 0
1, 24375, Note_on_c, 15, 61, 0
1, 24381, Control_c, 3, 1, 36
1, 24383, Note_on_c, 0, 64, 54
1, 24383, Note_on_c, 9, 84, 17
1, 24383, Lyric_t, "I'm "
1, 24384, Note_on_c, 1, 42, 92
1, 24384, Note_on_c, 5, 93, 81
1, 24384, Note_on_c, 6, 49, 79
1, 24384, Note_on_c, 8, 54, 97
1, 24384, Note_on_c, 9, 36, 99
1, 24384, Note_on_c, 9, 42, 76
1, 24384, Note_on_c, 9, 69, 93
1, 24384, Note_on_c, 9, 81, 27
1, 24384, Note_on_c, 10, 42, 53
1, 24384, Note_on_c, 11, 42, 59
1, 24384, Note_on_c, 12, 64, 74
1, 24384, Note_on_c, 15, 54, 74
1, 24387, Note_on_c, 9, 84, 0
1, 24388, Note_on_c, 9, 42, 0
1, 24388, Note_on_c, 9, 36, 0
1, 24388, Note_on_c, 5, 92, 0
1, 24388, Note_on_c, 9, 81, 0
1, 24388, Note_on_c, 9, 69, 0
1, 24394, Control_c, 3, 1, 35
1, 24401, Control_c, 3, 1, 34
1, 24403, Note_on_c, 5, 93, 0
1, 24408, Note_on_c, 9, 42, 60
1, 24408, Note_on_c, 9, 81, 27
1, 24408, Note_on_c, 15, 69, 75
1, 24412, Note_on_c, 9, 81, 0
1, 24412, Note_on_c, 8, 54, 0
1, 24412, Note_on_c, 9, 42, 0
1, 24414, Note_on_c, 6, 49, 0
1, 24414, Note_on_c, 10, 42, 0
1, 24414, Note_on_c, 1, 42, 0
1, 24414, Note_on_c, 11, 42, 0
1, 24424, Control_c, 3, 1, 33
1, 24427, Note_on_c, 12, 64, 0
1, 24432, Note_on_c, 0, 64, 0
1, 24432, Note_on_c, 0, 63, 50
1, 24432, Note_on_c, 5, 90, 74
1, 24432, Note_on_c, 8, 57, 103
1, 24432, Note_on_c, 9, 81, 23
1, 24432, Note_on_c, 12, 63, 69
1, 24432, Note_on_c, 15, 57, 75
1, 24432, Lyric_t, "sor"
1, 24433, Note_on_c, 15, 69, 0
1, 24436, Note_on_c, 9, 81, 0
1, 24450, Note_on_c, 15, 57, 0
1, 24451, Note_on_c, 5, 90, 0
1, 24456, Note_on_c, 9, 42, 83
1, 24456, Note_on_c, 9, 81, 23
1, 24456, Note_on_c, 15, 64, 74
1, 24460, Note_on_c, 9, 81, 0
1, 24460, Note_on_c, 9, 42, 0
1, 24463, Note_on_c, 5, 92, 70
1, 24471, Control_c, 3, 1, 32
1, 24477, Note_on_c, 12, 63, 0
1, 24479, Note_on_c, 0, 63, 0
1, 24479, Note_on_c, 9, 84, 21
1, 24480, Note_on_c, 0, 61, 47
1, 24480, Note_on_c, 1, 42, 87
1, 24480, Note_on_c, 5, 93, 68
1, 24480, Note_on_c, 9, 36, 95
1, 24480, Note_on_c, 9, 37, 73
1, 24480, Note_on_c, 9, 40, 97
1, 24480, Note_on_c, 9, 39, 53
1, 24480, Note_on_c, 10, 42, 56
1, 24480, Note_on_c, 11, 42, 65
1, 24480, Note_on_c, 15, 61, 79
1, 24480, Note_on_c, 15, 57, 74
1, 24480, Lyric_t, "ry "
1, 24481, Note_on_c, 15, 64, 0
1, 24481, Note_on_c, 12, 64, 75
1, 24483, Note_on_c, 9, 84, 0
1, 24484, Note_on_c, 9, 36, 0
1, 24484, Note_on_c, 5, 92, 0
1, 24484, Note_on_c, 9, 40, 0
1, 24484, Note_on_c, 9, 37, 0
1, 24484, Note_on_c, 9, 39, 0
1, 24499, Note_on_c, 15, 57, 0
1, 24499, Note_on_c, 5, 93, 0
1, 24504, Note_on_c, 15, 57, 79
1, 24505, Note_on_c, 15, 61, 0
1, 24509, Control_c, 3, 1, 28
1, 24513, Control_c, 3, 1, 19
1, 24514, Note_on_c, 11, 42, 0
1, 24514, Note_on_c, 1, 42, 0
1, 24514, Note_on_c, 10, 42, 0
1, 24517, Control_c, 3, 1, 1
1, 24524, Note_on_c, 12, 64, 0
1, 24526, Note_on_c, 15, 57, 0
1, 24527, Note_on_c, 9, 39, 28
1, 24528, Note_on_c, 0, 59, 55
1, 24528, Note_on_c, 5, 90, 62
1, 24528, Note_on_c, 9, 42, 83
1, 24528, Note_on_c, 9, 81, 24
1, 24528, Note_on_c, 15, 61, 74
1, 24528, Note_on_c, 15, 57, 73
1, 24528, Lyric_t, "that "
1, 24529, Note_on_c, 12, 64, 66
1, 24531, Note_on_c, 9, 39, 0
1, 24531, Note_on_c, 0, 61, 0
1, 24532, Note_on_c, 9, 81, 0
1, 24532, Note_on_c, 9, 42, 0
1, 24533, Note_on_c, 8, 57, 0
1, 24544, Note_on_c, 15, 54, 0
1, 24545, Note_on_c, 15, 57, 0
1, 24547, Note_on_c, 5, 90, 0
1, 24552, Note_on_c, 8, 54, 101
1, 24552, Note_on_c, 15, 54, 75
1, 24553, Note_on_c, 15, 61, 0
1, 24559, Note_on_c, 5, 92, 58
1, 24573, Note_on_c, 8, 54, 0
1, 24574, Note_on_c, 12, 64, 0
1, 24575, Note_on_c, 0, 61, 54
1, 24575, Lyric_t, "you "
1, 24576, Note_on_c, 15, 54, 0
1, 24576, Note_on_c, 1, 42, 90
1, 24576, Note_on_c, 5, 93, 56
1, 24576, Note_on_c, 7, 42, 90
1, 24576, Note_on_c, 8, 54, 101
1, 24576, Note_on_c, 9, 36, 98
1, 24576, Note_on_c, 9, 81, 25
1, 24576, Note_on_c, 10, 42, 60
1, 24576, Note_on_c, 11, 42, 59
1, 24576, Note_on_c, 15, 66, 75
1, 24577, Note_on_c, 12, 66, 73
1, 24580, Note_on_c, 9, 81, 0
1, 24580, Note_on_c, 9, 36, 0
1, 24581, Note_on_c, 0, 59, 0
1, 24584, Note_on_c, 5, 92, 0
1, 24599, Note_on_c, 15, 57, 73
1, 24605, Note_on_c, 5, 93, 0
1, 24614, Note_on_c, 1, 42, 0
1, 24614, Note_on_c, 11, 42, 0
1, 24614, Note_on_c, 10, 42, 0
1, 24618, Note_on_c, 15, 57, 0
1, 24623, Note_on_c, 9, 81, 30
1, 24623, Note_on_c, 15, 61, 75
1, 24627, Note_on_c, 9, 81, 0
1, 24646, Note_on_c, 7, 42, 0
1, 24647, Note_on_c, 15, 57, 73
1, 24648, Note_on_c, 7, 42, 72
1, 24648, Note_on_c, 9, 42, 78
1, 24652, Note_on_c, 9, 42, 0
1, 24663, Note_on_c, 13, 69, 0
1, 24663, Note_on_c, 13, 81, 0
1, 24667, Note_on_c, 15, 57, 0
1, 24668, Note_on_c, 15, 61, 0
1, 24671, Note_on_c, 7, 42, 0
1, 24671, Note_on_c, 6, 49, 80
1, 24671, Note_on_c, 9, 42, 81
1, 24671, Note_on_c, 9, 69, 100
1, 24671, Note_on_c, 9, 81, 31
1, 24671, Note_on_c, 13, 83, 77
1, 24671, Note_on_c, 13, 71, 77
1, 24671, Note_on_c, 15, 57, 72
1, 24671, Note_on_c, 15, 64, 80
1, 24672, Note_on_c, 1, 42, 86
1, 24672, Note_on_c, 9, 36, 95
1, 24672, Note_on_c, 9, 37, 78
1, 24672, Note_on_c, 9, 40, 98
1, 24672, Note_on_c, 10, 42, 57
1, 24672, Note_on_c, 11, 42, 64
1, 24673, Note_on_c, 9, 39, 58
1, 24675, Note_on_c, 9, 81, 0
1, 24675, Note_on_c, 9, 69, 0
1, 24675, Note_on_c, 9, 42, 0
1, 24676, Note_on_c, 9, 40, 0
1, 24676, Note_on_c, 9, 37, 0
1, 24676, Note_on_c, 9, 36, 0
1, 24677, Note_on_c, 9, 39, 0
1, 24682, Pitch_bend_c, 3, 9232
1, 24685, Note_on_c, 15, 57, 0
1, 24685, Pitch_bend_c, 3, 11442
1, 24688, Pitch_bend_c, 3, 13522
1, 24690, Note_on_c, 15, 64, 0
1, 24690, Note_on_c, 15, 66, 0
1, 24692, Pitch_bend_c, 3, 15732
1, 24695, Pitch_bend_c, 3, 16382
1, 24695, Note_on_c, 9, 81, 22
1, 24696, Note_on_c, 6, 49, 0
1, 24696, Note_on_c, 15, 68, 81
1, 24699, Note_on_c, 9, 81, 0
1, 24704, Note_on_c, 11, 42, 0
1, 24704, Note_on_c, 10, 42, 0
1, 24704, Note_on_c, 1, 42, 0
1, 24709, Note_on_c, 8, 54, 0
1, 24711, Note_on_c, 12, 66, 0
1, 24717, Note_on_c, 15, 68, 0
1, 24719, Note_on_c, 8, 57, 102
1, 24719, Note_on_c, 9, 69, 92
1, 24719, Note_on_c, 9, 81, 26
1, 24719, Note_on_c, 9, 42, 83
1, 24719, Note_on_c, 13, 85, 79
1, 24719, Note_on_c, 13, 73, 79
1, 24720, Note_on_c, 6, 47, 74
1, 24720, Note_on_c, 7, 42, 70
1, 24720, Note_on_c, 9, 39, 26
1, 24720, Note_on_c, 15, 57, 76
1, 24722, Note_on_c, 13, 71, 0
1, 24722, Note_on_c, 13, 83, 0
1, 24723, Note_on_c, 9, 69, 0
1, 24723, Note_on_c, 9, 81, 0
1, 24723, Note_on_c, 9, 42, 0
1, 24724, Note_on_c, 9, 39, 0
1, 24735, Note_on_c, 0, 61, 0
1, 24736, Note_on_c, 15, 57, 0
1, 24739, Note_on_c, 8, 57, 0
1, 24741, Note_on_c, 7, 42, 0
1, 24742, Note_on_c, 6, 47, 0
1, 24743, Note_on_c, 15, 69, 81
1, 24752, Note_on_c, 9, 40, 75
1, 24756, Note_on_c, 9, 40, 0
1, 24762, Note_on_c, 15, 69, 0
1, 24766, Note_on_c, 13, 85, 0
1, 24766, Note_on_c, 13, 73, 0
1, 24766, Control_c, 3, 1, 9
1, 24767, Note_on_c, 0, 66, 56
1, 24767, Note_on_c, 8, 57, 104
1, 24767, Note_on_c, 9, 42, 82
1, 24767, Note_on_c, 13, 87, 80
1, 24767, Note_on_c, 13, 75, 76
1, 24767, Lyric_t, "seem "
1, 24768, Note_on_c, 1, 42, 87
1, 24768, Note_on_c, 6, 49, 74
1, 24768, Note_on_c, 9, 36, 96
1, 24768, Note_on_c, 9, 81, 23
1, 24768, Note_on_c, 10, 42, 56
1, 24768, Note_on_c, 11, 42, 61
1, 24768, Note_on_c, 15, 57, 78
1, 24769, Control_c, 3, 1, 17
1, 24769, Note_on_c, 12, 66, 72
1, 24771, Note_on_c, 9, 42, 0
1, 24772, Note_on_c, 9, 81, 0
1, 24772, Note_on_c, 9, 36, 0
1, 24774, Control_c, 3, 1, 23
1, 24779, Control_c, 3, 1, 25
1, 24783, Control_c, 3, 1, 27
1, 24787, Note_on_c, 15, 57, 0
1, 24787, Note_on_c, 8, 57, 0
1, 24792, Note_on_c, 9, 42, 59
1, 24792, Note_on_c, 9, 81, 31
1, 24792, Note_on_c, 15, 64, 79
1, 24796, Note_on_c, 9, 81, 0
1, 24796, Note_on_c, 9, 42, 0
1, 24797, Note_on_c, 6, 49, 0
1, 24797, Pitch_bend_c, 3, 8192
1, 24798, Note_on_c, 1, 42, 0
1, 24798, Note_on_c, 11, 42, 0
1, 24798, Note_on_c, 10, 42, 0
1, 24800, Pitch_bend_c, 3, 8192
1, 24800, Control_c, 3, 1, 28
1, 24803, Control_c, 3, 1, 29
1, 24806, Control_c, 3, 1, 31
1, 24810, Note_on_c, 15, 64, 0
1, 24814, Control_c, 3, 1, 25
1, 24815, Note_on_c, 13, 75, 0
1, 24815, Note_on_c, 13, 87, 0
1, 24815, Note_on_c, 8, 57, 103
1, 24815, Note_on_c, 9, 69, 92
1, 24815, Note_on_c, 13, 85, 85
1, 24815, Note_on_c, 13, 73, 81
1, 24815, Note_on_c, 15, 57, 81
1, 24816, Note_on_c, 0, 64, 56
1, 24816, Note_on_c, 7, 42, 76
1, 24816, Note_on_c, 9, 81, 25
1, 24816, Lyric_t, "to "
1, 24817, Note_on_c, 0, 66, 0
1, 24818, Note_on_c, 12, 64, 73
1, 24819, Note_on_c, 9, 69, 0
1, 24819, Control_c, 3, 1, 11
1, 24820, Note_on_c, 9, 81, 0
1, 24823, Control_c, 3, 1, 1
1, 24824, Note_on_c, 12, 66, 0
1, 24827, Note_on_c, 7, 42, 0
1, 24833, Note_on_c, 15, 57, 0
1, 24834, Note_on_c, 8, 57, 0
1, 24840, Note_on_c, 9, 81, 26
1, 24840, Note_on_c, 15, 61, 76
1, 24844, Note_on_c, 9, 81, 0
1, 24860, Note_on_c, 15, 61, 0
1, 24862, Note_on_c, 12, 64, 0
1, 24863, Note_on_c, 13, 85, 0
1, 24863, Note_on_c, 13, 73, 0
1, 24863, Note_on_c, 8, 54, 96
1, 24863, Note_on_c, 13, 83, 82
1, 24863, Note_on_c, 13, 71, 80
1, 24863, Note_on_c, 15, 54, 78
1, 24864, Note_on_c, 0, 63, 53
1, 24864, Note_on_c, 1, 44, 91
1, 24864, Note_on_c, 9, 36, 97
1, 24864, Note_on_c, 9, 37, 78
1, 24864, Note_on_c, 9, 40, 98
1, 24864, Note_on_c, 9, 39, 50
1, 24864, Note_on_c, 10, 44, 54
1, 24864, Note_on_c, 11, 44, 64
1, 24864, Lyric_t, "be "
1, 24865, Note_on_c, 12, 63, 66
1, 24868, Note_on_c, 9, 39, 0
1, 24868, Note_on_c, 9, 40, 0
1, 24868, Note_on_c, 0, 64, 0
1, 24868, Note_on_c, 9, 37, 0
1, 24868, Note_on_c, 9, 36, 0
1, 24887, Note_on_c, 15, 61, 76
1, 24908, Note_on_c, 1, 44, 0
1, 24908, Note_on_c, 11, 44, 0
1, 24908, Note_on_c, 10, 44, 0
1, 24910, Note_on_c, 15, 61, 0
1, 24910, Note_on_c, 15, 64, 76
1, 24911, Note_on_c, 15, 54, 0
1, 24911, Note_on_c, 9, 39, 29
1, 24912, Note_on_c, 0, 61, 48
1, 24912, Note_on_c, 1, 39, 86
1, 24912, Note_on_c, 9, 36, 100
1, 24912, Note_on_c, 9, 81, 22
1, 24912, Note_on_c, 11, 39, 62
1, 24912, Note_on_c, 13, 78, 85
1, 24912, Note_on_c, 13, 66, 81
1, 24912, Lyric_t, "con"
1, 24913, Note_on_c, 13, 83, 0
1, 24913, Note_on_c, 13, 71, 0
1, 24913, Note_on_c, 9, 42, 84
1, 24914, Note_on_c, 0, 63, 0
1, 24914, Note_on_c, 10, 39, 55
1, 24914, Note_on_c, 12, 66, 67
1, 24915, Note_on_c, 9, 39, 0
1, 24916, Note_on_c, 9, 81, 0
1, 24916, Note_on_c, 9, 36, 0
1, 24917, Note_on_c, 9, 42, 0
1, 24918, Note_on_c, 12, 63, 0
1, 24935, Note_on_c, 15, 64, 0
1, 24935, Note_on_c, 15, 68, 77
1, 24948, Note_on_c, 8, 54, 0
1, 24952, Note_on_c, 15, 68, 0
1, 24954, Note_on_c, 1, 39, 0
1, 24954, Note_on_c, 11, 39, 0
1, 24956, Note_on_c, 10, 39, 0
1, 24957, Note_on_c, 13, 78, 0
1, 24957, Note_on_c, 13, 66, 0
1, 24959, Note_on_c, 13, 80, 80
1, 24959, Note_on_c, 13, 68, 80
1, 24960, Tempo, 638298
1, 24960, Note_on_c, 0, 63, 56
1, 24960, Note_on_c, 1, 37, 94
1, 24960, Note_on_c, 9, 36, 102
1, 24960, Note_on_c, 9, 49, 30
1, 24960, Note_on_c, 9, 81, 27
1, 24960, Note_on_c, 9, 42, 82
1, 24960, Note_on_c, 9, 84, 16
1, 24960, Note_on_c, 10, 37, 59
1, 24960, Note_on_c, 11, 37, 59
1, 24960, Note_on_c, 15, 49, 76
1, 24960, Lyric_t, "fused, "
1, 24960, Lyric_t, "\015"
1, 24962, Note_on_c, 12, 66, 0
1, 24962, Note_on_c, 12, 68, 71
1, 24964, Note_on_c, 9, 84, 0
1, 24964, Note_on_c, 9, 49, 0
1, 24964, Note_on_c, 9, 42, 0
1, 24964, Note_on_c, 9, 81, 0
1, 24964, Note_on_c, 9, 36, 0
1, 24966, Note_on_c, 0, 61, 0
1, 24983, Note_on_c, 15, 56, 72
1, 24984, Note_on_c, 8, 56, 99
1, 24998, Note_on_c, 8, 56, 0
1, 25004, Note_on_c, 15, 56, 0
1, 25007, Note_on_c, 9, 81, 30
1, 25007, Note_on_c, 15, 59, 77
1, 25008, Note_on_c, 9, 42, 82
1, 25011, Note_on_c, 9, 81, 0
1, 25012, Note_on_c, 9, 42, 0
1, 25013, Note_on_c, 10, 37, 0
1, 25013, Note_on_c, 11, 37, 0
1, 25013, Note_on_c, 1, 37, 0
1, 25031, Note_on_c, 15, 56, 76
1, 25032, Note_on_c, 8, 56, 99
1, 25035, Note_on_c, 15, 59, 0
1, 25049, Note_on_c, 8, 56, 0
1, 25052, Note_on_c, 15, 56, 0
1, 25055, Note_on_c, 6, 49, 81
1, 25055, Note_on_c, 9, 81, 31
1, 25055, Note_on_c, 15, 63, 80
1, 25056, Note_on_c, 1, 37, 87
1, 25056, Note_on_c, 9, 36, 102
1, 25056, Note_on_c, 9, 37, 74
1, 25056, Note_on_c, 9, 40, 97
1, 25056, Note_on_c, 9, 69, 92
1, 25056, Note_on_c, 9, 84, 14
1, 25056, Note_on_c, 10, 37, 59
1, 25056, Note_on_c, 11, 37, 59
1, 25057, Note_on_c, 9, 39, 56
1, 25059, Note_on_c, 9, 81, 0
1, 25060, Note_on_c, 9, 37, 0
1, 25060, Note_on_c, 9, 36, 0
1, 25060, Note_on_c, 9, 84, 0
1, 25060, Note_on_c, 9, 40, 0
1, 25060, Note_on_c, 9, 69, 0
1, 25061, Note_on_c, 9, 39, 0
1, 25077, Note_on_c, 15, 63, 0
1, 25079, Note_on_c, 6, 49, 0
1, 25079, Note_on_c, 8, 56, 100
1, 25079, Note_on_c, 9, 81, 31
1, 25079, Note_on_c, 15, 56, 80
1, 25080, Note_on_c, 9, 42, 78
1, 25080, Note_on_c, 9, 69, 100
1, 25083, Note_on_c, 9, 81, 0
1, 25084, Note_on_c, 9, 69, 0
1, 25084, Note_on_c, 9, 42, 0
1, 25086, Note_on_c, 11, 37, 0
1, 25086, Note_on_c, 1, 37, 0
1, 25086, Note_on_c, 10, 37, 0
1, 25097, Note_on_c, 8, 56, 0
1, 25100, Note_on_c, 15, 56, 0
1, 25103, Note_on_c, 9, 81, 30
1, 25103, Note_on_c, 15, 59, 78
1, 25104, Note_on_c, 5, 88, 86
1, 25104, Note_on_c, 6, 47, 74
1, 25104, Note_on_c, 9, 39, 26
1, 25104, Note_on_c, 9, 69, 99
1, 25106, Note_on_c, 12, 68, 0
1, 25107, Note_on_c, 9, 81, 0
1, 25108, Note_on_c, 9, 69, 0
1, 25108, Note_on_c, 9, 39, 0
1, 25122, Note_on_c, 5, 88, 0
1, 25127, Note_on_c, 15, 59, 0
1, 25127, Note_on_c, 8, 56, 101
1, 25127, Note_on_c, 15, 56, 72
1, 25128, Note_on_c, 0, 63, 0
1, 25128, Note_on_c, 6, 47, 0
1, 25128, Note_on_c, 9, 69, 99
1, 25132, Note_on_c, 9, 69, 0
1, 25136, Note_on_c, 5, 90, 82
1, 25146, Note_on_c, 8, 56, 0
1, 25151, Note_on_c, 0, 64, 48
1, 25151, Note_on_c, 1, 37, 87
1, 25151, Note_on_c, 5, 92, 80
1, 25151, Note_on_c, 9, 36, 101
1, 25151, Note_on_c, 9, 84, 20
1, 25151, Note_on_c, 10, 37, 53
1, 25151, Note_on_c, 11, 37, 68
1, 25151, Note_on_c, 15, 63, 78
1, 25151, Lyric_t, "He "
1, 25152, Note_on_c, 15, 56, 0
1, 25152, Pitch_bend_c, 3, 8972
1, 25152, Note_on_c, 6, 49, 80
1, 25152, Note_on_c, 9, 42, 78
1, 25152, Note_on_c, 9, 69, 95
1, 25152, Note_on_c, 9, 81, 22
1, 25153, Note_on_c, 5, 90, 0
1, 25153, Pitch_bend_c, 3, 11182
1, 25153, Note_on_c, 12, 64, 67
1, 25155, Note_on_c, 9, 84, 0
1, 25155, Note_on_c, 9, 36, 0
1, 25156, Note_on_c, 9, 81, 0
1, 25156, Note_on_c, 9, 69, 0
1, 25156, Note_on_c, 9, 42, 0
1, 25157, Pitch_bend_c, 3, 13262
1, 25161, Pitch_bend_c, 3, 14692
1, 25164, Pitch_bend_c, 3, 15732
1, 25166, Note_on_c, 5, 92, 0
1, 25167, Pitch_bend_c, 3, 16382
1, 25170, Note_on_c, 15, 63, 0
1, 25175, Note_on_c, 8, 56, 101
1, 25175, Note_on_c, 15, 56, 80
1, 25176, Note_on_c, 9, 42, 57
1, 25176, Note_on_c, 9, 81, 26
1, 25180, Note_on_c, 9, 81, 0
1, 25180, Note_on_c, 9, 42, 0
1, 25182, Note_on_c, 6, 49, 0
1, 25183, Control_c, 3, 1, 3
1, 25184, Control_c, 3, 1, 10
1, 25188, Note_on_c, 10, 37, 0
1, 25188, Note_on_c, 11, 37, 0
1, 25188, Note_on_c, 1, 37, 0
1, 25188, Control_c, 3, 1, 20
1, 25189, Note_on_c, 15, 56, 0
1, 25194, Note_on_c, 8, 56, 0
1, 25194, Control_c, 3, 1, 23
1, 25197, Control_c, 3, 1, 27
1, 25198, Note_on_c, 12, 64, 0
1, 25199, Note_on_c, 15, 56, 81
1, 25199, Note_on_c, 15, 61, 80
1, 25200, Note_on_c, 0, 63, 51
1, 25200, Note_on_c, 5, 88, 74
1, 25200, Note_on_c, 9, 81, 22
1, 25200, Lyric_t, "be"
1, 25201, Note_on_c, 12, 63, 69
1, 25202, Note_on_c, 0, 64, 0
1, 25202, Control_c, 3, 1, 31
1, 25204, Note_on_c, 9, 81, 0
1, 25205, Pitch_bend_c, 3, 15732
1, 25206, Pitch_bend_c, 3, 12092
1, 25207, Control_c, 3, 1, 32
1, 25209, Pitch_bend_c, 3, 8192
1, 25210, Note_on_c, 15, 61, 0
1, 25210, Control_c, 3, 1, 33
1, 25213, Note_on_c, 15, 56, 0
1, 25215, Note_on_c, 5, 88, 0
1, 25220, Control_c, 3, 1, 29
1, 25223, Note_on_c, 15, 56, 79
1, 25223, Note_on_c, 15, 64, 73
1, 25224, Control_c, 3, 1, 23
1, 25224, Note_on_c, 8, 56, 95
1, 25224, Note_on_c, 9, 42, 80
1, 25224, Note_on_c, 9, 81, 30
1, 25228, Note_on_c, 9, 81, 0
1, 25228, Note_on_c, 9, 42, 0
1, 25229, Control_c, 3, 1, 13
1, 25232, Note_on_c, 5, 90, 69
1, 25233, Control_c, 3, 1, 1
1, 25237, Note_on_c, 8, 56, 0
1, 25239, Note_on_c, 15, 64, 0
1, 25244, Note_on_c, 0, 63, 0
1, 25245, Note_on_c, 5, 90, 0
1, 25246, Note_on_c, 12, 63, 0
1, 25247, Note_on_c, 5, 92, 67
1, 25248, Note_on_c, 0, 61, 48
1, 25248, Note_on_c, 1, 37, 89
1, 25248, Note_on_c, 8, 56, 100
1, 25248, Note_on_c, 9, 36, 95
1, 25248, Note_on_c, 9, 37, 72
1, 25248, Note_on_c, 9, 40, 96
1, 25248, Note_on_c, 9, 39, 54
1, 25248, Note_on_c, 9, 84, 22
1, 25248, Note_on_c, 10, 37, 60
1, 25248, Note_on_c, 11, 37, 60
1, 25248, Lyric_t, "longs "
1, 25250, Note_on_c, 12, 61, 69
1, 25251, Note_on_c, 15, 49, 0
1, 25252, Note_on_c, 9, 40, 0
1, 25252, Note_on_c, 9, 37, 0
1, 25252, Note_on_c, 9, 36, 0
1, 25252, Note_on_c, 9, 84, 0
1, 25252, Note_on_c, 9, 39, 0
1, 25261, Note_on_c, 5, 92, 0
1, 25263, Note_on_c, 15, 56, 0
1, 25264, Control_c, 3, 1, 15
1, 25269, Control_c, 3, 1, 26
1, 25271, Note_on_c, 15, 66, 76
1, 25273, Control_c, 3, 1, 35
1, 25274, Note_on_c, 8, 56, 0
1, 25279, Control_c, 3, 1, 37
1, 25281, Note_on_c, 10, 37, 0
1, 25281, Note_on_c, 1, 37, 0
1, 25281, Note_on_c, 11, 37, 0
1, 25282, Control_c, 3, 1, 38
1, 25287, Control_c, 3, 1, 39
1, 25293, Note_on_c, 0, 61, 0
1, 25294, Note_on_c, 12, 61, 0
1, 25295, Control_c, 3, 1, 40
1, 25295, Note_on_c, 5, 88, 61
1, 25295, Note_on_c, 8, 56, 104
1, 25295, Note_on_c, 9, 39, 30
1, 25295, Note_on_c, 15, 56, 78
1, 25296, Note_on_c, 0, 59, 50
1, 25296, Note_on_c, 9, 42, 84
1, 25296, Note_on_c, 9, 81, 29
1, 25296, Lyric_t, "to "
1, 25297, Note_on_c, 15, 66, 0
1, 25297, Note_on_c, 12, 59, 70
1, 25299, Note_on_c, 9, 39, 0
1, 25300, Note_on_c, 9, 81, 0
1, 25300, Note_on_c, 9, 42, 0
1, 25306, Control_c, 3, 1, 39
1, 25309, Control_c, 3, 1, 36
1, 25310, Note_on_c, 5, 88, 0
1, 25315, Control_c, 3, 1, 33
1, 25318, Note_on_c, 8, 56, 0
1, 25318, Control_c, 3, 1, 23
1, 25320, Note_on_c, 15, 56, 0
1, 25324, Control_c, 3, 1, 12
1, 25327, Control_c, 3, 1, 0
1, 25328, Note_on_c, 5, 90, 57
1, 25338, Note_on_c, 0, 59, 0
1, 25339, Note_on_c, 5, 90, 0
1, 25340, Note_on_c, 12, 59, 0
1, 25341, Note_on_c, 13, 68, 0
1, 25341, Note_on_c, 13, 80, 0
1, 25343, Note_on_c, 5, 92, 55
1, 25344, Note_on_c, 0, 61, 53
1, 25344, Note_on_c, 1, 37, 93
1, 25344, Note_on_c, 7, 37, 84
1, 25344, Note_on_c, 9, 36, 99
1, 25344, Note_on_c, 9, 81, 28
1, 25344, Note_on_c, 10, 37, 58
1, 25344, Note_on_c, 11, 37, 59
1, 25344, Note_on_c, 12, 64, 74
1, 25344, Note_on_c, 13, 80, 85
1, 25344, Note_on_c, 13, 68, 80
1, 25344, Note_on_c, 15, 59, 80
1, 25344, Lyric_t, "me, "
1, 25348, Note_on_c, 9, 81, 0
1, 25348, Note_on_c, 9, 36, 0
1, 25357, Note_on_c, 5, 92, 0
1, 25367, Note_on_c, 15, 64, 76
1, 25368, Note_on_c, 8, 64, 95
1, 25377, Note_on_c, 15, 59, 0
1, 25385, Note_on_c, 8, 64, 0
1, 25391, Note_on_c, 9, 81, 27
1, 25392, Note_on_c, 15, 64, 0
1, 25392, Note_on_c, 15, 59, 74
1, 25395, Note_on_c, 9, 81, 0
1, 25397, Note_on_c, 11, 37, 0
1, 25397, Note_on_c, 1, 37, 0
1, 25397, Note_on_c, 10, 37, 0
1, 25410, Note_on_c, 7, 37, 0
1, 25415, Note_on_c, 15, 61, 81
1, 25416, Note_on_c, 7, 37, 68
1, 25416, Note_on_c, 8, 63, 104
1, 25416, Note_on_c, 9, 42, 83
1, 25420, Note_on_c, 9, 42, 0
1, 25426, Note_on_c, 15, 59, 0
1, 25431, Note_on_c, 12, 64, 0
1, 25433, Note_on_c, 8, 63, 0
1, 25434, Note_on_c, 15, 61, 0
1, 25436, Note_on_c, 0, 61, 0
1, 25439, Note_on_c, 6, 49, 77
1, 25439, Note_on_c, 9, 42, 84
1, 25439, Note_on_c, 9, 69, 93
1, 25439, Note_on_c, 9, 81, 22
1, 25439, Note_on_c, 13, 85, 78
1, 25439, Note_on_c, 13, 73, 77
1, 25440, Tempo, 638298
1, 25440, Note_on_c, 13, 80, 0
1, 25440, Note_on_c, 13, 68, 0
1, 25440, Note_on_c, 0, 56, 47
1, 25440, Note_on_c, 1, 37, 90
1, 25440, Note_on_c, 9, 36, 103
1, 25440, Note_on_c, 9, 37, 74
1, 25440, Note_on_c, 9, 40, 103
1, 25440, Note_on_c, 10, 37, 54
1, 25440, Note_on_c, 11, 37, 62
1, 25440, Note_on_c, 15, 64, 78
1, 25440, Lyric_t, "the "
1, 25441, Note_on_c, 9, 39, 52
1, 25441, Note_on_c, 12, 56, 75
1, 25443, Note_on_c, 9, 42, 0
1, 25443, Note_on_c, 9, 69, 0
1, 25443, Note_on_c, 9, 81, 0
1, 25444, Note_on_c, 9, 37, 0
1, 25444, Note_on_c, 9, 36, 0
1, 25444, Note_on_c, 9, 40, 0
1, 25445, Note_on_c, 9, 39, 0
1, 25446, Note_on_c, 7, 37, 0
1, 25463, Note_on_c, 9, 81, 31
1, 25463, Note_on_c, 15, 68, 78
1, 25464, Note_on_c, 6, 49, 0
1, 25464, Note_on_c, 8, 63, 98
1, 25467, Note_on_c, 9, 81, 0
1, 25474, Note_on_c, 15, 64, 0
1, 25478, Note_on_c, 1, 37, 0
1, 25478, Note_on_c, 11, 37, 0
1, 25478, Note_on_c, 10, 37, 0
1, 25481, Note_on_c, 8, 63, 0
1, 25487, Note_on_c, 9, 69, 97
1, 25487, Note_on_c, 9, 81, 28
1, 25487, Note_on_c, 9, 42, 80
1, 25487, Note_on_c, 13, 87, 84
1, 25487, Note_on_c, 13, 75, 82
1, 25487, Note_on_c, 15, 63, 78
1, 25488, Note_on_c, 13, 85, 0
1, 25488, Note_on_c, 13, 73, 0
1, 25488, Note_on_c, 6, 47, 73
1, 25488, Note_on_c, 9, 39, 28
1, 25491, Note_on_c, 9, 42, 0
1, 25491, Note_on_c, 9, 81, 0
1, 25491, Note_on_c, 9, 69, 0
1, 25492, Note_on_c, 9, 39, 0
1, 25510, Note_on_c, 6, 47, 0
1, 25511, Note_on_c, 15, 64, 75
1, 25512, Note_on_c, 8, 64, 104
1, 25517, Note_on_c, 12, 56, 0
1, 25520, Note_on_c, 9, 40, 73
1, 25524, Note_on_c, 9, 40, 0
1, 25527, Note_on_c, 8, 64, 0
1, 25527, Note_on_c, 15, 63, 0
1, 25531, Note_on_c, 0, 56, 0
1, 25532, Note_on_c, 15, 68, 0
1, 25533, Note_on_c, 15, 64, 0
1, 25535, Note_on_c, 1, 37, 93
1, 25535, Note_on_c, 9, 42, 80
1, 25535, Note_on_c, 9, 36, 104
1, 25535, Note_on_c, 10, 37, 54
1, 25535, Note_on_c, 11, 37, 59
1, 25535, Note_on_c, 13, 88, 81
1, 25535, Note_on_c, 13, 76, 82
1, 25535, Note_on_c, 15, 71, 81
1, 25536, Note_on_c, 0, 61, 53
1, 25536, Note_on_c, 6, 49, 72
1, 25536, Note_on_c, 9, 81, 31
1, 25536, Note_on_c, 12, 61, 74
1, 25536, Lyric_t, "boy "
1, 25537, Note_on_c, 13, 75, 0
1, 25537, Note_on_c, 13, 87, 0
1, 25539, Note_on_c, 9, 42, 0
1, 25539, Note_on_c, 9, 36, 0
1, 25540, Note_on_c, 9, 81, 0
1, 25559, Note_on_c, 8, 64, 100
1, 25559, Note_on_c, 9, 38, 56
1, 25559, Note_on_c, 15, 64, 77
1, 25560, Note_on_c, 9, 42, 59
1, 25560, Note_on_c, 9, 81, 30
1, 25563, Note_on_c, 9, 38, 0
1, 25564, Note_on_c, 9, 81, 0
1, 25564, Note_on_c, 9, 42, 0
1, 25565, Note_on_c, 6, 49, 0
1, 25572, Note_on_c, 1, 37, 0
1, 25572, Note_on_c, 11, 37, 0
1, 25572, Note_on_c, 10, 37, 0
1, 25579, Note_on_c, 8, 64, 0
1, 25583, Note_on_c, 9, 69, 93
1, 25583, Note_on_c, 15, 68, 73
1, 25584, Note_on_c, 7, 37, 75
1, 25584, Note_on_c, 9, 38, 51
1, 25584, Note_on_c, 9, 81, 26
1, 25584, Note_on_c, 13, 87, 77
1, 25584, Note_on_c, 13, 75, 83
1, 25585, Note_on_c, 13, 88, 0
1, 25585, Note_on_c, 13, 76, 0
1, 25586, Note_on_c, 15, 71, 0
1, 25586, Note_on_c, 15, 64, 0
1, 25587, Note_on_c, 9, 69, 0
1, 25588, Note_on_c, 9, 81, 0
1, 25588, Note_on_c, 9, 38, 0
1, 25601, Note_on_c, 7, 37, 0
1, 25607, Note_on_c, 15, 75, 81
1, 25608, Note_on_c, 9, 38, 50
1, 25608, Note_on_c, 9, 81, 24
1, 25608, Note_on_c, 15, 71, 80
1, 25609, Note_on_c, 15, 68, 0
1, 25612, Note_on_c, 9, 81, 0
1, 25612, Note_on_c, 9, 38, 0
1, 25618, Note_on_c, 12, 61, 0
1, 25627, Note_on_c, 0, 61, 0
1, 25628, Note_on_c, 15, 71, 0
1, 25631, Note_on_c, 15, 71, 72
1, 25632, Note_on_c, 0, 56, 49
1, 25632, Note_on_c, 1, 40, 85
1, 25632, Note_on_c, 9, 36, 101
1, 25632, Note_on_c, 9, 38, 54
1, 25632, Note_on_c, 9, 37, 72
1, 25632, Note_on_c, 9, 40, 103
1, 25632, Note_on_c, 9, 39, 51
1, 25632, Note_on_c, 10, 40, 59
1, 25632, Note_on_c, 11, 40, 67
1, 25632, Note_on_c, 13, 85, 79
1, 25632, Note_on_c, 13, 73, 81
1, 25632, Lyric_t, "is "
1, 25633, Note_on_c, 13, 75, 0
1, 25633, Note_on_c, 13, 87, 0
1, 25633, Note_on_c, 12, 56, 67
1, 25636, Note_on_c, 9, 37, 0
1, 25636, Note_on_c, 9, 38, 0
1, 25636, Note_on_c, 9, 39, 0
1, 25636, Note_on_c, 9, 40, 0
1, 25636, Note_on_c, 9, 36, 0
1, 25656, Note_on_c, 7, 37, 68
1, 25656, Note_on_c, 15, 80, 81
1, 25673, Note_on_c, 7, 37, 0
1, 25673, Note_on_c, 15, 71, 0
1, 25676, Note_on_c, 15, 75, 0
1, 25676, Pitch_bend_c, 3, 5277
1, 25679, Note_on_c, 1, 40, 0
1, 25679, Note_on_c, 10, 40, 0
1, 25679, Note_on_c, 11, 40, 0
1, 25679, Note_on_c, 9, 39, 28
1, 25680, Note_on_c, 1, 44, 93
1, 25680, Pitch_bend_c, 3, 5982
1, 25680, Note_on_c, 9, 36, 101
1, 25680, Note_on_c, 9, 81, 31
1, 25680, Note_on_c, 10, 44, 54
1, 25680, Note_on_c, 11, 44, 68
1, 25680, Note_on_c, 13, 80, 84
1, 25680, Note_on_c, 13, 68, 84
1, 25680, Note_on_c, 15, 61, 75
1, 25680, Note_on_c, 15, 71, 75
1, 25681, Note_on_c, 13, 85, 0
1, 25681, Note_on_c, 13, 73, 0
1, 25681, Note_on_c, 9, 42, 82
1, 25683, Note_on_c, 9, 39, 0
1, 25684, Note_on_c, 9, 81, 0
1, 25684, Note_on_c, 9, 36, 0
1, 25684, Pitch_bend_c, 3, 6688
1, 25685, Note_on_c, 9, 42, 0
1, 25687, Note_on_c, 15, 80, 0
1, 25688, Pitch_bend_c, 3, 7393
1, 25692, Pitch_bend_c, 3, 8192
1, 25704, Note_on_c, 15, 83, 76
1, 25704, Note_on_c, 15, 56, 81
1, 25706, Note_on_c, 15, 61, 0
1, 25706, Note_on_c, 12, 56, 0
1, 25716, Note_on_c, 15, 71, 0
1, 25718, Note_on_c, 0, 56, 0
1, 25722, Note_on_c, 10, 44, 0
1, 25722, Note_on_c, 11, 44, 0
1, 25722, Note_on_c, 1, 44, 0
1, 25725, Note_on_c, 15, 56, 0
1, 25727, Note_on_c, 13, 68, 0
1, 25727, Note_on_c, 13, 80, 0
1, 25728, Note_on_c, 0, 57, 52
1, 25728, Note_on_c, 1, 42, 93
1, 25728, Note_on_c, 8, 54, 99
1, 25728, Note_on_c, 9, 36, 95
1, 25728, Note_on_c, 9, 49, 29
1, 25728, Note_on_c, 9, 81, 23
1, 25728, Note_on_c, 9, 42, 75
1, 25728, Note_on_c, 9, 84, 23
1, 25728, Note_on_c, 10, 42, 54
1, 25728, Note_on_c, 11, 42, 68
1, 25728, Note_on_c, 12, 57, 72
1, 25728, Note_on_c, 15, 54, 72
1, 25728, Lyric_t, "mine. "
1, 25728, Lyric_t, "\015"
1, 25728, Lyric_t, "\012"
1, 25731, Note_on_c, 15, 83, 0
1, 25732, Note_on_c, 9, 84, 0
1, 25732, Note_on_c, 9, 42, 0
1, 25732, Note_on_c, 9, 36, 0
1, 25732, Note_on_c, 9, 81, 0
1, 25732, Note_on_c, 9, 49, 0
1, 25748, Pitch_bend_c, 12, 8582
1, 25749, Pitch_bend_c, 12, 11052
1, 25752, Note_on_c, 15, 57, 78
1, 25753, Pitch_bend_c, 0, 12482
1, 25753, Pitch_bend_c, 12, 13912
1, 25756, Pitch_bend_c, 0, 16382
1, 25756, Pitch_bend_c, 12, 16382
1, 25766, Note_on_c, 10, 42, 0
1, 25766, Note_on_c, 11, 42, 0
1, 25766, Note_on_c, 1, 42, 0
1, 25773, Note_on_c, 15, 57, 0
1, 25775, Note_on_c, 9, 81, 24
1, 25775, Note_on_c, 14, 54, 82
1, 25776, Note_on_c, 9, 42, 77
1, 25776, Note_on_c, 15, 61, 80
1, 25778, Pitch_bend_c, 12, 13782
1, 25779, Note_on_c, 9, 81, 0
1, 25780, Note_on_c, 9, 42, 0
1, 25781, Pitch_bend_c, 12, 10272
1, 25782, Pitch_bend_c, 0, 13912
1, 25784, Pitch_bend_c, 12, 8192
1, 25785, Pitch_bend_c, 0, 8192
1, 25787, Note_on_c, 14, 54, 0
1, 25800, Note_on_c, 15, 64, 74
1, 25804, Note_on_c, 15, 61, 0
1, 25823, Note_on_c, 2, 64, 103
1, 25823, Note_on_c, 6, 49, 79
1, 25823, Note_on_c, 9, 81, 26
1, 25823, Lyric_t, "If "
1, 25824, Note_on_c, 15, 64, 0
1, 25824, Note_on_c, 9, 66, 45
1, 25824, Note_on_c, 9, 69, 98
1, 25824, Note_on_c, 9, 84, 20
1, 25824, Note_on_c, 10, 42, 54
1, 25824, Note_on_c, 15, 68, 76
1, 25825, Note_on_c, 9, 39, 55
1, 25827, Note_on_c, 9, 81, 0
1, 25828, Note_on_c, 9, 84, 0
1, 25828, Note_on_c, 9, 66, 0
1, 25828, Note_on_c, 9, 69, 0
1, 25829, Note_on_c, 9, 39, 0
1, 25834, Note_on_c, 12, 57, 0
1, 25835, Note_on_c, 0, 57, 0
1, 25847, Note_on_c, 6, 49, 0
1, 25847, Note_on_c, 9, 81, 29
1, 25848, Note_on_c, 9, 42, 77
1, 25848, Note_on_c, 9, 69, 97
1, 25848, Note_on_c, 15, 64, 76
1, 25850, Note_on_c, 2, 64, 0
1, 25851, Note_on_c, 15, 68, 0
1, 25851, Note_on_c, 9, 81, 0
1, 25852, Note_on_c, 9, 69, 0
1, 25852, Note_on_c, 9, 42, 0
1, 25856, Note_on_c, 10, 42, 0
1, 25859, Note_on_c, 8, 54, 0
1, 25871, Note_on_c, 2, 64, 95
1, 25871, Note_on_c, 9, 81, 23
1, 25871, Note_on_c, 14, 56, 81
1, 25871, Lyric_t, "you "
1, 25872, Note_on_c, 5, 90, 83
1, 25872, Note_on_c, 6, 47, 78
1, 25872, Note_on_c, 8, 57, 98
1, 25872, Note_on_c, 9, 39, 25
1, 25872, Note_on_c, 9, 69, 92
1, 25873, Note_on_c, 15, 57, 72
1, 25874, Note_on_c, 15, 64, 0
1, 25875, Note_on_c, 9, 81, 0
1, 25876, Note_on_c, 9, 39, 0
1, 25876, Note_on_c, 9, 69, 0
1, 25885, Note_on_c, 14, 56, 0
1, 25889, Note_on_c, 5, 90, 0
1, 25891, Note_on_c, 15, 57, 0
1, 25895, Note_on_c, 15, 61, 81
1, 25896, Note_on_c, 6, 47, 0
1, 25896, Note_on_c, 9, 69, 99
1, 25900, Note_on_c, 9, 69, 0
1, 25902, Note_on_c, 8, 57, 0
1, 25903, Note_on_c, 5, 92, 79
1, 25904, Note_on_c, 2, 64, 0
1, 25906, Note_on_c, 15, 54, 0
1, 25911, Note_on_c, 15, 61, 0
1, 25919, Note_on_c, 9, 84, 18
1, 25920, Tempo, 645161
1, 25920, Note_on_c, 2, 63, 103
1, 25920, Note_on_c, 5, 93, 77
1, 25920, Note_on_c, 6, 49, 81
1, 25920, Note_on_c, 8, 54, 95
1, 25920, Note_on_c, 9, 42, 80
1, 25920, Note_on_c, 9, 69, 100
1, 25920, Note_on_c, 9, 81, 23
1, 25920, Note_on_c, 10, 42, 57
1, 25920, Note_on_c, 15, 54, 76
1, 25920, Lyric_t, "fo"
1, 25923, Note_on_c, 9, 84, 0
1, 25924, Note_on_c, 9, 81, 0
1, 25924, Note_on_c, 9, 69, 0
1, 25924, Note_on_c, 5, 92, 0
1, 25924, Note_on_c, 9, 42, 0
1, 25936, Pitch_bend_c, 2, 8192
1, 25939, Note_on_c, 5, 93, 0
1, 25940, Pitch_bend_c, 2, 7706
1, 25944, Pitch_bend_c, 2, 7220
1, 25944, Note_on_c, 9, 42, 61
1, 25944, Note_on_c, 9, 81, 27
1, 25944, Note_on_c, 15, 69, 76
1, 25948, Note_on_c, 9, 81, 0
1, 25948, Note_on_c, 9, 42, 0
1, 25948, Note_on_c, 8, 54, 0
1, 25948, Pitch_bend_c, 2, 6735
1, 25950, Note_on_c, 6, 49, 0
1, 25950, Note_on_c, 10, 42, 0
1, 25952, Pitch_bend_c, 2, 6249
1, 25956, Note_on_c, 2, 63, 0
1, 25956, Pitch_bend_c, 2, 5763
1, 25964, Pitch_bend_c, 2, 8192
1, 25967, Note_on_c, 14, 57, 77
1, 25968, Note_on_c, 2, 61, 104
1, 25968, Note_on_c, 5, 90, 71
1, 25968, Note_on_c, 8, 57, 100
1, 25968, Note_on_c, 9, 81, 22
1, 25968, Note_on_c, 15, 57, 79
1, 25968, Lyric_t, "cus "
1, 25969, Note_on_c, 15, 69, 0
1, 25972, Note_on_c, 9, 81, 0
1, 25976, Note_on_c, 2, 61, 0
1, 25982, Note_on_c, 14, 57, 0
1, 25986, Note_on_c, 15, 57, 0
1, 25987, Note_on_c, 5, 90, 0
1, 25992, Note_on_c, 2, 61, 102
1, 25992, Note_on_c, 9, 42, 77
1, 25992, Note_on_c, 9, 81, 24
1, 25992, Note_on_c, 15, 64, 72
1, 25992, Lyric_t, "where "
1, 25996, Note_on_c, 9, 81, 0
1, 25996, Note_on_c, 9, 42, 0
1, 25999, Note_on_c, 5, 92, 67
1, 26007, Note_on_c, 2, 61, 0
1, 26015, Note_on_c, 9, 84, 15
1, 26016, Note_on_c, 5, 93, 64
1, 26016, Note_on_c, 9, 66, 45
1, 26016, Note_on_c, 9, 39, 51
1, 26016, Note_on_c, 10, 42, 56
1, 26016, Note_on_c, 15, 61, 72
1, 26016, Note_on_c, 15, 57, 79
1, 26017, Note_on_c, 15, 64, 0
1, 26019, Note_on_c, 9, 84, 0
1, 26020, Note_on_c, 9, 39, 0
1, 26020, Note_on_c, 5, 92, 0
1, 26020, Note_on_c, 9, 66, 0
1, 26035, Note_on_c, 15, 57, 0
1, 26035, Note_on_c, 5, 93, 0
1, 26040, Note_on_c, 15, 57, 80
1, 26041, Note_on_c, 15, 61, 0
1, 26041, Note_on_c, 2, 59, 71
1, 26041, Lyric_t, "I'm "
1, 26050, Note_on_c, 10, 42, 0
1, 26058, Note_on_c, 2, 59, 0
1, 26062, Note_on_c, 15, 57, 0
1, 26063, Note_on_c, 9, 39, 23
1, 26063, Note_on_c, 14, 56, 80
1, 26064, Note_on_c, 5, 90, 58
1, 26064, Note_on_c, 9, 42, 78
1, 26064, Note_on_c, 9, 81, 23
1, 26064, Note_on_c, 15, 61, 72
1, 26064, Note_on_c, 15, 57, 73
1, 26067, Note_on_c, 9, 39, 0
1, 26068, Note_on_c, 9, 81, 0
1, 26068, Note_on_c, 9, 42, 0
1, 26069, Note_on_c, 8, 57, 0
1, 26079, Note_on_c, 14, 56, 0
1, 26080, Note_on_c, 15, 54, 0
1, 26081, Note_on_c, 15, 57, 0
1, 26083, Note_on_c, 5, 90, 0
1, 26088, Note_on_c, 2, 61, 96
1, 26088, Note_on_c, 8, 54, 101
1, 26088, Note_on_c, 15, 54, 78
1, 26088, Lyric_t, "from, "
1, 26088, Lyric_t, "\015"
1, 26089, Note_on_c, 15, 61, 0
1, 26095, Note_on_c, 5, 92, 54
1, 26106, Control_c, 2, 1, 19
1, 26109, Note_on_c, 8, 54, 0
1, 26111, Control_c, 2, 1, 38
1, 26112, Note_on_c, 15, 54, 0
1, 26112, Pitch_bend_c, 2, 8222
1, 26112, Note_on_c, 5, 93, 52
1, 26112, Note_on_c, 8, 54, 95
1, 26112, Note_on_c, 9, 81, 25
1, 26112, Note_on_c, 10, 42, 54
1, 26112, Note_on_c, 15, 66, 75
1, 26116, Note_on_c, 9, 81, 0
1, 26116, Control_c, 2, 1, 47
1, 26116, Pitch_bend_c, 2, 7895
1, 26119, Control_c, 2, 1, 53
1, 26120, Note_on_c, 5, 92, 0
1, 26120, Pitch_bend_c, 2, 7568
1, 26124, Pitch_bend_c, 2, 7240
1, 26124, Control_c, 2, 1, 55
1, 26127, Note_on_c, 2, 61, 0
1, 26128, Pitch_bend_c, 2, 6913
1, 26132, Pitch_bend_c, 2, 6586
1, 26135, Note_on_c, 15, 57, 73
1, 26136, Control_c, 2, 1, 54
1, 26141, Note_on_c, 5, 93, 0
1, 26141, Control_c, 2, 1, 53
1, 26143, Control_c, 2, 1, 51
1, 26148, Control_c, 2, 1, 47
1, 26148, Pitch_bend_c, 2, 8192
1, 26150, Note_on_c, 10, 42, 0
1, 26151, Control_c, 2, 1, 38
1, 26154, Note_on_c, 15, 57, 0
1, 26156, Control_c, 2, 1, 26
1, 26159, Note_on_c, 9, 81, 25
1, 26159, Note_on_c, 14, 54, 78
1, 26159, Note_on_c, 15, 61, 80
1, 26160, Control_c, 2, 1, 10
1, 26163, Note_on_c, 9, 81, 0
1, 26164, Control_c, 2, 1, 0
1, 26172, Note_on_c, 14, 54, 0
1, 26183, Note_on_c, 15, 57, 75
1, 26184, Note_on_c, 9, 42, 84
1, 26188, Note_on_c, 9, 42, 0
1, 26203, Note_on_c, 15, 57, 0
1, 26204, Note_on_c, 15, 61, 0
1, 26207, Note_on_c, 2, 64, 102
1, 26207, Note_on_c, 6, 49, 80
1, 26207, Note_on_c, 9, 42, 78
1, 26207, Note_on_c, 9, 69, 93
1, 26207, Note_on_c, 9, 81, 27
1, 26207, Note_on_c, 15, 57, 78
1, 26207, Note_on_c, 15, 64, 72
1, 26207, Lyric_t, "Sim"
1, 26208, Note_on_c, 9, 66, 50
1, 26208, Note_on_c, 10, 42, 55
1, 26209, Note_on_c, 9, 39, 54
1, 26211, Note_on_c, 9, 81, 0
1, 26211, Note_on_c, 9, 69, 0
1, 26211, Note_on_c, 9, 42, 0
1, 26212, Note_on_c, 9, 66, 0
1, 26213, Note_on_c, 9, 39, 0
1, 26221, Note_on_c, 15, 57, 0
1, 26226, Note_on_c, 15, 64, 0
1, 26226, Note_on_c, 15, 66, 0
1, 26231, Note_on_c, 9, 81, 27
1, 26232, Note_on_c, 6, 49, 0
1, 26232, Note_on_c, 15, 68, 73
1, 26235, Note_on_c, 9, 81, 0
1, 26239, Note_on_c, 2, 64, 0
1, 26240, Note_on_c, 10, 42, 0
1, 26245, Note_on_c, 8, 54, 0
1, 26253, Note_on_c, 15, 68, 0
1, 26255, Note_on_c, 2, 64, 104
1, 26255, Note_on_c, 8, 57, 99
1, 26255, Note_on_c, 9, 69, 99
1, 26255, Note_on_c, 9, 81, 22
1, 26255, Note_on_c, 9, 42, 83
1, 26255, Note_on_c, 14, 56, 79
1, 26255, Lyric_t, "ply "
1, 26256, Note_on_c, 6, 47, 77
1, 26256, Note_on_c, 9, 39, 24
1, 26256, Note_on_c, 15, 57, 81
1, 26259, Note_on_c, 9, 42, 0
1, 26259, Note_on_c, 9, 81, 0
1, 26259, Note_on_c, 9, 69, 0
1, 26260, Note_on_c, 9, 39, 0
1, 26271, Note_on_c, 14, 56, 0
1, 26272, Note_on_c, 15, 57, 0
1, 26275, Note_on_c, 8, 57, 0
1, 26278, Note_on_c, 6, 47, 0
1, 26279, Note_on_c, 15, 69, 80
1, 26285, Note_on_c, 2, 64, 0
1, 26288, Note_on_c, 9, 66, 52
1, 26292, Note_on_c, 9, 66, 0
1, 26298, Note_on_c, 15, 69, 0
1, 26303, Note_on_c, 8, 57, 102
1, 26303, Note_on_c, 9, 42, 83
1, 26304, Note_on_c, 2, 63, 103
1, 26304, Note_on_c, 6, 49, 79
1, 26304, Note_on_c, 9, 81, 22
1, 26304, Note_on_c, 10, 42, 58
1, 26304, Note_on_c, 15, 57, 73
1, 26304, Lyric_t, "give "
1, 26307, Note_on_c, 9, 42, 0
1, 26308, Note_on_c, 9, 81, 0
1, 26323, Note_on_c, 8, 57, 0
1, 26323, Note_on_c, 15, 57, 0
1, 26328, Pitch_bend_c, 2, 8222
1, 26328, Note_on_c, 9, 42, 57
1, 26328, Note_on_c, 9, 81, 22
1, 26328, Note_on_c, 15, 64, 73
1, 26332, Note_on_c, 9, 81, 0
1, 26332, Note_on_c, 9, 42, 0
1, 26332, Pitch_bend_c, 2, 7670
1, 26333, Note_on_c, 6, 49, 0
1, 26334, Note_on_c, 10, 42, 0
1, 26336, Pitch_bend_c, 2, 7118
1, 26340, Pitch_bend_c, 2, 6565
1, 26343, Note_on_c, 2, 63, 0
1, 26344, Pitch_bend_c, 2, 6013
1, 26346, Note_on_c, 15, 64, 0
1, 26348, Pitch_bend_c, 2, 5461
1, 26351, Note_on_c, 8, 57, 104
1, 26351, Note_on_c, 9, 69, 95
1, 26351, Note_on_c, 14, 57, 83
1, 26351, Note_on_c, 15, 57, 78
1, 26352, Pitch_bend_c, 2, 8192
1, 26352, Note_on_c, 2, 61, 100
1, 26352, Note_on_c, 9, 81, 31
1, 26352, Lyric_t, "the "
1, 26355, Note_on_c, 9, 69, 0
1, 26356, Note_on_c, 9, 81, 0
1, 26361, Note_on_c, 2, 61, 0
1, 26367, Note_on_c, 14, 57, 0
1, 26369, Note_on_c, 15, 57, 0
1, 26370, Note_on_c, 8, 57, 0
1, 26376, Note_on_c, 2, 61, 102
1, 26376, Note_on_c, 9, 81, 26
1, 26376, Note_on_c, 15, 61, 79
1, 26376, Lyric_t, "moon "
1, 26380, Note_on_c, 9, 81, 0
1, 26394, Note_on_c, 2, 61, 0
1, 26396, Note_on_c, 15, 61, 0
1, 26399, Note_on_c, 8, 54, 101
1, 26399, Note_on_c, 15, 54, 74
1, 26400, Note_on_c, 9, 66, 52
1, 26400, Note_on_c, 9, 39, 56
1, 26400, Note_on_c, 10, 44, 53
1, 26404, Note_on_c, 9, 39, 0
1, 26404, Note_on_c, 9, 66, 0
1, 26423, Note_on_c, 15, 61, 81
1, 26425, Note_on_c, 2, 59, 71
1, 26425, Lyric_t, "new "
1, 26444, Note_on_c, 10, 44, 0
1, 26445, Note_on_c, 2, 59, 0
1, 26446, Note_on_c, 15, 61, 0
1, 26446, Note_on_c, 15, 64, 81
1, 26447, Note_on_c, 15, 54, 0
1, 26447, Note_on_c, 9, 39, 25
1, 26447, Note_on_c, 14, 56, 80
1, 26448, Note_on_c, 9, 81, 22
1, 26449, Note_on_c, 9, 42, 75
1, 26450, Note_on_c, 10, 39, 60
1, 26451, Note_on_c, 9, 39, 0
1, 26452, Note_on_c, 9, 81, 0
1, 26453, Note_on_c, 9, 42, 0
1, 26460, Note_on_c, 14, 56, 0
1, 26471, Note_on_c, 15, 64, 0
1, 26471, Note_on_c, 15, 68, 77
1, 26472, Note_on_c, 2, 61, 95
1, 26472, Lyric_t, "round, "
1, 26472, Lyric_t, "\015"
1, 26472, Lyric_t, "\012"
1, 26484, Note_on_c, 8, 54, 0
1, 26488, Note_on_c, 15, 68, 0
1, 26489, Control_c, 2, 1, 13
1, 26492, Note_on_c, 10, 39, 0
1, 26493, Control_c, 2, 1, 35
1, 26496, Note_on_c, 9, 49, 31
1, 26496, Note_on_c, 9, 81, 27
1, 26496, Note_on_c, 9, 42, 79
1, 26496, Note_on_c, 9, 84, 19
1, 26496, Note_on_c, 10, 37, 53
1, 26496, Note_on_c, 15, 49, 74
1, 26498, Control_c, 2, 1, 47
1, 26500, Note_on_c, 9, 84, 0
1, 26500, Note_on_c, 9, 42, 0
1, 26500, Note_on_c, 9, 81, 0
1, 26500, Note_on_c, 9, 49, 0
1, 26502, Control_c, 2, 1, 52
1, 26505, Note_on_c, 2, 61, 0
1, 26506, Control_c, 2, 1, 52
1, 26511, Control_c, 2, 1, 45
1, 26516, Control_c, 2, 1, 28
1, 26519, Note_on_c, 15, 56, 81
1, 26520, Control_c, 2, 1, 10
1, 26520, Note_on_c, 8, 56, 98
1, 26525, Control_c, 2, 1, 0
1, 26534, Note_on_c, 8, 56, 0
1, 26540, Note_on_c, 15, 56, 0
1, 26543, Note_on_c, 9, 81, 30
1, 26543, Note_on_c, 14, 49, 81
1, 26543, Note_on_c, 15, 59, 72
1, 26544, Note_on_c, 9, 42, 82
1, 26547, Note_on_c, 9, 81, 0
1, 26548, Note_on_c, 9, 42, 0
1, 26549, Note_on_c, 10, 37, 0
1, 26559, Note_on_c, 14, 49, 0
1, 26567, Note_on_c, 15, 56, 72
1, 26568, Note_on_c, 2, 61, 67
1, 26568, Note_on_c, 8, 56, 99
1, 26568, Lyric_t, "The "
1, 26571, Note_on_c, 15, 59, 0
1, 26577, Note_on_c, 2, 61, 0
1, 26585, Note_on_c, 8, 56, 0
1, 26588, Note_on_c, 15, 56, 0
1, 26591, Note_on_c, 2, 59, 95
1, 26591, Note_on_c, 6, 49, 73
1, 26591, Note_on_c, 9, 81, 24
1, 26591, Note_on_c, 15, 63, 77
1, 26591, Lyric_t, "boy "
1, 26592, Note_on_c, 9, 66, 47
1, 26592, Note_on_c, 9, 69, 101
1, 26592, Note_on_c, 9, 84, 19
1, 26592, Note_on_c, 10, 37, 53
1, 26593, Note_on_c, 9, 39, 56
1, 26595, Note_on_c, 9, 81, 0
1, 26596, Note_on_c, 9, 84, 0
1, 26596, Note_on_c, 9, 69, 0
1, 26596, Note_on_c, 9, 66, 0
1, 26597, Note_on_c, 9, 39, 0
1, 26613, Note_on_c, 15, 63, 0
1, 26615, Note_on_c, 6, 49, 0
1, 26615, Note_on_c, 2, 59, 0
1, 26615, Note_on_c, 2, 61, 63
1, 26615, Note_on_c, 8, 56, 99
1, 26615, Note_on_c, 9, 81, 22
1, 26615, Note_on_c, 15, 56, 79
1, 26615, Lyric_t, "is "
1, 26616, Note_on_c, 9, 42, 82
1, 26616, Note_on_c, 9, 69, 98
1, 26619, Note_on_c, 9, 81, 0
1, 26620, Note_on_c, 9, 69, 0
1, 26620, Note_on_c, 9, 42, 0
1, 26622, Note_on_c, 10, 37, 0
1, 26628, Note_on_c, 2, 61, 0
1, 26633, Note_on_c, 8, 56, 0
1, 26636, Note_on_c, 15, 56, 0
1, 26639, Note_on_c, 2, 63, 104
1, 26639, Note_on_c, 9, 81, 25
1, 26639, Note_on_c, 14, 51, 81
1, 26639, Note_on_c, 15, 59, 80
1, 26639, Lyric_t, "a"
1, 26640, Note_on_c, 5, 88, 83
1, 26640, Note_on_c, 6, 47, 77
1, 26640, Note_on_c, 9, 39, 25
1, 26640, Note_on_c, 9, 69, 101
1, 26643, Note_on_c, 9, 81, 0
1, 26644, Note_on_c, 9, 69, 0
1, 26644, Note_on_c, 9, 39, 0
1, 26658, Note_on_c, 5, 88, 0
1, 26661, Note_on_c, 14, 51, 0
1, 26661, Note_on_c, 2, 63, 0
1, 26663, Note_on_c, 15, 59, 0
1, 26663, Note_on_c, 2, 61, 75
1, 26663, Note_on_c, 8, 56, 97
1, 26663, Note_on_c, 15, 56, 81
1, 26663, Lyric_t, "bove "
1, 26664, Note_on_c, 6, 47, 0
1, 26664, Note_on_c, 9, 69, 99
1, 26668, Note_on_c, 9, 69, 0
1, 26672, Note_on_c, 5, 90, 78
1, 26676, Note_on_c, 2, 61, 0
1, 26682, Note_on_c, 8, 56, 0
1, 26687, Note_on_c, 5, 92, 76
1, 26687, Note_on_c, 9, 84, 17
1, 26687, Note_on_c, 10, 37, 56
1, 26687, Note_on_c, 15, 63, 76
1, 26688, Tempo, 645161
1, 26688, Note_on_c, 15, 56, 0
1, 26688, Note_on_c, 2, 63, 104
1, 26688, Note_on_c, 6, 49, 74
1, 26688, Note_on_c, 9, 42, 80
1, 26688, Note_on_c, 9, 69, 97
1, 26688, Note_on_c, 9, 81, 26
1, 26688, Lyric_t, "with"
1, 26689, Note_on_c, 5, 90, 0
1, 26691, Note_on_c, 9, 84, 0
1, 26692, Note_on_c, 9, 69, 0
1, 26692, Note_on_c, 9, 42, 0
1, 26692, Note_on_c, 9, 81, 0
1, 26699, Control_c, 2, 1, 4
1, 26700, Control_c, 2, 1, 23
1, 26702, Note_on_c, 5, 92, 0
1, 26704, Control_c, 2, 1, 38
1, 26706, Note_on_c, 15, 63, 0
1, 26709, Control_c, 2, 1, 41
1, 26711, Note_on_c, 8, 56, 100
1, 26711, Note_on_c, 15, 56, 80
1, 26712, Pitch_bend_c, 2, 7680
1, 26712, Note_on_c, 9, 42, 53
1, 26712, Note_on_c, 9, 81, 28
1, 26716, Note_on_c, 9, 81, 0
1, 26716, Note_on_c, 9, 42, 0
1, 26716, Control_c, 2, 1, 38
1, 26716, Pitch_bend_c, 2, 7658
1, 26718, Note_on_c, 6, 49, 0
1, 26719, Control_c, 2, 1, 27
1, 26720, Pitch_bend_c, 2, 7124
1, 26723, Control_c, 2, 1, 10
1, 26724, Note_on_c, 10, 37, 0
1, 26724, Pitch_bend_c, 2, 6590
1, 26725, Note_on_c, 15, 56, 0
1, 26727, Control_c, 2, 1, 0
1, 26728, Note_on_c, 2, 63, 0
1, 26728, Pitch_bend_c, 2, 6056
1, 26730, Note_on_c, 8, 56, 0
1, 26733, Pitch_bend_c, 2, 8192
1, 26735, Note_on_c, 14, 52, 83
1, 26735, Note_on_c, 15, 56, 74
1, 26735, Note_on_c, 15, 61, 78
1, 26736, Note_on_c, 2, 61, 95
1, 26736, Note_on_c, 5, 88, 69
1, 26736, Note_on_c, 9, 81, 31
1, 26736, Lyric_t, "out "
1, 26740, Note_on_c, 9, 81, 0
1, 26746, Note_on_c, 15, 61, 0
1, 26748, Note_on_c, 2, 61, 0
1, 26749, Note_on_c, 15, 56, 0
1, 26751, Note_on_c, 5, 88, 0
1, 26756, Note_on_c, 14, 52, 0
1, 26759, Note_on_c, 15, 56, 80
1, 26759, Note_on_c, 15, 64, 76
1, 26760, Note_on_c, 2, 61, 101
1, 26760, Note_on_c, 8, 56, 104
1, 26760, Note_on_c, 9, 42, 83
1, 26760, Note_on_c, 9, 81, 30
1, 26760, Lyric_t, "a "
1, 26764, Note_on_c, 9, 81, 0
1, 26764, Note_on_c, 9, 42, 0
1, 26768, Note_on_c, 5, 90, 65
1, 26773, Note_on_c, 8, 56, 0
1, 26775, Note_on_c, 15, 64, 0
1, 26778, Note_on_c, 2, 61, 0
1, 26781, Note_on_c, 5, 90, 0
1, 26783, Note_on_c, 5, 92, 63
1, 26784, Note_on_c, 8, 56, 103
1, 26784, Note_on_c, 9, 66, 51
1, 26784, Note_on_c, 9, 39, 49
1, 26784, Note_on_c, 9, 84, 15
1, 26784, Note_on_c, 10, 37, 54
1, 26787, Note_on_c, 15, 49, 0
1, 26788, Note_on_c, 9, 66, 0
1, 26788, Note_on_c, 9, 39, 0
1, 26788, Note_on_c, 9, 84, 0
1, 26797, Note_on_c, 5, 92, 0
1, 26799, Note_on_c, 15, 56, 0
1, 26807, Note_on_c, 15, 66, 75
1, 26808, Note_on_c, 2, 59, 103
1, 26808, Lyric_t, "doubt, "
1, 26808, Lyric_t, "\015"
1, 26810, Note_on_c, 8, 56, 0
1, 26817, Note_on_c, 10, 37, 0
1, 26827, Note_on_c, 2, 59, 0
1, 26831, Note_on_c, 5, 88, 56
1, 26831, Note_on_c, 8, 56, 98
1, 26831, Note_on_c, 9, 39, 21
1, 26831, Note_on_c, 14, 51, 77
1, 26831, Note_on_c, 15, 56, 74
1, 26832, Note_on_c, 9, 42, 79
1, 26832, Note_on_c, 9, 81, 25
1, 26833, Note_on_c, 15, 66, 0
1, 26835, Note_on_c, 9, 39, 0
1, 26836, Note_on_c, 9, 81, 0
1, 26836, Note_on_c, 9, 42, 0
1, 26846, Note_on_c, 5, 88, 0
1, 26850, Note_on_c, 14, 51, 0
1, 26854, Note_on_c, 8, 56, 0
1, 26855, Note_on_c, 2, 61, 101
1, 26856, Note_on_c, 15, 56, 0
1, 26864, Note_on_c, 5, 90, 51
1, 26868, Control_c, 2, 1, 11
1, 26871, Control_c, 2, 1, 29
1, 26875, Note_on_c, 5, 90, 0
1, 26875, Control_c, 2, 1, 38
1, 26879, Note_on_c, 5, 92, 49
1, 26880, Control_c, 2, 1, 41
1, 26880, Note_on_c, 9, 81, 22
1, 26880, Note_on_c, 10, 37, 53
1, 26880, Note_on_c, 15, 59, 73
1, 26881, Note_on_c, 3, 63, 101
1, 26884, Note_on_c, 9, 81, 0
1, 26886, Control_c, 2, 1, 42
1, 26893, Note_on_c, 5, 92, 0
1, 26894, Control_c, 3, 1, 10
1, 26897, Control_c, 2, 1, 41
1, 26898, Note_on_c, 2, 61, 0
1, 26898, Control_c, 3, 1, 14
1, 26903, Control_c, 3, 1, 17
1, 26903, Note_on_c, 15, 64, 76
1, 26904, Note_on_c, 8, 64, 101
1, 26907, Control_c, 2, 1, 39
1, 26907, Control_c, 3, 1, 19
1, 26911, Control_c, 2, 1, 33
1, 26913, Note_on_c, 15, 59, 0
1, 26916, Control_c, 2, 1, 16
1, 26916, Control_c, 3, 1, 13
1, 26920, Control_c, 3, 1, 0
1, 26921, Note_on_c, 8, 64, 0
1, 26921, Control_c, 2, 1, 0
1, 26927, Note_on_c, 9, 81, 23
1, 26927, Note_on_c, 14, 49, 81
1, 26928, Note_on_c, 15, 64, 0
1, 26928, Note_on_c, 15, 59, 79
1, 26931, Note_on_c, 9, 81, 0
1, 26933, Note_on_c, 10, 37, 0
1, 26942, Note_on_c, 3, 63, 0
1, 26945, Note_on_c, 14, 49, 0
1, 26945, Note_on_c, 3, 64, 96
1, 26945, Lyric_t, "He "
1, 26951, Note_on_c, 2, 59, 79
1, 26951, Note_on_c, 15, 61, 73
1, 26952, Note_on_c, 8, 63, 99
1, 26952, Note_on_c, 9, 42, 78
1, 26956, Note_on_c, 9, 42, 0
1, 26959, Note_on_c, 2, 59, 0
1, 26962, Note_on_c, 15, 59, 0
1, 26965, Note_on_c, 3, 63, 59
1, 26968, Note_on_c, 3, 64, 0
1, 26969, Note_on_c, 8, 63, 0
1, 26970, Note_on_c, 15, 61, 0
1, 26975, Note_on_c, 2, 61, 100
1, 26975, Note_on_c, 6, 49, 75
1, 26975, Note_on_c, 9, 42, 81
1, 26975, Note_on_c, 9, 69, 94
1, 26975, Note_on_c, 9, 81, 28
1, 26975, Lyric_t, "might "
1, 26976, Note_on_c, 3, 61, 100
1, 26976, Note_on_c, 9, 66, 47
1, 26976, Note_on_c, 10, 37, 57
1, 26976, Note_on_c, 15, 64, 72
1, 26977, Note_on_c, 9, 39, 52
1, 26979, Note_on_c, 9, 81, 0
1, 26979, Note_on_c, 9, 42, 0
1, 26979, Note_on_c, 9, 69, 0
1, 26980, Note_on_c, 9, 66, 0
1, 26981, Note_on_c, 9, 39, 0
1, 26983, Note_on_c, 3, 63, 0
1, 26999, Note_on_c, 9, 81, 24
1, 26999, Note_on_c, 15, 68, 81
1, 27000, Note_on_c, 6, 49, 0
1, 27000, Note_on_c, 8, 63, 97
1, 27003, Note_on_c, 9, 81, 0
1, 27008, Note_on_c, 2, 61, 0
1, 27010, Note_on_c, 15, 64, 0
1, 27013, Note_on_c, 3, 61, 0
1, 27014, Note_on_c, 10, 37, 0
1, 27017, Note_on_c, 8, 63, 0
1, 27023, Note_on_c, 2, 63, 101
1, 27023, Note_on_c, 9, 69, 97
1, 27023, Note_on_c, 9, 81, 27
1, 27023, Note_on_c, 9, 42, 79
1, 27023, Note_on_c, 14, 51, 83
1, 27023, Note_on_c, 15, 63, 78
1, 27023, Lyric_t, "as "
1, 27024, Note_on_c, 3, 66, 98
1, 27024, Note_on_c, 6, 47, 80
1, 27024, Note_on_c, 9, 39, 24
1, 27027, Note_on_c, 9, 42, 0
1, 27027, Note_on_c, 9, 81, 0
1, 27027, Note_on_c, 9, 69, 0
1, 27028, Note_on_c, 9, 39, 0
1, 27044, Pitch_bend_c, 2, 4110
1, 27045, Note_on_c, 14, 51, 0
1, 27046, Note_on_c, 6, 47, 0
1, 27046, Control_c, 2, 11, 80
1, 27047, Note_on_c, 15, 64, 73
1, 27048, Note_on_c, 8, 64, 100
1, 27050, Note_on_c, 3, 66, 0
1, 27056, Note_on_c, 9, 66, 45
1, 27057, Note_on_c, 2, 63, 0
1, 27060, Note_on_c, 9, 66, 0
1, 27063, Note_on_c, 15, 63, 0
1, 27063, Note_on_c, 8, 64, 0
1, 27066, Control_c, 2, 11, 127
1, 27068, Note_on_c, 15, 68, 0
1, 27068, Pitch_bend_c, 2, 8192
1, 27069, Note_on_c, 15, 64, 0
1, 27071, Note_on_c, 2, 63, 96
1, 27071, Note_on_c, 9, 42, 76
1, 27071, Note_on_c, 10, 37, 60
1, 27071, Note_on_c, 15, 71, 72
1, 27071, Lyric_t, "well "
1, 27072, Note_on_c, 3, 66, 103
1, 27072, Note_on_c, 6, 49, 75
1, 27072, Note_on_c, 9, 81, 28
1, 27075, Note_on_c, 9, 42, 0
1, 27076, Note_on_c, 9, 81, 0
1, 27095, Note_on_c, 8, 64, 101
1, 27095, Note_on_c, 9, 38, 50
1, 27095, Note_on_c, 15, 64, 77
1, 27096, Note_on_c, 9, 42, 54
1, 27096, Note_on_c, 9, 81, 26
1, 27099, Note_on_c, 9, 38, 0
1, 27100, Note_on_c, 9, 81, 0
1, 27100, Note_on_c, 9, 42, 0
1, 27100, Control_c, 3, 1, 14
1, 27101, Note_on_c, 6, 49, 0
1, 27105, Control_c, 3, 1, 21
1, 27108, Note_on_c, 2, 63, 0
1, 27108, Note_on_c, 10, 37, 0
1, 27109, Control_c, 3, 1, 26
1, 27115, Note_on_c, 8, 64, 0
1, 27116, Control_c, 3, 1, 28
1, 27116, Control_c, 3, 11, 127
1, 27119, Note_on_c, 9, 69, 92
1, 27119, Note_on_c, 14, 52, 76
1, 27119, Note_on_c, 15, 68, 81
1, 27120, Note_on_c, 2, 61, 67
1, 27120, Control_c, 3, 11, 120
1, 27120, Control_c, 3, 1, 29
1, 27120, Note_on_c, 9, 38, 51
1, 27120, Note_on_c, 9, 81, 22
1, 27120, Lyric_t, "come "
1, 27122, Note_on_c, 15, 64, 0
1, 27122, Note_on_c, 15, 71, 0
1, 27123, Note_on_c, 9, 69, 0
1, 27124, Note_on_c, 9, 38, 0
1, 27124, Note_on_c, 9, 81, 0
1, 27124, Control_c, 3, 1, 31
1, 27124, Control_c, 3, 11, 112
1, 27128, Note_on_c, 2, 61, 0
1, 27128, Control_c, 3, 11, 104
1, 27130, Control_c, 3, 1, 32
1, 27132, Control_c, 3, 11, 89
1, 27139, Control_c, 3, 1, 33
1, 27140, Control_c, 3, 11, 81
1, 27142, Note_on_c, 14, 52, 0
1, 27143, Note_on_c, 15, 75, 76
1, 27144, Note_on_c, 2, 61, 100
1, 27144, Control_c, 3, 11, 74
1, 27144, Note_on_c, 9, 38, 49
1, 27144, Note_on_c, 9, 81, 29
1, 27144, Note_on_c, 15, 71, 75
1, 27144, Lyric_t, "in "
1, 27145, Note_on_c, 15, 68, 0
1, 27147, Control_c, 3, 1, 34
1, 27148, Note_on_c, 9, 38, 0
1, 27148, Note_on_c, 9, 81, 0
1, 27148, Control_c, 3, 11, 66
1, 27152, Control_c, 3, 11, 58
1, 27156, Control_c, 3, 11, 51
1, 27157, Note_on_c, 3, 66, 0
1, 27159, Note_on_c, 2, 61, 0
1, 27160, Control_c, 3, 11, 43
1, 27164, Note_on_c, 15, 71, 0
1, 27164, Control_c, 3, 11, 35
1, 27167, Note_on_c, 15, 71, 77
1, 27168, Tempo, 638298
1, 27168, Note_on_c, 1, 40, 88
1, 27168, Control_c, 3, 11, 28
1, 27168, Note_on_c, 9, 36, 98
1, 27168, Note_on_c, 9, 66, 50
1, 27168, Note_on_c, 9, 38, 56
1, 27168, Note_on_c, 9, 40, 103
1, 27168, Note_on_c, 9, 39, 50
1, 27168, Note_on_c, 10, 40, 62
1, 27168, Note_on_c, 11, 40, 61
1, 27172, Note_on_c, 9, 39, 0
1, 27172, Note_on_c, 9, 40, 0
1, 27172, Note_on_c, 9, 36, 0
1, 27172, Note_on_c, 9, 38, 0
1, 27172, Note_on_c, 9, 66, 0
1, 27172, Control_c, 3, 1, 33
1, 27176, Control_c, 3, 1, 32
1, 27177, Control_c, 3, 1, 27
1, 27182, Control_c, 3, 1, 21
1, 27186, Control_c, 3, 1, 12
1, 27188, Control_c, 3, 11, 127
1, 27191, Control_c, 3, 1, 2
1, 27192, Note_on_c, 2, 59, 104
1, 27192, Note_on_c, 15, 80, 77
1, 27192, Lyric_t, "up "
1, 27195, Control_c, 3, 1, 0
1, 27208, Note_on_c, 2, 59, 0
1, 27209, Note_on_c, 15, 71, 0
1, 27212, Note_on_c, 15, 75, 0
1, 27215, Note_on_c, 10, 40, 0
1, 27215, Note_on_c, 1, 40, 0
1, 27215, Note_on_c, 11, 40, 0
1, 27215, Note_on_c, 9, 39, 26
1, 27215, Note_on_c, 14, 51, 80
1, 27216, Note_on_c, 1, 44, 93
1, 27216, Note_on_c, 9, 36, 98
1, 27216, Note_on_c, 9, 81, 22
1, 27216, Note_on_c, 10, 44, 53
1, 27216, Note_on_c, 11, 44, 60
1, 27216, Note_on_c, 15, 61, 72
1, 27216, Note_on_c, 15, 71, 76
1, 27217, Note_on_c, 9, 42, 78
1, 27219, Note_on_c, 9, 39, 0
1, 27220, Note_on_c, 9, 36, 0
1, 27220, Note_on_c, 9, 81, 0
1, 27221, Note_on_c, 9, 42, 0
1, 27223, Note_on_c, 15, 80, 0
1, 27235, Note_on_c, 14, 51, 0
1, 27239, Note_on_c, 2, 61, 99
1, 27239, Lyric_t, "top. "
1, 27239, Lyric_t, "\015"
1, 27239, Lyric_t, "\012"
1, 27240, Note_on_c, 15, 83, 74
1, 27240, Note_on_c, 15, 56, 73
1, 27242, Note_on_c, 15, 61, 0
1, 27252, Note_on_c, 15, 71, 0
1, 27258, Note_on_c, 10, 44, 0
1, 27258, Note_on_c, 1, 44, 0
1, 27258, Note_on_c, 11, 44, 0
1, 27261, Note_on_c, 15, 56, 0
1, 27264, Note_on_c, 1, 42, 85
1, 27264, Note_on_c, 8, 54, 100
1, 27264, Note_on_c, 9, 36, 95
1, 27264, Note_on_c, 9, 49, 30
1, 27264, Note_on_c, 9, 81, 31
1, 27264, Note_on_c, 9, 42, 82
1, 27264, Note_on_c, 9, 84, 15
1, 27264, Note_on_c, 10, 42, 56
1, 27264, Note_on_c, 11, 42, 64
1, 27264, Note_on_c, 15, 54, 73
1, 27267, Note_on_c, 15, 83, 0
1, 27268, Note_on_c, 9, 84, 0
1, 27268, Note_on_c, 9, 42, 0
1, 27268, Note_on_c, 9, 36, 0
1, 27268, Note_on_c, 9, 81, 0
1, 27268, Note_on_c, 9, 49, 0
1, 27276, Control_c, 2, 11, 119
1, 27284, Control_c, 2, 11, 112
1, 27288, Control_c, 2, 11, 105
1, 27288, Note_on_c, 15, 57, 78
1, 27292, Control_c, 2, 11, 98
1, 27294, Note_on_c, 2, 61, 0
1, 27296, Control_c, 2, 11, 92
1, 27300, Control_c, 2, 11, 85
1, 27302, Note_on_c, 11, 42, 0
1, 27302, Note_on_c, 10, 42, 0
1, 27302, Note_on_c, 1, 42, 0
1, 27304, Control_c, 2, 11, 78
1, 27309, Note_on_c, 15, 57, 0
1, 27311, Note_on_c, 9, 81, 26
1, 27311, Note_on_c, 14, 54, 81
1, 27312, Note_on_c, 9, 42, 78
1, 27312, Note_on_c, 15, 61, 75
1, 27312, Lyric_t, "What "
1, 27315, Note_on_c, 9, 81, 0
1, 27316, Note_on_c, 9, 42, 0
1, 27323, Note_on_c, 14, 54, 0
1, 27332, Control_c, 2, 11, 127
1, 27336, Note_on_c, 15, 64, 78
1, 27340, Note_on_c, 15, 61, 0
1, 27359, Note_on_c, 2, 64, 101
1, 27359, Note_on_c, 6, 49, 80
1, 27359, Note_on_c, 9, 81, 26
1, 27359, Lyric_t, "makes "
1, 27360, Note_on_c, 15, 64, 0
1, 27360, Note_on_c, 1, 42, 94
1, 27360, Note_on_c, 9, 36, 102
1, 27360, Note_on_c, 9, 37, 77
1, 27360, Note_on_c, 9, 40, 101
1, 27360, Note_on_c, 9, 69, 98
1, 27360, Note_on_c, 9, 84, 17
1, 27360, Note_on_c, 10, 42, 61
1, 27360, Note_on_c, 11, 42, 68
1, 27360, Note_on_c, 15, 68, 75
1, 27361, Note_on_c, 9, 39, 53
1, 27363, Note_on_c, 9, 81, 0
1, 27364, Note_on_c, 9, 84, 0
1, 27364, Note_on_c, 9, 37, 0
1, 27364, Note_on_c, 9, 69, 0
1, 27364, Note_on_c, 9, 40, 0
1, 27364, Note_on_c, 9, 36, 0
1, 27365, Note_on_c, 9, 39, 0
1, 27383, Note_on_c, 6, 49, 0
1, 27383, Note_on_c, 9, 81, 23
1, 27384, Note_on_c, 9, 42, 81
1, 27384, Note_on_c, 9, 69, 98
1, 27384, Note_on_c, 15, 64, 76
1, 27386, Note_on_c, 2, 64, 0
1, 27387, Note_on_c, 9, 81, 0
1, 27387, Note_on_c, 15, 68, 0
1, 27388, Note_on_c, 9, 42, 0
1, 27388, Note_on_c, 9, 69, 0
1, 27392, Note_on_c, 1, 42, 0
1, 27392, Note_on_c, 11, 42, 0
1, 27392, Note_on_c, 10, 42, 0
1, 27395, Note_on_c, 8, 54, 0
1, 27407, Note_on_c, 2, 64, 104
1, 27407, Note_on_c, 9, 81, 31
1, 27407, Note_on_c, 14, 56, 84
1, 27407, Lyric_t, "you "
1, 27408, Note_on_c, 5, 90, 82
1, 27408, Note_on_c, 6, 47, 80
1, 27408, Note_on_c, 8, 57, 103
1, 27408, Note_on_c, 9, 39, 29
1, 27408, Note_on_c, 9, 69, 101
1, 27409, Note_on_c, 15, 57, 75
1, 27410, Note_on_c, 15, 64, 0
1, 27411, Note_on_c, 9, 81, 0
1, 27412, Note_on_c, 9, 39, 0
1, 27412, Note_on_c, 9, 69, 0
1, 27421, Note_on_c, 14, 56, 0
1, 27425, Note_on_c, 5, 90, 0
1, 27427, Note_on_c, 15, 57, 0
1, 27431, Note_on_c, 15, 61, 77
1, 27432, Note_on_c, 6, 47, 0
1, 27432, Note_on_c, 9, 69, 101
1, 27436, Note_on_c, 9, 69, 0
1, 27438, Note_on_c, 8, 57, 0
1, 27439, Note_on_c, 5, 92, 78
1, 27440, Note_on_c, 2, 64, 0
1, 27442, Note_on_c, 15, 54, 0
1, 27447, Note_on_c, 15, 61, 0
1, 27455, Note_on_c, 9, 84, 14
1, 27456, Note_on_c, 1, 42, 87
1, 27456, Note_on_c, 2, 63, 95
1, 27456, Note_on_c, 5, 93, 76
1, 27456, Note_on_c, 6, 49, 73
1, 27456, Note_on_c, 8, 54, 99
1, 27456, Note_on_c, 9, 36, 104
1, 27456, Note_on_c, 9, 42, 81
1, 27456, Note_on_c, 9, 69, 94
1, 27456, Note_on_c, 9, 81, 27
1, 27456, Note_on_c, 10, 42, 62
1, 27456, Note_on_c, 11, 42, 68
1, 27456, Note_on_c, 15, 54, 78
1, 27456, Lyric_t, "think "
1, 27459, Note_on_c, 9, 84, 0
1, 27460, Note_on_c, 9, 81, 0
1, 27460, Note_on_c, 9, 36, 0
1, 27460, Note_on_c, 5, 92, 0
1, 27460, Note_on_c, 9, 69, 0
1, 27460, Note_on_c, 9, 42, 0
1, 27472, Pitch_bend_c, 2, 8192
1, 27475, Note_on_c, 5, 93, 0
1, 27476, Pitch_bend_c, 2, 7706
1, 27480, Pitch_bend_c, 2, 7220
1, 27480, Note_on_c, 9, 42, 53
1, 27480, Note_on_c, 9, 81, 27
1, 27480, Note_on_c, 15, 69, 75
1, 27484, Note_on_c, 9, 81, 0
1, 27484, Note_on_c, 9, 42, 0
1, 27484, Note_on_c, 8, 54, 0
1, 27484, Pitch_bend_c, 2, 6735
1, 27486, Note_on_c, 10, 42, 0
1, 27486, Note_on_c, 6, 49, 0
1, 27486, Note_on_c, 1, 42, 0
1, 27486, Note_on_c, 11, 42, 0
1, 27488, Pitch_bend_c, 2, 6249
1, 27492, Note_on_c, 2, 63, 0
1, 27492, Pitch_bend_c, 2, 5763
1, 27500, Pitch_bend_c, 2, 8192
1, 27503, Note_on_c, 14, 57, 82
1, 27504, Note_on_c, 2, 61, 101
1, 27504, Note_on_c, 5, 90, 70
1, 27504, Note_on_c, 8, 57, 102
1, 27504, Note_on_c, 9, 81, 30
1, 27504, Note_on_c, 15, 57, 74
1, 27504, Lyric_t, "that "
1, 27505, Note_on_c, 15, 69, 0
1, 27508, Note_on_c, 9, 81, 0
1, 27512, Note_on_c, 2, 61, 0
1, 27518, Note_on_c, 14, 57, 0
1, 27522, Note_on_c, 15, 57, 0
1, 27523, Note_on_c, 5, 90, 0
1, 27528, Note_on_c, 2, 61, 59
1, 27528, Note_on_c, 9, 42, 76
1, 27528, Note_on_c, 9, 81, 30
1, 27528, Note_on_c, 15, 64, 77
1, 27528, Lyric_t, "he "
1, 27532, Note_on_c, 9, 81, 0
1, 27532, Note_on_c, 9, 42, 0
1, 27535, Note_on_c, 5, 92, 66
1, 27543, Note_on_c, 2, 61, 0
1, 27551, Note_on_c, 9, 84, 18
1, 27552, Note_on_c, 1, 42, 94
1, 27552, Note_on_c, 5, 93, 64
1, 27552, Note_on_c, 9, 36, 99
1, 27552, Note_on_c, 9, 37, 77
1, 27552, Note_on_c, 9, 40, 99
1, 27552, Note_on_c, 9, 39, 56
1, 27552, Note_on_c, 10, 42, 58
1, 27552, Note_on_c, 11, 42, 65
1, 27552, Note_on_c, 15, 61, 75
1, 27552, Note_on_c, 15, 57, 80
1, 27553, Note_on_c, 15, 64, 0
1, 27555, Note_on_c, 9, 84, 0
1, 27556, Note_on_c, 9, 37, 0
1, 27556, Note_on_c, 9, 36, 0
1, 27556, Note_on_c, 9, 39, 0
1, 27556, Note_on_c, 5, 92, 0
1, 27556, Note_on_c, 9, 40, 0
1, 27571, Note_on_c, 15, 57, 0
1, 27571, Note_on_c, 5, 93, 0
1, 27576, Note_on_c, 15, 57, 78
1, 27577, Note_on_c, 15, 61, 0
1, 27577, Note_on_c, 2, 59, 101
1, 27577, Lyric_t, "wants "
1, 27586, Note_on_c, 1, 42, 0
1, 27586, Note_on_c, 10, 42, 0
1, 27586, Note_on_c, 11, 42, 0
1, 27594, Note_on_c, 2, 59, 0
1, 27598, Note_on_c, 15, 57, 0
1, 27599, Note_on_c, 9, 39, 24
1, 27599, Note_on_c, 14, 56, 85
1, 27600, Note_on_c, 5, 90, 58
1, 27600, Note_on_c, 9, 42, 80
1, 27600, Note_on_c, 9, 81, 24
1, 27600, Note_on_c, 15, 61, 77
1, 27600, Note_on_c, 15, 57, 75
1, 27603, Note_on_c, 9, 39, 0
1, 27604, Note_on_c, 9, 81, 0
1, 27604, Note_on_c, 9, 42, 0
1, 27605, Note_on_c, 8, 57, 0
1, 27615, Note_on_c, 14, 56, 0
1, 27616, Note_on_c, 15, 54, 0
1, 27617, Note_on_c, 15, 57, 0
1, 27619, Note_on_c, 5, 90, 0
1, 27624, Note_on_c, 2, 61, 99
1, 27624, Note_on_c, 8, 54, 103
1, 27624, Note_on_c, 15, 54, 77
1, 27624, Lyric_t, "you, "
1, 27624, Lyric_t, "\015"
1, 27625, Note_on_c, 15, 61, 0
1, 27631, Note_on_c, 5, 92, 54
1, 27637, Control_c, 2, 1, 21
1, 27641, Control_c, 2, 1, 36
1, 27645, Note_on_c, 8, 54, 0
1, 27645, Control_c, 2, 1, 47
1, 27648, Note_on_c, 15, 54, 0
1, 27648, Note_on_c, 1, 42, 87
1, 27648, Pitch_bend_c, 2, 8222
1, 27648, Note_on_c, 5, 93, 52
1, 27648, Note_on_c, 7, 42, 90
1, 27648, Note_on_c, 8, 54, 104
1, 27648, Note_on_c, 9, 36, 104
1, 27648, Note_on_c, 9, 81, 30
1, 27648, Note_on_c, 10, 42, 60
1, 27648, Note_on_c, 11, 42, 66
1, 27648, Note_on_c, 15, 66, 73
1, 27650, Control_c, 2, 1, 50
1, 27652, Note_on_c, 9, 81, 0
1, 27652, Note_on_c, 9, 36, 0
1, 27652, Pitch_bend_c, 2, 7895
1, 27656, Note_on_c, 5, 92, 0
1, 27656, Pitch_bend_c, 2, 7568
1, 27660, Pitch_bend_c, 2, 7240
1, 27660, Control_c, 2, 1, 49
1, 27663, Note_on_c, 2, 61, 0
1, 27663, Control_c, 2, 1, 46
1, 27664, Pitch_bend_c, 2, 6913
1, 27668, Pitch_bend_c, 2, 6586
1, 27669, Control_c, 2, 1, 44
1, 27671, Note_on_c, 15, 57, 79
1, 27674, Control_c, 2, 1, 42
1, 27677, Note_on_c, 5, 93, 0
1, 27677, Control_c, 2, 1, 39
1, 27681, Control_c, 2, 1, 34
1, 27684, Pitch_bend_c, 2, 8192
1, 27685, Control_c, 2, 1, 4
1, 27686, Note_on_c, 10, 42, 0
1, 27686, Note_on_c, 11, 42, 0
1, 27686, Note_on_c, 1, 42, 0
1, 27690, Note_on_c, 15, 57, 0
1, 27690, Control_c, 2, 1, 0
1, 27695, Note_on_c, 9, 81, 27
1, 27695, Note_on_c, 14, 54, 84
1, 27695, Note_on_c, 15, 61, 78
1, 27696, Lyric_t, "When "
1, 27699, Note_on_c, 9, 81, 0
1, 27708, Note_on_c, 14, 54, 0
1, 27718, Note_on_c, 7, 42, 0
1, 27719, Note_on_c, 15, 57, 76
1, 27720, Note_on_c, 7, 42, 76
1, 27720, Note_on_c, 9, 42, 81
1, 27724, Note_on_c, 9, 42, 0
1, 27739, Note_on_c, 15, 57, 0
1, 27740, Note_on_c, 15, 61, 0
1, 27743, Note_on_c, 7, 42, 0
1, 27743, Note_on_c, 2, 64, 102
1, 27743, Note_on_c, 6, 49, 73
1, 27743, Note_on_c, 9, 42, 81
1, 27743, Note_on_c, 9, 69, 98
1, 27743, Note_on_c, 9, 81, 23
1, 27743, Note_on_c, 15, 57, 78
1, 27743, Note_on_c, 15, 64, 81
1, 27743, Lyric_t, "I'm "
1, 27744, Note_on_c, 1, 42, 90
1, 27744, Note_on_c, 9, 36, 103
1, 27744, Note_on_c, 9, 37, 78
1, 27744, Note_on_c, 9, 40, 101
1, 27744, Note_on_c, 10, 42, 55
1, 27744, Note_on_c, 11, 42, 66
1, 27745, Note_on_c, 9, 39, 52
1, 27747, Note_on_c, 9, 81, 0
1, 27747, Note_on_c, 9, 69, 0
1, 27747, Note_on_c, 9, 42, 0
1, 27748, Note_on_c, 9, 36, 0
1, 27748, Note_on_c, 9, 40, 0
1, 27748, Note_on_c, 9, 37, 0
1, 27749, Note_on_c, 9, 39, 0
1, 27757, Note_on_c, 15, 57, 0
1, 27762, Note_on_c, 15, 64, 0
1, 27762, Note_on_c, 15, 66, 0
1, 27767, Note_on_c, 9, 81, 31
1, 27768, Note_on_c, 6, 49, 0
1, 27768, Note_on_c, 15, 68, 80
1, 27771, Note_on_c, 9, 81, 0
1, 27775, Note_on_c, 2, 64, 0
1, 27776, Note_on_c, 10, 42, 0
1, 27776, Note_on_c, 1, 42, 0
1, 27776, Note_on_c, 11, 42, 0
1, 27781, Note_on_c, 8, 54, 0
1, 27789, Note_on_c, 15, 68, 0
1, 27791, Note_on_c, 2, 64, 100
1, 27791, Note_on_c, 8, 57, 102
1, 27791, Note_on_c, 9, 69, 101
1, 27791, Note_on_c, 9, 81, 22
1, 27791, Note_on_c, 9, 42, 82
1, 27791, Note_on_c, 14, 56, 80
1, 27791, Lyric_t, "the "
1, 27792, Note_on_c, 6, 47, 77
1, 27792, Note_on_c, 7, 42, 73
1, 27792, Note_on_c, 9, 39, 21
1, 27792, Note_on_c, 15, 57, 79
1, 27795, Note_on_c, 9, 42, 0
1, 27795, Note_on_c, 9, 81, 0
1, 27795, Note_on_c, 9, 69, 0
1, 27796, Note_on_c, 9, 39, 0
1, 27807, Note_on_c, 14, 56, 0
1, 27808, Note_on_c, 15, 57, 0
1, 27811, Note_on_c, 8, 57, 0
1, 27813, Note_on_c, 7, 42, 0
1, 27814, Note_on_c, 6, 47, 0
1, 27815, Note_on_c, 15, 69, 72
1, 27821, Note_on_c, 2, 64, 0
1, 27824, Note_on_c, 9, 40, 80
1, 27828, Note_on_c, 9, 40, 0
1, 27834, Note_on_c, 15, 69, 0
1, 27839, Note_on_c, 8, 57, 103
1, 27839, Note_on_c, 9, 42, 83
1, 27840, Note_on_c, 1, 42, 85
1, 27840, Note_on_c, 2, 63, 95
1, 27840, Note_on_c, 6, 49, 73
1, 27840, Note_on_c, 9, 36, 99
1, 27840, Note_on_c, 9, 81, 23
1, 27840, Note_on_c, 10, 42, 54
1, 27840, Note_on_c, 11, 42, 60
1, 27840, Note_on_c, 15, 57, 74
1, 27840, Lyric_t, "one "
1, 27843, Note_on_c, 9, 42, 0
1, 27844, Note_on_c, 9, 81, 0
1, 27844, Note_on_c, 9, 36, 0
1, 27859, Note_on_c, 15, 57, 0
1, 27859, Note_on_c, 8, 57, 0
1, 27864, Pitch_bend_c, 2, 8222
1, 27864, Note_on_c, 9, 42, 57
1, 27864, Note_on_c, 9, 81, 31
1, 27864, Note_on_c, 15, 64, 79
1, 27868, Note_on_c, 9, 81, 0
1, 27868, Note_on_c, 9, 42, 0
1, 27868, Pitch_bend_c, 2, 7670
1, 27869, Note_on_c, 6, 49, 0
1, 27870, Note_on_c, 10, 42, 0
1, 27870, Note_on_c, 11, 42, 0
1, 27870, Note_on_c, 1, 42, 0
1, 27872, Pitch_bend_c, 2, 7118
1, 27876, Pitch_bend_c, 2, 6565
1, 27879, Note_on_c, 2, 63, 0
1, 27880, Pitch_bend_c, 2, 6013
1, 27882, Note_on_c, 15, 64, 0
1, 27884, Pitch_bend_c, 2, 5461
1, 27887, Note_on_c, 8, 57, 100
1, 27887, Note_on_c, 9, 69, 99
1, 27887, Note_on_c, 14, 57, 83
1, 27887, Note_on_c, 15, 57, 78
1, 27888, Pitch_bend_c, 2, 8192
1, 27888, Note_on_c, 2, 61, 104
1, 27888, Note_on_c, 7, 42, 69
1, 27888, Note_on_c, 9, 81, 23
1, 27888, Lyric_t, "that "
1, 27891, Note_on_c, 9, 69, 0
1, 27892, Note_on_c, 9, 81, 0
1, 27897, Note_on_c, 2, 61, 0
1, 27899, Note_on_c, 7, 42, 0
1, 27903, Note_on_c, 14, 57, 0
1, 27905, Note_on_c, 15, 57, 0
1, 27906, Note_on_c, 8, 57, 0
1, 27912, Note_on_c, 2, 61, 67
1, 27912, Note_on_c, 9, 81, 27
1, 27912, Note_on_c, 15, 61, 72
1, 27912, Lyric_t, "brought "
1, 27916, Note_on_c, 9, 81, 0
1, 27930, Note_on_c, 2, 61, 0
1, 27932, Note_on_c, 15, 61, 0
1, 27935, Note_on_c, 8, 54, 95
1, 27935, Note_on_c, 15, 54, 77
1, 27936, Tempo, 645161
1, 27936, Note_on_c, 1, 44, 86
1, 27936, Note_on_c, 9, 36, 95
1, 27936, Note_on_c, 9, 37, 80
1, 27936, Note_on_c, 9, 40, 96
1, 27936, Note_on_c, 9, 39, 57
1, 27936, Note_on_c, 10, 44, 53
1, 27936, Note_on_c, 11, 44, 65
1, 27940, Note_on_c, 9, 39, 0
1, 27940, Note_on_c, 9, 36, 0
1, 27940, Note_on_c, 9, 40, 0
1, 27940, Note_on_c, 9, 37, 0
1, 27959, Note_on_c, 15, 61, 81
1, 27961, Note_on_c, 2, 59, 103
1, 27961, Lyric_t, "him "
1, 27980, Note_on_c, 10, 44, 0
1, 27980, Note_on_c, 11, 44, 0
1, 27980, Note_on_c, 1, 44, 0
1, 27981, Note_on_c, 2, 59, 0
1, 27982, Note_on_c, 15, 61, 0
1, 27982, Note_on_c, 15, 64, 81
1, 27983, Note_on_c, 15, 54, 0
1, 27983, Note_on_c, 9, 39, 30
1, 27983, Note_on_c, 14, 56, 78
1, 27984, Note_on_c, 1, 39, 93
1, 27984, Note_on_c, 9, 36, 104
1, 27984, Note_on_c, 9, 81, 24
1, 27984, Note_on_c, 11, 39, 59
1, 27985, Note_on_c, 9, 42, 83
1, 27986, Note_on_c, 10, 39, 53
1, 27987, Note_on_c, 9, 39, 0
1, 27988, Note_on_c, 9, 81, 0
1, 27988, Note_on_c, 9, 36, 0
1, 27989, Note_on_c, 9, 42, 0
1, 27996, Note_on_c, 14, 56, 0
1, 28007, Note_on_c, 15, 64, 0
1, 28007, Note_on_c, 15, 68, 79
1, 28008, Note_on_c, 2, 61, 97
1, 28008, Lyric_t, "to, "
1, 28008, Lyric_t, "\015"
1, 28008, Lyric_t, "\012"
1, 28020, Note_on_c, 8, 54, 0
1, 28024, Note_on_c, 15, 68, 0
1, 28025, Control_c, 2, 1, 8
1, 28026, Note_on_c, 11, 39, 0
1, 28026, Note_on_c, 1, 39, 0
1, 28028, Note_on_c, 10, 39, 0
1, 28028, Control_c, 2, 1, 28
1, 28032, Note_on_c, 1, 37, 94
1, 28032, Control_c, 2, 1, 37
1, 28032, Note_on_c, 9, 36, 102
1, 28032, Note_on_c, 9, 49, 32
1, 28032, Note_on_c, 9, 81, 28
1, 28032, Note_on_c, 9, 42, 79
1, 28032, Note_on_c, 9, 84, 18
1, 28032, Note_on_c, 10, 37, 59
1, 28032, Note_on_c, 11, 37, 66
1, 28032, Note_on_c, 15, 49, 81
1, 28036, Note_on_c, 9, 84, 0
1, 28036, Note_on_c, 9, 49, 0
1, 28036, Note_on_c, 9, 36, 0
1, 28036, Note_on_c, 9, 42, 0
1, 28036, Note_on_c, 9, 81, 0
1, 28040, Control_c, 2, 1, 35
1, 28041, Note_on_c, 2, 61, 0
1, 28041, Control_c, 2, 1, 23
1, 28046, Control_c, 2, 1, 1
1, 28055, Note_on_c, 15, 56, 80
1, 28056, Note_on_c, 8, 56, 98
1, 28070, Note_on_c, 8, 56, 0
1, 28076, Note_on_c, 15, 56, 0
1, 28079, Note_on_c, 9, 81, 26
1, 28079, Note_on_c, 14, 49, 85
1, 28079, Note_on_c, 15, 59, 72
1, 28080, Note_on_c, 9, 42, 77
1, 28083, Note_on_c, 9, 81, 0
1, 28084, Note_on_c, 9, 42, 0
1, 28085, Note_on_c, 11, 37, 0
1, 28085, Note_on_c, 10, 37, 0
1, 28085, Note_on_c, 1, 37, 0
1, 28095, Note_on_c, 14, 49, 0
1, 28103, Note_on_c, 15, 56, 75
1, 28104, Note_on_c, 2, 61, 59
1, 28104, Note_on_c, 8, 56, 103
1, 28107, Note_on_c, 15, 59, 0
1, 28113, Note_on_c, 2, 61, 0
1, 28121, Note_on_c, 8, 56, 0
1, 28124, Note_on_c, 15, 56, 0
1, 28127, Note_on_c, 2, 59, 101
1, 28127, Note_on_c, 6, 49, 72
1, 28127, Note_on_c, 9, 81, 29
1, 28127, Note_on_c, 15, 63, 79
1, 28127, Lyric_t, "Spec"
1, 28128, Note_on_c, 1, 37, 90
1, 28128, Note_on_c, 9, 36, 100
1, 28128, Note_on_c, 9, 37, 73
1, 28128, Note_on_c, 9, 40, 98
1, 28128, Note_on_c, 9, 69, 92
1, 28128, Note_on_c, 9, 84, 20
1, 28128, Note_on_c, 10, 37, 56
1, 28128, Note_on_c, 11, 37, 67
1, 28129, Note_on_c, 9, 39, 53
1, 28131, Note_on_c, 9, 81, 0
1, 28132, Note_on_c, 9, 84, 0
1, 28132, Note_on_c, 9, 37, 0
1, 28132, Note_on_c, 9, 69, 0
1, 28132, Note_on_c, 9, 40, 0
1, 28132, Note_on_c, 9, 36, 0
1, 28133, Note_on_c, 9, 39, 0
1, 28149, Note_on_c, 15, 63, 0
1, 28151, Note_on_c, 2, 59, 0
1, 28151, Note_on_c, 6, 49, 0
1, 28151, Note_on_c, 2, 61, 71
1, 28151, Note_on_c, 8, 56, 102
1, 28151, Note_on_c, 9, 81, 31
1, 28151, Note_on_c, 15, 56, 80
1, 28152, Note_on_c, 9, 42, 78
1, 28152, Note_on_c, 9, 69, 95
1, 28155, Note_on_c, 9, 81, 0
1, 28156, Note_on_c, 9, 69, 0
1, 28156, Note_on_c, 9, 42, 0
1, 28158, Note_on_c, 11, 37, 0
1, 28158, Note_on_c, 10, 37, 0
1, 28158, Note_on_c, 1, 37, 0
1, 28164, Note_on_c, 2, 61, 0
1, 28169, Note_on_c, 8, 56, 0
1, 28172, Note_on_c, 15, 56, 0
1, 28175, Note_on_c, 2, 63, 96
1, 28175, Note_on_c, 9, 81, 31
1, 28175, Note_on_c, 14, 51, 83
1, 28175, Note_on_c, 15, 59, 81
1, 28175, Lyric_t, "ial "
1, 28176, Note_on_c, 5, 88, 81
1, 28176, Note_on_c, 6, 47, 73
1, 28176, Note_on_c, 9, 39, 22
1, 28176, Note_on_c, 9, 69, 101
1, 28179, Note_on_c, 9, 81, 0
1, 28180, Note_on_c, 9, 69, 0
1, 28180, Note_on_c, 9, 39, 0
1, 28194, Note_on_c, 5, 88, 0
1, 28197, Note_on_c, 14, 51, 0
1, 28197, Note_on_c, 2, 63, 0
1, 28199, Note_on_c, 15, 59, 0
1, 28199, Note_on_c, 2, 61, 71
1, 28199, Note_on_c, 8, 56, 103
1, 28199, Note_on_c, 15, 56, 74
1, 28200, Note_on_c, 6, 47, 0
1, 28200, Note_on_c, 9, 69, 99
1, 28204, Note_on_c, 9, 69, 0
1, 28208, Note_on_c, 5, 90, 77
1, 28212, Note_on_c, 2, 61, 0
1, 28218, Note_on_c, 8, 56, 0
1, 28223, Note_on_c, 1, 37, 90
1, 28223, Note_on_c, 5, 92, 76
1, 28223, Note_on_c, 9, 36, 104
1, 28223, Note_on_c, 9, 84, 23
1, 28223, Note_on_c, 10, 37, 60
1, 28223, Note_on_c, 11, 37, 61
1, 28223, Note_on_c, 15, 63, 73
1, 28224, Note_on_c, 15, 56, 0
1, 28224, Note_on_c, 2, 63, 95
1, 28224, Note_on_c, 6, 49, 73
1, 28224, Note_on_c, 9, 42, 79
1, 28224, Note_on_c, 9, 69, 99
1, 28224, Note_on_c, 9, 81, 22
1, 28224, Lyric_t, "pla"
1, 28225, Note_on_c, 5, 90, 0
1, 28227, Note_on_c, 9, 84, 0
1, 28227, Note_on_c, 9, 36, 0
1, 28228, Note_on_c, 9, 42, 0
1, 28228, Note_on_c, 9, 69, 0
1, 28228, Note_on_c, 9, 81, 0
1, 28238, Note_on_c, 5, 92, 0
1, 28242, Note_on_c, 15, 63, 0
1, 28247, Note_on_c, 8, 56, 99
1, 28247, Note_on_c, 15, 56, 79
1, 28248, Pitch_bend_c, 2, 7680
1, 28248, Note_on_c, 9, 42, 56
1, 28248, Note_on_c, 9, 81, 31
1, 28252, Note_on_c, 9, 81, 0
1, 28252, Note_on_c, 9, 42, 0
1, 28252, Pitch_bend_c, 2, 7658
1, 28254, Note_on_c, 6, 49, 0
1, 28256, Pitch_bend_c, 2, 7124
1, 28260, Note_on_c, 11, 37, 0
1, 28260, Note_on_c, 1, 37, 0
1, 28260, Note_on_c, 10, 37, 0
1, 28260, Pitch_bend_c, 2, 6590
1, 28261, Note_on_c, 15, 56, 0
1, 28264, Note_on_c, 2, 63, 0
1, 28264, Pitch_bend_c, 2, 6056
1, 28266, Note_on_c, 8, 56, 0
1, 28269, Pitch_bend_c, 2, 8192
1, 28271, Note_on_c, 14, 52, 79
1, 28271, Note_on_c, 15, 56, 72
1, 28271, Note_on_c, 15, 61, 73
1, 28272, Note_on_c, 2, 61, 99
1, 28272, Note_on_c, 5, 88, 70
1, 28272, Note_on_c, 9, 81, 27
1, 28272, Lyric_t, "ces "
1, 28276, Note_on_c, 9, 81, 0
1, 28282, Note_on_c, 15, 61, 0
1, 28284, Note_on_c, 2, 61, 0
1, 28285, Note_on_c, 15, 56, 0
1, 28287, Note_on_c, 5, 88, 0
1, 28292, Note_on_c, 14, 52, 0
1, 28295, Note_on_c, 15, 56, 73
1, 28295, Note_on_c, 15, 64, 73
1, 28296, Note_on_c, 2, 61, 96
1, 28296, Note_on_c, 8, 56, 104
1, 28296, Note_on_c, 9, 42, 82
1, 28296, Note_on_c, 9, 81, 23
1, 28296, Lyric_t, "in "
1, 28300, Note_on_c, 9, 81, 0
1, 28300, Note_on_c, 9, 42, 0
1, 28304, Note_on_c, 5, 90, 66
1, 28309, Note_on_c, 8, 56, 0
1, 28311, Note_on_c, 15, 64, 0
1, 28314, Note_on_c, 2, 61, 0
1, 28317, Note_on_c, 5, 90, 0
1, 28319, Note_on_c, 5, 92, 64
1, 28320, Note_on_c, 1, 37, 85
1, 28320, Note_on_c, 8, 56, 98
1, 28320, Note_on_c, 9, 36, 97
1, 28320, Note_on_c, 9, 37, 73
1, 28320, Note_on_c, 9, 40, 98
1, 28320, Note_on_c, 9, 39, 54
1, 28320, Note_on_c, 9, 84, 15
1, 28320, Note_on_c, 10, 37, 59
1, 28320, Note_on_c, 11, 37, 61
1, 28323, Note_on_c, 15, 49, 0
1, 28324, Note_on_c, 9, 84, 0
1, 28324, Note_on_c, 9, 40, 0
1, 28324, Note_on_c, 9, 39, 0
1, 28324, Note_on_c, 9, 37, 0
1, 28324, Note_on_c, 9, 36, 0
1, 28333, Note_on_c, 5, 92, 0
1, 28335, Note_on_c, 15, 56, 0
1, 28343, Note_on_c, 15, 66, 72
1, 28344, Note_on_c, 2, 59, 104
1, 28344, Lyric_t, "my "
1, 28346, Note_on_c, 8, 56, 0
1, 28353, Note_on_c, 1, 37, 0
1, 28353, Note_on_c, 10, 37, 0
1, 28353, Note_on_c, 11, 37, 0
1, 28363, Note_on_c, 2, 59, 0
1, 28367, Note_on_c, 5, 88, 59
1, 28367, Note_on_c, 8, 56, 100
1, 28367, Note_on_c, 9, 39, 30
1, 28367, Note_on_c, 14, 51, 82
1, 28367, Note_on_c, 15, 56, 80
1, 28368, Note_on_c, 9, 42, 76
1, 28368, Note_on_c, 9, 81, 30
1, 28369, Note_on_c, 15, 66, 0
1, 28371, Note_on_c, 9, 39, 0
1, 28372, Note_on_c, 9, 81, 0
1, 28372, Note_on_c, 9, 42, 0
1, 28382, Note_on_c, 5, 88, 0
1, 28386, Note_on_c, 14, 51, 0
1, 28390, Note_on_c, 8, 56, 0
1, 28391, Note_on_c, 2, 61, 98
1, 28391, Lyric_t, "heart, "
1, 28391, Lyric_t, "\015"
1, 28392, Note_on_c, 15, 56, 0
1, 28398, Control_c, 2, 1, 17
1, 28400, Note_on_c, 5, 90, 55
1, 28401, Control_c, 2, 1, 35
1, 28406, Control_c, 2, 1, 39
1, 28410, Control_c, 2, 1, 43
1, 28411, Note_on_c, 5, 90, 0
1, 28414, Control_c, 2, 1, 45
1, 28415, Note_on_c, 5, 92, 53
1, 28416, Note_on_c, 1, 37, 86
1, 28416, Note_on_c, 7, 37, 89
1, 28416, Note_on_c, 9, 36, 99
1, 28416, Note_on_c, 9, 81, 27
1, 28416, Note_on_c, 10, 37, 58
1, 28416, Note_on_c, 11, 37, 65
1, 28416, Note_on_c, 12, 63, 70
1, 28416, Note_on_c, 12, 66, 69
1, 28416, Note_on_c, 13, 73, 83
1, 28416, Note_on_c, 13, 61, 84
1, 28416, Note_on_c, 15, 59, 74
1, 28420, Note_on_c, 9, 81, 0
1, 28420, Note_on_c, 9, 36, 0
1, 28429, Note_on_c, 5, 92, 0
1, 28434, Note_on_c, 2, 61, 0
1, 28436, Control_c, 2, 1, 44
1, 28438, Note_on_c, 13, 71, 83
1, 28438, Note_on_c, 13, 59, 85
1, 28439, Note_on_c, 15, 64, 78
1, 28440, Control_c, 2, 1, 43
1, 28440, Note_on_c, 8, 64, 104
1, 28442, Control_c, 2, 1, 41
1, 28443, Note_on_c, 13, 73, 0
1, 28443, Note_on_c, 13, 61, 0
1, 28446, Control_c, 2, 1, 36
1, 28449, Note_on_c, 15, 59, 0
1, 28450, Control_c, 2, 1, 24
1, 28455, Control_c, 2, 1, 0
1, 28457, Note_on_c, 8, 64, 0
1, 28461, Note_on_c, 13, 73, 84
1, 28461, Note_on_c, 13, 61, 81
1, 28462, Note_on_c, 13, 59, 0
1, 28462, Note_on_c, 13, 71, 0
1, 28463, Note_on_c, 9, 81, 22
1, 28463, Note_on_c, 14, 49, 79
1, 28464, Note_on_c, 15, 64, 0
1, 28464, Note_on_c, 15, 59, 81
1, 28467, Note_on_c, 9, 81, 0
1, 28469, Note_on_c, 1, 37, 0
1, 28469, Note_on_c, 11, 37, 0
1, 28469, Note_on_c, 10, 37, 0
1, 28478, Note_on_c, 13, 61, 0
1, 28478, Note_on_c, 13, 73, 0
1, 28481, Note_on_c, 14, 49, 0
1, 28482, Note_on_c, 7, 37, 0
1, 28487, Note_on_c, 2, 59, 63
1, 28487, Note_on_c, 15, 61, 76
1, 28487, Lyric_t, "It "
1, 28488, Note_on_c, 7, 37, 73
1, 28488, Note_on_c, 8, 63, 104
1, 28488, Note_on_c, 9, 42, 84
1, 28488, Note_on_c, 13, 75, 77
1, 28488, Note_on_c, 13, 63, 82
1, 28492, Note_on_c, 9, 42, 0
1, 28498, Note_on_c, 15, 59, 0
1, 28503, Note_on_c, 13, 75, 0
1, 28503, Note_on_c, 13, 63, 0
1, 28505, Note_on_c, 8, 63, 0
1, 28506, Note_on_c, 2, 59, 0
1, 28506, Note_on_c, 15, 61, 0
1, 28508, Note_on_c, 12, 63, 0
1, 28511, Note_on_c, 2, 61, 103
1, 28511, Note_on_c, 6, 49, 74
1, 28511, Note_on_c, 9, 42, 80
1, 28511, Note_on_c, 9, 69, 97
1, 28511, Note_on_c, 9, 81, 26
1, 28511, Note_on_c, 12, 64, 71
1, 28511, Note_on_c, 12, 61, 73
1, 28511, Note_on_c, 13, 76, 77
1, 28511, Note_on_c, 13, 64, 85
1, 28511, Lyric_t, "was "
1, 28512, Note_on_c, 1, 37, 93
1, 28512, Note_on_c, 9, 36, 96
1, 28512, Note_on_c, 10, 37, 53
1, 28512, Note_on_c, 11, 37, 67
1, 28512, Note_on_c, 15, 64, 73
1, 28513, Note_on_c, 9, 39, 53
1, 28515, Note_on_c, 9, 81, 0
1, 28515, Note_on_c, 9, 69, 0
1, 28515, Note_on_c, 9, 42, 0
1, 28516, Note_on_c, 12, 66, 0
1, 28516, Note_on_c, 9, 36, 0
1, 28517, Note_on_c, 9, 39, 0
1, 28518, Note_on_c, 7, 37, 0
1, 28534, Note_on_c, 13, 75, 77
1, 28534, Note_on_c, 13, 63, 84
1, 28535, Note_on_c, 9, 81, 23
1, 28535, Note_on_c, 15, 68, 73
1, 28536, Note_on_c, 6, 49, 0
1, 28536, Note_on_c, 8, 63, 95
1, 28539, Note_on_c, 9, 81, 0
1, 28541, Note_on_c, 13, 64, 0
1, 28541, Note_on_c, 13, 76, 0
1, 28544, Note_on_c, 2, 61, 0
1, 28546, Note_on_c, 15, 64, 0
1, 28550, Note_on_c, 1, 37, 0
1, 28550, Note_on_c, 11, 37, 0
1, 28550, Note_on_c, 10, 37, 0
1, 28553, Note_on_c, 8, 63, 0
1, 28558, Note_on_c, 13, 76, 85
1, 28558, Note_on_c, 13, 64, 85
1, 28559, Note_on_c, 2, 63, 97
1, 28559, Note_on_c, 9, 69, 94
1, 28559, Note_on_c, 9, 81, 26
1, 28559, Note_on_c, 9, 42, 75
1, 28559, Note_on_c, 14, 51, 77
1, 28559, Note_on_c, 15, 63, 72
1, 28559, Lyric_t, "my "
1, 28560, Note_on_c, 6, 47, 72
1, 28560, Note_on_c, 9, 39, 25
1, 28560, Note_on_c, 12, 59, 68
1, 28561, Note_on_c, 13, 63, 0
1, 28561, Note_on_c, 13, 75, 0
1, 28563, Note_on_c, 9, 42, 0
1, 28563, Note_on_c, 9, 81, 0
1, 28563, Note_on_c, 9, 69, 0
1, 28564, Note_on_c, 9, 39, 0
1, 28568, Note_on_c, 12, 61, 0
1, 28576, Note_on_c, 13, 76, 0
1, 28576, Note_on_c, 13, 64, 0
1, 28580, Pitch_bend_c, 2, 4110
1, 28581, Note_on_c, 14, 51, 0
1, 28582, Note_on_c, 6, 47, 0
1, 28582, Control_c, 2, 11, 80
1, 28583, Note_on_c, 13, 78, 76
1, 28583, Note_on_c, 13, 66, 78
1, 28583, Note_on_c, 15, 64, 76
1, 28584, Note_on_c, 8, 64, 103
1, 28593, Note_on_c, 2, 63, 0
1, 28596, Note_on_c, 13, 66, 0
1, 28596, Note_on_c, 13, 78, 0
1, 28599, Note_on_c, 8, 64, 0
1, 28599, Note_on_c, 15, 63, 0
1, 28602, Control_c, 2, 11, 127
1, 28604, Note_on_c, 12, 64, 0
1, 28604, Note_on_c, 15, 68, 0
1, 28604, Pitch_bend_c, 2, 8192
1, 28605, Note_on_c, 15, 64, 0
1, 28607, Note_on_c, 1, 37, 92
1, 28607, Note_on_c, 2, 63, 103
1, 28607, Note_on_c, 9, 42, 77
1, 28607, Note_on_c, 9, 36, 101
1, 28607, Note_on_c, 10, 37, 59
1, 28607, Note_on_c, 11, 37, 59
1, 28607, Note_on_c, 13, 80, 79
1, 28607, Note_on_c, 13, 68, 80
1, 28607, Note_on_c, 15, 71, 81
1, 28607, Lyric_t, "lov"
1, 28608, Note_on_c, 6, 49, 76
1, 28608, Note_on_c, 9, 81, 23
1, 28608, Note_on_c, 12, 68, 72
1, 28608, Note_on_c, 12, 61, 69
1, 28611, Note_on_c, 9, 36, 0
1, 28611, Note_on_c, 9, 42, 0
1, 28612, Note_on_c, 9, 81, 0
1, 28617, Note_on_c, 12, 59, 0
1, 28631, Note_on_c, 8, 64, 98
1, 28631, Note_on_c, 9, 38, 55
1, 28631, Note_on_c, 13, 78, 78
1, 28631, Note_on_c, 13, 66, 84
1, 28631, Note_on_c, 15, 64, 81
1, 28632, Note_on_c, 9, 42, 54
1, 28632, Note_on_c, 9, 81, 26
1, 28633, Note_on_c, 13, 68, 0
1, 28633, Note_on_c, 13, 80, 0
1, 28635, Note_on_c, 9, 38, 0
1, 28636, Note_on_c, 9, 81, 0
1, 28636, Note_on_c, 9, 42, 0
1, 28637, Note_on_c, 6, 49, 0
1, 28644, Note_on_c, 1, 37, 0
1, 28644, Note_on_c, 11, 37, 0
1, 28644, Note_on_c, 2, 63, 0
1, 28644, Note_on_c, 10, 37, 0
1, 28651, Note_on_c, 8, 64, 0
1, 28653, Note_on_c, 13, 78, 0
1, 28653, Note_on_c, 13, 66, 0
1, 28655, Note_on_c, 9, 69, 96
1, 28655, Note_on_c, 13, 76, 79
1, 28655, Note_on_c, 13, 64, 78
1, 28655, Note_on_c, 14, 52, 85
1, 28655, Note_on_c, 15, 68, 80
1, 28656, Note_on_c, 2, 61, 104
1, 28656, Note_on_c, 7, 37, 75
1, 28656, Note_on_c, 9, 38, 58
1, 28656, Note_on_c, 9, 81, 22
1, 28656, Lyric_t, "in' "
1, 28658, Note_on_c, 15, 64, 0
1, 28658, Note_on_c, 15, 71, 0
1, 28659, Note_on_c, 9, 69, 0
1, 28660, Note_on_c, 9, 38, 0
1, 28660, Note_on_c, 9, 81, 0
1, 28664, Note_on_c, 2, 61, 0
1, 28673, Note_on_c, 13, 76, 0
1, 28673, Note_on_c, 13, 64, 0
1, 28673, Note_on_c, 7, 37, 0
1, 28678, Note_on_c, 14, 52, 0
1, 28679, Note_on_c, 13, 78, 78
1, 28679, Note_on_c, 13, 66, 81
1, 28679, Note_on_c, 15, 75, 72
1, 28680, Note_on_c, 2, 61, 95
1, 28680, Note_on_c, 9, 38, 49
1, 28680, Note_on_c, 9, 81, 23
1, 28680, Note_on_c, 15, 71, 73
1, 28680, Lyric_t, "from "
1, 28681, Note_on_c, 15, 68, 0
1, 28684, Note_on_c, 9, 81, 0
1, 28684, Note_on_c, 9, 38, 0
1, 28694, Note_on_c, 13, 66, 0
1, 28694, Note_on_c, 13, 78, 0
1, 28695, Note_on_c, 2, 61, 0
1, 28700, Note_on_c, 15, 71, 0
1, 28703, Note_on_c, 13, 80, 81
1, 28703, Note_on_c, 13, 68, 83
1, 28703, Note_on_c, 15, 71, 79
1, 28704, Tempo, 645161
1, 28704, Note_on_c, 1, 40, 90
1, 28704, Note_on_c, 9, 36, 102
1, 28704, Note_on_c, 9, 38, 52
1, 28704, Note_on_c, 9, 37, 78
1, 28704, Note_on_c, 9, 40, 100
1, 28704, Note_on_c, 9, 39, 49
1, 28704, Note_on_c, 10, 40, 57
1, 28704, Note_on_c, 11, 40, 63
1, 28708, Note_on_c, 9, 39, 0
1, 28708, Note_on_c, 9, 37, 0
1, 28708, Note_on_c, 9, 38, 0
1, 28708, Note_on_c, 9, 36, 0
1, 28708, Note_on_c, 9, 40, 0
1, 28728, Note_on_c, 2, 59, 97
1, 28728, Note_on_c, 7, 37, 73
1, 28728, Note_on_c, 15, 80, 73
1, 28728, Lyric_t, "the "
1, 28744, Note_on_c, 2, 59, 0
1, 28745, Note_on_c, 7, 37, 0
1, 28745, Note_on_c, 15, 71, 0
1, 28746, Note_on_c, 13, 80, 0
1, 28746, Note_on_c, 13, 68, 0
1, 28748, Note_on_c, 15, 75, 0
1, 28750, Note_on_c, 12, 61, 0
1, 28750, Note_on_c, 12, 68, 0
1, 28751, Note_on_c, 11, 40, 0
1, 28751, Note_on_c, 10, 40, 0
1, 28751, Note_on_c, 1, 40, 0
1, 28751, Note_on_c, 9, 39, 23
1, 28751, Note_on_c, 13, 83, 82
1, 28751, Note_on_c, 13, 71, 82
1, 28751, Note_on_c, 14, 51, 84
1, 28752, Note_on_c, 1, 44, 91
1, 28752, Note_on_c, 9, 36, 102
1, 28752, Note_on_c, 9, 81, 31
1, 28752, Note_on_c, 10, 44, 57
1, 28752, Note_on_c, 11, 44, 64
1, 28752, Note_on_c, 15, 61, 76
1, 28752, Note_on_c, 15, 71, 75
1, 28753, Note_on_c, 9, 42, 79
1, 28754, Note_on_c, 12, 68, 71
1, 28754, Note_on_c, 12, 61, 73
1, 28755, Note_on_c, 9, 39, 0
1, 28756, Note_on_c, 9, 81, 0
1, 28756, Note_on_c, 9, 36, 0
1, 28757, Note_on_c, 9, 42, 0
1, 28759, Note_on_c, 15, 80, 0
1, 28771, Note_on_c, 14, 51, 0
1, 28775, Note_on_c, 2, 57, 103
1, 28775, Lyric_t, "start. "
1, 28775, Lyric_t, "\015"
1, 28775, Lyric_t, "\012"
1, 28776, Note_on_c, 15, 83, 79
1, 28776, Note_on_c, 15, 56, 74
1, 28778, Note_on_c, 15, 61, 0
1, 28788, Note_on_c, 15, 71, 0
1, 28791, Note_on_c, 13, 71, 0
1, 28791, Note_on_c, 13, 83, 0
1, 28794, Note_on_c, 10, 44, 0
1, 28794, Note_on_c, 11, 44, 0
1, 28794, Note_on_c, 1, 44, 0
1, 28797, Note_on_c, 15, 56, 0
1, 28798, Note_on_c, 12, 61, 0
1, 28799, Note_on_c, 12, 61, 70
1, 28800, Note_on_c, 1, 42, 89
1, 28800, Note_on_c, 8, 54, 97
1, 28800, Note_on_c, 9, 36, 97
1, 28800, Note_on_c, 9, 49, 34
1, 28800, Note_on_c, 9, 81, 26
1, 28800, Note_on_c, 9, 42, 79
1, 28800, Note_on_c, 9, 84, 20
1, 28800, Note_on_c, 10, 42, 60
1, 28800, Note_on_c, 11, 42, 61
1, 28800, Note_on_c, 12, 66, 70
1, 28800, Note_on_c, 13, 81, 76
1, 28800, Note_on_c, 13, 69, 83
1, 28800, Note_on_c, 15, 54, 77
1, 28802, Note_on_c, 12, 68, 0
1, 28803, Note_on_c, 15, 83, 0
1, 28804, Note_on_c, 9, 81, 0
1, 28804, Note_on_c, 9, 49, 0
1, 28804, Note_on_c, 9, 84, 0
1, 28804, Note_on_c, 9, 42, 0
1, 28804, Note_on_c, 9, 36, 0
1, 28824, Note_on_c, 15, 57, 80
1, 28837, Control_c, 2, 1, 2
1, 28838, Note_on_c, 10, 42, 0
1, 28838, Note_on_c, 1, 42, 0
1, 28838, Note_on_c, 11, 42, 0
1, 28838, Control_c, 2, 1, 19
1, 28842, Control_c, 2, 1, 35
1, 28845, Note_on_c, 15, 57, 0
1, 28847, Control_c, 2, 1, 40
1, 28847, Note_on_c, 9, 81, 30
1, 28847, Note_on_c, 14, 54, 84
1, 28848, Control_c, 2, 11, 126
1, 28848, Note_on_c, 9, 42, 79
1, 28848, Note_on_c, 15, 61, 79
1, 28851, Note_on_c, 9, 81, 0
1, 28852, Note_on_c, 9, 42, 0
1, 28852, Control_c, 2, 11, 122
1, 28852, Control_c, 2, 1, 43
1, 28856, Control_c, 2, 11, 119
1, 28856, Control_c, 2, 1, 44
1, 28859, Note_on_c, 14, 54, 0
1, 28860, Control_c, 2, 11, 113
1, 28860, Control_c, 2, 1, 47
1, 28867, Control_c, 2, 1, 48
1, 28868, Control_c, 2, 11, 110
1, 28872, Control_c, 2, 11, 106
1, 28872, Note_on_c, 15, 64, 80
1, 28876, Note_on_c, 15, 61, 0
1, 28876, Control_c, 2, 11, 103
1, 28880, Control_c, 2, 11, 100
1, 28884, Control_c, 2, 11, 97
1, 28888, Control_c, 2, 11, 93
1, 28892, Control_c, 2, 11, 90
1, 28895, Note_on_c, 6, 49, 74
1, 28895, Note_on_c, 9, 81, 31
1, 28896, Note_on_c, 15, 64, 0
1, 28896, Note_on_c, 1, 42, 85
1, 28896, Control_c, 2, 11, 84
1, 28896, Note_on_c, 9, 36, 97
1, 28896, Note_on_c, 9, 37, 74
1, 28896, Note_on_c, 9, 40, 95
1, 28896, Note_on_c, 9, 69, 101
1, 28896, Note_on_c, 9, 84, 15
1, 28896, Note_on_c, 10, 42, 57
1, 28896, Note_on_c, 11, 42, 59
1, 28896, Note_on_c, 15, 68, 75
1, 28897, Note_on_c, 9, 39, 53
1, 28899, Note_on_c, 9, 81, 0
1, 28900, Note_on_c, 9, 36, 0
1, 28900, Note_on_c, 9, 84, 0
1, 28900, Note_on_c, 9, 37, 0
1, 28900, Note_on_c, 9, 69, 0
1, 28900, Note_on_c, 9, 40, 0
1, 28901, Note_on_c, 9, 39, 0
1, 28902, Control_c, 2, 1, 47
1, 28904, Control_c, 2, 11, 81
1, 28907, Control_c, 2, 1, 46
1, 28908, Control_c, 2, 11, 77
1, 28912, Control_c, 2, 11, 74
1, 28914, Control_c, 2, 1, 45
1, 28916, Control_c, 2, 11, 71
1, 28919, Note_on_c, 6, 49, 0
1, 28919, Note_on_c, 9, 81, 26
1, 28920, Control_c, 2, 11, 68
1, 28920, Note_on_c, 9, 42, 83
1, 28920, Note_on_c, 9, 69, 96
1, 28920, Note_on_c, 15, 64, 73
1, 28923, Note_on_c, 9, 81, 0
1, 28923, Note_on_c, 15, 68, 0
1, 28924, Note_on_c, 9, 42, 0
1, 28924, Note_on_c, 9, 69, 0
1, 28924, Control_c, 2, 11, 65
1, 28928, Note_on_c, 10, 42, 0
1, 28928, Note_on_c, 11, 42, 0
1, 28928, Note_on_c, 1, 42, 0
1, 28928, Control_c, 2, 11, 61
1, 28931, Note_on_c, 8, 54, 0
1, 28932, Control_c, 2, 11, 55
1, 28932, Control_c, 12, 11, 127
1, 28936, Control_c, 12, 11, 125
1, 28940, Control_c, 2, 11, 52
1, 28940, Control_c, 12, 11, 123
1, 28943, Note_on_c, 9, 81, 28
1, 28943, Note_on_c, 14, 56, 78
1, 28944, Control_c, 2, 11, 49
1, 28944, Control_c, 2, 1, 44
1, 28944, Note_on_c, 5, 90, 85
1, 28944, Note_on_c, 6, 47, 81
1, 28944, Note_on_c, 8, 57, 103
1, 28944, Note_on_c, 9, 39, 28
1, 28944, Note_on_c, 9, 69, 92
1, 28944, Control_c, 12, 11, 121
1, 28945, Note_on_c, 15, 57, 77
1, 28946, Note_on_c, 15, 64, 0
1, 28947, Note_on_c, 9, 81, 0
1, 28947, Control_c, 2, 1, 42
1, 28948, Note_on_c, 9, 69, 0
1, 28948, Note_on_c, 9, 39, 0
1, 28948, Control_c, 2, 11, 45
1, 28948, Control_c, 12, 11, 119
1, 28950, Control_c, 2, 1, 39
1, 28951, Note_on_c, 2, 57, 0
1, 28952, Control_c, 2, 11, 42
1, 28952, Control_c, 12, 11, 116
1, 28955, Control_c, 2, 1, 35
1, 28956, Control_c, 2, 11, 39
1, 28956, Control_c, 12, 11, 114
1, 28957, Note_on_c, 14, 56, 0
1, 28959, Control_c, 2, 1, 30
1, 28960, Control_c, 2, 11, 36
1, 28960, Control_c, 12, 11, 112
1, 28961, Note_on_c, 5, 90, 0
1, 28963, Note_on_c, 15, 57, 0
1, 28963, Control_c, 2, 1, 24
1, 28964, Control_c, 2, 11, 32
1, 28964, Control_c, 12, 11, 110
1, 28967, Note_on_c, 15, 61, 76
1, 28968, Note_on_c, 6, 47, 0
1, 28968, Control_c, 2, 11, 26
1, 28968, Note_on_c, 9, 69, 98
1, 28968, Control_c, 12, 11, 108
1, 28969, Control_c, 2, 1, 20
1, 28972, Note_on_c, 9, 69, 0
1, 28972, Control_c, 2, 1, 16
1, 28972, Control_c, 12, 11, 105
1, 28974, Note_on_c, 8, 57, 0
1, 28975, Note_on_c, 5, 92, 81
1, 28976, Control_c, 12, 11, 103
1, 28977, Control_c, 2, 1, 12
1, 28978, Note_on_c, 15, 54, 0
1, 28980, Control_c, 12, 11, 101
1, 28981, Control_c, 2, 1, 9
1, 28983, Note_on_c, 15, 61, 0
1, 28984, Control_c, 12, 11, 99
1, 28986, Control_c, 2, 1, 4
1, 28988, Control_c, 12, 11, 97
1, 28991, Control_c, 2, 1, 0
1, 28991, Note_on_c, 9, 84, 15
1, 28992, Note_on_c, 0, 64, 51
1, 28992, Note_on_c, 1, 42, 86
1, 28992, Note_on_c, 5, 93, 79
1, 28992, Note_on_c, 6, 49, 76
1, 28992, Note_on_c, 8, 54, 99
1, 28992, Note_on_c, 9, 36, 100
1, 28992, Note_on_c, 9, 42, 82
1, 28992, Note_on_c, 9, 69, 97
1, 28992, Note_on_c, 9, 81, 24
1, 28992, Note_on_c, 10, 42, 60
1, 28992, Note_on_c, 11, 42, 62
1, 28992, Control_c, 12, 11, 94
1, 28992, Note_on_c, 15, 54, 80
1, 28992, Lyric_t, "You "
1, 28995, Note_on_c, 9, 84, 0
1, 28996, Note_on_c, 9, 81, 0
1, 28996, Note_on_c, 9, 36, 0
1, 28996, Note_on_c, 5, 92, 0
1, 28996, Note_on_c, 9, 69, 0
1, 28996, Note_on_c, 9, 42, 0
1, 28996, Control_c, 12, 11, 92
1, 29000, Control_c, 12, 11, 90
1, 29004, Control_c, 12, 11, 88
1, 29008, Control_c, 12, 11, 86
1, 29011, Note_on_c, 5, 93, 0
1, 29012, Control_c, 12, 11, 83
1, 29016, Note_on_c, 9, 42, 58
1, 29016, Note_on_c, 9, 81, 28
1, 29016, Control_c, 12, 11, 81
1, 29016, Note_on_c, 15, 69, 72
1, 29020, Note_on_c, 9, 81, 0
1, 29020, Note_on_c, 9, 42, 0
1, 29020, Note_on_c, 8, 54, 0
1, 29020, Control_c, 2, 11, 127
1, 29020, Control_c, 12, 11, 79
1, 29022, Note_on_c, 11, 42, 0
1, 29022, Note_on_c, 10, 42, 0
1, 29022, Note_on_c, 6, 49, 0
1, 29022, Note_on_c, 1, 42, 0
1, 29024, Control_c, 12, 11, 77
1, 29028, Control_c, 12, 11, 75
1, 29032, Control_c, 12, 11, 72
1, 29036, Control_c, 12, 11, 70
1, 29038, Note_on_c, 0, 64, 0
1, 29039, Note_on_c, 14, 57, 76
1, 29040, Note_on_c, 0, 63, 51
1, 29040, Pitch_bend_c, 3, 6412
1, 29040, Note_on_c, 3, 68, 104
1, 29040, Note_on_c, 5, 90, 73
1, 29040, Note_on_c, 8, 57, 102
1, 29040, Note_on_c, 9, 81, 24
1, 29040, Control_c, 12, 11, 68
1, 29040, Note_on_c, 15, 57, 80
1, 29040, Lyric_t, "need "
1, 29041, Note_on_c, 15, 69, 0
1, 29044, Note_on_c, 9, 81, 0
1, 29044, Pitch_bend_c, 3, 6810
1, 29044, Control_c, 12, 11, 66
1, 29048, Pitch_bend_c, 3, 7209
1, 29048, Control_c, 12, 11, 64
1, 29052, Pitch_bend_c, 3, 7608
1, 29052, Control_c, 12, 11, 61
1, 29054, Note_on_c, 14, 57, 0
1, 29056, Pitch_bend_c, 3, 8192
1, 29056, Control_c, 12, 11, 59
1, 29058, Note_on_c, 15, 57, 0
1, 29059, Note_on_c, 5, 90, 0
1, 29060, Control_c, 12, 11, 57
1, 29064, Note_on_c, 12, 66, 0
1, 29064, Note_on_c, 9, 42, 76
1, 29064, Note_on_c, 9, 81, 31
1, 29064, Control_c, 12, 11, 55
1, 29064, Note_on_c, 15, 64, 79
1, 29068, Note_on_c, 9, 81, 0
1, 29068, Note_on_c, 9, 42, 0
1, 29068, Control_c, 12, 11, 53
1, 29071, Note_on_c, 5, 92, 70
1, 29072, Control_c, 12, 11, 50
1, 29076, Control_c, 12, 11, 48
1, 29077, Note_on_c, 3, 68, 0
1, 29078, Note_on_c, 12, 61, 0
1, 29080, Control_c, 12, 11, 46
1, 29084, Control_c, 12, 11, 44
1, 29087, Note_on_c, 9, 84, 16
1, 29088, Note_on_c, 0, 61, 47
1, 29088, Note_on_c, 1, 42, 94
1, 29088, Note_on_c, 3, 66, 103
1, 29088, Note_on_c, 5, 93, 67
1, 29088, Note_on_c, 9, 36, 102
1, 29088, Note_on_c, 9, 37, 72
1, 29088, Note_on_c, 9, 40, 102
1, 29088, Note_on_c, 9, 39, 49
1, 29088, Note_on_c, 10, 42, 60
1, 29088, Note_on_c, 11, 42, 67
1, 29088, Control_c, 12, 11, 42
1, 29088, Note_on_c, 15, 61, 77
1, 29088, Note_on_c, 15, 57, 80
1, 29088, Lyric_t, "to "
1, 29089, Note_on_c, 0, 63, 0
1, 29089, Note_on_c, 15, 64, 0
1, 29091, Note_on_c, 9, 84, 0
1, 29092, Note_on_c, 9, 39, 0
1, 29092, Note_on_c, 5, 92, 0
1, 29092, Note_on_c, 9, 40, 0
1, 29092, Note_on_c, 9, 37, 0
1, 29092, Note_on_c, 9, 36, 0
1, 29092, Control_c, 12, 11, 39
1, 29096, Control_c, 12, 11, 37
1, 29107, Note_on_c, 15, 57, 0
1, 29107, Note_on_c, 5, 93, 0
1, 29112, Note_on_c, 3, 64, 96
1, 29112, Note_on_c, 15, 57, 73
1, 29112, Lyric_t, "give "
1, 29113, Note_on_c, 15, 61, 0
1, 29117, Note_on_c, 3, 66, 0
1, 29122, Note_on_c, 11, 42, 0
1, 29122, Note_on_c, 1, 42, 0
1, 29122, Note_on_c, 10, 42, 0
1, 29134, Note_on_c, 15, 57, 0
1, 29135, Note_on_c, 9, 39, 27
1, 29135, Note_on_c, 14, 56, 85
1, 29136, Note_on_c, 3, 64, 0
1, 29136, Note_on_c, 0, 59, 54
1, 29136, Note_on_c, 0, 66, 55
1, 29136, Note_on_c, 3, 61, 102
1, 29136, Note_on_c, 5, 90, 62
1, 29136, Note_on_c, 9, 42, 83
1, 29136, Note_on_c, 9, 81, 24
1, 29136, Note_on_c, 15, 61, 74
1, 29136, Note_on_c, 15, 57, 75
1, 29139, Note_on_c, 9, 39, 0
1, 29140, Note_on_c, 9, 81, 0
1, 29140, Note_on_c, 9, 42, 0
1, 29140, Control_c, 12, 11, 127
1, 29141, Note_on_c, 8, 57, 0
1, 29143, Note_on_c, 0, 61, 0
1, 29151, Note_on_c, 14, 56, 0
1, 29152, Note_on_c, 15, 54, 0
1, 29153, Note_on_c, 15, 57, 0
1, 29155, Note_on_c, 5, 90, 0
1, 29160, Note_on_c, 3, 59, 102
1, 29160, Note_on_c, 8, 54, 100
1, 29160, Note_on_c, 15, 54, 79
1, 29160, Lyric_t, "it "
1, 29161, Note_on_c, 3, 61, 0
1, 29161, Note_on_c, 15, 61, 0
1, 29167, Note_on_c, 5, 92, 58
1, 29173, Note_on_c, 3, 59, 0
1, 29181, Note_on_c, 8, 54, 0
1, 29182, Note_on_c, 0, 66, 0
1, 29184, Note_on_c, 15, 54, 0
1, 29184, Note_on_c, 0, 61, 54
1, 29184, Note_on_c, 0, 66, 50
1, 29184, Note_on_c, 1, 42, 93
1, 29184, Note_on_c, 3, 61, 96
1, 29184, Note_on_c, 5, 93, 56
1, 29184, Note_on_c, 7, 42, 89
1, 29184, Note_on_c, 8, 54, 98
1, 29184, Note_on_c, 9, 36, 100
1, 29184, Note_on_c, 9, 81, 28
1, 29184, Note_on_c, 10, 42, 53
1, 29184, Note_on_c, 11, 42, 65
1, 29184, Note_on_c, 15, 66, 72
1, 29184, Lyric_t, "up, "
1, 29184, Lyric_t, "\015"
1, 29185, Note_on_c, 0, 59, 0
1, 29188, Note_on_c, 9, 81, 0
1, 29188, Note_on_c, 9, 36, 0
1, 29192, Note_on_c, 5, 92, 0
1, 29207, Note_on_c, 15, 57, 78
1, 29210, Pitch_bend_c, 3, 5120
1, 29213, Note_on_c, 5, 93, 0
1, 29213, Control_c, 3, 1, 4
1, 29213, Pitch_bend_c, 3, 1408
1, 29215, Control_c, 3, 1, 14
1, 29217, Pitch_bend_c, 3, 0
1, 29220, Control_c, 3, 1, 21
1, 29222, Note_on_c, 10, 42, 0
1, 29222, Note_on_c, 1, 42, 0
1, 29222, Note_on_c, 11, 42, 0
1, 29225, Control_c, 3, 1, 25
1, 29226, Note_on_c, 15, 57, 0
1, 29230, Control_c, 3, 1, 28
1, 29231, Note_on_c, 9, 81, 23
1, 29231, Note_on_c, 14, 54, 78
1, 29231, Note_on_c, 15, 61, 77
1, 29234, Control_c, 3, 1, 31
1, 29235, Note_on_c, 9, 81, 0
1, 29238, Control_c, 3, 1, 35
1, 29244, Note_on_c, 14, 54, 0
1, 29244, Control_c, 3, 1, 36
1, 29247, Control_c, 3, 1, 37
1, 29252, Note_on_c, 7, 42, 0
1, 29255, Note_on_c, 15, 57, 80
1, 29256, Note_on_c, 7, 42, 75
1, 29256, Note_on_c, 9, 42, 82
1, 29257, Control_c, 3, 1, 35
1, 29260, Note_on_c, 9, 42, 0
1, 29261, Control_c, 3, 1, 29
1, 29265, Control_c, 3, 1, 19
1, 29270, Control_c, 3, 1, 10
1, 29271, Note_on_c, 13, 69, 0
1, 29271, Note_on_c, 13, 81, 0
1, 29274, Control_c, 3, 1, 3
1, 29275, Note_on_c, 15, 57, 0
1, 29276, Note_on_c, 15, 61, 0
1, 29278, Control_c, 3, 1, 0
1, 29279, Note_on_c, 7, 42, 0
1, 29279, Note_on_c, 6, 49, 79
1, 29279, Note_on_c, 9, 42, 78
1, 29279, Note_on_c, 9, 69, 100
1, 29279, Note_on_c, 9, 81, 23
1, 29279, Note_on_c, 13, 83, 85
1, 29279, Note_on_c, 13, 71, 82
1, 29279, Note_on_c, 15, 57, 76
1, 29279, Note_on_c, 15, 64, 79
1, 29280, Note_on_c, 1, 42, 86
1, 29280, Note_on_c, 9, 36, 98
1, 29280, Note_on_c, 9, 37, 77
1, 29280, Note_on_c, 9, 40, 103
1, 29280, Note_on_c, 10, 42, 61
1, 29280, Note_on_c, 11, 42, 60
1, 29281, Note_on_c, 9, 39, 53
1, 29283, Note_on_c, 9, 81, 0
1, 29283, Note_on_c, 9, 69, 0
1, 29283, Note_on_c, 9, 42, 0
1, 29284, Note_on_c, 9, 40, 0
1, 29284, Note_on_c, 9, 37, 0
1, 29284, Note_on_c, 9, 36, 0
1, 29285, Note_on_c, 9, 39, 0
1, 29293, Note_on_c, 15, 57, 0
1, 29298, Note_on_c, 15, 64, 0
1, 29298, Note_on_c, 15, 66, 0
1, 29303, Note_on_c, 9, 81, 26
1, 29304, Note_on_c, 6, 49, 0
1, 29304, Note_on_c, 15, 68, 75
1, 29307, Note_on_c, 9, 81, 0
1, 29312, Note_on_c, 11, 42, 0
1, 29312, Note_on_c, 10, 42, 0
1, 29312, Note_on_c, 1, 42, 0
1, 29317, Note_on_c, 8, 54, 0
1, 29324, Note_on_c, 3, 61, 0
1, 29325, Note_on_c, 15, 68, 0
1, 29326, Note_on_c, 0, 61, 0
1, 29327, Note_on_c, 8, 57, 102
1, 29327, Note_on_c, 9, 69, 94
1, 29327, Note_on_c, 9, 81, 27
1, 29327, Note_on_c, 9, 42, 77
1, 29327, Note_on_c, 13, 85, 84
1, 29327, Note_on_c, 13, 73, 82
1, 29327, Note_on_c, 14, 56, 76
1, 29328, Note_on_c, 6, 47, 80
1, 29328, Note_on_c, 7, 42, 68
1, 29328, Note_on_c, 9, 39, 28
1, 29328, Note_on_c, 15, 57, 77
1, 29330, Note_on_c, 13, 83, 0
1, 29330, Note_on_c, 0, 66, 0
1, 29330, Note_on_c, 13, 71, 0
1, 29331, Note_on_c, 9, 69, 0
1, 29331, Note_on_c, 9, 81, 0
1, 29331, Note_on_c, 9, 42, 0
1, 29332, Note_on_c, 9, 39, 0
1, 29343, Note_on_c, 14, 56, 0
1, 29343, Pitch_bend_c, 3, 8192
1, 29344, Note_on_c, 15, 57, 0
1, 29347, Note_on_c, 8, 57, 0
1, 29349, Note_on_c, 7, 42, 0
1, 29350, Note_on_c, 6, 47, 0
1, 29351, Note_on_c, 15, 69, 76
1, 29360, Note_on_c, 9, 40, 77
1, 29364, Note_on_c, 9, 40, 0
1, 29370, Note_on_c, 15, 69, 0
1, 29373, Pitch_bend_c, 3, 8972
1, 29374, Note_on_c, 13, 85, 0
1, 29374, Note_on_c, 13, 73, 0
1, 29375, Note_on_c, 3, 66, 98
1, 29375, Pitch_bend_c, 3, 10662
1, 29375, Note_on_c, 8, 57, 96
1, 29375, Note_on_c, 9, 42, 75
1, 29375, Note_on_c, 13, 87, 82
1, 29375, Note_on_c, 13, 75, 83
1, 29375, Lyric_t, "had "
1, 29376, Note_on_c, 1, 42, 94
1, 29376, Note_on_c, 6, 49, 79
1, 29376, Note_on_c, 9, 36, 102
1, 29376, Note_on_c, 9, 81, 22
1, 29376, Note_on_c, 10, 42, 54
1, 29376, Note_on_c, 11, 42, 62
1, 29376, Note_on_c, 15, 57, 72
1, 29377, Note_on_c, 12, 64, 66
1, 29378, Note_on_c, 0, 64, 51
1, 29378, Pitch_bend_c, 3, 12872
1, 29379, Note_on_c, 9, 42, 0
1, 29380, Note_on_c, 9, 81, 0
1, 29380, Note_on_c, 9, 36, 0
1, 29381, Pitch_bend_c, 3, 15472
1, 29385, Pitch_bend_c, 3, 16382
1, 29395, Note_on_c, 15, 57, 0
1, 29395, Note_on_c, 8, 57, 0
1, 29400, Note_on_c, 9, 42, 59
1, 29400, Note_on_c, 9, 81, 30
1, 29400, Note_on_c, 15, 64, 73
1, 29404, Note_on_c, 9, 81, 0
1, 29404, Note_on_c, 9, 42, 0
1, 29405, Note_on_c, 6, 49, 0
1, 29406, Note_on_c, 11, 42, 0
1, 29406, Note_on_c, 10, 42, 0
1, 29406, Note_on_c, 1, 42, 0
1, 29418, Note_on_c, 15, 64, 0
1, 29420, Note_on_c, 3, 66, 0
1, 29423, Note_on_c, 13, 75, 0
1, 29423, Note_on_c, 13, 87, 0
1, 29423, Note_on_c, 3, 66, 103
1, 29423, Note_on_c, 8, 57, 98
1, 29423, Note_on_c, 9, 69, 92
1, 29423, Note_on_c, 13, 85, 85
1, 29423, Note_on_c, 13, 73, 80
1, 29423, Note_on_c, 14, 57, 81
1, 29423, Note_on_c, 15, 57, 80
1, 29423, Lyric_t, "a"
1, 29424, Note_on_c, 7, 42, 76
1, 29424, Note_on_c, 9, 81, 22
1, 29424, Note_on_c, 12, 63, 70
1, 29426, Note_on_c, 0, 63, 53
1, 29427, Note_on_c, 9, 69, 0
1, 29428, Note_on_c, 9, 81, 0
1, 29428, Control_c, 3, 1, 1
1, 29431, Note_on_c, 12, 64, 0
1, 29435, Note_on_c, 0, 64, 0
1, 29435, Note_on_c, 7, 42, 0
1, 29436, Control_c, 3, 1, 0
1, 29439, Note_on_c, 14, 57, 0
1, 29441, Note_on_c, 15, 57, 0
1, 29442, Note_on_c, 8, 57, 0
1, 29448, Note_on_c, 9, 81, 26
1, 29448, Note_on_c, 15, 61, 72
1, 29450, Note_on_c, 3, 66, 0
1, 29452, Note_on_c, 9, 81, 0
1, 29462, Note_on_c, 12, 63, 0
1, 29467, Note_on_c, 0, 63, 0
1, 29467, Pitch_bend_c, 3, 8192
1, 29468, Note_on_c, 15, 61, 0
1, 29469, Pitch_bend_c, 3, 8192
1, 29470, Note_on_c, 0, 61, 55
1, 29470, Lyric_t, "bout "
1, 29471, Note_on_c, 3, 66, 102
1, 29471, Note_on_c, 8, 54, 96
1, 29471, Note_on_c, 13, 83, 78
1, 29471, Note_on_c, 13, 71, 83
1, 29471, Note_on_c, 15, 54, 77
1, 29472, Tempo, 645161
1, 29472, Note_on_c, 13, 85, 0
1, 29472, Note_on_c, 13, 73, 0
1, 29472, Note_on_c, 1, 44, 93
1, 29472, Note_on_c, 9, 36, 99
1, 29472, Note_on_c, 9, 37, 77
1, 29472, Note_on_c, 9, 40, 104
1, 29472, Note_on_c, 9, 39, 56
1, 29472, Note_on_c, 10, 44, 61
1, 29472, Note_on_c, 11, 44, 63
1, 29472, Note_on_c, 12, 61, 74
1, 29472, Note_on_c, 12, 64, 72
1, 29476, Note_on_c, 9, 39, 0
1, 29476, Note_on_c, 9, 40, 0
1, 29476, Note_on_c, 9, 37, 0
1, 29476, Note_on_c, 9, 36, 0
1, 29495, Note_on_c, 15, 61, 80
1, 29510, Note_on_c, 3, 66, 0
1, 29516, Note_on_c, 1, 44, 0
1, 29516, Note_on_c, 11, 44, 0
1, 29516, Note_on_c, 10, 44, 0
1, 29518, Note_on_c, 15, 61, 0
1, 29518, Note_on_c, 15, 64, 80
1, 29519, Note_on_c, 15, 54, 0
1, 29519, Note_on_c, 0, 61, 0
1, 29519, Note_on_c, 0, 61, 51
1, 29519, Note_on_c, 3, 66, 100
1, 29519, Note_on_c, 9, 39, 21
1, 29519, Note_on_c, 12, 66, 66
1, 29519, Note_on_c, 12, 59, 68
1, 29519, Note_on_c, 14, 56, 77
1, 29519, Lyric_t, "e"
1, 29520, Note_on_c, 1, 39, 88
1, 29520, Note_on_c, 9, 36, 104
1, 29520, Note_on_c, 9, 81, 24
1, 29520, Note_on_c, 11, 39, 60
1, 29520, Note_on_c, 13, 78, 76
1, 29520, Note_on_c, 13, 66, 78
1, 29521, Note_on_c, 13, 71, 0
1, 29521, Note_on_c, 13, 83, 0
1, 29521, Note_on_c, 9, 42, 84
1, 29522, Note_on_c, 10, 39, 54
1, 29523, Note_on_c, 9, 39, 0
1, 29524, Note_on_c, 9, 81, 0
1, 29524, Note_on_c, 9, 36, 0
1, 29525, Note_on_c, 9, 42, 0
1, 29525, Note_on_c, 12, 61, 0
1, 29528, Note_on_c, 12, 64, 0
1, 29532, Note_on_c, 14, 56, 0
1, 29543, Note_on_c, 15, 64, 0
1, 29543, Note_on_c, 15, 68, 72
1, 29549, Note_on_c, 3, 66, 0
1, 29552, Note_on_c, 12, 66, 0
1, 29556, Note_on_c, 8, 54, 0
1, 29558, Note_on_c, 12, 59, 0
1, 29560, Note_on_c, 15, 68, 0
1, 29562, Note_on_c, 11, 39, 0
1, 29562, Note_on_c, 1, 39, 0
1, 29563, Note_on_c, 0, 61, 0
1, 29564, Note_on_c, 10, 39, 0
1, 29566, Note_on_c, 13, 78, 0
1, 29566, Note_on_c, 13, 66, 0
1, 29567, Note_on_c, 13, 80, 84
1, 29567, Note_on_c, 13, 68, 80
1, 29568, Note_on_c, 0, 61, 48
1, 29568, Note_on_c, 0, 68, 51
1, 29568, Note_on_c, 1, 37, 94
1, 29568, Note_on_c, 3, 68, 103
1, 29568, Note_on_c, 9, 36, 96
1, 29568, Note_on_c, 9, 49, 31
1, 29568, Note_on_c, 9, 81, 27
1, 29568, Note_on_c, 9, 42, 77
1, 29568, Note_on_c, 9, 84, 22
1, 29568, Note_on_c, 10, 37, 57
1, 29568, Note_on_c, 11, 37, 66
1, 29568, Note_on_c, 12, 63, 72
1, 29568, Note_on_c, 12, 68, 74
1, 29568, Note_on_c, 15, 49, 78
1, 29568, Lyric_t, "nough "
1, 29568, Lyric_t, "\015"
1, 29568, Lyric_t, "\012"
1, 29572, Note_on_c, 9, 84, 0
1, 29572, Note_on_c, 9, 42, 0
1, 29572, Note_on_c, 9, 36, 0
1, 29572, Note_on_c, 9, 81, 0
1, 29572, Note_on_c, 9, 49, 0
1, 29591, Note_on_c, 15, 56, 79
1, 29592, Note_on_c, 8, 56, 104
1, 29593, Note_on_c, 0, 69, 47
1, 29595, Pitch_bend_c, 3, 9752
1, 29599, Pitch_bend_c, 3, 10532
1, 29602, Pitch_bend_c, 3, 11442
1, 29605, Pitch_bend_c, 3, 11962
1, 29606, Note_on_c, 8, 56, 0
1, 29609, Pitch_bend_c, 3, 12092
1, 29612, Note_on_c, 15, 56, 0
1, 29612, Control_c, 3, 1, 7
1, 29615, Note_on_c, 9, 81, 30
1, 29615, Note_on_c, 14, 49, 81
1, 29615, Note_on_c, 15, 59, 74
1, 29616, Note_on_c, 0, 68, 0
1, 29616, Note_on_c, 0, 68, 52
1, 29616, Control_c, 3, 1, 13
1, 29616, Pitch_bend_c, 3, 11442
1, 29616, Note_on_c, 9, 42, 76
1, 29619, Note_on_c, 9, 81, 0
1, 29620, Note_on_c, 9, 42, 0
1, 29620, Pitch_bend_c, 3, 10922
1, 29621, Note_on_c, 10, 37, 0
1, 29621, Note_on_c, 1, 37, 0
1, 29621, Note_on_c, 11, 37, 0
1, 29621, Control_c, 3, 1, 17
1, 29623, Pitch_bend_c, 3, 10142
1, 29626, Note_on_c, 0, 69, 0
1, 29626, Control_c, 3, 1, 21
1, 29627, Pitch_bend_c, 3, 9102
1, 29630, Pitch_bend_c, 3, 8192
1, 29630, Control_c, 3, 1, 24
1, 29631, Note_on_c, 14, 49, 0
1, 29635, Control_c, 3, 1, 26
1, 29639, Note_on_c, 15, 56, 78
1, 29640, Note_on_c, 8, 56, 95
1, 29641, Control_c, 3, 1, 27
1, 29643, Note_on_c, 15, 59, 0
1, 29656, Control_c, 3, 1, 25
1, 29657, Note_on_c, 8, 56, 0
1, 29660, Note_on_c, 15, 56, 0
1, 29663, Note_on_c, 6, 49, 78
1, 29663, Note_on_c, 9, 81, 30
1, 29663, Note_on_c, 15, 63, 80
1, 29664, Note_on_c, 1, 37, 93
1, 29664, Note_on_c, 9, 36, 99
1, 29664, Note_on_c, 9, 37, 78
1, 29664, Note_on_c, 9, 40, 103
1, 29664, Note_on_c, 9, 69, 94
1, 29664, Note_on_c, 9, 84, 21
1, 29664, Note_on_c, 10, 37, 53
1, 29664, Note_on_c, 11, 37, 59
1, 29665, Note_on_c, 9, 39, 52
1, 29667, Note_on_c, 9, 81, 0
1, 29668, Note_on_c, 9, 84, 0
1, 29668, Note_on_c, 9, 69, 0
1, 29668, Note_on_c, 9, 40, 0
1, 29668, Note_on_c, 9, 37, 0
1, 29668, Note_on_c, 9, 36, 0
1, 29669, Note_on_c, 9, 39, 0
1, 29685, Note_on_c, 15, 63, 0
1, 29687, Note_on_c, 6, 49, 0
1, 29687, Note_on_c, 8, 56, 96
1, 29687, Note_on_c, 9, 81, 31
1, 29687, Note_on_c, 15, 56, 76
1, 29688, Note_on_c, 9, 42, 80
1, 29688, Note_on_c, 9, 69, 93
1, 29691, Note_on_c, 9, 81, 0
1, 29692, Note_on_c, 9, 69, 0
1, 29692, Note_on_c, 9, 42, 0
1, 29694, Note_on_c, 10, 37, 0
1, 29694, Note_on_c, 1, 37, 0
1, 29694, Note_on_c, 11, 37, 0
1, 29697, Note_on_c, 3, 68, 0
1, 29705, Note_on_c, 8, 56, 0
1, 29705, Control_c, 3, 1, 24
1, 29708, Note_on_c, 15, 56, 0
1, 29711, Note_on_c, 9, 81, 27
1, 29711, Note_on_c, 14, 51, 76
1, 29711, Note_on_c, 15, 59, 76
1, 29712, Note_on_c, 5, 88, 84
1, 29712, Note_on_c, 6, 47, 75
1, 29712, Note_on_c, 9, 39, 22
1, 29712, Note_on_c, 9, 69, 99
1, 29715, Note_on_c, 9, 81, 0
1, 29716, Note_on_c, 9, 69, 0
1, 29716, Note_on_c, 9, 39, 0
1, 29725, Control_c, 3, 1, 23
1, 29728, Control_c, 3, 1, 20
1, 29730, Note_on_c, 5, 88, 0
1, 29732, Note_on_c, 0, 68, 0
1, 29733, Note_on_c, 14, 51, 0
1, 29733, Control_c, 3, 1, 13
1, 29735, Note_on_c, 15, 59, 0
1, 29735, Note_on_c, 8, 56, 102
1, 29735, Note_on_c, 15, 56, 76
1, 29736, Note_on_c, 6, 47, 0
1, 29736, Note_on_c, 9, 69, 93
1, 29737, Control_c, 3, 1, 2
1, 29740, Note_on_c, 9, 69, 0
1, 29740, Note_on_c, 12, 68, 0
1, 29741, Note_on_c, 12, 63, 0
1, 29742, Control_c, 3, 1, 0
1, 29744, Note_on_c, 5, 90, 80
1, 29752, Note_on_c, 0, 61, 0
1, 29754, Note_on_c, 8, 56, 0
1, 29756, Note_on_c, 12, 64, 75
1, 29759, Note_on_c, 0, 64, 52
1, 29759, Note_on_c, 1, 37, 85
1, 29759, Note_on_c, 3, 68, 102
1, 29759, Note_on_c, 5, 92, 78
1, 29759, Note_on_c, 9, 36, 99
1, 29759, Note_on_c, 9, 84, 16
1, 29759, Note_on_c, 10, 37, 55
1, 29759, Note_on_c, 11, 37, 59
1, 29759, Note_on_c, 15, 63, 72
1, 29759, Lyric_t, "It's "
1, 29760, Note_on_c, 15, 56, 0
1, 29760, Note_on_c, 6, 49, 80
1, 29760, Note_on_c, 9, 42, 82
1, 29760, Note_on_c, 9, 69, 95
1, 29760, Note_on_c, 9, 81, 25
1, 29761, Note_on_c, 5, 90, 0
1, 29763, Note_on_c, 9, 36, 0
1, 29763, Note_on_c, 9, 84, 0
1, 29764, Note_on_c, 9, 81, 0
1, 29764, Note_on_c, 9, 42, 0
1, 29764, Note_on_c, 9, 69, 0
1, 29774, Note_on_c, 5, 92, 0
1, 29778, Note_on_c, 15, 63, 0
1, 29783, Note_on_c, 8, 56, 101
1, 29783, Note_on_c, 15, 56, 72
1, 29784, Note_on_c, 3, 68, 0
1, 29784, Note_on_c, 9, 42, 60
1, 29784, Note_on_c, 9, 81, 24
1, 29788, Note_on_c, 9, 81, 0
1, 29788, Note_on_c, 9, 42, 0
1, 29789, Note_on_c, 3, 66, 67
1, 29790, Note_on_c, 6, 49, 0
1, 29796, Note_on_c, 1, 37, 0
1, 29796, Note_on_c, 10, 37, 0
1, 29796, Note_on_c, 11, 37, 0
1, 29796, Note_on_c, 12, 64, 0
1, 29797, Note_on_c, 15, 56, 0
1, 29802, Note_on_c, 8, 56, 0
1, 29805, Note_on_c, 3, 66, 0
1, 29805, Note_on_c, 3, 68, 96
1, 29805, Lyric_t, "not "
1, 29806, Note_on_c, 12, 63, 70
1, 29807, Note_on_c, 0, 63, 55
1, 29807, Note_on_c, 14, 52, 85
1, 29807, Note_on_c, 15, 56, 80
1, 29807, Note_on_c, 15, 61, 80
1, 29808, Note_on_c, 5, 88, 72
1, 29808, Note_on_c, 9, 81, 28
1, 29811, Note_on_c, 0, 64, 0
1, 29812, Note_on_c, 9, 81, 0
1, 29818, Note_on_c, 15, 61, 0
1, 29821, Note_on_c, 15, 56, 0
1, 29823, Note_on_c, 5, 88, 0
1, 29828, Note_on_c, 14, 52, 0
1, 29831, Note_on_c, 15, 56, 77
1, 29831, Note_on_c, 15, 64, 73
1, 29832, Note_on_c, 8, 56, 97
1, 29832, Note_on_c, 9, 42, 77
1, 29832, Note_on_c, 9, 81, 30
1, 29833, Note_on_c, 3, 68, 0
1, 29836, Note_on_c, 9, 81, 0
1, 29836, Note_on_c, 9, 42, 0
1, 29838, Note_on_c, 3, 66, 63
1, 29840, Note_on_c, 5, 90, 68
1, 29842, Note_on_c, 12, 63, 0
1, 29845, Note_on_c, 0, 63, 0
1, 29845, Note_on_c, 8, 56, 0
1, 29847, Note_on_c, 15, 64, 0
1, 29853, Note_on_c, 5, 90, 0
1, 29854, Note_on_c, 3, 68, 102
1, 29854, Lyric_t, "hard "
1, 29855, Note_on_c, 5, 92, 66
1, 29855, Note_on_c, 12, 61, 75
1, 29856, Note_on_c, 0, 61, 56
1, 29856, Note_on_c, 1, 37, 89
1, 29856, Note_on_c, 8, 56, 102
1, 29856, Note_on_c, 9, 36, 102
1, 29856, Note_on_c, 9, 37, 80
1, 29856, Note_on_c, 9, 40, 98
1, 29856, Note_on_c, 9, 39, 57
1, 29856, Note_on_c, 9, 84, 19
1, 29856, Note_on_c, 10, 37, 58
1, 29856, Note_on_c, 11, 37, 65
1, 29857, Note_on_c, 3, 66, 0
1, 29859, Note_on_c, 15, 49, 0
1, 29860, Note_on_c, 9, 84, 0
1, 29860, Note_on_c, 9, 37, 0
1, 29860, Note_on_c, 9, 40, 0
1, 29860, Note_on_c, 9, 36, 0
1, 29860, Note_on_c, 9, 39, 0
1, 29869, Note_on_c, 5, 92, 0
1, 29871, Note_on_c, 15, 56, 0
1, 29879, Note_on_c, 15, 66, 80
1, 29882, Note_on_c, 8, 56, 0
1, 29884, Note_on_c, 3, 68, 0
1, 29889, Note_on_c, 10, 37, 0
1, 29889, Note_on_c, 11, 37, 0
1, 29889, Note_on_c, 1, 37, 0
1, 29895, Note_on_c, 12, 61, 0
1, 29901, Note_on_c, 12, 59, 75
1, 29902, Note_on_c, 3, 66, 104
1, 29902, Lyric_t, "to "
1, 29903, Note_on_c, 5, 88, 59
1, 29903, Note_on_c, 8, 56, 104
1, 29903, Note_on_c, 9, 39, 29
1, 29903, Note_on_c, 14, 51, 81
1, 29903, Note_on_c, 15, 56, 78
1, 29904, Note_on_c, 0, 59, 51
1, 29904, Note_on_c, 9, 42, 75
1, 29904, Note_on_c, 9, 81, 31
1, 29905, Note_on_c, 15, 66, 0
1, 29907, Note_on_c, 9, 39, 0
1, 29908, Note_on_c, 0, 61, 0
1, 29908, Note_on_c, 9, 81, 0
1, 29908, Note_on_c, 9, 42, 0
1, 29918, Note_on_c, 5, 88, 0
1, 29922, Note_on_c, 14, 51, 0
1, 29926, Note_on_c, 8, 56, 0
1, 29928, Note_on_c, 15, 56, 0
1, 29933, Note_on_c, 3, 66, 0
1, 29936, Note_on_c, 5, 90, 55
1, 29940, Note_on_c, 12, 59, 0
1, 29945, Note_on_c, 0, 59, 0
1, 29947, Note_on_c, 5, 90, 0
1, 29949, Note_on_c, 13, 68, 0
1, 29949, Note_on_c, 13, 80, 0
1, 29951, Note_on_c, 5, 92, 53
1, 29952, Note_on_c, 0, 61, 54
1, 29952, Note_on_c, 1, 37, 86
1, 29952, Note_on_c, 7, 37, 83
1, 29952, Note_on_c, 9, 36, 101
1, 29952, Note_on_c, 9, 81, 24
1, 29952, Note_on_c, 10, 37, 55
1, 29952, Note_on_c, 11, 37, 59
1, 29952, Note_on_c, 12, 64, 69
1, 29952, Note_on_c, 13, 80, 81
1, 29952, Note_on_c, 13, 68, 77
1, 29952, Note_on_c, 15, 59, 78
1, 29952, Lyric_t, "see "
1, 29952, Lyric_t, "\015"
1, 29953, Note_on_c, 3, 68, 102
1, 29956, Note_on_c, 9, 81, 0
1, 29956, Note_on_c, 9, 36, 0
1, 29965, Note_on_c, 5, 92, 0
1, 29975, Note_on_c, 15, 64, 77
1, 29976, Note_on_c, 8, 64, 99
1, 29985, Note_on_c, 15, 59, 0
1, 29993, Note_on_c, 8, 64, 0
1, 29999, Note_on_c, 9, 81, 30
1, 29999, Note_on_c, 14, 49, 80
1, 30000, Note_on_c, 15, 64, 0
1, 30000, Note_on_c, 15, 59, 79
1, 30003, Note_on_c, 9, 81, 0
1, 30005, Note_on_c, 11, 37, 0
1, 30005, Note_on_c, 1, 37, 0
1, 30005, Note_on_c, 3, 68, 0
1, 30005, Note_on_c, 10, 37, 0
1, 30017, Note_on_c, 14, 49, 0
1, 30018, Note_on_c, 7, 37, 0
1, 30023, Note_on_c, 15, 61, 77
1, 30024, Pitch_bend_c, 3, 6053
1, 30024, Note_on_c, 7, 37, 76
1, 30024, Note_on_c, 8, 63, 101
1, 30024, Note_on_c, 9, 42, 80
1, 30026, Note_on_c, 3, 71, 99
1, 30026, Lyric_t, "the "
1, 30028, Note_on_c, 9, 42, 0
1, 30028, Pitch_bend_c, 3, 6524
1, 30032, Pitch_bend_c, 3, 6994
1, 30034, Note_on_c, 15, 59, 0
1, 30036, Pitch_bend_c, 3, 7465
1, 30037, Note_on_c, 0, 61, 0
1, 30040, Pitch_bend_c, 3, 7935
1, 30041, Note_on_c, 8, 63, 0
1, 30042, Note_on_c, 15, 61, 0
1, 30044, Pitch_bend_c, 3, 8192
1, 30047, Note_on_c, 6, 49, 75
1, 30047, Note_on_c, 9, 42, 75
1, 30047, Note_on_c, 9, 69, 99
1, 30047, Note_on_c, 9, 81, 23
1, 30047, Note_on_c, 13, 85, 82
1, 30047, Note_on_c, 13, 73, 84
1, 30048, Note_on_c, 12, 64, 0
1, 30048, Note_on_c, 13, 80, 0
1, 30048, Note_on_c, 13, 68, 0
1, 30048, Note_on_c, 0, 56, 56
1, 30048, Note_on_c, 1, 37, 92
1, 30048, Note_on_c, 9, 36, 102
1, 30048, Note_on_c, 9, 37, 73
1, 30048, Note_on_c, 9, 40, 95
1, 30048, Note_on_c, 10, 37, 62
1, 30048, Note_on_c, 11, 37, 59
1, 30048, Note_on_c, 12, 56, 66
1, 30048, Note_on_c, 15, 64, 75
1, 30049, Note_on_c, 9, 39, 50
1, 30051, Note_on_c, 9, 81, 0
1, 30051, Note_on_c, 9, 69, 0
1, 30051, Note_on_c, 9, 42, 0
1, 30052, Note_on_c, 9, 36, 0
1, 30052, Note_on_c, 9, 40, 0
1, 30052, Note_on_c, 9, 37, 0
1, 30053, Note_on_c, 9, 39, 0
1, 30054, Note_on_c, 7, 37, 0
1, 30056, Control_c, 3, 1, 1
1, 30057, Control_c, 3, 1, 19
1, 30061, Control_c, 3, 1, 26
1, 30066, Control_c, 3, 1, 30
1, 30071, Control_c, 3, 1, 30
1, 30071, Note_on_c, 9, 81, 22
1, 30071, Note_on_c, 15, 68, 76
1, 30072, Note_on_c, 6, 49, 0
1, 30072, Note_on_c, 8, 63, 96
1, 30075, Note_on_c, 9, 81, 0
1, 30076, Control_c, 3, 1, 24
1, 30080, Control_c, 3, 1, 16
1, 30082, Note_on_c, 15, 64, 0
1, 30082, Note_on_c, 3, 71, 0
1, 30084, Control_c, 3, 1, 2
1, 30086, Note_on_c, 1, 37, 0
1, 30086, Note_on_c, 10, 37, 0
1, 30086, Note_on_c, 11, 37, 0
1, 30089, Note_on_c, 8, 63, 0
1, 30089, Control_c, 3, 1, 0
1, 30095, Note_on_c, 9, 69, 93
1, 30095, Note_on_c, 9, 81, 29
1, 30095, Note_on_c, 9, 42, 79
1, 30095, Note_on_c, 13, 87, 82
1, 30095, Note_on_c, 13, 75, 82
1, 30095, Note_on_c, 14, 51, 83
1, 30095, Note_on_c, 15, 63, 76
1, 30096, Note_on_c, 13, 85, 0
1, 30096, Note_on_c, 13, 73, 0
1, 30096, Note_on_c, 6, 47, 74
1, 30096, Note_on_c, 9, 39, 28
1, 30098, Note_on_c, 3, 70, 104
1, 30099, Note_on_c, 9, 42, 0
1, 30099, Note_on_c, 9, 81, 0
1, 30099, Note_on_c, 9, 69, 0
1, 30100, Note_on_c, 9, 39, 0
1, 30116, Note_on_c, 0, 56, 0
1, 30117, Note_on_c, 14, 51, 0
1, 30118, Note_on_c, 6, 47, 0
1, 30119, Note_on_c, 15, 64, 79
1, 30120, Note_on_c, 8, 64, 98
1, 30128, Note_on_c, 9, 40, 79
1, 30132, Note_on_c, 9, 40, 0
1, 30135, Note_on_c, 8, 64, 0
1, 30135, Note_on_c, 15, 63, 0
1, 30138, Note_on_c, 12, 56, 0
1, 30140, Note_on_c, 15, 68, 0
1, 30141, Note_on_c, 15, 64, 0
1, 30143, Note_on_c, 1, 37, 91
1, 30143, Note_on_c, 9, 42, 81
1, 30143, Note_on_c, 9, 36, 102
1, 30143, Note_on_c, 10, 37, 54
1, 30143, Note_on_c, 11, 37, 63
1, 30143, Note_on_c, 13, 88, 80
1, 30143, Note_on_c, 13, 76, 80
1, 30143, Note_on_c, 15, 71, 80
1, 30144, Note_on_c, 0, 61, 47
1, 30144, Note_on_c, 6, 49, 81
1, 30144, Note_on_c, 9, 81, 30
1, 30144, Note_on_c, 12, 61, 75
1, 30144, Lyric_t, "boy "
1, 30145, Note_on_c, 13, 87, 0
1, 30145, Note_on_c, 13, 75, 0
1, 30147, Note_on_c, 9, 42, 0
1, 30147, Note_on_c, 9, 36, 0
1, 30148, Note_on_c, 9, 81, 0
1, 30152, Note_on_c, 3, 70, 0
1, 30167, Note_on_c, 8, 64, 104
1, 30167, Note_on_c, 9, 38, 53
1, 30167, Note_on_c, 15, 64, 76
1, 30168, Note_on_c, 9, 42, 55
1, 30168, Note_on_c, 9, 81, 25
1, 30171, Note_on_c, 9, 38, 0
1, 30171, Note_on_c, 3, 66, 95
1, 30172, Note_on_c, 9, 81, 0
1, 30172, Note_on_c, 9, 42, 0
1, 30173, Note_on_c, 6, 49, 0
1, 30180, Note_on_c, 1, 37, 0
1, 30180, Note_on_c, 11, 37, 0
1, 30180, Note_on_c, 10, 37, 0
1, 30187, Note_on_c, 8, 64, 0
1, 30191, Note_on_c, 9, 69, 94
1, 30191, Note_on_c, 14, 52, 77
1, 30191, Note_on_c, 15, 68, 81
1, 30192, Note_on_c, 7, 37, 69
1, 30192, Note_on_c, 9, 38, 56
1, 30192, Note_on_c, 9, 81, 25
1, 30192, Note_on_c, 13, 87, 78
1, 30192, Note_on_c, 13, 75, 80
1, 30193, Note_on_c, 13, 88, 0
1, 30193, Note_on_c, 13, 76, 0
1, 30194, Note_on_c, 15, 71, 0
1, 30194, Note_on_c, 15, 64, 0
1, 30195, Note_on_c, 9, 69, 0
1, 30196, Note_on_c, 9, 81, 0
1, 30196, Note_on_c, 9, 38, 0
1, 30209, Note_on_c, 7, 37, 0
1, 30214, Note_on_c, 14, 52, 0
1, 30215, Note_on_c, 15, 75, 76
1, 30216, Note_on_c, 3, 66, 0
1, 30216, Note_on_c, 9, 38, 49
1, 30216, Note_on_c, 9, 81, 27
1, 30216, Note_on_c, 15, 71, 74
1, 30217, Note_on_c, 0, 61, 0
1, 30217, Note_on_c, 15, 68, 0
1, 30220, Note_on_c, 9, 81, 0
1, 30220, Note_on_c, 9, 38, 0
1, 30236, Note_on_c, 15, 71, 0
1, 30237, Note_on_c, 12, 61, 0
1, 30239, Note_on_c, 15, 71, 79
1, 30240, Tempo, 645161
1, 30240, Note_on_c, 0, 56, 51
1, 30240, Note_on_c, 1, 40, 92
1, 30240, Note_on_c, 3, 64, 103
1, 30240, Note_on_c, 9, 36, 99
1, 30240, Note_on_c, 9, 38, 53
1, 30240, Note_on_c, 9, 37, 73
1, 30240, Note_on_c, 9, 40, 100
1, 30240, Note_on_c, 9, 39, 50
1, 30240, Note_on_c, 10, 40, 59
1, 30240, Note_on_c, 11, 40, 60
1, 30240, Note_on_c, 12, 56, 67
1, 30240, Note_on_c, 13, 85, 78
1, 30240, Note_on_c, 13, 73, 83
1, 30240, Lyric_t, "is "
1, 30241, Note_on_c, 13, 75, 0
1, 30241, Note_on_c, 13, 87, 0
1, 30244, Note_on_c, 9, 40, 0
1, 30244, Note_on_c, 9, 36, 0
1, 30244, Note_on_c, 9, 37, 0
1, 30244, Note_on_c, 9, 38, 0
1, 30244, Note_on_c, 9, 39, 0
1, 30264, Note_on_c, 7, 37, 75
1, 30264, Note_on_c, 15, 80, 72
1, 30281, Note_on_c, 7, 37, 0
1, 30281, Note_on_c, 15, 71, 0
1, 30284, Note_on_c, 15, 75, 0
1, 30287, Note_on_c, 10, 40, 0
1, 30287, Note_on_c, 1, 40, 0
1, 30287, Note_on_c, 11, 40, 0
1, 30287, Note_on_c, 9, 39, 26
1, 30287, Note_on_c, 14, 51, 81
1, 30288, Note_on_c, 1, 44, 89
1, 30288, Note_on_c, 9, 36, 101
1, 30288, Note_on_c, 9, 81, 22
1, 30288, Note_on_c, 10, 44, 56
1, 30288, Note_on_c, 11, 44, 65
1, 30288, Note_on_c, 13, 80, 82
1, 30288, Note_on_c, 13, 68, 79
1, 30288, Note_on_c, 15, 61, 73
1, 30288, Note_on_c, 15, 71, 79
1, 30289, Note_on_c, 13, 85, 0
1, 30289, Note_on_c, 13, 73, 0
1, 30289, Note_on_c, 9, 42, 78
1, 30291, Note_on_c, 9, 39, 0
1, 30292, Note_on_c, 9, 81, 0
1, 30292, Note_on_c, 9, 36, 0
1, 30293, Note_on_c, 9, 42, 0
1, 30295, Note_on_c, 15, 80, 0
1, 30307, Note_on_c, 14, 51, 0
1, 30307, Note_on_c, 0, 56, 0
1, 30309, Note_on_c, 3, 64, 0
1, 30312, Note_on_c, 15, 83, 72
1, 30312, Note_on_c, 15, 56, 74
1, 30314, Note_on_c, 15, 61, 0
1, 30315, Note_on_c, 12, 56, 0
1, 30324, Note_on_c, 15, 71, 0
1, 30330, Note_on_c, 11, 44, 0
1, 30330, Note_on_c, 1, 44, 0
1, 30330, Note_on_c, 10, 44, 0
1, 30333, Note_on_c, 15, 56, 0
1, 30336, Note_on_c, 1, 42, 89
1, 30336, Note_on_c, 8, 54, 96
1, 30336, Note_on_c, 9, 36, 99
1, 30336, Note_on_c, 9, 49, 36
1, 30336, Note_on_c, 9, 81, 25
1, 30336, Note_on_c, 9, 42, 80
1, 30336, Note_on_c, 9, 84, 17
1, 30336, Note_on_c, 10, 42, 56
1, 30336, Note_on_c, 11, 42, 59
1, 30336, Note_on_c, 12, 59, 71
1, 30336, Note_on_c, 13, 81, 82
1, 30336, Note_on_c, 13, 69, 76
1, 30336, Note_on_c, 15, 54, 79
1, 30337, Note_on_c, 3, 64, 95
1, 30337, Lyric_t, "mine, "
1, 30337, Lyric_t, "\015"
1, 30337, Lyric_t, "\012"
1, 30338, Note_on_c, 13, 68, 0
1, 30338, Note_on_c, 13, 80, 0
1, 30339, Note_on_c, 15, 83, 0
1, 30340, Note_on_c, 9, 42, 0
1, 30340, Note_on_c, 9, 81, 0
1, 30340, Note_on_c, 9, 84, 0
1, 30340, Note_on_c, 9, 36, 0
1, 30340, Note_on_c, 9, 49, 0
1, 30350, Note_on_c, 3, 64, 0
1, 30360, Note_on_c, 15, 57, 75
1, 30361, Note_on_c, 12, 56, 70
1, 30362, Note_on_c, 3, 66, 95
1, 30373, Note_on_c, 12, 59, 0
1, 30374, Note_on_c, 1, 42, 0
1, 30374, Note_on_c, 10, 42, 0
1, 30374, Note_on_c, 11, 42, 0
1, 30377, Pitch_bend_c, 3, 8972
1, 30379, Pitch_bend_c, 3, 10012
1, 30381, Note_on_c, 15, 57, 0
1, 30382, Pitch_bend_c, 3, 11442
1, 30383, Note_on_c, 9, 81, 31
1, 30383, Note_on_c, 14, 54, 78
1, 30384, Note_on_c, 9, 42, 83
1, 30384, Note_on_c, 12, 57, 68
1, 30384, Note_on_c, 15, 61, 79
1, 30386, Pitch_bend_c, 3, 12352
1, 30387, Note_on_c, 9, 81, 0
1, 30388, Note_on_c, 9, 42, 0
1, 30390, Pitch_bend_c, 3, 13262
1, 30393, Pitch_bend_c, 3, 14302
1, 30393, Control_c, 3, 1, 2
1, 30394, Note_on_c, 12, 56, 0
1, 30394, Control_c, 3, 1, 20
1, 30395, Note_on_c, 14, 54, 0
1, 30397, Pitch_bend_c, 3, 14952
1, 30399, Control_c, 3, 1, 29
1, 30400, Pitch_bend_c, 3, 15602
1, 30403, Control_c, 3, 1, 35
1, 30405, Pitch_bend_c, 3, 15992
1, 30407, Pitch_bend_c, 3, 16252
1, 30408, Note_on_c, 15, 64, 81
1, 30409, Control_c, 3, 1, 37
1, 30410, Pitch_bend_c, 3, 16382
1, 30412, Note_on_c, 15, 61, 0
1, 30412, Control_c, 3, 1, 38
1, 30429, Control_c, 3, 1, 37
1, 30430, Control_c, 3, 1, 34
1, 30431, Note_on_c, 6, 49, 77
1, 30431, Note_on_c, 9, 81, 27
1, 30432, Note_on_c, 15, 64, 0
1, 30432, Note_on_c, 9, 69, 94
1, 30432, Note_on_c, 9, 84, 17
1, 30432, Note_on_c, 10, 42, 57
1, 30432, Note_on_c, 15, 68, 77
1, 30433, Note_on_c, 9, 39, 57
1, 30435, Note_on_c, 9, 81, 0
1, 30435, Control_c, 3, 1, 29
1, 30436, Note_on_c, 9, 84, 0
1, 30436, Note_on_c, 9, 69, 0
1, 30437, Note_on_c, 9, 39, 0
1, 30439, Control_c, 3, 1, 21
1, 30444, Control_c, 3, 1, 8
1, 30449, Control_c, 3, 1, 0
1, 30455, Note_on_c, 6, 49, 0
1, 30455, Note_on_c, 9, 81, 25
1, 30456, Note_on_c, 9, 42, 80
1, 30456, Note_on_c, 9, 69, 95
1, 30456, Note_on_c, 15, 64, 78
1, 30459, Note_on_c, 9, 81, 0
1, 30459, Note_on_c, 15, 68, 0
1, 30460, Note_on_c, 9, 69, 0
1, 30460, Note_on_c, 9, 42, 0
1, 30464, Note_on_c, 10, 42, 0
1, 30467, Note_on_c, 8, 54, 0
1, 30469, Note_on_c, 3, 66, 0
1, 30479, Note_on_c, 0, 59, 47
1, 30479, Note_on_c, 9, 81, 31
1, 30479, Note_on_c, 14, 56, 85
1, 30479, Lyric_t, "You "
1, 30480, Pitch_bend_c, 3, 8192
1, 30480, Note_on_c, 5, 90, 87
1, 30480, Note_on_c, 6, 47, 78
1, 30480, Note_on_c, 8, 57, 99
1, 30480, Note_on_c, 9, 39, 23
1, 30480, Note_on_c, 9, 69, 92
1, 30481, Note_on_c, 12, 59, 72
1, 30481, Note_on_c, 15, 57, 76
1, 30482, Note_on_c, 15, 64, 0
1, 30482, Note_on_c, 3, 66, 95
1, 30483, Note_on_c, 9, 81, 0
1, 30484, Note_on_c, 9, 69, 0
1, 30484, Note_on_c, 9, 39, 0
1, 30493, Note_on_c, 14, 56, 0
1, 30497, Note_on_c, 5, 90, 0
1, 30499, Note_on_c, 15, 57, 0
1, 30503, Note_on_c, 15, 61, 78
1, 30504, Note_on_c, 6, 47, 0
1, 30504, Note_on_c, 9, 69, 99
1, 30508, Note_on_c, 9, 69, 0
1, 30510, Note_on_c, 8, 57, 0
1, 30511, Note_on_c, 5, 92, 83
1, 30514, Note_on_c, 15, 54, 0
1, 30517, Note_on_c, 3, 66, 0
1, 30518, Note_on_c, 12, 59, 0
1, 30519, Note_on_c, 15, 61, 0
1, 30524, Note_on_c, 0, 59, 0
1, 30527, Note_on_c, 0, 64, 53
1, 30527, Note_on_c, 9, 84, 22
1, 30527, Lyric_t, "need "
1, 30528, Note_on_c, 5, 93, 80
1, 30528, Note_on_c, 6, 49, 76
1, 30528, Note_on_c, 8, 54, 96
1, 30528, Note_on_c, 9, 42, 81
1, 30528, Note_on_c, 9, 69, 96
1, 30528, Note_on_c, 9, 81, 24
1, 30528, Note_on_c, 10, 42, 55
1, 30528, Note_on_c, 12, 64, 71
1, 30528, Note_on_c, 15, 54, 77
1, 30531, Note_on_c, 9, 84, 0
1, 30532, Note_on_c, 9, 69, 0
1, 30532, Note_on_c, 9, 42, 0
1, 30532, Note_on_c, 9, 81, 0
1, 30532, Note_on_c, 5, 92, 0
1, 30547, Note_on_c, 5, 93, 0
1, 30552, Note_on_c, 9, 42, 61
1, 30552, Note_on_c, 9, 81, 27
1, 30552, Note_on_c, 15, 69, 74
1, 30556, Note_on_c, 9, 81, 0
1, 30556, Note_on_c, 9, 42, 0
1, 30556, Note_on_c, 8, 54, 0
1, 30558, Note_on_c, 6, 49, 0
1, 30558, Note_on_c, 10, 42, 0
1, 30571, Note_on_c, 12, 64, 0
1, 30573, Note_on_c, 12, 57, 0
1, 30575, Note_on_c, 14, 57, 82
1, 30576, Note_on_c, 0, 64, 0
1, 30576, Note_on_c, 0, 63, 47
1, 30576, Note_on_c, 5, 90, 74
1, 30576, Note_on_c, 8, 57, 100
1, 30576, Note_on_c, 9, 81, 29
1, 30576, Note_on_c, 12, 63, 67
1, 30576, Note_on_c, 15, 57, 81
1, 30576, Lyric_t, "to "
1, 30577, Note_on_c, 15, 69, 0
1, 30580, Note_on_c, 9, 81, 0
1, 30590, Note_on_c, 14, 57, 0
1, 30594, Note_on_c, 15, 57, 0
1, 30595, Note_on_c, 5, 90, 0
1, 30600, Note_on_c, 9, 42, 83
1, 30600, Note_on_c, 9, 81, 27
1, 30600, Note_on_c, 15, 64, 78
1, 30604, Note_on_c, 9, 81, 0
1, 30604, Note_on_c, 9, 42, 0
1, 30607, Note_on_c, 5, 92, 70
1, 30621, Note_on_c, 12, 63, 0
1, 30623, Note_on_c, 0, 63, 0
1, 30623, Note_on_c, 9, 84, 18
1, 30624, Note_on_c, 0, 61, 47
1, 30624, Note_on_c, 1, 42, 92
1, 30624, Note_on_c, 5, 93, 68
1, 30624, Note_on_c, 9, 36, 99
1, 30624, Note_on_c, 9, 37, 78
1, 30624, Note_on_c, 9, 40, 97
1, 30624, Note_on_c, 9, 39, 56
1, 30624, Note_on_c, 10, 42, 57
1, 30624, Note_on_c, 11, 42, 62
1, 30624, Note_on_c, 15, 61, 79
1, 30624, Note_on_c, 15, 57, 75
1, 30624, Lyric_t, "give "
1, 30625, Note_on_c, 15, 64, 0
1, 30625, Note_on_c, 12, 64, 73
1, 30627, Note_on_c, 9, 84, 0
1, 30628, Note_on_c, 9, 36, 0
1, 30628, Note_on_c, 5, 92, 0
1, 30628, Note_on_c, 9, 40, 0
1, 30628, Note_on_c, 9, 37, 0
1, 30628, Note_on_c, 9, 39, 0
1, 30643, Note_on_c, 15, 57, 0
1, 30643, Note_on_c, 5, 93, 0
1, 30648, Note_on_c, 15, 57, 79
1, 30649, Note_on_c, 15, 61, 0
1, 30658, Note_on_c, 11, 42, 0
1, 30658, Note_on_c, 1, 42, 0
1, 30658, Note_on_c, 10, 42, 0
1, 30668, Note_on_c, 12, 64, 0
1, 30670, Note_on_c, 15, 57, 0
1, 30671, Note_on_c, 3, 68, 102
1, 30671, Note_on_c, 9, 39, 27
1, 30671, Note_on_c, 14, 56, 81
1, 30671, Lyric_t, "it "
1, 30672, Note_on_c, 0, 59, 50
1, 30672, Note_on_c, 5, 90, 61
1, 30672, Note_on_c, 9, 42, 79
1, 30672, Note_on_c, 9, 81, 26
1, 30672, Note_on_c, 15, 61, 79
1, 30672, Note_on_c, 15, 57, 75
1, 30673, Note_on_c, 12, 64, 73
1, 30675, Note_on_c, 9, 39, 0
1, 30675, Note_on_c, 0, 61, 0
1, 30676, Note_on_c, 9, 42, 0
1, 30676, Note_on_c, 9, 81, 0
1, 30677, Note_on_c, 8, 57, 0
1, 30687, Note_on_c, 14, 56, 0
1, 30688, Note_on_c, 15, 54, 0
1, 30689, Note_on_c, 15, 57, 0
1, 30691, Note_on_c, 5, 90, 0
1, 30696, Note_on_c, 8, 54, 100
1, 30696, Note_on_c, 15, 54, 72
1, 30697, Note_on_c, 15, 61, 0
1, 30703, Note_on_c, 5, 92, 57
1, 30713, Note_on_c, 3, 68, 0
1, 30717, Note_on_c, 8, 54, 0
1, 30718, Note_on_c, 12, 64, 0
1, 30719, Note_on_c, 0, 61, 48
1, 30719, Lyric_t, "up, "
1, 30719, Lyric_t, "\015"
1, 30720, Note_on_c, 15, 54, 0
1, 30720, Note_on_c, 1, 42, 89
1, 30720, Note_on_c, 5, 93, 55
1, 30720, Note_on_c, 7, 42, 88
1, 30720, Note_on_c, 8, 54, 95
1, 30720, Note_on_c, 9, 36, 101
1, 30720, Note_on_c, 9, 81, 28
1, 30720, Note_on_c, 10, 42, 59
1, 30720, Note_on_c, 11, 42, 63
1, 30720, Note_on_c, 15, 66, 81
1, 30721, Note_on_c, 12, 66, 67
1, 30722, Note_on_c, 3, 73, 99
1, 30724, Note_on_c, 9, 81, 0
1, 30724, Note_on_c, 9, 36, 0
1, 30725, Note_on_c, 0, 59, 0
1, 30728, Note_on_c, 5, 92, 0
1, 30743, Note_on_c, 15, 57, 74
1, 30749, Note_on_c, 5, 93, 0
1, 30758, Note_on_c, 3, 73, 0
1, 30758, Note_on_c, 1, 42, 0
1, 30758, Note_on_c, 10, 42, 0
1, 30758, Note_on_c, 11, 42, 0
1, 30762, Note_on_c, 15, 57, 0
1, 30767, Note_on_c, 9, 81, 26
1, 30767, Note_on_c, 14, 54, 85
1, 30767, Note_on_c, 15, 61, 79
1, 30768, Note_on_c, 3, 68, 102
1, 30771, Note_on_c, 9, 81, 0
1, 30780, Note_on_c, 14, 54, 0
1, 30788, Note_on_c, 7, 42, 0
1, 30791, Note_on_c, 15, 57, 75
1, 30792, Note_on_c, 3, 68, 0
1, 30792, Note_on_c, 7, 42, 71
1, 30792, Note_on_c, 9, 42, 75
1, 30796, Note_on_c, 9, 42, 0
1, 30807, Note_on_c, 13, 69, 0
1, 30807, Note_on_c, 13, 81, 0
1, 30811, Note_on_c, 15, 57, 0
1, 30812, Note_on_c, 15, 61, 0
1, 30815, Note_on_c, 7, 42, 0
1, 30815, Note_on_c, 6, 49, 79
1, 30815, Note_on_c, 9, 42, 83
1, 30815, Note_on_c, 9, 69, 93
1, 30815, Note_on_c, 9, 81, 30
1, 30815, Note_on_c, 13, 83, 81
1, 30815, Note_on_c, 13, 71, 84
1, 30815, Note_on_c, 15, 57, 73
1, 30815, Note_on_c, 15, 64, 78
1, 30816, Note_on_c, 1, 42, 88
1, 30816, Note_on_c, 3, 68, 97
1, 30816, Note_on_c, 9, 36, 102
1, 30816, Note_on_c, 9, 37, 74
1, 30816, Note_on_c, 9, 40, 96
1, 30816, Note_on_c, 10, 42, 54
1, 30816, Note_on_c, 11, 42, 61
1, 30817, Note_on_c, 9, 39, 56
1, 30819, Note_on_c, 9, 81, 0
1, 30819, Note_on_c, 9, 69, 0
1, 30819, Note_on_c, 9, 42, 0
1, 30820, Note_on_c, 9, 40, 0
1, 30820, Note_on_c, 9, 37, 0
1, 30820, Note_on_c, 9, 36, 0
1, 30821, Note_on_c, 9, 39, 0
1, 30829, Note_on_c, 15, 57, 0
1, 30834, Note_on_c, 15, 64, 0
1, 30834, Note_on_c, 15, 66, 0
1, 30839, Note_on_c, 9, 81, 26
1, 30840, Note_on_c, 6, 49, 0
1, 30840, Note_on_c, 3, 73, 100
1, 30840, Note_on_c, 15, 68, 75
1, 30842, Note_on_c, 3, 68, 0
1, 30843, Note_on_c, 9, 81, 0
1, 30848, Note_on_c, 11, 42, 0
1, 30848, Note_on_c, 10, 42, 0
1, 30848, Note_on_c, 1, 42, 0
1, 30853, Note_on_c, 8, 54, 0
1, 30855, Note_on_c, 12, 66, 0
1, 30861, Note_on_c, 3, 73, 0
1, 30861, Note_on_c, 15, 68, 0
1, 30863, Note_on_c, 8, 57, 104
1, 30863, Note_on_c, 9, 69, 97
1, 30863, Note_on_c, 9, 81, 22
1, 30863, Note_on_c, 9, 42, 79
1, 30863, Note_on_c, 13, 85, 76
1, 30863, Note_on_c, 13, 73, 80
1, 30863, Note_on_c, 14, 56, 80
1, 30864, Note_on_c, 6, 47, 72
1, 30864, Note_on_c, 7, 42, 73
1, 30864, Note_on_c, 9, 39, 27
1, 30864, Note_on_c, 15, 57, 72
1, 30866, Note_on_c, 13, 71, 0
1, 30866, Note_on_c, 13, 83, 0
1, 30867, Note_on_c, 9, 69, 0
1, 30867, Note_on_c, 9, 81, 0
1, 30867, Note_on_c, 9, 42, 0
1, 30868, Note_on_c, 9, 39, 0
1, 30879, Note_on_c, 14, 56, 0
1, 30879, Note_on_c, 0, 61, 0
1, 30880, Note_on_c, 15, 57, 0
1, 30883, Note_on_c, 8, 57, 0
1, 30885, Note_on_c, 7, 42, 0
1, 30886, Note_on_c, 6, 47, 0
1, 30887, Note_on_c, 3, 71, 103
1, 30887, Note_on_c, 15, 69, 80
1, 30896, Note_on_c, 9, 40, 73
1, 30900, Note_on_c, 9, 40, 0
1, 30906, Note_on_c, 15, 69, 0
1, 30910, Note_on_c, 13, 85, 0
1, 30910, Note_on_c, 13, 73, 0
1, 30911, Note_on_c, 0, 66, 47
1, 30911, Note_on_c, 8, 57, 96
1, 30911, Note_on_c, 9, 42, 84
1, 30911, Note_on_c, 13, 87, 83
1, 30911, Note_on_c, 13, 75, 76
1, 30911, Lyric_t, "had "
1, 30912, Tempo, 645161
1, 30912, Note_on_c, 1, 42, 91
1, 30912, Note_on_c, 6, 49, 75
1, 30912, Note_on_c, 9, 36, 96
1, 30912, Note_on_c, 9, 81, 25
1, 30912, Note_on_c, 10, 42, 58
1, 30912, Note_on_c, 11, 42, 65
1, 30912, Note_on_c, 15, 57, 81
1, 30913, Note_on_c, 12, 66, 75
1, 30915, Note_on_c, 9, 42, 0
1, 30915, Note_on_c, 3, 71, 0
1, 30916, Note_on_c, 9, 36, 0
1, 30916, Note_on_c, 9, 81, 0
1, 30931, Note_on_c, 15, 57, 0
1, 30931, Note_on_c, 8, 57, 0
1, 30936, Note_on_c, 3, 68, 96
1, 30936, Note_on_c, 9, 42, 59
1, 30936, Note_on_c, 9, 81, 23
1, 30936, Note_on_c, 15, 64, 73
1, 30940, Note_on_c, 9, 81, 0
1, 30940, Note_on_c, 9, 42, 0
1, 30941, Note_on_c, 6, 49, 0
1, 30942, Note_on_c, 11, 42, 0
1, 30942, Note_on_c, 10, 42, 0
1, 30942, Note_on_c, 1, 42, 0
1, 30954, Note_on_c, 15, 64, 0
1, 30959, Note_on_c, 13, 75, 0
1, 30959, Note_on_c, 13, 87, 0
1, 30959, Note_on_c, 8, 57, 100
1, 30959, Note_on_c, 9, 69, 95
1, 30959, Note_on_c, 13, 85, 81
1, 30959, Note_on_c, 13, 73, 76
1, 30959, Note_on_c, 14, 57, 82
1, 30959, Note_on_c, 15, 57, 72
1, 30960, Note_on_c, 3, 68, 0
1, 30960, Note_on_c, 0, 64, 49
1, 30960, Note_on_c, 7, 42, 68
1, 30960, Note_on_c, 9, 81, 24
1, 30960, Lyric_t, "a"
1, 30961, Note_on_c, 0, 66, 0
1, 30962, Note_on_c, 12, 64, 68
1, 30963, Note_on_c, 9, 69, 0
1, 30964, Note_on_c, 9, 81, 0
1, 30968, Note_on_c, 12, 66, 0
1, 30971, Note_on_c, 7, 42, 0
1, 30975, Note_on_c, 14, 57, 0
1, 30977, Note_on_c, 15, 57, 0
1, 30978, Note_on_c, 8, 57, 0
1, 30983, Note_on_c, 3, 66, 96
1, 30984, Note_on_c, 9, 81, 23
1, 30984, Note_on_c, 15, 61, 73
1, 30988, Note_on_c, 9, 81, 0
1, 30997, Control_c, 3, 1, 15
1, 31002, Control_c, 3, 1, 24
1, 31004, Note_on_c, 15, 61, 0
1, 31006, Note_on_c, 12, 64, 0
1, 31006, Control_c, 3, 1, 28
1, 31007, Note_on_c, 13, 85, 0
1, 31007, Note_on_c, 13, 73, 0
1, 31007, Note_on_c, 8, 54, 99
1, 31007, Note_on_c, 13, 83, 85
1, 31007, Note_on_c, 13, 71, 76
1, 31007, Note_on_c, 15, 54, 79
1, 31008, Note_on_c, 0, 63, 51
1, 31008, Note_on_c, 1, 44, 87
1, 31008, Note_on_c, 9, 36, 99
1, 31008, Note_on_c, 9, 37, 72
1, 31008, Note_on_c, 9, 40, 98
1, 31008, Note_on_c, 9, 39, 50
1, 31008, Note_on_c, 10, 44, 54
1, 31008, Note_on_c, 11, 44, 68
1, 31008, Lyric_t, "bout "
1, 31009, Note_on_c, 12, 63, 69
1, 31012, Note_on_c, 9, 39, 0
1, 31012, Note_on_c, 9, 37, 0
1, 31012, Note_on_c, 9, 36, 0
1, 31012, Note_on_c, 0, 64, 0
1, 31012, Note_on_c, 9, 40, 0
1, 31012, Control_c, 3, 1, 30
1, 31016, Control_c, 3, 1, 31
1, 31021, Control_c, 3, 1, 33
1, 31024, Control_c, 3, 1, 35
1, 31028, Note_on_c, 3, 66, 0
1, 31029, Control_c, 3, 1, 37
1, 31031, Note_on_c, 15, 61, 74
1, 31033, Control_c, 3, 1, 38
1, 31046, Control_c, 3, 1, 36
1, 31048, Control_c, 3, 1, 31
1, 31051, Control_c, 3, 1, 17
1, 31052, Note_on_c, 1, 44, 0
1, 31052, Note_on_c, 10, 44, 0
1, 31052, Note_on_c, 11, 44, 0
1, 31054, Note_on_c, 15, 61, 0
1, 31054, Note_on_c, 15, 64, 79
1, 31055, Note_on_c, 15, 54, 0
1, 31055, Note_on_c, 9, 39, 27
1, 31055, Note_on_c, 14, 56, 84
1, 31056, Note_on_c, 0, 61, 56
1, 31056, Note_on_c, 1, 39, 93
1, 31056, Control_c, 3, 1, 0
1, 31056, Note_on_c, 9, 36, 98
1, 31056, Note_on_c, 9, 81, 29
1, 31056, Note_on_c, 11, 39, 66
1, 31056, Note_on_c, 13, 78, 78
1, 31056, Note_on_c, 13, 66, 76
1, 31056, Lyric_t, "e"
1, 31057, Note_on_c, 13, 83, 0
1, 31057, Note_on_c, 13, 71, 0
1, 31057, Note_on_c, 9, 42, 81
1, 31058, Note_on_c, 0, 63, 0
1, 31058, Note_on_c, 10, 39, 53
1, 31058, Note_on_c, 12, 66, 72
1, 31059, Note_on_c, 9, 39, 0
1, 31060, Note_on_c, 9, 36, 0
1, 31060, Note_on_c, 9, 81, 0
1, 31061, Note_on_c, 9, 42, 0
1, 31062, Note_on_c, 12, 63, 0
1, 31068, Note_on_c, 14, 56, 0
1, 31079, Note_on_c, 15, 64, 0
1, 31079, Note_on_c, 15, 68, 75
1, 31092, Note_on_c, 8, 54, 0
1, 31096, Note_on_c, 15, 68, 0
1, 31098, Note_on_c, 1, 39, 0
1, 31098, Note_on_c, 11, 39, 0
1, 31100, Note_on_c, 10, 39, 0
1, 31101, Note_on_c, 13, 78, 0
1, 31101, Note_on_c, 13, 66, 0
1, 31103, Note_on_c, 13, 80, 77
1, 31103, Note_on_c, 13, 68, 78
1, 31104, Note_on_c, 0, 63, 52
1, 31104, Note_on_c, 1, 37, 85
1, 31104, Note_on_c, 2, 66, 103
1, 31104, Note_on_c, 9, 36, 95
1, 31104, Note_on_c, 9, 49, 27
1, 31104, Note_on_c, 9, 81, 29
1, 31104, Note_on_c, 9, 42, 80
1, 31104, Note_on_c, 9, 84, 15
1, 31104, Note_on_c, 10, 37, 54
1, 31104, Note_on_c, 11, 37, 63
1, 31104, Note_on_c, 15, 49, 76
1, 31104, Lyric_t, "nough "
1, 31104, Lyric_t, "\015"
1, 31104, Lyric_t, "\012"
1, 31106, Note_on_c, 12, 66, 0
1, 31106, Note_on_c, 12, 68, 66
1, 31108, Note_on_c, 9, 42, 0
1, 31108, Note_on_c, 9, 36, 0
1, 31108, Note_on_c, 9, 81, 0
1, 31108, Note_on_c, 9, 49, 0
1, 31108, Note_on_c, 9, 84, 0
1, 31110, Note_on_c, 0, 61, 0
1, 31127, Note_on_c, 15, 56, 73
1, 31128, Note_on_c, 8, 56, 98
1, 31142, Note_on_c, 8, 56, 0
1, 31148, Note_on_c, 15, 56, 0
1, 31150, Note_on_c, 2, 66, 0
1, 31151, Note_on_c, 9, 81, 30
1, 31151, Note_on_c, 14, 49, 84
1, 31151, Note_on_c, 15, 59, 75
1, 31152, Note_on_c, 2, 68, 98
1, 31152, Note_on_c, 9, 42, 75
1, 31155, Note_on_c, 9, 81, 0
1, 31156, Note_on_c, 9, 42, 0
1, 31157, Note_on_c, 1, 37, 0
1, 31157, Note_on_c, 10, 37, 0
1, 31157, Note_on_c, 11, 37, 0
1, 31167, Note_on_c, 14, 49, 0
1, 31175, Note_on_c, 15, 56, 72
1, 31176, Note_on_c, 8, 56, 104
1, 31179, Note_on_c, 15, 59, 0
1, 31186, Note_on_c, 2, 68, 0
1, 31193, Note_on_c, 8, 56, 0
1, 31196, Note_on_c, 15, 56, 0
1, 31199, Note_on_c, 6, 49, 78
1, 31199, Note_on_c, 9, 81, 24
1, 31199, Note_on_c, 15, 63, 75
1, 31200, Note_on_c, 1, 37, 94
1, 31200, Note_on_c, 2, 71, 97
1, 31200, Note_on_c, 9, 36, 104
1, 31200, Note_on_c, 9, 37, 77
1, 31200, Note_on_c, 9, 40, 99
1, 31200, Note_on_c, 9, 69, 92
1, 31200, Note_on_c, 9, 84, 22
1, 31200, Note_on_c, 10, 37, 58
1, 31200, Note_on_c, 11, 37, 64
1, 31201, Note_on_c, 9, 39, 50
1, 31203, Note_on_c, 9, 81, 0
1, 31204, Note_on_c, 9, 36, 0
1, 31204, Note_on_c, 9, 84, 0
1, 31204, Note_on_c, 9, 37, 0
1, 31204, Note_on_c, 9, 69, 0
1, 31204, Note_on_c, 9, 40, 0
1, 31205, Note_on_c, 9, 39, 0
1, 31221, Note_on_c, 15, 63, 0
1, 31223, Note_on_c, 6, 49, 0
1, 31223, Control_c, 2, 1, 17
1, 31223, Note_on_c, 8, 56, 103
1, 31223, Note_on_c, 9, 81, 24
1, 31223, Note_on_c, 15, 56, 75
1, 31224, Note_on_c, 9, 42, 76
1, 31224, Note_on_c, 9, 69, 101
1, 31227, Note_on_c, 9, 81, 0
1, 31227, Control_c, 2, 1, 31
1, 31228, Note_on_c, 9, 69, 0
1, 31228, Note_on_c, 9, 42, 0
1, 31230, Note_on_c, 10, 37, 0
1, 31230, Note_on_c, 11, 37, 0
1, 31230, Note_on_c, 1, 37, 0
1, 31231, Control_c, 2, 1, 36
1, 31237, Control_c, 2, 1, 30
1, 31241, Note_on_c, 8, 56, 0
1, 31241, Control_c, 2, 1, 15
1, 31244, Note_on_c, 15, 56, 0
1, 31244, Pitch_bend_c, 2, 11702
1, 31245, Control_c, 2, 1, 0
1, 31247, Note_on_c, 9, 81, 27
1, 31247, Note_on_c, 14, 51, 80
1, 31247, Note_on_c, 15, 59, 80
1, 31248, Pitch_bend_c, 2, 14822
1, 31248, Note_on_c, 5, 88, 79
1, 31248, Note_on_c, 6, 47, 73
1, 31248, Note_on_c, 9, 39, 23
1, 31248, Note_on_c, 9, 69, 92
1, 31250, Note_on_c, 12, 68, 0
1, 31251, Note_on_c, 9, 81, 0
1, 31251, Pitch_bend_c, 2, 16382
1, 31252, Note_on_c, 9, 39, 0
1, 31252, Note_on_c, 9, 69, 0
1, 31266, Note_on_c, 5, 88, 0
1, 31269, Note_on_c, 14, 51, 0
1, 31271, Note_on_c, 2, 71, 0
1, 31271, Note_on_c, 15, 59, 0
1, 31271, Note_on_c, 8, 56, 98
1, 31271, Note_on_c, 15, 56, 76
1, 31272, Note_on_c, 0, 63, 0
1, 31272, Note_on_c, 6, 47, 0
1, 31272, Note_on_c, 9, 69, 100
1, 31276, Note_on_c, 9, 69, 0
1, 31277, Note_on_c, 3, 66, 63
1, 31280, Note_on_c, 5, 90, 75
1, 31290, Note_on_c, 8, 56, 0
1, 31295, Note_on_c, 0, 64, 52
1, 31295, Note_on_c, 1, 37, 90
1, 31295, Note_on_c, 5, 92, 73
1, 31295, Note_on_c, 9, 36, 102
1, 31295, Note_on_c, 9, 84, 17
1, 31295, Note_on_c, 10, 37, 53
1, 31295, Note_on_c, 11, 37, 61
1, 31295, Note_on_c, 15, 63, 79
1, 31295, Lyric_t, "It's "
1, 31296, Note_on_c, 3, 66, 0
1, 31296, Note_on_c, 15, 56, 0
1, 31296, Note_on_c, 3, 68, 101
1, 31296, Note_on_c, 6, 49, 73
1, 31296, Note_on_c, 9, 42, 77
1, 31296, Note_on_c, 9, 69, 92
1, 31296, Note_on_c, 9, 81, 27
1, 31297, Note_on_c, 5, 90, 0
1, 31297, Note_on_c, 12, 64, 69
1, 31299, Note_on_c, 9, 84, 0
1, 31299, Note_on_c, 9, 36, 0
1, 31300, Note_on_c, 9, 81, 0
1, 31300, Note_on_c, 9, 69, 0
1, 31300, Note_on_c, 9, 42, 0
1, 31310, Note_on_c, 5, 92, 0
1, 31314, Note_on_c, 15, 63, 0
1, 31319, Note_on_c, 8, 56, 98
1, 31319, Note_on_c, 15, 56, 74
1, 31320, Note_on_c, 9, 42, 52
1, 31320, Note_on_c, 9, 81, 23
1, 31324, Note_on_c, 9, 81, 0
1, 31324, Note_on_c, 9, 42, 0
1, 31325, Note_on_c, 3, 68, 0
1, 31325, Note_on_c, 3, 66, 63
1, 31326, Note_on_c, 6, 49, 0
1, 31327, Pitch_bend_c, 2, 8192
1, 31332, Note_on_c, 10, 37, 0
1, 31332, Note_on_c, 1, 37, 0
1, 31332, Note_on_c, 11, 37, 0
1, 31333, Note_on_c, 15, 56, 0
1, 31338, Note_on_c, 8, 56, 0
1, 31342, Note_on_c, 12, 64, 0
1, 31343, Note_on_c, 3, 68, 104
1, 31343, Note_on_c, 14, 52, 80
1, 31343, Note_on_c, 15, 56, 79
1, 31343, Note_on_c, 15, 61, 72
1, 31343, Lyric_t, "not "
1, 31344, Note_on_c, 3, 66, 0
1, 31344, Note_on_c, 0, 63, 51
1, 31344, Note_on_c, 5, 88, 68
1, 31344, Note_on_c, 9, 81, 24
1, 31345, Note_on_c, 12, 63, 71
1, 31346, Note_on_c, 0, 64, 0
1, 31348, Note_on_c, 9, 81, 0
1, 31354, Note_on_c, 15, 61, 0
1, 31357, Note_on_c, 15, 56, 0
1, 31359, Note_on_c, 5, 88, 0
1, 31364, Note_on_c, 14, 52, 0
1, 31367, Note_on_c, 15, 56, 78
1, 31367, Note_on_c, 15, 64, 77
1, 31368, Note_on_c, 8, 56, 96
1, 31368, Note_on_c, 9, 42, 84
1, 31368, Note_on_c, 9, 81, 27
1, 31372, Note_on_c, 9, 81, 0
1, 31372, Note_on_c, 9, 42, 0
1, 31374, Note_on_c, 3, 68, 0
1, 31374, Note_on_c, 3, 66, 51
1, 31376, Note_on_c, 5, 90, 64
1, 31381, Note_on_c, 8, 56, 0
1, 31383, Note_on_c, 15, 64, 0
1, 31388, Note_on_c, 0, 63, 0
1, 31389, Note_on_c, 5, 90, 0
1, 31389, Note_on_c, 3, 68, 97
1, 31389, Lyric_t, "hard "
1, 31390, Note_on_c, 12, 63, 0
1, 31391, Note_on_c, 5, 92, 62
1, 31392, Tempo, 645161
1, 31392, Note_on_c, 0, 61, 47
1, 31392, Note_on_c, 1, 37, 90
1, 31392, Note_on_c, 8, 56, 100
1, 31392, Note_on_c, 9, 36, 96
1, 31392, Note_on_c, 9, 37, 77
1, 31392, Note_on_c, 9, 40, 99
1, 31392, Note_on_c, 9, 39, 58
1, 31392, Note_on_c, 9, 84, 17
1, 31392, Note_on_c, 10, 37, 60
1, 31392, Note_on_c, 11, 37, 66
1, 31393, Note_on_c, 3, 66, 0
1, 31394, Note_on_c, 12, 61, 68
1, 31395, Note_on_c, 15, 49, 0
1, 31396, Note_on_c, 9, 36, 0
1, 31396, Note_on_c, 9, 40, 0
1, 31396, Note_on_c, 9, 39, 0
1, 31396, Note_on_c, 9, 37, 0
1, 31396, Note_on_c, 9, 84, 0
1, 31405, Note_on_c, 5, 92, 0
1, 31407, Note_on_c, 15, 56, 0
1, 31415, Note_on_c, 15, 66, 76
1, 31418, Note_on_c, 8, 56, 0
1, 31424, Note_on_c, 3, 68, 0
1, 31425, Note_on_c, 11, 37, 0
1, 31425, Note_on_c, 10, 37, 0
1, 31425, Note_on_c, 1, 37, 0
1, 31437, Note_on_c, 0, 61, 0
1, 31438, Note_on_c, 12, 61, 0
1, 31439, Note_on_c, 3, 71, 97
1, 31439, Note_on_c, 5, 88, 57
1, 31439, Note_on_c, 8, 56, 98
1, 31439, Note_on_c, 9, 39, 23
1, 31439, Note_on_c, 14, 51, 78
1, 31439, Note_on_c, 15, 56, 79
1, 31439, Lyric_t, "to "
1, 31440, Note_on_c, 0, 59, 52
1, 31440, Note_on_c, 9, 42, 77
1, 31440, Note_on_c, 9, 81, 31
1, 31441, Note_on_c, 15, 66, 0
1, 31441, Note_on_c, 12, 59, 69
1, 31443, Note_on_c, 9, 39, 0
1, 31444, Note_on_c, 9, 42, 0
1, 31444, Note_on_c, 9, 81, 0
1, 31454, Note_on_c, 5, 88, 0
1, 31458, Note_on_c, 14, 51, 0
1, 31462, Note_on_c, 8, 56, 0
1, 31464, Note_on_c, 15, 56, 0
1, 31469, Note_on_c, 3, 71, 0
1, 31472, Note_on_c, 5, 90, 53
1, 31482, Note_on_c, 0, 59, 0
1, 31483, Note_on_c, 5, 90, 0
1, 31484, Note_on_c, 12, 59, 0
1, 31485, Note_on_c, 13, 68, 0
1, 31485, Note_on_c, 13, 80, 0
1, 31487, Note_on_c, 0, 61, 48
1, 31487, Note_on_c, 5, 92, 51
1, 31487, Lyric_t, "see "
1, 31487, Lyric_t, "\015"
1, 31488, Note_on_c, 1, 37, 87
1, 31488, Note_on_c, 7, 37, 91
1, 31488, Note_on_c, 9, 36, 96
1, 31488, Note_on_c, 9, 81, 28
1, 31488, Note_on_c, 10, 37, 55
1, 31488, Note_on_c, 11, 37, 63
1, 31488, Note_on_c, 12, 61, 73
1, 31488, Note_on_c, 13, 80, 79
1, 31488, Note_on_c, 13, 68, 80
1, 31488, Note_on_c, 15, 59, 81
1, 31489, Pitch_bend_c, 3, 13392
1, 31489, Note_on_c, 3, 64, 101
1, 31492, Note_on_c, 9, 81, 0
1, 31492, Note_on_c, 9, 36, 0
1, 31492, Pitch_bend_c, 3, 15472
1, 31497, Pitch_bend_c, 3, 16382
1, 31501, Note_on_c, 5, 92, 0
1, 31511, Pitch_bend_c, 3, 13392
1, 31511, Note_on_c, 15, 64, 73
1, 31512, Note_on_c, 8, 64, 99
1, 31513, Pitch_bend_c, 3, 8192
1, 31521, Note_on_c, 15, 59, 0
1, 31529, Note_on_c, 8, 64, 0
1, 31532, Note_on_c, 3, 64, 0
1, 31535, Note_on_c, 9, 81, 23
1, 31535, Note_on_c, 14, 49, 81
1, 31536, Note_on_c, 15, 64, 0
1, 31536, Note_on_c, 3, 61, 95
1, 31536, Note_on_c, 15, 59, 72
1, 31539, Note_on_c, 9, 81, 0
1, 31541, Note_on_c, 11, 37, 0
1, 31541, Note_on_c, 1, 37, 0
1, 31541, Note_on_c, 10, 37, 0
1, 31553, Note_on_c, 14, 49, 0
1, 31554, Note_on_c, 7, 37, 0
1, 31556, Note_on_c, 3, 61, 0
1, 31559, Note_on_c, 15, 61, 77
1, 31560, Note_on_c, 3, 59, 96
1, 31560, Note_on_c, 7, 37, 75
1, 31560, Note_on_c, 8, 63, 103
1, 31560, Note_on_c, 9, 42, 75
1, 31560, Lyric_t, "the "
1, 31564, Note_on_c, 9, 42, 0
1, 31570, Note_on_c, 15, 59, 0
1, 31577, Note_on_c, 8, 63, 0
1, 31578, Note_on_c, 15, 61, 0
1, 31583, Note_on_c, 6, 49, 79
1, 31583, Note_on_c, 9, 42, 81
1, 31583, Note_on_c, 9, 69, 95
1, 31583, Note_on_c, 9, 81, 25
1, 31583, Note_on_c, 13, 85, 80
1, 31583, Note_on_c, 13, 73, 78
1, 31584, Note_on_c, 13, 80, 0
1, 31584, Note_on_c, 13, 68, 0
1, 31584, Note_on_c, 12, 61, 0
1, 31584, Note_on_c, 0, 61, 0
1, 31584, Note_on_c, 0, 56, 48
1, 31584, Note_on_c, 1, 37, 85
1, 31584, Note_on_c, 9, 36, 104
1, 31584, Note_on_c, 9, 37, 78
1, 31584, Note_on_c, 9, 40, 99
1, 31584, Note_on_c, 10, 37, 55
1, 31584, Note_on_c, 11, 37, 61
1, 31584, Note_on_c, 15, 64, 74
1, 31585, Note_on_c, 9, 39, 50
1, 31587, Note_on_c, 9, 69, 0
1, 31587, Note_on_c, 9, 42, 0
1, 31587, Note_on_c, 9, 81, 0
1, 31588, Note_on_c, 9, 36, 0
1, 31588, Note_on_c, 9, 40, 0
1, 31588, Note_on_c, 9, 37, 0
1, 31589, Note_on_c, 9, 39, 0
1, 31590, Note_on_c, 7, 37, 0
1, 31592, Control_c, 3, 1, 5
1, 31596, Control_c, 3, 1, 18
1, 31600, Control_c, 3, 1, 33
1, 31605, Control_c, 3, 1, 48
1, 31607, Note_on_c, 9, 81, 27
1, 31607, Note_on_c, 15, 68, 81
1, 31608, Note_on_c, 6, 49, 0
1, 31608, Note_on_c, 8, 63, 102
1, 31609, Control_c, 3, 1, 55
1, 31611, Note_on_c, 9, 81, 0
1, 31614, Control_c, 3, 1, 57
1, 31618, Note_on_c, 15, 64, 0
1, 31618, Control_c, 3, 1, 58
1, 31622, Note_on_c, 11, 37, 0
1, 31622, Note_on_c, 1, 37, 0
1, 31622, Note_on_c, 10, 37, 0
1, 31625, Note_on_c, 8, 63, 0
1, 31631, Note_on_c, 2, 71, 101
1, 31631, Note_on_c, 9, 69, 100
1, 31631, Note_on_c, 9, 81, 30
1, 31631, Note_on_c, 9, 42, 81
1, 31631, Note_on_c, 13, 87, 83
1, 31631, Note_on_c, 13, 75, 78
1, 31631, Note_on_c, 14, 51, 82
1, 31631, Note_on_c, 15, 63, 76
1, 31632, Note_on_c, 13, 73, 0
1, 31632, Note_on_c, 13, 85, 0
1, 31632, Note_on_c, 6, 47, 77
1, 31632, Note_on_c, 9, 39, 24
1, 31633, Pitch_bend_c, 2, 9362
1, 31635, Note_on_c, 9, 42, 0
1, 31635, Note_on_c, 9, 81, 0
1, 31635, Note_on_c, 9, 69, 0
1, 31635, Pitch_bend_c, 2, 10792
1, 31636, Note_on_c, 9, 39, 0
1, 31639, Pitch_bend_c, 2, 12352
1, 31640, Note_on_c, 3, 59, 0
1, 31642, Pitch_bend_c, 2, 14172
1, 31646, Pitch_bend_c, 2, 15602
1, 31649, Pitch_bend_c, 2, 16382
1, 31653, Note_on_c, 14, 51, 0
1, 31653, Control_c, 3, 1, 57
1, 31654, Note_on_c, 6, 47, 0
1, 31655, Note_on_c, 15, 64, 72
1, 31656, Note_on_c, 8, 64, 104
1, 31663, Note_on_c, 2, 71, 0
1, 31664, Control_c, 3, 1, 54
1, 31664, Note_on_c, 9, 40, 80
1, 31666, Note_on_c, 0, 56, 0
1, 31668, Note_on_c, 9, 40, 0
1, 31668, Control_c, 3, 1, 47
1, 31671, Note_on_c, 8, 64, 0
1, 31671, Note_on_c, 15, 63, 0
1, 31672, Control_c, 3, 1, 31
1, 31676, Note_on_c, 15, 68, 0
1, 31677, Note_on_c, 15, 64, 0
1, 31677, Pitch_bend_c, 2, 14302
1, 31677, Control_c, 3, 1, 17
1, 31679, Note_on_c, 0, 61, 48
1, 31679, Note_on_c, 1, 37, 93
1, 31679, Note_on_c, 9, 42, 80
1, 31679, Note_on_c, 9, 36, 99
1, 31679, Note_on_c, 10, 37, 54
1, 31679, Note_on_c, 11, 37, 65
1, 31679, Note_on_c, 13, 88, 83
1, 31679, Note_on_c, 13, 76, 78
1, 31679, Note_on_c, 15, 71, 77
1, 31679, Lyric_t, "boy "
1, 31680, Note_on_c, 2, 71, 67
1, 31680, Note_on_c, 6, 49, 79
1, 31680, Note_on_c, 9, 81, 26
1, 31681, Note_on_c, 13, 75, 0
1, 31681, Note_on_c, 13, 87, 0
1, 31681, Pitch_bend_c, 2, 8192
1, 31681, Control_c, 3, 1, 6
1, 31683, Note_on_c, 9, 42, 0
1, 31683, Note_on_c, 9, 36, 0
1, 31684, Note_on_c, 9, 81, 0
1, 31686, Control_c, 3, 1, 0
1, 31697, Note_on_c, 2, 71, 0
1, 31703, Note_on_c, 2, 68, 102
1, 31703, Note_on_c, 8, 64, 98
1, 31703, Note_on_c, 9, 38, 52
1, 31703, Note_on_c, 15, 64, 73
1, 31704, Note_on_c, 9, 42, 60
1, 31704, Note_on_c, 9, 81, 22
1, 31707, Note_on_c, 9, 38, 0
1, 31708, Note_on_c, 9, 81, 0
1, 31708, Note_on_c, 9, 42, 0
1, 31709, Note_on_c, 6, 49, 0
1, 31716, Note_on_c, 10, 37, 0
1, 31716, Note_on_c, 1, 37, 0
1, 31716, Note_on_c, 11, 37, 0
1, 31723, Note_on_c, 8, 64, 0
1, 31723, Control_c, 2, 1, 14
1, 31726, Control_c, 2, 1, 35
1, 31727, Note_on_c, 9, 69, 98
1, 31727, Note_on_c, 14, 52, 78
1, 31727, Note_on_c, 15, 68, 73
1, 31728, Note_on_c, 7, 37, 70
1, 31728, Note_on_c, 9, 38, 49
1, 31728, Note_on_c, 9, 81, 23
1, 31728, Note_on_c, 13, 87, 84
1, 31728, Note_on_c, 13, 75, 82
1, 31729, Note_on_c, 13, 88, 0
1, 31729, Note_on_c, 13, 76, 0
1, 31730, Note_on_c, 15, 71, 0
1, 31730, Note_on_c, 15, 64, 0
1, 31731, Note_on_c, 9, 69, 0
1, 31731, Control_c, 2, 1, 39
1, 31732, Note_on_c, 9, 38, 0
1, 31732, Note_on_c, 9, 81, 0
1, 31739, Control_c, 2, 1, 38
1, 31740, Control_c, 2, 1, 33
1, 31744, Control_c, 2, 1, 27
1, 31745, Note_on_c, 7, 37, 0
1, 31750, Note_on_c, 14, 52, 0
1, 31750, Control_c, 2, 1, 25
1, 31751, Note_on_c, 15, 75, 80
1, 31752, Note_on_c, 9, 38, 58
1, 31752, Note_on_c, 9, 81, 23
1, 31752, Note_on_c, 15, 71, 79
1, 31753, Note_on_c, 15, 68, 0
1, 31755, Control_c, 2, 1, 26
1, 31756, Note_on_c, 9, 81, 0
1, 31756, Note_on_c, 9, 38, 0
1, 31758, Control_c, 2, 1, 29
1, 31762, Note_on_c, 2, 68, 0
1, 31763, Control_c, 2, 1, 31
1, 31767, Note_on_c, 0, 61, 0
1, 31769, Control_c, 2, 1, 32
1, 31772, Note_on_c, 15, 71, 0
1, 31772, Pitch_bend_c, 2, 4602
1, 31775, Note_on_c, 0, 56, 47
1, 31775, Note_on_c, 2, 66, 96
1, 31775, Note_on_c, 15, 71, 75
1, 31775, Lyric_t, "is "
1, 31776, Note_on_c, 1, 40, 91
1, 31776, Pitch_bend_c, 2, 5108
1, 31776, Control_c, 2, 1, 22
1, 31776, Note_on_c, 9, 36, 98
1, 31776, Note_on_c, 9, 38, 49
1, 31776, Note_on_c, 9, 37, 80
1, 31776, Note_on_c, 9, 40, 103
1, 31776, Note_on_c, 9, 39, 53
1, 31776, Note_on_c, 10, 40, 55
1, 31776, Note_on_c, 11, 40, 62
1, 31776, Note_on_c, 13, 85, 82
1, 31776, Note_on_c, 13, 73, 82
1, 31777, Note_on_c, 13, 87, 0
1, 31777, Note_on_c, 13, 75, 0
1, 31780, Note_on_c, 9, 40, 0
1, 31780, Note_on_c, 9, 36, 0
1, 31780, Note_on_c, 9, 37, 0
1, 31780, Note_on_c, 9, 38, 0
1, 31780, Note_on_c, 9, 39, 0
1, 31780, Pitch_bend_c, 2, 5614
1, 31780, Control_c, 2, 1, 0
1, 31784, Pitch_bend_c, 2, 6120
1, 31788, Pitch_bend_c, 2, 6626
1, 31792, Pitch_bend_c, 2, 7132
1, 31796, Pitch_bend_c, 2, 7639
1, 31800, Pitch_bend_c, 2, 8192
1, 31800, Note_on_c, 7, 37, 69
1, 31800, Note_on_c, 15, 80, 79
1, 31817, Note_on_c, 7, 37, 0
1, 31817, Note_on_c, 15, 71, 0
1, 31818, Note_on_c, 2, 66, 0
1, 31820, Note_on_c, 15, 75, 0
1, 31823, Note_on_c, 10, 40, 0
1, 31823, Note_on_c, 11, 40, 0
1, 31823, Note_on_c, 1, 40, 0
1, 31823, Note_on_c, 2, 64, 97
1, 31823, Note_on_c, 9, 39, 30
1, 31823, Note_on_c, 14, 51, 85
1, 31824, Note_on_c, 1, 44, 88
1, 31824, Note_on_c, 9, 36, 104
1, 31824, Note_on_c, 9, 81, 29
1, 31824, Note_on_c, 10, 44, 54
1, 31824, Note_on_c, 11, 44, 68
1, 31824, Note_on_c, 13, 80, 85
1, 31824, Note_on_c, 13, 68, 82
1, 31824, Note_on_c, 15, 61, 79
1, 31824, Note_on_c, 15, 71, 77
1, 31825, Note_on_c, 13, 85, 0
1, 31825, Note_on_c, 13, 73, 0
1, 31825, Note_on_c, 9, 42, 83
1, 31827, Note_on_c, 9, 39, 0
1, 31828, Note_on_c, 9, 36, 0
1, 31828, Note_on_c, 9, 81, 0
1, 31829, Note_on_c, 9, 42, 0
1, 31831, Note_on_c, 15, 80, 0
1, 31843, Note_on_c, 14, 51, 0
1, 31848, Note_on_c, 15, 83, 75
1, 31848, Note_on_c, 15, 56, 75
1, 31850, Note_on_c, 15, 61, 0
1, 31851, Note_on_c, 2, 64, 0
1, 31860, Note_on_c, 15, 71, 0
1, 31864, Note_on_c, 0, 56, 0
1, 31866, Note_on_c, 1, 44, 0
1, 31866, Note_on_c, 11, 44, 0
1, 31866, Note_on_c, 10, 44, 0
1, 31869, Note_on_c, 15, 56, 0
1, 31871, Note_on_c, 13, 80, 0
1, 31871, Note_on_c, 13, 68, 0
1, 31871, Note_on_c, 0, 57, 54
1, 31871, Lyric_t, "mine, "
1, 31871, Lyric_t, "\015"
1, 31871, Lyric_t, "\012"
1, 31872, Note_on_c, 1, 42, 92
1, 31872, Note_on_c, 3, 64, 97
1, 31872, Note_on_c, 8, 54, 102
1, 31872, Note_on_c, 9, 36, 103
1, 31872, Note_on_c, 9, 49, 36
1, 31872, Note_on_c, 9, 81, 27
1, 31872, Note_on_c, 9, 42, 84
1, 31872, Note_on_c, 9, 84, 22
1, 31872, Note_on_c, 10, 42, 54
1, 31872, Note_on_c, 11, 42, 66
1, 31872, Note_on_c, 13, 81, 78
1, 31872, Note_on_c, 13, 69, 81
1, 31872, Note_on_c, 15, 54, 77
1, 31875, Note_on_c, 15, 83, 0
1, 31876, Note_on_c, 9, 84, 0
1, 31876, Note_on_c, 9, 81, 0
1, 31876, Note_on_c, 9, 42, 0
1, 31876, Note_on_c, 9, 49, 0
1, 31876, Note_on_c, 9, 36, 0
1, 31896, Note_on_c, 15, 57, 78
1, 31902, Note_on_c, 3, 66, 67
1, 31908, Note_on_c, 3, 64, 0
1, 31910, Note_on_c, 10, 42, 0
1, 31910, Note_on_c, 11, 42, 0
1, 31910, Note_on_c, 1, 42, 0
1, 31917, Note_on_c, 15, 57, 0
1, 31919, Note_on_c, 9, 81, 27
1, 31919, Note_on_c, 14, 54, 78
1, 31920, Note_on_c, 3, 68, 95
1, 31920, Note_on_c, 9, 42, 81
1, 31920, Note_on_c, 15, 61, 72
1, 31923, Note_on_c, 9, 81, 0
1, 31924, Note_on_c, 9, 42, 0
1, 31927, Note_on_c, 3, 66, 0
1, 31931, Note_on_c, 14, 54, 0
1, 31944, Note_on_c, 15, 64, 76
1, 31948, Note_on_c, 15, 61, 0
1, 31953, Note_on_c, 3, 68, 0
1, 31953, Note_on_c, 3, 66, 71
1, 31967, Note_on_c, 6, 49, 76
1, 31967, Note_on_c, 9, 81, 22
1, 31968, Note_on_c, 15, 64, 0
1, 31968, Note_on_c, 1, 42, 87
1, 31968, Note_on_c, 3, 68, 103
1, 31968, Note_on_c, 9, 36, 96
1, 31968, Note_on_c, 9, 37, 73
1, 31968, Note_on_c, 9, 40, 100
1, 31968, Note_on_c, 9, 69, 101
1, 31968, Note_on_c, 9, 84, 17
1, 31968, Note_on_c, 10, 42, 62
1, 31968, Note_on_c, 11, 42, 59
1, 31968, Note_on_c, 15, 68, 75
1, 31969, Note_on_c, 9, 39, 55
1, 31971, Note_on_c, 9, 81, 0
1, 31972, Note_on_c, 9, 36, 0
1, 31972, Note_on_c, 9, 84, 0
1, 31972, Note_on_c, 9, 37, 0
1, 31972, Note_on_c, 3, 66, 0
1, 31972, Note_on_c, 9, 69, 0
1, 31972, Note_on_c, 9, 40, 0
1, 31973, Note_on_c, 9, 39, 0
1, 31988, Note_on_c, 3, 68, 0
1, 31991, Note_on_c, 6, 49, 0
1, 31991, Note_on_c, 3, 71, 101
1, 31991, Note_on_c, 9, 81, 28
1, 31992, Note_on_c, 9, 42, 83
1, 31992, Note_on_c, 9, 69, 94
1, 31992, Note_on_c, 15, 64, 75
1, 31995, Note_on_c, 9, 81, 0
1, 31995, Note_on_c, 15, 68, 0
1, 31996, Note_on_c, 9, 69, 0
1, 31996, Note_on_c, 9, 42, 0
1, 32000, Note_on_c, 11, 42, 0
1, 32000, Note_on_c, 10, 42, 0
1, 32000, Note_on_c, 1, 42, 0
1, 32003, Note_on_c, 8, 54, 0
1, 32015, Note_on_c, 9, 81, 24
1, 32015, Note_on_c, 14, 56, 78
1, 32016, Note_on_c, 5, 90, 80
1, 32016, Note_on_c, 6, 47, 77
1, 32016, Note_on_c, 8, 57, 95
1, 32016, Note_on_c, 9, 39, 30
1, 32016, Note_on_c, 9, 69, 92
1, 32017, Note_on_c, 15, 57, 79
1, 32018, Note_on_c, 15, 64, 0
1, 32018, Control_c, 3, 1, 3
1, 32019, Note_on_c, 9, 81, 0
1, 32019, Control_c, 3, 1, 25
1, 32020, Note_on_c, 9, 69, 0
1, 32020, Note_on_c, 9, 39, 0
1, 32023, Control_c, 3, 1, 34
1, 32024, Note_on_c, 0, 57, 0
1, 32028, Control_c, 3, 1, 36
1, 32029, Note_on_c, 14, 56, 0
1, 32033, Note_on_c, 5, 90, 0
1, 32033, Note_on_c, 3, 71, 0
1, 32035, Note_on_c, 15, 57, 0
1, 32038, Control_c, 3, 1, 33
1, 32039, Note_on_c, 15, 61, 75
1, 32040, Note_on_c, 6, 47, 0
1, 32040, Note_on_c, 9, 69, 99
1, 32041, Control_c, 3, 1, 18
1, 32044, Note_on_c, 9, 69, 0
1, 32046, Note_on_c, 8, 57, 0
1, 32046, Control_c, 3, 1, 0
1, 32047, Note_on_c, 5, 92, 76
1, 32050, Note_on_c, 15, 54, 0
1, 32055, Note_on_c, 15, 61, 0
1, 32063, Note_on_c, 0, 64, 55
1, 32063, Note_on_c, 9, 84, 17
1, 32063, Lyric_t, "I'm "
1, 32064, Note_on_c, 1, 42, 86
1, 32064, Note_on_c, 3, 64, 99
1, 32064, Note_on_c, 5, 93, 74
1, 32064, Note_on_c, 6, 49, 78
1, 32064, Note_on_c, 8, 54, 96
1, 32064, Note_on_c, 9, 36, 97
1, 32064, Note_on_c, 9, 42, 75
1, 32064, Note_on_c, 9, 69, 92
1, 32064, Note_on_c, 9, 81, 22
1, 32064, Note_on_c, 10, 42, 61
1, 32064, Note_on_c, 11, 42, 67
1, 32064, Note_on_c, 12, 64, 68
1, 32064, Note_on_c, 15, 54, 80
1, 32067, Note_on_c, 9, 84, 0
1, 32068, Note_on_c, 9, 36, 0
1, 32068, Note_on_c, 5, 92, 0
1, 32068, Note_on_c, 9, 81, 0
1, 32068, Note_on_c, 9, 42, 0
1, 32068, Note_on_c, 9, 69, 0
1, 32083, Note_on_c, 5, 93, 0
1, 32088, Note_on_c, 9, 42, 54
1, 32088, Note_on_c, 9, 81, 30
1, 32088, Note_on_c, 15, 69, 78
1, 32091, Note_on_c, 3, 64, 0
1, 32092, Note_on_c, 8, 54, 0
1, 32092, Note_on_c, 9, 81, 0
1, 32092, Note_on_c, 9, 42, 0
1, 32094, Note_on_c, 11, 42, 0
1, 32094, Note_on_c, 6, 49, 0
1, 32094, Note_on_c, 1, 42, 0
1, 32094, Note_on_c, 10, 42, 0
1, 32097, Note_on_c, 3, 66, 71
1, 32107, Note_on_c, 12, 64, 0
1, 32111, Note_on_c, 3, 68, 100
1, 32111, Note_on_c, 14, 57, 78
1, 32111, Lyric_t, "sor"
1, 32112, Note_on_c, 0, 64, 0
1, 32112, Note_on_c, 3, 66, 0
1, 32112, Note_on_c, 0, 63, 49
1, 32112, Note_on_c, 5, 90, 69
1, 32112, Note_on_c, 8, 57, 100
1, 32112, Note_on_c, 9, 81, 27
1, 32112, Note_on_c, 12, 63, 75
1, 32112, Note_on_c, 15, 57, 79
1, 32113, Note_on_c, 15, 69, 0
1, 32116, Note_on_c, 9, 81, 0
1, 32126, Note_on_c, 14, 57, 0
1, 32130, Note_on_c, 15, 57, 0
1, 32131, Note_on_c, 5, 90, 0
1, 32136, Note_on_c, 9, 42, 75
1, 32136, Note_on_c, 9, 81, 25
1, 32136, Note_on_c, 15, 64, 78
1, 32140, Note_on_c, 9, 81, 0
1, 32140, Note_on_c, 9, 42, 0
1, 32143, Note_on_c, 5, 92, 66
1, 32156, Note_on_c, 3, 68, 0
1, 32157, Note_on_c, 12, 63, 0
1, 32159, Note_on_c, 0, 63, 0
1, 32159, Note_on_c, 3, 73, 95
1, 32159, Note_on_c, 9, 84, 15
1, 32159, Lyric_t, "ry "
1, 32160, Tempo, 645161
1, 32160, Note_on_c, 0, 61, 54
1, 32160, Note_on_c, 1, 42, 91
1, 32160, Pitch_bend_c, 3, 3620
1, 32160, Note_on_c, 5, 93, 64
1, 32160, Note_on_c, 9, 36, 102
1, 32160, Note_on_c, 9, 37, 73
1, 32160, Note_on_c, 9, 40, 104
1, 32160, Note_on_c, 9, 39, 53
1, 32160, Note_on_c, 10, 42, 53
1, 32160, Note_on_c, 11, 42, 60
1, 32160, Note_on_c, 15, 61, 76
1, 32160, Note_on_c, 15, 57, 77
1, 32161, Note_on_c, 15, 64, 0
1, 32161, Note_on_c, 12, 64, 75
1, 32163, Note_on_c, 9, 84, 0
1, 32164, Note_on_c, 5, 92, 0
1, 32164, Note_on_c, 9, 39, 0
1, 32164, Note_on_c, 9, 36, 0
1, 32164, Note_on_c, 9, 40, 0
1, 32164, Note_on_c, 9, 37, 0
1, 32164, Pitch_bend_c, 3, 4709
1, 32168, Pitch_bend_c, 3, 5798
1, 32172, Pitch_bend_c, 3, 6887
1, 32176, Pitch_bend_c, 3, 8192
1, 32179, Note_on_c, 15, 57, 0
1, 32179, Note_on_c, 5, 93, 0
1, 32184, Note_on_c, 15, 57, 75
1, 32185, Note_on_c, 15, 61, 0
1, 32187, Note_on_c, 3, 73, 0
1, 32193, Note_on_c, 3, 71, 83
1, 32194, Note_on_c, 11, 42, 0
1, 32194, Note_on_c, 1, 42, 0
1, 32194, Note_on_c, 10, 42, 0
1, 32204, Note_on_c, 12, 64, 0
1, 32206, Note_on_c, 15, 57, 0
1, 32207, Note_on_c, 3, 68, 59
1, 32207, Note_on_c, 9, 39, 28
1, 32207, Note_on_c, 14, 56, 85
1, 32207, Lyric_t, "that "
1, 32208, Note_on_c, 0, 59, 55
1, 32208, Note_on_c, 5, 90, 58
1, 32208, Note_on_c, 9, 42, 78
1, 32208, Note_on_c, 9, 81, 30
1, 32208, Note_on_c, 15, 61, 73
1, 32208, Note_on_c, 15, 57, 76
1, 32209, Note_on_c, 12, 64, 66
1, 32211, Note_on_c, 9, 39, 0
1, 32211, Note_on_c, 0, 61, 0
1, 32212, Note_on_c, 3, 71, 0
1, 32212, Note_on_c, 9, 81, 0
1, 32212, Note_on_c, 9, 42, 0
1, 32213, Note_on_c, 8, 57, 0
1, 32223, Note_on_c, 14, 56, 0
1, 32224, Note_on_c, 15, 54, 0
1, 32225, Note_on_c, 15, 57, 0
1, 32227, Note_on_c, 5, 90, 0
1, 32231, Note_on_c, 3, 66, 99
1, 32232, Note_on_c, 8, 54, 98
1, 32232, Note_on_c, 15, 54, 76
1, 32233, Note_on_c, 15, 61, 0
1, 32237, Note_on_c, 3, 68, 0
1, 32239, Note_on_c, 5, 92, 55
1, 32253, Note_on_c, 8, 54, 0
1, 32254, Note_on_c, 12, 64, 0
1, 32255, Note_on_c, 0, 61, 49
1, 32255, Lyric_t, "you "
1, 32255, Lyric_t, "\015"
1, 32256, Note_on_c, 15, 54, 0
1, 32256, Note_on_c, 1, 42, 94
1, 32256, Note_on_c, 5, 93, 53
1, 32256, Note_on_c, 7, 42, 87
1, 32256, Note_on_c, 8, 54, 99
1, 32256, Note_on_c, 9, 36, 100
1, 32256, Note_on_c, 9, 81, 24
1, 32256, Note_on_c, 10, 42, 53
1, 32256, Note_on_c, 11, 42, 68
1, 32256, Note_on_c, 15, 66, 72
1, 32257, Note_on_c, 12, 66, 70
1, 32258, Control_c, 3, 1, 15
1, 32260, Note_on_c, 9, 81, 0
1, 32260, Note_on_c, 9, 36, 0
1, 32261, Note_on_c, 0, 59, 0
1, 32262, Control_c, 3, 1, 29
1, 32264, Note_on_c, 5, 92, 0
1, 32266, Control_c, 3, 1, 39
1, 32271, Control_c, 3, 1, 42
1, 32276, Control_c, 3, 1, 44
1, 32279, Note_on_c, 15, 57, 78
1, 32282, Control_c, 3, 1, 45
1, 32285, Note_on_c, 5, 93, 0
1, 32294, Note_on_c, 10, 42, 0
1, 32294, Note_on_c, 1, 42, 0
1, 32294, Note_on_c, 11, 42, 0
1, 32298, Note_on_c, 15, 57, 0
1, 32303, Note_on_c, 9, 81, 24
1, 32303, Note_on_c, 14, 54, 81
1, 32303, Note_on_c, 15, 61, 76
1, 32307, Note_on_c, 9, 81, 0
1, 32316, Note_on_c, 14, 54, 0
1, 32317, Control_c, 3, 1, 44
1, 32321, Control_c, 3, 1, 42
1, 32325, Control_c, 3, 1, 38
1, 32326, Note_on_c, 7, 42, 0
1, 32327, Note_on_c, 15, 57, 78
1, 32328, Note_on_c, 3, 66, 0
1, 32328, Note_on_c, 7, 42, 71
1, 32328, Note_on_c, 9, 42, 82
1, 32329, Control_c, 3, 1, 20
1, 32332, Note_on_c, 9, 42, 0
1, 32335, Control_c, 3, 1, 0
1, 32343, Note_on_c, 13, 69, 0
1, 32343, Note_on_c, 13, 81, 0
1, 32347, Note_on_c, 15, 57, 0
1, 32348, Note_on_c, 15, 61, 0
1, 32351, Note_on_c, 7, 42, 0
1, 32351, Note_on_c, 6, 49, 81
1, 32351, Note_on_c, 9, 42, 75
1, 32351, Note_on_c, 9, 69, 101
1, 32351, Note_on_c, 9, 81, 22
1, 32351, Note_on_c, 13, 83, 83
1, 32351, Note_on_c, 13, 71, 84
1, 32351, Note_on_c, 15, 57, 73
1, 32351, Note_on_c, 15, 64, 72
1, 32352, Note_on_c, 1, 42, 87
1, 32352, Note_on_c, 9, 36, 100
1, 32352, Note_on_c, 9, 37, 77
1, 32352, Note_on_c, 9, 40, 96
1, 32352, Note_on_c, 10, 42, 55
1, 32352, Note_on_c, 11, 42, 67
1, 32353, Note_on_c, 3, 68, 96
1, 32353, Note_on_c, 9, 39, 58
1, 32355, Note_on_c, 9, 81, 0
1, 32355, Note_on_c, 9, 69, 0
1, 32355, Note_on_c, 9, 42, 0
1, 32356, Note_on_c, 9, 40, 0
1, 32356, Note_on_c, 9, 37, 0
1, 32356, Note_on_c, 9, 36, 0
1, 32357, Note_on_c, 9, 39, 0
1, 32365, Note_on_c, 15, 57, 0
1, 32370, Note_on_c, 15, 64, 0
1, 32370, Note_on_c, 15, 66, 0
1, 32375, Note_on_c, 9, 81, 30
1, 32376, Note_on_c, 6, 49, 0
1, 32376, Note_on_c, 15, 68, 73
1, 32377, Note_on_c, 3, 68, 0
1, 32379, Note_on_c, 9, 81, 0
1, 32382, Note_on_c, 3, 66, 55
1, 32384, Note_on_c, 10, 42, 0
1, 32384, Note_on_c, 11, 42, 0
1, 32384, Note_on_c, 1, 42, 0
1, 32389, Note_on_c, 8, 54, 0
1, 32391, Note_on_c, 12, 66, 0
1, 32397, Note_on_c, 15, 68, 0
1, 32399, Note_on_c, 8, 57, 100
1, 32399, Note_on_c, 9, 69, 101
1, 32399, Note_on_c, 9, 81, 29
1, 32399, Note_on_c, 9, 42, 83
1, 32399, Note_on_c, 13, 85, 82
1, 32399, Note_on_c, 13, 73, 81
1, 32399, Note_on_c, 14, 56, 80
1, 32400, Note_on_c, 6, 47, 81
1, 32400, Note_on_c, 7, 42, 70
1, 32400, Note_on_c, 9, 39, 26
1, 32400, Note_on_c, 15, 57, 80
1, 32401, Note_on_c, 3, 66, 0
1, 32402, Note_on_c, 13, 83, 0
1, 32402, Note_on_c, 13, 71, 0
1, 32402, Note_on_c, 3, 68, 96
1, 32403, Note_on_c, 9, 42, 0
1, 32403, Note_on_c, 9, 69, 0
1, 32403, Note_on_c, 9, 81, 0
1, 32404, Note_on_c, 9, 39, 0
1, 32415, Note_on_c, 0, 61, 0
1, 32415, Note_on_c, 14, 56, 0
1, 32416, Note_on_c, 15, 57, 0
1, 32418, Note_on_c, 3, 68, 0
1, 32419, Note_on_c, 8, 57, 0
1, 32421, Note_on_c, 7, 42, 0
1, 32422, Note_on_c, 6, 47, 0
1, 32422, Note_on_c, 3, 66, 100
1, 32423, Note_on_c, 15, 69, 77
1, 32432, Note_on_c, 9, 40, 74
1, 32436, Note_on_c, 9, 40, 0
1, 32442, Note_on_c, 15, 69, 0
1, 32444, Note_on_c, 3, 66, 0
1, 32446, Note_on_c, 13, 85, 0
1, 32446, Note_on_c, 13, 73, 0
1, 32447, Note_on_c, 0, 66, 47
1, 32447, Note_on_c, 8, 57, 96
1, 32447, Note_on_c, 9, 42, 83
1, 32447, Note_on_c, 13, 87, 83
1, 32447, Note_on_c, 13, 75, 80
1, 32447, Lyric_t, "seem "
1, 32448, Note_on_c, 1, 42, 86
1, 32448, Note_on_c, 6, 49, 77
1, 32448, Note_on_c, 9, 36, 104
1, 32448, Note_on_c, 9, 81, 31
1, 32448, Note_on_c, 10, 42, 62
1, 32448, Note_on_c, 11, 42, 67
1, 32448, Note_on_c, 15, 57, 73
1, 32449, Note_on_c, 3, 68, 100
1, 32449, Note_on_c, 12, 66, 72
1, 32451, Note_on_c, 9, 42, 0
1, 32452, Note_on_c, 9, 81, 0
1, 32452, Note_on_c, 9, 36, 0
1, 32467, Note_on_c, 15, 57, 0
1, 32467, Note_on_c, 8, 57, 0
1, 32470, Note_on_c, 3, 66, 98
1, 32471, Note_on_c, 3, 68, 0
1, 32472, Note_on_c, 9, 42, 52
1, 32472, Note_on_c, 9, 81, 31
1, 32472, Note_on_c, 15, 64, 76
1, 32476, Note_on_c, 9, 81, 0
1, 32476, Note_on_c, 9, 42, 0
1, 32477, Note_on_c, 6, 49, 0
1, 32478, Note_on_c, 11, 42, 0
1, 32478, Note_on_c, 1, 42, 0
1, 32478, Note_on_c, 10, 42, 0
1, 32487, Note_on_c, 3, 66, 0
1, 32490, Note_on_c, 15, 64, 0
1, 32493, Note_on_c, 3, 61, 71
1, 32493, Lyric_t, "to "
1, 32495, Note_on_c, 13, 87, 0
1, 32495, Note_on_c, 13, 75, 0
1, 32495, Note_on_c, 8, 57, 101
1, 32495, Note_on_c, 9, 69, 100
1, 32495, Note_on_c, 13, 85, 85
1, 32495, Note_on_c, 13, 73, 81
1, 32495, Note_on_c, 14, 57, 79
1, 32495, Note_on_c, 15, 57, 79
1, 32496, Note_on_c, 0, 64, 54
1, 32496, Note_on_c, 7, 42, 69
1, 32496, Note_on_c, 9, 81, 23
1, 32498, Note_on_c, 12, 64, 68
1, 32499, Note_on_c, 9, 69, 0
1, 32500, Note_on_c, 9, 81, 0
1, 32504, Note_on_c, 12, 66, 0
1, 32507, Note_on_c, 7, 42, 0
1, 32509, Note_on_c, 0, 66, 0
1, 32511, Note_on_c, 14, 57, 0
1, 32513, Note_on_c, 15, 57, 0
1, 32514, Note_on_c, 8, 57, 0
1, 32518, Note_on_c, 3, 59, 101
1, 32520, Note_on_c, 9, 81, 25
1, 32520, Note_on_c, 15, 61, 81
1, 32522, Note_on_c, 3, 61, 0
1, 32524, Note_on_c, 9, 81, 0
1, 32540, Note_on_c, 15, 61, 0
1, 32542, Note_on_c, 12, 64, 0
1, 32543, Note_on_c, 8, 54, 98
1, 32543, Note_on_c, 13, 83, 80
1, 32543, Note_on_c, 13, 71, 83
1, 32543, Note_on_c, 15, 54, 72
1, 32544, Note_on_c, 13, 85, 0
1, 32544, Note_on_c, 13, 73, 0
1, 32544, Note_on_c, 0, 63, 52
1, 32544, Note_on_c, 1, 44, 85
1, 32544, Note_on_c, 9, 36, 102
1, 32544, Note_on_c, 9, 37, 77
1, 32544, Note_on_c, 9, 40, 97
1, 32544, Note_on_c, 9, 39, 54
1, 32544, Note_on_c, 10, 44, 53
1, 32544, Note_on_c, 11, 44, 64
1, 32544, Lyric_t, "be "
1, 32545, Note_on_c, 12, 63, 68
1, 32548, Note_on_c, 9, 39, 0
1, 32548, Note_on_c, 9, 37, 0
1, 32548, Note_on_c, 9, 36, 0
1, 32548, Note_on_c, 0, 64, 0
1, 32548, Note_on_c, 9, 40, 0
1, 32553, Control_c, 3, 1, 2
1, 32554, Control_c, 3, 1, 22
1, 32559, Control_c, 3, 1, 43
1, 32564, Control_c, 3, 1, 52
1, 32567, Note_on_c, 15, 61, 75
1, 32568, Control_c, 3, 1, 55
1, 32574, Control_c, 3, 1, 56
1, 32580, Control_c, 3, 1, 55
1, 32585, Control_c, 3, 1, 54
1, 32588, Note_on_c, 1, 44, 0
1, 32588, Note_on_c, 10, 44, 0
1, 32588, Note_on_c, 11, 44, 0
1, 32589, Control_c, 3, 1, 53
1, 32590, Note_on_c, 15, 61, 0
1, 32590, Note_on_c, 15, 64, 76
1, 32591, Note_on_c, 15, 54, 0
1, 32591, Note_on_c, 9, 39, 24
1, 32591, Note_on_c, 14, 56, 80
1, 32592, Note_on_c, 0, 61, 51
1, 32592, Note_on_c, 1, 39, 91
1, 32592, Note_on_c, 9, 36, 96
1, 32592, Note_on_c, 9, 81, 24
1, 32592, Note_on_c, 11, 39, 65
1, 32592, Note_on_c, 13, 78, 76
1, 32592, Note_on_c, 13, 66, 80
1, 32592, Lyric_t, "con"
1, 32593, Note_on_c, 13, 83, 0
1, 32593, Note_on_c, 13, 71, 0
1, 32593, Note_on_c, 9, 42, 78
1, 32594, Note_on_c, 0, 63, 0
1, 32594, Note_on_c, 10, 39, 61
1, 32594, Note_on_c, 12, 66, 69
1, 32595, Note_on_c, 9, 39, 0
1, 32596, Note_on_c, 9, 81, 0
1, 32596, Note_on_c, 9, 36, 0
1, 32597, Note_on_c, 9, 42, 0
1, 32598, Note_on_c, 12, 63, 0
1, 32604, Note_on_c, 14, 56, 0
1, 32604, Control_c, 3, 1, 51
1, 32609, Control_c, 3, 1, 50
1, 32613, Control_c, 3, 1, 45
1, 32615, Note_on_c, 15, 64, 0
1, 32615, Note_on_c, 15, 68, 78
1, 32617, Control_c, 3, 1, 37
1, 32622, Control_c, 3, 1, 18
1, 32626, Control_c, 3, 1, 1
1, 32628, Note_on_c, 8, 54, 0
1, 32632, Note_on_c, 15, 68, 0
1, 32634, Note_on_c, 1, 39, 0
1, 32634, Note_on_c, 11, 39, 0
1, 32636, Note_on_c, 10, 39, 0
1, 32636, Note_on_c, 3, 59, 0
1, 32638, Note_on_c, 13, 78, 0
1, 32638, Note_on_c, 13, 66, 0
1, 32639, Note_on_c, 13, 80, 80
1, 32639, Note_on_c, 13, 68, 83
1, 32640, Note_on_c, 0, 63, 47
1, 32640, Note_on_c, 1, 37, 93
1, 32640, Note_on_c, 2, 68, 102
1, 32640, Note_on_c, 9, 36, 96
1, 32640, Note_on_c, 9, 49, 27
1, 32640, Note_on_c, 9, 81, 26
1, 32640, Note_on_c, 9, 42, 78
1, 32640, Note_on_c, 9, 84, 16
1, 32640, Note_on_c, 10, 37, 58
1, 32640, Note_on_c, 11, 37, 64
1, 32640, Note_on_c, 15, 49, 80
1, 32640, Lyric_t, "fused, "
1, 32640, Lyric_t, "\015"
1, 32640, Lyric_t, "\012"
1, 32642, Note_on_c, 12, 66, 0
1, 32642, Note_on_c, 12, 68, 66
1, 32644, Note_on_c, 9, 42, 0
1, 32644, Note_on_c, 9, 36, 0
1, 32644, Note_on_c, 9, 81, 0
1, 32644, Note_on_c, 9, 49, 0
1, 32644, Note_on_c, 9, 84, 0
1, 32646, Note_on_c, 0, 61, 0
1, 32663, Note_on_c, 15, 56, 78
1, 32664, Note_on_c, 8, 56, 96
1, 32674, Note_on_c, 2, 68, 0
1, 32678, Note_on_c, 8, 56, 0
1, 32684, Note_on_c, 15, 56, 0
1, 32687, Note_on_c, 2, 71, 103
1, 32687, Note_on_c, 9, 81, 24
1, 32687, Note_on_c, 14, 49, 78
1, 32687, Note_on_c, 15, 59, 73
1, 32688, Note_on_c, 9, 42, 78
1, 32691, Note_on_c, 9, 81, 0
1, 32692, Note_on_c, 9, 42, 0
1, 32693, Note_on_c, 1, 37, 0
1, 32693, Note_on_c, 10, 37, 0
1, 32693, Note_on_c, 11, 37, 0
1, 32703, Note_on_c, 14, 49, 0
1, 32709, Note_on_c, 2, 71, 0
1, 32711, Note_on_c, 15, 56, 78
1, 32712, Note_on_c, 2, 68, 59
1, 32712, Note_on_c, 8, 56, 96
1, 32715, Note_on_c, 15, 59, 0
1, 32729, Note_on_c, 8, 56, 0
1, 32732, Note_on_c, 2, 68, 0
1, 32732, Note_on_c, 15, 56, 0
1, 32735, Note_on_c, 6, 49, 72
1, 32735, Note_on_c, 9, 81, 24
1, 32735, Note_on_c, 15, 63, 73
1, 32736, Note_on_c, 1, 37, 94
1, 32736, Note_on_c, 9, 36, 101
1, 32736, Note_on_c, 9, 37, 78
1, 32736, Note_on_c, 9, 40, 97
1, 32736, Note_on_c, 9, 69, 95
1, 32736, Note_on_c, 9, 84, 18
1, 32736, Note_on_c, 10, 37, 62
1, 32736, Note_on_c, 11, 37, 64
1, 32737, Note_on_c, 9, 39, 51
1, 32739, Note_on_c, 9, 81, 0
1, 32740, Note_on_c, 9, 37, 0
1, 32740, Note_on_c, 9, 36, 0
1, 32740, Note_on_c, 9, 84, 0
1, 32740, Note_on_c, 9, 40, 0
1, 32740, Note_on_c, 9, 69, 0
1, 32741, Note_on_c, 9, 39, 0
1, 32757, Note_on_c, 15, 63, 0
1, 32759, Note_on_c, 6, 49, 0
1, 32759, Note_on_c, 8, 56, 103
1, 32759, Note_on_c, 9, 81, 28
1, 32759, Note_on_c, 15, 56, 73
1, 32760, Note_on_c, 9, 42, 79
1, 32760, Note_on_c, 9, 69, 97
1, 32763, Note_on_c, 9, 81, 0
1, 32763, Note_on_c, 2, 68, 101
1, 32764, Note_on_c, 9, 69, 0
1, 32764, Note_on_c, 9, 42, 0
1, 32766, Note_on_c, 11, 37, 0
1, 32766, Note_on_c, 1, 37, 0
1, 32766, Note_on_c, 10, 37, 0
1, 32777, Note_on_c, 8, 56, 0
1, 32780, Note_on_c, 15, 56, 0
1, 32783, Note_on_c, 9, 81, 25
1, 32783, Note_on_c, 14, 51, 77
1, 32783, Note_on_c, 15, 59, 73
1, 32784, Note_on_c, 2, 68, 0
1, 32784, Note_on_c, 5, 88, 82
1, 32784, Note_on_c, 6, 47, 81
1, 32784, Note_on_c, 9, 39, 29
1, 32784, Note_on_c, 9, 69, 101
1, 32786, Note_on_c, 12, 68, 0
1, 32787, Note_on_c, 9, 81, 0
1, 32788, Note_on_c, 9, 39, 0
1, 32788, Note_on_c, 9, 69, 0
1, 32802, Note_on_c, 5, 88, 0
1, 32805, Note_on_c, 14, 51, 0
1, 32807, Note_on_c, 15, 59, 0
1, 32807, Note_on_c, 8, 56, 99
1, 32807, Note_on_c, 15, 56, 72
1, 32808, Note_on_c, 6, 47, 0
1, 32808, Note_on_c, 0, 63, 0
1, 32808, Note_on_c, 9, 69, 97
1, 32812, Note_on_c, 9, 69, 0
1, 32816, Note_on_c, 2, 68, 97
1, 32816, Note_on_c, 5, 90, 78
1, 32826, Note_on_c, 8, 56, 0
1, 32831, Note_on_c, 0, 64, 54
1, 32831, Note_on_c, 1, 37, 90
1, 32831, Note_on_c, 5, 92, 76
1, 32831, Note_on_c, 9, 36, 96
1, 32831, Note_on_c, 9, 84, 18
1, 32831, Note_on_c, 10, 37, 60
1, 32831, Note_on_c, 11, 37, 63
1, 32831, Note_on_c, 15, 63, 81
1, 32831, Lyric_t, "He "
1, 32832, Note_on_c, 15, 56, 0
1, 32832, Note_on_c, 6, 49, 81
1, 32832, Note_on_c, 9, 42, 77
1, 32832, Note_on_c, 9, 69, 92
1, 32832, Note_on_c, 9, 81, 22
1, 32833, Note_on_c, 5, 90, 0
1, 32833, Note_on_c, 12, 64, 71
1, 32835, Note_on_c, 9, 84, 0
1, 32835, Note_on_c, 9, 36, 0
1, 32836, Note_on_c, 9, 81, 0
1, 32836, Note_on_c, 9, 69, 0
1, 32836, Note_on_c, 9, 42, 0
1, 32846, Note_on_c, 5, 92, 0
1, 32846, Control_c, 2, 1, 5
1, 32847, Control_c, 2, 1, 28
1, 32850, Note_on_c, 15, 63, 0
1, 32851, Control_c, 2, 1, 46
1, 32855, Note_on_c, 8, 56, 96
1, 32855, Note_on_c, 15, 56, 76
1, 32856, Control_c, 2, 1, 51
1, 32856, Note_on_c, 9, 42, 55
1, 32856, Note_on_c, 9, 81, 23
1, 32860, Note_on_c, 9, 81, 0
1, 32860, Note_on_c, 9, 42, 0
1, 32861, Control_c, 2, 1, 53
1, 32862, Note_on_c, 6, 49, 0
1, 32868, Note_on_c, 1, 37, 0
1, 32868, Note_on_c, 10, 37, 0
1, 32868, Note_on_c, 11, 37, 0
1, 32869, Note_on_c, 15, 56, 0
1, 32869, Control_c, 2, 1, 55
1, 32874, Note_on_c, 8, 56, 0
1, 32875, Control_c, 2, 1, 57
1, 32878, Note_on_c, 12, 64, 0
1, 32879, Control_c, 2, 1, 60
1, 32879, Note_on_c, 14, 52, 77
1, 32879, Note_on_c, 15, 56, 79
1, 32879, Note_on_c, 15, 61, 77
1, 32880, Note_on_c, 0, 63, 47
1, 32880, Note_on_c, 5, 88, 70
1, 32880, Note_on_c, 9, 81, 24
1, 32880, Lyric_t, "be"
1, 32881, Note_on_c, 12, 63, 70
1, 32882, Note_on_c, 0, 64, 0
1, 32883, Control_c, 2, 1, 62
1, 32884, Note_on_c, 9, 81, 0
1, 32890, Note_on_c, 15, 61, 0
1, 32893, Note_on_c, 15, 56, 0
1, 32895, Note_on_c, 5, 88, 0
1, 32895, Control_c, 2, 1, 63
1, 32897, Pitch_bend_c, 2, 9102
1, 32899, Pitch_bend_c, 2, 10532
1, 32900, Note_on_c, 14, 52, 0
1, 32901, Control_c, 2, 1, 59
1, 32903, Pitch_bend_c, 2, 11702
1, 32903, Note_on_c, 15, 56, 77
1, 32903, Note_on_c, 15, 64, 81
1, 32904, Note_on_c, 8, 56, 101
1, 32904, Note_on_c, 9, 42, 84
1, 32904, Note_on_c, 9, 81, 30
1, 32906, Control_c, 2, 1, 52
1, 32907, Pitch_bend_c, 2, 12352
1, 32908, Note_on_c, 9, 81, 0
1, 32908, Note_on_c, 9, 42, 0
1, 32910, Control_c, 2, 1, 38
1, 32910, Pitch_bend_c, 2, 12482
1, 32912, Note_on_c, 5, 90, 66
1, 32913, Pitch_bend_c, 2, 11832
1, 32914, Control_c, 2, 1, 14
1, 32916, Pitch_bend_c, 2, 8192
1, 32917, Note_on_c, 8, 56, 0
1, 32919, Note_on_c, 15, 64, 0
1, 32919, Control_c, 2, 1, 1
1, 32920, Note_on_c, 2, 68, 0
1, 32924, Note_on_c, 0, 63, 0
1, 32925, Note_on_c, 5, 90, 0
1, 32926, Note_on_c, 12, 63, 0
1, 32927, Note_on_c, 2, 66, 101
1, 32927, Note_on_c, 5, 92, 64
1, 32927, Lyric_t, "longs "
1, 32928, Tempo, 645161
1, 32928, Note_on_c, 0, 61, 54
1, 32928, Note_on_c, 1, 37, 93
1, 32928, Note_on_c, 8, 56, 98
1, 32928, Note_on_c, 9, 36, 96
1, 32928, Note_on_c, 9, 37, 80
1, 32928, Note_on_c, 9, 40, 103
1, 32928, Note_on_c, 9, 39, 58
1, 32928, Note_on_c, 9, 84, 14
1, 32928, Note_on_c, 10, 37, 60
1, 32928, Note_on_c, 11, 37, 59
1, 32930, Note_on_c, 12, 61, 66
1, 32931, Note_on_c, 15, 49, 0
1, 32932, Note_on_c, 9, 37, 0
1, 32932, Note_on_c, 9, 36, 0
1, 32932, Note_on_c, 9, 84, 0
1, 32932, Note_on_c, 9, 40, 0
1, 32932, Note_on_c, 9, 39, 0
1, 32941, Note_on_c, 5, 92, 0
1, 32943, Note_on_c, 15, 56, 0
1, 32951, Note_on_c, 15, 66, 75
1, 32954, Note_on_c, 8, 56, 0
1, 32961, Note_on_c, 11, 37, 0
1, 32961, Note_on_c, 1, 37, 0
1, 32961, Note_on_c, 10, 37, 0
1, 32973, Note_on_c, 0, 61, 0
1, 32974, Note_on_c, 12, 61, 0
1, 32975, Note_on_c, 5, 88, 58
1, 32975, Note_on_c, 8, 56, 102
1, 32975, Note_on_c, 9, 39, 24
1, 32975, Note_on_c, 14, 51, 83
1, 32975, Note_on_c, 15, 56, 79
1, 32976, Note_on_c, 0, 59, 50
1, 32976, Note_on_c, 9, 42, 79
1, 32976, Note_on_c, 9, 81, 22
1, 32976, Lyric_t, "to "
1, 32977, Note_on_c, 15, 66, 0
1, 32977, Note_on_c, 12, 59, 75
1, 32978, Note_on_c, 2, 66, 0
1, 32979, Note_on_c, 9, 39, 0
1, 32980, Note_on_c, 9, 42, 0
1, 32980, Note_on_c, 9, 81, 0
1, 32990, Note_on_c, 5, 88, 0
1, 32994, Note_on_c, 14, 51, 0
1, 32998, Note_on_c, 8, 56, 0
1, 33000, Note_on_c, 15, 56, 0
1, 33008, Note_on_c, 5, 90, 54
1, 33018, Note_on_c, 0, 59, 0
1, 33019, Note_on_c, 5, 90, 0
1, 33020, Note_on_c, 12, 59, 0
1, 33021, Note_on_c, 13, 68, 0
1, 33021, Note_on_c, 13, 80, 0
1, 33023, Note_on_c, 0, 61, 48
1, 33023, Note_on_c, 5, 92, 52
1, 33023, Lyric_t, "me, "
1, 33023, Lyric_t, "\015"
1, 33024, Note_on_c, 1, 37, 86
1, 33024, Note_on_c, 2, 68, 98
1, 33024, Note_on_c, 7, 37, 82
1, 33024, Note_on_c, 9, 36, 103
1, 33024, Note_on_c, 9, 81, 26
1, 33024, Note_on_c, 10, 37, 56
1, 33024, Note_on_c, 11, 37, 68
1, 33024, Note_on_c, 12, 64, 67
1, 33024, Note_on_c, 13, 73, 80
1, 33024, Note_on_c, 13, 61, 79
1, 33024, Note_on_c, 15, 59, 77
1, 33028, Note_on_c, 9, 81, 0
1, 33028, Note_on_c, 9, 36, 0
1, 33037, Note_on_c, 5, 92, 0
1, 33046, Note_on_c, 13, 71, 82
1, 33046, Note_on_c, 13, 59, 78
1, 33047, Note_on_c, 15, 64, 76
1, 33048, Note_on_c, 8, 64, 100
1, 33051, Note_on_c, 13, 73, 0
1, 33051, Note_on_c, 13, 61, 0
1, 33057, Note_on_c, 15, 59, 0
1, 33062, Note_on_c, 2, 68, 0
1, 33065, Note_on_c, 8, 64, 0
1, 33069, Note_on_c, 13, 73, 84
1, 33069, Note_on_c, 13, 61, 76
1, 33070, Note_on_c, 13, 71, 0
1, 33070, Note_on_c, 13, 59, 0
1, 33071, Note_on_c, 9, 81, 27
1, 33071, Note_on_c, 14, 49, 82
1, 33072, Note_on_c, 15, 64, 0
1, 33072, Note_on_c, 2, 68, 98
1, 33072, Note_on_c, 15, 59, 80
1, 33075, Note_on_c, 9, 81, 0
1, 33077, Note_on_c, 10, 37, 0
1, 33077, Note_on_c, 11, 37, 0
1, 33077, Note_on_c, 1, 37, 0
1, 33086, Note_on_c, 13, 73, 0
1, 33086, Note_on_c, 13, 61, 0
1, 33089, Note_on_c, 14, 49, 0
1, 33090, Note_on_c, 7, 37, 0
1, 33095, Note_on_c, 15, 61, 76
1, 33096, Note_on_c, 7, 37, 72
1, 33096, Note_on_c, 8, 63, 104
1, 33096, Note_on_c, 9, 42, 76
1, 33096, Note_on_c, 13, 75, 81
1, 33096, Note_on_c, 13, 63, 77
1, 33100, Note_on_c, 9, 42, 0
1, 33106, Note_on_c, 15, 59, 0
1, 33108, Note_on_c, 2, 68, 0
1, 33111, Note_on_c, 13, 75, 0
1, 33111, Note_on_c, 12, 64, 0
1, 33111, Note_on_c, 13, 63, 0
1, 33113, Note_on_c, 8, 63, 0
1, 33114, Note_on_c, 15, 61, 0
1, 33117, Note_on_c, 0, 61, 0
1, 33119, Note_on_c, 6, 49, 77
1, 33119, Note_on_c, 9, 42, 76
1, 33119, Note_on_c, 9, 69, 98
1, 33119, Note_on_c, 9, 81, 24
1, 33119, Note_on_c, 13, 76, 85
1, 33119, Note_on_c, 13, 64, 84
1, 33120, Note_on_c, 0, 56, 56
1, 33120, Note_on_c, 1, 37, 88
1, 33120, Pitch_bend_c, 2, 5522
1, 33120, Note_on_c, 2, 71, 99
1, 33120, Note_on_c, 9, 36, 104
1, 33120, Note_on_c, 9, 37, 73
1, 33120, Note_on_c, 9, 40, 99
1, 33120, Note_on_c, 10, 37, 53
1, 33120, Note_on_c, 11, 37, 60
1, 33120, Note_on_c, 15, 64, 76
1, 33120, Lyric_t, "The "
1, 33121, Note_on_c, 9, 39, 58
1, 33121, Note_on_c, 12, 56, 70
1, 33123, Note_on_c, 9, 81, 0
1, 33123, Note_on_c, 9, 69, 0
1, 33123, Note_on_c, 9, 42, 0
1, 33124, Note_on_c, 9, 36, 0
1, 33124, Note_on_c, 9, 40, 0
1, 33124, Note_on_c, 9, 37, 0
1, 33124, Pitch_bend_c, 2, 6209
1, 33125, Note_on_c, 9, 39, 0
1, 33126, Note_on_c, 7, 37, 0
1, 33128, Pitch_bend_c, 2, 6896
1, 33132, Pitch_bend_c, 2, 7584
1, 33136, Pitch_bend_c, 2, 8192
1, 33142, Note_on_c, 13, 75, 81
1, 33142, Note_on_c, 13, 63, 76
1, 33143, Note_on_c, 9, 81, 29
1, 33143, Note_on_c, 15, 68, 79
1, 33144, Note_on_c, 6, 49, 0
1, 33144, Note_on_c, 8, 63, 103
1, 33147, Note_on_c, 9, 81, 0
1, 33148, Note_on_c, 2, 71, 0
1, 33149, Note_on_c, 13, 76, 0
1, 33149, Note_on_c, 13, 64, 0
1, 33154, Note_on_c, 15, 64, 0
1, 33158, Note_on_c, 11, 37, 0
1, 33158, Note_on_c, 1, 37, 0
1, 33158, Note_on_c, 10, 37, 0
1, 33161, Note_on_c, 8, 63, 0
1, 33166, Note_on_c, 13, 76, 83
1, 33166, Note_on_c, 13, 64, 83
1, 33167, Note_on_c, 2, 68, 95
1, 33167, Note_on_c, 9, 69, 99
1, 33167, Note_on_c, 9, 81, 23
1, 33167, Note_on_c, 9, 42, 82
1, 33167, Note_on_c, 14, 51, 82
1, 33167, Note_on_c, 15, 63, 74
1, 33168, Note_on_c, 6, 47, 79
1, 33168, Note_on_c, 9, 39, 28
1, 33169, Note_on_c, 13, 75, 0
1, 33169, Note_on_c, 13, 63, 0
1, 33171, Note_on_c, 9, 42, 0
1, 33171, Note_on_c, 9, 81, 0
1, 33171, Note_on_c, 9, 69, 0
1, 33172, Note_on_c, 9, 39, 0
1, 33184, Note_on_c, 13, 76, 0
1, 33184, Note_on_c, 13, 64, 0
1, 33189, Note_on_c, 14, 51, 0
1, 33190, Note_on_c, 6, 47, 0
1, 33191, Note_on_c, 13, 78, 76
1, 33191, Note_on_c, 13, 66, 83
1, 33191, Note_on_c, 15, 64, 75
1, 33192, Note_on_c, 8, 64, 96
1, 33197, Note_on_c, 12, 56, 0
1, 33200, Note_on_c, 9, 40, 74
1, 33201, Note_on_c, 2, 68, 0
1, 33204, Note_on_c, 9, 40, 0
1, 33204, Note_on_c, 13, 78, 0
1, 33204, Note_on_c, 13, 66, 0
1, 33207, Note_on_c, 15, 63, 0
1, 33207, Note_on_c, 8, 64, 0
1, 33211, Note_on_c, 0, 56, 0
1, 33212, Note_on_c, 15, 68, 0
1, 33213, Note_on_c, 15, 64, 0
1, 33215, Note_on_c, 1, 37, 89
1, 33215, Note_on_c, 9, 42, 83
1, 33215, Note_on_c, 9, 36, 100
1, 33215, Note_on_c, 10, 37, 60
1, 33215, Note_on_c, 11, 37, 60
1, 33215, Note_on_c, 13, 80, 81
1, 33215, Note_on_c, 13, 68, 80
1, 33215, Note_on_c, 15, 71, 74
1, 33216, Note_on_c, 0, 61, 53
1, 33216, Pitch_bend_c, 2, 4786
1, 33216, Note_on_c, 2, 76, 97
1, 33216, Note_on_c, 6, 49, 78
1, 33216, Note_on_c, 9, 81, 26
1, 33216, Note_on_c, 12, 61, 68
1, 33216, Lyric_t, "boy "
1, 33219, Note_on_c, 9, 36, 0
1, 33219, Note_on_c, 9, 42, 0
1, 33220, Note_on_c, 9, 81, 0
1, 33220, Pitch_bend_c, 2, 5166
1, 33224, Pitch_bend_c, 2, 5546
1, 33228, Pitch_bend_c, 2, 5927
1, 33232, Pitch_bend_c, 2, 6307
1, 33236, Pitch_bend_c, 2, 6688
1, 33239, Note_on_c, 8, 64, 102
1, 33239, Note_on_c, 9, 38, 56
1, 33239, Note_on_c, 13, 78, 84
1, 33239, Note_on_c, 13, 66, 76
1, 33239, Note_on_c, 15, 64, 79
1, 33240, Pitch_bend_c, 2, 7068
1, 33240, Note_on_c, 9, 42, 53
1, 33240, Note_on_c, 9, 81, 26
1, 33241, Note_on_c, 13, 80, 0
1, 33241, Note_on_c, 13, 68, 0
1, 33243, Note_on_c, 9, 38, 0
1, 33244, Note_on_c, 9, 81, 0
1, 33244, Note_on_c, 9, 42, 0
1, 33244, Pitch_bend_c, 2, 7449
1, 33245, Note_on_c, 6, 49, 0
1, 33248, Pitch_bend_c, 2, 7829
1, 33252, Note_on_c, 11, 37, 0
1, 33252, Note_on_c, 1, 37, 0
1, 33252, Note_on_c, 10, 37, 0
1, 33252, Pitch_bend_c, 2, 8192
1, 33259, Note_on_c, 8, 64, 0
1, 33261, Note_on_c, 13, 66, 0
1, 33261, Note_on_c, 2, 76, 0
1, 33261, Note_on_c, 13, 78, 0
1, 33263, Note_on_c, 2, 75, 104
1, 33263, Note_on_c, 3, 68, 95
1, 33263, Note_on_c, 9, 69, 96
1, 33263, Note_on_c, 13, 76, 84
1, 33263, Note_on_c, 13, 64, 85
1, 33263, Note_on_c, 14, 52, 82
1, 33263, Note_on_c, 15, 68, 78
1, 33264, Note_on_c, 7, 37, 69
1, 33264, Note_on_c, 9, 38, 55
1, 33264, Note_on_c, 9, 81, 26
1, 33266, Note_on_c, 15, 71, 0
1, 33266, Note_on_c, 15, 64, 0
1, 33267, Note_on_c, 9, 69, 0
1, 33268, Note_on_c, 9, 38, 0
1, 33268, Note_on_c, 9, 81, 0
1, 33281, Note_on_c, 13, 64, 0
1, 33281, Note_on_c, 13, 76, 0
1, 33281, Note_on_c, 7, 37, 0
1, 33286, Note_on_c, 14, 52, 0
1, 33287, Note_on_c, 13, 78, 76
1, 33287, Note_on_c, 13, 66, 79
1, 33287, Note_on_c, 15, 75, 77
1, 33288, Note_on_c, 9, 38, 58
1, 33288, Note_on_c, 9, 81, 24
1, 33288, Note_on_c, 15, 71, 77
1, 33289, Note_on_c, 15, 68, 0
1, 33290, Control_c, 2, 1, 13
1, 33292, Note_on_c, 9, 81, 0
1, 33292, Note_on_c, 9, 38, 0
1, 33293, Control_c, 2, 1, 36
1, 33297, Control_c, 2, 1, 50
1, 33298, Note_on_c, 12, 61, 0
1, 33300, Note_on_c, 3, 68, 0
1, 33302, Note_on_c, 13, 78, 0
1, 33302, Note_on_c, 13, 66, 0
1, 33302, Control_c, 2, 1, 56
1, 33306, Control_c, 2, 1, 60
1, 33307, Note_on_c, 0, 61, 0
1, 33308, Note_on_c, 15, 71, 0
1, 33310, Control_c, 2, 1, 64
1, 33311, Note_on_c, 3, 66, 103
1, 33311, Note_on_c, 13, 80, 80
1, 33311, Note_on_c, 13, 68, 82
1, 33311, Note_on_c, 15, 71, 81
1, 33311, Lyric_t, "is "
1, 33312, Note_on_c, 0, 56, 53
1, 33312, Note_on_c, 1, 40, 89
1, 33312, Note_on_c, 9, 36, 99
1, 33312, Note_on_c, 9, 38, 50
1, 33312, Note_on_c, 9, 37, 73
1, 33312, Note_on_c, 9, 40, 95
1, 33312, Note_on_c, 9, 39, 53
1, 33312, Note_on_c, 10, 40, 58
1, 33312, Note_on_c, 11, 40, 68
1, 33313, Note_on_c, 12, 56, 69
1, 33315, Control_c, 2, 1, 69
1, 33316, Note_on_c, 9, 39, 0
1, 33316, Note_on_c, 9, 38, 0
1, 33316, Note_on_c, 9, 36, 0
1, 33316, Note_on_c, 9, 40, 0
1, 33316, Note_on_c, 9, 37, 0
1, 33320, Control_c, 2, 11, 126
1, 33320, Control_c, 2, 1, 73
1, 33324, Control_c, 2, 11, 118
1, 33326, Control_c, 2, 1, 74
1, 33332, Control_c, 2, 11, 114
1, 33336, Control_c, 2, 11, 110
1, 33336, Note_on_c, 7, 37, 68
1, 33336, Note_on_c, 15, 80, 78
1, 33340, Control_c, 2, 11, 106
1, 33342, Control_c, 2, 1, 73
1, 33344, Control_c, 2, 11, 102
1, 33347, Control_c, 2, 1, 72
1, 33348, Note_on_c, 3, 66, 0
1, 33348, Control_c, 2, 11, 98
1, 33352, Control_c, 2, 11, 94
1, 33353, Note_on_c, 7, 37, 0
1, 33353, Note_on_c, 15, 71, 0
1, 33353, Control_c, 2, 1, 71
1, 33354, Note_on_c, 13, 68, 0
1, 33354, Note_on_c, 13, 80, 0
1, 33356, Note_on_c, 15, 75, 0
1, 33356, Control_c, 2, 11, 90
1, 33356, Control_c, 2, 1, 70
1, 33359, Note_on_c, 1, 40, 0
1, 33359, Note_on_c, 10, 40, 0
1, 33359, Note_on_c, 11, 40, 0
1, 33359, Note_on_c, 3, 64, 97
1, 33359, Note_on_c, 9, 39, 23
1, 33359, Note_on_c, 13, 83, 85
1, 33359, Note_on_c, 13, 71, 77
1, 33359, Note_on_c, 14, 51, 80
1, 33360, Note_on_c, 1, 44, 94
1, 33360, Control_c, 2, 11, 82
1, 33360, Note_on_c, 9, 36, 100
1, 33360, Note_on_c, 9, 81, 25
1, 33360, Note_on_c, 10, 44, 58
1, 33360, Note_on_c, 11, 44, 64
1, 33360, Note_on_c, 15, 61, 77
1, 33360, Note_on_c, 15, 71, 78
1, 33361, Note_on_c, 9, 42, 79
1, 33362, Control_c, 2, 1, 69
1, 33363, Note_on_c, 9, 39, 0
1, 33364, Note_on_c, 9, 36, 0
1, 33364, Note_on_c, 9, 81, 0
1, 33365, Note_on_c, 9, 42, 0
1, 33367, Note_on_c, 15, 80, 0
1, 33368, Control_c, 2, 11, 78
1, 33372, Control_c, 2, 11, 75
1, 33376, Control_c, 2, 11, 71
1, 33376, Control_c, 2, 1, 68
1, 33377, Note_on_c, 2, 75, 0
1, 33379, Note_on_c, 14, 51, 0
1, 33379, Control_c, 2, 1, 66
1, 33380, Control_c, 2, 11, 67
1, 33382, Control_c, 2, 1, 61
1, 33383, Note_on_c, 3, 61, 99
1, 33384, Control_c, 2, 11, 63
1, 33384, Note_on_c, 15, 83, 81
1, 33384, Note_on_c, 15, 56, 72
1, 33386, Note_on_c, 3, 64, 0
1, 33386, Note_on_c, 12, 56, 0
1, 33386, Note_on_c, 15, 61, 0
1, 33387, Control_c, 2, 1, 51
1, 33388, Control_c, 2, 11, 59
1, 33392, Control_c, 2, 11, 55
1, 33392, Control_c, 2, 1, 26
1, 33396, Note_on_c, 15, 71, 0
1, 33396, Control_c, 2, 11, 47
1, 33396, Control_c, 2, 1, 6
1, 33398, Note_on_c, 0, 56, 0
1, 33399, Note_on_c, 13, 83, 0
1, 33399, Note_on_c, 13, 71, 0
1, 33401, Control_c, 2, 1, 1
1, 33402, Note_on_c, 11, 44, 0
1, 33402, Note_on_c, 10, 44, 0
1, 33402, Note_on_c, 1, 44, 0
1, 33404, Control_c, 2, 11, 43
1, 33405, Note_on_c, 15, 56, 0
1, 33406, Note_on_c, 3, 61, 0
1, 33408, Note_on_c, 0, 57, 51
1, 33408, Note_on_c, 1, 42, 85
1, 33408, Control_c, 2, 11, 39
1, 33408, Note_on_c, 3, 61, 102
1, 33408, Note_on_c, 9, 36, 97
1, 33408, Note_on_c, 9, 49, 28
1, 33408, Note_on_c, 9, 81, 22
1, 33408, Note_on_c, 9, 42, 77
1, 33408, Note_on_c, 9, 84, 22
1, 33408, Note_on_c, 10, 42, 55
1, 33408, Note_on_c, 11, 42, 60
1, 33408, Note_on_c, 12, 57, 71
1, 33408, Lyric_t, "mine. "
1, 33408, Lyric_t, "\015"
1, 33408, Lyric_t, "\012"
1, 33411, Note_on_c, 15, 83, 0
1, 33412, Note_on_c, 9, 84, 0
1, 33412, Note_on_c, 9, 42, 0
1, 33412, Note_on_c, 9, 36, 0
1, 33412, Note_on_c, 9, 81, 0
1, 33412, Note_on_c, 9, 49, 0
1, 33412, Control_c, 2, 11, 35
1, 33428, Pitch_bend_c, 12, 8582
1, 33429, Pitch_bend_c, 12, 11052
1, 33433, Pitch_bend_c, 0, 12482
1, 33433, Pitch_bend_c, 12, 13912
1, 33436, Pitch_bend_c, 0, 16382
1, 33436, Control_c, 2, 11, 127
1, 33436, Pitch_bend_c, 12, 16382
1, 33446, Note_on_c, 10, 42, 0
1, 33446, Note_on_c, 11, 42, 0
1, 33446, Note_on_c, 1, 42, 0
1, 33455, Note_on_c, 9, 81, 24
1, 33456, Note_on_c, 3, 61, 0
1, 33456, Note_on_c, 3, 66, 100
1, 33456, Note_on_c, 9, 42, 82
1, 33458, Pitch_bend_c, 12, 13782
1, 33459, Note_on_c, 9, 81, 0
1, 33460, Note_on_c, 9, 42, 0
1, 33461, Pitch_bend_c, 12, 10272
1, 33462, Pitch_bend_c, 0, 13912
1, 33464, Pitch_bend_c, 12, 8192
1, 33465, Pitch_bend_c, 0, 8192
1, 33471, Control_c, 3, 1, 3
1, 33472, Note_on_c, 3, 64, 67
1, 33472, Control_c, 3, 1, 10
1, 33476, Note_on_c, 3, 66, 0
1, 33477, Control_c, 3, 1, 24
1, 33482, Control_c, 3, 1, 31
1, 33486, Note_on_c, 3, 61, 96
1, 33486, Control_c, 3, 1, 27
1, 33487, Note_on_c, 3, 64, 0
1, 33491, Control_c, 3, 1, 1
1, 33503, Note_on_c, 6, 49, 73
1, 33503, Note_on_c, 9, 81, 29
1, 33504, Note_on_c, 1, 42, 89
1, 33504, Note_on_c, 9, 36, 96
1, 33504, Note_on_c, 9, 37, 77
1, 33504, Note_on_c, 9, 40, 96
1, 33504, Note_on_c, 9, 69, 96
1, 33504, Note_on_c, 9, 84, 15
1, 33504, Note_on_c, 10, 42, 58
1, 33504, Note_on_c, 11, 42, 67
1, 33505, Note_on_c, 9, 39, 58
1, 33506, Note_on_c, 3, 64, 98
1, 33507, Note_on_c, 9, 81, 0
1, 33508, Note_on_c, 9, 84, 0
1, 33508, Note_on_c, 9, 37, 0
1, 33508, Note_on_c, 3, 61, 0
1, 33508, Note_on_c, 9, 69, 0
1, 33508, Note_on_c, 9, 40, 0
1, 33508, Note_on_c, 9, 36, 0
1, 33509, Note_on_c, 9, 39, 0
1, 33515, Note_on_c, 0, 57, 0
1, 33527, Note_on_c, 6, 49, 0
1, 33527, Note_on_c, 9, 81, 30
1, 33528, Note_on_c, 12, 57, 0
1, 33528, Note_on_c, 9, 42, 82
1, 33528, Note_on_c, 9, 69, 99
1, 33531, Note_on_c, 9, 81, 0
1, 33532, Note_on_c, 9, 42, 0
1, 33532, Note_on_c, 9, 69, 0
1, 33536, Note_on_c, 10, 42, 0
1, 33536, Note_on_c, 1, 42, 0
1, 33536, Note_on_c, 11, 42, 0
1, 33551, Note_on_c, 0, 59, 52
1, 33551, Note_on_c, 9, 81, 23
1, 33551, Lyric_t, "You "
1, 33552, Control_c, 3, 1, 3
1, 33552, Note_on_c, 5, 90, 82
1, 33552, Note_on_c, 6, 47, 74
1, 33552, Note_on_c, 9, 39, 29
1, 33552, Note_on_c, 9, 69, 95
1, 33553, Control_c, 3, 1, 9
1, 33553, Note_on_c, 12, 59, 70
1, 33555, Note_on_c, 9, 81, 0
1, 33556, Note_on_c, 9, 69, 0
1, 33556, Note_on_c, 9, 39, 0
1, 33559, Control_c, 3, 1, 2
1, 33562, Control_c, 3, 1, 0
1, 33569, Note_on_c, 5, 90, 0
1, 33576, Note_on_c, 6, 47, 0
1, 33576, Note_on_c, 9, 69, 100
1, 33580, Note_on_c, 9, 69, 0
1, 33583, Note_on_c, 5, 92, 78
1, 33590, Note_on_c, 12, 59, 0
1, 33591, Note_on_c, 3, 64, 0
1, 33596, Note_on_c, 0, 59, 0
1, 33599, Note_on_c, 0, 64, 49
1, 33599, Note_on_c, 9, 84, 18
1, 33599, Lyric_t, "need "
1, 33600, Note_on_c, 5, 93, 76
1, 33600, Note_on_c, 6, 49, 74
1, 33600, Note_on_c, 9, 42, 78
1, 33600, Note_on_c, 9, 69, 101
1, 33600, Note_on_c, 9, 81, 25
1, 33600, Note_on_c, 10, 42, 53
1, 33600, Note_on_c, 12, 64, 73
1, 33603, Note_on_c, 9, 84, 0
1, 33604, Note_on_c, 9, 81, 0
1, 33604, Note_on_c, 9, 69, 0
1, 33604, Note_on_c, 5, 92, 0
1, 33604, Note_on_c, 9, 42, 0
1, 33604, Note_on_c, 3, 66, 96
1, 33617, Note_on_c, 3, 64, 59
1, 33619, Note_on_c, 5, 93, 0
1, 33623, Note_on_c, 3, 66, 0
1, 33624, Note_on_c, 9, 42, 61
1, 33624, Note_on_c, 9, 81, 30
1, 33628, Note_on_c, 9, 81, 0
1, 33628, Note_on_c, 9, 42, 0
1, 33630, Note_on_c, 6, 49, 0
1, 33630, Note_on_c, 10, 42, 0
1, 33630, Note_on_c, 3, 61, 83
1, 33633, Note_on_c, 3, 64, 0
1, 33643, Note_on_c, 12, 64, 0
1, 33648, Note_on_c, 0, 64, 0
1, 33648, Note_on_c, 0, 63, 50
1, 33648, Note_on_c, 3, 64, 102
1, 33648, Note_on_c, 5, 90, 70
1, 33648, Note_on_c, 9, 81, 28
1, 33648, Note_on_c, 12, 63, 74
1, 33648, Lyric_t, "to "
1, 33651, Note_on_c, 3, 61, 0
1, 33652, Note_on_c, 9, 81, 0
1, 33667, Note_on_c, 5, 90, 0
1, 33670, Control_c, 3, 1, 13
1, 33672, Note_on_c, 9, 42, 82
1, 33672, Note_on_c, 9, 81, 31
1, 33675, Control_c, 3, 1, 31
1, 33676, Note_on_c, 9, 81, 0
1, 33676, Note_on_c, 9, 42, 0
1, 33679, Control_c, 3, 1, 38
1, 33679, Note_on_c, 5, 92, 66
1, 33685, Control_c, 3, 1, 40
1, 33693, Note_on_c, 12, 63, 0
1, 33695, Note_on_c, 0, 63, 0
1, 33695, Note_on_c, 9, 84, 14
1, 33696, Tempo, 645161
1, 33696, Note_on_c, 0, 61, 49
1, 33696, Note_on_c, 5, 93, 64
1, 33696, Note_on_c, 9, 37, 77
1, 33696, Note_on_c, 9, 40, 98
1, 33696, Note_on_c, 9, 39, 57
1, 33696, Note_on_c, 10, 42, 56
1, 33696, Lyric_t, "give "
1, 33697, Note_on_c, 12, 64, 69
1, 33699, Note_on_c, 9, 84, 0
1, 33700, Note_on_c, 9, 39, 0
1, 33700, Note_on_c, 9, 40, 0
1, 33700, Note_on_c, 5, 92, 0
1, 33700, Note_on_c, 9, 37, 0
1, 33702, Control_c, 3, 1, 39
1, 33710, Control_c, 3, 1, 38
1, 33713, Control_c, 3, 1, 35
1, 33715, Note_on_c, 5, 93, 0
1, 33715, Control_c, 3, 1, 21
1, 33720, Control_c, 3, 1, 1
1, 33725, Control_c, 3, 1, 0
1, 33730, Note_on_c, 10, 42, 0
1, 33740, Note_on_c, 12, 64, 0
1, 33741, Note_on_c, 3, 64, 0
1, 33741, Note_on_c, 3, 66, 95
1, 33741, Lyric_t, "it "
1, 33743, Note_on_c, 9, 39, 24
1, 33744, Note_on_c, 0, 59, 51
1, 33744, Note_on_c, 5, 90, 58
1, 33744, Note_on_c, 9, 42, 75
1, 33744, Note_on_c, 9, 81, 30
1, 33745, Note_on_c, 12, 64, 67
1, 33747, Note_on_c, 9, 39, 0
1, 33747, Note_on_c, 0, 61, 0
1, 33748, Note_on_c, 9, 81, 0
1, 33748, Note_on_c, 9, 42, 0
1, 33763, Note_on_c, 5, 90, 0
1, 33770, Note_on_c, 3, 66, 0
1, 33775, Note_on_c, 5, 92, 55
1, 33790, Note_on_c, 12, 64, 0
1, 33791, Note_on_c, 0, 61, 52
1, 33791, Lyric_t, "up, "
1, 33791, Lyric_t, "\015"
1, 33792, Note_on_c, 1, 42, 93
1, 33792, Note_on_c, 3, 63, 103
1, 33792, Note_on_c, 5, 93, 52
1, 33792, Note_on_c, 7, 42, 90
1, 33792, Note_on_c, 9, 36, 99
1, 33792, Note_on_c, 9, 81, 30
1, 33792, Note_on_c, 10, 42, 54
1, 33792, Note_on_c, 11, 42, 63
1, 33793, Note_on_c, 12, 66, 74
1, 33796, Note_on_c, 9, 81, 0
1, 33796, Note_on_c, 9, 36, 0
1, 33797, Note_on_c, 0, 59, 0
1, 33800, Note_on_c, 5, 92, 0
1, 33821, Note_on_c, 5, 93, 0
1, 33826, Control_c, 3, 1, 3
1, 33828, Control_c, 3, 1, 13
1, 33830, Note_on_c, 10, 42, 0
1, 33830, Note_on_c, 1, 42, 0
1, 33830, Note_on_c, 11, 42, 0
1, 33833, Control_c, 3, 1, 17
1, 33837, Control_c, 3, 1, 21
1, 33839, Note_on_c, 9, 81, 30
1, 33841, Control_c, 3, 1, 26
1, 33843, Note_on_c, 9, 81, 0
1, 33847, Control_c, 3, 1, 28
1, 33850, Control_c, 3, 1, 31
1, 33855, Control_c, 3, 1, 34
1, 33863, Control_c, 3, 1, 35
1, 33864, Note_on_c, 7, 42, 0
1, 33864, Note_on_c, 7, 42, 73
1, 33864, Note_on_c, 9, 42, 79
1, 33868, Note_on_c, 9, 42, 0
1, 33887, Note_on_c, 7, 42, 0
1, 33887, Note_on_c, 6, 49, 74
1, 33887, Note_on_c, 9, 42, 76
1, 33887, Note_on_c, 9, 69, 93
1, 33887, Note_on_c, 9, 81, 31
1, 33888, Note_on_c, 1, 42, 86
1, 33888, Note_on_c, 9, 36, 97
1, 33888, Note_on_c, 9, 37, 78
1, 33888, Note_on_c, 9, 40, 97
1, 33888, Note_on_c, 10, 42, 60
1, 33888, Note_on_c, 11, 42, 64
1, 33889, Note_on_c, 9, 39, 56
1, 33891, Note_on_c, 9, 81, 0
1, 33891, Note_on_c, 9, 69, 0
1, 33891, Note_on_c, 9, 42, 0
1, 33892, Note_on_c, 9, 40, 0
1, 33892, Note_on_c, 9, 37, 0
1, 33892, Note_on_c, 9, 36, 0
1, 33893, Note_on_c, 9, 39, 0
1, 33911, Note_on_c, 9, 81, 31
1, 33912, Note_on_c, 6, 49, 0
1, 33915, Note_on_c, 9, 81, 0
1, 33917, Note_on_c, 3, 63, 0
1, 33920, Note_on_c, 10, 42, 0
1, 33920, Note_on_c, 1, 42, 0
1, 33920, Note_on_c, 11, 42, 0
1, 33924, Pitch_bend_c, 2, 1920
1, 33927, Note_on_c, 12, 66, 0
1, 33932, Pitch_bend_c, 2, 2304
1, 33935, Note_on_c, 2, 64, 95
1, 33935, Pitch_bend_c, 2, 3328
1, 33935, Note_on_c, 9, 69, 99
1, 33935, Note_on_c, 9, 81, 31
1, 33935, Note_on_c, 9, 42, 77
1, 33936, Note_on_c, 6, 47, 81
1, 33936, Note_on_c, 7, 42, 72
1, 33936, Note_on_c, 9, 39, 28
1, 33938, Pitch_bend_c, 2, 4992
1, 33939, Note_on_c, 9, 42, 0
1, 33939, Note_on_c, 9, 81, 0
1, 33939, Note_on_c, 9, 69, 0
1, 33939, Control_c, 3, 1, 34
1, 33940, Note_on_c, 9, 39, 0
1, 33941, Control_c, 3, 1, 26
1, 33942, Pitch_bend_c, 2, 6784
1, 33945, Control_c, 3, 1, 14
1, 33946, Pitch_bend_c, 2, 7040
1, 33949, Pitch_bend_c, 2, 7424
1, 33950, Control_c, 3, 1, 3
1, 33951, Note_on_c, 0, 61, 0
1, 33952, Pitch_bend_c, 2, 8064
1, 33954, Control_c, 3, 1, 1
1, 33956, Pitch_bend_c, 2, 8192
1, 33957, Note_on_c, 7, 42, 0
1, 33958, Note_on_c, 6, 47, 0
1, 33960, Note_on_c, 2, 64, 0
1, 33968, Note_on_c, 9, 40, 80
1, 33972, Note_on_c, 9, 40, 0
1, 33983, Note_on_c, 0, 66, 52
1, 33983, Note_on_c, 2, 61, 104
1, 33983, Note_on_c, 9, 42, 80
1, 33983, Lyric_t, "Had "
1, 33984, Note_on_c, 6, 49, 80
1, 33984, Note_on_c, 9, 81, 26
1, 33984, Note_on_c, 10, 42, 62
1, 33985, Note_on_c, 12, 66, 66
1, 33987, Note_on_c, 9, 42, 0
1, 33988, Note_on_c, 9, 81, 0
1, 34008, Note_on_c, 9, 42, 55
1, 34008, Note_on_c, 9, 81, 29
1, 34012, Note_on_c, 9, 81, 0
1, 34012, Note_on_c, 9, 42, 0
1, 34013, Note_on_c, 6, 49, 0
1, 34014, Note_on_c, 10, 42, 0
1, 34031, Note_on_c, 9, 69, 96
1, 34032, Note_on_c, 0, 64, 53
1, 34032, Note_on_c, 7, 42, 74
1, 34032, Note_on_c, 9, 81, 31
1, 34032, Lyric_t, "a"
1, 34033, Note_on_c, 0, 66, 0
1, 34034, Note_on_c, 12, 64, 69
1, 34035, Note_on_c, 9, 69, 0
1, 34036, Note_on_c, 9, 81, 0
1, 34040, Note_on_c, 12, 66, 0
1, 34043, Note_on_c, 7, 42, 0
1, 34052, Control_c, 2, 11, 127
1, 34056, Control_c, 2, 11, 120
1, 34056, Note_on_c, 9, 81, 23
1, 34060, Note_on_c, 9, 81, 0
1, 34060, Control_c, 2, 11, 113
1, 34063, Control_c, 2, 1, 23
1, 34064, Control_c, 2, 11, 107
1, 34067, Control_c, 2, 1, 47
1, 34068, Control_c, 2, 11, 100
1, 34071, Control_c, 2, 1, 57
1, 34072, Control_c, 2, 11, 93
1, 34075, Control_c, 2, 1, 65
1, 34076, Control_c, 2, 11, 86
1, 34078, Note_on_c, 12, 64, 0
1, 34080, Note_on_c, 0, 63, 47
1, 34080, Note_on_c, 1, 44, 92
1, 34080, Control_c, 2, 11, 73
1, 34080, Note_on_c, 9, 36, 96
1, 34080, Note_on_c, 9, 37, 80
1, 34080, Note_on_c, 9, 40, 95
1, 34080, Note_on_c, 9, 39, 50
1, 34080, Note_on_c, 10, 44, 55
1, 34080, Note_on_c, 11, 44, 61
1, 34080, Lyric_t, "bout "
1, 34081, Control_c, 2, 1, 70
1, 34081, Note_on_c, 12, 63, 74
1, 34084, Note_on_c, 9, 39, 0
1, 34084, Note_on_c, 9, 40, 0
1, 34084, Note_on_c, 0, 64, 0
1, 34084, Note_on_c, 9, 37, 0
1, 34084, Note_on_c, 9, 36, 0
1, 34084, Control_c, 2, 1, 74
1, 34088, Control_c, 2, 11, 66
1, 34092, Control_c, 2, 11, 59
1, 34096, Control_c, 2, 11, 52
1, 34098, Control_c, 2, 1, 72
1, 34100, Control_c, 2, 11, 46
1, 34103, Control_c, 2, 1, 70
1, 34104, Control_c, 2, 11, 39
1, 34107, Control_c, 2, 1, 69
1, 34108, Control_c, 2, 11, 32
1, 34111, Control_c, 2, 1, 67
1, 34117, Control_c, 2, 1, 65
1, 34119, Note_on_c, 2, 61, 0
1, 34120, Control_c, 2, 1, 59
1, 34124, Note_on_c, 1, 44, 0
1, 34124, Note_on_c, 11, 44, 0
1, 34124, Note_on_c, 10, 44, 0
1, 34125, Control_c, 2, 1, 52
1, 34127, Note_on_c, 3, 64, 101
1, 34127, Note_on_c, 9, 39, 26
1, 34127, Lyric_t, "e"
1, 34128, Note_on_c, 0, 61, 54
1, 34128, Note_on_c, 1, 39, 91
1, 34128, Note_on_c, 9, 36, 102
1, 34128, Note_on_c, 9, 81, 24
1, 34128, Note_on_c, 11, 39, 61
1, 34129, Note_on_c, 9, 42, 80
1, 34130, Note_on_c, 0, 63, 0
1, 34130, Control_c, 2, 1, 42
1, 34130, Note_on_c, 10, 39, 56
1, 34130, Note_on_c, 12, 66, 73
1, 34131, Note_on_c, 9, 39, 0
1, 34132, Note_on_c, 9, 81, 0
1, 34132, Note_on_c, 9, 36, 0
1, 34133, Note_on_c, 9, 42, 0
1, 34134, Note_on_c, 12, 63, 0
1, 34135, Control_c, 2, 1, 34
1, 34138, Control_c, 2, 1, 25
1, 34143, Control_c, 2, 1, 18
1, 34147, Control_c, 2, 1, 11
1, 34152, Control_c, 2, 1, 5
1, 34156, Control_c, 2, 11, 127
1, 34156, Control_c, 2, 1, 0
1, 34168, Note_on_c, 3, 64, 0
1, 34170, Note_on_c, 11, 39, 0
1, 34170, Note_on_c, 1, 39, 0
1, 34172, Note_on_c, 10, 39, 0
1, 34176, Note_on_c, 0, 63, 47
1, 34176, Note_on_c, 1, 37, 86
1, 34176, Note_on_c, 9, 36, 102
1, 34176, Note_on_c, 9, 49, 29
1, 34176, Note_on_c, 9, 81, 29
1, 34176, Note_on_c, 9, 42, 76
1, 34176, Note_on_c, 9, 84, 17
1, 34176, Note_on_c, 10, 37, 59
1, 34176, Note_on_c, 11, 37, 62
1, 34176, Lyric_t, "nough, "
1, 34176, Lyric_t, "\015"
1, 34176, Lyric_t, "\012"
1, 34177, Note_on_c, 3, 66, 101
1, 34178, Note_on_c, 12, 66, 0
1, 34178, Note_on_c, 12, 68, 71
1, 34180, Note_on_c, 9, 84, 0
1, 34180, Note_on_c, 9, 42, 0
1, 34180, Note_on_c, 9, 36, 0
1, 34180, Note_on_c, 9, 81, 0
1, 34180, Note_on_c, 9, 49, 0
1, 34182, Note_on_c, 0, 61, 0
1, 34221, Control_c, 3, 1, 5
1, 34223, Note_on_c, 9, 81, 29
1, 34224, Control_c, 3, 1, 13
1, 34224, Note_on_c, 9, 42, 76
1, 34227, Note_on_c, 9, 81, 0
1, 34228, Note_on_c, 9, 42, 0
1, 34229, Note_on_c, 10, 37, 0
1, 34229, Note_on_c, 11, 37, 0
1, 34229, Note_on_c, 1, 37, 0
1, 34230, Control_c, 3, 1, 18
1, 34233, Control_c, 3, 1, 21
1, 34238, Control_c, 3, 1, 23
1, 34243, Control_c, 3, 1, 24
1, 34271, Note_on_c, 6, 49, 75
1, 34271, Note_on_c, 9, 81, 30
1, 34272, Note_on_c, 1, 37, 90
1, 34272, Note_on_c, 9, 36, 101
1, 34272, Note_on_c, 9, 37, 73
1, 34272, Note_on_c, 9, 40, 100
1, 34272, Note_on_c, 9, 69, 99
1, 34272, Note_on_c, 9, 84, 15
1, 34272, Note_on_c, 10, 37, 53
1, 34272, Note_on_c, 11, 37, 64
1, 34273, Note_on_c, 9, 39, 52
1, 34275, Note_on_c, 9, 81, 0
1, 34276, Note_on_c, 9, 84, 0
1, 34276, Note_on_c, 9, 37, 0
1, 34276, Note_on_c, 9, 69, 0
1, 34276, Note_on_c, 9, 40, 0
1, 34276, Note_on_c, 9, 36, 0
1, 34277, Note_on_c, 9, 39, 0
1, 34295, Note_on_c, 6, 49, 0
1, 34295, Note_on_c, 9, 81, 27
1, 34296, Note_on_c, 9, 42, 79
1, 34296, Note_on_c, 9, 69, 100
1, 34297, Note_on_c, 3, 66, 0
1, 34299, Note_on_c, 9, 81, 0
1, 34300, Note_on_c, 9, 69, 0
1, 34300, Note_on_c, 9, 42, 0
1, 34302, Note_on_c, 11, 37, 0
1, 34302, Note_on_c, 1, 37, 0
1, 34302, Note_on_c, 10, 37, 0
1, 34319, Note_on_c, 2, 64, 99
1, 34319, Note_on_c, 9, 81, 29
1, 34320, Control_c, 3, 1, 23
1, 34320, Note_on_c, 5, 88, 88
1, 34320, Note_on_c, 6, 47, 78
1, 34320, Note_on_c, 9, 39, 21
1, 34320, Note_on_c, 9, 69, 92
1, 34322, Note_on_c, 12, 68, 0
1, 34323, Note_on_c, 9, 81, 0
1, 34324, Note_on_c, 9, 69, 0
1, 34324, Note_on_c, 9, 39, 0
1, 34325, Control_c, 3, 1, 22
1, 34328, Control_c, 3, 1, 19
1, 34332, Control_c, 3, 1, 14
1, 34337, Control_c, 3, 1, 9
1, 34338, Note_on_c, 5, 88, 0
1, 34342, Control_c, 3, 1, 5
1, 34344, Note_on_c, 0, 63, 0
1, 34344, Note_on_c, 6, 47, 0
1, 34344, Note_on_c, 9, 69, 95
1, 34346, Note_on_c, 2, 64, 0
1, 34346, Control_c, 3, 1, 2
1, 34348, Note_on_c, 9, 69, 0
1, 34350, Control_c, 3, 1, 1
1, 34352, Note_on_c, 5, 90, 84
1, 34367, Note_on_c, 0, 64, 55
1, 34367, Note_on_c, 5, 92, 82
1, 34367, Note_on_c, 9, 84, 23
1, 34367, Note_on_c, 10, 37, 61
1, 34367, Lyric_t, "It's "
1, 34368, Note_on_c, 2, 69, 99
1, 34368, Note_on_c, 6, 49, 78
1, 34368, Note_on_c, 9, 42, 84
1, 34368, Note_on_c, 9, 69, 100
1, 34368, Note_on_c, 9, 81, 22
1, 34369, Note_on_c, 5, 90, 0
1, 34369, Note_on_c, 12, 64, 75
1, 34371, Note_on_c, 9, 84, 0
1, 34372, Note_on_c, 9, 69, 0
1, 34372, Note_on_c, 9, 42, 0
1, 34372, Note_on_c, 9, 81, 0
1, 34382, Note_on_c, 5, 92, 0
1, 34392, Note_on_c, 9, 42, 58
1, 34392, Note_on_c, 9, 81, 27
1, 34396, Note_on_c, 9, 81, 0
1, 34396, Note_on_c, 9, 42, 0
1, 34398, Note_on_c, 6, 49, 0
1, 34404, Note_on_c, 10, 37, 0
1, 34409, Note_on_c, 2, 69, 0
1, 34414, Note_on_c, 12, 64, 0
1, 34415, Note_on_c, 2, 68, 101
1, 34416, Note_on_c, 0, 63, 47
1, 34416, Note_on_c, 5, 88, 76
1, 34416, Note_on_c, 9, 81, 28
1, 34416, Lyric_t, "not "
1, 34417, Note_on_c, 12, 63, 71
1, 34418, Note_on_c, 0, 64, 0
1, 34420, Note_on_c, 9, 81, 0
1, 34431, Note_on_c, 5, 88, 0
1, 34440, Note_on_c, 9, 42, 83
1, 34440, Note_on_c, 9, 81, 27
1, 34444, Note_on_c, 9, 81, 0
1, 34444, Note_on_c, 9, 42, 0
1, 34444, Control_c, 2, 1, 18
1, 34448, Note_on_c, 5, 90, 72
1, 34449, Control_c, 2, 1, 35
1, 34453, Control_c, 2, 1, 41
1, 34458, Control_c, 2, 1, 45
1, 34460, Note_on_c, 0, 63, 0
1, 34461, Note_on_c, 5, 90, 0
1, 34462, Note_on_c, 12, 63, 0
1, 34463, Control_c, 2, 1, 46
1, 34463, Note_on_c, 5, 92, 71
1, 34464, Tempo, 645161
1, 34464, Note_on_c, 0, 61, 50
1, 34464, Note_on_c, 9, 37, 73
1, 34464, Note_on_c, 9, 40, 104
1, 34464, Note_on_c, 9, 39, 58
1, 34464, Note_on_c, 9, 84, 15
1, 34464, Note_on_c, 10, 37, 53
1, 34464, Lyric_t, "hard "
1, 34466, Note_on_c, 12, 61, 69
1, 34468, Note_on_c, 9, 84, 0
1, 34468, Note_on_c, 9, 37, 0
1, 34468, Note_on_c, 9, 39, 0
1, 34468, Note_on_c, 9, 40, 0
1, 34468, Control_c, 2, 11, 122
1, 34472, Control_c, 2, 11, 118
1, 34475, Control_c, 2, 1, 47
1, 34476, Control_c, 2, 11, 110
1, 34477, Note_on_c, 5, 92, 0
1, 34479, Control_c, 2, 1, 48
1, 34484, Control_c, 2, 11, 106
1, 34484, Control_c, 2, 1, 49
1, 34488, Control_c, 2, 11, 102
1, 34492, Control_c, 2, 11, 98
1, 34496, Control_c, 2, 11, 94
1, 34497, Note_on_c, 10, 37, 0
1, 34500, Control_c, 2, 11, 90
1, 34504, Control_c, 2, 11, 86
1, 34508, Control_c, 2, 11, 82
1, 34509, Note_on_c, 0, 61, 0
1, 34510, Note_on_c, 12, 61, 0
1, 34510, Note_on_c, 3, 63, 103
1, 34510, Lyric_t, "to "
1, 34511, Note_on_c, 5, 88, 65
1, 34511, Note_on_c, 9, 39, 22
1, 34512, Note_on_c, 0, 59, 50
1, 34512, Control_c, 2, 11, 73
1, 34512, Note_on_c, 9, 42, 76
1, 34512, Note_on_c, 9, 81, 29
1, 34513, Note_on_c, 12, 59, 71
1, 34515, Note_on_c, 9, 39, 0
1, 34516, Note_on_c, 9, 81, 0
1, 34516, Note_on_c, 9, 42, 0
1, 34520, Control_c, 2, 11, 69
1, 34524, Control_c, 2, 11, 65
1, 34526, Note_on_c, 5, 88, 0
1, 34527, Control_c, 2, 1, 48
1, 34528, Control_c, 2, 11, 61
1, 34530, Note_on_c, 2, 68, 0
1, 34532, Control_c, 2, 11, 57
1, 34536, Control_c, 2, 11, 53
1, 34538, Control_c, 2, 1, 47
1, 34540, Control_c, 2, 11, 49
1, 34544, Control_c, 2, 1, 44
1, 34544, Control_c, 2, 11, 45
1, 34544, Note_on_c, 5, 90, 61
1, 34548, Control_c, 2, 11, 37
1, 34548, Control_c, 2, 1, 39
1, 34551, Note_on_c, 3, 63, 0
1, 34552, Control_c, 2, 1, 31
1, 34554, Note_on_c, 0, 59, 0
1, 34555, Note_on_c, 5, 90, 0
1, 34556, Note_on_c, 12, 59, 0
1, 34556, Control_c, 2, 11, 33
1, 34557, Control_c, 2, 1, 19
1, 34559, Note_on_c, 0, 61, 56
1, 34559, Note_on_c, 5, 92, 59
1, 34559, Lyric_t, "see "
1, 34559, Lyric_t, "\015"
1, 34560, Note_on_c, 1, 37, 87
1, 34560, Note_on_c, 3, 71, 96
1, 34560, Note_on_c, 7, 37, 83
1, 34560, Note_on_c, 9, 36, 95
1, 34560, Note_on_c, 9, 81, 26
1, 34560, Note_on_c, 10, 37, 60
1, 34560, Note_on_c, 11, 37, 68
1, 34560, Note_on_c, 12, 61, 73
1, 34561, Control_c, 2, 1, 6
1, 34564, Note_on_c, 9, 81, 0
1, 34564, Note_on_c, 9, 36, 0
1, 34566, Control_c, 2, 1, 1
1, 34573, Note_on_c, 5, 92, 0
1, 34576, Control_c, 2, 11, 127
1, 34590, Control_c, 3, 1, 6
1, 34593, Control_c, 3, 1, 13
1, 34597, Control_c, 3, 1, 20
1, 34603, Control_c, 3, 1, 24
1, 34607, Control_c, 3, 1, 25
1, 34607, Note_on_c, 9, 81, 29
1, 34611, Note_on_c, 9, 81, 0
1, 34611, Control_c, 3, 1, 28
1, 34613, Note_on_c, 11, 37, 0
1, 34613, Note_on_c, 10, 37, 0
1, 34613, Note_on_c, 1, 37, 0
1, 34615, Control_c, 3, 1, 31
1, 34622, Control_c, 3, 1, 32
1, 34624, Control_c, 3, 1, 34
1, 34626, Note_on_c, 7, 37, 0
1, 34630, Control_c, 3, 1, 35
1, 34632, Note_on_c, 7, 37, 72
1, 34632, Note_on_c, 9, 42, 78
1, 34633, Control_c, 3, 1, 36
1, 34636, Note_on_c, 9, 42, 0
1, 34639, Control_c, 3, 1, 32
1, 34643, Control_c, 3, 1, 15
1, 34647, Control_c, 3, 1, 0
1, 34650, Note_on_c, 3, 71, 0
1, 34655, Note_on_c, 3, 64, 101
1, 34655, Note_on_c, 6, 49, 74
1, 34655, Note_on_c, 9, 42, 82
1, 34655, Note_on_c, 9, 69, 99
1, 34655, Note_on_c, 9, 81, 25
1, 34655, Note_on_c, 13, 85, 77
1, 34655, Note_on_c, 13, 73, 76
1, 34655, Lyric_t, "the "
1, 34656, Note_on_c, 0, 61, 0
1, 34656, Note_on_c, 12, 61, 0
1, 34656, Note_on_c, 0, 56, 53
1, 34656, Note_on_c, 9, 37, 77
1, 34656, Note_on_c, 9, 40, 97
1, 34656, Note_on_c, 10, 37, 55
1, 34657, Note_on_c, 9, 39, 50
1, 34659, Note_on_c, 9, 81, 0
1, 34659, Note_on_c, 9, 42, 0
1, 34659, Note_on_c, 9, 69, 0
1, 34660, Note_on_c, 9, 40, 0
1, 34660, Note_on_c, 9, 37, 0
1, 34661, Note_on_c, 9, 39, 0
1, 34662, Note_on_c, 7, 37, 0
1, 34679, Note_on_c, 9, 81, 27
1, 34680, Note_on_c, 6, 49, 0
1, 34683, Note_on_c, 9, 81, 0
1, 34694, Note_on_c, 10, 37, 0
1, 34703, Note_on_c, 9, 69, 99
1, 34703, Note_on_c, 9, 81, 29
1, 34703, Note_on_c, 9, 42, 80
1, 34703, Note_on_c, 13, 87, 81
1, 34703, Note_on_c, 13, 75, 82
1, 34704, Note_on_c, 3, 64, 0
1, 34704, Note_on_c, 13, 85, 0
1, 34704, Note_on_c, 13, 73, 0
1, 34704, Note_on_c, 3, 66, 51
1, 34704, Note_on_c, 6, 47, 77
1, 34704, Note_on_c, 9, 39, 25
1, 34707, Note_on_c, 9, 42, 0
1, 34707, Note_on_c, 9, 69, 0
1, 34707, Note_on_c, 9, 81, 0
1, 34708, Note_on_c, 9, 39, 0
1, 34726, Note_on_c, 6, 47, 0
1, 34727, Note_on_c, 3, 68, 83
1, 34730, Note_on_c, 3, 66, 0
1, 34736, Note_on_c, 9, 40, 78
1, 34738, Note_on_c, 0, 56, 0
1, 34740, Note_on_c, 9, 40, 0
1, 34751, Note_on_c, 3, 68, 0
1, 34751, Note_on_c, 0, 61, 55
1, 34751, Note_on_c, 1, 37, 93
1, 34751, Note_on_c, 9, 42, 82
1, 34751, Note_on_c, 9, 36, 99
1, 34751, Note_on_c, 10, 37, 61
1, 34751, Note_on_c, 11, 37, 65
1, 34751, Note_on_c, 13, 88, 78
1, 34751, Note_on_c, 13, 76, 77
1, 34751, Lyric_t, "boy "
1, 34752, Note_on_c, 3, 71, 104
1, 34752, Note_on_c, 6, 49, 81
1, 34752, Note_on_c, 9, 81, 23
1, 34753, Note_on_c, 13, 75, 0
1, 34753, Note_on_c, 13, 87, 0
1, 34755, Note_on_c, 9, 42, 0
1, 34755, Note_on_c, 9, 36, 0
1, 34756, Note_on_c, 9, 81, 0
1, 34775, Note_on_c, 9, 38, 54
1, 34776, Note_on_c, 9, 42, 54
1, 34776, Note_on_c, 9, 81, 27
1, 34778, Note_on_c, 3, 71, 0
1, 34779, Note_on_c, 9, 38, 0
1, 34780, Note_on_c, 9, 42, 0
1, 34780, Note_on_c, 9, 81, 0
1, 34781, Note_on_c, 6, 49, 0
1, 34788, Note_on_c, 1, 37, 0
1, 34788, Note_on_c, 11, 37, 0
1, 34788, Note_on_c, 10, 37, 0
1, 34799, Note_on_c, 9, 69, 95
1, 34800, Note_on_c, 3, 69, 97
1, 34800, Note_on_c, 7, 37, 67
1, 34800, Note_on_c, 9, 38, 52
1, 34800, Note_on_c, 9, 81, 27
1, 34800, Note_on_c, 13, 87, 77
1, 34800, Note_on_c, 13, 75, 84
1, 34801, Note_on_c, 13, 76, 0
1, 34801, Note_on_c, 13, 88, 0
1, 34803, Note_on_c, 9, 69, 0
1, 34804, Note_on_c, 9, 81, 0
1, 34804, Note_on_c, 9, 38, 0
1, 34817, Note_on_c, 7, 37, 0
1, 34824, Note_on_c, 9, 38, 57
1, 34824, Note_on_c, 9, 81, 31
1, 34828, Note_on_c, 9, 81, 0
1, 34828, Note_on_c, 9, 38, 0
1, 34839, Note_on_c, 0, 61, 0
1, 34847, Note_on_c, 0, 56, 54
1, 34847, Lyric_t, "is "
1, 34848, Note_on_c, 1, 40, 89
1, 34848, Note_on_c, 9, 36, 102
1, 34848, Note_on_c, 9, 38, 52
1, 34848, Note_on_c, 9, 37, 77
1, 34848, Note_on_c, 9, 40, 102
1, 34848, Note_on_c, 9, 39, 56
1, 34848, Note_on_c, 10, 40, 61
1, 34848, Note_on_c, 11, 40, 64
1, 34848, Note_on_c, 13, 85, 84
1, 34848, Note_on_c, 13, 73, 85
1, 34849, Note_on_c, 13, 87, 0
1, 34849, Note_on_c, 13, 75, 0
1, 34852, Note_on_c, 9, 40, 0
1, 34852, Note_on_c, 9, 37, 0
1, 34852, Note_on_c, 9, 39, 0
1, 34852, Note_on_c, 9, 38, 0
1, 34852, Note_on_c, 9, 36, 0
1, 34872, Note_on_c, 7, 37, 69
1, 34881, Note_on_c, 3, 69, 0
1, 34889, Note_on_c, 7, 37, 0
1, 34895, Note_on_c, 10, 40, 0
1, 34895, Note_on_c, 11, 40, 0
1, 34895, Note_on_c, 1, 40, 0
1, 34895, Note_on_c, 9, 39, 29
1, 34896, Note_on_c, 1, 44, 94
1, 34896, Note_on_c, 3, 68, 101
1, 34896, Note_on_c, 9, 36, 97
1, 34896, Note_on_c, 9, 81, 28
1, 34896, Note_on_c, 10, 44, 61
1, 34896, Note_on_c, 11, 44, 63
1, 34896, Note_on_c, 13, 80, 77
1, 34896, Note_on_c, 13, 68, 84
1, 34897, Note_on_c, 13, 85, 0
1, 34897, Note_on_c, 13, 73, 0
1, 34897, Note_on_c, 9, 42, 83
1, 34899, Note_on_c, 9, 39, 0
1, 34900, Note_on_c, 9, 81, 0
1, 34900, Note_on_c, 9, 36, 0
1, 34901, Note_on_c, 9, 42, 0
1, 34925, Note_on_c, 3, 68, 0
1, 34936, Note_on_c, 0, 56, 0
1, 34938, Note_on_c, 10, 44, 0
1, 34938, Note_on_c, 11, 44, 0
1, 34938, Note_on_c, 1, 44, 0
1, 34943, Note_on_c, 0, 57, 52
1, 34943, Lyric_t, "mine. "
1, 34943, Lyric_t, "\015"
1, 34943, Lyric_t, "\012"
1, 34944, Note_on_c, 1, 42, 94
1, 34944, Note_on_c, 3, 66, 100
1, 34944, Note_on_c, 8, 54, 81
1, 34944, Note_on_c, 9, 36, 98
1, 34944, Note_on_c, 9, 49, 30
1, 34944, Note_on_c, 9, 81, 31
1, 34944, Note_on_c, 9, 42, 27
1, 34944, Note_on_c, 9, 84, 15
1, 34944, Note_on_c, 10, 42, 46
1, 34944, Note_on_c, 11, 42, 60
1, 34944, Note_on_c, 13, 81, 81
1, 34944, Note_on_c, 13, 69, 79
1, 34944, Note_on_c, 15, 54, 52
1, 34946, Note_on_c, 13, 80, 0
1, 34946, Note_on_c, 13, 68, 0
1, 34948, Note_on_c, 9, 81, 0
1, 34948, Note_on_c, 9, 49, 0
1, 34948, Note_on_c, 9, 84, 0
1, 34948, Note_on_c, 9, 42, 0
1, 34948, Note_on_c, 9, 36, 0
1, 34968, Note_on_c, 15, 57, 51
1, 34982, Note_on_c, 1, 42, 0
1, 34982, Note_on_c, 10, 42, 0
1, 34982, Note_on_c, 11, 42, 0
1, 34984, Control_c, 3, 1, 2
1, 34985, Control_c, 3, 1, 13
1, 34989, Note_on_c, 15, 57, 0
1, 34989, Control_c, 3, 1, 20
1, 34991, Pitch_bend_c, 3, 7168
1, 34991, Note_on_c, 9, 81, 25
1, 34992, Pitch_bend_c, 3, 5120
1, 34992, Note_on_c, 9, 42, 26
1, 34992, Note_on_c, 15, 61, 51
1, 34993, Control_c, 3, 1, 24
1, 34995, Note_on_c, 9, 81, 0
1, 34996, Note_on_c, 9, 42, 0
1, 34996, Pitch_bend_c, 3, 3712
1, 34999, Pitch_bend_c, 3, 1536
1, 35001, Control_c, 3, 1, 25
1, 35002, Pitch_bend_c, 3, 0
1, 35016, Note_on_c, 15, 64, 50
1, 35020, Note_on_c, 15, 61, 0
1, 35021, Control_c, 3, 1, 26
1, 35039, Note_on_c, 9, 81, 24
1, 35040, Note_on_c, 15, 64, 0
1, 35040, Note_on_c, 9, 37, 50
1, 35040, Note_on_c, 9, 69, 57
1, 35040, Note_on_c, 9, 84, 14
1, 35040, Note_on_c, 10, 42, 43
1, 35040, Note_on_c, 15, 68, 49
1, 35041, Note_on_c, 9, 39, 57
1, 35043, Note_on_c, 9, 81, 0
1, 35044, Note_on_c, 9, 84, 0
1, 35044, Note_on_c, 9, 37, 0
1, 35044, Note_on_c, 9, 69, 0
1, 35044, Control_c, 3, 1, 27
1, 35045, Note_on_c, 9, 39, 0
1, 35048, Control_c, 3, 1, 28
1, 35052, Control_c, 3, 1, 29
1, 35059, Control_c, 3, 1, 30
1, 35063, Note_on_c, 9, 81, 24
1, 35064, Note_on_c, 9, 42, 24
1, 35064, Note_on_c, 9, 69, 56
1, 35064, Note_on_c, 15, 64, 49
1, 35067, Note_on_c, 9, 81, 0
1, 35067, Note_on_c, 15, 68, 0
1, 35068, Note_on_c, 9, 69, 0
1, 35068, Note_on_c, 9, 42, 0
1, 35072, Note_on_c, 10, 42, 0
1, 35075, Note_on_c, 8, 54, 0
1, 35087, Note_on_c, 9, 81, 29
1, 35088, Note_on_c, 5, 90, 82
1, 35088, Note_on_c, 8, 57, 73
1, 35088, Note_on_c, 9, 39, 29
1, 35088, Note_on_c, 9, 69, 55
1, 35089, Note_on_c, 15, 57, 48
1, 35090, Note_on_c, 15, 64, 0
1, 35091, Note_on_c, 9, 81, 0
1, 35092, Note_on_c, 9, 69, 0
1, 35092, Note_on_c, 9, 39, 0
1, 35096, Note_on_c, 0, 57, 0
1, 35105, Note_on_c, 5, 90, 0
1, 35107, Note_on_c, 15, 57, 0
1, 35111, Note_on_c, 15, 61, 48
1, 35112, Note_on_c, 9, 69, 54
1, 35116, Note_on_c, 9, 69, 0
1, 35118, Note_on_c, 8, 57, 0
1, 35119, Note_on_c, 5, 92, 78
1, 35122, Note_on_c, 15, 54, 0
1, 35122, Control_c, 3, 1, 29
1, 35127, Note_on_c, 15, 61, 0
1, 35135, Note_on_c, 0, 64, 55
1, 35135, Note_on_c, 9, 84, 20
1, 35135, Lyric_t, "I'm "
1, 35136, Note_on_c, 5, 93, 76
1, 35136, Note_on_c, 8, 54, 70
1, 35136, Note_on_c, 9, 42, 22
1, 35136, Note_on_c, 9, 69, 53
1, 35136, Note_on_c, 9, 81, 27
1, 35136, Note_on_c, 10, 42, 39
1, 35136, Note_on_c, 12, 64, 75
1, 35136, Note_on_c, 15, 54, 47
1, 35139, Note_on_c, 9, 84, 0
1, 35140, Note_on_c, 9, 81, 0
1, 35140, Note_on_c, 9, 69, 0
1, 35140, Note_on_c, 9, 42, 0
1, 35140, Note_on_c, 5, 92, 0
1, 35140, Pitch_bend_c, 3, 1280
1, 35142, Pitch_bend_c, 3, 4736
1, 35146, Pitch_bend_c, 3, 7296
1, 35147, Note_on_c, 3, 66, 0
1, 35150, Pitch_bend_c, 3, 8192
1, 35155, Note_on_c, 5, 93, 0
1, 35160, Note_on_c, 9, 42, 22
1, 35160, Note_on_c, 9, 81, 23
1, 35160, Note_on_c, 15, 69, 46
1, 35164, Note_on_c, 9, 81, 0
1, 35164, Note_on_c, 9, 42, 0
1, 35164, Note_on_c, 8, 54, 0
1, 35166, Note_on_c, 10, 42, 0
1, 35174, Control_c, 3, 1, 28
1, 35179, Note_on_c, 12, 64, 0
1, 35179, Control_c, 3, 1, 26
1, 35184, Note_on_c, 0, 64, 0
1, 35184, Note_on_c, 0, 63, 52
1, 35184, Control_c, 3, 1, 24
1, 35184, Note_on_c, 5, 90, 70
1, 35184, Note_on_c, 8, 57, 67
1, 35184, Note_on_c, 9, 81, 25
1, 35184, Note_on_c, 12, 63, 75
1, 35184, Note_on_c, 15, 57, 46
1, 35184, Lyric_t, "sor"
1, 35185, Note_on_c, 15, 69, 0
1, 35188, Note_on_c, 9, 81, 0
1, 35189, Control_c, 3, 1, 21
1, 35193, Control_c, 3, 1, 17
1, 35196, Control_c, 3, 1, 12
1, 35201, Control_c, 3, 1, 6
1, 35202, Note_on_c, 15, 57, 0
1, 35203, Note_on_c, 5, 90, 0
1, 35205, Control_c, 3, 1, 0
1, 35208, Note_on_c, 9, 42, 21
1, 35208, Note_on_c, 9, 81, 30
1, 35208, Note_on_c, 15, 64, 45
1, 35212, Note_on_c, 9, 81, 0
1, 35212, Note_on_c, 9, 42, 0
1, 35215, Note_on_c, 5, 92, 66
1, 35229, Note_on_c, 12, 63, 0
1, 35231, Note_on_c, 0, 63, 0
1, 35231, Note_on_c, 9, 84, 18
1, 35232, Note_on_c, 0, 61, 47
1, 35232, Note_on_c, 5, 93, 64
1, 35232, Note_on_c, 9, 37, 38
1, 35232, Note_on_c, 9, 39, 35
1, 35232, Note_on_c, 10, 42, 36
1, 35232, Note_on_c, 15, 61, 44
1, 35232, Note_on_c, 15, 57, 44
1, 35232, Lyric_t, "ry "
1, 35233, Note_on_c, 15, 64, 0
1, 35233, Note_on_c, 12, 64, 67
1, 35235, Note_on_c, 9, 84, 0
1, 35236, Note_on_c, 9, 39, 0
1, 35236, Note_on_c, 9, 37, 0
1, 35236, Note_on_c, 5, 92, 0
1, 35251, Note_on_c, 5, 93, 0
1, 35251, Note_on_c, 15, 57, 0
1, 35256, Note_on_c, 15, 57, 44
1, 35257, Note_on_c, 15, 61, 0
1, 35266, Note_on_c, 10, 42, 0
1, 35276, Note_on_c, 12, 64, 0
1, 35278, Note_on_c, 15, 57, 0
1, 35279, Note_on_c, 9, 39, 17
1, 35280, Note_on_c, 0, 59, 54
1, 35280, Note_on_c, 5, 90, 58
1, 35280, Note_on_c, 9, 42, 19
1, 35280, Note_on_c, 9, 81, 22
1, 35280, Note_on_c, 15, 61, 43
1, 35280, Note_on_c, 15, 57, 43
1, 35280, Lyric_t, "that "
1, 35281, Note_on_c, 12, 64, 70
1, 35283, Note_on_c, 9, 39, 0
1, 35283, Note_on_c, 0, 61, 0
1, 35284, Note_on_c, 9, 81, 0
1, 35284, Note_on_c, 9, 42, 0
1, 35285, Note_on_c, 8, 57, 0
1, 35296, Note_on_c, 15, 54, 0
1, 35297, Note_on_c, 15, 57, 0
1, 35299, Note_on_c, 5, 90, 0
1, 35304, Note_on_c, 8, 54, 60
1, 35304, Note_on_c, 15, 54, 43
1, 35305, Note_on_c, 15, 61, 0
1, 35311, Note_on_c, 5, 92, 54
1, 35325, Note_on_c, 8, 54, 0
1, 35326, Note_on_c, 12, 64, 0
1, 35327, Note_on_c, 0, 61, 56
1, 35327, Lyric_t, "you "
1, 35327, Lyric_t, "\015"
1, 35328, Tempo, 645161
1, 35328, Note_on_c, 15, 54, 0
1, 35328, Note_on_c, 3, 66, 96
1, 35328, Note_on_c, 5, 93, 51
1, 35328, Note_on_c, 7, 42, 82
1, 35328, Note_on_c, 8, 54, 59
1, 35328, Note_on_c, 9, 81, 25
1, 35328, Note_on_c, 10, 42, 33
1, 35328, Note_on_c, 15, 66, 42
1, 35329, Note_on_c, 12, 66, 75
1, 35332, Note_on_c, 9, 81, 0
1, 35333, Note_on_c, 0, 59, 0
1, 35336, Note_on_c, 5, 92, 0
1, 35351, Control_c, 3, 1, 7
1, 35351, Note_on_c, 15, 57, 41
1, 35353, Control_c, 3, 1, 19
1, 35357, Note_on_c, 5, 93, 0
1, 35358, Control_c, 3, 1, 25
1, 35363, Control_c, 3, 1, 29
1, 35366, Note_on_c, 10, 42, 0
1, 35367, Control_c, 3, 1, 31
1, 35370, Note_on_c, 15, 57, 0
1, 35375, Note_on_c, 9, 81, 31
1, 35375, Note_on_c, 15, 61, 41
1, 35379, Note_on_c, 9, 81, 0
1, 35399, Note_on_c, 15, 57, 40
1, 35400, Note_on_c, 7, 42, 0
1, 35400, Note_on_c, 7, 42, 73
1, 35400, Note_on_c, 9, 42, 16
1, 35401, Control_c, 3, 1, 30
1, 35404, Note_on_c, 9, 42, 0
1, 35414, Control_c, 3, 1, 29
1, 35415, Note_on_c, 13, 69, 0
1, 35415, Note_on_c, 13, 81, 0
1, 35418, Control_c, 3, 1, 26
1, 35419, Note_on_c, 15, 57, 0
1, 35420, Note_on_c, 15, 61, 0
1, 35422, Control_c, 3, 1, 23
1, 35423, Note_on_c, 7, 42, 0
1, 35423, Note_on_c, 9, 42, 15
1, 35423, Note_on_c, 9, 69, 44
1, 35423, Note_on_c, 9, 81, 29
1, 35423, Note_on_c, 13, 83, 65
1, 35423, Note_on_c, 13, 71, 61
1, 35423, Note_on_c, 15, 57, 39
1, 35423, Note_on_c, 15, 64, 39
1, 35424, Note_on_c, 9, 37, 27
1, 35424, Note_on_c, 10, 42, 29
1, 35425, Note_on_c, 9, 39, 18
1, 35426, Control_c, 3, 1, 15
1, 35427, Note_on_c, 9, 81, 0
1, 35427, Note_on_c, 9, 69, 0
1, 35427, Note_on_c, 9, 42, 0
1, 35428, Note_on_c, 9, 37, 0
1, 35429, Note_on_c, 9, 39, 0
1, 35430, Control_c, 3, 1, 4
1, 35434, Control_c, 3, 1, 0
1, 35437, Note_on_c, 15, 57, 0
1, 35441, Note_on_c, 3, 66, 0
1, 35442, Note_on_c, 15, 66, 0
1, 35442, Note_on_c, 15, 64, 0
1, 35447, Note_on_c, 9, 81, 26
1, 35448, Note_on_c, 15, 68, 39
1, 35451, Note_on_c, 9, 81, 0
1, 35456, Note_on_c, 10, 42, 0
1, 35461, Note_on_c, 8, 54, 0
1, 35463, Note_on_c, 12, 66, 0
1, 35469, Note_on_c, 15, 68, 0
1, 35471, Note_on_c, 8, 57, 50
1, 35471, Note_on_c, 9, 69, 42
1, 35471, Note_on_c, 9, 81, 30
1, 35471, Note_on_c, 9, 42, 14
1, 35471, Note_on_c, 13, 85, 60
1, 35471, Note_on_c, 13, 73, 55
1, 35472, Note_on_c, 7, 42, 71
1, 35472, Note_on_c, 9, 39, 10
1, 35472, Note_on_c, 15, 57, 38
1, 35474, Note_on_c, 13, 83, 0
1, 35474, Note_on_c, 13, 71, 0
1, 35475, Note_on_c, 9, 69, 0
1, 35475, Note_on_c, 9, 81, 0
1, 35475, Note_on_c, 9, 42, 0
1, 35476, Note_on_c, 9, 39, 0
1, 35487, Note_on_c, 0, 61, 0
1, 35488, Note_on_c, 15, 57, 0
1, 35491, Note_on_c, 8, 57, 0
1, 35493, Note_on_c, 7, 42, 0
1, 35495, Note_on_c, 15, 69, 38
1, 35514, Note_on_c, 15, 69, 0
1, 35518, Note_on_c, 13, 73, 0
1, 35518, Note_on_c, 13, 85, 0
1, 35519, Note_on_c, 0, 66, 56
1, 35519, Note_on_c, 8, 57, 48
1, 35519, Note_on_c, 9, 42, 13
1, 35519, Note_on_c, 13, 87, 55
1, 35519, Note_on_c, 13, 75, 49
1, 35519, Lyric_t, "seem "
1, 35520, Note_on_c, 9, 81, 28
1, 35520, Note_on_c, 10, 42, 26
1, 35520, Note_on_c, 15, 57, 37
1, 35521, Note_on_c, 12, 66, 72
1, 35523, Note_on_c, 9, 42, 0
1, 35524, Note_on_c, 9, 81, 0
1, 35539, Note_on_c, 15, 57, 0
1, 35539, Note_on_c, 8, 57, 0
1, 35544, Note_on_c, 9, 42, 12
1, 35544, Note_on_c, 9, 81, 23
1, 35544, Note_on_c, 15, 64, 36
1, 35548, Note_on_c, 9, 81, 0
1, 35548, Note_on_c, 9, 42, 0
1, 35550, Note_on_c, 10, 42, 0
1, 35562, Note_on_c, 15, 64, 0
1, 35567, Note_on_c, 13, 87, 0
1, 35567, Note_on_c, 13, 75, 0
1, 35567, Note_on_c, 8, 57, 45
1, 35567, Note_on_c, 9, 69, 39
1, 35567, Note_on_c, 13, 85, 50
1, 35567, Note_on_c, 13, 73, 44
1, 35567, Note_on_c, 15, 57, 36
1, 35568, Note_on_c, 0, 64, 52
1, 35568, Note_on_c, 7, 42, 76
1, 35568, Note_on_c, 9, 81, 28
1, 35568, Lyric_t, "to "
1, 35570, Note_on_c, 12, 64, 67
1, 35571, Note_on_c, 9, 69, 0
1, 35572, Note_on_c, 9, 81, 0
1, 35576, Note_on_c, 12, 66, 0
1, 35579, Note_on_c, 7, 42, 0
1, 35581, Note_on_c, 0, 66, 0
1, 35585, Note_on_c, 15, 57, 0
1, 35586, Note_on_c, 8, 57, 0
1, 35592, Note_on_c, 9, 81, 24
1, 35592, Note_on_c, 15, 61, 35
1, 35596, Note_on_c, 9, 81, 0
1, 35612, Note_on_c, 15, 61, 0
1, 35614, Note_on_c, 12, 64, 0
1, 35615, Note_on_c, 13, 85, 0
1, 35615, Note_on_c, 13, 73, 0
1, 35615, Note_on_c, 8, 54, 42
1, 35615, Note_on_c, 13, 83, 45
1, 35615, Note_on_c, 13, 71, 38
1, 35615, Note_on_c, 15, 54, 34
1, 35616, Note_on_c, 0, 63, 48
1, 35616, Note_on_c, 9, 37, 15
1, 35616, Note_on_c, 9, 39, 15
1, 35616, Note_on_c, 10, 44, 23
1, 35616, Lyric_t, "be "
1, 35617, Note_on_c, 12, 63, 70
1, 35620, Note_on_c, 9, 39, 0
1, 35620, Note_on_c, 9, 37, 0
1, 35620, Note_on_c, 0, 64, 0
1, 35639, Note_on_c, 15, 61, 34
1, 35659, Note_on_c, 3, 68, 96
1, 35659, Lyric_t, "con"
1, 35660, Note_on_c, 10, 44, 0
1, 35662, Note_on_c, 15, 61, 0
1, 35662, Note_on_c, 15, 64, 33
1, 35663, Note_on_c, 15, 54, 0
1, 35663, Note_on_c, 9, 39, 7
1, 35664, Note_on_c, 0, 61, 55
1, 35664, Note_on_c, 9, 81, 28
1, 35664, Note_on_c, 13, 78, 40
1, 35664, Note_on_c, 13, 66, 32
1, 35665, Note_on_c, 13, 71, 0
1, 35665, Note_on_c, 13, 83, 0
1, 35665, Note_on_c, 9, 42, 10
1, 35666, Note_on_c, 0, 63, 0
1, 35666, Note_on_c, 10, 39, 21
1, 35666, Note_on_c, 12, 66, 69
1, 35667, Note_on_c, 9, 39, 0
1, 35668, Note_on_c, 9, 81, 0
1, 35669, Note_on_c, 9, 42, 0
1, 35670, Note_on_c, 12, 63, 0
1, 35679, Note_on_c, 3, 68, 0
1, 35687, Note_on_c, 15, 64, 0
1, 35687, Note_on_c, 15, 68, 33
1, 35700, Note_on_c, 8, 54, 0
1, 35704, Note_on_c, 15, 68, 0
1, 35708, Note_on_c, 10, 39, 0
1, 35709, Note_on_c, 13, 78, 0
1, 35709, Note_on_c, 13, 66, 0
1, 35711, Note_on_c, 13, 80, 35
1, 35711, Note_on_c, 13, 68, 26
1, 35712, Note_on_c, 0, 63, 54
1, 35712, Note_on_c, 3, 68, 101
1, 35712, Note_on_c, 9, 49, 32
1, 35712, Note_on_c, 9, 81, 28
1, 35712, Note_on_c, 9, 42, 8
1, 35712, Note_on_c, 9, 84, 12
1, 35712, Note_on_c, 10, 37, 19
1, 35712, Note_on_c, 15, 49, 32
1, 35712, Lyric_t, "fused, "
1, 35712, Lyric_t, "\015"
1, 35712, Lyric_t, "\012"
1, 35714, Note_on_c, 12, 66, 0
1, 35714, Note_on_c, 12, 68, 66
1, 35716, Note_on_c, 9, 84, 0
1, 35716, Note_on_c, 9, 81, 0
1, 35716, Note_on_c, 9, 42, 0
1, 35716, Note_on_c, 9, 49, 0
1, 35718, Note_on_c, 0, 61, 0
1, 35735, Note_on_c, 15, 56, 31
1, 35736, Note_on_c, 8, 56, 35
1, 35750, Note_on_c, 8, 56, 0
1, 35752, Note_on_c, 3, 68, 0
1, 35756, Note_on_c, 15, 56, 0
1, 35759, Note_on_c, 9, 81, 27
1, 35759, Note_on_c, 15, 59, 31
1, 35760, Note_on_c, 9, 42, 7
1, 35761, Note_on_c, 3, 66, 63
1, 35763, Note_on_c, 9, 81, 0
1, 35764, Note_on_c, 9, 42, 0
1, 35765, Note_on_c, 10, 37, 0
1, 35783, Note_on_c, 3, 64, 101
1, 35783, Note_on_c, 15, 56, 30
1, 35784, Note_on_c, 8, 56, 32
1, 35786, Note_on_c, 3, 66, 0
1, 35787, Note_on_c, 15, 59, 0
1, 35801, Note_on_c, 8, 56, 0
1, 35804, Note_on_c, 15, 56, 0
1, 35806, Control_c, 3, 1, 10
1, 35807, Note_on_c, 9, 81, 23
1, 35807, Note_on_c, 15, 63, 29
1, 35808, Control_c, 3, 1, 26
1, 35808, Note_on_c, 9, 69, 31
1, 35808, Note_on_c, 9, 84, 10
1, 35808, Note_on_c, 10, 37, 16
1, 35809, Note_on_c, 9, 39, 26
1, 35811, Note_on_c, 9, 81, 0
1, 35812, Note_on_c, 9, 84, 0
1, 35812, Note_on_c, 9, 69, 0
1, 35813, Note_on_c, 9, 39, 0
1, 35813, Control_c, 3, 1, 38
1, 35817, Control_c, 3, 1, 44
1, 35821, Control_c, 3, 1, 48
1, 35822, Note_on_c, 3, 64, 0
1, 35826, Control_c, 3, 1, 49
1, 35829, Note_on_c, 15, 63, 0
1, 35831, Note_on_c, 8, 56, 29
1, 35831, Note_on_c, 9, 81, 25
1, 35831, Note_on_c, 15, 56, 29
1, 35832, Note_on_c, 9, 42, 5
1, 35832, Note_on_c, 9, 69, 30
1, 35834, Control_c, 3, 1, 48
1, 35835, Note_on_c, 9, 81, 0
1, 35836, Note_on_c, 9, 69, 0
1, 35836, Note_on_c, 9, 42, 0
1, 35836, Control_c, 3, 1, 47
1, 35838, Note_on_c, 10, 37, 0
1, 35839, Control_c, 3, 1, 44
1, 35844, Control_c, 3, 1, 39
1, 35849, Note_on_c, 8, 56, 0
1, 35849, Control_c, 3, 1, 26
1, 35852, Note_on_c, 15, 56, 0
1, 35853, Control_c, 3, 1, 4
1, 35855, Note_on_c, 9, 81, 23
1, 35855, Note_on_c, 15, 59, 28
1, 35856, Note_on_c, 5, 88, 85
1, 35856, Note_on_c, 9, 39, 11
1, 35856, Note_on_c, 9, 69, 29
1, 35857, Control_c, 3, 1, 1
1, 35858, Note_on_c, 12, 68, 0
1, 35859, Note_on_c, 9, 81, 0
1, 35860, Note_on_c, 9, 69, 0
1, 35860, Note_on_c, 9, 39, 0
1, 35874, Note_on_c, 5, 88, 0
1, 35879, Note_on_c, 15, 59, 0
1, 35879, Note_on_c, 8, 56, 26
1, 35879, Note_on_c, 15, 56, 27
1, 35880, Note_on_c, 0, 63, 0
1, 35880, Note_on_c, 9, 69, 29
1, 35884, Note_on_c, 9, 69, 0
1, 35888, Note_on_c, 5, 90, 81
1, 35898, Note_on_c, 8, 56, 0
1, 35903, Note_on_c, 0, 64, 56
1, 35903, Note_on_c, 5, 92, 79
1, 35903, Note_on_c, 9, 84, 8
1, 35903, Note_on_c, 10, 37, 13
1, 35903, Note_on_c, 15, 63, 27
1, 35903, Lyric_t, "He "
1, 35904, Note_on_c, 15, 56, 0
1, 35904, Note_on_c, 9, 42, 4
1, 35904, Note_on_c, 9, 69, 28
1, 35904, Note_on_c, 9, 81, 31
1, 35905, Note_on_c, 5, 90, 0
1, 35905, Note_on_c, 12, 64, 66
1, 35907, Note_on_c, 9, 84, 0
1, 35908, Note_on_c, 9, 69, 0
1, 35908, Note_on_c, 9, 42, 0
1, 35908, Note_on_c, 9, 81, 0
1, 35918, Note_on_c, 5, 92, 0
1, 35922, Note_on_c, 15, 63, 0
1, 35927, Note_on_c, 8, 56, 24
1, 35927, Note_on_c, 15, 56, 26
1, 35928, Note_on_c, 9, 42, 3
1, 35928, Note_on_c, 9, 81, 23
1, 35932, Note_on_c, 9, 81, 0
1, 35932, Note_on_c, 9, 42, 0
1, 35940, Note_on_c, 10, 37, 0
1, 35941, Note_on_c, 15, 56, 0
1, 35946, Note_on_c, 8, 56, 0
1, 35950, Note_on_c, 12, 64, 0
1, 35951, Note_on_c, 15, 56, 26
1, 35951, Note_on_c, 15, 61, 26
1, 35952, Note_on_c, 0, 63, 50
1, 35952, Note_on_c, 5, 88, 73
1, 35952, Note_on_c, 9, 81, 28
1, 35952, Lyric_t, "be"
1, 35953, Note_on_c, 12, 63, 71
1, 35954, Note_on_c, 0, 64, 0
1, 35956, Note_on_c, 9, 81, 0
1, 35962, Note_on_c, 15, 61, 0
1, 35965, Note_on_c, 15, 56, 0
1, 35967, Note_on_c, 5, 88, 0
1, 35975, Note_on_c, 15, 56, 25
1, 35975, Note_on_c, 15, 64, 25
1, 35976, Note_on_c, 8, 56, 21
1, 35976, Note_on_c, 9, 42, 2
1, 35976, Note_on_c, 9, 81, 24
1, 35980, Note_on_c, 9, 81, 0
1, 35980, Note_on_c, 9, 42, 0
1, 35984, Note_on_c, 5, 90, 69
1, 35989, Note_on_c, 8, 56, 0
1, 35991, Note_on_c, 15, 64, 0
1, 35996, Note_on_c, 0, 63, 0
1, 35997, Note_on_c, 5, 90, 0
1, 35998, Note_on_c, 12, 63, 0
1, 35999, Note_on_c, 5, 92, 67
1, 36000, Note_on_c, 0, 61, 49
1, 36000, Note_on_c, 8, 56, 19
1, 36000, Note_on_c, 9, 39, 24
1, 36000, Note_on_c, 9, 84, 6
1, 36000, Note_on_c, 10, 37, 9
1, 36000, Lyric_t, "longs "
1, 36002, Note_on_c, 12, 61, 68
1, 36003, Note_on_c, 15, 49, 0
1, 36004, Note_on_c, 9, 84, 0
1, 36004, Note_on_c, 9, 39, 0
1, 36013, Note_on_c, 5, 92, 0
1, 36015, Note_on_c, 15, 56, 0
1, 36023, Note_on_c, 15, 66, 24
1, 36026, Note_on_c, 8, 56, 0
1, 36033, Note_on_c, 10, 37, 0
1, 36045, Note_on_c, 0, 61, 0
1, 36046, Note_on_c, 12, 61, 0
1, 36047, Note_on_c, 5, 88, 60
1, 36047, Note_on_c, 8, 56, 17
1, 36047, Note_on_c, 9, 39, 11
1, 36047, Note_on_c, 15, 56, 23
1, 36048, Note_on_c, 0, 59, 51
1, 36048, Note_on_c, 9, 42, 1
1, 36048, Note_on_c, 9, 81, 29
1, 36048, Lyric_t, "to "
1, 36049, Note_on_c, 15, 66, 0
1, 36049, Note_on_c, 12, 59, 75
1, 36051, Note_on_c, 9, 39, 0
1, 36052, Note_on_c, 9, 81, 0
1, 36052, Note_on_c, 9, 42, 0
1, 36062, Note_on_c, 5, 88, 0
1, 36070, Note_on_c, 8, 56, 0
1, 36072, Note_on_c, 15, 56, 0
1, 36080, Note_on_c, 5, 90, 56
1, 36090, Note_on_c, 0, 59, 0
1, 36091, Note_on_c, 5, 90, 0
1, 36092, Note_on_c, 12, 59, 0
1, 36093, Note_on_c, 13, 68, 0
1, 36093, Note_on_c, 13, 80, 0
1, 36095, Note_on_c, 0, 61, 53
1, 36095, Note_on_c, 5, 92, 54
1, 36095, Lyric_t, "me, "
1, 36095, Lyric_t, "\015"
1, 36096, Tempo, 638298
1, 36096, Note_on_c, 9, 81, 31
1, 36096, Note_on_c, 12, 64, 70
1, 36096, Note_on_c, 15, 59, 22
1, 36100, Note_on_c, 9, 81, 0
1, 36109, Note_on_c, 5, 92, 0
1, 36129, Note_on_c, 15, 59, 0
1, 36183, Note_on_c, 12, 64, 0
1, 36189, Note_on_c, 0, 61, 0
1, 36192, Note_on_c, 0, 56, 47
1, 36192, Lyric_t, "The "
1, 36193, Note_on_c, 12, 56, 74
1, 36195, Note_on_c, 2, 56, 59
1, 36242, Note_on_c, 2, 56, 0
1, 36269, Note_on_c, 12, 56, 0
1, 36283, Note_on_c, 0, 56, 0
1, 36287, Note_on_c, 2, 61, 57
1, 36288, Note_on_c, 0, 61, 52
1, 36288, Note_on_c, 12, 61, 66
1, 36288, Lyric_t, "boy "
1, 36341, Note_on_c, 2, 61, 0
1, 36370, Note_on_c, 12, 61, 0
1, 36379, Note_on_c, 0, 61, 0
1, 36384, Note_on_c, 0, 56, 53
1, 36384, Lyric_t, "is "
1, 36385, Note_on_c, 12, 56, 66
1, 36387, Note_on_c, 2, 56, 56
1, 36436, Note_on_c, 2, 56, 0
1, 36458, Note_on_c, 12, 56, 0
1, 36470, Note_on_c, 0, 56, 0
1, 36480, Note_on_c, 0, 57, 53
1, 36480, Note_on_c, 2, 57, 55
1, 36480, Note_on_c, 12, 57, 74
1, 36480, Lyric_t, "mine. "
1, 36480, Lyric_t, "\015"
1, 36480, Lyric_t, "\012"
1, 36500, Pitch_bend_c, 2, 11052
1, 36500, Pitch_bend_c, 12, 8582
1, 36501, Pitch_bend_c, 12, 11052
1, 36505, Pitch_bend_c, 0, 12482
1, 36505, Pitch_bend_c, 2, 13912
1, 36505, Pitch_bend_c, 12, 13912
1, 36508, Pitch_bend_c, 0, 16382
1, 36508, Pitch_bend_c, 2, 16382
1, 36508, Pitch_bend_c, 12, 16382
1, 36526, Control_c, 2, 1, 12
1, 36528, Control_c, 2, 1, 35
1, 36530, Pitch_bend_c, 2, 13782
1, 36530, Pitch_bend_c, 12, 13782
1, 36532, Control_c, 2, 1, 48
1, 36533, Pitch_bend_c, 2, 10272
1, 36533, Pitch_bend_c, 12, 10272
1, 36534, Pitch_bend_c, 0, 13912
1, 36536, Pitch_bend_c, 2, 8192
1, 36536, Pitch_bend_c, 12, 8192
1, 36537, Pitch_bend_c, 0, 8192
1, 36538, Control_c, 2, 1, 53
1, 36541, Control_c, 2, 1, 57
1, 36546, Control_c, 2, 1, 59
1, 36550, Control_c, 2, 1, 61
1, 36556, Control_c, 2, 1, 62
1, 36559, Control_c, 2, 1, 63
1, 36567, Control_c, 2, 1, 64
1, 36568, Control_c, 2, 11, 126
1, 36572, Control_c, 2, 11, 125
1, 36576, Control_c, 2, 11, 123
1, 36580, Control_c, 2, 11, 122
1, 36584, Control_c, 2, 11, 121
1, 36588, Control_c, 2, 11, 120
1, 36590, Control_c, 2, 1, 63
1, 36592, Control_c, 2, 11, 118
1, 36596, Control_c, 2, 11, 117
1, 36596, Control_c, 12, 11, 126
1, 36600, Control_c, 2, 11, 116
1, 36600, Control_c, 12, 11, 124
1, 36604, Control_c, 2, 11, 114
1, 36604, Control_c, 12, 11, 123
1, 36608, Control_c, 0, 11, 126
1, 36608, Control_c, 2, 11, 113
1, 36608, Control_c, 12, 11, 122
1, 36612, Control_c, 0, 11, 125
1, 36612, Control_c, 2, 11, 112
1, 36612, Control_c, 12, 11, 121
1, 36613, Control_c, 2, 1, 62
1, 36616, Control_c, 0, 11, 124
1, 36616, Control_c, 2, 11, 111
1, 36616, Control_c, 12, 11, 119
1, 36620, Control_c, 0, 11, 122
1, 36620, Control_c, 2, 11, 109
1, 36620, Control_c, 12, 11, 118
1, 36624, Control_c, 0, 11, 121
1, 36624, Control_c, 2, 11, 108
1, 36624, Control_c, 2, 1, 61
1, 36624, Control_c, 12, 11, 117
1, 36627, Control_c, 2, 1, 57
1, 36628, Control_c, 0, 11, 120
1, 36628, Control_c, 2, 11, 107
1, 36628, Control_c, 12, 11, 115
1, 36631, Control_c, 2, 1, 50
1, 36632, Control_c, 0, 11, 119
1, 36632, Control_c, 2, 11, 105
1, 36632, Control_c, 12, 11, 114
1, 36636, Control_c, 0, 11, 117
1, 36636, Control_c, 2, 11, 104
1, 36636, Control_c, 2, 1, 41
1, 36636, Control_c, 12, 11, 113
1, 36640, Control_c, 0, 11, 116
1, 36640, Control_c, 2, 11, 103
1, 36640, Control_c, 2, 1, 26
1, 36640, Control_c, 12, 11, 112
1, 36644, Control_c, 0, 11, 115
1, 36644, Control_c, 2, 11, 102
1, 36644, Control_c, 12, 11, 110
1, 36646, Control_c, 2, 1, 10
1, 36648, Control_c, 0, 11, 114
1, 36648, Control_c, 2, 11, 100
1, 36648, Control_c, 12, 11, 109
1, 36649, Control_c, 2, 1, 1
1, 36652, Control_c, 0, 11, 113
1, 36652, Control_c, 2, 11, 99
1, 36652, Control_c, 12, 11, 108
1, 36656, Control_c, 0, 11, 111
1, 36656, Control_c, 2, 11, 98
1, 36656, Control_c, 12, 11, 106
1, 36660, Control_c, 0, 11, 110
1, 36660, Control_c, 2, 11, 96
1, 36660, Control_c, 12, 11, 105
1, 36664, Control_c, 0, 11, 109
1, 36664, Control_c, 2, 11, 95
1, 36664, Control_c, 12, 11, 104
1, 36668, Control_c, 0, 11, 108
1, 36668, Control_c, 2, 11, 94
1, 36668, Control_c, 12, 11, 103
1, 36672, Control_c, 0, 11, 106
1, 36672, Control_c, 2, 11, 92
1, 36672, Control_c, 12, 11, 101
1, 36676, Control_c, 0, 11, 105
1, 36676, Control_c, 2, 11, 91
1, 36676, Control_c, 12, 11, 100
1, 36680, Control_c, 0, 11, 104
1, 36680, Control_c, 2, 11, 90
1, 36680, Control_c, 12, 11, 99
1, 36684, Control_c, 0, 11, 103
1, 36684, Control_c, 2, 11, 89
1, 36684, Control_c, 12, 11, 98
1, 36688, Control_c, 0, 11, 101
1, 36688, Control_c, 2, 11, 87
1, 36688, Control_c, 12, 11, 96
1, 36692, Control_c, 0, 11, 100
1, 36692, Control_c, 2, 11, 86
1, 36692, Control_c, 12, 11, 95
1, 36696, Control_c, 0, 11, 99
1, 36696, Control_c, 2, 11, 85
1, 36696, Control_c, 12, 11, 94
1, 36700, Control_c, 0, 11, 98
1, 36700, Control_c, 2, 11, 83
1, 36700, Control_c, 12, 11, 92
1, 36704, Control_c, 0, 11, 96
1, 36704, Control_c, 2, 11, 82
1, 36704, Control_c, 12, 11, 91
1, 36708, Control_c, 0, 11, 95
1, 36708, Control_c, 2, 11, 81
1, 36708, Control_c, 12, 11, 90
1, 36712, Control_c, 0, 11, 94
1, 36712, Control_c, 2, 11, 80
1, 36712, Control_c, 12, 11, 89
1, 36716, Control_c, 0, 11, 93
1, 36716, Control_c, 2, 11, 78
1, 36716, Control_c, 12, 11, 87
1, 36720, Control_c, 0, 11, 92
1, 36720, Control_c, 2, 11, 77
1, 36720, Control_c, 12, 11, 86
1, 36724, Control_c, 0, 11, 90
1, 36724, Control_c, 2, 11, 76
1, 36724, Control_c, 12, 11, 85
1, 36728, Control_c, 0, 11, 89
1, 36728, Control_c, 2, 11, 74
1, 36728, Control_c, 12, 11, 84
1, 36732, Control_c, 0, 11, 88
1, 36732, Control_c, 2, 11, 73
1, 36732, Control_c, 12, 11, 82
1, 36736, Control_c, 0, 11, 87
1, 36736, Control_c, 2, 11, 72
1, 36736, Control_c, 12, 11, 81
1, 36740, Control_c, 0, 11, 85
1, 36740, Control_c, 2, 11, 71
1, 36740, Control_c, 12, 11, 80
1, 36744, Control_c, 0, 11, 84
1, 36744, Control_c, 2, 11, 69
1, 36744, Control_c, 12, 11, 78
1, 36748, Control_c, 0, 11, 83
1, 36748, Control_c, 2, 11, 68
1, 36748, Control_c, 12, 11, 77
1, 36752, Control_c, 0, 11, 82
1, 36752, Control_c, 2, 11, 67
1, 36752, Control_c, 12, 11, 76
1, 36756, Control_c, 0, 11, 80
1, 36756, Control_c, 2, 11, 65
1, 36756, Control_c, 12, 11, 75
1, 36758, Note_on_c, 12, 57, 0
1, 36760, Control_c, 0, 11, 79
1, 36760, Control_c, 2, 11, 64
1, 36760, Control_c, 12, 11, 73
1, 36764, Control_c, 0, 11, 78
1, 36764, Control_c, 2, 11, 63
1, 36764, Control_c, 12, 11, 72
1, 36768, Control_c, 0, 11, 77
1, 36768, Control_c, 2, 11, 61
1, 36768, Control_c, 12, 11, 71
1, 36772, Control_c, 0, 11, 76
1, 36772, Control_c, 2, 11, 60
1, 36772, Control_c, 12, 11, 70
1, 36776, Control_c, 0, 11, 74
1, 36776, Control_c, 2, 11, 59
1, 36776, Control_c, 12, 11, 68
1, 36780, Control_c, 0, 11, 73
1, 36780, Control_c, 2, 11, 58
1, 36780, Control_c, 12, 11, 67
1, 36784, Control_c, 0, 11, 72
1, 36784, Control_c, 2, 11, 56
1, 36784, Control_c, 12, 11, 66
1, 36788, Control_c, 0, 11, 71
1, 36788, Control_c, 2, 11, 55
1, 36788, Control_c, 12, 11, 64
1, 36792, Control_c, 0, 11, 69
1, 36792, Control_c, 2, 11, 54
1, 36792, Control_c, 12, 11, 63
1, 36796, Control_c, 0, 11, 68
1, 36796, Control_c, 2, 11, 52
1, 36796, Control_c, 12, 11, 62
1, 36800, Control_c, 0, 11, 67
1, 36800, Control_c, 2, 11, 51
1, 36800, Control_c, 12, 11, 61
1, 36804, Control_c, 0, 11, 66
1, 36804, Control_c, 2, 11, 50
1, 36804, Control_c, 12, 11, 59
1, 36808, Control_c, 0, 11, 64
1, 36808, Control_c, 2, 11, 49
1, 36808, Control_c, 12, 11, 58
1, 36812, Control_c, 0, 11, 63
1, 36812, Control_c, 2, 11, 47
1, 36812, Control_c, 12, 11, 57
1, 36815, Note_on_c, 2, 57, 0
1, 36816, Control_c, 0, 11, 62
1, 36816, Control_c, 2, 11, 46
1, 36816, Control_c, 12, 11, 56
1, 36820, Note_on_c, 0, 57, 0
1, 36820, Control_c, 0, 11, 61
1, 36820, Control_c, 2, 11, 45
1, 36820, Control_c, 12, 11, 54
1, 36824, Control_c, 0, 11, 59
1, 36824, Control_c, 2, 11, 43
1, 36824, Control_c, 12, 11, 53
1, 36828, Control_c, 0, 11, 58
1, 36828, Control_c, 2, 11, 42
1, 36828, Control_c, 12, 11, 52
1, 36832, Control_c, 0, 11, 57
1, 36832, Control_c, 2, 11, 41
1, 36832, Control_c, 12, 11, 50
1, 36836, Control_c, 0, 11, 56
1, 36836, Control_c, 2, 11, 39
1, 36836, Control_c, 12, 11, 49
1, 36840, Control_c, 0, 11, 55
1, 36840, Control_c, 2, 11, 38
1, 36840, Control_c, 12, 11, 48
1, 36844, Control_c, 0, 11, 53
1, 36844, Control_c, 2, 11, 37
1, 36844, Control_c, 12, 11, 47
1, 36848, Control_c, 0, 11, 52
1, 36848, Control_c, 2, 11, 36
1, 36848, Control_c, 12, 11, 45
1, 36852, Control_c, 0, 11, 51
1, 36852, Control_c, 2, 11, 34
1, 36852, Control_c, 12, 11, 44
1, 36856, Control_c, 0, 11, 50
1, 36856, Control_c, 2, 11, 33
1, 36856, Control_c, 12, 11, 43
1, 36860, Control_c, 0, 11, 48
1, 36860, Control_c, 2, 11, 32
1, 36860, Control_c, 12, 11, 42
1, 36864, Control_c, 0, 11, 47
1, 36864, Control_c, 2, 11, 30
1, 36868, Control_c, 0, 11, 46
1, 36868, Control_c, 2, 11, 29
1, 36872, Control_c, 0, 11, 45
1, 36872, Control_c, 2, 11, 28
1, 36876, Control_c, 0, 11, 43
1, 36876, Control_c, 2, 11, 27
1, 36880, Control_c, 0, 11, 42
1, 36880, Control_c, 2, 11, 25
1, 36884, Control_c, 0, 11, 41
1, 36884, Control_c, 2, 11, 24
1, 36888, Control_c, 0, 11, 40
1, 36888, Control_c, 2, 11, 23
1, 36892, Control_c, 0, 11, 38
1, 36896, Control_c, 0, 11, 37
1, 36900, Control_c, 0, 11, 36
1, 36904, Control_c, 0, 11, 35
1, 36908, Control_c, 0, 11, 34
1, 36992, Control_c, 2, 11, 127
1, 37020, Control_c, 0, 11, 127
1, 37144, Control_c, 12, 11, 127
1, 37144, End_track
0, 0, End_of_file
