0, 0, Header, 1, 6, 384
1, 0, Start_track
1, 0, Tempo, 363540
1, 0, Time_signature, 4, 2, 24, 8
1, 218112, End_track
2, 0, Start_track
2, 0, Title_t, "DRUMS"
2, 192, Program_c, 0, 67
2, 288, Program_c, 0, 99
2, 1532, Note_on_c, 0, 36, 57
2, 1562, Note_off_c, 0, 36, 57
2, 1912, Note_on_c, 0, 36, 59
2, 1942, Note_off_c, 0, 36, 59
2, 2299, Note_on_c, 0, 36, 57
2, 2329, Note_off_c, 0, 36, 57
2, 2687, Note_on_c, 0, 36, 57
2, 2717, Note_off_c, 0, 36, 57
2, 3067, Note_on_c, 0, 36, 110
2, 3097, Note_off_c, 0, 36, 110
2, 3451, Note_on_c, 0, 38, 127
2, 3454, Note_on_c, 0, 55, 122
2, 3481, Note_off_c, 0, 38, 127
2, 3484, Note_off_c, 0, 55, 122
2, 4216, Note_on_c, 0, 55, 122
2, 4219, Note_on_c, 0, 38, 127
2, 4246, Note_off_c, 0, 55, 122
2, 4249, Note_off_c, 0, 38, 127
2, 4986, Note_on_c, 0, 55, 122
2, 5000, Note_on_c, 0, 38, 127
2, 5016, Note_off_c, 0, 55, 122
2, 5030, Note_off_c, 0, 38, 127
2, 5758, Note_on_c, 0, 38, 127
2, 5770, Note_on_c, 0, 55, 122
2, 5788, Note_off_c, 0, 38, 127
2, 5800, Note_off_c, 0, 55, 122
2, 6143, Note_on_c, 0, 36, 110
2, 6173, Note_off_c, 0, 36, 110
2, 6528, Note_on_c, 0, 55, 122
2, 6529, Note_on_c, 0, 38, 127
2, 6558, Note_off_c, 0, 55, 122
2, 6559, Note_off_c, 0, 38, 127
2, 7284, Note_on_c, 0, 38, 127
2, 7288, Note_on_c, 0, 55, 122
2, 7314, Note_off_c, 0, 38, 127
2, 7318, Note_off_c, 0, 55, 122
2, 8060, Note_on_c, 0, 38, 127
2, 8064, Note_on_c, 0, 55, 122
2, 8090, Note_off_c, 0, 38, 127
2, 8094, Note_off_c, 0, 55, 122
2, 8448, Note_on_c, 0, 38, 110
2, 8478, Note_off_c, 0, 38, 110
2, 8649, Note_on_c, 0, 38, 103
2, 8679, Note_off_c, 0, 38, 103
2, 8828, Note_on_c, 0, 38, 127
2, 8858, Note_off_c, 0, 38, 127
2, 9031, Note_on_c, 0, 38, 127
2, 9061, Note_off_c, 0, 38, 127
2, 9214, Note_on_c, 0, 36, 127
2, 9224, Note_on_c, 0, 55, 80
2, 9226, Note_on_c, 0, 60, 38
2, 9244, Note_off_c, 0, 36, 127
2, 9254, Note_off_c, 0, 55, 80
2, 9256, Note_off_c, 0, 60, 38
2, 9416, Note_on_c, 0, 55, 80
2, 9446, Note_off_c, 0, 55, 80
2, 9603, Note_on_c, 0, 38, 127
2, 9609, Note_on_c, 0, 55, 80
2, 9633, Note_off_c, 0, 38, 127
2, 9639, Note_off_c, 0, 55, 80
2, 9788, Note_on_c, 0, 55, 80
2, 9818, Note_off_c, 0, 55, 80
2, 9974, Note_on_c, 0, 55, 80
2, 9990, Note_on_c, 0, 36, 127
2, 10004, Note_off_c, 0, 55, 80
2, 10020, Note_off_c, 0, 36, 127
2, 10169, Note_on_c, 0, 55, 80
2, 10199, Note_off_c, 0, 55, 80
2, 10370, Note_on_c, 0, 55, 80
2, 10376, Note_on_c, 0, 38, 127
2, 10400, Note_off_c, 0, 55, 80
2, 10406, Note_off_c, 0, 38, 127
2, 10557, Note_on_c, 0, 55, 80
2, 10587, Note_off_c, 0, 55, 80
2, 10743, Note_on_c, 0, 36, 127
2, 10744, Note_on_c, 0, 55, 80
2, 10773, Note_off_c, 0, 36, 127
2, 10774, Note_off_c, 0, 55, 80
2, 10951, Note_on_c, 0, 55, 80
2, 10981, Note_off_c, 0, 55, 80
2, 11135, Note_on_c, 0, 55, 80
2, 11137, Note_on_c, 0, 38, 127
2, 11165, Note_off_c, 0, 55, 80
2, 11167, Note_off_c, 0, 38, 127
2, 11328, Note_on_c, 0, 55, 80
2, 11358, Note_off_c, 0, 55, 80
2, 11515, Note_on_c, 0, 36, 127
2, 11517, Note_on_c, 0, 55, 80
2, 11545, Note_off_c, 0, 36, 127
2, 11547, Note_off_c, 0, 55, 80
2, 11719, Note_on_c, 0, 55, 80
2, 11749, Note_off_c, 0, 55, 80
2, 11895, Note_on_c, 0, 38, 127
2, 11910, Note_on_c, 0, 55, 80
2, 11925, Note_off_c, 0, 38, 127
2, 11940, Note_off_c, 0, 55, 80
2, 12096, Note_on_c, 0, 55, 80
2, 12126, Note_off_c, 0, 55, 80
2, 12278, Note_on_c, 0, 55, 80
2, 12288, Note_on_c, 0, 36, 127
2, 12308, Note_off_c, 0, 55, 80
2, 12318, Note_off_c, 0, 36, 127
2, 12490, Note_on_c, 0, 55, 80
2, 12520, Note_off_c, 0, 55, 80
2, 12664, Note_on_c, 0, 55, 80
2, 12676, Note_on_c, 0, 38, 127
2, 12694, Note_off_c, 0, 55, 80
2, 12706, Note_off_c, 0, 38, 127
2, 12861, Note_on_c, 0, 55, 80
2, 12891, Note_off_c, 0, 55, 80
2, 13045, Note_on_c, 0, 55, 80
2, 13051, Note_on_c, 0, 36, 127
2, 13075, Note_off_c, 0, 55, 80
2, 13081, Note_off_c, 0, 36, 127
2, 13254, Note_on_c, 0, 55, 80
2, 13284, Note_off_c, 0, 55, 80
2, 13443, Note_on_c, 0, 55, 80
2, 13448, Note_on_c, 0, 38, 127
2, 13473, Note_off_c, 0, 55, 80
2, 13478, Note_off_c, 0, 38, 127
2, 13628, Note_on_c, 0, 55, 80
2, 13658, Note_off_c, 0, 55, 80
2, 13823, Note_on_c, 0, 55, 80
2, 13829, Note_on_c, 0, 36, 127
2, 13853, Note_off_c, 0, 55, 80
2, 13859, Note_off_c, 0, 36, 127
2, 14011, Note_on_c, 0, 55, 80
2, 14041, Note_off_c, 0, 55, 80
2, 14212, Note_on_c, 0, 38, 127
2, 14214, Note_on_c, 0, 55, 80
2, 14242, Note_off_c, 0, 38, 127
2, 14244, Note_off_c, 0, 55, 80
2, 14402, Note_on_c, 0, 55, 80
2, 14432, Note_off_c, 0, 55, 80
2, 14592, Note_on_c, 0, 55, 80
2, 14601, Note_on_c, 0, 36, 127
2, 14622, Note_off_c, 0, 55, 80
2, 14631, Note_off_c, 0, 36, 127
2, 14780, Note_on_c, 0, 55, 111
2, 14792, Note_on_c, 0, 38, 111
2, 14810, Note_off_c, 0, 55, 111
2, 14822, Note_off_c, 0, 38, 111
2, 14981, Note_on_c, 0, 55, 80
2, 14984, Note_on_c, 0, 38, 127
2, 15011, Note_off_c, 0, 55, 80
2, 15014, Note_off_c, 0, 38, 127
2, 15163, Note_on_c, 0, 55, 80
2, 15173, Note_on_c, 0, 38, 110
2, 15193, Note_off_c, 0, 55, 80
2, 15203, Note_off_c, 0, 38, 110
2, 15350, Note_on_c, 0, 55, 80
2, 15352, Note_on_c, 0, 60, 38
2, 15357, Note_on_c, 0, 36, 127
2, 15380, Note_off_c, 0, 55, 80
2, 15382, Note_off_c, 0, 60, 38
2, 15387, Note_off_c, 0, 36, 127
2, 15561, Note_on_c, 0, 55, 80
2, 15591, Note_off_c, 0, 55, 80
2, 15747, Note_on_c, 0, 55, 80
2, 15749, Note_on_c, 0, 38, 127
2, 15777, Note_off_c, 0, 55, 80
2, 15779, Note_off_c, 0, 38, 127
2, 15936, Note_on_c, 0, 55, 80
2, 15966, Note_off_c, 0, 55, 80
2, 16117, Note_on_c, 0, 36, 127
2, 16132, Note_on_c, 0, 55, 80
2, 16147, Note_off_c, 0, 36, 127
2, 16162, Note_off_c, 0, 55, 80
2, 16310, Note_on_c, 0, 55, 80
2, 16340, Note_off_c, 0, 55, 80
2, 16509, Note_on_c, 0, 38, 127
2, 16511, Note_on_c, 0, 55, 80
2, 16539, Note_off_c, 0, 38, 127
2, 16541, Note_off_c, 0, 55, 80
2, 16694, Note_on_c, 0, 55, 80
2, 16724, Note_off_c, 0, 55, 80
2, 16893, Note_on_c, 0, 36, 127
2, 16896, Note_on_c, 0, 55, 80
2, 16923, Note_off_c, 0, 36, 127
2, 16926, Note_off_c, 0, 55, 80
2, 17082, Note_on_c, 0, 55, 80
2, 17112, Note_off_c, 0, 55, 80
2, 17276, Note_on_c, 0, 38, 127
2, 17285, Note_on_c, 0, 55, 80
2, 17306, Note_off_c, 0, 38, 127
2, 17315, Note_off_c, 0, 55, 80
2, 17474, Note_on_c, 0, 55, 80
2, 17504, Note_off_c, 0, 55, 80
2, 17656, Note_on_c, 0, 55, 80
2, 17657, Note_on_c, 0, 36, 127
2, 17686, Note_off_c, 0, 55, 80
2, 17687, Note_off_c, 0, 36, 127
2, 17858, Note_on_c, 0, 55, 80
2, 17888, Note_off_c, 0, 55, 80
2, 18040, Note_on_c, 0, 55, 80
2, 18053, Note_on_c, 0, 38, 127
2, 18070, Note_off_c, 0, 55, 80
2, 18083, Note_off_c, 0, 38, 127
2, 18244, Note_on_c, 0, 55, 80
2, 18274, Note_off_c, 0, 55, 80
2, 18421, Note_on_c, 0, 36, 127
2, 18424, Note_on_c, 0, 55, 80
2, 18451, Note_off_c, 0, 36, 127
2, 18454, Note_off_c, 0, 55, 80
2, 18632, Note_on_c, 0, 55, 80
2, 18662, Note_off_c, 0, 55, 80
2, 18807, Note_on_c, 0, 55, 80
2, 18823, Note_on_c, 0, 38, 127
2, 18837, Note_off_c, 0, 55, 80
2, 18853, Note_off_c, 0, 38, 127
2, 19005, Note_on_c, 0, 55, 80
2, 19035, Note_off_c, 0, 55, 80
2, 19193, Note_on_c, 0, 36, 127
2, 19195, Note_on_c, 0, 55, 80
2, 19223, Note_off_c, 0, 36, 127
2, 19225, Note_off_c, 0, 55, 80
2, 19382, Note_on_c, 0, 55, 80
2, 19412, Note_off_c, 0, 55, 80
2, 19588, Note_on_c, 0, 55, 80
2, 19592, Note_on_c, 0, 38, 127
2, 19618, Note_off_c, 0, 55, 80
2, 19622, Note_off_c, 0, 38, 127
2, 19769, Note_on_c, 0, 55, 80
2, 19799, Note_off_c, 0, 55, 80
2, 19963, Note_on_c, 0, 55, 80
2, 19969, Note_on_c, 0, 36, 127
2, 19993, Note_off_c, 0, 55, 80
2, 19999, Note_off_c, 0, 36, 127
2, 20165, Note_on_c, 0, 55, 80
2, 20195, Note_off_c, 0, 55, 80
2, 20346, Note_on_c, 0, 38, 127
2, 20356, Note_on_c, 0, 55, 80
2, 20376, Note_off_c, 0, 38, 127
2, 20386, Note_off_c, 0, 55, 80
2, 20542, Note_on_c, 0, 55, 80
2, 20572, Note_off_c, 0, 55, 80
2, 20730, Note_on_c, 0, 55, 80
2, 20741, Note_on_c, 0, 36, 127
2, 20760, Note_off_c, 0, 55, 80
2, 20771, Note_off_c, 0, 36, 127
2, 20936, Note_on_c, 0, 55, 80
2, 20966, Note_off_c, 0, 55, 80
2, 21110, Note_on_c, 0, 38, 127
2, 21114, Note_on_c, 0, 55, 80
2, 21140, Note_off_c, 0, 38, 127
2, 21144, Note_off_c, 0, 55, 80
2, 21308, Note_on_c, 0, 38, 110
2, 21312, Note_on_c, 0, 55, 80
2, 21338, Note_off_c, 0, 38, 110
2, 21342, Note_off_c, 0, 55, 80
2, 21504, Note_on_c, 0, 55, 80
2, 21511, Note_on_c, 0, 36, 127
2, 21534, Note_off_c, 0, 55, 80
2, 21541, Note_off_c, 0, 36, 127
2, 21695, Note_on_c, 0, 55, 80
2, 21725, Note_off_c, 0, 55, 80
2, 21876, Note_on_c, 0, 38, 127
2, 21896, Note_on_c, 0, 55, 80
2, 21906, Note_off_c, 0, 38, 127
2, 21926, Note_off_c, 0, 55, 80
2, 22075, Note_on_c, 0, 55, 80
2, 22105, Note_off_c, 0, 55, 80
2, 22267, Note_on_c, 0, 36, 127
2, 22271, Note_on_c, 0, 55, 80
2, 22297, Note_off_c, 0, 36, 127
2, 22301, Note_off_c, 0, 55, 80
2, 22474, Note_on_c, 0, 55, 80
2, 22504, Note_off_c, 0, 55, 80
2, 22651, Note_on_c, 0, 38, 127
2, 22656, Note_on_c, 0, 55, 80
2, 22681, Note_off_c, 0, 38, 127
2, 22686, Note_off_c, 0, 55, 80
2, 22845, Note_on_c, 0, 55, 80
2, 22875, Note_off_c, 0, 55, 80
2, 23034, Note_on_c, 0, 36, 127
2, 23042, Note_on_c, 0, 55, 80
2, 23064, Note_off_c, 0, 36, 127
2, 23072, Note_off_c, 0, 55, 80
2, 23240, Note_on_c, 0, 55, 80
2, 23270, Note_off_c, 0, 55, 80
2, 23412, Note_on_c, 0, 55, 80
2, 23423, Note_on_c, 0, 38, 127
2, 23442, Note_off_c, 0, 55, 80
2, 23453, Note_off_c, 0, 38, 127
2, 23619, Note_on_c, 0, 55, 80
2, 23649, Note_off_c, 0, 55, 80
2, 23812, Note_on_c, 0, 55, 80
2, 23812, Note_on_c, 0, 36, 127
2, 23842, Note_off_c, 0, 36, 127
2, 23842, Note_off_c, 0, 55, 80
2, 23994, Note_on_c, 0, 55, 80
2, 24024, Note_off_c, 0, 55, 80
2, 24184, Note_on_c, 0, 38, 127
2, 24185, Note_on_c, 0, 55, 80
2, 24214, Note_off_c, 0, 38, 127
2, 24215, Note_off_c, 0, 55, 80
2, 24380, Note_on_c, 0, 55, 80
2, 24410, Note_off_c, 0, 55, 80
2, 24565, Note_on_c, 0, 55, 80
2, 24570, Note_on_c, 0, 36, 127
2, 24595, Note_off_c, 0, 55, 80
2, 24600, Note_off_c, 0, 36, 127
2, 24762, Note_on_c, 0, 55, 80
2, 24792, Note_off_c, 0, 55, 80
2, 24967, Note_on_c, 0, 38, 127
2, 24968, Note_on_c, 0, 55, 80
2, 24997, Note_off_c, 0, 38, 127
2, 24998, Note_off_c, 0, 55, 80
2, 25153, Note_on_c, 0, 55, 80
2, 25183, Note_off_c, 0, 55, 80
2, 25343, Note_on_c, 0, 55, 80
2, 25349, Note_on_c, 0, 36, 127
2, 25373, Note_off_c, 0, 55, 80
2, 25379, Note_off_c, 0, 36, 127
2, 25535, Note_on_c, 0, 55, 80
2, 25565, Note_off_c, 0, 55, 80
2, 25720, Note_on_c, 0, 38, 127
2, 25722, Note_on_c, 0, 55, 80
2, 25750, Note_off_c, 0, 38, 127
2, 25752, Note_off_c, 0, 55, 80
2, 25922, Note_on_c, 0, 55, 80
2, 25952, Note_off_c, 0, 55, 80
2, 26114, Note_on_c, 0, 55, 80
2, 26122, Note_on_c, 0, 36, 127
2, 26144, Note_off_c, 0, 55, 80
2, 26152, Note_off_c, 0, 36, 127
2, 26307, Note_on_c, 0, 55, 80
2, 26337, Note_off_c, 0, 55, 80
2, 26484, Note_on_c, 0, 55, 80
2, 26496, Note_on_c, 0, 38, 127
2, 26514, Note_off_c, 0, 55, 80
2, 26526, Note_off_c, 0, 38, 127
2, 26676, Note_on_c, 0, 55, 80
2, 26706, Note_off_c, 0, 55, 80
2, 26883, Note_on_c, 0, 55, 80
2, 26887, Note_on_c, 0, 36, 127
2, 26913, Note_off_c, 0, 55, 80
2, 26917, Note_off_c, 0, 36, 127
2, 27076, Note_on_c, 0, 55, 80
2, 27106, Note_off_c, 0, 55, 80
2, 27270, Note_on_c, 0, 55, 80
2, 27274, Note_on_c, 0, 38, 127
2, 27300, Note_off_c, 0, 55, 80
2, 27304, Note_off_c, 0, 38, 127
2, 27444, Note_on_c, 0, 55, 80
2, 27458, Note_on_c, 0, 38, 127
2, 27474, Note_off_c, 0, 55, 80
2, 27488, Note_off_c, 0, 38, 127
2, 27647, Note_on_c, 0, 36, 127
2, 27658, Note_on_c, 0, 60, 38
2, 27658, Note_on_c, 0, 55, 80
2, 27677, Note_off_c, 0, 36, 127
2, 27688, Note_off_c, 0, 55, 80
2, 27688, Note_off_c, 0, 60, 38
2, 27835, Note_on_c, 0, 55, 80
2, 27865, Note_off_c, 0, 55, 80
2, 28034, Note_on_c, 0, 38, 127
2, 28039, Note_on_c, 0, 55, 80
2, 28064, Note_off_c, 0, 38, 127
2, 28069, Note_off_c, 0, 55, 80
2, 28219, Note_on_c, 0, 55, 80
2, 28249, Note_off_c, 0, 55, 80
2, 28412, Note_on_c, 0, 55, 80
2, 28413, Note_on_c, 0, 36, 127
2, 28442, Note_off_c, 0, 55, 80
2, 28443, Note_off_c, 0, 36, 127
2, 28610, Note_on_c, 0, 55, 80
2, 28640, Note_off_c, 0, 55, 80
2, 28795, Note_on_c, 0, 55, 80
2, 28801, Note_on_c, 0, 38, 127
2, 28825, Note_off_c, 0, 55, 80
2, 28831, Note_off_c, 0, 38, 127
2, 28992, Note_on_c, 0, 55, 80
2, 29022, Note_off_c, 0, 55, 80
2, 29190, Note_on_c, 0, 36, 127
2, 29192, Note_on_c, 0, 55, 80
2, 29220, Note_off_c, 0, 36, 127
2, 29222, Note_off_c, 0, 55, 80
2, 29375, Note_on_c, 0, 55, 80
2, 29405, Note_off_c, 0, 55, 80
2, 29574, Note_on_c, 0, 55, 80
2, 29577, Note_on_c, 0, 38, 127
2, 29604, Note_off_c, 0, 55, 80
2, 29607, Note_off_c, 0, 38, 127
2, 29748, Note_on_c, 0, 55, 80
2, 29778, Note_off_c, 0, 55, 80
2, 29940, Note_on_c, 0, 55, 80
2, 29947, Note_on_c, 0, 36, 127
2, 29970, Note_off_c, 0, 55, 80
2, 29977, Note_off_c, 0, 36, 127
2, 30149, Note_on_c, 0, 55, 80
2, 30179, Note_off_c, 0, 55, 80
2, 30331, Note_on_c, 0, 38, 127
2, 30345, Note_on_c, 0, 55, 80
2, 30361, Note_off_c, 0, 38, 127
2, 30375, Note_off_c, 0, 55, 80
2, 30538, Note_on_c, 0, 55, 80
2, 30568, Note_off_c, 0, 55, 80
2, 30716, Note_on_c, 0, 55, 80
2, 30718, Note_on_c, 0, 36, 127
2, 30746, Note_off_c, 0, 55, 80
2, 30748, Note_off_c, 0, 36, 127
2, 30911, Note_on_c, 0, 55, 80
2, 30941, Note_off_c, 0, 55, 80
2, 31094, Note_on_c, 0, 55, 80
2, 31100, Note_on_c, 0, 38, 127
2, 31124, Note_off_c, 0, 55, 80
2, 31130, Note_off_c, 0, 38, 127
2, 31304, Note_on_c, 0, 55, 80
2, 31334, Note_off_c, 0, 55, 80
2, 31482, Note_on_c, 0, 36, 127
2, 31485, Note_on_c, 0, 55, 80
2, 31512, Note_off_c, 0, 36, 127
2, 31515, Note_off_c, 0, 55, 80
2, 31688, Note_on_c, 0, 55, 80
2, 31718, Note_off_c, 0, 55, 80
2, 31862, Note_on_c, 0, 55, 80
2, 31868, Note_on_c, 0, 38, 127
2, 31892, Note_off_c, 0, 55, 80
2, 31898, Note_off_c, 0, 38, 127
2, 32064, Note_on_c, 0, 55, 80
2, 32094, Note_off_c, 0, 55, 80
2, 32257, Note_on_c, 0, 55, 80
2, 32266, Note_on_c, 0, 36, 127
2, 32287, Note_off_c, 0, 55, 80
2, 32296, Note_off_c, 0, 36, 127
2, 32446, Note_on_c, 0, 55, 80
2, 32476, Note_off_c, 0, 55, 80
2, 32638, Note_on_c, 0, 55, 80
2, 32647, Note_on_c, 0, 38, 127
2, 32668, Note_off_c, 0, 55, 80
2, 32677, Note_off_c, 0, 38, 127
2, 32833, Note_on_c, 0, 55, 80
2, 32863, Note_off_c, 0, 55, 80
2, 33014, Note_on_c, 0, 36, 127
2, 33032, Note_on_c, 0, 55, 80
2, 33044, Note_off_c, 0, 36, 127
2, 33062, Note_off_c, 0, 55, 80
2, 33216, Note_on_c, 0, 55, 80
2, 33246, Note_off_c, 0, 55, 80
2, 33401, Note_on_c, 0, 55, 80
2, 33412, Note_on_c, 0, 38, 127
2, 33431, Note_off_c, 0, 55, 80
2, 33442, Note_off_c, 0, 38, 127
2, 33591, Note_on_c, 0, 55, 80
2, 33621, Note_off_c, 0, 55, 80
2, 33781, Note_on_c, 0, 55, 80
2, 33798, Note_on_c, 0, 36, 127
2, 33811, Note_off_c, 0, 55, 80
2, 33828, Note_off_c, 0, 36, 127
2, 33978, Note_on_c, 0, 55, 80
2, 34008, Note_off_c, 0, 55, 80
2, 34168, Note_on_c, 0, 55, 80
2, 34183, Note_on_c, 0, 38, 127
2, 34198, Note_off_c, 0, 55, 80
2, 34213, Note_off_c, 0, 38, 127
2, 34364, Note_on_c, 0, 55, 80
2, 34394, Note_off_c, 0, 55, 80
2, 34553, Note_on_c, 0, 55, 80
2, 34568, Note_on_c, 0, 36, 127
2, 34583, Note_off_c, 0, 55, 80
2, 34598, Note_off_c, 0, 36, 127
2, 34760, Note_on_c, 0, 55, 80
2, 34790, Note_off_c, 0, 55, 80
2, 34943, Note_on_c, 0, 38, 127
2, 34952, Note_on_c, 0, 55, 80
2, 34973, Note_off_c, 0, 38, 127
2, 34982, Note_off_c, 0, 55, 80
2, 35131, Note_on_c, 0, 55, 80
2, 35161, Note_off_c, 0, 55, 80
2, 35326, Note_on_c, 0, 36, 127
2, 35327, Note_on_c, 0, 55, 80
2, 35356, Note_off_c, 0, 36, 127
2, 35357, Note_off_c, 0, 55, 80
2, 35513, Note_on_c, 0, 55, 80
2, 35543, Note_off_c, 0, 55, 80
2, 35709, Note_on_c, 0, 38, 127
2, 35721, Note_on_c, 0, 55, 80
2, 35739, Note_off_c, 0, 38, 127
2, 35751, Note_off_c, 0, 55, 80
2, 35906, Note_on_c, 0, 55, 80
2, 35936, Note_off_c, 0, 55, 80
2, 36092, Note_on_c, 0, 36, 127
2, 36100, Note_on_c, 0, 55, 80
2, 36122, Note_off_c, 0, 36, 127
2, 36130, Note_off_c, 0, 55, 80
2, 36291, Note_on_c, 0, 55, 80
2, 36321, Note_off_c, 0, 55, 80
2, 36483, Note_on_c, 0, 55, 80
2, 36483, Note_on_c, 0, 38, 127
2, 36513, Note_off_c, 0, 38, 127
2, 36513, Note_off_c, 0, 55, 80
2, 36667, Note_on_c, 0, 38, 110
2, 36670, Note_on_c, 0, 55, 80
2, 36697, Note_off_c, 0, 38, 110
2, 36700, Note_off_c, 0, 55, 80
2, 36853, Note_on_c, 0, 36, 127
2, 36866, Note_on_c, 0, 55, 80
2, 36883, Note_off_c, 0, 36, 127
2, 36896, Note_off_c, 0, 55, 80
2, 37057, Note_on_c, 0, 55, 80
2, 37087, Note_off_c, 0, 55, 80
2, 37243, Note_on_c, 0, 38, 127
2, 37257, Note_on_c, 0, 55, 80
2, 37273, Note_off_c, 0, 38, 127
2, 37287, Note_off_c, 0, 55, 80
2, 37436, Note_on_c, 0, 55, 80
2, 37466, Note_off_c, 0, 55, 80
2, 37621, Note_on_c, 0, 36, 127
2, 37632, Note_on_c, 0, 55, 80
2, 37651, Note_off_c, 0, 36, 127
2, 37662, Note_off_c, 0, 55, 80
2, 37829, Note_on_c, 0, 55, 80
2, 37859, Note_off_c, 0, 55, 80
2, 38010, Note_on_c, 0, 55, 80
2, 38020, Note_on_c, 0, 38, 127
2, 38040, Note_off_c, 0, 55, 80
2, 38050, Note_off_c, 0, 38, 127
2, 38214, Note_on_c, 0, 55, 80
2, 38244, Note_off_c, 0, 55, 80
2, 38392, Note_on_c, 0, 55, 80
2, 38394, Note_on_c, 0, 36, 127
2, 38422, Note_off_c, 0, 55, 80
2, 38424, Note_off_c, 0, 36, 127
2, 38600, Note_on_c, 0, 55, 80
2, 38630, Note_off_c, 0, 55, 80
2, 38781, Note_on_c, 0, 38, 127
2, 38785, Note_on_c, 0, 55, 80
2, 38811, Note_off_c, 0, 38, 127
2, 38815, Note_off_c, 0, 55, 80
2, 38984, Note_on_c, 0, 55, 80
2, 39014, Note_off_c, 0, 55, 80
2, 39165, Note_on_c, 0, 36, 92
2, 39177, Note_on_c, 0, 55, 80
2, 39195, Note_off_c, 0, 36, 92
2, 39207, Note_off_c, 0, 55, 80
2, 39355, Note_on_c, 0, 38, 127
2, 39362, Note_on_c, 0, 55, 80
2, 39385, Note_off_c, 0, 38, 127
2, 39392, Note_off_c, 0, 55, 80
2, 39551, Note_on_c, 0, 55, 80
2, 39554, Note_on_c, 0, 38, 127
2, 39581, Note_off_c, 0, 55, 80
2, 39584, Note_off_c, 0, 38, 127
2, 39738, Note_on_c, 0, 55, 80
2, 39748, Note_on_c, 0, 38, 127
2, 39768, Note_off_c, 0, 55, 80
2, 39778, Note_off_c, 0, 38, 127
2, 39939, Note_on_c, 0, 60, 38
2, 39941, Note_on_c, 0, 36, 127
2, 39946, Note_on_c, 0, 55, 80
2, 39969, Note_off_c, 0, 60, 38
2, 39971, Note_off_c, 0, 36, 127
2, 39976, Note_off_c, 0, 55, 80
2, 40116, Note_on_c, 0, 55, 80
2, 40146, Note_off_c, 0, 55, 80
2, 40323, Note_on_c, 0, 38, 127
2, 40326, Note_on_c, 0, 55, 80
2, 40353, Note_off_c, 0, 38, 127
2, 40356, Note_off_c, 0, 55, 80
2, 40512, Note_on_c, 0, 55, 80
2, 40542, Note_off_c, 0, 55, 80
2, 40704, Note_on_c, 0, 55, 80
2, 40713, Note_on_c, 0, 36, 127
2, 40734, Note_off_c, 0, 55, 80
2, 40743, Note_off_c, 0, 36, 127
2, 40893, Note_on_c, 0, 55, 80
2, 40923, Note_off_c, 0, 55, 80
2, 41092, Note_on_c, 0, 38, 127
2, 41096, Note_on_c, 0, 55, 80
2, 41122, Note_off_c, 0, 38, 127
2, 41126, Note_off_c, 0, 55, 80
2, 41288, Note_on_c, 0, 55, 80
2, 41318, Note_off_c, 0, 55, 80
2, 41471, Note_on_c, 0, 36, 127
2, 41478, Note_on_c, 0, 55, 80
2, 41501, Note_off_c, 0, 36, 127
2, 41508, Note_off_c, 0, 55, 80
2, 41664, Note_on_c, 0, 55, 80
2, 41694, Note_off_c, 0, 55, 80
2, 41856, Note_on_c, 0, 38, 127
2, 41860, Note_on_c, 0, 55, 80
2, 41886, Note_off_c, 0, 38, 127
2, 41890, Note_off_c, 0, 55, 80
2, 42048, Note_on_c, 0, 55, 80
2, 42078, Note_off_c, 0, 55, 80
2, 42240, Note_on_c, 0, 55, 80
2, 42244, Note_on_c, 0, 36, 127
2, 42270, Note_off_c, 0, 55, 80
2, 42274, Note_off_c, 0, 36, 127
2, 42429, Note_on_c, 0, 55, 80
2, 42459, Note_off_c, 0, 55, 80
2, 42624, Note_on_c, 0, 55, 80
2, 42628, Note_on_c, 0, 38, 127
2, 42654, Note_off_c, 0, 55, 80
2, 42658, Note_off_c, 0, 38, 127
2, 42818, Note_on_c, 0, 55, 80
2, 42848, Note_off_c, 0, 55, 80
2, 43008, Note_on_c, 0, 36, 127
2, 43015, Note_on_c, 0, 55, 80
2, 43038, Note_off_c, 0, 36, 127
2, 43045, Note_off_c, 0, 55, 80
2, 43206, Note_on_c, 0, 55, 80
2, 43236, Note_off_c, 0, 55, 80
2, 43388, Note_on_c, 0, 38, 127
2, 43399, Note_on_c, 0, 55, 80
2, 43418, Note_off_c, 0, 38, 127
2, 43429, Note_off_c, 0, 55, 80
2, 43586, Note_on_c, 0, 55, 80
2, 43616, Note_off_c, 0, 55, 80
2, 43773, Note_on_c, 0, 55, 80
2, 43781, Note_on_c, 0, 36, 127
2, 43803, Note_off_c, 0, 55, 80
2, 43811, Note_off_c, 0, 36, 127
2, 43969, Note_on_c, 0, 55, 80
2, 43999, Note_off_c, 0, 55, 80
2, 44164, Note_on_c, 0, 55, 80
2, 44166, Note_on_c, 0, 38, 127
2, 44194, Note_off_c, 0, 55, 80
2, 44196, Note_off_c, 0, 38, 127
2, 44354, Note_on_c, 0, 55, 80
2, 44384, Note_off_c, 0, 55, 80
2, 44548, Note_on_c, 0, 36, 127
2, 44549, Note_on_c, 0, 55, 80
2, 44578, Note_off_c, 0, 36, 127
2, 44579, Note_off_c, 0, 55, 80
2, 44728, Note_on_c, 0, 55, 80
2, 44758, Note_off_c, 0, 55, 80
2, 44924, Note_on_c, 0, 38, 65
2, 44937, Note_on_c, 0, 55, 80
2, 44954, Note_off_c, 0, 38, 65
2, 44967, Note_off_c, 0, 55, 80
2, 45127, Note_on_c, 0, 55, 80
2, 45130, Note_on_c, 0, 38, 81
2, 45157, Note_off_c, 0, 55, 80
2, 45160, Note_off_c, 0, 38, 81
2, 45307, Note_on_c, 0, 36, 127
2, 45315, Note_on_c, 0, 55, 80
2, 45320, Note_on_c, 0, 38, 110
2, 45337, Note_off_c, 0, 36, 127
2, 45345, Note_off_c, 0, 55, 80
2, 45350, Note_off_c, 0, 38, 110
2, 45492, Note_on_c, 0, 38, 92
2, 45503, Note_on_c, 0, 55, 80
2, 45522, Note_off_c, 0, 38, 92
2, 45533, Note_off_c, 0, 55, 80
2, 45700, Note_on_c, 0, 55, 80
2, 45704, Note_on_c, 0, 38, 127
2, 45730, Note_off_c, 0, 55, 80
2, 45734, Note_off_c, 0, 38, 127
2, 45882, Note_on_c, 0, 55, 80
2, 45890, Note_on_c, 0, 38, 127
2, 45912, Note_off_c, 0, 55, 80
2, 45920, Note_off_c, 0, 38, 127
2, 46070, Note_on_c, 0, 36, 127
2, 46074, Note_on_c, 0, 60, 38
2, 46087, Note_on_c, 0, 55, 80
2, 46100, Note_off_c, 0, 36, 127
2, 46104, Note_off_c, 0, 60, 38
2, 46117, Note_off_c, 0, 55, 80
2, 46276, Note_on_c, 0, 55, 80
2, 46306, Note_off_c, 0, 55, 80
2, 46466, Note_on_c, 0, 55, 80
2, 46470, Note_on_c, 0, 38, 127
2, 46496, Note_off_c, 0, 55, 80
2, 46500, Note_off_c, 0, 38, 127
2, 46647, Note_on_c, 0, 55, 80
2, 46677, Note_off_c, 0, 55, 80
2, 46836, Note_on_c, 0, 55, 80
2, 46845, Note_on_c, 0, 36, 127
2, 46866, Note_off_c, 0, 55, 80
2, 46875, Note_off_c, 0, 36, 127
2, 47047, Note_on_c, 0, 55, 80
2, 47077, Note_off_c, 0, 55, 80
2, 47226, Note_on_c, 0, 55, 80
2, 47232, Note_on_c, 0, 38, 127
2, 47256, Note_off_c, 0, 55, 80
2, 47262, Note_off_c, 0, 38, 127
2, 47428, Note_on_c, 0, 55, 80
2, 47458, Note_off_c, 0, 55, 80
2, 47616, Note_on_c, 0, 55, 80
2, 47626, Note_on_c, 0, 36, 127
2, 47646, Note_off_c, 0, 55, 80
2, 47656, Note_off_c, 0, 36, 127
2, 47815, Note_on_c, 0, 55, 80
2, 47845, Note_off_c, 0, 55, 80
2, 47990, Note_on_c, 0, 38, 127
2, 48002, Note_on_c, 0, 55, 80
2, 48020, Note_off_c, 0, 38, 127
2, 48032, Note_off_c, 0, 55, 80
2, 48188, Note_on_c, 0, 55, 80
2, 48200, Note_on_c, 0, 38, 110
2, 48218, Note_off_c, 0, 55, 80
2, 48230, Note_off_c, 0, 38, 110
2, 48373, Note_on_c, 0, 55, 80
2, 48377, Note_on_c, 0, 36, 127
2, 48403, Note_off_c, 0, 55, 80
2, 48407, Note_off_c, 0, 36, 127
2, 48564, Note_on_c, 0, 55, 80
2, 48586, Note_on_c, 0, 38, 84
2, 48594, Note_off_c, 0, 55, 80
2, 48616, Note_off_c, 0, 38, 84
2, 48768, Note_on_c, 0, 55, 80
2, 48769, Note_on_c, 0, 38, 127
2, 48798, Note_off_c, 0, 55, 80
2, 48799, Note_off_c, 0, 38, 127
2, 48953, Note_on_c, 0, 38, 110
2, 48960, Note_on_c, 0, 55, 80
2, 48983, Note_off_c, 0, 38, 110
2, 48990, Note_off_c, 0, 55, 80
2, 49149, Note_on_c, 0, 55, 80
2, 49156, Note_on_c, 0, 60, 38
2, 49156, Note_on_c, 0, 36, 127
2, 49179, Note_off_c, 0, 55, 80
2, 49186, Note_off_c, 0, 36, 127
2, 49186, Note_off_c, 0, 60, 38
2, 49337, Note_on_c, 0, 55, 80
2, 49367, Note_off_c, 0, 55, 80
2, 49541, Note_on_c, 0, 55, 80
2, 49544, Note_on_c, 0, 38, 127
2, 49571, Note_off_c, 0, 55, 80
2, 49574, Note_off_c, 0, 38, 127
2, 49722, Note_on_c, 0, 55, 80
2, 49752, Note_off_c, 0, 55, 80
2, 49909, Note_on_c, 0, 36, 127
2, 49930, Note_on_c, 0, 55, 80
2, 49939, Note_off_c, 0, 36, 127
2, 49960, Note_off_c, 0, 55, 80
2, 50115, Note_on_c, 0, 55, 80
2, 50145, Note_off_c, 0, 55, 80
2, 50294, Note_on_c, 0, 38, 127
2, 50310, Note_on_c, 0, 55, 80
2, 50324, Note_off_c, 0, 38, 127
2, 50340, Note_off_c, 0, 55, 80
2, 50500, Note_on_c, 0, 55, 80
2, 50530, Note_off_c, 0, 55, 80
2, 50691, Note_on_c, 0, 55, 80
2, 50697, Note_on_c, 0, 36, 127
2, 50721, Note_off_c, 0, 55, 80
2, 50727, Note_off_c, 0, 36, 127
2, 50874, Note_on_c, 0, 55, 80
2, 50904, Note_off_c, 0, 55, 80
2, 51068, Note_on_c, 0, 55, 80
2, 51080, Note_on_c, 0, 38, 127
2, 51098, Note_off_c, 0, 55, 80
2, 51110, Note_off_c, 0, 38, 127
2, 51258, Note_on_c, 0, 38, 110
2, 51271, Note_on_c, 0, 55, 80
2, 51288, Note_off_c, 0, 38, 110
2, 51301, Note_off_c, 0, 55, 80
2, 51444, Note_on_c, 0, 55, 80
2, 51464, Note_on_c, 0, 36, 127
2, 51474, Note_off_c, 0, 55, 80
2, 51494, Note_off_c, 0, 36, 127
2, 51640, Note_on_c, 0, 38, 81
2, 51645, Note_on_c, 0, 55, 80
2, 51670, Note_off_c, 0, 38, 81
2, 51675, Note_off_c, 0, 55, 80
2, 51828, Note_on_c, 0, 38, 127
2, 51836, Note_on_c, 0, 55, 80
2, 51858, Note_off_c, 0, 38, 127
2, 51866, Note_off_c, 0, 55, 80
2, 52028, Note_on_c, 0, 55, 80
2, 52034, Note_on_c, 0, 38, 110
2, 52058, Note_off_c, 0, 55, 80
2, 52064, Note_off_c, 0, 38, 110
2, 52214, Note_on_c, 0, 36, 127
2, 52228, Note_on_c, 0, 60, 38
2, 52228, Note_on_c, 0, 55, 80
2, 52244, Note_off_c, 0, 36, 127
2, 52258, Note_off_c, 0, 55, 80
2, 52258, Note_off_c, 0, 60, 38
2, 52423, Note_on_c, 0, 55, 80
2, 52453, Note_off_c, 0, 55, 80
2, 52601, Note_on_c, 0, 55, 80
2, 52604, Note_on_c, 0, 38, 127
2, 52631, Note_off_c, 0, 55, 80
2, 52634, Note_off_c, 0, 38, 127
2, 52805, Note_on_c, 0, 55, 80
2, 52835, Note_off_c, 0, 55, 80
2, 52995, Note_on_c, 0, 36, 127
2, 52996, Note_on_c, 0, 55, 80
2, 53025, Note_off_c, 0, 36, 127
2, 53026, Note_off_c, 0, 55, 80
2, 53176, Note_on_c, 0, 55, 80
2, 53206, Note_off_c, 0, 55, 80
2, 53381, Note_on_c, 0, 38, 127
2, 53383, Note_on_c, 0, 55, 80
2, 53411, Note_off_c, 0, 38, 127
2, 53413, Note_off_c, 0, 55, 80
2, 53576, Note_on_c, 0, 55, 80
2, 53606, Note_off_c, 0, 55, 80
2, 53755, Note_on_c, 0, 36, 127
2, 53764, Note_on_c, 0, 55, 80
2, 53785, Note_off_c, 0, 36, 127
2, 53794, Note_off_c, 0, 55, 80
2, 53951, Note_on_c, 0, 55, 80
2, 53956, Note_on_c, 0, 36, 110
2, 53981, Note_off_c, 0, 55, 80
2, 53986, Note_off_c, 0, 36, 110
2, 54141, Note_on_c, 0, 55, 80
2, 54154, Note_on_c, 0, 38, 127
2, 54171, Note_off_c, 0, 55, 80
2, 54184, Note_off_c, 0, 38, 127
2, 54328, Note_on_c, 0, 55, 80
2, 54358, Note_off_c, 0, 55, 80
2, 54528, Note_on_c, 0, 55, 80
2, 54532, Note_on_c, 0, 36, 127
2, 54558, Note_off_c, 0, 55, 80
2, 54562, Note_off_c, 0, 36, 127
2, 54711, Note_on_c, 0, 55, 80
2, 54741, Note_off_c, 0, 55, 80
2, 54900, Note_on_c, 0, 55, 80
2, 54912, Note_on_c, 0, 38, 127
2, 54930, Note_off_c, 0, 55, 80
2, 54942, Note_off_c, 0, 38, 127
2, 55093, Note_on_c, 0, 38, 110
2, 55106, Note_on_c, 0, 55, 80
2, 55123, Note_off_c, 0, 38, 110
2, 55136, Note_off_c, 0, 55, 80
2, 55286, Note_on_c, 0, 60, 38
2, 55292, Note_on_c, 0, 55, 80
2, 55302, Note_on_c, 0, 36, 127
2, 55316, Note_off_c, 0, 60, 38
2, 55322, Note_off_c, 0, 55, 80
2, 55332, Note_off_c, 0, 36, 127
2, 55495, Note_on_c, 0, 55, 80
2, 55525, Note_off_c, 0, 55, 80
2, 55668, Note_on_c, 0, 38, 127
2, 55680, Note_on_c, 0, 55, 80
2, 55698, Note_off_c, 0, 38, 127
2, 55710, Note_off_c, 0, 55, 80
2, 55874, Note_on_c, 0, 55, 80
2, 55904, Note_off_c, 0, 55, 80
2, 56055, Note_on_c, 0, 36, 127
2, 56073, Note_on_c, 0, 55, 80
2, 56085, Note_off_c, 0, 36, 127
2, 56103, Note_off_c, 0, 55, 80
2, 56264, Note_on_c, 0, 55, 80
2, 56294, Note_off_c, 0, 55, 80
2, 56448, Note_on_c, 0, 55, 80
2, 56456, Note_on_c, 0, 38, 127
2, 56478, Note_off_c, 0, 55, 80
2, 56486, Note_off_c, 0, 38, 127
2, 56648, Note_on_c, 0, 55, 80
2, 56678, Note_off_c, 0, 55, 80
2, 56828, Note_on_c, 0, 55, 80
2, 56831, Note_on_c, 0, 36, 127
2, 56858, Note_off_c, 0, 55, 80
2, 56861, Note_off_c, 0, 36, 127
2, 57020, Note_on_c, 0, 55, 80
2, 57050, Note_off_c, 0, 55, 80
2, 57210, Note_on_c, 0, 55, 80
2, 57216, Note_on_c, 0, 38, 127
2, 57240, Note_off_c, 0, 55, 80
2, 57246, Note_off_c, 0, 38, 127
2, 57400, Note_on_c, 0, 55, 80
2, 57405, Note_on_c, 0, 38, 110
2, 57430, Note_off_c, 0, 55, 80
2, 57435, Note_off_c, 0, 38, 110
2, 57604, Note_on_c, 0, 36, 127
2, 57608, Note_on_c, 0, 55, 80
2, 57634, Note_off_c, 0, 36, 127
2, 57638, Note_off_c, 0, 55, 80
2, 57795, Note_on_c, 0, 38, 78
2, 57802, Note_on_c, 0, 55, 80
2, 57825, Note_off_c, 0, 38, 78
2, 57832, Note_off_c, 0, 55, 80
2, 57983, Note_on_c, 0, 38, 127
2, 57984, Note_on_c, 0, 55, 80
2, 58013, Note_off_c, 0, 38, 127
2, 58014, Note_off_c, 0, 55, 80
2, 58168, Note_on_c, 0, 38, 127
2, 58168, Note_on_c, 0, 55, 80
2, 58198, Note_off_c, 0, 55, 80
2, 58198, Note_off_c, 0, 38, 127
2, 58369, Note_on_c, 0, 55, 80
2, 58376, Note_on_c, 0, 36, 127
2, 58376, Note_on_c, 0, 60, 38
2, 58399, Note_off_c, 0, 55, 80
2, 58406, Note_off_c, 0, 60, 38
2, 58406, Note_off_c, 0, 36, 127
2, 58563, Note_on_c, 0, 55, 80
2, 58593, Note_off_c, 0, 55, 80
2, 58755, Note_on_c, 0, 38, 127
2, 58757, Note_on_c, 0, 55, 80
2, 58785, Note_off_c, 0, 38, 127
2, 58787, Note_off_c, 0, 55, 80
2, 58950, Note_on_c, 0, 55, 80
2, 58980, Note_off_c, 0, 55, 80
2, 59134, Note_on_c, 0, 55, 80
2, 59135, Note_on_c, 0, 36, 127
2, 59164, Note_off_c, 0, 55, 80
2, 59165, Note_off_c, 0, 36, 127
2, 59328, Note_on_c, 0, 55, 80
2, 59358, Note_off_c, 0, 55, 80
2, 59519, Note_on_c, 0, 55, 80
2, 59522, Note_on_c, 0, 38, 127
2, 59549, Note_off_c, 0, 55, 80
2, 59552, Note_off_c, 0, 38, 127
2, 59704, Note_on_c, 0, 55, 80
2, 59734, Note_off_c, 0, 55, 80
2, 59904, Note_on_c, 0, 36, 127
2, 59912, Note_on_c, 0, 55, 80
2, 59934, Note_off_c, 0, 36, 127
2, 59942, Note_off_c, 0, 55, 80
2, 60102, Note_on_c, 0, 55, 80
2, 60132, Note_off_c, 0, 55, 80
2, 60285, Note_on_c, 0, 38, 127
2, 60296, Note_on_c, 0, 55, 80
2, 60315, Note_off_c, 0, 38, 127
2, 60326, Note_off_c, 0, 55, 80
2, 60488, Note_on_c, 0, 55, 80
2, 60518, Note_off_c, 0, 55, 80
2, 60671, Note_on_c, 0, 36, 127
2, 60676, Note_on_c, 0, 55, 80
2, 60701, Note_off_c, 0, 36, 127
2, 60706, Note_off_c, 0, 55, 80
2, 60872, Note_on_c, 0, 55, 80
2, 60902, Note_off_c, 0, 55, 80
2, 61052, Note_on_c, 0, 38, 127
2, 61054, Note_on_c, 0, 55, 80
2, 61082, Note_off_c, 0, 38, 127
2, 61084, Note_off_c, 0, 55, 80
2, 61249, Note_on_c, 0, 55, 80
2, 61279, Note_off_c, 0, 55, 80
2, 61436, Note_on_c, 0, 55, 80
2, 61448, Note_on_c, 0, 36, 127
2, 61466, Note_off_c, 0, 55, 80
2, 61478, Note_off_c, 0, 36, 127
2, 61633, Note_on_c, 0, 55, 80
2, 61663, Note_off_c, 0, 55, 80
2, 61815, Note_on_c, 0, 55, 80
2, 61817, Note_on_c, 0, 38, 127
2, 61845, Note_off_c, 0, 55, 80
2, 61847, Note_off_c, 0, 38, 127
2, 62017, Note_on_c, 0, 55, 80
2, 62047, Note_off_c, 0, 55, 80
2, 62198, Note_on_c, 0, 55, 80
2, 62200, Note_on_c, 0, 36, 127
2, 62228, Note_off_c, 0, 55, 80
2, 62230, Note_off_c, 0, 36, 127
2, 62388, Note_on_c, 0, 55, 80
2, 62418, Note_off_c, 0, 55, 80
2, 62581, Note_on_c, 0, 38, 127
2, 62588, Note_on_c, 0, 55, 80
2, 62611, Note_off_c, 0, 38, 127
2, 62618, Note_off_c, 0, 55, 80
2, 62790, Note_on_c, 0, 55, 80
2, 62820, Note_off_c, 0, 55, 80
2, 62970, Note_on_c, 0, 38, 42
2, 62971, Note_on_c, 0, 55, 80
2, 62974, Note_on_c, 0, 36, 127
2, 63000, Note_off_c, 0, 38, 42
2, 63001, Note_off_c, 0, 55, 80
2, 63004, Note_off_c, 0, 36, 127
2, 63160, Note_on_c, 0, 38, 51
2, 63175, Note_on_c, 0, 55, 80
2, 63190, Note_off_c, 0, 38, 51
2, 63205, Note_off_c, 0, 55, 80
2, 63348, Note_on_c, 0, 38, 57
2, 63364, Note_on_c, 0, 55, 80
2, 63378, Note_off_c, 0, 38, 57
2, 63394, Note_off_c, 0, 55, 80
2, 63549, Note_on_c, 0, 38, 73
2, 63559, Note_on_c, 0, 55, 80
2, 63579, Note_off_c, 0, 38, 73
2, 63589, Note_off_c, 0, 55, 80
2, 63733, Note_on_c, 0, 36, 127
2, 63754, Note_on_c, 0, 38, 110
2, 63754, Note_on_c, 0, 55, 80
2, 63763, Note_off_c, 0, 36, 127
2, 63784, Note_off_c, 0, 55, 80
2, 63784, Note_off_c, 0, 38, 110
2, 63925, Note_on_c, 0, 55, 80
2, 63938, Note_on_c, 0, 38, 92
2, 63955, Note_off_c, 0, 55, 80
2, 63968, Note_off_c, 0, 38, 92
2, 64123, Note_on_c, 0, 38, 127
2, 64125, Note_on_c, 0, 55, 80
2, 64153, Note_off_c, 0, 38, 127
2, 64155, Note_off_c, 0, 55, 80
2, 64320, Note_on_c, 0, 55, 80
2, 64324, Note_on_c, 0, 38, 119
2, 64350, Note_off_c, 0, 55, 80
2, 64354, Note_off_c, 0, 38, 119
2, 64513, Note_on_c, 0, 36, 127
2, 64516, Note_on_c, 0, 55, 80
2, 64517, Note_on_c, 0, 60, 38
2, 64543, Note_off_c, 0, 36, 127
2, 64546, Note_off_c, 0, 55, 80
2, 64547, Note_off_c, 0, 60, 38
2, 64703, Note_on_c, 0, 55, 80
2, 64733, Note_off_c, 0, 55, 80
2, 64884, Note_on_c, 0, 55, 80
2, 64902, Note_on_c, 0, 38, 127
2, 64914, Note_off_c, 0, 55, 80
2, 64932, Note_off_c, 0, 38, 127
2, 65081, Note_on_c, 0, 55, 80
2, 65111, Note_off_c, 0, 55, 80
2, 65280, Note_on_c, 0, 55, 80
2, 65288, Note_on_c, 0, 36, 127
2, 65310, Note_off_c, 0, 55, 80
2, 65318, Note_off_c, 0, 36, 127
2, 65482, Note_on_c, 0, 55, 80
2, 65512, Note_off_c, 0, 55, 80
2, 65668, Note_on_c, 0, 55, 80
2, 65673, Note_on_c, 0, 38, 127
2, 65698, Note_off_c, 0, 55, 80
2, 65703, Note_off_c, 0, 38, 127
2, 65856, Note_on_c, 0, 55, 80
2, 65886, Note_off_c, 0, 55, 80
2, 66041, Note_on_c, 0, 36, 127
2, 66053, Note_on_c, 0, 55, 80
2, 66071, Note_off_c, 0, 36, 127
2, 66083, Note_off_c, 0, 55, 80
2, 66244, Note_on_c, 0, 55, 80
2, 66274, Note_off_c, 0, 55, 80
2, 66434, Note_on_c, 0, 38, 127
2, 66436, Note_on_c, 0, 55, 80
2, 66464, Note_off_c, 0, 38, 127
2, 66466, Note_off_c, 0, 55, 80
2, 66624, Note_on_c, 0, 55, 80
2, 66654, Note_off_c, 0, 55, 80
2, 66811, Note_on_c, 0, 36, 127
2, 66816, Note_on_c, 0, 55, 80
2, 66841, Note_off_c, 0, 36, 127
2, 66846, Note_off_c, 0, 55, 80
2, 67005, Note_on_c, 0, 55, 80
2, 67012, Note_on_c, 0, 38, 51
2, 67035, Note_off_c, 0, 55, 80
2, 67042, Note_off_c, 0, 38, 51
2, 67191, Note_on_c, 0, 38, 127
2, 67200, Note_on_c, 0, 55, 80
2, 67221, Note_off_c, 0, 38, 127
2, 67230, Note_off_c, 0, 55, 80
2, 67386, Note_on_c, 0, 55, 80
2, 67416, Note_off_c, 0, 55, 80
2, 67586, Note_on_c, 0, 55, 80
2, 67590, Note_on_c, 0, 36, 127
2, 67616, Note_off_c, 0, 55, 80
2, 67620, Note_off_c, 0, 36, 127
2, 67780, Note_on_c, 0, 55, 80
2, 67810, Note_off_c, 0, 55, 80
2, 67969, Note_on_c, 0, 38, 127
2, 67974, Note_on_c, 0, 55, 80
2, 67999, Note_off_c, 0, 38, 127
2, 68004, Note_off_c, 0, 55, 80
2, 68152, Note_on_c, 0, 55, 80
2, 68182, Note_off_c, 0, 55, 80
2, 68350, Note_on_c, 0, 36, 127
2, 68352, Note_on_c, 0, 55, 80
2, 68380, Note_off_c, 0, 36, 127
2, 68382, Note_off_c, 0, 55, 80
2, 68537, Note_on_c, 0, 55, 80
2, 68567, Note_off_c, 0, 55, 80
2, 68725, Note_on_c, 0, 38, 127
2, 68736, Note_on_c, 0, 55, 80
2, 68755, Note_off_c, 0, 38, 127
2, 68766, Note_off_c, 0, 55, 80
2, 68938, Note_on_c, 0, 55, 80
2, 68968, Note_off_c, 0, 55, 80
2, 69120, Note_on_c, 0, 36, 127
2, 69123, Note_on_c, 0, 55, 80
2, 69150, Note_off_c, 0, 36, 127
2, 69153, Note_off_c, 0, 55, 80
2, 69313, Note_on_c, 0, 38, 54
2, 69322, Note_on_c, 0, 55, 80
2, 69343, Note_off_c, 0, 38, 54
2, 69352, Note_off_c, 0, 55, 80
2, 69500, Note_on_c, 0, 55, 80
2, 69508, Note_on_c, 0, 38, 127
2, 69530, Note_off_c, 0, 55, 80
2, 69538, Note_off_c, 0, 38, 127
2, 69684, Note_on_c, 0, 55, 80
2, 69714, Note_off_c, 0, 55, 80
2, 69884, Note_on_c, 0, 55, 80
2, 69893, Note_on_c, 0, 36, 127
2, 69914, Note_off_c, 0, 55, 80
2, 69923, Note_off_c, 0, 36, 127
2, 70080, Note_on_c, 0, 55, 80
2, 70087, Note_on_c, 0, 38, 54
2, 70110, Note_off_c, 0, 55, 80
2, 70117, Note_off_c, 0, 38, 54
2, 70263, Note_on_c, 0, 55, 80
2, 70269, Note_on_c, 0, 38, 127
2, 70293, Note_off_c, 0, 55, 80
2, 70299, Note_off_c, 0, 38, 127
2, 70474, Note_on_c, 0, 55, 80
2, 70504, Note_off_c, 0, 55, 80
2, 70648, Note_on_c, 0, 36, 127
2, 70662, Note_on_c, 0, 60, 38
2, 70664, Note_on_c, 0, 55, 80
2, 70678, Note_off_c, 0, 36, 127
2, 70692, Note_off_c, 0, 60, 38
2, 70694, Note_off_c, 0, 55, 80
2, 70844, Note_on_c, 0, 55, 80
2, 70874, Note_off_c, 0, 55, 80
2, 71034, Note_on_c, 0, 55, 80
2, 71035, Note_on_c, 0, 38, 127
2, 71064, Note_off_c, 0, 55, 80
2, 71065, Note_off_c, 0, 38, 127
2, 71236, Note_on_c, 0, 55, 80
2, 71266, Note_off_c, 0, 55, 80
2, 71413, Note_on_c, 0, 55, 80
2, 71417, Note_on_c, 0, 36, 127
2, 71443, Note_off_c, 0, 55, 80
2, 71447, Note_off_c, 0, 36, 127
2, 71620, Note_on_c, 0, 55, 80
2, 71650, Note_off_c, 0, 55, 80
2, 71806, Note_on_c, 0, 38, 127
2, 71806, Note_on_c, 0, 55, 80
2, 71836, Note_off_c, 0, 55, 80
2, 71836, Note_off_c, 0, 38, 127
2, 71999, Note_on_c, 0, 55, 80
2, 72029, Note_off_c, 0, 55, 80
2, 72183, Note_on_c, 0, 55, 80
2, 72186, Note_on_c, 0, 36, 127
2, 72213, Note_off_c, 0, 55, 80
2, 72216, Note_off_c, 0, 36, 127
2, 72392, Note_on_c, 0, 55, 80
2, 72422, Note_off_c, 0, 55, 80
2, 72569, Note_on_c, 0, 38, 127
2, 72573, Note_on_c, 0, 55, 80
2, 72599, Note_off_c, 0, 38, 127
2, 72603, Note_off_c, 0, 55, 80
2, 72764, Note_on_c, 0, 55, 80
2, 72794, Note_off_c, 0, 55, 80
2, 72952, Note_on_c, 0, 36, 127
2, 72970, Note_on_c, 0, 55, 80
2, 72982, Note_off_c, 0, 36, 127
2, 73000, Note_off_c, 0, 55, 80
2, 73144, Note_on_c, 0, 55, 80
2, 73174, Note_off_c, 0, 55, 80
2, 73335, Note_on_c, 0, 38, 127
2, 73339, Note_on_c, 0, 55, 80
2, 73365, Note_off_c, 0, 38, 127
2, 73369, Note_off_c, 0, 55, 80
2, 73537, Note_on_c, 0, 55, 80
2, 73544, Note_on_c, 0, 38, 110
2, 73567, Note_off_c, 0, 55, 80
2, 73574, Note_off_c, 0, 38, 110
2, 73720, Note_on_c, 0, 36, 127
2, 73732, Note_on_c, 0, 55, 80
2, 73732, Note_on_c, 0, 60, 38
2, 73750, Note_off_c, 0, 36, 127
2, 73762, Note_off_c, 0, 60, 38
2, 73762, Note_off_c, 0, 55, 80
2, 73922, Note_on_c, 0, 55, 80
2, 73952, Note_off_c, 0, 55, 80
2, 74108, Note_on_c, 0, 55, 80
2, 74120, Note_on_c, 0, 38, 127
2, 74138, Note_off_c, 0, 55, 80
2, 74150, Note_off_c, 0, 38, 127
2, 74300, Note_on_c, 0, 55, 80
2, 74330, Note_off_c, 0, 55, 80
2, 74498, Note_on_c, 0, 55, 80
2, 74505, Note_on_c, 0, 36, 127
2, 74528, Note_off_c, 0, 55, 80
2, 74535, Note_off_c, 0, 36, 127
2, 74682, Note_on_c, 0, 55, 80
2, 74712, Note_off_c, 0, 55, 80
2, 74880, Note_on_c, 0, 38, 127
2, 74887, Note_on_c, 0, 55, 80
2, 74910, Note_off_c, 0, 38, 127
2, 74917, Note_off_c, 0, 55, 80
2, 75064, Note_on_c, 0, 55, 80
2, 75094, Note_off_c, 0, 55, 80
2, 75252, Note_on_c, 0, 36, 127
2, 75267, Note_on_c, 0, 55, 80
2, 75282, Note_off_c, 0, 36, 127
2, 75297, Note_off_c, 0, 55, 80
2, 75460, Note_on_c, 0, 55, 80
2, 75490, Note_off_c, 0, 55, 80
2, 75649, Note_on_c, 0, 38, 100
2, 75657, Note_on_c, 0, 55, 80
2, 75679, Note_off_c, 0, 38, 100
2, 75687, Note_off_c, 0, 55, 80
2, 75835, Note_on_c, 0, 55, 80
2, 75865, Note_off_c, 0, 55, 80
2, 76021, Note_on_c, 0, 38, 110
2, 76034, Note_on_c, 0, 55, 80
2, 76040, Note_on_c, 0, 36, 127
2, 76051, Note_off_c, 0, 38, 110
2, 76064, Note_off_c, 0, 55, 80
2, 76070, Note_off_c, 0, 36, 127
2, 76217, Note_on_c, 0, 55, 80
2, 76220, Note_on_c, 0, 38, 127
2, 76247, Note_off_c, 0, 55, 80
2, 76250, Note_off_c, 0, 38, 127
2, 76408, Note_on_c, 0, 55, 80
2, 76423, Note_on_c, 0, 38, 127
2, 76438, Note_off_c, 0, 55, 80
2, 76453, Note_off_c, 0, 38, 127
2, 76604, Note_on_c, 0, 55, 80
2, 76609, Note_on_c, 0, 38, 127
2, 76634, Note_off_c, 0, 55, 80
2, 76639, Note_off_c, 0, 38, 127
2, 76792, Note_on_c, 0, 55, 80
2, 76794, Note_on_c, 0, 36, 127
2, 76800, Note_on_c, 0, 60, 38
2, 76822, Note_off_c, 0, 55, 80
2, 76824, Note_off_c, 0, 36, 127
2, 76830, Note_off_c, 0, 60, 38
2, 76996, Note_on_c, 0, 55, 80
2, 77026, Note_off_c, 0, 55, 80
2, 77172, Note_on_c, 0, 55, 80
2, 77172, Note_on_c, 0, 38, 127
2, 77202, Note_off_c, 0, 38, 127
2, 77202, Note_off_c, 0, 55, 80
2, 77380, Note_on_c, 0, 55, 80
2, 77410, Note_off_c, 0, 55, 80
2, 77561, Note_on_c, 0, 36, 127
2, 77576, Note_on_c, 0, 55, 80
2, 77591, Note_off_c, 0, 36, 127
2, 77606, Note_off_c, 0, 55, 80
2, 77756, Note_on_c, 0, 55, 80
2, 77758, Note_on_c, 0, 38, 43
2, 77786, Note_off_c, 0, 55, 80
2, 77788, Note_off_c, 0, 38, 43
2, 77948, Note_on_c, 0, 55, 80
2, 77959, Note_on_c, 0, 38, 127
2, 77978, Note_off_c, 0, 55, 80
2, 77989, Note_off_c, 0, 38, 127
2, 78147, Note_on_c, 0, 55, 80
2, 78177, Note_off_c, 0, 55, 80
2, 78335, Note_on_c, 0, 36, 127
2, 78339, Note_on_c, 0, 55, 80
2, 78365, Note_off_c, 0, 36, 127
2, 78369, Note_off_c, 0, 55, 80
2, 78520, Note_on_c, 0, 55, 80
2, 78550, Note_off_c, 0, 55, 80
2, 78724, Note_on_c, 0, 38, 127
2, 78729, Note_on_c, 0, 55, 80
2, 78754, Note_off_c, 0, 38, 127
2, 78759, Note_off_c, 0, 55, 80
2, 78912, Note_on_c, 0, 55, 80
2, 78942, Note_off_c, 0, 55, 80
2, 79092, Note_on_c, 0, 55, 80
2, 79095, Note_on_c, 0, 36, 127
2, 79122, Note_off_c, 0, 55, 80
2, 79125, Note_off_c, 0, 36, 127
2, 79304, Note_on_c, 0, 55, 80
2, 79334, Note_off_c, 0, 55, 80
2, 79476, Note_on_c, 0, 38, 127
2, 79481, Note_on_c, 0, 55, 80
2, 79506, Note_off_c, 0, 38, 127
2, 79511, Note_off_c, 0, 55, 80
2, 79685, Note_on_c, 0, 55, 80
2, 79715, Note_off_c, 0, 55, 80
2, 79868, Note_on_c, 0, 55, 80
2, 79880, Note_on_c, 0, 36, 127
2, 79898, Note_off_c, 0, 55, 80
2, 79910, Note_off_c, 0, 36, 127
2, 80064, Note_on_c, 0, 55, 80
2, 80094, Note_off_c, 0, 55, 80
2, 80244, Note_on_c, 0, 55, 80
2, 80253, Note_on_c, 0, 38, 127
2, 80274, Note_off_c, 0, 55, 80
2, 80283, Note_off_c, 0, 38, 127
2, 80457, Note_on_c, 0, 55, 80
2, 80487, Note_off_c, 0, 55, 80
2, 80640, Note_on_c, 0, 36, 127
2, 80646, Note_on_c, 0, 55, 80
2, 80670, Note_off_c, 0, 36, 127
2, 80676, Note_off_c, 0, 55, 80
2, 80842, Note_on_c, 0, 55, 80
2, 80872, Note_off_c, 0, 55, 80
2, 81020, Note_on_c, 0, 38, 127
2, 81030, Note_on_c, 0, 55, 80
2, 81050, Note_off_c, 0, 38, 127
2, 81060, Note_off_c, 0, 55, 80
2, 81226, Note_on_c, 0, 55, 80
2, 81256, Note_off_c, 0, 55, 80
2, 81397, Note_on_c, 0, 36, 127
2, 81416, Note_on_c, 0, 55, 80
2, 81427, Note_off_c, 0, 36, 127
2, 81446, Note_off_c, 0, 55, 80
2, 81595, Note_on_c, 0, 38, 40
2, 81606, Note_on_c, 0, 55, 80
2, 81625, Note_off_c, 0, 38, 40
2, 81636, Note_off_c, 0, 55, 80
2, 81783, Note_on_c, 0, 38, 127
2, 81791, Note_on_c, 0, 55, 80
2, 81813, Note_off_c, 0, 38, 127
2, 81821, Note_off_c, 0, 55, 80
2, 81983, Note_on_c, 0, 55, 80
2, 82013, Note_off_c, 0, 55, 80
2, 82169, Note_on_c, 0, 36, 127
2, 82177, Note_on_c, 0, 55, 80
2, 82199, Note_off_c, 0, 36, 127
2, 82207, Note_off_c, 0, 55, 80
2, 82377, Note_on_c, 0, 55, 80
2, 82407, Note_off_c, 0, 55, 80
2, 82550, Note_on_c, 0, 38, 127
2, 82564, Note_on_c, 0, 55, 80
2, 82580, Note_off_c, 0, 38, 127
2, 82594, Note_off_c, 0, 55, 80
2, 82743, Note_on_c, 0, 55, 80
2, 82773, Note_off_c, 0, 55, 80
2, 82936, Note_on_c, 0, 36, 127
2, 82952, Note_on_c, 0, 60, 38
2, 82953, Note_on_c, 0, 55, 80
2, 82966, Note_off_c, 0, 36, 127
2, 82982, Note_off_c, 0, 60, 38
2, 82983, Note_off_c, 0, 55, 80
2, 83128, Note_on_c, 0, 55, 80
2, 83158, Note_off_c, 0, 55, 80
2, 83317, Note_on_c, 0, 55, 80
2, 83330, Note_on_c, 0, 38, 127
2, 83347, Note_off_c, 0, 55, 80
2, 83360, Note_off_c, 0, 38, 127
2, 83516, Note_on_c, 0, 55, 80
2, 83546, Note_off_c, 0, 55, 80
2, 83717, Note_on_c, 0, 55, 80
2, 83720, Note_on_c, 0, 36, 127
2, 83747, Note_off_c, 0, 55, 80
2, 83750, Note_off_c, 0, 36, 127
2, 83894, Note_on_c, 0, 55, 80
2, 83924, Note_off_c, 0, 55, 80
2, 84086, Note_on_c, 0, 55, 80
2, 84100, Note_on_c, 0, 38, 127
2, 84116, Note_off_c, 0, 55, 80
2, 84130, Note_off_c, 0, 38, 127
2, 84276, Note_on_c, 0, 55, 80
2, 84306, Note_off_c, 0, 55, 80
2, 84484, Note_on_c, 0, 36, 127
2, 84484, Note_on_c, 0, 55, 80
2, 84514, Note_off_c, 0, 55, 80
2, 84514, Note_off_c, 0, 36, 127
2, 84662, Note_on_c, 0, 55, 80
2, 84679, Note_on_c, 0, 38, 43
2, 84692, Note_off_c, 0, 55, 80
2, 84709, Note_off_c, 0, 38, 43
2, 84857, Note_on_c, 0, 38, 127
2, 84873, Note_on_c, 0, 55, 80
2, 84887, Note_off_c, 0, 38, 127
2, 84903, Note_off_c, 0, 55, 80
2, 85064, Note_on_c, 0, 55, 80
2, 85094, Note_off_c, 0, 55, 80
2, 85240, Note_on_c, 0, 55, 80
2, 85242, Note_on_c, 0, 36, 127
2, 85270, Note_off_c, 0, 55, 80
2, 85272, Note_off_c, 0, 36, 127
2, 85437, Note_on_c, 0, 55, 80
2, 85467, Note_off_c, 0, 55, 80
2, 85633, Note_on_c, 0, 55, 80
2, 85639, Note_on_c, 0, 38, 127
2, 85663, Note_off_c, 0, 55, 80
2, 85669, Note_off_c, 0, 38, 127
2, 85834, Note_on_c, 0, 55, 80
2, 85864, Note_off_c, 0, 55, 80
2, 86015, Note_on_c, 0, 36, 127
2, 86022, Note_on_c, 0, 55, 80
2, 86045, Note_off_c, 0, 36, 127
2, 86052, Note_off_c, 0, 55, 80
2, 86209, Note_on_c, 0, 55, 80
2, 86239, Note_off_c, 0, 55, 80
2, 86401, Note_on_c, 0, 38, 127
2, 86409, Note_on_c, 0, 55, 80
2, 86431, Note_off_c, 0, 38, 127
2, 86439, Note_off_c, 0, 55, 80
2, 86600, Note_on_c, 0, 55, 80
2, 86630, Note_off_c, 0, 55, 80
2, 86777, Note_on_c, 0, 36, 127
2, 86789, Note_on_c, 0, 55, 80
2, 86807, Note_off_c, 0, 36, 127
2, 86819, Note_off_c, 0, 55, 80
2, 86965, Note_on_c, 0, 55, 80
2, 86984, Note_on_c, 0, 36, 127
2, 86995, Note_off_c, 0, 55, 80
2, 87014, Note_off_c, 0, 36, 127
2, 87175, Note_on_c, 0, 38, 127
2, 87175, Note_on_c, 0, 55, 80
2, 87205, Note_off_c, 0, 55, 80
2, 87205, Note_off_c, 0, 38, 127
2, 87349, Note_on_c, 0, 55, 80
2, 87379, Note_off_c, 0, 55, 80
2, 87553, Note_on_c, 0, 36, 127
2, 87556, Note_on_c, 0, 55, 80
2, 87583, Note_off_c, 0, 36, 127
2, 87586, Note_off_c, 0, 55, 80
2, 87735, Note_on_c, 0, 38, 49
2, 87740, Note_on_c, 0, 55, 80
2, 87765, Note_off_c, 0, 38, 49
2, 87770, Note_off_c, 0, 55, 80
2, 87939, Note_on_c, 0, 38, 127
2, 87943, Note_on_c, 0, 55, 80
2, 87969, Note_off_c, 0, 38, 127
2, 87973, Note_off_c, 0, 55, 80
2, 88129, Note_on_c, 0, 55, 80
2, 88159, Note_off_c, 0, 55, 80
2, 88313, Note_on_c, 0, 36, 127
2, 88315, Note_on_c, 0, 55, 80
2, 88343, Note_off_c, 0, 36, 127
2, 88345, Note_off_c, 0, 55, 80
2, 88509, Note_on_c, 0, 55, 80
2, 88514, Note_on_c, 0, 38, 73
2, 88539, Note_off_c, 0, 55, 80
2, 88544, Note_off_c, 0, 38, 73
2, 88693, Note_on_c, 0, 55, 80
2, 88706, Note_on_c, 0, 38, 127
2, 88723, Note_off_c, 0, 55, 80
2, 88736, Note_off_c, 0, 38, 127
2, 88896, Note_on_c, 0, 38, 110
2, 88902, Note_on_c, 0, 55, 80
2, 88926, Note_off_c, 0, 38, 110
2, 88932, Note_off_c, 0, 55, 80
2, 89095, Note_on_c, 0, 60, 38
2, 89096, Note_on_c, 0, 55, 80
2, 89098, Note_on_c, 0, 36, 127
2, 89125, Note_off_c, 0, 60, 38
2, 89126, Note_off_c, 0, 55, 80
2, 89128, Note_off_c, 0, 36, 127
2, 89278, Note_on_c, 0, 55, 80
2, 89308, Note_off_c, 0, 55, 80
2, 89468, Note_on_c, 0, 55, 80
2, 89468, Note_on_c, 0, 38, 127
2, 89498, Note_off_c, 0, 38, 127
2, 89498, Note_off_c, 0, 55, 80
2, 89662, Note_on_c, 0, 55, 80
2, 89692, Note_off_c, 0, 55, 80
2, 89854, Note_on_c, 0, 55, 80
2, 89856, Note_on_c, 0, 36, 127
2, 89884, Note_off_c, 0, 55, 80
2, 89886, Note_off_c, 0, 36, 127
2, 90041, Note_on_c, 0, 55, 80
2, 90050, Note_on_c, 0, 38, 49
2, 90071, Note_off_c, 0, 55, 80
2, 90080, Note_off_c, 0, 38, 49
2, 90244, Note_on_c, 0, 55, 80
2, 90248, Note_on_c, 0, 38, 127
2, 90274, Note_off_c, 0, 55, 80
2, 90278, Note_off_c, 0, 38, 127
2, 90428, Note_on_c, 0, 55, 80
2, 90458, Note_off_c, 0, 55, 80
2, 90615, Note_on_c, 0, 36, 127
2, 90621, Note_on_c, 0, 55, 80
2, 90645, Note_off_c, 0, 36, 127
2, 90651, Note_off_c, 0, 55, 80
2, 90820, Note_on_c, 0, 55, 80
2, 90850, Note_off_c, 0, 55, 80
2, 90996, Note_on_c, 0, 38, 127
2, 91014, Note_on_c, 0, 55, 80
2, 91026, Note_off_c, 0, 38, 127
2, 91044, Note_off_c, 0, 55, 80
2, 91196, Note_on_c, 0, 55, 80
2, 91226, Note_off_c, 0, 55, 80
2, 91384, Note_on_c, 0, 55, 80
2, 91398, Note_on_c, 0, 36, 127
2, 91414, Note_off_c, 0, 55, 80
2, 91428, Note_off_c, 0, 36, 127
2, 91576, Note_on_c, 0, 38, 54
2, 91593, Note_on_c, 0, 55, 80
2, 91606, Note_off_c, 0, 38, 54
2, 91623, Note_off_c, 0, 55, 80
2, 91784, Note_on_c, 0, 55, 80
2, 91784, Note_on_c, 0, 38, 127
2, 91814, Note_off_c, 0, 38, 127
2, 91814, Note_off_c, 0, 55, 80
2, 91970, Note_on_c, 0, 55, 80
2, 92000, Note_off_c, 0, 55, 80
2, 92157, Note_on_c, 0, 36, 127
2, 92170, Note_on_c, 0, 55, 80
2, 92187, Note_off_c, 0, 36, 127
2, 92200, Note_off_c, 0, 55, 80
2, 92360, Note_on_c, 0, 55, 80
2, 92390, Note_off_c, 0, 55, 80
2, 92536, Note_on_c, 0, 55, 80
2, 92551, Note_on_c, 0, 38, 127
2, 92566, Note_off_c, 0, 55, 80
2, 92581, Note_off_c, 0, 38, 127
2, 92734, Note_on_c, 0, 55, 80
2, 92764, Note_off_c, 0, 55, 80
2, 92934, Note_on_c, 0, 36, 127
2, 92935, Note_on_c, 0, 55, 80
2, 92964, Note_off_c, 0, 36, 127
2, 92965, Note_off_c, 0, 55, 80
2, 93109, Note_on_c, 0, 38, 51
2, 93111, Note_on_c, 0, 55, 80
2, 93139, Note_off_c, 0, 38, 51
2, 93141, Note_off_c, 0, 55, 80
2, 93316, Note_on_c, 0, 55, 80
2, 93318, Note_on_c, 0, 38, 127
2, 93346, Note_off_c, 0, 55, 80
2, 93348, Note_off_c, 0, 38, 127
2, 93507, Note_on_c, 0, 55, 80
2, 93537, Note_off_c, 0, 55, 80
2, 93694, Note_on_c, 0, 55, 80
2, 93704, Note_on_c, 0, 36, 127
2, 93724, Note_off_c, 0, 55, 80
2, 93734, Note_off_c, 0, 36, 127
2, 93881, Note_on_c, 0, 55, 80
2, 93888, Note_on_c, 0, 38, 110
2, 93911, Note_off_c, 0, 55, 80
2, 93918, Note_off_c, 0, 38, 110
2, 94075, Note_on_c, 0, 38, 127
2, 94082, Note_on_c, 0, 55, 80
2, 94105, Note_off_c, 0, 38, 127
2, 94112, Note_off_c, 0, 55, 80
2, 94264, Note_on_c, 0, 55, 80
2, 94271, Note_on_c, 0, 38, 110
2, 94294, Note_off_c, 0, 55, 80
2, 94301, Note_off_c, 0, 38, 110
2, 94454, Note_on_c, 0, 38, 110
2, 94457, Note_on_c, 0, 55, 80
2, 94462, Note_on_c, 0, 36, 127
2, 94484, Note_off_c, 0, 38, 110
2, 94487, Note_off_c, 0, 55, 80
2, 94492, Note_off_c, 0, 36, 127
2, 94648, Note_on_c, 0, 38, 110
2, 94658, Note_on_c, 0, 55, 80
2, 94678, Note_off_c, 0, 38, 110
2, 94688, Note_off_c, 0, 55, 80
2, 94838, Note_on_c, 0, 55, 80
2, 94852, Note_on_c, 0, 38, 127
2, 94868, Note_off_c, 0, 55, 80
2, 94882, Note_off_c, 0, 38, 127
2, 95033, Note_on_c, 0, 38, 110
2, 95037, Note_on_c, 0, 55, 80
2, 95063, Note_off_c, 0, 38, 110
2, 95067, Note_off_c, 0, 55, 80
2, 95222, Note_on_c, 0, 55, 80
2, 95230, Note_on_c, 0, 60, 38
2, 95236, Note_on_c, 0, 36, 127
2, 95252, Note_off_c, 0, 55, 80
2, 95260, Note_off_c, 0, 60, 38
2, 95266, Note_off_c, 0, 36, 127
2, 95433, Note_on_c, 0, 55, 80
2, 95463, Note_off_c, 0, 55, 80
2, 95616, Note_on_c, 0, 38, 127
2, 95624, Note_on_c, 0, 55, 80
2, 95646, Note_off_c, 0, 38, 127
2, 95654, Note_off_c, 0, 55, 80
2, 95813, Note_on_c, 0, 55, 80
2, 95843, Note_off_c, 0, 55, 80
2, 95990, Note_on_c, 0, 36, 127
2, 96000, Note_on_c, 0, 55, 80
2, 96020, Note_off_c, 0, 36, 127
2, 96030, Note_off_c, 0, 55, 80
2, 96194, Note_on_c, 0, 38, 70
2, 96194, Note_on_c, 0, 55, 80
2, 96224, Note_off_c, 0, 55, 80
2, 96224, Note_off_c, 0, 38, 70
2, 96390, Note_on_c, 0, 55, 80
2, 96391, Note_on_c, 0, 38, 127
2, 96420, Note_off_c, 0, 55, 80
2, 96421, Note_off_c, 0, 38, 127
2, 96565, Note_on_c, 0, 55, 80
2, 96595, Note_off_c, 0, 55, 80
2, 96766, Note_on_c, 0, 36, 127
2, 96771, Note_on_c, 0, 55, 80
2, 96796, Note_off_c, 0, 36, 127
2, 96801, Note_off_c, 0, 55, 80
2, 96952, Note_on_c, 0, 55, 80
2, 96961, Note_on_c, 0, 38, 68
2, 96982, Note_off_c, 0, 55, 80
2, 96991, Note_off_c, 0, 38, 68
2, 97144, Note_on_c, 0, 55, 80
2, 97148, Note_on_c, 0, 38, 127
2, 97174, Note_off_c, 0, 55, 80
2, 97178, Note_off_c, 0, 38, 127
2, 97337, Note_on_c, 0, 55, 80
2, 97367, Note_off_c, 0, 55, 80
2, 97536, Note_on_c, 0, 38, 110
2, 97541, Note_on_c, 0, 55, 80
2, 97541, Note_on_c, 0, 36, 127
2, 97566, Note_off_c, 0, 38, 110
2, 97571, Note_off_c, 0, 36, 127
2, 97571, Note_off_c, 0, 55, 80
2, 97728, Note_on_c, 0, 55, 80
2, 97758, Note_off_c, 0, 55, 80
2, 97918, Note_on_c, 0, 55, 80
2, 97924, Note_on_c, 0, 36, 127
2, 97948, Note_off_c, 0, 55, 80
2, 97954, Note_off_c, 0, 36, 127
2, 98109, Note_on_c, 0, 38, 110
2, 98121, Note_on_c, 0, 55, 80
2, 98139, Note_off_c, 0, 38, 110
2, 98151, Note_off_c, 0, 55, 80
2, 98298, Note_on_c, 0, 55, 80
2, 98328, Note_off_c, 0, 55, 80
2, 98503, Note_on_c, 0, 55, 80
2, 98533, Note_off_c, 0, 55, 80
2, 98678, Note_on_c, 0, 38, 127
2, 98680, Note_on_c, 0, 55, 80
2, 98708, Note_off_c, 0, 38, 127
2, 98710, Note_off_c, 0, 55, 80
2, 98883, Note_on_c, 0, 55, 80
2, 98913, Note_off_c, 0, 55, 80
2, 99077, Note_on_c, 0, 55, 80
2, 99082, Note_on_c, 0, 36, 127
2, 99107, Note_off_c, 0, 55, 80
2, 99112, Note_off_c, 0, 36, 127
2, 99256, Note_on_c, 0, 55, 80
2, 99286, Note_off_c, 0, 55, 80
2, 99449, Note_on_c, 0, 55, 80
2, 99456, Note_on_c, 0, 38, 127
2, 99479, Note_off_c, 0, 55, 80
2, 99486, Note_off_c, 0, 38, 127
2, 99645, Note_on_c, 0, 55, 80
2, 99675, Note_off_c, 0, 55, 80
2, 99839, Note_on_c, 0, 55, 80
2, 99848, Note_on_c, 0, 36, 127
2, 99869, Note_off_c, 0, 55, 80
2, 99878, Note_off_c, 0, 36, 127
2, 100040, Note_on_c, 0, 55, 80
2, 100070, Note_off_c, 0, 55, 80
2, 100220, Note_on_c, 0, 55, 80
2, 100231, Note_on_c, 0, 38, 127
2, 100250, Note_off_c, 0, 55, 80
2, 100261, Note_off_c, 0, 38, 127
2, 100416, Note_on_c, 0, 55, 80
2, 100446, Note_off_c, 0, 55, 80
2, 100602, Note_on_c, 0, 38, 110
2, 100606, Note_on_c, 0, 55, 80
2, 100617, Note_on_c, 0, 36, 127
2, 100632, Note_off_c, 0, 38, 110
2, 100636, Note_off_c, 0, 55, 80
2, 100647, Note_off_c, 0, 36, 127
2, 100797, Note_on_c, 0, 55, 80
2, 100808, Note_on_c, 0, 38, 127
2, 100827, Note_off_c, 0, 55, 80
2, 100838, Note_off_c, 0, 38, 127
2, 100989, Note_on_c, 0, 55, 80
2, 100989, Note_on_c, 0, 38, 127
2, 101019, Note_off_c, 0, 38, 127
2, 101019, Note_off_c, 0, 55, 80
2, 101180, Note_on_c, 0, 55, 80
2, 101192, Note_on_c, 0, 38, 127
2, 101210, Note_off_c, 0, 55, 80
2, 101222, Note_off_c, 0, 38, 127
2, 101378, Note_on_c, 0, 36, 127
2, 101381, Note_on_c, 0, 55, 80
2, 101384, Note_on_c, 0, 60, 38
2, 101408, Note_off_c, 0, 36, 127
2, 101411, Note_off_c, 0, 55, 80
2, 101414, Note_off_c, 0, 60, 38
2, 101578, Note_on_c, 0, 55, 80
2, 101608, Note_off_c, 0, 55, 80
2, 101753, Note_on_c, 0, 55, 80
2, 101756, Note_on_c, 0, 38, 127
2, 101783, Note_off_c, 0, 55, 80
2, 101786, Note_off_c, 0, 38, 127
2, 101948, Note_on_c, 0, 55, 80
2, 101978, Note_off_c, 0, 55, 80
2, 102136, Note_on_c, 0, 36, 127
2, 102152, Note_on_c, 0, 55, 80
2, 102166, Note_off_c, 0, 36, 127
2, 102182, Note_off_c, 0, 55, 80
2, 102338, Note_on_c, 0, 55, 80
2, 102368, Note_off_c, 0, 55, 80
2, 102528, Note_on_c, 0, 55, 80
2, 102532, Note_on_c, 0, 38, 127
2, 102558, Note_off_c, 0, 55, 80
2, 102562, Note_off_c, 0, 38, 127
2, 102716, Note_on_c, 0, 55, 80
2, 102746, Note_off_c, 0, 55, 80
2, 102914, Note_on_c, 0, 55, 80
2, 102921, Note_on_c, 0, 36, 127
2, 102944, Note_off_c, 0, 55, 80
2, 102951, Note_off_c, 0, 36, 127
2, 103114, Note_on_c, 0, 55, 80
2, 103144, Note_off_c, 0, 55, 80
2, 103289, Note_on_c, 0, 38, 127
2, 103289, Note_on_c, 0, 55, 80
2, 103319, Note_off_c, 0, 55, 80
2, 103319, Note_off_c, 0, 38, 127
2, 103492, Note_on_c, 0, 55, 80
2, 103522, Note_off_c, 0, 55, 80
2, 103687, Note_on_c, 0, 55, 80
2, 103687, Note_on_c, 0, 36, 127
2, 103717, Note_off_c, 0, 36, 127
2, 103717, Note_off_c, 0, 55, 80
2, 103877, Note_on_c, 0, 55, 80
2, 103907, Note_off_c, 0, 55, 80
2, 104059, Note_on_c, 0, 55, 80
2, 104070, Note_on_c, 0, 38, 127
2, 104089, Note_off_c, 0, 55, 80
2, 104100, Note_off_c, 0, 38, 127
2, 104256, Note_on_c, 0, 55, 80
2, 104286, Note_off_c, 0, 55, 80
2, 104438, Note_on_c, 0, 36, 127
2, 104448, Note_on_c, 0, 55, 80
2, 104468, Note_off_c, 0, 36, 127
2, 104478, Note_off_c, 0, 55, 80
2, 104631, Note_on_c, 0, 55, 80
2, 104661, Note_off_c, 0, 55, 80
2, 104829, Note_on_c, 0, 38, 127
2, 104832, Note_on_c, 0, 55, 80
2, 104859, Note_off_c, 0, 38, 127
2, 104862, Note_off_c, 0, 55, 80
2, 105023, Note_on_c, 0, 55, 80
2, 105053, Note_off_c, 0, 55, 80
2, 105207, Note_on_c, 0, 55, 80
2, 105223, Note_on_c, 0, 36, 127
2, 105237, Note_off_c, 0, 55, 80
2, 105253, Note_off_c, 0, 36, 127
2, 105403, Note_on_c, 0, 55, 80
2, 105433, Note_off_c, 0, 55, 80
2, 105593, Note_on_c, 0, 38, 127
2, 105608, Note_on_c, 0, 55, 80
2, 105623, Note_off_c, 0, 38, 127
2, 105638, Note_off_c, 0, 55, 80
2, 105800, Note_on_c, 0, 55, 80
2, 105830, Note_off_c, 0, 55, 80
2, 105973, Note_on_c, 0, 36, 127
2, 105979, Note_on_c, 0, 55, 80
2, 106003, Note_off_c, 0, 36, 127
2, 106009, Note_off_c, 0, 55, 80
2, 106184, Note_on_c, 0, 55, 80
2, 106214, Note_off_c, 0, 55, 80
2, 106365, Note_on_c, 0, 55, 80
2, 106366, Note_on_c, 0, 38, 127
2, 106395, Note_off_c, 0, 55, 80
2, 106396, Note_off_c, 0, 38, 127
2, 106556, Note_on_c, 0, 55, 80
2, 106586, Note_off_c, 0, 55, 80
2, 106757, Note_on_c, 0, 36, 127
2, 106760, Note_on_c, 0, 55, 80
2, 106787, Note_off_c, 0, 36, 127
2, 106790, Note_off_c, 0, 55, 80
2, 106944, Note_on_c, 0, 55, 80
2, 106974, Note_off_c, 0, 55, 80
2, 107128, Note_on_c, 0, 55, 80
2, 107139, Note_on_c, 0, 38, 127
2, 107158, Note_off_c, 0, 55, 80
2, 107169, Note_off_c, 0, 38, 127
2, 107322, Note_on_c, 0, 38, 110
2, 107333, Note_on_c, 0, 55, 80
2, 107352, Note_off_c, 0, 38, 110
2, 107363, Note_off_c, 0, 55, 80
2, 107513, Note_on_c, 0, 36, 127
2, 107520, Note_on_c, 0, 55, 80
2, 107528, Note_on_c, 0, 60, 38
2, 107543, Note_off_c, 0, 36, 127
2, 107550, Note_off_c, 0, 55, 80
2, 107558, Note_off_c, 0, 60, 38
2, 107708, Note_on_c, 0, 55, 80
2, 107738, Note_off_c, 0, 55, 80
2, 107894, Note_on_c, 0, 55, 80
2, 107908, Note_on_c, 0, 38, 127
2, 107924, Note_off_c, 0, 55, 80
2, 107938, Note_off_c, 0, 38, 127
2, 108087, Note_on_c, 0, 55, 80
2, 108117, Note_off_c, 0, 55, 80
2, 108281, Note_on_c, 0, 36, 127
2, 108289, Note_on_c, 0, 55, 80
2, 108311, Note_off_c, 0, 36, 127
2, 108319, Note_off_c, 0, 55, 80
2, 108488, Note_on_c, 0, 55, 80
2, 108518, Note_off_c, 0, 55, 80
2, 108660, Note_on_c, 0, 55, 80
2, 108676, Note_on_c, 0, 38, 127
2, 108690, Note_off_c, 0, 55, 80
2, 108706, Note_off_c, 0, 38, 127
2, 108860, Note_on_c, 0, 55, 80
2, 108890, Note_off_c, 0, 55, 80
2, 109046, Note_on_c, 0, 36, 127
2, 109064, Note_on_c, 0, 55, 80
2, 109076, Note_off_c, 0, 36, 127
2, 109094, Note_off_c, 0, 55, 80
2, 109240, Note_on_c, 0, 55, 80
2, 109270, Note_off_c, 0, 55, 80
2, 109439, Note_on_c, 0, 55, 80
2, 109450, Note_on_c, 0, 38, 127
2, 109469, Note_off_c, 0, 55, 80
2, 109480, Note_off_c, 0, 38, 127
2, 109627, Note_on_c, 0, 55, 80
2, 109657, Note_off_c, 0, 55, 80
2, 109812, Note_on_c, 0, 36, 127
2, 109813, Note_on_c, 0, 55, 80
2, 109842, Note_off_c, 0, 36, 127
2, 109843, Note_off_c, 0, 55, 80
2, 110005, Note_on_c, 0, 55, 80
2, 110021, Note_on_c, 0, 38, 68
2, 110035, Note_off_c, 0, 55, 80
2, 110051, Note_off_c, 0, 38, 68
2, 110201, Note_on_c, 0, 55, 80
2, 110204, Note_on_c, 0, 38, 127
2, 110231, Note_off_c, 0, 55, 80
2, 110234, Note_off_c, 0, 38, 127
2, 110399, Note_on_c, 0, 38, 110
2, 110401, Note_on_c, 0, 55, 80
2, 110429, Note_off_c, 0, 38, 110
2, 110431, Note_off_c, 0, 55, 80
2, 110581, Note_on_c, 0, 55, 80
2, 110597, Note_on_c, 0, 60, 38
2, 110599, Note_on_c, 0, 36, 127
2, 110611, Note_off_c, 0, 55, 80
2, 110627, Note_off_c, 0, 60, 38
2, 110629, Note_off_c, 0, 36, 127
2, 110779, Note_on_c, 0, 55, 80
2, 110809, Note_off_c, 0, 55, 80
2, 110967, Note_on_c, 0, 38, 127
2, 110977, Note_on_c, 0, 55, 80
2, 110997, Note_off_c, 0, 38, 127
2, 111007, Note_off_c, 0, 55, 80
2, 111160, Note_on_c, 0, 55, 80
2, 111190, Note_off_c, 0, 55, 80
2, 111348, Note_on_c, 0, 55, 80
2, 111370, Note_on_c, 0, 36, 127
2, 111378, Note_off_c, 0, 55, 80
2, 111400, Note_off_c, 0, 36, 127
2, 111562, Note_on_c, 0, 55, 80
2, 111592, Note_off_c, 0, 55, 80
2, 111740, Note_on_c, 0, 55, 80
2, 111752, Note_on_c, 0, 38, 127
2, 111770, Note_off_c, 0, 55, 80
2, 111782, Note_off_c, 0, 38, 127
2, 111936, Note_on_c, 0, 55, 80
2, 111966, Note_off_c, 0, 55, 80
2, 112126, Note_on_c, 0, 36, 127
2, 112132, Note_on_c, 0, 55, 80
2, 112156, Note_off_c, 0, 36, 127
2, 112162, Note_off_c, 0, 55, 80
2, 112322, Note_on_c, 0, 55, 80
2, 112352, Note_off_c, 0, 55, 80
2, 112504, Note_on_c, 0, 55, 80
2, 112519, Note_on_c, 0, 38, 127
2, 112534, Note_off_c, 0, 55, 80
2, 112549, Note_off_c, 0, 38, 127
2, 112711, Note_on_c, 0, 55, 80
2, 112741, Note_off_c, 0, 55, 80
2, 112896, Note_on_c, 0, 55, 80
2, 112904, Note_on_c, 0, 36, 127
2, 112926, Note_off_c, 0, 55, 80
2, 112934, Note_off_c, 0, 36, 127
2, 113080, Note_on_c, 0, 55, 80
2, 113095, Note_on_c, 0, 38, 59
2, 113110, Note_off_c, 0, 55, 80
2, 113125, Note_off_c, 0, 38, 59
2, 113271, Note_on_c, 0, 55, 80
2, 113272, Note_on_c, 0, 38, 127
2, 113301, Note_off_c, 0, 55, 80
2, 113302, Note_off_c, 0, 38, 127
2, 113482, Note_on_c, 0, 55, 80
2, 113512, Note_off_c, 0, 55, 80
2, 113669, Note_on_c, 0, 55, 80
2, 113672, Note_on_c, 0, 36, 127
2, 113699, Note_off_c, 0, 55, 80
2, 113702, Note_off_c, 0, 36, 127
2, 113860, Note_on_c, 0, 55, 80
2, 113890, Note_off_c, 0, 55, 80
2, 114055, Note_on_c, 0, 55, 80
2, 114057, Note_on_c, 0, 38, 127
2, 114085, Note_off_c, 0, 55, 80
2, 114087, Note_off_c, 0, 38, 127
2, 114229, Note_on_c, 0, 55, 80
2, 114259, Note_off_c, 0, 55, 80
2, 114422, Note_on_c, 0, 36, 127
2, 114436, Note_on_c, 0, 55, 80
2, 114452, Note_off_c, 0, 36, 127
2, 114466, Note_off_c, 0, 55, 80
2, 114616, Note_on_c, 0, 55, 80
2, 114646, Note_off_c, 0, 55, 80
2, 114814, Note_on_c, 0, 55, 80
2, 114826, Note_on_c, 0, 38, 127
2, 114844, Note_off_c, 0, 55, 80
2, 114856, Note_off_c, 0, 38, 127
2, 115004, Note_on_c, 0, 55, 80
2, 115034, Note_off_c, 0, 55, 80
2, 115190, Note_on_c, 0, 36, 127
2, 115205, Note_on_c, 0, 55, 80
2, 115220, Note_off_c, 0, 36, 127
2, 115235, Note_off_c, 0, 55, 80
2, 115392, Note_on_c, 0, 55, 80
2, 115422, Note_off_c, 0, 55, 80
2, 115574, Note_on_c, 0, 38, 127
2, 115594, Note_on_c, 0, 55, 80
2, 115604, Note_off_c, 0, 38, 127
2, 115624, Note_off_c, 0, 55, 80
2, 115772, Note_on_c, 0, 55, 80
2, 115802, Note_off_c, 0, 55, 80
2, 115960, Note_on_c, 0, 55, 80
2, 115971, Note_on_c, 0, 36, 127
2, 115990, Note_off_c, 0, 55, 80
2, 116001, Note_off_c, 0, 36, 127
2, 116160, Note_on_c, 0, 55, 80
2, 116164, Note_on_c, 0, 38, 64
2, 116190, Note_off_c, 0, 55, 80
2, 116194, Note_off_c, 0, 38, 64
2, 116342, Note_on_c, 0, 55, 80
2, 116351, Note_on_c, 0, 38, 127
2, 116372, Note_off_c, 0, 55, 80
2, 116381, Note_off_c, 0, 38, 127
2, 116551, Note_on_c, 0, 55, 80
2, 116581, Note_off_c, 0, 55, 80
2, 116728, Note_on_c, 0, 60, 38
2, 116732, Note_on_c, 0, 55, 80
2, 116732, Note_on_c, 0, 36, 127
2, 116758, Note_off_c, 0, 60, 38
2, 116762, Note_off_c, 0, 36, 127
2, 116762, Note_off_c, 0, 55, 80
2, 116927, Note_on_c, 0, 55, 80
2, 116957, Note_off_c, 0, 55, 80
2, 117114, Note_on_c, 0, 55, 80
2, 117121, Note_on_c, 0, 38, 127
2, 117144, Note_off_c, 0, 55, 80
2, 117151, Note_off_c, 0, 38, 127
2, 117304, Note_on_c, 0, 55, 80
2, 117334, Note_off_c, 0, 55, 80
2, 117494, Note_on_c, 0, 36, 127
2, 117503, Note_on_c, 0, 55, 80
2, 117524, Note_off_c, 0, 36, 127
2, 117533, Note_off_c, 0, 55, 80
2, 117705, Note_on_c, 0, 55, 80
2, 117735, Note_off_c, 0, 55, 80
2, 117880, Note_on_c, 0, 55, 80
2, 117896, Note_on_c, 0, 38, 127
2, 117910, Note_off_c, 0, 55, 80
2, 117926, Note_off_c, 0, 38, 127
2, 118082, Note_on_c, 0, 55, 80
2, 118112, Note_off_c, 0, 55, 80
2, 118265, Note_on_c, 0, 55, 80
2, 118276, Note_on_c, 0, 36, 127
2, 118295, Note_off_c, 0, 55, 80
2, 118306, Note_off_c, 0, 36, 127
2, 118459, Note_on_c, 0, 55, 80
2, 118489, Note_off_c, 0, 55, 80
2, 118649, Note_on_c, 0, 55, 80
2, 118664, Note_on_c, 0, 38, 127
2, 118679, Note_off_c, 0, 55, 80
2, 118694, Note_off_c, 0, 38, 127
2, 118854, Note_on_c, 0, 55, 80
2, 118884, Note_off_c, 0, 55, 80
2, 119032, Note_on_c, 0, 55, 80
2, 119049, Note_on_c, 0, 36, 127
2, 119062, Note_off_c, 0, 55, 80
2, 119079, Note_off_c, 0, 36, 127
2, 119224, Note_on_c, 0, 55, 80
2, 119254, Note_off_c, 0, 55, 80
2, 119425, Note_on_c, 0, 55, 80
2, 119427, Note_on_c, 0, 38, 127
2, 119455, Note_off_c, 0, 55, 80
2, 119457, Note_off_c, 0, 38, 127
2, 119609, Note_on_c, 0, 55, 80
2, 119639, Note_off_c, 0, 55, 80
2, 119806, Note_on_c, 0, 36, 127
2, 119807, Note_on_c, 0, 55, 80
2, 119836, Note_off_c, 0, 36, 127
2, 119837, Note_off_c, 0, 55, 80
2, 119988, Note_on_c, 0, 55, 80
2, 120018, Note_off_c, 0, 55, 80
2, 120186, Note_on_c, 0, 55, 80
2, 120195, Note_on_c, 0, 38, 127
2, 120216, Note_off_c, 0, 55, 80
2, 120225, Note_off_c, 0, 38, 127
2, 120384, Note_on_c, 0, 55, 80
2, 120414, Note_off_c, 0, 55, 80
2, 120580, Note_on_c, 0, 55, 80
2, 120584, Note_on_c, 0, 36, 127
2, 120610, Note_off_c, 0, 55, 80
2, 120614, Note_off_c, 0, 36, 127
2, 120763, Note_on_c, 0, 55, 80
2, 120793, Note_off_c, 0, 55, 80
2, 120958, Note_on_c, 0, 38, 127
2, 120968, Note_on_c, 0, 55, 80
2, 120988, Note_off_c, 0, 38, 127
2, 120998, Note_off_c, 0, 55, 80
2, 121160, Note_on_c, 0, 55, 80
2, 121190, Note_off_c, 0, 55, 80
2, 121346, Note_on_c, 0, 55, 80
2, 121353, Note_on_c, 0, 36, 127
2, 121376, Note_off_c, 0, 55, 80
2, 121383, Note_off_c, 0, 36, 127
2, 121534, Note_on_c, 0, 55, 80
2, 121564, Note_off_c, 0, 55, 80
2, 121720, Note_on_c, 0, 38, 127
2, 121720, Note_on_c, 0, 55, 80
2, 121750, Note_off_c, 0, 55, 80
2, 121750, Note_off_c, 0, 38, 127
2, 121915, Note_on_c, 0, 55, 80
2, 121945, Note_off_c, 0, 55, 80
2, 122104, Note_on_c, 0, 55, 80
2, 122107, Note_on_c, 0, 36, 127
2, 122134, Note_off_c, 0, 55, 80
2, 122137, Note_off_c, 0, 36, 127
2, 122310, Note_on_c, 0, 55, 80
2, 122340, Note_off_c, 0, 55, 80
2, 122485, Note_on_c, 0, 55, 80
2, 122503, Note_on_c, 0, 38, 127
2, 122515, Note_off_c, 0, 55, 80
2, 122533, Note_off_c, 0, 38, 127
2, 122682, Note_on_c, 0, 38, 98
2, 122690, Note_on_c, 0, 55, 80
2, 122712, Note_off_c, 0, 38, 98
2, 122720, Note_off_c, 0, 55, 80
2, 122880, Note_on_c, 0, 36, 127
2, 122881, Note_on_c, 0, 60, 38
2, 122883, Note_on_c, 0, 55, 80
2, 122910, Note_off_c, 0, 36, 127
2, 122911, Note_off_c, 0, 60, 38
2, 122913, Note_off_c, 0, 55, 80
2, 123068, Note_on_c, 0, 55, 80
2, 123098, Note_off_c, 0, 55, 80
2, 123256, Note_on_c, 0, 55, 80
2, 123261, Note_on_c, 0, 38, 127
2, 123286, Note_off_c, 0, 55, 80
2, 123291, Note_off_c, 0, 38, 127
2, 123458, Note_on_c, 0, 55, 80
2, 123488, Note_off_c, 0, 55, 80
2, 123654, Note_on_c, 0, 55, 80
2, 123658, Note_on_c, 0, 36, 127
2, 123684, Note_off_c, 0, 55, 80
2, 123688, Note_off_c, 0, 36, 127
2, 123831, Note_on_c, 0, 55, 80
2, 123861, Note_off_c, 0, 55, 80
2, 124025, Note_on_c, 0, 55, 80
2, 124041, Note_on_c, 0, 38, 127
2, 124055, Note_off_c, 0, 55, 80
2, 124071, Note_off_c, 0, 38, 127
2, 124223, Note_on_c, 0, 55, 80
2, 124253, Note_off_c, 0, 55, 80
2, 124409, Note_on_c, 0, 36, 127
2, 124421, Note_on_c, 0, 55, 80
2, 124439, Note_off_c, 0, 36, 127
2, 124451, Note_off_c, 0, 55, 80
2, 124596, Note_on_c, 0, 55, 80
2, 124626, Note_off_c, 0, 55, 80
2, 124804, Note_on_c, 0, 55, 80
2, 124808, Note_on_c, 0, 38, 127
2, 124834, Note_off_c, 0, 55, 80
2, 124838, Note_off_c, 0, 38, 127
2, 124992, Note_on_c, 0, 55, 80
2, 125022, Note_off_c, 0, 55, 80
2, 125175, Note_on_c, 0, 36, 127
2, 125179, Note_on_c, 0, 55, 80
2, 125205, Note_off_c, 0, 36, 127
2, 125209, Note_off_c, 0, 55, 80
2, 125380, Note_on_c, 0, 55, 80
2, 125410, Note_off_c, 0, 55, 80
2, 125561, Note_on_c, 0, 38, 127
2, 125569, Note_on_c, 0, 55, 80
2, 125591, Note_off_c, 0, 38, 127
2, 125599, Note_off_c, 0, 55, 80
2, 125770, Note_on_c, 0, 55, 80
2, 125800, Note_off_c, 0, 55, 80
2, 125960, Note_on_c, 0, 55, 80
2, 125961, Note_on_c, 0, 60, 38
2, 125962, Note_on_c, 0, 36, 127
2, 125990, Note_off_c, 0, 55, 80
2, 125991, Note_off_c, 0, 60, 38
2, 125992, Note_off_c, 0, 36, 127
2, 126154, Note_on_c, 0, 55, 80
2, 126184, Note_off_c, 0, 55, 80
2, 126333, Note_on_c, 0, 55, 80
2, 126342, Note_on_c, 0, 38, 127
2, 126363, Note_off_c, 0, 55, 80
2, 126372, Note_off_c, 0, 38, 127
2, 126519, Note_on_c, 0, 55, 80
2, 126549, Note_off_c, 0, 55, 80
2, 126708, Note_on_c, 0, 36, 127
2, 126726, Note_on_c, 0, 55, 80
2, 126738, Note_off_c, 0, 36, 127
2, 126756, Note_off_c, 0, 55, 80
2, 126920, Note_on_c, 0, 55, 80
2, 126950, Note_off_c, 0, 55, 80
2, 127100, Note_on_c, 0, 55, 80
2, 127103, Note_on_c, 0, 38, 127
2, 127130, Note_off_c, 0, 55, 80
2, 127133, Note_off_c, 0, 38, 127
2, 127293, Note_on_c, 0, 55, 80
2, 127323, Note_off_c, 0, 55, 80
2, 127484, Note_on_c, 0, 36, 127
2, 127495, Note_on_c, 0, 55, 80
2, 127514, Note_off_c, 0, 36, 127
2, 127525, Note_off_c, 0, 55, 80
2, 127684, Note_on_c, 0, 55, 80
2, 127714, Note_off_c, 0, 55, 80
2, 127863, Note_on_c, 0, 38, 127
2, 127864, Note_on_c, 0, 55, 80
2, 127893, Note_off_c, 0, 38, 127
2, 127894, Note_off_c, 0, 55, 80
2, 128065, Note_on_c, 0, 55, 80
2, 128095, Note_off_c, 0, 55, 80
2, 128244, Note_on_c, 0, 55, 80
2, 128257, Note_on_c, 0, 36, 127
2, 128274, Note_off_c, 0, 55, 80
2, 128287, Note_off_c, 0, 36, 127
2, 128457, Note_on_c, 0, 55, 80
2, 128487, Note_off_c, 0, 55, 80
2, 128632, Note_on_c, 0, 55, 80
2, 128650, Note_on_c, 0, 38, 127
2, 128662, Note_off_c, 0, 55, 80
2, 128680, Note_off_c, 0, 38, 127
2, 128830, Note_on_c, 0, 38, 127
2, 128841, Note_on_c, 0, 55, 80
2, 128860, Note_off_c, 0, 38, 127
2, 128871, Note_off_c, 0, 55, 80
2, 129028, Note_on_c, 0, 60, 38
2, 129028, Note_on_c, 0, 36, 127
2, 129034, Note_on_c, 0, 55, 80
2, 129058, Note_off_c, 0, 36, 127
2, 129058, Note_off_c, 0, 60, 38
2, 129064, Note_off_c, 0, 55, 80
2, 129208, Note_on_c, 0, 55, 80
2, 129238, Note_off_c, 0, 55, 80
2, 129405, Note_on_c, 0, 55, 80
2, 129413, Note_on_c, 0, 38, 127
2, 129435, Note_off_c, 0, 55, 80
2, 129443, Note_off_c, 0, 38, 127
2, 129603, Note_on_c, 0, 55, 80
2, 129633, Note_off_c, 0, 55, 80
2, 129781, Note_on_c, 0, 36, 127
2, 129795, Note_on_c, 0, 55, 80
2, 129811, Note_off_c, 0, 36, 127
2, 129825, Note_off_c, 0, 55, 80
2, 129992, Note_on_c, 0, 55, 80
2, 130022, Note_off_c, 0, 55, 80
2, 130173, Note_on_c, 0, 55, 80
2, 130176, Note_on_c, 0, 38, 127
2, 130203, Note_off_c, 0, 55, 80
2, 130206, Note_off_c, 0, 38, 127
2, 130360, Note_on_c, 0, 55, 80
2, 130390, Note_off_c, 0, 55, 80
2, 130556, Note_on_c, 0, 55, 80
2, 130569, Note_on_c, 0, 36, 127
2, 130586, Note_off_c, 0, 55, 80
2, 130599, Note_off_c, 0, 36, 127
2, 130759, Note_on_c, 0, 55, 80
2, 130789, Note_off_c, 0, 55, 80
2, 130944, Note_on_c, 0, 55, 80
2, 130952, Note_on_c, 0, 38, 127
2, 130974, Note_off_c, 0, 55, 80
2, 130982, Note_off_c, 0, 38, 127
2, 131142, Note_on_c, 0, 55, 80
2, 131172, Note_off_c, 0, 55, 80
2, 131318, Note_on_c, 0, 36, 127
2, 131332, Note_on_c, 0, 55, 80
2, 131348, Note_off_c, 0, 36, 127
2, 131362, Note_off_c, 0, 55, 80
2, 131529, Note_on_c, 0, 55, 80
2, 131559, Note_off_c, 0, 55, 80
2, 131712, Note_on_c, 0, 55, 80
2, 131721, Note_on_c, 0, 38, 127
2, 131742, Note_off_c, 0, 55, 80
2, 131751, Note_off_c, 0, 38, 127
2, 131901, Note_on_c, 0, 55, 80
2, 131931, Note_off_c, 0, 55, 80
2, 132099, Note_on_c, 0, 36, 127
2, 132106, Note_on_c, 0, 55, 80
2, 132129, Note_off_c, 0, 36, 127
2, 132136, Note_off_c, 0, 55, 80
2, 132284, Note_on_c, 0, 55, 80
2, 132314, Note_off_c, 0, 55, 80
2, 132471, Note_on_c, 0, 38, 127
2, 132475, Note_on_c, 0, 55, 80
2, 132501, Note_off_c, 0, 38, 127
2, 132505, Note_off_c, 0, 55, 80
2, 132664, Note_on_c, 0, 55, 80
2, 132694, Note_off_c, 0, 55, 80
2, 132852, Note_on_c, 0, 55, 80
2, 132863, Note_on_c, 0, 36, 127
2, 132882, Note_off_c, 0, 55, 80
2, 132893, Note_off_c, 0, 36, 127
2, 133052, Note_on_c, 0, 55, 80
2, 133082, Note_off_c, 0, 55, 80
2, 133245, Note_on_c, 0, 55, 80
2, 133250, Note_on_c, 0, 38, 127
2, 133275, Note_off_c, 0, 55, 80
2, 133280, Note_off_c, 0, 38, 127
2, 133441, Note_on_c, 0, 55, 80
2, 133471, Note_off_c, 0, 55, 80
2, 133623, Note_on_c, 0, 36, 127
2, 133633, Note_on_c, 0, 55, 80
2, 133653, Note_off_c, 0, 36, 127
2, 133663, Note_off_c, 0, 55, 80
2, 133820, Note_on_c, 0, 38, 84
2, 133820, Note_on_c, 0, 55, 80
2, 133850, Note_off_c, 0, 55, 80
2, 133850, Note_off_c, 0, 38, 84
2, 134013, Note_on_c, 0, 55, 80
2, 134026, Note_on_c, 0, 38, 127
2, 134043, Note_off_c, 0, 55, 80
2, 134056, Note_off_c, 0, 38, 127
2, 134202, Note_on_c, 0, 55, 80
2, 134232, Note_off_c, 0, 55, 80
2, 134395, Note_on_c, 0, 55, 80
2, 134407, Note_on_c, 0, 36, 127
2, 134425, Note_off_c, 0, 55, 80
2, 134437, Note_off_c, 0, 36, 127
2, 134597, Note_on_c, 0, 55, 80
2, 134627, Note_off_c, 0, 55, 80
2, 134781, Note_on_c, 0, 55, 80
2, 134793, Note_on_c, 0, 38, 127
2, 134811, Note_off_c, 0, 55, 80
2, 134823, Note_off_c, 0, 38, 127
2, 134968, Note_on_c, 0, 55, 80
2, 134998, Note_off_c, 0, 55, 80
2, 135158, Note_on_c, 0, 55, 80
2, 135168, Note_on_c, 0, 36, 127
2, 135188, Note_off_c, 0, 55, 80
2, 135198, Note_off_c, 0, 36, 127
2, 135356, Note_on_c, 0, 55, 80
2, 135386, Note_off_c, 0, 55, 80
2, 135550, Note_on_c, 0, 38, 127
2, 135552, Note_on_c, 0, 55, 80
2, 135580, Note_off_c, 0, 38, 127
2, 135582, Note_off_c, 0, 55, 80
2, 135748, Note_on_c, 0, 55, 80
2, 135778, Note_off_c, 0, 55, 80
2, 135943, Note_on_c, 0, 55, 80
2, 135943, Note_on_c, 0, 36, 127
2, 135973, Note_off_c, 0, 36, 127
2, 135973, Note_off_c, 0, 55, 80
2, 136122, Note_on_c, 0, 55, 80
2, 136152, Note_off_c, 0, 55, 80
2, 136316, Note_on_c, 0, 55, 80
2, 136328, Note_on_c, 0, 38, 127
2, 136346, Note_off_c, 0, 55, 80
2, 136358, Note_off_c, 0, 38, 127
2, 136521, Note_on_c, 0, 55, 80
2, 136551, Note_off_c, 0, 55, 80
2, 136696, Note_on_c, 0, 55, 80
2, 136709, Note_on_c, 0, 36, 127
2, 136726, Note_off_c, 0, 55, 80
2, 136739, Note_off_c, 0, 36, 127
2, 136895, Note_on_c, 0, 55, 80
2, 136925, Note_off_c, 0, 55, 80
2, 137085, Note_on_c, 0, 38, 127
2, 137092, Note_on_c, 0, 55, 80
2, 137115, Note_off_c, 0, 38, 127
2, 137122, Note_off_c, 0, 55, 80
2, 137270, Note_on_c, 0, 55, 80
2, 137300, Note_off_c, 0, 55, 80
2, 137472, Note_on_c, 0, 36, 127
2, 137480, Note_on_c, 0, 55, 80
2, 137502, Note_off_c, 0, 36, 127
2, 137510, Note_off_c, 0, 55, 80
2, 137659, Note_on_c, 0, 55, 80
2, 137689, Note_off_c, 0, 55, 80
2, 137850, Note_on_c, 0, 38, 127
2, 137860, Note_on_c, 0, 55, 80
2, 137880, Note_off_c, 0, 38, 127
2, 137890, Note_off_c, 0, 55, 80
2, 138046, Note_on_c, 0, 38, 110
2, 138054, Note_on_c, 0, 55, 80
2, 138076, Note_off_c, 0, 38, 110
2, 138084, Note_off_c, 0, 55, 80
2, 138244, Note_on_c, 0, 55, 80
2, 138248, Note_on_c, 0, 60, 38
2, 138248, Note_on_c, 0, 36, 127
2, 138274, Note_off_c, 0, 55, 80
2, 138278, Note_off_c, 0, 36, 127
2, 138278, Note_off_c, 0, 60, 38
2, 138423, Note_on_c, 0, 55, 80
2, 138453, Note_off_c, 0, 55, 80
2, 138619, Note_on_c, 0, 38, 127
2, 138620, Note_on_c, 0, 55, 80
2, 138649, Note_off_c, 0, 38, 127
2, 138650, Note_off_c, 0, 55, 80
2, 138806, Note_on_c, 0, 55, 80
2, 138836, Note_off_c, 0, 55, 80
2, 139002, Note_on_c, 0, 36, 127
2, 139005, Note_on_c, 0, 55, 80
2, 139032, Note_off_c, 0, 36, 127
2, 139035, Note_off_c, 0, 55, 80
2, 139202, Note_on_c, 0, 55, 80
2, 139232, Note_off_c, 0, 55, 80
2, 139386, Note_on_c, 0, 55, 80
2, 139388, Note_on_c, 0, 38, 127
2, 139416, Note_off_c, 0, 55, 80
2, 139418, Note_off_c, 0, 38, 127
2, 139591, Note_on_c, 0, 55, 80
2, 139621, Note_off_c, 0, 55, 80
2, 139773, Note_on_c, 0, 36, 127
2, 139776, Note_on_c, 0, 55, 80
2, 139803, Note_off_c, 0, 36, 127
2, 139806, Note_off_c, 0, 55, 80
2, 139966, Note_on_c, 0, 55, 80
2, 139996, Note_off_c, 0, 55, 80
2, 140149, Note_on_c, 0, 55, 80
2, 140158, Note_on_c, 0, 38, 127
2, 140179, Note_off_c, 0, 55, 80
2, 140188, Note_off_c, 0, 38, 127
2, 140345, Note_on_c, 0, 55, 80
2, 140375, Note_off_c, 0, 55, 80
2, 140549, Note_on_c, 0, 36, 127
2, 140551, Note_on_c, 0, 55, 80
2, 140579, Note_off_c, 0, 36, 127
2, 140581, Note_off_c, 0, 55, 80
2, 140724, Note_on_c, 0, 55, 80
2, 140733, Note_on_c, 0, 38, 68
2, 140754, Note_off_c, 0, 55, 80
2, 140763, Note_off_c, 0, 38, 68
2, 140919, Note_on_c, 0, 38, 127
2, 140930, Note_on_c, 0, 55, 80
2, 140949, Note_off_c, 0, 38, 127
2, 140960, Note_off_c, 0, 55, 80
2, 141126, Note_on_c, 0, 38, 110
2, 141128, Note_on_c, 0, 55, 80
2, 141156, Note_off_c, 0, 38, 110
2, 141158, Note_off_c, 0, 55, 80
2, 141308, Note_on_c, 0, 36, 127
2, 141311, Note_on_c, 0, 60, 38
2, 141312, Note_on_c, 0, 55, 80
2, 141338, Note_off_c, 0, 36, 127
2, 141341, Note_off_c, 0, 60, 38
2, 141342, Note_off_c, 0, 55, 80
2, 141492, Note_on_c, 0, 55, 80
2, 141522, Note_off_c, 0, 55, 80
2, 141688, Note_on_c, 0, 38, 127
2, 141702, Note_on_c, 0, 55, 80
2, 141718, Note_off_c, 0, 38, 127
2, 141732, Note_off_c, 0, 55, 80
2, 141876, Note_on_c, 0, 55, 80
2, 141906, Note_off_c, 0, 55, 80
2, 142075, Note_on_c, 0, 55, 80
2, 142086, Note_on_c, 0, 36, 127
2, 142105, Note_off_c, 0, 55, 80
2, 142116, Note_off_c, 0, 36, 127
2, 142282, Note_on_c, 0, 55, 80
2, 142312, Note_off_c, 0, 55, 80
2, 142453, Note_on_c, 0, 38, 127
2, 142468, Note_on_c, 0, 55, 80
2, 142483, Note_off_c, 0, 38, 127
2, 142498, Note_off_c, 0, 55, 80
2, 142653, Note_on_c, 0, 55, 80
2, 142683, Note_off_c, 0, 55, 80
2, 142836, Note_on_c, 0, 55, 80
2, 142840, Note_on_c, 0, 36, 127
2, 142866, Note_off_c, 0, 55, 80
2, 142870, Note_off_c, 0, 36, 127
2, 143046, Note_on_c, 0, 55, 80
2, 143076, Note_off_c, 0, 55, 80
2, 143223, Note_on_c, 0, 38, 127
2, 143225, Note_on_c, 0, 55, 80
2, 143253, Note_off_c, 0, 38, 127
2, 143255, Note_off_c, 0, 55, 80
2, 143416, Note_on_c, 0, 55, 80
2, 143446, Note_off_c, 0, 55, 80
2, 143608, Note_on_c, 0, 55, 80
2, 143624, Note_on_c, 0, 36, 127
2, 143638, Note_off_c, 0, 55, 80
2, 143654, Note_off_c, 0, 36, 127
2, 143798, Note_on_c, 0, 55, 80
2, 143816, Note_on_c, 0, 38, 59
2, 143828, Note_off_c, 0, 55, 80
2, 143846, Note_off_c, 0, 38, 59
2, 143994, Note_on_c, 0, 38, 127
2, 143997, Note_on_c, 0, 55, 80
2, 144024, Note_off_c, 0, 38, 127
2, 144027, Note_off_c, 0, 55, 80
2, 144186, Note_on_c, 0, 55, 80
2, 144216, Note_off_c, 0, 55, 80
2, 144378, Note_on_c, 0, 36, 127
2, 144392, Note_on_c, 0, 55, 80
2, 144408, Note_off_c, 0, 36, 127
2, 144422, Note_off_c, 0, 55, 80
2, 144585, Note_on_c, 0, 55, 80
2, 144615, Note_off_c, 0, 55, 80
2, 144765, Note_on_c, 0, 38, 127
2, 144771, Note_on_c, 0, 55, 80
2, 144795, Note_off_c, 0, 38, 127
2, 144801, Note_off_c, 0, 55, 80
2, 144958, Note_on_c, 0, 55, 80
2, 144988, Note_off_c, 0, 55, 80
2, 145156, Note_on_c, 0, 55, 80
2, 145158, Note_on_c, 0, 36, 127
2, 145186, Note_off_c, 0, 55, 80
2, 145188, Note_off_c, 0, 36, 127
2, 145344, Note_on_c, 0, 55, 80
2, 145374, Note_off_c, 0, 55, 80
2, 145535, Note_on_c, 0, 55, 80
2, 145543, Note_on_c, 0, 38, 127
2, 145565, Note_off_c, 0, 55, 80
2, 145573, Note_off_c, 0, 38, 127
2, 145721, Note_on_c, 0, 55, 80
2, 145751, Note_off_c, 0, 55, 80
2, 145910, Note_on_c, 0, 55, 80
2, 145929, Note_on_c, 0, 36, 127
2, 145940, Note_off_c, 0, 55, 80
2, 145959, Note_off_c, 0, 36, 127
2, 146102, Note_on_c, 0, 55, 80
2, 146132, Note_off_c, 0, 55, 80
2, 146294, Note_on_c, 0, 55, 80
2, 146296, Note_on_c, 0, 38, 127
2, 146324, Note_off_c, 0, 55, 80
2, 146326, Note_off_c, 0, 38, 127
2, 146488, Note_on_c, 0, 55, 80
2, 146518, Note_off_c, 0, 55, 80
2, 146688, Note_on_c, 0, 55, 80
2, 146696, Note_on_c, 0, 36, 127
2, 146718, Note_off_c, 0, 55, 80
2, 146726, Note_off_c, 0, 36, 127
2, 146872, Note_on_c, 0, 38, 64
2, 146885, Note_on_c, 0, 55, 80
2, 146902, Note_off_c, 0, 38, 64
2, 146915, Note_off_c, 0, 55, 80
2, 147064, Note_on_c, 0, 38, 127
2, 147076, Note_on_c, 0, 55, 80
2, 147094, Note_off_c, 0, 38, 127
2, 147106, Note_off_c, 0, 55, 80
2, 147168, Note_on_c, 0, 38, 101
2, 147198, Note_off_c, 0, 38, 101
2, 147257, Note_on_c, 0, 38, 110
2, 147268, Note_on_c, 0, 55, 80
2, 147287, Note_off_c, 0, 38, 110
2, 147298, Note_off_c, 0, 55, 80
2, 147451, Note_on_c, 0, 36, 127
2, 147452, Note_on_c, 0, 55, 80
2, 147460, Note_on_c, 0, 60, 38
2, 147481, Note_off_c, 0, 36, 127
2, 147482, Note_off_c, 0, 55, 80
2, 147490, Note_off_c, 0, 60, 38
2, 147650, Note_on_c, 0, 55, 80
2, 147680, Note_off_c, 0, 55, 80
2, 147834, Note_on_c, 0, 38, 127
2, 147835, Note_on_c, 0, 55, 80
2, 147864, Note_off_c, 0, 38, 127
2, 147865, Note_off_c, 0, 55, 80
2, 148042, Note_on_c, 0, 55, 80
2, 148072, Note_off_c, 0, 55, 80
2, 148219, Note_on_c, 0, 36, 127
2, 148227, Note_on_c, 0, 55, 80
2, 148249, Note_off_c, 0, 36, 127
2, 148257, Note_off_c, 0, 55, 80
2, 148406, Note_on_c, 0, 55, 80
2, 148436, Note_off_c, 0, 55, 80
2, 148604, Note_on_c, 0, 55, 80
2, 148610, Note_on_c, 0, 38, 127
2, 148634, Note_off_c, 0, 55, 80
2, 148640, Note_off_c, 0, 38, 127
2, 148797, Note_on_c, 0, 55, 80
2, 148827, Note_off_c, 0, 55, 80
2, 148981, Note_on_c, 0, 55, 80
2, 148999, Note_on_c, 0, 36, 127
2, 149011, Note_off_c, 0, 55, 80
2, 149029, Note_off_c, 0, 36, 127
2, 149181, Note_on_c, 0, 55, 80
2, 149211, Note_off_c, 0, 55, 80
2, 149365, Note_on_c, 0, 55, 80
2, 149385, Note_on_c, 0, 38, 127
2, 149395, Note_off_c, 0, 55, 80
2, 149415, Note_off_c, 0, 38, 127
2, 149567, Note_on_c, 0, 55, 80
2, 149597, Note_off_c, 0, 55, 80
2, 149748, Note_on_c, 0, 55, 80
2, 149758, Note_on_c, 0, 36, 127
2, 149778, Note_off_c, 0, 55, 80
2, 149788, Note_off_c, 0, 36, 127
2, 149947, Note_on_c, 0, 38, 58
2, 149960, Note_on_c, 0, 55, 58
2, 149977, Note_off_c, 0, 38, 58
2, 149990, Note_off_c, 0, 55, 58
2, 150140, Note_on_c, 0, 38, 127
2, 150143, Note_on_c, 0, 55, 80
2, 150170, Note_off_c, 0, 38, 127
2, 150173, Note_off_c, 0, 55, 80
2, 150330, Note_on_c, 0, 55, 80
2, 150360, Note_off_c, 0, 55, 80
2, 150532, Note_on_c, 0, 55, 80
2, 150532, Note_on_c, 0, 36, 127
2, 150562, Note_off_c, 0, 36, 127
2, 150562, Note_off_c, 0, 55, 80
2, 150725, Note_on_c, 0, 55, 80
2, 150755, Note_off_c, 0, 55, 80
2, 150905, Note_on_c, 0, 55, 80
2, 150912, Note_on_c, 0, 38, 127
2, 150935, Note_off_c, 0, 55, 80
2, 150942, Note_off_c, 0, 38, 127
2, 151108, Note_on_c, 0, 55, 80
2, 151138, Note_off_c, 0, 55, 80
2, 151288, Note_on_c, 0, 55, 80
2, 151296, Note_on_c, 0, 36, 127
2, 151318, Note_off_c, 0, 55, 80
2, 151326, Note_off_c, 0, 36, 127
2, 151484, Note_on_c, 0, 55, 80
2, 151514, Note_off_c, 0, 55, 80
2, 151675, Note_on_c, 0, 55, 80
2, 151678, Note_on_c, 0, 38, 127
2, 151705, Note_off_c, 0, 55, 80
2, 151708, Note_off_c, 0, 38, 127
2, 151868, Note_on_c, 0, 55, 80
2, 151898, Note_off_c, 0, 55, 80
2, 152064, Note_on_c, 0, 55, 80
2, 152070, Note_on_c, 0, 36, 127
2, 152094, Note_off_c, 0, 55, 80
2, 152100, Note_off_c, 0, 36, 127
2, 152250, Note_on_c, 0, 55, 80
2, 152280, Note_off_c, 0, 55, 80
2, 152452, Note_on_c, 0, 55, 80
2, 152456, Note_on_c, 0, 38, 127
2, 152482, Note_off_c, 0, 55, 80
2, 152486, Note_off_c, 0, 38, 127
2, 152629, Note_on_c, 0, 55, 80
2, 152659, Note_off_c, 0, 55, 80
2, 152820, Note_on_c, 0, 36, 127
2, 152825, Note_on_c, 0, 55, 80
2, 152850, Note_off_c, 0, 36, 127
2, 152855, Note_off_c, 0, 55, 80
2, 153029, Note_on_c, 0, 55, 80
2, 153059, Note_off_c, 0, 55, 80
2, 153208, Note_on_c, 0, 38, 127
2, 153216, Note_on_c, 0, 55, 80
2, 153238, Note_off_c, 0, 38, 127
2, 153246, Note_off_c, 0, 55, 80
2, 153403, Note_on_c, 0, 55, 80
2, 153414, Note_on_c, 0, 38, 98
2, 153433, Note_off_c, 0, 55, 80
2, 153444, Note_off_c, 0, 38, 98
2, 153596, Note_on_c, 0, 36, 127
2, 153609, Note_on_c, 0, 55, 80
2, 153610, Note_on_c, 0, 60, 38
2, 153626, Note_off_c, 0, 36, 127
2, 153639, Note_off_c, 0, 55, 80
2, 153640, Note_off_c, 0, 60, 38
2, 153791, Note_on_c, 0, 55, 80
2, 153821, Note_off_c, 0, 55, 80
2, 153978, Note_on_c, 0, 55, 80
2, 153990, Note_on_c, 0, 38, 127
2, 154008, Note_off_c, 0, 55, 80
2, 154020, Note_off_c, 0, 38, 127
2, 154175, Note_on_c, 0, 55, 80
2, 154205, Note_off_c, 0, 55, 80
2, 154364, Note_on_c, 0, 36, 127
2, 154373, Note_on_c, 0, 55, 80
2, 154394, Note_off_c, 0, 36, 127
2, 154403, Note_off_c, 0, 55, 80
2, 154568, Note_on_c, 0, 55, 80
2, 154598, Note_off_c, 0, 55, 80
2, 154752, Note_on_c, 0, 38, 127
2, 154762, Note_on_c, 0, 55, 80
2, 154782, Note_off_c, 0, 38, 127
2, 154792, Note_off_c, 0, 55, 80
2, 154948, Note_on_c, 0, 55, 80
2, 154978, Note_off_c, 0, 55, 80
2, 155136, Note_on_c, 0, 55, 80
2, 155145, Note_on_c, 0, 36, 127
2, 155166, Note_off_c, 0, 55, 80
2, 155175, Note_off_c, 0, 36, 127
2, 155333, Note_on_c, 0, 55, 80
2, 155363, Note_off_c, 0, 55, 80
2, 155512, Note_on_c, 0, 55, 80
2, 155518, Note_on_c, 0, 38, 127
2, 155542, Note_off_c, 0, 55, 80
2, 155548, Note_off_c, 0, 38, 127
2, 155701, Note_on_c, 0, 55, 80
2, 155731, Note_off_c, 0, 55, 80
2, 155902, Note_on_c, 0, 55, 80
2, 155913, Note_on_c, 0, 36, 127
2, 155932, Note_off_c, 0, 55, 80
2, 155943, Note_off_c, 0, 36, 127
2, 156106, Note_on_c, 0, 55, 80
2, 156136, Note_off_c, 0, 55, 80
2, 156285, Note_on_c, 0, 38, 127
2, 156293, Note_on_c, 0, 55, 80
2, 156315, Note_off_c, 0, 38, 127
2, 156323, Note_off_c, 0, 55, 80
2, 156484, Note_on_c, 0, 55, 80
2, 156514, Note_off_c, 0, 55, 80
2, 156664, Note_on_c, 0, 60, 38
2, 156677, Note_on_c, 0, 36, 127
2, 156681, Note_on_c, 0, 55, 80
2, 156694, Note_off_c, 0, 60, 38
2, 156707, Note_off_c, 0, 36, 127
2, 156711, Note_off_c, 0, 55, 80
2, 156855, Note_on_c, 0, 55, 80
2, 156885, Note_off_c, 0, 55, 80
2, 157052, Note_on_c, 0, 38, 127
2, 157056, Note_on_c, 0, 55, 80
2, 157082, Note_off_c, 0, 38, 127
2, 157086, Note_off_c, 0, 55, 80
2, 157247, Note_on_c, 0, 55, 80
2, 157277, Note_off_c, 0, 55, 80
2, 157434, Note_on_c, 0, 36, 127
2, 157444, Note_on_c, 0, 55, 80
2, 157464, Note_off_c, 0, 36, 127
2, 157474, Note_off_c, 0, 55, 80
2, 157621, Note_on_c, 0, 55, 80
2, 157651, Note_off_c, 0, 55, 80
2, 157821, Note_on_c, 0, 55, 80
2, 157828, Note_on_c, 0, 38, 127
2, 157851, Note_off_c, 0, 55, 80
2, 157858, Note_off_c, 0, 38, 127
2, 158020, Note_on_c, 0, 55, 80
2, 158050, Note_off_c, 0, 55, 80
2, 158202, Note_on_c, 0, 55, 80
2, 158207, Note_on_c, 0, 36, 127
2, 158232, Note_off_c, 0, 55, 80
2, 158237, Note_off_c, 0, 36, 127
2, 158401, Note_on_c, 0, 38, 82
2, 158408, Note_on_c, 0, 55, 82
2, 158431, Note_off_c, 0, 38, 82
2, 158438, Note_off_c, 0, 55, 82
2, 158596, Note_on_c, 0, 38, 127
2, 158600, Note_on_c, 0, 55, 80
2, 158626, Note_off_c, 0, 38, 127
2, 158630, Note_off_c, 0, 55, 80
2, 158781, Note_on_c, 0, 55, 80
2, 158811, Note_off_c, 0, 55, 80
2, 158972, Note_on_c, 0, 55, 80
2, 158976, Note_on_c, 0, 36, 127
2, 159002, Note_off_c, 0, 55, 80
2, 159006, Note_off_c, 0, 36, 127
2, 159164, Note_on_c, 0, 55, 80
2, 159194, Note_off_c, 0, 55, 80
2, 159350, Note_on_c, 0, 38, 127
2, 159351, Note_on_c, 0, 55, 80
2, 159380, Note_off_c, 0, 38, 127
2, 159381, Note_off_c, 0, 55, 80
2, 159560, Note_on_c, 0, 38, 127
2, 159560, Note_on_c, 0, 55, 80
2, 159590, Note_off_c, 0, 55, 80
2, 159590, Note_off_c, 0, 38, 127
2, 159737, Note_on_c, 0, 36, 127
2, 159739, Note_on_c, 0, 60, 38
2, 159749, Note_on_c, 0, 55, 80
2, 159767, Note_off_c, 0, 36, 127
2, 159769, Note_off_c, 0, 60, 38
2, 159779, Note_off_c, 0, 55, 80
2, 159942, Note_on_c, 0, 55, 80
2, 159972, Note_off_c, 0, 55, 80
2, 160116, Note_on_c, 0, 55, 80
2, 160131, Note_on_c, 0, 38, 127
2, 160146, Note_off_c, 0, 55, 80
2, 160161, Note_off_c, 0, 38, 127
2, 160328, Note_on_c, 0, 55, 80
2, 160358, Note_off_c, 0, 55, 80
2, 160503, Note_on_c, 0, 55, 80
2, 160510, Note_on_c, 0, 36, 127
2, 160533, Note_off_c, 0, 55, 80
2, 160540, Note_off_c, 0, 36, 127
2, 160703, Note_on_c, 0, 55, 80
2, 160733, Note_off_c, 0, 55, 80
2, 160892, Note_on_c, 0, 38, 127
2, 160906, Note_on_c, 0, 55, 80
2, 160922, Note_off_c, 0, 38, 127
2, 160936, Note_off_c, 0, 55, 80
2, 161076, Note_on_c, 0, 55, 80
2, 161106, Note_off_c, 0, 55, 80
2, 161272, Note_on_c, 0, 55, 80
2, 161284, Note_on_c, 0, 36, 127
2, 161302, Note_off_c, 0, 55, 80
2, 161314, Note_off_c, 0, 36, 127
2, 161480, Note_on_c, 0, 55, 80
2, 161510, Note_off_c, 0, 55, 80
2, 161656, Note_on_c, 0, 55, 80
2, 161672, Note_on_c, 0, 38, 127
2, 161686, Note_off_c, 0, 55, 80
2, 161702, Note_off_c, 0, 38, 127
2, 161848, Note_on_c, 0, 55, 80
2, 161878, Note_off_c, 0, 55, 80
2, 162037, Note_on_c, 0, 36, 127
2, 162055, Note_on_c, 0, 55, 80
2, 162067, Note_off_c, 0, 36, 127
2, 162085, Note_off_c, 0, 55, 80
2, 162236, Note_on_c, 0, 55, 80
2, 162266, Note_off_c, 0, 55, 80
2, 162424, Note_on_c, 0, 38, 127
2, 162424, Note_on_c, 0, 55, 80
2, 162454, Note_off_c, 0, 55, 80
2, 162454, Note_off_c, 0, 38, 127
2, 162634, Note_on_c, 0, 55, 80
2, 162664, Note_off_c, 0, 55, 80
2, 162813, Note_on_c, 0, 36, 127
2, 162816, Note_on_c, 0, 55, 80
2, 162843, Note_off_c, 0, 36, 127
2, 162846, Note_off_c, 0, 55, 80
2, 163000, Note_on_c, 0, 55, 80
2, 163030, Note_off_c, 0, 55, 80
2, 163192, Note_on_c, 0, 55, 80
2, 163204, Note_on_c, 0, 38, 127
2, 163222, Note_off_c, 0, 55, 80
2, 163234, Note_off_c, 0, 38, 127
2, 163400, Note_on_c, 0, 55, 80
2, 163430, Note_off_c, 0, 55, 80
2, 163573, Note_on_c, 0, 36, 127
2, 163588, Note_on_c, 0, 55, 80
2, 163603, Note_off_c, 0, 36, 127
2, 163618, Note_off_c, 0, 55, 80
2, 163784, Note_on_c, 0, 55, 80
2, 163814, Note_off_c, 0, 55, 80
2, 163960, Note_on_c, 0, 38, 127
2, 163963, Note_on_c, 0, 55, 80
2, 163990, Note_off_c, 0, 38, 127
2, 163993, Note_off_c, 0, 55, 80
2, 164157, Note_on_c, 0, 55, 80
2, 164187, Note_off_c, 0, 55, 80
2, 164344, Note_on_c, 0, 36, 127
2, 164347, Note_on_c, 0, 55, 80
2, 164374, Note_off_c, 0, 36, 127
2, 164377, Note_off_c, 0, 55, 80
2, 164545, Note_on_c, 0, 38, 84
2, 164548, Note_on_c, 0, 55, 80
2, 164575, Note_off_c, 0, 38, 84
2, 164578, Note_off_c, 0, 55, 80
2, 164736, Note_on_c, 0, 55, 80
2, 164740, Note_on_c, 0, 38, 127
2, 164766, Note_off_c, 0, 55, 80
2, 164770, Note_off_c, 0, 38, 127
2, 164922, Note_on_c, 0, 55, 80
2, 164952, Note_off_c, 0, 55, 80
2, 165124, Note_on_c, 0, 36, 127
2, 165126, Note_on_c, 0, 38, 110
2, 165128, Note_on_c, 0, 55, 80
2, 165154, Note_off_c, 0, 36, 127
2, 165156, Note_off_c, 0, 38, 110
2, 165158, Note_off_c, 0, 55, 80
2, 165301, Note_on_c, 0, 55, 58
2, 165317, Note_on_c, 0, 38, 58
2, 165331, Note_off_c, 0, 55, 58
2, 165347, Note_off_c, 0, 38, 58
2, 165404, Note_on_c, 0, 38, 95
2, 165434, Note_off_c, 0, 38, 95
2, 165496, Note_on_c, 0, 55, 80
2, 165509, Note_on_c, 0, 38, 127
2, 165526, Note_off_c, 0, 55, 80
2, 165539, Note_off_c, 0, 38, 127
2, 165692, Note_on_c, 0, 38, 110
2, 165701, Note_on_c, 0, 55, 80
2, 165722, Note_off_c, 0, 38, 110
2, 165731, Note_off_c, 0, 55, 80
2, 165880, Note_on_c, 0, 36, 127
2, 165886, Note_on_c, 0, 60, 38
2, 165893, Note_on_c, 0, 55, 80
2, 165910, Note_off_c, 0, 36, 127
2, 165916, Note_off_c, 0, 60, 38
2, 165923, Note_off_c, 0, 55, 80
2, 166086, Note_on_c, 0, 55, 80
2, 166116, Note_off_c, 0, 55, 80
2, 166262, Note_on_c, 0, 38, 127
2, 166269, Note_on_c, 0, 55, 80
2, 166292, Note_off_c, 0, 38, 127
2, 166299, Note_off_c, 0, 55, 80
2, 166464, Note_on_c, 0, 55, 80
2, 166494, Note_off_c, 0, 55, 80
2, 166650, Note_on_c, 0, 36, 127
2, 166658, Note_on_c, 0, 55, 80
2, 166680, Note_off_c, 0, 36, 127
2, 166688, Note_off_c, 0, 55, 80
2, 166849, Note_on_c, 0, 55, 80
2, 166879, Note_off_c, 0, 55, 80
2, 167032, Note_on_c, 0, 38, 127
2, 167034, Note_on_c, 0, 55, 80
2, 167062, Note_off_c, 0, 38, 127
2, 167064, Note_off_c, 0, 55, 80
2, 167228, Note_on_c, 0, 55, 80
2, 167258, Note_off_c, 0, 55, 80
2, 167414, Note_on_c, 0, 55, 80
2, 167421, Note_on_c, 0, 36, 127
2, 167444, Note_off_c, 0, 55, 80
2, 167451, Note_off_c, 0, 36, 127
2, 167618, Note_on_c, 0, 55, 80
2, 167648, Note_off_c, 0, 55, 80
2, 167802, Note_on_c, 0, 38, 127
2, 167811, Note_on_c, 0, 55, 80
2, 167832, Note_off_c, 0, 38, 127
2, 167841, Note_off_c, 0, 55, 80
2, 167998, Note_on_c, 0, 55, 80
2, 168028, Note_off_c, 0, 55, 80
2, 168181, Note_on_c, 0, 55, 80
2, 168195, Note_on_c, 0, 36, 127
2, 168211, Note_off_c, 0, 55, 80
2, 168225, Note_off_c, 0, 36, 127
2, 168393, Note_on_c, 0, 55, 80
2, 168423, Note_off_c, 0, 55, 80
2, 168569, Note_on_c, 0, 38, 127
2, 168580, Note_on_c, 0, 55, 80
2, 168599, Note_off_c, 0, 38, 127
2, 168610, Note_off_c, 0, 55, 80
2, 168769, Note_on_c, 0, 55, 80
2, 168799, Note_off_c, 0, 55, 80
2, 168950, Note_on_c, 0, 36, 127
2, 168965, Note_on_c, 0, 55, 80
2, 168980, Note_off_c, 0, 36, 127
2, 168995, Note_off_c, 0, 55, 80
2, 169141, Note_on_c, 0, 55, 80
2, 169171, Note_off_c, 0, 55, 80
2, 169342, Note_on_c, 0, 38, 127
2, 169347, Note_on_c, 0, 55, 80
2, 169372, Note_off_c, 0, 38, 127
2, 169377, Note_off_c, 0, 55, 80
2, 169546, Note_on_c, 0, 55, 80
2, 169576, Note_off_c, 0, 55, 80
2, 169722, Note_on_c, 0, 55, 80
2, 169736, Note_on_c, 0, 36, 127
2, 169752, Note_off_c, 0, 55, 80
2, 169766, Note_off_c, 0, 36, 127
2, 169912, Note_on_c, 0, 55, 80
2, 169942, Note_off_c, 0, 55, 80
2, 170115, Note_on_c, 0, 55, 80
2, 170120, Note_on_c, 0, 38, 127
2, 170145, Note_off_c, 0, 55, 80
2, 170150, Note_off_c, 0, 38, 127
2, 170314, Note_on_c, 0, 55, 80
2, 170344, Note_off_c, 0, 55, 80
2, 170491, Note_on_c, 0, 36, 127
2, 170491, Note_on_c, 0, 55, 80
2, 170521, Note_off_c, 0, 55, 80
2, 170521, Note_off_c, 0, 36, 127
2, 170694, Note_on_c, 0, 55, 80
2, 170724, Note_off_c, 0, 55, 80
2, 170871, Note_on_c, 0, 38, 127
2, 170883, Note_on_c, 0, 55, 80
2, 170901, Note_off_c, 0, 38, 127
2, 170913, Note_off_c, 0, 55, 80
2, 171080, Note_on_c, 0, 55, 80
2, 171110, Note_off_c, 0, 55, 80
2, 171258, Note_on_c, 0, 55, 80
2, 171259, Note_on_c, 0, 36, 127
2, 171288, Note_off_c, 0, 55, 80
2, 171289, Note_off_c, 0, 36, 127
2, 171465, Note_on_c, 0, 55, 80
2, 171495, Note_off_c, 0, 55, 80
2, 171636, Note_on_c, 0, 38, 127
2, 171647, Note_on_c, 0, 55, 80
2, 171666, Note_off_c, 0, 38, 127
2, 171677, Note_off_c, 0, 55, 80
2, 171840, Note_on_c, 0, 38, 98
2, 171845, Note_on_c, 0, 55, 80
2, 171870, Note_off_c, 0, 38, 98
2, 171875, Note_off_c, 0, 55, 80
2, 172031, Note_on_c, 0, 55, 80
2, 172033, Note_on_c, 0, 36, 127
2, 172036, Note_on_c, 0, 60, 38
2, 172061, Note_off_c, 0, 55, 80
2, 172063, Note_off_c, 0, 36, 127
2, 172066, Note_off_c, 0, 60, 38
2, 172214, Note_on_c, 0, 55, 80
2, 172244, Note_off_c, 0, 55, 80
2, 172416, Note_on_c, 0, 38, 127
2, 172417, Note_on_c, 0, 55, 80
2, 172446, Note_off_c, 0, 38, 127
2, 172447, Note_off_c, 0, 55, 80
2, 172596, Note_on_c, 0, 55, 80
2, 172626, Note_off_c, 0, 55, 80
2, 172791, Note_on_c, 0, 36, 127
2, 172808, Note_on_c, 0, 55, 80
2, 172821, Note_off_c, 0, 36, 127
2, 172838, Note_off_c, 0, 55, 80
2, 172988, Note_on_c, 0, 55, 80
2, 173018, Note_off_c, 0, 55, 80
2, 173173, Note_on_c, 0, 38, 127
2, 173184, Note_on_c, 0, 55, 80
2, 173203, Note_off_c, 0, 38, 127
2, 173214, Note_off_c, 0, 55, 80
2, 173366, Note_on_c, 0, 55, 80
2, 173396, Note_off_c, 0, 55, 80
2, 173561, Note_on_c, 0, 36, 127
2, 173563, Note_on_c, 0, 55, 80
2, 173591, Note_off_c, 0, 36, 127
2, 173593, Note_off_c, 0, 55, 80
2, 173755, Note_on_c, 0, 55, 80
2, 173785, Note_off_c, 0, 55, 80
2, 173950, Note_on_c, 0, 55, 80
2, 173952, Note_on_c, 0, 38, 127
2, 173980, Note_off_c, 0, 55, 80
2, 173982, Note_off_c, 0, 38, 127
2, 174133, Note_on_c, 0, 55, 80
2, 174163, Note_off_c, 0, 55, 80
2, 174327, Note_on_c, 0, 55, 80
2, 174344, Note_on_c, 0, 36, 127
2, 174357, Note_off_c, 0, 55, 80
2, 174374, Note_off_c, 0, 36, 127
2, 174531, Note_on_c, 0, 55, 80
2, 174561, Note_off_c, 0, 55, 80
2, 174720, Note_on_c, 0, 55, 80
2, 174728, Note_on_c, 0, 38, 127
2, 174750, Note_off_c, 0, 55, 80
2, 174758, Note_off_c, 0, 38, 127
2, 174911, Note_on_c, 0, 55, 80
2, 174941, Note_off_c, 0, 55, 80
2, 175099, Note_on_c, 0, 36, 127
2, 175110, Note_on_c, 0, 60, 38
2, 175113, Note_on_c, 0, 55, 80
2, 175129, Note_off_c, 0, 36, 127
2, 175140, Note_off_c, 0, 60, 38
2, 175143, Note_off_c, 0, 55, 80
2, 175290, Note_on_c, 0, 55, 80
2, 175320, Note_off_c, 0, 55, 80
2, 175476, Note_on_c, 0, 38, 127
2, 175477, Note_on_c, 0, 55, 80
2, 175506, Note_off_c, 0, 38, 127
2, 175507, Note_off_c, 0, 55, 80
2, 175675, Note_on_c, 0, 55, 80
2, 175705, Note_off_c, 0, 55, 80
2, 175863, Note_on_c, 0, 36, 127
2, 175881, Note_on_c, 0, 55, 80
2, 175893, Note_off_c, 0, 36, 127
2, 175911, Note_off_c, 0, 55, 80
2, 176058, Note_on_c, 0, 55, 80
2, 176088, Note_off_c, 0, 55, 80
2, 176247, Note_on_c, 0, 55, 80
2, 176249, Note_on_c, 0, 38, 127
2, 176277, Note_off_c, 0, 55, 80
2, 176279, Note_off_c, 0, 38, 127
2, 176437, Note_on_c, 0, 55, 80
2, 176467, Note_off_c, 0, 55, 80
2, 176644, Note_on_c, 0, 36, 127
2, 176646, Note_on_c, 0, 55, 80
2, 176674, Note_off_c, 0, 36, 127
2, 176676, Note_off_c, 0, 55, 80
2, 176822, Note_on_c, 0, 55, 80
2, 176852, Note_off_c, 0, 55, 80
2, 177013, Note_on_c, 0, 55, 80
2, 177017, Note_on_c, 0, 38, 127
2, 177043, Note_off_c, 0, 55, 80
2, 177047, Note_off_c, 0, 38, 127
2, 177204, Note_on_c, 0, 55, 80
2, 177234, Note_off_c, 0, 55, 80
2, 177407, Note_on_c, 0, 55, 80
2, 177414, Note_on_c, 0, 36, 127
2, 177437, Note_off_c, 0, 55, 80
2, 177444, Note_off_c, 0, 36, 127
2, 177610, Note_on_c, 0, 55, 80
2, 177640, Note_off_c, 0, 55, 80
2, 177793, Note_on_c, 0, 55, 80
2, 177798, Note_on_c, 0, 38, 127
2, 177823, Note_off_c, 0, 55, 80
2, 177828, Note_off_c, 0, 38, 127
2, 177976, Note_on_c, 0, 38, 127
2, 177993, Note_on_c, 0, 55, 80
2, 178006, Note_off_c, 0, 38, 127
2, 178023, Note_off_c, 0, 55, 80
2, 178168, Note_on_c, 0, 36, 127
2, 178176, Note_on_c, 0, 55, 80
2, 178179, Note_on_c, 0, 60, 38
2, 178198, Note_off_c, 0, 36, 127
2, 178206, Note_off_c, 0, 55, 80
2, 178209, Note_off_c, 0, 60, 38
2, 178372, Note_on_c, 0, 55, 80
2, 178402, Note_off_c, 0, 55, 80
2, 178550, Note_on_c, 0, 38, 127
2, 178555, Note_on_c, 0, 55, 80
2, 178580, Note_off_c, 0, 38, 127
2, 178585, Note_off_c, 0, 55, 80
2, 178749, Note_on_c, 0, 55, 80
2, 178779, Note_off_c, 0, 55, 80
2, 178940, Note_on_c, 0, 55, 80
2, 178950, Note_on_c, 0, 36, 127
2, 178970, Note_off_c, 0, 55, 80
2, 178980, Note_off_c, 0, 36, 127
2, 179140, Note_on_c, 0, 55, 80
2, 179170, Note_off_c, 0, 55, 80
2, 179324, Note_on_c, 0, 55, 80
2, 179326, Note_on_c, 0, 38, 127
2, 179354, Note_off_c, 0, 55, 80
2, 179356, Note_off_c, 0, 38, 127
2, 179516, Note_on_c, 0, 55, 80
2, 179546, Note_off_c, 0, 55, 80
2, 179702, Note_on_c, 0, 36, 127
2, 179722, Note_on_c, 0, 55, 80
2, 179732, Note_off_c, 0, 36, 127
2, 179752, Note_off_c, 0, 55, 80
2, 179899, Note_on_c, 0, 55, 80
2, 179929, Note_off_c, 0, 55, 80
2, 180088, Note_on_c, 0, 38, 127
2, 180101, Note_on_c, 0, 55, 80
2, 180118, Note_off_c, 0, 38, 127
2, 180131, Note_off_c, 0, 55, 80
2, 180287, Note_on_c, 0, 55, 80
2, 180317, Note_off_c, 0, 55, 80
2, 180472, Note_on_c, 0, 36, 127
2, 180488, Note_on_c, 0, 55, 80
2, 180502, Note_off_c, 0, 36, 127
2, 180518, Note_off_c, 0, 55, 80
2, 180663, Note_on_c, 0, 55, 80
2, 180693, Note_off_c, 0, 55, 80
2, 180866, Note_on_c, 0, 55, 80
2, 180872, Note_on_c, 0, 38, 127
2, 180896, Note_off_c, 0, 55, 80
2, 180902, Note_off_c, 0, 38, 127
2, 181044, Note_on_c, 0, 55, 80
2, 181074, Note_off_c, 0, 55, 80
2, 181250, Note_on_c, 0, 55, 80
2, 181252, Note_on_c, 0, 36, 127
2, 181280, Note_off_c, 0, 55, 80
2, 181282, Note_off_c, 0, 36, 127
2, 181432, Note_on_c, 0, 55, 80
2, 181462, Note_off_c, 0, 55, 80
2, 181636, Note_on_c, 0, 55, 80
2, 181640, Note_on_c, 0, 38, 127
2, 181666, Note_off_c, 0, 55, 80
2, 181670, Note_off_c, 0, 38, 127
2, 181817, Note_on_c, 0, 55, 80
2, 181847, Note_off_c, 0, 55, 80
2, 182017, Note_on_c, 0, 55, 80
2, 182024, Note_on_c, 0, 36, 127
2, 182047, Note_off_c, 0, 55, 80
2, 182054, Note_off_c, 0, 36, 127
2, 182199, Note_on_c, 0, 55, 80
2, 182229, Note_off_c, 0, 55, 80
2, 182391, Note_on_c, 0, 38, 127
2, 182393, Note_on_c, 0, 55, 80
2, 182421, Note_off_c, 0, 38, 127
2, 182423, Note_off_c, 0, 55, 80
2, 182586, Note_on_c, 0, 55, 80
2, 182616, Note_off_c, 0, 55, 80
2, 182775, Note_on_c, 0, 55, 80
2, 182786, Note_on_c, 0, 36, 127
2, 182805, Note_off_c, 0, 55, 80
2, 182816, Note_off_c, 0, 36, 127
2, 182976, Note_on_c, 0, 55, 122
2, 182986, Note_on_c, 0, 38, 122
2, 183006, Note_off_c, 0, 55, 122
2, 183016, Note_off_c, 0, 38, 122
2, 183171, Note_on_c, 0, 55, 80
2, 183177, Note_on_c, 0, 36, 127
2, 183201, Note_off_c, 0, 55, 80
2, 183207, Note_off_c, 0, 36, 127
2, 183365, Note_on_c, 0, 36, 110
2, 183367, Note_on_c, 0, 55, 80
2, 183395, Note_off_c, 0, 36, 110
2, 183397, Note_off_c, 0, 55, 80
2, 183550, Note_on_c, 0, 38, 110
2, 183561, Note_on_c, 0, 36, 127
2, 183562, Note_on_c, 0, 55, 80
2, 183580, Note_off_c, 0, 38, 110
2, 183591, Note_off_c, 0, 36, 127
2, 183592, Note_off_c, 0, 55, 80
2, 183748, Note_on_c, 0, 55, 80
2, 183748, Note_on_c, 0, 36, 110
2, 183778, Note_off_c, 0, 36, 110
2, 183778, Note_off_c, 0, 55, 80
2, 183928, Note_on_c, 0, 38, 127
2, 183930, Note_on_c, 0, 55, 80
2, 183958, Note_off_c, 0, 38, 127
2, 183960, Note_off_c, 0, 55, 80
2, 184122, Note_on_c, 0, 38, 110
2, 184127, Note_on_c, 0, 55, 80
2, 184152, Note_off_c, 0, 38, 110
2, 184157, Note_off_c, 0, 55, 80
2, 184311, Note_on_c, 0, 36, 127
2, 184320, Note_on_c, 0, 55, 80
2, 184321, Note_on_c, 0, 60, 38
2, 184341, Note_off_c, 0, 36, 127
2, 184350, Note_off_c, 0, 55, 80
2, 184351, Note_off_c, 0, 60, 38
2, 184505, Note_on_c, 0, 55, 80
2, 184535, Note_off_c, 0, 55, 80
2, 184702, Note_on_c, 0, 55, 80
2, 184710, Note_on_c, 0, 38, 127
2, 184732, Note_off_c, 0, 55, 80
2, 184740, Note_off_c, 0, 38, 127
2, 184901, Note_on_c, 0, 55, 80
2, 184931, Note_off_c, 0, 55, 80
2, 185082, Note_on_c, 0, 36, 127
2, 185092, Note_on_c, 0, 55, 80
2, 185112, Note_off_c, 0, 36, 127
2, 185122, Note_off_c, 0, 55, 80
2, 185278, Note_on_c, 0, 55, 80
2, 185308, Note_off_c, 0, 55, 80
2, 185478, Note_on_c, 0, 38, 127
2, 185479, Note_on_c, 0, 55, 80
2, 185508, Note_off_c, 0, 38, 127
2, 185509, Note_off_c, 0, 55, 80
2, 185663, Note_on_c, 0, 55, 80
2, 185693, Note_off_c, 0, 55, 80
2, 185863, Note_on_c, 0, 36, 127
2, 185864, Note_on_c, 0, 55, 80
2, 185893, Note_off_c, 0, 36, 127
2, 185894, Note_off_c, 0, 55, 80
2, 186052, Note_on_c, 0, 55, 80
2, 186082, Note_off_c, 0, 55, 80
2, 186236, Note_on_c, 0, 38, 127
2, 186250, Note_on_c, 0, 55, 80
2, 186266, Note_off_c, 0, 38, 127
2, 186280, Note_off_c, 0, 55, 80
2, 186442, Note_on_c, 0, 55, 80
2, 186472, Note_off_c, 0, 55, 80
2, 186618, Note_on_c, 0, 55, 80
2, 186624, Note_on_c, 0, 36, 127
2, 186648, Note_off_c, 0, 55, 80
2, 186654, Note_off_c, 0, 36, 127
2, 186810, Note_on_c, 0, 38, 68
2, 186816, Note_on_c, 0, 55, 80
2, 186840, Note_off_c, 0, 38, 68
2, 186846, Note_off_c, 0, 55, 80
2, 187009, Note_on_c, 0, 38, 127
2, 187017, Note_on_c, 0, 55, 80
2, 187039, Note_off_c, 0, 38, 127
2, 187047, Note_off_c, 0, 55, 80
2, 187192, Note_on_c, 0, 38, 110
2, 187200, Note_on_c, 0, 55, 80
2, 187222, Note_off_c, 0, 38, 110
2, 187230, Note_off_c, 0, 55, 80
2, 187382, Note_on_c, 0, 60, 38
2, 187384, Note_on_c, 0, 36, 127
2, 187401, Note_on_c, 0, 55, 80
2, 187412, Note_off_c, 0, 60, 38
2, 187414, Note_off_c, 0, 36, 127
2, 187431, Note_off_c, 0, 55, 80
2, 187584, Note_on_c, 0, 55, 80
2, 187614, Note_off_c, 0, 55, 80
2, 187776, Note_on_c, 0, 38, 127
2, 187785, Note_on_c, 0, 55, 80
2, 187806, Note_off_c, 0, 38, 127
2, 187815, Note_off_c, 0, 55, 80
2, 187976, Note_on_c, 0, 55, 80
2, 188006, Note_off_c, 0, 55, 80
2, 188152, Note_on_c, 0, 55, 80
2, 188153, Note_on_c, 0, 36, 127
2, 188182, Note_off_c, 0, 55, 80
2, 188183, Note_off_c, 0, 36, 127
2, 188357, Note_on_c, 0, 55, 80
2, 188387, Note_off_c, 0, 55, 80
2, 188541, Note_on_c, 0, 55, 80
2, 188545, Note_on_c, 0, 38, 127
2, 188571, Note_off_c, 0, 55, 80
2, 188575, Note_off_c, 0, 38, 127
2, 188736, Note_on_c, 0, 55, 80
2, 188766, Note_off_c, 0, 55, 80
2, 188926, Note_on_c, 0, 55, 80
2, 188932, Note_on_c, 0, 36, 127
2, 188956, Note_off_c, 0, 55, 80
2, 188962, Note_off_c, 0, 36, 127
2, 189112, Note_on_c, 0, 55, 80
2, 189142, Note_off_c, 0, 55, 80
2, 189313, Note_on_c, 0, 55, 80
2, 189313, Note_on_c, 0, 38, 127
2, 189343, Note_off_c, 0, 38, 127
2, 189343, Note_off_c, 0, 55, 80
2, 189503, Note_on_c, 0, 55, 80
2, 189533, Note_off_c, 0, 55, 80
2, 189699, Note_on_c, 0, 36, 127
2, 189704, Note_on_c, 0, 55, 80
2, 189729, Note_off_c, 0, 36, 127
2, 189734, Note_off_c, 0, 55, 80
2, 189887, Note_on_c, 0, 38, 59
2, 189892, Note_on_c, 0, 55, 80
2, 189917, Note_off_c, 0, 38, 59
2, 189922, Note_off_c, 0, 55, 80
2, 190076, Note_on_c, 0, 55, 80
2, 190083, Note_on_c, 0, 38, 127
2, 190106, Note_off_c, 0, 55, 80
2, 190113, Note_off_c, 0, 38, 127
2, 190260, Note_on_c, 0, 55, 80
2, 190274, Note_on_c, 0, 38, 127
2, 190290, Note_off_c, 0, 55, 80
2, 190304, Note_off_c, 0, 38, 127
2, 190454, Note_on_c, 0, 60, 38
2, 190455, Note_on_c, 0, 36, 127
2, 190455, Note_on_c, 0, 55, 80
2, 190484, Note_off_c, 0, 60, 38
2, 190485, Note_off_c, 0, 55, 80
2, 190485, Note_off_c, 0, 36, 127
2, 190644, Note_on_c, 0, 55, 80
2, 190674, Note_off_c, 0, 55, 80
2, 190846, Note_on_c, 0, 55, 80
2, 190854, Note_on_c, 0, 38, 127
2, 190876, Note_off_c, 0, 55, 80
2, 190884, Note_off_c, 0, 38, 127
2, 191030, Note_on_c, 0, 55, 80
2, 191060, Note_off_c, 0, 55, 80
2, 191222, Note_on_c, 0, 36, 127
2, 191225, Note_on_c, 0, 55, 80
2, 191252, Note_off_c, 0, 36, 127
2, 191255, Note_off_c, 0, 55, 80
2, 191432, Note_on_c, 0, 55, 80
2, 191462, Note_off_c, 0, 55, 80
2, 191604, Note_on_c, 0, 55, 80
2, 191616, Note_on_c, 0, 38, 127
2, 191634, Note_off_c, 0, 55, 80
2, 191646, Note_off_c, 0, 38, 127
2, 191809, Note_on_c, 0, 55, 80
2, 191839, Note_off_c, 0, 55, 80
2, 191991, Note_on_c, 0, 55, 80
2, 192004, Note_on_c, 0, 36, 127
2, 192021, Note_off_c, 0, 55, 80
2, 192034, Note_off_c, 0, 36, 127
2, 192182, Note_on_c, 0, 55, 80
2, 192202, Note_on_c, 0, 38, 57
2, 192212, Note_off_c, 0, 55, 80
2, 192232, Note_off_c, 0, 38, 57
2, 192384, Note_on_c, 0, 38, 127
2, 192384, Note_on_c, 0, 55, 80
2, 192414, Note_off_c, 0, 55, 80
2, 192414, Note_off_c, 0, 38, 127
2, 192570, Note_on_c, 0, 55, 80
2, 192600, Note_off_c, 0, 55, 80
2, 192766, Note_on_c, 0, 55, 80
2, 192768, Note_on_c, 0, 36, 127
2, 192796, Note_off_c, 0, 55, 80
2, 192798, Note_off_c, 0, 36, 127
2, 192955, Note_on_c, 0, 55, 80
2, 192967, Note_on_c, 0, 38, 64
2, 192985, Note_off_c, 0, 55, 80
2, 192997, Note_off_c, 0, 38, 64
2, 193143, Note_on_c, 0, 55, 80
2, 193157, Note_on_c, 0, 38, 127
2, 193173, Note_off_c, 0, 55, 80
2, 193187, Note_off_c, 0, 38, 127
2, 193339, Note_on_c, 0, 55, 80
2, 193369, Note_off_c, 0, 55, 80
2, 193527, Note_on_c, 0, 36, 127
2, 193536, Note_on_c, 0, 55, 80
2, 193536, Note_on_c, 0, 60, 38
2, 193557, Note_off_c, 0, 36, 127
2, 193566, Note_off_c, 0, 60, 38
2, 193566, Note_off_c, 0, 55, 80
2, 193727, Note_on_c, 0, 55, 80
2, 193757, Note_off_c, 0, 55, 80
2, 193922, Note_on_c, 0, 38, 127
2, 193930, Note_on_c, 0, 55, 80
2, 193952, Note_off_c, 0, 38, 127
2, 193960, Note_off_c, 0, 55, 80
2, 194113, Note_on_c, 0, 55, 80
2, 194143, Note_off_c, 0, 55, 80
2, 194295, Note_on_c, 0, 36, 127
2, 194311, Note_on_c, 0, 55, 80
2, 194325, Note_off_c, 0, 36, 127
2, 194341, Note_off_c, 0, 55, 80
2, 194487, Note_on_c, 0, 55, 80
2, 194517, Note_off_c, 0, 55, 80
2, 194676, Note_on_c, 0, 55, 80
2, 194677, Note_on_c, 0, 38, 127
2, 194706, Note_off_c, 0, 55, 80
2, 194707, Note_off_c, 0, 38, 127
2, 194890, Note_on_c, 0, 55, 80
2, 194920, Note_off_c, 0, 55, 80
2, 195074, Note_on_c, 0, 55, 80
2, 195079, Note_on_c, 0, 36, 127
2, 195104, Note_off_c, 0, 55, 80
2, 195109, Note_off_c, 0, 36, 127
2, 195256, Note_on_c, 0, 55, 80
2, 195286, Note_off_c, 0, 55, 80
2, 195353, Note_on_c, 0, 38, 65
2, 195383, Note_off_c, 0, 38, 65
2, 195450, Note_on_c, 0, 38, 127
2, 195459, Note_on_c, 0, 55, 80
2, 195480, Note_off_c, 0, 38, 127
2, 195489, Note_off_c, 0, 55, 80
2, 195652, Note_on_c, 0, 55, 80
2, 195682, Note_off_c, 0, 55, 80
2, 195735, Note_on_c, 0, 38, 65
2, 195765, Note_off_c, 0, 38, 65
2, 195846, Note_on_c, 0, 55, 80
2, 195847, Note_on_c, 0, 36, 127
2, 195849, Note_on_c, 0, 38, 110
2, 195876, Note_off_c, 0, 55, 80
2, 195877, Note_off_c, 0, 36, 127
2, 195879, Note_off_c, 0, 38, 110
2, 196028, Note_on_c, 0, 55, 111
2, 196041, Note_on_c, 0, 38, 111
2, 196058, Note_off_c, 0, 55, 111
2, 196071, Note_off_c, 0, 38, 111
2, 196224, Note_on_c, 0, 55, 80
2, 196228, Note_on_c, 0, 38, 127
2, 196254, Note_off_c, 0, 55, 80
2, 196258, Note_off_c, 0, 38, 127
2, 196419, Note_on_c, 0, 38, 127
2, 196422, Note_on_c, 0, 55, 80
2, 196449, Note_off_c, 0, 38, 127
2, 196452, Note_off_c, 0, 55, 80
2, 196609, Note_on_c, 0, 36, 127
2, 196612, Note_on_c, 0, 60, 38
2, 196616, Note_on_c, 0, 55, 80
2, 196639, Note_off_c, 0, 36, 127
2, 196642, Note_off_c, 0, 60, 38
2, 196646, Note_off_c, 0, 55, 80
2, 196788, Note_on_c, 0, 55, 80
2, 196818, Note_off_c, 0, 55, 80
2, 196990, Note_on_c, 0, 55, 80
2, 196991, Note_on_c, 0, 38, 127
2, 197020, Note_off_c, 0, 55, 80
2, 197021, Note_off_c, 0, 38, 127
2, 197192, Note_on_c, 0, 55, 80
2, 197222, Note_off_c, 0, 55, 80
2, 197368, Note_on_c, 0, 36, 127
2, 197376, Note_on_c, 0, 55, 80
2, 197398, Note_off_c, 0, 36, 127
2, 197406, Note_off_c, 0, 55, 80
2, 197564, Note_on_c, 0, 55, 80
2, 197594, Note_off_c, 0, 55, 80
2, 197763, Note_on_c, 0, 38, 127
2, 197763, Note_on_c, 0, 55, 80
2, 197793, Note_off_c, 0, 55, 80
2, 197793, Note_off_c, 0, 38, 127
2, 197944, Note_on_c, 0, 55, 80
2, 197974, Note_off_c, 0, 55, 80
2, 198135, Note_on_c, 0, 36, 127
2, 198153, Note_on_c, 0, 55, 80
2, 198165, Note_off_c, 0, 36, 127
2, 198183, Note_off_c, 0, 55, 80
2, 198334, Note_on_c, 0, 55, 80
2, 198364, Note_off_c, 0, 55, 80
2, 198530, Note_on_c, 0, 55, 80
2, 198533, Note_on_c, 0, 38, 127
2, 198560, Note_off_c, 0, 55, 80
2, 198563, Note_off_c, 0, 38, 127
2, 198716, Note_on_c, 0, 55, 80
2, 198746, Note_off_c, 0, 55, 80
2, 198903, Note_on_c, 0, 36, 127
2, 198919, Note_on_c, 0, 55, 80
2, 198933, Note_off_c, 0, 36, 127
2, 198949, Note_off_c, 0, 55, 80
2, 199104, Note_on_c, 0, 55, 80
2, 199114, Note_on_c, 0, 38, 68
2, 199134, Note_off_c, 0, 55, 80
2, 199144, Note_off_c, 0, 38, 68
2, 199287, Note_on_c, 0, 38, 127
2, 199289, Note_on_c, 0, 55, 80
2, 199317, Note_off_c, 0, 38, 127
2, 199319, Note_off_c, 0, 55, 80
2, 199484, Note_on_c, 0, 38, 110
2, 199492, Note_on_c, 0, 55, 80
2, 199514, Note_off_c, 0, 38, 110
2, 199522, Note_off_c, 0, 55, 80
2, 199680, Note_on_c, 0, 60, 38
2, 199682, Note_on_c, 0, 55, 80
2, 199687, Note_on_c, 0, 36, 127
2, 199710, Note_off_c, 0, 60, 38
2, 199712, Note_off_c, 0, 55, 80
2, 199717, Note_off_c, 0, 36, 127
2, 199864, Note_on_c, 0, 55, 80
2, 199894, Note_off_c, 0, 55, 80
2, 200059, Note_on_c, 0, 55, 80
2, 200069, Note_on_c, 0, 38, 127
2, 200089, Note_off_c, 0, 55, 80
2, 200099, Note_off_c, 0, 38, 127
2, 200264, Note_on_c, 0, 55, 80
2, 200294, Note_off_c, 0, 55, 80
2, 200444, Note_on_c, 0, 55, 80
2, 200457, Note_on_c, 0, 36, 127
2, 200474, Note_off_c, 0, 55, 80
2, 200487, Note_off_c, 0, 36, 127
2, 200630, Note_on_c, 0, 55, 80
2, 200660, Note_off_c, 0, 55, 80
2, 200824, Note_on_c, 0, 38, 127
2, 200826, Note_on_c, 0, 55, 80
2, 200854, Note_off_c, 0, 38, 127
2, 200856, Note_off_c, 0, 55, 80
2, 201015, Note_on_c, 0, 55, 80
2, 201045, Note_off_c, 0, 55, 80
2, 201205, Note_on_c, 0, 55, 80
2, 201226, Note_on_c, 0, 36, 127
2, 201235, Note_off_c, 0, 55, 80
2, 201256, Note_off_c, 0, 36, 127
2, 201399, Note_on_c, 0, 55, 80
2, 201429, Note_off_c, 0, 55, 80
2, 201606, Note_on_c, 0, 55, 80
2, 201610, Note_on_c, 0, 38, 127
2, 201636, Note_off_c, 0, 55, 80
2, 201640, Note_off_c, 0, 38, 127
2, 201780, Note_on_c, 0, 55, 80
2, 201810, Note_off_c, 0, 55, 80
2, 201978, Note_on_c, 0, 55, 80
2, 201980, Note_on_c, 0, 36, 127
2, 202008, Note_off_c, 0, 55, 80
2, 202010, Note_off_c, 0, 36, 127
2, 202172, Note_on_c, 0, 55, 80
2, 202172, Note_on_c, 0, 38, 59
2, 202202, Note_off_c, 0, 38, 59
2, 202202, Note_off_c, 0, 55, 80
2, 202357, Note_on_c, 0, 55, 80
2, 202365, Note_on_c, 0, 38, 127
2, 202387, Note_off_c, 0, 55, 80
2, 202395, Note_off_c, 0, 38, 127
2, 202552, Note_on_c, 0, 38, 127
2, 202556, Note_on_c, 0, 55, 80
2, 202582, Note_off_c, 0, 38, 127
2, 202586, Note_off_c, 0, 55, 80
2, 202747, Note_on_c, 0, 55, 80
2, 202752, Note_on_c, 0, 60, 38
2, 202753, Note_on_c, 0, 36, 127
2, 202777, Note_off_c, 0, 55, 80
2, 202782, Note_off_c, 0, 60, 38
2, 202783, Note_off_c, 0, 36, 127
2, 202951, Note_on_c, 0, 55, 80
2, 202981, Note_off_c, 0, 55, 80
2, 203130, Note_on_c, 0, 55, 80
2, 203136, Note_on_c, 0, 38, 127
2, 203160, Note_off_c, 0, 55, 80
2, 203166, Note_off_c, 0, 38, 127
2, 203325, Note_on_c, 0, 55, 80
2, 203355, Note_off_c, 0, 55, 80
2, 203524, Note_on_c, 0, 36, 127
2, 203527, Note_on_c, 0, 55, 80
2, 203554, Note_off_c, 0, 36, 127
2, 203557, Note_off_c, 0, 55, 80
2, 203708, Note_on_c, 0, 55, 80
2, 203738, Note_off_c, 0, 55, 80
2, 203895, Note_on_c, 0, 38, 127
2, 203907, Note_on_c, 0, 55, 80
2, 203925, Note_off_c, 0, 38, 127
2, 203937, Note_off_c, 0, 55, 80
2, 204092, Note_on_c, 0, 55, 80
2, 204122, Note_off_c, 0, 55, 80
2, 204280, Note_on_c, 0, 36, 127
2, 204298, Note_on_c, 0, 55, 80
2, 204310, Note_off_c, 0, 36, 127
2, 204328, Note_off_c, 0, 55, 80
2, 204481, Note_on_c, 0, 38, 57
2, 204484, Note_on_c, 0, 55, 80
2, 204511, Note_off_c, 0, 38, 57
2, 204514, Note_off_c, 0, 55, 80
2, 204676, Note_on_c, 0, 38, 127
2, 204681, Note_on_c, 0, 55, 80
2, 204706, Note_off_c, 0, 38, 127
2, 204711, Note_off_c, 0, 55, 80
2, 204869, Note_on_c, 0, 55, 80
2, 204899, Note_off_c, 0, 55, 80
2, 205056, Note_on_c, 0, 55, 80
2, 205066, Note_on_c, 0, 36, 127
2, 205086, Note_off_c, 0, 55, 80
2, 205096, Note_off_c, 0, 36, 127
2, 205247, Note_on_c, 0, 55, 80
2, 205250, Note_on_c, 0, 38, 64
2, 205277, Note_off_c, 0, 55, 80
2, 205280, Note_off_c, 0, 38, 64
2, 205443, Note_on_c, 0, 55, 80
2, 205450, Note_on_c, 0, 38, 127
2, 205473, Note_off_c, 0, 55, 80
2, 205480, Note_off_c, 0, 38, 127
2, 205642, Note_on_c, 0, 55, 80
2, 205672, Note_off_c, 0, 55, 80
2, 205828, Note_on_c, 0, 55, 80
2, 205828, Note_on_c, 0, 36, 127
2, 205833, Note_on_c, 0, 60, 38
2, 205858, Note_off_c, 0, 36, 127
2, 205858, Note_off_c, 0, 55, 80
2, 205863, Note_off_c, 0, 60, 38
2, 206019, Note_on_c, 0, 55, 80
2, 206049, Note_off_c, 0, 55, 80
2, 206204, Note_on_c, 0, 55, 80
2, 206214, Note_on_c, 0, 38, 127
2, 206234, Note_off_c, 0, 55, 80
2, 206244, Note_off_c, 0, 38, 127
2, 206408, Note_on_c, 0, 55, 80
2, 206438, Note_off_c, 0, 55, 80
2, 206584, Note_on_c, 0, 36, 127
2, 206602, Note_on_c, 0, 55, 80
2, 206614, Note_off_c, 0, 36, 127
2, 206632, Note_off_c, 0, 55, 80
2, 206778, Note_on_c, 0, 55, 80
2, 206808, Note_off_c, 0, 55, 80
2, 206978, Note_on_c, 0, 38, 127
2, 206986, Note_on_c, 0, 55, 80
2, 207008, Note_off_c, 0, 38, 127
2, 207016, Note_off_c, 0, 55, 80
2, 207162, Note_on_c, 0, 55, 80
2, 207192, Note_off_c, 0, 55, 80
2, 207351, Note_on_c, 0, 36, 127
2, 207355, Note_on_c, 0, 55, 80
2, 207381, Note_off_c, 0, 36, 127
2, 207385, Note_off_c, 0, 55, 80
2, 207557, Note_on_c, 0, 55, 80
2, 207587, Note_off_c, 0, 55, 80
2, 207738, Note_on_c, 0, 55, 80
2, 207746, Note_on_c, 0, 38, 127
2, 207768, Note_off_c, 0, 55, 80
2, 207776, Note_off_c, 0, 38, 127
2, 207940, Note_on_c, 0, 55, 80
2, 207970, Note_off_c, 0, 55, 80
2, 208125, Note_on_c, 0, 55, 80
2, 208136, Note_on_c, 0, 36, 127
2, 208155, Note_off_c, 0, 55, 80
2, 208166, Note_off_c, 0, 36, 127
2, 208315, Note_on_c, 0, 38, 64
2, 208315, Note_on_c, 0, 55, 80
2, 208345, Note_off_c, 0, 55, 80
2, 208345, Note_off_c, 0, 38, 64
2, 208508, Note_on_c, 0, 55, 80
2, 208508, Note_on_c, 0, 38, 127
2, 208538, Note_off_c, 0, 38, 127
2, 208538, Note_off_c, 0, 55, 80
2, 208696, Note_on_c, 0, 38, 127
2, 208711, Note_on_c, 0, 55, 80
2, 208726, Note_off_c, 0, 38, 127
2, 208741, Note_off_c, 0, 55, 80
2, 208885, Note_on_c, 0, 36, 127
2, 208894, Note_on_c, 0, 55, 80
2, 208904, Note_on_c, 0, 60, 38
2, 208915, Note_off_c, 0, 36, 127
2, 208924, Note_off_c, 0, 55, 80
2, 208934, Note_off_c, 0, 60, 38
2, 209086, Note_on_c, 0, 55, 80
2, 209116, Note_off_c, 0, 55, 80
2, 209269, Note_on_c, 0, 38, 127
2, 209286, Note_on_c, 0, 55, 80
2, 209299, Note_off_c, 0, 38, 127
2, 209316, Note_off_c, 0, 55, 80
2, 209475, Note_on_c, 0, 55, 80
2, 209505, Note_off_c, 0, 55, 80
2, 209654, Note_on_c, 0, 55, 80
2, 209664, Note_on_c, 0, 36, 127
2, 209684, Note_off_c, 0, 55, 80
2, 209694, Note_off_c, 0, 36, 127
2, 209844, Note_on_c, 0, 55, 80
2, 209874, Note_off_c, 0, 55, 80
2, 210041, Note_on_c, 0, 55, 80
2, 210056, Note_on_c, 0, 38, 127
2, 210071, Note_off_c, 0, 55, 80
2, 210086, Note_off_c, 0, 38, 127
2, 210246, Note_on_c, 0, 55, 80
2, 210276, Note_off_c, 0, 55, 80
2, 210422, Note_on_c, 0, 36, 127
2, 210428, Note_on_c, 0, 55, 80
2, 210452, Note_off_c, 0, 36, 127
2, 210458, Note_off_c, 0, 55, 80
2, 210621, Note_on_c, 0, 55, 80
2, 210651, Note_off_c, 0, 55, 80
2, 210816, Note_on_c, 0, 55, 80
2, 210819, Note_on_c, 0, 38, 127
2, 210846, Note_off_c, 0, 55, 80
2, 210849, Note_off_c, 0, 38, 127
2, 211016, Note_on_c, 0, 55, 80
2, 211046, Note_off_c, 0, 55, 80
2, 211190, Note_on_c, 0, 36, 127
2, 211208, Note_on_c, 0, 55, 80
2, 211220, Note_off_c, 0, 36, 127
2, 211238, Note_off_c, 0, 55, 80
2, 211396, Note_on_c, 0, 55, 80
2, 211426, Note_off_c, 0, 55, 80
2, 211575, Note_on_c, 0, 38, 127
2, 211584, Note_on_c, 0, 55, 80
2, 211605, Note_off_c, 0, 38, 127
2, 211614, Note_off_c, 0, 55, 80
2, 211772, Note_on_c, 0, 55, 80
2, 211802, Note_off_c, 0, 55, 80
2, 211963, Note_on_c, 0, 55, 80
2, 211964, Note_on_c, 0, 60, 38
2, 211971, Note_on_c, 0, 36, 127
2, 211993, Note_off_c, 0, 55, 80
2, 211994, Note_off_c, 0, 60, 38
2, 212001, Note_off_c, 0, 36, 127
2, 212162, Note_on_c, 0, 55, 80
2, 212192, Note_off_c, 0, 55, 80
2, 212351, Note_on_c, 0, 38, 127
2, 212356, Note_on_c, 0, 55, 80
2, 212381, Note_off_c, 0, 38, 127
2, 212386, Note_off_c, 0, 55, 80
2, 212534, Note_on_c, 0, 55, 80
2, 212564, Note_off_c, 0, 55, 80
2, 212728, Note_on_c, 0, 36, 127
2, 212732, Note_on_c, 0, 55, 80
2, 212733, Note_on_c, 0, 60, 38
2, 212758, Note_off_c, 0, 36, 127
2, 212762, Note_off_c, 0, 55, 80
2, 212763, Note_off_c, 0, 60, 38
2, 212921, Note_on_c, 0, 38, 81
2, 212936, Note_on_c, 0, 55, 80
2, 212951, Note_off_c, 0, 38, 81
2, 212966, Note_off_c, 0, 55, 80
2, 213112, Note_on_c, 0, 55, 80
2, 213112, Note_on_c, 0, 38, 127
2, 213121, Note_on_c, 0, 36, 127
2, 213142, Note_off_c, 0, 38, 127
2, 213142, Note_off_c, 0, 55, 80
2, 213151, Note_off_c, 0, 36, 127
2, 213314, Note_on_c, 0, 55, 80
2, 213320, Note_on_c, 0, 38, 89
2, 213344, Note_off_c, 0, 55, 80
2, 213350, Note_off_c, 0, 38, 89
2, 213492, Note_on_c, 0, 55, 80
2, 213492, Note_on_c, 0, 38, 127
2, 213512, Note_on_c, 0, 36, 127
2, 213522, Note_off_c, 0, 38, 127
2, 213522, Note_off_c, 0, 55, 80
2, 213542, Note_off_c, 0, 36, 127
2, 213688, Note_on_c, 0, 55, 80
2, 213692, Note_on_c, 0, 38, 127
2, 213697, Note_on_c, 0, 36, 127
2, 213718, Note_off_c, 0, 55, 80
2, 213722, Note_off_c, 0, 38, 127
2, 213727, Note_off_c, 0, 36, 127
2, 213883, Note_on_c, 0, 55, 80
2, 213892, Note_on_c, 0, 38, 127
2, 213898, Note_on_c, 0, 36, 127
2, 213913, Note_off_c, 0, 55, 80
2, 213922, Note_off_c, 0, 38, 127
2, 213928, Note_off_c, 0, 36, 127
2, 214076, Note_on_c, 0, 55, 80
2, 214082, Note_on_c, 0, 36, 127
2, 214083, Note_on_c, 0, 38, 127
2, 214090, Note_on_c, 0, 60, 38
2, 214106, Note_off_c, 0, 55, 80
2, 214112, Note_off_c, 0, 36, 127
2, 214113, Note_off_c, 0, 38, 127
2, 214120, Note_off_c, 0, 60, 38
2, 214847, Note_on_c, 0, 38, 127
2, 214877, Note_off_c, 0, 38, 127
2, 215612, Note_on_c, 0, 38, 122
2, 215642, Note_off_c, 0, 38, 122
2, 216293, Note_on_c, 0, 38, 110
2, 216323, Note_off_c, 0, 38, 110
2, 216378, Note_on_c, 0, 38, 110
2, 216408, Note_off_c, 0, 38, 110
2, 216488, Note_on_c, 0, 36, 110
2, 216518, Note_off_c, 0, 36, 110
2, 218112, End_track
3, 0, Start_track
3, 0, Title_t, "BASS"
3, 9214, Note_on_c, 2, 47, 100
3, 9594, Note_on_c, 2, 51, 90
3, 9597, Note_off_c, 2, 47, 100
3, 9973, Note_off_c, 2, 51, 90
3, 9980, Note_on_c, 2, 54, 106
3, 10364, Note_off_c, 2, 54, 106
3, 10366, Note_on_c, 2, 56, 90
3, 10750, Note_off_c, 2, 56, 90
3, 10751, Note_on_c, 2, 57, 91
3, 11135, Note_off_c, 2, 57, 91
3, 11143, Note_on_c, 2, 56, 91
3, 11513, Note_on_c, 2, 54, 106
3, 11527, Note_off_c, 2, 56, 91
3, 11681, Note_off_c, 2, 54, 106
3, 11718, Note_on_c, 2, 54, 91
3, 11909, Note_on_c, 2, 56, 90
3, 11910, Note_off_c, 2, 54, 91
3, 12096, Note_on_c, 2, 54, 90
3, 12097, Note_off_c, 2, 56, 90
3, 12288, Note_off_c, 2, 54, 90
3, 12291, Note_on_c, 2, 47, 100
3, 12459, Note_off_c, 2, 47, 100
3, 12468, Note_on_c, 2, 47, 110
3, 12660, Note_off_c, 2, 47, 110
3, 12669, Note_on_c, 2, 51, 90
3, 13053, Note_off_c, 2, 51, 90
3, 13054, Note_on_c, 2, 54, 106
3, 13438, Note_off_c, 2, 54, 106
3, 13450, Note_on_c, 2, 56, 90
3, 13826, Note_off_c, 2, 56, 90
3, 13832, Note_on_c, 2, 57, 91
3, 14202, Note_on_c, 2, 56, 91
3, 14216, Note_off_c, 2, 57, 91
3, 14593, Note_off_c, 2, 56, 91
3, 14593, Note_on_c, 2, 54, 106
3, 14761, Note_off_c, 2, 54, 106
3, 14778, Note_on_c, 2, 54, 91
3, 14970, Note_off_c, 2, 54, 91
3, 14980, Note_on_c, 2, 56, 90
3, 15160, Note_on_c, 2, 54, 100
3, 15172, Note_off_c, 2, 56, 90
3, 15352, Note_off_c, 2, 54, 100
3, 15355, Note_on_c, 2, 47, 100
3, 15499, Note_off_c, 2, 47, 100
3, 15544, Note_on_c, 2, 47, 100
3, 15736, Note_off_c, 2, 47, 100
3, 15752, Note_on_c, 2, 51, 91
3, 16128, Note_on_c, 2, 54, 106
3, 16136, Note_off_c, 2, 51, 91
3, 16512, Note_off_c, 2, 54, 106
3, 16512, Note_on_c, 2, 56, 90
3, 16884, Note_on_c, 2, 57, 100
3, 16908, Note_off_c, 2, 56, 90
3, 17280, Note_off_c, 2, 57, 100
3, 17290, Note_on_c, 2, 56, 90
3, 17657, Note_on_c, 2, 54, 106
3, 17674, Note_off_c, 2, 56, 90
3, 17825, Note_off_c, 2, 54, 106
3, 17856, Note_on_c, 2, 54, 90
3, 18048, Note_off_c, 2, 54, 90
3, 18052, Note_on_c, 2, 56, 90
3, 18239, Note_on_c, 2, 54, 91
3, 18244, Note_off_c, 2, 56, 90
3, 18431, Note_off_c, 2, 54, 91
3, 18432, Note_on_c, 2, 47, 91
3, 18600, Note_off_c, 2, 47, 91
3, 18615, Note_on_c, 2, 47, 91
3, 18820, Note_on_c, 2, 51, 91
3, 18822, Note_off_c, 2, 47, 91
3, 19198, Note_on_c, 2, 54, 106
3, 19219, Note_off_c, 2, 51, 91
3, 19582, Note_off_c, 2, 54, 106
3, 19582, Note_on_c, 2, 56, 90
3, 19977, Note_off_c, 2, 56, 90
3, 19978, Note_on_c, 2, 57, 100
3, 20354, Note_on_c, 2, 56, 90
3, 20362, Note_off_c, 2, 57, 100
3, 20738, Note_off_c, 2, 56, 90
3, 20738, Note_on_c, 2, 54, 106
3, 20906, Note_off_c, 2, 54, 106
3, 20937, Note_on_c, 2, 54, 90
3, 21110, Note_on_c, 2, 56, 90
3, 21129, Note_off_c, 2, 54, 90
3, 21302, Note_off_c, 2, 56, 90
3, 21302, Note_on_c, 2, 54, 100
3, 21446, Note_off_c, 2, 54, 100
3, 21512, Note_on_c, 2, 54, 90
3, 21680, Note_off_c, 2, 54, 90
3, 21690, Note_on_c, 2, 54, 90
3, 21878, Note_off_c, 2, 54, 90
3, 21898, Note_on_c, 2, 46, 91
3, 22275, Note_on_c, 2, 49, 106
3, 22292, Note_off_c, 2, 46, 91
3, 22443, Note_off_c, 2, 49, 106
3, 22459, Note_on_c, 2, 49, 110
3, 22648, Note_on_c, 2, 51, 91
3, 22651, Note_off_c, 2, 49, 110
3, 23032, Note_off_c, 2, 51, 91
3, 23044, Note_on_c, 2, 54, 90
3, 23212, Note_off_c, 2, 54, 90
3, 23224, Note_on_c, 2, 54, 100
3, 23413, Note_on_c, 2, 46, 91
3, 23416, Note_off_c, 2, 54, 100
3, 23796, Note_on_c, 2, 49, 106
3, 23797, Note_off_c, 2, 46, 91
3, 23964, Note_off_c, 2, 49, 106
3, 24007, Note_on_c, 2, 49, 110
3, 24182, Note_on_c, 2, 48, 100
3, 24199, Note_off_c, 2, 49, 110
3, 24564, Note_on_c, 2, 47, 100
3, 24566, Note_off_c, 2, 48, 100
3, 24948, Note_off_c, 2, 47, 100
3, 24950, Note_on_c, 2, 51, 91
3, 25329, Note_off_c, 2, 51, 91
3, 25340, Note_on_c, 2, 54, 106
3, 25508, Note_off_c, 2, 54, 106
3, 25543, Note_on_c, 2, 54, 91
3, 25717, Note_on_c, 2, 56, 90
3, 25735, Note_off_c, 2, 54, 91
3, 26101, Note_off_c, 2, 56, 90
3, 26108, Note_on_c, 2, 57, 90
3, 26276, Note_off_c, 2, 57, 90
3, 26309, Note_on_c, 2, 57, 90
3, 26501, Note_off_c, 2, 57, 90
3, 26506, Note_on_c, 2, 56, 91
3, 26879, Note_on_c, 2, 54, 106
3, 26890, Note_off_c, 2, 56, 91
3, 27047, Note_off_c, 2, 54, 106
3, 27074, Note_on_c, 2, 54, 90
3, 27260, Note_on_c, 2, 56, 90
3, 27266, Note_off_c, 2, 54, 90
3, 27447, Note_on_c, 2, 54, 90
3, 27452, Note_off_c, 2, 56, 90
3, 27639, Note_off_c, 2, 54, 90
3, 27644, Note_on_c, 2, 47, 100
3, 28006, Note_off_c, 2, 47, 100
3, 28036, Note_on_c, 2, 51, 90
3, 28417, Note_on_c, 2, 54, 106
3, 28420, Note_off_c, 2, 51, 90
3, 28795, Note_on_c, 2, 56, 90
3, 28808, Note_off_c, 2, 54, 106
3, 28991, Note_on_c, 2, 54, 91
3, 29000, Note_off_c, 2, 56, 90
3, 29175, Note_off_c, 2, 54, 91
3, 29192, Note_on_c, 2, 57, 90
3, 29571, Note_on_c, 2, 56, 91
3, 29576, Note_off_c, 2, 57, 90
3, 29955, Note_off_c, 2, 56, 91
3, 29960, Note_on_c, 2, 54, 106
3, 30328, Note_on_c, 2, 56, 90
3, 30336, Note_off_c, 2, 54, 106
3, 30520, Note_off_c, 2, 56, 90
3, 30523, Note_on_c, 2, 54, 91
3, 30715, Note_off_c, 2, 54, 91
3, 30722, Note_on_c, 2, 47, 100
3, 31100, Note_on_c, 2, 51, 90
3, 31106, Note_off_c, 2, 47, 100
3, 31484, Note_off_c, 2, 51, 90
3, 31487, Note_on_c, 2, 54, 106
3, 31871, Note_off_c, 2, 54, 106
3, 31880, Note_on_c, 2, 56, 90
3, 32264, Note_off_c, 2, 56, 90
3, 32264, Note_on_c, 2, 57, 90
3, 32648, Note_off_c, 2, 57, 90
3, 32648, Note_on_c, 2, 56, 91
3, 33017, Note_on_c, 2, 54, 106
3, 33032, Note_off_c, 2, 56, 91
3, 33398, Note_on_c, 2, 56, 90
3, 33401, Note_off_c, 2, 54, 106
3, 33583, Note_off_c, 2, 56, 90
3, 33598, Note_on_c, 2, 54, 90
3, 33790, Note_on_c, 2, 52, 91
3, 33791, Note_off_c, 2, 54, 90
3, 34173, Note_off_c, 2, 52, 91
3, 34182, Note_on_c, 2, 56, 90
3, 34563, Note_on_c, 2, 59, 106
3, 34566, Note_off_c, 2, 56, 90
3, 34947, Note_off_c, 2, 59, 106
3, 34952, Note_on_c, 2, 61, 90
3, 35323, Note_on_c, 2, 62, 91
3, 35340, Note_off_c, 2, 61, 90
3, 35708, Note_off_c, 2, 62, 91
3, 35714, Note_on_c, 2, 61, 90
3, 36090, Note_on_c, 2, 59, 106
3, 36098, Note_off_c, 2, 61, 90
3, 36474, Note_off_c, 2, 59, 106
3, 36480, Note_on_c, 2, 56, 90
3, 36663, Note_on_c, 2, 59, 90
3, 36688, Note_off_c, 2, 56, 90
3, 36855, Note_off_c, 2, 59, 90
3, 36864, Note_on_c, 2, 47, 91
3, 37248, Note_on_c, 2, 51, 90
3, 37250, Note_off_c, 2, 47, 91
3, 37632, Note_on_c, 2, 54, 106
3, 37643, Note_off_c, 2, 51, 90
3, 38016, Note_off_c, 2, 54, 106
3, 38026, Note_on_c, 2, 56, 90
3, 38391, Note_on_c, 2, 57, 90
3, 38410, Note_off_c, 2, 56, 90
3, 38775, Note_off_c, 2, 57, 90
3, 38775, Note_on_c, 2, 56, 90
3, 39159, Note_off_c, 2, 56, 90
3, 39171, Note_on_c, 2, 54, 106
3, 39540, Note_on_c, 2, 56, 90
3, 39555, Note_off_c, 2, 54, 106
3, 39924, Note_off_c, 2, 56, 90
3, 39931, Note_on_c, 2, 54, 91
3, 40315, Note_off_c, 2, 54, 91
3, 40318, Note_on_c, 2, 46, 100
3, 40699, Note_on_c, 2, 47, 106
3, 40702, Note_off_c, 2, 46, 100
3, 41079, Note_on_c, 2, 48, 90
3, 41083, Note_off_c, 2, 47, 106
3, 41463, Note_off_c, 2, 48, 90
3, 41472, Note_on_c, 2, 49, 90
3, 41856, Note_off_c, 2, 49, 90
3, 41862, Note_on_c, 2, 51, 92
3, 42245, Note_on_c, 2, 52, 106
3, 42246, Note_off_c, 2, 51, 92
3, 42629, Note_off_c, 2, 52, 106
3, 42634, Note_on_c, 2, 54, 90
3, 43016, Note_on_c, 2, 47, 100
3, 43018, Note_off_c, 2, 54, 90
3, 43390, Note_on_c, 2, 51, 90
3, 43400, Note_off_c, 2, 47, 100
3, 43774, Note_off_c, 2, 51, 90
3, 43785, Note_on_c, 2, 54, 106
3, 43953, Note_off_c, 2, 54, 106
3, 43975, Note_on_c, 2, 54, 90
3, 44148, Note_on_c, 2, 56, 92
3, 44167, Note_off_c, 2, 54, 90
3, 44532, Note_off_c, 2, 56, 92
3, 44552, Note_on_c, 2, 57, 100
3, 44923, Note_on_c, 2, 56, 90
3, 44936, Note_off_c, 2, 57, 100
3, 45091, Note_off_c, 2, 56, 90
3, 45112, Note_on_c, 2, 56, 110
3, 45304, Note_off_c, 2, 56, 110
3, 45310, Note_on_c, 2, 54, 106
3, 45690, Note_on_c, 2, 56, 90
3, 45694, Note_off_c, 2, 54, 106
3, 45882, Note_off_c, 2, 56, 90
3, 45895, Note_on_c, 2, 54, 90
3, 46073, Note_on_c, 2, 47, 100
3, 46087, Note_off_c, 2, 54, 90
3, 46444, Note_off_c, 2, 47, 100
3, 46456, Note_on_c, 2, 51, 90
3, 46840, Note_off_c, 2, 51, 90
3, 46853, Note_on_c, 2, 54, 106
3, 47223, Note_on_c, 2, 56, 90
3, 47237, Note_off_c, 2, 54, 106
3, 47605, Note_on_c, 2, 57, 90
3, 47607, Note_off_c, 2, 56, 90
3, 47773, Note_off_c, 2, 57, 90
3, 47818, Note_on_c, 2, 57, 91
3, 48004, Note_on_c, 2, 56, 91
3, 48010, Note_off_c, 2, 57, 91
3, 48376, Note_on_c, 2, 54, 106
3, 48391, Note_off_c, 2, 56, 91
3, 48544, Note_off_c, 2, 54, 106
3, 48572, Note_on_c, 2, 54, 90
3, 48764, Note_off_c, 2, 54, 90
3, 48764, Note_on_c, 2, 56, 90
3, 48951, Note_on_c, 2, 54, 90
3, 48956, Note_off_c, 2, 56, 90
3, 49143, Note_off_c, 2, 54, 90
3, 49160, Note_on_c, 2, 47, 91
3, 49528, Note_off_c, 2, 47, 91
3, 49544, Note_on_c, 2, 51, 90
3, 49914, Note_on_c, 2, 54, 106
3, 49928, Note_off_c, 2, 51, 90
3, 50298, Note_off_c, 2, 54, 106
3, 50314, Note_on_c, 2, 56, 90
3, 50680, Note_on_c, 2, 57, 91
3, 50698, Note_off_c, 2, 56, 90
3, 51064, Note_off_c, 2, 57, 91
3, 51077, Note_on_c, 2, 56, 91
3, 51448, Note_on_c, 2, 54, 106
3, 51468, Note_off_c, 2, 56, 91
3, 51832, Note_off_c, 2, 54, 106
3, 51839, Note_on_c, 2, 56, 90
3, 52222, Note_on_c, 2, 54, 90
3, 52223, Note_off_c, 2, 56, 90
3, 52390, Note_off_c, 2, 54, 90
3, 52418, Note_on_c, 2, 54, 90
3, 52610, Note_off_c, 2, 54, 90
3, 52611, Note_on_c, 2, 46, 91
3, 52990, Note_on_c, 2, 47, 106
3, 52995, Note_off_c, 2, 46, 91
3, 53367, Note_on_c, 2, 48, 90
3, 53374, Note_off_c, 2, 47, 106
3, 53751, Note_off_c, 2, 48, 90
3, 53754, Note_on_c, 2, 49, 90
3, 54138, Note_off_c, 2, 49, 90
3, 54138, Note_on_c, 2, 51, 90
3, 54522, Note_off_c, 2, 51, 90
3, 54522, Note_on_c, 2, 52, 106
3, 54904, Note_on_c, 2, 54, 90
3, 54906, Note_off_c, 2, 52, 106
3, 55288, Note_off_c, 2, 54, 90
3, 55296, Note_on_c, 2, 47, 90
3, 55464, Note_off_c, 2, 47, 90
3, 55486, Note_on_c, 2, 47, 100
3, 55668, Note_on_c, 2, 51, 91
3, 55678, Note_off_c, 2, 47, 100
3, 56052, Note_off_c, 2, 51, 91
3, 56061, Note_on_c, 2, 54, 106
3, 56445, Note_off_c, 2, 54, 106
3, 56454, Note_on_c, 2, 56, 90
3, 56790, Note_off_c, 2, 56, 90
3, 56842, Note_on_c, 2, 57, 91
3, 57209, Note_on_c, 2, 56, 90
3, 57226, Note_off_c, 2, 57, 91
3, 57590, Note_off_c, 2, 56, 90
3, 57592, Note_on_c, 2, 54, 106
3, 57760, Note_off_c, 2, 54, 106
3, 57787, Note_on_c, 2, 54, 90
3, 57973, Note_off_c, 2, 54, 90
3, 57981, Note_on_c, 2, 56, 90
3, 58173, Note_off_c, 2, 56, 90
3, 58184, Note_on_c, 2, 54, 90
3, 58368, Note_on_c, 2, 47, 91
3, 58376, Note_off_c, 2, 54, 90
3, 58743, Note_on_c, 2, 51, 90
3, 58760, Note_off_c, 2, 47, 91
3, 59127, Note_off_c, 2, 51, 90
3, 59143, Note_on_c, 2, 52, 106
3, 59515, Note_on_c, 2, 53, 90
3, 59527, Note_off_c, 2, 52, 106
3, 59899, Note_off_c, 2, 53, 90
3, 59910, Note_on_c, 2, 54, 90
3, 60292, Note_on_c, 2, 56, 91
3, 60294, Note_off_c, 2, 54, 90
3, 60660, Note_on_c, 2, 57, 106
3, 60676, Note_off_c, 2, 56, 91
3, 61044, Note_off_c, 2, 57, 106
3, 61055, Note_on_c, 2, 58, 110
3, 61246, Note_on_c, 2, 59, 90
3, 61247, Note_off_c, 2, 58, 110
3, 61390, Note_off_c, 2, 59, 90
3, 61430, Note_on_c, 2, 59, 90
3, 61814, Note_off_c, 2, 59, 90
3, 61827, Note_on_c, 2, 57, 91
3, 62204, Note_on_c, 2, 56, 106
3, 62208, Note_off_c, 2, 57, 91
3, 62589, Note_on_c, 2, 54, 90
3, 62592, Note_off_c, 2, 56, 106
3, 62969, Note_on_c, 2, 47, 100
3, 62973, Note_off_c, 2, 54, 90
3, 63137, Note_off_c, 2, 47, 100
3, 63167, Note_on_c, 2, 47, 110
3, 63352, Note_on_c, 2, 49, 91
3, 63359, Note_off_c, 2, 47, 110
3, 63736, Note_off_c, 2, 49, 91
3, 63749, Note_on_c, 2, 50, 106
3, 64132, Note_on_c, 2, 51, 90
3, 64134, Note_off_c, 2, 50, 106
3, 64511, Note_on_c, 2, 52, 100
3, 64516, Note_off_c, 2, 51, 90
3, 64887, Note_on_c, 2, 44, 90
3, 64895, Note_off_c, 2, 52, 100
3, 65271, Note_off_c, 2, 44, 90
3, 65284, Note_on_c, 2, 45, 106
3, 65668, Note_off_c, 2, 45, 106
3, 65672, Note_on_c, 2, 46, 90
3, 66042, Note_on_c, 2, 47, 91
3, 66056, Note_off_c, 2, 46, 90
3, 66426, Note_off_c, 2, 47, 91
3, 66440, Note_on_c, 2, 49, 90
3, 66806, Note_on_c, 2, 50, 106
3, 66819, Note_off_c, 2, 49, 90
3, 67190, Note_off_c, 2, 50, 106
3, 67197, Note_on_c, 2, 46, 100
3, 67579, Note_on_c, 2, 47, 100
3, 67581, Note_off_c, 2, 46, 100
3, 67963, Note_off_c, 2, 47, 100
3, 67964, Note_on_c, 2, 51, 90
3, 68345, Note_on_c, 2, 52, 106
3, 68348, Note_off_c, 2, 51, 90
3, 68729, Note_off_c, 2, 52, 106
3, 68736, Note_on_c, 2, 53, 90
3, 69119, Note_on_c, 2, 54, 91
3, 69120, Note_off_c, 2, 53, 90
3, 69503, Note_off_c, 2, 54, 91
3, 69504, Note_on_c, 2, 56, 90
3, 69884, Note_off_c, 2, 56, 90
3, 69889, Note_on_c, 2, 57, 106
3, 70268, Note_on_c, 2, 53, 90
3, 70269, Note_off_c, 2, 57, 106
3, 70652, Note_off_c, 2, 53, 90
3, 70656, Note_on_c, 2, 54, 90
3, 71040, Note_off_c, 2, 54, 90
3, 71046, Note_on_c, 2, 46, 90
3, 71430, Note_off_c, 2, 46, 90
3, 71432, Note_on_c, 2, 49, 106
3, 71600, Note_off_c, 2, 49, 106
3, 71608, Note_on_c, 2, 49, 90
3, 71800, Note_off_c, 2, 49, 90
3, 71813, Note_on_c, 2, 51, 90
3, 72197, Note_off_c, 2, 51, 90
3, 72200, Note_on_c, 2, 54, 90
3, 72564, Note_on_c, 2, 52, 90
3, 72584, Note_off_c, 2, 54, 90
3, 72948, Note_off_c, 2, 52, 90
3, 72956, Note_on_c, 2, 51, 106
3, 73334, Note_on_c, 2, 49, 90
3, 73344, Note_off_c, 2, 51, 106
3, 73718, Note_off_c, 2, 49, 90
3, 73726, Note_on_c, 2, 47, 100
3, 74110, Note_off_c, 2, 47, 100
3, 74118, Note_on_c, 2, 51, 90
3, 74492, Note_on_c, 2, 52, 106
3, 74506, Note_off_c, 2, 51, 90
3, 74872, Note_on_c, 2, 53, 90
3, 74876, Note_off_c, 2, 52, 106
3, 75256, Note_off_c, 2, 53, 90
3, 75258, Note_on_c, 2, 54, 114
3, 75426, Note_off_c, 2, 54, 114
3, 75450, Note_on_c, 2, 54, 90
3, 75640, Note_on_c, 2, 56, 90
3, 75642, Note_off_c, 2, 54, 90
3, 76028, Note_off_c, 2, 56, 90
3, 76041, Note_on_c, 2, 57, 106
3, 76410, Note_on_c, 2, 58, 90
3, 76425, Note_off_c, 2, 57, 106
3, 76794, Note_off_c, 2, 58, 90
3, 76805, Note_on_c, 2, 47, 100
3, 77184, Note_on_c, 2, 51, 90
3, 77189, Note_off_c, 2, 47, 100
3, 77568, Note_off_c, 2, 51, 90
3, 77577, Note_on_c, 2, 52, 106
3, 77960, Note_on_c, 2, 53, 90
3, 77961, Note_off_c, 2, 52, 106
3, 78343, Note_on_c, 2, 54, 100
3, 78344, Note_off_c, 2, 53, 90
3, 78725, Note_on_c, 2, 56, 90
3, 78727, Note_off_c, 2, 54, 100
3, 79096, Note_on_c, 2, 57, 106
3, 79109, Note_off_c, 2, 56, 90
3, 79480, Note_off_c, 2, 57, 106
3, 79480, Note_on_c, 2, 58, 100
3, 79648, Note_off_c, 2, 58, 100
3, 79686, Note_on_c, 2, 58, 110
3, 79866, Note_on_c, 2, 59, 90
3, 79878, Note_off_c, 2, 58, 110
3, 80250, Note_off_c, 2, 59, 90
3, 80252, Note_on_c, 2, 57, 90
3, 80630, Note_on_c, 2, 56, 106
3, 80636, Note_off_c, 2, 57, 90
3, 81013, Note_on_c, 2, 54, 90
3, 81017, Note_off_c, 2, 56, 106
3, 81181, Note_off_c, 2, 54, 90
3, 81214, Note_on_c, 2, 54, 110
3, 81406, Note_off_c, 2, 54, 110
3, 81416, Note_on_c, 2, 47, 100
3, 81791, Note_on_c, 2, 49, 91
3, 81803, Note_off_c, 2, 47, 100
3, 82169, Note_on_c, 2, 50, 106
3, 82182, Note_off_c, 2, 49, 91
3, 82559, Note_on_c, 2, 51, 90
3, 82574, Note_off_c, 2, 50, 106
3, 82943, Note_off_c, 2, 51, 90
3, 82951, Note_on_c, 2, 52, 100
3, 83326, Note_on_c, 2, 56, 90
3, 83338, Note_off_c, 2, 52, 100
3, 83704, Note_on_c, 2, 57, 106
3, 83710, Note_off_c, 2, 56, 90
3, 84088, Note_off_c, 2, 57, 106
3, 84088, Note_on_c, 2, 58, 90
3, 84472, Note_off_c, 2, 58, 90
3, 84490, Note_on_c, 2, 59, 91
3, 84866, Note_on_c, 2, 61, 90
3, 84874, Note_off_c, 2, 59, 91
3, 85239, Note_on_c, 2, 62, 106
3, 85244, Note_off_c, 2, 61, 90
3, 85623, Note_off_c, 2, 62, 106
3, 85632, Note_on_c, 2, 64, 90
3, 85824, Note_off_c, 2, 64, 90
3, 85828, Note_on_c, 2, 62, 90
3, 86005, Note_on_c, 2, 59, 91
3, 86020, Note_off_c, 2, 62, 90
3, 86389, Note_off_c, 2, 59, 91
3, 86407, Note_on_c, 2, 57, 90
3, 86772, Note_on_c, 2, 56, 106
3, 86791, Note_off_c, 2, 57, 90
3, 87156, Note_off_c, 2, 56, 106
3, 87171, Note_on_c, 2, 54, 100
3, 87339, Note_off_c, 2, 54, 100
3, 87362, Note_on_c, 2, 54, 90
3, 87551, Note_on_c, 2, 47, 91
3, 87554, Note_off_c, 2, 54, 90
3, 87930, Note_on_c, 2, 49, 90
3, 87935, Note_off_c, 2, 47, 91
3, 88312, Note_on_c, 2, 50, 106
3, 88319, Note_off_c, 2, 49, 90
3, 88693, Note_on_c, 2, 51, 90
3, 88696, Note_off_c, 2, 50, 106
3, 89077, Note_off_c, 2, 51, 90
3, 89080, Note_on_c, 2, 54, 100
3, 89409, Note_off_c, 2, 54, 100
3, 89464, Note_on_c, 2, 54, 91
3, 89800, Note_off_c, 2, 54, 91
3, 89860, Note_on_c, 2, 54, 106
3, 90048, Note_on_c, 2, 52, 90
3, 90053, Note_off_c, 2, 54, 106
3, 90240, Note_off_c, 2, 52, 90
3, 90243, Note_on_c, 2, 49, 91
3, 90411, Note_off_c, 2, 49, 91
3, 90424, Note_on_c, 2, 54, 108
3, 90956, Note_off_c, 2, 54, 108
3, 91007, Note_on_c, 2, 54, 91
3, 91343, Note_off_c, 2, 54, 91
3, 91393, Note_on_c, 2, 54, 106
3, 91585, Note_off_c, 2, 54, 106
3, 91592, Note_on_c, 2, 52, 90
3, 91774, Note_on_c, 2, 49, 100
3, 91784, Note_off_c, 2, 52, 90
3, 92134, Note_off_c, 2, 49, 100
3, 92156, Note_on_c, 2, 54, 117
3, 92300, Note_off_c, 2, 54, 117
3, 92361, Note_on_c, 2, 54, 90
3, 92505, Note_off_c, 2, 54, 90
3, 92532, Note_on_c, 2, 54, 90
3, 92676, Note_off_c, 2, 54, 90
3, 92724, Note_on_c, 2, 54, 90
3, 92868, Note_off_c, 2, 54, 90
3, 92916, Note_on_c, 2, 54, 106
3, 93100, Note_off_c, 2, 54, 106
3, 93111, Note_on_c, 2, 52, 90
3, 93303, Note_off_c, 2, 52, 90
3, 93316, Note_on_c, 2, 49, 90
3, 93697, Note_on_c, 2, 54, 108
3, 93700, Note_off_c, 2, 49, 90
3, 93841, Note_off_c, 2, 54, 108
3, 93890, Note_on_c, 2, 54, 90
3, 94034, Note_off_c, 2, 54, 90
3, 94084, Note_on_c, 2, 54, 90
3, 94228, Note_off_c, 2, 54, 90
3, 94266, Note_on_c, 2, 54, 90
3, 94410, Note_off_c, 2, 54, 90
3, 94456, Note_on_c, 2, 54, 106
3, 94654, Note_off_c, 2, 54, 106
3, 94665, Note_on_c, 2, 52, 90
3, 94857, Note_on_c, 2, 49, 91
3, 94872, Note_off_c, 2, 52, 90
3, 95045, Note_on_c, 2, 54, 114
3, 95049, Note_off_c, 2, 49, 91
3, 95372, Note_off_c, 2, 54, 114
3, 95416, Note_on_c, 2, 54, 90
3, 95560, Note_off_c, 2, 54, 90
3, 95610, Note_on_c, 2, 54, 90
3, 95754, Note_off_c, 2, 54, 90
3, 95804, Note_on_c, 2, 54, 90
3, 95948, Note_off_c, 2, 54, 90
3, 95995, Note_on_c, 2, 54, 106
3, 96200, Note_on_c, 2, 52, 90
3, 96210, Note_off_c, 2, 54, 106
3, 96382, Note_on_c, 2, 49, 90
3, 96386, Note_off_c, 2, 52, 90
3, 96574, Note_off_c, 2, 49, 90
3, 96578, Note_on_c, 2, 54, 111
3, 96887, Note_off_c, 2, 54, 111
3, 96963, Note_on_c, 2, 54, 90
3, 97107, Note_off_c, 2, 54, 90
3, 97144, Note_on_c, 2, 54, 91
3, 97288, Note_off_c, 2, 54, 91
3, 97346, Note_on_c, 2, 54, 90
3, 97490, Note_off_c, 2, 54, 90
3, 97539, Note_on_c, 2, 54, 106
3, 97718, Note_on_c, 2, 52, 90
3, 97727, Note_off_c, 2, 54, 106
3, 97910, Note_off_c, 2, 52, 90
3, 97924, Note_on_c, 2, 49, 91
3, 98111, Note_on_c, 2, 54, 117
3, 98124, Note_off_c, 2, 49, 91
3, 98447, Note_off_c, 2, 54, 117
3, 98502, Note_on_c, 2, 54, 90
3, 98646, Note_off_c, 2, 54, 90
3, 98680, Note_on_c, 2, 54, 90
3, 98824, Note_off_c, 2, 54, 90
3, 98887, Note_on_c, 2, 54, 90
3, 99031, Note_off_c, 2, 54, 90
3, 99081, Note_on_c, 2, 54, 106
3, 99225, Note_off_c, 2, 54, 106
3, 99256, Note_on_c, 2, 54, 90
3, 99400, Note_off_c, 2, 54, 90
3, 99463, Note_on_c, 2, 54, 90
3, 99607, Note_off_c, 2, 54, 90
3, 99644, Note_on_c, 2, 54, 90
3, 99788, Note_off_c, 2, 54, 90
3, 99848, Note_on_c, 2, 54, 106
3, 99992, Note_off_c, 2, 54, 106
3, 100032, Note_on_c, 2, 54, 90
3, 100224, Note_off_c, 2, 54, 90
3, 100228, Note_on_c, 2, 52, 110
3, 100600, Note_on_c, 2, 51, 106
3, 100612, Note_off_c, 2, 52, 110
3, 100984, Note_off_c, 2, 51, 106
3, 100993, Note_on_c, 2, 49, 110
3, 101366, Note_on_c, 2, 47, 90
3, 101377, Note_off_c, 2, 49, 110
3, 101534, Note_off_c, 2, 47, 90
3, 101572, Note_on_c, 2, 47, 90
3, 101764, Note_off_c, 2, 47, 90
3, 101767, Note_on_c, 2, 51, 90
3, 102144, Note_on_c, 2, 54, 106
3, 102153, Note_off_c, 2, 51, 90
3, 102312, Note_off_c, 2, 54, 106
3, 102344, Note_on_c, 2, 54, 90
3, 102533, Note_on_c, 2, 56, 90
3, 102536, Note_off_c, 2, 54, 90
3, 102725, Note_off_c, 2, 56, 90
3, 102725, Note_on_c, 2, 54, 110
3, 102900, Note_on_c, 2, 57, 100
3, 102917, Note_off_c, 2, 54, 110
3, 103068, Note_off_c, 2, 57, 100
3, 103104, Note_on_c, 2, 57, 91
3, 103295, Note_on_c, 2, 56, 91
3, 103300, Note_off_c, 2, 57, 91
3, 103679, Note_off_c, 2, 56, 91
3, 103688, Note_on_c, 2, 54, 106
3, 103856, Note_off_c, 2, 54, 106
3, 103871, Note_on_c, 2, 54, 90
3, 104063, Note_off_c, 2, 54, 90
3, 104072, Note_on_c, 2, 56, 90
3, 104248, Note_on_c, 2, 54, 90
3, 104264, Note_off_c, 2, 56, 90
3, 104443, Note_off_c, 2, 54, 90
3, 104450, Note_on_c, 2, 47, 110
3, 104834, Note_off_c, 2, 47, 110
3, 104840, Note_on_c, 2, 51, 90
3, 105212, Note_on_c, 2, 54, 106
3, 105224, Note_off_c, 2, 51, 90
3, 105596, Note_off_c, 2, 54, 106
3, 105599, Note_on_c, 2, 56, 90
3, 105977, Note_on_c, 2, 57, 90
3, 105983, Note_off_c, 2, 56, 90
3, 106145, Note_off_c, 2, 57, 90
3, 106166, Note_on_c, 2, 57, 91
3, 106358, Note_off_c, 2, 57, 91
3, 106358, Note_on_c, 2, 56, 91
3, 106744, Note_off_c, 2, 56, 91
3, 106748, Note_on_c, 2, 54, 106
3, 106916, Note_off_c, 2, 54, 106
3, 106943, Note_on_c, 2, 54, 90
3, 107132, Note_on_c, 2, 56, 90
3, 107135, Note_off_c, 2, 54, 90
3, 107320, Note_on_c, 2, 54, 90
3, 107324, Note_off_c, 2, 56, 90
3, 107512, Note_off_c, 2, 54, 90
3, 107517, Note_on_c, 2, 47, 91
3, 107886, Note_off_c, 2, 47, 91
3, 107904, Note_on_c, 2, 51, 90
3, 108280, Note_on_c, 2, 54, 106
3, 108288, Note_off_c, 2, 51, 90
3, 108664, Note_off_c, 2, 54, 106
3, 108668, Note_on_c, 2, 56, 90
3, 109052, Note_off_c, 2, 56, 90
3, 109061, Note_on_c, 2, 57, 91
3, 109432, Note_on_c, 2, 56, 91
3, 109445, Note_off_c, 2, 57, 91
3, 109824, Note_off_c, 2, 56, 91
3, 109830, Note_on_c, 2, 54, 106
3, 110199, Note_on_c, 2, 56, 90
3, 110214, Note_off_c, 2, 54, 106
3, 110582, Note_on_c, 2, 54, 90
3, 110583, Note_off_c, 2, 56, 90
3, 110750, Note_off_c, 2, 54, 90
3, 110793, Note_on_c, 2, 54, 90
3, 110966, Note_on_c, 2, 46, 91
3, 110985, Note_off_c, 2, 54, 90
3, 111350, Note_off_c, 2, 46, 91
3, 111352, Note_on_c, 2, 49, 106
3, 111520, Note_off_c, 2, 49, 106
3, 111550, Note_on_c, 2, 49, 110
3, 111742, Note_off_c, 2, 49, 110
3, 111748, Note_on_c, 2, 51, 90
3, 112116, Note_on_c, 2, 54, 90
3, 112132, Note_off_c, 2, 51, 90
3, 112500, Note_off_c, 2, 54, 90
3, 112503, Note_on_c, 2, 46, 90
3, 112887, Note_off_c, 2, 46, 90
3, 112887, Note_on_c, 2, 49, 106
3, 113271, Note_off_c, 2, 49, 106
3, 113280, Note_on_c, 2, 48, 90
3, 113656, Note_on_c, 2, 47, 90
3, 113664, Note_off_c, 2, 48, 90
3, 114040, Note_off_c, 2, 47, 90
3, 114056, Note_on_c, 2, 51, 91
3, 114424, Note_on_c, 2, 54, 106
3, 114440, Note_off_c, 2, 51, 91
3, 114808, Note_off_c, 2, 54, 106
3, 114816, Note_on_c, 2, 56, 90
3, 115200, Note_off_c, 2, 56, 90
3, 115204, Note_on_c, 2, 57, 91
3, 115588, Note_off_c, 2, 57, 91
3, 115588, Note_on_c, 2, 56, 90
3, 115969, Note_off_c, 2, 56, 90
3, 115976, Note_on_c, 2, 54, 106
3, 116343, Note_on_c, 2, 56, 90
3, 116360, Note_off_c, 2, 54, 106
3, 116535, Note_off_c, 2, 56, 90
3, 116537, Note_on_c, 2, 54, 90
3, 116729, Note_off_c, 2, 54, 90
3, 116742, Note_on_c, 2, 47, 110
3, 117115, Note_on_c, 2, 51, 90
3, 117126, Note_off_c, 2, 47, 110
3, 117499, Note_off_c, 2, 51, 90
3, 117500, Note_on_c, 2, 54, 106
3, 117887, Note_on_c, 2, 56, 90
3, 117891, Note_off_c, 2, 54, 106
3, 118271, Note_off_c, 2, 56, 90
3, 118278, Note_on_c, 2, 57, 90
3, 118651, Note_on_c, 2, 56, 91
3, 118662, Note_off_c, 2, 57, 90
3, 119031, Note_on_c, 2, 54, 106
3, 119035, Note_off_c, 2, 56, 91
3, 119407, Note_off_c, 2, 54, 106
3, 119427, Note_on_c, 2, 56, 90
3, 119619, Note_off_c, 2, 56, 90
3, 119621, Note_on_c, 2, 54, 91
3, 119800, Note_on_c, 2, 47, 100
3, 119813, Note_off_c, 2, 54, 91
3, 120184, Note_off_c, 2, 47, 100
3, 120200, Note_on_c, 2, 51, 90
3, 120566, Note_on_c, 2, 54, 106
3, 120584, Note_off_c, 2, 51, 90
3, 120950, Note_off_c, 2, 54, 106
3, 120959, Note_on_c, 2, 56, 90
3, 121336, Note_on_c, 2, 57, 90
3, 121343, Note_off_c, 2, 56, 90
3, 121720, Note_off_c, 2, 57, 90
3, 121724, Note_on_c, 2, 56, 91
3, 122108, Note_off_c, 2, 56, 91
3, 122122, Note_on_c, 2, 54, 106
3, 122498, Note_on_c, 2, 56, 90
3, 122506, Note_off_c, 2, 54, 106
3, 122683, Note_off_c, 2, 56, 90
3, 122687, Note_on_c, 2, 54, 90
3, 122872, Note_on_c, 2, 52, 91
3, 122880, Note_off_c, 2, 54, 90
3, 123040, Note_off_c, 2, 52, 91
3, 123072, Note_on_c, 2, 52, 110
3, 123264, Note_off_c, 2, 52, 110
3, 123272, Note_on_c, 2, 56, 90
3, 123640, Note_on_c, 2, 59, 106
3, 123656, Note_off_c, 2, 56, 90
3, 124024, Note_off_c, 2, 59, 106
3, 124033, Note_on_c, 2, 61, 90
3, 124421, Note_off_c, 2, 61, 90
3, 124421, Note_on_c, 2, 62, 91
3, 124803, Note_on_c, 2, 61, 90
3, 124806, Note_off_c, 2, 62, 91
3, 125187, Note_off_c, 2, 61, 90
3, 125191, Note_on_c, 2, 59, 106
3, 125573, Note_on_c, 2, 61, 90
3, 125575, Note_off_c, 2, 59, 106
3, 125748, Note_on_c, 2, 59, 90
3, 125765, Note_off_c, 2, 61, 90
3, 125940, Note_off_c, 2, 59, 90
3, 125955, Note_on_c, 2, 47, 91
3, 126334, Note_on_c, 2, 51, 90
3, 126341, Note_off_c, 2, 47, 91
3, 126716, Note_on_c, 2, 54, 106
3, 126728, Note_off_c, 2, 51, 90
3, 127100, Note_off_c, 2, 54, 106
3, 127104, Note_on_c, 2, 56, 90
3, 127488, Note_off_c, 2, 56, 90
3, 127494, Note_on_c, 2, 57, 90
3, 127863, Note_on_c, 2, 56, 90
3, 127878, Note_off_c, 2, 57, 90
3, 128247, Note_off_c, 2, 56, 90
3, 128251, Note_on_c, 2, 54, 106
3, 128631, Note_on_c, 2, 56, 90
3, 128635, Note_off_c, 2, 54, 106
3, 129015, Note_off_c, 2, 56, 90
3, 129034, Note_on_c, 2, 54, 91
3, 129410, Note_on_c, 2, 46, 100
3, 129418, Note_off_c, 2, 54, 91
3, 129794, Note_off_c, 2, 46, 100
3, 129801, Note_on_c, 2, 47, 106
3, 130177, Note_on_c, 2, 48, 90
3, 130185, Note_off_c, 2, 47, 106
3, 130548, Note_on_c, 2, 49, 90
3, 130561, Note_off_c, 2, 48, 90
3, 130932, Note_off_c, 2, 49, 90
3, 130937, Note_on_c, 2, 51, 92
3, 131321, Note_off_c, 2, 51, 92
3, 131331, Note_on_c, 2, 52, 106
3, 131715, Note_off_c, 2, 52, 106
3, 131720, Note_on_c, 2, 53, 90
3, 131895, Note_on_c, 2, 54, 110
3, 131912, Note_off_c, 2, 53, 90
3, 132087, Note_off_c, 2, 54, 110
3, 132101, Note_on_c, 2, 47, 100
3, 132269, Note_off_c, 2, 47, 100
3, 132291, Note_on_c, 2, 47, 110
3, 132483, Note_off_c, 2, 47, 110
3, 132484, Note_on_c, 2, 51, 90
3, 132868, Note_off_c, 2, 51, 90
3, 132873, Note_on_c, 2, 54, 106
3, 133243, Note_on_c, 2, 56, 92
3, 133257, Note_off_c, 2, 54, 106
3, 133627, Note_off_c, 2, 56, 92
3, 133628, Note_on_c, 2, 57, 100
3, 134012, Note_off_c, 2, 57, 100
3, 134012, Note_on_c, 2, 56, 90
3, 134180, Note_off_c, 2, 56, 90
3, 134211, Note_on_c, 2, 56, 110
3, 134399, Note_on_c, 2, 54, 106
3, 134403, Note_off_c, 2, 56, 110
3, 134783, Note_off_c, 2, 54, 106
3, 134789, Note_on_c, 2, 56, 90
3, 134972, Note_on_c, 2, 54, 90
3, 134981, Note_off_c, 2, 56, 90
3, 135164, Note_off_c, 2, 54, 90
3, 135170, Note_on_c, 2, 47, 110
3, 135548, Note_on_c, 2, 51, 90
3, 135554, Note_off_c, 2, 47, 110
3, 135932, Note_off_c, 2, 51, 90
3, 135936, Note_on_c, 2, 54, 106
3, 136320, Note_off_c, 2, 54, 106
3, 136320, Note_on_c, 2, 56, 90
3, 136699, Note_on_c, 2, 57, 90
3, 136704, Note_off_c, 2, 56, 90
3, 136867, Note_off_c, 2, 57, 90
3, 136900, Note_on_c, 2, 57, 91
3, 137092, Note_off_c, 2, 57, 91
3, 137096, Note_on_c, 2, 56, 91
3, 137482, Note_on_c, 2, 54, 106
3, 137483, Note_off_c, 2, 56, 91
3, 137650, Note_off_c, 2, 54, 106
3, 137657, Note_on_c, 2, 54, 90
3, 137849, Note_off_c, 2, 54, 90
3, 137857, Note_on_c, 2, 56, 90
3, 138036, Note_on_c, 2, 54, 90
3, 138049, Note_off_c, 2, 56, 90
3, 138228, Note_off_c, 2, 54, 90
3, 138248, Note_on_c, 2, 47, 91
3, 138617, Note_off_c, 2, 47, 91
3, 138628, Note_on_c, 2, 51, 90
3, 139012, Note_off_c, 2, 51, 90
3, 139014, Note_on_c, 2, 54, 106
3, 139392, Note_on_c, 2, 56, 90
3, 139398, Note_off_c, 2, 54, 106
3, 139767, Note_on_c, 2, 57, 91
3, 139776, Note_off_c, 2, 56, 90
3, 140151, Note_off_c, 2, 57, 91
3, 140158, Note_on_c, 2, 56, 91
3, 140536, Note_on_c, 2, 54, 106
3, 140549, Note_off_c, 2, 56, 91
3, 140920, Note_off_c, 2, 54, 106
3, 140933, Note_on_c, 2, 56, 90
3, 141301, Note_on_c, 2, 54, 90
3, 141317, Note_off_c, 2, 56, 90
3, 141469, Note_off_c, 2, 54, 90
3, 141510, Note_on_c, 2, 54, 90
3, 141702, Note_off_c, 2, 54, 90
3, 141704, Note_on_c, 2, 46, 91
3, 142083, Note_on_c, 2, 49, 106
3, 142088, Note_off_c, 2, 46, 91
3, 142251, Note_off_c, 2, 49, 106
3, 142282, Note_on_c, 2, 49, 110
3, 142468, Note_on_c, 2, 51, 90
3, 142474, Note_off_c, 2, 49, 110
3, 142852, Note_off_c, 2, 51, 90
3, 142856, Note_on_c, 2, 54, 90
3, 143222, Note_on_c, 2, 46, 90
3, 143240, Note_off_c, 2, 54, 90
3, 143606, Note_off_c, 2, 46, 90
3, 143624, Note_on_c, 2, 49, 106
3, 143995, Note_on_c, 2, 48, 90
3, 144008, Note_off_c, 2, 49, 106
3, 144377, Note_on_c, 2, 47, 90
3, 144379, Note_off_c, 2, 48, 90
3, 144761, Note_off_c, 2, 47, 90
3, 144771, Note_on_c, 2, 51, 91
3, 145152, Note_on_c, 2, 54, 106
3, 145155, Note_off_c, 2, 51, 91
3, 145536, Note_off_c, 2, 54, 106
3, 145540, Note_on_c, 2, 56, 90
3, 145924, Note_off_c, 2, 56, 90
3, 145926, Note_on_c, 2, 57, 91
3, 146298, Note_on_c, 2, 56, 90
3, 146310, Note_off_c, 2, 57, 91
3, 146679, Note_off_c, 2, 56, 90
3, 146684, Note_on_c, 2, 54, 106
3, 147068, Note_off_c, 2, 54, 106
3, 147080, Note_on_c, 2, 56, 90
3, 147253, Note_on_c, 2, 54, 90
3, 147272, Note_off_c, 2, 56, 90
3, 147445, Note_off_c, 2, 54, 90
3, 147465, Note_on_c, 2, 47, 110
3, 147848, Note_on_c, 2, 51, 90
3, 147849, Note_off_c, 2, 47, 110
3, 148226, Note_on_c, 2, 54, 106
3, 148232, Note_off_c, 2, 51, 90
3, 148603, Note_on_c, 2, 56, 90
3, 148617, Note_off_c, 2, 54, 106
3, 148987, Note_off_c, 2, 56, 90
3, 148991, Note_on_c, 2, 57, 90
3, 149375, Note_off_c, 2, 57, 90
3, 149375, Note_on_c, 2, 56, 91
3, 149753, Note_on_c, 2, 54, 106
3, 149759, Note_off_c, 2, 56, 91
3, 150129, Note_off_c, 2, 54, 106
3, 150140, Note_on_c, 2, 56, 90
3, 150328, Note_on_c, 2, 54, 91
3, 150332, Note_off_c, 2, 56, 90
3, 150520, Note_off_c, 2, 54, 91
3, 150525, Note_on_c, 2, 47, 100
3, 150903, Note_on_c, 2, 51, 90
3, 150909, Note_off_c, 2, 47, 100
3, 151287, Note_off_c, 2, 51, 90
3, 151300, Note_on_c, 2, 54, 106
3, 151684, Note_off_c, 2, 54, 106
3, 151686, Note_on_c, 2, 56, 90
3, 152070, Note_off_c, 2, 56, 90
3, 152071, Note_on_c, 2, 57, 90
3, 152444, Note_on_c, 2, 56, 91
3, 152455, Note_off_c, 2, 57, 90
3, 152828, Note_off_c, 2, 56, 91
3, 152835, Note_on_c, 2, 54, 106
3, 153215, Note_on_c, 2, 56, 90
3, 153219, Note_off_c, 2, 54, 106
3, 153397, Note_on_c, 2, 54, 90
3, 153400, Note_off_c, 2, 56, 90
3, 153590, Note_off_c, 2, 54, 90
3, 153597, Note_on_c, 2, 52, 91
3, 153765, Note_off_c, 2, 52, 91
3, 153800, Note_on_c, 2, 52, 110
3, 153979, Note_on_c, 2, 56, 90
3, 153992, Note_off_c, 2, 52, 110
3, 154363, Note_off_c, 2, 56, 90
3, 154372, Note_on_c, 2, 59, 106
3, 154746, Note_on_c, 2, 61, 90
3, 154756, Note_off_c, 2, 59, 106
3, 155134, Note_off_c, 2, 61, 90
3, 155135, Note_on_c, 2, 62, 91
3, 155512, Note_on_c, 2, 61, 90
3, 155520, Note_off_c, 2, 62, 91
3, 155896, Note_off_c, 2, 61, 90
3, 155901, Note_on_c, 2, 59, 106
3, 156285, Note_off_c, 2, 59, 106
3, 156289, Note_on_c, 2, 61, 90
3, 156481, Note_off_c, 2, 61, 90
3, 156484, Note_on_c, 2, 59, 90
3, 156676, Note_off_c, 2, 59, 90
3, 156680, Note_on_c, 2, 47, 91
3, 157045, Note_on_c, 2, 51, 90
3, 157066, Note_off_c, 2, 47, 91
3, 157440, Note_off_c, 2, 51, 90
3, 157444, Note_on_c, 2, 54, 106
3, 157828, Note_off_c, 2, 54, 106
3, 157833, Note_on_c, 2, 56, 90
3, 158203, Note_on_c, 2, 57, 90
3, 158217, Note_off_c, 2, 56, 90
3, 158580, Note_on_c, 2, 56, 90
3, 158587, Note_off_c, 2, 57, 90
3, 158964, Note_off_c, 2, 56, 90
3, 158985, Note_on_c, 2, 54, 106
3, 159363, Note_on_c, 2, 56, 90
3, 159369, Note_off_c, 2, 54, 106
3, 159747, Note_off_c, 2, 56, 90
3, 159748, Note_on_c, 2, 54, 91
3, 160132, Note_off_c, 2, 54, 91
3, 160136, Note_on_c, 2, 46, 100
3, 160520, Note_off_c, 2, 46, 100
3, 160520, Note_on_c, 2, 47, 106
3, 160903, Note_on_c, 2, 48, 90
3, 160904, Note_off_c, 2, 47, 106
3, 161287, Note_off_c, 2, 48, 90
3, 161287, Note_on_c, 2, 49, 90
3, 161660, Note_on_c, 2, 51, 92
3, 161671, Note_off_c, 2, 49, 90
3, 162044, Note_off_c, 2, 51, 92
3, 162054, Note_on_c, 2, 52, 106
3, 162438, Note_off_c, 2, 52, 106
3, 162440, Note_on_c, 2, 53, 90
3, 162628, Note_on_c, 2, 54, 110
3, 162632, Note_off_c, 2, 53, 90
3, 162814, Note_on_c, 2, 47, 100
3, 162820, Note_off_c, 2, 54, 110
3, 162982, Note_off_c, 2, 47, 100
3, 163015, Note_on_c, 2, 47, 110
3, 163207, Note_off_c, 2, 47, 110
3, 163209, Note_on_c, 2, 51, 90
3, 163584, Note_on_c, 2, 54, 106
3, 163593, Note_off_c, 2, 51, 90
3, 163964, Note_on_c, 2, 56, 92
3, 163968, Note_off_c, 2, 54, 106
3, 164348, Note_off_c, 2, 56, 92
3, 164358, Note_on_c, 2, 57, 100
3, 164728, Note_on_c, 2, 56, 90
3, 164742, Note_off_c, 2, 57, 100
3, 164896, Note_off_c, 2, 56, 90
3, 164926, Note_on_c, 2, 56, 110
3, 165108, Note_on_c, 2, 54, 106
3, 165118, Note_off_c, 2, 56, 110
3, 165492, Note_off_c, 2, 54, 106
3, 165492, Note_on_c, 2, 56, 90
3, 165684, Note_off_c, 2, 56, 90
3, 165684, Note_on_c, 2, 54, 90
3, 165876, Note_off_c, 2, 54, 90
3, 165877, Note_on_c, 2, 47, 110
3, 166261, Note_off_c, 2, 47, 110
3, 166271, Note_on_c, 2, 51, 90
3, 166652, Note_on_c, 2, 54, 106
3, 166655, Note_off_c, 2, 51, 90
3, 167029, Note_on_c, 2, 56, 90
3, 167044, Note_off_c, 2, 54, 106
3, 167413, Note_off_c, 2, 56, 90
3, 167416, Note_on_c, 2, 57, 90
3, 167800, Note_off_c, 2, 57, 90
3, 167803, Note_on_c, 2, 56, 91
3, 168187, Note_off_c, 2, 56, 91
3, 168191, Note_on_c, 2, 54, 106
3, 168567, Note_off_c, 2, 54, 106
3, 168586, Note_on_c, 2, 56, 90
3, 168761, Note_on_c, 2, 54, 91
3, 168778, Note_off_c, 2, 56, 90
3, 168953, Note_off_c, 2, 54, 91
3, 168966, Note_on_c, 2, 47, 100
3, 169346, Note_on_c, 2, 51, 90
3, 169350, Note_off_c, 2, 47, 100
3, 169721, Note_on_c, 2, 54, 106
3, 169730, Note_off_c, 2, 51, 90
3, 170102, Note_on_c, 2, 56, 90
3, 170105, Note_off_c, 2, 54, 106
3, 170486, Note_off_c, 2, 56, 90
3, 170493, Note_on_c, 2, 57, 90
3, 170877, Note_off_c, 2, 57, 90
3, 170881, Note_on_c, 2, 56, 91
3, 171265, Note_off_c, 2, 56, 91
3, 171271, Note_on_c, 2, 54, 106
3, 171654, Note_on_c, 2, 56, 90
3, 171655, Note_off_c, 2, 54, 106
3, 171839, Note_off_c, 2, 56, 90
3, 171840, Note_on_c, 2, 54, 90
3, 172027, Note_on_c, 2, 52, 91
3, 172032, Note_off_c, 2, 54, 90
3, 172195, Note_off_c, 2, 52, 91
3, 172232, Note_on_c, 2, 52, 110
3, 172405, Note_on_c, 2, 56, 90
3, 172424, Note_off_c, 2, 52, 110
3, 172789, Note_off_c, 2, 56, 90
3, 172800, Note_on_c, 2, 59, 106
3, 173184, Note_off_c, 2, 59, 106
3, 173190, Note_on_c, 2, 61, 90
3, 173560, Note_on_c, 2, 62, 91
3, 173578, Note_off_c, 2, 61, 90
3, 173945, Note_off_c, 2, 62, 91
3, 173951, Note_on_c, 2, 61, 90
3, 174331, Note_on_c, 2, 59, 106
3, 174335, Note_off_c, 2, 61, 90
3, 174715, Note_off_c, 2, 59, 106
3, 174720, Note_on_c, 2, 61, 90
3, 174912, Note_off_c, 2, 61, 90
3, 174920, Note_on_c, 2, 59, 90
3, 175112, Note_off_c, 2, 59, 90
3, 175113, Note_on_c, 2, 47, 91
3, 175492, Note_on_c, 2, 51, 90
3, 175500, Note_off_c, 2, 47, 91
3, 175875, Note_on_c, 2, 54, 106
3, 175887, Note_off_c, 2, 51, 90
3, 176259, Note_off_c, 2, 54, 106
3, 176259, Note_on_c, 2, 56, 90
3, 176636, Note_on_c, 2, 57, 90
3, 176643, Note_off_c, 2, 56, 90
3, 177013, Note_on_c, 2, 56, 90
3, 177020, Note_off_c, 2, 57, 90
3, 177397, Note_off_c, 2, 56, 90
3, 177405, Note_on_c, 2, 54, 106
3, 177783, Note_on_c, 2, 56, 90
3, 177789, Note_off_c, 2, 54, 106
3, 178167, Note_off_c, 2, 56, 90
3, 178177, Note_on_c, 2, 54, 91
3, 178561, Note_off_c, 2, 54, 91
3, 178561, Note_on_c, 2, 46, 100
3, 178945, Note_off_c, 2, 46, 100
3, 178952, Note_on_c, 2, 47, 106
3, 179329, Note_on_c, 2, 48, 90
3, 179336, Note_off_c, 2, 47, 106
3, 179707, Note_on_c, 2, 49, 90
3, 179713, Note_off_c, 2, 48, 90
3, 180088, Note_on_c, 2, 51, 92
3, 180091, Note_off_c, 2, 49, 90
3, 180472, Note_off_c, 2, 51, 92
3, 180489, Note_on_c, 2, 52, 106
3, 180860, Note_on_c, 2, 53, 90
3, 180873, Note_off_c, 2, 52, 106
3, 181045, Note_on_c, 2, 54, 110
3, 181052, Note_off_c, 2, 53, 90
3, 181237, Note_off_c, 2, 54, 110
3, 181247, Note_on_c, 2, 47, 100
3, 181415, Note_off_c, 2, 47, 100
3, 181447, Note_on_c, 2, 47, 110
3, 181624, Note_on_c, 2, 51, 90
3, 181639, Note_off_c, 2, 47, 110
3, 182008, Note_off_c, 2, 51, 90
3, 182017, Note_on_c, 2, 54, 106
3, 182397, Note_on_c, 2, 56, 92
3, 182401, Note_off_c, 2, 54, 106
3, 182773, Note_on_c, 2, 57, 100
3, 182781, Note_off_c, 2, 56, 92
3, 183157, Note_off_c, 2, 57, 100
3, 183171, Note_on_c, 2, 56, 90
3, 183339, Note_off_c, 2, 56, 90
3, 183352, Note_on_c, 2, 56, 110
3, 183544, Note_off_c, 2, 56, 110
3, 183562, Note_on_c, 2, 54, 106
3, 183927, Note_on_c, 2, 56, 90
3, 183946, Note_off_c, 2, 54, 106
3, 184119, Note_off_c, 2, 56, 90
3, 184122, Note_on_c, 2, 54, 90
3, 184314, Note_off_c, 2, 54, 90
3, 184324, Note_on_c, 2, 47, 110
3, 184492, Note_off_c, 2, 47, 110
3, 184510, Note_on_c, 2, 47, 110
3, 184702, Note_off_c, 2, 47, 110
3, 184702, Note_on_c, 2, 51, 90
3, 185086, Note_off_c, 2, 51, 90
3, 185097, Note_on_c, 2, 54, 106
3, 185471, Note_on_c, 2, 56, 90
3, 185481, Note_off_c, 2, 54, 106
3, 185850, Note_on_c, 2, 57, 90
3, 185855, Note_off_c, 2, 56, 90
3, 186018, Note_off_c, 2, 57, 90
3, 186042, Note_on_c, 2, 57, 91
3, 186234, Note_off_c, 2, 57, 91
3, 186238, Note_on_c, 2, 56, 91
3, 186624, Note_off_c, 2, 56, 91
3, 186626, Note_on_c, 2, 54, 106
3, 186794, Note_off_c, 2, 54, 106
3, 186824, Note_on_c, 2, 54, 90
3, 186997, Note_on_c, 2, 56, 90
3, 187016, Note_off_c, 2, 54, 90
3, 187189, Note_off_c, 2, 56, 90
3, 187195, Note_on_c, 2, 54, 90
3, 187387, Note_off_c, 2, 54, 90
3, 187392, Note_on_c, 2, 47, 91
3, 187761, Note_off_c, 2, 47, 91
3, 187767, Note_on_c, 2, 51, 90
3, 188150, Note_on_c, 2, 54, 106
3, 188151, Note_off_c, 2, 51, 90
3, 188533, Note_on_c, 2, 56, 90
3, 188534, Note_off_c, 2, 54, 106
3, 188917, Note_off_c, 2, 56, 90
3, 188928, Note_on_c, 2, 57, 91
3, 189310, Note_on_c, 2, 56, 91
3, 189312, Note_off_c, 2, 57, 91
3, 189701, Note_off_c, 2, 56, 91
3, 189702, Note_on_c, 2, 54, 106
3, 189870, Note_off_c, 2, 54, 106
3, 189878, Note_on_c, 2, 54, 110
3, 190070, Note_off_c, 2, 54, 110
3, 190080, Note_on_c, 2, 56, 90
3, 190453, Note_on_c, 2, 54, 90
3, 190464, Note_off_c, 2, 56, 90
3, 190621, Note_off_c, 2, 54, 90
3, 190661, Note_on_c, 2, 54, 90
3, 190844, Note_on_c, 2, 46, 91
3, 190853, Note_off_c, 2, 54, 90
3, 191228, Note_off_c, 2, 46, 91
3, 191236, Note_on_c, 2, 49, 106
3, 191404, Note_off_c, 2, 49, 106
3, 191427, Note_on_c, 2, 49, 110
3, 191616, Note_on_c, 2, 51, 90
3, 191619, Note_off_c, 2, 49, 110
3, 191990, Note_on_c, 2, 54, 90
3, 192000, Note_off_c, 2, 51, 90
3, 192158, Note_off_c, 2, 54, 90
3, 192200, Note_on_c, 2, 54, 110
3, 192392, Note_off_c, 2, 54, 110
3, 192392, Note_on_c, 2, 46, 90
3, 192776, Note_off_c, 2, 46, 90
3, 192776, Note_on_c, 2, 49, 106
3, 193143, Note_on_c, 2, 48, 90
3, 193160, Note_off_c, 2, 49, 106
3, 193527, Note_off_c, 2, 48, 90
3, 193538, Note_on_c, 2, 47, 90
3, 193706, Note_off_c, 2, 47, 90
3, 193721, Note_on_c, 2, 47, 110
3, 193913, Note_off_c, 2, 47, 110
3, 193921, Note_on_c, 2, 51, 91
3, 194293, Note_on_c, 2, 54, 106
3, 194305, Note_off_c, 2, 51, 91
3, 194676, Note_on_c, 2, 56, 90
3, 194677, Note_off_c, 2, 54, 106
3, 195060, Note_off_c, 2, 56, 90
3, 195080, Note_on_c, 2, 59, 91
3, 195248, Note_off_c, 2, 59, 91
3, 195274, Note_on_c, 2, 59, 110
3, 195464, Note_on_c, 2, 56, 90
3, 195466, Note_off_c, 2, 59, 110
3, 195844, Note_off_c, 2, 56, 90
3, 195845, Note_on_c, 2, 54, 106
3, 196013, Note_off_c, 2, 54, 106
3, 196034, Note_on_c, 2, 54, 110
3, 196226, Note_off_c, 2, 54, 110
3, 196233, Note_on_c, 2, 51, 90
3, 196377, Note_off_c, 2, 51, 90
3, 196415, Note_on_c, 2, 51, 110
3, 196559, Note_off_c, 2, 51, 110
3, 196604, Note_on_c, 2, 47, 110
3, 196772, Note_off_c, 2, 47, 110
3, 196791, Note_on_c, 2, 47, 110
3, 196982, Note_on_c, 2, 51, 90
3, 196983, Note_off_c, 2, 47, 110
3, 197366, Note_off_c, 2, 51, 90
3, 197369, Note_on_c, 2, 54, 106
3, 197753, Note_off_c, 2, 54, 106
3, 197756, Note_on_c, 2, 56, 90
3, 198134, Note_on_c, 2, 57, 90
3, 198140, Note_off_c, 2, 56, 90
3, 198302, Note_off_c, 2, 57, 90
3, 198331, Note_on_c, 2, 57, 91
3, 198523, Note_off_c, 2, 57, 91
3, 198524, Note_on_c, 2, 56, 91
3, 198911, Note_off_c, 2, 56, 91
3, 198920, Note_on_c, 2, 54, 106
3, 199088, Note_off_c, 2, 54, 106
3, 199100, Note_on_c, 2, 54, 90
3, 199292, Note_off_c, 2, 54, 90
3, 199294, Note_on_c, 2, 56, 90
3, 199486, Note_off_c, 2, 56, 90
3, 199491, Note_on_c, 2, 54, 90
3, 199683, Note_off_c, 2, 54, 90
3, 199688, Note_on_c, 2, 47, 91
3, 200057, Note_off_c, 2, 47, 91
3, 200067, Note_on_c, 2, 51, 90
3, 200451, Note_off_c, 2, 51, 90
3, 200452, Note_on_c, 2, 54, 106
3, 200836, Note_off_c, 2, 54, 106
3, 200837, Note_on_c, 2, 56, 90
3, 201204, Note_on_c, 2, 57, 91
3, 201221, Note_off_c, 2, 56, 90
3, 201588, Note_off_c, 2, 57, 91
3, 201605, Note_on_c, 2, 56, 91
3, 201985, Note_on_c, 2, 54, 106
3, 201996, Note_off_c, 2, 56, 91
3, 202153, Note_off_c, 2, 54, 106
3, 202184, Note_on_c, 2, 54, 110
3, 202367, Note_on_c, 2, 56, 90
3, 202376, Note_off_c, 2, 54, 110
3, 202750, Note_on_c, 2, 54, 90
3, 202751, Note_off_c, 2, 56, 90
3, 202918, Note_off_c, 2, 54, 90
3, 202953, Note_on_c, 2, 54, 90
3, 203145, Note_off_c, 2, 54, 90
3, 203145, Note_on_c, 2, 46, 91
3, 203526, Note_on_c, 2, 49, 106
3, 203529, Note_off_c, 2, 46, 91
3, 203694, Note_off_c, 2, 49, 106
3, 203712, Note_on_c, 2, 49, 110
3, 203892, Note_on_c, 2, 51, 90
3, 203904, Note_off_c, 2, 49, 110
3, 204276, Note_off_c, 2, 51, 90
3, 204292, Note_on_c, 2, 54, 90
3, 204460, Note_off_c, 2, 54, 90
3, 204470, Note_on_c, 2, 54, 110
3, 204662, Note_off_c, 2, 54, 110
3, 204680, Note_on_c, 2, 46, 90
3, 205064, Note_off_c, 2, 46, 90
3, 205065, Note_on_c, 2, 49, 106
3, 205436, Note_on_c, 2, 48, 90
3, 205449, Note_off_c, 2, 49, 106
3, 205820, Note_off_c, 2, 48, 90
3, 205829, Note_on_c, 2, 47, 90
3, 205997, Note_off_c, 2, 47, 90
3, 206016, Note_on_c, 2, 47, 110
3, 206208, Note_off_c, 2, 47, 110
3, 206214, Note_on_c, 2, 51, 91
3, 206597, Note_on_c, 2, 54, 106
3, 206598, Note_off_c, 2, 51, 91
3, 206968, Note_on_c, 2, 56, 90
3, 206981, Note_off_c, 2, 54, 106
3, 207351, Note_on_c, 2, 59, 91
3, 207352, Note_off_c, 2, 56, 90
3, 207519, Note_off_c, 2, 59, 91
3, 207548, Note_on_c, 2, 59, 110
3, 207740, Note_off_c, 2, 59, 110
3, 207746, Note_on_c, 2, 51, 90
3, 208127, Note_off_c, 2, 51, 90
3, 208131, Note_on_c, 2, 52, 106
3, 208299, Note_off_c, 2, 52, 106
3, 208324, Note_on_c, 2, 52, 110
3, 208516, Note_off_c, 2, 52, 110
3, 208519, Note_on_c, 2, 53, 90
3, 208896, Note_on_c, 2, 54, 90
3, 208903, Note_off_c, 2, 53, 90
3, 209064, Note_off_c, 2, 54, 90
3, 209088, Note_on_c, 2, 54, 90
3, 209280, Note_off_c, 2, 54, 90
3, 209280, Note_on_c, 2, 46, 91
3, 209664, Note_off_c, 2, 46, 91
3, 209671, Note_on_c, 2, 49, 106
3, 209839, Note_off_c, 2, 49, 106
3, 209857, Note_on_c, 2, 49, 110
3, 210049, Note_off_c, 2, 49, 110
3, 210056, Note_on_c, 2, 51, 90
3, 210421, Note_on_c, 2, 54, 90
3, 210440, Note_off_c, 2, 51, 90
3, 210589, Note_off_c, 2, 54, 90
3, 210621, Note_on_c, 2, 54, 110
3, 210813, Note_off_c, 2, 54, 110
3, 210813, Note_on_c, 2, 46, 90
3, 211197, Note_off_c, 2, 46, 90
3, 211199, Note_on_c, 2, 49, 106
3, 211572, Note_on_c, 2, 48, 90
3, 211583, Note_off_c, 2, 49, 106
3, 211956, Note_off_c, 2, 48, 90
3, 211964, Note_on_c, 2, 47, 90
3, 212341, Note_on_c, 2, 51, 91
3, 212348, Note_off_c, 2, 47, 90
3, 212725, Note_off_c, 2, 51, 91
3, 212743, Note_on_c, 2, 52, 106
3, 213127, Note_off_c, 2, 52, 106
3, 213130, Note_on_c, 2, 53, 90
3, 213510, Note_on_c, 2, 54, 91
3, 213514, Note_off_c, 2, 53, 90
3, 213702, Note_off_c, 2, 54, 91
3, 213704, Note_on_c, 2, 56, 110
3, 213896, Note_off_c, 2, 56, 110
3, 213896, Note_on_c, 2, 58, 90
3, 214076, Note_on_c, 2, 59, 110
3, 214088, Note_off_c, 2, 58, 90
3, 216332, Note_off_c, 2, 59, 110
3, 216474, Note_on_c, 2, 47, 106
3, 216762, Note_off_c, 2, 47, 106
3, 218112, End_track
4, 0, Start_track
4, 0, Title_t, "PIANO"
4, 9220, Note_on_c, 4, 105, 60
4, 9224, Note_on_c, 4, 107, 60
4, 9296, Note_off_c, 4, 107, 60
4, 9303, Note_off_c, 4, 105, 60
4, 9397, Note_on_c, 4, 107, 60
4, 9409, Note_on_c, 4, 105, 60
4, 9485, Note_off_c, 4, 107, 60
4, 9505, Note_off_c, 4, 105, 60
4, 9589, Note_on_c, 4, 107, 60
4, 9596, Note_on_c, 4, 105, 60
4, 9681, Note_off_c, 4, 107, 60
4, 9692, Note_off_c, 4, 105, 60
4, 9782, Note_on_c, 4, 105, 60
4, 9792, Note_on_c, 4, 107, 60
4, 9874, Note_off_c, 4, 105, 60
4, 9878, Note_off_c, 4, 107, 60
4, 9978, Note_on_c, 4, 105, 60
4, 9978, Note_on_c, 4, 107, 60
4, 10055, Note_off_c, 4, 107, 60
4, 10065, Note_off_c, 4, 105, 60
4, 10175, Note_on_c, 4, 107, 60
4, 10179, Note_on_c, 4, 105, 60
4, 10264, Note_off_c, 4, 107, 60
4, 10268, Note_off_c, 4, 105, 60
4, 10367, Note_on_c, 4, 105, 60
4, 10368, Note_on_c, 4, 107, 60
4, 10456, Note_off_c, 4, 107, 60
4, 10463, Note_off_c, 4, 105, 60
4, 10554, Note_on_c, 4, 105, 60
4, 10563, Note_on_c, 4, 107, 60
4, 10651, Note_off_c, 4, 107, 60
4, 10656, Note_off_c, 4, 105, 60
4, 10741, Note_on_c, 4, 107, 60
4, 10751, Note_on_c, 4, 105, 60
4, 10841, Note_off_c, 4, 107, 60
4, 10845, Note_off_c, 4, 105, 60
4, 10939, Note_on_c, 4, 105, 60
4, 10942, Note_on_c, 4, 107, 60
4, 11020, Note_off_c, 4, 105, 60
4, 11025, Note_off_c, 4, 107, 60
4, 11135, Note_on_c, 4, 105, 60
4, 11142, Note_on_c, 4, 107, 60
4, 11205, Note_off_c, 4, 107, 60
4, 11209, Note_off_c, 4, 105, 60
4, 11328, Note_on_c, 4, 107, 60
4, 11333, Note_on_c, 4, 105, 60
4, 11414, Note_off_c, 4, 105, 60
4, 11414, Note_off_c, 4, 107, 60
4, 11515, Note_on_c, 4, 102, 60
4, 11521, Note_on_c, 4, 105, 60
4, 11596, Note_off_c, 4, 102, 60
4, 11606, Note_off_c, 4, 105, 60
4, 11714, Note_on_c, 4, 102, 60
4, 11717, Note_on_c, 4, 105, 60
4, 11790, Note_off_c, 4, 105, 60
4, 11821, Note_off_c, 4, 102, 60
4, 11898, Note_on_c, 4, 104, 60
4, 11907, Note_on_c, 4, 100, 60
4, 11968, Note_off_c, 4, 104, 60
4, 12004, Note_off_c, 4, 100, 60
4, 12087, Note_on_c, 4, 104, 60
4, 12100, Note_on_c, 4, 100, 60
4, 12162, Note_off_c, 4, 104, 60
4, 12188, Note_off_c, 4, 100, 60
4, 12279, Note_on_c, 4, 99, 60
4, 12279, Note_on_c, 4, 102, 60
4, 12357, Note_off_c, 4, 102, 60
4, 12363, Note_off_c, 4, 99, 60
4, 12485, Note_on_c, 4, 99, 60
4, 12490, Note_on_c, 4, 102, 60
4, 12560, Note_off_c, 4, 102, 60
4, 12580, Note_off_c, 4, 99, 60
4, 12663, Note_on_c, 4, 95, 60
4, 12668, Note_on_c, 4, 100, 60
4, 12741, Note_off_c, 4, 100, 60
4, 12765, Note_off_c, 4, 95, 60
4, 12860, Note_on_c, 4, 95, 60
4, 12868, Note_on_c, 4, 100, 60
4, 12971, Note_off_c, 4, 95, 60
4, 12992, Note_off_c, 4, 100, 60
4, 13048, Note_on_c, 4, 93, 60
4, 13063, Note_on_c, 4, 98, 60
4, 13096, Note_off_c, 4, 93, 60
4, 13111, Note_off_c, 4, 98, 60
4, 13249, Note_on_c, 4, 98, 60
4, 13253, Note_on_c, 4, 93, 60
4, 13345, Note_off_c, 4, 98, 60
4, 13354, Note_off_c, 4, 93, 60
4, 13444, Note_on_c, 4, 90, 60
4, 13448, Note_on_c, 4, 95, 60
4, 13523, Note_off_c, 4, 90, 60
4, 13528, Note_off_c, 4, 95, 60
4, 13634, Note_on_c, 4, 90, 60
4, 13642, Note_on_c, 4, 95, 60
4, 13701, Note_off_c, 4, 90, 60
4, 13717, Note_off_c, 4, 95, 60
4, 13816, Note_on_c, 4, 93, 60
4, 13828, Note_on_c, 4, 90, 60
4, 13924, Note_off_c, 4, 90, 60
4, 13935, Note_off_c, 4, 93, 60
4, 14012, Note_on_c, 4, 90, 60
4, 14017, Note_on_c, 4, 93, 60
4, 14108, Note_off_c, 4, 90, 60
4, 14128, Note_off_c, 4, 93, 60
4, 14197, Note_on_c, 4, 88, 60
4, 14218, Note_on_c, 4, 92, 60
4, 14314, Note_off_c, 4, 92, 60
4, 14324, Note_off_c, 4, 88, 60
4, 14390, Note_on_c, 4, 92, 60
4, 14404, Note_on_c, 4, 88, 60
4, 14497, Note_off_c, 4, 92, 60
4, 14503, Note_off_c, 4, 88, 60
4, 14592, Note_on_c, 4, 86, 60
4, 14592, Note_on_c, 4, 90, 60
4, 14640, Note_off_c, 4, 86, 60
4, 14640, Note_on_c, 4, 87, 60
4, 14688, Note_off_c, 4, 90, 60
4, 14736, Note_off_c, 4, 87, 60
4, 14756, Note_on_c, 4, 77, 60
4, 14798, Note_on_c, 4, 83, 60
4, 14799, Note_on_c, 4, 78, 60
4, 14847, Note_off_c, 4, 77, 60
4, 14939, Note_off_c, 4, 78, 60
4, 14952, Note_off_c, 4, 83, 60
4, 14976, Note_on_c, 4, 78, 60
4, 14976, Note_on_c, 4, 83, 60
4, 15070, Note_off_c, 4, 78, 60
4, 15086, Note_off_c, 4, 83, 60
4, 15168, Note_on_c, 4, 78, 60
4, 15168, Note_on_c, 4, 83, 60
4, 15260, Note_off_c, 4, 78, 60
4, 15266, Note_off_c, 4, 83, 60
4, 15360, Note_on_c, 4, 78, 60
4, 15360, Note_on_c, 4, 83, 60
4, 15504, Note_off_c, 4, 83, 60
4, 15504, Note_off_c, 4, 78, 60
4, 17808, Note_on_c, 4, 77, 60
4, 17851, Note_on_c, 4, 78, 60
4, 17852, Note_on_c, 4, 83, 60
4, 17892, Note_off_c, 4, 77, 60
4, 17972, Note_off_c, 4, 78, 60
4, 17995, Note_off_c, 4, 83, 60
4, 18048, Note_on_c, 4, 78, 60
4, 18048, Note_on_c, 4, 83, 60
4, 18132, Note_off_c, 4, 83, 60
4, 18132, Note_off_c, 4, 78, 60
4, 18240, Note_on_c, 4, 78, 60
4, 18240, Note_on_c, 4, 83, 60
4, 18336, Note_off_c, 4, 78, 60
4, 18344, Note_off_c, 4, 83, 60
4, 18432, Note_on_c, 4, 78, 60
4, 18432, Note_on_c, 4, 83, 60
4, 18568, Note_off_c, 4, 78, 60
4, 18572, Note_off_c, 4, 83, 60
4, 20928, Note_on_c, 4, 73, 60
4, 20928, Note_on_c, 4, 78, 60
4, 20928, Note_on_c, 4, 82, 60
4, 21022, Note_off_c, 4, 82, 60
4, 21024, Note_off_c, 4, 78, 60
4, 21024, Note_off_c, 4, 73, 60
4, 21120, Note_on_c, 4, 73, 60
4, 21120, Note_on_c, 4, 78, 60
4, 21120, Note_on_c, 4, 82, 60
4, 21216, Note_off_c, 4, 82, 60
4, 21216, Note_off_c, 4, 78, 60
4, 21216, Note_off_c, 4, 73, 60
4, 21312, Note_on_c, 4, 73, 60
4, 21312, Note_on_c, 4, 78, 60
4, 21312, Note_on_c, 4, 82, 60
4, 21408, Note_off_c, 4, 78, 60
4, 21408, Note_off_c, 4, 73, 60
4, 21420, Note_off_c, 4, 82, 60
4, 21504, Note_on_c, 4, 73, 60
4, 21504, Note_on_c, 4, 78, 60
4, 21504, Note_on_c, 4, 82, 60
4, 21648, Note_off_c, 4, 82, 60
4, 21648, Note_off_c, 4, 78, 60
4, 21648, Note_off_c, 4, 73, 60
4, 23964, Note_on_c, 4, 77, 60
4, 24000, Note_on_c, 4, 83, 60
4, 24002, Note_on_c, 4, 78, 60
4, 24052, Note_off_c, 4, 77, 60
4, 24146, Note_off_c, 4, 78, 60
4, 24146, Note_off_c, 4, 83, 60
4, 24192, Note_on_c, 4, 78, 60
4, 24192, Note_on_c, 4, 83, 60
4, 24288, Note_off_c, 4, 78, 60
4, 24303, Note_off_c, 4, 83, 60
4, 24384, Note_on_c, 4, 78, 60
4, 24384, Note_on_c, 4, 83, 60
4, 24479, Note_off_c, 4, 83, 60
4, 24487, Note_off_c, 4, 78, 60
4, 24576, Note_on_c, 4, 78, 60
4, 24576, Note_on_c, 4, 83, 60
4, 24720, Note_off_c, 4, 83, 60
4, 24720, Note_off_c, 4, 78, 60
4, 45476, Note_on_c, 4, 77, 60
4, 45518, Note_on_c, 4, 83, 60
4, 45519, Note_on_c, 4, 78, 60
4, 45567, Note_off_c, 4, 77, 60
4, 45659, Note_off_c, 4, 78, 60
4, 45672, Note_off_c, 4, 83, 60
4, 45698, Note_on_c, 4, 83, 60
4, 45702, Note_on_c, 4, 78, 60
4, 45796, Note_off_c, 4, 78, 60
4, 45808, Note_off_c, 4, 83, 60
4, 45884, Note_on_c, 4, 78, 60
4, 45891, Note_on_c, 4, 83, 60
4, 45976, Note_off_c, 4, 78, 60
4, 45989, Note_off_c, 4, 83, 60
4, 46068, Note_on_c, 4, 78, 60
4, 46069, Note_on_c, 4, 83, 60
4, 46212, Note_off_c, 4, 78, 60
4, 46213, Note_off_c, 4, 83, 60
4, 48528, Note_on_c, 4, 77, 60
4, 48571, Note_on_c, 4, 78, 60
4, 48572, Note_on_c, 4, 83, 60
4, 48612, Note_off_c, 4, 77, 60
4, 48692, Note_off_c, 4, 78, 60
4, 48715, Note_off_c, 4, 83, 60
4, 48764, Note_on_c, 4, 83, 60
4, 48776, Note_on_c, 4, 78, 60
4, 48848, Note_off_c, 4, 83, 60
4, 48860, Note_off_c, 4, 78, 60
4, 48954, Note_on_c, 4, 78, 60
4, 48966, Note_on_c, 4, 83, 60
4, 49050, Note_off_c, 4, 78, 60
4, 49070, Note_off_c, 4, 83, 60
4, 49160, Note_on_c, 4, 78, 60
4, 49160, Note_on_c, 4, 83, 60
4, 49296, Note_off_c, 4, 78, 60
4, 49300, Note_off_c, 4, 83, 60
4, 51638, Note_on_c, 4, 82, 60
4, 51639, Note_on_c, 4, 78, 60
4, 51647, Note_on_c, 4, 73, 60
4, 51732, Note_off_c, 4, 82, 60
4, 51735, Note_off_c, 4, 78, 60
4, 51743, Note_off_c, 4, 73, 60
4, 51828, Note_on_c, 4, 78, 60
4, 51831, Note_on_c, 4, 82, 60
4, 51836, Note_on_c, 4, 73, 60
4, 51924, Note_off_c, 4, 78, 60
4, 51927, Note_off_c, 4, 82, 60
4, 51932, Note_off_c, 4, 73, 60
4, 52026, Note_on_c, 4, 82, 60
4, 52032, Note_on_c, 4, 78, 60
4, 52038, Note_on_c, 4, 73, 60
4, 52128, Note_off_c, 4, 78, 60
4, 52134, Note_off_c, 4, 73, 60
4, 52134, Note_off_c, 4, 82, 60
4, 52220, Note_on_c, 4, 78, 60
4, 52232, Note_on_c, 4, 82, 60
4, 52232, Note_on_c, 4, 73, 60
4, 52364, Note_off_c, 4, 78, 60
4, 52376, Note_off_c, 4, 73, 60
4, 52376, Note_off_c, 4, 82, 60
4, 54684, Note_on_c, 4, 77, 60
4, 54720, Note_on_c, 4, 83, 60
4, 54722, Note_on_c, 4, 78, 60
4, 54772, Note_off_c, 4, 77, 60
4, 54866, Note_off_c, 4, 78, 60
4, 54866, Note_off_c, 4, 83, 60
4, 54903, Note_on_c, 4, 78, 60
4, 54922, Note_on_c, 4, 83, 60
4, 54999, Note_off_c, 4, 78, 60
4, 55033, Note_off_c, 4, 83, 60
4, 55104, Note_on_c, 4, 83, 60
4, 55106, Note_on_c, 4, 78, 60
4, 55199, Note_off_c, 4, 83, 60
4, 55209, Note_off_c, 4, 78, 60
4, 55288, Note_on_c, 4, 83, 60
4, 55292, Note_on_c, 4, 78, 60
4, 55432, Note_off_c, 4, 83, 60
4, 55436, Note_off_c, 4, 78, 60
4, 57784, Note_on_c, 4, 73, 73
4, 57956, Note_off_c, 4, 73, 73
4, 57976, Note_on_c, 4, 74, 52
4, 58165, Note_on_c, 4, 75, 60
4, 58168, Note_off_c, 4, 74, 52
4, 58357, Note_off_c, 4, 75, 60
4, 58363, Note_on_c, 4, 78, 56
4, 58375, Note_on_c, 4, 81, 56
4, 58553, Note_off_c, 4, 78, 56
4, 58557, Note_on_c, 4, 71, 52
4, 58567, Note_off_c, 4, 81, 56
4, 58756, Note_on_c, 4, 80, 60
4, 58756, Note_on_c, 4, 76, 36
4, 58764, Note_off_c, 4, 71, 52
4, 58927, Note_off_c, 4, 76, 36
4, 58927, Note_off_c, 4, 80, 60
4, 58937, Note_on_c, 4, 71, 64
4, 59137, Note_on_c, 4, 75, 52
4, 59138, Note_on_c, 4, 78, 52
4, 59142, Note_off_c, 4, 71, 64
4, 59281, Note_off_c, 4, 75, 52
4, 59282, Note_off_c, 4, 78, 52
4, 59317, Note_on_c, 4, 73, 49
4, 59509, Note_off_c, 4, 73, 49
4, 59514, Note_on_c, 4, 74, 44
4, 59706, Note_off_c, 4, 74, 44
4, 59720, Note_on_c, 4, 75, 44
4, 59906, Note_on_c, 4, 81, 56
4, 59907, Note_on_c, 4, 78, 56
4, 59912, Note_off_c, 4, 75, 44
4, 60097, Note_off_c, 4, 78, 56
4, 60098, Note_off_c, 4, 81, 56
4, 60104, Note_on_c, 4, 71, 52
4, 60280, Note_on_c, 4, 80, 60
4, 60288, Note_on_c, 4, 76, 36
4, 60311, Note_off_c, 4, 71, 52
4, 60451, Note_off_c, 4, 80, 60
4, 60458, Note_off_c, 4, 76, 36
4, 60485, Note_on_c, 4, 71, 64
4, 60672, Note_on_c, 4, 75, 52
4, 60679, Note_on_c, 4, 78, 52
4, 60690, Note_off_c, 4, 71, 64
4, 60816, Note_off_c, 4, 75, 52
4, 60823, Note_off_c, 4, 78, 52
4, 60864, Note_on_c, 4, 73, 49
4, 61054, Note_on_c, 4, 74, 44
4, 61056, Note_off_c, 4, 73, 49
4, 61241, Note_on_c, 4, 75, 44
4, 61246, Note_off_c, 4, 74, 44
4, 61430, Note_on_c, 4, 81, 56
4, 61433, Note_off_c, 4, 75, 44
4, 61434, Note_on_c, 4, 78, 56
4, 61621, Note_on_c, 4, 71, 52
4, 61622, Note_off_c, 4, 81, 56
4, 61624, Note_off_c, 4, 78, 56
4, 61828, Note_off_c, 4, 71, 52
4, 61832, Note_on_c, 4, 80, 60
4, 61834, Note_on_c, 4, 76, 36
4, 62004, Note_off_c, 4, 76, 36
4, 62004, Note_off_c, 4, 80, 60
4, 62006, Note_on_c, 4, 71, 64
4, 62207, Note_on_c, 4, 81, 56
4, 62211, Note_off_c, 4, 71, 64
4, 62216, Note_on_c, 4, 78, 56
4, 62399, Note_off_c, 4, 81, 56
4, 62407, Note_off_c, 4, 78, 56
4, 62407, Note_on_c, 4, 71, 52
4, 62581, Note_on_c, 4, 80, 60
4, 62597, Note_on_c, 4, 76, 36
4, 62613, Note_off_c, 4, 71, 52
4, 62752, Note_off_c, 4, 80, 60
4, 62768, Note_off_c, 4, 76, 36
4, 62773, Note_on_c, 4, 71, 64
4, 62978, Note_off_c, 4, 71, 64
4, 62980, Note_on_c, 4, 81, 56
4, 62984, Note_on_c, 4, 78, 56
4, 63165, Note_on_c, 4, 71, 52
4, 63172, Note_off_c, 4, 81, 56
4, 63174, Note_off_c, 4, 78, 56
4, 63354, Note_on_c, 4, 80, 60
4, 63363, Note_on_c, 4, 76, 36
4, 63372, Note_off_c, 4, 71, 52
4, 63525, Note_off_c, 4, 80, 60
4, 63533, Note_off_c, 4, 76, 36
4, 63546, Note_on_c, 4, 71, 64
4, 63740, Note_on_c, 4, 78, 52
4, 63751, Note_off_c, 4, 71, 64
4, 63752, Note_on_c, 4, 75, 52
4, 63884, Note_off_c, 4, 78, 52
4, 63896, Note_off_c, 4, 75, 52
4, 63944, Note_on_c, 4, 78, 73
4, 64116, Note_off_c, 4, 78, 73
4, 64120, Note_on_c, 4, 79, 52
4, 64312, Note_off_c, 4, 79, 52
4, 64328, Note_on_c, 4, 80, 60
4, 64500, Note_on_c, 4, 86, 56
4, 64518, Note_on_c, 4, 83, 56
4, 64520, Note_off_c, 4, 80, 60
4, 64692, Note_off_c, 4, 86, 56
4, 64698, Note_on_c, 4, 76, 52
4, 64708, Note_off_c, 4, 83, 56
4, 64888, Note_on_c, 4, 81, 36
4, 64896, Note_on_c, 4, 85, 60
4, 64904, Note_off_c, 4, 76, 52
4, 65058, Note_off_c, 4, 81, 36
4, 65068, Note_off_c, 4, 85, 60
4, 65084, Note_on_c, 4, 76, 64
4, 65269, Note_on_c, 4, 83, 52
4, 65276, Note_on_c, 4, 80, 52
4, 65289, Note_off_c, 4, 76, 64
4, 65413, Note_off_c, 4, 83, 52
4, 65420, Note_off_c, 4, 80, 52
4, 65475, Note_on_c, 4, 78, 49
4, 65667, Note_off_c, 4, 78, 49
4, 65673, Note_on_c, 4, 79, 44
4, 65844, Note_on_c, 4, 80, 44
4, 65865, Note_off_c, 4, 79, 44
4, 66036, Note_off_c, 4, 80, 44
4, 66036, Note_on_c, 4, 83, 56
4, 66046, Note_on_c, 4, 86, 56
4, 66227, Note_off_c, 4, 83, 56
4, 66238, Note_off_c, 4, 86, 56
4, 66244, Note_on_c, 4, 76, 52
4, 66420, Note_on_c, 4, 81, 36
4, 66432, Note_on_c, 4, 85, 60
4, 66451, Note_off_c, 4, 76, 52
4, 66591, Note_off_c, 4, 81, 36
4, 66604, Note_off_c, 4, 85, 60
4, 66625, Note_on_c, 4, 76, 64
4, 66816, Note_on_c, 4, 80, 52
4, 66822, Note_on_c, 4, 83, 52
4, 66830, Note_off_c, 4, 76, 64
4, 66960, Note_off_c, 4, 80, 52
4, 66966, Note_off_c, 4, 83, 52
4, 67004, Note_on_c, 4, 73, 49
4, 67188, Note_on_c, 4, 74, 44
4, 67196, Note_off_c, 4, 73, 49
4, 67380, Note_off_c, 4, 74, 44
4, 67400, Note_on_c, 4, 75, 44
4, 67572, Note_on_c, 4, 78, 56
4, 67583, Note_on_c, 4, 81, 56
4, 67592, Note_off_c, 4, 75, 44
4, 67763, Note_off_c, 4, 78, 56
4, 67764, Note_on_c, 4, 71, 52
4, 67775, Note_off_c, 4, 81, 56
4, 67964, Note_on_c, 4, 80, 60
4, 67971, Note_off_c, 4, 71, 52
4, 67973, Note_on_c, 4, 76, 36
4, 68136, Note_off_c, 4, 80, 60
4, 68144, Note_off_c, 4, 76, 36
4, 68155, Note_on_c, 4, 71, 64
4, 68355, Note_on_c, 4, 78, 56
4, 68356, Note_on_c, 4, 81, 56
4, 68360, Note_off_c, 4, 71, 64
4, 68532, Note_on_c, 4, 71, 52
4, 68545, Note_off_c, 4, 78, 56
4, 68548, Note_off_c, 4, 81, 56
4, 68731, Note_on_c, 4, 80, 46
4, 68739, Note_off_c, 4, 71, 52
4, 68744, Note_on_c, 4, 76, 46
4, 68902, Note_off_c, 4, 80, 46
4, 68915, Note_off_c, 4, 76, 46
4, 68934, Note_on_c, 4, 75, 55
4, 69028, Note_on_c, 4, 78, 42
4, 69030, Note_off_c, 4, 75, 55
4, 69115, Note_on_c, 4, 75, 55
4, 69124, Note_off_c, 4, 78, 42
4, 69211, Note_off_c, 4, 75, 55
4, 69224, Note_on_c, 4, 78, 46
4, 69312, Note_on_c, 4, 75, 55
4, 69320, Note_off_c, 4, 78, 46
4, 69408, Note_off_c, 4, 75, 55
4, 69412, Note_on_c, 4, 78, 49
4, 69496, Note_on_c, 4, 75, 59
4, 69508, Note_off_c, 4, 78, 49
4, 69592, Note_off_c, 4, 75, 59
4, 69594, Note_on_c, 4, 78, 49
4, 69690, Note_off_c, 4, 78, 49
4, 69699, Note_on_c, 4, 75, 55
4, 69795, Note_off_c, 4, 75, 55
4, 69801, Note_on_c, 4, 78, 51
4, 69888, Note_on_c, 4, 75, 53
4, 69897, Note_off_c, 4, 78, 51
4, 69984, Note_off_c, 4, 75, 53
4, 69989, Note_on_c, 4, 78, 53
4, 70069, Note_on_c, 4, 75, 53
4, 70085, Note_off_c, 4, 78, 53
4, 70165, Note_off_c, 4, 75, 53
4, 70271, Note_on_c, 4, 80, 60
4, 70460, Note_on_c, 4, 81, 56
4, 70463, Note_off_c, 4, 80, 60
4, 70649, Note_on_c, 4, 82, 48
4, 70652, Note_off_c, 4, 81, 56
4, 70841, Note_off_c, 4, 82, 48
4, 70857, Note_on_c, 4, 90, 56
4, 71048, Note_on_c, 4, 82, 48
4, 71049, Note_off_c, 4, 90, 56
4, 71236, Note_on_c, 4, 81, 52
4, 71240, Note_off_c, 4, 82, 48
4, 71423, Note_on_c, 4, 80, 44
4, 71428, Note_off_c, 4, 81, 52
4, 71610, Note_on_c, 4, 88, 56
4, 71615, Note_off_c, 4, 80, 44
4, 71802, Note_off_c, 4, 88, 56
4, 71811, Note_on_c, 4, 80, 64
4, 71993, Note_on_c, 4, 79, 64
4, 72003, Note_off_c, 4, 80, 64
4, 72182, Note_on_c, 4, 78, 56
4, 72185, Note_off_c, 4, 79, 64
4, 72374, Note_off_c, 4, 78, 56
4, 72380, Note_on_c, 4, 87, 56
4, 72560, Note_off_c, 4, 87, 56
4, 72574, Note_on_c, 4, 78, 60
4, 72757, Note_on_c, 4, 77, 56
4, 72766, Note_off_c, 4, 78, 60
4, 72949, Note_off_c, 4, 77, 56
4, 72954, Note_on_c, 4, 76, 64
4, 73146, Note_off_c, 4, 76, 64
4, 73154, Note_on_c, 4, 85, 56
4, 73334, Note_on_c, 4, 76, 56
4, 73346, Note_off_c, 4, 85, 56
4, 73526, Note_off_c, 4, 76, 56
4, 73542, Note_on_c, 4, 74, 56
4, 73724, Note_on_c, 4, 75, 64
4, 73734, Note_off_c, 4, 74, 56
4, 73924, Note_off_c, 4, 75, 64
4, 73927, Note_on_c, 4, 83, 64
4, 74500, Note_on_c, 4, 73, 64
4, 74504, Note_on_c, 4, 81, 82
4, 74788, Note_off_c, 4, 73, 64
4, 74792, Note_off_c, 4, 81, 82
4, 74817, Note_off_c, 4, 83, 64
4, 74873, Note_on_c, 4, 71, 73
4, 74884, Note_on_c, 4, 80, 64
4, 75160, Note_off_c, 4, 80, 64
4, 75164, Note_off_c, 4, 71, 73
4, 75257, Note_on_c, 4, 69, 73
4, 75260, Note_on_c, 4, 78, 64
4, 75545, Note_off_c, 4, 69, 73
4, 75548, Note_off_c, 4, 78, 64
4, 75646, Note_on_c, 4, 76, 82
4, 75651, Note_on_c, 4, 68, 60
4, 75934, Note_off_c, 4, 76, 82
4, 75939, Note_off_c, 4, 68, 60
4, 76025, Note_on_c, 4, 74, 73
4, 76032, Note_on_c, 4, 66, 82
4, 76313, Note_off_c, 4, 74, 73
4, 76320, Note_off_c, 4, 66, 82
4, 76407, Note_on_c, 4, 73, 73
4, 76418, Note_on_c, 4, 64, 69
4, 76706, Note_off_c, 4, 64, 69
4, 76711, Note_off_c, 4, 73, 73
4, 76792, Note_on_c, 4, 71, 64
4, 76806, Note_on_c, 4, 63, 64
4, 77176, Note_off_c, 4, 71, 64
4, 77190, Note_off_c, 4, 63, 64
4, 103844, Note_on_c, 4, 77, 60
4, 103886, Note_on_c, 4, 83, 60
4, 103887, Note_on_c, 4, 78, 60
4, 103935, Note_off_c, 4, 77, 60
4, 104027, Note_off_c, 4, 78, 60
4, 104040, Note_off_c, 4, 83, 60
4, 104070, Note_on_c, 4, 83, 60
4, 104071, Note_on_c, 4, 78, 60
4, 104165, Note_off_c, 4, 78, 60
4, 104180, Note_off_c, 4, 83, 60
4, 104252, Note_on_c, 4, 83, 60
4, 104265, Note_on_c, 4, 78, 60
4, 104351, Note_off_c, 4, 83, 60
4, 104357, Note_off_c, 4, 78, 60
4, 104443, Note_on_c, 4, 78, 60
4, 104455, Note_on_c, 4, 83, 60
4, 104587, Note_off_c, 4, 78, 60
4, 104599, Note_off_c, 4, 83, 60
4, 106896, Note_on_c, 4, 77, 60
4, 106938, Note_on_c, 4, 83, 60
4, 106946, Note_on_c, 4, 78, 60
4, 106980, Note_off_c, 4, 77, 60
4, 107067, Note_off_c, 4, 78, 60
4, 107080, Note_off_c, 4, 83, 60
4, 107135, Note_on_c, 4, 83, 60
4, 107140, Note_on_c, 4, 78, 60
4, 107219, Note_off_c, 4, 83, 60
4, 107224, Note_off_c, 4, 78, 60
4, 107332, Note_on_c, 4, 78, 60
4, 107336, Note_on_c, 4, 83, 60
4, 107428, Note_off_c, 4, 78, 60
4, 107440, Note_off_c, 4, 83, 60
4, 107523, Note_on_c, 4, 83, 60
4, 107528, Note_on_c, 4, 78, 60
4, 107663, Note_off_c, 4, 83, 60
4, 107664, Note_off_c, 4, 78, 60
4, 110011, Note_on_c, 4, 73, 60
4, 110015, Note_on_c, 4, 82, 60
4, 110024, Note_on_c, 4, 78, 60
4, 110107, Note_off_c, 4, 73, 60
4, 110109, Note_off_c, 4, 82, 60
4, 110120, Note_off_c, 4, 78, 60
4, 110203, Note_on_c, 4, 82, 60
4, 110207, Note_on_c, 4, 73, 60
4, 110217, Note_on_c, 4, 78, 60
4, 110299, Note_off_c, 4, 82, 60
4, 110303, Note_off_c, 4, 73, 60
4, 110313, Note_off_c, 4, 78, 60
4, 110392, Note_on_c, 4, 82, 60
4, 110393, Note_on_c, 4, 73, 60
4, 110401, Note_on_c, 4, 78, 60
4, 110489, Note_off_c, 4, 73, 60
4, 110497, Note_off_c, 4, 78, 60
4, 110500, Note_off_c, 4, 82, 60
4, 110591, Note_on_c, 4, 82, 60
4, 110598, Note_on_c, 4, 78, 60
4, 110602, Note_on_c, 4, 73, 60
4, 110735, Note_off_c, 4, 82, 60
4, 110742, Note_off_c, 4, 78, 60
4, 110746, Note_off_c, 4, 73, 60
4, 113052, Note_on_c, 4, 77, 60
4, 113088, Note_on_c, 4, 83, 60
4, 113090, Note_on_c, 4, 78, 60
4, 113140, Note_off_c, 4, 77, 60
4, 113234, Note_off_c, 4, 78, 60
4, 113234, Note_off_c, 4, 83, 60
4, 113273, Note_on_c, 4, 78, 60
4, 113287, Note_on_c, 4, 83, 60
4, 113369, Note_off_c, 4, 78, 60
4, 113398, Note_off_c, 4, 83, 60
4, 113466, Note_on_c, 4, 78, 60
4, 113477, Note_on_c, 4, 83, 60
4, 113569, Note_off_c, 4, 78, 60
4, 113572, Note_off_c, 4, 83, 60
4, 113664, Note_on_c, 4, 86, 77
4, 113664, Note_on_c, 4, 83, 77
4, 113664, Note_on_c, 4, 78, 77
4, 113789, Note_on_c, 4, 85, 58
4, 113792, Note_off_c, 4, 86, 77
4, 113808, Note_off_c, 4, 78, 77
4, 113808, Note_off_c, 4, 83, 77
4, 113906, Note_on_c, 4, 83, 55
4, 113917, Note_off_c, 4, 85, 58
4, 114034, Note_off_c, 4, 83, 55
4, 114039, Note_on_c, 4, 81, 74
4, 114167, Note_off_c, 4, 81, 74
4, 114184, Note_on_c, 4, 80, 58
4, 114296, Note_on_c, 4, 78, 50
4, 114312, Note_off_c, 4, 80, 58
4, 114424, Note_off_c, 4, 78, 50
4, 114426, Note_on_c, 4, 77, 74
4, 114554, Note_off_c, 4, 77, 74
4, 114568, Note_on_c, 4, 76, 61
4, 114684, Note_on_c, 4, 74, 55
4, 114696, Note_off_c, 4, 76, 61
4, 114812, Note_off_c, 4, 74, 55
4, 114816, Note_on_c, 4, 71, 74
4, 114944, Note_off_c, 4, 71, 74
4, 114944, Note_on_c, 4, 69, 53
4, 115072, Note_off_c, 4, 69, 53
4, 115082, Note_on_c, 4, 66, 66
4, 115180, Note_on_c, 4, 77, 60
4, 115200, Note_on_c, 4, 83, 60
4, 115200, Note_on_c, 4, 78, 60
4, 115210, Note_off_c, 4, 66, 66
4, 115235, Note_off_c, 4, 77, 60
4, 115328, Note_off_c, 4, 78, 60
4, 115356, Note_off_c, 4, 83, 60
4, 115420, Note_on_c, 4, 83, 60
4, 115427, Note_on_c, 4, 78, 60
4, 115509, Note_off_c, 4, 78, 60
4, 115516, Note_off_c, 4, 83, 60
4, 115610, Note_on_c, 4, 78, 60
4, 115610, Note_on_c, 4, 83, 60
4, 115695, Note_off_c, 4, 78, 60
4, 115704, Note_off_c, 4, 83, 60
4, 115798, Note_on_c, 4, 83, 60
4, 115803, Note_on_c, 4, 78, 60
4, 115898, Note_off_c, 4, 83, 60
4, 115904, Note_off_c, 4, 78, 60
4, 115983, Note_on_c, 4, 77, 60
4, 116020, Note_on_c, 4, 83, 60
4, 116024, Note_on_c, 4, 78, 60
4, 116078, Note_off_c, 4, 77, 60
4, 116128, Note_off_c, 4, 78, 60
4, 116136, Note_off_c, 4, 83, 60
4, 116199, Note_on_c, 4, 78, 60
4, 116212, Note_on_c, 4, 83, 60
4, 116300, Note_off_c, 4, 83, 60
4, 116300, Note_off_c, 4, 78, 60
4, 116372, Note_on_c, 4, 78, 60
4, 116376, Note_on_c, 4, 83, 60
4, 116468, Note_off_c, 4, 83, 60
4, 116468, Note_off_c, 4, 78, 60
4, 116548, Note_on_c, 4, 83, 60
4, 116555, Note_on_c, 4, 78, 60
4, 116652, Note_off_c, 4, 83, 60
4, 116668, Note_off_c, 4, 78, 60
4, 122872, Note_on_c, 4, 83, 60
4, 122882, Note_on_c, 4, 78, 60
4, 122971, Note_off_c, 4, 83, 60
4, 122978, Note_off_c, 4, 78, 60
4, 123063, Note_on_c, 4, 78, 49
4, 123082, Note_on_c, 4, 83, 49
4, 123155, Note_off_c, 4, 83, 49
4, 123156, Note_off_c, 4, 78, 49
4, 123260, Note_on_c, 4, 78, 60
4, 123269, Note_on_c, 4, 83, 60
4, 123368, Note_off_c, 4, 78, 60
4, 123369, Note_off_c, 4, 83, 60
4, 123447, Note_on_c, 4, 78, 49
4, 123452, Note_on_c, 4, 83, 49
4, 123552, Note_off_c, 4, 83, 49
4, 123556, Note_off_c, 4, 78, 49
4, 123641, Note_on_c, 4, 78, 60
4, 123649, Note_on_c, 4, 83, 60
4, 123737, Note_off_c, 4, 78, 60
4, 123744, Note_off_c, 4, 83, 60
4, 123836, Note_on_c, 4, 78, 49
4, 123841, Note_on_c, 4, 83, 49
4, 123960, Note_off_c, 4, 83, 49
4, 123985, Note_off_c, 4, 78, 49
4, 124033, Note_on_c, 4, 78, 60
4, 124038, Note_on_c, 4, 81, 60
4, 124139, Note_off_c, 4, 81, 60
4, 124152, Note_off_c, 4, 78, 60
4, 124226, Note_on_c, 4, 78, 51
4, 124227, Note_on_c, 4, 81, 51
4, 124341, Note_off_c, 4, 78, 51
4, 124345, Note_off_c, 4, 81, 51
4, 124408, Note_on_c, 4, 76, 60
4, 124424, Note_on_c, 4, 80, 60
4, 124515, Note_off_c, 4, 76, 60
4, 124527, Note_off_c, 4, 80, 60
4, 124612, Note_on_c, 4, 76, 57
4, 124616, Note_on_c, 4, 80, 57
4, 124736, Note_off_c, 4, 80, 57
4, 124740, Note_off_c, 4, 76, 57
4, 124808, Note_on_c, 4, 74, 60
4, 124809, Note_on_c, 4, 78, 60
4, 124909, Note_off_c, 4, 78, 60
4, 124923, Note_off_c, 4, 74, 60
4, 124999, Note_on_c, 4, 74, 43
4, 125000, Note_on_c, 4, 78, 43
4, 125079, Note_off_c, 4, 78, 43
4, 125095, Note_off_c, 4, 74, 43
4, 125181, Note_on_c, 4, 73, 60
4, 125186, Note_on_c, 4, 76, 60
4, 125274, Note_off_c, 4, 73, 60
4, 125285, Note_off_c, 4, 76, 60
4, 125370, Note_on_c, 4, 73, 43
4, 125378, Note_on_c, 4, 76, 43
4, 125466, Note_off_c, 4, 76, 43
4, 125485, Note_off_c, 4, 73, 43
4, 125568, Note_on_c, 4, 71, 60
4, 125576, Note_on_c, 4, 74, 60
4, 125645, Note_off_c, 4, 71, 60
4, 125660, Note_off_c, 4, 74, 60
4, 125753, Note_on_c, 4, 74, 60
4, 125760, Note_on_c, 4, 71, 60
4, 125853, Note_off_c, 4, 71, 60
4, 125860, Note_off_c, 4, 74, 60
4, 134564, Note_on_c, 4, 77, 60
4, 134606, Note_on_c, 4, 83, 60
4, 134607, Note_on_c, 4, 78, 60
4, 134655, Note_off_c, 4, 77, 60
4, 134747, Note_off_c, 4, 78, 60
4, 134760, Note_off_c, 4, 83, 60
4, 134780, Note_on_c, 4, 83, 60
4, 134792, Note_on_c, 4, 78, 60
4, 134887, Note_off_c, 4, 78, 60
4, 134890, Note_off_c, 4, 83, 60
4, 134966, Note_on_c, 4, 78, 60
4, 134972, Note_on_c, 4, 83, 60
4, 135058, Note_off_c, 4, 78, 60
4, 135070, Note_off_c, 4, 83, 60
4, 135163, Note_on_c, 4, 78, 60
4, 135175, Note_on_c, 4, 83, 60
4, 135307, Note_off_c, 4, 78, 60
4, 135319, Note_off_c, 4, 83, 60
4, 137616, Note_on_c, 4, 77, 60
4, 137659, Note_on_c, 4, 78, 60
4, 137660, Note_on_c, 4, 83, 60
4, 137700, Note_off_c, 4, 77, 60
4, 137780, Note_off_c, 4, 78, 60
4, 137803, Note_off_c, 4, 83, 60
4, 137846, Note_on_c, 4, 78, 60
4, 137852, Note_on_c, 4, 83, 60
4, 137930, Note_off_c, 4, 78, 60
4, 137936, Note_off_c, 4, 83, 60
4, 138040, Note_on_c, 4, 83, 60
4, 138045, Note_on_c, 4, 78, 60
4, 138141, Note_off_c, 4, 78, 60
4, 138144, Note_off_c, 4, 83, 60
4, 138228, Note_on_c, 4, 78, 60
4, 138230, Note_on_c, 4, 83, 60
4, 138364, Note_off_c, 4, 78, 60
4, 138370, Note_off_c, 4, 83, 60
4, 140727, Note_on_c, 4, 73, 60
4, 140734, Note_on_c, 4, 82, 60
4, 140742, Note_on_c, 4, 78, 60
4, 140823, Note_off_c, 4, 73, 60
4, 140828, Note_off_c, 4, 82, 60
4, 140838, Note_off_c, 4, 78, 60
4, 140920, Note_on_c, 4, 78, 60
4, 140922, Note_on_c, 4, 73, 60
4, 140936, Note_on_c, 4, 82, 60
4, 141016, Note_off_c, 4, 78, 60
4, 141018, Note_off_c, 4, 73, 60
4, 141032, Note_off_c, 4, 82, 60
4, 141112, Note_on_c, 4, 78, 60
4, 141124, Note_on_c, 4, 73, 60
4, 141126, Note_on_c, 4, 82, 60
4, 141208, Note_off_c, 4, 78, 60
4, 141220, Note_off_c, 4, 73, 60
4, 141234, Note_off_c, 4, 82, 60
4, 141300, Note_on_c, 4, 78, 60
4, 141303, Note_on_c, 4, 73, 60
4, 141308, Note_on_c, 4, 82, 60
4, 141444, Note_off_c, 4, 78, 60
4, 141447, Note_off_c, 4, 73, 60
4, 141452, Note_off_c, 4, 82, 60
4, 143772, Note_on_c, 4, 77, 60
4, 143808, Note_on_c, 4, 83, 60
4, 143810, Note_on_c, 4, 78, 60
4, 143860, Note_off_c, 4, 77, 60
4, 143954, Note_off_c, 4, 78, 60
4, 143954, Note_off_c, 4, 83, 60
4, 144002, Note_on_c, 4, 78, 60
4, 144008, Note_on_c, 4, 83, 60
4, 144098, Note_off_c, 4, 78, 60
4, 144119, Note_off_c, 4, 83, 60
4, 144188, Note_on_c, 4, 83, 60
4, 144189, Note_on_c, 4, 78, 60
4, 144284, Note_off_c, 4, 83, 60
4, 144292, Note_off_c, 4, 78, 60
4, 144376, Note_on_c, 4, 78, 77
4, 144377, Note_on_c, 4, 83, 77
4, 144520, Note_off_c, 4, 78, 77
4, 144521, Note_off_c, 4, 83, 77
4, 145900, Note_on_c, 4, 77, 60
4, 145920, Note_on_c, 4, 83, 60
4, 145920, Note_on_c, 4, 78, 60
4, 145955, Note_off_c, 4, 77, 60
4, 146048, Note_off_c, 4, 78, 60
4, 146076, Note_off_c, 4, 83, 60
4, 146140, Note_on_c, 4, 83, 60
4, 146147, Note_on_c, 4, 78, 60
4, 146229, Note_off_c, 4, 78, 60
4, 146236, Note_off_c, 4, 83, 60
4, 146330, Note_on_c, 4, 78, 60
4, 146330, Note_on_c, 4, 83, 60
4, 146415, Note_off_c, 4, 78, 60
4, 146424, Note_off_c, 4, 83, 60
4, 146518, Note_on_c, 4, 83, 60
4, 146523, Note_on_c, 4, 78, 60
4, 146618, Note_off_c, 4, 83, 60
4, 146624, Note_off_c, 4, 78, 60
4, 146703, Note_on_c, 4, 77, 60
4, 146740, Note_on_c, 4, 83, 60
4, 146744, Note_on_c, 4, 78, 60
4, 146798, Note_off_c, 4, 77, 60
4, 146848, Note_off_c, 4, 78, 60
4, 146856, Note_off_c, 4, 83, 60
4, 146880, Note_on_c, 4, 83, 60
4, 146880, Note_on_c, 4, 78, 60
4, 146968, Note_off_c, 4, 83, 60
4, 146980, Note_off_c, 4, 78, 60
4, 147072, Note_on_c, 4, 78, 60
4, 147072, Note_on_c, 4, 83, 60
4, 147164, Note_off_c, 4, 83, 60
4, 147168, Note_off_c, 4, 78, 60
4, 147264, Note_on_c, 4, 83, 60
4, 147264, Note_on_c, 4, 78, 60
4, 147368, Note_off_c, 4, 83, 60
4, 147376, Note_off_c, 4, 78, 60
4, 172037, Note_on_c, 4, 78, 60
4, 172040, Note_on_c, 4, 83, 60
4, 172133, Note_off_c, 4, 78, 60
4, 172138, Note_off_c, 4, 83, 60
4, 172219, Note_on_c, 4, 78, 49
4, 172234, Note_on_c, 4, 83, 49
4, 172307, Note_off_c, 4, 83, 49
4, 172312, Note_off_c, 4, 78, 49
4, 172408, Note_on_c, 4, 78, 60
4, 172412, Note_on_c, 4, 83, 60
4, 172512, Note_off_c, 4, 83, 60
4, 172515, Note_off_c, 4, 78, 60
4, 172604, Note_on_c, 4, 78, 49
4, 172609, Note_on_c, 4, 83, 49
4, 172710, Note_off_c, 4, 83, 49
4, 172712, Note_off_c, 4, 78, 49
4, 172793, Note_on_c, 4, 83, 60
4, 172796, Note_on_c, 4, 78, 60
4, 172888, Note_off_c, 4, 83, 60
4, 172892, Note_off_c, 4, 78, 60
4, 172984, Note_on_c, 4, 83, 49
4, 172996, Note_on_c, 4, 78, 49
4, 173103, Note_off_c, 4, 83, 49
4, 173144, Note_off_c, 4, 78, 49
4, 173184, Note_on_c, 4, 81, 60
4, 173192, Note_on_c, 4, 78, 60
4, 173284, Note_off_c, 4, 81, 60
4, 173311, Note_off_c, 4, 78, 60
4, 173377, Note_on_c, 4, 81, 49
4, 173377, Note_on_c, 4, 78, 49
4, 173492, Note_off_c, 4, 78, 49
4, 173496, Note_off_c, 4, 81, 49
4, 173567, Note_on_c, 4, 80, 60
4, 173567, Note_on_c, 4, 76, 60
4, 173669, Note_off_c, 4, 80, 60
4, 173673, Note_off_c, 4, 76, 60
4, 173752, Note_on_c, 4, 76, 51
4, 173760, Note_on_c, 4, 80, 51
4, 173880, Note_off_c, 4, 80, 51
4, 173880, Note_off_c, 4, 76, 51
4, 173945, Note_on_c, 4, 74, 60
4, 173956, Note_on_c, 4, 78, 60
4, 174056, Note_off_c, 4, 78, 60
4, 174060, Note_off_c, 4, 74, 60
4, 174148, Note_on_c, 4, 78, 46
4, 174152, Note_on_c, 4, 74, 46
4, 174227, Note_off_c, 4, 78, 46
4, 174248, Note_off_c, 4, 74, 46
4, 174340, Note_on_c, 4, 76, 60
4, 174346, Note_on_c, 4, 73, 60
4, 174439, Note_off_c, 4, 73, 60
4, 174439, Note_off_c, 4, 76, 60
4, 174526, Note_on_c, 4, 76, 49
4, 174530, Note_on_c, 4, 73, 49
4, 174614, Note_off_c, 4, 76, 49
4, 174645, Note_off_c, 4, 73, 49
4, 174709, Note_on_c, 4, 74, 60
4, 174715, Note_on_c, 4, 71, 60
4, 174792, Note_off_c, 4, 71, 60
4, 174794, Note_off_c, 4, 74, 60
4, 174902, Note_on_c, 4, 74, 60
4, 174905, Note_on_c, 4, 71, 60
4, 174998, Note_off_c, 4, 71, 60
4, 175009, Note_off_c, 4, 74, 60
4, 183716, Note_on_c, 4, 77, 60
4, 183758, Note_on_c, 4, 83, 60
4, 183759, Note_on_c, 4, 78, 60
4, 183807, Note_off_c, 4, 77, 60
4, 183899, Note_off_c, 4, 78, 60
4, 183912, Note_off_c, 4, 83, 60
4, 183944, Note_on_c, 4, 83, 60
4, 183945, Note_on_c, 4, 78, 60
4, 184040, Note_off_c, 4, 78, 60
4, 184054, Note_off_c, 4, 83, 60
4, 184123, Note_on_c, 4, 78, 60
4, 184128, Note_on_c, 4, 83, 60
4, 184215, Note_off_c, 4, 78, 60
4, 184227, Note_off_c, 4, 83, 60
4, 184316, Note_on_c, 4, 78, 60
4, 184330, Note_on_c, 4, 83, 60
4, 184460, Note_off_c, 4, 78, 60
4, 184474, Note_off_c, 4, 83, 60
4, 186768, Note_on_c, 4, 77, 60
4, 186811, Note_on_c, 4, 78, 60
4, 186812, Note_on_c, 4, 83, 60
4, 186852, Note_off_c, 4, 77, 60
4, 186932, Note_off_c, 4, 78, 60
4, 186955, Note_off_c, 4, 83, 60
4, 187003, Note_on_c, 4, 83, 60
4, 187006, Note_on_c, 4, 78, 60
4, 187087, Note_off_c, 4, 83, 60
4, 187090, Note_off_c, 4, 78, 60
4, 187199, Note_on_c, 4, 78, 60
4, 187200, Note_on_c, 4, 83, 60
4, 187295, Note_off_c, 4, 78, 60
4, 187304, Note_off_c, 4, 83, 60
4, 187383, Note_on_c, 4, 83, 60
4, 187392, Note_on_c, 4, 78, 60
4, 187523, Note_off_c, 4, 83, 60
4, 187528, Note_off_c, 4, 78, 60
4, 189882, Note_on_c, 4, 82, 60
4, 189888, Note_on_c, 4, 73, 60
4, 189895, Note_on_c, 4, 78, 60
4, 189976, Note_off_c, 4, 82, 60
4, 189984, Note_off_c, 4, 73, 60
4, 189991, Note_off_c, 4, 78, 60
4, 190069, Note_on_c, 4, 73, 60
4, 190072, Note_on_c, 4, 82, 60
4, 190089, Note_on_c, 4, 78, 60
4, 190165, Note_off_c, 4, 73, 60
4, 190168, Note_off_c, 4, 82, 60
4, 190185, Note_off_c, 4, 78, 60
4, 190278, Note_on_c, 4, 73, 60
4, 190280, Note_on_c, 4, 82, 60
4, 190281, Note_on_c, 4, 78, 60
4, 190374, Note_off_c, 4, 73, 60
4, 190377, Note_off_c, 4, 78, 60
4, 190388, Note_off_c, 4, 82, 60
4, 190455, Note_on_c, 4, 78, 60
4, 190461, Note_on_c, 4, 82, 60
4, 190464, Note_on_c, 4, 73, 60
4, 190599, Note_off_c, 4, 78, 60
4, 190605, Note_off_c, 4, 82, 60
4, 190608, Note_off_c, 4, 73, 60
4, 192924, Note_on_c, 4, 77, 60
4, 192960, Note_on_c, 4, 83, 60
4, 192962, Note_on_c, 4, 78, 60
4, 193012, Note_off_c, 4, 77, 60
4, 193106, Note_off_c, 4, 78, 60
4, 193106, Note_off_c, 4, 83, 60
4, 193148, Note_on_c, 4, 78, 60
4, 193160, Note_on_c, 4, 83, 60
4, 193244, Note_off_c, 4, 78, 60
4, 193272, Note_off_c, 4, 83, 60
4, 193334, Note_on_c, 4, 78, 60
4, 193354, Note_on_c, 4, 83, 60
4, 193437, Note_off_c, 4, 78, 60
4, 193449, Note_off_c, 4, 83, 60
4, 193528, Note_on_c, 4, 78, 60
4, 193540, Note_on_c, 4, 83, 60
4, 193672, Note_off_c, 4, 78, 60
4, 193684, Note_off_c, 4, 83, 60
4, 195984, Note_on_c, 4, 77, 60
4, 196020, Note_on_c, 4, 83, 60
4, 196022, Note_on_c, 4, 78, 60
4, 196072, Note_off_c, 4, 77, 60
4, 196166, Note_off_c, 4, 78, 60
4, 196166, Note_off_c, 4, 83, 60
4, 196232, Note_on_c, 4, 78, 60
4, 196232, Note_on_c, 4, 83, 60
4, 196328, Note_off_c, 4, 78, 60
4, 196344, Note_off_c, 4, 83, 60
4, 196410, Note_on_c, 4, 78, 60
4, 196421, Note_on_c, 4, 83, 60
4, 196513, Note_off_c, 4, 78, 60
4, 196516, Note_off_c, 4, 83, 60
4, 196608, Note_on_c, 4, 78, 60
4, 196618, Note_on_c, 4, 83, 60
4, 196752, Note_off_c, 4, 78, 60
4, 196762, Note_off_c, 4, 83, 60
4, 199056, Note_on_c, 4, 77, 60
4, 199099, Note_on_c, 4, 78, 60
4, 199100, Note_on_c, 4, 83, 60
4, 199140, Note_off_c, 4, 77, 60
4, 199220, Note_off_c, 4, 78, 60
4, 199243, Note_off_c, 4, 83, 60
4, 199290, Note_on_c, 4, 78, 60
4, 199300, Note_on_c, 4, 83, 60
4, 199374, Note_off_c, 4, 78, 60
4, 199384, Note_off_c, 4, 83, 60
4, 199476, Note_on_c, 4, 83, 60
4, 199482, Note_on_c, 4, 78, 60
4, 199578, Note_off_c, 4, 78, 60
4, 199580, Note_off_c, 4, 83, 60
4, 199669, Note_on_c, 4, 78, 60
4, 199684, Note_on_c, 4, 83, 60
4, 199805, Note_off_c, 4, 78, 60
4, 199824, Note_off_c, 4, 83, 60
4, 202164, Note_on_c, 4, 78, 60
4, 202171, Note_on_c, 4, 73, 60
4, 202183, Note_on_c, 4, 82, 60
4, 202260, Note_off_c, 4, 78, 60
4, 202267, Note_off_c, 4, 73, 60
4, 202277, Note_off_c, 4, 82, 60
4, 202360, Note_on_c, 4, 82, 60
4, 202361, Note_on_c, 4, 78, 60
4, 202374, Note_on_c, 4, 73, 60
4, 202456, Note_off_c, 4, 82, 60
4, 202457, Note_off_c, 4, 78, 60
4, 202470, Note_off_c, 4, 73, 60
4, 202550, Note_on_c, 4, 78, 60
4, 202555, Note_on_c, 4, 82, 60
4, 202559, Note_on_c, 4, 73, 60
4, 202646, Note_off_c, 4, 78, 60
4, 202655, Note_off_c, 4, 73, 60
4, 202663, Note_off_c, 4, 82, 60
4, 202742, Note_on_c, 4, 73, 60
4, 202745, Note_on_c, 4, 82, 60
4, 202754, Note_on_c, 4, 78, 60
4, 202886, Note_off_c, 4, 73, 60
4, 202889, Note_off_c, 4, 82, 60
4, 202898, Note_off_c, 4, 78, 60
4, 205212, Note_on_c, 4, 77, 60
4, 205248, Note_on_c, 4, 83, 60
4, 205250, Note_on_c, 4, 78, 60
4, 205300, Note_off_c, 4, 77, 60
4, 205394, Note_off_c, 4, 78, 60
4, 205394, Note_off_c, 4, 83, 60
4, 205440, Note_on_c, 4, 83, 60
4, 205440, Note_on_c, 4, 78, 60
4, 205536, Note_off_c, 4, 78, 60
4, 205551, Note_off_c, 4, 83, 60
4, 205632, Note_on_c, 4, 83, 60
4, 205632, Note_on_c, 4, 78, 60
4, 205727, Note_off_c, 4, 83, 60
4, 205735, Note_off_c, 4, 78, 60
4, 205824, Note_on_c, 4, 83, 60
4, 205824, Note_on_c, 4, 78, 60
4, 205968, Note_off_c, 4, 78, 60
4, 205968, Note_off_c, 4, 83, 60
4, 208317, Note_on_c, 4, 78, 60
4, 208328, Note_on_c, 4, 82, 60
4, 208328, Note_on_c, 4, 73, 60
4, 208413, Note_off_c, 4, 78, 60
4, 208422, Note_off_c, 4, 82, 60
4, 208424, Note_off_c, 4, 73, 60
4, 208501, Note_on_c, 4, 73, 60
4, 208518, Note_on_c, 4, 78, 60
4, 208521, Note_on_c, 4, 82, 60
4, 208597, Note_off_c, 4, 73, 60
4, 208614, Note_off_c, 4, 78, 60
4, 208617, Note_off_c, 4, 82, 60
4, 208701, Note_on_c, 4, 73, 60
4, 208707, Note_on_c, 4, 82, 60
4, 208708, Note_on_c, 4, 78, 60
4, 208797, Note_off_c, 4, 73, 60
4, 208804, Note_off_c, 4, 78, 60
4, 208815, Note_off_c, 4, 82, 60
4, 208884, Note_on_c, 4, 73, 60
4, 208889, Note_on_c, 4, 78, 60
4, 208889, Note_on_c, 4, 82, 60
4, 209028, Note_off_c, 4, 73, 60
4, 209033, Note_off_c, 4, 82, 60
4, 209033, Note_off_c, 4, 78, 60
4, 211356, Note_on_c, 4, 77, 60
4, 211392, Note_on_c, 4, 83, 60
4, 211394, Note_on_c, 4, 78, 60
4, 211444, Note_off_c, 4, 77, 60
4, 211538, Note_off_c, 4, 78, 60
4, 211538, Note_off_c, 4, 83, 60
4, 211584, Note_on_c, 4, 83, 60
4, 211584, Note_on_c, 4, 78, 60
4, 211680, Note_off_c, 4, 78, 60
4, 211695, Note_off_c, 4, 83, 60
4, 211776, Note_on_c, 4, 83, 60
4, 211776, Note_on_c, 4, 78, 60
4, 211871, Note_off_c, 4, 83, 60
4, 211879, Note_off_c, 4, 78, 60
4, 211968, Note_on_c, 4, 83, 60
4, 211968, Note_on_c, 4, 78, 60
4, 212112, Note_off_c, 4, 78, 60
4, 212112, Note_off_c, 4, 83, 60
4, 218112, End_track
5, 0, Start_track
5, 0, Title_t, "Sequenced"
5, 3072, End_track
6, 0, Start_track
6, 0, Title_t, "by Joyce "
6, 3072, End_track
0, 0, End_of_file
