0, 0, Header, 0, 1, 384
1, 0, Start_track
1, 0, Time_signature, 4, 2, 24, 8
1, 0, Key_signature, 0, "major"
1, 0, Tempo, 600000
1, 0, Marker_t, "The Lette"
1, 114, Tempo, 441176
1, 506, Program_c, 0, 1
1, 510, Control_c, 0, 7, 90
1, 510, Control_c, 0, 10, 27
1, 510, Control_c, 0, 11, 127
1, 514, Control_c, 0, 91, 76
1, 514, Control_c, 0, 93, 0
1, 526, Program_c, 1, 33
1, 530, Control_c, 1, 10, 64
1, 530, Control_c, 1, 7, 100
1, 530, Control_c, 1, 11, 127
1, 534, Control_c, 1, 93, 0
1, 534, Control_c, 1, 91, 0
1, 546, Program_c, 2, 5
1, 550, Control_c, 2, 7, 100
1, 550, Control_c, 2, 10, 64
1, 550, Control_c, 2, 11, 127
1, 554, Control_c, 2, 93, 64
1, 554, Control_c, 2, 91, 64
1, 566, Program_c, 3, 66
1, 570, Control_c, 3, 7, 90
1, 570, Control_c, 3, 10, 64
1, 570, Control_c, 3, 11, 127
1, 574, Control_c, 3, 91, 90
1, 574, Control_c, 3, 93, 0
1, 586, Program_c, 4, 48
1, 590, Control_c, 4, 7, 90
1, 590, Control_c, 4, 10, 64
1, 590, Control_c, 4, 11, 127
1, 594, Control_c, 4, 93, 0
1, 594, Control_c, 4, 91, 84
1, 606, Program_c, 5, 61
1, 610, Control_c, 5, 11, 127
1, 610, Control_c, 5, 10, 64
1, 610, Control_c, 5, 7, 100
1, 614, Control_c, 5, 91, 64
1, 614, Control_c, 5, 93, 64
1, 626, Program_c, 6, 25
1, 630, Control_c, 6, 7, 90
1, 630, Control_c, 6, 10, 100
1, 630, Control_c, 6, 11, 127
1, 634, Control_c, 6, 93, 0
1, 634, Control_c, 6, 91, 64
1, 690, Control_c, 9, 11, 127
1, 690, Control_c, 9, 7, 110
1, 694, Control_c, 9, 93, 0
1, 694, Control_c, 9, 91, 70
1, 1650, Note_on_c, 9, 42, 63
1, 1662, Note_on_c, 9, 42, 0
1, 2034, Note_on_c, 9, 42, 62
1, 2046, Note_on_c, 9, 42, 0
1, 2418, Note_on_c, 9, 42, 62
1, 2430, Note_on_c, 9, 42, 0
1, 2802, Note_on_c, 9, 42, 61
1, 2814, Note_on_c, 9, 42, 0
1, 3186, Note_on_c, 9, 40, 96
1, 3198, Note_on_c, 9, 40, 0
1, 3570, Note_on_c, 9, 40, 100
1, 3582, Note_on_c, 9, 40, 0
1, 3954, Note_on_c, 9, 40, 102
1, 3966, Note_on_c, 9, 40, 0
1, 4338, Note_on_c, 9, 40, 106
1, 4350, Note_on_c, 9, 40, 0
1, 4722, Note_on_c, 9, 40, 105
1, 4734, Note_on_c, 9, 40, 0
1, 4914, Note_on_c, 0, 40, 125
1, 4914, Note_on_c, 1, 40, 104
1, 4914, Note_on_c, 6, 40, 127
1, 5058, Note_on_c, 0, 40, 0
1, 5100, Note_on_c, 6, 40, 0
1, 5106, Note_on_c, 0, 44, 104
1, 5106, Note_on_c, 9, 40, 100
1, 5106, Note_on_c, 1, 44, 91
1, 5106, Note_on_c, 6, 44, 127
1, 5118, Note_on_c, 9, 40, 0
1, 5126, Note_on_c, 1, 40, 0
1, 5232, Note_on_c, 0, 44, 0
1, 5264, Note_on_c, 6, 44, 0
1, 5288, Note_on_c, 1, 44, 0
1, 5298, Note_on_c, 6, 47, 127
1, 5298, Note_on_c, 0, 47, 110
1, 5298, Note_on_c, 1, 47, 96
1, 5410, Note_on_c, 0, 47, 0
1, 5456, Note_on_c, 6, 47, 0
1, 5490, Note_on_c, 0, 52, 111
1, 5490, Note_on_c, 1, 52, 107
1, 5490, Note_on_c, 9, 40, 105
1, 5490, Note_on_c, 6, 52, 126
1, 5498, Note_on_c, 1, 47, 0
1, 5502, Note_on_c, 9, 40, 0
1, 5618, Note_on_c, 0, 52, 0
1, 5678, Note_on_c, 6, 52, 0
1, 5682, Note_on_c, 6, 50, 126
1, 5682, Note_on_c, 0, 50, 102
1, 5682, Note_on_c, 1, 50, 98
1, 5682, Note_on_c, 1, 52, 0
1, 5804, Note_on_c, 0, 50, 0
1, 5870, Note_on_c, 6, 50, 0
1, 5874, Note_on_c, 9, 54, 113
1, 5874, Note_on_c, 9, 40, 109
1, 5874, Note_on_c, 0, 47, 113
1, 5874, Note_on_c, 1, 47, 96
1, 5874, Note_on_c, 6, 47, 126
1, 5876, Note_on_c, 1, 50, 0
1, 5886, Note_on_c, 9, 54, 0
1, 5886, Note_on_c, 9, 40, 0
1, 6024, Note_on_c, 0, 47, 0
1, 6034, Note_on_c, 6, 47, 0
1, 6066, Note_on_c, 6, 40, 125
1, 6066, Note_on_c, 0, 40, 111
1, 6066, Note_on_c, 1, 40, 104
1, 6076, Note_on_c, 1, 47, 0
1, 6172, Note_on_c, 0, 40, 0
1, 6186, Note_on_c, 6, 40, 0
1, 6240, Note_on_c, 1, 40, 0
1, 6258, Note_on_c, 3, 57, 121
1, 6258, Note_on_c, 9, 42, 92
1, 6258, Note_on_c, 6, 52, 93
1, 6258, Note_on_c, 6, 60, 89
1, 6258, Note_on_c, 0, 45, 102
1, 6258, Note_on_c, 9, 35, 101
1, 6258, Note_on_c, 6, 57, 94
1, 6258, Note_on_c, 1, 45, 124
1, 6270, Note_on_c, 9, 35, 0
1, 6270, Note_on_c, 9, 42, 0
1, 6396, Note_on_c, 3, 57, 0
1, 6406, Note_on_c, 0, 45, 0
1, 6432, Note_on_c, 1, 45, 0
1, 6450, Note_on_c, 1, 45, 104
1, 6450, Note_on_c, 9, 35, 85
1, 6450, Note_on_c, 6, 57, 96
1, 6450, Note_on_c, 3, 57, 116
1, 6450, Note_on_c, 9, 42, 57
1, 6450, Note_on_c, 6, 52, 75
1, 6450, Note_on_c, 0, 45, 99
1, 6450, Note_on_c, 6, 60, 93
1, 6460, Note_on_c, 6, 60, 0
1, 6460, Note_on_c, 6, 52, 0
1, 6460, Note_on_c, 6, 57, 0
1, 6462, Note_on_c, 9, 42, 0
1, 6462, Note_on_c, 9, 35, 0
1, 6568, Note_on_c, 3, 57, 0
1, 6638, Note_on_c, 0, 45, 0
1, 6642, Note_on_c, 9, 42, 77
1, 6642, Note_on_c, 0, 60, 107
1, 6642, Note_on_c, 9, 40, 114
1, 6642, Note_on_c, 9, 54, 102
1, 6642, Note_on_c, 0, 52, 105
1, 6642, Note_on_c, 6, 52, 107
1, 6642, Note_on_c, 3, 57, 116
1, 6642, Note_on_c, 0, 57, 107
1, 6642, Note_on_c, 6, 45, 99
1, 6652, Note_on_c, 6, 52, 0
1, 6652, Note_on_c, 6, 57, 0
1, 6652, Note_on_c, 6, 60, 0
1, 6654, Note_on_c, 9, 42, 0
1, 6654, Note_on_c, 9, 54, 0
1, 6654, Note_on_c, 1, 45, 0
1, 6654, Note_on_c, 9, 40, 0
1, 6716, Note_on_c, 6, 52, 0
1, 6718, Note_on_c, 6, 45, 0
1, 6736, Note_on_c, 3, 57, 0
1, 6742, Note_on_c, 0, 52, 0
1, 6748, Note_on_c, 0, 57, 0
1, 6760, Note_on_c, 0, 60, 0
1, 6834, Note_on_c, 6, 57, 91
1, 6834, Note_on_c, 0, 45, 109
1, 6834, Note_on_c, 1, 40, 117
1, 6834, Note_on_c, 6, 60, 91
1, 6834, Note_on_c, 6, 52, 83
1, 6834, Note_on_c, 3, 57, 124
1, 6834, Note_on_c, 9, 42, 61
1, 6846, Note_on_c, 9, 42, 0
1, 6924, Note_on_c, 0, 45, 0
1, 7014, Note_on_c, 1, 40, 0
1, 7026, Note_on_c, 9, 42, 76
1, 7026, Note_on_c, 6, 52, 88
1, 7026, Note_on_c, 6, 60, 96
1, 7026, Note_on_c, 1, 45, 118
1, 7026, Note_on_c, 6, 57, 92
1, 7026, Note_on_c, 0, 45, 111
1, 7026, Note_on_c, 9, 35, 103
1, 7036, Note_on_c, 6, 57, 0
1, 7036, Note_on_c, 6, 60, 0
1, 7036, Note_on_c, 6, 52, 0
1, 7038, Note_on_c, 9, 35, 0
1, 7038, Note_on_c, 9, 42, 0
1, 7076, Note_on_c, 3, 57, 0
1, 7090, Control_c, 3, 1, 2
1, 7106, Control_c, 3, 1, 4
1, 7118, Control_c, 3, 1, 6
1, 7142, Control_c, 3, 1, 7
1, 7156, Control_c, 3, 1, 8
1, 7192, Note_on_c, 1, 45, 0
1, 7194, Control_c, 3, 1, 9
1, 7208, Control_c, 3, 1, 10
1, 7218, Note_on_c, 9, 35, 91
1, 7218, Note_on_c, 1, 45, 117
1, 7218, Note_on_c, 6, 52, 91
1, 7218, Note_on_c, 0, 57, 107
1, 7218, Note_on_c, 0, 60, 109
1, 7218, Note_on_c, 3, 57, 123
1, 7218, Note_on_c, 0, 52, 103
1, 7218, Note_on_c, 9, 42, 54
1, 7218, Note_on_c, 6, 57, 101
1, 7218, Note_on_c, 6, 60, 101
1, 7224, Control_c, 3, 1, 14
1, 7226, Note_on_c, 0, 45, 0
1, 7228, Note_on_c, 6, 60, 0
1, 7228, Note_on_c, 6, 52, 0
1, 7228, Note_on_c, 6, 57, 0
1, 7230, Note_on_c, 9, 35, 0
1, 7230, Note_on_c, 9, 42, 0
1, 7244, Control_c, 3, 1, 18
1, 7264, Control_c, 3, 1, 23
1, 7284, Control_c, 3, 1, 26
1, 7296, Control_c, 3, 1, 29
1, 7318, Control_c, 3, 1, 31
1, 7334, Note_on_c, 3, 57, 0
1, 7340, Note_on_c, 0, 52, 0
1, 7362, Control_c, 3, 1, 32
1, 7368, Control_c, 3, 1, 34
1, 7400, Control_c, 3, 1, 35
1, 7410, Note_on_c, 3, 57, 104
1, 7410, Note_on_c, 9, 40, 111
1, 7410, Note_on_c, 9, 42, 82
1, 7410, Note_on_c, 6, 52, 107
1, 7410, Note_on_c, 9, 54, 110
1, 7410, Note_on_c, 0, 52, 101
1, 7410, Note_on_c, 6, 45, 101
1, 7412, Control_c, 3, 1, 36
1, 7420, Note_on_c, 6, 52, 0
1, 7420, Note_on_c, 6, 57, 0
1, 7420, Note_on_c, 6, 60, 0
1, 7422, Note_on_c, 9, 42, 0
1, 7422, Note_on_c, 9, 40, 0
1, 7422, Note_on_c, 9, 54, 0
1, 7422, Note_on_c, 1, 45, 0
1, 7432, Control_c, 3, 1, 37
1, 7462, Control_c, 3, 1, 36
1, 7478, Control_c, 3, 1, 31
1, 7482, Note_on_c, 6, 52, 0
1, 7490, Note_on_c, 6, 45, 0
1, 7496, Control_c, 3, 1, 27
1, 7496, Note_on_c, 3, 57, 0
1, 7516, Control_c, 3, 1, 25
1, 7530, Control_c, 3, 1, 21
1, 7570, Note_on_c, 0, 52, 0
1, 7574, Control_c, 3, 1, 25
1, 7586, Control_c, 3, 1, 29
1, 7586, Note_on_c, 0, 57, 0
1, 7602, Note_on_c, 0, 45, 113
1, 7602, Note_on_c, 6, 60, 87
1, 7602, Note_on_c, 6, 57, 87
1, 7602, Note_on_c, 9, 42, 58
1, 7602, Note_on_c, 1, 40, 114
1, 7602, Note_on_c, 6, 53, 80
1, 7602, Note_on_c, 3, 60, 125
1, 7606, Control_c, 3, 1, 31
1, 7608, Note_on_c, 0, 60, 0
1, 7614, Note_on_c, 9, 42, 0
1, 7626, Control_c, 3, 1, 33
1, 7638, Control_c, 3, 1, 35
1, 7660, Control_c, 3, 1, 37
1, 7678, Control_c, 3, 1, 39
1, 7716, Control_c, 3, 1, 41
1, 7726, Note_on_c, 0, 45, 0
1, 7728, Control_c, 3, 1, 42
1, 7768, Control_c, 3, 1, 40
1, 7782, Control_c, 3, 1, 36
1, 7786, Note_on_c, 1, 40, 0
1, 7794, Note_on_c, 1, 41, 114
1, 7794, Note_on_c, 9, 42, 77
1, 7794, Note_on_c, 6, 60, 84
1, 7794, Note_on_c, 9, 35, 103
1, 7794, Note_on_c, 6, 53, 87
1, 7794, Note_on_c, 0, 41, 102
1, 7794, Note_on_c, 6, 57, 93
1, 7804, Note_on_c, 6, 57, 0
1, 7804, Note_on_c, 6, 53, 0
1, 7804, Note_on_c, 6, 60, 0
1, 7806, Note_on_c, 9, 35, 0
1, 7806, Note_on_c, 9, 42, 0
1, 7818, Control_c, 3, 1, 38
1, 7838, Control_c, 3, 1, 40
1, 7858, Control_c, 3, 1, 43
1, 7876, Control_c, 3, 1, 47
1, 7896, Control_c, 3, 1, 50
1, 7898, Note_on_c, 0, 41, 0
1, 7900, Note_on_c, 3, 60, 0
1, 7920, Control_c, 3, 1, 49
1, 7930, Control_c, 3, 1, 34
1, 7948, Control_c, 3, 1, 22
1, 7962, Control_c, 3, 1, 6
1, 7968, Note_on_c, 1, 41, 0
1, 7980, Control_c, 3, 1, 0
1, 7986, Note_on_c, 1, 41, 99
1, 7986, Note_on_c, 3, 57, 112
1, 7986, Note_on_c, 9, 35, 91
1, 7986, Note_on_c, 9, 42, 69
1, 7986, Note_on_c, 6, 53, 83
1, 7986, Note_on_c, 6, 57, 88
1, 7986, Note_on_c, 0, 41, 103
1, 7986, Note_on_c, 6, 60, 88
1, 7996, Note_on_c, 6, 60, 0
1, 7996, Note_on_c, 6, 57, 0
1, 7996, Note_on_c, 6, 53, 0
1, 7998, Note_on_c, 9, 42, 0
1, 7998, Note_on_c, 9, 35, 0
1, 8074, Note_on_c, 3, 57, 0
1, 8178, Note_on_c, 9, 40, 120
1, 8178, Note_on_c, 0, 53, 107
1, 8178, Note_on_c, 6, 41, 101
1, 8178, Note_on_c, 6, 48, 107
1, 8178, Note_on_c, 9, 42, 96
1, 8178, Note_on_c, 9, 54, 117
1, 8178, Note_on_c, 0, 60, 114
1, 8178, Note_on_c, 0, 57, 116
1, 8186, Note_on_c, 0, 41, 0
1, 8188, Note_on_c, 6, 57, 0
1, 8188, Note_on_c, 6, 53, 0
1, 8188, Note_on_c, 6, 60, 0
1, 8190, Note_on_c, 9, 42, 0
1, 8190, Note_on_c, 9, 54, 0
1, 8190, Note_on_c, 9, 40, 0
1, 8218, Note_on_c, 1, 41, 0
1, 8250, Note_on_c, 6, 48, 0
1, 8258, Note_on_c, 6, 41, 0
1, 8354, Note_on_c, 0, 53, 0
1, 8362, Note_on_c, 0, 57, 0
1, 8370, Note_on_c, 1, 36, 115
1, 8370, Note_on_c, 9, 42, 66
1, 8370, Note_on_c, 6, 53, 89
1, 8370, Note_on_c, 0, 41, 109
1, 8370, Note_on_c, 6, 57, 97
1, 8370, Note_on_c, 6, 60, 97
1, 8376, Note_on_c, 0, 60, 0
1, 8382, Note_on_c, 9, 42, 0
1, 8546, Note_on_c, 1, 36, 0
1, 8562, Note_on_c, 6, 53, 88
1, 8562, Note_on_c, 6, 60, 99
1, 8562, Note_on_c, 9, 35, 109
1, 8562, Note_on_c, 9, 42, 86
1, 8562, Note_on_c, 6, 57, 96
1, 8562, Note_on_c, 1, 41, 117
1, 8562, Note_on_c, 0, 53, 99
1, 8572, Note_on_c, 6, 57, 0
1, 8572, Note_on_c, 6, 60, 0
1, 8572, Note_on_c, 6, 53, 0
1, 8574, Note_on_c, 9, 42, 0
1, 8574, Note_on_c, 9, 35, 0
1, 8644, Note_on_c, 0, 53, 0
1, 8742, Note_on_c, 1, 41, 0
1, 8754, Note_on_c, 6, 53, 89
1, 8754, Note_on_c, 6, 60, 97
1, 8754, Note_on_c, 6, 57, 96
1, 8754, Note_on_c, 0, 60, 120
1, 8754, Note_on_c, 0, 57, 118
1, 8754, Note_on_c, 9, 35, 89
1, 8754, Note_on_c, 1, 41, 104
1, 8754, Note_on_c, 9, 42, 77
1, 8754, Note_on_c, 0, 53, 113
1, 8764, Note_on_c, 6, 57, 0
1, 8764, Note_on_c, 6, 60, 0
1, 8764, Note_on_c, 6, 53, 0
1, 8766, Note_on_c, 9, 35, 0
1, 8766, Note_on_c, 9, 42, 0
1, 8818, Note_on_c, 0, 41, 0
1, 8942, Note_on_c, 1, 41, 0
1, 8946, Note_on_c, 9, 42, 91
1, 8946, Note_on_c, 6, 41, 101
1, 8946, Note_on_c, 9, 40, 124
1, 8946, Note_on_c, 9, 54, 115
1, 8946, Note_on_c, 0, 41, 111
1, 8946, Note_on_c, 6, 48, 107
1, 8956, Note_on_c, 6, 57, 0
1, 8956, Note_on_c, 6, 60, 0
1, 8956, Note_on_c, 6, 53, 0
1, 8958, Note_on_c, 9, 54, 0
1, 8958, Note_on_c, 9, 40, 0
1, 8958, Note_on_c, 9, 42, 0
1, 8996, Note_on_c, 0, 53, 0
1, 9018, Note_on_c, 6, 48, 0
1, 9026, Note_on_c, 6, 41, 0
1, 9086, Pitch_bend_c, 3, 8160
1, 9092, Pitch_bend_c, 3, 7008
1, 9104, Pitch_bend_c, 3, 4960
1, 9114, Note_on_c, 0, 41, 0
1, 9116, Pitch_bend_c, 3, 2624
1, 9136, Pitch_bend_c, 3, 2304
1, 9138, Note_on_c, 0, 53, 89
1, 9138, Note_on_c, 9, 42, 70
1, 9138, Note_on_c, 6, 57, 79
1, 9138, Note_on_c, 1, 38, 118
1, 9138, Note_on_c, 6, 53, 77
1, 9138, Note_on_c, 6, 60, 76
1, 9138, Note_on_c, 3, 60, 127
1, 9150, Pitch_bend_c, 3, 3040
1, 9150, Note_on_c, 9, 42, 0
1, 9162, Pitch_bend_c, 3, 4736
1, 9176, Pitch_bend_c, 3, 6720
1, 9188, Pitch_bend_c, 3, 7936
1, 9200, Pitch_bend_c, 3, 8192
1, 9210, Note_on_c, 0, 57, 0
1, 9246, Note_on_c, 0, 60, 0
1, 9258, Note_on_c, 0, 53, 0
1, 9296, Note_on_c, 1, 38, 0
1, 9330, Note_on_c, 4, 72, 114
1, 9330, Note_on_c, 6, 55, 85
1, 9330, Note_on_c, 9, 42, 80
1, 9330, Note_on_c, 9, 35, 107
1, 9330, Note_on_c, 6, 59, 92
1, 9330, Note_on_c, 0, 43, 127
1, 9330, Note_on_c, 6, 62, 100
1, 9330, Note_on_c, 1, 43, 117
1, 9340, Note_on_c, 6, 57, 0
1, 9340, Note_on_c, 6, 60, 0
1, 9340, Note_on_c, 6, 53, 0
1, 9342, Note_on_c, 9, 35, 0
1, 9342, Note_on_c, 9, 42, 0
1, 9358, Note_on_c, 3, 60, 0
1, 9496, Note_on_c, 1, 43, 0
1, 9522, Note_on_c, 6, 59, 99
1, 9522, Note_on_c, 6, 55, 97
1, 9522, Note_on_c, 6, 62, 101
1, 9522, Note_on_c, 9, 42, 70
1, 9522, Note_on_c, 1, 43, 106
1, 9522, Note_on_c, 9, 35, 96
1, 9522, Note_on_c, 3, 60, 120
1, 9522, Note_on_c, 0, 55, 91
1, 9532, Note_on_c, 6, 62, 0
1, 9532, Note_on_c, 6, 55, 0
1, 9532, Note_on_c, 6, 59, 0
1, 9534, Note_on_c, 9, 42, 0
1, 9534, Note_on_c, 9, 35, 0
1, 9568, Control_c, 3, 1, 2
1, 9600, Control_c, 3, 1, 0
1, 9614, Note_on_c, 0, 55, 0
1, 9670, Control_c, 3, 1, 1
1, 9676, Control_c, 3, 1, 2
1, 9676, Note_on_c, 3, 60, 0
1, 9690, Control_c, 3, 1, 3
1, 9714, Note_on_c, 6, 43, 101
1, 9714, Note_on_c, 0, 60, 116
1, 9714, Note_on_c, 3, 60, 119
1, 9714, Note_on_c, 6, 50, 107
1, 9714, Note_on_c, 0, 55, 125
1, 9714, Note_on_c, 9, 40, 120
1, 9714, Note_on_c, 9, 42, 86
1, 9714, Note_on_c, 9, 54, 115
1, 9714, Note_on_c, 0, 62, 116
1, 9718, Control_c, 3, 1, 4
1, 9724, Note_on_c, 6, 55, 0
1, 9724, Note_on_c, 6, 62, 0
1, 9724, Note_on_c, 1, 43, 0
1, 9724, Note_on_c, 6, 59, 0
1, 9726, Note_on_c, 9, 40, 0
1, 9726, Note_on_c, 9, 42, 0
1, 9726, Note_on_c, 9, 54, 0
1, 9730, Control_c, 3, 1, 6
1, 9750, Control_c, 3, 1, 9
1, 9756, Note_on_c, 0, 43, 0
1, 9768, Control_c, 3, 1, 11
1, 9784, Control_c, 3, 1, 12
1, 9786, Note_on_c, 6, 50, 0
1, 9794, Note_on_c, 6, 43, 0
1, 9800, Control_c, 3, 1, 15
1, 9820, Control_c, 3, 1, 17
1, 9840, Control_c, 3, 1, 19
1, 9854, Control_c, 3, 1, 22
1, 9856, Note_on_c, 3, 60, 0
1, 9898, Control_c, 3, 1, 20
1, 9906, Note_on_c, 6, 55, 77
1, 9906, Note_on_c, 1, 38, 115
1, 9906, Note_on_c, 0, 43, 127
1, 9906, Note_on_c, 3, 60, 125
1, 9906, Note_on_c, 9, 42, 69
1, 9906, Note_on_c, 6, 59, 77
1, 9906, Note_on_c, 6, 62, 67
1, 9912, Control_c, 3, 1, 17
1, 9918, Note_on_c, 9, 42, 0
1, 9930, Control_c, 3, 1, 19
1, 9944, Control_c, 3, 1, 21
1, 9962, Control_c, 3, 1, 23
1, 9978, Note_on_c, 0, 55, 0
1, 10032, Control_c, 3, 1, 26
1, 10052, Control_c, 3, 1, 28
1, 10058, Note_on_c, 0, 60, 0
1, 10074, Note_on_c, 1, 38, 0
1, 10078, Control_c, 3, 1, 29
1, 10080, Note_on_c, 0, 62, 0
1, 10090, Control_c, 3, 1, 30
1, 10098, Note_on_c, 6, 55, 92
1, 10098, Note_on_c, 6, 59, 97
1, 10098, Note_on_c, 1, 43, 117
1, 10098, Note_on_c, 9, 42, 84
1, 10098, Note_on_c, 6, 62, 96
1, 10098, Note_on_c, 0, 55, 110
1, 10098, Note_on_c, 4, 71, 114
1, 10098, Note_on_c, 9, 35, 106
1, 10102, Note_on_c, 4, 72, 0
1, 10108, Note_on_c, 6, 62, 0
1, 10108, Note_on_c, 6, 59, 0
1, 10108, Note_on_c, 6, 55, 0
1, 10110, Note_on_c, 9, 42, 0
1, 10110, Note_on_c, 9, 35, 0
1, 10112, Control_c, 3, 1, 27
1, 10122, Note_on_c, 3, 60, 0
1, 10142, Control_c, 3, 1, 31
1, 10160, Control_c, 3, 1, 33
1, 10182, Control_c, 3, 1, 34
1, 10196, Note_on_c, 0, 55, 0
1, 10216, Control_c, 3, 1, 35
1, 10240, Control_c, 3, 1, 36
1, 10276, Note_on_c, 1, 43, 0
1, 10290, Note_on_c, 9, 42, 71
1, 10290, Note_on_c, 6, 59, 102
1, 10290, Note_on_c, 9, 35, 99
1, 10290, Note_on_c, 6, 62, 105
1, 10290, Note_on_c, 6, 55, 98
1, 10290, Note_on_c, 0, 59, 120
1, 10290, Note_on_c, 3, 60, 120
1, 10290, Note_on_c, 1, 43, 107
1, 10290, Note_on_c, 0, 62, 114
1, 10290, Note_on_c, 0, 55, 116
1, 10292, Note_on_c, 0, 43, 0
1, 10300, Note_on_c, 6, 55, 0
1, 10300, Note_on_c, 6, 62, 0
1, 10300, Note_on_c, 6, 59, 0
1, 10302, Note_on_c, 9, 35, 0
1, 10302, Note_on_c, 9, 42, 0
1, 10316, Control_c, 3, 1, 35
1, 10338, Control_c, 3, 1, 38
1, 10356, Control_c, 3, 1, 39
1, 10374, Control_c, 3, 1, 37
1, 10408, Control_c, 3, 1, 38
1, 10414, Control_c, 3, 1, 41
1, 10418, Note_on_c, 3, 60, 0
1, 10440, Control_c, 3, 1, 42
1, 10460, Control_c, 3, 1, 43
1, 10472, Control_c, 3, 1, 44
1, 10482, Note_on_c, 6, 43, 101
1, 10482, Note_on_c, 6, 50, 107
1, 10482, Note_on_c, 3, 60, 121
1, 10482, Note_on_c, 9, 42, 90
1, 10482, Note_on_c, 0, 43, 107
1, 10482, Note_on_c, 9, 40, 122
1, 10482, Note_on_c, 9, 54, 113
1, 10486, Control_c, 3, 1, 38
1, 10492, Note_on_c, 6, 62, 0
1, 10492, Note_on_c, 6, 55, 0
1, 10492, Note_on_c, 6, 59, 0
1, 10494, Note_on_c, 9, 42, 0
1, 10494, Note_on_c, 9, 54, 0
1, 10494, Note_on_c, 9, 40, 0
1, 10500, Control_c, 3, 1, 16
1, 10516, Note_on_c, 1, 43, 0
1, 10522, Control_c, 3, 1, 6
1, 10538, Control_c, 3, 1, 0
1, 10552, Note_on_c, 0, 55, 0
1, 10554, Note_on_c, 6, 50, 0
1, 10562, Note_on_c, 6, 43, 0
1, 10596, Note_on_c, 3, 60, 0
1, 10632, Pitch_bend_c, 3, 7776
1, 10638, Note_on_c, 0, 43, 0
1, 10644, Pitch_bend_c, 3, 6112
1, 10656, Pitch_bend_c, 3, 3968
1, 10670, Pitch_bend_c, 3, 2368
1, 10674, Note_on_c, 6, 55, 72
1, 10674, Note_on_c, 3, 60, 121
1, 10674, Note_on_c, 0, 55, 95
1, 10674, Note_on_c, 6, 62, 69
1, 10674, Note_on_c, 9, 42, 74
1, 10674, Note_on_c, 1, 45, 115
1, 10674, Note_on_c, 6, 59, 74
1, 10686, Note_on_c, 9, 42, 0
1, 10690, Pitch_bend_c, 3, 2464
1, 10704, Pitch_bend_c, 3, 3424
1, 10716, Pitch_bend_c, 3, 4832
1, 10730, Pitch_bend_c, 3, 6272
1, 10742, Pitch_bend_c, 3, 7616
1, 10756, Pitch_bend_c, 3, 8000
1, 10762, Pitch_bend_c, 3, 8192
1, 10766, Note_on_c, 0, 59, 0
1, 10774, Note_on_c, 0, 62, 0
1, 10810, Note_on_c, 4, 71, 0
1, 10822, Note_on_c, 0, 55, 0
1, 10860, Note_on_c, 1, 45, 0
1, 10866, Note_on_c, 1, 38, 113
1, 10866, Note_on_c, 6, 54, 84
1, 10866, Note_on_c, 0, 50, 120
1, 10866, Note_on_c, 9, 42, 83
1, 10866, Note_on_c, 6, 57, 99
1, 10866, Note_on_c, 6, 62, 91
1, 10866, Note_on_c, 4, 69, 110
1, 10866, Note_on_c, 9, 35, 109
1, 10876, Note_on_c, 6, 62, 0
1, 10876, Note_on_c, 6, 59, 0
1, 10876, Note_on_c, 6, 55, 0
1, 10878, Note_on_c, 9, 42, 0
1, 10878, Note_on_c, 9, 35, 0
1, 10944, Note_on_c, 3, 60, 0
1, 11036, Note_on_c, 1, 38, 0
1, 11058, Note_on_c, 9, 42, 72
1, 11058, Note_on_c, 3, 57, 127
1, 11058, Note_on_c, 6, 54, 92
1, 11058, Note_on_c, 9, 35, 97
1, 11058, Note_on_c, 6, 62, 96
1, 11058, Note_on_c, 6, 57, 109
1, 11058, Note_on_c, 1, 38, 113
1, 11058, Note_on_c, 0, 54, 87
1, 11068, Note_on_c, 6, 57, 0
1, 11068, Note_on_c, 6, 62, 0
1, 11068, Note_on_c, 6, 54, 0
1, 11070, Note_on_c, 9, 42, 0
1, 11070, Note_on_c, 9, 35, 0
1, 11104, Control_c, 3, 1, 2
1, 11112, Control_c, 3, 1, 12
1, 11130, Control_c, 3, 1, 21
1, 11150, Control_c, 3, 1, 27
1, 11150, Note_on_c, 0, 54, 0
1, 11168, Control_c, 3, 1, 31
1, 11186, Control_c, 3, 1, 36
1, 11206, Control_c, 3, 1, 41
1, 11222, Control_c, 3, 1, 48
1, 11240, Control_c, 3, 1, 49
1, 11250, Note_on_c, 9, 54, 115
1, 11250, Note_on_c, 6, 45, 101
1, 11250, Note_on_c, 6, 50, 107
1, 11250, Note_on_c, 0, 54, 108
1, 11250, Note_on_c, 0, 57, 113
1, 11250, Note_on_c, 9, 40, 120
1, 11250, Note_on_c, 0, 62, 110
1, 11250, Note_on_c, 9, 42, 92
1, 11252, Note_on_c, 1, 38, 0
1, 11260, Control_c, 3, 1, 24
1, 11260, Note_on_c, 6, 57, 0
1, 11260, Note_on_c, 6, 54, 0
1, 11260, Note_on_c, 6, 62, 0
1, 11262, Note_on_c, 9, 54, 0
1, 11262, Note_on_c, 9, 42, 0
1, 11262, Note_on_c, 9, 40, 0
1, 11278, Control_c, 3, 1, 2
1, 11288, Note_on_c, 0, 50, 0
1, 11296, Control_c, 3, 1, 0
1, 11322, Note_on_c, 3, 57, 0
1, 11322, Note_on_c, 6, 50, 0
1, 11330, Note_on_c, 6, 45, 0
1, 11442, Note_on_c, 6, 54, 81
1, 11442, Note_on_c, 0, 50, 127
1, 11442, Note_on_c, 9, 42, 73
1, 11442, Note_on_c, 6, 57, 84
1, 11442, Note_on_c, 6, 62, 85
1, 11442, Note_on_c, 1, 45, 120
1, 11454, Note_on_c, 9, 42, 0
1, 11514, Note_on_c, 0, 54, 0
1, 11586, Note_on_c, 0, 62, 0
1, 11586, Note_on_c, 0, 57, 0
1, 11634, Note_on_c, 6, 54, 87
1, 11634, Note_on_c, 9, 35, 107
1, 11634, Note_on_c, 9, 42, 77
1, 11634, Note_on_c, 6, 62, 95
1, 11634, Note_on_c, 1, 38, 114
1, 11634, Note_on_c, 6, 57, 98
1, 11634, Note_on_c, 0, 54, 96
1, 11644, Note_on_c, 6, 57, 0
1, 11644, Note_on_c, 6, 54, 0
1, 11644, Note_on_c, 6, 62, 0
1, 11644, Note_on_c, 1, 45, 0
1, 11646, Note_on_c, 9, 35, 0
1, 11646, Note_on_c, 9, 42, 0
1, 11736, Note_on_c, 0, 54, 0
1, 11808, Note_on_c, 1, 38, 0
1, 11826, Note_on_c, 1, 38, 115
1, 11826, Note_on_c, 9, 35, 95
1, 11826, Note_on_c, 6, 54, 96
1, 11826, Note_on_c, 0, 54, 112
1, 11826, Note_on_c, 9, 42, 71
1, 11826, Note_on_c, 6, 57, 105
1, 11826, Note_on_c, 0, 57, 125
1, 11826, Note_on_c, 0, 62, 125
1, 11826, Note_on_c, 6, 62, 102
1, 11826, Note_on_c, 0, 50, 0
1, 11836, Note_on_c, 6, 57, 0
1, 11836, Note_on_c, 6, 54, 0
1, 11836, Note_on_c, 6, 62, 0
1, 11838, Note_on_c, 9, 42, 0
1, 11838, Note_on_c, 9, 35, 0
1, 12018, Note_on_c, 0, 50, 118
1, 12018, Note_on_c, 9, 40, 127
1, 12018, Note_on_c, 9, 54, 113
1, 12018, Note_on_c, 6, 50, 107
1, 12018, Note_on_c, 9, 42, 91
1, 12018, Note_on_c, 6, 45, 101
1, 12028, Note_on_c, 6, 62, 0
1, 12028, Note_on_c, 6, 54, 0
1, 12028, Note_on_c, 6, 57, 0
1, 12030, Note_on_c, 9, 40, 0
1, 12030, Note_on_c, 9, 54, 0
1, 12030, Note_on_c, 9, 42, 0
1, 12042, Note_on_c, 0, 54, 0
1, 12048, Note_on_c, 1, 38, 0
1, 12090, Note_on_c, 6, 50, 0
1, 12098, Note_on_c, 6, 45, 0
1, 12156, Note_on_c, 4, 69, 0
1, 12160, Note_on_c, 0, 50, 0
1, 12170, Pitch_bend_c, 3, 7392
1, 12182, Pitch_bend_c, 3, 5024
1, 12196, Pitch_bend_c, 3, 1760
1, 12210, Note_on_c, 6, 62, 85
1, 12210, Note_on_c, 6, 57, 91
1, 12210, Note_on_c, 3, 64, 125
1, 12210, Note_on_c, 1, 40, 114
1, 12210, Note_on_c, 0, 54, 84
1, 12210, Note_on_c, 9, 46, 70
1, 12214, Pitch_bend_c, 3, 1088
1, 12222, Note_on_c, 9, 46, 0
1, 12228, Pitch_bend_c, 3, 1216
1, 12242, Pitch_bend_c, 3, 2080
1, 12254, Pitch_bend_c, 3, 3456
1, 12258, Note_on_c, 0, 57, 0
1, 12268, Pitch_bend_c, 3, 5024
1, 12280, Pitch_bend_c, 3, 6560
1, 12294, Pitch_bend_c, 3, 8032
1, 12312, Pitch_bend_c, 3, 8192
1, 12326, Note_on_c, 0, 54, 0
1, 12350, Note_on_c, 0, 62, 0
1, 12356, Note_on_c, 1, 40, 0
1, 12402, Note_on_c, 6, 52, 96
1, 12402, Note_on_c, 9, 42, 92
1, 12402, Note_on_c, 6, 60, 95
1, 12402, Note_on_c, 6, 57, 94
1, 12402, Note_on_c, 0, 45, 113
1, 12402, Note_on_c, 9, 35, 101
1, 12402, Note_on_c, 1, 45, 124
1, 12412, Note_on_c, 6, 57, 0
1, 12412, Note_on_c, 6, 62, 0
1, 12414, Note_on_c, 9, 35, 0
1, 12414, Note_on_c, 9, 42, 0
1, 12510, Note_on_c, 3, 64, 0
1, 12576, Note_on_c, 1, 45, 0
1, 12594, Note_on_c, 6, 52, 87
1, 12594, Note_on_c, 6, 57, 96
1, 12594, Note_on_c, 1, 45, 104
1, 12594, Note_on_c, 9, 35, 85
1, 12594, Note_on_c, 9, 42, 57
1, 12594, Note_on_c, 3, 64, 116
1, 12594, Note_on_c, 6, 60, 91
1, 12604, Note_on_c, 6, 60, 0
1, 12604, Note_on_c, 6, 57, 0
1, 12604, Note_on_c, 6, 52, 0
1, 12606, Note_on_c, 9, 35, 0
1, 12606, Note_on_c, 9, 42, 0
1, 12676, Note_on_c, 3, 64, 0
1, 12724, Pitch_bend_c, 3, 8032
1, 12730, Pitch_bend_c, 3, 6112
1, 12742, Pitch_bend_c, 3, 3040
1, 12756, Pitch_bend_c, 3, 320
1, 12774, Pitch_bend_c, 3, 0
1, 12786, Note_on_c, 6, 45, 101
1, 12786, Note_on_c, 9, 42, 77
1, 12786, Note_on_c, 9, 40, 114
1, 12786, Note_on_c, 0, 64, 109
1, 12786, Note_on_c, 0, 60, 114
1, 12786, Note_on_c, 0, 69, 103
1, 12786, Note_on_c, 3, 64, 127
1, 12786, Note_on_c, 6, 52, 107
1, 12786, Note_on_c, 9, 54, 113
1, 12796, Note_on_c, 6, 52, 0
1, 12796, Note_on_c, 6, 60, 0
1, 12796, Note_on_c, 6, 57, 0
1, 12798, Pitch_bend_c, 3, 1536
1, 12798, Note_on_c, 9, 40, 0
1, 12798, Note_on_c, 1, 45, 0
1, 12798, Note_on_c, 9, 42, 0
1, 12798, Note_on_c, 9, 54, 0
1, 12814, Pitch_bend_c, 3, 3040
1, 12826, Pitch_bend_c, 3, 4512
1, 12840, Pitch_bend_c, 3, 6272
1, 12858, Note_on_c, 6, 52, 0
1, 12860, Pitch_bend_c, 3, 7200
1, 12866, Note_on_c, 6, 45, 0
1, 12874, Pitch_bend_c, 3, 7872
1, 12888, Pitch_bend_c, 3, 8096
1, 12894, Pitch_bend_c, 3, 8192
1, 12924, Note_on_c, 0, 45, 0
1, 12926, Note_on_c, 3, 64, 0
1, 12978, Note_on_c, 1, 40, 117
1, 12978, Note_on_c, 6, 52, 78
1, 12978, Note_on_c, 6, 60, 85
1, 12978, Note_on_c, 3, 64, 111
1, 12978, Note_on_c, 9, 42, 61
1, 12978, Note_on_c, 6, 57, 87
1, 12990, Note_on_c, 9, 42, 0
1, 13062, Note_on_c, 3, 64, 0
1, 13134, Note_on_c, 0, 69, 0
1, 13136, Note_on_c, 0, 64, 0
1, 13146, Note_on_c, 0, 60, 0
1, 13158, Note_on_c, 1, 40, 0
1, 13170, Note_on_c, 6, 60, 92
1, 13170, Note_on_c, 3, 62, 119
1, 13170, Note_on_c, 6, 52, 91
1, 13170, Note_on_c, 0, 45, 123
1, 13170, Note_on_c, 9, 42, 76
1, 13170, Note_on_c, 6, 57, 91
1, 13170, Control_c, 3, 1, 5
1, 13170, Note_on_c, 1, 45, 118
1, 13170, Note_on_c, 9, 35, 103
1, 13180, Note_on_c, 6, 57, 0
1, 13180, Note_on_c, 6, 52, 0
1, 13180, Note_on_c, 6, 60, 0
1, 13182, Control_c, 3, 1, 14
1, 13182, Note_on_c, 9, 42, 0
1, 13182, Note_on_c, 9, 35, 0
1, 13204, Control_c, 3, 1, 25
1, 13224, Control_c, 3, 1, 33
1, 13236, Control_c, 3, 1, 44
1, 13256, Control_c, 3, 1, 51
1, 13274, Control_c, 3, 1, 54
1, 13290, Control_c, 3, 1, 58
1, 13308, Control_c, 3, 1, 61
1, 13326, Control_c, 3, 1, 45
1, 13336, Note_on_c, 1, 45, 0
1, 13336, Note_on_c, 3, 62, 0
1, 13346, Control_c, 3, 1, 17
1, 13362, Note_on_c, 1, 45, 117
1, 13362, Note_on_c, 0, 69, 109
1, 13362, Note_on_c, 0, 64, 111
1, 13362, Note_on_c, 6, 60, 93
1, 13362, Note_on_c, 6, 57, 95
1, 13362, Note_on_c, 3, 60, 114
1, 13362, Note_on_c, 0, 60, 106
1, 13362, Note_on_c, 6, 52, 88
1, 13362, Note_on_c, 9, 35, 91
1, 13362, Note_on_c, 9, 42, 54
1, 13366, Control_c, 3, 1, 3
1, 13372, Note_on_c, 6, 52, 0
1, 13372, Note_on_c, 6, 60, 0
1, 13372, Note_on_c, 6, 57, 0
1, 13374, Note_on_c, 9, 35, 0
1, 13374, Note_on_c, 9, 42, 0
1, 13380, Control_c, 3, 1, 0
1, 13428, Note_on_c, 3, 60, 0
1, 13514, Note_on_c, 0, 60, 0
1, 13554, Note_on_c, 9, 54, 117
1, 13554, Note_on_c, 0, 60, 91
1, 13554, Note_on_c, 6, 45, 87
1, 13554, Note_on_c, 9, 42, 82
1, 13554, Note_on_c, 6, 52, 87
1, 13554, Note_on_c, 9, 40, 111
1, 13564, Note_on_c, 6, 52, 0
1, 13564, Note_on_c, 6, 57, 0
1, 13564, Note_on_c, 6, 60, 0
1, 13566, Note_on_c, 9, 42, 0
1, 13566, Note_on_c, 1, 45, 0
1, 13566, Note_on_c, 9, 54, 0
1, 13566, Note_on_c, 9, 40, 0
1, 13588, Note_on_c, 0, 45, 0
1, 13628, Note_on_c, 6, 52, 0
1, 13628, Note_on_c, 6, 45, 0
1, 13720, Note_on_c, 0, 69, 0
1, 13722, Pitch_bend_c, 3, 7616
1, 13732, Note_on_c, 0, 64, 0
1, 13734, Note_on_c, 0, 60, 0
1, 13736, Pitch_bend_c, 3, 4832
1, 13746, Note_on_c, 9, 42, 58
1, 13746, Note_on_c, 6, 57, 88
1, 13746, Note_on_c, 0, 45, 106
1, 13746, Note_on_c, 1, 40, 114
1, 13746, Note_on_c, 6, 52, 87
1, 13746, Note_on_c, 3, 64, 124
1, 13746, Note_on_c, 6, 60, 85
1, 13754, Pitch_bend_c, 3, 3424
1, 13758, Note_on_c, 9, 42, 0
1, 13768, Pitch_bend_c, 3, 2912
1, 13782, Pitch_bend_c, 3, 3232
1, 13794, Pitch_bend_c, 3, 4032
1, 13808, Pitch_bend_c, 3, 4960
1, 13820, Pitch_bend_c, 3, 6400
1, 13840, Pitch_bend_c, 3, 6944
1, 13852, Pitch_bend_c, 3, 7424
1, 13866, Pitch_bend_c, 3, 7808
1, 13868, Note_on_c, 0, 45, 0
1, 13878, Pitch_bend_c, 3, 8000
1, 13890, Pitch_bend_c, 3, 8160
1, 13904, Pitch_bend_c, 3, 8192
1, 13930, Note_on_c, 1, 40, 0
1, 13938, Note_on_c, 6, 60, 83
1, 13938, Note_on_c, 6, 57, 88
1, 13938, Note_on_c, 9, 42, 77
1, 13938, Note_on_c, 6, 53, 91
1, 13938, Note_on_c, 9, 35, 103
1, 13938, Note_on_c, 1, 41, 114
1, 13938, Note_on_c, 0, 41, 111
1, 13948, Note_on_c, 6, 57, 0
1, 13948, Note_on_c, 6, 52, 0
1, 13948, Note_on_c, 6, 60, 0
1, 13950, Note_on_c, 9, 35, 0
1, 13950, Note_on_c, 9, 42, 0
1, 14012, Note_on_c, 3, 64, 0
1, 14112, Note_on_c, 1, 41, 0
1, 14130, Note_on_c, 9, 35, 91
1, 14130, Note_on_c, 6, 53, 91
1, 14130, Note_on_c, 3, 64, 114
1, 14130, Note_on_c, 6, 57, 98
1, 14130, Note_on_c, 1, 41, 99
1, 14130, Note_on_c, 9, 42, 69
1, 14130, Note_on_c, 6, 60, 96
1, 14140, Note_on_c, 6, 60, 0
1, 14140, Note_on_c, 6, 57, 0
1, 14140, Note_on_c, 6, 53, 0
1, 14142, Note_on_c, 9, 42, 0
1, 14142, Note_on_c, 9, 35, 0
1, 14202, Note_on_c, 3, 64, 0
1, 14246, Pitch_bend_c, 3, 7712
1, 14258, Pitch_bend_c, 3, 5888
1, 14272, Pitch_bend_c, 3, 3616
1, 14284, Pitch_bend_c, 3, 1984
1, 14296, Pitch_bend_c, 3, 1056
1, 14310, Pitch_bend_c, 3, 608
1, 14322, Note_on_c, 0, 65, 107
1, 14322, Note_on_c, 9, 40, 120
1, 14322, Note_on_c, 9, 42, 96
1, 14322, Note_on_c, 9, 54, 115
1, 14322, Note_on_c, 6, 48, 107
1, 14322, Note_on_c, 6, 41, 107
1, 14322, Note_on_c, 0, 60, 120
1, 14322, Note_on_c, 3, 64, 127
1, 14322, Note_on_c, 0, 57, 120
1, 14324, Pitch_bend_c, 3, 832
1, 14332, Note_on_c, 6, 53, 0
1, 14332, Note_on_c, 6, 57, 0
1, 14332, Note_on_c, 6, 60, 0
1, 14334, Note_on_c, 9, 54, 0
1, 14334, Note_on_c, 9, 42, 0
1, 14334, Note_on_c, 9, 40, 0
1, 14338, Pitch_bend_c, 3, 2080
1, 14356, Pitch_bend_c, 3, 3360
1, 14362, Note_on_c, 1, 41, 0
1, 14370, Pitch_bend_c, 3, 4672
1, 14382, Pitch_bend_c, 3, 6656
1, 14400, Note_on_c, 0, 41, 0
1, 14402, Pitch_bend_c, 3, 7168
1, 14408, Pitch_bend_c, 3, 8160
1, 14410, Note_on_c, 6, 41, 0
1, 14410, Note_on_c, 6, 48, 0
1, 14428, Pitch_bend_c, 3, 8192
1, 14470, Note_on_c, 3, 64, 0
1, 14514, Note_on_c, 6, 57, 81
1, 14514, Note_on_c, 6, 53, 75
1, 14514, Note_on_c, 9, 42, 66
1, 14514, Note_on_c, 1, 36, 115
1, 14514, Note_on_c, 6, 60, 73
1, 14514, Note_on_c, 3, 64, 107
1, 14526, Note_on_c, 9, 42, 0
1, 14590, Note_on_c, 3, 64, 0
1, 14634, Note_on_c, 0, 60, 0
1, 14640, Note_on_c, 0, 65, 0
1, 14650, Note_on_c, 0, 57, 0
1, 14690, Note_on_c, 1, 36, 0
1, 14706, Note_on_c, 3, 62, 125
1, 14706, Note_on_c, 9, 42, 86
1, 14706, Note_on_c, 1, 41, 117
1, 14706, Note_on_c, 6, 60, 92
1, 14706, Control_c, 3, 1, 3
1, 14706, Note_on_c, 0, 41, 120
1, 14706, Note_on_c, 6, 57, 92
1, 14706, Note_on_c, 6, 53, 89
1, 14706, Note_on_c, 9, 35, 109
1, 14712, Control_c, 3, 1, 16
1, 14716, Note_on_c, 6, 53, 0
1, 14716, Note_on_c, 6, 57, 0
1, 14716, Note_on_c, 6, 60, 0
1, 14718, Note_on_c, 9, 35, 0
1, 14718, Note_on_c, 9, 42, 0
1, 14732, Control_c, 3, 1, 29
1, 14750, Control_c, 3, 1, 37
1, 14768, Control_c, 3, 1, 39
1, 14784, Control_c, 3, 1, 41
1, 14802, Control_c, 3, 1, 43
1, 14820, Control_c, 3, 1, 43
1, 14840, Control_c, 3, 1, 28
1, 14860, Control_c, 3, 1, 15
1, 14874, Control_c, 3, 1, 1
1, 14874, Note_on_c, 3, 62, 0
1, 14886, Note_on_c, 1, 41, 0
1, 14892, Control_c, 3, 1, 0
1, 14898, Note_on_c, 0, 60, 118
1, 14898, Note_on_c, 6, 53, 91
1, 14898, Note_on_c, 0, 57, 116
1, 14898, Note_on_c, 6, 60, 99
1, 14898, Note_on_c, 9, 42, 77
1, 14898, Note_on_c, 3, 60, 115
1, 14898, Note_on_c, 6, 57, 102
1, 14898, Note_on_c, 0, 65, 107
1, 14898, Note_on_c, 9, 35, 89
1, 14898, Note_on_c, 1, 41, 104
1, 14908, Note_on_c, 6, 57, 0
1, 14908, Note_on_c, 6, 60, 0
1, 14908, Note_on_c, 6, 53, 0
1, 14910, Note_on_c, 9, 42, 0
1, 14910, Note_on_c, 9, 35, 0
1, 14930, Note_on_c, 0, 41, 0
1, 14962, Note_on_c, 3, 60, 0
1, 15044, Note_on_c, 0, 57, 0
1, 15086, Note_on_c, 1, 41, 0
1, 15090, Note_on_c, 9, 54, 115
1, 15090, Note_on_c, 6, 48, 94
1, 15090, Note_on_c, 9, 40, 124
1, 15090, Note_on_c, 0, 57, 106
1, 15090, Note_on_c, 6, 41, 94
1, 15090, Note_on_c, 9, 42, 91
1, 15100, Note_on_c, 6, 57, 0
1, 15100, Note_on_c, 6, 60, 0
1, 15100, Note_on_c, 6, 53, 0
1, 15102, Note_on_c, 9, 40, 0
1, 15102, Note_on_c, 9, 42, 0
1, 15102, Note_on_c, 9, 54, 0
1, 15170, Note_on_c, 6, 41, 0
1, 15170, Note_on_c, 6, 48, 0
1, 15230, Note_on_c, 0, 60, 0
1, 15242, Note_on_c, 0, 57, 0
1, 15282, Note_on_c, 1, 38, 118
1, 15282, Note_on_c, 6, 59, 73
1, 15282, Note_on_c, 3, 52, 112
1, 15282, Note_on_c, 6, 56, 77
1, 15282, Note_on_c, 6, 52, 74
1, 15282, Note_on_c, 0, 41, 109
1, 15282, Note_on_c, 9, 42, 70
1, 15294, Note_on_c, 9, 42, 0
1, 15294, Note_on_c, 0, 65, 0
1, 15352, Note_on_c, 3, 52, 0
1, 15392, Note_on_c, 0, 41, 0
1, 15440, Note_on_c, 1, 38, 0
1, 15472, Control_c, 3, 1, 11
1, 15474, Note_on_c, 1, 40, 118
1, 15474, Note_on_c, 9, 35, 107
1, 15474, Note_on_c, 3, 56, 126
1, 15474, Note_on_c, 0, 40, 120
1, 15474, Note_on_c, 6, 56, 84
1, 15474, Note_on_c, 6, 52, 86
1, 15474, Note_on_c, 6, 59, 87
1, 15474, Note_on_c, 9, 42, 80
1, 15484, Note_on_c, 6, 59, 0
1, 15484, Note_on_c, 6, 52, 0
1, 15484, Note_on_c, 6, 56, 0
1, 15486, Note_on_c, 9, 35, 0
1, 15486, Note_on_c, 9, 42, 0
1, 15490, Control_c, 3, 1, 20
1, 15504, Control_c, 3, 1, 29
1, 15522, Control_c, 3, 1, 34
1, 15562, Control_c, 3, 1, 27
1, 15580, Control_c, 3, 1, 16
1, 15596, Control_c, 3, 1, 2
1, 15614, Control_c, 3, 1, 0
1, 15654, Note_on_c, 3, 56, 0
1, 15656, Note_on_c, 1, 40, 0
1, 15666, Note_on_c, 0, 56, 52
1, 15666, Note_on_c, 3, 52, 104
1, 15666, Note_on_c, 9, 42, 70
1, 15666, Note_on_c, 6, 56, 97
1, 15666, Note_on_c, 6, 59, 99
1, 15666, Note_on_c, 9, 35, 96
1, 15666, Note_on_c, 6, 52, 93
1, 15666, Note_on_c, 1, 40, 101
1, 15676, Note_on_c, 6, 52, 0
1, 15676, Note_on_c, 6, 59, 0
1, 15676, Note_on_c, 6, 56, 0
1, 15678, Note_on_c, 9, 42, 0
1, 15678, Note_on_c, 9, 35, 0
1, 15732, Note_on_c, 0, 56, 0
1, 15740, Note_on_c, 3, 52, 0
1, 15858, Note_on_c, 6, 40, 103
1, 15858, Note_on_c, 0, 62, 116
1, 15858, Note_on_c, 0, 64, 109
1, 15858, Note_on_c, 9, 54, 113
1, 15858, Note_on_c, 0, 56, 123
1, 15858, Note_on_c, 6, 47, 103
1, 15858, Note_on_c, 9, 42, 86
1, 15858, Note_on_c, 9, 40, 120
1, 15868, Note_on_c, 6, 52, 0
1, 15868, Note_on_c, 6, 56, 0
1, 15868, Note_on_c, 6, 59, 0
1, 15870, Note_on_c, 9, 42, 0
1, 15870, Note_on_c, 9, 54, 0
1, 15870, Note_on_c, 9, 40, 0
1, 15902, Note_on_c, 0, 40, 0
1, 15904, Note_on_c, 1, 40, 0
1, 15934, Note_on_c, 6, 47, 0
1, 15934, Note_on_c, 6, 40, 0
1, 16050, Note_on_c, 6, 52, 88
1, 16050, Note_on_c, 6, 59, 85
1, 16050, Note_on_c, 3, 52, 120
1, 16050, Note_on_c, 9, 42, 69
1, 16050, Note_on_c, 1, 35, 113
1, 16050, Note_on_c, 6, 56, 82
1, 16062, Note_on_c, 9, 42, 0
1, 16088, Control_c, 3, 1, 3
1, 16100, Control_c, 3, 1, 9
1, 16120, Control_c, 3, 1, 11
1, 16138, Control_c, 3, 1, 7
1, 16154, Control_c, 3, 1, 0
1, 16178, Note_on_c, 0, 56, 0
1, 16184, Note_on_c, 3, 52, 0
1, 16190, Note_on_c, 0, 62, 0
1, 16194, Note_on_c, 0, 64, 0
1, 16226, Note_on_c, 1, 35, 0
1, 16242, Note_on_c, 9, 42, 84
1, 16242, Note_on_c, 6, 52, 95
1, 16242, Note_on_c, 9, 35, 106
1, 16242, Note_on_c, 0, 40, 114
1, 16242, Note_on_c, 6, 59, 99
1, 16242, Note_on_c, 3, 56, 110
1, 16242, Note_on_c, 1, 40, 117
1, 16242, Note_on_c, 6, 56, 94
1, 16252, Note_on_c, 6, 56, 0
1, 16252, Note_on_c, 6, 59, 0
1, 16252, Note_on_c, 6, 52, 0
1, 16254, Note_on_c, 9, 42, 0
1, 16254, Note_on_c, 9, 35, 0
1, 16386, Note_on_c, 3, 56, 0
1, 16418, Note_on_c, 1, 40, 0
1, 16434, Note_on_c, 0, 56, 108
1, 16434, Note_on_c, 0, 62, 111
1, 16434, Note_on_c, 1, 40, 110
1, 16434, Note_on_c, 6, 52, 94
1, 16434, Note_on_c, 3, 57, 125
1, 16434, Note_on_c, 0, 64, 102
1, 16434, Note_on_c, 9, 42, 71
1, 16434, Note_on_c, 6, 56, 100
1, 16434, Note_on_c, 6, 59, 99
1, 16434, Note_on_c, 9, 35, 99
1, 16444, Note_on_c, 6, 59, 0
1, 16444, Note_on_c, 6, 56, 0
1, 16444, Note_on_c, 6, 52, 0
1, 16446, Note_on_c, 9, 42, 0
1, 16446, Note_on_c, 9, 35, 0
1, 16518, Note_on_c, 0, 40, 0
1, 16532, Control_c, 3, 1, 3
1, 16550, Control_c, 3, 1, 4
1, 16558, Note_on_c, 3, 57, 0
1, 16566, Control_c, 3, 1, 6
1, 16568, Note_on_c, 0, 56, 0
1, 16586, Control_c, 3, 1, 8
1, 16604, Control_c, 3, 1, 8
1, 16624, Control_c, 3, 1, 4
1, 16626, Note_on_c, 6, 47, 93
1, 16626, Note_on_c, 0, 56, 97
1, 16626, Note_on_c, 9, 54, 115
1, 16626, Note_on_c, 9, 40, 122
1, 16626, Note_on_c, 3, 57, 111
1, 16626, Note_on_c, 6, 40, 93
1, 16626, Note_on_c, 9, 42, 90
1, 16632, Note_on_c, 1, 40, 0
1, 16636, Note_on_c, 6, 56, 0
1, 16636, Note_on_c, 6, 52, 0
1, 16636, Note_on_c, 6, 59, 0
1, 16638, Control_c, 3, 1, 0
1, 16638, Note_on_c, 9, 54, 0
1, 16638, Note_on_c, 9, 40, 0
1, 16638, Note_on_c, 9, 42, 0
1, 16696, Note_on_c, 3, 57, 0
1, 16702, Note_on_c, 6, 40, 0
1, 16702, Note_on_c, 6, 47, 0
1, 16716, Note_on_c, 0, 62, 0
1, 16758, Note_on_c, 0, 56, 0
1, 16760, Note_on_c, 0, 64, 0
1, 16770, Pitch_bend_c, 3, 8160
1, 16776, Pitch_bend_c, 3, 7008
1, 16788, Pitch_bend_c, 3, 4576
1, 16802, Pitch_bend_c, 3, 1760
1, 16818, Note_on_c, 9, 42, 74
1, 16818, Note_on_c, 3, 60, 121
1, 16818, Note_on_c, 0, 40, 93
1, 16818, Note_on_c, 6, 60, 81
1, 16818, Note_on_c, 6, 52, 75
1, 16818, Note_on_c, 6, 57, 83
1, 16818, Note_on_c, 1, 40, 117
1, 16822, Pitch_bend_c, 3, 1152
1, 16830, Note_on_c, 9, 42, 0
1, 16836, Pitch_bend_c, 3, 1216
1, 16848, Pitch_bend_c, 3, 2240
1, 16862, Pitch_bend_c, 3, 4128
1, 16876, Pitch_bend_c, 3, 6272
1, 16888, Pitch_bend_c, 3, 7776
1, 16902, Pitch_bend_c, 3, 8160
1, 16906, Pitch_bend_c, 3, 8192
1, 16946, Note_on_c, 0, 40, 0
1, 16970, Note_on_c, 1, 40, 0
1, 16996, Note_on_c, 3, 60, 0
1, 17010, Note_on_c, 0, 45, 114
1, 17010, Note_on_c, 9, 42, 83
1, 17010, Note_on_c, 3, 57, 110
1, 17010, Note_on_c, 6, 60, 91
1, 17010, Note_on_c, 6, 57, 100
1, 17010, Note_on_c, 1, 45, 118
1, 17010, Note_on_c, 9, 35, 109
1, 17010, Note_on_c, 6, 52, 90
1, 17020, Note_on_c, 6, 52, 0
1, 17020, Note_on_c, 6, 57, 0
1, 17020, Note_on_c, 6, 60, 0
1, 17022, Note_on_c, 9, 35, 0
1, 17022, Note_on_c, 9, 42, 0
1, 17198, Note_on_c, 1, 45, 0
1, 17202, Note_on_c, 0, 57, 105
1, 17202, Note_on_c, 1, 45, 113
1, 17202, Note_on_c, 9, 35, 97
1, 17202, Note_on_c, 6, 52, 102
1, 17202, Note_on_c, 6, 57, 110
1, 17202, Note_on_c, 6, 60, 102
1, 17202, Note_on_c, 9, 42, 72
1, 17212, Note_on_c, 6, 60, 0
1, 17212, Note_on_c, 6, 57, 0
1, 17212, Note_on_c, 6, 52, 0
1, 17214, Note_on_c, 9, 35, 0
1, 17214, Note_on_c, 9, 42, 0
1, 17304, Note_on_c, 0, 57, 0
1, 17346, Note_on_c, 0, 45, 0
1, 17350, Control_c, 3, 1, 8
1, 17362, Control_c, 3, 1, 21
1, 17378, Control_c, 3, 1, 38
1, 17394, Note_on_c, 9, 42, 92
1, 17394, Note_on_c, 6, 45, 107
1, 17394, Note_on_c, 9, 54, 115
1, 17394, Note_on_c, 0, 60, 120
1, 17394, Note_on_c, 0, 64, 120
1, 17394, Note_on_c, 6, 52, 107
1, 17394, Note_on_c, 9, 40, 120
1, 17394, Note_on_c, 0, 57, 114
1, 17394, Note_on_c, 1, 45, 0
1, 17396, Control_c, 3, 1, 39
1, 17404, Note_on_c, 6, 52, 0
1, 17404, Note_on_c, 6, 60, 0
1, 17404, Note_on_c, 6, 57, 0
1, 17406, Note_on_c, 9, 54, 0
1, 17406, Note_on_c, 9, 40, 0
1, 17406, Note_on_c, 9, 42, 0
1, 17416, Control_c, 3, 1, 12
1, 17436, Control_c, 3, 1, 0
1, 17458, Note_on_c, 3, 57, 0
1, 17482, Note_on_c, 6, 52, 0
1, 17482, Note_on_c, 6, 45, 0
1, 17504, Note_on_c, 0, 57, 0
1, 17586, Note_on_c, 0, 57, 100
1, 17586, Note_on_c, 6, 52, 77
1, 17586, Note_on_c, 6, 60, 79
1, 17586, Note_on_c, 1, 40, 115
1, 17586, Note_on_c, 6, 57, 83
1, 17586, Note_on_c, 9, 42, 73
1, 17598, Note_on_c, 9, 42, 0
1, 17670, Note_on_c, 0, 64, 0
1, 17672, Note_on_c, 0, 60, 0
1, 17732, Note_on_c, 0, 57, 0
1, 17760, Note_on_c, 1, 40, 0
1, 17778, Note_on_c, 6, 57, 101
1, 17778, Note_on_c, 9, 42, 77
1, 17778, Note_on_c, 6, 52, 93
1, 17778, Note_on_c, 0, 45, 127
1, 17778, Note_on_c, 1, 45, 127
1, 17778, Note_on_c, 6, 60, 92
1, 17778, Note_on_c, 9, 35, 107
1, 17788, Note_on_c, 6, 60, 0
1, 17788, Note_on_c, 6, 52, 0
1, 17788, Note_on_c, 6, 57, 0
1, 17790, Note_on_c, 9, 42, 0
1, 17790, Note_on_c, 9, 35, 0
1, 17958, Note_on_c, 1, 45, 0
1, 17970, Note_on_c, 0, 69, 109
1, 17970, Note_on_c, 6, 60, 101
1, 17970, Note_on_c, 0, 64, 113
1, 17970, Note_on_c, 6, 52, 98
1, 17970, Note_on_c, 6, 57, 103
1, 17970, Note_on_c, 1, 45, 113
1, 17970, Note_on_c, 9, 35, 95
1, 17970, Note_on_c, 9, 42, 71
1, 17970, Note_on_c, 0, 60, 111
1, 17980, Note_on_c, 6, 57, 0
1, 17980, Note_on_c, 6, 52, 0
1, 17980, Note_on_c, 6, 60, 0
1, 17982, Note_on_c, 9, 35, 0
1, 17982, Note_on_c, 9, 42, 0
1, 18124, Note_on_c, 0, 60, 0
1, 18162, Note_on_c, 9, 54, 113
1, 18162, Note_on_c, 0, 60, 64
1, 18162, Note_on_c, 6, 45, 103
1, 18162, Note_on_c, 9, 42, 91
1, 18162, Note_on_c, 9, 40, 127
1, 18162, Note_on_c, 6, 52, 103
1, 18162, Note_on_c, 1, 45, 0
1, 18172, Note_on_c, 6, 60, 0
1, 18172, Note_on_c, 6, 57, 0
1, 18172, Note_on_c, 6, 52, 0
1, 18174, Note_on_c, 9, 54, 0
1, 18174, Note_on_c, 9, 42, 0
1, 18174, Note_on_c, 9, 40, 0
1, 18206, Note_on_c, 0, 69, 0
1, 18232, Note_on_c, 0, 64, 0
1, 18240, Note_on_c, 6, 45, 0
1, 18240, Note_on_c, 6, 52, 0
1, 18246, Note_on_c, 0, 60, 0
1, 18354, Note_on_c, 6, 52, 85
1, 18354, Note_on_c, 0, 60, 107
1, 18354, Note_on_c, 6, 60, 81
1, 18354, Note_on_c, 6, 57, 88
1, 18354, Note_on_c, 1, 40, 111
1, 18354, Note_on_c, 9, 46, 70
1, 18354, Note_on_c, 0, 69, 105
1, 18354, Note_on_c, 0, 64, 105
1, 18366, Note_on_c, 9, 46, 0
1, 18374, Note_on_c, 0, 45, 0
1, 18498, Note_on_c, 0, 69, 0
1, 18502, Note_on_c, 1, 40, 0
1, 18518, Note_on_c, 0, 64, 0
1, 18526, Note_on_c, 0, 60, 0
1, 18546, Note_on_c, 5, 45, 127
1, 18546, Note_on_c, 9, 42, 92
1, 18546, Note_on_c, 5, 52, 121
1, 18546, Note_on_c, 3, 57, 121
1, 18546, Note_on_c, 9, 35, 101
1, 18546, Note_on_c, 0, 45, 127
1, 18546, Note_on_c, 6, 52, 93
1, 18546, Note_on_c, 1, 45, 124
1, 18546, Note_on_c, 6, 60, 89
1, 18546, Note_on_c, 6, 57, 94
1, 18556, Note_on_c, 6, 57, 0
1, 18556, Note_on_c, 6, 60, 0
1, 18556, Note_on_c, 6, 52, 0
1, 18558, Note_on_c, 9, 35, 0
1, 18558, Note_on_c, 9, 42, 0
1, 18650, Note_on_c, 5, 45, 0
1, 18658, Note_on_c, 5, 52, 0
1, 18684, Note_on_c, 3, 57, 0
1, 18720, Note_on_c, 1, 45, 0
1, 18738, Note_on_c, 0, 57, 68
1, 18738, Note_on_c, 9, 42, 57
1, 18738, Note_on_c, 6, 57, 96
1, 18738, Note_on_c, 6, 52, 75
1, 18738, Note_on_c, 9, 35, 85
1, 18738, Note_on_c, 3, 57, 116
1, 18738, Note_on_c, 6, 60, 93
1, 18738, Note_on_c, 1, 45, 104
1, 18748, Note_on_c, 6, 60, 0
1, 18748, Note_on_c, 6, 52, 0
1, 18748, Note_on_c, 6, 57, 0
1, 18750, Note_on_c, 9, 35, 0
1, 18750, Note_on_c, 9, 42, 0
1, 18768, Note_on_c, 0, 57, 0
1, 18856, Note_on_c, 3, 57, 0
1, 18930, Note_on_c, 9, 42, 77
1, 18930, Note_on_c, 9, 54, 110
1, 18930, Note_on_c, 6, 52, 107
1, 18930, Note_on_c, 0, 64, 114
1, 18930, Note_on_c, 9, 40, 114
1, 18930, Note_on_c, 3, 57, 116
1, 18930, Note_on_c, 6, 45, 99
1, 18930, Note_on_c, 0, 60, 123
1, 18930, Note_on_c, 0, 57, 120
1, 18940, Note_on_c, 6, 52, 0
1, 18940, Note_on_c, 6, 57, 0
1, 18940, Note_on_c, 6, 60, 0
1, 18942, Note_on_c, 1, 45, 0
1, 18942, Note_on_c, 9, 40, 0
1, 18942, Note_on_c, 9, 42, 0
1, 18942, Note_on_c, 9, 54, 0
1, 18946, Note_on_c, 0, 45, 0
1, 19004, Note_on_c, 6, 52, 0
1, 19006, Note_on_c, 6, 45, 0
1, 19024, Note_on_c, 3, 57, 0
1, 19030, Note_on_c, 0, 57, 0
1, 19122, Note_on_c, 9, 42, 61
1, 19122, Note_on_c, 5, 60, 114
1, 19122, Note_on_c, 6, 57, 91
1, 19122, Note_on_c, 6, 60, 91
1, 19122, Note_on_c, 0, 57, 99
1, 19122, Note_on_c, 6, 52, 83
1, 19122, Note_on_c, 3, 57, 124
1, 19122, Note_on_c, 5, 64, 118
1, 19122, Note_on_c, 5, 69, 106
1, 19122, Note_on_c, 1, 40, 117
1, 19134, Note_on_c, 9, 42, 0
1, 19186, Note_on_c, 0, 60, 0
1, 19186, Note_on_c, 0, 64, 0
1, 19190, Note_on_c, 5, 64, 0
1, 19198, Note_on_c, 5, 60, 0
1, 19218, Note_on_c, 5, 69, 0
1, 19248, Note_on_c, 0, 57, 0
1, 19302, Note_on_c, 1, 40, 0
1, 19314, Note_on_c, 0, 45, 123
1, 19314, Note_on_c, 9, 42, 76
1, 19314, Note_on_c, 9, 35, 103
1, 19314, Note_on_c, 6, 60, 96
1, 19314, Note_on_c, 6, 52, 88
1, 19314, Note_on_c, 6, 57, 92
1, 19314, Note_on_c, 1, 45, 118
1, 19324, Note_on_c, 6, 57, 0
1, 19324, Note_on_c, 6, 52, 0
1, 19324, Note_on_c, 6, 60, 0
1, 19326, Note_on_c, 9, 35, 0
1, 19326, Note_on_c, 9, 42, 0
1, 19364, Note_on_c, 3, 57, 0
1, 19378, Control_c, 3, 1, 2
1, 19394, Control_c, 3, 1, 6
1, 19430, Control_c, 3, 1, 8
1, 19480, Note_on_c, 1, 45, 0
1, 19482, Control_c, 3, 1, 10
1, 19506, Note_on_c, 1, 45, 117
1, 19506, Note_on_c, 6, 52, 91
1, 19506, Note_on_c, 0, 57, 121
1, 19506, Note_on_c, 6, 57, 101
1, 19506, Note_on_c, 9, 42, 54
1, 19506, Note_on_c, 0, 60, 116
1, 19506, Note_on_c, 6, 60, 101
1, 19506, Note_on_c, 9, 35, 91
1, 19506, Note_on_c, 0, 64, 107
1, 19506, Note_on_c, 3, 57, 123
1, 19512, Control_c, 3, 1, 14
1, 19516, Note_on_c, 6, 60, 0
1, 19516, Note_on_c, 6, 57, 0
1, 19516, Note_on_c, 6, 52, 0
1, 19518, Note_on_c, 9, 42, 0
1, 19518, Note_on_c, 9, 35, 0
1, 19532, Control_c, 3, 1, 18
1, 19552, Control_c, 3, 1, 23
1, 19572, Control_c, 3, 1, 29
1, 19596, Note_on_c, 0, 45, 0
1, 19606, Control_c, 3, 1, 31
1, 19622, Note_on_c, 3, 57, 0
1, 19650, Control_c, 3, 1, 34
1, 19686, Note_on_c, 0, 57, 0
1, 19688, Control_c, 3, 1, 35
1, 19692, Note_on_c, 0, 60, 0
1, 19698, Note_on_c, 6, 52, 107
1, 19698, Note_on_c, 9, 40, 111
1, 19698, Note_on_c, 3, 57, 104
1, 19698, Note_on_c, 9, 42, 82
1, 19698, Note_on_c, 9, 54, 112
1, 19698, Note_on_c, 6, 45, 101
1, 19698, Note_on_c, 0, 64, 0
1, 19700, Control_c, 3, 1, 36
1, 19708, Note_on_c, 6, 60, 0
1, 19708, Note_on_c, 6, 52, 0
1, 19708, Note_on_c, 6, 57, 0
1, 19710, Note_on_c, 9, 42, 0
1, 19710, Note_on_c, 1, 45, 0
1, 19710, Note_on_c, 9, 54, 0
1, 19710, Note_on_c, 9, 40, 0
1, 19720, Control_c, 3, 1, 37
1, 19750, Control_c, 3, 1, 36
1, 19766, Control_c, 3, 1, 31
1, 19770, Note_on_c, 6, 52, 0
1, 19778, Note_on_c, 6, 45, 0
1, 19784, Control_c, 3, 1, 27
1, 19784, Note_on_c, 3, 57, 0
1, 19794, Note_on_c, 0, 45, 74
1, 19804, Control_c, 3, 1, 25
1, 19818, Control_c, 3, 1, 21
1, 19862, Control_c, 3, 1, 29
1, 19874, Note_on_c, 0, 45, 0
1, 19890, Note_on_c, 1, 40, 114
1, 19890, Note_on_c, 3, 60, 125
1, 19890, Note_on_c, 0, 57, 107
1, 19890, Note_on_c, 6, 57, 87
1, 19890, Note_on_c, 9, 42, 58
1, 19890, Note_on_c, 6, 53, 80
1, 19890, Note_on_c, 0, 60, 109
1, 19890, Note_on_c, 6, 60, 87
1, 19890, Note_on_c, 0, 64, 91
1, 19894, Control_c, 3, 1, 31
1, 19902, Note_on_c, 9, 42, 0
1, 19914, Control_c, 3, 1, 35
1, 19948, Control_c, 3, 1, 37
1, 19966, Control_c, 3, 1, 39
1, 20004, Control_c, 3, 1, 42
1, 20056, Control_c, 3, 1, 40
1, 20066, Note_on_c, 0, 57, 0
1, 20070, Control_c, 3, 1, 36
1, 20074, Note_on_c, 1, 40, 0
1, 20082, Note_on_c, 1, 41, 114
1, 20082, Note_on_c, 6, 60, 84
1, 20082, Note_on_c, 6, 53, 87
1, 20082, Note_on_c, 9, 35, 103
1, 20082, Note_on_c, 5, 45, 127
1, 20082, Note_on_c, 5, 53, 125
1, 20082, Note_on_c, 0, 41, 123
1, 20082, Note_on_c, 6, 57, 93
1, 20082, Note_on_c, 9, 42, 77
1, 20092, Note_on_c, 6, 57, 0
1, 20092, Note_on_c, 6, 60, 0
1, 20092, Note_on_c, 6, 53, 0
1, 20094, Note_on_c, 9, 35, 0
1, 20094, Note_on_c, 9, 42, 0
1, 20106, Control_c, 3, 1, 38
1, 20110, Note_on_c, 0, 60, 0
1, 20126, Control_c, 3, 1, 40
1, 20132, Note_on_c, 0, 64, 0
1, 20146, Control_c, 3, 1, 43
1, 20164, Control_c, 3, 1, 47
1, 20184, Control_c, 3, 1, 50
1, 20188, Note_on_c, 3, 60, 0
1, 20192, Note_on_c, 5, 45, 0
1, 20196, Note_on_c, 5, 53, 0
1, 20208, Control_c, 3, 1, 34
1, 20236, Control_c, 3, 1, 22
1, 20250, Control_c, 3, 1, 6
1, 20256, Note_on_c, 1, 41, 0
1, 20268, Control_c, 3, 1, 0
1, 20274, Note_on_c, 3, 57, 112
1, 20274, Note_on_c, 6, 53, 83
1, 20274, Note_on_c, 6, 57, 88
1, 20274, Note_on_c, 6, 60, 88
1, 20274, Note_on_c, 9, 42, 69
1, 20274, Note_on_c, 9, 35, 91
1, 20274, Note_on_c, 0, 57, 95
1, 20274, Note_on_c, 1, 41, 99
1, 20284, Note_on_c, 6, 60, 0
1, 20284, Note_on_c, 6, 57, 0
1, 20284, Note_on_c, 6, 53, 0
1, 20286, Note_on_c, 9, 42, 0
1, 20286, Note_on_c, 9, 35, 0
1, 20354, Note_on_c, 0, 57, 0
1, 20362, Note_on_c, 3, 57, 0
1, 20466, Note_on_c, 6, 48, 107
1, 20466, Note_on_c, 0, 57, 114
1, 20466, Note_on_c, 9, 54, 110
1, 20466, Note_on_c, 0, 65, 113
1, 20466, Note_on_c, 9, 42, 96
1, 20466, Note_on_c, 9, 40, 120
1, 20466, Note_on_c, 6, 41, 101
1, 20466, Note_on_c, 0, 60, 114
1, 20476, Note_on_c, 6, 57, 0
1, 20476, Note_on_c, 6, 60, 0
1, 20476, Note_on_c, 6, 53, 0
1, 20478, Note_on_c, 9, 42, 0
1, 20478, Note_on_c, 9, 54, 0
1, 20478, Note_on_c, 9, 40, 0
1, 20500, Note_on_c, 0, 41, 0
1, 20506, Note_on_c, 1, 41, 0
1, 20538, Note_on_c, 6, 48, 0
1, 20546, Note_on_c, 6, 41, 0
1, 20592, Note_on_c, 0, 57, 0
1, 20658, Note_on_c, 5, 60, 114
1, 20658, Note_on_c, 5, 69, 122
1, 20658, Note_on_c, 6, 53, 89
1, 20658, Note_on_c, 1, 36, 115
1, 20658, Note_on_c, 0, 57, 93
1, 20658, Note_on_c, 6, 57, 97
1, 20658, Note_on_c, 5, 65, 122
1, 20658, Note_on_c, 6, 60, 97
1, 20658, Note_on_c, 9, 42, 66
1, 20670, Note_on_c, 9, 42, 0
1, 20726, Note_on_c, 0, 60, 0
1, 20730, Note_on_c, 5, 65, 0
1, 20734, Note_on_c, 5, 60, 0
1, 20746, Note_on_c, 5, 69, 0
1, 20774, Note_on_c, 0, 65, 0
1, 20796, Note_on_c, 0, 57, 0
1, 20834, Note_on_c, 1, 36, 0
1, 20850, Note_on_c, 6, 57, 96
1, 20850, Note_on_c, 1, 41, 117
1, 20850, Note_on_c, 6, 53, 88
1, 20850, Note_on_c, 0, 41, 114
1, 20850, Note_on_c, 9, 42, 86
1, 20850, Note_on_c, 9, 35, 109
1, 20850, Note_on_c, 6, 60, 99
1, 20860, Note_on_c, 6, 60, 0
1, 20860, Note_on_c, 6, 53, 0
1, 20860, Note_on_c, 6, 57, 0
1, 20862, Note_on_c, 9, 42, 0
1, 20862, Note_on_c, 9, 35, 0
1, 21030, Note_on_c, 1, 41, 0
1, 21042, Note_on_c, 9, 35, 89
1, 21042, Note_on_c, 6, 53, 89
1, 21042, Note_on_c, 6, 60, 97
1, 21042, Note_on_c, 0, 60, 114
1, 21042, Note_on_c, 1, 41, 104
1, 21042, Note_on_c, 9, 42, 77
1, 21042, Note_on_c, 0, 65, 107
1, 21042, Note_on_c, 6, 57, 96
1, 21042, Note_on_c, 0, 57, 113
1, 21052, Note_on_c, 6, 57, 0
1, 21052, Note_on_c, 6, 60, 0
1, 21052, Note_on_c, 6, 53, 0
1, 21054, Note_on_c, 9, 42, 0
1, 21054, Note_on_c, 9, 35, 0
1, 21218, Note_on_c, 0, 65, 0
1, 21228, Note_on_c, 0, 57, 0
1, 21230, Note_on_c, 1, 41, 0
1, 21234, Note_on_c, 6, 48, 107
1, 21234, Note_on_c, 9, 42, 91
1, 21234, Note_on_c, 9, 54, 113
1, 21234, Note_on_c, 6, 41, 101
1, 21234, Note_on_c, 9, 40, 124
1, 21234, Note_on_c, 0, 60, 0
1, 21244, Note_on_c, 6, 57, 0
1, 21244, Note_on_c, 6, 53, 0
1, 21244, Note_on_c, 6, 60, 0
1, 21246, Note_on_c, 9, 54, 0
1, 21246, Note_on_c, 9, 40, 0
1, 21246, Note_on_c, 9, 42, 0
1, 21306, Note_on_c, 6, 48, 0
1, 21314, Note_on_c, 6, 41, 0
1, 21374, Pitch_bend_c, 3, 8160
1, 21380, Pitch_bend_c, 3, 4960
1, 21404, Pitch_bend_c, 3, 2624
1, 21424, Pitch_bend_c, 3, 2304
1, 21426, Note_on_c, 6, 60, 76
1, 21426, Note_on_c, 6, 53, 77
1, 21426, Note_on_c, 0, 65, 107
1, 21426, Note_on_c, 0, 57, 114
1, 21426, Note_on_c, 3, 60, 127
1, 21426, Note_on_c, 1, 38, 118
1, 21426, Note_on_c, 0, 60, 116
1, 21426, Note_on_c, 6, 57, 79
1, 21426, Note_on_c, 9, 42, 70
1, 21438, Pitch_bend_c, 3, 3040
1, 21438, Note_on_c, 9, 42, 0
1, 21450, Pitch_bend_c, 3, 4736
1, 21464, Pitch_bend_c, 3, 7936
1, 21488, Pitch_bend_c, 3, 8192
1, 21490, Note_on_c, 0, 41, 0
1, 21584, Note_on_c, 1, 38, 0
1, 21590, Note_on_c, 0, 57, 0
1, 21602, Note_on_c, 0, 60, 0
1, 21606, Note_on_c, 0, 65, 0
1, 21618, Note_on_c, 0, 43, 127
1, 21618, Note_on_c, 6, 62, 100
1, 21618, Note_on_c, 5, 50, 121
1, 21618, Note_on_c, 5, 43, 121
1, 21618, Note_on_c, 1, 43, 117
1, 21618, Note_on_c, 6, 59, 92
1, 21618, Note_on_c, 9, 42, 80
1, 21618, Note_on_c, 6, 55, 85
1, 21618, Note_on_c, 4, 72, 114
1, 21618, Note_on_c, 9, 35, 107
1, 21628, Note_on_c, 6, 53, 0
1, 21628, Note_on_c, 6, 60, 0
1, 21628, Note_on_c, 6, 57, 0
1, 21630, Note_on_c, 9, 42, 0
1, 21630, Note_on_c, 9, 35, 0
1, 21646, Note_on_c, 3, 60, 0
1, 21740, Note_on_c, 5, 43, 0
1, 21740, Note_on_c, 5, 50, 0
1, 21784, Note_on_c, 1, 43, 0
1, 21810, Note_on_c, 6, 59, 99
1, 21810, Note_on_c, 9, 35, 96
1, 21810, Note_on_c, 9, 42, 70
1, 21810, Note_on_c, 6, 55, 97
1, 21810, Note_on_c, 6, 62, 101
1, 21810, Note_on_c, 1, 43, 106
1, 21810, Note_on_c, 3, 60, 120
1, 21820, Note_on_c, 6, 62, 0
1, 21820, Note_on_c, 6, 55, 0
1, 21820, Note_on_c, 6, 59, 0
1, 21822, Note_on_c, 9, 42, 0
1, 21822, Note_on_c, 9, 35, 0
1, 21856, Control_c, 3, 1, 2
1, 21888, Control_c, 3, 1, 0
1, 21958, Control_c, 3, 1, 2
1, 21964, Note_on_c, 3, 60, 0
1, 21978, Control_c, 3, 1, 3
1, 22002, Note_on_c, 0, 62, 121
1, 22002, Note_on_c, 0, 59, 118
1, 22002, Note_on_c, 0, 67, 109
1, 22002, Note_on_c, 9, 40, 120
1, 22002, Note_on_c, 9, 42, 86
1, 22002, Note_on_c, 6, 43, 101
1, 22002, Note_on_c, 9, 54, 102
1, 22002, Note_on_c, 3, 60, 119
1, 22002, Note_on_c, 6, 50, 107
1, 22006, Control_c, 3, 1, 6
1, 22012, Note_on_c, 1, 43, 0
1, 22012, Note_on_c, 6, 62, 0
1, 22012, Note_on_c, 6, 59, 0
1, 22012, Note_on_c, 6, 55, 0
1, 22014, Note_on_c, 9, 40, 0
1, 22014, Note_on_c, 9, 42, 0
1, 22014, Note_on_c, 9, 54, 0
1, 22038, Control_c, 3, 1, 9
1, 22056, Control_c, 3, 1, 12
1, 22074, Note_on_c, 6, 50, 0
1, 22082, Note_on_c, 6, 43, 0
1, 22088, Control_c, 3, 1, 15
1, 22108, Control_c, 3, 1, 17
1, 22120, Note_on_c, 0, 59, 0
1, 22128, Control_c, 3, 1, 22
1, 22144, Note_on_c, 3, 60, 0
1, 22186, Control_c, 3, 1, 20
1, 22194, Note_on_c, 5, 59, 113
1, 22194, Note_on_c, 1, 38, 115
1, 22194, Note_on_c, 9, 42, 69
1, 22194, Note_on_c, 5, 67, 115
1, 22194, Note_on_c, 3, 60, 125
1, 22194, Note_on_c, 6, 62, 67
1, 22194, Note_on_c, 0, 59, 91
1, 22194, Note_on_c, 6, 55, 77
1, 22194, Note_on_c, 5, 62, 124
1, 22194, Note_on_c, 6, 59, 77
1, 22200, Control_c, 3, 1, 17
1, 22206, Note_on_c, 9, 42, 0
1, 22218, Control_c, 3, 1, 21
1, 22240, Note_on_c, 0, 43, 0
1, 22250, Control_c, 3, 1, 23
1, 22266, Note_on_c, 5, 62, 0
1, 22268, Note_on_c, 0, 62, 0
1, 22272, Note_on_c, 5, 59, 0
1, 22288, Note_on_c, 0, 67, 0
1, 22294, Note_on_c, 5, 67, 0
1, 22320, Control_c, 3, 1, 26
1, 22328, Note_on_c, 0, 59, 0
1, 22340, Control_c, 3, 1, 28
1, 22362, Note_on_c, 1, 38, 0
1, 22366, Control_c, 3, 1, 30
1, 22386, Note_on_c, 9, 35, 106
1, 22386, Note_on_c, 6, 62, 96
1, 22386, Note_on_c, 4, 71, 114
1, 22386, Note_on_c, 9, 42, 84
1, 22386, Note_on_c, 6, 59, 97
1, 22386, Note_on_c, 1, 43, 117
1, 22386, Note_on_c, 6, 55, 92
1, 22386, Note_on_c, 0, 43, 123
1, 22390, Note_on_c, 4, 72, 0
1, 22396, Note_on_c, 6, 59, 0
1, 22396, Note_on_c, 6, 55, 0
1, 22396, Note_on_c, 6, 62, 0
1, 22398, Note_on_c, 9, 42, 0
1, 22398, Note_on_c, 9, 35, 0
1, 22400, Control_c, 3, 1, 27
1, 22410, Note_on_c, 3, 60, 0
1, 22430, Control_c, 3, 1, 31
1, 22448, Control_c, 3, 1, 33
1, 22470, Control_c, 3, 1, 34
1, 22504, Control_c, 3, 1, 35
1, 22528, Control_c, 3, 1, 36
1, 22564, Note_on_c, 1, 43, 0
1, 22578, Note_on_c, 0, 67, 110
1, 22578, Note_on_c, 6, 62, 105
1, 22578, Note_on_c, 9, 42, 71
1, 22578, Note_on_c, 0, 59, 116
1, 22578, Note_on_c, 1, 43, 107
1, 22578, Note_on_c, 9, 35, 99
1, 22578, Note_on_c, 6, 59, 102
1, 22578, Note_on_c, 0, 62, 118
1, 22578, Note_on_c, 3, 60, 120
1, 22578, Note_on_c, 6, 55, 98
1, 22588, Note_on_c, 6, 55, 0
1, 22588, Note_on_c, 6, 59, 0
1, 22588, Note_on_c, 6, 62, 0
1, 22590, Note_on_c, 9, 35, 0
1, 22590, Note_on_c, 9, 42, 0
1, 22604, Control_c, 3, 1, 35
1, 22626, Control_c, 3, 1, 38
1, 22644, Control_c, 3, 1, 39
1, 22662, Control_c, 3, 1, 37
1, 22696, Control_c, 3, 1, 41
1, 22706, Note_on_c, 3, 60, 0
1, 22728, Control_c, 3, 1, 42
1, 22748, Control_c, 3, 1, 43
1, 22760, Control_c, 3, 1, 38
1, 22770, Note_on_c, 9, 42, 90
1, 22770, Note_on_c, 9, 40, 122
1, 22770, Note_on_c, 6, 43, 101
1, 22770, Note_on_c, 6, 50, 107
1, 22770, Note_on_c, 9, 54, 110
1, 22770, Note_on_c, 3, 60, 121
1, 22780, Note_on_c, 6, 62, 0
1, 22780, Note_on_c, 6, 59, 0
1, 22780, Note_on_c, 6, 55, 0
1, 22782, Note_on_c, 9, 40, 0
1, 22782, Note_on_c, 9, 42, 0
1, 22782, Note_on_c, 9, 54, 0
1, 22784, Note_on_c, 0, 67, 0
1, 22786, Note_on_c, 0, 62, 0
1, 22788, Control_c, 3, 1, 16
1, 22792, Note_on_c, 0, 59, 0
1, 22804, Note_on_c, 1, 43, 0
1, 22810, Control_c, 3, 1, 6
1, 22826, Control_c, 3, 1, 0
1, 22842, Note_on_c, 6, 50, 0
1, 22850, Note_on_c, 6, 43, 0
1, 22884, Note_on_c, 3, 60, 0
1, 22920, Pitch_bend_c, 3, 6112
1, 22928, Note_on_c, 0, 43, 0
1, 22944, Pitch_bend_c, 3, 3968
1, 22958, Pitch_bend_c, 3, 2368
1, 22962, Note_on_c, 1, 45, 115
1, 22962, Note_on_c, 0, 59, 101
1, 22962, Note_on_c, 0, 62, 105
1, 22962, Note_on_c, 0, 67, 101
1, 22962, Note_on_c, 6, 55, 72
1, 22962, Note_on_c, 6, 62, 69
1, 22962, Note_on_c, 6, 59, 74
1, 22962, Note_on_c, 3, 60, 121
1, 22962, Note_on_c, 9, 42, 74
1, 22974, Note_on_c, 9, 42, 0
1, 22978, Pitch_bend_c, 3, 2464
1, 22992, Pitch_bend_c, 3, 3424
1, 23004, Pitch_bend_c, 3, 4832
1, 23018, Pitch_bend_c, 3, 7616
1, 23044, Pitch_bend_c, 3, 8000
1, 23050, Pitch_bend_c, 3, 8192
1, 23098, Note_on_c, 4, 71, 0
1, 23144, Note_on_c, 0, 59, 0
1, 23148, Note_on_c, 1, 45, 0
1, 23150, Note_on_c, 0, 62, 0
1, 23154, Note_on_c, 5, 45, 125
1, 23154, Note_on_c, 4, 69, 110
1, 23154, Note_on_c, 6, 54, 84
1, 23154, Note_on_c, 5, 50, 123
1, 23154, Note_on_c, 0, 50, 118
1, 23154, Note_on_c, 9, 35, 109
1, 23154, Note_on_c, 6, 57, 99
1, 23154, Note_on_c, 1, 38, 113
1, 23154, Note_on_c, 6, 62, 91
1, 23154, Note_on_c, 9, 42, 83
1, 23162, Note_on_c, 0, 67, 0
1, 23164, Note_on_c, 6, 59, 0
1, 23164, Note_on_c, 6, 62, 0
1, 23164, Note_on_c, 6, 55, 0
1, 23166, Note_on_c, 9, 42, 0
1, 23166, Note_on_c, 9, 35, 0
1, 23232, Note_on_c, 3, 60, 0
1, 23256, Note_on_c, 5, 45, 0
1, 23264, Note_on_c, 5, 50, 0
1, 23324, Note_on_c, 1, 38, 0
1, 23346, Note_on_c, 3, 57, 127
1, 23346, Note_on_c, 1, 38, 113
1, 23346, Note_on_c, 6, 54, 92
1, 23346, Note_on_c, 6, 62, 96
1, 23346, Note_on_c, 6, 57, 109
1, 23346, Note_on_c, 0, 57, 91
1, 23346, Note_on_c, 9, 42, 72
1, 23346, Note_on_c, 9, 35, 97
1, 23356, Note_on_c, 6, 57, 0
1, 23356, Note_on_c, 6, 62, 0
1, 23356, Note_on_c, 6, 54, 0
1, 23358, Note_on_c, 9, 35, 0
1, 23358, Note_on_c, 9, 42, 0
1, 23392, Control_c, 3, 1, 12
1, 23418, Control_c, 3, 1, 21
1, 23434, Note_on_c, 0, 57, 0
1, 23438, Control_c, 3, 1, 27
1, 23456, Control_c, 3, 1, 31
1, 23474, Control_c, 3, 1, 36
1, 23494, Control_c, 3, 1, 41
1, 23510, Control_c, 3, 1, 48
1, 23528, Control_c, 3, 1, 49
1, 23538, Note_on_c, 9, 42, 92
1, 23538, Note_on_c, 9, 54, 117
1, 23538, Note_on_c, 6, 50, 107
1, 23538, Note_on_c, 9, 40, 120
1, 23538, Note_on_c, 6, 45, 101
1, 23538, Note_on_c, 0, 62, 120
1, 23538, Note_on_c, 0, 57, 110
1, 23538, Note_on_c, 0, 66, 112
1, 23540, Note_on_c, 1, 38, 0
1, 23548, Control_c, 3, 1, 24
1, 23548, Note_on_c, 6, 57, 0
1, 23548, Note_on_c, 6, 54, 0
1, 23548, Note_on_c, 6, 62, 0
1, 23550, Note_on_c, 9, 54, 0
1, 23550, Note_on_c, 9, 42, 0
1, 23550, Note_on_c, 9, 40, 0
1, 23566, Control_c, 3, 1, 2
1, 23584, Control_c, 3, 1, 0
1, 23610, Note_on_c, 6, 50, 0
1, 23610, Note_on_c, 3, 57, 0
1, 23618, Note_on_c, 6, 45, 0
1, 23628, Note_on_c, 0, 57, 0
1, 23730, Note_on_c, 6, 62, 85
1, 23730, Note_on_c, 6, 54, 81
1, 23730, Note_on_c, 5, 57, 114
1, 23730, Note_on_c, 9, 42, 73
1, 23730, Note_on_c, 5, 62, 118
1, 23730, Note_on_c, 0, 57, 96
1, 23730, Note_on_c, 6, 57, 84
1, 23730, Note_on_c, 1, 45, 120
1, 23730, Note_on_c, 5, 66, 111
1, 23742, Note_on_c, 9, 42, 0
1, 23760, Note_on_c, 0, 50, 0
1, 23786, Note_on_c, 0, 62, 0
1, 23804, Note_on_c, 0, 66, 0
1, 23808, Note_on_c, 5, 62, 0
1, 23808, Note_on_c, 5, 57, 0
1, 23810, Note_on_c, 5, 66, 0
1, 23848, Note_on_c, 0, 57, 0
1, 23922, Note_on_c, 9, 35, 107
1, 23922, Note_on_c, 6, 54, 87
1, 23922, Note_on_c, 6, 57, 98
1, 23922, Note_on_c, 9, 42, 77
1, 23922, Note_on_c, 0, 50, 127
1, 23922, Note_on_c, 1, 38, 114
1, 23922, Note_on_c, 6, 62, 95
1, 23932, Note_on_c, 6, 62, 0
1, 23932, Note_on_c, 6, 54, 0
1, 23932, Note_on_c, 6, 57, 0
1, 23932, Note_on_c, 1, 45, 0
1, 23934, Note_on_c, 9, 42, 0
1, 23934, Note_on_c, 9, 35, 0
1, 24096, Note_on_c, 1, 38, 0
1, 24114, Note_on_c, 6, 54, 96
1, 24114, Note_on_c, 6, 62, 102
1, 24114, Note_on_c, 1, 38, 115
1, 24114, Note_on_c, 9, 35, 95
1, 24114, Note_on_c, 9, 42, 71
1, 24114, Note_on_c, 0, 62, 121
1, 24114, Note_on_c, 0, 57, 110
1, 24114, Note_on_c, 6, 57, 105
1, 24114, Note_on_c, 0, 66, 108
1, 24124, Note_on_c, 6, 57, 0
1, 24124, Note_on_c, 6, 62, 0
1, 24124, Note_on_c, 6, 54, 0
1, 24126, Note_on_c, 9, 42, 0
1, 24126, Note_on_c, 9, 35, 0
1, 24230, Note_on_c, 0, 57, 0
1, 24306, Note_on_c, 6, 45, 101
1, 24306, Note_on_c, 6, 50, 107
1, 24306, Note_on_c, 9, 40, 127
1, 24306, Note_on_c, 9, 54, 115
1, 24306, Note_on_c, 9, 42, 91
1, 24306, Note_on_c, 0, 57, 98
1, 24316, Note_on_c, 6, 54, 0
1, 24316, Note_on_c, 6, 62, 0
1, 24316, Note_on_c, 6, 57, 0
1, 24318, Note_on_c, 9, 40, 0
1, 24318, Note_on_c, 9, 54, 0
1, 24318, Note_on_c, 9, 42, 0
1, 24336, Note_on_c, 1, 38, 0
1, 24378, Note_on_c, 6, 50, 0
1, 24382, Note_on_c, 0, 62, 0
1, 24386, Note_on_c, 6, 45, 0
1, 24398, Note_on_c, 0, 50, 0
1, 24444, Note_on_c, 4, 69, 0
1, 24450, Note_on_c, 0, 57, 0
1, 24458, Pitch_bend_c, 3, 7392
1, 24466, Pitch_bend_c, 5, 7648
1, 24470, Pitch_bend_c, 3, 5024
1, 24478, Pitch_bend_c, 5, 6368
1, 24484, Pitch_bend_c, 3, 1760
1, 24484, Note_on_c, 0, 66, 0
1, 24492, Pitch_bend_c, 5, 4832
1, 24498, Note_on_c, 3, 64, 125
1, 24498, Note_on_c, 5, 69, 109
1, 24498, Note_on_c, 4, 60, 111
1, 24498, Note_on_c, 6, 62, 85
1, 24498, Note_on_c, 9, 46, 70
1, 24498, Note_on_c, 0, 50, 111
1, 24498, Note_on_c, 6, 57, 91
1, 24498, Note_on_c, 1, 40, 114
1, 24502, Pitch_bend_c, 3, 1088
1, 24504, Pitch_bend_c, 5, 3904
1, 24510, Note_on_c, 9, 46, 0
1, 24516, Pitch_bend_c, 3, 1216
1, 24520, Pitch_bend_c, 5, 3904
1, 24530, Pitch_bend_c, 3, 3456
1, 24534, Pitch_bend_c, 5, 4736
1, 24546, Pitch_bend_c, 5, 6080
1, 24556, Pitch_bend_c, 3, 5024
1, 24560, Pitch_bend_c, 5, 7456
1, 24568, Pitch_bend_c, 3, 6560
1, 24572, Pitch_bend_c, 5, 8160
1, 24582, Pitch_bend_c, 3, 8032
1, 24586, Pitch_bend_c, 5, 8192
1, 24600, Pitch_bend_c, 3, 8192
1, 24622, Note_on_c, 0, 50, 0
1, 24644, Note_on_c, 1, 40, 0
1, 24690, Note_on_c, 6, 52, 96
1, 24690, Note_on_c, 6, 57, 94
1, 24690, Note_on_c, 6, 60, 95
1, 24690, Note_on_c, 9, 35, 101
1, 24690, Note_on_c, 9, 42, 92
1, 24690, Note_on_c, 0, 45, 116
1, 24690, Note_on_c, 1, 45, 124
1, 24700, Note_on_c, 6, 57, 0
1, 24700, Note_on_c, 6, 62, 0
1, 24702, Note_on_c, 9, 42, 0
1, 24702, Note_on_c, 9, 35, 0
1, 24768, Note_on_c, 4, 60, 0
1, 24798, Note_on_c, 3, 64, 0
1, 24808, Note_on_c, 5, 69, 0
1, 24864, Note_on_c, 1, 45, 0
1, 24882, Note_on_c, 4, 60, 102
1, 24882, Note_on_c, 3, 64, 116
1, 24882, Note_on_c, 9, 42, 57
1, 24882, Note_on_c, 6, 52, 87
1, 24882, Note_on_c, 6, 57, 96
1, 24882, Note_on_c, 0, 57, 91
1, 24882, Note_on_c, 5, 69, 98
1, 24882, Note_on_c, 1, 45, 104
1, 24882, Note_on_c, 6, 60, 91
1, 24882, Note_on_c, 9, 35, 85
1, 24892, Note_on_c, 6, 60, 0
1, 24892, Note_on_c, 6, 52, 0
1, 24892, Note_on_c, 6, 57, 0
1, 24894, Note_on_c, 9, 42, 0
1, 24894, Note_on_c, 9, 35, 0
1, 24938, Note_on_c, 5, 69, 0
1, 24954, Note_on_c, 4, 60, 0
1, 24964, Note_on_c, 3, 64, 0
1, 24966, Note_on_c, 0, 57, 0
1, 25012, Pitch_bend_c, 3, 6112
1, 25030, Pitch_bend_c, 3, 3040
1, 25044, Pitch_bend_c, 3, 320
1, 25062, Pitch_bend_c, 3, 0
1, 25074, Note_on_c, 6, 52, 107
1, 25074, Note_on_c, 5, 69, 117
1, 25074, Note_on_c, 0, 64, 116
1, 25074, Note_on_c, 6, 45, 101
1, 25074, Note_on_c, 0, 60, 118
1, 25074, Note_on_c, 9, 42, 77
1, 25074, Note_on_c, 9, 40, 114
1, 25074, Note_on_c, 4, 60, 111
1, 25074, Note_on_c, 3, 64, 127
1, 25074, Note_on_c, 9, 54, 115
1, 25074, Note_on_c, 0, 69, 120
1, 25084, Note_on_c, 6, 52, 0
1, 25084, Note_on_c, 6, 57, 0
1, 25084, Note_on_c, 6, 60, 0
1, 25086, Pitch_bend_c, 3, 1536
1, 25086, Note_on_c, 9, 42, 0
1, 25086, Note_on_c, 1, 45, 0
1, 25086, Note_on_c, 9, 40, 0
1, 25086, Note_on_c, 9, 54, 0
1, 25102, Pitch_bend_c, 3, 3040
1, 25114, Pitch_bend_c, 3, 4512
1, 25128, Pitch_bend_c, 3, 6272
1, 25146, Note_on_c, 6, 52, 0
1, 25148, Pitch_bend_c, 3, 7200
1, 25154, Note_on_c, 6, 45, 0
1, 25162, Pitch_bend_c, 3, 7872
1, 25176, Pitch_bend_c, 3, 8096
1, 25182, Pitch_bend_c, 3, 8192
1, 25200, Note_on_c, 4, 60, 0
1, 25214, Note_on_c, 3, 64, 0
1, 25236, Note_on_c, 5, 69, 0
1, 25254, Note_on_c, 0, 64, 0
1, 25264, Note_on_c, 0, 60, 0
1, 25266, Note_on_c, 6, 52, 78
1, 25266, Note_on_c, 3, 64, 111
1, 25266, Note_on_c, 9, 42, 61
1, 25266, Note_on_c, 6, 57, 87
1, 25266, Note_on_c, 4, 60, 98
1, 25266, Note_on_c, 1, 40, 117
1, 25266, Note_on_c, 5, 69, 73
1, 25266, Note_on_c, 6, 60, 85
1, 25278, Note_on_c, 9, 42, 0
1, 25278, Note_on_c, 0, 69, 0
1, 25324, Note_on_c, 0, 45, 0
1, 25344, Note_on_c, 5, 69, 0
1, 25346, Note_on_c, 4, 60, 0
1, 25350, Note_on_c, 3, 64, 0
1, 25446, Note_on_c, 1, 40, 0
1, 25458, Note_on_c, 4, 59, 107
1, 25458, Note_on_c, 3, 62, 119
1, 25458, Note_on_c, 0, 45, 127
1, 25458, Note_on_c, 6, 60, 92
1, 25458, Control_c, 3, 1, 14
1, 25458, Note_on_c, 1, 45, 118
1, 25458, Note_on_c, 6, 57, 91
1, 25458, Note_on_c, 6, 52, 91
1, 25458, Note_on_c, 9, 42, 76
1, 25458, Note_on_c, 5, 67, 106
1, 25458, Note_on_c, 9, 35, 103
1, 25468, Note_on_c, 6, 52, 0
1, 25468, Note_on_c, 6, 57, 0
1, 25468, Note_on_c, 6, 60, 0
1, 25470, Note_on_c, 9, 42, 0
1, 25470, Note_on_c, 9, 35, 0
1, 25492, Control_c, 3, 1, 25
1, 25512, Control_c, 3, 1, 44
1, 25544, Control_c, 3, 1, 51
1, 25562, Control_c, 3, 1, 54
1, 25578, Control_c, 3, 1, 58
1, 25596, Control_c, 3, 1, 61
1, 25600, Note_on_c, 5, 67, 0
1, 25608, Note_on_c, 4, 59, 0
1, 25614, Control_c, 3, 1, 45
1, 25624, Note_on_c, 1, 45, 0
1, 25624, Note_on_c, 3, 62, 0
1, 25634, Control_c, 3, 1, 17
1, 25650, Note_on_c, 1, 45, 117
1, 25650, Note_on_c, 5, 64, 102
1, 25650, Note_on_c, 0, 60, 120
1, 25650, Note_on_c, 0, 64, 116
1, 25650, Note_on_c, 4, 57, 106
1, 25650, Note_on_c, 9, 35, 91
1, 25650, Note_on_c, 6, 52, 88
1, 25650, Note_on_c, 6, 57, 95
1, 25650, Note_on_c, 3, 60, 114
1, 25650, Note_on_c, 0, 69, 116
1, 25650, Note_on_c, 6, 60, 93
1, 25650, Note_on_c, 9, 42, 54
1, 25654, Control_c, 3, 1, 3
1, 25660, Note_on_c, 6, 60, 0
1, 25660, Note_on_c, 6, 57, 0
1, 25660, Note_on_c, 6, 52, 0
1, 25662, Note_on_c, 9, 42, 0
1, 25662, Note_on_c, 9, 35, 0
1, 25668, Control_c, 3, 1, 0
1, 25716, Note_on_c, 3, 60, 0
1, 25726, Note_on_c, 5, 64, 0
1, 25744, Note_on_c, 4, 57, 0
1, 25816, Note_on_c, 0, 69, 0
1, 25842, Note_on_c, 6, 52, 87
1, 25842, Note_on_c, 9, 40, 111
1, 25842, Note_on_c, 9, 42, 82
1, 25842, Note_on_c, 9, 54, 113
1, 25842, Note_on_c, 6, 45, 87
1, 25852, Note_on_c, 6, 52, 0
1, 25852, Note_on_c, 6, 57, 0
1, 25852, Note_on_c, 6, 60, 0
1, 25854, Note_on_c, 9, 40, 0
1, 25854, Note_on_c, 1, 45, 0
1, 25854, Note_on_c, 9, 54, 0
1, 25854, Note_on_c, 9, 42, 0
1, 25856, Note_on_c, 0, 45, 0
1, 25916, Note_on_c, 6, 52, 0
1, 25916, Note_on_c, 6, 45, 0
1, 25932, Note_on_c, 0, 64, 0
1, 25938, Note_on_c, 0, 60, 0
1, 25940, Pitch_bend_c, 5, 8160
1, 25946, Pitch_bend_c, 5, 7328
1, 25958, Pitch_bend_c, 4, 7840
1, 25960, Pitch_bend_c, 5, 5600
1, 25972, Pitch_bend_c, 4, 6464
1, 25974, Pitch_bend_c, 5, 3744
1, 25986, Pitch_bend_c, 5, 2432
1, 25986, Pitch_bend_c, 4, 4224
1, 26000, Pitch_bend_c, 5, 1728
1, 26004, Pitch_bend_c, 4, 3424
1, 26010, Pitch_bend_c, 3, 7616
1, 26018, Pitch_bend_c, 4, 3104
1, 26024, Pitch_bend_c, 3, 4832
1, 26032, Pitch_bend_c, 4, 2976
1, 26034, Note_on_c, 5, 69, 115
1, 26034, Note_on_c, 3, 64, 124
1, 26034, Note_on_c, 0, 45, 97
1, 26034, Note_on_c, 6, 60, 85
1, 26034, Note_on_c, 1, 40, 114
1, 26034, Note_on_c, 9, 42, 58
1, 26034, Note_on_c, 6, 52, 87
1, 26034, Note_on_c, 4, 60, 113
1, 26034, Note_on_c, 6, 57, 88
1, 26042, Pitch_bend_c, 3, 3424
1, 26044, Pitch_bend_c, 4, 3200
1, 26046, Note_on_c, 9, 42, 0
1, 26048, Pitch_bend_c, 5, 1888
1, 26056, Pitch_bend_c, 3, 2912
1, 26058, Pitch_bend_c, 4, 3680
1, 26060, Pitch_bend_c, 5, 2272
1, 26070, Pitch_bend_c, 3, 4032
1, 26072, Pitch_bend_c, 4, 4352
1, 26074, Pitch_bend_c, 5, 2816
1, 26084, Pitch_bend_c, 4, 5152
1, 26088, Pitch_bend_c, 5, 3648
1, 26096, Pitch_bend_c, 3, 4960
1, 26098, Pitch_bend_c, 4, 6400
1, 26100, Pitch_bend_c, 5, 4672
1, 26108, Pitch_bend_c, 3, 6400
1, 26114, Pitch_bend_c, 5, 6368
1, 26118, Pitch_bend_c, 4, 7072
1, 26128, Pitch_bend_c, 3, 6944
1, 26134, Pitch_bend_c, 5, 7392
1, 26134, Pitch_bend_c, 4, 7392
1, 26140, Pitch_bend_c, 3, 7424
1, 26140, Pitch_bend_c, 4, 8096
1, 26146, Pitch_bend_c, 5, 8032
1, 26154, Pitch_bend_c, 3, 8000
1, 26158, Pitch_bend_c, 5, 8160
1, 26160, Pitch_bend_c, 4, 8192
1, 26164, Pitch_bend_c, 5, 8192
1, 26166, Note_on_c, 0, 45, 0
1, 26178, Pitch_bend_c, 3, 8160
1, 26192, Pitch_bend_c, 3, 8192
1, 26218, Note_on_c, 1, 40, 0
1, 26226, Note_on_c, 6, 53, 91
1, 26226, Note_on_c, 9, 35, 103
1, 26226, Note_on_c, 1, 41, 114
1, 26226, Note_on_c, 9, 42, 77
1, 26226, Note_on_c, 6, 57, 88
1, 26226, Note_on_c, 6, 60, 83
1, 26226, Note_on_c, 0, 41, 94
1, 26236, Note_on_c, 6, 60, 0
1, 26236, Note_on_c, 6, 52, 0
1, 26236, Note_on_c, 6, 57, 0
1, 26238, Note_on_c, 9, 42, 0
1, 26238, Note_on_c, 9, 35, 0
1, 26300, Note_on_c, 3, 64, 0
1, 26326, Note_on_c, 4, 60, 0
1, 26332, Note_on_c, 5, 69, 0
1, 26400, Note_on_c, 1, 41, 0
1, 26418, Note_on_c, 9, 42, 69
1, 26418, Note_on_c, 5, 69, 104
1, 26418, Note_on_c, 0, 57, 91
1, 26418, Note_on_c, 9, 35, 91
1, 26418, Note_on_c, 6, 53, 91
1, 26418, Note_on_c, 1, 41, 99
1, 26418, Note_on_c, 6, 57, 98
1, 26418, Note_on_c, 6, 60, 96
1, 26418, Note_on_c, 3, 64, 114
1, 26418, Note_on_c, 4, 60, 97
1, 26428, Note_on_c, 6, 60, 0
1, 26428, Note_on_c, 6, 53, 0
1, 26428, Note_on_c, 6, 57, 0
1, 26430, Note_on_c, 9, 42, 0
1, 26430, Note_on_c, 9, 35, 0
1, 26478, Note_on_c, 5, 69, 0
1, 26482, Note_on_c, 4, 60, 0
1, 26490, Note_on_c, 3, 64, 0
1, 26510, Note_on_c, 0, 57, 0
1, 26534, Pitch_bend_c, 3, 7712
1, 26546, Pitch_bend_c, 3, 5888
1, 26560, Pitch_bend_c, 3, 1984
1, 26584, Pitch_bend_c, 3, 1056
1, 26598, Pitch_bend_c, 3, 608
1, 26610, Note_on_c, 9, 42, 96
1, 26610, Note_on_c, 0, 57, 125
1, 26610, Note_on_c, 0, 60, 120
1, 26610, Note_on_c, 0, 65, 111
1, 26610, Note_on_c, 9, 40, 120
1, 26610, Note_on_c, 5, 69, 118
1, 26610, Note_on_c, 4, 60, 114
1, 26610, Note_on_c, 6, 41, 107
1, 26610, Note_on_c, 9, 54, 115
1, 26610, Note_on_c, 6, 48, 107
1, 26610, Note_on_c, 3, 64, 127
1, 26612, Pitch_bend_c, 3, 832
1, 26620, Note_on_c, 6, 53, 0
1, 26620, Note_on_c, 6, 57, 0
1, 26620, Note_on_c, 6, 60, 0
1, 26622, Note_on_c, 9, 40, 0
1, 26622, Note_on_c, 9, 42, 0
1, 26622, Note_on_c, 9, 54, 0
1, 26626, Pitch_bend_c, 3, 2080
1, 26644, Pitch_bend_c, 3, 3360
1, 26650, Note_on_c, 1, 41, 0
1, 26658, Pitch_bend_c, 3, 6656
1, 26690, Pitch_bend_c, 3, 8160
1, 26690, Note_on_c, 0, 41, 0
1, 26698, Note_on_c, 6, 48, 0
1, 26698, Note_on_c, 6, 41, 0
1, 26716, Pitch_bend_c, 3, 8192
1, 26730, Note_on_c, 5, 69, 0
1, 26748, Note_on_c, 4, 60, 0
1, 26758, Note_on_c, 3, 64, 0
1, 26784, Note_on_c, 0, 57, 0
1, 26786, Note_on_c, 0, 60, 0
1, 26802, Note_on_c, 6, 53, 75
1, 26802, Note_on_c, 6, 57, 81
1, 26802, Note_on_c, 6, 60, 73
1, 26802, Note_on_c, 9, 42, 66
1, 26802, Note_on_c, 0, 41, 110
1, 26802, Note_on_c, 1, 36, 115
1, 26802, Note_on_c, 4, 60, 97
1, 26802, Note_on_c, 5, 69, 95
1, 26802, Note_on_c, 3, 64, 107
1, 26802, Note_on_c, 0, 65, 0
1, 26814, Note_on_c, 9, 42, 0
1, 26866, Note_on_c, 5, 69, 0
1, 26876, Note_on_c, 4, 60, 0
1, 26878, Note_on_c, 3, 64, 0
1, 26978, Note_on_c, 1, 36, 0
1, 26994, Note_on_c, 4, 59, 104
1, 26994, Note_on_c, 6, 57, 92
1, 26994, Note_on_c, 5, 67, 118
1, 26994, Note_on_c, 0, 57, 106
1, 26994, Note_on_c, 1, 41, 117
1, 26994, Note_on_c, 9, 35, 109
1, 26994, Note_on_c, 6, 60, 92
1, 26994, Note_on_c, 6, 53, 89
1, 26994, Note_on_c, 9, 42, 86
1, 26994, Note_on_c, 3, 62, 125
1, 26994, Control_c, 3, 1, 16
1, 27004, Note_on_c, 6, 53, 0
1, 27004, Note_on_c, 6, 57, 0
1, 27004, Note_on_c, 6, 60, 0
1, 27006, Note_on_c, 9, 35, 0
1, 27006, Note_on_c, 9, 42, 0
1, 27020, Control_c, 3, 1, 29
1, 27038, Control_c, 3, 1, 37
1, 27056, Control_c, 3, 1, 39
1, 27072, Control_c, 3, 1, 41
1, 27086, Note_on_c, 0, 57, 0
1, 27090, Control_c, 3, 1, 43
1, 27108, Control_c, 3, 1, 43
1, 27126, Note_on_c, 4, 59, 0
1, 27128, Control_c, 3, 1, 28
1, 27134, Note_on_c, 5, 67, 0
1, 27148, Control_c, 3, 1, 15
1, 27162, Control_c, 3, 1, 1
1, 27162, Note_on_c, 3, 62, 0
1, 27174, Note_on_c, 1, 41, 0
1, 27180, Control_c, 3, 1, 0
1, 27186, Note_on_c, 5, 64, 110
1, 27186, Note_on_c, 0, 60, 118
1, 27186, Note_on_c, 1, 41, 104
1, 27186, Note_on_c, 0, 65, 110
1, 27186, Note_on_c, 4, 57, 109
1, 27186, Note_on_c, 0, 57, 120
1, 27186, Note_on_c, 6, 53, 91
1, 27186, Note_on_c, 6, 60, 99
1, 27186, Note_on_c, 9, 42, 77
1, 27186, Note_on_c, 3, 60, 115
1, 27186, Note_on_c, 6, 57, 102
1, 27186, Note_on_c, 9, 35, 89
1, 27196, Note_on_c, 6, 57, 0
1, 27196, Note_on_c, 6, 60, 0
1, 27196, Note_on_c, 6, 53, 0
1, 27198, Note_on_c, 9, 35, 0
1, 27198, Note_on_c, 9, 42, 0
1, 27250, Note_on_c, 3, 60, 0
1, 27276, Note_on_c, 5, 64, 0
1, 27282, Note_on_c, 0, 41, 0
1, 27282, Note_on_c, 4, 57, 0
1, 27374, Note_on_c, 1, 41, 0
1, 27378, Note_on_c, 6, 41, 94
1, 27378, Note_on_c, 0, 41, 118
1, 27378, Note_on_c, 9, 42, 91
1, 27378, Note_on_c, 6, 48, 94
1, 27378, Note_on_c, 9, 40, 124
1, 27378, Note_on_c, 9, 54, 113
1, 27386, Note_on_c, 0, 57, 0
1, 27388, Note_on_c, 6, 60, 0
1, 27388, Note_on_c, 6, 57, 0
1, 27388, Note_on_c, 6, 53, 0
1, 27390, Note_on_c, 9, 42, 0
1, 27390, Note_on_c, 9, 40, 0
1, 27390, Note_on_c, 9, 54, 0
1, 27408, Note_on_c, 0, 60, 0
1, 27416, Note_on_c, 0, 65, 0
1, 27458, Note_on_c, 6, 48, 0
1, 27458, Note_on_c, 6, 41, 0
1, 27560, Note_on_c, 0, 41, 0
1, 27570, Note_on_c, 0, 57, 100
1, 27570, Note_on_c, 6, 59, 73
1, 27570, Note_on_c, 1, 38, 118
1, 27570, Note_on_c, 6, 56, 77
1, 27570, Note_on_c, 3, 52, 112
1, 27570, Note_on_c, 9, 42, 70
1, 27570, Note_on_c, 6, 52, 74
1, 27582, Note_on_c, 9, 42, 0
1, 27640, Note_on_c, 3, 52, 0
1, 27692, Note_on_c, 0, 57, 0
1, 27728, Note_on_c, 1, 38, 0
1, 27760, Control_c, 3, 1, 11
1, 27762, Note_on_c, 5, 56, 106
1, 27762, Note_on_c, 5, 40, 114
1, 27762, Note_on_c, 6, 59, 87
1, 27762, Note_on_c, 6, 52, 86
1, 27762, Note_on_c, 3, 56, 126
1, 27762, Note_on_c, 5, 64, 101
1, 27762, Note_on_c, 6, 56, 84
1, 27762, Note_on_c, 9, 42, 80
1, 27762, Note_on_c, 1, 40, 118
1, 27762, Note_on_c, 9, 35, 107
1, 27762, Note_on_c, 0, 40, 121
1, 27772, Note_on_c, 6, 56, 0
1, 27772, Note_on_c, 6, 52, 0
1, 27772, Note_on_c, 6, 59, 0
1, 27774, Note_on_c, 9, 42, 0
1, 27774, Note_on_c, 9, 35, 0
1, 27778, Control_c, 3, 1, 20
1, 27792, Control_c, 3, 1, 29
1, 27810, Control_c, 3, 1, 34
1, 27850, Control_c, 3, 1, 27
1, 27868, Control_c, 3, 1, 16
1, 27884, Control_c, 3, 1, 2
1, 27902, Control_c, 3, 1, 0
1, 27942, Note_on_c, 3, 56, 0
1, 27944, Note_on_c, 1, 40, 0
1, 27954, Note_on_c, 6, 56, 97
1, 27954, Note_on_c, 6, 59, 99
1, 27954, Note_on_c, 3, 52, 104
1, 27954, Note_on_c, 9, 42, 70
1, 27954, Note_on_c, 1, 40, 101
1, 27954, Note_on_c, 9, 35, 96
1, 27954, Note_on_c, 6, 52, 93
1, 27954, Note_on_c, 0, 56, 82
1, 27964, Note_on_c, 6, 52, 0
1, 27964, Note_on_c, 6, 56, 0
1, 27964, Note_on_c, 6, 59, 0
1, 27966, Note_on_c, 9, 42, 0
1, 27966, Note_on_c, 9, 35, 0
1, 28028, Note_on_c, 3, 52, 0
1, 28052, Note_on_c, 0, 56, 0
1, 28146, Note_on_c, 6, 40, 103
1, 28146, Note_on_c, 6, 47, 103
1, 28146, Note_on_c, 0, 56, 119
1, 28146, Note_on_c, 9, 40, 120
1, 28146, Note_on_c, 0, 64, 110
1, 28146, Note_on_c, 9, 54, 113
1, 28146, Note_on_c, 0, 62, 118
1, 28146, Note_on_c, 9, 42, 86
1, 28156, Note_on_c, 6, 52, 0
1, 28156, Note_on_c, 6, 56, 0
1, 28156, Note_on_c, 6, 59, 0
1, 28158, Note_on_c, 9, 42, 0
1, 28158, Note_on_c, 9, 40, 0
1, 28158, Note_on_c, 9, 54, 0
1, 28192, Note_on_c, 1, 40, 0
1, 28222, Note_on_c, 6, 40, 0
1, 28222, Note_on_c, 6, 47, 0
1, 28244, Note_on_c, 0, 40, 0
1, 28320, Note_on_c, 0, 56, 0
1, 28338, Note_on_c, 6, 59, 85
1, 28338, Note_on_c, 1, 35, 113
1, 28338, Note_on_c, 3, 52, 120
1, 28338, Note_on_c, 6, 52, 88
1, 28338, Note_on_c, 6, 56, 82
1, 28338, Note_on_c, 9, 42, 69
1, 28338, Note_on_c, 0, 40, 120
1, 28350, Note_on_c, 9, 42, 0
1, 28358, Note_on_c, 0, 62, 0
1, 28376, Control_c, 3, 1, 9
1, 28382, Note_on_c, 0, 64, 0
1, 28408, Control_c, 3, 1, 11
1, 28426, Control_c, 3, 1, 7
1, 28442, Control_c, 3, 1, 0
1, 28472, Note_on_c, 3, 52, 0
1, 28514, Note_on_c, 1, 35, 0
1, 28530, Note_on_c, 1, 40, 117
1, 28530, Note_on_c, 0, 56, 84
1, 28530, Note_on_c, 6, 52, 95
1, 28530, Note_on_c, 6, 59, 99
1, 28530, Note_on_c, 3, 56, 110
1, 28530, Note_on_c, 9, 35, 106
1, 28530, Note_on_c, 9, 42, 84
1, 28530, Note_on_c, 6, 56, 94
1, 28540, Note_on_c, 6, 56, 0
1, 28540, Note_on_c, 6, 52, 0
1, 28540, Note_on_c, 6, 59, 0
1, 28542, Note_on_c, 9, 35, 0
1, 28542, Note_on_c, 9, 42, 0
1, 28604, Note_on_c, 0, 56, 0
1, 28674, Note_on_c, 3, 56, 0
1, 28706, Note_on_c, 1, 40, 0
1, 28722, Note_on_c, 6, 52, 94
1, 28722, Note_on_c, 0, 56, 115
1, 28722, Note_on_c, 1, 40, 110
1, 28722, Note_on_c, 0, 62, 118
1, 28722, Note_on_c, 0, 64, 110
1, 28722, Note_on_c, 3, 57, 125
1, 28722, Note_on_c, 9, 42, 71
1, 28722, Note_on_c, 6, 56, 100
1, 28722, Note_on_c, 6, 59, 99
1, 28722, Note_on_c, 9, 35, 99
1, 28732, Note_on_c, 6, 59, 0
1, 28732, Note_on_c, 6, 56, 0
1, 28732, Note_on_c, 6, 52, 0
1, 28734, Note_on_c, 9, 35, 0
1, 28734, Note_on_c, 9, 42, 0
1, 28820, Control_c, 3, 1, 3
1, 28838, Control_c, 3, 1, 4
1, 28846, Note_on_c, 3, 57, 0
1, 28854, Control_c, 3, 1, 6
1, 28858, Note_on_c, 0, 40, 0
1, 28874, Control_c, 3, 1, 8
1, 28892, Control_c, 3, 1, 8
1, 28896, Note_on_c, 0, 56, 0
1, 28912, Control_c, 3, 1, 4
1, 28914, Note_on_c, 9, 42, 90
1, 28914, Note_on_c, 3, 57, 111
1, 28914, Note_on_c, 9, 40, 122
1, 28914, Note_on_c, 6, 40, 93
1, 28914, Note_on_c, 6, 47, 93
1, 28914, Note_on_c, 9, 54, 117
1, 28920, Note_on_c, 1, 40, 0
1, 28924, Note_on_c, 6, 52, 0
1, 28924, Note_on_c, 6, 59, 0
1, 28924, Note_on_c, 6, 56, 0
1, 28926, Control_c, 3, 1, 0
1, 28926, Note_on_c, 9, 42, 0
1, 28926, Note_on_c, 9, 40, 0
1, 28926, Note_on_c, 9, 54, 0
1, 28948, Note_on_c, 0, 62, 0
1, 28984, Note_on_c, 3, 57, 0
1, 28990, Note_on_c, 6, 47, 0
1, 28990, Note_on_c, 6, 40, 0
1, 29058, Pitch_bend_c, 3, 7008
1, 29076, Pitch_bend_c, 3, 4576
1, 29078, Note_on_c, 0, 64, 0
1, 29090, Pitch_bend_c, 3, 1760
1, 29106, Note_on_c, 0, 40, 87
1, 29106, Note_on_c, 6, 60, 81
1, 29106, Note_on_c, 6, 52, 75
1, 29106, Note_on_c, 3, 60, 121
1, 29106, Note_on_c, 1, 40, 117
1, 29106, Note_on_c, 6, 57, 83
1, 29106, Note_on_c, 9, 42, 74
1, 29110, Pitch_bend_c, 3, 1152
1, 29118, Note_on_c, 9, 42, 0
1, 29124, Pitch_bend_c, 3, 1216
1, 29136, Pitch_bend_c, 3, 2240
1, 29150, Pitch_bend_c, 3, 4128
1, 29164, Pitch_bend_c, 3, 7776
1, 29190, Pitch_bend_c, 3, 8160
1, 29194, Pitch_bend_c, 3, 8192
1, 29210, Note_on_c, 5, 64, 0
1, 29226, Note_on_c, 5, 56, 0
1, 29258, Note_on_c, 1, 40, 0
1, 29264, Note_on_c, 0, 40, 0
1, 29266, Note_on_c, 5, 40, 0
1, 29284, Note_on_c, 3, 60, 0
1, 29298, Note_on_c, 4, 81, 104
1, 29298, Note_on_c, 6, 57, 100
1, 29298, Note_on_c, 6, 60, 91
1, 29298, Note_on_c, 6, 52, 90
1, 29298, Note_on_c, 5, 45, 120
1, 29298, Note_on_c, 5, 60, 114
1, 29298, Note_on_c, 5, 52, 110
1, 29298, Note_on_c, 4, 69, 95
1, 29298, Note_on_c, 0, 57, 105
1, 29298, Note_on_c, 0, 45, 99
1, 29298, Note_on_c, 3, 57, 111
1, 29298, Note_on_c, 9, 42, 83
1, 29298, Note_on_c, 9, 35, 109
1, 29298, Note_on_c, 1, 45, 118
1, 29308, Note_on_c, 6, 52, 0
1, 29308, Note_on_c, 6, 60, 0
1, 29308, Note_on_c, 6, 57, 0
1, 29310, Note_on_c, 9, 35, 0
1, 29310, Note_on_c, 9, 42, 0
1, 29416, Note_on_c, 0, 57, 0
1, 29420, Note_on_c, 5, 60, 0
1, 29426, Note_on_c, 5, 45, 0
1, 29430, Note_on_c, 5, 52, 0
1, 29486, Note_on_c, 1, 45, 0
1, 29490, Note_on_c, 1, 45, 113
1, 29490, Note_on_c, 6, 52, 102
1, 29490, Note_on_c, 0, 57, 92
1, 29490, Note_on_c, 6, 57, 110
1, 29490, Note_on_c, 6, 60, 102
1, 29490, Note_on_c, 9, 35, 97
1, 29490, Note_on_c, 9, 42, 72
1, 29500, Note_on_c, 6, 60, 0
1, 29500, Note_on_c, 6, 52, 0
1, 29500, Note_on_c, 6, 57, 0
1, 29502, Note_on_c, 9, 35, 0
1, 29502, Note_on_c, 9, 42, 0
1, 29584, Note_on_c, 0, 57, 0
1, 29682, Note_on_c, 9, 42, 92
1, 29682, Note_on_c, 6, 45, 107
1, 29682, Note_on_c, 9, 40, 120
1, 29682, Note_on_c, 6, 52, 107
1, 29682, Note_on_c, 0, 64, 113
1, 29682, Note_on_c, 0, 57, 114
1, 29682, Note_on_c, 0, 60, 113
1, 29682, Note_on_c, 9, 54, 115
1, 29682, Note_on_c, 1, 45, 0
1, 29692, Note_on_c, 6, 60, 0
1, 29692, Note_on_c, 6, 57, 0
1, 29692, Note_on_c, 6, 52, 0
1, 29694, Note_on_c, 9, 54, 0
1, 29694, Note_on_c, 9, 42, 0
1, 29694, Note_on_c, 9, 40, 0
1, 29698, Note_on_c, 0, 45, 0
1, 29770, Note_on_c, 6, 52, 0
1, 29770, Note_on_c, 6, 45, 0
1, 29862, Note_on_c, 3, 57, 0
1, 29864, Note_on_c, 0, 60, 0
1, 29866, Note_on_c, 0, 57, 0
1, 29868, Note_on_c, 0, 64, 0
1, 29874, Note_on_c, 6, 52, 77
1, 29874, Note_on_c, 1, 40, 115
1, 29874, Note_on_c, 6, 60, 79
1, 29874, Note_on_c, 0, 45, 118
1, 29874, Note_on_c, 9, 42, 73
1, 29874, Note_on_c, 6, 57, 83
1, 29886, Note_on_c, 9, 42, 0
1, 30048, Note_on_c, 1, 40, 0
1, 30066, Note_on_c, 1, 45, 127
1, 30066, Note_on_c, 9, 42, 77
1, 30066, Note_on_c, 9, 35, 107
1, 30066, Note_on_c, 6, 60, 92
1, 30066, Note_on_c, 6, 57, 101
1, 30066, Note_on_c, 0, 57, 96
1, 30066, Note_on_c, 6, 52, 93
1, 30076, Note_on_c, 6, 52, 0
1, 30076, Note_on_c, 6, 60, 0
1, 30076, Note_on_c, 6, 57, 0
1, 30078, Note_on_c, 9, 35, 0
1, 30078, Note_on_c, 9, 42, 0
1, 30146, Note_on_c, 0, 57, 0
1, 30246, Note_on_c, 1, 45, 0
1, 30258, Note_on_c, 9, 42, 71
1, 30258, Note_on_c, 6, 60, 101
1, 30258, Note_on_c, 0, 60, 125
1, 30258, Note_on_c, 6, 52, 98
1, 30258, Note_on_c, 6, 57, 103
1, 30258, Note_on_c, 0, 57, 125
1, 30258, Note_on_c, 0, 64, 116
1, 30258, Note_on_c, 1, 45, 113
1, 30258, Note_on_c, 9, 35, 95
1, 30268, Note_on_c, 6, 57, 0
1, 30268, Note_on_c, 6, 52, 0
1, 30268, Note_on_c, 6, 60, 0
1, 30270, Note_on_c, 9, 42, 0
1, 30270, Note_on_c, 9, 35, 0
1, 30348, Note_on_c, 0, 45, 0
1, 30450, Note_on_c, 9, 42, 91
1, 30450, Note_on_c, 9, 40, 127
1, 30450, Note_on_c, 6, 52, 103
1, 30450, Note_on_c, 9, 54, 115
1, 30450, Note_on_c, 6, 45, 103
1, 30450, Note_on_c, 0, 45, 110
1, 30450, Note_on_c, 1, 45, 0
1, 30460, Note_on_c, 6, 60, 0
1, 30460, Note_on_c, 6, 57, 0
1, 30460, Note_on_c, 6, 52, 0
1, 30462, Note_on_c, 9, 42, 0
1, 30462, Note_on_c, 9, 40, 0
1, 30462, Note_on_c, 9, 54, 0
1, 30466, Note_on_c, 0, 57, 0
1, 30502, Note_on_c, 0, 60, 0
1, 30526, Note_on_c, 0, 64, 0
1, 30528, Note_on_c, 6, 52, 0
1, 30528, Note_on_c, 6, 45, 0
1, 30642, Note_on_c, 6, 52, 85
1, 30642, Note_on_c, 0, 57, 100
1, 30642, Note_on_c, 9, 46, 70
1, 30642, Note_on_c, 6, 57, 88
1, 30642, Note_on_c, 6, 60, 81
1, 30642, Note_on_c, 1, 40, 111
1, 30654, Note_on_c, 9, 46, 0
1, 30710, Note_on_c, 0, 57, 0
1, 30790, Note_on_c, 1, 40, 0
1, 30834, Note_on_c, 0, 60, 106
1, 30834, Note_on_c, 0, 64, 102
1, 30834, Note_on_c, 6, 52, 90
1, 30834, Note_on_c, 9, 35, 109
1, 30834, Note_on_c, 6, 60, 91
1, 30834, Note_on_c, 1, 45, 118
1, 30834, Note_on_c, 0, 57, 109
1, 30834, Note_on_c, 9, 42, 83
1, 30834, Note_on_c, 6, 57, 100
1, 30844, Note_on_c, 6, 57, 0
1, 30844, Note_on_c, 6, 52, 0
1, 30844, Note_on_c, 6, 60, 0
1, 30846, Note_on_c, 9, 35, 0
1, 30846, Note_on_c, 9, 42, 0
1, 30914, Note_on_c, 0, 45, 0
1, 31010, Note_on_c, 0, 57, 0
1, 31018, Note_on_c, 0, 60, 0
1, 31022, Note_on_c, 1, 45, 0
1, 31026, Note_on_c, 0, 45, 114
1, 31026, Note_on_c, 9, 42, 72
1, 31026, Note_on_c, 6, 52, 102
1, 31026, Note_on_c, 6, 60, 102
1, 31026, Note_on_c, 1, 45, 113
1, 31026, Note_on_c, 6, 57, 110
1, 31026, Note_on_c, 9, 35, 97
1, 31028, Note_on_c, 0, 64, 0
1, 31036, Note_on_c, 6, 60, 0
1, 31036, Note_on_c, 6, 52, 0
1, 31036, Note_on_c, 6, 57, 0
1, 31038, Note_on_c, 9, 42, 0
1, 31038, Note_on_c, 9, 35, 0
1, 31218, Note_on_c, 0, 57, 88
1, 31218, Note_on_c, 6, 45, 107
1, 31218, Note_on_c, 9, 42, 92
1, 31218, Note_on_c, 9, 40, 120
1, 31218, Note_on_c, 9, 54, 113
1, 31218, Note_on_c, 6, 52, 107
1, 31218, Note_on_c, 1, 45, 0
1, 31228, Note_on_c, 6, 60, 0
1, 31228, Note_on_c, 6, 52, 0
1, 31228, Note_on_c, 6, 57, 0
1, 31230, Note_on_c, 9, 54, 0
1, 31230, Note_on_c, 9, 40, 0
1, 31230, Note_on_c, 9, 42, 0
1, 31278, Note_on_c, 0, 57, 0
1, 31306, Note_on_c, 6, 45, 0
1, 31306, Note_on_c, 6, 52, 0
1, 31410, Note_on_c, 6, 57, 83
1, 31410, Note_on_c, 1, 40, 115
1, 31410, Note_on_c, 6, 60, 79
1, 31410, Note_on_c, 0, 60, 121
1, 31410, Note_on_c, 0, 57, 118
1, 31410, Note_on_c, 6, 52, 77
1, 31410, Note_on_c, 0, 64, 118
1, 31410, Note_on_c, 9, 42, 73
1, 31422, Note_on_c, 9, 42, 0
1, 31474, Note_on_c, 0, 45, 0
1, 31584, Note_on_c, 1, 40, 0
1, 31602, Note_on_c, 9, 42, 77
1, 31602, Note_on_c, 6, 60, 92
1, 31602, Note_on_c, 6, 57, 101
1, 31602, Note_on_c, 6, 52, 93
1, 31602, Note_on_c, 9, 35, 107
1, 31602, Note_on_c, 1, 45, 127
1, 31602, Note_on_c, 0, 45, 113
1, 31612, Note_on_c, 6, 52, 0
1, 31612, Note_on_c, 6, 60, 0
1, 31612, Note_on_c, 6, 57, 0
1, 31614, Note_on_c, 9, 42, 0
1, 31614, Note_on_c, 9, 35, 0
1, 31656, Note_on_c, 0, 57, 0
1, 31716, Note_on_c, 0, 60, 0
1, 31782, Note_on_c, 1, 45, 0
1, 31794, Note_on_c, 0, 57, 96
1, 31794, Note_on_c, 3, 60, 120
1, 31794, Note_on_c, 6, 57, 103
1, 31794, Note_on_c, 0, 60, 60
1, 31794, Note_on_c, 6, 52, 98
1, 31794, Note_on_c, 9, 35, 95
1, 31794, Note_on_c, 1, 45, 113
1, 31794, Note_on_c, 6, 60, 101
1, 31794, Note_on_c, 9, 42, 71
1, 31804, Note_on_c, 6, 60, 0
1, 31804, Note_on_c, 6, 52, 0
1, 31804, Note_on_c, 6, 57, 0
1, 31806, Note_on_c, 9, 42, 0
1, 31806, Note_on_c, 9, 35, 0
1, 31824, Note_on_c, 0, 60, 0
1, 31858, Note_on_c, 0, 64, 0
1, 31890, Note_on_c, 0, 57, 0
1, 31934, Note_on_c, 3, 60, 0
1, 31986, Note_on_c, 9, 40, 127
1, 31986, Note_on_c, 6, 52, 103
1, 31986, Note_on_c, 0, 57, 97
1, 31986, Note_on_c, 0, 60, 107
1, 31986, Note_on_c, 6, 45, 103
1, 31986, Note_on_c, 0, 64, 100
1, 31986, Note_on_c, 9, 42, 91
1, 31986, Note_on_c, 3, 62, 125
1, 31986, Note_on_c, 9, 54, 115
1, 31986, Note_on_c, 1, 45, 0
1, 31996, Note_on_c, 6, 52, 0
1, 31996, Note_on_c, 6, 57, 0
1, 31996, Note_on_c, 6, 60, 0
1, 31998, Note_on_c, 9, 54, 0
1, 31998, Note_on_c, 9, 40, 0
1, 31998, Note_on_c, 9, 42, 0
1, 32018, Note_on_c, 0, 45, 0
1, 32062, Note_on_c, 3, 62, 0
1, 32064, Note_on_c, 6, 52, 0
1, 32064, Note_on_c, 6, 45, 0
1, 32108, Note_on_c, 0, 57, 0
1, 32124, Note_on_c, 0, 60, 0
1, 32140, Pitch_bend_c, 3, 8000
1, 32144, Note_on_c, 0, 64, 0
1, 32146, Pitch_bend_c, 3, 6496
1, 32160, Pitch_bend_c, 3, 2752
1, 32178, Note_on_c, 0, 47, 107
1, 32178, Note_on_c, 6, 52, 85
1, 32178, Note_on_c, 9, 46, 70
1, 32178, Note_on_c, 1, 40, 111
1, 32178, Note_on_c, 3, 64, 127
1, 32178, Note_on_c, 6, 57, 88
1, 32178, Note_on_c, 6, 60, 81
1, 32180, Pitch_bend_c, 3, 704
1, 32190, Note_on_c, 9, 46, 0
1, 32192, Pitch_bend_c, 3, 0
1, 32232, Pitch_bend_c, 3, 928
1, 32246, Pitch_bend_c, 3, 2912
1, 32258, Pitch_bend_c, 3, 5408
1, 32272, Pitch_bend_c, 3, 8096
1, 32286, Note_on_c, 0, 47, 0
1, 32290, Pitch_bend_c, 3, 8192
1, 32326, Note_on_c, 1, 40, 0
1, 32362, Note_on_c, 3, 64, 0
1, 32370, Note_on_c, 1, 36, 110
1, 32370, Note_on_c, 4, 79, 94
1, 32370, Note_on_c, 9, 49, 92
1, 32370, Note_on_c, 6, 55, 93
1, 32370, Note_on_c, 0, 60, 113
1, 32370, Note_on_c, 4, 67, 96
1, 32370, Note_on_c, 6, 64, 83
1, 32370, Note_on_c, 6, 60, 93
1, 32370, Note_on_c, 2, 79, 96
1, 32370, Note_on_c, 5, 67, 91
1, 32370, Note_on_c, 9, 35, 101
1, 32370, Note_on_c, 0, 67, 114
1, 32370, Note_on_c, 2, 84, 95
1, 32370, Note_on_c, 2, 88, 95
1, 32370, Note_on_c, 0, 48, 114
1, 32370, Note_on_c, 0, 64, 114
1, 32370, Note_on_c, 4, 81, 0
1, 32370, Note_on_c, 4, 69, 0
1, 32380, Note_on_c, 6, 52, 0
1, 32380, Note_on_c, 6, 57, 0
1, 32380, Note_on_c, 6, 60, 0
1, 32382, Note_on_c, 9, 35, 0
1, 32382, Note_on_c, 9, 49, 0
1, 32462, Note_on_c, 5, 67, 0
1, 32496, Note_on_c, 0, 48, 0
1, 32550, Note_on_c, 1, 36, 0
1, 32556, Note_on_c, 2, 84, 0
1, 32562, Note_on_c, 6, 55, 100
1, 32562, Note_on_c, 9, 35, 85
1, 32562, Note_on_c, 5, 67, 88
1, 32562, Note_on_c, 1, 36, 103
1, 32562, Note_on_c, 0, 48, 107
1, 32562, Note_on_c, 6, 60, 97
1, 32562, Note_on_c, 3, 64, 116
1, 32562, Note_on_c, 6, 64, 98
1, 32562, Note_on_c, 2, 88, 0
1, 32568, Note_on_c, 2, 79, 0
1, 32572, Note_on_c, 6, 64, 0
1, 32572, Note_on_c, 6, 60, 0
1, 32572, Note_on_c, 6, 55, 0
1, 32574, Note_on_c, 9, 35, 0
1, 32604, Note_on_c, 0, 67, 0
1, 32612, Note_on_c, 0, 64, 0
1, 32614, Note_on_c, 0, 60, 0
1, 32642, Note_on_c, 5, 67, 0
1, 32668, Note_on_c, 3, 64, 0
1, 32712, Note_on_c, 1, 36, 0
1, 32712, Note_on_c, 0, 48, 0
1, 32754, Note_on_c, 0, 64, 118
1, 32754, Note_on_c, 2, 88, 101
1, 32754, Note_on_c, 0, 60, 110
1, 32754, Note_on_c, 3, 64, 119
1, 32754, Note_on_c, 9, 42, 77
1, 32754, Note_on_c, 5, 67, 100
1, 32754, Note_on_c, 6, 55, 110
1, 32754, Note_on_c, 0, 67, 116
1, 32754, Note_on_c, 1, 40, 103
1, 32754, Note_on_c, 2, 79, 91
1, 32754, Note_on_c, 6, 48, 110
1, 32754, Note_on_c, 9, 54, 115
1, 32754, Note_on_c, 9, 40, 114
1, 32754, Note_on_c, 2, 84, 98
1, 32764, Note_on_c, 6, 55, 0
1, 32764, Note_on_c, 6, 64, 0
1, 32764, Note_on_c, 6, 60, 0
1, 32766, Note_on_c, 9, 40, 0
1, 32766, Note_on_c, 9, 54, 0
1, 32766, Note_on_c, 9, 42, 0
1, 32812, Note_on_c, 6, 48, 0
1, 32812, Note_on_c, 6, 55, 0
1, 32866, Note_on_c, 3, 64, 0
1, 32878, Note_on_c, 5, 67, 0
1, 32886, Note_on_c, 0, 60, 0
1, 32902, Note_on_c, 2, 79, 0
1, 32944, Note_on_c, 2, 88, 0
1, 32946, Note_on_c, 3, 62, 127
1, 32946, Note_on_c, 6, 59, 89
1, 32946, Note_on_c, 2, 79, 81
1, 32946, Note_on_c, 6, 55, 86
1, 32946, Note_on_c, 1, 43, 105
1, 32946, Note_on_c, 0, 60, 89
1, 32946, Note_on_c, 5, 65, 81
1, 32946, Note_on_c, 9, 42, 61
1, 32946, Note_on_c, 6, 62, 85
1, 32950, Note_on_c, 2, 84, 0
1, 32956, Note_on_c, 1, 40, 0
1, 32958, Note_on_c, 9, 42, 0
1, 32988, Control_c, 3, 1, 3
1, 33000, Note_on_c, 0, 64, 0
1, 33002, Control_c, 3, 1, 9
1, 33012, Note_on_c, 0, 67, 0
1, 33018, Note_on_c, 2, 79, 0
1, 33020, Control_c, 3, 1, 14
1, 33024, Note_on_c, 5, 65, 0
1, 33032, Note_on_c, 0, 60, 0
1, 33040, Control_c, 3, 1, 16
1, 33054, Control_c, 3, 1, 18
1, 33074, Control_c, 3, 1, 20
1, 33100, Control_c, 3, 1, 21
1, 33112, Control_c, 3, 1, 23
1, 33126, Control_c, 3, 1, 27
1, 33130, Note_on_c, 1, 43, 0
1, 33138, Note_on_c, 6, 59, 96
1, 33138, Note_on_c, 6, 55, 98
1, 33138, Note_on_c, 9, 42, 76
1, 33138, Note_on_c, 5, 65, 80
1, 33138, Note_on_c, 0, 59, 113
1, 33138, Note_on_c, 1, 31, 113
1, 33138, Note_on_c, 2, 79, 104
1, 33138, Note_on_c, 2, 83, 99
1, 33138, Note_on_c, 0, 67, 102
1, 33138, Note_on_c, 6, 62, 100
1, 33138, Note_on_c, 2, 86, 89
1, 33138, Note_on_c, 0, 62, 116
1, 33138, Note_on_c, 0, 43, 116
1, 33138, Note_on_c, 9, 35, 103
1, 33148, Control_c, 3, 1, 30
1, 33148, Note_on_c, 6, 62, 0
1, 33148, Note_on_c, 6, 55, 0
1, 33148, Note_on_c, 6, 59, 0
1, 33150, Note_on_c, 9, 42, 0
1, 33150, Note_on_c, 9, 35, 0
1, 33162, Control_c, 3, 1, 31
1, 33180, Control_c, 3, 1, 32
1, 33224, Note_on_c, 5, 65, 0
1, 33240, Control_c, 3, 1, 34
1, 33242, Note_on_c, 3, 62, 0
1, 33250, Note_on_c, 0, 43, 0
1, 33266, Control_c, 3, 1, 36
1, 33272, Control_c, 3, 1, 39
1, 33298, Note_on_c, 1, 31, 0
1, 33304, Control_c, 3, 1, 40
1, 33306, Note_on_c, 2, 83, 0
1, 33314, Note_on_c, 2, 86, 0
1, 33314, Note_on_c, 2, 79, 0
1, 33330, Note_on_c, 6, 55, 91
1, 33330, Note_on_c, 6, 62, 105
1, 33330, Note_on_c, 1, 31, 102
1, 33330, Note_on_c, 6, 59, 99
1, 33330, Note_on_c, 5, 65, 83
1, 33330, Note_on_c, 9, 42, 54
1, 33330, Note_on_c, 0, 43, 118
1, 33330, Note_on_c, 3, 62, 110
1, 33330, Note_on_c, 9, 35, 91
1, 33340, Note_on_c, 6, 59, 0
1, 33340, Note_on_c, 6, 55, 0
1, 33340, Note_on_c, 6, 62, 0
1, 33342, Note_on_c, 9, 35, 0
1, 33342, Note_on_c, 9, 42, 0
1, 33354, Note_on_c, 0, 67, 0
1, 33356, Control_c, 3, 1, 41
1, 33358, Note_on_c, 0, 59, 0
1, 33360, Note_on_c, 0, 62, 0
1, 33364, Control_c, 3, 1, 42
1, 33378, Control_c, 3, 1, 44
1, 33396, Note_on_c, 3, 62, 0
1, 33398, Note_on_c, 5, 65, 0
1, 33402, Control_c, 3, 1, 39
1, 33418, Control_c, 3, 1, 35
1, 33432, Control_c, 3, 1, 30
1, 33450, Control_c, 3, 1, 27
1, 33484, Control_c, 3, 1, 29
1, 33490, Control_c, 3, 1, 32
1, 33490, Note_on_c, 1, 31, 0
1, 33504, Control_c, 3, 1, 36
1, 33512, Note_on_c, 0, 43, 0
1, 33522, Note_on_c, 2, 86, 95
1, 33522, Note_on_c, 2, 79, 93
1, 33522, Note_on_c, 2, 83, 102
1, 33522, Note_on_c, 9, 40, 111
1, 33522, Note_on_c, 6, 50, 110
1, 33522, Note_on_c, 1, 35, 113
1, 33522, Note_on_c, 9, 54, 113
1, 33522, Note_on_c, 0, 67, 109
1, 33522, Note_on_c, 5, 65, 99
1, 33522, Note_on_c, 3, 62, 124
1, 33522, Control_c, 3, 1, 38
1, 33522, Note_on_c, 9, 42, 82
1, 33522, Note_on_c, 0, 59, 111
1, 33522, Note_on_c, 0, 62, 114
1, 33522, Note_on_c, 6, 43, 110
1, 33532, Note_on_c, 6, 55, 0
1, 33532, Note_on_c, 6, 62, 0
1, 33532, Note_on_c, 6, 59, 0
1, 33534, Note_on_c, 9, 42, 0
1, 33534, Note_on_c, 9, 40, 0
1, 33534, Note_on_c, 9, 54, 0
1, 33544, Control_c, 3, 1, 40
1, 33558, Control_c, 3, 1, 44
1, 33576, Control_c, 3, 1, 42
1, 33580, Note_on_c, 6, 43, 0
1, 33580, Note_on_c, 6, 50, 0
1, 33590, Note_on_c, 5, 65, 0
1, 33596, Control_c, 3, 1, 34
1, 33614, Control_c, 3, 1, 28
1, 33634, Control_c, 3, 1, 25
1, 33648, Control_c, 3, 1, 17
1, 33662, Note_on_c, 3, 62, 0
1, 33668, Control_c, 3, 1, 8
1, 33688, Control_c, 3, 1, 0
1, 33688, Note_on_c, 1, 35, 0
1, 33700, Note_on_c, 0, 67, 0
1, 33702, Note_on_c, 2, 83, 0
1, 33702, Note_on_c, 2, 79, 0
1, 33710, Note_on_c, 2, 86, 0
1, 33714, Note_on_c, 3, 62, 113
1, 33714, Note_on_c, 9, 42, 58
1, 33714, Note_on_c, 6, 53, 81
1, 33714, Note_on_c, 1, 38, 104
1, 33714, Note_on_c, 6, 60, 85
1, 33714, Note_on_c, 6, 57, 88
1, 33714, Note_on_c, 5, 65, 83
1, 33714, Note_on_c, 0, 43, 97
1, 33714, Note_on_c, 0, 62, 0
1, 33726, Note_on_c, 9, 42, 0
1, 33740, Note_on_c, 0, 59, 0
1, 33788, Note_on_c, 3, 62, 0
1, 33788, Note_on_c, 5, 65, 0
1, 33792, Note_on_c, 0, 43, 0
1, 33844, Pitch_bend_c, 3, 7776
1, 33856, Pitch_bend_c, 3, 6016
1, 33870, Pitch_bend_c, 3, 3616
1, 33884, Pitch_bend_c, 3, 1824
1, 33884, Note_on_c, 1, 38, 0
1, 33896, Pitch_bend_c, 3, 864
1, 33906, Note_on_c, 4, 81, 101
1, 33906, Note_on_c, 6, 53, 97
1, 33906, Note_on_c, 2, 86, 100
1, 33906, Note_on_c, 9, 35, 103
1, 33906, Note_on_c, 0, 65, 98
1, 33906, Note_on_c, 2, 81, 95
1, 33906, Note_on_c, 1, 29, 104
1, 33906, Note_on_c, 6, 57, 107
1, 33906, Note_on_c, 9, 42, 77
1, 33906, Note_on_c, 2, 89, 101
1, 33906, Note_on_c, 5, 69, 103
1, 33906, Note_on_c, 0, 57, 109
1, 33906, Note_on_c, 4, 69, 95
1, 33906, Note_on_c, 0, 41, 106
1, 33906, Note_on_c, 6, 60, 111
1, 33906, Note_on_c, 3, 65, 125
1, 33906, Note_on_c, 0, 60, 113
1, 33906, Note_on_c, 4, 79, 0
1, 33906, Note_on_c, 4, 67, 0
1, 33912, Pitch_bend_c, 3, 640
1, 33916, Note_on_c, 6, 60, 0
1, 33916, Note_on_c, 6, 57, 0
1, 33916, Note_on_c, 6, 53, 0
1, 33918, Note_on_c, 9, 35, 0
1, 33918, Note_on_c, 9, 42, 0
1, 33924, Pitch_bend_c, 3, 1056
1, 33938, Pitch_bend_c, 3, 2688
1, 33958, Pitch_bend_c, 3, 4416
1, 33970, Pitch_bend_c, 3, 6272
1, 33984, Pitch_bend_c, 3, 7712
1, 33988, Note_on_c, 5, 69, 0
1, 33996, Pitch_bend_c, 3, 8096
1, 34004, Pitch_bend_c, 3, 8192
1, 34010, Note_on_c, 0, 41, 0
1, 34040, Note_on_c, 3, 65, 0
1, 34068, Note_on_c, 1, 29, 0
1, 34078, Note_on_c, 2, 86, 0
1, 34090, Note_on_c, 2, 89, 0
1, 34094, Note_on_c, 2, 81, 0
1, 34098, Note_on_c, 6, 53, 93
1, 34098, Note_on_c, 1, 29, 109
1, 34098, Note_on_c, 6, 57, 107
1, 34098, Note_on_c, 6, 60, 103
1, 34098, Note_on_c, 9, 42, 69
1, 34098, Note_on_c, 3, 65, 107
1, 34098, Note_on_c, 0, 41, 107
1, 34098, Note_on_c, 5, 69, 92
1, 34098, Note_on_c, 9, 35, 91
1, 34108, Note_on_c, 6, 60, 0
1, 34108, Note_on_c, 6, 53, 0
1, 34108, Note_on_c, 6, 57, 0
1, 34110, Note_on_c, 9, 35, 0
1, 34110, Note_on_c, 9, 42, 0
1, 34148, Note_on_c, 0, 65, 0
1, 34154, Note_on_c, 0, 57, 0
1, 34154, Note_on_c, 0, 60, 0
1, 34174, Note_on_c, 5, 69, 0
1, 34194, Note_on_c, 3, 65, 0
1, 34248, Note_on_c, 0, 41, 0
1, 34270, Note_on_c, 1, 29, 0
1, 34290, Note_on_c, 6, 41, 110
1, 34290, Note_on_c, 9, 40, 120
1, 34290, Note_on_c, 9, 54, 110
1, 34290, Note_on_c, 3, 65, 119
1, 34290, Note_on_c, 6, 48, 110
1, 34290, Note_on_c, 2, 81, 95
1, 34290, Note_on_c, 0, 65, 103
1, 34290, Note_on_c, 0, 57, 114
1, 34290, Note_on_c, 5, 69, 101
1, 34290, Note_on_c, 1, 33, 106
1, 34290, Note_on_c, 2, 86, 98
1, 34290, Note_on_c, 2, 89, 99
1, 34290, Note_on_c, 0, 60, 114
1, 34290, Note_on_c, 9, 42, 96
1, 34300, Note_on_c, 6, 57, 0
1, 34300, Note_on_c, 6, 60, 0
1, 34300, Note_on_c, 6, 53, 0
1, 34302, Note_on_c, 9, 42, 0
1, 34302, Note_on_c, 9, 54, 0
1, 34302, Note_on_c, 9, 40, 0
1, 34348, Note_on_c, 6, 48, 0
1, 34348, Note_on_c, 6, 41, 0
1, 34356, Note_on_c, 5, 69, 0
1, 34386, Note_on_c, 3, 65, 0
1, 34434, Note_on_c, 1, 33, 0
1, 34478, Note_on_c, 2, 86, 0
1, 34482, Note_on_c, 6, 60, 88
1, 34482, Note_on_c, 5, 67, 95
1, 34482, Note_on_c, 9, 42, 66
1, 34482, Note_on_c, 6, 55, 87
1, 34482, Note_on_c, 6, 64, 87
1, 34482, Note_on_c, 3, 64, 127
1, 34482, Note_on_c, 1, 36, 104
1, 34482, Note_on_c, 2, 89, 0
1, 34494, Note_on_c, 9, 42, 0
1, 34494, Note_on_c, 2, 81, 0
1, 34506, Control_c, 3, 1, 1
1, 34512, Control_c, 3, 1, 13
1, 34526, Note_on_c, 0, 65, 0
1, 34528, Note_on_c, 0, 57, 0
1, 34530, Note_on_c, 0, 60, 0
1, 34532, Control_c, 3, 1, 27
1, 34552, Control_c, 3, 1, 39
1, 34570, Control_c, 3, 1, 45
1, 34586, Control_c, 3, 1, 50
1, 34604, Control_c, 3, 1, 54
1, 34624, Control_c, 3, 1, 55
1, 34640, Control_c, 3, 1, 58
1, 34658, Note_on_c, 1, 36, 0
1, 34660, Control_c, 3, 1, 61
1, 34674, Note_on_c, 1, 36, 113
1, 34674, Note_on_c, 2, 88, 99
1, 34674, Note_on_c, 9, 35, 109
1, 34674, Note_on_c, 6, 60, 106
1, 34674, Note_on_c, 0, 64, 114
1, 34674, Note_on_c, 4, 67, 96
1, 34674, Note_on_c, 4, 79, 91
1, 34674, Note_on_c, 0, 55, 118
1, 34674, Note_on_c, 0, 60, 118
1, 34674, Note_on_c, 2, 84, 100
1, 34674, Note_on_c, 2, 79, 95
1, 34674, Note_on_c, 6, 55, 100
1, 34674, Note_on_c, 0, 48, 110
1, 34674, Note_on_c, 9, 42, 86
1, 34674, Note_on_c, 6, 64, 102
1, 34674, Note_on_c, 5, 67, 0
1, 34674, Note_on_c, 4, 69, 0
1, 34674, Note_on_c, 4, 81, 0
1, 34678, Control_c, 3, 1, 46
1, 34684, Note_on_c, 6, 55, 0
1, 34684, Note_on_c, 6, 64, 0
1, 34684, Note_on_c, 6, 60, 0
1, 34686, Note_on_c, 9, 35, 0
1, 34686, Note_on_c, 9, 42, 0
1, 34696, Control_c, 3, 1, 29
1, 34712, Control_c, 3, 1, 9
1, 34732, Control_c, 3, 1, 0
1, 34754, Note_on_c, 3, 64, 0
1, 34790, Note_on_c, 0, 48, 0
1, 34834, Note_on_c, 2, 84, 0
1, 34840, Note_on_c, 2, 88, 0
1, 34850, Note_on_c, 2, 79, 0
1, 34866, Note_on_c, 0, 48, 106
1, 34866, Note_on_c, 6, 55, 98
1, 34866, Note_on_c, 6, 60, 101
1, 34866, Note_on_c, 1, 36, 110
1, 34866, Note_on_c, 9, 35, 89
1, 34866, Note_on_c, 3, 60, 115
1, 34866, Note_on_c, 5, 64, 91
1, 34866, Note_on_c, 6, 64, 105
1, 34866, Note_on_c, 9, 42, 77
1, 34866, Note_on_c, 1, 36, 0
1, 34876, Note_on_c, 6, 64, 0
1, 34876, Note_on_c, 6, 55, 0
1, 34876, Note_on_c, 6, 60, 0
1, 34878, Note_on_c, 9, 42, 0
1, 34878, Note_on_c, 9, 35, 0
1, 34896, Note_on_c, 0, 60, 0
1, 34898, Note_on_c, 0, 64, 0
1, 34898, Note_on_c, 0, 55, 0
1, 34942, Note_on_c, 5, 64, 0
1, 34952, Note_on_c, 3, 60, 0
1, 35012, Note_on_c, 0, 48, 0
1, 35024, Note_on_c, 1, 36, 0
1, 35058, Note_on_c, 1, 40, 110
1, 35058, Note_on_c, 2, 79, 95
1, 35058, Note_on_c, 5, 64, 96
1, 35058, Note_on_c, 2, 88, 97
1, 35058, Note_on_c, 2, 84, 97
1, 35058, Note_on_c, 0, 55, 110
1, 35058, Note_on_c, 6, 48, 110
1, 35058, Note_on_c, 6, 55, 110
1, 35058, Note_on_c, 0, 60, 111
1, 35058, Note_on_c, 3, 60, 116
1, 35058, Note_on_c, 9, 42, 91
1, 35058, Note_on_c, 9, 54, 112
1, 35058, Note_on_c, 0, 64, 111
1, 35058, Note_on_c, 9, 40, 124
1, 35068, Note_on_c, 6, 55, 0
1, 35068, Note_on_c, 6, 60, 0
1, 35068, Note_on_c, 6, 64, 0
1, 35070, Note_on_c, 9, 40, 0
1, 35070, Note_on_c, 9, 42, 0
1, 35070, Note_on_c, 9, 54, 0
1, 35116, Note_on_c, 6, 48, 0
1, 35116, Note_on_c, 6, 55, 0
1, 35136, Note_on_c, 5, 64, 0
1, 35138, Note_on_c, 3, 60, 0
1, 35190, Pitch_bend_c, 3, 6880
1, 35202, Pitch_bend_c, 3, 4064
1, 35216, Pitch_bend_c, 3, 1440
1, 35224, Note_on_c, 2, 84, 0
1, 35226, Note_on_c, 2, 88, 0
1, 35228, Pitch_bend_c, 3, 0
1, 35230, Note_on_c, 1, 40, 0
1, 35250, Note_on_c, 4, 81, 95
1, 35250, Note_on_c, 9, 42, 70
1, 35250, Note_on_c, 6, 55, 85
1, 35250, Note_on_c, 5, 69, 107
1, 35250, Note_on_c, 6, 60, 91
1, 35250, Note_on_c, 1, 43, 109
1, 35250, Note_on_c, 4, 69, 89
1, 35250, Note_on_c, 6, 62, 90
1, 35250, Note_on_c, 3, 64, 123
1, 35250, Note_on_c, 4, 67, 0
1, 35250, Note_on_c, 4, 79, 0
1, 35252, Note_on_c, 2, 79, 0
1, 35262, Note_on_c, 9, 42, 0
1, 35282, Note_on_c, 0, 64, 0
1, 35290, Note_on_c, 0, 60, 0
1, 35298, Note_on_c, 0, 55, 0
1, 35310, Pitch_bend_c, 3, 2144
1, 35330, Pitch_bend_c, 3, 4064
1, 35342, Pitch_bend_c, 3, 6048
1, 35356, Pitch_bend_c, 3, 7616
1, 35370, Pitch_bend_c, 3, 8000
1, 35376, Pitch_bend_c, 3, 8192
1, 35422, Note_on_c, 1, 43, 0
1, 35442, Note_on_c, 1, 31, 115
1, 35442, Note_on_c, 9, 42, 80
1, 35442, Note_on_c, 2, 79, 94
1, 35442, Note_on_c, 6, 55, 91
1, 35442, Note_on_c, 0, 62, 113
1, 35442, Note_on_c, 6, 60, 91
1, 35442, Note_on_c, 6, 62, 94
1, 35442, Note_on_c, 0, 55, 114
1, 35442, Note_on_c, 2, 88, 95
1, 35442, Note_on_c, 9, 35, 107
1, 35442, Note_on_c, 0, 60, 111
1, 35442, Note_on_c, 2, 84, 95
1, 35442, Note_on_c, 0, 43, 114
1, 35452, Note_on_c, 6, 62, 0
1, 35452, Note_on_c, 6, 60, 0
1, 35452, Note_on_c, 6, 55, 0
1, 35454, Note_on_c, 9, 35, 0
1, 35454, Note_on_c, 9, 42, 0
1, 35520, Note_on_c, 5, 69, 0
1, 35550, Note_on_c, 3, 64, 0
1, 35566, Note_on_c, 0, 43, 0
1, 35598, Note_on_c, 1, 31, 0
1, 35632, Note_on_c, 0, 60, 0
1, 35634, Note_on_c, 9, 35, 96
1, 35634, Note_on_c, 6, 55, 85
1, 35634, Note_on_c, 3, 62, 125
1, 35634, Note_on_c, 5, 67, 100
1, 35634, Note_on_c, 1, 35, 103
1, 35634, Note_on_c, 6, 60, 105
1, 35634, Note_on_c, 6, 62, 103
1, 35634, Note_on_c, 0, 43, 113
1, 35634, Note_on_c, 9, 42, 70
1, 35638, Note_on_c, 2, 84, 0
1, 35642, Note_on_c, 2, 88, 0
1, 35642, Note_on_c, 0, 62, 0
1, 35644, Note_on_c, 6, 62, 0
1, 35644, Note_on_c, 6, 60, 0
1, 35644, Note_on_c, 6, 55, 0
1, 35646, Note_on_c, 9, 42, 0
1, 35646, Note_on_c, 9, 35, 0
1, 35646, Note_on_c, 2, 79, 0
1, 35646, Note_on_c, 0, 55, 0
1, 35698, Note_on_c, 3, 62, 0
1, 35706, Note_on_c, 5, 67, 0
1, 35788, Note_on_c, 0, 43, 0
1, 35800, Note_on_c, 1, 35, 0
1, 35812, Control_c, 3, 1, 6
1, 35826, Note_on_c, 2, 79, 95
1, 35826, Note_on_c, 1, 38, 110
1, 35826, Note_on_c, 5, 67, 110
1, 35826, Note_on_c, 4, 79, 85
1, 35826, Note_on_c, 9, 40, 120
1, 35826, Note_on_c, 2, 88, 100
1, 35826, Note_on_c, 9, 54, 110
1, 35826, Note_on_c, 3, 62, 125
1, 35826, Note_on_c, 0, 59, 120
1, 35826, Note_on_c, 0, 55, 105
1, 35826, Note_on_c, 2, 84, 98
1, 35826, Note_on_c, 9, 42, 86
1, 35826, Note_on_c, 4, 67, 91
1, 35826, Note_on_c, 0, 62, 111
1, 35826, Note_on_c, 6, 43, 110
1, 35826, Note_on_c, 6, 50, 110
1, 35826, Note_on_c, 4, 69, 0
1, 35826, Note_on_c, 4, 81, 0
1, 35830, Control_c, 3, 1, 12
1, 35836, Note_on_c, 6, 55, 0
1, 35836, Note_on_c, 6, 62, 0
1, 35836, Note_on_c, 6, 60, 0
1, 35838, Note_on_c, 9, 42, 0
1, 35838, Note_on_c, 9, 40, 0
1, 35838, Note_on_c, 9, 54, 0
1, 35844, Control_c, 3, 1, 24
1, 35864, Control_c, 3, 1, 34
1, 35884, Control_c, 3, 1, 40
1, 35884, Note_on_c, 6, 43, 0
1, 35884, Note_on_c, 6, 50, 0
1, 35902, Control_c, 3, 1, 44
1, 35918, Control_c, 3, 1, 46
1, 35920, Note_on_c, 5, 67, 0
1, 35930, Note_on_c, 2, 79, 0
1, 35948, Control_c, 3, 1, 44
1, 35956, Control_c, 3, 1, 37
1, 35972, Control_c, 3, 1, 19
1, 35988, Note_on_c, 3, 62, 0
1, 35990, Control_c, 3, 1, 1
1, 35994, Note_on_c, 2, 88, 0
1, 35996, Note_on_c, 0, 59, 0
1, 36000, Note_on_c, 1, 38, 0
1, 36002, Note_on_c, 0, 62, 0
1, 36002, Note_on_c, 0, 55, 0
1, 36002, Note_on_c, 2, 84, 0
1, 36008, Control_c, 3, 1, 0
1, 36018, Note_on_c, 6, 59, 87
1, 36018, Note_on_c, 1, 31, 110
1, 36018, Note_on_c, 6, 62, 78
1, 36018, Note_on_c, 3, 60, 104
1, 36018, Note_on_c, 9, 42, 69
1, 36018, Note_on_c, 2, 79, 77
1, 36018, Note_on_c, 6, 55, 84
1, 36018, Note_on_c, 0, 43, 113
1, 36018, Note_on_c, 5, 64, 107
1, 36030, Note_on_c, 9, 42, 0
1, 36080, Note_on_c, 2, 79, 0
1, 36082, Note_on_c, 3, 60, 0
1, 36094, Note_on_c, 5, 64, 0
1, 36170, Note_on_c, 0, 43, 0
1, 36184, Note_on_c, 1, 31, 0
1, 36210, Note_on_c, 9, 35, 106
1, 36210, Note_on_c, 1, 35, 107
1, 36210, Note_on_c, 5, 67, 113
1, 36210, Note_on_c, 9, 42, 84
1, 36210, Note_on_c, 0, 55, 111
1, 36210, Note_on_c, 6, 55, 96
1, 36210, Note_on_c, 2, 83, 105
1, 36210, Note_on_c, 2, 79, 102
1, 36210, Note_on_c, 2, 86, 95
1, 36210, Note_on_c, 3, 62, 127
1, 36210, Note_on_c, 0, 59, 116
1, 36210, Note_on_c, 6, 62, 105
1, 36210, Note_on_c, 6, 59, 107
1, 36210, Note_on_c, 0, 62, 113
1, 36220, Note_on_c, 6, 59, 0
1, 36220, Note_on_c, 6, 62, 0
1, 36220, Note_on_c, 6, 55, 0
1, 36222, Note_on_c, 9, 42, 0
1, 36222, Note_on_c, 9, 35, 0
1, 36246, Control_c, 3, 1, 4
1, 36260, Control_c, 3, 1, 24
1, 36278, Control_c, 3, 1, 37
1, 36294, Control_c, 3, 1, 51
1, 36302, Note_on_c, 5, 67, 0
1, 36306, Pitch_bend_c, 3, 7648
1, 36314, Control_c, 3, 1, 55
1, 36326, Pitch_bend_c, 3, 7488
1, 36330, Control_c, 3, 1, 50
1, 36332, Pitch_bend_c, 3, 7264
1, 36346, Note_on_c, 2, 79, 0
1, 36352, Note_on_c, 2, 83, 0
1, 36352, Note_on_c, 1, 35, 0
1, 36354, Control_c, 3, 1, 36
1, 36366, Control_c, 3, 1, 12
1, 36368, Note_on_c, 0, 59, 0
1, 36374, Note_on_c, 0, 55, 0
1, 36376, Note_on_c, 0, 62, 0
1, 36380, Pitch_bend_c, 3, 7712
1, 36386, Note_on_c, 2, 86, 0
1, 36388, Control_c, 3, 1, 0
1, 36392, Pitch_bend_c, 3, 7936
1, 36400, Pitch_bend_c, 3, 8192
1, 36402, Note_on_c, 9, 35, 99
1, 36402, Note_on_c, 0, 43, 113
1, 36402, Note_on_c, 6, 62, 110
1, 36402, Note_on_c, 9, 42, 71
1, 36402, Note_on_c, 1, 38, 105
1, 36402, Note_on_c, 6, 55, 98
1, 36402, Note_on_c, 6, 59, 110
1, 36412, Note_on_c, 6, 59, 0
1, 36412, Note_on_c, 6, 55, 0
1, 36412, Note_on_c, 6, 62, 0
1, 36414, Note_on_c, 9, 42, 0
1, 36414, Note_on_c, 9, 35, 0
1, 36430, Note_on_c, 3, 62, 0
1, 36546, Note_on_c, 0, 43, 0
1, 36588, Note_on_c, 1, 38, 0
1, 36594, Note_on_c, 9, 42, 90
1, 36594, Note_on_c, 1, 31, 90
1, 36594, Note_on_c, 6, 50, 110
1, 36594, Note_on_c, 9, 40, 122
1, 36594, Note_on_c, 9, 54, 113
1, 36594, Note_on_c, 2, 83, 101
1, 36594, Note_on_c, 2, 79, 98
1, 36594, Note_on_c, 0, 62, 102
1, 36594, Note_on_c, 0, 55, 97
1, 36594, Note_on_c, 0, 59, 102
1, 36594, Note_on_c, 2, 86, 95
1, 36594, Note_on_c, 6, 43, 110
1, 36604, Note_on_c, 6, 55, 0
1, 36604, Note_on_c, 6, 62, 0
1, 36604, Note_on_c, 6, 59, 0
1, 36606, Note_on_c, 9, 40, 0
1, 36606, Note_on_c, 9, 54, 0
1, 36606, Note_on_c, 9, 42, 0
1, 36652, Note_on_c, 6, 43, 0
1, 36652, Note_on_c, 6, 50, 0
1, 36696, Note_on_c, 1, 31, 0
1, 36714, Note_on_c, 2, 79, 0
1, 36736, Note_on_c, 2, 83, 0
1, 36752, Note_on_c, 0, 59, 0
1, 36760, Note_on_c, 0, 55, 0
1, 36760, Note_on_c, 0, 62, 0
1, 36764, Note_on_c, 2, 86, 0
1, 36786, Note_on_c, 1, 31, 118
1, 36786, Note_on_c, 6, 57, 81
1, 36786, Note_on_c, 6, 60, 87
1, 36786, Note_on_c, 6, 62, 87
1, 36786, Note_on_c, 9, 42, 74
1, 36786, Note_on_c, 0, 43, 127
1, 36786, Note_on_c, 2, 79, 76
1, 36798, Note_on_c, 9, 42, 0
1, 36844, Note_on_c, 2, 79, 0
1, 36930, Note_on_c, 0, 43, 0
1, 36978, Note_on_c, 9, 35, 109
1, 36978, Note_on_c, 6, 57, 97
1, 36978, Note_on_c, 6, 62, 102
1, 36978, Note_on_c, 9, 42, 83
1, 36978, Note_on_c, 2, 79, 97
1, 36978, Note_on_c, 2, 88, 89
1, 36978, Note_on_c, 6, 60, 103
1, 36978, Note_on_c, 0, 62, 113
1, 36978, Note_on_c, 0, 55, 116
1, 36978, Note_on_c, 2, 84, 95
1, 36978, Note_on_c, 0, 60, 114
1, 36988, Note_on_c, 6, 60, 0
1, 36988, Note_on_c, 6, 57, 0
1, 36988, Note_on_c, 6, 62, 0
1, 36990, Note_on_c, 9, 35, 0
1, 36990, Note_on_c, 9, 42, 0
1, 37148, Note_on_c, 0, 62, 0
1, 37154, Note_on_c, 2, 84, 0
1, 37154, Note_on_c, 0, 60, 0
1, 37154, Note_on_c, 2, 79, 0
1, 37156, Note_on_c, 1, 31, 0
1, 37156, Note_on_c, 0, 55, 0
1, 37160, Note_on_c, 2, 88, 0
1, 37170, Note_on_c, 9, 42, 72
1, 37170, Note_on_c, 6, 57, 93
1, 37170, Note_on_c, 6, 62, 100
1, 37170, Note_on_c, 6, 60, 100
1, 37170, Note_on_c, 9, 35, 97
1, 37170, Note_on_c, 1, 35, 106
1, 37180, Note_on_c, 6, 60, 0
1, 37180, Note_on_c, 6, 62, 0
1, 37180, Note_on_c, 6, 57, 0
1, 37182, Note_on_c, 9, 35, 0
1, 37182, Note_on_c, 9, 42, 0
1, 37318, Note_on_c, 1, 35, 0
1, 37362, Note_on_c, 9, 54, 102
1, 37362, Note_on_c, 2, 84, 96
1, 37362, Note_on_c, 2, 88, 95
1, 37362, Note_on_c, 0, 62, 114
1, 37362, Note_on_c, 6, 50, 110
1, 37362, Note_on_c, 9, 40, 120
1, 37362, Note_on_c, 6, 43, 110
1, 37362, Note_on_c, 2, 79, 92
1, 37362, Note_on_c, 0, 55, 114
1, 37362, Note_on_c, 0, 60, 111
1, 37362, Note_on_c, 1, 38, 107
1, 37362, Note_on_c, 9, 42, 92
1, 37372, Note_on_c, 6, 60, 0
1, 37372, Note_on_c, 6, 57, 0
1, 37372, Note_on_c, 6, 62, 0
1, 37374, Note_on_c, 9, 42, 0
1, 37374, Note_on_c, 9, 40, 0
1, 37374, Note_on_c, 9, 54, 0
1, 37420, Note_on_c, 6, 50, 0
1, 37420, Note_on_c, 6, 43, 0
1, 37464, Note_on_c, 2, 79, 0
1, 37496, Note_on_c, 2, 84, 0
1, 37514, Note_on_c, 2, 88, 0
1, 37516, Note_on_c, 1, 38, 0
1, 37542, Note_on_c, 0, 62, 0
1, 37544, Note_on_c, 0, 60, 0
1, 37546, Note_on_c, 0, 55, 0
1, 37554, Note_on_c, 9, 42, 73
1, 37554, Note_on_c, 1, 31, 115
1, 37554, Note_on_c, 6, 55, 80
1, 37554, Note_on_c, 6, 59, 83
1, 37554, Note_on_c, 6, 62, 76
1, 37554, Note_on_c, 0, 43, 118
1, 37554, Note_on_c, 2, 79, 78
1, 37566, Note_on_c, 9, 42, 0
1, 37612, Note_on_c, 2, 79, 0
1, 37712, Note_on_c, 0, 43, 0
1, 37722, Note_on_c, 1, 31, 0
1, 37746, Note_on_c, 9, 42, 77
1, 37746, Note_on_c, 6, 55, 102
1, 37746, Note_on_c, 2, 86, 99
1, 37746, Note_on_c, 0, 62, 110
1, 37746, Note_on_c, 1, 35, 104
1, 37746, Note_on_c, 6, 59, 109
1, 37746, Note_on_c, 0, 55, 106
1, 37746, Note_on_c, 2, 83, 105
1, 37746, Note_on_c, 0, 59, 114
1, 37746, Note_on_c, 9, 35, 107
1, 37746, Note_on_c, 2, 79, 106
1, 37746, Note_on_c, 6, 62, 107
1, 37756, Note_on_c, 6, 62, 0
1, 37756, Note_on_c, 6, 59, 0
1, 37756, Note_on_c, 6, 55, 0
1, 37758, Note_on_c, 9, 35, 0
1, 37758, Note_on_c, 9, 42, 0
1, 37900, Note_on_c, 2, 83, 0
1, 37902, Note_on_c, 2, 86, 0
1, 37904, Note_on_c, 0, 59, 0
1, 37912, Note_on_c, 0, 62, 0
1, 37912, Note_on_c, 2, 79, 0
1, 37922, Note_on_c, 0, 55, 0
1, 37926, Note_on_c, 1, 35, 0
1, 37938, Note_on_c, 6, 55, 98
1, 37938, Note_on_c, 9, 42, 71
1, 37938, Note_on_c, 1, 38, 114
1, 37938, Note_on_c, 6, 59, 101
1, 37938, Note_on_c, 6, 62, 100
1, 37938, Note_on_c, 9, 35, 95
1, 37938, Note_on_c, 0, 43, 114
1, 37948, Note_on_c, 6, 62, 0
1, 37948, Note_on_c, 6, 59, 0
1, 37948, Note_on_c, 6, 55, 0
1, 37950, Note_on_c, 9, 35, 0
1, 37950, Note_on_c, 9, 42, 0
1, 38090, Note_on_c, 0, 43, 0
1, 38098, Note_on_c, 1, 38, 0
1, 38130, Note_on_c, 9, 54, 110
1, 38130, Note_on_c, 6, 43, 110
1, 38130, Note_on_c, 2, 86, 95
1, 38130, Note_on_c, 2, 83, 97
1, 38130, Note_on_c, 0, 55, 95
1, 38130, Note_on_c, 9, 42, 91
1, 38130, Note_on_c, 1, 31, 106
1, 38130, Note_on_c, 9, 40, 127
1, 38130, Note_on_c, 2, 79, 95
1, 38130, Note_on_c, 0, 62, 99
1, 38130, Note_on_c, 0, 59, 102
1, 38130, Note_on_c, 6, 50, 110
1, 38140, Note_on_c, 6, 55, 0
1, 38140, Note_on_c, 6, 59, 0
1, 38140, Note_on_c, 6, 62, 0
1, 38142, Note_on_c, 9, 42, 0
1, 38142, Note_on_c, 9, 40, 0
1, 38142, Note_on_c, 9, 54, 0
1, 38188, Note_on_c, 6, 50, 0
1, 38188, Note_on_c, 6, 43, 0
1, 38248, Pitch_bend_c, 3, 8000
1, 38254, Pitch_bend_c, 3, 6112
1, 38266, Note_on_c, 0, 55, 0
1, 38268, Pitch_bend_c, 3, 3072
1, 38268, Note_on_c, 0, 59, 0
1, 38268, Note_on_c, 2, 79, 0
1, 38276, Note_on_c, 0, 62, 0
1, 38280, Pitch_bend_c, 3, 544
1, 38286, Note_on_c, 1, 31, 0
1, 38288, Note_on_c, 2, 83, 0
1, 38294, Pitch_bend_c, 3, 0
1, 38302, Note_on_c, 2, 86, 0
1, 38322, Note_on_c, 9, 46, 70
1, 38322, Note_on_c, 3, 64, 125
1, 38322, Note_on_c, 6, 55, 80
1, 38322, Note_on_c, 5, 67, 102
1, 38322, Note_on_c, 0, 43, 103
1, 38322, Note_on_c, 1, 31, 101
1, 38322, Note_on_c, 2, 79, 82
1, 38322, Note_on_c, 6, 64, 81
1, 38322, Note_on_c, 6, 60, 85
1, 38334, Note_on_c, 9, 46, 0
1, 38356, Pitch_bend_c, 3, 704
1, 38364, Pitch_bend_c, 3, 2208
1, 38380, Pitch_bend_c, 3, 3968
1, 38392, Pitch_bend_c, 3, 5792
1, 38400, Note_on_c, 2, 79, 0
1, 38406, Pitch_bend_c, 3, 7392
1, 38420, Pitch_bend_c, 3, 8160
1, 38420, Note_on_c, 0, 43, 0
1, 38432, Pitch_bend_c, 3, 8192
1, 38470, Note_on_c, 1, 31, 0
1, 38514, Note_on_c, 6, 64, 103
1, 38514, Note_on_c, 2, 88, 95
1, 38514, Note_on_c, 9, 35, 101
1, 38514, Note_on_c, 4, 67, 89
1, 38514, Note_on_c, 4, 79, 84
1, 38514, Note_on_c, 2, 84, 95
1, 38514, Note_on_c, 0, 48, 116
1, 38514, Note_on_c, 1, 36, 99
1, 38514, Note_on_c, 2, 79, 97
1, 38514, Note_on_c, 0, 60, 116
1, 38514, Note_on_c, 6, 60, 111
1, 38514, Note_on_c, 0, 55, 114
1, 38514, Note_on_c, 0, 64, 110
1, 38514, Note_on_c, 9, 42, 92
1, 38514, Note_on_c, 6, 55, 103
1, 38514, Note_on_c, 4, 79, 0
1, 38514, Note_on_c, 4, 67, 0
1, 38524, Note_on_c, 6, 55, 0
1, 38524, Note_on_c, 6, 64, 0
1, 38524, Note_on_c, 6, 60, 0
1, 38526, Note_on_c, 9, 35, 0
1, 38526, Note_on_c, 9, 42, 0
1, 38570, Note_on_c, 3, 64, 0
1, 38594, Note_on_c, 5, 67, 0
1, 38626, Note_on_c, 0, 48, 0
1, 38678, Note_on_c, 2, 84, 0
1, 38684, Note_on_c, 2, 88, 0
1, 38694, Note_on_c, 1, 36, 0
1, 38702, Note_on_c, 2, 79, 0
1, 38706, Note_on_c, 9, 35, 85
1, 38706, Note_on_c, 6, 55, 105
1, 38706, Note_on_c, 5, 67, 106
1, 38706, Note_on_c, 0, 48, 105
1, 38706, Note_on_c, 6, 64, 111
1, 38706, Note_on_c, 3, 64, 117
1, 38706, Note_on_c, 9, 42, 57
1, 38706, Note_on_c, 1, 40, 99
1, 38706, Note_on_c, 6, 60, 107
1, 38716, Note_on_c, 6, 60, 0
1, 38716, Note_on_c, 6, 64, 0
1, 38716, Note_on_c, 6, 55, 0
1, 38718, Note_on_c, 9, 35, 0
1, 38718, Note_on_c, 9, 42, 0
1, 38732, Note_on_c, 0, 60, 0
1, 38742, Note_on_c, 0, 55, 0
1, 38744, Control_c, 3, 1, 2
1, 38744, Note_on_c, 0, 64, 0
1, 38770, Note_on_c, 5, 67, 0
1, 38774, Control_c, 3, 1, 3
1, 38786, Note_on_c, 3, 64, 0
1, 38814, Control_c, 3, 1, 4
1, 38850, Note_on_c, 0, 48, 0
1, 38880, Note_on_c, 1, 40, 0
1, 38882, Control_c, 3, 1, 5
1, 38888, Control_c, 3, 1, 9
1, 38898, Note_on_c, 6, 55, 110
1, 38898, Note_on_c, 5, 67, 110
1, 38898, Note_on_c, 0, 64, 113
1, 38898, Note_on_c, 9, 42, 77
1, 38898, Note_on_c, 9, 40, 114
1, 38898, Note_on_c, 9, 54, 117
1, 38898, Note_on_c, 6, 48, 110
1, 38898, Note_on_c, 1, 43, 102
1, 38898, Note_on_c, 2, 84, 95
1, 38898, Note_on_c, 2, 79, 92
1, 38898, Note_on_c, 3, 64, 127
1, 38898, Note_on_c, 0, 60, 110
1, 38898, Note_on_c, 0, 55, 110
1, 38898, Note_on_c, 2, 88, 97
1, 38906, Control_c, 3, 1, 15
1, 38908, Note_on_c, 6, 55, 0
1, 38908, Note_on_c, 6, 64, 0
1, 38908, Note_on_c, 6, 60, 0
1, 38910, Note_on_c, 9, 42, 0
1, 38910, Note_on_c, 9, 54, 0
1, 38910, Note_on_c, 9, 40, 0
1, 38928, Control_c, 3, 1, 21
1, 38940, Control_c, 3, 1, 30
1, 38956, Note_on_c, 6, 48, 0
1, 38956, Note_on_c, 6, 55, 0
1, 38960, Control_c, 3, 1, 38
1, 38980, Control_c, 3, 1, 42
1, 39006, Control_c, 3, 1, 43
1, 39014, Control_c, 3, 1, 45
1, 39022, Note_on_c, 2, 79, 0
1, 39040, Control_c, 3, 1, 44
1, 39040, Note_on_c, 3, 64, 0
1, 39046, Note_on_c, 0, 64, 0
1, 39048, Note_on_c, 0, 60, 0
1, 39054, Control_c, 3, 1, 42
1, 39056, Note_on_c, 5, 67, 0
1, 39062, Note_on_c, 0, 55, 0
1, 39072, Control_c, 3, 1, 40
1, 39084, Note_on_c, 1, 43, 0
1, 39086, Control_c, 3, 1, 35
1, 39090, Note_on_c, 6, 62, 83
1, 39090, Note_on_c, 1, 31, 91
1, 39090, Note_on_c, 6, 59, 95
1, 39090, Note_on_c, 0, 43, 118
1, 39090, Note_on_c, 5, 65, 90
1, 39090, Note_on_c, 3, 62, 99
1, 39090, Note_on_c, 9, 42, 61
1, 39090, Note_on_c, 6, 55, 87
1, 39090, Note_on_c, 2, 79, 76
1, 39096, Note_on_c, 2, 88, 0
1, 39100, Note_on_c, 2, 84, 0
1, 39102, Note_on_c, 9, 42, 0
1, 39106, Control_c, 3, 1, 31
1, 39120, Control_c, 3, 1, 28
1, 39138, Control_c, 3, 1, 25
1, 39144, Note_on_c, 2, 79, 0
1, 39156, Note_on_c, 3, 62, 0
1, 39160, Control_c, 3, 1, 24
1, 39166, Note_on_c, 5, 65, 0
1, 39186, Control_c, 3, 1, 26
1, 39192, Control_c, 3, 1, 32
1, 39212, Control_c, 3, 1, 35
1, 39232, Control_c, 3, 1, 36
1, 39238, Note_on_c, 1, 31, 0
1, 39246, Control_c, 3, 1, 39
1, 39266, Control_c, 3, 1, 41
1, 39276, Note_on_c, 0, 43, 0
1, 39282, Note_on_c, 6, 55, 109
1, 39282, Note_on_c, 3, 62, 120
1, 39282, Note_on_c, 5, 65, 95
1, 39282, Note_on_c, 2, 86, 98
1, 39282, Note_on_c, 0, 59, 111
1, 39282, Note_on_c, 6, 62, 111
1, 39282, Note_on_c, 2, 83, 104
1, 39282, Note_on_c, 9, 42, 76
1, 39282, Note_on_c, 0, 55, 106
1, 39282, Note_on_c, 9, 35, 103
1, 39282, Note_on_c, 2, 79, 102
1, 39282, Note_on_c, 6, 59, 114
1, 39282, Note_on_c, 0, 62, 105
1, 39282, Note_on_c, 1, 31, 114
1, 39286, Control_c, 3, 1, 44
1, 39292, Note_on_c, 6, 59, 0
1, 39292, Note_on_c, 6, 62, 0
1, 39292, Note_on_c, 6, 55, 0
1, 39294, Note_on_c, 9, 35, 0
1, 39294, Note_on_c, 9, 42, 0
1, 39306, Control_c, 3, 1, 46
1, 39318, Control_c, 3, 1, 49
1, 39336, Control_c, 3, 1, 51
1, 39374, Note_on_c, 5, 65, 0
1, 39396, Control_c, 3, 1, 53
1, 39414, Note_on_c, 3, 62, 0
1, 39416, Control_c, 3, 1, 55
1, 39434, Note_on_c, 2, 83, 0
1, 39450, Control_c, 3, 1, 51
1, 39454, Note_on_c, 2, 86, 0
1, 39460, Note_on_c, 2, 79, 0
1, 39462, Control_c, 3, 1, 40
1, 39464, Note_on_c, 1, 31, 0
1, 39466, Note_on_c, 0, 59, 0
1, 39474, Note_on_c, 9, 42, 54
1, 39474, Note_on_c, 6, 62, 114
1, 39474, Note_on_c, 3, 62, 117
1, 39474, Note_on_c, 5, 65, 95
1, 39474, Note_on_c, 6, 59, 113
1, 39474, Note_on_c, 9, 35, 91
1, 39474, Note_on_c, 6, 55, 106
1, 39474, Note_on_c, 0, 43, 114
1, 39474, Note_on_c, 1, 35, 101
1, 39474, Note_on_c, 0, 55, 0
1, 39474, Note_on_c, 0, 62, 0
1, 39484, Control_c, 3, 1, 38
1, 39484, Note_on_c, 6, 62, 0
1, 39484, Note_on_c, 6, 59, 0
1, 39484, Note_on_c, 6, 55, 0
1, 39486, Note_on_c, 9, 42, 0
1, 39486, Note_on_c, 9, 35, 0
1, 39502, Control_c, 3, 1, 42
1, 39522, Control_c, 3, 1, 45
1, 39530, Note_on_c, 5, 65, 0
1, 39562, Note_on_c, 3, 62, 0
1, 39576, Control_c, 3, 1, 41
1, 39590, Control_c, 3, 1, 31
1, 39610, Control_c, 3, 1, 24
1, 39628, Control_c, 3, 1, 23
1, 39636, Note_on_c, 1, 35, 0
1, 39638, Note_on_c, 0, 43, 0
1, 39656, Control_c, 3, 1, 24
1, 39660, Control_c, 3, 1, 27
1, 39666, Note_on_c, 6, 50, 110
1, 39666, Note_on_c, 0, 55, 111
1, 39666, Note_on_c, 9, 40, 111
1, 39666, Note_on_c, 9, 42, 82
1, 39666, Note_on_c, 6, 43, 110
1, 39666, Note_on_c, 5, 65, 105
1, 39666, Note_on_c, 0, 59, 113
1, 39666, Note_on_c, 3, 62, 119
1, 39666, Note_on_c, 0, 62, 109
1, 39666, Note_on_c, 2, 83, 95
1, 39666, Note_on_c, 2, 79, 98
1, 39666, Note_on_c, 9, 54, 115
1, 39666, Note_on_c, 1, 38, 105
1, 39666, Note_on_c, 2, 86, 93
1, 39676, Note_on_c, 6, 55, 0
1, 39676, Note_on_c, 6, 62, 0
1, 39676, Note_on_c, 6, 59, 0
1, 39678, Note_on_c, 9, 54, 0
1, 39678, Note_on_c, 9, 42, 0
1, 39678, Note_on_c, 9, 40, 0
1, 39682, Control_c, 3, 1, 28
1, 39696, Control_c, 3, 1, 28
1, 39714, Control_c, 3, 1, 17
1, 39724, Note_on_c, 6, 43, 0
1, 39724, Note_on_c, 6, 50, 0
1, 39732, Control_c, 3, 1, 12
1, 39770, Note_on_c, 5, 65, 0
1, 39772, Control_c, 3, 1, 10
1, 39782, Note_on_c, 3, 62, 0
1, 39786, Control_c, 3, 1, 8
1, 39808, Note_on_c, 0, 55, 0
1, 39814, Control_c, 3, 1, 7
1, 39816, Note_on_c, 0, 59, 0
1, 39826, Note_on_c, 2, 83, 0
1, 39832, Control_c, 3, 1, 6
1, 39832, Note_on_c, 2, 79, 0
1, 39836, Note_on_c, 1, 38, 0
1, 39838, Note_on_c, 0, 62, 0
1, 39840, Control_c, 3, 1, 2
1, 39840, Note_on_c, 2, 86, 0
1, 39858, Note_on_c, 5, 65, 99
1, 39858, Note_on_c, 9, 42, 58
1, 39858, Note_on_c, 1, 31, 104
1, 39858, Note_on_c, 6, 57, 94
1, 39858, Note_on_c, 6, 60, 82
1, 39858, Note_on_c, 3, 62, 112
1, 39858, Note_on_c, 6, 53, 85
1, 39858, Note_on_c, 0, 43, 114
1, 39862, Control_c, 3, 1, 0
1, 39870, Note_on_c, 9, 42, 0
1, 39918, Note_on_c, 3, 62, 0
1, 39928, Note_on_c, 5, 65, 0
1, 39958, Note_on_c, 0, 43, 0
1, 39964, Pitch_bend_c, 3, 7776
1, 39976, Pitch_bend_c, 3, 6048
1, 39988, Pitch_bend_c, 3, 3584
1, 40002, Pitch_bend_c, 3, 1856
1, 40012, Note_on_c, 1, 31, 0
1, 40016, Pitch_bend_c, 3, 1056
1, 40028, Pitch_bend_c, 3, 704
1, 40042, Pitch_bend_c, 3, 704
1, 40050, Note_on_c, 3, 65, 127
1, 40050, Note_on_c, 9, 42, 77
1, 40050, Note_on_c, 9, 35, 103
1, 40050, Note_on_c, 5, 69, 114
1, 40050, Note_on_c, 6, 53, 109
1, 40050, Note_on_c, 6, 60, 110
1, 40050, Note_on_c, 6, 57, 114
1, 40050, Note_on_c, 2, 81, 97
1, 40050, Note_on_c, 0, 41, 107
1, 40050, Note_on_c, 0, 60, 109
1, 40050, Note_on_c, 2, 86, 95
1, 40050, Note_on_c, 4, 81, 91
1, 40050, Note_on_c, 4, 69, 89
1, 40050, Note_on_c, 2, 89, 99
1, 40050, Note_on_c, 0, 65, 107
1, 40050, Note_on_c, 0, 57, 96
1, 40050, Note_on_c, 1, 29, 111
1, 40050, Note_on_c, 4, 79, 0
1, 40050, Note_on_c, 4, 67, 0
1, 40056, Pitch_bend_c, 3, 1632
1, 40060, Note_on_c, 6, 60, 0
1, 40060, Note_on_c, 6, 53, 0
1, 40060, Note_on_c, 6, 57, 0
1, 40062, Note_on_c, 9, 35, 0
1, 40062, Note_on_c, 9, 42, 0
1, 40076, Pitch_bend_c, 3, 2816
1, 40088, Pitch_bend_c, 3, 4352
1, 40102, Pitch_bend_c, 3, 6112
1, 40116, Pitch_bend_c, 3, 7648
1, 40128, Pitch_bend_c, 3, 8032
1, 40136, Pitch_bend_c, 3, 8192
1, 40162, Note_on_c, 5, 69, 0
1, 40166, Note_on_c, 0, 41, 0
1, 40172, Note_on_c, 3, 65, 0
1, 40222, Note_on_c, 1, 29, 0
1, 40242, Note_on_c, 1, 33, 100
1, 40242, Note_on_c, 3, 65, 114
1, 40242, Note_on_c, 6, 57, 105
1, 40242, Note_on_c, 9, 35, 91
1, 40242, Note_on_c, 9, 42, 69
1, 40242, Note_on_c, 5, 69, 96
1, 40242, Note_on_c, 6, 53, 93
1, 40242, Note_on_c, 6, 60, 100
1, 40242, Note_on_c, 0, 41, 114
1, 40246, Note_on_c, 2, 86, 0
1, 40252, Note_on_c, 6, 60, 0
1, 40252, Note_on_c, 6, 53, 0
1, 40252, Note_on_c, 6, 57, 0
1, 40254, Note_on_c, 9, 42, 0
1, 40254, Note_on_c, 9, 35, 0
1, 40258, Note_on_c, 2, 89, 0
1, 40262, Note_on_c, 2, 81, 0
1, 40288, Note_on_c, 0, 60, 0
1, 40292, Note_on_c, 0, 65, 0
1, 40294, Note_on_c, 0, 57, 0
1, 40332, Note_on_c, 5, 69, 0
1, 40346, Note_on_c, 3, 65, 0
1, 40380, Note_on_c, 0, 41, 0
1, 40390, Note_on_c, 1, 33, 0
1, 40434, Note_on_c, 2, 89, 101
1, 40434, Note_on_c, 9, 42, 96
1, 40434, Note_on_c, 6, 41, 110
1, 40434, Note_on_c, 2, 86, 96
1, 40434, Note_on_c, 2, 81, 95
1, 40434, Note_on_c, 5, 69, 104
1, 40434, Note_on_c, 9, 40, 120
1, 40434, Note_on_c, 9, 54, 115
1, 40434, Note_on_c, 3, 65, 120
1, 40434, Note_on_c, 0, 65, 105
1, 40434, Note_on_c, 6, 48, 110
1, 40434, Note_on_c, 0, 60, 107
1, 40434, Note_on_c, 0, 57, 100
1, 40434, Note_on_c, 1, 36, 101
1, 40444, Note_on_c, 6, 60, 0
1, 40444, Note_on_c, 6, 57, 0
1, 40444, Note_on_c, 6, 53, 0
1, 40446, Note_on_c, 9, 54, 0
1, 40446, Note_on_c, 9, 40, 0
1, 40446, Note_on_c, 9, 42, 0
1, 40492, Note_on_c, 6, 48, 0
1, 40492, Note_on_c, 6, 41, 0
1, 40508, Note_on_c, 5, 69, 0
1, 40518, Note_on_c, 3, 65, 0
1, 40558, Note_on_c, 0, 65, 0
1, 40562, Note_on_c, 0, 60, 0
1, 40574, Note_on_c, 0, 57, 0
1, 40580, Note_on_c, 2, 81, 0
1, 40586, Note_on_c, 1, 36, 0
1, 40616, Control_c, 3, 1, 8
1, 40626, Note_on_c, 9, 42, 66
1, 40626, Note_on_c, 6, 55, 94
1, 40626, Note_on_c, 0, 48, 116
1, 40626, Note_on_c, 6, 60, 98
1, 40626, Note_on_c, 5, 67, 109
1, 40626, Note_on_c, 6, 64, 91
1, 40626, Note_on_c, 1, 36, 106
1, 40626, Note_on_c, 3, 64, 119
1, 40632, Control_c, 3, 1, 24
1, 40634, Note_on_c, 2, 86, 0
1, 40638, Note_on_c, 9, 42, 0
1, 40646, Note_on_c, 2, 89, 0
1, 40650, Control_c, 3, 1, 38
1, 40670, Control_c, 3, 1, 48
1, 40690, Control_c, 3, 1, 53
1, 40704, Control_c, 3, 1, 57
1, 40724, Control_c, 3, 1, 58
1, 40756, Control_c, 3, 1, 56
1, 40762, Control_c, 3, 1, 51
1, 40776, Control_c, 3, 1, 37
1, 40798, Control_c, 3, 1, 18
1, 40810, Note_on_c, 0, 48, 0
1, 40816, Control_c, 3, 1, 6
1, 40818, Note_on_c, 6, 64, 106
1, 40818, Note_on_c, 2, 84, 98
1, 40818, Note_on_c, 0, 55, 107
1, 40818, Note_on_c, 2, 88, 95
1, 40818, Note_on_c, 6, 60, 106
1, 40818, Note_on_c, 2, 79, 104
1, 40818, Note_on_c, 6, 55, 102
1, 40818, Note_on_c, 0, 60, 109
1, 40818, Note_on_c, 9, 35, 109
1, 40818, Note_on_c, 9, 42, 86
1, 40818, Note_on_c, 4, 79, 84
1, 40818, Note_on_c, 0, 64, 102
1, 40818, Note_on_c, 4, 67, 90
1, 40818, Note_on_c, 4, 69, 0
1, 40818, Note_on_c, 4, 81, 0
1, 40822, Note_on_c, 5, 67, 0
1, 40828, Note_on_c, 6, 64, 0
1, 40828, Note_on_c, 6, 60, 0
1, 40828, Note_on_c, 6, 55, 0
1, 40830, Control_c, 3, 1, 0
1, 40830, Note_on_c, 9, 35, 0
1, 40830, Note_on_c, 9, 42, 0
1, 40846, Note_on_c, 3, 64, 0
1, 41000, Note_on_c, 0, 60, 0
1, 41000, Note_on_c, 2, 84, 0
1, 41008, Note_on_c, 1, 36, 0
1, 41008, Note_on_c, 2, 79, 0
1, 41010, Note_on_c, 9, 42, 77
1, 41010, Note_on_c, 3, 60, 117
1, 41010, Note_on_c, 6, 55, 91
1, 41010, Note_on_c, 5, 64, 102
1, 41010, Note_on_c, 6, 64, 95
1, 41010, Note_on_c, 6, 60, 98
1, 41010, Note_on_c, 1, 40, 99
1, 41010, Note_on_c, 9, 35, 89
1, 41010, Note_on_c, 0, 48, 111
1, 41012, Note_on_c, 0, 55, 0
1, 41014, Note_on_c, 2, 88, 0
1, 41014, Note_on_c, 0, 64, 0
1, 41020, Note_on_c, 6, 55, 0
1, 41020, Note_on_c, 6, 64, 0
1, 41020, Note_on_c, 6, 60, 0
1, 41022, Note_on_c, 9, 35, 0
1, 41022, Note_on_c, 9, 42, 0
1, 41086, Note_on_c, 5, 64, 0
1, 41106, Note_on_c, 3, 60, 0
1, 41150, Note_on_c, 0, 48, 0
1, 41184, Note_on_c, 1, 40, 0
1, 41202, Note_on_c, 9, 42, 91
1, 41202, Note_on_c, 2, 88, 97
1, 41202, Note_on_c, 6, 48, 110
1, 41202, Note_on_c, 9, 40, 124
1, 41202, Note_on_c, 0, 55, 97
1, 41202, Note_on_c, 0, 64, 103
1, 41202, Note_on_c, 6, 55, 110
1, 41202, Note_on_c, 2, 79, 95
1, 41202, Note_on_c, 5, 64, 95
1, 41202, Note_on_c, 3, 60, 117
1, 41202, Note_on_c, 2, 84, 97
1, 41202, Note_on_c, 0, 60, 105
1, 41202, Note_on_c, 9, 54, 113
1, 41202, Note_on_c, 1, 43, 104
1, 41212, Note_on_c, 6, 55, 0
1, 41212, Note_on_c, 6, 60, 0
1, 41212, Note_on_c, 6, 64, 0
1, 41214, Note_on_c, 9, 54, 0
1, 41214, Note_on_c, 9, 40, 0
1, 41214, Note_on_c, 9, 42, 0
1, 41260, Note_on_c, 6, 48, 0
1, 41260, Note_on_c, 6, 55, 0
1, 41284, Note_on_c, 5, 64, 0
1, 41284, Note_on_c, 3, 60, 0
1, 41314, Pitch_bend_c, 3, 7808
1, 41320, Pitch_bend_c, 3, 5888
1, 41334, Pitch_bend_c, 3, 2848
1, 41342, Note_on_c, 2, 79, 0
1, 41348, Pitch_bend_c, 3, 256
1, 41352, Note_on_c, 0, 60, 0
1, 41354, Note_on_c, 2, 84, 0
1, 41354, Note_on_c, 0, 55, 0
1, 41356, Note_on_c, 0, 64, 0
1, 41360, Pitch_bend_c, 3, 0
1, 41368, Note_on_c, 2, 88, 0
1, 41372, Note_on_c, 1, 43, 0
1, 41394, Note_on_c, 2, 79, 58
1, 41394, Note_on_c, 3, 64, 127
1, 41394, Note_on_c, 9, 42, 70
1, 41394, Note_on_c, 6, 55, 83
1, 41394, Note_on_c, 6, 60, 88
1, 41394, Note_on_c, 1, 31, 118
1, 41394, Note_on_c, 4, 69, 91
1, 41394, Note_on_c, 0, 43, 102
1, 41394, Note_on_c, 5, 69, 104
1, 41394, Note_on_c, 4, 81, 88
1, 41394, Note_on_c, 6, 62, 87
1, 41394, Note_on_c, 4, 79, 0
1, 41394, Note_on_c, 4, 67, 0
1, 41406, Note_on_c, 9, 42, 0
1, 41440, Pitch_bend_c, 3, 416
1, 41446, Pitch_bend_c, 3, 1856
1, 41448, Note_on_c, 2, 79, 0
1, 41458, Pitch_bend_c, 3, 3744
1, 41472, Pitch_bend_c, 3, 5856
1, 41476, Note_on_c, 0, 43, 0
1, 41486, Pitch_bend_c, 3, 7552
1, 41498, Pitch_bend_c, 3, 8000
1, 41504, Pitch_bend_c, 3, 8192
1, 41546, Note_on_c, 1, 31, 0
1, 41586, Note_on_c, 9, 35, 107
1, 41586, Note_on_c, 2, 84, 95
1, 41586, Note_on_c, 1, 31, 106
1, 41586, Note_on_c, 9, 42, 80
1, 41586, Note_on_c, 2, 88, 95
1, 41586, Note_on_c, 0, 62, 111
1, 41586, Note_on_c, 0, 55, 106
1, 41586, Note_on_c, 0, 60, 110
1, 41586, Note_on_c, 0, 43, 121
1, 41586, Note_on_c, 6, 60, 102
1, 41586, Note_on_c, 6, 62, 102
1, 41586, Note_on_c, 2, 79, 98
1, 41586, Note_on_c, 6, 55, 97
1, 41596, Note_on_c, 6, 55, 0
1, 41596, Note_on_c, 6, 62, 0
1, 41596, Note_on_c, 6, 60, 0
1, 41598, Note_on_c, 9, 42, 0
1, 41598, Note_on_c, 9, 35, 0
1, 41686, Note_on_c, 5, 69, 0
1, 41708, Note_on_c, 3, 64, 0
1, 41720, Note_on_c, 2, 79, 0
1, 41734, Note_on_c, 2, 84, 0
1, 41742, Note_on_c, 2, 88, 0
1, 41752, Note_on_c, 1, 31, 0
1, 41766, Note_on_c, 0, 62, 0
1, 41772, Note_on_c, 0, 60, 0
1, 41778, Note_on_c, 5, 67, 107
1, 41778, Note_on_c, 6, 60, 91
1, 41778, Note_on_c, 6, 62, 95
1, 41778, Note_on_c, 1, 35, 110
1, 41778, Note_on_c, 9, 35, 96
1, 41778, Note_on_c, 2, 79, 60
1, 41778, Note_on_c, 3, 62, 114
1, 41778, Note_on_c, 6, 55, 91
1, 41778, Note_on_c, 9, 42, 70
1, 41784, Note_on_c, 0, 55, 0
1, 41788, Note_on_c, 6, 62, 0
1, 41788, Note_on_c, 6, 60, 0
1, 41788, Note_on_c, 6, 55, 0
1, 41790, Note_on_c, 9, 42, 0
1, 41790, Note_on_c, 9, 35, 0
1, 41824, Note_on_c, 2, 79, 0
1, 41842, Note_on_c, 3, 62, 0
1, 41846, Note_on_c, 5, 67, 0
1, 41856, Note_on_c, 0, 43, 0
1, 41932, Note_on_c, 1, 35, 0
1, 41946, Control_c, 3, 1, 5
1, 41968, Control_c, 3, 1, 11
1, 41970, Note_on_c, 6, 43, 110
1, 41970, Note_on_c, 0, 55, 99
1, 41970, Note_on_c, 2, 79, 99
1, 41970, Note_on_c, 0, 60, 106
1, 41970, Note_on_c, 5, 67, 111
1, 41970, Note_on_c, 6, 50, 110
1, 41970, Note_on_c, 2, 88, 95
1, 41970, Note_on_c, 2, 84, 99
1, 41970, Note_on_c, 9, 40, 120
1, 41970, Note_on_c, 9, 42, 86
1, 41970, Note_on_c, 4, 67, 95
1, 41970, Note_on_c, 1, 38, 110
1, 41970, Note_on_c, 9, 54, 115
1, 41970, Note_on_c, 0, 62, 107
1, 41970, Note_on_c, 4, 79, 80
1, 41970, Note_on_c, 3, 62, 127
1, 41970, Note_on_c, 4, 69, 0
1, 41970, Note_on_c, 4, 81, 0
1, 41980, Note_on_c, 6, 55, 0
1, 41980, Note_on_c, 6, 62, 0
1, 41980, Note_on_c, 6, 60, 0
1, 41982, Control_c, 3, 1, 24
1, 41982, Note_on_c, 9, 54, 0
1, 41982, Note_on_c, 9, 42, 0
1, 41982, Note_on_c, 9, 40, 0
1, 42002, Control_c, 3, 1, 36
1, 42022, Control_c, 3, 1, 43
1, 42028, Note_on_c, 6, 50, 0
1, 42028, Note_on_c, 6, 43, 0
1, 42040, Control_c, 3, 1, 45
1, 42054, Control_c, 3, 1, 38
1, 42074, Control_c, 3, 1, 27
1, 42076, Note_on_c, 2, 79, 0
1, 42094, Control_c, 3, 1, 19
1, 42104, Note_on_c, 2, 84, 0
1, 42112, Note_on_c, 5, 67, 0
1, 42112, Note_on_c, 2, 88, 0
1, 42114, Control_c, 3, 1, 13
1, 42124, Note_on_c, 3, 62, 0
1, 42126, Control_c, 3, 1, 6
1, 42134, Note_on_c, 0, 60, 0
1, 42138, Note_on_c, 0, 62, 0
1, 42146, Control_c, 3, 1, 1
1, 42146, Note_on_c, 1, 38, 0
1, 42148, Note_on_c, 0, 55, 0
1, 42162, Note_on_c, 5, 64, 100
1, 42162, Note_on_c, 6, 55, 80
1, 42162, Note_on_c, 1, 31, 109
1, 42162, Note_on_c, 6, 59, 87
1, 42162, Note_on_c, 6, 62, 86
1, 42162, Note_on_c, 3, 60, 110
1, 42162, Note_on_c, 2, 79, 70
1, 42162, Note_on_c, 0, 43, 111
1, 42162, Note_on_c, 9, 42, 69
1, 42166, Control_c, 3, 1, 0
1, 42174, Note_on_c, 9, 42, 0
1, 42206, Note_on_c, 2, 79, 0
1, 42228, Note_on_c, 5, 64, 0
1, 42232, Note_on_c, 3, 60, 0
1, 42314, Note_on_c, 0, 43, 0
1, 42328, Note_on_c, 1, 31, 0
1, 42354, Note_on_c, 0, 59, 118
1, 42354, Note_on_c, 1, 35, 107
1, 42354, Note_on_c, 5, 67, 115
1, 42354, Note_on_c, 2, 86, 98
1, 42354, Note_on_c, 6, 55, 102
1, 42354, Note_on_c, 0, 55, 113
1, 42354, Note_on_c, 3, 62, 127
1, 42354, Note_on_c, 9, 35, 106
1, 42354, Note_on_c, 2, 83, 102
1, 42354, Note_on_c, 6, 62, 110
1, 42354, Note_on_c, 0, 62, 114
1, 42354, Note_on_c, 9, 42, 84
1, 42354, Note_on_c, 2, 79, 101
1, 42354, Note_on_c, 6, 59, 111
1, 42362, Control_c, 3, 1, 8
1, 42364, Note_on_c, 6, 59, 0
1, 42364, Note_on_c, 6, 62, 0
1, 42364, Note_on_c, 6, 55, 0
1, 42366, Note_on_c, 9, 42, 0
1, 42366, Note_on_c, 9, 35, 0
1, 42382, Control_c, 3, 1, 19
1, 42398, Control_c, 3, 1, 37
1, 42418, Control_c, 3, 1, 47
1, 42436, Control_c, 3, 1, 51
1, 42444, Note_on_c, 5, 67, 0
1, 42456, Control_c, 3, 1, 52
1, 42488, Control_c, 3, 1, 50
1, 42496, Note_on_c, 2, 83, 0
1, 42504, Control_c, 3, 1, 38
1, 42504, Note_on_c, 2, 86, 0
1, 42506, Note_on_c, 0, 59, 0
1, 42510, Note_on_c, 0, 62, 0
1, 42512, Note_on_c, 1, 35, 0
1, 42514, Note_on_c, 2, 79, 0
1, 42522, Control_c, 3, 1, 18
1, 42524, Note_on_c, 0, 55, 0
1, 42542, Control_c, 3, 1, 2
1, 42546, Note_on_c, 6, 59, 103
1, 42546, Note_on_c, 1, 38, 106
1, 42546, Note_on_c, 9, 42, 71
1, 42546, Note_on_c, 9, 35, 99
1, 42546, Note_on_c, 0, 43, 113
1, 42546, Note_on_c, 6, 55, 94
1, 42546, Note_on_c, 6, 62, 102
1, 42556, Note_on_c, 6, 62, 0
1, 42556, Note_on_c, 6, 55, 0
1, 42556, Note_on_c, 6, 59, 0
1, 42558, Note_on_c, 9, 35, 0
1, 42558, Note_on_c, 9, 42, 0
1, 42562, Control_c, 3, 1, 0
1, 42562, Note_on_c, 3, 62, 0
1, 42678, Note_on_c, 0, 43, 0
1, 42720, Note_on_c, 1, 38, 0
1, 42738, Note_on_c, 2, 83, 103
1, 42738, Note_on_c, 9, 54, 113
1, 42738, Note_on_c, 1, 31, 107
1, 42738, Note_on_c, 2, 79, 103
1, 42738, Note_on_c, 0, 59, 109
1, 42738, Note_on_c, 9, 40, 122
1, 42738, Note_on_c, 2, 86, 102
1, 42738, Note_on_c, 0, 55, 105
1, 42738, Note_on_c, 9, 42, 90
1, 42738, Note_on_c, 6, 50, 110
1, 42738, Note_on_c, 0, 62, 106
1, 42738, Note_on_c, 6, 43, 110
1, 42748, Note_on_c, 6, 59, 0
1, 42748, Note_on_c, 6, 62, 0
1, 42748, Note_on_c, 6, 55, 0
1, 42750, Note_on_c, 9, 40, 0
1, 42750, Note_on_c, 9, 42, 0
1, 42750, Note_on_c, 9, 54, 0
1, 42796, Note_on_c, 6, 50, 0
1, 42796, Note_on_c, 6, 43, 0
1, 42854, Note_on_c, 0, 59, 0
1, 42856, Note_on_c, 0, 62, 0
1, 42868, Note_on_c, 2, 79, 0
1, 42868, Note_on_c, 2, 86, 0
1, 42870, Note_on_c, 0, 55, 0
1, 42872, Note_on_c, 2, 83, 0
1, 42930, Note_on_c, 6, 59, 77
1, 42930, Note_on_c, 1, 35, 105
1, 42930, Note_on_c, 0, 43, 97
1, 42930, Note_on_c, 6, 55, 64
1, 42930, Note_on_c, 6, 62, 72
1, 42930, Note_on_c, 9, 42, 74
1, 42930, Note_on_c, 1, 31, 0
1, 42942, Note_on_c, 9, 42, 0
1, 43018, Note_on_c, 0, 43, 0
1, 43056, Note_on_c, 1, 35, 0
1, 43122, Note_on_c, 9, 40, 117
1, 43122, Note_on_c, 2, 88, 115
1, 43122, Note_on_c, 5, 76, 118
1, 43122, Note_on_c, 2, 83, 122
1, 43122, Note_on_c, 6, 56, 113
1, 43122, Note_on_c, 5, 64, 120
1, 43122, Note_on_c, 0, 52, 114
1, 43122, Note_on_c, 6, 64, 113
1, 43122, Note_on_c, 2, 80, 111
1, 43122, Note_on_c, 1, 28, 120
1, 43122, Note_on_c, 0, 64, 114
1, 43122, Note_on_c, 0, 40, 118
1, 43122, Note_on_c, 6, 59, 123
1, 43122, Note_on_c, 4, 80, 90
1, 43122, Note_on_c, 4, 68, 111
1, 43122, Note_on_c, 4, 67, 0
1, 43122, Note_on_c, 4, 79, 0
1, 43132, Note_on_c, 6, 59, 0
1, 43132, Note_on_c, 6, 62, 0
1, 43132, Note_on_c, 6, 55, 0
1, 43134, Note_on_c, 9, 40, 0
1, 43244, Note_on_c, 5, 64, 0
1, 43250, Note_on_c, 4, 68, 0
1, 43256, Note_on_c, 2, 83, 0
1, 43256, Note_on_c, 2, 80, 0
1, 43258, Note_on_c, 5, 76, 0
1, 43264, Note_on_c, 4, 80, 0
1, 43270, Pitch_bend_c, 3, 8160
1, 43276, Pitch_bend_c, 3, 6784
1, 43276, Note_on_c, 6, 59, 0
1, 43276, Note_on_c, 2, 88, 0
1, 43284, Note_on_c, 6, 56, 0
1, 43286, Note_on_c, 6, 64, 0
1, 43290, Pitch_bend_c, 3, 2880
1, 43310, Pitch_bend_c, 3, 1120
1, 43314, Note_on_c, 3, 64, 127
1, 43324, Pitch_bend_c, 3, 576
1, 43326, Note_on_c, 1, 28, 0
1, 43336, Pitch_bend_c, 3, 928
1, 43350, Pitch_bend_c, 3, 2336
1, 43352, Note_on_c, 0, 52, 0
1, 43354, Note_on_c, 0, 64, 0
1, 43362, Pitch_bend_c, 3, 4384
1, 43362, Note_on_c, 0, 40, 0
1, 43374, Pitch_bend_c, 3, 6624
1, 43388, Pitch_bend_c, 3, 8032
1, 43402, Pitch_bend_c, 3, 8192
1, 43490, Note_on_c, 3, 64, 0
1, 43506, Note_on_c, 3, 62, 105
1, 43506, Note_on_c, 9, 54, 113
1, 43518, Note_on_c, 9, 54, 0
1, 43578, Note_on_c, 3, 62, 0
1, 43698, Note_on_c, 3, 64, 127
1, 43714, Control_c, 3, 1, 13
1, 43734, Control_c, 3, 1, 26
1, 43746, Control_c, 3, 1, 41
1, 43766, Control_c, 3, 1, 49
1, 43786, Control_c, 3, 1, 51
1, 43804, Control_c, 3, 1, 46
1, 43824, Control_c, 3, 1, 44
1, 43850, Control_c, 3, 1, 45
1, 43858, Control_c, 3, 1, 50
1, 43876, Control_c, 3, 1, 53
1, 43900, Control_c, 3, 1, 49
1, 43912, Control_c, 3, 1, 42
1, 43930, Control_c, 3, 1, 40
1, 43944, Control_c, 3, 1, 39
1, 43976, Control_c, 3, 1, 41
1, 43982, Control_c, 3, 1, 45
1, 44002, Control_c, 3, 1, 47
1, 44022, Control_c, 3, 1, 47
1, 44036, Control_c, 3, 1, 41
1, 44054, Control_c, 3, 1, 34
1, 44078, Control_c, 3, 1, 29
1, 44090, Control_c, 3, 1, 17
1, 44110, Control_c, 3, 1, 8
1, 44128, Control_c, 3, 1, 3
1, 44142, Control_c, 3, 1, 0
1, 44174, Note_on_c, 3, 64, 0
1, 44226, Pitch_bend_c, 3, 8032
1, 44232, Pitch_bend_c, 3, 6368
1, 44244, Pitch_bend_c, 3, 3360
1, 44260, Pitch_bend_c, 3, 768
1, 44272, Pitch_bend_c, 3, 0
1, 44274, Note_on_c, 9, 40, 113
1, 44274, Note_on_c, 0, 59, 114
1, 44274, Note_on_c, 0, 64, 109
1, 44274, Note_on_c, 9, 54, 117
1, 44274, Note_on_c, 1, 28, 102
1, 44274, Note_on_c, 3, 64, 127
1, 44274, Note_on_c, 0, 56, 115
1, 44286, Note_on_c, 9, 54, 0
1, 44286, Note_on_c, 9, 40, 0
1, 44326, Pitch_bend_c, 3, 1664
1, 44346, Pitch_bend_c, 3, 3648
1, 44358, Pitch_bend_c, 3, 5760
1, 44370, Pitch_bend_c, 3, 7488
1, 44384, Pitch_bend_c, 3, 8096
1, 44398, Pitch_bend_c, 3, 8160
1, 44410, Pitch_bend_c, 3, 8032
1, 44424, Pitch_bend_c, 3, 7488
1, 44444, Pitch_bend_c, 3, 6752
1, 44456, Pitch_bend_c, 3, 5856
1, 44470, Pitch_bend_c, 3, 4736
1, 44482, Pitch_bend_c, 3, 3904
1, 44494, Note_on_c, 0, 56, 0
1, 44496, Pitch_bend_c, 3, 3840
1, 44496, Note_on_c, 0, 59, 0
1, 44502, Note_on_c, 3, 64, 0
1, 44508, Pitch_bend_c, 3, 4832
1, 44518, Note_on_c, 0, 64, 0
1, 44524, Pitch_bend_c, 3, 6752
1, 44536, Pitch_bend_c, 3, 8032
1, 44548, Note_on_c, 1, 28, 0
1, 44550, Pitch_bend_c, 3, 8192
1, 44658, Note_on_c, 5, 45, 123
1, 44658, Note_on_c, 9, 42, 92
1, 44658, Note_on_c, 0, 45, 110
1, 44658, Note_on_c, 5, 52, 123
1, 44658, Note_on_c, 9, 35, 101
1, 44658, Note_on_c, 1, 45, 124
1, 44658, Note_on_c, 6, 57, 94
1, 44658, Note_on_c, 6, 52, 93
1, 44658, Note_on_c, 3, 57, 121
1, 44658, Note_on_c, 6, 60, 89
1, 44670, Note_on_c, 9, 35, 0
1, 44670, Note_on_c, 9, 42, 0
1, 44738, Note_on_c, 5, 52, 0
1, 44744, Note_on_c, 5, 45, 0
1, 44750, Note_on_c, 0, 45, 0
1, 44796, Note_on_c, 3, 57, 0
1, 44832, Note_on_c, 1, 45, 0
1, 44850, Note_on_c, 3, 57, 116
1, 44850, Note_on_c, 9, 42, 57
1, 44850, Note_on_c, 0, 45, 106
1, 44850, Note_on_c, 6, 57, 96
1, 44850, Note_on_c, 6, 52, 75
1, 44850, Note_on_c, 6, 60, 93
1, 44850, Note_on_c, 9, 35, 85
1, 44850, Note_on_c, 1, 45, 104
1, 44860, Note_on_c, 6, 60, 0
1, 44860, Note_on_c, 6, 52, 0
1, 44860, Note_on_c, 6, 57, 0
1, 44862, Note_on_c, 9, 35, 0
1, 44862, Note_on_c, 9, 42, 0
1, 44968, Note_on_c, 3, 57, 0
1, 45010, Note_on_c, 0, 45, 0
1, 45042, Note_on_c, 3, 57, 116
1, 45042, Note_on_c, 6, 52, 107
1, 45042, Note_on_c, 9, 42, 77
1, 45042, Note_on_c, 0, 57, 100
1, 45042, Note_on_c, 0, 64, 103
1, 45042, Note_on_c, 0, 60, 106
1, 45042, Note_on_c, 6, 45, 99
1, 45042, Note_on_c, 9, 40, 114
1, 45042, Note_on_c, 9, 54, 115
1, 45052, Note_on_c, 6, 52, 0
1, 45052, Note_on_c, 6, 57, 0
1, 45052, Note_on_c, 6, 60, 0
1, 45054, Note_on_c, 1, 45, 0
1, 45054, Note_on_c, 9, 40, 0
1, 45054, Note_on_c, 9, 54, 0
1, 45054, Note_on_c, 9, 42, 0
1, 45116, Note_on_c, 6, 52, 0
1, 45118, Note_on_c, 6, 45, 0
1, 45136, Note_on_c, 3, 57, 0
1, 45188, Note_on_c, 0, 57, 0
1, 45192, Note_on_c, 0, 60, 0
1, 45202, Note_on_c, 0, 64, 0
1, 45234, Note_on_c, 6, 57, 91
1, 45234, Note_on_c, 9, 42, 61
1, 45234, Note_on_c, 5, 69, 106
1, 45234, Note_on_c, 6, 60, 91
1, 45234, Note_on_c, 3, 57, 124
1, 45234, Note_on_c, 5, 60, 114
1, 45234, Note_on_c, 0, 45, 105
1, 45234, Note_on_c, 5, 64, 118
1, 45234, Note_on_c, 6, 52, 83
1, 45234, Note_on_c, 1, 40, 117
1, 45246, Note_on_c, 9, 42, 0
1, 45302, Note_on_c, 5, 64, 0
1, 45310, Note_on_c, 5, 60, 0
1, 45330, Note_on_c, 5, 69, 0
1, 45342, Note_on_c, 0, 45, 0
1, 45414, Note_on_c, 1, 40, 0
1, 45426, Note_on_c, 6, 60, 96
1, 45426, Note_on_c, 0, 45, 114
1, 45426, Note_on_c, 9, 42, 76
1, 45426, Note_on_c, 1, 45, 118
1, 45426, Note_on_c, 6, 52, 88
1, 45426, Note_on_c, 6, 57, 92
1, 45426, Note_on_c, 9, 35, 103
1, 45436, Note_on_c, 6, 57, 0
1, 45436, Note_on_c, 6, 52, 0
1, 45436, Note_on_c, 6, 60, 0
1, 45438, Note_on_c, 9, 35, 0
1, 45438, Note_on_c, 9, 42, 0
1, 45476, Note_on_c, 3, 57, 0
1, 45490, Control_c, 3, 1, 2
1, 45506, Control_c, 3, 1, 4
1, 45518, Control_c, 3, 1, 6
1, 45542, Control_c, 3, 1, 7
1, 45556, Control_c, 3, 1, 8
1, 45592, Note_on_c, 1, 45, 0
1, 45594, Control_c, 3, 1, 9
1, 45598, Note_on_c, 0, 45, 0
1, 45608, Control_c, 3, 1, 10
1, 45618, Note_on_c, 0, 57, 109
1, 45618, Note_on_c, 6, 52, 91
1, 45618, Note_on_c, 1, 45, 117
1, 45618, Note_on_c, 9, 42, 54
1, 45618, Note_on_c, 9, 35, 91
1, 45618, Note_on_c, 6, 60, 101
1, 45618, Note_on_c, 3, 57, 123
1, 45618, Note_on_c, 0, 64, 110
1, 45618, Note_on_c, 6, 57, 101
1, 45618, Note_on_c, 0, 60, 114
1, 45624, Control_c, 3, 1, 14
1, 45628, Note_on_c, 6, 57, 0
1, 45628, Note_on_c, 6, 52, 0
1, 45628, Note_on_c, 6, 60, 0
1, 45630, Note_on_c, 9, 35, 0
1, 45630, Note_on_c, 9, 42, 0
1, 45644, Control_c, 3, 1, 18
1, 45664, Control_c, 3, 1, 23
1, 45684, Control_c, 3, 1, 26
1, 45696, Control_c, 3, 1, 29
1, 45718, Control_c, 3, 1, 31
1, 45734, Note_on_c, 3, 57, 0
1, 45762, Control_c, 3, 1, 34
1, 45768, Note_on_c, 0, 57, 0
1, 45800, Control_c, 3, 1, 36
1, 45810, Note_on_c, 9, 54, 115
1, 45810, Note_on_c, 9, 42, 82
1, 45810, Note_on_c, 6, 45, 101
1, 45810, Note_on_c, 6, 52, 107
1, 45810, Note_on_c, 9, 40, 111
1, 45810, Note_on_c, 3, 57, 104
1, 45810, Note_on_c, 0, 57, 89
1, 45820, Note_on_c, 6, 52, 0
1, 45820, Note_on_c, 6, 57, 0
1, 45820, Note_on_c, 6, 60, 0
1, 45822, Note_on_c, 9, 40, 0
1, 45822, Note_on_c, 9, 42, 0
1, 45822, Note_on_c, 1, 45, 0
1, 45822, Note_on_c, 9, 54, 0
1, 45832, Control_c, 3, 1, 37
1, 45862, Control_c, 3, 1, 36
1, 45878, Control_c, 3, 1, 31
1, 45882, Note_on_c, 6, 52, 0
1, 45890, Note_on_c, 6, 45, 0
1, 45896, Control_c, 3, 1, 27
1, 45896, Note_on_c, 3, 57, 0
1, 45916, Control_c, 3, 1, 25
1, 45922, Note_on_c, 0, 60, 0
1, 45930, Control_c, 3, 1, 21
1, 45936, Note_on_c, 0, 64, 0
1, 45974, Control_c, 3, 1, 25
1, 45976, Note_on_c, 0, 57, 0
1, 45986, Control_c, 3, 1, 29
1, 46002, Note_on_c, 9, 42, 58
1, 46002, Note_on_c, 6, 53, 80
1, 46002, Note_on_c, 6, 57, 87
1, 46002, Note_on_c, 0, 45, 121
1, 46002, Note_on_c, 3, 60, 125
1, 46002, Note_on_c, 6, 60, 87
1, 46002, Note_on_c, 1, 40, 114
1, 46006, Control_c, 3, 1, 31
1, 46014, Note_on_c, 9, 42, 0
1, 46026, Control_c, 3, 1, 33
1, 46038, Control_c, 3, 1, 35
1, 46060, Control_c, 3, 1, 37
1, 46078, Control_c, 3, 1, 39
1, 46108, Note_on_c, 0, 45, 0
1, 46116, Control_c, 3, 1, 41
1, 46128, Control_c, 3, 1, 42
1, 46168, Control_c, 3, 1, 40
1, 46182, Control_c, 3, 1, 36
1, 46186, Note_on_c, 1, 40, 0
1, 46194, Note_on_c, 5, 53, 121
1, 46194, Note_on_c, 0, 57, 93
1, 46194, Note_on_c, 6, 57, 93
1, 46194, Note_on_c, 9, 35, 103
1, 46194, Note_on_c, 1, 41, 114
1, 46194, Note_on_c, 6, 60, 84
1, 46194, Note_on_c, 5, 45, 116
1, 46194, Note_on_c, 6, 53, 87
1, 46194, Note_on_c, 0, 41, 106
1, 46194, Note_on_c, 0, 60, 103
1, 46194, Note_on_c, 9, 42, 77
1, 46194, Note_on_c, 0, 65, 105
1, 46204, Note_on_c, 6, 53, 0
1, 46204, Note_on_c, 6, 57, 0
1, 46204, Note_on_c, 6, 60, 0
1, 46206, Note_on_c, 9, 35, 0
1, 46206, Note_on_c, 9, 42, 0
1, 46218, Control_c, 3, 1, 38
1, 46238, Control_c, 3, 1, 40
1, 46258, Control_c, 3, 1, 43
1, 46276, Control_c, 3, 1, 47
1, 46286, Note_on_c, 5, 53, 0
1, 46292, Note_on_c, 5, 45, 0
1, 46292, Note_on_c, 0, 57, 0
1, 46296, Control_c, 3, 1, 50
1, 46300, Note_on_c, 3, 60, 0
1, 46320, Control_c, 3, 1, 34
1, 46348, Control_c, 3, 1, 22
1, 46362, Control_c, 3, 1, 6
1, 46368, Note_on_c, 1, 41, 0
1, 46380, Control_c, 3, 1, 0
1, 46386, Note_on_c, 0, 57, 85
1, 46386, Note_on_c, 3, 57, 112
1, 46386, Note_on_c, 6, 53, 83
1, 46386, Note_on_c, 9, 35, 91
1, 46386, Note_on_c, 9, 42, 69
1, 46386, Note_on_c, 1, 41, 99
1, 46386, Note_on_c, 6, 57, 88
1, 46386, Note_on_c, 6, 60, 88
1, 46390, Note_on_c, 0, 65, 0
1, 46394, Note_on_c, 0, 41, 0
1, 46396, Note_on_c, 6, 53, 0
1, 46396, Note_on_c, 6, 57, 0
1, 46396, Note_on_c, 6, 60, 0
1, 46398, Note_on_c, 9, 42, 0
1, 46398, Note_on_c, 9, 35, 0
1, 46430, Note_on_c, 0, 60, 0
1, 46474, Note_on_c, 3, 57, 0
1, 46516, Note_on_c, 0, 57, 0
1, 46578, Note_on_c, 9, 42, 96
1, 46578, Note_on_c, 6, 41, 101
1, 46578, Note_on_c, 0, 41, 111
1, 46578, Note_on_c, 6, 48, 107
1, 46578, Note_on_c, 9, 40, 120
1, 46578, Note_on_c, 9, 54, 113
1, 46588, Note_on_c, 6, 57, 0
1, 46588, Note_on_c, 6, 53, 0
1, 46588, Note_on_c, 6, 60, 0
1, 46590, Note_on_c, 9, 42, 0
1, 46590, Note_on_c, 9, 40, 0
1, 46590, Note_on_c, 9, 54, 0
1, 46618, Note_on_c, 1, 41, 0
1, 46650, Note_on_c, 6, 48, 0
1, 46658, Note_on_c, 6, 41, 0
1, 46764, Note_on_c, 0, 41, 0
1, 46770, Note_on_c, 6, 53, 89
1, 46770, Note_on_c, 0, 65, 116
1, 46770, Note_on_c, 0, 57, 111
1, 46770, Note_on_c, 1, 36, 115
1, 46770, Note_on_c, 6, 57, 97
1, 46770, Note_on_c, 0, 60, 116
1, 46770, Note_on_c, 5, 69, 122
1, 46770, Note_on_c, 5, 60, 114
1, 46770, Note_on_c, 6, 60, 97
1, 46770, Note_on_c, 5, 65, 122
1, 46770, Note_on_c, 9, 42, 66
1, 46782, Note_on_c, 9, 42, 0
1, 46842, Note_on_c, 5, 65, 0
1, 46846, Note_on_c, 5, 60, 0
1, 46858, Note_on_c, 5, 69, 0
1, 46946, Note_on_c, 1, 36, 0
1, 46962, Note_on_c, 6, 53, 88
1, 46962, Note_on_c, 0, 41, 100
1, 46962, Note_on_c, 9, 35, 109
1, 46962, Note_on_c, 9, 42, 86
1, 46962, Note_on_c, 1, 41, 117
1, 46962, Note_on_c, 6, 60, 99
1, 46962, Note_on_c, 6, 57, 96
1, 46972, Note_on_c, 6, 57, 0
1, 46972, Note_on_c, 6, 60, 0
1, 46972, Note_on_c, 6, 53, 0
1, 46974, Note_on_c, 9, 42, 0
1, 46974, Note_on_c, 9, 35, 0
1, 46980, Note_on_c, 0, 57, 0
1, 47062, Note_on_c, 0, 60, 0
1, 47090, Note_on_c, 0, 65, 0
1, 47142, Note_on_c, 1, 41, 0
1, 47154, Note_on_c, 0, 57, 94
1, 47154, Note_on_c, 9, 35, 89
1, 47154, Note_on_c, 6, 53, 89
1, 47154, Note_on_c, 6, 57, 96
1, 47154, Note_on_c, 1, 41, 104
1, 47154, Note_on_c, 9, 42, 77
1, 47154, Note_on_c, 6, 60, 97
1, 47164, Note_on_c, 6, 60, 0
1, 47164, Note_on_c, 6, 57, 0
1, 47164, Note_on_c, 6, 53, 0
1, 47166, Note_on_c, 9, 42, 0
1, 47166, Note_on_c, 9, 35, 0
1, 47224, Note_on_c, 0, 57, 0
1, 47342, Note_on_c, 1, 41, 0
1, 47346, Note_on_c, 9, 54, 115
1, 47346, Note_on_c, 6, 48, 107
1, 47346, Note_on_c, 0, 60, 106
1, 47346, Note_on_c, 0, 65, 105
1, 47346, Note_on_c, 9, 40, 124
1, 47346, Note_on_c, 6, 41, 101
1, 47346, Note_on_c, 9, 42, 91
1, 47346, Note_on_c, 0, 57, 98
1, 47356, Note_on_c, 6, 53, 0
1, 47356, Note_on_c, 6, 57, 0
1, 47356, Note_on_c, 6, 60, 0
1, 47358, Note_on_c, 9, 40, 0
1, 47358, Note_on_c, 9, 42, 0
1, 47358, Note_on_c, 9, 54, 0
1, 47380, Note_on_c, 0, 41, 0
1, 47418, Note_on_c, 6, 48, 0
1, 47426, Note_on_c, 6, 41, 0
1, 47486, Pitch_bend_c, 3, 8160
1, 47492, Pitch_bend_c, 3, 7008
1, 47502, Note_on_c, 0, 60, 0
1, 47504, Pitch_bend_c, 3, 2624
1, 47506, Note_on_c, 0, 57, 0
1, 47526, Note_on_c, 0, 65, 0
1, 47536, Pitch_bend_c, 3, 2304
1, 47538, Note_on_c, 6, 60, 76
1, 47538, Note_on_c, 6, 53, 77
1, 47538, Note_on_c, 6, 57, 79
1, 47538, Note_on_c, 9, 42, 70
1, 47538, Note_on_c, 3, 60, 127
1, 47538, Note_on_c, 0, 41, 111
1, 47538, Note_on_c, 1, 38, 118
1, 47550, Pitch_bend_c, 3, 3040
1, 47550, Note_on_c, 9, 42, 0
1, 47562, Pitch_bend_c, 3, 4736
1, 47576, Pitch_bend_c, 3, 6720
1, 47588, Pitch_bend_c, 3, 7936
1, 47600, Pitch_bend_c, 3, 8192
1, 47640, Note_on_c, 0, 41, 0
1, 47696, Note_on_c, 1, 38, 0
1, 47730, Note_on_c, 0, 62, 69
1, 47730, Note_on_c, 5, 43, 120
1, 47730, Note_on_c, 0, 43, 125
1, 47730, Note_on_c, 6, 62, 100
1, 47730, Note_on_c, 5, 50, 113
1, 47730, Note_on_c, 9, 35, 107
1, 47730, Note_on_c, 9, 42, 80
1, 47730, Note_on_c, 0, 60, 100
1, 47730, Note_on_c, 4, 72, 114
1, 47730, Note_on_c, 1, 43, 117
1, 47730, Note_on_c, 6, 59, 92
1, 47730, Note_on_c, 6, 55, 85
1, 47740, Note_on_c, 6, 57, 0
1, 47740, Note_on_c, 6, 60, 0
1, 47740, Note_on_c, 6, 53, 0
1, 47742, Note_on_c, 9, 42, 0
1, 47742, Note_on_c, 9, 35, 0
1, 47750, Note_on_c, 0, 62, 0
1, 47758, Note_on_c, 3, 60, 0
1, 47844, Note_on_c, 5, 43, 0
1, 47846, Note_on_c, 0, 60, 0
1, 47858, Note_on_c, 5, 50, 0
1, 47896, Note_on_c, 1, 43, 0
1, 47922, Note_on_c, 6, 59, 99
1, 47922, Note_on_c, 9, 35, 96
1, 47922, Note_on_c, 9, 42, 70
1, 47922, Note_on_c, 6, 55, 97
1, 47922, Note_on_c, 0, 67, 97
1, 47922, Note_on_c, 6, 62, 101
1, 47922, Note_on_c, 0, 62, 100
1, 47922, Note_on_c, 1, 43, 106
1, 47922, Note_on_c, 0, 60, 77
1, 47922, Note_on_c, 3, 60, 120
1, 47932, Note_on_c, 6, 62, 0
1, 47932, Note_on_c, 6, 55, 0
1, 47932, Note_on_c, 6, 59, 0
1, 47934, Note_on_c, 9, 42, 0
1, 47934, Note_on_c, 9, 35, 0
1, 47968, Control_c, 3, 1, 2
1, 47988, Note_on_c, 0, 60, 0
1, 47998, Note_on_c, 0, 62, 0
1, 48000, Control_c, 3, 1, 0
1, 48002, Note_on_c, 0, 67, 0
1, 48070, Control_c, 3, 1, 2
1, 48076, Note_on_c, 3, 60, 0
1, 48090, Control_c, 3, 1, 3
1, 48114, Note_on_c, 3, 60, 119
1, 48114, Note_on_c, 9, 40, 120
1, 48114, Note_on_c, 9, 42, 86
1, 48114, Note_on_c, 9, 54, 115
1, 48114, Note_on_c, 0, 60, 103
1, 48114, Note_on_c, 0, 67, 109
1, 48114, Note_on_c, 6, 50, 107
1, 48114, Note_on_c, 0, 62, 114
1, 48114, Note_on_c, 6, 43, 101
1, 48118, Control_c, 3, 1, 4
1, 48124, Note_on_c, 6, 59, 0
1, 48124, Note_on_c, 6, 55, 0
1, 48124, Note_on_c, 6, 62, 0
1, 48124, Note_on_c, 1, 43, 0
1, 48126, Note_on_c, 9, 42, 0
1, 48126, Note_on_c, 9, 40, 0
1, 48126, Note_on_c, 9, 54, 0
1, 48130, Control_c, 3, 1, 6
1, 48150, Control_c, 3, 1, 9
1, 48160, Note_on_c, 0, 43, 0
1, 48168, Control_c, 3, 1, 11
1, 48184, Control_c, 3, 1, 12
1, 48186, Note_on_c, 6, 50, 0
1, 48194, Note_on_c, 6, 43, 0
1, 48200, Control_c, 3, 1, 15
1, 48220, Control_c, 3, 1, 17
1, 48240, Control_c, 3, 1, 19
1, 48254, Control_c, 3, 1, 22
1, 48256, Note_on_c, 3, 60, 0
1, 48298, Control_c, 3, 1, 20
1, 48306, Note_on_c, 6, 55, 77
1, 48306, Note_on_c, 9, 42, 69
1, 48306, Note_on_c, 6, 59, 77
1, 48306, Note_on_c, 3, 60, 125
1, 48306, Note_on_c, 1, 38, 115
1, 48306, Note_on_c, 5, 59, 113
1, 48306, Note_on_c, 5, 67, 115
1, 48306, Note_on_c, 6, 62, 67
1, 48306, Note_on_c, 0, 43, 107
1, 48306, Note_on_c, 5, 62, 124
1, 48312, Control_c, 3, 1, 17
1, 48318, Note_on_c, 9, 42, 0
1, 48330, Control_c, 3, 1, 19
1, 48344, Control_c, 3, 1, 21
1, 48356, Note_on_c, 0, 62, 0
1, 48358, Note_on_c, 0, 60, 0
1, 48362, Control_c, 3, 1, 23
1, 48362, Note_on_c, 0, 67, 0
1, 48378, Note_on_c, 5, 62, 0
1, 48384, Note_on_c, 5, 59, 0
1, 48406, Note_on_c, 5, 67, 0
1, 48432, Control_c, 3, 1, 26
1, 48452, Control_c, 3, 1, 28
1, 48474, Note_on_c, 1, 38, 0
1, 48478, Control_c, 3, 1, 29
1, 48490, Control_c, 3, 1, 30
1, 48498, Note_on_c, 9, 42, 84
1, 48498, Note_on_c, 1, 43, 117
1, 48498, Note_on_c, 9, 35, 106
1, 48498, Note_on_c, 6, 55, 92
1, 48498, Note_on_c, 6, 59, 97
1, 48498, Note_on_c, 6, 62, 96
1, 48498, Note_on_c, 4, 71, 114
1, 48498, Note_on_c, 0, 59, 102
1, 48498, Note_on_c, 0, 62, 109
1, 48498, Note_on_c, 0, 67, 109
1, 48502, Note_on_c, 4, 72, 0
1, 48508, Note_on_c, 6, 59, 0
1, 48508, Note_on_c, 6, 55, 0
1, 48508, Note_on_c, 6, 62, 0
1, 48510, Note_on_c, 9, 35, 0
1, 48510, Note_on_c, 9, 42, 0
1, 48512, Control_c, 3, 1, 27
1, 48518, Note_on_c, 0, 43, 0
1, 48522, Note_on_c, 3, 60, 0
1, 48542, Control_c, 3, 1, 31
1, 48560, Control_c, 3, 1, 33
1, 48582, Control_c, 3, 1, 34
1, 48616, Control_c, 3, 1, 35
1, 48640, Control_c, 3, 1, 36
1, 48676, Note_on_c, 1, 43, 0
1, 48690, Note_on_c, 9, 35, 99
1, 48690, Note_on_c, 6, 59, 102
1, 48690, Note_on_c, 9, 42, 71
1, 48690, Note_on_c, 1, 43, 107
1, 48690, Note_on_c, 6, 62, 105
1, 48690, Note_on_c, 3, 60, 120
1, 48690, Note_on_c, 6, 55, 98
1, 48690, Note_on_c, 0, 43, 118
1, 48700, Note_on_c, 6, 55, 0
1, 48700, Note_on_c, 6, 62, 0
1, 48700, Note_on_c, 6, 59, 0
1, 48702, Note_on_c, 9, 42, 0
1, 48702, Note_on_c, 9, 35, 0
1, 48716, Control_c, 3, 1, 35
1, 48738, Control_c, 3, 1, 38
1, 48756, Control_c, 3, 1, 39
1, 48774, Control_c, 3, 1, 37
1, 48782, Note_on_c, 0, 59, 0
1, 48808, Control_c, 3, 1, 41
1, 48818, Note_on_c, 3, 60, 0
1, 48840, Control_c, 3, 1, 42
1, 48860, Control_c, 3, 1, 44
1, 48882, Note_on_c, 9, 40, 122
1, 48882, Note_on_c, 6, 50, 107
1, 48882, Note_on_c, 9, 42, 90
1, 48882, Note_on_c, 6, 43, 101
1, 48882, Note_on_c, 3, 60, 121
1, 48882, Note_on_c, 9, 54, 113
1, 48882, Note_on_c, 0, 59, 91
1, 48886, Control_c, 3, 1, 38
1, 48892, Note_on_c, 6, 62, 0
1, 48892, Note_on_c, 6, 55, 0
1, 48892, Note_on_c, 6, 59, 0
1, 48894, Note_on_c, 9, 40, 0
1, 48894, Note_on_c, 9, 42, 0
1, 48894, Note_on_c, 9, 54, 0
1, 48900, Control_c, 3, 1, 16
1, 48916, Note_on_c, 1, 43, 0
1, 48922, Control_c, 3, 1, 6
1, 48936, Note_on_c, 0, 43, 0
1, 48938, Control_c, 3, 1, 0
1, 48948, Note_on_c, 0, 62, 0
1, 48954, Note_on_c, 6, 50, 0
1, 48962, Note_on_c, 6, 43, 0
1, 48970, Note_on_c, 0, 59, 0
1, 48974, Note_on_c, 0, 67, 0
1, 48996, Note_on_c, 3, 60, 0
1, 49032, Pitch_bend_c, 3, 7776
1, 49044, Pitch_bend_c, 3, 3968
1, 49070, Pitch_bend_c, 3, 2368
1, 49074, Note_on_c, 0, 62, 96
1, 49074, Note_on_c, 6, 55, 72
1, 49074, Note_on_c, 1, 45, 115
1, 49074, Note_on_c, 6, 62, 69
1, 49074, Note_on_c, 3, 60, 121
1, 49074, Note_on_c, 0, 59, 78
1, 49074, Note_on_c, 9, 42, 74
1, 49074, Note_on_c, 0, 67, 87
1, 49074, Note_on_c, 6, 59, 74
1, 49086, Note_on_c, 9, 42, 0
1, 49090, Pitch_bend_c, 3, 2464
1, 49104, Pitch_bend_c, 3, 3424
1, 49116, Pitch_bend_c, 3, 4832
1, 49130, Pitch_bend_c, 3, 6272
1, 49140, Note_on_c, 0, 67, 0
1, 49142, Pitch_bend_c, 3, 7616
1, 49156, Pitch_bend_c, 3, 8000
1, 49158, Note_on_c, 0, 59, 0
1, 49162, Pitch_bend_c, 3, 8192
1, 49182, Note_on_c, 0, 62, 0
1, 49210, Note_on_c, 4, 71, 0
1, 49260, Note_on_c, 1, 45, 0
1, 49266, Note_on_c, 0, 50, 120
1, 49266, Note_on_c, 0, 62, 103
1, 49266, Note_on_c, 6, 62, 91
1, 49266, Note_on_c, 9, 35, 109
1, 49266, Note_on_c, 0, 57, 106
1, 49266, Note_on_c, 5, 57, 111
1, 49266, Note_on_c, 0, 67, 109
1, 49266, Note_on_c, 6, 57, 99
1, 49266, Note_on_c, 4, 69, 110
1, 49266, Note_on_c, 6, 54, 84
1, 49266, Note_on_c, 5, 50, 127
1, 49266, Note_on_c, 9, 42, 83
1, 49266, Note_on_c, 1, 38, 113
1, 49276, Note_on_c, 6, 62, 0
1, 49276, Note_on_c, 6, 59, 0
1, 49276, Note_on_c, 6, 55, 0
1, 49278, Note_on_c, 9, 42, 0
1, 49278, Note_on_c, 9, 35, 0
1, 49344, Note_on_c, 3, 60, 0
1, 49376, Note_on_c, 5, 50, 0
1, 49378, Note_on_c, 0, 57, 0
1, 49388, Note_on_c, 5, 57, 0
1, 49436, Note_on_c, 0, 67, 0
1, 49436, Note_on_c, 1, 38, 0
1, 49458, Note_on_c, 9, 42, 72
1, 49458, Note_on_c, 1, 38, 113
1, 49458, Note_on_c, 9, 35, 97
1, 49458, Note_on_c, 6, 54, 92
1, 49458, Note_on_c, 0, 57, 90
1, 49458, Note_on_c, 0, 66, 87
1, 49458, Note_on_c, 6, 62, 96
1, 49458, Note_on_c, 6, 57, 109
1, 49458, Note_on_c, 3, 57, 127
1, 49468, Note_on_c, 6, 57, 0
1, 49468, Note_on_c, 6, 62, 0
1, 49468, Note_on_c, 6, 54, 0
1, 49470, Note_on_c, 9, 35, 0
1, 49470, Note_on_c, 9, 42, 0
1, 49504, Control_c, 3, 1, 2
1, 49512, Control_c, 3, 1, 12
1, 49530, Control_c, 3, 1, 21
1, 49550, Control_c, 3, 1, 27
1, 49562, Note_on_c, 0, 66, 0
1, 49568, Control_c, 3, 1, 31
1, 49580, Note_on_c, 0, 57, 0
1, 49586, Control_c, 3, 1, 36
1, 49588, Note_on_c, 0, 62, 0
1, 49606, Control_c, 3, 1, 41
1, 49622, Control_c, 3, 1, 48
1, 49640, Control_c, 3, 1, 49
1, 49650, Note_on_c, 0, 66, 89
1, 49650, Note_on_c, 0, 62, 94
1, 49650, Note_on_c, 6, 45, 101
1, 49650, Note_on_c, 0, 57, 87
1, 49650, Note_on_c, 9, 42, 92
1, 49650, Note_on_c, 9, 40, 120
1, 49650, Note_on_c, 6, 50, 107
1, 49650, Note_on_c, 9, 54, 110
1, 49652, Note_on_c, 1, 38, 0
1, 49660, Control_c, 3, 1, 24
1, 49660, Note_on_c, 6, 62, 0
1, 49660, Note_on_c, 6, 54, 0
1, 49660, Note_on_c, 6, 57, 0
1, 49662, Note_on_c, 9, 54, 0
1, 49662, Note_on_c, 9, 42, 0
1, 49662, Note_on_c, 9, 40, 0
1, 49678, Control_c, 3, 1, 2
1, 49696, Control_c, 3, 1, 0
1, 49722, Note_on_c, 3, 57, 0
1, 49722, Note_on_c, 6, 50, 0
1, 49728, Note_on_c, 0, 57, 0
1, 49730, Note_on_c, 6, 45, 0
1, 49742, Note_on_c, 0, 62, 0
1, 49744, Note_on_c, 0, 66, 0
1, 49842, Note_on_c, 5, 62, 118
1, 49842, Note_on_c, 0, 62, 114
1, 49842, Note_on_c, 5, 57, 114
1, 49842, Note_on_c, 1, 45, 120
1, 49842, Note_on_c, 6, 62, 85
1, 49842, Note_on_c, 6, 54, 81
1, 49842, Note_on_c, 9, 42, 73
1, 49842, Note_on_c, 0, 66, 107
1, 49842, Note_on_c, 5, 66, 111
1, 49842, Note_on_c, 6, 57, 84
1, 49842, Note_on_c, 0, 57, 107
1, 49850, Note_on_c, 0, 50, 0
1, 49854, Note_on_c, 9, 42, 0
1, 49920, Note_on_c, 5, 57, 0
1, 49920, Note_on_c, 5, 62, 0
1, 49922, Note_on_c, 5, 66, 0
1, 50034, Note_on_c, 1, 38, 114
1, 50034, Note_on_c, 9, 42, 77
1, 50034, Note_on_c, 6, 57, 98
1, 50034, Note_on_c, 6, 54, 87
1, 50034, Note_on_c, 0, 50, 109
1, 50034, Note_on_c, 6, 62, 95
1, 50034, Note_on_c, 9, 35, 107
1, 50044, Note_on_c, 6, 62, 0
1, 50044, Note_on_c, 1, 45, 0
1, 50044, Note_on_c, 6, 54, 0
1, 50044, Note_on_c, 6, 57, 0
1, 50046, Note_on_c, 9, 35, 0
1, 50046, Note_on_c, 9, 42, 0
1, 50104, Note_on_c, 0, 57, 0
1, 50208, Note_on_c, 1, 38, 0
1, 50226, Note_on_c, 0, 57, 92
1, 50226, Note_on_c, 6, 54, 96
1, 50226, Note_on_c, 9, 35, 95
1, 50226, Note_on_c, 9, 42, 71
1, 50226, Note_on_c, 6, 57, 105
1, 50226, Note_on_c, 6, 62, 102
1, 50226, Note_on_c, 1, 38, 115
1, 50236, Note_on_c, 6, 62, 0
1, 50236, Note_on_c, 6, 57, 0
1, 50236, Note_on_c, 6, 54, 0
1, 50238, Note_on_c, 9, 42, 0
1, 50238, Note_on_c, 9, 35, 0
1, 50290, Note_on_c, 0, 62, 0
1, 50308, Note_on_c, 0, 66, 0
1, 50362, Note_on_c, 0, 57, 0
1, 50418, Note_on_c, 0, 57, 103
1, 50418, Note_on_c, 0, 62, 106
1, 50418, Note_on_c, 6, 50, 107
1, 50418, Note_on_c, 9, 40, 127
1, 50418, Note_on_c, 9, 42, 91
1, 50418, Note_on_c, 9, 54, 112
1, 50418, Note_on_c, 0, 66, 98
1, 50418, Note_on_c, 6, 45, 101
1, 50428, Note_on_c, 6, 62, 0
1, 50428, Note_on_c, 6, 54, 0
1, 50428, Note_on_c, 6, 57, 0
1, 50430, Note_on_c, 9, 42, 0
1, 50430, Note_on_c, 9, 40, 0
1, 50430, Note_on_c, 9, 54, 0
1, 50448, Note_on_c, 1, 38, 0
1, 50450, Note_on_c, 0, 50, 0
1, 50490, Note_on_c, 6, 50, 0
1, 50498, Note_on_c, 6, 45, 0
1, 50556, Note_on_c, 4, 69, 0
1, 50560, Note_on_c, 0, 57, 0
1, 50570, Pitch_bend_c, 3, 5024
1, 50578, Pitch_bend_c, 5, 7648
1, 50590, Pitch_bend_c, 5, 6368
1, 50596, Pitch_bend_c, 3, 1760
1, 50604, Pitch_bend_c, 5, 4832
1, 50610, Note_on_c, 6, 62, 85
1, 50610, Note_on_c, 3, 64, 125
1, 50610, Note_on_c, 5, 69, 109
1, 50610, Note_on_c, 6, 57, 91
1, 50610, Note_on_c, 0, 57, 85
1, 50610, Note_on_c, 4, 60, 111
1, 50610, Note_on_c, 1, 40, 114
1, 50610, Note_on_c, 9, 46, 70
1, 50610, Note_on_c, 0, 50, 91
1, 50614, Pitch_bend_c, 3, 1088
1, 50616, Pitch_bend_c, 5, 3904
1, 50622, Note_on_c, 9, 46, 0
1, 50628, Pitch_bend_c, 3, 1216
1, 50632, Pitch_bend_c, 5, 3904
1, 50638, Note_on_c, 0, 66, 0
1, 50642, Pitch_bend_c, 3, 2080
1, 50646, Pitch_bend_c, 5, 4736
1, 50654, Pitch_bend_c, 3, 3456
1, 50656, Note_on_c, 0, 62, 0
1, 50658, Pitch_bend_c, 5, 6080
1, 50668, Pitch_bend_c, 3, 6560
1, 50672, Pitch_bend_c, 5, 7456
1, 50684, Pitch_bend_c, 5, 8160
1, 50694, Pitch_bend_c, 3, 8032
1, 50694, Note_on_c, 0, 50, 0
1, 50698, Pitch_bend_c, 5, 8192
1, 50704, Note_on_c, 0, 57, 0
1, 50712, Pitch_bend_c, 3, 8192
1, 50756, Note_on_c, 1, 40, 0
1, 50802, Note_on_c, 6, 52, 96
1, 50802, Note_on_c, 9, 42, 92
1, 50802, Note_on_c, 0, 45, 111
1, 50802, Note_on_c, 0, 57, 101
1, 50802, Note_on_c, 0, 64, 109
1, 50802, Note_on_c, 6, 57, 94
1, 50802, Note_on_c, 6, 60, 95
1, 50802, Note_on_c, 0, 60, 113
1, 50802, Note_on_c, 1, 45, 124
1, 50802, Note_on_c, 9, 35, 101
1, 50812, Note_on_c, 6, 57, 0
1, 50812, Note_on_c, 6, 62, 0
1, 50814, Note_on_c, 9, 35, 0
1, 50814, Note_on_c, 9, 42, 0
1, 50880, Note_on_c, 4, 60, 0
1, 50910, Note_on_c, 3, 64, 0
1, 50920, Note_on_c, 5, 69, 0
1, 50942, Note_on_c, 0, 57, 0
1, 50976, Note_on_c, 1, 45, 0
1, 50994, Note_on_c, 6, 52, 87
1, 50994, Note_on_c, 4, 60, 102
1, 50994, Note_on_c, 9, 35, 85
1, 50994, Note_on_c, 1, 45, 104
1, 50994, Note_on_c, 5, 69, 98
1, 50994, Note_on_c, 6, 57, 96
1, 50994, Note_on_c, 6, 60, 91
1, 50994, Note_on_c, 3, 64, 116
1, 50994, Note_on_c, 0, 57, 85
1, 50994, Note_on_c, 9, 42, 57
1, 51004, Note_on_c, 6, 60, 0
1, 51004, Note_on_c, 6, 57, 0
1, 51004, Note_on_c, 6, 52, 0
1, 51006, Note_on_c, 9, 42, 0
1, 51006, Note_on_c, 9, 35, 0
1, 51050, Note_on_c, 5, 69, 0
1, 51066, Note_on_c, 4, 60, 0
1, 51070, Note_on_c, 0, 60, 0
1, 51076, Note_on_c, 3, 64, 0
1, 51078, Note_on_c, 0, 64, 0
1, 51082, Note_on_c, 0, 57, 0
1, 51124, Pitch_bend_c, 3, 8032
1, 51130, Pitch_bend_c, 3, 3040
1, 51156, Pitch_bend_c, 3, 320
1, 51174, Pitch_bend_c, 3, 0
1, 51186, Note_on_c, 4, 60, 111
1, 51186, Note_on_c, 9, 54, 110
1, 51186, Note_on_c, 0, 60, 116
1, 51186, Note_on_c, 9, 40, 114
1, 51186, Note_on_c, 0, 64, 110
1, 51186, Note_on_c, 9, 42, 77
1, 51186, Note_on_c, 3, 64, 127
1, 51186, Note_on_c, 5, 69, 117
1, 51186, Note_on_c, 6, 52, 107
1, 51186, Note_on_c, 0, 57, 110
1, 51186, Note_on_c, 6, 45, 101
1, 51196, Note_on_c, 6, 52, 0
1, 51196, Note_on_c, 6, 57, 0
1, 51196, Note_on_c, 6, 60, 0
1, 51198, Pitch_bend_c, 3, 1536
1, 51198, Note_on_c, 9, 42, 0
1, 51198, Note_on_c, 1, 45, 0
1, 51198, Note_on_c, 9, 40, 0
1, 51198, Note_on_c, 9, 54, 0
1, 51210, Note_on_c, 0, 45, 0
1, 51214, Pitch_bend_c, 3, 4512
1, 51240, Pitch_bend_c, 3, 6272
1, 51258, Note_on_c, 6, 52, 0
1, 51260, Pitch_bend_c, 3, 7200
1, 51266, Note_on_c, 6, 45, 0
1, 51274, Pitch_bend_c, 3, 7872
1, 51288, Pitch_bend_c, 3, 8096
1, 51294, Pitch_bend_c, 3, 8192
1, 51312, Note_on_c, 4, 60, 0
1, 51326, Note_on_c, 3, 64, 0
1, 51348, Note_on_c, 5, 69, 0
1, 51378, Note_on_c, 9, 42, 61
1, 51378, Note_on_c, 4, 60, 98
1, 51378, Note_on_c, 0, 45, 97
1, 51378, Note_on_c, 6, 52, 78
1, 51378, Note_on_c, 6, 60, 85
1, 51378, Note_on_c, 3, 64, 111
1, 51378, Note_on_c, 6, 57, 87
1, 51378, Note_on_c, 1, 40, 117
1, 51378, Note_on_c, 5, 69, 73
1, 51390, Note_on_c, 9, 42, 0
1, 51408, Note_on_c, 0, 57, 0
1, 51456, Note_on_c, 5, 69, 0
1, 51458, Note_on_c, 4, 60, 0
1, 51462, Note_on_c, 3, 64, 0
1, 51466, Note_on_c, 0, 60, 0
1, 51472, Note_on_c, 0, 45, 0
1, 51490, Note_on_c, 0, 64, 0
1, 51558, Note_on_c, 1, 40, 0
1, 51570, Control_c, 3, 1, 5
1, 51570, Note_on_c, 9, 35, 103
1, 51570, Note_on_c, 1, 45, 118
1, 51570, Note_on_c, 4, 59, 107
1, 51570, Note_on_c, 9, 42, 76
1, 51570, Note_on_c, 6, 60, 92
1, 51570, Note_on_c, 0, 60, 72
1, 51570, Note_on_c, 5, 67, 106
1, 51570, Note_on_c, 6, 57, 91
1, 51570, Note_on_c, 3, 62, 119
1, 51570, Note_on_c, 0, 45, 113
1, 51570, Note_on_c, 0, 57, 98
1, 51570, Note_on_c, 6, 52, 91
1, 51580, Note_on_c, 6, 52, 0
1, 51580, Note_on_c, 6, 60, 0
1, 51580, Note_on_c, 6, 57, 0
1, 51582, Control_c, 3, 1, 14
1, 51582, Note_on_c, 9, 42, 0
1, 51582, Note_on_c, 9, 35, 0
1, 51602, Note_on_c, 0, 60, 0
1, 51604, Control_c, 3, 1, 25
1, 51624, Control_c, 3, 1, 33
1, 51636, Control_c, 3, 1, 44
1, 51652, Note_on_c, 0, 57, 0
1, 51656, Control_c, 3, 1, 51
1, 51674, Control_c, 3, 1, 54
1, 51690, Control_c, 3, 1, 58
1, 51708, Control_c, 3, 1, 61
1, 51712, Note_on_c, 5, 67, 0
1, 51720, Note_on_c, 4, 59, 0
1, 51726, Control_c, 3, 1, 45
1, 51736, Note_on_c, 1, 45, 0
1, 51736, Note_on_c, 3, 62, 0
1, 51746, Control_c, 3, 1, 17
1, 51762, Note_on_c, 1, 45, 117
1, 51762, Note_on_c, 0, 60, 113
1, 51762, Note_on_c, 9, 42, 54
1, 51762, Note_on_c, 9, 35, 91
1, 51762, Note_on_c, 5, 64, 102
1, 51762, Note_on_c, 0, 57, 105
1, 51762, Note_on_c, 6, 60, 93
1, 51762, Note_on_c, 4, 57, 106
1, 51762, Note_on_c, 6, 57, 95
1, 51762, Note_on_c, 0, 64, 107
1, 51762, Note_on_c, 6, 52, 88
1, 51762, Note_on_c, 3, 60, 114
1, 51766, Control_c, 3, 1, 3
1, 51772, Note_on_c, 6, 52, 0
1, 51772, Note_on_c, 6, 57, 0
1, 51772, Note_on_c, 6, 60, 0
1, 51774, Note_on_c, 9, 35, 0
1, 51774, Note_on_c, 9, 42, 0
1, 51780, Control_c, 3, 1, 0
1, 51828, Note_on_c, 3, 60, 0
1, 51828, Note_on_c, 0, 45, 0
1, 51838, Note_on_c, 5, 64, 0
1, 51856, Note_on_c, 4, 57, 0
1, 51898, Note_on_c, 0, 57, 0
1, 51954, Note_on_c, 9, 54, 113
1, 51954, Note_on_c, 9, 42, 82
1, 51954, Note_on_c, 9, 40, 111
1, 51954, Note_on_c, 6, 45, 87
1, 51954, Note_on_c, 0, 57, 87
1, 51954, Note_on_c, 6, 52, 87
1, 51964, Note_on_c, 6, 52, 0
1, 51964, Note_on_c, 6, 57, 0
1, 51964, Note_on_c, 6, 60, 0
1, 51966, Note_on_c, 9, 40, 0
1, 51966, Note_on_c, 9, 42, 0
1, 51966, Note_on_c, 1, 45, 0
1, 51966, Note_on_c, 9, 54, 0
1, 52028, Note_on_c, 6, 52, 0
1, 52028, Note_on_c, 6, 45, 0
1, 52052, Pitch_bend_c, 5, 8160
1, 52058, Pitch_bend_c, 5, 7328
1, 52070, Pitch_bend_c, 4, 7840
1, 52072, Pitch_bend_c, 5, 5600
1, 52084, Pitch_bend_c, 4, 6464
1, 52086, Pitch_bend_c, 5, 3744
1, 52098, Pitch_bend_c, 5, 2432
1, 52098, Pitch_bend_c, 4, 4224
1, 52112, Pitch_bend_c, 5, 1728
1, 52116, Pitch_bend_c, 4, 3424
1, 52116, Note_on_c, 0, 60, 0
1, 52122, Pitch_bend_c, 3, 7616
1, 52130, Pitch_bend_c, 4, 3104
1, 52134, Note_on_c, 0, 64, 0
1, 52136, Pitch_bend_c, 3, 4832
1, 52142, Note_on_c, 0, 57, 0
1, 52144, Pitch_bend_c, 4, 2976
1, 52146, Note_on_c, 6, 57, 88
1, 52146, Note_on_c, 3, 64, 124
1, 52146, Note_on_c, 5, 69, 115
1, 52146, Note_on_c, 0, 45, 113
1, 52146, Note_on_c, 6, 52, 87
1, 52146, Note_on_c, 6, 60, 85
1, 52146, Note_on_c, 4, 60, 113
1, 52146, Note_on_c, 1, 40, 114
1, 52146, Note_on_c, 9, 42, 58
1, 52154, Pitch_bend_c, 3, 3424
1, 52156, Pitch_bend_c, 4, 3200
1, 52158, Note_on_c, 9, 42, 0
1, 52160, Pitch_bend_c, 5, 1888
1, 52168, Pitch_bend_c, 3, 2912
1, 52170, Pitch_bend_c, 4, 3680
1, 52172, Pitch_bend_c, 5, 2272
1, 52182, Pitch_bend_c, 3, 3232
1, 52184, Pitch_bend_c, 4, 4352
1, 52186, Pitch_bend_c, 5, 2816
1, 52194, Pitch_bend_c, 3, 4032
1, 52196, Pitch_bend_c, 4, 5152
1, 52200, Pitch_bend_c, 5, 3648
1, 52208, Pitch_bend_c, 3, 6400
1, 52210, Pitch_bend_c, 4, 6400
1, 52212, Pitch_bend_c, 5, 4672
1, 52226, Pitch_bend_c, 5, 6368
1, 52230, Pitch_bend_c, 4, 7072
1, 52240, Pitch_bend_c, 3, 6944
1, 52246, Pitch_bend_c, 4, 7392
1, 52246, Pitch_bend_c, 5, 7392
1, 52250, Note_on_c, 0, 45, 0
1, 52252, Pitch_bend_c, 3, 7424
1, 52252, Pitch_bend_c, 4, 8096
1, 52258, Pitch_bend_c, 5, 8032
1, 52266, Pitch_bend_c, 3, 7808
1, 52270, Pitch_bend_c, 5, 8160
1, 52272, Pitch_bend_c, 4, 8192
1, 52276, Pitch_bend_c, 5, 8192
1, 52278, Pitch_bend_c, 3, 8160
1, 52304, Pitch_bend_c, 3, 8192
1, 52330, Note_on_c, 1, 40, 0
1, 52338, Note_on_c, 0, 65, 97
1, 52338, Note_on_c, 6, 57, 88
1, 52338, Note_on_c, 0, 41, 107
1, 52338, Note_on_c, 9, 42, 77
1, 52338, Note_on_c, 0, 60, 107
1, 52338, Note_on_c, 9, 35, 103
1, 52338, Note_on_c, 6, 53, 91
1, 52338, Note_on_c, 1, 41, 114
1, 52338, Note_on_c, 6, 60, 83
1, 52338, Note_on_c, 0, 57, 103
1, 52348, Note_on_c, 6, 60, 0
1, 52348, Note_on_c, 6, 52, 0
1, 52348, Note_on_c, 6, 57, 0
1, 52350, Note_on_c, 9, 42, 0
1, 52350, Note_on_c, 9, 35, 0
1, 52412, Note_on_c, 3, 64, 0
1, 52438, Note_on_c, 4, 60, 0
1, 52444, Note_on_c, 5, 69, 0
1, 52474, Note_on_c, 0, 57, 0
1, 52512, Note_on_c, 1, 41, 0
1, 52530, Note_on_c, 9, 35, 91
1, 52530, Note_on_c, 3, 64, 114
1, 52530, Note_on_c, 5, 69, 104
1, 52530, Note_on_c, 1, 41, 99
1, 52530, Note_on_c, 0, 57, 90
1, 52530, Note_on_c, 4, 60, 97
1, 52530, Note_on_c, 6, 53, 91
1, 52530, Note_on_c, 6, 57, 98
1, 52530, Note_on_c, 6, 60, 96
1, 52530, Note_on_c, 9, 42, 69
1, 52540, Note_on_c, 6, 60, 0
1, 52540, Note_on_c, 6, 57, 0
1, 52540, Note_on_c, 6, 53, 0
1, 52542, Note_on_c, 9, 42, 0
1, 52542, Note_on_c, 9, 35, 0
1, 52590, Note_on_c, 5, 69, 0
1, 52594, Note_on_c, 4, 60, 0
1, 52602, Note_on_c, 3, 64, 0
1, 52628, Note_on_c, 0, 60, 0
1, 52642, Note_on_c, 0, 41, 0
1, 52644, Note_on_c, 0, 57, 0
1, 52646, Pitch_bend_c, 3, 7712
1, 52656, Note_on_c, 0, 65, 0
1, 52658, Pitch_bend_c, 3, 5888
1, 52672, Pitch_bend_c, 3, 3616
1, 52684, Pitch_bend_c, 3, 1056
1, 52710, Pitch_bend_c, 3, 608
1, 52722, Note_on_c, 6, 48, 107
1, 52722, Note_on_c, 5, 69, 118
1, 52722, Note_on_c, 3, 64, 127
1, 52722, Note_on_c, 0, 41, 103
1, 52722, Note_on_c, 4, 60, 114
1, 52722, Note_on_c, 9, 40, 120
1, 52722, Note_on_c, 9, 42, 96
1, 52722, Note_on_c, 9, 54, 102
1, 52722, Note_on_c, 6, 41, 107
1, 52724, Pitch_bend_c, 3, 832
1, 52732, Note_on_c, 6, 53, 0
1, 52732, Note_on_c, 6, 60, 0
1, 52732, Note_on_c, 6, 57, 0
1, 52734, Note_on_c, 9, 42, 0
1, 52734, Note_on_c, 9, 40, 0
1, 52734, Note_on_c, 9, 54, 0
1, 52738, Pitch_bend_c, 3, 2080
1, 52756, Pitch_bend_c, 3, 3360
1, 52762, Note_on_c, 1, 41, 0
1, 52770, Pitch_bend_c, 3, 4672
1, 52782, Pitch_bend_c, 3, 6656
1, 52802, Pitch_bend_c, 3, 8160
1, 52810, Note_on_c, 6, 48, 0
1, 52810, Note_on_c, 6, 41, 0
1, 52828, Pitch_bend_c, 3, 8192
1, 52842, Note_on_c, 5, 69, 0
1, 52860, Note_on_c, 4, 60, 0
1, 52870, Note_on_c, 3, 64, 0
1, 52914, Note_on_c, 1, 36, 115
1, 52914, Note_on_c, 0, 57, 111
1, 52914, Note_on_c, 4, 60, 97
1, 52914, Note_on_c, 9, 42, 66
1, 52914, Note_on_c, 0, 60, 114
1, 52914, Note_on_c, 5, 69, 95
1, 52914, Note_on_c, 0, 65, 101
1, 52914, Note_on_c, 3, 64, 107
1, 52914, Note_on_c, 6, 53, 75
1, 52914, Note_on_c, 6, 57, 81
1, 52914, Note_on_c, 6, 60, 73
1, 52926, Note_on_c, 9, 42, 0
1, 52978, Note_on_c, 5, 69, 0
1, 52982, Note_on_c, 0, 41, 0
1, 52988, Note_on_c, 4, 60, 0
1, 52990, Note_on_c, 3, 64, 0
1, 53090, Note_on_c, 1, 36, 0
1, 53106, Note_on_c, 4, 59, 104
1, 53106, Note_on_c, 9, 35, 109
1, 53106, Note_on_c, 0, 41, 105
1, 53106, Note_on_c, 3, 62, 125
1, 53106, Note_on_c, 6, 60, 92
1, 53106, Note_on_c, 6, 57, 92
1, 53106, Note_on_c, 6, 53, 89
1, 53106, Control_c, 3, 1, 16
1, 53106, Note_on_c, 9, 42, 86
1, 53106, Note_on_c, 5, 67, 118
1, 53106, Note_on_c, 1, 41, 117
1, 53116, Note_on_c, 6, 53, 0
1, 53116, Note_on_c, 0, 57, 0
1, 53116, Note_on_c, 6, 57, 0
1, 53116, Note_on_c, 6, 60, 0
1, 53118, Note_on_c, 9, 35, 0
1, 53118, Note_on_c, 9, 42, 0
1, 53124, Note_on_c, 0, 60, 0
1, 53130, Note_on_c, 0, 65, 0
1, 53132, Control_c, 3, 1, 29
1, 53150, Control_c, 3, 1, 37
1, 53168, Control_c, 3, 1, 39
1, 53184, Control_c, 3, 1, 41
1, 53202, Control_c, 3, 1, 43
1, 53220, Control_c, 3, 1, 43
1, 53238, Note_on_c, 4, 59, 0
1, 53240, Control_c, 3, 1, 28
1, 53246, Note_on_c, 5, 67, 0
1, 53260, Control_c, 3, 1, 15
1, 53274, Control_c, 3, 1, 1
1, 53274, Note_on_c, 3, 62, 0
1, 53286, Note_on_c, 1, 41, 0
1, 53292, Control_c, 3, 1, 0
1, 53298, Note_on_c, 9, 35, 89
1, 53298, Note_on_c, 3, 60, 115
1, 53298, Note_on_c, 4, 57, 109
1, 53298, Note_on_c, 6, 53, 91
1, 53298, Note_on_c, 0, 57, 101
1, 53298, Note_on_c, 0, 65, 101
1, 53298, Note_on_c, 0, 60, 107
1, 53298, Note_on_c, 5, 64, 110
1, 53298, Note_on_c, 9, 42, 77
1, 53298, Note_on_c, 6, 60, 99
1, 53298, Note_on_c, 1, 41, 104
1, 53298, Note_on_c, 6, 57, 102
1, 53308, Note_on_c, 6, 57, 0
1, 53308, Note_on_c, 6, 60, 0
1, 53308, Note_on_c, 6, 53, 0
1, 53310, Note_on_c, 9, 35, 0
1, 53310, Note_on_c, 9, 42, 0
1, 53352, Note_on_c, 0, 41, 0
1, 53362, Note_on_c, 3, 60, 0
1, 53388, Note_on_c, 5, 64, 0
1, 53394, Note_on_c, 4, 57, 0
1, 53404, Note_on_c, 0, 57, 0
1, 53486, Note_on_c, 1, 41, 0
1, 53490, Note_on_c, 9, 54, 110
1, 53490, Note_on_c, 0, 57, 95
1, 53490, Note_on_c, 6, 41, 94
1, 53490, Note_on_c, 6, 48, 94
1, 53490, Note_on_c, 9, 40, 124
1, 53490, Note_on_c, 9, 42, 91
1, 53500, Note_on_c, 6, 53, 0
1, 53500, Note_on_c, 6, 60, 0
1, 53500, Note_on_c, 6, 57, 0
1, 53502, Note_on_c, 9, 40, 0
1, 53502, Note_on_c, 9, 42, 0
1, 53502, Note_on_c, 9, 54, 0
1, 53570, Note_on_c, 6, 48, 0
1, 53570, Note_on_c, 6, 41, 0
1, 53578, Note_on_c, 0, 60, 0
1, 53616, Note_on_c, 0, 57, 0
1, 53650, Note_on_c, 0, 65, 0
1, 53682, Note_on_c, 6, 59, 73
1, 53682, Note_on_c, 9, 42, 70
1, 53682, Note_on_c, 0, 41, 111
1, 53682, Note_on_c, 3, 52, 112
1, 53682, Note_on_c, 6, 56, 77
1, 53682, Note_on_c, 1, 38, 118
1, 53682, Note_on_c, 6, 52, 74
1, 53694, Note_on_c, 9, 42, 0
1, 53752, Note_on_c, 3, 52, 0
1, 53790, Note_on_c, 0, 41, 0
1, 53840, Note_on_c, 1, 38, 0
1, 53872, Control_c, 3, 1, 11
1, 53874, Note_on_c, 0, 64, 103
1, 53874, Note_on_c, 0, 56, 104
1, 53874, Note_on_c, 5, 56, 106
1, 53874, Note_on_c, 9, 35, 107
1, 53874, Note_on_c, 9, 42, 80
1, 53874, Note_on_c, 0, 40, 111
1, 53874, Note_on_c, 5, 64, 101
1, 53874, Note_on_c, 5, 40, 114
1, 53874, Note_on_c, 6, 52, 86
1, 53874, Note_on_c, 0, 62, 109
1, 53874, Note_on_c, 6, 59, 87
1, 53874, Note_on_c, 6, 56, 84
1, 53874, Note_on_c, 1, 40, 118
1, 53874, Note_on_c, 3, 56, 126
1, 53884, Note_on_c, 6, 56, 0
1, 53884, Note_on_c, 6, 59, 0
1, 53884, Note_on_c, 6, 52, 0
1, 53886, Note_on_c, 9, 35, 0
1, 53886, Note_on_c, 9, 42, 0
1, 53890, Control_c, 3, 1, 20
1, 53904, Control_c, 3, 1, 29
1, 53922, Control_c, 3, 1, 34
1, 53962, Control_c, 3, 1, 27
1, 53980, Control_c, 3, 1, 16
1, 53996, Control_c, 3, 1, 2
1, 54004, Note_on_c, 0, 56, 0
1, 54014, Control_c, 3, 1, 0
1, 54054, Note_on_c, 3, 56, 0
1, 54056, Note_on_c, 1, 40, 0
1, 54066, Note_on_c, 6, 52, 93
1, 54066, Note_on_c, 1, 40, 101
1, 54066, Note_on_c, 9, 35, 96
1, 54066, Note_on_c, 9, 42, 70
1, 54066, Note_on_c, 6, 59, 99
1, 54066, Note_on_c, 6, 56, 97
1, 54066, Note_on_c, 3, 52, 104
1, 54066, Note_on_c, 0, 56, 82
1, 54076, Note_on_c, 6, 56, 0
1, 54076, Note_on_c, 6, 59, 0
1, 54076, Note_on_c, 6, 52, 0
1, 54078, Note_on_c, 9, 35, 0
1, 54078, Note_on_c, 9, 42, 0
1, 54112, Note_on_c, 0, 62, 0
1, 54118, Note_on_c, 0, 64, 0
1, 54140, Note_on_c, 3, 52, 0
1, 54158, Note_on_c, 0, 56, 0
1, 54258, Note_on_c, 6, 40, 103
1, 54258, Note_on_c, 9, 42, 86
1, 54258, Note_on_c, 6, 47, 103
1, 54258, Note_on_c, 9, 40, 120
1, 54258, Note_on_c, 0, 62, 107
1, 54258, Note_on_c, 9, 54, 117
1, 54258, Note_on_c, 0, 64, 99
1, 54258, Note_on_c, 0, 56, 108
1, 54268, Note_on_c, 6, 59, 0
1, 54268, Note_on_c, 6, 52, 0
1, 54268, Note_on_c, 6, 56, 0
1, 54270, Note_on_c, 9, 42, 0
1, 54270, Note_on_c, 9, 40, 0
1, 54270, Note_on_c, 9, 54, 0
1, 54304, Note_on_c, 1, 40, 0
1, 54316, Note_on_c, 0, 40, 0
1, 54334, Note_on_c, 6, 40, 0
1, 54334, Note_on_c, 6, 47, 0
1, 54448, Note_on_c, 0, 56, 0
1, 54450, Note_on_c, 1, 35, 113
1, 54450, Note_on_c, 6, 52, 88
1, 54450, Note_on_c, 6, 59, 85
1, 54450, Note_on_c, 3, 52, 120
1, 54450, Note_on_c, 0, 40, 93
1, 54450, Note_on_c, 6, 56, 82
1, 54450, Note_on_c, 9, 42, 69
1, 54462, Note_on_c, 9, 42, 0
1, 54488, Control_c, 3, 1, 3
1, 54500, Control_c, 3, 1, 9
1, 54520, Control_c, 3, 1, 11
1, 54526, Note_on_c, 0, 62, 0
1, 54526, Note_on_c, 0, 40, 0
1, 54538, Control_c, 3, 1, 7
1, 54554, Control_c, 3, 1, 0
1, 54584, Note_on_c, 3, 52, 0
1, 54620, Note_on_c, 0, 64, 0
1, 54626, Note_on_c, 1, 35, 0
1, 54642, Note_on_c, 6, 52, 95
1, 54642, Note_on_c, 0, 56, 82
1, 54642, Note_on_c, 0, 40, 107
1, 54642, Note_on_c, 9, 42, 84
1, 54642, Note_on_c, 1, 40, 117
1, 54642, Note_on_c, 6, 56, 94
1, 54642, Note_on_c, 6, 59, 99
1, 54642, Note_on_c, 3, 56, 110
1, 54642, Note_on_c, 9, 35, 106
1, 54652, Note_on_c, 6, 59, 0
1, 54652, Note_on_c, 6, 56, 0
1, 54652, Note_on_c, 6, 52, 0
1, 54654, Note_on_c, 9, 42, 0
1, 54654, Note_on_c, 9, 35, 0
1, 54736, Note_on_c, 0, 56, 0
1, 54786, Note_on_c, 3, 56, 0
1, 54818, Note_on_c, 1, 40, 0
1, 54834, Note_on_c, 0, 56, 110
1, 54834, Note_on_c, 0, 64, 100
1, 54834, Note_on_c, 1, 40, 110
1, 54834, Note_on_c, 6, 52, 94
1, 54834, Note_on_c, 0, 62, 109
1, 54834, Note_on_c, 3, 57, 125
1, 54834, Note_on_c, 9, 35, 99
1, 54834, Note_on_c, 9, 42, 71
1, 54834, Note_on_c, 6, 56, 100
1, 54834, Note_on_c, 6, 59, 99
1, 54844, Note_on_c, 6, 59, 0
1, 54844, Note_on_c, 6, 56, 0
1, 54844, Note_on_c, 6, 52, 0
1, 54844, Note_on_c, 0, 40, 0
1, 54846, Note_on_c, 9, 42, 0
1, 54846, Note_on_c, 9, 35, 0
1, 54932, Control_c, 3, 1, 3
1, 54944, Note_on_c, 0, 56, 0
1, 54950, Control_c, 3, 1, 4
1, 54958, Note_on_c, 3, 57, 0
1, 54966, Control_c, 3, 1, 6
1, 54986, Control_c, 3, 1, 8
1, 55004, Control_c, 3, 1, 8
1, 55024, Control_c, 3, 1, 4
1, 55026, Note_on_c, 9, 42, 90
1, 55026, Note_on_c, 9, 40, 122
1, 55026, Note_on_c, 0, 56, 87
1, 55026, Note_on_c, 3, 57, 111
1, 55026, Note_on_c, 9, 54, 115
1, 55026, Note_on_c, 6, 40, 93
1, 55026, Note_on_c, 6, 47, 93
1, 55032, Note_on_c, 1, 40, 0
1, 55036, Note_on_c, 6, 56, 0
1, 55036, Note_on_c, 6, 59, 0
1, 55036, Note_on_c, 6, 52, 0
1, 55038, Control_c, 3, 1, 0
1, 55038, Note_on_c, 9, 42, 0
1, 55038, Note_on_c, 9, 40, 0
1, 55038, Note_on_c, 9, 54, 0
1, 55084, Note_on_c, 0, 62, 0
1, 55096, Note_on_c, 3, 57, 0
1, 55102, Note_on_c, 6, 47, 0
1, 55102, Note_on_c, 6, 40, 0
1, 55118, Note_on_c, 0, 64, 0
1, 55132, Note_on_c, 0, 56, 0
1, 55170, Pitch_bend_c, 3, 8160
1, 55176, Pitch_bend_c, 3, 4576
1, 55202, Pitch_bend_c, 3, 1760
1, 55218, Note_on_c, 9, 42, 74
1, 55218, Note_on_c, 6, 57, 83
1, 55218, Note_on_c, 6, 52, 75
1, 55218, Note_on_c, 0, 40, 97
1, 55218, Note_on_c, 1, 40, 117
1, 55218, Note_on_c, 6, 60, 81
1, 55218, Note_on_c, 3, 60, 121
1, 55222, Pitch_bend_c, 3, 1152
1, 55230, Note_on_c, 9, 42, 0
1, 55236, Pitch_bend_c, 3, 1216
1, 55248, Pitch_bend_c, 3, 2240
1, 55262, Pitch_bend_c, 3, 4128
1, 55276, Pitch_bend_c, 3, 6272
1, 55288, Pitch_bend_c, 3, 7776
1, 55302, Pitch_bend_c, 3, 8160
1, 55306, Pitch_bend_c, 3, 8192
1, 55322, Note_on_c, 5, 64, 0
1, 55326, Note_on_c, 0, 40, 0
1, 55338, Note_on_c, 5, 56, 0
1, 55370, Note_on_c, 1, 40, 0
1, 55378, Note_on_c, 5, 40, 0
1, 55396, Note_on_c, 3, 60, 0
1, 55410, Note_on_c, 4, 69, 95
1, 55410, Note_on_c, 6, 52, 90
1, 55410, Note_on_c, 9, 35, 109
1, 55410, Note_on_c, 0, 64, 110
1, 55410, Note_on_c, 4, 81, 104
1, 55410, Note_on_c, 9, 42, 83
1, 55410, Note_on_c, 3, 57, 111
1, 55410, Note_on_c, 6, 60, 91
1, 55410, Note_on_c, 6, 57, 100
1, 55410, Note_on_c, 5, 60, 114
1, 55410, Note_on_c, 0, 57, 81
1, 55410, Note_on_c, 0, 60, 110
1, 55410, Note_on_c, 5, 45, 120
1, 55410, Note_on_c, 1, 45, 118
1, 55410, Note_on_c, 0, 45, 118
1, 55410, Note_on_c, 5, 52, 110
1, 55420, Note_on_c, 6, 57, 0
1, 55420, Note_on_c, 6, 52, 0
1, 55420, Note_on_c, 6, 60, 0
1, 55422, Note_on_c, 9, 42, 0
1, 55422, Note_on_c, 9, 35, 0
1, 55486, Note_on_c, 0, 57, 0
1, 55532, Note_on_c, 5, 60, 0
1, 55538, Note_on_c, 5, 45, 0
1, 55542, Note_on_c, 5, 52, 0
1, 55598, Note_on_c, 1, 45, 0
1, 55602, Note_on_c, 6, 52, 102
1, 55602, Note_on_c, 6, 60, 102
1, 55602, Note_on_c, 6, 57, 110
1, 55602, Note_on_c, 9, 35, 97
1, 55602, Note_on_c, 1, 45, 113
1, 55602, Note_on_c, 9, 42, 72
1, 55602, Note_on_c, 0, 57, 85
1, 55612, Note_on_c, 6, 57, 0
1, 55612, Note_on_c, 6, 52, 0
1, 55612, Note_on_c, 6, 60, 0
1, 55614, Note_on_c, 9, 35, 0
1, 55614, Note_on_c, 9, 42, 0
1, 55654, Note_on_c, 0, 45, 0
1, 55654, Note_on_c, 0, 60, 0
1, 55668, Note_on_c, 0, 64, 0
1, 55708, Note_on_c, 0, 57, 0
1, 55794, Note_on_c, 9, 42, 92
1, 55794, Note_on_c, 6, 52, 107
1, 55794, Note_on_c, 6, 45, 107
1, 55794, Note_on_c, 0, 45, 114
1, 55794, Note_on_c, 9, 40, 120
1, 55794, Note_on_c, 9, 54, 115
1, 55794, Note_on_c, 1, 45, 0
1, 55804, Note_on_c, 6, 52, 0
1, 55804, Note_on_c, 6, 57, 0
1, 55804, Note_on_c, 6, 60, 0
1, 55806, Note_on_c, 9, 42, 0
1, 55806, Note_on_c, 9, 54, 0
1, 55806, Note_on_c, 9, 40, 0
1, 55882, Note_on_c, 6, 52, 0
1, 55882, Note_on_c, 6, 45, 0
1, 55974, Note_on_c, 3, 57, 0
1, 55986, Note_on_c, 0, 64, 105
1, 55986, Note_on_c, 0, 60, 105
1, 55986, Note_on_c, 1, 40, 115
1, 55986, Note_on_c, 9, 42, 73
1, 55986, Note_on_c, 6, 52, 77
1, 55986, Note_on_c, 6, 57, 83
1, 55986, Note_on_c, 0, 69, 110
1, 55986, Note_on_c, 6, 60, 79
1, 55998, Note_on_c, 9, 42, 0
1, 56050, Note_on_c, 0, 45, 0
1, 56158, Note_on_c, 0, 69, 0
1, 56160, Note_on_c, 1, 40, 0
1, 56168, Note_on_c, 0, 60, 0
1, 56170, Note_on_c, 0, 64, 0
1, 56178, Note_on_c, 6, 57, 101
1, 56178, Note_on_c, 6, 52, 93
1, 56178, Note_on_c, 0, 45, 102
1, 56178, Note_on_c, 1, 45, 127
1, 56178, Note_on_c, 9, 42, 77
1, 56178, Note_on_c, 9, 35, 107
1, 56178, Note_on_c, 6, 60, 92
1, 56188, Note_on_c, 6, 60, 0
1, 56188, Note_on_c, 6, 52, 0
1, 56188, Note_on_c, 6, 57, 0
1, 56190, Note_on_c, 9, 35, 0
1, 56190, Note_on_c, 9, 42, 0
1, 56358, Note_on_c, 1, 45, 0
1, 56370, Note_on_c, 9, 35, 95
1, 56370, Note_on_c, 6, 60, 101
1, 56370, Note_on_c, 1, 45, 113
1, 56370, Note_on_c, 6, 52, 98
1, 56370, Note_on_c, 6, 57, 103
1, 56370, Note_on_c, 0, 60, 73
1, 56370, Note_on_c, 9, 42, 71
1, 56380, Note_on_c, 6, 57, 0
1, 56380, Note_on_c, 6, 52, 0
1, 56380, Note_on_c, 6, 60, 0
1, 56382, Note_on_c, 9, 35, 0
1, 56382, Note_on_c, 9, 42, 0
1, 56436, Note_on_c, 0, 60, 0
1, 56562, Note_on_c, 0, 60, 105
1, 56562, Note_on_c, 9, 40, 127
1, 56562, Note_on_c, 0, 64, 103
1, 56562, Note_on_c, 9, 42, 91
1, 56562, Note_on_c, 6, 52, 103
1, 56562, Note_on_c, 0, 69, 111
1, 56562, Note_on_c, 6, 45, 103
1, 56562, Note_on_c, 9, 54, 113
1, 56562, Note_on_c, 1, 45, 0
1, 56572, Note_on_c, 6, 57, 0
1, 56572, Note_on_c, 6, 52, 0
1, 56572, Note_on_c, 6, 60, 0
1, 56574, Note_on_c, 9, 40, 0
1, 56574, Note_on_c, 9, 42, 0
1, 56574, Note_on_c, 9, 54, 0
1, 56620, Note_on_c, 0, 45, 0
1, 56640, Note_on_c, 6, 45, 0
1, 56640, Note_on_c, 6, 52, 0
1, 56754, Note_on_c, 0, 45, 105
1, 56754, Note_on_c, 1, 40, 111
1, 56754, Note_on_c, 6, 52, 85
1, 56754, Note_on_c, 9, 46, 70
1, 56754, Note_on_c, 6, 60, 81
1, 56754, Note_on_c, 6, 57, 88
1, 56766, Note_on_c, 9, 46, 0
1, 56846, Note_on_c, 0, 64, 0
1, 56850, Note_on_c, 0, 69, 0
1, 56854, Note_on_c, 0, 60, 0
1, 56862, Note_on_c, 0, 45, 0
1, 56902, Note_on_c, 1, 40, 0
1, 56946, Note_on_c, 0, 45, 103
1, 56946, Note_on_c, 0, 57, 75
1, 56946, Note_on_c, 6, 57, 100
1, 56946, Note_on_c, 6, 60, 91
1, 56946, Note_on_c, 1, 45, 118
1, 56946, Note_on_c, 9, 42, 83
1, 56946, Note_on_c, 9, 35, 109
1, 56946, Note_on_c, 6, 52, 90
1, 56956, Note_on_c, 6, 52, 0
1, 56956, Note_on_c, 6, 57, 0
1, 56956, Note_on_c, 6, 60, 0
1, 56958, Note_on_c, 9, 42, 0
1, 56958, Note_on_c, 9, 35, 0
1, 57006, Note_on_c, 0, 57, 0
1, 57058, Note_on_c, 0, 45, 0
1, 57134, Note_on_c, 1, 45, 0
1, 57138, Note_on_c, 0, 69, 111
1, 57138, Note_on_c, 0, 57, 106
1, 57138, Note_on_c, 6, 52, 102
1, 57138, Note_on_c, 6, 60, 102
1, 57138, Note_on_c, 0, 45, 106
1, 57138, Note_on_c, 9, 35, 97
1, 57138, Note_on_c, 6, 57, 110
1, 57138, Note_on_c, 1, 45, 113
1, 57138, Note_on_c, 9, 42, 72
1, 57148, Note_on_c, 6, 57, 0
1, 57148, Note_on_c, 6, 52, 0
1, 57148, Note_on_c, 6, 60, 0
1, 57150, Note_on_c, 9, 35, 0
1, 57150, Note_on_c, 9, 42, 0
1, 57256, Note_on_c, 0, 45, 0
1, 57288, Note_on_c, 0, 69, 0
1, 57290, Note_on_c, 0, 57, 0
1, 57330, Note_on_c, 0, 57, 91
1, 57330, Note_on_c, 0, 45, 109
1, 57330, Note_on_c, 6, 52, 107
1, 57330, Note_on_c, 0, 69, 85
1, 57330, Note_on_c, 6, 45, 107
1, 57330, Note_on_c, 9, 54, 115
1, 57330, Note_on_c, 9, 40, 120
1, 57330, Note_on_c, 9, 42, 92
1, 57330, Note_on_c, 1, 45, 0
1, 57340, Note_on_c, 6, 52, 0
1, 57340, Note_on_c, 6, 60, 0
1, 57340, Note_on_c, 6, 57, 0
1, 57342, Note_on_c, 9, 54, 0
1, 57342, Note_on_c, 9, 40, 0
1, 57342, Note_on_c, 9, 42, 0
1, 57418, Note_on_c, 0, 57, 0
1, 57418, Note_on_c, 6, 52, 0
1, 57418, Note_on_c, 6, 45, 0
1, 57434, Note_on_c, 0, 69, 0
1, 57436, Note_on_c, 0, 45, 0
1, 57522, Note_on_c, 6, 52, 77
1, 57522, Note_on_c, 1, 40, 115
1, 57522, Note_on_c, 0, 45, 114
1, 57522, Note_on_c, 6, 60, 79
1, 57522, Note_on_c, 6, 57, 83
1, 57522, Note_on_c, 0, 57, 103
1, 57522, Note_on_c, 0, 69, 106
1, 57522, Note_on_c, 9, 42, 73
1, 57534, Note_on_c, 9, 42, 0
1, 57636, Note_on_c, 0, 45, 0
1, 57644, Note_on_c, 0, 57, 0
1, 57646, Note_on_c, 0, 69, 0
1, 57696, Note_on_c, 1, 40, 0
1, 57714, Note_on_c, 9, 42, 77
1, 57714, Note_on_c, 6, 52, 93
1, 57714, Note_on_c, 9, 35, 107
1, 57714, Note_on_c, 0, 57, 105
1, 57714, Note_on_c, 6, 57, 101
1, 57714, Note_on_c, 1, 45, 127
1, 57714, Note_on_c, 0, 45, 107
1, 57714, Note_on_c, 0, 69, 107
1, 57714, Note_on_c, 6, 60, 92
1, 57724, Note_on_c, 6, 60, 0
1, 57724, Note_on_c, 6, 52, 0
1, 57724, Note_on_c, 6, 57, 0
1, 57726, Note_on_c, 9, 35, 0
1, 57726, Note_on_c, 9, 42, 0
1, 57808, Note_on_c, 0, 45, 0
1, 57822, Note_on_c, 0, 69, 0
1, 57824, Note_on_c, 0, 57, 0
1, 57894, Note_on_c, 1, 45, 0
1, 57906, Note_on_c, 9, 42, 71
1, 57906, Note_on_c, 0, 69, 103
1, 57906, Note_on_c, 3, 60, 120
1, 57906, Note_on_c, 6, 57, 103
1, 57906, Note_on_c, 0, 45, 107
1, 57906, Note_on_c, 9, 35, 95
1, 57906, Note_on_c, 1, 45, 113
1, 57906, Note_on_c, 6, 52, 98
1, 57906, Note_on_c, 6, 60, 101
1, 57906, Note_on_c, 5, 64, 93
1, 57906, Note_on_c, 0, 57, 105
1, 57916, Note_on_c, 6, 60, 0
1, 57916, Note_on_c, 6, 52, 0
1, 57916, Note_on_c, 6, 57, 0
1, 57918, Note_on_c, 9, 35, 0
1, 57918, Note_on_c, 9, 42, 0
1, 58000, Note_on_c, 0, 57, 0
1, 58004, Note_on_c, 0, 45, 0
1, 58024, Note_on_c, 0, 69, 0
1, 58046, Note_on_c, 3, 60, 0
1, 58054, Note_on_c, 5, 64, 0
1, 58098, Note_on_c, 9, 42, 91
1, 58098, Note_on_c, 9, 40, 127
1, 58098, Note_on_c, 0, 57, 113
1, 58098, Note_on_c, 6, 52, 103
1, 58098, Note_on_c, 5, 65, 98
1, 58098, Note_on_c, 3, 62, 125
1, 58098, Note_on_c, 0, 69, 102
1, 58098, Note_on_c, 9, 54, 113
1, 58098, Note_on_c, 6, 45, 103
1, 58098, Note_on_c, 1, 45, 0
1, 58108, Note_on_c, 6, 52, 0
1, 58108, Note_on_c, 6, 57, 0
1, 58108, Note_on_c, 6, 60, 0
1, 58110, Note_on_c, 9, 40, 0
1, 58110, Note_on_c, 9, 54, 0
1, 58110, Note_on_c, 9, 42, 0
1, 58174, Note_on_c, 5, 65, 0
1, 58174, Note_on_c, 3, 62, 0
1, 58176, Note_on_c, 6, 52, 0
1, 58176, Note_on_c, 6, 45, 0
1, 58204, Note_on_c, 0, 57, 0
1, 58222, Note_on_c, 0, 69, 0
1, 58252, Pitch_bend_c, 3, 8000
1, 58258, Pitch_bend_c, 3, 6496
1, 58272, Pitch_bend_c, 3, 3968
1, 58284, Pitch_bend_c, 3, 1632
1, 58290, Note_on_c, 6, 57, 88
1, 58290, Note_on_c, 0, 69, 97
1, 58290, Note_on_c, 1, 40, 111
1, 58290, Note_on_c, 9, 46, 70
1, 58290, Note_on_c, 0, 57, 111
1, 58290, Note_on_c, 6, 60, 81
1, 58290, Note_on_c, 6, 52, 85
1, 58290, Note_on_c, 5, 67, 109
1, 58290, Note_on_c, 3, 64, 127
1, 58298, Pitch_bend_c, 3, 0
1, 58302, Note_on_c, 9, 46, 0
1, 58344, Pitch_bend_c, 3, 928
1, 58358, Pitch_bend_c, 3, 2912
1, 58370, Pitch_bend_c, 3, 5408
1, 58372, Note_on_c, 0, 57, 0
1, 58384, Pitch_bend_c, 3, 7552
1, 58396, Pitch_bend_c, 3, 8096
1, 58402, Pitch_bend_c, 3, 8192
1, 58424, Note_on_c, 0, 69, 0
1, 58438, Note_on_c, 1, 40, 0
1, 58474, Note_on_c, 3, 64, 0
1, 58482, Note_on_c, 0, 60, 110
1, 58482, Note_on_c, 0, 48, 109
1, 58482, Note_on_c, 6, 55, 93
1, 58482, Note_on_c, 1, 36, 110
1, 58482, Note_on_c, 6, 60, 93
1, 58482, Note_on_c, 0, 64, 113
1, 58482, Note_on_c, 6, 64, 83
1, 58482, Note_on_c, 4, 79, 94
1, 58482, Note_on_c, 4, 67, 96
1, 58482, Note_on_c, 2, 79, 96
1, 58482, Note_on_c, 2, 84, 95
1, 58482, Note_on_c, 2, 88, 95
1, 58482, Note_on_c, 9, 49, 92
1, 58482, Note_on_c, 9, 35, 101
1, 58482, Note_on_c, 0, 67, 113
1, 58482, Note_on_c, 4, 81, 0
1, 58482, Note_on_c, 4, 69, 0
1, 58492, Note_on_c, 6, 60, 0
1, 58492, Note_on_c, 6, 52, 0
1, 58492, Note_on_c, 6, 57, 0
1, 58494, Note_on_c, 9, 49, 0
1, 58494, Note_on_c, 9, 35, 0
1, 58572, Note_on_c, 5, 67, 0
1, 58602, Note_on_c, 0, 48, 0
1, 58662, Note_on_c, 1, 36, 0
1, 58668, Note_on_c, 2, 84, 0
1, 58674, Note_on_c, 3, 64, 116
1, 58674, Note_on_c, 6, 64, 98
1, 58674, Note_on_c, 6, 60, 97
1, 58674, Note_on_c, 5, 67, 94
1, 58674, Note_on_c, 6, 55, 100
1, 58674, Note_on_c, 9, 35, 85
1, 58674, Note_on_c, 1, 36, 103
1, 58674, Note_on_c, 0, 48, 99
1, 58674, Note_on_c, 2, 88, 0
1, 58680, Note_on_c, 2, 79, 0
1, 58684, Note_on_c, 6, 55, 0
1, 58684, Note_on_c, 6, 64, 0
1, 58684, Note_on_c, 6, 60, 0
1, 58686, Note_on_c, 9, 35, 0
1, 58716, Note_on_c, 0, 67, 0
1, 58722, Note_on_c, 0, 64, 0
1, 58734, Note_on_c, 5, 67, 0
1, 58734, Note_on_c, 0, 60, 0
1, 58780, Note_on_c, 3, 64, 0
1, 58824, Note_on_c, 0, 48, 0
1, 58824, Note_on_c, 1, 36, 0
1, 58866, Note_on_c, 0, 64, 114
1, 58866, Note_on_c, 2, 88, 101
1, 58866, Note_on_c, 5, 67, 98
1, 58866, Note_on_c, 1, 40, 103
1, 58866, Note_on_c, 0, 67, 113
1, 58866, Note_on_c, 3, 64, 119
1, 58866, Note_on_c, 9, 54, 113
1, 58866, Note_on_c, 0, 60, 109
1, 58866, Note_on_c, 2, 84, 98
1, 58866, Note_on_c, 2, 79, 91
1, 58866, Note_on_c, 9, 40, 114
1, 58866, Note_on_c, 6, 55, 110
1, 58866, Note_on_c, 9, 42, 77
1, 58866, Note_on_c, 6, 48, 110
1, 58876, Note_on_c, 6, 55, 0
1, 58876, Note_on_c, 6, 64, 0
1, 58876, Note_on_c, 6, 60, 0
1, 58878, Note_on_c, 9, 40, 0
1, 58878, Note_on_c, 9, 42, 0
1, 58878, Note_on_c, 9, 54, 0
1, 58924, Note_on_c, 6, 48, 0
1, 58924, Note_on_c, 6, 55, 0
1, 58978, Note_on_c, 3, 64, 0
1, 59014, Note_on_c, 2, 79, 0
1, 59024, Note_on_c, 5, 67, 0
1, 59056, Note_on_c, 2, 88, 0
1, 59058, Note_on_c, 9, 42, 61
1, 59058, Note_on_c, 0, 48, 105
1, 59058, Note_on_c, 5, 65, 81
1, 59058, Note_on_c, 2, 79, 81
1, 59058, Note_on_c, 3, 62, 127
1, 59058, Note_on_c, 6, 55, 86
1, 59058, Note_on_c, 1, 43, 105
1, 59058, Note_on_c, 6, 62, 85
1, 59058, Note_on_c, 6, 59, 89
1, 59062, Note_on_c, 2, 84, 0
1, 59068, Note_on_c, 1, 40, 0
1, 59070, Note_on_c, 9, 42, 0
1, 59070, Note_on_c, 0, 64, 0
1, 59090, Note_on_c, 0, 67, 0
1, 59100, Control_c, 3, 1, 5
1, 59108, Note_on_c, 0, 60, 0
1, 59120, Control_c, 3, 1, 11
1, 59130, Note_on_c, 2, 79, 0
1, 59130, Note_on_c, 5, 65, 0
1, 59138, Control_c, 3, 1, 15
1, 59138, Note_on_c, 0, 48, 0
1, 59158, Control_c, 3, 1, 17
1, 59180, Control_c, 3, 1, 19
1, 59198, Control_c, 3, 1, 20
1, 59212, Control_c, 3, 1, 22
1, 59232, Control_c, 3, 1, 25
1, 59242, Note_on_c, 1, 43, 0
1, 59244, Control_c, 3, 1, 29
1, 59250, Note_on_c, 0, 62, 113
1, 59250, Note_on_c, 2, 83, 99
1, 59250, Note_on_c, 6, 55, 98
1, 59250, Note_on_c, 5, 65, 95
1, 59250, Note_on_c, 2, 79, 104
1, 59250, Note_on_c, 2, 86, 89
1, 59250, Note_on_c, 9, 35, 103
1, 59250, Note_on_c, 0, 67, 110
1, 59250, Note_on_c, 1, 31, 113
1, 59250, Note_on_c, 6, 59, 96
1, 59250, Note_on_c, 6, 62, 100
1, 59250, Note_on_c, 9, 42, 76
1, 59250, Note_on_c, 0, 59, 114
1, 59260, Note_on_c, 6, 62, 0
1, 59260, Note_on_c, 6, 59, 0
1, 59260, Note_on_c, 6, 55, 0
1, 59262, Note_on_c, 9, 42, 0
1, 59262, Note_on_c, 9, 35, 0
1, 59266, Control_c, 3, 1, 31
1, 59292, Control_c, 3, 1, 32
1, 59316, Note_on_c, 5, 65, 0
1, 59352, Control_c, 3, 1, 34
1, 59354, Note_on_c, 3, 62, 0
1, 59376, Note_on_c, 0, 62, 0
1, 59378, Control_c, 3, 1, 37
1, 59382, Note_on_c, 0, 59, 0
1, 59386, Note_on_c, 0, 67, 0
1, 59390, Control_c, 3, 1, 39
1, 59410, Note_on_c, 1, 31, 0
1, 59416, Control_c, 3, 1, 40
1, 59418, Note_on_c, 2, 83, 0
1, 59426, Note_on_c, 2, 79, 0
1, 59426, Note_on_c, 2, 86, 0
1, 59442, Note_on_c, 3, 62, 110
1, 59442, Note_on_c, 6, 55, 91
1, 59442, Note_on_c, 0, 62, 113
1, 59442, Note_on_c, 9, 35, 91
1, 59442, Note_on_c, 0, 43, 102
1, 59442, Note_on_c, 6, 59, 99
1, 59442, Note_on_c, 6, 62, 105
1, 59442, Note_on_c, 0, 67, 105
1, 59442, Note_on_c, 1, 31, 102
1, 59442, Note_on_c, 9, 42, 54
1, 59442, Note_on_c, 0, 59, 113
1, 59442, Note_on_c, 5, 65, 89
1, 59452, Note_on_c, 6, 62, 0
1, 59452, Note_on_c, 6, 55, 0
1, 59452, Note_on_c, 6, 59, 0
1, 59454, Note_on_c, 9, 35, 0
1, 59454, Note_on_c, 9, 42, 0
1, 59468, Control_c, 3, 1, 42
1, 59490, Control_c, 3, 1, 43
1, 59498, Control_c, 3, 1, 44
1, 59506, Note_on_c, 5, 65, 0
1, 59508, Note_on_c, 3, 62, 0
1, 59514, Control_c, 3, 1, 37
1, 59536, Control_c, 3, 1, 33
1, 59550, Control_c, 3, 1, 29
1, 59568, Control_c, 3, 1, 27
1, 59568, Note_on_c, 0, 59, 0
1, 59570, Note_on_c, 0, 62, 0
1, 59586, Note_on_c, 0, 67, 0
1, 59596, Control_c, 3, 1, 30
1, 59602, Note_on_c, 1, 31, 0
1, 59610, Control_c, 3, 1, 33
1, 59622, Control_c, 3, 1, 37
1, 59634, Note_on_c, 2, 86, 95
1, 59634, Note_on_c, 0, 67, 85
1, 59634, Note_on_c, 0, 62, 99
1, 59634, Note_on_c, 9, 40, 111
1, 59634, Note_on_c, 6, 43, 110
1, 59634, Note_on_c, 6, 50, 110
1, 59634, Note_on_c, 2, 83, 102
1, 59634, Note_on_c, 9, 42, 82
1, 59634, Note_on_c, 9, 54, 117
1, 59634, Note_on_c, 5, 65, 99
1, 59634, Note_on_c, 0, 59, 107
1, 59634, Note_on_c, 1, 35, 113
1, 59634, Note_on_c, 2, 79, 93
1, 59634, Note_on_c, 3, 62, 124
1, 59644, Control_c, 3, 1, 39
1, 59644, Note_on_c, 6, 55, 0
1, 59644, Note_on_c, 6, 62, 0
1, 59644, Note_on_c, 6, 59, 0
1, 59646, Note_on_c, 9, 40, 0
1, 59646, Note_on_c, 9, 54, 0
1, 59646, Note_on_c, 9, 42, 0
1, 59662, Control_c, 3, 1, 43
1, 59672, Note_on_c, 0, 43, 0
1, 59682, Control_c, 3, 1, 45
1, 59692, Note_on_c, 6, 43, 0
1, 59692, Note_on_c, 6, 50, 0
1, 59694, Control_c, 3, 1, 39
1, 59708, Note_on_c, 5, 65, 0
1, 59714, Control_c, 3, 1, 31
1, 59734, Control_c, 3, 1, 27
1, 59740, Note_on_c, 0, 62, 0
1, 59754, Control_c, 3, 1, 23
1, 59756, Note_on_c, 0, 59, 0
1, 59766, Control_c, 3, 1, 14
1, 59774, Note_on_c, 3, 62, 0
1, 59784, Note_on_c, 0, 67, 0
1, 59788, Control_c, 3, 1, 5
1, 59800, Note_on_c, 1, 35, 0
1, 59806, Control_c, 3, 1, 0
1, 59814, Note_on_c, 2, 83, 0
1, 59814, Note_on_c, 2, 79, 0
1, 59822, Note_on_c, 2, 86, 0
1, 59826, Note_on_c, 6, 57, 88
1, 59826, Note_on_c, 5, 65, 91
1, 59826, Note_on_c, 6, 53, 81
1, 59826, Note_on_c, 3, 62, 113
1, 59826, Note_on_c, 0, 43, 111
1, 59826, Note_on_c, 9, 42, 58
1, 59826, Note_on_c, 6, 60, 85
1, 59826, Note_on_c, 1, 38, 104
1, 59838, Note_on_c, 9, 42, 0
1, 59896, Note_on_c, 5, 65, 0
1, 59900, Note_on_c, 3, 62, 0
1, 59924, Note_on_c, 0, 43, 0
1, 59956, Pitch_bend_c, 3, 7776
1, 59968, Pitch_bend_c, 3, 6016
1, 59982, Pitch_bend_c, 3, 3616
1, 59996, Pitch_bend_c, 3, 1824
1, 59996, Note_on_c, 1, 38, 0
1, 60008, Pitch_bend_c, 3, 864
1, 60018, Note_on_c, 0, 69, 111
1, 60018, Note_on_c, 4, 81, 101
1, 60018, Note_on_c, 6, 53, 97
1, 60018, Note_on_c, 3, 65, 125
1, 60018, Note_on_c, 6, 57, 107
1, 60018, Note_on_c, 6, 60, 111
1, 60018, Note_on_c, 0, 60, 106
1, 60018, Note_on_c, 2, 86, 100
1, 60018, Note_on_c, 4, 69, 95
1, 60018, Note_on_c, 1, 29, 104
1, 60018, Note_on_c, 0, 65, 110
1, 60018, Note_on_c, 0, 41, 99
1, 60018, Note_on_c, 5, 69, 103
1, 60018, Note_on_c, 9, 35, 103
1, 60018, Note_on_c, 2, 81, 95
1, 60018, Note_on_c, 2, 89, 101
1, 60018, Note_on_c, 9, 42, 77
1, 60018, Note_on_c, 4, 67, 0
1, 60018, Note_on_c, 4, 79, 0
1, 60024, Pitch_bend_c, 3, 640
1, 60028, Note_on_c, 6, 60, 0
1, 60028, Note_on_c, 6, 57, 0
1, 60028, Note_on_c, 6, 53, 0
1, 60030, Note_on_c, 9, 35, 0
1, 60030, Note_on_c, 9, 42, 0
1, 60036, Pitch_bend_c, 3, 1056
1, 60050, Pitch_bend_c, 3, 1984
1, 60062, Pitch_bend_c, 3, 3520
1, 60076, Pitch_bend_c, 3, 6272
1, 60086, Note_on_c, 5, 69, 0
1, 60096, Pitch_bend_c, 3, 7712
1, 60108, Pitch_bend_c, 3, 8096
1, 60116, Pitch_bend_c, 3, 8192
1, 60120, Note_on_c, 0, 65, 0
1, 60120, Note_on_c, 0, 69, 0
1, 60122, Note_on_c, 0, 60, 0
1, 60152, Note_on_c, 3, 65, 0
1, 60180, Note_on_c, 1, 29, 0
1, 60190, Note_on_c, 2, 86, 0
1, 60202, Note_on_c, 2, 89, 0
1, 60206, Note_on_c, 2, 81, 0
1, 60210, Note_on_c, 0, 69, 113
1, 60210, Note_on_c, 6, 53, 93
1, 60210, Note_on_c, 9, 35, 91
1, 60210, Note_on_c, 9, 42, 69
1, 60210, Note_on_c, 3, 65, 107
1, 60210, Note_on_c, 5, 69, 102
1, 60210, Note_on_c, 0, 60, 113
1, 60210, Note_on_c, 0, 65, 114
1, 60210, Note_on_c, 1, 29, 109
1, 60210, Note_on_c, 6, 57, 107
1, 60210, Note_on_c, 6, 60, 103
1, 60220, Note_on_c, 6, 60, 0
1, 60220, Note_on_c, 6, 57, 0
1, 60220, Note_on_c, 6, 53, 0
1, 60222, Note_on_c, 9, 42, 0
1, 60222, Note_on_c, 9, 35, 0
1, 60286, Note_on_c, 5, 69, 0
1, 60306, Note_on_c, 3, 65, 0
1, 60340, Note_on_c, 0, 41, 0
1, 60382, Note_on_c, 1, 29, 0
1, 60402, Note_on_c, 9, 40, 120
1, 60402, Note_on_c, 5, 69, 101
1, 60402, Note_on_c, 6, 41, 110
1, 60402, Note_on_c, 3, 65, 119
1, 60402, Note_on_c, 9, 54, 115
1, 60402, Note_on_c, 9, 42, 96
1, 60402, Note_on_c, 2, 89, 99
1, 60402, Note_on_c, 2, 86, 98
1, 60402, Note_on_c, 2, 81, 95
1, 60402, Note_on_c, 1, 33, 106
1, 60402, Note_on_c, 6, 48, 110
1, 60412, Note_on_c, 6, 60, 0
1, 60412, Note_on_c, 6, 57, 0
1, 60412, Note_on_c, 6, 53, 0
1, 60414, Note_on_c, 9, 40, 0
1, 60414, Note_on_c, 9, 54, 0
1, 60414, Note_on_c, 9, 42, 0
1, 60450, Note_on_c, 0, 69, 0
1, 60456, Note_on_c, 0, 65, 0
1, 60460, Note_on_c, 6, 48, 0
1, 60460, Note_on_c, 6, 41, 0
1, 60464, Note_on_c, 5, 69, 0
1, 60472, Note_on_c, 0, 60, 0
1, 60498, Note_on_c, 3, 65, 0
1, 60546, Note_on_c, 1, 33, 0
1, 60590, Note_on_c, 2, 86, 0
1, 60594, Note_on_c, 0, 60, 91
1, 60594, Note_on_c, 9, 42, 66
1, 60594, Note_on_c, 0, 64, 106
1, 60594, Note_on_c, 5, 67, 93
1, 60594, Note_on_c, 6, 60, 88
1, 60594, Note_on_c, 6, 64, 87
1, 60594, Note_on_c, 6, 55, 87
1, 60594, Note_on_c, 3, 64, 127
1, 60594, Note_on_c, 1, 36, 104
1, 60594, Note_on_c, 0, 67, 107
1, 60594, Note_on_c, 2, 89, 0
1, 60606, Note_on_c, 2, 81, 0
1, 60606, Note_on_c, 9, 42, 0
1, 60618, Control_c, 3, 1, 4
1, 60630, Control_c, 3, 1, 18
1, 60650, Control_c, 3, 1, 32
1, 60670, Control_c, 3, 1, 42
1, 60688, Control_c, 3, 1, 47
1, 60704, Control_c, 3, 1, 51
1, 60724, Control_c, 3, 1, 55
1, 60752, Control_c, 3, 1, 56
1, 60758, Control_c, 3, 1, 59
1, 60770, Note_on_c, 1, 36, 0
1, 60778, Control_c, 3, 1, 58
1, 60786, Note_on_c, 4, 67, 96
1, 60786, Note_on_c, 6, 55, 100
1, 60786, Note_on_c, 6, 60, 106
1, 60786, Note_on_c, 0, 48, 109
1, 60786, Note_on_c, 2, 88, 99
1, 60786, Note_on_c, 9, 42, 86
1, 60786, Note_on_c, 4, 79, 91
1, 60786, Note_on_c, 2, 84, 100
1, 60786, Note_on_c, 2, 79, 95
1, 60786, Note_on_c, 1, 36, 113
1, 60786, Note_on_c, 6, 64, 102
1, 60786, Note_on_c, 9, 35, 109
1, 60786, Note_on_c, 4, 81, 0
1, 60786, Note_on_c, 4, 69, 0
1, 60796, Control_c, 3, 1, 37
1, 60796, Note_on_c, 6, 64, 0
1, 60796, Note_on_c, 6, 60, 0
1, 60796, Note_on_c, 6, 55, 0
1, 60798, Note_on_c, 9, 35, 0
1, 60798, Note_on_c, 9, 42, 0
1, 60814, Control_c, 3, 1, 21
1, 60830, Control_c, 3, 1, 5
1, 60850, Control_c, 3, 1, 0
1, 60852, Note_on_c, 5, 67, 0
1, 60866, Note_on_c, 3, 64, 0
1, 60874, Note_on_c, 0, 60, 0
1, 60902, Note_on_c, 0, 64, 0
1, 60926, Note_on_c, 0, 67, 0
1, 60946, Note_on_c, 2, 84, 0
1, 60952, Note_on_c, 2, 88, 0
1, 60962, Note_on_c, 2, 79, 0
1, 60978, Note_on_c, 0, 67, 62
1, 60978, Note_on_c, 6, 60, 101
1, 60978, Note_on_c, 5, 64, 101
1, 60978, Note_on_c, 6, 55, 98
1, 60978, Note_on_c, 9, 42, 77
1, 60978, Note_on_c, 9, 35, 89
1, 60978, Note_on_c, 0, 64, 68
1, 60978, Note_on_c, 1, 36, 110
1, 60978, Note_on_c, 3, 60, 115
1, 60978, Note_on_c, 6, 64, 105
1, 60978, Note_on_c, 0, 60, 98
1, 60978, Note_on_c, 1, 36, 0
1, 60988, Note_on_c, 6, 64, 0
1, 60988, Note_on_c, 6, 55, 0
1, 60988, Note_on_c, 6, 60, 0
1, 60990, Note_on_c, 9, 35, 0
1, 60990, Note_on_c, 9, 42, 0
1, 61012, Note_on_c, 0, 67, 0
1, 61022, Note_on_c, 0, 64, 0
1, 61050, Note_on_c, 5, 64, 0
1, 61064, Note_on_c, 3, 60, 0
1, 61080, Note_on_c, 0, 60, 0
1, 61098, Note_on_c, 0, 48, 0
1, 61136, Note_on_c, 1, 36, 0
1, 61170, Note_on_c, 0, 67, 106
1, 61170, Note_on_c, 0, 64, 107
1, 61170, Note_on_c, 0, 60, 100
1, 61170, Note_on_c, 2, 88, 97
1, 61170, Note_on_c, 2, 79, 95
1, 61170, Note_on_c, 3, 60, 116
1, 61170, Note_on_c, 9, 42, 91
1, 61170, Note_on_c, 9, 40, 124
1, 61170, Note_on_c, 6, 48, 110
1, 61170, Note_on_c, 6, 55, 110
1, 61170, Note_on_c, 5, 64, 95
1, 61170, Note_on_c, 2, 84, 97
1, 61170, Note_on_c, 1, 40, 110
1, 61170, Note_on_c, 9, 54, 115
1, 61180, Note_on_c, 6, 55, 0
1, 61180, Note_on_c, 6, 64, 0
1, 61180, Note_on_c, 6, 60, 0
1, 61182, Note_on_c, 9, 54, 0
1, 61182, Note_on_c, 9, 42, 0
1, 61182, Note_on_c, 9, 40, 0
1, 61228, Note_on_c, 6, 55, 0
1, 61228, Note_on_c, 6, 48, 0
1, 61240, Note_on_c, 5, 64, 0
1, 61250, Note_on_c, 3, 60, 0
1, 61254, Note_on_c, 0, 67, 0
1, 61256, Note_on_c, 0, 64, 0
1, 61266, Note_on_c, 0, 60, 0
1, 61302, Pitch_bend_c, 3, 7712
1, 61308, Pitch_bend_c, 3, 5632
1, 61322, Pitch_bend_c, 3, 1440
1, 61336, Note_on_c, 2, 84, 0
1, 61338, Note_on_c, 2, 88, 0
1, 61340, Pitch_bend_c, 3, 0
1, 61342, Note_on_c, 1, 40, 0
1, 61362, Note_on_c, 6, 55, 85
1, 61362, Note_on_c, 4, 81, 95
1, 61362, Note_on_c, 4, 69, 89
1, 61362, Note_on_c, 0, 59, 109
1, 61362, Note_on_c, 1, 43, 109
1, 61362, Note_on_c, 0, 62, 109
1, 61362, Note_on_c, 5, 69, 106
1, 61362, Note_on_c, 6, 60, 91
1, 61362, Note_on_c, 0, 67, 98
1, 61362, Note_on_c, 0, 69, 91
1, 61362, Note_on_c, 3, 64, 123
1, 61362, Note_on_c, 6, 62, 90
1, 61362, Note_on_c, 9, 42, 70
1, 61362, Note_on_c, 4, 79, 0
1, 61362, Note_on_c, 4, 67, 0
1, 61364, Note_on_c, 2, 79, 0
1, 61374, Note_on_c, 9, 42, 0
1, 61422, Pitch_bend_c, 3, 1312
1, 61434, Pitch_bend_c, 3, 3072
1, 61448, Pitch_bend_c, 3, 6048
1, 61468, Pitch_bend_c, 3, 7616
1, 61482, Pitch_bend_c, 3, 8000
1, 61488, Pitch_bend_c, 3, 8192
1, 61526, Note_on_c, 0, 67, 0
1, 61534, Note_on_c, 1, 43, 0
1, 61554, Note_on_c, 1, 31, 115
1, 61554, Note_on_c, 9, 35, 107
1, 61554, Note_on_c, 6, 55, 91
1, 61554, Note_on_c, 9, 42, 80
1, 61554, Note_on_c, 6, 60, 91
1, 61554, Note_on_c, 6, 62, 94
1, 61554, Note_on_c, 0, 43, 101
1, 61554, Note_on_c, 2, 79, 94
1, 61554, Note_on_c, 2, 84, 95
1, 61554, Note_on_c, 2, 88, 95
1, 61564, Note_on_c, 6, 62, 0
1, 61564, Note_on_c, 6, 60, 0
1, 61564, Note_on_c, 6, 55, 0
1, 61566, Note_on_c, 9, 42, 0
1, 61566, Note_on_c, 9, 35, 0
1, 61648, Note_on_c, 5, 69, 0
1, 61650, Note_on_c, 0, 69, 0
1, 61658, Note_on_c, 0, 59, 0
1, 61662, Note_on_c, 3, 64, 0
1, 61664, Note_on_c, 0, 62, 0
1, 61710, Note_on_c, 1, 31, 0
1, 61746, Note_on_c, 3, 62, 125
1, 61746, Note_on_c, 1, 35, 103
1, 61746, Note_on_c, 9, 35, 96
1, 61746, Note_on_c, 9, 42, 70
1, 61746, Note_on_c, 6, 55, 85
1, 61746, Note_on_c, 0, 59, 99
1, 61746, Note_on_c, 0, 62, 106
1, 61746, Note_on_c, 6, 62, 103
1, 61746, Note_on_c, 5, 67, 96
1, 61746, Note_on_c, 0, 67, 91
1, 61746, Note_on_c, 6, 60, 105
1, 61750, Note_on_c, 2, 84, 0
1, 61754, Note_on_c, 2, 88, 0
1, 61756, Note_on_c, 6, 62, 0
1, 61756, Note_on_c, 6, 60, 0
1, 61756, Note_on_c, 6, 55, 0
1, 61758, Note_on_c, 9, 35, 0
1, 61758, Note_on_c, 2, 79, 0
1, 61758, Note_on_c, 9, 42, 0
1, 61808, Note_on_c, 5, 67, 0
1, 61810, Note_on_c, 3, 62, 0
1, 61826, Note_on_c, 0, 59, 0
1, 61832, Note_on_c, 0, 62, 0
1, 61838, Note_on_c, 0, 67, 0
1, 61912, Note_on_c, 1, 35, 0
1, 61924, Control_c, 3, 1, 1
1, 61930, Control_c, 3, 1, 9
1, 61936, Note_on_c, 0, 43, 0
1, 61938, Note_on_c, 9, 40, 120
1, 61938, Note_on_c, 3, 62, 125
1, 61938, Note_on_c, 9, 42, 86
1, 61938, Note_on_c, 9, 54, 113
1, 61938, Note_on_c, 4, 67, 91
1, 61938, Note_on_c, 4, 79, 85
1, 61938, Note_on_c, 2, 79, 95
1, 61938, Note_on_c, 2, 88, 100
1, 61938, Note_on_c, 1, 38, 110
1, 61938, Note_on_c, 5, 67, 101
1, 61938, Note_on_c, 6, 43, 110
1, 61938, Note_on_c, 6, 50, 110
1, 61938, Note_on_c, 0, 59, 114
1, 61938, Note_on_c, 0, 62, 116
1, 61938, Note_on_c, 0, 67, 111
1, 61938, Note_on_c, 2, 84, 98
1, 61938, Note_on_c, 4, 69, 0
1, 61938, Note_on_c, 4, 81, 0
1, 61948, Control_c, 3, 1, 16
1, 61948, Note_on_c, 6, 55, 0
1, 61948, Note_on_c, 6, 62, 0
1, 61948, Note_on_c, 6, 60, 0
1, 61950, Note_on_c, 9, 42, 0
1, 61950, Note_on_c, 9, 54, 0
1, 61950, Note_on_c, 9, 40, 0
1, 61964, Control_c, 3, 1, 28
1, 61984, Control_c, 3, 1, 36
1, 61996, Note_on_c, 6, 50, 0
1, 61996, Note_on_c, 6, 43, 0
1, 62002, Control_c, 3, 1, 42
1, 62002, Note_on_c, 5, 67, 0
1, 62020, Control_c, 3, 1, 45
1, 62038, Control_c, 3, 1, 46
1, 62042, Note_on_c, 2, 79, 0
1, 62060, Control_c, 3, 1, 41
1, 62074, Control_c, 3, 1, 32
1, 62090, Control_c, 3, 1, 12
1, 62100, Note_on_c, 3, 62, 0
1, 62106, Note_on_c, 2, 88, 0
1, 62106, Note_on_c, 0, 62, 0
1, 62108, Control_c, 3, 1, 0
1, 62110, Note_on_c, 0, 67, 0
1, 62112, Note_on_c, 1, 38, 0
1, 62114, Note_on_c, 2, 84, 0
1, 62116, Note_on_c, 0, 59, 0
1, 62130, Note_on_c, 6, 62, 78
1, 62130, Note_on_c, 2, 79, 77
1, 62130, Note_on_c, 6, 59, 87
1, 62130, Note_on_c, 3, 60, 104
1, 62130, Note_on_c, 5, 64, 105
1, 62130, Note_on_c, 9, 42, 69
1, 62130, Note_on_c, 0, 43, 106
1, 62130, Note_on_c, 1, 31, 110
1, 62130, Note_on_c, 6, 55, 84
1, 62142, Note_on_c, 9, 42, 0
1, 62192, Note_on_c, 2, 79, 0
1, 62194, Note_on_c, 5, 64, 0
1, 62194, Note_on_c, 3, 60, 0
1, 62296, Note_on_c, 1, 31, 0
1, 62322, Note_on_c, 9, 35, 106
1, 62322, Note_on_c, 9, 42, 84
1, 62322, Note_on_c, 0, 62, 120
1, 62322, Note_on_c, 6, 55, 96
1, 62322, Note_on_c, 6, 59, 107
1, 62322, Note_on_c, 6, 62, 105
1, 62322, Note_on_c, 1, 35, 107
1, 62322, Note_on_c, 2, 83, 105
1, 62322, Note_on_c, 2, 79, 102
1, 62322, Note_on_c, 0, 67, 118
1, 62322, Note_on_c, 2, 86, 95
1, 62322, Note_on_c, 0, 59, 109
1, 62322, Note_on_c, 5, 67, 110
1, 62322, Note_on_c, 3, 62, 127
1, 62332, Note_on_c, 6, 62, 0
1, 62332, Note_on_c, 6, 55, 0
1, 62332, Note_on_c, 6, 59, 0
1, 62334, Note_on_c, 9, 42, 0
1, 62334, Note_on_c, 9, 35, 0
1, 62350, Note_on_c, 0, 43, 0
1, 62358, Control_c, 3, 1, 10
1, 62378, Control_c, 3, 1, 31
1, 62398, Control_c, 3, 1, 42
1, 62402, Note_on_c, 5, 67, 0
1, 62414, Control_c, 3, 1, 53
1, 62418, Pitch_bend_c, 3, 7872
1, 62428, Pitch_bend_c, 3, 7488
1, 62432, Control_c, 3, 1, 56
1, 62444, Pitch_bend_c, 3, 7264
1, 62452, Control_c, 3, 1, 50
1, 62458, Note_on_c, 2, 79, 0
1, 62464, Note_on_c, 1, 35, 0
1, 62464, Note_on_c, 2, 83, 0
1, 62466, Control_c, 3, 1, 27
1, 62484, Control_c, 3, 1, 6
1, 62492, Pitch_bend_c, 3, 7712
1, 62498, Note_on_c, 2, 86, 0
1, 62504, Pitch_bend_c, 3, 7936
1, 62506, Note_on_c, 0, 62, 0
1, 62508, Control_c, 3, 1, 0
1, 62510, Note_on_c, 0, 59, 0
1, 62512, Pitch_bend_c, 3, 8192
1, 62514, Note_on_c, 6, 62, 110
1, 62514, Note_on_c, 6, 59, 110
1, 62514, Note_on_c, 6, 55, 98
1, 62514, Note_on_c, 9, 42, 71
1, 62514, Note_on_c, 9, 35, 99
1, 62514, Note_on_c, 0, 43, 118
1, 62514, Note_on_c, 1, 38, 105
1, 62518, Note_on_c, 0, 67, 0
1, 62524, Note_on_c, 6, 55, 0
1, 62524, Note_on_c, 6, 62, 0
1, 62524, Note_on_c, 6, 59, 0
1, 62526, Note_on_c, 9, 42, 0
1, 62526, Note_on_c, 9, 35, 0
1, 62542, Note_on_c, 3, 62, 0
1, 62700, Note_on_c, 1, 38, 0
1, 62706, Note_on_c, 0, 62, 93
1, 62706, Note_on_c, 2, 79, 98
1, 62706, Note_on_c, 6, 43, 110
1, 62706, Note_on_c, 9, 42, 90
1, 62706, Note_on_c, 2, 83, 101
1, 62706, Note_on_c, 0, 67, 94
1, 62706, Note_on_c, 1, 31, 90
1, 62706, Note_on_c, 9, 40, 122
1, 62706, Note_on_c, 2, 86, 95
1, 62706, Note_on_c, 6, 50, 110
1, 62706, Note_on_c, 0, 59, 84
1, 62706, Note_on_c, 9, 54, 115
1, 62716, Note_on_c, 6, 59, 0
1, 62716, Note_on_c, 6, 62, 0
1, 62716, Note_on_c, 6, 55, 0
1, 62718, Note_on_c, 9, 54, 0
1, 62718, Note_on_c, 9, 42, 0
1, 62718, Note_on_c, 0, 43, 0
1, 62718, Note_on_c, 9, 40, 0
1, 62764, Note_on_c, 6, 43, 0
1, 62764, Note_on_c, 6, 50, 0
1, 62768, Note_on_c, 0, 67, 0
1, 62776, Note_on_c, 0, 62, 0
1, 62782, Note_on_c, 0, 59, 0
1, 62808, Note_on_c, 1, 31, 0
1, 62826, Note_on_c, 2, 79, 0
1, 62848, Note_on_c, 2, 83, 0
1, 62876, Note_on_c, 2, 86, 0
1, 62898, Note_on_c, 0, 69, 111
1, 62898, Note_on_c, 0, 43, 127
1, 62898, Note_on_c, 2, 79, 76
1, 62898, Note_on_c, 6, 57, 81
1, 62898, Note_on_c, 1, 31, 118
1, 62898, Note_on_c, 9, 42, 74
1, 62898, Note_on_c, 6, 60, 87
1, 62898, Note_on_c, 6, 62, 87
1, 62898, Note_on_c, 0, 62, 105
1, 62898, Note_on_c, 0, 59, 100
1, 62910, Note_on_c, 9, 42, 0
1, 62956, Note_on_c, 2, 79, 0
1, 63014, Note_on_c, 0, 43, 0
1, 63090, Note_on_c, 2, 79, 97
1, 63090, Note_on_c, 2, 88, 89
1, 63090, Note_on_c, 6, 57, 97
1, 63090, Note_on_c, 6, 60, 103
1, 63090, Note_on_c, 9, 42, 83
1, 63090, Note_on_c, 9, 35, 109
1, 63090, Note_on_c, 2, 84, 95
1, 63090, Note_on_c, 5, 50, 127
1, 63090, Note_on_c, 0, 43, 113
1, 63090, Note_on_c, 5, 43, 127
1, 63090, Note_on_c, 6, 62, 102
1, 63100, Note_on_c, 6, 62, 0
1, 63100, Note_on_c, 6, 60, 0
1, 63100, Note_on_c, 6, 57, 0
1, 63102, Note_on_c, 9, 35, 0
1, 63102, Note_on_c, 9, 42, 0
1, 63138, Note_on_c, 0, 69, 0
1, 63152, Note_on_c, 0, 62, 0
1, 63160, Note_on_c, 0, 59, 0
1, 63180, Note_on_c, 5, 50, 0
1, 63202, Note_on_c, 5, 43, 0
1, 63266, Note_on_c, 2, 84, 0
1, 63266, Note_on_c, 2, 79, 0
1, 63268, Note_on_c, 1, 31, 0
1, 63272, Note_on_c, 2, 88, 0
1, 63282, Note_on_c, 6, 60, 100
1, 63282, Note_on_c, 0, 59, 92
1, 63282, Note_on_c, 6, 62, 100
1, 63282, Note_on_c, 9, 42, 72
1, 63282, Note_on_c, 1, 35, 106
1, 63282, Note_on_c, 6, 57, 93
1, 63282, Note_on_c, 0, 62, 103
1, 63282, Note_on_c, 0, 67, 96
1, 63282, Note_on_c, 9, 35, 97
1, 63292, Note_on_c, 6, 57, 0
1, 63292, Note_on_c, 6, 60, 0
1, 63292, Note_on_c, 6, 62, 0
1, 63294, Note_on_c, 9, 42, 0
1, 63294, Note_on_c, 9, 35, 0
1, 63346, Note_on_c, 0, 62, 0
1, 63350, Note_on_c, 0, 59, 0
1, 63370, Note_on_c, 0, 67, 0
1, 63424, Note_on_c, 0, 43, 0
1, 63430, Note_on_c, 1, 35, 0
1, 63474, Note_on_c, 2, 79, 92
1, 63474, Note_on_c, 2, 88, 95
1, 63474, Note_on_c, 2, 84, 96
1, 63474, Note_on_c, 1, 38, 107
1, 63474, Note_on_c, 9, 42, 92
1, 63474, Note_on_c, 6, 43, 110
1, 63474, Note_on_c, 0, 59, 107
1, 63474, Note_on_c, 6, 50, 110
1, 63474, Note_on_c, 9, 40, 120
1, 63474, Note_on_c, 9, 54, 115
1, 63474, Note_on_c, 0, 62, 114
1, 63474, Note_on_c, 0, 67, 99
1, 63484, Note_on_c, 6, 60, 0
1, 63484, Note_on_c, 6, 62, 0
1, 63484, Note_on_c, 6, 57, 0
1, 63486, Note_on_c, 9, 42, 0
1, 63486, Note_on_c, 9, 54, 0
1, 63486, Note_on_c, 9, 40, 0
1, 63532, Note_on_c, 6, 43, 0
1, 63532, Note_on_c, 6, 50, 0
1, 63576, Note_on_c, 0, 62, 0
1, 63576, Note_on_c, 2, 79, 0
1, 63606, Note_on_c, 0, 59, 0
1, 63608, Note_on_c, 2, 84, 0
1, 63614, Note_on_c, 0, 67, 0
1, 63626, Note_on_c, 2, 88, 0
1, 63628, Note_on_c, 1, 38, 0
1, 63666, Note_on_c, 1, 31, 115
1, 63666, Note_on_c, 9, 42, 73
1, 63666, Note_on_c, 6, 55, 80
1, 63666, Note_on_c, 6, 62, 76
1, 63666, Note_on_c, 2, 79, 78
1, 63666, Note_on_c, 6, 59, 83
1, 63666, Note_on_c, 5, 50, 127
1, 63666, Note_on_c, 5, 43, 127
1, 63666, Note_on_c, 0, 43, 121
1, 63678, Note_on_c, 9, 42, 0
1, 63724, Note_on_c, 2, 79, 0
1, 63768, Note_on_c, 5, 50, 0
1, 63776, Note_on_c, 5, 43, 0
1, 63834, Note_on_c, 1, 31, 0
1, 63858, Note_on_c, 9, 35, 107
1, 63858, Note_on_c, 0, 59, 103
1, 63858, Note_on_c, 0, 62, 109
1, 63858, Note_on_c, 2, 79, 106
1, 63858, Note_on_c, 1, 35, 104
1, 63858, Note_on_c, 6, 55, 102
1, 63858, Note_on_c, 0, 67, 101
1, 63858, Note_on_c, 2, 83, 105
1, 63858, Note_on_c, 9, 42, 77
1, 63858, Note_on_c, 6, 62, 107
1, 63858, Note_on_c, 6, 59, 109
1, 63858, Note_on_c, 2, 86, 99
1, 63868, Note_on_c, 6, 59, 0
1, 63868, Note_on_c, 6, 62, 0
1, 63868, Note_on_c, 6, 55, 0
1, 63870, Note_on_c, 9, 42, 0
1, 63870, Note_on_c, 9, 35, 0
1, 63916, Note_on_c, 0, 59, 0
1, 63918, Note_on_c, 0, 62, 0
1, 63932, Note_on_c, 0, 67, 0
1, 63956, Note_on_c, 0, 43, 0
1, 64012, Note_on_c, 2, 83, 0
1, 64014, Note_on_c, 2, 86, 0
1, 64024, Note_on_c, 2, 79, 0
1, 64038, Note_on_c, 1, 35, 0
1, 64050, Note_on_c, 9, 42, 71
1, 64050, Note_on_c, 6, 59, 101
1, 64050, Note_on_c, 0, 59, 118
1, 64050, Note_on_c, 0, 67, 109
1, 64050, Note_on_c, 6, 62, 100
1, 64050, Note_on_c, 9, 35, 95
1, 64050, Note_on_c, 1, 38, 114
1, 64050, Note_on_c, 0, 62, 120
1, 64050, Note_on_c, 6, 55, 98
1, 64060, Note_on_c, 6, 55, 0
1, 64060, Note_on_c, 6, 59, 0
1, 64060, Note_on_c, 6, 62, 0
1, 64062, Note_on_c, 9, 35, 0
1, 64062, Note_on_c, 9, 42, 0
1, 64210, Note_on_c, 1, 38, 0
1, 64242, Note_on_c, 6, 50, 110
1, 64242, Note_on_c, 9, 40, 127
1, 64242, Note_on_c, 6, 43, 110
1, 64242, Note_on_c, 2, 86, 95
1, 64242, Note_on_c, 1, 31, 106
1, 64242, Note_on_c, 2, 79, 95
1, 64242, Note_on_c, 9, 42, 91
1, 64242, Note_on_c, 9, 54, 113
1, 64242, Note_on_c, 2, 83, 97
1, 64242, Note_on_c, 0, 43, 109
1, 64252, Note_on_c, 6, 55, 0
1, 64252, Note_on_c, 6, 59, 0
1, 64252, Note_on_c, 6, 62, 0
1, 64254, Note_on_c, 9, 54, 0
1, 64254, Note_on_c, 9, 40, 0
1, 64254, Note_on_c, 9, 42, 0
1, 64264, Note_on_c, 0, 67, 0
1, 64268, Note_on_c, 0, 59, 0
1, 64268, Note_on_c, 0, 62, 0
1, 64300, Note_on_c, 6, 50, 0
1, 64300, Note_on_c, 6, 43, 0
1, 64360, Pitch_bend_c, 3, 6112
1, 64380, Pitch_bend_c, 3, 3072
1, 64380, Note_on_c, 2, 79, 0
1, 64392, Pitch_bend_c, 3, 544
1, 64398, Note_on_c, 1, 31, 0
1, 64400, Note_on_c, 2, 83, 0
1, 64406, Pitch_bend_c, 3, 0
1, 64408, Note_on_c, 0, 43, 0
1, 64414, Note_on_c, 2, 86, 0
1, 64434, Note_on_c, 6, 55, 80
1, 64434, Note_on_c, 6, 64, 81
1, 64434, Note_on_c, 0, 67, 101
1, 64434, Note_on_c, 9, 46, 70
1, 64434, Note_on_c, 2, 79, 82
1, 64434, Note_on_c, 0, 59, 93
1, 64434, Note_on_c, 3, 64, 125
1, 64434, Note_on_c, 6, 60, 85
1, 64434, Note_on_c, 1, 31, 101
1, 64434, Note_on_c, 0, 62, 93
1, 64434, Note_on_c, 5, 67, 102
1, 64446, Note_on_c, 9, 46, 0
1, 64468, Pitch_bend_c, 3, 704
1, 64476, Pitch_bend_c, 3, 2208
1, 64492, Pitch_bend_c, 3, 3968
1, 64500, Note_on_c, 0, 62, 0
1, 64504, Pitch_bend_c, 3, 5792
1, 64512, Note_on_c, 2, 79, 0
1, 64518, Pitch_bend_c, 3, 7392
1, 64518, Note_on_c, 0, 59, 0
1, 64532, Pitch_bend_c, 3, 8160
1, 64544, Pitch_bend_c, 3, 8192
1, 64562, Note_on_c, 0, 67, 0
1, 64582, Note_on_c, 1, 31, 0
1, 64626, Note_on_c, 6, 55, 103
1, 64626, Note_on_c, 2, 79, 97
1, 64626, Note_on_c, 2, 84, 95
1, 64626, Note_on_c, 0, 67, 110
1, 64626, Note_on_c, 6, 60, 111
1, 64626, Note_on_c, 6, 64, 103
1, 64626, Note_on_c, 0, 60, 106
1, 64626, Note_on_c, 2, 88, 95
1, 64626, Note_on_c, 4, 79, 84
1, 64626, Note_on_c, 0, 48, 118
1, 64626, Note_on_c, 0, 64, 107
1, 64626, Note_on_c, 1, 36, 99
1, 64626, Note_on_c, 9, 35, 101
1, 64626, Note_on_c, 4, 67, 89
1, 64626, Note_on_c, 9, 42, 92
1, 64626, Note_on_c, 4, 67, 0
1, 64626, Note_on_c, 4, 79, 0
1, 64636, Note_on_c, 6, 55, 0
1, 64636, Note_on_c, 6, 64, 0
1, 64636, Note_on_c, 6, 60, 0
1, 64638, Note_on_c, 9, 42, 0
1, 64638, Note_on_c, 9, 35, 0
1, 64682, Note_on_c, 3, 64, 0
1, 64706, Note_on_c, 5, 67, 0
1, 64790, Note_on_c, 2, 84, 0
1, 64796, Note_on_c, 2, 88, 0
1, 64806, Note_on_c, 1, 36, 0
1, 64814, Note_on_c, 2, 79, 0
1, 64818, Note_on_c, 5, 67, 106
1, 64818, Note_on_c, 9, 42, 57
1, 64818, Note_on_c, 6, 64, 111
1, 64818, Note_on_c, 1, 40, 99
1, 64818, Note_on_c, 3, 64, 117
1, 64818, Note_on_c, 9, 35, 85
1, 64818, Note_on_c, 6, 55, 105
1, 64818, Note_on_c, 6, 60, 107
1, 64828, Note_on_c, 6, 60, 0
1, 64828, Note_on_c, 6, 55, 0
1, 64828, Note_on_c, 6, 64, 0
1, 64830, Note_on_c, 9, 35, 0
1, 64830, Note_on_c, 9, 42, 0
1, 64856, Control_c, 3, 1, 1
1, 64868, Control_c, 3, 1, 2
1, 64868, Note_on_c, 0, 67, 0
1, 64872, Note_on_c, 0, 64, 0
1, 64874, Note_on_c, 0, 60, 0
1, 64882, Note_on_c, 5, 67, 0
1, 64886, Control_c, 3, 1, 3
1, 64898, Note_on_c, 3, 64, 0
1, 64926, Control_c, 3, 1, 4
1, 64936, Note_on_c, 0, 48, 0
1, 64992, Note_on_c, 1, 40, 0
1, 64994, Control_c, 3, 1, 6
1, 65006, Control_c, 3, 1, 11
1, 65010, Note_on_c, 0, 60, 103
1, 65010, Note_on_c, 2, 79, 92
1, 65010, Note_on_c, 0, 64, 111
1, 65010, Note_on_c, 9, 54, 110
1, 65010, Note_on_c, 1, 43, 102
1, 65010, Note_on_c, 2, 88, 97
1, 65010, Note_on_c, 6, 48, 110
1, 65010, Note_on_c, 3, 64, 127
1, 65010, Note_on_c, 9, 40, 114
1, 65010, Note_on_c, 5, 67, 110
1, 65010, Note_on_c, 2, 84, 95
1, 65010, Note_on_c, 0, 67, 114
1, 65010, Note_on_c, 9, 42, 77
1, 65010, Note_on_c, 6, 55, 110
1, 65020, Note_on_c, 6, 55, 0
1, 65020, Note_on_c, 6, 60, 0
1, 65020, Note_on_c, 6, 64, 0
1, 65022, Note_on_c, 9, 54, 0
1, 65022, Note_on_c, 9, 42, 0
1, 65022, Note_on_c, 9, 40, 0
1, 65026, Control_c, 3, 1, 15
1, 65040, Control_c, 3, 1, 24
1, 65058, Control_c, 3, 1, 33
1, 65068, Note_on_c, 6, 55, 0
1, 65068, Note_on_c, 6, 48, 0
1, 65078, Control_c, 3, 1, 39
1, 65098, Control_c, 3, 1, 42
1, 65118, Control_c, 3, 1, 44
1, 65132, Control_c, 3, 1, 45
1, 65134, Note_on_c, 2, 79, 0
1, 65152, Control_c, 3, 1, 44
1, 65152, Note_on_c, 3, 64, 0
1, 65166, Control_c, 3, 1, 42
1, 65168, Note_on_c, 5, 67, 0
1, 65172, Note_on_c, 0, 67, 0
1, 65178, Note_on_c, 0, 64, 0
1, 65184, Control_c, 3, 1, 38
1, 65196, Note_on_c, 1, 43, 0
1, 65198, Note_on_c, 0, 60, 0
1, 65202, Note_on_c, 9, 42, 61
1, 65202, Note_on_c, 0, 48, 110
1, 65202, Note_on_c, 2, 79, 76
1, 65202, Note_on_c, 6, 55, 87
1, 65202, Note_on_c, 5, 65, 90
1, 65202, Note_on_c, 6, 59, 95
1, 65202, Note_on_c, 3, 62, 99
1, 65202, Note_on_c, 6, 62, 83
1, 65202, Note_on_c, 1, 31, 91
1, 65206, Control_c, 3, 1, 33
1, 65208, Note_on_c, 2, 88, 0
1, 65212, Note_on_c, 2, 84, 0
1, 65214, Note_on_c, 9, 42, 0
1, 65224, Control_c, 3, 1, 30
1, 65238, Control_c, 3, 1, 27
1, 65256, Note_on_c, 2, 79, 0
1, 65258, Control_c, 3, 1, 24
1, 65268, Note_on_c, 3, 62, 0
1, 65278, Note_on_c, 5, 65, 0
1, 65298, Control_c, 3, 1, 28
1, 65306, Note_on_c, 0, 48, 0
1, 65310, Control_c, 3, 1, 33
1, 65330, Control_c, 3, 1, 36
1, 65350, Note_on_c, 1, 31, 0
1, 65358, Control_c, 3, 1, 37
1, 65364, Control_c, 3, 1, 40
1, 65392, Control_c, 3, 1, 42
1, 65394, Note_on_c, 3, 62, 120
1, 65394, Note_on_c, 2, 86, 98
1, 65394, Note_on_c, 6, 55, 109
1, 65394, Note_on_c, 2, 83, 104
1, 65394, Note_on_c, 2, 79, 102
1, 65394, Note_on_c, 5, 65, 95
1, 65394, Note_on_c, 0, 62, 103
1, 65394, Note_on_c, 9, 35, 103
1, 65394, Note_on_c, 0, 59, 96
1, 65394, Note_on_c, 6, 59, 114
1, 65394, Note_on_c, 0, 67, 95
1, 65394, Note_on_c, 1, 31, 114
1, 65394, Note_on_c, 6, 62, 111
1, 65394, Note_on_c, 0, 43, 113
1, 65394, Note_on_c, 9, 42, 76
1, 65404, Control_c, 3, 1, 44
1, 65404, Note_on_c, 6, 62, 0
1, 65404, Note_on_c, 6, 59, 0
1, 65404, Note_on_c, 6, 55, 0
1, 65406, Note_on_c, 9, 42, 0
1, 65406, Note_on_c, 9, 35, 0
1, 65418, Control_c, 3, 1, 47
1, 65436, Control_c, 3, 1, 50
1, 65456, Control_c, 3, 1, 51
1, 65466, Note_on_c, 0, 59, 0
1, 65470, Note_on_c, 0, 62, 0
1, 65474, Note_on_c, 0, 67, 0
1, 65486, Note_on_c, 5, 65, 0
1, 65508, Control_c, 3, 1, 53
1, 65526, Note_on_c, 3, 62, 0
1, 65528, Control_c, 3, 1, 55
1, 65546, Note_on_c, 2, 83, 0
1, 65562, Control_c, 3, 1, 47
1, 65566, Note_on_c, 2, 86, 0
1, 65572, Note_on_c, 2, 79, 0
1, 65576, Note_on_c, 1, 31, 0
1, 65582, Control_c, 3, 1, 38
1, 65586, Note_on_c, 3, 62, 117
1, 65586, Note_on_c, 9, 42, 54
1, 65586, Note_on_c, 9, 35, 91
1, 65586, Note_on_c, 0, 62, 111
1, 65586, Note_on_c, 0, 59, 103
1, 65586, Note_on_c, 6, 55, 106
1, 65586, Note_on_c, 6, 59, 113
1, 65586, Note_on_c, 5, 65, 95
1, 65586, Note_on_c, 1, 35, 101
1, 65586, Note_on_c, 0, 67, 107
1, 65586, Note_on_c, 6, 62, 114
1, 65596, Note_on_c, 6, 62, 0
1, 65596, Note_on_c, 6, 59, 0
1, 65596, Note_on_c, 6, 55, 0
1, 65598, Note_on_c, 9, 42, 0
1, 65598, Note_on_c, 9, 35, 0
1, 65614, Control_c, 3, 1, 39
1, 65620, Control_c, 3, 1, 42
1, 65634, Control_c, 3, 1, 45
1, 65642, Note_on_c, 5, 65, 0
1, 65654, Note_on_c, 0, 62, 0
1, 65658, Note_on_c, 0, 59, 0
1, 65662, Note_on_c, 0, 67, 0
1, 65674, Note_on_c, 3, 62, 0
1, 65688, Control_c, 3, 1, 38
1, 65708, Control_c, 3, 1, 28
1, 65728, Control_c, 3, 1, 23
1, 65748, Note_on_c, 1, 35, 0
1, 65768, Control_c, 3, 1, 25
1, 65774, Note_on_c, 0, 43, 0
1, 65778, Note_on_c, 2, 83, 95
1, 65778, Note_on_c, 0, 67, 114
1, 65778, Note_on_c, 5, 65, 105
1, 65778, Note_on_c, 2, 79, 98
1, 65778, Note_on_c, 2, 86, 93
1, 65778, Note_on_c, 6, 43, 110
1, 65778, Note_on_c, 0, 62, 114
1, 65778, Note_on_c, 0, 59, 110
1, 65778, Note_on_c, 9, 54, 112
1, 65778, Note_on_c, 9, 42, 82
1, 65778, Note_on_c, 1, 38, 105
1, 65778, Note_on_c, 9, 40, 111
1, 65778, Note_on_c, 6, 50, 110
1, 65778, Note_on_c, 3, 62, 119
1, 65788, Control_c, 3, 1, 28
1, 65788, Note_on_c, 6, 62, 0
1, 65788, Note_on_c, 6, 59, 0
1, 65788, Note_on_c, 6, 55, 0
1, 65790, Note_on_c, 9, 40, 0
1, 65790, Note_on_c, 9, 42, 0
1, 65790, Note_on_c, 9, 54, 0
1, 65808, Control_c, 3, 1, 29
1, 65818, Control_c, 3, 1, 25
1, 65832, Control_c, 3, 1, 14
1, 65836, Note_on_c, 6, 50, 0
1, 65836, Note_on_c, 6, 43, 0
1, 65854, Control_c, 3, 1, 12
1, 65882, Note_on_c, 5, 65, 0
1, 65884, Control_c, 3, 1, 11
1, 65892, Control_c, 3, 1, 9
1, 65894, Note_on_c, 3, 62, 0
1, 65900, Note_on_c, 0, 62, 0
1, 65904, Control_c, 3, 1, 8
1, 65926, Control_c, 3, 1, 7
1, 65938, Note_on_c, 2, 83, 0
1, 65944, Control_c, 3, 1, 5
1, 65944, Note_on_c, 2, 79, 0
1, 65948, Note_on_c, 1, 38, 0
1, 65950, Note_on_c, 0, 59, 0
1, 65952, Note_on_c, 2, 86, 0
1, 65958, Control_c, 3, 1, 0
1, 65970, Note_on_c, 5, 65, 99
1, 65970, Note_on_c, 1, 31, 104
1, 65970, Note_on_c, 9, 42, 58
1, 65970, Note_on_c, 6, 53, 85
1, 65970, Note_on_c, 0, 43, 107
1, 65970, Note_on_c, 3, 62, 112
1, 65970, Note_on_c, 6, 60, 82
1, 65970, Note_on_c, 6, 57, 94
1, 65982, Note_on_c, 9, 42, 0
1, 66022, Note_on_c, 0, 67, 0
1, 66030, Note_on_c, 3, 62, 0
1, 66040, Note_on_c, 5, 65, 0
1, 66070, Note_on_c, 0, 43, 0
1, 66076, Pitch_bend_c, 3, 8160
1, 66082, Pitch_bend_c, 3, 6048
1, 66100, Pitch_bend_c, 3, 3584
1, 66114, Pitch_bend_c, 3, 1856
1, 66124, Note_on_c, 1, 31, 0
1, 66128, Pitch_bend_c, 3, 1056
1, 66140, Pitch_bend_c, 3, 704
1, 66154, Pitch_bend_c, 3, 704
1, 66162, Note_on_c, 2, 81, 97
1, 66162, Note_on_c, 5, 69, 114
1, 66162, Note_on_c, 0, 41, 91
1, 66162, Note_on_c, 0, 60, 105
1, 66162, Note_on_c, 6, 60, 110
1, 66162, Note_on_c, 3, 65, 127
1, 66162, Note_on_c, 2, 86, 95
1, 66162, Note_on_c, 0, 69, 111
1, 66162, Note_on_c, 0, 65, 109
1, 66162, Note_on_c, 4, 81, 91
1, 66162, Note_on_c, 6, 53, 109
1, 66162, Note_on_c, 6, 57, 114
1, 66162, Note_on_c, 9, 35, 103
1, 66162, Note_on_c, 2, 89, 99
1, 66162, Note_on_c, 4, 69, 89
1, 66162, Note_on_c, 1, 29, 111
1, 66162, Note_on_c, 9, 42, 77
1, 66162, Note_on_c, 4, 67, 0
1, 66162, Note_on_c, 4, 79, 0
1, 66168, Pitch_bend_c, 3, 1216
1, 66172, Note_on_c, 6, 57, 0
1, 66172, Note_on_c, 6, 53, 0
1, 66172, Note_on_c, 6, 60, 0
1, 66174, Note_on_c, 9, 35, 0
1, 66174, Note_on_c, 9, 42, 0
1, 66180, Pitch_bend_c, 3, 2208
1, 66194, Pitch_bend_c, 3, 3520
1, 66208, Pitch_bend_c, 3, 6112
1, 66228, Pitch_bend_c, 3, 7648
1, 66230, Note_on_c, 0, 69, 0
1, 66232, Note_on_c, 0, 60, 0
1, 66232, Note_on_c, 0, 65, 0
1, 66240, Pitch_bend_c, 3, 8032
1, 66248, Pitch_bend_c, 3, 8192
1, 66274, Note_on_c, 5, 69, 0
1, 66284, Note_on_c, 3, 65, 0
1, 66334, Note_on_c, 1, 29, 0
1, 66354, Note_on_c, 6, 53, 93
1, 66354, Note_on_c, 6, 57, 105
1, 66354, Note_on_c, 0, 60, 100
1, 66354, Note_on_c, 5, 69, 96
1, 66354, Note_on_c, 0, 69, 107
1, 66354, Note_on_c, 9, 42, 69
1, 66354, Note_on_c, 1, 33, 100
1, 66354, Note_on_c, 3, 65, 114
1, 66354, Note_on_c, 6, 60, 100
1, 66354, Note_on_c, 9, 35, 91
1, 66354, Note_on_c, 0, 65, 107
1, 66358, Note_on_c, 2, 86, 0
1, 66364, Note_on_c, 6, 60, 0
1, 66364, Note_on_c, 6, 57, 0
1, 66364, Note_on_c, 6, 53, 0
1, 66366, Note_on_c, 9, 35, 0
1, 66366, Note_on_c, 9, 42, 0
1, 66370, Note_on_c, 2, 89, 0
1, 66374, Note_on_c, 2, 81, 0
1, 66444, Note_on_c, 5, 69, 0
1, 66458, Note_on_c, 3, 65, 0
1, 66476, Note_on_c, 0, 41, 0
1, 66502, Note_on_c, 1, 33, 0
1, 66546, Note_on_c, 9, 40, 120
1, 66546, Note_on_c, 6, 48, 110
1, 66546, Note_on_c, 1, 36, 101
1, 66546, Note_on_c, 5, 69, 104
1, 66546, Note_on_c, 9, 42, 96
1, 66546, Note_on_c, 9, 54, 110
1, 66546, Note_on_c, 6, 41, 110
1, 66546, Note_on_c, 0, 41, 106
1, 66546, Note_on_c, 2, 86, 96
1, 66546, Note_on_c, 2, 89, 101
1, 66546, Note_on_c, 2, 81, 95
1, 66546, Note_on_c, 3, 65, 120
1, 66556, Note_on_c, 6, 57, 0
1, 66556, Note_on_c, 6, 60, 0
1, 66556, Note_on_c, 6, 53, 0
1, 66558, Note_on_c, 9, 40, 0
1, 66558, Note_on_c, 9, 42, 0
1, 66558, Note_on_c, 9, 54, 0
1, 66604, Note_on_c, 6, 48, 0
1, 66604, Note_on_c, 6, 41, 0
1, 66610, Note_on_c, 0, 69, 0
1, 66614, Note_on_c, 0, 65, 0
1, 66620, Note_on_c, 5, 69, 0
1, 66624, Note_on_c, 0, 60, 0
1, 66630, Note_on_c, 3, 65, 0
1, 66646, Note_on_c, 0, 41, 0
1, 66692, Note_on_c, 2, 81, 0
1, 66698, Note_on_c, 1, 36, 0
1, 66728, Control_c, 3, 1, 4
1, 66736, Control_c, 3, 1, 13
1, 66738, Note_on_c, 6, 55, 94
1, 66738, Note_on_c, 6, 64, 91
1, 66738, Note_on_c, 6, 60, 98
1, 66738, Note_on_c, 5, 67, 109
1, 66738, Note_on_c, 1, 36, 106
1, 66738, Note_on_c, 0, 67, 114
1, 66738, Note_on_c, 3, 64, 119
1, 66738, Note_on_c, 9, 42, 66
1, 66738, Note_on_c, 0, 64, 116
1, 66738, Note_on_c, 0, 60, 107
1, 66746, Note_on_c, 2, 86, 0
1, 66750, Control_c, 3, 1, 30
1, 66750, Note_on_c, 9, 42, 0
1, 66758, Note_on_c, 2, 89, 0
1, 66768, Control_c, 3, 1, 42
1, 66788, Control_c, 3, 1, 51
1, 66808, Control_c, 3, 1, 55
1, 66824, Control_c, 3, 1, 58
1, 66868, Control_c, 3, 1, 54
1, 66882, Control_c, 3, 1, 47
1, 66894, Control_c, 3, 1, 31
1, 66916, Control_c, 3, 1, 12
1, 66930, Note_on_c, 2, 79, 104
1, 66930, Note_on_c, 9, 35, 109
1, 66930, Note_on_c, 6, 55, 102
1, 66930, Note_on_c, 6, 60, 106
1, 66930, Note_on_c, 9, 42, 86
1, 66930, Note_on_c, 4, 79, 84
1, 66930, Note_on_c, 0, 48, 107
1, 66930, Note_on_c, 4, 67, 90
1, 66930, Note_on_c, 2, 84, 98
1, 66930, Note_on_c, 2, 88, 95
1, 66930, Note_on_c, 6, 64, 106
1, 66930, Note_on_c, 4, 69, 0
1, 66930, Note_on_c, 4, 81, 0
1, 66934, Control_c, 3, 1, 2
1, 66934, Note_on_c, 5, 67, 0
1, 66940, Note_on_c, 6, 64, 0
1, 66940, Note_on_c, 6, 60, 0
1, 66940, Note_on_c, 6, 55, 0
1, 66942, Note_on_c, 9, 42, 0
1, 66942, Note_on_c, 9, 35, 0
1, 66948, Control_c, 3, 1, 0
1, 66958, Note_on_c, 3, 64, 0
1, 66962, Note_on_c, 0, 64, 0
1, 66972, Note_on_c, 0, 67, 0
1, 66972, Note_on_c, 0, 60, 0
1, 67112, Note_on_c, 2, 84, 0
1, 67120, Note_on_c, 1, 36, 0
1, 67120, Note_on_c, 2, 79, 0
1, 67122, Note_on_c, 6, 64, 95
1, 67122, Note_on_c, 1, 40, 99
1, 67122, Note_on_c, 9, 35, 89
1, 67122, Note_on_c, 3, 60, 117
1, 67122, Note_on_c, 6, 55, 91
1, 67122, Note_on_c, 0, 60, 94
1, 67122, Note_on_c, 0, 67, 107
1, 67122, Note_on_c, 6, 60, 98
1, 67122, Note_on_c, 5, 64, 102
1, 67122, Note_on_c, 0, 64, 103
1, 67122, Note_on_c, 9, 42, 77
1, 67126, Note_on_c, 2, 88, 0
1, 67132, Note_on_c, 6, 64, 0
1, 67132, Note_on_c, 6, 60, 0
1, 67132, Note_on_c, 6, 55, 0
1, 67134, Note_on_c, 9, 42, 0
1, 67134, Note_on_c, 9, 35, 0
1, 67158, Note_on_c, 0, 48, 0
1, 67198, Note_on_c, 5, 64, 0
1, 67218, Note_on_c, 3, 60, 0
1, 67296, Note_on_c, 1, 40, 0
1, 67314, Note_on_c, 0, 48, 111
1, 67314, Note_on_c, 3, 60, 117
1, 67314, Note_on_c, 5, 64, 95
1, 67314, Note_on_c, 1, 43, 104
1, 67314, Note_on_c, 6, 55, 110
1, 67314, Note_on_c, 9, 42, 91
1, 67314, Note_on_c, 2, 88, 97
1, 67314, Note_on_c, 2, 79, 95
1, 67314, Note_on_c, 6, 48, 110
1, 67314, Note_on_c, 2, 84, 97
1, 67314, Note_on_c, 9, 40, 124
1, 67314, Note_on_c, 9, 54, 113
1, 67324, Note_on_c, 6, 55, 0
1, 67324, Note_on_c, 6, 64, 0
1, 67324, Note_on_c, 6, 60, 0
1, 67326, Note_on_c, 9, 54, 0
1, 67326, Note_on_c, 9, 40, 0
1, 67326, Note_on_c, 9, 42, 0
1, 67330, Note_on_c, 0, 67, 0
1, 67334, Note_on_c, 0, 64, 0
1, 67352, Note_on_c, 0, 60, 0
1, 67372, Note_on_c, 6, 55, 0
1, 67372, Note_on_c, 6, 48, 0
1, 67396, Note_on_c, 3, 60, 0
1, 67396, Note_on_c, 5, 64, 0
1, 67426, Pitch_bend_c, 3, 7040
1, 67426, Note_on_c, 0, 48, 0
1, 67440, Pitch_bend_c, 3, 2848
1, 67454, Note_on_c, 2, 79, 0
1, 67460, Pitch_bend_c, 3, 256
1, 67466, Note_on_c, 2, 84, 0
1, 67472, Pitch_bend_c, 3, 0
1, 67480, Note_on_c, 2, 88, 0
1, 67484, Note_on_c, 1, 43, 0
1, 67506, Note_on_c, 6, 62, 87
1, 67506, Note_on_c, 4, 69, 91
1, 67506, Note_on_c, 3, 64, 127
1, 67506, Note_on_c, 6, 60, 88
1, 67506, Note_on_c, 1, 31, 118
1, 67506, Note_on_c, 4, 81, 88
1, 67506, Note_on_c, 6, 55, 83
1, 67506, Note_on_c, 5, 69, 104
1, 67506, Note_on_c, 9, 42, 70
1, 67506, Note_on_c, 0, 60, 88
1, 67506, Note_on_c, 0, 64, 94
1, 67506, Note_on_c, 2, 79, 58
1, 67506, Note_on_c, 0, 69, 100
1, 67506, Note_on_c, 4, 79, 0
1, 67506, Note_on_c, 4, 67, 0
1, 67518, Note_on_c, 9, 42, 0
1, 67552, Pitch_bend_c, 3, 1856
1, 67560, Note_on_c, 2, 79, 0
1, 67570, Pitch_bend_c, 3, 3744
1, 67584, Pitch_bend_c, 3, 5856
1, 67598, Pitch_bend_c, 3, 7552
1, 67610, Pitch_bend_c, 3, 8000
1, 67616, Pitch_bend_c, 3, 8192
1, 67658, Note_on_c, 1, 31, 0
1, 67698, Note_on_c, 2, 79, 98
1, 67698, Note_on_c, 9, 35, 107
1, 67698, Note_on_c, 2, 84, 95
1, 67698, Note_on_c, 2, 88, 95
1, 67698, Note_on_c, 9, 42, 80
1, 67698, Note_on_c, 6, 60, 102
1, 67698, Note_on_c, 6, 55, 97
1, 67698, Note_on_c, 0, 43, 100
1, 67698, Note_on_c, 6, 62, 102
1, 67698, Note_on_c, 1, 31, 106
1, 67708, Note_on_c, 6, 62, 0
1, 67708, Note_on_c, 6, 55, 0
1, 67708, Note_on_c, 6, 60, 0
1, 67710, Note_on_c, 9, 42, 0
1, 67710, Note_on_c, 9, 35, 0
1, 67736, Note_on_c, 0, 69, 0
1, 67744, Note_on_c, 0, 64, 0
1, 67746, Note_on_c, 0, 60, 0
1, 67798, Note_on_c, 5, 69, 0
1, 67820, Note_on_c, 3, 64, 0
1, 67832, Note_on_c, 2, 79, 0
1, 67846, Note_on_c, 2, 84, 0
1, 67854, Note_on_c, 2, 88, 0
1, 67864, Note_on_c, 1, 31, 0
1, 67890, Note_on_c, 0, 62, 97
1, 67890, Note_on_c, 6, 55, 91
1, 67890, Note_on_c, 6, 62, 95
1, 67890, Note_on_c, 9, 42, 70
1, 67890, Note_on_c, 0, 59, 94
1, 67890, Note_on_c, 2, 79, 60
1, 67890, Note_on_c, 9, 35, 96
1, 67890, Note_on_c, 1, 35, 110
1, 67890, Note_on_c, 0, 67, 94
1, 67890, Note_on_c, 3, 62, 114
1, 67890, Note_on_c, 5, 67, 107
1, 67890, Note_on_c, 6, 60, 91
1, 67900, Note_on_c, 6, 60, 0
1, 67900, Note_on_c, 6, 62, 0
1, 67900, Note_on_c, 6, 55, 0
1, 67902, Note_on_c, 9, 42, 0
1, 67902, Note_on_c, 9, 35, 0
1, 67936, Note_on_c, 2, 79, 0
1, 67954, Note_on_c, 0, 62, 0
1, 67954, Note_on_c, 3, 62, 0
1, 67958, Note_on_c, 5, 67, 0
1, 67964, Note_on_c, 0, 67, 0
1, 67968, Note_on_c, 0, 59, 0
1, 68044, Note_on_c, 1, 35, 0
1, 68058, Control_c, 3, 1, 1
1, 68064, Control_c, 3, 1, 8
1, 68082, Note_on_c, 1, 38, 110
1, 68082, Note_on_c, 4, 67, 95
1, 68082, Note_on_c, 2, 84, 99
1, 68082, Note_on_c, 0, 62, 120
1, 68082, Note_on_c, 9, 42, 86
1, 68082, Note_on_c, 3, 62, 127
1, 68082, Note_on_c, 2, 88, 95
1, 68082, Note_on_c, 9, 40, 120
1, 68082, Note_on_c, 9, 54, 102
1, 68082, Note_on_c, 5, 67, 111
1, 68082, Note_on_c, 4, 79, 80
1, 68082, Note_on_c, 0, 67, 114
1, 68082, Note_on_c, 2, 79, 99
1, 68082, Note_on_c, 6, 50, 110
1, 68082, Note_on_c, 6, 43, 110
1, 68082, Note_on_c, 0, 59, 114
1, 68082, Note_on_c, 4, 81, 0
1, 68082, Note_on_c, 4, 69, 0
1, 68086, Control_c, 3, 1, 15
1, 68092, Note_on_c, 6, 62, 0
1, 68092, Note_on_c, 6, 60, 0
1, 68092, Note_on_c, 6, 55, 0
1, 68094, Note_on_c, 9, 42, 0
1, 68094, Note_on_c, 9, 54, 0
1, 68094, Note_on_c, 9, 40, 0
1, 68102, Control_c, 3, 1, 29
1, 68120, Control_c, 3, 1, 38
1, 68120, Note_on_c, 0, 43, 0
1, 68140, Control_c, 3, 1, 44
1, 68140, Note_on_c, 6, 43, 0
1, 68140, Note_on_c, 6, 50, 0
1, 68160, Control_c, 3, 1, 44
1, 68172, Control_c, 3, 1, 34
1, 68188, Note_on_c, 2, 79, 0
1, 68192, Control_c, 3, 1, 25
1, 68212, Control_c, 3, 1, 19
1, 68216, Note_on_c, 2, 84, 0
1, 68222, Note_on_c, 0, 62, 0
1, 68224, Note_on_c, 5, 67, 0
1, 68224, Note_on_c, 2, 88, 0
1, 68226, Control_c, 3, 1, 10
1, 68228, Note_on_c, 0, 67, 0
1, 68236, Note_on_c, 3, 62, 0
1, 68244, Control_c, 3, 1, 4
1, 68252, Note_on_c, 0, 59, 0
1, 68258, Note_on_c, 1, 38, 0
1, 68266, Control_c, 3, 1, 0
1, 68274, Note_on_c, 9, 42, 69
1, 68274, Note_on_c, 2, 79, 70
1, 68274, Note_on_c, 6, 59, 87
1, 68274, Note_on_c, 1, 31, 109
1, 68274, Note_on_c, 6, 62, 86
1, 68274, Note_on_c, 3, 60, 110
1, 68274, Note_on_c, 6, 55, 80
1, 68274, Note_on_c, 5, 64, 100
1, 68274, Note_on_c, 0, 43, 110
1, 68286, Note_on_c, 9, 42, 0
1, 68318, Note_on_c, 2, 79, 0
1, 68340, Note_on_c, 5, 64, 0
1, 68344, Note_on_c, 3, 60, 0
1, 68374, Note_on_c, 0, 43, 0
1, 68440, Note_on_c, 1, 31, 0
1, 68466, Note_on_c, 9, 35, 106
1, 68466, Note_on_c, 2, 79, 101
1, 68466, Note_on_c, 1, 35, 107
1, 68466, Note_on_c, 9, 42, 84
1, 68466, Note_on_c, 2, 86, 98
1, 68466, Note_on_c, 0, 59, 99
1, 68466, Note_on_c, 2, 83, 102
1, 68466, Note_on_c, 6, 55, 102
1, 68466, Note_on_c, 3, 62, 127
1, 68466, Note_on_c, 6, 59, 111
1, 68466, Note_on_c, 5, 67, 115
1, 68466, Note_on_c, 6, 62, 110
1, 68466, Note_on_c, 0, 62, 109
1, 68466, Note_on_c, 0, 67, 100
1, 68474, Control_c, 3, 1, 1
1, 68476, Note_on_c, 6, 62, 0
1, 68476, Note_on_c, 6, 59, 0
1, 68476, Note_on_c, 6, 55, 0
1, 68478, Note_on_c, 9, 35, 0
1, 68478, Note_on_c, 9, 42, 0
1, 68482, Control_c, 3, 1, 14
1, 68502, Control_c, 3, 1, 26
1, 68516, Control_c, 3, 1, 41
1, 68532, Note_on_c, 0, 62, 0
1, 68536, Control_c, 3, 1, 49
1, 68536, Note_on_c, 0, 67, 0
1, 68538, Note_on_c, 0, 59, 0
1, 68554, Control_c, 3, 1, 51
1, 68556, Note_on_c, 5, 67, 0
1, 68568, Control_c, 3, 1, 52
1, 68600, Control_c, 3, 1, 51
1, 68606, Control_c, 3, 1, 47
1, 68608, Note_on_c, 2, 83, 0
1, 68616, Note_on_c, 2, 86, 0
1, 68622, Control_c, 3, 1, 32
1, 68624, Note_on_c, 1, 35, 0
1, 68626, Note_on_c, 2, 79, 0
1, 68640, Control_c, 3, 1, 12
1, 68658, Note_on_c, 6, 55, 94
1, 68658, Note_on_c, 1, 38, 106
1, 68658, Note_on_c, 0, 62, 120
1, 68658, Note_on_c, 6, 59, 103
1, 68658, Note_on_c, 0, 59, 120
1, 68658, Note_on_c, 9, 42, 71
1, 68658, Note_on_c, 9, 35, 99
1, 68658, Note_on_c, 6, 62, 102
1, 68658, Note_on_c, 0, 67, 107
1, 68660, Control_c, 3, 1, 0
1, 68668, Note_on_c, 6, 62, 0
1, 68668, Note_on_c, 6, 55, 0
1, 68668, Note_on_c, 6, 59, 0
1, 68670, Note_on_c, 9, 42, 0
1, 68670, Note_on_c, 9, 35, 0
1, 68674, Note_on_c, 3, 62, 0
1, 68832, Note_on_c, 1, 38, 0
1, 68850, Note_on_c, 9, 42, 90
1, 68850, Note_on_c, 1, 31, 107
1, 68850, Note_on_c, 2, 79, 103
1, 68850, Note_on_c, 6, 50, 110
1, 68850, Note_on_c, 6, 43, 110
1, 68850, Note_on_c, 2, 86, 102
1, 68850, Note_on_c, 0, 43, 110
1, 68850, Note_on_c, 2, 83, 103
1, 68850, Note_on_c, 9, 40, 122
1, 68850, Note_on_c, 9, 54, 110
1, 68860, Note_on_c, 6, 55, 0
1, 68860, Note_on_c, 6, 62, 0
1, 68860, Note_on_c, 6, 59, 0
1, 68862, Note_on_c, 9, 54, 0
1, 68862, Note_on_c, 9, 42, 0
1, 68862, Note_on_c, 9, 40, 0
1, 68870, Note_on_c, 0, 62, 0
1, 68880, Note_on_c, 0, 67, 0
1, 68894, Note_on_c, 0, 59, 0
1, 68908, Note_on_c, 6, 50, 0
1, 68908, Note_on_c, 6, 43, 0
1, 68956, Note_on_c, 0, 43, 0
1, 68980, Note_on_c, 2, 86, 0
1, 68980, Note_on_c, 2, 79, 0
1, 68984, Note_on_c, 2, 83, 0
1, 69042, Note_on_c, 9, 42, 74
1, 69042, Note_on_c, 6, 55, 64
1, 69042, Note_on_c, 0, 43, 89
1, 69042, Note_on_c, 6, 59, 77
1, 69042, Note_on_c, 1, 35, 105
1, 69042, Note_on_c, 6, 62, 72
1, 69042, Note_on_c, 1, 31, 0
1, 69054, Note_on_c, 9, 42, 0
1, 69110, Note_on_c, 0, 43, 0
1, 69168, Note_on_c, 1, 35, 0
1, 69234, Note_on_c, 6, 56, 113
1, 69234, Note_on_c, 6, 64, 113
1, 69234, Note_on_c, 4, 80, 90
1, 69234, Note_on_c, 5, 64, 120
1, 69234, Note_on_c, 0, 40, 123
1, 69234, Note_on_c, 5, 76, 118
1, 69234, Note_on_c, 1, 28, 120
1, 69234, Note_on_c, 2, 80, 111
1, 69234, Note_on_c, 9, 40, 117
1, 69234, Note_on_c, 2, 83, 122
1, 69234, Note_on_c, 2, 88, 115
1, 69234, Note_on_c, 6, 59, 123
1, 69234, Note_on_c, 0, 64, 109
1, 69234, Note_on_c, 4, 68, 111
1, 69234, Note_on_c, 0, 56, 105
1, 69234, Note_on_c, 4, 67, 0
1, 69234, Note_on_c, 4, 79, 0
1, 69244, Note_on_c, 6, 59, 0
1, 69244, Note_on_c, 6, 62, 0
1, 69244, Note_on_c, 6, 55, 0
1, 69246, Note_on_c, 9, 40, 0
1, 69356, Note_on_c, 5, 64, 0
1, 69362, Note_on_c, 4, 68, 0
1, 69368, Note_on_c, 2, 80, 0
1, 69368, Note_on_c, 2, 83, 0
1, 69370, Note_on_c, 5, 76, 0
1, 69376, Note_on_c, 4, 80, 0
1, 69382, Pitch_bend_c, 3, 8160
1, 69388, Pitch_bend_c, 3, 6784
1, 69388, Note_on_c, 2, 88, 0
1, 69388, Note_on_c, 6, 59, 0
1, 69396, Note_on_c, 6, 56, 0
1, 69398, Note_on_c, 6, 64, 0
1, 69402, Pitch_bend_c, 3, 4064
1, 69414, Pitch_bend_c, 3, 1856
1, 69426, Note_on_c, 3, 64, 127
1, 69428, Pitch_bend_c, 3, 768
1, 69438, Note_on_c, 1, 28, 0
1, 69442, Pitch_bend_c, 3, 640
1, 69456, Pitch_bend_c, 3, 2336
1, 69474, Pitch_bend_c, 3, 4384
1, 69482, Note_on_c, 0, 56, 0
1, 69486, Pitch_bend_c, 3, 6624
1, 69500, Pitch_bend_c, 3, 8032
1, 69512, Note_on_c, 0, 64, 0
1, 69514, Pitch_bend_c, 3, 8192
1, 69522, Note_on_c, 0, 40, 0
1, 69602, Note_on_c, 3, 64, 0
1, 69618, Note_on_c, 9, 54, 117
1, 69618, Note_on_c, 3, 62, 105
1, 69630, Note_on_c, 9, 54, 0
1, 69690, Note_on_c, 3, 62, 0
1, 69810, Note_on_c, 3, 64, 127
1, 69826, Control_c, 3, 1, 3
1, 69832, Control_c, 3, 1, 13
1, 69846, Control_c, 3, 1, 32
1, 69864, Control_c, 3, 1, 44
1, 69884, Control_c, 3, 1, 50
1, 69904, Control_c, 3, 1, 49
1, 69922, Control_c, 3, 1, 46
1, 69936, Control_c, 3, 1, 44
1, 69962, Control_c, 3, 1, 46
1, 69976, Control_c, 3, 1, 52
1, 69996, Control_c, 3, 1, 53
1, 70012, Control_c, 3, 1, 47
1, 70030, Control_c, 3, 1, 41
1, 70050, Control_c, 3, 1, 39
1, 70088, Control_c, 3, 1, 42
1, 70100, Control_c, 3, 1, 46
1, 70120, Control_c, 3, 1, 47
1, 70134, Control_c, 3, 1, 46
1, 70154, Control_c, 3, 1, 38
1, 70174, Control_c, 3, 1, 34
1, 70190, Control_c, 3, 1, 26
1, 70210, Control_c, 3, 1, 14
1, 70228, Control_c, 3, 1, 5
1, 70246, Control_c, 3, 1, 1
1, 70260, Control_c, 3, 1, 0
1, 70286, Note_on_c, 3, 64, 0
1, 70338, Pitch_bend_c, 3, 6368
1, 70356, Pitch_bend_c, 3, 3360
1, 70372, Pitch_bend_c, 3, 768
1, 70384, Pitch_bend_c, 3, 0
1, 70386, Note_on_c, 0, 62, 116
1, 70386, Note_on_c, 0, 64, 110
1, 70386, Note_on_c, 1, 28, 102
1, 70386, Note_on_c, 0, 56, 112
1, 70386, Note_on_c, 3, 64, 127
1, 70386, Note_on_c, 0, 40, 123
1, 70386, Note_on_c, 9, 54, 115
1, 70386, Note_on_c, 9, 40, 113
1, 70398, Note_on_c, 9, 40, 0
1, 70398, Note_on_c, 9, 54, 0
1, 70438, Pitch_bend_c, 3, 800
1, 70450, Pitch_bend_c, 3, 2592
1, 70464, Pitch_bend_c, 3, 5760
1, 70482, Pitch_bend_c, 3, 7488
1, 70496, Pitch_bend_c, 3, 8096
1, 70510, Pitch_bend_c, 3, 8160
1, 70522, Pitch_bend_c, 3, 8032
1, 70536, Pitch_bend_c, 3, 7776
1, 70548, Pitch_bend_c, 3, 7168
1, 70562, Pitch_bend_c, 3, 5856
1, 70582, Pitch_bend_c, 3, 4736
1, 70594, Pitch_bend_c, 3, 3904
1, 70608, Pitch_bend_c, 3, 3840
1, 70608, Note_on_c, 0, 62, 0
1, 70614, Note_on_c, 3, 64, 0
1, 70616, Note_on_c, 0, 56, 0
1, 70618, Note_on_c, 0, 40, 0
1, 70620, Pitch_bend_c, 3, 4832
1, 70636, Pitch_bend_c, 3, 6752
1, 70646, Note_on_c, 0, 64, 0
1, 70648, Pitch_bend_c, 3, 8032
1, 70660, Note_on_c, 1, 28, 0
1, 70662, Pitch_bend_c, 3, 8192
1, 70770, Note_on_c, 0, 45, 120
1, 70770, Note_on_c, 0, 57, 101
1, 70770, Note_on_c, 9, 42, 92
1, 70770, Note_on_c, 5, 45, 127
1, 70770, Note_on_c, 6, 60, 89
1, 70770, Note_on_c, 6, 52, 93
1, 70770, Note_on_c, 3, 57, 121
1, 70770, Note_on_c, 9, 35, 101
1, 70770, Note_on_c, 5, 52, 125
1, 70770, Note_on_c, 0, 64, 106
1, 70770, Note_on_c, 0, 60, 100
1, 70770, Note_on_c, 1, 45, 124
1, 70770, Note_on_c, 6, 57, 94
1, 70782, Note_on_c, 9, 35, 0
1, 70782, Note_on_c, 9, 42, 0
1, 70868, Note_on_c, 5, 52, 0
1, 70876, Note_on_c, 5, 45, 0
1, 70908, Note_on_c, 3, 57, 0
1, 70944, Note_on_c, 1, 45, 0
1, 70962, Note_on_c, 1, 45, 104
1, 70962, Note_on_c, 3, 57, 116
1, 70962, Note_on_c, 6, 57, 96
1, 70962, Note_on_c, 9, 42, 57
1, 70962, Note_on_c, 9, 35, 85
1, 70962, Note_on_c, 6, 60, 93
1, 70962, Note_on_c, 6, 52, 75
1, 70972, Note_on_c, 6, 52, 0
1, 70972, Note_on_c, 6, 60, 0
1, 70972, Note_on_c, 6, 57, 0
1, 70974, Note_on_c, 9, 42, 0
1, 70974, Note_on_c, 9, 35, 0
1, 70990, Note_on_c, 0, 64, 0
1, 70996, Note_on_c, 0, 60, 0
1, 70996, Note_on_c, 0, 57, 0
1, 71080, Note_on_c, 0, 45, 0
1, 71080, Note_on_c, 3, 57, 0
1, 71154, Note_on_c, 6, 45, 99
1, 71154, Note_on_c, 6, 52, 107
1, 71154, Note_on_c, 0, 57, 107
1, 71154, Note_on_c, 0, 64, 109
1, 71154, Note_on_c, 9, 42, 77
1, 71154, Note_on_c, 9, 40, 114
1, 71154, Note_on_c, 3, 57, 116
1, 71154, Note_on_c, 0, 60, 111
1, 71154, Note_on_c, 9, 54, 115
1, 71164, Note_on_c, 6, 52, 0
1, 71164, Note_on_c, 6, 57, 0
1, 71164, Note_on_c, 6, 60, 0
1, 71166, Note_on_c, 9, 40, 0
1, 71166, Note_on_c, 1, 45, 0
1, 71166, Note_on_c, 9, 42, 0
1, 71166, Note_on_c, 9, 54, 0
1, 71228, Note_on_c, 6, 52, 0
1, 71230, Note_on_c, 6, 45, 0
1, 71248, Note_on_c, 3, 57, 0
1, 71334, Note_on_c, 0, 64, 0
1, 71340, Note_on_c, 0, 60, 0
1, 71346, Note_on_c, 3, 57, 124
1, 71346, Note_on_c, 6, 52, 83
1, 71346, Note_on_c, 6, 60, 91
1, 71346, Note_on_c, 5, 60, 114
1, 71346, Note_on_c, 5, 64, 118
1, 71346, Note_on_c, 6, 57, 91
1, 71346, Note_on_c, 0, 45, 105
1, 71346, Note_on_c, 1, 40, 117
1, 71346, Note_on_c, 9, 42, 61
1, 71346, Note_on_c, 5, 69, 106
1, 71352, Note_on_c, 0, 57, 0
1, 71358, Note_on_c, 9, 42, 0
1, 71414, Note_on_c, 5, 64, 0
1, 71422, Note_on_c, 5, 60, 0
1, 71432, Note_on_c, 0, 45, 0
1, 71442, Note_on_c, 5, 69, 0
1, 71526, Note_on_c, 1, 40, 0
1, 71538, Note_on_c, 0, 57, 81
1, 71538, Note_on_c, 9, 35, 103
1, 71538, Note_on_c, 6, 52, 88
1, 71538, Note_on_c, 6, 60, 96
1, 71538, Note_on_c, 1, 45, 118
1, 71538, Note_on_c, 6, 57, 92
1, 71538, Note_on_c, 9, 42, 76
1, 71538, Note_on_c, 0, 45, 110
1, 71548, Note_on_c, 6, 57, 0
1, 71548, Note_on_c, 6, 60, 0
1, 71548, Note_on_c, 6, 52, 0
1, 71550, Note_on_c, 9, 42, 0
1, 71550, Note_on_c, 9, 35, 0
1, 71588, Note_on_c, 3, 57, 0
1, 71598, Note_on_c, 0, 57, 0
1, 71602, Control_c, 3, 1, 2
1, 71618, Control_c, 3, 1, 4
1, 71630, Control_c, 3, 1, 6
1, 71654, Control_c, 3, 1, 7
1, 71668, Control_c, 3, 1, 8
1, 71704, Note_on_c, 1, 45, 0
1, 71706, Control_c, 3, 1, 9
1, 71720, Control_c, 3, 1, 10
1, 71730, Note_on_c, 0, 64, 111
1, 71730, Note_on_c, 6, 57, 101
1, 71730, Note_on_c, 1, 45, 117
1, 71730, Note_on_c, 6, 52, 91
1, 71730, Note_on_c, 0, 57, 116
1, 71730, Note_on_c, 3, 57, 123
1, 71730, Note_on_c, 0, 60, 113
1, 71730, Note_on_c, 9, 42, 54
1, 71730, Note_on_c, 9, 35, 91
1, 71730, Note_on_c, 6, 60, 101
1, 71736, Control_c, 3, 1, 14
1, 71740, Note_on_c, 6, 60, 0
1, 71740, Note_on_c, 6, 57, 0
1, 71740, Note_on_c, 6, 52, 0
1, 71742, Note_on_c, 9, 42, 0
1, 71742, Note_on_c, 9, 35, 0
1, 71756, Control_c, 3, 1, 18
1, 71766, Note_on_c, 0, 45, 0
1, 71776, Control_c, 3, 1, 23
1, 71796, Control_c, 3, 1, 26
1, 71808, Control_c, 3, 1, 29
1, 71830, Control_c, 3, 1, 31
1, 71846, Note_on_c, 3, 57, 0
1, 71874, Control_c, 3, 1, 32
1, 71880, Control_c, 3, 1, 34
1, 71912, Control_c, 3, 1, 35
1, 71922, Note_on_c, 9, 40, 111
1, 71922, Note_on_c, 6, 52, 107
1, 71922, Note_on_c, 3, 57, 104
1, 71922, Note_on_c, 9, 42, 82
1, 71922, Note_on_c, 0, 45, 83
1, 71922, Note_on_c, 6, 45, 101
1, 71922, Note_on_c, 9, 54, 113
1, 71924, Control_c, 3, 1, 36
1, 71932, Note_on_c, 6, 52, 0
1, 71932, Note_on_c, 6, 57, 0
1, 71932, Note_on_c, 6, 60, 0
1, 71934, Note_on_c, 9, 40, 0
1, 71934, Note_on_c, 1, 45, 0
1, 71934, Note_on_c, 9, 42, 0
1, 71934, Note_on_c, 9, 54, 0
1, 71944, Control_c, 3, 1, 37
1, 71974, Control_c, 3, 1, 36
1, 71984, Note_on_c, 0, 57, 0
1, 71990, Control_c, 3, 1, 31
1, 71994, Note_on_c, 6, 52, 0
1, 72002, Note_on_c, 6, 45, 0
1, 72006, Note_on_c, 0, 60, 0
1, 72008, Control_c, 3, 1, 27
1, 72008, Note_on_c, 3, 57, 0
1, 72016, Note_on_c, 0, 45, 0
1, 72024, Note_on_c, 0, 64, 0
1, 72028, Control_c, 3, 1, 25
1, 72042, Control_c, 3, 1, 21
1, 72086, Control_c, 3, 1, 25
1, 72098, Control_c, 3, 1, 29
1, 72114, Note_on_c, 0, 57, 81
1, 72114, Note_on_c, 6, 53, 80
1, 72114, Note_on_c, 3, 60, 125
1, 72114, Note_on_c, 9, 42, 58
1, 72114, Note_on_c, 0, 45, 96
1, 72114, Note_on_c, 1, 40, 114
1, 72114, Note_on_c, 6, 57, 87
1, 72114, Note_on_c, 6, 60, 87
1, 72118, Control_c, 3, 1, 31
1, 72126, Note_on_c, 9, 42, 0
1, 72138, Control_c, 3, 1, 33
1, 72150, Control_c, 3, 1, 35
1, 72172, Control_c, 3, 1, 37
1, 72180, Note_on_c, 0, 57, 0
1, 72190, Control_c, 3, 1, 39
1, 72204, Note_on_c, 0, 45, 0
1, 72228, Control_c, 3, 1, 41
1, 72240, Control_c, 3, 1, 42
1, 72280, Control_c, 3, 1, 40
1, 72294, Control_c, 3, 1, 36
1, 72298, Note_on_c, 1, 40, 0
1, 72306, Note_on_c, 6, 57, 93
1, 72306, Note_on_c, 0, 41, 101
1, 72306, Note_on_c, 5, 53, 127
1, 72306, Note_on_c, 6, 53, 87
1, 72306, Note_on_c, 6, 60, 84
1, 72306, Note_on_c, 0, 60, 114
1, 72306, Note_on_c, 0, 57, 118
1, 72306, Note_on_c, 5, 45, 121
1, 72306, Note_on_c, 9, 42, 77
1, 72306, Note_on_c, 9, 35, 103
1, 72306, Note_on_c, 0, 65, 106
1, 72306, Note_on_c, 1, 41, 114
1, 72316, Note_on_c, 6, 60, 0
1, 72316, Note_on_c, 6, 53, 0
1, 72316, Note_on_c, 6, 57, 0
1, 72318, Note_on_c, 9, 35, 0
1, 72318, Note_on_c, 9, 42, 0
1, 72330, Control_c, 3, 1, 38
1, 72350, Control_c, 3, 1, 40
1, 72370, Control_c, 3, 1, 43
1, 72388, Control_c, 3, 1, 47
1, 72408, Control_c, 3, 1, 50
1, 72412, Note_on_c, 3, 60, 0
1, 72414, Note_on_c, 5, 45, 0
1, 72422, Note_on_c, 0, 41, 0
1, 72424, Note_on_c, 5, 53, 0
1, 72432, Control_c, 3, 1, 49
1, 72442, Control_c, 3, 1, 34
1, 72460, Control_c, 3, 1, 22
1, 72466, Note_on_c, 0, 57, 0
1, 72474, Control_c, 3, 1, 6
1, 72480, Note_on_c, 1, 41, 0
1, 72492, Control_c, 3, 1, 0
1, 72498, Note_on_c, 0, 57, 87
1, 72498, Note_on_c, 9, 42, 69
1, 72498, Note_on_c, 3, 57, 112
1, 72498, Note_on_c, 9, 35, 91
1, 72498, Note_on_c, 1, 41, 99
1, 72498, Note_on_c, 6, 57, 88
1, 72498, Note_on_c, 6, 53, 83
1, 72498, Note_on_c, 6, 60, 88
1, 72508, Note_on_c, 6, 60, 0
1, 72508, Note_on_c, 6, 53, 0
1, 72508, Note_on_c, 6, 57, 0
1, 72510, Note_on_c, 9, 35, 0
1, 72510, Note_on_c, 9, 42, 0
1, 72586, Note_on_c, 3, 57, 0
1, 72632, Note_on_c, 0, 60, 0
1, 72660, Note_on_c, 0, 65, 0
1, 72664, Note_on_c, 0, 57, 0
1, 72690, Note_on_c, 9, 54, 115
1, 72690, Note_on_c, 6, 48, 107
1, 72690, Note_on_c, 9, 42, 96
1, 72690, Note_on_c, 6, 41, 101
1, 72690, Note_on_c, 0, 41, 106
1, 72690, Note_on_c, 9, 40, 120
1, 72700, Note_on_c, 6, 57, 0
1, 72700, Note_on_c, 6, 53, 0
1, 72700, Note_on_c, 6, 60, 0
1, 72702, Note_on_c, 9, 54, 0
1, 72702, Note_on_c, 9, 40, 0
1, 72702, Note_on_c, 9, 42, 0
1, 72730, Note_on_c, 1, 41, 0
1, 72762, Note_on_c, 6, 48, 0
1, 72770, Note_on_c, 6, 41, 0
1, 72882, Note_on_c, 0, 60, 116
1, 72882, Note_on_c, 6, 53, 89
1, 72882, Note_on_c, 6, 57, 97
1, 72882, Note_on_c, 0, 57, 118
1, 72882, Note_on_c, 5, 69, 122
1, 72882, Note_on_c, 5, 60, 114
1, 72882, Note_on_c, 0, 65, 107
1, 72882, Note_on_c, 1, 36, 115
1, 72882, Note_on_c, 9, 42, 66
1, 72882, Note_on_c, 5, 65, 122
1, 72882, Note_on_c, 6, 60, 97
1, 72894, Note_on_c, 9, 42, 0
1, 72910, Note_on_c, 0, 41, 0
1, 72954, Note_on_c, 5, 65, 0
1, 72958, Note_on_c, 5, 60, 0
1, 72970, Note_on_c, 5, 69, 0
1, 73058, Note_on_c, 1, 36, 0
1, 73074, Note_on_c, 6, 60, 99
1, 73074, Note_on_c, 6, 57, 96
1, 73074, Note_on_c, 9, 42, 86
1, 73074, Note_on_c, 9, 35, 109
1, 73074, Note_on_c, 0, 41, 99
1, 73074, Note_on_c, 1, 41, 117
1, 73074, Note_on_c, 6, 53, 88
1, 73084, Note_on_c, 6, 53, 0
1, 73084, Note_on_c, 6, 60, 0
1, 73084, Note_on_c, 6, 57, 0
1, 73086, Note_on_c, 9, 42, 0
1, 73086, Note_on_c, 9, 35, 0
1, 73140, Note_on_c, 0, 57, 0
1, 73254, Note_on_c, 1, 41, 0
1, 73266, Note_on_c, 9, 35, 89
1, 73266, Note_on_c, 9, 42, 77
1, 73266, Note_on_c, 6, 60, 97
1, 73266, Note_on_c, 6, 53, 89
1, 73266, Note_on_c, 6, 57, 96
1, 73266, Note_on_c, 0, 57, 100
1, 73266, Note_on_c, 1, 41, 104
1, 73276, Note_on_c, 6, 57, 0
1, 73276, Note_on_c, 6, 53, 0
1, 73276, Note_on_c, 6, 60, 0
1, 73278, Note_on_c, 9, 35, 0
1, 73278, Note_on_c, 9, 42, 0
1, 73330, Note_on_c, 0, 60, 0
1, 73338, Note_on_c, 0, 65, 0
1, 73390, Note_on_c, 0, 57, 0
1, 73454, Note_on_c, 1, 41, 0
1, 73458, Note_on_c, 9, 42, 91
1, 73458, Note_on_c, 6, 48, 107
1, 73458, Note_on_c, 6, 41, 101
1, 73458, Note_on_c, 0, 65, 105
1, 73458, Note_on_c, 0, 57, 114
1, 73458, Note_on_c, 9, 40, 124
1, 73458, Note_on_c, 0, 60, 110
1, 73458, Note_on_c, 9, 54, 113
1, 73466, Note_on_c, 0, 41, 0
1, 73468, Note_on_c, 6, 53, 0
1, 73468, Note_on_c, 6, 57, 0
1, 73468, Note_on_c, 6, 60, 0
1, 73470, Note_on_c, 9, 40, 0
1, 73470, Note_on_c, 9, 42, 0
1, 73470, Note_on_c, 9, 54, 0
1, 73530, Note_on_c, 6, 48, 0
1, 73538, Note_on_c, 6, 41, 0
1, 73598, Pitch_bend_c, 3, 8160
1, 73604, Pitch_bend_c, 3, 7008
1, 73616, Pitch_bend_c, 3, 4960
1, 73628, Pitch_bend_c, 3, 2624
1, 73644, Note_on_c, 0, 57, 0
1, 73648, Pitch_bend_c, 3, 2304
1, 73648, Note_on_c, 0, 60, 0
1, 73650, Note_on_c, 9, 42, 70
1, 73650, Note_on_c, 3, 60, 127
1, 73650, Note_on_c, 1, 38, 118
1, 73650, Note_on_c, 6, 53, 77
1, 73650, Note_on_c, 0, 41, 105
1, 73650, Note_on_c, 6, 60, 76
1, 73650, Note_on_c, 6, 57, 79
1, 73662, Pitch_bend_c, 3, 3040
1, 73662, Note_on_c, 9, 42, 0
1, 73674, Pitch_bend_c, 3, 4736
1, 73688, Pitch_bend_c, 3, 6720
1, 73700, Pitch_bend_c, 3, 7936
1, 73712, Pitch_bend_c, 3, 8192
1, 73720, Note_on_c, 0, 65, 0
1, 73770, Note_on_c, 0, 41, 0
1, 73808, Note_on_c, 1, 38, 0
1, 73842, Note_on_c, 0, 67, 125
1, 73842, Note_on_c, 0, 62, 123
1, 73842, Note_on_c, 5, 43, 118
1, 73842, Note_on_c, 1, 43, 117
1, 73842, Note_on_c, 5, 50, 116
1, 73842, Note_on_c, 9, 42, 80
1, 73842, Note_on_c, 0, 43, 125
1, 73842, Note_on_c, 6, 55, 85
1, 73842, Note_on_c, 4, 72, 114
1, 73842, Note_on_c, 6, 59, 92
1, 73842, Note_on_c, 9, 35, 107
1, 73842, Note_on_c, 0, 59, 110
1, 73842, Note_on_c, 6, 62, 100
1, 73852, Note_on_c, 6, 53, 0
1, 73852, Note_on_c, 6, 57, 0
1, 73852, Note_on_c, 6, 60, 0
1, 73854, Note_on_c, 9, 42, 0
1, 73854, Note_on_c, 9, 35, 0
1, 73870, Note_on_c, 3, 60, 0
1, 73950, Note_on_c, 0, 59, 0
1, 73964, Note_on_c, 5, 43, 0
1, 73984, Note_on_c, 5, 50, 0
1, 74008, Note_on_c, 1, 43, 0
1, 74034, Note_on_c, 6, 55, 97
1, 74034, Note_on_c, 0, 59, 97
1, 74034, Note_on_c, 6, 59, 99
1, 74034, Note_on_c, 9, 42, 70
1, 74034, Note_on_c, 3, 60, 120
1, 74034, Note_on_c, 1, 43, 106
1, 74034, Note_on_c, 9, 35, 96
1, 74034, Note_on_c, 6, 62, 101
1, 74044, Note_on_c, 6, 62, 0
1, 74044, Note_on_c, 6, 55, 0
1, 74044, Note_on_c, 6, 59, 0
1, 74046, Note_on_c, 9, 42, 0
1, 74046, Note_on_c, 9, 35, 0
1, 74080, Control_c, 3, 1, 2
1, 74090, Note_on_c, 0, 62, 0
1, 74090, Note_on_c, 0, 67, 0
1, 74112, Control_c, 3, 1, 0
1, 74124, Note_on_c, 0, 59, 0
1, 74182, Control_c, 3, 1, 1
1, 74188, Control_c, 3, 1, 2
1, 74188, Note_on_c, 3, 60, 0
1, 74202, Control_c, 3, 1, 3
1, 74226, Note_on_c, 0, 67, 120
1, 74226, Note_on_c, 6, 43, 101
1, 74226, Note_on_c, 3, 60, 119
1, 74226, Note_on_c, 9, 40, 120
1, 74226, Note_on_c, 0, 62, 118
1, 74226, Note_on_c, 9, 42, 86
1, 74226, Note_on_c, 6, 50, 107
1, 74226, Note_on_c, 0, 59, 116
1, 74226, Note_on_c, 9, 54, 113
1, 74230, Control_c, 3, 1, 4
1, 74236, Note_on_c, 6, 55, 0
1, 74236, Note_on_c, 6, 62, 0
1, 74236, Note_on_c, 1, 43, 0
1, 74236, Note_on_c, 6, 59, 0
1, 74238, Note_on_c, 9, 40, 0
1, 74238, Note_on_c, 9, 42, 0
1, 74238, Note_on_c, 9, 54, 0
1, 74242, Control_c, 3, 1, 6
1, 74262, Control_c, 3, 1, 9
1, 74270, Note_on_c, 0, 43, 0
1, 74280, Control_c, 3, 1, 11
1, 74296, Control_c, 3, 1, 12
1, 74298, Note_on_c, 6, 50, 0
1, 74306, Note_on_c, 6, 43, 0
1, 74312, Control_c, 3, 1, 15
1, 74332, Control_c, 3, 1, 17
1, 74352, Control_c, 3, 1, 19
1, 74366, Control_c, 3, 1, 22
1, 74368, Note_on_c, 3, 60, 0
1, 74410, Control_c, 3, 1, 20
1, 74418, Note_on_c, 5, 59, 113
1, 74418, Note_on_c, 0, 43, 109
1, 74418, Note_on_c, 9, 42, 69
1, 74418, Note_on_c, 6, 55, 77
1, 74418, Note_on_c, 5, 67, 115
1, 74418, Note_on_c, 5, 62, 124
1, 74418, Note_on_c, 6, 62, 67
1, 74418, Note_on_c, 6, 59, 77
1, 74418, Note_on_c, 1, 38, 115
1, 74418, Note_on_c, 3, 60, 125
1, 74424, Control_c, 3, 1, 17
1, 74430, Note_on_c, 9, 42, 0
1, 74430, Note_on_c, 0, 59, 0
1, 74438, Note_on_c, 0, 62, 0
1, 74442, Control_c, 3, 1, 19
1, 74448, Note_on_c, 0, 67, 0
1, 74456, Control_c, 3, 1, 21
1, 74474, Control_c, 3, 1, 23
1, 74490, Note_on_c, 5, 62, 0
1, 74496, Note_on_c, 5, 59, 0
1, 74518, Note_on_c, 5, 67, 0
1, 74544, Control_c, 3, 1, 26
1, 74564, Control_c, 3, 1, 28
1, 74586, Note_on_c, 1, 38, 0
1, 74590, Control_c, 3, 1, 29
1, 74602, Control_c, 3, 1, 30
1, 74610, Note_on_c, 0, 67, 103
1, 74610, Note_on_c, 4, 71, 114
1, 74610, Note_on_c, 9, 42, 84
1, 74610, Note_on_c, 6, 55, 92
1, 74610, Note_on_c, 0, 59, 93
1, 74610, Note_on_c, 6, 59, 97
1, 74610, Note_on_c, 1, 43, 117
1, 74610, Note_on_c, 0, 62, 101
1, 74610, Note_on_c, 9, 35, 106
1, 74610, Note_on_c, 6, 62, 96
1, 74614, Note_on_c, 4, 72, 0
1, 74620, Note_on_c, 6, 62, 0
1, 74620, Note_on_c, 6, 55, 0
1, 74620, Note_on_c, 6, 59, 0
1, 74622, Note_on_c, 9, 42, 0
1, 74622, Note_on_c, 9, 35, 0
1, 74624, Control_c, 3, 1, 27
1, 74634, Note_on_c, 3, 60, 0
1, 74654, Control_c, 3, 1, 31
1, 74660, Note_on_c, 0, 62, 0
1, 74662, Note_on_c, 0, 59, 0
1, 74666, Note_on_c, 0, 67, 0
1, 74672, Control_c, 3, 1, 33
1, 74694, Control_c, 3, 1, 34
1, 74728, Control_c, 3, 1, 35
1, 74752, Control_c, 3, 1, 36
1, 74788, Note_on_c, 1, 43, 0
1, 74802, Note_on_c, 9, 42, 71
1, 74802, Note_on_c, 0, 67, 118
1, 74802, Note_on_c, 6, 62, 105
1, 74802, Note_on_c, 1, 43, 107
1, 74802, Note_on_c, 6, 59, 102
1, 74802, Note_on_c, 0, 59, 110
1, 74802, Note_on_c, 6, 55, 98
1, 74802, Note_on_c, 0, 62, 120
1, 74802, Note_on_c, 9, 35, 99
1, 74802, Note_on_c, 3, 60, 120
1, 74812, Note_on_c, 6, 55, 0
1, 74812, Note_on_c, 6, 62, 0
1, 74812, Note_on_c, 6, 59, 0
1, 74814, Note_on_c, 9, 42, 0
1, 74814, Note_on_c, 9, 35, 0
1, 74828, Control_c, 3, 1, 35
1, 74850, Control_c, 3, 1, 38
1, 74866, Note_on_c, 0, 43, 0
1, 74868, Control_c, 3, 1, 39
1, 74886, Control_c, 3, 1, 37
1, 74920, Control_c, 3, 1, 38
1, 74926, Control_c, 3, 1, 41
1, 74930, Note_on_c, 3, 60, 0
1, 74952, Control_c, 3, 1, 42
1, 74972, Control_c, 3, 1, 43
1, 74984, Control_c, 3, 1, 44
1, 74994, Note_on_c, 6, 43, 101
1, 74994, Note_on_c, 3, 60, 121
1, 74994, Note_on_c, 6, 50, 107
1, 74994, Note_on_c, 0, 43, 100
1, 74994, Note_on_c, 9, 42, 90
1, 74994, Note_on_c, 9, 40, 122
1, 74994, Note_on_c, 9, 54, 117
1, 74998, Control_c, 3, 1, 38
1, 75004, Note_on_c, 6, 62, 0
1, 75004, Note_on_c, 6, 55, 0
1, 75004, Note_on_c, 6, 59, 0
1, 75006, Note_on_c, 9, 40, 0
1, 75006, Note_on_c, 9, 42, 0
1, 75006, Note_on_c, 9, 54, 0
1, 75012, Control_c, 3, 1, 16
1, 75028, Note_on_c, 1, 43, 0
1, 75030, Note_on_c, 0, 67, 0
1, 75034, Control_c, 3, 1, 6
1, 75042, Note_on_c, 0, 62, 0
1, 75050, Control_c, 3, 1, 0
1, 75052, Note_on_c, 0, 59, 0
1, 75066, Note_on_c, 6, 50, 0
1, 75074, Note_on_c, 6, 43, 0
1, 75108, Note_on_c, 3, 60, 0
1, 75144, Pitch_bend_c, 3, 7776
1, 75156, Pitch_bend_c, 3, 6112
1, 75156, Note_on_c, 0, 43, 0
1, 75168, Pitch_bend_c, 3, 3968
1, 75182, Pitch_bend_c, 3, 2368
1, 75186, Note_on_c, 0, 62, 111
1, 75186, Note_on_c, 6, 55, 72
1, 75186, Note_on_c, 0, 57, 106
1, 75186, Note_on_c, 6, 62, 69
1, 75186, Note_on_c, 3, 60, 121
1, 75186, Note_on_c, 9, 42, 74
1, 75186, Note_on_c, 6, 59, 74
1, 75186, Note_on_c, 1, 45, 115
1, 75186, Note_on_c, 0, 66, 108
1, 75198, Note_on_c, 9, 42, 0
1, 75202, Pitch_bend_c, 3, 2464
1, 75216, Pitch_bend_c, 3, 3424
1, 75228, Pitch_bend_c, 3, 4832
1, 75242, Pitch_bend_c, 3, 6272
1, 75254, Pitch_bend_c, 3, 7616
1, 75268, Pitch_bend_c, 3, 8000
1, 75274, Pitch_bend_c, 3, 8192
1, 75322, Note_on_c, 4, 71, 0
1, 75372, Note_on_c, 1, 45, 0
1, 75378, Note_on_c, 1, 38, 113
1, 75378, Note_on_c, 5, 50, 121
1, 75378, Note_on_c, 9, 35, 109
1, 75378, Note_on_c, 6, 62, 91
1, 75378, Note_on_c, 4, 69, 110
1, 75378, Note_on_c, 6, 57, 99
1, 75378, Note_on_c, 6, 54, 84
1, 75378, Note_on_c, 0, 50, 123
1, 75378, Note_on_c, 9, 42, 83
1, 75378, Note_on_c, 5, 55, 123
1, 75388, Note_on_c, 6, 62, 0
1, 75388, Note_on_c, 6, 59, 0
1, 75388, Note_on_c, 6, 55, 0
1, 75390, Note_on_c, 9, 42, 0
1, 75390, Note_on_c, 9, 35, 0
1, 75456, Note_on_c, 3, 60, 0
1, 75472, Note_on_c, 0, 57, 0
1, 75478, Note_on_c, 5, 50, 0
1, 75478, Note_on_c, 5, 55, 0
1, 75548, Note_on_c, 1, 38, 0
1, 75570, Note_on_c, 9, 35, 97
1, 75570, Note_on_c, 6, 57, 109
1, 75570, Note_on_c, 6, 62, 96
1, 75570, Note_on_c, 0, 57, 87
1, 75570, Note_on_c, 6, 54, 92
1, 75570, Note_on_c, 3, 57, 127
1, 75570, Note_on_c, 1, 38, 113
1, 75570, Note_on_c, 9, 42, 72
1, 75580, Note_on_c, 6, 54, 0
1, 75580, Note_on_c, 6, 57, 0
1, 75580, Note_on_c, 6, 62, 0
1, 75582, Note_on_c, 9, 35, 0
1, 75582, Note_on_c, 9, 42, 0
1, 75616, Control_c, 3, 1, 2
1, 75616, Note_on_c, 0, 62, 0
1, 75622, Note_on_c, 0, 66, 0
1, 75624, Control_c, 3, 1, 12
1, 75642, Control_c, 3, 1, 21
1, 75648, Note_on_c, 0, 57, 0
1, 75662, Control_c, 3, 1, 27
1, 75680, Control_c, 3, 1, 31
1, 75698, Control_c, 3, 1, 36
1, 75718, Control_c, 3, 1, 41
1, 75734, Control_c, 3, 1, 48
1, 75752, Control_c, 3, 1, 49
1, 75762, Note_on_c, 6, 45, 101
1, 75762, Note_on_c, 0, 66, 110
1, 75762, Note_on_c, 9, 40, 120
1, 75762, Note_on_c, 0, 57, 113
1, 75762, Note_on_c, 0, 62, 118
1, 75762, Note_on_c, 9, 42, 92
1, 75762, Note_on_c, 9, 54, 115
1, 75762, Note_on_c, 6, 50, 107
1, 75764, Note_on_c, 1, 38, 0
1, 75772, Control_c, 3, 1, 24
1, 75772, Note_on_c, 6, 62, 0
1, 75772, Note_on_c, 6, 57, 0
1, 75772, Note_on_c, 6, 54, 0
1, 75774, Note_on_c, 9, 40, 0
1, 75774, Note_on_c, 9, 42, 0
1, 75774, Note_on_c, 9, 54, 0
1, 75790, Control_c, 3, 1, 2
1, 75802, Note_on_c, 0, 50, 0
1, 75808, Control_c, 3, 1, 0
1, 75834, Note_on_c, 3, 57, 0
1, 75834, Note_on_c, 6, 50, 0
1, 75842, Note_on_c, 6, 45, 0
1, 75954, Note_on_c, 5, 66, 111
1, 75954, Note_on_c, 0, 50, 116
1, 75954, Note_on_c, 9, 42, 73
1, 75954, Note_on_c, 6, 54, 81
1, 75954, Note_on_c, 5, 57, 114
1, 75954, Note_on_c, 6, 62, 85
1, 75954, Note_on_c, 5, 62, 118
1, 75954, Note_on_c, 1, 45, 120
1, 75954, Note_on_c, 6, 57, 84
1, 75966, Note_on_c, 9, 42, 0
1, 75968, Note_on_c, 0, 57, 0
1, 75980, Note_on_c, 0, 62, 0
1, 75980, Note_on_c, 0, 66, 0
1, 76032, Note_on_c, 5, 57, 0
1, 76032, Note_on_c, 5, 62, 0
1, 76034, Note_on_c, 5, 66, 0
1, 76146, Note_on_c, 6, 57, 98
1, 76146, Note_on_c, 0, 57, 113
1, 76146, Note_on_c, 0, 62, 118
1, 76146, Note_on_c, 6, 54, 87
1, 76146, Note_on_c, 6, 62, 95
1, 76146, Note_on_c, 0, 66, 115
1, 76146, Note_on_c, 1, 38, 114
1, 76146, Note_on_c, 9, 42, 77
1, 76146, Note_on_c, 9, 35, 107
1, 76156, Note_on_c, 6, 62, 0
1, 76156, Note_on_c, 6, 54, 0
1, 76156, Note_on_c, 6, 57, 0
1, 76156, Note_on_c, 1, 45, 0
1, 76158, Note_on_c, 9, 42, 0
1, 76158, Note_on_c, 9, 35, 0
1, 76252, Note_on_c, 0, 50, 0
1, 76320, Note_on_c, 1, 38, 0
1, 76338, Note_on_c, 6, 54, 96
1, 76338, Note_on_c, 0, 50, 102
1, 76338, Note_on_c, 1, 38, 115
1, 76338, Note_on_c, 9, 35, 95
1, 76338, Note_on_c, 6, 57, 105
1, 76338, Note_on_c, 6, 62, 102
1, 76338, Note_on_c, 9, 42, 71
1, 76348, Note_on_c, 6, 62, 0
1, 76348, Note_on_c, 6, 57, 0
1, 76348, Note_on_c, 6, 54, 0
1, 76350, Note_on_c, 9, 35, 0
1, 76350, Note_on_c, 9, 42, 0
1, 76422, Note_on_c, 0, 57, 0
1, 76428, Note_on_c, 0, 66, 0
1, 76430, Note_on_c, 0, 62, 0
1, 76530, Note_on_c, 0, 57, 107
1, 76530, Note_on_c, 6, 50, 107
1, 76530, Note_on_c, 9, 40, 127
1, 76530, Note_on_c, 0, 66, 104
1, 76530, Note_on_c, 6, 45, 101
1, 76530, Note_on_c, 0, 62, 109
1, 76530, Note_on_c, 9, 42, 91
1, 76530, Note_on_c, 9, 54, 115
1, 76540, Note_on_c, 6, 54, 0
1, 76540, Note_on_c, 6, 57, 0
1, 76540, Note_on_c, 6, 62, 0
1, 76542, Note_on_c, 9, 40, 0
1, 76542, Note_on_c, 9, 42, 0
1, 76542, Note_on_c, 9, 54, 0
1, 76546, Note_on_c, 0, 50, 0
1, 76560, Note_on_c, 1, 38, 0
1, 76602, Note_on_c, 6, 50, 0
1, 76610, Note_on_c, 6, 45, 0
1, 76624, Note_on_c, 0, 57, 0
1, 76626, Note_on_c, 0, 66, 0
1, 76628, Note_on_c, 0, 62, 0
1, 76668, Note_on_c, 4, 69, 0
1, 76682, Pitch_bend_c, 3, 7392
1, 76690, Pitch_bend_c, 5, 7648
1, 76694, Pitch_bend_c, 3, 5024
1, 76702, Pitch_bend_c, 5, 6368
1, 76708, Pitch_bend_c, 3, 1760
1, 76716, Pitch_bend_c, 5, 4832
1, 76722, Note_on_c, 0, 62, 109
1, 76722, Note_on_c, 3, 64, 125
1, 76722, Note_on_c, 0, 66, 107
1, 76722, Note_on_c, 5, 69, 109
1, 76722, Note_on_c, 6, 62, 85
1, 76722, Note_on_c, 6, 57, 91
1, 76722, Note_on_c, 4, 60, 111
1, 76722, Note_on_c, 1, 40, 114
1, 76722, Note_on_c, 9, 46, 70
1, 76722, Note_on_c, 0, 57, 103
1, 76726, Pitch_bend_c, 3, 1088
1, 76728, Pitch_bend_c, 5, 3904
1, 76734, Note_on_c, 9, 46, 0
1, 76740, Pitch_bend_c, 3, 1216
1, 76744, Pitch_bend_c, 5, 3904
1, 76754, Pitch_bend_c, 3, 2080
1, 76758, Pitch_bend_c, 5, 4736
1, 76766, Pitch_bend_c, 3, 3456
1, 76770, Pitch_bend_c, 5, 6080
1, 76780, Pitch_bend_c, 3, 5024
1, 76784, Pitch_bend_c, 5, 7456
1, 76792, Pitch_bend_c, 3, 6560
1, 76796, Pitch_bend_c, 5, 8160
1, 76806, Pitch_bend_c, 3, 8032
1, 76810, Pitch_bend_c, 5, 8192
1, 76824, Pitch_bend_c, 3, 8192
1, 76832, Note_on_c, 0, 66, 0
1, 76840, Note_on_c, 0, 62, 0
1, 76856, Note_on_c, 0, 57, 0
1, 76868, Note_on_c, 1, 40, 0
1, 76914, Note_on_c, 1, 45, 124
1, 76914, Note_on_c, 0, 64, 102
1, 76914, Note_on_c, 6, 52, 96
1, 76914, Note_on_c, 0, 57, 84
1, 76914, Note_on_c, 0, 60, 105
1, 76914, Note_on_c, 0, 45, 98
1, 76914, Note_on_c, 6, 57, 94
1, 76914, Note_on_c, 6, 60, 95
1, 76914, Note_on_c, 9, 35, 101
1, 76914, Note_on_c, 9, 42, 92
1, 76924, Note_on_c, 6, 57, 0
1, 76924, Note_on_c, 6, 62, 0
1, 76926, Note_on_c, 9, 35, 0
1, 76926, Note_on_c, 9, 42, 0
1, 76992, Note_on_c, 4, 60, 0
1, 77022, Note_on_c, 3, 64, 0
1, 77032, Note_on_c, 5, 69, 0
1, 77088, Note_on_c, 1, 45, 0
1, 77106, Note_on_c, 1, 45, 104
1, 77106, Note_on_c, 4, 60, 102
1, 77106, Note_on_c, 5, 69, 98
1, 77106, Note_on_c, 3, 64, 116
1, 77106, Note_on_c, 6, 52, 87
1, 77106, Note_on_c, 6, 57, 96
1, 77106, Note_on_c, 9, 35, 85
1, 77106, Note_on_c, 9, 42, 57
1, 77106, Note_on_c, 6, 60, 91
1, 77116, Note_on_c, 6, 60, 0
1, 77116, Note_on_c, 6, 57, 0
1, 77116, Note_on_c, 6, 52, 0
1, 77118, Note_on_c, 9, 35, 0
1, 77118, Note_on_c, 9, 42, 0
1, 77162, Note_on_c, 5, 69, 0
1, 77168, Note_on_c, 0, 64, 0
1, 77172, Note_on_c, 0, 57, 0
1, 77176, Note_on_c, 0, 60, 0
1, 77178, Note_on_c, 4, 60, 0
1, 77188, Note_on_c, 3, 64, 0
1, 77236, Pitch_bend_c, 3, 8032
1, 77242, Pitch_bend_c, 3, 6112
1, 77254, Pitch_bend_c, 3, 3040
1, 77268, Pitch_bend_c, 3, 320
1, 77286, Pitch_bend_c, 3, 0
1, 77298, Note_on_c, 0, 57, 113
1, 77298, Note_on_c, 9, 42, 77
1, 77298, Note_on_c, 9, 40, 114
1, 77298, Note_on_c, 9, 54, 113
1, 77298, Note_on_c, 6, 52, 107
1, 77298, Note_on_c, 0, 60, 116
1, 77298, Note_on_c, 6, 45, 101
1, 77298, Note_on_c, 0, 64, 113
1, 77298, Note_on_c, 4, 60, 111
1, 77298, Note_on_c, 3, 64, 127
1, 77298, Note_on_c, 5, 69, 117
1, 77308, Note_on_c, 6, 52, 0
1, 77308, Note_on_c, 6, 57, 0
1, 77308, Note_on_c, 6, 60, 0
1, 77310, Pitch_bend_c, 3, 1536
1, 77310, Note_on_c, 9, 40, 0
1, 77310, Note_on_c, 1, 45, 0
1, 77310, Note_on_c, 9, 54, 0
1, 77310, Note_on_c, 9, 42, 0
1, 77326, Pitch_bend_c, 3, 3040
1, 77334, Note_on_c, 0, 45, 0
1, 77338, Pitch_bend_c, 3, 4512
1, 77352, Pitch_bend_c, 3, 6272
1, 77370, Note_on_c, 6, 52, 0
1, 77372, Pitch_bend_c, 3, 7200
1, 77378, Note_on_c, 6, 45, 0
1, 77386, Pitch_bend_c, 3, 7872
1, 77400, Pitch_bend_c, 3, 8096
1, 77406, Pitch_bend_c, 3, 8192
1, 77424, Note_on_c, 4, 60, 0
1, 77438, Note_on_c, 3, 64, 0
1, 77460, Note_on_c, 5, 69, 0
1, 77490, Note_on_c, 6, 60, 85
1, 77490, Note_on_c, 6, 52, 78
1, 77490, Note_on_c, 6, 57, 87
1, 77490, Note_on_c, 9, 42, 61
1, 77490, Note_on_c, 1, 40, 117
1, 77490, Note_on_c, 5, 69, 73
1, 77490, Note_on_c, 3, 64, 111
1, 77490, Note_on_c, 0, 45, 109
1, 77490, Note_on_c, 4, 60, 98
1, 77502, Note_on_c, 9, 42, 0
1, 77550, Note_on_c, 0, 57, 0
1, 77568, Note_on_c, 5, 69, 0
1, 77570, Note_on_c, 4, 60, 0
1, 77574, Note_on_c, 3, 64, 0
1, 77670, Note_on_c, 1, 40, 0
1, 77682, Note_on_c, 9, 42, 76
1, 77682, Note_on_c, 3, 62, 119
1, 77682, Control_c, 3, 1, 5
1, 77682, Note_on_c, 5, 67, 106
1, 77682, Note_on_c, 4, 59, 107
1, 77682, Note_on_c, 6, 60, 92
1, 77682, Note_on_c, 0, 57, 96
1, 77682, Note_on_c, 6, 57, 91
1, 77682, Note_on_c, 9, 35, 103
1, 77682, Note_on_c, 1, 45, 118
1, 77682, Note_on_c, 6, 52, 91
1, 77692, Note_on_c, 6, 52, 0
1, 77692, Note_on_c, 6, 57, 0
1, 77692, Note_on_c, 6, 60, 0
1, 77694, Control_c, 3, 1, 14
1, 77694, Note_on_c, 9, 42, 0
1, 77694, Note_on_c, 9, 35, 0
1, 77716, Control_c, 3, 1, 25
1, 77716, Note_on_c, 0, 64, 0
1, 77722, Note_on_c, 0, 60, 0
1, 77736, Control_c, 3, 1, 33
1, 77748, Control_c, 3, 1, 44
1, 77766, Note_on_c, 0, 57, 0
1, 77768, Control_c, 3, 1, 51
1, 77786, Control_c, 3, 1, 54
1, 77802, Control_c, 3, 1, 58
1, 77820, Control_c, 3, 1, 61
1, 77824, Note_on_c, 5, 67, 0
1, 77832, Note_on_c, 4, 59, 0
1, 77838, Control_c, 3, 1, 45
1, 77848, Note_on_c, 3, 62, 0
1, 77848, Note_on_c, 1, 45, 0
1, 77858, Control_c, 3, 1, 17
1, 77874, Note_on_c, 4, 57, 106
1, 77874, Note_on_c, 6, 52, 88
1, 77874, Note_on_c, 5, 64, 102
1, 77874, Note_on_c, 9, 42, 54
1, 77874, Note_on_c, 9, 35, 91
1, 77874, Note_on_c, 3, 60, 114
1, 77874, Note_on_c, 0, 64, 118
1, 77874, Note_on_c, 6, 57, 95
1, 77874, Note_on_c, 6, 60, 93
1, 77874, Note_on_c, 1, 45, 117
1, 77874, Note_on_c, 0, 57, 116
1, 77874, Note_on_c, 0, 60, 114
1, 77878, Control_c, 3, 1, 3
1, 77884, Note_on_c, 6, 60, 0
1, 77884, Note_on_c, 6, 57, 0
1, 77884, Note_on_c, 6, 52, 0
1, 77886, Note_on_c, 9, 35, 0
1, 77886, Note_on_c, 9, 42, 0
1, 77892, Control_c, 3, 1, 0
1, 77940, Note_on_c, 3, 60, 0
1, 77950, Note_on_c, 5, 64, 0
1, 77964, Note_on_c, 0, 45, 0
1, 77968, Note_on_c, 4, 57, 0
1, 78066, Note_on_c, 0, 45, 102
1, 78066, Note_on_c, 6, 45, 87
1, 78066, Note_on_c, 9, 40, 111
1, 78066, Note_on_c, 9, 42, 82
1, 78066, Note_on_c, 6, 52, 87
1, 78066, Note_on_c, 9, 54, 115
1, 78076, Note_on_c, 6, 52, 0
1, 78076, Note_on_c, 6, 57, 0
1, 78076, Note_on_c, 6, 60, 0
1, 78078, Note_on_c, 9, 40, 0
1, 78078, Note_on_c, 1, 45, 0
1, 78078, Note_on_c, 9, 42, 0
1, 78078, Note_on_c, 9, 54, 0
1, 78134, Note_on_c, 0, 57, 0
1, 78140, Note_on_c, 6, 45, 0
1, 78140, Note_on_c, 6, 52, 0
1, 78142, Note_on_c, 0, 64, 0
1, 78144, Note_on_c, 0, 60, 0
1, 78164, Pitch_bend_c, 5, 7328
1, 78182, Pitch_bend_c, 4, 7840
1, 78184, Pitch_bend_c, 5, 5600
1, 78196, Pitch_bend_c, 4, 6464
1, 78198, Pitch_bend_c, 5, 3744
1, 78210, Pitch_bend_c, 5, 2432
1, 78210, Pitch_bend_c, 4, 4224
1, 78224, Pitch_bend_c, 5, 1728
1, 78224, Note_on_c, 0, 45, 0
1, 78228, Pitch_bend_c, 4, 3424
1, 78234, Pitch_bend_c, 3, 7616
1, 78242, Pitch_bend_c, 4, 3104
1, 78248, Pitch_bend_c, 3, 4832
1, 78256, Pitch_bend_c, 4, 2976
1, 78258, Note_on_c, 9, 42, 58
1, 78258, Note_on_c, 0, 60, 120
1, 78258, Note_on_c, 0, 57, 114
1, 78258, Note_on_c, 6, 57, 88
1, 78258, Note_on_c, 1, 40, 114
1, 78258, Note_on_c, 6, 52, 87
1, 78258, Note_on_c, 4, 60, 113
1, 78258, Note_on_c, 0, 65, 105
1, 78258, Note_on_c, 6, 60, 85
1, 78258, Note_on_c, 5, 69, 115
1, 78258, Note_on_c, 3, 64, 124
1, 78266, Pitch_bend_c, 3, 3424
1, 78268, Pitch_bend_c, 4, 3200
1, 78270, Note_on_c, 9, 42, 0
1, 78272, Pitch_bend_c, 5, 1888
1, 78280, Pitch_bend_c, 3, 2912
1, 78282, Pitch_bend_c, 4, 3680
1, 78284, Pitch_bend_c, 5, 2272
1, 78294, Pitch_bend_c, 3, 3232
1, 78296, Pitch_bend_c, 4, 4352
1, 78298, Pitch_bend_c, 5, 2816
1, 78306, Pitch_bend_c, 3, 4032
1, 78308, Pitch_bend_c, 4, 5152
1, 78312, Pitch_bend_c, 5, 3648
1, 78320, Pitch_bend_c, 3, 4960
1, 78322, Pitch_bend_c, 4, 6400
1, 78324, Pitch_bend_c, 5, 4672
1, 78332, Pitch_bend_c, 3, 6400
1, 78338, Pitch_bend_c, 5, 6368
1, 78342, Pitch_bend_c, 4, 7072
1, 78352, Pitch_bend_c, 3, 6944
1, 78358, Pitch_bend_c, 5, 7392
1, 78358, Pitch_bend_c, 4, 7392
1, 78364, Pitch_bend_c, 4, 8096
1, 78364, Pitch_bend_c, 3, 7424
1, 78370, Pitch_bend_c, 5, 8032
1, 78378, Pitch_bend_c, 3, 7808
1, 78382, Pitch_bend_c, 5, 8160
1, 78384, Pitch_bend_c, 4, 8192
1, 78388, Pitch_bend_c, 5, 8192
1, 78390, Pitch_bend_c, 3, 8000
1, 78402, Pitch_bend_c, 3, 8160
1, 78416, Pitch_bend_c, 3, 8192
1, 78442, Note_on_c, 1, 40, 0
1, 78450, Note_on_c, 6, 57, 88
1, 78450, Note_on_c, 9, 42, 77
1, 78450, Note_on_c, 6, 53, 91
1, 78450, Note_on_c, 0, 41, 99
1, 78450, Note_on_c, 1, 41, 114
1, 78450, Note_on_c, 9, 35, 103
1, 78450, Note_on_c, 6, 60, 83
1, 78460, Note_on_c, 6, 60, 0
1, 78460, Note_on_c, 6, 57, 0
1, 78460, Note_on_c, 6, 52, 0
1, 78462, Note_on_c, 9, 42, 0
1, 78462, Note_on_c, 9, 35, 0
1, 78518, Note_on_c, 0, 57, 0
1, 78524, Note_on_c, 3, 64, 0
1, 78550, Note_on_c, 4, 60, 0
1, 78556, Note_on_c, 5, 69, 0
1, 78624, Note_on_c, 1, 41, 0
1, 78642, Note_on_c, 3, 64, 114
1, 78642, Note_on_c, 6, 57, 98
1, 78642, Note_on_c, 9, 35, 91
1, 78642, Note_on_c, 6, 53, 91
1, 78642, Note_on_c, 0, 57, 88
1, 78642, Note_on_c, 4, 60, 97
1, 78642, Note_on_c, 1, 41, 99
1, 78642, Note_on_c, 5, 69, 104
1, 78642, Note_on_c, 6, 60, 96
1, 78642, Note_on_c, 9, 42, 69
1, 78652, Note_on_c, 6, 60, 0
1, 78652, Note_on_c, 6, 57, 0
1, 78652, Note_on_c, 6, 53, 0
1, 78654, Note_on_c, 9, 42, 0
1, 78654, Note_on_c, 9, 35, 0
1, 78668, Note_on_c, 0, 65, 0
1, 78674, Note_on_c, 0, 60, 0
1, 78702, Note_on_c, 5, 69, 0
1, 78706, Note_on_c, 4, 60, 0
1, 78714, Note_on_c, 3, 64, 0
1, 78718, Note_on_c, 0, 57, 0
1, 78758, Pitch_bend_c, 3, 7712
1, 78770, Pitch_bend_c, 3, 5888
1, 78784, Pitch_bend_c, 3, 3616
1, 78796, Pitch_bend_c, 3, 1984
1, 78808, Pitch_bend_c, 3, 1056
1, 78822, Pitch_bend_c, 3, 608
1, 78834, Note_on_c, 4, 60, 114
1, 78834, Note_on_c, 9, 42, 96
1, 78834, Note_on_c, 9, 40, 120
1, 78834, Note_on_c, 0, 57, 118
1, 78834, Note_on_c, 0, 65, 106
1, 78834, Note_on_c, 5, 69, 118
1, 78834, Note_on_c, 3, 64, 127
1, 78834, Note_on_c, 0, 60, 116
1, 78834, Note_on_c, 6, 41, 107
1, 78834, Note_on_c, 6, 48, 107
1, 78834, Note_on_c, 9, 54, 115
1, 78836, Pitch_bend_c, 3, 832
1, 78844, Note_on_c, 6, 53, 0
1, 78844, Note_on_c, 6, 57, 0
1, 78844, Note_on_c, 6, 60, 0
1, 78846, Note_on_c, 9, 54, 0
1, 78846, Note_on_c, 9, 40, 0
1, 78846, Note_on_c, 9, 42, 0
1, 78850, Pitch_bend_c, 3, 2080
1, 78868, Pitch_bend_c, 3, 3360
1, 78874, Note_on_c, 1, 41, 0
1, 78882, Pitch_bend_c, 3, 4672
1, 78894, Pitch_bend_c, 3, 6656
1, 78900, Note_on_c, 0, 41, 0
1, 78914, Pitch_bend_c, 3, 7168
1, 78920, Pitch_bend_c, 3, 8160
1, 78922, Note_on_c, 6, 41, 0
1, 78922, Note_on_c, 6, 48, 0
1, 78940, Pitch_bend_c, 3, 8192
1, 78954, Note_on_c, 5, 69, 0
1, 78972, Note_on_c, 4, 60, 0
1, 78982, Note_on_c, 3, 64, 0
1, 79026, Note_on_c, 1, 36, 115
1, 79026, Note_on_c, 4, 60, 97
1, 79026, Note_on_c, 5, 69, 95
1, 79026, Note_on_c, 6, 53, 75
1, 79026, Note_on_c, 0, 41, 110
1, 79026, Note_on_c, 3, 64, 107
1, 79026, Note_on_c, 9, 42, 66
1, 79026, Note_on_c, 6, 60, 73
1, 79026, Note_on_c, 6, 57, 81
1, 79038, Note_on_c, 9, 42, 0
1, 79084, Note_on_c, 0, 57, 0
1, 79090, Note_on_c, 5, 69, 0
1, 79100, Note_on_c, 4, 60, 0
1, 79102, Note_on_c, 3, 64, 0
1, 79124, Note_on_c, 0, 60, 0
1, 79142, Note_on_c, 0, 65, 0
1, 79202, Note_on_c, 1, 36, 0
1, 79218, Note_on_c, 3, 62, 125
1, 79218, Note_on_c, 9, 35, 109
1, 79218, Note_on_c, 1, 41, 117
1, 79218, Note_on_c, 0, 57, 103
1, 79218, Note_on_c, 6, 60, 92
1, 79218, Note_on_c, 0, 60, 76
1, 79218, Note_on_c, 6, 57, 92
1, 79218, Control_c, 3, 1, 3
1, 79218, Note_on_c, 5, 67, 118
1, 79218, Note_on_c, 4, 59, 104
1, 79218, Note_on_c, 9, 42, 86
1, 79218, Note_on_c, 6, 53, 89
1, 79224, Control_c, 3, 1, 16
1, 79228, Note_on_c, 6, 53, 0
1, 79228, Note_on_c, 6, 60, 0
1, 79228, Note_on_c, 6, 57, 0
1, 79230, Note_on_c, 9, 35, 0
1, 79230, Note_on_c, 9, 42, 0
1, 79244, Control_c, 3, 1, 29
1, 79244, Note_on_c, 0, 60, 0
1, 79262, Control_c, 3, 1, 37
1, 79280, Control_c, 3, 1, 39
1, 79294, Note_on_c, 0, 57, 0
1, 79296, Control_c, 3, 1, 41
1, 79314, Control_c, 3, 1, 43
1, 79332, Control_c, 3, 1, 43
1, 79350, Note_on_c, 4, 59, 0
1, 79352, Control_c, 3, 1, 28
1, 79358, Note_on_c, 5, 67, 0
1, 79372, Control_c, 3, 1, 15
1, 79386, Control_c, 3, 1, 1
1, 79386, Note_on_c, 3, 62, 0
1, 79398, Note_on_c, 1, 41, 0
1, 79404, Control_c, 3, 1, 0
1, 79410, Note_on_c, 0, 65, 105
1, 79410, Note_on_c, 3, 60, 115
1, 79410, Note_on_c, 6, 53, 91
1, 79410, Note_on_c, 0, 60, 113
1, 79410, Note_on_c, 1, 41, 104
1, 79410, Note_on_c, 6, 57, 102
1, 79410, Note_on_c, 0, 57, 120
1, 79410, Note_on_c, 6, 60, 99
1, 79410, Note_on_c, 5, 64, 110
1, 79410, Note_on_c, 4, 57, 109
1, 79410, Note_on_c, 9, 35, 89
1, 79410, Note_on_c, 9, 42, 77
1, 79420, Note_on_c, 6, 60, 0
1, 79420, Note_on_c, 6, 53, 0
1, 79420, Note_on_c, 6, 57, 0
1, 79422, Note_on_c, 9, 42, 0
1, 79422, Note_on_c, 9, 35, 0
1, 79442, Note_on_c, 0, 41, 0
1, 79474, Note_on_c, 3, 60, 0
1, 79500, Note_on_c, 5, 64, 0
1, 79506, Note_on_c, 4, 57, 0
1, 79598, Note_on_c, 1, 41, 0
1, 79602, Note_on_c, 9, 54, 113
1, 79602, Note_on_c, 9, 40, 124
1, 79602, Note_on_c, 6, 48, 94
1, 79602, Note_on_c, 0, 41, 110
1, 79602, Note_on_c, 9, 42, 91
1, 79602, Note_on_c, 6, 41, 94
1, 79612, Note_on_c, 6, 60, 0
1, 79612, Note_on_c, 6, 53, 0
1, 79612, Note_on_c, 6, 57, 0
1, 79614, Note_on_c, 9, 40, 0
1, 79614, Note_on_c, 9, 42, 0
1, 79614, Note_on_c, 9, 54, 0
1, 79682, Note_on_c, 6, 48, 0
1, 79682, Note_on_c, 6, 41, 0
1, 79714, Note_on_c, 0, 41, 0
1, 79724, Note_on_c, 0, 57, 0
1, 79726, Note_on_c, 0, 60, 0
1, 79794, Note_on_c, 1, 38, 118
1, 79794, Note_on_c, 0, 41, 102
1, 79794, Note_on_c, 3, 52, 112
1, 79794, Note_on_c, 9, 42, 70
1, 79794, Note_on_c, 6, 59, 73
1, 79794, Note_on_c, 6, 56, 77
1, 79794, Note_on_c, 6, 52, 74
1, 79806, Note_on_c, 9, 42, 0
1, 79846, Note_on_c, 0, 65, 0
1, 79864, Note_on_c, 3, 52, 0
1, 79926, Note_on_c, 0, 41, 0
1, 79952, Note_on_c, 1, 38, 0
1, 79984, Control_c, 3, 1, 11
1, 79986, Note_on_c, 6, 59, 87
1, 79986, Note_on_c, 6, 52, 86
1, 79986, Note_on_c, 6, 56, 84
1, 79986, Note_on_c, 0, 56, 107
1, 79986, Note_on_c, 5, 56, 106
1, 79986, Note_on_c, 0, 62, 106
1, 79986, Note_on_c, 5, 40, 114
1, 79986, Note_on_c, 9, 42, 80
1, 79986, Note_on_c, 5, 64, 101
1, 79986, Note_on_c, 9, 35, 107
1, 79986, Note_on_c, 1, 40, 118
1, 79986, Note_on_c, 0, 64, 100
1, 79986, Note_on_c, 3, 56, 126
1, 79996, Note_on_c, 6, 56, 0
1, 79996, Note_on_c, 6, 59, 0
1, 79996, Note_on_c, 6, 52, 0
1, 79998, Note_on_c, 9, 42, 0
1, 79998, Note_on_c, 9, 35, 0
1, 80002, Control_c, 3, 1, 20
1, 80016, Control_c, 3, 1, 29
1, 80034, Control_c, 3, 1, 34
1, 80074, Control_c, 3, 1, 27
1, 80092, Control_c, 3, 1, 16
1, 80108, Control_c, 3, 1, 2
1, 80126, Control_c, 3, 1, 0
1, 80166, Note_on_c, 3, 56, 0
1, 80168, Note_on_c, 1, 40, 0
1, 80178, Note_on_c, 6, 52, 93
1, 80178, Note_on_c, 0, 40, 110
1, 80178, Note_on_c, 1, 40, 101
1, 80178, Note_on_c, 3, 52, 104
1, 80178, Note_on_c, 6, 56, 97
1, 80178, Note_on_c, 9, 42, 70
1, 80178, Note_on_c, 6, 59, 99
1, 80178, Note_on_c, 9, 35, 96
1, 80188, Note_on_c, 6, 59, 0
1, 80188, Note_on_c, 6, 56, 0
1, 80188, Note_on_c, 6, 52, 0
1, 80190, Note_on_c, 9, 35, 0
1, 80190, Note_on_c, 9, 42, 0
1, 80216, Note_on_c, 0, 56, 0
1, 80218, Note_on_c, 0, 64, 0
1, 80220, Note_on_c, 0, 62, 0
1, 80252, Note_on_c, 3, 52, 0
1, 80370, Note_on_c, 0, 64, 102
1, 80370, Note_on_c, 9, 40, 120
1, 80370, Note_on_c, 9, 42, 86
1, 80370, Note_on_c, 9, 54, 110
1, 80370, Note_on_c, 0, 62, 109
1, 80370, Note_on_c, 6, 47, 103
1, 80370, Note_on_c, 6, 40, 103
1, 80370, Note_on_c, 0, 56, 112
1, 80374, Note_on_c, 0, 40, 0
1, 80380, Note_on_c, 6, 52, 0
1, 80380, Note_on_c, 6, 56, 0
1, 80380, Note_on_c, 6, 59, 0
1, 80382, Note_on_c, 9, 40, 0
1, 80382, Note_on_c, 9, 42, 0
1, 80382, Note_on_c, 9, 54, 0
1, 80416, Note_on_c, 1, 40, 0
1, 80446, Note_on_c, 6, 40, 0
1, 80446, Note_on_c, 6, 47, 0
1, 80562, Note_on_c, 6, 59, 85
1, 80562, Note_on_c, 3, 52, 120
1, 80562, Note_on_c, 1, 35, 113
1, 80562, Note_on_c, 6, 56, 82
1, 80562, Note_on_c, 6, 52, 88
1, 80562, Note_on_c, 9, 42, 69
1, 80562, Note_on_c, 0, 40, 114
1, 80574, Note_on_c, 9, 42, 0
1, 80578, Note_on_c, 0, 62, 0
1, 80578, Note_on_c, 0, 64, 0
1, 80590, Note_on_c, 0, 56, 0
1, 80600, Control_c, 3, 1, 3
1, 80612, Control_c, 3, 1, 9
1, 80632, Control_c, 3, 1, 11
1, 80650, Control_c, 3, 1, 7
1, 80666, Control_c, 3, 1, 0
1, 80696, Note_on_c, 3, 52, 0
1, 80738, Note_on_c, 1, 35, 0
1, 80754, Note_on_c, 1, 40, 117
1, 80754, Note_on_c, 0, 64, 91
1, 80754, Note_on_c, 6, 56, 94
1, 80754, Note_on_c, 0, 62, 101
1, 80754, Note_on_c, 0, 56, 97
1, 80754, Note_on_c, 3, 56, 110
1, 80754, Note_on_c, 9, 35, 106
1, 80754, Note_on_c, 9, 42, 84
1, 80754, Note_on_c, 6, 52, 95
1, 80754, Note_on_c, 6, 59, 99
1, 80764, Note_on_c, 6, 59, 0
1, 80764, Note_on_c, 6, 52, 0
1, 80764, Note_on_c, 6, 56, 0
1, 80766, Note_on_c, 9, 42, 0
1, 80766, Note_on_c, 9, 35, 0
1, 80826, Note_on_c, 0, 62, 0
1, 80826, Note_on_c, 0, 56, 0
1, 80830, Note_on_c, 0, 64, 0
1, 80898, Note_on_c, 3, 56, 0
1, 80930, Note_on_c, 1, 40, 0
1, 80946, Note_on_c, 1, 40, 110
1, 80946, Note_on_c, 6, 59, 99
1, 80946, Note_on_c, 3, 57, 125
1, 80946, Note_on_c, 0, 62, 113
1, 80946, Note_on_c, 6, 56, 100
1, 80946, Note_on_c, 0, 56, 112
1, 80946, Note_on_c, 6, 52, 94
1, 80946, Note_on_c, 0, 64, 101
1, 80946, Note_on_c, 9, 35, 99
1, 80946, Note_on_c, 9, 42, 71
1, 80956, Note_on_c, 6, 52, 0
1, 80956, Note_on_c, 6, 56, 0
1, 80956, Note_on_c, 6, 59, 0
1, 80958, Note_on_c, 9, 42, 0
1, 80958, Note_on_c, 9, 35, 0
1, 81044, Control_c, 3, 1, 3
1, 81062, Control_c, 3, 1, 4
1, 81064, Note_on_c, 0, 40, 0
1, 81070, Note_on_c, 3, 57, 0
1, 81078, Control_c, 3, 1, 6
1, 81098, Control_c, 3, 1, 8
1, 81116, Control_c, 3, 1, 8
1, 81136, Control_c, 3, 1, 4
1, 81138, Note_on_c, 9, 42, 90
1, 81138, Note_on_c, 6, 47, 93
1, 81138, Note_on_c, 6, 40, 93
1, 81138, Note_on_c, 0, 40, 100
1, 81138, Note_on_c, 3, 57, 111
1, 81138, Note_on_c, 9, 40, 122
1, 81138, Note_on_c, 9, 54, 112
1, 81144, Note_on_c, 1, 40, 0
1, 81148, Note_on_c, 6, 59, 0
1, 81148, Note_on_c, 6, 52, 0
1, 81148, Note_on_c, 6, 56, 0
1, 81150, Control_c, 3, 1, 0
1, 81150, Note_on_c, 9, 54, 0
1, 81150, Note_on_c, 9, 40, 0
1, 81150, Note_on_c, 9, 42, 0
1, 81180, Note_on_c, 0, 62, 0
1, 81184, Note_on_c, 0, 56, 0
1, 81208, Note_on_c, 3, 57, 0
1, 81214, Note_on_c, 6, 47, 0
1, 81214, Note_on_c, 6, 40, 0
1, 81226, Note_on_c, 0, 64, 0
1, 81282, Pitch_bend_c, 3, 8160
1, 81288, Pitch_bend_c, 3, 7008
1, 81300, Pitch_bend_c, 3, 4576
1, 81310, Note_on_c, 0, 40, 0
1, 81314, Pitch_bend_c, 3, 1760
1, 81330, Note_on_c, 9, 42, 74
1, 81330, Note_on_c, 6, 60, 81
1, 81330, Note_on_c, 1, 40, 117
1, 81330, Note_on_c, 3, 60, 121
1, 81330, Note_on_c, 6, 57, 83
1, 81330, Note_on_c, 6, 52, 75
1, 81334, Pitch_bend_c, 3, 1152
1, 81342, Note_on_c, 9, 42, 0
1, 81348, Pitch_bend_c, 3, 1216
1, 81360, Pitch_bend_c, 3, 2240
1, 81374, Pitch_bend_c, 3, 4128
1, 81388, Pitch_bend_c, 3, 6272
1, 81400, Pitch_bend_c, 3, 7776
1, 81414, Pitch_bend_c, 3, 8160
1, 81418, Pitch_bend_c, 3, 8192
1, 81434, Note_on_c, 5, 64, 0
1, 81450, Note_on_c, 5, 56, 0
1, 81482, Note_on_c, 1, 40, 0
1, 81490, Note_on_c, 5, 40, 0
1, 81508, Note_on_c, 3, 60, 0
1, 81522, Note_on_c, 4, 69, 95
1, 81522, Note_on_c, 0, 64, 107
1, 81522, Note_on_c, 9, 42, 83
1, 81522, Note_on_c, 9, 35, 109
1, 81522, Note_on_c, 4, 81, 104
1, 81522, Note_on_c, 6, 57, 100
1, 81522, Note_on_c, 6, 60, 91
1, 81522, Note_on_c, 0, 45, 106
1, 81522, Note_on_c, 0, 60, 114
1, 81522, Note_on_c, 3, 57, 111
1, 81522, Note_on_c, 1, 45, 118
1, 81522, Note_on_c, 6, 52, 90
1, 81522, Note_on_c, 0, 57, 111
1, 81522, Note_on_c, 5, 69, 114
1, 81522, Note_on_c, 5, 57, 120
1, 81532, Note_on_c, 6, 52, 0
1, 81532, Note_on_c, 6, 57, 0
1, 81532, Note_on_c, 6, 60, 0
1, 81534, Note_on_c, 9, 35, 0
1, 81534, Note_on_c, 9, 42, 0
1, 81594, Note_on_c, 5, 69, 0
1, 81612, Note_on_c, 5, 57, 0
1, 81662, Note_on_c, 0, 57, 0
1, 81710, Note_on_c, 1, 45, 0
1, 81714, Note_on_c, 6, 52, 102
1, 81714, Note_on_c, 9, 42, 72
1, 81714, Note_on_c, 9, 35, 97
1, 81714, Note_on_c, 6, 57, 110
1, 81714, Note_on_c, 6, 60, 102
1, 81714, Note_on_c, 1, 45, 113
1, 81714, Note_on_c, 0, 57, 81
1, 81724, Note_on_c, 6, 60, 0
1, 81724, Note_on_c, 6, 57, 0
1, 81724, Note_on_c, 6, 52, 0
1, 81726, Note_on_c, 9, 42, 0
1, 81726, Note_on_c, 9, 35, 0
1, 81744, Note_on_c, 0, 45, 0
1, 81780, Note_on_c, 0, 60, 0
1, 81780, Note_on_c, 0, 64, 0
1, 81830, Note_on_c, 0, 57, 0
1, 81906, Note_on_c, 0, 45, 113
1, 81906, Note_on_c, 9, 54, 110
1, 81906, Note_on_c, 6, 52, 107
1, 81906, Note_on_c, 9, 40, 120
1, 81906, Note_on_c, 6, 45, 107
1, 81906, Note_on_c, 9, 42, 92
1, 81906, Note_on_c, 1, 45, 0
1, 81916, Note_on_c, 6, 52, 0
1, 81916, Note_on_c, 6, 60, 0
1, 81916, Note_on_c, 6, 57, 0
1, 81918, Note_on_c, 9, 54, 0
1, 81918, Note_on_c, 9, 40, 0
1, 81918, Note_on_c, 9, 42, 0
1, 81994, Note_on_c, 6, 52, 0
1, 81994, Note_on_c, 6, 45, 0
1, 82086, Note_on_c, 3, 57, 0
1, 82098, Note_on_c, 5, 57, 127
1, 82098, Note_on_c, 5, 69, 121
1, 82098, Note_on_c, 0, 69, 114
1, 82098, Note_on_c, 6, 52, 77
1, 82098, Note_on_c, 1, 40, 115
1, 82098, Note_on_c, 0, 64, 109
1, 82098, Note_on_c, 6, 60, 79
1, 82098, Note_on_c, 6, 57, 83
1, 82098, Note_on_c, 0, 60, 113
1, 82098, Note_on_c, 9, 42, 73
1, 82110, Note_on_c, 9, 42, 0
1, 82148, Note_on_c, 0, 45, 0
1, 82180, Note_on_c, 5, 69, 0
1, 82188, Note_on_c, 5, 57, 0
1, 82266, Note_on_c, 0, 64, 0
1, 82266, Note_on_c, 0, 69, 0
1, 82266, Note_on_c, 0, 60, 0
1, 82272, Note_on_c, 1, 40, 0
1, 82290, Note_on_c, 9, 35, 107
1, 82290, Note_on_c, 6, 52, 93
1, 82290, Note_on_c, 6, 57, 101
1, 82290, Note_on_c, 6, 60, 92
1, 82290, Note_on_c, 1, 45, 127
1, 82290, Note_on_c, 9, 42, 77
1, 82290, Note_on_c, 0, 45, 109
1, 82300, Note_on_c, 6, 60, 0
1, 82300, Note_on_c, 6, 57, 0
1, 82300, Note_on_c, 6, 52, 0
1, 82302, Note_on_c, 9, 42, 0
1, 82302, Note_on_c, 9, 35, 0
1, 82470, Note_on_c, 1, 45, 0
1, 82480, Note_on_c, 0, 45, 0
1, 82482, Note_on_c, 0, 64, 99
1, 82482, Note_on_c, 6, 57, 103
1, 82482, Note_on_c, 1, 45, 113
1, 82482, Note_on_c, 9, 42, 71
1, 82482, Note_on_c, 6, 52, 98
1, 82482, Note_on_c, 0, 60, 106
1, 82482, Note_on_c, 9, 35, 95
1, 82482, Note_on_c, 6, 60, 101
1, 82482, Note_on_c, 0, 69, 109
1, 82492, Note_on_c, 6, 60, 0
1, 82492, Note_on_c, 6, 57, 0
1, 82492, Note_on_c, 6, 52, 0
1, 82494, Note_on_c, 9, 42, 0
1, 82494, Note_on_c, 9, 35, 0
1, 82674, Note_on_c, 9, 54, 113
1, 82674, Note_on_c, 6, 45, 103
1, 82674, Note_on_c, 9, 42, 91
1, 82674, Note_on_c, 6, 52, 103
1, 82674, Note_on_c, 0, 45, 103
1, 82674, Note_on_c, 9, 40, 127
1, 82674, Note_on_c, 1, 45, 0
1, 82684, Note_on_c, 6, 52, 0
1, 82684, Note_on_c, 6, 60, 0
1, 82684, Note_on_c, 6, 57, 0
1, 82686, Note_on_c, 9, 54, 0
1, 82686, Note_on_c, 9, 42, 0
1, 82686, Note_on_c, 9, 40, 0
1, 82694, Note_on_c, 0, 60, 0
1, 82700, Note_on_c, 0, 69, 0
1, 82712, Note_on_c, 0, 64, 0
1, 82752, Note_on_c, 6, 52, 0
1, 82752, Note_on_c, 6, 45, 0
1, 82784, Note_on_c, 0, 45, 0
1, 82866, Note_on_c, 9, 46, 70
1, 82866, Note_on_c, 6, 60, 81
1, 82866, Note_on_c, 0, 45, 102
1, 82866, Note_on_c, 6, 52, 85
1, 82866, Note_on_c, 1, 40, 111
1, 82866, Note_on_c, 6, 57, 88
1, 82866, Note_on_c, 3, 52, 127
1, 82866, Note_on_c, 4, 81, 0
1, 82866, Note_on_c, 4, 69, 0
1, 82878, Note_on_c, 9, 46, 0
1, 82934, Note_on_c, 3, 52, 0
1, 82992, Note_on_c, 0, 45, 0
1, 83014, Note_on_c, 1, 40, 0
1, 83058, Note_on_c, 5, 56, 106
1, 83058, Note_on_c, 6, 52, 86
1, 83058, Note_on_c, 6, 59, 87
1, 83058, Note_on_c, 5, 64, 101
1, 83058, Note_on_c, 5, 40, 114
1, 83058, Note_on_c, 1, 40, 118
1, 83058, Note_on_c, 0, 40, 111
1, 83058, Note_on_c, 6, 56, 84
1, 83058, Note_on_c, 9, 42, 80
1, 83058, Note_on_c, 3, 56, 126
1, 83058, Note_on_c, 9, 35, 107
1, 83058, Note_on_c, 0, 64, 99
1, 83058, Note_on_c, 0, 56, 98
1, 83058, Note_on_c, 0, 62, 105
1, 83068, Note_on_c, 6, 52, 0
1, 83068, Note_on_c, 6, 57, 0
1, 83068, Note_on_c, 6, 60, 0
1, 83070, Note_on_c, 9, 42, 0
1, 83070, Note_on_c, 9, 35, 0
1, 83074, Control_c, 3, 1, 20
1, 83088, Control_c, 3, 1, 29
1, 83106, Control_c, 3, 1, 34
1, 83146, Control_c, 3, 1, 27
1, 83150, Note_on_c, 0, 56, 0
1, 83164, Control_c, 3, 1, 16
1, 83172, Note_on_c, 0, 62, 0
1, 83180, Control_c, 3, 1, 2
1, 83180, Note_on_c, 0, 64, 0
1, 83198, Control_c, 3, 1, 0
1, 83238, Note_on_c, 3, 56, 0
1, 83240, Note_on_c, 1, 40, 0
1, 83250, Note_on_c, 9, 42, 70
1, 83250, Note_on_c, 6, 52, 93
1, 83250, Note_on_c, 9, 35, 96
1, 83250, Note_on_c, 3, 52, 104
1, 83250, Note_on_c, 6, 56, 97
1, 83250, Note_on_c, 0, 62, 105
1, 83250, Note_on_c, 6, 59, 99
1, 83250, Note_on_c, 0, 56, 100
1, 83250, Note_on_c, 0, 64, 98
1, 83250, Note_on_c, 1, 40, 101
1, 83260, Note_on_c, 6, 59, 0
1, 83260, Note_on_c, 6, 56, 0
1, 83260, Note_on_c, 6, 52, 0
1, 83262, Note_on_c, 9, 35, 0
1, 83262, Note_on_c, 9, 42, 0
1, 83324, Note_on_c, 3, 52, 0
1, 83326, Note_on_c, 0, 56, 0
1, 83336, Note_on_c, 0, 62, 0
1, 83352, Note_on_c, 0, 64, 0
1, 83442, Note_on_c, 6, 40, 103
1, 83442, Note_on_c, 9, 54, 102
1, 83442, Note_on_c, 0, 62, 114
1, 83442, Note_on_c, 9, 42, 86
1, 83442, Note_on_c, 6, 47, 103
1, 83442, Note_on_c, 9, 40, 120
1, 83442, Note_on_c, 0, 64, 107
1, 83442, Note_on_c, 0, 56, 117
1, 83452, Note_on_c, 6, 56, 0
1, 83452, Note_on_c, 6, 52, 0
1, 83452, Note_on_c, 6, 59, 0
1, 83454, Note_on_c, 9, 54, 0
1, 83454, Note_on_c, 9, 40, 0
1, 83454, Note_on_c, 9, 42, 0
1, 83460, Note_on_c, 0, 40, 0
1, 83488, Note_on_c, 1, 40, 0
1, 83518, Note_on_c, 6, 40, 0
1, 83518, Note_on_c, 6, 47, 0
1, 83634, Note_on_c, 6, 56, 82
1, 83634, Note_on_c, 1, 35, 113
1, 83634, Note_on_c, 3, 52, 120
1, 83634, Note_on_c, 6, 52, 88
1, 83634, Note_on_c, 6, 59, 85
1, 83634, Note_on_c, 9, 42, 69
1, 83634, Note_on_c, 0, 40, 114
1, 83646, Note_on_c, 9, 42, 0
1, 83646, Note_on_c, 0, 62, 0
1, 83658, Note_on_c, 0, 56, 0
1, 83672, Control_c, 3, 1, 9
1, 83678, Note_on_c, 0, 64, 0
1, 83704, Control_c, 3, 1, 11
1, 83722, Control_c, 3, 1, 7
1, 83738, Control_c, 3, 1, 0
1, 83768, Note_on_c, 3, 52, 0
1, 83810, Note_on_c, 1, 35, 0
1, 83826, Note_on_c, 6, 52, 95
1, 83826, Note_on_c, 3, 56, 110
1, 83826, Note_on_c, 9, 35, 106
1, 83826, Note_on_c, 1, 40, 117
1, 83826, Note_on_c, 0, 64, 97
1, 83826, Note_on_c, 0, 56, 108
1, 83826, Note_on_c, 6, 56, 94
1, 83826, Note_on_c, 9, 42, 84
1, 83826, Note_on_c, 0, 62, 105
1, 83826, Note_on_c, 6, 59, 99
1, 83836, Note_on_c, 6, 59, 0
1, 83836, Note_on_c, 6, 56, 0
1, 83836, Note_on_c, 6, 52, 0
1, 83838, Note_on_c, 9, 35, 0
1, 83838, Note_on_c, 9, 42, 0
1, 83890, Note_on_c, 0, 56, 0
1, 83894, Note_on_c, 0, 62, 0
1, 83908, Note_on_c, 0, 64, 0
1, 83970, Note_on_c, 3, 56, 0
1, 84002, Note_on_c, 1, 40, 0
1, 84018, Note_on_c, 6, 52, 94
1, 84018, Note_on_c, 3, 57, 125
1, 84018, Note_on_c, 6, 59, 99
1, 84018, Note_on_c, 6, 56, 100
1, 84018, Note_on_c, 0, 56, 115
1, 84018, Note_on_c, 9, 42, 71
1, 84018, Note_on_c, 1, 40, 110
1, 84018, Note_on_c, 9, 35, 99
1, 84018, Note_on_c, 0, 62, 111
1, 84018, Note_on_c, 0, 64, 102
1, 84028, Note_on_c, 6, 56, 0
1, 84028, Note_on_c, 6, 59, 0
1, 84028, Note_on_c, 6, 52, 0
1, 84030, Note_on_c, 9, 35, 0
1, 84030, Note_on_c, 9, 42, 0
1, 84116, Control_c, 3, 1, 3
1, 84134, Control_c, 3, 1, 4
1, 84142, Note_on_c, 0, 40, 0
1, 84142, Note_on_c, 3, 57, 0
1, 84150, Control_c, 3, 1, 6
1, 84170, Control_c, 3, 1, 8
1, 84188, Control_c, 3, 1, 8
1, 84208, Control_c, 3, 1, 4
1, 84210, Note_on_c, 9, 54, 110
1, 84210, Note_on_c, 0, 40, 93
1, 84210, Note_on_c, 6, 47, 93
1, 84210, Note_on_c, 9, 40, 122
1, 84210, Note_on_c, 6, 40, 93
1, 84210, Note_on_c, 9, 42, 90
1, 84210, Note_on_c, 3, 57, 111
1, 84216, Note_on_c, 1, 40, 0
1, 84220, Note_on_c, 6, 59, 0
1, 84220, Note_on_c, 6, 52, 0
1, 84220, Note_on_c, 6, 56, 0
1, 84222, Control_c, 3, 1, 0
1, 84222, Note_on_c, 9, 42, 0
1, 84222, Note_on_c, 9, 54, 0
1, 84222, Note_on_c, 9, 40, 0
1, 84270, Note_on_c, 0, 56, 0
1, 84280, Note_on_c, 3, 57, 0
1, 84286, Note_on_c, 6, 47, 0
1, 84286, Note_on_c, 6, 40, 0
1, 84320, Note_on_c, 0, 40, 0
1, 84322, Note_on_c, 0, 62, 0
1, 84346, Note_on_c, 0, 64, 0
1, 84354, Pitch_bend_c, 3, 7008
1, 84372, Pitch_bend_c, 3, 4576
1, 84386, Pitch_bend_c, 3, 1760
1, 84402, Note_on_c, 6, 60, 81
1, 84402, Note_on_c, 0, 40, 111
1, 84402, Note_on_c, 6, 57, 83
1, 84402, Note_on_c, 6, 52, 75
1, 84402, Note_on_c, 1, 40, 117
1, 84402, Note_on_c, 3, 60, 121
1, 84402, Note_on_c, 9, 42, 74
1, 84406, Pitch_bend_c, 3, 1152
1, 84414, Note_on_c, 9, 42, 0
1, 84420, Pitch_bend_c, 3, 1216
1, 84432, Pitch_bend_c, 3, 2240
1, 84446, Pitch_bend_c, 3, 4128
1, 84460, Pitch_bend_c, 3, 6272
1, 84472, Pitch_bend_c, 3, 7776
1, 84486, Pitch_bend_c, 3, 8160
1, 84490, Pitch_bend_c, 3, 8192
1, 84506, Note_on_c, 5, 64, 0
1, 84522, Note_on_c, 5, 56, 0
1, 84530, Note_on_c, 0, 40, 0
1, 84554, Note_on_c, 1, 40, 0
1, 84562, Note_on_c, 5, 40, 0
1, 84580, Note_on_c, 3, 60, 0
1, 84594, Note_on_c, 0, 57, 114
1, 84594, Note_on_c, 0, 45, 110
1, 84594, Note_on_c, 0, 64, 107
1, 84594, Note_on_c, 5, 52, 110
1, 84594, Note_on_c, 3, 57, 111
1, 84594, Note_on_c, 9, 42, 83
1, 84594, Note_on_c, 9, 35, 109
1, 84594, Note_on_c, 6, 57, 100
1, 84594, Note_on_c, 5, 60, 114
1, 84594, Note_on_c, 4, 69, 95
1, 84594, Note_on_c, 0, 60, 102
1, 84594, Note_on_c, 6, 60, 91
1, 84594, Note_on_c, 6, 52, 90
1, 84594, Note_on_c, 5, 45, 120
1, 84594, Note_on_c, 1, 45, 118
1, 84594, Note_on_c, 4, 81, 104
1, 84604, Note_on_c, 6, 52, 0
1, 84604, Note_on_c, 6, 60, 0
1, 84604, Note_on_c, 6, 57, 0
1, 84606, Note_on_c, 9, 35, 0
1, 84606, Note_on_c, 9, 42, 0
1, 84700, Note_on_c, 0, 57, 0
1, 84716, Note_on_c, 5, 60, 0
1, 84722, Note_on_c, 5, 45, 0
1, 84726, Note_on_c, 5, 52, 0
1, 84726, Note_on_c, 0, 60, 0
1, 84782, Note_on_c, 1, 45, 0
1, 84786, Note_on_c, 6, 52, 102
1, 84786, Note_on_c, 6, 60, 102
1, 84786, Note_on_c, 0, 60, 67
1, 84786, Note_on_c, 9, 42, 72
1, 84786, Note_on_c, 0, 57, 87
1, 84786, Note_on_c, 6, 57, 110
1, 84786, Note_on_c, 9, 35, 97
1, 84786, Note_on_c, 1, 45, 113
1, 84796, Note_on_c, 6, 57, 0
1, 84796, Note_on_c, 6, 52, 0
1, 84796, Note_on_c, 6, 60, 0
1, 84798, Note_on_c, 0, 45, 0
1, 84798, Note_on_c, 9, 42, 0
1, 84798, Note_on_c, 9, 35, 0
1, 84902, Note_on_c, 0, 60, 0
1, 84916, Note_on_c, 0, 64, 0
1, 84920, Note_on_c, 0, 57, 0
1, 84978, Note_on_c, 9, 54, 117
1, 84978, Note_on_c, 9, 40, 120
1, 84978, Note_on_c, 0, 45, 114
1, 84978, Note_on_c, 9, 42, 92
1, 84978, Note_on_c, 6, 52, 107
1, 84978, Note_on_c, 6, 45, 107
1, 84978, Note_on_c, 1, 45, 0
1, 84988, Note_on_c, 6, 57, 0
1, 84988, Note_on_c, 6, 60, 0
1, 84988, Note_on_c, 6, 52, 0
1, 84990, Note_on_c, 9, 40, 0
1, 84990, Note_on_c, 9, 54, 0
1, 84990, Note_on_c, 9, 42, 0
1, 85066, Note_on_c, 6, 52, 0
1, 85066, Note_on_c, 6, 45, 0
1, 85158, Note_on_c, 3, 57, 0
1, 85170, Note_on_c, 6, 52, 77
1, 85170, Note_on_c, 1, 40, 115
1, 85170, Note_on_c, 6, 60, 79
1, 85170, Note_on_c, 0, 60, 113
1, 85170, Note_on_c, 0, 69, 110
1, 85170, Note_on_c, 0, 64, 110
1, 85170, Note_on_c, 6, 57, 83
1, 85170, Note_on_c, 9, 42, 73
1, 85182, Note_on_c, 9, 42, 0
1, 85184, Note_on_c, 0, 45, 0
1, 85344, Note_on_c, 1, 40, 0
1, 85358, Note_on_c, 0, 64, 0
1, 85358, Note_on_c, 0, 69, 0
1, 85358, Note_on_c, 0, 60, 0
1, 85362, Note_on_c, 9, 42, 77
1, 85362, Note_on_c, 1, 45, 127
1, 85362, Note_on_c, 6, 57, 101
1, 85362, Note_on_c, 6, 52, 93
1, 85362, Note_on_c, 9, 35, 107
1, 85362, Note_on_c, 6, 60, 92
1, 85362, Note_on_c, 0, 45, 114
1, 85372, Note_on_c, 6, 60, 0
1, 85372, Note_on_c, 6, 52, 0
1, 85372, Note_on_c, 6, 57, 0
1, 85374, Note_on_c, 9, 42, 0
1, 85374, Note_on_c, 9, 35, 0
1, 85542, Note_on_c, 1, 45, 0
1, 85554, Note_on_c, 1, 45, 113
1, 85554, Note_on_c, 6, 60, 101
1, 85554, Note_on_c, 9, 35, 95
1, 85554, Note_on_c, 9, 42, 71
1, 85554, Note_on_c, 6, 52, 98
1, 85554, Note_on_c, 6, 57, 103
1, 85554, Note_on_c, 0, 64, 51
1, 85554, Note_on_c, 0, 60, 74
1, 85564, Note_on_c, 6, 57, 0
1, 85564, Note_on_c, 6, 60, 0
1, 85564, Note_on_c, 6, 52, 0
1, 85566, Note_on_c, 9, 42, 0
1, 85566, Note_on_c, 9, 35, 0
1, 85588, Note_on_c, 0, 64, 0
1, 85640, Note_on_c, 0, 60, 0
1, 85746, Note_on_c, 0, 60, 111
1, 85746, Note_on_c, 9, 40, 127
1, 85746, Note_on_c, 6, 45, 103
1, 85746, Note_on_c, 9, 42, 91
1, 85746, Note_on_c, 9, 54, 115
1, 85746, Note_on_c, 0, 64, 103
1, 85746, Note_on_c, 0, 57, 114
1, 85746, Note_on_c, 6, 52, 103
1, 85746, Note_on_c, 1, 45, 0
1, 85754, Note_on_c, 0, 45, 0
1, 85756, Note_on_c, 6, 60, 0
1, 85756, Note_on_c, 6, 57, 0
1, 85756, Note_on_c, 6, 52, 0
1, 85758, Note_on_c, 9, 40, 0
1, 85758, Note_on_c, 9, 42, 0
1, 85758, Note_on_c, 9, 54, 0
1, 85824, Note_on_c, 6, 52, 0
1, 85824, Note_on_c, 6, 45, 0
1, 85938, Note_on_c, 9, 46, 70
1, 85938, Note_on_c, 6, 52, 85
1, 85938, Note_on_c, 6, 60, 81
1, 85938, Note_on_c, 6, 57, 88
1, 85938, Note_on_c, 1, 40, 111
1, 85938, Note_on_c, 0, 45, 121
1, 85950, Note_on_c, 9, 46, 0
1, 85982, Note_on_c, 0, 60, 0
1, 85986, Note_on_c, 0, 57, 0
1, 86002, Note_on_c, 0, 64, 0
1, 86086, Note_on_c, 1, 40, 0
1, 86130, Note_on_c, 0, 57, 92
1, 86130, Note_on_c, 6, 57, 100
1, 86130, Note_on_c, 9, 42, 83
1, 86130, Note_on_c, 6, 60, 91
1, 86130, Note_on_c, 6, 52, 90
1, 86130, Note_on_c, 9, 35, 109
1, 86130, Note_on_c, 1, 45, 118
1, 86140, Note_on_c, 6, 52, 0
1, 86140, Note_on_c, 6, 60, 0
1, 86140, Note_on_c, 6, 57, 0
1, 86142, Note_on_c, 9, 42, 0
1, 86142, Note_on_c, 9, 35, 0
1, 86202, Note_on_c, 0, 45, 0
1, 86208, Note_on_c, 0, 57, 0
1, 86318, Note_on_c, 1, 45, 0
1, 86322, Note_on_c, 0, 57, 98
1, 86322, Note_on_c, 0, 60, 103
1, 86322, Note_on_c, 6, 52, 102
1, 86322, Note_on_c, 6, 57, 110
1, 86322, Note_on_c, 0, 45, 120
1, 86322, Note_on_c, 0, 64, 100
1, 86322, Note_on_c, 1, 45, 113
1, 86322, Note_on_c, 9, 35, 97
1, 86322, Note_on_c, 6, 60, 102
1, 86322, Note_on_c, 9, 42, 72
1, 86332, Note_on_c, 6, 60, 0
1, 86332, Note_on_c, 6, 52, 0
1, 86332, Note_on_c, 6, 57, 0
1, 86334, Note_on_c, 9, 35, 0
1, 86334, Note_on_c, 9, 42, 0
1, 86438, Note_on_c, 0, 57, 0
1, 86514, Note_on_c, 0, 57, 80
1, 86514, Note_on_c, 9, 40, 120
1, 86514, Note_on_c, 9, 42, 92
1, 86514, Note_on_c, 9, 54, 115
1, 86514, Note_on_c, 6, 52, 107
1, 86514, Note_on_c, 6, 45, 107
1, 86514, Note_on_c, 1, 45, 0
1, 86524, Note_on_c, 6, 57, 0
1, 86524, Note_on_c, 6, 52, 0
1, 86524, Note_on_c, 6, 60, 0
1, 86526, Note_on_c, 9, 40, 0
1, 86526, Note_on_c, 9, 42, 0
1, 86526, Note_on_c, 9, 54, 0
1, 86532, Note_on_c, 0, 45, 0
1, 86572, Note_on_c, 0, 60, 0
1, 86582, Note_on_c, 0, 64, 0
1, 86602, Note_on_c, 6, 52, 0
1, 86602, Note_on_c, 6, 45, 0
1, 86604, Note_on_c, 0, 57, 0
1, 86706, Note_on_c, 0, 45, 113
1, 86706, Note_on_c, 0, 57, 100
1, 86706, Note_on_c, 6, 52, 77
1, 86706, Note_on_c, 1, 40, 115
1, 86706, Note_on_c, 6, 57, 83
1, 86706, Note_on_c, 0, 64, 78
1, 86706, Note_on_c, 9, 42, 73
1, 86706, Note_on_c, 0, 60, 80
1, 86706, Note_on_c, 6, 60, 79
1, 86718, Note_on_c, 9, 42, 0
1, 86738, Note_on_c, 0, 60, 0
1, 86744, Note_on_c, 0, 64, 0
1, 86768, Note_on_c, 0, 57, 0
1, 86880, Note_on_c, 1, 40, 0
1, 86898, Note_on_c, 0, 64, 107
1, 86898, Note_on_c, 6, 60, 92
1, 86898, Note_on_c, 1, 45, 127
1, 86898, Note_on_c, 6, 57, 101
1, 86898, Note_on_c, 0, 57, 109
1, 86898, Note_on_c, 0, 60, 114
1, 86898, Note_on_c, 6, 52, 93
1, 86898, Note_on_c, 9, 35, 107
1, 86898, Note_on_c, 9, 42, 77
1, 86908, Note_on_c, 6, 52, 0
1, 86908, Note_on_c, 6, 60, 0
1, 86908, Note_on_c, 6, 57, 0
1, 86910, Note_on_c, 9, 35, 0
1, 86910, Note_on_c, 9, 42, 0
1, 86994, Note_on_c, 0, 45, 0
1, 87078, Note_on_c, 1, 45, 0
1, 87090, Note_on_c, 6, 60, 101
1, 87090, Note_on_c, 1, 45, 113
1, 87090, Note_on_c, 6, 52, 98
1, 87090, Note_on_c, 0, 45, 102
1, 87090, Note_on_c, 6, 57, 103
1, 87090, Note_on_c, 9, 42, 71
1, 87090, Note_on_c, 9, 35, 95
1, 87100, Note_on_c, 6, 57, 0
1, 87100, Note_on_c, 6, 60, 0
1, 87100, Note_on_c, 6, 52, 0
1, 87102, Note_on_c, 9, 42, 0
1, 87102, Note_on_c, 9, 35, 0
1, 87106, Note_on_c, 0, 64, 0
1, 87108, Note_on_c, 0, 60, 0
1, 87128, Note_on_c, 0, 57, 0
1, 87248, Note_on_c, 0, 45, 0
1, 87282, Note_on_c, 9, 40, 127
1, 87282, Note_on_c, 6, 45, 103
1, 87282, Note_on_c, 9, 42, 91
1, 87282, Note_on_c, 9, 54, 113
1, 87282, Note_on_c, 0, 64, 101
1, 87282, Note_on_c, 0, 57, 99
1, 87282, Note_on_c, 0, 60, 107
1, 87282, Note_on_c, 6, 52, 103
1, 87282, Note_on_c, 1, 45, 0
1, 87292, Note_on_c, 6, 60, 0
1, 87292, Note_on_c, 6, 52, 0
1, 87292, Note_on_c, 6, 57, 0
1, 87294, Note_on_c, 9, 40, 0
1, 87294, Note_on_c, 9, 42, 0
1, 87294, Note_on_c, 9, 54, 0
1, 87360, Note_on_c, 6, 45, 0
1, 87360, Note_on_c, 6, 52, 0
1, 87420, Note_on_c, 0, 60, 0
1, 87424, Note_on_c, 0, 57, 0
1, 87438, Note_on_c, 0, 64, 0
1, 87474, Note_on_c, 1, 40, 111
1, 87474, Note_on_c, 6, 52, 85
1, 87474, Note_on_c, 0, 45, 71
1, 87474, Note_on_c, 6, 60, 81
1, 87474, Note_on_c, 6, 57, 88
1, 87474, Note_on_c, 9, 46, 70
1, 87486, Note_on_c, 9, 46, 0
1, 87554, Note_on_c, 0, 45, 0
1, 87570, Note_on_c, 4, 81, 0
1, 87570, Note_on_c, 4, 69, 0
1, 87622, Note_on_c, 1, 40, 0
1, 87666, Note_on_c, 2, 80, 96
1, 87666, Note_on_c, 6, 56, 93
1, 87666, Note_on_c, 0, 65, 116
1, 87666, Note_on_c, 2, 85, 95
1, 87666, Note_on_c, 6, 61, 93
1, 87666, Note_on_c, 4, 68, 96
1, 87666, Note_on_c, 1, 37, 110
1, 87666, Note_on_c, 2, 89, 95
1, 87666, Note_on_c, 0, 56, 115
1, 87666, Note_on_c, 0, 61, 113
1, 87666, Note_on_c, 0, 49, 102
1, 87666, Note_on_c, 6, 65, 83
1, 87666, Note_on_c, 4, 80, 94
1, 87666, Note_on_c, 9, 49, 92
1, 87666, Note_on_c, 9, 35, 101
1, 87676, Note_on_c, 6, 52, 0
1, 87676, Note_on_c, 6, 60, 0
1, 87676, Note_on_c, 6, 57, 0
1, 87678, Note_on_c, 9, 35, 0
1, 87678, Note_on_c, 9, 49, 0
1, 87774, Note_on_c, 0, 49, 0
1, 87846, Note_on_c, 1, 37, 0
1, 87852, Note_on_c, 2, 85, 0
1, 87858, Note_on_c, 0, 49, 97
1, 87858, Note_on_c, 6, 65, 98
1, 87858, Note_on_c, 9, 35, 85
1, 87858, Note_on_c, 6, 61, 97
1, 87858, Note_on_c, 1, 37, 103
1, 87858, Note_on_c, 6, 56, 100
1, 87858, Note_on_c, 2, 89, 0
1, 87864, Note_on_c, 2, 80, 0
1, 87868, Note_on_c, 6, 56, 0
1, 87868, Note_on_c, 6, 61, 0
1, 87868, Note_on_c, 6, 65, 0
1, 87870, Note_on_c, 9, 35, 0
1, 87912, Note_on_c, 0, 65, 0
1, 87914, Note_on_c, 0, 61, 0
1, 87914, Note_on_c, 0, 56, 0
1, 88008, Note_on_c, 1, 37, 0
1, 88016, Note_on_c, 0, 49, 0
1, 88050, Note_on_c, 0, 56, 108
1, 88050, Note_on_c, 2, 85, 98
1, 88050, Note_on_c, 2, 89, 101
1, 88050, Note_on_c, 9, 42, 77
1, 88050, Note_on_c, 0, 61, 107
1, 88050, Note_on_c, 0, 65, 107
1, 88050, Note_on_c, 1, 41, 103
1, 88050, Note_on_c, 6, 56, 110
1, 88050, Note_on_c, 9, 54, 115
1, 88050, Note_on_c, 6, 49, 110
1, 88050, Note_on_c, 9, 40, 114
1, 88050, Note_on_c, 2, 80, 91
1, 88060, Note_on_c, 6, 56, 0
1, 88060, Note_on_c, 6, 65, 0
1, 88060, Note_on_c, 6, 61, 0
1, 88062, Note_on_c, 9, 40, 0
1, 88062, Note_on_c, 9, 42, 0
1, 88062, Note_on_c, 9, 54, 0
1, 88108, Note_on_c, 6, 56, 0
1, 88108, Note_on_c, 6, 49, 0
1, 88198, Note_on_c, 2, 80, 0
1, 88204, Note_on_c, 0, 61, 0
1, 88212, Note_on_c, 0, 56, 0
1, 88226, Note_on_c, 0, 65, 0
1, 88240, Note_on_c, 2, 89, 0
1, 88242, Note_on_c, 0, 49, 90
1, 88242, Note_on_c, 1, 44, 105
1, 88242, Note_on_c, 6, 56, 86
1, 88242, Note_on_c, 6, 60, 89
1, 88242, Note_on_c, 6, 63, 85
1, 88242, Note_on_c, 9, 42, 61
1, 88242, Note_on_c, 2, 80, 81
1, 88246, Note_on_c, 2, 85, 0
1, 88252, Note_on_c, 1, 41, 0
1, 88254, Note_on_c, 9, 42, 0
1, 88314, Note_on_c, 2, 80, 0
1, 88346, Note_on_c, 0, 49, 0
1, 88426, Note_on_c, 1, 44, 0
1, 88434, Note_on_c, 9, 35, 103
1, 88434, Note_on_c, 1, 32, 113
1, 88434, Note_on_c, 2, 84, 99
1, 88434, Note_on_c, 0, 56, 101
1, 88434, Note_on_c, 0, 60, 107
1, 88434, Note_on_c, 6, 60, 96
1, 88434, Note_on_c, 9, 42, 76
1, 88434, Note_on_c, 2, 80, 104
1, 88434, Note_on_c, 0, 63, 97
1, 88434, Note_on_c, 2, 87, 89
1, 88434, Note_on_c, 6, 56, 98
1, 88434, Note_on_c, 6, 63, 100
1, 88434, Note_on_c, 0, 44, 108
1, 88444, Note_on_c, 6, 63, 0
1, 88444, Note_on_c, 6, 56, 0
1, 88444, Note_on_c, 6, 60, 0
1, 88446, Note_on_c, 9, 35, 0
1, 88446, Note_on_c, 9, 42, 0
1, 88500, Note_on_c, 0, 56, 0
1, 88514, Note_on_c, 0, 60, 0
1, 88514, Note_on_c, 0, 63, 0
1, 88594, Note_on_c, 1, 32, 0
1, 88602, Note_on_c, 2, 84, 0
1, 88610, Note_on_c, 2, 80, 0
1, 88610, Note_on_c, 2, 87, 0
1, 88626, Note_on_c, 6, 60, 99
1, 88626, Note_on_c, 6, 56, 91
1, 88626, Note_on_c, 1, 32, 102
1, 88626, Note_on_c, 9, 35, 91
1, 88626, Note_on_c, 0, 60, 111
1, 88626, Note_on_c, 9, 42, 54
1, 88626, Note_on_c, 0, 63, 115
1, 88626, Note_on_c, 0, 56, 110
1, 88626, Note_on_c, 6, 63, 105
1, 88636, Note_on_c, 6, 63, 0
1, 88636, Note_on_c, 6, 60, 0
1, 88636, Note_on_c, 6, 56, 0
1, 88638, Note_on_c, 9, 35, 0
1, 88638, Note_on_c, 9, 42, 0
1, 88728, Note_on_c, 0, 44, 0
1, 88786, Note_on_c, 1, 32, 0
1, 88818, Note_on_c, 0, 44, 110
1, 88818, Note_on_c, 2, 84, 102
1, 88818, Note_on_c, 2, 80, 93
1, 88818, Note_on_c, 6, 51, 110
1, 88818, Note_on_c, 9, 54, 113
1, 88818, Note_on_c, 9, 42, 82
1, 88818, Note_on_c, 6, 44, 110
1, 88818, Note_on_c, 9, 40, 111
1, 88818, Note_on_c, 1, 36, 113
1, 88818, Note_on_c, 2, 87, 95
1, 88828, Note_on_c, 6, 60, 0
1, 88828, Note_on_c, 6, 63, 0
1, 88828, Note_on_c, 6, 56, 0
1, 88830, Note_on_c, 9, 40, 0
1, 88830, Note_on_c, 9, 42, 0
1, 88830, Note_on_c, 9, 54, 0
1, 88870, Note_on_c, 0, 60, 0
1, 88876, Note_on_c, 0, 63, 0
1, 88876, Note_on_c, 6, 51, 0
1, 88876, Note_on_c, 6, 44, 0
1, 88904, Note_on_c, 0, 56, 0
1, 88984, Note_on_c, 1, 36, 0
1, 88984, Note_on_c, 0, 44, 0
1, 88998, Note_on_c, 2, 84, 0
1, 88998, Note_on_c, 2, 80, 0
1, 89006, Note_on_c, 2, 87, 0
1, 89010, Note_on_c, 6, 61, 85
1, 89010, Note_on_c, 6, 58, 88
1, 89010, Note_on_c, 0, 54, 112
1, 89010, Note_on_c, 6, 54, 81
1, 89010, Note_on_c, 1, 39, 104
1, 89010, Note_on_c, 0, 58, 113
1, 89010, Note_on_c, 0, 61, 126
1, 89010, Note_on_c, 9, 42, 58
1, 89022, Note_on_c, 9, 42, 0
1, 89180, Note_on_c, 1, 39, 0
1, 89202, Note_on_c, 2, 90, 101
1, 89202, Note_on_c, 0, 42, 107
1, 89202, Note_on_c, 6, 58, 107
1, 89202, Note_on_c, 4, 70, 95
1, 89202, Note_on_c, 2, 82, 95
1, 89202, Note_on_c, 4, 82, 101
1, 89202, Note_on_c, 6, 54, 97
1, 89202, Note_on_c, 9, 35, 103
1, 89202, Note_on_c, 6, 61, 111
1, 89202, Note_on_c, 2, 87, 100
1, 89202, Note_on_c, 1, 30, 104
1, 89202, Note_on_c, 9, 42, 77
1, 89202, Note_on_c, 4, 68, 0
1, 89202, Note_on_c, 4, 80, 0
1, 89212, Note_on_c, 6, 61, 0
1, 89212, Note_on_c, 6, 58, 0
1, 89212, Note_on_c, 6, 54, 0
1, 89214, Note_on_c, 9, 35, 0
1, 89214, Note_on_c, 9, 42, 0
1, 89278, Note_on_c, 0, 54, 0
1, 89322, Note_on_c, 0, 58, 0
1, 89364, Note_on_c, 1, 30, 0
1, 89370, Note_on_c, 0, 61, 0
1, 89374, Note_on_c, 2, 87, 0
1, 89386, Note_on_c, 2, 90, 0
1, 89390, Note_on_c, 2, 82, 0
1, 89394, Note_on_c, 6, 58, 107
1, 89394, Note_on_c, 0, 54, 102
1, 89394, Note_on_c, 6, 61, 103
1, 89394, Note_on_c, 1, 30, 109
1, 89394, Note_on_c, 9, 35, 91
1, 89394, Note_on_c, 9, 42, 69
1, 89394, Note_on_c, 6, 54, 93
1, 89404, Note_on_c, 6, 54, 0
1, 89404, Note_on_c, 6, 58, 0
1, 89404, Note_on_c, 6, 61, 0
1, 89406, Note_on_c, 0, 42, 0
1, 89406, Note_on_c, 9, 35, 0
1, 89406, Note_on_c, 9, 42, 0
1, 89478, Note_on_c, 0, 54, 0
1, 89566, Note_on_c, 1, 30, 0
1, 89586, Note_on_c, 0, 54, 108
1, 89586, Note_on_c, 2, 87, 98
1, 89586, Note_on_c, 6, 49, 110
1, 89586, Note_on_c, 2, 82, 95
1, 89586, Note_on_c, 9, 40, 120
1, 89586, Note_on_c, 1, 34, 106
1, 89586, Note_on_c, 0, 58, 108
1, 89586, Note_on_c, 6, 42, 110
1, 89586, Note_on_c, 9, 42, 96
1, 89586, Note_on_c, 9, 54, 113
1, 89586, Note_on_c, 0, 61, 117
1, 89586, Note_on_c, 2, 90, 99
1, 89596, Note_on_c, 6, 58, 0
1, 89596, Note_on_c, 6, 61, 0
1, 89596, Note_on_c, 6, 54, 0
1, 89598, Note_on_c, 9, 40, 0
1, 89598, Note_on_c, 9, 54, 0
1, 89598, Note_on_c, 9, 42, 0
1, 89644, Note_on_c, 6, 49, 0
1, 89644, Note_on_c, 6, 42, 0
1, 89730, Note_on_c, 1, 34, 0
1, 89734, Note_on_c, 0, 54, 0
1, 89742, Note_on_c, 0, 58, 0
1, 89758, Note_on_c, 0, 61, 0
1, 89774, Note_on_c, 2, 87, 0
1, 89778, Note_on_c, 6, 56, 87
1, 89778, Note_on_c, 0, 42, 83
1, 89778, Note_on_c, 9, 42, 66
1, 89778, Note_on_c, 6, 61, 88
1, 89778, Note_on_c, 1, 37, 104
1, 89778, Note_on_c, 6, 65, 87
1, 89778, Note_on_c, 2, 90, 0
1, 89790, Note_on_c, 2, 82, 0
1, 89790, Note_on_c, 9, 42, 0
1, 89922, Note_on_c, 0, 42, 0
1, 89954, Note_on_c, 1, 37, 0
1, 89970, Note_on_c, 0, 49, 104
1, 89970, Note_on_c, 6, 61, 106
1, 89970, Note_on_c, 1, 37, 113
1, 89970, Note_on_c, 9, 35, 109
1, 89970, Note_on_c, 6, 56, 100
1, 89970, Note_on_c, 6, 65, 102
1, 89970, Note_on_c, 0, 56, 108
1, 89970, Note_on_c, 4, 80, 91
1, 89970, Note_on_c, 0, 61, 108
1, 89970, Note_on_c, 0, 65, 99
1, 89970, Note_on_c, 2, 89, 99
1, 89970, Note_on_c, 2, 85, 100
1, 89970, Note_on_c, 4, 68, 96
1, 89970, Note_on_c, 9, 42, 86
1, 89970, Note_on_c, 2, 80, 95
1, 89970, Note_on_c, 4, 70, 0
1, 89970, Note_on_c, 4, 82, 0
1, 89980, Note_on_c, 6, 65, 0
1, 89980, Note_on_c, 6, 56, 0
1, 89980, Note_on_c, 6, 61, 0
1, 89982, Note_on_c, 9, 42, 0
1, 89982, Note_on_c, 9, 35, 0
1, 90102, Note_on_c, 0, 56, 0
1, 90130, Note_on_c, 2, 85, 0
1, 90136, Note_on_c, 2, 89, 0
1, 90138, Note_on_c, 0, 61, 0
1, 90146, Note_on_c, 2, 80, 0
1, 90162, Note_on_c, 6, 61, 101
1, 90162, Note_on_c, 6, 56, 98
1, 90162, Note_on_c, 9, 35, 89
1, 90162, Note_on_c, 0, 56, 95
1, 90162, Note_on_c, 6, 65, 105
1, 90162, Note_on_c, 9, 42, 77
1, 90162, Note_on_c, 1, 37, 110
1, 90162, Note_on_c, 1, 37, 0
1, 90172, Note_on_c, 6, 56, 0
1, 90172, Note_on_c, 6, 61, 0
1, 90172, Note_on_c, 6, 65, 0
1, 90174, Note_on_c, 9, 35, 0
1, 90174, Note_on_c, 9, 42, 0
1, 90248, Note_on_c, 0, 65, 0
1, 90254, Note_on_c, 0, 56, 0
1, 90320, Note_on_c, 1, 37, 0
1, 90324, Note_on_c, 0, 49, 0
1, 90354, Note_on_c, 2, 89, 97
1, 90354, Note_on_c, 9, 42, 91
1, 90354, Note_on_c, 6, 56, 110
1, 90354, Note_on_c, 0, 65, 105
1, 90354, Note_on_c, 0, 56, 105
1, 90354, Note_on_c, 0, 61, 102
1, 90354, Note_on_c, 6, 49, 110
1, 90354, Note_on_c, 1, 41, 110
1, 90354, Note_on_c, 9, 40, 124
1, 90354, Note_on_c, 9, 54, 117
1, 90354, Note_on_c, 2, 80, 95
1, 90354, Note_on_c, 2, 85, 97
1, 90364, Note_on_c, 6, 56, 0
1, 90364, Note_on_c, 6, 61, 0
1, 90364, Note_on_c, 6, 65, 0
1, 90366, Note_on_c, 9, 40, 0
1, 90366, Note_on_c, 9, 54, 0
1, 90366, Note_on_c, 9, 42, 0
1, 90412, Note_on_c, 6, 56, 0
1, 90412, Note_on_c, 6, 49, 0
1, 90508, Note_on_c, 0, 61, 0
1, 90520, Note_on_c, 2, 85, 0
1, 90522, Note_on_c, 2, 89, 0
1, 90526, Note_on_c, 1, 41, 0
1, 90540, Note_on_c, 0, 56, 0
1, 90546, Note_on_c, 6, 56, 85
1, 90546, Note_on_c, 4, 82, 95
1, 90546, Note_on_c, 6, 63, 90
1, 90546, Note_on_c, 4, 70, 89
1, 90546, Note_on_c, 6, 61, 91
1, 90546, Note_on_c, 1, 44, 109
1, 90546, Note_on_c, 9, 42, 70
1, 90546, Note_on_c, 0, 49, 101
1, 90546, Note_on_c, 4, 80, 0
1, 90546, Note_on_c, 4, 68, 0
1, 90548, Note_on_c, 2, 80, 0
1, 90550, Note_on_c, 0, 65, 0
1, 90558, Note_on_c, 9, 42, 0
1, 90642, Note_on_c, 0, 49, 0
1, 90718, Note_on_c, 1, 44, 0
1, 90738, Note_on_c, 9, 35, 107
1, 90738, Note_on_c, 2, 80, 94
1, 90738, Note_on_c, 2, 85, 95
1, 90738, Note_on_c, 9, 42, 80
1, 90738, Note_on_c, 0, 56, 100
1, 90738, Note_on_c, 6, 56, 91
1, 90738, Note_on_c, 2, 89, 95
1, 90738, Note_on_c, 1, 32, 115
1, 90738, Note_on_c, 0, 61, 105
1, 90738, Note_on_c, 6, 63, 94
1, 90738, Note_on_c, 6, 61, 91
1, 90738, Note_on_c, 0, 63, 102
1, 90738, Note_on_c, 0, 44, 101
1, 90748, Note_on_c, 6, 61, 0
1, 90748, Note_on_c, 6, 63, 0
1, 90748, Note_on_c, 6, 56, 0
1, 90750, Note_on_c, 9, 42, 0
1, 90750, Note_on_c, 9, 35, 0
1, 90840, Note_on_c, 0, 56, 0
1, 90894, Note_on_c, 1, 32, 0
1, 90930, Note_on_c, 6, 56, 85
1, 90930, Note_on_c, 1, 36, 103
1, 90930, Note_on_c, 9, 42, 70
1, 90930, Note_on_c, 6, 63, 103
1, 90930, Note_on_c, 6, 61, 105
1, 90930, Note_on_c, 0, 56, 87
1, 90930, Note_on_c, 9, 35, 96
1, 90934, Note_on_c, 2, 85, 0
1, 90938, Note_on_c, 2, 89, 0
1, 90940, Note_on_c, 6, 61, 0
1, 90940, Note_on_c, 6, 56, 0
1, 90940, Note_on_c, 6, 63, 0
1, 90942, Note_on_c, 9, 35, 0
1, 90942, Note_on_c, 2, 80, 0
1, 90942, Note_on_c, 9, 42, 0
1, 90944, Note_on_c, 0, 61, 0
1, 90984, Note_on_c, 0, 63, 0
1, 91024, Note_on_c, 0, 56, 0
1, 91074, Note_on_c, 0, 44, 0
1, 91096, Note_on_c, 1, 36, 0
1, 91122, Note_on_c, 2, 80, 95
1, 91122, Note_on_c, 2, 89, 100
1, 91122, Note_on_c, 9, 40, 120
1, 91122, Note_on_c, 6, 44, 110
1, 91122, Note_on_c, 6, 51, 110
1, 91122, Note_on_c, 0, 56, 105
1, 91122, Note_on_c, 0, 63, 96
1, 91122, Note_on_c, 1, 39, 110
1, 91122, Note_on_c, 4, 80, 85
1, 91122, Note_on_c, 2, 85, 98
1, 91122, Note_on_c, 0, 61, 102
1, 91122, Note_on_c, 9, 54, 115
1, 91122, Note_on_c, 4, 68, 91
1, 91122, Note_on_c, 9, 42, 86
1, 91122, Note_on_c, 4, 82, 0
1, 91122, Note_on_c, 4, 70, 0
1, 91132, Note_on_c, 6, 63, 0
1, 91132, Note_on_c, 6, 56, 0
1, 91132, Note_on_c, 6, 61, 0
1, 91134, Note_on_c, 9, 54, 0
1, 91134, Note_on_c, 9, 40, 0
1, 91134, Note_on_c, 9, 42, 0
1, 91180, Note_on_c, 6, 51, 0
1, 91180, Note_on_c, 6, 44, 0
1, 91226, Note_on_c, 2, 80, 0
1, 91280, Note_on_c, 0, 61, 0
1, 91284, Note_on_c, 0, 63, 0
1, 91290, Note_on_c, 2, 89, 0
1, 91294, Note_on_c, 0, 56, 0
1, 91296, Note_on_c, 1, 39, 0
1, 91298, Note_on_c, 2, 85, 0
1, 91314, Note_on_c, 6, 60, 87
1, 91314, Note_on_c, 1, 32, 110
1, 91314, Note_on_c, 0, 44, 113
1, 91314, Note_on_c, 6, 63, 78
1, 91314, Note_on_c, 9, 42, 69
1, 91314, Note_on_c, 6, 56, 84
1, 91314, Note_on_c, 2, 80, 77
1, 91326, Note_on_c, 9, 42, 0
1, 91376, Note_on_c, 2, 80, 0
1, 91480, Note_on_c, 1, 32, 0
1, 91482, Note_on_c, 0, 44, 0
1, 91506, Note_on_c, 1, 36, 107
1, 91506, Note_on_c, 9, 35, 106
1, 91506, Note_on_c, 6, 56, 96
1, 91506, Note_on_c, 2, 84, 105
1, 91506, Note_on_c, 0, 63, 95
1, 91506, Note_on_c, 9, 42, 84
1, 91506, Note_on_c, 0, 60, 107
1, 91506, Note_on_c, 6, 60, 107
1, 91506, Note_on_c, 0, 56, 104
1, 91506, Note_on_c, 2, 80, 102
1, 91506, Note_on_c, 2, 87, 95
1, 91506, Note_on_c, 6, 63, 105
1, 91516, Note_on_c, 6, 63, 0
1, 91516, Note_on_c, 6, 60, 0
1, 91516, Note_on_c, 6, 56, 0
1, 91518, Note_on_c, 9, 42, 0
1, 91518, Note_on_c, 9, 35, 0
1, 91642, Note_on_c, 2, 80, 0
1, 91648, Note_on_c, 2, 84, 0
1, 91648, Note_on_c, 1, 36, 0
1, 91658, Note_on_c, 0, 56, 0
1, 91682, Note_on_c, 2, 87, 0
1, 91698, Note_on_c, 6, 63, 110
1, 91698, Note_on_c, 1, 39, 105
1, 91698, Note_on_c, 9, 42, 71
1, 91698, Note_on_c, 6, 56, 98
1, 91698, Note_on_c, 0, 56, 84
1, 91698, Note_on_c, 9, 35, 99
1, 91698, Note_on_c, 6, 60, 110
1, 91708, Note_on_c, 6, 60, 0
1, 91708, Note_on_c, 6, 63, 0
1, 91708, Note_on_c, 6, 56, 0
1, 91710, Note_on_c, 9, 42, 0
1, 91710, Note_on_c, 9, 35, 0
1, 91772, Note_on_c, 0, 60, 0
1, 91778, Note_on_c, 0, 63, 0
1, 91808, Note_on_c, 0, 56, 0
1, 91884, Note_on_c, 1, 39, 0
1, 91890, Note_on_c, 2, 87, 95
1, 91890, Note_on_c, 6, 44, 110
1, 91890, Note_on_c, 9, 42, 90
1, 91890, Note_on_c, 9, 40, 122
1, 91890, Note_on_c, 2, 80, 98
1, 91890, Note_on_c, 0, 60, 91
1, 91890, Note_on_c, 6, 51, 110
1, 91890, Note_on_c, 1, 32, 90
1, 91890, Note_on_c, 9, 54, 115
1, 91890, Note_on_c, 2, 84, 101
1, 91890, Note_on_c, 0, 63, 79
1, 91890, Note_on_c, 0, 56, 96
1, 91900, Note_on_c, 6, 63, 0
1, 91900, Note_on_c, 6, 60, 0
1, 91900, Note_on_c, 6, 56, 0
1, 91902, Note_on_c, 9, 40, 0
1, 91902, Note_on_c, 9, 42, 0
1, 91902, Note_on_c, 9, 54, 0
1, 91938, Note_on_c, 0, 60, 0
1, 91948, Note_on_c, 6, 51, 0
1, 91948, Note_on_c, 6, 44, 0
1, 91952, Note_on_c, 0, 63, 0
1, 91962, Note_on_c, 0, 56, 0
1, 91992, Note_on_c, 1, 32, 0
1, 92010, Note_on_c, 2, 80, 0
1, 92032, Note_on_c, 2, 84, 0
1, 92060, Note_on_c, 2, 87, 0
1, 92082, Note_on_c, 1, 32, 118
1, 92082, Note_on_c, 9, 42, 74
1, 92082, Note_on_c, 6, 63, 87
1, 92082, Note_on_c, 2, 80, 76
1, 92082, Note_on_c, 6, 58, 81
1, 92082, Note_on_c, 0, 56, 110
1, 92082, Note_on_c, 0, 61, 117
1, 92082, Note_on_c, 6, 61, 87
1, 92082, Note_on_c, 0, 63, 119
1, 92094, Note_on_c, 9, 42, 0
1, 92140, Note_on_c, 2, 80, 0
1, 92274, Note_on_c, 2, 80, 97
1, 92274, Note_on_c, 6, 58, 97
1, 92274, Note_on_c, 6, 61, 103
1, 92274, Note_on_c, 2, 85, 95
1, 92274, Note_on_c, 6, 63, 102
1, 92274, Note_on_c, 9, 35, 109
1, 92274, Note_on_c, 2, 89, 89
1, 92274, Note_on_c, 0, 44, 102
1, 92274, Note_on_c, 9, 42, 83
1, 92284, Note_on_c, 6, 63, 0
1, 92284, Note_on_c, 6, 61, 0
1, 92284, Note_on_c, 6, 58, 0
1, 92286, Note_on_c, 9, 42, 0
1, 92286, Note_on_c, 9, 35, 0
1, 92324, Note_on_c, 0, 56, 0
1, 92450, Note_on_c, 2, 80, 0
1, 92450, Note_on_c, 2, 85, 0
1, 92452, Note_on_c, 1, 32, 0
1, 92456, Note_on_c, 2, 89, 0
1, 92464, Note_on_c, 0, 61, 0
1, 92466, Note_on_c, 9, 42, 72
1, 92466, Note_on_c, 1, 36, 106
1, 92466, Note_on_c, 0, 56, 87
1, 92466, Note_on_c, 6, 58, 93
1, 92466, Note_on_c, 6, 63, 100
1, 92466, Note_on_c, 6, 61, 100
1, 92466, Note_on_c, 9, 35, 97
1, 92476, Note_on_c, 6, 61, 0
1, 92476, Note_on_c, 6, 63, 0
1, 92476, Note_on_c, 6, 58, 0
1, 92478, Note_on_c, 9, 42, 0
1, 92478, Note_on_c, 9, 35, 0
1, 92498, Note_on_c, 0, 63, 0
1, 92566, Note_on_c, 0, 56, 0
1, 92614, Note_on_c, 1, 36, 0
1, 92658, Note_on_c, 1, 39, 107
1, 92658, Note_on_c, 2, 80, 92
1, 92658, Note_on_c, 0, 56, 98
1, 92658, Note_on_c, 2, 89, 95
1, 92658, Note_on_c, 0, 63, 105
1, 92658, Note_on_c, 9, 42, 92
1, 92658, Note_on_c, 6, 51, 110
1, 92658, Note_on_c, 2, 85, 96
1, 92658, Note_on_c, 0, 60, 100
1, 92658, Note_on_c, 6, 44, 110
1, 92658, Note_on_c, 9, 54, 113
1, 92658, Note_on_c, 9, 40, 120
1, 92662, Note_on_c, 0, 44, 0
1, 92668, Note_on_c, 6, 61, 0
1, 92668, Note_on_c, 6, 58, 0
1, 92668, Note_on_c, 6, 63, 0
1, 92670, Note_on_c, 9, 54, 0
1, 92670, Note_on_c, 9, 40, 0
1, 92670, Note_on_c, 9, 42, 0
1, 92716, Note_on_c, 6, 44, 0
1, 92716, Note_on_c, 6, 51, 0
1, 92760, Note_on_c, 2, 80, 0
1, 92792, Note_on_c, 2, 85, 0
1, 92810, Note_on_c, 2, 89, 0
1, 92812, Note_on_c, 1, 39, 0
1, 92850, Note_on_c, 6, 63, 76
1, 92850, Note_on_c, 0, 44, 98
1, 92850, Note_on_c, 6, 56, 80
1, 92850, Note_on_c, 2, 80, 78
1, 92850, Note_on_c, 9, 42, 73
1, 92850, Note_on_c, 1, 32, 115
1, 92850, Note_on_c, 6, 60, 83
1, 92856, Note_on_c, 0, 56, 0
1, 92862, Note_on_c, 9, 42, 0
1, 92906, Note_on_c, 0, 60, 0
1, 92908, Note_on_c, 2, 80, 0
1, 92984, Note_on_c, 0, 63, 0
1, 93018, Note_on_c, 1, 32, 0
1, 93042, Note_on_c, 6, 56, 102
1, 93042, Note_on_c, 6, 63, 107
1, 93042, Note_on_c, 9, 35, 107
1, 93042, Note_on_c, 2, 80, 106
1, 93042, Note_on_c, 2, 84, 105
1, 93042, Note_on_c, 6, 60, 109
1, 93042, Note_on_c, 0, 63, 31
1, 93042, Note_on_c, 9, 42, 77
1, 93042, Note_on_c, 2, 87, 99
1, 93042, Note_on_c, 1, 36, 104
1, 93042, Note_on_c, 0, 56, 87
1, 93052, Note_on_c, 6, 60, 0
1, 93052, Note_on_c, 6, 56, 0
1, 93052, Note_on_c, 6, 63, 0
1, 93054, Note_on_c, 9, 35, 0
1, 93054, Note_on_c, 9, 42, 0
1, 93090, Note_on_c, 0, 63, 0
1, 93140, Note_on_c, 0, 56, 0
1, 93196, Note_on_c, 2, 84, 0
1, 93198, Note_on_c, 2, 87, 0
1, 93208, Note_on_c, 2, 80, 0
1, 93222, Note_on_c, 1, 36, 0
1, 93234, Note_on_c, 9, 35, 95
1, 93234, Note_on_c, 9, 42, 71
1, 93234, Note_on_c, 1, 39, 114
1, 93234, Note_on_c, 6, 56, 98
1, 93234, Note_on_c, 0, 56, 104
1, 93234, Note_on_c, 0, 63, 101
1, 93234, Note_on_c, 6, 63, 100
1, 93234, Note_on_c, 0, 60, 107
1, 93234, Note_on_c, 6, 60, 101
1, 93244, Note_on_c, 6, 60, 0
1, 93244, Note_on_c, 6, 63, 0
1, 93244, Note_on_c, 6, 56, 0
1, 93246, Note_on_c, 9, 42, 0
1, 93246, Note_on_c, 9, 35, 0
1, 93262, Note_on_c, 0, 44, 0
1, 93394, Note_on_c, 1, 39, 0
1, 93426, Note_on_c, 9, 40, 127
1, 93426, Note_on_c, 0, 44, 100
1, 93426, Note_on_c, 2, 87, 95
1, 93426, Note_on_c, 1, 32, 106
1, 93426, Note_on_c, 6, 51, 110
1, 93426, Note_on_c, 2, 84, 97
1, 93426, Note_on_c, 2, 80, 95
1, 93426, Note_on_c, 9, 54, 115
1, 93426, Note_on_c, 9, 42, 91
1, 93426, Note_on_c, 6, 44, 110
1, 93436, Note_on_c, 6, 56, 0
1, 93436, Note_on_c, 6, 60, 0
1, 93436, Note_on_c, 6, 63, 0
1, 93438, Note_on_c, 9, 42, 0
1, 93438, Note_on_c, 9, 54, 0
1, 93438, Note_on_c, 9, 40, 0
1, 93456, Note_on_c, 0, 56, 0
1, 93484, Note_on_c, 6, 44, 0
1, 93484, Note_on_c, 6, 51, 0
1, 93550, Note_on_c, 0, 60, 0
1, 93564, Note_on_c, 0, 44, 0
1, 93564, Note_on_c, 2, 80, 0
1, 93582, Note_on_c, 1, 32, 0
1, 93584, Note_on_c, 2, 84, 0
1, 93598, Note_on_c, 2, 87, 0
1, 93618, Note_on_c, 6, 56, 80
1, 93618, Note_on_c, 6, 65, 81
1, 93618, Note_on_c, 6, 61, 85
1, 93618, Note_on_c, 1, 32, 101
1, 93618, Note_on_c, 9, 46, 70
1, 93618, Note_on_c, 0, 56, 87
1, 93618, Note_on_c, 2, 80, 82
1, 93618, Note_on_c, 0, 44, 89
1, 93630, Note_on_c, 9, 46, 0
1, 93680, Note_on_c, 0, 63, 0
1, 93696, Note_on_c, 2, 80, 0
1, 93710, Note_on_c, 0, 56, 0
1, 93752, Note_on_c, 0, 44, 0
1, 93766, Note_on_c, 1, 32, 0
1, 93810, Note_on_c, 2, 80, 96
1, 93810, Note_on_c, 2, 85, 95
1, 93810, Note_on_c, 2, 89, 95
1, 93810, Note_on_c, 6, 56, 93
1, 93810, Note_on_c, 0, 65, 103
1, 93810, Note_on_c, 4, 80, 94
1, 93810, Note_on_c, 4, 68, 96
1, 93810, Note_on_c, 6, 65, 83
1, 93810, Note_on_c, 6, 61, 93
1, 93810, Note_on_c, 0, 61, 108
1, 93810, Note_on_c, 9, 35, 101
1, 93810, Note_on_c, 0, 56, 105
1, 93810, Note_on_c, 5, 68, 102
1, 93810, Note_on_c, 5, 61, 98
1, 93810, Note_on_c, 0, 49, 105
1, 93810, Note_on_c, 9, 49, 92
1, 93810, Note_on_c, 1, 37, 110
1, 93810, Note_on_c, 5, 65, 105
1, 93810, Note_on_c, 4, 80, 0
1, 93810, Note_on_c, 4, 68, 0
1, 93820, Note_on_c, 6, 56, 0
1, 93820, Note_on_c, 6, 65, 0
1, 93820, Note_on_c, 6, 61, 0
1, 93822, Note_on_c, 9, 35, 0
1, 93822, Note_on_c, 9, 49, 0
1, 93910, Note_on_c, 5, 65, 0
1, 93916, Note_on_c, 5, 61, 0
1, 93920, Note_on_c, 5, 68, 0
1, 93938, Note_on_c, 0, 56, 0
1, 93990, Note_on_c, 1, 37, 0
1, 93996, Note_on_c, 2, 85, 0
1, 94002, Note_on_c, 6, 61, 97
1, 94002, Note_on_c, 6, 65, 98
1, 94002, Note_on_c, 0, 56, 87
1, 94002, Note_on_c, 1, 37, 103
1, 94002, Note_on_c, 9, 35, 85
1, 94002, Note_on_c, 6, 56, 100
1, 94002, Note_on_c, 2, 89, 0
1, 94008, Note_on_c, 2, 80, 0
1, 94010, Note_on_c, 0, 61, 0
1, 94012, Note_on_c, 6, 56, 0
1, 94012, Note_on_c, 6, 61, 0
1, 94012, Note_on_c, 6, 65, 0
1, 94014, Note_on_c, 9, 35, 0
1, 94072, Note_on_c, 0, 65, 0
1, 94086, Note_on_c, 0, 56, 0
1, 94152, Note_on_c, 1, 37, 0
1, 94154, Note_on_c, 0, 49, 0
1, 94194, Note_on_c, 9, 42, 77
1, 94194, Note_on_c, 0, 56, 110
1, 94194, Note_on_c, 9, 40, 114
1, 94194, Note_on_c, 1, 41, 103
1, 94194, Note_on_c, 2, 80, 91
1, 94194, Note_on_c, 0, 65, 106
1, 94194, Note_on_c, 2, 85, 98
1, 94194, Note_on_c, 6, 56, 110
1, 94194, Note_on_c, 2, 89, 101
1, 94194, Note_on_c, 9, 54, 115
1, 94194, Note_on_c, 0, 61, 110
1, 94194, Note_on_c, 6, 49, 110
1, 94204, Note_on_c, 6, 56, 0
1, 94204, Note_on_c, 6, 61, 0
1, 94204, Note_on_c, 6, 65, 0
1, 94206, Note_on_c, 9, 40, 0
1, 94206, Note_on_c, 9, 42, 0
1, 94206, Note_on_c, 9, 54, 0
1, 94252, Note_on_c, 6, 49, 0
1, 94252, Note_on_c, 6, 56, 0
1, 94342, Note_on_c, 2, 80, 0
1, 94342, Note_on_c, 0, 61, 0
1, 94376, Note_on_c, 0, 65, 0
1, 94382, Note_on_c, 0, 56, 0
1, 94384, Note_on_c, 2, 89, 0
1, 94386, Note_on_c, 5, 68, 105
1, 94386, Note_on_c, 1, 44, 105
1, 94386, Note_on_c, 5, 63, 105
1, 94386, Note_on_c, 6, 56, 86
1, 94386, Note_on_c, 9, 42, 61
1, 94386, Note_on_c, 5, 60, 99
1, 94386, Note_on_c, 0, 44, 92
1, 94386, Note_on_c, 6, 60, 89
1, 94386, Note_on_c, 2, 80, 81
1, 94386, Note_on_c, 6, 63, 85
1, 94390, Note_on_c, 2, 85, 0
1, 94396, Note_on_c, 1, 41, 0
1, 94398, Note_on_c, 9, 42, 0
1, 94458, Note_on_c, 2, 80, 0
1, 94464, Note_on_c, 5, 63, 0
1, 94466, Note_on_c, 5, 60, 0
1, 94482, Note_on_c, 5, 68, 0
1, 94570, Note_on_c, 1, 44, 0
1, 94578, Note_on_c, 1, 32, 113
1, 94578, Note_on_c, 9, 35, 103
1, 94578, Note_on_c, 2, 87, 89
1, 94578, Note_on_c, 9, 42, 76
1, 94578, Note_on_c, 2, 84, 99
1, 94578, Note_on_c, 6, 56, 98
1, 94578, Note_on_c, 0, 60, 93
1, 94578, Note_on_c, 0, 56, 80
1, 94578, Note_on_c, 2, 80, 104
1, 94578, Note_on_c, 6, 60, 96
1, 94578, Note_on_c, 0, 63, 92
1, 94578, Note_on_c, 6, 63, 100
1, 94588, Note_on_c, 6, 63, 0
1, 94588, Note_on_c, 6, 60, 0
1, 94588, Note_on_c, 6, 56, 0
1, 94590, Note_on_c, 9, 35, 0
1, 94590, Note_on_c, 9, 42, 0
1, 94664, Note_on_c, 0, 63, 0
1, 94668, Note_on_c, 0, 60, 0
1, 94668, Note_on_c, 0, 56, 0
1, 94738, Note_on_c, 1, 32, 0
1, 94746, Note_on_c, 2, 84, 0
1, 94754, Note_on_c, 2, 87, 0
1, 94754, Note_on_c, 2, 80, 0
1, 94770, Note_on_c, 0, 60, 116
1, 94770, Note_on_c, 9, 35, 91
1, 94770, Note_on_c, 0, 56, 110
1, 94770, Note_on_c, 9, 42, 54
1, 94770, Note_on_c, 6, 56, 91
1, 94770, Note_on_c, 1, 32, 102
1, 94770, Note_on_c, 6, 60, 99
1, 94770, Note_on_c, 6, 63, 105
1, 94770, Note_on_c, 0, 63, 115
1, 94780, Note_on_c, 6, 63, 0
1, 94780, Note_on_c, 6, 60, 0
1, 94780, Note_on_c, 6, 56, 0
1, 94782, Note_on_c, 9, 42, 0
1, 94782, Note_on_c, 9, 35, 0
1, 94806, Note_on_c, 0, 44, 0
1, 94930, Note_on_c, 1, 32, 0
1, 94962, Note_on_c, 9, 40, 111
1, 94962, Note_on_c, 2, 87, 95
1, 94962, Note_on_c, 6, 44, 110
1, 94962, Note_on_c, 6, 51, 110
1, 94962, Note_on_c, 0, 44, 98
1, 94962, Note_on_c, 9, 54, 113
1, 94962, Note_on_c, 2, 80, 93
1, 94962, Note_on_c, 9, 42, 82
1, 94962, Note_on_c, 2, 84, 102
1, 94962, Note_on_c, 1, 36, 113
1, 94972, Note_on_c, 6, 56, 0
1, 94972, Note_on_c, 6, 63, 0
1, 94972, Note_on_c, 6, 60, 0
1, 94974, Note_on_c, 9, 42, 0
1, 94974, Note_on_c, 9, 40, 0
1, 94974, Note_on_c, 9, 54, 0
1, 94992, Note_on_c, 0, 60, 0
1, 95018, Note_on_c, 0, 63, 0
1, 95020, Note_on_c, 0, 56, 0
1, 95020, Note_on_c, 6, 44, 0
1, 95020, Note_on_c, 6, 51, 0
1, 95128, Note_on_c, 1, 36, 0
1, 95142, Note_on_c, 2, 84, 0
1, 95142, Note_on_c, 2, 80, 0
1, 95146, Note_on_c, 0, 44, 0
1, 95150, Note_on_c, 2, 87, 0
1, 95154, Note_on_c, 0, 61, 126
1, 95154, Note_on_c, 9, 42, 58
1, 95154, Note_on_c, 0, 58, 113
1, 95154, Note_on_c, 0, 54, 110
1, 95154, Note_on_c, 6, 54, 81
1, 95154, Note_on_c, 6, 58, 88
1, 95154, Note_on_c, 1, 39, 104
1, 95154, Note_on_c, 6, 61, 85
1, 95166, Note_on_c, 9, 42, 0
1, 95324, Note_on_c, 1, 39, 0
1, 95346, Note_on_c, 4, 82, 101
1, 95346, Note_on_c, 0, 42, 98
1, 95346, Note_on_c, 9, 42, 77
1, 95346, Note_on_c, 4, 70, 95
1, 95346, Note_on_c, 2, 87, 100
1, 95346, Note_on_c, 5, 61, 113
1, 95346, Note_on_c, 1, 30, 104
1, 95346, Note_on_c, 2, 82, 95
1, 95346, Note_on_c, 5, 66, 112
1, 95346, Note_on_c, 2, 90, 101
1, 95346, Note_on_c, 9, 35, 103
1, 95346, Note_on_c, 6, 54, 97
1, 95346, Note_on_c, 6, 61, 111
1, 95346, Note_on_c, 5, 58, 107
1, 95346, Note_on_c, 6, 58, 107
1, 95346, Note_on_c, 4, 68, 0
1, 95346, Note_on_c, 4, 80, 0
1, 95356, Note_on_c, 6, 58, 0
1, 95356, Note_on_c, 6, 54, 0
1, 95356, Note_on_c, 6, 61, 0
1, 95358, Note_on_c, 9, 35, 0
1, 95358, Note_on_c, 9, 42, 0
1, 95374, Note_on_c, 0, 54, 0
1, 95422, Note_on_c, 0, 58, 0
1, 95426, Note_on_c, 5, 61, 0
1, 95456, Note_on_c, 5, 66, 0
1, 95456, Note_on_c, 5, 58, 0
1, 95508, Note_on_c, 1, 30, 0
1, 95518, Note_on_c, 2, 87, 0
1, 95520, Note_on_c, 0, 61, 0
1, 95530, Note_on_c, 2, 90, 0
1, 95534, Note_on_c, 2, 82, 0
1, 95538, Note_on_c, 6, 58, 107
1, 95538, Note_on_c, 6, 61, 103
1, 95538, Note_on_c, 9, 42, 69
1, 95538, Note_on_c, 6, 54, 93
1, 95538, Note_on_c, 1, 30, 109
1, 95538, Note_on_c, 0, 54, 95
1, 95538, Note_on_c, 9, 35, 91
1, 95548, Note_on_c, 6, 54, 0
1, 95548, Note_on_c, 6, 61, 0
1, 95548, Note_on_c, 6, 58, 0
1, 95550, Note_on_c, 9, 42, 0
1, 95550, Note_on_c, 9, 35, 0
1, 95634, Note_on_c, 0, 54, 0
1, 95710, Note_on_c, 1, 30, 0
1, 95730, Note_on_c, 0, 61, 121
1, 95730, Note_on_c, 9, 54, 110
1, 95730, Note_on_c, 2, 82, 95
1, 95730, Note_on_c, 6, 49, 110
1, 95730, Note_on_c, 1, 34, 106
1, 95730, Note_on_c, 0, 58, 105
1, 95730, Note_on_c, 6, 42, 110
1, 95730, Note_on_c, 9, 42, 96
1, 95730, Note_on_c, 9, 40, 120
1, 95730, Note_on_c, 0, 54, 105
1, 95730, Note_on_c, 2, 87, 98
1, 95730, Note_on_c, 2, 90, 99
1, 95740, Note_on_c, 6, 54, 0
1, 95740, Note_on_c, 6, 58, 0
1, 95740, Note_on_c, 6, 61, 0
1, 95742, Note_on_c, 9, 54, 0
1, 95742, Note_on_c, 9, 40, 0
1, 95742, Note_on_c, 9, 42, 0
1, 95788, Note_on_c, 6, 49, 0
1, 95788, Note_on_c, 6, 42, 0
1, 95808, Note_on_c, 0, 54, 0
1, 95812, Note_on_c, 0, 58, 0
1, 95836, Note_on_c, 0, 61, 0
1, 95870, Note_on_c, 0, 42, 0
1, 95874, Note_on_c, 1, 34, 0
1, 95918, Note_on_c, 2, 87, 0
1, 95922, Note_on_c, 6, 65, 87
1, 95922, Note_on_c, 6, 56, 87
1, 95922, Note_on_c, 9, 42, 66
1, 95922, Note_on_c, 6, 61, 88
1, 95922, Note_on_c, 5, 65, 110
1, 95922, Note_on_c, 1, 37, 104
1, 95922, Note_on_c, 0, 49, 108
1, 95922, Note_on_c, 5, 56, 105
1, 95922, Note_on_c, 5, 61, 108
1, 95922, Note_on_c, 2, 90, 0
1, 95934, Note_on_c, 2, 82, 0
1, 95934, Note_on_c, 9, 42, 0
1, 96022, Note_on_c, 5, 56, 0
1, 96022, Note_on_c, 5, 61, 0
1, 96048, Note_on_c, 5, 65, 0
1, 96098, Note_on_c, 1, 37, 0
1, 96114, Note_on_c, 0, 61, 107
1, 96114, Note_on_c, 4, 68, 96
1, 96114, Note_on_c, 0, 56, 104
1, 96114, Note_on_c, 4, 80, 91
1, 96114, Note_on_c, 6, 61, 106
1, 96114, Note_on_c, 6, 56, 100
1, 96114, Note_on_c, 0, 65, 99
1, 96114, Note_on_c, 2, 85, 100
1, 96114, Note_on_c, 2, 89, 99
1, 96114, Note_on_c, 1, 37, 113
1, 96114, Note_on_c, 9, 35, 109
1, 96114, Note_on_c, 2, 80, 95
1, 96114, Note_on_c, 6, 65, 102
1, 96114, Note_on_c, 9, 42, 86
1, 96114, Note_on_c, 4, 70, 0
1, 96114, Note_on_c, 4, 82, 0
1, 96124, Note_on_c, 6, 65, 0
1, 96124, Note_on_c, 6, 61, 0
1, 96124, Note_on_c, 6, 56, 0
1, 96126, Note_on_c, 9, 35, 0
1, 96126, Note_on_c, 9, 42, 0
1, 96162, Note_on_c, 0, 49, 0
1, 96274, Note_on_c, 2, 85, 0
1, 96280, Note_on_c, 2, 89, 0
1, 96290, Note_on_c, 2, 80, 0
1, 96292, Note_on_c, 0, 56, 0
1, 96306, Note_on_c, 0, 49, 101
1, 96306, Note_on_c, 6, 61, 101
1, 96306, Note_on_c, 6, 56, 98
1, 96306, Note_on_c, 6, 65, 105
1, 96306, Note_on_c, 9, 35, 89
1, 96306, Note_on_c, 9, 42, 77
1, 96306, Note_on_c, 1, 37, 110
1, 96306, Note_on_c, 1, 37, 0
1, 96316, Note_on_c, 6, 56, 0
1, 96316, Note_on_c, 6, 61, 0
1, 96316, Note_on_c, 6, 65, 0
1, 96318, Note_on_c, 9, 35, 0
1, 96318, Note_on_c, 9, 42, 0
1, 96376, Note_on_c, 0, 65, 0
1, 96380, Note_on_c, 0, 61, 0
1, 96456, Note_on_c, 0, 49, 0
1, 96464, Note_on_c, 1, 37, 0
1, 96498, Note_on_c, 0, 56, 97
1, 96498, Note_on_c, 0, 65, 93
1, 96498, Note_on_c, 2, 85, 97
1, 96498, Note_on_c, 6, 56, 110
1, 96498, Note_on_c, 2, 80, 95
1, 96498, Note_on_c, 9, 42, 91
1, 96498, Note_on_c, 6, 49, 110
1, 96498, Note_on_c, 9, 40, 124
1, 96498, Note_on_c, 0, 61, 98
1, 96498, Note_on_c, 9, 54, 112
1, 96498, Note_on_c, 2, 89, 97
1, 96498, Note_on_c, 1, 41, 110
1, 96508, Note_on_c, 6, 56, 0
1, 96508, Note_on_c, 6, 61, 0
1, 96508, Note_on_c, 6, 65, 0
1, 96510, Note_on_c, 9, 42, 0
1, 96510, Note_on_c, 9, 54, 0
1, 96510, Note_on_c, 9, 40, 0
1, 96556, Note_on_c, 6, 56, 0
1, 96556, Note_on_c, 6, 49, 0
1, 96630, Note_on_c, 0, 61, 0
1, 96632, Note_on_c, 0, 65, 0
1, 96634, Note_on_c, 0, 56, 0
1, 96664, Note_on_c, 2, 85, 0
1, 96666, Note_on_c, 2, 89, 0
1, 96670, Note_on_c, 1, 41, 0
1, 96690, Note_on_c, 6, 56, 85
1, 96690, Note_on_c, 9, 42, 70
1, 96690, Note_on_c, 6, 63, 90
1, 96690, Note_on_c, 6, 61, 91
1, 96690, Note_on_c, 0, 49, 95
1, 96690, Note_on_c, 4, 82, 95
1, 96690, Note_on_c, 4, 70, 89
1, 96690, Note_on_c, 1, 44, 109
1, 96690, Note_on_c, 4, 80, 0
1, 96690, Note_on_c, 4, 68, 0
1, 96692, Note_on_c, 2, 80, 0
1, 96702, Note_on_c, 9, 42, 0
1, 96796, Note_on_c, 0, 49, 0
1, 96862, Note_on_c, 1, 44, 0
1, 96882, Note_on_c, 6, 56, 91
1, 96882, Note_on_c, 9, 35, 107
1, 96882, Note_on_c, 2, 80, 94
1, 96882, Note_on_c, 0, 44, 98
1, 96882, Note_on_c, 0, 61, 105
1, 96882, Note_on_c, 0, 56, 104
1, 96882, Note_on_c, 5, 56, 105
1, 96882, Note_on_c, 0, 63, 107
1, 96882, Note_on_c, 1, 32, 115
1, 96882, Note_on_c, 2, 85, 95
1, 96882, Note_on_c, 9, 42, 80
1, 96882, Note_on_c, 5, 65, 103
1, 96882, Note_on_c, 5, 61, 101
1, 96882, Note_on_c, 6, 63, 94
1, 96882, Note_on_c, 2, 89, 95
1, 96882, Note_on_c, 6, 61, 91
1, 96892, Note_on_c, 6, 61, 0
1, 96892, Note_on_c, 6, 63, 0
1, 96892, Note_on_c, 6, 56, 0
1, 96894, Note_on_c, 9, 42, 0
1, 96894, Note_on_c, 9, 35, 0
1, 96956, Note_on_c, 5, 61, 0
1, 96966, Note_on_c, 5, 56, 0
1, 96996, Note_on_c, 5, 65, 0
1, 97010, Note_on_c, 0, 56, 0
1, 97038, Note_on_c, 1, 32, 0
1, 97040, Note_on_c, 0, 61, 0
1, 97074, Note_on_c, 1, 36, 103
1, 97074, Note_on_c, 0, 56, 83
1, 97074, Note_on_c, 9, 42, 70
1, 97074, Note_on_c, 6, 56, 85
1, 97074, Note_on_c, 6, 63, 103
1, 97074, Note_on_c, 6, 61, 105
1, 97074, Note_on_c, 9, 35, 96
1, 97078, Note_on_c, 2, 85, 0
1, 97082, Note_on_c, 2, 89, 0
1, 97084, Note_on_c, 6, 61, 0
1, 97084, Note_on_c, 6, 63, 0
1, 97084, Note_on_c, 6, 56, 0
1, 97086, Note_on_c, 9, 35, 0
1, 97086, Note_on_c, 2, 80, 0
1, 97086, Note_on_c, 9, 42, 0
1, 97144, Note_on_c, 0, 63, 0
1, 97172, Note_on_c, 0, 56, 0
1, 97240, Note_on_c, 1, 36, 0
1, 97266, Note_on_c, 2, 89, 100
1, 97266, Note_on_c, 4, 80, 85
1, 97266, Note_on_c, 9, 40, 120
1, 97266, Note_on_c, 4, 68, 91
1, 97266, Note_on_c, 0, 56, 107
1, 97266, Note_on_c, 9, 42, 86
1, 97266, Note_on_c, 1, 39, 110
1, 97266, Note_on_c, 2, 80, 95
1, 97266, Note_on_c, 0, 63, 98
1, 97266, Note_on_c, 0, 61, 105
1, 97266, Note_on_c, 6, 51, 110
1, 97266, Note_on_c, 6, 44, 110
1, 97266, Note_on_c, 2, 85, 98
1, 97266, Note_on_c, 9, 54, 110
1, 97266, Note_on_c, 4, 70, 0
1, 97266, Note_on_c, 4, 82, 0
1, 97276, Note_on_c, 6, 56, 0
1, 97276, Note_on_c, 6, 63, 0
1, 97276, Note_on_c, 6, 61, 0
1, 97278, Note_on_c, 9, 40, 0
1, 97278, Note_on_c, 9, 54, 0
1, 97278, Note_on_c, 9, 42, 0
1, 97308, Note_on_c, 0, 44, 0
1, 97324, Note_on_c, 6, 51, 0
1, 97324, Note_on_c, 6, 44, 0
1, 97370, Note_on_c, 2, 80, 0
1, 97424, Note_on_c, 0, 63, 0
1, 97424, Note_on_c, 0, 61, 0
1, 97434, Note_on_c, 2, 89, 0
1, 97440, Note_on_c, 1, 39, 0
1, 97442, Note_on_c, 2, 85, 0
1, 97450, Note_on_c, 0, 56, 0
1, 97458, Note_on_c, 0, 44, 113
1, 97458, Note_on_c, 5, 60, 109
1, 97458, Note_on_c, 6, 63, 78
1, 97458, Note_on_c, 5, 63, 96
1, 97458, Note_on_c, 9, 42, 69
1, 97458, Note_on_c, 6, 60, 87
1, 97458, Note_on_c, 2, 80, 77
1, 97458, Note_on_c, 1, 32, 110
1, 97458, Note_on_c, 5, 56, 102
1, 97458, Note_on_c, 6, 56, 84
1, 97470, Note_on_c, 9, 42, 0
1, 97520, Note_on_c, 2, 80, 0
1, 97556, Note_on_c, 5, 56, 0
1, 97562, Note_on_c, 5, 60, 0
1, 97570, Note_on_c, 5, 63, 0
1, 97624, Note_on_c, 1, 32, 0
1, 97650, Note_on_c, 6, 56, 96
1, 97650, Note_on_c, 1, 36, 107
1, 97650, Note_on_c, 6, 60, 107
1, 97650, Note_on_c, 0, 60, 101
1, 97650, Note_on_c, 2, 80, 102
1, 97650, Note_on_c, 6, 63, 105
1, 97650, Note_on_c, 2, 84, 105
1, 97650, Note_on_c, 0, 56, 107
1, 97650, Note_on_c, 0, 63, 94
1, 97650, Note_on_c, 9, 42, 84
1, 97650, Note_on_c, 2, 87, 95
1, 97650, Note_on_c, 9, 35, 106
1, 97660, Note_on_c, 6, 63, 0
1, 97660, Note_on_c, 6, 56, 0
1, 97660, Note_on_c, 6, 60, 0
1, 97662, Note_on_c, 9, 35, 0
1, 97662, Note_on_c, 9, 42, 0
1, 97768, Note_on_c, 0, 56, 0
1, 97786, Note_on_c, 2, 80, 0
1, 97792, Note_on_c, 1, 36, 0
1, 97792, Note_on_c, 2, 84, 0
1, 97822, Note_on_c, 0, 60, 0
1, 97826, Note_on_c, 2, 87, 0
1, 97836, Note_on_c, 0, 63, 0
1, 97842, Note_on_c, 6, 63, 110
1, 97842, Note_on_c, 0, 56, 82
1, 97842, Note_on_c, 6, 56, 98
1, 97842, Note_on_c, 0, 60, 50
1, 97842, Note_on_c, 9, 35, 99
1, 97842, Note_on_c, 6, 60, 110
1, 97842, Note_on_c, 9, 42, 71
1, 97842, Note_on_c, 1, 39, 105
1, 97852, Note_on_c, 6, 60, 0
1, 97852, Note_on_c, 6, 63, 0
1, 97852, Note_on_c, 6, 56, 0
1, 97854, Note_on_c, 9, 35, 0
1, 97854, Note_on_c, 9, 42, 0
1, 97868, Note_on_c, 0, 60, 0
1, 97976, Note_on_c, 0, 56, 0
1, 98028, Note_on_c, 1, 39, 0
1, 98034, Note_on_c, 2, 84, 101
1, 98034, Note_on_c, 2, 87, 95
1, 98034, Note_on_c, 0, 63, 82
1, 98034, Note_on_c, 2, 80, 98
1, 98034, Note_on_c, 9, 42, 90
1, 98034, Note_on_c, 9, 40, 122
1, 98034, Note_on_c, 9, 54, 113
1, 98034, Note_on_c, 0, 56, 86
1, 98034, Note_on_c, 6, 51, 110
1, 98034, Note_on_c, 0, 60, 92
1, 98034, Note_on_c, 1, 32, 90
1, 98034, Note_on_c, 6, 44, 110
1, 98044, Note_on_c, 6, 60, 0
1, 98044, Note_on_c, 6, 63, 0
1, 98044, Note_on_c, 6, 56, 0
1, 98046, Note_on_c, 9, 42, 0
1, 98046, Note_on_c, 9, 54, 0
1, 98046, Note_on_c, 9, 40, 0
1, 98092, Note_on_c, 6, 44, 0
1, 98092, Note_on_c, 6, 51, 0
1, 98098, Note_on_c, 0, 56, 0
1, 98104, Note_on_c, 0, 63, 0
1, 98104, Note_on_c, 0, 60, 0
1, 98136, Note_on_c, 1, 32, 0
1, 98154, Note_on_c, 2, 80, 0
1, 98176, Note_on_c, 2, 84, 0
1, 98204, Note_on_c, 2, 87, 0
1, 98226, Note_on_c, 2, 80, 76
1, 98226, Note_on_c, 9, 42, 74
1, 98226, Note_on_c, 0, 63, 115
1, 98226, Note_on_c, 0, 56, 110
1, 98226, Note_on_c, 6, 61, 87
1, 98226, Note_on_c, 6, 63, 87
1, 98226, Note_on_c, 0, 61, 117
1, 98226, Note_on_c, 6, 58, 81
1, 98226, Note_on_c, 1, 32, 118
1, 98238, Note_on_c, 9, 42, 0
1, 98284, Note_on_c, 2, 80, 0
1, 98296, Note_on_c, 0, 44, 0
1, 98418, Note_on_c, 6, 61, 103
1, 98418, Note_on_c, 5, 56, 104
1, 98418, Note_on_c, 9, 35, 109
1, 98418, Note_on_c, 6, 58, 97
1, 98418, Note_on_c, 2, 80, 97
1, 98418, Note_on_c, 9, 42, 83
1, 98418, Note_on_c, 0, 44, 101
1, 98418, Note_on_c, 5, 61, 105
1, 98418, Note_on_c, 2, 89, 89
1, 98418, Note_on_c, 6, 63, 102
1, 98418, Note_on_c, 2, 85, 95
1, 98418, Note_on_c, 5, 65, 105
1, 98428, Note_on_c, 6, 63, 0
1, 98428, Note_on_c, 6, 58, 0
1, 98428, Note_on_c, 6, 61, 0
1, 98430, Note_on_c, 9, 35, 0
1, 98430, Note_on_c, 9, 42, 0
1, 98444, Note_on_c, 0, 61, 0
1, 98452, Note_on_c, 0, 56, 0
1, 98460, Note_on_c, 0, 63, 0
1, 98496, Note_on_c, 5, 56, 0
1, 98498, Note_on_c, 5, 61, 0
1, 98522, Note_on_c, 5, 65, 0
1, 98594, Note_on_c, 2, 85, 0
1, 98594, Note_on_c, 2, 80, 0
1, 98596, Note_on_c, 1, 32, 0
1, 98600, Note_on_c, 2, 89, 0
1, 98610, Note_on_c, 6, 61, 100
1, 98610, Note_on_c, 0, 61, 108
1, 98610, Note_on_c, 0, 56, 98
1, 98610, Note_on_c, 6, 63, 100
1, 98610, Note_on_c, 1, 36, 106
1, 98610, Note_on_c, 9, 35, 97
1, 98610, Note_on_c, 9, 42, 72
1, 98610, Note_on_c, 6, 58, 93
1, 98610, Note_on_c, 0, 63, 108
1, 98620, Note_on_c, 6, 58, 0
1, 98620, Note_on_c, 6, 61, 0
1, 98620, Note_on_c, 6, 63, 0
1, 98622, Note_on_c, 9, 35, 0
1, 98622, Note_on_c, 9, 42, 0
1, 98676, Note_on_c, 0, 56, 0
1, 98682, Note_on_c, 0, 61, 0
1, 98688, Note_on_c, 0, 63, 0
1, 98758, Note_on_c, 1, 36, 0
1, 98802, Note_on_c, 9, 54, 102
1, 98802, Note_on_c, 2, 89, 95
1, 98802, Note_on_c, 6, 44, 110
1, 98802, Note_on_c, 2, 80, 92
1, 98802, Note_on_c, 2, 85, 96
1, 98802, Note_on_c, 1, 39, 107
1, 98802, Note_on_c, 0, 56, 105
1, 98802, Note_on_c, 9, 40, 120
1, 98802, Note_on_c, 0, 60, 114
1, 98802, Note_on_c, 6, 51, 110
1, 98802, Note_on_c, 9, 42, 92
1, 98802, Note_on_c, 0, 63, 117
1, 98812, Note_on_c, 6, 61, 0
1, 98812, Note_on_c, 6, 58, 0
1, 98812, Note_on_c, 6, 63, 0
1, 98814, Note_on_c, 9, 42, 0
1, 98814, Note_on_c, 9, 40, 0
1, 98814, Note_on_c, 9, 54, 0
1, 98860, Note_on_c, 6, 51, 0
1, 98860, Note_on_c, 6, 44, 0
1, 98900, Note_on_c, 0, 44, 0
1, 98904, Note_on_c, 2, 80, 0
1, 98936, Note_on_c, 2, 85, 0
1, 98954, Note_on_c, 2, 89, 0
1, 98956, Note_on_c, 1, 39, 0
1, 98994, Note_on_c, 1, 32, 115
1, 98994, Note_on_c, 5, 56, 92
1, 98994, Note_on_c, 5, 63, 96
1, 98994, Note_on_c, 0, 44, 113
1, 98994, Note_on_c, 6, 56, 80
1, 98994, Note_on_c, 6, 63, 76
1, 98994, Note_on_c, 6, 60, 83
1, 98994, Note_on_c, 2, 80, 78
1, 98994, Note_on_c, 9, 42, 73
1, 98994, Note_on_c, 5, 60, 107
1, 99006, Note_on_c, 9, 42, 0
1, 99022, Note_on_c, 0, 60, 0
1, 99042, Note_on_c, 0, 63, 0
1, 99052, Note_on_c, 0, 56, 0
1, 99052, Note_on_c, 2, 80, 0
1, 99096, Note_on_c, 5, 56, 0
1, 99110, Note_on_c, 5, 60, 0
1, 99116, Note_on_c, 5, 63, 0
1, 99162, Note_on_c, 1, 32, 0
1, 99186, Note_on_c, 1, 36, 104
1, 99186, Note_on_c, 6, 63, 107
1, 99186, Note_on_c, 2, 84, 105
1, 99186, Note_on_c, 6, 56, 102
1, 99186, Note_on_c, 2, 80, 106
1, 99186, Note_on_c, 0, 56, 107
1, 99186, Note_on_c, 6, 60, 109
1, 99186, Note_on_c, 0, 58, 119
1, 99186, Note_on_c, 9, 42, 77
1, 99186, Note_on_c, 2, 87, 99
1, 99186, Note_on_c, 0, 63, 119
1, 99186, Note_on_c, 9, 35, 107
1, 99196, Note_on_c, 6, 60, 0
1, 99196, Note_on_c, 6, 63, 0
1, 99196, Note_on_c, 6, 56, 0
1, 99198, Note_on_c, 9, 35, 0
1, 99198, Note_on_c, 9, 42, 0
1, 99264, Note_on_c, 0, 44, 0
1, 99340, Note_on_c, 2, 84, 0
1, 99342, Note_on_c, 2, 87, 0
1, 99352, Note_on_c, 2, 80, 0
1, 99366, Note_on_c, 1, 36, 0
1, 99368, Note_on_c, 0, 58, 0
1, 99378, Note_on_c, 1, 39, 114
1, 99378, Note_on_c, 9, 42, 71
1, 99378, Note_on_c, 9, 35, 95
1, 99378, Note_on_c, 6, 63, 100
1, 99378, Note_on_c, 6, 56, 98
1, 99378, Note_on_c, 0, 44, 98
1, 99378, Note_on_c, 6, 60, 101
1, 99388, Note_on_c, 6, 60, 0
1, 99388, Note_on_c, 6, 56, 0
1, 99388, Note_on_c, 6, 63, 0
1, 99390, Note_on_c, 9, 35, 0
1, 99390, Note_on_c, 9, 42, 0
1, 99392, Note_on_c, 0, 63, 0
1, 99402, Note_on_c, 0, 56, 0
1, 99538, Note_on_c, 1, 39, 0
1, 99552, Note_on_c, 0, 44, 0
1, 99570, Note_on_c, 2, 80, 95
1, 99570, Note_on_c, 2, 84, 97
1, 99570, Note_on_c, 6, 44, 110
1, 99570, Note_on_c, 0, 60, 109
1, 99570, Note_on_c, 2, 87, 95
1, 99570, Note_on_c, 9, 40, 127
1, 99570, Note_on_c, 9, 42, 91
1, 99570, Note_on_c, 9, 54, 110
1, 99570, Note_on_c, 0, 56, 104
1, 99570, Note_on_c, 1, 32, 106
1, 99570, Note_on_c, 6, 51, 110
1, 99570, Note_on_c, 0, 63, 105
1, 99580, Note_on_c, 6, 56, 0
1, 99580, Note_on_c, 6, 63, 0
1, 99580, Note_on_c, 6, 60, 0
1, 99582, Note_on_c, 9, 40, 0
1, 99582, Note_on_c, 9, 54, 0
1, 99582, Note_on_c, 9, 42, 0
1, 99628, Note_on_c, 6, 51, 0
1, 99628, Note_on_c, 6, 44, 0
1, 99708, Note_on_c, 2, 80, 0
1, 99726, Note_on_c, 1, 32, 0
1, 99728, Note_on_c, 2, 84, 0
1, 99742, Note_on_c, 2, 87, 0
1, 99762, Note_on_c, 9, 46, 70
1, 99762, Note_on_c, 6, 56, 80
1, 99762, Note_on_c, 1, 32, 101
1, 99762, Note_on_c, 2, 80, 82
1, 99762, Note_on_c, 6, 61, 85
1, 99762, Note_on_c, 6, 65, 81
1, 99762, Note_on_c, 0, 44, 104
1, 99774, Note_on_c, 9, 46, 0
1, 99796, Note_on_c, 0, 60, 0
1, 99804, Note_on_c, 0, 56, 0
1, 99840, Note_on_c, 2, 80, 0
1, 99842, Note_on_c, 0, 63, 0
1, 99894, Note_on_c, 0, 44, 0
1, 99910, Note_on_c, 1, 32, 0
1, 99954, Note_on_c, 4, 68, 89
1, 99954, Note_on_c, 0, 49, 96
1, 99954, Note_on_c, 6, 56, 103
1, 99954, Note_on_c, 4, 80, 84
1, 99954, Note_on_c, 6, 65, 103
1, 99954, Note_on_c, 5, 65, 106
1, 99954, Note_on_c, 6, 61, 111
1, 99954, Note_on_c, 9, 42, 92
1, 99954, Note_on_c, 2, 80, 97
1, 99954, Note_on_c, 9, 35, 101
1, 99954, Note_on_c, 2, 85, 95
1, 99954, Note_on_c, 5, 61, 108
1, 99954, Note_on_c, 0, 65, 105
1, 99954, Note_on_c, 5, 56, 110
1, 99954, Note_on_c, 1, 37, 99
1, 99954, Note_on_c, 0, 56, 110
1, 99954, Note_on_c, 0, 61, 107
1, 99954, Note_on_c, 2, 89, 95
1, 99954, Note_on_c, 4, 80, 0
1, 99954, Note_on_c, 4, 68, 0
1, 99964, Note_on_c, 6, 56, 0
1, 99964, Note_on_c, 6, 65, 0
1, 99964, Note_on_c, 6, 61, 0
1, 99966, Note_on_c, 9, 42, 0
1, 99966, Note_on_c, 9, 35, 0
1, 100016, Note_on_c, 0, 61, 0
1, 100028, Note_on_c, 0, 56, 0
1, 100050, Note_on_c, 5, 61, 0
1, 100050, Note_on_c, 5, 56, 0
1, 100054, Note_on_c, 0, 65, 0
1, 100072, Note_on_c, 5, 65, 0
1, 100118, Note_on_c, 2, 85, 0
1, 100124, Note_on_c, 2, 89, 0
1, 100134, Note_on_c, 1, 37, 0
1, 100142, Note_on_c, 2, 80, 0
1, 100146, Note_on_c, 0, 61, 100
1, 100146, Note_on_c, 6, 65, 111
1, 100146, Note_on_c, 6, 56, 105
1, 100146, Note_on_c, 1, 41, 99
1, 100146, Note_on_c, 9, 42, 57
1, 100146, Note_on_c, 9, 35, 85
1, 100146, Note_on_c, 0, 65, 94
1, 100146, Note_on_c, 0, 56, 95
1, 100146, Note_on_c, 6, 61, 107
1, 100156, Note_on_c, 6, 61, 0
1, 100156, Note_on_c, 6, 65, 0
1, 100156, Note_on_c, 6, 56, 0
1, 100158, Note_on_c, 9, 42, 0
1, 100158, Note_on_c, 9, 35, 0
1, 100200, Note_on_c, 0, 61, 0
1, 100202, Note_on_c, 0, 56, 0
1, 100208, Note_on_c, 0, 65, 0
1, 100320, Note_on_c, 1, 41, 0
1, 100324, Note_on_c, 0, 49, 0
1, 100338, Note_on_c, 9, 42, 77
1, 100338, Note_on_c, 9, 40, 114
1, 100338, Note_on_c, 0, 65, 114
1, 100338, Note_on_c, 0, 61, 119
1, 100338, Note_on_c, 2, 85, 95
1, 100338, Note_on_c, 2, 89, 97
1, 100338, Note_on_c, 6, 56, 110
1, 100338, Note_on_c, 6, 49, 110
1, 100338, Note_on_c, 0, 56, 115
1, 100338, Note_on_c, 2, 80, 92
1, 100338, Note_on_c, 1, 44, 102
1, 100338, Note_on_c, 9, 54, 117
1, 100348, Note_on_c, 6, 56, 0
1, 100348, Note_on_c, 6, 65, 0
1, 100348, Note_on_c, 6, 61, 0
1, 100350, Note_on_c, 9, 54, 0
1, 100350, Note_on_c, 9, 42, 0
1, 100350, Note_on_c, 9, 40, 0
1, 100396, Note_on_c, 6, 56, 0
1, 100396, Note_on_c, 6, 49, 0
1, 100462, Note_on_c, 2, 80, 0
1, 100516, Note_on_c, 0, 61, 0
1, 100524, Note_on_c, 1, 44, 0
1, 100530, Note_on_c, 0, 44, 97
1, 100530, Note_on_c, 6, 63, 83
1, 100530, Note_on_c, 9, 42, 61
1, 100530, Note_on_c, 5, 56, 96
1, 100530, Note_on_c, 1, 32, 91
1, 100530, Note_on_c, 6, 60, 95
1, 100530, Note_on_c, 5, 63, 98
1, 100530, Note_on_c, 5, 60, 106
1, 100530, Note_on_c, 6, 56, 87
1, 100530, Note_on_c, 2, 80, 76
1, 100536, Note_on_c, 2, 89, 0
1, 100540, Note_on_c, 2, 85, 0
1, 100542, Note_on_c, 9, 42, 0
1, 100546, Note_on_c, 0, 65, 0
1, 100584, Note_on_c, 2, 80, 0
1, 100596, Note_on_c, 0, 56, 0
1, 100622, Note_on_c, 5, 56, 0
1, 100644, Note_on_c, 5, 60, 0
1, 100652, Note_on_c, 5, 63, 0
1, 100678, Note_on_c, 1, 32, 0
1, 100722, Note_on_c, 9, 42, 76
1, 100722, Note_on_c, 0, 60, 107
1, 100722, Note_on_c, 2, 87, 98
1, 100722, Note_on_c, 2, 84, 104
1, 100722, Note_on_c, 2, 80, 102
1, 100722, Note_on_c, 9, 35, 103
1, 100722, Note_on_c, 0, 63, 110
1, 100722, Note_on_c, 6, 56, 109
1, 100722, Note_on_c, 0, 56, 102
1, 100722, Note_on_c, 6, 60, 114
1, 100722, Note_on_c, 1, 32, 114
1, 100722, Note_on_c, 6, 63, 111
1, 100732, Note_on_c, 6, 63, 0
1, 100732, Note_on_c, 6, 60, 0
1, 100732, Note_on_c, 6, 56, 0
1, 100734, Note_on_c, 9, 35, 0
1, 100734, Note_on_c, 9, 42, 0
1, 100756, Note_on_c, 0, 44, 0
1, 100874, Note_on_c, 2, 84, 0
1, 100894, Note_on_c, 2, 87, 0
1, 100900, Note_on_c, 2, 80, 0
1, 100904, Note_on_c, 1, 32, 0
1, 100914, Note_on_c, 9, 42, 54
1, 100914, Note_on_c, 0, 44, 97
1, 100914, Note_on_c, 6, 56, 106
1, 100914, Note_on_c, 6, 60, 113
1, 100914, Note_on_c, 6, 63, 114
1, 100914, Note_on_c, 9, 35, 91
1, 100914, Note_on_c, 1, 36, 101
1, 100924, Note_on_c, 6, 63, 0
1, 100924, Note_on_c, 6, 60, 0
1, 100924, Note_on_c, 6, 56, 0
1, 100926, Note_on_c, 9, 42, 0
1, 100926, Note_on_c, 9, 35, 0
1, 100946, Note_on_c, 0, 56, 0
1, 100950, Note_on_c, 0, 60, 0
1, 100972, Note_on_c, 0, 63, 0
1, 101076, Note_on_c, 1, 36, 0
1, 101098, Note_on_c, 0, 44, 0
1, 101106, Note_on_c, 0, 56, 72
1, 101106, Note_on_c, 2, 80, 98
1, 101106, Note_on_c, 9, 40, 111
1, 101106, Note_on_c, 9, 42, 82
1, 101106, Note_on_c, 9, 54, 115
1, 101106, Note_on_c, 1, 39, 105
1, 101106, Note_on_c, 2, 84, 95
1, 101106, Note_on_c, 6, 51, 110
1, 101106, Note_on_c, 2, 87, 93
1, 101106, Note_on_c, 6, 44, 110
1, 101106, Note_on_c, 0, 63, 66
1, 101106, Note_on_c, 0, 60, 83
1, 101116, Note_on_c, 6, 63, 0
1, 101116, Note_on_c, 6, 60, 0
1, 101116, Note_on_c, 6, 56, 0
1, 101118, Note_on_c, 9, 42, 0
1, 101118, Note_on_c, 9, 40, 0
1, 101118, Note_on_c, 9, 54, 0
1, 101162, Note_on_c, 0, 60, 0
1, 101164, Note_on_c, 0, 63, 0
1, 101164, Note_on_c, 6, 51, 0
1, 101164, Note_on_c, 6, 44, 0
1, 101180, Note_on_c, 0, 56, 0
1, 101266, Note_on_c, 2, 84, 0
1, 101272, Note_on_c, 2, 80, 0
1, 101276, Note_on_c, 1, 39, 0
1, 101280, Note_on_c, 2, 87, 0
1, 101298, Note_on_c, 9, 42, 58
1, 101298, Note_on_c, 0, 42, 105
1, 101298, Note_on_c, 0, 54, 112
1, 101298, Note_on_c, 0, 58, 115
1, 101298, Note_on_c, 1, 32, 104
1, 101298, Note_on_c, 0, 61, 126
1, 101298, Note_on_c, 6, 58, 94
1, 101298, Note_on_c, 6, 61, 82
1, 101298, Note_on_c, 6, 54, 85
1, 101310, Note_on_c, 9, 42, 0
1, 101452, Note_on_c, 1, 32, 0
1, 101490, Note_on_c, 5, 66, 109
1, 101490, Note_on_c, 1, 30, 111
1, 101490, Note_on_c, 2, 82, 97
1, 101490, Note_on_c, 5, 61, 112
1, 101490, Note_on_c, 9, 35, 103
1, 101490, Note_on_c, 9, 42, 77
1, 101490, Note_on_c, 6, 61, 110
1, 101490, Note_on_c, 5, 58, 107
1, 101490, Note_on_c, 2, 87, 95
1, 101490, Note_on_c, 2, 90, 99
1, 101490, Note_on_c, 6, 54, 109
1, 101490, Note_on_c, 4, 82, 91
1, 101490, Note_on_c, 4, 70, 89
1, 101490, Note_on_c, 6, 58, 114
1, 101490, Note_on_c, 4, 68, 0
1, 101490, Note_on_c, 4, 80, 0
1, 101500, Note_on_c, 6, 58, 0
1, 101500, Note_on_c, 6, 54, 0
1, 101500, Note_on_c, 6, 61, 0
1, 101502, Note_on_c, 9, 42, 0
1, 101502, Note_on_c, 9, 35, 0
1, 101540, Note_on_c, 0, 54, 0
1, 101544, Note_on_c, 0, 58, 0
1, 101546, Note_on_c, 0, 61, 0
1, 101580, Note_on_c, 5, 58, 0
1, 101580, Note_on_c, 5, 61, 0
1, 101608, Note_on_c, 5, 66, 0
1, 101662, Note_on_c, 1, 30, 0
1, 101682, Note_on_c, 9, 42, 69
1, 101682, Note_on_c, 0, 58, 104
1, 101682, Note_on_c, 0, 54, 105
1, 101682, Note_on_c, 0, 61, 121
1, 101682, Note_on_c, 1, 34, 100
1, 101682, Note_on_c, 6, 58, 105
1, 101682, Note_on_c, 6, 54, 93
1, 101682, Note_on_c, 9, 35, 91
1, 101682, Note_on_c, 6, 61, 100
1, 101686, Note_on_c, 2, 87, 0
1, 101692, Note_on_c, 6, 61, 0
1, 101692, Note_on_c, 6, 54, 0
1, 101692, Note_on_c, 6, 58, 0
1, 101694, Note_on_c, 9, 42, 0
1, 101694, Note_on_c, 9, 35, 0
1, 101698, Note_on_c, 2, 90, 0
1, 101702, Note_on_c, 2, 82, 0
1, 101734, Note_on_c, 0, 58, 0
1, 101742, Note_on_c, 0, 54, 0
1, 101750, Note_on_c, 0, 61, 0
1, 101830, Note_on_c, 1, 34, 0
1, 101874, Note_on_c, 1, 37, 101
1, 101874, Note_on_c, 9, 40, 120
1, 101874, Note_on_c, 9, 42, 96
1, 101874, Note_on_c, 9, 54, 115
1, 101874, Note_on_c, 6, 49, 110
1, 101874, Note_on_c, 6, 42, 110
1, 101874, Note_on_c, 0, 56, 89
1, 101874, Note_on_c, 0, 63, 105
1, 101874, Note_on_c, 2, 87, 96
1, 101874, Note_on_c, 2, 90, 101
1, 101874, Note_on_c, 2, 82, 95
1, 101876, Note_on_c, 0, 42, 0
1, 101884, Note_on_c, 6, 61, 0
1, 101884, Note_on_c, 6, 58, 0
1, 101884, Note_on_c, 6, 54, 0
1, 101886, Note_on_c, 9, 42, 0
1, 101886, Note_on_c, 9, 40, 0
1, 101886, Note_on_c, 9, 54, 0
1, 101922, Note_on_c, 0, 63, 0
1, 101932, Note_on_c, 6, 49, 0
1, 101932, Note_on_c, 6, 42, 0
1, 101962, Note_on_c, 0, 56, 0
1, 102020, Note_on_c, 2, 82, 0
1, 102026, Note_on_c, 1, 37, 0
1, 102066, Note_on_c, 6, 61, 98
1, 102066, Note_on_c, 0, 56, 91
1, 102066, Note_on_c, 6, 65, 91
1, 102066, Note_on_c, 0, 44, 98
1, 102066, Note_on_c, 9, 42, 66
1, 102066, Note_on_c, 1, 37, 106
1, 102066, Note_on_c, 5, 65, 101
1, 102066, Note_on_c, 0, 63, 102
1, 102066, Note_on_c, 5, 61, 102
1, 102066, Note_on_c, 6, 56, 94
1, 102066, Note_on_c, 5, 56, 102
1, 102074, Note_on_c, 2, 87, 0
1, 102078, Note_on_c, 9, 42, 0
1, 102086, Note_on_c, 2, 90, 0
1, 102136, Note_on_c, 0, 56, 0
1, 102146, Note_on_c, 0, 63, 0
1, 102160, Note_on_c, 5, 61, 0
1, 102168, Note_on_c, 5, 56, 0
1, 102184, Note_on_c, 0, 44, 0
1, 102192, Note_on_c, 5, 65, 0
1, 102258, Note_on_c, 0, 56, 107
1, 102258, Note_on_c, 6, 61, 106
1, 102258, Note_on_c, 2, 80, 104
1, 102258, Note_on_c, 0, 63, 117
1, 102258, Note_on_c, 2, 85, 98
1, 102258, Note_on_c, 9, 42, 86
1, 102258, Note_on_c, 6, 56, 102
1, 102258, Note_on_c, 6, 65, 106
1, 102258, Note_on_c, 2, 89, 95
1, 102258, Note_on_c, 0, 61, 117
1, 102258, Note_on_c, 4, 80, 84
1, 102258, Note_on_c, 9, 35, 109
1, 102258, Note_on_c, 4, 68, 90
1, 102258, Note_on_c, 4, 82, 0
1, 102258, Note_on_c, 4, 70, 0
1, 102268, Note_on_c, 6, 61, 0
1, 102268, Note_on_c, 6, 56, 0
1, 102268, Note_on_c, 6, 65, 0
1, 102270, Note_on_c, 9, 35, 0
1, 102270, Note_on_c, 9, 42, 0
1, 102440, Note_on_c, 2, 85, 0
1, 102448, Note_on_c, 1, 37, 0
1, 102448, Note_on_c, 2, 80, 0
1, 102450, Note_on_c, 6, 65, 95
1, 102450, Note_on_c, 6, 56, 91
1, 102450, Note_on_c, 6, 61, 98
1, 102450, Note_on_c, 1, 41, 99
1, 102450, Note_on_c, 9, 35, 89
1, 102450, Note_on_c, 9, 42, 77
1, 102454, Note_on_c, 2, 89, 0
1, 102460, Note_on_c, 6, 56, 0
1, 102460, Note_on_c, 6, 65, 0
1, 102460, Note_on_c, 6, 61, 0
1, 102462, Note_on_c, 9, 35, 0
1, 102462, Note_on_c, 9, 42, 0
1, 102498, Note_on_c, 0, 61, 0
1, 102518, Note_on_c, 0, 56, 0
1, 102528, Note_on_c, 0, 63, 0
1, 102624, Note_on_c, 1, 41, 0
1, 102642, Note_on_c, 0, 65, 99
1, 102642, Note_on_c, 9, 42, 91
1, 102642, Note_on_c, 0, 56, 110
1, 102642, Note_on_c, 2, 89, 97
1, 102642, Note_on_c, 6, 56, 110
1, 102642, Note_on_c, 1, 44, 104
1, 102642, Note_on_c, 9, 40, 124
1, 102642, Note_on_c, 0, 61, 112
1, 102642, Note_on_c, 6, 49, 110
1, 102642, Note_on_c, 9, 54, 113
1, 102642, Note_on_c, 2, 85, 97
1, 102642, Note_on_c, 2, 80, 95
1, 102652, Note_on_c, 6, 56, 0
1, 102652, Note_on_c, 6, 61, 0
1, 102652, Note_on_c, 6, 65, 0
1, 102654, Note_on_c, 9, 42, 0
1, 102654, Note_on_c, 9, 40, 0
1, 102654, Note_on_c, 9, 54, 0
1, 102700, Note_on_c, 6, 56, 0
1, 102700, Note_on_c, 6, 49, 0
1, 102782, Note_on_c, 2, 80, 0
1, 102788, Note_on_c, 0, 56, 0
1, 102794, Note_on_c, 2, 85, 0
1, 102808, Note_on_c, 2, 89, 0
1, 102812, Note_on_c, 1, 44, 0
1, 102834, Note_on_c, 1, 32, 118
1, 102834, Note_on_c, 6, 56, 83
1, 102834, Note_on_c, 6, 61, 88
1, 102834, Note_on_c, 6, 63, 87
1, 102834, Note_on_c, 4, 82, 88
1, 102834, Note_on_c, 2, 80, 58
1, 102834, Note_on_c, 9, 42, 70
1, 102834, Note_on_c, 4, 70, 91
1, 102834, Note_on_c, 0, 44, 69
1, 102834, Note_on_c, 4, 80, 0
1, 102834, Note_on_c, 4, 68, 0
1, 102846, Note_on_c, 9, 42, 0
1, 102864, Note_on_c, 0, 65, 0
1, 102868, Note_on_c, 0, 61, 0
1, 102880, Note_on_c, 0, 44, 0
1, 102888, Note_on_c, 2, 80, 0
1, 102986, Note_on_c, 1, 32, 0
1, 103026, Note_on_c, 1, 32, 106
1, 103026, Note_on_c, 5, 61, 105
1, 103026, Note_on_c, 2, 80, 98
1, 103026, Note_on_c, 9, 35, 107
1, 103026, Note_on_c, 9, 42, 80
1, 103026, Note_on_c, 5, 65, 103
1, 103026, Note_on_c, 5, 56, 102
1, 103026, Note_on_c, 2, 85, 95
1, 103026, Note_on_c, 0, 63, 117
1, 103026, Note_on_c, 6, 61, 102
1, 103026, Note_on_c, 6, 63, 102
1, 103026, Note_on_c, 6, 56, 97
1, 103026, Note_on_c, 0, 44, 110
1, 103026, Note_on_c, 0, 56, 108
1, 103026, Note_on_c, 0, 61, 115
1, 103026, Note_on_c, 2, 89, 95
1, 103036, Note_on_c, 6, 56, 0
1, 103036, Note_on_c, 6, 63, 0
1, 103036, Note_on_c, 6, 61, 0
1, 103038, Note_on_c, 9, 35, 0
1, 103038, Note_on_c, 9, 42, 0
1, 103114, Note_on_c, 5, 61, 0
1, 103114, Note_on_c, 5, 56, 0
1, 103130, Note_on_c, 5, 65, 0
1, 103160, Note_on_c, 2, 80, 0
1, 103174, Note_on_c, 2, 85, 0
1, 103182, Note_on_c, 2, 89, 0
1, 103192, Note_on_c, 1, 32, 0
1, 103218, Note_on_c, 6, 63, 95
1, 103218, Note_on_c, 9, 42, 70
1, 103218, Note_on_c, 6, 56, 91
1, 103218, Note_on_c, 2, 80, 60
1, 103218, Note_on_c, 9, 35, 96
1, 103218, Note_on_c, 6, 61, 91
1, 103218, Note_on_c, 1, 36, 110
1, 103228, Note_on_c, 6, 61, 0
1, 103228, Note_on_c, 6, 56, 0
1, 103228, Note_on_c, 6, 63, 0
1, 103230, Note_on_c, 9, 42, 0
1, 103230, Note_on_c, 9, 35, 0
1, 103264, Note_on_c, 2, 80, 0
1, 103270, Note_on_c, 0, 56, 0
1, 103274, Note_on_c, 0, 61, 0
1, 103284, Note_on_c, 0, 63, 0
1, 103372, Note_on_c, 1, 36, 0
1, 103398, Note_on_c, 0, 44, 0
1, 103410, Note_on_c, 2, 80, 99
1, 103410, Note_on_c, 6, 44, 110
1, 103410, Note_on_c, 2, 85, 99
1, 103410, Note_on_c, 0, 56, 104
1, 103410, Note_on_c, 2, 89, 95
1, 103410, Note_on_c, 6, 51, 110
1, 103410, Note_on_c, 9, 40, 120
1, 103410, Note_on_c, 0, 61, 112
1, 103410, Note_on_c, 4, 80, 80
1, 103410, Note_on_c, 1, 39, 110
1, 103410, Note_on_c, 9, 42, 86
1, 103410, Note_on_c, 9, 54, 115
1, 103410, Note_on_c, 0, 63, 110
1, 103410, Note_on_c, 4, 68, 95
1, 103410, Note_on_c, 4, 82, 0
1, 103410, Note_on_c, 4, 70, 0
1, 103420, Note_on_c, 6, 56, 0
1, 103420, Note_on_c, 6, 61, 0
1, 103420, Note_on_c, 6, 63, 0
1, 103422, Note_on_c, 9, 54, 0
1, 103422, Note_on_c, 9, 42, 0
1, 103422, Note_on_c, 9, 40, 0
1, 103468, Note_on_c, 6, 51, 0
1, 103468, Note_on_c, 6, 44, 0
1, 103516, Note_on_c, 2, 80, 0
1, 103544, Note_on_c, 2, 85, 0
1, 103552, Note_on_c, 2, 89, 0
1, 103560, Note_on_c, 0, 61, 0
1, 103586, Note_on_c, 1, 39, 0
1, 103592, Note_on_c, 0, 63, 0
1, 103602, Note_on_c, 6, 63, 86
1, 103602, Note_on_c, 2, 80, 70
1, 103602, Note_on_c, 6, 56, 80
1, 103602, Note_on_c, 0, 44, 105
1, 103602, Note_on_c, 5, 60, 107
1, 103602, Note_on_c, 9, 42, 69
1, 103602, Note_on_c, 5, 63, 96
1, 103602, Note_on_c, 6, 60, 87
1, 103602, Note_on_c, 1, 32, 109
1, 103602, Note_on_c, 5, 56, 96
1, 103614, Note_on_c, 9, 42, 0
1, 103644, Note_on_c, 0, 56, 0
1, 103646, Note_on_c, 2, 80, 0
1, 103704, Note_on_c, 5, 56, 0
1, 103718, Note_on_c, 5, 63, 0
1, 103720, Note_on_c, 5, 60, 0
1, 103768, Note_on_c, 1, 32, 0
1, 103794, Note_on_c, 0, 60, 103
1, 103794, Note_on_c, 6, 63, 110
1, 103794, Note_on_c, 9, 35, 106
1, 103794, Note_on_c, 2, 80, 101
1, 103794, Note_on_c, 0, 63, 96
1, 103794, Note_on_c, 6, 60, 111
1, 103794, Note_on_c, 0, 56, 98
1, 103794, Note_on_c, 9, 42, 84
1, 103794, Note_on_c, 2, 84, 102
1, 103794, Note_on_c, 2, 87, 98
1, 103794, Note_on_c, 6, 56, 102
1, 103794, Note_on_c, 1, 36, 107
1, 103804, Note_on_c, 6, 56, 0
1, 103804, Note_on_c, 6, 60, 0
1, 103804, Note_on_c, 6, 63, 0
1, 103806, Note_on_c, 9, 35, 0
1, 103806, Note_on_c, 9, 42, 0
1, 103892, Note_on_c, 0, 56, 0
1, 103936, Note_on_c, 2, 84, 0
1, 103944, Note_on_c, 2, 87, 0
1, 103952, Note_on_c, 1, 36, 0
1, 103954, Note_on_c, 2, 80, 0
1, 103986, Note_on_c, 1, 39, 106
1, 103986, Note_on_c, 9, 42, 71
1, 103986, Note_on_c, 6, 56, 94
1, 103986, Note_on_c, 6, 60, 103
1, 103986, Note_on_c, 0, 56, 89
1, 103986, Note_on_c, 9, 35, 99
1, 103986, Note_on_c, 6, 63, 102
1, 103988, Note_on_c, 0, 63, 0
1, 103996, Note_on_c, 6, 56, 0
1, 103996, Note_on_c, 6, 63, 0
1, 103996, Note_on_c, 6, 60, 0
1, 103998, Note_on_c, 9, 35, 0
1, 103998, Note_on_c, 9, 42, 0
1, 104034, Note_on_c, 0, 60, 0
1, 104122, Note_on_c, 0, 56, 0
1, 104160, Note_on_c, 1, 39, 0
1, 104178, Note_on_c, 2, 80, 103
1, 104178, Note_on_c, 1, 32, 107
1, 104178, Note_on_c, 9, 42, 90
1, 104178, Note_on_c, 2, 84, 103
1, 104178, Note_on_c, 9, 40, 122
1, 104178, Note_on_c, 6, 44, 110
1, 104178, Note_on_c, 0, 60, 94
1, 104178, Note_on_c, 2, 87, 102
1, 104178, Note_on_c, 9, 54, 113
1, 104178, Note_on_c, 6, 51, 110
1, 104188, Note_on_c, 6, 60, 0
1, 104188, Note_on_c, 6, 63, 0
1, 104188, Note_on_c, 6, 56, 0
1, 104190, Note_on_c, 9, 42, 0
1, 104190, Note_on_c, 9, 40, 0
1, 104190, Note_on_c, 9, 54, 0
1, 104236, Note_on_c, 6, 51, 0
1, 104236, Note_on_c, 6, 44, 0
1, 104258, Note_on_c, 0, 60, 0
1, 104292, Note_on_c, 0, 44, 0
1, 104308, Note_on_c, 2, 80, 0
1, 104308, Note_on_c, 2, 87, 0
1, 104312, Note_on_c, 2, 84, 0
1, 104370, Note_on_c, 9, 42, 74
1, 104370, Note_on_c, 6, 60, 77
1, 104370, Note_on_c, 6, 56, 64
1, 104370, Note_on_c, 1, 36, 105
1, 104370, Note_on_c, 0, 56, 105
1, 104370, Note_on_c, 6, 63, 72
1, 104370, Note_on_c, 1, 32, 0
1, 104382, Note_on_c, 9, 42, 0
1, 104496, Note_on_c, 1, 36, 0
1, 104562, Note_on_c, 4, 81, 90
1, 104562, Note_on_c, 2, 81, 111
1, 104562, Note_on_c, 6, 60, 123
1, 104562, Note_on_c, 6, 65, 113
1, 104562, Note_on_c, 0, 65, 127
1, 104562, Note_on_c, 0, 41, 127
1, 104562, Note_on_c, 2, 84, 122
1, 104562, Note_on_c, 2, 89, 115
1, 104562, Note_on_c, 4, 69, 111
1, 104562, Note_on_c, 5, 77, 118
1, 104562, Note_on_c, 5, 65, 120
1, 104562, Note_on_c, 6, 57, 113
1, 104562, Note_on_c, 1, 29, 120
1, 104562, Note_on_c, 9, 40, 117
1, 104562, Note_on_c, 4, 80, 0
1, 104562, Note_on_c, 4, 68, 0
1, 104572, Note_on_c, 6, 60, 0
1, 104572, Note_on_c, 6, 63, 0
1, 104572, Note_on_c, 6, 56, 0
1, 104574, Note_on_c, 9, 40, 0
1, 104612, Note_on_c, 0, 56, 0
1, 104684, Note_on_c, 5, 65, 0
1, 104690, Note_on_c, 4, 69, 0
1, 104696, Note_on_c, 2, 84, 0
1, 104696, Note_on_c, 2, 81, 0
1, 104698, Note_on_c, 5, 77, 0
1, 104704, Note_on_c, 4, 81, 0
1, 104704, Note_on_c, 0, 65, 0
1, 104704, Note_on_c, 0, 41, 0
1, 104716, Note_on_c, 2, 89, 0
1, 104716, Note_on_c, 6, 60, 0
1, 104724, Note_on_c, 6, 57, 0
1, 104726, Note_on_c, 6, 65, 0
1, 104766, Note_on_c, 1, 29, 0
1, 104766, End_track
0, 0, End_of_file
