0, 0, Header, 1, 11, 120
1, 0, Start_track
1, 0, Key_signature, 0, "major"
1, 0, SMPTE_offset, 96, 0, 0, 0, 0
1, 0, Title_t, "THE MIGHTY QUINN"
1, 0, Sequencer_specific, 126, 0, 0, 0, 106, 0, 1, 0, 0, 0, 0, 0, 0, 0, 0, 0, 0, 0, 0, 0, 0, 0, 0, 29, 29, 0, 0, 29, 39, 0, 0, 1, 24, 0, 0, 29, 29, 0, 0, 29, 1, 0, 0, 29, 6, 0, 0, 29, 29, 0, 0, 29, 6, 0, 0, 1, 29, 0, 0, 1, 24, 0, 0, 29, 1, 0, 0, 1, 6, 0, 0, 29, 29, 0, 0, 29, 24, 0, 0, 1, 29, 0, 0, 1, 6, 0, 0, 29, 29, 0, 0, 29, 39, 0, 0, 29, 24, 0, 0, 1, 29, 0, 0, 29, 29, 0, 0, 0, 0, 0, 0, 29, 8, 0, 0, 29, 29, 0, 0, 29, 1, 0, 0, 1, 39, 0, 0
1, 0, Sequencer_specific, 126, 0, 0, 0, 106, 0, 1, 1, 24, 0, 0, 29, 1, 0, 0, 1, 1, 0, 0, 29, 24, 0, 0, 29, 29, 0, 0, 1, 24, 0, 0, 1, 1, 0, 0, 29, 24, 0, 0, 29, 29, 0, 0, 29, 24, 0, 0, 1, 29, 0, 0, 29, 24, 0, 0, 29, 1, 0, 0, 29, 6, 0, 0, 29, 29, 0, 0, 29, 8, 0, 0, 1, 24, 0, 0, 1, 29, 0, 0, 29, 1, 0, 0, 0, 0, 0, 0, 29, 39, 0, 0, 29, 29, 0, 0, 1, 29, 0, 0, 1, 8, 0, 0, 29, 24, 0, 0, 29, 29, 0, 0, 29, 29, 0, 0, 0, 0, 0, 0, 29, 39, 0, 0, 29, 1, 0, 0
1, 0, Sequencer_specific, 54, 0, 0, 0, 106, 0, 1, 29, 1, 0, 0, 29, 39, 0, 0, 29, 6, 0, 0, 1, 29, 0, 0, 1, 29, 0, 0, 29, 8, 0, 0, 1, 6, 0, 0, 29, 29, 0, 0, 0, 0, 0, 0, 0, 0, 0, 0, 0, 0, 0, 0, 0, 0, 0, 0
1, 0, Tempo, 612244
1, 0, Time_signature, 4, 2, 24, 8
1, 0, End_track
2, 0, Start_track
2, 0, MIDI_port, 0
2, 0, Title_t, "BASS"
2, 0, Program_c, 1, 33
2, 0, Control_c, 1, 121, 0
2, 0, Control_c, 1, 7, 100
2, 0, Control_c, 1, 10, 64
2, 0, Control_c, 1, 123, 0
2, 0, Control_c, 1, 91, 40
2, 0, Control_c, 1, 93, 0
2, 0, Control_c, 1, 64, 0
2, 960, Note_on_c, 1, 36, 95
2, 1118, Note_on_c, 1, 36, 0
2, 1140, Note_on_c, 1, 36, 98
2, 1200, Note_on_c, 1, 36, 0
2, 1200, Note_on_c, 1, 43, 82
2, 1380, Note_on_c, 1, 38, 98
2, 1389, Note_on_c, 1, 43, 0
2, 1418, Note_on_c, 1, 38, 0
2, 1440, Note_on_c, 1, 41, 102
2, 1597, Note_on_c, 1, 41, 0
2, 1620, Note_on_c, 1, 41, 87
2, 1667, Note_on_c, 1, 41, 0
2, 1680, Note_on_c, 1, 36, 82
2, 1860, Note_on_c, 1, 31, 98
2, 1869, Note_on_c, 1, 36, 0
2, 1898, Note_on_c, 1, 31, 0
2, 1920, Note_on_c, 1, 36, 76
2, 2076, Note_on_c, 1, 36, 0
2, 2100, Note_on_c, 1, 36, 100
2, 2136, Note_on_c, 1, 36, 0
2, 2160, Note_on_c, 1, 41, 82
2, 2256, Note_on_c, 1, 41, 0
2, 2280, Note_on_c, 1, 41, 87
2, 2357, Note_on_c, 1, 41, 0
2, 2400, Note_on_c, 1, 36, 82
2, 2496, Note_on_c, 1, 36, 0
2, 2520, Note_on_c, 1, 36, 87
2, 2597, Note_on_c, 1, 36, 0
2, 2640, Note_on_c, 1, 41, 98
2, 2793, Note_on_c, 1, 41, 0
2, 2820, Note_on_c, 1, 41, 87
2, 2860, Note_on_c, 1, 41, 0
2, 2880, Note_on_c, 1, 36, 98
2, 3033, Note_on_c, 1, 36, 0
2, 3060, Note_on_c, 1, 36, 87
2, 3100, Note_on_c, 1, 36, 0
2, 3120, Note_on_c, 1, 41, 98
2, 3273, Note_on_c, 1, 41, 0
2, 3300, Note_on_c, 1, 41, 87
2, 3340, Note_on_c, 1, 41, 0
2, 3360, Note_on_c, 1, 36, 76
2, 3516, Note_on_c, 1, 36, 0
2, 3540, Note_on_c, 1, 36, 100
2, 3576, Note_on_c, 1, 36, 0
2, 3600, Note_on_c, 1, 41, 98
2, 3753, Note_on_c, 1, 41, 0
2, 3780, Note_on_c, 1, 41, 87
2, 3820, Note_on_c, 1, 41, 0
2, 3840, Note_on_c, 1, 36, 98
2, 3993, Note_on_c, 1, 36, 0
2, 4020, Note_on_c, 1, 36, 87
2, 4060, Note_on_c, 1, 36, 0
2, 4080, Note_on_c, 1, 41, 76
2, 4236, Note_on_c, 1, 41, 0
2, 4260, Note_on_c, 1, 41, 100
2, 4296, Note_on_c, 1, 41, 0
2, 4320, Note_on_c, 1, 36, 82
2, 4416, Note_on_c, 1, 36, 0
2, 4440, Note_on_c, 1, 36, 87
2, 4517, Note_on_c, 1, 36, 0
2, 4560, Note_on_c, 1, 41, 98
2, 4713, Note_on_c, 1, 41, 0
2, 4740, Note_on_c, 1, 41, 87
2, 4780, Note_on_c, 1, 41, 0
2, 4800, Note_on_c, 1, 36, 76
2, 4956, Note_on_c, 1, 36, 0
2, 4980, Note_on_c, 1, 36, 100
2, 5016, Note_on_c, 1, 36, 0
2, 5040, Note_on_c, 1, 43, 98
2, 5193, Note_on_c, 1, 43, 0
2, 5220, Note_on_c, 1, 43, 87
2, 5260, Note_on_c, 1, 43, 0
2, 5280, Note_on_c, 1, 41, 98
2, 5433, Note_on_c, 1, 41, 0
2, 5460, Note_on_c, 1, 41, 87
2, 5500, Note_on_c, 1, 41, 0
2, 5520, Note_on_c, 1, 36, 82
2, 5616, Note_on_c, 1, 36, 0
2, 5640, Note_on_c, 1, 36, 87
2, 5717, Note_on_c, 1, 36, 0
2, 5760, Note_on_c, 1, 36, 105
2, 5911, Note_on_c, 1, 36, 0
2, 5940, Note_on_c, 1, 36, 98
2, 5979, Note_on_c, 1, 36, 0
2, 6000, Note_on_c, 1, 31, 85
2, 6117, Note_on_c, 1, 31, 0
2, 6120, Note_on_c, 1, 36, 85
2, 6202, Note_on_c, 1, 36, 0
2, 6240, Note_on_c, 1, 43, 82
2, 6420, Note_on_c, 1, 38, 98
2, 6429, Note_on_c, 1, 43, 0
2, 6458, Note_on_c, 1, 38, 0
2, 6480, Note_on_c, 1, 36, 82
2, 6660, Note_on_c, 1, 31, 98
2, 6669, Note_on_c, 1, 36, 0
2, 6698, Note_on_c, 1, 31, 0
2, 6720, Note_on_c, 1, 36, 95
2, 6878, Note_on_c, 1, 36, 0
2, 6900, Note_on_c, 1, 36, 98
2, 6960, Note_on_c, 1, 36, 0
2, 6960, Note_on_c, 1, 43, 102
2, 7117, Note_on_c, 1, 43, 0
2, 7140, Note_on_c, 1, 43, 87
2, 7187, Note_on_c, 1, 43, 0
2, 7200, Note_on_c, 1, 41, 102
2, 7357, Note_on_c, 1, 41, 0
2, 7380, Note_on_c, 1, 41, 87
2, 7427, Note_on_c, 1, 41, 0
2, 7440, Note_on_c, 1, 36, 95
2, 7598, Note_on_c, 1, 36, 0
2, 7620, Note_on_c, 1, 36, 98
2, 7680, Note_on_c, 1, 36, 0
2, 7680, Note_on_c, 1, 36, 76
2, 7836, Note_on_c, 1, 36, 0
2, 7860, Note_on_c, 1, 36, 100
2, 7896, Note_on_c, 1, 36, 0
2, 7920, Note_on_c, 1, 41, 82
2, 8016, Note_on_c, 1, 41, 0
2, 8040, Note_on_c, 1, 41, 87
2, 8117, Note_on_c, 1, 41, 0
2, 8160, Note_on_c, 1, 36, 76
2, 8316, Note_on_c, 1, 36, 0
2, 8340, Note_on_c, 1, 36, 100
2, 8376, Note_on_c, 1, 36, 0
2, 8400, Note_on_c, 1, 41, 98
2, 8553, Note_on_c, 1, 41, 0
2, 8580, Note_on_c, 1, 41, 87
2, 8620, Note_on_c, 1, 41, 0
2, 8640, Note_on_c, 1, 36, 98
2, 8793, Note_on_c, 1, 36, 0
2, 8820, Note_on_c, 1, 36, 87
2, 8860, Note_on_c, 1, 36, 0
2, 8880, Note_on_c, 1, 41, 82
2, 8976, Note_on_c, 1, 41, 0
2, 9000, Note_on_c, 1, 41, 87
2, 9077, Note_on_c, 1, 41, 0
2, 9120, Note_on_c, 1, 36, 82
2, 9216, Note_on_c, 1, 36, 0
2, 9240, Note_on_c, 1, 36, 87
2, 9317, Note_on_c, 1, 36, 0
2, 9360, Note_on_c, 1, 41, 98
2, 9513, Note_on_c, 1, 41, 0
2, 9540, Note_on_c, 1, 41, 87
2, 9580, Note_on_c, 1, 41, 0
2, 9600, Note_on_c, 1, 36, 82
2, 9696, Note_on_c, 1, 36, 0
2, 9720, Note_on_c, 1, 36, 87
2, 9797, Note_on_c, 1, 36, 0
2, 9840, Note_on_c, 1, 41, 98
2, 9993, Note_on_c, 1, 41, 0
2, 10020, Note_on_c, 1, 41, 87
2, 10060, Note_on_c, 1, 41, 0
2, 10080, Note_on_c, 1, 36, 82
2, 10176, Note_on_c, 1, 36, 0
2, 10200, Note_on_c, 1, 36, 87
2, 10277, Note_on_c, 1, 36, 0
2, 10320, Note_on_c, 1, 41, 76
2, 10476, Note_on_c, 1, 41, 0
2, 10500, Note_on_c, 1, 41, 100
2, 10536, Note_on_c, 1, 41, 0
2, 10560, Note_on_c, 1, 36, 98
2, 10713, Note_on_c, 1, 36, 0
2, 10740, Note_on_c, 1, 36, 87
2, 10780, Note_on_c, 1, 36, 0
2, 10800, Note_on_c, 1, 43, 76
2, 10956, Note_on_c, 1, 43, 0
2, 10980, Note_on_c, 1, 43, 100
2, 11016, Note_on_c, 1, 43, 0
2, 11040, Note_on_c, 1, 41, 98
2, 11193, Note_on_c, 1, 41, 0
2, 11220, Note_on_c, 1, 41, 87
2, 11260, Note_on_c, 1, 41, 0
2, 11280, Note_on_c, 1, 36, 82
2, 11376, Note_on_c, 1, 36, 0
2, 11400, Note_on_c, 1, 36, 87
2, 11477, Note_on_c, 1, 36, 0
2, 11520, Note_on_c, 1, 36, 100
2, 11680, Note_on_c, 1, 36, 0
2, 11700, Note_on_c, 1, 36, 89
2, 11761, Note_on_c, 1, 36, 0
2, 11761, Note_on_c, 1, 43, 85
2, 11914, Note_on_c, 1, 43, 0
2, 11940, Note_on_c, 1, 43, 82
2, 12000, Note_on_c, 1, 43, 0
2, 12000, Note_on_c, 1, 43, 102
2, 12157, Note_on_c, 1, 43, 0
2, 12180, Note_on_c, 1, 43, 87
2, 12227, Note_on_c, 1, 43, 0
2, 12240, Note_on_c, 1, 36, 82
2, 12420, Note_on_c, 1, 31, 98
2, 12429, Note_on_c, 1, 36, 0
2, 12458, Note_on_c, 1, 31, 0
2, 12480, Note_on_c, 1, 36, 95
2, 12638, Note_on_c, 1, 36, 0
2, 12660, Note_on_c, 1, 36, 98
2, 12720, Note_on_c, 1, 36, 0
2, 12720, Note_on_c, 1, 43, 95
2, 12878, Note_on_c, 1, 43, 0
2, 12900, Note_on_c, 1, 43, 98
2, 12960, Note_on_c, 1, 43, 0
2, 12960, Note_on_c, 1, 41, 95
2, 13118, Note_on_c, 1, 41, 0
2, 13140, Note_on_c, 1, 41, 98
2, 13200, Note_on_c, 1, 41, 0
2, 13200, Note_on_c, 1, 36, 102
2, 13357, Note_on_c, 1, 36, 0
2, 13380, Note_on_c, 1, 36, 87
2, 13427, Note_on_c, 1, 36, 0
2, 13440, Note_on_c, 1, 36, 100
2, 13599, Note_on_c, 1, 36, 0
2, 13620, Note_on_c, 1, 36, 102
2, 13680, Note_on_c, 1, 36, 0
2, 13680, Note_on_c, 1, 43, 89
2, 13843, Note_on_c, 1, 43, 0
2, 13860, Note_on_c, 1, 43, 85
2, 13902, Note_on_c, 1, 43, 0
2, 13920, Note_on_c, 1, 43, 95
2, 14078, Note_on_c, 1, 43, 0
2, 14100, Note_on_c, 1, 43, 98
2, 14160, Note_on_c, 1, 43, 0
2, 14160, Note_on_c, 1, 36, 82
2, 14340, Note_on_c, 1, 31, 98
2, 14349, Note_on_c, 1, 36, 0
2, 14378, Note_on_c, 1, 31, 0
2, 14400, Note_on_c, 1, 36, 82
2, 14580, Note_on_c, 1, 31, 98
2, 14589, Note_on_c, 1, 36, 0
2, 14618, Note_on_c, 1, 31, 0
2, 14640, Note_on_c, 1, 43, 82
2, 14820, Note_on_c, 1, 38, 98
2, 14829, Note_on_c, 1, 43, 0
2, 14858, Note_on_c, 1, 38, 0
2, 14880, Note_on_c, 1, 41, 82
2, 15060, Note_on_c, 1, 36, 98
2, 15069, Note_on_c, 1, 41, 0
2, 15098, Note_on_c, 1, 36, 0
2, 15120, Note_on_c, 1, 36, 102
2, 15277, Note_on_c, 1, 36, 0
2, 15300, Note_on_c, 1, 36, 87
2, 15347, Note_on_c, 1, 36, 0
2, 15360, Note_on_c, 1, 36, 95
2, 15518, Note_on_c, 1, 36, 0
2, 15540, Note_on_c, 1, 36, 98
2, 15600, Note_on_c, 1, 36, 0
2, 15600, Note_on_c, 1, 43, 95
2, 15758, Note_on_c, 1, 43, 0
2, 15780, Note_on_c, 1, 43, 98
2, 15840, Note_on_c, 1, 43, 0
2, 15840, Note_on_c, 1, 41, 82
2, 16020, Note_on_c, 1, 36, 98
2, 16029, Note_on_c, 1, 41, 0
2, 16058, Note_on_c, 1, 36, 0
2, 16058, End_track
3, 0, Start_track
3, 0, MIDI_port, 0
3, 0, Title_t, "DRUMS"
3, 0, Control_c, 9, 121, 0
3, 0, Control_c, 9, 7, 100
3, 0, Control_c, 9, 10, 64
3, 0, Control_c, 9, 123, 0
3, 0, Control_c, 9, 91, 40
3, 0, Control_c, 9, 93, 0
3, 960, Note_on_c, 9, 35, 90
3, 960, Note_on_c, 9, 42, 90
3, 960, Note_on_c, 9, 49, 90
3, 985, Note_on_c, 9, 35, 0
3, 985, Note_on_c, 9, 42, 0
3, 985, Note_on_c, 9, 49, 0
3, 1020, Note_on_c, 9, 42, 70
3, 1045, Note_on_c, 9, 42, 0
3, 1080, Note_on_c, 9, 38, 100
3, 1080, Note_on_c, 9, 42, 100
3, 1105, Note_on_c, 9, 38, 0
3, 1105, Note_on_c, 9, 42, 0
3, 1140, Note_on_c, 9, 35, 80
3, 1140, Note_on_c, 9, 42, 70
3, 1165, Note_on_c, 9, 35, 0
3, 1165, Note_on_c, 9, 42, 0
3, 1200, Note_on_c, 9, 35, 100
3, 1200, Note_on_c, 9, 42, 90
3, 1225, Note_on_c, 9, 35, 0
3, 1225, Note_on_c, 9, 42, 0
3, 1260, Note_on_c, 9, 42, 70
3, 1285, Note_on_c, 9, 42, 0
3, 1320, Note_on_c, 9, 38, 100
3, 1320, Note_on_c, 9, 42, 100
3, 1345, Note_on_c, 9, 38, 0
3, 1345, Note_on_c, 9, 42, 0
3, 1380, Note_on_c, 9, 35, 70
3, 1380, Note_on_c, 9, 42, 70
3, 1405, Note_on_c, 9, 35, 0
3, 1405, Note_on_c, 9, 42, 0
3, 1440, Note_on_c, 9, 38, 115
3, 1440, Note_on_c, 9, 49, 100
3, 1465, Note_on_c, 9, 38, 0
3, 1465, Note_on_c, 9, 49, 0
3, 1500, Note_on_c, 9, 38, 90
3, 1500, Note_on_c, 9, 41, 90
3, 1525, Note_on_c, 9, 38, 0
3, 1525, Note_on_c, 9, 41, 0
3, 1560, Note_on_c, 9, 38, 60
3, 1560, Note_on_c, 9, 41, 60
3, 1585, Note_on_c, 9, 38, 0
3, 1585, Note_on_c, 9, 41, 0
3, 1620, Note_on_c, 9, 38, 80
3, 1620, Note_on_c, 9, 41, 70
3, 1645, Note_on_c, 9, 38, 0
3, 1645, Note_on_c, 9, 41, 0
3, 1680, Note_on_c, 9, 38, 100
3, 1680, Note_on_c, 9, 41, 100
3, 1705, Note_on_c, 9, 38, 0
3, 1705, Note_on_c, 9, 41, 0
3, 1740, Note_on_c, 9, 35, 100
3, 1765, Note_on_c, 9, 35, 0
3, 1800, Note_on_c, 9, 38, 115
3, 1800, Note_on_c, 9, 41, 115
3, 1825, Note_on_c, 9, 38, 0
3, 1825, Note_on_c, 9, 41, 0
3, 1860, Note_on_c, 9, 35, 100
3, 1885, Note_on_c, 9, 35, 0
3, 1920, Note_on_c, 9, 35, 90
3, 1920, Note_on_c, 9, 42, 90
3, 1920, Note_on_c, 9, 49, 90
3, 1945, Note_on_c, 9, 35, 0
3, 1945, Note_on_c, 9, 42, 0
3, 1945, Note_on_c, 9, 49, 0
3, 1980, Note_on_c, 9, 42, 70
3, 2005, Note_on_c, 9, 42, 0
3, 2040, Note_on_c, 9, 38, 100
3, 2040, Note_on_c, 9, 42, 115
3, 2065, Note_on_c, 9, 38, 0
3, 2065, Note_on_c, 9, 42, 0
3, 2100, Note_on_c, 9, 35, 80
3, 2100, Note_on_c, 9, 42, 70
3, 2125, Note_on_c, 9, 35, 0
3, 2125, Note_on_c, 9, 42, 0
3, 2160, Note_on_c, 9, 35, 100
3, 2160, Note_on_c, 9, 42, 90
3, 2185, Note_on_c, 9, 35, 0
3, 2185, Note_on_c, 9, 42, 0
3, 2220, Note_on_c, 9, 42, 70
3, 2245, Note_on_c, 9, 42, 0
3, 2280, Note_on_c, 9, 38, 100
3, 2280, Note_on_c, 9, 42, 100
3, 2305, Note_on_c, 9, 38, 0
3, 2305, Note_on_c, 9, 42, 0
3, 2340, Note_on_c, 9, 42, 70
3, 2365, Note_on_c, 9, 42, 0
3, 2400, Note_on_c, 9, 35, 100
3, 2400, Note_on_c, 9, 42, 90
3, 2425, Note_on_c, 9, 35, 0
3, 2425, Note_on_c, 9, 42, 0
3, 2460, Note_on_c, 9, 42, 70
3, 2485, Note_on_c, 9, 42, 0
3, 2520, Note_on_c, 9, 38, 100
3, 2520, Note_on_c, 9, 46, 100
3, 2545, Note_on_c, 9, 38, 0
3, 2545, Note_on_c, 9, 46, 0
3, 2580, Note_on_c, 9, 35, 100
3, 2605, Note_on_c, 9, 35, 0
3, 2640, Note_on_c, 9, 48, 115
3, 2665, Note_on_c, 9, 48, 0
3, 2730, Note_on_c, 9, 45, 90
3, 2755, Note_on_c, 9, 45, 0
3, 2760, Note_on_c, 9, 45, 115
3, 2785, Note_on_c, 9, 45, 0
3, 2790, Note_on_c, 9, 41, 100
3, 2815, Note_on_c, 9, 41, 0
3, 2820, Note_on_c, 9, 41, 115
3, 2845, Note_on_c, 9, 41, 0
3, 2880, Note_on_c, 9, 35, 90
3, 2880, Note_on_c, 9, 42, 90
3, 2880, Note_on_c, 9, 49, 90
3, 2905, Note_on_c, 9, 35, 0
3, 2905, Note_on_c, 9, 42, 0
3, 2905, Note_on_c, 9, 49, 0
3, 2940, Note_on_c, 9, 42, 70
3, 2965, Note_on_c, 9, 42, 0
3, 3000, Note_on_c, 9, 38, 100
3, 3000, Note_on_c, 9, 42, 115
3, 3025, Note_on_c, 9, 38, 0
3, 3025, Note_on_c, 9, 42, 0
3, 3060, Note_on_c, 9, 35, 80
3, 3060, Note_on_c, 9, 42, 70
3, 3085, Note_on_c, 9, 35, 0
3, 3085, Note_on_c, 9, 42, 0
3, 3120, Note_on_c, 9, 35, 100
3, 3120, Note_on_c, 9, 42, 90
3, 3145, Note_on_c, 9, 35, 0
3, 3145, Note_on_c, 9, 42, 0
3, 3180, Note_on_c, 9, 42, 70
3, 3205, Note_on_c, 9, 42, 0
3, 3240, Note_on_c, 9, 38, 100
3, 3240, Note_on_c, 9, 42, 100
3, 3265, Note_on_c, 9, 38, 0
3, 3265, Note_on_c, 9, 42, 0
3, 3300, Note_on_c, 9, 42, 70
3, 3325, Note_on_c, 9, 42, 0
3, 3360, Note_on_c, 9, 35, 90
3, 3360, Note_on_c, 9, 42, 90
3, 3385, Note_on_c, 9, 35, 0
3, 3385, Note_on_c, 9, 42, 0
3, 3420, Note_on_c, 9, 42, 70
3, 3445, Note_on_c, 9, 42, 0
3, 3480, Note_on_c, 9, 38, 100
3, 3480, Note_on_c, 9, 42, 115
3, 3505, Note_on_c, 9, 38, 0
3, 3505, Note_on_c, 9, 42, 0
3, 3540, Note_on_c, 9, 35, 80
3, 3540, Note_on_c, 9, 42, 70
3, 3565, Note_on_c, 9, 35, 0
3, 3565, Note_on_c, 9, 42, 0
3, 3600, Note_on_c, 9, 35, 100
3, 3600, Note_on_c, 9, 38, 100
3, 3600, Note_on_c, 9, 42, 90
3, 3625, Note_on_c, 9, 35, 0
3, 3625, Note_on_c, 9, 38, 0
3, 3625, Note_on_c, 9, 42, 0
3, 3630, Note_on_c, 9, 38, 70
3, 3655, Note_on_c, 9, 38, 0
3, 3660, Note_on_c, 9, 38, 90
3, 3685, Note_on_c, 9, 38, 0
3, 3690, Note_on_c, 9, 38, 70
3, 3715, Note_on_c, 9, 38, 0
3, 3720, Note_on_c, 9, 45, 90
3, 3745, Note_on_c, 9, 45, 0
3, 3750, Note_on_c, 9, 45, 80
3, 3775, Note_on_c, 9, 45, 0
3, 3780, Note_on_c, 9, 45, 100
3, 3805, Note_on_c, 9, 45, 0
3, 3810, Note_on_c, 9, 45, 80
3, 3835, Note_on_c, 9, 45, 0
3, 3840, Note_on_c, 9, 35, 90
3, 3840, Note_on_c, 9, 42, 90
3, 3840, Note_on_c, 9, 49, 90
3, 3865, Note_on_c, 9, 35, 0
3, 3865, Note_on_c, 9, 42, 0
3, 3865, Note_on_c, 9, 49, 0
3, 3900, Note_on_c, 9, 42, 70
3, 3925, Note_on_c, 9, 42, 0
3, 3960, Note_on_c, 9, 38, 100
3, 3960, Note_on_c, 9, 42, 115
3, 3985, Note_on_c, 9, 38, 0
3, 3985, Note_on_c, 9, 42, 0
3, 4020, Note_on_c, 9, 35, 80
3, 4020, Note_on_c, 9, 42, 70
3, 4045, Note_on_c, 9, 35, 0
3, 4045, Note_on_c, 9, 42, 0
3, 4080, Note_on_c, 9, 35, 100
3, 4080, Note_on_c, 9, 42, 90
3, 4105, Note_on_c, 9, 35, 0
3, 4105, Note_on_c, 9, 42, 0
3, 4140, Note_on_c, 9, 42, 70
3, 4165, Note_on_c, 9, 42, 0
3, 4200, Note_on_c, 9, 38, 100
3, 4200, Note_on_c, 9, 42, 100
3, 4225, Note_on_c, 9, 38, 0
3, 4225, Note_on_c, 9, 42, 0
3, 4260, Note_on_c, 9, 42, 70
3, 4285, Note_on_c, 9, 42, 0
3, 4320, Note_on_c, 9, 38, 115
3, 4320, Note_on_c, 9, 49, 100
3, 4345, Note_on_c, 9, 38, 0
3, 4345, Note_on_c, 9, 49, 0
3, 4380, Note_on_c, 9, 38, 90
3, 4380, Note_on_c, 9, 41, 90
3, 4405, Note_on_c, 9, 38, 0
3, 4405, Note_on_c, 9, 41, 0
3, 4440, Note_on_c, 9, 38, 60
3, 4440, Note_on_c, 9, 41, 60
3, 4465, Note_on_c, 9, 38, 0
3, 4465, Note_on_c, 9, 41, 0
3, 4500, Note_on_c, 9, 38, 80
3, 4500, Note_on_c, 9, 41, 70
3, 4525, Note_on_c, 9, 38, 0
3, 4525, Note_on_c, 9, 41, 0
3, 4560, Note_on_c, 9, 38, 100
3, 4560, Note_on_c, 9, 41, 100
3, 4585, Note_on_c, 9, 38, 0
3, 4585, Note_on_c, 9, 41, 0
3, 4620, Note_on_c, 9, 35, 100
3, 4645, Note_on_c, 9, 35, 0
3, 4680, Note_on_c, 9, 38, 115
3, 4680, Note_on_c, 9, 41, 115
3, 4705, Note_on_c, 9, 38, 0
3, 4705, Note_on_c, 9, 41, 0
3, 4740, Note_on_c, 9, 35, 100
3, 4765, Note_on_c, 9, 35, 0
3, 5610, Note_on_c, 9, 45, 90
3, 5635, Note_on_c, 9, 45, 0
3, 5640, Note_on_c, 9, 45, 115
3, 5665, Note_on_c, 9, 45, 0
3, 5670, Note_on_c, 9, 41, 100
3, 5695, Note_on_c, 9, 41, 0
3, 5700, Note_on_c, 9, 41, 115
3, 5725, Note_on_c, 9, 41, 0
3, 5760, Note_on_c, 9, 35, 90
3, 5760, Note_on_c, 9, 42, 90
3, 5760, Note_on_c, 9, 49, 90
3, 5785, Note_on_c, 9, 35, 0
3, 5785, Note_on_c, 9, 42, 0
3, 5785, Note_on_c, 9, 49, 0
3, 5820, Note_on_c, 9, 42, 70
3, 5845, Note_on_c, 9, 42, 0
3, 5880, Note_on_c, 9, 38, 100
3, 5880, Note_on_c, 9, 42, 100
3, 5905, Note_on_c, 9, 38, 0
3, 5905, Note_on_c, 9, 42, 0
3, 5940, Note_on_c, 9, 35, 80
3, 5940, Note_on_c, 9, 42, 70
3, 5965, Note_on_c, 9, 35, 0
3, 5965, Note_on_c, 9, 42, 0
3, 6000, Note_on_c, 9, 35, 100
3, 6000, Note_on_c, 9, 42, 90
3, 6025, Note_on_c, 9, 35, 0
3, 6025, Note_on_c, 9, 42, 0
3, 6060, Note_on_c, 9, 42, 70
3, 6085, Note_on_c, 9, 42, 0
3, 6120, Note_on_c, 9, 38, 100
3, 6120, Note_on_c, 9, 42, 100
3, 6145, Note_on_c, 9, 38, 0
3, 6145, Note_on_c, 9, 42, 0
3, 6180, Note_on_c, 9, 35, 70
3, 6180, Note_on_c, 9, 42, 70
3, 6205, Note_on_c, 9, 35, 0
3, 6205, Note_on_c, 9, 42, 0
3, 6240, Note_on_c, 9, 35, 90
3, 6240, Note_on_c, 9, 42, 90
3, 6265, Note_on_c, 9, 35, 0
3, 6265, Note_on_c, 9, 42, 0
3, 6300, Note_on_c, 9, 42, 70
3, 6325, Note_on_c, 9, 42, 0
3, 6360, Note_on_c, 9, 38, 100
3, 6360, Note_on_c, 9, 42, 100
3, 6385, Note_on_c, 9, 38, 0
3, 6385, Note_on_c, 9, 42, 0
3, 6420, Note_on_c, 9, 35, 80
3, 6420, Note_on_c, 9, 42, 100
3, 6445, Note_on_c, 9, 35, 0
3, 6445, Note_on_c, 9, 42, 0
3, 6480, Note_on_c, 9, 35, 100
3, 6480, Note_on_c, 9, 42, 90
3, 6505, Note_on_c, 9, 35, 0
3, 6505, Note_on_c, 9, 42, 0
3, 6540, Note_on_c, 9, 35, 90
3, 6540, Note_on_c, 9, 42, 70
3, 6565, Note_on_c, 9, 35, 0
3, 6565, Note_on_c, 9, 42, 0
3, 6600, Note_on_c, 9, 38, 100
3, 6600, Note_on_c, 9, 42, 100
3, 6625, Note_on_c, 9, 38, 0
3, 6625, Note_on_c, 9, 42, 0
3, 6660, Note_on_c, 9, 35, 70
3, 6660, Note_on_c, 9, 42, 70
3, 6685, Note_on_c, 9, 35, 0
3, 6685, Note_on_c, 9, 42, 0
3, 6720, Note_on_c, 9, 35, 90
3, 6720, Note_on_c, 9, 42, 115
3, 6745, Note_on_c, 9, 35, 0
3, 6745, Note_on_c, 9, 42, 0
3, 6780, Note_on_c, 9, 42, 70
3, 6805, Note_on_c, 9, 42, 0
3, 6840, Note_on_c, 9, 38, 100
3, 6840, Note_on_c, 9, 42, 100
3, 6865, Note_on_c, 9, 38, 0
3, 6865, Note_on_c, 9, 42, 0
3, 6900, Note_on_c, 9, 35, 80
3, 6900, Note_on_c, 9, 42, 70
3, 6925, Note_on_c, 9, 35, 0
3, 6925, Note_on_c, 9, 42, 0
3, 6960, Note_on_c, 9, 35, 100
3, 6960, Note_on_c, 9, 42, 90
3, 6985, Note_on_c, 9, 35, 0
3, 6985, Note_on_c, 9, 42, 0
3, 7020, Note_on_c, 9, 42, 70
3, 7045, Note_on_c, 9, 42, 0
3, 7080, Note_on_c, 9, 38, 100
3, 7080, Note_on_c, 9, 42, 100
3, 7105, Note_on_c, 9, 38, 0
3, 7105, Note_on_c, 9, 42, 0
3, 7140, Note_on_c, 9, 35, 70
3, 7140, Note_on_c, 9, 42, 70
3, 7165, Note_on_c, 9, 35, 0
3, 7165, Note_on_c, 9, 42, 0
3, 7200, Note_on_c, 9, 35, 90
3, 7200, Note_on_c, 9, 42, 90
3, 7225, Note_on_c, 9, 35, 0
3, 7225, Note_on_c, 9, 42, 0
3, 7260, Note_on_c, 9, 42, 70
3, 7285, Note_on_c, 9, 42, 0
3, 7320, Note_on_c, 9, 38, 100
3, 7320, Note_on_c, 9, 42, 115
3, 7345, Note_on_c, 9, 38, 0
3, 7345, Note_on_c, 9, 42, 0
3, 7380, Note_on_c, 9, 35, 80
3, 7380, Note_on_c, 9, 42, 70
3, 7405, Note_on_c, 9, 35, 0
3, 7405, Note_on_c, 9, 42, 0
3, 7440, Note_on_c, 9, 35, 100
3, 7440, Note_on_c, 9, 42, 90
3, 7465, Note_on_c, 9, 35, 0
3, 7465, Note_on_c, 9, 42, 0
3, 7500, Note_on_c, 9, 38, 90
3, 7525, Note_on_c, 9, 38, 0
3, 7530, Note_on_c, 9, 38, 70
3, 7555, Note_on_c, 9, 38, 0
3, 7560, Note_on_c, 9, 38, 100
3, 7585, Note_on_c, 9, 38, 0
3, 7620, Note_on_c, 9, 38, 100
3, 7620, Note_on_c, 9, 42, 70
3, 7645, Note_on_c, 9, 38, 0
3, 7645, Note_on_c, 9, 42, 0
3, 7680, Note_on_c, 9, 35, 90
3, 7680, Note_on_c, 9, 42, 90
3, 7680, Note_on_c, 9, 49, 90
3, 7705, Note_on_c, 9, 35, 0
3, 7705, Note_on_c, 9, 42, 0
3, 7705, Note_on_c, 9, 49, 0
3, 7740, Note_on_c, 9, 42, 70
3, 7765, Note_on_c, 9, 42, 0
3, 7800, Note_on_c, 9, 38, 100
3, 7800, Note_on_c, 9, 42, 115
3, 7825, Note_on_c, 9, 38, 0
3, 7825, Note_on_c, 9, 42, 0
3, 7860, Note_on_c, 9, 35, 80
3, 7860, Note_on_c, 9, 42, 70
3, 7885, Note_on_c, 9, 35, 0
3, 7885, Note_on_c, 9, 42, 0
3, 7920, Note_on_c, 9, 35, 100
3, 7920, Note_on_c, 9, 42, 90
3, 7945, Note_on_c, 9, 35, 0
3, 7945, Note_on_c, 9, 42, 0
3, 7980, Note_on_c, 9, 42, 70
3, 8005, Note_on_c, 9, 42, 0
3, 8040, Note_on_c, 9, 38, 100
3, 8040, Note_on_c, 9, 42, 100
3, 8065, Note_on_c, 9, 38, 0
3, 8065, Note_on_c, 9, 42, 0
3, 8100, Note_on_c, 9, 42, 70
3, 8125, Note_on_c, 9, 42, 0
3, 8160, Note_on_c, 9, 35, 90
3, 8160, Note_on_c, 9, 42, 90
3, 8185, Note_on_c, 9, 35, 0
3, 8185, Note_on_c, 9, 42, 0
3, 8220, Note_on_c, 9, 42, 70
3, 8245, Note_on_c, 9, 42, 0
3, 8280, Note_on_c, 9, 38, 100
3, 8280, Note_on_c, 9, 42, 115
3, 8305, Note_on_c, 9, 38, 0
3, 8305, Note_on_c, 9, 42, 0
3, 8340, Note_on_c, 9, 35, 80
3, 8340, Note_on_c, 9, 42, 80
3, 8365, Note_on_c, 9, 35, 0
3, 8365, Note_on_c, 9, 42, 0
3, 8400, Note_on_c, 9, 35, 100
3, 8400, Note_on_c, 9, 42, 90
3, 8425, Note_on_c, 9, 35, 0
3, 8425, Note_on_c, 9, 42, 0
3, 8460, Note_on_c, 9, 42, 70
3, 8485, Note_on_c, 9, 42, 0
3, 8520, Note_on_c, 9, 38, 100
3, 8520, Note_on_c, 9, 42, 100
3, 8520, Note_on_c, 9, 54, 115
3, 8545, Note_on_c, 9, 38, 0
3, 8545, Note_on_c, 9, 42, 0
3, 8545, Note_on_c, 9, 54, 0
3, 8580, Note_on_c, 9, 35, 70
3, 8580, Note_on_c, 9, 42, 70
3, 8605, Note_on_c, 9, 35, 0
3, 8605, Note_on_c, 9, 42, 0
3, 8640, Note_on_c, 9, 35, 90
3, 8640, Note_on_c, 9, 42, 100
3, 8665, Note_on_c, 9, 35, 0
3, 8665, Note_on_c, 9, 42, 0
3, 8700, Note_on_c, 9, 42, 70
3, 8725, Note_on_c, 9, 42, 0
3, 8760, Note_on_c, 9, 38, 100
3, 8760, Note_on_c, 9, 42, 115
3, 8785, Note_on_c, 9, 38, 0
3, 8785, Note_on_c, 9, 42, 0
3, 8820, Note_on_c, 9, 35, 80
3, 8820, Note_on_c, 9, 42, 70
3, 8845, Note_on_c, 9, 35, 0
3, 8845, Note_on_c, 9, 42, 0
3, 8880, Note_on_c, 9, 35, 100
3, 8880, Note_on_c, 9, 42, 90
3, 8905, Note_on_c, 9, 35, 0
3, 8905, Note_on_c, 9, 42, 0
3, 8940, Note_on_c, 9, 42, 70
3, 8965, Note_on_c, 9, 42, 0
3, 9000, Note_on_c, 9, 38, 100
3, 9000, Note_on_c, 9, 42, 100
3, 9025, Note_on_c, 9, 38, 0
3, 9025, Note_on_c, 9, 42, 0
3, 9060, Note_on_c, 9, 42, 70
3, 9085, Note_on_c, 9, 42, 0
3, 9120, Note_on_c, 9, 35, 90
3, 9120, Note_on_c, 9, 42, 90
3, 9145, Note_on_c, 9, 35, 0
3, 9145, Note_on_c, 9, 42, 0
3, 9180, Note_on_c, 9, 42, 70
3, 9205, Note_on_c, 9, 42, 0
3, 9240, Note_on_c, 9, 38, 100
3, 9240, Note_on_c, 9, 42, 115
3, 9265, Note_on_c, 9, 38, 0
3, 9265, Note_on_c, 9, 42, 0
3, 9300, Note_on_c, 9, 35, 80
3, 9300, Note_on_c, 9, 42, 80
3, 9325, Note_on_c, 9, 35, 0
3, 9325, Note_on_c, 9, 42, 0
3, 9360, Note_on_c, 9, 35, 100
3, 9360, Note_on_c, 9, 42, 90
3, 9385, Note_on_c, 9, 35, 0
3, 9385, Note_on_c, 9, 42, 0
3, 9420, Note_on_c, 9, 42, 70
3, 9445, Note_on_c, 9, 42, 0
3, 9480, Note_on_c, 9, 38, 100
3, 9480, Note_on_c, 9, 42, 100
3, 9480, Note_on_c, 9, 54, 115
3, 9505, Note_on_c, 9, 38, 0
3, 9505, Note_on_c, 9, 42, 0
3, 9505, Note_on_c, 9, 54, 0
3, 9540, Note_on_c, 9, 35, 70
3, 9540, Note_on_c, 9, 42, 70
3, 9565, Note_on_c, 9, 35, 0
3, 9565, Note_on_c, 9, 42, 0
3, 9600, Note_on_c, 9, 35, 90
3, 9600, Note_on_c, 9, 42, 100
3, 9625, Note_on_c, 9, 35, 0
3, 9625, Note_on_c, 9, 42, 0
3, 9660, Note_on_c, 9, 42, 70
3, 9685, Note_on_c, 9, 42, 0
3, 9720, Note_on_c, 9, 38, 100
3, 9720, Note_on_c, 9, 42, 115
3, 9745, Note_on_c, 9, 38, 0
3, 9745, Note_on_c, 9, 42, 0
3, 9780, Note_on_c, 9, 35, 80
3, 9780, Note_on_c, 9, 42, 70
3, 9805, Note_on_c, 9, 35, 0
3, 9805, Note_on_c, 9, 42, 0
3, 9840, Note_on_c, 9, 35, 100
3, 9840, Note_on_c, 9, 42, 90
3, 9865, Note_on_c, 9, 35, 0
3, 9865, Note_on_c, 9, 42, 0
3, 9900, Note_on_c, 9, 42, 70
3, 9925, Note_on_c, 9, 42, 0
3, 9960, Note_on_c, 9, 38, 100
3, 9960, Note_on_c, 9, 42, 100
3, 9985, Note_on_c, 9, 38, 0
3, 9985, Note_on_c, 9, 42, 0
3, 10020, Note_on_c, 9, 42, 70
3, 10045, Note_on_c, 9, 42, 0
3, 10080, Note_on_c, 9, 35, 100
3, 10080, Note_on_c, 9, 42, 90
3, 10105, Note_on_c, 9, 35, 0
3, 10105, Note_on_c, 9, 42, 0
3, 10140, Note_on_c, 9, 42, 70
3, 10165, Note_on_c, 9, 42, 0
3, 10200, Note_on_c, 9, 38, 100
3, 10200, Note_on_c, 9, 46, 100
3, 10225, Note_on_c, 9, 38, 0
3, 10225, Note_on_c, 9, 46, 0
3, 10260, Note_on_c, 9, 35, 100
3, 10285, Note_on_c, 9, 35, 0
3, 10320, Note_on_c, 9, 48, 115
3, 10345, Note_on_c, 9, 48, 0
3, 10410, Note_on_c, 9, 45, 90
3, 10435, Note_on_c, 9, 45, 0
3, 10440, Note_on_c, 9, 45, 115
3, 10465, Note_on_c, 9, 45, 0
3, 10470, Note_on_c, 9, 41, 100
3, 10495, Note_on_c, 9, 41, 0
3, 10500, Note_on_c, 9, 41, 115
3, 10525, Note_on_c, 9, 41, 0
3, 11280, Note_on_c, 9, 35, 100
3, 11280, Note_on_c, 9, 38, 100
3, 11280, Note_on_c, 9, 42, 90
3, 11305, Note_on_c, 9, 35, 0
3, 11305, Note_on_c, 9, 38, 0
3, 11305, Note_on_c, 9, 42, 0
3, 11310, Note_on_c, 9, 38, 70
3, 11335, Note_on_c, 9, 38, 0
3, 11340, Note_on_c, 9, 38, 90
3, 11365, Note_on_c, 9, 38, 0
3, 11370, Note_on_c, 9, 38, 70
3, 11395, Note_on_c, 9, 38, 0
3, 11400, Note_on_c, 9, 45, 90
3, 11425, Note_on_c, 9, 45, 0
3, 11430, Note_on_c, 9, 45, 80
3, 11455, Note_on_c, 9, 45, 0
3, 11460, Note_on_c, 9, 45, 100
3, 11485, Note_on_c, 9, 45, 0
3, 11490, Note_on_c, 9, 45, 80
3, 11515, Note_on_c, 9, 45, 0
3, 11520, Note_on_c, 9, 35, 90
3, 11520, Note_on_c, 9, 42, 90
3, 11520, Note_on_c, 9, 49, 90
3, 11545, Note_on_c, 9, 35, 0
3, 11545, Note_on_c, 9, 42, 0
3, 11545, Note_on_c, 9, 49, 0
3, 11580, Note_on_c, 9, 42, 70
3, 11605, Note_on_c, 9, 42, 0
3, 11640, Note_on_c, 9, 38, 100
3, 11640, Note_on_c, 9, 42, 100
3, 11665, Note_on_c, 9, 38, 0
3, 11665, Note_on_c, 9, 42, 0
3, 11700, Note_on_c, 9, 35, 80
3, 11700, Note_on_c, 9, 42, 70
3, 11725, Note_on_c, 9, 35, 0
3, 11725, Note_on_c, 9, 42, 0
3, 11760, Note_on_c, 9, 35, 100
3, 11760, Note_on_c, 9, 42, 90
3, 11785, Note_on_c, 9, 35, 0
3, 11785, Note_on_c, 9, 42, 0
3, 11820, Note_on_c, 9, 42, 70
3, 11845, Note_on_c, 9, 42, 0
3, 11880, Note_on_c, 9, 38, 100
3, 11880, Note_on_c, 9, 42, 100
3, 11905, Note_on_c, 9, 38, 0
3, 11905, Note_on_c, 9, 42, 0
3, 11940, Note_on_c, 9, 35, 70
3, 11940, Note_on_c, 9, 42, 70
3, 11965, Note_on_c, 9, 35, 0
3, 11965, Note_on_c, 9, 42, 0
3, 12000, Note_on_c, 9, 35, 90
3, 12000, Note_on_c, 9, 42, 90
3, 12025, Note_on_c, 9, 35, 0
3, 12025, Note_on_c, 9, 42, 0
3, 12060, Note_on_c, 9, 42, 70
3, 12085, Note_on_c, 9, 42, 0
3, 12120, Note_on_c, 9, 38, 100
3, 12120, Note_on_c, 9, 42, 100
3, 12145, Note_on_c, 9, 38, 0
3, 12145, Note_on_c, 9, 42, 0
3, 12180, Note_on_c, 9, 35, 80
3, 12180, Note_on_c, 9, 42, 100
3, 12205, Note_on_c, 9, 35, 0
3, 12205, Note_on_c, 9, 42, 0
3, 12240, Note_on_c, 9, 35, 100
3, 12240, Note_on_c, 9, 42, 90
3, 12265, Note_on_c, 9, 35, 0
3, 12265, Note_on_c, 9, 42, 0
3, 12300, Note_on_c, 9, 35, 90
3, 12300, Note_on_c, 9, 42, 70
3, 12325, Note_on_c, 9, 35, 0
3, 12325, Note_on_c, 9, 42, 0
3, 12360, Note_on_c, 9, 38, 100
3, 12360, Note_on_c, 9, 42, 100
3, 12385, Note_on_c, 9, 38, 0
3, 12385, Note_on_c, 9, 42, 0
3, 12420, Note_on_c, 9, 35, 70
3, 12420, Note_on_c, 9, 42, 70
3, 12445, Note_on_c, 9, 35, 0
3, 12445, Note_on_c, 9, 42, 0
3, 12480, Note_on_c, 9, 35, 90
3, 12480, Note_on_c, 9, 42, 90
3, 12505, Note_on_c, 9, 35, 0
3, 12505, Note_on_c, 9, 42, 0
3, 12510, Note_on_c, 9, 42, 70
3, 12535, Note_on_c, 9, 42, 0
3, 12540, Note_on_c, 9, 42, 70
3, 12565, Note_on_c, 9, 42, 0
3, 12600, Note_on_c, 9, 38, 100
3, 12600, Note_on_c, 9, 42, 100
3, 12625, Note_on_c, 9, 38, 0
3, 12625, Note_on_c, 9, 42, 0
3, 12660, Note_on_c, 9, 35, 80
3, 12660, Note_on_c, 9, 42, 70
3, 12685, Note_on_c, 9, 35, 0
3, 12685, Note_on_c, 9, 42, 0
3, 12720, Note_on_c, 9, 35, 100
3, 12720, Note_on_c, 9, 42, 90
3, 12745, Note_on_c, 9, 35, 0
3, 12745, Note_on_c, 9, 42, 0
3, 12780, Note_on_c, 9, 42, 70
3, 12805, Note_on_c, 9, 42, 0
3, 12840, Note_on_c, 9, 38, 100
3, 12840, Note_on_c, 9, 42, 100
3, 12865, Note_on_c, 9, 38, 0
3, 12865, Note_on_c, 9, 42, 0
3, 12900, Note_on_c, 9, 35, 70
3, 12900, Note_on_c, 9, 42, 70
3, 12925, Note_on_c, 9, 35, 0
3, 12925, Note_on_c, 9, 42, 0
3, 12930, Note_on_c, 9, 46, 70
3, 12955, Note_on_c, 9, 46, 0
3, 12960, Note_on_c, 9, 38, 115
3, 12960, Note_on_c, 9, 49, 100
3, 12985, Note_on_c, 9, 38, 0
3, 12985, Note_on_c, 9, 49, 0
3, 13020, Note_on_c, 9, 38, 90
3, 13020, Note_on_c, 9, 41, 90
3, 13045, Note_on_c, 9, 38, 0
3, 13045, Note_on_c, 9, 41, 0
3, 13080, Note_on_c, 9, 38, 60
3, 13080, Note_on_c, 9, 41, 60
3, 13105, Note_on_c, 9, 38, 0
3, 13105, Note_on_c, 9, 41, 0
3, 13140, Note_on_c, 9, 38, 80
3, 13140, Note_on_c, 9, 41, 70
3, 13165, Note_on_c, 9, 38, 0
3, 13165, Note_on_c, 9, 41, 0
3, 13200, Note_on_c, 9, 38, 100
3, 13200, Note_on_c, 9, 41, 100
3, 13225, Note_on_c, 9, 38, 0
3, 13225, Note_on_c, 9, 41, 0
3, 13260, Note_on_c, 9, 35, 100
3, 13285, Note_on_c, 9, 35, 0
3, 13320, Note_on_c, 9, 38, 115
3, 13320, Note_on_c, 9, 41, 115
3, 13345, Note_on_c, 9, 38, 0
3, 13345, Note_on_c, 9, 41, 0
3, 13380, Note_on_c, 9, 35, 100
3, 13405, Note_on_c, 9, 35, 0
3, 13440, Note_on_c, 9, 35, 90
3, 13440, Note_on_c, 9, 42, 90
3, 13440, Note_on_c, 9, 49, 90
3, 13465, Note_on_c, 9, 35, 0
3, 13465, Note_on_c, 9, 42, 0
3, 13465, Note_on_c, 9, 49, 0
3, 13500, Note_on_c, 9, 42, 70
3, 13525, Note_on_c, 9, 42, 0
3, 13560, Note_on_c, 9, 38, 100
3, 13560, Note_on_c, 9, 42, 100
3, 13585, Note_on_c, 9, 38, 0
3, 13585, Note_on_c, 9, 42, 0
3, 13620, Note_on_c, 9, 35, 80
3, 13620, Note_on_c, 9, 42, 70
3, 13645, Note_on_c, 9, 35, 0
3, 13645, Note_on_c, 9, 42, 0
3, 13680, Note_on_c, 9, 35, 100
3, 13680, Note_on_c, 9, 42, 90
3, 13705, Note_on_c, 9, 35, 0
3, 13705, Note_on_c, 9, 42, 0
3, 13740, Note_on_c, 9, 42, 70
3, 13765, Note_on_c, 9, 42, 0
3, 13800, Note_on_c, 9, 38, 100
3, 13800, Note_on_c, 9, 42, 100
3, 13825, Note_on_c, 9, 38, 0
3, 13825, Note_on_c, 9, 42, 0
3, 13860, Note_on_c, 9, 35, 70
3, 13860, Note_on_c, 9, 42, 70
3, 13885, Note_on_c, 9, 35, 0
3, 13885, Note_on_c, 9, 42, 0
3, 13920, Note_on_c, 9, 35, 90
3, 13920, Note_on_c, 9, 42, 90
3, 13945, Note_on_c, 9, 35, 0
3, 13945, Note_on_c, 9, 42, 0
3, 13980, Note_on_c, 9, 42, 70
3, 14005, Note_on_c, 9, 42, 0
3, 14040, Note_on_c, 9, 38, 100
3, 14040, Note_on_c, 9, 42, 100
3, 14065, Note_on_c, 9, 38, 0
3, 14065, Note_on_c, 9, 42, 0
3, 14100, Note_on_c, 9, 35, 80
3, 14100, Note_on_c, 9, 42, 100
3, 14125, Note_on_c, 9, 35, 0
3, 14125, Note_on_c, 9, 42, 0
3, 14160, Note_on_c, 9, 35, 100
3, 14160, Note_on_c, 9, 42, 90
3, 14185, Note_on_c, 9, 35, 0
3, 14185, Note_on_c, 9, 42, 0
3, 14220, Note_on_c, 9, 35, 90
3, 14220, Note_on_c, 9, 42, 70
3, 14245, Note_on_c, 9, 35, 0
3, 14245, Note_on_c, 9, 42, 0
3, 14280, Note_on_c, 9, 38, 100
3, 14280, Note_on_c, 9, 42, 100
3, 14305, Note_on_c, 9, 38, 0
3, 14305, Note_on_c, 9, 42, 0
3, 14340, Note_on_c, 9, 35, 70
3, 14340, Note_on_c, 9, 46, 80
3, 14365, Note_on_c, 9, 35, 0
3, 14365, Note_on_c, 9, 46, 0
3, 14400, Note_on_c, 9, 35, 90
3, 14400, Note_on_c, 9, 42, 90
3, 14425, Note_on_c, 9, 35, 0
3, 14425, Note_on_c, 9, 42, 0
3, 14430, Note_on_c, 9, 42, 40
3, 14455, Note_on_c, 9, 42, 0
3, 14460, Note_on_c, 9, 42, 70
3, 14485, Note_on_c, 9, 42, 0
3, 14520, Note_on_c, 9, 38, 100
3, 14520, Note_on_c, 9, 42, 100
3, 14545, Note_on_c, 9, 38, 0
3, 14545, Note_on_c, 9, 42, 0
3, 14580, Note_on_c, 9, 35, 80
3, 14580, Note_on_c, 9, 42, 70
3, 14605, Note_on_c, 9, 35, 0
3, 14605, Note_on_c, 9, 42, 0
3, 14640, Note_on_c, 9, 35, 100
3, 14640, Note_on_c, 9, 42, 90
3, 14665, Note_on_c, 9, 35, 0
3, 14665, Note_on_c, 9, 42, 0
3, 14700, Note_on_c, 9, 42, 70
3, 14725, Note_on_c, 9, 42, 0
3, 14760, Note_on_c, 9, 38, 100
3, 14760, Note_on_c, 9, 42, 100
3, 14785, Note_on_c, 9, 38, 0
3, 14785, Note_on_c, 9, 42, 0
3, 14820, Note_on_c, 9, 35, 70
3, 14820, Note_on_c, 9, 42, 70
3, 14845, Note_on_c, 9, 35, 0
3, 14845, Note_on_c, 9, 42, 0
3, 14880, Note_on_c, 9, 35, 90
3, 14880, Note_on_c, 9, 42, 90
3, 14905, Note_on_c, 9, 35, 0
3, 14905, Note_on_c, 9, 42, 0
3, 14940, Note_on_c, 9, 42, 70
3, 14965, Note_on_c, 9, 42, 0
3, 14970, Note_on_c, 9, 42, 80
3, 14995, Note_on_c, 9, 42, 0
3, 15000, Note_on_c, 9, 38, 100
3, 15000, Note_on_c, 9, 46, 115
3, 15025, Note_on_c, 9, 38, 0
3, 15025, Note_on_c, 9, 46, 0
3, 15060, Note_on_c, 9, 35, 80
3, 15060, Note_on_c, 9, 45, 100
3, 15085, Note_on_c, 9, 35, 0
3, 15085, Note_on_c, 9, 45, 0
3, 15120, Note_on_c, 9, 35, 100
3, 15120, Note_on_c, 9, 48, 100
3, 15145, Note_on_c, 9, 35, 0
3, 15145, Note_on_c, 9, 48, 0
3, 15180, Note_on_c, 9, 45, 100
3, 15205, Note_on_c, 9, 45, 0
3, 15240, Note_on_c, 9, 42, 100
3, 15240, Note_on_c, 9, 45, 100
3, 15265, Note_on_c, 9, 42, 0
3, 15265, Note_on_c, 9, 45, 0
3, 15300, Note_on_c, 9, 42, 70
3, 15300, Note_on_c, 9, 41, 100
3, 15325, Note_on_c, 9, 42, 0
3, 15325, Note_on_c, 9, 41, 0
3, 15360, Note_on_c, 9, 35, 90
3, 15360, Note_on_c, 9, 42, 90
3, 15385, Note_on_c, 9, 35, 0
3, 15385, Note_on_c, 9, 42, 0
3, 15420, Note_on_c, 9, 42, 70
3, 15445, Note_on_c, 9, 42, 0
3, 15450, Note_on_c, 9, 42, 80
3, 15475, Note_on_c, 9, 42, 0
3, 15480, Note_on_c, 9, 38, 100
3, 15480, Note_on_c, 9, 46, 115
3, 15505, Note_on_c, 9, 38, 0
3, 15505, Note_on_c, 9, 46, 0
3, 15540, Note_on_c, 9, 35, 80
3, 15540, Note_on_c, 9, 45, 100
3, 15565, Note_on_c, 9, 35, 0
3, 15565, Note_on_c, 9, 45, 0
3, 15600, Note_on_c, 9, 35, 100
3, 15600, Note_on_c, 9, 48, 100
3, 15625, Note_on_c, 9, 35, 0
3, 15625, Note_on_c, 9, 48, 0
3, 15660, Note_on_c, 9, 45, 100
3, 15685, Note_on_c, 9, 45, 0
3, 15720, Note_on_c, 9, 42, 100
3, 15720, Note_on_c, 9, 45, 100
3, 15745, Note_on_c, 9, 42, 0
3, 15745, Note_on_c, 9, 45, 0
3, 15780, Note_on_c, 9, 42, 70
3, 15780, Note_on_c, 9, 41, 100
3, 15805, Note_on_c, 9, 42, 0
3, 15805, Note_on_c, 9, 41, 0
3, 15840, Note_on_c, 9, 35, 90
3, 15840, Note_on_c, 9, 42, 90
3, 15865, Note_on_c, 9, 35, 0
3, 15865, Note_on_c, 9, 42, 0
3, 15900, Note_on_c, 9, 42, 70
3, 15925, Note_on_c, 9, 42, 0
3, 15930, Note_on_c, 9, 42, 80
3, 15955, Note_on_c, 9, 42, 0
3, 15960, Note_on_c, 9, 38, 100
3, 15960, Note_on_c, 9, 46, 115
3, 15985, Note_on_c, 9, 38, 0
3, 15985, Note_on_c, 9, 46, 0
3, 15985, End_track
4, 0, Start_track
4, 0, MIDI_port, 0
4, 0, Title_t, "GUITAR"
4, 0, Program_c, 0, 77
4, 959, Note_on_c, 0, 60, 72
4, 964, Note_on_c, 0, 48, 59
4, 1063, Control_c, 0, 64, 127
4, 1170, Note_on_c, 0, 48, 0
4, 1176, Control_c, 0, 64, 0
4, 1183, Note_on_c, 0, 67, 75
4, 1185, Note_on_c, 0, 55, 75
4, 1187, Note_on_c, 0, 60, 0
4, 1414, Note_on_c, 0, 55, 0
4, 1425, Note_on_c, 0, 65, 81
4, 1430, Note_on_c, 0, 53, 49
4, 1435, Note_on_c, 0, 67, 0
4, 1654, Note_on_c, 0, 53, 0
4, 1663, Note_on_c, 0, 60, 68
4, 1664, Note_on_c, 0, 48, 32
4, 1688, Note_on_c, 0, 65, 0
4, 1890, Note_on_c, 0, 48, 0
4, 1897, Note_on_c, 0, 60, 0
4, 1898, Control_c, 0, 123, 0
4, 1905, Note_on_c, 0, 60, 33
4, 1910, Note_on_c, 0, 48, 52
4, 2056, Control_c, 0, 64, 127
4, 2125, Note_on_c, 0, 48, 0
4, 2138, Control_c, 0, 64, 0
4, 2143, Note_on_c, 0, 65, 70
4, 2145, Note_on_c, 0, 53, 90
4, 2328, Control_c, 0, 64, 127
4, 2379, Control_c, 0, 64, 0
4, 2381, Note_on_c, 0, 65, 0
4, 2383, Note_on_c, 0, 53, 0
4, 2389, Note_on_c, 0, 64, 72
4, 2389, Note_on_c, 0, 48, 60
4, 2608, Note_on_c, 0, 48, 0
4, 2610, Note_on_c, 0, 53, 85
4, 2610, Note_on_c, 0, 65, 81
4, 2620, Note_on_c, 0, 64, 0
4, 2863, Note_on_c, 0, 65, 0
4, 2865, Note_on_c, 0, 53, 0
4, 2866, Note_on_c, 0, 48, 62
4, 2869, Note_on_c, 0, 64, 37
4, 3102, Note_on_c, 0, 65, 78
4, 3106, Note_on_c, 0, 53, 82
4, 3111, Note_on_c, 0, 48, 0
4, 3111, Note_on_c, 0, 64, 0
4, 3333, Note_on_c, 0, 53, 0
4, 3335, Note_on_c, 0, 65, 0
4, 3339, Note_on_c, 0, 48, 55
4, 3342, Note_on_c, 0, 64, 73
4, 3568, Note_on_c, 0, 53, 84
4, 3570, Note_on_c, 0, 48, 0
4, 3571, Note_on_c, 0, 65, 77
4, 3579, Note_on_c, 0, 64, 0
4, 3815, Note_on_c, 0, 53, 0
4, 3818, Note_on_c, 0, 65, 0
4, 3822, Note_on_c, 0, 48, 47
4, 3826, Note_on_c, 0, 64, 44
4, 4043, Note_on_c, 0, 48, 0
4, 4066, Note_on_c, 0, 65, 74
4, 4066, Note_on_c, 0, 53, 76
4, 4072, Note_on_c, 0, 64, 0
4, 4286, Note_on_c, 0, 60, 0
4, 4297, Note_on_c, 0, 53, 0
4, 4301, Note_on_c, 0, 60, 82
4, 4304, Note_on_c, 0, 48, 60
4, 4310, Note_on_c, 0, 65, 0
4, 4534, Note_on_c, 0, 48, 0
4, 4546, Note_on_c, 0, 65, 84
4, 4548, Note_on_c, 0, 53, 83
4, 4570, Note_on_c, 0, 60, 0
4, 4700, Note_on_c, 0, 60, 49
4, 4721, Note_on_c, 0, 60, 0
4, 4778, Note_on_c, 0, 65, 0
4, 4779, Note_on_c, 0, 53, 0
4, 4781, Control_c, 0, 123, 0
4, 4947, Control_c, 0, 64, 127
4, 4990, Control_c, 0, 123, 0
4, 5001, Control_c, 0, 64, 0
4, 5253, Control_c, 0, 123, 0
4, 5440, Control_c, 0, 64, 127
4, 5490, Control_c, 0, 64, 0
4, 5751, Note_on_c, 0, 60, 42
4, 5753, Note_on_c, 0, 48, 73
4, 5943, Note_on_c, 0, 48, 0
4, 5997, Note_on_c, 0, 48, 23
4, 6176, Note_on_c, 0, 60, 0
4, 6219, Note_on_c, 0, 62, 44
4, 6226, Note_on_c, 0, 48, 0
4, 6226, Note_on_c, 0, 67, 75
4, 6226, Note_on_c, 0, 55, 74
4, 6405, Note_on_c, 0, 62, 0
4, 6433, Note_on_c, 0, 67, 0
4, 6459, Note_on_c, 0, 60, 55
4, 6461, Note_on_c, 0, 48, 62
4, 6462, Note_on_c, 0, 64, 47
4, 6472, Note_on_c, 0, 55, 0
4, 6602, Note_on_c, 0, 60, 0
4, 6610, Note_on_c, 0, 60, 38
4, 6691, Note_on_c, 0, 48, 0
4, 6703, Note_on_c, 0, 60, 0
4, 6709, Note_on_c, 0, 60, 24
4, 6715, Note_on_c, 0, 48, 75
4, 6828, Note_on_c, 0, 60, 0
4, 6917, Note_on_c, 0, 64, 0
4, 6934, Note_on_c, 0, 48, 0
4, 6934, Note_on_c, 0, 62, 71
4, 6938, Note_on_c, 0, 55, 72
4, 6938, Note_on_c, 0, 67, 80
4, 7100, Note_on_c, 0, 62, 0
4, 7146, Note_on_c, 0, 67, 0
4, 7163, Note_on_c, 0, 55, 0
4, 7163, Control_c, 0, 123, 0
4, 7177, Note_on_c, 0, 60, 49
4, 7178, Note_on_c, 0, 65, 66
4, 7178, Note_on_c, 0, 53, 84
4, 7239, Note_on_c, 0, 65, 0
4, 7250, Note_on_c, 0, 65, 63
4, 7313, Note_on_c, 0, 65, 0
4, 7359, Note_on_c, 0, 53, 0
4, 7364, Note_on_c, 0, 64, 66
4, 7366, Note_on_c, 0, 48, 53
4, 7598, Control_c, 0, 64, 127
4, 7621, Note_on_c, 0, 60, 0
4, 7623, Note_on_c, 0, 48, 0
4, 7640, Note_on_c, 0, 64, 0
4, 7640, Control_c, 0, 123, 0
4, 7657, Control_c, 0, 64, 0
4, 7669, Note_on_c, 0, 48, 55
4, 7669, Note_on_c, 0, 60, 73
4, 7822, Control_c, 0, 64, 127
4, 7871, Control_c, 0, 64, 0
4, 7880, Note_on_c, 0, 48, 0
4, 7905, Note_on_c, 0, 65, 55
4, 7905, Note_on_c, 0, 53, 82
4, 8064, Control_c, 0, 64, 127
4, 8097, Control_c, 0, 64, 0
4, 8125, Note_on_c, 0, 60, 0
4, 8139, Note_on_c, 0, 53, 0
4, 8141, Note_on_c, 0, 60, 73
4, 8144, Note_on_c, 0, 48, 60
4, 8152, Note_on_c, 0, 65, 0
4, 8304, Control_c, 0, 64, 127
4, 8345, Control_c, 0, 64, 0
4, 8360, Note_on_c, 0, 48, 0
4, 8372, Note_on_c, 0, 65, 65
4, 8378, Note_on_c, 0, 53, 78
4, 8394, Note_on_c, 0, 60, 0
4, 8529, Control_c, 0, 64, 127
4, 8574, Control_c, 0, 64, 0
4, 8610, Note_on_c, 0, 53, 0
4, 8629, Note_on_c, 0, 48, 51
4, 8630, Note_on_c, 0, 60, 73
4, 8633, Note_on_c, 0, 65, 0
4, 8789, Control_c, 0, 64, 127
4, 8833, Control_c, 0, 64, 0
4, 8854, Note_on_c, 0, 48, 0
4, 8872, Note_on_c, 0, 65, 66
4, 8875, Note_on_c, 0, 53, 78
4, 8881, Note_on_c, 0, 60, 0
4, 9028, Control_c, 0, 64, 127
4, 9067, Control_c, 0, 64, 0
4, 9095, Note_on_c, 0, 53, 0
4, 9099, Note_on_c, 0, 48, 58
4, 9100, Note_on_c, 0, 60, 77
4, 9103, Note_on_c, 0, 65, 0
4, 9242, Control_c, 0, 64, 127
4, 9303, Control_c, 0, 64, 0
4, 9330, Note_on_c, 0, 48, 0
4, 9342, Note_on_c, 0, 60, 0
4, 9342, Control_c, 0, 123, 0
4, 9344, Note_on_c, 0, 65, 62
4, 9349, Note_on_c, 0, 53, 86
4, 9484, Control_c, 0, 64, 127
4, 9549, Control_c, 0, 64, 0
4, 9576, Note_on_c, 0, 53, 0
4, 9579, Note_on_c, 0, 48, 71
4, 9582, Note_on_c, 0, 60, 72
4, 9584, Note_on_c, 0, 65, 0
4, 9714, Control_c, 0, 64, 127
4, 9759, Note_on_c, 0, 48, 0
4, 9774, Note_on_c, 0, 60, 0
4, 9775, Control_c, 0, 123, 0
4, 9796, Note_on_c, 0, 65, 74
4, 9797, Note_on_c, 0, 53, 68
4, 9815, Control_c, 0, 64, 0
4, 9952, Control_c, 0, 64, 127
4, 10019, Control_c, 0, 64, 0
4, 10064, Note_on_c, 0, 53, 0
4, 10068, Note_on_c, 0, 48, 57
4, 10068, Note_on_c, 0, 60, 77
4, 10073, Note_on_c, 0, 65, 0
4, 10215, Control_c, 0, 64, 127
4, 10292, Control_c, 0, 64, 0
4, 10295, Note_on_c, 0, 48, 0
4, 10314, Note_on_c, 0, 65, 81
4, 10319, Note_on_c, 0, 53, 80
4, 10321, Note_on_c, 0, 60, 0
4, 10542, Note_on_c, 0, 53, 0
4, 10545, Note_on_c, 0, 65, 0
4, 10546, Control_c, 0, 123, 0
4, 10760, Control_c, 0, 123, 0
4, 11018, Control_c, 0, 123, 0
4, 11192, Control_c, 0, 64, 127
4, 11238, Control_c, 0, 123, 0
4, 11252, Control_c, 0, 64, 0
4, 11419, Control_c, 0, 64, 127
4, 11486, Control_c, 0, 123, 0
4, 11508, Note_on_c, 0, 48, 59
4, 11508, Note_on_c, 0, 60, 79
4, 11517, Control_c, 0, 64, 0
4, 11636, Control_c, 0, 64, 127
4, 11817, Note_on_c, 0, 60, 0
4, 11861, Note_on_c, 0, 48, 0
4, 11862, Control_c, 0, 123, 0
4, 11976, Control_c, 0, 64, 0
4, 11984, Note_on_c, 0, 62, 50
4, 11985, Note_on_c, 0, 67, 57
4, 11986, Note_on_c, 0, 55, 66
4, 12098, Control_c, 0, 64, 127
4, 12117, Note_on_c, 0, 67, 0
4, 12124, Note_on_c, 0, 62, 0
4, 12143, Note_on_c, 0, 55, 0
4, 12143, Control_c, 0, 123, 0
4, 12205, Control_c, 0, 64, 0
4, 12227, Note_on_c, 0, 60, 16
4, 12229, Note_on_c, 0, 48, 44
4, 12230, Note_on_c, 0, 64, 34
4, 12367, Control_c, 0, 64, 127
4, 12423, Note_on_c, 0, 48, 0
4, 12426, Note_on_c, 0, 60, 0
4, 12427, Note_on_c, 0, 64, 0
4, 12428, Control_c, 0, 123, 0
4, 12473, Note_on_c, 0, 48, 53
4, 12476, Note_on_c, 0, 60, 44
4, 12477, Control_c, 0, 64, 0
4, 12478, Note_on_c, 0, 64, 60
4, 12532, Control_c, 0, 64, 127
4, 12575, Note_on_c, 0, 60, 0
4, 12577, Note_on_c, 0, 64, 0
4, 12597, Note_on_c, 0, 48, 0
4, 12598, Control_c, 0, 123, 0
4, 12707, Note_on_c, 0, 67, 59
4, 12707, Control_c, 0, 64, 0
4, 12707, Note_on_c, 0, 62, 50
4, 12708, Note_on_c, 0, 55, 51
4, 12813, Control_c, 0, 64, 127
4, 12859, Note_on_c, 0, 62, 0
4, 12860, Note_on_c, 0, 67, 0
4, 12876, Note_on_c, 0, 55, 0
4, 12877, Control_c, 0, 123, 0
4, 12944, Control_c, 0, 64, 0
4, 12949, Note_on_c, 0, 53, 71
4, 12952, Note_on_c, 0, 60, 58
4, 12953, Note_on_c, 0, 65, 73
4, 13081, Control_c, 0, 64, 127
4, 13114, Note_on_c, 0, 65, 0
4, 13131, Note_on_c, 0, 53, 0
4, 13144, Note_on_c, 0, 60, 0
4, 13145, Control_c, 0, 123, 0
4, 13177, Control_c, 0, 64, 0
4, 13179, Note_on_c, 0, 60, 20
4, 13181, Note_on_c, 0, 64, 51
4, 13182, Note_on_c, 0, 48, 48
4, 13313, Control_c, 0, 64, 127
4, 13357, Note_on_c, 0, 60, 0
4, 13376, Note_on_c, 0, 48, 0
4, 13382, Note_on_c, 0, 64, 0
4, 13383, Control_c, 0, 123, 0
4, 13430, Note_on_c, 0, 60, 83
4, 13432, Note_on_c, 0, 48, 56
4, 13433, Control_c, 0, 64, 0
4, 13559, Control_c, 0, 64, 127
4, 13618, Note_on_c, 0, 48, 0
4, 13629, Note_on_c, 0, 60, 0
4, 13630, Control_c, 0, 123, 0
4, 13918, Note_on_c, 0, 60, 24
4, 13923, Note_on_c, 0, 67, 81
4, 13937, Note_on_c, 0, 60, 0
4, 13950, Control_c, 0, 64, 0
4, 13954, Note_on_c, 0, 62, 83
4, 13985, Control_c, 0, 64, 127
4, 14053, Note_on_c, 0, 67, 0
4, 14070, Note_on_c, 0, 62, 0
4, 14071, Control_c, 0, 123, 0
4, 14135, Control_c, 0, 64, 0
4, 14140, Note_on_c, 0, 60, 46
4, 14142, Note_on_c, 0, 64, 73
4, 14142, Note_on_c, 0, 48, 33
4, 14256, Control_c, 0, 64, 127
4, 14319, Note_on_c, 0, 60, 0
4, 14332, Note_on_c, 0, 48, 0
4, 14345, Note_on_c, 0, 64, 0
4, 14345, Control_c, 0, 123, 0
4, 14382, Control_c, 0, 64, 0
4, 14386, Note_on_c, 0, 60, 80
4, 14386, Note_on_c, 0, 48, 65
4, 14449, Control_c, 0, 64, 127
4, 14501, Note_on_c, 0, 60, 0
4, 14580, Note_on_c, 0, 48, 0
4, 14581, Control_c, 0, 123, 0
4, 14614, Control_c, 0, 64, 0
4, 14624, Note_on_c, 0, 67, 60
4, 14624, Note_on_c, 0, 62, 57
4, 14626, Note_on_c, 0, 55, 66
4, 14751, Control_c, 0, 64, 127
4, 14785, Note_on_c, 0, 62, 0
4, 14791, Note_on_c, 0, 67, 0
4, 14814, Note_on_c, 0, 55, 0
4, 14815, Control_c, 0, 123, 0
4, 14855, Control_c, 0, 64, 0
4, 14868, Note_on_c, 0, 53, 58
4, 14868, Note_on_c, 0, 60, 36
4, 14869, Note_on_c, 0, 65, 44
4, 14999, Control_c, 0, 64, 127
4, 15025, Note_on_c, 0, 65, 0
4, 15044, Note_on_c, 0, 53, 0
4, 15103, Control_c, 0, 64, 0
4, 15116, Note_on_c, 0, 48, 21
4, 15117, Note_on_c, 0, 64, 32
4, 15249, Control_c, 0, 64, 127
4, 15317, Note_on_c, 0, 48, 0
4, 15331, Note_on_c, 0, 64, 0
4, 15335, Note_on_c, 0, 60, 0
4, 15336, Control_c, 0, 123, 0
4, 15345, Control_c, 0, 64, 0
4, 15353, Note_on_c, 0, 60, 28
4, 15353, Note_on_c, 0, 48, 54
4, 15354, Note_on_c, 0, 64, 59
4, 15393, Control_c, 0, 64, 127
4, 15474, Note_on_c, 0, 60, 0
4, 15476, Note_on_c, 0, 64, 0
4, 15510, Note_on_c, 0, 48, 0
4, 15511, Control_c, 0, 123, 0
4, 15574, Control_c, 0, 64, 0
4, 15583, Note_on_c, 0, 67, 51
4, 15585, Note_on_c, 0, 62, 55
4, 15586, Note_on_c, 0, 55, 58
4, 15707, Control_c, 0, 64, 127
4, 15739, Note_on_c, 0, 62, 0
4, 15755, Note_on_c, 0, 67, 0
4, 15782, Note_on_c, 0, 55, 0
4, 15783, Control_c, 0, 123, 0
4, 15820, Note_on_c, 0, 53, 63
4, 15820, Note_on_c, 0, 60, 26
4, 15822, Note_on_c, 0, 65, 43
4, 15825, Control_c, 0, 64, 0
4, 15945, Control_c, 0, 64, 127
4, 15980, Note_on_c, 0, 65, 0
4, 15991, Note_on_c, 0, 53, 0
4, 16053, Control_c, 0, 64, 0
4, 16060, Note_on_c, 0, 64, 33
4, 16061, Note_on_c, 0, 48, 42
4, 16385, Note_on_c, 0, 64, 0
4, 16582, Note_on_c, 0, 48, 0
4, 16590, Note_on_c, 0, 60, 0
4, 16591, Control_c, 0, 123, 0
4, 16591, End_track
5, 0, Start_track
5, 0, MIDI_port, 0
5, 0, Title_t, "GUITAR"
5, 0, Program_c, 2, 25
5, 963, Note_on_c, 2, 60, 98
5, 963, Note_on_c, 2, 48, 87
5, 963, Note_on_c, 2, 64, 99
5, 964, Note_on_c, 2, 55, 82
5, 1057, Control_c, 2, 64, 127
5, 1076, Note_on_c, 2, 64, 0
5, 1077, Note_on_c, 2, 60, 0
5, 1081, Note_on_c, 2, 55, 0
5, 1089, Note_on_c, 2, 60, 107
5, 1089, Note_on_c, 2, 64, 103
5, 1089, Note_on_c, 2, 55, 85
5, 1105, Note_on_c, 2, 60, 0
5, 1107, Note_on_c, 2, 64, 0
5, 1112, Note_on_c, 2, 55, 0
5, 1124, Note_on_c, 2, 48, 0
5, 1125, Control_c, 2, 123, 0
5, 1141, Note_on_c, 2, 55, 71
5, 1190, Note_on_c, 2, 55, 0
5, 1190, Control_c, 2, 123, 0
5, 1196, Control_c, 2, 64, 0
5, 1200, Note_on_c, 2, 43, 87
5, 1201, Note_on_c, 2, 55, 97
5, 1201, Note_on_c, 2, 62, 108
5, 1256, Note_on_c, 2, 62, 0
5, 1257, Note_on_c, 2, 55, 0
5, 1266, Note_on_c, 2, 62, 111
5, 1267, Note_on_c, 2, 55, 99
5, 1298, Note_on_c, 2, 43, 0
5, 1323, Note_on_c, 2, 43, 80
5, 1328, Note_on_c, 2, 62, 0
5, 1338, Note_on_c, 2, 55, 0
5, 1341, Control_c, 2, 64, 127
5, 1379, Note_on_c, 2, 43, 0
5, 1379, Control_c, 2, 123, 0
5, 1385, Note_on_c, 2, 53, 92
5, 1427, Control_c, 2, 64, 0
5, 1443, Note_on_c, 2, 41, 92
5, 1445, Note_on_c, 2, 60, 107
5, 1487, Note_on_c, 2, 60, 0
5, 1491, Note_on_c, 2, 53, 0
5, 1501, Note_on_c, 2, 41, 0
5, 1502, Control_c, 2, 123, 0
5, 1504, Note_on_c, 2, 60, 107
5, 1505, Note_on_c, 2, 53, 95
5, 1505, Note_on_c, 2, 41, 64
5, 1547, Note_on_c, 2, 60, 0
5, 1547, Note_on_c, 2, 53, 0
5, 1557, Note_on_c, 2, 41, 0
5, 1558, Control_c, 2, 123, 0
5, 1568, Note_on_c, 2, 55, 66
5, 1597, Note_on_c, 2, 55, 0
5, 1598, Control_c, 2, 123, 0
5, 1626, Note_on_c, 2, 48, 91
5, 1626, Note_on_c, 2, 55, 93
5, 1627, Note_on_c, 2, 60, 104
5, 1627, Note_on_c, 2, 64, 99
5, 1827, Note_on_c, 2, 64, 0
5, 1831, Note_on_c, 2, 60, 0
5, 1846, Note_on_c, 2, 48, 0
5, 1899, Note_on_c, 2, 55, 0
5, 1901, Control_c, 2, 123, 0
5, 1919, Note_on_c, 2, 48, 84
5, 1920, Note_on_c, 2, 55, 74
5, 1922, Note_on_c, 2, 64, 103
5, 1923, Note_on_c, 2, 60, 102
5, 2014, Control_c, 2, 64, 127
5, 2032, Note_on_c, 2, 64, 0
5, 2034, Note_on_c, 2, 60, 0
5, 2038, Note_on_c, 2, 60, 59
5, 2039, Note_on_c, 2, 64, 81
5, 2044, Note_on_c, 2, 48, 0
5, 2053, Note_on_c, 2, 64, 0
5, 2054, Note_on_c, 2, 60, 0
5, 2065, Note_on_c, 2, 55, 0
5, 2065, Control_c, 2, 123, 0
5, 2097, Note_on_c, 2, 53, 71
5, 2140, Control_c, 2, 64, 0
5, 2149, Note_on_c, 2, 53, 0
5, 2150, Control_c, 2, 123, 0
5, 2154, Note_on_c, 2, 53, 33
5, 2156, Note_on_c, 2, 57, 103
5, 2156, Note_on_c, 2, 60, 107
5, 2156, Note_on_c, 2, 41, 97
5, 2267, Note_on_c, 2, 57, 0
5, 2271, Note_on_c, 2, 60, 0
5, 2276, Note_on_c, 2, 60, 81
5, 2277, Note_on_c, 2, 57, 94
5, 2294, Note_on_c, 2, 41, 0
5, 2296, Note_on_c, 2, 57, 0
5, 2297, Control_c, 2, 64, 127
5, 2299, Note_on_c, 2, 53, 0
5, 2301, Note_on_c, 2, 60, 0
5, 2302, Control_c, 2, 123, 0
5, 2344, Note_on_c, 2, 55, 73
5, 2389, Note_on_c, 2, 55, 0
5, 2389, Control_c, 2, 123, 0
5, 2394, Control_c, 2, 64, 0
5, 2398, Note_on_c, 2, 55, 69
5, 2398, Note_on_c, 2, 48, 93
5, 2399, Note_on_c, 2, 60, 100
5, 2402, Note_on_c, 2, 64, 83
5, 2430, Note_on_c, 2, 64, 0
5, 2431, Note_on_c, 2, 60, 0
5, 2439, Note_on_c, 2, 55, 0
5, 2461, Note_on_c, 2, 64, 98
5, 2461, Note_on_c, 2, 60, 106
5, 2462, Note_on_c, 2, 55, 91
5, 2504, Note_on_c, 2, 48, 0
5, 2514, Control_c, 2, 64, 127
5, 2519, Note_on_c, 2, 48, 85
5, 2521, Note_on_c, 2, 64, 0
5, 2521, Note_on_c, 2, 60, 0
5, 2531, Note_on_c, 2, 55, 0
5, 2546, Note_on_c, 2, 48, 0
5, 2546, Control_c, 2, 123, 0
5, 2580, Note_on_c, 2, 53, 102
5, 2613, Control_c, 2, 64, 0
5, 2634, Note_on_c, 2, 41, 99
5, 2706, Control_c, 2, 64, 127
5, 2758, Note_on_c, 2, 41, 0
5, 2758, Note_on_c, 2, 60, 97
5, 2758, Note_on_c, 2, 57, 93
5, 2770, Note_on_c, 2, 57, 0
5, 2775, Note_on_c, 2, 60, 0
5, 2776, Note_on_c, 2, 53, 0
5, 2776, Control_c, 2, 123, 0
5, 2815, Note_on_c, 2, 55, 84
5, 2866, Control_c, 2, 64, 0
5, 2878, Note_on_c, 2, 48, 93
5, 2880, Note_on_c, 2, 60, 102
5, 2880, Note_on_c, 2, 64, 95
5, 2988, Note_on_c, 2, 60, 0
5, 2989, Note_on_c, 2, 64, 0
5, 2991, Note_on_c, 2, 55, 0
5, 3000, Note_on_c, 2, 55, 72
5, 3000, Note_on_c, 2, 60, 99
5, 3000, Note_on_c, 2, 64, 98
5, 3016, Control_c, 2, 64, 127
5, 3017, Note_on_c, 2, 60, 0
5, 3018, Note_on_c, 2, 48, 0
5, 3019, Note_on_c, 2, 64, 0
5, 3025, Note_on_c, 2, 55, 0
5, 3026, Control_c, 2, 123, 0
5, 3063, Note_on_c, 2, 53, 87
5, 3104, Control_c, 2, 64, 0
5, 3111, Note_on_c, 2, 53, 0
5, 3111, Control_c, 2, 123, 0
5, 3120, Note_on_c, 2, 41, 90
5, 3123, Note_on_c, 2, 60, 107
5, 3123, Note_on_c, 2, 53, 92
5, 3226, Note_on_c, 2, 60, 0
5, 3233, Note_on_c, 2, 60, 84
5, 3234, Note_on_c, 2, 57, 100
5, 3247, Note_on_c, 2, 41, 0
5, 3249, Note_on_c, 2, 57, 0
5, 3250, Control_c, 2, 64, 127
5, 3255, Note_on_c, 2, 53, 0
5, 3255, Note_on_c, 2, 60, 0
5, 3256, Control_c, 2, 123, 0
5, 3298, Note_on_c, 2, 55, 56
5, 3331, Note_on_c, 2, 55, 0
5, 3331, Control_c, 2, 123, 0
5, 3338, Control_c, 2, 64, 0
5, 3354, Note_on_c, 2, 48, 82
5, 3355, Note_on_c, 2, 55, 92
5, 3355, Note_on_c, 2, 60, 103
5, 3356, Note_on_c, 2, 64, 100
5, 3464, Note_on_c, 2, 60, 0
5, 3466, Note_on_c, 2, 64, 0
5, 3467, Note_on_c, 2, 55, 0
5, 3474, Note_on_c, 2, 64, 63
5, 3474, Note_on_c, 2, 60, 79
5, 3474, Note_on_c, 2, 55, 48
5, 3490, Control_c, 2, 64, 127
5, 3494, Note_on_c, 2, 64, 0
5, 3495, Note_on_c, 2, 60, 0
5, 3502, Note_on_c, 2, 55, 0
5, 3503, Note_on_c, 2, 48, 0
5, 3505, Control_c, 2, 123, 0
5, 3536, Note_on_c, 2, 53, 92
5, 3575, Note_on_c, 2, 53, 0
5, 3576, Control_c, 2, 123, 0
5, 3583, Control_c, 2, 64, 0
5, 3594, Note_on_c, 2, 53, 85
5, 3594, Note_on_c, 2, 41, 90
5, 3594, Note_on_c, 2, 57, 99
5, 3595, Note_on_c, 2, 60, 103
5, 3681, Control_c, 2, 64, 127
5, 3699, Note_on_c, 2, 53, 0
5, 3703, Note_on_c, 2, 57, 0
5, 3707, Note_on_c, 2, 60, 0
5, 3713, Note_on_c, 2, 60, 60
5, 3713, Note_on_c, 2, 57, 95
5, 3714, Note_on_c, 2, 53, 74
5, 3730, Note_on_c, 2, 41, 0
5, 3730, Note_on_c, 2, 53, 0
5, 3733, Note_on_c, 2, 57, 0
5, 3738, Note_on_c, 2, 60, 0
5, 3738, Control_c, 2, 123, 0
5, 3774, Note_on_c, 2, 55, 77
5, 3822, Note_on_c, 2, 55, 0
5, 3823, Control_c, 2, 123, 0
5, 3827, Control_c, 2, 64, 0
5, 3829, Note_on_c, 2, 55, 33
5, 3830, Note_on_c, 2, 48, 87
5, 3831, Note_on_c, 2, 60, 94
5, 3832, Note_on_c, 2, 64, 90
5, 3918, Control_c, 2, 64, 127
5, 3932, Note_on_c, 2, 64, 0
5, 3933, Note_on_c, 2, 60, 0
5, 3935, Note_on_c, 2, 55, 0
5, 3954, Note_on_c, 2, 60, 98
5, 3955, Note_on_c, 2, 55, 90
5, 3955, Note_on_c, 2, 64, 97
5, 3974, Note_on_c, 2, 60, 0
5, 3974, Note_on_c, 2, 64, 0
5, 3980, Note_on_c, 2, 55, 0
5, 3991, Note_on_c, 2, 48, 0
5, 3992, Control_c, 2, 123, 0
5, 4017, Note_on_c, 2, 53, 93
5, 4058, Note_on_c, 2, 53, 0
5, 4060, Control_c, 2, 123, 0
5, 4060, Control_c, 2, 64, 0
5, 4076, Note_on_c, 2, 53, 84
5, 4076, Note_on_c, 2, 41, 92
5, 4076, Note_on_c, 2, 57, 102
5, 4076, Note_on_c, 2, 60, 102
5, 4186, Note_on_c, 2, 57, 0
5, 4189, Note_on_c, 2, 53, 0
5, 4189, Note_on_c, 2, 60, 0
5, 4197, Note_on_c, 2, 53, 66
5, 4198, Note_on_c, 2, 60, 95
5, 4199, Note_on_c, 2, 57, 100
5, 4218, Note_on_c, 2, 57, 0
5, 4219, Note_on_c, 2, 53, 0
5, 4222, Control_c, 2, 64, 127
5, 4223, Note_on_c, 2, 60, 0
5, 4231, Note_on_c, 2, 41, 0
5, 4231, Control_c, 2, 123, 0
5, 4258, Note_on_c, 2, 55, 80
5, 4296, Control_c, 2, 64, 0
5, 4305, Note_on_c, 2, 55, 0
5, 4306, Control_c, 2, 123, 0
5, 4316, Note_on_c, 2, 48, 97
5, 4316, Note_on_c, 2, 55, 70
5, 4318, Note_on_c, 2, 60, 97
5, 4318, Note_on_c, 2, 64, 95
5, 4423, Note_on_c, 2, 55, 0
5, 4423, Note_on_c, 2, 60, 0
5, 4423, Note_on_c, 2, 64, 0
5, 4436, Note_on_c, 2, 64, 102
5, 4436, Note_on_c, 2, 60, 104
5, 4437, Note_on_c, 2, 55, 83
5, 4453, Note_on_c, 2, 64, 0
5, 4453, Note_on_c, 2, 60, 0
5, 4459, Note_on_c, 2, 55, 0
5, 4472, Control_c, 2, 64, 127
5, 4480, Note_on_c, 2, 48, 0
5, 4481, Control_c, 2, 123, 0
5, 4496, Note_on_c, 2, 53, 86
5, 4534, Control_c, 2, 64, 0
5, 4541, Note_on_c, 2, 53, 0
5, 4543, Control_c, 2, 123, 0
5, 4553, Note_on_c, 2, 53, 39
5, 4555, Note_on_c, 2, 41, 91
5, 4556, Note_on_c, 2, 57, 95
5, 4557, Note_on_c, 2, 60, 98
5, 4664, Note_on_c, 2, 57, 0
5, 4667, Note_on_c, 2, 53, 0
5, 4667, Note_on_c, 2, 60, 0
5, 4681, Note_on_c, 2, 53, 82
5, 4681, Note_on_c, 2, 60, 100
5, 4681, Note_on_c, 2, 57, 100
5, 4694, Control_c, 2, 64, 127
5, 4696, Note_on_c, 2, 57, 0
5, 4697, Note_on_c, 2, 53, 0
5, 4700, Note_on_c, 2, 60, 0
5, 4715, Note_on_c, 2, 41, 0
5, 4716, Control_c, 2, 123, 0
5, 4733, Note_on_c, 2, 55, 77
5, 4763, Note_on_c, 2, 55, 0
5, 4764, Control_c, 2, 123, 0
5, 4772, Control_c, 2, 64, 0
5, 4800, Note_on_c, 2, 60, 108
5, 4801, Note_on_c, 2, 64, 108
5, 4801, Note_on_c, 2, 48, 107
5, 4801, Note_on_c, 2, 55, 103
5, 4961, Note_on_c, 2, 64, 0
5, 4963, Note_on_c, 2, 60, 0
5, 4978, Note_on_c, 2, 48, 0
5, 5008, Note_on_c, 2, 55, 0
5, 5008, Control_c, 2, 123, 0
5, 5217, Control_c, 2, 64, 127
5, 5229, Control_c, 2, 123, 0
5, 5240, Control_c, 2, 64, 0
5, 5430, Control_c, 2, 123, 0
5, 5436, Control_c, 2, 64, 127
5, 5446, Control_c, 2, 64, 0
5, 5711, Control_c, 2, 123, 0
5, 5723, Control_c, 2, 64, 127
5, 5750, Control_c, 2, 64, 0
5, 5764, Note_on_c, 2, 52, 81
5, 5765, Note_on_c, 2, 48, 90
5, 5765, Note_on_c, 2, 60, 102
5, 5765, Note_on_c, 2, 64, 99
5, 5766, Note_on_c, 2, 55, 91
5, 5870, Note_on_c, 2, 55, 0
5, 5885, Control_c, 2, 64, 127
5, 5889, Note_on_c, 2, 55, 57
5, 5910, Note_on_c, 2, 64, 0
5, 5929, Note_on_c, 2, 60, 0
5, 5933, Note_on_c, 2, 55, 0
5, 5942, Note_on_c, 2, 55, 52
5, 5971, Note_on_c, 2, 48, 0
5, 5975, Note_on_c, 2, 52, 0
5, 5987, Note_on_c, 2, 55, 0
5, 5988, Control_c, 2, 123, 0
5, 5997, Note_on_c, 2, 55, 13
5, 5998, Note_on_c, 2, 60, 98
5, 5999, Note_on_c, 2, 48, 79
5, 6108, Note_on_c, 2, 60, 0
5, 6116, Note_on_c, 2, 64, 104
5, 6116, Note_on_c, 2, 60, 94
5, 6138, Note_on_c, 2, 55, 0
5, 6141, Note_on_c, 2, 60, 0
5, 6143, Note_on_c, 2, 64, 0
5, 6156, Note_on_c, 2, 48, 0
5, 6156, Control_c, 2, 123, 0
5, 6173, Note_on_c, 2, 55, 75
5, 6215, Note_on_c, 2, 55, 0
5, 6215, Control_c, 2, 123, 0
5, 6236, Note_on_c, 2, 43, 92
5, 6236, Note_on_c, 2, 50, 92
5, 6237, Note_on_c, 2, 59, 100
5, 6237, Note_on_c, 2, 62, 104
5, 6238, Note_on_c, 2, 55, 83
5, 6239, Control_c, 2, 64, 0
5, 6352, Note_on_c, 2, 62, 0
5, 6359, Note_on_c, 2, 62, 73
5, 6377, Control_c, 2, 64, 127
5, 6383, Note_on_c, 2, 55, 0
5, 6386, Note_on_c, 2, 59, 0
5, 6387, Note_on_c, 2, 62, 0
5, 6393, Note_on_c, 2, 50, 0
5, 6397, Note_on_c, 2, 43, 0
5, 6398, Control_c, 2, 123, 0
5, 6415, Note_on_c, 2, 55, 90
5, 6458, Note_on_c, 2, 55, 0
5, 6460, Control_c, 2, 123, 0
5, 6472, Note_on_c, 2, 48, 81
5, 6472, Note_on_c, 2, 52, 74
5, 6473, Note_on_c, 2, 55, 74
5, 6474, Note_on_c, 2, 60, 97
5, 6474, Control_c, 2, 64, 0
5, 6474, Note_on_c, 2, 64, 93
5, 6581, Note_on_c, 2, 64, 0
5, 6584, Note_on_c, 2, 60, 0
5, 6594, Note_on_c, 2, 60, 85
5, 6595, Note_on_c, 2, 64, 92
5, 6626, Note_on_c, 2, 55, 0
5, 6644, Control_c, 2, 64, 127
5, 6651, Note_on_c, 2, 64, 0
5, 6652, Note_on_c, 2, 60, 0
5, 6658, Note_on_c, 2, 55, 73
5, 6660, Note_on_c, 2, 52, 0
5, 6661, Note_on_c, 2, 48, 0
5, 6692, Note_on_c, 2, 55, 0
5, 6692, Control_c, 2, 123, 0
5, 6713, Control_c, 2, 64, 0
5, 6717, Note_on_c, 2, 48, 91
5, 6718, Note_on_c, 2, 60, 94
5, 6718, Note_on_c, 2, 52, 78
5, 6719, Note_on_c, 2, 64, 92
5, 6720, Note_on_c, 2, 55, 84
5, 6765, Control_c, 2, 64, 127
5, 6800, Note_on_c, 2, 64, 0
5, 6803, Note_on_c, 2, 60, 0
5, 6806, Note_on_c, 2, 55, 0
5, 6830, Note_on_c, 2, 60, 98
5, 6831, Note_on_c, 2, 64, 98
5, 6832, Note_on_c, 2, 55, 85
5, 6848, Note_on_c, 2, 52, 0
5, 6857, Note_on_c, 2, 64, 0
5, 6858, Note_on_c, 2, 55, 0
5, 6859, Note_on_c, 2, 60, 0
5, 6862, Note_on_c, 2, 48, 0
5, 6862, Control_c, 2, 123, 0
5, 6888, Note_on_c, 2, 55, 73
5, 6928, Note_on_c, 2, 55, 0
5, 6929, Control_c, 2, 123, 0
5, 6941, Control_c, 2, 64, 0
5, 6948, Note_on_c, 2, 47, 76
5, 6949, Note_on_c, 2, 55, 91
5, 6949, Note_on_c, 2, 62, 104
5, 6949, Note_on_c, 2, 50, 62
5, 6949, Note_on_c, 2, 59, 97
5, 7007, Note_on_c, 2, 43, 8
5, 7021, Control_c, 2, 64, 127
5, 7043, Note_on_c, 2, 62, 0
5, 7043, Note_on_c, 2, 59, 0
5, 7045, Note_on_c, 2, 55, 0
5, 7070, Note_on_c, 2, 55, 91
5, 7071, Note_on_c, 2, 62, 102
5, 7072, Note_on_c, 2, 59, 99
5, 7086, Note_on_c, 2, 50, 0
5, 7088, Note_on_c, 2, 47, 0
5, 7089, Note_on_c, 2, 62, 0
5, 7089, Note_on_c, 2, 59, 0
5, 7090, Note_on_c, 2, 43, 0
5, 7092, Note_on_c, 2, 55, 0
5, 7093, Control_c, 2, 123, 0
5, 7128, Note_on_c, 2, 53, 85
5, 7166, Note_on_c, 2, 53, 0
5, 7167, Control_c, 2, 123, 0
5, 7173, Control_c, 2, 64, 0
5, 7189, Note_on_c, 2, 45, 65
5, 7190, Note_on_c, 2, 41, 64
5, 7190, Note_on_c, 2, 53, 92
5, 7191, Note_on_c, 2, 48, 62
5, 7191, Note_on_c, 2, 60, 104
5, 7191, Note_on_c, 2, 57, 103
5, 7234, Note_on_c, 2, 57, 0
5, 7236, Note_on_c, 2, 60, 0
5, 7238, Note_on_c, 2, 53, 0
5, 7244, Note_on_c, 2, 48, 0
5, 7245, Note_on_c, 2, 45, 0
5, 7256, Note_on_c, 2, 53, 90
5, 7256, Note_on_c, 2, 48, 68
5, 7256, Note_on_c, 2, 45, 88
5, 7257, Note_on_c, 2, 60, 107
5, 7257, Note_on_c, 2, 57, 106
5, 7296, Note_on_c, 2, 53, 0
5, 7297, Note_on_c, 2, 57, 0
5, 7298, Note_on_c, 2, 60, 0
5, 7310, Control_c, 2, 64, 127
5, 7311, Note_on_c, 2, 45, 0
5, 7317, Note_on_c, 2, 41, 0
5, 7322, Note_on_c, 2, 55, 74
5, 7323, Note_on_c, 2, 48, 0
5, 7354, Note_on_c, 2, 55, 0
5, 7355, Control_c, 2, 123, 0
5, 7369, Control_c, 2, 64, 0
5, 7380, Note_on_c, 2, 48, 90
5, 7380, Note_on_c, 2, 60, 98
5, 7380, Note_on_c, 2, 52, 85
5, 7381, Note_on_c, 2, 64, 98
5, 7381, Note_on_c, 2, 55, 97
5, 7535, Note_on_c, 2, 64, 0
5, 7537, Note_on_c, 2, 60, 0
5, 7540, Note_on_c, 2, 55, 0
5, 7559, Note_on_c, 2, 60, 94
5, 7560, Note_on_c, 2, 55, 83
5, 7560, Note_on_c, 2, 64, 90
5, 7577, Note_on_c, 2, 48, 0
5, 7578, Note_on_c, 2, 52, 0
5, 7587, Note_on_c, 2, 55, 0
5, 7590, Note_on_c, 2, 60, 0
5, 7592, Note_on_c, 2, 64, 0
5, 7593, Control_c, 2, 123, 0
5, 7619, Note_on_c, 2, 55, 64
5, 7655, Note_on_c, 2, 55, 0
5, 7656, Control_c, 2, 123, 0
5, 7680, Note_on_c, 2, 48, 79
5, 7680, Note_on_c, 2, 60, 99
5, 7680, Note_on_c, 2, 55, 86
5, 7680, Note_on_c, 2, 64, 98
5, 7681, Note_on_c, 2, 52, 68
5, 7750, Control_c, 2, 64, 127
5, 7781, Note_on_c, 2, 60, 0
5, 7781, Note_on_c, 2, 64, 0
5, 7783, Note_on_c, 2, 55, 0
5, 7804, Note_on_c, 2, 60, 95
5, 7804, Note_on_c, 2, 55, 81
5, 7805, Note_on_c, 2, 64, 95
5, 7813, Note_on_c, 2, 52, 0
5, 7816, Note_on_c, 2, 48, 0
5, 7820, Note_on_c, 2, 60, 0
5, 7820, Note_on_c, 2, 64, 0
5, 7822, Note_on_c, 2, 55, 0
5, 7823, Control_c, 2, 123, 0
5, 7859, Note_on_c, 2, 53, 82
5, 7895, Note_on_c, 2, 53, 0
5, 7896, Control_c, 2, 123, 0
5, 7907, Control_c, 2, 64, 0
5, 7916, Note_on_c, 2, 41, 85
5, 7918, Note_on_c, 2, 60, 106
5, 7918, Note_on_c, 2, 57, 100
5, 7919, Note_on_c, 2, 53, 93
5, 8036, Note_on_c, 2, 57, 0
5, 8037, Note_on_c, 2, 60, 0
5, 8040, Note_on_c, 2, 57, 54
5, 8040, Note_on_c, 2, 60, 47
5, 8049, Control_c, 2, 64, 127
5, 8055, Note_on_c, 2, 41, 0
5, 8058, Note_on_c, 2, 53, 0
5, 8059, Note_on_c, 2, 57, 0
5, 8063, Note_on_c, 2, 60, 0
5, 8064, Control_c, 2, 123, 0
5, 8093, Note_on_c, 2, 55, 85
5, 8129, Note_on_c, 2, 55, 0
5, 8130, Control_c, 2, 123, 0
5, 8153, Note_on_c, 2, 48, 90
5, 8153, Note_on_c, 2, 55, 85
5, 8154, Note_on_c, 2, 60, 99
5, 8154, Note_on_c, 2, 64, 95
5, 8155, Note_on_c, 2, 52, 81
5, 8158, Control_c, 2, 64, 0
5, 8202, Note_on_c, 2, 60, 0
5, 8202, Note_on_c, 2, 64, 0
5, 8203, Note_on_c, 2, 55, 0
5, 8220, Note_on_c, 2, 60, 104
5, 8220, Note_on_c, 2, 64, 100
5, 8220, Note_on_c, 2, 55, 93
5, 8260, Note_on_c, 2, 52, 0
5, 8277, Note_on_c, 2, 52, 47
5, 8280, Note_on_c, 2, 64, 0
5, 8281, Note_on_c, 2, 60, 0
5, 8285, Control_c, 2, 64, 127
5, 8288, Note_on_c, 2, 55, 0
5, 8304, Note_on_c, 2, 52, 0
5, 8305, Note_on_c, 2, 48, 0
5, 8306, Control_c, 2, 123, 0
5, 8329, Note_on_c, 2, 60, 98
5, 8330, Note_on_c, 2, 57, 95
5, 8330, Note_on_c, 2, 53, 79
5, 8343, Control_c, 2, 64, 0
5, 8398, Note_on_c, 2, 41, 79
5, 8443, Control_c, 2, 64, 127
5, 8502, Note_on_c, 2, 57, 0
5, 8504, Note_on_c, 2, 60, 0
5, 8505, Note_on_c, 2, 53, 0
5, 8518, Note_on_c, 2, 60, 91
5, 8518, Note_on_c, 2, 57, 95
5, 8519, Note_on_c, 2, 53, 77
5, 8526, Note_on_c, 2, 41, 0
5, 8538, Note_on_c, 2, 57, 0
5, 8539, Note_on_c, 2, 53, 0
5, 8543, Note_on_c, 2, 60, 0
5, 8544, Control_c, 2, 123, 0
5, 8581, Note_on_c, 2, 55, 52
5, 8614, Control_c, 2, 64, 0
5, 8622, Note_on_c, 2, 55, 0
5, 8623, Control_c, 2, 123, 0
5, 8636, Note_on_c, 2, 48, 92
5, 8637, Note_on_c, 2, 55, 79
5, 8637, Note_on_c, 2, 52, 72
5, 8637, Note_on_c, 2, 60, 95
5, 8638, Note_on_c, 2, 64, 92
5, 8749, Note_on_c, 2, 55, 0
5, 8749, Note_on_c, 2, 60, 0
5, 8749, Note_on_c, 2, 64, 0
5, 8760, Note_on_c, 2, 64, 98
5, 8760, Note_on_c, 2, 60, 103
5, 8761, Note_on_c, 2, 55, 79
5, 8783, Note_on_c, 2, 64, 0
5, 8785, Note_on_c, 2, 60, 0
5, 8790, Note_on_c, 2, 55, 0
5, 8795, Note_on_c, 2, 52, 0
5, 8796, Note_on_c, 2, 48, 0
5, 8797, Control_c, 2, 123, 0
5, 8821, Note_on_c, 2, 53, 85
5, 8823, Control_c, 2, 64, 127
5, 8860, Note_on_c, 2, 53, 0
5, 8861, Control_c, 2, 123, 0
5, 8866, Control_c, 2, 64, 0
5, 8876, Note_on_c, 2, 41, 87
5, 8877, Note_on_c, 2, 53, 71
5, 8878, Note_on_c, 2, 57, 100
5, 8878, Note_on_c, 2, 60, 100
5, 8987, Note_on_c, 2, 57, 0
5, 8995, Note_on_c, 2, 57, 68
5, 9019, Note_on_c, 2, 57, 0
5, 9020, Note_on_c, 2, 53, 0
5, 9023, Note_on_c, 2, 60, 0
5, 9025, Note_on_c, 2, 41, 0
5, 9026, Control_c, 2, 123, 0
5, 9038, Control_c, 2, 64, 127
5, 9056, Note_on_c, 2, 55, 86
5, 9098, Note_on_c, 2, 55, 0
5, 9099, Control_c, 2, 123, 0
5, 9110, Control_c, 2, 64, 0
5, 9114, Note_on_c, 2, 48, 88
5, 9116, Note_on_c, 2, 52, 81
5, 9116, Note_on_c, 2, 55, 86
5, 9117, Note_on_c, 2, 60, 99
5, 9118, Note_on_c, 2, 64, 94
5, 9222, Note_on_c, 2, 55, 0
5, 9222, Note_on_c, 2, 60, 0
5, 9223, Note_on_c, 2, 64, 0
5, 9237, Note_on_c, 2, 60, 94
5, 9237, Note_on_c, 2, 64, 94
5, 9238, Note_on_c, 2, 55, 84
5, 9252, Control_c, 2, 64, 127
5, 9257, Note_on_c, 2, 64, 0
5, 9258, Note_on_c, 2, 60, 0
5, 9259, Note_on_c, 2, 55, 0
5, 9270, Note_on_c, 2, 52, 0
5, 9274, Note_on_c, 2, 48, 0
5, 9275, Control_c, 2, 123, 0
5, 9298, Note_on_c, 2, 53, 72
5, 9341, Note_on_c, 2, 53, 0
5, 9341, Control_c, 2, 64, 0
5, 9342, Control_c, 2, 123, 0
5, 9355, Note_on_c, 2, 41, 90
5, 9358, Note_on_c, 2, 57, 92
5, 9358, Note_on_c, 2, 53, 75
5, 9358, Note_on_c, 2, 60, 94
5, 9454, Note_on_c, 2, 53, 0
5, 9455, Control_c, 2, 64, 127
5, 9456, Note_on_c, 2, 57, 0
5, 9459, Note_on_c, 2, 60, 0
5, 9474, Note_on_c, 2, 60, 86
5, 9474, Note_on_c, 2, 57, 84
5, 9474, Note_on_c, 2, 53, 44
5, 9497, Note_on_c, 2, 53, 0
5, 9499, Note_on_c, 2, 57, 0
5, 9500, Note_on_c, 2, 41, 0
5, 9502, Note_on_c, 2, 60, 0
5, 9503, Control_c, 2, 123, 0
5, 9541, Note_on_c, 2, 55, 84
5, 9580, Note_on_c, 2, 55, 0
5, 9580, Control_c, 2, 123, 0
5, 9597, Note_on_c, 2, 48, 86
5, 9598, Control_c, 2, 64, 0
5, 9599, Note_on_c, 2, 55, 84
5, 9599, Note_on_c, 2, 60, 97
5, 9600, Note_on_c, 2, 64, 93
5, 9600, Note_on_c, 2, 52, 81
5, 9695, Note_on_c, 2, 64, 0
5, 9696, Note_on_c, 2, 60, 0
5, 9700, Note_on_c, 2, 55, 0
5, 9718, Note_on_c, 2, 60, 97
5, 9718, Note_on_c, 2, 55, 85
5, 9718, Note_on_c, 2, 64, 94
5, 9740, Note_on_c, 2, 60, 0
5, 9740, Note_on_c, 2, 64, 0
5, 9744, Note_on_c, 2, 55, 0
5, 9764, Control_c, 2, 64, 127
5, 9766, Note_on_c, 2, 52, 0
5, 9767, Note_on_c, 2, 48, 0
5, 9768, Control_c, 2, 123, 0
5, 9778, Note_on_c, 2, 53, 82
5, 9829, Note_on_c, 2, 53, 0
5, 9829, Control_c, 2, 123, 0
5, 9833, Control_c, 2, 64, 0
5, 9838, Note_on_c, 2, 41, 87
5, 9839, Note_on_c, 2, 53, 19
5, 9842, Note_on_c, 2, 60, 99
5, 9842, Note_on_c, 2, 57, 97
5, 9938, Note_on_c, 2, 53, 0
5, 9939, Note_on_c, 2, 60, 0
5, 9941, Note_on_c, 2, 57, 0
5, 9946, Control_c, 2, 64, 127
5, 9965, Note_on_c, 2, 53, 65
5, 9965, Note_on_c, 2, 57, 92
5, 9966, Note_on_c, 2, 60, 97
5, 9984, Note_on_c, 2, 53, 0
5, 9985, Note_on_c, 2, 57, 0
5, 9989, Note_on_c, 2, 60, 0
5, 9993, Note_on_c, 2, 41, 0
5, 9994, Control_c, 2, 123, 0
5, 10026, Note_on_c, 2, 55, 68
5, 10058, Note_on_c, 2, 55, 0
5, 10060, Control_c, 2, 123, 0
5, 10068, Control_c, 2, 64, 0
5, 10079, Note_on_c, 2, 48, 80
5, 10082, Note_on_c, 2, 60, 90
5, 10083, Note_on_c, 2, 55, 75
5, 10083, Note_on_c, 2, 64, 88
5, 10180, Note_on_c, 2, 60, 0
5, 10180, Note_on_c, 2, 55, 0
5, 10181, Note_on_c, 2, 64, 0
5, 10198, Note_on_c, 2, 64, 88
5, 10199, Note_on_c, 2, 60, 93
5, 10199, Note_on_c, 2, 55, 76
5, 10211, Control_c, 2, 64, 127
5, 10218, Note_on_c, 2, 64, 0
5, 10218, Note_on_c, 2, 60, 0
5, 10223, Note_on_c, 2, 55, 0
5, 10234, Note_on_c, 2, 48, 0
5, 10235, Control_c, 2, 123, 0
5, 10261, Note_on_c, 2, 53, 78
5, 10297, Note_on_c, 2, 53, 0
5, 10297, Control_c, 2, 123, 0
5, 10302, Control_c, 2, 64, 0
5, 10318, Note_on_c, 2, 41, 87
5, 10320, Note_on_c, 2, 53, 85
5, 10320, Note_on_c, 2, 57, 98
5, 10320, Note_on_c, 2, 60, 99
5, 10423, Note_on_c, 2, 57, 0
5, 10425, Note_on_c, 2, 53, 0
5, 10428, Note_on_c, 2, 60, 0
5, 10446, Note_on_c, 2, 53, 78
5, 10446, Note_on_c, 2, 60, 98
5, 10446, Note_on_c, 2, 57, 100
5, 10460, Note_on_c, 2, 53, 0
5, 10461, Note_on_c, 2, 57, 0
5, 10462, Note_on_c, 2, 41, 0
5, 10464, Note_on_c, 2, 60, 0
5, 10466, Control_c, 2, 123, 0
5, 10469, Control_c, 2, 64, 127
5, 10503, Note_on_c, 2, 55, 62
5, 10509, Control_c, 2, 64, 0
5, 10523, Note_on_c, 2, 55, 0
5, 10524, Control_c, 2, 123, 0
5, 10560, Note_on_c, 2, 60, 102
5, 10561, Note_on_c, 2, 64, 100
5, 10561, Note_on_c, 2, 48, 103
5, 10561, Note_on_c, 2, 52, 99
5, 10563, Note_on_c, 2, 55, 99
5, 10723, Note_on_c, 2, 60, 0
5, 10723, Note_on_c, 2, 64, 0
5, 10731, Note_on_c, 2, 52, 0
5, 10734, Note_on_c, 2, 48, 0
5, 10764, Note_on_c, 2, 55, 0
5, 10764, Control_c, 2, 123, 0
5, 10974, Control_c, 2, 123, 0
5, 11190, Control_c, 2, 64, 127
5, 11200, Control_c, 2, 123, 0
5, 11251, Control_c, 2, 64, 0
5, 11431, Control_c, 2, 64, 127
5, 11479, Control_c, 2, 123, 0
5, 11516, Note_on_c, 2, 48, 90
5, 11518, Note_on_c, 2, 60, 95
5, 11519, Note_on_c, 2, 55, 94
5, 11519, Note_on_c, 2, 64, 103
5, 11523, Control_c, 2, 64, 0
5, 11618, Control_c, 2, 64, 127
5, 11641, Note_on_c, 2, 52, 87
5, 11666, Note_on_c, 2, 55, 0
5, 11684, Note_on_c, 2, 60, 0
5, 11686, Note_on_c, 2, 64, 0
5, 11697, Note_on_c, 2, 55, 80
5, 11745, Note_on_c, 2, 52, 0
5, 11751, Note_on_c, 2, 48, 0
5, 11752, Note_on_c, 2, 55, 0
5, 11753, Control_c, 2, 123, 0
5, 11760, Note_on_c, 2, 48, 55
5, 11763, Note_on_c, 2, 55, 44
5, 11763, Note_on_c, 2, 60, 104
5, 11849, Note_on_c, 2, 60, 0
5, 11853, Note_on_c, 2, 55, 0
5, 11874, Note_on_c, 2, 55, 79
5, 11875, Note_on_c, 2, 60, 99
5, 11876, Note_on_c, 2, 64, 100
5, 11891, Note_on_c, 2, 48, 0
5, 11892, Note_on_c, 2, 64, 0
5, 11894, Note_on_c, 2, 60, 0
5, 11898, Note_on_c, 2, 55, 0
5, 11898, Control_c, 2, 123, 0
5, 11932, Note_on_c, 2, 55, 59
5, 11971, Note_on_c, 2, 55, 0
5, 11972, Control_c, 2, 123, 0
5, 11993, Note_on_c, 2, 55, 86
5, 11994, Note_on_c, 2, 50, 81
5, 11994, Note_on_c, 2, 59, 100
5, 11995, Note_on_c, 2, 62, 106
5, 11996, Note_on_c, 2, 43, 88
5, 11996, Control_c, 2, 64, 0
5, 12082, Control_c, 2, 64, 127
5, 12095, Note_on_c, 2, 59, 0
5, 12097, Note_on_c, 2, 55, 0
5, 12097, Note_on_c, 2, 62, 0
5, 12114, Note_on_c, 2, 55, 65
5, 12116, Note_on_c, 2, 62, 92
5, 12116, Note_on_c, 2, 59, 87
5, 12141, Note_on_c, 2, 55, 0
5, 12143, Note_on_c, 2, 59, 0
5, 12146, Note_on_c, 2, 62, 0
5, 12147, Note_on_c, 2, 43, 0
5, 12149, Note_on_c, 2, 50, 0
5, 12150, Control_c, 2, 123, 0
5, 12182, Note_on_c, 2, 55, 91
5, 12218, Note_on_c, 2, 55, 0
5, 12219, Control_c, 2, 123, 0
5, 12237, Note_on_c, 2, 48, 82
5, 12237, Note_on_c, 2, 55, 92
5, 12238, Note_on_c, 2, 60, 99
5, 12238, Note_on_c, 2, 64, 98
5, 12239, Note_on_c, 2, 52, 81
5, 12240, Control_c, 2, 64, 0
5, 12339, Note_on_c, 2, 64, 0
5, 12339, Control_c, 2, 64, 127
5, 12343, Note_on_c, 2, 55, 0
5, 12343, Note_on_c, 2, 60, 0
5, 12359, Note_on_c, 2, 55, 83
5, 12396, Note_on_c, 2, 55, 0
5, 12406, Note_on_c, 2, 52, 0
5, 12407, Note_on_c, 2, 48, 0
5, 12408, Control_c, 2, 123, 0
5, 12421, Note_on_c, 2, 55, 76
5, 12455, Note_on_c, 2, 55, 0
5, 12455, Control_c, 2, 123, 0
5, 12476, Note_on_c, 2, 48, 84
5, 12477, Note_on_c, 2, 55, 87
5, 12478, Note_on_c, 2, 52, 84
5, 12478, Note_on_c, 2, 60, 98
5, 12479, Note_on_c, 2, 64, 93
5, 12487, Control_c, 2, 64, 0
5, 12541, Control_c, 2, 64, 127
5, 12566, Note_on_c, 2, 64, 0
5, 12568, Note_on_c, 2, 60, 0
5, 12571, Note_on_c, 2, 55, 0
5, 12594, Note_on_c, 2, 64, 93
5, 12595, Note_on_c, 2, 60, 98
5, 12596, Note_on_c, 2, 55, 84
5, 12605, Note_on_c, 2, 52, 0
5, 12612, Note_on_c, 2, 48, 0
5, 12614, Note_on_c, 2, 60, 0
5, 12615, Note_on_c, 2, 64, 0
5, 12623, Note_on_c, 2, 55, 0
5, 12623, Control_c, 2, 123, 0
5, 12650, Note_on_c, 2, 55, 67
5, 12684, Note_on_c, 2, 55, 0
5, 12685, Control_c, 2, 123, 0
5, 12700, Control_c, 2, 64, 0
5, 12711, Note_on_c, 2, 43, 43
5, 12713, Note_on_c, 2, 55, 88
5, 12713, Note_on_c, 2, 47, 49
5, 12714, Note_on_c, 2, 62, 97
5, 12714, Note_on_c, 2, 50, 60
5, 12714, Note_on_c, 2, 59, 94
5, 12763, Control_c, 2, 64, 127
5, 12801, Note_on_c, 2, 55, 0
5, 12801, Note_on_c, 2, 59, 0
5, 12804, Note_on_c, 2, 62, 0
5, 12828, Note_on_c, 2, 62, 90
5, 12829, Note_on_c, 2, 59, 90
5, 12829, Note_on_c, 2, 55, 76
5, 12848, Note_on_c, 2, 47, 0
5, 12850, Note_on_c, 2, 50, 0
5, 12851, Note_on_c, 2, 62, 0
5, 12852, Note_on_c, 2, 59, 0
5, 12855, Note_on_c, 2, 43, 0
5, 12855, Note_on_c, 2, 55, 0
5, 12856, Control_c, 2, 123, 0
5, 12890, Note_on_c, 2, 53, 86
5, 12931, Note_on_c, 2, 53, 0
5, 12931, Control_c, 2, 64, 0
5, 12933, Control_c, 2, 123, 0
5, 12953, Note_on_c, 2, 41, 52
5, 12955, Note_on_c, 2, 48, 57
5, 12957, Note_on_c, 2, 57, 95
5, 12957, Note_on_c, 2, 60, 99
5, 12957, Note_on_c, 2, 53, 85
5, 12995, Note_on_c, 2, 57, 0
5, 12996, Note_on_c, 2, 60, 0
5, 12998, Note_on_c, 2, 53, 0
5, 13018, Control_c, 2, 64, 127
5, 13022, Note_on_c, 2, 53, 87
5, 13022, Note_on_c, 2, 60, 99
5, 13022, Note_on_c, 2, 57, 103
5, 13071, Note_on_c, 2, 53, 0
5, 13073, Note_on_c, 2, 57, 0
5, 13074, Note_on_c, 2, 60, 0
5, 13082, Note_on_c, 2, 41, 0
5, 13087, Note_on_c, 2, 48, 0
5, 13087, Control_c, 2, 123, 0
5, 13099, Note_on_c, 2, 55, 62
5, 13117, Note_on_c, 2, 55, 0
5, 13118, Control_c, 2, 123, 0
5, 13142, Note_on_c, 2, 64, 95
5, 13143, Note_on_c, 2, 60, 100
5, 13143, Note_on_c, 2, 55, 94
5, 13144, Note_on_c, 2, 52, 93
5, 13145, Note_on_c, 2, 48, 99
5, 13149, Control_c, 2, 64, 0
5, 13257, Control_c, 2, 64, 127
5, 13290, Note_on_c, 2, 64, 0
5, 13293, Note_on_c, 2, 60, 0
5, 13298, Note_on_c, 2, 55, 0
5, 13324, Note_on_c, 2, 55, 93
5, 13325, Note_on_c, 2, 60, 91
5, 13327, Note_on_c, 2, 64, 75
5, 13327, Control_c, 2, 64, 0
5, 13337, Note_on_c, 2, 48, 0
5, 13341, Note_on_c, 2, 64, 0
5, 13344, Note_on_c, 2, 52, 0
5, 13352, Note_on_c, 2, 60, 0
5, 13358, Note_on_c, 2, 55, 0
5, 13359, Control_c, 2, 123, 0
5, 13372, Control_c, 2, 64, 127
5, 13378, Note_on_c, 2, 55, 85
5, 13406, Note_on_c, 2, 55, 0
5, 13407, Control_c, 2, 123, 0
5, 13440, Control_c, 2, 64, 0
5, 13442, Note_on_c, 2, 60, 103
5, 13442, Note_on_c, 2, 55, 94
5, 13442, Note_on_c, 2, 48, 77
5, 13442, Note_on_c, 2, 64, 102
5, 13443, Note_on_c, 2, 52, 79
5, 13512, Control_c, 2, 64, 127
5, 13539, Note_on_c, 2, 64, 0
5, 13542, Note_on_c, 2, 60, 0
5, 13546, Note_on_c, 2, 55, 0
5, 13565, Note_on_c, 2, 64, 98
5, 13565, Note_on_c, 2, 60, 104
5, 13565, Note_on_c, 2, 55, 72
5, 13596, Note_on_c, 2, 55, 0
5, 13619, Note_on_c, 2, 64, 0
5, 13622, Note_on_c, 2, 60, 0
5, 13623, Note_on_c, 2, 55, 81
5, 13640, Note_on_c, 2, 48, 0
5, 13640, Note_on_c, 2, 52, 0
5, 13678, Note_on_c, 2, 48, 72
5, 13679, Note_on_c, 2, 60, 98
5, 13687, Control_c, 2, 64, 0
5, 13729, Control_c, 2, 64, 127
5, 13761, Note_on_c, 2, 60, 0
5, 13769, Note_on_c, 2, 55, 0
5, 13794, Note_on_c, 2, 64, 98
5, 13794, Note_on_c, 2, 60, 99
5, 13795, Note_on_c, 2, 55, 81
5, 13803, Note_on_c, 2, 48, 0
5, 13815, Note_on_c, 2, 55, 0
5, 13816, Note_on_c, 2, 64, 0
5, 13818, Note_on_c, 2, 60, 0
5, 13819, Control_c, 2, 123, 0
5, 13854, Note_on_c, 2, 55, 61
5, 13890, Note_on_c, 2, 55, 0
5, 13891, Control_c, 2, 123, 0
5, 13891, Control_c, 2, 64, 0
5, 13909, Note_on_c, 2, 43, 73
5, 13912, Note_on_c, 2, 50, 78
5, 13912, Note_on_c, 2, 55, 90
5, 13912, Note_on_c, 2, 59, 100
5, 13913, Note_on_c, 2, 62, 106
5, 13976, Control_c, 2, 64, 127
5, 14005, Note_on_c, 2, 59, 0
5, 14009, Note_on_c, 2, 55, 0
5, 14010, Note_on_c, 2, 62, 0
5, 14033, Note_on_c, 2, 55, 79
5, 14033, Note_on_c, 2, 62, 92
5, 14033, Note_on_c, 2, 59, 95
5, 14058, Note_on_c, 2, 43, 0
5, 14059, Note_on_c, 2, 55, 0
5, 14060, Note_on_c, 2, 50, 0
5, 14063, Note_on_c, 2, 59, 0
5, 14064, Note_on_c, 2, 62, 0
5, 14065, Control_c, 2, 123, 0
5, 14095, Note_on_c, 2, 55, 78
5, 14126, Control_c, 2, 64, 0
5, 14129, Note_on_c, 2, 55, 0
5, 14130, Control_c, 2, 123, 0
5, 14150, Note_on_c, 2, 48, 78
5, 14151, Note_on_c, 2, 52, 68
5, 14152, Note_on_c, 2, 55, 83
5, 14153, Note_on_c, 2, 64, 94
5, 14153, Note_on_c, 2, 60, 93
5, 14256, Note_on_c, 2, 55, 0
5, 14264, Note_on_c, 2, 64, 0
5, 14273, Note_on_c, 2, 55, 90
5, 14282, Note_on_c, 2, 60, 0
5, 14286, Control_c, 2, 64, 127
5, 14320, Note_on_c, 2, 55, 0
5, 14324, Note_on_c, 2, 52, 0
5, 14329, Note_on_c, 2, 48, 0
5, 14330, Control_c, 2, 123, 0
5, 14331, Note_on_c, 2, 60, 85
5, 14364, Note_on_c, 2, 60, 0
5, 14365, Control_c, 2, 123, 0
5, 14392, Note_on_c, 2, 60, 99
5, 14393, Note_on_c, 2, 48, 82
5, 14393, Note_on_c, 2, 64, 98
5, 14393, Note_on_c, 2, 55, 87
5, 14395, Note_on_c, 2, 52, 86
5, 14402, Control_c, 2, 64, 0
5, 14469, Control_c, 2, 64, 127
5, 14492, Note_on_c, 2, 64, 0
5, 14495, Note_on_c, 2, 60, 0
5, 14499, Note_on_c, 2, 55, 0
5, 14513, Note_on_c, 2, 60, 103
5, 14514, Note_on_c, 2, 64, 97
5, 14514, Note_on_c, 2, 55, 88
5, 14531, Note_on_c, 2, 52, 0
5, 14532, Note_on_c, 2, 48, 0
5, 14539, Note_on_c, 2, 60, 0
5, 14540, Note_on_c, 2, 64, 0
5, 14543, Note_on_c, 2, 55, 0
5, 14543, Control_c, 2, 123, 0
5, 14570, Note_on_c, 2, 55, 58
5, 14609, Note_on_c, 2, 55, 0
5, 14610, Control_c, 2, 123, 0
5, 14626, Control_c, 2, 64, 0
5, 14633, Note_on_c, 2, 50, 79
5, 14633, Note_on_c, 2, 47, 90
5, 14634, Note_on_c, 2, 59, 94
5, 14635, Note_on_c, 2, 55, 91
5, 14635, Note_on_c, 2, 62, 106
5, 14698, Control_c, 2, 64, 127
5, 14724, Note_on_c, 2, 55, 0
5, 14728, Note_on_c, 2, 59, 0
5, 14730, Note_on_c, 2, 62, 0
5, 14754, Note_on_c, 2, 55, 87
5, 14754, Note_on_c, 2, 62, 99
5, 14754, Note_on_c, 2, 59, 93
5, 14771, Note_on_c, 2, 59, 0
5, 14773, Note_on_c, 2, 62, 0
5, 14774, Note_on_c, 2, 50, 0
5, 14776, Note_on_c, 2, 47, 0
5, 14777, Note_on_c, 2, 55, 0
5, 14778, Control_c, 2, 123, 0
5, 14817, Note_on_c, 2, 53, 45
5, 14848, Control_c, 2, 64, 0
5, 14859, Note_on_c, 2, 53, 0
5, 14860, Control_c, 2, 123, 0
5, 14879, Note_on_c, 2, 48, 45
5, 14880, Note_on_c, 2, 41, 75
5, 14883, Note_on_c, 2, 60, 100
5, 14883, Note_on_c, 2, 57, 102
5, 14884, Note_on_c, 2, 53, 91
5, 14920, Note_on_c, 2, 57, 0
5, 14922, Note_on_c, 2, 60, 0
5, 14922, Note_on_c, 2, 53, 0
5, 14946, Note_on_c, 2, 53, 93
5, 14946, Note_on_c, 2, 60, 103
5, 14947, Note_on_c, 2, 57, 106
5, 14983, Note_on_c, 2, 57, 0
5, 14985, Note_on_c, 2, 53, 0
5, 14987, Control_c, 2, 64, 127
5, 14988, Note_on_c, 2, 60, 0
5, 14996, Note_on_c, 2, 41, 0
5, 15001, Note_on_c, 2, 48, 0
5, 15001, Control_c, 2, 123, 0
5, 15014, Note_on_c, 2, 55, 79
5, 15040, Note_on_c, 2, 55, 0
5, 15040, Control_c, 2, 123, 0
5, 15069, Note_on_c, 2, 60, 102
5, 15069, Note_on_c, 2, 55, 92
5, 15070, Note_on_c, 2, 64, 99
5, 15070, Control_c, 2, 64, 0
5, 15072, Note_on_c, 2, 48, 73
5, 15073, Note_on_c, 2, 52, 66
5, 15167, Control_c, 2, 64, 127
5, 15207, Note_on_c, 2, 64, 0
5, 15213, Note_on_c, 2, 60, 0
5, 15219, Note_on_c, 2, 55, 0
5, 15241, Note_on_c, 2, 55, 91
5, 15268, Note_on_c, 2, 48, 0
5, 15270, Note_on_c, 2, 52, 0
5, 15275, Note_on_c, 2, 55, 0
5, 15276, Control_c, 2, 123, 0
5, 15309, Note_on_c, 2, 60, 88
5, 15310, Note_on_c, 2, 55, 43
5, 15332, Note_on_c, 2, 55, 0
5, 15342, Note_on_c, 2, 60, 0
5, 15343, Control_c, 2, 123, 0
5, 15359, Note_on_c, 2, 48, 91
5, 15361, Note_on_c, 2, 55, 85
5, 15361, Note_on_c, 2, 60, 102
5, 15362, Note_on_c, 2, 64, 98
5, 15363, Note_on_c, 2, 52, 75
5, 15374, Control_c, 2, 64, 0
5, 15431, Control_c, 2, 64, 127
5, 15458, Note_on_c, 2, 60, 0
5, 15458, Note_on_c, 2, 64, 0
5, 15463, Note_on_c, 2, 55, 0
5, 15480, Note_on_c, 2, 60, 95
5, 15480, Note_on_c, 2, 55, 83
5, 15481, Note_on_c, 2, 64, 95
5, 15509, Note_on_c, 2, 48, 0
5, 15510, Note_on_c, 2, 64, 0
5, 15512, Note_on_c, 2, 60, 0
5, 15513, Note_on_c, 2, 55, 0
5, 15519, Note_on_c, 2, 52, 0
5, 15519, Control_c, 2, 123, 0
5, 15537, Note_on_c, 2, 55, 60
5, 15574, Note_on_c, 2, 55, 0
5, 15574, Control_c, 2, 123, 0
5, 15581, Control_c, 2, 64, 0
5, 15594, Note_on_c, 2, 47, 80
5, 15596, Note_on_c, 2, 50, 49
5, 15597, Note_on_c, 2, 62, 103
5, 15597, Note_on_c, 2, 55, 90
5, 15598, Note_on_c, 2, 59, 91
5, 15649, Control_c, 2, 64, 127
5, 15705, Note_on_c, 2, 55, 0
5, 15706, Note_on_c, 2, 59, 0
5, 15709, Note_on_c, 2, 62, 0
5, 15718, Note_on_c, 2, 62, 81
5, 15718, Note_on_c, 2, 59, 87
5, 15718, Note_on_c, 2, 55, 74
5, 15745, Note_on_c, 2, 55, 0
5, 15746, Note_on_c, 2, 62, 0
5, 15746, Note_on_c, 2, 59, 0
5, 15760, Note_on_c, 2, 47, 0
5, 15762, Note_on_c, 2, 50, 0
5, 15763, Control_c, 2, 123, 0
5, 15829, Control_c, 2, 64, 0
5, 15835, Note_on_c, 2, 41, 95
5, 15837, Note_on_c, 2, 60, 98
5, 15837, Note_on_c, 2, 53, 76
5, 15838, Note_on_c, 2, 57, 93
5, 15883, Note_on_c, 2, 60, 0
5, 15886, Note_on_c, 2, 57, 0
5, 15889, Note_on_c, 2, 53, 0
5, 15889, Control_c, 2, 64, 127
5, 15903, Note_on_c, 2, 57, 102
5, 15903, Note_on_c, 2, 53, 94
5, 15904, Note_on_c, 2, 60, 106
5, 15956, Note_on_c, 2, 53, 0
5, 15958, Note_on_c, 2, 57, 0
5, 15959, Note_on_c, 2, 60, 0
5, 15967, Note_on_c, 2, 41, 0
5, 15968, Control_c, 2, 123, 0
5, 16026, Note_on_c, 2, 52, 94
5, 16026, Note_on_c, 2, 60, 106
5, 16026, Note_on_c, 2, 48, 94
5, 16026, Note_on_c, 2, 64, 103
5, 16026, Note_on_c, 2, 55, 100
5, 16028, Control_c, 2, 64, 0
5, 16649, Note_on_c, 2, 55, 0
5, 16671, Note_on_c, 2, 60, 0
5, 16676, Note_on_c, 2, 64, 0
5, 16728, Note_on_c, 2, 52, 0
5, 16742, Note_on_c, 2, 48, 0
5, 16743, Control_c, 2, 123, 0
5, 16743, End_track
6, 0, Start_track
6, 0, MIDI_port, 0
6, 0, Title_t, "VOCAL"
6, 0, Program_c, 3, 60
6, 1985, Note_on_c, 3, 64, 118
6, 1999, Note_on_c, 3, 64, 0
6, 1999, Control_c, 3, 123, 0
6, 2011, Note_on_c, 3, 64, 120
6, 2041, Note_on_c, 3, 64, 0
6, 2042, Control_c, 3, 123, 0
6, 2045, Note_on_c, 3, 62, 125
6, 2098, Note_on_c, 3, 62, 0
6, 2099, Control_c, 3, 123, 0
6, 2103, Note_on_c, 3, 60, 117
6, 2139, Note_on_c, 3, 60, 0
6, 2140, Control_c, 3, 123, 0
6, 2162, Note_on_c, 3, 62, 127
6, 2212, Note_on_c, 3, 62, 0
6, 2212, Control_c, 3, 123, 0
6, 2221, Note_on_c, 3, 60, 122
6, 2360, Note_on_c, 3, 60, 0
6, 2361, Control_c, 3, 123, 0
6, 2403, Note_on_c, 3, 60, 118
6, 2435, Control_c, 3, 123, 0
6, 2451, Note_on_c, 3, 60, 0
6, 2453, Control_c, 3, 123, 0
6, 2459, Note_on_c, 3, 60, 127
6, 2468, Note_on_c, 3, 60, 122
6, 2541, Note_on_c, 3, 60, 0
6, 2542, Control_c, 3, 123, 0
6, 2563, Note_on_c, 3, 60, 0
6, 2564, Control_c, 3, 123, 0
6, 2574, Note_on_c, 3, 57, 113
6, 2738, Note_on_c, 3, 57, 0
6, 2738, Control_c, 3, 123, 0
6, 2942, Note_on_c, 3, 64, 120
6, 2959, Note_on_c, 3, 64, 0
6, 2959, Control_c, 3, 123, 0
6, 2972, Note_on_c, 3, 64, 120
6, 2999, Note_on_c, 3, 64, 0
6, 3000, Control_c, 3, 123, 0
6, 3008, Note_on_c, 3, 62, 115
6, 3057, Note_on_c, 3, 62, 0
6, 3058, Control_c, 3, 123, 0
6, 3063, Note_on_c, 3, 60, 123
6, 3105, Note_on_c, 3, 60, 0
6, 3106, Control_c, 3, 123, 0
6, 3123, Note_on_c, 3, 62, 120
6, 3167, Note_on_c, 3, 62, 0
6, 3169, Control_c, 3, 123, 0
6, 3176, Note_on_c, 3, 60, 120
6, 3193, Note_on_c, 3, 60, 0
6, 3194, Control_c, 3, 123, 0
6, 3212, Note_on_c, 3, 60, 126
6, 3301, Note_on_c, 3, 60, 0
6, 3301, Control_c, 3, 123, 0
6, 3359, Note_on_c, 3, 60, 122
6, 3411, Note_on_c, 3, 60, 0
6, 3412, Control_c, 3, 123, 0
6, 3414, Note_on_c, 3, 57, 102
6, 3445, Note_on_c, 3, 57, 0
6, 3446, Control_c, 3, 123, 0
6, 3450, Note_on_c, 3, 60, 120
6, 3502, Note_on_c, 3, 60, 0
6, 3502, Control_c, 3, 123, 0
6, 3506, Note_on_c, 3, 57, 106
6, 3527, Note_on_c, 3, 57, 0
6, 3528, Control_c, 3, 123, 0
6, 3539, Note_on_c, 3, 60, 123
6, 3599, Note_on_c, 3, 57, 113
6, 3600, Note_on_c, 3, 60, 0
6, 3714, Note_on_c, 3, 57, 0
6, 3716, Control_c, 3, 123, 0
6, 3899, Note_on_c, 3, 64, 114
6, 3914, Note_on_c, 3, 64, 0
6, 3914, Control_c, 3, 123, 0
6, 3926, Note_on_c, 3, 64, 120
6, 3952, Note_on_c, 3, 64, 0
6, 3953, Control_c, 3, 123, 0
6, 3965, Note_on_c, 3, 62, 122
6, 4018, Note_on_c, 3, 62, 0
6, 4018, Control_c, 3, 123, 0
6, 4019, Note_on_c, 3, 60, 120
6, 4054, Note_on_c, 3, 60, 0
6, 4055, Control_c, 3, 123, 0
6, 4079, Note_on_c, 3, 62, 123
6, 4121, Note_on_c, 3, 62, 0
6, 4122, Control_c, 3, 123, 0
6, 4135, Note_on_c, 3, 60, 115
6, 4152, Note_on_c, 3, 60, 0
6, 4153, Control_c, 3, 123, 0
6, 4170, Note_on_c, 3, 60, 126
6, 4343, Note_on_c, 3, 60, 0
6, 4344, Control_c, 3, 123, 0
6, 4379, Note_on_c, 3, 64, 115
6, 4397, Note_on_c, 3, 64, 0
6, 4398, Control_c, 3, 123, 0
6, 4409, Note_on_c, 3, 64, 115
6, 4430, Note_on_c, 3, 64, 0
6, 4431, Control_c, 3, 123, 0
6, 4442, Note_on_c, 3, 62, 118
6, 4487, Note_on_c, 3, 62, 0
6, 4488, Control_c, 3, 123, 0
6, 4499, Note_on_c, 3, 60, 125
6, 4523, Note_on_c, 3, 60, 0
6, 4524, Control_c, 3, 123, 0
6, 4560, Note_on_c, 3, 60, 125
6, 4674, Note_on_c, 3, 60, 0
6, 4674, Control_c, 3, 123, 0
6, 4707, Note_on_c, 3, 60, 113
6, 4721, Note_on_c, 3, 60, 0
6, 4721, Control_c, 3, 123, 0
6, 4737, Note_on_c, 3, 60, 120
6, 4778, Note_on_c, 3, 60, 0
6, 4778, Control_c, 3, 123, 0
6, 4804, Note_on_c, 3, 64, 122
6, 4846, Note_on_c, 3, 64, 0
6, 4847, Control_c, 3, 123, 0
6, 4864, Note_on_c, 3, 64, 120
6, 4879, Note_on_c, 3, 64, 0
6, 4880, Control_c, 3, 123, 0
6, 4896, Note_on_c, 3, 64, 123
6, 4942, Note_on_c, 3, 64, 0
6, 4943, Control_c, 3, 123, 0
6, 4957, Note_on_c, 3, 62, 111
6, 4982, Note_on_c, 3, 62, 0
6, 4982, Control_c, 3, 123, 0
6, 4988, Note_on_c, 3, 60, 123
6, 5021, Note_on_c, 3, 60, 0
6, 5023, Control_c, 3, 123, 0
6, 5046, Note_on_c, 3, 62, 126
6, 5077, Note_on_c, 3, 62, 0
6, 5078, Control_c, 3, 123, 0
6, 5106, Note_on_c, 3, 62, 126
6, 5171, Note_on_c, 3, 62, 0
6, 5171, Control_c, 3, 123, 0
6, 5208, Note_on_c, 3, 60, 113
6, 5234, Note_on_c, 3, 60, 0
6, 5234, Control_c, 3, 123, 0
6, 5239, Note_on_c, 3, 57, 113
6, 5270, Note_on_c, 3, 57, 0
6, 5270, Note_on_c, 3, 60, 115
6, 5299, Note_on_c, 3, 60, 0
6, 5300, Control_c, 3, 123, 0
6, 5304, Note_on_c, 3, 57, 115
6, 5331, Note_on_c, 3, 57, 0
6, 5332, Control_c, 3, 123, 0
6, 5335, Note_on_c, 3, 60, 118
6, 5361, Note_on_c, 3, 60, 0
6, 5362, Control_c, 3, 123, 0
6, 5368, Note_on_c, 3, 57, 117
6, 5389, Note_on_c, 3, 57, 0
6, 5390, Control_c, 3, 123, 0
6, 5402, Note_on_c, 3, 64, 113
6, 5444, Note_on_c, 3, 64, 0
6, 5445, Control_c, 3, 123, 0
6, 5459, Note_on_c, 3, 60, 114
6, 5473, Note_on_c, 3, 60, 0
6, 5473, Control_c, 3, 123, 0
6, 5491, Note_on_c, 3, 60, 126
6, 5710, Note_on_c, 3, 60, 0
6, 5711, Control_c, 3, 123, 0
6, 5757, Note_on_c, 3, 60, 127
6, 5795, Note_on_c, 3, 60, 0
6, 5795, Control_c, 3, 123, 0
6, 5820, Note_on_c, 3, 60, 125
6, 5931, Note_on_c, 3, 60, 0
6, 5932, Control_c, 3, 123, 0
6, 5938, Note_on_c, 3, 57, 110
6, 5968, Note_on_c, 3, 57, 0
6, 5968, Control_c, 3, 123, 0
6, 5974, Note_on_c, 3, 60, 122
6, 6211, Note_on_c, 3, 60, 0
6, 6212, Control_c, 3, 123, 0
6, 6238, Note_on_c, 3, 62, 126
6, 6260, Note_on_c, 3, 62, 0
6, 6260, Control_c, 3, 123, 0
6, 6278, Note_on_c, 3, 62, 123
6, 6409, Note_on_c, 3, 62, 0
6, 6409, Control_c, 3, 123, 0
6, 6428, Note_on_c, 3, 60, 118
6, 6443, Note_on_c, 3, 60, 0
6, 6444, Control_c, 3, 123, 0
6, 6461, Note_on_c, 3, 60, 123
6, 6605, Note_on_c, 3, 60, 0
6, 6607, Control_c, 3, 123, 0
6, 6643, Note_on_c, 3, 67, 115
6, 6687, Note_on_c, 3, 67, 0
6, 6688, Control_c, 3, 123, 0
6, 6711, Note_on_c, 3, 67, 127
6, 6817, Note_on_c, 3, 67, 0
6, 6817, Control_c, 3, 123, 0
6, 6836, Note_on_c, 3, 67, 126
6, 6940, Note_on_c, 3, 67, 0
6, 6941, Control_c, 3, 123, 0
6, 6957, Note_on_c, 3, 69, 122
6, 7003, Note_on_c, 3, 69, 0
6, 7003, Control_c, 3, 123, 0
6, 7014, Note_on_c, 3, 67, 118
6, 7064, Note_on_c, 3, 67, 0
6, 7065, Control_c, 3, 123, 0
6, 7075, Note_on_c, 3, 64, 122
6, 7125, Note_on_c, 3, 64, 0
6, 7125, Control_c, 3, 123, 0
6, 7129, Note_on_c, 3, 62, 114
6, 7175, Note_on_c, 3, 62, 0
6, 7177, Control_c, 3, 123, 0
6, 7191, Note_on_c, 3, 60, 118
6, 7237, Note_on_c, 3, 60, 0
6, 7238, Control_c, 3, 123, 0
6, 7258, Note_on_c, 3, 60, 123
6, 7347, Note_on_c, 3, 60, 0
6, 7348, Control_c, 3, 123, 0
6, 7380, Note_on_c, 3, 60, 125
6, 7691, Note_on_c, 3, 60, 0
6, 7693, Control_c, 3, 123, 0
6, 7748, Note_on_c, 3, 64, 107
6, 7765, Note_on_c, 3, 64, 0
6, 7766, Control_c, 3, 123, 0
6, 7780, Note_on_c, 3, 64, 118
6, 7800, Note_on_c, 3, 64, 0
6, 7801, Control_c, 3, 123, 0
6, 7811, Note_on_c, 3, 62, 120
6, 7861, Note_on_c, 3, 62, 0
6, 7862, Control_c, 3, 123, 0
6, 7865, Note_on_c, 3, 60, 114
6, 7888, Note_on_c, 3, 60, 0
6, 7888, Control_c, 3, 123, 0
6, 7922, Note_on_c, 3, 62, 117
6, 7968, Note_on_c, 3, 62, 0
6, 7968, Control_c, 3, 123, 0
6, 7979, Note_on_c, 3, 60, 123
6, 8097, Note_on_c, 3, 60, 0
6, 8097, Control_c, 3, 123, 0
6, 8151, Note_on_c, 3, 60, 123
6, 8197, Note_on_c, 3, 60, 0
6, 8198, Control_c, 3, 123, 0
6, 8220, Note_on_c, 3, 60, 118
6, 8301, Note_on_c, 3, 60, 0
6, 8301, Control_c, 3, 123, 0
6, 8328, Note_on_c, 3, 57, 114
6, 8523, Note_on_c, 3, 57, 0
6, 8523, Control_c, 3, 123, 0
6, 8703, Note_on_c, 3, 64, 113
6, 8719, Note_on_c, 3, 64, 0
6, 8719, Control_c, 3, 123, 0
6, 8731, Note_on_c, 3, 64, 120
6, 8750, Note_on_c, 3, 64, 0
6, 8751, Control_c, 3, 123, 0
6, 8765, Note_on_c, 3, 62, 111
6, 8816, Note_on_c, 3, 62, 0
6, 8816, Control_c, 3, 123, 0
6, 8819, Note_on_c, 3, 60, 111
6, 8852, Note_on_c, 3, 60, 0
6, 8853, Control_c, 3, 123, 0
6, 8879, Note_on_c, 3, 62, 118
6, 8921, Note_on_c, 3, 62, 0
6, 8922, Control_c, 3, 123, 0
6, 8932, Note_on_c, 3, 60, 110
6, 8950, Note_on_c, 3, 60, 0
6, 8951, Control_c, 3, 123, 0
6, 8969, Note_on_c, 3, 60, 117
6, 9039, Note_on_c, 3, 60, 0
6, 9039, Control_c, 3, 123, 0
6, 9110, Note_on_c, 3, 60, 122
6, 9163, Note_on_c, 3, 60, 0
6, 9164, Control_c, 3, 123, 0
6, 9168, Note_on_c, 3, 57, 113
6, 9187, Note_on_c, 3, 57, 0
6, 9189, Control_c, 3, 123, 0
6, 9199, Note_on_c, 3, 60, 113
6, 9250, Note_on_c, 3, 60, 0
6, 9251, Control_c, 3, 123, 0
6, 9257, Note_on_c, 3, 57, 108
6, 9274, Note_on_c, 3, 57, 0
6, 9275, Control_c, 3, 123, 0
6, 9287, Note_on_c, 3, 60, 122
6, 9332, Note_on_c, 3, 60, 0
6, 9333, Control_c, 3, 123, 0
6, 9351, Note_on_c, 3, 57, 122
6, 9464, Note_on_c, 3, 57, 0
6, 9465, Control_c, 3, 123, 0
6, 9658, Note_on_c, 3, 64, 114
6, 9674, Note_on_c, 3, 64, 0
6, 9676, Control_c, 3, 123, 0
6, 9685, Note_on_c, 3, 64, 113
6, 9708, Note_on_c, 3, 64, 0
6, 9709, Control_c, 3, 123, 0
6, 9721, Note_on_c, 3, 62, 113
6, 9770, Note_on_c, 3, 62, 0
6, 9770, Control_c, 3, 123, 0
6, 9775, Note_on_c, 3, 60, 114
6, 9818, Note_on_c, 3, 60, 0
6, 9819, Control_c, 3, 123, 0
6, 9837, Note_on_c, 3, 62, 120
6, 9882, Note_on_c, 3, 62, 0
6, 9882, Control_c, 3, 123, 0
6, 9894, Note_on_c, 3, 60, 114
6, 9910, Note_on_c, 3, 60, 0
6, 9910, Control_c, 3, 123, 0
6, 9928, Note_on_c, 3, 60, 117
6, 10019, Note_on_c, 3, 60, 0
6, 10020, Control_c, 3, 123, 0
6, 10140, Note_on_c, 3, 64, 117
6, 10156, Note_on_c, 3, 64, 0
6, 10157, Control_c, 3, 123, 0
6, 10168, Note_on_c, 3, 64, 115
6, 10191, Note_on_c, 3, 64, 0
6, 10192, Control_c, 3, 123, 0
6, 10202, Note_on_c, 3, 62, 110
6, 10252, Note_on_c, 3, 62, 0
6, 10254, Control_c, 3, 123, 0
6, 10260, Note_on_c, 3, 60, 115
6, 10298, Note_on_c, 3, 60, 0
6, 10299, Control_c, 3, 123, 0
6, 10321, Note_on_c, 3, 60, 123
6, 10427, Note_on_c, 3, 60, 0
6, 10428, Control_c, 3, 123, 0
6, 10458, Note_on_c, 3, 60, 110
6, 10472, Note_on_c, 3, 60, 0
6, 10474, Control_c, 3, 123, 0
6, 10488, Note_on_c, 3, 60, 120
6, 10533, Note_on_c, 3, 60, 0
6, 10533, Control_c, 3, 123, 0
6, 10558, Note_on_c, 3, 64, 125
6, 10597, Note_on_c, 3, 64, 0
6, 10598, Control_c, 3, 123, 0
6, 10616, Note_on_c, 3, 64, 108
6, 10631, Note_on_c, 3, 64, 0
6, 10631, Control_c, 3, 123, 0
6, 10649, Note_on_c, 3, 64, 120
6, 10689, Note_on_c, 3, 64, 0
6, 10690, Control_c, 3, 123, 0
6, 10706, Note_on_c, 3, 62, 108
6, 10735, Note_on_c, 3, 62, 0
6, 10736, Note_on_c, 3, 60, 125
6, 10774, Note_on_c, 3, 60, 0
6, 10774, Control_c, 3, 123, 0
6, 10800, Note_on_c, 3, 62, 123
6, 10827, Note_on_c, 3, 62, 0
6, 10827, Control_c, 3, 123, 0
6, 10856, Note_on_c, 3, 62, 120
6, 10909, Note_on_c, 3, 62, 0
6, 10910, Control_c, 3, 123, 0
6, 10956, Note_on_c, 3, 60, 115
6, 10987, Note_on_c, 3, 60, 0
6, 10988, Control_c, 3, 123, 0
6, 10993, Note_on_c, 3, 57, 104
6, 11024, Note_on_c, 3, 57, 0
6, 11024, Control_c, 3, 123, 0
6, 11027, Note_on_c, 3, 60, 111
6, 11059, Note_on_c, 3, 60, 0
6, 11060, Control_c, 3, 123, 0
6, 11064, Note_on_c, 3, 57, 110
6, 11088, Note_on_c, 3, 57, 0
6, 11089, Control_c, 3, 123, 0
6, 11094, Note_on_c, 3, 60, 111
6, 11122, Note_on_c, 3, 60, 0
6, 11123, Control_c, 3, 123, 0
6, 11127, Note_on_c, 3, 57, 117
6, 11150, Note_on_c, 3, 57, 0
6, 11150, Control_c, 3, 123, 0
6, 11163, Note_on_c, 3, 64, 117
6, 11203, Note_on_c, 3, 64, 0
6, 11204, Control_c, 3, 123, 0
6, 11217, Note_on_c, 3, 60, 113
6, 11232, Note_on_c, 3, 60, 0
6, 11233, Control_c, 3, 123, 0
6, 11247, Note_on_c, 3, 60, 122
6, 11470, Note_on_c, 3, 60, 0
6, 11471, Control_c, 3, 123, 0
6, 11515, Note_on_c, 3, 60, 126
6, 11557, Note_on_c, 3, 60, 0
6, 11558, Control_c, 3, 123, 0
6, 11573, Note_on_c, 3, 60, 123
6, 11683, Note_on_c, 3, 60, 0
6, 11685, Control_c, 3, 123, 0
6, 11691, Note_on_c, 3, 57, 111
6, 11724, Note_on_c, 3, 57, 0
6, 11725, Control_c, 3, 123, 0
6, 11729, Note_on_c, 3, 60, 123
6, 11978, Note_on_c, 3, 60, 0
6, 11979, Control_c, 3, 123, 0
6, 12001, Note_on_c, 3, 62, 125
6, 12020, Note_on_c, 3, 62, 0
6, 12021, Control_c, 3, 123, 0
6, 12037, Note_on_c, 3, 62, 122
6, 12174, Note_on_c, 3, 62, 0
6, 12175, Control_c, 3, 123, 0
6, 12187, Note_on_c, 3, 60, 117
6, 12204, Note_on_c, 3, 60, 0
6, 12204, Control_c, 3, 123, 0
6, 12222, Note_on_c, 3, 60, 122
6, 12390, Note_on_c, 3, 60, 0
6, 12390, Control_c, 3, 123, 0
6, 12412, Note_on_c, 3, 67, 111
6, 12452, Note_on_c, 3, 67, 0
6, 12452, Control_c, 3, 123, 0
6, 12476, Note_on_c, 3, 67, 126
6, 12573, Note_on_c, 3, 67, 0
6, 12574, Control_c, 3, 123, 0
6, 12594, Note_on_c, 3, 67, 123
6, 12690, Note_on_c, 3, 67, 0
6, 12691, Control_c, 3, 123, 0
6, 12707, Note_on_c, 3, 69, 118
6, 12759, Note_on_c, 3, 69, 0
6, 12759, Control_c, 3, 123, 0
6, 12772, Note_on_c, 3, 67, 115
6, 12824, Note_on_c, 3, 67, 0
6, 12825, Control_c, 3, 123, 0
6, 12835, Note_on_c, 3, 64, 122
6, 12881, Note_on_c, 3, 64, 0
6, 12882, Control_c, 3, 123, 0
6, 12889, Note_on_c, 3, 62, 115
6, 12937, Note_on_c, 3, 62, 0
6, 12937, Control_c, 3, 123, 0
6, 12949, Note_on_c, 3, 60, 118
6, 12995, Note_on_c, 3, 60, 0
6, 12997, Control_c, 3, 123, 0
6, 13017, Note_on_c, 3, 60, 120
6, 13110, Note_on_c, 3, 60, 0
6, 13111, Control_c, 3, 123, 0
6, 13143, Note_on_c, 3, 60, 125
6, 13409, Note_on_c, 3, 60, 0
6, 13410, Control_c, 3, 123, 0
6, 13433, Note_on_c, 3, 60, 118
6, 13465, Note_on_c, 3, 60, 0
6, 13466, Control_c, 3, 123, 0
6, 13478, Note_on_c, 3, 60, 52
6, 13609, Note_on_c, 3, 60, 0
6, 13610, Control_c, 3, 123, 0
6, 13616, Note_on_c, 3, 57, 107
6, 13651, Note_on_c, 3, 57, 0
6, 13651, Note_on_c, 3, 60, 122
6, 13899, Note_on_c, 3, 60, 0
6, 13900, Control_c, 3, 123, 0
6, 13922, Note_on_c, 3, 62, 125
6, 13942, Note_on_c, 3, 62, 0
6, 13943, Control_c, 3, 123, 0
6, 13956, Note_on_c, 3, 62, 125
6, 14081, Note_on_c, 3, 62, 0
6, 14081, Control_c, 3, 123, 0
6, 14097, Note_on_c, 3, 60, 118
6, 14116, Note_on_c, 3, 60, 0
6, 14116, Control_c, 3, 123, 0
6, 14132, Note_on_c, 3, 60, 120
6, 14300, Note_on_c, 3, 60, 0
6, 14301, Control_c, 3, 123, 0
6, 14328, Note_on_c, 3, 67, 122
6, 14375, Note_on_c, 3, 67, 0
6, 14376, Control_c, 3, 123, 0
6, 14396, Note_on_c, 3, 67, 127
6, 14487, Note_on_c, 3, 67, 0
6, 14487, Control_c, 3, 123, 0
6, 14508, Note_on_c, 3, 67, 125
6, 14605, Note_on_c, 3, 67, 0
6, 14605, Control_c, 3, 123, 0
6, 14623, Note_on_c, 3, 69, 122
6, 14672, Note_on_c, 3, 69, 0
6, 14673, Control_c, 3, 123, 0
6, 14687, Note_on_c, 3, 67, 120
6, 14731, Note_on_c, 3, 67, 0
6, 14732, Control_c, 3, 123, 0
6, 14750, Note_on_c, 3, 64, 125
6, 14795, Note_on_c, 3, 64, 0
6, 14795, Control_c, 3, 123, 0
6, 14806, Note_on_c, 3, 62, 115
6, 14853, Note_on_c, 3, 62, 0
6, 14854, Control_c, 3, 123, 0
6, 14873, Note_on_c, 3, 60, 122
6, 14919, Note_on_c, 3, 60, 0
6, 14920, Control_c, 3, 123, 0
6, 14940, Note_on_c, 3, 60, 125
6, 15031, Note_on_c, 3, 60, 0
6, 15032, Control_c, 3, 123, 0
6, 15065, Note_on_c, 3, 60, 127
6, 15333, Note_on_c, 3, 60, 0
6, 15333, Control_c, 3, 123, 0
6, 15333, End_track
7, 0, Start_track
7, 0, MIDI_port, 0
7, 0, Title_t, "THE MIGHTY QUINN (QUINN THE"
7, 0, Program_c, 4, 60
7, 4805, Note_on_c, 4, 67, 127
7, 4843, Note_on_c, 4, 67, 0
7, 4843, Control_c, 4, 123, 0
7, 4863, Note_on_c, 4, 67, 125
7, 4876, Note_on_c, 4, 67, 0
7, 4877, Control_c, 4, 123, 0
7, 4893, Note_on_c, 4, 67, 123
7, 4940, Note_on_c, 4, 67, 0
7, 4941, Control_c, 4, 123, 0
7, 4950, Note_on_c, 4, 65, 115
7, 4979, Note_on_c, 4, 65, 0
7, 4979, Note_on_c, 4, 64, 120
7, 5012, Note_on_c, 4, 64, 0
7, 5012, Control_c, 4, 123, 0
7, 5041, Note_on_c, 4, 67, 125
7, 5076, Note_on_c, 4, 67, 0
7, 5077, Control_c, 4, 123, 0
7, 5103, Note_on_c, 4, 67, 127
7, 5190, Note_on_c, 4, 67, 0
7, 5191, Control_c, 4, 123, 0
7, 5219, Note_on_c, 4, 67, 125
7, 5251, Note_on_c, 4, 67, 0
7, 5252, Control_c, 4, 123, 0
7, 5279, Note_on_c, 4, 65, 123
7, 5315, Note_on_c, 4, 65, 0
7, 5315, Control_c, 4, 123, 0
7, 5333, Note_on_c, 4, 65, 122
7, 5356, Note_on_c, 4, 65, 0
7, 5357, Control_c, 4, 123, 0
7, 5390, Note_on_c, 4, 65, 127
7, 5421, Note_on_c, 4, 65, 0
7, 5422, Control_c, 4, 123, 0
7, 5441, Note_on_c, 4, 65, 113
7, 5463, Note_on_c, 4, 65, 0
7, 5464, Control_c, 4, 123, 0
7, 5483, Note_on_c, 4, 64, 127
7, 5720, Note_on_c, 4, 64, 0
7, 5721, Control_c, 4, 123, 0
7, 5764, Note_on_c, 4, 64, 127
7, 5784, Note_on_c, 4, 64, 0
7, 5785, Control_c, 4, 123, 0
7, 5800, Note_on_c, 4, 64, 123
7, 5939, Note_on_c, 4, 64, 0
7, 5940, Control_c, 4, 123, 0
7, 5946, Note_on_c, 4, 62, 118
7, 5972, Note_on_c, 4, 62, 0
7, 5972, Control_c, 4, 123, 0
7, 5980, Note_on_c, 4, 64, 125
7, 6177, Note_on_c, 4, 64, 0
7, 6177, Control_c, 4, 123, 0
7, 6243, Note_on_c, 4, 67, 127
7, 6268, Note_on_c, 4, 67, 0
7, 6269, Control_c, 4, 123, 0
7, 6284, Note_on_c, 4, 67, 125
7, 6396, Note_on_c, 4, 67, 0
7, 6396, Control_c, 4, 123, 0
7, 6418, Note_on_c, 4, 64, 123
7, 6436, Note_on_c, 4, 64, 0
7, 6437, Control_c, 4, 123, 0
7, 6457, Note_on_c, 4, 64, 123
7, 6594, Note_on_c, 4, 64, 0
7, 6595, Control_c, 4, 123, 0
7, 6716, Note_on_c, 4, 72, 118
7, 6792, Note_on_c, 4, 72, 0
7, 6793, Control_c, 4, 123, 0
7, 6829, Note_on_c, 4, 72, 125
7, 6903, Note_on_c, 4, 72, 0
7, 6905, Control_c, 4, 123, 0
7, 6946, Note_on_c, 4, 72, 118
7, 6996, Note_on_c, 4, 72, 0
7, 6996, Control_c, 4, 123, 0
7, 7011, Note_on_c, 4, 72, 115
7, 7059, Note_on_c, 4, 72, 0
7, 7061, Control_c, 4, 123, 0
7, 7074, Note_on_c, 4, 72, 120
7, 7116, Note_on_c, 4, 72, 0
7, 7138, Note_on_c, 4, 71, 125
7, 7187, Note_on_c, 4, 71, 0
7, 7188, Control_c, 4, 123, 0
7, 7198, Note_on_c, 4, 69, 97
7, 7240, Note_on_c, 4, 69, 0
7, 7241, Control_c, 4, 123, 0
7, 7263, Note_on_c, 4, 69, 123
7, 7355, Note_on_c, 4, 69, 0
7, 7355, Control_c, 4, 123, 0
7, 7369, Note_on_c, 4, 67, 115
7, 7577, Note_on_c, 4, 67, 0
7, 7578, Control_c, 4, 123, 0
7, 10581, Note_on_c, 4, 67, 118
7, 10606, Note_on_c, 4, 67, 0
7, 10607, Control_c, 4, 123, 0
7, 10626, Note_on_c, 4, 67, 122
7, 10641, Note_on_c, 4, 67, 0
7, 10642, Control_c, 4, 123, 0
7, 10658, Note_on_c, 4, 67, 125
7, 10710, Note_on_c, 4, 67, 0
7, 10712, Control_c, 4, 123, 0
7, 10720, Note_on_c, 4, 65, 118
7, 10746, Note_on_c, 4, 65, 0
7, 10747, Control_c, 4, 123, 0
7, 10749, Note_on_c, 4, 64, 115
7, 10775, Note_on_c, 4, 64, 0
7, 10776, Control_c, 4, 123, 0
7, 10805, Note_on_c, 4, 65, 125
7, 10839, Note_on_c, 4, 65, 0
7, 10840, Control_c, 4, 123, 0
7, 10865, Note_on_c, 4, 67, 127
7, 10945, Note_on_c, 4, 67, 0
7, 10946, Control_c, 4, 123, 0
7, 10969, Note_on_c, 4, 67, 118
7, 11012, Note_on_c, 4, 67, 0
7, 11012, Control_c, 4, 123, 0
7, 11033, Note_on_c, 4, 65, 117
7, 11069, Note_on_c, 4, 65, 0
7, 11070, Control_c, 4, 123, 0
7, 11091, Note_on_c, 4, 65, 125
7, 11133, Note_on_c, 4, 65, 0
7, 11135, Control_c, 4, 123, 0
7, 11151, Note_on_c, 4, 65, 122
7, 11196, Note_on_c, 4, 65, 0
7, 11197, Control_c, 4, 123, 0
7, 11214, Note_on_c, 4, 64, 120
7, 11229, Note_on_c, 4, 64, 0
7, 11230, Control_c, 4, 123, 0
7, 11246, Note_on_c, 4, 64, 123
7, 11463, Note_on_c, 4, 64, 0
7, 11463, Control_c, 4, 123, 0
7, 11518, Note_on_c, 4, 67, 123
7, 11568, Note_on_c, 4, 67, 0
7, 11569, Control_c, 4, 123, 0
7, 11586, Note_on_c, 4, 67, 126
7, 11692, Note_on_c, 4, 67, 0
7, 11692, Control_c, 4, 123, 0
7, 11695, Note_on_c, 4, 64, 113
7, 11723, Note_on_c, 4, 64, 0
7, 11724, Control_c, 4, 123, 0
7, 11734, Note_on_c, 4, 67, 123
7, 11971, Note_on_c, 4, 67, 0
7, 11971, Control_c, 4, 123, 0
7, 12002, Note_on_c, 4, 69, 118
7, 12034, Note_on_c, 4, 69, 0
7, 12035, Control_c, 4, 123, 0
7, 12049, Note_on_c, 4, 69, 120
7, 12143, Note_on_c, 4, 69, 0
7, 12144, Control_c, 4, 123, 0
7, 12175, Note_on_c, 4, 67, 118
7, 12200, Note_on_c, 4, 67, 0
7, 12201, Control_c, 4, 123, 0
7, 12218, Note_on_c, 4, 67, 117
7, 12356, Note_on_c, 4, 67, 0
7, 12356, Control_c, 4, 123, 0
7, 12411, Note_on_c, 4, 67, 114
7, 12437, Note_on_c, 4, 67, 0
7, 12438, Control_c, 4, 123, 0
7, 12471, Note_on_c, 4, 72, 123
7, 12565, Note_on_c, 4, 72, 0
7, 12567, Control_c, 4, 123, 0
7, 12596, Note_on_c, 4, 72, 125
7, 12671, Note_on_c, 4, 72, 0
7, 12671, Control_c, 4, 123, 0
7, 12705, Note_on_c, 4, 71, 123
7, 12755, Note_on_c, 4, 71, 0
7, 12757, Control_c, 4, 123, 0
7, 12774, Note_on_c, 4, 71, 123
7, 12817, Note_on_c, 4, 71, 0
7, 12817, Control_c, 4, 123, 0
7, 12835, Note_on_c, 4, 71, 123
7, 12872, Note_on_c, 4, 71, 0
7, 12873, Control_c, 4, 123, 0
7, 12889, Note_on_c, 4, 71, 111
7, 12934, Note_on_c, 4, 71, 0
7, 12935, Control_c, 4, 123, 0
7, 12951, Note_on_c, 4, 69, 125
7, 12995, Note_on_c, 4, 69, 0
7, 12996, Control_c, 4, 123, 0
7, 13016, Note_on_c, 4, 69, 126
7, 13100, Note_on_c, 4, 69, 0
7, 13101, Control_c, 4, 123, 0
7, 13133, Note_on_c, 4, 67, 126
7, 13389, Note_on_c, 4, 67, 0
7, 13391, Control_c, 4, 123, 0
7, 13438, Note_on_c, 4, 67, 122
7, 13478, Note_on_c, 4, 67, 0
7, 13479, Control_c, 4, 123, 0
7, 13508, Note_on_c, 4, 67, 118
7, 13608, Note_on_c, 4, 67, 0
7, 13609, Control_c, 4, 123, 0
7, 13616, Note_on_c, 4, 64, 113
7, 13643, Note_on_c, 4, 64, 0
7, 13644, Control_c, 4, 123, 0
7, 13656, Note_on_c, 4, 67, 120
7, 13883, Note_on_c, 4, 67, 0
7, 13884, Control_c, 4, 123, 0
7, 13910, Note_on_c, 4, 69, 118
7, 13958, Note_on_c, 4, 69, 0
7, 13959, Control_c, 4, 123, 0
7, 13977, Note_on_c, 4, 69, 122
7, 14065, Note_on_c, 4, 69, 0
7, 14066, Control_c, 4, 123, 0
7, 14092, Note_on_c, 4, 67, 122
7, 14111, Note_on_c, 4, 67, 0
7, 14112, Control_c, 4, 123, 0
7, 14132, Note_on_c, 4, 67, 120
7, 14289, Note_on_c, 4, 67, 0
7, 14289, Control_c, 4, 123, 0
7, 14325, Note_on_c, 4, 67, 113
7, 14351, Note_on_c, 4, 67, 0
7, 14352, Control_c, 4, 123, 0
7, 14401, Note_on_c, 4, 72, 114
7, 14471, Note_on_c, 4, 72, 0
7, 14471, Control_c, 4, 123, 0
7, 14515, Note_on_c, 4, 72, 125
7, 14596, Note_on_c, 4, 72, 0
7, 14597, Control_c, 4, 123, 0
7, 14631, Note_on_c, 4, 71, 125
7, 14678, Note_on_c, 4, 71, 0
7, 14679, Control_c, 4, 123, 0
7, 14695, Note_on_c, 4, 71, 118
7, 14736, Note_on_c, 4, 71, 0
7, 14737, Control_c, 4, 123, 0
7, 14756, Note_on_c, 4, 71, 122
7, 14788, Note_on_c, 4, 71, 0
7, 14790, Control_c, 4, 123, 0
7, 14811, Note_on_c, 4, 71, 114
7, 14848, Note_on_c, 4, 71, 0
7, 14849, Control_c, 4, 123, 0
7, 14868, Note_on_c, 4, 69, 123
7, 14919, Note_on_c, 4, 69, 0
7, 14921, Control_c, 4, 123, 0
7, 14940, Note_on_c, 4, 69, 122
7, 15024, Note_on_c, 4, 69, 0
7, 15026, Control_c, 4, 123, 0
7, 15060, Note_on_c, 4, 67, 125
7, 15326, Note_on_c, 4, 67, 0
7, 15326, Control_c, 4, 123, 0
7, 15326, End_track
8, 0, Start_track
8, 0, MIDI_port, 0
8, 0, Title_t, "  ESKIMO)  BOB DYLAN"
8, 0, Program_c, 5, 52
8, 4799, Note_on_c, 5, 64, 106
8, 4799, Note_on_c, 5, 60, 100
8, 5000, Note_on_c, 5, 60, 0
8, 5006, Note_on_c, 5, 64, 0
8, 5006, Control_c, 5, 123, 0
8, 5027, Note_on_c, 5, 67, 102
8, 5027, Note_on_c, 5, 62, 97
8, 5247, Note_on_c, 5, 62, 0
8, 5250, Note_on_c, 5, 67, 0
8, 5251, Control_c, 5, 123, 0
8, 5268, Note_on_c, 5, 60, 92
8, 5268, Note_on_c, 5, 65, 102
8, 5491, Note_on_c, 5, 60, 0
8, 5498, Note_on_c, 5, 65, 0
8, 5498, Control_c, 5, 123, 0
8, 5515, Note_on_c, 5, 64, 99
8, 5515, Note_on_c, 5, 60, 87
8, 5729, Note_on_c, 5, 64, 0
8, 5731, Note_on_c, 5, 60, 0
8, 5733, Control_c, 5, 123, 0
8, 5766, Note_on_c, 5, 60, 69
8, 5766, Note_on_c, 5, 64, 79
8, 6245, Note_on_c, 5, 64, 0
8, 6258, Note_on_c, 5, 64, 66
8, 6264, Note_on_c, 5, 64, 0
8, 6304, Note_on_c, 5, 65, 88
8, 6454, Note_on_c, 5, 65, 0
8, 6476, Note_on_c, 5, 64, 95
8, 6685, Note_on_c, 5, 64, 0
8, 6688, Note_on_c, 5, 60, 0
8, 6689, Control_c, 5, 123, 0
8, 6713, Note_on_c, 5, 64, 94
8, 6714, Note_on_c, 5, 60, 85
8, 6915, Note_on_c, 5, 60, 0
8, 6916, Note_on_c, 5, 64, 0
8, 6917, Control_c, 5, 123, 0
8, 6946, Note_on_c, 5, 62, 104
8, 6946, Note_on_c, 5, 59, 91
8, 7145, Note_on_c, 5, 62, 0
8, 7148, Note_on_c, 5, 59, 0
8, 7148, Control_c, 5, 123, 0
8, 7183, Note_on_c, 5, 57, 86
8, 7184, Note_on_c, 5, 60, 98
8, 7357, Note_on_c, 5, 57, 0
8, 7366, Note_on_c, 5, 60, 0
8, 7366, Control_c, 5, 123, 0
8, 7404, Note_on_c, 5, 55, 95
8, 7405, Note_on_c, 5, 60, 108
8, 7635, Note_on_c, 5, 60, 0
8, 7636, Note_on_c, 5, 55, 0
8, 7636, Control_c, 5, 123, 0
8, 10546, Note_on_c, 5, 64, 99
8, 10546, Note_on_c, 5, 60, 75
8, 10760, Note_on_c, 5, 60, 0
8, 10766, Note_on_c, 5, 64, 0
8, 10767, Control_c, 5, 123, 0
8, 10779, Note_on_c, 5, 67, 100
8, 10781, Note_on_c, 5, 62, 91
8, 10985, Note_on_c, 5, 62, 0
8, 11001, Note_on_c, 5, 67, 0
8, 11002, Control_c, 5, 123, 0
8, 11014, Note_on_c, 5, 65, 90
8, 11015, Note_on_c, 5, 60, 86
8, 11256, Note_on_c, 5, 65, 0
8, 11262, Note_on_c, 5, 64, 95
8, 11504, Note_on_c, 5, 64, 0
8, 11506, Note_on_c, 5, 60, 0
8, 11506, Control_c, 5, 123, 0
8, 11519, Note_on_c, 5, 64, 99
8, 11519, Note_on_c, 5, 60, 83
8, 11967, Note_on_c, 5, 64, 0
8, 11997, Note_on_c, 5, 62, 79
8, 11999, Note_on_c, 5, 67, 104
8, 12007, Note_on_c, 5, 60, 0
8, 12214, Note_on_c, 5, 62, 0
8, 12222, Note_on_c, 5, 67, 0
8, 12223, Control_c, 5, 123, 0
8, 12229, Note_on_c, 5, 60, 87
8, 12229, Note_on_c, 5, 64, 95
8, 12437, Note_on_c, 5, 64, 0
8, 12438, Note_on_c, 5, 60, 0
8, 12439, Control_c, 5, 123, 0
8, 12459, Note_on_c, 5, 60, 85
8, 12460, Note_on_c, 5, 64, 92
8, 12667, Note_on_c, 5, 60, 0
8, 12677, Note_on_c, 5, 64, 0
8, 12677, Control_c, 5, 123, 0
8, 12696, Note_on_c, 5, 62, 97
8, 12697, Note_on_c, 5, 59, 83
8, 12906, Note_on_c, 5, 62, 0
8, 12911, Note_on_c, 5, 59, 0
8, 12911, Control_c, 5, 123, 0
8, 12942, Note_on_c, 5, 57, 90
8, 12943, Note_on_c, 5, 60, 99
8, 13118, Note_on_c, 5, 57, 0
8, 13128, Note_on_c, 5, 60, 0
8, 13129, Control_c, 5, 123, 0
8, 13160, Note_on_c, 5, 55, 76
8, 13161, Note_on_c, 5, 60, 91
8, 13417, Note_on_c, 5, 60, 0
8, 13418, Note_on_c, 5, 55, 0
8, 13419, Control_c, 5, 123, 0
8, 13448, Note_on_c, 5, 60, 106
8, 13536, Note_on_c, 5, 64, 32
8, 13887, Note_on_c, 5, 64, 0
8, 13903, Note_on_c, 5, 62, 56
8, 13906, Note_on_c, 5, 67, 91
8, 13913, Note_on_c, 5, 60, 0
8, 14139, Note_on_c, 5, 62, 0
8, 14144, Note_on_c, 5, 67, 0
8, 14145, Control_c, 5, 123, 0
8, 14150, Note_on_c, 5, 60, 88
8, 14151, Note_on_c, 5, 64, 92
8, 14368, Note_on_c, 5, 64, 0
8, 14369, Note_on_c, 5, 60, 0
8, 14370, Control_c, 5, 123, 0
8, 14390, Note_on_c, 5, 64, 97
8, 14391, Note_on_c, 5, 60, 86
8, 14591, Note_on_c, 5, 60, 0
8, 14602, Note_on_c, 5, 64, 0
8, 14603, Control_c, 5, 123, 0
8, 14618, Note_on_c, 5, 62, 94
8, 14619, Note_on_c, 5, 59, 86
8, 14822, Note_on_c, 5, 62, 0
8, 14827, Note_on_c, 5, 59, 0
8, 14828, Control_c, 5, 123, 0
8, 14861, Note_on_c, 5, 60, 91
8, 14862, Note_on_c, 5, 57, 86
8, 15035, Note_on_c, 5, 57, 0
8, 15052, Note_on_c, 5, 60, 0
8, 15054, Control_c, 5, 123, 0
8, 15077, Note_on_c, 5, 60, 66
8, 15078, Note_on_c, 5, 55, 79
8, 15415, Note_on_c, 5, 60, 0
8, 15423, Note_on_c, 5, 55, 0
8, 15425, Control_c, 5, 123, 0
8, 15425, End_track
9, 0, Start_track
9, 0, MIDI_port, 0
9, 0, Title_t, "BEATLES GET BACK SESSIONS"
9, 0, Program_c, 6, 30
9, 959, Note_on_c, 6, 60, 72
9, 964, Note_on_c, 6, 48, 59
9, 1063, Control_c, 6, 64, 127
9, 1170, Note_on_c, 6, 48, 0
9, 1176, Control_c, 6, 64, 0
9, 1183, Note_on_c, 6, 67, 75
9, 1185, Note_on_c, 6, 55, 75
9, 1187, Note_on_c, 6, 60, 0
9, 1414, Note_on_c, 6, 55, 0
9, 1425, Note_on_c, 6, 65, 81
9, 1430, Note_on_c, 6, 53, 49
9, 1435, Note_on_c, 6, 67, 0
9, 1654, Note_on_c, 6, 53, 0
9, 1663, Note_on_c, 6, 60, 68
9, 1664, Note_on_c, 6, 48, 32
9, 1688, Note_on_c, 6, 65, 0
9, 1890, Note_on_c, 6, 48, 0
9, 1897, Note_on_c, 6, 60, 0
9, 1898, Control_c, 6, 123, 0
9, 1905, Note_on_c, 6, 60, 33
9, 1910, Note_on_c, 6, 48, 52
9, 2056, Control_c, 6, 64, 127
9, 2125, Note_on_c, 6, 48, 0
9, 2138, Control_c, 6, 64, 0
9, 2143, Note_on_c, 6, 65, 70
9, 2145, Note_on_c, 6, 53, 90
9, 2328, Control_c, 6, 64, 127
9, 2379, Control_c, 6, 64, 0
9, 2381, Note_on_c, 6, 65, 0
9, 2383, Note_on_c, 6, 53, 0
9, 2389, Note_on_c, 6, 64, 72
9, 2389, Note_on_c, 6, 48, 60
9, 2608, Note_on_c, 6, 48, 0
9, 2610, Note_on_c, 6, 53, 85
9, 2610, Note_on_c, 6, 65, 81
9, 2620, Note_on_c, 6, 64, 0
9, 2863, Note_on_c, 6, 65, 0
9, 2865, Note_on_c, 6, 53, 0
9, 2866, Note_on_c, 6, 48, 62
9, 2869, Note_on_c, 6, 64, 37
9, 3102, Note_on_c, 6, 65, 78
9, 3106, Note_on_c, 6, 53, 82
9, 3111, Note_on_c, 6, 48, 0
9, 3111, Note_on_c, 6, 64, 0
9, 3333, Note_on_c, 6, 53, 0
9, 3335, Note_on_c, 6, 65, 0
9, 3339, Note_on_c, 6, 48, 55
9, 3342, Note_on_c, 6, 64, 73
9, 3568, Note_on_c, 6, 53, 84
9, 3570, Note_on_c, 6, 48, 0
9, 3571, Note_on_c, 6, 65, 77
9, 3579, Note_on_c, 6, 64, 0
9, 3815, Note_on_c, 6, 53, 0
9, 3818, Note_on_c, 6, 65, 0
9, 3822, Note_on_c, 6, 48, 47
9, 3826, Note_on_c, 6, 64, 44
9, 4043, Note_on_c, 6, 48, 0
9, 4066, Note_on_c, 6, 65, 74
9, 4066, Note_on_c, 6, 53, 76
9, 4072, Note_on_c, 6, 64, 0
9, 4286, Note_on_c, 6, 60, 0
9, 4297, Note_on_c, 6, 53, 0
9, 4301, Note_on_c, 6, 60, 82
9, 4304, Note_on_c, 6, 48, 60
9, 4310, Note_on_c, 6, 65, 0
9, 4534, Note_on_c, 6, 48, 0
9, 4546, Note_on_c, 6, 65, 84
9, 4548, Note_on_c, 6, 53, 83
9, 4570, Note_on_c, 6, 60, 0
9, 4700, Note_on_c, 6, 60, 49
9, 4721, Note_on_c, 6, 60, 0
9, 4778, Note_on_c, 6, 65, 0
9, 4779, Note_on_c, 6, 53, 0
9, 4781, Control_c, 6, 123, 0
9, 4947, Control_c, 6, 64, 127
9, 4990, Control_c, 6, 123, 0
9, 5001, Control_c, 6, 64, 0
9, 5253, Control_c, 6, 123, 0
9, 5440, Control_c, 6, 64, 127
9, 5490, Control_c, 6, 64, 0
9, 5751, Note_on_c, 6, 60, 42
9, 5753, Note_on_c, 6, 48, 73
9, 5943, Note_on_c, 6, 48, 0
9, 5997, Note_on_c, 6, 48, 23
9, 6176, Note_on_c, 6, 60, 0
9, 6219, Note_on_c, 6, 62, 44
9, 6226, Note_on_c, 6, 48, 0
9, 6226, Note_on_c, 6, 67, 75
9, 6226, Note_on_c, 6, 55, 74
9, 6405, Note_on_c, 6, 62, 0
9, 6433, Note_on_c, 6, 67, 0
9, 6459, Note_on_c, 6, 60, 55
9, 6461, Note_on_c, 6, 48, 62
9, 6462, Note_on_c, 6, 64, 47
9, 6472, Note_on_c, 6, 55, 0
9, 6602, Note_on_c, 6, 60, 0
9, 6610, Note_on_c, 6, 60, 38
9, 6691, Note_on_c, 6, 48, 0
9, 6703, Note_on_c, 6, 60, 0
9, 6709, Note_on_c, 6, 60, 24
9, 6715, Note_on_c, 6, 48, 75
9, 6828, Note_on_c, 6, 60, 0
9, 6917, Note_on_c, 6, 64, 0
9, 6934, Note_on_c, 6, 48, 0
9, 6934, Note_on_c, 6, 62, 71
9, 6938, Note_on_c, 6, 55, 72
9, 6938, Note_on_c, 6, 67, 80
9, 7100, Note_on_c, 6, 62, 0
9, 7146, Note_on_c, 6, 67, 0
9, 7163, Note_on_c, 6, 55, 0
9, 7163, Control_c, 6, 123, 0
9, 7177, Note_on_c, 6, 60, 49
9, 7178, Note_on_c, 6, 65, 66
9, 7178, Note_on_c, 6, 53, 84
9, 7239, Note_on_c, 6, 65, 0
9, 7250, Note_on_c, 6, 65, 63
9, 7313, Note_on_c, 6, 65, 0
9, 7359, Note_on_c, 6, 53, 0
9, 7364, Note_on_c, 6, 64, 66
9, 7366, Note_on_c, 6, 48, 53
9, 7598, Control_c, 6, 64, 127
9, 7621, Note_on_c, 6, 60, 0
9, 7623, Note_on_c, 6, 48, 0
9, 7640, Note_on_c, 6, 64, 0
9, 7640, Control_c, 6, 123, 0
9, 7657, Control_c, 6, 64, 0
9, 7669, Note_on_c, 6, 48, 55
9, 7669, Note_on_c, 6, 60, 73
9, 7822, Control_c, 6, 64, 127
9, 7871, Control_c, 6, 64, 0
9, 7880, Note_on_c, 6, 48, 0
9, 7905, Note_on_c, 6, 65, 55
9, 7905, Note_on_c, 6, 53, 82
9, 8064, Control_c, 6, 64, 127
9, 8097, Control_c, 6, 64, 0
9, 8125, Note_on_c, 6, 60, 0
9, 8139, Note_on_c, 6, 53, 0
9, 8141, Note_on_c, 6, 60, 73
9, 8144, Note_on_c, 6, 48, 60
9, 8152, Note_on_c, 6, 65, 0
9, 8304, Control_c, 6, 64, 127
9, 8345, Control_c, 6, 64, 0
9, 8360, Note_on_c, 6, 48, 0
9, 8372, Note_on_c, 6, 65, 65
9, 8378, Note_on_c, 6, 53, 78
9, 8394, Note_on_c, 6, 60, 0
9, 8529, Control_c, 6, 64, 127
9, 8574, Control_c, 6, 64, 0
9, 8610, Note_on_c, 6, 53, 0
9, 8629, Note_on_c, 6, 48, 51
9, 8630, Note_on_c, 6, 60, 73
9, 8633, Note_on_c, 6, 65, 0
9, 8789, Control_c, 6, 64, 127
9, 8833, Control_c, 6, 64, 0
9, 8854, Note_on_c, 6, 48, 0
9, 8872, Note_on_c, 6, 65, 66
9, 8875, Note_on_c, 6, 53, 78
9, 8881, Note_on_c, 6, 60, 0
9, 9028, Control_c, 6, 64, 127
9, 9067, Control_c, 6, 64, 0
9, 9095, Note_on_c, 6, 53, 0
9, 9099, Note_on_c, 6, 48, 58
9, 9100, Note_on_c, 6, 60, 77
9, 9103, Note_on_c, 6, 65, 0
9, 9242, Control_c, 6, 64, 127
9, 9303, Control_c, 6, 64, 0
9, 9330, Note_on_c, 6, 48, 0
9, 9342, Note_on_c, 6, 60, 0
9, 9342, Control_c, 6, 123, 0
9, 9344, Note_on_c, 6, 65, 62
9, 9349, Note_on_c, 6, 53, 86
9, 9484, Control_c, 6, 64, 127
9, 9549, Control_c, 6, 64, 0
9, 9576, Note_on_c, 6, 53, 0
9, 9579, Note_on_c, 6, 48, 71
9, 9582, Note_on_c, 6, 60, 72
9, 9584, Note_on_c, 6, 65, 0
9, 9714, Control_c, 6, 64, 127
9, 9759, Note_on_c, 6, 48, 0
9, 9774, Note_on_c, 6, 60, 0
9, 9775, Control_c, 6, 123, 0
9, 9796, Note_on_c, 6, 65, 74
9, 9797, Note_on_c, 6, 53, 68
9, 9815, Control_c, 6, 64, 0
9, 9952, Control_c, 6, 64, 127
9, 10019, Control_c, 6, 64, 0
9, 10064, Note_on_c, 6, 53, 0
9, 10068, Note_on_c, 6, 48, 57
9, 10068, Note_on_c, 6, 60, 77
9, 10073, Note_on_c, 6, 65, 0
9, 10215, Control_c, 6, 64, 127
9, 10292, Control_c, 6, 64, 0
9, 10295, Note_on_c, 6, 48, 0
9, 10314, Note_on_c, 6, 65, 81
9, 10319, Note_on_c, 6, 53, 80
9, 10321, Note_on_c, 6, 60, 0
9, 10542, Note_on_c, 6, 53, 0
9, 10545, Note_on_c, 6, 65, 0
9, 10546, Control_c, 6, 123, 0
9, 10760, Control_c, 6, 123, 0
9, 11018, Control_c, 6, 123, 0
9, 11192, Control_c, 6, 64, 127
9, 11238, Control_c, 6, 123, 0
9, 11252, Control_c, 6, 64, 0
9, 11419, Control_c, 6, 64, 127
9, 11486, Control_c, 6, 123, 0
9, 11508, Note_on_c, 6, 48, 59
9, 11508, Note_on_c, 6, 60, 79
9, 11517, Control_c, 6, 64, 0
9, 11636, Control_c, 6, 64, 127
9, 11817, Note_on_c, 6, 60, 0
9, 11861, Note_on_c, 6, 48, 0
9, 11862, Control_c, 6, 123, 0
9, 11976, Control_c, 6, 64, 0
9, 11984, Note_on_c, 6, 62, 50
9, 11985, Note_on_c, 6, 67, 57
9, 11986, Note_on_c, 6, 55, 66
9, 12098, Control_c, 6, 64, 127
9, 12117, Note_on_c, 6, 67, 0
9, 12124, Note_on_c, 6, 62, 0
9, 12143, Note_on_c, 6, 55, 0
9, 12143, Control_c, 6, 123, 0
9, 12205, Control_c, 6, 64, 0
9, 12227, Note_on_c, 6, 60, 16
9, 12229, Note_on_c, 6, 48, 44
9, 12230, Note_on_c, 6, 64, 34
9, 12367, Control_c, 6, 64, 127
9, 12423, Note_on_c, 6, 48, 0
9, 12426, Note_on_c, 6, 60, 0
9, 12427, Note_on_c, 6, 64, 0
9, 12428, Control_c, 6, 123, 0
9, 12473, Note_on_c, 6, 48, 53
9, 12476, Note_on_c, 6, 60, 44
9, 12477, Control_c, 6, 64, 0
9, 12478, Note_on_c, 6, 64, 60
9, 12532, Control_c, 6, 64, 127
9, 12575, Note_on_c, 6, 60, 0
9, 12577, Note_on_c, 6, 64, 0
9, 12597, Note_on_c, 6, 48, 0
9, 12598, Control_c, 6, 123, 0
9, 12707, Note_on_c, 6, 67, 59
9, 12707, Control_c, 6, 64, 0
9, 12707, Note_on_c, 6, 62, 50
9, 12708, Note_on_c, 6, 55, 51
9, 12813, Control_c, 6, 64, 127
9, 12859, Note_on_c, 6, 62, 0
9, 12860, Note_on_c, 6, 67, 0
9, 12876, Note_on_c, 6, 55, 0
9, 12877, Control_c, 6, 123, 0
9, 12944, Control_c, 6, 64, 0
9, 12949, Note_on_c, 6, 53, 71
9, 12952, Note_on_c, 6, 60, 58
9, 12953, Note_on_c, 6, 65, 73
9, 13081, Control_c, 6, 64, 127
9, 13114, Note_on_c, 6, 65, 0
9, 13131, Note_on_c, 6, 53, 0
9, 13144, Note_on_c, 6, 60, 0
9, 13145, Control_c, 6, 123, 0
9, 13177, Control_c, 6, 64, 0
9, 13179, Note_on_c, 6, 60, 20
9, 13181, Note_on_c, 6, 64, 51
9, 13182, Note_on_c, 6, 48, 48
9, 13313, Control_c, 6, 64, 127
9, 13357, Note_on_c, 6, 60, 0
9, 13376, Note_on_c, 6, 48, 0
9, 13382, Note_on_c, 6, 64, 0
9, 13383, Control_c, 6, 123, 0
9, 13430, Note_on_c, 6, 60, 83
9, 13432, Note_on_c, 6, 48, 56
9, 13433, Control_c, 6, 64, 0
9, 13559, Control_c, 6, 64, 127
9, 13618, Note_on_c, 6, 48, 0
9, 13629, Note_on_c, 6, 60, 0
9, 13630, Control_c, 6, 123, 0
9, 13918, Note_on_c, 6, 60, 24
9, 13923, Note_on_c, 6, 67, 81
9, 13937, Note_on_c, 6, 60, 0
9, 13950, Control_c, 6, 64, 0
9, 13954, Note_on_c, 6, 62, 83
9, 13985, Control_c, 6, 64, 127
9, 14053, Note_on_c, 6, 67, 0
9, 14070, Note_on_c, 6, 62, 0
9, 14071, Control_c, 6, 123, 0
9, 14135, Control_c, 6, 64, 0
9, 14140, Note_on_c, 6, 60, 46
9, 14142, Note_on_c, 6, 64, 73
9, 14142, Note_on_c, 6, 48, 33
9, 14256, Control_c, 6, 64, 127
9, 14319, Note_on_c, 6, 60, 0
9, 14332, Note_on_c, 6, 48, 0
9, 14345, Note_on_c, 6, 64, 0
9, 14345, Control_c, 6, 123, 0
9, 14382, Control_c, 6, 64, 0
9, 14386, Note_on_c, 6, 60, 80
9, 14386, Note_on_c, 6, 48, 65
9, 14449, Control_c, 6, 64, 127
9, 14501, Note_on_c, 6, 60, 0
9, 14580, Note_on_c, 6, 48, 0
9, 14581, Control_c, 6, 123, 0
9, 14614, Control_c, 6, 64, 0
9, 14624, Note_on_c, 6, 67, 60
9, 14624, Note_on_c, 6, 62, 57
9, 14626, Note_on_c, 6, 55, 66
9, 14751, Control_c, 6, 64, 127
9, 14785, Note_on_c, 6, 62, 0
9, 14791, Note_on_c, 6, 67, 0
9, 14814, Note_on_c, 6, 55, 0
9, 14815, Control_c, 6, 123, 0
9, 14855, Control_c, 6, 64, 0
9, 14868, Note_on_c, 6, 53, 58
9, 14868, Note_on_c, 6, 60, 36
9, 14869, Note_on_c, 6, 65, 44
9, 14999, Control_c, 6, 64, 127
9, 15025, Note_on_c, 6, 65, 0
9, 15044, Note_on_c, 6, 53, 0
9, 15103, Control_c, 6, 64, 0
9, 15116, Note_on_c, 6, 48, 21
9, 15117, Note_on_c, 6, 64, 32
9, 15249, Control_c, 6, 64, 127
9, 15317, Note_on_c, 6, 48, 0
9, 15331, Note_on_c, 6, 64, 0
9, 15335, Note_on_c, 6, 60, 0
9, 15336, Control_c, 6, 123, 0
9, 15345, Control_c, 6, 64, 0
9, 15353, Note_on_c, 6, 60, 28
9, 15353, Note_on_c, 6, 48, 54
9, 15354, Note_on_c, 6, 64, 59
9, 15393, Control_c, 6, 64, 127
9, 15474, Note_on_c, 6, 60, 0
9, 15476, Note_on_c, 6, 64, 0
9, 15510, Note_on_c, 6, 48, 0
9, 15511, Control_c, 6, 123, 0
9, 15574, Control_c, 6, 64, 0
9, 15583, Note_on_c, 6, 67, 51
9, 15585, Note_on_c, 6, 62, 55
9, 15586, Note_on_c, 6, 55, 58
9, 15707, Control_c, 6, 64, 127
9, 15739, Note_on_c, 6, 62, 0
9, 15755, Note_on_c, 6, 67, 0
9, 15782, Note_on_c, 6, 55, 0
9, 15783, Control_c, 6, 123, 0
9, 15820, Note_on_c, 6, 53, 63
9, 15820, Note_on_c, 6, 60, 26
9, 15822, Note_on_c, 6, 65, 43
9, 15825, Control_c, 6, 64, 0
9, 15945, Control_c, 6, 64, 127
9, 15980, Note_on_c, 6, 65, 0
9, 15991, Note_on_c, 6, 53, 0
9, 16053, Control_c, 6, 64, 0
9, 16060, Note_on_c, 6, 64, 33
9, 16061, Note_on_c, 6, 48, 42
9, 16385, Note_on_c, 6, 64, 0
9, 16582, Note_on_c, 6, 48, 0
9, 16590, Note_on_c, 6, 60, 0
9, 16591, Control_c, 6, 123, 0
9, 16591, End_track
10, 0, Start_track
10, 0, MIDI_port, 0
10, 0, Title_t, "SEQUENCE - JIM HUFF"
10, 0, End_track
11, 0, Start_track
11, 0, MIDI_port, 0
11, 0, Title_t, "jhuff@arinc.com"
11, 0, End_track
0, 0, End_of_file
