0, 0, Header, 1, 17, 192
1, 0, Start_track
1, 0, Tempo, 845070
1, 0, Time_signature, 4, 2, 24, 8
1, 0, Key_signature, 0, "major"
1, 18432, Time_signature, 3, 2, 24, 8
1, 19584, Time_signature, 4, 2, 24, 8
1, 32640, Time_signature, 3, 2, 24, 8
1, 33792, Time_signature, 4, 2, 24, 8
1, 37632, Tempo, 923070
1, 37632, Time_signature, 2, 2, 24, 8
1, 37824, Tempo, 1016940
1, 38016, Time_signature, 4, 2, 24, 8
1, 38784, Tempo, 851060
1, 44496, Tempo, 937500
1, 44736, Tempo, 1000000
1, 44928, Tempo, 882350
1, 50304, Tempo, 860210
1, 50304, Time_signature, 3, 2, 24, 8
1, 51456, Time_signature, 4, 2, 24, 8
1, 52992, Time_signature, 3, 2, 24, 8
1, 53568, Time_signature, 4, 2, 24, 8
1, 54336, Tempo, 869560
1, 56256, Tempo, 1000000
1, 56352, Tempo, 1153840
1, 56448, Tempo, 1463410
1, 56640, Tempo, 882350
1, 56640, Time_signature, 3, 2, 24, 8
1, 56928, Tempo, 909090
1, 57216, Tempo, 895520
1, 57408, Tempo, 1176470
1, 57600, Tempo, 1500000
1, 57600, End_track
2, 0, Start_track
2, 0, Title_t, "Bass"
2, 0, Channel_prefix, 0
2, 0, Control_c, 0, 7, 127
2, 0, Control_c, 0, 10, 64
2, 0, Program_c, 0, 35
2, 40, Control_c, 0, 121, 0
2, 48, Control_c, 0, 11, 114
2, 64, Control_c, 0, 91, 20
2, 72, Control_c, 0, 93, 0
2, 1536, Control_c, 0, 10, 64
2, 1536, Control_c, 0, 7, 127
2, 1536, Program_c, 0, 35
2, 2303, Note_on_c, 0, 27, 95
2, 2684, Note_off_c, 0, 27, 0
2, 2686, Note_on_c, 0, 28, 96
2, 3075, Note_on_c, 0, 29, 88
2, 3076, Note_off_c, 0, 28, 0
2, 3846, Note_off_c, 0, 29, 0
2, 9982, Note_on_c, 0, 36, 83
2, 10240, Note_off_c, 0, 36, 0
2, 10273, Note_on_c, 0, 36, 83
2, 10627, Note_off_c, 0, 36, 0
2, 10657, Note_on_c, 0, 36, 80
2, 10753, Note_on_c, 0, 38, 81
2, 10760, Note_off_c, 0, 36, 0
2, 11002, Note_off_c, 0, 38, 0
2, 11041, Note_on_c, 0, 38, 80
2, 11135, Note_on_c, 0, 43, 80
2, 11137, Note_off_c, 0, 38, 0
2, 11329, Note_on_c, 0, 31, 81
2, 11354, Note_off_c, 0, 43, 0
2, 11511, Note_off_c, 0, 31, 0
2, 11519, Note_on_c, 0, 32, 83
2, 11880, Note_off_c, 0, 32, 0
2, 11903, Note_on_c, 0, 32, 80
2, 12097, Note_on_c, 0, 31, 81
2, 12106, Note_off_c, 0, 32, 0
2, 12281, Note_off_c, 0, 31, 0
2, 12288, Note_on_c, 0, 29, 84
2, 12673, Note_on_c, 0, 41, 84
2, 13006, Note_off_c, 0, 41, 0
2, 13010, Note_off_c, 0, 29, 0
2, 13056, Note_on_c, 0, 34, 93
2, 13302, Note_off_c, 0, 34, 0
2, 13344, Note_on_c, 0, 34, 92
2, 13440, Note_on_c, 0, 36, 95
2, 13443, Note_off_c, 0, 34, 0
2, 13694, Note_off_c, 0, 36, 0
2, 13726, Note_on_c, 0, 36, 92
2, 13821, Note_on_c, 0, 38, 94
2, 13826, Note_off_c, 0, 36, 0
2, 14059, Note_off_c, 0, 38, 0
2, 14110, Note_on_c, 0, 38, 95
2, 14209, Note_off_c, 0, 38, 0
2, 14210, Note_on_c, 0, 39, 92
2, 14462, Note_off_c, 0, 39, 0
2, 14494, Note_on_c, 0, 39, 94
2, 14592, Note_on_c, 0, 41, 95
2, 14596, Note_off_c, 0, 39, 0
2, 14867, Note_off_c, 0, 41, 0
2, 14881, Note_on_c, 0, 41, 94
2, 14962, Note_off_c, 0, 41, 0
2, 14978, Note_on_c, 0, 41, 92
2, 15166, Note_on_c, 0, 29, 94
2, 15357, Note_on_c, 0, 34, 92
2, 15367, Note_off_c, 0, 29, 0
2, 15373, Note_off_c, 0, 41, 0
2, 15622, Note_off_c, 0, 34, 0
2, 15649, Note_on_c, 0, 34, 93
2, 15742, Note_off_c, 0, 34, 0
2, 15744, Note_on_c, 0, 29, 94
2, 15937, Note_on_c, 0, 41, 94
2, 16128, Note_on_c, 0, 34, 93
2, 16150, Note_off_c, 0, 29, 0
2, 16155, Note_off_c, 0, 41, 0
2, 16377, Note_off_c, 0, 34, 0
2, 16416, Note_on_c, 0, 34, 93
2, 16512, Note_on_c, 0, 36, 95
2, 16516, Note_off_c, 0, 34, 0
2, 16758, Note_off_c, 0, 36, 0
2, 16800, Note_on_c, 0, 36, 95
2, 16895, Note_on_c, 0, 38, 92
2, 16904, Note_off_c, 0, 36, 0
2, 17123, Note_off_c, 0, 38, 0
2, 17186, Note_on_c, 0, 38, 92
2, 17277, Note_on_c, 0, 43, 96
2, 17289, Note_off_c, 0, 38, 0
2, 17473, Note_on_c, 0, 31, 96
2, 17663, Note_on_c, 0, 36, 94
2, 17666, Note_off_c, 0, 31, 0
2, 17669, Note_off_c, 0, 43, 0
2, 17942, Note_off_c, 0, 36, 0
2, 17953, Note_on_c, 0, 38, 92
2, 18048, Note_on_c, 0, 39, 96
2, 18058, Note_off_c, 0, 38, 0
2, 18239, Note_on_c, 0, 41, 96
2, 18243, Note_off_c, 0, 39, 0
2, 18432, Note_on_c, 0, 34, 95
2, 18435, Note_off_c, 0, 41, 0
2, 18561, Note_off_c, 0, 34, 0
2, 18577, Note_on_c, 0, 33, 96
2, 18626, Note_on_c, 0, 34, 93
2, 18629, Note_off_c, 0, 33, 0
2, 18720, Note_on_c, 0, 36, 92
2, 18728, Note_off_c, 0, 34, 0
2, 18816, Note_on_c, 0, 38, 96
2, 18817, Note_off_c, 0, 36, 0
2, 18994, Note_off_c, 0, 38, 0
2, 19009, Note_on_c, 0, 31, 95
2, 19151, Note_on_c, 0, 29, 92
2, 19156, Note_off_c, 0, 31, 0
2, 19197, Note_on_c, 0, 31, 93
2, 19202, Note_off_c, 0, 29, 0
2, 19288, Note_off_c, 0, 31, 0
2, 19298, Note_on_c, 0, 33, 96
2, 19390, Note_on_c, 0, 34, 95
2, 19404, Note_off_c, 0, 33, 0
2, 19584, Note_on_c, 0, 39, 95
2, 19586, Note_off_c, 0, 34, 0
2, 19840, Note_off_c, 0, 39, 0
2, 19873, Note_on_c, 0, 39, 94
2, 19966, Note_on_c, 0, 40, 93
2, 19976, Note_off_c, 0, 39, 0
2, 20230, Note_off_c, 0, 40, 0
2, 20255, Note_on_c, 0, 40, 93
2, 20351, Note_on_c, 0, 41, 92
2, 20354, Note_off_c, 0, 40, 0
2, 20727, Note_off_c, 0, 41, 0
2, 20735, Note_on_c, 0, 43, 92
2, 20927, Note_on_c, 0, 31, 97
2, 20929, Note_off_c, 0, 43, 0
2, 21111, Note_off_c, 0, 31, 0
2, 21120, Note_on_c, 0, 24, 103
2, 21332, Note_off_c, 0, 24, 0
2, 21408, Note_on_c, 0, 26, 103
2, 21504, Note_on_c, 0, 28, 103
2, 21508, Note_off_c, 0, 26, 0
2, 21820, Note_off_c, 0, 28, 0
2, 21888, Note_on_c, 0, 33, 89
2, 22106, Note_off_c, 0, 33, 0
2, 22176, Note_on_c, 0, 35, 89
2, 22272, Note_off_c, 0, 35, 0
2, 22272, Note_on_c, 0, 36, 89
2, 22429, Note_off_c, 0, 36, 0
2, 22464, Note_on_c, 0, 28, 89
2, 22647, Note_off_c, 0, 28, 0
2, 22656, Note_on_c, 0, 29, 89
2, 22900, Note_off_c, 0, 29, 0
2, 22944, Note_on_c, 0, 29, 89
2, 23040, Note_on_c, 0, 30, 89
2, 23048, Note_off_c, 0, 29, 0
2, 23364, Note_off_c, 0, 30, 0
2, 23424, Note_on_c, 0, 31, 89
2, 23676, Note_off_c, 0, 31, 0
2, 23712, Note_on_c, 0, 31, 89
2, 23761, Note_off_c, 0, 31, 0
2, 23808, Note_on_c, 0, 31, 89
2, 23952, Note_on_c, 0, 38, 89
2, 23961, Note_off_c, 0, 31, 0
2, 24000, Note_on_c, 0, 43, 80
2, 24013, Note_off_c, 0, 38, 0
2, 24048, Note_on_c, 0, 38, 89
2, 24053, Note_off_c, 0, 43, 0
2, 24096, Note_on_c, 0, 31, 89
2, 24111, Note_off_c, 0, 38, 0
2, 24192, Note_on_c, 0, 36, 89
2, 24195, Note_off_c, 0, 31, 0
2, 24436, Note_off_c, 0, 36, 0
2, 24480, Note_on_c, 0, 38, 89
2, 24568, Note_off_c, 0, 38, 0
2, 24576, Note_on_c, 0, 40, 89
2, 24883, Note_off_c, 0, 40, 0
2, 24960, Note_on_c, 0, 33, 89
2, 25184, Note_off_c, 0, 33, 0
2, 25248, Note_on_c, 0, 35, 89
2, 25335, Note_off_c, 0, 35, 0
2, 25344, Note_on_c, 0, 36, 89
2, 25522, Note_off_c, 0, 36, 0
2, 25536, Note_on_c, 0, 28, 89
2, 25723, Note_off_c, 0, 28, 0
2, 25728, Note_on_c, 0, 29, 89
2, 25963, Note_off_c, 0, 29, 0
2, 26016, Note_on_c, 0, 29, 89
2, 26112, Note_on_c, 0, 30, 89
2, 26122, Note_off_c, 0, 29, 0
2, 26437, Note_off_c, 0, 30, 0
2, 26496, Note_on_c, 0, 31, 89
2, 26688, Note_on_c, 0, 38, 89
2, 26702, Note_off_c, 0, 31, 0
2, 26880, Note_on_c, 0, 43, 80
2, 26886, Note_off_c, 0, 38, 0
2, 27072, Note_off_c, 0, 43, 0
2, 27072, Note_on_c, 0, 38, 89
2, 27259, Note_off_c, 0, 38, 0
2, 27264, Note_on_c, 0, 36, 93
2, 27510, Note_off_c, 0, 36, 0
2, 27552, Note_on_c, 0, 36, 92
2, 27648, Note_on_c, 0, 38, 95
2, 27651, Note_off_c, 0, 36, 0
2, 27902, Note_off_c, 0, 38, 0
2, 27934, Note_on_c, 0, 38, 92
2, 28029, Note_on_c, 0, 40, 94
2, 28034, Note_off_c, 0, 38, 0
2, 28267, Note_off_c, 0, 40, 0
2, 28318, Note_on_c, 0, 40, 95
2, 28417, Note_off_c, 0, 40, 0
2, 28418, Note_on_c, 0, 41, 92
2, 28670, Note_off_c, 0, 41, 0
2, 28702, Note_on_c, 0, 41, 94
2, 28800, Note_on_c, 0, 43, 95
2, 28804, Note_off_c, 0, 41, 0
2, 29075, Note_off_c, 0, 43, 0
2, 29089, Note_on_c, 0, 43, 94
2, 29170, Note_off_c, 0, 43, 0
2, 29186, Note_on_c, 0, 43, 92
2, 29374, Note_on_c, 0, 31, 94
2, 29568, Note_on_c, 0, 36, 92
2, 29575, Note_off_c, 0, 31, 0
2, 29581, Note_off_c, 0, 43, 0
2, 29832, Note_off_c, 0, 36, 0
2, 29856, Note_on_c, 0, 36, 93
2, 29949, Note_off_c, 0, 36, 0
2, 29952, Note_on_c, 0, 34, 92
2, 30142, Note_off_c, 0, 34, 0
2, 30144, Note_on_c, 0, 31, 97
2, 30336, Note_on_c, 0, 36, 93
2, 30338, Note_off_c, 0, 31, 0
2, 30585, Note_off_c, 0, 36, 0
2, 30624, Note_on_c, 0, 36, 93
2, 30720, Note_on_c, 0, 38, 95
2, 30724, Note_off_c, 0, 36, 0
2, 30966, Note_off_c, 0, 38, 0
2, 31008, Note_on_c, 0, 38, 95
2, 31103, Note_on_c, 0, 40, 92
2, 31112, Note_off_c, 0, 38, 0
2, 31331, Note_off_c, 0, 40, 0
2, 31394, Note_on_c, 0, 40, 92
2, 31485, Note_on_c, 0, 45, 96
2, 31497, Note_off_c, 0, 40, 0
2, 31681, Note_on_c, 0, 33, 96
2, 31871, Note_on_c, 0, 38, 94
2, 31874, Note_off_c, 0, 33, 0
2, 31877, Note_off_c, 0, 45, 0
2, 32150, Note_off_c, 0, 38, 0
2, 32161, Note_on_c, 0, 40, 92
2, 32256, Note_on_c, 0, 41, 92
2, 32266, Note_off_c, 0, 40, 0
2, 32447, Note_on_c, 0, 43, 92
2, 32451, Note_off_c, 0, 41, 0
2, 32639, Note_on_c, 0, 36, 92
2, 32643, Note_off_c, 0, 43, 0
2, 32887, Note_off_c, 0, 36, 0
2, 32928, Note_on_c, 0, 38, 92
2, 33000, Note_off_c, 0, 38, 0
2, 33024, Note_on_c, 0, 40, 92
2, 33188, Note_off_c, 0, 40, 0
2, 33215, Note_on_c, 0, 33, 92
2, 33454, Note_off_c, 0, 33, 0
2, 33504, Note_on_c, 0, 35, 92
2, 33559, Note_off_c, 0, 35, 0
2, 33601, Note_on_c, 0, 36, 92
2, 33770, Note_off_c, 0, 36, 0
2, 33792, Note_on_c, 0, 29, 92
2, 34176, Note_on_c, 0, 30, 92
2, 34184, Note_off_c, 0, 29, 0
2, 34560, Note_on_c, 0, 31, 92
2, 34572, Note_off_c, 0, 30, 0
2, 34944, Note_on_c, 0, 32, 92
2, 34948, Note_off_c, 0, 31, 0
2, 35328, Note_on_c, 0, 33, 92
2, 35330, Note_off_c, 0, 32, 0
2, 36062, Note_off_c, 0, 33, 0
2, 36096, Note_on_c, 0, 28, 92
2, 36810, Note_off_c, 0, 28, 0
2, 36864, Note_on_c, 0, 26, 92
2, 37242, Note_off_c, 0, 26, 0
2, 37248, Note_on_c, 0, 26, 92
2, 37626, Note_off_c, 0, 26, 0
2, 37632, Note_on_c, 0, 43, 84
2, 37824, Note_on_c, 0, 38, 88
2, 37837, Note_off_c, 0, 43, 0
2, 38016, Note_on_c, 0, 31, 92
2, 38020, Note_off_c, 0, 38, 0
2, 38760, Note_off_c, 0, 31, 0
2, 38784, Note_on_c, 0, 36, 106
2, 38998, Note_off_c, 0, 36, 0
2, 39072, Note_on_c, 0, 36, 106
2, 39168, Note_on_c, 0, 29, 106
2, 39174, Note_off_c, 0, 36, 0
2, 39482, Note_off_c, 0, 29, 0
2, 39552, Note_on_c, 0, 28, 106
2, 39763, Note_off_c, 0, 28, 0
2, 39840, Note_on_c, 0, 28, 106
2, 39936, Note_on_c, 0, 29, 106
2, 39946, Note_off_c, 0, 28, 0
2, 40141, Note_off_c, 0, 29, 0
2, 40224, Note_on_c, 0, 31, 106
2, 40271, Note_off_c, 0, 31, 0
2, 40272, Note_on_c, 0, 33, 106
2, 40320, Note_on_c, 0, 36, 106
2, 40322, Note_off_c, 0, 33, 0
2, 40516, Note_off_c, 0, 36, 0
2, 40608, Note_on_c, 0, 36, 106
2, 40704, Note_on_c, 0, 31, 106
2, 40706, Note_off_c, 0, 36, 0
2, 40896, Note_on_c, 0, 43, 93
2, 41082, Note_off_c, 0, 43, 0
2, 41084, Note_off_c, 0, 31, 0
2, 41088, Note_on_c, 0, 36, 106
2, 41294, Note_off_c, 0, 36, 0
2, 41376, Note_on_c, 0, 36, 106
2, 41472, Note_on_c, 0, 31, 106
2, 41477, Note_off_c, 0, 36, 0
2, 41664, Note_on_c, 0, 43, 93
2, 41856, Note_on_c, 0, 36, 106
2, 41860, Note_off_c, 0, 43, 0
2, 41872, Note_off_c, 0, 31, 0
2, 42043, Note_off_c, 0, 36, 0
2, 42144, Note_on_c, 0, 36, 106
2, 42240, Note_on_c, 0, 29, 106
2, 42248, Note_off_c, 0, 36, 0
2, 42484, Note_off_c, 0, 29, 0
2, 42624, Note_on_c, 0, 28, 106
2, 42837, Note_off_c, 0, 28, 0
2, 42912, Note_on_c, 0, 31, 106
2, 43007, Note_off_c, 0, 31, 0
2, 43008, Note_on_c, 0, 33, 106
2, 43196, Note_off_c, 0, 33, 0
2, 43200, Note_on_c, 0, 45, 92
2, 43238, Note_off_c, 0, 45, 0
2, 43248, Note_on_c, 0, 43, 92
2, 43288, Note_off_c, 0, 43, 0
2, 43296, Note_on_c, 0, 40, 106
2, 43389, Note_off_c, 0, 40, 0
2, 43392, Note_on_c, 0, 38, 106
2, 43592, Note_off_c, 0, 38, 0
2, 43680, Note_on_c, 0, 38, 106
2, 43776, Note_on_c, 0, 31, 106
2, 43785, Note_off_c, 0, 38, 0
2, 44150, Note_off_c, 0, 31, 0
2, 44160, Note_on_c, 0, 24, 108
2, 44304, Note_on_c, 0, 36, 67
2, 44494, Note_off_c, 0, 24, 0
2, 44544, Note_on_c, 0, 24, 108
2, 44571, Note_off_c, 0, 36, 0
2, 44689, Note_off_c, 0, 24, 0
2, 44736, Note_on_c, 0, 24, 108
2, 44878, Note_off_c, 0, 24, 0
2, 44928, Note_on_c, 0, 25, 106
2, 45178, Note_off_c, 0, 25, 0
2, 45216, Note_on_c, 0, 25, 106
2, 45263, Note_on_c, 0, 29, 106
2, 45264, Note_off_c, 0, 25, 0
2, 45310, Note_off_c, 0, 29, 0
2, 45312, Note_on_c, 0, 30, 106
2, 45664, Note_off_c, 0, 30, 0
2, 45696, Note_on_c, 0, 29, 106
2, 45955, Note_off_c, 0, 29, 0
2, 45984, Note_on_c, 0, 29, 106
2, 46012, Note_off_c, 0, 29, 0
2, 46032, Note_on_c, 0, 29, 106
2, 46080, Note_on_c, 0, 30, 106
2, 46084, Note_off_c, 0, 29, 0
2, 46435, Note_off_c, 0, 30, 0
2, 46464, Note_on_c, 0, 37, 106
2, 46724, Note_off_c, 0, 37, 0
2, 46752, Note_on_c, 0, 44, 90
2, 46848, Note_on_c, 0, 32, 106
2, 46850, Note_off_c, 0, 44, 0
2, 47040, Note_on_c, 0, 44, 93
2, 47226, Note_off_c, 0, 44, 0
2, 47228, Note_off_c, 0, 32, 0
2, 47232, Note_on_c, 0, 37, 106
2, 47490, Note_off_c, 0, 37, 0
2, 47520, Note_on_c, 0, 29, 106
2, 47562, Note_off_c, 0, 29, 0
2, 47568, Note_on_c, 0, 30, 106
2, 47613, Note_off_c, 0, 30, 0
2, 47616, Note_on_c, 0, 32, 106
2, 47808, Note_on_c, 0, 44, 93
2, 48000, Note_on_c, 0, 37, 106
2, 48004, Note_off_c, 0, 44, 0
2, 48016, Note_off_c, 0, 32, 0
2, 48247, Note_off_c, 0, 37, 0
2, 48288, Note_on_c, 0, 37, 106
2, 48384, Note_on_c, 0, 30, 106
2, 48392, Note_off_c, 0, 37, 0
2, 48640, Note_off_c, 0, 30, 0
2, 48672, Note_on_c, 0, 30, 106
2, 48768, Note_on_c, 0, 29, 106
2, 48776, Note_off_c, 0, 30, 0
2, 48981, Note_off_c, 0, 29, 0
2, 49008, Note_on_c, 0, 29, 106
2, 49025, Note_off_c, 0, 29, 0
2, 49056, Note_on_c, 0, 32, 106
2, 49151, Note_off_c, 0, 32, 0
2, 49152, Note_on_c, 0, 34, 106
2, 49344, Note_on_c, 0, 46, 92
2, 49524, Note_off_c, 0, 46, 0
2, 49528, Note_off_c, 0, 34, 0
2, 49536, Note_on_c, 0, 27, 106
2, 49792, Note_off_c, 0, 27, 0
2, 49824, Note_on_c, 0, 29, 106
2, 49920, Note_on_c, 0, 30, 106
2, 49929, Note_off_c, 0, 29, 0
2, 50106, Note_off_c, 0, 30, 0
2, 50110, Note_on_c, 0, 32, 106
2, 50294, Note_off_c, 0, 32, 0
2, 50303, Note_on_c, 0, 37, 92
2, 50436, Note_off_c, 0, 37, 0
2, 50448, Note_on_c, 0, 37, 92
2, 50488, Note_off_c, 0, 37, 0
2, 50496, Note_on_c, 0, 37, 92
2, 50561, Note_off_c, 0, 37, 0
2, 50592, Note_on_c, 0, 39, 92
2, 50664, Note_off_c, 0, 39, 0
2, 50688, Note_on_c, 0, 41, 92
2, 50852, Note_off_c, 0, 41, 0
2, 50879, Note_on_c, 0, 34, 92
2, 51012, Note_off_c, 0, 34, 0
2, 51024, Note_on_c, 0, 34, 92
2, 51064, Note_off_c, 0, 34, 0
2, 51072, Note_on_c, 0, 34, 92
2, 51128, Note_off_c, 0, 34, 0
2, 51168, Note_on_c, 0, 36, 92
2, 51223, Note_off_c, 0, 36, 0
2, 51265, Note_on_c, 0, 37, 92
2, 51434, Note_off_c, 0, 37, 0
2, 51455, Note_on_c, 0, 30, 92
2, 51588, Note_off_c, 0, 30, 0
2, 51600, Note_on_c, 0, 30, 92
2, 51640, Note_off_c, 0, 30, 0
2, 51648, Note_on_c, 0, 30, 92
2, 51704, Note_off_c, 0, 30, 0
2, 51744, Note_on_c, 0, 30, 92
2, 51826, Note_off_c, 0, 30, 0
2, 51839, Note_on_c, 0, 31, 92
2, 51972, Note_off_c, 0, 31, 0
2, 51984, Note_on_c, 0, 31, 92
2, 52024, Note_off_c, 0, 31, 0
2, 52032, Note_on_c, 0, 31, 92
2, 52088, Note_off_c, 0, 31, 0
2, 52128, Note_on_c, 0, 31, 92
2, 52210, Note_off_c, 0, 31, 0
2, 52223, Note_on_c, 0, 32, 92
2, 52356, Note_off_c, 0, 32, 0
2, 52368, Note_on_c, 0, 32, 92
2, 52408, Note_off_c, 0, 32, 0
2, 52416, Note_on_c, 0, 32, 92
2, 52472, Note_off_c, 0, 32, 0
2, 52512, Note_on_c, 0, 32, 92
2, 52594, Note_off_c, 0, 32, 0
2, 52607, Note_on_c, 0, 32, 92
2, 52740, Note_off_c, 0, 32, 0
2, 52752, Note_on_c, 0, 32, 92
2, 52792, Note_off_c, 0, 32, 0
2, 52800, Note_on_c, 0, 32, 92
2, 52856, Note_off_c, 0, 32, 0
2, 52896, Note_on_c, 0, 32, 92
2, 52988, Note_off_c, 0, 32, 0
2, 52991, Note_on_c, 0, 37, 92
2, 53124, Note_off_c, 0, 37, 0
2, 53136, Note_on_c, 0, 37, 92
2, 53176, Note_off_c, 0, 37, 0
2, 53184, Note_on_c, 0, 37, 92
2, 53249, Note_off_c, 0, 37, 0
2, 53280, Note_on_c, 0, 39, 92
2, 53352, Note_off_c, 0, 39, 0
2, 53376, Note_on_c, 0, 41, 92
2, 53540, Note_off_c, 0, 41, 0
2, 53567, Note_on_c, 0, 34, 92
2, 53700, Note_off_c, 0, 34, 0
2, 53712, Note_on_c, 0, 34, 92
2, 53752, Note_off_c, 0, 34, 0
2, 53760, Note_on_c, 0, 34, 92
2, 53816, Note_off_c, 0, 34, 0
2, 53856, Note_on_c, 0, 36, 92
2, 53911, Note_off_c, 0, 36, 0
2, 53953, Note_on_c, 0, 37, 92
2, 54320, Note_off_c, 0, 37, 0
2, 54336, Note_on_c, 0, 42, 96
2, 54687, Note_off_c, 0, 42, 0
2, 54720, Note_on_c, 0, 44, 96
2, 54912, Note_on_c, 0, 32, 74
2, 55104, Note_on_c, 0, 37, 96
2, 55106, Note_off_c, 0, 32, 0
2, 55120, Note_off_c, 0, 44, 0
2, 55864, Note_off_c, 0, 37, 0
2, 55872, Note_on_c, 0, 42, 96
2, 56156, Note_off_c, 0, 42, 0
2, 56160, Note_on_c, 0, 41, 96
2, 56256, Note_on_c, 0, 39, 96
2, 56266, Note_off_c, 0, 41, 0
2, 56304, Note_on_c, 0, 37, 96
2, 56314, Note_off_c, 0, 39, 0
2, 56340, Note_off_c, 0, 37, 0
2, 56352, Note_on_c, 0, 36, 96
2, 56392, Note_off_c, 0, 36, 0
2, 56400, Note_on_c, 0, 34, 96
2, 56438, Note_off_c, 0, 34, 0
2, 56448, Note_on_c, 0, 32, 96
2, 56538, Note_off_c, 0, 32, 0
2, 56544, Note_on_c, 0, 32, 96
2, 56636, Note_off_c, 0, 32, 0
2, 56640, Note_on_c, 0, 37, 100
2, 56771, Note_off_c, 0, 37, 0
2, 56784, Note_on_c, 0, 36, 90
2, 56832, Note_on_c, 0, 37, 100
2, 56840, Note_off_c, 0, 36, 0
2, 56888, Note_off_c, 0, 37, 0
2, 56928, Note_on_c, 0, 39, 100
2, 56984, Note_off_c, 0, 39, 0
2, 57024, Note_on_c, 0, 41, 100
2, 57194, Note_off_c, 0, 41, 0
2, 57216, Note_on_c, 0, 34, 100
2, 57345, Note_off_c, 0, 34, 0
2, 57360, Note_on_c, 0, 32, 90
2, 57408, Note_on_c, 0, 34, 100
2, 57415, Note_off_c, 0, 32, 0
2, 57518, Note_off_c, 0, 34, 0
2, 57600, Note_on_c, 0, 36, 100
2, 57708, Note_off_c, 0, 36, 0
2, 57792, Note_on_c, 0, 25, 100
2, 58378, Note_off_c, 0, 25, 0
2, 58952, Control_c, 0, 121, 0
2, 58960, Control_c, 0, 91, 0
2, 58968, Control_c, 0, 93, 0
2, 58968, End_track
3, 0, Start_track
3, 0, Title_t, "El Piano"
3, 0, Channel_prefix, 1
3, 0, Control_c, 1, 7, 100
3, 0, Control_c, 1, 10, 64
3, 0, Program_c, 1, 4
3, 40, Control_c, 1, 121, 0
3, 48, Control_c, 1, 11, 102
3, 64, Control_c, 1, 91, 40
3, 72, Control_c, 1, 93, 30
3, 766, Note_on_c, 1, 70, 108
3, 766, Note_on_c, 1, 74, 123
3, 768, Note_on_c, 1, 65, 108
3, 768, Note_on_c, 1, 58, 99
3, 906, Note_off_c, 1, 58, 0
3, 909, Note_on_c, 1, 57, 99
3, 911, Note_on_c, 1, 72, 123
3, 916, Note_off_c, 1, 74, 0
3, 960, Note_off_c, 1, 57, 0
3, 960, Note_on_c, 1, 58, 99
3, 960, Note_on_c, 1, 74, 123
3, 970, Note_off_c, 1, 72, 0
3, 1054, Note_on_c, 1, 75, 123
3, 1056, Note_on_c, 1, 60, 99
3, 1060, Note_off_c, 1, 58, 0
3, 1062, Note_off_c, 1, 74, 0
3, 1129, Note_off_c, 1, 70, 0
3, 1140, Note_off_c, 1, 65, 0
3, 1150, Note_on_c, 1, 70, 108
3, 1151, Note_on_c, 1, 65, 108
3, 1152, Note_on_c, 1, 62, 99
3, 1152, Note_on_c, 1, 77, 123
3, 1158, Note_off_c, 1, 60, 0
3, 1161, Note_off_c, 1, 75, 0
3, 1503, Note_off_c, 1, 70, 0
3, 1505, Note_off_c, 1, 65, 0
3, 1520, Note_off_c, 1, 77, 0
3, 1521, Note_off_c, 1, 62, 0
3, 1536, Note_on_c, 1, 70, 123
3, 1536, Note_on_c, 1, 55, 99
3, 1537, Note_on_c, 1, 63, 108
3, 1673, Note_off_c, 1, 55, 0
3, 1678, Note_on_c, 1, 53, 99
3, 1681, Note_off_c, 1, 70, 0
3, 1681, Note_on_c, 1, 69, 123
3, 1726, Note_off_c, 1, 53, 0
3, 1728, Note_on_c, 1, 55, 99
3, 1728, Note_on_c, 1, 70, 123
3, 1740, Note_off_c, 1, 69, 0
3, 1819, Note_off_c, 1, 55, 0
3, 1821, Note_on_c, 1, 57, 99
3, 1822, Note_on_c, 1, 72, 123
3, 1836, Note_off_c, 1, 70, 0
3, 1908, Note_off_c, 1, 63, 0
3, 1917, Note_on_c, 1, 74, 123
3, 1920, Note_on_c, 1, 58, 99
3, 1921, Note_on_c, 1, 65, 108
3, 1922, Note_off_c, 1, 57, 0
3, 1929, Note_off_c, 1, 72, 0
3, 2108, Note_off_c, 1, 65, 0
3, 2110, Note_on_c, 1, 50, 99
3, 2114, Note_on_c, 1, 65, 123
3, 2117, Note_off_c, 1, 58, 0
3, 2120, Note_off_c, 1, 74, 0
3, 2293, Note_off_c, 1, 50, 0
3, 2302, Note_off_c, 1, 65, 0
3, 2302, Note_on_c, 1, 58, 108
3, 2302, Note_on_c, 1, 67, 123
3, 2305, Note_on_c, 1, 51, 99
3, 2446, Note_off_c, 1, 67, 0
3, 2448, Note_on_c, 1, 65, 123
3, 2497, Note_on_c, 1, 67, 123
3, 2510, Note_off_c, 1, 65, 0
3, 2591, Note_on_c, 1, 69, 123
3, 2599, Note_off_c, 1, 67, 0
3, 2685, Note_on_c, 1, 60, 108
3, 2688, Note_on_c, 1, 70, 123
3, 2689, Note_off_c, 1, 51, 0
3, 2689, Note_on_c, 1, 52, 99
3, 2695, Note_off_c, 1, 69, 0
3, 2707, Note_off_c, 1, 58, 0
3, 2977, Note_on_c, 1, 72, 123
3, 2988, Note_off_c, 1, 70, 0
3, 3068, Note_off_c, 1, 72, 0
3, 3071, Note_on_c, 1, 53, 99
3, 3072, Note_on_c, 1, 72, 123
3, 3072, Note_on_c, 1, 63, 108
3, 3074, Note_on_c, 1, 70, 108
3, 3077, Note_off_c, 1, 60, 0
3, 3085, Note_off_c, 1, 52, 0
3, 3455, Note_on_c, 1, 69, 108
3, 3465, Note_off_c, 1, 70, 0
3, 3549, Control_c, 1, 11, 102
3, 3563, Control_c, 1, 11, 101
3, 3577, Control_c, 1, 11, 100
3, 3590, Control_c, 1, 11, 99
3, 3604, Control_c, 1, 11, 98
3, 3618, Control_c, 1, 11, 96
3, 3632, Control_c, 1, 11, 95
3, 3646, Control_c, 1, 11, 94
3, 3660, Control_c, 1, 11, 93
3, 3674, Control_c, 1, 11, 92
3, 3688, Control_c, 1, 11, 91
3, 3702, Control_c, 1, 11, 90
3, 3715, Control_c, 1, 11, 88
3, 3729, Control_c, 1, 11, 87
3, 3743, Control_c, 1, 11, 86
3, 3757, Control_c, 1, 11, 85
3, 3794, Note_off_c, 1, 69, 0
3, 3816, Note_off_c, 1, 72, 0
3, 3817, Note_off_c, 1, 63, 0
3, 3819, Note_off_c, 1, 53, 0
3, 3838, Note_on_c, 1, 70, 107
3, 3838, Note_on_c, 1, 74, 121
3, 3840, Note_on_c, 1, 65, 107
3, 3840, Note_on_c, 1, 58, 98
3, 4114, Note_off_c, 1, 58, 0
3, 4124, Note_off_c, 1, 74, 0
3, 4126, Note_on_c, 1, 75, 121
3, 4128, Note_on_c, 1, 60, 98
3, 4201, Note_off_c, 1, 70, 0
3, 4212, Note_off_c, 1, 65, 0
3, 4222, Note_on_c, 1, 70, 107
3, 4223, Note_on_c, 1, 65, 107
3, 4224, Note_on_c, 1, 62, 98
3, 4224, Note_on_c, 1, 77, 121
3, 4230, Note_off_c, 1, 60, 0
3, 4233, Note_off_c, 1, 75, 0
3, 4575, Note_off_c, 1, 70, 0
3, 4577, Note_off_c, 1, 65, 0
3, 4592, Note_off_c, 1, 77, 0
3, 4593, Note_off_c, 1, 62, 0
3, 4608, Note_on_c, 1, 70, 121
3, 4608, Note_on_c, 1, 55, 98
3, 4609, Note_on_c, 1, 63, 107
3, 4881, Note_off_c, 1, 55, 0
3, 4889, Note_off_c, 1, 70, 0
3, 4893, Note_on_c, 1, 57, 98
3, 4894, Note_on_c, 1, 72, 121
3, 4980, Note_off_c, 1, 63, 0
3, 4989, Note_on_c, 1, 74, 121
3, 4992, Note_on_c, 1, 58, 98
3, 4993, Note_on_c, 1, 65, 107
3, 4994, Note_off_c, 1, 57, 0
3, 5001, Note_off_c, 1, 72, 0
3, 5180, Note_off_c, 1, 65, 0
3, 5182, Note_on_c, 1, 50, 98
3, 5186, Note_on_c, 1, 65, 121
3, 5189, Note_off_c, 1, 58, 0
3, 5192, Note_off_c, 1, 74, 0
3, 5365, Note_off_c, 1, 50, 0
3, 5374, Note_off_c, 1, 65, 0
3, 5374, Note_on_c, 1, 58, 107
3, 5374, Note_on_c, 1, 67, 121
3, 5377, Note_on_c, 1, 51, 98
3, 5659, Note_off_c, 1, 67, 0
3, 5663, Note_on_c, 1, 69, 121
3, 5757, Note_on_c, 1, 60, 107
3, 5760, Note_on_c, 1, 70, 121
3, 5761, Note_off_c, 1, 51, 0
3, 5761, Note_on_c, 1, 52, 98
3, 5767, Note_off_c, 1, 69, 0
3, 5779, Note_off_c, 1, 58, 0
3, 6049, Note_on_c, 1, 72, 121
3, 6060, Note_off_c, 1, 70, 0
3, 6140, Note_off_c, 1, 72, 0
3, 6141, Note_on_c, 1, 53, 98
3, 6143, Note_on_c, 1, 70, 107
3, 6145, Note_on_c, 1, 65, 107
3, 6146, Note_on_c, 1, 74, 121
3, 6149, Note_off_c, 1, 60, 0
3, 6157, Note_off_c, 1, 52, 0
3, 6520, Note_off_c, 1, 70, 0
3, 6522, Note_off_c, 1, 74, 0
3, 6525, Note_off_c, 1, 53, 0
3, 6528, Note_on_c, 1, 72, 121
3, 6530, Note_on_c, 1, 69, 107
3, 6531, Note_on_c, 1, 53, 98
3, 6887, Note_off_c, 1, 65, 0
3, 6901, Note_off_c, 1, 69, 0
3, 6901, Note_off_c, 1, 53, 0
3, 6902, Note_off_c, 1, 72, 0
3, 6910, Note_on_c, 1, 70, 107
3, 6910, Note_on_c, 1, 74, 121
3, 6912, Note_on_c, 1, 65, 107
3, 6912, Note_on_c, 1, 58, 98
3, 7186, Note_off_c, 1, 58, 0
3, 7196, Note_off_c, 1, 74, 0
3, 7198, Note_on_c, 1, 75, 121
3, 7200, Note_on_c, 1, 60, 98
3, 7273, Note_off_c, 1, 70, 0
3, 7284, Note_off_c, 1, 65, 0
3, 7294, Note_on_c, 1, 70, 107
3, 7295, Note_on_c, 1, 65, 107
3, 7296, Note_on_c, 1, 62, 98
3, 7296, Note_on_c, 1, 77, 121
3, 7302, Note_off_c, 1, 60, 0
3, 7305, Note_off_c, 1, 75, 0
3, 7647, Note_off_c, 1, 70, 0
3, 7649, Note_off_c, 1, 65, 0
3, 7664, Note_off_c, 1, 77, 0
3, 7665, Note_off_c, 1, 62, 0
3, 7680, Note_on_c, 1, 70, 121
3, 7680, Note_on_c, 1, 55, 98
3, 7681, Note_on_c, 1, 63, 107
3, 7953, Note_off_c, 1, 55, 0
3, 7961, Note_off_c, 1, 70, 0
3, 7965, Note_on_c, 1, 57, 98
3, 7966, Note_on_c, 1, 72, 121
3, 8052, Note_off_c, 1, 63, 0
3, 8061, Note_on_c, 1, 74, 121
3, 8064, Note_on_c, 1, 58, 98
3, 8065, Note_on_c, 1, 65, 107
3, 8066, Note_off_c, 1, 57, 0
3, 8073, Note_off_c, 1, 72, 0
3, 8252, Note_off_c, 1, 65, 0
3, 8254, Note_on_c, 1, 50, 98
3, 8258, Note_on_c, 1, 65, 121
3, 8261, Note_off_c, 1, 58, 0
3, 8264, Note_off_c, 1, 74, 0
3, 8437, Note_off_c, 1, 50, 0
3, 8446, Note_off_c, 1, 65, 0
3, 8446, Note_on_c, 1, 58, 107
3, 8446, Note_on_c, 1, 67, 121
3, 8449, Note_on_c, 1, 51, 98
3, 8731, Note_off_c, 1, 67, 0
3, 8735, Note_on_c, 1, 69, 121
3, 8829, Note_on_c, 1, 60, 107
3, 8832, Note_on_c, 1, 70, 121
3, 8833, Note_off_c, 1, 51, 0
3, 8833, Note_on_c, 1, 52, 98
3, 8839, Note_off_c, 1, 69, 0
3, 8851, Note_off_c, 1, 58, 0
3, 9121, Note_on_c, 1, 72, 121
3, 9132, Note_off_c, 1, 70, 0
3, 9212, Note_off_c, 1, 72, 0
3, 9213, Note_on_c, 1, 53, 98
3, 9215, Note_on_c, 1, 70, 107
3, 9217, Note_on_c, 1, 65, 107
3, 9218, Note_on_c, 1, 74, 121
3, 9221, Note_off_c, 1, 60, 0
3, 9229, Note_off_c, 1, 52, 0
3, 9592, Note_off_c, 1, 70, 0
3, 9594, Note_off_c, 1, 74, 0
3, 9597, Note_off_c, 1, 53, 0
3, 9600, Note_on_c, 1, 72, 121
3, 9602, Note_on_c, 1, 69, 107
3, 9603, Note_on_c, 1, 53, 98
3, 9959, Note_off_c, 1, 65, 0
3, 9973, Note_off_c, 1, 69, 0
3, 9973, Note_off_c, 1, 53, 0
3, 9974, Note_off_c, 1, 72, 0
3, 9982, Note_on_c, 1, 63, 115
3, 9983, Note_on_c, 1, 48, 115
3, 9984, Note_on_c, 1, 55, 115
3, 9985, Note_on_c, 1, 58, 115
3, 10018, Control_c, 1, 64, 127
3, 10094, Note_off_c, 1, 55, 0
3, 10100, Note_off_c, 1, 58, 0
3, 10104, Note_off_c, 1, 63, 0
3, 10117, Note_off_c, 1, 48, 0
3, 10272, Note_on_c, 1, 82, 116
3, 10273, Note_on_c, 1, 75, 116
3, 10291, Note_off_c, 1, 82, 0
3, 10292, Note_off_c, 1, 75, 0
3, 10365, Note_on_c, 1, 70, 116
3, 10369, Note_on_c, 1, 79, 116
3, 10387, Note_off_c, 1, 70, 0
3, 10390, Note_off_c, 1, 79, 0
3, 10752, Note_on_c, 1, 65, 115
3, 10752, Note_on_c, 1, 62, 115
3, 10753, Note_on_c, 1, 50, 115
3, 10753, Note_on_c, 1, 58, 115
3, 10772, Control_c, 1, 64, 0
3, 10824, Control_c, 1, 64, 127
3, 10876, Note_off_c, 1, 62, 0
3, 10877, Note_off_c, 1, 58, 0
3, 10887, Note_off_c, 1, 65, 0
3, 10903, Note_off_c, 1, 50, 0
3, 11040, Note_on_c, 1, 74, 116
3, 11041, Note_on_c, 1, 82, 116
3, 11062, Note_off_c, 1, 82, 0
3, 11063, Note_off_c, 1, 74, 0
3, 11133, Note_on_c, 1, 70, 116
3, 11134, Note_on_c, 1, 55, 116
3, 11135, Note_on_c, 1, 77, 116
3, 11155, Note_off_c, 1, 70, 0
3, 11156, Note_off_c, 1, 55, 0
3, 11158, Note_off_c, 1, 77, 0
3, 11519, Note_on_c, 1, 68, 115
3, 11520, Note_on_c, 1, 63, 115
3, 11520, Note_on_c, 1, 56, 115
3, 11521, Note_on_c, 1, 72, 115
3, 11524, Control_c, 1, 64, 0
3, 11580, Control_c, 1, 64, 127
3, 11618, Note_off_c, 1, 63, 0
3, 11622, Note_off_c, 1, 68, 0
3, 11624, Note_off_c, 1, 72, 0
3, 11639, Note_off_c, 1, 56, 0
3, 11806, Note_on_c, 1, 58, 115
3, 11902, Note_on_c, 1, 63, 115
3, 11904, Note_on_c, 1, 60, 115
3, 11904, Note_on_c, 1, 70, 115
3, 11905, Note_on_c, 1, 67, 115
3, 11906, Note_off_c, 1, 58, 0
3, 11924, Control_c, 1, 64, 0
3, 11994, Control_c, 1, 64, 127
3, 12062, Note_off_c, 1, 67, 0
3, 12064, Note_off_c, 1, 63, 0
3, 12067, Note_off_c, 1, 70, 0
3, 12095, Note_off_c, 1, 60, 0
3, 12096, Note_on_c, 1, 55, 115
3, 12164, Note_off_c, 1, 55, 0
3, 12285, Note_on_c, 1, 53, 115
3, 12286, Note_on_c, 1, 72, 115
3, 12287, Note_on_c, 1, 70, 115
3, 12289, Note_on_c, 1, 63, 115
3, 12297, Control_c, 1, 64, 0
3, 12370, Control_c, 1, 64, 127
3, 12471, Note_off_c, 1, 72, 0
3, 12472, Note_off_c, 1, 53, 0
3, 12472, Note_off_c, 1, 70, 0
3, 12476, Note_off_c, 1, 63, 0
3, 12671, Note_on_c, 1, 63, 115
3, 12672, Note_on_c, 1, 69, 115
3, 12672, Note_on_c, 1, 72, 115
3, 12746, Note_off_c, 1, 69, 0
3, 12746, Note_off_c, 1, 63, 0
3, 12750, Note_off_c, 1, 72, 0
3, 13053, Control_c, 1, 64, 0
3, 13055, Note_on_c, 1, 62, 104
3, 13055, Note_on_c, 1, 70, 104
3, 13056, Note_on_c, 1, 46, 104
3, 13057, Note_on_c, 1, 53, 104
3, 13310, Note_off_c, 1, 46, 0
3, 13313, Note_off_c, 1, 53, 0
3, 13343, Note_on_c, 1, 53, 104
3, 13345, Note_on_c, 1, 46, 104
3, 13412, Note_off_c, 1, 70, 0
3, 13422, Note_off_c, 1, 62, 0
3, 13438, Note_on_c, 1, 48, 104
3, 13438, Note_on_c, 1, 63, 104
3, 13439, Note_on_c, 1, 55, 104
3, 13441, Note_on_c, 1, 70, 104
3, 13442, Note_off_c, 1, 53, 0
3, 13443, Note_off_c, 1, 46, 0
3, 13685, Note_off_c, 1, 48, 0
3, 13689, Note_off_c, 1, 55, 0
3, 13726, Note_on_c, 1, 48, 104
3, 13728, Note_on_c, 1, 55, 104
3, 13799, Note_off_c, 1, 70, 0
3, 13815, Note_off_c, 1, 63, 0
3, 13821, Note_on_c, 1, 65, 104
3, 13823, Note_on_c, 1, 50, 104
3, 13824, Note_on_c, 1, 58, 104
3, 13825, Note_on_c, 1, 70, 104
3, 13833, Note_off_c, 1, 48, 0
3, 13835, Note_off_c, 1, 55, 0
3, 14080, Note_off_c, 1, 50, 0
3, 14086, Note_off_c, 1, 58, 0
3, 14110, Note_on_c, 1, 58, 104
3, 14112, Note_on_c, 1, 50, 104
3, 14184, Note_off_c, 1, 70, 0
3, 14205, Note_off_c, 1, 58, 0
3, 14206, Note_on_c, 1, 67, 104
3, 14206, Note_on_c, 1, 51, 104
3, 14207, Note_on_c, 1, 58, 104
3, 14208, Note_on_c, 1, 70, 104
3, 14209, Note_off_c, 1, 65, 0
3, 14225, Note_off_c, 1, 50, 0
3, 14441, Note_off_c, 1, 51, 0
3, 14444, Note_off_c, 1, 58, 0
3, 14494, Note_on_c, 1, 51, 104
3, 14497, Note_on_c, 1, 58, 104
3, 14552, Note_off_c, 1, 67, 0
3, 14557, Note_off_c, 1, 70, 0
3, 14579, Note_off_c, 1, 58, 0
3, 14591, Note_on_c, 1, 53, 104
3, 14592, Note_on_c, 1, 58, 104
3, 14593, Note_on_c, 1, 62, 104
3, 14594, Note_on_c, 1, 70, 104
3, 14599, Note_off_c, 1, 51, 0
3, 14836, Note_off_c, 1, 53, 0
3, 14839, Note_off_c, 1, 58, 0
3, 14880, Note_on_c, 1, 53, 104
3, 14880, Note_on_c, 1, 58, 104
3, 14940, Note_off_c, 1, 62, 0
3, 14941, Note_off_c, 1, 70, 0
3, 14966, Note_off_c, 1, 53, 0
3, 14975, Note_on_c, 1, 63, 104
3, 14976, Note_on_c, 1, 70, 104
3, 14976, Note_on_c, 1, 60, 104
3, 14977, Note_off_c, 1, 58, 0
3, 14977, Note_on_c, 1, 53, 104
3, 15166, Note_on_c, 1, 69, 104
3, 15181, Note_off_c, 1, 70, 0
3, 15216, Note_off_c, 1, 53, 0
3, 15224, Note_off_c, 1, 60, 0
3, 15262, Note_on_c, 1, 60, 104
3, 15264, Note_on_c, 1, 53, 104
3, 15357, Note_off_c, 1, 69, 0
3, 15358, Note_on_c, 1, 65, 104
3, 15359, Note_on_c, 1, 70, 104
3, 15361, Note_on_c, 1, 46, 104
3, 15362, Note_off_c, 1, 63, 0
3, 15362, Note_on_c, 1, 62, 104
3, 15368, Note_off_c, 1, 53, 0
3, 15372, Note_off_c, 1, 60, 0
3, 15621, Note_off_c, 1, 46, 0
3, 15647, Note_on_c, 1, 46, 104
3, 15708, Note_off_c, 1, 65, 0
3, 15714, Note_off_c, 1, 70, 0
3, 15735, Note_off_c, 1, 62, 0
3, 15741, Note_on_c, 1, 67, 104
3, 15741, Note_on_c, 1, 63, 104
3, 15742, Note_on_c, 1, 70, 104
3, 15745, Note_on_c, 1, 53, 104
3, 15747, Note_off_c, 1, 46, 0
3, 15991, Note_off_c, 1, 53, 0
3, 16030, Note_on_c, 1, 53, 104
3, 16112, Note_off_c, 1, 67, 0
3, 16113, Note_off_c, 1, 53, 0
3, 16116, Note_off_c, 1, 70, 0
3, 16122, Note_off_c, 1, 63, 0
3, 16126, Note_on_c, 1, 70, 104
3, 16128, Note_on_c, 1, 46, 104
3, 16129, Note_on_c, 1, 53, 104
3, 16129, Note_on_c, 1, 62, 104
3, 16382, Note_off_c, 1, 46, 0
3, 16385, Note_off_c, 1, 53, 0
3, 16415, Note_on_c, 1, 46, 104
3, 16416, Note_on_c, 1, 53, 104
3, 16482, Note_off_c, 1, 70, 0
3, 16496, Note_off_c, 1, 62, 0
3, 16510, Note_on_c, 1, 63, 104
3, 16512, Note_on_c, 1, 55, 104
3, 16513, Note_off_c, 1, 46, 0
3, 16513, Note_on_c, 1, 70, 104
3, 16513, Note_on_c, 1, 48, 104
3, 16515, Note_off_c, 1, 53, 0
3, 16761, Note_off_c, 1, 48, 0
3, 16763, Note_off_c, 1, 55, 0
3, 16797, Note_on_c, 1, 48, 104
3, 16799, Note_on_c, 1, 55, 104
3, 16872, Note_off_c, 1, 70, 0
3, 16886, Note_off_c, 1, 63, 0
3, 16894, Note_on_c, 1, 50, 104
3, 16894, Note_on_c, 1, 58, 104
3, 16895, Note_on_c, 1, 65, 104
3, 16897, Note_on_c, 1, 70, 104
3, 16904, Note_off_c, 1, 48, 0
3, 16906, Note_off_c, 1, 55, 0
3, 17151, Note_off_c, 1, 50, 0
3, 17156, Note_off_c, 1, 58, 0
3, 17182, Note_on_c, 1, 50, 104
3, 17183, Note_on_c, 1, 58, 104
3, 17256, Note_off_c, 1, 70, 0
3, 17278, Note_off_c, 1, 58, 0
3, 17278, Note_on_c, 1, 70, 104
3, 17279, Note_on_c, 1, 67, 104
3, 17280, Note_on_c, 1, 55, 104
3, 17282, Note_on_c, 1, 62, 104
3, 17283, Note_off_c, 1, 65, 0
3, 17296, Note_off_c, 1, 50, 0
3, 17506, Note_off_c, 1, 55, 0
3, 17566, Note_on_c, 1, 55, 104
3, 17624, Note_off_c, 1, 62, 0
3, 17626, Note_off_c, 1, 67, 0
3, 17627, Note_off_c, 1, 70, 0
3, 17643, Note_off_c, 1, 55, 0
3, 17662, Note_on_c, 1, 63, 104
3, 17662, Note_on_c, 1, 48, 104
3, 17664, Note_on_c, 1, 70, 104
3, 17665, Note_on_c, 1, 55, 104
3, 17931, Note_off_c, 1, 48, 0
3, 17933, Note_off_c, 1, 70, 0
3, 17944, Note_off_c, 1, 63, 0
3, 17948, Note_off_c, 1, 55, 0
3, 17950, Note_on_c, 1, 65, 104
3, 17950, Note_on_c, 1, 50, 104
3, 17951, Note_on_c, 1, 70, 104
3, 17952, Note_on_c, 1, 57, 104
3, 18040, Note_off_c, 1, 70, 0
3, 18046, Note_on_c, 1, 70, 104
3, 18048, Note_off_c, 1, 65, 0
3, 18048, Note_on_c, 1, 58, 104
3, 18048, Note_on_c, 1, 51, 104
3, 18049, Note_on_c, 1, 67, 104
3, 18054, Note_off_c, 1, 50, 0
3, 18060, Note_off_c, 1, 57, 0
3, 18225, Note_off_c, 1, 58, 0
3, 18231, Note_off_c, 1, 51, 0
3, 18232, Note_off_c, 1, 70, 0
3, 18234, Note_off_c, 1, 67, 0
3, 18238, Note_on_c, 1, 53, 104
3, 18240, Note_on_c, 1, 63, 104
3, 18240, Note_on_c, 1, 69, 104
3, 18241, Note_on_c, 1, 60, 104
3, 18410, Note_off_c, 1, 69, 0
3, 18413, Note_off_c, 1, 63, 0
3, 18422, Note_off_c, 1, 53, 0
3, 18429, Note_off_c, 1, 60, 0
3, 18430, Note_on_c, 1, 70, 98
3, 18430, Note_on_c, 1, 74, 112
3, 18432, Note_on_c, 1, 65, 98
3, 18432, Note_on_c, 1, 58, 98
3, 18570, Note_off_c, 1, 58, 0
3, 18573, Note_on_c, 1, 57, 98
3, 18575, Note_on_c, 1, 72, 112
3, 18580, Note_off_c, 1, 74, 0
3, 18624, Note_off_c, 1, 57, 0
3, 18624, Note_on_c, 1, 58, 98
3, 18624, Note_on_c, 1, 74, 112
3, 18634, Note_off_c, 1, 72, 0
3, 18718, Note_on_c, 1, 75, 112
3, 18720, Note_on_c, 1, 60, 98
3, 18724, Note_off_c, 1, 58, 0
3, 18726, Note_off_c, 1, 74, 0
3, 18793, Note_off_c, 1, 70, 0
3, 18804, Note_off_c, 1, 65, 0
3, 18814, Note_on_c, 1, 70, 98
3, 18815, Note_on_c, 1, 65, 98
3, 18816, Note_on_c, 1, 62, 98
3, 18816, Note_on_c, 1, 77, 112
3, 18822, Note_off_c, 1, 60, 0
3, 18825, Note_off_c, 1, 75, 0
3, 18983, Note_off_c, 1, 70, 0
3, 18984, Note_off_c, 1, 65, 0
3, 18984, Note_off_c, 1, 62, 0
3, 18984, Note_off_c, 1, 77, 0
3, 19010, Note_on_c, 1, 70, 112
3, 19010, Note_on_c, 1, 55, 98
3, 19010, Note_on_c, 1, 63, 98
3, 19146, Note_off_c, 1, 55, 0
3, 19152, Note_on_c, 1, 53, 98
3, 19154, Note_off_c, 1, 70, 0
3, 19154, Note_on_c, 1, 69, 112
3, 19199, Note_off_c, 1, 53, 0
3, 19202, Note_on_c, 1, 55, 98
3, 19202, Note_on_c, 1, 70, 112
3, 19213, Note_off_c, 1, 69, 0
3, 19292, Note_off_c, 1, 55, 0
3, 19294, Note_on_c, 1, 57, 98
3, 19295, Note_on_c, 1, 72, 112
3, 19309, Note_off_c, 1, 70, 0
3, 19382, Note_off_c, 1, 63, 0
3, 19390, Note_on_c, 1, 74, 112
3, 19394, Note_on_c, 1, 58, 98
3, 19394, Note_on_c, 1, 65, 98
3, 19395, Note_off_c, 1, 57, 0
3, 19402, Note_off_c, 1, 72, 0
3, 19582, Note_off_c, 1, 65, 0
3, 19583, Note_on_c, 1, 58, 98
3, 19583, Note_on_c, 1, 67, 112
3, 19586, Note_on_c, 1, 51, 98
3, 19590, Note_off_c, 1, 58, 0
3, 19593, Note_off_c, 1, 74, 0
3, 19728, Note_off_c, 1, 67, 0
3, 19729, Note_on_c, 1, 65, 112
3, 19778, Note_on_c, 1, 67, 112
3, 19792, Note_off_c, 1, 65, 0
3, 19872, Note_on_c, 1, 69, 112
3, 19880, Note_off_c, 1, 67, 0
3, 19966, Note_on_c, 1, 60, 98
3, 19969, Note_on_c, 1, 70, 112
3, 19970, Note_off_c, 1, 51, 0
3, 19970, Note_on_c, 1, 52, 98
3, 19976, Note_off_c, 1, 69, 0
3, 19988, Note_off_c, 1, 58, 0
3, 20258, Note_on_c, 1, 72, 112
3, 20269, Note_off_c, 1, 70, 0
3, 20349, Note_off_c, 1, 72, 0
3, 20352, Note_on_c, 1, 53, 87
3, 20352, Note_on_c, 1, 72, 112
3, 20352, Note_on_c, 1, 63, 112
3, 20358, Note_off_c, 1, 60, 0
3, 20366, Note_off_c, 1, 52, 0
3, 20640, Note_on_c, 1, 74, 112
3, 20661, Note_off_c, 1, 72, 0
3, 20695, Note_off_c, 1, 63, 0
3, 20723, Note_off_c, 1, 74, 0
3, 20736, Note_on_c, 1, 59, 100
3, 20736, Note_on_c, 1, 69, 100
3, 20736, Note_on_c, 1, 55, 84
3, 20753, Note_off_c, 1, 53, 0
3, 20928, Note_on_c, 1, 67, 100
3, 20936, Note_off_c, 1, 69, 0
3, 21106, Note_off_c, 1, 67, 0
3, 21112, Note_off_c, 1, 55, 0
3, 21120, Note_on_c, 1, 36, 100
3, 21120, Note_on_c, 1, 64, 109
3, 21120, Note_on_c, 1, 60, 109
3, 21120, Note_on_c, 1, 67, 109
3, 21130, Note_off_c, 1, 59, 0
3, 21375, Note_off_c, 1, 64, 0
3, 21375, Note_off_c, 1, 67, 0
3, 21376, Note_off_c, 1, 36, 0
3, 21377, Note_off_c, 1, 60, 0
3, 21408, Note_on_c, 1, 60, 109
3, 21408, Note_on_c, 1, 38, 100
3, 21408, Note_on_c, 1, 65, 109
3, 21408, Note_on_c, 1, 62, 109
3, 21408, Note_on_c, 1, 67, 109
3, 21485, Note_off_c, 1, 65, 0
3, 21493, Note_off_c, 1, 62, 0
3, 21496, Note_off_c, 1, 60, 0
3, 21504, Note_off_c, 1, 38, 0
3, 21504, Note_on_c, 1, 40, 100
3, 21504, Note_on_c, 1, 60, 109
3, 21504, Note_on_c, 1, 64, 109
3, 21843, Note_off_c, 1, 67, 0
3, 21845, Note_off_c, 1, 64, 0
3, 21847, Note_off_c, 1, 60, 0
3, 21848, Note_off_c, 1, 40, 0
3, 21888, Note_on_c, 1, 65, 109
3, 21888, Note_on_c, 1, 60, 109
3, 21888, Note_on_c, 1, 57, 109
3, 21888, Note_on_c, 1, 45, 100
3, 22127, Note_off_c, 1, 57, 0
3, 22130, Note_off_c, 1, 60, 0
3, 22132, Note_off_c, 1, 45, 0
3, 22133, Note_off_c, 1, 65, 0
3, 22176, Note_on_c, 1, 62, 109
3, 22176, Note_on_c, 1, 59, 109
3, 22176, Note_on_c, 1, 67, 109
3, 22176, Note_on_c, 1, 47, 100
3, 22256, Note_off_c, 1, 59, 0
3, 22264, Note_off_c, 1, 62, 0
3, 22272, Note_on_c, 1, 48, 100
3, 22272, Note_on_c, 1, 64, 109
3, 22272, Note_on_c, 1, 60, 109
3, 22278, Note_off_c, 1, 47, 0
3, 22459, Note_off_c, 1, 48, 0
3, 22464, Note_on_c, 1, 40, 100
3, 22613, Note_off_c, 1, 60, 0
3, 22614, Note_off_c, 1, 64, 0
3, 22618, Note_off_c, 1, 67, 0
3, 22633, Note_off_c, 1, 40, 0
3, 22656, Note_on_c, 1, 65, 109
3, 22656, Note_on_c, 1, 41, 100
3, 22656, Note_on_c, 1, 69, 109
3, 22656, Note_on_c, 1, 60, 109
3, 22916, Note_off_c, 1, 41, 0
3, 22944, Note_on_c, 1, 41, 100
3, 23018, Note_off_c, 1, 60, 0
3, 23025, Note_off_c, 1, 65, 0
3, 23036, Note_off_c, 1, 41, 0
3, 23037, Note_off_c, 1, 69, 0
3, 23040, Note_on_c, 1, 42, 100
3, 23040, Note_on_c, 1, 69, 109
3, 23040, Note_on_c, 1, 62, 109
3, 23040, Note_on_c, 1, 60, 109
3, 23040, Note_on_c, 1, 66, 109
3, 23301, Note_off_c, 1, 42, 0
3, 23328, Note_on_c, 1, 42, 100
3, 23379, Note_off_c, 1, 60, 0
3, 23381, Note_off_c, 1, 66, 0
3, 23383, Note_off_c, 1, 62, 0
3, 23390, Note_off_c, 1, 69, 0
3, 23423, Note_off_c, 1, 42, 0
3, 23424, Note_on_c, 1, 43, 100
3, 23424, Note_on_c, 1, 62, 109
3, 23424, Note_on_c, 1, 65, 109
3, 23424, Note_on_c, 1, 67, 109
3, 23424, Note_on_c, 1, 72, 109
3, 23689, Note_off_c, 1, 43, 0
3, 23712, Note_on_c, 1, 43, 100
3, 23762, Note_off_c, 1, 72, 0
3, 23782, Note_off_c, 1, 65, 0
3, 23784, Note_off_c, 1, 67, 0
3, 23788, Note_off_c, 1, 43, 0
3, 23790, Note_off_c, 1, 62, 0
3, 23808, Note_on_c, 1, 62, 109
3, 23808, Note_on_c, 1, 71, 109
3, 23808, Note_on_c, 1, 67, 109
3, 23808, Note_on_c, 1, 43, 100
3, 23808, Note_on_c, 1, 65, 109
3, 24158, Note_off_c, 1, 71, 0
3, 24159, Note_off_c, 1, 67, 0
3, 24159, Note_off_c, 1, 65, 0
3, 24164, Note_off_c, 1, 43, 0
3, 24168, Note_off_c, 1, 62, 0
3, 24192, Note_on_c, 1, 36, 100
3, 24192, Note_on_c, 1, 64, 109
3, 24192, Note_on_c, 1, 60, 109
3, 24192, Note_on_c, 1, 67, 109
3, 24447, Note_off_c, 1, 67, 0
3, 24447, Note_off_c, 1, 64, 0
3, 24448, Note_off_c, 1, 36, 0
3, 24449, Note_off_c, 1, 60, 0
3, 24480, Note_on_c, 1, 60, 109
3, 24480, Note_on_c, 1, 38, 100
3, 24480, Note_on_c, 1, 65, 109
3, 24480, Note_on_c, 1, 62, 109
3, 24480, Note_on_c, 1, 67, 109
3, 24557, Note_off_c, 1, 65, 0
3, 24565, Note_off_c, 1, 62, 0
3, 24568, Note_off_c, 1, 60, 0
3, 24576, Note_off_c, 1, 38, 0
3, 24576, Note_on_c, 1, 40, 100
3, 24576, Note_on_c, 1, 60, 109
3, 24576, Note_on_c, 1, 64, 109
3, 24915, Note_off_c, 1, 67, 0
3, 24917, Note_off_c, 1, 64, 0
3, 24919, Note_off_c, 1, 60, 0
3, 24920, Note_off_c, 1, 40, 0
3, 24960, Note_on_c, 1, 65, 109
3, 24960, Note_on_c, 1, 60, 109
3, 24960, Note_on_c, 1, 57, 109
3, 24960, Note_on_c, 1, 45, 100
3, 25199, Note_off_c, 1, 57, 0
3, 25202, Note_off_c, 1, 60, 0
3, 25204, Note_off_c, 1, 45, 0
3, 25205, Note_off_c, 1, 65, 0
3, 25248, Note_on_c, 1, 62, 109
3, 25248, Note_on_c, 1, 59, 109
3, 25248, Note_on_c, 1, 67, 109
3, 25248, Note_on_c, 1, 47, 100
3, 25328, Note_off_c, 1, 59, 0
3, 25336, Note_off_c, 1, 62, 0
3, 25344, Note_on_c, 1, 48, 100
3, 25344, Note_on_c, 1, 64, 109
3, 25344, Note_on_c, 1, 60, 109
3, 25350, Note_off_c, 1, 47, 0
3, 25531, Note_off_c, 1, 48, 0
3, 25536, Note_on_c, 1, 40, 100
3, 25685, Note_off_c, 1, 60, 0
3, 25686, Note_off_c, 1, 64, 0
3, 25690, Note_off_c, 1, 67, 0
3, 25705, Note_off_c, 1, 40, 0
3, 25728, Note_on_c, 1, 65, 109
3, 25728, Note_on_c, 1, 41, 100
3, 25728, Note_on_c, 1, 69, 109
3, 25728, Note_on_c, 1, 60, 109
3, 25988, Note_off_c, 1, 41, 0
3, 26016, Note_on_c, 1, 41, 100
3, 26090, Note_off_c, 1, 60, 0
3, 26097, Note_off_c, 1, 65, 0
3, 26108, Note_off_c, 1, 41, 0
3, 26109, Note_off_c, 1, 69, 0
3, 26112, Note_on_c, 1, 42, 100
3, 26112, Note_on_c, 1, 69, 109
3, 26112, Note_on_c, 1, 62, 109
3, 26112, Note_on_c, 1, 60, 109
3, 26112, Note_on_c, 1, 66, 109
3, 26373, Note_off_c, 1, 42, 0
3, 26400, Note_on_c, 1, 42, 100
3, 26451, Note_off_c, 1, 60, 0
3, 26453, Note_off_c, 1, 66, 0
3, 26455, Note_off_c, 1, 62, 0
3, 26462, Note_off_c, 1, 69, 0
3, 26495, Note_off_c, 1, 42, 0
3, 26496, Note_on_c, 1, 43, 100
3, 26496, Note_on_c, 1, 62, 109
3, 26496, Note_on_c, 1, 65, 109
3, 26496, Note_on_c, 1, 67, 109
3, 26496, Note_on_c, 1, 72, 109
3, 26761, Note_off_c, 1, 43, 0
3, 26784, Note_on_c, 1, 43, 100
3, 26834, Note_off_c, 1, 72, 0
3, 26854, Note_off_c, 1, 65, 0
3, 26856, Note_off_c, 1, 67, 0
3, 26860, Note_off_c, 1, 43, 0
3, 26862, Note_off_c, 1, 62, 0
3, 26880, Note_on_c, 1, 62, 109
3, 26880, Note_on_c, 1, 71, 109
3, 26880, Note_on_c, 1, 67, 109
3, 26880, Note_on_c, 1, 43, 100
3, 26880, Note_on_c, 1, 65, 109
3, 27230, Note_off_c, 1, 71, 0
3, 27231, Note_off_c, 1, 67, 0
3, 27231, Note_off_c, 1, 65, 0
3, 27236, Note_off_c, 1, 43, 0
3, 27240, Note_off_c, 1, 62, 0
3, 27261, Control_c, 1, 64, 0
3, 27263, Note_on_c, 1, 64, 104
3, 27263, Note_on_c, 1, 72, 104
3, 27264, Note_on_c, 1, 48, 104
3, 27265, Note_on_c, 1, 55, 104
3, 27518, Note_off_c, 1, 48, 0
3, 27521, Note_off_c, 1, 55, 0
3, 27551, Note_on_c, 1, 55, 104
3, 27553, Note_on_c, 1, 48, 104
3, 27620, Note_off_c, 1, 72, 0
3, 27630, Note_off_c, 1, 64, 0
3, 27646, Note_on_c, 1, 50, 104
3, 27646, Note_on_c, 1, 65, 104
3, 27647, Note_on_c, 1, 57, 104
3, 27649, Note_on_c, 1, 72, 104
3, 27650, Note_off_c, 1, 55, 0
3, 27651, Note_off_c, 1, 48, 0
3, 27893, Note_off_c, 1, 50, 0
3, 27897, Note_off_c, 1, 57, 0
3, 27934, Note_on_c, 1, 50, 104
3, 27936, Note_on_c, 1, 57, 104
3, 28007, Note_off_c, 1, 72, 0
3, 28023, Note_off_c, 1, 65, 0
3, 28029, Note_on_c, 1, 67, 104
3, 28031, Note_on_c, 1, 52, 104
3, 28032, Note_on_c, 1, 60, 104
3, 28033, Note_on_c, 1, 72, 104
3, 28041, Note_off_c, 1, 50, 0
3, 28043, Note_off_c, 1, 57, 0
3, 28288, Note_off_c, 1, 52, 0
3, 28294, Note_off_c, 1, 60, 0
3, 28318, Note_on_c, 1, 60, 104
3, 28320, Note_on_c, 1, 52, 104
3, 28392, Note_off_c, 1, 72, 0
3, 28413, Note_off_c, 1, 60, 0
3, 28414, Note_on_c, 1, 69, 104
3, 28414, Note_on_c, 1, 53, 104
3, 28415, Note_on_c, 1, 60, 104
3, 28416, Note_on_c, 1, 72, 104
3, 28417, Note_off_c, 1, 67, 0
3, 28433, Note_off_c, 1, 52, 0
3, 28649, Note_off_c, 1, 53, 0
3, 28652, Note_off_c, 1, 60, 0
3, 28702, Note_on_c, 1, 53, 104
3, 28705, Note_on_c, 1, 60, 104
3, 28760, Note_off_c, 1, 69, 0
3, 28765, Note_off_c, 1, 72, 0
3, 28787, Note_off_c, 1, 60, 0
3, 28799, Note_on_c, 1, 55, 104
3, 28800, Note_on_c, 1, 60, 104
3, 28801, Note_on_c, 1, 64, 104
3, 28802, Note_on_c, 1, 72, 104
3, 28807, Note_off_c, 1, 53, 0
3, 29044, Note_off_c, 1, 55, 0
3, 29047, Note_off_c, 1, 60, 0
3, 29088, Note_on_c, 1, 55, 104
3, 29088, Note_on_c, 1, 60, 104
3, 29148, Note_off_c, 1, 64, 0
3, 29149, Note_off_c, 1, 72, 0
3, 29174, Note_off_c, 1, 55, 0
3, 29183, Note_on_c, 1, 65, 104
3, 29184, Note_on_c, 1, 72, 104
3, 29184, Note_on_c, 1, 62, 104
3, 29185, Note_off_c, 1, 60, 0
3, 29185, Note_on_c, 1, 55, 104
3, 29374, Note_on_c, 1, 71, 104
3, 29389, Note_off_c, 1, 72, 0
3, 29424, Note_off_c, 1, 55, 0
3, 29432, Note_off_c, 1, 62, 0
3, 29470, Note_on_c, 1, 62, 104
3, 29472, Note_on_c, 1, 55, 104
3, 29565, Note_off_c, 1, 71, 0
3, 29566, Note_on_c, 1, 67, 104
3, 29567, Note_on_c, 1, 72, 104
3, 29569, Note_on_c, 1, 48, 104
3, 29570, Note_off_c, 1, 65, 0
3, 29570, Note_on_c, 1, 64, 104
3, 29576, Note_off_c, 1, 55, 0
3, 29580, Note_off_c, 1, 62, 0
3, 29829, Note_off_c, 1, 48, 0
3, 29855, Note_on_c, 1, 48, 104
3, 29916, Note_off_c, 1, 67, 0
3, 29922, Note_off_c, 1, 72, 0
3, 29943, Note_off_c, 1, 64, 0
3, 29952, Note_on_c, 1, 46, 108
3, 29952, Note_on_c, 1, 62, 100
3, 29952, Note_on_c, 1, 72, 100
3, 29952, Note_on_c, 1, 69, 99
3, 29955, Note_off_c, 1, 48, 0
3, 30144, Note_on_c, 1, 65, 109
3, 30144, Note_on_c, 1, 43, 109
3, 30151, Note_off_c, 1, 69, 0
3, 30154, Note_off_c, 1, 46, 0
3, 30332, Note_off_c, 1, 43, 0
3, 30333, Note_off_c, 1, 72, 0
3, 30334, Note_off_c, 1, 65, 0
3, 30334, Note_on_c, 1, 72, 104
3, 30336, Note_on_c, 1, 48, 104
3, 30337, Note_on_c, 1, 55, 104
3, 30337, Note_on_c, 1, 64, 104
3, 30338, Note_off_c, 1, 62, 0
3, 30590, Note_off_c, 1, 48, 0
3, 30593, Note_off_c, 1, 55, 0
3, 30623, Note_on_c, 1, 48, 104
3, 30624, Note_on_c, 1, 55, 104
3, 30690, Note_off_c, 1, 72, 0
3, 30704, Note_off_c, 1, 64, 0
3, 30718, Note_on_c, 1, 65, 104
3, 30720, Note_on_c, 1, 57, 104
3, 30721, Note_off_c, 1, 48, 0
3, 30721, Note_on_c, 1, 72, 104
3, 30721, Note_on_c, 1, 50, 104
3, 30723, Note_off_c, 1, 55, 0
3, 30969, Note_off_c, 1, 50, 0
3, 30971, Note_off_c, 1, 57, 0
3, 31005, Note_on_c, 1, 50, 104
3, 31007, Note_on_c, 1, 57, 104
3, 31080, Note_off_c, 1, 72, 0
3, 31094, Note_off_c, 1, 65, 0
3, 31102, Note_on_c, 1, 52, 104
3, 31102, Note_on_c, 1, 60, 104
3, 31103, Note_on_c, 1, 67, 104
3, 31105, Note_on_c, 1, 72, 104
3, 31112, Note_off_c, 1, 50, 0
3, 31114, Note_off_c, 1, 57, 0
3, 31359, Note_off_c, 1, 52, 0
3, 31364, Note_off_c, 1, 60, 0
3, 31390, Note_on_c, 1, 52, 104
3, 31391, Note_on_c, 1, 60, 104
3, 31464, Note_off_c, 1, 72, 0
3, 31486, Note_off_c, 1, 60, 0
3, 31486, Note_on_c, 1, 72, 104
3, 31487, Note_on_c, 1, 69, 104
3, 31488, Note_on_c, 1, 57, 104
3, 31490, Note_on_c, 1, 64, 104
3, 31491, Note_off_c, 1, 67, 0
3, 31504, Note_off_c, 1, 52, 0
3, 31714, Note_off_c, 1, 57, 0
3, 31774, Note_on_c, 1, 57, 104
3, 31832, Note_off_c, 1, 64, 0
3, 31834, Note_off_c, 1, 69, 0
3, 31835, Note_off_c, 1, 72, 0
3, 31851, Note_off_c, 1, 57, 0
3, 31870, Note_on_c, 1, 65, 104
3, 31870, Note_on_c, 1, 50, 104
3, 31872, Note_on_c, 1, 72, 104
3, 31873, Note_on_c, 1, 57, 104
3, 32139, Note_off_c, 1, 50, 0
3, 32141, Note_off_c, 1, 72, 0
3, 32152, Note_off_c, 1, 65, 0
3, 32156, Note_off_c, 1, 57, 0
3, 32158, Note_on_c, 1, 67, 104
3, 32158, Note_on_c, 1, 52, 104
3, 32159, Note_on_c, 1, 72, 104
3, 32160, Note_on_c, 1, 59, 104
3, 32248, Note_off_c, 1, 72, 0
3, 32254, Note_on_c, 1, 72, 104
3, 32256, Note_off_c, 1, 67, 0
3, 32256, Note_on_c, 1, 60, 104
3, 32256, Note_on_c, 1, 53, 104
3, 32257, Note_on_c, 1, 69, 104
3, 32262, Note_off_c, 1, 52, 0
3, 32268, Note_off_c, 1, 59, 0
3, 32433, Note_off_c, 1, 60, 0
3, 32439, Note_off_c, 1, 53, 0
3, 32440, Note_off_c, 1, 72, 0
3, 32442, Note_off_c, 1, 69, 0
3, 32446, Note_on_c, 1, 55, 104
3, 32448, Note_on_c, 1, 65, 104
3, 32448, Note_on_c, 1, 71, 104
3, 32449, Note_on_c, 1, 62, 104
3, 32618, Note_off_c, 1, 71, 0
3, 32621, Note_off_c, 1, 65, 0
3, 32630, Note_off_c, 1, 55, 0
3, 32637, Note_off_c, 1, 62, 0
3, 38016, Control_c, 1, 10, 64
3, 38016, Control_c, 1, 7, 100
3, 38016, Program_c, 1, 4
3, 38781, Control_c, 1, 64, 0
3, 38783, Note_on_c, 1, 64, 112
3, 38783, Note_on_c, 1, 72, 112
3, 38784, Note_on_c, 1, 48, 112
3, 38785, Note_on_c, 1, 55, 112
3, 39038, Note_off_c, 1, 48, 0
3, 39041, Note_off_c, 1, 55, 0
3, 39071, Note_on_c, 1, 55, 112
3, 39073, Note_on_c, 1, 48, 112
3, 39140, Note_off_c, 1, 72, 0
3, 39146, Note_off_c, 1, 48, 0
3, 39150, Note_off_c, 1, 64, 0
3, 39166, Note_on_c, 1, 48, 112
3, 39166, Note_on_c, 1, 65, 112
3, 39167, Note_on_c, 1, 57, 112
3, 39169, Note_on_c, 1, 72, 112
3, 39170, Note_off_c, 1, 55, 0
3, 39413, Note_off_c, 1, 48, 0
3, 39417, Note_off_c, 1, 57, 0
3, 39454, Note_on_c, 1, 48, 112
3, 39456, Note_on_c, 1, 57, 112
3, 39527, Note_off_c, 1, 72, 0
3, 39543, Note_off_c, 1, 65, 0
3, 39549, Note_on_c, 1, 67, 112
3, 39551, Note_on_c, 1, 52, 112
3, 39552, Note_on_c, 1, 60, 112
3, 39553, Note_on_c, 1, 72, 112
3, 39561, Note_off_c, 1, 48, 0
3, 39563, Note_off_c, 1, 57, 0
3, 39808, Note_off_c, 1, 52, 0
3, 39814, Note_off_c, 1, 60, 0
3, 39838, Note_on_c, 1, 60, 112
3, 39840, Note_on_c, 1, 52, 112
3, 39912, Note_off_c, 1, 72, 0
3, 39933, Note_off_c, 1, 60, 0
3, 39934, Note_on_c, 1, 69, 112
3, 39934, Note_on_c, 1, 53, 112
3, 39935, Note_on_c, 1, 60, 112
3, 39936, Note_on_c, 1, 72, 112
3, 39937, Note_off_c, 1, 67, 0
3, 39953, Note_off_c, 1, 52, 0
3, 40169, Note_off_c, 1, 53, 0
3, 40172, Note_off_c, 1, 60, 0
3, 40222, Note_on_c, 1, 53, 112
3, 40225, Note_on_c, 1, 60, 112
3, 40280, Note_off_c, 1, 69, 0
3, 40285, Note_off_c, 1, 72, 0
3, 40307, Note_off_c, 1, 60, 0
3, 40319, Note_on_c, 1, 64, 112
3, 40319, Note_on_c, 1, 72, 112
3, 40320, Note_on_c, 1, 48, 112
3, 40321, Note_on_c, 1, 55, 112
3, 40327, Note_off_c, 1, 53, 0
3, 40574, Note_off_c, 1, 48, 0
3, 40577, Note_off_c, 1, 55, 0
3, 40607, Note_on_c, 1, 55, 112
3, 40609, Note_on_c, 1, 48, 112
3, 40676, Note_off_c, 1, 72, 0
3, 40682, Note_off_c, 1, 48, 0
3, 40686, Note_off_c, 1, 64, 0
3, 40695, Note_off_c, 1, 55, 0
3, 40703, Note_on_c, 1, 65, 112
3, 40704, Note_on_c, 1, 72, 112
3, 40704, Note_on_c, 1, 62, 112
3, 40705, Note_on_c, 1, 55, 112
3, 40944, Note_off_c, 1, 55, 0
3, 40952, Note_off_c, 1, 62, 0
3, 40990, Note_on_c, 1, 62, 112
3, 40992, Note_on_c, 1, 55, 112
3, 41074, Note_off_c, 1, 55, 0
3, 41074, Note_off_c, 1, 72, 0
3, 41087, Note_on_c, 1, 64, 112
3, 41087, Note_on_c, 1, 72, 112
3, 41088, Note_on_c, 1, 48, 112
3, 41089, Note_on_c, 1, 55, 112
3, 41090, Note_off_c, 1, 65, 0
3, 41100, Note_off_c, 1, 62, 0
3, 41342, Note_off_c, 1, 48, 0
3, 41345, Note_off_c, 1, 55, 0
3, 41375, Note_on_c, 1, 55, 112
3, 41377, Note_on_c, 1, 48, 112
3, 41444, Note_off_c, 1, 72, 0
3, 41450, Note_off_c, 1, 48, 0
3, 41454, Note_off_c, 1, 64, 0
3, 41463, Note_off_c, 1, 55, 0
3, 41471, Note_on_c, 1, 65, 112
3, 41472, Note_on_c, 1, 72, 112
3, 41472, Note_on_c, 1, 62, 112
3, 41473, Note_on_c, 1, 55, 112
3, 41712, Note_off_c, 1, 55, 0
3, 41720, Note_off_c, 1, 62, 0
3, 41758, Note_on_c, 1, 62, 112
3, 41760, Note_on_c, 1, 55, 112
3, 41842, Note_off_c, 1, 72, 0
3, 41853, Note_off_c, 1, 55, 0
3, 41854, Note_on_c, 1, 72, 112
3, 41856, Note_on_c, 1, 48, 112
3, 41857, Note_on_c, 1, 55, 112
3, 41857, Note_on_c, 1, 64, 112
3, 41858, Note_off_c, 1, 65, 0
3, 41868, Note_off_c, 1, 62, 0
3, 42110, Note_off_c, 1, 48, 0
3, 42113, Note_off_c, 1, 55, 0
3, 42143, Note_on_c, 1, 48, 112
3, 42144, Note_on_c, 1, 55, 112
3, 42210, Note_off_c, 1, 72, 0
3, 42224, Note_off_c, 1, 64, 0
3, 42238, Note_on_c, 1, 65, 112
3, 42240, Note_on_c, 1, 57, 112
3, 42241, Note_off_c, 1, 48, 0
3, 42241, Note_on_c, 1, 72, 112
3, 42241, Note_on_c, 1, 48, 112
3, 42243, Note_off_c, 1, 55, 0
3, 42489, Note_off_c, 1, 48, 0
3, 42491, Note_off_c, 1, 57, 0
3, 42525, Note_on_c, 1, 48, 112
3, 42527, Note_on_c, 1, 57, 112
3, 42600, Note_off_c, 1, 72, 0
3, 42614, Note_off_c, 1, 65, 0
3, 42622, Note_on_c, 1, 52, 112
3, 42622, Note_on_c, 1, 60, 112
3, 42623, Note_on_c, 1, 67, 112
3, 42625, Note_on_c, 1, 72, 112
3, 42632, Note_off_c, 1, 48, 0
3, 42634, Note_off_c, 1, 57, 0
3, 42879, Note_off_c, 1, 52, 0
3, 42884, Note_off_c, 1, 60, 0
3, 42910, Note_on_c, 1, 52, 112
3, 42911, Note_on_c, 1, 60, 112
3, 42984, Note_off_c, 1, 72, 0
3, 43006, Note_off_c, 1, 60, 0
3, 43006, Note_on_c, 1, 72, 112
3, 43007, Note_on_c, 1, 69, 112
3, 43008, Note_on_c, 1, 57, 112
3, 43010, Note_on_c, 1, 64, 112
3, 43011, Note_off_c, 1, 67, 0
3, 43024, Note_off_c, 1, 52, 0
3, 43234, Note_off_c, 1, 57, 0
3, 43294, Note_on_c, 1, 57, 112
3, 43352, Note_off_c, 1, 64, 0
3, 43354, Note_off_c, 1, 69, 0
3, 43355, Note_off_c, 1, 72, 0
3, 43371, Note_off_c, 1, 57, 0
3, 43390, Note_on_c, 1, 65, 112
3, 43390, Note_on_c, 1, 50, 112
3, 43392, Note_on_c, 1, 72, 112
3, 43393, Note_on_c, 1, 57, 112
3, 43659, Note_off_c, 1, 50, 0
3, 43676, Note_off_c, 1, 57, 0
3, 43678, Note_on_c, 1, 50, 112
3, 43680, Note_on_c, 1, 57, 112
3, 43755, Note_off_c, 1, 72, 0
3, 43766, Note_off_c, 1, 65, 0
3, 43774, Note_on_c, 1, 72, 112
3, 43776, Note_on_c, 1, 62, 112
3, 43776, Note_on_c, 1, 55, 112
3, 43777, Note_on_c, 1, 69, 112
3, 43782, Note_off_c, 1, 50, 0
3, 43788, Note_off_c, 1, 57, 0
3, 43953, Note_off_c, 1, 62, 0
3, 43959, Note_off_c, 1, 55, 0
3, 43960, Note_off_c, 1, 72, 0
3, 43962, Note_off_c, 1, 69, 0
3, 43966, Note_on_c, 1, 55, 112
3, 43968, Note_on_c, 1, 65, 112
3, 43968, Note_on_c, 1, 71, 112
3, 43969, Note_on_c, 1, 62, 112
3, 44138, Note_off_c, 1, 71, 0
3, 44141, Note_off_c, 1, 65, 0
3, 44150, Note_off_c, 1, 55, 0
3, 44157, Note_off_c, 1, 62, 0
3, 44158, Note_on_c, 1, 64, 112
3, 44158, Note_on_c, 1, 48, 112
3, 44160, Note_on_c, 1, 72, 112
3, 44161, Note_on_c, 1, 55, 112
3, 44427, Note_off_c, 1, 48, 0
3, 44444, Note_off_c, 1, 55, 0
3, 44446, Note_on_c, 1, 48, 112
3, 44448, Note_on_c, 1, 55, 112
3, 44523, Note_off_c, 1, 72, 0
3, 44528, Note_off_c, 1, 48, 0
3, 44534, Note_off_c, 1, 64, 0
3, 44534, Note_off_c, 1, 55, 0
3, 44544, Note_on_c, 1, 64, 112
3, 44544, Note_on_c, 1, 48, 112
3, 44544, Note_on_c, 1, 72, 112
3, 44544, Note_on_c, 1, 55, 112
3, 44683, Note_off_c, 1, 55, 0
3, 44683, Note_off_c, 1, 72, 0
3, 44683, Note_off_c, 1, 48, 0
3, 44683, Note_off_c, 1, 64, 0
3, 44736, Note_on_c, 1, 64, 112
3, 44736, Note_on_c, 1, 48, 112
3, 44736, Note_on_c, 1, 72, 112
3, 44736, Note_on_c, 1, 55, 112
3, 44875, Note_off_c, 1, 55, 0
3, 44875, Note_off_c, 1, 72, 0
3, 44875, Note_off_c, 1, 48, 0
3, 44875, Note_off_c, 1, 64, 0
3, 44925, Control_c, 1, 64, 0
3, 44927, Note_on_c, 1, 65, 112
3, 44927, Note_on_c, 1, 73, 112
3, 44928, Note_on_c, 1, 49, 112
3, 44929, Note_on_c, 1, 56, 112
3, 45182, Note_off_c, 1, 49, 0
3, 45185, Note_off_c, 1, 56, 0
3, 45215, Note_on_c, 1, 56, 112
3, 45217, Note_on_c, 1, 49, 112
3, 45284, Note_off_c, 1, 73, 0
3, 45290, Note_off_c, 1, 49, 0
3, 45294, Note_off_c, 1, 65, 0
3, 45310, Note_on_c, 1, 49, 112
3, 45310, Note_on_c, 1, 66, 112
3, 45311, Note_on_c, 1, 58, 112
3, 45313, Note_on_c, 1, 73, 112
3, 45314, Note_off_c, 1, 56, 0
3, 45557, Note_off_c, 1, 49, 0
3, 45561, Note_off_c, 1, 58, 0
3, 45598, Note_on_c, 1, 49, 112
3, 45600, Note_on_c, 1, 58, 112
3, 45671, Note_off_c, 1, 73, 0
3, 45687, Note_off_c, 1, 66, 0
3, 45693, Note_on_c, 1, 68, 112
3, 45695, Note_on_c, 1, 53, 112
3, 45696, Note_on_c, 1, 61, 112
3, 45697, Note_on_c, 1, 73, 112
3, 45705, Note_off_c, 1, 49, 0
3, 45707, Note_off_c, 1, 58, 0
3, 45952, Note_off_c, 1, 53, 0
3, 45958, Note_off_c, 1, 61, 0
3, 45982, Note_on_c, 1, 61, 112
3, 45984, Note_on_c, 1, 53, 112
3, 46056, Note_off_c, 1, 73, 0
3, 46077, Note_off_c, 1, 61, 0
3, 46078, Note_on_c, 1, 70, 112
3, 46078, Note_on_c, 1, 54, 112
3, 46079, Note_on_c, 1, 61, 112
3, 46080, Note_on_c, 1, 73, 112
3, 46081, Note_off_c, 1, 68, 0
3, 46097, Note_off_c, 1, 53, 0
3, 46313, Note_off_c, 1, 54, 0
3, 46316, Note_off_c, 1, 61, 0
3, 46366, Note_on_c, 1, 54, 112
3, 46369, Note_on_c, 1, 61, 112
3, 46424, Note_off_c, 1, 70, 0
3, 46429, Note_off_c, 1, 73, 0
3, 46451, Note_off_c, 1, 61, 0
3, 46463, Note_on_c, 1, 65, 112
3, 46463, Note_on_c, 1, 73, 112
3, 46464, Note_on_c, 1, 49, 112
3, 46465, Note_on_c, 1, 56, 112
3, 46471, Note_off_c, 1, 54, 0
3, 46718, Note_off_c, 1, 49, 0
3, 46721, Note_off_c, 1, 56, 0
3, 46751, Note_on_c, 1, 56, 112
3, 46753, Note_on_c, 1, 49, 112
3, 46820, Note_off_c, 1, 73, 0
3, 46826, Note_off_c, 1, 49, 0
3, 46830, Note_off_c, 1, 65, 0
3, 46839, Note_off_c, 1, 56, 0
3, 46847, Note_on_c, 1, 66, 112
3, 46848, Note_on_c, 1, 73, 112
3, 46848, Note_on_c, 1, 63, 112
3, 46849, Note_on_c, 1, 56, 112
3, 47088, Note_off_c, 1, 56, 0
3, 47096, Note_off_c, 1, 63, 0
3, 47134, Note_on_c, 1, 63, 112
3, 47136, Note_on_c, 1, 56, 112
3, 47218, Note_off_c, 1, 56, 0
3, 47218, Note_off_c, 1, 73, 0
3, 47231, Note_on_c, 1, 65, 112
3, 47231, Note_on_c, 1, 73, 112
3, 47232, Note_on_c, 1, 49, 112
3, 47233, Note_on_c, 1, 56, 112
3, 47234, Note_off_c, 1, 66, 0
3, 47244, Note_off_c, 1, 63, 0
3, 47486, Note_off_c, 1, 49, 0
3, 47489, Note_off_c, 1, 56, 0
3, 47519, Note_on_c, 1, 56, 112
3, 47521, Note_on_c, 1, 49, 112
3, 47588, Note_off_c, 1, 73, 0
3, 47594, Note_off_c, 1, 49, 0
3, 47598, Note_off_c, 1, 65, 0
3, 47607, Note_off_c, 1, 56, 0
3, 47615, Note_on_c, 1, 66, 112
3, 47616, Note_on_c, 1, 73, 112
3, 47616, Note_on_c, 1, 63, 112
3, 47617, Note_on_c, 1, 56, 112
3, 47856, Note_off_c, 1, 56, 0
3, 47864, Note_off_c, 1, 63, 0
3, 47902, Note_on_c, 1, 63, 112
3, 47904, Note_on_c, 1, 56, 112
3, 47986, Note_off_c, 1, 73, 0
3, 47997, Note_off_c, 1, 56, 0
3, 47998, Note_on_c, 1, 73, 112
3, 48000, Note_on_c, 1, 49, 112
3, 48001, Note_on_c, 1, 56, 112
3, 48001, Note_on_c, 1, 65, 112
3, 48002, Note_off_c, 1, 66, 0
3, 48012, Note_off_c, 1, 63, 0
3, 48254, Note_off_c, 1, 49, 0
3, 48257, Note_off_c, 1, 56, 0
3, 48287, Note_on_c, 1, 49, 112
3, 48288, Note_on_c, 1, 56, 112
3, 48354, Note_off_c, 1, 73, 0
3, 48368, Note_off_c, 1, 65, 0
3, 48382, Note_on_c, 1, 66, 112
3, 48384, Note_on_c, 1, 58, 112
3, 48385, Note_off_c, 1, 49, 0
3, 48385, Note_on_c, 1, 73, 112
3, 48385, Note_on_c, 1, 49, 112
3, 48387, Note_off_c, 1, 56, 0
3, 48633, Note_off_c, 1, 49, 0
3, 48635, Note_off_c, 1, 58, 0
3, 48669, Note_on_c, 1, 49, 112
3, 48671, Note_on_c, 1, 58, 112
3, 48744, Note_off_c, 1, 73, 0
3, 48758, Note_off_c, 1, 66, 0
3, 48766, Note_on_c, 1, 53, 112
3, 48766, Note_on_c, 1, 61, 112
3, 48767, Note_on_c, 1, 68, 112
3, 48769, Note_on_c, 1, 73, 112
3, 48776, Note_off_c, 1, 49, 0
3, 48778, Note_off_c, 1, 58, 0
3, 49023, Note_off_c, 1, 53, 0
3, 49028, Note_off_c, 1, 61, 0
3, 49054, Note_on_c, 1, 53, 112
3, 49055, Note_on_c, 1, 61, 112
3, 49128, Note_off_c, 1, 73, 0
3, 49150, Note_off_c, 1, 61, 0
3, 49150, Note_on_c, 1, 73, 112
3, 49151, Note_on_c, 1, 70, 112
3, 49152, Note_on_c, 1, 58, 112
3, 49154, Note_on_c, 1, 65, 112
3, 49155, Note_off_c, 1, 68, 0
3, 49168, Note_off_c, 1, 53, 0
3, 49378, Note_off_c, 1, 58, 0
3, 49438, Note_on_c, 1, 58, 112
3, 49496, Note_off_c, 1, 65, 0
3, 49498, Note_off_c, 1, 70, 0
3, 49499, Note_off_c, 1, 73, 0
3, 49515, Note_off_c, 1, 58, 0
3, 49534, Note_on_c, 1, 66, 112
3, 49534, Note_on_c, 1, 51, 112
3, 49536, Note_on_c, 1, 73, 112
3, 49537, Note_on_c, 1, 58, 112
3, 49803, Note_off_c, 1, 51, 0
3, 49820, Note_off_c, 1, 58, 0
3, 49822, Note_on_c, 1, 51, 112
3, 49824, Note_on_c, 1, 58, 112
3, 49899, Note_off_c, 1, 73, 0
3, 49910, Note_off_c, 1, 66, 0
3, 49918, Note_on_c, 1, 73, 112
3, 49920, Note_on_c, 1, 61, 112
3, 49920, Note_on_c, 1, 54, 112
3, 49921, Note_on_c, 1, 70, 112
3, 49926, Note_off_c, 1, 51, 0
3, 49932, Note_off_c, 1, 58, 0
3, 50097, Note_off_c, 1, 61, 0
3, 50103, Note_off_c, 1, 54, 0
3, 50104, Note_off_c, 1, 73, 0
3, 50106, Note_off_c, 1, 70, 0
3, 50110, Note_on_c, 1, 56, 112
3, 50112, Note_on_c, 1, 66, 112
3, 50112, Note_on_c, 1, 72, 112
3, 50113, Note_on_c, 1, 63, 112
3, 50282, Note_off_c, 1, 72, 0
3, 50285, Note_off_c, 1, 66, 0
3, 50294, Note_off_c, 1, 56, 0
3, 50301, Note_off_c, 1, 63, 0
3, 54336, Note_on_c, 1, 42, 98
3, 54336, Note_on_c, 1, 61, 98
3, 54336, Note_on_c, 1, 70, 98
3, 54336, Note_on_c, 1, 66, 98
3, 54447, Control_c, 1, 64, 127
3, 54478, Note_off_c, 1, 66, 0
3, 54478, Note_off_c, 1, 70, 0
3, 54480, Note_off_c, 1, 61, 0
3, 54490, Note_off_c, 1, 42, 0
3, 54720, Note_on_c, 1, 44, 98
3, 54720, Note_on_c, 1, 70, 98
3, 54720, Note_on_c, 1, 66, 98
3, 54720, Note_on_c, 1, 63, 98
3, 54720, Note_on_c, 1, 73, 98
3, 54738, Control_c, 1, 64, 0
3, 54789, Control_c, 1, 64, 127
3, 54807, Note_off_c, 1, 66, 0
3, 54809, Note_off_c, 1, 70, 0
3, 54809, Note_off_c, 1, 63, 0
3, 54810, Note_off_c, 1, 73, 0
3, 54822, Note_off_c, 1, 44, 0
3, 55104, Note_on_c, 1, 37, 98
3, 55104, Note_on_c, 1, 73, 98
3, 55104, Note_on_c, 1, 68, 98
3, 55104, Note_on_c, 1, 61, 98
3, 55104, Note_on_c, 1, 65, 98
3, 55110, Control_c, 1, 64, 0
3, 55164, Control_c, 1, 64, 127
3, 55200, Note_off_c, 1, 68, 0
3, 55208, Note_off_c, 1, 65, 0
3, 55212, Note_off_c, 1, 73, 0
3, 55213, Note_off_c, 1, 61, 0
3, 55296, Note_on_c, 1, 63, 98
3, 55356, Note_off_c, 1, 63, 0
3, 55392, Note_on_c, 1, 65, 98
3, 55472, Note_off_c, 1, 65, 0
3, 55488, Note_on_c, 1, 73, 98
3, 55488, Note_on_c, 1, 68, 98
3, 55520, Note_off_c, 1, 68, 0
3, 55534, Note_off_c, 1, 73, 0
3, 55759, Note_off_c, 1, 37, 0
3, 55872, Note_on_c, 1, 70, 98
3, 55872, Note_on_c, 1, 66, 98
3, 55872, Note_on_c, 1, 42, 98
3, 55872, Note_on_c, 1, 61, 98
3, 55873, Control_c, 1, 64, 0
3, 56134, Note_off_c, 1, 66, 0
3, 56140, Note_off_c, 1, 70, 0
3, 56154, Note_off_c, 1, 42, 0
3, 56160, Note_on_c, 1, 68, 98
3, 56160, Note_on_c, 1, 41, 98
3, 56160, Note_on_c, 1, 65, 98
3, 56240, Note_off_c, 1, 65, 0
3, 56247, Note_off_c, 1, 68, 0
3, 56256, Note_on_c, 1, 70, 98
3, 56256, Note_on_c, 1, 66, 98
3, 56256, Note_on_c, 1, 42, 98
3, 56265, Note_off_c, 1, 41, 0
3, 56412, Note_off_c, 1, 66, 0
3, 56417, Note_off_c, 1, 42, 0
3, 56420, Note_off_c, 1, 70, 0
3, 56421, Note_off_c, 1, 61, 0
3, 56448, Note_on_c, 1, 44, 98
3, 56448, Note_on_c, 1, 70, 98
3, 56448, Note_on_c, 1, 61, 98
3, 56448, Note_on_c, 1, 66, 98
3, 56532, Note_off_c, 1, 66, 0
3, 56532, Note_off_c, 1, 61, 0
3, 56534, Note_off_c, 1, 44, 0
3, 56537, Note_off_c, 1, 70, 0
3, 56544, Note_on_c, 1, 44, 98
3, 56544, Note_on_c, 1, 63, 98
3, 56544, Note_on_c, 1, 72, 98
3, 56544, Note_on_c, 1, 68, 98
3, 56637, Note_off_c, 1, 68, 0
3, 56638, Note_off_c, 1, 72, 0
3, 56638, Note_off_c, 1, 63, 0
3, 56638, Note_off_c, 1, 44, 0
3, 58952, Control_c, 1, 121, 0
3, 58960, Control_c, 1, 91, 0
3, 58968, Control_c, 1, 93, 0
3, 58968, End_track
4, 0, Start_track
4, 0, Title_t, "Clavinet"
4, 0, Channel_prefix, 2
4, 0, Control_c, 2, 7, 110
4, 0, Control_c, 2, 10, 64
4, 0, Program_c, 2, 8
4, 40, Control_c, 2, 121, 0
4, 48, Control_c, 2, 11, 102
4, 64, Control_c, 2, 91, 100
4, 72, Control_c, 2, 93, 30
4, 768, Note_on_c, 2, 58, 62
4, 814, Note_on_c, 2, 70, 72
4, 864, Note_on_c, 2, 65, 67
4, 910, Note_off_c, 2, 58, 0
4, 910, Note_on_c, 2, 58, 60
4, 959, Note_off_c, 2, 70, 0
4, 959, Note_on_c, 2, 70, 72
4, 1005, Note_off_c, 2, 65, 0
4, 1005, Note_on_c, 2, 65, 65
4, 1056, Note_off_c, 2, 58, 0
4, 1056, Note_on_c, 2, 58, 59
4, 1104, Note_off_c, 2, 70, 0
4, 1104, Note_on_c, 2, 70, 68
4, 1152, Note_off_c, 2, 65, 0
4, 1152, Note_on_c, 2, 65, 60
4, 1198, Note_off_c, 2, 70, 0
4, 1198, Note_on_c, 2, 70, 73
4, 1248, Note_off_c, 2, 65, 0
4, 1248, Note_on_c, 2, 65, 61
4, 1296, Note_off_c, 2, 58, 0
4, 1296, Note_on_c, 2, 58, 54
4, 1343, Note_off_c, 2, 70, 0
4, 1343, Note_on_c, 2, 70, 73
4, 1390, Note_off_c, 2, 65, 0
4, 1390, Note_on_c, 2, 65, 63
4, 1440, Note_off_c, 2, 58, 0
4, 1440, Note_on_c, 2, 58, 58
4, 1488, Note_off_c, 2, 70, 0
4, 1488, Note_on_c, 2, 70, 73
4, 1537, Note_off_c, 2, 58, 0
4, 1537, Note_on_c, 2, 58, 48
4, 1582, Note_off_c, 2, 70, 0
4, 1582, Note_on_c, 2, 70, 71
4, 1633, Note_off_c, 2, 65, 0
4, 1633, Note_on_c, 2, 65, 65
4, 1680, Note_off_c, 2, 58, 0
4, 1680, Note_on_c, 2, 58, 54
4, 1728, Note_off_c, 2, 70, 0
4, 1728, Note_on_c, 2, 70, 75
4, 1774, Note_off_c, 2, 65, 0
4, 1774, Note_on_c, 2, 65, 71
4, 1821, Note_off_c, 2, 58, 0
4, 1821, Note_on_c, 2, 58, 54
4, 1872, Note_off_c, 2, 70, 0
4, 1872, Note_on_c, 2, 70, 71
4, 1921, Note_off_c, 2, 65, 0
4, 1921, Note_on_c, 2, 65, 63
4, 1965, Note_off_c, 2, 70, 0
4, 1965, Note_on_c, 2, 70, 69
4, 2014, Note_off_c, 2, 65, 0
4, 2014, Note_on_c, 2, 65, 63
4, 2066, Note_off_c, 2, 70, 0
4, 2066, Note_on_c, 2, 70, 44
4, 2110, Note_off_c, 2, 65, 0
4, 2110, Note_on_c, 2, 65, 72
4, 2161, Note_off_c, 2, 58, 0
4, 2161, Note_on_c, 2, 58, 48
4, 2206, Note_off_c, 2, 70, 0
4, 2206, Note_on_c, 2, 70, 69
4, 2256, Note_off_c, 2, 65, 0
4, 2256, Note_on_c, 2, 65, 60
4, 2305, Note_off_c, 2, 58, 0
4, 2305, Note_on_c, 2, 58, 48
4, 2351, Note_off_c, 2, 70, 0
4, 2351, Note_on_c, 2, 70, 63
4, 2397, Note_off_c, 2, 65, 0
4, 2397, Note_on_c, 2, 65, 71
4, 2449, Note_off_c, 2, 58, 0
4, 2449, Note_on_c, 2, 58, 48
4, 2496, Note_off_c, 2, 70, 0
4, 2496, Note_on_c, 2, 70, 69
4, 2545, Note_off_c, 2, 65, 0
4, 2545, Note_on_c, 2, 65, 60
4, 2594, Note_off_c, 2, 70, 0
4, 2594, Note_on_c, 2, 70, 60
4, 2639, Note_off_c, 2, 65, 0
4, 2639, Note_on_c, 2, 65, 72
4, 2688, Note_off_c, 2, 58, 0
4, 2688, Note_on_c, 2, 58, 63
4, 2736, Note_off_c, 2, 70, 0
4, 2736, Note_on_c, 2, 70, 69
4, 2783, Note_off_c, 2, 65, 0
4, 2783, Note_on_c, 2, 65, 75
4, 2831, Note_off_c, 2, 58, 0
4, 2831, Note_on_c, 2, 58, 54
4, 2878, Note_off_c, 2, 70, 0
4, 2878, Note_on_c, 2, 70, 63
4, 2929, Note_off_c, 2, 65, 0
4, 2929, Note_on_c, 2, 65, 59
4, 2976, Note_off_c, 2, 70, 0
4, 2976, Note_on_c, 2, 70, 63
4, 3024, Note_off_c, 2, 65, 0
4, 3024, Note_on_c, 2, 65, 70
4, 3073, Note_off_c, 2, 58, 0
4, 3073, Note_on_c, 2, 60, 71
4, 3117, Note_off_c, 2, 70, 0
4, 3117, Note_on_c, 2, 72, 49
4, 3169, Note_off_c, 2, 65, 0
4, 3169, Note_on_c, 2, 65, 57
4, 3217, Note_off_c, 2, 60, 0
4, 3217, Note_on_c, 2, 60, 65
4, 3264, Note_off_c, 2, 72, 0
4, 3264, Note_on_c, 2, 72, 72
4, 3313, Note_off_c, 2, 65, 0
4, 3313, Note_on_c, 2, 65, 61
4, 3360, Note_off_c, 2, 60, 0
4, 3360, Note_on_c, 2, 60, 66
4, 3408, Note_off_c, 2, 72, 0
4, 3408, Note_on_c, 2, 72, 73
4, 3457, Note_off_c, 2, 65, 0
4, 3457, Note_on_c, 2, 65, 62
4, 3503, Note_off_c, 2, 72, 0
4, 3503, Note_on_c, 2, 72, 65
4, 3549, Note_off_c, 2, 65, 0
4, 3549, Note_on_c, 2, 65, 69
4, 3596, Note_off_c, 2, 60, 0
4, 3598, Note_off_c, 2, 72, 0
4, 3598, Note_off_c, 2, 65, 0
4, 3598, Note_on_c, 2, 67, 67
4, 3598, Note_on_c, 2, 62, 30
4, 3691, Note_on_c, 2, 68, 59
4, 3691, Note_on_c, 2, 63, 34
4, 3698, Note_off_c, 2, 62, 0
4, 3698, Note_off_c, 2, 67, 0
4, 3704, Note_on_c, 2, 69, 56
4, 3704, Note_on_c, 2, 64, 33
4, 3709, Note_off_c, 2, 68, 0
4, 3709, Note_off_c, 2, 63, 0
4, 3716, Note_on_c, 2, 70, 52
4, 3716, Note_on_c, 2, 65, 31
4, 3722, Note_off_c, 2, 69, 0
4, 3722, Note_off_c, 2, 64, 0
4, 3728, Note_on_c, 2, 71, 50
4, 3728, Note_on_c, 2, 66, 30
4, 3734, Note_off_c, 2, 70, 0
4, 3734, Note_off_c, 2, 65, 0
4, 3743, Note_on_c, 2, 72, 52
4, 3743, Note_on_c, 2, 67, 31
4, 3746, Note_off_c, 2, 71, 0
4, 3746, Note_off_c, 2, 66, 0
4, 3866, Note_off_c, 2, 72, 0
4, 3866, Note_off_c, 2, 67, 0
4, 12288, Control_c, 2, 10, 64
4, 12288, Control_c, 2, 7, 110
4, 12288, Program_c, 2, 7
4, 12672, Control_c, 2, 10, 114
4, 13003, Note_on_c, 2, 70, 73
4, 13021, Note_on_c, 2, 65, 62
4, 13039, Note_on_c, 2, 62, 65
4, 13056, Note_on_c, 2, 58, 65
4, 13102, Note_off_c, 2, 70, 0
4, 13102, Note_on_c, 2, 70, 73
4, 13152, Note_off_c, 2, 65, 0
4, 13152, Note_on_c, 2, 65, 62
4, 13198, Note_off_c, 2, 58, 0
4, 13198, Note_on_c, 2, 58, 54
4, 13247, Note_off_c, 2, 70, 0
4, 13247, Note_on_c, 2, 70, 73
4, 13249, Note_on_c, 2, 46, 74
4, 13293, Note_off_c, 2, 65, 0
4, 13293, Note_on_c, 2, 65, 62
4, 13344, Note_off_c, 2, 58, 0
4, 13344, Note_on_c, 2, 58, 59
4, 13383, Note_off_c, 2, 62, 0
4, 13392, Note_off_c, 2, 70, 0
4, 13392, Note_on_c, 2, 70, 73
4, 13440, Note_off_c, 2, 58, 0
4, 13440, Note_on_c, 2, 58, 55
4, 13480, Note_off_c, 2, 46, 0
4, 13486, Note_off_c, 2, 70, 0
4, 13486, Note_on_c, 2, 70, 73
4, 13536, Note_off_c, 2, 65, 0
4, 13536, Note_on_c, 2, 65, 62
4, 13584, Note_off_c, 2, 58, 0
4, 13584, Note_on_c, 2, 58, 65
4, 13631, Note_off_c, 2, 70, 0
4, 13631, Note_on_c, 2, 70, 73
4, 13632, Note_on_c, 2, 46, 74
4, 13678, Note_off_c, 2, 65, 0
4, 13678, Note_on_c, 2, 65, 62
4, 13728, Note_off_c, 2, 70, 0
4, 13728, Note_on_c, 2, 70, 73
4, 13824, Note_off_c, 2, 58, 0
4, 13824, Note_on_c, 2, 58, 64
4, 13868, Note_off_c, 2, 46, 0
4, 13873, Note_off_c, 2, 70, 0
4, 13873, Note_on_c, 2, 70, 73
4, 13918, Note_off_c, 2, 65, 0
4, 13918, Note_on_c, 2, 65, 62
4, 13969, Note_off_c, 2, 58, 0
4, 13969, Note_on_c, 2, 58, 51
4, 14014, Note_on_c, 2, 46, 74
4, 14016, Note_off_c, 2, 70, 0
4, 14016, Note_on_c, 2, 70, 73
4, 14064, Note_off_c, 2, 65, 0
4, 14064, Note_on_c, 2, 65, 62
4, 14110, Note_off_c, 2, 58, 0
4, 14110, Note_on_c, 2, 58, 65
4, 14157, Note_off_c, 2, 70, 0
4, 14157, Note_on_c, 2, 70, 73
4, 14208, Note_off_c, 2, 58, 0
4, 14208, Note_on_c, 2, 58, 46
4, 14249, Note_off_c, 2, 46, 0
4, 14257, Note_off_c, 2, 70, 0
4, 14257, Note_on_c, 2, 70, 73
4, 14301, Note_off_c, 2, 65, 0
4, 14301, Note_on_c, 2, 65, 62
4, 14350, Note_off_c, 2, 58, 0
4, 14350, Note_on_c, 2, 58, 59
4, 14398, Note_on_c, 2, 46, 74
4, 14402, Note_off_c, 2, 70, 0
4, 14402, Note_on_c, 2, 70, 73
4, 14446, Note_off_c, 2, 65, 0
4, 14446, Note_on_c, 2, 65, 62
4, 14497, Note_off_c, 2, 58, 0
4, 14497, Note_on_c, 2, 58, 59
4, 14542, Note_off_c, 2, 65, 0
4, 14542, Note_on_c, 2, 65, 61
4, 14592, Note_off_c, 2, 70, 0
4, 14592, Note_on_c, 2, 70, 73
4, 14632, Note_off_c, 2, 46, 0
4, 14641, Note_off_c, 2, 65, 0
4, 14641, Note_on_c, 2, 65, 62
4, 14687, Note_off_c, 2, 70, 0
4, 14687, Note_on_c, 2, 70, 73
4, 14733, Note_off_c, 2, 65, 0
4, 14733, Note_on_c, 2, 65, 62
4, 14784, Note_on_c, 2, 46, 74
4, 14785, Note_off_c, 2, 58, 0
4, 14785, Note_on_c, 2, 58, 62
4, 14832, Note_off_c, 2, 70, 0
4, 14832, Note_on_c, 2, 70, 73
4, 14881, Note_off_c, 2, 65, 0
4, 14881, Note_on_c, 2, 65, 62
4, 14930, Note_off_c, 2, 58, 0
4, 14930, Note_on_c, 2, 58, 55
4, 14975, Note_off_c, 2, 70, 0
4, 14975, Note_on_c, 2, 70, 73
4, 15000, Note_off_c, 2, 46, 0
4, 15024, Note_off_c, 2, 65, 0
4, 15024, Note_on_c, 2, 65, 62
4, 15072, Note_off_c, 2, 70, 0
4, 15072, Note_on_c, 2, 70, 73
4, 15119, Note_off_c, 2, 65, 0
4, 15119, Note_on_c, 2, 65, 49
4, 15167, Note_off_c, 2, 58, 0
4, 15167, Note_on_c, 2, 58, 65
4, 15167, Note_on_c, 2, 41, 74
4, 15214, Note_off_c, 2, 70, 0
4, 15214, Note_on_c, 2, 70, 73
4, 15265, Note_off_c, 2, 65, 0
4, 15265, Note_on_c, 2, 65, 62
4, 15312, Note_off_c, 2, 58, 0
4, 15312, Note_on_c, 2, 58, 65
4, 15373, Note_off_c, 2, 41, 0
4, 15408, Note_off_c, 2, 70, 0
4, 15408, Note_on_c, 2, 70, 73
4, 15457, Note_off_c, 2, 65, 0
4, 15457, Note_on_c, 2, 65, 62
4, 15501, Note_off_c, 2, 58, 0
4, 15501, Note_on_c, 2, 58, 65
4, 15553, Note_off_c, 2, 70, 0
4, 15553, Note_on_c, 2, 70, 64
4, 15553, Note_on_c, 2, 46, 74
4, 15601, Note_off_c, 2, 65, 0
4, 15601, Note_on_c, 2, 65, 62
4, 15648, Note_off_c, 2, 70, 0
4, 15648, Note_on_c, 2, 70, 85
4, 15697, Note_off_c, 2, 70, 0
4, 15697, Note_on_c, 2, 72, 73
4, 15744, Note_off_c, 2, 72, 0
4, 15744, Note_on_c, 2, 74, 100
4, 15774, Note_off_c, 2, 46, 0
4, 15792, Note_off_c, 2, 65, 0
4, 15792, Note_on_c, 2, 65, 62
4, 15841, Note_off_c, 2, 74, 0
4, 15841, Note_on_c, 2, 70, 83
4, 15887, Note_off_c, 2, 70, 0
4, 15887, Note_on_c, 2, 75, 100
4, 15933, Note_off_c, 2, 75, 0
4, 15933, Note_on_c, 2, 74, 89
4, 15938, Note_on_c, 2, 41, 74
4, 15982, Note_off_c, 2, 65, 0
4, 15982, Note_on_c, 2, 65, 62
4, 16032, Note_off_c, 2, 74, 0
4, 16032, Note_on_c, 2, 72, 97
4, 16079, Note_off_c, 2, 72, 0
4, 16079, Note_on_c, 2, 70, 87
4, 16128, Note_off_c, 2, 58, 0
4, 16128, Note_off_c, 2, 41, 0
4, 16128, Note_on_c, 2, 58, 62
4, 16177, Note_off_c, 2, 70, 0
4, 16177, Note_on_c, 2, 70, 75
4, 16222, Note_off_c, 2, 65, 0
4, 16222, Note_on_c, 2, 65, 62
4, 16272, Note_off_c, 2, 58, 0
4, 16272, Note_on_c, 2, 58, 78
4, 16320, Note_off_c, 2, 70, 0
4, 16320, Note_on_c, 2, 70, 74
4, 16321, Note_on_c, 2, 46, 74
4, 16369, Note_off_c, 2, 65, 0
4, 16369, Note_on_c, 2, 65, 62
4, 16414, Note_off_c, 2, 58, 0
4, 16414, Note_on_c, 2, 58, 64
4, 16464, Note_off_c, 2, 70, 0
4, 16464, Note_on_c, 2, 70, 71
4, 16509, Note_off_c, 2, 58, 0
4, 16509, Note_on_c, 2, 58, 61
4, 16552, Note_off_c, 2, 46, 0
4, 16561, Note_off_c, 2, 70, 0
4, 16561, Note_on_c, 2, 70, 81
4, 16607, Note_off_c, 2, 65, 0
4, 16607, Note_on_c, 2, 65, 62
4, 16654, Note_off_c, 2, 58, 0
4, 16654, Note_on_c, 2, 58, 65
4, 16703, Note_off_c, 2, 70, 0
4, 16703, Note_on_c, 2, 70, 74
4, 16704, Note_on_c, 2, 46, 74
4, 16752, Note_off_c, 2, 65, 0
4, 16752, Note_on_c, 2, 65, 62
4, 16800, Note_off_c, 2, 58, 0
4, 16800, Note_on_c, 2, 58, 58
4, 16849, Note_off_c, 2, 70, 0
4, 16849, Note_on_c, 2, 70, 74
4, 16896, Note_off_c, 2, 58, 0
4, 16896, Note_on_c, 2, 58, 64
4, 16940, Note_off_c, 2, 46, 0
4, 16943, Note_off_c, 2, 70, 0
4, 16943, Note_on_c, 2, 70, 62
4, 16991, Note_off_c, 2, 65, 0
4, 16991, Note_on_c, 2, 65, 62
4, 17039, Note_off_c, 2, 58, 0
4, 17039, Note_on_c, 2, 58, 64
4, 17086, Note_on_c, 2, 46, 74
4, 17089, Note_off_c, 2, 70, 0
4, 17089, Note_on_c, 2, 70, 56
4, 17134, Note_off_c, 2, 65, 0
4, 17134, Note_on_c, 2, 65, 61
4, 17183, Note_off_c, 2, 58, 0
4, 17183, Note_on_c, 2, 58, 65
4, 17230, Note_off_c, 2, 70, 0
4, 17230, Note_on_c, 2, 70, 69
4, 17281, Note_off_c, 2, 58, 0
4, 17281, Note_on_c, 2, 58, 61
4, 17321, Note_off_c, 2, 46, 0
4, 17328, Note_off_c, 2, 70, 0
4, 17328, Note_on_c, 2, 70, 74
4, 17374, Note_off_c, 2, 65, 0
4, 17374, Note_on_c, 2, 65, 62
4, 17425, Note_off_c, 2, 58, 0
4, 17425, Note_on_c, 2, 58, 65
4, 17469, Note_off_c, 2, 70, 0
4, 17469, Note_on_c, 2, 70, 75
4, 17470, Note_on_c, 2, 46, 74
4, 17520, Note_off_c, 2, 58, 0
4, 17520, Note_on_c, 2, 58, 62
4, 17567, Note_off_c, 2, 65, 0
4, 17567, Note_on_c, 2, 65, 62
4, 17614, Note_off_c, 2, 70, 0
4, 17614, Note_on_c, 2, 70, 64
4, 17664, Note_off_c, 2, 58, 0
4, 17664, Note_on_c, 2, 60, 69
4, 17704, Note_off_c, 2, 46, 0
4, 17712, Note_off_c, 2, 70, 0
4, 17712, Note_on_c, 2, 70, 66
4, 17758, Note_off_c, 2, 65, 0
4, 17758, Note_on_c, 2, 63, 75
4, 17807, Note_off_c, 2, 60, 0
4, 17807, Note_on_c, 2, 60, 69
4, 17854, Note_off_c, 2, 70, 0
4, 17854, Note_on_c, 2, 70, 59
4, 17856, Note_on_c, 2, 46, 74
4, 17905, Note_off_c, 2, 63, 0
4, 17905, Note_on_c, 2, 63, 61
4, 17950, Note_off_c, 2, 60, 0
4, 17950, Note_on_c, 2, 60, 70
4, 18001, Note_off_c, 2, 70, 0
4, 18001, Note_on_c, 2, 70, 75
4, 18050, Note_off_c, 2, 60, 0
4, 18050, Note_on_c, 2, 60, 66
4, 18072, Note_off_c, 2, 46, 0
4, 18096, Note_off_c, 2, 70, 0
4, 18096, Note_on_c, 2, 70, 75
4, 18143, Note_off_c, 2, 63, 0
4, 18143, Note_on_c, 2, 63, 59
4, 18192, Note_off_c, 2, 60, 0
4, 18192, Note_on_c, 2, 60, 66
4, 18239, Note_on_c, 2, 41, 74
4, 18240, Note_off_c, 2, 70, 0
4, 18240, Note_on_c, 2, 72, 75
4, 18287, Note_off_c, 2, 63, 0
4, 18287, Note_on_c, 2, 65, 66
4, 18336, Note_off_c, 2, 60, 0
4, 18336, Note_on_c, 2, 60, 62
4, 18432, Note_on_c, 2, 58, 59
4, 18436, Note_off_c, 2, 72, 0
4, 18436, Note_off_c, 2, 60, 0
4, 18438, Note_off_c, 2, 65, 0
4, 18445, Note_off_c, 2, 41, 0
4, 18478, Note_on_c, 2, 70, 69
4, 18528, Note_on_c, 2, 65, 64
4, 18574, Note_off_c, 2, 58, 0
4, 18574, Note_on_c, 2, 58, 57
4, 18623, Note_off_c, 2, 70, 0
4, 18623, Note_on_c, 2, 70, 69
4, 18669, Note_off_c, 2, 65, 0
4, 18669, Note_on_c, 2, 65, 62
4, 18720, Note_off_c, 2, 58, 0
4, 18720, Note_on_c, 2, 58, 56
4, 18768, Note_off_c, 2, 70, 0
4, 18768, Note_on_c, 2, 70, 65
4, 18816, Note_off_c, 2, 65, 0
4, 18816, Note_on_c, 2, 65, 57
4, 18862, Note_off_c, 2, 70, 0
4, 18862, Note_on_c, 2, 70, 70
4, 18912, Note_off_c, 2, 65, 0
4, 18912, Note_on_c, 2, 65, 58
4, 18960, Note_off_c, 2, 58, 0
4, 18960, Note_on_c, 2, 58, 51
4, 19004, Note_off_c, 2, 65, 0
4, 19008, Note_on_c, 2, 65, 59
4, 19050, Note_off_c, 2, 70, 0
4, 19054, Note_on_c, 2, 70, 69
4, 19103, Note_off_c, 2, 65, 0
4, 19104, Note_on_c, 2, 65, 64
4, 19148, Note_off_c, 2, 58, 0
4, 19150, Note_on_c, 2, 58, 57
4, 19199, Note_off_c, 2, 70, 0
4, 19199, Note_on_c, 2, 70, 69
4, 19245, Note_off_c, 2, 65, 0
4, 19245, Note_on_c, 2, 65, 62
4, 19296, Note_off_c, 2, 58, 0
4, 19296, Note_on_c, 2, 58, 56
4, 19344, Note_off_c, 2, 70, 0
4, 19344, Note_on_c, 2, 70, 65
4, 19392, Note_off_c, 2, 65, 0
4, 19392, Note_on_c, 2, 65, 57
4, 19438, Note_off_c, 2, 70, 0
4, 19438, Note_on_c, 2, 70, 70
4, 19488, Note_off_c, 2, 65, 0
4, 19488, Note_on_c, 2, 65, 58
4, 19536, Note_off_c, 2, 58, 0
4, 19536, Note_on_c, 2, 58, 51
4, 19580, Note_off_c, 2, 65, 0
4, 19585, Note_on_c, 2, 65, 46
4, 19626, Note_off_c, 2, 70, 0
4, 19631, Note_on_c, 2, 70, 60
4, 19677, Note_on_c, 2, 65, 68
4, 19684, Note_off_c, 2, 65, 0
4, 19724, Note_off_c, 2, 58, 0
4, 19729, Note_on_c, 2, 58, 46
4, 19776, Note_off_c, 2, 70, 0
4, 19776, Note_on_c, 2, 70, 66
4, 19825, Note_off_c, 2, 65, 0
4, 19825, Note_on_c, 2, 65, 57
4, 19874, Note_off_c, 2, 70, 0
4, 19874, Note_on_c, 2, 70, 57
4, 19919, Note_off_c, 2, 65, 0
4, 19919, Note_on_c, 2, 65, 69
4, 19968, Note_off_c, 2, 58, 0
4, 19968, Note_on_c, 2, 58, 60
4, 20016, Note_off_c, 2, 70, 0
4, 20016, Note_on_c, 2, 70, 66
4, 20063, Note_off_c, 2, 65, 0
4, 20063, Note_on_c, 2, 65, 72
4, 20111, Note_off_c, 2, 58, 0
4, 20111, Note_on_c, 2, 58, 51
4, 20158, Note_off_c, 2, 70, 0
4, 20158, Note_on_c, 2, 70, 60
4, 20209, Note_off_c, 2, 65, 0
4, 20209, Note_on_c, 2, 65, 56
4, 20256, Note_off_c, 2, 70, 0
4, 20256, Note_on_c, 2, 70, 60
4, 20304, Note_off_c, 2, 65, 0
4, 20304, Note_on_c, 2, 65, 67
4, 20353, Note_off_c, 2, 58, 0
4, 20353, Note_on_c, 2, 60, 68
4, 20397, Note_off_c, 2, 70, 0
4, 20397, Note_on_c, 2, 72, 71
4, 20449, Note_off_c, 2, 65, 0
4, 20449, Note_on_c, 2, 65, 54
4, 20497, Note_off_c, 2, 60, 0
4, 20497, Note_on_c, 2, 60, 62
4, 20544, Note_off_c, 2, 72, 0
4, 20544, Note_on_c, 2, 72, 69
4, 20593, Note_off_c, 2, 65, 0
4, 20593, Note_on_c, 2, 65, 58
4, 20640, Note_off_c, 2, 60, 0
4, 20640, Note_on_c, 2, 60, 63
4, 20688, Note_off_c, 2, 72, 0
4, 20688, Note_on_c, 2, 72, 70
4, 20737, Note_off_c, 2, 65, 0
4, 20737, Note_on_c, 2, 67, 59
4, 20783, Note_off_c, 2, 72, 0
4, 20783, Note_on_c, 2, 74, 62
4, 20829, Note_off_c, 2, 67, 0
4, 20829, Note_on_c, 2, 67, 66
4, 20876, Note_off_c, 2, 60, 0
4, 20878, Note_off_c, 2, 74, 0
4, 20878, Note_off_c, 2, 67, 0
4, 20878, Note_on_c, 2, 69, 64
4, 20878, Note_on_c, 2, 64, 28
4, 20971, Note_on_c, 2, 70, 67
4, 20971, Note_on_c, 2, 65, 37
4, 20978, Note_off_c, 2, 64, 0
4, 20978, Note_off_c, 2, 69, 0
4, 20984, Note_on_c, 2, 71, 66
4, 20984, Note_on_c, 2, 66, 38
4, 20989, Note_off_c, 2, 70, 0
4, 20989, Note_off_c, 2, 65, 0
4, 20996, Note_on_c, 2, 72, 62
4, 20996, Note_on_c, 2, 67, 36
4, 21002, Note_off_c, 2, 71, 0
4, 21002, Note_off_c, 2, 66, 0
4, 21008, Note_on_c, 2, 73, 60
4, 21008, Note_on_c, 2, 68, 35
4, 21014, Note_off_c, 2, 72, 0
4, 21014, Note_off_c, 2, 67, 0
4, 21023, Note_on_c, 2, 74, 59
4, 21023, Note_on_c, 2, 69, 34
4, 21026, Note_off_c, 2, 73, 0
4, 21026, Note_off_c, 2, 68, 0
4, 21082, Note_on_c, 2, 75, 62
4, 21082, Note_on_c, 2, 70, 35
4, 21088, Note_off_c, 2, 74, 0
4, 21088, Note_off_c, 2, 69, 0
4, 21094, Note_on_c, 2, 76, 63
4, 21094, Note_on_c, 2, 71, 36
4, 21100, Note_off_c, 2, 75, 0
4, 21100, Note_off_c, 2, 70, 0
4, 21106, Note_on_c, 2, 77, 63
4, 21106, Note_on_c, 2, 72, 36
4, 21112, Note_off_c, 2, 76, 0
4, 21112, Note_off_c, 2, 71, 0
4, 21119, Note_on_c, 2, 78, 68
4, 21119, Note_on_c, 2, 73, 38
4, 21124, Note_off_c, 2, 77, 0
4, 21124, Note_off_c, 2, 72, 0
4, 21133, Note_on_c, 2, 79, 71
4, 21133, Note_on_c, 2, 74, 39
4, 21137, Note_off_c, 2, 78, 0
4, 21137, Note_off_c, 2, 73, 0
4, 21506, Note_off_c, 2, 79, 0
4, 21506, Note_off_c, 2, 74, 0
4, 27211, Note_on_c, 2, 72, 58
4, 27229, Note_on_c, 2, 67, 57
4, 27247, Note_on_c, 2, 64, 60
4, 27264, Note_on_c, 2, 60, 65
4, 27310, Note_off_c, 2, 72, 0
4, 27310, Note_on_c, 2, 72, 73
4, 27360, Note_off_c, 2, 67, 0
4, 27360, Note_on_c, 2, 67, 62
4, 27406, Note_off_c, 2, 60, 0
4, 27406, Note_on_c, 2, 60, 54
4, 27455, Note_off_c, 2, 72, 0
4, 27455, Note_on_c, 2, 72, 73
4, 27457, Note_on_c, 2, 48, 79
4, 27501, Note_off_c, 2, 67, 0
4, 27501, Note_on_c, 2, 67, 62
4, 27552, Note_off_c, 2, 60, 0
4, 27552, Note_on_c, 2, 60, 59
4, 27591, Note_off_c, 2, 64, 0
4, 27600, Note_off_c, 2, 72, 0
4, 27600, Note_on_c, 2, 72, 73
4, 27648, Note_off_c, 2, 60, 0
4, 27648, Note_on_c, 2, 60, 55
4, 27688, Note_off_c, 2, 48, 0
4, 27694, Note_off_c, 2, 72, 0
4, 27694, Note_on_c, 2, 72, 73
4, 27744, Note_off_c, 2, 67, 0
4, 27744, Note_on_c, 2, 67, 62
4, 27792, Note_off_c, 2, 60, 0
4, 27792, Note_on_c, 2, 60, 65
4, 27839, Note_off_c, 2, 72, 0
4, 27839, Note_on_c, 2, 72, 73
4, 27840, Note_on_c, 2, 48, 79
4, 27886, Note_off_c, 2, 67, 0
4, 27886, Note_on_c, 2, 67, 62
4, 27936, Note_off_c, 2, 72, 0
4, 27936, Note_on_c, 2, 72, 73
4, 28032, Note_off_c, 2, 60, 0
4, 28032, Note_on_c, 2, 60, 64
4, 28076, Note_off_c, 2, 48, 0
4, 28081, Note_off_c, 2, 72, 0
4, 28081, Note_on_c, 2, 72, 73
4, 28126, Note_off_c, 2, 67, 0
4, 28126, Note_on_c, 2, 67, 62
4, 28177, Note_off_c, 2, 60, 0
4, 28177, Note_on_c, 2, 60, 51
4, 28222, Note_on_c, 2, 48, 79
4, 28224, Note_off_c, 2, 72, 0
4, 28224, Note_on_c, 2, 72, 73
4, 28272, Note_off_c, 2, 67, 0
4, 28272, Note_on_c, 2, 67, 62
4, 28318, Note_off_c, 2, 60, 0
4, 28318, Note_on_c, 2, 60, 65
4, 28365, Note_off_c, 2, 72, 0
4, 28365, Note_on_c, 2, 72, 73
4, 28416, Note_off_c, 2, 60, 0
4, 28416, Note_on_c, 2, 60, 46
4, 28457, Note_off_c, 2, 48, 0
4, 28465, Note_off_c, 2, 72, 0
4, 28465, Note_on_c, 2, 72, 73
4, 28509, Note_off_c, 2, 67, 0
4, 28509, Note_on_c, 2, 67, 62
4, 28558, Note_off_c, 2, 60, 0
4, 28558, Note_on_c, 2, 60, 59
4, 28606, Note_on_c, 2, 48, 79
4, 28610, Note_off_c, 2, 72, 0
4, 28610, Note_on_c, 2, 72, 73
4, 28654, Note_off_c, 2, 67, 0
4, 28654, Note_on_c, 2, 67, 62
4, 28705, Note_off_c, 2, 60, 0
4, 28705, Note_on_c, 2, 60, 59
4, 28750, Note_off_c, 2, 67, 0
4, 28750, Note_on_c, 2, 67, 61
4, 28800, Note_off_c, 2, 72, 0
4, 28800, Note_on_c, 2, 72, 73
4, 28840, Note_off_c, 2, 48, 0
4, 28849, Note_off_c, 2, 67, 0
4, 28849, Note_on_c, 2, 67, 62
4, 28895, Note_off_c, 2, 72, 0
4, 28895, Note_on_c, 2, 72, 73
4, 28941, Note_off_c, 2, 67, 0
4, 28941, Note_on_c, 2, 67, 62
4, 28992, Note_on_c, 2, 48, 79
4, 28993, Note_off_c, 2, 60, 0
4, 28993, Note_on_c, 2, 60, 62
4, 29040, Note_off_c, 2, 72, 0
4, 29040, Note_on_c, 2, 72, 73
4, 29089, Note_off_c, 2, 67, 0
4, 29089, Note_on_c, 2, 67, 62
4, 29138, Note_off_c, 2, 60, 0
4, 29138, Note_on_c, 2, 60, 55
4, 29183, Note_off_c, 2, 72, 0
4, 29183, Note_on_c, 2, 72, 73
4, 29208, Note_off_c, 2, 48, 0
4, 29232, Note_off_c, 2, 67, 0
4, 29232, Note_on_c, 2, 67, 62
4, 29280, Note_off_c, 2, 72, 0
4, 29280, Note_on_c, 2, 72, 73
4, 29327, Note_off_c, 2, 67, 0
4, 29327, Note_on_c, 2, 67, 49
4, 29375, Note_off_c, 2, 60, 0
4, 29375, Note_on_c, 2, 60, 65
4, 29375, Note_on_c, 2, 43, 79
4, 29422, Note_off_c, 2, 72, 0
4, 29422, Note_on_c, 2, 72, 73
4, 29473, Note_off_c, 2, 67, 0
4, 29473, Note_on_c, 2, 67, 62
4, 29520, Note_off_c, 2, 60, 0
4, 29520, Note_on_c, 2, 60, 65
4, 29581, Note_off_c, 2, 43, 0
4, 29616, Note_off_c, 2, 72, 0
4, 29616, Note_on_c, 2, 72, 73
4, 29665, Note_off_c, 2, 67, 0
4, 29665, Note_on_c, 2, 67, 62
4, 29709, Note_off_c, 2, 60, 0
4, 29709, Note_on_c, 2, 60, 65
4, 29761, Note_off_c, 2, 72, 0
4, 29761, Note_on_c, 2, 72, 64
4, 29761, Note_on_c, 2, 48, 79
4, 29809, Note_off_c, 2, 67, 0
4, 29809, Note_on_c, 2, 67, 62
4, 29856, Note_off_c, 2, 72, 0
4, 29856, Note_on_c, 2, 72, 68
4, 29905, Note_off_c, 2, 72, 0
4, 29905, Note_on_c, 2, 74, 59
4, 29952, Note_off_c, 2, 74, 0
4, 29952, Note_on_c, 2, 76, 81
4, 29982, Note_off_c, 2, 48, 0
4, 30000, Note_off_c, 2, 67, 0
4, 30000, Note_on_c, 2, 67, 62
4, 30049, Note_off_c, 2, 76, 0
4, 30049, Note_on_c, 2, 72, 66
4, 30095, Note_off_c, 2, 72, 0
4, 30095, Note_on_c, 2, 77, 81
4, 30141, Note_off_c, 2, 77, 0
4, 30141, Note_on_c, 2, 76, 72
4, 30146, Note_on_c, 2, 43, 79
4, 30190, Note_off_c, 2, 67, 0
4, 30190, Note_on_c, 2, 67, 62
4, 30240, Note_off_c, 2, 76, 0
4, 30240, Note_on_c, 2, 74, 77
4, 30287, Note_off_c, 2, 74, 0
4, 30287, Note_on_c, 2, 72, 87
4, 30336, Note_off_c, 2, 60, 0
4, 30336, Note_off_c, 2, 43, 0
4, 30336, Note_on_c, 2, 60, 62
4, 30385, Note_off_c, 2, 72, 0
4, 30385, Note_on_c, 2, 72, 75
4, 30430, Note_off_c, 2, 67, 0
4, 30430, Note_on_c, 2, 67, 62
4, 30480, Note_off_c, 2, 60, 0
4, 30480, Note_on_c, 2, 60, 78
4, 30528, Note_off_c, 2, 72, 0
4, 30528, Note_on_c, 2, 72, 74
4, 30529, Note_on_c, 2, 48, 79
4, 30577, Note_off_c, 2, 67, 0
4, 30577, Note_on_c, 2, 67, 62
4, 30622, Note_off_c, 2, 60, 0
4, 30622, Note_on_c, 2, 60, 64
4, 30672, Note_off_c, 2, 72, 0
4, 30672, Note_on_c, 2, 72, 71
4, 30717, Note_off_c, 2, 60, 0
4, 30717, Note_on_c, 2, 60, 61
4, 30760, Note_off_c, 2, 48, 0
4, 30769, Note_off_c, 2, 72, 0
4, 30769, Note_on_c, 2, 72, 81
4, 30815, Note_off_c, 2, 67, 0
4, 30815, Note_on_c, 2, 67, 62
4, 30862, Note_off_c, 2, 60, 0
4, 30862, Note_on_c, 2, 60, 65
4, 30911, Note_off_c, 2, 72, 0
4, 30911, Note_on_c, 2, 72, 74
4, 30912, Note_on_c, 2, 48, 79
4, 30960, Note_off_c, 2, 67, 0
4, 30960, Note_on_c, 2, 67, 62
4, 31008, Note_off_c, 2, 60, 0
4, 31008, Note_on_c, 2, 60, 58
4, 31057, Note_off_c, 2, 72, 0
4, 31057, Note_on_c, 2, 72, 74
4, 31104, Note_off_c, 2, 60, 0
4, 31104, Note_on_c, 2, 60, 64
4, 31148, Note_off_c, 2, 48, 0
4, 31151, Note_off_c, 2, 72, 0
4, 31151, Note_on_c, 2, 72, 62
4, 31199, Note_off_c, 2, 67, 0
4, 31199, Note_on_c, 2, 67, 62
4, 31247, Note_off_c, 2, 60, 0
4, 31247, Note_on_c, 2, 60, 64
4, 31294, Note_on_c, 2, 48, 79
4, 31297, Note_off_c, 2, 72, 0
4, 31297, Note_on_c, 2, 72, 56
4, 31342, Note_off_c, 2, 67, 0
4, 31342, Note_on_c, 2, 67, 61
4, 31391, Note_off_c, 2, 60, 0
4, 31391, Note_on_c, 2, 60, 65
4, 31438, Note_off_c, 2, 72, 0
4, 31438, Note_on_c, 2, 72, 69
4, 31489, Note_off_c, 2, 60, 0
4, 31489, Note_on_c, 2, 60, 61
4, 31529, Note_off_c, 2, 48, 0
4, 31536, Note_off_c, 2, 72, 0
4, 31536, Note_on_c, 2, 72, 74
4, 31582, Note_off_c, 2, 67, 0
4, 31582, Note_on_c, 2, 67, 62
4, 31633, Note_off_c, 2, 60, 0
4, 31633, Note_on_c, 2, 60, 65
4, 31677, Note_off_c, 2, 72, 0
4, 31677, Note_on_c, 2, 72, 75
4, 31678, Note_on_c, 2, 48, 79
4, 31728, Note_off_c, 2, 60, 0
4, 31728, Note_on_c, 2, 60, 62
4, 31775, Note_off_c, 2, 67, 0
4, 31775, Note_on_c, 2, 67, 62
4, 31822, Note_off_c, 2, 72, 0
4, 31822, Note_on_c, 2, 72, 64
4, 31872, Note_off_c, 2, 60, 0
4, 31872, Note_on_c, 2, 62, 69
4, 31912, Note_off_c, 2, 48, 0
4, 31920, Note_off_c, 2, 72, 0
4, 31920, Note_on_c, 2, 72, 66
4, 31966, Note_off_c, 2, 67, 0
4, 31966, Note_on_c, 2, 65, 75
4, 32015, Note_off_c, 2, 62, 0
4, 32015, Note_on_c, 2, 62, 69
4, 32062, Note_off_c, 2, 72, 0
4, 32062, Note_on_c, 2, 72, 59
4, 32064, Note_on_c, 2, 48, 79
4, 32113, Note_off_c, 2, 65, 0
4, 32113, Note_on_c, 2, 65, 61
4, 32158, Note_off_c, 2, 62, 0
4, 32158, Note_on_c, 2, 62, 70
4, 32209, Note_off_c, 2, 72, 0
4, 32209, Note_on_c, 2, 72, 75
4, 32258, Note_off_c, 2, 62, 0
4, 32258, Note_on_c, 2, 62, 66
4, 32280, Note_off_c, 2, 48, 0
4, 32304, Note_off_c, 2, 72, 0
4, 32304, Note_on_c, 2, 72, 75
4, 32351, Note_off_c, 2, 65, 0
4, 32351, Note_on_c, 2, 65, 59
4, 32400, Note_off_c, 2, 62, 0
4, 32400, Note_on_c, 2, 62, 66
4, 32447, Note_on_c, 2, 43, 79
4, 32448, Note_off_c, 2, 72, 0
4, 32448, Note_on_c, 2, 74, 75
4, 32495, Note_off_c, 2, 65, 0
4, 32495, Note_on_c, 2, 67, 66
4, 32544, Note_off_c, 2, 62, 0
4, 32544, Note_on_c, 2, 62, 62
4, 32644, Note_off_c, 2, 74, 0
4, 32644, Note_off_c, 2, 62, 0
4, 32646, Note_off_c, 2, 67, 0
4, 32653, Note_off_c, 2, 43, 0
4, 35813, Note_on_c, 2, 76, 88
4, 35861, Note_on_c, 2, 81, 88
4, 35909, Note_on_c, 2, 84, 88
4, 35955, Note_off_c, 2, 76, 0
4, 35957, Note_on_c, 2, 76, 73
4, 36000, Note_off_c, 2, 84, 0
4, 36005, Note_on_c, 2, 84, 88
4, 36023, Pitch_bend_c, 2, 7894
4, 36033, Pitch_bend_c, 2, 7521
4, 36048, Pitch_bend_c, 2, 7894
4, 36051, Pitch_bend_c, 2, 8265
4, 36054, Pitch_bend_c, 2, 8638
4, 36058, Pitch_bend_c, 2, 9011
4, 36065, Pitch_bend_c, 2, 9383
4, 36072, Pitch_bend_c, 2, 9011
4, 36076, Pitch_bend_c, 2, 8638
4, 36079, Pitch_bend_c, 2, 7894
4, 36082, Pitch_bend_c, 2, 7521
4, 36090, Pitch_bend_c, 2, 7149
4, 36107, Pitch_bend_c, 2, 7521
4, 36110, Pitch_bend_c, 2, 7894
4, 36114, Pitch_bend_c, 2, 8265
4, 36118, Pitch_bend_c, 2, 8638
4, 36124, Pitch_bend_c, 2, 9011
4, 36138, Pitch_bend_c, 2, 8638
4, 36153, Pitch_bend_c, 2, 8192
4, 36170, Note_off_c, 2, 76, 0
4, 36172, Note_off_c, 2, 81, 0
4, 36176, Note_off_c, 2, 84, 0
4, 36581, Note_on_c, 2, 74, 96
4, 36629, Note_on_c, 2, 80, 96
4, 36677, Note_on_c, 2, 83, 103
4, 36687, Pitch_bend_c, 2, 8638
4, 36691, Pitch_bend_c, 2, 9011
4, 36698, Pitch_bend_c, 2, 9383
4, 36708, Pitch_bend_c, 2, 9011
4, 36712, Pitch_bend_c, 2, 8638
4, 36715, Pitch_bend_c, 2, 8265
4, 36719, Pitch_bend_c, 2, 7894
4, 36729, Pitch_bend_c, 2, 7521
4, 36744, Pitch_bend_c, 2, 7894
4, 36747, Pitch_bend_c, 2, 8265
4, 36750, Pitch_bend_c, 2, 8638
4, 36754, Pitch_bend_c, 2, 9011
4, 36761, Pitch_bend_c, 2, 9383
4, 36768, Pitch_bend_c, 2, 9011
4, 36772, Pitch_bend_c, 2, 8638
4, 36775, Pitch_bend_c, 2, 7894
4, 36778, Pitch_bend_c, 2, 7521
4, 36786, Pitch_bend_c, 2, 7149
4, 36803, Pitch_bend_c, 2, 7521
4, 36806, Pitch_bend_c, 2, 7894
4, 36810, Pitch_bend_c, 2, 8265
4, 36814, Pitch_bend_c, 2, 8638
4, 36820, Pitch_bend_c, 2, 9011
4, 36834, Pitch_bend_c, 2, 8638
4, 36849, Pitch_bend_c, 2, 8192
4, 37025, Note_off_c, 2, 74, 0
4, 37027, Note_off_c, 2, 83, 0
4, 37030, Note_off_c, 2, 80, 0
4, 38784, Note_on_c, 2, 60, 70
4, 38830, Note_on_c, 2, 72, 78
4, 38880, Note_on_c, 2, 67, 66
4, 38926, Note_off_c, 2, 60, 0
4, 38926, Note_on_c, 2, 60, 58
4, 38975, Note_off_c, 2, 72, 0
4, 38975, Note_on_c, 2, 72, 78
4, 38977, Note_on_c, 2, 48, 85
4, 39021, Note_off_c, 2, 67, 0
4, 39021, Note_on_c, 2, 67, 66
4, 39072, Note_off_c, 2, 60, 0
4, 39072, Note_on_c, 2, 60, 63
4, 39120, Note_off_c, 2, 72, 0
4, 39120, Note_on_c, 2, 72, 78
4, 39168, Note_off_c, 2, 60, 0
4, 39168, Note_on_c, 2, 60, 59
4, 39208, Note_off_c, 2, 48, 0
4, 39214, Note_off_c, 2, 72, 0
4, 39214, Note_on_c, 2, 72, 78
4, 39264, Note_off_c, 2, 67, 0
4, 39264, Note_on_c, 2, 67, 66
4, 39312, Note_off_c, 2, 60, 0
4, 39312, Note_on_c, 2, 60, 70
4, 39359, Note_off_c, 2, 72, 0
4, 39359, Note_on_c, 2, 72, 78
4, 39360, Note_on_c, 2, 48, 85
4, 39406, Note_off_c, 2, 67, 0
4, 39406, Note_on_c, 2, 67, 66
4, 39456, Note_off_c, 2, 72, 0
4, 39456, Note_on_c, 2, 72, 78
4, 39552, Note_off_c, 2, 60, 0
4, 39552, Note_on_c, 2, 60, 69
4, 39596, Note_off_c, 2, 48, 0
4, 39601, Note_off_c, 2, 72, 0
4, 39601, Note_on_c, 2, 72, 78
4, 39646, Note_off_c, 2, 67, 0
4, 39646, Note_on_c, 2, 67, 66
4, 39697, Note_off_c, 2, 60, 0
4, 39697, Note_on_c, 2, 60, 55
4, 39742, Note_on_c, 2, 48, 85
4, 39744, Note_off_c, 2, 72, 0
4, 39744, Note_on_c, 2, 72, 78
4, 39792, Note_off_c, 2, 67, 0
4, 39792, Note_on_c, 2, 67, 66
4, 39838, Note_off_c, 2, 60, 0
4, 39838, Note_on_c, 2, 60, 70
4, 39885, Note_off_c, 2, 72, 0
4, 39885, Note_on_c, 2, 72, 78
4, 39936, Note_off_c, 2, 60, 0
4, 39936, Note_on_c, 2, 60, 49
4, 39977, Note_off_c, 2, 48, 0
4, 39985, Note_off_c, 2, 72, 0
4, 39985, Note_on_c, 2, 72, 78
4, 40029, Note_off_c, 2, 67, 0
4, 40029, Note_on_c, 2, 67, 66
4, 40078, Note_off_c, 2, 60, 0
4, 40078, Note_on_c, 2, 60, 63
4, 40126, Note_on_c, 2, 48, 85
4, 40130, Note_off_c, 2, 72, 0
4, 40130, Note_on_c, 2, 72, 78
4, 40174, Note_off_c, 2, 67, 0
4, 40174, Note_on_c, 2, 67, 66
4, 40225, Note_off_c, 2, 60, 0
4, 40225, Note_on_c, 2, 60, 63
4, 40270, Note_off_c, 2, 67, 0
4, 40270, Note_on_c, 2, 67, 65
4, 40320, Note_off_c, 2, 72, 0
4, 40320, Note_on_c, 2, 72, 78
4, 40360, Note_off_c, 2, 48, 0
4, 40369, Note_off_c, 2, 67, 0
4, 40369, Note_on_c, 2, 67, 66
4, 40415, Note_off_c, 2, 72, 0
4, 40415, Note_on_c, 2, 72, 78
4, 40461, Note_off_c, 2, 67, 0
4, 40461, Note_on_c, 2, 67, 66
4, 40512, Note_on_c, 2, 48, 85
4, 40513, Note_off_c, 2, 60, 0
4, 40513, Note_on_c, 2, 60, 66
4, 40560, Note_off_c, 2, 72, 0
4, 40560, Note_on_c, 2, 72, 78
4, 40609, Note_off_c, 2, 67, 0
4, 40609, Note_on_c, 2, 67, 66
4, 40658, Note_off_c, 2, 60, 0
4, 40658, Note_on_c, 2, 60, 59
4, 40703, Note_off_c, 2, 72, 0
4, 40703, Note_on_c, 2, 72, 78
4, 40728, Note_off_c, 2, 48, 0
4, 40752, Note_off_c, 2, 67, 0
4, 40752, Note_on_c, 2, 67, 66
4, 40800, Note_off_c, 2, 72, 0
4, 40800, Note_on_c, 2, 72, 78
4, 40847, Note_off_c, 2, 67, 0
4, 40847, Note_on_c, 2, 67, 52
4, 40895, Note_off_c, 2, 60, 0
4, 40895, Note_on_c, 2, 60, 70
4, 40895, Note_on_c, 2, 43, 85
4, 40942, Note_off_c, 2, 72, 0
4, 40942, Note_on_c, 2, 72, 78
4, 40993, Note_off_c, 2, 67, 0
4, 40993, Note_on_c, 2, 67, 66
4, 41040, Note_off_c, 2, 60, 0
4, 41040, Note_on_c, 2, 60, 70
4, 41101, Note_off_c, 2, 43, 0
4, 41136, Note_off_c, 2, 72, 0
4, 41136, Note_on_c, 2, 72, 78
4, 41185, Note_off_c, 2, 67, 0
4, 41185, Note_on_c, 2, 67, 66
4, 41229, Note_off_c, 2, 60, 0
4, 41229, Note_on_c, 2, 60, 70
4, 41281, Note_off_c, 2, 72, 0
4, 41281, Note_on_c, 2, 72, 69
4, 41281, Note_on_c, 2, 48, 85
4, 41329, Note_off_c, 2, 67, 0
4, 41329, Note_on_c, 2, 67, 66
4, 41376, Note_off_c, 2, 72, 0
4, 41376, Note_on_c, 2, 72, 73
4, 41425, Note_off_c, 2, 72, 0
4, 41425, Note_on_c, 2, 74, 63
4, 41472, Note_off_c, 2, 74, 0
4, 41472, Note_on_c, 2, 76, 87
4, 41502, Note_off_c, 2, 48, 0
4, 41520, Note_off_c, 2, 67, 0
4, 41520, Note_on_c, 2, 67, 66
4, 41569, Note_off_c, 2, 76, 0
4, 41569, Note_on_c, 2, 72, 71
4, 41615, Note_off_c, 2, 72, 0
4, 41615, Note_on_c, 2, 77, 87
4, 41661, Note_off_c, 2, 77, 0
4, 41661, Note_on_c, 2, 76, 77
4, 41666, Note_on_c, 2, 43, 85
4, 41710, Note_off_c, 2, 67, 0
4, 41710, Note_on_c, 2, 67, 66
4, 41760, Note_off_c, 2, 76, 0
4, 41760, Note_on_c, 2, 74, 83
4, 41807, Note_off_c, 2, 74, 0
4, 41807, Note_on_c, 2, 72, 93
4, 41856, Note_off_c, 2, 60, 0
4, 41856, Note_off_c, 2, 43, 0
4, 41856, Note_on_c, 2, 60, 66
4, 41905, Note_off_c, 2, 72, 0
4, 41905, Note_on_c, 2, 72, 81
4, 41950, Note_off_c, 2, 67, 0
4, 41950, Note_on_c, 2, 67, 66
4, 42000, Note_off_c, 2, 60, 0
4, 42000, Note_on_c, 2, 60, 84
4, 42048, Note_off_c, 2, 72, 0
4, 42048, Note_on_c, 2, 72, 79
4, 42049, Note_on_c, 2, 48, 85
4, 42097, Note_off_c, 2, 67, 0
4, 42097, Note_on_c, 2, 67, 66
4, 42142, Note_off_c, 2, 60, 0
4, 42142, Note_on_c, 2, 60, 69
4, 42192, Note_off_c, 2, 72, 0
4, 42192, Note_on_c, 2, 72, 76
4, 42237, Note_off_c, 2, 60, 0
4, 42237, Note_on_c, 2, 60, 65
4, 42280, Note_off_c, 2, 48, 0
4, 42289, Note_off_c, 2, 72, 0
4, 42289, Note_on_c, 2, 72, 87
4, 42335, Note_off_c, 2, 67, 0
4, 42335, Note_on_c, 2, 67, 66
4, 42382, Note_off_c, 2, 60, 0
4, 42382, Note_on_c, 2, 60, 70
4, 42431, Note_off_c, 2, 72, 0
4, 42431, Note_on_c, 2, 72, 79
4, 42432, Note_on_c, 2, 48, 85
4, 42480, Note_off_c, 2, 67, 0
4, 42480, Note_on_c, 2, 67, 66
4, 42528, Note_off_c, 2, 60, 0
4, 42528, Note_on_c, 2, 60, 62
4, 42577, Note_off_c, 2, 72, 0
4, 42577, Note_on_c, 2, 72, 79
4, 42624, Note_off_c, 2, 60, 0
4, 42624, Note_on_c, 2, 60, 69
4, 42668, Note_off_c, 2, 48, 0
4, 42671, Note_off_c, 2, 72, 0
4, 42671, Note_on_c, 2, 72, 66
4, 42719, Note_off_c, 2, 67, 0
4, 42719, Note_on_c, 2, 67, 66
4, 42767, Note_off_c, 2, 60, 0
4, 42767, Note_on_c, 2, 60, 69
4, 42814, Note_on_c, 2, 48, 85
4, 42817, Note_off_c, 2, 72, 0
4, 42817, Note_on_c, 2, 72, 60
4, 42862, Note_off_c, 2, 67, 0
4, 42862, Note_on_c, 2, 67, 65
4, 42911, Note_off_c, 2, 60, 0
4, 42911, Note_on_c, 2, 60, 70
4, 42958, Note_off_c, 2, 72, 0
4, 42958, Note_on_c, 2, 72, 74
4, 43009, Note_off_c, 2, 60, 0
4, 43009, Note_on_c, 2, 60, 65
4, 43049, Note_off_c, 2, 48, 0
4, 43056, Note_off_c, 2, 72, 0
4, 43056, Note_on_c, 2, 72, 79
4, 43102, Note_off_c, 2, 67, 0
4, 43102, Note_on_c, 2, 67, 66
4, 43153, Note_off_c, 2, 60, 0
4, 43153, Note_on_c, 2, 60, 70
4, 43197, Note_off_c, 2, 72, 0
4, 43197, Note_on_c, 2, 72, 81
4, 43198, Note_on_c, 2, 48, 85
4, 43248, Note_off_c, 2, 60, 0
4, 43248, Note_on_c, 2, 60, 66
4, 43295, Note_off_c, 2, 67, 0
4, 43295, Note_on_c, 2, 67, 66
4, 43342, Note_off_c, 2, 72, 0
4, 43342, Note_on_c, 2, 72, 69
4, 43392, Note_off_c, 2, 60, 0
4, 43392, Note_on_c, 2, 62, 74
4, 43432, Note_off_c, 2, 48, 0
4, 43440, Note_off_c, 2, 72, 0
4, 43440, Note_on_c, 2, 72, 71
4, 43486, Note_off_c, 2, 67, 0
4, 43486, Note_on_c, 2, 65, 81
4, 43535, Note_off_c, 2, 62, 0
4, 43535, Note_on_c, 2, 62, 74
4, 43582, Note_off_c, 2, 72, 0
4, 43582, Note_on_c, 2, 72, 63
4, 43584, Note_on_c, 2, 48, 85
4, 43633, Note_off_c, 2, 65, 0
4, 43633, Note_on_c, 2, 65, 65
4, 43678, Note_off_c, 2, 62, 0
4, 43678, Note_on_c, 2, 62, 75
4, 43729, Note_off_c, 2, 72, 0
4, 43729, Note_on_c, 2, 72, 81
4, 43778, Note_off_c, 2, 62, 0
4, 43778, Note_on_c, 2, 62, 71
4, 43800, Note_off_c, 2, 48, 0
4, 43824, Note_off_c, 2, 72, 0
4, 43824, Note_on_c, 2, 72, 81
4, 43871, Note_off_c, 2, 65, 0
4, 43871, Note_on_c, 2, 65, 63
4, 43920, Note_off_c, 2, 62, 0
4, 43920, Note_on_c, 2, 62, 71
4, 43967, Note_on_c, 2, 43, 85
4, 43968, Note_off_c, 2, 72, 0
4, 43968, Note_on_c, 2, 74, 81
4, 44015, Note_off_c, 2, 65, 0
4, 44015, Note_on_c, 2, 67, 71
4, 44064, Note_off_c, 2, 62, 0
4, 44064, Note_on_c, 2, 62, 66
4, 44164, Note_off_c, 2, 74, 0
4, 44164, Note_off_c, 2, 62, 0
4, 44166, Note_off_c, 2, 67, 0
4, 44173, Note_off_c, 2, 43, 0
4, 44928, Note_on_c, 2, 61, 70
4, 44974, Note_on_c, 2, 73, 78
4, 45024, Note_on_c, 2, 68, 66
4, 45070, Note_off_c, 2, 61, 0
4, 45070, Note_on_c, 2, 61, 58
4, 45119, Note_off_c, 2, 73, 0
4, 45119, Note_on_c, 2, 73, 78
4, 45121, Note_on_c, 2, 49, 85
4, 45165, Note_off_c, 2, 68, 0
4, 45165, Note_on_c, 2, 68, 66
4, 45216, Note_off_c, 2, 61, 0
4, 45216, Note_on_c, 2, 61, 63
4, 45264, Note_off_c, 2, 73, 0
4, 45264, Note_on_c, 2, 73, 78
4, 45312, Note_off_c, 2, 61, 0
4, 45312, Note_on_c, 2, 61, 59
4, 45352, Note_off_c, 2, 49, 0
4, 45358, Note_off_c, 2, 73, 0
4, 45358, Note_on_c, 2, 73, 78
4, 45408, Note_off_c, 2, 68, 0
4, 45408, Note_on_c, 2, 68, 66
4, 45456, Note_off_c, 2, 61, 0
4, 45456, Note_on_c, 2, 61, 70
4, 45503, Note_off_c, 2, 73, 0
4, 45503, Note_on_c, 2, 73, 78
4, 45504, Note_on_c, 2, 49, 85
4, 45550, Note_off_c, 2, 68, 0
4, 45550, Note_on_c, 2, 68, 66
4, 45600, Note_off_c, 2, 73, 0
4, 45600, Note_on_c, 2, 73, 78
4, 45696, Note_off_c, 2, 61, 0
4, 45696, Note_on_c, 2, 61, 69
4, 45740, Note_off_c, 2, 49, 0
4, 45745, Note_off_c, 2, 73, 0
4, 45745, Note_on_c, 2, 73, 78
4, 45790, Note_off_c, 2, 68, 0
4, 45790, Note_on_c, 2, 68, 66
4, 45841, Note_off_c, 2, 61, 0
4, 45841, Note_on_c, 2, 61, 55
4, 45886, Note_on_c, 2, 49, 85
4, 45888, Note_off_c, 2, 73, 0
4, 45888, Note_on_c, 2, 73, 78
4, 45936, Note_off_c, 2, 68, 0
4, 45936, Note_on_c, 2, 68, 66
4, 45982, Note_off_c, 2, 61, 0
4, 45982, Note_on_c, 2, 61, 70
4, 46029, Note_off_c, 2, 73, 0
4, 46029, Note_on_c, 2, 73, 78
4, 46080, Note_off_c, 2, 61, 0
4, 46080, Note_on_c, 2, 61, 49
4, 46121, Note_off_c, 2, 49, 0
4, 46129, Note_off_c, 2, 73, 0
4, 46129, Note_on_c, 2, 73, 78
4, 46173, Note_off_c, 2, 68, 0
4, 46173, Note_on_c, 2, 68, 66
4, 46222, Note_off_c, 2, 61, 0
4, 46222, Note_on_c, 2, 61, 63
4, 46270, Note_on_c, 2, 49, 85
4, 46274, Note_off_c, 2, 73, 0
4, 46274, Note_on_c, 2, 73, 78
4, 46318, Note_off_c, 2, 68, 0
4, 46318, Note_on_c, 2, 68, 66
4, 46369, Note_off_c, 2, 61, 0
4, 46369, Note_on_c, 2, 61, 63
4, 46414, Note_off_c, 2, 68, 0
4, 46414, Note_on_c, 2, 68, 65
4, 46464, Note_off_c, 2, 73, 0
4, 46464, Note_on_c, 2, 73, 78
4, 46504, Note_off_c, 2, 49, 0
4, 46513, Note_off_c, 2, 68, 0
4, 46513, Note_on_c, 2, 68, 66
4, 46559, Note_off_c, 2, 73, 0
4, 46559, Note_on_c, 2, 73, 78
4, 46605, Note_off_c, 2, 68, 0
4, 46605, Note_on_c, 2, 68, 66
4, 46656, Note_on_c, 2, 49, 85
4, 46657, Note_off_c, 2, 61, 0
4, 46657, Note_on_c, 2, 61, 66
4, 46704, Note_off_c, 2, 73, 0
4, 46704, Note_on_c, 2, 73, 78
4, 46753, Note_off_c, 2, 68, 0
4, 46753, Note_on_c, 2, 68, 66
4, 46802, Note_off_c, 2, 61, 0
4, 46802, Note_on_c, 2, 61, 59
4, 46847, Note_off_c, 2, 73, 0
4, 46847, Note_on_c, 2, 73, 78
4, 46872, Note_off_c, 2, 49, 0
4, 46896, Note_off_c, 2, 68, 0
4, 46896, Note_on_c, 2, 68, 66
4, 46944, Note_off_c, 2, 73, 0
4, 46944, Note_on_c, 2, 73, 78
4, 46991, Note_off_c, 2, 68, 0
4, 46991, Note_on_c, 2, 68, 52
4, 47039, Note_off_c, 2, 61, 0
4, 47039, Note_on_c, 2, 61, 70
4, 47039, Note_on_c, 2, 44, 85
4, 47086, Note_off_c, 2, 73, 0
4, 47086, Note_on_c, 2, 73, 78
4, 47137, Note_off_c, 2, 68, 0
4, 47137, Note_on_c, 2, 68, 66
4, 47184, Note_off_c, 2, 61, 0
4, 47184, Note_on_c, 2, 61, 70
4, 47245, Note_off_c, 2, 44, 0
4, 47280, Note_off_c, 2, 73, 0
4, 47280, Note_on_c, 2, 73, 78
4, 47329, Note_off_c, 2, 68, 0
4, 47329, Note_on_c, 2, 68, 66
4, 47373, Note_off_c, 2, 61, 0
4, 47373, Note_on_c, 2, 61, 70
4, 47425, Note_off_c, 2, 73, 0
4, 47425, Note_on_c, 2, 73, 69
4, 47425, Note_on_c, 2, 49, 85
4, 47473, Note_off_c, 2, 68, 0
4, 47473, Note_on_c, 2, 68, 66
4, 47520, Note_off_c, 2, 73, 0
4, 47520, Note_on_c, 2, 73, 73
4, 47569, Note_off_c, 2, 73, 0
4, 47569, Note_on_c, 2, 75, 63
4, 47616, Note_off_c, 2, 75, 0
4, 47616, Note_on_c, 2, 77, 87
4, 47646, Note_off_c, 2, 49, 0
4, 47664, Note_off_c, 2, 68, 0
4, 47664, Note_on_c, 2, 68, 66
4, 47713, Note_off_c, 2, 77, 0
4, 47713, Note_on_c, 2, 73, 71
4, 47759, Note_off_c, 2, 73, 0
4, 47759, Note_on_c, 2, 78, 87
4, 47805, Note_off_c, 2, 78, 0
4, 47805, Note_on_c, 2, 77, 77
4, 47810, Note_on_c, 2, 44, 85
4, 47854, Note_off_c, 2, 68, 0
4, 47854, Note_on_c, 2, 68, 66
4, 47904, Note_off_c, 2, 77, 0
4, 47904, Note_on_c, 2, 75, 83
4, 47951, Note_off_c, 2, 75, 0
4, 47951, Note_on_c, 2, 73, 93
4, 48000, Note_off_c, 2, 61, 0
4, 48000, Note_off_c, 2, 44, 0
4, 48000, Note_on_c, 2, 61, 66
4, 48049, Note_off_c, 2, 73, 0
4, 48049, Note_on_c, 2, 73, 81
4, 48094, Note_off_c, 2, 68, 0
4, 48094, Note_on_c, 2, 68, 66
4, 48144, Note_off_c, 2, 61, 0
4, 48144, Note_on_c, 2, 61, 84
4, 48192, Note_off_c, 2, 73, 0
4, 48192, Note_on_c, 2, 73, 79
4, 48193, Note_on_c, 2, 49, 85
4, 48241, Note_off_c, 2, 68, 0
4, 48241, Note_on_c, 2, 68, 66
4, 48286, Note_off_c, 2, 61, 0
4, 48286, Note_on_c, 2, 61, 69
4, 48336, Note_off_c, 2, 73, 0
4, 48336, Note_on_c, 2, 73, 76
4, 48381, Note_off_c, 2, 61, 0
4, 48381, Note_on_c, 2, 61, 65
4, 48424, Note_off_c, 2, 49, 0
4, 48433, Note_off_c, 2, 73, 0
4, 48433, Note_on_c, 2, 73, 87
4, 48479, Note_off_c, 2, 68, 0
4, 48479, Note_on_c, 2, 68, 66
4, 48526, Note_off_c, 2, 61, 0
4, 48526, Note_on_c, 2, 61, 70
4, 48575, Note_off_c, 2, 73, 0
4, 48575, Note_on_c, 2, 73, 79
4, 48576, Note_on_c, 2, 49, 85
4, 48624, Note_off_c, 2, 68, 0
4, 48624, Note_on_c, 2, 68, 66
4, 48672, Note_off_c, 2, 61, 0
4, 48672, Note_on_c, 2, 61, 62
4, 48721, Note_off_c, 2, 73, 0
4, 48721, Note_on_c, 2, 73, 79
4, 48768, Note_off_c, 2, 61, 0
4, 48768, Note_on_c, 2, 61, 69
4, 48812, Note_off_c, 2, 49, 0
4, 48815, Note_off_c, 2, 73, 0
4, 48815, Note_on_c, 2, 73, 66
4, 48863, Note_off_c, 2, 68, 0
4, 48863, Note_on_c, 2, 68, 66
4, 48911, Note_off_c, 2, 61, 0
4, 48911, Note_on_c, 2, 61, 69
4, 48958, Note_on_c, 2, 49, 85
4, 48961, Note_off_c, 2, 73, 0
4, 48961, Note_on_c, 2, 73, 60
4, 49006, Note_off_c, 2, 68, 0
4, 49006, Note_on_c, 2, 68, 65
4, 49055, Note_off_c, 2, 61, 0
4, 49055, Note_on_c, 2, 61, 70
4, 49102, Note_off_c, 2, 73, 0
4, 49102, Note_on_c, 2, 73, 74
4, 49153, Note_off_c, 2, 61, 0
4, 49153, Note_on_c, 2, 61, 65
4, 49193, Note_off_c, 2, 49, 0
4, 49200, Note_off_c, 2, 73, 0
4, 49200, Note_on_c, 2, 73, 79
4, 49246, Note_off_c, 2, 68, 0
4, 49246, Note_on_c, 2, 68, 66
4, 49297, Note_off_c, 2, 61, 0
4, 49297, Note_on_c, 2, 61, 70
4, 49341, Note_off_c, 2, 73, 0
4, 49341, Note_on_c, 2, 73, 81
4, 49342, Note_on_c, 2, 49, 85
4, 49392, Note_off_c, 2, 61, 0
4, 49392, Note_on_c, 2, 61, 66
4, 49439, Note_off_c, 2, 68, 0
4, 49439, Note_on_c, 2, 68, 66
4, 49486, Note_off_c, 2, 73, 0
4, 49486, Note_on_c, 2, 73, 69
4, 49536, Note_off_c, 2, 61, 0
4, 49536, Note_on_c, 2, 63, 74
4, 49576, Note_off_c, 2, 49, 0
4, 49584, Note_off_c, 2, 73, 0
4, 49584, Note_on_c, 2, 73, 71
4, 49630, Note_off_c, 2, 68, 0
4, 49630, Note_on_c, 2, 66, 81
4, 49679, Note_off_c, 2, 63, 0
4, 49679, Note_on_c, 2, 63, 74
4, 49726, Note_off_c, 2, 73, 0
4, 49726, Note_on_c, 2, 73, 63
4, 49728, Note_on_c, 2, 49, 85
4, 49777, Note_off_c, 2, 66, 0
4, 49777, Note_on_c, 2, 66, 65
4, 49822, Note_off_c, 2, 63, 0
4, 49822, Note_on_c, 2, 63, 75
4, 49873, Note_off_c, 2, 73, 0
4, 49873, Note_on_c, 2, 73, 81
4, 49922, Note_off_c, 2, 63, 0
4, 49922, Note_on_c, 2, 63, 71
4, 49944, Note_off_c, 2, 49, 0
4, 49968, Note_off_c, 2, 73, 0
4, 49968, Note_on_c, 2, 73, 81
4, 50015, Note_off_c, 2, 66, 0
4, 50015, Note_on_c, 2, 66, 63
4, 50064, Note_off_c, 2, 63, 0
4, 50064, Note_on_c, 2, 63, 71
4, 50111, Note_on_c, 2, 44, 85
4, 50112, Note_off_c, 2, 73, 0
4, 50112, Note_on_c, 2, 75, 81
4, 50159, Note_off_c, 2, 66, 0
4, 50159, Note_on_c, 2, 68, 71
4, 50208, Note_off_c, 2, 63, 0
4, 50208, Note_on_c, 2, 63, 66
4, 50308, Note_off_c, 2, 75, 0
4, 50308, Note_off_c, 2, 63, 0
4, 50310, Note_off_c, 2, 68, 0
4, 50317, Note_off_c, 2, 44, 0
4, 58952, Control_c, 2, 121, 0
4, 58960, Control_c, 2, 91, 0
4, 58968, Control_c, 2, 93, 0
4, 58968, End_track
5, 0, Start_track
5, 0, Title_t, "-"
5, 0, Channel_prefix, 4
5, 0, Control_c, 4, 7, 100
5, 0, Program_c, 4, 0
5, 0, Pitch_bend_c, 4, 8192
5, 0, End_track
6, 0, Start_track
6, 0, Title_t, "Slow Stri"
6, 0, Channel_prefix, 5
6, 0, Control_c, 5, 7, 127
6, 0, Control_c, 5, 10, 34
6, 0, Program_c, 5, 49
6, 40, Control_c, 5, 121, 0
6, 48, Control_c, 5, 11, 90
6, 64, Control_c, 5, 91, 100
6, 72, Control_c, 5, 93, 30
6, 1536, Control_c, 5, 10, 34
6, 1536, Control_c, 5, 7, 127
6, 1536, Program_c, 5, 49
6, 2302, Note_on_c, 5, 58, 57
6, 2302, Note_on_c, 5, 39, 57
6, 2304, Note_on_c, 5, 67, 57
6, 2686, Note_on_c, 5, 60, 63
6, 2690, Note_on_c, 5, 55, 63
6, 2690, Note_on_c, 5, 40, 63
6, 2696, Note_off_c, 5, 39, 0
6, 2696, Note_off_c, 5, 58, 0
6, 2699, Note_off_c, 5, 67, 0
6, 3072, Note_on_c, 5, 65, 63
6, 3072, Note_on_c, 5, 41, 63
6, 3072, Note_on_c, 5, 58, 63
6, 3073, Note_off_c, 5, 60, 0
6, 3078, Note_off_c, 5, 55, 0
6, 3078, Note_off_c, 5, 40, 0
6, 3454, Note_on_c, 5, 57, 63
6, 3484, Note_off_c, 5, 58, 0
6, 3838, Note_off_c, 5, 57, 0
6, 3855, Note_off_c, 5, 65, 0
6, 3855, Note_off_c, 5, 41, 0
6, 13055, Note_on_c, 5, 46, 64
6, 13057, Note_on_c, 5, 62, 64
6, 13438, Note_on_c, 5, 63, 64
6, 13439, Note_on_c, 5, 48, 64
6, 13450, Note_off_c, 5, 62, 0
6, 13451, Note_off_c, 5, 46, 0
6, 13824, Note_on_c, 5, 65, 64
6, 13826, Note_on_c, 5, 50, 64
6, 13827, Note_off_c, 5, 63, 0
6, 13828, Note_off_c, 5, 48, 0
6, 14209, Note_on_c, 5, 51, 64
6, 14209, Note_on_c, 5, 67, 64
6, 14218, Note_off_c, 5, 50, 0
6, 14220, Note_off_c, 5, 65, 0
6, 14589, Note_on_c, 5, 53, 64
6, 14592, Note_on_c, 5, 62, 64
6, 14622, Note_off_c, 5, 67, 0
6, 14631, Note_off_c, 5, 51, 0
6, 14970, Note_off_c, 5, 62, 0
6, 14975, Note_on_c, 5, 60, 64
6, 15165, Note_off_c, 5, 53, 0
6, 15170, Note_on_c, 5, 41, 64
6, 15360, Note_on_c, 5, 62, 64
6, 15360, Note_on_c, 5, 46, 64
6, 15367, Note_off_c, 5, 41, 0
6, 15371, Note_off_c, 5, 60, 0
6, 15860, Note_off_c, 5, 62, 0
6, 15886, Note_off_c, 5, 46, 0
6, 15937, Note_on_c, 5, 70, 64
6, 16031, Note_on_c, 5, 79, 64
6, 16044, Note_off_c, 5, 70, 0
6, 16125, Note_on_c, 5, 77, 64
6, 16138, Note_off_c, 5, 79, 0
6, 16496, Note_off_c, 5, 77, 0
6, 16512, Note_on_c, 5, 75, 64
6, 16702, Note_on_c, 5, 79, 64
6, 16720, Note_off_c, 5, 75, 0
6, 16894, Note_off_c, 5, 79, 0
6, 16897, Note_on_c, 5, 77, 64
6, 17280, Note_on_c, 5, 82, 64
6, 17302, Note_off_c, 5, 77, 0
6, 17470, Note_on_c, 5, 77, 64
6, 17482, Note_off_c, 5, 82, 0
6, 17663, Note_on_c, 5, 75, 64
6, 17667, Note_off_c, 5, 77, 0
6, 18433, Note_off_c, 5, 75, 0
6, 19586, Note_on_c, 5, 67, 83
6, 19727, Note_on_c, 5, 65, 118
6, 19740, Note_off_c, 5, 67, 0
6, 19777, Note_on_c, 5, 67, 83
6, 19780, Note_off_c, 5, 65, 0
6, 19869, Note_on_c, 5, 69, 83
6, 19887, Note_off_c, 5, 67, 0
6, 19967, Note_on_c, 5, 70, 83
6, 19978, Note_off_c, 5, 69, 0
6, 20247, Note_off_c, 5, 70, 0
6, 20254, Note_on_c, 5, 72, 83
6, 20342, Note_off_c, 5, 72, 0
6, 20349, Note_on_c, 5, 72, 74
6, 20731, Note_off_c, 5, 72, 0
6, 20735, Note_on_c, 5, 74, 71
6, 21117, Note_on_c, 5, 60, 56
6, 21118, Note_on_c, 5, 76, 57
6, 21135, Note_off_c, 5, 74, 0
6, 21179, Control_c, 5, 11, 90
6, 21184, Control_c, 5, 11, 89
6, 21256, Control_c, 5, 11, 88
6, 21290, Control_c, 5, 11, 87
6, 21314, Control_c, 5, 11, 86
6, 21333, Control_c, 5, 11, 85
6, 21353, Control_c, 5, 11, 84
6, 21367, Control_c, 5, 11, 83
6, 21386, Control_c, 5, 11, 82
6, 21396, Control_c, 5, 11, 81
6, 21410, Control_c, 5, 11, 80
6, 21425, Control_c, 5, 11, 79
6, 21435, Control_c, 5, 11, 78
6, 21449, Control_c, 5, 11, 77
6, 21459, Control_c, 5, 11, 76
6, 21468, Control_c, 5, 11, 75
6, 21478, Control_c, 5, 11, 74
6, 21488, Control_c, 5, 11, 73
6, 21498, Control_c, 5, 11, 72
6, 21507, Control_c, 5, 11, 71
6, 21517, Control_c, 5, 11, 70
6, 21526, Control_c, 5, 11, 69
6, 21531, Control_c, 5, 11, 68
6, 21541, Control_c, 5, 11, 67
6, 21550, Control_c, 5, 11, 66
6, 21556, Control_c, 5, 11, 65
6, 21565, Control_c, 5, 11, 64
6, 21575, Control_c, 5, 11, 63
6, 21580, Control_c, 5, 11, 62
6, 21589, Control_c, 5, 11, 61
6, 21594, Control_c, 5, 11, 60
6, 21604, Control_c, 5, 11, 59
6, 21608, Control_c, 5, 11, 58
6, 21613, Control_c, 5, 11, 57
6, 21623, Control_c, 5, 11, 56
6, 21628, Control_c, 5, 11, 55
6, 21638, Control_c, 5, 11, 54
6, 21642, Control_c, 5, 11, 53
6, 21647, Control_c, 5, 11, 52
6, 21657, Control_c, 5, 11, 51
6, 21662, Control_c, 5, 11, 50
6, 21666, Control_c, 5, 11, 49
6, 21671, Control_c, 5, 11, 48
6, 21681, Control_c, 5, 11, 47
6, 21686, Control_c, 5, 11, 46
6, 21690, Control_c, 5, 11, 45
6, 21696, Control_c, 5, 11, 44
6, 21700, Control_c, 5, 11, 43
6, 21705, Control_c, 5, 11, 42
6, 21715, Control_c, 5, 11, 41
6, 21720, Control_c, 5, 11, 40
6, 21724, Control_c, 5, 11, 39
6, 21729, Control_c, 5, 11, 38
6, 21734, Control_c, 5, 11, 37
6, 21739, Control_c, 5, 11, 36
6, 21744, Control_c, 5, 11, 35
6, 21748, Control_c, 5, 11, 34
6, 21758, Control_c, 5, 11, 33
6, 21763, Control_c, 5, 11, 32
6, 21768, Control_c, 5, 11, 31
6, 21773, Control_c, 5, 11, 30
6, 21778, Control_c, 5, 11, 29
6, 21782, Control_c, 5, 11, 28
6, 21787, Control_c, 5, 11, 27
6, 21792, Control_c, 5, 11, 26
6, 21797, Control_c, 5, 11, 25
6, 21802, Control_c, 5, 11, 24
6, 21806, Control_c, 5, 11, 23
6, 21811, Control_c, 5, 11, 22
6, 21816, Control_c, 5, 11, 21
6, 21821, Control_c, 5, 11, 20
6, 21826, Control_c, 5, 11, 19
6, 21830, Control_c, 5, 11, 17
6, 21836, Control_c, 5, 11, 16
6, 21840, Control_c, 5, 11, 15
6, 21845, Control_c, 5, 11, 14
6, 21850, Control_c, 5, 11, 13
6, 21855, Control_c, 5, 11, 12
6, 21860, Control_c, 5, 11, 11
6, 21864, Control_c, 5, 11, 10
6, 21869, Control_c, 5, 11, 9
6, 21874, Control_c, 5, 11, 8
6, 21879, Control_c, 5, 11, 6
6, 21884, Control_c, 5, 11, 5
6, 21888, Control_c, 5, 11, 4
6, 21893, Control_c, 5, 11, 3
6, 21898, Control_c, 5, 11, 2
6, 21903, Control_c, 5, 11, 1
6, 21907, Control_c, 5, 11, 0
6, 21925, Note_off_c, 5, 76, 0
6, 21931, Note_off_c, 5, 60, 0
6, 22150, Control_c, 5, 11, 90
6, 27264, Note_on_c, 5, 64, 60
6, 27264, Note_on_c, 5, 48, 60
6, 27648, Note_on_c, 5, 65, 60
6, 27648, Note_on_c, 5, 50, 60
6, 27652, Note_off_c, 5, 48, 0
6, 27652, Note_off_c, 5, 64, 0
6, 28032, Note_on_c, 5, 67, 60
6, 28032, Note_on_c, 5, 52, 60
6, 28042, Note_off_c, 5, 65, 0
6, 28042, Note_off_c, 5, 50, 0
6, 28416, Note_on_c, 5, 69, 60
6, 28416, Note_on_c, 5, 53, 60
6, 28418, Note_off_c, 5, 67, 0
6, 28418, Note_off_c, 5, 52, 0
6, 28704, Note_on_c, 5, 71, 60
6, 28710, Note_off_c, 5, 69, 0
6, 28794, Note_off_c, 5, 53, 0
6, 28800, Note_on_c, 5, 72, 60
6, 28800, Note_on_c, 5, 52, 60
6, 28819, Note_off_c, 5, 71, 0
6, 29184, Note_on_c, 5, 74, 60
6, 29184, Note_on_c, 5, 55, 60
6, 29193, Note_off_c, 5, 72, 0
6, 29193, Note_off_c, 5, 52, 0
6, 29368, Note_on_c, 5, 67, 60
6, 29368, Note_on_c, 5, 59, 60
6, 29380, Note_off_c, 5, 55, 0
6, 29382, Note_off_c, 5, 74, 0
6, 29568, Note_on_c, 5, 76, 60
6, 29568, Note_on_c, 5, 60, 60
6, 29577, Note_off_c, 5, 67, 0
6, 29577, Note_off_c, 5, 59, 0
6, 29949, Note_off_c, 5, 76, 0
6, 29949, Note_off_c, 5, 60, 0
6, 29952, Note_on_c, 5, 77, 60
6, 29952, Note_on_c, 5, 58, 60
6, 30144, Note_on_c, 5, 72, 60
6, 30145, Note_on_c, 5, 55, 60
6, 30151, Note_off_c, 5, 58, 0
6, 30151, Note_off_c, 5, 77, 0
6, 30336, Note_on_c, 5, 79, 64
6, 30336, Note_on_c, 5, 64, 64
6, 30344, Note_off_c, 5, 55, 0
6, 30345, Note_off_c, 5, 72, 0
6, 30702, Note_off_c, 5, 79, 0
6, 30702, Note_off_c, 5, 64, 0
6, 30720, Note_on_c, 5, 72, 64
6, 30720, Note_on_c, 5, 65, 64
6, 31104, Note_on_c, 5, 79, 64
6, 31104, Note_on_c, 5, 64, 64
6, 31120, Note_off_c, 5, 65, 0
6, 31120, Note_off_c, 5, 72, 0
6, 31484, Note_off_c, 5, 79, 0
6, 31484, Note_off_c, 5, 64, 0
6, 31488, Note_on_c, 5, 76, 64
6, 31488, Note_on_c, 5, 60, 64
6, 31872, Note_on_c, 5, 81, 64
6, 31872, Note_on_c, 5, 65, 64
6, 31883, Note_off_c, 5, 60, 0
6, 31883, Note_off_c, 5, 76, 0
6, 32256, Note_on_c, 5, 72, 64
6, 32256, Note_on_c, 5, 67, 64
6, 32266, Note_off_c, 5, 81, 0
6, 32266, Note_off_c, 5, 65, 0
6, 32600, Note_off_c, 5, 72, 0
6, 32636, Note_on_c, 5, 72, 84
6, 32641, Note_on_c, 5, 88, 81
6, 32646, Note_off_c, 5, 67, 0
6, 32762, Note_off_c, 5, 72, 0
6, 32763, Note_off_c, 5, 88, 0
6, 32782, Note_on_c, 5, 71, 81
6, 32784, Note_on_c, 5, 86, 86
6, 32829, Note_on_c, 5, 88, 86
6, 32830, Note_off_c, 5, 86, 0
6, 32830, Note_on_c, 5, 72, 84
6, 32832, Note_off_c, 5, 71, 0
6, 32875, Note_off_c, 5, 88, 0
6, 32877, Note_off_c, 5, 72, 0
6, 32919, Note_on_c, 5, 74, 78
6, 32923, Note_on_c, 5, 89, 82
6, 32962, Note_off_c, 5, 89, 0
6, 32966, Note_off_c, 5, 74, 0
6, 33024, Note_on_c, 5, 76, 70
6, 33027, Note_on_c, 5, 91, 80
6, 33153, Note_off_c, 5, 91, 0
6, 33156, Note_off_c, 5, 76, 0
6, 33221, Note_on_c, 5, 84, 77
6, 33225, Note_on_c, 5, 69, 89
6, 33321, Note_off_c, 5, 69, 0
6, 33338, Note_off_c, 5, 84, 0
6, 33357, Note_on_c, 5, 83, 80
6, 33358, Note_on_c, 5, 67, 77
6, 33398, Note_off_c, 5, 67, 0
6, 33399, Note_on_c, 5, 69, 86
6, 33401, Note_on_c, 5, 84, 86
6, 33410, Note_off_c, 5, 83, 0
6, 33441, Note_off_c, 5, 84, 0
6, 33444, Note_off_c, 5, 69, 0
6, 33492, Note_on_c, 5, 71, 78
6, 33496, Note_on_c, 5, 86, 82
6, 33537, Note_off_c, 5, 71, 0
6, 33538, Note_off_c, 5, 86, 0
6, 33595, Note_on_c, 5, 72, 65
6, 33596, Note_on_c, 5, 88, 73
6, 33728, Note_off_c, 5, 88, 0
6, 33736, Note_off_c, 5, 72, 0
6, 33795, Note_on_c, 5, 65, 92
6, 33796, Note_on_c, 5, 81, 82
6, 33905, Note_off_c, 5, 81, 0
6, 33907, Note_off_c, 5, 65, 0
6, 33934, Note_on_c, 5, 64, 80
6, 33935, Note_on_c, 5, 79, 80
6, 33976, Note_off_c, 5, 64, 0
6, 33977, Note_off_c, 5, 79, 0
6, 33978, Note_on_c, 5, 81, 82
6, 33978, Note_on_c, 5, 65, 84
6, 34020, Note_off_c, 5, 81, 0
6, 34028, Note_off_c, 5, 65, 0
6, 34072, Note_on_c, 5, 67, 75
6, 34073, Note_on_c, 5, 83, 84
6, 34112, Note_off_c, 5, 67, 0
6, 34113, Note_off_c, 5, 83, 0
6, 34171, Note_on_c, 5, 69, 72
6, 34174, Note_on_c, 5, 84, 78
6, 34299, Note_off_c, 5, 84, 0
6, 34311, Note_off_c, 5, 69, 0
6, 34320, Note_on_c, 5, 83, 77
6, 34323, Note_on_c, 5, 67, 58
6, 34358, Note_off_c, 5, 67, 0
6, 34360, Note_on_c, 5, 69, 69
6, 34364, Note_on_c, 5, 84, 84
6, 34365, Note_off_c, 5, 83, 0
6, 34412, Note_off_c, 5, 69, 0
6, 34415, Note_off_c, 5, 84, 0
6, 34458, Note_on_c, 5, 71, 73
6, 34460, Note_on_c, 5, 86, 78
6, 34500, Note_off_c, 5, 86, 0
6, 34512, Note_off_c, 5, 71, 0
6, 34561, Note_on_c, 5, 72, 59
6, 34561, Note_on_c, 5, 86, 73
6, 34938, Note_on_c, 5, 71, 62
6, 34945, Note_off_c, 5, 72, 0
6, 35336, Note_off_c, 5, 86, 0
6, 35336, Note_off_c, 5, 71, 0
6, 37630, Note_on_c, 5, 57, 75
6, 37632, Note_on_c, 5, 60, 75
6, 37632, Note_on_c, 5, 41, 75
6, 38015, Note_on_c, 5, 59, 75
6, 38015, Note_on_c, 5, 62, 75
6, 38016, Note_on_c, 5, 43, 75
6, 38025, Note_off_c, 5, 60, 0
6, 38032, Note_off_c, 5, 41, 0
6, 38035, Note_off_c, 5, 57, 0
6, 38664, Note_off_c, 5, 62, 0
6, 38670, Note_off_c, 5, 59, 0
6, 38672, Note_off_c, 5, 43, 0
6, 38784, Note_on_c, 5, 64, 69
6, 38784, Note_on_c, 5, 48, 69
6, 39168, Note_on_c, 5, 65, 69
6, 39168, Note_on_c, 5, 50, 69
6, 39172, Note_off_c, 5, 48, 0
6, 39172, Note_off_c, 5, 64, 0
6, 39552, Note_on_c, 5, 67, 69
6, 39552, Note_on_c, 5, 52, 69
6, 39562, Note_off_c, 5, 65, 0
6, 39562, Note_off_c, 5, 50, 0
6, 39936, Note_on_c, 5, 69, 69
6, 39936, Note_on_c, 5, 53, 69
6, 39938, Note_off_c, 5, 67, 0
6, 39938, Note_off_c, 5, 52, 0
6, 40224, Note_on_c, 5, 71, 69
6, 40230, Note_off_c, 5, 69, 0
6, 40314, Note_off_c, 5, 53, 0
6, 40320, Note_on_c, 5, 72, 69
6, 40320, Note_on_c, 5, 52, 69
6, 40339, Note_off_c, 5, 71, 0
6, 40704, Note_on_c, 5, 74, 69
6, 40704, Note_on_c, 5, 55, 69
6, 40713, Note_off_c, 5, 72, 0
6, 40713, Note_off_c, 5, 52, 0
6, 40888, Note_on_c, 5, 67, 69
6, 40888, Note_on_c, 5, 59, 69
6, 40900, Note_off_c, 5, 55, 0
6, 40902, Note_off_c, 5, 74, 0
6, 41088, Note_on_c, 5, 76, 69
6, 41088, Note_on_c, 5, 60, 69
6, 41097, Note_off_c, 5, 67, 0
6, 41097, Note_off_c, 5, 59, 0
6, 41469, Note_off_c, 5, 76, 0
6, 41469, Note_off_c, 5, 60, 0
6, 41472, Note_on_c, 5, 77, 69
6, 41473, Note_on_c, 5, 55, 69
6, 41664, Note_on_c, 5, 72, 69
6, 41671, Note_off_c, 5, 77, 0
6, 41856, Note_on_c, 5, 79, 74
6, 41856, Note_on_c, 5, 64, 74
6, 41864, Note_off_c, 5, 55, 0
6, 41865, Note_off_c, 5, 72, 0
6, 42222, Note_off_c, 5, 79, 0
6, 42222, Note_off_c, 5, 64, 0
6, 42240, Note_on_c, 5, 72, 74
6, 42240, Note_on_c, 5, 65, 74
6, 42624, Note_on_c, 5, 79, 74
6, 42624, Note_on_c, 5, 64, 74
6, 42640, Note_off_c, 5, 65, 0
6, 42640, Note_off_c, 5, 72, 0
6, 43004, Note_off_c, 5, 79, 0
6, 43004, Note_off_c, 5, 64, 0
6, 43008, Note_on_c, 5, 76, 74
6, 43008, Note_on_c, 5, 60, 74
6, 43392, Note_on_c, 5, 81, 74
6, 43392, Note_on_c, 5, 65, 74
6, 43403, Note_off_c, 5, 60, 0
6, 43403, Note_off_c, 5, 76, 0
6, 43776, Note_on_c, 5, 72, 74
6, 43776, Note_on_c, 5, 67, 74
6, 43786, Note_off_c, 5, 81, 0
6, 43786, Note_off_c, 5, 65, 0
6, 44120, Note_off_c, 5, 72, 0
6, 44160, Note_on_c, 5, 76, 74
6, 44160, Note_on_c, 5, 60, 74
6, 44166, Note_off_c, 5, 67, 0
6, 44457, Note_off_c, 5, 76, 0
6, 44457, Note_off_c, 5, 60, 0
6, 44544, Note_on_c, 5, 55, 88
6, 44544, Note_on_c, 5, 67, 88
6, 44709, Note_off_c, 5, 55, 0
6, 44710, Note_off_c, 5, 67, 0
6, 44736, Note_on_c, 5, 72, 88
6, 44736, Note_on_c, 5, 60, 88
6, 44898, Note_off_c, 5, 72, 0
6, 44900, Note_off_c, 5, 60, 0
6, 44928, Note_on_c, 5, 77, 73
6, 44928, Note_on_c, 5, 49, 73
6, 45312, Note_on_c, 5, 78, 73
6, 45312, Note_on_c, 5, 51, 73
6, 45316, Note_off_c, 5, 49, 0
6, 45316, Note_off_c, 5, 77, 0
6, 45696, Note_on_c, 5, 80, 73
6, 45696, Note_on_c, 5, 53, 73
6, 45706, Note_off_c, 5, 78, 0
6, 45706, Note_off_c, 5, 51, 0
6, 46080, Note_on_c, 5, 82, 73
6, 46080, Note_on_c, 5, 54, 73
6, 46082, Note_off_c, 5, 80, 0
6, 46082, Note_off_c, 5, 53, 0
6, 46368, Note_on_c, 5, 84, 73
6, 46374, Note_off_c, 5, 82, 0
6, 46458, Note_off_c, 5, 54, 0
6, 46464, Note_on_c, 5, 85, 73
6, 46464, Note_on_c, 5, 53, 73
6, 46483, Note_off_c, 5, 84, 0
6, 46848, Note_on_c, 5, 87, 73
6, 46848, Note_on_c, 5, 56, 73
6, 46857, Note_off_c, 5, 85, 0
6, 46857, Note_off_c, 5, 53, 0
6, 47032, Note_on_c, 5, 80, 73
6, 47032, Note_on_c, 5, 60, 73
6, 47044, Note_off_c, 5, 56, 0
6, 47046, Note_off_c, 5, 87, 0
6, 47232, Note_on_c, 5, 89, 73
6, 47232, Note_on_c, 5, 61, 73
6, 47241, Note_off_c, 5, 80, 0
6, 47241, Note_off_c, 5, 60, 0
6, 47613, Note_off_c, 5, 89, 0
6, 47613, Note_off_c, 5, 61, 0
6, 47616, Note_on_c, 5, 90, 73
6, 47616, Note_on_c, 5, 59, 73
6, 47808, Note_on_c, 5, 85, 73
6, 47809, Note_on_c, 5, 56, 73
6, 47815, Note_off_c, 5, 59, 0
6, 47815, Note_off_c, 5, 90, 0
6, 48000, Note_on_c, 5, 92, 78
6, 48000, Note_on_c, 5, 65, 78
6, 48008, Note_off_c, 5, 56, 0
6, 48009, Note_off_c, 5, 85, 0
6, 48366, Note_off_c, 5, 92, 0
6, 48366, Note_off_c, 5, 65, 0
6, 48384, Note_on_c, 5, 85, 78
6, 48384, Note_on_c, 5, 66, 78
6, 48768, Note_on_c, 5, 92, 78
6, 48768, Note_on_c, 5, 65, 78
6, 48784, Note_off_c, 5, 66, 0
6, 48784, Note_off_c, 5, 85, 0
6, 49148, Note_off_c, 5, 92, 0
6, 49148, Note_off_c, 5, 65, 0
6, 49152, Note_on_c, 5, 89, 78
6, 49152, Note_on_c, 5, 61, 78
6, 49536, Note_on_c, 5, 94, 78
6, 49536, Note_on_c, 5, 66, 78
6, 49547, Note_off_c, 5, 61, 0
6, 49547, Note_off_c, 5, 89, 0
6, 49920, Note_on_c, 5, 85, 78
6, 49920, Note_on_c, 5, 68, 78
6, 49930, Note_off_c, 5, 94, 0
6, 49930, Note_off_c, 5, 66, 0
6, 50112, Note_on_c, 5, 87, 78
6, 50114, Note_off_c, 5, 85, 0
6, 50296, Note_on_c, 5, 89, 85
6, 50296, Control_c, 5, 11, 104
6, 50306, Note_off_c, 5, 68, 0
6, 50306, Note_off_c, 5, 87, 0
6, 50435, Note_off_c, 5, 89, 0
6, 50440, Note_on_c, 5, 87, 97
6, 50488, Note_on_c, 5, 89, 97
6, 50495, Note_off_c, 5, 87, 0
6, 50543, Note_off_c, 5, 89, 0
6, 50584, Note_on_c, 5, 90, 97
6, 50639, Note_off_c, 5, 90, 0
6, 50680, Note_on_c, 5, 92, 90
6, 50728, Note_off_c, 5, 92, 0
6, 50728, Note_on_c, 5, 90, 127
6, 50752, Note_off_c, 5, 90, 0
6, 50776, Note_on_c, 5, 89, 120
6, 50800, Note_off_c, 5, 89, 0
6, 50824, Note_on_c, 5, 87, 120
6, 50848, Note_off_c, 5, 87, 0
6, 50872, Note_on_c, 5, 85, 85
6, 50997, Note_off_c, 5, 85, 0
6, 51016, Note_on_c, 5, 84, 97
6, 51064, Note_on_c, 5, 85, 97
6, 51071, Note_off_c, 5, 84, 0
6, 51119, Note_off_c, 5, 85, 0
6, 51160, Note_on_c, 5, 87, 93
6, 51215, Note_off_c, 5, 87, 0
6, 51256, Note_on_c, 5, 89, 90
6, 51304, Note_off_c, 5, 89, 0
6, 51304, Note_on_c, 5, 87, 120
6, 51328, Note_off_c, 5, 87, 0
6, 51352, Note_on_c, 5, 85, 120
6, 51376, Note_off_c, 5, 85, 0
6, 51400, Note_on_c, 5, 84, 120
6, 51424, Note_off_c, 5, 84, 0
6, 51448, Note_on_c, 5, 82, 85
6, 51573, Note_off_c, 5, 82, 0
6, 51592, Note_on_c, 5, 80, 97
6, 51640, Note_on_c, 5, 82, 97
6, 51647, Note_off_c, 5, 80, 0
6, 51695, Note_off_c, 5, 82, 0
6, 51736, Note_on_c, 5, 84, 97
6, 51791, Note_off_c, 5, 84, 0
6, 51832, Note_on_c, 5, 85, 85
6, 51966, Note_off_c, 5, 85, 0
6, 51976, Note_on_c, 5, 84, 97
6, 52024, Note_on_c, 5, 85, 97
6, 52031, Note_off_c, 5, 84, 0
6, 52079, Note_off_c, 5, 85, 0
6, 52120, Note_on_c, 5, 87, 78
6, 52853, Note_off_c, 5, 87, 0
6, 52892, Note_on_c, 5, 80, 90
6, 52949, Note_on_c, 5, 82, 98
6, 52957, Note_off_c, 5, 80, 0
6, 52961, Note_on_c, 5, 84, 98
6, 52964, Note_off_c, 5, 82, 0
6, 52970, Note_on_c, 5, 85, 98
6, 52976, Note_off_c, 5, 84, 0
6, 52977, Note_on_c, 5, 87, 98
6, 52984, Note_on_c, 5, 89, 85
6, 52985, Note_off_c, 5, 85, 0
6, 52992, Note_off_c, 5, 87, 0
6, 53112, Note_off_c, 5, 89, 0
6, 53128, Note_on_c, 5, 87, 97
6, 53176, Note_on_c, 5, 89, 97
6, 53183, Note_off_c, 5, 87, 0
6, 53231, Note_off_c, 5, 89, 0
6, 53272, Note_on_c, 5, 90, 97
6, 53327, Note_off_c, 5, 90, 0
6, 53368, Note_on_c, 5, 92, 90
6, 53416, Note_off_c, 5, 92, 0
6, 53416, Note_on_c, 5, 90, 124
6, 53440, Note_off_c, 5, 90, 0
6, 53464, Note_on_c, 5, 89, 120
6, 53488, Note_off_c, 5, 89, 0
6, 53512, Note_on_c, 5, 87, 120
6, 53536, Note_off_c, 5, 87, 0
6, 53560, Note_on_c, 5, 85, 85
6, 53704, Note_on_c, 5, 84, 97
6, 53708, Note_off_c, 5, 85, 0
6, 53752, Note_on_c, 5, 85, 97
6, 53759, Note_off_c, 5, 84, 0
6, 53807, Note_off_c, 5, 85, 0
6, 53848, Note_on_c, 5, 87, 97
6, 53903, Note_off_c, 5, 87, 0
6, 53944, Note_on_c, 5, 89, 85
6, 54102, Control_c, 5, 11, 104
6, 54109, Control_c, 5, 11, 103
6, 54130, Control_c, 5, 11, 102
6, 54144, Control_c, 5, 11, 101
6, 54151, Control_c, 5, 11, 100
6, 54158, Control_c, 5, 11, 99
6, 54165, Control_c, 5, 11, 98
6, 54172, Control_c, 5, 11, 97
6, 54179, Control_c, 5, 11, 96
6, 54186, Control_c, 5, 11, 94
6, 54194, Control_c, 5, 11, 93
6, 54200, Control_c, 5, 11, 91
6, 54208, Control_c, 5, 11, 89
6, 54215, Control_c, 5, 11, 87
6, 54222, Control_c, 5, 11, 85
6, 54229, Control_c, 5, 11, 83
6, 54236, Control_c, 5, 11, 80
6, 54243, Control_c, 5, 11, 78
6, 54250, Control_c, 5, 11, 75
6, 54257, Control_c, 5, 11, 73
6, 54264, Control_c, 5, 11, 70
6, 54271, Control_c, 5, 11, 67
6, 54278, Control_c, 5, 11, 64
6, 54285, Control_c, 5, 11, 61
6, 54292, Control_c, 5, 11, 57
6, 54300, Control_c, 5, 11, 54
6, 54306, Control_c, 5, 11, 50
6, 54314, Note_off_c, 5, 89, 0
6, 54314, Control_c, 5, 11, 46
6, 54319, Control_c, 5, 11, 44
6, 54514, Control_c, 5, 11, 104
6, 55104, Note_on_c, 5, 61, 38
6, 55104, Note_on_c, 5, 68, 38
6, 55293, Note_on_c, 5, 89, 44
6, 55489, Note_on_c, 5, 87, 44
6, 55498, Note_off_c, 5, 89, 0
6, 55682, Note_on_c, 5, 85, 44
6, 55693, Note_off_c, 5, 87, 0
6, 55872, Note_on_c, 5, 66, 64
6, 55872, Note_on_c, 5, 82, 52
6, 55876, Note_off_c, 5, 61, 0
6, 55886, Note_off_c, 5, 68, 0
6, 55900, Note_off_c, 5, 85, 0
6, 56149, Note_off_c, 5, 66, 0
6, 56149, Note_off_c, 5, 82, 0
6, 56160, Note_on_c, 5, 65, 72
6, 56160, Note_on_c, 5, 80, 60
6, 56256, Note_on_c, 5, 63, 72
6, 56256, Note_on_c, 5, 78, 60
6, 56262, Note_off_c, 5, 80, 0
6, 56262, Note_off_c, 5, 65, 0
6, 56304, Note_on_c, 5, 61, 127
6, 56304, Note_on_c, 5, 77, 84
6, 56310, Note_off_c, 5, 63, 0
6, 56310, Note_off_c, 5, 78, 0
6, 56328, Note_off_c, 5, 61, 0
6, 56328, Note_off_c, 5, 77, 0
6, 56352, Note_on_c, 5, 60, 127
6, 56352, Note_on_c, 5, 75, 84
6, 56376, Note_off_c, 5, 75, 0
6, 56376, Note_off_c, 5, 60, 0
6, 56400, Note_on_c, 5, 58, 127
6, 56400, Note_on_c, 5, 73, 84
6, 56424, Note_off_c, 5, 73, 0
6, 56424, Note_off_c, 5, 58, 0
6, 56448, Note_on_c, 5, 56, 72
6, 56448, Note_on_c, 5, 72, 60
6, 56539, Note_off_c, 5, 72, 0
6, 56539, Note_off_c, 5, 56, 0
6, 56544, Note_on_c, 5, 56, 60
6, 56544, Note_on_c, 5, 72, 49
6, 56636, Note_off_c, 5, 72, 0
6, 56636, Note_off_c, 5, 56, 0
6, 56638, Note_on_c, 5, 89, 85
6, 56760, Note_off_c, 5, 89, 0
6, 56776, Note_on_c, 5, 87, 97
6, 56824, Note_on_c, 5, 89, 97
6, 56831, Note_off_c, 5, 87, 0
6, 56879, Note_off_c, 5, 89, 0
6, 56920, Note_on_c, 5, 90, 97
6, 56975, Note_off_c, 5, 90, 0
6, 57016, Note_on_c, 5, 92, 90
6, 57064, Note_off_c, 5, 92, 0
6, 57064, Note_on_c, 5, 90, 124
6, 57088, Note_off_c, 5, 90, 0
6, 57112, Note_on_c, 5, 89, 120
6, 57136, Note_off_c, 5, 89, 0
6, 57160, Note_on_c, 5, 87, 120
6, 57184, Note_off_c, 5, 87, 0
6, 57208, Note_on_c, 5, 85, 85
6, 57352, Note_on_c, 5, 84, 97
6, 57356, Note_off_c, 5, 85, 0
6, 57400, Note_on_c, 5, 85, 97
6, 57407, Note_off_c, 5, 84, 0
6, 57463, Note_off_c, 5, 85, 0
6, 57590, Note_on_c, 5, 87, 97
6, 57654, Note_off_c, 5, 87, 0
6, 57782, Note_on_c, 5, 89, 85
6, 57802, Control_c, 5, 11, 104
6, 57807, Control_c, 5, 11, 103
6, 57815, Control_c, 5, 11, 103
6, 57820, Control_c, 5, 11, 101
6, 57824, Control_c, 5, 11, 99
6, 57828, Control_c, 5, 11, 97
6, 57832, Control_c, 5, 11, 94
6, 57836, Control_c, 5, 11, 92
6, 57841, Control_c, 5, 11, 89
6, 57845, Control_c, 5, 11, 85
6, 57849, Control_c, 5, 11, 81
6, 57854, Control_c, 5, 11, 77
6, 57858, Control_c, 5, 11, 73
6, 57859, Control_c, 5, 11, 72
6, 57871, Control_c, 5, 11, 72
6, 57880, Control_c, 5, 11, 72
6, 57888, Control_c, 5, 11, 73
6, 57897, Control_c, 5, 11, 74
6, 57906, Control_c, 5, 11, 75
6, 57915, Control_c, 5, 11, 76
6, 57924, Control_c, 5, 11, 78
6, 57932, Control_c, 5, 11, 78
6, 57941, Control_c, 5, 11, 79
6, 57950, Control_c, 5, 11, 80
6, 57958, Control_c, 5, 11, 81
6, 57967, Control_c, 5, 11, 82
6, 57976, Control_c, 5, 11, 84
6, 57985, Control_c, 5, 11, 85
6, 57994, Control_c, 5, 11, 86
6, 58002, Control_c, 5, 11, 87
6, 58011, Control_c, 5, 11, 88
6, 58020, Control_c, 5, 11, 89
6, 58029, Control_c, 5, 11, 90
6, 58038, Control_c, 5, 11, 92
6, 58046, Control_c, 5, 11, 93
6, 58055, Control_c, 5, 11, 94
6, 58064, Control_c, 5, 11, 95
6, 58073, Control_c, 5, 11, 96
6, 58082, Control_c, 5, 11, 96
6, 58090, Control_c, 5, 11, 97
6, 58099, Control_c, 5, 11, 99
6, 58108, Control_c, 5, 11, 100
6, 58117, Control_c, 5, 11, 101
6, 58126, Control_c, 5, 11, 102
6, 58134, Control_c, 5, 11, 103
6, 58143, Control_c, 5, 11, 104
6, 58152, Control_c, 5, 11, 105
6, 58161, Control_c, 5, 11, 107
6, 58170, Control_c, 5, 11, 108
6, 58178, Control_c, 5, 11, 109
6, 58187, Control_c, 5, 11, 110
6, 58196, Control_c, 5, 11, 111
6, 58205, Control_c, 5, 11, 112
6, 58214, Control_c, 5, 11, 113
6, 58222, Control_c, 5, 11, 115
6, 58231, Control_c, 5, 11, 116
6, 58240, Control_c, 5, 11, 117
6, 58249, Control_c, 5, 11, 118
6, 58258, Control_c, 5, 11, 119
6, 58266, Control_c, 5, 11, 120
6, 58275, Control_c, 5, 11, 123
6, 58284, Control_c, 5, 11, 124
6, 58293, Control_c, 5, 11, 125
6, 58301, Control_c, 5, 11, 127
6, 58362, Note_on_c, 5, 37, 79
6, 58378, Note_off_c, 5, 89, 0
6, 58398, Note_off_c, 5, 37, 0
6, 58952, Control_c, 5, 121, 0
6, 58960, Control_c, 5, 91, 0
6, 58968, Control_c, 5, 93, 0
6, 58968, End_track
7, 0, Start_track
7, 0, Title_t, "Strings"
7, 0, Channel_prefix, 6
7, 0, Control_c, 6, 7, 127
7, 0, Control_c, 6, 10, 34
7, 0, Program_c, 6, 48
7, 40, Control_c, 6, 121, 0
7, 48, Control_c, 6, 11, 90
7, 64, Control_c, 6, 91, 0
7, 72, Control_c, 6, 93, 100
7, 34560, Control_c, 6, 10, 34
7, 34560, Control_c, 6, 7, 127
7, 34560, Program_c, 6, 48
7, 35270, Note_on_c, 6, 52, 66
7, 35294, Note_off_c, 6, 52, 0
7, 35317, Note_on_c, 6, 60, 92
7, 35341, Note_off_c, 6, 60, 0
7, 35366, Note_on_c, 6, 59, 84
7, 35390, Note_off_c, 6, 59, 0
7, 35414, Note_on_c, 6, 60, 92
7, 35438, Note_off_c, 6, 60, 0
7, 35460, Note_on_c, 6, 52, 72
7, 35484, Note_off_c, 6, 52, 0
7, 35510, Note_on_c, 6, 60, 92
7, 35534, Note_off_c, 6, 60, 0
7, 35558, Note_on_c, 6, 59, 84
7, 35582, Note_off_c, 6, 59, 0
7, 35606, Note_on_c, 6, 60, 92
7, 35630, Note_off_c, 6, 60, 0
7, 35652, Note_on_c, 6, 52, 72
7, 35676, Note_off_c, 6, 52, 0
7, 35702, Note_on_c, 6, 60, 92
7, 35726, Note_off_c, 6, 60, 0
7, 35748, Note_on_c, 6, 59, 84
7, 35772, Note_off_c, 6, 59, 0
7, 35798, Note_on_c, 6, 60, 92
7, 35822, Note_off_c, 6, 60, 0
7, 35845, Note_on_c, 6, 52, 72
7, 35869, Note_off_c, 6, 52, 0
7, 35893, Note_on_c, 6, 60, 92
7, 35917, Note_off_c, 6, 60, 0
7, 35941, Note_on_c, 6, 59, 84
7, 35965, Note_off_c, 6, 59, 0
7, 35990, Note_on_c, 6, 60, 92
7, 36014, Note_off_c, 6, 60, 0
7, 36038, Note_on_c, 6, 52, 72
7, 36062, Note_off_c, 6, 52, 0
7, 36086, Note_on_c, 6, 62, 88
7, 36110, Note_off_c, 6, 62, 0
7, 36134, Note_on_c, 6, 60, 80
7, 36158, Note_off_c, 6, 60, 0
7, 36181, Note_on_c, 6, 62, 88
7, 36205, Note_off_c, 6, 62, 0
7, 36229, Note_on_c, 6, 52, 72
7, 36253, Note_off_c, 6, 52, 0
7, 36277, Note_on_c, 6, 62, 88
7, 36301, Note_off_c, 6, 62, 0
7, 36326, Note_on_c, 6, 60, 80
7, 36350, Note_off_c, 6, 60, 0
7, 36373, Note_on_c, 6, 62, 88
7, 36397, Note_off_c, 6, 62, 0
7, 36421, Note_on_c, 6, 52, 72
7, 36445, Note_off_c, 6, 52, 0
7, 36468, Note_on_c, 6, 62, 88
7, 36492, Note_off_c, 6, 62, 0
7, 36518, Note_on_c, 6, 60, 80
7, 36542, Note_off_c, 6, 60, 0
7, 36566, Note_on_c, 6, 62, 88
7, 36590, Note_off_c, 6, 62, 0
7, 36613, Note_on_c, 6, 52, 72
7, 36637, Note_off_c, 6, 52, 0
7, 36662, Note_on_c, 6, 62, 88
7, 36686, Note_off_c, 6, 62, 0
7, 36708, Note_on_c, 6, 60, 80
7, 36732, Note_off_c, 6, 60, 0
7, 36758, Note_on_c, 6, 62, 88
7, 36782, Note_off_c, 6, 62, 0
7, 36805, Note_on_c, 6, 52, 72
7, 36829, Note_off_c, 6, 52, 0
7, 36852, Note_on_c, 6, 60, 92
7, 36876, Note_off_c, 6, 60, 0
7, 36902, Note_on_c, 6, 59, 84
7, 36926, Note_off_c, 6, 59, 0
7, 36950, Note_on_c, 6, 60, 92
7, 36974, Note_off_c, 6, 60, 0
7, 36996, Note_on_c, 6, 55, 72
7, 37020, Note_off_c, 6, 55, 0
7, 37045, Note_on_c, 6, 60, 92
7, 37069, Note_off_c, 6, 60, 0
7, 37092, Note_on_c, 6, 59, 83
7, 37116, Note_off_c, 6, 59, 0
7, 37142, Note_on_c, 6, 60, 92
7, 37166, Note_off_c, 6, 60, 0
7, 37189, Note_on_c, 6, 55, 68
7, 37213, Note_off_c, 6, 55, 0
7, 37238, Note_on_c, 6, 60, 89
7, 37262, Note_off_c, 6, 60, 0
7, 37286, Note_on_c, 6, 59, 76
7, 37310, Note_off_c, 6, 59, 0
7, 37334, Note_on_c, 6, 60, 85
7, 37358, Note_off_c, 6, 60, 0
7, 37381, Note_on_c, 6, 54, 62
7, 37405, Note_off_c, 6, 54, 0
7, 37430, Note_on_c, 6, 60, 72
7, 37460, Note_off_c, 6, 60, 0
7, 37478, Note_on_c, 6, 59, 58
7, 37521, Note_off_c, 6, 59, 0
7, 37525, Note_on_c, 6, 60, 61
7, 37574, Note_on_c, 6, 54, 42
7, 37586, Note_off_c, 6, 60, 0
7, 37654, Note_off_c, 6, 54, 0
7, 58952, Control_c, 6, 121, 0
7, 58960, Control_c, 6, 91, 0
7, 58968, Control_c, 6, 93, 0
7, 58968, End_track
8, 0, Start_track
8, 0, Title_t, "Ocarina"
8, 0, Channel_prefix, 7
8, 0, Control_c, 7, 7, 127
8, 0, Control_c, 7, 10, 24
8, 0, Program_c, 7, 80
8, 40, Control_c, 7, 121, 0
8, 48, Control_c, 7, 11, 90
8, 64, Control_c, 7, 91, 100
8, 72, Control_c, 7, 93, 30
8, 9984, Control_c, 7, 10, 24
8, 9984, Control_c, 7, 7, 127
8, 9984, Program_c, 7, 79
8, 10469, Note_on_c, 7, 77, 71
8, 10505, Pitch_bend_c, 7, 8456
8, 10508, Pitch_bend_c, 7, 9248
8, 10512, Pitch_bend_c, 7, 9777
8, 10515, Pitch_bend_c, 7, 10570
8, 10518, Pitch_bend_c, 7, 11626
8, 10522, Pitch_bend_c, 7, 12419
8, 10526, Pitch_bend_c, 7, 13212
8, 10529, Pitch_bend_c, 7, 14004
8, 10533, Pitch_bend_c, 7, 14533
8, 10536, Pitch_bend_c, 7, 14797
8, 10540, Pitch_bend_c, 7, 15326
8, 10543, Pitch_bend_c, 7, 15854
8, 10547, Pitch_bend_c, 7, 16118
8, 10550, Pitch_bend_c, 7, 16383
8, 10750, Pitch_bend_c, 7, 15854
8, 10754, Pitch_bend_c, 7, 15061
8, 10757, Pitch_bend_c, 7, 14533
8, 10761, Pitch_bend_c, 7, 13740
8, 10764, Pitch_bend_c, 7, 13212
8, 10768, Pitch_bend_c, 7, 12683
8, 10772, Pitch_bend_c, 7, 12155
8, 10774, Pitch_bend_c, 7, 11362
8, 10778, Pitch_bend_c, 7, 10834
8, 10782, Pitch_bend_c, 7, 10305
8, 10785, Pitch_bend_c, 7, 9777
8, 10788, Pitch_bend_c, 7, 9248
8, 10792, Pitch_bend_c, 7, 8720
8, 10795, Pitch_bend_c, 7, 8456
8, 10799, Pitch_bend_c, 7, 8192
8, 10946, Pitch_bend_c, 7, 8456
8, 10950, Pitch_bend_c, 7, 8720
8, 10960, Pitch_bend_c, 7, 8984
8, 10974, Pitch_bend_c, 7, 8720
8, 10978, Pitch_bend_c, 7, 8456
8, 10982, Pitch_bend_c, 7, 8192
8, 11020, Pitch_bend_c, 7, 8456
8, 11023, Pitch_bend_c, 7, 8720
8, 11048, Pitch_bend_c, 7, 8456
8, 11051, Pitch_bend_c, 7, 8192
8, 11079, Pitch_bend_c, 7, 8456
8, 11083, Pitch_bend_c, 7, 8984
8, 11086, Pitch_bend_c, 7, 9248
8, 11094, Pitch_bend_c, 7, 9513
8, 11108, Pitch_bend_c, 7, 8984
8, 11111, Pitch_bend_c, 7, 8720
8, 11114, Pitch_bend_c, 7, 8456
8, 11118, Pitch_bend_c, 7, 8192
8, 11153, Pitch_bend_c, 7, 8720
8, 11156, Pitch_bend_c, 7, 8984
8, 11160, Pitch_bend_c, 7, 9513
8, 11163, Pitch_bend_c, 7, 9777
8, 11166, Pitch_bend_c, 7, 10041
8, 11177, Pitch_bend_c, 7, 9513
8, 11180, Pitch_bend_c, 7, 8984
8, 11184, Pitch_bend_c, 7, 8456
8, 11187, Pitch_bend_c, 7, 8192
8, 11208, Pitch_bend_c, 7, 8456
8, 11212, Pitch_bend_c, 7, 8984
8, 11219, Pitch_bend_c, 7, 9248
8, 11233, Pitch_bend_c, 7, 8720
8, 11236, Pitch_bend_c, 7, 8456
8, 11243, Pitch_bend_c, 7, 8192
8, 11258, Pitch_bend_c, 7, 8456
8, 11261, Pitch_bend_c, 7, 8984
8, 11268, Pitch_bend_c, 7, 9248
8, 11279, Pitch_bend_c, 7, 8984
8, 11282, Pitch_bend_c, 7, 8456
8, 11286, Pitch_bend_c, 7, 8192
8, 11304, Pitch_bend_c, 7, 8456
8, 11307, Pitch_bend_c, 7, 8720
8, 11314, Pitch_bend_c, 7, 8984
8, 11325, Pitch_bend_c, 7, 8720
8, 11328, Pitch_bend_c, 7, 8456
8, 11330, Note_off_c, 7, 77, 0
8, 11332, Pitch_bend_c, 7, 8192
8, 11377, Pitch_bend_c, 7, 8720
8, 11381, Pitch_bend_c, 7, 9248
8, 11384, Pitch_bend_c, 7, 9777
8, 11388, Pitch_bend_c, 7, 10570
8, 11391, Pitch_bend_c, 7, 11362
8, 11394, Pitch_bend_c, 7, 12155
8, 11398, Pitch_bend_c, 7, 13212
8, 11402, Pitch_bend_c, 7, 14269
8, 11405, Pitch_bend_c, 7, 15061
8, 11408, Pitch_bend_c, 7, 15854
8, 11412, Pitch_bend_c, 7, 16383
8, 11422, Note_on_c, 7, 72, 74
8, 11433, Pitch_bend_c, 7, 16118
8, 11436, Pitch_bend_c, 7, 14797
8, 11440, Pitch_bend_c, 7, 12948
8, 11444, Pitch_bend_c, 7, 11098
8, 11447, Pitch_bend_c, 7, 10041
8, 11450, Pitch_bend_c, 7, 9248
8, 11454, Pitch_bend_c, 7, 8720
8, 11457, Pitch_bend_c, 7, 8456
8, 11461, Pitch_bend_c, 7, 8192
8, 11475, Note_on_c, 7, 70, 63
8, 11483, Note_off_c, 7, 72, 0
8, 11514, Note_on_c, 7, 72, 73
8, 11516, Note_off_c, 7, 70, 0
8, 11639, Pitch_bend_c, 7, 8456
8, 11646, Pitch_bend_c, 7, 8720
8, 11653, Pitch_bend_c, 7, 8192
8, 11698, Pitch_bend_c, 7, 8456
8, 11702, Pitch_bend_c, 7, 8720
8, 11706, Pitch_bend_c, 7, 8984
8, 11713, Pitch_bend_c, 7, 9248
8, 11727, Pitch_bend_c, 7, 8720
8, 11730, Pitch_bend_c, 7, 8456
8, 11734, Pitch_bend_c, 7, 8192
8, 11769, Pitch_bend_c, 7, 8456
8, 11776, Pitch_bend_c, 7, 8720
8, 11794, Pitch_bend_c, 7, 8456
8, 11797, Pitch_bend_c, 7, 8192
8, 11832, Pitch_bend_c, 7, 8456
8, 11835, Pitch_bend_c, 7, 8720
8, 11839, Pitch_bend_c, 7, 8984
8, 11842, Pitch_bend_c, 7, 9248
8, 11856, Pitch_bend_c, 7, 8984
8, 11860, Pitch_bend_c, 7, 8720
8, 11863, Pitch_bend_c, 7, 8192
8, 11891, Pitch_bend_c, 7, 8720
8, 11894, Pitch_bend_c, 7, 8984
8, 11898, Pitch_bend_c, 7, 9248
8, 11912, Pitch_bend_c, 7, 8720
8, 11916, Pitch_bend_c, 7, 8456
8, 11919, Pitch_bend_c, 7, 8192
8, 11936, Pitch_bend_c, 7, 8720
8, 11940, Pitch_bend_c, 7, 8984
8, 11943, Pitch_bend_c, 7, 9248
8, 11957, Pitch_bend_c, 7, 8720
8, 11960, Pitch_bend_c, 7, 8192
8, 11981, Note_off_c, 7, 72, 0
8, 12007, Note_on_c, 7, 72, 76
8, 12017, Pitch_bend_c, 7, 8720
8, 12021, Pitch_bend_c, 7, 9513
8, 12024, Pitch_bend_c, 7, 10041
8, 12028, Pitch_bend_c, 7, 10305
8, 12031, Pitch_bend_c, 7, 11098
8, 12035, Pitch_bend_c, 7, 12155
8, 12038, Pitch_bend_c, 7, 13476
8, 12042, Pitch_bend_c, 7, 14269
8, 12045, Pitch_bend_c, 7, 14797
8, 12049, Pitch_bend_c, 7, 15326
8, 12052, Pitch_bend_c, 7, 15590
8, 12060, Pitch_bend_c, 7, 16118
8, 12066, Pitch_bend_c, 7, 16383
8, 12226, Control_c, 7, 11, 90
8, 12229, Control_c, 7, 11, 85
8, 12232, Control_c, 7, 11, 83
8, 12234, Pitch_bend_c, 7, 8192
8, 12257, Note_on_c, 7, 70, 64
8, 12266, Note_off_c, 7, 72, 0
8, 12276, Note_on_c, 7, 72, 70
8, 12285, Note_off_c, 7, 70, 0
8, 12420, Pitch_bend_c, 7, 8456
8, 12424, Pitch_bend_c, 7, 8720
8, 12438, Pitch_bend_c, 7, 8192
8, 12484, Pitch_bend_c, 7, 8720
8, 12487, Pitch_bend_c, 7, 8984
8, 12491, Pitch_bend_c, 7, 9248
8, 12494, Pitch_bend_c, 7, 9513
8, 12504, Pitch_bend_c, 7, 9248
8, 12508, Pitch_bend_c, 7, 8720
8, 12511, Pitch_bend_c, 7, 8192
8, 12539, Pitch_bend_c, 7, 8456
8, 12542, Pitch_bend_c, 7, 8720
8, 12546, Pitch_bend_c, 7, 8984
8, 12553, Pitch_bend_c, 7, 9248
8, 12567, Pitch_bend_c, 7, 8984
8, 12570, Pitch_bend_c, 7, 8720
8, 12574, Pitch_bend_c, 7, 8192
8, 12598, Pitch_bend_c, 7, 8456
8, 12602, Pitch_bend_c, 7, 8720
8, 12605, Pitch_bend_c, 7, 8984
8, 12609, Pitch_bend_c, 7, 9248
8, 12623, Pitch_bend_c, 7, 8984
8, 12626, Pitch_bend_c, 7, 8456
8, 12630, Pitch_bend_c, 7, 8192
8, 12665, Pitch_bend_c, 7, 8720
8, 12668, Pitch_bend_c, 7, 8984
8, 12672, Pitch_bend_c, 7, 9248
8, 12675, Pitch_bend_c, 7, 9513
8, 12689, Pitch_bend_c, 7, 9248
8, 12693, Pitch_bend_c, 7, 8720
8, 12696, Pitch_bend_c, 7, 8192
8, 12731, Pitch_bend_c, 7, 8456
8, 12734, Pitch_bend_c, 7, 8720
8, 12738, Pitch_bend_c, 7, 9248
8, 12745, Pitch_bend_c, 7, 9513
8, 12756, Pitch_bend_c, 7, 8984
8, 12759, Pitch_bend_c, 7, 8456
8, 12762, Pitch_bend_c, 7, 8192
8, 12787, Pitch_bend_c, 7, 8456
8, 12790, Pitch_bend_c, 7, 8720
8, 12794, Pitch_bend_c, 7, 8984
8, 12801, Pitch_bend_c, 7, 9248
8, 12808, Pitch_bend_c, 7, 8984
8, 12812, Pitch_bend_c, 7, 8720
8, 12815, Pitch_bend_c, 7, 8456
8, 12819, Pitch_bend_c, 7, 8192
8, 12850, Pitch_bend_c, 7, 8456
8, 12854, Pitch_bend_c, 7, 8720
8, 12872, Pitch_bend_c, 7, 8456
8, 12875, Pitch_bend_c, 7, 8192
8, 12906, Pitch_bend_c, 7, 8456
8, 12910, Pitch_bend_c, 7, 8720
8, 12924, Pitch_bend_c, 7, 8984
8, 12928, Pitch_bend_c, 7, 8720
8, 12931, Pitch_bend_c, 7, 8456
8, 12934, Pitch_bend_c, 7, 8192
8, 12959, Pitch_bend_c, 7, 8720
8, 12962, Pitch_bend_c, 7, 9248
8, 12966, Pitch_bend_c, 7, 9513
8, 12969, Pitch_bend_c, 7, 9777
8, 12983, Pitch_bend_c, 7, 9248
8, 12987, Pitch_bend_c, 7, 8720
8, 12990, Pitch_bend_c, 7, 8192
8, 13021, Pitch_bend_c, 7, 8456
8, 13025, Pitch_bend_c, 7, 8720
8, 13041, Note_off_c, 7, 72, 0
8, 13042, Pitch_bend_c, 7, 8192
8, 13120, Control_c, 7, 11, 90
8, 15912, Control_c, 7, 11, 75
8, 15915, Control_c, 7, 11, 70
8, 15918, Control_c, 7, 11, 66
8, 15922, Control_c, 7, 11, 60
8, 15925, Control_c, 7, 11, 57
8, 15929, Control_c, 7, 11, 53
8, 15932, Note_on_c, 7, 70, 75
8, 15932, Control_c, 7, 11, 51
8, 15936, Control_c, 7, 11, 50
8, 15939, Control_c, 7, 11, 50
8, 15957, Control_c, 7, 11, 55
8, 15960, Control_c, 7, 11, 58
8, 15964, Control_c, 7, 11, 62
8, 15967, Control_c, 7, 11, 66
8, 15971, Control_c, 7, 11, 70
8, 15974, Control_c, 7, 11, 74
8, 15978, Control_c, 7, 11, 76
8, 15981, Control_c, 7, 11, 79
8, 15984, Control_c, 7, 11, 82
8, 15988, Control_c, 7, 11, 83
8, 16002, Control_c, 7, 11, 78
8, 16005, Control_c, 7, 11, 75
8, 16009, Control_c, 7, 11, 70
8, 16012, Control_c, 7, 11, 66
8, 16016, Control_c, 7, 11, 62
8, 16019, Control_c, 7, 11, 59
8, 16022, Control_c, 7, 11, 57
8, 16026, Control_c, 7, 11, 54
8, 16029, Control_c, 7, 11, 52
8, 16033, Note_on_c, 7, 79, 75
8, 16033, Control_c, 7, 11, 51
8, 16036, Control_c, 7, 11, 50
8, 16040, Control_c, 7, 11, 50
8, 16053, Control_c, 7, 11, 55
8, 16056, Control_c, 7, 11, 58
8, 16060, Control_c, 7, 11, 62
8, 16063, Control_c, 7, 11, 66
8, 16067, Control_c, 7, 11, 70
8, 16070, Control_c, 7, 11, 74
8, 16074, Control_c, 7, 11, 76
8, 16077, Control_c, 7, 11, 79
8, 16080, Control_c, 7, 11, 82
8, 16084, Control_c, 7, 11, 83
8, 16098, Control_c, 7, 11, 78
8, 16101, Control_c, 7, 11, 75
8, 16105, Control_c, 7, 11, 70
8, 16108, Control_c, 7, 11, 66
8, 16112, Control_c, 7, 11, 62
8, 16115, Control_c, 7, 11, 59
8, 16118, Control_c, 7, 11, 57
8, 16122, Control_c, 7, 11, 54
8, 16125, Control_c, 7, 11, 52
8, 16126, Note_off_c, 7, 79, 0
8, 16126, Note_on_c, 7, 77, 75
8, 16129, Control_c, 7, 11, 51
8, 16132, Control_c, 7, 11, 50
8, 16136, Control_c, 7, 11, 50
8, 16191, Control_c, 7, 11, 53
8, 16195, Control_c, 7, 11, 55
8, 16198, Control_c, 7, 11, 57
8, 16202, Control_c, 7, 11, 58
8, 16205, Control_c, 7, 11, 59
8, 16208, Control_c, 7, 11, 60
8, 16212, Control_c, 7, 11, 61
8, 16215, Control_c, 7, 11, 62
8, 16219, Control_c, 7, 11, 63
8, 16222, Control_c, 7, 11, 64
8, 16226, Control_c, 7, 11, 66
8, 16229, Control_c, 7, 11, 66
8, 16239, Control_c, 7, 11, 68
8, 16243, Control_c, 7, 11, 69
8, 16257, Control_c, 7, 11, 72
8, 16271, Control_c, 7, 11, 75
8, 16274, Control_c, 7, 11, 75
8, 16309, Control_c, 7, 11, 78
8, 16351, Control_c, 7, 11, 80
8, 16425, Control_c, 7, 11, 83
8, 16463, Control_c, 7, 11, 80
8, 16466, Control_c, 7, 11, 79
8, 16470, Control_c, 7, 11, 77
8, 16473, Control_c, 7, 11, 75
8, 16477, Control_c, 7, 11, 74
8, 16480, Control_c, 7, 11, 70
8, 16484, Control_c, 7, 11, 68
8, 16487, Control_c, 7, 11, 66
8, 16490, Control_c, 7, 11, 63
8, 16494, Control_c, 7, 11, 60
8, 16497, Control_c, 7, 11, 58
8, 16501, Control_c, 7, 11, 54
8, 16504, Control_c, 7, 11, 52
8, 16508, Note_off_c, 7, 77, 0
8, 16508, Control_c, 7, 11, 51
8, 16508, Note_on_c, 7, 75, 75
8, 16511, Control_c, 7, 11, 50
8, 16529, Control_c, 7, 11, 54
8, 16532, Control_c, 7, 11, 57
8, 16535, Control_c, 7, 11, 58
8, 16539, Control_c, 7, 11, 60
8, 16542, Control_c, 7, 11, 61
8, 16546, Control_c, 7, 11, 62
8, 16549, Control_c, 7, 11, 63
8, 16553, Control_c, 7, 11, 64
8, 16556, Control_c, 7, 11, 66
8, 16560, Control_c, 7, 11, 66
8, 16563, Control_c, 7, 11, 67
8, 16566, Control_c, 7, 11, 68
8, 16577, Control_c, 7, 11, 70
8, 16591, Control_c, 7, 11, 74
8, 16594, Control_c, 7, 11, 75
8, 16608, Control_c, 7, 11, 77
8, 16622, Control_c, 7, 11, 79
8, 16640, Control_c, 7, 11, 83
8, 16657, Control_c, 7, 11, 79
8, 16661, Control_c, 7, 11, 76
8, 16664, Control_c, 7, 11, 72
8, 16668, Control_c, 7, 11, 69
8, 16671, Control_c, 7, 11, 66
8, 16674, Control_c, 7, 11, 62
8, 16678, Control_c, 7, 11, 59
8, 16682, Control_c, 7, 11, 57
8, 16685, Control_c, 7, 11, 54
8, 16688, Control_c, 7, 11, 53
8, 16692, Control_c, 7, 11, 52
8, 16695, Control_c, 7, 11, 51
8, 16705, Note_off_c, 7, 75, 0
8, 16705, Note_on_c, 7, 79, 75
8, 16710, Control_c, 7, 11, 54
8, 16713, Control_c, 7, 11, 55
8, 16716, Control_c, 7, 11, 58
8, 16720, Control_c, 7, 11, 58
8, 16723, Control_c, 7, 11, 60
8, 16726, Control_c, 7, 11, 61
8, 16730, Control_c, 7, 11, 62
8, 16734, Control_c, 7, 11, 64
8, 16737, Control_c, 7, 11, 66
8, 16740, Control_c, 7, 11, 66
8, 16744, Control_c, 7, 11, 67
8, 16747, Control_c, 7, 11, 68
8, 16758, Control_c, 7, 11, 70
8, 16772, Control_c, 7, 11, 74
8, 16775, Control_c, 7, 11, 75
8, 16778, Control_c, 7, 11, 75
8, 16782, Control_c, 7, 11, 76
8, 16792, Control_c, 7, 11, 79
8, 16802, Control_c, 7, 11, 82
8, 16806, Control_c, 7, 11, 83
8, 16810, Control_c, 7, 11, 83
8, 16813, Control_c, 7, 11, 84
8, 16827, Control_c, 7, 11, 87
8, 16882, Control_c, 7, 11, 83
8, 16886, Control_c, 7, 11, 78
8, 16889, Control_c, 7, 11, 74
8, 16892, Control_c, 7, 11, 69
8, 16896, Control_c, 7, 11, 64
8, 16899, Note_off_c, 7, 79, 0
8, 16899, Note_on_c, 7, 77, 75
8, 16899, Control_c, 7, 11, 60
8, 16903, Control_c, 7, 11, 58
8, 16906, Control_c, 7, 11, 54
8, 16910, Control_c, 7, 11, 52
8, 16913, Control_c, 7, 11, 51
8, 16916, Control_c, 7, 11, 50
8, 16930, Control_c, 7, 11, 54
8, 16934, Control_c, 7, 11, 55
8, 16937, Control_c, 7, 11, 58
8, 16940, Control_c, 7, 11, 58
8, 16944, Control_c, 7, 11, 59
8, 16948, Control_c, 7, 11, 60
8, 16962, Control_c, 7, 11, 62
8, 16965, Control_c, 7, 11, 63
8, 16979, Control_c, 7, 11, 66
8, 16993, Control_c, 7, 11, 68
8, 16996, Control_c, 7, 11, 69
8, 17010, Control_c, 7, 11, 72
8, 17031, Control_c, 7, 11, 75
8, 17052, Control_c, 7, 11, 77
8, 17195, Control_c, 7, 11, 79
8, 17254, Control_c, 7, 11, 76
8, 17258, Control_c, 7, 11, 74
8, 17261, Control_c, 7, 11, 70
8, 17264, Control_c, 7, 11, 66
8, 17268, Control_c, 7, 11, 62
8, 17271, Control_c, 7, 11, 59
8, 17275, Control_c, 7, 11, 57
8, 17278, Control_c, 7, 11, 54
8, 17282, Control_c, 7, 11, 52
8, 17283, Note_off_c, 7, 77, 0
8, 17283, Note_on_c, 7, 82, 75
8, 17285, Control_c, 7, 11, 51
8, 17288, Control_c, 7, 11, 50
8, 17302, Control_c, 7, 11, 54
8, 17306, Control_c, 7, 11, 57
8, 17309, Control_c, 7, 11, 58
8, 17313, Control_c, 7, 11, 59
8, 17316, Control_c, 7, 11, 60
8, 17320, Control_c, 7, 11, 61
8, 17333, Control_c, 7, 11, 63
8, 17334, Control_c, 7, 11, 66
8, 17348, Control_c, 7, 11, 68
8, 17365, Control_c, 7, 11, 71
8, 17386, Control_c, 7, 11, 74
8, 17404, Control_c, 7, 11, 76
8, 17407, Control_c, 7, 11, 77
8, 17411, Control_c, 7, 11, 78
8, 17435, Control_c, 7, 11, 74
8, 17438, Control_c, 7, 11, 69
8, 17442, Control_c, 7, 11, 64
8, 17445, Control_c, 7, 11, 60
8, 17449, Control_c, 7, 11, 57
8, 17452, Control_c, 7, 11, 54
8, 17456, Control_c, 7, 11, 52
8, 17459, Control_c, 7, 11, 51
8, 17471, Note_off_c, 7, 82, 0
8, 17471, Note_on_c, 7, 77, 75
8, 17480, Control_c, 7, 11, 53
8, 17483, Control_c, 7, 11, 55
8, 17487, Control_c, 7, 11, 58
8, 17490, Control_c, 7, 11, 58
8, 17494, Control_c, 7, 11, 59
8, 17497, Control_c, 7, 11, 61
8, 17508, Control_c, 7, 11, 63
8, 17511, Control_c, 7, 11, 64
8, 17514, Control_c, 7, 11, 66
8, 17556, Control_c, 7, 11, 68
8, 17560, Control_c, 7, 11, 69
8, 17563, Control_c, 7, 11, 70
8, 17566, Control_c, 7, 11, 71
8, 17570, Control_c, 7, 11, 72
8, 17573, Control_c, 7, 11, 75
8, 17577, Control_c, 7, 11, 75
8, 17580, Control_c, 7, 11, 76
8, 17584, Control_c, 7, 11, 77
8, 17608, Control_c, 7, 11, 80
8, 17632, Control_c, 7, 11, 77
8, 17636, Control_c, 7, 11, 75
8, 17639, Control_c, 7, 11, 71
8, 17643, Control_c, 7, 11, 67
8, 17646, Control_c, 7, 11, 62
8, 17650, Control_c, 7, 11, 58
8, 17653, Control_c, 7, 11, 55
8, 17656, Control_c, 7, 11, 53
8, 17659, Note_off_c, 7, 77, 0
8, 17659, Note_on_c, 7, 75, 75
8, 17660, Control_c, 7, 11, 52
8, 17663, Control_c, 7, 11, 51
8, 17667, Control_c, 7, 11, 50
8, 17684, Control_c, 7, 11, 53
8, 17688, Control_c, 7, 11, 54
8, 17691, Control_c, 7, 11, 57
8, 17694, Control_c, 7, 11, 58
8, 17698, Control_c, 7, 11, 59
8, 17702, Control_c, 7, 11, 60
8, 17705, Control_c, 7, 11, 61
8, 17708, Control_c, 7, 11, 62
8, 17712, Control_c, 7, 11, 63
8, 17715, Control_c, 7, 11, 64
8, 17718, Control_c, 7, 11, 66
8, 17722, Control_c, 7, 11, 66
8, 17726, Control_c, 7, 11, 67
8, 17729, Control_c, 7, 11, 68
8, 17732, Control_c, 7, 11, 69
8, 17736, Control_c, 7, 11, 70
8, 17750, Control_c, 7, 11, 74
8, 17753, Control_c, 7, 11, 75
8, 17757, Control_c, 7, 11, 75
8, 17777, Control_c, 7, 11, 77
8, 17837, Control_c, 7, 11, 80
8, 17973, Control_c, 7, 11, 77
8, 17976, Control_c, 7, 11, 76
8, 17990, Control_c, 7, 11, 74
8, 18008, Control_c, 7, 11, 71
8, 18025, Control_c, 7, 11, 68
8, 18039, Control_c, 7, 11, 66
8, 18067, Control_c, 7, 11, 62
8, 18091, Control_c, 7, 11, 66
8, 18109, Control_c, 7, 11, 67
8, 18133, Control_c, 7, 11, 70
8, 18168, Control_c, 7, 11, 72
8, 18200, Control_c, 7, 11, 75
8, 18214, Control_c, 7, 11, 71
8, 18217, Control_c, 7, 11, 67
8, 18220, Control_c, 7, 11, 62
8, 18224, Control_c, 7, 11, 58
8, 18228, Control_c, 7, 11, 57
8, 18231, Control_c, 7, 11, 54
8, 18234, Control_c, 7, 11, 52
8, 18238, Control_c, 7, 11, 51
8, 18243, Note_on_c, 7, 69, 75
8, 18244, Note_off_c, 7, 70, 0
8, 18269, Control_c, 7, 11, 55
8, 18272, Control_c, 7, 11, 57
8, 18276, Control_c, 7, 11, 58
8, 18279, Control_c, 7, 11, 59
8, 18283, Control_c, 7, 11, 61
8, 18297, Control_c, 7, 11, 63
8, 18314, Control_c, 7, 11, 66
8, 18317, Control_c, 7, 11, 67
8, 18331, Control_c, 7, 11, 69
8, 18348, Control_c, 7, 11, 72
8, 18366, Control_c, 7, 11, 75
8, 18384, Control_c, 7, 11, 77
8, 18425, Note_off_c, 7, 75, 0
8, 18427, Note_off_c, 7, 69, 0
8, 58952, Control_c, 7, 121, 0
8, 58960, Control_c, 7, 91, 0
8, 58968, Control_c, 7, 93, 0
8, 58968, End_track
9, 0, Start_track
9, 0, Title_t, "French Ho"
9, 0, Channel_prefix, 8
9, 0, Control_c, 8, 7, 127
9, 0, Control_c, 8, 10, 44
9, 0, Program_c, 8, 60
9, 40, Control_c, 8, 121, 0
9, 48, Control_c, 8, 11, 102
9, 64, Control_c, 8, 91, 100
9, 72, Control_c, 8, 93, 0
9, 18432, Control_c, 8, 10, 44
9, 18432, Control_c, 8, 7, 127
9, 18432, Program_c, 8, 60
9, 18432, Note_on_c, 8, 62, 114
9, 18575, Note_off_c, 8, 62, 0
9, 18576, Note_on_c, 8, 60, 114
9, 18610, Note_off_c, 8, 60, 0
9, 18624, Note_on_c, 8, 62, 114
9, 18708, Note_off_c, 8, 62, 0
9, 18720, Note_on_c, 8, 63, 114
9, 18815, Note_off_c, 8, 63, 0
9, 18816, Note_on_c, 8, 65, 114
9, 18988, Note_off_c, 8, 65, 0
9, 19008, Note_on_c, 8, 58, 114
9, 19144, Note_off_c, 8, 58, 0
9, 19152, Note_on_c, 8, 57, 114
9, 19200, Note_on_c, 8, 58, 114
9, 19206, Note_off_c, 8, 57, 0
9, 19296, Note_on_c, 8, 60, 114
9, 19297, Note_off_c, 8, 58, 0
9, 19385, Note_off_c, 8, 60, 0
9, 19392, Note_on_c, 8, 62, 114
9, 19569, Note_off_c, 8, 62, 0
9, 19584, Note_on_c, 8, 55, 85
9, 19857, Note_off_c, 8, 55, 0
9, 19872, Note_on_c, 8, 57, 88
9, 19968, Note_on_c, 8, 58, 88
9, 19984, Note_off_c, 8, 57, 0
9, 20255, Note_off_c, 8, 58, 0
9, 20256, Note_on_c, 8, 60, 88
9, 20344, Note_off_c, 8, 60, 0
9, 20352, Note_on_c, 8, 60, 88
9, 20636, Note_off_c, 8, 60, 0
9, 20640, Note_on_c, 8, 62, 85
9, 20736, Note_on_c, 8, 57, 88
9, 20742, Note_off_c, 8, 62, 0
9, 20918, Note_off_c, 8, 57, 0
9, 20928, Note_on_c, 8, 55, 88
9, 21071, Note_on_c, 8, 57, 71
9, 21076, Note_off_c, 8, 55, 0
9, 21080, Note_on_c, 8, 59, 67
9, 21083, Note_off_c, 8, 57, 0
9, 21088, Note_on_c, 8, 60, 61
9, 21092, Note_off_c, 8, 59, 0
9, 21096, Note_on_c, 8, 62, 59
9, 21100, Note_off_c, 8, 60, 0
9, 21106, Note_on_c, 8, 64, 63
9, 21108, Note_off_c, 8, 62, 0
9, 21116, Note_on_c, 8, 65, 67
9, 21118, Note_off_c, 8, 64, 0
9, 21126, Note_on_c, 8, 67, 69
9, 21128, Note_off_c, 8, 65, 0
9, 21153, Control_c, 8, 11, 102
9, 21158, Control_c, 8, 11, 101
9, 21250, Control_c, 8, 11, 100
9, 21288, Control_c, 8, 11, 99
9, 21317, Control_c, 8, 11, 98
9, 21346, Control_c, 8, 11, 96
9, 21366, Control_c, 8, 11, 95
9, 21390, Control_c, 8, 11, 94
9, 21404, Control_c, 8, 11, 93
9, 21424, Control_c, 8, 11, 92
9, 21438, Control_c, 8, 11, 91
9, 21457, Control_c, 8, 11, 90
9, 21472, Control_c, 8, 11, 88
9, 21482, Control_c, 8, 11, 87
9, 21496, Control_c, 8, 11, 86
9, 21510, Control_c, 8, 11, 85
9, 21520, Control_c, 8, 11, 84
9, 21534, Control_c, 8, 11, 83
9, 21544, Control_c, 8, 11, 82
9, 21559, Control_c, 8, 11, 80
9, 21568, Control_c, 8, 11, 79
9, 21578, Control_c, 8, 11, 78
9, 21588, Control_c, 8, 11, 77
9, 21602, Control_c, 8, 11, 76
9, 21612, Control_c, 8, 11, 75
9, 21622, Control_c, 8, 11, 74
9, 21631, Control_c, 8, 11, 72
9, 21641, Control_c, 8, 11, 71
9, 21646, Control_c, 8, 11, 70
9, 21655, Control_c, 8, 11, 69
9, 21665, Control_c, 8, 11, 68
9, 21674, Control_c, 8, 11, 67
9, 21684, Control_c, 8, 11, 66
9, 21689, Control_c, 8, 11, 64
9, 21699, Control_c, 8, 11, 63
9, 21708, Control_c, 8, 11, 62
9, 21718, Control_c, 8, 11, 61
9, 21723, Control_c, 8, 11, 60
9, 21732, Control_c, 8, 11, 59
9, 21737, Control_c, 8, 11, 58
9, 21747, Control_c, 8, 11, 57
9, 21757, Control_c, 8, 11, 55
9, 21762, Control_c, 8, 11, 54
9, 21771, Control_c, 8, 11, 53
9, 21776, Control_c, 8, 11, 52
9, 21786, Control_c, 8, 11, 51
9, 21790, Control_c, 8, 11, 50
9, 21800, Control_c, 8, 11, 49
9, 21805, Control_c, 8, 11, 47
9, 21810, Control_c, 8, 11, 46
9, 21820, Control_c, 8, 11, 45
9, 21824, Control_c, 8, 11, 44
9, 21834, Control_c, 8, 11, 43
9, 21839, Control_c, 8, 11, 42
9, 21844, Control_c, 8, 11, 41
9, 21853, Control_c, 8, 11, 39
9, 21858, Control_c, 8, 11, 38
9, 21863, Control_c, 8, 11, 37
9, 21872, Control_c, 8, 11, 36
9, 21877, Control_c, 8, 11, 35
9, 21882, Control_c, 8, 11, 34
9, 21887, Control_c, 8, 11, 33
9, 21897, Control_c, 8, 11, 31
9, 21902, Control_c, 8, 11, 30
9, 21906, Control_c, 8, 11, 29
9, 21911, Control_c, 8, 11, 28
9, 21921, Control_c, 8, 11, 27
9, 21926, Control_c, 8, 11, 26
9, 21930, Control_c, 8, 11, 25
9, 21935, Control_c, 8, 11, 23
9, 21945, Control_c, 8, 11, 22
9, 21950, Control_c, 8, 11, 21
9, 21955, Control_c, 8, 11, 20
9, 21960, Control_c, 8, 11, 19
9, 21964, Control_c, 8, 11, 18
9, 21969, Control_c, 8, 11, 17
9, 21974, Control_c, 8, 11, 15
9, 21984, Control_c, 8, 11, 14
9, 21988, Control_c, 8, 11, 13
9, 21993, Control_c, 8, 11, 12
9, 21998, Control_c, 8, 11, 11
9, 22003, Control_c, 8, 11, 10
9, 22008, Control_c, 8, 11, 9
9, 22012, Control_c, 8, 11, 7
9, 22017, Control_c, 8, 11, 6
9, 22022, Control_c, 8, 11, 5
9, 22027, Control_c, 8, 11, 4
9, 22032, Control_c, 8, 11, 3
9, 22037, Control_c, 8, 11, 2
9, 22046, Control_c, 8, 11, 1
9, 22051, Control_c, 8, 11, 0
9, 22057, Note_off_c, 8, 67, 0
9, 22228, Control_c, 8, 11, 87
9, 27072, Control_c, 8, 10, 94
9, 27264, Note_on_c, 8, 79, 87
9, 27264, Note_on_c, 8, 74, 79
9, 27312, Note_on_c, 8, 76, 63
9, 27312, Note_on_c, 8, 72, 58
9, 27317, Note_off_c, 8, 74, 0
9, 27317, Note_off_c, 8, 79, 0
9, 27326, Note_off_c, 8, 76, 0
9, 27326, Note_off_c, 8, 72, 0
9, 27360, Note_on_c, 8, 79, 87
9, 27360, Note_on_c, 8, 74, 79
9, 27408, Note_on_c, 8, 76, 63
9, 27408, Note_on_c, 8, 72, 58
9, 27411, Note_off_c, 8, 74, 0
9, 27411, Note_off_c, 8, 79, 0
9, 27422, Note_off_c, 8, 76, 0
9, 27422, Note_off_c, 8, 72, 0
9, 27456, Note_on_c, 8, 74, 87
9, 27470, Note_off_c, 8, 74, 0
9, 27504, Note_on_c, 8, 76, 87
9, 27504, Note_on_c, 8, 72, 79
9, 27518, Note_off_c, 8, 72, 0
9, 27518, Note_off_c, 8, 76, 0
9, 27552, Note_on_c, 8, 79, 87
9, 27552, Note_on_c, 8, 74, 79
9, 27600, Note_on_c, 8, 76, 63
9, 27600, Note_on_c, 8, 72, 58
9, 27603, Note_off_c, 8, 74, 0
9, 27603, Note_off_c, 8, 79, 0
9, 27614, Note_off_c, 8, 76, 0
9, 27614, Note_off_c, 8, 72, 0
9, 27648, Note_on_c, 8, 79, 87
9, 27648, Note_on_c, 8, 74, 79
9, 27691, Note_off_c, 8, 74, 0
9, 27691, Note_off_c, 8, 79, 0
9, 27696, Note_on_c, 8, 76, 63
9, 27696, Note_on_c, 8, 72, 58
9, 27710, Note_off_c, 8, 72, 0
9, 27710, Note_off_c, 8, 76, 0
9, 27744, Note_on_c, 8, 74, 87
9, 27758, Note_off_c, 8, 74, 0
9, 27792, Note_on_c, 8, 76, 87
9, 27792, Note_on_c, 8, 72, 79
9, 27806, Note_off_c, 8, 72, 0
9, 27806, Note_off_c, 8, 76, 0
9, 27840, Note_on_c, 8, 79, 87
9, 27840, Note_on_c, 8, 74, 79
9, 27888, Note_on_c, 8, 76, 63
9, 27888, Note_on_c, 8, 72, 58
9, 27893, Note_off_c, 8, 74, 0
9, 27893, Note_off_c, 8, 79, 0
9, 27902, Note_off_c, 8, 76, 0
9, 27902, Note_off_c, 8, 72, 0
9, 27936, Note_on_c, 8, 79, 87
9, 27936, Note_on_c, 8, 74, 79
9, 27984, Note_on_c, 8, 76, 63
9, 27984, Note_on_c, 8, 72, 58
9, 27987, Note_off_c, 8, 74, 0
9, 27987, Note_off_c, 8, 79, 0
9, 27998, Note_off_c, 8, 76, 0
9, 27998, Note_off_c, 8, 72, 0
9, 28032, Note_on_c, 8, 74, 87
9, 28046, Note_off_c, 8, 74, 0
9, 28080, Note_on_c, 8, 76, 87
9, 28080, Note_on_c, 8, 72, 79
9, 28094, Note_off_c, 8, 72, 0
9, 28094, Note_off_c, 8, 76, 0
9, 28128, Note_on_c, 8, 79, 87
9, 28128, Note_on_c, 8, 74, 79
9, 28176, Note_on_c, 8, 76, 63
9, 28176, Note_on_c, 8, 72, 58
9, 28179, Note_off_c, 8, 74, 0
9, 28179, Note_off_c, 8, 79, 0
9, 28190, Note_off_c, 8, 76, 0
9, 28190, Note_off_c, 8, 72, 0
9, 28224, Note_on_c, 8, 79, 87
9, 28224, Note_on_c, 8, 74, 79
9, 28267, Note_off_c, 8, 74, 0
9, 28267, Note_off_c, 8, 79, 0
9, 28272, Note_on_c, 8, 76, 63
9, 28272, Note_on_c, 8, 72, 58
9, 28286, Note_off_c, 8, 72, 0
9, 28286, Note_off_c, 8, 76, 0
9, 28320, Note_on_c, 8, 74, 87
9, 28334, Note_off_c, 8, 74, 0
9, 28368, Note_on_c, 8, 76, 87
9, 28368, Note_on_c, 8, 72, 79
9, 28382, Note_off_c, 8, 72, 0
9, 28382, Note_off_c, 8, 76, 0
9, 28416, Note_on_c, 8, 79, 87
9, 28416, Note_on_c, 8, 74, 79
9, 28464, Note_on_c, 8, 76, 63
9, 28464, Note_on_c, 8, 72, 58
9, 28469, Note_off_c, 8, 74, 0
9, 28469, Note_off_c, 8, 79, 0
9, 28478, Note_off_c, 8, 76, 0
9, 28478, Note_off_c, 8, 72, 0
9, 28512, Note_on_c, 8, 79, 87
9, 28512, Note_on_c, 8, 74, 79
9, 28560, Note_on_c, 8, 76, 63
9, 28560, Note_on_c, 8, 72, 58
9, 28563, Note_off_c, 8, 74, 0
9, 28563, Note_off_c, 8, 79, 0
9, 28574, Note_off_c, 8, 76, 0
9, 28574, Note_off_c, 8, 72, 0
9, 28608, Note_on_c, 8, 74, 87
9, 28622, Note_off_c, 8, 74, 0
9, 28656, Note_on_c, 8, 76, 87
9, 28656, Note_on_c, 8, 72, 79
9, 28670, Note_off_c, 8, 72, 0
9, 28670, Note_off_c, 8, 76, 0
9, 28704, Note_on_c, 8, 79, 87
9, 28704, Note_on_c, 8, 74, 79
9, 28752, Note_on_c, 8, 76, 63
9, 28752, Note_on_c, 8, 72, 58
9, 28755, Note_off_c, 8, 74, 0
9, 28755, Note_off_c, 8, 79, 0
9, 28766, Note_off_c, 8, 76, 0
9, 28766, Note_off_c, 8, 72, 0
9, 28800, Note_on_c, 8, 79, 87
9, 28800, Note_on_c, 8, 74, 79
9, 28843, Note_off_c, 8, 74, 0
9, 28843, Note_off_c, 8, 79, 0
9, 28848, Note_on_c, 8, 76, 63
9, 28848, Note_on_c, 8, 72, 58
9, 28862, Note_off_c, 8, 72, 0
9, 28862, Note_off_c, 8, 76, 0
9, 28896, Note_on_c, 8, 74, 87
9, 28910, Note_off_c, 8, 74, 0
9, 28944, Note_on_c, 8, 76, 87
9, 28944, Note_on_c, 8, 72, 79
9, 28958, Note_off_c, 8, 72, 0
9, 28958, Note_off_c, 8, 76, 0
9, 28992, Note_on_c, 8, 79, 87
9, 28992, Note_on_c, 8, 74, 79
9, 29040, Note_on_c, 8, 76, 63
9, 29040, Note_on_c, 8, 72, 58
9, 29045, Note_off_c, 8, 74, 0
9, 29045, Note_off_c, 8, 79, 0
9, 29054, Note_off_c, 8, 76, 0
9, 29054, Note_off_c, 8, 72, 0
9, 29088, Note_on_c, 8, 79, 87
9, 29088, Note_on_c, 8, 74, 79
9, 29136, Note_on_c, 8, 76, 63
9, 29136, Note_on_c, 8, 72, 58
9, 29139, Note_off_c, 8, 74, 0
9, 29139, Note_off_c, 8, 79, 0
9, 29150, Note_off_c, 8, 76, 0
9, 29150, Note_off_c, 8, 72, 0
9, 29184, Note_on_c, 8, 74, 87
9, 29198, Note_off_c, 8, 74, 0
9, 29232, Note_on_c, 8, 76, 87
9, 29232, Note_on_c, 8, 72, 79
9, 29246, Note_off_c, 8, 72, 0
9, 29246, Note_off_c, 8, 76, 0
9, 29280, Note_on_c, 8, 79, 87
9, 29280, Note_on_c, 8, 74, 79
9, 29328, Note_on_c, 8, 76, 63
9, 29328, Note_on_c, 8, 72, 58
9, 29331, Note_off_c, 8, 74, 0
9, 29331, Note_off_c, 8, 79, 0
9, 29342, Note_off_c, 8, 76, 0
9, 29342, Note_off_c, 8, 72, 0
9, 29376, Note_on_c, 8, 79, 87
9, 29376, Note_on_c, 8, 74, 79
9, 29419, Note_off_c, 8, 74, 0
9, 29419, Note_off_c, 8, 79, 0
9, 29424, Note_on_c, 8, 76, 63
9, 29424, Note_on_c, 8, 72, 58
9, 29438, Note_off_c, 8, 72, 0
9, 29438, Note_off_c, 8, 76, 0
9, 29472, Note_on_c, 8, 74, 87
9, 29486, Note_off_c, 8, 74, 0
9, 29520, Note_on_c, 8, 76, 87
9, 29520, Note_on_c, 8, 72, 79
9, 29534, Note_off_c, 8, 72, 0
9, 29534, Note_off_c, 8, 76, 0
9, 29568, Note_on_c, 8, 79, 87
9, 29568, Note_on_c, 8, 74, 79
9, 29616, Note_on_c, 8, 76, 63
9, 29616, Note_on_c, 8, 72, 58
9, 29621, Note_off_c, 8, 74, 0
9, 29621, Note_off_c, 8, 79, 0
9, 29630, Note_off_c, 8, 76, 0
9, 29630, Note_off_c, 8, 72, 0
9, 29664, Note_on_c, 8, 79, 87
9, 29664, Note_on_c, 8, 74, 79
9, 29712, Note_on_c, 8, 76, 63
9, 29712, Note_on_c, 8, 72, 58
9, 29715, Note_off_c, 8, 74, 0
9, 29715, Note_off_c, 8, 79, 0
9, 29726, Note_off_c, 8, 76, 0
9, 29726, Note_off_c, 8, 72, 0
9, 29760, Note_on_c, 8, 74, 87
9, 29774, Note_off_c, 8, 74, 0
9, 29808, Note_on_c, 8, 76, 87
9, 29808, Note_on_c, 8, 72, 79
9, 29822, Note_off_c, 8, 72, 0
9, 29822, Note_off_c, 8, 76, 0
9, 29856, Note_on_c, 8, 79, 87
9, 29856, Note_on_c, 8, 74, 79
9, 29904, Note_on_c, 8, 76, 63
9, 29904, Note_on_c, 8, 72, 58
9, 29907, Note_off_c, 8, 74, 0
9, 29907, Note_off_c, 8, 79, 0
9, 29918, Note_off_c, 8, 76, 0
9, 29918, Note_off_c, 8, 72, 0
9, 29952, Note_on_c, 8, 79, 87
9, 29952, Note_on_c, 8, 74, 79
9, 29995, Note_off_c, 8, 74, 0
9, 29995, Note_off_c, 8, 79, 0
9, 30000, Note_on_c, 8, 76, 63
9, 30000, Note_on_c, 8, 72, 58
9, 30014, Note_off_c, 8, 72, 0
9, 30014, Note_off_c, 8, 76, 0
9, 30048, Note_on_c, 8, 74, 87
9, 30062, Note_off_c, 8, 74, 0
9, 30096, Note_on_c, 8, 76, 87
9, 30096, Note_on_c, 8, 72, 79
9, 30110, Note_off_c, 8, 72, 0
9, 30110, Note_off_c, 8, 76, 0
9, 30144, Note_on_c, 8, 79, 87
9, 30144, Note_on_c, 8, 74, 79
9, 30192, Note_on_c, 8, 76, 63
9, 30192, Note_on_c, 8, 72, 58
9, 30197, Note_off_c, 8, 74, 0
9, 30197, Note_off_c, 8, 79, 0
9, 30206, Note_off_c, 8, 76, 0
9, 30206, Note_off_c, 8, 72, 0
9, 30240, Note_on_c, 8, 79, 87
9, 30240, Note_on_c, 8, 74, 79
9, 30288, Note_on_c, 8, 76, 63
9, 30288, Note_on_c, 8, 72, 58
9, 30291, Note_off_c, 8, 74, 0
9, 30291, Note_off_c, 8, 79, 0
9, 30302, Note_off_c, 8, 76, 0
9, 30302, Note_off_c, 8, 72, 0
9, 30336, Note_on_c, 8, 74, 87
9, 30350, Note_off_c, 8, 74, 0
9, 30384, Note_on_c, 8, 76, 87
9, 30384, Note_on_c, 8, 72, 79
9, 30398, Note_off_c, 8, 72, 0
9, 30398, Note_off_c, 8, 76, 0
9, 30432, Note_on_c, 8, 79, 87
9, 30432, Note_on_c, 8, 74, 79
9, 30480, Note_on_c, 8, 76, 63
9, 30480, Note_on_c, 8, 72, 58
9, 30483, Note_off_c, 8, 74, 0
9, 30483, Note_off_c, 8, 79, 0
9, 30494, Note_off_c, 8, 76, 0
9, 30494, Note_off_c, 8, 72, 0
9, 30528, Note_on_c, 8, 79, 87
9, 30528, Note_on_c, 8, 74, 79
9, 30571, Note_off_c, 8, 74, 0
9, 30571, Note_off_c, 8, 79, 0
9, 30576, Note_on_c, 8, 76, 63
9, 30576, Note_on_c, 8, 72, 58
9, 30590, Note_off_c, 8, 72, 0
9, 30590, Note_off_c, 8, 76, 0
9, 30624, Note_on_c, 8, 74, 87
9, 30638, Note_off_c, 8, 74, 0
9, 30672, Note_on_c, 8, 76, 87
9, 30672, Note_on_c, 8, 72, 79
9, 30686, Note_off_c, 8, 72, 0
9, 30686, Note_off_c, 8, 76, 0
9, 30720, Note_on_c, 8, 79, 87
9, 30720, Note_on_c, 8, 74, 79
9, 30768, Note_on_c, 8, 76, 63
9, 30768, Note_on_c, 8, 72, 58
9, 30773, Note_off_c, 8, 74, 0
9, 30773, Note_off_c, 8, 79, 0
9, 30782, Note_off_c, 8, 76, 0
9, 30782, Note_off_c, 8, 72, 0
9, 30816, Note_on_c, 8, 79, 87
9, 30816, Note_on_c, 8, 74, 79
9, 30864, Note_on_c, 8, 76, 63
9, 30864, Note_on_c, 8, 72, 58
9, 30867, Note_off_c, 8, 74, 0
9, 30867, Note_off_c, 8, 79, 0
9, 30878, Note_off_c, 8, 76, 0
9, 30878, Note_off_c, 8, 72, 0
9, 30912, Note_on_c, 8, 74, 87
9, 30926, Note_off_c, 8, 74, 0
9, 30960, Note_on_c, 8, 76, 87
9, 30960, Note_on_c, 8, 72, 79
9, 30974, Note_off_c, 8, 72, 0
9, 30974, Note_off_c, 8, 76, 0
9, 31008, Note_on_c, 8, 79, 87
9, 31008, Note_on_c, 8, 74, 79
9, 31056, Note_on_c, 8, 76, 63
9, 31056, Note_on_c, 8, 72, 58
9, 31059, Note_off_c, 8, 74, 0
9, 31059, Note_off_c, 8, 79, 0
9, 31070, Note_off_c, 8, 76, 0
9, 31070, Note_off_c, 8, 72, 0
9, 31104, Note_on_c, 8, 79, 87
9, 31104, Note_on_c, 8, 74, 79
9, 31147, Note_off_c, 8, 74, 0
9, 31147, Note_off_c, 8, 79, 0
9, 31152, Note_on_c, 8, 76, 63
9, 31152, Note_on_c, 8, 72, 58
9, 31166, Note_off_c, 8, 72, 0
9, 31166, Note_off_c, 8, 76, 0
9, 31200, Note_on_c, 8, 74, 87
9, 31214, Note_off_c, 8, 74, 0
9, 31248, Note_on_c, 8, 76, 87
9, 31248, Note_on_c, 8, 72, 79
9, 31262, Note_off_c, 8, 72, 0
9, 31262, Note_off_c, 8, 76, 0
9, 31296, Note_on_c, 8, 79, 87
9, 31296, Note_on_c, 8, 74, 79
9, 31344, Note_on_c, 8, 76, 63
9, 31344, Note_on_c, 8, 72, 58
9, 31349, Note_off_c, 8, 74, 0
9, 31349, Note_off_c, 8, 79, 0
9, 31358, Note_off_c, 8, 76, 0
9, 31358, Note_off_c, 8, 72, 0
9, 31392, Note_on_c, 8, 79, 87
9, 31392, Note_on_c, 8, 74, 79
9, 31440, Note_on_c, 8, 76, 63
9, 31440, Note_on_c, 8, 72, 58
9, 31443, Note_off_c, 8, 74, 0
9, 31443, Note_off_c, 8, 79, 0
9, 31454, Note_off_c, 8, 76, 0
9, 31454, Note_off_c, 8, 72, 0
9, 31488, Note_on_c, 8, 74, 87
9, 31502, Note_off_c, 8, 74, 0
9, 31536, Note_on_c, 8, 76, 87
9, 31536, Note_on_c, 8, 72, 79
9, 31550, Note_off_c, 8, 72, 0
9, 31550, Note_off_c, 8, 76, 0
9, 31584, Note_on_c, 8, 79, 87
9, 31584, Note_on_c, 8, 74, 79
9, 31632, Note_on_c, 8, 76, 63
9, 31632, Note_on_c, 8, 72, 58
9, 31635, Note_off_c, 8, 74, 0
9, 31635, Note_off_c, 8, 79, 0
9, 31646, Note_off_c, 8, 76, 0
9, 31646, Note_off_c, 8, 72, 0
9, 31680, Note_on_c, 8, 79, 87
9, 31680, Note_on_c, 8, 74, 79
9, 31723, Note_off_c, 8, 74, 0
9, 31723, Note_off_c, 8, 79, 0
9, 31728, Note_on_c, 8, 76, 63
9, 31728, Note_on_c, 8, 72, 58
9, 31742, Note_off_c, 8, 72, 0
9, 31742, Note_off_c, 8, 76, 0
9, 31776, Note_on_c, 8, 74, 87
9, 31790, Note_off_c, 8, 74, 0
9, 31824, Note_on_c, 8, 76, 87
9, 31824, Note_on_c, 8, 72, 79
9, 31838, Note_off_c, 8, 72, 0
9, 31838, Note_off_c, 8, 76, 0
9, 31872, Note_on_c, 8, 79, 87
9, 31872, Note_on_c, 8, 74, 79
9, 31920, Note_on_c, 8, 76, 63
9, 31920, Note_on_c, 8, 72, 58
9, 31925, Note_off_c, 8, 74, 0
9, 31925, Note_off_c, 8, 79, 0
9, 31934, Note_off_c, 8, 76, 0
9, 31934, Note_off_c, 8, 72, 0
9, 31968, Note_on_c, 8, 79, 87
9, 31968, Note_on_c, 8, 74, 79
9, 32016, Note_on_c, 8, 76, 63
9, 32016, Note_on_c, 8, 72, 58
9, 32019, Note_off_c, 8, 74, 0
9, 32019, Note_off_c, 8, 79, 0
9, 32030, Note_off_c, 8, 76, 0
9, 32030, Note_off_c, 8, 72, 0
9, 32064, Note_on_c, 8, 74, 87
9, 32078, Note_off_c, 8, 74, 0
9, 32112, Note_on_c, 8, 76, 87
9, 32112, Note_on_c, 8, 72, 79
9, 32126, Note_off_c, 8, 72, 0
9, 32126, Note_off_c, 8, 76, 0
9, 32160, Note_on_c, 8, 79, 87
9, 32160, Note_on_c, 8, 74, 79
9, 32208, Note_on_c, 8, 76, 63
9, 32208, Note_on_c, 8, 72, 58
9, 32211, Note_off_c, 8, 74, 0
9, 32211, Note_off_c, 8, 79, 0
9, 32222, Note_off_c, 8, 76, 0
9, 32222, Note_off_c, 8, 72, 0
9, 32256, Note_on_c, 8, 79, 87
9, 32256, Note_on_c, 8, 74, 79
9, 32299, Note_off_c, 8, 74, 0
9, 32299, Note_off_c, 8, 79, 0
9, 32304, Note_on_c, 8, 76, 63
9, 32304, Note_on_c, 8, 72, 58
9, 32318, Note_off_c, 8, 72, 0
9, 32318, Note_off_c, 8, 76, 0
9, 32352, Note_on_c, 8, 74, 87
9, 32366, Note_off_c, 8, 74, 0
9, 32400, Note_on_c, 8, 76, 93
9, 32400, Note_on_c, 8, 72, 85
9, 32414, Note_off_c, 8, 72, 0
9, 32414, Note_off_c, 8, 76, 0
9, 32448, Note_on_c, 8, 79, 93
9, 32448, Note_on_c, 8, 74, 85
9, 32491, Note_off_c, 8, 74, 0
9, 32491, Note_off_c, 8, 79, 0
9, 32496, Note_on_c, 8, 76, 68
9, 32496, Note_on_c, 8, 72, 62
9, 32510, Note_off_c, 8, 72, 0
9, 32510, Note_off_c, 8, 76, 0
9, 32544, Note_on_c, 8, 74, 93
9, 32558, Note_off_c, 8, 74, 0
9, 32592, Note_on_c, 8, 72, 85
9, 32607, Note_off_c, 8, 72, 0
9, 32638, Note_on_c, 8, 64, 84
9, 32638, Note_on_c, 8, 55, 74
9, 32640, Note_on_c, 8, 60, 84
9, 32759, Note_off_c, 8, 55, 0
9, 32762, Note_off_c, 8, 64, 0
9, 32762, Note_off_c, 8, 60, 0
9, 32781, Note_on_c, 8, 62, 84
9, 32783, Note_on_c, 8, 59, 84
9, 32784, Note_on_c, 8, 55, 64
9, 32826, Note_off_c, 8, 62, 0
9, 32830, Note_off_c, 8, 59, 0
9, 32832, Note_on_c, 8, 60, 84
9, 32832, Note_on_c, 8, 64, 84
9, 32877, Note_off_c, 8, 60, 0
9, 32881, Note_off_c, 8, 64, 0
9, 32886, Note_off_c, 8, 55, 0
9, 32926, Note_on_c, 8, 55, 74
9, 32928, Note_on_c, 8, 65, 84
9, 32928, Note_on_c, 8, 62, 84
9, 32976, Note_off_c, 8, 65, 0
9, 32978, Note_off_c, 8, 55, 0
9, 32980, Note_off_c, 8, 62, 0
9, 33022, Note_on_c, 8, 60, 86
9, 33023, Note_on_c, 8, 67, 84
9, 33025, Note_on_c, 8, 64, 90
9, 33071, Note_on_c, 8, 62, 84
9, 33081, Note_off_c, 8, 60, 0
9, 33118, Note_on_c, 8, 60, 120
9, 33124, Note_off_c, 8, 62, 0
9, 33149, Note_off_c, 8, 60, 0
9, 33160, Note_off_c, 8, 64, 0
9, 33168, Note_off_c, 8, 67, 0
9, 33169, Note_on_c, 8, 59, 98
9, 33206, Note_off_c, 8, 59, 0
9, 33214, Note_on_c, 8, 60, 84
9, 33216, Note_on_c, 8, 53, 74
9, 33217, Note_on_c, 8, 57, 84
9, 33330, Note_off_c, 8, 53, 0
9, 33331, Note_off_c, 8, 60, 0
9, 33332, Note_off_c, 8, 57, 0
9, 33357, Note_on_c, 8, 55, 84
9, 33359, Note_on_c, 8, 59, 84
9, 33360, Note_on_c, 8, 53, 64
9, 33398, Note_off_c, 8, 59, 0
9, 33402, Note_off_c, 8, 55, 0
9, 33406, Note_on_c, 8, 57, 84
9, 33408, Note_on_c, 8, 60, 84
9, 33458, Note_off_c, 8, 57, 0
9, 33460, Note_off_c, 8, 53, 0
9, 33461, Note_off_c, 8, 60, 0
9, 33502, Note_on_c, 8, 59, 84
9, 33503, Note_on_c, 8, 53, 74
9, 33504, Note_on_c, 8, 62, 84
9, 33555, Note_off_c, 8, 53, 0
9, 33558, Note_off_c, 8, 62, 0
9, 33560, Note_off_c, 8, 59, 0
9, 33598, Note_on_c, 8, 64, 84
9, 33598, Note_on_c, 8, 55, 77
9, 33601, Note_on_c, 8, 60, 90
9, 33649, Note_on_c, 8, 59, 111
9, 33656, Note_off_c, 8, 55, 0
9, 33689, Note_off_c, 8, 59, 0
9, 33698, Note_on_c, 8, 57, 101
9, 33737, Note_off_c, 8, 57, 0
9, 33740, Note_off_c, 8, 64, 0
9, 33740, Note_off_c, 8, 60, 0
9, 33744, Note_on_c, 8, 55, 94
9, 33777, Note_off_c, 8, 55, 0
9, 33790, Note_on_c, 8, 60, 84
9, 33792, Note_on_c, 8, 53, 74
9, 33794, Note_on_c, 8, 57, 84
9, 33911, Note_off_c, 8, 53, 0
9, 33936, Note_on_c, 8, 53, 64
9, 34039, Note_off_c, 8, 53, 0
9, 34080, Note_on_c, 8, 53, 74
9, 34132, Note_off_c, 8, 53, 0
9, 34174, Note_on_c, 8, 54, 74
9, 34177, Note_on_c, 8, 62, 84
9, 34178, Note_off_c, 8, 60, 0
9, 34290, Note_off_c, 8, 54, 0
9, 34318, Note_on_c, 8, 54, 64
9, 34413, Note_off_c, 8, 54, 0
9, 34464, Note_on_c, 8, 54, 74
9, 34516, Note_off_c, 8, 54, 0
9, 34558, Note_off_c, 8, 57, 0
9, 34559, Note_on_c, 8, 60, 84
9, 34561, Note_on_c, 8, 55, 74
9, 34941, Note_on_c, 8, 59, 84
9, 34944, Note_off_c, 8, 60, 0
9, 34945, Note_on_c, 8, 56, 61
9, 34954, Note_off_c, 8, 55, 0
9, 35328, Note_off_c, 8, 59, 0
9, 35330, Note_off_c, 8, 62, 0
9, 35348, Note_off_c, 8, 56, 0
9, 36864, Note_on_c, 8, 64, 69
9, 36864, Note_on_c, 8, 60, 69
9, 36864, Note_on_c, 8, 67, 69
9, 37248, Note_on_c, 8, 62, 73
9, 37248, Note_on_c, 8, 66, 73
9, 37248, Note_on_c, 8, 69, 73
9, 37260, Note_off_c, 8, 67, 0
9, 37260, Note_off_c, 8, 60, 0
9, 37260, Note_off_c, 8, 64, 0
9, 37632, Note_off_c, 8, 69, 0
9, 37632, Note_on_c, 8, 69, 77
9, 37632, Note_on_c, 8, 60, 77
9, 37632, Note_on_c, 8, 65, 77
9, 37644, Note_off_c, 8, 62, 0
9, 37644, Note_off_c, 8, 66, 0
9, 38016, Note_on_c, 8, 59, 80
9, 38016, Note_on_c, 8, 67, 80
9, 38028, Note_off_c, 8, 69, 0
9, 38028, Note_off_c, 8, 60, 0
9, 38068, Control_c, 8, 11, 86
9, 38086, Control_c, 8, 11, 86
9, 38103, Control_c, 8, 11, 87
9, 38121, Control_c, 8, 11, 88
9, 38138, Control_c, 8, 11, 89
9, 38156, Control_c, 8, 11, 90
9, 38173, Control_c, 8, 11, 91
9, 38191, Control_c, 8, 11, 92
9, 38208, Control_c, 8, 11, 93
9, 38226, Control_c, 8, 11, 94
9, 38243, Control_c, 8, 11, 95
9, 38261, Control_c, 8, 11, 96
9, 38278, Control_c, 8, 11, 97
9, 38296, Control_c, 8, 11, 98
9, 38313, Control_c, 8, 11, 99
9, 38331, Control_c, 8, 11, 100
9, 38348, Control_c, 8, 11, 101
9, 38366, Control_c, 8, 11, 102
9, 38383, Control_c, 8, 11, 103
9, 38401, Control_c, 8, 11, 104
9, 38418, Control_c, 8, 11, 105
9, 38436, Control_c, 8, 11, 106
9, 38453, Control_c, 8, 11, 107
9, 38471, Control_c, 8, 11, 108
9, 38488, Control_c, 8, 11, 110
9, 38638, Note_off_c, 8, 65, 0
9, 38642, Note_off_c, 8, 59, 0
9, 38642, Note_off_c, 8, 67, 0
9, 38707, Control_c, 8, 10, 34
9, 38796, Note_on_c, 8, 64, 60
9, 38974, Note_on_c, 8, 67, 77
9, 38985, Note_off_c, 8, 64, 0
9, 39160, Note_off_c, 8, 67, 0
9, 39174, Note_on_c, 8, 60, 60
9, 39361, Note_on_c, 8, 69, 75
9, 39363, Note_off_c, 8, 60, 0
9, 39551, Note_off_c, 8, 69, 0
9, 39562, Note_on_c, 8, 67, 68
9, 39748, Note_off_c, 8, 67, 0
9, 39760, Note_on_c, 8, 67, 64
9, 39940, Note_on_c, 8, 72, 80
9, 39944, Note_off_c, 8, 67, 0
9, 40135, Note_on_c, 8, 67, 75
9, 40137, Note_off_c, 8, 72, 0
9, 40323, Note_on_c, 8, 60, 67
9, 40330, Note_off_c, 8, 67, 0
9, 40512, Note_on_c, 8, 67, 68
9, 40516, Note_off_c, 8, 60, 0
9, 40714, Note_on_c, 8, 72, 80
9, 40721, Note_off_c, 8, 67, 0
9, 40901, Note_on_c, 8, 69, 66
9, 40906, Note_off_c, 8, 72, 0
9, 41088, Note_off_c, 8, 69, 0
9, 41092, Note_on_c, 8, 67, 65
9, 41262, Note_off_c, 8, 67, 0
9, 41282, Note_on_c, 8, 67, 70
9, 41474, Note_on_c, 8, 69, 58
9, 41482, Note_off_c, 8, 67, 0
9, 41666, Note_on_c, 8, 65, 60
9, 41679, Note_off_c, 8, 69, 0
9, 41865, Note_off_c, 8, 65, 0
9, 41866, Note_on_c, 8, 60, 64
9, 42065, Note_off_c, 8, 60, 0
9, 42075, Note_on_c, 8, 67, 46
9, 42244, Note_on_c, 8, 60, 65
9, 42245, Note_off_c, 8, 67, 0
9, 42432, Note_on_c, 8, 69, 64
9, 42435, Note_off_c, 8, 60, 0
9, 42623, Note_on_c, 8, 67, 75
9, 42629, Note_off_c, 8, 69, 0
9, 43010, Note_on_c, 8, 60, 60
9, 43018, Note_off_c, 8, 67, 0
9, 43195, Note_on_c, 8, 69, 62
9, 43199, Note_off_c, 8, 60, 0
9, 43402, Note_on_c, 8, 62, 65
9, 43411, Note_off_c, 8, 69, 0
9, 43588, Note_on_c, 8, 69, 70
9, 43594, Note_off_c, 8, 62, 0
9, 43774, Note_on_c, 8, 60, 64
9, 43783, Note_off_c, 8, 69, 0
9, 43966, Note_on_c, 8, 62, 68
9, 43968, Note_off_c, 8, 60, 0
9, 44160, Note_on_c, 8, 67, 69
9, 44163, Note_off_c, 8, 62, 0
9, 44914, Note_on_c, 8, 68, 68
9, 44934, Note_off_c, 8, 67, 0
9, 45599, Note_on_c, 8, 66, 66
9, 45606, Note_off_c, 8, 68, 0
9, 45648, Note_on_c, 8, 65, 69
9, 45660, Note_off_c, 8, 66, 0
9, 45699, Note_on_c, 8, 68, 70
9, 45708, Note_off_c, 8, 65, 0
9, 46365, Note_on_c, 8, 66, 73
9, 46372, Note_off_c, 8, 68, 0
9, 46467, Note_on_c, 8, 65, 65
9, 46476, Note_off_c, 8, 66, 0
9, 46658, Note_on_c, 8, 68, 67
9, 46664, Note_off_c, 8, 65, 0
9, 47612, Note_off_c, 8, 68, 0
9, 47614, Note_on_c, 8, 63, 70
9, 47650, Note_off_c, 8, 63, 0
9, 47664, Note_on_c, 8, 65, 70
9, 47700, Note_off_c, 8, 65, 0
9, 47715, Note_on_c, 8, 68, 70
9, 47751, Note_off_c, 8, 68, 0
9, 47765, Note_on_c, 8, 65, 70
9, 47801, Note_off_c, 8, 65, 0
9, 47810, Note_on_c, 8, 68, 70
9, 47846, Note_off_c, 8, 68, 0
9, 47858, Note_on_c, 8, 65, 70
9, 47894, Note_off_c, 8, 65, 0
9, 47904, Note_on_c, 8, 63, 70
9, 47940, Note_off_c, 8, 63, 0
9, 47952, Note_on_c, 8, 65, 70
9, 47988, Note_off_c, 8, 65, 0
9, 48000, Note_on_c, 8, 68, 64
9, 48672, Note_on_c, 8, 73, 70
9, 48682, Note_off_c, 8, 68, 0
9, 48772, Note_on_c, 8, 68, 58
9, 48779, Note_off_c, 8, 73, 0
9, 49441, Note_on_c, 8, 66, 74
9, 49447, Note_off_c, 8, 68, 0
9, 49486, Note_on_c, 8, 65, 62
9, 49494, Note_off_c, 8, 66, 0
9, 49538, Note_on_c, 8, 66, 71
9, 49546, Note_off_c, 8, 65, 0
9, 49918, Note_on_c, 8, 61, 62
9, 49926, Note_off_c, 8, 66, 0
9, 50111, Note_on_c, 8, 63, 68
9, 50119, Note_off_c, 8, 61, 0
9, 50298, Note_off_c, 8, 63, 0
9, 50302, Note_on_c, 8, 65, 84
9, 50302, Note_on_c, 8, 56, 74
9, 50304, Note_on_c, 8, 61, 84
9, 50423, Note_off_c, 8, 56, 0
9, 50426, Note_off_c, 8, 65, 0
9, 50426, Note_off_c, 8, 61, 0
9, 50445, Note_on_c, 8, 63, 84
9, 50447, Note_on_c, 8, 60, 84
9, 50448, Note_on_c, 8, 56, 64
9, 50490, Note_off_c, 8, 63, 0
9, 50494, Note_off_c, 8, 60, 0
9, 50496, Note_on_c, 8, 61, 84
9, 50496, Note_on_c, 8, 65, 84
9, 50541, Note_off_c, 8, 61, 0
9, 50545, Note_off_c, 8, 65, 0
9, 50550, Note_off_c, 8, 56, 0
9, 50590, Note_on_c, 8, 56, 74
9, 50592, Note_on_c, 8, 66, 84
9, 50592, Note_on_c, 8, 63, 84
9, 50640, Note_off_c, 8, 66, 0
9, 50642, Note_off_c, 8, 56, 0
9, 50644, Note_off_c, 8, 63, 0
9, 50686, Note_on_c, 8, 61, 86
9, 50687, Note_on_c, 8, 68, 84
9, 50689, Note_on_c, 8, 65, 90
9, 50735, Note_on_c, 8, 63, 84
9, 50745, Note_off_c, 8, 61, 0
9, 50782, Note_on_c, 8, 61, 120
9, 50788, Note_off_c, 8, 63, 0
9, 50813, Note_off_c, 8, 61, 0
9, 50824, Note_off_c, 8, 65, 0
9, 50832, Note_off_c, 8, 68, 0
9, 50833, Note_on_c, 8, 60, 98
9, 50870, Note_off_c, 8, 60, 0
9, 50878, Note_on_c, 8, 61, 84
9, 50880, Note_on_c, 8, 54, 74
9, 50881, Note_on_c, 8, 58, 84
9, 50994, Note_off_c, 8, 54, 0
9, 50995, Note_off_c, 8, 61, 0
9, 50996, Note_off_c, 8, 58, 0
9, 51021, Note_on_c, 8, 56, 84
9, 51023, Note_on_c, 8, 60, 84
9, 51024, Note_on_c, 8, 54, 64
9, 51062, Note_off_c, 8, 60, 0
9, 51066, Note_off_c, 8, 56, 0
9, 51070, Note_on_c, 8, 58, 84
9, 51072, Note_on_c, 8, 61, 84
9, 51122, Note_off_c, 8, 58, 0
9, 51124, Note_off_c, 8, 54, 0
9, 51125, Note_off_c, 8, 61, 0
9, 51166, Note_on_c, 8, 60, 84
9, 51167, Note_on_c, 8, 54, 74
9, 51168, Note_on_c, 8, 63, 84
9, 51219, Note_off_c, 8, 54, 0
9, 51222, Note_off_c, 8, 63, 0
9, 51224, Note_off_c, 8, 60, 0
9, 51262, Note_on_c, 8, 65, 84
9, 51262, Note_on_c, 8, 56, 77
9, 51265, Note_on_c, 8, 61, 90
9, 51313, Note_on_c, 8, 60, 111
9, 51320, Note_off_c, 8, 56, 0
9, 51353, Note_off_c, 8, 60, 0
9, 51362, Note_on_c, 8, 58, 101
9, 51401, Note_off_c, 8, 58, 0
9, 51404, Note_off_c, 8, 65, 0
9, 51404, Note_off_c, 8, 61, 0
9, 51408, Note_on_c, 8, 56, 94
9, 51441, Note_off_c, 8, 56, 0
9, 51454, Note_on_c, 8, 61, 84
9, 51456, Note_on_c, 8, 54, 74
9, 51458, Note_on_c, 8, 58, 84
9, 51575, Note_off_c, 8, 54, 0
9, 51600, Note_on_c, 8, 54, 64
9, 51703, Note_off_c, 8, 54, 0
9, 51744, Note_on_c, 8, 54, 74
9, 51796, Note_off_c, 8, 54, 0
9, 51838, Note_on_c, 8, 55, 74
9, 51841, Note_on_c, 8, 63, 84
9, 51842, Note_off_c, 8, 61, 0
9, 51954, Note_off_c, 8, 55, 0
9, 51982, Note_on_c, 8, 55, 64
9, 52077, Note_off_c, 8, 55, 0
9, 52085, Note_off_c, 8, 63, 0
9, 52126, Note_on_c, 8, 63, 67
9, 52128, Note_on_c, 8, 55, 74
9, 52161, Note_on_c, 8, 65, 46
9, 52166, Note_off_c, 8, 63, 0
9, 52176, Note_on_c, 8, 66, 54
9, 52180, Note_off_c, 8, 55, 0
9, 52192, Note_on_c, 8, 68, 62
9, 52201, Note_off_c, 8, 65, 0
9, 52205, Note_on_c, 8, 70, 69
9, 52214, Note_off_c, 8, 66, 0
9, 52216, Note_on_c, 8, 72, 74
9, 52222, Note_off_c, 8, 58, 0
9, 52224, Note_on_c, 8, 56, 73
9, 52224, Note_on_c, 8, 66, 64
9, 52226, Note_off_c, 8, 68, 0
9, 52231, Note_on_c, 8, 73, 81
9, 52247, Note_off_c, 8, 70, 0
9, 52252, Note_off_c, 8, 72, 0
9, 52575, Note_off_c, 8, 56, 0
9, 52575, Note_off_c, 8, 66, 0
9, 52604, Note_on_c, 8, 72, 73
9, 52608, Note_on_c, 8, 56, 73
9, 52608, Note_on_c, 8, 66, 64
9, 52613, Note_off_c, 8, 73, 0
9, 52871, Note_off_c, 8, 56, 0
9, 52871, Note_off_c, 8, 66, 0
9, 52892, Note_on_c, 8, 68, 66
9, 52896, Note_on_c, 8, 56, 73
9, 52902, Note_off_c, 8, 72, 0
9, 52979, Note_off_c, 8, 68, 0
9, 52990, Note_off_c, 8, 56, 0
9, 52990, Note_on_c, 8, 65, 84
9, 52990, Note_on_c, 8, 56, 74
9, 52992, Note_on_c, 8, 61, 84
9, 53111, Note_off_c, 8, 56, 0
9, 53114, Note_off_c, 8, 65, 0
9, 53114, Note_off_c, 8, 61, 0
9, 53133, Note_on_c, 8, 63, 84
9, 53135, Note_on_c, 8, 60, 84
9, 53136, Note_on_c, 8, 56, 64
9, 53178, Note_off_c, 8, 63, 0
9, 53182, Note_off_c, 8, 60, 0
9, 53184, Note_on_c, 8, 61, 84
9, 53184, Note_on_c, 8, 65, 84
9, 53229, Note_off_c, 8, 61, 0
9, 53233, Note_off_c, 8, 65, 0
9, 53238, Note_off_c, 8, 56, 0
9, 53278, Note_on_c, 8, 56, 74
9, 53280, Note_on_c, 8, 66, 84
9, 53280, Note_on_c, 8, 63, 84
9, 53328, Note_off_c, 8, 66, 0
9, 53330, Note_off_c, 8, 56, 0
9, 53332, Note_off_c, 8, 63, 0
9, 53374, Note_on_c, 8, 61, 86
9, 53375, Note_on_c, 8, 68, 84
9, 53377, Note_on_c, 8, 65, 90
9, 53423, Note_on_c, 8, 63, 84
9, 53433, Note_off_c, 8, 61, 0
9, 53470, Note_on_c, 8, 61, 120
9, 53476, Note_off_c, 8, 63, 0
9, 53501, Note_off_c, 8, 61, 0
9, 53512, Note_off_c, 8, 65, 0
9, 53520, Note_off_c, 8, 68, 0
9, 53521, Note_on_c, 8, 60, 98
9, 53558, Note_off_c, 8, 60, 0
9, 53566, Note_on_c, 8, 61, 84
9, 53568, Note_on_c, 8, 54, 74
9, 53569, Note_on_c, 8, 58, 84
9, 53682, Note_off_c, 8, 54, 0
9, 53683, Note_off_c, 8, 61, 0
9, 53684, Note_off_c, 8, 58, 0
9, 53709, Note_on_c, 8, 56, 84
9, 53711, Note_on_c, 8, 60, 84
9, 53712, Note_on_c, 8, 54, 64
9, 53750, Note_off_c, 8, 60, 0
9, 53754, Note_off_c, 8, 56, 0
9, 53758, Note_on_c, 8, 58, 84
9, 53760, Note_on_c, 8, 61, 84
9, 53810, Note_off_c, 8, 58, 0
9, 53812, Note_off_c, 8, 54, 0
9, 53813, Note_off_c, 8, 61, 0
9, 53854, Note_on_c, 8, 60, 84
9, 53855, Note_on_c, 8, 54, 74
9, 53856, Note_on_c, 8, 63, 84
9, 53907, Note_off_c, 8, 54, 0
9, 53910, Note_off_c, 8, 63, 0
9, 53912, Note_off_c, 8, 60, 0
9, 53950, Note_on_c, 8, 65, 80
9, 53950, Note_on_c, 8, 56, 73
9, 53953, Note_on_c, 8, 61, 86
9, 54086, Control_c, 8, 11, 110
9, 54093, Control_c, 8, 11, 109
9, 54121, Control_c, 8, 11, 108
9, 54136, Control_c, 8, 11, 107
9, 54150, Control_c, 8, 11, 106
9, 54157, Control_c, 8, 11, 105
9, 54164, Control_c, 8, 11, 104
9, 54171, Control_c, 8, 11, 103
9, 54178, Control_c, 8, 11, 102
9, 54185, Control_c, 8, 11, 100
9, 54192, Control_c, 8, 11, 99
9, 54199, Control_c, 8, 11, 98
9, 54206, Control_c, 8, 11, 96
9, 54213, Control_c, 8, 11, 94
9, 54220, Control_c, 8, 11, 93
9, 54227, Control_c, 8, 11, 91
9, 54234, Control_c, 8, 11, 89
9, 54242, Control_c, 8, 11, 87
9, 54248, Control_c, 8, 11, 85
9, 54256, Control_c, 8, 11, 83
9, 54263, Control_c, 8, 11, 80
9, 54270, Control_c, 8, 11, 78
9, 54277, Control_c, 8, 11, 76
9, 54284, Control_c, 8, 11, 73
9, 54291, Control_c, 8, 11, 70
9, 54298, Control_c, 8, 11, 68
9, 54305, Control_c, 8, 11, 65
9, 54312, Control_c, 8, 11, 62
9, 54319, Control_c, 8, 11, 59
9, 54326, Control_c, 8, 11, 56
9, 54333, Control_c, 8, 11, 52
9, 54340, Control_c, 8, 11, 49
9, 54344, Control_c, 8, 11, 48
9, 54347, Note_off_c, 8, 56, 0
9, 54351, Note_off_c, 8, 61, 0
9, 54352, Note_off_c, 8, 65, 0
9, 54514, Control_c, 8, 11, 110
9, 56638, Note_on_c, 8, 65, 84
9, 56638, Note_on_c, 8, 56, 74
9, 56640, Note_on_c, 8, 61, 84
9, 56759, Note_off_c, 8, 56, 0
9, 56762, Note_off_c, 8, 65, 0
9, 56762, Note_off_c, 8, 61, 0
9, 56781, Note_on_c, 8, 63, 84
9, 56783, Note_on_c, 8, 60, 84
9, 56784, Note_on_c, 8, 56, 64
9, 56826, Note_off_c, 8, 63, 0
9, 56830, Note_off_c, 8, 60, 0
9, 56832, Note_on_c, 8, 61, 84
9, 56832, Note_on_c, 8, 65, 84
9, 56877, Note_off_c, 8, 61, 0
9, 56881, Note_off_c, 8, 65, 0
9, 56886, Note_off_c, 8, 56, 0
9, 56926, Note_on_c, 8, 56, 74
9, 56928, Note_on_c, 8, 66, 84
9, 56928, Note_on_c, 8, 63, 84
9, 56976, Note_off_c, 8, 66, 0
9, 56978, Note_off_c, 8, 56, 0
9, 56980, Note_off_c, 8, 63, 0
9, 57022, Note_on_c, 8, 61, 86
9, 57023, Note_on_c, 8, 68, 84
9, 57025, Note_on_c, 8, 65, 90
9, 57071, Note_on_c, 8, 63, 84
9, 57081, Note_off_c, 8, 61, 0
9, 57118, Note_on_c, 8, 61, 120
9, 57124, Note_off_c, 8, 63, 0
9, 57149, Note_off_c, 8, 61, 0
9, 57160, Note_off_c, 8, 65, 0
9, 57168, Note_off_c, 8, 68, 0
9, 57169, Note_on_c, 8, 60, 98
9, 57206, Note_off_c, 8, 60, 0
9, 57214, Note_on_c, 8, 61, 84
9, 57216, Note_on_c, 8, 54, 74
9, 57217, Note_on_c, 8, 58, 84
9, 57330, Note_off_c, 8, 54, 0
9, 57331, Note_off_c, 8, 61, 0
9, 57332, Note_off_c, 8, 58, 0
9, 57357, Note_on_c, 8, 56, 84
9, 57359, Note_on_c, 8, 60, 84
9, 57360, Note_on_c, 8, 54, 64
9, 57398, Note_off_c, 8, 60, 0
9, 57402, Note_off_c, 8, 56, 0
9, 57406, Note_on_c, 8, 58, 84
9, 57408, Note_on_c, 8, 61, 84
9, 57460, Note_off_c, 8, 54, 0
9, 57469, Note_off_c, 8, 58, 0
9, 57472, Note_off_c, 8, 61, 0
9, 57596, Note_on_c, 8, 60, 84
9, 57598, Note_on_c, 8, 54, 74
9, 57598, Note_on_c, 8, 63, 84
9, 57660, Note_off_c, 8, 60, 0
9, 57662, Note_off_c, 8, 54, 0
9, 57662, Note_off_c, 8, 63, 0
9, 57788, Note_on_c, 8, 65, 80
9, 57789, Note_on_c, 8, 56, 73
9, 57792, Note_on_c, 8, 61, 86
9, 57799, Control_c, 8, 11, 109
9, 57803, Control_c, 8, 11, 108
9, 57812, Control_c, 8, 11, 107
9, 57816, Control_c, 8, 11, 105
9, 57820, Control_c, 8, 11, 103
9, 57824, Control_c, 8, 11, 101
9, 57828, Control_c, 8, 11, 98
9, 57833, Control_c, 8, 11, 96
9, 57837, Control_c, 8, 11, 93
9, 57841, Control_c, 8, 11, 89
9, 57846, Control_c, 8, 11, 85
9, 57850, Control_c, 8, 11, 80
9, 57854, Control_c, 8, 11, 75
9, 57855, Control_c, 8, 11, 74
9, 57867, Control_c, 8, 11, 78
9, 57876, Control_c, 8, 11, 78
9, 57885, Control_c, 8, 11, 79
9, 57894, Control_c, 8, 11, 80
9, 57902, Control_c, 8, 11, 81
9, 57911, Control_c, 8, 11, 82
9, 57920, Control_c, 8, 11, 83
9, 57928, Control_c, 8, 11, 84
9, 57937, Control_c, 8, 11, 85
9, 57946, Control_c, 8, 11, 86
9, 57955, Control_c, 8, 11, 87
9, 57964, Control_c, 8, 11, 88
9, 57972, Control_c, 8, 11, 89
9, 57981, Control_c, 8, 11, 90
9, 57990, Control_c, 8, 11, 91
9, 57999, Control_c, 8, 11, 92
9, 58008, Control_c, 8, 11, 93
9, 58016, Control_c, 8, 11, 94
9, 58025, Control_c, 8, 11, 95
9, 58034, Control_c, 8, 11, 96
9, 58043, Control_c, 8, 11, 97
9, 58052, Control_c, 8, 11, 98
9, 58060, Control_c, 8, 11, 99
9, 58069, Control_c, 8, 11, 100
9, 58078, Control_c, 8, 11, 101
9, 58087, Control_c, 8, 11, 102
9, 58096, Control_c, 8, 11, 103
9, 58104, Control_c, 8, 11, 104
9, 58113, Control_c, 8, 11, 105
9, 58122, Control_c, 8, 11, 106
9, 58131, Control_c, 8, 11, 107
9, 58140, Control_c, 8, 11, 108
9, 58148, Control_c, 8, 11, 109
9, 58157, Control_c, 8, 11, 110
9, 58166, Control_c, 8, 11, 111
9, 58175, Control_c, 8, 11, 112
9, 58184, Control_c, 8, 11, 113
9, 58192, Control_c, 8, 11, 114
9, 58201, Control_c, 8, 11, 115
9, 58210, Control_c, 8, 11, 116
9, 58219, Control_c, 8, 11, 117
9, 58228, Control_c, 8, 11, 118
9, 58236, Control_c, 8, 11, 119
9, 58245, Control_c, 8, 11, 120
9, 58254, Control_c, 8, 11, 121
9, 58263, Control_c, 8, 11, 122
9, 58272, Control_c, 8, 11, 123
9, 58280, Control_c, 8, 11, 124
9, 58289, Control_c, 8, 11, 125
9, 58298, Control_c, 8, 11, 127
9, 58368, Note_off_c, 8, 56, 0
9, 58372, Note_off_c, 8, 61, 0
9, 58373, Note_off_c, 8, 65, 0
9, 58952, Control_c, 8, 121, 0
9, 58960, Control_c, 8, 91, 0
9, 58968, Control_c, 8, 93, 0
9, 58968, End_track
10, 0, Start_track
10, 0, Title_t, "Drums"
10, 0, Channel_prefix, 9
10, 0, Control_c, 9, 7, 127
10, 0, Control_c, 9, 10, 64
10, 0, Program_c, 9, 53
10, 8, Note_on_c, 9, 42, 66
10, 10, Note_off_c, 9, 42, 0
10, 40, Control_c, 9, 121, 0
10, 48, Control_c, 9, 11, 127
10, 64, Control_c, 9, 91, 127
10, 72, Control_c, 9, 93, 0
10, 192, Note_on_c, 9, 42, 66
10, 194, Note_off_c, 9, 42, 0
10, 384, Note_on_c, 9, 42, 66
10, 386, Note_off_c, 9, 42, 0
10, 576, Note_on_c, 9, 42, 66
10, 578, Note_off_c, 9, 42, 0
10, 9984, Control_c, 9, 10, 64
10, 9984, Control_c, 9, 7, 127
10, 9984, Program_c, 9, 25
10, 9988, Note_on_c, 9, 36, 59
10, 9988, Note_on_c, 9, 35, 68
10, 10024, Note_off_c, 9, 35, 0
10, 10024, Note_off_c, 9, 36, 0
10, 10176, Note_on_c, 9, 85, 40
10, 10180, Note_on_c, 9, 85, 89
10, 10188, Note_off_c, 9, 85, 0
10, 10192, Note_off_c, 9, 85, 0
10, 10276, Note_on_c, 9, 36, 59
10, 10276, Note_on_c, 9, 35, 68
10, 10312, Note_off_c, 9, 35, 0
10, 10312, Note_off_c, 9, 36, 0
10, 10468, Note_on_c, 9, 64, 62
10, 10492, Note_off_c, 9, 64, 0
10, 10560, Note_on_c, 9, 85, 40
10, 10564, Note_on_c, 9, 85, 89
10, 10572, Note_off_c, 9, 85, 0
10, 10576, Note_off_c, 9, 85, 0
10, 10660, Note_on_c, 9, 61, 61
10, 10678, Note_off_c, 9, 61, 0
10, 10756, Note_on_c, 9, 36, 59
10, 10756, Note_on_c, 9, 35, 68
10, 10792, Note_off_c, 9, 35, 0
10, 10792, Note_off_c, 9, 36, 0
10, 10944, Note_on_c, 9, 85, 40
10, 10948, Note_on_c, 9, 85, 89
10, 10956, Note_off_c, 9, 85, 0
10, 10960, Note_off_c, 9, 85, 0
10, 11044, Note_on_c, 9, 36, 59
10, 11044, Note_on_c, 9, 35, 68
10, 11080, Note_off_c, 9, 35, 0
10, 11080, Note_off_c, 9, 36, 0
10, 11236, Note_on_c, 9, 41, 55
10, 11268, Note_off_c, 9, 41, 0
10, 11328, Note_on_c, 9, 85, 40
10, 11332, Note_on_c, 9, 48, 56
10, 11332, Note_on_c, 9, 85, 89
10, 11340, Note_off_c, 9, 85, 0
10, 11344, Note_off_c, 9, 85, 0
10, 11365, Note_off_c, 9, 48, 0
10, 11428, Note_on_c, 9, 45, 54
10, 11460, Note_off_c, 9, 45, 0
10, 11524, Note_on_c, 9, 36, 59
10, 11524, Note_on_c, 9, 35, 68
10, 11560, Note_off_c, 9, 35, 0
10, 11560, Note_off_c, 9, 36, 0
10, 11712, Note_on_c, 9, 85, 40
10, 11716, Note_on_c, 9, 85, 89
10, 11724, Note_off_c, 9, 85, 0
10, 11728, Note_off_c, 9, 85, 0
10, 11812, Note_on_c, 9, 36, 59
10, 11812, Note_on_c, 9, 35, 68
10, 11848, Note_off_c, 9, 35, 0
10, 11848, Note_off_c, 9, 36, 0
10, 12004, Note_on_c, 9, 64, 61
10, 12029, Note_off_c, 9, 64, 0
10, 12096, Note_on_c, 9, 85, 40
10, 12100, Note_on_c, 9, 85, 89
10, 12108, Note_off_c, 9, 85, 0
10, 12112, Note_off_c, 9, 85, 0
10, 12196, Note_on_c, 9, 61, 66
10, 12218, Note_off_c, 9, 61, 0
10, 12292, Note_on_c, 9, 36, 59
10, 12292, Note_on_c, 9, 35, 68
10, 12328, Note_off_c, 9, 35, 0
10, 12328, Note_off_c, 9, 36, 0
10, 12480, Note_on_c, 9, 85, 40
10, 12484, Note_on_c, 9, 85, 89
10, 12492, Note_off_c, 9, 85, 0
10, 12496, Note_off_c, 9, 85, 0
10, 12676, Note_on_c, 9, 36, 59
10, 12676, Note_on_c, 9, 35, 68
10, 12712, Note_off_c, 9, 35, 0
10, 12712, Note_off_c, 9, 36, 0
10, 12772, Note_on_c, 9, 43, 60
10, 12804, Note_off_c, 9, 43, 0
10, 12864, Note_on_c, 9, 85, 46
10, 12868, Note_on_c, 9, 48, 74
10, 12868, Note_on_c, 9, 85, 102
10, 12876, Note_off_c, 9, 85, 0
10, 12880, Note_off_c, 9, 85, 0
10, 12896, Note_off_c, 9, 48, 0
10, 13060, Note_on_c, 9, 36, 76
10, 13060, Note_on_c, 9, 35, 87
10, 13108, Note_on_c, 9, 70, 57
10, 13112, Note_off_c, 9, 35, 0
10, 13112, Note_off_c, 9, 36, 0
10, 13147, Note_off_c, 9, 70, 0
10, 13156, Note_on_c, 9, 42, 79
10, 13190, Note_off_c, 9, 42, 0
10, 13204, Note_on_c, 9, 70, 57
10, 13228, Note_off_c, 9, 70, 0
10, 13248, Note_on_c, 9, 85, 46
10, 13248, Note_on_c, 9, 37, 38
10, 13252, Note_on_c, 9, 85, 102
10, 13252, Note_on_c, 9, 37, 85
10, 13260, Note_off_c, 9, 37, 0
10, 13260, Note_off_c, 9, 85, 0
10, 13264, Note_off_c, 9, 85, 0
10, 13264, Note_off_c, 9, 37, 0
10, 13348, Note_on_c, 9, 36, 63
10, 13348, Note_on_c, 9, 35, 72
10, 13374, Note_off_c, 9, 35, 0
10, 13374, Note_off_c, 9, 36, 0
10, 13444, Note_on_c, 9, 36, 76
10, 13444, Note_on_c, 9, 35, 87
10, 13477, Note_off_c, 9, 35, 0
10, 13477, Note_off_c, 9, 36, 0
10, 13492, Note_on_c, 9, 70, 57
10, 13525, Note_off_c, 9, 70, 0
10, 13540, Note_on_c, 9, 42, 79
10, 13577, Note_off_c, 9, 42, 0
10, 13588, Note_on_c, 9, 70, 57
10, 13614, Note_off_c, 9, 70, 0
10, 13632, Note_on_c, 9, 85, 46
10, 13632, Note_on_c, 9, 37, 38
10, 13636, Note_on_c, 9, 85, 102
10, 13636, Note_on_c, 9, 37, 85
10, 13644, Note_off_c, 9, 37, 0
10, 13644, Note_off_c, 9, 85, 0
10, 13648, Note_off_c, 9, 85, 0
10, 13648, Note_off_c, 9, 37, 0
10, 13732, Note_on_c, 9, 42, 60
10, 13761, Note_off_c, 9, 42, 0
10, 13828, Note_on_c, 9, 36, 76
10, 13828, Note_on_c, 9, 35, 87
10, 13876, Note_on_c, 9, 70, 57
10, 13880, Note_off_c, 9, 35, 0
10, 13880, Note_off_c, 9, 36, 0
10, 13906, Note_off_c, 9, 70, 0
10, 13924, Note_on_c, 9, 42, 79
10, 13956, Note_off_c, 9, 42, 0
10, 13972, Note_on_c, 9, 70, 57
10, 13994, Note_off_c, 9, 70, 0
10, 14016, Note_on_c, 9, 85, 46
10, 14016, Note_on_c, 9, 37, 38
10, 14020, Note_on_c, 9, 85, 102
10, 14020, Note_on_c, 9, 37, 85
10, 14028, Note_off_c, 9, 37, 0
10, 14028, Note_off_c, 9, 85, 0
10, 14032, Note_off_c, 9, 85, 0
10, 14032, Note_off_c, 9, 37, 0
10, 14116, Note_on_c, 9, 36, 63
10, 14116, Note_on_c, 9, 35, 72
10, 14142, Note_off_c, 9, 35, 0
10, 14142, Note_off_c, 9, 36, 0
10, 14212, Note_on_c, 9, 36, 76
10, 14212, Note_on_c, 9, 35, 87
10, 14245, Note_off_c, 9, 35, 0
10, 14245, Note_off_c, 9, 36, 0
10, 14260, Note_on_c, 9, 70, 57
10, 14293, Note_off_c, 9, 70, 0
10, 14308, Note_on_c, 9, 42, 79
10, 14342, Note_off_c, 9, 42, 0
10, 14356, Note_on_c, 9, 70, 57
10, 14380, Note_off_c, 9, 70, 0
10, 14400, Note_on_c, 9, 85, 46
10, 14400, Note_on_c, 9, 37, 38
10, 14404, Note_on_c, 9, 85, 102
10, 14404, Note_on_c, 9, 37, 85
10, 14412, Note_off_c, 9, 37, 0
10, 14412, Note_off_c, 9, 85, 0
10, 14416, Note_off_c, 9, 85, 0
10, 14416, Note_off_c, 9, 37, 0
10, 14500, Note_on_c, 9, 42, 60
10, 14529, Note_off_c, 9, 42, 0
10, 14596, Note_on_c, 9, 36, 76
10, 14596, Note_on_c, 9, 35, 87
10, 14644, Note_on_c, 9, 70, 57
10, 14648, Note_off_c, 9, 35, 0
10, 14648, Note_off_c, 9, 36, 0
10, 14672, Note_off_c, 9, 70, 0
10, 14692, Note_on_c, 9, 42, 79
10, 14725, Note_off_c, 9, 42, 0
10, 14740, Note_on_c, 9, 70, 57
10, 14764, Note_off_c, 9, 70, 0
10, 14784, Note_on_c, 9, 85, 46
10, 14784, Note_on_c, 9, 37, 38
10, 14788, Note_on_c, 9, 85, 102
10, 14788, Note_on_c, 9, 37, 85
10, 14796, Note_off_c, 9, 37, 0
10, 14796, Note_off_c, 9, 85, 0
10, 14800, Note_off_c, 9, 85, 0
10, 14800, Note_off_c, 9, 37, 0
10, 14884, Note_on_c, 9, 36, 63
10, 14884, Note_on_c, 9, 35, 72
10, 14910, Note_off_c, 9, 35, 0
10, 14910, Note_off_c, 9, 36, 0
10, 14980, Note_on_c, 9, 36, 76
10, 14980, Note_on_c, 9, 35, 87
10, 15013, Note_off_c, 9, 35, 0
10, 15013, Note_off_c, 9, 36, 0
10, 15028, Note_on_c, 9, 70, 57
10, 15058, Note_off_c, 9, 70, 0
10, 15076, Note_on_c, 9, 42, 79
10, 15107, Note_off_c, 9, 42, 0
10, 15124, Note_on_c, 9, 70, 57
10, 15146, Note_off_c, 9, 70, 0
10, 15168, Note_on_c, 9, 85, 46
10, 15168, Note_on_c, 9, 37, 38
10, 15172, Note_on_c, 9, 85, 102
10, 15172, Note_on_c, 9, 37, 85
10, 15180, Note_off_c, 9, 37, 0
10, 15180, Note_off_c, 9, 85, 0
10, 15184, Note_off_c, 9, 85, 0
10, 15184, Note_off_c, 9, 37, 0
10, 15268, Note_on_c, 9, 42, 60
10, 15295, Note_off_c, 9, 42, 0
10, 15364, Note_on_c, 9, 36, 76
10, 15364, Note_on_c, 9, 35, 87
10, 15412, Note_on_c, 9, 70, 57
10, 15416, Note_off_c, 9, 35, 0
10, 15416, Note_off_c, 9, 36, 0
10, 15434, Note_off_c, 9, 70, 0
10, 15460, Note_on_c, 9, 42, 79
10, 15487, Note_off_c, 9, 42, 0
10, 15508, Note_on_c, 9, 70, 57
10, 15528, Note_off_c, 9, 70, 0
10, 15552, Note_on_c, 9, 85, 46
10, 15552, Note_on_c, 9, 37, 38
10, 15556, Note_on_c, 9, 85, 102
10, 15556, Note_on_c, 9, 37, 85
10, 15564, Note_off_c, 9, 37, 0
10, 15564, Note_off_c, 9, 85, 0
10, 15568, Note_off_c, 9, 85, 0
10, 15568, Note_off_c, 9, 37, 0
10, 15652, Note_on_c, 9, 36, 63
10, 15652, Note_on_c, 9, 35, 72
10, 15678, Note_off_c, 9, 35, 0
10, 15678, Note_off_c, 9, 36, 0
10, 15748, Note_on_c, 9, 36, 76
10, 15748, Note_on_c, 9, 35, 87
10, 15781, Note_off_c, 9, 35, 0
10, 15781, Note_off_c, 9, 36, 0
10, 15796, Note_on_c, 9, 70, 57
10, 15820, Note_off_c, 9, 70, 0
10, 15844, Note_on_c, 9, 42, 79
10, 15875, Note_off_c, 9, 42, 0
10, 15892, Note_on_c, 9, 70, 57
10, 15913, Note_off_c, 9, 70, 0
10, 15936, Note_on_c, 9, 85, 46
10, 15936, Note_on_c, 9, 37, 38
10, 15940, Note_on_c, 9, 85, 102
10, 15940, Note_on_c, 9, 37, 85
10, 15948, Note_off_c, 9, 37, 0
10, 15948, Note_off_c, 9, 85, 0
10, 15952, Note_off_c, 9, 85, 0
10, 15952, Note_off_c, 9, 37, 0
10, 16036, Note_on_c, 9, 42, 60
10, 16062, Note_off_c, 9, 42, 0
10, 16132, Note_on_c, 9, 36, 76
10, 16132, Note_on_c, 9, 35, 87
10, 16180, Note_on_c, 9, 70, 57
10, 16184, Note_off_c, 9, 35, 0
10, 16184, Note_off_c, 9, 36, 0
10, 16219, Note_off_c, 9, 70, 0
10, 16228, Note_on_c, 9, 42, 79
10, 16262, Note_off_c, 9, 42, 0
10, 16276, Note_on_c, 9, 70, 57
10, 16300, Note_off_c, 9, 70, 0
10, 16320, Note_on_c, 9, 85, 46
10, 16320, Note_on_c, 9, 37, 38
10, 16324, Note_on_c, 9, 85, 102
10, 16324, Note_on_c, 9, 37, 85
10, 16332, Note_off_c, 9, 37, 0
10, 16332, Note_off_c, 9, 85, 0
10, 16336, Note_off_c, 9, 85, 0
10, 16336, Note_off_c, 9, 37, 0
10, 16420, Note_on_c, 9, 36, 63
10, 16420, Note_on_c, 9, 35, 72
10, 16446, Note_off_c, 9, 35, 0
10, 16446, Note_off_c, 9, 36, 0
10, 16516, Note_on_c, 9, 36, 76
10, 16516, Note_on_c, 9, 35, 87
10, 16549, Note_off_c, 9, 35, 0
10, 16549, Note_off_c, 9, 36, 0
10, 16564, Note_on_c, 9, 70, 57
10, 16597, Note_off_c, 9, 70, 0
10, 16612, Note_on_c, 9, 42, 79
10, 16649, Note_off_c, 9, 42, 0
10, 16660, Note_on_c, 9, 70, 57
10, 16686, Note_off_c, 9, 70, 0
10, 16704, Note_on_c, 9, 85, 46
10, 16704, Note_on_c, 9, 37, 38
10, 16708, Note_on_c, 9, 85, 102
10, 16708, Note_on_c, 9, 37, 85
10, 16716, Note_off_c, 9, 37, 0
10, 16716, Note_off_c, 9, 85, 0
10, 16720, Note_off_c, 9, 85, 0
10, 16720, Note_off_c, 9, 37, 0
10, 16804, Note_on_c, 9, 42, 60
10, 16833, Note_off_c, 9, 42, 0
10, 16900, Note_on_c, 9, 36, 76
10, 16900, Note_on_c, 9, 35, 87
10, 16948, Note_on_c, 9, 70, 57
10, 16952, Note_off_c, 9, 35, 0
10, 16952, Note_off_c, 9, 36, 0
10, 16978, Note_off_c, 9, 70, 0
10, 16996, Note_on_c, 9, 42, 79
10, 17028, Note_off_c, 9, 42, 0
10, 17044, Note_on_c, 9, 70, 57
10, 17066, Note_off_c, 9, 70, 0
10, 17088, Note_on_c, 9, 85, 46
10, 17088, Note_on_c, 9, 37, 38
10, 17092, Note_on_c, 9, 85, 102
10, 17092, Note_on_c, 9, 37, 85
10, 17100, Note_off_c, 9, 37, 0
10, 17100, Note_off_c, 9, 85, 0
10, 17104, Note_off_c, 9, 85, 0
10, 17104, Note_off_c, 9, 37, 0
10, 17188, Note_on_c, 9, 36, 63
10, 17188, Note_on_c, 9, 35, 72
10, 17214, Note_off_c, 9, 35, 0
10, 17214, Note_off_c, 9, 36, 0
10, 17284, Note_on_c, 9, 36, 76
10, 17284, Note_on_c, 9, 35, 87
10, 17317, Note_off_c, 9, 35, 0
10, 17317, Note_off_c, 9, 36, 0
10, 17332, Note_on_c, 9, 70, 57
10, 17365, Note_off_c, 9, 70, 0
10, 17380, Note_on_c, 9, 42, 79
10, 17414, Note_off_c, 9, 42, 0
10, 17428, Note_on_c, 9, 70, 57
10, 17452, Note_off_c, 9, 70, 0
10, 17472, Note_on_c, 9, 85, 46
10, 17472, Note_on_c, 9, 37, 38
10, 17476, Note_on_c, 9, 85, 102
10, 17476, Note_on_c, 9, 37, 85
10, 17484, Note_off_c, 9, 37, 0
10, 17484, Note_off_c, 9, 85, 0
10, 17488, Note_off_c, 9, 85, 0
10, 17488, Note_off_c, 9, 37, 0
10, 17572, Note_on_c, 9, 42, 60
10, 17601, Note_off_c, 9, 42, 0
10, 17668, Note_on_c, 9, 36, 76
10, 17668, Note_on_c, 9, 35, 87
10, 17716, Note_on_c, 9, 70, 57
10, 17720, Note_off_c, 9, 35, 0
10, 17720, Note_off_c, 9, 36, 0
10, 17744, Note_off_c, 9, 70, 0
10, 17764, Note_on_c, 9, 42, 79
10, 17797, Note_off_c, 9, 42, 0
10, 17812, Note_on_c, 9, 70, 57
10, 17836, Note_off_c, 9, 70, 0
10, 17856, Note_on_c, 9, 85, 46
10, 17856, Note_on_c, 9, 37, 38
10, 17860, Note_on_c, 9, 85, 102
10, 17860, Note_on_c, 9, 37, 85
10, 17868, Note_off_c, 9, 37, 0
10, 17868, Note_off_c, 9, 85, 0
10, 17872, Note_off_c, 9, 85, 0
10, 17872, Note_off_c, 9, 37, 0
10, 17956, Note_on_c, 9, 36, 63
10, 17956, Note_on_c, 9, 35, 72
10, 17982, Note_off_c, 9, 35, 0
10, 17982, Note_off_c, 9, 36, 0
10, 18052, Note_on_c, 9, 36, 76
10, 18052, Note_on_c, 9, 35, 87
10, 18085, Note_off_c, 9, 35, 0
10, 18085, Note_off_c, 9, 36, 0
10, 18100, Note_on_c, 9, 70, 57
10, 18130, Note_off_c, 9, 70, 0
10, 18148, Note_on_c, 9, 42, 79
10, 18179, Note_off_c, 9, 42, 0
10, 18196, Note_on_c, 9, 70, 57
10, 18218, Note_off_c, 9, 70, 0
10, 18240, Note_on_c, 9, 85, 46
10, 18240, Note_on_c, 9, 37, 38
10, 18244, Note_on_c, 9, 85, 102
10, 18244, Note_on_c, 9, 37, 85
10, 18252, Note_off_c, 9, 37, 0
10, 18252, Note_off_c, 9, 85, 0
10, 18256, Note_off_c, 9, 85, 0
10, 18256, Note_off_c, 9, 37, 0
10, 18340, Note_on_c, 9, 42, 60
10, 18367, Note_off_c, 9, 42, 0
10, 18388, Pitch_bend_c, 9, 1
10, 18436, Note_on_c, 9, 40, 61
10, 18436, Note_on_c, 9, 43, 61
10, 18436, Note_on_c, 9, 82, 54
10, 18436, Note_on_c, 9, 36, 58
10, 18436, Note_on_c, 9, 35, 67
10, 18442, Note_off_c, 9, 82, 0
10, 18442, Note_off_c, 9, 43, 0
10, 18442, Note_off_c, 9, 40, 0
10, 18444, Note_on_c, 9, 40, 52
10, 18444, Note_on_c, 9, 43, 52
10, 18444, Note_on_c, 9, 82, 54
10, 18451, Note_off_c, 9, 82, 0
10, 18451, Note_off_c, 9, 43, 0
10, 18451, Note_off_c, 9, 40, 0
10, 18453, Note_on_c, 9, 40, 39
10, 18453, Note_on_c, 9, 43, 39
10, 18453, Note_on_c, 9, 82, 42
10, 18461, Note_off_c, 9, 82, 0
10, 18461, Note_off_c, 9, 43, 0
10, 18461, Note_off_c, 9, 40, 0
10, 18463, Note_on_c, 9, 40, 28
10, 18463, Note_on_c, 9, 43, 28
10, 18463, Note_on_c, 9, 82, 28
10, 18471, Note_off_c, 9, 82, 0
10, 18471, Note_off_c, 9, 43, 0
10, 18471, Note_off_c, 9, 40, 0
10, 18473, Note_on_c, 9, 40, 31
10, 18473, Note_on_c, 9, 43, 31
10, 18473, Note_on_c, 9, 82, 31
10, 18475, Note_off_c, 9, 36, 0
10, 18475, Note_off_c, 9, 35, 0
10, 18481, Note_off_c, 9, 40, 0
10, 18481, Note_off_c, 9, 43, 0
10, 18481, Note_off_c, 9, 82, 0
10, 18483, Note_on_c, 9, 40, 31
10, 18483, Note_on_c, 9, 43, 31
10, 18483, Note_on_c, 9, 82, 31
10, 18491, Note_off_c, 9, 82, 0
10, 18491, Note_off_c, 9, 43, 0
10, 18491, Note_off_c, 9, 40, 0
10, 18493, Note_on_c, 9, 40, 25
10, 18493, Note_on_c, 9, 43, 25
10, 18493, Note_on_c, 9, 82, 25
10, 18501, Note_off_c, 9, 82, 0
10, 18501, Note_off_c, 9, 43, 0
10, 18501, Note_off_c, 9, 40, 0
10, 18503, Note_on_c, 9, 40, 25
10, 18503, Note_on_c, 9, 43, 25
10, 18503, Note_on_c, 9, 82, 25
10, 18511, Note_off_c, 9, 82, 0
10, 18511, Note_off_c, 9, 43, 0
10, 18511, Note_off_c, 9, 40, 0
10, 18513, Note_on_c, 9, 40, 31
10, 18513, Note_on_c, 9, 43, 31
10, 18513, Note_on_c, 9, 82, 31
10, 18521, Note_off_c, 9, 82, 0
10, 18521, Note_off_c, 9, 43, 0
10, 18521, Note_off_c, 9, 40, 0
10, 18523, Note_on_c, 9, 40, 31
10, 18523, Note_on_c, 9, 43, 31
10, 18523, Note_on_c, 9, 82, 31
10, 18530, Note_off_c, 9, 82, 0
10, 18530, Note_off_c, 9, 43, 0
10, 18530, Note_off_c, 9, 40, 0
10, 18532, Note_on_c, 9, 40, 42
10, 18532, Note_on_c, 9, 43, 42
10, 18532, Note_on_c, 9, 82, 43
10, 18544, Note_off_c, 9, 82, 0
10, 18544, Note_off_c, 9, 43, 0
10, 18544, Note_off_c, 9, 40, 0
10, 18580, Note_on_c, 9, 40, 42
10, 18580, Note_on_c, 9, 43, 42
10, 18580, Note_on_c, 9, 82, 43
10, 18592, Note_off_c, 9, 82, 0
10, 18592, Note_off_c, 9, 43, 0
10, 18592, Note_off_c, 9, 40, 0
10, 18628, Note_on_c, 9, 40, 64
10, 18628, Note_on_c, 9, 43, 64
10, 18628, Note_on_c, 9, 82, 54
10, 18640, Note_off_c, 9, 82, 0
10, 18640, Note_off_c, 9, 43, 0
10, 18640, Note_off_c, 9, 40, 0
10, 18676, Note_on_c, 9, 40, 42
10, 18676, Note_on_c, 9, 43, 42
10, 18676, Note_on_c, 9, 82, 43
10, 18688, Note_off_c, 9, 82, 0
10, 18688, Note_off_c, 9, 43, 0
10, 18688, Note_off_c, 9, 40, 0
10, 18724, Note_on_c, 9, 40, 42
10, 18724, Note_on_c, 9, 43, 42
10, 18724, Note_on_c, 9, 82, 43
10, 18724, Note_on_c, 9, 36, 52
10, 18724, Note_on_c, 9, 35, 60
10, 18736, Note_off_c, 9, 82, 0
10, 18736, Note_off_c, 9, 43, 0
10, 18736, Note_off_c, 9, 40, 0
10, 18752, Note_off_c, 9, 36, 0
10, 18752, Note_off_c, 9, 35, 0
10, 18772, Note_on_c, 9, 40, 42
10, 18772, Note_on_c, 9, 43, 42
10, 18772, Note_on_c, 9, 82, 43
10, 18784, Note_off_c, 9, 82, 0
10, 18784, Note_off_c, 9, 43, 0
10, 18784, Note_off_c, 9, 40, 0
10, 18820, Note_on_c, 9, 40, 64
10, 18820, Note_on_c, 9, 43, 64
10, 18820, Note_on_c, 9, 82, 54
10, 18820, Note_on_c, 9, 36, 58
10, 18820, Note_on_c, 9, 35, 66
10, 18832, Note_off_c, 9, 82, 0
10, 18832, Note_off_c, 9, 43, 0
10, 18832, Note_off_c, 9, 40, 0
10, 18859, Note_off_c, 9, 36, 0
10, 18859, Note_off_c, 9, 35, 0
10, 18916, Note_on_c, 9, 40, 53
10, 18916, Note_on_c, 9, 43, 53
10, 18916, Note_on_c, 9, 82, 54
10, 18916, Note_on_c, 9, 43, 63
10, 18922, Note_off_c, 9, 82, 0
10, 18922, Note_off_c, 9, 43, 0
10, 18922, Note_off_c, 9, 40, 0
10, 18924, Note_on_c, 9, 40, 51
10, 18924, Note_on_c, 9, 43, 51
10, 18924, Note_on_c, 9, 82, 53
10, 18931, Note_off_c, 9, 82, 0
10, 18931, Note_off_c, 9, 43, 0
10, 18931, Note_off_c, 9, 40, 0
10, 18933, Note_on_c, 9, 40, 41
10, 18933, Note_on_c, 9, 43, 41
10, 18933, Note_on_c, 9, 82, 43
10, 18941, Note_off_c, 9, 82, 0
10, 18941, Note_off_c, 9, 43, 0
10, 18941, Note_off_c, 9, 40, 0
10, 18943, Note_on_c, 9, 40, 30
10, 18943, Note_on_c, 9, 43, 30
10, 18943, Note_on_c, 9, 82, 31
10, 18951, Note_off_c, 9, 82, 0
10, 18951, Note_off_c, 9, 43, 0
10, 18951, Note_off_c, 9, 40, 0
10, 18953, Note_on_c, 9, 40, 31
10, 18953, Note_on_c, 9, 43, 31
10, 18953, Note_on_c, 9, 82, 31
10, 18958, Note_off_c, 9, 43, 0
10, 18961, Note_off_c, 9, 40, 0
10, 18961, Note_off_c, 9, 43, 0
10, 18961, Note_off_c, 9, 82, 0
10, 18963, Note_on_c, 9, 40, 31
10, 18963, Note_on_c, 9, 43, 31
10, 18963, Note_on_c, 9, 82, 31
10, 18964, Note_on_c, 9, 45, 63
10, 18971, Note_off_c, 9, 82, 0
10, 18971, Note_off_c, 9, 43, 0
10, 18971, Note_off_c, 9, 40, 0
10, 18973, Note_on_c, 9, 40, 25
10, 18973, Note_on_c, 9, 43, 25
10, 18973, Note_on_c, 9, 82, 25
10, 18981, Note_off_c, 9, 82, 0
10, 18981, Note_off_c, 9, 43, 0
10, 18981, Note_off_c, 9, 40, 0
10, 18983, Note_on_c, 9, 40, 28
10, 18983, Note_on_c, 9, 43, 28
10, 18983, Note_on_c, 9, 82, 28
10, 18991, Note_off_c, 9, 82, 0
10, 18991, Note_off_c, 9, 43, 0
10, 18991, Note_off_c, 9, 40, 0
10, 18992, Note_off_c, 9, 45, 0
10, 18993, Note_on_c, 9, 40, 35
10, 18993, Note_on_c, 9, 43, 35
10, 18993, Note_on_c, 9, 82, 36
10, 19001, Note_off_c, 9, 82, 0
10, 19001, Note_off_c, 9, 43, 0
10, 19001, Note_off_c, 9, 40, 0
10, 19003, Note_on_c, 9, 40, 43
10, 19003, Note_on_c, 9, 43, 43
10, 19003, Note_on_c, 9, 82, 44
10, 19010, Note_off_c, 9, 82, 0
10, 19010, Note_off_c, 9, 43, 0
10, 19010, Note_off_c, 9, 40, 0
10, 19012, Note_on_c, 9, 40, 50
10, 19012, Note_on_c, 9, 43, 50
10, 19012, Note_on_c, 9, 82, 52
10, 19012, Note_on_c, 9, 36, 57
10, 19012, Note_on_c, 9, 35, 64
10, 19018, Note_off_c, 9, 82, 0
10, 19018, Note_off_c, 9, 43, 0
10, 19018, Note_off_c, 9, 40, 0
10, 19020, Note_on_c, 9, 40, 43
10, 19020, Note_on_c, 9, 43, 43
10, 19020, Note_on_c, 9, 82, 44
10, 19027, Note_off_c, 9, 82, 0
10, 19027, Note_off_c, 9, 43, 0
10, 19027, Note_off_c, 9, 40, 0
10, 19029, Note_on_c, 9, 40, 35
10, 19029, Note_on_c, 9, 43, 35
10, 19029, Note_on_c, 9, 82, 36
10, 19037, Note_off_c, 9, 82, 0
10, 19037, Note_off_c, 9, 43, 0
10, 19037, Note_off_c, 9, 40, 0
10, 19039, Note_on_c, 9, 40, 28
10, 19039, Note_on_c, 9, 43, 28
10, 19039, Note_on_c, 9, 82, 28
10, 19047, Note_off_c, 9, 82, 0
10, 19047, Note_off_c, 9, 43, 0
10, 19047, Note_off_c, 9, 40, 0
10, 19049, Note_on_c, 9, 40, 31
10, 19049, Note_on_c, 9, 43, 31
10, 19049, Note_on_c, 9, 82, 31
10, 19057, Note_off_c, 9, 82, 0
10, 19057, Note_off_c, 9, 43, 0
10, 19057, Note_off_c, 9, 40, 0
10, 19059, Note_off_c, 9, 36, 0
10, 19059, Note_off_c, 9, 35, 0
10, 19059, Note_on_c, 9, 40, 31
10, 19059, Note_on_c, 9, 43, 31
10, 19059, Note_on_c, 9, 82, 31
10, 19067, Note_off_c, 9, 82, 0
10, 19067, Note_off_c, 9, 43, 0
10, 19067, Note_off_c, 9, 40, 0
10, 19069, Note_on_c, 9, 40, 25
10, 19069, Note_on_c, 9, 43, 25
10, 19069, Note_on_c, 9, 82, 25
10, 19077, Note_off_c, 9, 82, 0
10, 19077, Note_off_c, 9, 43, 0
10, 19077, Note_off_c, 9, 40, 0
10, 19079, Note_on_c, 9, 40, 25
10, 19079, Note_on_c, 9, 43, 25
10, 19079, Note_on_c, 9, 82, 25
10, 19087, Note_off_c, 9, 82, 0
10, 19087, Note_off_c, 9, 43, 0
10, 19087, Note_off_c, 9, 40, 0
10, 19089, Note_on_c, 9, 40, 31
10, 19089, Note_on_c, 9, 43, 31
10, 19089, Note_on_c, 9, 82, 31
10, 19097, Note_off_c, 9, 82, 0
10, 19097, Note_off_c, 9, 43, 0
10, 19097, Note_off_c, 9, 40, 0
10, 19099, Note_on_c, 9, 40, 31
10, 19099, Note_on_c, 9, 43, 31
10, 19099, Note_on_c, 9, 82, 31
10, 19106, Note_off_c, 9, 82, 0
10, 19106, Note_off_c, 9, 43, 0
10, 19106, Note_off_c, 9, 40, 0
10, 19108, Note_on_c, 9, 40, 42
10, 19108, Note_on_c, 9, 43, 42
10, 19108, Note_on_c, 9, 82, 43
10, 19120, Note_off_c, 9, 82, 0
10, 19120, Note_off_c, 9, 43, 0
10, 19120, Note_off_c, 9, 40, 0
10, 19156, Note_on_c, 9, 40, 42
10, 19156, Note_on_c, 9, 43, 42
10, 19156, Note_on_c, 9, 82, 43
10, 19168, Note_off_c, 9, 82, 0
10, 19168, Note_off_c, 9, 43, 0
10, 19168, Note_off_c, 9, 40, 0
10, 19204, Note_on_c, 9, 40, 64
10, 19204, Note_on_c, 9, 43, 64
10, 19204, Note_on_c, 9, 82, 54
10, 19216, Note_off_c, 9, 82, 0
10, 19216, Note_off_c, 9, 43, 0
10, 19216, Note_off_c, 9, 40, 0
10, 19252, Note_on_c, 9, 40, 42
10, 19252, Note_on_c, 9, 43, 42
10, 19252, Note_on_c, 9, 82, 43
10, 19264, Note_off_c, 9, 82, 0
10, 19264, Note_off_c, 9, 43, 0
10, 19264, Note_off_c, 9, 40, 0
10, 19300, Note_on_c, 9, 40, 42
10, 19300, Note_on_c, 9, 43, 42
10, 19300, Note_on_c, 9, 82, 43
10, 19312, Note_off_c, 9, 82, 0
10, 19312, Note_off_c, 9, 43, 0
10, 19312, Note_off_c, 9, 40, 0
10, 19348, Note_on_c, 9, 40, 42
10, 19348, Note_on_c, 9, 43, 42
10, 19348, Note_on_c, 9, 82, 43
10, 19360, Note_off_c, 9, 82, 0
10, 19360, Note_off_c, 9, 43, 0
10, 19360, Note_off_c, 9, 40, 0
10, 19396, Note_on_c, 9, 40, 64
10, 19396, Note_on_c, 9, 43, 64
10, 19396, Note_on_c, 9, 82, 54
10, 19396, Note_on_c, 9, 36, 58
10, 19396, Note_on_c, 9, 35, 67
10, 19408, Note_off_c, 9, 82, 0
10, 19408, Note_off_c, 9, 43, 0
10, 19408, Note_off_c, 9, 40, 0
10, 19422, Note_off_c, 9, 36, 0
10, 19422, Note_off_c, 9, 35, 0
10, 19444, Note_on_c, 9, 47, 63
10, 19474, Note_off_c, 9, 47, 0
10, 19492, Note_on_c, 9, 40, 53
10, 19492, Note_on_c, 9, 43, 53
10, 19492, Note_on_c, 9, 82, 54
10, 19492, Note_on_c, 9, 43, 63
10, 19498, Note_off_c, 9, 82, 0
10, 19498, Note_off_c, 9, 43, 0
10, 19498, Note_off_c, 9, 40, 0
10, 19500, Note_on_c, 9, 40, 51
10, 19500, Note_on_c, 9, 43, 51
10, 19500, Note_on_c, 9, 82, 53
10, 19507, Note_off_c, 9, 82, 0
10, 19507, Note_off_c, 9, 43, 0
10, 19507, Note_off_c, 9, 40, 0
10, 19509, Note_on_c, 9, 40, 41
10, 19509, Note_on_c, 9, 43, 41
10, 19509, Note_on_c, 9, 82, 43
10, 19517, Note_off_c, 9, 82, 0
10, 19517, Note_off_c, 9, 43, 0
10, 19517, Note_off_c, 9, 40, 0
10, 19519, Note_on_c, 9, 40, 30
10, 19519, Note_on_c, 9, 43, 30
10, 19519, Note_on_c, 9, 82, 31
10, 19523, Note_off_c, 9, 43, 0
10, 19527, Note_off_c, 9, 40, 0
10, 19527, Note_off_c, 9, 43, 0
10, 19527, Note_off_c, 9, 82, 0
10, 19529, Note_on_c, 9, 40, 31
10, 19529, Note_on_c, 9, 43, 31
10, 19529, Note_on_c, 9, 82, 31
10, 19537, Note_off_c, 9, 82, 0
10, 19537, Note_off_c, 9, 43, 0
10, 19537, Note_off_c, 9, 40, 0
10, 19539, Note_on_c, 9, 40, 31
10, 19539, Note_on_c, 9, 43, 31
10, 19539, Note_on_c, 9, 82, 31
10, 19540, Note_on_c, 9, 45, 63
10, 19547, Note_off_c, 9, 82, 0
10, 19547, Note_off_c, 9, 43, 0
10, 19547, Note_off_c, 9, 40, 0
10, 19549, Note_on_c, 9, 40, 25
10, 19549, Note_on_c, 9, 43, 25
10, 19549, Note_on_c, 9, 82, 25
10, 19557, Note_off_c, 9, 82, 0
10, 19557, Note_off_c, 9, 43, 0
10, 19557, Note_off_c, 9, 40, 0
10, 19559, Note_on_c, 9, 40, 28
10, 19559, Note_on_c, 9, 43, 28
10, 19559, Note_on_c, 9, 82, 28
10, 19561, Note_off_c, 9, 45, 0
10, 19567, Note_off_c, 9, 40, 0
10, 19567, Note_off_c, 9, 43, 0
10, 19567, Note_off_c, 9, 82, 0
10, 19569, Note_on_c, 9, 40, 35
10, 19569, Note_on_c, 9, 43, 35
10, 19569, Note_on_c, 9, 82, 36
10, 19577, Note_off_c, 9, 82, 0
10, 19577, Note_off_c, 9, 43, 0
10, 19577, Note_off_c, 9, 40, 0
10, 19579, Note_on_c, 9, 40, 43
10, 19579, Note_on_c, 9, 43, 43
10, 19579, Note_on_c, 9, 82, 44
10, 19586, Note_off_c, 9, 82, 0
10, 19586, Note_off_c, 9, 43, 0
10, 19586, Note_off_c, 9, 40, 0
10, 19588, Note_on_c, 9, 40, 50
10, 19588, Note_on_c, 9, 43, 50
10, 19588, Note_on_c, 9, 82, 52
10, 19588, Note_on_c, 9, 36, 58
10, 19588, Note_on_c, 9, 35, 67
10, 19594, Note_off_c, 9, 82, 0
10, 19594, Note_off_c, 9, 43, 0
10, 19594, Note_off_c, 9, 40, 0
10, 19596, Note_on_c, 9, 40, 43
10, 19596, Note_on_c, 9, 43, 43
10, 19596, Note_on_c, 9, 82, 44
10, 19603, Note_off_c, 9, 82, 0
10, 19603, Note_off_c, 9, 43, 0
10, 19603, Note_off_c, 9, 40, 0
10, 19605, Note_on_c, 9, 40, 35
10, 19605, Note_on_c, 9, 43, 35
10, 19605, Note_on_c, 9, 82, 36
10, 19613, Note_off_c, 9, 82, 0
10, 19613, Note_off_c, 9, 43, 0
10, 19613, Note_off_c, 9, 40, 0
10, 19615, Note_on_c, 9, 40, 28
10, 19615, Note_on_c, 9, 43, 28
10, 19615, Note_on_c, 9, 82, 28
10, 19620, Note_off_c, 9, 36, 0
10, 19620, Note_off_c, 9, 35, 0
10, 19623, Note_off_c, 9, 40, 0
10, 19623, Note_off_c, 9, 43, 0
10, 19623, Note_off_c, 9, 82, 0
10, 19625, Note_on_c, 9, 40, 31
10, 19625, Note_on_c, 9, 43, 31
10, 19625, Note_on_c, 9, 82, 31
10, 19633, Note_off_c, 9, 82, 0
10, 19633, Note_off_c, 9, 43, 0
10, 19633, Note_off_c, 9, 40, 0
10, 19635, Note_on_c, 9, 40, 31
10, 19635, Note_on_c, 9, 43, 31
10, 19635, Note_on_c, 9, 82, 31
10, 19643, Note_off_c, 9, 82, 0
10, 19643, Note_off_c, 9, 43, 0
10, 19643, Note_off_c, 9, 40, 0
10, 19645, Note_on_c, 9, 40, 25
10, 19645, Note_on_c, 9, 43, 25
10, 19645, Note_on_c, 9, 82, 25
10, 19653, Note_off_c, 9, 82, 0
10, 19653, Note_off_c, 9, 43, 0
10, 19653, Note_off_c, 9, 40, 0
10, 19655, Note_on_c, 9, 40, 25
10, 19655, Note_on_c, 9, 43, 25
10, 19655, Note_on_c, 9, 82, 25
10, 19663, Note_off_c, 9, 82, 0
10, 19663, Note_off_c, 9, 43, 0
10, 19663, Note_off_c, 9, 40, 0
10, 19665, Note_on_c, 9, 40, 31
10, 19665, Note_on_c, 9, 43, 31
10, 19665, Note_on_c, 9, 82, 31
10, 19673, Note_off_c, 9, 82, 0
10, 19673, Note_off_c, 9, 43, 0
10, 19673, Note_off_c, 9, 40, 0
10, 19675, Note_on_c, 9, 40, 31
10, 19675, Note_on_c, 9, 43, 31
10, 19675, Note_on_c, 9, 82, 31
10, 19682, Note_off_c, 9, 82, 0
10, 19682, Note_off_c, 9, 43, 0
10, 19682, Note_off_c, 9, 40, 0
10, 19684, Note_on_c, 9, 40, 42
10, 19684, Note_on_c, 9, 43, 42
10, 19684, Note_on_c, 9, 82, 43
10, 19696, Note_off_c, 9, 82, 0
10, 19696, Note_off_c, 9, 43, 0
10, 19696, Note_off_c, 9, 40, 0
10, 19732, Note_on_c, 9, 40, 42
10, 19732, Note_on_c, 9, 43, 42
10, 19732, Note_on_c, 9, 82, 43
10, 19744, Note_off_c, 9, 82, 0
10, 19744, Note_off_c, 9, 43, 0
10, 19744, Note_off_c, 9, 40, 0
10, 19780, Note_on_c, 9, 40, 64
10, 19780, Note_on_c, 9, 43, 64
10, 19780, Note_on_c, 9, 82, 54
10, 19792, Note_off_c, 9, 82, 0
10, 19792, Note_off_c, 9, 43, 0
10, 19792, Note_off_c, 9, 40, 0
10, 19828, Note_on_c, 9, 40, 42
10, 19828, Note_on_c, 9, 43, 42
10, 19828, Note_on_c, 9, 82, 43
10, 19840, Note_off_c, 9, 82, 0
10, 19840, Note_off_c, 9, 43, 0
10, 19840, Note_off_c, 9, 40, 0
10, 19876, Note_on_c, 9, 40, 62
10, 19876, Note_on_c, 9, 43, 62
10, 19876, Note_on_c, 9, 82, 54
10, 19876, Note_on_c, 9, 36, 58
10, 19876, Note_on_c, 9, 35, 66
10, 19882, Note_off_c, 9, 82, 0
10, 19882, Note_off_c, 9, 43, 0
10, 19882, Note_off_c, 9, 40, 0
10, 19884, Note_on_c, 9, 40, 53
10, 19884, Note_on_c, 9, 43, 53
10, 19884, Note_on_c, 9, 82, 54
10, 19891, Note_off_c, 9, 82, 0
10, 19891, Note_off_c, 9, 43, 0
10, 19891, Note_off_c, 9, 40, 0
10, 19893, Note_on_c, 9, 40, 43
10, 19893, Note_on_c, 9, 43, 43
10, 19893, Note_on_c, 9, 82, 44
10, 19901, Note_off_c, 9, 82, 0
10, 19901, Note_off_c, 9, 43, 0
10, 19901, Note_off_c, 9, 36, 0
10, 19901, Note_off_c, 9, 35, 0
10, 19901, Note_off_c, 9, 40, 0
10, 19903, Note_on_c, 9, 40, 31
10, 19903, Note_on_c, 9, 43, 31
10, 19903, Note_on_c, 9, 82, 31
10, 19911, Note_off_c, 9, 82, 0
10, 19911, Note_off_c, 9, 43, 0
10, 19911, Note_off_c, 9, 40, 0
10, 19913, Note_on_c, 9, 40, 31
10, 19913, Note_on_c, 9, 43, 31
10, 19913, Note_on_c, 9, 82, 31
10, 19921, Note_off_c, 9, 82, 0
10, 19921, Note_off_c, 9, 43, 0
10, 19921, Note_off_c, 9, 40, 0
10, 19923, Note_on_c, 9, 40, 31
10, 19923, Note_on_c, 9, 43, 31
10, 19923, Note_on_c, 9, 82, 31
10, 19931, Note_off_c, 9, 82, 0
10, 19931, Note_off_c, 9, 43, 0
10, 19931, Note_off_c, 9, 40, 0
10, 19933, Note_on_c, 9, 40, 25
10, 19933, Note_on_c, 9, 43, 25
10, 19933, Note_on_c, 9, 82, 25
10, 19941, Note_off_c, 9, 82, 0
10, 19941, Note_off_c, 9, 43, 0
10, 19941, Note_off_c, 9, 40, 0
10, 19943, Note_on_c, 9, 40, 25
10, 19943, Note_on_c, 9, 43, 25
10, 19943, Note_on_c, 9, 82, 25
10, 19951, Note_off_c, 9, 82, 0
10, 19951, Note_off_c, 9, 43, 0
10, 19951, Note_off_c, 9, 40, 0
10, 19953, Note_on_c, 9, 40, 31
10, 19953, Note_on_c, 9, 43, 31
10, 19953, Note_on_c, 9, 82, 31
10, 19961, Note_off_c, 9, 82, 0
10, 19961, Note_off_c, 9, 43, 0
10, 19961, Note_off_c, 9, 40, 0
10, 19963, Note_on_c, 9, 40, 31
10, 19963, Note_on_c, 9, 43, 31
10, 19963, Note_on_c, 9, 82, 31
10, 19970, Note_off_c, 9, 82, 0
10, 19970, Note_off_c, 9, 43, 0
10, 19970, Note_off_c, 9, 40, 0
10, 19972, Note_on_c, 9, 40, 51
10, 19972, Note_on_c, 9, 43, 51
10, 19972, Note_on_c, 9, 82, 53
10, 19972, Note_on_c, 9, 36, 63
10, 19972, Note_on_c, 9, 35, 72
10, 19978, Note_off_c, 9, 82, 0
10, 19978, Note_off_c, 9, 43, 0
10, 19978, Note_off_c, 9, 40, 0
10, 19980, Note_on_c, 9, 40, 44
10, 19980, Note_on_c, 9, 43, 44
10, 19980, Note_on_c, 9, 82, 46
10, 19987, Note_off_c, 9, 82, 0
10, 19987, Note_off_c, 9, 43, 0
10, 19987, Note_off_c, 9, 40, 0
10, 19989, Note_on_c, 9, 40, 25
10, 19989, Note_on_c, 9, 43, 25
10, 19989, Note_on_c, 9, 82, 25
10, 19997, Note_off_c, 9, 82, 0
10, 19997, Note_off_c, 9, 43, 0
10, 19997, Note_off_c, 9, 40, 0
10, 19999, Note_on_c, 9, 40, 25
10, 19999, Note_on_c, 9, 43, 25
10, 19999, Note_on_c, 9, 82, 25
10, 20002, Note_off_c, 9, 36, 0
10, 20002, Note_off_c, 9, 35, 0
10, 20007, Note_off_c, 9, 40, 0
10, 20007, Note_off_c, 9, 43, 0
10, 20007, Note_off_c, 9, 82, 0
10, 20009, Note_on_c, 9, 40, 31
10, 20009, Note_on_c, 9, 43, 31
10, 20009, Note_on_c, 9, 82, 31
10, 20017, Note_off_c, 9, 82, 0
10, 20017, Note_off_c, 9, 43, 0
10, 20017, Note_off_c, 9, 40, 0
10, 20019, Note_on_c, 9, 40, 31
10, 20019, Note_on_c, 9, 43, 31
10, 20019, Note_on_c, 9, 82, 31
10, 20027, Note_off_c, 9, 82, 0
10, 20027, Note_off_c, 9, 43, 0
10, 20027, Note_off_c, 9, 40, 0
10, 20029, Note_on_c, 9, 40, 25
10, 20029, Note_on_c, 9, 43, 25
10, 20029, Note_on_c, 9, 82, 25
10, 20037, Note_off_c, 9, 82, 0
10, 20037, Note_off_c, 9, 43, 0
10, 20037, Note_off_c, 9, 40, 0
10, 20039, Note_on_c, 9, 40, 25
10, 20039, Note_on_c, 9, 43, 25
10, 20039, Note_on_c, 9, 82, 25
10, 20047, Note_off_c, 9, 82, 0
10, 20047, Note_off_c, 9, 43, 0
10, 20047, Note_off_c, 9, 40, 0
10, 20049, Note_on_c, 9, 40, 31
10, 20049, Note_on_c, 9, 43, 31
10, 20049, Note_on_c, 9, 82, 31
10, 20057, Note_off_c, 9, 82, 0
10, 20057, Note_off_c, 9, 43, 0
10, 20057, Note_off_c, 9, 40, 0
10, 20059, Note_on_c, 9, 40, 31
10, 20059, Note_on_c, 9, 43, 31
10, 20059, Note_on_c, 9, 82, 31
10, 20066, Note_off_c, 9, 82, 0
10, 20066, Note_off_c, 9, 43, 0
10, 20066, Note_off_c, 9, 40, 0
10, 20068, Note_on_c, 9, 40, 42
10, 20068, Note_on_c, 9, 43, 42
10, 20068, Note_on_c, 9, 82, 43
10, 20080, Note_off_c, 9, 82, 0
10, 20080, Note_off_c, 9, 43, 0
10, 20080, Note_off_c, 9, 40, 0
10, 20116, Note_on_c, 9, 40, 42
10, 20116, Note_on_c, 9, 43, 42
10, 20116, Note_on_c, 9, 82, 43
10, 20128, Note_off_c, 9, 82, 0
10, 20128, Note_off_c, 9, 43, 0
10, 20128, Note_off_c, 9, 40, 0
10, 20164, Note_on_c, 9, 40, 42
10, 20164, Note_on_c, 9, 43, 42
10, 20164, Note_on_c, 9, 82, 43
10, 20176, Note_off_c, 9, 82, 0
10, 20176, Note_off_c, 9, 43, 0
10, 20176, Note_off_c, 9, 40, 0
10, 20260, Note_on_c, 9, 40, 64
10, 20260, Note_on_c, 9, 43, 64
10, 20260, Note_on_c, 9, 82, 54
10, 20260, Note_on_c, 9, 43, 63
10, 20266, Note_off_c, 9, 82, 0
10, 20266, Note_off_c, 9, 43, 0
10, 20266, Note_off_c, 9, 40, 0
10, 20268, Note_on_c, 9, 40, 61
10, 20268, Note_on_c, 9, 43, 61
10, 20268, Note_on_c, 9, 82, 54
10, 20275, Note_off_c, 9, 82, 0
10, 20275, Note_off_c, 9, 43, 0
10, 20275, Note_off_c, 9, 40, 0
10, 20277, Note_on_c, 9, 40, 52
10, 20277, Note_on_c, 9, 43, 52
10, 20277, Note_on_c, 9, 82, 54
10, 20285, Note_off_c, 9, 82, 0
10, 20285, Note_off_c, 9, 43, 0
10, 20285, Note_off_c, 9, 40, 0
10, 20286, Note_off_c, 9, 43, 0
10, 20287, Note_on_c, 9, 40, 42
10, 20287, Note_on_c, 9, 43, 42
10, 20287, Note_on_c, 9, 82, 43
10, 20295, Note_off_c, 9, 82, 0
10, 20295, Note_off_c, 9, 43, 0
10, 20295, Note_off_c, 9, 40, 0
10, 20297, Note_on_c, 9, 40, 31
10, 20297, Note_on_c, 9, 43, 31
10, 20297, Note_on_c, 9, 82, 31
10, 20305, Note_off_c, 9, 82, 0
10, 20305, Note_off_c, 9, 43, 0
10, 20305, Note_off_c, 9, 40, 0
10, 20307, Note_on_c, 9, 40, 31
10, 20307, Note_on_c, 9, 43, 31
10, 20307, Note_on_c, 9, 82, 31
10, 20308, Note_on_c, 9, 45, 63
10, 20315, Note_off_c, 9, 82, 0
10, 20315, Note_off_c, 9, 43, 0
10, 20315, Note_off_c, 9, 40, 0
10, 20317, Note_on_c, 9, 40, 25
10, 20317, Note_on_c, 9, 43, 25
10, 20317, Note_on_c, 9, 82, 25
10, 20325, Note_off_c, 9, 82, 0
10, 20325, Note_off_c, 9, 43, 0
10, 20325, Note_off_c, 9, 40, 0
10, 20327, Note_on_c, 9, 40, 25
10, 20327, Note_on_c, 9, 43, 25
10, 20327, Note_on_c, 9, 82, 25
10, 20331, Note_off_c, 9, 45, 0
10, 20335, Note_off_c, 9, 40, 0
10, 20335, Note_off_c, 9, 43, 0
10, 20335, Note_off_c, 9, 82, 0
10, 20337, Note_on_c, 9, 40, 31
10, 20337, Note_on_c, 9, 43, 31
10, 20337, Note_on_c, 9, 82, 31
10, 20345, Note_off_c, 9, 82, 0
10, 20345, Note_off_c, 9, 43, 0
10, 20345, Note_off_c, 9, 40, 0
10, 20347, Note_on_c, 9, 40, 31
10, 20347, Note_on_c, 9, 43, 31
10, 20347, Note_on_c, 9, 82, 31
10, 20354, Note_off_c, 9, 82, 0
10, 20354, Note_off_c, 9, 43, 0
10, 20354, Note_off_c, 9, 40, 0
10, 20356, Note_on_c, 9, 40, 51
10, 20356, Note_on_c, 9, 43, 51
10, 20356, Note_on_c, 9, 82, 53
10, 20356, Note_on_c, 9, 36, 60
10, 20356, Note_on_c, 9, 35, 69
10, 20362, Note_off_c, 9, 82, 0
10, 20362, Note_off_c, 9, 43, 0
10, 20362, Note_off_c, 9, 40, 0
10, 20364, Note_on_c, 9, 40, 44
10, 20364, Note_on_c, 9, 43, 44
10, 20364, Note_on_c, 9, 82, 46
10, 20371, Note_off_c, 9, 82, 0
10, 20371, Note_off_c, 9, 43, 0
10, 20371, Note_off_c, 9, 40, 0
10, 20373, Note_on_c, 9, 40, 25
10, 20373, Note_on_c, 9, 43, 25
10, 20373, Note_on_c, 9, 82, 25
10, 20381, Note_off_c, 9, 82, 0
10, 20381, Note_off_c, 9, 43, 0
10, 20381, Note_off_c, 9, 40, 0
10, 20383, Note_on_c, 9, 40, 25
10, 20383, Note_on_c, 9, 43, 25
10, 20383, Note_on_c, 9, 82, 25
10, 20388, Note_off_c, 9, 36, 0
10, 20388, Note_off_c, 9, 35, 0
10, 20391, Note_off_c, 9, 40, 0
10, 20391, Note_off_c, 9, 43, 0
10, 20391, Note_off_c, 9, 82, 0
10, 20393, Note_on_c, 9, 40, 31
10, 20393, Note_on_c, 9, 43, 31
10, 20393, Note_on_c, 9, 82, 31
10, 20401, Note_off_c, 9, 82, 0
10, 20401, Note_off_c, 9, 43, 0
10, 20401, Note_off_c, 9, 40, 0
10, 20403, Note_on_c, 9, 40, 31
10, 20403, Note_on_c, 9, 43, 31
10, 20403, Note_on_c, 9, 82, 31
10, 20411, Note_off_c, 9, 82, 0
10, 20411, Note_off_c, 9, 43, 0
10, 20411, Note_off_c, 9, 40, 0
10, 20413, Note_on_c, 9, 40, 25
10, 20413, Note_on_c, 9, 43, 25
10, 20413, Note_on_c, 9, 82, 25
10, 20421, Note_off_c, 9, 82, 0
10, 20421, Note_off_c, 9, 43, 0
10, 20421, Note_off_c, 9, 40, 0
10, 20423, Note_on_c, 9, 40, 25
10, 20423, Note_on_c, 9, 43, 25
10, 20423, Note_on_c, 9, 82, 25
10, 20431, Note_off_c, 9, 82, 0
10, 20431, Note_off_c, 9, 43, 0
10, 20431, Note_off_c, 9, 40, 0
10, 20433, Note_on_c, 9, 40, 31
10, 20433, Note_on_c, 9, 43, 31
10, 20433, Note_on_c, 9, 82, 31
10, 20441, Note_off_c, 9, 82, 0
10, 20441, Note_off_c, 9, 43, 0
10, 20441, Note_off_c, 9, 40, 0
10, 20443, Note_on_c, 9, 40, 31
10, 20443, Note_on_c, 9, 43, 31
10, 20443, Note_on_c, 9, 82, 31
10, 20450, Note_off_c, 9, 82, 0
10, 20450, Note_off_c, 9, 43, 0
10, 20450, Note_off_c, 9, 40, 0
10, 20452, Note_on_c, 9, 40, 42
10, 20452, Note_on_c, 9, 43, 42
10, 20452, Note_on_c, 9, 82, 43
10, 20464, Note_off_c, 9, 82, 0
10, 20464, Note_off_c, 9, 43, 0
10, 20464, Note_off_c, 9, 40, 0
10, 20500, Note_on_c, 9, 40, 42
10, 20500, Note_on_c, 9, 43, 42
10, 20500, Note_on_c, 9, 82, 43
10, 20512, Note_off_c, 9, 82, 0
10, 20512, Note_off_c, 9, 43, 0
10, 20512, Note_off_c, 9, 40, 0
10, 20548, Note_on_c, 9, 40, 64
10, 20548, Note_on_c, 9, 43, 64
10, 20548, Note_on_c, 9, 82, 54
10, 20560, Note_off_c, 9, 82, 0
10, 20560, Note_off_c, 9, 43, 0
10, 20560, Note_off_c, 9, 40, 0
10, 20596, Note_on_c, 9, 40, 42
10, 20596, Note_on_c, 9, 43, 42
10, 20596, Note_on_c, 9, 82, 43
10, 20608, Note_off_c, 9, 82, 0
10, 20608, Note_off_c, 9, 43, 0
10, 20608, Note_off_c, 9, 40, 0
10, 20644, Note_on_c, 9, 40, 59
10, 20644, Note_on_c, 9, 43, 59
10, 20644, Note_on_c, 9, 82, 54
10, 20644, Note_on_c, 9, 36, 57
10, 20644, Note_on_c, 9, 35, 64
10, 20650, Note_off_c, 9, 82, 0
10, 20650, Note_off_c, 9, 43, 0
10, 20650, Note_off_c, 9, 40, 0
10, 20652, Note_on_c, 9, 40, 51
10, 20652, Note_on_c, 9, 43, 51
10, 20652, Note_on_c, 9, 82, 53
10, 20659, Note_off_c, 9, 82, 0
10, 20659, Note_off_c, 9, 43, 0
10, 20659, Note_off_c, 9, 40, 0
10, 20661, Note_on_c, 9, 40, 41
10, 20661, Note_on_c, 9, 43, 41
10, 20661, Note_on_c, 9, 82, 43
10, 20669, Note_off_c, 9, 82, 0
10, 20669, Note_off_c, 9, 43, 0
10, 20669, Note_off_c, 9, 40, 0
10, 20671, Note_on_c, 9, 40, 29
10, 20671, Note_on_c, 9, 43, 29
10, 20671, Note_on_c, 9, 82, 30
10, 20672, Note_off_c, 9, 36, 0
10, 20672, Note_off_c, 9, 35, 0
10, 20679, Note_off_c, 9, 40, 0
10, 20679, Note_off_c, 9, 43, 0
10, 20679, Note_off_c, 9, 82, 0
10, 20681, Note_on_c, 9, 40, 31
10, 20681, Note_on_c, 9, 43, 31
10, 20681, Note_on_c, 9, 82, 31
10, 20689, Note_off_c, 9, 82, 0
10, 20689, Note_off_c, 9, 43, 0
10, 20689, Note_off_c, 9, 40, 0
10, 20691, Note_on_c, 9, 40, 31
10, 20691, Note_on_c, 9, 43, 31
10, 20691, Note_on_c, 9, 82, 31
10, 20699, Note_off_c, 9, 82, 0
10, 20699, Note_off_c, 9, 43, 0
10, 20699, Note_off_c, 9, 40, 0
10, 20701, Note_on_c, 9, 40, 25
10, 20701, Note_on_c, 9, 43, 25
10, 20701, Note_on_c, 9, 82, 25
10, 20709, Note_off_c, 9, 82, 0
10, 20709, Note_off_c, 9, 43, 0
10, 20709, Note_off_c, 9, 40, 0
10, 20711, Note_on_c, 9, 40, 25
10, 20711, Note_on_c, 9, 43, 25
10, 20711, Note_on_c, 9, 82, 25
10, 20719, Note_off_c, 9, 82, 0
10, 20719, Note_off_c, 9, 43, 0
10, 20719, Note_off_c, 9, 40, 0
10, 20721, Note_on_c, 9, 40, 31
10, 20721, Note_on_c, 9, 43, 31
10, 20721, Note_on_c, 9, 82, 31
10, 20729, Note_off_c, 9, 82, 0
10, 20729, Note_off_c, 9, 43, 0
10, 20729, Note_off_c, 9, 40, 0
10, 20731, Note_on_c, 9, 40, 31
10, 20731, Note_on_c, 9, 43, 31
10, 20731, Note_on_c, 9, 82, 31
10, 20738, Note_off_c, 9, 82, 0
10, 20738, Note_off_c, 9, 43, 0
10, 20738, Note_off_c, 9, 40, 0
10, 20740, Note_on_c, 9, 40, 51
10, 20740, Note_on_c, 9, 43, 51
10, 20740, Note_on_c, 9, 82, 53
10, 20740, Note_on_c, 9, 36, 58
10, 20740, Note_on_c, 9, 35, 67
10, 20746, Note_off_c, 9, 82, 0
10, 20746, Note_off_c, 9, 43, 0
10, 20746, Note_off_c, 9, 40, 0
10, 20748, Note_on_c, 9, 40, 44
10, 20748, Note_on_c, 9, 43, 44
10, 20748, Note_on_c, 9, 82, 46
10, 20755, Note_off_c, 9, 82, 0
10, 20755, Note_off_c, 9, 43, 0
10, 20755, Note_off_c, 9, 40, 0
10, 20757, Note_on_c, 9, 40, 25
10, 20757, Note_on_c, 9, 43, 25
10, 20757, Note_on_c, 9, 82, 25
10, 20765, Note_off_c, 9, 82, 0
10, 20765, Note_off_c, 9, 43, 0
10, 20765, Note_off_c, 9, 40, 0
10, 20767, Note_on_c, 9, 40, 25
10, 20767, Note_on_c, 9, 43, 25
10, 20767, Note_on_c, 9, 82, 25
10, 20771, Note_off_c, 9, 36, 0
10, 20771, Note_off_c, 9, 35, 0
10, 20775, Note_off_c, 9, 40, 0
10, 20775, Note_off_c, 9, 43, 0
10, 20775, Note_off_c, 9, 82, 0
10, 20777, Note_on_c, 9, 40, 31
10, 20777, Note_on_c, 9, 43, 31
10, 20777, Note_on_c, 9, 82, 31
10, 20785, Note_off_c, 9, 82, 0
10, 20785, Note_off_c, 9, 43, 0
10, 20785, Note_off_c, 9, 40, 0
10, 20787, Note_on_c, 9, 40, 31
10, 20787, Note_on_c, 9, 43, 31
10, 20787, Note_on_c, 9, 82, 31
10, 20795, Note_off_c, 9, 82, 0
10, 20795, Note_off_c, 9, 43, 0
10, 20795, Note_off_c, 9, 40, 0
10, 20797, Note_on_c, 9, 40, 25
10, 20797, Note_on_c, 9, 43, 25
10, 20797, Note_on_c, 9, 82, 25
10, 20805, Note_off_c, 9, 82, 0
10, 20805, Note_off_c, 9, 43, 0
10, 20805, Note_off_c, 9, 40, 0
10, 20807, Note_on_c, 9, 40, 25
10, 20807, Note_on_c, 9, 43, 25
10, 20807, Note_on_c, 9, 82, 25
10, 20815, Note_off_c, 9, 82, 0
10, 20815, Note_off_c, 9, 43, 0
10, 20815, Note_off_c, 9, 40, 0
10, 20817, Note_on_c, 9, 40, 31
10, 20817, Note_on_c, 9, 43, 31
10, 20817, Note_on_c, 9, 82, 31
10, 20825, Note_off_c, 9, 82, 0
10, 20825, Note_off_c, 9, 43, 0
10, 20825, Note_off_c, 9, 40, 0
10, 20827, Note_on_c, 9, 40, 31
10, 20827, Note_on_c, 9, 43, 31
10, 20827, Note_on_c, 9, 82, 31
10, 20834, Note_off_c, 9, 82, 0
10, 20834, Note_off_c, 9, 43, 0
10, 20834, Note_off_c, 9, 40, 0
10, 20836, Note_on_c, 9, 40, 42
10, 20836, Note_on_c, 9, 43, 42
10, 20836, Note_on_c, 9, 82, 43
10, 20848, Note_off_c, 9, 82, 0
10, 20848, Note_off_c, 9, 43, 0
10, 20848, Note_off_c, 9, 40, 0
10, 20884, Note_on_c, 9, 40, 42
10, 20884, Note_on_c, 9, 43, 42
10, 20884, Note_on_c, 9, 82, 43
10, 20896, Note_off_c, 9, 82, 0
10, 20896, Note_off_c, 9, 43, 0
10, 20896, Note_off_c, 9, 40, 0
10, 20932, Note_on_c, 9, 40, 53
10, 20932, Note_on_c, 9, 43, 53
10, 20932, Note_on_c, 9, 82, 54
10, 20939, Note_off_c, 9, 82, 0
10, 20939, Note_off_c, 9, 43, 0
10, 20939, Note_off_c, 9, 40, 0
10, 20940, Note_on_c, 9, 40, 50
10, 20940, Note_on_c, 9, 43, 50
10, 20940, Note_on_c, 9, 82, 52
10, 20947, Note_off_c, 9, 82, 0
10, 20947, Note_off_c, 9, 43, 0
10, 20947, Note_off_c, 9, 40, 0
10, 20949, Note_on_c, 9, 40, 47
10, 20949, Note_on_c, 9, 43, 47
10, 20949, Note_on_c, 9, 82, 52
10, 20957, Note_off_c, 9, 82, 0
10, 20957, Note_off_c, 9, 43, 0
10, 20957, Note_off_c, 9, 40, 0
10, 20959, Note_on_c, 9, 40, 43
10, 20959, Note_on_c, 9, 43, 43
10, 20959, Note_on_c, 9, 82, 44
10, 20967, Note_off_c, 9, 82, 0
10, 20967, Note_off_c, 9, 43, 0
10, 20967, Note_off_c, 9, 40, 0
10, 20969, Note_on_c, 9, 40, 39
10, 20969, Note_on_c, 9, 43, 39
10, 20969, Note_on_c, 9, 82, 42
10, 20977, Note_off_c, 9, 82, 0
10, 20977, Note_off_c, 9, 43, 0
10, 20977, Note_off_c, 9, 40, 0
10, 20979, Note_on_c, 9, 40, 35
10, 20979, Note_on_c, 9, 43, 35
10, 20979, Note_on_c, 9, 82, 36
10, 20980, Note_on_c, 9, 47, 63
10, 20987, Note_off_c, 9, 82, 0
10, 20987, Note_off_c, 9, 43, 0
10, 20987, Note_off_c, 9, 40, 0
10, 20989, Note_on_c, 9, 40, 31
10, 20989, Note_on_c, 9, 43, 31
10, 20989, Note_on_c, 9, 82, 31
10, 20997, Note_off_c, 9, 82, 0
10, 20997, Note_off_c, 9, 43, 0
10, 20997, Note_off_c, 9, 40, 0
10, 20999, Note_on_c, 9, 40, 28
10, 20999, Note_on_c, 9, 43, 28
10, 20999, Note_on_c, 9, 82, 28
10, 21003, Note_off_c, 9, 47, 0
10, 21007, Note_off_c, 9, 40, 0
10, 21007, Note_off_c, 9, 43, 0
10, 21007, Note_off_c, 9, 82, 0
10, 21009, Note_on_c, 9, 40, 31
10, 21009, Note_on_c, 9, 43, 31
10, 21009, Note_on_c, 9, 82, 31
10, 21017, Note_off_c, 9, 82, 0
10, 21017, Note_off_c, 9, 43, 0
10, 21017, Note_off_c, 9, 40, 0
10, 21019, Note_on_c, 9, 40, 31
10, 21019, Note_on_c, 9, 43, 31
10, 21019, Note_on_c, 9, 82, 31
10, 21026, Note_off_c, 9, 82, 0
10, 21026, Note_off_c, 9, 43, 0
10, 21026, Note_off_c, 9, 40, 0
10, 21028, Note_on_c, 9, 40, 31
10, 21028, Note_on_c, 9, 43, 31
10, 21028, Note_on_c, 9, 82, 31
10, 21028, Note_on_c, 9, 43, 63
10, 21034, Note_off_c, 9, 82, 0
10, 21034, Note_off_c, 9, 43, 0
10, 21034, Note_off_c, 9, 40, 0
10, 21037, Note_on_c, 9, 40, 31
10, 21037, Note_on_c, 9, 43, 31
10, 21037, Note_on_c, 9, 82, 31
10, 21043, Note_off_c, 9, 82, 0
10, 21043, Note_off_c, 9, 43, 0
10, 21043, Note_off_c, 9, 40, 0
10, 21045, Note_on_c, 9, 40, 25
10, 21045, Note_on_c, 9, 43, 25
10, 21045, Note_on_c, 9, 82, 25
10, 21053, Note_off_c, 9, 82, 0
10, 21053, Note_off_c, 9, 43, 0
10, 21053, Note_off_c, 9, 40, 0
10, 21055, Note_on_c, 9, 40, 25
10, 21055, Note_on_c, 9, 43, 25
10, 21055, Note_on_c, 9, 82, 25
10, 21062, Note_off_c, 9, 43, 0
10, 21063, Note_off_c, 9, 40, 0
10, 21063, Note_off_c, 9, 43, 0
10, 21063, Note_off_c, 9, 82, 0
10, 21065, Note_on_c, 9, 40, 31
10, 21065, Note_on_c, 9, 43, 31
10, 21065, Note_on_c, 9, 82, 31
10, 21073, Note_off_c, 9, 82, 0
10, 21073, Note_off_c, 9, 43, 0
10, 21073, Note_off_c, 9, 40, 0
10, 21075, Note_on_c, 9, 40, 31
10, 21075, Note_on_c, 9, 43, 31
10, 21075, Note_on_c, 9, 82, 31
10, 21076, Note_on_c, 9, 45, 63
10, 21083, Note_off_c, 9, 82, 0
10, 21083, Note_off_c, 9, 43, 0
10, 21083, Note_off_c, 9, 40, 0
10, 21085, Note_on_c, 9, 40, 25
10, 21085, Note_on_c, 9, 43, 25
10, 21085, Note_on_c, 9, 82, 25
10, 21093, Note_off_c, 9, 82, 0
10, 21093, Note_off_c, 9, 43, 0
10, 21093, Note_off_c, 9, 40, 0
10, 21095, Note_on_c, 9, 40, 25
10, 21095, Note_on_c, 9, 43, 25
10, 21095, Note_on_c, 9, 82, 25
10, 21099, Note_off_c, 9, 45, 0
10, 21103, Note_off_c, 9, 40, 0
10, 21103, Note_off_c, 9, 43, 0
10, 21103, Note_off_c, 9, 82, 0
10, 21105, Note_on_c, 9, 40, 31
10, 21105, Note_on_c, 9, 43, 31
10, 21105, Note_on_c, 9, 82, 31
10, 21113, Note_off_c, 9, 82, 0
10, 21113, Note_off_c, 9, 43, 0
10, 21113, Note_off_c, 9, 40, 0
10, 21115, Pitch_bend_c, 9, 8192
10, 21115, Note_on_c, 9, 40, 31
10, 21115, Note_on_c, 9, 43, 31
10, 21115, Note_on_c, 9, 82, 31
10, 21122, Note_off_c, 9, 82, 0
10, 21122, Note_off_c, 9, 43, 0
10, 21122, Note_off_c, 9, 40, 0
10, 21124, Note_on_c, 9, 36, 83
10, 21124, Note_on_c, 9, 35, 95
10, 21219, Note_off_c, 9, 35, 0
10, 21219, Note_off_c, 9, 36, 0
10, 21316, Note_on_c, 9, 37, 104
10, 21366, Note_off_c, 9, 37, 0
10, 21412, Note_on_c, 9, 36, 83
10, 21412, Note_on_c, 9, 35, 95
10, 21459, Note_off_c, 9, 35, 0
10, 21459, Note_off_c, 9, 36, 0
10, 21508, Note_on_c, 9, 36, 83
10, 21508, Note_on_c, 9, 35, 95
10, 21553, Note_off_c, 9, 35, 0
10, 21553, Note_off_c, 9, 36, 0
10, 21700, Note_on_c, 9, 37, 104
10, 21732, Note_off_c, 9, 37, 0
10, 21892, Note_on_c, 9, 36, 83
10, 21892, Note_on_c, 9, 35, 95
10, 21987, Note_off_c, 9, 35, 0
10, 21987, Note_off_c, 9, 36, 0
10, 22084, Note_on_c, 9, 37, 104
10, 22134, Note_off_c, 9, 37, 0
10, 22180, Note_on_c, 9, 36, 83
10, 22180, Note_on_c, 9, 35, 95
10, 22227, Note_off_c, 9, 35, 0
10, 22227, Note_off_c, 9, 36, 0
10, 22276, Note_on_c, 9, 36, 83
10, 22276, Note_on_c, 9, 35, 95
10, 22321, Note_off_c, 9, 35, 0
10, 22321, Note_off_c, 9, 36, 0
10, 22468, Note_on_c, 9, 37, 104
10, 22500, Note_off_c, 9, 37, 0
10, 22660, Note_on_c, 9, 36, 83
10, 22660, Note_on_c, 9, 35, 95
10, 22755, Note_off_c, 9, 35, 0
10, 22755, Note_off_c, 9, 36, 0
10, 22852, Note_on_c, 9, 37, 104
10, 22902, Note_off_c, 9, 37, 0
10, 22948, Note_on_c, 9, 36, 83
10, 22948, Note_on_c, 9, 35, 95
10, 22995, Note_off_c, 9, 35, 0
10, 22995, Note_off_c, 9, 36, 0
10, 23044, Note_on_c, 9, 36, 83
10, 23044, Note_on_c, 9, 35, 95
10, 23089, Note_off_c, 9, 35, 0
10, 23089, Note_off_c, 9, 36, 0
10, 23236, Note_on_c, 9, 37, 104
10, 23268, Note_off_c, 9, 37, 0
10, 23428, Note_on_c, 9, 36, 83
10, 23428, Note_on_c, 9, 35, 95
10, 23523, Note_off_c, 9, 35, 0
10, 23523, Note_off_c, 9, 36, 0
10, 23620, Note_on_c, 9, 37, 104
10, 23670, Note_off_c, 9, 37, 0
10, 23716, Note_on_c, 9, 36, 83
10, 23716, Note_on_c, 9, 35, 95
10, 23763, Note_off_c, 9, 35, 0
10, 23763, Note_off_c, 9, 36, 0
10, 23812, Note_on_c, 9, 36, 83
10, 23812, Note_on_c, 9, 35, 95
10, 23857, Note_off_c, 9, 35, 0
10, 23857, Note_off_c, 9, 36, 0
10, 24004, Note_on_c, 9, 37, 104
10, 24036, Note_off_c, 9, 37, 0
10, 24196, Note_on_c, 9, 36, 83
10, 24196, Note_on_c, 9, 35, 95
10, 24291, Note_off_c, 9, 35, 0
10, 24291, Note_off_c, 9, 36, 0
10, 24388, Note_on_c, 9, 37, 104
10, 24438, Note_off_c, 9, 37, 0
10, 24484, Note_on_c, 9, 36, 83
10, 24484, Note_on_c, 9, 35, 95
10, 24531, Note_off_c, 9, 35, 0
10, 24531, Note_off_c, 9, 36, 0
10, 24580, Note_on_c, 9, 36, 83
10, 24580, Note_on_c, 9, 35, 95
10, 24625, Note_off_c, 9, 35, 0
10, 24625, Note_off_c, 9, 36, 0
10, 24772, Note_on_c, 9, 37, 104
10, 24804, Note_off_c, 9, 37, 0
10, 24964, Note_on_c, 9, 36, 83
10, 24964, Note_on_c, 9, 35, 95
10, 25059, Note_off_c, 9, 35, 0
10, 25059, Note_off_c, 9, 36, 0
10, 25156, Note_on_c, 9, 37, 104
10, 25206, Note_off_c, 9, 37, 0
10, 25252, Note_on_c, 9, 36, 83
10, 25252, Note_on_c, 9, 35, 95
10, 25299, Note_off_c, 9, 35, 0
10, 25299, Note_off_c, 9, 36, 0
10, 25348, Note_on_c, 9, 36, 83
10, 25348, Note_on_c, 9, 35, 95
10, 25393, Note_off_c, 9, 35, 0
10, 25393, Note_off_c, 9, 36, 0
10, 25540, Note_on_c, 9, 37, 104
10, 25572, Note_off_c, 9, 37, 0
10, 25732, Note_on_c, 9, 36, 83
10, 25732, Note_on_c, 9, 35, 95
10, 25827, Note_off_c, 9, 35, 0
10, 25827, Note_off_c, 9, 36, 0
10, 25924, Note_on_c, 9, 37, 104
10, 25974, Note_off_c, 9, 37, 0
10, 26020, Note_on_c, 9, 36, 83
10, 26020, Note_on_c, 9, 35, 95
10, 26067, Note_off_c, 9, 35, 0
10, 26067, Note_off_c, 9, 36, 0
10, 26116, Note_on_c, 9, 36, 83
10, 26116, Note_on_c, 9, 35, 95
10, 26161, Note_off_c, 9, 35, 0
10, 26161, Note_off_c, 9, 36, 0
10, 26308, Note_on_c, 9, 37, 104
10, 26340, Note_off_c, 9, 37, 0
10, 26500, Note_on_c, 9, 36, 83
10, 26500, Note_on_c, 9, 35, 95
10, 26595, Note_off_c, 9, 35, 0
10, 26595, Note_off_c, 9, 36, 0
10, 26692, Note_on_c, 9, 37, 104
10, 26742, Note_off_c, 9, 37, 0
10, 26788, Note_on_c, 9, 36, 83
10, 26788, Note_on_c, 9, 35, 95
10, 26835, Note_off_c, 9, 35, 0
10, 26835, Note_off_c, 9, 36, 0
10, 26884, Note_on_c, 9, 36, 83
10, 26884, Note_on_c, 9, 35, 95
10, 26929, Note_off_c, 9, 35, 0
10, 26929, Note_off_c, 9, 36, 0
10, 27076, Note_on_c, 9, 37, 104
10, 27108, Note_off_c, 9, 37, 0
10, 27268, Note_on_c, 9, 36, 76
10, 27268, Note_on_c, 9, 35, 93
10, 27316, Note_on_c, 9, 70, 57
10, 27320, Note_off_c, 9, 35, 0
10, 27320, Note_off_c, 9, 36, 0
10, 27355, Note_off_c, 9, 70, 0
10, 27364, Note_on_c, 9, 42, 79
10, 27398, Note_off_c, 9, 42, 0
10, 27412, Note_on_c, 9, 70, 57
10, 27436, Note_off_c, 9, 70, 0
10, 27460, Note_on_c, 9, 40, 95
10, 27460, Note_on_c, 9, 43, 65
10, 27510, Note_off_c, 9, 43, 0
10, 27510, Note_off_c, 9, 40, 0
10, 27556, Note_on_c, 9, 36, 63
10, 27556, Note_on_c, 9, 35, 77
10, 27582, Note_off_c, 9, 35, 0
10, 27582, Note_off_c, 9, 36, 0
10, 27652, Note_on_c, 9, 36, 76
10, 27652, Note_on_c, 9, 35, 93
10, 27685, Note_off_c, 9, 35, 0
10, 27685, Note_off_c, 9, 36, 0
10, 27700, Note_on_c, 9, 70, 57
10, 27733, Note_off_c, 9, 70, 0
10, 27748, Note_on_c, 9, 42, 79
10, 27785, Note_off_c, 9, 42, 0
10, 27796, Note_on_c, 9, 70, 57
10, 27822, Note_off_c, 9, 70, 0
10, 27844, Note_on_c, 9, 40, 95
10, 27844, Note_on_c, 9, 43, 65
10, 27876, Note_off_c, 9, 43, 0
10, 27876, Note_off_c, 9, 40, 0
10, 27940, Note_on_c, 9, 42, 60
10, 27969, Note_off_c, 9, 42, 0
10, 28036, Note_on_c, 9, 36, 76
10, 28036, Note_on_c, 9, 35, 93
10, 28084, Note_on_c, 9, 70, 57
10, 28088, Note_off_c, 9, 35, 0
10, 28088, Note_off_c, 9, 36, 0
10, 28114, Note_off_c, 9, 70, 0
10, 28132, Note_on_c, 9, 42, 79
10, 28164, Note_off_c, 9, 42, 0
10, 28180, Note_on_c, 9, 70, 57
10, 28202, Note_off_c, 9, 70, 0
10, 28228, Note_on_c, 9, 40, 95
10, 28228, Note_on_c, 9, 43, 65
10, 28278, Note_off_c, 9, 43, 0
10, 28278, Note_off_c, 9, 40, 0
10, 28324, Note_on_c, 9, 36, 63
10, 28324, Note_on_c, 9, 35, 77
10, 28350, Note_off_c, 9, 35, 0
10, 28350, Note_off_c, 9, 36, 0
10, 28420, Note_on_c, 9, 36, 76
10, 28420, Note_on_c, 9, 35, 93
10, 28453, Note_off_c, 9, 35, 0
10, 28453, Note_off_c, 9, 36, 0
10, 28468, Note_on_c, 9, 70, 57
10, 28501, Note_off_c, 9, 70, 0
10, 28516, Note_on_c, 9, 42, 79
10, 28550, Note_off_c, 9, 42, 0
10, 28564, Note_on_c, 9, 70, 57
10, 28588, Note_off_c, 9, 70, 0
10, 28612, Note_on_c, 9, 40, 95
10, 28612, Note_on_c, 9, 43, 65
10, 28644, Note_off_c, 9, 43, 0
10, 28644, Note_off_c, 9, 40, 0
10, 28708, Note_on_c, 9, 42, 60
10, 28737, Note_off_c, 9, 42, 0
10, 28804, Note_on_c, 9, 36, 76
10, 28804, Note_on_c, 9, 35, 93
10, 28852, Note_on_c, 9, 70, 57
10, 28856, Note_off_c, 9, 35, 0
10, 28856, Note_off_c, 9, 36, 0
10, 28880, Note_off_c, 9, 70, 0
10, 28900, Note_on_c, 9, 42, 79
10, 28933, Note_off_c, 9, 42, 0
10, 28948, Note_on_c, 9, 70, 57
10, 28972, Note_off_c, 9, 70, 0
10, 28996, Note_on_c, 9, 40, 95
10, 28996, Note_on_c, 9, 43, 65
10, 29046, Note_off_c, 9, 43, 0
10, 29046, Note_off_c, 9, 40, 0
10, 29092, Note_on_c, 9, 36, 63
10, 29092, Note_on_c, 9, 35, 77
10, 29118, Note_off_c, 9, 35, 0
10, 29118, Note_off_c, 9, 36, 0
10, 29188, Note_on_c, 9, 36, 76
10, 29188, Note_on_c, 9, 35, 93
10, 29221, Note_off_c, 9, 35, 0
10, 29221, Note_off_c, 9, 36, 0
10, 29236, Note_on_c, 9, 70, 57
10, 29266, Note_off_c, 9, 70, 0
10, 29284, Note_on_c, 9, 42, 79
10, 29315, Note_off_c, 9, 42, 0
10, 29332, Note_on_c, 9, 70, 57
10, 29354, Note_off_c, 9, 70, 0
10, 29380, Note_on_c, 9, 40, 95
10, 29380, Note_on_c, 9, 43, 65
10, 29412, Note_off_c, 9, 43, 0
10, 29412, Note_off_c, 9, 40, 0
10, 29476, Note_on_c, 9, 42, 60
10, 29503, Note_off_c, 9, 42, 0
10, 29572, Note_on_c, 9, 36, 76
10, 29572, Note_on_c, 9, 35, 93
10, 29620, Note_on_c, 9, 70, 57
10, 29624, Note_off_c, 9, 35, 0
10, 29624, Note_off_c, 9, 36, 0
10, 29642, Note_off_c, 9, 70, 0
10, 29668, Note_on_c, 9, 42, 79
10, 29695, Note_off_c, 9, 42, 0
10, 29716, Note_on_c, 9, 70, 57
10, 29736, Note_off_c, 9, 70, 0
10, 29764, Note_on_c, 9, 40, 95
10, 29764, Note_on_c, 9, 43, 65
10, 29814, Note_off_c, 9, 43, 0
10, 29814, Note_off_c, 9, 40, 0
10, 29860, Note_on_c, 9, 36, 63
10, 29860, Note_on_c, 9, 35, 77
10, 29886, Note_off_c, 9, 35, 0
10, 29886, Note_off_c, 9, 36, 0
10, 29956, Note_on_c, 9, 36, 76
10, 29956, Note_on_c, 9, 35, 93
10, 29989, Note_off_c, 9, 35, 0
10, 29989, Note_off_c, 9, 36, 0
10, 30004, Note_on_c, 9, 70, 57
10, 30028, Note_off_c, 9, 70, 0
10, 30052, Note_on_c, 9, 42, 79
10, 30083, Note_off_c, 9, 42, 0
10, 30100, Note_on_c, 9, 70, 57
10, 30121, Note_off_c, 9, 70, 0
10, 30148, Note_on_c, 9, 36, 76
10, 30148, Note_on_c, 9, 35, 93
10, 30148, Note_on_c, 9, 40, 95
10, 30148, Note_on_c, 9, 43, 65
10, 30180, Note_off_c, 9, 43, 0
10, 30180, Note_off_c, 9, 40, 0
10, 30181, Note_off_c, 9, 35, 0
10, 30181, Note_off_c, 9, 36, 0
10, 30244, Note_on_c, 9, 42, 60
10, 30270, Note_off_c, 9, 42, 0
10, 30340, Note_on_c, 9, 36, 76
10, 30340, Note_on_c, 9, 35, 93
10, 30342, Note_on_c, 9, 57, 54
10, 30369, Note_off_c, 9, 57, 0
10, 30388, Note_on_c, 9, 70, 57
10, 30392, Note_off_c, 9, 35, 0
10, 30392, Note_off_c, 9, 36, 0
10, 30427, Note_off_c, 9, 70, 0
10, 30436, Note_on_c, 9, 42, 79
10, 30470, Note_off_c, 9, 42, 0
10, 30484, Note_on_c, 9, 70, 57
10, 30508, Note_off_c, 9, 70, 0
10, 30532, Note_on_c, 9, 40, 95
10, 30532, Note_on_c, 9, 43, 65
10, 30582, Note_off_c, 9, 43, 0
10, 30582, Note_off_c, 9, 40, 0
10, 30628, Note_on_c, 9, 36, 63
10, 30628, Note_on_c, 9, 35, 77
10, 30654, Note_off_c, 9, 35, 0
10, 30654, Note_off_c, 9, 36, 0
10, 30724, Note_on_c, 9, 36, 76
10, 30724, Note_on_c, 9, 35, 93
10, 30757, Note_off_c, 9, 35, 0
10, 30757, Note_off_c, 9, 36, 0
10, 30772, Note_on_c, 9, 70, 57
10, 30805, Note_off_c, 9, 70, 0
10, 30820, Note_on_c, 9, 42, 79
10, 30857, Note_off_c, 9, 42, 0
10, 30868, Note_on_c, 9, 70, 57
10, 30894, Note_off_c, 9, 70, 0
10, 30916, Note_on_c, 9, 40, 95
10, 30916, Note_on_c, 9, 43, 65
10, 30948, Note_off_c, 9, 43, 0
10, 30948, Note_off_c, 9, 40, 0
10, 31012, Note_on_c, 9, 42, 60
10, 31041, Note_off_c, 9, 42, 0
10, 31108, Note_on_c, 9, 36, 76
10, 31108, Note_on_c, 9, 35, 93
10, 31156, Note_on_c, 9, 70, 57
10, 31160, Note_off_c, 9, 35, 0
10, 31160, Note_off_c, 9, 36, 0
10, 31186, Note_off_c, 9, 70, 0
10, 31204, Note_on_c, 9, 42, 79
10, 31236, Note_off_c, 9, 42, 0
10, 31252, Note_on_c, 9, 70, 57
10, 31274, Note_off_c, 9, 70, 0
10, 31300, Note_on_c, 9, 40, 95
10, 31300, Note_on_c, 9, 43, 65
10, 31350, Note_off_c, 9, 43, 0
10, 31350, Note_off_c, 9, 40, 0
10, 31396, Note_on_c, 9, 36, 63
10, 31396, Note_on_c, 9, 35, 77
10, 31422, Note_off_c, 9, 35, 0
10, 31422, Note_off_c, 9, 36, 0
10, 31492, Note_on_c, 9, 36, 76
10, 31492, Note_on_c, 9, 35, 93
10, 31525, Note_off_c, 9, 35, 0
10, 31525, Note_off_c, 9, 36, 0
10, 31540, Note_on_c, 9, 70, 57
10, 31573, Note_off_c, 9, 70, 0
10, 31588, Note_on_c, 9, 42, 79
10, 31622, Note_off_c, 9, 42, 0
10, 31636, Note_on_c, 9, 70, 57
10, 31660, Note_off_c, 9, 70, 0
10, 31684, Note_on_c, 9, 40, 95
10, 31684, Note_on_c, 9, 43, 65
10, 31716, Note_off_c, 9, 43, 0
10, 31716, Note_off_c, 9, 40, 0
10, 31780, Note_on_c, 9, 42, 60
10, 31809, Note_off_c, 9, 42, 0
10, 31876, Note_on_c, 9, 36, 76
10, 31876, Note_on_c, 9, 35, 93
10, 31924, Note_on_c, 9, 70, 57
10, 31928, Note_off_c, 9, 35, 0
10, 31928, Note_off_c, 9, 36, 0
10, 31952, Note_off_c, 9, 70, 0
10, 31972, Note_on_c, 9, 42, 79
10, 32005, Note_off_c, 9, 42, 0
10, 32020, Note_on_c, 9, 70, 57
10, 32044, Note_off_c, 9, 70, 0
10, 32068, Note_on_c, 9, 40, 95
10, 32068, Note_on_c, 9, 43, 65
10, 32118, Note_off_c, 9, 43, 0
10, 32118, Note_off_c, 9, 40, 0
10, 32164, Note_on_c, 9, 36, 63
10, 32164, Note_on_c, 9, 35, 77
10, 32190, Note_off_c, 9, 35, 0
10, 32190, Note_off_c, 9, 36, 0
10, 32260, Note_on_c, 9, 36, 76
10, 32260, Note_on_c, 9, 35, 93
10, 32293, Note_off_c, 9, 35, 0
10, 32293, Note_off_c, 9, 36, 0
10, 32308, Note_on_c, 9, 70, 57
10, 32338, Note_off_c, 9, 70, 0
10, 32356, Note_on_c, 9, 42, 79
10, 32387, Note_off_c, 9, 42, 0
10, 32404, Note_on_c, 9, 70, 57
10, 32426, Note_off_c, 9, 70, 0
10, 32452, Note_on_c, 9, 40, 95
10, 32452, Note_on_c, 9, 43, 65
10, 32484, Note_off_c, 9, 43, 0
10, 32484, Note_off_c, 9, 40, 0
10, 32547, Note_on_c, 9, 40, 53
10, 32547, Note_on_c, 9, 43, 36
10, 32547, Note_on_c, 9, 41, 66
10, 32554, Note_off_c, 9, 41, 0
10, 32554, Note_off_c, 9, 43, 0
10, 32554, Note_off_c, 9, 40, 0
10, 32555, Note_on_c, 9, 40, 50
10, 32555, Note_on_c, 9, 43, 34
10, 32555, Note_on_c, 9, 41, 61
10, 32562, Note_off_c, 9, 41, 0
10, 32562, Note_off_c, 9, 43, 0
10, 32562, Note_off_c, 9, 40, 0
10, 32564, Note_on_c, 9, 40, 47
10, 32564, Note_on_c, 9, 43, 31
10, 32564, Note_on_c, 9, 41, 59
10, 32572, Note_off_c, 9, 41, 0
10, 32572, Note_off_c, 9, 43, 0
10, 32572, Note_off_c, 9, 40, 0
10, 32574, Note_on_c, 9, 40, 43
10, 32574, Note_on_c, 9, 43, 29
10, 32574, Note_on_c, 9, 41, 53
10, 32582, Note_off_c, 9, 41, 0
10, 32582, Note_off_c, 9, 43, 0
10, 32582, Note_off_c, 9, 40, 0
10, 32584, Note_on_c, 9, 40, 39
10, 32584, Note_on_c, 9, 43, 26
10, 32584, Note_on_c, 9, 41, 49
10, 32592, Note_off_c, 9, 41, 0
10, 32592, Note_off_c, 9, 43, 0
10, 32592, Note_off_c, 9, 40, 0
10, 32594, Note_on_c, 9, 40, 43
10, 32594, Note_on_c, 9, 43, 29
10, 32594, Note_on_c, 9, 41, 53
10, 32602, Note_off_c, 9, 41, 0
10, 32602, Note_off_c, 9, 43, 0
10, 32602, Note_off_c, 9, 40, 0
10, 32604, Note_on_c, 9, 40, 47
10, 32604, Note_on_c, 9, 43, 31
10, 32604, Note_on_c, 9, 41, 59
10, 32612, Note_off_c, 9, 41, 0
10, 32612, Note_off_c, 9, 43, 0
10, 32612, Note_off_c, 9, 40, 0
10, 32614, Note_on_c, 9, 40, 51
10, 32614, Note_on_c, 9, 43, 34
10, 32614, Note_on_c, 9, 41, 62
10, 32622, Note_off_c, 9, 41, 0
10, 32622, Note_off_c, 9, 43, 0
10, 32622, Note_off_c, 9, 40, 0
10, 32624, Note_on_c, 9, 40, 60
10, 32624, Note_on_c, 9, 43, 40
10, 32624, Note_on_c, 9, 41, 74
10, 32632, Note_off_c, 9, 41, 0
10, 32632, Note_off_c, 9, 43, 0
10, 32632, Note_off_c, 9, 40, 0
10, 32634, Note_on_c, 9, 40, 68
10, 32634, Note_on_c, 9, 43, 46
10, 32634, Note_on_c, 9, 41, 84
10, 32642, Note_off_c, 9, 41, 0
10, 32642, Note_off_c, 9, 43, 0
10, 32642, Note_off_c, 9, 40, 0
10, 32644, Note_on_c, 9, 36, 55
10, 32644, Note_on_c, 9, 35, 76
10, 32645, Note_on_c, 9, 41, 64
10, 32646, Note_on_c, 9, 43, 40
10, 32646, Note_on_c, 9, 57, 54
10, 32646, Note_on_c, 9, 40, 60
10, 32646, Note_on_c, 9, 43, 40
10, 32670, Note_off_c, 9, 40, 0
10, 32670, Note_off_c, 9, 43, 0
10, 32671, Note_off_c, 9, 41, 0
10, 32673, Note_off_c, 9, 57, 0
10, 32674, Note_off_c, 9, 43, 0
10, 32686, Note_off_c, 9, 36, 0
10, 32690, Note_off_c, 9, 35, 0
10, 32788, Note_on_c, 9, 36, 55
10, 32788, Note_on_c, 9, 35, 76
10, 32789, Note_on_c, 9, 43, 55
10, 32789, Note_on_c, 9, 40, 62
10, 32789, Note_on_c, 9, 43, 62
10, 32790, Note_on_c, 9, 41, 57
10, 32812, Note_off_c, 9, 41, 0
10, 32813, Note_off_c, 9, 40, 0
10, 32813, Note_off_c, 9, 43, 0
10, 32814, Note_off_c, 9, 43, 0
10, 32817, Note_off_c, 9, 35, 0
10, 32818, Note_off_c, 9, 36, 0
10, 32838, Note_on_c, 9, 40, 39
10, 32838, Note_on_c, 9, 43, 39
10, 32858, Note_off_c, 9, 43, 0
10, 32858, Note_off_c, 9, 40, 0
10, 32932, Note_on_c, 9, 36, 55
10, 32932, Note_on_c, 9, 35, 76
10, 32933, Note_on_c, 9, 43, 59
10, 32934, Note_on_c, 9, 40, 59
10, 32934, Note_on_c, 9, 43, 59
10, 32934, Note_on_c, 9, 41, 57
10, 32952, Note_off_c, 9, 43, 0
10, 32954, Note_off_c, 9, 35, 0
10, 32954, Note_off_c, 9, 36, 0
10, 32956, Note_off_c, 9, 41, 0
10, 32959, Note_off_c, 9, 40, 0
10, 32959, Note_off_c, 9, 43, 0
10, 33028, Note_on_c, 9, 35, 76
10, 33028, Note_on_c, 9, 36, 55
10, 33030, Note_on_c, 9, 43, 60
10, 33030, Note_on_c, 9, 40, 59
10, 33030, Note_on_c, 9, 43, 59
10, 33030, Note_on_c, 9, 41, 62
10, 33051, Note_off_c, 9, 43, 0
10, 33054, Note_off_c, 9, 41, 0
10, 33057, Note_off_c, 9, 40, 0
10, 33057, Note_off_c, 9, 43, 0
10, 33058, Note_off_c, 9, 36, 0
10, 33060, Note_off_c, 9, 35, 0
10, 33133, Note_on_c, 9, 45, 59
10, 33135, Note_on_c, 9, 47, 59
10, 33152, Note_off_c, 9, 47, 0
10, 33160, Note_off_c, 9, 45, 0
10, 33179, Note_on_c, 9, 45, 68
10, 33180, Note_on_c, 9, 43, 68
10, 33194, Note_off_c, 9, 45, 0
10, 33204, Note_off_c, 9, 43, 0
10, 33220, Note_on_c, 9, 36, 55
10, 33220, Note_on_c, 9, 35, 76
10, 33221, Note_on_c, 9, 40, 59
10, 33221, Note_on_c, 9, 43, 59
10, 33222, Note_on_c, 9, 43, 62
10, 33222, Note_on_c, 9, 41, 60
10, 33245, Note_off_c, 9, 43, 0
10, 33246, Note_off_c, 9, 41, 0
10, 33250, Note_off_c, 9, 40, 0
10, 33250, Note_off_c, 9, 35, 0
10, 33250, Note_off_c, 9, 36, 0
10, 33250, Note_off_c, 9, 43, 0
10, 33364, Note_on_c, 9, 36, 55
10, 33364, Note_on_c, 9, 35, 76
10, 33365, Note_on_c, 9, 41, 59
10, 33366, Note_on_c, 9, 43, 62
10, 33366, Note_on_c, 9, 40, 59
10, 33366, Note_on_c, 9, 43, 59
10, 33386, Note_off_c, 9, 43, 0
10, 33388, Note_off_c, 9, 35, 0
10, 33388, Note_off_c, 9, 36, 0
10, 33389, Note_off_c, 9, 41, 0
10, 33390, Note_off_c, 9, 40, 0
10, 33390, Note_off_c, 9, 43, 0
10, 33414, Note_on_c, 9, 40, 38
10, 33414, Note_on_c, 9, 43, 38
10, 33436, Note_off_c, 9, 43, 0
10, 33436, Note_off_c, 9, 40, 0
10, 33508, Note_on_c, 9, 36, 55
10, 33508, Note_on_c, 9, 35, 76
10, 33509, Note_on_c, 9, 41, 59
10, 33509, Note_on_c, 9, 43, 52
10, 33510, Note_on_c, 9, 40, 59
10, 33510, Note_on_c, 9, 43, 59
10, 33527, Note_off_c, 9, 43, 0
10, 33528, Note_off_c, 9, 35, 0
10, 33528, Note_off_c, 9, 36, 0
10, 33534, Note_off_c, 9, 41, 0
10, 33536, Note_off_c, 9, 40, 0
10, 33536, Note_off_c, 9, 43, 0
10, 33604, Note_on_c, 9, 36, 55
10, 33604, Note_on_c, 9, 35, 76
10, 33605, Note_on_c, 9, 43, 52
10, 33606, Note_on_c, 9, 40, 59
10, 33606, Note_on_c, 9, 43, 59
10, 33607, Note_on_c, 9, 41, 59
10, 33626, Note_off_c, 9, 43, 0
10, 33629, Note_off_c, 9, 35, 0
10, 33630, Note_off_c, 9, 36, 0
10, 33632, Note_off_c, 9, 40, 0
10, 33632, Note_off_c, 9, 43, 0
10, 33632, Note_off_c, 9, 41, 0
10, 33707, Note_on_c, 9, 45, 59
10, 33712, Note_on_c, 9, 47, 59
10, 33724, Note_off_c, 9, 47, 0
10, 33730, Note_off_c, 9, 45, 0
10, 33753, Note_on_c, 9, 45, 68
10, 33760, Note_on_c, 9, 43, 68
10, 33769, Note_off_c, 9, 45, 0
10, 33778, Note_off_c, 9, 43, 0
10, 33796, Note_on_c, 9, 35, 76
10, 33796, Note_on_c, 9, 36, 55
10, 33797, Note_on_c, 9, 43, 57
10, 33797, Note_on_c, 9, 40, 59
10, 33797, Note_on_c, 9, 43, 59
10, 33799, Note_on_c, 9, 41, 57
10, 33819, Note_off_c, 9, 43, 0
10, 33820, Note_off_c, 9, 36, 0
10, 33821, Note_off_c, 9, 35, 0
10, 33824, Note_off_c, 9, 41, 0
10, 33827, Note_off_c, 9, 40, 0
10, 33827, Note_off_c, 9, 43, 0
10, 33941, Note_on_c, 9, 41, 60
10, 33942, Note_on_c, 9, 43, 54
10, 33943, Note_on_c, 9, 40, 59
10, 33943, Note_on_c, 9, 43, 59
10, 33963, Note_off_c, 9, 43, 0
10, 33964, Note_off_c, 9, 41, 0
10, 33968, Note_off_c, 9, 40, 0
10, 33968, Note_off_c, 9, 43, 0
10, 33990, Note_on_c, 9, 40, 38
10, 33990, Note_on_c, 9, 43, 38
10, 34010, Note_off_c, 9, 43, 0
10, 34010, Note_off_c, 9, 40, 0
10, 34084, Note_on_c, 9, 36, 55
10, 34084, Note_on_c, 9, 35, 76
10, 34086, Note_on_c, 9, 40, 55
10, 34086, Note_on_c, 9, 43, 55
10, 34102, Note_off_c, 9, 35, 0
10, 34104, Note_off_c, 9, 36, 0
10, 34109, Note_off_c, 9, 40, 0
10, 34109, Note_off_c, 9, 43, 0
10, 34180, Note_on_c, 9, 36, 55
10, 34180, Note_on_c, 9, 35, 76
10, 34181, Note_on_c, 9, 40, 60
10, 34181, Note_on_c, 9, 43, 60
10, 34182, Note_on_c, 9, 43, 59
10, 34182, Note_on_c, 9, 41, 60
10, 34203, Note_off_c, 9, 43, 0
10, 34206, Note_off_c, 9, 40, 0
10, 34206, Note_off_c, 9, 43, 0
10, 34206, Note_off_c, 9, 41, 0
10, 34208, Note_off_c, 9, 35, 0
10, 34208, Note_off_c, 9, 36, 0
10, 34326, Note_on_c, 9, 43, 55
10, 34326, Note_on_c, 9, 41, 60
10, 34327, Note_on_c, 9, 40, 64
10, 34327, Note_on_c, 9, 43, 64
10, 34346, Note_off_c, 9, 43, 0
10, 34350, Note_off_c, 9, 40, 0
10, 34350, Note_off_c, 9, 43, 0
10, 34351, Note_off_c, 9, 41, 0
10, 34374, Note_on_c, 9, 40, 34
10, 34374, Note_on_c, 9, 43, 34
10, 34390, Note_off_c, 9, 43, 0
10, 34390, Note_off_c, 9, 40, 0
10, 34468, Note_on_c, 9, 36, 55
10, 34468, Note_on_c, 9, 35, 76
10, 34470, Note_on_c, 9, 40, 57
10, 34470, Note_on_c, 9, 43, 57
10, 34483, Note_off_c, 9, 35, 0
10, 34484, Note_off_c, 9, 36, 0
10, 34493, Note_off_c, 9, 40, 0
10, 34493, Note_off_c, 9, 43, 0
10, 34564, Note_on_c, 9, 36, 55
10, 34564, Note_on_c, 9, 35, 76
10, 34565, Note_on_c, 9, 40, 57
10, 34565, Note_on_c, 9, 43, 57
10, 34566, Note_on_c, 9, 41, 64
10, 34566, Note_on_c, 9, 43, 54
10, 34588, Note_off_c, 9, 43, 0
10, 34588, Note_off_c, 9, 35, 0
10, 34588, Note_off_c, 9, 36, 0
10, 34590, Note_off_c, 9, 40, 0
10, 34590, Note_off_c, 9, 41, 0
10, 34590, Note_off_c, 9, 43, 0
10, 34710, Note_on_c, 9, 40, 54
10, 34710, Note_on_c, 9, 43, 54
10, 34710, Note_on_c, 9, 43, 52
10, 34711, Note_on_c, 9, 41, 57
10, 34731, Note_off_c, 9, 43, 0
10, 34734, Note_off_c, 9, 40, 0
10, 34734, Note_off_c, 9, 43, 0
10, 34734, Note_off_c, 9, 41, 0
10, 34758, Note_on_c, 9, 40, 38
10, 34758, Note_on_c, 9, 43, 38
10, 34777, Note_off_c, 9, 43, 0
10, 34777, Note_off_c, 9, 40, 0
10, 34852, Note_on_c, 9, 35, 76
10, 34852, Note_on_c, 9, 36, 55
10, 34853, Note_on_c, 9, 40, 53
10, 34853, Note_on_c, 9, 43, 53
10, 34868, Note_off_c, 9, 36, 0
10, 34869, Note_off_c, 9, 35, 0
10, 34877, Note_off_c, 9, 40, 0
10, 34877, Note_off_c, 9, 43, 0
10, 34948, Note_on_c, 9, 35, 76
10, 34948, Note_on_c, 9, 36, 55
10, 34950, Note_on_c, 9, 40, 62
10, 34950, Note_on_c, 9, 43, 62
10, 34950, Note_on_c, 9, 41, 62
10, 34951, Note_on_c, 9, 43, 59
10, 34973, Note_off_c, 9, 43, 0
10, 34973, Note_off_c, 9, 40, 0
10, 34975, Note_off_c, 9, 41, 0
10, 34975, Note_off_c, 9, 43, 0
10, 34976, Note_off_c, 9, 36, 0
10, 34977, Note_off_c, 9, 35, 0
10, 35047, Note_on_c, 9, 40, 62
10, 35047, Note_on_c, 9, 43, 62
10, 35068, Note_off_c, 9, 43, 0
10, 35068, Note_off_c, 9, 40, 0
10, 35094, Note_on_c, 9, 40, 51
10, 35094, Note_on_c, 9, 43, 51
10, 35116, Note_off_c, 9, 43, 0
10, 35116, Note_off_c, 9, 40, 0
10, 35140, Note_on_c, 9, 36, 55
10, 35140, Note_on_c, 9, 35, 76
10, 35142, Note_on_c, 9, 45, 60
10, 35162, Note_off_c, 9, 35, 0
10, 35162, Note_off_c, 9, 36, 0
10, 35164, Note_off_c, 9, 45, 0
10, 35191, Note_on_c, 9, 45, 60
10, 35213, Note_off_c, 9, 45, 0
10, 35238, Note_on_c, 9, 43, 53
10, 35264, Note_off_c, 9, 43, 0
10, 35283, Note_on_c, 9, 43, 47
10, 35310, Note_off_c, 9, 43, 0
10, 35332, Note_on_c, 9, 35, 66
10, 35332, Note_on_c, 9, 36, 48
10, 35356, Note_off_c, 9, 36, 0
10, 35357, Note_off_c, 9, 35, 0
10, 36100, Note_on_c, 9, 35, 66
10, 36100, Note_on_c, 9, 36, 48
10, 36124, Note_off_c, 9, 36, 0
10, 36125, Note_off_c, 9, 35, 0
10, 36868, Note_on_c, 9, 35, 66
10, 36868, Note_on_c, 9, 36, 48
10, 36892, Note_off_c, 9, 36, 0
10, 36893, Note_off_c, 9, 35, 0
10, 37252, Note_on_c, 9, 35, 66
10, 37252, Note_on_c, 9, 36, 48
10, 37276, Note_off_c, 9, 36, 0
10, 37277, Note_off_c, 9, 35, 0
10, 37636, Note_on_c, 9, 35, 66
10, 37636, Note_on_c, 9, 36, 48
10, 37660, Note_off_c, 9, 36, 0
10, 37661, Note_off_c, 9, 35, 0
10, 38020, Note_on_c, 9, 35, 66
10, 38020, Note_on_c, 9, 36, 48
10, 38044, Note_off_c, 9, 36, 0
10, 38045, Note_off_c, 9, 35, 0
10, 38691, Note_on_c, 9, 40, 10
10, 38691, Note_on_c, 9, 43, 6
10, 38691, Note_on_c, 9, 41, 12
10, 38698, Note_off_c, 9, 41, 0
10, 38698, Note_off_c, 9, 43, 0
10, 38698, Note_off_c, 9, 40, 0
10, 38699, Note_on_c, 9, 40, 13
10, 38699, Note_on_c, 9, 43, 8
10, 38699, Note_on_c, 9, 41, 16
10, 38706, Note_off_c, 9, 41, 0
10, 38706, Note_off_c, 9, 43, 0
10, 38706, Note_off_c, 9, 40, 0
10, 38708, Note_on_c, 9, 40, 17
10, 38708, Note_on_c, 9, 43, 11
10, 38708, Note_on_c, 9, 41, 21
10, 38716, Note_off_c, 9, 41, 0
10, 38716, Note_off_c, 9, 43, 0
10, 38716, Note_off_c, 9, 40, 0
10, 38718, Note_on_c, 9, 40, 20
10, 38718, Note_on_c, 9, 43, 13
10, 38718, Note_on_c, 9, 41, 25
10, 38726, Note_off_c, 9, 41, 0
10, 38726, Note_off_c, 9, 43, 0
10, 38726, Note_off_c, 9, 40, 0
10, 38728, Note_on_c, 9, 40, 23
10, 38728, Note_on_c, 9, 43, 15
10, 38728, Note_on_c, 9, 41, 29
10, 38736, Note_off_c, 9, 41, 0
10, 38736, Note_off_c, 9, 43, 0
10, 38736, Note_off_c, 9, 40, 0
10, 38738, Note_on_c, 9, 40, 27
10, 38738, Note_on_c, 9, 43, 18
10, 38738, Note_on_c, 9, 41, 34
10, 38746, Note_off_c, 9, 41, 0
10, 38746, Note_off_c, 9, 43, 0
10, 38746, Note_off_c, 9, 40, 0
10, 38748, Note_on_c, 9, 40, 32
10, 38748, Note_on_c, 9, 43, 21
10, 38748, Note_on_c, 9, 41, 41
10, 38756, Note_off_c, 9, 41, 0
10, 38756, Note_off_c, 9, 43, 0
10, 38756, Note_off_c, 9, 40, 0
10, 38758, Note_on_c, 9, 40, 37
10, 38758, Note_on_c, 9, 43, 25
10, 38758, Note_on_c, 9, 41, 46
10, 38766, Note_off_c, 9, 41, 0
10, 38766, Note_off_c, 9, 43, 0
10, 38766, Note_off_c, 9, 40, 0
10, 38768, Note_on_c, 9, 40, 46
10, 38768, Note_on_c, 9, 43, 30
10, 38768, Note_on_c, 9, 41, 57
10, 38776, Note_off_c, 9, 41, 0
10, 38776, Note_off_c, 9, 43, 0
10, 38776, Note_off_c, 9, 40, 0
10, 38778, Note_on_c, 9, 40, 55
10, 38778, Note_on_c, 9, 43, 37
10, 38778, Note_on_c, 9, 41, 69
10, 38786, Note_off_c, 9, 41, 0
10, 38786, Note_off_c, 9, 43, 0
10, 38786, Note_off_c, 9, 40, 0
10, 38788, Note_on_c, 9, 36, 55
10, 38788, Note_on_c, 9, 35, 76
10, 38789, Note_on_c, 9, 41, 64
10, 38790, Note_on_c, 9, 43, 40
10, 38790, Note_on_c, 9, 57, 56
10, 38790, Note_on_c, 9, 78, 56
10, 38790, Note_on_c, 9, 40, 60
10, 38814, Note_off_c, 9, 40, 0
10, 38815, Note_off_c, 9, 41, 0
10, 38817, Note_off_c, 9, 57, 0
10, 38817, Note_off_c, 9, 78, 0
10, 38818, Note_off_c, 9, 43, 0
10, 38830, Note_off_c, 9, 36, 0
10, 38834, Note_off_c, 9, 35, 0
10, 38836, Note_on_c, 9, 70, 61
10, 38875, Note_off_c, 9, 70, 0
10, 38884, Note_on_c, 9, 42, 85
10, 38918, Note_off_c, 9, 42, 0
10, 38932, Note_on_c, 9, 70, 61
10, 38956, Note_off_c, 9, 70, 0
10, 38980, Note_on_c, 9, 40, 116
10, 38980, Note_on_c, 9, 41, 73
10, 39030, Note_off_c, 9, 41, 0
10, 39030, Note_off_c, 9, 40, 0
10, 39076, Note_on_c, 9, 36, 68
10, 39076, Note_on_c, 9, 35, 77
10, 39102, Note_off_c, 9, 35, 0
10, 39102, Note_off_c, 9, 36, 0
10, 39172, Note_on_c, 9, 36, 82
10, 39172, Note_on_c, 9, 35, 93
10, 39205, Note_off_c, 9, 35, 0
10, 39205, Note_off_c, 9, 36, 0
10, 39220, Note_on_c, 9, 70, 61
10, 39253, Note_off_c, 9, 70, 0
10, 39268, Note_on_c, 9, 42, 85
10, 39305, Note_off_c, 9, 42, 0
10, 39316, Note_on_c, 9, 70, 61
10, 39342, Note_off_c, 9, 70, 0
10, 39364, Note_on_c, 9, 40, 116
10, 39364, Note_on_c, 9, 41, 73
10, 39396, Note_off_c, 9, 41, 0
10, 39396, Note_off_c, 9, 40, 0
10, 39460, Note_on_c, 9, 42, 64
10, 39489, Note_off_c, 9, 42, 0
10, 39556, Note_on_c, 9, 36, 82
10, 39556, Note_on_c, 9, 35, 93
10, 39604, Note_on_c, 9, 70, 61
10, 39608, Note_off_c, 9, 35, 0
10, 39608, Note_off_c, 9, 36, 0
10, 39634, Note_off_c, 9, 70, 0
10, 39652, Note_on_c, 9, 42, 85
10, 39684, Note_off_c, 9, 42, 0
10, 39700, Note_on_c, 9, 70, 61
10, 39722, Note_off_c, 9, 70, 0
10, 39748, Note_on_c, 9, 40, 116
10, 39748, Note_on_c, 9, 41, 73
10, 39798, Note_off_c, 9, 41, 0
10, 39798, Note_off_c, 9, 40, 0
10, 39844, Note_on_c, 9, 36, 68
10, 39844, Note_on_c, 9, 35, 77
10, 39870, Note_off_c, 9, 35, 0
10, 39870, Note_off_c, 9, 36, 0
10, 39940, Note_on_c, 9, 36, 82
10, 39940, Note_on_c, 9, 35, 93
10, 39973, Note_off_c, 9, 35, 0
10, 39973, Note_off_c, 9, 36, 0
10, 39988, Note_on_c, 9, 70, 61
10, 40021, Note_off_c, 9, 70, 0
10, 40036, Note_on_c, 9, 42, 85
10, 40070, Note_off_c, 9, 42, 0
10, 40084, Note_on_c, 9, 70, 61
10, 40108, Note_off_c, 9, 70, 0
10, 40132, Note_on_c, 9, 40, 116
10, 40132, Note_on_c, 9, 41, 73
10, 40164, Note_off_c, 9, 41, 0
10, 40164, Note_off_c, 9, 40, 0
10, 40228, Note_on_c, 9, 42, 64
10, 40257, Note_off_c, 9, 42, 0
10, 40324, Note_on_c, 9, 36, 82
10, 40324, Note_on_c, 9, 35, 93
10, 40372, Note_on_c, 9, 70, 61
10, 40376, Note_off_c, 9, 35, 0
10, 40376, Note_off_c, 9, 36, 0
10, 40400, Note_off_c, 9, 70, 0
10, 40420, Note_on_c, 9, 42, 85
10, 40453, Note_off_c, 9, 42, 0
10, 40468, Note_on_c, 9, 70, 61
10, 40492, Note_off_c, 9, 70, 0
10, 40516, Note_on_c, 9, 40, 116
10, 40516, Note_on_c, 9, 41, 73
10, 40566, Note_off_c, 9, 41, 0
10, 40566, Note_off_c, 9, 40, 0
10, 40612, Note_on_c, 9, 36, 68
10, 40612, Note_on_c, 9, 35, 77
10, 40638, Note_off_c, 9, 35, 0
10, 40638, Note_off_c, 9, 36, 0
10, 40708, Note_on_c, 9, 36, 82
10, 40708, Note_on_c, 9, 35, 93
10, 40741, Note_off_c, 9, 35, 0
10, 40741, Note_off_c, 9, 36, 0
10, 40756, Note_on_c, 9, 70, 61
10, 40786, Note_off_c, 9, 70, 0
10, 40804, Note_on_c, 9, 42, 85
10, 40835, Note_off_c, 9, 42, 0
10, 40852, Note_on_c, 9, 70, 61
10, 40874, Note_off_c, 9, 70, 0
10, 40900, Note_on_c, 9, 40, 116
10, 40900, Note_on_c, 9, 41, 73
10, 40932, Note_off_c, 9, 41, 0
10, 40932, Note_off_c, 9, 40, 0
10, 40996, Note_on_c, 9, 42, 64
10, 41023, Note_off_c, 9, 42, 0
10, 41092, Note_on_c, 9, 36, 82
10, 41092, Note_on_c, 9, 35, 93
10, 41140, Note_on_c, 9, 70, 61
10, 41144, Note_off_c, 9, 35, 0
10, 41144, Note_off_c, 9, 36, 0
10, 41162, Note_off_c, 9, 70, 0
10, 41188, Note_on_c, 9, 42, 85
10, 41215, Note_off_c, 9, 42, 0
10, 41236, Note_on_c, 9, 70, 61
10, 41256, Note_off_c, 9, 70, 0
10, 41284, Note_on_c, 9, 40, 116
10, 41284, Note_on_c, 9, 41, 73
10, 41334, Note_off_c, 9, 41, 0
10, 41334, Note_off_c, 9, 40, 0
10, 41380, Note_on_c, 9, 36, 68
10, 41380, Note_on_c, 9, 35, 77
10, 41406, Note_off_c, 9, 35, 0
10, 41406, Note_off_c, 9, 36, 0
10, 41476, Note_on_c, 9, 36, 82
10, 41476, Note_on_c, 9, 35, 93
10, 41509, Note_off_c, 9, 35, 0
10, 41509, Note_off_c, 9, 36, 0
10, 41524, Note_on_c, 9, 70, 61
10, 41548, Note_off_c, 9, 70, 0
10, 41572, Note_on_c, 9, 42, 78
10, 41603, Note_off_c, 9, 42, 0
10, 41620, Note_on_c, 9, 70, 61
10, 41620, Note_on_c, 9, 40, 116
10, 41620, Note_on_c, 9, 41, 73
10, 41641, Note_off_c, 9, 70, 0
10, 41652, Note_off_c, 9, 40, 0
10, 41652, Note_off_c, 9, 41, 0
10, 41764, Note_on_c, 9, 42, 64
10, 41764, Note_on_c, 9, 40, 82
10, 41764, Note_on_c, 9, 41, 51
10, 41790, Note_off_c, 9, 42, 0
10, 41796, Note_off_c, 9, 40, 0
10, 41796, Note_off_c, 9, 41, 0
10, 41860, Note_on_c, 9, 36, 82
10, 41860, Note_on_c, 9, 57, 55
10, 41860, Note_on_c, 9, 35, 93
10, 41908, Note_on_c, 9, 70, 61
10, 41912, Note_off_c, 9, 35, 0
10, 41912, Note_off_c, 9, 57, 0
10, 41912, Note_off_c, 9, 36, 0
10, 41947, Note_off_c, 9, 70, 0
10, 41956, Note_on_c, 9, 42, 85
10, 41990, Note_off_c, 9, 42, 0
10, 42004, Note_on_c, 9, 70, 61
10, 42028, Note_off_c, 9, 70, 0
10, 42052, Note_on_c, 9, 40, 116
10, 42052, Note_on_c, 9, 41, 73
10, 42102, Note_off_c, 9, 41, 0
10, 42102, Note_off_c, 9, 40, 0
10, 42148, Note_on_c, 9, 36, 68
10, 42148, Note_on_c, 9, 35, 77
10, 42174, Note_off_c, 9, 35, 0
10, 42174, Note_off_c, 9, 36, 0
10, 42244, Note_on_c, 9, 36, 82
10, 42244, Note_on_c, 9, 35, 93
10, 42277, Note_off_c, 9, 35, 0
10, 42277, Note_off_c, 9, 36, 0
10, 42292, Note_on_c, 9, 70, 61
10, 42325, Note_off_c, 9, 70, 0
10, 42340, Note_on_c, 9, 42, 85
10, 42377, Note_off_c, 9, 42, 0
10, 42388, Note_on_c, 9, 70, 61
10, 42414, Note_off_c, 9, 70, 0
10, 42436, Note_on_c, 9, 40, 116
10, 42436, Note_on_c, 9, 41, 73
10, 42468, Note_off_c, 9, 41, 0
10, 42468, Note_off_c, 9, 40, 0
10, 42532, Note_on_c, 9, 42, 64
10, 42561, Note_off_c, 9, 42, 0
10, 42628, Note_on_c, 9, 36, 82
10, 42628, Note_on_c, 9, 35, 93
10, 42676, Note_on_c, 9, 70, 61
10, 42680, Note_off_c, 9, 35, 0
10, 42680, Note_off_c, 9, 36, 0
10, 42706, Note_off_c, 9, 70, 0
10, 42724, Note_on_c, 9, 42, 85
10, 42756, Note_off_c, 9, 42, 0
10, 42772, Note_on_c, 9, 70, 61
10, 42794, Note_off_c, 9, 70, 0
10, 42820, Note_on_c, 9, 40, 116
10, 42820, Note_on_c, 9, 41, 73
10, 42870, Note_off_c, 9, 41, 0
10, 42870, Note_off_c, 9, 40, 0
10, 42916, Note_on_c, 9, 36, 68
10, 42916, Note_on_c, 9, 35, 77
10, 42942, Note_off_c, 9, 35, 0
10, 42942, Note_off_c, 9, 36, 0
10, 43012, Note_on_c, 9, 36, 82
10, 43012, Note_on_c, 9, 35, 93
10, 43045, Note_off_c, 9, 35, 0
10, 43045, Note_off_c, 9, 36, 0
10, 43060, Note_on_c, 9, 70, 61
10, 43093, Note_off_c, 9, 70, 0
10, 43108, Note_on_c, 9, 42, 85
10, 43142, Note_off_c, 9, 42, 0
10, 43156, Note_on_c, 9, 70, 61
10, 43180, Note_off_c, 9, 70, 0
10, 43204, Note_on_c, 9, 40, 116
10, 43204, Note_on_c, 9, 41, 73
10, 43236, Note_off_c, 9, 41, 0
10, 43236, Note_off_c, 9, 40, 0
10, 43300, Note_on_c, 9, 42, 64
10, 43329, Note_off_c, 9, 42, 0
10, 43396, Note_on_c, 9, 36, 82
10, 43396, Note_on_c, 9, 35, 93
10, 43444, Note_on_c, 9, 70, 61
10, 43448, Note_off_c, 9, 35, 0
10, 43448, Note_off_c, 9, 36, 0
10, 43472, Note_off_c, 9, 70, 0
10, 43492, Note_on_c, 9, 42, 85
10, 43525, Note_off_c, 9, 42, 0
10, 43540, Note_on_c, 9, 70, 61
10, 43564, Note_off_c, 9, 70, 0
10, 43588, Note_on_c, 9, 40, 116
10, 43588, Note_on_c, 9, 41, 73
10, 43638, Note_off_c, 9, 41, 0
10, 43638, Note_off_c, 9, 40, 0
10, 43684, Note_on_c, 9, 36, 68
10, 43684, Note_on_c, 9, 35, 77
10, 43710, Note_off_c, 9, 35, 0
10, 43710, Note_off_c, 9, 36, 0
10, 43780, Note_on_c, 9, 36, 82
10, 43780, Note_on_c, 9, 35, 93
10, 43813, Note_off_c, 9, 35, 0
10, 43813, Note_off_c, 9, 36, 0
10, 43828, Note_on_c, 9, 70, 61
10, 43858, Note_off_c, 9, 70, 0
10, 43876, Note_on_c, 9, 42, 85
10, 43907, Note_off_c, 9, 42, 0
10, 43924, Note_on_c, 9, 70, 61
10, 43946, Note_off_c, 9, 70, 0
10, 43972, Note_on_c, 9, 40, 116
10, 43972, Note_on_c, 9, 41, 73
10, 44004, Note_off_c, 9, 41, 0
10, 44004, Note_off_c, 9, 40, 0
10, 44068, Note_on_c, 9, 42, 64
10, 44097, Note_off_c, 9, 42, 0
10, 44164, Note_on_c, 9, 36, 82
10, 44164, Note_on_c, 9, 57, 54
10, 44164, Note_on_c, 9, 35, 93
10, 44212, Note_on_c, 9, 70, 61
10, 44216, Note_off_c, 9, 35, 0
10, 44216, Note_off_c, 9, 57, 0
10, 44216, Note_off_c, 9, 36, 0
10, 44251, Note_off_c, 9, 70, 0
10, 44260, Note_on_c, 9, 42, 85
10, 44294, Note_off_c, 9, 42, 0
10, 44308, Note_on_c, 9, 70, 61
10, 44332, Note_off_c, 9, 70, 0
10, 44356, Note_on_c, 9, 40, 116
10, 44356, Note_on_c, 9, 41, 73
10, 44406, Note_off_c, 9, 41, 0
10, 44406, Note_off_c, 9, 40, 0
10, 44452, Note_on_c, 9, 36, 68
10, 44452, Note_on_c, 9, 35, 77
10, 44478, Note_off_c, 9, 35, 0
10, 44478, Note_off_c, 9, 36, 0
10, 44548, Note_on_c, 9, 36, 92
10, 44548, Note_on_c, 9, 57, 56
10, 44548, Note_on_c, 9, 35, 106
10, 44551, Note_on_c, 9, 40, 101
10, 44551, Note_on_c, 9, 41, 64
10, 44581, Note_off_c, 9, 35, 0
10, 44581, Note_off_c, 9, 57, 0
10, 44581, Note_off_c, 9, 36, 0
10, 44583, Note_off_c, 9, 40, 0
10, 44583, Note_off_c, 9, 41, 0
10, 44596, Note_on_c, 9, 70, 61
10, 44629, Note_off_c, 9, 70, 0
10, 44644, Note_on_c, 9, 42, 81
10, 44681, Note_off_c, 9, 42, 0
10, 44692, Note_on_c, 9, 70, 61
10, 44718, Note_off_c, 9, 70, 0
10, 44740, Note_on_c, 9, 40, 101
10, 44740, Note_on_c, 9, 41, 64
10, 44740, Note_on_c, 9, 36, 82
10, 44740, Note_on_c, 9, 57, 49
10, 44740, Note_on_c, 9, 35, 93
10, 44772, Note_off_c, 9, 41, 0
10, 44772, Note_off_c, 9, 40, 0
10, 44773, Note_off_c, 9, 36, 0
10, 44773, Note_off_c, 9, 57, 0
10, 44773, Note_off_c, 9, 35, 0
10, 44834, Note_on_c, 9, 40, 10
10, 44834, Note_on_c, 9, 43, 6
10, 44834, Note_on_c, 9, 41, 12
10, 44842, Note_off_c, 9, 41, 0
10, 44842, Note_off_c, 9, 43, 0
10, 44842, Note_off_c, 9, 40, 0
10, 44842, Note_on_c, 9, 40, 13
10, 44842, Note_on_c, 9, 43, 8
10, 44842, Note_on_c, 9, 41, 16
10, 44850, Note_off_c, 9, 41, 0
10, 44850, Note_off_c, 9, 43, 0
10, 44850, Note_off_c, 9, 40, 0
10, 44852, Note_on_c, 9, 40, 17
10, 44852, Note_on_c, 9, 43, 11
10, 44852, Note_on_c, 9, 41, 21
10, 44860, Note_off_c, 9, 41, 0
10, 44860, Note_off_c, 9, 43, 0
10, 44860, Note_off_c, 9, 40, 0
10, 44862, Note_on_c, 9, 40, 20
10, 44862, Note_on_c, 9, 43, 13
10, 44862, Note_on_c, 9, 41, 25
10, 44870, Note_off_c, 9, 41, 0
10, 44870, Note_off_c, 9, 43, 0
10, 44870, Note_off_c, 9, 40, 0
10, 44872, Note_on_c, 9, 40, 23
10, 44872, Note_on_c, 9, 43, 15
10, 44872, Note_on_c, 9, 41, 29
10, 44880, Note_off_c, 9, 41, 0
10, 44880, Note_off_c, 9, 43, 0
10, 44880, Note_off_c, 9, 40, 0
10, 44882, Note_on_c, 9, 40, 27
10, 44882, Note_on_c, 9, 43, 18
10, 44882, Note_on_c, 9, 41, 34
10, 44890, Note_off_c, 9, 41, 0
10, 44890, Note_off_c, 9, 43, 0
10, 44890, Note_off_c, 9, 40, 0
10, 44892, Note_on_c, 9, 40, 32
10, 44892, Note_on_c, 9, 43, 21
10, 44892, Note_on_c, 9, 41, 41
10, 44900, Note_off_c, 9, 41, 0
10, 44900, Note_off_c, 9, 43, 0
10, 44900, Note_off_c, 9, 40, 0
10, 44902, Note_on_c, 9, 40, 37
10, 44902, Note_on_c, 9, 43, 25
10, 44902, Note_on_c, 9, 41, 46
10, 44910, Note_off_c, 9, 41, 0
10, 44910, Note_off_c, 9, 43, 0
10, 44910, Note_off_c, 9, 40, 0
10, 44912, Note_on_c, 9, 40, 46
10, 44912, Note_on_c, 9, 43, 30
10, 44912, Note_on_c, 9, 41, 57
10, 44920, Note_off_c, 9, 41, 0
10, 44920, Note_off_c, 9, 43, 0
10, 44920, Note_off_c, 9, 40, 0
10, 44922, Note_on_c, 9, 40, 55
10, 44922, Note_on_c, 9, 43, 37
10, 44922, Note_on_c, 9, 41, 69
10, 44929, Note_off_c, 9, 41, 0
10, 44929, Note_off_c, 9, 43, 0
10, 44929, Note_off_c, 9, 40, 0
10, 44932, Note_on_c, 9, 36, 82
10, 44932, Note_on_c, 9, 57, 66
10, 44932, Note_on_c, 9, 35, 93
10, 44980, Note_on_c, 9, 70, 61
10, 44984, Note_off_c, 9, 35, 0
10, 44984, Note_off_c, 9, 57, 0
10, 44984, Note_off_c, 9, 36, 0
10, 45019, Note_off_c, 9, 70, 0
10, 45028, Note_on_c, 9, 42, 85
10, 45062, Note_off_c, 9, 42, 0
10, 45076, Note_on_c, 9, 70, 61
10, 45100, Note_off_c, 9, 70, 0
10, 45124, Note_on_c, 9, 40, 116
10, 45124, Note_on_c, 9, 41, 73
10, 45174, Note_off_c, 9, 41, 0
10, 45174, Note_off_c, 9, 40, 0
10, 45220, Note_on_c, 9, 36, 68
10, 45220, Note_on_c, 9, 35, 77
10, 45246, Note_off_c, 9, 35, 0
10, 45246, Note_off_c, 9, 36, 0
10, 45316, Note_on_c, 9, 36, 82
10, 45316, Note_on_c, 9, 35, 93
10, 45349, Note_off_c, 9, 35, 0
10, 45349, Note_off_c, 9, 36, 0
10, 45364, Note_on_c, 9, 70, 61
10, 45397, Note_off_c, 9, 70, 0
10, 45412, Note_on_c, 9, 42, 85
10, 45412, Note_on_c, 9, 40, 93
10, 45412, Note_on_c, 9, 41, 59
10, 45444, Note_off_c, 9, 41, 0
10, 45444, Note_off_c, 9, 40, 0
10, 45449, Note_off_c, 9, 42, 0
10, 45460, Note_on_c, 9, 70, 61
10, 45486, Note_off_c, 9, 70, 0
10, 45508, Note_on_c, 9, 40, 116
10, 45508, Note_on_c, 9, 41, 73
10, 45540, Note_off_c, 9, 41, 0
10, 45540, Note_off_c, 9, 40, 0
10, 45604, Note_on_c, 9, 42, 64
10, 45633, Note_off_c, 9, 42, 0
10, 45700, Note_on_c, 9, 36, 82
10, 45700, Note_on_c, 9, 35, 93
10, 45748, Note_on_c, 9, 70, 61
10, 45752, Note_off_c, 9, 35, 0
10, 45752, Note_off_c, 9, 36, 0
10, 45778, Note_off_c, 9, 70, 0
10, 45796, Note_on_c, 9, 42, 85
10, 45796, Note_on_c, 9, 40, 93
10, 45796, Note_on_c, 9, 41, 59
10, 45828, Note_off_c, 9, 42, 0
10, 45844, Note_on_c, 9, 70, 61
10, 45846, Note_off_c, 9, 40, 0
10, 45846, Note_off_c, 9, 41, 0
10, 45866, Note_off_c, 9, 70, 0
10, 45892, Note_on_c, 9, 40, 116
10, 45892, Note_on_c, 9, 41, 73
10, 45942, Note_off_c, 9, 41, 0
10, 45942, Note_off_c, 9, 40, 0
10, 45988, Note_on_c, 9, 36, 68
10, 45988, Note_on_c, 9, 35, 77
10, 46014, Note_off_c, 9, 35, 0
10, 46014, Note_off_c, 9, 36, 0
10, 46084, Note_on_c, 9, 36, 82
10, 46084, Note_on_c, 9, 35, 93
10, 46117, Note_off_c, 9, 35, 0
10, 46117, Note_off_c, 9, 36, 0
10, 46132, Note_on_c, 9, 70, 61
10, 46165, Note_off_c, 9, 70, 0
10, 46180, Note_on_c, 9, 42, 85
10, 46180, Note_on_c, 9, 40, 93
10, 46180, Note_on_c, 9, 41, 59
10, 46212, Note_off_c, 9, 41, 0
10, 46212, Note_off_c, 9, 40, 0
10, 46214, Note_off_c, 9, 42, 0
10, 46228, Note_on_c, 9, 70, 61
10, 46252, Note_off_c, 9, 70, 0
10, 46276, Note_on_c, 9, 40, 116
10, 46276, Note_on_c, 9, 41, 73
10, 46308, Note_off_c, 9, 41, 0
10, 46308, Note_off_c, 9, 40, 0
10, 46372, Note_on_c, 9, 42, 64
10, 46401, Note_off_c, 9, 42, 0
10, 46468, Note_on_c, 9, 36, 82
10, 46468, Note_on_c, 9, 35, 93
10, 46516, Note_on_c, 9, 70, 61
10, 46520, Note_off_c, 9, 35, 0
10, 46520, Note_off_c, 9, 36, 0
10, 46544, Note_off_c, 9, 70, 0
10, 46564, Note_on_c, 9, 42, 85
10, 46597, Note_off_c, 9, 42, 0
10, 46612, Note_on_c, 9, 70, 61
10, 46636, Note_off_c, 9, 70, 0
10, 46660, Note_on_c, 9, 40, 116
10, 46660, Note_on_c, 9, 41, 73
10, 46710, Note_off_c, 9, 41, 0
10, 46710, Note_off_c, 9, 40, 0
10, 46756, Note_on_c, 9, 36, 68
10, 46756, Note_on_c, 9, 35, 77
10, 46782, Note_off_c, 9, 35, 0
10, 46782, Note_off_c, 9, 36, 0
10, 46852, Note_on_c, 9, 36, 82
10, 46852, Note_on_c, 9, 35, 93
10, 46885, Note_off_c, 9, 35, 0
10, 46885, Note_off_c, 9, 36, 0
10, 46900, Note_on_c, 9, 70, 61
10, 46930, Note_off_c, 9, 70, 0
10, 46948, Note_on_c, 9, 42, 85
10, 46948, Note_on_c, 9, 40, 93
10, 46948, Note_on_c, 9, 41, 59
10, 46979, Note_off_c, 9, 42, 0
10, 46980, Note_off_c, 9, 40, 0
10, 46980, Note_off_c, 9, 41, 0
10, 46996, Note_on_c, 9, 70, 61
10, 47018, Note_off_c, 9, 70, 0
10, 47044, Note_on_c, 9, 40, 116
10, 47044, Note_on_c, 9, 41, 73
10, 47076, Note_off_c, 9, 41, 0
10, 47076, Note_off_c, 9, 40, 0
10, 47140, Note_on_c, 9, 42, 64
10, 47167, Note_off_c, 9, 42, 0
10, 47236, Note_on_c, 9, 36, 82
10, 47236, Note_on_c, 9, 35, 93
10, 47284, Note_on_c, 9, 70, 61
10, 47288, Note_off_c, 9, 35, 0
10, 47288, Note_off_c, 9, 36, 0
10, 47306, Note_off_c, 9, 70, 0
10, 47332, Note_on_c, 9, 42, 85
10, 47359, Note_off_c, 9, 42, 0
10, 47380, Note_on_c, 9, 70, 61
10, 47400, Note_off_c, 9, 70, 0
10, 47428, Note_on_c, 9, 40, 116
10, 47428, Note_on_c, 9, 41, 73
10, 47478, Note_off_c, 9, 41, 0
10, 47478, Note_off_c, 9, 40, 0
10, 47524, Note_on_c, 9, 36, 68
10, 47524, Note_on_c, 9, 35, 77
10, 47550, Note_off_c, 9, 35, 0
10, 47550, Note_off_c, 9, 36, 0
10, 47620, Note_on_c, 9, 36, 82
10, 47620, Note_on_c, 9, 35, 93
10, 47653, Note_off_c, 9, 35, 0
10, 47653, Note_off_c, 9, 36, 0
10, 47668, Note_on_c, 9, 70, 61
10, 47692, Note_off_c, 9, 70, 0
10, 47716, Note_on_c, 9, 42, 85
10, 47747, Note_off_c, 9, 42, 0
10, 47764, Note_on_c, 9, 70, 61
10, 47764, Note_on_c, 9, 40, 102
10, 47764, Note_on_c, 9, 41, 64
10, 47785, Note_off_c, 9, 70, 0
10, 47796, Note_off_c, 9, 40, 0
10, 47796, Note_off_c, 9, 41, 0
10, 47812, Note_on_c, 9, 36, 82
10, 47812, Note_on_c, 9, 35, 93
10, 47812, Note_on_c, 9, 40, 116
10, 47812, Note_on_c, 9, 41, 73
10, 47844, Note_off_c, 9, 41, 0
10, 47844, Note_off_c, 9, 40, 0
10, 47845, Note_off_c, 9, 35, 0
10, 47845, Note_off_c, 9, 36, 0
10, 47906, Note_on_c, 9, 40, 10
10, 47906, Note_on_c, 9, 43, 6
10, 47906, Note_on_c, 9, 41, 12
10, 47908, Note_on_c, 9, 42, 64
10, 47914, Note_off_c, 9, 41, 0
10, 47914, Note_off_c, 9, 43, 0
10, 47914, Note_off_c, 9, 40, 0
10, 47914, Note_on_c, 9, 40, 13
10, 47914, Note_on_c, 9, 43, 8
10, 47914, Note_on_c, 9, 41, 16
10, 47922, Note_off_c, 9, 41, 0
10, 47922, Note_off_c, 9, 43, 0
10, 47922, Note_off_c, 9, 40, 0
10, 47924, Note_on_c, 9, 40, 17
10, 47924, Note_on_c, 9, 43, 11
10, 47924, Note_on_c, 9, 41, 21
10, 47932, Note_off_c, 9, 41, 0
10, 47932, Note_off_c, 9, 43, 0
10, 47932, Note_off_c, 9, 40, 0
10, 47934, Note_off_c, 9, 42, 0
10, 47934, Note_on_c, 9, 40, 20
10, 47934, Note_on_c, 9, 43, 13
10, 47934, Note_on_c, 9, 41, 25
10, 47942, Note_off_c, 9, 41, 0
10, 47942, Note_off_c, 9, 43, 0
10, 47942, Note_off_c, 9, 40, 0
10, 47944, Note_on_c, 9, 40, 23
10, 47944, Note_on_c, 9, 43, 15
10, 47944, Note_on_c, 9, 41, 29
10, 47952, Note_off_c, 9, 41, 0
10, 47952, Note_off_c, 9, 43, 0
10, 47952, Note_off_c, 9, 40, 0
10, 47954, Note_on_c, 9, 40, 27
10, 47954, Note_on_c, 9, 43, 18
10, 47954, Note_on_c, 9, 41, 34
10, 47962, Note_off_c, 9, 41, 0
10, 47962, Note_off_c, 9, 43, 0
10, 47962, Note_off_c, 9, 40, 0
10, 47964, Note_on_c, 9, 40, 32
10, 47964, Note_on_c, 9, 43, 21
10, 47964, Note_on_c, 9, 41, 41
10, 47972, Note_off_c, 9, 41, 0
10, 47972, Note_off_c, 9, 43, 0
10, 47972, Note_off_c, 9, 40, 0
10, 47974, Note_on_c, 9, 40, 37
10, 47974, Note_on_c, 9, 43, 25
10, 47974, Note_on_c, 9, 41, 46
10, 47982, Note_off_c, 9, 41, 0
10, 47982, Note_off_c, 9, 43, 0
10, 47982, Note_off_c, 9, 40, 0
10, 47984, Note_on_c, 9, 40, 46
10, 47984, Note_on_c, 9, 43, 30
10, 47984, Note_on_c, 9, 41, 57
10, 47992, Note_off_c, 9, 41, 0
10, 47992, Note_off_c, 9, 43, 0
10, 47992, Note_off_c, 9, 40, 0
10, 47994, Note_on_c, 9, 40, 55
10, 47994, Note_on_c, 9, 43, 37
10, 47994, Note_on_c, 9, 41, 69
10, 48001, Note_off_c, 9, 41, 0
10, 48001, Note_off_c, 9, 43, 0
10, 48001, Note_off_c, 9, 40, 0
10, 48004, Note_on_c, 9, 36, 82
10, 48004, Note_on_c, 9, 57, 62
10, 48004, Note_on_c, 9, 35, 93
10, 48005, Note_on_c, 9, 41, 64
10, 48006, Note_on_c, 9, 40, 60
10, 48029, Note_off_c, 9, 40, 0
10, 48030, Note_off_c, 9, 41, 0
10, 48052, Note_on_c, 9, 70, 61
10, 48056, Note_off_c, 9, 35, 0
10, 48056, Note_off_c, 9, 57, 0
10, 48056, Note_off_c, 9, 36, 0
10, 48091, Note_off_c, 9, 70, 0
10, 48100, Note_on_c, 9, 42, 85
10, 48134, Note_off_c, 9, 42, 0
10, 48148, Note_on_c, 9, 70, 61
10, 48172, Note_off_c, 9, 70, 0
10, 48196, Note_on_c, 9, 40, 116
10, 48196, Note_on_c, 9, 41, 73
10, 48246, Note_off_c, 9, 41, 0
10, 48246, Note_off_c, 9, 40, 0
10, 48292, Note_on_c, 9, 36, 68
10, 48292, Note_on_c, 9, 35, 77
10, 48318, Note_off_c, 9, 35, 0
10, 48318, Note_off_c, 9, 36, 0
10, 48388, Note_on_c, 9, 36, 82
10, 48388, Note_on_c, 9, 35, 93
10, 48421, Note_off_c, 9, 35, 0
10, 48421, Note_off_c, 9, 36, 0
10, 48436, Note_on_c, 9, 70, 61
10, 48469, Note_off_c, 9, 70, 0
10, 48484, Note_on_c, 9, 42, 85
10, 48521, Note_off_c, 9, 42, 0
10, 48532, Note_on_c, 9, 70, 61
10, 48558, Note_off_c, 9, 70, 0
10, 48580, Note_on_c, 9, 40, 116
10, 48580, Note_on_c, 9, 41, 73
10, 48612, Note_off_c, 9, 41, 0
10, 48612, Note_off_c, 9, 40, 0
10, 48676, Note_on_c, 9, 42, 64
10, 48705, Note_off_c, 9, 42, 0
10, 48772, Note_on_c, 9, 36, 82
10, 48772, Note_on_c, 9, 35, 93
10, 48820, Note_on_c, 9, 70, 61
10, 48824, Note_off_c, 9, 35, 0
10, 48824, Note_off_c, 9, 36, 0
10, 48850, Note_off_c, 9, 70, 0
10, 48868, Note_on_c, 9, 42, 85
10, 48900, Note_off_c, 9, 42, 0
10, 48916, Note_on_c, 9, 70, 61
10, 48938, Note_off_c, 9, 70, 0
10, 48964, Note_on_c, 9, 40, 116
10, 48964, Note_on_c, 9, 41, 73
10, 49014, Note_off_c, 9, 41, 0
10, 49014, Note_off_c, 9, 40, 0
10, 49060, Note_on_c, 9, 36, 68
10, 49060, Note_on_c, 9, 35, 77
10, 49086, Note_off_c, 9, 35, 0
10, 49086, Note_off_c, 9, 36, 0
10, 49156, Note_on_c, 9, 36, 82
10, 49156, Note_on_c, 9, 35, 93
10, 49189, Note_off_c, 9, 35, 0
10, 49189, Note_off_c, 9, 36, 0
10, 49204, Note_on_c, 9, 70, 61
10, 49237, Note_off_c, 9, 70, 0
10, 49252, Note_on_c, 9, 42, 85
10, 49286, Note_off_c, 9, 42, 0
10, 49300, Note_on_c, 9, 70, 61
10, 49324, Note_off_c, 9, 70, 0
10, 49348, Note_on_c, 9, 40, 116
10, 49348, Note_on_c, 9, 41, 73
10, 49380, Note_off_c, 9, 41, 0
10, 49380, Note_off_c, 9, 40, 0
10, 49444, Note_on_c, 9, 42, 64
10, 49473, Note_off_c, 9, 42, 0
10, 49540, Note_on_c, 9, 36, 82
10, 49540, Note_on_c, 9, 35, 93
10, 49588, Note_on_c, 9, 70, 61
10, 49592, Note_off_c, 9, 35, 0
10, 49592, Note_off_c, 9, 36, 0
10, 49616, Note_off_c, 9, 70, 0
10, 49636, Note_on_c, 9, 42, 85
10, 49669, Note_off_c, 9, 42, 0
10, 49684, Note_on_c, 9, 70, 61
10, 49708, Note_off_c, 9, 70, 0
10, 49732, Note_on_c, 9, 40, 116
10, 49732, Note_on_c, 9, 41, 73
10, 49782, Note_off_c, 9, 41, 0
10, 49782, Note_off_c, 9, 40, 0
10, 49828, Note_on_c, 9, 36, 68
10, 49828, Note_on_c, 9, 35, 77
10, 49854, Note_off_c, 9, 35, 0
10, 49854, Note_off_c, 9, 36, 0
10, 49924, Note_on_c, 9, 36, 82
10, 49924, Note_on_c, 9, 35, 93
10, 49957, Note_off_c, 9, 35, 0
10, 49957, Note_off_c, 9, 36, 0
10, 49972, Note_on_c, 9, 70, 61
10, 50002, Note_off_c, 9, 70, 0
10, 50020, Note_on_c, 9, 42, 85
10, 50051, Note_off_c, 9, 42, 0
10, 50068, Note_on_c, 9, 70, 61
10, 50090, Note_off_c, 9, 70, 0
10, 50116, Note_on_c, 9, 40, 116
10, 50116, Note_on_c, 9, 41, 73
10, 50148, Note_off_c, 9, 41, 0
10, 50148, Note_off_c, 9, 40, 0
10, 50211, Note_on_c, 9, 40, 53
10, 50211, Note_on_c, 9, 43, 36
10, 50211, Note_on_c, 9, 41, 66
10, 50212, Note_on_c, 9, 42, 64
10, 50218, Note_off_c, 9, 41, 0
10, 50218, Note_off_c, 9, 43, 0
10, 50218, Note_off_c, 9, 40, 0
10, 50219, Note_on_c, 9, 40, 50
10, 50219, Note_on_c, 9, 43, 34
10, 50219, Note_on_c, 9, 41, 61
10, 50226, Note_off_c, 9, 41, 0
10, 50226, Note_off_c, 9, 43, 0
10, 50226, Note_off_c, 9, 40, 0
10, 50228, Note_on_c, 9, 40, 47
10, 50228, Note_on_c, 9, 43, 31
10, 50228, Note_on_c, 9, 41, 59
10, 50236, Note_off_c, 9, 41, 0
10, 50236, Note_off_c, 9, 43, 0
10, 50236, Note_off_c, 9, 40, 0
10, 50238, Note_on_c, 9, 40, 43
10, 50238, Note_on_c, 9, 43, 29
10, 50238, Note_on_c, 9, 41, 53
10, 50241, Note_off_c, 9, 42, 0
10, 50246, Note_off_c, 9, 40, 0
10, 50246, Note_off_c, 9, 43, 0
10, 50246, Note_off_c, 9, 41, 0
10, 50248, Note_on_c, 9, 40, 39
10, 50248, Note_on_c, 9, 43, 26
10, 50248, Note_on_c, 9, 41, 49
10, 50256, Note_off_c, 9, 41, 0
10, 50256, Note_off_c, 9, 43, 0
10, 50256, Note_off_c, 9, 40, 0
10, 50258, Note_on_c, 9, 40, 43
10, 50258, Note_on_c, 9, 43, 29
10, 50258, Note_on_c, 9, 41, 53
10, 50266, Note_off_c, 9, 41, 0
10, 50266, Note_off_c, 9, 43, 0
10, 50266, Note_off_c, 9, 40, 0
10, 50268, Note_on_c, 9, 40, 47
10, 50268, Note_on_c, 9, 43, 31
10, 50268, Note_on_c, 9, 41, 59
10, 50276, Note_off_c, 9, 41, 0
10, 50276, Note_off_c, 9, 43, 0
10, 50276, Note_off_c, 9, 40, 0
10, 50278, Note_on_c, 9, 40, 51
10, 50278, Note_on_c, 9, 43, 34
10, 50278, Note_on_c, 9, 41, 62
10, 50286, Note_off_c, 9, 41, 0
10, 50286, Note_off_c, 9, 43, 0
10, 50286, Note_off_c, 9, 40, 0
10, 50288, Note_on_c, 9, 40, 60
10, 50288, Note_on_c, 9, 43, 40
10, 50288, Note_on_c, 9, 41, 74
10, 50296, Note_off_c, 9, 41, 0
10, 50296, Note_off_c, 9, 43, 0
10, 50296, Note_off_c, 9, 40, 0
10, 50298, Note_on_c, 9, 40, 68
10, 50298, Note_on_c, 9, 43, 46
10, 50298, Note_on_c, 9, 41, 84
10, 50306, Note_off_c, 9, 41, 0
10, 50306, Note_off_c, 9, 43, 0
10, 50306, Note_off_c, 9, 40, 0
10, 50308, Note_on_c, 9, 36, 55
10, 50308, Note_on_c, 9, 35, 76
10, 50309, Note_on_c, 9, 41, 64
10, 50310, Note_on_c, 9, 43, 40
10, 50310, Note_on_c, 9, 57, 54
10, 50310, Note_on_c, 9, 40, 60
10, 50334, Note_off_c, 9, 40, 0
10, 50335, Note_off_c, 9, 41, 0
10, 50337, Note_off_c, 9, 57, 0
10, 50338, Note_off_c, 9, 43, 0
10, 50350, Note_off_c, 9, 36, 0
10, 50354, Note_off_c, 9, 35, 0
10, 50452, Note_on_c, 9, 36, 55
10, 50452, Note_on_c, 9, 35, 76
10, 50453, Note_on_c, 9, 43, 55
10, 50453, Note_on_c, 9, 40, 62
10, 50453, Note_on_c, 9, 43, 62
10, 50454, Note_on_c, 9, 41, 57
10, 50476, Note_off_c, 9, 41, 0
10, 50477, Note_off_c, 9, 40, 0
10, 50477, Note_off_c, 9, 43, 0
10, 50478, Note_off_c, 9, 43, 0
10, 50481, Note_off_c, 9, 35, 0
10, 50482, Note_off_c, 9, 36, 0
10, 50502, Note_on_c, 9, 40, 39
10, 50502, Note_on_c, 9, 43, 39
10, 50522, Note_off_c, 9, 43, 0
10, 50522, Note_off_c, 9, 40, 0
10, 50596, Note_on_c, 9, 36, 55
10, 50596, Note_on_c, 9, 35, 76
10, 50597, Note_on_c, 9, 43, 59
10, 50598, Note_on_c, 9, 40, 59
10, 50598, Note_on_c, 9, 43, 59
10, 50598, Note_on_c, 9, 41, 57
10, 50616, Note_off_c, 9, 43, 0
10, 50618, Note_off_c, 9, 35, 0
10, 50618, Note_off_c, 9, 36, 0
10, 50620, Note_off_c, 9, 41, 0
10, 50623, Note_off_c, 9, 40, 0
10, 50623, Note_off_c, 9, 43, 0
10, 50692, Note_on_c, 9, 35, 76
10, 50692, Note_on_c, 9, 36, 55
10, 50694, Note_on_c, 9, 43, 60
10, 50694, Note_on_c, 9, 40, 59
10, 50694, Note_on_c, 9, 43, 59
10, 50694, Note_on_c, 9, 41, 62
10, 50715, Note_off_c, 9, 43, 0
10, 50718, Note_off_c, 9, 41, 0
10, 50721, Note_off_c, 9, 40, 0
10, 50721, Note_off_c, 9, 43, 0
10, 50722, Note_off_c, 9, 36, 0
10, 50724, Note_off_c, 9, 35, 0
10, 50797, Note_on_c, 9, 45, 59
10, 50799, Note_on_c, 9, 47, 59
10, 50816, Note_off_c, 9, 47, 0
10, 50824, Note_off_c, 9, 45, 0
10, 50843, Note_on_c, 9, 45, 68
10, 50844, Note_on_c, 9, 43, 68
10, 50858, Note_off_c, 9, 45, 0
10, 50868, Note_off_c, 9, 43, 0
10, 50884, Note_on_c, 9, 36, 55
10, 50884, Note_on_c, 9, 35, 76
10, 50885, Note_on_c, 9, 40, 59
10, 50885, Note_on_c, 9, 43, 59
10, 50886, Note_on_c, 9, 43, 62
10, 50886, Note_on_c, 9, 41, 60
10, 50909, Note_off_c, 9, 43, 0
10, 50910, Note_off_c, 9, 41, 0
10, 50914, Note_off_c, 9, 40, 0
10, 50914, Note_off_c, 9, 35, 0
10, 50914, Note_off_c, 9, 36, 0
10, 50914, Note_off_c, 9, 43, 0
10, 51028, Note_on_c, 9, 36, 55
10, 51028, Note_on_c, 9, 35, 76
10, 51029, Note_on_c, 9, 41, 59
10, 51030, Note_on_c, 9, 43, 62
10, 51030, Note_on_c, 9, 40, 59
10, 51030, Note_on_c, 9, 43, 59
10, 51050, Note_off_c, 9, 43, 0
10, 51052, Note_off_c, 9, 35, 0
10, 51052, Note_off_c, 9, 36, 0
10, 51053, Note_off_c, 9, 41, 0
10, 51054, Note_off_c, 9, 40, 0
10, 51054, Note_off_c, 9, 43, 0
10, 51078, Note_on_c, 9, 40, 38
10, 51078, Note_on_c, 9, 43, 38
10, 51100, Note_off_c, 9, 43, 0
10, 51100, Note_off_c, 9, 40, 0
10, 51172, Note_on_c, 9, 36, 55
10, 51172, Note_on_c, 9, 35, 76
10, 51173, Note_on_c, 9, 41, 59
10, 51173, Note_on_c, 9, 43, 52
10, 51174, Note_on_c, 9, 40, 59
10, 51174, Note_on_c, 9, 43, 59
10, 51191, Note_off_c, 9, 43, 0
10, 51192, Note_off_c, 9, 35, 0
10, 51192, Note_off_c, 9, 36, 0
10, 51198, Note_off_c, 9, 41, 0
10, 51200, Note_off_c, 9, 40, 0
10, 51200, Note_off_c, 9, 43, 0
10, 51268, Note_on_c, 9, 36, 55
10, 51268, Note_on_c, 9, 35, 76
10, 51269, Note_on_c, 9, 43, 52
10, 51270, Note_on_c, 9, 40, 59
10, 51270, Note_on_c, 9, 43, 59
10, 51271, Note_on_c, 9, 41, 59
10, 51290, Note_off_c, 9, 43, 0
10, 51293, Note_off_c, 9, 35, 0
10, 51294, Note_off_c, 9, 36, 0
10, 51296, Note_off_c, 9, 40, 0
10, 51296, Note_off_c, 9, 43, 0
10, 51296, Note_off_c, 9, 41, 0
10, 51371, Note_on_c, 9, 45, 59
10, 51376, Note_on_c, 9, 47, 59
10, 51388, Note_off_c, 9, 47, 0
10, 51394, Note_off_c, 9, 45, 0
10, 51417, Note_on_c, 9, 45, 68
10, 51424, Note_on_c, 9, 43, 68
10, 51433, Note_off_c, 9, 45, 0
10, 51442, Note_off_c, 9, 43, 0
10, 51460, Note_on_c, 9, 35, 76
10, 51460, Note_on_c, 9, 36, 55
10, 51461, Note_on_c, 9, 43, 57
10, 51461, Note_on_c, 9, 40, 59
10, 51461, Note_on_c, 9, 43, 59
10, 51463, Note_on_c, 9, 41, 57
10, 51483, Note_off_c, 9, 43, 0
10, 51484, Note_off_c, 9, 36, 0
10, 51485, Note_off_c, 9, 35, 0
10, 51488, Note_off_c, 9, 41, 0
10, 51491, Note_off_c, 9, 40, 0
10, 51491, Note_off_c, 9, 43, 0
10, 51605, Note_on_c, 9, 41, 60
10, 51606, Note_on_c, 9, 43, 54
10, 51607, Note_on_c, 9, 40, 59
10, 51607, Note_on_c, 9, 43, 59
10, 51627, Note_off_c, 9, 43, 0
10, 51628, Note_off_c, 9, 41, 0
10, 51632, Note_off_c, 9, 40, 0
10, 51632, Note_off_c, 9, 43, 0
10, 51652, Note_on_c, 9, 40, 53
10, 51652, Note_on_c, 9, 41, 53
10, 51654, Note_on_c, 9, 43, 38
10, 51672, Note_off_c, 9, 41, 0
10, 51672, Note_off_c, 9, 40, 0
10, 51674, Note_off_c, 9, 43, 0
10, 51748, Note_on_c, 9, 36, 55
10, 51748, Note_on_c, 9, 35, 76
10, 51750, Note_on_c, 9, 40, 55
10, 51750, Note_on_c, 9, 43, 55
10, 51766, Note_off_c, 9, 35, 0
10, 51768, Note_off_c, 9, 36, 0
10, 51773, Note_off_c, 9, 40, 0
10, 51773, Note_off_c, 9, 43, 0
10, 51844, Note_on_c, 9, 36, 55
10, 51844, Note_on_c, 9, 35, 76
10, 51845, Note_on_c, 9, 40, 60
10, 51845, Note_on_c, 9, 43, 60
10, 51846, Note_on_c, 9, 43, 59
10, 51846, Note_on_c, 9, 41, 60
10, 51867, Note_off_c, 9, 43, 0
10, 51870, Note_off_c, 9, 40, 0
10, 51870, Note_off_c, 9, 43, 0
10, 51870, Note_off_c, 9, 41, 0
10, 51872, Note_off_c, 9, 35, 0
10, 51872, Note_off_c, 9, 36, 0
10, 51990, Note_on_c, 9, 43, 55
10, 51990, Note_on_c, 9, 41, 60
10, 51991, Note_on_c, 9, 40, 64
10, 51991, Note_on_c, 9, 43, 64
10, 52010, Note_off_c, 9, 43, 0
10, 52014, Note_off_c, 9, 40, 0
10, 52014, Note_off_c, 9, 43, 0
10, 52015, Note_off_c, 9, 41, 0
10, 52036, Note_on_c, 9, 40, 57
10, 52036, Note_on_c, 9, 41, 57
10, 52038, Note_on_c, 9, 43, 34
10, 52052, Note_off_c, 9, 41, 0
10, 52052, Note_off_c, 9, 40, 0
10, 52054, Note_off_c, 9, 43, 0
10, 52132, Note_on_c, 9, 36, 55
10, 52132, Note_on_c, 9, 35, 76
10, 52134, Note_on_c, 9, 40, 57
10, 52134, Note_on_c, 9, 43, 57
10, 52147, Note_off_c, 9, 35, 0
10, 52148, Note_off_c, 9, 36, 0
10, 52157, Note_off_c, 9, 40, 0
10, 52157, Note_off_c, 9, 43, 0
10, 52228, Note_on_c, 9, 35, 76
10, 52228, Note_on_c, 9, 36, 55
10, 52229, Note_on_c, 9, 43, 57
10, 52229, Note_on_c, 9, 40, 59
10, 52229, Note_on_c, 9, 43, 59
10, 52231, Note_on_c, 9, 41, 57
10, 52251, Note_off_c, 9, 43, 0
10, 52252, Note_off_c, 9, 36, 0
10, 52253, Note_off_c, 9, 35, 0
10, 52256, Note_off_c, 9, 41, 0
10, 52259, Note_off_c, 9, 40, 0
10, 52259, Note_off_c, 9, 43, 0
10, 52373, Note_on_c, 9, 41, 60
10, 52374, Note_on_c, 9, 43, 54
10, 52375, Note_on_c, 9, 40, 59
10, 52375, Note_on_c, 9, 43, 59
10, 52395, Note_off_c, 9, 43, 0
10, 52396, Note_off_c, 9, 41, 0
10, 52400, Note_off_c, 9, 40, 0
10, 52400, Note_off_c, 9, 43, 0
10, 52420, Note_on_c, 9, 40, 78
10, 52420, Note_on_c, 9, 41, 78
10, 52422, Note_on_c, 9, 43, 38
10, 52440, Note_off_c, 9, 41, 0
10, 52440, Note_off_c, 9, 40, 0
10, 52442, Note_off_c, 9, 43, 0
10, 52516, Note_on_c, 9, 36, 55
10, 52516, Note_on_c, 9, 35, 76
10, 52518, Note_on_c, 9, 40, 55
10, 52518, Note_on_c, 9, 43, 55
10, 52534, Note_off_c, 9, 35, 0
10, 52536, Note_off_c, 9, 36, 0
10, 52541, Note_off_c, 9, 40, 0
10, 52541, Note_off_c, 9, 43, 0
10, 52612, Note_on_c, 9, 36, 55
10, 52612, Note_on_c, 9, 35, 76
10, 52613, Note_on_c, 9, 40, 60
10, 52613, Note_on_c, 9, 43, 60
10, 52614, Note_on_c, 9, 41, 60
10, 52638, Note_off_c, 9, 41, 0
10, 52638, Note_off_c, 9, 43, 0
10, 52638, Note_off_c, 9, 40, 0
10, 52640, Note_off_c, 9, 35, 0
10, 52640, Note_off_c, 9, 36, 0
10, 52758, Note_on_c, 9, 43, 55
10, 52758, Note_on_c, 9, 41, 60
10, 52759, Note_on_c, 9, 40, 64
10, 52759, Note_on_c, 9, 43, 64
10, 52778, Note_off_c, 9, 43, 0
10, 52782, Note_off_c, 9, 40, 0
10, 52782, Note_off_c, 9, 43, 0
10, 52783, Note_off_c, 9, 41, 0
10, 52804, Note_on_c, 9, 40, 76
10, 52804, Note_on_c, 9, 41, 76
10, 52806, Note_on_c, 9, 43, 34
10, 52820, Note_off_c, 9, 41, 0
10, 52820, Note_off_c, 9, 40, 0
10, 52822, Note_off_c, 9, 43, 0
10, 52900, Note_on_c, 9, 36, 55
10, 52900, Note_on_c, 9, 35, 76
10, 52902, Note_on_c, 9, 40, 57
10, 52902, Note_on_c, 9, 43, 57
10, 52915, Note_off_c, 9, 35, 0
10, 52916, Note_off_c, 9, 36, 0
10, 52925, Note_off_c, 9, 40, 0
10, 52925, Note_off_c, 9, 43, 0
10, 52996, Note_on_c, 9, 36, 55
10, 52996, Note_on_c, 9, 35, 76
10, 52997, Note_on_c, 9, 41, 64
10, 52998, Note_on_c, 9, 43, 40
10, 52998, Note_on_c, 9, 57, 54
10, 52998, Note_on_c, 9, 40, 60
10, 53022, Note_off_c, 9, 40, 0
10, 53023, Note_off_c, 9, 41, 0
10, 53025, Note_off_c, 9, 57, 0
10, 53026, Note_off_c, 9, 43, 0
10, 53038, Note_off_c, 9, 36, 0
10, 53042, Note_off_c, 9, 35, 0
10, 53140, Note_on_c, 9, 36, 55
10, 53140, Note_on_c, 9, 35, 76
10, 53141, Note_on_c, 9, 43, 55
10, 53141, Note_on_c, 9, 40, 62
10, 53141, Note_on_c, 9, 43, 62
10, 53142, Note_on_c, 9, 41, 57
10, 53164, Note_off_c, 9, 41, 0
10, 53165, Note_off_c, 9, 40, 0
10, 53165, Note_off_c, 9, 43, 0
10, 53166, Note_off_c, 9, 43, 0
10, 53169, Note_off_c, 9, 35, 0
10, 53170, Note_off_c, 9, 36, 0
10, 53190, Note_on_c, 9, 40, 39
10, 53190, Note_on_c, 9, 43, 39
10, 53210, Note_off_c, 9, 43, 0
10, 53210, Note_off_c, 9, 40, 0
10, 53284, Note_on_c, 9, 36, 55
10, 53284, Note_on_c, 9, 35, 76
10, 53285, Note_on_c, 9, 43, 59
10, 53286, Note_on_c, 9, 40, 59
10, 53286, Note_on_c, 9, 43, 59
10, 53286, Note_on_c, 9, 41, 57
10, 53304, Note_off_c, 9, 43, 0
10, 53306, Note_off_c, 9, 35, 0
10, 53306, Note_off_c, 9, 36, 0
10, 53308, Note_off_c, 9, 41, 0
10, 53311, Note_off_c, 9, 40, 0
10, 53311, Note_off_c, 9, 43, 0
10, 53380, Note_on_c, 9, 35, 76
10, 53380, Note_on_c, 9, 36, 55
10, 53382, Note_on_c, 9, 43, 60
10, 53382, Note_on_c, 9, 40, 59
10, 53382, Note_on_c, 9, 43, 59
10, 53382, Note_on_c, 9, 41, 62
10, 53403, Note_off_c, 9, 43, 0
10, 53406, Note_off_c, 9, 41, 0
10, 53409, Note_off_c, 9, 40, 0
10, 53409, Note_off_c, 9, 43, 0
10, 53410, Note_off_c, 9, 36, 0
10, 53412, Note_off_c, 9, 35, 0
10, 53485, Note_on_c, 9, 45, 59
10, 53487, Note_on_c, 9, 47, 59
10, 53504, Note_off_c, 9, 47, 0
10, 53512, Note_off_c, 9, 45, 0
10, 53531, Note_on_c, 9, 45, 68
10, 53532, Note_on_c, 9, 43, 68
10, 53546, Note_off_c, 9, 45, 0
10, 53556, Note_off_c, 9, 43, 0
10, 53572, Note_on_c, 9, 36, 55
10, 53572, Note_on_c, 9, 35, 76
10, 53573, Note_on_c, 9, 40, 59
10, 53573, Note_on_c, 9, 43, 59
10, 53574, Note_on_c, 9, 43, 62
10, 53574, Note_on_c, 9, 41, 60
10, 53597, Note_off_c, 9, 43, 0
10, 53598, Note_off_c, 9, 41, 0
10, 53602, Note_off_c, 9, 40, 0
10, 53602, Note_off_c, 9, 35, 0
10, 53602, Note_off_c, 9, 36, 0
10, 53602, Note_off_c, 9, 43, 0
10, 53716, Note_on_c, 9, 36, 55
10, 53716, Note_on_c, 9, 35, 76
10, 53717, Note_on_c, 9, 41, 59
10, 53718, Note_on_c, 9, 43, 62
10, 53718, Note_on_c, 9, 40, 59
10, 53718, Note_on_c, 9, 43, 59
10, 53738, Note_off_c, 9, 43, 0
10, 53740, Note_off_c, 9, 35, 0
10, 53740, Note_off_c, 9, 36, 0
10, 53741, Note_off_c, 9, 41, 0
10, 53742, Note_off_c, 9, 40, 0
10, 53742, Note_off_c, 9, 43, 0
10, 53766, Note_on_c, 9, 40, 38
10, 53766, Note_on_c, 9, 43, 38
10, 53788, Note_off_c, 9, 43, 0
10, 53788, Note_off_c, 9, 40, 0
10, 53860, Note_on_c, 9, 36, 55
10, 53860, Note_on_c, 9, 35, 76
10, 53861, Note_on_c, 9, 41, 59
10, 53861, Note_on_c, 9, 43, 52
10, 53862, Note_on_c, 9, 40, 59
10, 53862, Note_on_c, 9, 43, 59
10, 53879, Note_off_c, 9, 43, 0
10, 53880, Note_off_c, 9, 35, 0
10, 53880, Note_off_c, 9, 36, 0
10, 53886, Note_off_c, 9, 41, 0
10, 53888, Note_off_c, 9, 40, 0
10, 53888, Note_off_c, 9, 43, 0
10, 53956, Note_on_c, 9, 36, 55
10, 53956, Note_on_c, 9, 35, 76
10, 53957, Note_on_c, 9, 43, 52
10, 53958, Note_on_c, 9, 40, 59
10, 53958, Note_on_c, 9, 43, 59
10, 53959, Note_on_c, 9, 41, 59
10, 53978, Note_off_c, 9, 43, 0
10, 53981, Note_off_c, 9, 35, 0
10, 53982, Note_off_c, 9, 36, 0
10, 53984, Note_off_c, 9, 40, 0
10, 53984, Note_off_c, 9, 43, 0
10, 53984, Note_off_c, 9, 41, 0
10, 54340, Note_on_c, 9, 35, 50
10, 54340, Note_on_c, 9, 36, 50
10, 54376, Note_off_c, 9, 36, 0
10, 54376, Note_off_c, 9, 35, 0
10, 54532, Note_on_c, 9, 44, 74
10, 54559, Note_off_c, 9, 44, 0
10, 54724, Note_on_c, 9, 36, 50
10, 54724, Note_on_c, 9, 35, 50
10, 54760, Note_off_c, 9, 35, 0
10, 54760, Note_off_c, 9, 36, 0
10, 54916, Note_on_c, 9, 44, 74
10, 54938, Note_off_c, 9, 44, 0
10, 55108, Note_on_c, 9, 36, 50
10, 55108, Note_on_c, 9, 35, 50
10, 55144, Note_off_c, 9, 35, 0
10, 55144, Note_off_c, 9, 36, 0
10, 55300, Note_on_c, 9, 44, 74
10, 55327, Note_off_c, 9, 44, 0
10, 55684, Note_on_c, 9, 44, 74
10, 55706, Note_off_c, 9, 44, 0
10, 55876, Note_on_c, 9, 36, 72
10, 55876, Note_on_c, 9, 35, 72
10, 55876, Note_on_c, 9, 40, 47
10, 55876, Note_on_c, 9, 43, 42
10, 55882, Note_off_c, 9, 43, 0
10, 55882, Note_off_c, 9, 40, 0
10, 55884, Note_on_c, 9, 40, 49
10, 55884, Note_on_c, 9, 43, 43
10, 55891, Note_off_c, 9, 43, 0
10, 55891, Note_off_c, 9, 40, 0
10, 55893, Note_on_c, 9, 40, 39
10, 55893, Note_on_c, 9, 43, 35
10, 55901, Note_off_c, 9, 43, 0
10, 55901, Note_off_c, 9, 40, 0
10, 55903, Note_on_c, 9, 40, 31
10, 55903, Note_on_c, 9, 43, 28
10, 55911, Note_off_c, 9, 43, 0
10, 55911, Note_off_c, 9, 40, 0
10, 55912, Note_off_c, 9, 35, 0
10, 55912, Note_off_c, 9, 36, 0
10, 55913, Note_on_c, 9, 40, 35
10, 55913, Note_on_c, 9, 43, 31
10, 55921, Note_off_c, 9, 43, 0
10, 55921, Note_off_c, 9, 40, 0
10, 55923, Note_on_c, 9, 40, 35
10, 55923, Note_on_c, 9, 43, 31
10, 55931, Note_off_c, 9, 43, 0
10, 55931, Note_off_c, 9, 40, 0
10, 55933, Note_on_c, 9, 40, 28
10, 55933, Note_on_c, 9, 43, 25
10, 55941, Note_off_c, 9, 43, 0
10, 55941, Note_off_c, 9, 40, 0
10, 55943, Note_on_c, 9, 40, 28
10, 55943, Note_on_c, 9, 43, 25
10, 55951, Note_off_c, 9, 43, 0
10, 55951, Note_off_c, 9, 40, 0
10, 55953, Note_on_c, 9, 40, 29
10, 55953, Note_on_c, 9, 43, 25
10, 55961, Note_off_c, 9, 43, 0
10, 55961, Note_off_c, 9, 40, 0
10, 55963, Note_on_c, 9, 40, 29
10, 55963, Note_on_c, 9, 43, 25
10, 55970, Note_off_c, 9, 43, 0
10, 55970, Note_off_c, 9, 40, 0
10, 55973, Note_on_c, 9, 40, 35
10, 55973, Note_on_c, 9, 43, 31
10, 55982, Note_off_c, 9, 43, 0
10, 55982, Note_off_c, 9, 40, 0
10, 55983, Note_on_c, 9, 40, 28
10, 55983, Note_on_c, 9, 43, 25
10, 55992, Note_off_c, 9, 43, 0
10, 55992, Note_off_c, 9, 40, 0
10, 55993, Note_on_c, 9, 40, 28
10, 55993, Note_on_c, 9, 43, 25
10, 56002, Note_off_c, 9, 43, 0
10, 56002, Note_off_c, 9, 40, 0
10, 56003, Note_on_c, 9, 40, 29
10, 56003, Note_on_c, 9, 43, 25
10, 56011, Note_off_c, 9, 43, 0
10, 56011, Note_off_c, 9, 40, 0
10, 56013, Note_on_c, 9, 40, 29
10, 56013, Note_on_c, 9, 43, 25
10, 56021, Note_off_c, 9, 43, 0
10, 56021, Note_off_c, 9, 40, 0
10, 56025, Note_on_c, 9, 40, 32
10, 56025, Note_on_c, 9, 43, 28
10, 56033, Note_off_c, 9, 43, 0
10, 56033, Note_off_c, 9, 40, 0
10, 56035, Note_on_c, 9, 40, 28
10, 56035, Note_on_c, 9, 43, 25
10, 56043, Note_off_c, 9, 43, 0
10, 56043, Note_off_c, 9, 40, 0
10, 56045, Note_on_c, 9, 40, 29
10, 56045, Note_on_c, 9, 43, 26
10, 56053, Note_off_c, 9, 43, 0
10, 56053, Note_off_c, 9, 40, 0
10, 56055, Note_on_c, 9, 40, 36
10, 56055, Note_on_c, 9, 43, 31
10, 56063, Note_off_c, 9, 43, 0
10, 56063, Note_off_c, 9, 40, 0
10, 56069, Note_on_c, 9, 40, 53
10, 56069, Note_on_c, 9, 43, 46
10, 56076, Note_off_c, 9, 43, 0
10, 56076, Note_off_c, 9, 40, 0
10, 56164, Note_on_c, 9, 36, 72
10, 56164, Note_on_c, 9, 35, 72
10, 56170, Note_on_c, 9, 40, 35
10, 56170, Note_on_c, 9, 43, 31
10, 56179, Note_off_c, 9, 43, 0
10, 56179, Note_off_c, 9, 40, 0
10, 56180, Note_on_c, 9, 40, 28
10, 56180, Note_on_c, 9, 43, 25
10, 56189, Note_off_c, 9, 43, 0
10, 56189, Note_off_c, 9, 40, 0
10, 56190, Note_on_c, 9, 40, 28
10, 56190, Note_on_c, 9, 43, 25
10, 56199, Note_off_c, 9, 43, 0
10, 56199, Note_off_c, 9, 40, 0
10, 56200, Note_off_c, 9, 35, 0
10, 56200, Note_off_c, 9, 36, 0
10, 56200, Note_on_c, 9, 40, 29
10, 56200, Note_on_c, 9, 43, 25
10, 56208, Note_off_c, 9, 43, 0
10, 56208, Note_off_c, 9, 40, 0
10, 56210, Note_on_c, 9, 40, 29
10, 56210, Note_on_c, 9, 43, 25
10, 56218, Note_off_c, 9, 43, 0
10, 56218, Note_off_c, 9, 40, 0
10, 56222, Note_on_c, 9, 40, 32
10, 56222, Note_on_c, 9, 43, 28
10, 56230, Note_off_c, 9, 43, 0
10, 56230, Note_off_c, 9, 40, 0
10, 56232, Note_on_c, 9, 40, 28
10, 56232, Note_on_c, 9, 43, 25
10, 56240, Note_off_c, 9, 43, 0
10, 56240, Note_off_c, 9, 40, 0
10, 56242, Note_on_c, 9, 40, 29
10, 56242, Note_on_c, 9, 43, 26
10, 56250, Note_off_c, 9, 43, 0
10, 56250, Note_off_c, 9, 40, 0
10, 56252, Note_on_c, 9, 40, 36
10, 56252, Note_on_c, 9, 43, 31
10, 56260, Note_off_c, 9, 43, 0
10, 56260, Note_off_c, 9, 40, 0
10, 56260, Note_on_c, 9, 36, 72
10, 56260, Note_on_c, 9, 35, 72
10, 56262, Note_on_c, 9, 40, 53
10, 56262, Note_on_c, 9, 43, 46
10, 56270, Note_off_c, 9, 43, 0
10, 56270, Note_off_c, 9, 40, 0
10, 56296, Note_off_c, 9, 35, 0
10, 56296, Note_off_c, 9, 36, 0
10, 56360, Note_on_c, 9, 40, 46
10, 56360, Note_on_c, 9, 43, 40
10, 56369, Note_off_c, 9, 43, 0
10, 56369, Note_off_c, 9, 40, 0
10, 56408, Note_on_c, 9, 40, 46
10, 56408, Note_on_c, 9, 43, 40
10, 56417, Note_off_c, 9, 43, 0
10, 56417, Note_off_c, 9, 40, 0
10, 56452, Note_on_c, 9, 36, 72
10, 56452, Note_on_c, 9, 35, 72
10, 56453, Note_on_c, 9, 40, 47
10, 56453, Note_on_c, 9, 43, 42
10, 56459, Note_off_c, 9, 43, 0
10, 56459, Note_off_c, 9, 40, 0
10, 56460, Note_on_c, 9, 40, 49
10, 56460, Note_on_c, 9, 43, 43
10, 56466, Note_off_c, 9, 43, 0
10, 56466, Note_off_c, 9, 40, 0
10, 56467, Note_on_c, 9, 40, 39
10, 56467, Note_on_c, 9, 43, 35
10, 56473, Note_off_c, 9, 43, 0
10, 56473, Note_off_c, 9, 40, 0
10, 56474, Note_on_c, 9, 40, 31
10, 56474, Note_on_c, 9, 43, 28
10, 56480, Note_off_c, 9, 43, 0
10, 56480, Note_off_c, 9, 40, 0
10, 56481, Note_on_c, 9, 40, 35
10, 56481, Note_on_c, 9, 43, 31
10, 56488, Note_off_c, 9, 43, 0
10, 56488, Note_off_c, 9, 35, 0
10, 56488, Note_off_c, 9, 36, 0
10, 56488, Note_off_c, 9, 40, 0
10, 56489, Note_on_c, 9, 40, 35
10, 56489, Note_on_c, 9, 43, 31
10, 56495, Note_off_c, 9, 43, 0
10, 56495, Note_off_c, 9, 40, 0
10, 56496, Note_on_c, 9, 40, 28
10, 56496, Note_on_c, 9, 43, 25
10, 56502, Note_off_c, 9, 43, 0
10, 56502, Note_off_c, 9, 40, 0
10, 56503, Note_on_c, 9, 40, 28
10, 56503, Note_on_c, 9, 43, 25
10, 56509, Note_off_c, 9, 43, 0
10, 56509, Note_off_c, 9, 40, 0
10, 56510, Note_on_c, 9, 40, 29
10, 56510, Note_on_c, 9, 43, 25
10, 56516, Note_off_c, 9, 43, 0
10, 56516, Note_off_c, 9, 40, 0
10, 56518, Note_on_c, 9, 40, 29
10, 56518, Note_on_c, 9, 43, 25
10, 56524, Note_off_c, 9, 43, 0
10, 56524, Note_off_c, 9, 40, 0
10, 56526, Note_on_c, 9, 40, 28
10, 56526, Note_on_c, 9, 43, 25
10, 56532, Note_off_c, 9, 43, 0
10, 56532, Note_off_c, 9, 40, 0
10, 56533, Note_on_c, 9, 40, 29
10, 56533, Note_on_c, 9, 43, 25
10, 56538, Note_off_c, 9, 43, 0
10, 56538, Note_off_c, 9, 40, 0
10, 56540, Note_on_c, 9, 40, 29
10, 56540, Note_on_c, 9, 43, 25
10, 56547, Note_off_c, 9, 43, 0
10, 56547, Note_off_c, 9, 40, 0
10, 56548, Note_on_c, 9, 36, 72
10, 56548, Note_on_c, 9, 35, 72
10, 56548, Note_on_c, 9, 40, 47
10, 56548, Note_on_c, 9, 43, 42
10, 56551, Note_off_c, 9, 43, 0
10, 56551, Note_off_c, 9, 40, 0
10, 56551, Note_on_c, 9, 40, 39
10, 56551, Note_on_c, 9, 43, 34
10, 56553, Note_off_c, 9, 43, 0
10, 56553, Note_off_c, 9, 40, 0
10, 56554, Note_on_c, 9, 40, 35
10, 56554, Note_on_c, 9, 43, 32
10, 56556, Note_off_c, 9, 43, 0
10, 56556, Note_off_c, 9, 40, 0
10, 56556, Note_on_c, 9, 40, 28
10, 56556, Note_on_c, 9, 43, 25
10, 56558, Note_off_c, 9, 43, 0
10, 56558, Note_off_c, 9, 40, 0
10, 56559, Note_on_c, 9, 40, 32
10, 56559, Note_on_c, 9, 43, 28
10, 56562, Note_off_c, 9, 43, 0
10, 56562, Note_off_c, 9, 40, 0
10, 56562, Note_on_c, 9, 40, 32
10, 56562, Note_on_c, 9, 43, 28
10, 56565, Note_off_c, 9, 43, 0
10, 56565, Note_off_c, 9, 40, 0
10, 56565, Note_on_c, 9, 40, 25
10, 56565, Note_on_c, 9, 43, 23
10, 56568, Note_off_c, 9, 43, 0
10, 56568, Note_off_c, 9, 40, 0
10, 56568, Note_on_c, 9, 40, 25
10, 56568, Note_on_c, 9, 43, 23
10, 56570, Note_off_c, 9, 43, 0
10, 56570, Note_off_c, 9, 40, 0
10, 56571, Note_on_c, 9, 40, 26
10, 56571, Note_on_c, 9, 43, 23
10, 56574, Note_off_c, 9, 43, 0
10, 56574, Note_off_c, 9, 40, 0
10, 56574, Note_on_c, 9, 40, 24
10, 56574, Note_on_c, 9, 43, 22
10, 56577, Note_off_c, 9, 43, 0
10, 56577, Note_off_c, 9, 40, 0
10, 56578, Note_on_c, 9, 40, 24
10, 56578, Note_on_c, 9, 43, 22
10, 56580, Note_off_c, 9, 43, 0
10, 56580, Note_off_c, 9, 40, 0
10, 56580, Note_on_c, 9, 40, 24
10, 56580, Note_on_c, 9, 43, 22
10, 56582, Note_off_c, 9, 43, 0
10, 56582, Note_off_c, 9, 40, 0
10, 56583, Note_on_c, 9, 40, 24
10, 56583, Note_on_c, 9, 43, 22
10, 56584, Note_off_c, 9, 35, 0
10, 56584, Note_off_c, 9, 36, 0
10, 56586, Note_off_c, 9, 40, 0
10, 56586, Note_off_c, 9, 43, 0
10, 56586, Note_on_c, 9, 40, 29
10, 56586, Note_on_c, 9, 43, 25
10, 56588, Note_off_c, 9, 43, 0
10, 56588, Note_off_c, 9, 40, 0
10, 56589, Note_on_c, 9, 40, 29
10, 56589, Note_on_c, 9, 43, 25
10, 56592, Note_off_c, 9, 43, 0
10, 56592, Note_off_c, 9, 40, 0
10, 56592, Note_on_c, 9, 40, 25
10, 56592, Note_on_c, 9, 43, 23
10, 56594, Note_off_c, 9, 43, 0
10, 56594, Note_off_c, 9, 40, 0
10, 56595, Note_on_c, 9, 40, 25
10, 56595, Note_on_c, 9, 43, 23
10, 56597, Note_off_c, 9, 43, 0
10, 56597, Note_off_c, 9, 40, 0
10, 56598, Note_on_c, 9, 40, 26
10, 56598, Note_on_c, 9, 43, 23
10, 56600, Note_off_c, 9, 43, 0
10, 56600, Note_off_c, 9, 40, 0
10, 56601, Note_on_c, 9, 40, 24
10, 56601, Note_on_c, 9, 43, 22
10, 56604, Note_off_c, 9, 43, 0
10, 56604, Note_off_c, 9, 40, 0
10, 56604, Note_on_c, 9, 40, 24
10, 56604, Note_on_c, 9, 43, 22
10, 56606, Note_off_c, 9, 43, 0
10, 56606, Note_off_c, 9, 40, 0
10, 56607, Note_on_c, 9, 40, 24
10, 56607, Note_on_c, 9, 43, 22
10, 56609, Note_off_c, 9, 43, 0
10, 56609, Note_off_c, 9, 40, 0
10, 56610, Note_on_c, 9, 40, 24
10, 56610, Note_on_c, 9, 43, 22
10, 56612, Note_off_c, 9, 43, 0
10, 56612, Note_off_c, 9, 40, 0
10, 56613, Note_on_c, 9, 40, 24
10, 56613, Note_on_c, 9, 43, 22
10, 56615, Note_off_c, 9, 43, 0
10, 56615, Note_off_c, 9, 40, 0
10, 56616, Note_on_c, 9, 40, 24
10, 56616, Note_on_c, 9, 43, 22
10, 56618, Note_off_c, 9, 43, 0
10, 56618, Note_off_c, 9, 40, 0
10, 56618, Note_on_c, 9, 40, 24
10, 56618, Note_on_c, 9, 43, 22
10, 56621, Note_off_c, 9, 43, 0
10, 56621, Note_off_c, 9, 40, 0
10, 56622, Note_on_c, 9, 40, 24
10, 56622, Note_on_c, 9, 43, 22
10, 56624, Note_off_c, 9, 43, 0
10, 56624, Note_off_c, 9, 40, 0
10, 56626, Note_on_c, 9, 40, 19
10, 56626, Note_on_c, 9, 43, 12
10, 56626, Note_on_c, 9, 41, 24
10, 56628, Note_off_c, 9, 41, 0
10, 56628, Note_off_c, 9, 43, 0
10, 56628, Note_off_c, 9, 40, 0
10, 56628, Note_on_c, 9, 40, 22
10, 56628, Note_on_c, 9, 43, 15
10, 56628, Note_on_c, 9, 41, 27
10, 56629, Note_off_c, 9, 41, 0
10, 56629, Note_off_c, 9, 43, 0
10, 56629, Note_off_c, 9, 40, 0
10, 56630, Note_on_c, 9, 40, 24
10, 56630, Note_on_c, 9, 43, 15
10, 56630, Note_on_c, 9, 41, 31
10, 56631, Note_off_c, 9, 41, 0
10, 56631, Note_off_c, 9, 43, 0
10, 56631, Note_off_c, 9, 40, 0
10, 56632, Note_on_c, 9, 40, 26
10, 56632, Note_on_c, 9, 43, 17
10, 56632, Note_on_c, 9, 41, 32
10, 56633, Note_off_c, 9, 41, 0
10, 56633, Note_off_c, 9, 43, 0
10, 56633, Note_off_c, 9, 40, 0
10, 56633, Note_on_c, 9, 40, 27
10, 56633, Note_on_c, 9, 43, 18
10, 56633, Note_on_c, 9, 41, 35
10, 56635, Note_off_c, 9, 41, 0
10, 56635, Note_off_c, 9, 43, 0
10, 56635, Note_off_c, 9, 40, 0
10, 56635, Note_on_c, 9, 40, 31
10, 56635, Note_on_c, 9, 43, 21
10, 56635, Note_on_c, 9, 41, 38
10, 56636, Note_off_c, 9, 41, 0
10, 56636, Note_off_c, 9, 43, 0
10, 56636, Note_off_c, 9, 40, 0
10, 56637, Note_on_c, 9, 40, 34
10, 56637, Note_on_c, 9, 43, 22
10, 56637, Note_on_c, 9, 41, 42
10, 56638, Note_off_c, 9, 41, 0
10, 56638, Note_off_c, 9, 43, 0
10, 56638, Note_off_c, 9, 40, 0
10, 56639, Note_on_c, 9, 40, 36
10, 56639, Note_on_c, 9, 43, 24
10, 56639, Note_on_c, 9, 41, 45
10, 56640, Note_off_c, 9, 41, 0
10, 56640, Note_off_c, 9, 43, 0
10, 56640, Note_off_c, 9, 40, 0
10, 56640, Note_on_c, 9, 40, 43
10, 56640, Note_on_c, 9, 43, 29
10, 56640, Note_on_c, 9, 41, 54
10, 56642, Note_off_c, 9, 41, 0
10, 56642, Note_off_c, 9, 43, 0
10, 56642, Note_off_c, 9, 40, 0
10, 56642, Note_on_c, 9, 40, 49
10, 56642, Note_on_c, 9, 43, 33
10, 56642, Note_on_c, 9, 41, 61
10, 56644, Note_off_c, 9, 41, 0
10, 56644, Note_off_c, 9, 43, 0
10, 56644, Note_off_c, 9, 40, 0
10, 56644, Note_on_c, 9, 36, 55
10, 56644, Note_on_c, 9, 35, 76
10, 56645, Note_on_c, 9, 41, 58
10, 56646, Note_on_c, 9, 43, 36
10, 56646, Note_on_c, 9, 57, 60
10, 56646, Note_on_c, 9, 40, 55
10, 56670, Note_off_c, 9, 40, 0
10, 56671, Note_off_c, 9, 41, 0
10, 56673, Note_off_c, 9, 57, 0
10, 56674, Note_off_c, 9, 43, 0
10, 56686, Note_off_c, 9, 36, 0
10, 56690, Note_off_c, 9, 35, 0
10, 56788, Note_on_c, 9, 36, 55
10, 56788, Note_on_c, 9, 35, 76
10, 56789, Note_on_c, 9, 43, 55
10, 56789, Note_on_c, 9, 40, 62
10, 56789, Note_on_c, 9, 43, 62
10, 56790, Note_on_c, 9, 41, 57
10, 56812, Note_off_c, 9, 41, 0
10, 56813, Note_off_c, 9, 40, 0
10, 56813, Note_off_c, 9, 43, 0
10, 56814, Note_off_c, 9, 43, 0
10, 56817, Note_off_c, 9, 35, 0
10, 56818, Note_off_c, 9, 36, 0
10, 56838, Note_on_c, 9, 40, 39
10, 56838, Note_on_c, 9, 43, 39
10, 56858, Note_off_c, 9, 43, 0
10, 56858, Note_off_c, 9, 40, 0
10, 56932, Note_on_c, 9, 36, 55
10, 56932, Note_on_c, 9, 35, 76
10, 56933, Note_on_c, 9, 43, 59
10, 56934, Note_on_c, 9, 40, 59
10, 56934, Note_on_c, 9, 43, 59
10, 56934, Note_on_c, 9, 41, 57
10, 56952, Note_off_c, 9, 43, 0
10, 56954, Note_off_c, 9, 35, 0
10, 56954, Note_off_c, 9, 36, 0
10, 56956, Note_off_c, 9, 41, 0
10, 56959, Note_off_c, 9, 40, 0
10, 56959, Note_off_c, 9, 43, 0
10, 57028, Note_on_c, 9, 35, 76
10, 57028, Note_on_c, 9, 36, 55
10, 57030, Note_on_c, 9, 43, 60
10, 57030, Note_on_c, 9, 40, 59
10, 57030, Note_on_c, 9, 43, 59
10, 57030, Note_on_c, 9, 41, 62
10, 57051, Note_off_c, 9, 43, 0
10, 57054, Note_off_c, 9, 41, 0
10, 57057, Note_off_c, 9, 40, 0
10, 57057, Note_off_c, 9, 43, 0
10, 57058, Note_off_c, 9, 36, 0
10, 57060, Note_off_c, 9, 35, 0
10, 57133, Note_on_c, 9, 45, 59
10, 57135, Note_on_c, 9, 47, 59
10, 57152, Note_off_c, 9, 47, 0
10, 57160, Note_off_c, 9, 45, 0
10, 57179, Note_on_c, 9, 45, 68
10, 57180, Note_on_c, 9, 43, 68
10, 57194, Note_off_c, 9, 45, 0
10, 57204, Note_off_c, 9, 43, 0
10, 57220, Note_on_c, 9, 36, 55
10, 57220, Note_on_c, 9, 35, 76
10, 57221, Note_on_c, 9, 40, 59
10, 57221, Note_on_c, 9, 43, 59
10, 57222, Note_on_c, 9, 43, 62
10, 57222, Note_on_c, 9, 41, 60
10, 57245, Note_off_c, 9, 43, 0
10, 57246, Note_off_c, 9, 41, 0
10, 57250, Note_off_c, 9, 40, 0
10, 57250, Note_off_c, 9, 35, 0
10, 57250, Note_off_c, 9, 36, 0
10, 57250, Note_off_c, 9, 43, 0
10, 57364, Note_on_c, 9, 36, 55
10, 57364, Note_on_c, 9, 35, 76
10, 57365, Note_on_c, 9, 41, 59
10, 57366, Note_on_c, 9, 43, 62
10, 57366, Note_on_c, 9, 40, 59
10, 57366, Note_on_c, 9, 43, 59
10, 57386, Note_off_c, 9, 43, 0
10, 57388, Note_off_c, 9, 35, 0
10, 57388, Note_off_c, 9, 36, 0
10, 57389, Note_off_c, 9, 41, 0
10, 57390, Note_off_c, 9, 40, 0
10, 57390, Note_off_c, 9, 43, 0
10, 57414, Note_on_c, 9, 40, 38
10, 57414, Note_on_c, 9, 43, 38
10, 57478, Note_off_c, 9, 43, 0
10, 57478, Note_off_c, 9, 40, 0
10, 57602, Note_on_c, 9, 36, 55
10, 57602, Note_on_c, 9, 35, 76
10, 57604, Note_on_c, 9, 41, 59
10, 57604, Note_on_c, 9, 43, 52
10, 57605, Note_on_c, 9, 40, 59
10, 57605, Note_on_c, 9, 43, 59
10, 57666, Note_off_c, 9, 35, 0
10, 57666, Note_off_c, 9, 36, 0
10, 57667, Note_off_c, 9, 41, 0
10, 57667, Note_off_c, 9, 43, 0
10, 57669, Note_off_c, 9, 43, 0
10, 57669, Note_off_c, 9, 40, 0
10, 57794, Note_on_c, 9, 36, 55
10, 57794, Note_on_c, 9, 35, 76
10, 57796, Note_on_c, 9, 43, 52
10, 57797, Note_on_c, 9, 40, 59
10, 57797, Note_on_c, 9, 43, 59
10, 57798, Note_on_c, 9, 41, 59
10, 57817, Note_off_c, 9, 43, 0
10, 57820, Note_off_c, 9, 35, 0
10, 57820, Note_off_c, 9, 36, 0
10, 57823, Note_off_c, 9, 40, 0
10, 57823, Note_off_c, 9, 43, 0
10, 57823, Note_off_c, 9, 41, 0
10, 58372, Note_on_c, 9, 57, 58
10, 58468, Note_off_c, 9, 57, 0
10, 58956, Control_c, 9, 121, 0
10, 58964, Control_c, 9, 91, 0
10, 58972, Control_c, 9, 93, 0
10, 58972, End_track
11, 0, Start_track
11, 0, Title_t, "Trumpet"
11, 0, Channel_prefix, 10
11, 0, Control_c, 10, 7, 110
11, 0, Control_c, 10, 10, 34
11, 0, Program_c, 10, 56
11, 40, Control_c, 10, 121, 0
11, 48, Control_c, 10, 11, 102
11, 64, Control_c, 10, 91, 100
11, 72, Control_c, 10, 93, 5
11, 80, Control_c, 10, 99, 1
11, 88, Control_c, 10, 98, 8
11, 96, Control_c, 10, 6, 54
11, 104, Control_c, 10, 98, 99
11, 112, Control_c, 10, 6, 66
11, 120, Control_c, 10, 98, 100
11, 128, Control_c, 10, 6, 70
11, 23424, Control_c, 10, 10, 34
11, 23424, Control_c, 10, 7, 110
11, 23424, Program_c, 10, 56
11, 23933, Control_c, 10, 11, 110
11, 23936, Control_c, 10, 11, 109
11, 23940, Control_c, 10, 11, 108
11, 23943, Control_c, 10, 11, 106
11, 23946, Control_c, 10, 11, 103
11, 23950, Control_c, 10, 11, 99
11, 23953, Control_c, 10, 11, 94
11, 23957, Control_c, 10, 11, 90
11, 23960, Control_c, 10, 11, 84
11, 23964, Control_c, 10, 11, 78
11, 23967, Control_c, 10, 11, 71
11, 23970, Control_c, 10, 11, 64
11, 23974, Control_c, 10, 11, 57
11, 23978, Control_c, 10, 11, 50
11, 23981, Control_c, 10, 11, 45
11, 23984, Control_c, 10, 11, 42
11, 23988, Control_c, 10, 11, 39
11, 23991, Control_c, 10, 11, 38
11, 24000, Note_on_c, 10, 67, 95
11, 24012, Control_c, 10, 11, 42
11, 24016, Control_c, 10, 11, 44
11, 24019, Control_c, 10, 11, 46
11, 24022, Control_c, 10, 11, 50
11, 24026, Control_c, 10, 11, 52
11, 24029, Control_c, 10, 11, 55
11, 24033, Control_c, 10, 11, 58
11, 24036, Control_c, 10, 11, 61
11, 24040, Control_c, 10, 11, 63
11, 24043, Control_c, 10, 11, 66
11, 24046, Control_c, 10, 11, 68
11, 24050, Control_c, 10, 11, 70
11, 24054, Control_c, 10, 11, 72
11, 24057, Control_c, 10, 11, 74
11, 24060, Control_c, 10, 11, 75
11, 24064, Control_c, 10, 11, 77
11, 24067, Control_c, 10, 11, 78
11, 24071, Control_c, 10, 11, 79
11, 24074, Control_c, 10, 11, 80
11, 24078, Control_c, 10, 11, 82
11, 24081, Control_c, 10, 11, 84
11, 24084, Control_c, 10, 11, 85
11, 24088, Control_c, 10, 11, 87
11, 24091, Control_c, 10, 11, 90
11, 24095, Control_c, 10, 11, 91
11, 24098, Control_c, 10, 11, 93
11, 24102, Control_c, 10, 11, 95
11, 24105, Control_c, 10, 11, 98
11, 24108, Control_c, 10, 11, 100
11, 24112, Control_c, 10, 11, 102
11, 24115, Control_c, 10, 11, 104
11, 24119, Control_c, 10, 11, 107
11, 24122, Control_c, 10, 11, 109
11, 24126, Control_c, 10, 11, 112
11, 24129, Control_c, 10, 11, 115
11, 24132, Control_c, 10, 11, 116
11, 24136, Control_c, 10, 11, 118
11, 24153, Control_c, 10, 11, 111
11, 24157, Control_c, 10, 11, 104
11, 24160, Control_c, 10, 11, 98
11, 24164, Control_c, 10, 11, 92
11, 24168, Control_c, 10, 11, 85
11, 24171, Control_c, 10, 11, 82
11, 24174, Control_c, 10, 11, 78
11, 24178, Control_c, 10, 11, 76
11, 24181, Control_c, 10, 11, 74
11, 24184, Note_off_c, 10, 67, 0
11, 24185, Control_c, 10, 11, 72
11, 24192, Note_on_c, 10, 72, 101
11, 24206, Control_c, 10, 11, 76
11, 24209, Control_c, 10, 11, 78
11, 24213, Control_c, 10, 11, 79
11, 24216, Control_c, 10, 11, 80
11, 24220, Control_c, 10, 11, 82
11, 24223, Control_c, 10, 11, 83
11, 24226, Control_c, 10, 11, 84
11, 24230, Control_c, 10, 11, 85
11, 24244, Control_c, 10, 11, 87
11, 24279, Control_c, 10, 11, 91
11, 24303, Control_c, 10, 11, 93
11, 24327, Control_c, 10, 11, 96
11, 24348, Control_c, 10, 11, 99
11, 24366, Control_c, 10, 11, 102
11, 24383, Control_c, 10, 11, 104
11, 24421, Control_c, 10, 11, 108
11, 24481, Control_c, 10, 11, 110
11, 24590, Note_off_c, 10, 72, 0
11, 24624, Note_on_c, 10, 67, 91
11, 24672, Note_on_c, 10, 72, 82
11, 24678, Note_off_c, 10, 67, 0
11, 24692, Note_off_c, 10, 72, 0
11, 24720, Note_on_c, 10, 74, 91
11, 24740, Note_off_c, 10, 74, 0
11, 24768, Note_on_c, 10, 76, 91
11, 24814, Note_off_c, 10, 76, 0
11, 24816, Note_on_c, 10, 74, 82
11, 24836, Note_off_c, 10, 74, 0
11, 24864, Note_on_c, 10, 72, 91
11, 24884, Note_off_c, 10, 72, 0
11, 24912, Note_on_c, 10, 71, 91
11, 24932, Note_off_c, 10, 71, 0
11, 24960, Note_on_c, 10, 81, 91
11, 25235, Note_off_c, 10, 81, 0
11, 25248, Note_on_c, 10, 83, 91
11, 25339, Note_off_c, 10, 83, 0
11, 25344, Note_on_c, 10, 84, 89
11, 25488, Note_on_c, 10, 79, 82
11, 25489, Note_off_c, 10, 84, 0
11, 25508, Note_off_c, 10, 79, 0
11, 25536, Note_on_c, 10, 76, 91
11, 25584, Note_on_c, 10, 74, 82
11, 25586, Note_off_c, 10, 76, 0
11, 25604, Note_off_c, 10, 74, 0
11, 25632, Note_on_c, 10, 72, 91
11, 25652, Note_off_c, 10, 72, 0
11, 25680, Note_on_c, 10, 71, 91
11, 25700, Note_off_c, 10, 71, 0
11, 25728, Note_on_c, 10, 69, 91
11, 26106, Control_c, 10, 11, 107
11, 26120, Control_c, 10, 11, 104
11, 26123, Control_c, 10, 11, 103
11, 26148, Control_c, 10, 11, 100
11, 26182, Control_c, 10, 11, 98
11, 26210, Control_c, 10, 11, 94
11, 26235, Control_c, 10, 11, 92
11, 26263, Control_c, 10, 11, 88
11, 26280, Control_c, 10, 11, 86
11, 26297, Control_c, 10, 11, 83
11, 26301, Control_c, 10, 11, 82
11, 26314, Control_c, 10, 11, 79
11, 26329, Control_c, 10, 11, 76
11, 26346, Control_c, 10, 11, 74
11, 26367, Control_c, 10, 11, 70
11, 26384, Control_c, 10, 11, 68
11, 26405, Control_c, 10, 11, 64
11, 26433, Control_c, 10, 11, 62
11, 26450, Control_c, 10, 11, 59
11, 26471, Control_c, 10, 11, 57
11, 26485, Control_c, 10, 11, 53
11, 26488, Control_c, 10, 11, 52
11, 26492, Control_c, 10, 11, 51
11, 26495, Control_c, 10, 11, 50
11, 26499, Control_c, 10, 11, 49
11, 26502, Control_c, 10, 11, 47
11, 26506, Control_c, 10, 11, 46
11, 26508, Note_off_c, 10, 69, 0
11, 26520, Control_c, 10, 11, 44
11, 27202, Control_c, 10, 11, 102
11, 31942, Control_c, 10, 11, 114
11, 32572, Control_c, 10, 10, 64
11, 32640, Note_on_c, 10, 67, 99
11, 32641, Note_on_c, 10, 72, 75
11, 32642, Note_on_c, 10, 76, 124
11, 32760, Note_off_c, 10, 67, 0
11, 32763, Note_off_c, 10, 72, 0
11, 32766, Note_off_c, 10, 76, 0
11, 32783, Note_on_c, 10, 71, 75
11, 32784, Note_on_c, 10, 67, 86
11, 32784, Note_on_c, 10, 74, 124
11, 32831, Note_on_c, 10, 72, 75
11, 32831, Note_on_c, 10, 76, 124
11, 32834, Note_off_c, 10, 71, 0
11, 32835, Note_off_c, 10, 74, 0
11, 32876, Note_off_c, 10, 72, 0
11, 32880, Note_off_c, 10, 76, 0
11, 32887, Note_off_c, 10, 67, 0
11, 32926, Note_on_c, 10, 67, 99
11, 32928, Note_on_c, 10, 77, 124
11, 32929, Note_on_c, 10, 74, 75
11, 32976, Note_off_c, 10, 77, 0
11, 32978, Note_off_c, 10, 67, 0
11, 32980, Note_off_c, 10, 74, 0
11, 33021, Note_on_c, 10, 76, 75
11, 33024, Note_on_c, 10, 72, 99
11, 33025, Note_on_c, 10, 79, 124
11, 33156, Note_off_c, 10, 76, 0
11, 33166, Note_off_c, 10, 72, 0
11, 33169, Note_off_c, 10, 79, 0
11, 33216, Note_on_c, 10, 69, 75
11, 33217, Note_on_c, 10, 65, 99
11, 33217, Note_on_c, 10, 72, 124
11, 33331, Note_off_c, 10, 65, 0
11, 33332, Note_off_c, 10, 69, 0
11, 33334, Note_off_c, 10, 72, 0
11, 33360, Note_on_c, 10, 71, 124
11, 33360, Note_on_c, 10, 65, 86
11, 33361, Note_on_c, 10, 67, 75
11, 33407, Note_on_c, 10, 69, 75
11, 33409, Note_off_c, 10, 67, 0
11, 33409, Note_off_c, 10, 71, 0
11, 33409, Note_on_c, 10, 72, 124
11, 33459, Note_off_c, 10, 69, 0
11, 33460, Note_off_c, 10, 65, 0
11, 33462, Note_off_c, 10, 72, 0
11, 33501, Note_on_c, 10, 71, 75
11, 33502, Note_on_c, 10, 74, 124
11, 33504, Note_on_c, 10, 65, 99
11, 33556, Note_off_c, 10, 65, 0
11, 33557, Note_off_c, 10, 74, 0
11, 33559, Note_off_c, 10, 71, 0
11, 33599, Note_on_c, 10, 76, 124
11, 33600, Note_on_c, 10, 72, 75
11, 33601, Note_on_c, 10, 67, 99
11, 33738, Note_off_c, 10, 72, 0
11, 33742, Note_off_c, 10, 76, 0
11, 33742, Note_off_c, 10, 67, 0
11, 33790, Note_on_c, 10, 69, 122
11, 33792, Note_on_c, 10, 65, 99
11, 33909, Note_off_c, 10, 69, 0
11, 33911, Note_off_c, 10, 65, 0
11, 33936, Note_on_c, 10, 67, 106
11, 33937, Note_on_c, 10, 65, 86
11, 33982, Note_on_c, 10, 69, 122
11, 33988, Note_off_c, 10, 67, 0
11, 34034, Note_off_c, 10, 69, 0
11, 34041, Note_off_c, 10, 65, 0
11, 34045, Control_c, 10, 11, 122
11, 34077, Note_on_c, 10, 65, 99
11, 34080, Note_on_c, 10, 71, 122
11, 34129, Note_off_c, 10, 65, 0
11, 34132, Note_off_c, 10, 71, 0
11, 34175, Note_on_c, 10, 66, 99
11, 34177, Note_on_c, 10, 72, 122
11, 34291, Note_off_c, 10, 66, 0
11, 34293, Note_off_c, 10, 72, 0
11, 34318, Note_on_c, 10, 71, 106
11, 34319, Note_on_c, 10, 66, 86
11, 34368, Note_on_c, 10, 72, 122
11, 34369, Note_off_c, 10, 71, 0
11, 34414, Note_off_c, 10, 66, 0
11, 34420, Note_off_c, 10, 72, 0
11, 34464, Note_on_c, 10, 74, 122
11, 34465, Note_on_c, 10, 66, 99
11, 34516, Note_off_c, 10, 74, 0
11, 34517, Note_off_c, 10, 66, 0
11, 34559, Note_on_c, 10, 67, 99
11, 34560, Note_on_c, 10, 74, 118
11, 34943, Note_on_c, 10, 65, 82
11, 34953, Note_off_c, 10, 67, 0
11, 35346, Note_off_c, 10, 65, 0
11, 35348, Note_off_c, 10, 74, 0
11, 35632, Control_c, 10, 11, 114
11, 38419, Control_c, 10, 10, 94
11, 38784, Note_on_c, 10, 79, 87
11, 38784, Note_on_c, 10, 74, 79
11, 38832, Note_on_c, 10, 76, 63
11, 38832, Note_on_c, 10, 72, 58
11, 38837, Note_off_c, 10, 74, 0
11, 38837, Note_off_c, 10, 79, 0
11, 38846, Note_off_c, 10, 76, 0
11, 38846, Note_off_c, 10, 72, 0
11, 38880, Note_on_c, 10, 79, 87
11, 38880, Note_on_c, 10, 74, 79
11, 38928, Note_on_c, 10, 76, 63
11, 38928, Note_on_c, 10, 72, 58
11, 38931, Note_off_c, 10, 74, 0
11, 38931, Note_off_c, 10, 79, 0
11, 38942, Note_off_c, 10, 76, 0
11, 38942, Note_off_c, 10, 72, 0
11, 38976, Note_on_c, 10, 74, 87
11, 38990, Note_off_c, 10, 74, 0
11, 39024, Note_on_c, 10, 76, 87
11, 39024, Note_on_c, 10, 72, 79
11, 39038, Note_off_c, 10, 72, 0
11, 39038, Note_off_c, 10, 76, 0
11, 39072, Note_on_c, 10, 79, 87
11, 39072, Note_on_c, 10, 74, 79
11, 39120, Note_on_c, 10, 76, 63
11, 39120, Note_on_c, 10, 72, 58
11, 39123, Note_off_c, 10, 74, 0
11, 39123, Note_off_c, 10, 79, 0
11, 39134, Note_off_c, 10, 76, 0
11, 39134, Note_off_c, 10, 72, 0
11, 39168, Note_on_c, 10, 79, 87
11, 39168, Note_on_c, 10, 74, 79
11, 39211, Note_off_c, 10, 74, 0
11, 39211, Note_off_c, 10, 79, 0
11, 39216, Note_on_c, 10, 76, 63
11, 39216, Note_on_c, 10, 72, 58
11, 39230, Note_off_c, 10, 72, 0
11, 39230, Note_off_c, 10, 76, 0
11, 39264, Note_on_c, 10, 74, 87
11, 39278, Note_off_c, 10, 74, 0
11, 39312, Note_on_c, 10, 76, 87
11, 39312, Note_on_c, 10, 72, 79
11, 39326, Note_off_c, 10, 72, 0
11, 39326, Note_off_c, 10, 76, 0
11, 39360, Note_on_c, 10, 79, 87
11, 39360, Note_on_c, 10, 74, 79
11, 39408, Note_on_c, 10, 76, 63
11, 39408, Note_on_c, 10, 72, 58
11, 39413, Note_off_c, 10, 74, 0
11, 39413, Note_off_c, 10, 79, 0
11, 39422, Note_off_c, 10, 76, 0
11, 39422, Note_off_c, 10, 72, 0
11, 39456, Note_on_c, 10, 79, 87
11, 39456, Note_on_c, 10, 74, 79
11, 39504, Note_on_c, 10, 76, 63
11, 39504, Note_on_c, 10, 72, 58
11, 39507, Note_off_c, 10, 74, 0
11, 39507, Note_off_c, 10, 79, 0
11, 39518, Note_off_c, 10, 76, 0
11, 39518, Note_off_c, 10, 72, 0
11, 39552, Note_on_c, 10, 74, 87
11, 39566, Note_off_c, 10, 74, 0
11, 39600, Note_on_c, 10, 76, 87
11, 39600, Note_on_c, 10, 72, 79
11, 39614, Note_off_c, 10, 72, 0
11, 39614, Note_off_c, 10, 76, 0
11, 39648, Note_on_c, 10, 79, 87
11, 39648, Note_on_c, 10, 74, 79
11, 39696, Note_on_c, 10, 76, 63
11, 39696, Note_on_c, 10, 72, 58
11, 39699, Note_off_c, 10, 74, 0
11, 39699, Note_off_c, 10, 79, 0
11, 39710, Note_off_c, 10, 76, 0
11, 39710, Note_off_c, 10, 72, 0
11, 39744, Note_on_c, 10, 79, 87
11, 39744, Note_on_c, 10, 74, 79
11, 39787, Note_off_c, 10, 74, 0
11, 39787, Note_off_c, 10, 79, 0
11, 39792, Note_on_c, 10, 76, 63
11, 39792, Note_on_c, 10, 72, 58
11, 39806, Note_off_c, 10, 72, 0
11, 39806, Note_off_c, 10, 76, 0
11, 39840, Note_on_c, 10, 74, 87
11, 39854, Note_off_c, 10, 74, 0
11, 39888, Note_on_c, 10, 76, 87
11, 39888, Note_on_c, 10, 72, 79
11, 39902, Note_off_c, 10, 72, 0
11, 39902, Note_off_c, 10, 76, 0
11, 39936, Note_on_c, 10, 79, 87
11, 39936, Note_on_c, 10, 74, 79
11, 39984, Note_on_c, 10, 76, 63
11, 39984, Note_on_c, 10, 72, 58
11, 39989, Note_off_c, 10, 74, 0
11, 39989, Note_off_c, 10, 79, 0
11, 39998, Note_off_c, 10, 76, 0
11, 39998, Note_off_c, 10, 72, 0
11, 40032, Note_on_c, 10, 79, 87
11, 40032, Note_on_c, 10, 74, 79
11, 40080, Note_on_c, 10, 76, 63
11, 40080, Note_on_c, 10, 72, 58
11, 40083, Note_off_c, 10, 74, 0
11, 40083, Note_off_c, 10, 79, 0
11, 40094, Note_off_c, 10, 76, 0
11, 40094, Note_off_c, 10, 72, 0
11, 40128, Note_on_c, 10, 74, 87
11, 40142, Note_off_c, 10, 74, 0
11, 40176, Note_on_c, 10, 76, 87
11, 40176, Note_on_c, 10, 72, 79
11, 40190, Note_off_c, 10, 72, 0
11, 40190, Note_off_c, 10, 76, 0
11, 40224, Note_on_c, 10, 79, 87
11, 40224, Note_on_c, 10, 74, 79
11, 40272, Note_on_c, 10, 76, 63
11, 40272, Note_on_c, 10, 72, 58
11, 40275, Note_off_c, 10, 74, 0
11, 40275, Note_off_c, 10, 79, 0
11, 40286, Note_off_c, 10, 76, 0
11, 40286, Note_off_c, 10, 72, 0
11, 40320, Note_on_c, 10, 79, 87
11, 40320, Note_on_c, 10, 74, 79
11, 40363, Note_off_c, 10, 74, 0
11, 40363, Note_off_c, 10, 79, 0
11, 40368, Note_on_c, 10, 76, 63
11, 40368, Note_on_c, 10, 72, 58
11, 40382, Note_off_c, 10, 72, 0
11, 40382, Note_off_c, 10, 76, 0
11, 40416, Note_on_c, 10, 74, 87
11, 40430, Note_off_c, 10, 74, 0
11, 40464, Note_on_c, 10, 76, 87
11, 40464, Note_on_c, 10, 72, 79
11, 40478, Note_off_c, 10, 72, 0
11, 40478, Note_off_c, 10, 76, 0
11, 40512, Note_on_c, 10, 79, 87
11, 40512, Note_on_c, 10, 74, 79
11, 40560, Note_on_c, 10, 76, 63
11, 40560, Note_on_c, 10, 72, 58
11, 40565, Note_off_c, 10, 74, 0
11, 40565, Note_off_c, 10, 79, 0
11, 40574, Note_off_c, 10, 76, 0
11, 40574, Note_off_c, 10, 72, 0
11, 40608, Note_on_c, 10, 79, 87
11, 40608, Note_on_c, 10, 74, 79
11, 40656, Note_on_c, 10, 76, 63
11, 40656, Note_on_c, 10, 72, 58
11, 40659, Note_off_c, 10, 74, 0
11, 40659, Note_off_c, 10, 79, 0
11, 40670, Note_off_c, 10, 76, 0
11, 40670, Note_off_c, 10, 72, 0
11, 40704, Note_on_c, 10, 74, 87
11, 40718, Note_off_c, 10, 74, 0
11, 40752, Note_on_c, 10, 76, 87
11, 40752, Note_on_c, 10, 72, 79
11, 40766, Note_off_c, 10, 72, 0
11, 40766, Note_off_c, 10, 76, 0
11, 40800, Note_on_c, 10, 79, 87
11, 40800, Note_on_c, 10, 74, 79
11, 40848, Note_on_c, 10, 76, 63
11, 40848, Note_on_c, 10, 72, 58
11, 40851, Note_off_c, 10, 74, 0
11, 40851, Note_off_c, 10, 79, 0
11, 40862, Note_off_c, 10, 76, 0
11, 40862, Note_off_c, 10, 72, 0
11, 40896, Note_on_c, 10, 79, 87
11, 40896, Note_on_c, 10, 74, 79
11, 40939, Note_off_c, 10, 74, 0
11, 40939, Note_off_c, 10, 79, 0
11, 40944, Note_on_c, 10, 76, 63
11, 40944, Note_on_c, 10, 72, 58
11, 40958, Note_off_c, 10, 72, 0
11, 40958, Note_off_c, 10, 76, 0
11, 40992, Note_on_c, 10, 74, 87
11, 41006, Note_off_c, 10, 74, 0
11, 41040, Note_on_c, 10, 76, 87
11, 41040, Note_on_c, 10, 72, 79
11, 41054, Note_off_c, 10, 72, 0
11, 41054, Note_off_c, 10, 76, 0
11, 41088, Note_on_c, 10, 79, 87
11, 41088, Note_on_c, 10, 74, 79
11, 41136, Note_on_c, 10, 76, 63
11, 41136, Note_on_c, 10, 72, 58
11, 41141, Note_off_c, 10, 74, 0
11, 41141, Note_off_c, 10, 79, 0
11, 41150, Note_off_c, 10, 76, 0
11, 41150, Note_off_c, 10, 72, 0
11, 41184, Note_on_c, 10, 79, 87
11, 41184, Note_on_c, 10, 74, 79
11, 41232, Note_on_c, 10, 76, 63
11, 41232, Note_on_c, 10, 72, 58
11, 41235, Note_off_c, 10, 74, 0
11, 41235, Note_off_c, 10, 79, 0
11, 41246, Note_off_c, 10, 76, 0
11, 41246, Note_off_c, 10, 72, 0
11, 41280, Note_on_c, 10, 74, 87
11, 41294, Note_off_c, 10, 74, 0
11, 41328, Note_on_c, 10, 76, 87
11, 41328, Note_on_c, 10, 72, 79
11, 41342, Note_off_c, 10, 72, 0
11, 41342, Note_off_c, 10, 76, 0
11, 41376, Note_on_c, 10, 79, 87
11, 41376, Note_on_c, 10, 74, 79
11, 41424, Note_on_c, 10, 76, 63
11, 41424, Note_on_c, 10, 72, 58
11, 41427, Note_off_c, 10, 74, 0
11, 41427, Note_off_c, 10, 79, 0
11, 41438, Note_off_c, 10, 76, 0
11, 41438, Note_off_c, 10, 72, 0
11, 41472, Note_on_c, 10, 79, 87
11, 41472, Note_on_c, 10, 74, 79
11, 41515, Note_off_c, 10, 74, 0
11, 41515, Note_off_c, 10, 79, 0
11, 41520, Note_on_c, 10, 76, 63
11, 41520, Note_on_c, 10, 72, 58
11, 41534, Note_off_c, 10, 72, 0
11, 41534, Note_off_c, 10, 76, 0
11, 41568, Note_on_c, 10, 74, 87
11, 41582, Note_off_c, 10, 74, 0
11, 41616, Note_on_c, 10, 76, 87
11, 41616, Note_on_c, 10, 72, 79
11, 41630, Note_off_c, 10, 72, 0
11, 41630, Note_off_c, 10, 76, 0
11, 41664, Note_on_c, 10, 79, 87
11, 41664, Note_on_c, 10, 74, 79
11, 41712, Note_on_c, 10, 76, 63
11, 41712, Note_on_c, 10, 72, 58
11, 41717, Note_off_c, 10, 74, 0
11, 41717, Note_off_c, 10, 79, 0
11, 41726, Note_off_c, 10, 76, 0
11, 41726, Note_off_c, 10, 72, 0
11, 41760, Note_on_c, 10, 79, 87
11, 41760, Note_on_c, 10, 74, 79
11, 41808, Note_on_c, 10, 76, 63
11, 41808, Note_on_c, 10, 72, 58
11, 41811, Note_off_c, 10, 74, 0
11, 41811, Note_off_c, 10, 79, 0
11, 41822, Note_off_c, 10, 76, 0
11, 41822, Note_off_c, 10, 72, 0
11, 41856, Note_on_c, 10, 74, 87
11, 41870, Note_off_c, 10, 74, 0
11, 41904, Note_on_c, 10, 76, 87
11, 41904, Note_on_c, 10, 72, 79
11, 41918, Note_off_c, 10, 72, 0
11, 41918, Note_off_c, 10, 76, 0
11, 41952, Note_on_c, 10, 79, 87
11, 41952, Note_on_c, 10, 74, 79
11, 42000, Note_on_c, 10, 76, 63
11, 42000, Note_on_c, 10, 72, 58
11, 42003, Note_off_c, 10, 74, 0
11, 42003, Note_off_c, 10, 79, 0
11, 42014, Note_off_c, 10, 76, 0
11, 42014, Note_off_c, 10, 72, 0
11, 42048, Note_on_c, 10, 79, 87
11, 42048, Note_on_c, 10, 74, 79
11, 42091, Note_off_c, 10, 74, 0
11, 42091, Note_off_c, 10, 79, 0
11, 42096, Note_on_c, 10, 76, 63
11, 42096, Note_on_c, 10, 72, 58
11, 42110, Note_off_c, 10, 72, 0
11, 42110, Note_off_c, 10, 76, 0
11, 42144, Note_on_c, 10, 74, 87
11, 42158, Note_off_c, 10, 74, 0
11, 42192, Note_on_c, 10, 76, 87
11, 42192, Note_on_c, 10, 72, 79
11, 42206, Note_off_c, 10, 72, 0
11, 42206, Note_off_c, 10, 76, 0
11, 42240, Note_on_c, 10, 79, 87
11, 42240, Note_on_c, 10, 74, 79
11, 42288, Note_on_c, 10, 76, 63
11, 42288, Note_on_c, 10, 72, 58
11, 42293, Note_off_c, 10, 74, 0
11, 42293, Note_off_c, 10, 79, 0
11, 42302, Note_off_c, 10, 76, 0
11, 42302, Note_off_c, 10, 72, 0
11, 42336, Note_on_c, 10, 79, 87
11, 42336, Note_on_c, 10, 74, 79
11, 42384, Note_on_c, 10, 76, 63
11, 42384, Note_on_c, 10, 72, 58
11, 42387, Note_off_c, 10, 74, 0
11, 42387, Note_off_c, 10, 79, 0
11, 42398, Note_off_c, 10, 76, 0
11, 42398, Note_off_c, 10, 72, 0
11, 42432, Note_on_c, 10, 74, 87
11, 42446, Note_off_c, 10, 74, 0
11, 42480, Note_on_c, 10, 76, 87
11, 42480, Note_on_c, 10, 72, 79
11, 42494, Note_off_c, 10, 72, 0
11, 42494, Note_off_c, 10, 76, 0
11, 42528, Note_on_c, 10, 79, 87
11, 42528, Note_on_c, 10, 74, 79
11, 42576, Note_on_c, 10, 76, 63
11, 42576, Note_on_c, 10, 72, 58
11, 42579, Note_off_c, 10, 74, 0
11, 42579, Note_off_c, 10, 79, 0
11, 42590, Note_off_c, 10, 76, 0
11, 42590, Note_off_c, 10, 72, 0
11, 42624, Note_on_c, 10, 79, 87
11, 42624, Note_on_c, 10, 74, 79
11, 42667, Note_off_c, 10, 74, 0
11, 42667, Note_off_c, 10, 79, 0
11, 42672, Note_on_c, 10, 76, 63
11, 42672, Note_on_c, 10, 72, 58
11, 42686, Note_off_c, 10, 72, 0
11, 42686, Note_off_c, 10, 76, 0
11, 42720, Note_on_c, 10, 74, 87
11, 42734, Note_off_c, 10, 74, 0
11, 42768, Note_on_c, 10, 76, 87
11, 42768, Note_on_c, 10, 72, 79
11, 42782, Note_off_c, 10, 72, 0
11, 42782, Note_off_c, 10, 76, 0
11, 42816, Note_on_c, 10, 79, 87
11, 42816, Note_on_c, 10, 74, 79
11, 42864, Note_on_c, 10, 76, 63
11, 42864, Note_on_c, 10, 72, 58
11, 42869, Note_off_c, 10, 74, 0
11, 42869, Note_off_c, 10, 79, 0
11, 42878, Note_off_c, 10, 76, 0
11, 42878, Note_off_c, 10, 72, 0
11, 42912, Note_on_c, 10, 79, 87
11, 42912, Note_on_c, 10, 74, 79
11, 42960, Note_on_c, 10, 76, 63
11, 42960, Note_on_c, 10, 72, 58
11, 42963, Note_off_c, 10, 74, 0
11, 42963, Note_off_c, 10, 79, 0
11, 42974, Note_off_c, 10, 76, 0
11, 42974, Note_off_c, 10, 72, 0
11, 43008, Note_on_c, 10, 74, 87
11, 43022, Note_off_c, 10, 74, 0
11, 43056, Note_on_c, 10, 76, 87
11, 43056, Note_on_c, 10, 72, 79
11, 43070, Note_off_c, 10, 72, 0
11, 43070, Note_off_c, 10, 76, 0
11, 43104, Note_on_c, 10, 79, 87
11, 43104, Note_on_c, 10, 74, 79
11, 43152, Note_on_c, 10, 76, 63
11, 43152, Note_on_c, 10, 72, 58
11, 43155, Note_off_c, 10, 74, 0
11, 43155, Note_off_c, 10, 79, 0
11, 43166, Note_off_c, 10, 76, 0
11, 43166, Note_off_c, 10, 72, 0
11, 43200, Note_on_c, 10, 79, 87
11, 43200, Note_on_c, 10, 74, 79
11, 43243, Note_off_c, 10, 74, 0
11, 43243, Note_off_c, 10, 79, 0
11, 43248, Note_on_c, 10, 76, 63
11, 43248, Note_on_c, 10, 72, 58
11, 43262, Note_off_c, 10, 72, 0
11, 43262, Note_off_c, 10, 76, 0
11, 43296, Note_on_c, 10, 74, 87
11, 43310, Note_off_c, 10, 74, 0
11, 43344, Note_on_c, 10, 76, 87
11, 43344, Note_on_c, 10, 72, 79
11, 43358, Note_off_c, 10, 72, 0
11, 43358, Note_off_c, 10, 76, 0
11, 43392, Note_on_c, 10, 79, 87
11, 43392, Note_on_c, 10, 74, 79
11, 43440, Note_on_c, 10, 76, 63
11, 43440, Note_on_c, 10, 72, 58
11, 43445, Note_off_c, 10, 74, 0
11, 43445, Note_off_c, 10, 79, 0
11, 43454, Note_off_c, 10, 76, 0
11, 43454, Note_off_c, 10, 72, 0
11, 43462, Control_c, 10, 11, 114
11, 43488, Note_on_c, 10, 79, 87
11, 43488, Note_on_c, 10, 74, 79
11, 43536, Note_on_c, 10, 76, 63
11, 43536, Note_on_c, 10, 72, 58
11, 43539, Note_off_c, 10, 74, 0
11, 43539, Note_off_c, 10, 79, 0
11, 43550, Note_off_c, 10, 76, 0
11, 43550, Note_off_c, 10, 72, 0
11, 43584, Note_on_c, 10, 74, 87
11, 43598, Note_off_c, 10, 74, 0
11, 43632, Note_on_c, 10, 76, 87
11, 43632, Note_on_c, 10, 72, 79
11, 43646, Note_off_c, 10, 72, 0
11, 43646, Note_off_c, 10, 76, 0
11, 43680, Note_on_c, 10, 79, 87
11, 43680, Note_on_c, 10, 74, 79
11, 43728, Note_on_c, 10, 76, 63
11, 43728, Note_on_c, 10, 72, 58
11, 43731, Note_off_c, 10, 74, 0
11, 43731, Note_off_c, 10, 79, 0
11, 43742, Note_off_c, 10, 76, 0
11, 43742, Note_off_c, 10, 72, 0
11, 43776, Note_on_c, 10, 79, 87
11, 43776, Note_on_c, 10, 74, 79
11, 43819, Note_off_c, 10, 74, 0
11, 43819, Note_off_c, 10, 79, 0
11, 43824, Note_on_c, 10, 76, 63
11, 43824, Note_on_c, 10, 72, 58
11, 43838, Note_off_c, 10, 72, 0
11, 43838, Note_off_c, 10, 76, 0
11, 43872, Note_on_c, 10, 74, 87
11, 43886, Note_off_c, 10, 74, 0
11, 43920, Note_on_c, 10, 76, 82
11, 43920, Note_on_c, 10, 72, 75
11, 43934, Note_off_c, 10, 72, 0
11, 43934, Note_off_c, 10, 76, 0
11, 43968, Note_on_c, 10, 79, 79
11, 43968, Note_on_c, 10, 74, 72
11, 44016, Note_on_c, 10, 76, 55
11, 44016, Note_on_c, 10, 72, 51
11, 44021, Note_off_c, 10, 74, 0
11, 44021, Note_off_c, 10, 79, 0
11, 44030, Note_off_c, 10, 76, 0
11, 44030, Note_off_c, 10, 72, 0
11, 44064, Note_on_c, 10, 79, 74
11, 44064, Note_on_c, 10, 74, 67
11, 44112, Note_on_c, 10, 76, 57
11, 44112, Note_on_c, 10, 72, 52
11, 44115, Note_off_c, 10, 74, 0
11, 44115, Note_off_c, 10, 79, 0
11, 44126, Note_off_c, 10, 76, 0
11, 44126, Note_off_c, 10, 72, 0
11, 44160, Note_on_c, 10, 74, 71
11, 44174, Note_off_c, 10, 74, 0
11, 44208, Note_on_c, 10, 76, 69
11, 44208, Note_on_c, 10, 72, 62
11, 44222, Note_off_c, 10, 72, 0
11, 44222, Note_off_c, 10, 76, 0
11, 44256, Note_on_c, 10, 79, 67
11, 44256, Note_on_c, 10, 74, 60
11, 44304, Note_on_c, 10, 76, 47
11, 44304, Note_on_c, 10, 72, 44
11, 44307, Note_off_c, 10, 74, 0
11, 44307, Note_off_c, 10, 79, 0
11, 44318, Note_off_c, 10, 76, 0
11, 44318, Note_off_c, 10, 72, 0
11, 44352, Note_on_c, 10, 79, 64
11, 44352, Note_on_c, 10, 74, 57
11, 44395, Note_off_c, 10, 74, 0
11, 44395, Note_off_c, 10, 79, 0
11, 44400, Note_on_c, 10, 76, 45
11, 44400, Note_on_c, 10, 72, 40
11, 44414, Note_off_c, 10, 72, 0
11, 44414, Note_off_c, 10, 76, 0
11, 44448, Note_on_c, 10, 74, 59
11, 44462, Note_off_c, 10, 74, 0
11, 44496, Note_on_c, 10, 76, 63
11, 44496, Note_on_c, 10, 72, 58
11, 44510, Note_off_c, 10, 72, 0
11, 44510, Note_off_c, 10, 76, 0
11, 44928, Note_on_c, 10, 80, 96
11, 44928, Note_on_c, 10, 75, 88
11, 44976, Note_on_c, 10, 77, 69
11, 44976, Note_on_c, 10, 73, 64
11, 44981, Note_off_c, 10, 75, 0
11, 44981, Note_off_c, 10, 80, 0
11, 44990, Note_off_c, 10, 77, 0
11, 44990, Note_off_c, 10, 73, 0
11, 45024, Note_on_c, 10, 80, 96
11, 45024, Note_on_c, 10, 75, 88
11, 45072, Note_on_c, 10, 77, 69
11, 45072, Note_on_c, 10, 73, 64
11, 45075, Note_off_c, 10, 75, 0
11, 45075, Note_off_c, 10, 80, 0
11, 45086, Note_off_c, 10, 77, 0
11, 45086, Note_off_c, 10, 73, 0
11, 45120, Note_on_c, 10, 75, 96
11, 45134, Note_off_c, 10, 75, 0
11, 45168, Note_on_c, 10, 77, 96
11, 45168, Note_on_c, 10, 73, 88
11, 45182, Note_off_c, 10, 73, 0
11, 45182, Note_off_c, 10, 77, 0
11, 45216, Note_on_c, 10, 80, 96
11, 45216, Note_on_c, 10, 75, 88
11, 45264, Note_on_c, 10, 77, 69
11, 45264, Note_on_c, 10, 73, 64
11, 45267, Note_off_c, 10, 75, 0
11, 45267, Note_off_c, 10, 80, 0
11, 45278, Note_off_c, 10, 77, 0
11, 45278, Note_off_c, 10, 73, 0
11, 45312, Note_on_c, 10, 80, 96
11, 45312, Note_on_c, 10, 75, 88
11, 45355, Note_off_c, 10, 75, 0
11, 45355, Note_off_c, 10, 80, 0
11, 45360, Note_on_c, 10, 77, 69
11, 45360, Note_on_c, 10, 73, 64
11, 45374, Note_off_c, 10, 73, 0
11, 45374, Note_off_c, 10, 77, 0
11, 45408, Note_on_c, 10, 75, 96
11, 45422, Note_off_c, 10, 75, 0
11, 45456, Note_on_c, 10, 77, 96
11, 45456, Note_on_c, 10, 73, 88
11, 45470, Note_off_c, 10, 73, 0
11, 45470, Note_off_c, 10, 77, 0
11, 45504, Note_on_c, 10, 80, 96
11, 45504, Note_on_c, 10, 75, 88
11, 45552, Note_on_c, 10, 77, 69
11, 45552, Note_on_c, 10, 73, 64
11, 45557, Note_off_c, 10, 75, 0
11, 45557, Note_off_c, 10, 80, 0
11, 45566, Note_off_c, 10, 77, 0
11, 45566, Note_off_c, 10, 73, 0
11, 45600, Note_on_c, 10, 80, 96
11, 45600, Note_on_c, 10, 75, 88
11, 45648, Note_on_c, 10, 77, 69
11, 45648, Note_on_c, 10, 73, 64
11, 45651, Note_off_c, 10, 75, 0
11, 45651, Note_off_c, 10, 80, 0
11, 45662, Note_off_c, 10, 77, 0
11, 45662, Note_off_c, 10, 73, 0
11, 45696, Note_on_c, 10, 75, 96
11, 45710, Note_off_c, 10, 75, 0
11, 45744, Note_on_c, 10, 77, 96
11, 45744, Note_on_c, 10, 73, 88
11, 45758, Note_off_c, 10, 73, 0
11, 45758, Note_off_c, 10, 77, 0
11, 45792, Note_on_c, 10, 80, 96
11, 45792, Note_on_c, 10, 75, 88
11, 45840, Note_on_c, 10, 77, 69
11, 45840, Note_on_c, 10, 73, 64
11, 45843, Note_off_c, 10, 75, 0
11, 45843, Note_off_c, 10, 80, 0
11, 45854, Note_off_c, 10, 77, 0
11, 45854, Note_off_c, 10, 73, 0
11, 45888, Note_on_c, 10, 80, 96
11, 45888, Note_on_c, 10, 75, 88
11, 45931, Note_off_c, 10, 75, 0
11, 45931, Note_off_c, 10, 80, 0
11, 45936, Note_on_c, 10, 77, 69
11, 45936, Note_on_c, 10, 73, 64
11, 45950, Note_off_c, 10, 73, 0
11, 45950, Note_off_c, 10, 77, 0
11, 45984, Note_on_c, 10, 75, 96
11, 45998, Note_off_c, 10, 75, 0
11, 46032, Note_on_c, 10, 77, 96
11, 46032, Note_on_c, 10, 73, 88
11, 46046, Note_off_c, 10, 73, 0
11, 46046, Note_off_c, 10, 77, 0
11, 46080, Note_on_c, 10, 80, 96
11, 46080, Note_on_c, 10, 75, 88
11, 46128, Note_on_c, 10, 77, 69
11, 46128, Note_on_c, 10, 73, 64
11, 46133, Note_off_c, 10, 75, 0
11, 46133, Note_off_c, 10, 80, 0
11, 46142, Note_off_c, 10, 77, 0
11, 46142, Note_off_c, 10, 73, 0
11, 46176, Note_on_c, 10, 80, 96
11, 46176, Note_on_c, 10, 75, 88
11, 46224, Note_on_c, 10, 77, 69
11, 46224, Note_on_c, 10, 73, 64
11, 46227, Note_off_c, 10, 75, 0
11, 46227, Note_off_c, 10, 80, 0
11, 46238, Note_off_c, 10, 77, 0
11, 46238, Note_off_c, 10, 73, 0
11, 46272, Note_on_c, 10, 75, 96
11, 46286, Note_off_c, 10, 75, 0
11, 46320, Note_on_c, 10, 77, 96
11, 46320, Note_on_c, 10, 73, 88
11, 46334, Note_off_c, 10, 73, 0
11, 46334, Note_off_c, 10, 77, 0
11, 46368, Note_on_c, 10, 80, 96
11, 46368, Note_on_c, 10, 75, 88
11, 46416, Note_on_c, 10, 77, 69
11, 46416, Note_on_c, 10, 73, 64
11, 46419, Note_off_c, 10, 75, 0
11, 46419, Note_off_c, 10, 80, 0
11, 46430, Note_off_c, 10, 77, 0
11, 46430, Note_off_c, 10, 73, 0
11, 46464, Note_on_c, 10, 80, 96
11, 46464, Note_on_c, 10, 75, 88
11, 46507, Note_off_c, 10, 75, 0
11, 46507, Note_off_c, 10, 80, 0
11, 46512, Note_on_c, 10, 77, 69
11, 46512, Note_on_c, 10, 73, 64
11, 46526, Note_off_c, 10, 73, 0
11, 46526, Note_off_c, 10, 77, 0
11, 46560, Note_on_c, 10, 75, 96
11, 46574, Note_off_c, 10, 75, 0
11, 46608, Note_on_c, 10, 77, 96
11, 46608, Note_on_c, 10, 73, 88
11, 46622, Note_off_c, 10, 73, 0
11, 46622, Note_off_c, 10, 77, 0
11, 46656, Note_on_c, 10, 80, 96
11, 46656, Note_on_c, 10, 75, 88
11, 46704, Note_on_c, 10, 77, 69
11, 46704, Note_on_c, 10, 73, 64
11, 46709, Note_off_c, 10, 75, 0
11, 46709, Note_off_c, 10, 80, 0
11, 46718, Note_off_c, 10, 77, 0
11, 46718, Note_off_c, 10, 73, 0
11, 46752, Note_on_c, 10, 80, 96
11, 46752, Note_on_c, 10, 75, 88
11, 46800, Note_on_c, 10, 77, 69
11, 46800, Note_on_c, 10, 73, 64
11, 46803, Note_off_c, 10, 75, 0
11, 46803, Note_off_c, 10, 80, 0
11, 46814, Note_off_c, 10, 77, 0
11, 46814, Note_off_c, 10, 73, 0
11, 46848, Note_on_c, 10, 75, 96
11, 46862, Note_off_c, 10, 75, 0
11, 46896, Note_on_c, 10, 77, 96
11, 46896, Note_on_c, 10, 73, 88
11, 46910, Note_off_c, 10, 73, 0
11, 46910, Note_off_c, 10, 77, 0
11, 46944, Note_on_c, 10, 80, 96
11, 46944, Note_on_c, 10, 75, 88
11, 46992, Note_on_c, 10, 77, 69
11, 46992, Note_on_c, 10, 73, 64
11, 46995, Note_off_c, 10, 75, 0
11, 46995, Note_off_c, 10, 80, 0
11, 47006, Note_off_c, 10, 77, 0
11, 47006, Note_off_c, 10, 73, 0
11, 47040, Note_on_c, 10, 80, 96
11, 47040, Note_on_c, 10, 75, 88
11, 47083, Note_off_c, 10, 75, 0
11, 47083, Note_off_c, 10, 80, 0
11, 47088, Note_on_c, 10, 77, 69
11, 47088, Note_on_c, 10, 73, 64
11, 47102, Note_off_c, 10, 73, 0
11, 47102, Note_off_c, 10, 77, 0
11, 47136, Note_on_c, 10, 75, 96
11, 47150, Note_off_c, 10, 75, 0
11, 47184, Note_on_c, 10, 77, 96
11, 47184, Note_on_c, 10, 73, 88
11, 47198, Note_off_c, 10, 73, 0
11, 47198, Note_off_c, 10, 77, 0
11, 47232, Note_on_c, 10, 80, 96
11, 47232, Note_on_c, 10, 75, 88
11, 47280, Note_on_c, 10, 77, 69
11, 47280, Note_on_c, 10, 73, 64
11, 47285, Note_off_c, 10, 75, 0
11, 47285, Note_off_c, 10, 80, 0
11, 47294, Note_off_c, 10, 77, 0
11, 47294, Note_off_c, 10, 73, 0
11, 47328, Note_on_c, 10, 80, 96
11, 47328, Note_on_c, 10, 75, 88
11, 47376, Note_on_c, 10, 77, 69
11, 47376, Note_on_c, 10, 73, 64
11, 47379, Note_off_c, 10, 75, 0
11, 47379, Note_off_c, 10, 80, 0
11, 47390, Note_off_c, 10, 77, 0
11, 47390, Note_off_c, 10, 73, 0
11, 47424, Note_on_c, 10, 75, 96
11, 47438, Note_off_c, 10, 75, 0
11, 47472, Note_on_c, 10, 77, 96
11, 47472, Note_on_c, 10, 73, 88
11, 47486, Note_off_c, 10, 73, 0
11, 47486, Note_off_c, 10, 77, 0
11, 47520, Note_on_c, 10, 80, 96
11, 47520, Note_on_c, 10, 75, 88
11, 47568, Note_on_c, 10, 77, 69
11, 47568, Note_on_c, 10, 73, 64
11, 47571, Note_off_c, 10, 75, 0
11, 47571, Note_off_c, 10, 80, 0
11, 47582, Note_off_c, 10, 77, 0
11, 47582, Note_off_c, 10, 73, 0
11, 47616, Note_on_c, 10, 80, 96
11, 47616, Note_on_c, 10, 75, 88
11, 47659, Note_off_c, 10, 75, 0
11, 47659, Note_off_c, 10, 80, 0
11, 47664, Note_on_c, 10, 77, 69
11, 47664, Note_on_c, 10, 73, 64
11, 47678, Note_off_c, 10, 73, 0
11, 47678, Note_off_c, 10, 77, 0
11, 47712, Note_on_c, 10, 75, 96
11, 47726, Note_off_c, 10, 75, 0
11, 47760, Note_on_c, 10, 77, 96
11, 47760, Note_on_c, 10, 73, 88
11, 47774, Note_off_c, 10, 73, 0
11, 47774, Note_off_c, 10, 77, 0
11, 47808, Note_on_c, 10, 80, 96
11, 47808, Note_on_c, 10, 75, 88
11, 47856, Note_on_c, 10, 77, 69
11, 47856, Note_on_c, 10, 73, 64
11, 47861, Note_off_c, 10, 75, 0
11, 47861, Note_off_c, 10, 80, 0
11, 47870, Note_off_c, 10, 77, 0
11, 47870, Note_off_c, 10, 73, 0
11, 47904, Note_on_c, 10, 80, 96
11, 47904, Note_on_c, 10, 75, 88
11, 47952, Note_on_c, 10, 77, 69
11, 47952, Note_on_c, 10, 73, 64
11, 47955, Note_off_c, 10, 75, 0
11, 47955, Note_off_c, 10, 80, 0
11, 47966, Note_off_c, 10, 77, 0
11, 47966, Note_off_c, 10, 73, 0
11, 48000, Note_on_c, 10, 75, 96
11, 48014, Note_off_c, 10, 75, 0
11, 48048, Note_on_c, 10, 77, 96
11, 48048, Note_on_c, 10, 73, 88
11, 48062, Note_off_c, 10, 73, 0
11, 48062, Note_off_c, 10, 77, 0
11, 48096, Note_on_c, 10, 80, 96
11, 48096, Note_on_c, 10, 75, 88
11, 48144, Note_on_c, 10, 77, 69
11, 48144, Note_on_c, 10, 73, 64
11, 48147, Note_off_c, 10, 75, 0
11, 48147, Note_off_c, 10, 80, 0
11, 48158, Note_off_c, 10, 77, 0
11, 48158, Note_off_c, 10, 73, 0
11, 48192, Note_on_c, 10, 80, 96
11, 48192, Note_on_c, 10, 75, 88
11, 48235, Note_off_c, 10, 75, 0
11, 48235, Note_off_c, 10, 80, 0
11, 48240, Note_on_c, 10, 77, 69
11, 48240, Note_on_c, 10, 73, 64
11, 48254, Note_off_c, 10, 73, 0
11, 48254, Note_off_c, 10, 77, 0
11, 48288, Note_on_c, 10, 75, 96
11, 48302, Note_off_c, 10, 75, 0
11, 48336, Note_on_c, 10, 77, 96
11, 48336, Note_on_c, 10, 73, 88
11, 48350, Note_off_c, 10, 73, 0
11, 48350, Note_off_c, 10, 77, 0
11, 48384, Note_on_c, 10, 80, 96
11, 48384, Note_on_c, 10, 75, 88
11, 48432, Note_on_c, 10, 77, 69
11, 48432, Note_on_c, 10, 73, 64
11, 48437, Note_off_c, 10, 75, 0
11, 48437, Note_off_c, 10, 80, 0
11, 48446, Note_off_c, 10, 77, 0
11, 48446, Note_off_c, 10, 73, 0
11, 48480, Note_on_c, 10, 80, 96
11, 48480, Note_on_c, 10, 75, 88
11, 48528, Note_on_c, 10, 77, 69
11, 48528, Note_on_c, 10, 73, 64
11, 48531, Note_off_c, 10, 75, 0
11, 48531, Note_off_c, 10, 80, 0
11, 48542, Note_off_c, 10, 77, 0
11, 48542, Note_off_c, 10, 73, 0
11, 48576, Note_on_c, 10, 75, 96
11, 48590, Note_off_c, 10, 75, 0
11, 48624, Note_on_c, 10, 77, 96
11, 48624, Note_on_c, 10, 73, 88
11, 48638, Note_off_c, 10, 73, 0
11, 48638, Note_off_c, 10, 77, 0
11, 48672, Note_on_c, 10, 80, 96
11, 48672, Note_on_c, 10, 75, 88
11, 48720, Note_on_c, 10, 77, 69
11, 48720, Note_on_c, 10, 73, 64
11, 48723, Note_off_c, 10, 75, 0
11, 48723, Note_off_c, 10, 80, 0
11, 48734, Note_off_c, 10, 77, 0
11, 48734, Note_off_c, 10, 73, 0
11, 48768, Note_on_c, 10, 80, 96
11, 48768, Note_on_c, 10, 75, 88
11, 48811, Note_off_c, 10, 75, 0
11, 48811, Note_off_c, 10, 80, 0
11, 48816, Note_on_c, 10, 77, 69
11, 48816, Note_on_c, 10, 73, 64
11, 48830, Note_off_c, 10, 73, 0
11, 48830, Note_off_c, 10, 77, 0
11, 48864, Note_on_c, 10, 75, 96
11, 48878, Note_off_c, 10, 75, 0
11, 48912, Note_on_c, 10, 77, 96
11, 48912, Note_on_c, 10, 73, 88
11, 48926, Note_off_c, 10, 73, 0
11, 48926, Note_off_c, 10, 77, 0
11, 48960, Note_on_c, 10, 80, 96
11, 48960, Note_on_c, 10, 75, 88
11, 49008, Note_on_c, 10, 77, 69
11, 49008, Note_on_c, 10, 73, 64
11, 49013, Note_off_c, 10, 75, 0
11, 49013, Note_off_c, 10, 80, 0
11, 49022, Note_off_c, 10, 77, 0
11, 49022, Note_off_c, 10, 73, 0
11, 49056, Note_on_c, 10, 80, 96
11, 49056, Note_on_c, 10, 75, 88
11, 49104, Note_on_c, 10, 77, 69
11, 49104, Note_on_c, 10, 73, 64
11, 49107, Note_off_c, 10, 75, 0
11, 49107, Note_off_c, 10, 80, 0
11, 49118, Note_off_c, 10, 77, 0
11, 49118, Note_off_c, 10, 73, 0
11, 49152, Note_on_c, 10, 75, 96
11, 49166, Note_off_c, 10, 75, 0
11, 49200, Note_on_c, 10, 77, 96
11, 49200, Note_on_c, 10, 73, 88
11, 49214, Note_off_c, 10, 73, 0
11, 49214, Note_off_c, 10, 77, 0
11, 49248, Note_on_c, 10, 80, 96
11, 49248, Note_on_c, 10, 75, 88
11, 49296, Note_on_c, 10, 77, 69
11, 49296, Note_on_c, 10, 73, 64
11, 49299, Note_off_c, 10, 75, 0
11, 49299, Note_off_c, 10, 80, 0
11, 49310, Note_off_c, 10, 77, 0
11, 49310, Note_off_c, 10, 73, 0
11, 49344, Note_on_c, 10, 80, 96
11, 49344, Note_on_c, 10, 75, 88
11, 49387, Note_off_c, 10, 75, 0
11, 49387, Note_off_c, 10, 80, 0
11, 49392, Note_on_c, 10, 77, 69
11, 49392, Note_on_c, 10, 73, 64
11, 49406, Note_off_c, 10, 73, 0
11, 49406, Note_off_c, 10, 77, 0
11, 49440, Note_on_c, 10, 75, 96
11, 49454, Note_off_c, 10, 75, 0
11, 49488, Note_on_c, 10, 77, 96
11, 49488, Note_on_c, 10, 73, 88
11, 49502, Note_off_c, 10, 73, 0
11, 49502, Note_off_c, 10, 77, 0
11, 49536, Note_on_c, 10, 80, 96
11, 49536, Note_on_c, 10, 75, 88
11, 49584, Note_on_c, 10, 77, 69
11, 49584, Note_on_c, 10, 73, 64
11, 49589, Note_off_c, 10, 75, 0
11, 49589, Note_off_c, 10, 80, 0
11, 49598, Note_off_c, 10, 77, 0
11, 49598, Note_off_c, 10, 73, 0
11, 49606, Control_c, 10, 11, 114
11, 49632, Note_on_c, 10, 80, 96
11, 49632, Note_on_c, 10, 75, 88
11, 49680, Note_on_c, 10, 77, 69
11, 49680, Note_on_c, 10, 73, 64
11, 49683, Note_off_c, 10, 75, 0
11, 49683, Note_off_c, 10, 80, 0
11, 49694, Note_off_c, 10, 77, 0
11, 49694, Note_off_c, 10, 73, 0
11, 49728, Note_on_c, 10, 75, 96
11, 49742, Note_off_c, 10, 75, 0
11, 49776, Note_on_c, 10, 77, 96
11, 49776, Note_on_c, 10, 73, 88
11, 49790, Note_off_c, 10, 73, 0
11, 49790, Note_off_c, 10, 77, 0
11, 49824, Note_on_c, 10, 80, 96
11, 49824, Note_on_c, 10, 75, 88
11, 49872, Note_on_c, 10, 77, 69
11, 49872, Note_on_c, 10, 73, 64
11, 49875, Note_off_c, 10, 75, 0
11, 49875, Note_off_c, 10, 80, 0
11, 49886, Note_off_c, 10, 77, 0
11, 49886, Note_off_c, 10, 73, 0
11, 49920, Note_on_c, 10, 80, 96
11, 49920, Note_on_c, 10, 75, 88
11, 49963, Note_off_c, 10, 75, 0
11, 49963, Note_off_c, 10, 80, 0
11, 49968, Note_on_c, 10, 77, 69
11, 49968, Note_on_c, 10, 73, 64
11, 49982, Note_off_c, 10, 73, 0
11, 49982, Note_off_c, 10, 77, 0
11, 50016, Note_on_c, 10, 75, 96
11, 50030, Note_off_c, 10, 75, 0
11, 50064, Note_on_c, 10, 77, 102
11, 50064, Note_on_c, 10, 73, 94
11, 50078, Note_off_c, 10, 73, 0
11, 50078, Note_off_c, 10, 77, 0
11, 50112, Note_on_c, 10, 80, 102
11, 50112, Note_on_c, 10, 75, 94
11, 50155, Note_off_c, 10, 75, 0
11, 50155, Note_off_c, 10, 80, 0
11, 50160, Note_on_c, 10, 77, 74
11, 50160, Note_on_c, 10, 73, 68
11, 50174, Note_off_c, 10, 73, 0
11, 50174, Note_off_c, 10, 77, 0
11, 50208, Note_on_c, 10, 75, 102
11, 50222, Note_off_c, 10, 75, 0
11, 50236, Control_c, 10, 10, 64
11, 50256, Note_on_c, 10, 73, 94
11, 50271, Note_off_c, 10, 73, 0
11, 50304, Note_on_c, 10, 68, 90
11, 50305, Note_on_c, 10, 73, 68
11, 50306, Note_on_c, 10, 77, 113
11, 50424, Note_off_c, 10, 68, 0
11, 50427, Note_off_c, 10, 73, 0
11, 50430, Note_off_c, 10, 77, 0
11, 50447, Note_on_c, 10, 72, 68
11, 50448, Note_on_c, 10, 68, 78
11, 50448, Note_on_c, 10, 75, 113
11, 50495, Note_on_c, 10, 73, 68
11, 50495, Note_on_c, 10, 77, 113
11, 50498, Note_off_c, 10, 72, 0
11, 50499, Note_off_c, 10, 75, 0
11, 50540, Note_off_c, 10, 73, 0
11, 50544, Note_off_c, 10, 77, 0
11, 50551, Note_off_c, 10, 68, 0
11, 50590, Note_on_c, 10, 68, 90
11, 50592, Note_on_c, 10, 78, 113
11, 50593, Note_on_c, 10, 75, 68
11, 50640, Note_off_c, 10, 78, 0
11, 50642, Note_off_c, 10, 68, 0
11, 50644, Note_off_c, 10, 75, 0
11, 50685, Note_on_c, 10, 77, 68
11, 50688, Note_on_c, 10, 73, 90
11, 50689, Note_on_c, 10, 80, 113
11, 50820, Note_off_c, 10, 77, 0
11, 50830, Note_off_c, 10, 73, 0
11, 50833, Note_off_c, 10, 80, 0
11, 50880, Note_on_c, 10, 70, 68
11, 50881, Note_on_c, 10, 66, 90
11, 50881, Note_on_c, 10, 73, 113
11, 50995, Note_off_c, 10, 66, 0
11, 50996, Note_off_c, 10, 70, 0
11, 50998, Note_off_c, 10, 73, 0
11, 51024, Note_on_c, 10, 72, 113
11, 51024, Note_on_c, 10, 66, 78
11, 51025, Note_on_c, 10, 68, 68
11, 51071, Note_on_c, 10, 70, 68
11, 51073, Note_off_c, 10, 68, 0
11, 51073, Note_off_c, 10, 72, 0
11, 51073, Note_on_c, 10, 73, 113
11, 51123, Note_off_c, 10, 70, 0
11, 51124, Note_off_c, 10, 66, 0
11, 51126, Note_off_c, 10, 73, 0
11, 51165, Note_on_c, 10, 72, 68
11, 51166, Note_on_c, 10, 75, 113
11, 51168, Note_on_c, 10, 66, 90
11, 51220, Note_off_c, 10, 66, 0
11, 51221, Note_off_c, 10, 75, 0
11, 51223, Note_off_c, 10, 72, 0
11, 51263, Note_on_c, 10, 77, 113
11, 51264, Note_on_c, 10, 73, 68
11, 51265, Note_on_c, 10, 68, 90
11, 51402, Note_off_c, 10, 73, 0
11, 51406, Note_off_c, 10, 77, 0
11, 51406, Note_off_c, 10, 68, 0
11, 51454, Note_on_c, 10, 70, 111
11, 51456, Note_on_c, 10, 66, 90
11, 51573, Note_off_c, 10, 70, 0
11, 51575, Note_off_c, 10, 66, 0
11, 51600, Note_on_c, 10, 68, 96
11, 51601, Note_on_c, 10, 66, 78
11, 51646, Note_on_c, 10, 70, 111
11, 51652, Note_off_c, 10, 68, 0
11, 51698, Note_off_c, 10, 70, 0
11, 51705, Note_off_c, 10, 66, 0
11, 51741, Note_on_c, 10, 66, 90
11, 51744, Note_on_c, 10, 72, 111
11, 51793, Note_off_c, 10, 66, 0
11, 51796, Note_off_c, 10, 72, 0
11, 51839, Note_on_c, 10, 67, 90
11, 51841, Note_on_c, 10, 73, 111
11, 51955, Note_off_c, 10, 67, 0
11, 51957, Note_off_c, 10, 73, 0
11, 51982, Note_on_c, 10, 72, 96
11, 51983, Note_on_c, 10, 67, 78
11, 52032, Note_on_c, 10, 73, 111
11, 52033, Note_off_c, 10, 72, 0
11, 52078, Note_off_c, 10, 67, 0
11, 52084, Note_off_c, 10, 73, 0
11, 52128, Note_on_c, 10, 75, 111
11, 52129, Note_on_c, 10, 67, 90
11, 52180, Note_off_c, 10, 75, 0
11, 52181, Note_off_c, 10, 67, 0
11, 52224, Note_on_c, 10, 75, 111
11, 52224, Note_on_c, 10, 68, 90
11, 52870, Note_off_c, 10, 68, 0
11, 52870, Note_off_c, 10, 75, 0
11, 52896, Note_on_c, 10, 68, 102
11, 52976, Note_off_c, 10, 68, 0
11, 52992, Note_on_c, 10, 68, 90
11, 52993, Note_on_c, 10, 73, 68
11, 52994, Note_on_c, 10, 77, 113
11, 53112, Note_off_c, 10, 68, 0
11, 53115, Note_off_c, 10, 73, 0
11, 53118, Note_off_c, 10, 77, 0
11, 53135, Note_on_c, 10, 72, 68
11, 53136, Note_on_c, 10, 68, 78
11, 53136, Note_on_c, 10, 75, 113
11, 53183, Note_on_c, 10, 73, 68
11, 53183, Note_on_c, 10, 77, 113
11, 53186, Note_off_c, 10, 72, 0
11, 53187, Note_off_c, 10, 75, 0
11, 53228, Note_off_c, 10, 73, 0
11, 53232, Note_off_c, 10, 77, 0
11, 53239, Note_off_c, 10, 68, 0
11, 53278, Note_on_c, 10, 68, 90
11, 53280, Note_on_c, 10, 78, 113
11, 53281, Note_on_c, 10, 75, 68
11, 53328, Note_off_c, 10, 78, 0
11, 53330, Note_off_c, 10, 68, 0
11, 53332, Note_off_c, 10, 75, 0
11, 53373, Note_on_c, 10, 77, 68
11, 53376, Note_on_c, 10, 73, 90
11, 53377, Note_on_c, 10, 80, 113
11, 53508, Note_off_c, 10, 77, 0
11, 53518, Note_off_c, 10, 73, 0
11, 53521, Note_off_c, 10, 80, 0
11, 53568, Note_on_c, 10, 70, 68
11, 53569, Note_on_c, 10, 66, 90
11, 53569, Note_on_c, 10, 73, 113
11, 53683, Note_off_c, 10, 66, 0
11, 53684, Note_off_c, 10, 70, 0
11, 53686, Note_off_c, 10, 73, 0
11, 53712, Note_on_c, 10, 72, 113
11, 53712, Note_on_c, 10, 66, 78
11, 53713, Note_on_c, 10, 68, 68
11, 53759, Note_on_c, 10, 70, 68
11, 53761, Note_off_c, 10, 68, 0
11, 53761, Note_off_c, 10, 72, 0
11, 53761, Note_on_c, 10, 73, 113
11, 53811, Note_off_c, 10, 70, 0
11, 53812, Note_off_c, 10, 66, 0
11, 53814, Note_off_c, 10, 73, 0
11, 53853, Note_on_c, 10, 72, 68
11, 53854, Note_on_c, 10, 75, 113
11, 53856, Note_on_c, 10, 66, 90
11, 53908, Note_off_c, 10, 66, 0
11, 53909, Note_off_c, 10, 75, 0
11, 53911, Note_off_c, 10, 72, 0
11, 53951, Note_on_c, 10, 77, 113
11, 53952, Note_on_c, 10, 73, 68
11, 53953, Note_on_c, 10, 68, 90
11, 54092, Control_c, 10, 11, 114
11, 54099, Control_c, 10, 11, 113
11, 54127, Control_c, 10, 11, 112
11, 54142, Control_c, 10, 11, 111
11, 54156, Control_c, 10, 11, 110
11, 54163, Control_c, 10, 11, 109
11, 54170, Control_c, 10, 11, 108
11, 54177, Control_c, 10, 11, 107
11, 54184, Control_c, 10, 11, 106
11, 54191, Control_c, 10, 11, 105
11, 54198, Control_c, 10, 11, 104
11, 54205, Control_c, 10, 11, 103
11, 54212, Control_c, 10, 11, 101
11, 54219, Control_c, 10, 11, 100
11, 54226, Control_c, 10, 11, 98
11, 54233, Control_c, 10, 11, 97
11, 54240, Control_c, 10, 11, 95
11, 54248, Control_c, 10, 11, 93
11, 54254, Control_c, 10, 11, 91
11, 54262, Control_c, 10, 11, 89
11, 54269, Control_c, 10, 11, 87
11, 54276, Control_c, 10, 11, 85
11, 54283, Control_c, 10, 11, 83
11, 54290, Control_c, 10, 11, 80
11, 54297, Control_c, 10, 11, 78
11, 54304, Control_c, 10, 11, 76
11, 54311, Control_c, 10, 11, 73
11, 54318, Control_c, 10, 11, 70
11, 54325, Control_c, 10, 11, 68
11, 54332, Control_c, 10, 11, 65
11, 54339, Control_c, 10, 11, 62
11, 54345, Note_off_c, 10, 73, 0
11, 54345, Control_c, 10, 11, 60
11, 54349, Note_off_c, 10, 77, 0
11, 54349, Note_off_c, 10, 68, 0
11, 54499, Control_c, 10, 11, 114
11, 56640, Note_on_c, 10, 68, 93
11, 56641, Note_on_c, 10, 73, 71
11, 56642, Note_on_c, 10, 77, 126
11, 56760, Note_off_c, 10, 68, 0
11, 56763, Note_off_c, 10, 73, 0
11, 56766, Note_off_c, 10, 77, 0
11, 56783, Note_on_c, 10, 72, 71
11, 56784, Note_on_c, 10, 68, 81
11, 56784, Note_on_c, 10, 75, 126
11, 56831, Note_on_c, 10, 73, 71
11, 56831, Note_on_c, 10, 77, 126
11, 56834, Note_off_c, 10, 72, 0
11, 56835, Note_off_c, 10, 75, 0
11, 56876, Note_off_c, 10, 73, 0
11, 56880, Note_off_c, 10, 77, 0
11, 56887, Note_off_c, 10, 68, 0
11, 56926, Note_on_c, 10, 68, 93
11, 56928, Note_on_c, 10, 78, 126
11, 56929, Note_on_c, 10, 75, 71
11, 56976, Note_off_c, 10, 78, 0
11, 56978, Note_off_c, 10, 68, 0
11, 56980, Note_off_c, 10, 75, 0
11, 57021, Note_on_c, 10, 77, 71
11, 57024, Note_on_c, 10, 73, 93
11, 57025, Note_on_c, 10, 80, 126
11, 57156, Note_off_c, 10, 77, 0
11, 57166, Note_off_c, 10, 73, 0
11, 57169, Note_off_c, 10, 80, 0
11, 57216, Note_on_c, 10, 70, 71
11, 57217, Note_on_c, 10, 66, 93
11, 57217, Note_on_c, 10, 73, 126
11, 57331, Note_off_c, 10, 66, 0
11, 57332, Note_off_c, 10, 70, 0
11, 57334, Note_off_c, 10, 73, 0
11, 57360, Note_on_c, 10, 72, 126
11, 57360, Note_on_c, 10, 66, 81
11, 57361, Note_on_c, 10, 68, 71
11, 57407, Note_on_c, 10, 70, 71
11, 57409, Note_off_c, 10, 68, 0
11, 57409, Note_off_c, 10, 72, 0
11, 57409, Note_on_c, 10, 73, 126
11, 57460, Note_off_c, 10, 66, 0
11, 57471, Note_off_c, 10, 70, 0
11, 57473, Note_off_c, 10, 73, 0
11, 57596, Note_on_c, 10, 72, 71
11, 57597, Note_on_c, 10, 75, 126
11, 57599, Note_on_c, 10, 66, 93
11, 57660, Note_off_c, 10, 75, 0
11, 57660, Note_off_c, 10, 72, 0
11, 57663, Note_off_c, 10, 66, 0
11, 57790, Note_on_c, 10, 77, 126
11, 57790, Note_on_c, 10, 73, 71
11, 57792, Note_on_c, 10, 68, 93
11, 57799, Control_c, 10, 11, 114
11, 57803, Control_c, 10, 11, 113
11, 57812, Control_c, 10, 11, 112
11, 57816, Control_c, 10, 11, 110
11, 57820, Control_c, 10, 11, 108
11, 57824, Control_c, 10, 11, 106
11, 57828, Control_c, 10, 11, 103
11, 57833, Control_c, 10, 11, 100
11, 57837, Control_c, 10, 11, 97
11, 57841, Control_c, 10, 11, 93
11, 57846, Control_c, 10, 11, 89
11, 57850, Control_c, 10, 11, 84
11, 57854, Control_c, 10, 11, 79
11, 57855, Control_c, 10, 11, 78
11, 57867, Control_c, 10, 11, 78
11, 57876, Control_c, 10, 11, 78
11, 57885, Control_c, 10, 11, 79
11, 57894, Control_c, 10, 11, 80
11, 57902, Control_c, 10, 11, 81
11, 57911, Control_c, 10, 11, 82
11, 57920, Control_c, 10, 11, 83
11, 57928, Control_c, 10, 11, 84
11, 57937, Control_c, 10, 11, 85
11, 57946, Control_c, 10, 11, 86
11, 57955, Control_c, 10, 11, 87
11, 57964, Control_c, 10, 11, 88
11, 57972, Control_c, 10, 11, 89
11, 57981, Control_c, 10, 11, 90
11, 57990, Control_c, 10, 11, 91
11, 57999, Control_c, 10, 11, 92
11, 58008, Control_c, 10, 11, 93
11, 58016, Control_c, 10, 11, 94
11, 58025, Control_c, 10, 11, 95
11, 58034, Control_c, 10, 11, 96
11, 58043, Control_c, 10, 11, 97
11, 58052, Control_c, 10, 11, 98
11, 58060, Control_c, 10, 11, 99
11, 58069, Control_c, 10, 11, 100
11, 58078, Control_c, 10, 11, 101
11, 58087, Control_c, 10, 11, 102
11, 58096, Control_c, 10, 11, 103
11, 58104, Control_c, 10, 11, 104
11, 58113, Control_c, 10, 11, 105
11, 58122, Control_c, 10, 11, 106
11, 58131, Control_c, 10, 11, 107
11, 58140, Control_c, 10, 11, 108
11, 58148, Control_c, 10, 11, 109
11, 58157, Control_c, 10, 11, 110
11, 58166, Control_c, 10, 11, 111
11, 58175, Control_c, 10, 11, 112
11, 58184, Control_c, 10, 11, 113
11, 58192, Control_c, 10, 11, 114
11, 58201, Control_c, 10, 11, 115
11, 58210, Control_c, 10, 11, 116
11, 58219, Control_c, 10, 11, 117
11, 58228, Control_c, 10, 11, 118
11, 58236, Control_c, 10, 11, 119
11, 58245, Control_c, 10, 11, 120
11, 58254, Control_c, 10, 11, 121
11, 58263, Control_c, 10, 11, 122
11, 58272, Control_c, 10, 11, 123
11, 58280, Control_c, 10, 11, 124
11, 58289, Control_c, 10, 11, 125
11, 58298, Control_c, 10, 11, 127
11, 58369, Note_off_c, 10, 73, 0
11, 58372, Note_off_c, 10, 77, 0
11, 58373, Note_off_c, 10, 68, 0
11, 58952, Control_c, 10, 121, 0
11, 58960, Control_c, 10, 91, 0
11, 58968, Control_c, 10, 93, 0
11, 58976, Control_c, 10, 99, 1
11, 58984, Control_c, 10, 98, 8
11, 58992, Control_c, 10, 6, 64
11, 59000, Control_c, 10, 98, 99
11, 59008, Control_c, 10, 6, 64
11, 59016, Control_c, 10, 98, 100
11, 59024, Control_c, 10, 6, 64
11, 59024, End_track
12, 0, Start_track
12, 0, Title_t, "Dist Guit"
12, 0, Channel_prefix, 11
12, 0, Control_c, 11, 7, 127
12, 0, Control_c, 11, 10, 34
12, 0, Program_c, 11, 41
12, 40, Control_c, 11, 121, 0
12, 48, Control_c, 11, 11, 80
12, 64, Control_c, 11, 91, 100
12, 72, Control_c, 11, 93, 5
12, 36864, Control_c, 11, 10, 34
12, 36864, Control_c, 11, 7, 127
12, 36864, Program_c, 11, 30
12, 36864, Note_on_c, 11, 55, 92
12, 36864, Note_on_c, 11, 48, 99
12, 37248, Note_on_c, 11, 50, 99
12, 37248, Note_on_c, 11, 57, 92
12, 37252, Note_off_c, 11, 48, 0
12, 37259, Note_off_c, 11, 55, 0
12, 37632, Note_on_c, 11, 53, 99
12, 37632, Note_on_c, 11, 60, 92
12, 37637, Note_off_c, 11, 57, 0
12, 37640, Note_off_c, 11, 50, 0
12, 38006, Control_c, 11, 11, 58
12, 38009, Note_off_c, 11, 53, 0
12, 38011, Note_off_c, 11, 60, 0
12, 38013, Control_c, 11, 11, 58
12, 38016, Note_on_c, 11, 55, 127
12, 38016, Note_on_c, 11, 62, 115
12, 38069, Control_c, 11, 11, 59
12, 38090, Control_c, 11, 11, 60
12, 38110, Control_c, 11, 11, 61
12, 38122, Control_c, 11, 11, 62
12, 38134, Control_c, 11, 11, 63
12, 38146, Control_c, 11, 11, 64
12, 38158, Control_c, 11, 11, 65
12, 38166, Control_c, 11, 11, 66
12, 38178, Control_c, 11, 11, 67
12, 38186, Control_c, 11, 11, 68
12, 38194, Control_c, 11, 11, 69
12, 38202, Control_c, 11, 11, 70
12, 38210, Control_c, 11, 11, 71
12, 38218, Control_c, 11, 11, 72
12, 38222, Control_c, 11, 11, 73
12, 38230, Control_c, 11, 11, 74
12, 38238, Control_c, 11, 11, 75
12, 38242, Control_c, 11, 11, 76
12, 38250, Control_c, 11, 11, 77
12, 38254, Control_c, 11, 11, 78
12, 38262, Control_c, 11, 11, 79
12, 38266, Control_c, 11, 11, 80
12, 38274, Control_c, 11, 11, 81
12, 38278, Control_c, 11, 11, 82
12, 38282, Control_c, 11, 11, 83
12, 38290, Control_c, 11, 11, 84
12, 38294, Control_c, 11, 11, 85
12, 38298, Control_c, 11, 11, 86
12, 38306, Control_c, 11, 11, 87
12, 38310, Control_c, 11, 11, 88
12, 38314, Control_c, 11, 11, 89
12, 38318, Control_c, 11, 11, 90
12, 38322, Control_c, 11, 11, 91
12, 38330, Control_c, 11, 11, 92
12, 38334, Control_c, 11, 11, 93
12, 38338, Control_c, 11, 11, 94
12, 38342, Control_c, 11, 11, 95
12, 38346, Control_c, 11, 11, 96
12, 38350, Control_c, 11, 11, 97
12, 38354, Control_c, 11, 11, 98
12, 38358, Control_c, 11, 11, 99
12, 38362, Control_c, 11, 11, 100
12, 38366, Control_c, 11, 11, 101
12, 38370, Control_c, 11, 11, 102
12, 38374, Control_c, 11, 11, 103
12, 38378, Control_c, 11, 11, 104
12, 38382, Control_c, 11, 11, 105
12, 38386, Control_c, 11, 11, 106
12, 38390, Control_c, 11, 11, 107
12, 38394, Control_c, 11, 11, 108
12, 38398, Control_c, 11, 11, 109
12, 38402, Control_c, 11, 11, 110
12, 38406, Control_c, 11, 11, 111
12, 38410, Control_c, 11, 11, 112
12, 38414, Control_c, 11, 11, 113
12, 38418, Control_c, 11, 11, 114
12, 38422, Control_c, 11, 11, 116
12, 38426, Control_c, 11, 11, 117
12, 38430, Control_c, 11, 11, 118
12, 38434, Control_c, 11, 11, 119
12, 38438, Control_c, 11, 11, 120
12, 38442, Control_c, 11, 11, 121
12, 38446, Control_c, 11, 11, 123
12, 38450, Control_c, 11, 11, 124
12, 38454, Control_c, 11, 11, 125
12, 38458, Control_c, 11, 11, 126
12, 38460, Control_c, 11, 11, 127
12, 38505, Note_on_c, 11, 54, 68
12, 38505, Note_on_c, 11, 61, 63
12, 38524, Note_off_c, 11, 62, 0
12, 38526, Note_on_c, 11, 53, 64
12, 38526, Note_on_c, 11, 60, 60
12, 38527, Note_off_c, 11, 55, 0
12, 38545, Note_off_c, 11, 54, 0
12, 38545, Note_off_c, 11, 61, 0
12, 38547, Note_on_c, 11, 52, 60
12, 38547, Note_on_c, 11, 59, 56
12, 38562, Note_off_c, 11, 53, 0
12, 38562, Note_off_c, 11, 60, 0
12, 38565, Note_on_c, 11, 51, 56
12, 38565, Note_on_c, 11, 58, 52
12, 38578, Note_off_c, 11, 52, 0
12, 38578, Note_off_c, 11, 59, 0
12, 38582, Note_on_c, 11, 50, 52
12, 38582, Note_on_c, 11, 57, 49
12, 38592, Note_off_c, 11, 51, 0
12, 38592, Note_off_c, 11, 58, 0
12, 38594, Note_on_c, 11, 49, 50
12, 38594, Note_on_c, 11, 56, 47
12, 38604, Note_off_c, 11, 50, 0
12, 38604, Note_off_c, 11, 57, 0
12, 38604, Note_on_c, 11, 48, 49
12, 38604, Note_on_c, 11, 55, 46
12, 38614, Note_off_c, 11, 49, 0
12, 38614, Note_off_c, 11, 56, 0
12, 38614, Note_on_c, 11, 47, 48
12, 38614, Note_on_c, 11, 54, 45
12, 38626, Note_off_c, 11, 48, 0
12, 38626, Note_off_c, 11, 55, 0
12, 38637, Note_off_c, 11, 47, 0
12, 38637, Note_off_c, 11, 54, 0
12, 38784, Note_on_c, 11, 48, 72
12, 38786, Note_on_c, 11, 55, 60
12, 39494, Note_off_c, 11, 48, 0
12, 39504, Note_off_c, 11, 55, 0
12, 39509, Note_on_c, 11, 48, 66
12, 39528, Note_on_c, 11, 55, 58
12, 39541, Note_off_c, 11, 48, 0
12, 39548, Note_on_c, 11, 48, 73
12, 40272, Note_off_c, 11, 48, 0
12, 40277, Note_on_c, 11, 48, 66
12, 40278, Note_off_c, 11, 55, 0
12, 40296, Note_on_c, 11, 55, 58
12, 40309, Note_off_c, 11, 48, 0
12, 40316, Note_on_c, 11, 48, 73
12, 41040, Note_off_c, 11, 48, 0
12, 41045, Note_on_c, 11, 48, 66
12, 41046, Note_off_c, 11, 55, 0
12, 41064, Note_on_c, 11, 55, 58
12, 41077, Note_off_c, 11, 48, 0
12, 41084, Note_on_c, 11, 48, 73
12, 41808, Note_off_c, 11, 48, 0
12, 41813, Note_on_c, 11, 48, 66
12, 41814, Note_off_c, 11, 55, 0
12, 41832, Note_on_c, 11, 55, 58
12, 41845, Note_off_c, 11, 48, 0
12, 41852, Note_on_c, 11, 48, 73
12, 42576, Note_off_c, 11, 48, 0
12, 42581, Note_on_c, 11, 48, 66
12, 42582, Note_off_c, 11, 55, 0
12, 42600, Note_on_c, 11, 55, 58
12, 42613, Note_off_c, 11, 48, 0
12, 42620, Note_on_c, 11, 48, 73
12, 43344, Note_off_c, 11, 48, 0
12, 43349, Note_on_c, 11, 50, 66
12, 43350, Note_off_c, 11, 55, 0
12, 43368, Note_on_c, 11, 57, 58
12, 43381, Note_off_c, 11, 50, 0
12, 43388, Note_on_c, 11, 50, 73
12, 44112, Note_off_c, 11, 50, 0
12, 44117, Note_on_c, 11, 48, 69
12, 44118, Note_off_c, 11, 57, 0
12, 44136, Note_on_c, 11, 55, 61
12, 44149, Note_off_c, 11, 48, 0
12, 44156, Note_on_c, 11, 48, 77
12, 44488, Note_off_c, 11, 48, 0
12, 44494, Note_off_c, 11, 55, 0
12, 44545, Note_on_c, 11, 55, 63
12, 44545, Note_on_c, 11, 48, 80
12, 44718, Note_off_c, 11, 55, 0
12, 44723, Note_off_c, 11, 48, 0
12, 44735, Note_on_c, 11, 55, 63
12, 44736, Note_on_c, 11, 48, 80
12, 44908, Note_off_c, 11, 55, 0
12, 44913, Note_off_c, 11, 48, 0
12, 44928, Note_on_c, 11, 49, 81
12, 44930, Note_on_c, 11, 56, 68
12, 45638, Note_off_c, 11, 49, 0
12, 45648, Note_off_c, 11, 56, 0
12, 45653, Note_on_c, 11, 49, 74
12, 45672, Note_on_c, 11, 56, 65
12, 45685, Note_off_c, 11, 49, 0
12, 45692, Note_on_c, 11, 49, 83
12, 46416, Note_off_c, 11, 49, 0
12, 46421, Note_on_c, 11, 49, 74
12, 46422, Note_off_c, 11, 56, 0
12, 46440, Note_on_c, 11, 56, 65
12, 46453, Note_off_c, 11, 49, 0
12, 46460, Note_on_c, 11, 49, 83
12, 47184, Note_off_c, 11, 49, 0
12, 47189, Note_on_c, 11, 49, 74
12, 47190, Note_off_c, 11, 56, 0
12, 47208, Note_on_c, 11, 56, 65
12, 47221, Note_off_c, 11, 49, 0
12, 47228, Note_on_c, 11, 49, 83
12, 47952, Note_off_c, 11, 49, 0
12, 47957, Note_on_c, 11, 49, 74
12, 47958, Note_off_c, 11, 56, 0
12, 47976, Note_on_c, 11, 56, 65
12, 47989, Note_off_c, 11, 49, 0
12, 47996, Note_on_c, 11, 49, 83
12, 48720, Note_off_c, 11, 49, 0
12, 48725, Note_on_c, 11, 49, 74
12, 48726, Note_off_c, 11, 56, 0
12, 48744, Note_on_c, 11, 56, 65
12, 48757, Note_off_c, 11, 49, 0
12, 48764, Note_on_c, 11, 49, 83
12, 49488, Note_off_c, 11, 49, 0
12, 49493, Note_on_c, 11, 51, 74
12, 49494, Note_off_c, 11, 56, 0
12, 49512, Note_on_c, 11, 58, 65
12, 49525, Note_off_c, 11, 51, 0
12, 49532, Note_on_c, 11, 51, 83
12, 50256, Note_off_c, 11, 51, 0
12, 50262, Note_off_c, 11, 58, 0
12, 50304, Note_on_c, 11, 56, 76
12, 50304, Note_on_c, 11, 49, 76
12, 50448, Note_on_c, 11, 48, 76
12, 50451, Note_off_c, 11, 49, 0
12, 50496, Note_on_c, 11, 49, 76
12, 50508, Note_off_c, 11, 48, 0
12, 50526, Note_off_c, 11, 49, 0
12, 50566, Note_off_c, 11, 56, 0
12, 50592, Note_on_c, 11, 51, 76
12, 50592, Note_on_c, 11, 56, 76
12, 50642, Note_off_c, 11, 51, 0
12, 50643, Note_off_c, 11, 56, 0
12, 50688, Note_on_c, 11, 53, 76
12, 50688, Note_on_c, 11, 56, 76
12, 50736, Note_on_c, 11, 51, 76
12, 50745, Note_off_c, 11, 53, 0
12, 50784, Note_on_c, 11, 49, 76
12, 50789, Note_off_c, 11, 51, 0
12, 50817, Note_off_c, 11, 49, 0
12, 50832, Note_on_c, 11, 48, 76
12, 50842, Note_off_c, 11, 56, 0
12, 50861, Note_off_c, 11, 48, 0
12, 50880, Note_on_c, 11, 46, 76
12, 50880, Note_on_c, 11, 54, 76
12, 51022, Note_off_c, 11, 46, 0
12, 51024, Note_on_c, 11, 44, 76
12, 51059, Note_off_c, 11, 44, 0
12, 51072, Note_on_c, 11, 46, 76
12, 51110, Note_off_c, 11, 46, 0
12, 51118, Note_off_c, 11, 54, 0
12, 51168, Note_on_c, 11, 54, 76
12, 51168, Note_on_c, 11, 48, 76
12, 51212, Note_off_c, 11, 48, 0
12, 51214, Note_off_c, 11, 54, 0
12, 51264, Note_on_c, 11, 49, 76
12, 51264, Note_on_c, 11, 54, 76
12, 51312, Note_on_c, 11, 48, 76
12, 51320, Note_off_c, 11, 49, 0
12, 51358, Note_off_c, 11, 48, 0
12, 51360, Note_on_c, 11, 46, 76
12, 51382, Note_off_c, 11, 46, 0
12, 51408, Note_on_c, 11, 44, 76
12, 51426, Note_off_c, 11, 54, 0
12, 51431, Note_off_c, 11, 44, 0
12, 51456, Note_on_c, 11, 42, 76
12, 51456, Note_on_c, 11, 49, 76
12, 51806, Note_off_c, 11, 49, 0
12, 51830, Note_off_c, 11, 42, 0
12, 51840, Note_on_c, 11, 51, 76
12, 51840, Note_on_c, 11, 43, 76
12, 52206, Note_off_c, 11, 51, 0
12, 52216, Note_off_c, 11, 43, 0
12, 52224, Note_on_c, 11, 44, 76
12, 52224, Note_on_c, 11, 51, 76
12, 52951, Note_off_c, 11, 51, 0
12, 52954, Note_off_c, 11, 44, 0
12, 52992, Note_on_c, 11, 56, 76
12, 52992, Note_on_c, 11, 49, 76
12, 53136, Note_on_c, 11, 48, 76
12, 53139, Note_off_c, 11, 49, 0
12, 53184, Note_on_c, 11, 49, 76
12, 53196, Note_off_c, 11, 48, 0
12, 53214, Note_off_c, 11, 49, 0
12, 53254, Note_off_c, 11, 56, 0
12, 53280, Note_on_c, 11, 51, 76
12, 53280, Note_on_c, 11, 56, 76
12, 53330, Note_off_c, 11, 51, 0
12, 53331, Note_off_c, 11, 56, 0
12, 53376, Note_on_c, 11, 53, 76
12, 53376, Note_on_c, 11, 56, 76
12, 53424, Note_on_c, 11, 51, 76
12, 53433, Note_off_c, 11, 53, 0
12, 53472, Note_on_c, 11, 49, 76
12, 53477, Note_off_c, 11, 51, 0
12, 53505, Note_off_c, 11, 49, 0
12, 53520, Note_on_c, 11, 48, 76
12, 53530, Note_off_c, 11, 56, 0
12, 53549, Note_off_c, 11, 48, 0
12, 53568, Note_on_c, 11, 46, 76
12, 53568, Note_on_c, 11, 54, 76
12, 53710, Note_off_c, 11, 46, 0
12, 53712, Note_on_c, 11, 44, 76
12, 53747, Note_off_c, 11, 44, 0
12, 53760, Note_on_c, 11, 46, 76
12, 53798, Note_off_c, 11, 46, 0
12, 53806, Note_off_c, 11, 54, 0
12, 53856, Note_on_c, 11, 54, 76
12, 53856, Note_on_c, 11, 48, 76
12, 53900, Note_off_c, 11, 48, 0
12, 53902, Note_off_c, 11, 54, 0
12, 53952, Note_on_c, 11, 49, 76
12, 53952, Note_on_c, 11, 56, 76
12, 54352, Note_off_c, 11, 49, 0
12, 54360, Note_off_c, 11, 56, 0
12, 55859, Pitch_bend_c, 11, 6077
12, 55862, Pitch_bend_c, 11, 3170
12, 55866, Pitch_bend_c, 11, 1585
12, 55869, Pitch_bend_c, 11, 264
12, 55872, Note_on_c, 11, 54, 89
12, 55872, Pitch_bend_c, 11, 0
12, 55879, Pitch_bend_c, 11, 792
12, 55883, Pitch_bend_c, 11, 3699
12, 55886, Pitch_bend_c, 11, 5548
12, 55889, Pitch_bend_c, 11, 6605
12, 55893, Pitch_bend_c, 11, 7134
12, 55896, Pitch_bend_c, 11, 7926
12, 55899, Pitch_bend_c, 11, 8192
12, 55958, Pitch_bend_c, 11, 8456
12, 55960, Pitch_bend_c, 11, 8984
12, 55968, Pitch_bend_c, 11, 9248
12, 55978, Pitch_bend_c, 11, 8720
12, 55981, Pitch_bend_c, 11, 8456
12, 55984, Pitch_bend_c, 11, 8192
12, 55991, Pitch_bend_c, 11, 8456
12, 55994, Pitch_bend_c, 11, 8984
12, 55998, Pitch_bend_c, 11, 9777
12, 56001, Pitch_bend_c, 11, 10305
12, 56005, Pitch_bend_c, 11, 10834
12, 56015, Pitch_bend_c, 11, 10570
12, 56018, Pitch_bend_c, 11, 9777
12, 56022, Pitch_bend_c, 11, 9248
12, 56025, Pitch_bend_c, 11, 8720
12, 56028, Pitch_bend_c, 11, 8456
12, 56032, Pitch_bend_c, 11, 8192
12, 56039, Pitch_bend_c, 11, 8720
12, 56042, Pitch_bend_c, 11, 9248
12, 56046, Pitch_bend_c, 11, 9777
12, 56049, Pitch_bend_c, 11, 10041
12, 56059, Pitch_bend_c, 11, 9513
12, 56062, Pitch_bend_c, 11, 8984
12, 56066, Pitch_bend_c, 11, 8456
12, 56069, Pitch_bend_c, 11, 8192
12, 56083, Pitch_bend_c, 11, 8720
12, 56086, Pitch_bend_c, 11, 9248
12, 56090, Pitch_bend_c, 11, 9513
12, 56093, Pitch_bend_c, 11, 9777
12, 56100, Pitch_bend_c, 11, 9248
12, 56103, Pitch_bend_c, 11, 8984
12, 56107, Pitch_bend_c, 11, 8456
12, 56114, Pitch_bend_c, 11, 8192
12, 56124, Pitch_bend_c, 11, 8456
12, 56127, Pitch_bend_c, 11, 8720
12, 56130, Pitch_bend_c, 11, 9248
12, 56140, Pitch_bend_c, 11, 8720
12, 56144, Pitch_bend_c, 11, 8456
12, 56148, Pitch_bend_c, 11, 8192
12, 56156, Note_off_c, 11, 54, 0
12, 56160, Note_on_c, 11, 53, 86
12, 56256, Note_on_c, 11, 51, 82
12, 56266, Note_off_c, 11, 53, 0
12, 56304, Note_on_c, 11, 49, 78
12, 56314, Note_off_c, 11, 51, 0
12, 56340, Note_off_c, 11, 49, 0
12, 56352, Note_on_c, 11, 48, 78
12, 56392, Note_off_c, 11, 48, 0
12, 56400, Note_on_c, 11, 46, 78
12, 56438, Note_off_c, 11, 46, 0
12, 56448, Note_on_c, 11, 44, 82
12, 56481, Pitch_bend_c, 11, 8720
12, 56483, Pitch_bend_c, 11, 9513
12, 56485, Pitch_bend_c, 11, 9777
12, 56487, Pitch_bend_c, 11, 10041
12, 56493, Pitch_bend_c, 11, 9777
12, 56495, Pitch_bend_c, 11, 9248
12, 56497, Pitch_bend_c, 11, 8720
12, 56499, Pitch_bend_c, 11, 8192
12, 56509, Pitch_bend_c, 11, 8456
12, 56511, Pitch_bend_c, 11, 8720
12, 56513, Pitch_bend_c, 11, 8984
12, 56521, Pitch_bend_c, 11, 8720
12, 56523, Pitch_bend_c, 11, 8456
12, 56525, Pitch_bend_c, 11, 8192
12, 56538, Note_off_c, 11, 44, 0
12, 56542, Pitch_bend_c, 11, 8192
12, 56544, Note_on_c, 11, 54, 89
12, 56544, Pitch_bend_c, 11, 9287
12, 56545, Pitch_bend_c, 11, 9872
12, 56546, Pitch_bend_c, 11, 10428
12, 56546, Pitch_bend_c, 11, 10954
12, 56547, Pitch_bend_c, 11, 11450
12, 56548, Pitch_bend_c, 11, 11916
12, 56549, Pitch_bend_c, 11, 12353
12, 56550, Pitch_bend_c, 11, 12760
12, 56550, Pitch_bend_c, 11, 13138
12, 56552, Pitch_bend_c, 11, 13649
12, 56552, Pitch_bend_c, 11, 13953
12, 56553, Pitch_bend_c, 11, 14227
12, 56554, Pitch_bend_c, 11, 14471
12, 56555, Pitch_bend_c, 11, 14686
12, 56556, Pitch_bend_c, 11, 14871
12, 56556, Pitch_bend_c, 11, 15026
12, 56557, Pitch_bend_c, 11, 15152
12, 56558, Pitch_bend_c, 11, 15248
12, 56559, Pitch_bend_c, 11, 15315
12, 56560, Pitch_bend_c, 11, 15352
12, 56560, Pitch_bend_c, 11, 15360
12, 56561, Pitch_bend_c, 11, 15624
12, 56562, Pitch_bend_c, 11, 15888
12, 56565, Pitch_bend_c, 11, 15360
12, 56569, Pitch_bend_c, 11, 15624
12, 56570, Pitch_bend_c, 11, 15888
12, 56570, Pitch_bend_c, 11, 16152
12, 56573, Pitch_bend_c, 11, 15624
12, 56574, Pitch_bend_c, 11, 15360
12, 56578, Pitch_bend_c, 11, 15624
12, 56580, Pitch_bend_c, 11, 15888
12, 56583, Pitch_bend_c, 11, 15624
12, 56584, Pitch_bend_c, 11, 15360
12, 56588, Pitch_bend_c, 11, 15624
12, 56589, Pitch_bend_c, 11, 15888
12, 56591, Pitch_bend_c, 11, 16152
12, 56592, Pitch_bend_c, 11, 15888
12, 56593, Pitch_bend_c, 11, 15360
12, 56598, Pitch_bend_c, 11, 15624
12, 56598, Pitch_bend_c, 11, 15888
12, 56599, Pitch_bend_c, 11, 16152
12, 56600, Pitch_bend_c, 11, 16383
12, 56602, Pitch_bend_c, 11, 16152
12, 56603, Pitch_bend_c, 11, 15888
12, 56604, Pitch_bend_c, 11, 15624
12, 56604, Pitch_bend_c, 11, 15360
12, 56608, Pitch_bend_c, 11, 15624
12, 56608, Pitch_bend_c, 11, 15888
12, 56610, Pitch_bend_c, 11, 16152
12, 56613, Pitch_bend_c, 11, 15888
12, 56614, Pitch_bend_c, 11, 15360
12, 56619, Pitch_bend_c, 11, 15624
12, 56620, Pitch_bend_c, 11, 15888
12, 56620, Pitch_bend_c, 11, 16152
12, 56621, Pitch_bend_c, 11, 16383
12, 56622, Pitch_bend_c, 11, 16383
12, 56623, Pitch_bend_c, 11, 16128
12, 56624, Pitch_bend_c, 11, 16096
12, 56625, Pitch_bend_c, 11, 16023
12, 56626, Pitch_bend_c, 11, 15908
12, 56626, Pitch_bend_c, 11, 15752
12, 56627, Pitch_bend_c, 11, 15554
12, 56628, Pitch_bend_c, 11, 15314
12, 56629, Pitch_bend_c, 11, 15032
12, 56630, Pitch_bend_c, 11, 14708
12, 56630, Pitch_bend_c, 11, 14343
12, 56631, Pitch_bend_c, 11, 13936
12, 56632, Pitch_bend_c, 11, 13487
12, 56633, Pitch_bend_c, 11, 12997
12, 56634, Pitch_bend_c, 11, 12183
12, 56635, Pitch_bend_c, 11, 11588
12, 56636, Pitch_bend_c, 11, 10952
12, 56636, Pitch_bend_c, 11, 10273
12, 56637, Pitch_bend_c, 11, 9553
12, 56638, Note_off_c, 11, 54, 0
12, 56638, Pitch_bend_c, 11, 8792
12, 56639, Pitch_bend_c, 11, 7988
12, 56639, Pitch_bend_c, 11, 8192
12, 56640, Note_on_c, 11, 56, 76
12, 56640, Note_on_c, 11, 49, 76
12, 56784, Note_on_c, 11, 48, 76
12, 56787, Note_off_c, 11, 49, 0
12, 56832, Note_on_c, 11, 49, 76
12, 56844, Note_off_c, 11, 48, 0
12, 56880, Note_off_c, 11, 56, 0
12, 56880, Note_off_c, 11, 49, 0
12, 56928, Note_on_c, 11, 51, 76
12, 56928, Note_on_c, 11, 56, 76
12, 56978, Note_off_c, 11, 51, 0
12, 56979, Note_off_c, 11, 56, 0
12, 57024, Note_on_c, 11, 53, 76
12, 57024, Note_on_c, 11, 56, 76
12, 57072, Note_on_c, 11, 51, 76
12, 57081, Note_off_c, 11, 53, 0
12, 57120, Note_on_c, 11, 49, 76
12, 57125, Note_off_c, 11, 51, 0
12, 57153, Note_off_c, 11, 49, 0
12, 57168, Note_on_c, 11, 48, 76
12, 57178, Note_off_c, 11, 56, 0
12, 57197, Note_off_c, 11, 48, 0
12, 57216, Note_on_c, 11, 46, 76
12, 57216, Note_on_c, 11, 54, 76
12, 57358, Note_off_c, 11, 46, 0
12, 57360, Note_on_c, 11, 44, 76
12, 57395, Note_off_c, 11, 44, 0
12, 57408, Note_on_c, 11, 46, 76
12, 57454, Note_off_c, 11, 54, 0
12, 57471, Note_off_c, 11, 46, 0
12, 57598, Note_on_c, 11, 54, 76
12, 57598, Note_on_c, 11, 48, 76
12, 57662, Note_off_c, 11, 48, 0
12, 57662, Note_off_c, 11, 54, 0
12, 57790, Note_on_c, 11, 49, 76
12, 57790, Note_on_c, 11, 56, 76
12, 58373, Note_off_c, 11, 49, 0
12, 58382, Note_off_c, 11, 56, 0
12, 58952, Control_c, 11, 121, 0
12, 58960, Control_c, 11, 91, 0
12, 58968, Control_c, 11, 93, 0
12, 58968, End_track
13, 0, Start_track
13, 0, Title_t, "Timpani"
13, 0, Channel_prefix, 12
13, 0, Control_c, 12, 7, 127
13, 0, Control_c, 12, 10, 64
13, 0, Program_c, 12, 47
13, 40, Control_c, 12, 121, 0
13, 48, Control_c, 12, 11, 80
13, 64, Control_c, 12, 91, 100
13, 72, Control_c, 12, 93, 0
13, 29568, Control_c, 12, 10, 64
13, 29568, Control_c, 12, 7, 127
13, 29568, Program_c, 12, 47
13, 30239, Note_on_c, 12, 43, 88
13, 30246, Note_off_c, 12, 43, 0
13, 30247, Note_on_c, 12, 43, 83
13, 30254, Note_off_c, 12, 43, 0
13, 30256, Note_on_c, 12, 43, 84
13, 30264, Note_off_c, 12, 43, 0
13, 30266, Note_on_c, 12, 43, 77
13, 30274, Note_off_c, 12, 43, 0
13, 30276, Note_on_c, 12, 43, 70
13, 30284, Note_off_c, 12, 43, 0
13, 30286, Note_on_c, 12, 43, 77
13, 30294, Note_off_c, 12, 43, 0
13, 30296, Note_on_c, 12, 43, 84
13, 30304, Note_off_c, 12, 43, 0
13, 30306, Note_on_c, 12, 43, 92
13, 30314, Note_off_c, 12, 43, 0
13, 30316, Note_on_c, 12, 43, 104
13, 30324, Note_off_c, 12, 43, 0
13, 30326, Note_on_c, 12, 43, 114
13, 30334, Note_off_c, 12, 43, 0
13, 30338, Note_on_c, 12, 36, 127
13, 30524, Note_off_c, 12, 36, 0
13, 32543, Note_on_c, 12, 43, 88
13, 32550, Note_off_c, 12, 43, 0
13, 32551, Note_on_c, 12, 43, 83
13, 32558, Note_off_c, 12, 43, 0
13, 32560, Note_on_c, 12, 43, 84
13, 32568, Note_off_c, 12, 43, 0
13, 32570, Note_on_c, 12, 43, 77
13, 32578, Note_off_c, 12, 43, 0
13, 32580, Note_on_c, 12, 43, 70
13, 32588, Note_off_c, 12, 43, 0
13, 32590, Note_on_c, 12, 43, 77
13, 32598, Note_off_c, 12, 43, 0
13, 32600, Note_on_c, 12, 43, 84
13, 32608, Note_off_c, 12, 43, 0
13, 32610, Note_on_c, 12, 43, 92
13, 32618, Note_off_c, 12, 43, 0
13, 32620, Note_on_c, 12, 43, 104
13, 32628, Note_off_c, 12, 43, 0
13, 32630, Note_on_c, 12, 43, 114
13, 32638, Note_off_c, 12, 43, 0
13, 32642, Note_on_c, 12, 36, 127
13, 32828, Note_off_c, 12, 36, 0
13, 33218, Note_on_c, 12, 36, 127
13, 33404, Note_off_c, 12, 36, 0
13, 33794, Note_on_c, 12, 41, 127
13, 33980, Note_off_c, 12, 41, 0
13, 34178, Note_on_c, 12, 42, 127
13, 34364, Note_off_c, 12, 42, 0
13, 34562, Note_on_c, 12, 43, 127
13, 34748, Note_off_c, 12, 43, 0
13, 38015, Note_on_c, 12, 43, 85
13, 38022, Note_off_c, 12, 43, 0
13, 38024, Note_on_c, 12, 43, 57
13, 38032, Note_off_c, 12, 43, 0
13, 38034, Note_on_c, 12, 43, 27
13, 38042, Note_off_c, 12, 43, 0
13, 38044, Note_on_c, 12, 43, 28
13, 38052, Note_off_c, 12, 43, 0
13, 38053, Note_on_c, 12, 43, 29
13, 38062, Note_off_c, 12, 43, 0
13, 38063, Note_on_c, 12, 43, 29
13, 38072, Note_off_c, 12, 43, 0
13, 38073, Note_on_c, 12, 43, 30
13, 38082, Note_off_c, 12, 43, 0
13, 38083, Note_on_c, 12, 43, 31
13, 38092, Note_off_c, 12, 43, 0
13, 38093, Note_on_c, 12, 43, 32
13, 38101, Note_off_c, 12, 43, 0
13, 38103, Note_on_c, 12, 43, 33
13, 38111, Note_off_c, 12, 43, 0
13, 38112, Note_on_c, 12, 43, 34
13, 38120, Note_off_c, 12, 43, 0
13, 38121, Note_on_c, 12, 43, 35
13, 38129, Note_off_c, 12, 43, 0
13, 38131, Note_on_c, 12, 43, 35
13, 38139, Note_off_c, 12, 43, 0
13, 38141, Note_on_c, 12, 43, 36
13, 38149, Note_off_c, 12, 43, 0
13, 38150, Note_on_c, 12, 43, 37
13, 38159, Note_off_c, 12, 43, 0
13, 38160, Note_on_c, 12, 43, 38
13, 38169, Note_off_c, 12, 43, 0
13, 38170, Note_on_c, 12, 43, 39
13, 38179, Note_off_c, 12, 43, 0
13, 38180, Note_on_c, 12, 43, 40
13, 38189, Note_off_c, 12, 43, 0
13, 38190, Note_on_c, 12, 43, 41
13, 38198, Note_off_c, 12, 43, 0
13, 38200, Note_on_c, 12, 43, 42
13, 38208, Note_off_c, 12, 43, 0
13, 38210, Note_on_c, 12, 43, 43
13, 38218, Note_off_c, 12, 43, 0
13, 38220, Note_on_c, 12, 43, 43
13, 38228, Note_off_c, 12, 43, 0
13, 38230, Note_on_c, 12, 43, 44
13, 38238, Note_off_c, 12, 43, 0
13, 38239, Note_on_c, 12, 43, 45
13, 38248, Note_off_c, 12, 43, 0
13, 38249, Note_on_c, 12, 43, 46
13, 38258, Note_off_c, 12, 43, 0
13, 38259, Note_on_c, 12, 43, 47
13, 38268, Note_off_c, 12, 43, 0
13, 38269, Note_on_c, 12, 43, 48
13, 38278, Note_off_c, 12, 43, 0
13, 38279, Note_on_c, 12, 43, 49
13, 38287, Note_off_c, 12, 43, 0
13, 38289, Note_on_c, 12, 43, 50
13, 38297, Note_off_c, 12, 43, 0
13, 38298, Note_on_c, 12, 43, 51
13, 38306, Note_off_c, 12, 43, 0
13, 38307, Note_on_c, 12, 43, 51
13, 38315, Note_off_c, 12, 43, 0
13, 38317, Note_on_c, 12, 43, 52
13, 38325, Note_off_c, 12, 43, 0
13, 38327, Note_on_c, 12, 43, 53
13, 38335, Note_off_c, 12, 43, 0
13, 38336, Note_on_c, 12, 43, 54
13, 38345, Note_off_c, 12, 43, 0
13, 38346, Note_on_c, 12, 43, 55
13, 38355, Note_off_c, 12, 43, 0
13, 38356, Note_on_c, 12, 43, 56
13, 38365, Note_off_c, 12, 43, 0
13, 38366, Note_on_c, 12, 43, 57
13, 38375, Note_off_c, 12, 43, 0
13, 38376, Note_on_c, 12, 43, 58
13, 38384, Note_off_c, 12, 43, 0
13, 38386, Note_on_c, 12, 43, 59
13, 38394, Note_off_c, 12, 43, 0
13, 38396, Note_on_c, 12, 43, 59
13, 38404, Note_off_c, 12, 43, 0
13, 38406, Note_on_c, 12, 43, 60
13, 38414, Note_off_c, 12, 43, 0
13, 38416, Note_on_c, 12, 43, 61
13, 38424, Note_off_c, 12, 43, 0
13, 38425, Note_on_c, 12, 43, 62
13, 38434, Note_off_c, 12, 43, 0
13, 38435, Note_on_c, 12, 43, 63
13, 38444, Note_off_c, 12, 43, 0
13, 38445, Note_on_c, 12, 43, 64
13, 38454, Note_off_c, 12, 43, 0
13, 38455, Note_on_c, 12, 43, 65
13, 38464, Note_off_c, 12, 43, 0
13, 38465, Note_on_c, 12, 43, 66
13, 38473, Note_off_c, 12, 43, 0
13, 38475, Note_on_c, 12, 43, 66
13, 38483, Note_off_c, 12, 43, 0
13, 38484, Note_on_c, 12, 43, 67
13, 38492, Note_off_c, 12, 43, 0
13, 38493, Note_on_c, 12, 43, 68
13, 38501, Note_off_c, 12, 43, 0
13, 38503, Note_on_c, 12, 43, 69
13, 38511, Note_off_c, 12, 43, 0
13, 38513, Note_on_c, 12, 43, 70
13, 38521, Note_off_c, 12, 43, 0
13, 38522, Note_on_c, 12, 43, 71
13, 38531, Note_off_c, 12, 43, 0
13, 38532, Note_on_c, 12, 43, 72
13, 38541, Note_off_c, 12, 43, 0
13, 38542, Note_on_c, 12, 43, 73
13, 38551, Note_off_c, 12, 43, 0
13, 38552, Note_on_c, 12, 43, 73
13, 38561, Note_off_c, 12, 43, 0
13, 38562, Note_on_c, 12, 43, 74
13, 38570, Note_off_c, 12, 43, 0
13, 38572, Note_on_c, 12, 43, 75
13, 38580, Note_off_c, 12, 43, 0
13, 38582, Note_on_c, 12, 43, 76
13, 38590, Note_off_c, 12, 43, 0
13, 38592, Note_on_c, 12, 43, 77
13, 38600, Note_off_c, 12, 43, 0
13, 38602, Note_on_c, 12, 43, 78
13, 38610, Note_off_c, 12, 43, 0
13, 38611, Note_on_c, 12, 43, 79
13, 38620, Note_off_c, 12, 43, 0
13, 38621, Note_on_c, 12, 43, 80
13, 38630, Note_off_c, 12, 43, 0
13, 38631, Note_on_c, 12, 43, 81
13, 38640, Note_off_c, 12, 43, 0
13, 38641, Note_on_c, 12, 43, 81
13, 38650, Note_off_c, 12, 43, 0
13, 38651, Note_on_c, 12, 43, 82
13, 38659, Note_off_c, 12, 43, 0
13, 38661, Note_on_c, 12, 43, 83
13, 38669, Note_off_c, 12, 43, 0
13, 38670, Note_on_c, 12, 43, 84
13, 38678, Note_off_c, 12, 43, 0
13, 38679, Note_on_c, 12, 43, 85
13, 38687, Note_off_c, 12, 43, 0
13, 38689, Note_on_c, 12, 43, 86
13, 38697, Note_off_c, 12, 43, 0
13, 38699, Note_on_c, 12, 43, 87
13, 38707, Note_off_c, 12, 43, 0
13, 38708, Note_on_c, 12, 43, 87
13, 38717, Note_off_c, 12, 43, 0
13, 38718, Note_on_c, 12, 43, 88
13, 38727, Note_off_c, 12, 43, 0
13, 38728, Note_on_c, 12, 43, 84
13, 38737, Note_off_c, 12, 43, 0
13, 38738, Note_on_c, 12, 43, 92
13, 38747, Note_off_c, 12, 43, 0
13, 38748, Note_on_c, 12, 43, 104
13, 38756, Note_off_c, 12, 43, 0
13, 38758, Note_on_c, 12, 43, 114
13, 38766, Note_off_c, 12, 43, 0
13, 38768, Note_on_c, 12, 43, 104
13, 38776, Note_off_c, 12, 43, 0
13, 38778, Note_on_c, 12, 43, 114
13, 38785, Note_off_c, 12, 43, 0
13, 38789, Note_on_c, 12, 36, 127
13, 38974, Note_off_c, 12, 36, 0
13, 44832, Note_on_c, 12, 43, 56
13, 44839, Note_off_c, 12, 43, 0
13, 44841, Note_on_c, 12, 43, 60
13, 44848, Note_off_c, 12, 43, 0
13, 44850, Note_on_c, 12, 43, 65
13, 44858, Note_off_c, 12, 43, 0
13, 44860, Note_on_c, 12, 43, 69
13, 44868, Note_off_c, 12, 43, 0
13, 44870, Note_on_c, 12, 43, 73
13, 44878, Note_off_c, 12, 43, 0
13, 44880, Note_on_c, 12, 43, 77
13, 44888, Note_off_c, 12, 43, 0
13, 44890, Note_on_c, 12, 43, 84
13, 44898, Note_off_c, 12, 43, 0
13, 44900, Note_on_c, 12, 43, 92
13, 44908, Note_off_c, 12, 43, 0
13, 44910, Note_on_c, 12, 43, 104
13, 44918, Note_off_c, 12, 43, 0
13, 44920, Note_on_c, 12, 43, 114
13, 44928, Note_off_c, 12, 43, 0
13, 44929, Note_on_c, 12, 37, 114
13, 45117, Note_off_c, 12, 37, 0
13, 47807, Note_on_c, 12, 43, 85
13, 47814, Note_off_c, 12, 43, 0
13, 47816, Note_on_c, 12, 43, 57
13, 47823, Note_off_c, 12, 43, 0
13, 47825, Note_on_c, 12, 43, 27
13, 47833, Note_off_c, 12, 43, 0
13, 47835, Note_on_c, 12, 43, 25
13, 47843, Note_off_c, 12, 43, 0
13, 47845, Note_on_c, 12, 43, 30
13, 47853, Note_off_c, 12, 43, 0
13, 47855, Note_on_c, 12, 43, 34
13, 47863, Note_off_c, 12, 43, 0
13, 47865, Note_on_c, 12, 43, 39
13, 47873, Note_off_c, 12, 43, 0
13, 47875, Note_on_c, 12, 43, 43
13, 47883, Note_off_c, 12, 43, 0
13, 47885, Note_on_c, 12, 43, 48
13, 47893, Note_off_c, 12, 43, 0
13, 47895, Note_on_c, 12, 43, 52
13, 47902, Note_off_c, 12, 43, 0
13, 47904, Note_on_c, 12, 43, 56
13, 47911, Note_off_c, 12, 43, 0
13, 47913, Note_on_c, 12, 43, 60
13, 47920, Note_off_c, 12, 43, 0
13, 47922, Note_on_c, 12, 43, 65
13, 47930, Note_off_c, 12, 43, 0
13, 47932, Note_on_c, 12, 43, 69
13, 47940, Note_off_c, 12, 43, 0
13, 47942, Note_on_c, 12, 43, 73
13, 47950, Note_off_c, 12, 43, 0
13, 47952, Note_on_c, 12, 43, 77
13, 47960, Note_off_c, 12, 43, 0
13, 47962, Note_on_c, 12, 43, 84
13, 47970, Note_off_c, 12, 43, 0
13, 47972, Note_on_c, 12, 43, 92
13, 47980, Note_off_c, 12, 43, 0
13, 47982, Note_on_c, 12, 43, 104
13, 47990, Note_off_c, 12, 43, 0
13, 47992, Note_on_c, 12, 43, 114
13, 48000, Note_off_c, 12, 43, 0
13, 48004, Note_on_c, 12, 36, 127
13, 48190, Note_off_c, 12, 36, 0
13, 50208, Note_on_c, 12, 44, 56
13, 50215, Note_off_c, 12, 44, 0
13, 50217, Note_on_c, 12, 44, 60
13, 50224, Note_off_c, 12, 44, 0
13, 50226, Note_on_c, 12, 44, 65
13, 50234, Note_off_c, 12, 44, 0
13, 50236, Note_on_c, 12, 44, 69
13, 50244, Note_off_c, 12, 44, 0
13, 50246, Note_on_c, 12, 44, 73
13, 50254, Note_off_c, 12, 44, 0
13, 50256, Note_on_c, 12, 44, 77
13, 50264, Note_off_c, 12, 44, 0
13, 50266, Note_on_c, 12, 44, 84
13, 50274, Note_off_c, 12, 44, 0
13, 50276, Note_on_c, 12, 44, 92
13, 50284, Note_off_c, 12, 44, 0
13, 50286, Note_on_c, 12, 44, 104
13, 50294, Note_off_c, 12, 44, 0
13, 50296, Note_on_c, 12, 44, 114
13, 50304, Note_off_c, 12, 44, 0
13, 50305, Note_on_c, 12, 37, 114
13, 50493, Note_off_c, 12, 37, 0
13, 56449, Note_on_c, 12, 44, 115
13, 56455, Note_off_c, 12, 44, 0
13, 56456, Note_on_c, 12, 44, 119
13, 56462, Note_off_c, 12, 44, 0
13, 56463, Note_on_c, 12, 44, 95
13, 56469, Note_off_c, 12, 44, 0
13, 56470, Note_on_c, 12, 44, 75
13, 56476, Note_off_c, 12, 44, 0
13, 56477, Note_on_c, 12, 44, 85
13, 56484, Note_off_c, 12, 44, 0
13, 56485, Note_on_c, 12, 44, 85
13, 56491, Note_off_c, 12, 44, 0
13, 56492, Note_on_c, 12, 44, 68
13, 56498, Note_off_c, 12, 44, 0
13, 56499, Note_on_c, 12, 44, 68
13, 56505, Note_off_c, 12, 44, 0
13, 56506, Note_on_c, 12, 44, 71
13, 56512, Note_off_c, 12, 44, 0
13, 56514, Note_on_c, 12, 44, 71
13, 56520, Note_off_c, 12, 44, 0
13, 56522, Note_on_c, 12, 44, 68
13, 56528, Note_off_c, 12, 44, 0
13, 56529, Note_on_c, 12, 44, 71
13, 56534, Note_off_c, 12, 44, 0
13, 56536, Note_on_c, 12, 44, 71
13, 56543, Note_off_c, 12, 44, 0
13, 56544, Note_on_c, 12, 44, 115
13, 56547, Note_off_c, 12, 44, 0
13, 56547, Note_on_c, 12, 44, 95
13, 56549, Note_off_c, 12, 44, 0
13, 56550, Note_on_c, 12, 44, 85
13, 56552, Note_off_c, 12, 44, 0
13, 56552, Note_on_c, 12, 44, 68
13, 56554, Note_off_c, 12, 44, 0
13, 56555, Note_on_c, 12, 44, 77
13, 56558, Note_off_c, 12, 44, 0
13, 56558, Note_on_c, 12, 44, 77
13, 56561, Note_off_c, 12, 44, 0
13, 56561, Note_on_c, 12, 44, 61
13, 56564, Note_off_c, 12, 44, 0
13, 56564, Note_on_c, 12, 44, 61
13, 56566, Note_off_c, 12, 44, 0
13, 56567, Note_on_c, 12, 44, 63
13, 56570, Note_off_c, 12, 44, 0
13, 56570, Note_on_c, 12, 44, 58
13, 56573, Note_off_c, 12, 44, 0
13, 56574, Note_on_c, 12, 44, 58
13, 56576, Note_off_c, 12, 44, 0
13, 56576, Note_on_c, 12, 44, 58
13, 56578, Note_off_c, 12, 44, 0
13, 56579, Note_on_c, 12, 44, 58
13, 56582, Note_off_c, 12, 44, 0
13, 56582, Note_on_c, 12, 44, 77
13, 56584, Note_off_c, 12, 44, 0
13, 56585, Note_on_c, 12, 44, 77
13, 56588, Note_off_c, 12, 44, 0
13, 56588, Note_on_c, 12, 44, 61
13, 56590, Note_off_c, 12, 44, 0
13, 56591, Note_on_c, 12, 44, 67
13, 56593, Note_off_c, 12, 44, 0
13, 56594, Note_on_c, 12, 44, 69
13, 56596, Note_off_c, 12, 44, 0
13, 56597, Note_on_c, 12, 44, 71
13, 56600, Note_off_c, 12, 44, 0
13, 56600, Note_on_c, 12, 44, 73
13, 56602, Note_off_c, 12, 44, 0
13, 56603, Note_on_c, 12, 44, 74
13, 56605, Note_off_c, 12, 44, 0
13, 56606, Note_on_c, 12, 44, 76
13, 56608, Note_off_c, 12, 44, 0
13, 56609, Note_on_c, 12, 44, 78
13, 56611, Note_off_c, 12, 44, 0
13, 56612, Note_on_c, 12, 44, 80
13, 56614, Note_off_c, 12, 44, 0
13, 56614, Note_on_c, 12, 44, 81
13, 56617, Note_off_c, 12, 44, 0
13, 56618, Note_on_c, 12, 44, 83
13, 56620, Note_off_c, 12, 44, 0
13, 56622, Note_on_c, 12, 44, 86
13, 56624, Note_off_c, 12, 44, 0
13, 56624, Note_on_c, 12, 44, 87
13, 56625, Note_off_c, 12, 44, 0
13, 56626, Note_on_c, 12, 44, 88
13, 56627, Note_off_c, 12, 44, 0
13, 56628, Note_on_c, 12, 44, 89
13, 56629, Note_off_c, 12, 44, 0
13, 56629, Note_on_c, 12, 44, 90
13, 56631, Note_off_c, 12, 44, 0
13, 56631, Note_on_c, 12, 44, 91
13, 56632, Note_off_c, 12, 44, 0
13, 56633, Note_on_c, 12, 44, 92
13, 56634, Note_off_c, 12, 44, 0
13, 56635, Note_on_c, 12, 44, 88
13, 56636, Note_off_c, 12, 44, 0
13, 56636, Note_on_c, 12, 44, 105
13, 56638, Note_off_c, 12, 44, 0
13, 56638, Note_on_c, 12, 44, 116
13, 56640, Note_off_c, 12, 44, 0
13, 56640, Note_on_c, 12, 37, 116
13, 56664, Note_off_c, 12, 37, 0
13, 57504, Note_on_c, 12, 42, 66
13, 57510, Note_off_c, 12, 42, 0
13, 57511, Note_on_c, 12, 42, 66
13, 57517, Note_off_c, 12, 42, 0
13, 57518, Note_on_c, 12, 42, 68
13, 57524, Note_off_c, 12, 42, 0
13, 57526, Note_on_c, 12, 42, 69
13, 57532, Note_off_c, 12, 42, 0
13, 57533, Note_on_c, 12, 42, 71
13, 57539, Note_off_c, 12, 42, 0
13, 57540, Note_on_c, 12, 42, 74
13, 57546, Note_off_c, 12, 42, 0
13, 57547, Note_on_c, 12, 42, 76
13, 57553, Note_off_c, 12, 42, 0
13, 57554, Note_on_c, 12, 42, 81
13, 57560, Note_off_c, 12, 42, 0
13, 57561, Note_on_c, 12, 42, 84
13, 57567, Note_off_c, 12, 42, 0
13, 57569, Note_on_c, 12, 42, 89
13, 57575, Note_off_c, 12, 42, 0
13, 57576, Note_on_c, 12, 42, 95
13, 57582, Note_off_c, 12, 42, 0
13, 57584, Note_on_c, 12, 42, 100
13, 57589, Note_off_c, 12, 42, 0
13, 57591, Note_on_c, 12, 42, 106
13, 57598, Note_off_c, 12, 42, 0
13, 57600, Note_on_c, 12, 44, 114
13, 57606, Note_off_c, 12, 44, 0
13, 57687, Note_on_c, 12, 44, 62
13, 57693, Note_off_c, 12, 44, 0
13, 57694, Note_on_c, 12, 44, 62
13, 57700, Note_off_c, 12, 44, 0
13, 57702, Note_on_c, 12, 44, 63
13, 57707, Note_off_c, 12, 44, 0
13, 57709, Note_on_c, 12, 44, 64
13, 57716, Note_off_c, 12, 44, 0
13, 57717, Note_on_c, 12, 44, 66
13, 57723, Note_off_c, 12, 44, 0
13, 57724, Note_on_c, 12, 44, 69
13, 57730, Note_off_c, 12, 44, 0
13, 57732, Note_on_c, 12, 44, 71
13, 57738, Note_off_c, 12, 44, 0
13, 57739, Note_on_c, 12, 44, 75
13, 57745, Note_off_c, 12, 44, 0
13, 57746, Note_on_c, 12, 44, 81
13, 57752, Note_off_c, 12, 44, 0
13, 57754, Note_on_c, 12, 44, 85
13, 57759, Note_off_c, 12, 44, 0
13, 57761, Note_on_c, 12, 44, 90
13, 57768, Note_off_c, 12, 44, 0
13, 57769, Note_on_c, 12, 44, 97
13, 57775, Note_off_c, 12, 44, 0
13, 57776, Note_on_c, 12, 44, 104
13, 57782, Note_off_c, 12, 44, 0
13, 57784, Note_on_c, 12, 44, 112
13, 57790, Note_off_c, 12, 44, 0
13, 57794, Note_on_c, 12, 37, 113
13, 57800, Note_off_c, 12, 37, 0
13, 57801, Note_on_c, 12, 37, 96
13, 57806, Note_off_c, 12, 37, 0
13, 57808, Note_on_c, 12, 37, 70
13, 57814, Note_off_c, 12, 37, 0
13, 57815, Note_on_c, 12, 37, 56
13, 57821, Note_off_c, 12, 37, 0
13, 57822, Note_on_c, 12, 37, 63
13, 57828, Note_off_c, 12, 37, 0
13, 57830, Note_on_c, 12, 37, 63
13, 57836, Note_off_c, 12, 37, 0
13, 57837, Note_on_c, 12, 37, 50
13, 57843, Note_off_c, 12, 37, 0
13, 57844, Note_on_c, 12, 37, 50
13, 57850, Note_off_c, 12, 37, 0
13, 57851, Note_on_c, 12, 37, 52
13, 57857, Note_off_c, 12, 37, 0
13, 57859, Note_on_c, 12, 37, 53
13, 57865, Note_off_c, 12, 37, 0
13, 57866, Note_on_c, 12, 37, 52
13, 57872, Note_off_c, 12, 37, 0
13, 57874, Note_on_c, 12, 37, 54
13, 57879, Note_off_c, 12, 37, 0
13, 57881, Note_on_c, 12, 37, 55
13, 57888, Note_off_c, 12, 37, 0
13, 57890, Note_on_c, 12, 37, 54
13, 57896, Note_off_c, 12, 37, 0
13, 57897, Note_on_c, 12, 37, 55
13, 57903, Note_off_c, 12, 37, 0
13, 57904, Note_on_c, 12, 37, 57
13, 57910, Note_off_c, 12, 37, 0
13, 57912, Note_on_c, 12, 37, 58
13, 57918, Note_off_c, 12, 37, 0
13, 57919, Note_on_c, 12, 37, 57
13, 57925, Note_off_c, 12, 37, 0
13, 57926, Note_on_c, 12, 37, 59
13, 57932, Note_off_c, 12, 37, 0
13, 57934, Note_on_c, 12, 37, 60
13, 57940, Note_off_c, 12, 37, 0
13, 57942, Note_on_c, 12, 37, 59
13, 57948, Note_off_c, 12, 37, 0
13, 57949, Note_on_c, 12, 37, 59
13, 57955, Note_off_c, 12, 37, 0
13, 57956, Note_on_c, 12, 37, 62
13, 57962, Note_off_c, 12, 37, 0
13, 57964, Note_on_c, 12, 37, 63
13, 57970, Note_off_c, 12, 37, 0
13, 57971, Note_on_c, 12, 37, 62
13, 57977, Note_off_c, 12, 37, 0
13, 57978, Note_on_c, 12, 37, 65
13, 57984, Note_off_c, 12, 37, 0
13, 57986, Note_on_c, 12, 37, 65
13, 57992, Note_off_c, 12, 37, 0
13, 57994, Note_on_c, 12, 37, 64
13, 58000, Note_off_c, 12, 37, 0
13, 58002, Note_on_c, 12, 37, 64
13, 58008, Note_off_c, 12, 37, 0
13, 58009, Note_on_c, 12, 37, 68
13, 58014, Note_off_c, 12, 37, 0
13, 58016, Note_on_c, 12, 37, 68
13, 58023, Note_off_c, 12, 37, 0
13, 58024, Note_on_c, 12, 37, 66
13, 58030, Note_off_c, 12, 37, 0
13, 58031, Note_on_c, 12, 37, 70
13, 58037, Note_off_c, 12, 37, 0
13, 58039, Note_on_c, 12, 37, 70
13, 58045, Note_off_c, 12, 37, 0
13, 58047, Note_on_c, 12, 37, 69
13, 58053, Note_off_c, 12, 37, 0
13, 58054, Note_on_c, 12, 37, 69
13, 58060, Note_off_c, 12, 37, 0
13, 58062, Note_on_c, 12, 37, 73
13, 58067, Note_off_c, 12, 37, 0
13, 58069, Note_on_c, 12, 37, 73
13, 58076, Note_off_c, 12, 37, 0
13, 58077, Note_on_c, 12, 37, 71
13, 58083, Note_off_c, 12, 37, 0
13, 58084, Note_on_c, 12, 37, 75
13, 58090, Note_off_c, 12, 37, 0
13, 58092, Note_on_c, 12, 37, 75
13, 58098, Note_off_c, 12, 37, 0
13, 58100, Note_on_c, 12, 37, 74
13, 58106, Note_off_c, 12, 37, 0
13, 58107, Note_on_c, 12, 37, 74
13, 58113, Note_off_c, 12, 37, 0
13, 58114, Note_on_c, 12, 37, 78
13, 58120, Note_off_c, 12, 37, 0
13, 58122, Note_on_c, 12, 37, 79
13, 58128, Note_off_c, 12, 37, 0
13, 58130, Note_on_c, 12, 37, 76
13, 58136, Note_off_c, 12, 37, 0
13, 58137, Note_on_c, 12, 37, 80
13, 58142, Note_off_c, 12, 37, 0
13, 58144, Note_on_c, 12, 37, 81
13, 58151, Note_off_c, 12, 37, 0
13, 58152, Note_on_c, 12, 37, 79
13, 58158, Note_off_c, 12, 37, 0
13, 58159, Note_on_c, 12, 37, 79
13, 58165, Note_off_c, 12, 37, 0
13, 58166, Note_on_c, 12, 37, 83
13, 58172, Note_off_c, 12, 37, 0
13, 58174, Note_on_c, 12, 37, 84
13, 58180, Note_off_c, 12, 37, 0
13, 58182, Note_on_c, 12, 37, 81
13, 58188, Note_off_c, 12, 37, 0
13, 58189, Note_on_c, 12, 37, 85
13, 58194, Note_off_c, 12, 37, 0
13, 58196, Note_on_c, 12, 37, 86
13, 58203, Note_off_c, 12, 37, 0
13, 58205, Note_on_c, 12, 37, 83
13, 58211, Note_off_c, 12, 37, 0
13, 58212, Note_on_c, 12, 37, 86
13, 58218, Note_off_c, 12, 37, 0
13, 58219, Note_on_c, 12, 37, 90
13, 58225, Note_off_c, 12, 37, 0
13, 58227, Note_on_c, 12, 37, 89
13, 58233, Note_off_c, 12, 37, 0
13, 58234, Note_on_c, 12, 37, 84
13, 58240, Note_off_c, 12, 37, 0
13, 58242, Note_on_c, 12, 37, 92
13, 58247, Note_off_c, 12, 37, 0
13, 58249, Note_on_c, 12, 37, 91
13, 58256, Note_off_c, 12, 37, 0
13, 58257, Note_on_c, 12, 37, 92
13, 58264, Note_off_c, 12, 37, 0
13, 58265, Note_on_c, 12, 37, 87
13, 58271, Note_off_c, 12, 37, 0
13, 58272, Note_on_c, 12, 37, 93
13, 58278, Note_off_c, 12, 37, 0
13, 58280, Note_on_c, 12, 37, 94
13, 58286, Note_off_c, 12, 37, 0
13, 58287, Note_on_c, 12, 37, 91
13, 58293, Note_off_c, 12, 37, 0
13, 58294, Note_on_c, 12, 37, 92
13, 58300, Note_off_c, 12, 37, 0
13, 58302, Note_on_c, 12, 37, 96
13, 58307, Note_off_c, 12, 37, 0
13, 58309, Note_on_c, 12, 37, 99
13, 58316, Note_off_c, 12, 37, 0
13, 58317, Note_on_c, 12, 37, 94
13, 58323, Note_off_c, 12, 37, 0
13, 58324, Note_on_c, 12, 37, 100
13, 58330, Note_off_c, 12, 37, 0
13, 58332, Note_on_c, 12, 37, 101
13, 58338, Note_off_c, 12, 37, 0
13, 58340, Note_on_c, 12, 37, 96
13, 58346, Note_off_c, 12, 37, 0
13, 58347, Note_on_c, 12, 37, 98
13, 58353, Note_off_c, 12, 37, 0
13, 58354, Note_on_c, 12, 37, 103
13, 58360, Note_off_c, 12, 37, 0
13, 58362, Note_on_c, 12, 37, 102
13, 58368, Note_off_c, 12, 37, 0
13, 58370, Note_on_c, 12, 37, 106
13, 58376, Note_off_c, 12, 37, 0
13, 58952, Control_c, 12, 121, 0
13, 58960, Control_c, 12, 91, 0
13, 58968, Control_c, 12, 93, 0
13, 58968, End_track
14, 0, Start_track
14, 0, Title_t, "BG Vox"
14, 0, Channel_prefix, 13
14, 0, Control_c, 13, 7, 127
14, 0, Control_c, 13, 10, 64
14, 0, Program_c, 13, 52
14, 40, Control_c, 13, 121, 0
14, 48, Control_c, 13, 11, 100
14, 64, Control_c, 13, 91, 127
14, 72, Control_c, 13, 93, 127
14, 26496, Control_c, 13, 10, 64
14, 26496, Control_c, 13, 7, 127
14, 26496, Program_c, 13, 52
14, 27081, Note_on_c, 13, 60, 67
14, 27178, Note_on_c, 13, 62, 74
14, 27182, Note_off_c, 13, 60, 0
14, 27261, Note_off_c, 13, 62, 0
14, 27269, Note_on_c, 13, 64, 72
14, 27391, Note_off_c, 13, 64, 0
14, 27416, Note_on_c, 13, 64, 67
14, 27458, Note_off_c, 13, 64, 0
14, 27462, Note_on_c, 13, 62, 72
14, 27551, Note_off_c, 13, 62, 0
14, 27552, Note_on_c, 13, 64, 74
14, 27597, Note_on_c, 13, 65, 66
14, 27600, Note_off_c, 13, 64, 0
14, 27772, Note_off_c, 13, 65, 0
14, 27838, Note_on_c, 13, 64, 70
14, 27934, Note_off_c, 13, 64, 0
14, 27936, Note_on_c, 13, 65, 68
14, 28024, Note_off_c, 13, 65, 0
14, 28028, Note_on_c, 13, 67, 66
14, 28106, Note_off_c, 13, 67, 0
14, 28126, Note_on_c, 13, 67, 66
14, 28208, Note_off_c, 13, 67, 0
14, 28224, Note_on_c, 13, 65, 70
14, 28316, Note_on_c, 13, 67, 74
14, 28321, Note_off_c, 13, 65, 0
14, 28371, Note_on_c, 13, 69, 67
14, 28378, Note_off_c, 13, 67, 0
14, 28517, Note_off_c, 13, 69, 0
14, 28552, Note_on_c, 13, 69, 69
14, 28597, Note_on_c, 13, 67, 72
14, 28598, Note_off_c, 13, 69, 0
14, 28698, Note_on_c, 13, 65, 75
14, 28706, Note_off_c, 13, 67, 0
14, 28794, Note_on_c, 13, 64, 72
14, 28807, Note_off_c, 13, 65, 0
14, 28982, Note_off_c, 13, 64, 0
14, 28992, Note_on_c, 13, 62, 73
14, 29096, Note_off_c, 13, 62, 0
14, 29136, Note_on_c, 13, 60, 68
14, 29186, Note_on_c, 13, 62, 73
14, 29192, Note_off_c, 13, 60, 0
14, 29268, Note_off_c, 13, 62, 0
14, 29282, Note_on_c, 13, 62, 68
14, 29367, Note_off_c, 13, 62, 0
14, 29373, Note_on_c, 13, 60, 70
14, 29467, Note_off_c, 13, 60, 0
14, 29470, Note_on_c, 13, 59, 74
14, 29554, Note_on_c, 13, 60, 67
14, 29557, Note_off_c, 13, 59, 0
14, 29983, Note_off_c, 13, 60, 0
14, 30093, Note_on_c, 13, 55, 74
14, 30139, Note_on_c, 13, 60, 72
14, 30141, Note_off_c, 13, 55, 0
14, 30238, Note_on_c, 13, 62, 70
14, 30240, Note_off_c, 13, 60, 0
14, 30327, Note_off_c, 13, 62, 0
14, 30329, Note_on_c, 13, 64, 68
14, 30404, Note_off_c, 13, 64, 0
14, 30431, Note_on_c, 13, 64, 67
14, 30520, Note_off_c, 13, 64, 0
14, 30529, Note_on_c, 13, 62, 71
14, 30624, Note_off_c, 13, 62, 0
14, 30630, Note_on_c, 13, 64, 73
14, 30675, Note_on_c, 13, 65, 66
14, 30679, Note_off_c, 13, 64, 0
14, 30820, Note_off_c, 13, 65, 0
14, 30913, Note_on_c, 13, 64, 68
14, 31002, Note_off_c, 13, 64, 0
14, 31005, Note_on_c, 13, 65, 72
14, 31091, Note_off_c, 13, 65, 0
14, 31100, Note_on_c, 13, 67, 73
14, 31177, Note_off_c, 13, 67, 0
14, 31194, Note_on_c, 13, 67, 69
14, 31274, Note_off_c, 13, 67, 0
14, 31294, Note_on_c, 13, 67, 74
14, 31386, Note_off_c, 13, 67, 0
14, 31388, Note_on_c, 13, 69, 74
14, 31481, Note_on_c, 13, 64, 66
14, 31482, Note_off_c, 13, 69, 0
14, 31618, Note_off_c, 13, 64, 0
14, 31629, Note_on_c, 13, 67, 70
14, 31674, Note_off_c, 13, 67, 0
14, 31678, Note_on_c, 13, 65, 66
14, 31771, Note_on_c, 13, 64, 66
14, 31772, Note_off_c, 13, 65, 0
14, 31822, Note_off_c, 13, 64, 0
14, 31823, Note_on_c, 13, 65, 69
14, 31967, Note_on_c, 13, 67, 71
14, 31968, Note_off_c, 13, 65, 0
14, 32013, Note_on_c, 13, 69, 67
14, 32015, Note_off_c, 13, 67, 0
14, 32155, Note_off_c, 13, 69, 0
14, 32160, Note_on_c, 13, 65, 67
14, 32211, Note_off_c, 13, 65, 0
14, 32211, Note_on_c, 13, 62, 66
14, 32364, Note_off_c, 13, 62, 0
14, 32395, Note_on_c, 13, 62, 66
14, 32445, Note_off_c, 13, 62, 0
14, 32448, Note_on_c, 13, 60, 72
14, 32545, Note_off_c, 13, 60, 0
14, 32546, Note_on_c, 13, 59, 71
14, 32648, Note_off_c, 13, 59, 0
14, 32648, Note_on_c, 13, 60, 68
14, 33045, Note_off_c, 13, 60, 0
14, 38619, Note_on_c, 13, 60, 86
14, 38622, Note_on_c, 13, 67, 85
14, 38696, Note_off_c, 13, 67, 0
14, 38696, Note_on_c, 13, 69, 84
14, 38698, Note_off_c, 13, 60, 0
14, 38698, Note_on_c, 13, 62, 85
14, 38754, Note_off_c, 13, 69, 0
14, 38762, Note_off_c, 13, 62, 0
14, 38769, Note_on_c, 13, 72, 85
14, 38774, Note_on_c, 13, 64, 87
14, 38942, Note_off_c, 13, 64, 0
14, 38945, Note_off_c, 13, 72, 0
14, 38976, Note_on_c, 13, 69, 82
14, 38977, Note_on_c, 13, 60, 82
14, 39065, Note_off_c, 13, 69, 0
14, 39069, Note_on_c, 13, 72, 86
14, 39070, Note_off_c, 13, 60, 0
14, 39071, Note_on_c, 13, 64, 83
14, 39117, Note_off_c, 13, 72, 0
14, 39120, Note_off_c, 13, 64, 0
14, 39123, Note_on_c, 13, 74, 82
14, 39125, Note_on_c, 13, 65, 86
14, 39259, Note_off_c, 13, 74, 0
14, 39264, Note_off_c, 13, 65, 0
14, 39362, Note_on_c, 13, 64, 82
14, 39363, Note_on_c, 13, 72, 86
14, 39452, Note_off_c, 13, 64, 0
14, 39454, Note_off_c, 13, 72, 0
14, 39456, Note_on_c, 13, 74, 86
14, 39458, Note_on_c, 13, 65, 85
14, 39524, Note_off_c, 13, 74, 0
14, 39533, Note_off_c, 13, 65, 0
14, 39547, Note_on_c, 13, 76, 86
14, 39549, Note_on_c, 13, 67, 87
14, 39614, Note_off_c, 13, 76, 0
14, 39615, Note_off_c, 13, 67, 0
14, 39646, Note_on_c, 13, 67, 83
14, 39647, Note_on_c, 13, 76, 82
14, 39723, Note_off_c, 13, 76, 0
14, 39730, Note_off_c, 13, 67, 0
14, 39746, Note_on_c, 13, 65, 84
14, 39746, Note_on_c, 13, 74, 83
14, 39832, Note_on_c, 13, 64, 83
14, 39834, Note_off_c, 13, 74, 0
14, 39836, Note_on_c, 13, 72, 84
14, 39838, Note_off_c, 13, 65, 0
14, 39885, Note_off_c, 13, 72, 0
14, 39885, Note_on_c, 13, 74, 85
14, 39886, Note_on_c, 13, 65, 82
14, 39890, Note_off_c, 13, 64, 0
14, 40028, Note_off_c, 13, 65, 0
14, 40034, Note_off_c, 13, 74, 0
14, 40070, Note_on_c, 13, 69, 86
14, 40071, Note_on_c, 13, 77, 85
14, 40113, Note_off_c, 13, 77, 0
14, 40121, Note_off_c, 13, 69, 0
14, 40121, Note_on_c, 13, 67, 82
14, 40126, Note_on_c, 13, 76, 82
14, 40207, Note_on_c, 13, 65, 85
14, 40216, Note_on_c, 13, 74, 87
14, 40217, Note_off_c, 13, 76, 0
14, 40218, Note_off_c, 13, 67, 0
14, 40302, Note_off_c, 13, 65, 0
14, 40305, Note_off_c, 13, 74, 0
14, 40320, Note_on_c, 13, 72, 86
14, 40322, Note_on_c, 13, 64, 83
14, 40374, Note_off_c, 13, 64, 0
14, 40390, Note_off_c, 13, 72, 0
14, 40416, Note_on_c, 13, 72, 87
14, 40420, Note_on_c, 13, 64, 85
14, 40465, Note_off_c, 13, 72, 0
14, 40467, Note_off_c, 13, 64, 0
14, 40468, Note_on_c, 13, 60, 85
14, 40472, Note_on_c, 13, 69, 87
14, 40618, Note_off_c, 13, 60, 0
14, 40624, Note_off_c, 13, 69, 0
14, 40656, Note_on_c, 13, 59, 85
14, 40659, Note_on_c, 13, 67, 86
14, 40689, Note_off_c, 13, 67, 0
14, 40700, Note_off_c, 13, 59, 0
14, 40706, Note_on_c, 13, 69, 82
14, 40710, Note_on_c, 13, 60, 86
14, 40783, Note_off_c, 13, 69, 0
14, 40792, Note_off_c, 13, 60, 0
14, 40806, Note_on_c, 13, 69, 86
14, 40812, Note_on_c, 13, 60, 83
14, 40875, Note_off_c, 13, 69, 0
14, 40891, Note_off_c, 13, 60, 0
14, 40898, Note_on_c, 13, 59, 83
14, 40899, Note_on_c, 13, 67, 86
14, 40973, Note_off_c, 13, 67, 0
14, 40980, Note_off_c, 13, 59, 0
14, 40995, Note_on_c, 13, 67, 84
14, 40999, Note_on_c, 13, 59, 86
14, 41041, Note_off_c, 13, 59, 0
14, 41041, Note_off_c, 13, 67, 0
14, 41044, Note_on_c, 13, 64, 86
14, 41046, Note_on_c, 13, 60, 82
14, 41477, Note_off_c, 13, 60, 0
14, 41477, Note_off_c, 13, 64, 0
14, 41662, Note_on_c, 13, 67, 87
14, 41665, Note_on_c, 13, 60, 86
14, 41756, Note_off_c, 13, 60, 0
14, 41759, Note_off_c, 13, 67, 0
14, 41762, Note_on_c, 13, 62, 82
14, 41764, Note_on_c, 13, 69, 84
14, 41833, Note_off_c, 13, 69, 0
14, 41840, Note_off_c, 13, 62, 0
14, 41854, Note_on_c, 13, 72, 85
14, 41857, Note_on_c, 13, 64, 83
14, 41921, Note_off_c, 13, 72, 0
14, 41924, Note_off_c, 13, 64, 0
14, 41951, Note_on_c, 13, 64, 84
14, 41952, Note_on_c, 13, 72, 86
14, 42042, Note_off_c, 13, 72, 0
14, 42044, Note_off_c, 13, 64, 0
14, 42056, Note_on_c, 13, 69, 82
14, 42058, Note_on_c, 13, 60, 87
14, 42148, Note_off_c, 13, 60, 0
14, 42148, Note_on_c, 13, 72, 83
14, 42149, Note_on_c, 13, 64, 86
14, 42154, Note_off_c, 13, 69, 0
14, 42183, Note_off_c, 13, 72, 0
14, 42192, Note_off_c, 13, 64, 0
14, 42193, Note_on_c, 13, 74, 85
14, 42198, Note_on_c, 13, 65, 86
14, 42320, Note_off_c, 13, 74, 0
14, 42326, Note_off_c, 13, 65, 0
14, 42391, Note_on_c, 13, 74, 86
14, 42392, Note_on_c, 13, 65, 83
14, 42437, Note_on_c, 13, 64, 84
14, 42438, Note_off_c, 13, 74, 0
14, 42440, Note_on_c, 13, 72, 86
14, 42449, Note_off_c, 13, 65, 0
14, 42529, Note_off_c, 13, 72, 0
14, 42530, Note_off_c, 13, 64, 0
14, 42532, Note_on_c, 13, 74, 84
14, 42533, Note_on_c, 13, 65, 83
14, 42609, Note_off_c, 13, 74, 0
14, 42616, Note_off_c, 13, 65, 0
14, 42622, Note_on_c, 13, 67, 83
14, 42623, Note_on_c, 13, 76, 85
14, 42685, Note_off_c, 13, 76, 0
14, 42694, Note_off_c, 13, 67, 0
14, 42720, Note_on_c, 13, 67, 85
14, 42723, Note_on_c, 13, 76, 83
14, 42820, Note_off_c, 13, 76, 0
14, 42823, Note_on_c, 13, 77, 85
14, 42826, Note_off_c, 13, 67, 0
14, 42827, Note_on_c, 13, 69, 85
14, 42908, Note_on_c, 13, 67, 82
14, 42908, Note_on_c, 13, 76, 83
14, 42912, Note_off_c, 13, 77, 0
14, 42933, Note_off_c, 13, 69, 0
14, 42948, Note_off_c, 13, 76, 0
14, 42952, Note_off_c, 13, 67, 0
14, 42963, Note_on_c, 13, 76, 84
14, 42966, Note_on_c, 13, 67, 82
14, 43113, Note_off_c, 13, 67, 0
14, 43114, Note_off_c, 13, 76, 0
14, 43152, Note_on_c, 13, 76, 87
14, 43152, Note_on_c, 13, 67, 85
14, 43201, Note_on_c, 13, 74, 84
14, 43204, Note_on_c, 13, 65, 83
14, 43210, Note_off_c, 13, 76, 0
14, 43214, Note_off_c, 13, 67, 0
14, 43292, Note_on_c, 13, 64, 84
14, 43294, Note_off_c, 13, 65, 0
14, 43298, Note_on_c, 13, 72, 82
14, 43302, Note_off_c, 13, 74, 0
14, 43332, Note_off_c, 13, 72, 0
14, 43340, Note_on_c, 13, 65, 86
14, 43340, Note_on_c, 13, 74, 82
14, 43341, Note_off_c, 13, 64, 0
14, 43484, Note_on_c, 13, 76, 82
14, 43485, Note_on_c, 13, 67, 83
14, 43486, Note_off_c, 13, 65, 0
14, 43492, Note_off_c, 13, 74, 0
14, 43528, Note_off_c, 13, 76, 0
14, 43534, Note_on_c, 13, 77, 80
14, 43535, Note_off_c, 13, 67, 0
14, 43538, Note_on_c, 13, 69, 81
14, 43678, Note_off_c, 13, 69, 0
14, 43685, Note_on_c, 13, 67, 82
14, 43688, Note_on_c, 13, 74, 83
14, 43690, Note_off_c, 13, 77, 0
14, 43732, Note_off_c, 13, 74, 0
14, 43736, Note_off_c, 13, 67, 0
14, 43744, Note_on_c, 13, 69, 80
14, 43746, Note_on_c, 13, 60, 78
14, 43889, Note_off_c, 13, 69, 0
14, 43892, Note_off_c, 13, 60, 0
14, 43926, Note_on_c, 13, 59, 75
14, 43929, Note_on_c, 13, 67, 75
14, 43951, Note_off_c, 13, 59, 0
14, 43971, Note_off_c, 13, 67, 0
14, 43973, Note_on_c, 13, 60, 72
14, 43974, Note_on_c, 13, 69, 77
14, 44056, Note_off_c, 13, 60, 0
14, 44062, Note_off_c, 13, 69, 0
14, 44068, Note_on_c, 13, 71, 75
14, 44070, Note_on_c, 13, 62, 75
14, 44155, Note_off_c, 13, 71, 0
14, 44162, Note_off_c, 13, 62, 0
14, 44162, Note_on_c, 13, 72, 75
14, 44163, Note_on_c, 13, 64, 74
14, 44521, Note_off_c, 13, 72, 0
14, 44528, Note_off_c, 13, 64, 0
14, 44542, Note_on_c, 13, 72, 78
14, 44544, Note_on_c, 13, 64, 78
14, 44704, Note_off_c, 13, 72, 0
14, 44707, Note_off_c, 13, 64, 0
14, 44739, Note_on_c, 13, 72, 82
14, 44740, Note_on_c, 13, 64, 78
14, 44895, Note_off_c, 13, 64, 0
14, 44895, Note_off_c, 13, 72, 0
14, 44913, Note_on_c, 13, 73, 88
14, 44918, Note_on_c, 13, 65, 90
14, 45086, Note_off_c, 13, 65, 0
14, 45089, Note_off_c, 13, 73, 0
14, 45120, Note_on_c, 13, 70, 85
14, 45121, Note_on_c, 13, 61, 85
14, 45209, Note_off_c, 13, 70, 0
14, 45213, Note_on_c, 13, 73, 89
14, 45214, Note_off_c, 13, 61, 0
14, 45215, Note_on_c, 13, 65, 86
14, 45261, Note_off_c, 13, 73, 0
14, 45264, Note_off_c, 13, 65, 0
14, 45267, Note_on_c, 13, 75, 85
14, 45269, Note_on_c, 13, 66, 89
14, 45403, Note_off_c, 13, 75, 0
14, 45408, Note_off_c, 13, 66, 0
14, 45506, Note_on_c, 13, 65, 85
14, 45507, Note_on_c, 13, 73, 89
14, 45596, Note_off_c, 13, 65, 0
14, 45598, Note_off_c, 13, 73, 0
14, 45600, Note_on_c, 13, 75, 89
14, 45602, Note_on_c, 13, 66, 88
14, 45668, Note_off_c, 13, 75, 0
14, 45677, Note_off_c, 13, 66, 0
14, 45691, Note_on_c, 13, 77, 89
14, 45693, Note_on_c, 13, 68, 90
14, 45758, Note_off_c, 13, 77, 0
14, 45759, Note_off_c, 13, 68, 0
14, 45790, Note_on_c, 13, 68, 86
14, 45791, Note_on_c, 13, 77, 85
14, 45867, Note_off_c, 13, 77, 0
14, 45874, Note_off_c, 13, 68, 0
14, 45890, Note_on_c, 13, 66, 87
14, 45890, Note_on_c, 13, 75, 86
14, 45976, Note_on_c, 13, 65, 86
14, 45978, Note_off_c, 13, 75, 0
14, 45980, Note_on_c, 13, 73, 87
14, 45982, Note_off_c, 13, 66, 0
14, 46029, Note_off_c, 13, 73, 0
14, 46029, Note_on_c, 13, 75, 88
14, 46030, Note_on_c, 13, 66, 85
14, 46034, Note_off_c, 13, 65, 0
14, 46172, Note_off_c, 13, 66, 0
14, 46178, Note_off_c, 13, 75, 0
14, 46214, Note_on_c, 13, 70, 89
14, 46215, Note_on_c, 13, 78, 88
14, 46257, Note_off_c, 13, 78, 0
14, 46265, Note_off_c, 13, 70, 0
14, 46265, Note_on_c, 13, 68, 85
14, 46270, Note_on_c, 13, 77, 85
14, 46351, Note_on_c, 13, 66, 88
14, 46360, Note_on_c, 13, 75, 90
14, 46361, Note_off_c, 13, 77, 0
14, 46362, Note_off_c, 13, 68, 0
14, 46446, Note_off_c, 13, 66, 0
14, 46449, Note_off_c, 13, 75, 0
14, 46464, Note_on_c, 13, 73, 89
14, 46466, Note_on_c, 13, 65, 86
14, 46518, Note_off_c, 13, 65, 0
14, 46534, Note_off_c, 13, 73, 0
14, 46560, Note_on_c, 13, 73, 90
14, 46564, Note_on_c, 13, 65, 88
14, 46609, Note_off_c, 13, 73, 0
14, 46611, Note_off_c, 13, 65, 0
14, 46612, Note_on_c, 13, 61, 88
14, 46616, Note_on_c, 13, 70, 90
14, 46762, Note_off_c, 13, 61, 0
14, 46768, Note_off_c, 13, 70, 0
14, 46800, Note_on_c, 13, 60, 88
14, 46803, Note_on_c, 13, 68, 89
14, 46833, Note_off_c, 13, 68, 0
14, 46844, Note_off_c, 13, 60, 0
14, 46850, Note_on_c, 13, 70, 85
14, 46854, Note_on_c, 13, 61, 89
14, 46927, Note_off_c, 13, 70, 0
14, 46936, Note_off_c, 13, 61, 0
14, 46950, Note_on_c, 13, 70, 89
14, 46956, Note_on_c, 13, 61, 86
14, 47019, Note_off_c, 13, 70, 0
14, 47035, Note_off_c, 13, 61, 0
14, 47042, Note_on_c, 13, 60, 86
14, 47043, Note_on_c, 13, 68, 89
14, 47117, Note_off_c, 13, 68, 0
14, 47124, Note_off_c, 13, 60, 0
14, 47139, Note_on_c, 13, 68, 87
14, 47143, Note_on_c, 13, 60, 89
14, 47185, Note_off_c, 13, 60, 0
14, 47185, Note_off_c, 13, 68, 0
14, 47188, Note_on_c, 13, 65, 89
14, 47190, Note_on_c, 13, 61, 85
14, 47621, Note_off_c, 13, 61, 0
14, 47621, Note_off_c, 13, 65, 0
14, 47806, Note_on_c, 13, 68, 90
14, 47809, Note_on_c, 13, 61, 89
14, 47900, Note_off_c, 13, 61, 0
14, 47903, Note_off_c, 13, 68, 0
14, 47906, Note_on_c, 13, 63, 85
14, 47908, Note_on_c, 13, 70, 87
14, 47977, Note_off_c, 13, 70, 0
14, 47984, Note_off_c, 13, 63, 0
14, 47998, Note_on_c, 13, 73, 88
14, 48001, Note_on_c, 13, 65, 86
14, 48065, Note_off_c, 13, 73, 0
14, 48068, Note_off_c, 13, 65, 0
14, 48095, Note_on_c, 13, 65, 87
14, 48096, Note_on_c, 13, 73, 89
14, 48186, Note_off_c, 13, 73, 0
14, 48188, Note_off_c, 13, 65, 0
14, 48200, Note_on_c, 13, 70, 85
14, 48202, Note_on_c, 13, 61, 90
14, 48292, Note_off_c, 13, 61, 0
14, 48292, Note_on_c, 13, 73, 86
14, 48293, Note_on_c, 13, 65, 89
14, 48298, Note_off_c, 13, 70, 0
14, 48327, Note_off_c, 13, 73, 0
14, 48336, Note_off_c, 13, 65, 0
14, 48337, Note_on_c, 13, 75, 88
14, 48342, Note_on_c, 13, 66, 89
14, 48464, Note_off_c, 13, 75, 0
14, 48470, Note_off_c, 13, 66, 0
14, 48535, Note_on_c, 13, 75, 89
14, 48536, Note_on_c, 13, 66, 86
14, 48581, Note_on_c, 13, 65, 87
14, 48582, Note_off_c, 13, 75, 0
14, 48584, Note_on_c, 13, 73, 89
14, 48593, Note_off_c, 13, 66, 0
14, 48673, Note_off_c, 13, 73, 0
14, 48674, Note_off_c, 13, 65, 0
14, 48676, Note_on_c, 13, 75, 87
14, 48677, Note_on_c, 13, 66, 86
14, 48753, Note_off_c, 13, 75, 0
14, 48760, Note_off_c, 13, 66, 0
14, 48766, Note_on_c, 13, 68, 86
14, 48767, Note_on_c, 13, 77, 88
14, 48829, Note_off_c, 13, 77, 0
14, 48838, Note_off_c, 13, 68, 0
14, 48864, Note_on_c, 13, 68, 88
14, 48867, Note_on_c, 13, 77, 86
14, 48964, Note_off_c, 13, 77, 0
14, 48967, Note_on_c, 13, 78, 88
14, 48970, Note_off_c, 13, 68, 0
14, 48971, Note_on_c, 13, 70, 88
14, 49052, Note_on_c, 13, 68, 85
14, 49052, Note_on_c, 13, 77, 86
14, 49056, Note_off_c, 13, 78, 0
14, 49077, Note_off_c, 13, 70, 0
14, 49092, Note_off_c, 13, 77, 0
14, 49096, Note_off_c, 13, 68, 0
14, 49107, Note_on_c, 13, 77, 87
14, 49110, Note_on_c, 13, 68, 85
14, 49257, Note_off_c, 13, 68, 0
14, 49258, Note_off_c, 13, 77, 0
14, 49296, Note_on_c, 13, 77, 90
14, 49296, Note_on_c, 13, 68, 88
14, 49345, Note_on_c, 13, 75, 87
14, 49348, Note_on_c, 13, 66, 86
14, 49354, Note_off_c, 13, 77, 0
14, 49358, Note_off_c, 13, 68, 0
14, 49436, Note_on_c, 13, 65, 87
14, 49438, Note_off_c, 13, 66, 0
14, 49442, Note_on_c, 13, 73, 85
14, 49446, Note_off_c, 13, 75, 0
14, 49476, Note_off_c, 13, 73, 0
14, 49484, Note_on_c, 13, 66, 89
14, 49484, Note_on_c, 13, 75, 85
14, 49485, Note_off_c, 13, 65, 0
14, 49628, Note_on_c, 13, 77, 85
14, 49629, Note_on_c, 13, 68, 86
14, 49630, Note_off_c, 13, 66, 0
14, 49636, Note_off_c, 13, 75, 0
14, 49672, Note_off_c, 13, 77, 0
14, 49678, Note_on_c, 13, 78, 83
14, 49679, Note_off_c, 13, 68, 0
14, 49682, Note_on_c, 13, 70, 84
14, 49822, Note_off_c, 13, 70, 0
14, 49829, Note_on_c, 13, 68, 85
14, 49832, Note_on_c, 13, 75, 86
14, 49834, Note_off_c, 13, 78, 0
14, 49876, Note_off_c, 13, 75, 0
14, 49880, Note_off_c, 13, 68, 0
14, 49888, Note_on_c, 13, 70, 83
14, 49890, Note_on_c, 13, 61, 81
14, 50033, Note_off_c, 13, 70, 0
14, 50036, Note_off_c, 13, 61, 0
14, 50070, Note_on_c, 13, 60, 78
14, 50073, Note_on_c, 13, 68, 78
14, 50095, Note_off_c, 13, 60, 0
14, 50115, Note_off_c, 13, 68, 0
14, 50117, Note_on_c, 13, 61, 74
14, 50118, Note_on_c, 13, 70, 80
14, 50200, Note_off_c, 13, 61, 0
14, 50206, Note_off_c, 13, 70, 0
14, 50212, Note_on_c, 13, 72, 78
14, 50214, Note_on_c, 13, 63, 78
14, 50299, Note_off_c, 13, 72, 0
14, 50304, Note_on_c, 13, 77, 105
14, 50305, Note_on_c, 13, 73, 80
14, 50306, Note_off_c, 13, 63, 0
14, 50307, Note_on_c, 13, 68, 80
14, 50444, Note_off_c, 13, 68, 0
14, 50449, Note_off_c, 13, 73, 0
14, 50449, Note_on_c, 13, 75, 83
14, 50452, Note_on_c, 13, 72, 75
14, 50454, Note_off_c, 13, 77, 0
14, 50454, Note_on_c, 13, 66, 75
14, 50488, Note_off_c, 13, 75, 0
14, 50491, Note_on_c, 13, 77, 99
14, 50493, Note_on_c, 13, 73, 87
14, 50498, Note_off_c, 13, 66, 0
14, 50499, Note_off_c, 13, 72, 0
14, 50500, Note_on_c, 13, 68, 70
14, 50571, Note_off_c, 13, 77, 0
14, 50583, Note_on_c, 13, 75, 78
14, 50585, Note_on_c, 13, 78, 89
14, 50587, Note_off_c, 13, 73, 0
14, 50609, Note_off_c, 13, 68, 0
14, 50684, Note_off_c, 13, 75, 0
14, 50684, Note_on_c, 13, 73, 60
14, 50685, Note_on_c, 13, 80, 100
14, 50688, Note_on_c, 13, 77, 82
14, 50691, Note_off_c, 13, 78, 0
14, 50828, Note_off_c, 13, 80, 0
14, 50831, Note_off_c, 13, 73, 0
14, 50835, Note_off_c, 13, 77, 0
14, 50884, Note_on_c, 13, 73, 96
14, 50886, Note_on_c, 13, 66, 87
14, 50888, Note_on_c, 13, 70, 87
14, 50998, Note_off_c, 13, 73, 0
14, 51008, Note_off_c, 13, 66, 0
14, 51020, Note_off_c, 13, 70, 0
14, 51024, Note_on_c, 13, 72, 107
14, 51027, Note_on_c, 13, 65, 67
14, 51028, Note_on_c, 13, 68, 80
14, 51065, Note_off_c, 13, 65, 0
14, 51071, Note_off_c, 13, 68, 0
14, 51074, Note_on_c, 13, 73, 100
14, 51074, Note_on_c, 13, 66, 72
14, 51074, Note_on_c, 13, 70, 93
14, 51084, Note_off_c, 13, 72, 0
14, 51164, Note_on_c, 13, 68, 75
14, 51168, Note_off_c, 13, 66, 0
14, 51170, Note_on_c, 13, 75, 100
14, 51171, Note_off_c, 13, 73, 0
14, 51172, Note_off_c, 13, 70, 0
14, 51174, Note_on_c, 13, 72, 93
14, 51242, Note_off_c, 13, 68, 0
14, 51245, Note_off_c, 13, 72, 0
14, 51257, Note_off_c, 13, 75, 0
14, 51263, Note_on_c, 13, 73, 75
14, 51267, Note_on_c, 13, 68, 70
14, 51269, Note_on_c, 13, 77, 93
14, 51409, Note_off_c, 13, 68, 0
14, 51410, Note_off_c, 13, 73, 0
14, 51414, Note_off_c, 13, 77, 0
14, 51459, Note_on_c, 13, 61, 70
14, 51459, Note_on_c, 13, 70, 104
14, 51463, Note_on_c, 13, 66, 100
14, 51580, Note_off_c, 13, 66, 0
14, 51585, Note_off_c, 13, 70, 0
14, 51586, Note_off_c, 13, 61, 0
14, 51595, Note_on_c, 13, 68, 93
14, 51597, Note_on_c, 13, 65, 86
14, 51604, Note_on_c, 13, 60, 70
14, 51636, Note_off_c, 13, 68, 0
14, 51642, Note_off_c, 13, 60, 0
14, 51647, Note_on_c, 13, 70, 104
14, 51647, Note_on_c, 13, 66, 93
14, 51648, Note_on_c, 13, 61, 50
14, 51650, Note_off_c, 13, 65, 0
14, 51726, Note_off_c, 13, 70, 0
14, 51732, Note_off_c, 13, 66, 0
14, 51741, Note_on_c, 13, 68, 89
14, 51746, Note_off_c, 13, 61, 0
14, 51746, Note_on_c, 13, 72, 101
14, 51746, Note_on_c, 13, 63, 75
14, 51829, Note_off_c, 13, 72, 0
14, 51831, Note_off_c, 13, 63, 0
14, 51834, Note_on_c, 13, 67, 65
14, 51840, Note_off_c, 13, 68, 0
14, 51840, Note_on_c, 13, 73, 96
14, 51846, Note_on_c, 13, 70, 87
14, 51997, Note_off_c, 13, 67, 0
14, 51998, Note_off_c, 13, 70, 0
14, 52008, Note_off_c, 13, 73, 0
14, 52038, Note_on_c, 13, 67, 65
14, 52044, Note_on_c, 13, 75, 107
14, 52044, Note_on_c, 13, 73, 89
14, 52110, Note_off_c, 13, 73, 0
14, 52110, Note_off_c, 13, 75, 0
14, 52124, Note_off_c, 13, 67, 0
14, 52127, Note_on_c, 13, 73, 83
14, 52131, Note_on_c, 13, 66, 72
14, 52132, Note_on_c, 13, 75, 100
14, 52601, Note_on_c, 13, 72, 72
14, 52602, Note_off_c, 13, 73, 0
14, 52836, Note_off_c, 13, 72, 0
14, 52850, Note_off_c, 13, 66, 0
14, 52852, Note_off_c, 13, 75, 0
14, 52892, Note_on_c, 13, 68, 107
14, 52985, Note_off_c, 13, 68, 0
14, 52989, Note_on_c, 13, 77, 86
14, 52995, Note_on_c, 13, 68, 62
14, 53000, Note_on_c, 13, 73, 72
14, 53122, Note_off_c, 13, 73, 0
14, 53132, Note_off_c, 13, 68, 0
14, 53132, Note_off_c, 13, 77, 0
14, 53134, Note_on_c, 13, 72, 86
14, 53139, Note_on_c, 13, 75, 80
14, 53142, Note_on_c, 13, 66, 65
14, 53178, Note_off_c, 13, 75, 0
14, 53179, Note_off_c, 13, 66, 0
14, 53180, Note_off_c, 13, 72, 0
14, 53180, Note_on_c, 13, 73, 75
14, 53182, Note_on_c, 13, 68, 60
14, 53186, Note_on_c, 13, 77, 92
14, 53267, Note_off_c, 13, 73, 0
14, 53275, Note_off_c, 13, 77, 0
14, 53276, Note_on_c, 13, 75, 87
14, 53280, Note_on_c, 13, 78, 96
14, 53310, Note_off_c, 13, 68, 0
14, 53361, Note_off_c, 13, 75, 0
14, 53372, Note_on_c, 13, 77, 84
14, 53376, Note_on_c, 13, 80, 96
14, 53377, Note_on_c, 13, 73, 65
14, 53382, Note_off_c, 13, 78, 0
14, 53515, Note_off_c, 13, 77, 0
14, 53515, Note_off_c, 13, 73, 0
14, 53517, Note_off_c, 13, 80, 0
14, 53575, Note_on_c, 13, 70, 93
14, 53576, Note_on_c, 13, 66, 78
14, 53578, Note_on_c, 13, 73, 93
14, 53692, Note_off_c, 13, 73, 0
14, 53693, Note_off_c, 13, 66, 0
14, 53699, Note_off_c, 13, 70, 0
14, 53710, Note_on_c, 13, 65, 61
14, 53711, Note_on_c, 13, 72, 101
14, 53713, Note_on_c, 13, 68, 78
14, 53752, Note_off_c, 13, 68, 0
14, 53756, Note_off_c, 13, 72, 0
14, 53757, Note_on_c, 13, 73, 96
14, 53758, Note_off_c, 13, 65, 0
14, 53758, Note_on_c, 13, 66, 65
14, 53758, Note_on_c, 13, 70, 83
14, 53832, Note_off_c, 13, 70, 0
14, 53849, Note_on_c, 13, 68, 70
14, 53851, Note_off_c, 13, 66, 0
14, 53852, Note_off_c, 13, 73, 0
14, 53857, Note_on_c, 13, 72, 87
14, 53859, Note_on_c, 13, 75, 87
14, 53933, Note_off_c, 13, 75, 0
14, 53939, Note_off_c, 13, 72, 0
14, 53954, Note_on_c, 13, 73, 75
14, 53956, Note_on_c, 13, 77, 87
14, 54122, Control_c, 13, 11, 100
14, 54127, Control_c, 13, 11, 99
14, 54150, Control_c, 13, 11, 98
14, 54165, Control_c, 13, 11, 97
14, 54174, Control_c, 13, 11, 96
14, 54179, Control_c, 13, 11, 95
14, 54188, Control_c, 13, 11, 94
14, 54193, Control_c, 13, 11, 93
14, 54198, Control_c, 13, 11, 92
14, 54203, Control_c, 13, 11, 91
14, 54207, Control_c, 13, 11, 90
14, 54212, Control_c, 13, 11, 89
14, 54217, Control_c, 13, 11, 88
14, 54222, Control_c, 13, 11, 87
14, 54226, Control_c, 13, 11, 86
14, 54231, Control_c, 13, 11, 84
14, 54236, Control_c, 13, 11, 83
14, 54240, Control_c, 13, 11, 82
14, 54245, Control_c, 13, 11, 80
14, 54250, Control_c, 13, 11, 79
14, 54255, Control_c, 13, 11, 77
14, 54260, Control_c, 13, 11, 75
14, 54264, Control_c, 13, 11, 74
14, 54269, Control_c, 13, 11, 72
14, 54274, Control_c, 13, 11, 70
14, 54278, Control_c, 13, 11, 68
14, 54283, Control_c, 13, 11, 66
14, 54288, Control_c, 13, 11, 64
14, 54293, Control_c, 13, 11, 62
14, 54298, Control_c, 13, 11, 60
14, 54302, Control_c, 13, 11, 58
14, 54307, Control_c, 13, 11, 56
14, 54312, Control_c, 13, 11, 54
14, 54316, Control_c, 13, 11, 51
14, 54321, Control_c, 13, 11, 49
14, 54326, Control_c, 13, 11, 47
14, 54331, Control_c, 13, 11, 44
14, 54336, Control_c, 13, 11, 41
14, 54340, Control_c, 13, 11, 39
14, 54345, Control_c, 13, 11, 36
14, 54348, Note_off_c, 13, 68, 0
14, 54354, Note_off_c, 13, 73, 0
14, 54362, Note_off_c, 13, 77, 0
14, 54556, Control_c, 13, 11, 100
14, 58952, Control_c, 13, 121, 0
14, 58960, Control_c, 13, 91, 0
14, 58968, Control_c, 13, 93, 0
14, 58968, End_track
15, 0, Start_track
15, 0, Title_t, "Bowed Gla"
15, 0, Channel_prefix, 14
15, 0, Control_c, 14, 7, 80
15, 0, Control_c, 14, 10, 64
15, 0, Program_c, 14, 92
15, 40, Control_c, 14, 121, 0
15, 48, Control_c, 14, 11, 57
15, 64, Control_c, 14, 91, 127
15, 72, Control_c, 14, 93, 100
15, 814, Note_on_c, 14, 70, 99
15, 814, Note_on_c, 14, 74, 113
15, 816, Note_on_c, 14, 65, 99
15, 959, Note_on_c, 14, 72, 113
15, 964, Note_off_c, 14, 74, 0
15, 1008, Note_on_c, 14, 74, 113
15, 1018, Note_off_c, 14, 72, 0
15, 1102, Note_on_c, 14, 75, 113
15, 1110, Note_off_c, 14, 74, 0
15, 1177, Note_off_c, 14, 70, 0
15, 1188, Note_off_c, 14, 65, 0
15, 1198, Note_on_c, 14, 70, 99
15, 1199, Note_on_c, 14, 65, 99
15, 1200, Note_on_c, 14, 77, 113
15, 1209, Note_off_c, 14, 75, 0
15, 1551, Note_off_c, 14, 70, 0
15, 1553, Note_off_c, 14, 65, 0
15, 1568, Note_off_c, 14, 77, 0
15, 1584, Note_on_c, 14, 70, 113
15, 1585, Note_on_c, 14, 63, 99
15, 1729, Note_off_c, 14, 70, 0
15, 1729, Note_on_c, 14, 69, 113
15, 1776, Note_on_c, 14, 70, 113
15, 1788, Note_off_c, 14, 69, 0
15, 1870, Note_on_c, 14, 72, 113
15, 1884, Note_off_c, 14, 70, 0
15, 1956, Note_off_c, 14, 63, 0
15, 1965, Note_on_c, 14, 74, 113
15, 1969, Note_on_c, 14, 65, 99
15, 1977, Note_off_c, 14, 72, 0
15, 2156, Note_off_c, 14, 65, 0
15, 2162, Note_on_c, 14, 65, 113
15, 2168, Note_off_c, 14, 74, 0
15, 2350, Note_off_c, 14, 65, 0
15, 2350, Note_on_c, 14, 58, 99
15, 2350, Note_on_c, 14, 67, 113
15, 2494, Note_off_c, 14, 67, 0
15, 2496, Note_on_c, 14, 65, 113
15, 2545, Note_on_c, 14, 67, 113
15, 2558, Note_off_c, 14, 65, 0
15, 2639, Note_on_c, 14, 69, 113
15, 2647, Note_off_c, 14, 67, 0
15, 2733, Note_on_c, 14, 60, 99
15, 2736, Note_on_c, 14, 70, 113
15, 2743, Note_off_c, 14, 69, 0
15, 2755, Note_off_c, 14, 58, 0
15, 3025, Note_on_c, 14, 72, 113
15, 3036, Note_off_c, 14, 70, 0
15, 3116, Note_off_c, 14, 72, 0
15, 3120, Note_on_c, 14, 72, 113
15, 3120, Note_on_c, 14, 63, 99
15, 3122, Note_on_c, 14, 70, 99
15, 3125, Note_off_c, 14, 60, 0
15, 3503, Note_on_c, 14, 69, 99
15, 3513, Note_off_c, 14, 70, 0
15, 3842, Note_off_c, 14, 69, 0
15, 3864, Note_off_c, 14, 72, 0
15, 3865, Note_off_c, 14, 63, 0
15, 3886, Note_on_c, 14, 70, 91
15, 3886, Note_on_c, 14, 74, 103
15, 3888, Note_on_c, 14, 65, 91
15, 4172, Note_off_c, 14, 74, 0
15, 4174, Note_on_c, 14, 75, 103
15, 4249, Note_off_c, 14, 70, 0
15, 4260, Note_off_c, 14, 65, 0
15, 4270, Note_on_c, 14, 70, 91
15, 4271, Note_on_c, 14, 65, 91
15, 4272, Note_on_c, 14, 77, 103
15, 4281, Note_off_c, 14, 75, 0
15, 4623, Note_off_c, 14, 70, 0
15, 4625, Note_off_c, 14, 65, 0
15, 4640, Note_off_c, 14, 77, 0
15, 4656, Note_on_c, 14, 70, 103
15, 4657, Note_on_c, 14, 63, 91
15, 4937, Note_off_c, 14, 70, 0
15, 4942, Note_on_c, 14, 72, 103
15, 5028, Note_off_c, 14, 63, 0
15, 5037, Note_on_c, 14, 74, 103
15, 5041, Note_on_c, 14, 65, 91
15, 5049, Note_off_c, 14, 72, 0
15, 5228, Note_off_c, 14, 65, 0
15, 5234, Note_on_c, 14, 65, 103
15, 5240, Note_off_c, 14, 74, 0
15, 5422, Note_off_c, 14, 65, 0
15, 5422, Note_on_c, 14, 58, 91
15, 5422, Note_on_c, 14, 67, 103
15, 5707, Note_off_c, 14, 67, 0
15, 5711, Note_on_c, 14, 69, 103
15, 5805, Note_on_c, 14, 60, 91
15, 5808, Note_on_c, 14, 70, 103
15, 5815, Note_off_c, 14, 69, 0
15, 5827, Note_off_c, 14, 58, 0
15, 6097, Note_on_c, 14, 72, 103
15, 6108, Note_off_c, 14, 70, 0
15, 6188, Note_off_c, 14, 72, 0
15, 6191, Note_on_c, 14, 70, 91
15, 6193, Note_on_c, 14, 65, 91
15, 6194, Note_on_c, 14, 74, 103
15, 6197, Note_off_c, 14, 60, 0
15, 6568, Note_off_c, 14, 70, 0
15, 6570, Note_off_c, 14, 74, 0
15, 6576, Note_on_c, 14, 72, 103
15, 6578, Note_on_c, 14, 69, 91
15, 6935, Note_off_c, 14, 65, 0
15, 6949, Note_off_c, 14, 69, 0
15, 6950, Note_off_c, 14, 72, 0
15, 6958, Note_on_c, 14, 70, 91
15, 6958, Note_on_c, 14, 74, 103
15, 6960, Note_on_c, 14, 65, 91
15, 7244, Note_off_c, 14, 74, 0
15, 7246, Note_on_c, 14, 75, 103
15, 7321, Note_off_c, 14, 70, 0
15, 7332, Note_off_c, 14, 65, 0
15, 7342, Note_on_c, 14, 70, 91
15, 7343, Note_on_c, 14, 65, 91
15, 7344, Note_on_c, 14, 77, 103
15, 7353, Note_off_c, 14, 75, 0
15, 7695, Note_off_c, 14, 70, 0
15, 7697, Note_off_c, 14, 65, 0
15, 7712, Note_off_c, 14, 77, 0
15, 7728, Note_on_c, 14, 70, 103
15, 7729, Note_on_c, 14, 63, 91
15, 8009, Note_off_c, 14, 70, 0
15, 8014, Note_on_c, 14, 72, 103
15, 8100, Note_off_c, 14, 63, 0
15, 8109, Note_on_c, 14, 74, 103
15, 8113, Note_on_c, 14, 65, 91
15, 8121, Note_off_c, 14, 72, 0
15, 8300, Note_off_c, 14, 65, 0
15, 8306, Note_on_c, 14, 65, 103
15, 8312, Note_off_c, 14, 74, 0
15, 8494, Note_off_c, 14, 65, 0
15, 8494, Note_on_c, 14, 58, 91
15, 8494, Note_on_c, 14, 67, 103
15, 8779, Note_off_c, 14, 67, 0
15, 8783, Note_on_c, 14, 69, 103
15, 8877, Note_on_c, 14, 60, 91
15, 8880, Note_on_c, 14, 70, 103
15, 8887, Note_off_c, 14, 69, 0
15, 8899, Note_off_c, 14, 58, 0
15, 9169, Note_on_c, 14, 72, 103
15, 9180, Note_off_c, 14, 70, 0
15, 9260, Note_off_c, 14, 72, 0
15, 9263, Note_on_c, 14, 70, 91
15, 9265, Note_on_c, 14, 65, 91
15, 9266, Note_on_c, 14, 74, 103
15, 9269, Note_off_c, 14, 60, 0
15, 9640, Note_off_c, 14, 70, 0
15, 9642, Note_off_c, 14, 74, 0
15, 9648, Note_on_c, 14, 72, 103
15, 9650, Note_on_c, 14, 69, 91
15, 10007, Note_off_c, 14, 65, 0
15, 10021, Note_off_c, 14, 69, 0
15, 10022, Note_off_c, 14, 72, 0
15, 21120, Control_c, 14, 10, 64
15, 21120, Control_c, 14, 7, 80
15, 21120, Program_c, 14, 92
15, 21168, Note_on_c, 14, 64, 95
15, 21168, Note_on_c, 14, 60, 95
15, 21168, Note_on_c, 14, 67, 95
15, 21423, Note_off_c, 14, 67, 0
15, 21423, Note_off_c, 14, 64, 0
15, 21425, Note_off_c, 14, 60, 0
15, 21456, Note_on_c, 14, 60, 95
15, 21456, Note_on_c, 14, 65, 95
15, 21456, Note_on_c, 14, 62, 95
15, 21456, Note_on_c, 14, 67, 95
15, 21533, Note_off_c, 14, 65, 0
15, 21541, Note_off_c, 14, 62, 0
15, 21544, Note_off_c, 14, 60, 0
15, 21552, Note_on_c, 14, 60, 95
15, 21552, Note_on_c, 14, 64, 95
15, 21891, Note_off_c, 14, 67, 0
15, 21893, Note_off_c, 14, 64, 0
15, 21895, Note_off_c, 14, 60, 0
15, 21936, Note_on_c, 14, 65, 95
15, 21936, Note_on_c, 14, 60, 95
15, 21936, Note_on_c, 14, 57, 95
15, 22175, Note_off_c, 14, 57, 0
15, 22178, Note_off_c, 14, 60, 0
15, 22181, Note_off_c, 14, 65, 0
15, 22224, Note_on_c, 14, 62, 95
15, 22224, Note_on_c, 14, 59, 95
15, 22224, Note_on_c, 14, 67, 95
15, 22304, Note_off_c, 14, 59, 0
15, 22312, Note_off_c, 14, 62, 0
15, 22320, Note_on_c, 14, 64, 95
15, 22320, Note_on_c, 14, 60, 95
15, 22661, Note_off_c, 14, 60, 0
15, 22662, Note_off_c, 14, 64, 0
15, 22666, Note_off_c, 14, 67, 0
15, 22704, Note_on_c, 14, 65, 95
15, 22704, Note_on_c, 14, 69, 95
15, 22704, Note_on_c, 14, 60, 95
15, 23066, Note_off_c, 14, 60, 0
15, 23073, Note_off_c, 14, 65, 0
15, 23085, Note_off_c, 14, 69, 0
15, 23088, Note_on_c, 14, 69, 95
15, 23088, Note_on_c, 14, 62, 95
15, 23088, Note_on_c, 14, 60, 95
15, 23088, Note_on_c, 14, 66, 95
15, 23427, Note_off_c, 14, 60, 0
15, 23429, Note_off_c, 14, 66, 0
15, 23431, Note_off_c, 14, 62, 0
15, 23438, Note_off_c, 14, 69, 0
15, 23472, Note_on_c, 14, 62, 95
15, 23472, Note_on_c, 14, 65, 95
15, 23472, Note_on_c, 14, 67, 95
15, 23472, Note_on_c, 14, 72, 95
15, 23810, Note_off_c, 14, 72, 0
15, 23830, Note_off_c, 14, 65, 0
15, 23832, Note_off_c, 14, 67, 0
15, 23838, Note_off_c, 14, 62, 0
15, 23856, Note_on_c, 14, 62, 95
15, 23856, Note_on_c, 14, 71, 95
15, 23856, Note_on_c, 14, 67, 95
15, 23856, Note_on_c, 14, 65, 95
15, 24206, Note_off_c, 14, 71, 0
15, 24207, Note_off_c, 14, 67, 0
15, 24207, Note_off_c, 14, 65, 0
15, 24216, Note_off_c, 14, 62, 0
15, 24240, Note_on_c, 14, 64, 95
15, 24240, Note_on_c, 14, 60, 95
15, 24240, Note_on_c, 14, 67, 95
15, 24495, Note_off_c, 14, 67, 0
15, 24495, Note_off_c, 14, 64, 0
15, 24497, Note_off_c, 14, 60, 0
15, 24528, Note_on_c, 14, 60, 95
15, 24528, Note_on_c, 14, 65, 95
15, 24528, Note_on_c, 14, 62, 95
15, 24528, Note_on_c, 14, 67, 95
15, 24605, Note_off_c, 14, 65, 0
15, 24613, Note_off_c, 14, 62, 0
15, 24616, Note_off_c, 14, 60, 0
15, 24624, Note_on_c, 14, 60, 95
15, 24624, Note_on_c, 14, 64, 95
15, 24963, Note_off_c, 14, 67, 0
15, 24965, Note_off_c, 14, 64, 0
15, 24967, Note_off_c, 14, 60, 0
15, 25008, Note_on_c, 14, 65, 95
15, 25008, Note_on_c, 14, 60, 95
15, 25008, Note_on_c, 14, 57, 95
15, 25247, Note_off_c, 14, 57, 0
15, 25250, Note_off_c, 14, 60, 0
15, 25253, Note_off_c, 14, 65, 0
15, 25296, Note_on_c, 14, 62, 95
15, 25296, Note_on_c, 14, 59, 95
15, 25296, Note_on_c, 14, 67, 95
15, 25376, Note_off_c, 14, 59, 0
15, 25384, Note_off_c, 14, 62, 0
15, 25392, Note_on_c, 14, 64, 95
15, 25392, Note_on_c, 14, 60, 95
15, 25733, Note_off_c, 14, 60, 0
15, 25734, Note_off_c, 14, 64, 0
15, 25738, Note_off_c, 14, 67, 0
15, 25776, Note_on_c, 14, 65, 95
15, 25776, Note_on_c, 14, 69, 95
15, 25776, Note_on_c, 14, 60, 95
15, 26138, Note_off_c, 14, 60, 0
15, 26145, Note_off_c, 14, 65, 0
15, 26157, Note_off_c, 14, 69, 0
15, 26160, Note_on_c, 14, 69, 95
15, 26160, Note_on_c, 14, 62, 95
15, 26160, Note_on_c, 14, 60, 95
15, 26160, Note_on_c, 14, 66, 95
15, 26499, Note_off_c, 14, 60, 0
15, 26501, Note_off_c, 14, 66, 0
15, 26503, Note_off_c, 14, 62, 0
15, 26510, Note_off_c, 14, 69, 0
15, 26544, Note_on_c, 14, 62, 95
15, 26544, Note_on_c, 14, 65, 95
15, 26544, Note_on_c, 14, 67, 95
15, 26544, Note_on_c, 14, 72, 95
15, 26882, Note_off_c, 14, 72, 0
15, 26902, Note_off_c, 14, 65, 0
15, 26904, Note_off_c, 14, 67, 0
15, 26910, Note_off_c, 14, 62, 0
15, 26928, Note_on_c, 14, 62, 95
15, 26928, Note_on_c, 14, 71, 95
15, 26928, Note_on_c, 14, 67, 95
15, 26928, Note_on_c, 14, 65, 95
15, 27278, Note_off_c, 14, 71, 0
15, 27279, Note_off_c, 14, 67, 0
15, 27279, Note_off_c, 14, 65, 0
15, 27288, Note_off_c, 14, 62, 0
15, 34812, Control_c, 14, 11, 95
15, 35328, Note_on_c, 14, 60, 108
15, 35328, Note_on_c, 14, 64, 108
15, 35328, Note_on_c, 14, 57, 108
15, 36092, Note_off_c, 14, 57, 0
15, 36096, Note_on_c, 14, 56, 108
15, 36096, Note_on_c, 14, 59, 108
15, 36096, Note_on_c, 14, 62, 108
15, 36097, Note_off_c, 14, 64, 0
15, 36100, Note_off_c, 14, 60, 0
15, 36858, Note_off_c, 14, 62, 0
15, 36860, Note_off_c, 14, 56, 0
15, 36860, Note_off_c, 14, 59, 0
15, 36864, Note_on_c, 14, 64, 108
15, 36864, Note_on_c, 14, 60, 108
15, 36864, Note_on_c, 14, 67, 108
15, 37236, Note_off_c, 14, 67, 0
15, 37236, Note_off_c, 14, 60, 0
15, 37236, Note_off_c, 14, 64, 0
15, 37248, Note_on_c, 14, 62, 108
15, 37248, Note_on_c, 14, 66, 108
15, 37248, Note_on_c, 14, 69, 108
15, 37620, Note_off_c, 14, 69, 0
15, 37620, Note_off_c, 14, 66, 0
15, 37620, Note_off_c, 14, 62, 0
15, 37632, Note_on_c, 14, 69, 108
15, 37632, Note_on_c, 14, 60, 108
15, 37632, Note_on_c, 14, 65, 108
15, 38004, Note_off_c, 14, 60, 0
15, 38004, Note_off_c, 14, 69, 0
15, 38016, Note_on_c, 14, 59, 108
15, 38016, Note_on_c, 14, 67, 108
15, 38790, Note_off_c, 14, 65, 0
15, 38792, Note_off_c, 14, 67, 0
15, 38794, Note_off_c, 14, 59, 0
15, 55896, Note_on_c, 14, 70, 98
15, 55896, Note_on_c, 14, 66, 98
15, 56158, Note_off_c, 14, 66, 0
15, 56164, Note_off_c, 14, 70, 0
15, 56184, Note_on_c, 14, 68, 98
15, 56184, Note_on_c, 14, 65, 98
15, 56264, Note_off_c, 14, 65, 0
15, 56271, Note_off_c, 14, 68, 0
15, 56280, Note_on_c, 14, 70, 98
15, 56280, Note_on_c, 14, 66, 98
15, 56436, Note_off_c, 14, 66, 0
15, 56444, Note_off_c, 14, 70, 0
15, 56472, Note_on_c, 14, 70, 98
15, 56472, Note_on_c, 14, 66, 98
15, 56556, Note_off_c, 14, 66, 0
15, 56561, Note_off_c, 14, 70, 0
15, 56568, Note_on_c, 14, 72, 98
15, 56568, Note_on_c, 14, 68, 98
15, 56661, Note_off_c, 14, 68, 0
15, 56662, Note_off_c, 14, 72, 0
15, 58952, Control_c, 14, 121, 0
15, 58960, Control_c, 14, 91, 0
15, 58968, Control_c, 14, 93, 0
15, 58968, End_track
16, 0, Start_track
16, 0, Channel_prefix, 15
16, 0, Control_c, 15, 7, 127
16, 0, Program_c, 15, 0
16, 0, End_track
17, 0, Start_track
17, 0, Channel_prefix, 3
17, 0, Control_c, 3, 7, 100
17, 0, Program_c, 3, 0
17, 0, End_track
0, 0, End_of_file
