0, 0, Header, 1, 14, 120
1, 0, Start_track
1, 0, Title_t, "untitled"
1, 0, MIDI_port, 0
1, 0, System_exclusive, 10, 65, 16, 66, 18, 64, 0, 127, 0, 65, 247
1, 0, MIDI_port, 0
1, 0, Time_signature, 3, 2, 24, 8
1, 0, Key_signature, 3, "major"
1, 0, Tempo, 750000
1, 2160, Marker_t, "intro"
1, 10800, Marker_t, "chorus"
1, 19440, Marker_t, "verse"
1, 25200, Marker_t, "chorus"
1, 30960, Marker_t, "tag"
1, 30960, End_track
2, 0, Start_track
2, 0, MIDI_port, 0
2, 0, Title_t, "PIANO/INTRO"
2, 120, Control_c, 0, 0, 0
2, 121, Control_c, 0, 32, 0
2, 122, Program_c, 0, 0
2, 123, Control_c, 0, 7, 100
2, 720, Note_on_c, 0, 71, 127
2, 720, Note_on_c, 0, 76, 127
2, 745, Note_on_c, 0, 73, 127
2, 759, Note_on_c, 0, 71, 0
2, 777, Control_c, 0, 64, 127
2, 800, Note_on_c, 0, 73, 0
2, 800, Note_on_c, 0, 76, 0
2, 800, Note_on_c, 0, 71, 127
2, 800, Note_on_c, 0, 76, 127
2, 825, Note_on_c, 0, 73, 127
2, 839, Note_on_c, 0, 71, 0
2, 856, Control_c, 0, 64, 0
2, 944, Control_c, 0, 64, 127
2, 960, Note_on_c, 0, 73, 0
2, 960, Note_on_c, 0, 76, 0
2, 1038, Control_c, 0, 64, 0
2, 1040, Note_on_c, 0, 74, 127
2, 1040, Note_on_c, 0, 78, 127
2, 1064, Control_c, 0, 64, 127
2, 1079, Note_on_c, 0, 78, 0
2, 1079, Note_on_c, 0, 74, 0
2, 1080, Note_on_c, 0, 71, 127
2, 1101, Control_c, 0, 64, 0
2, 1105, Note_on_c, 0, 73, 127
2, 1105, Note_on_c, 0, 76, 127
2, 1119, Note_on_c, 0, 71, 0
2, 1184, Control_c, 0, 64, 127
2, 1240, Note_on_c, 0, 73, 0
2, 1290, Note_on_c, 0, 76, 0
2, 1320, Note_on_c, 0, 71, 127
2, 1320, Note_on_c, 0, 76, 127
2, 1359, Note_on_c, 0, 76, 0
2, 1359, Note_on_c, 0, 71, 0
2, 1434, Control_c, 0, 64, 0
2, 1440, Note_on_c, 0, 69, 127
2, 1440, Note_on_c, 0, 73, 127
2, 1800, Note_on_c, 0, 73, 0
2, 1800, Note_on_c, 0, 69, 0
2, 2160, Note_on_c, 0, 73, 127
2, 2160, Note_on_c, 0, 69, 127
2, 2238, Control_c, 0, 64, 127
2, 2280, Note_on_c, 0, 69, 0
2, 2280, Note_on_c, 0, 73, 0
2, 2280, Note_on_c, 0, 69, 127
2, 2280, Note_on_c, 0, 73, 127
2, 2480, Note_on_c, 0, 73, 0
2, 2480, Note_on_c, 0, 69, 0
2, 2480, Note_on_c, 0, 73, 127
2, 2480, Note_on_c, 0, 69, 127
2, 2519, Note_on_c, 0, 69, 0
2, 2519, Note_on_c, 0, 73, 0
2, 2520, Note_on_c, 0, 69, 127
2, 2520, Note_on_c, 0, 73, 127
2, 2639, Note_on_c, 0, 69, 0
2, 2640, Note_on_c, 0, 73, 0
2, 2640, Note_on_c, 0, 71, 127
2, 2640, Note_on_c, 0, 74, 127
2, 2645, Control_c, 0, 64, 0
2, 2681, Control_c, 0, 64, 127
2, 2759, Note_on_c, 0, 74, 0
2, 2759, Note_on_c, 0, 71, 0
2, 2760, Note_on_c, 0, 73, 127
2, 2760, Note_on_c, 0, 76, 127
2, 2765, Control_c, 0, 64, 0
2, 2796, Control_c, 0, 64, 127
2, 2880, Note_on_c, 0, 76, 0
2, 2880, Note_on_c, 0, 73, 0
2, 2880, Note_on_c, 0, 73, 127
2, 2880, Note_on_c, 0, 78, 127
2, 2885, Control_c, 0, 64, 0
2, 2905, Note_on_c, 0, 74, 127
2, 2919, Note_on_c, 0, 73, 0
2, 2974, Control_c, 0, 64, 127
2, 3120, Note_on_c, 0, 78, 0
2, 3200, Note_on_c, 0, 74, 0
2, 3200, Note_on_c, 0, 66, 127
2, 3239, Note_on_c, 0, 66, 0
2, 3240, Note_on_c, 0, 69, 127
2, 3240, Note_on_c, 0, 74, 127
2, 3245, Control_c, 0, 64, 0
2, 3349, Control_c, 0, 64, 127
2, 3589, Control_c, 0, 64, 0
2, 3599, Note_on_c, 0, 74, 0
2, 3599, Note_on_c, 0, 69, 0
2, 3600, Note_on_c, 0, 71, 127
2, 3600, Note_on_c, 0, 76, 127
2, 3625, Note_on_c, 0, 73, 127
2, 3639, Note_on_c, 0, 71, 0
2, 3657, Control_c, 0, 64, 127
2, 3680, Note_on_c, 0, 73, 0
2, 3680, Note_on_c, 0, 76, 0
2, 3680, Note_on_c, 0, 71, 127
2, 3680, Note_on_c, 0, 76, 127
2, 3705, Note_on_c, 0, 73, 127
2, 3719, Note_on_c, 0, 71, 0
2, 3736, Control_c, 0, 64, 0
2, 3824, Control_c, 0, 64, 127
2, 3840, Note_on_c, 0, 73, 0
2, 3840, Note_on_c, 0, 76, 0
2, 3918, Control_c, 0, 64, 0
2, 3920, Note_on_c, 0, 74, 127
2, 3920, Note_on_c, 0, 78, 127
2, 3944, Control_c, 0, 64, 127
2, 3959, Note_on_c, 0, 78, 0
2, 3959, Note_on_c, 0, 74, 0
2, 3960, Note_on_c, 0, 71, 127
2, 3981, Control_c, 0, 64, 0
2, 3985, Note_on_c, 0, 73, 127
2, 3985, Note_on_c, 0, 76, 127
2, 3999, Note_on_c, 0, 71, 0
2, 4064, Control_c, 0, 64, 127
2, 4120, Note_on_c, 0, 73, 0
2, 4170, Note_on_c, 0, 76, 0
2, 4200, Note_on_c, 0, 71, 127
2, 4200, Note_on_c, 0, 76, 127
2, 4239, Note_on_c, 0, 76, 0
2, 4239, Note_on_c, 0, 71, 0
2, 4314, Control_c, 0, 64, 0
2, 4320, Note_on_c, 0, 69, 127
2, 4320, Note_on_c, 0, 73, 127
2, 4680, Note_on_c, 0, 73, 0
2, 4680, Note_on_c, 0, 69, 0
2, 16560, Note_on_c, 0, 73, 127
2, 16560, Note_on_c, 0, 69, 127
2, 16638, Control_c, 0, 64, 127
2, 16680, Note_on_c, 0, 69, 0
2, 16680, Note_on_c, 0, 73, 0
2, 16680, Note_on_c, 0, 69, 127
2, 16680, Note_on_c, 0, 73, 127
2, 16880, Note_on_c, 0, 73, 0
2, 16880, Note_on_c, 0, 69, 0
2, 16880, Note_on_c, 0, 73, 127
2, 16880, Note_on_c, 0, 69, 127
2, 16919, Note_on_c, 0, 69, 0
2, 16919, Note_on_c, 0, 73, 0
2, 16920, Note_on_c, 0, 69, 127
2, 16920, Note_on_c, 0, 73, 127
2, 17039, Note_on_c, 0, 69, 0
2, 17040, Note_on_c, 0, 73, 0
2, 17040, Note_on_c, 0, 71, 127
2, 17040, Note_on_c, 0, 74, 127
2, 17045, Control_c, 0, 64, 0
2, 17081, Control_c, 0, 64, 127
2, 17159, Note_on_c, 0, 74, 0
2, 17159, Note_on_c, 0, 71, 0
2, 17160, Note_on_c, 0, 73, 127
2, 17160, Note_on_c, 0, 76, 127
2, 17165, Control_c, 0, 64, 0
2, 17196, Control_c, 0, 64, 127
2, 17280, Note_on_c, 0, 76, 0
2, 17280, Note_on_c, 0, 73, 0
2, 17280, Note_on_c, 0, 73, 127
2, 17280, Note_on_c, 0, 78, 127
2, 17285, Control_c, 0, 64, 0
2, 17305, Note_on_c, 0, 74, 127
2, 17319, Note_on_c, 0, 73, 0
2, 17374, Control_c, 0, 64, 127
2, 17520, Note_on_c, 0, 78, 0
2, 17600, Note_on_c, 0, 74, 0
2, 17600, Note_on_c, 0, 66, 127
2, 17639, Note_on_c, 0, 66, 0
2, 17640, Note_on_c, 0, 69, 127
2, 17640, Note_on_c, 0, 74, 127
2, 17645, Control_c, 0, 64, 0
2, 17749, Control_c, 0, 64, 127
2, 17989, Control_c, 0, 64, 0
2, 17999, Note_on_c, 0, 74, 0
2, 17999, Note_on_c, 0, 69, 0
2, 18000, Note_on_c, 0, 71, 127
2, 18000, Note_on_c, 0, 76, 127
2, 18025, Note_on_c, 0, 73, 127
2, 18039, Note_on_c, 0, 71, 0
2, 18057, Control_c, 0, 64, 127
2, 18080, Note_on_c, 0, 73, 0
2, 18080, Note_on_c, 0, 76, 0
2, 18080, Note_on_c, 0, 71, 127
2, 18080, Note_on_c, 0, 76, 127
2, 18105, Note_on_c, 0, 73, 127
2, 18119, Note_on_c, 0, 71, 0
2, 18136, Control_c, 0, 64, 0
2, 18224, Control_c, 0, 64, 127
2, 18240, Note_on_c, 0, 73, 0
2, 18240, Note_on_c, 0, 76, 0
2, 18318, Control_c, 0, 64, 0
2, 18320, Note_on_c, 0, 74, 127
2, 18320, Note_on_c, 0, 78, 127
2, 18344, Control_c, 0, 64, 127
2, 18359, Note_on_c, 0, 78, 0
2, 18359, Note_on_c, 0, 74, 0
2, 18360, Note_on_c, 0, 71, 127
2, 18381, Control_c, 0, 64, 0
2, 18385, Note_on_c, 0, 73, 127
2, 18385, Note_on_c, 0, 76, 127
2, 18399, Note_on_c, 0, 71, 0
2, 18464, Control_c, 0, 64, 127
2, 18520, Note_on_c, 0, 73, 0
2, 18570, Note_on_c, 0, 76, 0
2, 18600, Note_on_c, 0, 71, 127
2, 18600, Note_on_c, 0, 76, 127
2, 18639, Note_on_c, 0, 76, 0
2, 18639, Note_on_c, 0, 71, 0
2, 18714, Control_c, 0, 64, 0
2, 18720, Note_on_c, 0, 69, 127
2, 18720, Note_on_c, 0, 73, 127
2, 19080, Note_on_c, 0, 73, 0
2, 19080, Note_on_c, 0, 69, 0
2, 24833, Control_c, 0, 64, 127
2, 24840, Note_on_c, 0, 52, 127
2, 24840, Note_on_c, 0, 64, 127
2, 24879, Note_on_c, 0, 64, 0
2, 24879, Note_on_c, 0, 52, 0
2, 24880, Note_on_c, 0, 54, 127
2, 24880, Note_on_c, 0, 66, 127
2, 24919, Note_on_c, 0, 66, 0
2, 24919, Note_on_c, 0, 54, 0
2, 24920, Note_on_c, 0, 56, 127
2, 24920, Note_on_c, 0, 68, 127
2, 24959, Note_on_c, 0, 68, 0
2, 24959, Note_on_c, 0, 56, 0
2, 24960, Note_on_c, 0, 57, 127
2, 24960, Note_on_c, 0, 69, 127
2, 24999, Note_on_c, 0, 69, 0
2, 24999, Note_on_c, 0, 57, 0
2, 25000, Note_on_c, 0, 71, 127
2, 25000, Note_on_c, 0, 59, 127
2, 25039, Note_on_c, 0, 59, 0
2, 25039, Note_on_c, 0, 71, 0
2, 25040, Note_on_c, 0, 61, 127
2, 25040, Note_on_c, 0, 73, 127
2, 25079, Note_on_c, 0, 73, 0
2, 25079, Note_on_c, 0, 61, 0
2, 25080, Note_on_c, 0, 76, 127
2, 25080, Note_on_c, 0, 64, 127
2, 25119, Note_on_c, 0, 64, 0
2, 25119, Note_on_c, 0, 76, 0
2, 25120, Note_on_c, 0, 66, 127
2, 25120, Note_on_c, 0, 78, 127
2, 25159, Note_on_c, 0, 78, 0
2, 25159, Note_on_c, 0, 66, 0
2, 25160, Note_on_c, 0, 68, 127
2, 25160, Note_on_c, 0, 80, 127
2, 25199, Note_on_c, 0, 80, 0
2, 25199, Note_on_c, 0, 68, 0
2, 25200, Note_on_c, 0, 69, 127
2, 25200, Note_on_c, 0, 81, 127
2, 25200, Note_on_c, 0, 73, 127
2, 25209, Control_c, 0, 64, 0
2, 25520, Note_on_c, 0, 73, 0
2, 25520, Note_on_c, 0, 81, 0
2, 25520, Note_on_c, 0, 69, 0
2, 25520, End_track
3, 0, Start_track
3, 0, MIDI_port, 0
3, 0, Title_t, "ACC.GUITAR"
3, 130, Control_c, 2, 0, 0
3, 131, Control_c, 2, 32, 0
3, 132, Program_c, 2, 25
3, 133, Control_c, 2, 7, 100
3, 720, Note_on_c, 2, 45, 95
3, 840, Note_on_c, 2, 69, 95
3, 840, Note_on_c, 2, 64, 95
3, 840, Note_on_c, 2, 61, 95
3, 960, Note_on_c, 2, 61, 0
3, 960, Note_on_c, 2, 64, 0
3, 960, Note_on_c, 2, 69, 0
3, 960, Note_on_c, 2, 69, 95
3, 960, Note_on_c, 2, 61, 95
3, 960, Note_on_c, 2, 64, 95
3, 1080, Note_on_c, 2, 64, 0
3, 1080, Note_on_c, 2, 45, 0
3, 1080, Note_on_c, 2, 69, 0
3, 1080, Note_on_c, 2, 61, 0
3, 1080, Note_on_c, 2, 52, 95
3, 1200, Note_on_c, 2, 64, 95
3, 1200, Note_on_c, 2, 68, 95
3, 1200, Note_on_c, 2, 59, 95
3, 1320, Note_on_c, 2, 59, 0
3, 1320, Note_on_c, 2, 52, 0
3, 1320, Note_on_c, 2, 64, 0
3, 1320, Note_on_c, 2, 68, 0
3, 1320, Note_on_c, 2, 64, 95
3, 1320, Note_on_c, 2, 59, 95
3, 1320, Note_on_c, 2, 68, 95
3, 1440, Note_on_c, 2, 68, 0
3, 1440, Note_on_c, 2, 59, 0
3, 1440, Note_on_c, 2, 64, 0
3, 1440, Note_on_c, 2, 45, 95
3, 1560, Note_on_c, 2, 69, 95
3, 1560, Note_on_c, 2, 64, 95
3, 1560, Note_on_c, 2, 61, 95
3, 1680, Note_on_c, 2, 61, 0
3, 1680, Note_on_c, 2, 45, 0
3, 1680, Note_on_c, 2, 69, 0
3, 1680, Note_on_c, 2, 64, 0
3, 1680, Note_on_c, 2, 69, 95
3, 1680, Note_on_c, 2, 64, 95
3, 1680, Note_on_c, 2, 61, 95
3, 1800, Note_on_c, 2, 61, 0
3, 1800, Note_on_c, 2, 64, 0
3, 1800, Note_on_c, 2, 69, 0
3, 1800, Note_on_c, 2, 56, 95
3, 1800, Note_on_c, 2, 64, 95
3, 1920, Note_on_c, 2, 64, 0
3, 1920, Note_on_c, 2, 56, 0
3, 1920, Note_on_c, 2, 57, 95
3, 1920, Note_on_c, 2, 66, 95
3, 2040, Note_on_c, 2, 66, 0
3, 2040, Note_on_c, 2, 57, 0
3, 2040, Note_on_c, 2, 68, 95
3, 2040, Note_on_c, 2, 59, 95
3, 2160, Note_on_c, 2, 59, 0
3, 2160, Note_on_c, 2, 68, 0
3, 2160, Note_on_c, 2, 45, 95
3, 2160, Note_on_c, 2, 64, 95
3, 2160, Note_on_c, 2, 61, 95
3, 2160, Note_on_c, 2, 69, 95
3, 2391, Control_c, 2, 64, 127
3, 2400, Note_on_c, 2, 69, 0
3, 2400, Note_on_c, 2, 45, 0
3, 2400, Note_on_c, 2, 64, 0
3, 2400, Note_on_c, 2, 61, 0
3, 2489, Control_c, 2, 64, 0
3, 2520, Note_on_c, 2, 45, 95
3, 2520, Note_on_c, 2, 61, 95
3, 2640, Note_on_c, 2, 61, 0
3, 2640, Note_on_c, 2, 45, 0
3, 2640, Note_on_c, 2, 47, 95
3, 2640, Note_on_c, 2, 62, 95
3, 2760, Note_on_c, 2, 62, 0
3, 2760, Note_on_c, 2, 47, 0
3, 2760, Note_on_c, 2, 49, 95
3, 2760, Note_on_c, 2, 64, 95
3, 2880, Note_on_c, 2, 64, 0
3, 2880, Note_on_c, 2, 49, 0
3, 2880, Note_on_c, 2, 50, 95
3, 3000, Note_on_c, 2, 50, 0
3, 3000, Note_on_c, 2, 66, 95
3, 3000, Note_on_c, 2, 62, 95
3, 3000, Note_on_c, 2, 57, 95
3, 3120, Note_on_c, 2, 57, 0
3, 3120, Note_on_c, 2, 62, 0
3, 3120, Note_on_c, 2, 66, 0
3, 3120, Note_on_c, 2, 66, 95
3, 3120, Note_on_c, 2, 57, 95
3, 3120, Note_on_c, 2, 62, 95
3, 3240, Note_on_c, 2, 62, 0
3, 3240, Note_on_c, 2, 57, 0
3, 3240, Note_on_c, 2, 66, 0
3, 3240, Note_on_c, 2, 50, 95
3, 3360, Note_on_c, 2, 50, 0
3, 3360, Note_on_c, 2, 66, 95
3, 3360, Note_on_c, 2, 62, 95
3, 3360, Note_on_c, 2, 57, 95
3, 3480, Note_on_c, 2, 57, 0
3, 3480, Note_on_c, 2, 62, 0
3, 3480, Note_on_c, 2, 66, 0
3, 3480, Note_on_c, 2, 66, 95
3, 3480, Note_on_c, 2, 62, 95
3, 3480, Note_on_c, 2, 57, 95
3, 3600, Note_on_c, 2, 57, 0
3, 3600, Note_on_c, 2, 62, 0
3, 3600, Note_on_c, 2, 66, 0
3, 3600, Note_on_c, 2, 45, 95
3, 3720, Note_on_c, 2, 69, 95
3, 3720, Note_on_c, 2, 64, 95
3, 3720, Note_on_c, 2, 61, 95
3, 3840, Note_on_c, 2, 61, 0
3, 3840, Note_on_c, 2, 64, 0
3, 3840, Note_on_c, 2, 69, 0
3, 3840, Note_on_c, 2, 69, 95
3, 3840, Note_on_c, 2, 61, 95
3, 3840, Note_on_c, 2, 64, 95
3, 3960, Note_on_c, 2, 64, 0
3, 3960, Note_on_c, 2, 45, 0
3, 3960, Note_on_c, 2, 69, 0
3, 3960, Note_on_c, 2, 61, 0
3, 3960, Note_on_c, 2, 52, 95
3, 4080, Note_on_c, 2, 64, 95
3, 4080, Note_on_c, 2, 68, 95
3, 4080, Note_on_c, 2, 59, 95
3, 4200, Note_on_c, 2, 59, 0
3, 4200, Note_on_c, 2, 52, 0
3, 4200, Note_on_c, 2, 64, 0
3, 4200, Note_on_c, 2, 68, 0
3, 4200, Note_on_c, 2, 64, 95
3, 4200, Note_on_c, 2, 59, 95
3, 4200, Note_on_c, 2, 68, 95
3, 4320, Note_on_c, 2, 68, 0
3, 4320, Note_on_c, 2, 59, 0
3, 4320, Note_on_c, 2, 64, 0
3, 4320, Note_on_c, 2, 45, 95
3, 4440, Note_on_c, 2, 69, 95
3, 4440, Note_on_c, 2, 64, 95
3, 4440, Note_on_c, 2, 61, 95
3, 4560, Note_on_c, 2, 61, 0
3, 4560, Note_on_c, 2, 45, 0
3, 4560, Note_on_c, 2, 69, 0
3, 4560, Note_on_c, 2, 64, 0
3, 4560, Note_on_c, 2, 69, 95
3, 4560, Note_on_c, 2, 64, 95
3, 4560, Note_on_c, 2, 61, 95
3, 4680, Note_on_c, 2, 61, 0
3, 4680, Note_on_c, 2, 64, 0
3, 4680, Note_on_c, 2, 69, 0
3, 4680, Note_on_c, 2, 56, 95
3, 4680, Note_on_c, 2, 64, 95
3, 4800, Note_on_c, 2, 64, 0
3, 4800, Note_on_c, 2, 56, 0
3, 4800, Note_on_c, 2, 57, 95
3, 4800, Note_on_c, 2, 66, 95
3, 4920, Note_on_c, 2, 66, 0
3, 4920, Note_on_c, 2, 57, 0
3, 4920, Note_on_c, 2, 68, 95
3, 4920, Note_on_c, 2, 59, 95
3, 5040, Note_on_c, 2, 59, 0
3, 5040, Note_on_c, 2, 68, 0
3, 5040, Note_on_c, 2, 45, 95
3, 5160, Note_on_c, 2, 45, 0
3, 5160, Note_on_c, 2, 69, 95
3, 5160, Note_on_c, 2, 64, 95
3, 5160, Note_on_c, 2, 61, 95
3, 5280, Note_on_c, 2, 61, 0
3, 5280, Note_on_c, 2, 64, 0
3, 5280, Note_on_c, 2, 69, 0
3, 5280, Note_on_c, 2, 64, 95
3, 5280, Note_on_c, 2, 69, 95
3, 5280, Note_on_c, 2, 61, 95
3, 5400, Note_on_c, 2, 61, 0
3, 5400, Note_on_c, 2, 69, 0
3, 5400, Note_on_c, 2, 64, 0
3, 5400, Note_on_c, 2, 50, 95
3, 5520, Note_on_c, 2, 50, 0
3, 5520, Note_on_c, 2, 66, 95
3, 5520, Note_on_c, 2, 69, 95
3, 5520, Note_on_c, 2, 62, 95
3, 5640, Note_on_c, 2, 62, 0
3, 5640, Note_on_c, 2, 69, 0
3, 5640, Note_on_c, 2, 66, 0
3, 5640, Note_on_c, 2, 66, 95
3, 5640, Note_on_c, 2, 62, 95
3, 5640, Note_on_c, 2, 69, 95
3, 5760, Note_on_c, 2, 69, 0
3, 5760, Note_on_c, 2, 62, 0
3, 5760, Note_on_c, 2, 66, 0
3, 5760, Note_on_c, 2, 45, 95
3, 5880, Note_on_c, 2, 45, 0
3, 5880, Note_on_c, 2, 69, 95
3, 5880, Note_on_c, 2, 64, 95
3, 5880, Note_on_c, 2, 61, 95
3, 6000, Note_on_c, 2, 61, 0
3, 6000, Note_on_c, 2, 64, 0
3, 6000, Note_on_c, 2, 69, 0
3, 6000, Note_on_c, 2, 69, 95
3, 6000, Note_on_c, 2, 64, 95
3, 6000, Note_on_c, 2, 61, 95
3, 6120, Note_on_c, 2, 61, 0
3, 6120, Note_on_c, 2, 64, 0
3, 6120, Note_on_c, 2, 69, 0
3, 6120, Note_on_c, 2, 61, 95
3, 6120, Note_on_c, 2, 64, 95
3, 6240, Note_on_c, 2, 64, 0
3, 6240, Note_on_c, 2, 61, 0
3, 6240, Note_on_c, 2, 63, 95
3, 6240, Note_on_c, 2, 60, 95
3, 6360, Note_on_c, 2, 60, 0
3, 6360, Note_on_c, 2, 63, 0
3, 6360, Note_on_c, 2, 62, 95
3, 6360, Note_on_c, 2, 59, 95
3, 6480, Note_on_c, 2, 59, 0
3, 6480, Note_on_c, 2, 62, 0
3, 6480, Note_on_c, 2, 45, 95
3, 6600, Note_on_c, 2, 45, 0
3, 6600, Note_on_c, 2, 69, 95
3, 6600, Note_on_c, 2, 61, 95
3, 6600, Note_on_c, 2, 64, 95
3, 6720, Note_on_c, 2, 64, 0
3, 6720, Note_on_c, 2, 61, 0
3, 6720, Note_on_c, 2, 69, 0
3, 6720, Note_on_c, 2, 69, 95
3, 6720, Note_on_c, 2, 64, 95
3, 6720, Note_on_c, 2, 61, 95
3, 6840, Note_on_c, 2, 61, 0
3, 6840, Note_on_c, 2, 64, 0
3, 6840, Note_on_c, 2, 69, 0
3, 6840, Note_on_c, 2, 52, 95
3, 6960, Note_on_c, 2, 52, 0
3, 6960, Note_on_c, 2, 64, 95
3, 6960, Note_on_c, 2, 68, 95
3, 6960, Note_on_c, 2, 59, 95
3, 7080, Note_on_c, 2, 59, 0
3, 7080, Note_on_c, 2, 68, 0
3, 7080, Note_on_c, 2, 64, 0
3, 7080, Note_on_c, 2, 59, 95
3, 7080, Note_on_c, 2, 64, 95
3, 7080, Note_on_c, 2, 68, 95
3, 7200, Note_on_c, 2, 68, 0
3, 7200, Note_on_c, 2, 64, 0
3, 7200, Note_on_c, 2, 59, 0
3, 7200, Note_on_c, 2, 45, 95
3, 7320, Note_on_c, 2, 45, 0
3, 7320, Note_on_c, 2, 69, 95
3, 7320, Note_on_c, 2, 64, 95
3, 7320, Note_on_c, 2, 61, 95
3, 7440, Note_on_c, 2, 61, 0
3, 7440, Note_on_c, 2, 64, 0
3, 7440, Note_on_c, 2, 69, 0
3, 7440, Note_on_c, 2, 64, 95
3, 7440, Note_on_c, 2, 61, 95
3, 7440, Note_on_c, 2, 69, 95
3, 7560, Note_on_c, 2, 69, 0
3, 7560, Note_on_c, 2, 61, 0
3, 7560, Note_on_c, 2, 64, 0
3, 7560, Note_on_c, 2, 56, 95
3, 7560, Note_on_c, 2, 64, 95
3, 7680, Note_on_c, 2, 64, 0
3, 7680, Note_on_c, 2, 56, 0
3, 7680, Note_on_c, 2, 57, 95
3, 7680, Note_on_c, 2, 66, 95
3, 7800, Note_on_c, 2, 66, 0
3, 7800, Note_on_c, 2, 57, 0
3, 7800, Note_on_c, 2, 68, 95
3, 7800, Note_on_c, 2, 59, 95
3, 7920, Note_on_c, 2, 59, 0
3, 7920, Note_on_c, 2, 68, 0
3, 7920, Note_on_c, 2, 45, 95
3, 8040, Note_on_c, 2, 45, 0
3, 8040, Note_on_c, 2, 69, 95
3, 8040, Note_on_c, 2, 64, 95
3, 8040, Note_on_c, 2, 61, 95
3, 8160, Note_on_c, 2, 61, 0
3, 8160, Note_on_c, 2, 64, 0
3, 8160, Note_on_c, 2, 69, 0
3, 8160, Note_on_c, 2, 64, 95
3, 8160, Note_on_c, 2, 69, 95
3, 8160, Note_on_c, 2, 61, 95
3, 8280, Note_on_c, 2, 61, 0
3, 8280, Note_on_c, 2, 69, 0
3, 8280, Note_on_c, 2, 64, 0
3, 8280, Note_on_c, 2, 50, 95
3, 8400, Note_on_c, 2, 50, 0
3, 8400, Note_on_c, 2, 66, 95
3, 8400, Note_on_c, 2, 69, 95
3, 8400, Note_on_c, 2, 62, 95
3, 8520, Note_on_c, 2, 62, 0
3, 8520, Note_on_c, 2, 69, 0
3, 8520, Note_on_c, 2, 66, 0
3, 8520, Note_on_c, 2, 66, 95
3, 8520, Note_on_c, 2, 62, 95
3, 8520, Note_on_c, 2, 69, 95
3, 8640, Note_on_c, 2, 69, 0
3, 8640, Note_on_c, 2, 62, 0
3, 8640, Note_on_c, 2, 66, 0
3, 8640, Note_on_c, 2, 45, 95
3, 8760, Note_on_c, 2, 45, 0
3, 8760, Note_on_c, 2, 69, 95
3, 8760, Note_on_c, 2, 64, 95
3, 8760, Note_on_c, 2, 61, 95
3, 8880, Note_on_c, 2, 61, 0
3, 8880, Note_on_c, 2, 64, 0
3, 8880, Note_on_c, 2, 69, 0
3, 8880, Note_on_c, 2, 64, 95
3, 8880, Note_on_c, 2, 69, 95
3, 8880, Note_on_c, 2, 61, 95
3, 9000, Note_on_c, 2, 61, 0
3, 9000, Note_on_c, 2, 69, 0
3, 9000, Note_on_c, 2, 64, 0
3, 9000, Note_on_c, 2, 61, 95
3, 9000, Note_on_c, 2, 64, 95
3, 9120, Note_on_c, 2, 64, 0
3, 9120, Note_on_c, 2, 61, 0
3, 9120, Note_on_c, 2, 63, 95
3, 9120, Note_on_c, 2, 60, 95
3, 9240, Note_on_c, 2, 60, 0
3, 9240, Note_on_c, 2, 63, 0
3, 9240, Note_on_c, 2, 59, 95
3, 9240, Note_on_c, 2, 62, 95
3, 9360, Note_on_c, 2, 62, 0
3, 9360, Note_on_c, 2, 59, 0
3, 9360, Note_on_c, 2, 45, 95
3, 9480, Note_on_c, 2, 45, 0
3, 9480, Note_on_c, 2, 69, 95
3, 9480, Note_on_c, 2, 64, 95
3, 9480, Note_on_c, 2, 61, 95
3, 9600, Note_on_c, 2, 61, 0
3, 9600, Note_on_c, 2, 64, 0
3, 9600, Note_on_c, 2, 69, 0
3, 9600, Note_on_c, 2, 64, 95
3, 9600, Note_on_c, 2, 69, 95
3, 9600, Note_on_c, 2, 61, 95
3, 9720, Note_on_c, 2, 61, 0
3, 9720, Note_on_c, 2, 69, 0
3, 9720, Note_on_c, 2, 64, 0
3, 9720, Note_on_c, 2, 52, 95
3, 9840, Note_on_c, 2, 52, 0
3, 9840, Note_on_c, 2, 64, 95
3, 9840, Note_on_c, 2, 59, 95
3, 9840, Note_on_c, 2, 68, 95
3, 9960, Note_on_c, 2, 68, 0
3, 9960, Note_on_c, 2, 59, 0
3, 9960, Note_on_c, 2, 64, 0
3, 9960, Note_on_c, 2, 64, 95
3, 9960, Note_on_c, 2, 59, 95
3, 9960, Note_on_c, 2, 68, 95
3, 10080, Note_on_c, 2, 68, 0
3, 10080, Note_on_c, 2, 59, 0
3, 10080, Note_on_c, 2, 64, 0
3, 10080, Note_on_c, 2, 45, 95
3, 10200, Note_on_c, 2, 45, 0
3, 10200, Note_on_c, 2, 64, 95
3, 10200, Note_on_c, 2, 69, 95
3, 10200, Note_on_c, 2, 61, 95
3, 10320, Note_on_c, 2, 61, 0
3, 10320, Note_on_c, 2, 69, 0
3, 10320, Note_on_c, 2, 64, 0
3, 10320, Note_on_c, 2, 69, 95
3, 10320, Note_on_c, 2, 64, 95
3, 10320, Note_on_c, 2, 61, 95
3, 10440, Note_on_c, 2, 61, 0
3, 10440, Note_on_c, 2, 64, 0
3, 10440, Note_on_c, 2, 69, 0
3, 10440, Note_on_c, 2, 52, 95
3, 10440, Note_on_c, 2, 68, 95
3, 10560, Note_on_c, 2, 68, 0
3, 10560, Note_on_c, 2, 52, 0
3, 10560, Note_on_c, 2, 54, 95
3, 10560, Note_on_c, 2, 69, 95
3, 10680, Note_on_c, 2, 69, 0
3, 10680, Note_on_c, 2, 54, 0
3, 10680, Note_on_c, 2, 71, 95
3, 10680, Note_on_c, 2, 56, 95
3, 10800, Note_on_c, 2, 56, 0
3, 10800, Note_on_c, 2, 71, 0
3, 10800, Note_on_c, 2, 57, 95
3, 10920, Note_on_c, 2, 57, 0
3, 10920, Note_on_c, 2, 69, 95
3, 10920, Note_on_c, 2, 64, 95
3, 10920, Note_on_c, 2, 61, 95
3, 11040, Note_on_c, 2, 61, 0
3, 11040, Note_on_c, 2, 64, 0
3, 11040, Note_on_c, 2, 69, 0
3, 11040, Note_on_c, 2, 61, 95
3, 11040, Note_on_c, 2, 64, 95
3, 11040, Note_on_c, 2, 69, 95
3, 11160, Note_on_c, 2, 69, 0
3, 11160, Note_on_c, 2, 64, 0
3, 11160, Note_on_c, 2, 61, 0
3, 11160, Note_on_c, 2, 52, 95
3, 11280, Note_on_c, 2, 52, 0
3, 11280, Note_on_c, 2, 64, 95
3, 11280, Note_on_c, 2, 68, 95
3, 11280, Note_on_c, 2, 59, 95
3, 11400, Note_on_c, 2, 59, 0
3, 11400, Note_on_c, 2, 68, 0
3, 11400, Note_on_c, 2, 64, 0
3, 11400, Note_on_c, 2, 64, 95
3, 11400, Note_on_c, 2, 59, 95
3, 11400, Note_on_c, 2, 68, 95
3, 11520, Note_on_c, 2, 68, 0
3, 11520, Note_on_c, 2, 59, 0
3, 11520, Note_on_c, 2, 64, 0
3, 11520, Note_on_c, 2, 45, 95
3, 11640, Note_on_c, 2, 45, 0
3, 11640, Note_on_c, 2, 69, 95
3, 11640, Note_on_c, 2, 64, 95
3, 11640, Note_on_c, 2, 61, 95
3, 11760, Note_on_c, 2, 61, 0
3, 11760, Note_on_c, 2, 64, 0
3, 11760, Note_on_c, 2, 69, 0
3, 11760, Note_on_c, 2, 64, 95
3, 11760, Note_on_c, 2, 69, 95
3, 11760, Note_on_c, 2, 61, 95
3, 11880, Note_on_c, 2, 61, 0
3, 11880, Note_on_c, 2, 69, 0
3, 11880, Note_on_c, 2, 64, 0
3, 11880, Note_on_c, 2, 45, 95
3, 11880, Note_on_c, 2, 61, 95
3, 12000, Note_on_c, 2, 61, 0
3, 12000, Note_on_c, 2, 45, 0
3, 12000, Note_on_c, 2, 62, 95
3, 12000, Note_on_c, 2, 47, 95
3, 12120, Note_on_c, 2, 47, 0
3, 12120, Note_on_c, 2, 62, 0
3, 12120, Note_on_c, 2, 49, 95
3, 12120, Note_on_c, 2, 64, 95
3, 12240, Note_on_c, 2, 64, 0
3, 12240, Note_on_c, 2, 49, 0
3, 12240, Note_on_c, 2, 50, 95
3, 12360, Note_on_c, 2, 50, 0
3, 12360, Note_on_c, 2, 69, 95
3, 12360, Note_on_c, 2, 66, 95
3, 12360, Note_on_c, 2, 62, 95
3, 12480, Note_on_c, 2, 62, 0
3, 12480, Note_on_c, 2, 66, 0
3, 12480, Note_on_c, 2, 69, 0
3, 12480, Note_on_c, 2, 66, 95
3, 12480, Note_on_c, 2, 69, 95
3, 12480, Note_on_c, 2, 62, 95
3, 12600, Note_on_c, 2, 62, 0
3, 12600, Note_on_c, 2, 69, 0
3, 12600, Note_on_c, 2, 66, 0
3, 12600, Note_on_c, 2, 52, 95
3, 12720, Note_on_c, 2, 52, 0
3, 12720, Note_on_c, 2, 68, 95
3, 12720, Note_on_c, 2, 64, 95
3, 12720, Note_on_c, 2, 59, 95
3, 12840, Note_on_c, 2, 59, 0
3, 12840, Note_on_c, 2, 64, 0
3, 12840, Note_on_c, 2, 68, 0
3, 12840, Note_on_c, 2, 64, 95
3, 12840, Note_on_c, 2, 68, 95
3, 12840, Note_on_c, 2, 59, 95
3, 12960, Note_on_c, 2, 59, 0
3, 12960, Note_on_c, 2, 68, 0
3, 12960, Note_on_c, 2, 64, 0
3, 12960, Note_on_c, 2, 45, 95
3, 13080, Note_on_c, 2, 45, 0
3, 13080, Note_on_c, 2, 69, 95
3, 13080, Note_on_c, 2, 64, 95
3, 13080, Note_on_c, 2, 61, 95
3, 13200, Note_on_c, 2, 61, 0
3, 13200, Note_on_c, 2, 64, 0
3, 13200, Note_on_c, 2, 69, 0
3, 13200, Note_on_c, 2, 64, 95
3, 13200, Note_on_c, 2, 61, 95
3, 13200, Note_on_c, 2, 69, 95
3, 13320, Note_on_c, 2, 69, 0
3, 13320, Note_on_c, 2, 61, 0
3, 13320, Note_on_c, 2, 64, 0
3, 13320, Note_on_c, 2, 56, 95
3, 13320, Note_on_c, 2, 64, 95
3, 13440, Note_on_c, 2, 64, 0
3, 13440, Note_on_c, 2, 56, 0
3, 13440, Note_on_c, 2, 57, 95
3, 13440, Note_on_c, 2, 66, 95
3, 13560, Note_on_c, 2, 66, 0
3, 13560, Note_on_c, 2, 57, 0
3, 13560, Note_on_c, 2, 68, 95
3, 13560, Note_on_c, 2, 59, 95
3, 13680, Note_on_c, 2, 59, 0
3, 13680, Note_on_c, 2, 68, 0
3, 13680, Note_on_c, 2, 45, 95
3, 13800, Note_on_c, 2, 45, 0
3, 13800, Note_on_c, 2, 69, 95
3, 13800, Note_on_c, 2, 64, 95
3, 13800, Note_on_c, 2, 61, 95
3, 13920, Note_on_c, 2, 61, 0
3, 13920, Note_on_c, 2, 64, 0
3, 13920, Note_on_c, 2, 69, 0
3, 13920, Note_on_c, 2, 64, 95
3, 13920, Note_on_c, 2, 69, 95
3, 13920, Note_on_c, 2, 61, 95
3, 14040, Note_on_c, 2, 61, 0
3, 14040, Note_on_c, 2, 69, 0
3, 14040, Note_on_c, 2, 64, 0
3, 14040, Note_on_c, 2, 45, 95
3, 14160, Note_on_c, 2, 45, 0
3, 14160, Note_on_c, 2, 69, 95
3, 14160, Note_on_c, 2, 64, 95
3, 14160, Note_on_c, 2, 61, 95
3, 14280, Note_on_c, 2, 61, 0
3, 14280, Note_on_c, 2, 64, 0
3, 14280, Note_on_c, 2, 69, 0
3, 14280, Note_on_c, 2, 64, 95
3, 14280, Note_on_c, 2, 69, 95
3, 14280, Note_on_c, 2, 61, 95
3, 14400, Note_on_c, 2, 61, 0
3, 14400, Note_on_c, 2, 69, 0
3, 14400, Note_on_c, 2, 64, 0
3, 14400, Note_on_c, 2, 50, 95
3, 14520, Note_on_c, 2, 50, 0
3, 14520, Note_on_c, 2, 66, 95
3, 14520, Note_on_c, 2, 69, 95
3, 14520, Note_on_c, 2, 62, 95
3, 14640, Note_on_c, 2, 62, 0
3, 14640, Note_on_c, 2, 69, 0
3, 14640, Note_on_c, 2, 66, 0
3, 14640, Note_on_c, 2, 66, 95
3, 14640, Note_on_c, 2, 69, 95
3, 14640, Note_on_c, 2, 62, 95
3, 14760, Note_on_c, 2, 62, 0
3, 14760, Note_on_c, 2, 69, 0
3, 14760, Note_on_c, 2, 66, 0
3, 14760, Note_on_c, 2, 50, 95
3, 14880, Note_on_c, 2, 50, 0
3, 14880, Note_on_c, 2, 69, 95
3, 14880, Note_on_c, 2, 66, 95
3, 14880, Note_on_c, 2, 62, 95
3, 15000, Note_on_c, 2, 62, 0
3, 15000, Note_on_c, 2, 66, 0
3, 15000, Note_on_c, 2, 69, 0
3, 15000, Note_on_c, 2, 66, 95
3, 15000, Note_on_c, 2, 69, 95
3, 15000, Note_on_c, 2, 62, 95
3, 15120, Note_on_c, 2, 62, 0
3, 15120, Note_on_c, 2, 69, 0
3, 15120, Note_on_c, 2, 66, 0
3, 15120, Note_on_c, 2, 45, 95
3, 15240, Note_on_c, 2, 45, 0
3, 15240, Note_on_c, 2, 69, 95
3, 15240, Note_on_c, 2, 64, 95
3, 15240, Note_on_c, 2, 61, 95
3, 15360, Note_on_c, 2, 61, 0
3, 15360, Note_on_c, 2, 64, 0
3, 15360, Note_on_c, 2, 69, 0
3, 15360, Note_on_c, 2, 69, 95
3, 15360, Note_on_c, 2, 64, 95
3, 15360, Note_on_c, 2, 61, 95
3, 15480, Note_on_c, 2, 61, 0
3, 15480, Note_on_c, 2, 64, 0
3, 15480, Note_on_c, 2, 69, 0
3, 15480, Note_on_c, 2, 52, 95
3, 15600, Note_on_c, 2, 52, 0
3, 15600, Note_on_c, 2, 64, 95
3, 15600, Note_on_c, 2, 68, 95
3, 15600, Note_on_c, 2, 59, 95
3, 15720, Note_on_c, 2, 59, 0
3, 15720, Note_on_c, 2, 68, 0
3, 15720, Note_on_c, 2, 64, 0
3, 15720, Note_on_c, 2, 68, 95
3, 15720, Note_on_c, 2, 64, 95
3, 15720, Note_on_c, 2, 59, 95
3, 15840, Note_on_c, 2, 59, 0
3, 15840, Note_on_c, 2, 64, 0
3, 15840, Note_on_c, 2, 68, 0
3, 15840, Note_on_c, 2, 45, 95
3, 15960, Note_on_c, 2, 45, 0
3, 15960, Note_on_c, 2, 69, 95
3, 15960, Note_on_c, 2, 64, 95
3, 15960, Note_on_c, 2, 61, 95
3, 16080, Note_on_c, 2, 61, 0
3, 16080, Note_on_c, 2, 64, 0
3, 16080, Note_on_c, 2, 69, 0
3, 16080, Note_on_c, 2, 69, 95
3, 16080, Note_on_c, 2, 64, 95
3, 16080, Note_on_c, 2, 61, 95
3, 16080, Note_on_c, 2, 61, 95
3, 16080, Note_on_c, 2, 64, 95
3, 16160, Note_on_c, 2, 64, 0
3, 16160, Note_on_c, 2, 61, 0
3, 16160, Note_on_c, 2, 62, 95
3, 16160, Note_on_c, 2, 66, 95
3, 16199, Note_on_c, 2, 66, 0
3, 16199, Note_on_c, 2, 62, 0
3, 16200, Note_on_c, 2, 61, 0
3, 16200, Note_on_c, 2, 64, 0
3, 16200, Note_on_c, 2, 69, 0
3, 16200, Note_on_c, 2, 64, 95
3, 16200, Note_on_c, 2, 61, 95
3, 16320, Note_on_c, 2, 61, 0
3, 16320, Note_on_c, 2, 64, 0
3, 16320, Note_on_c, 2, 63, 95
3, 16320, Note_on_c, 2, 60, 95
3, 16440, Note_on_c, 2, 60, 0
3, 16440, Note_on_c, 2, 63, 0
3, 16440, Note_on_c, 2, 62, 95
3, 16440, Note_on_c, 2, 59, 95
3, 16560, Note_on_c, 2, 59, 0
3, 16560, Note_on_c, 2, 62, 0
3, 16560, Note_on_c, 2, 45, 95
3, 16560, Note_on_c, 2, 64, 95
3, 16560, Note_on_c, 2, 61, 95
3, 16560, Note_on_c, 2, 69, 95
3, 16791, Control_c, 2, 64, 127
3, 16800, Note_on_c, 2, 69, 0
3, 16800, Note_on_c, 2, 45, 0
3, 16800, Note_on_c, 2, 64, 0
3, 16800, Note_on_c, 2, 61, 0
3, 16889, Control_c, 2, 64, 0
3, 16920, Note_on_c, 2, 45, 95
3, 16920, Note_on_c, 2, 61, 95
3, 17040, Note_on_c, 2, 61, 0
3, 17040, Note_on_c, 2, 45, 0
3, 17040, Note_on_c, 2, 47, 95
3, 17040, Note_on_c, 2, 62, 95
3, 17160, Note_on_c, 2, 62, 0
3, 17160, Note_on_c, 2, 47, 0
3, 17160, Note_on_c, 2, 49, 95
3, 17160, Note_on_c, 2, 64, 95
3, 17280, Note_on_c, 2, 64, 0
3, 17280, Note_on_c, 2, 49, 0
3, 17280, Note_on_c, 2, 50, 95
3, 17400, Note_on_c, 2, 50, 0
3, 17400, Note_on_c, 2, 66, 95
3, 17400, Note_on_c, 2, 62, 95
3, 17400, Note_on_c, 2, 57, 95
3, 17520, Note_on_c, 2, 57, 0
3, 17520, Note_on_c, 2, 62, 0
3, 17520, Note_on_c, 2, 66, 0
3, 17520, Note_on_c, 2, 66, 95
3, 17520, Note_on_c, 2, 57, 95
3, 17520, Note_on_c, 2, 62, 95
3, 17640, Note_on_c, 2, 62, 0
3, 17640, Note_on_c, 2, 57, 0
3, 17640, Note_on_c, 2, 66, 0
3, 17640, Note_on_c, 2, 50, 95
3, 17760, Note_on_c, 2, 50, 0
3, 17760, Note_on_c, 2, 66, 95
3, 17760, Note_on_c, 2, 62, 95
3, 17760, Note_on_c, 2, 57, 95
3, 17880, Note_on_c, 2, 57, 0
3, 17880, Note_on_c, 2, 62, 0
3, 17880, Note_on_c, 2, 66, 0
3, 17880, Note_on_c, 2, 66, 95
3, 17880, Note_on_c, 2, 62, 95
3, 17880, Note_on_c, 2, 57, 95
3, 18000, Note_on_c, 2, 57, 0
3, 18000, Note_on_c, 2, 62, 0
3, 18000, Note_on_c, 2, 66, 0
3, 18000, Note_on_c, 2, 45, 95
3, 18120, Note_on_c, 2, 69, 95
3, 18120, Note_on_c, 2, 64, 95
3, 18120, Note_on_c, 2, 61, 95
3, 18240, Note_on_c, 2, 61, 0
3, 18240, Note_on_c, 2, 64, 0
3, 18240, Note_on_c, 2, 69, 0
3, 18240, Note_on_c, 2, 69, 95
3, 18240, Note_on_c, 2, 61, 95
3, 18240, Note_on_c, 2, 64, 95
3, 18360, Note_on_c, 2, 64, 0
3, 18360, Note_on_c, 2, 45, 0
3, 18360, Note_on_c, 2, 69, 0
3, 18360, Note_on_c, 2, 61, 0
3, 18360, Note_on_c, 2, 52, 95
3, 18480, Note_on_c, 2, 64, 95
3, 18480, Note_on_c, 2, 68, 95
3, 18480, Note_on_c, 2, 59, 95
3, 18600, Note_on_c, 2, 59, 0
3, 18600, Note_on_c, 2, 52, 0
3, 18600, Note_on_c, 2, 64, 0
3, 18600, Note_on_c, 2, 68, 0
3, 18600, Note_on_c, 2, 64, 95
3, 18600, Note_on_c, 2, 59, 95
3, 18600, Note_on_c, 2, 68, 95
3, 18720, Note_on_c, 2, 68, 0
3, 18720, Note_on_c, 2, 59, 0
3, 18720, Note_on_c, 2, 64, 0
3, 18720, Note_on_c, 2, 45, 95
3, 18840, Note_on_c, 2, 69, 95
3, 18840, Note_on_c, 2, 64, 95
3, 18840, Note_on_c, 2, 61, 95
3, 18960, Note_on_c, 2, 61, 0
3, 18960, Note_on_c, 2, 45, 0
3, 18960, Note_on_c, 2, 69, 0
3, 18960, Note_on_c, 2, 64, 0
3, 18960, Note_on_c, 2, 69, 95
3, 18960, Note_on_c, 2, 64, 95
3, 18960, Note_on_c, 2, 61, 95
3, 19080, Note_on_c, 2, 61, 0
3, 19080, Note_on_c, 2, 64, 0
3, 19080, Note_on_c, 2, 69, 0
3, 19080, Note_on_c, 2, 56, 95
3, 19080, Note_on_c, 2, 64, 95
3, 19200, Note_on_c, 2, 64, 0
3, 19200, Note_on_c, 2, 56, 0
3, 19200, Note_on_c, 2, 57, 95
3, 19200, Note_on_c, 2, 66, 95
3, 19320, Note_on_c, 2, 66, 0
3, 19320, Note_on_c, 2, 57, 0
3, 19320, Note_on_c, 2, 68, 95
3, 19320, Note_on_c, 2, 59, 95
3, 19440, Note_on_c, 2, 59, 0
3, 19440, Note_on_c, 2, 68, 0
3, 19440, Note_on_c, 2, 45, 95
3, 19560, Note_on_c, 2, 45, 0
3, 19560, Note_on_c, 2, 69, 95
3, 19560, Note_on_c, 2, 64, 95
3, 19560, Note_on_c, 2, 61, 95
3, 19680, Note_on_c, 2, 61, 0
3, 19680, Note_on_c, 2, 64, 0
3, 19680, Note_on_c, 2, 69, 0
3, 19680, Note_on_c, 2, 64, 95
3, 19680, Note_on_c, 2, 69, 95
3, 19680, Note_on_c, 2, 61, 95
3, 19800, Note_on_c, 2, 61, 0
3, 19800, Note_on_c, 2, 69, 0
3, 19800, Note_on_c, 2, 64, 0
3, 19800, Note_on_c, 2, 50, 96
3, 19920, Note_on_c, 2, 50, 0
3, 19920, Note_on_c, 2, 66, 96
3, 19920, Note_on_c, 2, 69, 96
3, 19920, Note_on_c, 2, 62, 96
3, 20040, Note_on_c, 2, 62, 0
3, 20040, Note_on_c, 2, 69, 0
3, 20040, Note_on_c, 2, 66, 0
3, 20040, Note_on_c, 2, 66, 96
3, 20040, Note_on_c, 2, 62, 96
3, 20040, Note_on_c, 2, 69, 96
3, 20160, Note_on_c, 2, 69, 0
3, 20160, Note_on_c, 2, 62, 0
3, 20160, Note_on_c, 2, 66, 0
3, 20160, Note_on_c, 2, 45, 96
3, 20280, Note_on_c, 2, 45, 0
3, 20280, Note_on_c, 2, 69, 96
3, 20280, Note_on_c, 2, 64, 96
3, 20280, Note_on_c, 2, 61, 96
3, 20400, Note_on_c, 2, 61, 0
3, 20400, Note_on_c, 2, 64, 0
3, 20400, Note_on_c, 2, 69, 0
3, 20400, Note_on_c, 2, 69, 96
3, 20400, Note_on_c, 2, 64, 96
3, 20400, Note_on_c, 2, 61, 96
3, 20520, Note_on_c, 2, 61, 0
3, 20520, Note_on_c, 2, 64, 0
3, 20520, Note_on_c, 2, 69, 0
3, 20520, Note_on_c, 2, 61, 96
3, 20520, Note_on_c, 2, 64, 96
3, 20640, Note_on_c, 2, 64, 0
3, 20640, Note_on_c, 2, 61, 0
3, 20640, Note_on_c, 2, 63, 96
3, 20640, Note_on_c, 2, 60, 96
3, 20760, Note_on_c, 2, 60, 0
3, 20760, Note_on_c, 2, 63, 0
3, 20760, Note_on_c, 2, 62, 96
3, 20760, Note_on_c, 2, 59, 96
3, 20880, Note_on_c, 2, 59, 0
3, 20880, Note_on_c, 2, 62, 0
3, 20880, Note_on_c, 2, 45, 96
3, 21000, Note_on_c, 2, 45, 0
3, 21000, Note_on_c, 2, 69, 96
3, 21000, Note_on_c, 2, 61, 96
3, 21000, Note_on_c, 2, 64, 96
3, 21120, Note_on_c, 2, 64, 0
3, 21120, Note_on_c, 2, 61, 0
3, 21120, Note_on_c, 2, 69, 0
3, 21120, Note_on_c, 2, 69, 96
3, 21120, Note_on_c, 2, 64, 96
3, 21120, Note_on_c, 2, 61, 96
3, 21240, Note_on_c, 2, 61, 0
3, 21240, Note_on_c, 2, 64, 0
3, 21240, Note_on_c, 2, 69, 0
3, 21240, Note_on_c, 2, 52, 96
3, 21360, Note_on_c, 2, 52, 0
3, 21360, Note_on_c, 2, 64, 96
3, 21360, Note_on_c, 2, 68, 96
3, 21360, Note_on_c, 2, 59, 96
3, 21480, Note_on_c, 2, 59, 0
3, 21480, Note_on_c, 2, 68, 0
3, 21480, Note_on_c, 2, 64, 0
3, 21480, Note_on_c, 2, 59, 96
3, 21480, Note_on_c, 2, 64, 96
3, 21480, Note_on_c, 2, 68, 96
3, 21600, Note_on_c, 2, 68, 0
3, 21600, Note_on_c, 2, 64, 0
3, 21600, Note_on_c, 2, 59, 0
3, 21600, Note_on_c, 2, 45, 96
3, 21720, Note_on_c, 2, 45, 0
3, 21720, Note_on_c, 2, 69, 96
3, 21720, Note_on_c, 2, 64, 96
3, 21720, Note_on_c, 2, 61, 96
3, 21840, Note_on_c, 2, 61, 0
3, 21840, Note_on_c, 2, 64, 0
3, 21840, Note_on_c, 2, 69, 0
3, 21840, Note_on_c, 2, 64, 96
3, 21840, Note_on_c, 2, 61, 96
3, 21840, Note_on_c, 2, 69, 96
3, 21960, Note_on_c, 2, 69, 0
3, 21960, Note_on_c, 2, 61, 0
3, 21960, Note_on_c, 2, 64, 0
3, 21960, Note_on_c, 2, 56, 96
3, 21960, Note_on_c, 2, 64, 96
3, 22080, Note_on_c, 2, 64, 0
3, 22080, Note_on_c, 2, 56, 0
3, 22080, Note_on_c, 2, 57, 96
3, 22080, Note_on_c, 2, 66, 96
3, 22200, Note_on_c, 2, 66, 0
3, 22200, Note_on_c, 2, 57, 0
3, 22200, Note_on_c, 2, 68, 96
3, 22200, Note_on_c, 2, 59, 96
3, 22320, Note_on_c, 2, 59, 0
3, 22320, Note_on_c, 2, 68, 0
3, 22320, Note_on_c, 2, 45, 96
3, 22440, Note_on_c, 2, 45, 0
3, 22440, Note_on_c, 2, 69, 96
3, 22440, Note_on_c, 2, 64, 96
3, 22440, Note_on_c, 2, 61, 96
3, 22560, Note_on_c, 2, 61, 0
3, 22560, Note_on_c, 2, 64, 0
3, 22560, Note_on_c, 2, 69, 0
3, 22560, Note_on_c, 2, 64, 96
3, 22560, Note_on_c, 2, 69, 96
3, 22560, Note_on_c, 2, 61, 96
3, 22680, Note_on_c, 2, 61, 0
3, 22680, Note_on_c, 2, 69, 0
3, 22680, Note_on_c, 2, 64, 0
3, 22680, Note_on_c, 2, 50, 96
3, 22800, Note_on_c, 2, 50, 0
3, 22800, Note_on_c, 2, 66, 96
3, 22800, Note_on_c, 2, 69, 96
3, 22800, Note_on_c, 2, 62, 96
3, 22920, Note_on_c, 2, 62, 0
3, 22920, Note_on_c, 2, 69, 0
3, 22920, Note_on_c, 2, 66, 0
3, 22920, Note_on_c, 2, 66, 96
3, 22920, Note_on_c, 2, 62, 96
3, 22920, Note_on_c, 2, 69, 96
3, 23040, Note_on_c, 2, 69, 0
3, 23040, Note_on_c, 2, 62, 0
3, 23040, Note_on_c, 2, 66, 0
3, 23040, Note_on_c, 2, 45, 96
3, 23160, Note_on_c, 2, 45, 0
3, 23160, Note_on_c, 2, 69, 96
3, 23160, Note_on_c, 2, 64, 96
3, 23160, Note_on_c, 2, 61, 96
3, 23280, Note_on_c, 2, 61, 0
3, 23280, Note_on_c, 2, 64, 0
3, 23280, Note_on_c, 2, 69, 0
3, 23280, Note_on_c, 2, 64, 96
3, 23280, Note_on_c, 2, 69, 96
3, 23280, Note_on_c, 2, 61, 96
3, 23400, Note_on_c, 2, 61, 0
3, 23400, Note_on_c, 2, 69, 0
3, 23400, Note_on_c, 2, 64, 0
3, 23400, Note_on_c, 2, 61, 96
3, 23400, Note_on_c, 2, 64, 96
3, 23520, Note_on_c, 2, 64, 0
3, 23520, Note_on_c, 2, 61, 0
3, 23520, Note_on_c, 2, 63, 96
3, 23520, Note_on_c, 2, 60, 96
3, 23640, Note_on_c, 2, 60, 0
3, 23640, Note_on_c, 2, 63, 0
3, 23640, Note_on_c, 2, 59, 96
3, 23640, Note_on_c, 2, 62, 96
3, 23760, Note_on_c, 2, 62, 0
3, 23760, Note_on_c, 2, 59, 0
3, 23760, Note_on_c, 2, 45, 96
3, 23880, Note_on_c, 2, 45, 0
3, 23880, Note_on_c, 2, 69, 96
3, 23880, Note_on_c, 2, 64, 96
3, 23880, Note_on_c, 2, 61, 96
3, 24000, Note_on_c, 2, 61, 0
3, 24000, Note_on_c, 2, 64, 0
3, 24000, Note_on_c, 2, 69, 0
3, 24000, Note_on_c, 2, 64, 96
3, 24000, Note_on_c, 2, 69, 96
3, 24000, Note_on_c, 2, 61, 96
3, 24120, Note_on_c, 2, 61, 0
3, 24120, Note_on_c, 2, 69, 0
3, 24120, Note_on_c, 2, 64, 0
3, 24120, Note_on_c, 2, 52, 96
3, 24240, Note_on_c, 2, 52, 0
3, 24240, Note_on_c, 2, 64, 96
3, 24240, Note_on_c, 2, 59, 96
3, 24240, Note_on_c, 2, 68, 96
3, 24360, Note_on_c, 2, 68, 0
3, 24360, Note_on_c, 2, 59, 0
3, 24360, Note_on_c, 2, 64, 0
3, 24360, Note_on_c, 2, 64, 96
3, 24360, Note_on_c, 2, 59, 96
3, 24360, Note_on_c, 2, 68, 96
3, 24480, Note_on_c, 2, 68, 0
3, 24480, Note_on_c, 2, 59, 0
3, 24480, Note_on_c, 2, 64, 0
3, 24480, Note_on_c, 2, 45, 96
3, 24600, Note_on_c, 2, 45, 0
3, 24600, Note_on_c, 2, 64, 96
3, 24600, Note_on_c, 2, 69, 96
3, 24600, Note_on_c, 2, 61, 96
3, 24720, Note_on_c, 2, 61, 0
3, 24720, Note_on_c, 2, 69, 0
3, 24720, Note_on_c, 2, 64, 0
3, 24720, Note_on_c, 2, 69, 96
3, 24720, Note_on_c, 2, 64, 96
3, 24720, Note_on_c, 2, 61, 96
3, 24840, Note_on_c, 2, 61, 0
3, 24840, Note_on_c, 2, 64, 0
3, 24840, Note_on_c, 2, 69, 0
3, 24840, Note_on_c, 2, 52, 96
3, 24840, Note_on_c, 2, 68, 96
3, 24960, Note_on_c, 2, 68, 0
3, 24960, Note_on_c, 2, 52, 0
3, 24960, Note_on_c, 2, 54, 96
3, 24960, Note_on_c, 2, 69, 96
3, 25080, Note_on_c, 2, 69, 0
3, 25080, Note_on_c, 2, 54, 0
3, 25080, Note_on_c, 2, 71, 96
3, 25080, Note_on_c, 2, 56, 96
3, 25200, Note_on_c, 2, 56, 0
3, 25200, Note_on_c, 2, 71, 0
3, 25200, Note_on_c, 2, 57, 96
3, 25320, Note_on_c, 2, 57, 0
3, 25320, Note_on_c, 2, 69, 96
3, 25320, Note_on_c, 2, 64, 96
3, 25320, Note_on_c, 2, 61, 96
3, 25440, Note_on_c, 2, 61, 0
3, 25440, Note_on_c, 2, 64, 0
3, 25440, Note_on_c, 2, 69, 0
3, 25440, Note_on_c, 2, 61, 96
3, 25440, Note_on_c, 2, 64, 96
3, 25440, Note_on_c, 2, 69, 96
3, 25560, Note_on_c, 2, 69, 0
3, 25560, Note_on_c, 2, 64, 0
3, 25560, Note_on_c, 2, 61, 0
3, 25560, Note_on_c, 2, 52, 96
3, 25680, Note_on_c, 2, 52, 0
3, 25680, Note_on_c, 2, 64, 96
3, 25680, Note_on_c, 2, 68, 96
3, 25680, Note_on_c, 2, 59, 96
3, 25800, Note_on_c, 2, 59, 0
3, 25800, Note_on_c, 2, 68, 0
3, 25800, Note_on_c, 2, 64, 0
3, 25800, Note_on_c, 2, 64, 96
3, 25800, Note_on_c, 2, 59, 96
3, 25800, Note_on_c, 2, 68, 96
3, 25920, Note_on_c, 2, 68, 0
3, 25920, Note_on_c, 2, 59, 0
3, 25920, Note_on_c, 2, 64, 0
3, 25920, Note_on_c, 2, 45, 96
3, 26040, Note_on_c, 2, 45, 0
3, 26040, Note_on_c, 2, 69, 96
3, 26040, Note_on_c, 2, 64, 96
3, 26040, Note_on_c, 2, 61, 96
3, 26160, Note_on_c, 2, 61, 0
3, 26160, Note_on_c, 2, 64, 0
3, 26160, Note_on_c, 2, 69, 0
3, 26160, Note_on_c, 2, 64, 96
3, 26160, Note_on_c, 2, 69, 96
3, 26160, Note_on_c, 2, 61, 96
3, 26280, Note_on_c, 2, 61, 0
3, 26280, Note_on_c, 2, 69, 0
3, 26280, Note_on_c, 2, 64, 0
3, 26280, Note_on_c, 2, 45, 96
3, 26280, Note_on_c, 2, 61, 96
3, 26400, Note_on_c, 2, 61, 0
3, 26400, Note_on_c, 2, 45, 0
3, 26400, Note_on_c, 2, 62, 96
3, 26400, Note_on_c, 2, 47, 96
3, 26520, Note_on_c, 2, 47, 0
3, 26520, Note_on_c, 2, 62, 0
3, 26520, Note_on_c, 2, 49, 96
3, 26520, Note_on_c, 2, 64, 96
3, 26640, Note_on_c, 2, 64, 0
3, 26640, Note_on_c, 2, 49, 0
3, 26640, Note_on_c, 2, 50, 96
3, 26760, Note_on_c, 2, 50, 0
3, 26760, Note_on_c, 2, 69, 96
3, 26760, Note_on_c, 2, 66, 96
3, 26760, Note_on_c, 2, 62, 96
3, 26880, Note_on_c, 2, 62, 0
3, 26880, Note_on_c, 2, 66, 0
3, 26880, Note_on_c, 2, 69, 0
3, 26880, Note_on_c, 2, 66, 96
3, 26880, Note_on_c, 2, 69, 96
3, 26880, Note_on_c, 2, 62, 96
3, 27000, Note_on_c, 2, 62, 0
3, 27000, Note_on_c, 2, 69, 0
3, 27000, Note_on_c, 2, 66, 0
3, 27000, Note_on_c, 2, 52, 96
3, 27120, Note_on_c, 2, 52, 0
3, 27120, Note_on_c, 2, 68, 96
3, 27120, Note_on_c, 2, 64, 96
3, 27120, Note_on_c, 2, 59, 96
3, 27240, Note_on_c, 2, 59, 0
3, 27240, Note_on_c, 2, 64, 0
3, 27240, Note_on_c, 2, 68, 0
3, 27240, Note_on_c, 2, 64, 96
3, 27240, Note_on_c, 2, 68, 96
3, 27240, Note_on_c, 2, 59, 96
3, 27360, Note_on_c, 2, 59, 0
3, 27360, Note_on_c, 2, 68, 0
3, 27360, Note_on_c, 2, 64, 0
3, 27360, Note_on_c, 2, 45, 96
3, 27480, Note_on_c, 2, 45, 0
3, 27480, Note_on_c, 2, 69, 96
3, 27480, Note_on_c, 2, 64, 96
3, 27480, Note_on_c, 2, 61, 96
3, 27600, Note_on_c, 2, 61, 0
3, 27600, Note_on_c, 2, 64, 0
3, 27600, Note_on_c, 2, 69, 0
3, 27600, Note_on_c, 2, 64, 96
3, 27600, Note_on_c, 2, 61, 96
3, 27600, Note_on_c, 2, 69, 96
3, 27720, Note_on_c, 2, 69, 0
3, 27720, Note_on_c, 2, 61, 0
3, 27720, Note_on_c, 2, 64, 0
3, 27720, Note_on_c, 2, 56, 96
3, 27720, Note_on_c, 2, 64, 96
3, 27840, Note_on_c, 2, 64, 0
3, 27840, Note_on_c, 2, 56, 0
3, 27840, Note_on_c, 2, 57, 96
3, 27840, Note_on_c, 2, 66, 96
3, 27960, Note_on_c, 2, 66, 0
3, 27960, Note_on_c, 2, 57, 0
3, 27960, Note_on_c, 2, 68, 96
3, 27960, Note_on_c, 2, 59, 96
3, 28080, Note_on_c, 2, 59, 0
3, 28080, Note_on_c, 2, 68, 0
3, 28080, Note_on_c, 2, 45, 96
3, 28200, Note_on_c, 2, 45, 0
3, 28200, Note_on_c, 2, 69, 96
3, 28200, Note_on_c, 2, 64, 96
3, 28200, Note_on_c, 2, 61, 96
3, 28320, Note_on_c, 2, 61, 0
3, 28320, Note_on_c, 2, 64, 0
3, 28320, Note_on_c, 2, 69, 0
3, 28320, Note_on_c, 2, 64, 96
3, 28320, Note_on_c, 2, 69, 96
3, 28320, Note_on_c, 2, 61, 96
3, 28440, Note_on_c, 2, 61, 0
3, 28440, Note_on_c, 2, 69, 0
3, 28440, Note_on_c, 2, 64, 0
3, 28440, Note_on_c, 2, 45, 96
3, 28560, Note_on_c, 2, 45, 0
3, 28560, Note_on_c, 2, 69, 96
3, 28560, Note_on_c, 2, 64, 96
3, 28560, Note_on_c, 2, 61, 96
3, 28680, Note_on_c, 2, 61, 0
3, 28680, Note_on_c, 2, 64, 0
3, 28680, Note_on_c, 2, 69, 0
3, 28680, Note_on_c, 2, 64, 96
3, 28680, Note_on_c, 2, 69, 96
3, 28680, Note_on_c, 2, 61, 96
3, 28800, Note_on_c, 2, 61, 0
3, 28800, Note_on_c, 2, 69, 0
3, 28800, Note_on_c, 2, 64, 0
3, 28800, Note_on_c, 2, 50, 96
3, 28920, Note_on_c, 2, 50, 0
3, 28920, Note_on_c, 2, 66, 96
3, 28920, Note_on_c, 2, 69, 96
3, 28920, Note_on_c, 2, 62, 96
3, 29040, Note_on_c, 2, 62, 0
3, 29040, Note_on_c, 2, 69, 0
3, 29040, Note_on_c, 2, 66, 0
3, 29040, Note_on_c, 2, 66, 96
3, 29040, Note_on_c, 2, 69, 96
3, 29040, Note_on_c, 2, 62, 96
3, 29160, Note_on_c, 2, 62, 0
3, 29160, Note_on_c, 2, 69, 0
3, 29160, Note_on_c, 2, 66, 0
3, 29160, Note_on_c, 2, 50, 96
3, 29280, Note_on_c, 2, 50, 0
3, 29280, Note_on_c, 2, 69, 96
3, 29280, Note_on_c, 2, 66, 96
3, 29280, Note_on_c, 2, 62, 96
3, 29400, Note_on_c, 2, 62, 0
3, 29400, Note_on_c, 2, 66, 0
3, 29400, Note_on_c, 2, 69, 0
3, 29400, Note_on_c, 2, 66, 96
3, 29400, Note_on_c, 2, 69, 96
3, 29400, Note_on_c, 2, 62, 96
3, 29520, Note_on_c, 2, 62, 0
3, 29520, Note_on_c, 2, 69, 0
3, 29520, Note_on_c, 2, 66, 0
3, 29520, Note_on_c, 2, 45, 96
3, 29640, Note_on_c, 2, 45, 0
3, 29640, Note_on_c, 2, 69, 96
3, 29640, Note_on_c, 2, 64, 96
3, 29640, Note_on_c, 2, 61, 96
3, 29760, Note_on_c, 2, 61, 0
3, 29760, Note_on_c, 2, 64, 0
3, 29760, Note_on_c, 2, 69, 0
3, 29760, Note_on_c, 2, 69, 96
3, 29760, Note_on_c, 2, 64, 96
3, 29760, Note_on_c, 2, 61, 96
3, 29880, Note_on_c, 2, 61, 0
3, 29880, Note_on_c, 2, 64, 0
3, 29880, Note_on_c, 2, 69, 0
3, 29880, Note_on_c, 2, 52, 96
3, 30000, Note_on_c, 2, 52, 0
3, 30000, Note_on_c, 2, 64, 96
3, 30000, Note_on_c, 2, 68, 96
3, 30000, Note_on_c, 2, 59, 96
3, 30120, Note_on_c, 2, 59, 0
3, 30120, Note_on_c, 2, 68, 0
3, 30120, Note_on_c, 2, 64, 0
3, 30120, Note_on_c, 2, 68, 96
3, 30120, Note_on_c, 2, 64, 96
3, 30120, Note_on_c, 2, 59, 96
3, 30240, Note_on_c, 2, 59, 0
3, 30240, Note_on_c, 2, 64, 0
3, 30240, Note_on_c, 2, 68, 0
3, 30240, Note_on_c, 2, 45, 96
3, 30360, Note_on_c, 2, 45, 0
3, 30360, Note_on_c, 2, 69, 96
3, 30360, Note_on_c, 2, 64, 96
3, 30360, Note_on_c, 2, 61, 96
3, 30480, Note_on_c, 2, 61, 0
3, 30480, Note_on_c, 2, 64, 0
3, 30480, Note_on_c, 2, 69, 0
3, 30480, Note_on_c, 2, 69, 96
3, 30480, Note_on_c, 2, 64, 96
3, 30480, Note_on_c, 2, 61, 96
3, 30480, Note_on_c, 2, 61, 96
3, 30480, Note_on_c, 2, 64, 96
3, 30560, Note_on_c, 2, 64, 0
3, 30560, Note_on_c, 2, 61, 0
3, 30560, Note_on_c, 2, 62, 96
3, 30560, Note_on_c, 2, 66, 96
3, 30599, Note_on_c, 2, 66, 0
3, 30599, Note_on_c, 2, 62, 0
3, 30600, Note_on_c, 2, 61, 0
3, 30600, Note_on_c, 2, 64, 0
3, 30600, Note_on_c, 2, 69, 0
3, 30600, Note_on_c, 2, 64, 96
3, 30600, Note_on_c, 2, 61, 96
3, 30720, Note_on_c, 2, 61, 0
3, 30720, Note_on_c, 2, 64, 0
3, 30720, Note_on_c, 2, 63, 96
3, 30720, Note_on_c, 2, 60, 96
3, 30840, Note_on_c, 2, 60, 0
3, 30840, Note_on_c, 2, 63, 0
3, 30840, Note_on_c, 2, 62, 96
3, 30840, Note_on_c, 2, 59, 96
3, 30960, Note_on_c, 2, 59, 0
3, 30960, Note_on_c, 2, 62, 0
3, 30960, Note_on_c, 2, 45, 96
3, 31080, Note_on_c, 2, 45, 0
3, 31080, Note_on_c, 2, 69, 96
3, 31080, Note_on_c, 2, 64, 96
3, 31080, Note_on_c, 2, 61, 96
3, 31200, Note_on_c, 2, 61, 0
3, 31200, Note_on_c, 2, 64, 0
3, 31200, Note_on_c, 2, 69, 0
3, 31200, Note_on_c, 2, 69, 96
3, 31200, Note_on_c, 2, 64, 96
3, 31200, Note_on_c, 2, 61, 96
3, 31320, Note_on_c, 2, 61, 0
3, 31320, Note_on_c, 2, 64, 0
3, 31320, Note_on_c, 2, 69, 0
3, 31320, Note_on_c, 2, 52, 96
3, 31440, Note_on_c, 2, 52, 0
3, 31440, Note_on_c, 2, 64, 96
3, 31440, Note_on_c, 2, 68, 96
3, 31440, Note_on_c, 2, 59, 96
3, 31560, Note_on_c, 2, 59, 0
3, 31560, Note_on_c, 2, 68, 0
3, 31560, Note_on_c, 2, 64, 0
3, 31560, Note_on_c, 2, 68, 96
3, 31560, Note_on_c, 2, 64, 96
3, 31560, Note_on_c, 2, 59, 96
3, 31680, Note_on_c, 2, 59, 0
3, 31680, Note_on_c, 2, 64, 0
3, 31680, Note_on_c, 2, 68, 0
3, 31680, Note_on_c, 2, 53, 96
3, 31800, Note_on_c, 2, 53, 0
3, 31800, Note_on_c, 2, 69, 96
3, 31800, Note_on_c, 2, 60, 96
3, 31800, Note_on_c, 2, 65, 96
3, 31869, Control_c, 2, 64, 127
3, 31920, Note_on_c, 2, 65, 0
3, 31920, Note_on_c, 2, 60, 0
3, 31920, Note_on_c, 2, 69, 0
3, 31920, Control_c, 2, 64, 0
3, 31920, Note_on_c, 2, 69, 96
3, 31920, Note_on_c, 2, 65, 96
3, 31920, Note_on_c, 2, 60, 96
3, 32040, Note_on_c, 2, 60, 0
3, 32040, Note_on_c, 2, 65, 0
3, 32040, Note_on_c, 2, 69, 0
3, 32040, Note_on_c, 2, 55, 96
3, 32160, Note_on_c, 2, 55, 0
3, 32160, Note_on_c, 2, 67, 96
3, 32160, Note_on_c, 2, 71, 96
3, 32160, Note_on_c, 2, 62, 96
3, 32280, Note_on_c, 2, 62, 0
3, 32280, Note_on_c, 2, 71, 0
3, 32280, Note_on_c, 2, 67, 0
3, 32280, Note_on_c, 2, 67, 96
3, 32280, Note_on_c, 2, 62, 96
3, 32280, Note_on_c, 2, 71, 96
3, 32400, Note_on_c, 2, 71, 0
3, 32400, Note_on_c, 2, 62, 0
3, 32400, Note_on_c, 2, 67, 0
3, 32400, Note_on_c, 2, 45, 96
3, 32400, Note_on_c, 2, 61, 96
3, 32400, Note_on_c, 2, 64, 96
3, 32400, Note_on_c, 2, 69, 96
3, 33119, Note_on_c, 2, 69, 0
3, 33119, Note_on_c, 2, 45, 0
3, 33119, Note_on_c, 2, 61, 0
3, 33119, Note_on_c, 2, 64, 0
3, 33119, End_track
4, 0, Start_track
4, 0, MIDI_port, 0
4, 0, Title_t, "BASS"
4, 125, Control_c, 1, 0, 0
4, 126, Control_c, 1, 32, 0
4, 127, Program_c, 1, 33
4, 128, Control_c, 1, 7, 100
4, 720, Note_on_c, 1, 33, 125
4, 960, Note_on_c, 1, 33, 0
4, 960, Note_on_c, 1, 37, 125
4, 999, Note_on_c, 1, 37, 0
4, 1000, Note_on_c, 1, 38, 125
4, 1039, Note_on_c, 1, 38, 0
4, 1040, Note_on_c, 1, 39, 125
4, 1079, Note_on_c, 1, 39, 0
4, 1080, Note_on_c, 1, 40, 125
4, 1440, Note_on_c, 1, 40, 0
4, 1440, Note_on_c, 1, 33, 125
4, 1680, Note_on_c, 1, 33, 0
4, 1680, Note_on_c, 1, 37, 125
4, 1719, Note_on_c, 1, 37, 0
4, 1720, Note_on_c, 1, 38, 125
4, 1759, Note_on_c, 1, 38, 0
4, 1760, Note_on_c, 1, 39, 125
4, 1799, Note_on_c, 1, 39, 0
4, 1800, Note_on_c, 1, 40, 125
4, 1920, Note_on_c, 1, 40, 0
4, 1920, Note_on_c, 1, 42, 125
4, 2040, Note_on_c, 1, 42, 0
4, 2040, Note_on_c, 1, 44, 125
4, 2160, Note_on_c, 1, 44, 0
4, 2160, Note_on_c, 1, 33, 125
4, 2520, Note_on_c, 1, 33, 0
4, 2520, Note_on_c, 1, 33, 125
4, 2640, Note_on_c, 1, 33, 0
4, 2640, Note_on_c, 1, 35, 125
4, 2760, Note_on_c, 1, 35, 0
4, 2760, Note_on_c, 1, 37, 125
4, 2880, Note_on_c, 1, 37, 0
4, 2880, Note_on_c, 1, 38, 125
4, 3160, Note_on_c, 1, 38, 0
4, 3200, Note_on_c, 1, 33, 125
4, 3239, Note_on_c, 1, 33, 0
4, 3240, Note_on_c, 1, 38, 125
4, 3480, Note_on_c, 1, 38, 0
4, 3520, Note_on_c, 1, 39, 125
4, 3559, Note_on_c, 1, 39, 0
4, 3560, Note_on_c, 1, 40, 125
4, 3599, Note_on_c, 1, 40, 0
4, 3600, Note_on_c, 1, 33, 125
4, 3840, Note_on_c, 1, 33, 0
4, 3840, Note_on_c, 1, 37, 125
4, 3879, Note_on_c, 1, 37, 0
4, 3880, Note_on_c, 1, 38, 125
4, 3919, Note_on_c, 1, 38, 0
4, 3920, Note_on_c, 1, 39, 125
4, 3959, Note_on_c, 1, 39, 0
4, 3960, Note_on_c, 1, 40, 125
4, 4320, Note_on_c, 1, 40, 0
4, 4320, Note_on_c, 1, 33, 125
4, 4560, Note_on_c, 1, 33, 0
4, 4560, Note_on_c, 1, 37, 125
4, 4599, Note_on_c, 1, 37, 0
4, 4600, Note_on_c, 1, 38, 125
4, 4639, Note_on_c, 1, 38, 0
4, 4640, Note_on_c, 1, 39, 125
4, 4679, Note_on_c, 1, 39, 0
4, 4680, Note_on_c, 1, 40, 125
4, 4800, Note_on_c, 1, 40, 0
4, 4800, Note_on_c, 1, 42, 125
4, 4920, Note_on_c, 1, 42, 0
4, 4920, Note_on_c, 1, 44, 125
4, 5040, Note_on_c, 1, 44, 0
4, 5040, Note_on_c, 1, 45, 125
4, 5240, Note_on_c, 1, 45, 0
4, 5280, Note_on_c, 1, 33, 125
4, 5319, Note_on_c, 1, 33, 0
4, 5320, Note_on_c, 1, 35, 125
4, 5359, Note_on_c, 1, 35, 0
4, 5360, Note_on_c, 1, 37, 125
4, 5399, Note_on_c, 1, 37, 0
4, 5400, Note_on_c, 1, 38, 125
4, 5760, Note_on_c, 1, 38, 0
4, 5760, Note_on_c, 1, 33, 125
4, 6040, Note_on_c, 1, 33, 0
4, 6080, Note_on_c, 1, 42, 125
4, 6119, Note_on_c, 1, 42, 0
4, 6120, Note_on_c, 1, 40, 125
4, 6240, Note_on_c, 1, 40, 0
4, 6240, Note_on_c, 1, 42, 125
4, 6360, Note_on_c, 1, 42, 0
4, 6360, Note_on_c, 1, 44, 125
4, 6480, Note_on_c, 1, 44, 0
4, 6480, Note_on_c, 1, 45, 125
4, 6720, Note_on_c, 1, 45, 0
4, 6720, Note_on_c, 1, 37, 125
4, 6759, Note_on_c, 1, 37, 0
4, 6760, Note_on_c, 1, 38, 125
4, 6799, Note_on_c, 1, 38, 0
4, 6800, Note_on_c, 1, 39, 125
4, 6839, Note_on_c, 1, 39, 0
4, 6840, Note_on_c, 1, 40, 125
4, 7200, Note_on_c, 1, 40, 0
4, 7200, Note_on_c, 1, 33, 125
4, 7480, Note_on_c, 1, 33, 0
4, 7520, Note_on_c, 1, 42, 125
4, 7559, Note_on_c, 1, 42, 0
4, 7560, Note_on_c, 1, 40, 125
4, 7680, Note_on_c, 1, 40, 0
4, 7680, Note_on_c, 1, 42, 125
4, 7800, Note_on_c, 1, 42, 0
4, 7800, Note_on_c, 1, 44, 125
4, 7920, Note_on_c, 1, 44, 0
4, 7920, Note_on_c, 1, 45, 125
4, 8160, Note_on_c, 1, 45, 0
4, 8160, Note_on_c, 1, 33, 125
4, 8199, Note_on_c, 1, 33, 0
4, 8200, Note_on_c, 1, 35, 125
4, 8239, Note_on_c, 1, 35, 0
4, 8240, Note_on_c, 1, 37, 125
4, 8279, Note_on_c, 1, 37, 0
4, 8280, Note_on_c, 1, 38, 125
4, 8640, Note_on_c, 1, 38, 0
4, 8640, Note_on_c, 1, 33, 125
4, 8920, Note_on_c, 1, 33, 0
4, 8960, Note_on_c, 1, 42, 125
4, 8999, Note_on_c, 1, 42, 0
4, 9000, Note_on_c, 1, 40, 125
4, 9120, Note_on_c, 1, 40, 0
4, 9120, Note_on_c, 1, 42, 125
4, 9240, Note_on_c, 1, 42, 0
4, 9240, Note_on_c, 1, 44, 125
4, 9360, Note_on_c, 1, 44, 0
4, 9360, Note_on_c, 1, 45, 125
4, 9560, Note_on_c, 1, 45, 0
4, 9600, Note_on_c, 1, 37, 125
4, 9639, Note_on_c, 1, 37, 0
4, 9640, Note_on_c, 1, 38, 125
4, 9679, Note_on_c, 1, 38, 0
4, 9680, Note_on_c, 1, 39, 125
4, 9719, Note_on_c, 1, 39, 0
4, 9720, Note_on_c, 1, 40, 125
4, 10080, Note_on_c, 1, 40, 0
4, 10080, Note_on_c, 1, 33, 125
4, 10360, Note_on_c, 1, 33, 0
4, 10400, Note_on_c, 1, 42, 125
4, 10439, Note_on_c, 1, 42, 0
4, 10440, Note_on_c, 1, 40, 125
4, 10560, Note_on_c, 1, 40, 0
4, 10560, Note_on_c, 1, 42, 125
4, 10680, Note_on_c, 1, 42, 0
4, 10680, Note_on_c, 1, 44, 125
4, 10800, Note_on_c, 1, 44, 0
4, 10800, Note_on_c, 1, 45, 125
4, 11040, Note_on_c, 1, 45, 0
4, 11040, Note_on_c, 1, 37, 125
4, 11079, Note_on_c, 1, 37, 0
4, 11080, Note_on_c, 1, 38, 125
4, 11119, Note_on_c, 1, 38, 0
4, 11120, Note_on_c, 1, 39, 125
4, 11159, Note_on_c, 1, 39, 0
4, 11160, Note_on_c, 1, 40, 125
4, 11480, Note_on_c, 1, 40, 0
4, 11480, Note_on_c, 1, 42, 125
4, 11519, Note_on_c, 1, 42, 0
4, 11520, Note_on_c, 1, 33, 125
4, 11800, Note_on_c, 1, 33, 0
4, 11840, Note_on_c, 1, 40, 125
4, 11879, Note_on_c, 1, 40, 0
4, 11880, Note_on_c, 1, 33, 125
4, 12000, Note_on_c, 1, 33, 0
4, 12000, Note_on_c, 1, 35, 125
4, 12120, Note_on_c, 1, 35, 0
4, 12120, Note_on_c, 1, 37, 125
4, 12240, Note_on_c, 1, 37, 0
4, 12240, Note_on_c, 1, 38, 125
4, 12560, Note_on_c, 1, 38, 0
4, 12560, Note_on_c, 1, 39, 125
4, 12599, Note_on_c, 1, 39, 0
4, 12600, Note_on_c, 1, 40, 125
4, 12920, Note_on_c, 1, 40, 0
4, 12920, Note_on_c, 1, 42, 125
4, 12959, Note_on_c, 1, 42, 0
4, 12960, Note_on_c, 1, 33, 125
4, 13240, Note_on_c, 1, 33, 0
4, 13280, Note_on_c, 1, 42, 125
4, 13319, Note_on_c, 1, 42, 0
4, 13320, Note_on_c, 1, 40, 125
4, 13440, Note_on_c, 1, 40, 0
4, 13440, Note_on_c, 1, 42, 125
4, 13560, Note_on_c, 1, 42, 0
4, 13560, Note_on_c, 1, 44, 125
4, 13680, Note_on_c, 1, 44, 0
4, 13680, Note_on_c, 1, 45, 125
4, 13960, Note_on_c, 1, 45, 0
4, 14000, Note_on_c, 1, 40, 125
4, 14039, Note_on_c, 1, 40, 0
4, 14040, Note_on_c, 1, 33, 125
4, 14160, Note_on_c, 1, 33, 0
4, 14160, Note_on_c, 1, 35, 125
4, 14280, Note_on_c, 1, 35, 0
4, 14280, Note_on_c, 1, 37, 125
4, 14400, Note_on_c, 1, 37, 0
4, 14400, Note_on_c, 1, 38, 125
4, 14680, Note_on_c, 1, 38, 0
4, 14720, Note_on_c, 1, 33, 125
4, 14759, Note_on_c, 1, 33, 0
4, 14760, Note_on_c, 1, 38, 125
4, 15040, Note_on_c, 1, 38, 0
4, 15040, Note_on_c, 1, 39, 125
4, 15079, Note_on_c, 1, 39, 0
4, 15080, Note_on_c, 1, 40, 125
4, 15119, Note_on_c, 1, 40, 0
4, 15120, Note_on_c, 1, 33, 125
4, 15400, Note_on_c, 1, 33, 0
4, 15400, Note_on_c, 1, 38, 125
4, 15439, Note_on_c, 1, 38, 0
4, 15440, Note_on_c, 1, 39, 125
4, 15479, Note_on_c, 1, 39, 0
4, 15480, Note_on_c, 1, 40, 125
4, 15840, Note_on_c, 1, 40, 0
4, 15840, Note_on_c, 1, 33, 125
4, 16120, Note_on_c, 1, 33, 0
4, 16160, Note_on_c, 1, 42, 125
4, 16199, Note_on_c, 1, 42, 0
4, 16200, Note_on_c, 1, 40, 125
4, 16320, Note_on_c, 1, 40, 0
4, 16320, Note_on_c, 1, 42, 125
4, 16440, Note_on_c, 1, 42, 0
4, 16440, Note_on_c, 1, 44, 125
4, 16560, Note_on_c, 1, 44, 0
4, 16560, Note_on_c, 1, 33, 125
4, 16920, Note_on_c, 1, 33, 0
4, 16920, Note_on_c, 1, 33, 125
4, 17040, Note_on_c, 1, 33, 0
4, 17040, Note_on_c, 1, 35, 125
4, 17160, Note_on_c, 1, 35, 0
4, 17160, Note_on_c, 1, 37, 125
4, 17280, Note_on_c, 1, 37, 0
4, 17280, Note_on_c, 1, 38, 125
4, 17560, Note_on_c, 1, 38, 0
4, 17600, Note_on_c, 1, 33, 125
4, 17639, Note_on_c, 1, 33, 0
4, 17640, Note_on_c, 1, 38, 125
4, 17880, Note_on_c, 1, 38, 0
4, 17920, Note_on_c, 1, 39, 125
4, 17959, Note_on_c, 1, 39, 0
4, 17960, Note_on_c, 1, 40, 125
4, 17999, Note_on_c, 1, 40, 0
4, 18000, Note_on_c, 1, 33, 125
4, 18240, Note_on_c, 1, 33, 0
4, 18240, Note_on_c, 1, 37, 125
4, 18279, Note_on_c, 1, 37, 0
4, 18280, Note_on_c, 1, 38, 125
4, 18319, Note_on_c, 1, 38, 0
4, 18320, Note_on_c, 1, 39, 125
4, 18359, Note_on_c, 1, 39, 0
4, 18360, Note_on_c, 1, 40, 125
4, 18720, Note_on_c, 1, 40, 0
4, 18720, Note_on_c, 1, 33, 125
4, 18960, Note_on_c, 1, 33, 0
4, 18960, Note_on_c, 1, 37, 125
4, 18999, Note_on_c, 1, 37, 0
4, 19000, Note_on_c, 1, 38, 125
4, 19039, Note_on_c, 1, 38, 0
4, 19040, Note_on_c, 1, 39, 125
4, 19079, Note_on_c, 1, 39, 0
4, 19080, Note_on_c, 1, 40, 125
4, 19200, Note_on_c, 1, 40, 0
4, 19200, Note_on_c, 1, 42, 125
4, 19320, Note_on_c, 1, 42, 0
4, 19320, Note_on_c, 1, 44, 125
4, 19440, Note_on_c, 1, 44, 0
4, 19440, Note_on_c, 1, 45, 125
4, 19640, Note_on_c, 1, 45, 0
4, 19680, Note_on_c, 1, 33, 125
4, 19719, Note_on_c, 1, 33, 0
4, 19720, Note_on_c, 1, 35, 125
4, 19759, Note_on_c, 1, 35, 0
4, 19760, Note_on_c, 1, 37, 125
4, 19799, Note_on_c, 1, 37, 0
4, 19800, Note_on_c, 1, 38, 126
4, 20160, Note_on_c, 1, 38, 0
4, 20160, Note_on_c, 1, 33, 126
4, 20440, Note_on_c, 1, 33, 0
4, 20480, Note_on_c, 1, 42, 126
4, 20519, Note_on_c, 1, 42, 0
4, 20520, Note_on_c, 1, 40, 126
4, 20640, Note_on_c, 1, 40, 0
4, 20640, Note_on_c, 1, 42, 126
4, 20760, Note_on_c, 1, 42, 0
4, 20760, Note_on_c, 1, 44, 126
4, 20880, Note_on_c, 1, 44, 0
4, 20880, Note_on_c, 1, 45, 126
4, 21120, Note_on_c, 1, 45, 0
4, 21120, Note_on_c, 1, 37, 126
4, 21159, Note_on_c, 1, 37, 0
4, 21160, Note_on_c, 1, 38, 126
4, 21199, Note_on_c, 1, 38, 0
4, 21200, Note_on_c, 1, 39, 126
4, 21239, Note_on_c, 1, 39, 0
4, 21240, Note_on_c, 1, 40, 126
4, 21600, Note_on_c, 1, 40, 0
4, 21600, Note_on_c, 1, 33, 126
4, 21880, Note_on_c, 1, 33, 0
4, 21920, Note_on_c, 1, 42, 126
4, 21959, Note_on_c, 1, 42, 0
4, 21960, Note_on_c, 1, 40, 126
4, 22080, Note_on_c, 1, 40, 0
4, 22080, Note_on_c, 1, 42, 126
4, 22200, Note_on_c, 1, 42, 0
4, 22200, Note_on_c, 1, 44, 126
4, 22320, Note_on_c, 1, 44, 0
4, 22320, Note_on_c, 1, 45, 126
4, 22560, Note_on_c, 1, 45, 0
4, 22560, Note_on_c, 1, 33, 126
4, 22599, Note_on_c, 1, 33, 0
4, 22600, Note_on_c, 1, 35, 126
4, 22639, Note_on_c, 1, 35, 0
4, 22640, Note_on_c, 1, 37, 126
4, 22679, Note_on_c, 1, 37, 0
4, 22680, Note_on_c, 1, 38, 126
4, 23040, Note_on_c, 1, 38, 0
4, 23040, Note_on_c, 1, 33, 126
4, 23320, Note_on_c, 1, 33, 0
4, 23360, Note_on_c, 1, 42, 126
4, 23399, Note_on_c, 1, 42, 0
4, 23400, Note_on_c, 1, 40, 126
4, 23520, Note_on_c, 1, 40, 0
4, 23520, Note_on_c, 1, 42, 126
4, 23640, Note_on_c, 1, 42, 0
4, 23640, Note_on_c, 1, 44, 126
4, 23760, Note_on_c, 1, 44, 0
4, 23760, Note_on_c, 1, 45, 126
4, 23960, Note_on_c, 1, 45, 0
4, 24000, Note_on_c, 1, 37, 126
4, 24039, Note_on_c, 1, 37, 0
4, 24040, Note_on_c, 1, 38, 126
4, 24079, Note_on_c, 1, 38, 0
4, 24080, Note_on_c, 1, 39, 126
4, 24119, Note_on_c, 1, 39, 0
4, 24120, Note_on_c, 1, 40, 126
4, 24480, Note_on_c, 1, 40, 0
4, 24480, Note_on_c, 1, 33, 126
4, 24760, Note_on_c, 1, 33, 0
4, 24800, Note_on_c, 1, 42, 126
4, 24839, Note_on_c, 1, 42, 0
4, 24840, Note_on_c, 1, 40, 126
4, 24960, Note_on_c, 1, 40, 0
4, 24960, Note_on_c, 1, 42, 126
4, 25080, Note_on_c, 1, 42, 0
4, 25080, Note_on_c, 1, 44, 126
4, 25200, Note_on_c, 1, 44, 0
4, 25200, Note_on_c, 1, 45, 126
4, 25440, Note_on_c, 1, 45, 0
4, 25440, Note_on_c, 1, 37, 126
4, 25479, Note_on_c, 1, 37, 0
4, 25480, Note_on_c, 1, 38, 126
4, 25519, Note_on_c, 1, 38, 0
4, 25520, Note_on_c, 1, 39, 126
4, 25559, Note_on_c, 1, 39, 0
4, 25560, Note_on_c, 1, 40, 126
4, 25880, Note_on_c, 1, 40, 0
4, 25880, Note_on_c, 1, 42, 126
4, 25919, Note_on_c, 1, 42, 0
4, 25920, Note_on_c, 1, 33, 126
4, 26200, Note_on_c, 1, 33, 0
4, 26240, Note_on_c, 1, 40, 126
4, 26279, Note_on_c, 1, 40, 0
4, 26280, Note_on_c, 1, 33, 126
4, 26400, Note_on_c, 1, 33, 0
4, 26400, Note_on_c, 1, 35, 126
4, 26520, Note_on_c, 1, 35, 0
4, 26520, Note_on_c, 1, 37, 126
4, 26640, Note_on_c, 1, 37, 0
4, 26640, Note_on_c, 1, 38, 126
4, 26960, Note_on_c, 1, 38, 0
4, 26960, Note_on_c, 1, 39, 126
4, 26999, Note_on_c, 1, 39, 0
4, 27000, Note_on_c, 1, 40, 126
4, 27320, Note_on_c, 1, 40, 0
4, 27320, Note_on_c, 1, 42, 126
4, 27359, Note_on_c, 1, 42, 0
4, 27360, Note_on_c, 1, 33, 126
4, 27640, Note_on_c, 1, 33, 0
4, 27680, Note_on_c, 1, 42, 126
4, 27719, Note_on_c, 1, 42, 0
4, 27720, Note_on_c, 1, 40, 126
4, 27840, Note_on_c, 1, 40, 0
4, 27840, Note_on_c, 1, 42, 126
4, 27960, Note_on_c, 1, 42, 0
4, 27960, Note_on_c, 1, 44, 126
4, 28080, Note_on_c, 1, 44, 0
4, 28080, Note_on_c, 1, 45, 126
4, 28360, Note_on_c, 1, 45, 0
4, 28400, Note_on_c, 1, 40, 126
4, 28439, Note_on_c, 1, 40, 0
4, 28440, Note_on_c, 1, 33, 126
4, 28560, Note_on_c, 1, 33, 0
4, 28560, Note_on_c, 1, 35, 126
4, 28680, Note_on_c, 1, 35, 0
4, 28680, Note_on_c, 1, 37, 126
4, 28800, Note_on_c, 1, 37, 0
4, 28800, Note_on_c, 1, 38, 126
4, 29080, Note_on_c, 1, 38, 0
4, 29120, Note_on_c, 1, 33, 126
4, 29159, Note_on_c, 1, 33, 0
4, 29160, Note_on_c, 1, 38, 126
4, 29440, Note_on_c, 1, 38, 0
4, 29440, Note_on_c, 1, 39, 126
4, 29479, Note_on_c, 1, 39, 0
4, 29480, Note_on_c, 1, 40, 126
4, 29519, Note_on_c, 1, 40, 0
4, 29520, Note_on_c, 1, 33, 126
4, 29800, Note_on_c, 1, 33, 0
4, 29800, Note_on_c, 1, 38, 126
4, 29839, Note_on_c, 1, 38, 0
4, 29840, Note_on_c, 1, 39, 126
4, 29879, Note_on_c, 1, 39, 0
4, 29880, Note_on_c, 1, 40, 126
4, 30240, Note_on_c, 1, 40, 0
4, 30240, Note_on_c, 1, 33, 126
4, 30520, Note_on_c, 1, 33, 0
4, 30560, Note_on_c, 1, 42, 126
4, 30599, Note_on_c, 1, 42, 0
4, 30600, Note_on_c, 1, 40, 126
4, 30720, Note_on_c, 1, 40, 0
4, 30720, Note_on_c, 1, 42, 126
4, 30840, Note_on_c, 1, 42, 0
4, 30840, Note_on_c, 1, 44, 126
4, 30960, Note_on_c, 1, 44, 0
4, 30960, Note_on_c, 1, 33, 126
4, 31240, Note_on_c, 1, 33, 0
4, 31240, Note_on_c, 1, 38, 126
4, 31279, Note_on_c, 1, 38, 0
4, 31280, Note_on_c, 1, 39, 126
4, 31319, Note_on_c, 1, 39, 0
4, 31320, Note_on_c, 1, 40, 126
4, 31680, Note_on_c, 1, 40, 0
4, 31680, Note_on_c, 1, 29, 126
4, 32040, Note_on_c, 1, 29, 0
4, 32040, Note_on_c, 1, 31, 126
4, 32400, Note_on_c, 1, 31, 0
4, 32400, Note_on_c, 1, 33, 126
4, 33119, Note_on_c, 1, 33, 0
4, 33119, End_track
5, 0, Start_track
5, 0, MIDI_port, 0
5, 0, Title_t, "MUTE GUITAR"
5, 135, Control_c, 3, 0, 0
5, 136, Control_c, 3, 32, 0
5, 137, Program_c, 3, 28
5, 138, Control_c, 3, 7, 100
5, 720, Note_on_c, 3, 45, 125
5, 960, Note_on_c, 3, 45, 0
5, 960, Note_on_c, 3, 49, 125
5, 999, Note_on_c, 3, 49, 0
5, 1000, Note_on_c, 3, 50, 125
5, 1039, Note_on_c, 3, 50, 0
5, 1040, Note_on_c, 3, 51, 125
5, 1079, Note_on_c, 3, 51, 0
5, 1080, Note_on_c, 3, 52, 125
5, 1440, Note_on_c, 3, 52, 0
5, 1440, Note_on_c, 3, 45, 125
5, 1680, Note_on_c, 3, 45, 0
5, 1680, Note_on_c, 3, 49, 125
5, 1719, Note_on_c, 3, 49, 0
5, 1720, Note_on_c, 3, 50, 125
5, 1759, Note_on_c, 3, 50, 0
5, 1760, Note_on_c, 3, 51, 125
5, 1799, Note_on_c, 3, 51, 0
5, 1800, Note_on_c, 3, 52, 125
5, 1920, Note_on_c, 3, 52, 0
5, 1920, Note_on_c, 3, 54, 125
5, 2040, Note_on_c, 3, 54, 0
5, 2040, Note_on_c, 3, 56, 125
5, 2160, Note_on_c, 3, 56, 0
5, 2160, Note_on_c, 3, 45, 125
5, 2520, Note_on_c, 3, 45, 0
5, 2520, Note_on_c, 3, 45, 125
5, 2640, Note_on_c, 3, 45, 0
5, 2640, Note_on_c, 3, 47, 125
5, 2760, Note_on_c, 3, 47, 0
5, 2760, Note_on_c, 3, 49, 125
5, 2880, Note_on_c, 3, 49, 0
5, 2880, Note_on_c, 3, 50, 125
5, 3160, Note_on_c, 3, 50, 0
5, 3200, Note_on_c, 3, 45, 125
5, 3239, Note_on_c, 3, 45, 0
5, 3240, Note_on_c, 3, 50, 125
5, 3480, Note_on_c, 3, 50, 0
5, 3520, Note_on_c, 3, 51, 125
5, 3559, Note_on_c, 3, 51, 0
5, 3560, Note_on_c, 3, 52, 125
5, 3599, Note_on_c, 3, 52, 0
5, 3600, Note_on_c, 3, 45, 125
5, 3840, Note_on_c, 3, 45, 0
5, 3840, Note_on_c, 3, 49, 125
5, 3879, Note_on_c, 3, 49, 0
5, 3880, Note_on_c, 3, 50, 125
5, 3919, Note_on_c, 3, 50, 0
5, 3920, Note_on_c, 3, 51, 125
5, 3959, Note_on_c, 3, 51, 0
5, 3960, Note_on_c, 3, 52, 125
5, 4320, Note_on_c, 3, 52, 0
5, 4320, Note_on_c, 3, 45, 125
5, 4560, Note_on_c, 3, 45, 0
5, 4560, Note_on_c, 3, 49, 125
5, 4599, Note_on_c, 3, 49, 0
5, 4600, Note_on_c, 3, 50, 125
5, 4639, Note_on_c, 3, 50, 0
5, 4640, Note_on_c, 3, 51, 125
5, 4679, Note_on_c, 3, 51, 0
5, 4680, Note_on_c, 3, 52, 125
5, 4800, Note_on_c, 3, 52, 0
5, 4800, Note_on_c, 3, 54, 125
5, 4920, Note_on_c, 3, 54, 0
5, 4920, Note_on_c, 3, 56, 125
5, 5040, Note_on_c, 3, 56, 0
5, 5040, Note_on_c, 3, 57, 125
5, 5240, Note_on_c, 3, 57, 0
5, 5280, Note_on_c, 3, 45, 125
5, 5319, Note_on_c, 3, 45, 0
5, 5320, Note_on_c, 3, 47, 125
5, 5359, Note_on_c, 3, 47, 0
5, 5360, Note_on_c, 3, 49, 125
5, 5399, Note_on_c, 3, 49, 0
5, 5400, Note_on_c, 3, 50, 125
5, 5760, Note_on_c, 3, 50, 0
5, 5760, Note_on_c, 3, 45, 125
5, 6040, Note_on_c, 3, 45, 0
5, 6080, Note_on_c, 3, 54, 125
5, 6119, Note_on_c, 3, 54, 0
5, 6120, Note_on_c, 3, 52, 125
5, 6240, Note_on_c, 3, 52, 0
5, 6240, Note_on_c, 3, 54, 125
5, 6360, Note_on_c, 3, 54, 0
5, 6360, Note_on_c, 3, 56, 125
5, 6480, Note_on_c, 3, 56, 0
5, 6480, Note_on_c, 3, 57, 125
5, 6720, Note_on_c, 3, 57, 0
5, 6720, Note_on_c, 3, 49, 125
5, 6759, Note_on_c, 3, 49, 0
5, 6760, Note_on_c, 3, 50, 125
5, 6799, Note_on_c, 3, 50, 0
5, 6800, Note_on_c, 3, 51, 125
5, 6839, Note_on_c, 3, 51, 0
5, 6840, Note_on_c, 3, 52, 125
5, 7200, Note_on_c, 3, 52, 0
5, 7200, Note_on_c, 3, 45, 125
5, 7480, Note_on_c, 3, 45, 0
5, 7520, Note_on_c, 3, 54, 125
5, 7559, Note_on_c, 3, 54, 0
5, 7560, Note_on_c, 3, 52, 125
5, 7680, Note_on_c, 3, 52, 0
5, 7680, Note_on_c, 3, 54, 125
5, 7800, Note_on_c, 3, 54, 0
5, 7800, Note_on_c, 3, 56, 125
5, 7920, Note_on_c, 3, 56, 0
5, 7920, Note_on_c, 3, 57, 125
5, 8160, Note_on_c, 3, 57, 0
5, 8160, Note_on_c, 3, 45, 125
5, 8199, Note_on_c, 3, 45, 0
5, 8200, Note_on_c, 3, 47, 125
5, 8239, Note_on_c, 3, 47, 0
5, 8240, Note_on_c, 3, 49, 125
5, 8279, Note_on_c, 3, 49, 0
5, 8280, Note_on_c, 3, 50, 125
5, 8640, Note_on_c, 3, 50, 0
5, 8640, Note_on_c, 3, 45, 125
5, 8920, Note_on_c, 3, 45, 0
5, 8960, Note_on_c, 3, 54, 125
5, 8999, Note_on_c, 3, 54, 0
5, 9000, Note_on_c, 3, 52, 125
5, 9120, Note_on_c, 3, 52, 0
5, 9120, Note_on_c, 3, 54, 125
5, 9240, Note_on_c, 3, 54, 0
5, 9240, Note_on_c, 3, 56, 125
5, 9360, Note_on_c, 3, 56, 0
5, 9360, Note_on_c, 3, 57, 125
5, 9560, Note_on_c, 3, 57, 0
5, 9600, Note_on_c, 3, 49, 125
5, 9639, Note_on_c, 3, 49, 0
5, 9640, Note_on_c, 3, 50, 125
5, 9679, Note_on_c, 3, 50, 0
5, 9680, Note_on_c, 3, 51, 125
5, 9719, Note_on_c, 3, 51, 0
5, 9720, Note_on_c, 3, 52, 125
5, 10080, Note_on_c, 3, 52, 0
5, 10080, Note_on_c, 3, 45, 125
5, 10360, Note_on_c, 3, 45, 0
5, 10400, Note_on_c, 3, 54, 125
5, 10439, Note_on_c, 3, 54, 0
5, 10440, Note_on_c, 3, 52, 125
5, 10560, Note_on_c, 3, 52, 0
5, 10560, Note_on_c, 3, 54, 125
5, 10680, Note_on_c, 3, 54, 0
5, 10680, Note_on_c, 3, 56, 125
5, 10800, Note_on_c, 3, 56, 0
5, 10800, Note_on_c, 3, 57, 125
5, 11040, Note_on_c, 3, 57, 0
5, 11040, Note_on_c, 3, 49, 125
5, 11079, Note_on_c, 3, 49, 0
5, 11080, Note_on_c, 3, 50, 125
5, 11119, Note_on_c, 3, 50, 0
5, 11120, Note_on_c, 3, 51, 125
5, 11159, Note_on_c, 3, 51, 0
5, 11160, Note_on_c, 3, 52, 125
5, 11480, Note_on_c, 3, 52, 0
5, 11480, Note_on_c, 3, 54, 125
5, 11519, Note_on_c, 3, 54, 0
5, 11520, Note_on_c, 3, 45, 125
5, 11800, Note_on_c, 3, 45, 0
5, 11840, Note_on_c, 3, 52, 125
5, 11879, Note_on_c, 3, 52, 0
5, 11880, Note_on_c, 3, 45, 125
5, 12000, Note_on_c, 3, 45, 0
5, 12000, Note_on_c, 3, 47, 125
5, 12120, Note_on_c, 3, 47, 0
5, 12120, Note_on_c, 3, 49, 125
5, 12240, Note_on_c, 3, 49, 0
5, 12240, Note_on_c, 3, 50, 125
5, 12560, Note_on_c, 3, 50, 0
5, 12560, Note_on_c, 3, 51, 125
5, 12599, Note_on_c, 3, 51, 0
5, 12600, Note_on_c, 3, 52, 125
5, 12920, Note_on_c, 3, 52, 0
5, 12920, Note_on_c, 3, 54, 125
5, 12959, Note_on_c, 3, 54, 0
5, 12960, Note_on_c, 3, 45, 125
5, 13240, Note_on_c, 3, 45, 0
5, 13280, Note_on_c, 3, 54, 125
5, 13319, Note_on_c, 3, 54, 0
5, 13320, Note_on_c, 3, 52, 125
5, 13440, Note_on_c, 3, 52, 0
5, 13440, Note_on_c, 3, 54, 125
5, 13560, Note_on_c, 3, 54, 0
5, 13560, Note_on_c, 3, 56, 125
5, 13680, Note_on_c, 3, 56, 0
5, 13680, Note_on_c, 3, 57, 125
5, 13960, Note_on_c, 3, 57, 0
5, 14000, Note_on_c, 3, 52, 125
5, 14039, Note_on_c, 3, 52, 0
5, 14040, Note_on_c, 3, 45, 125
5, 14160, Note_on_c, 3, 45, 0
5, 14160, Note_on_c, 3, 47, 125
5, 14280, Note_on_c, 3, 47, 0
5, 14280, Note_on_c, 3, 49, 125
5, 14400, Note_on_c, 3, 49, 0
5, 14400, Note_on_c, 3, 50, 125
5, 14680, Note_on_c, 3, 50, 0
5, 14720, Note_on_c, 3, 45, 125
5, 14759, Note_on_c, 3, 45, 0
5, 14760, Note_on_c, 3, 50, 125
5, 15040, Note_on_c, 3, 50, 0
5, 15040, Note_on_c, 3, 51, 125
5, 15079, Note_on_c, 3, 51, 0
5, 15080, Note_on_c, 3, 52, 125
5, 15119, Note_on_c, 3, 52, 0
5, 15120, Note_on_c, 3, 45, 125
5, 15400, Note_on_c, 3, 45, 0
5, 15400, Note_on_c, 3, 50, 125
5, 15439, Note_on_c, 3, 50, 0
5, 15440, Note_on_c, 3, 51, 125
5, 15479, Note_on_c, 3, 51, 0
5, 15480, Note_on_c, 3, 52, 125
5, 15840, Note_on_c, 3, 52, 0
5, 15840, Note_on_c, 3, 45, 125
5, 16120, Note_on_c, 3, 45, 0
5, 16160, Note_on_c, 3, 54, 125
5, 16199, Note_on_c, 3, 54, 0
5, 16200, Note_on_c, 3, 52, 125
5, 16320, Note_on_c, 3, 52, 0
5, 16320, Note_on_c, 3, 54, 125
5, 16440, Note_on_c, 3, 54, 0
5, 16440, Note_on_c, 3, 56, 125
5, 16560, Note_on_c, 3, 56, 0
5, 16560, Note_on_c, 3, 45, 125
5, 16920, Note_on_c, 3, 45, 0
5, 16920, Note_on_c, 3, 45, 125
5, 17040, Note_on_c, 3, 45, 0
5, 17040, Note_on_c, 3, 47, 125
5, 17160, Note_on_c, 3, 47, 0
5, 17160, Note_on_c, 3, 49, 125
5, 17280, Note_on_c, 3, 49, 0
5, 17280, Note_on_c, 3, 50, 125
5, 17560, Note_on_c, 3, 50, 0
5, 17600, Note_on_c, 3, 45, 125
5, 17639, Note_on_c, 3, 45, 0
5, 17640, Note_on_c, 3, 50, 125
5, 17880, Note_on_c, 3, 50, 0
5, 17920, Note_on_c, 3, 51, 125
5, 17959, Note_on_c, 3, 51, 0
5, 17960, Note_on_c, 3, 52, 125
5, 17999, Note_on_c, 3, 52, 0
5, 18000, Note_on_c, 3, 45, 125
5, 18240, Note_on_c, 3, 45, 0
5, 18240, Note_on_c, 3, 49, 125
5, 18279, Note_on_c, 3, 49, 0
5, 18280, Note_on_c, 3, 50, 125
5, 18319, Note_on_c, 3, 50, 0
5, 18320, Note_on_c, 3, 51, 125
5, 18359, Note_on_c, 3, 51, 0
5, 18360, Note_on_c, 3, 52, 125
5, 18720, Note_on_c, 3, 52, 0
5, 18720, Note_on_c, 3, 45, 125
5, 18960, Note_on_c, 3, 45, 0
5, 18960, Note_on_c, 3, 49, 125
5, 18999, Note_on_c, 3, 49, 0
5, 19000, Note_on_c, 3, 50, 125
5, 19039, Note_on_c, 3, 50, 0
5, 19040, Note_on_c, 3, 51, 125
5, 19079, Note_on_c, 3, 51, 0
5, 19080, Note_on_c, 3, 52, 125
5, 19200, Note_on_c, 3, 52, 0
5, 19200, Note_on_c, 3, 54, 125
5, 19320, Note_on_c, 3, 54, 0
5, 19320, Note_on_c, 3, 56, 125
5, 19440, Note_on_c, 3, 56, 0
5, 19440, Note_on_c, 3, 57, 125
5, 19640, Note_on_c, 3, 57, 0
5, 19680, Note_on_c, 3, 45, 125
5, 19719, Note_on_c, 3, 45, 0
5, 19720, Note_on_c, 3, 47, 125
5, 19759, Note_on_c, 3, 47, 0
5, 19760, Note_on_c, 3, 49, 125
5, 19799, Note_on_c, 3, 49, 0
5, 19800, Note_on_c, 3, 50, 126
5, 20160, Note_on_c, 3, 50, 0
5, 20160, Note_on_c, 3, 45, 126
5, 20440, Note_on_c, 3, 45, 0
5, 20480, Note_on_c, 3, 54, 126
5, 20519, Note_on_c, 3, 54, 0
5, 20520, Note_on_c, 3, 52, 126
5, 20640, Note_on_c, 3, 52, 0
5, 20640, Note_on_c, 3, 54, 126
5, 20760, Note_on_c, 3, 54, 0
5, 20760, Note_on_c, 3, 56, 126
5, 20880, Note_on_c, 3, 56, 0
5, 20880, Note_on_c, 3, 57, 126
5, 21120, Note_on_c, 3, 57, 0
5, 21120, Note_on_c, 3, 49, 126
5, 21159, Note_on_c, 3, 49, 0
5, 21160, Note_on_c, 3, 50, 126
5, 21199, Note_on_c, 3, 50, 0
5, 21200, Note_on_c, 3, 51, 126
5, 21239, Note_on_c, 3, 51, 0
5, 21240, Note_on_c, 3, 52, 126
5, 21600, Note_on_c, 3, 52, 0
5, 21600, Note_on_c, 3, 45, 126
5, 21880, Note_on_c, 3, 45, 0
5, 21920, Note_on_c, 3, 54, 126
5, 21959, Note_on_c, 3, 54, 0
5, 21960, Note_on_c, 3, 52, 126
5, 22080, Note_on_c, 3, 52, 0
5, 22080, Note_on_c, 3, 54, 126
5, 22200, Note_on_c, 3, 54, 0
5, 22200, Note_on_c, 3, 56, 126
5, 22320, Note_on_c, 3, 56, 0
5, 22320, Note_on_c, 3, 57, 126
5, 22560, Note_on_c, 3, 57, 0
5, 22560, Note_on_c, 3, 45, 126
5, 22599, Note_on_c, 3, 45, 0
5, 22600, Note_on_c, 3, 47, 126
5, 22639, Note_on_c, 3, 47, 0
5, 22640, Note_on_c, 3, 49, 126
5, 22679, Note_on_c, 3, 49, 0
5, 22680, Note_on_c, 3, 50, 126
5, 23040, Note_on_c, 3, 50, 0
5, 23040, Note_on_c, 3, 45, 126
5, 23320, Note_on_c, 3, 45, 0
5, 23360, Note_on_c, 3, 54, 126
5, 23399, Note_on_c, 3, 54, 0
5, 23400, Note_on_c, 3, 52, 126
5, 23520, Note_on_c, 3, 52, 0
5, 23520, Note_on_c, 3, 54, 126
5, 23640, Note_on_c, 3, 54, 0
5, 23640, Note_on_c, 3, 56, 126
5, 23760, Note_on_c, 3, 56, 0
5, 23760, Note_on_c, 3, 57, 126
5, 23960, Note_on_c, 3, 57, 0
5, 24000, Note_on_c, 3, 49, 126
5, 24039, Note_on_c, 3, 49, 0
5, 24040, Note_on_c, 3, 50, 126
5, 24079, Note_on_c, 3, 50, 0
5, 24080, Note_on_c, 3, 51, 126
5, 24119, Note_on_c, 3, 51, 0
5, 24120, Note_on_c, 3, 52, 126
5, 24480, Note_on_c, 3, 52, 0
5, 24480, Note_on_c, 3, 45, 126
5, 24760, Note_on_c, 3, 45, 0
5, 24800, Note_on_c, 3, 54, 126
5, 24839, Note_on_c, 3, 54, 0
5, 24840, Note_on_c, 3, 52, 126
5, 24960, Note_on_c, 3, 52, 0
5, 24960, Note_on_c, 3, 54, 126
5, 25080, Note_on_c, 3, 54, 0
5, 25080, Note_on_c, 3, 56, 126
5, 25200, Note_on_c, 3, 56, 0
5, 25200, Note_on_c, 3, 57, 126
5, 25440, Note_on_c, 3, 57, 0
5, 25440, Note_on_c, 3, 49, 126
5, 25479, Note_on_c, 3, 49, 0
5, 25480, Note_on_c, 3, 50, 126
5, 25519, Note_on_c, 3, 50, 0
5, 25520, Note_on_c, 3, 51, 126
5, 25559, Note_on_c, 3, 51, 0
5, 25560, Note_on_c, 3, 52, 126
5, 25880, Note_on_c, 3, 52, 0
5, 25880, Note_on_c, 3, 54, 126
5, 25919, Note_on_c, 3, 54, 0
5, 25920, Note_on_c, 3, 45, 126
5, 26200, Note_on_c, 3, 45, 0
5, 26240, Note_on_c, 3, 52, 126
5, 26279, Note_on_c, 3, 52, 0
5, 26280, Note_on_c, 3, 45, 126
5, 26400, Note_on_c, 3, 45, 0
5, 26400, Note_on_c, 3, 47, 126
5, 26520, Note_on_c, 3, 47, 0
5, 26520, Note_on_c, 3, 49, 126
5, 26640, Note_on_c, 3, 49, 0
5, 26640, Note_on_c, 3, 50, 126
5, 26960, Note_on_c, 3, 50, 0
5, 26960, Note_on_c, 3, 51, 126
5, 26999, Note_on_c, 3, 51, 0
5, 27000, Note_on_c, 3, 52, 126
5, 27320, Note_on_c, 3, 52, 0
5, 27320, Note_on_c, 3, 54, 126
5, 27359, Note_on_c, 3, 54, 0
5, 27360, Note_on_c, 3, 45, 126
5, 27640, Note_on_c, 3, 45, 0
5, 27680, Note_on_c, 3, 54, 126
5, 27719, Note_on_c, 3, 54, 0
5, 27720, Note_on_c, 3, 52, 126
5, 27840, Note_on_c, 3, 52, 0
5, 27840, Note_on_c, 3, 54, 126
5, 27960, Note_on_c, 3, 54, 0
5, 27960, Note_on_c, 3, 56, 126
5, 28080, Note_on_c, 3, 56, 0
5, 28080, Note_on_c, 3, 57, 126
5, 28360, Note_on_c, 3, 57, 0
5, 28400, Note_on_c, 3, 52, 126
5, 28439, Note_on_c, 3, 52, 0
5, 28440, Note_on_c, 3, 45, 126
5, 28560, Note_on_c, 3, 45, 0
5, 28560, Note_on_c, 3, 47, 126
5, 28680, Note_on_c, 3, 47, 0
5, 28680, Note_on_c, 3, 49, 126
5, 28800, Note_on_c, 3, 49, 0
5, 28800, Note_on_c, 3, 50, 126
5, 29080, Note_on_c, 3, 50, 0
5, 29120, Note_on_c, 3, 45, 126
5, 29159, Note_on_c, 3, 45, 0
5, 29160, Note_on_c, 3, 50, 126
5, 29440, Note_on_c, 3, 50, 0
5, 29440, Note_on_c, 3, 51, 126
5, 29479, Note_on_c, 3, 51, 0
5, 29480, Note_on_c, 3, 52, 126
5, 29519, Note_on_c, 3, 52, 0
5, 29520, Note_on_c, 3, 45, 126
5, 29800, Note_on_c, 3, 45, 0
5, 29800, Note_on_c, 3, 50, 126
5, 29839, Note_on_c, 3, 50, 0
5, 29840, Note_on_c, 3, 51, 126
5, 29879, Note_on_c, 3, 51, 0
5, 29880, Note_on_c, 3, 52, 126
5, 30240, Note_on_c, 3, 52, 0
5, 30240, Note_on_c, 3, 45, 126
5, 30520, Note_on_c, 3, 45, 0
5, 30560, Note_on_c, 3, 54, 126
5, 30599, Note_on_c, 3, 54, 0
5, 30600, Note_on_c, 3, 52, 126
5, 30720, Note_on_c, 3, 52, 0
5, 30720, Note_on_c, 3, 54, 126
5, 30840, Note_on_c, 3, 54, 0
5, 30840, Note_on_c, 3, 56, 126
5, 30960, Note_on_c, 3, 56, 0
5, 30960, Note_on_c, 3, 45, 126
5, 31240, Note_on_c, 3, 45, 0
5, 31240, Note_on_c, 3, 50, 126
5, 31279, Note_on_c, 3, 50, 0
5, 31280, Note_on_c, 3, 51, 126
5, 31319, Note_on_c, 3, 51, 0
5, 31320, Note_on_c, 3, 52, 126
5, 31680, Note_on_c, 3, 52, 0
5, 31680, Note_on_c, 3, 41, 126
5, 32040, Note_on_c, 3, 41, 0
5, 32040, Note_on_c, 3, 43, 126
5, 32400, Note_on_c, 3, 43, 0
5, 32400, Note_on_c, 3, 45, 126
5, 33480, Note_on_c, 3, 45, 0
5, 33480, End_track
6, 0, Start_track
6, 0, MIDI_port, 0
6, 0, Title_t, "STRINGS"
6, 140, Control_c, 4, 0, 0
6, 141, Control_c, 4, 32, 0
6, 142, Program_c, 4, 48
6, 143, Control_c, 4, 7, 100
6, 720, Note_on_c, 4, 85, 125
6, 720, Note_on_c, 4, 76, 125
6, 800, Note_on_c, 4, 76, 0
6, 800, Note_on_c, 4, 85, 0
6, 800, Note_on_c, 4, 76, 125
6, 800, Note_on_c, 4, 85, 125
6, 1039, Note_on_c, 4, 85, 0
6, 1039, Note_on_c, 4, 76, 0
6, 1040, Note_on_c, 4, 86, 125
6, 1040, Note_on_c, 4, 78, 125
6, 1079, Note_on_c, 4, 78, 0
6, 1079, Note_on_c, 4, 86, 0
6, 1080, Note_on_c, 4, 76, 125
6, 1080, Note_on_c, 4, 85, 125
6, 1319, Note_on_c, 4, 85, 0
6, 1319, Note_on_c, 4, 76, 0
6, 1320, Note_on_c, 4, 83, 125
6, 1320, Note_on_c, 4, 74, 125
6, 1440, Note_on_c, 4, 74, 0
6, 1440, Note_on_c, 4, 83, 0
6, 1440, Note_on_c, 4, 73, 126
6, 1440, Note_on_c, 4, 81, 126
6, 1799, Note_on_c, 4, 81, 0
6, 1799, Note_on_c, 4, 73, 0
6, 1800, Note_on_c, 4, 76, 104
6, 1800, Note_on_c, 4, 80, 99
6, 1919, Note_on_c, 4, 80, 0
6, 1919, Note_on_c, 4, 76, 0
6, 1920, Note_on_c, 4, 81, 112
6, 1920, Note_on_c, 4, 78, 101
6, 2039, Note_on_c, 4, 78, 0
6, 2039, Note_on_c, 4, 81, 0
6, 2040, Note_on_c, 4, 80, 93
6, 2040, Note_on_c, 4, 83, 125
6, 2159, Note_on_c, 4, 83, 0
6, 2159, Note_on_c, 4, 80, 0
6, 3600, Note_on_c, 4, 85, 125
6, 3600, Note_on_c, 4, 76, 125
6, 3680, Note_on_c, 4, 76, 0
6, 3680, Note_on_c, 4, 85, 0
6, 3680, Note_on_c, 4, 76, 125
6, 3680, Note_on_c, 4, 85, 125
6, 3919, Note_on_c, 4, 85, 0
6, 3919, Note_on_c, 4, 76, 0
6, 3920, Note_on_c, 4, 86, 125
6, 3920, Note_on_c, 4, 78, 125
6, 3959, Note_on_c, 4, 78, 0
6, 3959, Note_on_c, 4, 86, 0
6, 3960, Note_on_c, 4, 76, 125
6, 3960, Note_on_c, 4, 85, 125
6, 4199, Note_on_c, 4, 85, 0
6, 4199, Note_on_c, 4, 76, 0
6, 4200, Note_on_c, 4, 83, 125
6, 4200, Note_on_c, 4, 74, 125
6, 4320, Note_on_c, 4, 74, 0
6, 4320, Note_on_c, 4, 83, 0
6, 4320, Note_on_c, 4, 73, 126
6, 4320, Note_on_c, 4, 81, 126
6, 4679, Note_on_c, 4, 81, 0
6, 4679, Note_on_c, 4, 73, 0
6, 4680, Note_on_c, 4, 76, 104
6, 4680, Note_on_c, 4, 80, 99
6, 4799, Note_on_c, 4, 80, 0
6, 4799, Note_on_c, 4, 76, 0
6, 4800, Note_on_c, 4, 81, 112
6, 4800, Note_on_c, 4, 78, 101
6, 4919, Note_on_c, 4, 78, 0
6, 4919, Note_on_c, 4, 81, 0
6, 4920, Note_on_c, 4, 80, 93
6, 4920, Note_on_c, 4, 83, 125
6, 5039, Note_on_c, 4, 83, 0
6, 5039, Note_on_c, 4, 80, 0
6, 5040, Note_on_c, 4, 85, 125
6, 5040, Note_on_c, 4, 81, 125
6, 5040, Control_c, 4, 7, 49
6, 5056, Control_c, 4, 7, 48
6, 5072, Control_c, 4, 7, 47
6, 5088, Control_c, 4, 7, 46
6, 5104, Control_c, 4, 7, 45
6, 5120, Control_c, 4, 7, 44
6, 5136, Control_c, 4, 7, 43
6, 5152, Control_c, 4, 7, 42
6, 5168, Control_c, 4, 7, 41
6, 5184, Control_c, 4, 7, 40
6, 5200, Control_c, 4, 7, 39
6, 5216, Control_c, 4, 7, 38
6, 5230, Control_c, 4, 7, 37
6, 5246, Control_c, 4, 7, 36
6, 5262, Control_c, 4, 7, 35
6, 5278, Control_c, 4, 7, 34
6, 5294, Control_c, 4, 7, 33
6, 5310, Control_c, 4, 7, 32
6, 5326, Control_c, 4, 7, 31
6, 5342, Control_c, 4, 7, 30
6, 5358, Control_c, 4, 7, 29
6, 5374, Control_c, 4, 7, 28
6, 5390, Control_c, 4, 7, 27
6, 5399, Note_on_c, 4, 81, 0
6, 5399, Note_on_c, 4, 85, 0
6, 5406, Control_c, 4, 7, 26
6, 5420, Control_c, 4, 7, 25
6, 5520, Control_c, 4, 7, 49
6, 18000, Note_on_c, 4, 85, 125
6, 18000, Note_on_c, 4, 76, 125
6, 18080, Note_on_c, 4, 76, 0
6, 18080, Note_on_c, 4, 85, 0
6, 18080, Note_on_c, 4, 76, 125
6, 18080, Note_on_c, 4, 85, 125
6, 18319, Note_on_c, 4, 85, 0
6, 18319, Note_on_c, 4, 76, 0
6, 18320, Note_on_c, 4, 86, 125
6, 18320, Note_on_c, 4, 78, 125
6, 18359, Note_on_c, 4, 78, 0
6, 18359, Note_on_c, 4, 86, 0
6, 18360, Note_on_c, 4, 76, 125
6, 18360, Note_on_c, 4, 85, 125
6, 18599, Note_on_c, 4, 85, 0
6, 18599, Note_on_c, 4, 76, 0
6, 18600, Note_on_c, 4, 83, 125
6, 18600, Note_on_c, 4, 74, 125
6, 18720, Note_on_c, 4, 74, 0
6, 18720, Note_on_c, 4, 83, 0
6, 18720, Note_on_c, 4, 73, 126
6, 18720, Note_on_c, 4, 81, 126
6, 19079, Note_on_c, 4, 81, 0
6, 19079, Note_on_c, 4, 73, 0
6, 19080, Note_on_c, 4, 76, 104
6, 19080, Note_on_c, 4, 80, 99
6, 19199, Note_on_c, 4, 80, 0
6, 19199, Note_on_c, 4, 76, 0
6, 19200, Note_on_c, 4, 81, 112
6, 19200, Note_on_c, 4, 78, 101
6, 19319, Note_on_c, 4, 78, 0
6, 19319, Note_on_c, 4, 81, 0
6, 19320, Note_on_c, 4, 80, 93
6, 19320, Note_on_c, 4, 83, 125
6, 19439, Note_on_c, 4, 83, 0
6, 19439, Note_on_c, 4, 80, 0
6, 19440, Note_on_c, 4, 85, 125
6, 19440, Note_on_c, 4, 81, 125
6, 19440, Control_c, 4, 7, 49
6, 19454, Control_c, 4, 7, 48
6, 19466, Control_c, 4, 7, 47
6, 19480, Control_c, 4, 7, 46
6, 19492, Control_c, 4, 7, 45
6, 19506, Control_c, 4, 7, 44
6, 19518, Control_c, 4, 7, 43
6, 19532, Control_c, 4, 7, 42
6, 19544, Control_c, 4, 7, 41
6, 19556, Control_c, 4, 7, 40
6, 19570, Control_c, 4, 7, 39
6, 19582, Control_c, 4, 7, 38
6, 19596, Control_c, 4, 7, 37
6, 19608, Control_c, 4, 7, 36
6, 19622, Control_c, 4, 7, 35
6, 19634, Control_c, 4, 7, 34
6, 19646, Control_c, 4, 7, 33
6, 19660, Control_c, 4, 7, 32
6, 19672, Control_c, 4, 7, 31
6, 19686, Control_c, 4, 7, 30
6, 19698, Control_c, 4, 7, 29
6, 19712, Control_c, 4, 7, 28
6, 19724, Control_c, 4, 7, 27
6, 19736, Control_c, 4, 7, 26
6, 19750, Control_c, 4, 7, 25
6, 19762, Control_c, 4, 7, 24
6, 19776, Control_c, 4, 7, 23
6, 19788, Control_c, 4, 7, 22
6, 19799, Note_on_c, 4, 81, 0
6, 19799, Note_on_c, 4, 85, 0
6, 19802, Control_c, 4, 7, 21
6, 19814, Control_c, 4, 7, 20
6, 19826, Control_c, 4, 7, 19
6, 19918, Control_c, 4, 7, 50
6, 30960, Note_on_c, 4, 81, 80
6, 30960, Note_on_c, 4, 73, 67
6, 31320, Note_on_c, 4, 73, 0
6, 31320, Note_on_c, 4, 81, 0
6, 31320, Note_on_c, 4, 80, 82
6, 31320, Note_on_c, 4, 71, 110
6, 31680, Note_on_c, 4, 71, 0
6, 31680, Note_on_c, 4, 80, 0
6, 31680, Note_on_c, 4, 77, 110
6, 31680, Note_on_c, 4, 69, 110
6, 32040, Note_on_c, 4, 69, 0
6, 32040, Note_on_c, 4, 77, 0
6, 32040, Note_on_c, 4, 79, 119
6, 32040, Note_on_c, 4, 71, 119
6, 32400, Note_on_c, 4, 71, 0
6, 32400, Note_on_c, 4, 79, 0
6, 32400, Note_on_c, 4, 73, 115
6, 32400, Note_on_c, 4, 81, 119
6, 33119, Note_on_c, 4, 81, 0
6, 33119, Note_on_c, 4, 73, 0
6, 33119, End_track
7, 0, Start_track
7, 0, MIDI_port, 0
7, 0, Title_t, "PIANO"
7, 145, Control_c, 5, 0, 0
7, 146, Control_c, 5, 32, 0
7, 147, Program_c, 5, 0
7, 148, Control_c, 5, 7, 100
7, 720, Note_on_c, 5, 69, 95
7, 720, Note_on_c, 5, 64, 95
7, 720, Note_on_c, 5, 61, 95
7, 720, Note_on_c, 5, 45, 95
7, 831, Control_c, 5, 64, 127
7, 840, Note_on_c, 5, 45, 0
7, 840, Note_on_c, 5, 69, 0
7, 840, Note_on_c, 5, 64, 0
7, 840, Note_on_c, 5, 61, 0
7, 951, Control_c, 5, 64, 0
7, 960, Note_on_c, 5, 61, 95
7, 960, Note_on_c, 5, 49, 95
7, 999, Note_on_c, 5, 49, 0
7, 999, Note_on_c, 5, 61, 0
7, 1000, Note_on_c, 5, 62, 95
7, 1000, Note_on_c, 5, 50, 95
7, 1008, Control_c, 5, 64, 127
7, 1039, Note_on_c, 5, 50, 0
7, 1039, Note_on_c, 5, 62, 0
7, 1040, Note_on_c, 5, 63, 95
7, 1040, Note_on_c, 5, 51, 95
7, 1076, Control_c, 5, 64, 0
7, 1079, Note_on_c, 5, 51, 0
7, 1079, Note_on_c, 5, 63, 0
7, 1080, Note_on_c, 5, 68, 95
7, 1080, Note_on_c, 5, 59, 95
7, 1080, Note_on_c, 5, 52, 95
7, 1080, Note_on_c, 5, 64, 95
7, 1196, Control_c, 5, 64, 127
7, 1320, Note_on_c, 5, 64, 0
7, 1320, Note_on_c, 5, 68, 0
7, 1320, Note_on_c, 5, 59, 0
7, 1320, Note_on_c, 5, 52, 0
7, 1426, Control_c, 5, 64, 0
7, 1440, Note_on_c, 5, 69, 95
7, 1440, Note_on_c, 5, 64, 95
7, 1440, Note_on_c, 5, 61, 95
7, 1440, Note_on_c, 5, 45, 95
7, 1493, Control_c, 5, 64, 127
7, 1560, Note_on_c, 5, 61, 0
7, 1560, Note_on_c, 5, 69, 0
7, 1560, Note_on_c, 5, 64, 0
7, 1634, Control_c, 5, 64, 0
7, 1640, Note_on_c, 5, 57, 95
7, 1679, Note_on_c, 5, 57, 0
7, 1680, Note_on_c, 5, 61, 95
7, 1680, Note_on_c, 5, 64, 95
7, 1687, Control_c, 5, 64, 127
7, 1719, Note_on_c, 5, 64, 0
7, 1719, Note_on_c, 5, 61, 0
7, 1760, Note_on_c, 5, 66, 95
7, 1760, Note_on_c, 5, 62, 95
7, 1796, Control_c, 5, 64, 0
7, 1799, Note_on_c, 5, 62, 0
7, 1799, Note_on_c, 5, 66, 0
7, 1800, Note_on_c, 5, 45, 0
7, 1800, Note_on_c, 5, 40, 95
7, 1800, Note_on_c, 5, 64, 95
7, 1800, Note_on_c, 5, 61, 95
7, 1822, Control_c, 5, 64, 127
7, 1916, Control_c, 5, 64, 0
7, 1919, Note_on_c, 5, 61, 0
7, 1919, Note_on_c, 5, 64, 0
7, 1919, Note_on_c, 5, 40, 0
7, 1920, Note_on_c, 5, 63, 95
7, 1920, Note_on_c, 5, 60, 95
7, 1920, Note_on_c, 5, 42, 95
7, 1963, Control_c, 5, 64, 127
7, 2039, Note_on_c, 5, 42, 0
7, 2039, Note_on_c, 5, 60, 0
7, 2039, Note_on_c, 5, 63, 0
7, 2040, Note_on_c, 5, 62, 95
7, 2040, Note_on_c, 5, 59, 95
7, 2040, Note_on_c, 5, 44, 95
7, 2041, Control_c, 5, 64, 0
7, 2068, Control_c, 5, 64, 127
7, 2156, Control_c, 5, 64, 0
7, 2159, Note_on_c, 5, 44, 0
7, 2159, Note_on_c, 5, 59, 0
7, 2159, Note_on_c, 5, 62, 0
7, 2160, Note_on_c, 5, 45, 95
7, 2160, Note_on_c, 5, 61, 95
7, 2160, Note_on_c, 5, 64, 95
7, 2160, Note_on_c, 5, 69, 95
7, 2279, Note_on_c, 5, 69, 0
7, 2279, Note_on_c, 5, 45, 0
7, 2279, Note_on_c, 5, 61, 0
7, 2279, Note_on_c, 5, 64, 0
7, 2280, Note_on_c, 5, 45, 71
7, 2280, Note_on_c, 5, 61, 65
7, 2280, Note_on_c, 5, 64, 74
7, 2280, Note_on_c, 5, 69, 59
7, 2344, Control_c, 5, 64, 127
7, 2480, Note_on_c, 5, 69, 0
7, 2480, Note_on_c, 5, 45, 0
7, 2480, Note_on_c, 5, 61, 0
7, 2480, Note_on_c, 5, 64, 0
7, 2480, Note_on_c, 5, 69, 95
7, 2480, Note_on_c, 5, 45, 95
7, 2480, Note_on_c, 5, 64, 95
7, 2480, Note_on_c, 5, 61, 95
7, 2519, Note_on_c, 5, 61, 0
7, 2519, Note_on_c, 5, 69, 0
7, 2519, Note_on_c, 5, 45, 0
7, 2519, Note_on_c, 5, 64, 0
7, 2520, Note_on_c, 5, 45, 95
7, 2520, Note_on_c, 5, 64, 95
7, 2520, Note_on_c, 5, 69, 95
7, 2520, Note_on_c, 5, 61, 95
7, 2559, Note_on_c, 5, 61, 0
7, 2559, Note_on_c, 5, 45, 0
7, 2559, Note_on_c, 5, 64, 0
7, 2559, Note_on_c, 5, 69, 0
7, 2636, Control_c, 5, 64, 0
7, 2640, Note_on_c, 5, 62, 95
7, 2640, Note_on_c, 5, 47, 95
7, 2760, Note_on_c, 5, 47, 0
7, 2760, Note_on_c, 5, 62, 0
7, 2760, Note_on_c, 5, 64, 95
7, 2760, Note_on_c, 5, 49, 95
7, 2808, Control_c, 5, 64, 127
7, 2840, Note_on_c, 5, 49, 0
7, 2840, Note_on_c, 5, 64, 0
7, 2876, Control_c, 5, 64, 0
7, 2880, Note_on_c, 5, 62, 95
7, 2880, Note_on_c, 5, 66, 95
7, 2880, Note_on_c, 5, 69, 95
7, 2880, Note_on_c, 5, 50, 95
7, 3200, Note_on_c, 5, 69, 0
7, 3200, Note_on_c, 5, 62, 0
7, 3200, Note_on_c, 5, 66, 0
7, 3240, Note_on_c, 5, 66, 95
7, 3240, Note_on_c, 5, 69, 95
7, 3429, Control_c, 5, 64, 127
7, 3480, Note_on_c, 5, 69, 0
7, 3480, Note_on_c, 5, 66, 0
7, 3480, Note_on_c, 5, 50, 0
7, 3520, Note_on_c, 5, 64, 95
7, 3559, Note_on_c, 5, 64, 0
7, 3560, Note_on_c, 5, 66, 95
7, 3596, Control_c, 5, 64, 0
7, 3599, Note_on_c, 5, 66, 0
7, 3600, Note_on_c, 5, 69, 95
7, 3600, Note_on_c, 5, 64, 95
7, 3600, Note_on_c, 5, 61, 95
7, 3600, Note_on_c, 5, 45, 95
7, 3711, Control_c, 5, 64, 127
7, 3720, Note_on_c, 5, 45, 0
7, 3720, Note_on_c, 5, 69, 0
7, 3720, Note_on_c, 5, 64, 0
7, 3720, Note_on_c, 5, 61, 0
7, 3831, Control_c, 5, 64, 0
7, 3840, Note_on_c, 5, 61, 95
7, 3840, Note_on_c, 5, 49, 95
7, 3879, Note_on_c, 5, 49, 0
7, 3879, Note_on_c, 5, 61, 0
7, 3880, Note_on_c, 5, 62, 95
7, 3880, Note_on_c, 5, 50, 95
7, 3888, Control_c, 5, 64, 127
7, 3919, Note_on_c, 5, 50, 0
7, 3919, Note_on_c, 5, 62, 0
7, 3920, Note_on_c, 5, 63, 95
7, 3920, Note_on_c, 5, 51, 95
7, 3956, Control_c, 5, 64, 0
7, 3959, Note_on_c, 5, 51, 0
7, 3959, Note_on_c, 5, 63, 0
7, 3960, Note_on_c, 5, 68, 95
7, 3960, Note_on_c, 5, 59, 95
7, 3960, Note_on_c, 5, 52, 95
7, 3960, Note_on_c, 5, 64, 95
7, 4076, Control_c, 5, 64, 127
7, 4200, Note_on_c, 5, 64, 0
7, 4200, Note_on_c, 5, 68, 0
7, 4200, Note_on_c, 5, 59, 0
7, 4200, Note_on_c, 5, 52, 0
7, 4306, Control_c, 5, 64, 0
7, 4320, Note_on_c, 5, 69, 95
7, 4320, Note_on_c, 5, 64, 95
7, 4320, Note_on_c, 5, 61, 95
7, 4320, Note_on_c, 5, 45, 95
7, 4373, Control_c, 5, 64, 127
7, 4440, Note_on_c, 5, 61, 0
7, 4440, Note_on_c, 5, 69, 0
7, 4440, Note_on_c, 5, 64, 0
7, 4514, Control_c, 5, 64, 0
7, 4520, Note_on_c, 5, 57, 95
7, 4559, Note_on_c, 5, 57, 0
7, 4560, Note_on_c, 5, 61, 95
7, 4560, Note_on_c, 5, 64, 95
7, 4567, Control_c, 5, 64, 127
7, 4599, Note_on_c, 5, 64, 0
7, 4599, Note_on_c, 5, 61, 0
7, 4640, Note_on_c, 5, 66, 95
7, 4640, Note_on_c, 5, 62, 95
7, 4676, Control_c, 5, 64, 0
7, 4679, Note_on_c, 5, 62, 0
7, 4679, Note_on_c, 5, 66, 0
7, 4680, Note_on_c, 5, 45, 0
7, 4680, Note_on_c, 5, 40, 95
7, 4680, Note_on_c, 5, 64, 95
7, 4680, Note_on_c, 5, 61, 95
7, 4702, Control_c, 5, 64, 127
7, 4796, Control_c, 5, 64, 0
7, 4799, Note_on_c, 5, 61, 0
7, 4799, Note_on_c, 5, 64, 0
7, 4799, Note_on_c, 5, 40, 0
7, 4800, Note_on_c, 5, 63, 95
7, 4800, Note_on_c, 5, 60, 95
7, 4800, Note_on_c, 5, 42, 95
7, 4843, Control_c, 5, 64, 127
7, 4919, Note_on_c, 5, 42, 0
7, 4919, Note_on_c, 5, 60, 0
7, 4919, Note_on_c, 5, 63, 0
7, 4920, Note_on_c, 5, 62, 95
7, 4920, Note_on_c, 5, 59, 95
7, 4920, Note_on_c, 5, 44, 95
7, 4921, Control_c, 5, 64, 0
7, 4948, Control_c, 5, 64, 127
7, 5036, Control_c, 5, 64, 0
7, 5039, Note_on_c, 5, 44, 0
7, 5039, Note_on_c, 5, 59, 0
7, 5039, Note_on_c, 5, 62, 0
7, 5040, Note_on_c, 5, 45, 95
7, 5040, Note_on_c, 5, 64, 95
7, 5040, Note_on_c, 5, 61, 95
7, 5040, Note_on_c, 5, 57, 95
7, 5277, Control_c, 5, 64, 127
7, 5320, Note_on_c, 5, 57, 0
7, 5320, Note_on_c, 5, 45, 0
7, 5320, Note_on_c, 5, 64, 0
7, 5320, Note_on_c, 5, 61, 0
7, 5391, Control_c, 5, 64, 0
7, 5400, Note_on_c, 5, 66, 95
7, 5400, Note_on_c, 5, 50, 95
7, 5400, Note_on_c, 5, 62, 95
7, 5400, Note_on_c, 5, 57, 95
7, 5475, Control_c, 5, 64, 127
7, 5520, Note_on_c, 5, 50, 0
7, 5640, Note_on_c, 5, 66, 0
7, 5640, Note_on_c, 5, 62, 0
7, 5640, Note_on_c, 5, 57, 0
7, 5751, Control_c, 5, 64, 0
7, 5760, Note_on_c, 5, 64, 95
7, 5760, Note_on_c, 5, 45, 95
7, 5760, Note_on_c, 5, 61, 95
7, 5760, Note_on_c, 5, 57, 95
7, 6040, Note_on_c, 5, 57, 0
7, 6040, Note_on_c, 5, 61, 0
7, 6040, Note_on_c, 5, 64, 0
7, 6040, Note_on_c, 5, 57, 95
7, 6080, Note_on_c, 5, 66, 95
7, 6080, Note_on_c, 5, 62, 95
7, 6119, Note_on_c, 5, 62, 0
7, 6119, Note_on_c, 5, 66, 0
7, 6120, Note_on_c, 5, 64, 95
7, 6120, Note_on_c, 5, 61, 95
7, 6356, Control_c, 5, 64, 127
7, 6400, Note_on_c, 5, 61, 0
7, 6400, Note_on_c, 5, 45, 0
7, 6400, Note_on_c, 5, 57, 0
7, 6400, Note_on_c, 5, 64, 0
7, 6471, Control_c, 5, 64, 0
7, 6480, Note_on_c, 5, 45, 95
7, 6480, Note_on_c, 5, 64, 95
7, 6480, Note_on_c, 5, 61, 95
7, 6480, Note_on_c, 5, 57, 95
7, 6565, Control_c, 5, 64, 127
7, 6600, Note_on_c, 5, 57, 0
7, 6600, Note_on_c, 5, 45, 0
7, 6600, Note_on_c, 5, 64, 0
7, 6600, Note_on_c, 5, 61, 0
7, 6720, Note_on_c, 5, 49, 95
7, 6720, Note_on_c, 5, 61, 95
7, 6722, Control_c, 5, 64, 0
7, 6759, Note_on_c, 5, 61, 0
7, 6759, Note_on_c, 5, 49, 0
7, 6760, Note_on_c, 5, 50, 95
7, 6760, Note_on_c, 5, 62, 95
7, 6779, Control_c, 5, 64, 127
7, 6799, Note_on_c, 5, 62, 0
7, 6799, Note_on_c, 5, 50, 0
7, 6800, Note_on_c, 5, 51, 95
7, 6800, Note_on_c, 5, 63, 95
7, 6800, Note_on_c, 5, 62, 95
7, 6839, Note_on_c, 5, 62, 0
7, 6839, Note_on_c, 5, 63, 0
7, 6839, Note_on_c, 5, 51, 0
7, 6840, Note_on_c, 5, 52, 95
7, 6840, Note_on_c, 5, 59, 95
7, 6840, Note_on_c, 5, 64, 95
7, 6842, Control_c, 5, 64, 0
7, 7040, Control_c, 5, 64, 127
7, 7080, Note_on_c, 5, 64, 0
7, 7080, Note_on_c, 5, 59, 0
7, 7080, Note_on_c, 5, 52, 0
7, 7170, Control_c, 5, 64, 0
7, 7200, Note_on_c, 5, 45, 95
7, 7200, Note_on_c, 5, 69, 95
7, 7200, Note_on_c, 5, 64, 95
7, 7200, Note_on_c, 5, 61, 95
7, 7347, Control_c, 5, 64, 127
7, 7440, Note_on_c, 5, 61, 0
7, 7440, Note_on_c, 5, 64, 0
7, 7440, Note_on_c, 5, 69, 0
7, 7520, Note_on_c, 5, 45, 0
7, 7560, Note_on_c, 5, 56, 95
7, 7560, Note_on_c, 5, 40, 95
7, 7561, Control_c, 5, 64, 0
7, 7598, Control_c, 5, 64, 127
7, 7599, Note_on_c, 5, 40, 0
7, 7599, Note_on_c, 5, 56, 0
7, 7676, Control_c, 5, 64, 0
7, 7680, Note_on_c, 5, 57, 95
7, 7680, Note_on_c, 5, 42, 95
7, 7800, Note_on_c, 5, 42, 0
7, 7800, Note_on_c, 5, 57, 0
7, 7800, Note_on_c, 5, 59, 95
7, 7800, Note_on_c, 5, 44, 95
7, 7807, Control_c, 5, 64, 127
7, 7839, Note_on_c, 5, 44, 0
7, 7839, Note_on_c, 5, 59, 0
7, 7916, Control_c, 5, 64, 0
7, 7920, Note_on_c, 5, 45, 95
7, 7920, Note_on_c, 5, 64, 95
7, 7920, Note_on_c, 5, 69, 95
7, 7920, Note_on_c, 5, 61, 95
7, 8104, Control_c, 5, 64, 127
7, 8120, Note_on_c, 5, 61, 0
7, 8120, Note_on_c, 5, 45, 0
7, 8120, Note_on_c, 5, 64, 0
7, 8120, Note_on_c, 5, 69, 0
7, 8198, Control_c, 5, 64, 0
7, 8200, Note_on_c, 5, 62, 95
7, 8200, Note_on_c, 5, 47, 95
7, 8239, Note_on_c, 5, 47, 0
7, 8239, Note_on_c, 5, 62, 0
7, 8240, Note_on_c, 5, 64, 95
7, 8240, Note_on_c, 5, 49, 95
7, 8240, Control_c, 5, 64, 127
7, 8279, Note_on_c, 5, 49, 0
7, 8279, Note_on_c, 5, 64, 0
7, 8280, Note_on_c, 5, 50, 95
7, 8280, Note_on_c, 5, 69, 95
7, 8280, Note_on_c, 5, 62, 95
7, 8280, Note_on_c, 5, 66, 95
7, 8282, Control_c, 5, 64, 0
7, 8522, Control_c, 5, 64, 127
7, 8560, Note_on_c, 5, 66, 0
7, 8560, Note_on_c, 5, 50, 0
7, 8560, Note_on_c, 5, 69, 0
7, 8560, Note_on_c, 5, 62, 0
7, 8636, Control_c, 5, 64, 0
7, 8640, Note_on_c, 5, 45, 95
7, 8640, Note_on_c, 5, 61, 95
7, 8640, Note_on_c, 5, 69, 95
7, 8640, Note_on_c, 5, 64, 95
7, 8710, Control_c, 5, 64, 127
7, 8800, Note_on_c, 5, 69, 0
7, 8840, Note_on_c, 5, 64, 0
7, 8840, Note_on_c, 5, 61, 0
7, 8920, Note_on_c, 5, 57, 95
7, 8923, Control_c, 5, 64, 0
7, 8960, Note_on_c, 5, 66, 95
7, 8960, Note_on_c, 5, 62, 95
7, 8999, Note_on_c, 5, 62, 0
7, 8999, Note_on_c, 5, 66, 0
7, 9000, Note_on_c, 5, 61, 95
7, 9000, Note_on_c, 5, 64, 95
7, 9132, Control_c, 5, 64, 127
7, 9200, Note_on_c, 5, 64, 0
7, 9200, Note_on_c, 5, 45, 0
7, 9200, Note_on_c, 5, 57, 0
7, 9200, Note_on_c, 5, 61, 0
7, 9280, Note_on_c, 5, 64, 95
7, 9283, Control_c, 5, 64, 0
7, 9319, Note_on_c, 5, 64, 0
7, 9320, Note_on_c, 5, 66, 95
7, 9320, Control_c, 5, 64, 127
7, 9356, Control_c, 5, 64, 0
7, 9359, Note_on_c, 5, 66, 0
7, 9360, Note_on_c, 5, 61, 95
7, 9360, Note_on_c, 5, 69, 95
7, 9360, Note_on_c, 5, 64, 95
7, 9360, Note_on_c, 5, 45, 95
7, 9424, Control_c, 5, 64, 127
7, 9440, Note_on_c, 5, 45, 0
7, 9480, Note_on_c, 5, 61, 0
7, 9480, Note_on_c, 5, 69, 0
7, 9480, Note_on_c, 5, 64, 0
7, 9596, Control_c, 5, 64, 0
7, 9600, Note_on_c, 5, 49, 95
7, 9600, Note_on_c, 5, 61, 95
7, 9639, Note_on_c, 5, 61, 0
7, 9639, Note_on_c, 5, 49, 0
7, 9640, Note_on_c, 5, 62, 95
7, 9640, Note_on_c, 5, 50, 95
7, 9643, Control_c, 5, 64, 127
7, 9679, Note_on_c, 5, 50, 0
7, 9679, Note_on_c, 5, 62, 0
7, 9680, Note_on_c, 5, 63, 95
7, 9680, Note_on_c, 5, 51, 95
7, 9711, Control_c, 5, 64, 0
7, 9719, Note_on_c, 5, 51, 0
7, 9719, Note_on_c, 5, 63, 0
7, 9720, Note_on_c, 5, 68, 95
7, 9720, Note_on_c, 5, 59, 95
7, 9720, Note_on_c, 5, 64, 95
7, 9720, Note_on_c, 5, 52, 95
7, 9941, Control_c, 5, 64, 127
7, 9960, Note_on_c, 5, 64, 0
7, 9960, Note_on_c, 5, 68, 0
7, 9960, Note_on_c, 5, 59, 0
7, 10000, Note_on_c, 5, 52, 0
7, 10055, Control_c, 5, 64, 0
7, 10080, Note_on_c, 5, 45, 95
7, 10080, Note_on_c, 5, 64, 95
7, 10080, Note_on_c, 5, 61, 95
7, 10080, Note_on_c, 5, 57, 95
7, 10144, Control_c, 5, 64, 127
7, 10240, Note_on_c, 5, 57, 0
7, 10264, Control_c, 5, 64, 0
7, 10280, Note_on_c, 5, 61, 0
7, 10280, Note_on_c, 5, 64, 0
7, 10280, Note_on_c, 5, 57, 95
7, 10319, Note_on_c, 5, 57, 0
7, 10320, Note_on_c, 5, 45, 0
7, 10320, Note_on_c, 5, 61, 95
7, 10320, Note_on_c, 5, 64, 95
7, 10322, Control_c, 5, 64, 127
7, 10359, Note_on_c, 5, 64, 0
7, 10359, Note_on_c, 5, 61, 0
7, 10400, Note_on_c, 5, 62, 95
7, 10400, Note_on_c, 5, 66, 95
7, 10426, Control_c, 5, 64, 0
7, 10439, Note_on_c, 5, 66, 0
7, 10439, Note_on_c, 5, 62, 0
7, 10440, Note_on_c, 5, 40, 95
7, 10440, Note_on_c, 5, 61, 95
7, 10440, Note_on_c, 5, 64, 95
7, 10463, Control_c, 5, 64, 127
7, 10479, Note_on_c, 5, 64, 0
7, 10479, Note_on_c, 5, 61, 0
7, 10479, Note_on_c, 5, 40, 0
7, 10556, Control_c, 5, 64, 0
7, 10560, Note_on_c, 5, 63, 95
7, 10560, Note_on_c, 5, 60, 95
7, 10560, Note_on_c, 5, 42, 95
7, 10588, Control_c, 5, 64, 127
7, 10599, Note_on_c, 5, 42, 0
7, 10599, Note_on_c, 5, 60, 0
7, 10599, Note_on_c, 5, 63, 0
7, 10676, Control_c, 5, 64, 0
7, 10680, Note_on_c, 5, 62, 95
7, 10680, Note_on_c, 5, 59, 95
7, 10680, Note_on_c, 5, 44, 95
7, 10702, Control_c, 5, 64, 127
7, 10719, Note_on_c, 5, 44, 0
7, 10719, Note_on_c, 5, 59, 0
7, 10719, Note_on_c, 5, 62, 0
7, 10800, Note_on_c, 5, 64, 95
7, 10800, Note_on_c, 5, 45, 95
7, 10800, Note_on_c, 5, 61, 95
7, 10800, Note_on_c, 5, 69, 95
7, 10802, Control_c, 5, 64, 0
7, 10901, Control_c, 5, 64, 127
7, 10920, Note_on_c, 5, 45, 0
7, 10960, Note_on_c, 5, 64, 0
7, 10960, Note_on_c, 5, 61, 0
7, 10960, Note_on_c, 5, 69, 0
7, 11040, Note_on_c, 5, 61, 95
7, 11040, Note_on_c, 5, 49, 95
7, 11047, Control_c, 5, 64, 0
7, 11079, Note_on_c, 5, 49, 0
7, 11079, Note_on_c, 5, 61, 0
7, 11080, Note_on_c, 5, 62, 95
7, 11080, Note_on_c, 5, 50, 95
7, 11099, Control_c, 5, 64, 127
7, 11119, Note_on_c, 5, 50, 0
7, 11119, Note_on_c, 5, 62, 0
7, 11120, Note_on_c, 5, 51, 95
7, 11120, Note_on_c, 5, 63, 95
7, 11151, Control_c, 5, 64, 0
7, 11159, Note_on_c, 5, 63, 0
7, 11159, Note_on_c, 5, 51, 0
7, 11160, Note_on_c, 5, 68, 95
7, 11160, Note_on_c, 5, 64, 95
7, 11160, Note_on_c, 5, 52, 95
7, 11160, Note_on_c, 5, 59, 95
7, 11376, Control_c, 5, 64, 127
7, 11440, Note_on_c, 5, 59, 0
7, 11440, Note_on_c, 5, 68, 0
7, 11440, Note_on_c, 5, 64, 0
7, 11440, Note_on_c, 5, 52, 0
7, 11506, Control_c, 5, 64, 0
7, 11520, Note_on_c, 5, 45, 95
7, 11520, Note_on_c, 5, 69, 95
7, 11520, Note_on_c, 5, 64, 95
7, 11520, Note_on_c, 5, 61, 95
7, 11751, Control_c, 5, 64, 127
7, 11840, Note_on_c, 5, 61, 0
7, 11840, Note_on_c, 5, 45, 0
7, 11840, Note_on_c, 5, 69, 0
7, 11840, Note_on_c, 5, 64, 0
7, 11880, Note_on_c, 5, 61, 95
7, 11880, Note_on_c, 5, 45, 95
7, 11882, Control_c, 5, 64, 0
7, 11918, Control_c, 5, 64, 127
7, 11960, Note_on_c, 5, 45, 0
7, 11960, Note_on_c, 5, 61, 0
7, 11996, Control_c, 5, 64, 0
7, 12000, Note_on_c, 5, 62, 95
7, 12000, Note_on_c, 5, 47, 95
7, 12120, Note_on_c, 5, 47, 0
7, 12120, Note_on_c, 5, 62, 0
7, 12120, Note_on_c, 5, 64, 95
7, 12120, Note_on_c, 5, 49, 95
7, 12132, Control_c, 5, 64, 127
7, 12159, Note_on_c, 5, 49, 0
7, 12159, Note_on_c, 5, 64, 0
7, 12232, Control_c, 5, 64, 0
7, 12240, Note_on_c, 5, 50, 95
7, 12240, Note_on_c, 5, 66, 95
7, 12240, Note_on_c, 5, 69, 95
7, 12240, Note_on_c, 5, 62, 95
7, 12361, Control_c, 5, 64, 127
7, 12400, Note_on_c, 5, 62, 0
7, 12440, Note_on_c, 5, 50, 0
7, 12440, Note_on_c, 5, 66, 0
7, 12440, Note_on_c, 5, 69, 0
7, 12520, Note_on_c, 5, 66, 95
7, 12520, Note_on_c, 5, 50, 95
7, 12524, Control_c, 5, 64, 0
7, 12559, Note_on_c, 5, 50, 0
7, 12559, Note_on_c, 5, 66, 0
7, 12560, Note_on_c, 5, 67, 95
7, 12560, Note_on_c, 5, 51, 95
7, 12560, Control_c, 5, 64, 127
7, 12596, Control_c, 5, 64, 0
7, 12599, Note_on_c, 5, 51, 0
7, 12599, Note_on_c, 5, 67, 0
7, 12600, Note_on_c, 5, 71, 95
7, 12600, Note_on_c, 5, 52, 95
7, 12600, Note_on_c, 5, 64, 95
7, 12600, Note_on_c, 5, 68, 95
7, 12659, Control_c, 5, 64, 127
7, 12680, Note_on_c, 5, 68, 0
7, 12680, Note_on_c, 5, 71, 0
7, 12680, Note_on_c, 5, 52, 0
7, 12680, Note_on_c, 5, 64, 0
7, 12960, Note_on_c, 5, 45, 95
7, 12960, Note_on_c, 5, 69, 95
7, 12960, Note_on_c, 5, 61, 95
7, 12960, Note_on_c, 5, 64, 95
7, 12962, Control_c, 5, 64, 0
7, 13181, Control_c, 5, 64, 127
7, 13200, Note_on_c, 5, 64, 0
7, 13200, Note_on_c, 5, 45, 0
7, 13200, Note_on_c, 5, 69, 0
7, 13200, Note_on_c, 5, 61, 0
7, 13320, Note_on_c, 5, 56, 95
7, 13320, Note_on_c, 5, 56, 0
7, 13320, Note_on_c, 5, 56, 95
7, 13320, Note_on_c, 5, 40, 95
7, 13322, Control_c, 5, 64, 0
7, 13440, Note_on_c, 5, 40, 0
7, 13440, Note_on_c, 5, 56, 0
7, 13440, Note_on_c, 5, 57, 95
7, 13440, Note_on_c, 5, 42, 95
7, 13560, Note_on_c, 5, 42, 0
7, 13560, Note_on_c, 5, 57, 0
7, 13560, Note_on_c, 5, 44, 95
7, 13560, Note_on_c, 5, 59, 95
7, 13572, Control_c, 5, 64, 127
7, 13661, Control_c, 5, 64, 0
7, 13680, Note_on_c, 5, 59, 0
7, 13680, Note_on_c, 5, 44, 0
7, 13680, Note_on_c, 5, 69, 95
7, 13680, Note_on_c, 5, 64, 95
7, 13680, Note_on_c, 5, 61, 95
7, 13680, Note_on_c, 5, 45, 95
7, 13906, Control_c, 5, 64, 127
7, 13960, Note_on_c, 5, 45, 0
7, 13960, Note_on_c, 5, 69, 0
7, 13960, Note_on_c, 5, 64, 0
7, 13960, Note_on_c, 5, 61, 0
7, 14037, Control_c, 5, 64, 0
7, 14040, Note_on_c, 5, 45, 95
7, 14040, Note_on_c, 5, 61, 95
7, 14062, Control_c, 5, 64, 127
7, 14079, Note_on_c, 5, 45, 0
7, 14120, Note_on_c, 5, 61, 0
7, 14157, Control_c, 5, 64, 0
7, 14160, Note_on_c, 5, 47, 95
7, 14160, Note_on_c, 5, 62, 95
7, 14280, Note_on_c, 5, 62, 0
7, 14280, Note_on_c, 5, 47, 0
7, 14280, Note_on_c, 5, 64, 95
7, 14280, Note_on_c, 5, 49, 95
7, 14329, Control_c, 5, 64, 127
7, 14360, Note_on_c, 5, 49, 0
7, 14360, Note_on_c, 5, 64, 0
7, 14391, Control_c, 5, 64, 0
7, 14400, Note_on_c, 5, 50, 95
7, 14400, Note_on_c, 5, 69, 95
7, 14400, Note_on_c, 5, 66, 95
7, 14400, Note_on_c, 5, 62, 95
7, 14680, Note_on_c, 5, 62, 0
7, 14680, Note_on_c, 5, 66, 0
7, 14680, Note_on_c, 5, 69, 0
7, 14680, Note_on_c, 5, 62, 95
7, 14720, Note_on_c, 5, 71, 95
7, 14720, Note_on_c, 5, 67, 95
7, 14759, Note_on_c, 5, 67, 0
7, 14759, Note_on_c, 5, 71, 0
7, 14760, Note_on_c, 5, 50, 0
7, 14760, Note_on_c, 5, 66, 95
7, 14760, Note_on_c, 5, 69, 95
7, 14760, Note_on_c, 5, 50, 95
7, 15000, Note_on_c, 5, 62, 0
7, 15040, Note_on_c, 5, 66, 0
7, 15040, Note_on_c, 5, 69, 0
7, 15040, Note_on_c, 5, 50, 0
7, 15040, Note_on_c, 5, 64, 95
7, 15070, Control_c, 5, 64, 127
7, 15079, Note_on_c, 5, 64, 0
7, 15080, Note_on_c, 5, 66, 95
7, 15111, Control_c, 5, 64, 0
7, 15119, Note_on_c, 5, 66, 0
7, 15120, Note_on_c, 5, 61, 95
7, 15120, Note_on_c, 5, 45, 95
7, 15120, Note_on_c, 5, 64, 95
7, 15120, Note_on_c, 5, 69, 95
7, 15211, Control_c, 5, 64, 127
7, 15240, Note_on_c, 5, 45, 0
7, 15280, Note_on_c, 5, 61, 0
7, 15280, Note_on_c, 5, 64, 0
7, 15280, Note_on_c, 5, 69, 0
7, 15357, Control_c, 5, 64, 0
7, 15360, Note_on_c, 5, 49, 95
7, 15360, Note_on_c, 5, 61, 95
7, 15399, Note_on_c, 5, 61, 0
7, 15399, Note_on_c, 5, 49, 0
7, 15400, Note_on_c, 5, 62, 95
7, 15400, Note_on_c, 5, 50, 95
7, 15414, Control_c, 5, 64, 127
7, 15439, Note_on_c, 5, 50, 0
7, 15439, Note_on_c, 5, 62, 0
7, 15440, Note_on_c, 5, 51, 95
7, 15440, Note_on_c, 5, 63, 95
7, 15471, Control_c, 5, 64, 0
7, 15479, Note_on_c, 5, 63, 0
7, 15479, Note_on_c, 5, 51, 0
7, 15480, Note_on_c, 5, 52, 95
7, 15480, Note_on_c, 5, 68, 95
7, 15480, Note_on_c, 5, 64, 95
7, 15480, Note_on_c, 5, 59, 95
7, 15748, Control_c, 5, 64, 127
7, 15760, Note_on_c, 5, 59, 0
7, 15760, Note_on_c, 5, 64, 0
7, 15760, Note_on_c, 5, 68, 0
7, 15800, Note_on_c, 5, 52, 0
7, 15832, Control_c, 5, 64, 0
7, 15840, Note_on_c, 5, 45, 95
7, 15840, Note_on_c, 5, 69, 95
7, 15840, Note_on_c, 5, 64, 95
7, 15840, Note_on_c, 5, 61, 95
7, 15905, Control_c, 5, 64, 127
7, 15920, Note_on_c, 5, 61, 0
7, 15920, Note_on_c, 5, 64, 0
7, 15920, Note_on_c, 5, 69, 0
7, 16034, Control_c, 5, 64, 0
7, 16040, Note_on_c, 5, 57, 95
7, 16079, Note_on_c, 5, 57, 0
7, 16080, Note_on_c, 5, 61, 95
7, 16080, Note_on_c, 5, 64, 95
7, 16088, Control_c, 5, 64, 127
7, 16119, Note_on_c, 5, 64, 0
7, 16119, Note_on_c, 5, 61, 0
7, 16160, Note_on_c, 5, 62, 95
7, 16160, Note_on_c, 5, 66, 95
7, 16186, Control_c, 5, 64, 0
7, 16199, Note_on_c, 5, 66, 0
7, 16199, Note_on_c, 5, 62, 0
7, 16200, Note_on_c, 5, 45, 0
7, 16200, Note_on_c, 5, 64, 95
7, 16200, Note_on_c, 5, 61, 95
7, 16249, Control_c, 5, 64, 127
7, 16280, Note_on_c, 5, 61, 0
7, 16280, Note_on_c, 5, 64, 0
7, 16316, Control_c, 5, 64, 0
7, 16320, Note_on_c, 5, 63, 95
7, 16320, Note_on_c, 5, 60, 95
7, 16320, Note_on_c, 5, 42, 95
7, 16353, Control_c, 5, 64, 127
7, 16359, Note_on_c, 5, 42, 0
7, 16359, Note_on_c, 5, 60, 0
7, 16359, Note_on_c, 5, 63, 0
7, 16437, Control_c, 5, 64, 0
7, 16440, Note_on_c, 5, 62, 95
7, 16440, Note_on_c, 5, 59, 95
7, 16440, Note_on_c, 5, 44, 95
7, 16520, Note_on_c, 5, 44, 0
7, 16520, Note_on_c, 5, 59, 0
7, 16520, Note_on_c, 5, 62, 0
7, 16560, Note_on_c, 5, 45, 95
7, 16560, Note_on_c, 5, 61, 95
7, 16560, Note_on_c, 5, 64, 95
7, 16560, Note_on_c, 5, 69, 95
7, 16679, Note_on_c, 5, 69, 0
7, 16679, Note_on_c, 5, 45, 0
7, 16679, Note_on_c, 5, 61, 0
7, 16679, Note_on_c, 5, 64, 0
7, 16680, Note_on_c, 5, 45, 71
7, 16680, Note_on_c, 5, 61, 65
7, 16680, Note_on_c, 5, 64, 74
7, 16680, Note_on_c, 5, 69, 59
7, 16744, Control_c, 5, 64, 127
7, 16880, Note_on_c, 5, 69, 0
7, 16880, Note_on_c, 5, 45, 0
7, 16880, Note_on_c, 5, 61, 0
7, 16880, Note_on_c, 5, 64, 0
7, 16880, Note_on_c, 5, 69, 95
7, 16880, Note_on_c, 5, 45, 95
7, 16880, Note_on_c, 5, 64, 95
7, 16880, Note_on_c, 5, 61, 95
7, 16919, Note_on_c, 5, 61, 0
7, 16919, Note_on_c, 5, 69, 0
7, 16919, Note_on_c, 5, 45, 0
7, 16919, Note_on_c, 5, 64, 0
7, 16920, Note_on_c, 5, 45, 95
7, 16920, Note_on_c, 5, 64, 95
7, 16920, Note_on_c, 5, 69, 95
7, 16920, Note_on_c, 5, 61, 95
7, 16959, Note_on_c, 5, 61, 0
7, 16959, Note_on_c, 5, 45, 0
7, 16959, Note_on_c, 5, 64, 0
7, 16959, Note_on_c, 5, 69, 0
7, 17036, Control_c, 5, 64, 0
7, 17040, Note_on_c, 5, 62, 95
7, 17040, Note_on_c, 5, 47, 95
7, 17160, Note_on_c, 5, 47, 0
7, 17160, Note_on_c, 5, 62, 0
7, 17160, Note_on_c, 5, 64, 95
7, 17160, Note_on_c, 5, 49, 95
7, 17208, Control_c, 5, 64, 127
7, 17240, Note_on_c, 5, 49, 0
7, 17240, Note_on_c, 5, 64, 0
7, 17276, Control_c, 5, 64, 0
7, 17280, Note_on_c, 5, 62, 95
7, 17280, Note_on_c, 5, 66, 95
7, 17280, Note_on_c, 5, 69, 95
7, 17280, Note_on_c, 5, 50, 95
7, 17600, Note_on_c, 5, 69, 0
7, 17600, Note_on_c, 5, 62, 0
7, 17600, Note_on_c, 5, 66, 0
7, 17640, Note_on_c, 5, 66, 95
7, 17640, Note_on_c, 5, 69, 95
7, 17829, Control_c, 5, 64, 127
7, 17880, Note_on_c, 5, 69, 0
7, 17880, Note_on_c, 5, 66, 0
7, 17880, Note_on_c, 5, 50, 0
7, 17920, Note_on_c, 5, 64, 95
7, 17959, Note_on_c, 5, 64, 0
7, 17960, Note_on_c, 5, 66, 95
7, 17996, Control_c, 5, 64, 0
7, 17999, Note_on_c, 5, 66, 0
7, 18000, Note_on_c, 5, 69, 95
7, 18000, Note_on_c, 5, 64, 95
7, 18000, Note_on_c, 5, 61, 95
7, 18000, Note_on_c, 5, 45, 95
7, 18111, Control_c, 5, 64, 127
7, 18120, Note_on_c, 5, 45, 0
7, 18120, Note_on_c, 5, 69, 0
7, 18120, Note_on_c, 5, 64, 0
7, 18120, Note_on_c, 5, 61, 0
7, 18231, Control_c, 5, 64, 0
7, 18240, Note_on_c, 5, 61, 95
7, 18240, Note_on_c, 5, 49, 95
7, 18279, Note_on_c, 5, 49, 0
7, 18279, Note_on_c, 5, 61, 0
7, 18280, Note_on_c, 5, 62, 95
7, 18280, Note_on_c, 5, 50, 95
7, 18288, Control_c, 5, 64, 127
7, 18319, Note_on_c, 5, 50, 0
7, 18319, Note_on_c, 5, 62, 0
7, 18320, Note_on_c, 5, 63, 95
7, 18320, Note_on_c, 5, 51, 95
7, 18356, Control_c, 5, 64, 0
7, 18359, Note_on_c, 5, 51, 0
7, 18359, Note_on_c, 5, 63, 0
7, 18360, Note_on_c, 5, 68, 95
7, 18360, Note_on_c, 5, 59, 95
7, 18360, Note_on_c, 5, 52, 95
7, 18360, Note_on_c, 5, 64, 95
7, 18476, Control_c, 5, 64, 127
7, 18600, Note_on_c, 5, 64, 0
7, 18600, Note_on_c, 5, 68, 0
7, 18600, Note_on_c, 5, 59, 0
7, 18600, Note_on_c, 5, 52, 0
7, 18706, Control_c, 5, 64, 0
7, 18720, Note_on_c, 5, 69, 95
7, 18720, Note_on_c, 5, 64, 95
7, 18720, Note_on_c, 5, 61, 95
7, 18720, Note_on_c, 5, 45, 95
7, 18773, Control_c, 5, 64, 127
7, 18840, Note_on_c, 5, 61, 0
7, 18840, Note_on_c, 5, 69, 0
7, 18840, Note_on_c, 5, 64, 0
7, 18914, Control_c, 5, 64, 0
7, 18920, Note_on_c, 5, 57, 95
7, 18959, Note_on_c, 5, 57, 0
7, 18960, Note_on_c, 5, 61, 95
7, 18960, Note_on_c, 5, 64, 95
7, 18967, Control_c, 5, 64, 127
7, 18999, Note_on_c, 5, 64, 0
7, 18999, Note_on_c, 5, 61, 0
7, 19040, Note_on_c, 5, 66, 95
7, 19040, Note_on_c, 5, 62, 95
7, 19076, Control_c, 5, 64, 0
7, 19079, Note_on_c, 5, 62, 0
7, 19079, Note_on_c, 5, 66, 0
7, 19080, Note_on_c, 5, 45, 0
7, 19080, Note_on_c, 5, 40, 95
7, 19080, Note_on_c, 5, 64, 95
7, 19080, Note_on_c, 5, 61, 95
7, 19102, Control_c, 5, 64, 127
7, 19196, Control_c, 5, 64, 0
7, 19199, Note_on_c, 5, 61, 0
7, 19199, Note_on_c, 5, 64, 0
7, 19199, Note_on_c, 5, 40, 0
7, 19200, Note_on_c, 5, 63, 95
7, 19200, Note_on_c, 5, 60, 95
7, 19200, Note_on_c, 5, 42, 95
7, 19243, Control_c, 5, 64, 127
7, 19319, Note_on_c, 5, 42, 0
7, 19319, Note_on_c, 5, 60, 0
7, 19319, Note_on_c, 5, 63, 0
7, 19320, Note_on_c, 5, 62, 95
7, 19320, Note_on_c, 5, 59, 95
7, 19320, Note_on_c, 5, 44, 95
7, 19321, Control_c, 5, 64, 0
7, 19348, Control_c, 5, 64, 127
7, 19436, Control_c, 5, 64, 0
7, 19439, Note_on_c, 5, 44, 0
7, 19439, Note_on_c, 5, 59, 0
7, 19439, Note_on_c, 5, 62, 0
7, 19440, Note_on_c, 5, 45, 95
7, 19440, Note_on_c, 5, 64, 95
7, 19440, Note_on_c, 5, 61, 95
7, 19440, Note_on_c, 5, 57, 95
7, 19677, Control_c, 5, 64, 127
7, 19720, Note_on_c, 5, 57, 0
7, 19720, Note_on_c, 5, 45, 0
7, 19720, Note_on_c, 5, 64, 0
7, 19720, Note_on_c, 5, 61, 0
7, 19791, Control_c, 5, 64, 0
7, 19800, Note_on_c, 5, 66, 96
7, 19800, Note_on_c, 5, 50, 96
7, 19800, Note_on_c, 5, 62, 96
7, 19800, Note_on_c, 5, 57, 96
7, 19875, Control_c, 5, 64, 127
7, 19920, Note_on_c, 5, 50, 0
7, 20040, Note_on_c, 5, 66, 0
7, 20040, Note_on_c, 5, 62, 0
7, 20040, Note_on_c, 5, 57, 0
7, 20151, Control_c, 5, 64, 0
7, 20160, Note_on_c, 5, 64, 96
7, 20160, Note_on_c, 5, 45, 96
7, 20160, Note_on_c, 5, 61, 96
7, 20160, Note_on_c, 5, 57, 96
7, 20440, Note_on_c, 5, 57, 0
7, 20440, Note_on_c, 5, 61, 0
7, 20440, Note_on_c, 5, 64, 0
7, 20440, Note_on_c, 5, 57, 96
7, 20480, Note_on_c, 5, 66, 96
7, 20480, Note_on_c, 5, 62, 96
7, 20519, Note_on_c, 5, 62, 0
7, 20519, Note_on_c, 5, 66, 0
7, 20520, Note_on_c, 5, 64, 96
7, 20520, Note_on_c, 5, 61, 96
7, 20756, Control_c, 5, 64, 127
7, 20800, Note_on_c, 5, 61, 0
7, 20800, Note_on_c, 5, 45, 0
7, 20800, Note_on_c, 5, 57, 0
7, 20800, Note_on_c, 5, 64, 0
7, 20871, Control_c, 5, 64, 0
7, 20880, Note_on_c, 5, 45, 96
7, 20880, Note_on_c, 5, 64, 96
7, 20880, Note_on_c, 5, 61, 96
7, 20880, Note_on_c, 5, 57, 96
7, 20965, Control_c, 5, 64, 127
7, 21000, Note_on_c, 5, 57, 0
7, 21000, Note_on_c, 5, 45, 0
7, 21000, Note_on_c, 5, 64, 0
7, 21000, Note_on_c, 5, 61, 0
7, 21120, Note_on_c, 5, 49, 96
7, 21120, Note_on_c, 5, 61, 96
7, 21122, Control_c, 5, 64, 0
7, 21159, Note_on_c, 5, 61, 0
7, 21159, Note_on_c, 5, 49, 0
7, 21160, Note_on_c, 5, 50, 96
7, 21160, Note_on_c, 5, 62, 96
7, 21179, Control_c, 5, 64, 127
7, 21199, Note_on_c, 5, 62, 0
7, 21199, Note_on_c, 5, 50, 0
7, 21200, Note_on_c, 5, 51, 96
7, 21200, Note_on_c, 5, 63, 96
7, 21200, Note_on_c, 5, 62, 96
7, 21239, Note_on_c, 5, 62, 0
7, 21239, Note_on_c, 5, 63, 0
7, 21239, Note_on_c, 5, 51, 0
7, 21240, Note_on_c, 5, 52, 96
7, 21240, Note_on_c, 5, 59, 96
7, 21240, Note_on_c, 5, 64, 96
7, 21242, Control_c, 5, 64, 0
7, 21440, Control_c, 5, 64, 127
7, 21480, Note_on_c, 5, 64, 0
7, 21480, Note_on_c, 5, 59, 0
7, 21480, Note_on_c, 5, 52, 0
7, 21570, Control_c, 5, 64, 0
7, 21600, Note_on_c, 5, 45, 96
7, 21600, Note_on_c, 5, 69, 96
7, 21600, Note_on_c, 5, 64, 96
7, 21600, Note_on_c, 5, 61, 96
7, 21747, Control_c, 5, 64, 127
7, 21840, Note_on_c, 5, 61, 0
7, 21840, Note_on_c, 5, 64, 0
7, 21840, Note_on_c, 5, 69, 0
7, 21920, Note_on_c, 5, 45, 0
7, 21960, Note_on_c, 5, 56, 96
7, 21960, Note_on_c, 5, 40, 96
7, 21961, Control_c, 5, 64, 0
7, 21998, Control_c, 5, 64, 127
7, 21999, Note_on_c, 5, 40, 0
7, 21999, Note_on_c, 5, 56, 0
7, 22076, Control_c, 5, 64, 0
7, 22080, Note_on_c, 5, 57, 96
7, 22080, Note_on_c, 5, 42, 96
7, 22200, Note_on_c, 5, 42, 0
7, 22200, Note_on_c, 5, 57, 0
7, 22200, Note_on_c, 5, 59, 96
7, 22200, Note_on_c, 5, 44, 96
7, 22207, Control_c, 5, 64, 127
7, 22239, Note_on_c, 5, 44, 0
7, 22239, Note_on_c, 5, 59, 0
7, 22316, Control_c, 5, 64, 0
7, 22320, Note_on_c, 5, 45, 96
7, 22320, Note_on_c, 5, 64, 96
7, 22320, Note_on_c, 5, 69, 96
7, 22320, Note_on_c, 5, 61, 96
7, 22504, Control_c, 5, 64, 127
7, 22520, Note_on_c, 5, 61, 0
7, 22520, Note_on_c, 5, 45, 0
7, 22520, Note_on_c, 5, 64, 0
7, 22520, Note_on_c, 5, 69, 0
7, 22598, Control_c, 5, 64, 0
7, 22600, Note_on_c, 5, 62, 96
7, 22600, Note_on_c, 5, 47, 96
7, 22639, Note_on_c, 5, 47, 0
7, 22639, Note_on_c, 5, 62, 0
7, 22640, Note_on_c, 5, 64, 96
7, 22640, Note_on_c, 5, 49, 96
7, 22640, Control_c, 5, 64, 127
7, 22679, Note_on_c, 5, 49, 0
7, 22679, Note_on_c, 5, 64, 0
7, 22680, Note_on_c, 5, 50, 96
7, 22680, Note_on_c, 5, 69, 96
7, 22680, Note_on_c, 5, 62, 96
7, 22680, Note_on_c, 5, 66, 96
7, 22682, Control_c, 5, 64, 0
7, 22922, Control_c, 5, 64, 127
7, 22960, Note_on_c, 5, 66, 0
7, 22960, Note_on_c, 5, 50, 0
7, 22960, Note_on_c, 5, 69, 0
7, 22960, Note_on_c, 5, 62, 0
7, 23036, Control_c, 5, 64, 0
7, 23040, Note_on_c, 5, 45, 96
7, 23040, Note_on_c, 5, 61, 96
7, 23040, Note_on_c, 5, 69, 96
7, 23040, Note_on_c, 5, 64, 96
7, 23110, Control_c, 5, 64, 127
7, 23200, Note_on_c, 5, 69, 0
7, 23240, Note_on_c, 5, 64, 0
7, 23240, Note_on_c, 5, 61, 0
7, 23320, Note_on_c, 5, 57, 96
7, 23323, Control_c, 5, 64, 0
7, 23360, Note_on_c, 5, 66, 96
7, 23360, Note_on_c, 5, 62, 96
7, 23399, Note_on_c, 5, 62, 0
7, 23399, Note_on_c, 5, 66, 0
7, 23400, Note_on_c, 5, 61, 96
7, 23400, Note_on_c, 5, 64, 96
7, 23532, Control_c, 5, 64, 127
7, 23600, Note_on_c, 5, 64, 0
7, 23600, Note_on_c, 5, 45, 0
7, 23600, Note_on_c, 5, 57, 0
7, 23600, Note_on_c, 5, 61, 0
7, 23680, Note_on_c, 5, 64, 96
7, 23683, Control_c, 5, 64, 0
7, 23719, Note_on_c, 5, 64, 0
7, 23720, Note_on_c, 5, 66, 96
7, 23720, Control_c, 5, 64, 127
7, 23756, Control_c, 5, 64, 0
7, 23759, Note_on_c, 5, 66, 0
7, 23760, Note_on_c, 5, 61, 96
7, 23760, Note_on_c, 5, 69, 96
7, 23760, Note_on_c, 5, 64, 96
7, 23760, Note_on_c, 5, 45, 96
7, 23824, Control_c, 5, 64, 127
7, 23840, Note_on_c, 5, 45, 0
7, 23880, Note_on_c, 5, 61, 0
7, 23880, Note_on_c, 5, 69, 0
7, 23880, Note_on_c, 5, 64, 0
7, 23996, Control_c, 5, 64, 0
7, 24000, Note_on_c, 5, 49, 96
7, 24000, Note_on_c, 5, 61, 96
7, 24039, Note_on_c, 5, 61, 0
7, 24039, Note_on_c, 5, 49, 0
7, 24040, Note_on_c, 5, 62, 96
7, 24040, Note_on_c, 5, 50, 96
7, 24043, Control_c, 5, 64, 127
7, 24079, Note_on_c, 5, 50, 0
7, 24079, Note_on_c, 5, 62, 0
7, 24080, Note_on_c, 5, 63, 96
7, 24080, Note_on_c, 5, 51, 96
7, 24111, Control_c, 5, 64, 0
7, 24119, Note_on_c, 5, 51, 0
7, 24119, Note_on_c, 5, 63, 0
7, 24120, Note_on_c, 5, 68, 96
7, 24120, Note_on_c, 5, 59, 96
7, 24120, Note_on_c, 5, 64, 96
7, 24120, Note_on_c, 5, 52, 96
7, 24341, Control_c, 5, 64, 127
7, 24360, Note_on_c, 5, 64, 0
7, 24360, Note_on_c, 5, 68, 0
7, 24360, Note_on_c, 5, 59, 0
7, 24400, Note_on_c, 5, 52, 0
7, 24455, Control_c, 5, 64, 0
7, 24480, Note_on_c, 5, 45, 96
7, 24480, Note_on_c, 5, 64, 96
7, 24480, Note_on_c, 5, 61, 96
7, 24480, Note_on_c, 5, 57, 96
7, 24544, Control_c, 5, 64, 127
7, 24640, Note_on_c, 5, 57, 0
7, 24664, Control_c, 5, 64, 0
7, 24680, Note_on_c, 5, 61, 0
7, 24680, Note_on_c, 5, 64, 0
7, 24680, Note_on_c, 5, 57, 96
7, 24719, Note_on_c, 5, 57, 0
7, 24720, Note_on_c, 5, 45, 0
7, 24720, Note_on_c, 5, 61, 96
7, 24720, Note_on_c, 5, 64, 96
7, 24722, Control_c, 5, 64, 127
7, 24759, Note_on_c, 5, 64, 0
7, 24759, Note_on_c, 5, 61, 0
7, 24800, Note_on_c, 5, 62, 96
7, 24800, Note_on_c, 5, 66, 96
7, 24826, Control_c, 5, 64, 0
7, 24839, Note_on_c, 5, 66, 0
7, 24839, Note_on_c, 5, 62, 0
7, 24840, Note_on_c, 5, 40, 96
7, 24840, Note_on_c, 5, 61, 96
7, 24840, Note_on_c, 5, 64, 96
7, 24863, Control_c, 5, 64, 127
7, 24879, Note_on_c, 5, 64, 0
7, 24879, Note_on_c, 5, 61, 0
7, 24879, Note_on_c, 5, 40, 0
7, 24956, Control_c, 5, 64, 0
7, 24960, Note_on_c, 5, 63, 96
7, 24960, Note_on_c, 5, 60, 96
7, 24960, Note_on_c, 5, 42, 96
7, 24988, Control_c, 5, 64, 127
7, 24999, Note_on_c, 5, 42, 0
7, 24999, Note_on_c, 5, 60, 0
7, 24999, Note_on_c, 5, 63, 0
7, 25076, Control_c, 5, 64, 0
7, 25080, Note_on_c, 5, 62, 96
7, 25080, Note_on_c, 5, 59, 96
7, 25080, Note_on_c, 5, 44, 96
7, 25102, Control_c, 5, 64, 127
7, 25119, Note_on_c, 5, 44, 0
7, 25119, Note_on_c, 5, 59, 0
7, 25119, Note_on_c, 5, 62, 0
7, 25200, Note_on_c, 5, 64, 96
7, 25200, Note_on_c, 5, 45, 96
7, 25200, Note_on_c, 5, 61, 96
7, 25200, Note_on_c, 5, 69, 96
7, 25202, Control_c, 5, 64, 0
7, 25301, Control_c, 5, 64, 127
7, 25320, Note_on_c, 5, 45, 0
7, 25360, Note_on_c, 5, 64, 0
7, 25360, Note_on_c, 5, 61, 0
7, 25360, Note_on_c, 5, 69, 0
7, 25440, Note_on_c, 5, 61, 96
7, 25440, Note_on_c, 5, 49, 96
7, 25447, Control_c, 5, 64, 0
7, 25479, Note_on_c, 5, 49, 0
7, 25479, Note_on_c, 5, 61, 0
7, 25480, Note_on_c, 5, 62, 96
7, 25480, Note_on_c, 5, 50, 96
7, 25499, Control_c, 5, 64, 127
7, 25519, Note_on_c, 5, 50, 0
7, 25519, Note_on_c, 5, 62, 0
7, 25520, Note_on_c, 5, 51, 96
7, 25520, Note_on_c, 5, 63, 96
7, 25551, Control_c, 5, 64, 0
7, 25559, Note_on_c, 5, 63, 0
7, 25559, Note_on_c, 5, 51, 0
7, 25560, Note_on_c, 5, 68, 96
7, 25560, Note_on_c, 5, 64, 96
7, 25560, Note_on_c, 5, 52, 96
7, 25560, Note_on_c, 5, 59, 96
7, 25776, Control_c, 5, 64, 127
7, 25840, Note_on_c, 5, 59, 0
7, 25840, Note_on_c, 5, 68, 0
7, 25840, Note_on_c, 5, 64, 0
7, 25840, Note_on_c, 5, 52, 0
7, 25906, Control_c, 5, 64, 0
7, 25920, Note_on_c, 5, 45, 96
7, 25920, Note_on_c, 5, 69, 96
7, 25920, Note_on_c, 5, 64, 96
7, 25920, Note_on_c, 5, 61, 96
7, 26151, Control_c, 5, 64, 127
7, 26240, Note_on_c, 5, 61, 0
7, 26240, Note_on_c, 5, 45, 0
7, 26240, Note_on_c, 5, 69, 0
7, 26240, Note_on_c, 5, 64, 0
7, 26280, Note_on_c, 5, 61, 96
7, 26280, Note_on_c, 5, 45, 96
7, 26282, Control_c, 5, 64, 0
7, 26318, Control_c, 5, 64, 127
7, 26360, Note_on_c, 5, 45, 0
7, 26360, Note_on_c, 5, 61, 0
7, 26396, Control_c, 5, 64, 0
7, 26400, Note_on_c, 5, 62, 96
7, 26400, Note_on_c, 5, 47, 96
7, 26520, Note_on_c, 5, 47, 0
7, 26520, Note_on_c, 5, 62, 0
7, 26520, Note_on_c, 5, 64, 96
7, 26520, Note_on_c, 5, 49, 96
7, 26532, Control_c, 5, 64, 127
7, 26559, Note_on_c, 5, 49, 0
7, 26559, Note_on_c, 5, 64, 0
7, 26632, Control_c, 5, 64, 0
7, 26640, Note_on_c, 5, 50, 96
7, 26640, Note_on_c, 5, 66, 96
7, 26640, Note_on_c, 5, 69, 96
7, 26640, Note_on_c, 5, 62, 96
7, 26761, Control_c, 5, 64, 127
7, 26800, Note_on_c, 5, 62, 0
7, 26840, Note_on_c, 5, 50, 0
7, 26840, Note_on_c, 5, 66, 0
7, 26840, Note_on_c, 5, 69, 0
7, 26920, Note_on_c, 5, 66, 96
7, 26920, Note_on_c, 5, 50, 96
7, 26924, Control_c, 5, 64, 0
7, 26959, Note_on_c, 5, 50, 0
7, 26959, Note_on_c, 5, 66, 0
7, 26960, Note_on_c, 5, 67, 96
7, 26960, Note_on_c, 5, 51, 96
7, 26960, Control_c, 5, 64, 127
7, 26996, Control_c, 5, 64, 0
7, 26999, Note_on_c, 5, 51, 0
7, 26999, Note_on_c, 5, 67, 0
7, 27000, Note_on_c, 5, 71, 96
7, 27000, Note_on_c, 5, 52, 96
7, 27000, Note_on_c, 5, 64, 96
7, 27000, Note_on_c, 5, 68, 96
7, 27059, Control_c, 5, 64, 127
7, 27080, Note_on_c, 5, 68, 0
7, 27080, Note_on_c, 5, 71, 0
7, 27080, Note_on_c, 5, 52, 0
7, 27080, Note_on_c, 5, 64, 0
7, 27360, Note_on_c, 5, 45, 96
7, 27360, Note_on_c, 5, 69, 96
7, 27360, Note_on_c, 5, 61, 96
7, 27360, Note_on_c, 5, 64, 96
7, 27362, Control_c, 5, 64, 0
7, 27581, Control_c, 5, 64, 127
7, 27600, Note_on_c, 5, 64, 0
7, 27600, Note_on_c, 5, 45, 0
7, 27600, Note_on_c, 5, 69, 0
7, 27600, Note_on_c, 5, 61, 0
7, 27720, Note_on_c, 5, 56, 96
7, 27720, Note_on_c, 5, 56, 0
7, 27720, Note_on_c, 5, 56, 96
7, 27720, Note_on_c, 5, 40, 96
7, 27722, Control_c, 5, 64, 0
7, 27840, Note_on_c, 5, 40, 0
7, 27840, Note_on_c, 5, 56, 0
7, 27840, Note_on_c, 5, 57, 96
7, 27840, Note_on_c, 5, 42, 96
7, 27960, Note_on_c, 5, 42, 0
7, 27960, Note_on_c, 5, 57, 0
7, 27960, Note_on_c, 5, 44, 96
7, 27960, Note_on_c, 5, 59, 96
7, 27972, Control_c, 5, 64, 127
7, 28061, Control_c, 5, 64, 0
7, 28080, Note_on_c, 5, 59, 0
7, 28080, Note_on_c, 5, 44, 0
7, 28080, Note_on_c, 5, 69, 96
7, 28080, Note_on_c, 5, 64, 96
7, 28080, Note_on_c, 5, 61, 96
7, 28080, Note_on_c, 5, 45, 96
7, 28306, Control_c, 5, 64, 127
7, 28360, Note_on_c, 5, 45, 0
7, 28360, Note_on_c, 5, 69, 0
7, 28360, Note_on_c, 5, 64, 0
7, 28360, Note_on_c, 5, 61, 0
7, 28437, Control_c, 5, 64, 0
7, 28440, Note_on_c, 5, 45, 96
7, 28440, Note_on_c, 5, 61, 96
7, 28462, Control_c, 5, 64, 127
7, 28479, Note_on_c, 5, 45, 0
7, 28520, Note_on_c, 5, 61, 0
7, 28557, Control_c, 5, 64, 0
7, 28560, Note_on_c, 5, 47, 96
7, 28560, Note_on_c, 5, 62, 96
7, 28680, Note_on_c, 5, 62, 0
7, 28680, Note_on_c, 5, 47, 0
7, 28680, Note_on_c, 5, 64, 96
7, 28680, Note_on_c, 5, 49, 96
7, 28729, Control_c, 5, 64, 127
7, 28760, Note_on_c, 5, 49, 0
7, 28760, Note_on_c, 5, 64, 0
7, 28791, Control_c, 5, 64, 0
7, 28800, Note_on_c, 5, 50, 96
7, 28800, Note_on_c, 5, 69, 96
7, 28800, Note_on_c, 5, 66, 96
7, 28800, Note_on_c, 5, 62, 96
7, 29080, Note_on_c, 5, 62, 0
7, 29080, Note_on_c, 5, 66, 0
7, 29080, Note_on_c, 5, 69, 0
7, 29080, Note_on_c, 5, 62, 96
7, 29120, Note_on_c, 5, 71, 96
7, 29120, Note_on_c, 5, 67, 96
7, 29159, Note_on_c, 5, 67, 0
7, 29159, Note_on_c, 5, 71, 0
7, 29160, Note_on_c, 5, 50, 0
7, 29160, Note_on_c, 5, 66, 96
7, 29160, Note_on_c, 5, 69, 96
7, 29160, Note_on_c, 5, 50, 96
7, 29400, Note_on_c, 5, 62, 0
7, 29440, Note_on_c, 5, 66, 0
7, 29440, Note_on_c, 5, 69, 0
7, 29440, Note_on_c, 5, 50, 0
7, 29440, Note_on_c, 5, 64, 96
7, 29470, Control_c, 5, 64, 127
7, 29479, Note_on_c, 5, 64, 0
7, 29480, Note_on_c, 5, 66, 96
7, 29511, Control_c, 5, 64, 0
7, 29519, Note_on_c, 5, 66, 0
7, 29520, Note_on_c, 5, 61, 96
7, 29520, Note_on_c, 5, 45, 96
7, 29520, Note_on_c, 5, 64, 96
7, 29520, Note_on_c, 5, 69, 96
7, 29611, Control_c, 5, 64, 127
7, 29640, Note_on_c, 5, 45, 0
7, 29680, Note_on_c, 5, 61, 0
7, 29680, Note_on_c, 5, 64, 0
7, 29680, Note_on_c, 5, 69, 0
7, 29757, Control_c, 5, 64, 0
7, 29760, Note_on_c, 5, 49, 96
7, 29760, Note_on_c, 5, 61, 96
7, 29799, Note_on_c, 5, 61, 0
7, 29799, Note_on_c, 5, 49, 0
7, 29800, Note_on_c, 5, 62, 96
7, 29800, Note_on_c, 5, 50, 96
7, 29814, Control_c, 5, 64, 127
7, 29839, Note_on_c, 5, 50, 0
7, 29839, Note_on_c, 5, 62, 0
7, 29840, Note_on_c, 5, 51, 96
7, 29840, Note_on_c, 5, 63, 96
7, 29871, Control_c, 5, 64, 0
7, 29879, Note_on_c, 5, 63, 0
7, 29879, Note_on_c, 5, 51, 0
7, 29880, Note_on_c, 5, 52, 96
7, 29880, Note_on_c, 5, 68, 96
7, 29880, Note_on_c, 5, 64, 96
7, 29880, Note_on_c, 5, 59, 96
7, 30148, Control_c, 5, 64, 127
7, 30160, Note_on_c, 5, 59, 0
7, 30160, Note_on_c, 5, 64, 0
7, 30160, Note_on_c, 5, 68, 0
7, 30200, Note_on_c, 5, 52, 0
7, 30232, Control_c, 5, 64, 0
7, 30240, Note_on_c, 5, 45, 96
7, 30240, Note_on_c, 5, 69, 96
7, 30240, Note_on_c, 5, 64, 96
7, 30240, Note_on_c, 5, 61, 96
7, 30305, Control_c, 5, 64, 127
7, 30320, Note_on_c, 5, 61, 0
7, 30320, Note_on_c, 5, 64, 0
7, 30320, Note_on_c, 5, 69, 0
7, 30434, Control_c, 5, 64, 0
7, 30440, Note_on_c, 5, 57, 96
7, 30479, Note_on_c, 5, 57, 0
7, 30480, Note_on_c, 5, 61, 96
7, 30480, Note_on_c, 5, 64, 96
7, 30488, Control_c, 5, 64, 127
7, 30519, Note_on_c, 5, 64, 0
7, 30519, Note_on_c, 5, 61, 0
7, 30560, Note_on_c, 5, 62, 96
7, 30560, Note_on_c, 5, 66, 96
7, 30586, Control_c, 5, 64, 0
7, 30599, Note_on_c, 5, 66, 0
7, 30599, Note_on_c, 5, 62, 0
7, 30600, Note_on_c, 5, 45, 0
7, 30600, Note_on_c, 5, 64, 96
7, 30600, Note_on_c, 5, 61, 96
7, 30649, Control_c, 5, 64, 127
7, 30680, Note_on_c, 5, 61, 0
7, 30680, Note_on_c, 5, 64, 0
7, 30716, Control_c, 5, 64, 0
7, 30720, Note_on_c, 5, 63, 96
7, 30720, Note_on_c, 5, 60, 96
7, 30720, Note_on_c, 5, 42, 96
7, 30753, Control_c, 5, 64, 127
7, 30759, Note_on_c, 5, 42, 0
7, 30759, Note_on_c, 5, 60, 0
7, 30759, Note_on_c, 5, 63, 0
7, 30837, Control_c, 5, 64, 0
7, 30840, Note_on_c, 5, 62, 96
7, 30840, Note_on_c, 5, 59, 96
7, 30840, Note_on_c, 5, 44, 96
7, 30920, Note_on_c, 5, 44, 0
7, 30920, Note_on_c, 5, 59, 0
7, 30920, Note_on_c, 5, 62, 0
7, 30960, Note_on_c, 5, 61, 96
7, 30960, Note_on_c, 5, 45, 96
7, 30960, Note_on_c, 5, 64, 96
7, 30960, Note_on_c, 5, 69, 96
7, 31051, Control_c, 5, 64, 127
7, 31080, Note_on_c, 5, 45, 0
7, 31120, Note_on_c, 5, 61, 0
7, 31120, Note_on_c, 5, 64, 0
7, 31120, Note_on_c, 5, 69, 0
7, 31197, Control_c, 5, 64, 0
7, 31200, Note_on_c, 5, 49, 96
7, 31200, Note_on_c, 5, 61, 96
7, 31239, Note_on_c, 5, 61, 0
7, 31239, Note_on_c, 5, 49, 0
7, 31240, Note_on_c, 5, 62, 96
7, 31240, Note_on_c, 5, 50, 96
7, 31254, Control_c, 5, 64, 127
7, 31279, Note_on_c, 5, 50, 0
7, 31279, Note_on_c, 5, 62, 0
7, 31280, Note_on_c, 5, 51, 96
7, 31280, Note_on_c, 5, 63, 96
7, 31311, Control_c, 5, 64, 0
7, 31319, Note_on_c, 5, 63, 0
7, 31319, Note_on_c, 5, 51, 0
7, 31320, Note_on_c, 5, 52, 96
7, 31320, Note_on_c, 5, 68, 96
7, 31320, Note_on_c, 5, 64, 96
7, 31320, Note_on_c, 5, 59, 96
7, 31588, Control_c, 5, 64, 127
7, 31600, Note_on_c, 5, 59, 0
7, 31600, Note_on_c, 5, 64, 0
7, 31600, Note_on_c, 5, 68, 0
7, 31640, Note_on_c, 5, 52, 0
7, 31672, Control_c, 5, 64, 0
7, 31680, Note_on_c, 5, 41, 96
7, 31680, Note_on_c, 5, 77, 96
7, 31680, Note_on_c, 5, 72, 96
7, 31680, Note_on_c, 5, 69, 96
7, 31680, Note_on_c, 5, 53, 96
7, 32040, Note_on_c, 5, 53, 0
7, 32040, Note_on_c, 5, 72, 0
7, 32040, Note_on_c, 5, 41, 0
7, 32040, Note_on_c, 5, 77, 0
7, 32040, Note_on_c, 5, 69, 0
7, 32040, Note_on_c, 5, 43, 96
7, 32040, Note_on_c, 5, 79, 96
7, 32040, Note_on_c, 5, 55, 96
7, 32040, Note_on_c, 5, 71, 96
7, 32040, Note_on_c, 5, 74, 96
7, 32400, Note_on_c, 5, 74, 0
7, 32400, Note_on_c, 5, 55, 0
7, 32400, Note_on_c, 5, 43, 0
7, 32400, Note_on_c, 5, 79, 0
7, 32400, Note_on_c, 5, 71, 0
7, 32400, Note_on_c, 5, 45, 96
7, 32400, Note_on_c, 5, 57, 96
7, 32400, Note_on_c, 5, 73, 96
7, 32400, Note_on_c, 5, 76, 96
7, 32400, Note_on_c, 5, 81, 96
7, 33119, Note_on_c, 5, 81, 0
7, 33119, Note_on_c, 5, 73, 0
7, 33119, Note_on_c, 5, 45, 0
7, 33119, Note_on_c, 5, 57, 0
7, 33119, Note_on_c, 5, 76, 0
7, 33119, End_track
8, 0, Start_track
8, 0, MIDI_port, 0
8, 0, Title_t, "GUIT.ARPEGGIO"
8, 150, Control_c, 6, 0, 0
8, 151, Control_c, 6, 32, 0
8, 152, Program_c, 6, 25
8, 153, Control_c, 6, 7, 100
8, 720, Note_on_c, 6, 57, 85
8, 759, Note_on_c, 6, 57, 0
8, 760, Note_on_c, 6, 61, 85
8, 799, Note_on_c, 6, 61, 0
8, 800, Note_on_c, 6, 64, 85
8, 839, Note_on_c, 6, 64, 0
8, 840, Note_on_c, 6, 69, 85
8, 879, Note_on_c, 6, 69, 0
8, 880, Note_on_c, 6, 64, 85
8, 919, Note_on_c, 6, 64, 0
8, 920, Note_on_c, 6, 61, 85
8, 959, Note_on_c, 6, 61, 0
8, 960, Note_on_c, 6, 69, 85
8, 1000, Note_on_c, 6, 69, 0
8, 1000, Note_on_c, 6, 64, 85
8, 1039, Note_on_c, 6, 64, 0
8, 1040, Note_on_c, 6, 61, 85
8, 1079, Note_on_c, 6, 61, 0
8, 1080, Note_on_c, 6, 64, 85
8, 1119, Note_on_c, 6, 64, 0
8, 1120, Note_on_c, 6, 68, 85
8, 1160, Note_on_c, 6, 68, 0
8, 1160, Note_on_c, 6, 71, 85
8, 1199, Note_on_c, 6, 71, 0
8, 1200, Note_on_c, 6, 76, 85
8, 1240, Note_on_c, 6, 76, 0
8, 1240, Note_on_c, 6, 71, 85
8, 1279, Note_on_c, 6, 71, 0
8, 1280, Note_on_c, 6, 68, 85
8, 1319, Note_on_c, 6, 68, 0
8, 1320, Note_on_c, 6, 76, 85
8, 1359, Note_on_c, 6, 76, 0
8, 1360, Note_on_c, 6, 71, 85
8, 1399, Note_on_c, 6, 71, 0
8, 1400, Note_on_c, 6, 68, 85
8, 1439, Note_on_c, 6, 68, 0
8, 1440, Note_on_c, 6, 57, 85
8, 1479, Note_on_c, 6, 57, 0
8, 1480, Note_on_c, 6, 61, 85
8, 1519, Note_on_c, 6, 61, 0
8, 1520, Note_on_c, 6, 64, 85
8, 1559, Note_on_c, 6, 64, 0
8, 1560, Note_on_c, 6, 69, 85
8, 1599, Note_on_c, 6, 69, 0
8, 1600, Note_on_c, 6, 64, 85
8, 1639, Note_on_c, 6, 64, 0
8, 1640, Note_on_c, 6, 61, 85
8, 1679, Note_on_c, 6, 61, 0
8, 1680, Note_on_c, 6, 69, 85
8, 1719, Note_on_c, 6, 69, 0
8, 1720, Note_on_c, 6, 64, 85
8, 1759, Note_on_c, 6, 64, 0
8, 1760, Note_on_c, 6, 61, 85
8, 1799, Note_on_c, 6, 61, 0
8, 1800, Note_on_c, 6, 57, 85
8, 1839, Note_on_c, 6, 57, 0
8, 1840, Note_on_c, 6, 61, 85
8, 1879, Note_on_c, 6, 61, 0
8, 1880, Note_on_c, 6, 64, 85
8, 1919, Note_on_c, 6, 64, 0
8, 1920, Note_on_c, 6, 69, 85
8, 1959, Note_on_c, 6, 69, 0
8, 1960, Note_on_c, 6, 64, 85
8, 1999, Note_on_c, 6, 64, 0
8, 2000, Note_on_c, 6, 61, 85
8, 2039, Note_on_c, 6, 61, 0
8, 2040, Note_on_c, 6, 69, 85
8, 2079, Note_on_c, 6, 69, 0
8, 2080, Note_on_c, 6, 64, 85
8, 2119, Note_on_c, 6, 64, 0
8, 2120, Note_on_c, 6, 61, 85
8, 2159, Note_on_c, 6, 61, 0
8, 2880, Note_on_c, 6, 62, 85
8, 2919, Note_on_c, 6, 62, 0
8, 2920, Note_on_c, 6, 66, 85
8, 2959, Note_on_c, 6, 66, 0
8, 2960, Note_on_c, 6, 69, 85
8, 2999, Note_on_c, 6, 69, 0
8, 3000, Note_on_c, 6, 74, 85
8, 3040, Note_on_c, 6, 74, 0
8, 3040, Note_on_c, 6, 69, 85
8, 3079, Note_on_c, 6, 69, 0
8, 3080, Note_on_c, 6, 66, 85
8, 3119, Note_on_c, 6, 66, 0
8, 3120, Note_on_c, 6, 74, 85
8, 3160, Note_on_c, 6, 74, 0
8, 3160, Note_on_c, 6, 69, 85
8, 3199, Note_on_c, 6, 69, 0
8, 3200, Note_on_c, 6, 66, 85
8, 3239, Note_on_c, 6, 66, 0
8, 3240, Note_on_c, 6, 62, 85
8, 3279, Note_on_c, 6, 62, 0
8, 3280, Note_on_c, 6, 66, 85
8, 3319, Note_on_c, 6, 66, 0
8, 3320, Note_on_c, 6, 69, 85
8, 3359, Note_on_c, 6, 69, 0
8, 3360, Note_on_c, 6, 74, 85
8, 3399, Note_on_c, 6, 74, 0
8, 3400, Note_on_c, 6, 69, 85
8, 3439, Note_on_c, 6, 69, 0
8, 3440, Note_on_c, 6, 66, 85
8, 3479, Note_on_c, 6, 66, 0
8, 3480, Note_on_c, 6, 74, 85
8, 3519, Note_on_c, 6, 74, 0
8, 3520, Note_on_c, 6, 69, 85
8, 3559, Note_on_c, 6, 69, 0
8, 3560, Note_on_c, 6, 66, 85
8, 3599, Note_on_c, 6, 66, 0
8, 3600, Note_on_c, 6, 57, 85
8, 3639, Note_on_c, 6, 57, 0
8, 3640, Note_on_c, 6, 61, 85
8, 3679, Note_on_c, 6, 61, 0
8, 3680, Note_on_c, 6, 64, 85
8, 3719, Note_on_c, 6, 64, 0
8, 3720, Note_on_c, 6, 69, 85
8, 3759, Note_on_c, 6, 69, 0
8, 3760, Note_on_c, 6, 64, 85
8, 3799, Note_on_c, 6, 64, 0
8, 3800, Note_on_c, 6, 61, 85
8, 3839, Note_on_c, 6, 61, 0
8, 3840, Note_on_c, 6, 69, 85
8, 3880, Note_on_c, 6, 69, 0
8, 3880, Note_on_c, 6, 64, 85
8, 3919, Note_on_c, 6, 64, 0
8, 3920, Note_on_c, 6, 61, 85
8, 3959, Note_on_c, 6, 61, 0
8, 3960, Note_on_c, 6, 64, 85
8, 3999, Note_on_c, 6, 64, 0
8, 4000, Note_on_c, 6, 68, 85
8, 4040, Note_on_c, 6, 68, 0
8, 4040, Note_on_c, 6, 71, 85
8, 4079, Note_on_c, 6, 71, 0
8, 4080, Note_on_c, 6, 76, 85
8, 4120, Note_on_c, 6, 76, 0
8, 4120, Note_on_c, 6, 71, 85
8, 4159, Note_on_c, 6, 71, 0
8, 4160, Note_on_c, 6, 68, 85
8, 4199, Note_on_c, 6, 68, 0
8, 4200, Note_on_c, 6, 76, 85
8, 4239, Note_on_c, 6, 76, 0
8, 4240, Note_on_c, 6, 71, 85
8, 4279, Note_on_c, 6, 71, 0
8, 4280, Note_on_c, 6, 68, 85
8, 4319, Note_on_c, 6, 68, 0
8, 4320, Note_on_c, 6, 57, 85
8, 4359, Note_on_c, 6, 57, 0
8, 4360, Note_on_c, 6, 61, 85
8, 4399, Note_on_c, 6, 61, 0
8, 4400, Note_on_c, 6, 64, 85
8, 4439, Note_on_c, 6, 64, 0
8, 4440, Note_on_c, 6, 69, 85
8, 4479, Note_on_c, 6, 69, 0
8, 4480, Note_on_c, 6, 64, 85
8, 4519, Note_on_c, 6, 64, 0
8, 4520, Note_on_c, 6, 61, 85
8, 4559, Note_on_c, 6, 61, 0
8, 4560, Note_on_c, 6, 69, 85
8, 4599, Note_on_c, 6, 69, 0
8, 4600, Note_on_c, 6, 64, 85
8, 4639, Note_on_c, 6, 64, 0
8, 4640, Note_on_c, 6, 61, 85
8, 4679, Note_on_c, 6, 61, 0
8, 4680, Note_on_c, 6, 57, 85
8, 4719, Note_on_c, 6, 57, 0
8, 4720, Note_on_c, 6, 61, 85
8, 4759, Note_on_c, 6, 61, 0
8, 4760, Note_on_c, 6, 64, 85
8, 4799, Note_on_c, 6, 64, 0
8, 4800, Note_on_c, 6, 69, 85
8, 4839, Note_on_c, 6, 69, 0
8, 4840, Note_on_c, 6, 64, 85
8, 4879, Note_on_c, 6, 64, 0
8, 4880, Note_on_c, 6, 61, 85
8, 4919, Note_on_c, 6, 61, 0
8, 4920, Note_on_c, 6, 69, 85
8, 4959, Note_on_c, 6, 69, 0
8, 4960, Note_on_c, 6, 64, 85
8, 4999, Note_on_c, 6, 64, 0
8, 5000, Note_on_c, 6, 61, 85
8, 5039, Note_on_c, 6, 61, 0
8, 5040, Note_on_c, 6, 57, 86
8, 5079, Note_on_c, 6, 57, 0
8, 5080, Note_on_c, 6, 61, 86
8, 5119, Note_on_c, 6, 61, 0
8, 5120, Note_on_c, 6, 64, 86
8, 5159, Note_on_c, 6, 64, 0
8, 5160, Note_on_c, 6, 69, 86
8, 5200, Note_on_c, 6, 69, 0
8, 5200, Note_on_c, 6, 64, 86
8, 5239, Note_on_c, 6, 64, 0
8, 5240, Note_on_c, 6, 61, 86
8, 5279, Note_on_c, 6, 61, 0
8, 5280, Note_on_c, 6, 69, 86
8, 5320, Note_on_c, 6, 69, 0
8, 5320, Note_on_c, 6, 64, 86
8, 5359, Note_on_c, 6, 64, 0
8, 5360, Note_on_c, 6, 61, 86
8, 5399, Note_on_c, 6, 61, 0
8, 5400, Note_on_c, 6, 62, 87
8, 5439, Note_on_c, 6, 62, 0
8, 5440, Note_on_c, 6, 66, 85
8, 5480, Note_on_c, 6, 66, 0
8, 5480, Note_on_c, 6, 69, 85
8, 5519, Note_on_c, 6, 69, 0
8, 5520, Note_on_c, 6, 74, 85
8, 5560, Note_on_c, 6, 74, 0
8, 5560, Note_on_c, 6, 69, 85
8, 5599, Note_on_c, 6, 69, 0
8, 5600, Note_on_c, 6, 66, 85
8, 5639, Note_on_c, 6, 66, 0
8, 5640, Note_on_c, 6, 74, 85
8, 5679, Note_on_c, 6, 74, 0
8, 5680, Note_on_c, 6, 69, 85
8, 5719, Note_on_c, 6, 69, 0
8, 5720, Note_on_c, 6, 66, 85
8, 5759, Note_on_c, 6, 66, 0
8, 5760, Note_on_c, 6, 57, 85
8, 5799, Note_on_c, 6, 57, 0
8, 5800, Note_on_c, 6, 61, 85
8, 5839, Note_on_c, 6, 61, 0
8, 5840, Note_on_c, 6, 64, 85
8, 5879, Note_on_c, 6, 64, 0
8, 5880, Note_on_c, 6, 69, 85
8, 5919, Note_on_c, 6, 69, 0
8, 5920, Note_on_c, 6, 64, 85
8, 5959, Note_on_c, 6, 64, 0
8, 5960, Note_on_c, 6, 61, 85
8, 5999, Note_on_c, 6, 61, 0
8, 6000, Note_on_c, 6, 69, 85
8, 6039, Note_on_c, 6, 69, 0
8, 6040, Note_on_c, 6, 64, 85
8, 6079, Note_on_c, 6, 64, 0
8, 6080, Note_on_c, 6, 61, 85
8, 6119, Note_on_c, 6, 61, 0
8, 6120, Note_on_c, 6, 57, 85
8, 6159, Note_on_c, 6, 57, 0
8, 6160, Note_on_c, 6, 61, 85
8, 6199, Note_on_c, 6, 61, 0
8, 6200, Note_on_c, 6, 64, 85
8, 6239, Note_on_c, 6, 64, 0
8, 6240, Note_on_c, 6, 69, 85
8, 6279, Note_on_c, 6, 69, 0
8, 6280, Note_on_c, 6, 64, 85
8, 6319, Note_on_c, 6, 64, 0
8, 6320, Note_on_c, 6, 61, 85
8, 6359, Note_on_c, 6, 61, 0
8, 6360, Note_on_c, 6, 69, 85
8, 6399, Note_on_c, 6, 69, 0
8, 6400, Note_on_c, 6, 64, 85
8, 6439, Note_on_c, 6, 64, 0
8, 6440, Note_on_c, 6, 61, 85
8, 6479, Note_on_c, 6, 61, 0
8, 6480, Note_on_c, 6, 57, 85
8, 6519, Note_on_c, 6, 57, 0
8, 6520, Note_on_c, 6, 61, 85
8, 6559, Note_on_c, 6, 61, 0
8, 6560, Note_on_c, 6, 64, 85
8, 6599, Note_on_c, 6, 64, 0
8, 6600, Note_on_c, 6, 69, 85
8, 6639, Note_on_c, 6, 69, 0
8, 6640, Note_on_c, 6, 64, 85
8, 6679, Note_on_c, 6, 64, 0
8, 6680, Note_on_c, 6, 61, 85
8, 6719, Note_on_c, 6, 61, 0
8, 6720, Note_on_c, 6, 69, 85
8, 6759, Note_on_c, 6, 69, 0
8, 6760, Note_on_c, 6, 64, 85
8, 6799, Note_on_c, 6, 64, 0
8, 6800, Note_on_c, 6, 61, 85
8, 6839, Note_on_c, 6, 61, 0
8, 6840, Note_on_c, 6, 64, 85
8, 6879, Note_on_c, 6, 64, 0
8, 6880, Note_on_c, 6, 68, 85
8, 6919, Note_on_c, 6, 68, 0
8, 6920, Note_on_c, 6, 71, 85
8, 6959, Note_on_c, 6, 71, 0
8, 6960, Note_on_c, 6, 76, 85
8, 6999, Note_on_c, 6, 76, 0
8, 7000, Note_on_c, 6, 71, 85
8, 7039, Note_on_c, 6, 71, 0
8, 7040, Note_on_c, 6, 68, 85
8, 7079, Note_on_c, 6, 68, 0
8, 7080, Note_on_c, 6, 76, 85
8, 7119, Note_on_c, 6, 76, 0
8, 7120, Note_on_c, 6, 71, 85
8, 7159, Note_on_c, 6, 71, 0
8, 7160, Note_on_c, 6, 68, 85
8, 7199, Note_on_c, 6, 68, 0
8, 7200, Note_on_c, 6, 57, 85
8, 7239, Note_on_c, 6, 57, 0
8, 7240, Note_on_c, 6, 61, 85
8, 7279, Note_on_c, 6, 61, 0
8, 7280, Note_on_c, 6, 64, 85
8, 7319, Note_on_c, 6, 64, 0
8, 7320, Note_on_c, 6, 69, 85
8, 7359, Note_on_c, 6, 69, 0
8, 7360, Note_on_c, 6, 64, 85
8, 7399, Note_on_c, 6, 64, 0
8, 7400, Note_on_c, 6, 61, 85
8, 7439, Note_on_c, 6, 61, 0
8, 7440, Note_on_c, 6, 69, 85
8, 7479, Note_on_c, 6, 69, 0
8, 7480, Note_on_c, 6, 64, 85
8, 7519, Note_on_c, 6, 64, 0
8, 7520, Note_on_c, 6, 61, 85
8, 7559, Note_on_c, 6, 61, 0
8, 7560, Note_on_c, 6, 57, 85
8, 7599, Note_on_c, 6, 57, 0
8, 7600, Note_on_c, 6, 61, 85
8, 7639, Note_on_c, 6, 61, 0
8, 7640, Note_on_c, 6, 64, 85
8, 7679, Note_on_c, 6, 64, 0
8, 7680, Note_on_c, 6, 69, 85
8, 7719, Note_on_c, 6, 69, 0
8, 7720, Note_on_c, 6, 64, 85
8, 7759, Note_on_c, 6, 64, 0
8, 7760, Note_on_c, 6, 61, 85
8, 7799, Note_on_c, 6, 61, 0
8, 7800, Note_on_c, 6, 69, 85
8, 7839, Note_on_c, 6, 69, 0
8, 7840, Note_on_c, 6, 64, 85
8, 7879, Note_on_c, 6, 64, 0
8, 7880, Note_on_c, 6, 61, 85
8, 7919, Note_on_c, 6, 61, 0
8, 7920, Note_on_c, 6, 57, 85
8, 7959, Note_on_c, 6, 57, 0
8, 7960, Note_on_c, 6, 61, 85
8, 7999, Note_on_c, 6, 61, 0
8, 8000, Note_on_c, 6, 64, 85
8, 8039, Note_on_c, 6, 64, 0
8, 8040, Note_on_c, 6, 69, 85
8, 8079, Note_on_c, 6, 69, 0
8, 8080, Note_on_c, 6, 64, 85
8, 8119, Note_on_c, 6, 64, 0
8, 8120, Note_on_c, 6, 61, 85
8, 8159, Note_on_c, 6, 61, 0
8, 8160, Note_on_c, 6, 69, 85
8, 8199, Note_on_c, 6, 69, 0
8, 8200, Note_on_c, 6, 64, 85
8, 8239, Note_on_c, 6, 64, 0
8, 8240, Note_on_c, 6, 61, 85
8, 8279, Note_on_c, 6, 61, 0
8, 8280, Note_on_c, 6, 62, 85
8, 8319, Note_on_c, 6, 62, 0
8, 8320, Note_on_c, 6, 66, 85
8, 8359, Note_on_c, 6, 66, 0
8, 8360, Note_on_c, 6, 69, 85
8, 8399, Note_on_c, 6, 69, 0
8, 8400, Note_on_c, 6, 74, 85
8, 8439, Note_on_c, 6, 74, 0
8, 8440, Note_on_c, 6, 69, 85
8, 8479, Note_on_c, 6, 69, 0
8, 8480, Note_on_c, 6, 66, 85
8, 8519, Note_on_c, 6, 66, 0
8, 8520, Note_on_c, 6, 74, 85
8, 8559, Note_on_c, 6, 74, 0
8, 8560, Note_on_c, 6, 69, 85
8, 8599, Note_on_c, 6, 69, 0
8, 8600, Note_on_c, 6, 66, 85
8, 8639, Note_on_c, 6, 66, 0
8, 8640, Note_on_c, 6, 57, 85
8, 8679, Note_on_c, 6, 57, 0
8, 8680, Note_on_c, 6, 61, 85
8, 8719, Note_on_c, 6, 61, 0
8, 8720, Note_on_c, 6, 64, 85
8, 8759, Note_on_c, 6, 64, 0
8, 8760, Note_on_c, 6, 69, 85
8, 8799, Note_on_c, 6, 69, 0
8, 8800, Note_on_c, 6, 64, 85
8, 8839, Note_on_c, 6, 64, 0
8, 8840, Note_on_c, 6, 61, 85
8, 8879, Note_on_c, 6, 61, 0
8, 8880, Note_on_c, 6, 69, 85
8, 8919, Note_on_c, 6, 69, 0
8, 8920, Note_on_c, 6, 64, 85
8, 8959, Note_on_c, 6, 64, 0
8, 8960, Note_on_c, 6, 61, 85
8, 8999, Note_on_c, 6, 61, 0
8, 9000, Note_on_c, 6, 57, 85
8, 9039, Note_on_c, 6, 57, 0
8, 9040, Note_on_c, 6, 61, 85
8, 9079, Note_on_c, 6, 61, 0
8, 9080, Note_on_c, 6, 64, 85
8, 9119, Note_on_c, 6, 64, 0
8, 9120, Note_on_c, 6, 69, 85
8, 9159, Note_on_c, 6, 69, 0
8, 9160, Note_on_c, 6, 64, 85
8, 9199, Note_on_c, 6, 64, 0
8, 9200, Note_on_c, 6, 61, 85
8, 9239, Note_on_c, 6, 61, 0
8, 9240, Note_on_c, 6, 69, 85
8, 9279, Note_on_c, 6, 69, 0
8, 9280, Note_on_c, 6, 64, 85
8, 9319, Note_on_c, 6, 64, 0
8, 9320, Note_on_c, 6, 61, 85
8, 9359, Note_on_c, 6, 61, 0
8, 9360, Note_on_c, 6, 57, 85
8, 9399, Note_on_c, 6, 57, 0
8, 9400, Note_on_c, 6, 61, 85
8, 9439, Note_on_c, 6, 61, 0
8, 9440, Note_on_c, 6, 64, 85
8, 9479, Note_on_c, 6, 64, 0
8, 9480, Note_on_c, 6, 69, 85
8, 9519, Note_on_c, 6, 69, 0
8, 9520, Note_on_c, 6, 64, 85
8, 9559, Note_on_c, 6, 64, 0
8, 9560, Note_on_c, 6, 61, 86
8, 9599, Note_on_c, 6, 61, 0
8, 9600, Note_on_c, 6, 69, 86
8, 9639, Note_on_c, 6, 69, 0
8, 9640, Note_on_c, 6, 64, 86
8, 9679, Note_on_c, 6, 64, 0
8, 9680, Note_on_c, 6, 61, 86
8, 9719, Note_on_c, 6, 61, 0
8, 9720, Note_on_c, 6, 64, 86
8, 9759, Note_on_c, 6, 64, 0
8, 9760, Note_on_c, 6, 68, 86
8, 9799, Note_on_c, 6, 68, 0
8, 9800, Note_on_c, 6, 71, 86
8, 9839, Note_on_c, 6, 71, 0
8, 9840, Note_on_c, 6, 76, 86
8, 9879, Note_on_c, 6, 76, 0
8, 9880, Note_on_c, 6, 71, 86
8, 9919, Note_on_c, 6, 71, 0
8, 9920, Note_on_c, 6, 68, 86
8, 9959, Note_on_c, 6, 68, 0
8, 9960, Note_on_c, 6, 76, 86
8, 9999, Note_on_c, 6, 76, 0
8, 10000, Note_on_c, 6, 71, 86
8, 10039, Note_on_c, 6, 71, 0
8, 10040, Note_on_c, 6, 68, 86
8, 10079, Note_on_c, 6, 68, 0
8, 10080, Note_on_c, 6, 57, 86
8, 10119, Note_on_c, 6, 57, 0
8, 10120, Note_on_c, 6, 61, 86
8, 10159, Note_on_c, 6, 61, 0
8, 10160, Note_on_c, 6, 64, 86
8, 10199, Note_on_c, 6, 64, 0
8, 10200, Note_on_c, 6, 69, 86
8, 10239, Note_on_c, 6, 69, 0
8, 10240, Note_on_c, 6, 64, 86
8, 10279, Note_on_c, 6, 64, 0
8, 10280, Note_on_c, 6, 61, 86
8, 10319, Note_on_c, 6, 61, 0
8, 10320, Note_on_c, 6, 69, 86
8, 10359, Note_on_c, 6, 69, 0
8, 10360, Note_on_c, 6, 64, 86
8, 10399, Note_on_c, 6, 64, 0
8, 10400, Note_on_c, 6, 61, 86
8, 10439, Note_on_c, 6, 61, 0
8, 10440, Note_on_c, 6, 57, 85
8, 10479, Note_on_c, 6, 57, 0
8, 10480, Note_on_c, 6, 61, 85
8, 10519, Note_on_c, 6, 61, 0
8, 10520, Note_on_c, 6, 64, 85
8, 10559, Note_on_c, 6, 64, 0
8, 10560, Note_on_c, 6, 69, 85
8, 10599, Note_on_c, 6, 69, 0
8, 10600, Note_on_c, 6, 64, 85
8, 10639, Note_on_c, 6, 64, 0
8, 10640, Note_on_c, 6, 61, 85
8, 10679, Note_on_c, 6, 61, 0
8, 10680, Note_on_c, 6, 69, 85
8, 10719, Note_on_c, 6, 69, 0
8, 10720, Note_on_c, 6, 64, 85
8, 10759, Note_on_c, 6, 64, 0
8, 10760, Note_on_c, 6, 61, 85
8, 10799, Note_on_c, 6, 61, 0
8, 10800, Note_on_c, 6, 57, 86
8, 10839, Note_on_c, 6, 57, 0
8, 10840, Note_on_c, 6, 61, 86
8, 10879, Note_on_c, 6, 61, 0
8, 10880, Note_on_c, 6, 64, 86
8, 10919, Note_on_c, 6, 64, 0
8, 10920, Note_on_c, 6, 69, 86
8, 10959, Note_on_c, 6, 69, 0
8, 10960, Note_on_c, 6, 64, 86
8, 10999, Note_on_c, 6, 64, 0
8, 11000, Note_on_c, 6, 61, 86
8, 11039, Note_on_c, 6, 61, 0
8, 11040, Note_on_c, 6, 69, 86
8, 11079, Note_on_c, 6, 69, 0
8, 11080, Note_on_c, 6, 64, 86
8, 11119, Note_on_c, 6, 64, 0
8, 11120, Note_on_c, 6, 61, 86
8, 11159, Note_on_c, 6, 61, 0
8, 11160, Note_on_c, 6, 64, 86
8, 11199, Note_on_c, 6, 64, 0
8, 11200, Note_on_c, 6, 68, 86
8, 11239, Note_on_c, 6, 68, 0
8, 11240, Note_on_c, 6, 71, 86
8, 11279, Note_on_c, 6, 71, 0
8, 11280, Note_on_c, 6, 76, 86
8, 11319, Note_on_c, 6, 76, 0
8, 11320, Note_on_c, 6, 71, 86
8, 11359, Note_on_c, 6, 71, 0
8, 11360, Note_on_c, 6, 68, 86
8, 11399, Note_on_c, 6, 68, 0
8, 11400, Note_on_c, 6, 76, 86
8, 11439, Note_on_c, 6, 76, 0
8, 11440, Note_on_c, 6, 71, 86
8, 11479, Note_on_c, 6, 71, 0
8, 11480, Note_on_c, 6, 68, 86
8, 11519, Note_on_c, 6, 68, 0
8, 11520, Note_on_c, 6, 57, 86
8, 11559, Note_on_c, 6, 57, 0
8, 11560, Note_on_c, 6, 61, 86
8, 11599, Note_on_c, 6, 61, 0
8, 11600, Note_on_c, 6, 64, 86
8, 11639, Note_on_c, 6, 64, 0
8, 11640, Note_on_c, 6, 69, 86
8, 11679, Note_on_c, 6, 69, 0
8, 11680, Note_on_c, 6, 64, 86
8, 11719, Note_on_c, 6, 64, 0
8, 11720, Note_on_c, 6, 61, 86
8, 11759, Note_on_c, 6, 61, 0
8, 11760, Note_on_c, 6, 69, 86
8, 11799, Note_on_c, 6, 69, 0
8, 11800, Note_on_c, 6, 64, 86
8, 11839, Note_on_c, 6, 64, 0
8, 11840, Note_on_c, 6, 61, 86
8, 11879, Note_on_c, 6, 61, 0
8, 11880, Note_on_c, 6, 57, 86
8, 11919, Note_on_c, 6, 57, 0
8, 11920, Note_on_c, 6, 61, 86
8, 11959, Note_on_c, 6, 61, 0
8, 11960, Note_on_c, 6, 64, 86
8, 11999, Note_on_c, 6, 64, 0
8, 12000, Note_on_c, 6, 69, 86
8, 12039, Note_on_c, 6, 69, 0
8, 12040, Note_on_c, 6, 64, 86
8, 12079, Note_on_c, 6, 64, 0
8, 12080, Note_on_c, 6, 61, 86
8, 12119, Note_on_c, 6, 61, 0
8, 12120, Note_on_c, 6, 69, 86
8, 12159, Note_on_c, 6, 69, 0
8, 12160, Note_on_c, 6, 64, 86
8, 12199, Note_on_c, 6, 64, 0
8, 12200, Note_on_c, 6, 61, 86
8, 12239, Note_on_c, 6, 61, 0
8, 12240, Note_on_c, 6, 62, 86
8, 12279, Note_on_c, 6, 62, 0
8, 12280, Note_on_c, 6, 66, 86
8, 12319, Note_on_c, 6, 66, 0
8, 12320, Note_on_c, 6, 69, 86
8, 12359, Note_on_c, 6, 69, 0
8, 12360, Note_on_c, 6, 74, 86
8, 12399, Note_on_c, 6, 74, 0
8, 12400, Note_on_c, 6, 69, 86
8, 12439, Note_on_c, 6, 69, 0
8, 12440, Note_on_c, 6, 66, 86
8, 12479, Note_on_c, 6, 66, 0
8, 12480, Note_on_c, 6, 74, 86
8, 12519, Note_on_c, 6, 74, 0
8, 12520, Note_on_c, 6, 69, 86
8, 12559, Note_on_c, 6, 69, 0
8, 12560, Note_on_c, 6, 66, 86
8, 12599, Note_on_c, 6, 66, 0
8, 12600, Note_on_c, 6, 64, 86
8, 12639, Note_on_c, 6, 64, 0
8, 12640, Note_on_c, 6, 68, 86
8, 12679, Note_on_c, 6, 68, 0
8, 12680, Note_on_c, 6, 71, 86
8, 12719, Note_on_c, 6, 71, 0
8, 12720, Note_on_c, 6, 76, 86
8, 12759, Note_on_c, 6, 76, 0
8, 12760, Note_on_c, 6, 71, 86
8, 12799, Note_on_c, 6, 71, 0
8, 12800, Note_on_c, 6, 68, 86
8, 12839, Note_on_c, 6, 68, 0
8, 12840, Note_on_c, 6, 76, 86
8, 12879, Note_on_c, 6, 76, 0
8, 12880, Note_on_c, 6, 71, 86
8, 12919, Note_on_c, 6, 71, 0
8, 12920, Note_on_c, 6, 68, 86
8, 12959, Note_on_c, 6, 68, 0
8, 12960, Note_on_c, 6, 57, 86
8, 12999, Note_on_c, 6, 57, 0
8, 13000, Note_on_c, 6, 61, 86
8, 13039, Note_on_c, 6, 61, 0
8, 13040, Note_on_c, 6, 64, 86
8, 13079, Note_on_c, 6, 64, 0
8, 13080, Note_on_c, 6, 69, 86
8, 13119, Note_on_c, 6, 69, 0
8, 13120, Note_on_c, 6, 64, 86
8, 13159, Note_on_c, 6, 64, 0
8, 13160, Note_on_c, 6, 61, 86
8, 13199, Note_on_c, 6, 61, 0
8, 13200, Note_on_c, 6, 69, 86
8, 13239, Note_on_c, 6, 69, 0
8, 13240, Note_on_c, 6, 64, 86
8, 13279, Note_on_c, 6, 64, 0
8, 13280, Note_on_c, 6, 61, 86
8, 13319, Note_on_c, 6, 61, 0
8, 13320, Note_on_c, 6, 57, 85
8, 13359, Note_on_c, 6, 57, 0
8, 13360, Note_on_c, 6, 61, 85
8, 13399, Note_on_c, 6, 61, 0
8, 13400, Note_on_c, 6, 64, 85
8, 13439, Note_on_c, 6, 64, 0
8, 13440, Note_on_c, 6, 69, 85
8, 13479, Note_on_c, 6, 69, 0
8, 13480, Note_on_c, 6, 64, 85
8, 13519, Note_on_c, 6, 64, 0
8, 13520, Note_on_c, 6, 61, 85
8, 13559, Note_on_c, 6, 61, 0
8, 13560, Note_on_c, 6, 69, 85
8, 13599, Note_on_c, 6, 69, 0
8, 13600, Note_on_c, 6, 64, 85
8, 13639, Note_on_c, 6, 64, 0
8, 13640, Note_on_c, 6, 61, 85
8, 13679, Note_on_c, 6, 61, 0
8, 13680, Note_on_c, 6, 57, 86
8, 13719, Note_on_c, 6, 57, 0
8, 13720, Note_on_c, 6, 61, 86
8, 13759, Note_on_c, 6, 61, 0
8, 13760, Note_on_c, 6, 64, 86
8, 13799, Note_on_c, 6, 64, 0
8, 13800, Note_on_c, 6, 69, 86
8, 13839, Note_on_c, 6, 69, 0
8, 13840, Note_on_c, 6, 64, 86
8, 13879, Note_on_c, 6, 64, 0
8, 13880, Note_on_c, 6, 61, 86
8, 13919, Note_on_c, 6, 61, 0
8, 13920, Note_on_c, 6, 69, 86
8, 13959, Note_on_c, 6, 69, 0
8, 13960, Note_on_c, 6, 64, 86
8, 13999, Note_on_c, 6, 64, 0
8, 14000, Note_on_c, 6, 61, 86
8, 14039, Note_on_c, 6, 61, 0
8, 14040, Note_on_c, 6, 57, 86
8, 14079, Note_on_c, 6, 57, 0
8, 14080, Note_on_c, 6, 61, 86
8, 14119, Note_on_c, 6, 61, 0
8, 14120, Note_on_c, 6, 64, 86
8, 14159, Note_on_c, 6, 64, 0
8, 14160, Note_on_c, 6, 69, 86
8, 14199, Note_on_c, 6, 69, 0
8, 14200, Note_on_c, 6, 64, 86
8, 14239, Note_on_c, 6, 64, 0
8, 14240, Note_on_c, 6, 61, 86
8, 14279, Note_on_c, 6, 61, 0
8, 14280, Note_on_c, 6, 69, 86
8, 14319, Note_on_c, 6, 69, 0
8, 14320, Note_on_c, 6, 64, 86
8, 14359, Note_on_c, 6, 64, 0
8, 14360, Note_on_c, 6, 61, 86
8, 14399, Note_on_c, 6, 61, 0
8, 14400, Note_on_c, 6, 62, 86
8, 14439, Note_on_c, 6, 62, 0
8, 14440, Note_on_c, 6, 66, 86
8, 14479, Note_on_c, 6, 66, 0
8, 14480, Note_on_c, 6, 69, 86
8, 14519, Note_on_c, 6, 69, 0
8, 14520, Note_on_c, 6, 74, 86
8, 14559, Note_on_c, 6, 74, 0
8, 14560, Note_on_c, 6, 69, 86
8, 14599, Note_on_c, 6, 69, 0
8, 14600, Note_on_c, 6, 66, 86
8, 14639, Note_on_c, 6, 66, 0
8, 14640, Note_on_c, 6, 74, 86
8, 14679, Note_on_c, 6, 74, 0
8, 14680, Note_on_c, 6, 69, 86
8, 14719, Note_on_c, 6, 69, 0
8, 14720, Note_on_c, 6, 66, 86
8, 14759, Note_on_c, 6, 66, 0
8, 14760, Note_on_c, 6, 62, 86
8, 14799, Note_on_c, 6, 62, 0
8, 14800, Note_on_c, 6, 66, 86
8, 14839, Note_on_c, 6, 66, 0
8, 14840, Note_on_c, 6, 69, 86
8, 14879, Note_on_c, 6, 69, 0
8, 14880, Note_on_c, 6, 74, 86
8, 14919, Note_on_c, 6, 74, 0
8, 14920, Note_on_c, 6, 69, 86
8, 14959, Note_on_c, 6, 69, 0
8, 14960, Note_on_c, 6, 66, 86
8, 14999, Note_on_c, 6, 66, 0
8, 15000, Note_on_c, 6, 74, 86
8, 15039, Note_on_c, 6, 74, 0
8, 15040, Note_on_c, 6, 69, 86
8, 15079, Note_on_c, 6, 69, 0
8, 15080, Note_on_c, 6, 66, 86
8, 15119, Note_on_c, 6, 66, 0
8, 15120, Note_on_c, 6, 57, 86
8, 15159, Note_on_c, 6, 57, 0
8, 15160, Note_on_c, 6, 61, 86
8, 15199, Note_on_c, 6, 61, 0
8, 15200, Note_on_c, 6, 64, 86
8, 15239, Note_on_c, 6, 64, 0
8, 15240, Note_on_c, 6, 69, 86
8, 15279, Note_on_c, 6, 69, 0
8, 15280, Note_on_c, 6, 64, 86
8, 15319, Note_on_c, 6, 64, 0
8, 15320, Note_on_c, 6, 61, 86
8, 15359, Note_on_c, 6, 61, 0
8, 15360, Note_on_c, 6, 69, 86
8, 15399, Note_on_c, 6, 69, 0
8, 15400, Note_on_c, 6, 64, 86
8, 15439, Note_on_c, 6, 64, 0
8, 15440, Note_on_c, 6, 61, 86
8, 15479, Note_on_c, 6, 61, 0
8, 15480, Note_on_c, 6, 64, 86
8, 15519, Note_on_c, 6, 64, 0
8, 15520, Note_on_c, 6, 68, 86
8, 15559, Note_on_c, 6, 68, 0
8, 15560, Note_on_c, 6, 71, 86
8, 15599, Note_on_c, 6, 71, 0
8, 15600, Note_on_c, 6, 76, 86
8, 15639, Note_on_c, 6, 76, 0
8, 15640, Note_on_c, 6, 71, 86
8, 15679, Note_on_c, 6, 71, 0
8, 15680, Note_on_c, 6, 68, 86
8, 15719, Note_on_c, 6, 68, 0
8, 15720, Note_on_c, 6, 76, 86
8, 15759, Note_on_c, 6, 76, 0
8, 15760, Note_on_c, 6, 71, 86
8, 15799, Note_on_c, 6, 71, 0
8, 15800, Note_on_c, 6, 68, 86
8, 15839, Note_on_c, 6, 68, 0
8, 15840, Note_on_c, 6, 57, 86
8, 15879, Note_on_c, 6, 57, 0
8, 15880, Note_on_c, 6, 61, 86
8, 15919, Note_on_c, 6, 61, 0
8, 15920, Note_on_c, 6, 64, 86
8, 15959, Note_on_c, 6, 64, 0
8, 15960, Note_on_c, 6, 69, 86
8, 15999, Note_on_c, 6, 69, 0
8, 16000, Note_on_c, 6, 64, 86
8, 16039, Note_on_c, 6, 64, 0
8, 16040, Note_on_c, 6, 61, 86
8, 16079, Note_on_c, 6, 61, 0
8, 16080, Note_on_c, 6, 69, 86
8, 16119, Note_on_c, 6, 69, 0
8, 16120, Note_on_c, 6, 64, 86
8, 16159, Note_on_c, 6, 64, 0
8, 16160, Note_on_c, 6, 61, 86
8, 16199, Note_on_c, 6, 61, 0
8, 16200, Note_on_c, 6, 57, 85
8, 16239, Note_on_c, 6, 57, 0
8, 16240, Note_on_c, 6, 61, 85
8, 16279, Note_on_c, 6, 61, 0
8, 16280, Note_on_c, 6, 64, 85
8, 16319, Note_on_c, 6, 64, 0
8, 16320, Note_on_c, 6, 69, 85
8, 16359, Note_on_c, 6, 69, 0
8, 16360, Note_on_c, 6, 64, 85
8, 16399, Note_on_c, 6, 64, 0
8, 16400, Note_on_c, 6, 61, 85
8, 16439, Note_on_c, 6, 61, 0
8, 16440, Note_on_c, 6, 69, 85
8, 16479, Note_on_c, 6, 69, 0
8, 16480, Note_on_c, 6, 64, 85
8, 16519, Note_on_c, 6, 64, 0
8, 16520, Note_on_c, 6, 61, 85
8, 16559, Note_on_c, 6, 61, 0
8, 16560, Note_on_c, 6, 57, 86
8, 16599, Note_on_c, 6, 57, 0
8, 16600, Note_on_c, 6, 61, 86
8, 16639, Note_on_c, 6, 61, 0
8, 16640, Note_on_c, 6, 64, 86
8, 16679, Note_on_c, 6, 64, 0
8, 16680, Note_on_c, 6, 69, 86
8, 16720, Note_on_c, 6, 69, 0
8, 16720, Note_on_c, 6, 64, 86
8, 16759, Note_on_c, 6, 64, 0
8, 16760, Note_on_c, 6, 61, 86
8, 16799, Note_on_c, 6, 61, 0
8, 16800, Note_on_c, 6, 69, 86
8, 16840, Note_on_c, 6, 69, 0
8, 16840, Note_on_c, 6, 64, 86
8, 16879, Note_on_c, 6, 64, 0
8, 16880, Note_on_c, 6, 61, 86
8, 16919, Note_on_c, 6, 61, 0
8, 16920, Note_on_c, 6, 57, 86
8, 16959, Note_on_c, 6, 57, 0
8, 16960, Note_on_c, 6, 61, 86
8, 16999, Note_on_c, 6, 61, 0
8, 17000, Note_on_c, 6, 64, 86
8, 17039, Note_on_c, 6, 64, 0
8, 17040, Note_on_c, 6, 69, 86
8, 17080, Note_on_c, 6, 69, 0
8, 17080, Note_on_c, 6, 64, 86
8, 17119, Note_on_c, 6, 64, 0
8, 17120, Note_on_c, 6, 61, 86
8, 17159, Note_on_c, 6, 61, 0
8, 17160, Note_on_c, 6, 69, 86
8, 17200, Note_on_c, 6, 69, 0
8, 17200, Note_on_c, 6, 64, 86
8, 17239, Note_on_c, 6, 64, 0
8, 17240, Note_on_c, 6, 61, 86
8, 17279, Note_on_c, 6, 61, 0
8, 17280, Note_on_c, 6, 62, 85
8, 17319, Note_on_c, 6, 62, 0
8, 17320, Note_on_c, 6, 66, 85
8, 17359, Note_on_c, 6, 66, 0
8, 17360, Note_on_c, 6, 69, 85
8, 17399, Note_on_c, 6, 69, 0
8, 17400, Note_on_c, 6, 74, 85
8, 17440, Note_on_c, 6, 74, 0
8, 17440, Note_on_c, 6, 69, 85
8, 17479, Note_on_c, 6, 69, 0
8, 17480, Note_on_c, 6, 66, 85
8, 17519, Note_on_c, 6, 66, 0
8, 17520, Note_on_c, 6, 74, 85
8, 17560, Note_on_c, 6, 74, 0
8, 17560, Note_on_c, 6, 69, 85
8, 17599, Note_on_c, 6, 69, 0
8, 17600, Note_on_c, 6, 66, 85
8, 17639, Note_on_c, 6, 66, 0
8, 17640, Note_on_c, 6, 62, 85
8, 17679, Note_on_c, 6, 62, 0
8, 17680, Note_on_c, 6, 66, 85
8, 17719, Note_on_c, 6, 66, 0
8, 17720, Note_on_c, 6, 69, 85
8, 17759, Note_on_c, 6, 69, 0
8, 17760, Note_on_c, 6, 74, 85
8, 17799, Note_on_c, 6, 74, 0
8, 17800, Note_on_c, 6, 69, 85
8, 17839, Note_on_c, 6, 69, 0
8, 17840, Note_on_c, 6, 66, 85
8, 17879, Note_on_c, 6, 66, 0
8, 17880, Note_on_c, 6, 74, 85
8, 17919, Note_on_c, 6, 74, 0
8, 17920, Note_on_c, 6, 69, 85
8, 17959, Note_on_c, 6, 69, 0
8, 17960, Note_on_c, 6, 66, 85
8, 17999, Note_on_c, 6, 66, 0
8, 18000, Note_on_c, 6, 57, 85
8, 18039, Note_on_c, 6, 57, 0
8, 18040, Note_on_c, 6, 61, 85
8, 18079, Note_on_c, 6, 61, 0
8, 18080, Note_on_c, 6, 64, 85
8, 18119, Note_on_c, 6, 64, 0
8, 18120, Note_on_c, 6, 69, 85
8, 18159, Note_on_c, 6, 69, 0
8, 18160, Note_on_c, 6, 64, 85
8, 18199, Note_on_c, 6, 64, 0
8, 18200, Note_on_c, 6, 61, 85
8, 18239, Note_on_c, 6, 61, 0
8, 18240, Note_on_c, 6, 69, 85
8, 18280, Note_on_c, 6, 69, 0
8, 18280, Note_on_c, 6, 64, 85
8, 18319, Note_on_c, 6, 64, 0
8, 18320, Note_on_c, 6, 61, 85
8, 18359, Note_on_c, 6, 61, 0
8, 18360, Note_on_c, 6, 64, 85
8, 18399, Note_on_c, 6, 64, 0
8, 18400, Note_on_c, 6, 68, 85
8, 18440, Note_on_c, 6, 68, 0
8, 18440, Note_on_c, 6, 71, 85
8, 18479, Note_on_c, 6, 71, 0
8, 18480, Note_on_c, 6, 76, 85
8, 18520, Note_on_c, 6, 76, 0
8, 18520, Note_on_c, 6, 71, 85
8, 18559, Note_on_c, 6, 71, 0
8, 18560, Note_on_c, 6, 68, 85
8, 18599, Note_on_c, 6, 68, 0
8, 18600, Note_on_c, 6, 76, 85
8, 18639, Note_on_c, 6, 76, 0
8, 18640, Note_on_c, 6, 71, 85
8, 18679, Note_on_c, 6, 71, 0
8, 18680, Note_on_c, 6, 68, 85
8, 18719, Note_on_c, 6, 68, 0
8, 18720, Note_on_c, 6, 57, 85
8, 18759, Note_on_c, 6, 57, 0
8, 18760, Note_on_c, 6, 61, 85
8, 18799, Note_on_c, 6, 61, 0
8, 18800, Note_on_c, 6, 64, 85
8, 18839, Note_on_c, 6, 64, 0
8, 18840, Note_on_c, 6, 69, 85
8, 18879, Note_on_c, 6, 69, 0
8, 18880, Note_on_c, 6, 64, 85
8, 18919, Note_on_c, 6, 64, 0
8, 18920, Note_on_c, 6, 61, 85
8, 18959, Note_on_c, 6, 61, 0
8, 18960, Note_on_c, 6, 69, 85
8, 18999, Note_on_c, 6, 69, 0
8, 19000, Note_on_c, 6, 64, 85
8, 19039, Note_on_c, 6, 64, 0
8, 19040, Note_on_c, 6, 61, 85
8, 19079, Note_on_c, 6, 61, 0
8, 19080, Note_on_c, 6, 57, 85
8, 19119, Note_on_c, 6, 57, 0
8, 19120, Note_on_c, 6, 61, 85
8, 19159, Note_on_c, 6, 61, 0
8, 19160, Note_on_c, 6, 64, 85
8, 19199, Note_on_c, 6, 64, 0
8, 19200, Note_on_c, 6, 69, 85
8, 19239, Note_on_c, 6, 69, 0
8, 19240, Note_on_c, 6, 64, 85
8, 19279, Note_on_c, 6, 64, 0
8, 19280, Note_on_c, 6, 61, 85
8, 19319, Note_on_c, 6, 61, 0
8, 19320, Note_on_c, 6, 69, 85
8, 19359, Note_on_c, 6, 69, 0
8, 19360, Note_on_c, 6, 64, 85
8, 19399, Note_on_c, 6, 64, 0
8, 19400, Note_on_c, 6, 61, 85
8, 19439, Note_on_c, 6, 61, 0
8, 19440, Note_on_c, 6, 57, 86
8, 19479, Note_on_c, 6, 57, 0
8, 19480, Note_on_c, 6, 61, 86
8, 19519, Note_on_c, 6, 61, 0
8, 19520, Note_on_c, 6, 64, 86
8, 19559, Note_on_c, 6, 64, 0
8, 19560, Note_on_c, 6, 69, 86
8, 19600, Note_on_c, 6, 69, 0
8, 19600, Note_on_c, 6, 64, 86
8, 19639, Note_on_c, 6, 64, 0
8, 19640, Note_on_c, 6, 61, 86
8, 19679, Note_on_c, 6, 61, 0
8, 19680, Note_on_c, 6, 69, 86
8, 19720, Note_on_c, 6, 69, 0
8, 19720, Note_on_c, 6, 64, 86
8, 19759, Note_on_c, 6, 64, 0
8, 19760, Note_on_c, 6, 61, 86
8, 19799, Note_on_c, 6, 61, 0
8, 19800, Note_on_c, 6, 62, 87
8, 19839, Note_on_c, 6, 62, 0
8, 19840, Note_on_c, 6, 66, 85
8, 19880, Note_on_c, 6, 66, 0
8, 19880, Note_on_c, 6, 69, 85
8, 19919, Note_on_c, 6, 69, 0
8, 19920, Note_on_c, 6, 74, 85
8, 19960, Note_on_c, 6, 74, 0
8, 19960, Note_on_c, 6, 69, 85
8, 19999, Note_on_c, 6, 69, 0
8, 20000, Note_on_c, 6, 66, 85
8, 20039, Note_on_c, 6, 66, 0
8, 20040, Note_on_c, 6, 74, 85
8, 20079, Note_on_c, 6, 74, 0
8, 20080, Note_on_c, 6, 69, 85
8, 20119, Note_on_c, 6, 69, 0
8, 20120, Note_on_c, 6, 66, 85
8, 20159, Note_on_c, 6, 66, 0
8, 20160, Note_on_c, 6, 57, 85
8, 20199, Note_on_c, 6, 57, 0
8, 20200, Note_on_c, 6, 61, 85
8, 20239, Note_on_c, 6, 61, 0
8, 20240, Note_on_c, 6, 64, 85
8, 20279, Note_on_c, 6, 64, 0
8, 20280, Note_on_c, 6, 69, 85
8, 20319, Note_on_c, 6, 69, 0
8, 20320, Note_on_c, 6, 64, 85
8, 20359, Note_on_c, 6, 64, 0
8, 20360, Note_on_c, 6, 61, 85
8, 20399, Note_on_c, 6, 61, 0
8, 20400, Note_on_c, 6, 69, 85
8, 20439, Note_on_c, 6, 69, 0
8, 20440, Note_on_c, 6, 64, 85
8, 20479, Note_on_c, 6, 64, 0
8, 20480, Note_on_c, 6, 61, 85
8, 20519, Note_on_c, 6, 61, 0
8, 20520, Note_on_c, 6, 57, 85
8, 20559, Note_on_c, 6, 57, 0
8, 20560, Note_on_c, 6, 61, 85
8, 20599, Note_on_c, 6, 61, 0
8, 20600, Note_on_c, 6, 64, 85
8, 20639, Note_on_c, 6, 64, 0
8, 20640, Note_on_c, 6, 69, 85
8, 20679, Note_on_c, 6, 69, 0
8, 20680, Note_on_c, 6, 64, 85
8, 20719, Note_on_c, 6, 64, 0
8, 20720, Note_on_c, 6, 61, 85
8, 20759, Note_on_c, 6, 61, 0
8, 20760, Note_on_c, 6, 69, 85
8, 20799, Note_on_c, 6, 69, 0
8, 20800, Note_on_c, 6, 64, 85
8, 20839, Note_on_c, 6, 64, 0
8, 20840, Note_on_c, 6, 61, 85
8, 20879, Note_on_c, 6, 61, 0
8, 20880, Note_on_c, 6, 57, 85
8, 20919, Note_on_c, 6, 57, 0
8, 20920, Note_on_c, 6, 61, 85
8, 20959, Note_on_c, 6, 61, 0
8, 20960, Note_on_c, 6, 64, 85
8, 20999, Note_on_c, 6, 64, 0
8, 21000, Note_on_c, 6, 69, 85
8, 21039, Note_on_c, 6, 69, 0
8, 21040, Note_on_c, 6, 64, 85
8, 21079, Note_on_c, 6, 64, 0
8, 21080, Note_on_c, 6, 61, 85
8, 21119, Note_on_c, 6, 61, 0
8, 21120, Note_on_c, 6, 69, 85
8, 21159, Note_on_c, 6, 69, 0
8, 21160, Note_on_c, 6, 64, 85
8, 21199, Note_on_c, 6, 64, 0
8, 21200, Note_on_c, 6, 61, 85
8, 21239, Note_on_c, 6, 61, 0
8, 21240, Note_on_c, 6, 64, 85
8, 21279, Note_on_c, 6, 64, 0
8, 21280, Note_on_c, 6, 68, 85
8, 21319, Note_on_c, 6, 68, 0
8, 21320, Note_on_c, 6, 71, 85
8, 21359, Note_on_c, 6, 71, 0
8, 21360, Note_on_c, 6, 76, 85
8, 21399, Note_on_c, 6, 76, 0
8, 21400, Note_on_c, 6, 71, 85
8, 21439, Note_on_c, 6, 71, 0
8, 21440, Note_on_c, 6, 68, 85
8, 21479, Note_on_c, 6, 68, 0
8, 21480, Note_on_c, 6, 76, 85
8, 21519, Note_on_c, 6, 76, 0
8, 21520, Note_on_c, 6, 71, 85
8, 21559, Note_on_c, 6, 71, 0
8, 21560, Note_on_c, 6, 68, 85
8, 21599, Note_on_c, 6, 68, 0
8, 21600, Note_on_c, 6, 57, 85
8, 21639, Note_on_c, 6, 57, 0
8, 21640, Note_on_c, 6, 61, 85
8, 21679, Note_on_c, 6, 61, 0
8, 21680, Note_on_c, 6, 64, 85
8, 21719, Note_on_c, 6, 64, 0
8, 21720, Note_on_c, 6, 69, 85
8, 21759, Note_on_c, 6, 69, 0
8, 21760, Note_on_c, 6, 64, 85
8, 21799, Note_on_c, 6, 64, 0
8, 21800, Note_on_c, 6, 61, 85
8, 21839, Note_on_c, 6, 61, 0
8, 21840, Note_on_c, 6, 69, 85
8, 21879, Note_on_c, 6, 69, 0
8, 21880, Note_on_c, 6, 64, 85
8, 21919, Note_on_c, 6, 64, 0
8, 21920, Note_on_c, 6, 61, 85
8, 21959, Note_on_c, 6, 61, 0
8, 21960, Note_on_c, 6, 57, 85
8, 21999, Note_on_c, 6, 57, 0
8, 22000, Note_on_c, 6, 61, 85
8, 22039, Note_on_c, 6, 61, 0
8, 22040, Note_on_c, 6, 64, 85
8, 22079, Note_on_c, 6, 64, 0
8, 22080, Note_on_c, 6, 69, 85
8, 22119, Note_on_c, 6, 69, 0
8, 22120, Note_on_c, 6, 64, 85
8, 22159, Note_on_c, 6, 64, 0
8, 22160, Note_on_c, 6, 61, 85
8, 22199, Note_on_c, 6, 61, 0
8, 22200, Note_on_c, 6, 69, 85
8, 22239, Note_on_c, 6, 69, 0
8, 22240, Note_on_c, 6, 64, 85
8, 22279, Note_on_c, 6, 64, 0
8, 22280, Note_on_c, 6, 61, 85
8, 22319, Note_on_c, 6, 61, 0
8, 22320, Note_on_c, 6, 57, 85
8, 22359, Note_on_c, 6, 57, 0
8, 22360, Note_on_c, 6, 61, 85
8, 22399, Note_on_c, 6, 61, 0
8, 22400, Note_on_c, 6, 64, 85
8, 22439, Note_on_c, 6, 64, 0
8, 22440, Note_on_c, 6, 69, 85
8, 22479, Note_on_c, 6, 69, 0
8, 22480, Note_on_c, 6, 64, 85
8, 22519, Note_on_c, 6, 64, 0
8, 22520, Note_on_c, 6, 61, 85
8, 22559, Note_on_c, 6, 61, 0
8, 22560, Note_on_c, 6, 69, 85
8, 22599, Note_on_c, 6, 69, 0
8, 22600, Note_on_c, 6, 64, 85
8, 22639, Note_on_c, 6, 64, 0
8, 22640, Note_on_c, 6, 61, 85
8, 22679, Note_on_c, 6, 61, 0
8, 22680, Note_on_c, 6, 62, 85
8, 22719, Note_on_c, 6, 62, 0
8, 22720, Note_on_c, 6, 66, 85
8, 22759, Note_on_c, 6, 66, 0
8, 22760, Note_on_c, 6, 69, 85
8, 22799, Note_on_c, 6, 69, 0
8, 22800, Note_on_c, 6, 74, 85
8, 22839, Note_on_c, 6, 74, 0
8, 22840, Note_on_c, 6, 69, 85
8, 22879, Note_on_c, 6, 69, 0
8, 22880, Note_on_c, 6, 66, 85
8, 22919, Note_on_c, 6, 66, 0
8, 22920, Note_on_c, 6, 74, 85
8, 22959, Note_on_c, 6, 74, 0
8, 22960, Note_on_c, 6, 69, 85
8, 22999, Note_on_c, 6, 69, 0
8, 23000, Note_on_c, 6, 66, 85
8, 23039, Note_on_c, 6, 66, 0
8, 23040, Note_on_c, 6, 57, 85
8, 23079, Note_on_c, 6, 57, 0
8, 23080, Note_on_c, 6, 61, 85
8, 23119, Note_on_c, 6, 61, 0
8, 23120, Note_on_c, 6, 64, 85
8, 23159, Note_on_c, 6, 64, 0
8, 23160, Note_on_c, 6, 69, 85
8, 23199, Note_on_c, 6, 69, 0
8, 23200, Note_on_c, 6, 64, 85
8, 23239, Note_on_c, 6, 64, 0
8, 23240, Note_on_c, 6, 61, 85
8, 23279, Note_on_c, 6, 61, 0
8, 23280, Note_on_c, 6, 69, 85
8, 23319, Note_on_c, 6, 69, 0
8, 23320, Note_on_c, 6, 64, 85
8, 23359, Note_on_c, 6, 64, 0
8, 23360, Note_on_c, 6, 61, 85
8, 23399, Note_on_c, 6, 61, 0
8, 23400, Note_on_c, 6, 57, 85
8, 23439, Note_on_c, 6, 57, 0
8, 23440, Note_on_c, 6, 61, 85
8, 23479, Note_on_c, 6, 61, 0
8, 23480, Note_on_c, 6, 64, 85
8, 23519, Note_on_c, 6, 64, 0
8, 23520, Note_on_c, 6, 69, 85
8, 23559, Note_on_c, 6, 69, 0
8, 23560, Note_on_c, 6, 64, 85
8, 23599, Note_on_c, 6, 64, 0
8, 23600, Note_on_c, 6, 61, 85
8, 23639, Note_on_c, 6, 61, 0
8, 23640, Note_on_c, 6, 69, 85
8, 23679, Note_on_c, 6, 69, 0
8, 23680, Note_on_c, 6, 64, 85
8, 23719, Note_on_c, 6, 64, 0
8, 23720, Note_on_c, 6, 61, 85
8, 23759, Note_on_c, 6, 61, 0
8, 23760, Note_on_c, 6, 57, 85
8, 23799, Note_on_c, 6, 57, 0
8, 23800, Note_on_c, 6, 61, 85
8, 23839, Note_on_c, 6, 61, 0
8, 23840, Note_on_c, 6, 64, 85
8, 23879, Note_on_c, 6, 64, 0
8, 23880, Note_on_c, 6, 69, 85
8, 23919, Note_on_c, 6, 69, 0
8, 23920, Note_on_c, 6, 64, 85
8, 23959, Note_on_c, 6, 64, 0
8, 23960, Note_on_c, 6, 61, 86
8, 23999, Note_on_c, 6, 61, 0
8, 24000, Note_on_c, 6, 69, 86
8, 24039, Note_on_c, 6, 69, 0
8, 24040, Note_on_c, 6, 64, 86
8, 24079, Note_on_c, 6, 64, 0
8, 24080, Note_on_c, 6, 61, 86
8, 24119, Note_on_c, 6, 61, 0
8, 24120, Note_on_c, 6, 64, 86
8, 24159, Note_on_c, 6, 64, 0
8, 24160, Note_on_c, 6, 68, 86
8, 24199, Note_on_c, 6, 68, 0
8, 24200, Note_on_c, 6, 71, 86
8, 24239, Note_on_c, 6, 71, 0
8, 24240, Note_on_c, 6, 76, 86
8, 24279, Note_on_c, 6, 76, 0
8, 24280, Note_on_c, 6, 71, 86
8, 24319, Note_on_c, 6, 71, 0
8, 24320, Note_on_c, 6, 68, 86
8, 24359, Note_on_c, 6, 68, 0
8, 24360, Note_on_c, 6, 76, 86
8, 24399, Note_on_c, 6, 76, 0
8, 24400, Note_on_c, 6, 71, 86
8, 24439, Note_on_c, 6, 71, 0
8, 24440, Note_on_c, 6, 68, 86
8, 24479, Note_on_c, 6, 68, 0
8, 24480, Note_on_c, 6, 57, 86
8, 24519, Note_on_c, 6, 57, 0
8, 24520, Note_on_c, 6, 61, 86
8, 24559, Note_on_c, 6, 61, 0
8, 24560, Note_on_c, 6, 64, 86
8, 24599, Note_on_c, 6, 64, 0
8, 24600, Note_on_c, 6, 69, 86
8, 24639, Note_on_c, 6, 69, 0
8, 24640, Note_on_c, 6, 64, 86
8, 24679, Note_on_c, 6, 64, 0
8, 24680, Note_on_c, 6, 61, 86
8, 24719, Note_on_c, 6, 61, 0
8, 24720, Note_on_c, 6, 69, 86
8, 24759, Note_on_c, 6, 69, 0
8, 24760, Note_on_c, 6, 64, 86
8, 24799, Note_on_c, 6, 64, 0
8, 24800, Note_on_c, 6, 61, 86
8, 24839, Note_on_c, 6, 61, 0
8, 24840, Note_on_c, 6, 57, 85
8, 24879, Note_on_c, 6, 57, 0
8, 24880, Note_on_c, 6, 61, 85
8, 24919, Note_on_c, 6, 61, 0
8, 24920, Note_on_c, 6, 64, 85
8, 24959, Note_on_c, 6, 64, 0
8, 24960, Note_on_c, 6, 69, 85
8, 24999, Note_on_c, 6, 69, 0
8, 25000, Note_on_c, 6, 64, 85
8, 25039, Note_on_c, 6, 64, 0
8, 25040, Note_on_c, 6, 61, 85
8, 25079, Note_on_c, 6, 61, 0
8, 25080, Note_on_c, 6, 69, 85
8, 25119, Note_on_c, 6, 69, 0
8, 25120, Note_on_c, 6, 64, 85
8, 25159, Note_on_c, 6, 64, 0
8, 25160, Note_on_c, 6, 61, 85
8, 25199, Note_on_c, 6, 61, 0
8, 25200, Note_on_c, 6, 57, 86
8, 25239, Note_on_c, 6, 57, 0
8, 25240, Note_on_c, 6, 61, 86
8, 25279, Note_on_c, 6, 61, 0
8, 25280, Note_on_c, 6, 64, 86
8, 25319, Note_on_c, 6, 64, 0
8, 25320, Note_on_c, 6, 69, 86
8, 25359, Note_on_c, 6, 69, 0
8, 25360, Note_on_c, 6, 64, 86
8, 25399, Note_on_c, 6, 64, 0
8, 25400, Note_on_c, 6, 61, 86
8, 25439, Note_on_c, 6, 61, 0
8, 25440, Note_on_c, 6, 69, 86
8, 25479, Note_on_c, 6, 69, 0
8, 25480, Note_on_c, 6, 64, 86
8, 25519, Note_on_c, 6, 64, 0
8, 25520, Note_on_c, 6, 61, 86
8, 25559, Note_on_c, 6, 61, 0
8, 25560, Note_on_c, 6, 64, 86
8, 25599, Note_on_c, 6, 64, 0
8, 25600, Note_on_c, 6, 68, 86
8, 25639, Note_on_c, 6, 68, 0
8, 25640, Note_on_c, 6, 71, 86
8, 25679, Note_on_c, 6, 71, 0
8, 25680, Note_on_c, 6, 76, 86
8, 25719, Note_on_c, 6, 76, 0
8, 25720, Note_on_c, 6, 71, 86
8, 25759, Note_on_c, 6, 71, 0
8, 25760, Note_on_c, 6, 68, 86
8, 25799, Note_on_c, 6, 68, 0
8, 25800, Note_on_c, 6, 76, 86
8, 25839, Note_on_c, 6, 76, 0
8, 25840, Note_on_c, 6, 71, 86
8, 25879, Note_on_c, 6, 71, 0
8, 25880, Note_on_c, 6, 68, 86
8, 25919, Note_on_c, 6, 68, 0
8, 25920, Note_on_c, 6, 57, 86
8, 25959, Note_on_c, 6, 57, 0
8, 25960, Note_on_c, 6, 61, 86
8, 25999, Note_on_c, 6, 61, 0
8, 26000, Note_on_c, 6, 64, 86
8, 26039, Note_on_c, 6, 64, 0
8, 26040, Note_on_c, 6, 69, 86
8, 26079, Note_on_c, 6, 69, 0
8, 26080, Note_on_c, 6, 64, 86
8, 26119, Note_on_c, 6, 64, 0
8, 26120, Note_on_c, 6, 61, 86
8, 26159, Note_on_c, 6, 61, 0
8, 26160, Note_on_c, 6, 69, 86
8, 26199, Note_on_c, 6, 69, 0
8, 26200, Note_on_c, 6, 64, 86
8, 26239, Note_on_c, 6, 64, 0
8, 26240, Note_on_c, 6, 61, 86
8, 26279, Note_on_c, 6, 61, 0
8, 26280, Note_on_c, 6, 57, 86
8, 26319, Note_on_c, 6, 57, 0
8, 26320, Note_on_c, 6, 61, 86
8, 26359, Note_on_c, 6, 61, 0
8, 26360, Note_on_c, 6, 64, 86
8, 26399, Note_on_c, 6, 64, 0
8, 26400, Note_on_c, 6, 69, 86
8, 26439, Note_on_c, 6, 69, 0
8, 26440, Note_on_c, 6, 64, 86
8, 26479, Note_on_c, 6, 64, 0
8, 26480, Note_on_c, 6, 61, 86
8, 26519, Note_on_c, 6, 61, 0
8, 26520, Note_on_c, 6, 69, 86
8, 26559, Note_on_c, 6, 69, 0
8, 26560, Note_on_c, 6, 64, 86
8, 26599, Note_on_c, 6, 64, 0
8, 26600, Note_on_c, 6, 61, 86
8, 26639, Note_on_c, 6, 61, 0
8, 26640, Note_on_c, 6, 62, 86
8, 26679, Note_on_c, 6, 62, 0
8, 26680, Note_on_c, 6, 66, 86
8, 26719, Note_on_c, 6, 66, 0
8, 26720, Note_on_c, 6, 69, 86
8, 26759, Note_on_c, 6, 69, 0
8, 26760, Note_on_c, 6, 74, 86
8, 26799, Note_on_c, 6, 74, 0
8, 26800, Note_on_c, 6, 69, 86
8, 26839, Note_on_c, 6, 69, 0
8, 26840, Note_on_c, 6, 66, 86
8, 26879, Note_on_c, 6, 66, 0
8, 26880, Note_on_c, 6, 74, 86
8, 26919, Note_on_c, 6, 74, 0
8, 26920, Note_on_c, 6, 69, 86
8, 26959, Note_on_c, 6, 69, 0
8, 26960, Note_on_c, 6, 66, 86
8, 26999, Note_on_c, 6, 66, 0
8, 27000, Note_on_c, 6, 64, 86
8, 27039, Note_on_c, 6, 64, 0
8, 27040, Note_on_c, 6, 68, 86
8, 27079, Note_on_c, 6, 68, 0
8, 27080, Note_on_c, 6, 71, 86
8, 27119, Note_on_c, 6, 71, 0
8, 27120, Note_on_c, 6, 76, 86
8, 27159, Note_on_c, 6, 76, 0
8, 27160, Note_on_c, 6, 71, 86
8, 27199, Note_on_c, 6, 71, 0
8, 27200, Note_on_c, 6, 68, 86
8, 27239, Note_on_c, 6, 68, 0
8, 27240, Note_on_c, 6, 76, 86
8, 27279, Note_on_c, 6, 76, 0
8, 27280, Note_on_c, 6, 71, 86
8, 27319, Note_on_c, 6, 71, 0
8, 27320, Note_on_c, 6, 68, 86
8, 27359, Note_on_c, 6, 68, 0
8, 27360, Note_on_c, 6, 57, 86
8, 27399, Note_on_c, 6, 57, 0
8, 27400, Note_on_c, 6, 61, 86
8, 27439, Note_on_c, 6, 61, 0
8, 27440, Note_on_c, 6, 64, 86
8, 27479, Note_on_c, 6, 64, 0
8, 27480, Note_on_c, 6, 69, 86
8, 27519, Note_on_c, 6, 69, 0
8, 27520, Note_on_c, 6, 64, 86
8, 27559, Note_on_c, 6, 64, 0
8, 27560, Note_on_c, 6, 61, 86
8, 27599, Note_on_c, 6, 61, 0
8, 27600, Note_on_c, 6, 69, 86
8, 27639, Note_on_c, 6, 69, 0
8, 27640, Note_on_c, 6, 64, 86
8, 27679, Note_on_c, 6, 64, 0
8, 27680, Note_on_c, 6, 61, 86
8, 27719, Note_on_c, 6, 61, 0
8, 27720, Note_on_c, 6, 57, 85
8, 27759, Note_on_c, 6, 57, 0
8, 27760, Note_on_c, 6, 61, 85
8, 27799, Note_on_c, 6, 61, 0
8, 27800, Note_on_c, 6, 64, 85
8, 27839, Note_on_c, 6, 64, 0
8, 27840, Note_on_c, 6, 69, 85
8, 27879, Note_on_c, 6, 69, 0
8, 27880, Note_on_c, 6, 64, 85
8, 27919, Note_on_c, 6, 64, 0
8, 27920, Note_on_c, 6, 61, 85
8, 27959, Note_on_c, 6, 61, 0
8, 27960, Note_on_c, 6, 69, 85
8, 27999, Note_on_c, 6, 69, 0
8, 28000, Note_on_c, 6, 64, 85
8, 28039, Note_on_c, 6, 64, 0
8, 28040, Note_on_c, 6, 61, 85
8, 28079, Note_on_c, 6, 61, 0
8, 28080, Note_on_c, 6, 57, 86
8, 28119, Note_on_c, 6, 57, 0
8, 28120, Note_on_c, 6, 61, 86
8, 28159, Note_on_c, 6, 61, 0
8, 28160, Note_on_c, 6, 64, 86
8, 28199, Note_on_c, 6, 64, 0
8, 28200, Note_on_c, 6, 69, 86
8, 28239, Note_on_c, 6, 69, 0
8, 28240, Note_on_c, 6, 64, 86
8, 28279, Note_on_c, 6, 64, 0
8, 28280, Note_on_c, 6, 61, 86
8, 28319, Note_on_c, 6, 61, 0
8, 28320, Note_on_c, 6, 69, 86
8, 28359, Note_on_c, 6, 69, 0
8, 28360, Note_on_c, 6, 64, 86
8, 28399, Note_on_c, 6, 64, 0
8, 28400, Note_on_c, 6, 61, 86
8, 28439, Note_on_c, 6, 61, 0
8, 28440, Note_on_c, 6, 57, 86
8, 28479, Note_on_c, 6, 57, 0
8, 28480, Note_on_c, 6, 61, 86
8, 28519, Note_on_c, 6, 61, 0
8, 28520, Note_on_c, 6, 64, 86
8, 28559, Note_on_c, 6, 64, 0
8, 28560, Note_on_c, 6, 69, 86
8, 28599, Note_on_c, 6, 69, 0
8, 28600, Note_on_c, 6, 64, 86
8, 28639, Note_on_c, 6, 64, 0
8, 28640, Note_on_c, 6, 61, 86
8, 28679, Note_on_c, 6, 61, 0
8, 28680, Note_on_c, 6, 69, 86
8, 28719, Note_on_c, 6, 69, 0
8, 28720, Note_on_c, 6, 64, 86
8, 28759, Note_on_c, 6, 64, 0
8, 28760, Note_on_c, 6, 61, 86
8, 28799, Note_on_c, 6, 61, 0
8, 28800, Note_on_c, 6, 62, 86
8, 28839, Note_on_c, 6, 62, 0
8, 28840, Note_on_c, 6, 66, 86
8, 28879, Note_on_c, 6, 66, 0
8, 28880, Note_on_c, 6, 69, 86
8, 28919, Note_on_c, 6, 69, 0
8, 28920, Note_on_c, 6, 74, 86
8, 28959, Note_on_c, 6, 74, 0
8, 28960, Note_on_c, 6, 69, 86
8, 28999, Note_on_c, 6, 69, 0
8, 29000, Note_on_c, 6, 66, 86
8, 29039, Note_on_c, 6, 66, 0
8, 29040, Note_on_c, 6, 74, 86
8, 29079, Note_on_c, 6, 74, 0
8, 29080, Note_on_c, 6, 69, 86
8, 29119, Note_on_c, 6, 69, 0
8, 29120, Note_on_c, 6, 66, 86
8, 29159, Note_on_c, 6, 66, 0
8, 29160, Note_on_c, 6, 62, 86
8, 29199, Note_on_c, 6, 62, 0
8, 29200, Note_on_c, 6, 66, 86
8, 29239, Note_on_c, 6, 66, 0
8, 29240, Note_on_c, 6, 69, 86
8, 29279, Note_on_c, 6, 69, 0
8, 29280, Note_on_c, 6, 74, 86
8, 29319, Note_on_c, 6, 74, 0
8, 29320, Note_on_c, 6, 69, 86
8, 29359, Note_on_c, 6, 69, 0
8, 29360, Note_on_c, 6, 66, 86
8, 29399, Note_on_c, 6, 66, 0
8, 29400, Note_on_c, 6, 74, 86
8, 29439, Note_on_c, 6, 74, 0
8, 29440, Note_on_c, 6, 69, 86
8, 29479, Note_on_c, 6, 69, 0
8, 29480, Note_on_c, 6, 66, 86
8, 29519, Note_on_c, 6, 66, 0
8, 29520, Note_on_c, 6, 57, 86
8, 29559, Note_on_c, 6, 57, 0
8, 29560, Note_on_c, 6, 61, 86
8, 29599, Note_on_c, 6, 61, 0
8, 29600, Note_on_c, 6, 64, 86
8, 29639, Note_on_c, 6, 64, 0
8, 29640, Note_on_c, 6, 69, 86
8, 29679, Note_on_c, 6, 69, 0
8, 29680, Note_on_c, 6, 64, 86
8, 29719, Note_on_c, 6, 64, 0
8, 29720, Note_on_c, 6, 61, 86
8, 29759, Note_on_c, 6, 61, 0
8, 29760, Note_on_c, 6, 69, 86
8, 29799, Note_on_c, 6, 69, 0
8, 29800, Note_on_c, 6, 64, 86
8, 29839, Note_on_c, 6, 64, 0
8, 29840, Note_on_c, 6, 61, 86
8, 29879, Note_on_c, 6, 61, 0
8, 29880, Note_on_c, 6, 64, 86
8, 29919, Note_on_c, 6, 64, 0
8, 29920, Note_on_c, 6, 68, 86
8, 29959, Note_on_c, 6, 68, 0
8, 29960, Note_on_c, 6, 71, 86
8, 29999, Note_on_c, 6, 71, 0
8, 30000, Note_on_c, 6, 76, 86
8, 30039, Note_on_c, 6, 76, 0
8, 30040, Note_on_c, 6, 71, 86
8, 30079, Note_on_c, 6, 71, 0
8, 30080, Note_on_c, 6, 68, 86
8, 30119, Note_on_c, 6, 68, 0
8, 30120, Note_on_c, 6, 76, 86
8, 30159, Note_on_c, 6, 76, 0
8, 30160, Note_on_c, 6, 71, 86
8, 30199, Note_on_c, 6, 71, 0
8, 30200, Note_on_c, 6, 68, 86
8, 30239, Note_on_c, 6, 68, 0
8, 30240, Note_on_c, 6, 57, 86
8, 30279, Note_on_c, 6, 57, 0
8, 30280, Note_on_c, 6, 61, 86
8, 30319, Note_on_c, 6, 61, 0
8, 30320, Note_on_c, 6, 64, 86
8, 30359, Note_on_c, 6, 64, 0
8, 30360, Note_on_c, 6, 69, 86
8, 30399, Note_on_c, 6, 69, 0
8, 30400, Note_on_c, 6, 64, 86
8, 30439, Note_on_c, 6, 64, 0
8, 30440, Note_on_c, 6, 61, 86
8, 30479, Note_on_c, 6, 61, 0
8, 30480, Note_on_c, 6, 69, 86
8, 30519, Note_on_c, 6, 69, 0
8, 30520, Note_on_c, 6, 64, 86
8, 30559, Note_on_c, 6, 64, 0
8, 30560, Note_on_c, 6, 61, 86
8, 30599, Note_on_c, 6, 61, 0
8, 30600, Note_on_c, 6, 57, 85
8, 30639, Note_on_c, 6, 57, 0
8, 30640, Note_on_c, 6, 61, 85
8, 30679, Note_on_c, 6, 61, 0
8, 30680, Note_on_c, 6, 64, 85
8, 30719, Note_on_c, 6, 64, 0
8, 30720, Note_on_c, 6, 69, 85
8, 30759, Note_on_c, 6, 69, 0
8, 30760, Note_on_c, 6, 64, 85
8, 30799, Note_on_c, 6, 64, 0
8, 30800, Note_on_c, 6, 61, 85
8, 30839, Note_on_c, 6, 61, 0
8, 30840, Note_on_c, 6, 69, 85
8, 30879, Note_on_c, 6, 69, 0
8, 30880, Note_on_c, 6, 64, 85
8, 30919, Note_on_c, 6, 64, 0
8, 30920, Note_on_c, 6, 61, 85
8, 30959, Note_on_c, 6, 61, 0
8, 30960, Note_on_c, 6, 57, 85
8, 30999, Note_on_c, 6, 57, 0
8, 31000, Note_on_c, 6, 61, 85
8, 31039, Note_on_c, 6, 61, 0
8, 31040, Note_on_c, 6, 64, 85
8, 31079, Note_on_c, 6, 64, 0
8, 31080, Note_on_c, 6, 69, 85
8, 31119, Note_on_c, 6, 69, 0
8, 31120, Note_on_c, 6, 64, 85
8, 31159, Note_on_c, 6, 64, 0
8, 31160, Note_on_c, 6, 61, 85
8, 31199, Note_on_c, 6, 61, 0
8, 31200, Note_on_c, 6, 69, 85
8, 31239, Note_on_c, 6, 69, 0
8, 31240, Note_on_c, 6, 64, 85
8, 31279, Note_on_c, 6, 64, 0
8, 31280, Note_on_c, 6, 61, 85
8, 31319, Note_on_c, 6, 61, 0
8, 31320, Note_on_c, 6, 64, 85
8, 31359, Note_on_c, 6, 64, 0
8, 31360, Note_on_c, 6, 68, 85
8, 31399, Note_on_c, 6, 68, 0
8, 31400, Note_on_c, 6, 71, 85
8, 31439, Note_on_c, 6, 71, 0
8, 31440, Note_on_c, 6, 76, 85
8, 31479, Note_on_c, 6, 76, 0
8, 31480, Note_on_c, 6, 71, 85
8, 31519, Note_on_c, 6, 71, 0
8, 31520, Note_on_c, 6, 68, 85
8, 31559, Note_on_c, 6, 68, 0
8, 31560, Note_on_c, 6, 76, 85
8, 31599, Note_on_c, 6, 76, 0
8, 31600, Note_on_c, 6, 71, 85
8, 31639, Note_on_c, 6, 71, 0
8, 31640, Note_on_c, 6, 68, 85
8, 31679, Note_on_c, 6, 68, 0
8, 31680, Note_on_c, 6, 65, 85
8, 31719, Note_on_c, 6, 65, 0
8, 31720, Note_on_c, 6, 69, 85
8, 31759, Note_on_c, 6, 69, 0
8, 31760, Note_on_c, 6, 72, 85
8, 31799, Note_on_c, 6, 72, 0
8, 31800, Note_on_c, 6, 77, 85
8, 31839, Note_on_c, 6, 77, 0
8, 31840, Note_on_c, 6, 72, 85
8, 31879, Note_on_c, 6, 72, 0
8, 31880, Note_on_c, 6, 69, 86
8, 31919, Note_on_c, 6, 69, 0
8, 31920, Note_on_c, 6, 77, 86
8, 31959, Note_on_c, 6, 77, 0
8, 31960, Note_on_c, 6, 72, 86
8, 31999, Note_on_c, 6, 72, 0
8, 32000, Note_on_c, 6, 69, 86
8, 32039, Note_on_c, 6, 69, 0
8, 32040, Note_on_c, 6, 67, 86
8, 32079, Note_on_c, 6, 67, 0
8, 32080, Note_on_c, 6, 71, 86
8, 32119, Note_on_c, 6, 71, 0
8, 32120, Note_on_c, 6, 74, 86
8, 32159, Note_on_c, 6, 74, 0
8, 32160, Note_on_c, 6, 79, 86
8, 32199, Note_on_c, 6, 79, 0
8, 32200, Note_on_c, 6, 74, 86
8, 32239, Note_on_c, 6, 74, 0
8, 32240, Note_on_c, 6, 71, 86
8, 32279, Note_on_c, 6, 71, 0
8, 32280, Note_on_c, 6, 79, 86
8, 32319, Note_on_c, 6, 79, 0
8, 32320, Note_on_c, 6, 74, 86
8, 32359, Note_on_c, 6, 74, 0
8, 32360, Note_on_c, 6, 71, 86
8, 32399, Note_on_c, 6, 71, 0
8, 32400, Note_on_c, 6, 69, 86
8, 33119, Note_on_c, 6, 69, 0
8, 33119, End_track
9, 0, Start_track
9, 0, MIDI_port, 0
9, 0, Title_t, "DRUMS"
9, 165, Control_c, 9, 0, 0
9, 166, Control_c, 9, 32, 0
9, 167, Program_c, 9, 0
9, 168, Control_c, 9, 7, 115
9, 720, Note_on_c, 9, 36, 115
9, 720, Note_on_c, 9, 42, 90
9, 759, Note_on_c, 9, 42, 0
9, 760, Note_on_c, 9, 42, 90
9, 799, Note_on_c, 9, 42, 0
9, 800, Note_on_c, 9, 42, 90
9, 839, Note_on_c, 9, 42, 0
9, 840, Note_on_c, 9, 42, 90
9, 879, Note_on_c, 9, 42, 0
9, 880, Note_on_c, 9, 42, 90
9, 919, Note_on_c, 9, 42, 0
9, 920, Note_on_c, 9, 42, 90
9, 959, Note_on_c, 9, 42, 0
9, 960, Note_on_c, 9, 36, 0
9, 960, Note_on_c, 9, 42, 90
9, 960, Note_on_c, 9, 38, 100
9, 999, Note_on_c, 9, 42, 0
9, 1000, Note_on_c, 9, 36, 115
9, 1000, Note_on_c, 9, 42, 90
9, 1039, Note_on_c, 9, 42, 0
9, 1039, Note_on_c, 9, 36, 0
9, 1040, Note_on_c, 9, 36, 115
9, 1040, Note_on_c, 9, 42, 90
9, 1079, Note_on_c, 9, 42, 0
9, 1079, Note_on_c, 9, 36, 0
9, 1080, Note_on_c, 9, 38, 0
9, 1080, Note_on_c, 9, 36, 115
9, 1080, Note_on_c, 9, 42, 90
9, 1119, Note_on_c, 9, 42, 0
9, 1120, Note_on_c, 9, 42, 90
9, 1159, Note_on_c, 9, 42, 0
9, 1160, Note_on_c, 9, 42, 90
9, 1199, Note_on_c, 9, 42, 0
9, 1200, Note_on_c, 9, 42, 90
9, 1239, Note_on_c, 9, 42, 0
9, 1240, Note_on_c, 9, 42, 90
9, 1279, Note_on_c, 9, 42, 0
9, 1280, Note_on_c, 9, 42, 90
9, 1319, Note_on_c, 9, 42, 0
9, 1320, Note_on_c, 9, 42, 90
9, 1320, Note_on_c, 9, 38, 100
9, 1359, Note_on_c, 9, 42, 0
9, 1360, Note_on_c, 9, 36, 0
9, 1360, Note_on_c, 9, 42, 90
9, 1399, Note_on_c, 9, 42, 0
9, 1400, Note_on_c, 9, 42, 90
9, 1439, Note_on_c, 9, 42, 0
9, 1440, Note_on_c, 9, 38, 0
9, 1440, Note_on_c, 9, 36, 115
9, 1440, Note_on_c, 9, 42, 90
9, 1479, Note_on_c, 9, 42, 0
9, 1480, Note_on_c, 9, 42, 90
9, 1519, Note_on_c, 9, 42, 0
9, 1520, Note_on_c, 9, 42, 90
9, 1559, Note_on_c, 9, 42, 0
9, 1560, Note_on_c, 9, 42, 90
9, 1599, Note_on_c, 9, 42, 0
9, 1600, Note_on_c, 9, 42, 90
9, 1639, Note_on_c, 9, 42, 0
9, 1640, Note_on_c, 9, 42, 90
9, 1679, Note_on_c, 9, 42, 0
9, 1680, Note_on_c, 9, 42, 90
9, 1680, Note_on_c, 9, 38, 100
9, 1719, Note_on_c, 9, 42, 0
9, 1720, Note_on_c, 9, 36, 0
9, 1720, Note_on_c, 9, 42, 90
9, 1759, Note_on_c, 9, 42, 0
9, 1760, Note_on_c, 9, 42, 90
9, 1799, Note_on_c, 9, 42, 0
9, 1800, Note_on_c, 9, 38, 0
9, 1800, Note_on_c, 9, 36, 115
9, 1800, Note_on_c, 9, 42, 90
9, 1839, Note_on_c, 9, 42, 0
9, 1839, Note_on_c, 9, 36, 0
9, 1840, Note_on_c, 9, 42, 90
9, 1879, Note_on_c, 9, 42, 0
9, 1880, Note_on_c, 9, 42, 90
9, 1919, Note_on_c, 9, 42, 0
9, 1920, Note_on_c, 9, 42, 90
9, 1959, Note_on_c, 9, 42, 0
9, 1960, Note_on_c, 9, 42, 90
9, 1999, Note_on_c, 9, 42, 0
9, 2000, Note_on_c, 9, 42, 90
9, 2039, Note_on_c, 9, 42, 0
9, 2040, Note_on_c, 9, 42, 90
9, 2040, Note_on_c, 9, 38, 100
9, 2079, Note_on_c, 9, 42, 0
9, 2080, Note_on_c, 9, 42, 90
9, 2119, Note_on_c, 9, 42, 0
9, 2120, Note_on_c, 9, 38, 0
9, 2120, Note_on_c, 9, 42, 90
9, 2159, Note_on_c, 9, 42, 0
9, 2160, Note_on_c, 9, 36, 115
9, 2160, Note_on_c, 9, 49, 90
9, 2400, Note_on_c, 9, 49, 0
9, 2440, Note_on_c, 9, 36, 0
9, 2520, Note_on_c, 9, 36, 115
9, 2520, Note_on_c, 9, 49, 90
9, 2600, Note_on_c, 9, 36, 0
9, 2640, Note_on_c, 9, 49, 0
9, 2640, Note_on_c, 9, 57, 90
9, 2640, Note_on_c, 9, 36, 115
9, 2679, Note_on_c, 9, 36, 0
9, 2760, Note_on_c, 9, 57, 0
9, 2760, Note_on_c, 9, 36, 115
9, 2760, Note_on_c, 9, 49, 90
9, 2799, Note_on_c, 9, 36, 0
9, 2840, Note_on_c, 9, 49, 0
9, 2880, Note_on_c, 9, 36, 115
9, 2880, Note_on_c, 9, 57, 90
9, 2880, Note_on_c, 9, 42, 90
9, 2919, Note_on_c, 9, 42, 0
9, 2920, Note_on_c, 9, 42, 90
9, 2959, Note_on_c, 9, 42, 0
9, 2960, Note_on_c, 9, 42, 90
9, 2999, Note_on_c, 9, 42, 0
9, 3000, Note_on_c, 9, 42, 90
9, 3039, Note_on_c, 9, 42, 0
9, 3040, Note_on_c, 9, 42, 90
9, 3079, Note_on_c, 9, 42, 0
9, 3080, Note_on_c, 9, 42, 90
9, 3119, Note_on_c, 9, 42, 0
9, 3120, Note_on_c, 9, 42, 90
9, 3120, Note_on_c, 9, 38, 100
9, 3159, Note_on_c, 9, 42, 0
9, 3160, Note_on_c, 9, 36, 0
9, 3160, Note_on_c, 9, 42, 90
9, 3199, Note_on_c, 9, 42, 0
9, 3200, Note_on_c, 9, 36, 115
9, 3200, Note_on_c, 9, 42, 90
9, 3239, Note_on_c, 9, 42, 0
9, 3239, Note_on_c, 9, 36, 0
9, 3240, Note_on_c, 9, 38, 0
9, 3240, Note_on_c, 9, 36, 115
9, 3240, Note_on_c, 9, 42, 90
9, 3279, Note_on_c, 9, 42, 0
9, 3280, Note_on_c, 9, 42, 90
9, 3319, Note_on_c, 9, 42, 0
9, 3320, Note_on_c, 9, 42, 90
9, 3359, Note_on_c, 9, 42, 0
9, 3360, Note_on_c, 9, 57, 0
9, 3360, Note_on_c, 9, 42, 90
9, 3399, Note_on_c, 9, 42, 0
9, 3400, Note_on_c, 9, 42, 90
9, 3439, Note_on_c, 9, 42, 0
9, 3440, Note_on_c, 9, 42, 90
9, 3479, Note_on_c, 9, 42, 0
9, 3480, Note_on_c, 9, 38, 100
9, 3480, Note_on_c, 9, 42, 90
9, 3519, Note_on_c, 9, 42, 0
9, 3520, Note_on_c, 9, 36, 0
9, 3520, Note_on_c, 9, 42, 90
9, 3559, Note_on_c, 9, 42, 0
9, 3560, Note_on_c, 9, 36, 115
9, 3560, Note_on_c, 9, 42, 90
9, 3599, Note_on_c, 9, 42, 0
9, 3599, Note_on_c, 9, 36, 0
9, 3600, Note_on_c, 9, 38, 0
9, 3600, Note_on_c, 9, 36, 115
9, 3600, Note_on_c, 9, 42, 90
9, 3639, Note_on_c, 9, 42, 0
9, 3640, Note_on_c, 9, 42, 90
9, 3679, Note_on_c, 9, 42, 0
9, 3680, Note_on_c, 9, 42, 90
9, 3719, Note_on_c, 9, 42, 0
9, 3720, Note_on_c, 9, 42, 90
9, 3759, Note_on_c, 9, 42, 0
9, 3760, Note_on_c, 9, 42, 90
9, 3799, Note_on_c, 9, 42, 0
9, 3800, Note_on_c, 9, 42, 90
9, 3839, Note_on_c, 9, 42, 0
9, 3840, Note_on_c, 9, 36, 0
9, 3840, Note_on_c, 9, 42, 90
9, 3840, Note_on_c, 9, 38, 100
9, 3879, Note_on_c, 9, 42, 0
9, 3880, Note_on_c, 9, 36, 115
9, 3880, Note_on_c, 9, 42, 90
9, 3919, Note_on_c, 9, 42, 0
9, 3919, Note_on_c, 9, 36, 0
9, 3920, Note_on_c, 9, 36, 115
9, 3920, Note_on_c, 9, 42, 90
9, 3959, Note_on_c, 9, 42, 0
9, 3959, Note_on_c, 9, 36, 0
9, 3960, Note_on_c, 9, 38, 0
9, 3960, Note_on_c, 9, 36, 115
9, 3960, Note_on_c, 9, 42, 90
9, 3999, Note_on_c, 9, 42, 0
9, 4000, Note_on_c, 9, 42, 90
9, 4039, Note_on_c, 9, 42, 0
9, 4040, Note_on_c, 9, 42, 90
9, 4079, Note_on_c, 9, 42, 0
9, 4080, Note_on_c, 9, 42, 90
9, 4119, Note_on_c, 9, 42, 0
9, 4120, Note_on_c, 9, 42, 90
9, 4159, Note_on_c, 9, 42, 0
9, 4160, Note_on_c, 9, 42, 90
9, 4199, Note_on_c, 9, 42, 0
9, 4200, Note_on_c, 9, 42, 90
9, 4200, Note_on_c, 9, 38, 100
9, 4239, Note_on_c, 9, 42, 0
9, 4240, Note_on_c, 9, 36, 0
9, 4240, Note_on_c, 9, 42, 90
9, 4279, Note_on_c, 9, 42, 0
9, 4280, Note_on_c, 9, 42, 90
9, 4319, Note_on_c, 9, 42, 0
9, 4320, Note_on_c, 9, 38, 0
9, 4320, Note_on_c, 9, 36, 115
9, 4320, Note_on_c, 9, 42, 90
9, 4359, Note_on_c, 9, 42, 0
9, 4360, Note_on_c, 9, 42, 90
9, 4399, Note_on_c, 9, 42, 0
9, 4400, Note_on_c, 9, 42, 90
9, 4439, Note_on_c, 9, 42, 0
9, 4440, Note_on_c, 9, 42, 90
9, 4479, Note_on_c, 9, 42, 0
9, 4480, Note_on_c, 9, 42, 90
9, 4519, Note_on_c, 9, 42, 0
9, 4520, Note_on_c, 9, 42, 90
9, 4559, Note_on_c, 9, 42, 0
9, 4560, Note_on_c, 9, 42, 90
9, 4560, Note_on_c, 9, 38, 100
9, 4599, Note_on_c, 9, 42, 0
9, 4600, Note_on_c, 9, 36, 0
9, 4600, Note_on_c, 9, 42, 90
9, 4639, Note_on_c, 9, 42, 0
9, 4640, Note_on_c, 9, 42, 90
9, 4679, Note_on_c, 9, 42, 0
9, 4680, Note_on_c, 9, 38, 0
9, 4680, Note_on_c, 9, 36, 115
9, 4680, Note_on_c, 9, 42, 90
9, 4719, Note_on_c, 9, 42, 0
9, 4719, Note_on_c, 9, 36, 0
9, 4720, Note_on_c, 9, 42, 90
9, 4759, Note_on_c, 9, 42, 0
9, 4760, Note_on_c, 9, 42, 90
9, 4799, Note_on_c, 9, 42, 0
9, 4800, Note_on_c, 9, 42, 90
9, 4839, Note_on_c, 9, 42, 0
9, 4840, Note_on_c, 9, 42, 90
9, 4879, Note_on_c, 9, 42, 0
9, 4880, Note_on_c, 9, 42, 90
9, 4919, Note_on_c, 9, 42, 0
9, 4920, Note_on_c, 9, 42, 90
9, 4920, Note_on_c, 9, 38, 100
9, 4959, Note_on_c, 9, 42, 0
9, 4960, Note_on_c, 9, 42, 90
9, 4999, Note_on_c, 9, 42, 0
9, 5000, Note_on_c, 9, 38, 0
9, 5000, Note_on_c, 9, 42, 90
9, 5039, Note_on_c, 9, 42, 0
9, 5040, Note_on_c, 9, 36, 115
9, 5040, Note_on_c, 9, 42, 90
9, 5079, Note_on_c, 9, 42, 0
9, 5080, Note_on_c, 9, 42, 90
9, 5119, Note_on_c, 9, 42, 0
9, 5120, Note_on_c, 9, 42, 90
9, 5159, Note_on_c, 9, 42, 0
9, 5160, Note_on_c, 9, 42, 90
9, 5199, Note_on_c, 9, 42, 0
9, 5200, Note_on_c, 9, 42, 90
9, 5239, Note_on_c, 9, 42, 0
9, 5240, Note_on_c, 9, 42, 90
9, 5279, Note_on_c, 9, 42, 0
9, 5280, Note_on_c, 9, 36, 0
9, 5280, Note_on_c, 9, 37, 127
9, 5280, Note_on_c, 9, 42, 90
9, 5319, Note_on_c, 9, 42, 0
9, 5320, Note_on_c, 9, 36, 115
9, 5320, Note_on_c, 9, 42, 90
9, 5359, Note_on_c, 9, 42, 0
9, 5359, Note_on_c, 9, 36, 0
9, 5360, Note_on_c, 9, 37, 0
9, 5360, Note_on_c, 9, 36, 115
9, 5360, Note_on_c, 9, 42, 90
9, 5399, Note_on_c, 9, 42, 0
9, 5399, Note_on_c, 9, 36, 0
9, 5400, Note_on_c, 9, 36, 115
9, 5400, Note_on_c, 9, 42, 90
9, 5439, Note_on_c, 9, 42, 0
9, 5440, Note_on_c, 9, 42, 90
9, 5479, Note_on_c, 9, 42, 0
9, 5480, Note_on_c, 9, 42, 90
9, 5519, Note_on_c, 9, 42, 0
9, 5520, Note_on_c, 9, 42, 90
9, 5559, Note_on_c, 9, 42, 0
9, 5560, Note_on_c, 9, 42, 90
9, 5599, Note_on_c, 9, 42, 0
9, 5600, Note_on_c, 9, 42, 90
9, 5639, Note_on_c, 9, 42, 0
9, 5640, Note_on_c, 9, 37, 127
9, 5640, Note_on_c, 9, 42, 90
9, 5679, Note_on_c, 9, 42, 0
9, 5680, Note_on_c, 9, 36, 0
9, 5680, Note_on_c, 9, 42, 90
9, 5719, Note_on_c, 9, 42, 0
9, 5720, Note_on_c, 9, 36, 115
9, 5720, Note_on_c, 9, 36, 0
9, 5720, Note_on_c, 9, 42, 90
9, 5759, Note_on_c, 9, 42, 0
9, 5760, Note_on_c, 9, 37, 0
9, 5760, Note_on_c, 9, 36, 115
9, 5760, Note_on_c, 9, 42, 90
9, 5799, Note_on_c, 9, 42, 0
9, 5800, Note_on_c, 9, 42, 90
9, 5839, Note_on_c, 9, 42, 0
9, 5840, Note_on_c, 9, 42, 90
9, 5879, Note_on_c, 9, 42, 0
9, 5880, Note_on_c, 9, 42, 90
9, 5919, Note_on_c, 9, 42, 0
9, 5920, Note_on_c, 9, 42, 90
9, 5959, Note_on_c, 9, 42, 0
9, 5960, Note_on_c, 9, 42, 90
9, 5999, Note_on_c, 9, 42, 0
9, 6000, Note_on_c, 9, 37, 127
9, 6000, Note_on_c, 9, 42, 90
9, 6039, Note_on_c, 9, 42, 0
9, 6040, Note_on_c, 9, 36, 0
9, 6040, Note_on_c, 9, 42, 90
9, 6079, Note_on_c, 9, 42, 0
9, 6080, Note_on_c, 9, 36, 115
9, 6080, Note_on_c, 9, 42, 90
9, 6119, Note_on_c, 9, 42, 0
9, 6119, Note_on_c, 9, 36, 0
9, 6120, Note_on_c, 9, 37, 0
9, 6120, Note_on_c, 9, 36, 115
9, 6120, Note_on_c, 9, 42, 90
9, 6159, Note_on_c, 9, 42, 0
9, 6160, Note_on_c, 9, 42, 90
9, 6199, Note_on_c, 9, 42, 0
9, 6200, Note_on_c, 9, 36, 0
9, 6200, Note_on_c, 9, 42, 90
9, 6239, Note_on_c, 9, 42, 0
9, 6240, Note_on_c, 9, 42, 90
9, 6279, Note_on_c, 9, 42, 0
9, 6280, Note_on_c, 9, 42, 90
9, 6319, Note_on_c, 9, 42, 0
9, 6320, Note_on_c, 9, 42, 90
9, 6359, Note_on_c, 9, 42, 0
9, 6360, Note_on_c, 9, 37, 127
9, 6360, Note_on_c, 9, 42, 90
9, 6399, Note_on_c, 9, 42, 0
9, 6400, Note_on_c, 9, 42, 90
9, 6439, Note_on_c, 9, 42, 0
9, 6440, Note_on_c, 9, 42, 90
9, 6479, Note_on_c, 9, 42, 0
9, 6480, Note_on_c, 9, 37, 0
9, 6480, Note_on_c, 9, 36, 115
9, 6480, Note_on_c, 9, 42, 90
9, 6519, Note_on_c, 9, 42, 0
9, 6520, Note_on_c, 9, 42, 90
9, 6559, Note_on_c, 9, 42, 0
9, 6560, Note_on_c, 9, 42, 90
9, 6599, Note_on_c, 9, 42, 0
9, 6600, Note_on_c, 9, 42, 90
9, 6639, Note_on_c, 9, 42, 0
9, 6640, Note_on_c, 9, 42, 90
9, 6679, Note_on_c, 9, 42, 0
9, 6680, Note_on_c, 9, 36, 0
9, 6680, Note_on_c, 9, 42, 90
9, 6719, Note_on_c, 9, 42, 0
9, 6720, Note_on_c, 9, 37, 127
9, 6720, Note_on_c, 9, 42, 90
9, 6759, Note_on_c, 9, 42, 0
9, 6760, Note_on_c, 9, 42, 90
9, 6799, Note_on_c, 9, 42, 0
9, 6800, Note_on_c, 9, 42, 90
9, 6839, Note_on_c, 9, 42, 0
9, 6840, Note_on_c, 9, 37, 0
9, 6840, Note_on_c, 9, 36, 115
9, 6840, Note_on_c, 9, 42, 90
9, 6879, Note_on_c, 9, 42, 0
9, 6880, Note_on_c, 9, 42, 90
9, 6919, Note_on_c, 9, 42, 0
9, 6920, Note_on_c, 9, 42, 90
9, 6959, Note_on_c, 9, 42, 0
9, 6960, Note_on_c, 9, 42, 90
9, 6999, Note_on_c, 9, 42, 0
9, 7000, Note_on_c, 9, 42, 90
9, 7039, Note_on_c, 9, 42, 0
9, 7040, Note_on_c, 9, 42, 90
9, 7079, Note_on_c, 9, 42, 0
9, 7080, Note_on_c, 9, 37, 127
9, 7080, Note_on_c, 9, 42, 90
9, 7119, Note_on_c, 9, 42, 0
9, 7120, Note_on_c, 9, 36, 0
9, 7120, Note_on_c, 9, 42, 90
9, 7159, Note_on_c, 9, 42, 0
9, 7160, Note_on_c, 9, 42, 90
9, 7199, Note_on_c, 9, 42, 0
9, 7200, Note_on_c, 9, 37, 0
9, 7200, Note_on_c, 9, 36, 115
9, 7200, Note_on_c, 9, 42, 90
9, 7239, Note_on_c, 9, 42, 0
9, 7240, Note_on_c, 9, 42, 90
9, 7279, Note_on_c, 9, 42, 0
9, 7280, Note_on_c, 9, 42, 90
9, 7319, Note_on_c, 9, 42, 0
9, 7320, Note_on_c, 9, 42, 90
9, 7359, Note_on_c, 9, 42, 0
9, 7360, Note_on_c, 9, 42, 90
9, 7399, Note_on_c, 9, 42, 0
9, 7400, Note_on_c, 9, 42, 90
9, 7439, Note_on_c, 9, 42, 0
9, 7440, Note_on_c, 9, 37, 127
9, 7440, Note_on_c, 9, 42, 90
9, 7479, Note_on_c, 9, 42, 0
9, 7480, Note_on_c, 9, 36, 0
9, 7480, Note_on_c, 9, 42, 90
9, 7519, Note_on_c, 9, 42, 0
9, 7520, Note_on_c, 9, 36, 115
9, 7520, Note_on_c, 9, 42, 90
9, 7559, Note_on_c, 9, 42, 0
9, 7559, Note_on_c, 9, 36, 0
9, 7560, Note_on_c, 9, 37, 0
9, 7560, Note_on_c, 9, 36, 115
9, 7560, Note_on_c, 9, 42, 90
9, 7599, Note_on_c, 9, 42, 0
9, 7600, Note_on_c, 9, 42, 90
9, 7639, Note_on_c, 9, 42, 0
9, 7640, Note_on_c, 9, 36, 0
9, 7640, Note_on_c, 9, 42, 90
9, 7679, Note_on_c, 9, 42, 0
9, 7680, Note_on_c, 9, 42, 90
9, 7719, Note_on_c, 9, 42, 0
9, 7720, Note_on_c, 9, 42, 90
9, 7759, Note_on_c, 9, 42, 0
9, 7760, Note_on_c, 9, 42, 90
9, 7799, Note_on_c, 9, 42, 0
9, 7800, Note_on_c, 9, 37, 127
9, 7800, Note_on_c, 9, 42, 90
9, 7839, Note_on_c, 9, 42, 0
9, 7840, Note_on_c, 9, 42, 90
9, 7879, Note_on_c, 9, 42, 0
9, 7880, Note_on_c, 9, 42, 90
9, 7919, Note_on_c, 9, 42, 0
9, 7920, Note_on_c, 9, 37, 0
9, 7920, Note_on_c, 9, 36, 115
9, 7920, Note_on_c, 9, 42, 90
9, 7959, Note_on_c, 9, 42, 0
9, 7960, Note_on_c, 9, 42, 90
9, 7999, Note_on_c, 9, 42, 0
9, 8000, Note_on_c, 9, 42, 90
9, 8039, Note_on_c, 9, 42, 0
9, 8040, Note_on_c, 9, 42, 90
9, 8079, Note_on_c, 9, 42, 0
9, 8080, Note_on_c, 9, 42, 90
9, 8119, Note_on_c, 9, 42, 0
9, 8120, Note_on_c, 9, 42, 90
9, 8159, Note_on_c, 9, 42, 0
9, 8160, Note_on_c, 9, 37, 127
9, 8160, Note_on_c, 9, 42, 90
9, 8199, Note_on_c, 9, 42, 0
9, 8200, Note_on_c, 9, 36, 0
9, 8200, Note_on_c, 9, 42, 90
9, 8239, Note_on_c, 9, 42, 0
9, 8240, Note_on_c, 9, 42, 90
9, 8279, Note_on_c, 9, 42, 0
9, 8280, Note_on_c, 9, 37, 0
9, 8280, Note_on_c, 9, 36, 115
9, 8280, Note_on_c, 9, 42, 90
9, 8319, Note_on_c, 9, 42, 0
9, 8320, Note_on_c, 9, 42, 90
9, 8359, Note_on_c, 9, 42, 0
9, 8360, Note_on_c, 9, 42, 90
9, 8399, Note_on_c, 9, 42, 0
9, 8400, Note_on_c, 9, 42, 90
9, 8439, Note_on_c, 9, 42, 0
9, 8440, Note_on_c, 9, 42, 90
9, 8479, Note_on_c, 9, 42, 0
9, 8480, Note_on_c, 9, 42, 90
9, 8519, Note_on_c, 9, 42, 0
9, 8520, Note_on_c, 9, 37, 127
9, 8520, Note_on_c, 9, 42, 90
9, 8559, Note_on_c, 9, 42, 0
9, 8560, Note_on_c, 9, 36, 0
9, 8560, Note_on_c, 9, 42, 90
9, 8599, Note_on_c, 9, 42, 0
9, 8600, Note_on_c, 9, 42, 90
9, 8639, Note_on_c, 9, 42, 0
9, 8640, Note_on_c, 9, 37, 0
9, 8640, Note_on_c, 9, 36, 115
9, 8640, Note_on_c, 9, 42, 90
9, 8679, Note_on_c, 9, 42, 0
9, 8680, Note_on_c, 9, 42, 90
9, 8719, Note_on_c, 9, 42, 0
9, 8720, Note_on_c, 9, 42, 90
9, 8759, Note_on_c, 9, 42, 0
9, 8760, Note_on_c, 9, 42, 90
9, 8799, Note_on_c, 9, 42, 0
9, 8800, Note_on_c, 9, 42, 90
9, 8839, Note_on_c, 9, 42, 0
9, 8840, Note_on_c, 9, 42, 90
9, 8879, Note_on_c, 9, 42, 0
9, 8880, Note_on_c, 9, 37, 127
9, 8880, Note_on_c, 9, 42, 90
9, 8919, Note_on_c, 9, 42, 0
9, 8920, Note_on_c, 9, 36, 0
9, 8920, Note_on_c, 9, 42, 90
9, 8959, Note_on_c, 9, 42, 0
9, 8960, Note_on_c, 9, 37, 0
9, 8960, Note_on_c, 9, 36, 115
9, 8960, Note_on_c, 9, 42, 90
9, 8999, Note_on_c, 9, 42, 0
9, 8999, Note_on_c, 9, 36, 0
9, 9000, Note_on_c, 9, 36, 115
9, 9000, Note_on_c, 9, 42, 90
9, 9039, Note_on_c, 9, 42, 0
9, 9039, Note_on_c, 9, 36, 0
9, 9040, Note_on_c, 9, 42, 90
9, 9079, Note_on_c, 9, 42, 0
9, 9080, Note_on_c, 9, 42, 90
9, 9119, Note_on_c, 9, 42, 0
9, 9120, Note_on_c, 9, 42, 90
9, 9159, Note_on_c, 9, 42, 0
9, 9160, Note_on_c, 9, 42, 90
9, 9199, Note_on_c, 9, 42, 0
9, 9200, Note_on_c, 9, 42, 90
9, 9239, Note_on_c, 9, 42, 0
9, 9240, Note_on_c, 9, 37, 127
9, 9240, Note_on_c, 9, 42, 90
9, 9279, Note_on_c, 9, 42, 0
9, 9280, Note_on_c, 9, 42, 90
9, 9319, Note_on_c, 9, 42, 0
9, 9320, Note_on_c, 9, 42, 90
9, 9359, Note_on_c, 9, 42, 0
9, 9360, Note_on_c, 9, 37, 0
9, 9360, Note_on_c, 9, 36, 115
9, 9360, Note_on_c, 9, 42, 90
9, 9399, Note_on_c, 9, 42, 0
9, 9400, Note_on_c, 9, 42, 90
9, 9439, Note_on_c, 9, 42, 0
9, 9440, Note_on_c, 9, 42, 90
9, 9479, Note_on_c, 9, 42, 0
9, 9480, Note_on_c, 9, 42, 90
9, 9519, Note_on_c, 9, 42, 0
9, 9520, Note_on_c, 9, 42, 90
9, 9559, Note_on_c, 9, 42, 0
9, 9560, Note_on_c, 9, 42, 90
9, 9599, Note_on_c, 9, 42, 0
9, 9600, Note_on_c, 9, 36, 0
9, 9600, Note_on_c, 9, 37, 127
9, 9600, Note_on_c, 9, 42, 90
9, 9639, Note_on_c, 9, 42, 0
9, 9640, Note_on_c, 9, 36, 115
9, 9640, Note_on_c, 9, 42, 90
9, 9679, Note_on_c, 9, 42, 0
9, 9679, Note_on_c, 9, 36, 0
9, 9680, Note_on_c, 9, 36, 115
9, 9680, Note_on_c, 9, 42, 90
9, 9719, Note_on_c, 9, 42, 0
9, 9719, Note_on_c, 9, 36, 0
9, 9720, Note_on_c, 9, 37, 0
9, 9720, Note_on_c, 9, 36, 115
9, 9720, Note_on_c, 9, 42, 90
9, 9759, Note_on_c, 9, 42, 0
9, 9760, Note_on_c, 9, 42, 90
9, 9799, Note_on_c, 9, 42, 0
9, 9800, Note_on_c, 9, 42, 90
9, 9839, Note_on_c, 9, 42, 0
9, 9840, Note_on_c, 9, 42, 90
9, 9879, Note_on_c, 9, 42, 0
9, 9880, Note_on_c, 9, 42, 90
9, 9919, Note_on_c, 9, 42, 0
9, 9920, Note_on_c, 9, 42, 90
9, 9959, Note_on_c, 9, 42, 0
9, 9960, Note_on_c, 9, 36, 0
9, 9960, Note_on_c, 9, 37, 127
9, 9960, Note_on_c, 9, 42, 90
9, 9999, Note_on_c, 9, 42, 0
9, 10000, Note_on_c, 9, 42, 90
9, 10039, Note_on_c, 9, 42, 0
9, 10040, Note_on_c, 9, 42, 90
9, 10079, Note_on_c, 9, 42, 0
9, 10080, Note_on_c, 9, 37, 0
9, 10080, Note_on_c, 9, 36, 115
9, 10080, Note_on_c, 9, 42, 90
9, 10119, Note_on_c, 9, 42, 0
9, 10120, Note_on_c, 9, 42, 90
9, 10159, Note_on_c, 9, 42, 0
9, 10160, Note_on_c, 9, 42, 90
9, 10199, Note_on_c, 9, 42, 0
9, 10200, Note_on_c, 9, 42, 90
9, 10239, Note_on_c, 9, 42, 0
9, 10240, Note_on_c, 9, 42, 90
9, 10279, Note_on_c, 9, 42, 0
9, 10280, Note_on_c, 9, 42, 90
9, 10319, Note_on_c, 9, 42, 0
9, 10320, Note_on_c, 9, 37, 127
9, 10320, Note_on_c, 9, 42, 90
9, 10359, Note_on_c, 9, 42, 0
9, 10360, Note_on_c, 9, 36, 0
9, 10360, Note_on_c, 9, 42, 90
9, 10399, Note_on_c, 9, 42, 0
9, 10400, Note_on_c, 9, 36, 115
9, 10400, Note_on_c, 9, 42, 90
9, 10439, Note_on_c, 9, 42, 0
9, 10439, Note_on_c, 9, 36, 0
9, 10440, Note_on_c, 9, 37, 0
9, 10440, Note_on_c, 9, 36, 115
9, 10440, Note_on_c, 9, 42, 90
9, 10479, Note_on_c, 9, 42, 0
9, 10480, Note_on_c, 9, 42, 90
9, 10519, Note_on_c, 9, 42, 0
9, 10520, Note_on_c, 9, 36, 0
9, 10520, Note_on_c, 9, 42, 90
9, 10559, Note_on_c, 9, 42, 0
9, 10560, Note_on_c, 9, 42, 90
9, 10599, Note_on_c, 9, 42, 0
9, 10600, Note_on_c, 9, 42, 90
9, 10639, Note_on_c, 9, 42, 0
9, 10640, Note_on_c, 9, 42, 90
9, 10679, Note_on_c, 9, 42, 0
9, 10680, Note_on_c, 9, 37, 127
9, 10680, Note_on_c, 9, 42, 90
9, 10719, Note_on_c, 9, 42, 0
9, 10719, Note_on_c, 9, 37, 0
9, 10720, Note_on_c, 9, 42, 90
9, 10759, Note_on_c, 9, 42, 0
9, 10760, Note_on_c, 9, 42, 90
9, 10799, Note_on_c, 9, 42, 0
9, 10800, Note_on_c, 9, 36, 115
9, 10800, Note_on_c, 9, 57, 90
9, 10800, Note_on_c, 9, 42, 90
9, 10839, Note_on_c, 9, 42, 0
9, 10840, Note_on_c, 9, 42, 90
9, 10879, Note_on_c, 9, 42, 0
9, 10880, Note_on_c, 9, 42, 90
9, 10919, Note_on_c, 9, 42, 0
9, 10920, Note_on_c, 9, 42, 90
9, 10959, Note_on_c, 9, 42, 0
9, 10960, Note_on_c, 9, 42, 90
9, 10999, Note_on_c, 9, 42, 0
9, 11000, Note_on_c, 9, 42, 90
9, 11039, Note_on_c, 9, 42, 0
9, 11040, Note_on_c, 9, 36, 0
9, 11040, Note_on_c, 9, 42, 90
9, 11040, Note_on_c, 9, 38, 100
9, 11079, Note_on_c, 9, 42, 0
9, 11080, Note_on_c, 9, 36, 115
9, 11080, Note_on_c, 9, 42, 90
9, 11119, Note_on_c, 9, 42, 0
9, 11119, Note_on_c, 9, 36, 0
9, 11120, Note_on_c, 9, 36, 115
9, 11120, Note_on_c, 9, 42, 90
9, 11159, Note_on_c, 9, 42, 0
9, 11159, Note_on_c, 9, 36, 0
9, 11160, Note_on_c, 9, 38, 0
9, 11160, Note_on_c, 9, 36, 115
9, 11160, Note_on_c, 9, 42, 90
9, 11199, Note_on_c, 9, 42, 0
9, 11200, Note_on_c, 9, 42, 90
9, 11239, Note_on_c, 9, 42, 0
9, 11240, Note_on_c, 9, 42, 90
9, 11279, Note_on_c, 9, 42, 0
9, 11280, Note_on_c, 9, 57, 0
9, 11280, Note_on_c, 9, 42, 90
9, 11319, Note_on_c, 9, 42, 0
9, 11320, Note_on_c, 9, 42, 90
9, 11359, Note_on_c, 9, 42, 0
9, 11360, Note_on_c, 9, 42, 90
9, 11399, Note_on_c, 9, 42, 0
9, 11400, Note_on_c, 9, 42, 90
9, 11400, Note_on_c, 9, 38, 100
9, 11439, Note_on_c, 9, 42, 0
9, 11440, Note_on_c, 9, 36, 0
9, 11440, Note_on_c, 9, 42, 90
9, 11479, Note_on_c, 9, 42, 0
9, 11480, Note_on_c, 9, 36, 115
9, 11480, Note_on_c, 9, 42, 90
9, 11519, Note_on_c, 9, 42, 0
9, 11519, Note_on_c, 9, 36, 0
9, 11520, Note_on_c, 9, 38, 0
9, 11520, Note_on_c, 9, 36, 115
9, 11520, Note_on_c, 9, 42, 90
9, 11559, Note_on_c, 9, 42, 0
9, 11560, Note_on_c, 9, 42, 90
9, 11599, Note_on_c, 9, 42, 0
9, 11600, Note_on_c, 9, 42, 90
9, 11639, Note_on_c, 9, 42, 0
9, 11640, Note_on_c, 9, 42, 90
9, 11679, Note_on_c, 9, 42, 0
9, 11680, Note_on_c, 9, 42, 90
9, 11719, Note_on_c, 9, 42, 0
9, 11720, Note_on_c, 9, 42, 90
9, 11759, Note_on_c, 9, 42, 0
9, 11760, Note_on_c, 9, 42, 90
9, 11760, Note_on_c, 9, 38, 100
9, 11799, Note_on_c, 9, 42, 0
9, 11800, Note_on_c, 9, 36, 0
9, 11800, Note_on_c, 9, 42, 90
9, 11839, Note_on_c, 9, 42, 0
9, 11840, Note_on_c, 9, 36, 115
9, 11840, Note_on_c, 9, 42, 90
9, 11879, Note_on_c, 9, 42, 0
9, 11879, Note_on_c, 9, 36, 0
9, 11880, Note_on_c, 9, 38, 0
9, 11880, Note_on_c, 9, 36, 115
9, 11880, Note_on_c, 9, 42, 90
9, 11919, Note_on_c, 9, 42, 0
9, 11920, Note_on_c, 9, 42, 90
9, 11959, Note_on_c, 9, 42, 0
9, 11960, Note_on_c, 9, 36, 0
9, 11960, Note_on_c, 9, 42, 90
9, 11999, Note_on_c, 9, 42, 0
9, 12000, Note_on_c, 9, 42, 90
9, 12039, Note_on_c, 9, 42, 0
9, 12040, Note_on_c, 9, 42, 90
9, 12079, Note_on_c, 9, 42, 0
9, 12080, Note_on_c, 9, 42, 90
9, 12119, Note_on_c, 9, 42, 0
9, 12120, Note_on_c, 9, 42, 90
9, 12120, Note_on_c, 9, 38, 100
9, 12159, Note_on_c, 9, 42, 0
9, 12160, Note_on_c, 9, 42, 90
9, 12199, Note_on_c, 9, 42, 0
9, 12200, Note_on_c, 9, 42, 90
9, 12239, Note_on_c, 9, 42, 0
9, 12240, Note_on_c, 9, 38, 0
9, 12240, Note_on_c, 9, 36, 115
9, 12240, Note_on_c, 9, 42, 90
9, 12279, Note_on_c, 9, 42, 0
9, 12280, Note_on_c, 9, 42, 90
9, 12319, Note_on_c, 9, 42, 0
9, 12320, Note_on_c, 9, 42, 90
9, 12359, Note_on_c, 9, 42, 0
9, 12360, Note_on_c, 9, 42, 90
9, 12399, Note_on_c, 9, 42, 0
9, 12400, Note_on_c, 9, 42, 90
9, 12439, Note_on_c, 9, 42, 0
9, 12440, Note_on_c, 9, 42, 90
9, 12479, Note_on_c, 9, 42, 0
9, 12480, Note_on_c, 9, 36, 0
9, 12480, Note_on_c, 9, 42, 90
9, 12480, Note_on_c, 9, 38, 100
9, 12519, Note_on_c, 9, 42, 0
9, 12520, Note_on_c, 9, 42, 90
9, 12559, Note_on_c, 9, 42, 0
9, 12560, Note_on_c, 9, 36, 115
9, 12560, Note_on_c, 9, 42, 90
9, 12599, Note_on_c, 9, 42, 0
9, 12599, Note_on_c, 9, 36, 0
9, 12600, Note_on_c, 9, 38, 0
9, 12600, Note_on_c, 9, 36, 115
9, 12600, Note_on_c, 9, 42, 90
9, 12639, Note_on_c, 9, 42, 0
9, 12640, Note_on_c, 9, 42, 90
9, 12679, Note_on_c, 9, 42, 0
9, 12680, Note_on_c, 9, 42, 90
9, 12719, Note_on_c, 9, 42, 0
9, 12720, Note_on_c, 9, 42, 90
9, 12759, Note_on_c, 9, 42, 0
9, 12760, Note_on_c, 9, 42, 90
9, 12799, Note_on_c, 9, 42, 0
9, 12800, Note_on_c, 9, 42, 90
9, 12839, Note_on_c, 9, 42, 0
9, 12840, Note_on_c, 9, 42, 90
9, 12840, Note_on_c, 9, 38, 100
9, 12879, Note_on_c, 9, 42, 0
9, 12880, Note_on_c, 9, 36, 0
9, 12880, Note_on_c, 9, 42, 90
9, 12919, Note_on_c, 9, 42, 0
9, 12920, Note_on_c, 9, 36, 115
9, 12920, Note_on_c, 9, 42, 90
9, 12959, Note_on_c, 9, 42, 0
9, 12959, Note_on_c, 9, 36, 0
9, 12960, Note_on_c, 9, 38, 0
9, 12960, Note_on_c, 9, 36, 115
9, 12960, Note_on_c, 9, 42, 90
9, 12999, Note_on_c, 9, 42, 0
9, 13000, Note_on_c, 9, 42, 90
9, 13039, Note_on_c, 9, 42, 0
9, 13040, Note_on_c, 9, 42, 90
9, 13079, Note_on_c, 9, 42, 0
9, 13080, Note_on_c, 9, 42, 90
9, 13119, Note_on_c, 9, 42, 0
9, 13120, Note_on_c, 9, 42, 90
9, 13159, Note_on_c, 9, 42, 0
9, 13160, Note_on_c, 9, 42, 90
9, 13199, Note_on_c, 9, 42, 0
9, 13200, Note_on_c, 9, 36, 0
9, 13200, Note_on_c, 9, 42, 90
9, 13200, Note_on_c, 9, 38, 100
9, 13239, Note_on_c, 9, 42, 0
9, 13240, Note_on_c, 9, 36, 115
9, 13240, Note_on_c, 9, 36, 0
9, 13240, Note_on_c, 9, 42, 90
9, 13279, Note_on_c, 9, 42, 0
9, 13280, Note_on_c, 9, 36, 115
9, 13280, Note_on_c, 9, 42, 90
9, 13319, Note_on_c, 9, 42, 0
9, 13319, Note_on_c, 9, 36, 0
9, 13320, Note_on_c, 9, 38, 0
9, 13320, Note_on_c, 9, 36, 115
9, 13320, Note_on_c, 9, 42, 90
9, 13359, Note_on_c, 9, 42, 0
9, 13360, Note_on_c, 9, 42, 90
9, 13399, Note_on_c, 9, 42, 0
9, 13400, Note_on_c, 9, 36, 0
9, 13400, Note_on_c, 9, 42, 90
9, 13439, Note_on_c, 9, 42, 0
9, 13440, Note_on_c, 9, 42, 90
9, 13479, Note_on_c, 9, 42, 0
9, 13480, Note_on_c, 9, 42, 90
9, 13519, Note_on_c, 9, 42, 0
9, 13520, Note_on_c, 9, 42, 90
9, 13559, Note_on_c, 9, 42, 0
9, 13560, Note_on_c, 9, 42, 90
9, 13560, Note_on_c, 9, 38, 100
9, 13599, Note_on_c, 9, 42, 0
9, 13600, Note_on_c, 9, 42, 90
9, 13639, Note_on_c, 9, 42, 0
9, 13640, Note_on_c, 9, 42, 90
9, 13679, Note_on_c, 9, 42, 0
9, 13680, Note_on_c, 9, 38, 0
9, 13680, Note_on_c, 9, 36, 115
9, 13680, Note_on_c, 9, 57, 90
9, 13680, Note_on_c, 9, 42, 90
9, 13719, Note_on_c, 9, 42, 0
9, 13720, Note_on_c, 9, 42, 90
9, 13759, Note_on_c, 9, 42, 0
9, 13760, Note_on_c, 9, 42, 90
9, 13799, Note_on_c, 9, 42, 0
9, 13800, Note_on_c, 9, 42, 90
9, 13839, Note_on_c, 9, 42, 0
9, 13840, Note_on_c, 9, 42, 90
9, 13879, Note_on_c, 9, 42, 0
9, 13880, Note_on_c, 9, 42, 90
9, 13919, Note_on_c, 9, 42, 0
9, 13920, Note_on_c, 9, 42, 90
9, 13920, Note_on_c, 9, 38, 100
9, 13959, Note_on_c, 9, 42, 0
9, 13960, Note_on_c, 9, 36, 0
9, 13960, Note_on_c, 9, 42, 90
9, 13999, Note_on_c, 9, 42, 0
9, 14000, Note_on_c, 9, 36, 115
9, 14000, Note_on_c, 9, 42, 90
9, 14039, Note_on_c, 9, 42, 0
9, 14039, Note_on_c, 9, 36, 0
9, 14040, Note_on_c, 9, 38, 0
9, 14040, Note_on_c, 9, 36, 115
9, 14040, Note_on_c, 9, 42, 90
9, 14079, Note_on_c, 9, 42, 0
9, 14080, Note_on_c, 9, 42, 90
9, 14119, Note_on_c, 9, 42, 0
9, 14120, Note_on_c, 9, 36, 0
9, 14120, Note_on_c, 9, 42, 90
9, 14159, Note_on_c, 9, 42, 0
9, 14160, Note_on_c, 9, 57, 0
9, 14160, Note_on_c, 9, 42, 90
9, 14199, Note_on_c, 9, 42, 0
9, 14200, Note_on_c, 9, 42, 90
9, 14239, Note_on_c, 9, 42, 0
9, 14240, Note_on_c, 9, 42, 90
9, 14279, Note_on_c, 9, 42, 0
9, 14280, Note_on_c, 9, 42, 90
9, 14280, Note_on_c, 9, 38, 100
9, 14319, Note_on_c, 9, 42, 0
9, 14320, Note_on_c, 9, 42, 90
9, 14359, Note_on_c, 9, 42, 0
9, 14360, Note_on_c, 9, 42, 90
9, 14399, Note_on_c, 9, 42, 0
9, 14400, Note_on_c, 9, 38, 0
9, 14400, Note_on_c, 9, 36, 115
9, 14400, Note_on_c, 9, 42, 90
9, 14439, Note_on_c, 9, 42, 0
9, 14440, Note_on_c, 9, 42, 90
9, 14479, Note_on_c, 9, 42, 0
9, 14480, Note_on_c, 9, 42, 90
9, 14519, Note_on_c, 9, 42, 0
9, 14520, Note_on_c, 9, 42, 90
9, 14559, Note_on_c, 9, 42, 0
9, 14560, Note_on_c, 9, 42, 90
9, 14599, Note_on_c, 9, 42, 0
9, 14600, Note_on_c, 9, 42, 90
9, 14639, Note_on_c, 9, 42, 0
9, 14640, Note_on_c, 9, 36, 0
9, 14640, Note_on_c, 9, 42, 90
9, 14640, Note_on_c, 9, 38, 100
9, 14679, Note_on_c, 9, 42, 0
9, 14680, Note_on_c, 9, 42, 90
9, 14719, Note_on_c, 9, 42, 0
9, 14720, Note_on_c, 9, 36, 115
9, 14720, Note_on_c, 9, 42, 90
9, 14759, Note_on_c, 9, 42, 0
9, 14759, Note_on_c, 9, 36, 0
9, 14760, Note_on_c, 9, 38, 0
9, 14760, Note_on_c, 9, 36, 115
9, 14760, Note_on_c, 9, 42, 90
9, 14799, Note_on_c, 9, 42, 0
9, 14800, Note_on_c, 9, 42, 90
9, 14839, Note_on_c, 9, 42, 0
9, 14840, Note_on_c, 9, 42, 90
9, 14879, Note_on_c, 9, 42, 0
9, 14880, Note_on_c, 9, 42, 90
9, 14919, Note_on_c, 9, 42, 0
9, 14920, Note_on_c, 9, 42, 90
9, 14959, Note_on_c, 9, 42, 0
9, 14960, Note_on_c, 9, 42, 90
9, 14999, Note_on_c, 9, 42, 0
9, 15000, Note_on_c, 9, 36, 0
9, 15000, Note_on_c, 9, 42, 90
9, 15000, Note_on_c, 9, 38, 100
9, 15039, Note_on_c, 9, 42, 0
9, 15040, Note_on_c, 9, 36, 115
9, 15040, Note_on_c, 9, 42, 90
9, 15079, Note_on_c, 9, 42, 0
9, 15079, Note_on_c, 9, 36, 0
9, 15080, Note_on_c, 9, 36, 115
9, 15080, Note_on_c, 9, 42, 90
9, 15119, Note_on_c, 9, 42, 0
9, 15119, Note_on_c, 9, 36, 0
9, 15120, Note_on_c, 9, 38, 0
9, 15120, Note_on_c, 9, 36, 115
9, 15120, Note_on_c, 9, 42, 90
9, 15159, Note_on_c, 9, 42, 0
9, 15160, Note_on_c, 9, 42, 90
9, 15199, Note_on_c, 9, 42, 0
9, 15200, Note_on_c, 9, 42, 90
9, 15239, Note_on_c, 9, 42, 0
9, 15240, Note_on_c, 9, 42, 90
9, 15279, Note_on_c, 9, 42, 0
9, 15280, Note_on_c, 9, 42, 90
9, 15319, Note_on_c, 9, 42, 0
9, 15320, Note_on_c, 9, 42, 90
9, 15359, Note_on_c, 9, 42, 0
9, 15360, Note_on_c, 9, 36, 0
9, 15360, Note_on_c, 9, 42, 90
9, 15360, Note_on_c, 9, 38, 100
9, 15399, Note_on_c, 9, 42, 0
9, 15400, Note_on_c, 9, 36, 115
9, 15400, Note_on_c, 9, 42, 90
9, 15439, Note_on_c, 9, 42, 0
9, 15439, Note_on_c, 9, 36, 0
9, 15440, Note_on_c, 9, 36, 115
9, 15440, Note_on_c, 9, 42, 90
9, 15479, Note_on_c, 9, 42, 0
9, 15479, Note_on_c, 9, 36, 0
9, 15480, Note_on_c, 9, 38, 0
9, 15480, Note_on_c, 9, 36, 115
9, 15480, Note_on_c, 9, 42, 90
9, 15519, Note_on_c, 9, 42, 0
9, 15520, Note_on_c, 9, 42, 90
9, 15559, Note_on_c, 9, 42, 0
9, 15560, Note_on_c, 9, 42, 90
9, 15599, Note_on_c, 9, 42, 0
9, 15600, Note_on_c, 9, 42, 90
9, 15639, Note_on_c, 9, 42, 0
9, 15640, Note_on_c, 9, 42, 90
9, 15679, Note_on_c, 9, 42, 0
9, 15680, Note_on_c, 9, 42, 90
9, 15719, Note_on_c, 9, 42, 0
9, 15720, Note_on_c, 9, 42, 90
9, 15720, Note_on_c, 9, 38, 100
9, 15759, Note_on_c, 9, 42, 0
9, 15760, Note_on_c, 9, 36, 0
9, 15760, Note_on_c, 9, 42, 90
9, 15799, Note_on_c, 9, 42, 0
9, 15800, Note_on_c, 9, 42, 90
9, 15839, Note_on_c, 9, 42, 0
9, 15840, Note_on_c, 9, 38, 0
9, 15840, Note_on_c, 9, 36, 115
9, 15840, Note_on_c, 9, 42, 90
9, 15879, Note_on_c, 9, 42, 0
9, 15880, Note_on_c, 9, 42, 90
9, 15919, Note_on_c, 9, 42, 0
9, 15920, Note_on_c, 9, 42, 90
9, 15959, Note_on_c, 9, 42, 0
9, 15960, Note_on_c, 9, 42, 90
9, 15999, Note_on_c, 9, 42, 0
9, 16000, Note_on_c, 9, 42, 90
9, 16039, Note_on_c, 9, 42, 0
9, 16040, Note_on_c, 9, 42, 90
9, 16079, Note_on_c, 9, 42, 0
9, 16080, Note_on_c, 9, 36, 0
9, 16080, Note_on_c, 9, 42, 90
9, 16080, Note_on_c, 9, 38, 100
9, 16119, Note_on_c, 9, 42, 0
9, 16120, Note_on_c, 9, 42, 90
9, 16159, Note_on_c, 9, 42, 0
9, 16160, Note_on_c, 9, 38, 0
9, 16160, Note_on_c, 9, 36, 115
9, 16160, Note_on_c, 9, 42, 90
9, 16199, Note_on_c, 9, 42, 0
9, 16199, Note_on_c, 9, 36, 0
9, 16200, Note_on_c, 9, 36, 115
9, 16200, Note_on_c, 9, 42, 90
9, 16239, Note_on_c, 9, 42, 0
9, 16240, Note_on_c, 9, 42, 90
9, 16279, Note_on_c, 9, 42, 0
9, 16280, Note_on_c, 9, 36, 0
9, 16280, Note_on_c, 9, 42, 90
9, 16319, Note_on_c, 9, 42, 0
9, 16320, Note_on_c, 9, 42, 90
9, 16359, Note_on_c, 9, 42, 0
9, 16360, Note_on_c, 9, 42, 90
9, 16399, Note_on_c, 9, 42, 0
9, 16400, Note_on_c, 9, 42, 90
9, 16439, Note_on_c, 9, 42, 0
9, 16440, Note_on_c, 9, 42, 90
9, 16440, Note_on_c, 9, 38, 100
9, 16479, Note_on_c, 9, 38, 0
9, 16479, Note_on_c, 9, 42, 0
9, 16480, Note_on_c, 9, 42, 90
9, 16519, Note_on_c, 9, 42, 0
9, 16520, Note_on_c, 9, 42, 90
9, 16559, Note_on_c, 9, 42, 0
9, 16560, Note_on_c, 9, 36, 115
9, 16560, Note_on_c, 9, 42, 90
9, 16599, Note_on_c, 9, 42, 0
9, 16600, Note_on_c, 9, 42, 90
9, 16639, Note_on_c, 9, 42, 0
9, 16640, Note_on_c, 9, 42, 90
9, 16679, Note_on_c, 9, 42, 0
9, 16680, Note_on_c, 9, 42, 90
9, 16719, Note_on_c, 9, 42, 0
9, 16720, Note_on_c, 9, 42, 90
9, 16759, Note_on_c, 9, 42, 0
9, 16760, Note_on_c, 9, 42, 90
9, 16799, Note_on_c, 9, 42, 0
9, 16800, Note_on_c, 9, 36, 0
9, 16800, Note_on_c, 9, 42, 90
9, 16800, Note_on_c, 9, 38, 100
9, 16839, Note_on_c, 9, 42, 0
9, 16840, Note_on_c, 9, 42, 90
9, 16879, Note_on_c, 9, 42, 0
9, 16880, Note_on_c, 9, 38, 0
9, 16880, Note_on_c, 9, 36, 115
9, 16880, Note_on_c, 9, 42, 90
9, 16919, Note_on_c, 9, 42, 0
9, 16919, Note_on_c, 9, 36, 0
9, 16920, Note_on_c, 9, 36, 115
9, 16920, Note_on_c, 9, 49, 90
9, 17000, Note_on_c, 9, 36, 0
9, 17040, Note_on_c, 9, 49, 0
9, 17040, Note_on_c, 9, 57, 90
9, 17040, Note_on_c, 9, 36, 115
9, 17079, Note_on_c, 9, 36, 0
9, 17160, Note_on_c, 9, 57, 0
9, 17160, Note_on_c, 9, 36, 115
9, 17160, Note_on_c, 9, 49, 90
9, 17199, Note_on_c, 9, 36, 0
9, 17240, Note_on_c, 9, 49, 0
9, 17280, Note_on_c, 9, 36, 115
9, 17280, Note_on_c, 9, 57, 90
9, 17280, Note_on_c, 9, 42, 90
9, 17319, Note_on_c, 9, 42, 0
9, 17320, Note_on_c, 9, 42, 90
9, 17359, Note_on_c, 9, 42, 0
9, 17360, Note_on_c, 9, 42, 90
9, 17399, Note_on_c, 9, 42, 0
9, 17400, Note_on_c, 9, 42, 90
9, 17439, Note_on_c, 9, 42, 0
9, 17440, Note_on_c, 9, 42, 90
9, 17479, Note_on_c, 9, 42, 0
9, 17480, Note_on_c, 9, 42, 90
9, 17519, Note_on_c, 9, 42, 0
9, 17520, Note_on_c, 9, 42, 90
9, 17520, Note_on_c, 9, 38, 100
9, 17559, Note_on_c, 9, 42, 0
9, 17560, Note_on_c, 9, 36, 0
9, 17560, Note_on_c, 9, 42, 90
9, 17599, Note_on_c, 9, 42, 0
9, 17600, Note_on_c, 9, 36, 115
9, 17600, Note_on_c, 9, 42, 90
9, 17639, Note_on_c, 9, 42, 0
9, 17639, Note_on_c, 9, 36, 0
9, 17640, Note_on_c, 9, 38, 0
9, 17640, Note_on_c, 9, 36, 115
9, 17640, Note_on_c, 9, 42, 90
9, 17679, Note_on_c, 9, 42, 0
9, 17680, Note_on_c, 9, 42, 90
9, 17719, Note_on_c, 9, 42, 0
9, 17720, Note_on_c, 9, 42, 90
9, 17759, Note_on_c, 9, 42, 0
9, 17760, Note_on_c, 9, 57, 0
9, 17760, Note_on_c, 9, 42, 90
9, 17799, Note_on_c, 9, 42, 0
9, 17800, Note_on_c, 9, 42, 90
9, 17839, Note_on_c, 9, 42, 0
9, 17840, Note_on_c, 9, 42, 90
9, 17879, Note_on_c, 9, 42, 0
9, 17880, Note_on_c, 9, 38, 100
9, 17880, Note_on_c, 9, 42, 90
9, 17919, Note_on_c, 9, 42, 0
9, 17920, Note_on_c, 9, 36, 0
9, 17920, Note_on_c, 9, 42, 90
9, 17959, Note_on_c, 9, 42, 0
9, 17960, Note_on_c, 9, 36, 115
9, 17960, Note_on_c, 9, 42, 90
9, 17999, Note_on_c, 9, 42, 0
9, 17999, Note_on_c, 9, 36, 0
9, 18000, Note_on_c, 9, 38, 0
9, 18000, Note_on_c, 9, 36, 115
9, 18000, Note_on_c, 9, 42, 90
9, 18039, Note_on_c, 9, 42, 0
9, 18040, Note_on_c, 9, 42, 90
9, 18079, Note_on_c, 9, 42, 0
9, 18080, Note_on_c, 9, 42, 90
9, 18119, Note_on_c, 9, 42, 0
9, 18120, Note_on_c, 9, 42, 90
9, 18159, Note_on_c, 9, 42, 0
9, 18160, Note_on_c, 9, 42, 90
9, 18199, Note_on_c, 9, 42, 0
9, 18200, Note_on_c, 9, 42, 90
9, 18239, Note_on_c, 9, 42, 0
9, 18240, Note_on_c, 9, 36, 0
9, 18240, Note_on_c, 9, 42, 90
9, 18240, Note_on_c, 9, 38, 100
9, 18279, Note_on_c, 9, 42, 0
9, 18280, Note_on_c, 9, 36, 115
9, 18280, Note_on_c, 9, 42, 90
9, 18319, Note_on_c, 9, 42, 0
9, 18319, Note_on_c, 9, 36, 0
9, 18320, Note_on_c, 9, 36, 115
9, 18320, Note_on_c, 9, 42, 90
9, 18359, Note_on_c, 9, 42, 0
9, 18359, Note_on_c, 9, 36, 0
9, 18360, Note_on_c, 9, 38, 0
9, 18360, Note_on_c, 9, 36, 115
9, 18360, Note_on_c, 9, 42, 90
9, 18399, Note_on_c, 9, 42, 0
9, 18400, Note_on_c, 9, 42, 90
9, 18439, Note_on_c, 9, 42, 0
9, 18440, Note_on_c, 9, 42, 90
9, 18479, Note_on_c, 9, 42, 0
9, 18480, Note_on_c, 9, 42, 90
9, 18519, Note_on_c, 9, 42, 0
9, 18520, Note_on_c, 9, 42, 90
9, 18559, Note_on_c, 9, 42, 0
9, 18560, Note_on_c, 9, 42, 90
9, 18599, Note_on_c, 9, 42, 0
9, 18600, Note_on_c, 9, 42, 90
9, 18600, Note_on_c, 9, 38, 100
9, 18639, Note_on_c, 9, 42, 0
9, 18640, Note_on_c, 9, 36, 0
9, 18640, Note_on_c, 9, 42, 90
9, 18679, Note_on_c, 9, 42, 0
9, 18680, Note_on_c, 9, 42, 90
9, 18719, Note_on_c, 9, 42, 0
9, 18720, Note_on_c, 9, 38, 0
9, 18720, Note_on_c, 9, 36, 115
9, 18720, Note_on_c, 9, 42, 90
9, 18759, Note_on_c, 9, 42, 0
9, 18760, Note_on_c, 9, 42, 90
9, 18799, Note_on_c, 9, 42, 0
9, 18800, Note_on_c, 9, 42, 90
9, 18839, Note_on_c, 9, 42, 0
9, 18840, Note_on_c, 9, 42, 90
9, 18879, Note_on_c, 9, 42, 0
9, 18880, Note_on_c, 9, 42, 90
9, 18919, Note_on_c, 9, 42, 0
9, 18920, Note_on_c, 9, 42, 90
9, 18959, Note_on_c, 9, 42, 0
9, 18960, Note_on_c, 9, 42, 90
9, 18960, Note_on_c, 9, 38, 100
9, 18999, Note_on_c, 9, 42, 0
9, 19000, Note_on_c, 9, 36, 0
9, 19000, Note_on_c, 9, 42, 90
9, 19039, Note_on_c, 9, 42, 0
9, 19040, Note_on_c, 9, 42, 90
9, 19079, Note_on_c, 9, 42, 0
9, 19080, Note_on_c, 9, 38, 0
9, 19080, Note_on_c, 9, 36, 115
9, 19080, Note_on_c, 9, 42, 90
9, 19119, Note_on_c, 9, 42, 0
9, 19119, Note_on_c, 9, 36, 0
9, 19120, Note_on_c, 9, 42, 90
9, 19159, Note_on_c, 9, 42, 0
9, 19160, Note_on_c, 9, 42, 90
9, 19199, Note_on_c, 9, 42, 0
9, 19200, Note_on_c, 9, 42, 90
9, 19239, Note_on_c, 9, 42, 0
9, 19240, Note_on_c, 9, 42, 90
9, 19279, Note_on_c, 9, 42, 0
9, 19280, Note_on_c, 9, 42, 90
9, 19319, Note_on_c, 9, 42, 0
9, 19320, Note_on_c, 9, 42, 90
9, 19320, Note_on_c, 9, 38, 100
9, 19359, Note_on_c, 9, 42, 0
9, 19360, Note_on_c, 9, 42, 90
9, 19399, Note_on_c, 9, 42, 0
9, 19400, Note_on_c, 9, 38, 0
9, 19400, Note_on_c, 9, 42, 90
9, 19439, Note_on_c, 9, 42, 0
9, 19440, Note_on_c, 9, 36, 115
9, 19440, Note_on_c, 9, 42, 90
9, 19479, Note_on_c, 9, 42, 0
9, 19480, Note_on_c, 9, 42, 90
9, 19519, Note_on_c, 9, 42, 0
9, 19520, Note_on_c, 9, 42, 90
9, 19559, Note_on_c, 9, 42, 0
9, 19560, Note_on_c, 9, 42, 90
9, 19599, Note_on_c, 9, 42, 0
9, 19600, Note_on_c, 9, 42, 90
9, 19639, Note_on_c, 9, 42, 0
9, 19640, Note_on_c, 9, 42, 90
9, 19679, Note_on_c, 9, 42, 0
9, 19680, Note_on_c, 9, 36, 0
9, 19680, Note_on_c, 9, 37, 127
9, 19680, Note_on_c, 9, 42, 90
9, 19719, Note_on_c, 9, 42, 0
9, 19720, Note_on_c, 9, 36, 115
9, 19720, Note_on_c, 9, 42, 90
9, 19759, Note_on_c, 9, 42, 0
9, 19759, Note_on_c, 9, 36, 0
9, 19760, Note_on_c, 9, 37, 0
9, 19760, Note_on_c, 9, 36, 115
9, 19760, Note_on_c, 9, 42, 90
9, 19799, Note_on_c, 9, 42, 0
9, 19799, Note_on_c, 9, 36, 0
9, 19800, Note_on_c, 9, 36, 115
9, 19800, Note_on_c, 9, 42, 90
9, 19839, Note_on_c, 9, 42, 0
9, 19840, Note_on_c, 9, 42, 90
9, 19879, Note_on_c, 9, 42, 0
9, 19880, Note_on_c, 9, 42, 90
9, 19919, Note_on_c, 9, 42, 0
9, 19920, Note_on_c, 9, 42, 90
9, 19959, Note_on_c, 9, 42, 0
9, 19960, Note_on_c, 9, 42, 90
9, 19999, Note_on_c, 9, 42, 0
9, 20000, Note_on_c, 9, 42, 90
9, 20039, Note_on_c, 9, 42, 0
9, 20040, Note_on_c, 9, 37, 127
9, 20040, Note_on_c, 9, 42, 90
9, 20079, Note_on_c, 9, 42, 0
9, 20080, Note_on_c, 9, 36, 0
9, 20080, Note_on_c, 9, 42, 90
9, 20119, Note_on_c, 9, 42, 0
9, 20120, Note_on_c, 9, 36, 115
9, 20120, Note_on_c, 9, 36, 0
9, 20120, Note_on_c, 9, 42, 90
9, 20159, Note_on_c, 9, 42, 0
9, 20160, Note_on_c, 9, 37, 0
9, 20160, Note_on_c, 9, 36, 115
9, 20160, Note_on_c, 9, 42, 90
9, 20199, Note_on_c, 9, 42, 0
9, 20200, Note_on_c, 9, 42, 90
9, 20239, Note_on_c, 9, 42, 0
9, 20240, Note_on_c, 9, 42, 90
9, 20279, Note_on_c, 9, 42, 0
9, 20280, Note_on_c, 9, 42, 90
9, 20319, Note_on_c, 9, 42, 0
9, 20320, Note_on_c, 9, 42, 90
9, 20359, Note_on_c, 9, 42, 0
9, 20360, Note_on_c, 9, 42, 90
9, 20399, Note_on_c, 9, 42, 0
9, 20400, Note_on_c, 9, 37, 127
9, 20400, Note_on_c, 9, 42, 90
9, 20439, Note_on_c, 9, 42, 0
9, 20440, Note_on_c, 9, 36, 0
9, 20440, Note_on_c, 9, 42, 90
9, 20479, Note_on_c, 9, 42, 0
9, 20480, Note_on_c, 9, 36, 115
9, 20480, Note_on_c, 9, 42, 90
9, 20519, Note_on_c, 9, 42, 0
9, 20519, Note_on_c, 9, 36, 0
9, 20520, Note_on_c, 9, 37, 0
9, 20520, Note_on_c, 9, 36, 115
9, 20520, Note_on_c, 9, 42, 90
9, 20559, Note_on_c, 9, 42, 0
9, 20560, Note_on_c, 9, 42, 90
9, 20599, Note_on_c, 9, 42, 0
9, 20600, Note_on_c, 9, 36, 0
9, 20600, Note_on_c, 9, 42, 90
9, 20639, Note_on_c, 9, 42, 0
9, 20640, Note_on_c, 9, 42, 90
9, 20679, Note_on_c, 9, 42, 0
9, 20680, Note_on_c, 9, 42, 90
9, 20719, Note_on_c, 9, 42, 0
9, 20720, Note_on_c, 9, 42, 90
9, 20759, Note_on_c, 9, 42, 0
9, 20760, Note_on_c, 9, 37, 127
9, 20760, Note_on_c, 9, 42, 90
9, 20799, Note_on_c, 9, 42, 0
9, 20800, Note_on_c, 9, 42, 90
9, 20839, Note_on_c, 9, 42, 0
9, 20840, Note_on_c, 9, 42, 90
9, 20879, Note_on_c, 9, 42, 0
9, 20880, Note_on_c, 9, 37, 0
9, 20880, Note_on_c, 9, 36, 115
9, 20880, Note_on_c, 9, 42, 90
9, 20919, Note_on_c, 9, 42, 0
9, 20920, Note_on_c, 9, 42, 90
9, 20959, Note_on_c, 9, 42, 0
9, 20960, Note_on_c, 9, 42, 90
9, 20999, Note_on_c, 9, 42, 0
9, 21000, Note_on_c, 9, 42, 90
9, 21039, Note_on_c, 9, 42, 0
9, 21040, Note_on_c, 9, 42, 90
9, 21079, Note_on_c, 9, 42, 0
9, 21080, Note_on_c, 9, 36, 0
9, 21080, Note_on_c, 9, 42, 90
9, 21119, Note_on_c, 9, 42, 0
9, 21120, Note_on_c, 9, 37, 127
9, 21120, Note_on_c, 9, 42, 90
9, 21159, Note_on_c, 9, 42, 0
9, 21160, Note_on_c, 9, 42, 90
9, 21199, Note_on_c, 9, 42, 0
9, 21200, Note_on_c, 9, 42, 90
9, 21239, Note_on_c, 9, 42, 0
9, 21240, Note_on_c, 9, 37, 0
9, 21240, Note_on_c, 9, 36, 115
9, 21240, Note_on_c, 9, 42, 90
9, 21279, Note_on_c, 9, 42, 0
9, 21280, Note_on_c, 9, 42, 90
9, 21319, Note_on_c, 9, 42, 0
9, 21320, Note_on_c, 9, 42, 90
9, 21359, Note_on_c, 9, 42, 0
9, 21360, Note_on_c, 9, 42, 90
9, 21399, Note_on_c, 9, 42, 0
9, 21400, Note_on_c, 9, 42, 90
9, 21439, Note_on_c, 9, 42, 0
9, 21440, Note_on_c, 9, 42, 90
9, 21479, Note_on_c, 9, 42, 0
9, 21480, Note_on_c, 9, 37, 127
9, 21480, Note_on_c, 9, 42, 90
9, 21519, Note_on_c, 9, 42, 0
9, 21520, Note_on_c, 9, 36, 0
9, 21520, Note_on_c, 9, 42, 90
9, 21559, Note_on_c, 9, 42, 0
9, 21560, Note_on_c, 9, 42, 90
9, 21599, Note_on_c, 9, 42, 0
9, 21600, Note_on_c, 9, 37, 0
9, 21600, Note_on_c, 9, 36, 115
9, 21600, Note_on_c, 9, 42, 90
9, 21639, Note_on_c, 9, 42, 0
9, 21640, Note_on_c, 9, 42, 90
9, 21679, Note_on_c, 9, 42, 0
9, 21680, Note_on_c, 9, 42, 90
9, 21719, Note_on_c, 9, 42, 0
9, 21720, Note_on_c, 9, 42, 90
9, 21759, Note_on_c, 9, 42, 0
9, 21760, Note_on_c, 9, 42, 90
9, 21799, Note_on_c, 9, 42, 0
9, 21800, Note_on_c, 9, 42, 90
9, 21839, Note_on_c, 9, 42, 0
9, 21840, Note_on_c, 9, 37, 127
9, 21840, Note_on_c, 9, 42, 90
9, 21879, Note_on_c, 9, 42, 0
9, 21880, Note_on_c, 9, 36, 0
9, 21880, Note_on_c, 9, 42, 90
9, 21919, Note_on_c, 9, 42, 0
9, 21920, Note_on_c, 9, 36, 115
9, 21920, Note_on_c, 9, 42, 90
9, 21959, Note_on_c, 9, 42, 0
9, 21959, Note_on_c, 9, 36, 0
9, 21960, Note_on_c, 9, 37, 0
9, 21960, Note_on_c, 9, 36, 115
9, 21960, Note_on_c, 9, 42, 90
9, 21999, Note_on_c, 9, 42, 0
9, 22000, Note_on_c, 9, 42, 90
9, 22039, Note_on_c, 9, 42, 0
9, 22040, Note_on_c, 9, 36, 0
9, 22040, Note_on_c, 9, 42, 90
9, 22079, Note_on_c, 9, 42, 0
9, 22080, Note_on_c, 9, 42, 90
9, 22119, Note_on_c, 9, 42, 0
9, 22120, Note_on_c, 9, 42, 90
9, 22159, Note_on_c, 9, 42, 0
9, 22160, Note_on_c, 9, 42, 90
9, 22199, Note_on_c, 9, 42, 0
9, 22200, Note_on_c, 9, 37, 127
9, 22200, Note_on_c, 9, 42, 90
9, 22239, Note_on_c, 9, 42, 0
9, 22240, Note_on_c, 9, 42, 90
9, 22279, Note_on_c, 9, 42, 0
9, 22280, Note_on_c, 9, 42, 90
9, 22319, Note_on_c, 9, 42, 0
9, 22320, Note_on_c, 9, 37, 0
9, 22320, Note_on_c, 9, 36, 115
9, 22320, Note_on_c, 9, 42, 90
9, 22359, Note_on_c, 9, 42, 0
9, 22360, Note_on_c, 9, 42, 90
9, 22399, Note_on_c, 9, 42, 0
9, 22400, Note_on_c, 9, 42, 90
9, 22439, Note_on_c, 9, 42, 0
9, 22440, Note_on_c, 9, 42, 90
9, 22479, Note_on_c, 9, 42, 0
9, 22480, Note_on_c, 9, 42, 90
9, 22519, Note_on_c, 9, 42, 0
9, 22520, Note_on_c, 9, 42, 90
9, 22559, Note_on_c, 9, 42, 0
9, 22560, Note_on_c, 9, 37, 127
9, 22560, Note_on_c, 9, 42, 90
9, 22599, Note_on_c, 9, 42, 0
9, 22600, Note_on_c, 9, 36, 0
9, 22600, Note_on_c, 9, 42, 90
9, 22639, Note_on_c, 9, 42, 0
9, 22640, Note_on_c, 9, 42, 90
9, 22679, Note_on_c, 9, 42, 0
9, 22680, Note_on_c, 9, 37, 0
9, 22680, Note_on_c, 9, 36, 115
9, 22680, Note_on_c, 9, 42, 90
9, 22719, Note_on_c, 9, 42, 0
9, 22720, Note_on_c, 9, 42, 90
9, 22759, Note_on_c, 9, 42, 0
9, 22760, Note_on_c, 9, 42, 90
9, 22799, Note_on_c, 9, 42, 0
9, 22800, Note_on_c, 9, 42, 90
9, 22839, Note_on_c, 9, 42, 0
9, 22840, Note_on_c, 9, 42, 90
9, 22879, Note_on_c, 9, 42, 0
9, 22880, Note_on_c, 9, 42, 90
9, 22919, Note_on_c, 9, 42, 0
9, 22920, Note_on_c, 9, 37, 127
9, 22920, Note_on_c, 9, 42, 90
9, 22959, Note_on_c, 9, 42, 0
9, 22960, Note_on_c, 9, 36, 0
9, 22960, Note_on_c, 9, 42, 90
9, 22999, Note_on_c, 9, 42, 0
9, 23000, Note_on_c, 9, 42, 90
9, 23039, Note_on_c, 9, 42, 0
9, 23040, Note_on_c, 9, 37, 0
9, 23040, Note_on_c, 9, 36, 115
9, 23040, Note_on_c, 9, 42, 90
9, 23079, Note_on_c, 9, 42, 0
9, 23080, Note_on_c, 9, 42, 90
9, 23119, Note_on_c, 9, 42, 0
9, 23120, Note_on_c, 9, 42, 90
9, 23159, Note_on_c, 9, 42, 0
9, 23160, Note_on_c, 9, 42, 90
9, 23199, Note_on_c, 9, 42, 0
9, 23200, Note_on_c, 9, 42, 90
9, 23239, Note_on_c, 9, 42, 0
9, 23240, Note_on_c, 9, 42, 90
9, 23279, Note_on_c, 9, 42, 0
9, 23280, Note_on_c, 9, 37, 127
9, 23280, Note_on_c, 9, 42, 90
9, 23319, Note_on_c, 9, 42, 0
9, 23320, Note_on_c, 9, 36, 0
9, 23320, Note_on_c, 9, 42, 90
9, 23359, Note_on_c, 9, 42, 0
9, 23360, Note_on_c, 9, 37, 0
9, 23360, Note_on_c, 9, 36, 115
9, 23360, Note_on_c, 9, 42, 90
9, 23399, Note_on_c, 9, 42, 0
9, 23399, Note_on_c, 9, 36, 0
9, 23400, Note_on_c, 9, 36, 115
9, 23400, Note_on_c, 9, 42, 90
9, 23439, Note_on_c, 9, 42, 0
9, 23439, Note_on_c, 9, 36, 0
9, 23440, Note_on_c, 9, 42, 90
9, 23479, Note_on_c, 9, 42, 0
9, 23480, Note_on_c, 9, 42, 90
9, 23519, Note_on_c, 9, 42, 0
9, 23520, Note_on_c, 9, 42, 90
9, 23559, Note_on_c, 9, 42, 0
9, 23560, Note_on_c, 9, 42, 90
9, 23599, Note_on_c, 9, 42, 0
9, 23600, Note_on_c, 9, 42, 90
9, 23639, Note_on_c, 9, 42, 0
9, 23640, Note_on_c, 9, 37, 127
9, 23640, Note_on_c, 9, 42, 90
9, 23679, Note_on_c, 9, 42, 0
9, 23680, Note_on_c, 9, 42, 90
9, 23719, Note_on_c, 9, 42, 0
9, 23720, Note_on_c, 9, 42, 90
9, 23759, Note_on_c, 9, 42, 0
9, 23760, Note_on_c, 9, 37, 0
9, 23760, Note_on_c, 9, 36, 115
9, 23760, Note_on_c, 9, 42, 90
9, 23799, Note_on_c, 9, 42, 0
9, 23800, Note_on_c, 9, 42, 90
9, 23839, Note_on_c, 9, 42, 0
9, 23840, Note_on_c, 9, 42, 90
9, 23879, Note_on_c, 9, 42, 0
9, 23880, Note_on_c, 9, 42, 90
9, 23919, Note_on_c, 9, 42, 0
9, 23920, Note_on_c, 9, 42, 90
9, 23959, Note_on_c, 9, 42, 0
9, 23960, Note_on_c, 9, 42, 90
9, 23999, Note_on_c, 9, 42, 0
9, 24000, Note_on_c, 9, 36, 0
9, 24000, Note_on_c, 9, 37, 127
9, 24000, Note_on_c, 9, 42, 90
9, 24039, Note_on_c, 9, 42, 0
9, 24040, Note_on_c, 9, 36, 115
9, 24040, Note_on_c, 9, 42, 90
9, 24079, Note_on_c, 9, 42, 0
9, 24079, Note_on_c, 9, 36, 0
9, 24080, Note_on_c, 9, 36, 115
9, 24080, Note_on_c, 9, 42, 90
9, 24119, Note_on_c, 9, 42, 0
9, 24119, Note_on_c, 9, 36, 0
9, 24120, Note_on_c, 9, 37, 0
9, 24120, Note_on_c, 9, 36, 115
9, 24120, Note_on_c, 9, 42, 90
9, 24159, Note_on_c, 9, 42, 0
9, 24160, Note_on_c, 9, 42, 90
9, 24199, Note_on_c, 9, 42, 0
9, 24200, Note_on_c, 9, 42, 90
9, 24239, Note_on_c, 9, 42, 0
9, 24240, Note_on_c, 9, 42, 90
9, 24279, Note_on_c, 9, 42, 0
9, 24280, Note_on_c, 9, 42, 90
9, 24319, Note_on_c, 9, 42, 0
9, 24320, Note_on_c, 9, 42, 90
9, 24359, Note_on_c, 9, 42, 0
9, 24360, Note_on_c, 9, 36, 0
9, 24360, Note_on_c, 9, 37, 127
9, 24360, Note_on_c, 9, 42, 90
9, 24399, Note_on_c, 9, 42, 0
9, 24400, Note_on_c, 9, 42, 90
9, 24439, Note_on_c, 9, 42, 0
9, 24440, Note_on_c, 9, 42, 90
9, 24479, Note_on_c, 9, 42, 0
9, 24480, Note_on_c, 9, 37, 0
9, 24480, Note_on_c, 9, 36, 115
9, 24480, Note_on_c, 9, 42, 90
9, 24519, Note_on_c, 9, 42, 0
9, 24520, Note_on_c, 9, 42, 90
9, 24559, Note_on_c, 9, 42, 0
9, 24560, Note_on_c, 9, 42, 90
9, 24599, Note_on_c, 9, 42, 0
9, 24600, Note_on_c, 9, 42, 90
9, 24639, Note_on_c, 9, 42, 0
9, 24640, Note_on_c, 9, 42, 90
9, 24679, Note_on_c, 9, 42, 0
9, 24680, Note_on_c, 9, 42, 90
9, 24719, Note_on_c, 9, 42, 0
9, 24720, Note_on_c, 9, 37, 127
9, 24720, Note_on_c, 9, 42, 90
9, 24759, Note_on_c, 9, 42, 0
9, 24760, Note_on_c, 9, 36, 0
9, 24760, Note_on_c, 9, 42, 90
9, 24799, Note_on_c, 9, 42, 0
9, 24800, Note_on_c, 9, 36, 115
9, 24800, Note_on_c, 9, 42, 90
9, 24839, Note_on_c, 9, 42, 0
9, 24839, Note_on_c, 9, 36, 0
9, 24840, Note_on_c, 9, 37, 0
9, 24840, Note_on_c, 9, 36, 115
9, 24840, Note_on_c, 9, 42, 90
9, 24879, Note_on_c, 9, 42, 0
9, 24880, Note_on_c, 9, 42, 90
9, 24919, Note_on_c, 9, 42, 0
9, 24920, Note_on_c, 9, 36, 0
9, 24920, Note_on_c, 9, 42, 90
9, 24959, Note_on_c, 9, 42, 0
9, 24960, Note_on_c, 9, 42, 90
9, 24999, Note_on_c, 9, 42, 0
9, 25000, Note_on_c, 9, 42, 90
9, 25039, Note_on_c, 9, 42, 0
9, 25040, Note_on_c, 9, 42, 90
9, 25079, Note_on_c, 9, 42, 0
9, 25080, Note_on_c, 9, 37, 127
9, 25080, Note_on_c, 9, 42, 90
9, 25119, Note_on_c, 9, 42, 0
9, 25119, Note_on_c, 9, 37, 0
9, 25120, Note_on_c, 9, 42, 90
9, 25159, Note_on_c, 9, 42, 0
9, 25160, Note_on_c, 9, 42, 90
9, 25199, Note_on_c, 9, 42, 0
9, 25200, Note_on_c, 9, 36, 115
9, 25200, Note_on_c, 9, 57, 90
9, 25200, Note_on_c, 9, 42, 90
9, 25239, Note_on_c, 9, 42, 0
9, 25240, Note_on_c, 9, 42, 90
9, 25279, Note_on_c, 9, 42, 0
9, 25280, Note_on_c, 9, 42, 90
9, 25319, Note_on_c, 9, 42, 0
9, 25320, Note_on_c, 9, 42, 90
9, 25359, Note_on_c, 9, 42, 0
9, 25360, Note_on_c, 9, 42, 90
9, 25399, Note_on_c, 9, 42, 0
9, 25400, Note_on_c, 9, 42, 90
9, 25439, Note_on_c, 9, 42, 0
9, 25440, Note_on_c, 9, 36, 0
9, 25440, Note_on_c, 9, 42, 90
9, 25440, Note_on_c, 9, 38, 100
9, 25479, Note_on_c, 9, 42, 0
9, 25480, Note_on_c, 9, 36, 115
9, 25480, Note_on_c, 9, 42, 90
9, 25519, Note_on_c, 9, 42, 0
9, 25519, Note_on_c, 9, 36, 0
9, 25520, Note_on_c, 9, 36, 115
9, 25520, Note_on_c, 9, 42, 90
9, 25559, Note_on_c, 9, 42, 0
9, 25559, Note_on_c, 9, 36, 0
9, 25560, Note_on_c, 9, 38, 0
9, 25560, Note_on_c, 9, 36, 115
9, 25560, Note_on_c, 9, 42, 90
9, 25599, Note_on_c, 9, 42, 0
9, 25600, Note_on_c, 9, 42, 90
9, 25639, Note_on_c, 9, 42, 0
9, 25640, Note_on_c, 9, 42, 90
9, 25679, Note_on_c, 9, 42, 0
9, 25680, Note_on_c, 9, 57, 0
9, 25680, Note_on_c, 9, 42, 90
9, 25719, Note_on_c, 9, 42, 0
9, 25720, Note_on_c, 9, 42, 90
9, 25759, Note_on_c, 9, 42, 0
9, 25760, Note_on_c, 9, 42, 90
9, 25799, Note_on_c, 9, 42, 0
9, 25800, Note_on_c, 9, 42, 90
9, 25800, Note_on_c, 9, 38, 100
9, 25839, Note_on_c, 9, 42, 0
9, 25840, Note_on_c, 9, 36, 0
9, 25840, Note_on_c, 9, 42, 90
9, 25879, Note_on_c, 9, 42, 0
9, 25880, Note_on_c, 9, 36, 115
9, 25880, Note_on_c, 9, 42, 90
9, 25919, Note_on_c, 9, 42, 0
9, 25919, Note_on_c, 9, 36, 0
9, 25920, Note_on_c, 9, 38, 0
9, 25920, Note_on_c, 9, 36, 115
9, 25920, Note_on_c, 9, 42, 90
9, 25959, Note_on_c, 9, 42, 0
9, 25960, Note_on_c, 9, 42, 90
9, 25999, Note_on_c, 9, 42, 0
9, 26000, Note_on_c, 9, 42, 90
9, 26039, Note_on_c, 9, 42, 0
9, 26040, Note_on_c, 9, 42, 90
9, 26079, Note_on_c, 9, 42, 0
9, 26080, Note_on_c, 9, 42, 90
9, 26119, Note_on_c, 9, 42, 0
9, 26120, Note_on_c, 9, 42, 90
9, 26159, Note_on_c, 9, 42, 0
9, 26160, Note_on_c, 9, 42, 90
9, 26160, Note_on_c, 9, 38, 100
9, 26199, Note_on_c, 9, 42, 0
9, 26200, Note_on_c, 9, 36, 0
9, 26200, Note_on_c, 9, 42, 90
9, 26239, Note_on_c, 9, 42, 0
9, 26240, Note_on_c, 9, 36, 115
9, 26240, Note_on_c, 9, 42, 90
9, 26279, Note_on_c, 9, 42, 0
9, 26279, Note_on_c, 9, 36, 0
9, 26280, Note_on_c, 9, 38, 0
9, 26280, Note_on_c, 9, 36, 115
9, 26280, Note_on_c, 9, 42, 90
9, 26319, Note_on_c, 9, 42, 0
9, 26320, Note_on_c, 9, 42, 90
9, 26359, Note_on_c, 9, 42, 0
9, 26360, Note_on_c, 9, 36, 0
9, 26360, Note_on_c, 9, 42, 90
9, 26399, Note_on_c, 9, 42, 0
9, 26400, Note_on_c, 9, 42, 90
9, 26439, Note_on_c, 9, 42, 0
9, 26440, Note_on_c, 9, 42, 90
9, 26479, Note_on_c, 9, 42, 0
9, 26480, Note_on_c, 9, 42, 90
9, 26519, Note_on_c, 9, 42, 0
9, 26520, Note_on_c, 9, 42, 90
9, 26520, Note_on_c, 9, 38, 100
9, 26559, Note_on_c, 9, 42, 0
9, 26560, Note_on_c, 9, 42, 90
9, 26599, Note_on_c, 9, 42, 0
9, 26600, Note_on_c, 9, 42, 90
9, 26639, Note_on_c, 9, 42, 0
9, 26640, Note_on_c, 9, 38, 0
9, 26640, Note_on_c, 9, 36, 115
9, 26640, Note_on_c, 9, 42, 90
9, 26679, Note_on_c, 9, 42, 0
9, 26680, Note_on_c, 9, 42, 90
9, 26719, Note_on_c, 9, 42, 0
9, 26720, Note_on_c, 9, 42, 90
9, 26759, Note_on_c, 9, 42, 0
9, 26760, Note_on_c, 9, 42, 90
9, 26799, Note_on_c, 9, 42, 0
9, 26800, Note_on_c, 9, 42, 90
9, 26839, Note_on_c, 9, 42, 0
9, 26840, Note_on_c, 9, 42, 90
9, 26879, Note_on_c, 9, 42, 0
9, 26880, Note_on_c, 9, 36, 0
9, 26880, Note_on_c, 9, 42, 90
9, 26880, Note_on_c, 9, 38, 100
9, 26919, Note_on_c, 9, 42, 0
9, 26920, Note_on_c, 9, 42, 90
9, 26959, Note_on_c, 9, 42, 0
9, 26960, Note_on_c, 9, 36, 115
9, 26960, Note_on_c, 9, 42, 90
9, 26999, Note_on_c, 9, 42, 0
9, 26999, Note_on_c, 9, 36, 0
9, 27000, Note_on_c, 9, 38, 0
9, 27000, Note_on_c, 9, 36, 115
9, 27000, Note_on_c, 9, 42, 90
9, 27039, Note_on_c, 9, 42, 0
9, 27040, Note_on_c, 9, 42, 90
9, 27079, Note_on_c, 9, 42, 0
9, 27080, Note_on_c, 9, 42, 90
9, 27119, Note_on_c, 9, 42, 0
9, 27120, Note_on_c, 9, 42, 90
9, 27159, Note_on_c, 9, 42, 0
9, 27160, Note_on_c, 9, 42, 90
9, 27199, Note_on_c, 9, 42, 0
9, 27200, Note_on_c, 9, 42, 90
9, 27239, Note_on_c, 9, 42, 0
9, 27240, Note_on_c, 9, 42, 90
9, 27240, Note_on_c, 9, 38, 100
9, 27279, Note_on_c, 9, 42, 0
9, 27280, Note_on_c, 9, 36, 0
9, 27280, Note_on_c, 9, 42, 90
9, 27319, Note_on_c, 9, 42, 0
9, 27320, Note_on_c, 9, 36, 115
9, 27320, Note_on_c, 9, 42, 90
9, 27359, Note_on_c, 9, 42, 0
9, 27359, Note_on_c, 9, 36, 0
9, 27360, Note_on_c, 9, 38, 0
9, 27360, Note_on_c, 9, 36, 115
9, 27360, Note_on_c, 9, 42, 90
9, 27399, Note_on_c, 9, 42, 0
9, 27400, Note_on_c, 9, 42, 90
9, 27439, Note_on_c, 9, 42, 0
9, 27440, Note_on_c, 9, 42, 90
9, 27479, Note_on_c, 9, 42, 0
9, 27480, Note_on_c, 9, 42, 90
9, 27519, Note_on_c, 9, 42, 0
9, 27520, Note_on_c, 9, 42, 90
9, 27559, Note_on_c, 9, 42, 0
9, 27560, Note_on_c, 9, 42, 90
9, 27599, Note_on_c, 9, 42, 0
9, 27600, Note_on_c, 9, 36, 0
9, 27600, Note_on_c, 9, 42, 90
9, 27600, Note_on_c, 9, 38, 100
9, 27639, Note_on_c, 9, 42, 0
9, 27640, Note_on_c, 9, 36, 115
9, 27640, Note_on_c, 9, 36, 0
9, 27640, Note_on_c, 9, 42, 90
9, 27679, Note_on_c, 9, 42, 0
9, 27680, Note_on_c, 9, 36, 115
9, 27680, Note_on_c, 9, 42, 90
9, 27719, Note_on_c, 9, 42, 0
9, 27719, Note_on_c, 9, 36, 0
9, 27720, Note_on_c, 9, 38, 0
9, 27720, Note_on_c, 9, 36, 115
9, 27720, Note_on_c, 9, 42, 90
9, 27759, Note_on_c, 9, 42, 0
9, 27760, Note_on_c, 9, 42, 90
9, 27799, Note_on_c, 9, 42, 0
9, 27800, Note_on_c, 9, 36, 0
9, 27800, Note_on_c, 9, 42, 90
9, 27839, Note_on_c, 9, 42, 0
9, 27840, Note_on_c, 9, 42, 90
9, 27879, Note_on_c, 9, 42, 0
9, 27880, Note_on_c, 9, 42, 90
9, 27919, Note_on_c, 9, 42, 0
9, 27920, Note_on_c, 9, 42, 90
9, 27959, Note_on_c, 9, 42, 0
9, 27960, Note_on_c, 9, 42, 90
9, 27960, Note_on_c, 9, 38, 100
9, 27999, Note_on_c, 9, 42, 0
9, 28000, Note_on_c, 9, 42, 90
9, 28039, Note_on_c, 9, 42, 0
9, 28040, Note_on_c, 9, 42, 90
9, 28079, Note_on_c, 9, 42, 0
9, 28080, Note_on_c, 9, 38, 0
9, 28080, Note_on_c, 9, 36, 115
9, 28080, Note_on_c, 9, 57, 90
9, 28080, Note_on_c, 9, 42, 90
9, 28119, Note_on_c, 9, 42, 0
9, 28120, Note_on_c, 9, 42, 90
9, 28159, Note_on_c, 9, 42, 0
9, 28160, Note_on_c, 9, 42, 90
9, 28199, Note_on_c, 9, 42, 0
9, 28200, Note_on_c, 9, 42, 90
9, 28239, Note_on_c, 9, 42, 0
9, 28240, Note_on_c, 9, 42, 90
9, 28279, Note_on_c, 9, 42, 0
9, 28280, Note_on_c, 9, 42, 90
9, 28319, Note_on_c, 9, 42, 0
9, 28320, Note_on_c, 9, 42, 90
9, 28320, Note_on_c, 9, 38, 100
9, 28359, Note_on_c, 9, 42, 0
9, 28360, Note_on_c, 9, 36, 0
9, 28360, Note_on_c, 9, 42, 90
9, 28399, Note_on_c, 9, 42, 0
9, 28400, Note_on_c, 9, 36, 115
9, 28400, Note_on_c, 9, 42, 90
9, 28439, Note_on_c, 9, 42, 0
9, 28439, Note_on_c, 9, 36, 0
9, 28440, Note_on_c, 9, 38, 0
9, 28440, Note_on_c, 9, 36, 115
9, 28440, Note_on_c, 9, 42, 90
9, 28479, Note_on_c, 9, 42, 0
9, 28480, Note_on_c, 9, 42, 90
9, 28519, Note_on_c, 9, 42, 0
9, 28520, Note_on_c, 9, 36, 0
9, 28520, Note_on_c, 9, 42, 90
9, 28559, Note_on_c, 9, 42, 0
9, 28560, Note_on_c, 9, 57, 0
9, 28560, Note_on_c, 9, 42, 90
9, 28599, Note_on_c, 9, 42, 0
9, 28600, Note_on_c, 9, 42, 90
9, 28639, Note_on_c, 9, 42, 0
9, 28640, Note_on_c, 9, 42, 90
9, 28679, Note_on_c, 9, 42, 0
9, 28680, Note_on_c, 9, 42, 90
9, 28680, Note_on_c, 9, 38, 100
9, 28719, Note_on_c, 9, 42, 0
9, 28720, Note_on_c, 9, 42, 90
9, 28759, Note_on_c, 9, 42, 0
9, 28760, Note_on_c, 9, 42, 90
9, 28799, Note_on_c, 9, 42, 0
9, 28800, Note_on_c, 9, 38, 0
9, 28800, Note_on_c, 9, 36, 115
9, 28800, Note_on_c, 9, 42, 90
9, 28839, Note_on_c, 9, 42, 0
9, 28840, Note_on_c, 9, 42, 90
9, 28879, Note_on_c, 9, 42, 0
9, 28880, Note_on_c, 9, 42, 90
9, 28919, Note_on_c, 9, 42, 0
9, 28920, Note_on_c, 9, 42, 90
9, 28959, Note_on_c, 9, 42, 0
9, 28960, Note_on_c, 9, 42, 90
9, 28999, Note_on_c, 9, 42, 0
9, 29000, Note_on_c, 9, 42, 90
9, 29039, Note_on_c, 9, 42, 0
9, 29040, Note_on_c, 9, 36, 0
9, 29040, Note_on_c, 9, 42, 90
9, 29040, Note_on_c, 9, 38, 100
9, 29079, Note_on_c, 9, 42, 0
9, 29080, Note_on_c, 9, 42, 90
9, 29119, Note_on_c, 9, 42, 0
9, 29120, Note_on_c, 9, 36, 115
9, 29120, Note_on_c, 9, 42, 90
9, 29159, Note_on_c, 9, 42, 0
9, 29159, Note_on_c, 9, 36, 0
9, 29160, Note_on_c, 9, 38, 0
9, 29160, Note_on_c, 9, 36, 115
9, 29160, Note_on_c, 9, 42, 90
9, 29199, Note_on_c, 9, 42, 0
9, 29200, Note_on_c, 9, 42, 90
9, 29239, Note_on_c, 9, 42, 0
9, 29240, Note_on_c, 9, 42, 90
9, 29279, Note_on_c, 9, 42, 0
9, 29280, Note_on_c, 9, 42, 90
9, 29319, Note_on_c, 9, 42, 0
9, 29320, Note_on_c, 9, 42, 90
9, 29359, Note_on_c, 9, 42, 0
9, 29360, Note_on_c, 9, 42, 90
9, 29399, Note_on_c, 9, 42, 0
9, 29400, Note_on_c, 9, 36, 0
9, 29400, Note_on_c, 9, 42, 90
9, 29400, Note_on_c, 9, 38, 100
9, 29439, Note_on_c, 9, 42, 0
9, 29440, Note_on_c, 9, 36, 115
9, 29440, Note_on_c, 9, 42, 90
9, 29479, Note_on_c, 9, 42, 0
9, 29479, Note_on_c, 9, 36, 0
9, 29480, Note_on_c, 9, 36, 115
9, 29480, Note_on_c, 9, 42, 90
9, 29519, Note_on_c, 9, 42, 0
9, 29519, Note_on_c, 9, 36, 0
9, 29520, Note_on_c, 9, 38, 0
9, 29520, Note_on_c, 9, 36, 115
9, 29520, Note_on_c, 9, 42, 90
9, 29559, Note_on_c, 9, 42, 0
9, 29560, Note_on_c, 9, 42, 90
9, 29599, Note_on_c, 9, 42, 0
9, 29600, Note_on_c, 9, 42, 90
9, 29639, Note_on_c, 9, 42, 0
9, 29640, Note_on_c, 9, 42, 90
9, 29679, Note_on_c, 9, 42, 0
9, 29680, Note_on_c, 9, 42, 90
9, 29719, Note_on_c, 9, 42, 0
9, 29720, Note_on_c, 9, 42, 90
9, 29759, Note_on_c, 9, 42, 0
9, 29760, Note_on_c, 9, 36, 0
9, 29760, Note_on_c, 9, 42, 90
9, 29760, Note_on_c, 9, 38, 100
9, 29799, Note_on_c, 9, 42, 0
9, 29800, Note_on_c, 9, 36, 115
9, 29800, Note_on_c, 9, 42, 90
9, 29839, Note_on_c, 9, 42, 0
9, 29839, Note_on_c, 9, 36, 0
9, 29840, Note_on_c, 9, 36, 115
9, 29840, Note_on_c, 9, 42, 90
9, 29879, Note_on_c, 9, 42, 0
9, 29879, Note_on_c, 9, 36, 0
9, 29880, Note_on_c, 9, 38, 0
9, 29880, Note_on_c, 9, 36, 115
9, 29880, Note_on_c, 9, 42, 90
9, 29919, Note_on_c, 9, 42, 0
9, 29920, Note_on_c, 9, 42, 90
9, 29959, Note_on_c, 9, 42, 0
9, 29960, Note_on_c, 9, 42, 90
9, 29999, Note_on_c, 9, 42, 0
9, 30000, Note_on_c, 9, 42, 90
9, 30039, Note_on_c, 9, 42, 0
9, 30040, Note_on_c, 9, 42, 90
9, 30079, Note_on_c, 9, 42, 0
9, 30080, Note_on_c, 9, 42, 90
9, 30119, Note_on_c, 9, 42, 0
9, 30120, Note_on_c, 9, 42, 90
9, 30120, Note_on_c, 9, 38, 100
9, 30159, Note_on_c, 9, 42, 0
9, 30160, Note_on_c, 9, 36, 0
9, 30160, Note_on_c, 9, 42, 90
9, 30199, Note_on_c, 9, 42, 0
9, 30200, Note_on_c, 9, 42, 90
9, 30239, Note_on_c, 9, 42, 0
9, 30240, Note_on_c, 9, 38, 0
9, 30240, Note_on_c, 9, 36, 115
9, 30240, Note_on_c, 9, 42, 90
9, 30279, Note_on_c, 9, 42, 0
9, 30280, Note_on_c, 9, 42, 90
9, 30319, Note_on_c, 9, 42, 0
9, 30320, Note_on_c, 9, 42, 90
9, 30359, Note_on_c, 9, 42, 0
9, 30360, Note_on_c, 9, 42, 90
9, 30399, Note_on_c, 9, 42, 0
9, 30400, Note_on_c, 9, 42, 90
9, 30439, Note_on_c, 9, 42, 0
9, 30440, Note_on_c, 9, 42, 90
9, 30479, Note_on_c, 9, 42, 0
9, 30480, Note_on_c, 9, 36, 0
9, 30480, Note_on_c, 9, 42, 90
9, 30480, Note_on_c, 9, 38, 100
9, 30519, Note_on_c, 9, 42, 0
9, 30520, Note_on_c, 9, 42, 90
9, 30559, Note_on_c, 9, 42, 0
9, 30560, Note_on_c, 9, 38, 0
9, 30560, Note_on_c, 9, 36, 115
9, 30560, Note_on_c, 9, 42, 90
9, 30599, Note_on_c, 9, 42, 0
9, 30599, Note_on_c, 9, 36, 0
9, 30600, Note_on_c, 9, 36, 115
9, 30600, Note_on_c, 9, 42, 90
9, 30639, Note_on_c, 9, 42, 0
9, 30640, Note_on_c, 9, 42, 90
9, 30679, Note_on_c, 9, 42, 0
9, 30680, Note_on_c, 9, 36, 0
9, 30680, Note_on_c, 9, 42, 90
9, 30719, Note_on_c, 9, 42, 0
9, 30720, Note_on_c, 9, 42, 90
9, 30759, Note_on_c, 9, 42, 0
9, 30760, Note_on_c, 9, 42, 90
9, 30799, Note_on_c, 9, 42, 0
9, 30800, Note_on_c, 9, 42, 90
9, 30839, Note_on_c, 9, 42, 0
9, 30840, Note_on_c, 9, 42, 90
9, 30840, Note_on_c, 9, 38, 100
9, 30879, Note_on_c, 9, 38, 0
9, 30879, Note_on_c, 9, 42, 0
9, 30880, Note_on_c, 9, 42, 90
9, 30919, Note_on_c, 9, 42, 0
9, 30920, Note_on_c, 9, 42, 90
9, 30959, Note_on_c, 9, 42, 0
9, 30960, Note_on_c, 9, 36, 115
9, 30960, Note_on_c, 9, 57, 90
9, 30960, Note_on_c, 9, 42, 90
9, 30999, Note_on_c, 9, 42, 0
9, 31000, Note_on_c, 9, 42, 90
9, 31039, Note_on_c, 9, 42, 0
9, 31040, Note_on_c, 9, 42, 90
9, 31079, Note_on_c, 9, 42, 0
9, 31080, Note_on_c, 9, 42, 90
9, 31119, Note_on_c, 9, 42, 0
9, 31120, Note_on_c, 9, 42, 90
9, 31159, Note_on_c, 9, 42, 0
9, 31160, Note_on_c, 9, 42, 90
9, 31199, Note_on_c, 9, 42, 0
9, 31200, Note_on_c, 9, 36, 0
9, 31200, Note_on_c, 9, 42, 90
9, 31200, Note_on_c, 9, 38, 100
9, 31239, Note_on_c, 9, 42, 0
9, 31240, Note_on_c, 9, 36, 115
9, 31240, Note_on_c, 9, 42, 90
9, 31279, Note_on_c, 9, 42, 0
9, 31279, Note_on_c, 9, 36, 0
9, 31280, Note_on_c, 9, 36, 115
9, 31280, Note_on_c, 9, 42, 90
9, 31319, Note_on_c, 9, 42, 0
9, 31319, Note_on_c, 9, 36, 0
9, 31320, Note_on_c, 9, 38, 0
9, 31320, Note_on_c, 9, 36, 115
9, 31320, Note_on_c, 9, 42, 90
9, 31359, Note_on_c, 9, 42, 0
9, 31360, Note_on_c, 9, 42, 90
9, 31399, Note_on_c, 9, 42, 0
9, 31400, Note_on_c, 9, 42, 90
9, 31439, Note_on_c, 9, 42, 0
9, 31440, Note_on_c, 9, 57, 0
9, 31440, Note_on_c, 9, 42, 90
9, 31479, Note_on_c, 9, 42, 0
9, 31480, Note_on_c, 9, 42, 90
9, 31519, Note_on_c, 9, 42, 0
9, 31520, Note_on_c, 9, 42, 90
9, 31559, Note_on_c, 9, 42, 0
9, 31560, Note_on_c, 9, 42, 90
9, 31560, Note_on_c, 9, 38, 100
9, 31599, Note_on_c, 9, 42, 0
9, 31600, Note_on_c, 9, 36, 0
9, 31600, Note_on_c, 9, 42, 90
9, 31639, Note_on_c, 9, 42, 0
9, 31640, Note_on_c, 9, 42, 90
9, 31679, Note_on_c, 9, 42, 0
9, 31680, Note_on_c, 9, 38, 0
9, 31680, Note_on_c, 9, 36, 115
9, 31680, Note_on_c, 9, 57, 90
9, 31680, Note_on_c, 9, 42, 90
9, 31719, Note_on_c, 9, 42, 0
9, 31720, Note_on_c, 9, 42, 90
9, 31759, Note_on_c, 9, 42, 0
9, 31760, Note_on_c, 9, 42, 90
9, 31799, Note_on_c, 9, 42, 0
9, 31800, Note_on_c, 9, 42, 90
9, 31839, Note_on_c, 9, 42, 0
9, 31840, Note_on_c, 9, 42, 90
9, 31879, Note_on_c, 9, 42, 0
9, 31880, Note_on_c, 9, 42, 90
9, 31919, Note_on_c, 9, 42, 0
9, 31920, Note_on_c, 9, 42, 90
9, 31920, Note_on_c, 9, 38, 100
9, 31959, Note_on_c, 9, 42, 0
9, 31960, Note_on_c, 9, 36, 0
9, 31960, Note_on_c, 9, 42, 90
9, 31999, Note_on_c, 9, 42, 0
9, 32000, Note_on_c, 9, 42, 90
9, 32039, Note_on_c, 9, 42, 0
9, 32040, Note_on_c, 9, 57, 0
9, 32040, Note_on_c, 9, 38, 0
9, 32040, Note_on_c, 9, 36, 115
9, 32040, Note_on_c, 9, 57, 90
9, 32040, Note_on_c, 9, 42, 90
9, 32079, Note_on_c, 9, 42, 0
9, 32080, Note_on_c, 9, 42, 90
9, 32119, Note_on_c, 9, 42, 0
9, 32120, Note_on_c, 9, 42, 90
9, 32159, Note_on_c, 9, 42, 0
9, 32160, Note_on_c, 9, 42, 90
9, 32199, Note_on_c, 9, 42, 0
9, 32200, Note_on_c, 9, 42, 90
9, 32239, Note_on_c, 9, 42, 0
9, 32240, Note_on_c, 9, 42, 90
9, 32279, Note_on_c, 9, 42, 0
9, 32280, Note_on_c, 9, 42, 90
9, 32280, Note_on_c, 9, 38, 100
9, 32319, Note_on_c, 9, 42, 0
9, 32320, Note_on_c, 9, 36, 0
9, 32320, Note_on_c, 9, 42, 90
9, 32359, Note_on_c, 9, 42, 0
9, 32360, Note_on_c, 9, 42, 90
9, 32399, Note_on_c, 9, 42, 0
9, 32400, Note_on_c, 9, 57, 0
9, 32400, Note_on_c, 9, 38, 0
9, 32400, Note_on_c, 9, 36, 115
9, 32400, Note_on_c, 9, 57, 90
9, 32760, Note_on_c, 9, 57, 0
9, 32880, Note_on_c, 9, 36, 0
9, 32880, End_track
10, 0, Start_track
10, 0, MIDI_port, 0
10, 0, Title_t, "sequenced by:"
10, 0, End_track
11, 0, Start_track
11, 0, MIDI_port, 0
11, 0, Title_t, "Don Carroll"
11, 0, End_track
12, 0, Start_track
12, 0, MIDI_port, 0
12, 0, Title_t, "Houston, Texas"
12, 0, End_track
13, 0, Start_track
13, 0, MIDI_port, 0
13, 0, Title_t, "713-370-0586"
13, 0, End_track
14, 0, Start_track
14, 0, MIDI_port, 1
14, 0, Program_c, 0, 55
14, 1320, Program_c, 0, 63
14, 2160, Note_on_c, 0, 9, 125
14, 2520, Note_on_c, 0, 9, 0
14, 2880, Note_on_c, 0, 2, 125
14, 3160, Note_on_c, 0, 2, 0
14, 3600, Note_on_c, 0, 9, 125
14, 3840, Note_on_c, 0, 9, 0
14, 3960, Note_on_c, 0, 52, 125
14, 4320, Note_on_c, 0, 52, 0
14, 4320, Note_on_c, 0, 9, 125
14, 4560, Note_on_c, 0, 9, 0
14, 4600, Program_c, 0, 55
14, 10680, Program_c, 0, 63
14, 10800, Note_on_c, 0, 9, 125
14, 11040, Note_on_c, 0, 9, 0
14, 11160, Note_on_c, 0, 52, 125
14, 11480, Note_on_c, 0, 52, 0
14, 11520, Note_on_c, 0, 9, 125
14, 11800, Note_on_c, 0, 9, 0
14, 12120, Program_c, 0, 55
14, 13560, Program_c, 0, 63
14, 13680, Note_on_c, 0, 9, 125
14, 13960, Note_on_c, 0, 9, 0
14, 14400, Note_on_c, 0, 2, 125
14, 14680, Note_on_c, 0, 2, 0
14, 15120, Note_on_c, 0, 9, 125
14, 15400, Note_on_c, 0, 9, 0
14, 15480, Note_on_c, 0, 52, 125
14, 15840, Note_on_c, 0, 52, 0
14, 15840, Note_on_c, 0, 9, 125
14, 16120, Note_on_c, 0, 9, 0
14, 16160, Program_c, 0, 55
14, 25080, Program_c, 0, 63
14, 25200, Note_on_c, 0, 9, 125
14, 25440, Note_on_c, 0, 9, 0
14, 25560, Note_on_c, 0, 52, 125
14, 25880, Note_on_c, 0, 52, 0
14, 25920, Note_on_c, 0, 9, 125
14, 26200, Note_on_c, 0, 9, 0
14, 26520, Program_c, 0, 55
14, 27960, Program_c, 0, 63
14, 28080, Note_on_c, 0, 9, 125
14, 28360, Note_on_c, 0, 9, 0
14, 28800, Note_on_c, 0, 2, 125
14, 29080, Note_on_c, 0, 2, 0
14, 29520, Note_on_c, 0, 9, 125
14, 29800, Note_on_c, 0, 9, 0
14, 29880, Note_on_c, 0, 52, 125
14, 30240, Note_on_c, 0, 52, 0
14, 30240, Note_on_c, 0, 9, 125
14, 30520, Note_on_c, 0, 9, 0
14, 30560, Program_c, 0, 55
14, 30560, End_track
0, 0, End_of_file
