0, 0, Header, 1, 126, 120
1, 0, Start_track
1, 0, Copyright_t, "Copyright (C) MidiMart.net"
1, 0, System_exclusive, 10, 65, 16, 66, 18, 64, 0, 127, 0, 65, 247
1, 0, Control_c, 0, 0, 0
1, 0, Sequencer_specific, 20, 74, 65, 90, 50, 1, 0, 0, 0, 0, 0, 0, 0, 0, 0, 0, 0, 0, 0, 0, 0
1, 0, Text_t, "There Will Never Be Another You by Andy Williams"
1, 0, Tempo, 789473
1, 0, Time_signature, 4, 2, 24, 8
1, 0, Title_t, "---------- D ----------"
1, 600, Tempo, 714285
1, 718, Tempo, 697674
1, 960, Tempo, 789473
1, 1080, Tempo, 952380
1, 1320, Tempo, 1500000
1, 1440, Tempo, 576923
1, 1920, Tempo, 588235
1, 2160, Tempo, 652173
1, 2400, Tempo, 625000
1, 2640, Tempo, 681818
1, 2880, Tempo, 789473
1, 3360, Time_signature, 2, 2, 24, 8
1, 3480, Tempo, 869565
1, 3600, Tempo, 789473
1, 3600, Time_signature, 4, 2, 24, 8
1, 4560, Tempo, 833333
1, 4800, Tempo, 869565
1, 5040, Tempo, 909090
1, 5280, Tempo, 952380
1, 5520, Tempo, 833333
1, 6000, Tempo, 869565
1, 6480, Tempo, 789473
1, 6960, Time_signature, 5, 2, 24, 8
1, 6960, Tempo, 869565
1, 7560, Time_signature, 4, 2, 24, 8
1, 16440, Tempo, 909090
1, 16680, Tempo, 952380
1, 16800, Tempo, 1000000
1, 17160, Tempo, 869565
1, 24120, Tempo, 909090
1, 24240, Tempo, 1000000
1, 25560, Tempo, 1071428
1, 26280, Tempo, 869565
1, 26760, Tempo, 1000000
1, 27120, Tempo, 1111111
1, 27120, End_track
2, 0, Start_track
2, 0, Sequencer_specific, 20, 74, 65, 90, 50, 1, 0, 0, 0, 0, 0, 0, 0, 0, 0, 0, 0, 0, 0, 0, 0
2, 0, End_track
3, 0, Start_track
3, 0, Control_c, 1, 0, 0
3, 0, Program_c, 1, 57
3, 0, Sequencer_specific, 20, 74, 65, 90, 50, 1, 0, 0, 0, 0, 0, 0, 0, 0, 0, 0, 0, 0, 0, 0, 0
3, 0, Control_c, 1, 7, 119
3, 0, Title_t, "Trombone"
3, 0, MIDI_port, 0
3, 0, Control_c, 1, 121, 0
3, 0, Control_c, 1, 10, 84
3, 6, Control_c, 1, 11, 127
3, 8, Control_c, 1, 91, 80
3, 10, Control_c, 1, 93, 40
3, 15001, Note_on_c, 1, 60, 74
3, 15001, Note_on_c, 1, 54, 67
3, 15236, Note_on_c, 1, 60, 0
3, 15240, Note_on_c, 1, 59, 93
3, 15719, Note_on_c, 1, 59, 0
3, 15720, Note_on_c, 1, 62, 80
3, 15720, Note_on_c, 1, 58, 66
3, 15720, Note_on_c, 1, 54, 0
3, 15841, Note_on_c, 1, 64, 70
3, 15844, Note_on_c, 1, 62, 0
3, 15954, Note_on_c, 1, 64, 0
3, 15959, Note_on_c, 1, 62, 73
3, 16199, Note_on_c, 1, 66, 61
3, 16199, Note_on_c, 1, 61, 62
3, 16209, Note_on_c, 1, 62, 0
3, 16209, Note_on_c, 1, 58, 0
3, 16438, Note_on_c, 1, 61, 0
3, 16438, Note_on_c, 1, 55, 63
3, 16438, Note_on_c, 1, 61, 56
3, 16439, Note_on_c, 1, 66, 0
3, 16559, Note_on_c, 1, 59, 56
3, 16560, Note_on_c, 1, 54, 53
3, 16568, Note_on_c, 1, 55, 0
3, 16574, Note_on_c, 1, 61, 0
3, 16679, Note_on_c, 1, 56, 55
3, 16679, Note_on_c, 1, 62, 53
3, 16686, Note_on_c, 1, 54, 0
3, 16688, Note_on_c, 1, 59, 0
3, 17144, Note_on_c, 1, 56, 0
3, 17153, Note_on_c, 1, 62, 0
3, 20158, Note_on_c, 1, 68, 76
3, 20160, Note_on_c, 1, 64, 87
3, 20208, Note_on_c, 1, 64, 0
3, 20218, Note_on_c, 1, 68, 0
3, 20222, Note_on_c, 1, 68, 90
3, 20222, Note_on_c, 1, 64, 87
3, 20267, Note_on_c, 1, 64, 0
3, 20269, Note_on_c, 1, 68, 0
3, 20280, Note_on_c, 1, 68, 67
3, 20282, Note_on_c, 1, 64, 74
3, 20332, Note_on_c, 1, 64, 0
3, 20338, Note_on_c, 1, 64, 73
3, 20339, Note_on_c, 1, 61, 72
3, 20339, Note_on_c, 1, 68, 0
3, 20382, Note_on_c, 1, 61, 0
3, 20385, Note_on_c, 1, 64, 0
3, 20397, Note_on_c, 1, 61, 73
3, 20397, Note_on_c, 1, 64, 75
3, 20458, Note_on_c, 1, 59, 90
3, 20459, Note_on_c, 1, 61, 0
3, 20459, Note_on_c, 1, 68, 66
3, 20462, Note_on_c, 1, 64, 0
3, 20518, Note_on_c, 1, 58, 74
3, 20520, Note_on_c, 1, 67, 75
3, 20523, Note_on_c, 1, 68, 0
3, 20523, Note_on_c, 1, 59, 0
3, 20880, Note_on_c, 1, 67, 0
3, 20994, Note_on_c, 1, 58, 0
3, 22078, Note_on_c, 1, 55, 80
3, 22080, Note_on_c, 1, 76, 81
3, 22128, Note_on_c, 1, 55, 0
3, 22140, Note_on_c, 1, 72, 74
3, 22142, Note_on_c, 1, 55, 81
3, 22152, Note_on_c, 1, 76, 0
3, 22189, Note_on_c, 1, 72, 0
3, 22196, Note_on_c, 1, 55, 0
3, 22200, Note_on_c, 1, 72, 86
3, 22203, Note_on_c, 1, 55, 82
3, 22259, Note_on_c, 1, 72, 0
3, 22259, Note_on_c, 1, 57, 89
3, 22260, Note_on_c, 1, 74, 79
3, 22266, Note_on_c, 1, 55, 0
3, 22305, Note_on_c, 1, 74, 0
3, 22308, Note_on_c, 1, 57, 0
3, 22320, Note_on_c, 1, 57, 94
3, 22320, Note_on_c, 1, 74, 81
3, 22377, Note_on_c, 1, 59, 104
3, 22379, Note_on_c, 1, 74, 0
3, 22380, Note_on_c, 1, 73, 72
3, 22383, Note_on_c, 1, 57, 0
3, 22439, Note_on_c, 1, 60, 82
3, 22440, Note_on_c, 1, 71, 82
3, 22440, Note_on_c, 1, 76, 82
3, 22440, Note_on_c, 1, 59, 0
3, 22440, Note_on_c, 1, 66, 82
3, 22444, Note_on_c, 1, 73, 0
3, 22807, Note_on_c, 1, 76, 0
3, 22920, Note_on_c, 1, 71, 0
3, 22920, Note_on_c, 1, 59, 91
3, 22924, Note_on_c, 1, 60, 0
3, 22925, Note_on_c, 1, 66, 0
3, 23399, Note_on_c, 1, 59, 0
3, 23400, Note_on_c, 1, 58, 63
3, 23400, Note_on_c, 1, 62, 76
3, 23521, Note_on_c, 1, 64, 68
3, 23524, Note_on_c, 1, 62, 0
3, 23634, Note_on_c, 1, 64, 0
3, 23639, Note_on_c, 1, 62, 72
3, 23879, Note_on_c, 1, 66, 61
3, 23879, Note_on_c, 1, 61, 63
3, 23889, Note_on_c, 1, 62, 0
3, 23889, Note_on_c, 1, 58, 0
3, 24118, Note_on_c, 1, 61, 58
3, 24118, Note_on_c, 1, 55, 65
3, 24118, Note_on_c, 1, 61, 0
3, 24119, Note_on_c, 1, 66, 0
3, 24239, Note_on_c, 1, 59, 59
3, 24240, Note_on_c, 1, 54, 55
3, 24248, Note_on_c, 1, 55, 0
3, 24254, Note_on_c, 1, 61, 0
3, 24359, Note_on_c, 1, 62, 57
3, 24359, Note_on_c, 1, 56, 59
3, 24366, Note_on_c, 1, 54, 0
3, 24368, Note_on_c, 1, 59, 0
3, 24824, Note_on_c, 1, 56, 0
3, 24833, Note_on_c, 1, 62, 0
3, 26280, Note_on_c, 1, 62, 50
3, 26520, Note_on_c, 1, 61, 61
3, 26520, Note_on_c, 1, 62, 0
3, 26760, Note_on_c, 1, 59, 64
3, 26763, Note_on_c, 1, 61, 0
3, 27000, Note_on_c, 1, 58, 65
3, 27002, Note_on_c, 1, 59, 0
3, 27240, Note_on_c, 1, 59, 68
3, 27245, Note_on_c, 1, 58, 0
3, 27716, Note_on_c, 1, 59, 0
3, 27716, End_track
4, 0, Start_track
4, 0, Control_c, 2, 0, 0
4, 0, Program_c, 2, 45
4, 0, Sequencer_specific, 20, 74, 65, 90, 50, 1, 0, 0, 0, 0, 0, 0, 0, 0, 0, 0, 0, 0, 0, 0, 0
4, 0, Title_t, "Pizzicato Strings"
4, 0, Control_c, 2, 121, 0
4, 0, Control_c, 2, 7, 110
4, 0, MIDI_port, 0
4, 0, Control_c, 2, 10, 64
4, 6, Control_c, 2, 11, 127
4, 8, Control_c, 2, 91, 80
4, 10, Control_c, 2, 93, 40
4, 7440, Note_on_c, 2, 44, 55
4, 7500, Note_on_c, 2, 44, 0
4, 7560, Note_on_c, 2, 43, 68
4, 7597, Note_on_c, 2, 43, 0
4, 7800, Note_on_c, 2, 38, 70
4, 7847, Note_on_c, 2, 38, 0
4, 8040, Note_on_c, 2, 36, 80
4, 8077, Note_on_c, 2, 36, 0
4, 8280, Note_on_c, 2, 36, 73
4, 8321, Note_on_c, 2, 36, 0
4, 8520, Note_on_c, 2, 42, 74
4, 8565, Note_on_c, 2, 42, 0
4, 8760, Note_on_c, 2, 34, 74
4, 8798, Note_on_c, 2, 34, 0
4, 9000, Note_on_c, 2, 35, 77
4, 9044, Note_on_c, 2, 35, 0
4, 9240, Note_on_c, 2, 35, 87
4, 9286, Note_on_c, 2, 35, 0
4, 9480, Note_on_c, 2, 35, 64
4, 9514, Note_on_c, 2, 35, 0
4, 9720, Note_on_c, 2, 35, 77
4, 9760, Note_on_c, 2, 35, 0
4, 9960, Note_on_c, 2, 40, 66
4, 10000, Note_on_c, 2, 40, 0
4, 10080, Note_on_c, 2, 38, 71
4, 10112, Note_on_c, 2, 38, 0
4, 10200, Note_on_c, 2, 35, 65
4, 10241, Note_on_c, 2, 35, 0
4, 10320, Note_on_c, 2, 28, 77
4, 10349, Note_on_c, 2, 28, 0
4, 10440, Note_on_c, 2, 33, 71
4, 10483, Note_on_c, 2, 33, 0
4, 10680, Note_on_c, 2, 34, 60
4, 10740, Note_on_c, 2, 34, 0
4, 10920, Note_on_c, 2, 39, 61
4, 10978, Note_on_c, 2, 39, 0
4, 11160, Note_on_c, 2, 45, 60
4, 11188, Note_on_c, 2, 45, 0
4, 11240, Note_on_c, 2, 39, 57
4, 11291, Note_on_c, 2, 39, 0
4, 11360, Note_on_c, 2, 39, 55
4, 11400, Note_on_c, 2, 38, 67
4, 11402, Note_on_c, 2, 39, 0
4, 11450, Note_on_c, 2, 38, 0
4, 11640, Note_on_c, 2, 33, 52
4, 11683, Note_on_c, 2, 33, 0
4, 11760, Note_on_c, 2, 45, 60
4, 11797, Note_on_c, 2, 45, 0
4, 11880, Note_on_c, 2, 50, 51
4, 11919, Note_on_c, 2, 50, 0
4, 12000, Note_on_c, 2, 49, 48
4, 12035, Note_on_c, 2, 49, 0
4, 12120, Note_on_c, 2, 47, 64
4, 12150, Note_on_c, 2, 47, 0
4, 12240, Note_on_c, 2, 45, 54
4, 12262, Note_on_c, 2, 45, 0
4, 12360, Note_on_c, 2, 37, 66
4, 12390, Note_on_c, 2, 37, 0
4, 12600, Note_on_c, 2, 37, 66
4, 12624, Note_on_c, 2, 37, 0
4, 12840, Note_on_c, 2, 42, 59
4, 12868, Note_on_c, 2, 42, 0
4, 12960, Note_on_c, 2, 40, 62
4, 12986, Note_on_c, 2, 40, 0
4, 13080, Note_on_c, 2, 38, 61
4, 13112, Note_on_c, 2, 38, 0
4, 13200, Note_on_c, 2, 30, 68
4, 13248, Note_on_c, 2, 30, 0
4, 13260, Note_on_c, 2, 42, 52
4, 13317, Note_on_c, 2, 42, 0
4, 13320, Note_on_c, 2, 35, 65
4, 13394, Note_on_c, 2, 35, 0
4, 13560, Note_on_c, 2, 42, 59
4, 13628, Note_on_c, 2, 42, 0
4, 13740, Note_on_c, 2, 45, 66
4, 13778, Note_on_c, 2, 45, 0
4, 13800, Note_on_c, 2, 47, 68
4, 13846, Note_on_c, 2, 47, 0
4, 14040, Note_on_c, 2, 31, 69
4, 14149, Note_on_c, 2, 31, 0
4, 14220, Note_on_c, 2, 32, 79
4, 14264, Note_on_c, 2, 32, 0
4, 14280, Note_on_c, 2, 33, 69
4, 14392, Note_on_c, 2, 33, 0
4, 14520, Note_on_c, 2, 33, 87
4, 14585, Note_on_c, 2, 33, 0
4, 14700, Note_on_c, 2, 37, 69
4, 14741, Note_on_c, 2, 37, 0
4, 14760, Note_on_c, 2, 38, 97
4, 14803, Note_on_c, 2, 38, 0
4, 14880, Note_on_c, 2, 35, 101
4, 14941, Note_on_c, 2, 35, 0
4, 15000, Note_on_c, 2, 33, 93
4, 15040, Note_on_c, 2, 33, 0
4, 15120, Note_on_c, 2, 26, 107
4, 15162, Note_on_c, 2, 26, 0
4, 15180, Note_on_c, 2, 30, 73
4, 15223, Note_on_c, 2, 30, 0
4, 15240, Note_on_c, 2, 31, 120
4, 15289, Note_on_c, 2, 31, 0
4, 15480, Note_on_c, 2, 43, 109
4, 15566, Note_on_c, 2, 43, 0
4, 15660, Note_on_c, 2, 38, 100
4, 15660, Note_on_c, 2, 37, 91
4, 15700, Note_on_c, 2, 37, 0
4, 15700, Note_on_c, 2, 38, 0
4, 15720, Note_on_c, 2, 36, 104
4, 15770, Note_on_c, 2, 36, 0
4, 15960, Note_on_c, 2, 36, 91
4, 15996, Note_on_c, 2, 36, 0
4, 16080, Note_on_c, 2, 36, 100
4, 16104, Note_on_c, 2, 36, 0
4, 16200, Note_on_c, 2, 33, 91
4, 16245, Note_on_c, 2, 33, 0
4, 16440, Note_on_c, 2, 34, 67
4, 16480, Note_on_c, 2, 34, 0
4, 16560, Note_on_c, 2, 35, 90
4, 16589, Note_on_c, 2, 35, 0
4, 16680, Note_on_c, 2, 28, 80
4, 16730, Note_on_c, 2, 28, 0
4, 16920, Note_on_c, 2, 28, 66
4, 16953, Note_on_c, 2, 28, 0
4, 17040, Note_on_c, 2, 28, 68
4, 17077, Note_on_c, 2, 28, 0
4, 17160, Note_on_c, 2, 33, 69
4, 17195, Note_on_c, 2, 33, 0
4, 17400, Note_on_c, 2, 33, 72
4, 17430, Note_on_c, 2, 33, 0
4, 17640, Note_on_c, 2, 33, 73
4, 17665, Note_on_c, 2, 33, 0
4, 17760, Note_on_c, 2, 38, 74
4, 17785, Note_on_c, 2, 38, 0
4, 17880, Note_on_c, 2, 31, 70
4, 17915, Note_on_c, 2, 31, 0
4, 18120, Note_on_c, 2, 27, 79
4, 18149, Note_on_c, 2, 27, 0
4, 18360, Note_on_c, 2, 33, 78
4, 18386, Note_on_c, 2, 33, 0
4, 18600, Note_on_c, 2, 38, 89
4, 18643, Note_on_c, 2, 38, 0
4, 18780, Note_on_c, 2, 36, 84
4, 18803, Note_on_c, 2, 36, 0
4, 18840, Note_on_c, 2, 34, 79
4, 18865, Note_on_c, 2, 34, 0
4, 18900, Note_on_c, 2, 42, 75
4, 18929, Note_on_c, 2, 42, 0
4, 18960, Note_on_c, 2, 40, 75
4, 18989, Note_on_c, 2, 40, 0
4, 19020, Note_on_c, 2, 33, 82
4, 19059, Note_on_c, 2, 33, 0
4, 19080, Note_on_c, 2, 38, 83
4, 19160, Note_on_c, 2, 38, 0
4, 19320, Note_on_c, 2, 45, 117
4, 19350, Note_on_c, 2, 45, 0
4, 19560, Note_on_c, 2, 50, 100
4, 19580, Note_on_c, 2, 50, 0
4, 19680, Note_on_c, 2, 45, 81
4, 19705, Note_on_c, 2, 45, 0
4, 19800, Note_on_c, 2, 42, 104
4, 19828, Note_on_c, 2, 42, 0
4, 19920, Note_on_c, 2, 38, 79
4, 19945, Note_on_c, 2, 38, 0
4, 20040, Note_on_c, 2, 37, 108
4, 20077, Note_on_c, 2, 37, 0
4, 20280, Note_on_c, 2, 37, 85
4, 20331, Note_on_c, 2, 37, 0
4, 20460, Note_on_c, 2, 49, 85
4, 20482, Note_on_c, 2, 49, 0
4, 20520, Note_on_c, 2, 42, 74
4, 20554, Note_on_c, 2, 42, 0
4, 20640, Note_on_c, 2, 40, 87
4, 20679, Note_on_c, 2, 40, 0
4, 20760, Note_on_c, 2, 38, 93
4, 20784, Note_on_c, 2, 38, 0
4, 20880, Note_on_c, 2, 30, 72
4, 20915, Note_on_c, 2, 30, 0
4, 20940, Note_on_c, 2, 34, 76
4, 20984, Note_on_c, 2, 34, 0
4, 21000, Note_on_c, 2, 35, 90
4, 21033, Note_on_c, 2, 35, 0
4, 21240, Note_on_c, 2, 42, 67
4, 21270, Note_on_c, 2, 42, 0
4, 21480, Note_on_c, 2, 35, 83
4, 21517, Note_on_c, 2, 35, 0
4, 21720, Note_on_c, 2, 47, 83
4, 21743, Note_on_c, 2, 47, 0
4, 21840, Note_on_c, 2, 46, 76
4, 21864, Note_on_c, 2, 46, 0
4, 21960, Note_on_c, 2, 45, 79
4, 21988, Note_on_c, 2, 45, 0
4, 22200, Note_on_c, 2, 33, 74
4, 22235, Note_on_c, 2, 33, 0
4, 22320, Note_on_c, 2, 45, 81
4, 22341, Note_on_c, 2, 45, 0
4, 22380, Note_on_c, 2, 49, 74
4, 22405, Note_on_c, 2, 49, 0
4, 22440, Note_on_c, 2, 50, 85
4, 22461, Note_on_c, 2, 50, 0
4, 22560, Note_on_c, 2, 48, 74
4, 22581, Note_on_c, 2, 48, 0
4, 22680, Note_on_c, 2, 45, 85
4, 22712, Note_on_c, 2, 45, 0
4, 22800, Note_on_c, 2, 38, 86
4, 22831, Note_on_c, 2, 38, 0
4, 22840, Note_on_c, 2, 42, 74
4, 22871, Note_on_c, 2, 42, 0
4, 22880, Note_on_c, 2, 45, 74
4, 22910, Note_on_c, 2, 45, 0
4, 22920, Note_on_c, 2, 31, 117
4, 22920, Note_on_c, 2, 43, 84
4, 22957, Note_on_c, 2, 43, 0
4, 22969, Note_on_c, 2, 31, 0
4, 23160, Note_on_c, 2, 43, 105
4, 23246, Note_on_c, 2, 43, 0
4, 23340, Note_on_c, 2, 38, 97
4, 23340, Note_on_c, 2, 37, 88
4, 23380, Note_on_c, 2, 37, 0
4, 23380, Note_on_c, 2, 38, 0
4, 23400, Note_on_c, 2, 36, 99
4, 23450, Note_on_c, 2, 36, 0
4, 23640, Note_on_c, 2, 36, 89
4, 23676, Note_on_c, 2, 36, 0
4, 23760, Note_on_c, 2, 36, 100
4, 23784, Note_on_c, 2, 36, 0
4, 23880, Note_on_c, 2, 33, 91
4, 23925, Note_on_c, 2, 33, 0
4, 24120, Note_on_c, 2, 34, 69
4, 24160, Note_on_c, 2, 34, 0
4, 24240, Note_on_c, 2, 35, 94
4, 24269, Note_on_c, 2, 35, 0
4, 24269, End_track
5, 0, Start_track
5, 0, Control_c, 3, 0, 0
5, 0, Program_c, 3, 42
5, 0, Sequencer_specific, 20, 74, 65, 90, 50, 1, 0, 0, 0, 0, 0, 0, 0, 0, 0, 0, 0, 0, 0, 0, 0
5, 0, MIDI_port, 0
5, 0, Control_c, 3, 121, 0
5, 0, Title_t, "Cellos"
5, 0, Control_c, 3, 7, 99
5, 0, Control_c, 3, 10, 64
5, 6, Control_c, 3, 11, 127
5, 8, Control_c, 3, 91, 80
5, 10, Control_c, 3, 93, 100
5, 480, Note_on_c, 3, 45, 44
5, 539, Note_on_c, 3, 44, 38
5, 544, Note_on_c, 3, 45, 0
5, 599, Note_on_c, 3, 43, 45
5, 603, Note_on_c, 3, 44, 0
5, 659, Note_on_c, 3, 42, 57
5, 662, Note_on_c, 3, 43, 0
5, 717, Note_on_c, 3, 42, 0
5, 719, Note_on_c, 3, 40, 53
5, 776, Note_on_c, 3, 40, 0
5, 778, Note_on_c, 3, 39, 55
5, 838, Note_on_c, 3, 38, 62
5, 844, Note_on_c, 3, 39, 0
5, 900, Note_on_c, 3, 37, 67
5, 908, Note_on_c, 3, 38, 0
5, 960, Note_on_c, 3, 36, 72
5, 962, Note_on_c, 3, 37, 0
5, 1174, Control_c, 3, 11, 125
5, 1178, Control_c, 3, 11, 124
5, 1180, Control_c, 3, 11, 123
5, 1184, Control_c, 3, 11, 122
5, 1186, Control_c, 3, 11, 120
5, 1188, Control_c, 3, 11, 119
5, 1192, Control_c, 3, 11, 118
5, 1196, Control_c, 3, 11, 116
5, 1200, Control_c, 3, 11, 115
5, 1204, Control_c, 3, 11, 113
5, 1206, Control_c, 3, 11, 112
5, 1210, Control_c, 3, 11, 111
5, 1212, Control_c, 3, 11, 110
5, 1214, Control_c, 3, 11, 109
5, 1216, Control_c, 3, 11, 108
5, 1218, Control_c, 3, 11, 107
5, 1220, Control_c, 3, 11, 105
5, 1224, Control_c, 3, 11, 104
5, 1226, Control_c, 3, 11, 103
5, 1228, Control_c, 3, 11, 102
5, 1230, Control_c, 3, 11, 101
5, 1232, Control_c, 3, 11, 100
5, 1234, Control_c, 3, 11, 99
5, 1236, Control_c, 3, 11, 98
5, 1238, Control_c, 3, 11, 96
5, 1242, Control_c, 3, 11, 95
5, 1244, Control_c, 3, 11, 94
5, 1246, Control_c, 3, 11, 92
5, 1250, Control_c, 3, 11, 91
5, 1252, Control_c, 3, 11, 90
5, 1254, Control_c, 3, 11, 89
5, 1256, Control_c, 3, 11, 88
5, 1258, Control_c, 3, 11, 87
5, 1260, Control_c, 3, 11, 86
5, 1264, Control_c, 3, 11, 85
5, 1266, Control_c, 3, 11, 83
5, 1268, Control_c, 3, 11, 82
5, 1272, Control_c, 3, 11, 81
5, 1276, Control_c, 3, 11, 80
5, 1278, Control_c, 3, 11, 79
5, 1280, Control_c, 3, 11, 78
5, 1282, Control_c, 3, 11, 77
5, 1286, Control_c, 3, 11, 76
5, 1288, Control_c, 3, 11, 75
5, 1290, Control_c, 3, 11, 74
5, 1292, Control_c, 3, 11, 73
5, 1296, Control_c, 3, 11, 72
5, 1300, Control_c, 3, 11, 71
5, 1302, Control_c, 3, 11, 70
5, 1306, Control_c, 3, 11, 69
5, 1318, Control_c, 3, 11, 67
5, 1334, Control_c, 3, 11, 66
5, 1338, Control_c, 3, 11, 64
5, 1342, Control_c, 3, 11, 63
5, 1344, Control_c, 3, 11, 62
5, 1348, Control_c, 3, 11, 61
5, 1354, Control_c, 3, 11, 60
5, 1356, Control_c, 3, 11, 59
5, 1360, Control_c, 3, 11, 58
5, 1364, Control_c, 3, 11, 57
5, 1376, Control_c, 3, 11, 56
5, 1388, Control_c, 3, 11, 54
5, 1410, Note_on_c, 3, 36, 0
5, 1434, Control_c, 3, 11, 126
5, 1436, Control_c, 3, 11, 127
5, 1440, Note_on_c, 3, 40, 49
5, 1440, Note_on_c, 3, 28, 48
5, 2380, Note_on_c, 3, 40, 0
5, 2383, Note_on_c, 3, 28, 0
5, 2401, Note_on_c, 3, 33, 46
5, 3116, Note_on_c, 3, 33, 0
5, 3118, Note_on_c, 3, 39, 39
5, 3543, Note_on_c, 3, 39, 0
5, 3601, Note_on_c, 3, 38, 59
5, 4553, Note_on_c, 3, 38, 0
5, 4560, Note_on_c, 3, 37, 59
5, 5040, Note_on_c, 3, 42, 51
5, 5052, Note_on_c, 3, 37, 0
5, 5506, Note_on_c, 3, 42, 0
5, 5520, Note_on_c, 3, 47, 46
5, 6116, Note_on_c, 3, 47, 0
5, 6120, Note_on_c, 3, 45, 53
5, 6240, Note_on_c, 3, 44, 45
5, 6248, Note_on_c, 3, 45, 0
5, 6480, Note_on_c, 3, 45, 50
5, 6495, Note_on_c, 3, 44, 0
5, 6960, Note_on_c, 3, 38, 66
5, 6973, Note_on_c, 3, 45, 0
5, 6982, Control_c, 3, 11, 127
5, 6988, Control_c, 3, 11, 126
5, 6992, Control_c, 3, 11, 125
5, 6998, Control_c, 3, 11, 123
5, 7000, Control_c, 3, 11, 122
5, 7002, Control_c, 3, 11, 121
5, 7004, Control_c, 3, 11, 120
5, 7006, Control_c, 3, 11, 119
5, 7010, Control_c, 3, 11, 118
5, 7014, Control_c, 3, 11, 117
5, 7018, Control_c, 3, 11, 115
5, 7022, Control_c, 3, 11, 114
5, 7026, Control_c, 3, 11, 112
5, 7038, Control_c, 3, 11, 111
5, 7042, Control_c, 3, 11, 109
5, 7046, Control_c, 3, 11, 108
5, 7050, Control_c, 3, 11, 107
5, 7066, Control_c, 3, 11, 105
5, 7082, Control_c, 3, 11, 99
5, 7086, Control_c, 3, 11, 98
5, 7090, Control_c, 3, 11, 97
5, 7094, Control_c, 3, 11, 95
5, 7106, Control_c, 3, 11, 94
5, 7122, Control_c, 3, 11, 88
5, 7138, Control_c, 3, 11, 86
5, 7154, Control_c, 3, 11, 84
5, 7170, Control_c, 3, 11, 78
5, 7186, Control_c, 3, 11, 77
5, 7206, Control_c, 3, 11, 71
5, 7222, Control_c, 3, 11, 69
5, 7242, Control_c, 3, 11, 67
5, 7254, Control_c, 3, 11, 65
5, 7258, Control_c, 3, 11, 64
5, 7262, Control_c, 3, 11, 63
5, 7268, Control_c, 3, 11, 62
5, 7284, Control_c, 3, 11, 61
5, 7304, Control_c, 3, 11, 55
5, 7328, Control_c, 3, 11, 54
5, 7340, Control_c, 3, 11, 52
5, 7352, Control_c, 3, 11, 51
5, 7356, Control_c, 3, 11, 50
5, 7372, Control_c, 3, 11, 49
5, 7380, Note_on_c, 3, 38, 0
5, 7388, Control_c, 3, 11, 48
5, 7392, Control_c, 3, 11, 47
5, 7396, Control_c, 3, 11, 46
5, 7400, Control_c, 3, 11, 45
5, 7416, Control_c, 3, 11, 44
5, 7432, Control_c, 3, 11, 43
5, 7444, Control_c, 3, 11, 41
5, 7450, Control_c, 3, 11, 40
5, 7556, Control_c, 3, 11, 127
5, 7560, Note_on_c, 3, 59, 45
5, 7560, Note_on_c, 3, 62, 50
5, 7560, Note_on_c, 3, 57, 52
5, 7560, Note_on_c, 3, 54, 42
5, 7566, Note_on_c, 3, 74, 53
5, 7623, Note_on_c, 3, 72, 54
5, 7627, Note_on_c, 3, 74, 0
5, 7682, Note_on_c, 3, 71, 57
5, 7688, Note_on_c, 3, 72, 0
5, 7738, Note_on_c, 3, 69, 54
5, 7743, Note_on_c, 3, 71, 0
5, 7797, Note_on_c, 3, 67, 55
5, 7802, Note_on_c, 3, 69, 0
5, 7924, Note_on_c, 3, 67, 0
5, 8036, Note_on_c, 3, 74, 55
5, 8036, Note_on_c, 3, 52, 55
5, 8036, Note_on_c, 3, 58, 38
5, 8039, Note_on_c, 3, 54, 0
5, 8039, Note_on_c, 3, 59, 0
5, 8168, Note_on_c, 3, 72, 50
5, 8182, Note_on_c, 3, 74, 0
5, 8280, Note_on_c, 3, 74, 50
5, 8283, Note_on_c, 3, 72, 0
5, 8449, Note_on_c, 3, 52, 0
5, 8485, Note_on_c, 3, 74, 0
5, 8512, Note_on_c, 3, 54, 33
5, 8515, Note_on_c, 3, 64, 66
5, 8515, Note_on_c, 3, 61, 54
5, 8518, Note_on_c, 3, 58, 0
5, 8524, Note_on_c, 3, 62, 0
5, 8758, Note_on_c, 3, 62, 56
5, 8760, Note_on_c, 3, 66, 53
5, 8762, Note_on_c, 3, 54, 0
5, 8765, Note_on_c, 3, 61, 0
5, 8765, Note_on_c, 3, 64, 0
5, 8765, Note_on_c, 3, 57, 0
5, 8883, Note_on_c, 3, 58, 47
5, 8997, Note_on_c, 3, 59, 61
5, 8998, Note_on_c, 3, 58, 0
5, 9232, Note_on_c, 3, 58, 60
5, 9240, Note_on_c, 3, 59, 0
5, 9356, Note_on_c, 3, 59, 54
5, 9374, Note_on_c, 3, 58, 0
5, 9475, Note_on_c, 3, 62, 0
5, 9475, Note_on_c, 3, 54, 60
5, 9476, Note_on_c, 3, 59, 0
5, 9477, Note_on_c, 3, 66, 0
5, 9480, Note_on_c, 3, 57, 39
5, 9483, Note_on_c, 3, 47, 45
5, 9597, Note_on_c, 3, 57, 0
5, 9599, Note_on_c, 3, 59, 43
5, 9718, Note_on_c, 3, 61, 37
5, 9719, Note_on_c, 3, 59, 0
5, 9838, Note_on_c, 3, 62, 45
5, 9838, Note_on_c, 3, 61, 0
5, 9954, Note_on_c, 3, 52, 48
5, 9959, Note_on_c, 3, 64, 39
5, 9961, Note_on_c, 3, 47, 0
5, 9963, Note_on_c, 3, 62, 0
5, 10079, Note_on_c, 3, 66, 36
5, 10084, Note_on_c, 3, 50, 45
5, 10088, Note_on_c, 3, 64, 0
5, 10092, Note_on_c, 3, 52, 0
5, 10195, Note_on_c, 3, 47, 44
5, 10199, Note_on_c, 3, 64, 38
5, 10201, Note_on_c, 3, 50, 0
5, 10208, Note_on_c, 3, 66, 0
5, 10320, Note_on_c, 3, 40, 46
5, 10322, Note_on_c, 3, 47, 0
5, 10397, Note_on_c, 3, 64, 0
5, 10407, Note_on_c, 3, 66, 45
5, 10435, Note_on_c, 3, 40, 0
5, 10441, Note_on_c, 3, 67, 51
5, 10442, Note_on_c, 3, 55, 49
5, 10444, Note_on_c, 3, 45, 47
5, 10452, Note_on_c, 3, 54, 0
5, 10456, Note_on_c, 3, 66, 0
5, 10612, Note_on_c, 3, 67, 0
5, 10618, Note_on_c, 3, 66, 37
5, 10649, Note_on_c, 3, 67, 48
5, 10654, Note_on_c, 3, 66, 0
5, 10671, Note_on_c, 3, 67, 0
5, 10677, Note_on_c, 3, 56, 46
5, 10678, Note_on_c, 3, 46, 51
5, 10680, Note_on_c, 3, 67, 49
5, 10680, Note_on_c, 3, 62, 44
5, 10685, Note_on_c, 3, 55, 0
5, 10685, Note_on_c, 3, 45, 0
5, 10741, Note_on_c, 3, 65, 46
5, 10746, Note_on_c, 3, 67, 0
5, 10912, Note_on_c, 3, 55, 45
5, 10916, Note_on_c, 3, 65, 0
5, 10920, Note_on_c, 3, 67, 42
5, 10923, Note_on_c, 3, 56, 0
5, 10923, Note_on_c, 3, 46, 0
5, 10925, Note_on_c, 3, 39, 53
5, 11124, Note_on_c, 3, 39, 0
5, 11160, Note_on_c, 3, 45, 46
5, 11163, Note_on_c, 3, 67, 0
5, 11200, Note_on_c, 3, 45, 0
5, 11235, Note_on_c, 3, 39, 35
5, 11290, Note_on_c, 3, 61, 41
5, 11310, Note_on_c, 3, 62, 0
5, 11331, Note_on_c, 3, 39, 0
5, 11370, Note_on_c, 3, 39, 38
5, 11392, Note_on_c, 3, 55, 0
5, 11400, Note_on_c, 3, 38, 27
5, 11402, Note_on_c, 3, 57, 36
5, 11402, Note_on_c, 3, 57, 44
5, 11406, Note_on_c, 3, 39, 0
5, 11641, Note_on_c, 3, 59, 41
5, 11645, Note_on_c, 3, 61, 0
5, 11760, Note_on_c, 3, 38, 0
5, 11863, Note_on_c, 3, 57, 0
5, 11881, Note_on_c, 3, 59, 0
5, 11881, Note_on_c, 3, 61, 41
5, 12120, Note_on_c, 3, 59, 41
5, 12121, Note_on_c, 3, 61, 0
5, 12357, Note_on_c, 3, 57, 0
5, 12357, Note_on_c, 3, 56, 52
5, 12358, Note_on_c, 3, 59, 52
5, 12358, Note_on_c, 3, 61, 52
5, 12358, Note_on_c, 3, 64, 52
5, 12360, Note_on_c, 3, 59, 0
5, 12838, Note_on_c, 3, 55, 60
5, 12838, Note_on_c, 3, 58, 47
5, 12848, Note_on_c, 3, 59, 0
5, 12851, Note_on_c, 3, 56, 0
5, 13313, Note_on_c, 3, 58, 0
5, 13316, Note_on_c, 3, 64, 0
5, 13317, Note_on_c, 3, 61, 0
5, 13318, Note_on_c, 3, 55, 0
5, 13318, Note_on_c, 3, 54, 50
5, 13318, Note_on_c, 3, 62, 50
5, 13318, Note_on_c, 3, 57, 50
5, 13318, Note_on_c, 3, 59, 50
5, 13505, Note_on_c, 3, 54, 0
5, 13521, Note_on_c, 3, 57, 0
5, 13558, Note_on_c, 3, 61, 58
5, 13558, Note_on_c, 3, 52, 55
5, 13558, Note_on_c, 3, 57, 51
5, 13558, Note_on_c, 3, 54, 45
5, 13564, Note_on_c, 3, 59, 0
5, 13564, Note_on_c, 3, 62, 0
5, 13730, Note_on_c, 3, 54, 0
5, 13798, Note_on_c, 3, 62, 53
5, 13798, Note_on_c, 3, 54, 53
5, 13798, Note_on_c, 3, 59, 53
5, 13799, Note_on_c, 3, 61, 0
5, 13803, Note_on_c, 3, 52, 0
5, 14036, Note_on_c, 3, 62, 0
5, 14038, Note_on_c, 3, 64, 48
5, 14039, Note_on_c, 3, 61, 48
5, 14039, Note_on_c, 3, 53, 48
5, 14045, Note_on_c, 3, 57, 0
5, 14056, Note_on_c, 3, 54, 0
5, 14208, Note_on_c, 3, 61, 0
5, 14278, Note_on_c, 3, 55, 52
5, 14278, Note_on_c, 3, 60, 52
5, 14286, Note_on_c, 3, 53, 0
5, 14759, Note_on_c, 3, 57, 62
5, 14759, Note_on_c, 3, 63, 62
5, 14759, Note_on_c, 3, 54, 62
5, 14759, Note_on_c, 3, 55, 0
5, 14765, Note_on_c, 3, 64, 0
5, 14768, Note_on_c, 3, 59, 0
5, 15206, Note_on_c, 3, 57, 0
5, 15208, Note_on_c, 3, 60, 0
5, 15210, Note_on_c, 3, 54, 0
5, 15212, Note_on_c, 3, 63, 0
5, 17159, Note_on_c, 3, 62, 52
5, 17159, Note_on_c, 3, 55, 47
5, 17159, Note_on_c, 3, 59, 47
5, 17159, Note_on_c, 3, 66, 40
5, 17391, Note_on_c, 3, 62, 0
5, 17398, Note_on_c, 3, 58, 49
5, 17398, Note_on_c, 3, 65, 52
5, 17398, Note_on_c, 3, 61, 54
5, 17398, Note_on_c, 3, 66, 0
5, 17399, Note_on_c, 3, 59, 0
5, 17639, Note_on_c, 3, 60, 46
5, 17639, Note_on_c, 3, 57, 42
5, 17639, Note_on_c, 3, 64, 54
5, 17643, Note_on_c, 3, 58, 0
5, 17645, Note_on_c, 3, 65, 0
5, 17645, Note_on_c, 3, 61, 0
5, 17759, Note_on_c, 3, 54, 54
5, 17762, Note_on_c, 3, 55, 0
5, 17875, Note_on_c, 3, 64, 0
5, 17878, Note_on_c, 3, 62, 54
5, 17878, Note_on_c, 3, 59, 53
5, 17879, Note_on_c, 3, 60, 0
5, 18109, Note_on_c, 3, 54, 0
5, 18119, Note_on_c, 3, 55, 58
5, 18119, Note_on_c, 3, 52, 54
5, 18124, Note_on_c, 3, 57, 0
5, 18474, Note_on_c, 3, 62, 0
5, 18478, Note_on_c, 3, 61, 59
5, 18478, Note_on_c, 3, 64, 39
5, 18481, Note_on_c, 3, 52, 0
5, 18484, Note_on_c, 3, 59, 0
5, 18599, Note_on_c, 3, 55, 0
5, 18599, Note_on_c, 3, 54, 44
5, 18599, Note_on_c, 3, 59, 53
5, 18599, Note_on_c, 3, 62, 62
5, 18599, Note_on_c, 3, 57, 56
5, 18605, Note_on_c, 3, 61, 0
5, 18612, Note_on_c, 3, 64, 0
5, 18774, Note_on_c, 3, 57, 0
5, 18779, Note_on_c, 3, 54, 0
5, 18779, Note_on_c, 3, 55, 71
5, 18839, Note_on_c, 3, 56, 69
5, 18843, Note_on_c, 3, 59, 0
5, 18845, Note_on_c, 3, 55, 0
5, 18949, Note_on_c, 3, 62, 0
5, 18959, Note_on_c, 3, 57, 58
5, 18961, Note_on_c, 3, 56, 0
5, 19018, Note_on_c, 3, 58, 66
5, 19019, Note_on_c, 3, 57, 0
5, 19077, Note_on_c, 3, 58, 0
5, 19078, Note_on_c, 3, 54, 45
5, 19078, Note_on_c, 3, 57, 62
5, 19078, Note_on_c, 3, 59, 59
5, 19198, Note_on_c, 3, 59, 0
5, 19561, Note_on_c, 3, 57, 0
5, 19562, Note_on_c, 3, 54, 0
5, 24357, Note_on_c, 3, 40, 57
5, 24812, Note_on_c, 3, 40, 0
5, 24840, Note_on_c, 3, 59, 50
5, 24840, Note_on_c, 3, 55, 50
5, 24840, Note_on_c, 3, 66, 50
5, 24840, Note_on_c, 3, 62, 50
5, 24845, Note_on_c, 3, 40, 51
5, 25072, Note_on_c, 3, 62, 0
5, 25078, Note_on_c, 3, 61, 56
5, 25078, Note_on_c, 3, 65, 54
5, 25078, Note_on_c, 3, 58, 51
5, 25079, Note_on_c, 3, 66, 0
5, 25080, Note_on_c, 3, 59, 0
5, 25313, Note_on_c, 3, 45, 54
5, 25319, Note_on_c, 3, 60, 46
5, 25319, Note_on_c, 3, 64, 54
5, 25319, Note_on_c, 3, 57, 43
5, 25323, Note_on_c, 3, 58, 0
5, 25325, Note_on_c, 3, 61, 0
5, 25325, Note_on_c, 3, 65, 0
5, 25327, Note_on_c, 3, 40, 0
5, 25439, Note_on_c, 3, 54, 54
5, 25443, Note_on_c, 3, 55, 0
5, 25555, Note_on_c, 3, 64, 0
5, 25558, Note_on_c, 3, 62, 54
5, 25558, Note_on_c, 3, 59, 53
5, 25559, Note_on_c, 3, 43, 65
5, 25559, Note_on_c, 3, 60, 0
5, 25566, Note_on_c, 3, 45, 0
5, 25789, Note_on_c, 3, 54, 0
5, 25795, Note_on_c, 3, 45, 53
5, 25799, Note_on_c, 3, 55, 57
5, 25799, Note_on_c, 3, 52, 53
5, 25801, Note_on_c, 3, 43, 0
5, 25804, Note_on_c, 3, 57, 0
5, 26033, Note_on_c, 3, 59, 0
5, 26038, Note_on_c, 3, 62, 0
5, 26040, Note_on_c, 3, 61, 56
5, 26040, Note_on_c, 3, 64, 37
5, 26161, Note_on_c, 3, 52, 0
5, 26275, Note_on_c, 3, 64, 0
5, 26275, Note_on_c, 3, 61, 0
5, 26279, Note_on_c, 3, 55, 0
5, 26280, Note_on_c, 3, 50, 48
5, 26280, Note_on_c, 3, 66, 53
5, 26280, Note_on_c, 3, 38, 58
5, 26280, Note_on_c, 3, 62, 41
5, 26280, Note_on_c, 3, 57, 48
5, 26285, Note_on_c, 3, 45, 0
5, 26515, Note_on_c, 3, 62, 0
5, 26520, Note_on_c, 3, 61, 54
5, 26520, Note_on_c, 3, 56, 53
5, 26529, Note_on_c, 3, 57, 0
5, 26760, Note_on_c, 3, 59, 46
5, 26760, Note_on_c, 3, 55, 54
5, 26760, Note_on_c, 3, 62, 63
5, 26761, Note_on_c, 3, 61, 0
5, 26764, Note_on_c, 3, 56, 0
5, 26997, Note_on_c, 3, 59, 0
5, 27000, Note_on_c, 3, 53, 48
5, 27000, Note_on_c, 3, 65, 54
5, 27000, Note_on_c, 3, 58, 42
5, 27002, Note_on_c, 3, 66, 0
5, 27002, Note_on_c, 3, 55, 0
5, 27196, Note_on_c, 3, 38, 0
5, 27240, Note_on_c, 3, 54, 47
5, 27240, Note_on_c, 3, 64, 50
5, 27240, Note_on_c, 3, 38, 59
5, 27240, Note_on_c, 3, 59, 50
5, 27250, Note_on_c, 3, 62, 0
5, 27260, Note_on_c, 3, 65, 0
5, 27261, Note_on_c, 3, 53, 0
5, 27273, Note_on_c, 3, 58, 0
5, 27717, Note_on_c, 3, 59, 0
5, 27718, Note_on_c, 3, 54, 0
5, 27718, Note_on_c, 3, 64, 0
5, 27724, Note_on_c, 3, 38, 0
5, 27730, Note_on_c, 3, 50, 0
5, 27730, End_track
6, 0, Start_track
6, 0, Control_c, 4, 0, 0
6, 0, Program_c, 4, 73
6, 0, Sequencer_specific, 20, 74, 65, 90, 50, 1, 0, 0, 0, 0, 0, 0, 0, 0, 0, 0, 0, 0, 0, 0, 0
6, 0, MIDI_port, 0
6, 0, Title_t, "Flute"
6, 0, Control_c, 4, 7, 119
6, 0, Control_c, 4, 10, 90
6, 0, Control_c, 4, 121, 0
6, 6, Control_c, 4, 11, 127
6, 8, Control_c, 4, 91, 80
6, 10, Control_c, 4, 93, 20
6, 1440, Note_on_c, 4, 74, 48
6, 1567, Note_on_c, 4, 70, 34
6, 1576, Note_on_c, 4, 74, 0
6, 1805, Note_on_c, 4, 74, 44
6, 1816, Note_on_c, 4, 70, 0
6, 1921, Note_on_c, 4, 70, 37
6, 1930, Note_on_c, 4, 74, 0
6, 2376, Note_on_c, 4, 70, 0
6, 2400, Note_on_c, 4, 70, 46
6, 2520, Note_on_c, 4, 63, 44
6, 2529, Note_on_c, 4, 70, 0
6, 2568, Control_c, 4, 1, 2
6, 2568, Control_c, 4, 1, 1
6, 2570, Control_c, 4, 1, 5
6, 2570, Control_c, 4, 1, 4
6, 2570, Control_c, 4, 1, 3
6, 2572, Control_c, 4, 1, 6
6, 2572, Control_c, 4, 1, 7
6, 2574, Control_c, 4, 1, 8
6, 2576, Control_c, 4, 1, 9
6, 2576, Control_c, 4, 1, 10
6, 2579, Control_c, 4, 1, 12
6, 2579, Control_c, 4, 1, 11
6, 2581, Control_c, 4, 1, 13
6, 2583, Control_c, 4, 1, 14
6, 2585, Control_c, 4, 1, 15
6, 2588, Control_c, 4, 1, 16
6, 2588, Control_c, 4, 1, 17
6, 2590, Control_c, 4, 1, 18
6, 2594, Control_c, 4, 1, 19
6, 2597, Control_c, 4, 1, 20
6, 2599, Control_c, 4, 1, 21
6, 2603, Control_c, 4, 1, 22
6, 2608, Control_c, 4, 1, 23
6, 2612, Control_c, 4, 1, 24
6, 2626, Control_c, 4, 1, 25
6, 2632, Control_c, 4, 1, 26
6, 2639, Control_c, 4, 1, 27
6, 2648, Control_c, 4, 1, 28
6, 2675, Control_c, 4, 1, 27
6, 2686, Control_c, 4, 1, 26
6, 2691, Control_c, 4, 1, 25
6, 2695, Control_c, 4, 1, 23
6, 2695, Control_c, 4, 1, 24
6, 2697, Control_c, 4, 1, 22
6, 2700, Control_c, 4, 1, 21
6, 2700, Control_c, 4, 1, 20
6, 2702, Control_c, 4, 1, 17
6, 2702, Control_c, 4, 1, 18
6, 2702, Control_c, 4, 1, 19
6, 2704, Control_c, 4, 1, 15
6, 2704, Control_c, 4, 1, 16
6, 2704, Control_c, 4, 1, 14
6, 2706, Control_c, 4, 1, 12
6, 2706, Control_c, 4, 1, 10
6, 2706, Control_c, 4, 1, 13
6, 2706, Control_c, 4, 1, 11
6, 2709, Control_c, 4, 1, 8
6, 2709, Control_c, 4, 1, 9
6, 2711, Control_c, 4, 1, 7
6, 2711, Control_c, 4, 1, 6
6, 2715, Control_c, 4, 1, 5
6, 2722, Control_c, 4, 1, 4
6, 2727, Control_c, 4, 1, 3
6, 2729, Control_c, 4, 1, 2
6, 2731, Control_c, 4, 1, 1
6, 2749, Control_c, 4, 1, 0
6, 2759, Note_on_c, 4, 70, 40
6, 2765, Note_on_c, 4, 63, 0
6, 2879, Note_on_c, 4, 63, 33
6, 2884, Note_on_c, 4, 70, 0
6, 2966, Control_c, 4, 1, 1
6, 2966, Control_c, 4, 1, 2
6, 2968, Control_c, 4, 1, 10
6, 2968, Control_c, 4, 1, 4
6, 2968, Control_c, 4, 1, 7
6, 2968, Control_c, 4, 1, 5
6, 2968, Control_c, 4, 1, 11
6, 2968, Control_c, 4, 1, 3
6, 2968, Control_c, 4, 1, 9
6, 2971, Control_c, 4, 1, 12
6, 2973, Control_c, 4, 1, 14
6, 2973, Control_c, 4, 1, 15
6, 2973, Control_c, 4, 1, 13
6, 2975, Control_c, 4, 1, 16
6, 2977, Control_c, 4, 1, 17
6, 2982, Control_c, 4, 1, 18
6, 2993, Control_c, 4, 1, 19
6, 3000, Control_c, 4, 1, 20
6, 3009, Control_c, 4, 1, 21
6, 3040, Control_c, 4, 1, 20
6, 3042, Control_c, 4, 1, 18
6, 3042, Control_c, 4, 1, 19
6, 3045, Control_c, 4, 1, 17
6, 3047, Control_c, 4, 1, 14
6, 3047, Control_c, 4, 1, 15
6, 3047, Control_c, 4, 1, 16
6, 3049, Control_c, 4, 1, 13
6, 3049, Control_c, 4, 1, 12
6, 3051, Control_c, 4, 1, 8
6, 3051, Control_c, 4, 1, 7
6, 3051, Control_c, 4, 1, 6
6, 3051, Control_c, 4, 1, 10
6, 3051, Control_c, 4, 1, 9
6, 3051, Control_c, 4, 1, 11
6, 3054, Control_c, 4, 1, 5
6, 3056, Control_c, 4, 1, 2
6, 3056, Control_c, 4, 1, 3
6, 3056, Control_c, 4, 1, 4
6, 3058, Control_c, 4, 1, 1
6, 3058, Control_c, 4, 1, 0
6, 3119, Note_on_c, 4, 63, 0
6, 3121, Note_on_c, 4, 64, 50
6, 3546, Note_on_c, 4, 64, 0
6, 4620, Note_on_c, 4, 83, 56
6, 4679, Note_on_c, 4, 87, 53
6, 4680, Note_on_c, 4, 83, 0
6, 4709, Note_on_c, 4, 88, 58
6, 4715, Note_on_c, 4, 87, 0
6, 4738, Note_on_c, 4, 88, 0
6, 4739, Note_on_c, 4, 83, 50
6, 4767, Note_on_c, 4, 83, 0
6, 4769, Note_on_c, 4, 80, 53
6, 4799, Note_on_c, 4, 82, 47
6, 4806, Note_on_c, 4, 80, 0
6, 4821, Control_c, 4, 1, 1
6, 4822, Control_c, 4, 1, 2
6, 4824, Control_c, 4, 1, 4
6, 4824, Control_c, 4, 1, 3
6, 4826, Control_c, 4, 1, 7
6, 4826, Control_c, 4, 1, 5
6, 4826, Control_c, 4, 1, 6
6, 4827, Control_c, 4, 1, 8
6, 4829, Control_c, 4, 1, 9
6, 4829, Control_c, 4, 1, 10
6, 4829, Control_c, 4, 1, 11
6, 4829, Control_c, 4, 1, 12
6, 4830, Control_c, 4, 1, 14
6, 4830, Control_c, 4, 1, 13
6, 4832, Control_c, 4, 1, 15
6, 4834, Control_c, 4, 1, 16
6, 4834, Control_c, 4, 1, 17
6, 4835, Control_c, 4, 1, 18
6, 4837, Control_c, 4, 1, 19
6, 4838, Control_c, 4, 1, 21
6, 4838, Control_c, 4, 1, 20
6, 4842, Control_c, 4, 1, 22
6, 4843, Control_c, 4, 1, 23
6, 4843, Control_c, 4, 1, 24
6, 4845, Control_c, 4, 1, 25
6, 4846, Control_c, 4, 1, 26
6, 4846, Control_c, 4, 1, 27
6, 4850, Control_c, 4, 1, 28
6, 4853, Control_c, 4, 1, 29
6, 4854, Control_c, 4, 1, 30
6, 4858, Control_c, 4, 1, 31
6, 4861, Control_c, 4, 1, 32
6, 4862, Control_c, 4, 1, 33
6, 4864, Control_c, 4, 1, 35
6, 4864, Control_c, 4, 1, 34
6, 4866, Control_c, 4, 1, 36
6, 4867, Control_c, 4, 1, 37
6, 4867, Control_c, 4, 1, 38
6, 4869, Control_c, 4, 1, 39
6, 4870, Control_c, 4, 1, 40
6, 4870, Control_c, 4, 1, 41
6, 4872, Control_c, 4, 1, 42
6, 4874, Control_c, 4, 1, 43
6, 4875, Control_c, 4, 1, 44
6, 4878, Control_c, 4, 1, 45
6, 4885, Control_c, 4, 1, 44
6, 4886, Control_c, 4, 1, 43
6, 4888, Control_c, 4, 1, 41
6, 4888, Control_c, 4, 1, 42
6, 4890, Control_c, 4, 1, 40
6, 4891, Control_c, 4, 1, 38
6, 4891, Control_c, 4, 1, 37
6, 4891, Control_c, 4, 1, 39
6, 4893, Control_c, 4, 1, 36
6, 4893, Control_c, 4, 1, 35
6, 4894, Control_c, 4, 1, 34
6, 4894, Control_c, 4, 1, 32
6, 4894, Control_c, 4, 1, 33
6, 4896, Control_c, 4, 1, 30
6, 4896, Control_c, 4, 1, 31
6, 4898, Control_c, 4, 1, 29
6, 4898, Control_c, 4, 1, 28
6, 4898, Control_c, 4, 1, 27
6, 4899, Control_c, 4, 1, 25
6, 4899, Control_c, 4, 1, 26
6, 4899, Control_c, 4, 1, 24
6, 4901, Control_c, 4, 1, 22
6, 4901, Control_c, 4, 1, 23
6, 4902, Control_c, 4, 1, 21
6, 4902, Control_c, 4, 1, 20
6, 4904, Control_c, 4, 1, 19
6, 4904, Control_c, 4, 1, 18
6, 4904, Control_c, 4, 1, 17
6, 4906, Control_c, 4, 1, 15
6, 4906, Control_c, 4, 1, 16
6, 4906, Control_c, 4, 1, 14
6, 4907, Control_c, 4, 1, 13
6, 4907, Control_c, 4, 1, 11
6, 4907, Control_c, 4, 1, 12
6, 4907, Control_c, 4, 1, 10
6, 4909, Control_c, 4, 1, 9
6, 4909, Control_c, 4, 1, 8
6, 4910, Control_c, 4, 1, 6
6, 4910, Control_c, 4, 1, 7
6, 4910, Control_c, 4, 1, 5
6, 4912, Control_c, 4, 1, 4
6, 4914, Control_c, 4, 1, 3
6, 4915, Control_c, 4, 1, 2
6, 4915, Control_c, 4, 1, 1
6, 4946, Note_on_c, 4, 82, 0
6, 4980, Note_on_c, 4, 83, 52
6, 5040, Note_on_c, 4, 83, 0
6, 5045, Note_on_c, 4, 84, 58
6, 5075, Note_on_c, 4, 85, 55
6, 5080, Note_on_c, 4, 84, 0
6, 5091, Control_c, 4, 1, 0
6, 5099, Note_on_c, 4, 82, 55
6, 5118, Note_on_c, 4, 85, 0
6, 5128, Note_on_c, 4, 82, 0
6, 5129, Note_on_c, 4, 78, 48
6, 5160, Note_on_c, 4, 79, 54
6, 5164, Note_on_c, 4, 78, 0
6, 5192, Control_c, 4, 1, 2
6, 5192, Control_c, 4, 1, 1
6, 5193, Control_c, 4, 1, 3
6, 5193, Control_c, 4, 1, 4
6, 5195, Control_c, 4, 1, 6
6, 5195, Control_c, 4, 1, 5
6, 5196, Control_c, 4, 1, 9
6, 5196, Control_c, 4, 1, 8
6, 5196, Control_c, 4, 1, 7
6, 5196, Control_c, 4, 1, 11
6, 5196, Control_c, 4, 1, 10
6, 5196, Control_c, 4, 1, 12
6, 5198, Control_c, 4, 1, 14
6, 5198, Control_c, 4, 1, 13
6, 5200, Control_c, 4, 1, 15
6, 5200, Control_c, 4, 1, 16
6, 5200, Control_c, 4, 1, 17
6, 5201, Control_c, 4, 1, 18
6, 5201, Control_c, 4, 1, 19
6, 5201, Control_c, 4, 1, 20
6, 5203, Control_c, 4, 1, 22
6, 5203, Control_c, 4, 1, 21
6, 5204, Control_c, 4, 1, 23
6, 5204, Control_c, 4, 1, 25
6, 5204, Control_c, 4, 1, 24
6, 5206, Control_c, 4, 1, 27
6, 5206, Control_c, 4, 1, 26
6, 5208, Control_c, 4, 1, 28
6, 5209, Control_c, 4, 1, 29
6, 5209, Control_c, 4, 1, 30
6, 5211, Control_c, 4, 1, 32
6, 5211, Control_c, 4, 1, 31
6, 5212, Control_c, 4, 1, 33
6, 5214, Control_c, 4, 1, 34
6, 5216, Control_c, 4, 1, 35
6, 5217, Control_c, 4, 1, 36
6, 5219, Control_c, 4, 1, 37
6, 5222, Control_c, 4, 1, 38
6, 5286, Control_c, 4, 1, 37
6, 5288, Control_c, 4, 1, 36
6, 5291, Control_c, 4, 1, 35
6, 5292, Control_c, 4, 1, 34
6, 5296, Control_c, 4, 1, 33
6, 5297, Control_c, 4, 1, 32
6, 5299, Control_c, 4, 1, 31
6, 5300, Control_c, 4, 1, 30
6, 5302, Control_c, 4, 1, 29
6, 5304, Control_c, 4, 1, 28
6, 5305, Control_c, 4, 1, 27
6, 5305, Control_c, 4, 1, 25
6, 5305, Control_c, 4, 1, 26
6, 5307, Control_c, 4, 1, 23
6, 5307, Control_c, 4, 1, 24
6, 5308, Control_c, 4, 1, 22
6, 5310, Control_c, 4, 1, 19
6, 5310, Control_c, 4, 1, 21
6, 5310, Control_c, 4, 1, 20
6, 5312, Control_c, 4, 1, 18
6, 5313, Control_c, 4, 1, 16
6, 5313, Control_c, 4, 1, 17
6, 5316, Control_c, 4, 1, 15
6, 5324, Control_c, 4, 1, 17
6, 5324, Control_c, 4, 1, 16
6, 5326, Control_c, 4, 1, 18
6, 5328, Control_c, 4, 1, 20
6, 5328, Control_c, 4, 1, 19
6, 5329, Control_c, 4, 1, 22
6, 5329, Control_c, 4, 1, 21
6, 5331, Control_c, 4, 1, 23
6, 5331, Control_c, 4, 1, 24
6, 5332, Control_c, 4, 1, 26
6, 5332, Control_c, 4, 1, 25
6, 5334, Control_c, 4, 1, 27
6, 5334, Control_c, 4, 1, 28
6, 5336, Control_c, 4, 1, 29
6, 5339, Control_c, 4, 1, 30
6, 5358, Control_c, 4, 1, 31
6, 5363, Control_c, 4, 1, 32
6, 5400, Note_on_c, 4, 78, 43
6, 5400, Note_on_c, 4, 79, 0
6, 5419, Control_c, 4, 1, 31
6, 5420, Control_c, 4, 1, 29
6, 5420, Control_c, 4, 1, 30
6, 5422, Control_c, 4, 1, 28
6, 5424, Control_c, 4, 1, 25
6, 5424, Control_c, 4, 1, 27
6, 5424, Control_c, 4, 1, 26
6, 5425, Control_c, 4, 1, 24
6, 5427, Control_c, 4, 1, 23
6, 5427, Control_c, 4, 1, 22
6, 5427, Control_c, 4, 1, 21
6, 5428, Control_c, 4, 1, 20
6, 5430, Control_c, 4, 1, 17
6, 5430, Control_c, 4, 1, 18
6, 5430, Control_c, 4, 1, 19
6, 5432, Control_c, 4, 1, 16
6, 5432, Control_c, 4, 1, 15
6, 5433, Control_c, 4, 1, 14
6, 5435, Control_c, 4, 1, 12
6, 5435, Control_c, 4, 1, 13
6, 5438, Control_c, 4, 1, 11
6, 5440, Control_c, 4, 1, 10
6, 5441, Control_c, 4, 1, 9
6, 5443, Control_c, 4, 1, 8
6, 5444, Control_c, 4, 1, 7
6, 5446, Control_c, 4, 1, 5
6, 5446, Control_c, 4, 1, 6
6, 5448, Control_c, 4, 1, 4
6, 5449, Control_c, 4, 1, 3
6, 5451, Control_c, 4, 1, 2
6, 5452, Control_c, 4, 1, 1
6, 5470, Control_c, 4, 1, 0
6, 5520, Note_on_c, 4, 78, 0
6, 6540, Note_on_c, 4, 79, 60
6, 6600, Note_on_c, 4, 79, 0
6, 6601, Note_on_c, 4, 83, 62
6, 6630, Note_on_c, 4, 84, 65
6, 6630, Note_on_c, 4, 83, 0
6, 6657, Note_on_c, 4, 84, 0
6, 6659, Note_on_c, 4, 79, 55
6, 6689, Note_on_c, 4, 76, 59
6, 6692, Note_on_c, 4, 79, 0
6, 6719, Note_on_c, 4, 76, 0
6, 6720, Note_on_c, 4, 78, 55
6, 6733, Control_c, 4, 1, 1
6, 6733, Control_c, 4, 1, 3
6, 6733, Control_c, 4, 1, 4
6, 6733, Control_c, 4, 1, 2
6, 6734, Control_c, 4, 1, 5
6, 6734, Control_c, 4, 1, 6
6, 6734, Control_c, 4, 1, 7
6, 6734, Control_c, 4, 1, 8
6, 6736, Control_c, 4, 1, 10
6, 6736, Control_c, 4, 1, 9
6, 6736, Control_c, 4, 1, 11
6, 6736, Control_c, 4, 1, 12
6, 6737, Control_c, 4, 1, 13
6, 6738, Control_c, 4, 1, 17
6, 6738, Control_c, 4, 1, 19
6, 6738, Control_c, 4, 1, 20
6, 6738, Control_c, 4, 1, 15
6, 6738, Control_c, 4, 1, 14
6, 6738, Control_c, 4, 1, 16
6, 6738, Control_c, 4, 1, 18
6, 6739, Control_c, 4, 1, 21
6, 6741, Control_c, 4, 1, 22
6, 6741, Control_c, 4, 1, 24
6, 6741, Control_c, 4, 1, 23
6, 6742, Control_c, 4, 1, 27
6, 6742, Control_c, 4, 1, 26
6, 6742, Control_c, 4, 1, 28
6, 6742, Control_c, 4, 1, 25
6, 6743, Control_c, 4, 1, 29
6, 6744, Control_c, 4, 1, 31
6, 6744, Control_c, 4, 1, 30
6, 6746, Control_c, 4, 1, 32
6, 6747, Control_c, 4, 1, 33
6, 6748, Control_c, 4, 1, 34
6, 6753, Control_c, 4, 1, 35
6, 6757, Control_c, 4, 1, 36
6, 6770, Control_c, 4, 1, 37
6, 6776, Control_c, 4, 1, 38
6, 6829, Control_c, 4, 1, 39
6, 6831, Control_c, 4, 1, 40
6, 6833, Control_c, 4, 1, 41
6, 6835, Control_c, 4, 1, 42
6, 6838, Control_c, 4, 1, 43
6, 6840, Control_c, 4, 1, 44
6, 6854, Control_c, 4, 1, 43
6, 6855, Control_c, 4, 1, 42
6, 6858, Control_c, 4, 1, 41
6, 6859, Control_c, 4, 1, 40
6, 6860, Control_c, 4, 1, 39
6, 6862, Control_c, 4, 1, 38
6, 6863, Control_c, 4, 1, 37
6, 6863, Note_on_c, 4, 78, 0
6, 6863, Control_c, 4, 1, 36
6, 6863, Control_c, 4, 1, 35
6, 6864, Control_c, 4, 1, 34
6, 6865, Control_c, 4, 1, 33
6, 6865, Control_c, 4, 1, 32
6, 6867, Control_c, 4, 1, 30
6, 6867, Control_c, 4, 1, 31
6, 6868, Control_c, 4, 1, 29
6, 6869, Control_c, 4, 1, 27
6, 6869, Control_c, 4, 1, 28
6, 6870, Control_c, 4, 1, 26
6, 6872, Control_c, 4, 1, 25
6, 6873, Control_c, 4, 1, 22
6, 6873, Control_c, 4, 1, 24
6, 6873, Control_c, 4, 1, 23
6, 6875, Control_c, 4, 1, 20
6, 6875, Control_c, 4, 1, 21
6, 6877, Control_c, 4, 1, 19
6, 6877, Control_c, 4, 1, 18
6, 6879, Control_c, 4, 1, 17
6, 6882, Control_c, 4, 1, 16
6, 6900, Note_on_c, 4, 79, 67
6, 6901, Control_c, 4, 1, 15
6, 6907, Control_c, 4, 1, 14
6, 6911, Control_c, 4, 1, 13
6, 6914, Control_c, 4, 1, 12
6, 6960, Note_on_c, 4, 80, 59
6, 6963, Note_on_c, 4, 79, 0
6, 6989, Note_on_c, 4, 83, 69
6, 6992, Note_on_c, 4, 80, 0
6, 7019, Note_on_c, 4, 80, 68
6, 7024, Note_on_c, 4, 83, 0
6, 7040, Control_c, 4, 1, 11
6, 7049, Note_on_c, 4, 75, 63
6, 7055, Note_on_c, 4, 80, 0
6, 7081, Note_on_c, 4, 78, 63
6, 7089, Note_on_c, 4, 75, 0
6, 7091, Control_c, 4, 1, 12
6, 7092, Control_c, 4, 1, 13
6, 7093, Control_c, 4, 1, 14
6, 7094, Control_c, 4, 1, 16
6, 7094, Control_c, 4, 1, 15
6, 7096, Control_c, 4, 1, 18
6, 7096, Control_c, 4, 1, 19
6, 7096, Control_c, 4, 1, 17
6, 7097, Control_c, 4, 1, 20
6, 7098, Control_c, 4, 1, 21
6, 7099, Control_c, 4, 1, 23
6, 7099, Control_c, 4, 1, 24
6, 7099, Control_c, 4, 1, 22
6, 7101, Control_c, 4, 1, 25
6, 7102, Control_c, 4, 1, 26
6, 7103, Control_c, 4, 1, 27
6, 7105, Control_c, 4, 1, 28
6, 7106, Control_c, 4, 1, 30
6, 7106, Control_c, 4, 1, 29
6, 7108, Control_c, 4, 1, 31
6, 7108, Control_c, 4, 1, 32
6, 7110, Control_c, 4, 1, 33
6, 7111, Control_c, 4, 1, 34
6, 7113, Control_c, 4, 1, 35
6, 7115, Control_c, 4, 1, 36
6, 7118, Control_c, 4, 1, 37
6, 7140, Control_c, 4, 1, 36
6, 7145, Control_c, 4, 1, 35
6, 7178, Control_c, 4, 11, 126
6, 7182, Control_c, 4, 11, 125
6, 7186, Control_c, 4, 11, 124
6, 7190, Control_c, 4, 11, 123
6, 7192, Control_c, 4, 11, 121
6, 7194, Control_c, 4, 11, 120
6, 7196, Control_c, 4, 11, 119
6, 7198, Control_c, 4, 11, 118
6, 7200, Control_c, 4, 11, 117
6, 7202, Control_c, 4, 11, 116
6, 7204, Control_c, 4, 11, 115
6, 7206, Control_c, 4, 11, 114
6, 7210, Control_c, 4, 11, 113
6, 7212, Control_c, 4, 11, 111
6, 7214, Control_c, 4, 11, 110
6, 7216, Control_c, 4, 11, 109
6, 7217, Control_c, 4, 1, 34
6, 7218, Control_c, 4, 1, 33
6, 7219, Control_c, 4, 1, 32
6, 7220, Control_c, 4, 1, 31
6, 7220, Control_c, 4, 1, 30
6, 7220, Control_c, 4, 11, 108
6, 7222, Control_c, 4, 11, 106
6, 7222, Control_c, 4, 1, 29
6, 7224, Control_c, 4, 1, 27
6, 7224, Control_c, 4, 1, 28
6, 7225, Control_c, 4, 1, 26
6, 7226, Control_c, 4, 11, 105
6, 7228, Control_c, 4, 1, 25
6, 7229, Control_c, 4, 1, 24
6, 7230, Control_c, 4, 11, 104
6, 7232, Control_c, 4, 11, 102
6, 7234, Control_c, 4, 1, 23
6, 7234, Control_c, 4, 11, 101
6, 7237, Control_c, 4, 1, 22
6, 7238, Control_c, 4, 1, 21
6, 7238, Control_c, 4, 11, 99
6, 7239, Control_c, 4, 1, 20
6, 7241, Control_c, 4, 1, 19
6, 7241, Control_c, 4, 1, 18
6, 7242, Control_c, 4, 1, 17
6, 7243, Control_c, 4, 1, 16
6, 7244, Control_c, 4, 1, 14
6, 7244, Control_c, 4, 1, 15
6, 7246, Control_c, 4, 1, 13
6, 7248, Control_c, 4, 1, 12
6, 7250, Control_c, 4, 11, 98
6, 7257, Control_c, 4, 1, 11
6, 7258, Control_c, 4, 1, 9
6, 7258, Control_c, 4, 1, 10
6, 7259, Control_c, 4, 1, 8
6, 7261, Control_c, 4, 1, 6
6, 7261, Control_c, 4, 1, 7
6, 7262, Control_c, 4, 11, 96
6, 7262, Control_c, 4, 1, 4
6, 7262, Control_c, 4, 1, 5
6, 7263, Control_c, 4, 1, 3
6, 7265, Control_c, 4, 1, 2
6, 7266, Control_c, 4, 1, 1
6, 7274, Control_c, 4, 11, 95
6, 7276, Control_c, 4, 11, 93
6, 7280, Control_c, 4, 11, 92
6, 7282, Control_c, 4, 11, 91
6, 7298, Control_c, 4, 11, 90
6, 7302, Control_c, 4, 11, 89
6, 7306, Control_c, 4, 11, 87
6, 7312, Control_c, 4, 11, 86
6, 7316, Control_c, 4, 11, 85
6, 7332, Control_c, 4, 11, 84
6, 7348, Control_c, 4, 11, 82
6, 7360, Control_c, 4, 11, 81
6, 7364, Control_c, 4, 11, 80
6, 7365, Control_c, 4, 1, 0
6, 7380, Control_c, 4, 11, 79
6, 7386, Note_on_c, 4, 78, 0
6, 7396, Control_c, 4, 11, 78
6, 7424, Control_c, 4, 11, 77
6, 7426, Control_c, 4, 11, 76
6, 7542, Control_c, 4, 11, 127
6, 8520, Note_on_c, 4, 76, 64
6, 8537, Control_c, 4, 1, 2
6, 8537, Control_c, 4, 1, 1
6, 8538, Control_c, 4, 1, 3
6, 8538, Control_c, 4, 1, 4
6, 8539, Control_c, 4, 1, 7
6, 8539, Control_c, 4, 1, 8
6, 8539, Control_c, 4, 1, 6
6, 8539, Control_c, 4, 1, 5
6, 8541, Control_c, 4, 1, 10
6, 8541, Control_c, 4, 1, 9
6, 8542, Control_c, 4, 1, 12
6, 8542, Control_c, 4, 1, 11
6, 8543, Control_c, 4, 1, 13
6, 8545, Control_c, 4, 1, 15
6, 8545, Control_c, 4, 1, 14
6, 8548, Control_c, 4, 1, 17
6, 8548, Control_c, 4, 1, 16
6, 8549, Control_c, 4, 1, 18
6, 8549, Control_c, 4, 1, 19
6, 8550, Control_c, 4, 1, 20
6, 8550, Control_c, 4, 1, 21
6, 8552, Control_c, 4, 1, 23
6, 8552, Control_c, 4, 1, 22
6, 8552, Control_c, 4, 1, 24
6, 8552, Control_c, 4, 1, 25
6, 8553, Control_c, 4, 1, 27
6, 8553, Control_c, 4, 1, 26
6, 8554, Control_c, 4, 1, 28
6, 8556, Control_c, 4, 1, 30
6, 8556, Control_c, 4, 1, 31
6, 8556, Control_c, 4, 1, 29
6, 8559, Control_c, 4, 1, 32
6, 8561, Control_c, 4, 1, 33
6, 8571, Control_c, 4, 1, 32
6, 8575, Control_c, 4, 1, 31
6, 8579, Note_on_c, 4, 74, 62
6, 8591, Note_on_c, 4, 76, 0
6, 8593, Control_c, 4, 1, 30
6, 8599, Control_c, 4, 1, 29
6, 8639, Note_on_c, 4, 73, 59
6, 8641, Note_on_c, 4, 74, 0
6, 8679, Control_c, 4, 1, 28
6, 8683, Control_c, 4, 1, 27
6, 8684, Control_c, 4, 1, 26
6, 8686, Control_c, 4, 1, 25
6, 8687, Control_c, 4, 1, 24
6, 8688, Control_c, 4, 1, 23
6, 8688, Control_c, 4, 1, 22
6, 8690, Control_c, 4, 1, 21
6, 8691, Control_c, 4, 1, 19
6, 8691, Control_c, 4, 1, 20
6, 8692, Control_c, 4, 1, 18
6, 8694, Control_c, 4, 1, 17
6, 8695, Control_c, 4, 1, 16
6, 8697, Control_c, 4, 1, 14
6, 8697, Control_c, 4, 1, 15
6, 8697, Control_c, 4, 1, 13
6, 8698, Control_c, 4, 1, 12
6, 8699, Note_on_c, 4, 72, 58
6, 8699, Control_c, 4, 1, 10
6, 8699, Control_c, 4, 1, 11
6, 8701, Control_c, 4, 1, 7
6, 8701, Control_c, 4, 1, 9
6, 8701, Control_c, 4, 1, 8
6, 8702, Control_c, 4, 1, 6
6, 8704, Control_c, 4, 1, 5
6, 8706, Note_on_c, 4, 73, 0
6, 8760, Note_on_c, 4, 71, 63
6, 8760, Note_on_c, 4, 72, 0
6, 8803, Control_c, 4, 1, 4
6, 8806, Control_c, 4, 1, 3
6, 8807, Control_c, 4, 1, 2
6, 8808, Control_c, 4, 1, 1
6, 8813, Control_c, 4, 1, 0
6, 8818, Note_on_c, 4, 70, 57
6, 8825, Note_on_c, 4, 71, 0
6, 8884, Note_on_c, 4, 69, 59
6, 8891, Note_on_c, 4, 70, 0
6, 8944, Note_on_c, 4, 68, 59
6, 8951, Note_on_c, 4, 69, 0
6, 9003, Note_on_c, 4, 69, 60
6, 9011, Note_on_c, 4, 68, 0
6, 9024, Control_c, 4, 1, 1
6, 9024, Control_c, 4, 1, 2
6, 9025, Control_c, 4, 1, 3
6, 9025, Control_c, 4, 1, 5
6, 9025, Control_c, 4, 1, 4
6, 9025, Control_c, 4, 1, 6
6, 9026, Control_c, 4, 1, 11
6, 9026, Control_c, 4, 1, 7
6, 9026, Control_c, 4, 1, 12
6, 9026, Control_c, 4, 1, 10
6, 9026, Control_c, 4, 1, 8
6, 9028, Control_c, 4, 1, 14
6, 9028, Control_c, 4, 1, 13
6, 9029, Control_c, 4, 1, 18
6, 9029, Control_c, 4, 1, 15
6, 9029, Control_c, 4, 1, 16
6, 9029, Control_c, 4, 1, 17
6, 9029, Control_c, 4, 1, 19
6, 9031, Control_c, 4, 1, 20
6, 9032, Control_c, 4, 1, 23
6, 9032, Control_c, 4, 1, 21
6, 9032, Control_c, 4, 1, 22
6, 9033, Control_c, 4, 1, 25
6, 9033, Control_c, 4, 1, 24
6, 9033, Control_c, 4, 1, 26
6, 9035, Control_c, 4, 1, 29
6, 9035, Control_c, 4, 1, 28
6, 9035, Control_c, 4, 1, 30
6, 9035, Control_c, 4, 1, 27
6, 9036, Control_c, 4, 1, 31
6, 9037, Control_c, 4, 1, 33
6, 9037, Control_c, 4, 1, 32
6, 9039, Control_c, 4, 1, 34
6, 9040, Control_c, 4, 1, 35
6, 9042, Control_c, 4, 1, 36
6, 9043, Control_c, 4, 1, 37
6, 9044, Control_c, 4, 1, 38
6, 9046, Control_c, 4, 1, 39
6, 9047, Control_c, 4, 1, 40
6, 9049, Control_c, 4, 1, 42
6, 9049, Control_c, 4, 1, 41
6, 9050, Control_c, 4, 1, 44
6, 9050, Control_c, 4, 1, 43
6, 9051, Control_c, 4, 1, 46
6, 9051, Control_c, 4, 1, 45
6, 9053, Control_c, 4, 1, 49
6, 9053, Control_c, 4, 1, 47
6, 9053, Control_c, 4, 1, 48
6, 9054, Control_c, 4, 1, 50
6, 9054, Control_c, 4, 1, 51
6, 9055, Control_c, 4, 1, 52
6, 9057, Control_c, 4, 1, 53
6, 9058, Control_c, 4, 1, 54
6, 9060, Control_c, 4, 1, 55
6, 9062, Control_c, 4, 1, 56
6, 9065, Control_c, 4, 1, 57
6, 9075, Control_c, 4, 1, 55
6, 9075, Control_c, 4, 1, 56
6, 9076, Control_c, 4, 1, 53
6, 9076, Control_c, 4, 1, 54
6, 9078, Control_c, 4, 1, 51
6, 9078, Control_c, 4, 1, 52
6, 9079, Control_c, 4, 1, 50
6, 9080, Control_c, 4, 1, 48
6, 9080, Control_c, 4, 1, 49
6, 9082, Control_c, 4, 1, 46
6, 9082, Control_c, 4, 1, 47
6, 9083, Control_c, 4, 1, 45
6, 9083, Control_c, 4, 1, 44
6, 9084, Control_c, 4, 1, 42
6, 9084, Control_c, 4, 1, 43
6, 9086, Control_c, 4, 1, 40
6, 9086, Control_c, 4, 1, 41
6, 9087, Control_c, 4, 1, 39
6, 9089, Control_c, 4, 1, 38
6, 9089, Control_c, 4, 1, 37
6, 9089, Control_c, 4, 1, 36
6, 9090, Control_c, 4, 1, 35
6, 9091, Control_c, 4, 1, 34
6, 9091, Control_c, 4, 1, 33
6, 9093, Control_c, 4, 1, 32
6, 9093, Control_c, 4, 1, 30
6, 9093, Control_c, 4, 1, 31
6, 9094, Control_c, 4, 1, 27
6, 9094, Control_c, 4, 1, 29
6, 9094, Control_c, 4, 1, 26
6, 9094, Control_c, 4, 1, 28
6, 9095, Control_c, 4, 1, 23
6, 9095, Control_c, 4, 1, 24
6, 9095, Control_c, 4, 1, 25
6, 9097, Control_c, 4, 1, 21
6, 9097, Control_c, 4, 1, 20
6, 9097, Control_c, 4, 1, 22
6, 9098, Control_c, 4, 1, 19
6, 9098, Control_c, 4, 1, 18
6, 9100, Control_c, 4, 1, 15
6, 9100, Control_c, 4, 1, 14
6, 9100, Control_c, 4, 1, 17
6, 9100, Control_c, 4, 1, 16
6, 9101, Control_c, 4, 1, 13
6, 9101, Control_c, 4, 1, 12
6, 9102, Control_c, 4, 1, 10
6, 9102, Control_c, 4, 1, 11
6, 9104, Control_c, 4, 1, 9
6, 9104, Control_c, 4, 1, 8
6, 9105, Control_c, 4, 1, 7
6, 9105, Control_c, 4, 1, 6
6, 9106, Control_c, 4, 1, 5
6, 9108, Control_c, 4, 1, 4
6, 9109, Control_c, 4, 1, 3
6, 9111, Control_c, 4, 1, 2
6, 9112, Control_c, 4, 1, 1
6, 9118, Note_on_c, 4, 68, 59
6, 9123, Note_on_c, 4, 69, 0
6, 9130, Control_c, 4, 1, 0
6, 9178, Note_on_c, 4, 69, 59
6, 9184, Note_on_c, 4, 68, 0
6, 9239, Note_on_c, 4, 70, 56
6, 9246, Note_on_c, 4, 69, 0
6, 9256, Control_c, 4, 1, 3
6, 9256, Control_c, 4, 1, 2
6, 9256, Control_c, 4, 1, 1
6, 9257, Control_c, 4, 1, 4
6, 9257, Control_c, 4, 1, 5
6, 9258, Control_c, 4, 1, 9
6, 9258, Control_c, 4, 1, 14
6, 9258, Control_c, 4, 1, 7
6, 9258, Control_c, 4, 1, 6
6, 9258, Control_c, 4, 1, 13
6, 9258, Control_c, 4, 1, 12
6, 9258, Control_c, 4, 1, 8
6, 9258, Control_c, 4, 1, 10
6, 9260, Control_c, 4, 1, 15
6, 9261, Control_c, 4, 1, 18
6, 9261, Control_c, 4, 1, 20
6, 9261, Control_c, 4, 1, 19
6, 9261, Control_c, 4, 1, 25
6, 9261, Control_c, 4, 1, 22
6, 9261, Control_c, 4, 1, 21
6, 9261, Control_c, 4, 1, 16
6, 9261, Control_c, 4, 1, 24
6, 9262, Control_c, 4, 1, 26
6, 9264, Control_c, 4, 1, 29
6, 9264, Control_c, 4, 1, 30
6, 9264, Control_c, 4, 1, 27
6, 9264, Control_c, 4, 1, 28
6, 9265, Control_c, 4, 1, 31
6, 9265, Control_c, 4, 1, 35
6, 9265, Control_c, 4, 1, 32
6, 9265, Control_c, 4, 1, 36
6, 9265, Control_c, 4, 1, 33
6, 9265, Control_c, 4, 1, 34
6, 9268, Control_c, 4, 1, 37
6, 9268, Control_c, 4, 1, 38
6, 9269, Control_c, 4, 1, 39
6, 9271, Control_c, 4, 1, 40
6, 9272, Control_c, 4, 1, 41
6, 9273, Control_c, 4, 1, 42
6, 9275, Control_c, 4, 1, 43
6, 9276, Control_c, 4, 1, 44
6, 9280, Control_c, 4, 1, 45
6, 9282, Control_c, 4, 1, 46
6, 9283, Control_c, 4, 1, 47
6, 9285, Control_c, 4, 1, 49
6, 9285, Control_c, 4, 1, 48
6, 9286, Control_c, 4, 1, 50
6, 9287, Control_c, 4, 1, 51
6, 9289, Control_c, 4, 1, 52
6, 9291, Control_c, 4, 1, 53
6, 9305, Control_c, 4, 1, 52
6, 9305, Control_c, 4, 1, 51
6, 9307, Control_c, 4, 1, 50
6, 9308, Control_c, 4, 1, 49
6, 9308, Control_c, 4, 1, 48
6, 9309, Control_c, 4, 1, 47
6, 9331, Control_c, 4, 1, 46
6, 9334, Control_c, 4, 1, 45
6, 9336, Control_c, 4, 1, 44
6, 9337, Control_c, 4, 1, 43
6, 9338, Control_c, 4, 1, 42
6, 9341, Control_c, 4, 1, 41
6, 9342, Control_c, 4, 1, 40
6, 9344, Control_c, 4, 1, 39
6, 9360, Note_on_c, 4, 71, 65
6, 9365, Note_on_c, 4, 70, 0
6, 9402, Control_c, 4, 1, 40
6, 9402, Control_c, 4, 1, 41
6, 9403, Control_c, 4, 1, 44
6, 9403, Control_c, 4, 1, 43
6, 9403, Control_c, 4, 1, 42
6, 9405, Control_c, 4, 1, 45
6, 9405, Control_c, 4, 1, 46
6, 9406, Control_c, 4, 1, 47
6, 9406, Control_c, 4, 1, 49
6, 9406, Control_c, 4, 1, 48
6, 9407, Control_c, 4, 1, 51
6, 9407, Control_c, 4, 1, 50
6, 9409, Control_c, 4, 1, 52
6, 9409, Control_c, 4, 1, 53
6, 9410, Control_c, 4, 1, 54
6, 9411, Control_c, 4, 1, 55
6, 9411, Control_c, 4, 1, 56
6, 9413, Control_c, 4, 1, 57
6, 9414, Control_c, 4, 1, 58
6, 9416, Control_c, 4, 1, 59
6, 9417, Control_c, 4, 1, 60
6, 9418, Control_c, 4, 1, 61
6, 9420, Control_c, 4, 1, 62
6, 9423, Control_c, 4, 1, 63
6, 9425, Control_c, 4, 1, 64
6, 9429, Control_c, 4, 1, 65
6, 9438, Control_c, 4, 1, 64
6, 9438, Control_c, 4, 1, 63
6, 9439, Control_c, 4, 1, 62
6, 9440, Control_c, 4, 1, 61
6, 9440, Control_c, 4, 1, 60
6, 9442, Control_c, 4, 1, 59
6, 9442, Control_c, 4, 1, 58
6, 9443, Control_c, 4, 1, 56
6, 9443, Control_c, 4, 1, 57
6, 9445, Control_c, 4, 1, 55
6, 9446, Control_c, 4, 1, 53
6, 9446, Control_c, 4, 1, 54
6, 9447, Control_c, 4, 1, 51
6, 9447, Control_c, 4, 1, 52
6, 9449, Control_c, 4, 1, 50
6, 9450, Control_c, 4, 1, 48
6, 9450, Control_c, 4, 1, 49
6, 9451, Control_c, 4, 1, 47
6, 9453, Control_c, 4, 1, 46
6, 9453, Control_c, 4, 1, 45
6, 9454, Control_c, 4, 1, 43
6, 9454, Control_c, 4, 1, 44
6, 9456, Control_c, 4, 1, 42
6, 9457, Control_c, 4, 1, 41
6, 9457, Control_c, 4, 1, 40
6, 9457, Control_c, 4, 1, 39
6, 9458, Control_c, 4, 1, 38
6, 9460, Control_c, 4, 1, 34
6, 9460, Control_c, 4, 1, 36
6, 9460, Control_c, 4, 1, 35
6, 9460, Control_c, 4, 1, 37
6, 9461, Control_c, 4, 1, 32
6, 9461, Control_c, 4, 1, 33
6, 9463, Control_c, 4, 1, 31
6, 9463, Control_c, 4, 1, 30
6, 9464, Control_c, 4, 1, 29
6, 9464, Control_c, 4, 1, 28
6, 9465, Control_c, 4, 1, 27
6, 9465, Control_c, 4, 1, 26
6, 9467, Control_c, 4, 1, 25
6, 9467, Control_c, 4, 1, 24
6, 9468, Control_c, 4, 1, 23
6, 9468, Control_c, 4, 1, 21
6, 9468, Control_c, 4, 1, 22
6, 9469, Control_c, 4, 1, 20
6, 9469, Control_c, 4, 1, 19
6, 9469, Control_c, 4, 1, 18
6, 9469, Control_c, 4, 1, 17
6, 9472, Note_on_c, 4, 71, 0
6, 9472, Control_c, 4, 1, 14
6, 9472, Control_c, 4, 1, 9
6, 9472, Control_c, 4, 1, 15
6, 9472, Control_c, 4, 1, 10
6, 9472, Control_c, 4, 1, 8
6, 9472, Control_c, 4, 1, 16
6, 9472, Control_c, 4, 1, 13
6, 9472, Control_c, 4, 1, 11
6, 9472, Control_c, 4, 1, 12
6, 9475, Control_c, 4, 1, 7
6, 9475, Control_c, 4, 1, 6
6, 9475, Control_c, 4, 1, 5
6, 9475, Control_c, 4, 1, 4
6, 9476, Control_c, 4, 1, 3
6, 9476, Control_c, 4, 1, 1
6, 9476, Control_c, 4, 1, 2
6, 9478, Note_on_c, 4, 78, 57
6, 9485, Control_c, 4, 1, 0
6, 9505, Control_c, 4, 1, 1
6, 9506, Control_c, 4, 1, 2
6, 9506, Control_c, 4, 1, 3
6, 9507, Control_c, 4, 1, 4
6, 9509, Control_c, 4, 1, 5
6, 9510, Control_c, 4, 1, 8
6, 9510, Control_c, 4, 1, 7
6, 9510, Control_c, 4, 1, 6
6, 9511, Control_c, 4, 1, 9
6, 9513, Control_c, 4, 1, 11
6, 9513, Control_c, 4, 1, 10
6, 9516, Control_c, 4, 1, 12
6, 9516, Control_c, 4, 1, 13
6, 9517, Control_c, 4, 1, 14
6, 9518, Control_c, 4, 1, 16
6, 9518, Control_c, 4, 1, 15
6, 9520, Control_c, 4, 1, 17
6, 9521, Control_c, 4, 1, 19
6, 9521, Control_c, 4, 1, 18
6, 9523, Control_c, 4, 1, 20
6, 9524, Control_c, 4, 1, 21
6, 9525, Control_c, 4, 1, 23
6, 9525, Control_c, 4, 1, 22
6, 9527, Control_c, 4, 1, 24
6, 9528, Control_c, 4, 1, 26
6, 9528, Control_c, 4, 1, 25
6, 9529, Control_c, 4, 1, 27
6, 9531, Control_c, 4, 1, 29
6, 9531, Control_c, 4, 1, 28
6, 9532, Control_c, 4, 1, 31
6, 9532, Control_c, 4, 1, 30
6, 9534, Control_c, 4, 1, 32
6, 9535, Control_c, 4, 1, 33
6, 9535, Control_c, 4, 1, 34
6, 9536, Control_c, 4, 1, 35
6, 9536, Control_c, 4, 1, 36
6, 9539, Control_c, 4, 1, 37
6, 9540, Control_c, 4, 1, 38
6, 9542, Control_c, 4, 1, 39
6, 9543, Control_c, 4, 1, 40
6, 9546, Control_c, 4, 1, 41
6, 9557, Control_c, 4, 1, 40
6, 9598, Note_on_c, 4, 80, 53
6, 9604, Control_c, 4, 1, 41
6, 9608, Note_on_c, 4, 78, 0
6, 9612, Control_c, 4, 1, 42
6, 9616, Control_c, 4, 1, 43
6, 9619, Control_c, 4, 1, 44
6, 9622, Control_c, 4, 1, 45
6, 9623, Control_c, 4, 1, 46
6, 9625, Control_c, 4, 1, 47
6, 9629, Control_c, 4, 1, 48
6, 9634, Control_c, 4, 1, 49
6, 9638, Control_c, 4, 1, 50
6, 9667, Control_c, 4, 1, 49
6, 9676, Control_c, 4, 1, 48
6, 9680, Control_c, 4, 1, 47
6, 9703, Control_c, 4, 1, 46
6, 9719, Note_on_c, 4, 81, 60
6, 9725, Note_on_c, 4, 80, 0
6, 9782, Control_c, 4, 1, 45
6, 9822, Control_c, 4, 1, 44
6, 9837, Note_on_c, 4, 81, 0
6, 9838, Note_on_c, 4, 83, 64
6, 9850, Control_c, 4, 1, 43
6, 9895, Control_c, 4, 1, 42
6, 9902, Control_c, 4, 1, 41
6, 9906, Control_c, 4, 1, 40
6, 9917, Control_c, 4, 1, 39
6, 9960, Note_on_c, 4, 85, 57
6, 9970, Note_on_c, 4, 83, 0
6, 9981, Control_c, 4, 1, 40
6, 9983, Control_c, 4, 1, 41
6, 9986, Control_c, 4, 1, 42
6, 9990, Control_c, 4, 1, 43
6, 9996, Control_c, 4, 1, 44
6, 10017, Control_c, 4, 1, 43
6, 10018, Control_c, 4, 1, 42
6, 10019, Control_c, 4, 1, 41
6, 10021, Control_c, 4, 1, 40
6, 10021, Control_c, 4, 1, 39
6, 10022, Control_c, 4, 1, 38
6, 10023, Control_c, 4, 1, 37
6, 10025, Control_c, 4, 1, 36
6, 10026, Control_c, 4, 1, 34
6, 10026, Control_c, 4, 1, 35
6, 10028, Control_c, 4, 1, 33
6, 10029, Control_c, 4, 1, 32
6, 10032, Control_c, 4, 1, 31
6, 10033, Control_c, 4, 1, 30
6, 10035, Control_c, 4, 1, 29
6, 10036, Control_c, 4, 1, 28
6, 10037, Control_c, 4, 1, 27
6, 10039, Control_c, 4, 1, 26
6, 10040, Control_c, 4, 1, 25
6, 10040, Control_c, 4, 1, 24
6, 10041, Control_c, 4, 1, 23
6, 10041, Control_c, 4, 1, 21
6, 10041, Control_c, 4, 1, 22
6, 10051, Control_c, 4, 1, 20
6, 10054, Control_c, 4, 1, 19
6, 10057, Control_c, 4, 1, 18
6, 10058, Control_c, 4, 1, 17
6, 10059, Control_c, 4, 1, 16
6, 10061, Control_c, 4, 1, 15
6, 10079, Note_on_c, 4, 86, 66
6, 10081, Note_on_c, 4, 85, 0
6, 10086, Control_c, 4, 1, 14
6, 10108, Control_c, 4, 1, 15
6, 10109, Control_c, 4, 1, 16
6, 10112, Control_c, 4, 1, 17
6, 10112, Control_c, 4, 1, 19
6, 10112, Control_c, 4, 1, 18
6, 10115, Control_c, 4, 1, 21
6, 10115, Control_c, 4, 1, 20
6, 10116, Control_c, 4, 1, 22
6, 10117, Control_c, 4, 1, 23
6, 10117, Control_c, 4, 1, 24
6, 10119, Control_c, 4, 1, 26
6, 10119, Control_c, 4, 1, 25
6, 10120, Control_c, 4, 1, 27
6, 10121, Control_c, 4, 1, 28
6, 10123, Control_c, 4, 1, 29
6, 10123, Control_c, 4, 1, 30
6, 10124, Control_c, 4, 1, 31
6, 10126, Control_c, 4, 1, 32
6, 10127, Control_c, 4, 1, 33
6, 10127, Control_c, 4, 1, 34
6, 10130, Control_c, 4, 1, 35
6, 10131, Control_c, 4, 1, 36
6, 10134, Control_c, 4, 1, 37
6, 10135, Control_c, 4, 1, 38
6, 10148, Control_c, 4, 1, 36
6, 10148, Control_c, 4, 1, 37
6, 10149, Control_c, 4, 1, 34
6, 10149, Control_c, 4, 1, 35
6, 10152, Control_c, 4, 1, 30
6, 10152, Control_c, 4, 1, 31
6, 10152, Control_c, 4, 1, 29
6, 10152, Control_c, 4, 1, 32
6, 10152, Control_c, 4, 1, 33
6, 10155, Control_c, 4, 1, 28
6, 10156, Control_c, 4, 1, 26
6, 10156, Control_c, 4, 1, 25
6, 10156, Control_c, 4, 1, 24
6, 10156, Control_c, 4, 1, 27
6, 10157, Control_c, 4, 1, 23
6, 10159, Control_c, 4, 1, 21
6, 10159, Control_c, 4, 1, 22
6, 10160, Control_c, 4, 1, 20
6, 10160, Control_c, 4, 1, 19
6, 10161, Control_c, 4, 1, 18
6, 10163, Control_c, 4, 1, 17
6, 10164, Control_c, 4, 1, 16
6, 10167, Control_c, 4, 1, 15
6, 10177, Control_c, 4, 1, 16
6, 10200, Note_on_c, 4, 85, 58
6, 10203, Note_on_c, 4, 86, 0
6, 10210, Control_c, 4, 1, 17
6, 10211, Control_c, 4, 1, 18
6, 10214, Control_c, 4, 1, 19
6, 10217, Control_c, 4, 1, 20
6, 10218, Control_c, 4, 1, 21
6, 10219, Control_c, 4, 1, 22
6, 10222, Control_c, 4, 1, 23
6, 10224, Control_c, 4, 1, 24
6, 10225, Control_c, 4, 1, 25
6, 10226, Control_c, 4, 1, 26
6, 10229, Control_c, 4, 1, 27
6, 10229, Control_c, 4, 1, 28
6, 10232, Control_c, 4, 1, 29
6, 10235, Control_c, 4, 1, 30
6, 10237, Control_c, 4, 1, 31
6, 10239, Control_c, 4, 1, 32
6, 10243, Control_c, 4, 1, 33
6, 10247, Control_c, 4, 1, 34
6, 10282, Control_c, 4, 1, 33
6, 10312, Control_c, 4, 1, 32
6, 10317, Control_c, 4, 1, 31
6, 10319, Control_c, 4, 1, 30
6, 10322, Control_c, 4, 1, 29
6, 10323, Control_c, 4, 1, 28
6, 10326, Control_c, 4, 1, 27
6, 10326, Control_c, 4, 1, 25
6, 10326, Control_c, 4, 1, 26
6, 10327, Control_c, 4, 1, 24
6, 10328, Control_c, 4, 1, 23
6, 10328, Control_c, 4, 1, 22
6, 10328, Control_c, 4, 1, 21
6, 10330, Control_c, 4, 1, 20
6, 10331, Control_c, 4, 1, 19
6, 10331, Control_c, 4, 1, 18
6, 10333, Control_c, 4, 1, 17
6, 10337, Control_c, 4, 1, 16
6, 10339, Control_c, 4, 1, 15
6, 10339, Control_c, 4, 1, 14
6, 10341, Control_c, 4, 1, 13
6, 10342, Control_c, 4, 1, 12
6, 10344, Control_c, 4, 1, 11
6, 10345, Control_c, 4, 1, 9
6, 10345, Control_c, 4, 1, 10
6, 10346, Control_c, 4, 1, 8
6, 10348, Control_c, 4, 1, 7
6, 10349, Control_c, 4, 1, 5
6, 10349, Control_c, 4, 1, 6
6, 10352, Control_c, 4, 1, 4
6, 10353, Control_c, 4, 1, 3
6, 10356, Control_c, 4, 1, 2
6, 10359, Control_c, 4, 1, 1
6, 10362, Note_on_c, 4, 85, 0
6, 10367, Control_c, 4, 1, 0
6, 10407, Note_on_c, 4, 86, 62
6, 10441, Note_on_c, 4, 88, 60
6, 10453, Control_c, 4, 1, 1
6, 10454, Control_c, 4, 1, 3
6, 10454, Control_c, 4, 1, 2
6, 10457, Control_c, 4, 1, 6
6, 10457, Control_c, 4, 1, 4
6, 10457, Control_c, 4, 1, 5
6, 10458, Control_c, 4, 1, 8
6, 10458, Control_c, 4, 1, 7
6, 10459, Note_on_c, 4, 86, 0
6, 10460, Control_c, 4, 1, 9
6, 10461, Control_c, 4, 1, 11
6, 10461, Control_c, 4, 1, 10
6, 10462, Control_c, 4, 1, 12
6, 10464, Control_c, 4, 1, 15
6, 10464, Control_c, 4, 1, 13
6, 10464, Control_c, 4, 1, 14
6, 10466, Control_c, 4, 1, 16
6, 10466, Control_c, 4, 1, 17
6, 10468, Control_c, 4, 1, 18
6, 10468, Control_c, 4, 1, 19
6, 10471, Control_c, 4, 1, 20
6, 10471, Control_c, 4, 1, 21
6, 10473, Control_c, 4, 1, 22
6, 10475, Control_c, 4, 1, 23
6, 10476, Control_c, 4, 1, 24
6, 10477, Control_c, 4, 1, 25
6, 10480, Control_c, 4, 1, 26
6, 10483, Control_c, 4, 1, 27
6, 10487, Control_c, 4, 1, 28
6, 10490, Control_c, 4, 1, 29
6, 10494, Control_c, 4, 1, 30
6, 10512, Control_c, 4, 1, 31
6, 10541, Control_c, 4, 1, 30
6, 10544, Control_c, 4, 1, 29
6, 10559, Control_c, 4, 1, 31
6, 10559, Control_c, 4, 1, 30
6, 10562, Control_c, 4, 1, 32
6, 10563, Control_c, 4, 1, 33
6, 10566, Control_c, 4, 1, 35
6, 10566, Control_c, 4, 1, 34
6, 10569, Control_c, 4, 1, 36
6, 10577, Control_c, 4, 1, 35
6, 10578, Control_c, 4, 1, 34
6, 10581, Control_c, 4, 1, 33
6, 10582, Control_c, 4, 1, 32
6, 10584, Control_c, 4, 1, 31
6, 10584, Control_c, 4, 1, 30
6, 10585, Control_c, 4, 1, 26
6, 10585, Control_c, 4, 1, 28
6, 10585, Control_c, 4, 1, 27
6, 10585, Control_c, 4, 1, 29
6, 10585, Control_c, 4, 1, 25
6, 10587, Control_c, 4, 1, 24
6, 10588, Control_c, 4, 1, 23
6, 10588, Control_c, 4, 1, 21
6, 10588, Control_c, 4, 1, 22
6, 10588, Control_c, 4, 1, 20
6, 10589, Control_c, 4, 1, 19
6, 10589, Control_c, 4, 1, 15
6, 10589, Control_c, 4, 1, 16
6, 10589, Control_c, 4, 1, 18
6, 10589, Control_c, 4, 1, 17
6, 10591, Control_c, 4, 1, 14
6, 10591, Control_c, 4, 1, 13
6, 10592, Control_c, 4, 1, 12
6, 10592, Control_c, 4, 1, 11
6, 10593, Control_c, 4, 1, 10
6, 10593, Control_c, 4, 1, 9
6, 10595, Control_c, 4, 1, 8
6, 10596, Control_c, 4, 1, 7
6, 10596, Control_c, 4, 1, 6
6, 10598, Control_c, 4, 1, 5
6, 10600, Control_c, 4, 1, 4
6, 10609, Control_c, 4, 1, 3
6, 10611, Control_c, 4, 1, 2
6, 10613, Control_c, 4, 1, 1
6, 10615, Control_c, 4, 1, 0
6, 10619, Note_on_c, 4, 88, 0
6, 10619, Note_on_c, 4, 85, 55
6, 10649, Note_on_c, 4, 86, 55
6, 10653, Note_on_c, 4, 85, 0
6, 10681, Note_on_c, 4, 88, 50
6, 10685, Note_on_c, 4, 86, 0
6, 10741, Note_on_c, 4, 86, 55
6, 10746, Note_on_c, 4, 88, 0
6, 10755, Control_c, 4, 1, 1
6, 10759, Control_c, 4, 1, 2
6, 10759, Control_c, 4, 1, 3
6, 10763, Control_c, 4, 1, 4
6, 10766, Control_c, 4, 1, 5
6, 10769, Control_c, 4, 1, 6
6, 10771, Control_c, 4, 1, 7
6, 10774, Control_c, 4, 1, 9
6, 10774, Control_c, 4, 1, 8
6, 10776, Control_c, 4, 1, 10
6, 10776, Control_c, 4, 1, 11
6, 10777, Control_c, 4, 1, 13
6, 10777, Control_c, 4, 1, 12
6, 10778, Control_c, 4, 1, 14
6, 10780, Control_c, 4, 1, 16
6, 10780, Control_c, 4, 1, 15
6, 10781, Control_c, 4, 1, 17
6, 10782, Control_c, 4, 1, 19
6, 10782, Control_c, 4, 1, 18
6, 10784, Control_c, 4, 1, 20
6, 10785, Control_c, 4, 1, 21
6, 10788, Control_c, 4, 1, 22
6, 10794, Control_c, 4, 1, 23
6, 10813, Control_c, 4, 1, 22
6, 10816, Control_c, 4, 1, 21
6, 10822, Control_c, 4, 1, 20
6, 10825, Control_c, 4, 1, 19
6, 10828, Control_c, 4, 1, 18
6, 10829, Control_c, 4, 1, 17
6, 10832, Control_c, 4, 1, 16
6, 10834, Control_c, 4, 1, 15
6, 10835, Control_c, 4, 1, 14
6, 10836, Control_c, 4, 1, 13
6, 10836, Control_c, 4, 1, 12
6, 10839, Control_c, 4, 1, 10
6, 10839, Control_c, 4, 1, 9
6, 10839, Control_c, 4, 1, 11
6, 10840, Control_c, 4, 1, 8
6, 10842, Control_c, 4, 1, 6
6, 10842, Control_c, 4, 1, 4
6, 10842, Control_c, 4, 1, 7
6, 10842, Control_c, 4, 1, 5
6, 10842, Control_c, 4, 1, 3
6, 10845, Control_c, 4, 1, 2
6, 10845, Control_c, 4, 1, 1
6, 10845, Control_c, 4, 1, 0
6, 10897, Note_on_c, 4, 86, 0
6, 10919, Note_on_c, 4, 86, 58
6, 10981, Note_on_c, 4, 84, 57
6, 10988, Note_on_c, 4, 86, 0
6, 11040, Note_on_c, 4, 82, 51
6, 11042, Note_on_c, 4, 84, 0
6, 11100, Note_on_c, 4, 82, 0
6, 11100, Note_on_c, 4, 81, 52
6, 11165, Note_on_c, 4, 79, 50
6, 11166, Note_on_c, 4, 81, 0
6, 11169, Control_c, 4, 1, 1
6, 11170, Control_c, 4, 1, 2
6, 11172, Control_c, 4, 1, 3
6, 11174, Control_c, 4, 1, 4
6, 11176, Control_c, 4, 1, 5
6, 11177, Control_c, 4, 1, 6
6, 11179, Control_c, 4, 1, 7
6, 11180, Control_c, 4, 1, 8
6, 11181, Control_c, 4, 1, 10
6, 11181, Control_c, 4, 1, 9
6, 11183, Control_c, 4, 1, 11
6, 11184, Control_c, 4, 1, 12
6, 11185, Control_c, 4, 1, 14
6, 11185, Control_c, 4, 1, 13
6, 11187, Control_c, 4, 1, 15
6, 11190, Control_c, 4, 1, 16
6, 11191, Control_c, 4, 1, 17
6, 11194, Control_c, 4, 1, 18
6, 11199, Control_c, 4, 1, 19
6, 11214, Control_c, 4, 1, 18
6, 11216, Control_c, 4, 1, 17
6, 11217, Control_c, 4, 1, 15
6, 11217, Control_c, 4, 1, 16
6, 11220, Control_c, 4, 1, 14
6, 11227, Control_c, 4, 1, 13
6, 11230, Control_c, 4, 1, 12
6, 11234, Control_c, 4, 1, 11
6, 11235, Note_on_c, 4, 79, 0
6, 11236, Control_c, 4, 1, 10
6, 11239, Control_c, 4, 1, 9
6, 11240, Note_on_c, 4, 78, 45
6, 11243, Control_c, 4, 1, 8
6, 11293, Control_c, 4, 1, 9
6, 11296, Control_c, 4, 1, 11
6, 11296, Control_c, 4, 1, 10
6, 11297, Control_c, 4, 1, 12
6, 11299, Control_c, 4, 1, 13
6, 11300, Control_c, 4, 1, 14
6, 11303, Control_c, 4, 1, 15
6, 11305, Control_c, 4, 1, 16
6, 11311, Control_c, 4, 1, 17
6, 11333, Control_c, 4, 1, 16
6, 11340, Control_c, 4, 1, 15
6, 11373, Control_c, 4, 1, 14
6, 11387, Control_c, 4, 1, 13
6, 11395, Control_c, 4, 1, 12
6, 11399, Control_c, 4, 1, 11
6, 11480, Note_on_c, 4, 78, 0
6, 17160, Note_on_c, 4, 78, 49
6, 17160, Note_on_c, 4, 74, 52
6, 17170, Control_c, 4, 1, 1
6, 17170, Control_c, 4, 1, 2
6, 17171, Control_c, 4, 1, 3
6, 17171, Control_c, 4, 1, 4
6, 17171, Control_c, 4, 1, 5
6, 17172, Control_c, 4, 1, 6
6, 17172, Control_c, 4, 1, 7
6, 17174, Control_c, 4, 1, 8
6, 17175, Control_c, 4, 1, 10
6, 17175, Control_c, 4, 1, 11
6, 17175, Control_c, 4, 1, 9
6, 17177, Control_c, 4, 1, 12
6, 17178, Control_c, 4, 1, 13
6, 17179, Control_c, 4, 1, 14
6, 17181, Control_c, 4, 1, 15
6, 17182, Control_c, 4, 1, 16
6, 17185, Control_c, 4, 1, 17
6, 17190, Control_c, 4, 1, 18
6, 17225, Control_c, 4, 1, 19
6, 17228, Control_c, 4, 1, 20
6, 17228, Control_c, 4, 1, 22
6, 17228, Control_c, 4, 1, 21
6, 17229, Control_c, 4, 1, 23
6, 17229, Control_c, 4, 1, 24
6, 17230, Control_c, 4, 1, 26
6, 17230, Control_c, 4, 1, 25
6, 17232, Control_c, 4, 1, 28
6, 17232, Control_c, 4, 1, 29
6, 17232, Control_c, 4, 1, 30
6, 17232, Control_c, 4, 1, 27
6, 17233, Control_c, 4, 1, 31
6, 17233, Control_c, 4, 1, 32
6, 17233, Control_c, 4, 1, 33
6, 17235, Control_c, 4, 1, 34
6, 17235, Control_c, 4, 1, 35
6, 17236, Control_c, 4, 1, 36
6, 17236, Control_c, 4, 1, 37
6, 17237, Control_c, 4, 1, 38
6, 17239, Control_c, 4, 1, 39
6, 17239, Control_c, 4, 1, 40
6, 17240, Control_c, 4, 1, 41
6, 17248, Control_c, 4, 1, 40
6, 17250, Control_c, 4, 1, 38
6, 17250, Control_c, 4, 1, 39
6, 17252, Control_c, 4, 1, 37
6, 17252, Control_c, 4, 1, 36
6, 17254, Control_c, 4, 1, 35
6, 17255, Control_c, 4, 1, 34
6, 17257, Control_c, 4, 1, 33
6, 17259, Control_c, 4, 1, 32
6, 17270, Control_c, 4, 1, 31
6, 17272, Control_c, 4, 1, 30
6, 17275, Control_c, 4, 1, 29
6, 17277, Control_c, 4, 1, 28
6, 17279, Control_c, 4, 1, 27
6, 17281, Control_c, 4, 1, 26
6, 17283, Control_c, 4, 1, 25
6, 17284, Control_c, 4, 1, 24
6, 17286, Control_c, 4, 1, 23
6, 17287, Control_c, 4, 1, 22
6, 17288, Control_c, 4, 1, 20
6, 17288, Control_c, 4, 1, 21
6, 17290, Control_c, 4, 1, 19
6, 17291, Control_c, 4, 1, 17
6, 17291, Control_c, 4, 1, 18
6, 17292, Control_c, 4, 1, 16
6, 17292, Control_c, 4, 1, 15
6, 17294, Control_c, 4, 1, 14
6, 17294, Control_c, 4, 1, 13
6, 17295, Control_c, 4, 1, 10
6, 17295, Control_c, 4, 1, 11
6, 17295, Control_c, 4, 1, 12
6, 17297, Control_c, 4, 1, 9
6, 17297, Control_c, 4, 1, 8
6, 17298, Control_c, 4, 1, 7
6, 17298, Control_c, 4, 1, 6
6, 17298, Control_c, 4, 1, 5
6, 17299, Control_c, 4, 1, 4
6, 17301, Control_c, 4, 1, 3
6, 17302, Control_c, 4, 1, 2
6, 17305, Control_c, 4, 1, 1
6, 17398, Note_on_c, 4, 73, 46
6, 17399, Note_on_c, 4, 77, 52
6, 17399, Note_on_c, 4, 78, 0
6, 17404, Note_on_c, 4, 74, 0
6, 17419, Control_c, 4, 1, 2
6, 17425, Control_c, 4, 1, 3
6, 17428, Control_c, 4, 1, 4
6, 17429, Control_c, 4, 1, 5
6, 17430, Control_c, 4, 1, 6
6, 17430, Control_c, 4, 1, 7
6, 17432, Control_c, 4, 1, 8
6, 17433, Control_c, 4, 1, 9
6, 17435, Control_c, 4, 1, 10
6, 17436, Control_c, 4, 1, 11
6, 17436, Control_c, 4, 1, 12
6, 17439, Control_c, 4, 1, 13
6, 17440, Control_c, 4, 1, 14
6, 17440, Control_c, 4, 1, 15
6, 17443, Control_c, 4, 1, 16
6, 17444, Control_c, 4, 1, 17
6, 17448, Control_c, 4, 1, 18
6, 17454, Control_c, 4, 1, 19
6, 17465, Control_c, 4, 1, 20
6, 17488, Control_c, 4, 1, 19
6, 17493, Control_c, 4, 1, 18
6, 17499, Control_c, 4, 1, 17
6, 17533, Control_c, 4, 1, 18
6, 17533, Control_c, 4, 1, 19
6, 17534, Control_c, 4, 1, 20
6, 17535, Control_c, 4, 1, 21
6, 17535, Control_c, 4, 1, 22
6, 17537, Control_c, 4, 1, 23
6, 17538, Control_c, 4, 1, 24
6, 17539, Control_c, 4, 1, 25
6, 17541, Control_c, 4, 1, 26
6, 17542, Control_c, 4, 1, 27
6, 17545, Control_c, 4, 1, 28
6, 17564, Control_c, 4, 1, 27
6, 17567, Control_c, 4, 1, 26
6, 17568, Control_c, 4, 1, 24
6, 17568, Control_c, 4, 1, 25
6, 17570, Control_c, 4, 1, 22
6, 17570, Control_c, 4, 1, 23
6, 17571, Control_c, 4, 1, 20
6, 17571, Control_c, 4, 1, 19
6, 17571, Control_c, 4, 1, 21
6, 17573, Control_c, 4, 1, 18
6, 17573, Control_c, 4, 1, 17
6, 17574, Control_c, 4, 1, 16
6, 17574, Control_c, 4, 1, 15
6, 17575, Control_c, 4, 1, 11
6, 17575, Control_c, 4, 1, 14
6, 17575, Control_c, 4, 1, 10
6, 17575, Control_c, 4, 1, 12
6, 17575, Control_c, 4, 1, 13
6, 17578, Control_c, 4, 1, 6
6, 17578, Control_c, 4, 1, 5
6, 17578, Control_c, 4, 1, 7
6, 17578, Control_c, 4, 1, 9
6, 17578, Control_c, 4, 1, 8
6, 17580, Control_c, 4, 1, 4
6, 17581, Control_c, 4, 1, 3
6, 17581, Control_c, 4, 1, 2
6, 17582, Control_c, 4, 1, 1
6, 17597, Control_c, 4, 1, 0
6, 17635, Note_on_c, 4, 77, 0
6, 17638, Note_on_c, 4, 73, 0
6, 17639, Note_on_c, 4, 76, 52
6, 17639, Note_on_c, 4, 72, 53
6, 17651, Control_c, 4, 1, 1
6, 17661, Control_c, 4, 1, 2
6, 17682, Control_c, 4, 1, 3
6, 17684, Control_c, 4, 1, 4
6, 17686, Control_c, 4, 1, 5
6, 17687, Control_c, 4, 1, 6
6, 17689, Control_c, 4, 1, 7
6, 17689, Control_c, 4, 1, 8
6, 17690, Control_c, 4, 1, 9
6, 17691, Control_c, 4, 1, 10
6, 17691, Control_c, 4, 1, 11
6, 17693, Control_c, 4, 1, 12
6, 17704, Control_c, 4, 1, 11
6, 17705, Control_c, 4, 1, 10
6, 17708, Control_c, 4, 1, 9
6, 17711, Control_c, 4, 1, 8
6, 17713, Control_c, 4, 1, 7
6, 17716, Control_c, 4, 1, 6
6, 17719, Control_c, 4, 1, 5
6, 17720, Control_c, 4, 1, 4
6, 17722, Control_c, 4, 1, 3
6, 17723, Control_c, 4, 1, 2
6, 17724, Control_c, 4, 1, 1
6, 17744, Control_c, 4, 1, 0
6, 17758, Note_on_c, 4, 74, 57
6, 17759, Note_on_c, 4, 71, 54
6, 17759, Note_on_c, 4, 72, 0
6, 17762, Note_on_c, 4, 76, 0
6, 17842, Note_on_c, 4, 71, 0
6, 17879, Note_on_c, 4, 66, 34
6, 17879, Note_on_c, 4, 71, 56
6, 17889, Note_on_c, 4, 74, 0
6, 17919, Control_c, 4, 1, 1
6, 17920, Control_c, 4, 1, 3
6, 17920, Control_c, 4, 1, 2
6, 17922, Control_c, 4, 1, 4
6, 17923, Control_c, 4, 1, 5
6, 17925, Control_c, 4, 1, 6
6, 17926, Control_c, 4, 1, 7
6, 17927, Control_c, 4, 1, 8
6, 17929, Control_c, 4, 1, 9
6, 17931, Control_c, 4, 1, 10
6, 17934, Control_c, 4, 1, 11
6, 17936, Control_c, 4, 1, 12
6, 17938, Control_c, 4, 1, 13
6, 17941, Control_c, 4, 1, 14
6, 17942, Control_c, 4, 1, 15
6, 17945, Control_c, 4, 1, 16
6, 17947, Control_c, 4, 1, 17
6, 17951, Control_c, 4, 1, 18
6, 17955, Control_c, 4, 1, 19
6, 17988, Control_c, 4, 1, 18
6, 17991, Control_c, 4, 1, 17
6, 17994, Control_c, 4, 1, 16
6, 18000, Control_c, 4, 1, 15
6, 18022, Control_c, 4, 1, 14
6, 18024, Control_c, 4, 1, 13
6, 18025, Control_c, 4, 1, 12
6, 18028, Control_c, 4, 1, 11
6, 18028, Control_c, 4, 1, 10
6, 18029, Control_c, 4, 1, 9
6, 18031, Control_c, 4, 1, 8
6, 18032, Control_c, 4, 1, 5
6, 18032, Control_c, 4, 1, 6
6, 18032, Control_c, 4, 1, 7
6, 18034, Control_c, 4, 1, 4
6, 18035, Control_c, 4, 1, 3
6, 18036, Control_c, 4, 1, 2
6, 18038, Control_c, 4, 1, 1
6, 18046, Control_c, 4, 1, 0
6, 18072, Note_on_c, 4, 66, 0
6, 18075, Note_on_c, 4, 71, 0
6, 18179, Note_on_c, 4, 74, 62
6, 18179, Note_on_c, 4, 71, 55
6, 18235, Note_on_c, 4, 74, 0
6, 18239, Note_on_c, 4, 76, 58
6, 18239, Note_on_c, 4, 73, 53
6, 18243, Note_on_c, 4, 71, 0
6, 18294, Note_on_c, 4, 73, 0
6, 18296, Note_on_c, 4, 76, 0
6, 18298, Note_on_c, 4, 74, 76
6, 18298, Note_on_c, 4, 78, 56
6, 18343, Note_on_c, 4, 74, 0
6, 18359, Note_on_c, 4, 71, 55
6, 18359, Note_on_c, 4, 74, 57
6, 18364, Note_on_c, 4, 78, 0
6, 18464, Note_on_c, 4, 74, 0
6, 18472, Note_on_c, 4, 71, 0
6, 18478, Note_on_c, 4, 69, 47
6, 18478, Note_on_c, 4, 73, 56
6, 18489, Control_c, 4, 1, 1
6, 18490, Control_c, 4, 1, 3
6, 18490, Control_c, 4, 1, 2
6, 18492, Control_c, 4, 1, 5
6, 18492, Control_c, 4, 1, 4
6, 18493, Control_c, 4, 1, 6
6, 18493, Control_c, 4, 1, 7
6, 18494, Control_c, 4, 1, 8
6, 18494, Control_c, 4, 1, 9
6, 18496, Control_c, 4, 1, 10
6, 18497, Control_c, 4, 1, 12
6, 18497, Control_c, 4, 1, 11
6, 18499, Control_c, 4, 1, 13
6, 18500, Control_c, 4, 1, 14
6, 18501, Control_c, 4, 1, 16
6, 18501, Control_c, 4, 1, 15
6, 18503, Control_c, 4, 1, 17
6, 18504, Control_c, 4, 1, 18
6, 18505, Control_c, 4, 1, 19
6, 18507, Control_c, 4, 1, 22
6, 18507, Control_c, 4, 1, 20
6, 18507, Control_c, 4, 1, 21
6, 18508, Control_c, 4, 1, 23
6, 18510, Control_c, 4, 1, 24
6, 18510, Control_c, 4, 1, 25
6, 18511, Control_c, 4, 1, 26
6, 18512, Control_c, 4, 1, 27
6, 18514, Control_c, 4, 1, 28
6, 18517, Control_c, 4, 1, 29
6, 18530, Control_c, 4, 1, 28
6, 18533, Control_c, 4, 1, 27
6, 18534, Control_c, 4, 1, 25
6, 18534, Control_c, 4, 1, 26
6, 18536, Control_c, 4, 1, 24
6, 18537, Control_c, 4, 1, 23
6, 18537, Control_c, 4, 1, 22
6, 18537, Control_c, 4, 1, 21
6, 18539, Control_c, 4, 1, 20
6, 18540, Control_c, 4, 1, 18
6, 18540, Control_c, 4, 1, 19
6, 18541, Control_c, 4, 1, 17
6, 18543, Control_c, 4, 1, 15
6, 18543, Control_c, 4, 1, 16
6, 18544, Control_c, 4, 1, 14
6, 18544, Control_c, 4, 1, 13
6, 18546, Control_c, 4, 1, 12
6, 18546, Control_c, 4, 1, 11
6, 18547, Control_c, 4, 1, 10
6, 18547, Control_c, 4, 1, 9
6, 18548, Control_c, 4, 1, 8
6, 18550, Control_c, 4, 1, 5
6, 18550, Control_c, 4, 1, 6
6, 18550, Control_c, 4, 1, 7
6, 18551, Control_c, 4, 1, 4
6, 18552, Control_c, 4, 1, 3
6, 18554, Control_c, 4, 1, 2
6, 18555, Control_c, 4, 1, 1
6, 18574, Control_c, 4, 1, 0
6, 18599, Note_on_c, 4, 74, 54
6, 18601, Note_on_c, 4, 71, 59
6, 18603, Note_on_c, 4, 73, 0
6, 18611, Note_on_c, 4, 69, 0
6, 18648, Control_c, 4, 1, 2
6, 18648, Control_c, 4, 1, 1
6, 18649, Control_c, 4, 1, 3
6, 18650, Control_c, 4, 1, 4
6, 18652, Control_c, 4, 1, 5
6, 18652, Control_c, 4, 1, 6
6, 18652, Control_c, 4, 1, 7
6, 18653, Control_c, 4, 1, 8
6, 18655, Control_c, 4, 1, 10
6, 18655, Control_c, 4, 1, 9
6, 18656, Control_c, 4, 1, 11
6, 18657, Control_c, 4, 1, 12
6, 18659, Control_c, 4, 1, 13
6, 18661, Control_c, 4, 1, 14
6, 18663, Control_c, 4, 1, 15
6, 18664, Control_c, 4, 1, 16
6, 18666, Control_c, 4, 1, 17
6, 18668, Control_c, 4, 1, 18
6, 18671, Control_c, 4, 1, 19
6, 18690, Control_c, 4, 1, 18
6, 18696, Control_c, 4, 1, 17
6, 18699, Control_c, 4, 1, 16
6, 18700, Control_c, 4, 1, 15
6, 18703, Control_c, 4, 1, 14
6, 18704, Control_c, 4, 1, 13
6, 18707, Control_c, 4, 1, 12
6, 18708, Control_c, 4, 1, 11
6, 18712, Control_c, 4, 1, 10
6, 18717, Control_c, 4, 1, 9
6, 18754, Control_c, 4, 1, 8
6, 18757, Control_c, 4, 1, 7
6, 18759, Control_c, 4, 1, 6
6, 18762, Control_c, 4, 1, 5
6, 18765, Control_c, 4, 1, 4
6, 18768, Control_c, 4, 1, 3
6, 18772, Control_c, 4, 1, 2
6, 18776, Control_c, 4, 1, 1
6, 18806, Control_c, 4, 1, 0
6, 18838, Note_on_c, 4, 71, 0
6, 18839, Note_on_c, 4, 74, 0
6, 19080, Note_on_c, 4, 81, 46
6, 19092, Note_on_c, 4, 78, 37
6, 19092, Note_on_c, 4, 81, 0
6, 19106, Note_on_c, 4, 78, 0
6, 19108, Note_on_c, 4, 81, 43
6, 19121, Note_on_c, 4, 78, 42
6, 19123, Note_on_c, 4, 81, 0
6, 19136, Note_on_c, 4, 81, 46
6, 19136, Note_on_c, 4, 78, 0
6, 19149, Note_on_c, 4, 78, 45
6, 19151, Note_on_c, 4, 81, 0
6, 19164, Note_on_c, 4, 81, 43
6, 19164, Note_on_c, 4, 78, 0
6, 19177, Note_on_c, 4, 78, 43
6, 19179, Note_on_c, 4, 81, 0
6, 19193, Note_on_c, 4, 81, 46
6, 19193, Note_on_c, 4, 78, 0
6, 19208, Note_on_c, 4, 78, 42
6, 19208, Note_on_c, 4, 81, 0
6, 19223, Note_on_c, 4, 78, 0
6, 19223, Note_on_c, 4, 81, 45
6, 19239, Note_on_c, 4, 81, 0
6, 19239, Note_on_c, 4, 78, 40
6, 19254, Note_on_c, 4, 81, 48
6, 19254, Note_on_c, 4, 78, 0
6, 19267, Note_on_c, 4, 78, 43
6, 19267, Note_on_c, 4, 81, 0
6, 19283, Note_on_c, 4, 81, 46
6, 19284, Note_on_c, 4, 78, 0
6, 19297, Note_on_c, 4, 81, 0
6, 19298, Note_on_c, 4, 78, 40
6, 19315, Note_on_c, 4, 81, 47
6, 19315, Note_on_c, 4, 78, 0
6, 19331, Note_on_c, 4, 78, 40
6, 19331, Note_on_c, 4, 81, 0
6, 19347, Note_on_c, 4, 81, 47
6, 19347, Note_on_c, 4, 78, 0
6, 19362, Note_on_c, 4, 78, 43
6, 19362, Note_on_c, 4, 81, 0
6, 19379, Note_on_c, 4, 78, 0
6, 19379, Note_on_c, 4, 81, 42
6, 19394, Note_on_c, 4, 78, 38
6, 19394, Note_on_c, 4, 81, 0
6, 19409, Note_on_c, 4, 81, 46
6, 19410, Note_on_c, 4, 78, 0
6, 19424, Note_on_c, 4, 81, 0
6, 19424, Note_on_c, 4, 78, 41
6, 19440, Note_on_c, 4, 81, 48
6, 19442, Note_on_c, 4, 78, 0
6, 19455, Note_on_c, 4, 78, 40
6, 19456, Note_on_c, 4, 81, 0
6, 19470, Note_on_c, 4, 78, 0
6, 19470, Note_on_c, 4, 81, 45
6, 19483, Note_on_c, 4, 78, 40
6, 19483, Note_on_c, 4, 81, 0
6, 19500, Note_on_c, 4, 78, 0
6, 19500, Note_on_c, 4, 81, 43
6, 19514, Note_on_c, 4, 81, 0
6, 19514, Note_on_c, 4, 78, 39
6, 19531, Note_on_c, 4, 78, 0
6, 19531, Note_on_c, 4, 81, 41
6, 19544, Note_on_c, 4, 81, 0
6, 19545, Note_on_c, 4, 78, 40
6, 19561, Note_on_c, 4, 81, 45
6, 19561, Note_on_c, 4, 78, 0
6, 19574, Note_on_c, 4, 81, 0
6, 19574, Note_on_c, 4, 78, 41
6, 19589, Note_on_c, 4, 81, 48
6, 19591, Note_on_c, 4, 78, 0
6, 19603, Note_on_c, 4, 81, 0
6, 19604, Note_on_c, 4, 78, 38
6, 19619, Note_on_c, 4, 81, 46
6, 19620, Note_on_c, 4, 78, 0
6, 19634, Note_on_c, 4, 78, 40
6, 19634, Note_on_c, 4, 81, 0
6, 19649, Note_on_c, 4, 78, 0
6, 19649, Note_on_c, 4, 81, 43
6, 19663, Note_on_c, 4, 78, 41
6, 19663, Note_on_c, 4, 81, 0
6, 19678, Note_on_c, 4, 78, 0
6, 19678, Note_on_c, 4, 81, 47
6, 19692, Note_on_c, 4, 81, 0
6, 19692, Note_on_c, 4, 78, 40
6, 19707, Note_on_c, 4, 81, 43
6, 19707, Note_on_c, 4, 78, 0
6, 19722, Note_on_c, 4, 78, 38
6, 19722, Note_on_c, 4, 81, 0
6, 19738, Note_on_c, 4, 81, 41
6, 19740, Note_on_c, 4, 78, 0
6, 19752, Note_on_c, 4, 78, 42
6, 19753, Note_on_c, 4, 81, 0
6, 19769, Note_on_c, 4, 81, 46
6, 19771, Note_on_c, 4, 78, 0
6, 19784, Note_on_c, 4, 78, 40
6, 19784, Note_on_c, 4, 81, 0
6, 19799, Note_on_c, 4, 78, 0
6, 19799, Note_on_c, 4, 81, 39
6, 19812, Note_on_c, 4, 81, 0
6, 19812, Note_on_c, 4, 78, 42
6, 19828, Note_on_c, 4, 81, 46
6, 19830, Note_on_c, 4, 78, 0
6, 19843, Note_on_c, 4, 81, 0
6, 19843, Note_on_c, 4, 78, 42
6, 19859, Note_on_c, 4, 78, 0
6, 19859, Note_on_c, 4, 81, 41
6, 19873, Note_on_c, 4, 78, 40
6, 19874, Note_on_c, 4, 81, 0
6, 19890, Note_on_c, 4, 81, 46
6, 19891, Note_on_c, 4, 78, 0
6, 19905, Note_on_c, 4, 78, 39
6, 19906, Note_on_c, 4, 81, 0
6, 19921, Note_on_c, 4, 81, 46
6, 19921, Note_on_c, 4, 78, 0
6, 19933, Note_on_c, 4, 78, 43
6, 19933, Note_on_c, 4, 81, 0
6, 19949, Note_on_c, 4, 81, 46
6, 19950, Note_on_c, 4, 78, 0
6, 19964, Note_on_c, 4, 78, 37
6, 19964, Note_on_c, 4, 81, 0
6, 19979, Note_on_c, 4, 81, 46
6, 19982, Note_on_c, 4, 78, 0
6, 19994, Note_on_c, 4, 78, 38
6, 19994, Note_on_c, 4, 81, 0
6, 20009, Note_on_c, 4, 81, 46
6, 20011, Note_on_c, 4, 78, 0
6, 20023, Note_on_c, 4, 81, 0
6, 20024, Note_on_c, 4, 78, 40
6, 20040, Note_on_c, 4, 80, 45
6, 20042, Note_on_c, 4, 78, 0
6, 20054, Note_on_c, 4, 80, 0
6, 20055, Note_on_c, 4, 76, 46
6, 20066, Note_on_c, 4, 76, 0
6, 20069, Note_on_c, 4, 80, 40
6, 20084, Note_on_c, 4, 80, 0
6, 20085, Note_on_c, 4, 76, 37
6, 20100, Note_on_c, 4, 76, 0
6, 20101, Note_on_c, 4, 80, 37
6, 20116, Note_on_c, 4, 80, 0
6, 20117, Note_on_c, 4, 76, 41
6, 20129, Note_on_c, 4, 76, 0
6, 20131, Note_on_c, 4, 80, 43
6, 20147, Note_on_c, 4, 76, 44
6, 20149, Note_on_c, 4, 80, 0
6, 20161, Note_on_c, 4, 76, 0
6, 20162, Note_on_c, 4, 80, 48
6, 20175, Note_on_c, 4, 76, 44
6, 20178, Note_on_c, 4, 80, 0
6, 20191, Note_on_c, 4, 80, 42
6, 20193, Note_on_c, 4, 76, 0
6, 20205, Note_on_c, 4, 80, 0
6, 20206, Note_on_c, 4, 76, 42
6, 20219, Note_on_c, 4, 76, 0
6, 20221, Note_on_c, 4, 80, 42
6, 20234, Note_on_c, 4, 76, 42
6, 20234, Note_on_c, 4, 80, 0
6, 20249, Note_on_c, 4, 76, 0
6, 20250, Note_on_c, 4, 80, 40
6, 20265, Note_on_c, 4, 80, 0
6, 20265, Note_on_c, 4, 76, 38
6, 20280, Note_on_c, 4, 76, 0
6, 20280, Note_on_c, 4, 80, 44
6, 20296, Note_on_c, 4, 80, 0
6, 20296, Note_on_c, 4, 76, 42
6, 20311, Note_on_c, 4, 80, 46
6, 20311, Note_on_c, 4, 76, 0
6, 20325, Note_on_c, 4, 80, 0
6, 20326, Note_on_c, 4, 76, 46
6, 20339, Note_on_c, 4, 76, 0
6, 20341, Note_on_c, 4, 80, 41
6, 20355, Note_on_c, 4, 80, 0
6, 20356, Note_on_c, 4, 76, 42
6, 20365, Note_on_c, 4, 76, 0
6, 20368, Note_on_c, 4, 80, 47
6, 20382, Note_on_c, 4, 80, 0
6, 20383, Note_on_c, 4, 76, 46
6, 20399, Note_on_c, 4, 80, 44
6, 20400, Note_on_c, 4, 76, 0
6, 20413, Note_on_c, 4, 80, 0
6, 20414, Note_on_c, 4, 76, 43
6, 20427, Note_on_c, 4, 80, 44
6, 20427, Note_on_c, 4, 76, 0
6, 20443, Note_on_c, 4, 80, 0
6, 20444, Note_on_c, 4, 76, 40
6, 20461, Note_on_c, 4, 76, 0
6, 20462, Note_on_c, 4, 80, 43
6, 20473, Note_on_c, 4, 80, 0
6, 20476, Note_on_c, 4, 76, 40
6, 20486, Note_on_c, 4, 76, 0
6, 20489, Note_on_c, 4, 80, 44
6, 20502, Note_on_c, 4, 80, 0
6, 20504, Note_on_c, 4, 76, 38
6, 20514, Note_on_c, 4, 76, 0
6, 20522, Note_on_c, 4, 79, 34
6, 20533, Note_on_c, 4, 79, 0
6, 20535, Note_on_c, 4, 76, 39
6, 20546, Note_on_c, 4, 76, 0
6, 20548, Note_on_c, 4, 79, 41
6, 20561, Note_on_c, 4, 79, 0
6, 20563, Note_on_c, 4, 76, 40
6, 20575, Note_on_c, 4, 76, 0
6, 20578, Note_on_c, 4, 79, 41
6, 20591, Note_on_c, 4, 79, 0
6, 20592, Note_on_c, 4, 76, 40
6, 20604, Note_on_c, 4, 76, 0
6, 20607, Note_on_c, 4, 79, 43
6, 20621, Note_on_c, 4, 76, 32
6, 20622, Note_on_c, 4, 79, 0
6, 20635, Note_on_c, 4, 76, 0
6, 20636, Note_on_c, 4, 79, 43
6, 20649, Note_on_c, 4, 79, 0
6, 20650, Note_on_c, 4, 76, 41
6, 20665, Note_on_c, 4, 76, 0
6, 20665, Note_on_c, 4, 79, 40
6, 20681, Note_on_c, 4, 76, 44
6, 20684, Note_on_c, 4, 79, 0
6, 20697, Note_on_c, 4, 79, 41
6, 20697, Note_on_c, 4, 76, 0
6, 20712, Note_on_c, 4, 76, 38
6, 20713, Note_on_c, 4, 79, 0
6, 20727, Note_on_c, 4, 76, 0
6, 20728, Note_on_c, 4, 79, 46
6, 20742, Note_on_c, 4, 76, 42
6, 20743, Note_on_c, 4, 79, 0
6, 20755, Note_on_c, 4, 76, 0
6, 21000, Note_on_c, 4, 78, 45
6, 21015, Note_on_c, 4, 74, 39
6, 21017, Note_on_c, 4, 78, 0
6, 21029, Note_on_c, 4, 74, 0
6, 21030, Note_on_c, 4, 78, 37
6, 21044, Note_on_c, 4, 74, 43
6, 21046, Note_on_c, 4, 78, 0
6, 21058, Note_on_c, 4, 74, 0
6, 21061, Note_on_c, 4, 78, 40
6, 21072, Note_on_c, 4, 78, 0
6, 21074, Note_on_c, 4, 74, 45
6, 21088, Note_on_c, 4, 78, 46
6, 21088, Note_on_c, 4, 74, 0
6, 21103, Note_on_c, 4, 74, 44
6, 21103, Note_on_c, 4, 78, 0
6, 21118, Note_on_c, 4, 74, 0
6, 21119, Note_on_c, 4, 78, 43
6, 21132, Note_on_c, 4, 74, 40
6, 21132, Note_on_c, 4, 78, 0
6, 21146, Note_on_c, 4, 74, 0
6, 21147, Note_on_c, 4, 78, 43
6, 21162, Note_on_c, 4, 78, 0
6, 21163, Note_on_c, 4, 74, 44
6, 21174, Note_on_c, 4, 74, 0
6, 21178, Note_on_c, 4, 78, 43
6, 21192, Note_on_c, 4, 78, 0
6, 21192, Note_on_c, 4, 74, 45
6, 21207, Note_on_c, 4, 78, 43
6, 21209, Note_on_c, 4, 74, 0
6, 21222, Note_on_c, 4, 74, 45
6, 21222, Note_on_c, 4, 78, 0
6, 21237, Note_on_c, 4, 78, 47
6, 21239, Note_on_c, 4, 74, 0
6, 21252, Note_on_c, 4, 74, 44
6, 21253, Note_on_c, 4, 78, 0
6, 21266, Note_on_c, 4, 78, 41
6, 21268, Note_on_c, 4, 74, 0
6, 21282, Note_on_c, 4, 74, 45
6, 21282, Note_on_c, 4, 78, 0
6, 21296, Note_on_c, 4, 78, 41
6, 21298, Note_on_c, 4, 74, 0
6, 21312, Note_on_c, 4, 78, 0
6, 21312, Note_on_c, 4, 74, 42
6, 21325, Note_on_c, 4, 78, 42
6, 21330, Note_on_c, 4, 74, 0
6, 21340, Note_on_c, 4, 74, 46
6, 21342, Note_on_c, 4, 78, 0
6, 21358, Note_on_c, 4, 78, 46
6, 21359, Note_on_c, 4, 74, 0
6, 21373, Note_on_c, 4, 78, 0
6, 21374, Note_on_c, 4, 74, 42
6, 21389, Note_on_c, 4, 78, 44
6, 21391, Note_on_c, 4, 74, 0
6, 21404, Note_on_c, 4, 74, 43
6, 21404, Note_on_c, 4, 78, 0
6, 21419, Note_on_c, 4, 78, 47
6, 21422, Note_on_c, 4, 74, 0
6, 21431, Note_on_c, 4, 74, 42
6, 21435, Note_on_c, 4, 78, 0
6, 21448, Note_on_c, 4, 78, 44
6, 21452, Note_on_c, 4, 74, 0
6, 21466, Note_on_c, 4, 74, 48
6, 21466, Note_on_c, 4, 78, 0
6, 21480, Note_on_c, 4, 78, 41
6, 21481, Note_on_c, 4, 74, 0
6, 21496, Note_on_c, 4, 78, 0
6, 21496, Note_on_c, 4, 74, 43
6, 21510, Note_on_c, 4, 78, 42
6, 21510, Note_on_c, 4, 74, 0
6, 21525, Note_on_c, 4, 78, 0
6, 21525, Note_on_c, 4, 74, 44
6, 21538, Note_on_c, 4, 78, 44
6, 21540, Note_on_c, 4, 74, 0
6, 21553, Note_on_c, 4, 78, 0
6, 21555, Note_on_c, 4, 74, 45
6, 21568, Note_on_c, 4, 74, 0
6, 21568, Note_on_c, 4, 78, 44
6, 21582, Note_on_c, 4, 78, 0
6, 21584, Note_on_c, 4, 74, 46
6, 21598, Note_on_c, 4, 78, 44
6, 21601, Note_on_c, 4, 74, 0
6, 21612, Note_on_c, 4, 78, 0
6, 21612, Note_on_c, 4, 74, 37
6, 21628, Note_on_c, 4, 74, 0
6, 21628, Note_on_c, 4, 78, 44
6, 21643, Note_on_c, 4, 74, 44
6, 21644, Note_on_c, 4, 78, 0
6, 21658, Note_on_c, 4, 78, 44
6, 21660, Note_on_c, 4, 74, 0
6, 21674, Note_on_c, 4, 74, 44
6, 21674, Note_on_c, 4, 78, 0
6, 21690, Note_on_c, 4, 78, 38
6, 21691, Note_on_c, 4, 74, 0
6, 21706, Note_on_c, 4, 74, 44
6, 21706, Note_on_c, 4, 78, 0
6, 21721, Note_on_c, 4, 78, 44
6, 21722, Note_on_c, 4, 74, 0
6, 21735, Note_on_c, 4, 78, 0
6, 21736, Note_on_c, 4, 74, 43
6, 21749, Note_on_c, 4, 78, 43
6, 21751, Note_on_c, 4, 74, 0
6, 21764, Note_on_c, 4, 74, 44
6, 21767, Note_on_c, 4, 78, 0
6, 21779, Note_on_c, 4, 78, 45
6, 21781, Note_on_c, 4, 74, 0
6, 21795, Note_on_c, 4, 78, 0
6, 21795, Note_on_c, 4, 74, 43
6, 21810, Note_on_c, 4, 74, 0
6, 21810, Note_on_c, 4, 78, 41
6, 21826, Note_on_c, 4, 74, 45
6, 21826, Note_on_c, 4, 78, 0
6, 21839, Note_on_c, 4, 78, 44
6, 21840, Note_on_c, 4, 74, 0
6, 21854, Note_on_c, 4, 74, 46
6, 21855, Note_on_c, 4, 78, 0
6, 21868, Note_on_c, 4, 78, 40
6, 21870, Note_on_c, 4, 74, 0
6, 21884, Note_on_c, 4, 74, 31
6, 21885, Note_on_c, 4, 78, 0
6, 21900, Note_on_c, 4, 78, 44
6, 21903, Note_on_c, 4, 74, 0
6, 21914, Note_on_c, 4, 74, 42
6, 21916, Note_on_c, 4, 78, 0
6, 21929, Note_on_c, 4, 74, 0
6, 21929, Note_on_c, 4, 78, 44
6, 21944, Note_on_c, 4, 78, 0
6, 21945, Note_on_c, 4, 74, 43
6, 21961, Note_on_c, 4, 74, 0
6, 21962, Note_on_c, 4, 79, 46
6, 21977, Note_on_c, 4, 79, 0
6, 21978, Note_on_c, 4, 76, 41
6, 21989, Note_on_c, 4, 76, 0
6, 21991, Note_on_c, 4, 79, 46
6, 22006, Note_on_c, 4, 76, 44
6, 22006, Note_on_c, 4, 79, 0
6, 22019, Note_on_c, 4, 79, 47
6, 22020, Note_on_c, 4, 76, 0
6, 22034, Note_on_c, 4, 76, 45
6, 22034, Note_on_c, 4, 79, 0
6, 22050, Note_on_c, 4, 76, 0
6, 22050, Note_on_c, 4, 79, 44
6, 22063, Note_on_c, 4, 79, 0
6, 22064, Note_on_c, 4, 76, 46
6, 22078, Note_on_c, 4, 79, 46
6, 22080, Note_on_c, 4, 76, 0
6, 22091, Note_on_c, 4, 76, 40
6, 22092, Note_on_c, 4, 79, 0
6, 22107, Note_on_c, 4, 79, 46
6, 22108, Note_on_c, 4, 76, 0
6, 22121, Note_on_c, 4, 79, 0
6, 22122, Note_on_c, 4, 76, 38
6, 22138, Note_on_c, 4, 79, 44
6, 22140, Note_on_c, 4, 76, 0
6, 22152, Note_on_c, 4, 76, 36
6, 22152, Note_on_c, 4, 79, 0
6, 22168, Note_on_c, 4, 79, 43
6, 22172, Note_on_c, 4, 76, 0
6, 22185, Note_on_c, 4, 76, 11
6, 22186, Note_on_c, 4, 79, 0
6, 22203, Note_on_c, 4, 79, 46
6, 22205, Note_on_c, 4, 76, 0
6, 22217, Note_on_c, 4, 76, 41
6, 22218, Note_on_c, 4, 79, 0
6, 22230, Note_on_c, 4, 76, 0
6, 22230, Note_on_c, 4, 79, 40
6, 22245, Note_on_c, 4, 76, 31
6, 22246, Note_on_c, 4, 79, 0
6, 22260, Note_on_c, 4, 79, 43
6, 22263, Note_on_c, 4, 76, 0
6, 22274, Note_on_c, 4, 76, 37
6, 22275, Note_on_c, 4, 79, 0
6, 22289, Note_on_c, 4, 76, 0
6, 22289, Note_on_c, 4, 79, 44
6, 22303, Note_on_c, 4, 79, 0
6, 22304, Note_on_c, 4, 76, 43
6, 22318, Note_on_c, 4, 79, 43
6, 22320, Note_on_c, 4, 76, 0
6, 22332, Note_on_c, 4, 79, 0
6, 22333, Note_on_c, 4, 76, 40
6, 22347, Note_on_c, 4, 79, 41
6, 22350, Note_on_c, 4, 76, 0
6, 22361, Note_on_c, 4, 76, 39
6, 22363, Note_on_c, 4, 79, 0
6, 22379, Note_on_c, 4, 79, 44
6, 22379, Note_on_c, 4, 76, 0
6, 22392, Note_on_c, 4, 79, 0
6, 22394, Note_on_c, 4, 76, 41
6, 22405, Note_on_c, 4, 76, 0
6, 22407, Note_on_c, 4, 79, 48
6, 22417, Note_on_c, 4, 79, 0
6, 22422, Note_on_c, 4, 76, 8
6, 22438, Note_on_c, 4, 76, 0
6, 22438, Note_on_c, 4, 78, 33
6, 22455, Note_on_c, 4, 74, 42
6, 22457, Note_on_c, 4, 78, 0
6, 22469, Note_on_c, 4, 78, 47
6, 22471, Note_on_c, 4, 74, 0
6, 22485, Note_on_c, 4, 74, 46
6, 22487, Note_on_c, 4, 78, 0
6, 22500, Note_on_c, 4, 78, 46
6, 22502, Note_on_c, 4, 74, 0
6, 22515, Note_on_c, 4, 74, 42
6, 22517, Note_on_c, 4, 78, 0
6, 22529, Note_on_c, 4, 78, 41
6, 22530, Note_on_c, 4, 74, 0
6, 22544, Note_on_c, 4, 74, 41
6, 22546, Note_on_c, 4, 78, 0
6, 22561, Note_on_c, 4, 78, 42
6, 22564, Note_on_c, 4, 74, 0
6, 22577, Note_on_c, 4, 74, 39
6, 22579, Note_on_c, 4, 78, 0
6, 22591, Note_on_c, 4, 78, 46
6, 22592, Note_on_c, 4, 74, 0
6, 22605, Note_on_c, 4, 74, 33
6, 22608, Note_on_c, 4, 78, 0
6, 22621, Note_on_c, 4, 78, 37
6, 22623, Note_on_c, 4, 74, 0
6, 22637, Note_on_c, 4, 78, 0
6, 22637, Note_on_c, 4, 74, 42
6, 22651, Note_on_c, 4, 78, 46
6, 22654, Note_on_c, 4, 74, 0
6, 22667, Note_on_c, 4, 74, 43
6, 22669, Note_on_c, 4, 78, 0
6, 22686, Note_on_c, 4, 74, 0
6, 24840, Note_on_c, 4, 78, 52
6, 24840, Note_on_c, 4, 74, 54
6, 24850, Control_c, 4, 1, 1
6, 24850, Control_c, 4, 1, 2
6, 24851, Control_c, 4, 1, 5
6, 24851, Control_c, 4, 1, 4
6, 24851, Control_c, 4, 1, 3
6, 24852, Control_c, 4, 1, 6
6, 24852, Control_c, 4, 1, 7
6, 24854, Control_c, 4, 1, 8
6, 24855, Control_c, 4, 1, 11
6, 24855, Control_c, 4, 1, 9
6, 24855, Control_c, 4, 1, 10
6, 24857, Control_c, 4, 1, 12
6, 24858, Control_c, 4, 1, 13
6, 24859, Control_c, 4, 1, 14
6, 24861, Control_c, 4, 1, 15
6, 24862, Control_c, 4, 1, 16
6, 24865, Control_c, 4, 1, 17
6, 24870, Control_c, 4, 1, 18
6, 24905, Control_c, 4, 1, 19
6, 24908, Control_c, 4, 1, 22
6, 24908, Control_c, 4, 1, 21
6, 24908, Control_c, 4, 1, 20
6, 24909, Control_c, 4, 1, 23
6, 24909, Control_c, 4, 1, 24
6, 24910, Control_c, 4, 1, 26
6, 24910, Control_c, 4, 1, 25
6, 24912, Control_c, 4, 1, 27
6, 24912, Control_c, 4, 1, 28
6, 24912, Control_c, 4, 1, 30
6, 24912, Control_c, 4, 1, 29
6, 24913, Control_c, 4, 1, 33
6, 24913, Control_c, 4, 1, 31
6, 24913, Control_c, 4, 1, 32
6, 24915, Control_c, 4, 1, 34
6, 24915, Control_c, 4, 1, 35
6, 24916, Control_c, 4, 1, 36
6, 24916, Control_c, 4, 1, 37
6, 24917, Control_c, 4, 1, 38
6, 24919, Control_c, 4, 1, 40
6, 24919, Control_c, 4, 1, 39
6, 24920, Control_c, 4, 1, 41
6, 24928, Control_c, 4, 1, 40
6, 24930, Control_c, 4, 1, 39
6, 24930, Control_c, 4, 1, 38
6, 24932, Control_c, 4, 1, 37
6, 24932, Control_c, 4, 1, 36
6, 24934, Control_c, 4, 1, 35
6, 24935, Control_c, 4, 1, 34
6, 24937, Control_c, 4, 1, 33
6, 24939, Control_c, 4, 1, 32
6, 24950, Control_c, 4, 1, 31
6, 24952, Control_c, 4, 1, 30
6, 24955, Control_c, 4, 1, 29
6, 24957, Control_c, 4, 1, 28
6, 24959, Control_c, 4, 1, 27
6, 24961, Control_c, 4, 1, 26
6, 24963, Control_c, 4, 1, 25
6, 24964, Control_c, 4, 1, 24
6, 24966, Control_c, 4, 1, 23
6, 24967, Control_c, 4, 1, 22
6, 24968, Control_c, 4, 1, 21
6, 24968, Control_c, 4, 1, 20
6, 24970, Control_c, 4, 1, 19
6, 24971, Control_c, 4, 1, 17
6, 24971, Control_c, 4, 1, 18
6, 24972, Control_c, 4, 1, 16
6, 24972, Control_c, 4, 1, 15
6, 24974, Control_c, 4, 1, 13
6, 24974, Control_c, 4, 1, 14
6, 24975, Control_c, 4, 1, 11
6, 24975, Control_c, 4, 1, 12
6, 24975, Control_c, 4, 1, 10
6, 24977, Control_c, 4, 1, 8
6, 24977, Control_c, 4, 1, 9
6, 24978, Control_c, 4, 1, 5
6, 24978, Control_c, 4, 1, 6
6, 24978, Control_c, 4, 1, 7
6, 24979, Control_c, 4, 1, 4
6, 24981, Control_c, 4, 1, 3
6, 24982, Control_c, 4, 1, 2
6, 24985, Control_c, 4, 1, 1
6, 25078, Note_on_c, 4, 73, 48
6, 25079, Note_on_c, 4, 77, 54
6, 25079, Note_on_c, 4, 78, 0
6, 25084, Note_on_c, 4, 74, 0
6, 25099, Control_c, 4, 1, 2
6, 25105, Control_c, 4, 1, 3
6, 25108, Control_c, 4, 1, 4
6, 25109, Control_c, 4, 1, 5
6, 25110, Control_c, 4, 1, 7
6, 25110, Control_c, 4, 1, 6
6, 25112, Control_c, 4, 1, 8
6, 25113, Control_c, 4, 1, 9
6, 25115, Control_c, 4, 1, 10
6, 25116, Control_c, 4, 1, 12
6, 25116, Control_c, 4, 1, 11
6, 25119, Control_c, 4, 1, 13
6, 25120, Control_c, 4, 1, 15
6, 25120, Control_c, 4, 1, 14
6, 25123, Control_c, 4, 1, 16
6, 25124, Control_c, 4, 1, 17
6, 25128, Control_c, 4, 1, 18
6, 25134, Control_c, 4, 1, 19
6, 25145, Control_c, 4, 1, 20
6, 25168, Control_c, 4, 1, 19
6, 25173, Control_c, 4, 1, 18
6, 25179, Control_c, 4, 1, 17
6, 25213, Control_c, 4, 1, 19
6, 25213, Control_c, 4, 1, 18
6, 25214, Control_c, 4, 1, 20
6, 25215, Control_c, 4, 1, 22
6, 25215, Control_c, 4, 1, 21
6, 25217, Control_c, 4, 1, 23
6, 25218, Control_c, 4, 1, 24
6, 25219, Control_c, 4, 1, 25
6, 25221, Control_c, 4, 1, 26
6, 25222, Control_c, 4, 1, 27
6, 25225, Control_c, 4, 1, 28
6, 25244, Control_c, 4, 1, 27
6, 25247, Control_c, 4, 1, 26
6, 25248, Control_c, 4, 1, 24
6, 25248, Control_c, 4, 1, 25
6, 25250, Control_c, 4, 1, 23
6, 25250, Control_c, 4, 1, 22
6, 25251, Control_c, 4, 1, 21
6, 25251, Control_c, 4, 1, 20
6, 25251, Control_c, 4, 1, 19
6, 25253, Control_c, 4, 1, 17
6, 25253, Control_c, 4, 1, 18
6, 25254, Control_c, 4, 1, 16
6, 25254, Control_c, 4, 1, 15
6, 25255, Control_c, 4, 1, 12
6, 25255, Control_c, 4, 1, 11
6, 25255, Control_c, 4, 1, 13
6, 25255, Control_c, 4, 1, 10
6, 25255, Control_c, 4, 1, 14
6, 25258, Control_c, 4, 1, 6
6, 25258, Control_c, 4, 1, 7
6, 25258, Control_c, 4, 1, 5
6, 25258, Control_c, 4, 1, 8
6, 25258, Control_c, 4, 1, 9
6, 25260, Control_c, 4, 1, 4
6, 25261, Control_c, 4, 1, 2
6, 25261, Control_c, 4, 1, 3
6, 25262, Control_c, 4, 1, 1
6, 25277, Control_c, 4, 1, 0
6, 25315, Note_on_c, 4, 77, 0
6, 25318, Note_on_c, 4, 73, 0
6, 25319, Note_on_c, 4, 72, 54
6, 25319, Note_on_c, 4, 76, 53
6, 25331, Control_c, 4, 1, 1
6, 25341, Control_c, 4, 1, 2
6, 25362, Control_c, 4, 1, 3
6, 25364, Control_c, 4, 1, 4
6, 25366, Control_c, 4, 1, 5
6, 25367, Control_c, 4, 1, 6
6, 25369, Control_c, 4, 1, 7
6, 25369, Control_c, 4, 1, 8
6, 25370, Control_c, 4, 1, 9
6, 25371, Control_c, 4, 1, 11
6, 25371, Control_c, 4, 1, 10
6, 25373, Control_c, 4, 1, 12
6, 25384, Control_c, 4, 1, 11
6, 25385, Control_c, 4, 1, 10
6, 25388, Control_c, 4, 1, 9
6, 25391, Control_c, 4, 1, 8
6, 25393, Control_c, 4, 1, 7
6, 25396, Control_c, 4, 1, 6
6, 25399, Control_c, 4, 1, 5
6, 25400, Control_c, 4, 1, 4
6, 25402, Control_c, 4, 1, 3
6, 25403, Control_c, 4, 1, 2
6, 25404, Control_c, 4, 1, 1
6, 25424, Control_c, 4, 1, 0
6, 25438, Note_on_c, 4, 74, 57
6, 25439, Note_on_c, 4, 71, 54
6, 25439, Note_on_c, 4, 72, 0
6, 25442, Note_on_c, 4, 76, 0
6, 25522, Note_on_c, 4, 71, 0
6, 25559, Note_on_c, 4, 71, 55
6, 25559, Note_on_c, 4, 66, 34
6, 25569, Note_on_c, 4, 74, 0
6, 25599, Control_c, 4, 1, 1
6, 25600, Control_c, 4, 1, 3
6, 25600, Control_c, 4, 1, 2
6, 25602, Control_c, 4, 1, 4
6, 25603, Control_c, 4, 1, 5
6, 25605, Control_c, 4, 1, 6
6, 25606, Control_c, 4, 1, 7
6, 25607, Control_c, 4, 1, 8
6, 25609, Control_c, 4, 1, 9
6, 25611, Control_c, 4, 1, 10
6, 25614, Control_c, 4, 1, 11
6, 25616, Control_c, 4, 1, 12
6, 25618, Control_c, 4, 1, 13
6, 25621, Control_c, 4, 1, 14
6, 25622, Control_c, 4, 1, 15
6, 25625, Control_c, 4, 1, 16
6, 25627, Control_c, 4, 1, 17
6, 25631, Control_c, 4, 1, 18
6, 25635, Control_c, 4, 1, 19
6, 25668, Control_c, 4, 1, 18
6, 25671, Control_c, 4, 1, 17
6, 25674, Control_c, 4, 1, 16
6, 25680, Control_c, 4, 1, 15
6, 25702, Control_c, 4, 1, 14
6, 25704, Control_c, 4, 1, 13
6, 25705, Control_c, 4, 1, 12
6, 25708, Control_c, 4, 1, 11
6, 25708, Control_c, 4, 1, 10
6, 25709, Control_c, 4, 1, 9
6, 25711, Control_c, 4, 1, 8
6, 25712, Control_c, 4, 1, 6
6, 25712, Control_c, 4, 1, 5
6, 25712, Control_c, 4, 1, 7
6, 25714, Control_c, 4, 1, 4
6, 25715, Control_c, 4, 1, 3
6, 25716, Control_c, 4, 1, 2
6, 25718, Control_c, 4, 1, 1
6, 25726, Control_c, 4, 1, 0
6, 25752, Note_on_c, 4, 66, 0
6, 25755, Note_on_c, 4, 71, 0
6, 25859, Note_on_c, 4, 71, 54
6, 25859, Note_on_c, 4, 74, 60
6, 25915, Note_on_c, 4, 74, 0
6, 25919, Note_on_c, 4, 73, 52
6, 25919, Note_on_c, 4, 76, 56
6, 25923, Note_on_c, 4, 71, 0
6, 25974, Note_on_c, 4, 73, 0
6, 25976, Note_on_c, 4, 76, 0
6, 25978, Note_on_c, 4, 74, 72
6, 25978, Note_on_c, 4, 78, 54
6, 26023, Note_on_c, 4, 74, 0
6, 26040, Note_on_c, 4, 73, 53
6, 26040, Note_on_c, 4, 69, 45
6, 26044, Note_on_c, 4, 78, 0
6, 26169, Control_c, 4, 1, 1
6, 26170, Control_c, 4, 1, 2
6, 26170, Control_c, 4, 1, 3
6, 26172, Control_c, 4, 1, 4
6, 26172, Control_c, 4, 1, 5
6, 26173, Control_c, 4, 1, 6
6, 26173, Control_c, 4, 1, 7
6, 26174, Control_c, 4, 1, 8
6, 26174, Control_c, 4, 1, 9
6, 26176, Control_c, 4, 1, 10
6, 26177, Control_c, 4, 1, 12
6, 26177, Control_c, 4, 1, 11
6, 26179, Control_c, 4, 1, 13
6, 26180, Control_c, 4, 1, 14
6, 26181, Control_c, 4, 1, 15
6, 26181, Control_c, 4, 1, 16
6, 26183, Control_c, 4, 1, 17
6, 26184, Control_c, 4, 1, 18
6, 26185, Control_c, 4, 1, 19
6, 26187, Control_c, 4, 1, 22
6, 26187, Control_c, 4, 1, 20
6, 26187, Control_c, 4, 1, 21
6, 26188, Control_c, 4, 1, 23
6, 26190, Control_c, 4, 1, 25
6, 26190, Control_c, 4, 1, 24
6, 26191, Control_c, 4, 1, 26
6, 26192, Control_c, 4, 1, 27
6, 26194, Control_c, 4, 1, 28
6, 26197, Control_c, 4, 1, 29
6, 26210, Control_c, 4, 1, 28
6, 26213, Control_c, 4, 1, 27
6, 26214, Control_c, 4, 1, 26
6, 26214, Control_c, 4, 1, 25
6, 26216, Control_c, 4, 1, 24
6, 26217, Control_c, 4, 1, 23
6, 26217, Control_c, 4, 1, 22
6, 26217, Control_c, 4, 1, 21
6, 26219, Control_c, 4, 1, 20
6, 26220, Control_c, 4, 1, 18
6, 26220, Control_c, 4, 1, 19
6, 26221, Control_c, 4, 1, 17
6, 26223, Control_c, 4, 1, 15
6, 26223, Control_c, 4, 1, 16
6, 26224, Control_c, 4, 1, 13
6, 26224, Control_c, 4, 1, 14
6, 26226, Control_c, 4, 1, 11
6, 26226, Control_c, 4, 1, 12
6, 26227, Control_c, 4, 1, 10
6, 26227, Control_c, 4, 1, 9
6, 26228, Control_c, 4, 1, 8
6, 26230, Control_c, 4, 1, 5
6, 26230, Control_c, 4, 1, 7
6, 26230, Note_on_c, 4, 69, 0
6, 26230, Note_on_c, 4, 73, 0
6, 26230, Control_c, 4, 1, 6
6, 26231, Control_c, 4, 1, 4
6, 26232, Control_c, 4, 1, 3
6, 26234, Control_c, 4, 1, 2
6, 26235, Control_c, 4, 1, 1
6, 26254, Control_c, 4, 1, 0
6, 26279, Note_on_c, 4, 74, 51
6, 26281, Note_on_c, 4, 69, 55
6, 26328, Control_c, 4, 1, 2
6, 26328, Control_c, 4, 1, 1
6, 26329, Control_c, 4, 1, 3
6, 26330, Control_c, 4, 1, 4
6, 26332, Control_c, 4, 1, 6
6, 26332, Control_c, 4, 1, 7
6, 26332, Control_c, 4, 1, 5
6, 26333, Control_c, 4, 1, 8
6, 26335, Control_c, 4, 1, 9
6, 26335, Control_c, 4, 1, 10
6, 26336, Control_c, 4, 1, 11
6, 26337, Control_c, 4, 1, 12
6, 26339, Control_c, 4, 1, 13
6, 26341, Control_c, 4, 1, 14
6, 26343, Control_c, 4, 1, 15
6, 26344, Control_c, 4, 1, 16
6, 26346, Control_c, 4, 1, 17
6, 26348, Control_c, 4, 1, 18
6, 26351, Control_c, 4, 1, 19
6, 26370, Control_c, 4, 1, 18
6, 26376, Control_c, 4, 1, 17
6, 26379, Control_c, 4, 1, 16
6, 26380, Control_c, 4, 1, 15
6, 26383, Control_c, 4, 1, 14
6, 26384, Control_c, 4, 1, 13
6, 26387, Control_c, 4, 1, 12
6, 26388, Control_c, 4, 1, 11
6, 26392, Control_c, 4, 1, 10
6, 26397, Control_c, 4, 1, 9
6, 26434, Control_c, 4, 1, 8
6, 26437, Control_c, 4, 1, 7
6, 26439, Control_c, 4, 1, 6
6, 26442, Control_c, 4, 1, 5
6, 26445, Control_c, 4, 1, 4
6, 26448, Control_c, 4, 1, 3
6, 26452, Control_c, 4, 1, 2
6, 26456, Control_c, 4, 1, 1
6, 26486, Control_c, 4, 1, 0
6, 26518, Note_on_c, 4, 69, 0
6, 26519, Note_on_c, 4, 68, 47
6, 26519, Note_on_c, 4, 73, 45
6, 26519, Note_on_c, 4, 74, 0
6, 26758, Note_on_c, 4, 68, 0
6, 26759, Note_on_c, 4, 71, 63
6, 26759, Note_on_c, 4, 67, 55
6, 26772, Note_on_c, 4, 73, 0
6, 26999, Note_on_c, 4, 65, 52
6, 27000, Note_on_c, 4, 70, 48
6, 27008, Note_on_c, 4, 67, 0
6, 27009, Note_on_c, 4, 71, 0
6, 27240, Note_on_c, 4, 69, 54
6, 27240, Note_on_c, 4, 64, 54
6, 27244, Note_on_c, 4, 65, 0
6, 27249, Note_on_c, 4, 70, 0
6, 27720, Note_on_c, 4, 69, 0
6, 27730, Note_on_c, 4, 64, 0
6, 27730, End_track
7, 0, Start_track
7, 0, Control_c, 5, 0, 0
7, 0, Program_c, 5, 71
7, 0, Sequencer_specific, 20, 74, 65, 90, 50, 1, 0, 0, 0, 0, 0, 0, 0, 0, 0, 0, 0, 0, 0, 0, 0
7, 0, Control_c, 5, 7, 109
7, 0, Control_c, 5, 10, 76
7, 0, Control_c, 5, 121, 0
7, 0, MIDI_port, 0
7, 0, Title_t, "Clarinet"
7, 6, Control_c, 5, 11, 127
7, 8, Control_c, 5, 91, 110
7, 10, Control_c, 5, 93, 10
7, 2400, Note_on_c, 5, 70, 33
7, 2521, Note_on_c, 5, 63, 38
7, 2532, Note_on_c, 5, 70, 0
7, 2756, Note_on_c, 5, 63, 0
7, 2759, Note_on_c, 5, 70, 37
7, 2881, Note_on_c, 5, 63, 44
7, 2893, Note_on_c, 5, 70, 0
7, 3119, Note_on_c, 5, 64, 49
7, 3120, Note_on_c, 5, 63, 0
7, 3544, Note_on_c, 5, 64, 0
7, 8520, Note_on_c, 5, 69, 48
7, 8640, Note_on_c, 5, 66, 55
7, 8651, Note_on_c, 5, 69, 0
7, 8754, Note_on_c, 5, 62, 59
7, 8754, Note_on_c, 5, 66, 0
7, 8883, Note_on_c, 5, 64, 60
7, 8885, Note_on_c, 5, 62, 0
7, 8999, Note_on_c, 5, 62, 58
7, 9000, Note_on_c, 5, 66, 56
7, 9001, Note_on_c, 5, 64, 0
7, 9458, Note_on_c, 5, 62, 0
7, 9458, Note_on_c, 5, 66, 0
7, 19088, Note_on_c, 5, 78, 36
7, 19100, Note_on_c, 5, 78, 0
7, 19101, Note_on_c, 5, 74, 40
7, 19113, Note_on_c, 5, 78, 40
7, 19113, Note_on_c, 5, 74, 0
7, 19128, Note_on_c, 5, 78, 0
7, 19128, Note_on_c, 5, 74, 41
7, 19138, Note_on_c, 5, 74, 0
7, 19141, Note_on_c, 5, 78, 29
7, 19152, Note_on_c, 5, 74, 40
7, 19154, Note_on_c, 5, 78, 0
7, 19164, Note_on_c, 5, 74, 0
7, 19165, Note_on_c, 5, 78, 36
7, 19180, Note_on_c, 5, 74, 41
7, 19182, Note_on_c, 5, 78, 0
7, 19195, Note_on_c, 5, 74, 0
7, 19195, Note_on_c, 5, 78, 40
7, 19207, Note_on_c, 5, 74, 46
7, 19209, Note_on_c, 5, 78, 0
7, 19221, Note_on_c, 5, 74, 0
7, 19223, Note_on_c, 5, 78, 39
7, 19240, Note_on_c, 5, 74, 41
7, 19240, Note_on_c, 5, 78, 0
7, 19252, Note_on_c, 5, 74, 0
7, 19253, Note_on_c, 5, 78, 39
7, 19268, Note_on_c, 5, 74, 37
7, 19269, Note_on_c, 5, 78, 0
7, 19282, Note_on_c, 5, 78, 42
7, 19283, Note_on_c, 5, 74, 0
7, 19297, Note_on_c, 5, 74, 44
7, 19299, Note_on_c, 5, 78, 0
7, 19311, Note_on_c, 5, 78, 43
7, 19313, Note_on_c, 5, 74, 0
7, 19328, Note_on_c, 5, 74, 42
7, 19329, Note_on_c, 5, 78, 0
7, 19343, Note_on_c, 5, 78, 41
7, 19348, Note_on_c, 5, 74, 0
7, 19363, Note_on_c, 5, 74, 40
7, 19365, Note_on_c, 5, 78, 0
7, 19379, Note_on_c, 5, 78, 41
7, 19383, Note_on_c, 5, 74, 0
7, 19396, Note_on_c, 5, 74, 39
7, 19398, Note_on_c, 5, 78, 0
7, 19409, Note_on_c, 5, 78, 44
7, 19413, Note_on_c, 5, 74, 0
7, 19426, Note_on_c, 5, 74, 44
7, 19428, Note_on_c, 5, 78, 0
7, 19441, Note_on_c, 5, 78, 46
7, 19443, Note_on_c, 5, 74, 0
7, 19457, Note_on_c, 5, 74, 43
7, 19458, Note_on_c, 5, 78, 0
7, 19470, Note_on_c, 5, 78, 40
7, 19472, Note_on_c, 5, 74, 0
7, 19486, Note_on_c, 5, 74, 44
7, 19488, Note_on_c, 5, 78, 0
7, 19500, Note_on_c, 5, 78, 41
7, 19503, Note_on_c, 5, 74, 0
7, 19514, Note_on_c, 5, 74, 43
7, 19516, Note_on_c, 5, 78, 0
7, 19529, Note_on_c, 5, 78, 44
7, 19531, Note_on_c, 5, 74, 0
7, 19544, Note_on_c, 5, 74, 42
7, 19544, Note_on_c, 5, 78, 0
7, 19559, Note_on_c, 5, 78, 44
7, 19563, Note_on_c, 5, 74, 0
7, 19576, Note_on_c, 5, 78, 0
7, 19576, Note_on_c, 5, 74, 43
7, 19589, Note_on_c, 5, 78, 46
7, 19591, Note_on_c, 5, 74, 0
7, 19606, Note_on_c, 5, 74, 43
7, 19606, Note_on_c, 5, 78, 0
7, 19619, Note_on_c, 5, 78, 43
7, 19620, Note_on_c, 5, 74, 0
7, 19633, Note_on_c, 5, 74, 36
7, 19635, Note_on_c, 5, 78, 0
7, 19648, Note_on_c, 5, 78, 44
7, 19650, Note_on_c, 5, 74, 0
7, 19664, Note_on_c, 5, 74, 40
7, 19664, Note_on_c, 5, 78, 0
7, 19679, Note_on_c, 5, 78, 46
7, 19681, Note_on_c, 5, 74, 0
7, 19694, Note_on_c, 5, 74, 41
7, 19695, Note_on_c, 5, 78, 0
7, 19709, Note_on_c, 5, 78, 46
7, 19712, Note_on_c, 5, 74, 0
7, 19726, Note_on_c, 5, 74, 43
7, 19726, Note_on_c, 5, 78, 0
7, 19740, Note_on_c, 5, 78, 41
7, 19740, Note_on_c, 5, 74, 0
7, 19754, Note_on_c, 5, 74, 46
7, 19754, Note_on_c, 5, 78, 0
7, 19769, Note_on_c, 5, 78, 44
7, 19769, Note_on_c, 5, 74, 0
7, 19784, Note_on_c, 5, 74, 45
7, 19785, Note_on_c, 5, 78, 0
7, 19800, Note_on_c, 5, 78, 40
7, 19802, Note_on_c, 5, 74, 0
7, 19815, Note_on_c, 5, 74, 39
7, 19817, Note_on_c, 5, 78, 0
7, 19830, Note_on_c, 5, 78, 45
7, 19835, Note_on_c, 5, 74, 0
7, 19846, Note_on_c, 5, 74, 46
7, 19847, Note_on_c, 5, 78, 0
7, 19860, Note_on_c, 5, 78, 44
7, 19861, Note_on_c, 5, 74, 0
7, 19874, Note_on_c, 5, 78, 0
7, 19874, Note_on_c, 5, 74, 42
7, 19890, Note_on_c, 5, 74, 0
7, 19890, Note_on_c, 5, 78, 46
7, 19903, Note_on_c, 5, 74, 44
7, 19903, Note_on_c, 5, 78, 0
7, 19920, Note_on_c, 5, 74, 0
7, 19920, Note_on_c, 5, 78, 41
7, 19933, Note_on_c, 5, 74, 43
7, 19933, Note_on_c, 5, 78, 0
7, 19946, Note_on_c, 5, 74, 0
7, 19949, Note_on_c, 5, 78, 41
7, 19962, Note_on_c, 5, 74, 45
7, 19962, Note_on_c, 5, 78, 0
7, 19980, Note_on_c, 5, 74, 0
7, 19982, Note_on_c, 5, 78, 43
7, 19995, Note_on_c, 5, 74, 46
7, 19995, Note_on_c, 5, 78, 0
7, 20008, Note_on_c, 5, 74, 0
7, 20010, Note_on_c, 5, 78, 47
7, 20022, Note_on_c, 5, 74, 46
7, 20031, Note_on_c, 5, 78, 0
7, 20039, Note_on_c, 5, 74, 0
7, 20041, Note_on_c, 5, 76, 51
7, 20056, Note_on_c, 5, 73, 40
7, 20056, Note_on_c, 5, 76, 0
7, 20070, Note_on_c, 5, 76, 50
7, 20070, Note_on_c, 5, 73, 0
7, 20084, Note_on_c, 5, 73, 38
7, 20085, Note_on_c, 5, 76, 0
7, 20100, Note_on_c, 5, 73, 0
7, 20100, Note_on_c, 5, 76, 48
7, 20113, Note_on_c, 5, 73, 42
7, 20114, Note_on_c, 5, 76, 0
7, 20129, Note_on_c, 5, 76, 48
7, 20129, Note_on_c, 5, 73, 0
7, 20144, Note_on_c, 5, 73, 37
7, 20145, Note_on_c, 5, 76, 0
7, 20162, Note_on_c, 5, 76, 48
7, 20162, Note_on_c, 5, 73, 0
7, 20176, Note_on_c, 5, 73, 8
7, 20177, Note_on_c, 5, 76, 0
7, 20190, Note_on_c, 5, 76, 48
7, 20192, Note_on_c, 5, 73, 0
7, 20205, Note_on_c, 5, 76, 0
7, 20205, Note_on_c, 5, 73, 40
7, 20221, Note_on_c, 5, 76, 48
7, 20222, Note_on_c, 5, 73, 0
7, 20237, Note_on_c, 5, 76, 0
7, 20237, Note_on_c, 5, 73, 42
7, 20252, Note_on_c, 5, 76, 47
7, 20253, Note_on_c, 5, 73, 0
7, 20268, Note_on_c, 5, 73, 39
7, 20268, Note_on_c, 5, 76, 0
7, 20285, Note_on_c, 5, 76, 49
7, 20287, Note_on_c, 5, 73, 0
7, 20298, Note_on_c, 5, 76, 0
7, 20298, Note_on_c, 5, 73, 36
7, 20313, Note_on_c, 5, 76, 48
7, 20314, Note_on_c, 5, 73, 0
7, 20327, Note_on_c, 5, 76, 0
7, 20327, Note_on_c, 5, 73, 44
7, 20343, Note_on_c, 5, 76, 48
7, 20344, Note_on_c, 5, 73, 0
7, 20356, Note_on_c, 5, 76, 0
7, 20356, Note_on_c, 5, 73, 42
7, 20371, Note_on_c, 5, 76, 48
7, 20374, Note_on_c, 5, 73, 0
7, 20386, Note_on_c, 5, 73, 37
7, 20386, Note_on_c, 5, 76, 0
7, 20403, Note_on_c, 5, 76, 47
7, 20404, Note_on_c, 5, 73, 0
7, 20417, Note_on_c, 5, 76, 0
7, 20418, Note_on_c, 5, 73, 43
7, 20435, Note_on_c, 5, 76, 47
7, 20436, Note_on_c, 5, 73, 0
7, 20448, Note_on_c, 5, 76, 0
7, 20449, Note_on_c, 5, 73, 40
7, 20466, Note_on_c, 5, 76, 48
7, 20467, Note_on_c, 5, 73, 0
7, 20479, Note_on_c, 5, 76, 0
7, 20480, Note_on_c, 5, 73, 44
7, 20493, Note_on_c, 5, 73, 0
7, 20494, Note_on_c, 5, 76, 48
7, 20506, Note_on_c, 5, 73, 41
7, 20506, Note_on_c, 5, 76, 0
7, 20521, Note_on_c, 5, 76, 46
7, 20521, Note_on_c, 5, 73, 0
7, 20532, Note_on_c, 5, 76, 0
7, 20535, Note_on_c, 5, 72, 47
7, 20547, Note_on_c, 5, 72, 0
7, 20547, Note_on_c, 5, 76, 57
7, 20560, Note_on_c, 5, 72, 40
7, 20562, Note_on_c, 5, 76, 0
7, 20576, Note_on_c, 5, 72, 0
7, 20577, Note_on_c, 5, 76, 47
7, 20590, Note_on_c, 5, 76, 0
7, 20591, Note_on_c, 5, 72, 48
7, 20604, Note_on_c, 5, 72, 0
7, 20607, Note_on_c, 5, 76, 48
7, 20620, Note_on_c, 5, 76, 0
7, 20621, Note_on_c, 5, 72, 47
7, 20632, Note_on_c, 5, 72, 0
7, 20635, Note_on_c, 5, 76, 48
7, 20652, Note_on_c, 5, 76, 0
7, 20654, Note_on_c, 5, 73, 28
7, 20669, Note_on_c, 5, 76, 42
7, 20671, Note_on_c, 5, 73, 0
7, 20684, Note_on_c, 5, 73, 40
7, 20686, Note_on_c, 5, 76, 0
7, 20701, Note_on_c, 5, 76, 43
7, 20702, Note_on_c, 5, 73, 0
7, 20713, Note_on_c, 5, 73, 43
7, 20715, Note_on_c, 5, 76, 0
7, 20731, Note_on_c, 5, 76, 42
7, 20732, Note_on_c, 5, 73, 0
7, 20744, Note_on_c, 5, 73, 40
7, 20748, Note_on_c, 5, 76, 0
7, 20761, Note_on_c, 5, 76, 44
7, 20761, Note_on_c, 5, 73, 0
7, 20775, Note_on_c, 5, 73, 38
7, 20775, Note_on_c, 5, 76, 0
7, 20789, Note_on_c, 5, 76, 48
7, 20789, Note_on_c, 5, 73, 0
7, 20804, Note_on_c, 5, 73, 38
7, 20805, Note_on_c, 5, 76, 0
7, 20819, Note_on_c, 5, 76, 47
7, 20820, Note_on_c, 5, 73, 0
7, 20833, Note_on_c, 5, 73, 8
7, 20833, Note_on_c, 5, 76, 0
7, 20846, Note_on_c, 5, 73, 0
7, 21000, Note_on_c, 5, 74, 41
7, 21015, Note_on_c, 5, 74, 0
7, 21015, Note_on_c, 5, 71, 44
7, 21032, Note_on_c, 5, 74, 40
7, 21033, Note_on_c, 5, 71, 0
7, 21048, Note_on_c, 5, 71, 44
7, 21048, Note_on_c, 5, 74, 0
7, 21061, Note_on_c, 5, 71, 0
7, 21062, Note_on_c, 5, 74, 47
7, 21076, Note_on_c, 5, 74, 0
7, 21078, Note_on_c, 5, 71, 44
7, 21092, Note_on_c, 5, 74, 44
7, 21093, Note_on_c, 5, 71, 0
7, 21106, Note_on_c, 5, 74, 0
7, 21107, Note_on_c, 5, 71, 43
7, 21124, Note_on_c, 5, 74, 46
7, 21124, Note_on_c, 5, 71, 0
7, 21137, Note_on_c, 5, 71, 46
7, 21137, Note_on_c, 5, 74, 0
7, 21151, Note_on_c, 5, 71, 0
7, 21151, Note_on_c, 5, 74, 48
7, 21166, Note_on_c, 5, 74, 0
7, 21167, Note_on_c, 5, 71, 47
7, 21179, Note_on_c, 5, 71, 0
7, 21180, Note_on_c, 5, 74, 46
7, 21193, Note_on_c, 5, 71, 46
7, 21194, Note_on_c, 5, 74, 0
7, 21208, Note_on_c, 5, 74, 47
7, 21209, Note_on_c, 5, 71, 0
7, 21223, Note_on_c, 5, 71, 46
7, 21224, Note_on_c, 5, 74, 0
7, 21237, Note_on_c, 5, 74, 46
7, 21239, Note_on_c, 5, 71, 0
7, 21251, Note_on_c, 5, 71, 41
7, 21253, Note_on_c, 5, 74, 0
7, 21268, Note_on_c, 5, 74, 47
7, 21268, Note_on_c, 5, 71, 0
7, 21282, Note_on_c, 5, 74, 0
7, 21283, Note_on_c, 5, 71, 46
7, 21298, Note_on_c, 5, 74, 47
7, 21299, Note_on_c, 5, 71, 0
7, 21312, Note_on_c, 5, 71, 44
7, 21312, Note_on_c, 5, 74, 0
7, 21326, Note_on_c, 5, 74, 46
7, 21327, Note_on_c, 5, 71, 0
7, 21341, Note_on_c, 5, 71, 44
7, 21342, Note_on_c, 5, 74, 0
7, 21359, Note_on_c, 5, 71, 0
7, 21359, Note_on_c, 5, 74, 42
7, 21371, Note_on_c, 5, 71, 43
7, 21375, Note_on_c, 5, 74, 0
7, 21389, Note_on_c, 5, 74, 43
7, 21390, Note_on_c, 5, 71, 0
7, 21404, Note_on_c, 5, 71, 46
7, 21404, Note_on_c, 5, 74, 0
7, 21419, Note_on_c, 5, 74, 42
7, 21422, Note_on_c, 5, 71, 0
7, 21435, Note_on_c, 5, 71, 37
7, 21436, Note_on_c, 5, 74, 0
7, 21448, Note_on_c, 5, 74, 47
7, 21448, Note_on_c, 5, 71, 0
7, 21463, Note_on_c, 5, 71, 43
7, 21464, Note_on_c, 5, 74, 0
7, 21481, Note_on_c, 5, 74, 45
7, 21481, Note_on_c, 5, 71, 0
7, 21494, Note_on_c, 5, 74, 0
7, 21494, Note_on_c, 5, 71, 43
7, 21510, Note_on_c, 5, 74, 39
7, 21511, Note_on_c, 5, 71, 0
7, 21523, Note_on_c, 5, 71, 40
7, 21524, Note_on_c, 5, 74, 0
7, 21539, Note_on_c, 5, 74, 42
7, 21540, Note_on_c, 5, 71, 0
7, 21552, Note_on_c, 5, 71, 40
7, 21553, Note_on_c, 5, 74, 0
7, 21569, Note_on_c, 5, 74, 45
7, 21570, Note_on_c, 5, 71, 0
7, 21584, Note_on_c, 5, 71, 42
7, 21585, Note_on_c, 5, 74, 0
7, 21600, Note_on_c, 5, 74, 42
7, 21602, Note_on_c, 5, 71, 0
7, 21612, Note_on_c, 5, 71, 40
7, 21615, Note_on_c, 5, 74, 0
7, 21629, Note_on_c, 5, 74, 46
7, 21630, Note_on_c, 5, 71, 0
7, 21644, Note_on_c, 5, 71, 40
7, 21646, Note_on_c, 5, 74, 0
7, 21660, Note_on_c, 5, 74, 47
7, 21662, Note_on_c, 5, 71, 0
7, 21672, Note_on_c, 5, 71, 40
7, 21674, Note_on_c, 5, 74, 0
7, 21688, Note_on_c, 5, 74, 43
7, 21690, Note_on_c, 5, 71, 0
7, 21703, Note_on_c, 5, 74, 0
7, 21703, Note_on_c, 5, 71, 40
7, 21719, Note_on_c, 5, 74, 44
7, 21719, Note_on_c, 5, 71, 0
7, 21732, Note_on_c, 5, 71, 44
7, 21732, Note_on_c, 5, 74, 0
7, 21748, Note_on_c, 5, 74, 46
7, 21749, Note_on_c, 5, 71, 0
7, 21764, Note_on_c, 5, 74, 0
7, 21764, Note_on_c, 5, 71, 41
7, 21779, Note_on_c, 5, 71, 0
7, 21780, Note_on_c, 5, 74, 41
7, 21794, Note_on_c, 5, 71, 42
7, 21795, Note_on_c, 5, 74, 0
7, 21808, Note_on_c, 5, 74, 45
7, 21809, Note_on_c, 5, 71, 0
7, 21823, Note_on_c, 5, 74, 0
7, 21823, Note_on_c, 5, 71, 40
7, 21840, Note_on_c, 5, 74, 46
7, 21842, Note_on_c, 5, 71, 0
7, 21854, Note_on_c, 5, 71, 40
7, 21854, Note_on_c, 5, 74, 0
7, 21870, Note_on_c, 5, 74, 40
7, 21870, Note_on_c, 5, 71, 0
7, 21883, Note_on_c, 5, 74, 0
7, 21884, Note_on_c, 5, 71, 40
7, 21900, Note_on_c, 5, 74, 37
7, 21900, Note_on_c, 5, 71, 0
7, 21914, Note_on_c, 5, 71, 32
7, 21916, Note_on_c, 5, 74, 0
7, 21929, Note_on_c, 5, 74, 47
7, 21929, Note_on_c, 5, 71, 0
7, 21944, Note_on_c, 5, 74, 0
7, 21947, Note_on_c, 5, 71, 37
7, 21963, Note_on_c, 5, 71, 0
7, 21965, Note_on_c, 5, 76, 47
7, 21980, Note_on_c, 5, 72, 38
7, 21980, Note_on_c, 5, 76, 0
7, 21991, Note_on_c, 5, 76, 46
7, 21991, Note_on_c, 5, 72, 0
7, 22004, Note_on_c, 5, 72, 45
7, 22004, Note_on_c, 5, 76, 0
7, 22019, Note_on_c, 5, 76, 43
7, 22020, Note_on_c, 5, 72, 0
7, 22032, Note_on_c, 5, 72, 45
7, 22032, Note_on_c, 5, 76, 0
7, 22047, Note_on_c, 5, 76, 46
7, 22048, Note_on_c, 5, 72, 0
7, 22061, Note_on_c, 5, 72, 40
7, 22062, Note_on_c, 5, 76, 0
7, 22075, Note_on_c, 5, 72, 0
7, 22075, Note_on_c, 5, 76, 46
7, 22089, Note_on_c, 5, 72, 44
7, 22089, Note_on_c, 5, 76, 0
7, 22105, Note_on_c, 5, 76, 40
7, 22106, Note_on_c, 5, 72, 0
7, 22121, Note_on_c, 5, 72, 44
7, 22121, Note_on_c, 5, 76, 0
7, 22136, Note_on_c, 5, 76, 43
7, 22136, Note_on_c, 5, 72, 0
7, 22150, Note_on_c, 5, 72, 35
7, 22151, Note_on_c, 5, 76, 0
7, 22165, Note_on_c, 5, 76, 40
7, 22167, Note_on_c, 5, 72, 0
7, 22182, Note_on_c, 5, 76, 0
7, 22182, Note_on_c, 5, 72, 45
7, 22199, Note_on_c, 5, 76, 42
7, 22200, Note_on_c, 5, 72, 0
7, 22213, Note_on_c, 5, 72, 41
7, 22214, Note_on_c, 5, 76, 0
7, 22228, Note_on_c, 5, 76, 45
7, 22230, Note_on_c, 5, 72, 0
7, 22243, Note_on_c, 5, 72, 43
7, 22244, Note_on_c, 5, 76, 0
7, 22258, Note_on_c, 5, 76, 47
7, 22260, Note_on_c, 5, 72, 0
7, 22273, Note_on_c, 5, 72, 40
7, 22273, Note_on_c, 5, 76, 0
7, 22289, Note_on_c, 5, 76, 44
7, 22290, Note_on_c, 5, 72, 0
7, 22304, Note_on_c, 5, 72, 40
7, 22306, Note_on_c, 5, 76, 0
7, 22320, Note_on_c, 5, 76, 47
7, 22321, Note_on_c, 5, 72, 0
7, 22334, Note_on_c, 5, 72, 34
7, 22335, Note_on_c, 5, 76, 0
7, 22348, Note_on_c, 5, 76, 44
7, 22350, Note_on_c, 5, 72, 0
7, 22361, Note_on_c, 5, 72, 36
7, 22363, Note_on_c, 5, 76, 0
7, 22377, Note_on_c, 5, 76, 42
7, 22378, Note_on_c, 5, 72, 0
7, 22392, Note_on_c, 5, 76, 0
7, 22392, Note_on_c, 5, 72, 40
7, 22405, Note_on_c, 5, 76, 46
7, 22407, Note_on_c, 5, 72, 0
7, 22420, Note_on_c, 5, 72, 42
7, 22420, Note_on_c, 5, 76, 0
7, 22435, Note_on_c, 5, 76, 41
7, 22436, Note_on_c, 5, 72, 0
7, 22448, Note_on_c, 5, 72, 43
7, 22449, Note_on_c, 5, 76, 0
7, 22462, Note_on_c, 5, 72, 0
7, 22462, Note_on_c, 5, 76, 46
7, 22474, Note_on_c, 5, 72, 43
7, 22475, Note_on_c, 5, 76, 0
7, 22489, Note_on_c, 5, 76, 47
7, 22490, Note_on_c, 5, 72, 0
7, 22503, Note_on_c, 5, 76, 0
7, 22504, Note_on_c, 5, 72, 42
7, 22520, Note_on_c, 5, 76, 32
7, 22520, Note_on_c, 5, 72, 0
7, 22533, Note_on_c, 5, 72, 40
7, 22535, Note_on_c, 5, 76, 0
7, 22549, Note_on_c, 5, 72, 0
7, 22551, Note_on_c, 5, 76, 36
7, 22560, Note_on_c, 5, 76, 0
7, 22561, Note_on_c, 5, 72, 43
7, 22576, Note_on_c, 5, 72, 0
7, 22576, End_track
8, 0, Start_track
8, 0, Control_c, 6, 0, 0
8, 0, Program_c, 6, 68
8, 0, Sequencer_specific, 20, 74, 65, 90, 50, 1, 0, 0, 0, 0, 0, 0, 0, 0, 0, 0, 0, 0, 0, 0, 0
8, 0, Control_c, 6, 121, 0
8, 0, MIDI_port, 0
8, 0, Title_t, "Oboe"
8, 0, Control_c, 6, 7, 119
8, 0, Control_c, 6, 10, 40
8, 6, Control_c, 6, 11, 127
8, 8, Control_c, 6, 91, 110
8, 10, Control_c, 6, 93, 20
8, 2400, Note_on_c, 6, 63, 36
8, 2522, Note_on_c, 6, 61, 29
8, 2538, Note_on_c, 6, 63, 0
8, 2762, Note_on_c, 6, 63, 42
8, 2778, Note_on_c, 6, 61, 0
8, 2882, Note_on_c, 6, 61, 31
8, 2905, Note_on_c, 6, 63, 0
8, 3542, Note_on_c, 6, 61, 0
8, 4620, Note_on_c, 6, 80, 39
8, 4680, Note_on_c, 6, 83, 49
8, 4680, Note_on_c, 6, 80, 0
8, 4709, Note_on_c, 6, 85, 46
8, 4710, Note_on_c, 6, 83, 0
8, 4739, Note_on_c, 6, 80, 38
8, 4746, Note_on_c, 6, 85, 0
8, 4766, Note_on_c, 6, 80, 0
8, 4769, Note_on_c, 6, 76, 42
8, 4799, Note_on_c, 6, 78, 43
8, 4804, Note_on_c, 6, 76, 0
8, 4824, Control_c, 6, 1, 3
8, 4824, Control_c, 6, 1, 1
8, 4824, Control_c, 6, 1, 2
8, 4825, Control_c, 6, 1, 5
8, 4825, Control_c, 6, 1, 4
8, 4825, Control_c, 6, 1, 7
8, 4825, Control_c, 6, 1, 6
8, 4826, Control_c, 6, 1, 12
8, 4826, Control_c, 6, 1, 13
8, 4826, Control_c, 6, 1, 15
8, 4826, Control_c, 6, 1, 8
8, 4826, Control_c, 6, 1, 9
8, 4826, Control_c, 6, 1, 16
8, 4826, Control_c, 6, 1, 14
8, 4826, Control_c, 6, 1, 11
8, 4826, Control_c, 6, 1, 10
8, 4828, Control_c, 6, 1, 17
8, 4829, Control_c, 6, 1, 21
8, 4829, Control_c, 6, 1, 23
8, 4829, Control_c, 6, 1, 19
8, 4829, Control_c, 6, 1, 20
8, 4829, Control_c, 6, 1, 18
8, 4829, Control_c, 6, 1, 22
8, 4831, Control_c, 6, 1, 25
8, 4831, Control_c, 6, 1, 24
8, 4832, Control_c, 6, 1, 26
8, 4833, Control_c, 6, 1, 29
8, 4833, Control_c, 6, 1, 28
8, 4833, Control_c, 6, 1, 27
8, 4835, Control_c, 6, 1, 30
8, 4836, Control_c, 6, 1, 32
8, 4836, Control_c, 6, 1, 31
8, 4839, Control_c, 6, 1, 33
8, 4853, Control_c, 6, 1, 34
8, 4857, Control_c, 6, 1, 35
8, 4866, Control_c, 6, 1, 34
8, 4868, Control_c, 6, 1, 33
8, 4869, Control_c, 6, 1, 32
8, 4871, Control_c, 6, 1, 30
8, 4871, Control_c, 6, 1, 31
8, 4872, Control_c, 6, 1, 28
8, 4872, Control_c, 6, 1, 29
8, 4873, Control_c, 6, 1, 26
8, 4873, Control_c, 6, 1, 27
8, 4875, Control_c, 6, 1, 22
8, 4875, Control_c, 6, 1, 24
8, 4875, Control_c, 6, 1, 25
8, 4875, Control_c, 6, 1, 23
8, 4876, Control_c, 6, 1, 21
8, 4878, Control_c, 6, 1, 17
8, 4878, Control_c, 6, 1, 18
8, 4878, Control_c, 6, 1, 20
8, 4878, Control_c, 6, 1, 19
8, 4879, Control_c, 6, 1, 16
8, 4879, Control_c, 6, 1, 15
8, 4880, Control_c, 6, 1, 13
8, 4880, Control_c, 6, 1, 12
8, 4880, Control_c, 6, 1, 14
8, 4882, Control_c, 6, 1, 8
8, 4882, Control_c, 6, 1, 11
8, 4882, Control_c, 6, 1, 9
8, 4882, Control_c, 6, 1, 5
8, 4882, Control_c, 6, 1, 10
8, 4882, Control_c, 6, 1, 6
8, 4882, Control_c, 6, 1, 7
8, 4883, Control_c, 6, 1, 4
8, 4883, Control_c, 6, 1, 3
8, 4884, Control_c, 6, 1, 2
8, 4884, Control_c, 6, 1, 1
8, 4884, Control_c, 6, 1, 0
8, 4947, Control_c, 6, 1, 2
8, 4947, Control_c, 6, 1, 1
8, 4948, Control_c, 6, 1, 3
8, 4948, Control_c, 6, 1, 5
8, 4948, Control_c, 6, 1, 4
8, 4949, Control_c, 6, 1, 8
8, 4949, Control_c, 6, 1, 9
8, 4949, Control_c, 6, 1, 7
8, 4949, Control_c, 6, 1, 6
8, 4951, Control_c, 6, 1, 10
8, 4951, Control_c, 6, 1, 11
8, 4951, Note_on_c, 6, 78, 0
8, 4951, Control_c, 6, 1, 12
8, 4952, Control_c, 6, 1, 13
8, 4953, Control_c, 6, 1, 15
8, 4953, Control_c, 6, 1, 14
8, 4963, Control_c, 6, 1, 16
8, 4964, Control_c, 6, 1, 17
8, 4966, Control_c, 6, 1, 19
8, 4966, Control_c, 6, 1, 20
8, 4966, Control_c, 6, 1, 18
8, 4967, Control_c, 6, 1, 21
8, 4969, Control_c, 6, 1, 22
8, 4969, Control_c, 6, 1, 23
8, 4970, Control_c, 6, 1, 24
8, 4971, Control_c, 6, 1, 25
8, 4980, Control_c, 6, 1, 24
8, 4980, Note_on_c, 6, 80, 46
8, 4981, Control_c, 6, 1, 22
8, 4981, Control_c, 6, 1, 23
8, 4984, Control_c, 6, 1, 20
8, 4984, Control_c, 6, 1, 21
8, 4985, Control_c, 6, 1, 19
8, 4985, Control_c, 6, 1, 18
8, 4987, Control_c, 6, 1, 17
8, 4988, Control_c, 6, 1, 16
8, 4989, Control_c, 6, 1, 15
8, 4993, Control_c, 6, 1, 14
8, 4995, Control_c, 6, 1, 13
8, 4996, Control_c, 6, 1, 12
8, 4998, Control_c, 6, 1, 10
8, 4998, Control_c, 6, 1, 11
8, 4999, Control_c, 6, 1, 7
8, 4999, Control_c, 6, 1, 9
8, 4999, Control_c, 6, 1, 8
8, 5000, Control_c, 6, 1, 5
8, 5000, Control_c, 6, 1, 3
8, 5000, Control_c, 6, 1, 2
8, 5000, Control_c, 6, 1, 6
8, 5000, Control_c, 6, 1, 4
8, 5002, Control_c, 6, 1, 1
8, 5002, Control_c, 6, 1, 0
8, 5041, Note_on_c, 6, 80, 0
8, 5041, Note_on_c, 6, 81, 46
8, 5071, Note_on_c, 6, 82, 42
8, 5072, Note_on_c, 6, 81, 0
8, 5101, Note_on_c, 6, 78, 42
8, 5107, Note_on_c, 6, 82, 0
8, 5129, Note_on_c, 6, 78, 0
8, 5131, Note_on_c, 6, 75, 36
8, 5161, Note_on_c, 6, 76, 47
8, 5166, Note_on_c, 6, 75, 0
8, 5188, Control_c, 6, 1, 1
8, 5189, Control_c, 6, 1, 2
8, 5189, Control_c, 6, 1, 3
8, 5190, Control_c, 6, 1, 5
8, 5190, Control_c, 6, 1, 4
8, 5192, Control_c, 6, 1, 6
8, 5193, Control_c, 6, 1, 7
8, 5195, Control_c, 6, 1, 8
8, 5197, Control_c, 6, 1, 9
8, 5197, Control_c, 6, 1, 10
8, 5199, Control_c, 6, 1, 11
8, 5200, Control_c, 6, 1, 13
8, 5200, Control_c, 6, 1, 12
8, 5201, Control_c, 6, 1, 14
8, 5204, Control_c, 6, 1, 16
8, 5204, Control_c, 6, 1, 15
8, 5207, Control_c, 6, 1, 17
8, 5281, Control_c, 6, 1, 18
8, 5334, Control_c, 6, 1, 19
8, 5337, Control_c, 6, 1, 20
8, 5348, Control_c, 6, 1, 21
8, 5400, Note_on_c, 6, 74, 31
8, 5401, Note_on_c, 6, 76, 0
8, 5431, Control_c, 6, 1, 20
8, 5437, Control_c, 6, 1, 19
8, 5439, Control_c, 6, 1, 18
8, 5440, Control_c, 6, 1, 14
8, 5440, Control_c, 6, 1, 16
8, 5440, Control_c, 6, 1, 17
8, 5440, Control_c, 6, 1, 15
8, 5442, Control_c, 6, 1, 12
8, 5442, Control_c, 6, 1, 13
8, 5443, Control_c, 6, 1, 10
8, 5443, Control_c, 6, 1, 11
8, 5443, Control_c, 6, 1, 9
8, 5444, Control_c, 6, 1, 7
8, 5444, Control_c, 6, 1, 8
8, 5444, Control_c, 6, 1, 6
8, 5446, Control_c, 6, 1, 4
8, 5446, Control_c, 6, 1, 5
8, 5448, Control_c, 6, 1, 3
8, 5451, Control_c, 6, 1, 2
8, 5454, Control_c, 6, 1, 1
8, 5455, Control_c, 6, 1, 0
8, 5520, Note_on_c, 6, 74, 0
8, 6480, Control_c, 6, 1, 5
8, 6480, Control_c, 6, 1, 4
8, 6482, Control_c, 6, 1, 8
8, 6482, Control_c, 6, 1, 7
8, 6482, Control_c, 6, 1, 6
8, 6482, Control_c, 6, 1, 9
8, 6483, Control_c, 6, 1, 11
8, 6483, Control_c, 6, 1, 10
8, 6485, Control_c, 6, 1, 12
8, 6486, Control_c, 6, 1, 13
8, 6488, Control_c, 6, 1, 14
8, 6489, Control_c, 6, 1, 15
8, 6491, Control_c, 6, 1, 16
8, 6492, Control_c, 6, 1, 17
8, 6497, Control_c, 6, 1, 18
8, 6540, Note_on_c, 6, 76, 46
8, 6549, Control_c, 6, 1, 16
8, 6549, Control_c, 6, 1, 17
8, 6550, Control_c, 6, 1, 15
8, 6552, Control_c, 6, 1, 14
8, 6553, Control_c, 6, 1, 13
8, 6555, Control_c, 6, 1, 12
8, 6555, Control_c, 6, 1, 11
8, 6556, Control_c, 6, 1, 9
8, 6556, Control_c, 6, 1, 10
8, 6558, Control_c, 6, 1, 8
8, 6559, Control_c, 6, 1, 6
8, 6559, Control_c, 6, 1, 7
8, 6561, Control_c, 6, 1, 5
8, 6561, Control_c, 6, 1, 4
8, 6562, Control_c, 6, 1, 3
8, 6564, Control_c, 6, 1, 1
8, 6564, Control_c, 6, 1, 2
8, 6600, Note_on_c, 6, 76, 0
8, 6601, Note_on_c, 6, 79, 48
8, 6631, Note_on_c, 6, 81, 48
8, 6636, Note_on_c, 6, 79, 0
8, 6649, Control_c, 6, 1, 0
8, 6661, Note_on_c, 6, 76, 48
8, 6663, Note_on_c, 6, 81, 0
8, 6691, Note_on_c, 6, 72, 45
8, 6691, Note_on_c, 6, 76, 0
8, 6721, Note_on_c, 6, 74, 49
8, 6724, Note_on_c, 6, 72, 0
8, 6726, Control_c, 6, 1, 1
8, 6728, Control_c, 6, 1, 2
8, 6731, Control_c, 6, 1, 4
8, 6731, Control_c, 6, 1, 3
8, 6733, Control_c, 6, 1, 6
8, 6733, Control_c, 6, 1, 5
8, 6734, Control_c, 6, 1, 7
8, 6736, Control_c, 6, 1, 13
8, 6736, Control_c, 6, 1, 10
8, 6736, Control_c, 6, 1, 15
8, 6736, Control_c, 6, 1, 14
8, 6736, Control_c, 6, 1, 12
8, 6736, Control_c, 6, 1, 8
8, 6736, Control_c, 6, 1, 9
8, 6736, Control_c, 6, 1, 11
8, 6737, Control_c, 6, 1, 16
8, 6739, Control_c, 6, 1, 18
8, 6739, Control_c, 6, 1, 17
8, 6739, Control_c, 6, 1, 20
8, 6742, Control_c, 6, 1, 27
8, 6742, Control_c, 6, 1, 30
8, 6742, Control_c, 6, 1, 28
8, 6742, Control_c, 6, 1, 24
8, 6742, Control_c, 6, 1, 25
8, 6742, Control_c, 6, 1, 21
8, 6742, Control_c, 6, 1, 29
8, 6742, Control_c, 6, 1, 23
8, 6742, Control_c, 6, 1, 22
8, 6745, Control_c, 6, 1, 33
8, 6745, Control_c, 6, 1, 32
8, 6745, Control_c, 6, 1, 34
8, 6745, Control_c, 6, 1, 40
8, 6745, Control_c, 6, 1, 35
8, 6745, Control_c, 6, 1, 31
8, 6745, Control_c, 6, 1, 37
8, 6745, Control_c, 6, 1, 36
8, 6745, Control_c, 6, 1, 39
8, 6745, Control_c, 6, 1, 38
8, 6748, Control_c, 6, 1, 41
8, 6748, Control_c, 6, 1, 42
8, 6748, Control_c, 6, 1, 43
8, 6749, Control_c, 6, 1, 44
8, 6751, Control_c, 6, 1, 45
8, 6752, Control_c, 6, 1, 47
8, 6752, Control_c, 6, 1, 46
8, 6755, Control_c, 6, 1, 48
8, 6758, Control_c, 6, 1, 49
8, 6761, Control_c, 6, 1, 50
8, 6761, Control_c, 6, 1, 51
8, 6766, Control_c, 6, 1, 52
8, 6772, Control_c, 6, 1, 53
8, 6774, Control_c, 6, 1, 54
8, 6778, Control_c, 6, 1, 55
8, 6784, Control_c, 6, 1, 56
8, 6798, Control_c, 6, 1, 54
8, 6798, Control_c, 6, 1, 55
8, 6799, Control_c, 6, 1, 53
8, 6799, Control_c, 6, 1, 52
8, 6801, Control_c, 6, 1, 51
8, 6801, Control_c, 6, 1, 49
8, 6801, Control_c, 6, 1, 48
8, 6801, Control_c, 6, 1, 50
8, 6801, Control_c, 6, 1, 47
8, 6804, Control_c, 6, 1, 41
8, 6804, Control_c, 6, 1, 45
8, 6804, Control_c, 6, 1, 44
8, 6804, Control_c, 6, 1, 43
8, 6804, Control_c, 6, 1, 46
8, 6804, Control_c, 6, 1, 42
8, 6805, Control_c, 6, 1, 31
8, 6805, Control_c, 6, 1, 40
8, 6805, Control_c, 6, 1, 38
8, 6805, Control_c, 6, 1, 39
8, 6805, Control_c, 6, 1, 35
8, 6805, Control_c, 6, 1, 33
8, 6805, Control_c, 6, 1, 34
8, 6805, Control_c, 6, 1, 36
8, 6805, Control_c, 6, 1, 37
8, 6809, Control_c, 6, 1, 25
8, 6809, Control_c, 6, 1, 28
8, 6809, Control_c, 6, 1, 27
8, 6809, Control_c, 6, 1, 22
8, 6809, Control_c, 6, 1, 30
8, 6809, Control_c, 6, 1, 23
8, 6809, Control_c, 6, 1, 26
8, 6809, Control_c, 6, 1, 29
8, 6809, Control_c, 6, 1, 24
8, 6812, Control_c, 6, 1, 17
8, 6812, Control_c, 6, 1, 21
8, 6812, Control_c, 6, 1, 16
8, 6812, Control_c, 6, 1, 18
8, 6812, Control_c, 6, 1, 20
8, 6812, Control_c, 6, 1, 19
8, 6815, Control_c, 6, 1, 15
8, 6815, Control_c, 6, 1, 13
8, 6815, Control_c, 6, 1, 14
8, 6815, Control_c, 6, 1, 12
8, 6816, Control_c, 6, 1, 9
8, 6816, Control_c, 6, 1, 11
8, 6816, Control_c, 6, 1, 10
8, 6818, Control_c, 6, 1, 5
8, 6818, Control_c, 6, 1, 8
8, 6818, Control_c, 6, 1, 7
8, 6818, Control_c, 6, 1, 6
8, 6819, Control_c, 6, 1, 4
8, 6821, Control_c, 6, 1, 3
8, 6824, Control_c, 6, 1, 2
8, 6867, Note_on_c, 6, 74, 0
8, 6895, Note_on_c, 6, 76, 50
8, 6961, Note_on_c, 6, 77, 52
8, 6963, Note_on_c, 6, 76, 0
8, 6991, Note_on_c, 6, 80, 56
8, 7000, Note_on_c, 6, 77, 0
8, 7022, Note_on_c, 6, 77, 63
8, 7027, Note_on_c, 6, 80, 0
8, 7036, Control_c, 6, 1, 1
8, 7051, Note_on_c, 6, 72, 49
8, 7060, Note_on_c, 6, 77, 0
8, 7081, Note_on_c, 6, 75, 55
8, 7085, Control_c, 6, 1, 2
8, 7086, Note_on_c, 6, 72, 0
8, 7088, Control_c, 6, 1, 3
8, 7088, Control_c, 6, 1, 4
8, 7089, Control_c, 6, 1, 5
8, 7089, Control_c, 6, 1, 8
8, 7089, Control_c, 6, 1, 10
8, 7089, Control_c, 6, 1, 9
8, 7089, Control_c, 6, 1, 7
8, 7089, Control_c, 6, 1, 6
8, 7091, Control_c, 6, 1, 11
8, 7092, Control_c, 6, 1, 12
8, 7092, Control_c, 6, 1, 13
8, 7094, Control_c, 6, 1, 14
8, 7094, Control_c, 6, 1, 15
8, 7094, Control_c, 6, 1, 16
8, 7095, Control_c, 6, 1, 19
8, 7095, Control_c, 6, 1, 18
8, 7095, Control_c, 6, 1, 17
8, 7095, Control_c, 6, 1, 20
8, 7097, Control_c, 6, 1, 21
8, 7097, Control_c, 6, 1, 22
8, 7100, Control_c, 6, 1, 25
8, 7100, Control_c, 6, 1, 23
8, 7100, Control_c, 6, 1, 26
8, 7100, Control_c, 6, 1, 24
8, 7103, Control_c, 6, 1, 28
8, 7103, Control_c, 6, 1, 27
8, 7105, Control_c, 6, 1, 29
8, 7105, Control_c, 6, 1, 30
8, 7105, Control_c, 6, 1, 31
8, 7106, Control_c, 6, 1, 32
8, 7106, Control_c, 6, 1, 33
8, 7108, Control_c, 6, 1, 34
8, 7109, Control_c, 6, 1, 35
8, 7111, Control_c, 6, 1, 37
8, 7111, Control_c, 6, 1, 36
8, 7114, Control_c, 6, 1, 38
8, 7115, Control_c, 6, 1, 39
8, 7129, Control_c, 6, 1, 40
8, 7130, Control_c, 6, 1, 41
8, 7133, Control_c, 6, 1, 42
8, 7304, Control_c, 6, 1, 41
8, 7307, Control_c, 6, 1, 40
8, 7310, Control_c, 6, 1, 39
8, 7311, Control_c, 6, 1, 37
8, 7311, Control_c, 6, 1, 38
8, 7313, Control_c, 6, 1, 36
8, 7314, Control_c, 6, 1, 35
8, 7314, Control_c, 6, 1, 34
8, 7316, Control_c, 6, 1, 32
8, 7316, Control_c, 6, 1, 33
8, 7316, Control_c, 6, 1, 29
8, 7316, Control_c, 6, 1, 31
8, 7316, Control_c, 6, 1, 30
8, 7317, Control_c, 6, 1, 28
8, 7319, Control_c, 6, 1, 23
8, 7319, Control_c, 6, 1, 27
8, 7319, Control_c, 6, 1, 26
8, 7319, Control_c, 6, 1, 24
8, 7319, Control_c, 6, 1, 25
8, 7319, Control_c, 6, 1, 21
8, 7320, Control_c, 6, 1, 18
8, 7320, Control_c, 6, 1, 16
8, 7320, Control_c, 6, 1, 20
8, 7320, Control_c, 6, 1, 10
8, 7320, Control_c, 6, 1, 11
8, 7320, Control_c, 6, 1, 19
8, 7320, Control_c, 6, 1, 15
8, 7320, Control_c, 6, 1, 13
8, 7323, Control_c, 6, 1, 6
8, 7323, Control_c, 6, 1, 2
8, 7323, Control_c, 6, 1, 4
8, 7323, Control_c, 6, 1, 3
8, 7323, Control_c, 6, 1, 8
8, 7325, Control_c, 6, 1, 0
8, 7386, Note_on_c, 6, 75, 0
8, 9481, Note_on_c, 6, 74, 47
8, 9499, Control_c, 6, 1, 1
8, 9502, Control_c, 6, 1, 3
8, 9502, Control_c, 6, 1, 2
8, 9505, Control_c, 6, 1, 4
8, 9505, Control_c, 6, 1, 5
8, 9505, Control_c, 6, 1, 6
8, 9508, Control_c, 6, 1, 8
8, 9508, Control_c, 6, 1, 7
8, 9510, Control_c, 6, 1, 9
8, 9510, Control_c, 6, 1, 10
8, 9510, Control_c, 6, 1, 11
8, 9513, Control_c, 6, 1, 14
8, 9513, Control_c, 6, 1, 13
8, 9513, Control_c, 6, 1, 12
8, 9513, Control_c, 6, 1, 15
8, 9514, Control_c, 6, 1, 16
8, 9516, Control_c, 6, 1, 18
8, 9516, Control_c, 6, 1, 17
8, 9516, Control_c, 6, 1, 19
8, 9519, Control_c, 6, 1, 23
8, 9519, Control_c, 6, 1, 20
8, 9519, Control_c, 6, 1, 21
8, 9519, Control_c, 6, 1, 22
8, 9521, Control_c, 6, 1, 24
8, 9521, Control_c, 6, 1, 25
8, 9523, Control_c, 6, 1, 27
8, 9523, Control_c, 6, 1, 26
8, 9524, Control_c, 6, 1, 28
8, 9526, Control_c, 6, 1, 29
8, 9528, Control_c, 6, 1, 30
8, 9530, Control_c, 6, 1, 31
8, 9534, Control_c, 6, 1, 32
8, 9537, Control_c, 6, 1, 33
8, 9538, Control_c, 6, 1, 34
8, 9539, Control_c, 6, 1, 35
8, 9541, Control_c, 6, 1, 37
8, 9541, Control_c, 6, 1, 36
8, 9543, Control_c, 6, 1, 38
8, 9546, Control_c, 6, 1, 39
8, 9556, Control_c, 6, 1, 38
8, 9557, Control_c, 6, 1, 37
8, 9559, Control_c, 6, 1, 36
8, 9560, Control_c, 6, 1, 34
8, 9560, Control_c, 6, 1, 35
8, 9561, Control_c, 6, 1, 33
8, 9577, Control_c, 6, 1, 32
8, 9579, Control_c, 6, 1, 31
8, 9581, Control_c, 6, 1, 30
8, 9582, Control_c, 6, 1, 29
8, 9583, Control_c, 6, 1, 27
8, 9583, Control_c, 6, 1, 28
8, 9586, Control_c, 6, 1, 25
8, 9586, Control_c, 6, 1, 26
8, 9588, Control_c, 6, 1, 24
8, 9589, Control_c, 6, 1, 22
8, 9589, Control_c, 6, 1, 23
8, 9590, Control_c, 6, 1, 21
8, 9593, Control_c, 6, 1, 20
8, 9595, Control_c, 6, 1, 19
8, 9597, Control_c, 6, 1, 18
8, 9601, Note_on_c, 6, 76, 49
8, 9601, Control_c, 6, 1, 17
8, 9604, Control_c, 6, 1, 15
8, 9604, Control_c, 6, 1, 16
8, 9607, Control_c, 6, 1, 14
8, 9608, Note_on_c, 6, 74, 0
8, 9624, Control_c, 6, 1, 15
8, 9624, Control_c, 6, 1, 16
8, 9626, Control_c, 6, 1, 19
8, 9626, Control_c, 6, 1, 17
8, 9626, Control_c, 6, 1, 18
8, 9629, Control_c, 6, 1, 21
8, 9629, Control_c, 6, 1, 20
8, 9632, Control_c, 6, 1, 24
8, 9632, Control_c, 6, 1, 22
8, 9632, Control_c, 6, 1, 23
8, 9635, Control_c, 6, 1, 25
8, 9635, Control_c, 6, 1, 26
8, 9636, Control_c, 6, 1, 27
8, 9639, Control_c, 6, 1, 28
8, 9640, Control_c, 6, 1, 29
8, 9643, Control_c, 6, 1, 30
8, 9646, Control_c, 6, 1, 31
8, 9657, Control_c, 6, 1, 30
8, 9658, Control_c, 6, 1, 29
8, 9659, Control_c, 6, 1, 28
8, 9661, Control_c, 6, 1, 25
8, 9661, Control_c, 6, 1, 27
8, 9661, Control_c, 6, 1, 26
8, 9664, Control_c, 6, 1, 24
8, 9664, Control_c, 6, 1, 23
8, 9664, Control_c, 6, 1, 22
8, 9664, Control_c, 6, 1, 21
8, 9666, Control_c, 6, 1, 20
8, 9666, Control_c, 6, 1, 17
8, 9666, Control_c, 6, 1, 18
8, 9666, Control_c, 6, 1, 19
8, 9669, Control_c, 6, 1, 16
8, 9670, Control_c, 6, 1, 15
8, 9673, Control_c, 6, 1, 14
8, 9676, Control_c, 6, 1, 13
8, 9719, Note_on_c, 6, 78, 47
8, 9723, Note_on_c, 6, 76, 0
8, 9733, Control_c, 6, 1, 14
8, 9734, Control_c, 6, 1, 15
8, 9735, Control_c, 6, 1, 16
8, 9737, Control_c, 6, 1, 17
8, 9738, Control_c, 6, 1, 18
8, 9738, Control_c, 6, 1, 19
8, 9741, Control_c, 6, 1, 20
8, 9741, Control_c, 6, 1, 21
8, 9744, Control_c, 6, 1, 22
8, 9745, Control_c, 6, 1, 23
8, 9745, Control_c, 6, 1, 24
8, 9746, Control_c, 6, 1, 25
8, 9748, Control_c, 6, 1, 26
8, 9749, Control_c, 6, 1, 27
8, 9750, Control_c, 6, 1, 28
8, 9752, Control_c, 6, 1, 29
8, 9753, Control_c, 6, 1, 30
8, 9755, Control_c, 6, 1, 31
8, 9755, Control_c, 6, 1, 32
8, 9757, Control_c, 6, 1, 34
8, 9757, Control_c, 6, 1, 33
8, 9760, Control_c, 6, 1, 35
8, 9763, Control_c, 6, 1, 36
8, 9777, Control_c, 6, 1, 35
8, 9777, Control_c, 6, 1, 34
8, 9779, Control_c, 6, 1, 31
8, 9779, Control_c, 6, 1, 33
8, 9779, Control_c, 6, 1, 32
8, 9782, Control_c, 6, 1, 21
8, 9782, Control_c, 6, 1, 27
8, 9782, Control_c, 6, 1, 26
8, 9782, Control_c, 6, 1, 24
8, 9782, Control_c, 6, 1, 23
8, 9782, Control_c, 6, 1, 25
8, 9782, Control_c, 6, 1, 22
8, 9782, Control_c, 6, 1, 29
8, 9782, Control_c, 6, 1, 30
8, 9782, Control_c, 6, 1, 28
8, 9784, Control_c, 6, 1, 20
8, 9786, Control_c, 6, 1, 19
8, 9786, Control_c, 6, 1, 18
8, 9786, Control_c, 6, 1, 17
8, 9789, Control_c, 6, 1, 16
8, 9792, Control_c, 6, 1, 15
8, 9839, Note_on_c, 6, 80, 52
8, 9852, Note_on_c, 6, 78, 0
8, 9858, Control_c, 6, 1, 16
8, 9859, Control_c, 6, 1, 18
8, 9859, Control_c, 6, 1, 17
8, 9861, Control_c, 6, 1, 19
8, 9862, Control_c, 6, 1, 21
8, 9862, Control_c, 6, 1, 20
8, 9865, Control_c, 6, 1, 25
8, 9865, Control_c, 6, 1, 27
8, 9865, Control_c, 6, 1, 22
8, 9865, Control_c, 6, 1, 24
8, 9865, Control_c, 6, 1, 26
8, 9865, Control_c, 6, 1, 23
8, 9868, Control_c, 6, 1, 28
8, 9868, Control_c, 6, 1, 29
8, 9871, Control_c, 6, 1, 33
8, 9871, Control_c, 6, 1, 30
8, 9871, Control_c, 6, 1, 31
8, 9871, Control_c, 6, 1, 32
8, 9873, Control_c, 6, 1, 34
8, 9876, Control_c, 6, 1, 36
8, 9876, Control_c, 6, 1, 37
8, 9876, Control_c, 6, 1, 35
8, 9879, Control_c, 6, 1, 38
8, 9880, Control_c, 6, 1, 39
8, 9883, Control_c, 6, 1, 40
8, 9888, Control_c, 6, 1, 41
8, 9895, Control_c, 6, 1, 42
8, 9908, Control_c, 6, 1, 41
8, 9909, Control_c, 6, 1, 40
8, 9912, Control_c, 6, 1, 39
8, 9912, Control_c, 6, 1, 38
8, 9913, Control_c, 6, 1, 37
8, 9915, Control_c, 6, 1, 35
8, 9915, Control_c, 6, 1, 36
8, 9916, Control_c, 6, 1, 34
8, 9917, Control_c, 6, 1, 32
8, 9917, Control_c, 6, 1, 33
8, 9920, Control_c, 6, 1, 30
8, 9920, Control_c, 6, 1, 28
8, 9920, Control_c, 6, 1, 29
8, 9920, Control_c, 6, 1, 31
8, 9923, Control_c, 6, 1, 27
8, 9923, Control_c, 6, 1, 26
8, 9926, Control_c, 6, 1, 22
8, 9926, Control_c, 6, 1, 23
8, 9926, Control_c, 6, 1, 25
8, 9926, Control_c, 6, 1, 24
8, 9928, Control_c, 6, 1, 20
8, 9928, Control_c, 6, 1, 19
8, 9928, Control_c, 6, 1, 17
8, 9928, Control_c, 6, 1, 16
8, 9928, Control_c, 6, 1, 21
8, 9928, Control_c, 6, 1, 18
8, 9931, Control_c, 6, 1, 14
8, 9931, Control_c, 6, 1, 15
8, 9931, Control_c, 6, 1, 13
8, 9934, Control_c, 6, 1, 11
8, 9934, Control_c, 6, 1, 10
8, 9934, Control_c, 6, 1, 12
8, 9934, Control_c, 6, 1, 9
8, 9937, Control_c, 6, 1, 7
8, 9937, Control_c, 6, 1, 6
8, 9937, Control_c, 6, 1, 8
8, 9940, Control_c, 6, 1, 5
8, 9945, Control_c, 6, 1, 4
8, 9949, Control_c, 6, 1, 3
8, 9954, Note_on_c, 6, 80, 0
8, 9960, Note_on_c, 6, 82, 45
8, 9982, Control_c, 6, 1, 5
8, 9982, Control_c, 6, 1, 4
8, 9985, Control_c, 6, 1, 6
8, 9985, Control_c, 6, 1, 7
8, 9985, Control_c, 6, 1, 8
8, 9988, Control_c, 6, 1, 9
8, 9988, Control_c, 6, 1, 10
8, 9988, Control_c, 6, 1, 11
8, 9991, Control_c, 6, 1, 13
8, 9991, Control_c, 6, 1, 12
8, 9993, Control_c, 6, 1, 15
8, 9993, Control_c, 6, 1, 14
8, 9996, Control_c, 6, 1, 17
8, 9996, Control_c, 6, 1, 16
8, 9996, Control_c, 6, 1, 18
8, 9997, Control_c, 6, 1, 19
8, 9999, Control_c, 6, 1, 20
8, 9999, Control_c, 6, 1, 22
8, 9999, Control_c, 6, 1, 21
8, 10002, Control_c, 6, 1, 25
8, 10002, Control_c, 6, 1, 23
8, 10002, Control_c, 6, 1, 24
8, 10004, Control_c, 6, 1, 26
8, 10004, Control_c, 6, 1, 27
8, 10007, Control_c, 6, 1, 28
8, 10009, Control_c, 6, 1, 29
8, 10011, Control_c, 6, 1, 30
8, 10013, Control_c, 6, 1, 31
8, 10017, Control_c, 6, 1, 32
8, 10035, Control_c, 6, 1, 31
8, 10036, Control_c, 6, 1, 30
8, 10039, Control_c, 6, 1, 29
8, 10043, Control_c, 6, 1, 28
8, 10049, Control_c, 6, 1, 27
8, 10065, Control_c, 6, 1, 26
8, 10075, Control_c, 6, 1, 25
8, 10079, Note_on_c, 6, 83, 59
8, 10084, Note_on_c, 6, 82, 0
8, 10098, Control_c, 6, 1, 26
8, 10098, Control_c, 6, 1, 27
8, 10101, Control_c, 6, 1, 28
8, 10104, Control_c, 6, 1, 29
8, 10104, Control_c, 6, 1, 30
8, 10107, Control_c, 6, 1, 31
8, 10107, Control_c, 6, 1, 32
8, 10107, Control_c, 6, 1, 33
8, 10108, Control_c, 6, 1, 34
8, 10108, Control_c, 6, 1, 35
8, 10108, Control_c, 6, 1, 36
8, 10109, Control_c, 6, 1, 37
8, 10111, Control_c, 6, 1, 38
8, 10112, Control_c, 6, 1, 39
8, 10113, Control_c, 6, 1, 40
8, 10113, Control_c, 6, 1, 41
8, 10115, Control_c, 6, 1, 42
8, 10116, Control_c, 6, 1, 43
8, 10118, Control_c, 6, 1, 44
8, 10119, Control_c, 6, 1, 45
8, 10120, Control_c, 6, 1, 46
8, 10123, Control_c, 6, 1, 47
8, 10126, Control_c, 6, 1, 48
8, 10138, Control_c, 6, 1, 47
8, 10140, Control_c, 6, 1, 46
8, 10141, Control_c, 6, 1, 45
8, 10142, Control_c, 6, 1, 44
8, 10144, Control_c, 6, 1, 43
8, 10145, Control_c, 6, 1, 42
8, 10147, Control_c, 6, 1, 41
8, 10147, Control_c, 6, 1, 40
8, 10148, Control_c, 6, 1, 39
8, 10149, Control_c, 6, 1, 38
8, 10151, Control_c, 6, 1, 37
8, 10151, Control_c, 6, 1, 36
8, 10152, Control_c, 6, 1, 34
8, 10152, Control_c, 6, 1, 33
8, 10152, Control_c, 6, 1, 35
8, 10153, Control_c, 6, 1, 31
8, 10153, Control_c, 6, 1, 32
8, 10155, Control_c, 6, 1, 29
8, 10155, Control_c, 6, 1, 30
8, 10156, Control_c, 6, 1, 26
8, 10156, Control_c, 6, 1, 27
8, 10156, Control_c, 6, 1, 28
8, 10158, Control_c, 6, 1, 25
8, 10158, Control_c, 6, 1, 22
8, 10158, Control_c, 6, 1, 24
8, 10158, Control_c, 6, 1, 23
8, 10159, Control_c, 6, 1, 21
8, 10160, Control_c, 6, 1, 19
8, 10160, Control_c, 6, 1, 20
8, 10162, Control_c, 6, 1, 17
8, 10162, Control_c, 6, 1, 16
8, 10162, Control_c, 6, 1, 18
8, 10163, Control_c, 6, 1, 15
8, 10164, Control_c, 6, 1, 13
8, 10164, Control_c, 6, 1, 14
8, 10166, Control_c, 6, 1, 12
8, 10167, Control_c, 6, 1, 11
8, 10169, Control_c, 6, 1, 10
8, 10170, Control_c, 6, 1, 9
8, 10173, Control_c, 6, 1, 8
8, 10182, Control_c, 6, 1, 7
8, 10193, Control_c, 6, 1, 6
8, 10200, Note_on_c, 6, 82, 54
8, 10208, Note_on_c, 6, 83, 0
8, 10222, Control_c, 6, 1, 7
8, 10224, Control_c, 6, 1, 8
8, 10224, Control_c, 6, 1, 9
8, 10225, Control_c, 6, 1, 10
8, 10227, Control_c, 6, 1, 11
8, 10227, Control_c, 6, 1, 12
8, 10228, Control_c, 6, 1, 13
8, 10228, Control_c, 6, 1, 14
8, 10229, Control_c, 6, 1, 15
8, 10229, Control_c, 6, 1, 17
8, 10229, Control_c, 6, 1, 16
8, 10231, Control_c, 6, 1, 18
8, 10232, Control_c, 6, 1, 19
8, 10232, Control_c, 6, 1, 20
8, 10233, Control_c, 6, 1, 21
8, 10235, Control_c, 6, 1, 22
8, 10236, Control_c, 6, 1, 23
8, 10238, Control_c, 6, 1, 24
8, 10239, Control_c, 6, 1, 26
8, 10239, Control_c, 6, 1, 25
8, 10240, Control_c, 6, 1, 27
8, 10242, Control_c, 6, 1, 28
8, 10242, Control_c, 6, 1, 29
8, 10245, Control_c, 6, 1, 30
8, 10245, Control_c, 6, 1, 32
8, 10245, Control_c, 6, 1, 31
8, 10247, Control_c, 6, 1, 33
8, 10247, Control_c, 6, 1, 34
8, 10249, Control_c, 6, 1, 35
8, 10250, Control_c, 6, 1, 36
8, 10251, Control_c, 6, 1, 37
8, 10253, Control_c, 6, 1, 38
8, 10256, Control_c, 6, 1, 39
8, 10257, Control_c, 6, 1, 40
8, 10260, Control_c, 6, 1, 41
8, 10275, Control_c, 6, 1, 40
8, 10279, Control_c, 6, 1, 39
8, 10282, Control_c, 6, 1, 38
8, 10285, Control_c, 6, 1, 37
8, 10286, Control_c, 6, 1, 36
8, 10287, Control_c, 6, 1, 35
8, 10289, Control_c, 6, 1, 34
8, 10290, Control_c, 6, 1, 33
8, 10291, Control_c, 6, 1, 32
8, 10293, Control_c, 6, 1, 31
8, 10294, Control_c, 6, 1, 30
8, 10296, Control_c, 6, 1, 29
8, 10298, Control_c, 6, 1, 28
8, 10301, Control_c, 6, 1, 27
8, 10304, Control_c, 6, 1, 26
8, 10308, Control_c, 6, 1, 25
8, 10311, Control_c, 6, 1, 24
8, 10314, Control_c, 6, 1, 23
8, 10315, Control_c, 6, 1, 22
8, 10316, Control_c, 6, 1, 21
8, 10316, Control_c, 6, 1, 20
8, 10318, Control_c, 6, 1, 19
8, 10318, Control_c, 6, 1, 18
8, 10319, Control_c, 6, 1, 17
8, 10319, Control_c, 6, 1, 16
8, 10319, Control_c, 6, 1, 15
8, 10320, Control_c, 6, 1, 14
8, 10320, Control_c, 6, 1, 12
8, 10320, Control_c, 6, 1, 13
8, 10322, Control_c, 6, 1, 10
8, 10322, Control_c, 6, 1, 11
8, 10323, Control_c, 6, 1, 6
8, 10323, Control_c, 6, 1, 7
8, 10323, Control_c, 6, 1, 8
8, 10323, Control_c, 6, 1, 9
8, 10325, Control_c, 6, 1, 4
8, 10325, Control_c, 6, 1, 5
8, 10326, Control_c, 6, 1, 2
8, 10326, Control_c, 6, 1, 3
8, 10327, Control_c, 6, 1, 0
8, 10327, Control_c, 6, 1, 1
8, 10340, Note_on_c, 6, 82, 0
8, 10407, Note_on_c, 6, 83, 55
8, 10442, Note_on_c, 6, 85, 56
8, 10460, Note_on_c, 6, 83, 0
8, 10476, Control_c, 6, 1, 1
8, 10478, Control_c, 6, 1, 2
8, 10478, Control_c, 6, 1, 3
8, 10478, Control_c, 6, 1, 5
8, 10478, Control_c, 6, 1, 6
8, 10478, Control_c, 6, 1, 4
8, 10479, Control_c, 6, 1, 7
8, 10480, Control_c, 6, 1, 13
8, 10480, Control_c, 6, 1, 10
8, 10480, Control_c, 6, 1, 9
8, 10480, Control_c, 6, 1, 11
8, 10480, Control_c, 6, 1, 12
8, 10480, Control_c, 6, 1, 8
8, 10482, Control_c, 6, 1, 15
8, 10482, Control_c, 6, 1, 14
8, 10483, Control_c, 6, 1, 17
8, 10483, Control_c, 6, 1, 16
8, 10485, Control_c, 6, 1, 20
8, 10485, Control_c, 6, 1, 19
8, 10485, Control_c, 6, 1, 18
8, 10486, Control_c, 6, 1, 21
8, 10487, Control_c, 6, 1, 22
8, 10489, Control_c, 6, 1, 23
8, 10489, Control_c, 6, 1, 24
8, 10490, Control_c, 6, 1, 25
8, 10493, Control_c, 6, 1, 26
8, 10494, Control_c, 6, 1, 27
8, 10496, Control_c, 6, 1, 28
8, 10497, Control_c, 6, 1, 29
8, 10498, Control_c, 6, 1, 30
8, 10500, Control_c, 6, 1, 31
8, 10503, Control_c, 6, 1, 32
8, 10521, Control_c, 6, 1, 31
8, 10522, Control_c, 6, 1, 30
8, 10526, Control_c, 6, 1, 29
8, 10532, Control_c, 6, 1, 28
8, 10536, Control_c, 6, 1, 27
8, 10538, Control_c, 6, 1, 26
8, 10541, Control_c, 6, 1, 25
8, 10544, Control_c, 6, 1, 24
8, 10545, Control_c, 6, 1, 23
8, 10547, Control_c, 6, 1, 22
8, 10549, Control_c, 6, 1, 21
8, 10552, Control_c, 6, 1, 20
8, 10554, Control_c, 6, 1, 19
8, 10555, Control_c, 6, 1, 18
8, 10556, Control_c, 6, 1, 16
8, 10556, Control_c, 6, 1, 17
8, 10556, Control_c, 6, 1, 15
8, 10558, Control_c, 6, 1, 14
8, 10559, Control_c, 6, 1, 13
8, 10561, Control_c, 6, 1, 11
8, 10561, Control_c, 6, 1, 12
8, 10563, Control_c, 6, 1, 9
8, 10563, Control_c, 6, 1, 10
8, 10566, Control_c, 6, 1, 8
8, 10566, Control_c, 6, 1, 7
8, 10567, Control_c, 6, 1, 6
8, 10569, Control_c, 6, 1, 5
8, 10569, Control_c, 6, 1, 4
8, 10570, Control_c, 6, 1, 2
8, 10570, Control_c, 6, 1, 3
8, 10572, Control_c, 6, 1, 1
8, 10573, Control_c, 6, 1, 0
8, 10621, Note_on_c, 6, 81, 54
8, 10627, Note_on_c, 6, 85, 0
8, 10651, Note_on_c, 6, 83, 63
8, 10657, Note_on_c, 6, 81, 0
8, 10681, Note_on_c, 6, 84, 53
8, 10685, Note_on_c, 6, 83, 0
8, 10741, Note_on_c, 6, 82, 53
8, 10744, Note_on_c, 6, 84, 0
8, 10774, Control_c, 6, 1, 1
8, 10774, Control_c, 6, 1, 2
8, 10774, Control_c, 6, 1, 3
8, 10776, Control_c, 6, 1, 4
8, 10777, Control_c, 6, 1, 6
8, 10777, Control_c, 6, 1, 5
8, 10777, Control_c, 6, 1, 7
8, 10779, Control_c, 6, 1, 9
8, 10779, Control_c, 6, 1, 8
8, 10779, Control_c, 6, 1, 10
8, 10780, Control_c, 6, 1, 11
8, 10780, Control_c, 6, 1, 12
8, 10781, Control_c, 6, 1, 15
8, 10781, Control_c, 6, 1, 13
8, 10781, Control_c, 6, 1, 14
8, 10784, Control_c, 6, 1, 16
8, 10784, Control_c, 6, 1, 17
8, 10787, Control_c, 6, 1, 18
8, 10788, Control_c, 6, 1, 19
8, 10792, Control_c, 6, 1, 20
8, 10827, Control_c, 6, 1, 19
8, 10828, Control_c, 6, 1, 18
8, 10830, Control_c, 6, 1, 17
8, 10831, Control_c, 6, 1, 16
8, 10832, Control_c, 6, 1, 14
8, 10832, Control_c, 6, 1, 15
8, 10834, Control_c, 6, 1, 13
8, 10834, Control_c, 6, 1, 12
8, 10835, Control_c, 6, 1, 9
8, 10835, Control_c, 6, 1, 10
8, 10835, Control_c, 6, 1, 11
8, 10837, Control_c, 6, 1, 8
8, 10837, Control_c, 6, 1, 7
8, 10838, Control_c, 6, 1, 3
8, 10838, Control_c, 6, 1, 4
8, 10838, Control_c, 6, 1, 6
8, 10838, Control_c, 6, 1, 5
8, 10839, Control_c, 6, 1, 2
8, 10841, Control_c, 6, 1, 1
8, 10842, Control_c, 6, 1, 0
8, 10880, Note_on_c, 6, 82, 0
8, 10920, Note_on_c, 6, 82, 55
8, 10975, Note_on_c, 6, 82, 0
8, 10975, Note_on_c, 6, 81, 45
8, 11038, Note_on_c, 6, 79, 52
8, 11041, Note_on_c, 6, 81, 0
8, 11095, Control_c, 6, 1, 1
8, 11096, Control_c, 6, 1, 2
8, 11096, Control_c, 6, 1, 3
8, 11097, Control_c, 6, 1, 4
8, 11099, Control_c, 6, 1, 5
8, 11099, Control_c, 6, 1, 6
8, 11100, Note_on_c, 6, 77, 53
8, 11100, Control_c, 6, 1, 7
8, 11101, Control_c, 6, 1, 8
8, 11103, Control_c, 6, 1, 9
8, 11104, Control_c, 6, 1, 10
8, 11104, Note_on_c, 6, 79, 0
8, 11104, Control_c, 6, 1, 11
8, 11107, Control_c, 6, 1, 12
8, 11108, Control_c, 6, 1, 13
8, 11111, Control_c, 6, 1, 14
8, 11114, Control_c, 6, 1, 15
8, 11115, Control_c, 6, 1, 16
8, 11117, Control_c, 6, 1, 17
8, 11119, Control_c, 6, 1, 18
8, 11133, Control_c, 6, 1, 17
8, 11135, Control_c, 6, 1, 16
8, 11136, Control_c, 6, 1, 15
8, 11137, Control_c, 6, 1, 14
8, 11139, Control_c, 6, 1, 13
8, 11142, Control_c, 6, 1, 12
8, 11144, Control_c, 6, 1, 10
8, 11144, Control_c, 6, 1, 11
8, 11146, Control_c, 6, 1, 9
8, 11147, Control_c, 6, 1, 8
8, 11148, Control_c, 6, 1, 7
8, 11150, Control_c, 6, 1, 5
8, 11150, Control_c, 6, 1, 6
8, 11151, Control_c, 6, 1, 4
8, 11153, Control_c, 6, 1, 3
8, 11157, Control_c, 6, 1, 2
8, 11160, Note_on_c, 6, 76, 50
8, 11168, Note_on_c, 6, 77, 0
8, 11173, Control_c, 6, 1, 1
8, 11190, Control_c, 6, 1, 2
8, 11191, Control_c, 6, 1, 3
8, 11193, Control_c, 6, 1, 4
8, 11193, Control_c, 6, 1, 5
8, 11194, Control_c, 6, 1, 6
8, 11195, Control_c, 6, 1, 7
8, 11195, Control_c, 6, 1, 8
8, 11195, Control_c, 6, 1, 9
8, 11198, Control_c, 6, 1, 11
8, 11198, Control_c, 6, 1, 10
8, 11199, Control_c, 6, 1, 12
8, 11202, Control_c, 6, 1, 13
8, 11202, Control_c, 6, 1, 14
8, 11205, Control_c, 6, 1, 15
8, 11208, Control_c, 6, 1, 16
8, 11209, Control_c, 6, 1, 17
8, 11213, Control_c, 6, 1, 18
8, 11228, Control_c, 6, 1, 17
8, 11240, Note_on_c, 6, 75, 44
8, 11243, Note_on_c, 6, 76, 0
8, 11262, Control_c, 6, 1, 18
8, 11264, Control_c, 6, 1, 19
8, 11268, Control_c, 6, 1, 20
8, 11271, Control_c, 6, 1, 21
8, 11273, Control_c, 6, 1, 22
8, 11274, Control_c, 6, 1, 23
8, 11274, Control_c, 6, 1, 24
8, 11277, Control_c, 6, 1, 25
8, 11278, Control_c, 6, 1, 26
8, 11282, Control_c, 6, 1, 27
8, 11292, Control_c, 6, 1, 28
8, 11311, Control_c, 6, 1, 27
8, 11317, Control_c, 6, 1, 26
8, 11320, Control_c, 6, 1, 25
8, 11322, Control_c, 6, 1, 24
8, 11324, Control_c, 6, 1, 23
8, 11325, Control_c, 6, 1, 22
8, 11329, Control_c, 6, 1, 21
8, 11332, Control_c, 6, 1, 20
8, 11333, Control_c, 6, 1, 19
8, 11335, Control_c, 6, 1, 18
8, 11336, Control_c, 6, 1, 17
8, 11337, Control_c, 6, 1, 16
8, 11339, Control_c, 6, 1, 15
8, 11339, Control_c, 6, 1, 14
8, 11340, Control_c, 6, 1, 13
8, 11342, Control_c, 6, 1, 12
8, 11342, Control_c, 6, 1, 11
8, 11343, Control_c, 6, 1, 10
8, 11344, Control_c, 6, 1, 8
8, 11344, Control_c, 6, 1, 9
8, 11346, Control_c, 6, 1, 7
8, 11346, Control_c, 6, 1, 6
8, 11347, Control_c, 6, 1, 5
8, 11349, Control_c, 6, 1, 4
8, 11351, Control_c, 6, 1, 3
8, 11354, Control_c, 6, 1, 2
8, 11354, Control_c, 6, 1, 1
8, 11357, Control_c, 6, 1, 0
8, 11400, Note_on_c, 6, 76, 37
8, 11405, Note_on_c, 6, 75, 0
8, 11560, Control_c, 6, 1, 1
8, 11561, Control_c, 6, 1, 2
8, 11562, Control_c, 6, 1, 3
8, 11562, Control_c, 6, 1, 4
8, 11564, Control_c, 6, 1, 5
8, 11565, Control_c, 6, 1, 7
8, 11565, Control_c, 6, 1, 6
8, 11567, Control_c, 6, 1, 8
8, 11568, Control_c, 6, 1, 9
8, 11568, Control_c, 6, 1, 10
8, 11569, Control_c, 6, 1, 11
8, 11572, Control_c, 6, 1, 12
8, 11575, Control_c, 6, 1, 13
8, 11590, Control_c, 6, 1, 14
8, 11594, Control_c, 6, 1, 15
8, 11600, Control_c, 6, 1, 16
8, 11651, Control_c, 6, 1, 17
8, 11671, Control_c, 6, 1, 16
8, 11680, Control_c, 6, 1, 15
8, 11681, Control_c, 6, 1, 14
8, 11684, Control_c, 6, 1, 13
8, 11687, Control_c, 6, 1, 12
8, 11698, Control_c, 6, 1, 13
8, 11742, Note_on_c, 6, 76, 0
8, 11749, Control_c, 6, 1, 12
8, 11750, Control_c, 6, 1, 10
8, 11750, Control_c, 6, 1, 7
8, 11750, Control_c, 6, 1, 11
8, 11750, Control_c, 6, 1, 9
8, 11750, Control_c, 6, 1, 8
8, 11751, Control_c, 6, 1, 6
8, 11751, Control_c, 6, 1, 5
8, 11753, Control_c, 6, 1, 1
8, 11753, Control_c, 6, 1, 3
8, 11753, Control_c, 6, 1, 4
8, 11753, Control_c, 6, 1, 0
8, 11753, Control_c, 6, 1, 2
8, 17160, Note_on_c, 6, 78, 51
8, 17176, Control_c, 6, 1, 1
8, 17176, Control_c, 6, 1, 2
8, 17178, Control_c, 6, 1, 3
8, 17178, Control_c, 6, 1, 4
8, 17179, Control_c, 6, 1, 5
8, 17179, Control_c, 6, 1, 6
8, 17180, Control_c, 6, 1, 7
8, 17180, Control_c, 6, 1, 8
8, 17182, Control_c, 6, 1, 9
8, 17183, Control_c, 6, 1, 10
8, 17183, Control_c, 6, 1, 11
8, 17185, Control_c, 6, 1, 12
8, 17186, Control_c, 6, 1, 13
8, 17187, Control_c, 6, 1, 14
8, 17189, Control_c, 6, 1, 15
8, 17190, Control_c, 6, 1, 16
8, 17190, Control_c, 6, 1, 17
8, 17191, Control_c, 6, 1, 18
8, 17193, Control_c, 6, 1, 19
8, 17194, Control_c, 6, 1, 20
8, 17196, Control_c, 6, 1, 21
8, 17196, Control_c, 6, 1, 22
8, 17198, Control_c, 6, 1, 23
8, 17200, Control_c, 6, 1, 24
8, 17203, Control_c, 6, 1, 25
8, 17204, Control_c, 6, 1, 26
8, 17208, Control_c, 6, 1, 27
8, 17211, Control_c, 6, 1, 28
8, 17214, Control_c, 6, 1, 29
8, 17216, Control_c, 6, 1, 30
8, 17397, Note_on_c, 6, 77, 48
8, 17405, Note_on_c, 6, 78, 0
8, 17487, Control_c, 6, 1, 29
8, 17496, Control_c, 6, 1, 28
8, 17501, Control_c, 6, 1, 27
8, 17503, Control_c, 6, 1, 25
8, 17503, Control_c, 6, 1, 26
8, 17505, Control_c, 6, 1, 24
8, 17506, Control_c, 6, 1, 22
8, 17506, Control_c, 6, 1, 23
8, 17508, Control_c, 6, 1, 21
8, 17508, Control_c, 6, 1, 20
8, 17509, Control_c, 6, 1, 19
8, 17509, Control_c, 6, 1, 18
8, 17510, Control_c, 6, 1, 16
8, 17510, Control_c, 6, 1, 17
8, 17512, Control_c, 6, 1, 15
8, 17520, Control_c, 6, 1, 16
8, 17521, Control_c, 6, 1, 17
8, 17524, Control_c, 6, 1, 18
8, 17527, Control_c, 6, 1, 19
8, 17530, Control_c, 6, 1, 20
8, 17534, Control_c, 6, 1, 21
8, 17554, Control_c, 6, 1, 20
8, 17556, Control_c, 6, 1, 19
8, 17557, Control_c, 6, 1, 18
8, 17559, Control_c, 6, 1, 17
8, 17561, Control_c, 6, 1, 16
8, 17564, Control_c, 6, 1, 15
8, 17640, Note_on_c, 6, 76, 52
8, 17647, Note_on_c, 6, 77, 0
8, 17756, Note_on_c, 6, 74, 63
8, 17763, Note_on_c, 6, 76, 0
8, 17767, Control_c, 6, 1, 16
8, 17770, Control_c, 6, 1, 17
8, 17772, Control_c, 6, 1, 18
8, 17841, Note_on_c, 6, 73, 45
8, 17841, Note_on_c, 6, 74, 0
8, 17855, Note_on_c, 6, 72, 55
8, 17865, Note_on_c, 6, 73, 0
8, 17876, Note_on_c, 6, 71, 52
8, 17880, Note_on_c, 6, 72, 0
8, 17930, Control_c, 6, 1, 19
8, 17931, Control_c, 6, 1, 20
8, 17933, Control_c, 6, 1, 21
8, 17934, Control_c, 6, 1, 24
8, 17934, Control_c, 6, 1, 23
8, 17934, Control_c, 6, 1, 22
8, 17935, Control_c, 6, 1, 25
8, 17937, Control_c, 6, 1, 26
8, 17937, Control_c, 6, 1, 28
8, 17937, Control_c, 6, 1, 27
8, 17938, Control_c, 6, 1, 29
8, 17939, Control_c, 6, 1, 31
8, 17939, Control_c, 6, 1, 30
8, 17941, Control_c, 6, 1, 32
8, 17941, Control_c, 6, 1, 33
8, 17942, Control_c, 6, 1, 34
8, 17944, Control_c, 6, 1, 35
8, 17945, Control_c, 6, 1, 37
8, 17945, Control_c, 6, 1, 36
8, 17946, Control_c, 6, 1, 38
8, 17948, Control_c, 6, 1, 39
8, 17948, Control_c, 6, 1, 40
8, 17949, Control_c, 6, 1, 41
8, 17950, Control_c, 6, 1, 42
8, 17952, Control_c, 6, 1, 43
8, 17953, Control_c, 6, 1, 45
8, 17953, Control_c, 6, 1, 44
8, 17955, Control_c, 6, 1, 46
8, 17956, Control_c, 6, 1, 47
8, 17960, Control_c, 6, 1, 48
8, 17975, Control_c, 6, 1, 47
8, 17977, Control_c, 6, 1, 46
8, 17979, Control_c, 6, 1, 45
8, 17982, Control_c, 6, 1, 44
8, 17985, Control_c, 6, 1, 43
8, 17986, Control_c, 6, 1, 42
8, 17993, Control_c, 6, 1, 41
8, 17996, Control_c, 6, 1, 40
8, 17997, Control_c, 6, 1, 39
8, 17999, Control_c, 6, 1, 38
8, 18000, Control_c, 6, 1, 37
8, 18002, Control_c, 6, 1, 36
8, 18003, Control_c, 6, 1, 35
8, 18004, Control_c, 6, 1, 34
8, 18006, Control_c, 6, 1, 32
8, 18006, Control_c, 6, 1, 33
8, 18008, Control_c, 6, 1, 30
8, 18008, Control_c, 6, 1, 31
8, 18011, Control_c, 6, 1, 29
8, 18046, Control_c, 6, 1, 28
8, 18047, Control_c, 6, 1, 27
8, 18048, Control_c, 6, 1, 25
8, 18048, Control_c, 6, 1, 26
8, 18050, Control_c, 6, 1, 23
8, 18050, Control_c, 6, 1, 24
8, 18050, Control_c, 6, 1, 22
8, 18051, Control_c, 6, 1, 19
8, 18051, Control_c, 6, 1, 17
8, 18051, Control_c, 6, 1, 20
8, 18051, Control_c, 6, 1, 21
8, 18051, Control_c, 6, 1, 18
8, 18053, Control_c, 6, 1, 15
8, 18053, Control_c, 6, 1, 16
8, 18054, Control_c, 6, 1, 13
8, 18054, Control_c, 6, 1, 12
8, 18054, Control_c, 6, 1, 14
8, 18055, Control_c, 6, 1, 11
8, 18057, Control_c, 6, 1, 9
8, 18057, Control_c, 6, 1, 10
8, 18058, Control_c, 6, 1, 8
8, 18060, Control_c, 6, 1, 7
8, 18061, Control_c, 6, 1, 6
8, 18062, Control_c, 6, 1, 5
8, 18066, Control_c, 6, 1, 4
8, 18069, Control_c, 6, 1, 3
8, 18069, Control_c, 6, 1, 2
8, 18071, Control_c, 6, 1, 0
8, 18071, Control_c, 6, 1, 1
8, 18097, Note_on_c, 6, 71, 0
8, 18184, Note_on_c, 6, 74, 60
8, 18243, Note_on_c, 6, 76, 62
8, 18244, Note_on_c, 6, 74, 0
8, 18300, Note_on_c, 6, 78, 58
8, 18301, Note_on_c, 6, 76, 0
8, 18364, Note_on_c, 6, 74, 55
8, 18364, Note_on_c, 6, 78, 0
8, 18382, Control_c, 6, 1, 3
8, 18382, Control_c, 6, 1, 4
8, 18382, Control_c, 6, 1, 2
8, 18382, Control_c, 6, 1, 1
8, 18384, Control_c, 6, 1, 6
8, 18384, Control_c, 6, 1, 8
8, 18384, Control_c, 6, 1, 7
8, 18384, Control_c, 6, 1, 5
8, 18385, Control_c, 6, 1, 12
8, 18385, Control_c, 6, 1, 11
8, 18385, Control_c, 6, 1, 10
8, 18385, Control_c, 6, 1, 9
8, 18387, Control_c, 6, 1, 13
8, 18387, Control_c, 6, 1, 14
8, 18387, Control_c, 6, 1, 15
8, 18388, Control_c, 6, 1, 16
8, 18389, Control_c, 6, 1, 18
8, 18389, Control_c, 6, 1, 17
8, 18391, Control_c, 6, 1, 19
8, 18391, Control_c, 6, 1, 20
8, 18391, Control_c, 6, 1, 21
8, 18393, Control_c, 6, 1, 22
8, 18395, Control_c, 6, 1, 23
8, 18398, Control_c, 6, 1, 24
8, 18409, Control_c, 6, 1, 23
8, 18410, Control_c, 6, 1, 22
8, 18413, Control_c, 6, 1, 21
8, 18416, Control_c, 6, 1, 20
8, 18417, Control_c, 6, 1, 19
8, 18418, Control_c, 6, 1, 18
8, 18421, Control_c, 6, 1, 17
8, 18424, Control_c, 6, 1, 16
8, 18427, Control_c, 6, 1, 15
8, 18429, Control_c, 6, 1, 14
8, 18432, Control_c, 6, 1, 13
8, 18436, Control_c, 6, 1, 12
8, 18451, Note_on_c, 6, 74, 0
8, 18454, Note_on_c, 6, 76, 57
8, 18468, Note_on_c, 6, 74, 59
8, 18480, Note_on_c, 6, 76, 0
8, 18485, Note_on_c, 6, 73, 54
8, 18489, Control_c, 6, 1, 11
8, 18491, Note_on_c, 6, 74, 0
8, 18526, Control_c, 6, 1, 12
8, 18527, Control_c, 6, 1, 14
8, 18527, Control_c, 6, 1, 15
8, 18527, Control_c, 6, 1, 13
8, 18529, Control_c, 6, 1, 16
8, 18530, Control_c, 6, 1, 18
8, 18530, Control_c, 6, 1, 17
8, 18531, Control_c, 6, 1, 19
8, 18531, Control_c, 6, 1, 20
8, 18533, Control_c, 6, 1, 21
8, 18533, Control_c, 6, 1, 22
8, 18533, Control_c, 6, 1, 23
8, 18534, Control_c, 6, 1, 24
8, 18534, Control_c, 6, 1, 25
8, 18536, Control_c, 6, 1, 26
8, 18537, Control_c, 6, 1, 27
8, 18537, Control_c, 6, 1, 28
8, 18538, Control_c, 6, 1, 29
8, 18540, Control_c, 6, 1, 31
8, 18540, Control_c, 6, 1, 30
8, 18541, Control_c, 6, 1, 32
8, 18543, Control_c, 6, 1, 33
8, 18544, Control_c, 6, 1, 34
8, 18558, Control_c, 6, 1, 32
8, 18558, Control_c, 6, 1, 33
8, 18559, Control_c, 6, 1, 30
8, 18559, Control_c, 6, 1, 31
8, 18560, Control_c, 6, 1, 29
8, 18560, Control_c, 6, 1, 28
8, 18562, Control_c, 6, 1, 26
8, 18562, Control_c, 6, 1, 27
8, 18563, Control_c, 6, 1, 25
8, 18563, Control_c, 6, 1, 24
8, 18565, Control_c, 6, 1, 23
8, 18565, Control_c, 6, 1, 22
8, 18565, Control_c, 6, 1, 21
8, 18566, Control_c, 6, 1, 20
8, 18567, Control_c, 6, 1, 18
8, 18567, Control_c, 6, 1, 19
8, 18569, Control_c, 6, 1, 17
8, 18570, Control_c, 6, 1, 16
8, 18571, Control_c, 6, 1, 14
8, 18571, Control_c, 6, 1, 15
8, 18571, Control_c, 6, 1, 13
8, 18573, Control_c, 6, 1, 11
8, 18573, Control_c, 6, 1, 12
8, 18574, Control_c, 6, 1, 9
8, 18574, Control_c, 6, 1, 10
8, 18576, Control_c, 6, 1, 8
8, 18576, Control_c, 6, 1, 7
8, 18576, Control_c, 6, 1, 6
8, 18577, Control_c, 6, 1, 4
8, 18577, Control_c, 6, 1, 5
8, 18577, Control_c, 6, 1, 2
8, 18577, Control_c, 6, 1, 3
8, 18578, Control_c, 6, 1, 1
8, 18578, Control_c, 6, 1, 0
8, 18607, Note_on_c, 6, 74, 56
8, 18612, Note_on_c, 6, 73, 0
8, 18721, Control_c, 6, 1, 1
8, 18723, Control_c, 6, 1, 2
8, 18725, Control_c, 6, 1, 3
8, 18727, Control_c, 6, 1, 4
8, 18729, Control_c, 6, 1, 5
8, 18730, Control_c, 6, 1, 7
8, 18730, Control_c, 6, 1, 6
8, 18732, Control_c, 6, 1, 9
8, 18732, Control_c, 6, 1, 8
8, 18733, Control_c, 6, 1, 10
8, 18733, Control_c, 6, 1, 11
8, 18736, Control_c, 6, 1, 12
8, 18737, Control_c, 6, 1, 13
8, 18738, Control_c, 6, 1, 14
8, 19008, Control_c, 6, 1, 13
8, 19009, Control_c, 6, 1, 12
8, 19010, Control_c, 6, 1, 11
8, 19012, Control_c, 6, 1, 10
8, 19014, Control_c, 6, 1, 9
8, 19019, Control_c, 6, 1, 8
8, 19019, Control_c, 6, 1, 7
8, 19020, Control_c, 6, 1, 5
8, 19020, Control_c, 6, 1, 6
8, 19021, Control_c, 6, 1, 4
8, 19023, Control_c, 6, 1, 3
8, 19023, Control_c, 6, 1, 2
8, 19024, Control_c, 6, 1, 1
8, 19026, Control_c, 6, 1, 0
8, 19038, Note_on_c, 6, 74, 0
8, 24840, Note_on_c, 6, 78, 54
8, 24856, Control_c, 6, 1, 2
8, 24856, Control_c, 6, 1, 1
8, 24858, Control_c, 6, 1, 4
8, 24858, Control_c, 6, 1, 3
8, 24859, Control_c, 6, 1, 6
8, 24859, Control_c, 6, 1, 5
8, 24860, Control_c, 6, 1, 7
8, 24860, Control_c, 6, 1, 8
8, 24862, Control_c, 6, 1, 9
8, 24863, Control_c, 6, 1, 10
8, 24863, Control_c, 6, 1, 11
8, 24865, Control_c, 6, 1, 12
8, 24866, Control_c, 6, 1, 13
8, 24867, Control_c, 6, 1, 14
8, 24869, Control_c, 6, 1, 15
8, 24870, Control_c, 6, 1, 16
8, 24870, Control_c, 6, 1, 17
8, 24871, Control_c, 6, 1, 18
8, 24873, Control_c, 6, 1, 19
8, 24874, Control_c, 6, 1, 20
8, 24876, Control_c, 6, 1, 21
8, 24876, Control_c, 6, 1, 22
8, 24878, Control_c, 6, 1, 23
8, 24880, Control_c, 6, 1, 24
8, 24883, Control_c, 6, 1, 25
8, 24884, Control_c, 6, 1, 26
8, 24888, Control_c, 6, 1, 27
8, 24891, Control_c, 6, 1, 28
8, 24894, Control_c, 6, 1, 29
8, 24896, Control_c, 6, 1, 30
8, 25077, Note_on_c, 6, 77, 50
8, 25085, Note_on_c, 6, 78, 0
8, 25167, Control_c, 6, 1, 29
8, 25176, Control_c, 6, 1, 28
8, 25181, Control_c, 6, 1, 27
8, 25183, Control_c, 6, 1, 25
8, 25183, Control_c, 6, 1, 26
8, 25185, Control_c, 6, 1, 24
8, 25186, Control_c, 6, 1, 23
8, 25186, Control_c, 6, 1, 22
8, 25188, Control_c, 6, 1, 20
8, 25188, Control_c, 6, 1, 21
8, 25189, Control_c, 6, 1, 18
8, 25189, Control_c, 6, 1, 19
8, 25190, Control_c, 6, 1, 16
8, 25190, Control_c, 6, 1, 17
8, 25192, Control_c, 6, 1, 15
8, 25200, Control_c, 6, 1, 16
8, 25201, Control_c, 6, 1, 17
8, 25204, Control_c, 6, 1, 18
8, 25207, Control_c, 6, 1, 19
8, 25210, Control_c, 6, 1, 20
8, 25214, Control_c, 6, 1, 21
8, 25234, Control_c, 6, 1, 20
8, 25236, Control_c, 6, 1, 19
8, 25237, Control_c, 6, 1, 18
8, 25239, Control_c, 6, 1, 17
8, 25241, Control_c, 6, 1, 16
8, 25244, Control_c, 6, 1, 15
8, 25320, Note_on_c, 6, 76, 53
8, 25327, Note_on_c, 6, 77, 0
8, 25436, Note_on_c, 6, 74, 63
8, 25443, Note_on_c, 6, 76, 0
8, 25447, Control_c, 6, 1, 16
8, 25450, Control_c, 6, 1, 17
8, 25452, Control_c, 6, 1, 18
8, 25521, Note_on_c, 6, 73, 45
8, 25521, Note_on_c, 6, 74, 0
8, 25535, Note_on_c, 6, 72, 54
8, 25545, Note_on_c, 6, 73, 0
8, 25556, Note_on_c, 6, 71, 52
8, 25560, Note_on_c, 6, 72, 0
8, 25610, Control_c, 6, 1, 19
8, 25611, Control_c, 6, 1, 20
8, 25613, Control_c, 6, 1, 21
8, 25614, Control_c, 6, 1, 24
8, 25614, Control_c, 6, 1, 22
8, 25614, Control_c, 6, 1, 23
8, 25615, Control_c, 6, 1, 25
8, 25617, Control_c, 6, 1, 27
8, 25617, Control_c, 6, 1, 26
8, 25617, Control_c, 6, 1, 28
8, 25618, Control_c, 6, 1, 29
8, 25619, Control_c, 6, 1, 31
8, 25619, Control_c, 6, 1, 30
8, 25621, Control_c, 6, 1, 32
8, 25621, Control_c, 6, 1, 33
8, 25622, Control_c, 6, 1, 34
8, 25624, Control_c, 6, 1, 35
8, 25625, Control_c, 6, 1, 36
8, 25625, Control_c, 6, 1, 37
8, 25626, Control_c, 6, 1, 38
8, 25628, Control_c, 6, 1, 40
8, 25628, Control_c, 6, 1, 39
8, 25629, Control_c, 6, 1, 41
8, 25630, Control_c, 6, 1, 42
8, 25632, Control_c, 6, 1, 43
8, 25633, Control_c, 6, 1, 44
8, 25633, Control_c, 6, 1, 45
8, 25635, Control_c, 6, 1, 46
8, 25636, Control_c, 6, 1, 47
8, 25640, Control_c, 6, 1, 48
8, 25655, Control_c, 6, 1, 47
8, 25657, Control_c, 6, 1, 46
8, 25659, Control_c, 6, 1, 45
8, 25662, Control_c, 6, 1, 44
8, 25665, Control_c, 6, 1, 43
8, 25666, Control_c, 6, 1, 42
8, 25673, Control_c, 6, 1, 41
8, 25676, Control_c, 6, 1, 40
8, 25677, Control_c, 6, 1, 39
8, 25679, Control_c, 6, 1, 38
8, 25680, Control_c, 6, 1, 37
8, 25682, Control_c, 6, 1, 36
8, 25683, Control_c, 6, 1, 35
8, 25684, Control_c, 6, 1, 34
8, 25686, Control_c, 6, 1, 33
8, 25686, Control_c, 6, 1, 32
8, 25688, Control_c, 6, 1, 31
8, 25688, Control_c, 6, 1, 30
8, 25691, Control_c, 6, 1, 29
8, 25726, Control_c, 6, 1, 28
8, 25727, Control_c, 6, 1, 27
8, 25728, Control_c, 6, 1, 25
8, 25728, Control_c, 6, 1, 26
8, 25730, Control_c, 6, 1, 23
8, 25730, Control_c, 6, 1, 22
8, 25730, Control_c, 6, 1, 24
8, 25731, Control_c, 6, 1, 17
8, 25731, Control_c, 6, 1, 21
8, 25731, Control_c, 6, 1, 19
8, 25731, Control_c, 6, 1, 18
8, 25731, Control_c, 6, 1, 20
8, 25733, Control_c, 6, 1, 16
8, 25733, Control_c, 6, 1, 15
8, 25734, Control_c, 6, 1, 14
8, 25734, Control_c, 6, 1, 13
8, 25734, Control_c, 6, 1, 12
8, 25735, Control_c, 6, 1, 11
8, 25737, Control_c, 6, 1, 10
8, 25737, Control_c, 6, 1, 9
8, 25738, Control_c, 6, 1, 8
8, 25740, Control_c, 6, 1, 7
8, 25741, Control_c, 6, 1, 6
8, 25742, Control_c, 6, 1, 5
8, 25746, Control_c, 6, 1, 4
8, 25749, Control_c, 6, 1, 3
8, 25749, Control_c, 6, 1, 2
8, 25751, Control_c, 6, 1, 1
8, 25751, Control_c, 6, 1, 0
8, 25777, Note_on_c, 6, 71, 0
8, 25864, Note_on_c, 6, 74, 58
8, 25923, Note_on_c, 6, 76, 60
8, 25924, Note_on_c, 6, 74, 0
8, 25980, Note_on_c, 6, 78, 55
8, 25981, Note_on_c, 6, 76, 0
8, 26040, Note_on_c, 6, 73, 51
8, 26044, Note_on_c, 6, 78, 0
8, 26062, Control_c, 6, 1, 1
8, 26062, Control_c, 6, 1, 4
8, 26062, Control_c, 6, 1, 2
8, 26062, Control_c, 6, 1, 3
8, 26064, Control_c, 6, 1, 8
8, 26064, Control_c, 6, 1, 5
8, 26064, Control_c, 6, 1, 6
8, 26064, Control_c, 6, 1, 7
8, 26065, Control_c, 6, 1, 9
8, 26065, Control_c, 6, 1, 11
8, 26065, Control_c, 6, 1, 10
8, 26065, Control_c, 6, 1, 12
8, 26067, Control_c, 6, 1, 13
8, 26067, Control_c, 6, 1, 15
8, 26067, Control_c, 6, 1, 14
8, 26068, Control_c, 6, 1, 16
8, 26069, Control_c, 6, 1, 18
8, 26069, Control_c, 6, 1, 17
8, 26071, Control_c, 6, 1, 19
8, 26071, Control_c, 6, 1, 21
8, 26071, Control_c, 6, 1, 20
8, 26073, Control_c, 6, 1, 22
8, 26075, Control_c, 6, 1, 23
8, 26078, Control_c, 6, 1, 24
8, 26089, Control_c, 6, 1, 23
8, 26090, Control_c, 6, 1, 22
8, 26093, Control_c, 6, 1, 21
8, 26096, Control_c, 6, 1, 20
8, 26097, Control_c, 6, 1, 19
8, 26098, Control_c, 6, 1, 18
8, 26101, Control_c, 6, 1, 17
8, 26104, Control_c, 6, 1, 16
8, 26107, Control_c, 6, 1, 15
8, 26109, Control_c, 6, 1, 14
8, 26112, Control_c, 6, 1, 13
8, 26116, Control_c, 6, 1, 12
8, 26169, Control_c, 6, 1, 11
8, 26206, Control_c, 6, 1, 12
8, 26207, Control_c, 6, 1, 13
8, 26207, Control_c, 6, 1, 15
8, 26207, Control_c, 6, 1, 14
8, 26209, Control_c, 6, 1, 16
8, 26210, Control_c, 6, 1, 17
8, 26210, Control_c, 6, 1, 18
8, 26211, Control_c, 6, 1, 19
8, 26211, Control_c, 6, 1, 20
8, 26213, Control_c, 6, 1, 21
8, 26213, Control_c, 6, 1, 23
8, 26213, Control_c, 6, 1, 22
8, 26214, Control_c, 6, 1, 25
8, 26214, Control_c, 6, 1, 24
8, 26216, Control_c, 6, 1, 26
8, 26217, Control_c, 6, 1, 28
8, 26217, Control_c, 6, 1, 27
8, 26218, Control_c, 6, 1, 29
8, 26220, Control_c, 6, 1, 31
8, 26220, Control_c, 6, 1, 30
8, 26221, Control_c, 6, 1, 32
8, 26223, Control_c, 6, 1, 33
8, 26224, Control_c, 6, 1, 34
8, 26238, Control_c, 6, 1, 32
8, 26238, Control_c, 6, 1, 33
8, 26239, Control_c, 6, 1, 30
8, 26239, Control_c, 6, 1, 31
8, 26240, Control_c, 6, 1, 29
8, 26240, Control_c, 6, 1, 28
8, 26242, Control_c, 6, 1, 26
8, 26242, Control_c, 6, 1, 27
8, 26243, Control_c, 6, 1, 24
8, 26243, Control_c, 6, 1, 25
8, 26245, Control_c, 6, 1, 23
8, 26245, Control_c, 6, 1, 22
8, 26245, Control_c, 6, 1, 21
8, 26246, Control_c, 6, 1, 20
8, 26247, Control_c, 6, 1, 18
8, 26247, Control_c, 6, 1, 19
8, 26249, Control_c, 6, 1, 17
8, 26250, Control_c, 6, 1, 16
8, 26251, Control_c, 6, 1, 13
8, 26251, Control_c, 6, 1, 14
8, 26251, Control_c, 6, 1, 15
8, 26253, Control_c, 6, 1, 12
8, 26253, Control_c, 6, 1, 11
8, 26254, Control_c, 6, 1, 9
8, 26254, Control_c, 6, 1, 10
8, 26255, Note_on_c, 6, 73, 0
8, 26256, Control_c, 6, 1, 6
8, 26256, Control_c, 6, 1, 8
8, 26256, Control_c, 6, 1, 7
8, 26257, Control_c, 6, 1, 2
8, 26257, Control_c, 6, 1, 3
8, 26257, Control_c, 6, 1, 5
8, 26257, Control_c, 6, 1, 4
8, 26258, Control_c, 6, 1, 1
8, 26258, Control_c, 6, 1, 0
8, 26281, Note_on_c, 6, 74, 53
8, 26401, Control_c, 6, 1, 1
8, 26403, Control_c, 6, 1, 2
8, 26405, Control_c, 6, 1, 3
8, 26407, Control_c, 6, 1, 4
8, 26409, Control_c, 6, 1, 5
8, 26410, Control_c, 6, 1, 6
8, 26410, Control_c, 6, 1, 7
8, 26412, Control_c, 6, 1, 9
8, 26412, Control_c, 6, 1, 8
8, 26413, Control_c, 6, 1, 10
8, 26413, Control_c, 6, 1, 11
8, 26416, Control_c, 6, 1, 12
8, 26417, Control_c, 6, 1, 13
8, 26418, Control_c, 6, 1, 14
8, 26516, Note_on_c, 6, 74, 0
8, 26519, Note_on_c, 6, 73, 54
8, 26688, Control_c, 6, 1, 13
8, 26689, Control_c, 6, 1, 12
8, 26690, Control_c, 6, 1, 11
8, 26692, Control_c, 6, 1, 10
8, 26694, Control_c, 6, 1, 9
8, 26699, Control_c, 6, 1, 7
8, 26699, Control_c, 6, 1, 8
8, 26700, Control_c, 6, 1, 5
8, 26700, Control_c, 6, 1, 6
8, 26701, Control_c, 6, 1, 4
8, 26703, Control_c, 6, 1, 2
8, 26703, Control_c, 6, 1, 3
8, 26704, Control_c, 6, 1, 1
8, 26706, Control_c, 6, 1, 0
8, 26759, Note_on_c, 6, 71, 61
8, 26777, Note_on_c, 6, 73, 0
8, 26999, Note_on_c, 6, 70, 53
8, 27005, Note_on_c, 6, 71, 0
8, 27245, Note_on_c, 6, 69, 42
8, 27251, Note_on_c, 6, 70, 0
8, 27730, Note_on_c, 6, 69, 0
8, 27730, End_track
9, 0, Start_track
9, 0, Control_c, 7, 0, 0
9, 0, Program_c, 7, 60
9, 0, Sequencer_specific, 20, 74, 65, 90, 50, 1, 0, 0, 0, 0, 0, 0, 0, 0, 0, 0, 0, 0, 0, 0, 0
9, 0, Text_t, "%-"
9, 0, Control_c, 7, 10, 100
9, 0, Control_c, 7, 121, 0
9, 0, MIDI_port, 0
9, 0, Control_c, 7, 7, 119
9, 0, Title_t, "French Horn"
9, 6, Control_c, 7, 11, 127
9, 8, Control_c, 7, 91, 80
9, 10, Control_c, 7, 93, 20
9, 480, Note_on_c, 7, 61, 55
9, 480, Note_on_c, 7, 57, 38
9, 539, Note_on_c, 7, 62, 58
9, 539, Note_on_c, 7, 61, 0
9, 539, Note_on_c, 7, 59, 49
9, 545, Note_on_c, 7, 57, 0
9, 598, Note_on_c, 7, 64, 51
9, 600, Note_on_c, 7, 61, 52
9, 601, Note_on_c, 7, 62, 0
9, 603, Note_on_c, 7, 59, 0
9, 654, Note_on_c, 7, 62, 56
9, 656, Note_on_c, 7, 66, 55
9, 656, Note_on_c, 7, 61, 0
9, 656, Note_on_c, 7, 64, 0
9, 711, Note_on_c, 7, 67, 58
9, 714, Note_on_c, 7, 66, 0
9, 717, Note_on_c, 7, 64, 56
9, 721, Note_on_c, 7, 62, 0
9, 773, Note_on_c, 7, 68, 67
9, 773, Note_on_c, 7, 65, 68
9, 776, Note_on_c, 7, 64, 0
9, 779, Note_on_c, 7, 67, 0
9, 832, Note_on_c, 7, 69, 72
9, 832, Note_on_c, 7, 68, 0
9, 837, Note_on_c, 7, 66, 68
9, 840, Note_on_c, 7, 65, 0
9, 891, Note_on_c, 7, 67, 62
9, 893, Note_on_c, 7, 66, 0
9, 894, Note_on_c, 7, 71, 80
9, 897, Note_on_c, 7, 69, 0
9, 957, Note_on_c, 7, 72, 74
9, 961, Note_on_c, 7, 71, 0
9, 961, Note_on_c, 7, 69, 68
9, 966, Note_on_c, 7, 67, 0
9, 1027, Note_on_c, 7, 62, 64
9, 1028, Note_on_c, 7, 69, 0
9, 1031, Note_on_c, 7, 65, 66
9, 1034, Note_on_c, 7, 72, 0
9, 1195, Note_on_c, 7, 69, 52
9, 1197, Note_on_c, 7, 72, 50
9, 1201, Note_on_c, 7, 62, 0
9, 1206, Note_on_c, 7, 65, 0
9, 1268, Note_on_c, 7, 65, 44
9, 1270, Note_on_c, 7, 62, 41
9, 1277, Note_on_c, 7, 69, 0
9, 1277, Note_on_c, 7, 72, 0
9, 1408, Note_on_c, 7, 65, 0
9, 1410, Note_on_c, 7, 62, 0
9, 1440, Note_on_c, 7, 62, 50
9, 1440, Note_on_c, 7, 65, 57
9, 1560, Note_on_c, 7, 58, 50
9, 1562, Note_on_c, 7, 55, 52
9, 1574, Note_on_c, 7, 65, 0
9, 1581, Note_on_c, 7, 62, 0
9, 1793, Note_on_c, 7, 55, 0
9, 1800, Note_on_c, 7, 62, 55
9, 1801, Note_on_c, 7, 65, 42
9, 1807, Note_on_c, 7, 58, 0
9, 1921, Note_on_c, 7, 55, 52
9, 1922, Note_on_c, 7, 58, 52
9, 1930, Note_on_c, 7, 62, 0
9, 1940, Note_on_c, 7, 65, 0
9, 2362, Note_on_c, 7, 58, 0
9, 2371, Note_on_c, 7, 55, 0
9, 2400, Note_on_c, 7, 63, 46
9, 2400, Note_on_c, 7, 58, 38
9, 2520, Note_on_c, 7, 61, 38
9, 2534, Note_on_c, 7, 63, 0
9, 2761, Note_on_c, 7, 63, 45
9, 2776, Note_on_c, 7, 61, 0
9, 2881, Note_on_c, 7, 61, 35
9, 2889, Note_on_c, 7, 63, 0
9, 3540, Note_on_c, 7, 58, 0
9, 3546, Note_on_c, 7, 61, 0
9, 3590, Note_on_c, 7, 64, 66
9, 3592, Note_on_c, 7, 54, 67
9, 3841, Note_on_c, 7, 62, 70
9, 3849, Note_on_c, 7, 64, 0
9, 4072, Note_on_c, 7, 61, 66
9, 4076, Note_on_c, 7, 62, 0
9, 4313, Note_on_c, 7, 61, 0
9, 4318, Note_on_c, 7, 59, 56
9, 4555, Note_on_c, 7, 56, 50
9, 4558, Note_on_c, 7, 54, 0
9, 5035, Note_on_c, 7, 58, 51
9, 5038, Note_on_c, 7, 52, 53
9, 5040, Note_on_c, 7, 59, 0
9, 5041, Note_on_c, 7, 56, 0
9, 5460, Note_on_c, 7, 58, 0
9, 5463, Note_on_c, 7, 52, 0
9, 5520, Note_on_c, 7, 62, 45
9, 5520, Note_on_c, 7, 66, 44
9, 5755, Note_on_c, 7, 62, 0
9, 5760, Note_on_c, 7, 64, 59
9, 5760, Note_on_c, 7, 66, 0
9, 5765, Note_on_c, 7, 61, 50
9, 6000, Note_on_c, 7, 59, 55
9, 6000, Note_on_c, 7, 62, 67
9, 6000, Note_on_c, 7, 61, 0
9, 6007, Note_on_c, 7, 64, 0
9, 6239, Note_on_c, 7, 65, 58
9, 6239, Note_on_c, 7, 61, 55
9, 6245, Note_on_c, 7, 62, 0
9, 6246, Note_on_c, 7, 59, 0
9, 6470, Note_on_c, 7, 65, 0
9, 6473, Note_on_c, 7, 60, 56
9, 6475, Note_on_c, 7, 64, 60
9, 6483, Note_on_c, 7, 61, 0
9, 6955, Note_on_c, 7, 64, 0
9, 6960, Note_on_c, 7, 63, 59
9, 7200, Control_c, 7, 11, 127
9, 7205, Control_c, 7, 11, 125
9, 7215, Control_c, 7, 11, 124
9, 7220, Control_c, 7, 11, 123
9, 7230, Control_c, 7, 11, 122
9, 7235, Control_c, 7, 11, 120
9, 7240, Control_c, 7, 11, 119
9, 7250, Control_c, 7, 11, 117
9, 7255, Control_c, 7, 11, 116
9, 7260, Control_c, 7, 11, 114
9, 7265, Control_c, 7, 11, 113
9, 7270, Control_c, 7, 11, 111
9, 7275, Control_c, 7, 11, 109
9, 7280, Control_c, 7, 11, 107
9, 7285, Control_c, 7, 11, 106
9, 7290, Control_c, 7, 11, 104
9, 7295, Control_c, 7, 11, 102
9, 7300, Control_c, 7, 11, 99
9, 7305, Control_c, 7, 11, 98
9, 7310, Control_c, 7, 11, 96
9, 7315, Control_c, 7, 11, 93
9, 7320, Control_c, 7, 11, 90
9, 7325, Control_c, 7, 11, 88
9, 7330, Control_c, 7, 11, 85
9, 7335, Control_c, 7, 11, 84
9, 7340, Control_c, 7, 11, 81
9, 7345, Control_c, 7, 11, 79
9, 7350, Control_c, 7, 11, 78
9, 7355, Control_c, 7, 11, 76
9, 7360, Control_c, 7, 11, 74
9, 7365, Control_c, 7, 11, 72
9, 7370, Control_c, 7, 11, 70
9, 7375, Control_c, 7, 11, 67
9, 7380, Control_c, 7, 11, 65
9, 7385, Control_c, 7, 11, 64
9, 7390, Control_c, 7, 11, 63
9, 7395, Control_c, 7, 11, 62
9, 7400, Control_c, 7, 11, 61
9, 7405, Control_c, 7, 11, 60
9, 7410, Control_c, 7, 11, 59
9, 7415, Control_c, 7, 11, 57
9, 7418, Note_on_c, 7, 60, 0
9, 7420, Note_on_c, 7, 63, 0
9, 7420, Control_c, 7, 11, 56
9, 7425, Control_c, 7, 11, 54
9, 7435, Control_c, 7, 11, 52
9, 7440, Control_c, 7, 11, 127
9, 7440, Note_on_c, 7, 62, 73
9, 8385, Note_on_c, 7, 62, 0
9, 8525, Note_on_c, 7, 64, 60
9, 8528, Control_c, 7, 1, 1
9, 8529, Control_c, 7, 1, 3
9, 8529, Control_c, 7, 1, 2
9, 8529, Control_c, 7, 1, 5
9, 8529, Control_c, 7, 1, 4
9, 8531, Control_c, 7, 1, 6
9, 8537, Control_c, 7, 1, 4
9, 8537, Control_c, 7, 1, 5
9, 8539, Control_c, 7, 1, 3
9, 8539, Control_c, 7, 1, 2
9, 8542, Control_c, 7, 1, 1
9, 8542, Control_c, 7, 1, 0
9, 8550, Control_c, 7, 1, 1
9, 8553, Control_c, 7, 1, 2
9, 8554, Control_c, 7, 1, 3
9, 8558, Control_c, 7, 1, 4
9, 8562, Control_c, 7, 1, 5
9, 8566, Control_c, 7, 1, 6
9, 8568, Control_c, 7, 1, 7
9, 8571, Control_c, 7, 1, 8
9, 8575, Control_c, 7, 1, 9
9, 8579, Control_c, 7, 1, 10
9, 8580, Control_c, 7, 1, 11
9, 8582, Note_on_c, 7, 62, 63
9, 8584, Control_c, 7, 1, 12
9, 8586, Note_on_c, 7, 64, 0
9, 8637, Note_on_c, 7, 61, 59
9, 8640, Control_c, 7, 1, 13
9, 8641, Note_on_c, 7, 62, 0
9, 8644, Control_c, 7, 1, 14
9, 8651, Control_c, 7, 1, 15
9, 8667, Control_c, 7, 1, 14
9, 8669, Control_c, 7, 1, 13
9, 8671, Control_c, 7, 1, 12
9, 8689, Control_c, 7, 1, 11
9, 8692, Control_c, 7, 1, 10
9, 8693, Control_c, 7, 1, 9
9, 8695, Control_c, 7, 1, 7
9, 8695, Control_c, 7, 1, 4
9, 8695, Note_on_c, 7, 60, 58
9, 8695, Control_c, 7, 1, 8
9, 8695, Control_c, 7, 1, 5
9, 8695, Control_c, 7, 1, 6
9, 8698, Control_c, 7, 1, 2
9, 8698, Control_c, 7, 1, 3
9, 8698, Control_c, 7, 1, 1
9, 8698, Control_c, 7, 1, 0
9, 8702, Note_on_c, 7, 61, 0
9, 8757, Note_on_c, 7, 59, 58
9, 8758, Note_on_c, 7, 60, 0
9, 8776, Control_c, 7, 1, 1
9, 8776, Control_c, 7, 1, 2
9, 8778, Control_c, 7, 1, 4
9, 8778, Control_c, 7, 1, 3
9, 8779, Control_c, 7, 1, 5
9, 8779, Control_c, 7, 1, 7
9, 8779, Control_c, 7, 1, 6
9, 8780, Control_c, 7, 1, 8
9, 8780, Control_c, 7, 1, 10
9, 8780, Control_c, 7, 1, 9
9, 8782, Control_c, 7, 1, 11
9, 8783, Control_c, 7, 1, 12
9, 8783, Control_c, 7, 1, 13
9, 8786, Control_c, 7, 1, 14
9, 8787, Control_c, 7, 1, 15
9, 8790, Control_c, 7, 1, 16
9, 8791, Control_c, 7, 1, 17
9, 8809, Control_c, 7, 1, 16
9, 8811, Control_c, 7, 1, 15
9, 8812, Control_c, 7, 1, 14
9, 8813, Note_on_c, 7, 58, 48
9, 8813, Control_c, 7, 1, 13
9, 8815, Control_c, 7, 1, 12
9, 8818, Control_c, 7, 1, 10
9, 8818, Control_c, 7, 1, 11
9, 8820, Control_c, 7, 1, 9
9, 8820, Control_c, 7, 1, 8
9, 8820, Note_on_c, 7, 59, 0
9, 8822, Control_c, 7, 1, 7
9, 8823, Control_c, 7, 1, 6
9, 8824, Control_c, 7, 1, 5
9, 8826, Control_c, 7, 1, 4
9, 8829, Control_c, 7, 1, 3
9, 8830, Control_c, 7, 1, 2
9, 8831, Control_c, 7, 1, 1
9, 8834, Control_c, 7, 1, 0
9, 8878, Note_on_c, 7, 57, 50
9, 8884, Note_on_c, 7, 58, 0
9, 8888, Control_c, 7, 1, 1
9, 8889, Control_c, 7, 1, 2
9, 8893, Control_c, 7, 1, 3
9, 8902, Control_c, 7, 1, 4
9, 8936, Note_on_c, 7, 56, 46
9, 8942, Control_c, 7, 1, 5
9, 8945, Control_c, 7, 1, 6
9, 8945, Control_c, 7, 1, 7
9, 8945, Note_on_c, 7, 57, 0
9, 8947, Control_c, 7, 1, 8
9, 8949, Control_c, 7, 1, 9
9, 8950, Control_c, 7, 1, 10
9, 8951, Control_c, 7, 1, 11
9, 8953, Control_c, 7, 1, 12
9, 8953, Control_c, 7, 1, 13
9, 8954, Control_c, 7, 1, 14
9, 8956, Control_c, 7, 1, 15
9, 8957, Control_c, 7, 1, 16
9, 8960, Control_c, 7, 1, 17
9, 8961, Control_c, 7, 1, 18
9, 8964, Control_c, 7, 1, 19
9, 8967, Control_c, 7, 1, 20
9, 8982, Control_c, 7, 1, 19
9, 8987, Control_c, 7, 1, 18
9, 8991, Control_c, 7, 1, 17
9, 8994, Control_c, 7, 1, 16
9, 8996, Control_c, 7, 1, 15
9, 8997, Control_c, 7, 1, 14
9, 8998, Control_c, 7, 1, 12
9, 8998, Control_c, 7, 1, 13
9, 9000, Control_c, 7, 1, 11
9, 9001, Control_c, 7, 1, 10
9, 9003, Control_c, 7, 1, 8
9, 9003, Note_on_c, 7, 57, 58
9, 9003, Control_c, 7, 1, 9
9, 9005, Control_c, 7, 1, 7
9, 9007, Control_c, 7, 1, 6
9, 9007, Note_on_c, 7, 56, 0
9, 9009, Control_c, 7, 1, 5
9, 9011, Control_c, 7, 1, 4
9, 9012, Control_c, 7, 1, 3
9, 9015, Control_c, 7, 1, 2
9, 9016, Control_c, 7, 1, 1
9, 9019, Control_c, 7, 1, 0
9, 9026, Control_c, 7, 1, 1
9, 9029, Control_c, 7, 1, 2
9, 9030, Control_c, 7, 1, 3
9, 9031, Control_c, 7, 1, 5
9, 9031, Control_c, 7, 1, 4
9, 9033, Control_c, 7, 1, 8
9, 9033, Control_c, 7, 1, 6
9, 9033, Control_c, 7, 1, 7
9, 9036, Control_c, 7, 1, 10
9, 9036, Control_c, 7, 1, 9
9, 9038, Control_c, 7, 1, 11
9, 9038, Control_c, 7, 1, 13
9, 9038, Control_c, 7, 1, 14
9, 9038, Control_c, 7, 1, 12
9, 9038, Control_c, 7, 1, 15
9, 9040, Control_c, 7, 1, 16
9, 9040, Control_c, 7, 1, 17
9, 9040, Control_c, 7, 1, 18
9, 9041, Control_c, 7, 1, 19
9, 9043, Control_c, 7, 1, 20
9, 9044, Control_c, 7, 1, 22
9, 9044, Control_c, 7, 1, 21
9, 9045, Control_c, 7, 1, 23
9, 9047, Control_c, 7, 1, 24
9, 9048, Control_c, 7, 1, 25
9, 9049, Control_c, 7, 1, 26
9, 9052, Control_c, 7, 1, 27
9, 9063, Control_c, 7, 1, 26
9, 9065, Control_c, 7, 1, 25
9, 9066, Control_c, 7, 1, 24
9, 9066, Control_c, 7, 1, 23
9, 9067, Control_c, 7, 1, 22
9, 9067, Control_c, 7, 1, 21
9, 9069, Control_c, 7, 1, 19
9, 9069, Control_c, 7, 1, 20
9, 9070, Control_c, 7, 1, 17
9, 9070, Control_c, 7, 1, 18
9, 9072, Control_c, 7, 1, 16
9, 9073, Control_c, 7, 1, 15
9, 9073, Control_c, 7, 1, 14
9, 9074, Control_c, 7, 1, 13
9, 9076, Control_c, 7, 1, 12
9, 9077, Control_c, 7, 1, 11
9, 9078, Control_c, 7, 1, 10
9, 9080, Control_c, 7, 1, 9
9, 9083, Control_c, 7, 1, 7
9, 9083, Control_c, 7, 1, 8
9, 9085, Control_c, 7, 1, 6
9, 9087, Control_c, 7, 1, 4
9, 9087, Control_c, 7, 1, 5
9, 9089, Control_c, 7, 1, 3
9, 9089, Control_c, 7, 1, 2
9, 9091, Control_c, 7, 1, 1
9, 9092, Control_c, 7, 1, 0
9, 9116, Note_on_c, 7, 56, 54
9, 9123, Note_on_c, 7, 57, 0
9, 9178, Note_on_c, 7, 57, 59
9, 9182, Note_on_c, 7, 56, 0
9, 9238, Note_on_c, 7, 58, 59
9, 9244, Note_on_c, 7, 57, 0
9, 9274, Control_c, 7, 1, 1
9, 9274, Control_c, 7, 1, 2
9, 9276, Control_c, 7, 1, 3
9, 9276, Control_c, 7, 1, 4
9, 9276, Control_c, 7, 1, 5
9, 9277, Control_c, 7, 1, 6
9, 9279, Control_c, 7, 1, 9
9, 9279, Control_c, 7, 1, 7
9, 9279, Control_c, 7, 1, 8
9, 9280, Control_c, 7, 1, 10
9, 9281, Control_c, 7, 1, 11
9, 9281, Control_c, 7, 1, 12
9, 9284, Control_c, 7, 1, 14
9, 9284, Control_c, 7, 1, 13
9, 9287, Control_c, 7, 1, 15
9, 9288, Control_c, 7, 1, 16
9, 9296, Control_c, 7, 1, 15
9, 9298, Control_c, 7, 1, 14
9, 9299, Control_c, 7, 1, 12
9, 9299, Control_c, 7, 1, 13
9, 9301, Control_c, 7, 1, 11
9, 9302, Control_c, 7, 1, 10
9, 9302, Control_c, 7, 1, 9
9, 9303, Control_c, 7, 1, 8
9, 9305, Control_c, 7, 1, 7
9, 9324, Control_c, 7, 1, 6
9, 9325, Control_c, 7, 1, 5
9, 9328, Control_c, 7, 1, 4
9, 9330, Control_c, 7, 1, 3
9, 9331, Control_c, 7, 1, 2
9, 9331, Control_c, 7, 1, 1
9, 9334, Control_c, 7, 1, 0
9, 9360, Note_on_c, 7, 58, 0
9, 9360, Note_on_c, 7, 59, 65
9, 9397, Control_c, 7, 1, 1
9, 9399, Control_c, 7, 1, 2
9, 9400, Control_c, 7, 1, 5
9, 9400, Control_c, 7, 1, 4
9, 9400, Control_c, 7, 1, 3
9, 9401, Control_c, 7, 1, 6
9, 9401, Control_c, 7, 1, 7
9, 9403, Control_c, 7, 1, 8
9, 9403, Control_c, 7, 1, 11
9, 9403, Control_c, 7, 1, 9
9, 9403, Control_c, 7, 1, 10
9, 9404, Control_c, 7, 1, 12
9, 9405, Control_c, 7, 1, 13
9, 9407, Control_c, 7, 1, 14
9, 9407, Control_c, 7, 1, 15
9, 9408, Control_c, 7, 1, 16
9, 9410, Control_c, 7, 1, 17
9, 9412, Control_c, 7, 1, 18
9, 9415, Control_c, 7, 1, 19
9, 9418, Control_c, 7, 1, 20
9, 9421, Control_c, 7, 1, 21
9, 9430, Control_c, 7, 1, 20
9, 9432, Control_c, 7, 1, 18
9, 9432, Control_c, 7, 1, 19
9, 9432, Control_c, 7, 1, 17
9, 9433, Control_c, 7, 1, 16
9, 9434, Control_c, 7, 1, 14
9, 9434, Control_c, 7, 1, 15
9, 9434, Control_c, 7, 1, 13
9, 9436, Control_c, 7, 1, 12
9, 9437, Control_c, 7, 1, 10
9, 9437, Control_c, 7, 1, 11
9, 9439, Control_c, 7, 1, 9
9, 9439, Control_c, 7, 1, 8
9, 9440, Control_c, 7, 1, 4
9, 9440, Control_c, 7, 1, 7
9, 9440, Control_c, 7, 1, 6
9, 9440, Control_c, 7, 1, 5
9, 9441, Control_c, 7, 1, 3
9, 9443, Control_c, 7, 1, 2
9, 9444, Control_c, 7, 1, 0
9, 9444, Control_c, 7, 1, 1
9, 9463, Note_on_c, 7, 59, 0
9, 14999, Note_on_c, 7, 63, 71
9, 15234, Note_on_c, 7, 63, 0
9, 15245, Note_on_c, 7, 64, 90
9, 15719, Note_on_c, 7, 66, 71
9, 15730, Note_on_c, 7, 64, 0
9, 15838, Note_on_c, 7, 66, 0
9, 15838, Note_on_c, 7, 67, 73
9, 15959, Note_on_c, 7, 66, 68
9, 15965, Note_on_c, 7, 67, 0
9, 16201, Note_on_c, 7, 69, 64
9, 16208, Note_on_c, 7, 66, 0
9, 16439, Note_on_c, 7, 64, 62
9, 16441, Note_on_c, 7, 69, 0
9, 16558, Note_on_c, 7, 64, 0
9, 16559, Note_on_c, 7, 62, 62
9, 16679, Note_on_c, 7, 66, 53
9, 16687, Note_on_c, 7, 62, 0
9, 16921, Note_on_c, 7, 65, 47
9, 16924, Note_on_c, 7, 66, 0
9, 17143, Note_on_c, 7, 65, 0
9, 18659, Note_on_c, 7, 66, 70
9, 18719, Note_on_c, 7, 54, 82
9, 18732, Note_on_c, 7, 66, 0
9, 18779, Note_on_c, 7, 55, 74
9, 18781, Note_on_c, 7, 54, 0
9, 18841, Note_on_c, 7, 56, 77
9, 18848, Note_on_c, 7, 55, 0
9, 18898, Note_on_c, 7, 56, 0
9, 18899, Note_on_c, 7, 66, 70
9, 18959, Note_on_c, 7, 57, 74
9, 18970, Note_on_c, 7, 66, 0
9, 19019, Note_on_c, 7, 58, 76
9, 19028, Note_on_c, 7, 57, 0
9, 19078, Note_on_c, 7, 58, 0
9, 19079, Note_on_c, 7, 59, 93
9, 19199, Note_on_c, 7, 59, 0
9, 19199, Note_on_c, 7, 61, 75
9, 19318, Note_on_c, 7, 62, 90
9, 19321, Note_on_c, 7, 61, 0
9, 19439, Note_on_c, 7, 64, 85
9, 19445, Note_on_c, 7, 62, 0
9, 19559, Note_on_c, 7, 66, 81
9, 19566, Note_on_c, 7, 64, 0
9, 19677, Note_on_c, 7, 66, 0
9, 19679, Note_on_c, 7, 69, 76
9, 19799, Note_on_c, 7, 64, 77
9, 19807, Note_on_c, 7, 69, 0
9, 19983, Note_on_c, 7, 62, 79
9, 19995, Note_on_c, 7, 64, 0
9, 20032, Note_on_c, 7, 62, 0
9, 20040, Note_on_c, 7, 64, 74
9, 20756, Note_on_c, 7, 64, 0
9, 20759, Note_on_c, 7, 55, 87
9, 20819, Note_on_c, 7, 66, 75
9, 20825, Note_on_c, 7, 55, 0
9, 20879, Note_on_c, 7, 60, 69
9, 20881, Note_on_c, 7, 66, 0
9, 20939, Note_on_c, 7, 61, 74
9, 20940, Note_on_c, 7, 60, 0
9, 20999, Note_on_c, 7, 62, 93
9, 21004, Note_on_c, 7, 61, 0
9, 21119, Note_on_c, 7, 64, 86
9, 21123, Note_on_c, 7, 62, 0
9, 21239, Note_on_c, 7, 66, 98
9, 21243, Note_on_c, 7, 64, 0
9, 21354, Note_on_c, 7, 66, 0
9, 21358, Note_on_c, 7, 69, 98
9, 21479, Note_on_c, 7, 71, 86
9, 21484, Note_on_c, 7, 69, 0
9, 21596, Note_on_c, 7, 71, 0
9, 21599, Note_on_c, 7, 74, 85
9, 21719, Note_on_c, 7, 71, 75
9, 21725, Note_on_c, 7, 74, 0
9, 21899, Note_on_c, 7, 69, 65
9, 21899, Note_on_c, 7, 71, 0
9, 21959, Note_on_c, 7, 71, 83
9, 21964, Note_on_c, 7, 69, 0
9, 22861, Note_on_c, 7, 71, 0
9, 22925, Note_on_c, 7, 64, 88
9, 23399, Note_on_c, 7, 66, 68
9, 23410, Note_on_c, 7, 64, 0
9, 23518, Note_on_c, 7, 66, 0
9, 23518, Note_on_c, 7, 67, 71
9, 23639, Note_on_c, 7, 66, 68
9, 23645, Note_on_c, 7, 67, 0
9, 23881, Note_on_c, 7, 69, 64
9, 23888, Note_on_c, 7, 66, 0
9, 24119, Note_on_c, 7, 64, 64
9, 24121, Note_on_c, 7, 69, 0
9, 24238, Note_on_c, 7, 64, 0
9, 24239, Note_on_c, 7, 62, 65
9, 24359, Note_on_c, 7, 66, 57
9, 24367, Note_on_c, 7, 62, 0
9, 24601, Note_on_c, 7, 65, 50
9, 24604, Note_on_c, 7, 66, 0
9, 24823, Note_on_c, 7, 65, 0
9, 26280, Note_on_c, 7, 62, 63
9, 27240, Note_on_c, 7, 64, 54
9, 27243, Text_t, "%+"
9, 27263, Note_on_c, 7, 62, 0
9, 27716, Note_on_c, 7, 64, 0
9, 27716, End_track
10, 0, Start_track
10, 0, Control_c, 8, 0, 0
10, 0, Program_c, 8, 56
10, 0, Sequencer_specific, 20, 74, 65, 90, 50, 1, 0, 0, 0, 0, 0, 0, 0, 0, 0, 0, 0, 0, 0, 0, 0
10, 0, Title_t, "Trumpet"
10, 0, Control_c, 8, 7, 116
10, 0, Control_c, 8, 121, 0
10, 0, Control_c, 8, 10, 100
10, 0, MIDI_port, 0
10, 6, Control_c, 8, 11, 127
10, 8, Control_c, 8, 91, 80
10, 10, Control_c, 8, 93, 20
10, 15001, Note_on_c, 8, 57, 72
10, 15716, Note_on_c, 8, 57, 0
10, 15721, Note_on_c, 8, 58, 79
10, 16199, Note_on_c, 8, 64, 69
10, 16204, Note_on_c, 8, 58, 0
10, 16439, Note_on_c, 8, 58, 58
10, 16443, Note_on_c, 8, 64, 0
10, 16559, Note_on_c, 8, 57, 54
10, 16566, Note_on_c, 8, 58, 0
10, 16679, Note_on_c, 8, 61, 53
10, 16687, Note_on_c, 8, 57, 0
10, 17137, Note_on_c, 8, 61, 0
10, 20161, Note_on_c, 8, 68, 63
10, 20216, Note_on_c, 8, 68, 0
10, 20221, Note_on_c, 8, 68, 74
10, 20270, Note_on_c, 8, 68, 0
10, 20281, Note_on_c, 8, 68, 81
10, 20339, Note_on_c, 8, 70, 86
10, 20339, Note_on_c, 8, 68, 0
10, 20393, Note_on_c, 8, 70, 0
10, 20400, Note_on_c, 8, 70, 100
10, 20459, Note_on_c, 8, 71, 108
10, 20460, Note_on_c, 8, 70, 0
10, 20519, Note_on_c, 8, 72, 105
10, 20521, Note_on_c, 8, 71, 0
10, 20639, Note_on_c, 8, 73, 109
10, 20643, Note_on_c, 8, 72, 0
10, 20813, Control_c, 8, 1, 1
10, 20813, Control_c, 8, 1, 2
10, 20814, Control_c, 8, 1, 4
10, 20814, Control_c, 8, 1, 3
10, 20817, Control_c, 8, 1, 6
10, 20817, Control_c, 8, 1, 7
10, 20817, Control_c, 8, 1, 5
10, 20820, Control_c, 8, 1, 9
10, 20820, Control_c, 8, 1, 10
10, 20820, Control_c, 8, 1, 8
10, 20820, Control_c, 8, 1, 11
10, 20820, Control_c, 8, 1, 12
10, 20824, Control_c, 8, 1, 13
10, 20825, Control_c, 8, 1, 15
10, 20825, Control_c, 8, 1, 14
10, 20828, Control_c, 8, 1, 16
10, 20829, Control_c, 8, 1, 17
10, 20831, Control_c, 8, 1, 18
10, 20832, Control_c, 8, 1, 19
10, 20835, Control_c, 8, 1, 20
10, 20861, Control_c, 8, 1, 21
10, 20864, Control_c, 8, 1, 22
10, 20894, Control_c, 8, 1, 21
10, 20898, Control_c, 8, 1, 20
10, 20901, Control_c, 8, 1, 19
10, 20902, Control_c, 8, 1, 18
10, 20904, Control_c, 8, 1, 17
10, 20905, Control_c, 8, 1, 16
10, 20905, Control_c, 8, 1, 15
10, 20905, Control_c, 8, 1, 14
10, 20907, Control_c, 8, 1, 10
10, 20907, Control_c, 8, 1, 13
10, 20907, Control_c, 8, 1, 11
10, 20907, Control_c, 8, 1, 12
10, 20908, Control_c, 8, 1, 9
10, 20908, Control_c, 8, 1, 7
10, 20908, Control_c, 8, 1, 6
10, 20908, Control_c, 8, 1, 8
10, 20909, Control_c, 8, 1, 5
10, 20909, Control_c, 8, 1, 3
10, 20909, Control_c, 8, 1, 4
10, 20911, Control_c, 8, 1, 1
10, 20911, Control_c, 8, 1, 2
10, 20922, Control_c, 8, 1, 0
10, 20972, Note_on_c, 8, 73, 0
10, 22083, Note_on_c, 8, 76, 85
10, 22083, Note_on_c, 8, 79, 100
10, 22138, Note_on_c, 8, 76, 0
10, 22145, Note_on_c, 8, 72, 75
10, 22146, Note_on_c, 8, 79, 0
10, 22146, Note_on_c, 8, 76, 76
10, 22180, Note_on_c, 8, 72, 0
10, 22192, Note_on_c, 8, 76, 0
10, 22207, Note_on_c, 8, 72, 81
10, 22210, Note_on_c, 8, 76, 96
10, 22261, Note_on_c, 8, 78, 96
10, 22261, Note_on_c, 8, 76, 0
10, 22266, Note_on_c, 8, 74, 86
10, 22272, Note_on_c, 8, 72, 0
10, 22306, Note_on_c, 8, 78, 0
10, 22307, Note_on_c, 8, 74, 0
10, 22323, Note_on_c, 8, 78, 97
10, 22327, Note_on_c, 8, 74, 86
10, 22382, Note_on_c, 8, 78, 0
10, 22384, Note_on_c, 8, 79, 101
10, 22386, Note_on_c, 8, 75, 79
10, 22387, Note_on_c, 8, 74, 0
10, 22446, Note_on_c, 8, 80, 117
10, 22449, Note_on_c, 8, 76, 90
10, 22449, Note_on_c, 8, 75, 0
10, 22450, Note_on_c, 8, 79, 0
10, 22453, Control_c, 8, 1, 2
10, 22453, Control_c, 8, 1, 3
10, 22453, Control_c, 8, 1, 1
10, 22454, Control_c, 8, 1, 4
10, 22454, Control_c, 8, 1, 5
10, 22456, Control_c, 8, 1, 6
10, 22456, Control_c, 8, 1, 8
10, 22456, Control_c, 8, 1, 7
10, 22457, Control_c, 8, 1, 9
10, 22457, Control_c, 8, 1, 10
10, 22459, Control_c, 8, 1, 11
10, 22459, Control_c, 8, 1, 12
10, 22460, Control_c, 8, 1, 13
10, 22460, Control_c, 8, 1, 14
10, 22462, Control_c, 8, 1, 16
10, 22462, Control_c, 8, 1, 15
10, 22462, Control_c, 8, 1, 17
10, 22464, Control_c, 8, 1, 19
10, 22464, Control_c, 8, 1, 18
10, 22466, Control_c, 8, 1, 20
10, 22467, Control_c, 8, 1, 21
10, 22467, Control_c, 8, 1, 22
10, 22469, Control_c, 8, 1, 23
10, 22470, Control_c, 8, 1, 24
10, 22472, Control_c, 8, 1, 25
10, 22473, Control_c, 8, 1, 26
10, 22475, Control_c, 8, 1, 27
10, 22477, Control_c, 8, 1, 28
10, 22482, Control_c, 8, 1, 29
10, 22485, Control_c, 8, 1, 30
10, 22486, Control_c, 8, 1, 31
10, 22489, Control_c, 8, 1, 32
10, 22509, Control_c, 8, 1, 33
10, 22547, Control_c, 8, 1, 32
10, 22562, Note_on_c, 8, 80, 0
10, 22564, Note_on_c, 8, 81, 111
10, 22574, Control_c, 8, 1, 33
10, 22662, Control_c, 8, 1, 34
10, 22668, Control_c, 8, 1, 35
10, 22672, Control_c, 8, 1, 36
10, 22676, Control_c, 8, 1, 37
10, 22679, Control_c, 8, 1, 38
10, 22682, Control_c, 8, 1, 39
10, 22685, Control_c, 8, 1, 40
10, 22688, Control_c, 8, 1, 41
10, 22691, Control_c, 8, 1, 42
10, 22698, Control_c, 8, 1, 43
10, 22702, Control_c, 8, 1, 44
10, 22706, Control_c, 8, 1, 45
10, 22709, Control_c, 8, 1, 46
10, 22711, Control_c, 8, 1, 47
10, 22712, Control_c, 8, 1, 48
10, 22714, Control_c, 8, 1, 49
10, 22715, Control_c, 8, 1, 50
10, 22718, Control_c, 8, 1, 51
10, 22719, Control_c, 8, 1, 52
10, 22722, Control_c, 8, 1, 53
10, 22725, Control_c, 8, 1, 54
10, 22728, Control_c, 8, 1, 55
10, 22777, Control_c, 8, 1, 54
10, 22780, Control_c, 8, 1, 53
10, 22791, Control_c, 8, 1, 52
10, 22793, Control_c, 8, 1, 51
10, 22794, Control_c, 8, 1, 50
10, 22796, Control_c, 8, 1, 49
10, 22797, Control_c, 8, 1, 48
10, 22799, Control_c, 8, 1, 47
10, 22800, Control_c, 8, 1, 46
10, 22803, Control_c, 8, 1, 45
10, 22813, Control_c, 8, 1, 44
10, 22814, Control_c, 8, 1, 43
10, 22816, Control_c, 8, 1, 42
10, 22817, Control_c, 8, 1, 41
10, 22819, Control_c, 8, 1, 40
10, 22820, Control_c, 8, 1, 38
10, 22820, Control_c, 8, 1, 39
10, 22822, Control_c, 8, 1, 37
10, 22823, Control_c, 8, 1, 36
10, 22833, Control_c, 8, 1, 37
10, 22882, Control_c, 8, 1, 36
10, 22884, Control_c, 8, 1, 35
10, 22885, Control_c, 8, 1, 32
10, 22885, Control_c, 8, 1, 31
10, 22885, Control_c, 8, 1, 33
10, 22885, Control_c, 8, 1, 34
10, 22888, Control_c, 8, 1, 30
10, 22888, Control_c, 8, 1, 29
10, 22889, Control_c, 8, 1, 28
10, 22891, Control_c, 8, 1, 27
10, 22891, Control_c, 8, 1, 26
10, 22892, Control_c, 8, 1, 25
10, 22892, Control_c, 8, 1, 24
10, 22894, Control_c, 8, 1, 23
10, 22896, Control_c, 8, 1, 22
10, 22898, Control_c, 8, 1, 20
10, 22898, Control_c, 8, 1, 21
10, 22899, Control_c, 8, 1, 19
10, 22899, Control_c, 8, 1, 18
10, 22901, Control_c, 8, 1, 15
10, 22901, Control_c, 8, 1, 16
10, 22901, Note_on_c, 8, 76, 0
10, 22901, Control_c, 8, 1, 17
10, 22902, Control_c, 8, 1, 4
10, 22902, Control_c, 8, 1, 14
10, 22902, Control_c, 8, 1, 3
10, 22902, Control_c, 8, 1, 10
10, 22902, Control_c, 8, 1, 12
10, 22902, Control_c, 8, 1, 13
10, 22902, Control_c, 8, 1, 7
10, 22902, Control_c, 8, 1, 5
10, 22902, Control_c, 8, 1, 9
10, 22905, Control_c, 8, 1, 0
10, 22905, Control_c, 8, 1, 1
10, 22908, Note_on_c, 8, 81, 0
10, 23401, Note_on_c, 8, 58, 75
10, 23879, Note_on_c, 8, 64, 70
10, 23884, Note_on_c, 8, 58, 0
10, 24119, Note_on_c, 8, 58, 60
10, 24123, Note_on_c, 8, 64, 0
10, 24239, Note_on_c, 8, 57, 56
10, 24246, Note_on_c, 8, 58, 0
10, 24359, Note_on_c, 8, 61, 57
10, 24367, Note_on_c, 8, 57, 0
10, 24817, Note_on_c, 8, 61, 0
10, 24817, End_track
11, 0, Start_track
11, 0, Copyright_t, "Copyright (C) http://www.midimart.net"
11, 0, Control_c, 9, 0, 0
11, 0, Program_c, 9, 40
11, 0, Sequencer_specific, 20, 74, 65, 90, 50, 1, 0, 0, 0, 0, 0, 0, 0, 0, 0, 0, 0, 0, 0, 0, 0
11, 0, Control_c, 9, 121, 0
11, 0, Control_c, 9, 10, 64
11, 0, MIDI_port, 0
11, 0, Title_t, "Brush Set"
11, 0, Control_c, 9, 7, 109
11, 6, Control_c, 9, 11, 127
11, 8, Control_c, 9, 91, 80
11, 10, Control_c, 9, 93, 0
11, 4200, Text_t, "mail@midimart.net"
11, 7080, Text_t, "copyright MidiMart.net"
11, 7560, Note_on_c, 9, 51, 54
11, 7566, Note_on_c, 9, 51, 0
11, 7680, Note_on_c, 9, 38, 74
11, 7680, Note_on_c, 9, 51, 47
11, 7680, Note_on_c, 9, 40, 49
11, 7686, Note_on_c, 9, 38, 0
11, 7686, Note_on_c, 9, 40, 0
11, 7686, Note_on_c, 9, 51, 0
11, 7800, Note_on_c, 9, 51, 41
11, 7806, Note_on_c, 9, 51, 0
11, 7920, Note_on_c, 9, 38, 75
11, 7920, Note_on_c, 9, 40, 50
11, 7920, Note_on_c, 9, 51, 52
11, 7926, Note_on_c, 9, 38, 0
11, 7926, Note_on_c, 9, 51, 0
11, 7926, Note_on_c, 9, 40, 0
11, 8040, Note_on_c, 9, 36, 60
11, 8040, Note_on_c, 9, 51, 49
11, 8046, Note_on_c, 9, 36, 0
11, 8046, Note_on_c, 9, 51, 0
11, 8160, Note_on_c, 9, 38, 62
11, 8160, Note_on_c, 9, 40, 51
11, 8160, Note_on_c, 9, 51, 49
11, 8166, Note_on_c, 9, 51, 0
11, 8166, Note_on_c, 9, 40, 0
11, 8166, Note_on_c, 9, 38, 0
11, 8280, Note_on_c, 9, 51, 47
11, 8286, Note_on_c, 9, 51, 0
11, 8400, Note_on_c, 9, 51, 52
11, 8400, Note_on_c, 9, 38, 72
11, 8400, Note_on_c, 9, 40, 50
11, 8406, Note_on_c, 9, 51, 0
11, 8406, Note_on_c, 9, 38, 0
11, 8406, Note_on_c, 9, 40, 0
11, 8520, Note_on_c, 9, 36, 59
11, 8520, Note_on_c, 9, 51, 48
11, 8526, Note_on_c, 9, 51, 0
11, 8526, Note_on_c, 9, 36, 0
11, 8640, Note_on_c, 9, 40, 51
11, 8640, Note_on_c, 9, 51, 50
11, 8640, Note_on_c, 9, 38, 65
11, 8646, Note_on_c, 9, 40, 0
11, 8646, Note_on_c, 9, 51, 0
11, 8646, Note_on_c, 9, 38, 0
11, 8760, Note_on_c, 9, 51, 46
11, 8766, Note_on_c, 9, 51, 0
11, 8880, Note_on_c, 9, 40, 49
11, 8880, Note_on_c, 9, 38, 67
11, 8880, Note_on_c, 9, 51, 51
11, 8886, Note_on_c, 9, 38, 0
11, 8886, Note_on_c, 9, 51, 0
11, 8886, Note_on_c, 9, 40, 0
11, 9000, Note_on_c, 9, 51, 51
11, 9000, Note_on_c, 9, 36, 65
11, 9006, Note_on_c, 9, 36, 0
11, 9006, Note_on_c, 9, 51, 0
11, 9120, Note_on_c, 9, 38, 64
11, 9120, Note_on_c, 9, 51, 47
11, 9120, Note_on_c, 9, 40, 48
11, 9126, Note_on_c, 9, 38, 0
11, 9126, Note_on_c, 9, 40, 0
11, 9126, Note_on_c, 9, 51, 0
11, 9240, Note_on_c, 9, 51, 57
11, 9246, Note_on_c, 9, 51, 0
11, 9360, Note_on_c, 9, 51, 51
11, 9360, Note_on_c, 9, 40, 49
11, 9360, Note_on_c, 9, 38, 74
11, 9366, Note_on_c, 9, 38, 0
11, 9366, Note_on_c, 9, 51, 0
11, 9366, Note_on_c, 9, 40, 0
11, 9480, Note_on_c, 9, 51, 38
11, 9480, Note_on_c, 9, 36, 51
11, 9486, Note_on_c, 9, 51, 0
11, 9486, Note_on_c, 9, 36, 0
11, 9600, Note_on_c, 9, 40, 40
11, 9600, Note_on_c, 9, 51, 45
11, 9600, Note_on_c, 9, 38, 58
11, 9606, Note_on_c, 9, 40, 0
11, 9606, Note_on_c, 9, 38, 0
11, 9606, Note_on_c, 9, 51, 0
11, 9720, Note_on_c, 9, 51, 44
11, 9726, Note_on_c, 9, 51, 0
11, 9840, Note_on_c, 9, 40, 37
11, 9840, Note_on_c, 9, 38, 67
11, 9840, Note_on_c, 9, 51, 42
11, 9846, Note_on_c, 9, 40, 0
11, 9846, Note_on_c, 9, 38, 0
11, 9846, Note_on_c, 9, 51, 0
11, 9960, Note_on_c, 9, 36, 62
11, 9960, Text_t, "mail@midimart.net"
11, 9960, Note_on_c, 9, 51, 48
11, 9966, Note_on_c, 9, 36, 0
11, 9966, Note_on_c, 9, 51, 0
11, 10080, Note_on_c, 9, 40, 41
11, 10080, Note_on_c, 9, 38, 56
11, 10080, Note_on_c, 9, 51, 52
11, 10086, Note_on_c, 9, 40, 0
11, 10086, Note_on_c, 9, 51, 0
11, 10086, Note_on_c, 9, 38, 0
11, 10200, Note_on_c, 9, 51, 48
11, 10206, Note_on_c, 9, 51, 0
11, 10320, Note_on_c, 9, 40, 44
11, 10320, Note_on_c, 9, 38, 71
11, 10320, Note_on_c, 9, 51, 53
11, 10326, Note_on_c, 9, 51, 0
11, 10326, Note_on_c, 9, 38, 0
11, 10326, Note_on_c, 9, 40, 0
11, 10440, Note_on_c, 9, 36, 59
11, 10440, Note_on_c, 9, 51, 55
11, 10446, Note_on_c, 9, 36, 0
11, 10446, Note_on_c, 9, 51, 0
11, 10560, Note_on_c, 9, 40, 43
11, 10560, Note_on_c, 9, 38, 69
11, 10560, Note_on_c, 9, 51, 55
11, 10566, Note_on_c, 9, 40, 0
11, 10566, Note_on_c, 9, 51, 0
11, 10566, Note_on_c, 9, 38, 0
11, 10680, Note_on_c, 9, 51, 55
11, 10686, Note_on_c, 9, 51, 0
11, 10800, Note_on_c, 9, 51, 53
11, 10800, Note_on_c, 9, 40, 41
11, 10800, Note_on_c, 9, 38, 63
11, 10806, Note_on_c, 9, 38, 0
11, 10806, Note_on_c, 9, 51, 0
11, 10806, Note_on_c, 9, 40, 0
11, 10920, Note_on_c, 9, 51, 53
11, 10920, Note_on_c, 9, 36, 62
11, 10926, Note_on_c, 9, 36, 0
11, 10926, Note_on_c, 9, 51, 0
11, 11040, Note_on_c, 9, 40, 41
11, 11040, Note_on_c, 9, 51, 51
11, 11040, Note_on_c, 9, 38, 58
11, 11046, Note_on_c, 9, 40, 0
11, 11046, Note_on_c, 9, 38, 0
11, 11046, Note_on_c, 9, 51, 0
11, 11160, Note_on_c, 9, 51, 47
11, 11160, Note_on_c, 9, 38, 56
11, 11166, Note_on_c, 9, 51, 0
11, 11166, Note_on_c, 9, 38, 0
11, 11240, Note_on_c, 9, 51, 49
11, 11246, Note_on_c, 9, 51, 0
11, 11360, Note_on_c, 9, 51, 49
11, 11366, Note_on_c, 9, 51, 0
11, 11400, Note_on_c, 9, 51, 43
11, 11406, Note_on_c, 9, 51, 0
11, 11520, Note_on_c, 9, 40, 36
11, 11520, Note_on_c, 9, 51, 36
11, 11520, Note_on_c, 9, 38, 57
11, 11526, Note_on_c, 9, 38, 0
11, 11526, Note_on_c, 9, 40, 0
11, 11526, Note_on_c, 9, 51, 0
11, 11640, Note_on_c, 9, 51, 31
11, 11646, Note_on_c, 9, 51, 0
11, 11760, Note_on_c, 9, 51, 37
11, 11760, Note_on_c, 9, 38, 54
11, 11760, Note_on_c, 9, 40, 33
11, 11766, Note_on_c, 9, 38, 0
11, 11766, Note_on_c, 9, 51, 0
11, 11766, Note_on_c, 9, 40, 0
11, 11880, Note_on_c, 9, 36, 42
11, 11880, Note_on_c, 9, 51, 34
11, 11886, Note_on_c, 9, 36, 0
11, 11886, Note_on_c, 9, 51, 0
11, 12000, Note_on_c, 9, 51, 34
11, 12000, Note_on_c, 9, 40, 33
11, 12000, Note_on_c, 9, 38, 44
11, 12006, Note_on_c, 9, 40, 0
11, 12006, Note_on_c, 9, 51, 0
11, 12006, Note_on_c, 9, 38, 0
11, 12120, Note_on_c, 9, 51, 33
11, 12126, Note_on_c, 9, 51, 0
11, 12240, Note_on_c, 9, 40, 33
11, 12240, Note_on_c, 9, 51, 37
11, 12240, Note_on_c, 9, 38, 52
11, 12246, Note_on_c, 9, 40, 0
11, 12246, Note_on_c, 9, 38, 0
11, 12246, Note_on_c, 9, 51, 0
11, 12360, Note_on_c, 9, 36, 43
11, 12360, Note_on_c, 9, 51, 35
11, 12366, Note_on_c, 9, 51, 0
11, 12366, Note_on_c, 9, 36, 0
11, 12480, Note_on_c, 9, 40, 36
11, 12480, Note_on_c, 9, 51, 38
11, 12480, Note_on_c, 9, 38, 49
11, 12486, Note_on_c, 9, 40, 0
11, 12486, Note_on_c, 9, 38, 0
11, 12486, Note_on_c, 9, 51, 0
11, 12600, Note_on_c, 9, 51, 35
11, 12606, Note_on_c, 9, 51, 0
11, 12720, Note_on_c, 9, 40, 36
11, 12720, Note_on_c, 9, 51, 39
11, 12720, Note_on_c, 9, 38, 52
11, 12726, Note_on_c, 9, 51, 0
11, 12726, Note_on_c, 9, 40, 0
11, 12726, Note_on_c, 9, 38, 0
11, 12840, Note_on_c, 9, 51, 40
11, 12840, Note_on_c, 9, 36, 51
11, 12846, Note_on_c, 9, 51, 0
11, 12846, Note_on_c, 9, 36, 0
11, 12960, Note_on_c, 9, 38, 51
11, 12960, Note_on_c, 9, 51, 38
11, 12960, Note_on_c, 9, 40, 36
11, 12966, Note_on_c, 9, 51, 0
11, 12966, Note_on_c, 9, 38, 0
11, 12966, Note_on_c, 9, 40, 0
11, 13080, Note_on_c, 9, 51, 46
11, 13086, Note_on_c, 9, 51, 0
11, 13200, Note_on_c, 9, 51, 42
11, 13200, Note_on_c, 9, 40, 38
11, 13200, Note_on_c, 9, 38, 61
11, 13206, Note_on_c, 9, 40, 0
11, 13206, Note_on_c, 9, 51, 0
11, 13206, Note_on_c, 9, 38, 0
11, 13320, Note_on_c, 9, 51, 45
11, 13326, Note_on_c, 9, 51, 0
11, 13440, Note_on_c, 9, 51, 40
11, 13440, Note_on_c, 9, 40, 40
11, 13440, Note_on_c, 9, 38, 63
11, 13446, Note_on_c, 9, 38, 0
11, 13446, Note_on_c, 9, 40, 0
11, 13446, Note_on_c, 9, 51, 0
11, 13560, Note_on_c, 9, 51, 35
11, 13566, Note_on_c, 9, 51, 0
11, 13680, Note_on_c, 9, 51, 45
11, 13680, Note_on_c, 9, 38, 66
11, 13680, Note_on_c, 9, 40, 42
11, 13686, Note_on_c, 9, 51, 0
11, 13686, Note_on_c, 9, 38, 0
11, 13686, Note_on_c, 9, 40, 0
11, 13800, Note_on_c, 9, 51, 43
11, 13800, Note_on_c, 9, 36, 53
11, 13806, Note_on_c, 9, 51, 0
11, 13806, Note_on_c, 9, 36, 0
11, 13920, Note_on_c, 9, 51, 44
11, 13920, Note_on_c, 9, 38, 56
11, 13920, Note_on_c, 9, 40, 45
11, 13926, Note_on_c, 9, 51, 0
11, 13926, Note_on_c, 9, 40, 0
11, 13926, Note_on_c, 9, 38, 0
11, 14040, Note_on_c, 9, 51, 43
11, 14046, Note_on_c, 9, 51, 0
11, 14160, Note_on_c, 9, 51, 48
11, 14160, Note_on_c, 9, 40, 45
11, 14160, Note_on_c, 9, 38, 66
11, 14166, Note_on_c, 9, 51, 0
11, 14166, Note_on_c, 9, 38, 0
11, 14166, Note_on_c, 9, 40, 0
11, 14280, Note_on_c, 9, 51, 45
11, 14280, Text_t, "copyright MidiMart.net"
11, 14280, Note_on_c, 9, 36, 55
11, 14286, Note_on_c, 9, 51, 0
11, 14286, Note_on_c, 9, 36, 0
11, 14400, Note_on_c, 9, 38, 63
11, 14400, Note_on_c, 9, 40, 49
11, 14400, Note_on_c, 9, 51, 49
11, 14406, Note_on_c, 9, 51, 0
11, 14406, Note_on_c, 9, 38, 0
11, 14406, Note_on_c, 9, 40, 0
11, 14520, Note_on_c, 9, 51, 47
11, 14526, Note_on_c, 9, 51, 0
11, 14640, Note_on_c, 9, 38, 72
11, 14640, Note_on_c, 9, 51, 54
11, 14640, Note_on_c, 9, 40, 53
11, 14646, Note_on_c, 9, 51, 0
11, 14646, Note_on_c, 9, 38, 0
11, 14646, Note_on_c, 9, 40, 0
11, 14760, Note_on_c, 9, 51, 58
11, 14760, Note_on_c, 9, 36, 74
11, 14766, Note_on_c, 9, 51, 0
11, 14766, Note_on_c, 9, 36, 0
11, 14880, Note_on_c, 9, 40, 58
11, 14880, Note_on_c, 9, 38, 75
11, 14880, Note_on_c, 9, 51, 55
11, 14886, Note_on_c, 9, 40, 0
11, 14886, Note_on_c, 9, 51, 0
11, 14886, Note_on_c, 9, 38, 0
11, 15000, Note_on_c, 9, 51, 69
11, 15006, Note_on_c, 9, 51, 0
11, 15120, Note_on_c, 9, 51, 64
11, 15120, Note_on_c, 9, 38, 93
11, 15120, Note_on_c, 9, 40, 64
11, 15126, Note_on_c, 9, 40, 0
11, 15126, Note_on_c, 9, 38, 0
11, 15126, Note_on_c, 9, 51, 0
11, 15240, Note_on_c, 9, 51, 70
11, 15246, Note_on_c, 9, 51, 0
11, 15360, Note_on_c, 9, 51, 60
11, 15360, Note_on_c, 9, 38, 95
11, 15360, Note_on_c, 9, 40, 66
11, 15366, Note_on_c, 9, 51, 0
11, 15366, Note_on_c, 9, 38, 0
11, 15366, Note_on_c, 9, 40, 0
11, 15480, Note_on_c, 9, 51, 52
11, 15486, Note_on_c, 9, 51, 0
11, 15600, Note_on_c, 9, 38, 93
11, 15600, Note_on_c, 9, 40, 65
11, 15600, Note_on_c, 9, 51, 65
11, 15606, Note_on_c, 9, 40, 0
11, 15606, Note_on_c, 9, 38, 0
11, 15606, Note_on_c, 9, 51, 0
11, 15720, Note_on_c, 9, 36, 73
11, 15720, Note_on_c, 9, 51, 60
11, 15726, Note_on_c, 9, 51, 0
11, 15726, Note_on_c, 9, 36, 0
11, 15840, Note_on_c, 9, 51, 58
11, 15840, Note_on_c, 9, 40, 62
11, 15840, Note_on_c, 9, 38, 74
11, 15846, Note_on_c, 9, 38, 0
11, 15846, Note_on_c, 9, 40, 0
11, 15846, Note_on_c, 9, 51, 0
11, 15960, Note_on_c, 9, 51, 53
11, 15966, Note_on_c, 9, 51, 0
11, 16080, Note_on_c, 9, 40, 57
11, 16080, Note_on_c, 9, 51, 57
11, 16080, Note_on_c, 9, 38, 79
11, 16086, Note_on_c, 9, 40, 0
11, 16086, Note_on_c, 9, 51, 0
11, 16086, Note_on_c, 9, 38, 0
11, 16200, Note_on_c, 9, 36, 62
11, 16200, Note_on_c, 9, 51, 51
11, 16206, Note_on_c, 9, 36, 0
11, 16206, Note_on_c, 9, 51, 0
11, 16320, Note_on_c, 9, 40, 54
11, 16320, Note_on_c, 9, 38, 68
11, 16320, Note_on_c, 9, 51, 52
11, 16326, Note_on_c, 9, 51, 0
11, 16326, Note_on_c, 9, 40, 0
11, 16326, Note_on_c, 9, 38, 0
11, 16440, Note_on_c, 9, 51, 45
11, 16446, Note_on_c, 9, 51, 0
11, 16560, Note_on_c, 9, 38, 64
11, 16560, Note_on_c, 9, 51, 49
11, 16560, Note_on_c, 9, 40, 48
11, 16566, Note_on_c, 9, 38, 0
11, 16566, Note_on_c, 9, 51, 0
11, 16566, Note_on_c, 9, 40, 0
11, 17160, Note_on_c, 9, 51, 46
11, 17166, Note_on_c, 9, 51, 0
11, 17280, Note_on_c, 9, 40, 42
11, 17280, Note_on_c, 9, 51, 40
11, 17280, Note_on_c, 9, 38, 63
11, 17286, Note_on_c, 9, 51, 0
11, 17286, Note_on_c, 9, 40, 0
11, 17286, Note_on_c, 9, 38, 0
11, 17400, Note_on_c, 9, 51, 35
11, 17406, Note_on_c, 9, 51, 0
11, 17520, Note_on_c, 9, 40, 44
11, 17520, Note_on_c, 9, 38, 66
11, 17520, Note_on_c, 9, 51, 45
11, 17526, Note_on_c, 9, 38, 0
11, 17526, Note_on_c, 9, 51, 0
11, 17526, Note_on_c, 9, 40, 0
11, 17640, Note_on_c, 9, 36, 53
11, 17640, Note_on_c, 9, 51, 43
11, 17646, Note_on_c, 9, 36, 0
11, 17646, Note_on_c, 9, 51, 0
11, 17760, Note_on_c, 9, 40, 45
11, 17760, Note_on_c, 9, 38, 55
11, 17760, Note_on_c, 9, 51, 44
11, 17766, Note_on_c, 9, 51, 0
11, 17766, Note_on_c, 9, 40, 0
11, 17766, Note_on_c, 9, 38, 0
11, 17880, Note_on_c, 9, 51, 42
11, 17886, Note_on_c, 9, 51, 0
11, 18000, Note_on_c, 9, 40, 46
11, 18000, Note_on_c, 9, 51, 47
11, 18000, Note_on_c, 9, 38, 66
11, 18006, Note_on_c, 9, 51, 0
11, 18006, Note_on_c, 9, 40, 0
11, 18006, Note_on_c, 9, 38, 0
11, 18120, Note_on_c, 9, 36, 54
11, 18120, Note_on_c, 9, 51, 44
11, 18126, Note_on_c, 9, 51, 0
11, 18126, Note_on_c, 9, 36, 0
11, 18240, Note_on_c, 9, 51, 46
11, 18240, Note_on_c, 9, 40, 47
11, 18240, Note_on_c, 9, 38, 60
11, 18246, Note_on_c, 9, 51, 0
11, 18246, Note_on_c, 9, 40, 0
11, 18246, Note_on_c, 9, 38, 0
11, 18360, Note_on_c, 9, 51, 43
11, 18366, Note_on_c, 9, 51, 0
11, 18480, Note_on_c, 9, 51, 48
11, 18480, Note_on_c, 9, 38, 63
11, 18480, Note_on_c, 9, 40, 46
11, 18486, Note_on_c, 9, 51, 0
11, 18486, Note_on_c, 9, 38, 0
11, 18486, Note_on_c, 9, 40, 0
11, 18600, Note_on_c, 9, 51, 48
11, 18600, Note_on_c, 9, 36, 62
11, 18606, Note_on_c, 9, 51, 0
11, 18606, Note_on_c, 9, 36, 0
11, 18720, Note_on_c, 9, 51, 45
11, 18720, Note_on_c, 9, 38, 62
11, 18720, Note_on_c, 9, 40, 46
11, 18726, Note_on_c, 9, 40, 0
11, 18726, Note_on_c, 9, 51, 0
11, 18726, Note_on_c, 9, 38, 0
11, 18840, Note_on_c, 9, 51, 55
11, 18846, Note_on_c, 9, 51, 0
11, 18960, Note_on_c, 9, 38, 73
11, 18960, Note_on_c, 9, 51, 50
11, 18960, Note_on_c, 9, 40, 48
11, 18966, Note_on_c, 9, 51, 0
11, 18966, Note_on_c, 9, 40, 0
11, 18966, Note_on_c, 9, 38, 0
11, 19080, Note_on_c, 9, 51, 54
11, 19086, Note_on_c, 9, 51, 0
11, 19200, Note_on_c, 9, 40, 49
11, 19200, Note_on_c, 9, 38, 74
11, 19200, Note_on_c, 9, 51, 47
11, 19206, Note_on_c, 9, 51, 0
11, 19206, Note_on_c, 9, 38, 0
11, 19206, Note_on_c, 9, 40, 0
11, 19320, Note_on_c, 9, 51, 41
11, 19326, Note_on_c, 9, 51, 0
11, 19440, Note_on_c, 9, 38, 75
11, 19440, Note_on_c, 9, 40, 50
11, 19440, Note_on_c, 9, 51, 52
11, 19446, Note_on_c, 9, 38, 0
11, 19446, Note_on_c, 9, 51, 0
11, 19446, Note_on_c, 9, 40, 0
11, 19560, Note_on_c, 9, 51, 49
11, 19560, Note_on_c, 9, 36, 60
11, 19566, Note_on_c, 9, 51, 0
11, 19566, Note_on_c, 9, 36, 0
11, 19680, Note_on_c, 9, 40, 51
11, 19680, Note_on_c, 9, 51, 49
11, 19680, Note_on_c, 9, 38, 62
11, 19686, Note_on_c, 9, 38, 0
11, 19686, Note_on_c, 9, 40, 0
11, 19686, Note_on_c, 9, 51, 0
11, 19800, Note_on_c, 9, 51, 47
11, 19806, Note_on_c, 9, 51, 0
11, 19920, Note_on_c, 9, 40, 50
11, 19920, Note_on_c, 9, 38, 72
11, 19920, Note_on_c, 9, 51, 52
11, 19926, Note_on_c, 9, 38, 0
11, 19926, Note_on_c, 9, 40, 0
11, 19926, Note_on_c, 9, 51, 0
11, 20040, Note_on_c, 9, 36, 59
11, 20040, Note_on_c, 9, 51, 48
11, 20046, Note_on_c, 9, 51, 0
11, 20046, Note_on_c, 9, 36, 0
11, 20160, Note_on_c, 9, 51, 50
11, 20160, Note_on_c, 9, 40, 51
11, 20160, Note_on_c, 9, 38, 65
11, 20166, Note_on_c, 9, 38, 0
11, 20166, Note_on_c, 9, 40, 0
11, 20166, Note_on_c, 9, 51, 0
11, 20280, Note_on_c, 9, 51, 46
11, 20286, Note_on_c, 9, 51, 0
11, 20400, Note_on_c, 9, 40, 49
11, 20400, Note_on_c, 9, 51, 51
11, 20400, Note_on_c, 9, 38, 67
11, 20406, Note_on_c, 9, 38, 0
11, 20406, Note_on_c, 9, 40, 0
11, 20406, Note_on_c, 9, 51, 0
11, 20520, Text_t, "mail@midimart.net"
11, 20520, Note_on_c, 9, 36, 65
11, 20520, Note_on_c, 9, 51, 51
11, 20526, Note_on_c, 9, 51, 0
11, 20526, Note_on_c, 9, 36, 0
11, 20640, Note_on_c, 9, 51, 47
11, 20640, Note_on_c, 9, 38, 64
11, 20640, Note_on_c, 9, 40, 48
11, 20646, Note_on_c, 9, 40, 0
11, 20646, Note_on_c, 9, 51, 0
11, 20646, Note_on_c, 9, 38, 0
11, 20760, Note_on_c, 9, 51, 57
11, 20766, Note_on_c, 9, 51, 0
11, 20880, Note_on_c, 9, 40, 49
11, 20880, Note_on_c, 9, 38, 74
11, 20880, Note_on_c, 9, 51, 51
11, 20886, Note_on_c, 9, 40, 0
11, 20886, Note_on_c, 9, 38, 0
11, 20886, Note_on_c, 9, 51, 0
11, 21000, Note_on_c, 9, 51, 54
11, 21006, Note_on_c, 9, 51, 0
11, 21120, Note_on_c, 9, 38, 74
11, 21120, Note_on_c, 9, 40, 49
11, 21120, Note_on_c, 9, 51, 47
11, 21126, Note_on_c, 9, 40, 0
11, 21126, Note_on_c, 9, 38, 0
11, 21126, Note_on_c, 9, 51, 0
11, 21240, Note_on_c, 9, 51, 41
11, 21246, Note_on_c, 9, 51, 0
11, 21360, Note_on_c, 9, 51, 52
11, 21360, Note_on_c, 9, 40, 50
11, 21360, Note_on_c, 9, 38, 75
11, 21366, Note_on_c, 9, 40, 0
11, 21366, Note_on_c, 9, 38, 0
11, 21366, Note_on_c, 9, 51, 0
11, 21480, Note_on_c, 9, 36, 60
11, 21480, Note_on_c, 9, 51, 49
11, 21486, Note_on_c, 9, 36, 0
11, 21486, Note_on_c, 9, 51, 0
11, 21600, Note_on_c, 9, 38, 62
11, 21600, Note_on_c, 9, 51, 49
11, 21600, Note_on_c, 9, 40, 51
11, 21606, Note_on_c, 9, 40, 0
11, 21606, Note_on_c, 9, 38, 0
11, 21606, Note_on_c, 9, 51, 0
11, 21720, Note_on_c, 9, 51, 47
11, 21726, Note_on_c, 9, 51, 0
11, 21840, Note_on_c, 9, 51, 52
11, 21840, Note_on_c, 9, 40, 50
11, 21840, Note_on_c, 9, 38, 72
11, 21846, Note_on_c, 9, 40, 0
11, 21846, Note_on_c, 9, 51, 0
11, 21846, Note_on_c, 9, 38, 0
11, 21960, Note_on_c, 9, 36, 59
11, 21960, Note_on_c, 9, 51, 48
11, 21966, Note_on_c, 9, 51, 0
11, 21966, Note_on_c, 9, 36, 0
11, 22080, Note_on_c, 9, 40, 51
11, 22080, Note_on_c, 9, 38, 65
11, 22080, Note_on_c, 9, 51, 50
11, 22086, Note_on_c, 9, 51, 0
11, 22086, Note_on_c, 9, 38, 0
11, 22086, Note_on_c, 9, 40, 0
11, 22200, Note_on_c, 9, 51, 46
11, 22206, Note_on_c, 9, 51, 0
11, 22320, Note_on_c, 9, 40, 49
11, 22320, Note_on_c, 9, 51, 51
11, 22320, Note_on_c, 9, 38, 67
11, 22326, Note_on_c, 9, 40, 0
11, 22326, Note_on_c, 9, 51, 0
11, 22326, Note_on_c, 9, 38, 0
11, 22440, Note_on_c, 9, 51, 51
11, 22440, Note_on_c, 9, 36, 65
11, 22446, Note_on_c, 9, 51, 0
11, 22446, Note_on_c, 9, 36, 0
11, 22560, Note_on_c, 9, 51, 47
11, 22560, Note_on_c, 9, 38, 64
11, 22560, Note_on_c, 9, 40, 48
11, 22566, Note_on_c, 9, 40, 0
11, 22566, Note_on_c, 9, 51, 0
11, 22566, Note_on_c, 9, 38, 0
11, 22680, Note_on_c, 9, 51, 56
11, 22686, Note_on_c, 9, 51, 0
11, 22800, Note_on_c, 9, 51, 50
11, 22800, Note_on_c, 9, 38, 73
11, 22800, Note_on_c, 9, 40, 48
11, 22806, Note_on_c, 9, 40, 0
11, 22806, Note_on_c, 9, 38, 0
11, 22806, Note_on_c, 9, 51, 0
11, 22920, Note_on_c, 9, 51, 68
11, 22926, Note_on_c, 9, 51, 0
11, 23040, Note_on_c, 9, 40, 64
11, 23040, Note_on_c, 9, 51, 58
11, 23040, Note_on_c, 9, 38, 93
11, 23046, Note_on_c, 9, 38, 0
11, 23046, Note_on_c, 9, 51, 0
11, 23046, Note_on_c, 9, 40, 0
11, 23160, Note_on_c, 9, 51, 50
11, 23166, Note_on_c, 9, 51, 0
11, 23280, Note_on_c, 9, 40, 62
11, 23280, Note_on_c, 9, 51, 63
11, 23280, Note_on_c, 9, 38, 90
11, 23286, Note_on_c, 9, 40, 0
11, 23286, Note_on_c, 9, 38, 0
11, 23286, Note_on_c, 9, 51, 0
11, 23400, Note_on_c, 9, 51, 57
11, 23400, Note_on_c, 9, 36, 70
11, 23406, Note_on_c, 9, 51, 0
11, 23406, Note_on_c, 9, 36, 0
11, 23520, Note_on_c, 9, 51, 56
11, 23520, Note_on_c, 9, 38, 72
11, 23520, Note_on_c, 9, 40, 60
11, 23526, Note_on_c, 9, 40, 0
11, 23526, Note_on_c, 9, 51, 0
11, 23526, Note_on_c, 9, 38, 0
11, 23640, Note_on_c, 9, 51, 52
11, 23646, Note_on_c, 9, 51, 0
11, 23760, Note_on_c, 9, 38, 79
11, 23760, Note_on_c, 9, 51, 57
11, 23760, Note_on_c, 9, 40, 56
11, 23766, Note_on_c, 9, 51, 0
11, 23766, Note_on_c, 9, 38, 0
11, 23766, Note_on_c, 9, 40, 0
11, 23880, Note_on_c, 9, 36, 62
11, 23880, Note_on_c, 9, 51, 51
11, 23886, Note_on_c, 9, 51, 0
11, 23886, Note_on_c, 9, 36, 0
11, 24000, Note_on_c, 9, 40, 54
11, 24000, Note_on_c, 9, 38, 69
11, 24000, Note_on_c, 9, 51, 53
11, 24006, Note_on_c, 9, 51, 0
11, 24006, Note_on_c, 9, 40, 0
11, 24006, Note_on_c, 9, 38, 0
11, 24120, Note_on_c, 9, 51, 47
11, 24126, Note_on_c, 9, 51, 0
11, 24240, Note_on_c, 9, 51, 52
11, 24240, Note_on_c, 9, 38, 67
11, 24240, Note_on_c, 9, 40, 49
11, 24246, Note_on_c, 9, 51, 0
11, 24246, Note_on_c, 9, 40, 0
11, 24246, Note_on_c, 9, 38, 0
11, 24360, Note_on_c, 9, 51, 51
11, 24366, Note_on_c, 9, 51, 0
11, 26280, Text_t, "copyright MidiMart.net"
11, 26280, End_track
12, 0, Start_track
12, 0, Control_c, 10, 0, 0
12, 0, Program_c, 10, 46
12, 0, Sequencer_specific, 20, 74, 65, 90, 50, 1, 0, 0, 0, 0, 0, 0, 0, 0, 0, 0, 0, 0, 0, 0, 0
12, 0, Control_c, 10, 7, 93
12, 0, Control_c, 10, 121, 0
12, 0, Control_c, 10, 10, 40
12, 0, MIDI_port, 0
12, 0, Title_t, "Orchestral Harp"
12, 6, Control_c, 10, 11, 127
12, 8, Control_c, 10, 91, 80
12, 10, Control_c, 10, 93, 10
12, 2042, Note_on_c, 10, 52, 66
12, 2044, Note_on_c, 10, 52, 0
12, 2097, Note_on_c, 10, 58, 53
12, 2099, Note_on_c, 10, 58, 0
12, 2161, Note_on_c, 10, 62, 64
12, 2163, Note_on_c, 10, 62, 0
12, 2218, Note_on_c, 10, 65, 61
12, 2220, Note_on_c, 10, 65, 0
12, 2282, Note_on_c, 10, 70, 57
12, 2284, Note_on_c, 10, 70, 0
12, 3180, Note_on_c, 10, 55, 27
12, 3190, Note_on_c, 10, 55, 0
12, 3240, Note_on_c, 10, 57, 27
12, 3245, Note_on_c, 10, 57, 0
12, 3300, Note_on_c, 10, 61, 30
12, 3305, Note_on_c, 10, 61, 0
12, 3360, Note_on_c, 10, 64, 36
12, 3375, Note_on_c, 10, 64, 0
12, 7494, Note_on_c, 10, 73, 52
12, 7495, Note_on_c, 10, 73, 0
12, 7500, Note_on_c, 10, 74, 55
12, 7501, Note_on_c, 10, 74, 0
12, 7509, Note_on_c, 10, 76, 56
12, 7510, Note_on_c, 10, 76, 0
12, 7517, Note_on_c, 10, 78, 58
12, 7518, Note_on_c, 10, 78, 0
12, 7527, Note_on_c, 10, 79, 60
12, 7528, Note_on_c, 10, 79, 0
12, 7535, Note_on_c, 10, 81, 61
12, 7536, Note_on_c, 10, 81, 0
12, 7545, Note_on_c, 10, 83, 61
12, 7546, Note_on_c, 10, 83, 0
12, 7555, Note_on_c, 10, 85, 62
12, 7556, Note_on_c, 10, 85, 0
12, 7560, Note_on_c, 10, 86, 51
12, 7561, Note_on_c, 10, 86, 0
12, 11401, Note_on_c, 10, 54, 53
12, 11406, Note_on_c, 10, 54, 0
12, 11460, Note_on_c, 10, 61, 60
12, 11465, Note_on_c, 10, 61, 0
12, 11519, Note_on_c, 10, 66, 61
12, 11524, Note_on_c, 10, 66, 0
12, 11579, Note_on_c, 10, 61, 62
12, 11584, Note_on_c, 10, 61, 0
12, 11638, Note_on_c, 10, 59, 70
12, 11643, Note_on_c, 10, 59, 0
12, 11698, Note_on_c, 10, 57, 58
12, 11703, Note_on_c, 10, 57, 0
12, 11758, Note_on_c, 10, 54, 64
12, 11763, Note_on_c, 10, 54, 0
12, 11819, Note_on_c, 10, 57, 60
12, 11824, Note_on_c, 10, 57, 0
12, 11879, Note_on_c, 10, 54, 47
12, 11884, Note_on_c, 10, 54, 0
12, 11938, Note_on_c, 10, 61, 62
12, 11943, Note_on_c, 10, 61, 0
12, 11999, Note_on_c, 10, 66, 62
12, 12004, Note_on_c, 10, 66, 0
12, 12059, Note_on_c, 10, 61, 61
12, 12064, Note_on_c, 10, 61, 0
12, 12118, Note_on_c, 10, 59, 68
12, 12123, Note_on_c, 10, 59, 0
12, 12178, Note_on_c, 10, 57, 59
12, 12183, Note_on_c, 10, 57, 0
12, 12239, Note_on_c, 10, 54, 47
12, 12244, Note_on_c, 10, 54, 0
12, 12298, Note_on_c, 10, 57, 64
12, 12303, Note_on_c, 10, 57, 0
12, 12359, Note_on_c, 10, 59, 81
12, 12364, Note_on_c, 10, 59, 0
12, 12419, Note_on_c, 10, 56, 60
12, 12424, Note_on_c, 10, 56, 0
12, 12479, Note_on_c, 10, 52, 68
12, 12484, Note_on_c, 10, 52, 0
12, 12539, Note_on_c, 10, 56, 60
12, 12544, Note_on_c, 10, 56, 0
12, 12599, Note_on_c, 10, 59, 74
12, 12604, Note_on_c, 10, 59, 0
12, 12659, Note_on_c, 10, 64, 65
12, 12664, Note_on_c, 10, 64, 0
12, 12719, Note_on_c, 10, 59, 71
12, 12724, Note_on_c, 10, 59, 0
12, 12780, Note_on_c, 10, 56, 62
12, 12785, Note_on_c, 10, 56, 0
12, 12839, Note_on_c, 10, 55, 63
12, 12844, Note_on_c, 10, 55, 0
12, 12901, Note_on_c, 10, 52, 62
12, 12906, Note_on_c, 10, 52, 0
12, 12961, Note_on_c, 10, 55, 62
12, 12966, Note_on_c, 10, 55, 0
12, 13020, Note_on_c, 10, 58, 62
12, 13025, Note_on_c, 10, 58, 0
12, 13081, Note_on_c, 10, 61, 61
12, 13086, Note_on_c, 10, 61, 0
12, 13140, Note_on_c, 10, 64, 74
12, 13145, Note_on_c, 10, 64, 0
12, 13199, Note_on_c, 10, 61, 63
12, 13204, Note_on_c, 10, 61, 0
12, 13258, Note_on_c, 10, 58, 64
12, 13263, Note_on_c, 10, 58, 0
12, 13319, Note_on_c, 10, 57, 63
12, 13324, Note_on_c, 10, 57, 0
12, 13324, End_track
13, 0, Start_track
13, 0, Control_c, 11, 0, 0
13, 0, Program_c, 11, 0
13, 0, Sequencer_specific, 20, 74, 65, 90, 50, 1, 0, 0, 0, 0, 0, 0, 0, 0, 0, 0, 0, 0, 0, 0, 0
13, 0, MIDI_port, 0
13, 0, Control_c, 11, 121, 0
13, 0, Title_t, "Piano"
13, 0, Control_c, 11, 7, 109
13, 0, Control_c, 11, 10, 64
13, 6, Control_c, 11, 11, 127
13, 8, Control_c, 11, 91, 80
13, 10, Control_c, 11, 93, 0
13, 13379, Note_on_c, 11, 59, 75
13, 13438, Note_on_c, 11, 59, 0
13, 13439, Note_on_c, 11, 62, 74
13, 13498, Note_on_c, 11, 62, 0
13, 13499, Note_on_c, 11, 66, 67
13, 13558, Note_on_c, 11, 66, 0
13, 13559, Note_on_c, 11, 64, 70
13, 13618, Note_on_c, 11, 64, 0
13, 13619, Note_on_c, 11, 61, 63
13, 13678, Note_on_c, 11, 61, 0
13, 13679, Note_on_c, 11, 57, 66
13, 13738, Note_on_c, 11, 57, 0
13, 13739, Note_on_c, 11, 54, 59
13, 13798, Note_on_c, 11, 54, 0
13, 13799, Note_on_c, 11, 62, 76
13, 13858, Note_on_c, 11, 62, 0
13, 13859, Note_on_c, 11, 59, 52
13, 13918, Note_on_c, 11, 57, 67
13, 13918, Note_on_c, 11, 59, 0
13, 13977, Note_on_c, 11, 57, 0
13, 13978, Note_on_c, 11, 54, 59
13, 14037, Note_on_c, 11, 54, 0
13, 14038, Note_on_c, 11, 61, 70
13, 14097, Note_on_c, 11, 61, 0
13, 14098, Note_on_c, 11, 59, 74
13, 14157, Note_on_c, 11, 59, 0
13, 14159, Note_on_c, 11, 53, 60
13, 14218, Note_on_c, 11, 53, 0
13, 14219, Note_on_c, 11, 50, 65
13, 14278, Note_on_c, 11, 50, 0
13, 14280, Note_on_c, 11, 52, 68
13, 14330, Note_on_c, 11, 52, 0
13, 14341, Note_on_c, 11, 52, 61
13, 14396, Note_on_c, 11, 52, 0
13, 14399, Note_on_c, 11, 55, 60
13, 14454, Note_on_c, 11, 55, 0
13, 14459, Note_on_c, 11, 60, 66
13, 14514, Note_on_c, 11, 60, 0
13, 14521, Note_on_c, 11, 52, 69
13, 14571, Note_on_c, 11, 52, 0
13, 14579, Note_on_c, 11, 60, 70
13, 14634, Note_on_c, 11, 60, 0
13, 14639, Note_on_c, 11, 55, 69
13, 14689, Note_on_c, 11, 55, 0
13, 14699, Note_on_c, 11, 52, 60
13, 14759, Note_on_c, 11, 52, 0
13, 14761, Note_on_c, 11, 54, 67
13, 14876, Note_on_c, 11, 54, 0
13, 19087, Note_on_c, 11, 57, 59
13, 19099, Note_on_c, 11, 62, 65
13, 19105, Note_on_c, 11, 57, 0
13, 19113, Note_on_c, 11, 64, 61
13, 19116, Note_on_c, 11, 62, 0
13, 19123, Note_on_c, 11, 66, 61
13, 19128, Note_on_c, 11, 64, 0
13, 19139, Note_on_c, 11, 69, 60
13, 19143, Note_on_c, 11, 66, 0
13, 19152, Note_on_c, 11, 71, 62
13, 19154, Note_on_c, 11, 69, 0
13, 19167, Note_on_c, 11, 74, 71
13, 19170, Note_on_c, 11, 71, 0
13, 19182, Note_on_c, 11, 76, 69
13, 19184, Note_on_c, 11, 74, 0
13, 19195, Note_on_c, 11, 76, 0
13, 19196, Note_on_c, 11, 78, 61
13, 19211, Note_on_c, 11, 69, 64
13, 19216, Note_on_c, 11, 78, 0
13, 19224, Note_on_c, 11, 74, 71
13, 19227, Note_on_c, 11, 69, 0
13, 19240, Note_on_c, 11, 76, 64
13, 19242, Note_on_c, 11, 74, 0
13, 19257, Note_on_c, 11, 76, 0
13, 19257, Note_on_c, 11, 78, 70
13, 19271, Note_on_c, 11, 81, 70
13, 19274, Note_on_c, 11, 78, 0
13, 19285, Note_on_c, 11, 83, 74
13, 19290, Note_on_c, 11, 81, 0
13, 19300, Note_on_c, 11, 86, 64
13, 19302, Note_on_c, 11, 83, 0
13, 19315, Note_on_c, 11, 88, 79
13, 19319, Note_on_c, 11, 86, 0
13, 19334, Note_on_c, 11, 88, 0
13, 19334, Note_on_c, 11, 90, 67
13, 19349, Note_on_c, 11, 88, 74
13, 19352, Note_on_c, 11, 90, 0
13, 19363, Note_on_c, 11, 86, 70
13, 19364, Note_on_c, 11, 88, 0
13, 19379, Note_on_c, 11, 83, 66
13, 19380, Note_on_c, 11, 86, 0
13, 19395, Note_on_c, 11, 81, 59
13, 19398, Note_on_c, 11, 83, 0
13, 19409, Note_on_c, 11, 78, 63
13, 19410, Note_on_c, 11, 81, 0
13, 19426, Note_on_c, 11, 76, 72
13, 19427, Note_on_c, 11, 78, 0
13, 19442, Note_on_c, 11, 74, 74
13, 19446, Note_on_c, 11, 76, 0
13, 19458, Note_on_c, 11, 69, 62
13, 19460, Note_on_c, 11, 74, 0
13, 19470, Note_on_c, 11, 78, 74
13, 19472, Note_on_c, 11, 69, 0
13, 19485, Note_on_c, 11, 76, 63
13, 19487, Note_on_c, 11, 78, 0
13, 19501, Note_on_c, 11, 76, 0
13, 19501, Note_on_c, 11, 74, 44
13, 19516, Note_on_c, 11, 71, 63
13, 19517, Note_on_c, 11, 74, 0
13, 19531, Note_on_c, 11, 69, 61
13, 19536, Note_on_c, 11, 71, 0
13, 19545, Note_on_c, 11, 66, 65
13, 19549, Note_on_c, 11, 69, 0
13, 19561, Note_on_c, 11, 64, 77
13, 19564, Note_on_c, 11, 66, 0
13, 19572, Note_on_c, 11, 62, 72
13, 19581, Note_on_c, 11, 64, 0
13, 19589, Note_on_c, 11, 57, 74
13, 19591, Note_on_c, 11, 62, 0
13, 19602, Note_on_c, 11, 62, 63
13, 19605, Note_on_c, 11, 57, 0
13, 19618, Note_on_c, 11, 64, 61
13, 19620, Note_on_c, 11, 62, 0
13, 19632, Note_on_c, 11, 66, 62
13, 19632, Note_on_c, 11, 64, 0
13, 19650, Note_on_c, 11, 69, 72
13, 19651, Note_on_c, 11, 66, 0
13, 19666, Note_on_c, 11, 71, 69
13, 19666, Note_on_c, 11, 69, 0
13, 19681, Note_on_c, 11, 71, 0
13, 19681, Note_on_c, 11, 74, 72
13, 19695, Note_on_c, 11, 76, 79
13, 19697, Note_on_c, 11, 74, 0
13, 19710, Note_on_c, 11, 76, 0
13, 19710, Note_on_c, 11, 78, 70
13, 19723, Note_on_c, 11, 69, 65
13, 19727, Note_on_c, 11, 78, 0
13, 19738, Note_on_c, 11, 74, 60
13, 19742, Note_on_c, 11, 69, 0
13, 19753, Note_on_c, 11, 76, 77
13, 19754, Note_on_c, 11, 74, 0
13, 19768, Note_on_c, 11, 78, 70
13, 19769, Note_on_c, 11, 76, 0
13, 19784, Note_on_c, 11, 81, 67
13, 19787, Note_on_c, 11, 78, 0
13, 19799, Note_on_c, 11, 83, 81
13, 19800, Note_on_c, 11, 81, 0
13, 19815, Note_on_c, 11, 86, 66
13, 19818, Note_on_c, 11, 83, 0
13, 19830, Note_on_c, 11, 88, 72
13, 19833, Note_on_c, 11, 86, 0
13, 19843, Note_on_c, 11, 90, 67
13, 19844, Note_on_c, 11, 88, 0
13, 19859, Note_on_c, 11, 88, 74
13, 19863, Note_on_c, 11, 90, 0
13, 19874, Note_on_c, 11, 88, 0
13, 19874, Note_on_c, 11, 86, 73
13, 19890, Note_on_c, 11, 83, 66
13, 19890, Note_on_c, 11, 86, 0
13, 19903, Note_on_c, 11, 83, 0
13, 19905, Note_on_c, 11, 81, 69
13, 19920, Note_on_c, 11, 78, 62
13, 19923, Note_on_c, 11, 81, 0
13, 19937, Note_on_c, 11, 76, 65
13, 19938, Note_on_c, 11, 78, 0
13, 19951, Note_on_c, 11, 74, 69
13, 19956, Note_on_c, 11, 76, 0
13, 19965, Note_on_c, 11, 69, 67
13, 19967, Note_on_c, 11, 74, 0
13, 19981, Note_on_c, 11, 78, 65
13, 19985, Note_on_c, 11, 69, 0
13, 19995, Note_on_c, 11, 76, 67
13, 19996, Note_on_c, 11, 78, 0
13, 20010, Note_on_c, 11, 74, 65
13, 20012, Note_on_c, 11, 76, 0
13, 20025, Note_on_c, 11, 74, 0
13, 20026, Note_on_c, 11, 71, 60
13, 20041, Note_on_c, 11, 61, 64
13, 20042, Note_on_c, 11, 71, 0
13, 20058, Note_on_c, 11, 64, 68
13, 20062, Note_on_c, 11, 61, 0
13, 20072, Note_on_c, 11, 64, 0
13, 20072, Note_on_c, 11, 68, 64
13, 20086, Note_on_c, 11, 71, 61
13, 20092, Note_on_c, 11, 68, 0
13, 20101, Note_on_c, 11, 73, 71
13, 20105, Note_on_c, 11, 71, 0
13, 20115, Note_on_c, 11, 76, 74
13, 20118, Note_on_c, 11, 73, 0
13, 20131, Note_on_c, 11, 76, 0
13, 20131, Note_on_c, 11, 78, 67
13, 20144, Note_on_c, 11, 80, 69
13, 20147, Note_on_c, 11, 78, 0
13, 20157, Note_on_c, 11, 80, 0
13, 20160, Note_on_c, 11, 71, 73
13, 20175, Note_on_c, 11, 73, 73
13, 20177, Note_on_c, 11, 71, 0
13, 20190, Note_on_c, 11, 76, 71
13, 20193, Note_on_c, 11, 73, 0
13, 20206, Note_on_c, 11, 76, 0
13, 20206, Note_on_c, 11, 80, 63
13, 20223, Note_on_c, 11, 83, 74
13, 20225, Note_on_c, 11, 80, 0
13, 20237, Note_on_c, 11, 85, 65
13, 20242, Note_on_c, 11, 83, 0
13, 20251, Note_on_c, 11, 88, 75
13, 20254, Note_on_c, 11, 85, 0
13, 20266, Note_on_c, 11, 90, 67
13, 20266, Note_on_c, 11, 88, 0
13, 20283, Note_on_c, 11, 92, 71
13, 20283, Note_on_c, 11, 90, 0
13, 20296, Note_on_c, 11, 90, 63
13, 20299, Note_on_c, 11, 92, 0
13, 20311, Note_on_c, 11, 88, 74
13, 20313, Note_on_c, 11, 90, 0
13, 20326, Note_on_c, 11, 85, 63
13, 20327, Note_on_c, 11, 88, 0
13, 20340, Note_on_c, 11, 83, 74
13, 20341, Note_on_c, 11, 85, 0
13, 20355, Note_on_c, 11, 80, 66
13, 20358, Note_on_c, 11, 83, 0
13, 20370, Note_on_c, 11, 78, 70
13, 20372, Note_on_c, 11, 80, 0
13, 20386, Note_on_c, 11, 76, 76
13, 20386, Note_on_c, 11, 78, 0
13, 20401, Note_on_c, 11, 73, 63
13, 20402, Note_on_c, 11, 76, 0
13, 20415, Note_on_c, 11, 71, 61
13, 20419, Note_on_c, 11, 73, 0
13, 20432, Note_on_c, 11, 80, 54
13, 20435, Note_on_c, 11, 71, 0
13, 20445, Note_on_c, 11, 78, 67
13, 20448, Note_on_c, 11, 80, 0
13, 20460, Note_on_c, 11, 76, 79
13, 20463, Note_on_c, 11, 78, 0
13, 20476, Note_on_c, 11, 76, 0
13, 20476, Note_on_c, 11, 73, 62
13, 20490, Note_on_c, 11, 71, 67
13, 20491, Note_on_c, 11, 73, 0
13, 20506, Note_on_c, 11, 68, 74
13, 20511, Note_on_c, 11, 71, 0
13, 20520, Note_on_c, 11, 67, 68
13, 20524, Note_on_c, 11, 68, 0
13, 20534, Note_on_c, 11, 64, 64
13, 20535, Note_on_c, 11, 67, 0
13, 20548, Note_on_c, 11, 61, 65
13, 20552, Note_on_c, 11, 64, 0
13, 20562, Note_on_c, 11, 58, 65
13, 20564, Note_on_c, 11, 61, 0
13, 20577, Note_on_c, 11, 61, 64
13, 20580, Note_on_c, 11, 58, 0
13, 20592, Note_on_c, 11, 64, 68
13, 20593, Note_on_c, 11, 61, 0
13, 20607, Note_on_c, 11, 67, 59
13, 20609, Note_on_c, 11, 64, 0
13, 20622, Note_on_c, 11, 67, 0
13, 20623, Note_on_c, 11, 70, 66
13, 20639, Note_on_c, 11, 73, 58
13, 20645, Note_on_c, 11, 70, 0
13, 20653, Note_on_c, 11, 76, 74
13, 20654, Note_on_c, 11, 73, 0
13, 20668, Note_on_c, 11, 67, 60
13, 20673, Note_on_c, 11, 76, 0
13, 20683, Note_on_c, 11, 70, 58
13, 20684, Note_on_c, 11, 67, 0
13, 20701, Note_on_c, 11, 73, 64
13, 20702, Note_on_c, 11, 70, 0
13, 20714, Note_on_c, 11, 76, 60
13, 20716, Note_on_c, 11, 73, 0
13, 20729, Note_on_c, 11, 76, 0
13, 20730, Note_on_c, 11, 79, 63
13, 20745, Note_on_c, 11, 82, 63
13, 20748, Note_on_c, 11, 79, 0
13, 20759, Note_on_c, 11, 85, 67
13, 20761, Note_on_c, 11, 82, 0
13, 20776, Note_on_c, 11, 88, 72
13, 20776, Note_on_c, 11, 85, 0
13, 20791, Note_on_c, 11, 88, 0
13, 20791, Note_on_c, 11, 85, 66
13, 20804, Note_on_c, 11, 82, 67
13, 20805, Note_on_c, 11, 85, 0
13, 20820, Note_on_c, 11, 82, 0
13, 20821, Note_on_c, 11, 79, 65
13, 20834, Note_on_c, 11, 79, 0
13, 20835, Note_on_c, 11, 76, 67
13, 20850, Note_on_c, 11, 73, 60
13, 20850, Note_on_c, 11, 76, 0
13, 20863, Note_on_c, 11, 70, 60
13, 20868, Note_on_c, 11, 73, 0
13, 20881, Note_on_c, 11, 67, 63
13, 20881, Note_on_c, 11, 70, 0
13, 20894, Note_on_c, 11, 70, 66
13, 20897, Note_on_c, 11, 67, 0
13, 20907, Note_on_c, 11, 73, 60
13, 20910, Note_on_c, 11, 70, 0
13, 20925, Note_on_c, 11, 73, 0
13, 20925, Note_on_c, 11, 76, 64
13, 20940, Note_on_c, 11, 76, 0
13, 20941, Note_on_c, 11, 79, 66
13, 20956, Note_on_c, 11, 82, 61
13, 20959, Note_on_c, 11, 79, 0
13, 20970, Note_on_c, 11, 85, 66
13, 20974, Note_on_c, 11, 82, 0
13, 20987, Note_on_c, 11, 85, 0
13, 20987, Note_on_c, 11, 88, 67
13, 21000, Note_on_c, 11, 57, 60
13, 21003, Note_on_c, 11, 88, 0
13, 21016, Note_on_c, 11, 59, 64
13, 21016, Note_on_c, 11, 57, 0
13, 21030, Note_on_c, 11, 62, 74
13, 21030, Note_on_c, 11, 59, 0
13, 21046, Note_on_c, 11, 66, 57
13, 21048, Note_on_c, 11, 62, 0
13, 21062, Note_on_c, 11, 69, 61
13, 21065, Note_on_c, 11, 66, 0
13, 21077, Note_on_c, 11, 71, 60
13, 21081, Note_on_c, 11, 69, 0
13, 21092, Note_on_c, 11, 74, 65
13, 21095, Note_on_c, 11, 71, 0
13, 21107, Note_on_c, 11, 76, 75
13, 21110, Note_on_c, 11, 74, 0
13, 21123, Note_on_c, 11, 76, 0
13, 21124, Note_on_c, 11, 78, 66
13, 21136, Note_on_c, 11, 69, 60
13, 21139, Note_on_c, 11, 78, 0
13, 21151, Note_on_c, 11, 71, 75
13, 21151, Note_on_c, 11, 69, 0
13, 21167, Note_on_c, 11, 74, 76
13, 21167, Note_on_c, 11, 71, 0
13, 21182, Note_on_c, 11, 76, 61
13, 21182, Note_on_c, 11, 74, 0
13, 21196, Note_on_c, 11, 76, 0
13, 21196, Note_on_c, 11, 78, 74
13, 21213, Note_on_c, 11, 81, 67
13, 21215, Note_on_c, 11, 78, 0
13, 21226, Note_on_c, 11, 83, 67
13, 21230, Note_on_c, 11, 81, 0
13, 21241, Note_on_c, 11, 86, 72
13, 21241, Note_on_c, 11, 83, 0
13, 21255, Note_on_c, 11, 88, 77
13, 21256, Note_on_c, 11, 86, 0
13, 21270, Note_on_c, 11, 90, 65
13, 21271, Note_on_c, 11, 88, 0
13, 21284, Note_on_c, 11, 88, 75
13, 21290, Note_on_c, 11, 90, 0
13, 21299, Note_on_c, 11, 86, 76
13, 21300, Note_on_c, 11, 88, 0
13, 21313, Note_on_c, 11, 83, 72
13, 21313, Note_on_c, 11, 86, 0
13, 21327, Note_on_c, 11, 83, 0
13, 21327, Note_on_c, 11, 81, 67
13, 21342, Note_on_c, 11, 78, 60
13, 21347, Note_on_c, 11, 81, 0
13, 21360, Note_on_c, 11, 78, 0
13, 21360, Note_on_c, 11, 76, 65
13, 21374, Note_on_c, 11, 76, 0
13, 21376, Note_on_c, 11, 74, 67
13, 21390, Note_on_c, 11, 74, 0
13, 21391, Note_on_c, 11, 71, 64
13, 21406, Note_on_c, 11, 69, 66
13, 21407, Note_on_c, 11, 71, 0
13, 21421, Note_on_c, 11, 71, 81
13, 21421, Note_on_c, 11, 69, 0
13, 21437, Note_on_c, 11, 74, 68
13, 21437, Note_on_c, 11, 71, 0
13, 21450, Note_on_c, 11, 74, 0
13, 21451, Note_on_c, 11, 76, 73
13, 21465, Note_on_c, 11, 76, 0
13, 21465, Note_on_c, 11, 78, 59
13, 21481, Note_on_c, 11, 78, 0
13, 21483, Note_on_c, 11, 81, 75
13, 21497, Note_on_c, 11, 78, 64
13, 21499, Note_on_c, 11, 81, 0
13, 21512, Note_on_c, 11, 76, 67
13, 21515, Note_on_c, 11, 78, 0
13, 21524, Note_on_c, 11, 88, 67
13, 21526, Note_on_c, 11, 74, 60
13, 21528, Note_on_c, 11, 76, 0
13, 21540, Note_on_c, 11, 90, 67
13, 21540, Note_on_c, 11, 88, 0
13, 21541, Note_on_c, 11, 71, 63
13, 21541, Note_on_c, 11, 74, 0
13, 21553, Note_on_c, 11, 88, 72
13, 21556, Note_on_c, 11, 69, 67
13, 21556, Note_on_c, 11, 71, 0
13, 21558, Note_on_c, 11, 90, 0
13, 21569, Note_on_c, 11, 88, 0
13, 21569, Note_on_c, 11, 66, 59
13, 21571, Note_on_c, 11, 69, 0
13, 21583, Note_on_c, 11, 64, 64
13, 21585, Note_on_c, 11, 66, 0
13, 21598, Note_on_c, 11, 62, 61
13, 21601, Note_on_c, 11, 64, 0
13, 21611, Note_on_c, 11, 62, 0
13, 21611, Note_on_c, 11, 59, 61
13, 21626, Note_on_c, 11, 62, 66
13, 21628, Note_on_c, 11, 59, 0
13, 21641, Note_on_c, 11, 64, 62
13, 21643, Note_on_c, 11, 62, 0
13, 21657, Note_on_c, 11, 66, 61
13, 21658, Note_on_c, 11, 64, 0
13, 21672, Note_on_c, 11, 69, 59
13, 21673, Note_on_c, 11, 66, 0
13, 21687, Note_on_c, 11, 71, 67
13, 21691, Note_on_c, 11, 69, 0
13, 21702, Note_on_c, 11, 74, 64
13, 21705, Note_on_c, 11, 71, 0
13, 21715, Note_on_c, 11, 76, 67
13, 21716, Note_on_c, 11, 74, 0
13, 21731, Note_on_c, 11, 76, 0
13, 21731, Note_on_c, 11, 78, 65
13, 21746, Note_on_c, 11, 76, 67
13, 21750, Note_on_c, 11, 78, 0
13, 21761, Note_on_c, 11, 76, 0
13, 21762, Note_on_c, 11, 74, 62
13, 21777, Note_on_c, 11, 74, 0
13, 21779, Note_on_c, 11, 71, 67
13, 21791, Note_on_c, 11, 71, 0
13, 21794, Note_on_c, 11, 69, 62
13, 21811, Note_on_c, 11, 66, 60
13, 21813, Note_on_c, 11, 69, 0
13, 21826, Note_on_c, 11, 64, 62
13, 21828, Note_on_c, 11, 66, 0
13, 21842, Note_on_c, 11, 64, 0
13, 21845, Note_on_c, 11, 76, 70
13, 21858, Note_on_c, 11, 74, 68
13, 21860, Note_on_c, 11, 76, 0
13, 21873, Note_on_c, 11, 71, 61
13, 21877, Note_on_c, 11, 74, 0
13, 21886, Note_on_c, 11, 69, 60
13, 21886, Note_on_c, 11, 71, 0
13, 21903, Note_on_c, 11, 69, 0
13, 21903, Note_on_c, 11, 66, 65
13, 21918, Note_on_c, 11, 64, 68
13, 21920, Note_on_c, 11, 66, 0
13, 21934, Note_on_c, 11, 62, 70
13, 21934, Note_on_c, 11, 64, 0
13, 21947, Note_on_c, 11, 59, 70
13, 21951, Note_on_c, 11, 62, 0
13, 21960, Note_on_c, 11, 59, 0
13, 21961, Note_on_c, 11, 55, 59
13, 21976, Note_on_c, 11, 57, 65
13, 21977, Note_on_c, 11, 55, 0
13, 21991, Note_on_c, 11, 60, 69
13, 21992, Note_on_c, 11, 57, 0
13, 22006, Note_on_c, 11, 64, 60
13, 22008, Note_on_c, 11, 60, 0
13, 22021, Note_on_c, 11, 67, 72
13, 22022, Note_on_c, 11, 64, 0
13, 22036, Note_on_c, 11, 69, 61
13, 22038, Note_on_c, 11, 67, 0
13, 22051, Note_on_c, 11, 72, 64
13, 22054, Note_on_c, 11, 69, 0
13, 22065, Note_on_c, 11, 76, 71
13, 22066, Note_on_c, 11, 72, 0
13, 22081, Note_on_c, 11, 67, 63
13, 22085, Note_on_c, 11, 76, 0
13, 22095, Note_on_c, 11, 67, 0
13, 22095, Note_on_c, 11, 69, 66
13, 22110, Note_on_c, 11, 69, 0
13, 22111, Note_on_c, 11, 72, 65
13, 22125, Note_on_c, 11, 76, 65
13, 22125, Note_on_c, 11, 72, 0
13, 22140, Note_on_c, 11, 76, 0
13, 22141, Note_on_c, 11, 79, 79
13, 22156, Note_on_c, 11, 81, 74
13, 22159, Note_on_c, 11, 79, 0
13, 22170, Note_on_c, 11, 84, 72
13, 22171, Note_on_c, 11, 81, 0
13, 22186, Note_on_c, 11, 84, 0
13, 22186, Note_on_c, 11, 88, 68
13, 22201, Note_on_c, 11, 84, 77
13, 22204, Note_on_c, 11, 88, 0
13, 22216, Note_on_c, 11, 81, 64
13, 22217, Note_on_c, 11, 84, 0
13, 22229, Note_on_c, 11, 81, 0
13, 22231, Note_on_c, 11, 79, 63
13, 22246, Note_on_c, 11, 76, 67
13, 22248, Note_on_c, 11, 79, 0
13, 22261, Note_on_c, 11, 76, 0
13, 22261, Note_on_c, 11, 72, 65
13, 22275, Note_on_c, 11, 69, 61
13, 22280, Note_on_c, 11, 72, 0
13, 22291, Note_on_c, 11, 67, 67
13, 22291, Note_on_c, 11, 69, 0
13, 22306, Note_on_c, 11, 84, 73
13, 22313, Note_on_c, 11, 67, 0
13, 22321, Note_on_c, 11, 81, 66
13, 22322, Note_on_c, 11, 84, 0
13, 22334, Note_on_c, 11, 81, 0
13, 22336, Note_on_c, 11, 79, 64
13, 22350, Note_on_c, 11, 76, 60
13, 22350, Note_on_c, 11, 79, 0
13, 22363, Note_on_c, 11, 76, 0
13, 22365, Note_on_c, 11, 69, 65
13, 22380, Note_on_c, 11, 69, 0
13, 22380, Note_on_c, 11, 67, 67
13, 22394, Note_on_c, 11, 64, 59
13, 22397, Note_on_c, 11, 67, 0
13, 22411, Note_on_c, 11, 60, 67
13, 22412, Note_on_c, 11, 64, 0
13, 22424, Note_on_c, 11, 69, 63
13, 22427, Note_on_c, 11, 60, 0
13, 22437, Note_on_c, 11, 69, 0
13, 22440, Note_on_c, 11, 62, 62
13, 22455, Note_on_c, 11, 66, 36
13, 22459, Note_on_c, 11, 62, 0
13, 22470, Note_on_c, 11, 68, 64
13, 22473, Note_on_c, 11, 66, 0
13, 22485, Note_on_c, 11, 72, 58
13, 22485, Note_on_c, 11, 68, 0
13, 22498, Note_on_c, 11, 72, 0
13, 22500, Note_on_c, 11, 74, 70
13, 22513, Note_on_c, 11, 74, 0
13, 22515, Note_on_c, 11, 76, 61
13, 22528, Note_on_c, 11, 76, 0
13, 22530, Note_on_c, 11, 78, 60
13, 22545, Note_on_c, 11, 80, 59
13, 22548, Note_on_c, 11, 78, 0
13, 22555, Note_on_c, 11, 80, 0
13, 22560, Note_on_c, 11, 83, 68
13, 22570, Note_on_c, 11, 83, 0
13, 22575, Note_on_c, 11, 86, 59
13, 22590, Note_on_c, 11, 88, 83
13, 22595, Note_on_c, 11, 86, 0
13, 22603, Note_on_c, 11, 88, 0
13, 22605, Note_on_c, 11, 90, 62
13, 22620, Note_on_c, 11, 90, 0
13, 22620, Note_on_c, 11, 92, 72
13, 22634, Note_on_c, 11, 92, 0
13, 22635, Note_on_c, 11, 90, 62
13, 22650, Note_on_c, 11, 88, 65
13, 22653, Note_on_c, 11, 90, 0
13, 22663, Note_on_c, 11, 88, 0
13, 22665, Note_on_c, 11, 86, 62
13, 22680, Note_on_c, 11, 93, 73
13, 22680, Note_on_c, 11, 86, 0
13, 22695, Note_on_c, 11, 90, 61
13, 22697, Note_on_c, 11, 93, 0
13, 22710, Note_on_c, 11, 88, 64
13, 22713, Note_on_c, 11, 90, 0
13, 22721, Note_on_c, 11, 88, 0
13, 22725, Note_on_c, 11, 86, 61
13, 22739, Note_on_c, 11, 86, 0
13, 22740, Note_on_c, 11, 83, 59
13, 22748, Note_on_c, 11, 83, 0
13, 22755, Note_on_c, 11, 81, 54
13, 22770, Note_on_c, 11, 78, 50
13, 22770, Note_on_c, 11, 81, 0
13, 22778, Note_on_c, 11, 78, 0
13, 22785, Note_on_c, 11, 76, 50
13, 22799, Note_on_c, 11, 76, 0
13, 22800, Note_on_c, 11, 74, 48
13, 22814, Note_on_c, 11, 74, 0
13, 22815, Note_on_c, 11, 69, 46
13, 22830, Note_on_c, 11, 69, 0
13, 22830, Note_on_c, 11, 66, 44
13, 22844, Note_on_c, 11, 66, 0
13, 22845, Note_on_c, 11, 64, 40
13, 22860, Note_on_c, 11, 62, 36
13, 22863, Note_on_c, 11, 64, 0
13, 22921, Note_on_c, 11, 62, 0
13, 22921, End_track
14, 0, Start_track
14, 0, Control_c, 12, 0, 0
14, 0, Program_c, 12, 40
14, 0, Sequencer_specific, 20, 74, 65, 90, 50, 1, 0, 0, 0, 0, 0, 0, 0, 0, 0, 0, 0, 0, 0, 0, 0
14, 0, Control_c, 12, 7, 115
14, 0, Control_c, 12, 10, 40
14, 0, Control_c, 12, 121, 0
14, 0, Text_t, "%-"
14, 0, MIDI_port, 0
14, 0, Title_t, "Violin"
14, 6, Control_c, 12, 11, 127
14, 8, Control_c, 12, 91, 127
14, 10, Control_c, 12, 93, 60
14, 481, Note_on_c, 12, 73, 35
14, 496, Control_c, 12, 1, 1
14, 498, Control_c, 12, 1, 2
14, 501, Control_c, 12, 1, 3
14, 502, Control_c, 12, 1, 4
14, 504, Control_c, 12, 1, 5
14, 507, Control_c, 12, 1, 6
14, 508, Control_c, 12, 1, 7
14, 511, Control_c, 12, 1, 8
14, 516, Control_c, 12, 1, 9
14, 538, Note_on_c, 12, 73, 0
14, 539, Note_on_c, 12, 74, 47
14, 569, Control_c, 12, 1, 8
14, 571, Control_c, 12, 1, 7
14, 575, Control_c, 12, 1, 6
14, 584, Control_c, 12, 1, 5
14, 586, Control_c, 12, 1, 4
14, 587, Control_c, 12, 1, 3
14, 589, Control_c, 12, 1, 2
14, 590, Control_c, 12, 1, 1
14, 601, Note_on_c, 12, 76, 47
14, 607, Note_on_c, 12, 74, 0
14, 659, Control_c, 12, 1, 0
14, 659, Note_on_c, 12, 78, 52
14, 660, Note_on_c, 12, 76, 0
14, 719, Note_on_c, 12, 79, 55
14, 722, Note_on_c, 12, 78, 0
14, 779, Note_on_c, 12, 80, 52
14, 785, Note_on_c, 12, 79, 0
14, 840, Note_on_c, 12, 81, 71
14, 845, Note_on_c, 12, 80, 0
14, 901, Note_on_c, 12, 83, 71
14, 908, Note_on_c, 12, 81, 0
14, 962, Note_on_c, 12, 84, 71
14, 966, Note_on_c, 12, 83, 0
14, 983, Control_c, 12, 1, 1
14, 987, Control_c, 12, 1, 2
14, 992, Control_c, 12, 1, 3
14, 993, Control_c, 12, 1, 4
14, 996, Control_c, 12, 1, 5
14, 999, Control_c, 12, 1, 6
14, 1002, Control_c, 12, 1, 7
14, 1007, Control_c, 12, 1, 8
14, 1020, Note_on_c, 12, 77, 58
14, 1031, Note_on_c, 12, 84, 0
14, 1040, Control_c, 12, 1, 7
14, 1069, Control_c, 12, 1, 8
14, 1074, Control_c, 12, 1, 9
14, 1077, Control_c, 12, 1, 10
14, 1081, Control_c, 12, 1, 11
14, 1084, Control_c, 12, 1, 12
14, 1087, Control_c, 12, 1, 13
14, 1094, Control_c, 12, 1, 14
14, 1097, Control_c, 12, 1, 15
14, 1098, Control_c, 12, 1, 16
14, 1139, Control_c, 12, 1, 15
14, 1147, Control_c, 12, 1, 14
14, 1153, Control_c, 12, 1, 13
14, 1157, Control_c, 12, 1, 12
14, 1162, Control_c, 12, 1, 11
14, 1165, Control_c, 12, 1, 10
14, 1168, Control_c, 12, 1, 9
14, 1171, Control_c, 12, 1, 8
14, 1173, Control_c, 12, 1, 7
14, 1174, Control_c, 12, 1, 6
14, 1176, Control_c, 12, 1, 5
14, 1177, Control_c, 12, 1, 4
14, 1179, Control_c, 12, 1, 3
14, 1180, Control_c, 12, 1, 2
14, 1183, Control_c, 12, 1, 1
14, 1191, Control_c, 12, 1, 0
14, 1192, Note_on_c, 12, 77, 0
14, 1201, Note_on_c, 12, 84, 51
14, 1261, Note_on_c, 12, 77, 42
14, 1271, Control_c, 12, 1, 1
14, 1277, Control_c, 12, 1, 2
14, 1279, Note_on_c, 12, 84, 0
14, 1282, Control_c, 12, 1, 3
14, 1285, Control_c, 12, 1, 4
14, 1287, Control_c, 12, 1, 5
14, 1288, Control_c, 12, 1, 6
14, 1290, Control_c, 12, 1, 7
14, 1291, Control_c, 12, 1, 8
14, 1293, Control_c, 12, 1, 9
14, 1294, Control_c, 12, 1, 10
14, 1297, Control_c, 12, 1, 11
14, 1299, Control_c, 12, 1, 12
14, 1302, Control_c, 12, 1, 13
14, 1305, Control_c, 12, 1, 14
14, 1308, Control_c, 12, 1, 15
14, 1311, Control_c, 12, 1, 16
14, 1315, Control_c, 12, 1, 17
14, 1319, Control_c, 12, 1, 18
14, 1320, Control_c, 12, 1, 19
14, 1322, Control_c, 12, 1, 20
14, 1322, Control_c, 12, 1, 21
14, 1325, Control_c, 12, 1, 22
14, 1385, Control_c, 12, 1, 21
14, 1387, Control_c, 12, 1, 20
14, 1388, Control_c, 12, 1, 19
14, 1390, Control_c, 12, 1, 18
14, 1390, Control_c, 12, 1, 17
14, 1393, Control_c, 12, 1, 16
14, 1395, Control_c, 12, 1, 15
14, 1396, Control_c, 12, 1, 14
14, 1399, Control_c, 12, 1, 13
14, 1401, Control_c, 12, 1, 12
14, 1404, Control_c, 12, 1, 11
14, 1405, Control_c, 12, 1, 10
14, 1407, Control_c, 12, 1, 8
14, 1407, Control_c, 12, 1, 9
14, 1407, Control_c, 12, 1, 7
14, 1410, Control_c, 12, 1, 5
14, 1410, Control_c, 12, 1, 6
14, 1410, Control_c, 12, 1, 4
14, 1411, Note_on_c, 12, 77, 0
14, 1411, Control_c, 12, 1, 3
14, 1413, Control_c, 12, 1, 2
14, 1414, Control_c, 12, 1, 1
14, 1431, Control_c, 12, 1, 0
14, 1440, Control_c, 12, 1, 13
14, 1440, Control_c, 12, 1, 3
14, 1440, Control_c, 12, 1, 9
14, 1440, Control_c, 12, 1, 2
14, 1440, Control_c, 12, 1, 6
14, 1440, Control_c, 12, 1, 5
14, 1440, Control_c, 12, 1, 12
14, 1440, Note_on_c, 12, 77, 41
14, 1440, Control_c, 12, 1, 14
14, 1440, Control_c, 12, 1, 7
14, 1440, Control_c, 12, 1, 8
14, 1440, Control_c, 12, 1, 4
14, 1440, Control_c, 12, 1, 10
14, 1440, Control_c, 12, 1, 11
14, 1440, Control_c, 12, 1, 1
14, 1442, Control_c, 12, 1, 17
14, 1442, Control_c, 12, 1, 15
14, 1442, Control_c, 12, 1, 16
14, 1444, Control_c, 12, 1, 18
14, 1446, Control_c, 12, 1, 19
14, 1448, Control_c, 12, 1, 20
14, 1453, Control_c, 12, 1, 21
14, 1455, Control_c, 12, 1, 22
14, 1457, Control_c, 12, 1, 23
14, 1460, Control_c, 12, 1, 25
14, 1460, Control_c, 12, 1, 24
14, 1462, Control_c, 12, 1, 26
14, 1462, Control_c, 12, 1, 27
14, 1464, Control_c, 12, 1, 28
14, 1466, Control_c, 12, 1, 29
14, 1469, Control_c, 12, 1, 30
14, 1469, Control_c, 12, 1, 31
14, 1471, Control_c, 12, 1, 32
14, 1473, Control_c, 12, 1, 33
14, 1475, Control_c, 12, 1, 34
14, 1478, Control_c, 12, 1, 35
14, 1484, Control_c, 12, 1, 36
14, 1504, Control_c, 12, 1, 37
14, 1507, Control_c, 12, 1, 38
14, 1509, Control_c, 12, 1, 40
14, 1509, Control_c, 12, 1, 39
14, 1511, Control_c, 12, 1, 41
14, 1511, Control_c, 12, 1, 43
14, 1511, Control_c, 12, 1, 42
14, 1516, Control_c, 12, 1, 44
14, 1516, Control_c, 12, 1, 45
14, 1518, Control_c, 12, 1, 47
14, 1518, Control_c, 12, 1, 46
14, 1522, Control_c, 12, 1, 48
14, 1534, Control_c, 12, 1, 47
14, 1534, Control_c, 12, 1, 46
14, 1536, Control_c, 12, 1, 44
14, 1536, Control_c, 12, 1, 45
14, 1538, Control_c, 12, 1, 42
14, 1538, Control_c, 12, 1, 43
14, 1540, Control_c, 12, 1, 40
14, 1540, Control_c, 12, 1, 41
14, 1543, Control_c, 12, 1, 39
14, 1545, Control_c, 12, 1, 38
14, 1547, Control_c, 12, 1, 37
14, 1549, Control_c, 12, 1, 36
14, 1552, Control_c, 12, 1, 35
14, 1554, Control_c, 12, 1, 33
14, 1554, Control_c, 12, 1, 34
14, 1556, Control_c, 12, 1, 32
14, 1558, Control_c, 12, 1, 31
14, 1559, Note_on_c, 12, 70, 38
14, 1560, Control_c, 12, 1, 30
14, 1560, Note_on_c, 12, 77, 0
14, 1560, Control_c, 12, 1, 29
14, 1563, Control_c, 12, 1, 28
14, 1565, Control_c, 12, 1, 27
14, 1567, Control_c, 12, 1, 26
14, 1572, Control_c, 12, 1, 25
14, 1581, Control_c, 12, 1, 23
14, 1581, Control_c, 12, 1, 24
14, 1583, Control_c, 12, 1, 22
14, 1585, Control_c, 12, 1, 21
14, 1587, Control_c, 12, 1, 19
14, 1587, Control_c, 12, 1, 20
14, 1590, Control_c, 12, 1, 18
14, 1599, Control_c, 12, 1, 19
14, 1601, Control_c, 12, 1, 20
14, 1603, Control_c, 12, 1, 22
14, 1603, Control_c, 12, 1, 21
14, 1605, Control_c, 12, 1, 24
14, 1605, Control_c, 12, 1, 23
14, 1608, Control_c, 12, 1, 25
14, 1610, Control_c, 12, 1, 26
14, 1612, Control_c, 12, 1, 27
14, 1614, Control_c, 12, 1, 28
14, 1616, Control_c, 12, 1, 29
14, 1619, Control_c, 12, 1, 31
14, 1619, Control_c, 12, 1, 32
14, 1619, Control_c, 12, 1, 30
14, 1621, Control_c, 12, 1, 34
14, 1621, Control_c, 12, 1, 35
14, 1621, Control_c, 12, 1, 33
14, 1623, Control_c, 12, 1, 38
14, 1623, Control_c, 12, 1, 37
14, 1623, Control_c, 12, 1, 39
14, 1623, Control_c, 12, 1, 36
14, 1625, Control_c, 12, 1, 43
14, 1625, Control_c, 12, 1, 40
14, 1625, Control_c, 12, 1, 42
14, 1625, Control_c, 12, 1, 41
14, 1628, Control_c, 12, 1, 45
14, 1628, Control_c, 12, 1, 44
14, 1630, Control_c, 12, 1, 46
14, 1630, Control_c, 12, 1, 48
14, 1630, Control_c, 12, 1, 47
14, 1632, Control_c, 12, 1, 50
14, 1632, Control_c, 12, 1, 49
14, 1634, Control_c, 12, 1, 51
14, 1637, Control_c, 12, 1, 52
14, 1639, Control_c, 12, 1, 53
14, 1639, Control_c, 12, 1, 54
14, 1641, Control_c, 12, 1, 55
14, 1661, Control_c, 12, 1, 53
14, 1661, Control_c, 12, 1, 54
14, 1664, Control_c, 12, 1, 52
14, 1666, Control_c, 12, 1, 51
14, 1668, Control_c, 12, 1, 49
14, 1668, Control_c, 12, 1, 50
14, 1670, Control_c, 12, 1, 48
14, 1672, Control_c, 12, 1, 47
14, 1675, Control_c, 12, 1, 46
14, 1679, Control_c, 12, 1, 45
14, 1681, Control_c, 12, 1, 44
14, 1684, Control_c, 12, 1, 43
14, 1686, Control_c, 12, 1, 42
14, 1688, Control_c, 12, 1, 41
14, 1688, Control_c, 12, 1, 40
14, 1690, Control_c, 12, 1, 39
14, 1693, Control_c, 12, 1, 38
14, 1693, Control_c, 12, 1, 37
14, 1695, Control_c, 12, 1, 36
14, 1699, Control_c, 12, 1, 35
14, 1702, Control_c, 12, 1, 34
14, 1702, Control_c, 12, 1, 33
14, 1704, Control_c, 12, 1, 31
14, 1704, Control_c, 12, 1, 32
14, 1706, Control_c, 12, 1, 29
14, 1706, Control_c, 12, 1, 30
14, 1708, Control_c, 12, 1, 28
14, 1708, Control_c, 12, 1, 27
14, 1711, Control_c, 12, 1, 26
14, 1711, Control_c, 12, 1, 25
14, 1713, Control_c, 12, 1, 22
14, 1713, Control_c, 12, 1, 24
14, 1713, Control_c, 12, 1, 23
14, 1715, Control_c, 12, 1, 20
14, 1715, Control_c, 12, 1, 21
14, 1717, Control_c, 12, 1, 19
14, 1720, Control_c, 12, 1, 18
14, 1720, Control_c, 12, 1, 16
14, 1720, Control_c, 12, 1, 17
14, 1722, Control_c, 12, 1, 15
14, 1724, Control_c, 12, 1, 14
14, 1724, Control_c, 12, 1, 13
14, 1726, Control_c, 12, 1, 12
14, 1726, Control_c, 12, 1, 11
14, 1728, Control_c, 12, 1, 9
14, 1728, Control_c, 12, 1, 10
14, 1731, Control_c, 12, 1, 8
14, 1733, Control_c, 12, 1, 7
14, 1733, Control_c, 12, 1, 6
14, 1735, Control_c, 12, 1, 5
14, 1737, Control_c, 12, 1, 4
14, 1740, Control_c, 12, 1, 3
14, 1744, Control_c, 12, 1, 2
14, 1799, Note_on_c, 12, 77, 35
14, 1809, Note_on_c, 12, 70, 0
14, 1820, Control_c, 12, 1, 3
14, 1820, Control_c, 12, 1, 4
14, 1825, Control_c, 12, 1, 5
14, 1827, Control_c, 12, 1, 6
14, 1827, Control_c, 12, 1, 7
14, 1827, Control_c, 12, 1, 8
14, 1827, Control_c, 12, 1, 9
14, 1829, Control_c, 12, 1, 10
14, 1829, Control_c, 12, 1, 11
14, 1829, Control_c, 12, 1, 12
14, 1832, Control_c, 12, 1, 15
14, 1832, Control_c, 12, 1, 14
14, 1832, Control_c, 12, 1, 13
14, 1834, Control_c, 12, 1, 16
14, 1834, Control_c, 12, 1, 18
14, 1834, Control_c, 12, 1, 17
14, 1836, Control_c, 12, 1, 20
14, 1836, Control_c, 12, 1, 19
14, 1838, Control_c, 12, 1, 22
14, 1838, Control_c, 12, 1, 23
14, 1838, Control_c, 12, 1, 24
14, 1838, Control_c, 12, 1, 21
14, 1840, Control_c, 12, 1, 25
14, 1840, Control_c, 12, 1, 26
14, 1843, Control_c, 12, 1, 28
14, 1843, Control_c, 12, 1, 27
14, 1843, Control_c, 12, 1, 29
14, 1845, Control_c, 12, 1, 32
14, 1845, Control_c, 12, 1, 31
14, 1845, Control_c, 12, 1, 30
14, 1847, Control_c, 12, 1, 33
14, 1849, Control_c, 12, 1, 34
14, 1852, Control_c, 12, 1, 35
14, 1852, Control_c, 12, 1, 36
14, 1854, Control_c, 12, 1, 37
14, 1856, Control_c, 12, 1, 38
14, 1863, Control_c, 12, 1, 39
14, 1867, Control_c, 12, 1, 40
14, 1872, Control_c, 12, 1, 41
14, 1890, Control_c, 12, 1, 40
14, 1892, Control_c, 12, 1, 39
14, 1892, Control_c, 12, 1, 38
14, 1894, Control_c, 12, 1, 37
14, 1894, Control_c, 12, 1, 36
14, 1896, Control_c, 12, 1, 35
14, 1899, Control_c, 12, 1, 32
14, 1899, Control_c, 12, 1, 33
14, 1899, Control_c, 12, 1, 34
14, 1901, Control_c, 12, 1, 31
14, 1903, Control_c, 12, 1, 30
14, 1903, Control_c, 12, 1, 29
14, 1905, Control_c, 12, 1, 28
14, 1908, Control_c, 12, 1, 27
14, 1910, Control_c, 12, 1, 26
14, 1912, Control_c, 12, 1, 25
14, 1917, Control_c, 12, 1, 24
14, 1921, Note_on_c, 12, 70, 26
14, 1923, Control_c, 12, 1, 23
14, 1928, Control_c, 12, 1, 22
14, 1938, Note_on_c, 12, 77, 0
14, 1955, Control_c, 12, 1, 23
14, 1957, Control_c, 12, 1, 24
14, 1959, Control_c, 12, 1, 25
14, 1959, Control_c, 12, 1, 26
14, 1961, Control_c, 12, 1, 28
14, 1961, Control_c, 12, 1, 27
14, 1964, Control_c, 12, 1, 29
14, 1966, Control_c, 12, 1, 30
14, 1966, Control_c, 12, 1, 31
14, 1968, Control_c, 12, 1, 32
14, 1970, Control_c, 12, 1, 34
14, 1970, Control_c, 12, 1, 33
14, 1973, Control_c, 12, 1, 35
14, 1975, Control_c, 12, 1, 36
14, 1977, Control_c, 12, 1, 37
14, 1979, Control_c, 12, 1, 38
14, 1984, Control_c, 12, 1, 39
14, 1988, Control_c, 12, 1, 40
14, 2022, Control_c, 12, 1, 39
14, 2073, Control_c, 12, 1, 38
14, 2082, Control_c, 12, 1, 37
14, 2129, Control_c, 12, 1, 36
14, 2132, Control_c, 12, 1, 35
14, 2134, Control_c, 12, 1, 34
14, 2138, Control_c, 12, 1, 33
14, 2141, Control_c, 12, 1, 31
14, 2141, Control_c, 12, 1, 32
14, 2143, Control_c, 12, 1, 30
14, 2145, Control_c, 12, 1, 29
14, 2147, Control_c, 12, 1, 28
14, 2150, Control_c, 12, 1, 27
14, 2152, Control_c, 12, 1, 26
14, 2154, Control_c, 12, 1, 25
14, 2156, Control_c, 12, 1, 24
14, 2159, Control_c, 12, 1, 23
14, 2161, Control_c, 12, 1, 22
14, 2163, Control_c, 12, 1, 21
14, 2165, Control_c, 12, 1, 20
14, 2165, Control_c, 12, 1, 19
14, 2170, Control_c, 12, 1, 18
14, 2172, Control_c, 12, 1, 17
14, 2176, Control_c, 12, 1, 16
14, 2192, Control_c, 12, 1, 15
14, 2197, Control_c, 12, 1, 14
14, 2201, Control_c, 12, 1, 13
14, 2208, Control_c, 12, 1, 12
14, 2215, Control_c, 12, 1, 11
14, 2235, Control_c, 12, 1, 10
14, 2237, Control_c, 12, 1, 9
14, 2239, Control_c, 12, 1, 8
14, 2241, Control_c, 12, 1, 7
14, 2244, Control_c, 12, 1, 6
14, 2248, Control_c, 12, 1, 5
14, 2257, Control_c, 12, 1, 4
14, 2262, Control_c, 12, 1, 3
14, 2277, Control_c, 12, 1, 2
14, 2282, Control_c, 12, 1, 1
14, 2349, Control_c, 12, 1, 0
14, 2356, Note_on_c, 12, 70, 0
14, 7565, Note_on_c, 12, 81, 53
14, 7602, Control_c, 12, 1, 1
14, 7604, Control_c, 12, 1, 2
14, 7606, Control_c, 12, 1, 3
14, 7627, Note_on_c, 12, 79, 51
14, 7629, Control_c, 12, 1, 4
14, 7631, Note_on_c, 12, 81, 0
14, 7633, Control_c, 12, 1, 5
14, 7637, Control_c, 12, 1, 6
14, 7640, Control_c, 12, 1, 7
14, 7644, Control_c, 12, 1, 8
14, 7648, Control_c, 12, 1, 9
14, 7652, Control_c, 12, 1, 10
14, 7656, Control_c, 12, 1, 11
14, 7667, Control_c, 12, 1, 12
14, 7680, Control_c, 12, 1, 13
14, 7682, Note_on_c, 12, 78, 54
14, 7688, Note_on_c, 12, 79, 0
14, 7695, Control_c, 12, 1, 14
14, 7698, Control_c, 12, 1, 15
14, 7700, Control_c, 12, 1, 16
14, 7704, Control_c, 12, 1, 17
14, 7713, Control_c, 12, 1, 18
14, 7736, Note_on_c, 12, 76, 52
14, 7742, Control_c, 12, 1, 19
14, 7744, Note_on_c, 12, 78, 0
14, 7751, Control_c, 12, 1, 20
14, 7760, Control_c, 12, 1, 21
14, 7765, Control_c, 12, 1, 22
14, 7768, Control_c, 12, 1, 23
14, 7771, Control_c, 12, 1, 24
14, 7790, Control_c, 12, 1, 25
14, 7798, Note_on_c, 12, 74, 54
14, 7801, Control_c, 12, 1, 26
14, 7802, Note_on_c, 12, 76, 0
14, 7808, Control_c, 12, 1, 27
14, 7815, Control_c, 12, 1, 28
14, 7819, Control_c, 12, 1, 29
14, 7822, Control_c, 12, 1, 30
14, 7823, Control_c, 12, 1, 31
14, 7824, Control_c, 12, 1, 33
14, 7824, Control_c, 12, 1, 32
14, 7826, Control_c, 12, 1, 34
14, 7827, Control_c, 12, 1, 35
14, 7829, Control_c, 12, 1, 37
14, 7829, Control_c, 12, 1, 36
14, 7830, Control_c, 12, 1, 38
14, 7831, Control_c, 12, 1, 39
14, 7833, Control_c, 12, 1, 41
14, 7833, Control_c, 12, 1, 40
14, 7834, Control_c, 12, 1, 42
14, 7836, Control_c, 12, 1, 43
14, 7837, Control_c, 12, 1, 44
14, 7837, Control_c, 12, 1, 45
14, 7838, Control_c, 12, 1, 46
14, 7840, Control_c, 12, 1, 47
14, 7841, Control_c, 12, 1, 48
14, 7842, Control_c, 12, 1, 49
14, 7844, Control_c, 12, 1, 50
14, 7845, Control_c, 12, 1, 51
14, 7847, Control_c, 12, 1, 52
14, 7848, Control_c, 12, 1, 53
14, 7858, Control_c, 12, 1, 52
14, 7859, Control_c, 12, 1, 51
14, 7862, Control_c, 12, 1, 50
14, 7863, Control_c, 12, 1, 48
14, 7863, Control_c, 12, 1, 49
14, 7866, Control_c, 12, 1, 47
14, 7866, Control_c, 12, 1, 46
14, 7867, Control_c, 12, 1, 45
14, 7869, Control_c, 12, 1, 43
14, 7869, Control_c, 12, 1, 44
14, 7870, Control_c, 12, 1, 42
14, 7871, Control_c, 12, 1, 41
14, 7871, Control_c, 12, 1, 40
14, 7873, Control_c, 12, 1, 39
14, 7874, Control_c, 12, 1, 38
14, 7876, Control_c, 12, 1, 36
14, 7876, Control_c, 12, 1, 37
14, 7877, Control_c, 12, 1, 35
14, 7878, Control_c, 12, 1, 34
14, 7880, Control_c, 12, 1, 33
14, 7880, Control_c, 12, 1, 32
14, 7881, Control_c, 12, 1, 31
14, 7882, Control_c, 12, 1, 30
14, 7882, Control_c, 12, 1, 29
14, 7884, Control_c, 12, 1, 28
14, 7887, Control_c, 12, 1, 27
14, 7888, Control_c, 12, 1, 26
14, 7888, Control_c, 12, 1, 25
14, 7889, Control_c, 12, 1, 24
14, 7891, Control_c, 12, 1, 23
14, 7891, Control_c, 12, 1, 22
14, 7892, Control_c, 12, 1, 21
14, 7892, Control_c, 12, 1, 20
14, 7893, Control_c, 12, 1, 19
14, 7893, Control_c, 12, 1, 18
14, 7895, Control_c, 12, 1, 17
14, 7896, Control_c, 12, 1, 16
14, 7898, Control_c, 12, 1, 14
14, 7898, Control_c, 12, 1, 15
14, 7899, Control_c, 12, 1, 12
14, 7899, Control_c, 12, 1, 13
14, 7900, Control_c, 12, 1, 10
14, 7900, Control_c, 12, 1, 11
14, 7902, Control_c, 12, 1, 9
14, 7902, Control_c, 12, 1, 8
14, 7903, Control_c, 12, 1, 5
14, 7903, Control_c, 12, 1, 6
14, 7903, Control_c, 12, 1, 7
14, 7905, Control_c, 12, 1, 4
14, 7906, Control_c, 12, 1, 3
14, 7906, Control_c, 12, 1, 2
14, 7907, Control_c, 12, 1, 1
14, 7909, Control_c, 12, 1, 0
14, 7910, Note_on_c, 12, 71, 53
14, 7917, Note_on_c, 12, 74, 0
14, 8015, Note_on_c, 12, 79, 50
14, 8025, Note_on_c, 12, 71, 0
14, 8029, Pitch_bend_c, 12, 8322
14, 8030, Pitch_bend_c, 12, 8842
14, 8030, Pitch_bend_c, 12, 8452
14, 8030, Pitch_bend_c, 12, 8582
14, 8030, Pitch_bend_c, 12, 8712
14, 8031, Pitch_bend_c, 12, 9102
14, 8031, Pitch_bend_c, 12, 8972
14, 8031, Pitch_bend_c, 12, 9232
14, 8031, Pitch_bend_c, 12, 9362
14, 8033, Pitch_bend_c, 12, 9622
14, 8033, Pitch_bend_c, 12, 9752
14, 8033, Pitch_bend_c, 12, 9492
14, 8034, Pitch_bend_c, 12, 9882
14, 8034, Pitch_bend_c, 12, 10012
14, 8036, Pitch_bend_c, 12, 10662
14, 8036, Pitch_bend_c, 12, 10272
14, 8036, Pitch_bend_c, 12, 10142
14, 8036, Pitch_bend_c, 12, 10792
14, 8036, Pitch_bend_c, 12, 10402
14, 8036, Pitch_bend_c, 12, 10532
14, 8036, Pitch_bend_c, 12, 10922
14, 8037, Pitch_bend_c, 12, 11052
14, 8038, Pitch_bend_c, 12, 11312
14, 8038, Pitch_bend_c, 12, 11442
14, 8038, Pitch_bend_c, 12, 12092
14, 8038, Pitch_bend_c, 12, 11962
14, 8038, Pitch_bend_c, 12, 11832
14, 8038, Pitch_bend_c, 12, 11572
14, 8038, Pitch_bend_c, 12, 11702
14, 8040, Pitch_bend_c, 12, 12222
14, 8041, Pitch_bend_c, 12, 12742
14, 8041, Pitch_bend_c, 12, 12352
14, 8041, Pitch_bend_c, 12, 12482
14, 8041, Pitch_bend_c, 12, 12612
14, 8043, Pitch_bend_c, 12, 13392
14, 8043, Pitch_bend_c, 12, 13132
14, 8043, Pitch_bend_c, 12, 12872
14, 8043, Pitch_bend_c, 12, 13262
14, 8043, Pitch_bend_c, 12, 13652
14, 8043, Pitch_bend_c, 12, 13522
14, 8043, Pitch_bend_c, 12, 13782
14, 8044, Pitch_bend_c, 12, 13912
14, 8045, Pitch_bend_c, 12, 14042
14, 8045, Pitch_bend_c, 12, 14172
14, 8045, Pitch_bend_c, 12, 14692
14, 8045, Pitch_bend_c, 12, 14302
14, 8045, Pitch_bend_c, 12, 14562
14, 8045, Pitch_bend_c, 12, 14432
14, 8047, Pitch_bend_c, 12, 14822
14, 8048, Pitch_bend_c, 12, 15082
14, 8048, Pitch_bend_c, 12, 15212
14, 8048, Pitch_bend_c, 12, 14952
14, 8048, Pitch_bend_c, 12, 15342
14, 8049, Pitch_bend_c, 12, 15472
14, 8049, Pitch_bend_c, 12, 15602
14, 8051, Pitch_bend_c, 12, 15992
14, 8051, Pitch_bend_c, 12, 15732
14, 8051, Pitch_bend_c, 12, 15862
14, 8052, Pitch_bend_c, 12, 16122
14, 8052, Pitch_bend_c, 12, 16382
14, 8052, Pitch_bend_c, 12, 16252
14, 8152, Pitch_bend_c, 12, 15862
14, 8152, Pitch_bend_c, 12, 16252
14, 8152, Pitch_bend_c, 12, 16122
14, 8152, Pitch_bend_c, 12, 15992
14, 8153, Pitch_bend_c, 12, 15472
14, 8153, Pitch_bend_c, 12, 15602
14, 8153, Pitch_bend_c, 12, 15732
14, 8154, Pitch_bend_c, 12, 15342
14, 8154, Pitch_bend_c, 12, 15082
14, 8154, Pitch_bend_c, 12, 14952
14, 8154, Pitch_bend_c, 12, 15212
14, 8154, Pitch_bend_c, 12, 14432
14, 8154, Pitch_bend_c, 12, 14692
14, 8154, Pitch_bend_c, 12, 14562
14, 8156, Pitch_bend_c, 12, 14302
14, 8157, Pitch_bend_c, 12, 13262
14, 8157, Pitch_bend_c, 12, 13522
14, 8157, Pitch_bend_c, 12, 13002
14, 8157, Pitch_bend_c, 12, 14042
14, 8157, Pitch_bend_c, 12, 13652
14, 8157, Pitch_bend_c, 12, 12742
14, 8157, Pitch_bend_c, 12, 14172
14, 8157, Pitch_bend_c, 12, 13132
14, 8157, Pitch_bend_c, 12, 13782
14, 8160, Pitch_bend_c, 12, 11442
14, 8160, Pitch_bend_c, 12, 11312
14, 8160, Pitch_bend_c, 12, 11832
14, 8160, Pitch_bend_c, 12, 10922
14, 8160, Pitch_bend_c, 12, 12352
14, 8160, Pitch_bend_c, 12, 10272
14, 8160, Pitch_bend_c, 12, 12222
14, 8160, Pitch_bend_c, 12, 10532
14, 8160, Pitch_bend_c, 12, 10662
14, 8160, Pitch_bend_c, 12, 12612
14, 8160, Pitch_bend_c, 12, 12092
14, 8160, Pitch_bend_c, 12, 11572
14, 8164, Pitch_bend_c, 12, 9752
14, 8164, Pitch_bend_c, 12, 9492
14, 8164, Pitch_bend_c, 12, 10142
14, 8164, Pitch_bend_c, 12, 9232
14, 8164, Pitch_bend_c, 12, 9882
14, 8164, Pitch_bend_c, 12, 9102
14, 8165, Pitch_bend_c, 12, 8972
14, 8165, Pitch_bend_c, 12, 8582
14, 8165, Pitch_bend_c, 12, 8452
14, 8165, Pitch_bend_c, 12, 8192
14, 8165, Pitch_bend_c, 12, 8712
14, 8265, Pitch_bend_c, 12, 8712
14, 8265, Pitch_bend_c, 12, 8322
14, 8265, Pitch_bend_c, 12, 8452
14, 8265, Pitch_bend_c, 12, 8582
14, 8266, Pitch_bend_c, 12, 8842
14, 8266, Pitch_bend_c, 12, 8972
14, 8266, Pitch_bend_c, 12, 9102
14, 8266, Pitch_bend_c, 12, 9882
14, 8266, Pitch_bend_c, 12, 9752
14, 8266, Pitch_bend_c, 12, 9622
14, 8266, Pitch_bend_c, 12, 9492
14, 8266, Pitch_bend_c, 12, 9232
14, 8266, Pitch_bend_c, 12, 10012
14, 8267, Pitch_bend_c, 12, 10142
14, 8269, Pitch_bend_c, 12, 10532
14, 8269, Pitch_bend_c, 12, 10272
14, 8269, Pitch_bend_c, 12, 10792
14, 8269, Pitch_bend_c, 12, 10662
14, 8269, Pitch_bend_c, 12, 10402
14, 8270, Pitch_bend_c, 12, 10922
14, 8270, Pitch_bend_c, 12, 11052
14, 8270, Pitch_bend_c, 12, 11442
14, 8270, Pitch_bend_c, 12, 11312
14, 8272, Pitch_bend_c, 12, 11962
14, 8272, Pitch_bend_c, 12, 11832
14, 8272, Pitch_bend_c, 12, 12092
14, 8272, Pitch_bend_c, 12, 11572
14, 8272, Pitch_bend_c, 12, 11702
14, 8274, Pitch_bend_c, 12, 12612
14, 8274, Pitch_bend_c, 12, 12482
14, 8274, Pitch_bend_c, 12, 12742
14, 8274, Pitch_bend_c, 12, 12872
14, 8274, Pitch_bend_c, 12, 12352
14, 8274, Pitch_bend_c, 12, 12222
14, 8276, Pitch_bend_c, 12, 13132
14, 8276, Pitch_bend_c, 12, 13652
14, 8276, Pitch_bend_c, 12, 13262
14, 8276, Pitch_bend_c, 12, 13392
14, 8276, Pitch_bend_c, 12, 13522
14, 8276, Pitch_bend_c, 12, 13002
14, 8278, Pitch_bend_c, 12, 14042
14, 8278, Pitch_bend_c, 12, 13782
14, 8278, Pitch_bend_c, 12, 14172
14, 8278, Pitch_bend_c, 12, 14432
14, 8278, Pitch_bend_c, 12, 13912
14, 8278, Pitch_bend_c, 12, 14302
14, 8280, Pitch_bend_c, 12, 14692
14, 8280, Pitch_bend_c, 12, 14562
14, 8281, Pitch_bend_c, 12, 14822
14, 8281, Pitch_bend_c, 12, 15342
14, 8281, Pitch_bend_c, 12, 15212
14, 8281, Pitch_bend_c, 12, 14952
14, 8281, Pitch_bend_c, 12, 15082
14, 8284, Pitch_bend_c, 12, 15472
14, 8284, Pitch_bend_c, 12, 15862
14, 8284, Pitch_bend_c, 12, 15992
14, 8284, Pitch_bend_c, 12, 15602
14, 8284, Pitch_bend_c, 12, 15732
14, 8284, Pitch_bend_c, 12, 16122
14, 8287, Pitch_bend_c, 12, 16382
14, 8287, Pitch_bend_c, 12, 16252
14, 8498, Note_on_c, 12, 79, 0
14, 8510, Pitch_bend_c, 12, 16252
14, 8510, Pitch_bend_c, 12, 13652
14, 8510, Pitch_bend_c, 12, 15472
14, 8510, Pitch_bend_c, 12, 14562
14, 8512, Pitch_bend_c, 12, 12612
14, 8512, Pitch_bend_c, 12, 10402
14, 8512, Pitch_bend_c, 12, 9232
14, 8512, Pitch_bend_c, 12, 8322
14, 8512, Pitch_bend_c, 12, 11572
14, 8513, Pitch_bend_c, 12, 8192
14, 9419, Control_c, 12, 1, 1
14, 9422, Control_c, 12, 1, 2
14, 9423, Control_c, 12, 1, 3
14, 9428, Control_c, 12, 1, 4
14, 9430, Control_c, 12, 1, 5
14, 9436, Control_c, 12, 1, 6
14, 9480, Note_on_c, 12, 78, 44
14, 9494, Control_c, 12, 1, 7
14, 9495, Control_c, 12, 1, 8
14, 9497, Control_c, 12, 1, 9
14, 9498, Control_c, 12, 1, 10
14, 9499, Control_c, 12, 1, 11
14, 9501, Control_c, 12, 1, 13
14, 9501, Control_c, 12, 1, 12
14, 9502, Control_c, 12, 1, 14
14, 9503, Control_c, 12, 1, 15
14, 9503, Control_c, 12, 1, 16
14, 9505, Control_c, 12, 1, 17
14, 9506, Control_c, 12, 1, 18
14, 9508, Control_c, 12, 1, 19
14, 9510, Control_c, 12, 1, 20
14, 9512, Control_c, 12, 1, 21
14, 9513, Control_c, 12, 1, 22
14, 9514, Control_c, 12, 1, 24
14, 9514, Control_c, 12, 1, 23
14, 9516, Control_c, 12, 1, 25
14, 9519, Control_c, 12, 1, 27
14, 9519, Control_c, 12, 1, 26
14, 9521, Control_c, 12, 1, 28
14, 9526, Control_c, 12, 1, 29
14, 9545, Control_c, 12, 1, 28
14, 9546, Control_c, 12, 1, 27
14, 9548, Control_c, 12, 1, 26
14, 9549, Control_c, 12, 1, 24
14, 9549, Control_c, 12, 1, 25
14, 9550, Control_c, 12, 1, 23
14, 9563, Control_c, 12, 1, 22
14, 9564, Control_c, 12, 1, 21
14, 9566, Control_c, 12, 1, 20
14, 9567, Control_c, 12, 1, 19
14, 9568, Control_c, 12, 1, 18
14, 9568, Control_c, 12, 1, 17
14, 9570, Control_c, 12, 1, 15
14, 9570, Control_c, 12, 1, 16
14, 9571, Control_c, 12, 1, 13
14, 9571, Control_c, 12, 1, 14
14, 9572, Control_c, 12, 1, 12
14, 9575, Control_c, 12, 1, 11
14, 9595, Note_on_c, 12, 78, 0
14, 9601, Note_on_c, 12, 80, 50
14, 9619, Control_c, 12, 1, 12
14, 9621, Control_c, 12, 1, 13
14, 9622, Control_c, 12, 1, 14
14, 9624, Control_c, 12, 1, 15
14, 9624, Control_c, 12, 1, 16
14, 9625, Control_c, 12, 1, 17
14, 9626, Control_c, 12, 1, 18
14, 9628, Control_c, 12, 1, 19
14, 9629, Control_c, 12, 1, 20
14, 9630, Control_c, 12, 1, 21
14, 9632, Control_c, 12, 1, 23
14, 9632, Control_c, 12, 1, 22
14, 9633, Control_c, 12, 1, 24
14, 9636, Control_c, 12, 1, 25
14, 9639, Control_c, 12, 1, 26
14, 9641, Control_c, 12, 1, 27
14, 9644, Control_c, 12, 1, 28
14, 9647, Control_c, 12, 1, 29
14, 9651, Control_c, 12, 1, 30
14, 9676, Control_c, 12, 1, 29
14, 9677, Control_c, 12, 1, 28
14, 9680, Control_c, 12, 1, 27
14, 9683, Control_c, 12, 1, 26
14, 9684, Control_c, 12, 1, 25
14, 9687, Control_c, 12, 1, 24
14, 9688, Control_c, 12, 1, 23
14, 9690, Control_c, 12, 1, 22
14, 9693, Control_c, 12, 1, 21
14, 9697, Control_c, 12, 1, 20
14, 9716, Note_on_c, 12, 81, 53
14, 9720, Note_on_c, 12, 80, 0
14, 9734, Control_c, 12, 1, 21
14, 9735, Control_c, 12, 1, 22
14, 9737, Control_c, 12, 1, 23
14, 9738, Control_c, 12, 1, 24
14, 9738, Control_c, 12, 1, 25
14, 9739, Control_c, 12, 1, 26
14, 9741, Control_c, 12, 1, 27
14, 9744, Control_c, 12, 1, 28
14, 9746, Control_c, 12, 1, 29
14, 9753, Control_c, 12, 1, 30
14, 9757, Control_c, 12, 1, 31
14, 9760, Control_c, 12, 1, 32
14, 9777, Control_c, 12, 1, 31
14, 9778, Control_c, 12, 1, 29
14, 9778, Control_c, 12, 1, 30
14, 9779, Control_c, 12, 1, 28
14, 9779, Control_c, 12, 1, 27
14, 9779, Control_c, 12, 1, 26
14, 9781, Control_c, 12, 1, 25
14, 9782, Control_c, 12, 1, 21
14, 9782, Control_c, 12, 1, 23
14, 9782, Control_c, 12, 1, 22
14, 9782, Control_c, 12, 1, 24
14, 9784, Control_c, 12, 1, 20
14, 9784, Control_c, 12, 1, 19
14, 9785, Control_c, 12, 1, 18
14, 9786, Control_c, 12, 1, 17
14, 9788, Control_c, 12, 1, 16
14, 9789, Control_c, 12, 1, 15
14, 9790, Control_c, 12, 1, 14
14, 9792, Control_c, 12, 1, 13
14, 9793, Control_c, 12, 1, 12
14, 9796, Control_c, 12, 1, 11
14, 9797, Control_c, 12, 1, 10
14, 9839, Note_on_c, 12, 83, 52
14, 9844, Note_on_c, 12, 81, 0
14, 9853, Control_c, 12, 1, 11
14, 9853, Control_c, 12, 1, 12
14, 9853, Control_c, 12, 1, 13
14, 9854, Control_c, 12, 1, 15
14, 9854, Control_c, 12, 1, 14
14, 9855, Control_c, 12, 1, 16
14, 9855, Control_c, 12, 1, 17
14, 9857, Control_c, 12, 1, 19
14, 9857, Control_c, 12, 1, 21
14, 9857, Control_c, 12, 1, 20
14, 9857, Control_c, 12, 1, 18
14, 9858, Control_c, 12, 1, 22
14, 9858, Control_c, 12, 1, 24
14, 9858, Control_c, 12, 1, 23
14, 9859, Control_c, 12, 1, 27
14, 9859, Control_c, 12, 1, 26
14, 9859, Control_c, 12, 1, 25
14, 9861, Control_c, 12, 1, 29
14, 9861, Control_c, 12, 1, 28
14, 9862, Control_c, 12, 1, 30
14, 9862, Control_c, 12, 1, 31
14, 9864, Control_c, 12, 1, 32
14, 9866, Control_c, 12, 1, 33
14, 9868, Control_c, 12, 1, 34
14, 9871, Control_c, 12, 1, 35
14, 9872, Control_c, 12, 1, 36
14, 9873, Control_c, 12, 1, 37
14, 9876, Control_c, 12, 1, 38
14, 9877, Control_c, 12, 1, 39
14, 9880, Control_c, 12, 1, 40
14, 9900, Control_c, 12, 1, 39
14, 9902, Control_c, 12, 1, 38
14, 9905, Control_c, 12, 1, 37
14, 9906, Control_c, 12, 1, 36
14, 9908, Control_c, 12, 1, 35
14, 9909, Control_c, 12, 1, 34
14, 9911, Control_c, 12, 1, 32
14, 9911, Control_c, 12, 1, 33
14, 9912, Control_c, 12, 1, 31
14, 9912, Control_c, 12, 1, 30
14, 9913, Control_c, 12, 1, 28
14, 9913, Control_c, 12, 1, 29
14, 9915, Control_c, 12, 1, 27
14, 9916, Control_c, 12, 1, 25
14, 9916, Control_c, 12, 1, 26
14, 9917, Control_c, 12, 1, 24
14, 9919, Control_c, 12, 1, 22
14, 9919, Control_c, 12, 1, 23
14, 9920, Control_c, 12, 1, 21
14, 9922, Control_c, 12, 1, 19
14, 9922, Control_c, 12, 1, 20
14, 9923, Control_c, 12, 1, 17
14, 9923, Control_c, 12, 1, 18
14, 9924, Control_c, 12, 1, 16
14, 9924, Control_c, 12, 1, 15
14, 9926, Control_c, 12, 1, 14
14, 9927, Control_c, 12, 1, 13
14, 9931, Control_c, 12, 1, 12
14, 9937, Control_c, 12, 1, 11
14, 9937, Control_c, 12, 1, 10
14, 9940, Control_c, 12, 1, 9
14, 9941, Control_c, 12, 1, 8
14, 9945, Control_c, 12, 1, 7
14, 9963, Note_on_c, 12, 85, 47
14, 9973, Note_on_c, 12, 83, 0
14, 9981, Control_c, 12, 1, 8
14, 9981, Control_c, 12, 1, 9
14, 9982, Control_c, 12, 1, 10
14, 9984, Control_c, 12, 1, 11
14, 9984, Control_c, 12, 1, 12
14, 9985, Control_c, 12, 1, 13
14, 9985, Control_c, 12, 1, 14
14, 9986, Control_c, 12, 1, 15
14, 9986, Control_c, 12, 1, 16
14, 9988, Control_c, 12, 1, 17
14, 9988, Control_c, 12, 1, 18
14, 9988, Control_c, 12, 1, 19
14, 9989, Control_c, 12, 1, 20
14, 9989, Control_c, 12, 1, 21
14, 9991, Control_c, 12, 1, 22
14, 9992, Control_c, 12, 1, 23
14, 9993, Control_c, 12, 1, 24
14, 9995, Control_c, 12, 1, 25
14, 9996, Control_c, 12, 1, 26
14, 9999, Control_c, 12, 1, 27
14, 10000, Control_c, 12, 1, 28
14, 10002, Control_c, 12, 1, 29
14, 10004, Control_c, 12, 1, 30
14, 10006, Control_c, 12, 1, 31
14, 10007, Control_c, 12, 1, 32
14, 10009, Control_c, 12, 1, 33
14, 10010, Control_c, 12, 1, 34
14, 10015, Control_c, 12, 1, 35
14, 10028, Control_c, 12, 1, 34
14, 10031, Control_c, 12, 1, 33
14, 10032, Control_c, 12, 1, 32
14, 10035, Control_c, 12, 1, 31
14, 10036, Control_c, 12, 1, 30
14, 10038, Control_c, 12, 1, 29
14, 10040, Control_c, 12, 1, 28
14, 10042, Control_c, 12, 1, 26
14, 10042, Control_c, 12, 1, 27
14, 10043, Control_c, 12, 1, 25
14, 10044, Control_c, 12, 1, 22
14, 10044, Control_c, 12, 1, 24
14, 10044, Control_c, 12, 1, 23
14, 10046, Control_c, 12, 1, 21
14, 10047, Control_c, 12, 1, 20
14, 10047, Control_c, 12, 1, 18
14, 10047, Control_c, 12, 1, 19
14, 10049, Control_c, 12, 1, 17
14, 10049, Control_c, 12, 1, 14
14, 10049, Control_c, 12, 1, 15
14, 10049, Control_c, 12, 1, 16
14, 10049, Control_c, 12, 1, 13
14, 10050, Control_c, 12, 1, 12
14, 10051, Control_c, 12, 1, 11
14, 10051, Control_c, 12, 1, 9
14, 10051, Control_c, 12, 1, 10
14, 10051, Control_c, 12, 1, 8
14, 10053, Control_c, 12, 1, 6
14, 10053, Control_c, 12, 1, 7
14, 10055, Control_c, 12, 1, 5
14, 10058, Control_c, 12, 1, 4
14, 10061, Control_c, 12, 1, 3
14, 10062, Control_c, 12, 1, 2
14, 10065, Control_c, 12, 1, 1
14, 10076, Note_on_c, 12, 86, 53
14, 10084, Note_on_c, 12, 85, 0
14, 10095, Control_c, 12, 1, 2
14, 10095, Control_c, 12, 1, 3
14, 10095, Control_c, 12, 1, 4
14, 10097, Control_c, 12, 1, 6
14, 10097, Control_c, 12, 1, 5
14, 10098, Control_c, 12, 1, 12
14, 10098, Control_c, 12, 1, 9
14, 10098, Control_c, 12, 1, 11
14, 10098, Control_c, 12, 1, 8
14, 10098, Control_c, 12, 1, 7
14, 10098, Control_c, 12, 1, 10
14, 10101, Control_c, 12, 1, 14
14, 10101, Control_c, 12, 1, 16
14, 10101, Control_c, 12, 1, 15
14, 10101, Control_c, 12, 1, 13
14, 10104, Control_c, 12, 1, 17
14, 10104, Control_c, 12, 1, 18
14, 10105, Control_c, 12, 1, 20
14, 10105, Control_c, 12, 1, 19
14, 10107, Control_c, 12, 1, 21
14, 10108, Control_c, 12, 1, 22
14, 10109, Control_c, 12, 1, 23
14, 10109, Control_c, 12, 1, 25
14, 10109, Control_c, 12, 1, 24
14, 10111, Control_c, 12, 1, 26
14, 10112, Control_c, 12, 1, 28
14, 10112, Control_c, 12, 1, 27
14, 10113, Control_c, 12, 1, 29
14, 10115, Control_c, 12, 1, 30
14, 10116, Control_c, 12, 1, 32
14, 10116, Control_c, 12, 1, 31
14, 10118, Control_c, 12, 1, 33
14, 10119, Control_c, 12, 1, 34
14, 10122, Control_c, 12, 1, 35
14, 10123, Control_c, 12, 1, 36
14, 10126, Control_c, 12, 1, 37
14, 10129, Control_c, 12, 1, 38
14, 10144, Control_c, 12, 1, 37
14, 10145, Control_c, 12, 1, 36
14, 10147, Control_c, 12, 1, 33
14, 10147, Control_c, 12, 1, 35
14, 10147, Control_c, 12, 1, 34
14, 10148, Control_c, 12, 1, 32
14, 10149, Control_c, 12, 1, 29
14, 10149, Control_c, 12, 1, 28
14, 10149, Control_c, 12, 1, 30
14, 10149, Control_c, 12, 1, 31
14, 10151, Control_c, 12, 1, 27
14, 10151, Control_c, 12, 1, 26
14, 10152, Control_c, 12, 1, 23
14, 10152, Control_c, 12, 1, 24
14, 10152, Control_c, 12, 1, 25
14, 10153, Control_c, 12, 1, 22
14, 10153, Control_c, 12, 1, 20
14, 10153, Control_c, 12, 1, 21
14, 10155, Control_c, 12, 1, 19
14, 10156, Control_c, 12, 1, 17
14, 10156, Control_c, 12, 1, 18
14, 10158, Control_c, 12, 1, 14
14, 10158, Control_c, 12, 1, 15
14, 10158, Control_c, 12, 1, 16
14, 10159, Control_c, 12, 1, 13
14, 10160, Control_c, 12, 1, 11
14, 10160, Control_c, 12, 1, 12
14, 10162, Control_c, 12, 1, 10
14, 10162, Control_c, 12, 1, 9
14, 10163, Control_c, 12, 1, 8
14, 10163, Control_c, 12, 1, 6
14, 10163, Control_c, 12, 1, 7
14, 10164, Control_c, 12, 1, 5
14, 10164, Control_c, 12, 1, 3
14, 10164, Control_c, 12, 1, 4
14, 10166, Control_c, 12, 1, 2
14, 10166, Control_c, 12, 1, 1
14, 10180, Control_c, 12, 1, 0
14, 10198, Note_on_c, 12, 85, 53
14, 10204, Note_on_c, 12, 86, 0
14, 10228, Control_c, 12, 1, 1
14, 10229, Control_c, 12, 1, 2
14, 10231, Control_c, 12, 1, 3
14, 10231, Control_c, 12, 1, 4
14, 10232, Control_c, 12, 1, 5
14, 10233, Control_c, 12, 1, 7
14, 10233, Control_c, 12, 1, 6
14, 10235, Control_c, 12, 1, 8
14, 10235, Control_c, 12, 1, 9
14, 10236, Control_c, 12, 1, 10
14, 10236, Control_c, 12, 1, 11
14, 10238, Control_c, 12, 1, 12
14, 10238, Control_c, 12, 1, 13
14, 10239, Control_c, 12, 1, 14
14, 10240, Control_c, 12, 1, 16
14, 10240, Control_c, 12, 1, 15
14, 10242, Control_c, 12, 1, 18
14, 10242, Control_c, 12, 1, 17
14, 10243, Control_c, 12, 1, 19
14, 10245, Control_c, 12, 1, 21
14, 10245, Control_c, 12, 1, 20
14, 10246, Control_c, 12, 1, 22
14, 10247, Control_c, 12, 1, 23
14, 10247, Control_c, 12, 1, 24
14, 10249, Control_c, 12, 1, 25
14, 10250, Control_c, 12, 1, 26
14, 10251, Control_c, 12, 1, 27
14, 10253, Control_c, 12, 1, 28
14, 10254, Control_c, 12, 1, 29
14, 10256, Control_c, 12, 1, 30
14, 10258, Control_c, 12, 1, 31
14, 10260, Control_c, 12, 1, 32
14, 10265, Control_c, 12, 1, 33
14, 10329, Control_c, 12, 1, 32
14, 10330, Control_c, 12, 1, 31
14, 10331, Control_c, 12, 1, 30
14, 10333, Control_c, 12, 1, 29
14, 10333, Control_c, 12, 1, 28
14, 10336, Control_c, 12, 1, 26
14, 10336, Control_c, 12, 1, 27
14, 10337, Control_c, 12, 1, 25
14, 10338, Control_c, 12, 1, 24
14, 10340, Control_c, 12, 1, 23
14, 10341, Control_c, 12, 1, 22
14, 10342, Control_c, 12, 1, 20
14, 10342, Control_c, 12, 1, 21
14, 10344, Control_c, 12, 1, 19
14, 10344, Control_c, 12, 1, 17
14, 10344, Control_c, 12, 1, 18
14, 10345, Control_c, 12, 1, 15
14, 10345, Control_c, 12, 1, 16
14, 10347, Control_c, 12, 1, 12
14, 10347, Control_c, 12, 1, 14
14, 10347, Control_c, 12, 1, 10
14, 10347, Control_c, 12, 1, 13
14, 10347, Control_c, 12, 1, 11
14, 10349, Control_c, 12, 1, 2
14, 10349, Control_c, 12, 1, 1
14, 10349, Control_c, 12, 1, 3
14, 10349, Control_c, 12, 1, 9
14, 10349, Control_c, 12, 1, 5
14, 10349, Control_c, 12, 1, 4
14, 10349, Control_c, 12, 1, 8
14, 10349, Control_c, 12, 1, 6
14, 10356, Note_on_c, 12, 85, 0
14, 10360, Control_c, 12, 1, 0
14, 10405, Note_on_c, 12, 86, 58
14, 10449, Note_on_c, 12, 88, 57
14, 10454, Note_on_c, 12, 86, 0
14, 10463, Control_c, 12, 1, 2
14, 10463, Control_c, 12, 1, 1
14, 10464, Control_c, 12, 1, 5
14, 10464, Control_c, 12, 1, 3
14, 10464, Control_c, 12, 1, 4
14, 10464, Control_c, 12, 1, 6
14, 10465, Control_c, 12, 1, 8
14, 10465, Control_c, 12, 1, 7
14, 10465, Control_c, 12, 1, 9
14, 10467, Control_c, 12, 1, 14
14, 10467, Control_c, 12, 1, 11
14, 10467, Control_c, 12, 1, 13
14, 10467, Control_c, 12, 1, 10
14, 10467, Control_c, 12, 1, 12
14, 10468, Control_c, 12, 1, 16
14, 10468, Control_c, 12, 1, 15
14, 10468, Control_c, 12, 1, 17
14, 10469, Control_c, 12, 1, 18
14, 10469, Control_c, 12, 1, 19
14, 10469, Control_c, 12, 1, 20
14, 10471, Control_c, 12, 1, 21
14, 10471, Control_c, 12, 1, 24
14, 10471, Control_c, 12, 1, 22
14, 10471, Control_c, 12, 1, 23
14, 10474, Control_c, 12, 1, 25
14, 10474, Control_c, 12, 1, 27
14, 10474, Control_c, 12, 1, 28
14, 10474, Control_c, 12, 1, 26
14, 10475, Control_c, 12, 1, 29
14, 10475, Control_c, 12, 1, 30
14, 10476, Control_c, 12, 1, 32
14, 10476, Control_c, 12, 1, 31
14, 10478, Control_c, 12, 1, 33
14, 10479, Control_c, 12, 1, 34
14, 10480, Control_c, 12, 1, 35
14, 10482, Control_c, 12, 1, 36
14, 10482, Control_c, 12, 1, 37
14, 10485, Control_c, 12, 1, 38
14, 10486, Control_c, 12, 1, 39
14, 10487, Control_c, 12, 1, 40
14, 10489, Control_c, 12, 1, 42
14, 10489, Control_c, 12, 1, 41
14, 10492, Control_c, 12, 1, 43
14, 10494, Control_c, 12, 1, 44
14, 10497, Control_c, 12, 1, 45
14, 10505, Control_c, 12, 1, 46
14, 10511, Control_c, 12, 1, 47
14, 10538, Control_c, 12, 1, 46
14, 10543, Control_c, 12, 1, 45
14, 10547, Control_c, 12, 1, 44
14, 10548, Control_c, 12, 1, 43
14, 10549, Control_c, 12, 1, 42
14, 10551, Control_c, 12, 1, 40
14, 10551, Control_c, 12, 1, 41
14, 10552, Control_c, 12, 1, 38
14, 10552, Control_c, 12, 1, 39
14, 10554, Control_c, 12, 1, 33
14, 10554, Control_c, 12, 1, 35
14, 10554, Control_c, 12, 1, 37
14, 10554, Control_c, 12, 1, 34
14, 10554, Control_c, 12, 1, 36
14, 10556, Control_c, 12, 1, 28
14, 10556, Control_c, 12, 1, 25
14, 10556, Control_c, 12, 1, 29
14, 10556, Control_c, 12, 1, 26
14, 10556, Control_c, 12, 1, 31
14, 10556, Control_c, 12, 1, 32
14, 10556, Control_c, 12, 1, 24
14, 10556, Control_c, 12, 1, 30
14, 10556, Control_c, 12, 1, 27
14, 10556, Control_c, 12, 1, 23
14, 10558, Control_c, 12, 1, 22
14, 10559, Control_c, 12, 1, 19
14, 10559, Control_c, 12, 1, 20
14, 10559, Control_c, 12, 1, 18
14, 10559, Control_c, 12, 1, 21
14, 10561, Control_c, 12, 1, 16
14, 10561, Control_c, 12, 1, 15
14, 10561, Control_c, 12, 1, 14
14, 10561, Control_c, 12, 1, 17
14, 10563, Control_c, 12, 1, 10
14, 10563, Control_c, 12, 1, 13
14, 10563, Control_c, 12, 1, 11
14, 10563, Control_c, 12, 1, 12
14, 10565, Control_c, 12, 1, 9
14, 10566, Control_c, 12, 1, 7
14, 10566, Control_c, 12, 1, 8
14, 10567, Control_c, 12, 1, 6
14, 10569, Control_c, 12, 1, 5
14, 10569, Control_c, 12, 1, 4
14, 10570, Control_c, 12, 1, 2
14, 10570, Control_c, 12, 1, 3
14, 10572, Control_c, 12, 1, 1
14, 10587, Control_c, 12, 1, 0
14, 10623, Note_on_c, 12, 85, 53
14, 10628, Note_on_c, 12, 88, 0
14, 10649, Note_on_c, 12, 86, 55
14, 10654, Note_on_c, 12, 85, 0
14, 10682, Note_on_c, 12, 88, 61
14, 10682, Note_on_c, 12, 86, 0
14, 10744, Note_on_c, 12, 86, 53
14, 10748, Note_on_c, 12, 88, 0
14, 10755, Control_c, 12, 1, 4
14, 10755, Control_c, 12, 1, 3
14, 10755, Control_c, 12, 1, 1
14, 10755, Control_c, 12, 1, 2
14, 10756, Control_c, 12, 1, 5
14, 10756, Control_c, 12, 1, 6
14, 10759, Control_c, 12, 1, 17
14, 10759, Control_c, 12, 1, 13
14, 10759, Control_c, 12, 1, 16
14, 10759, Control_c, 12, 1, 15
14, 10759, Control_c, 12, 1, 9
14, 10759, Control_c, 12, 1, 8
14, 10759, Control_c, 12, 1, 11
14, 10759, Control_c, 12, 1, 18
14, 10759, Control_c, 12, 1, 19
14, 10759, Control_c, 12, 1, 20
14, 10759, Control_c, 12, 1, 10
14, 10759, Control_c, 12, 1, 14
14, 10759, Control_c, 12, 1, 7
14, 10759, Control_c, 12, 1, 12
14, 10762, Control_c, 12, 1, 22
14, 10762, Control_c, 12, 1, 21
14, 10763, Control_c, 12, 1, 24
14, 10763, Control_c, 12, 1, 23
14, 10765, Control_c, 12, 1, 26
14, 10765, Control_c, 12, 1, 25
14, 10766, Control_c, 12, 1, 29
14, 10766, Control_c, 12, 1, 28
14, 10766, Control_c, 12, 1, 27
14, 10768, Control_c, 12, 1, 31
14, 10768, Control_c, 12, 1, 30
14, 10769, Control_c, 12, 1, 33
14, 10769, Control_c, 12, 1, 32
14, 10770, Control_c, 12, 1, 34
14, 10772, Control_c, 12, 1, 35
14, 10773, Control_c, 12, 1, 36
14, 10774, Control_c, 12, 1, 37
14, 10776, Control_c, 12, 1, 38
14, 10781, Control_c, 12, 1, 39
14, 10810, Control_c, 12, 1, 38
14, 10820, Control_c, 12, 1, 37
14, 10827, Control_c, 12, 1, 36
14, 10830, Control_c, 12, 1, 35
14, 10832, Control_c, 12, 1, 34
14, 10834, Control_c, 12, 1, 33
14, 10837, Control_c, 12, 1, 32
14, 10838, Control_c, 12, 1, 31
14, 10838, Control_c, 12, 1, 30
14, 10839, Control_c, 12, 1, 29
14, 10841, Control_c, 12, 1, 28
14, 10841, Control_c, 12, 1, 27
14, 10842, Control_c, 12, 1, 26
14, 10842, Control_c, 12, 1, 25
14, 10843, Control_c, 12, 1, 24
14, 10845, Control_c, 12, 1, 23
14, 10845, Control_c, 12, 1, 22
14, 10846, Control_c, 12, 1, 21
14, 10848, Control_c, 12, 1, 20
14, 10848, Control_c, 12, 1, 19
14, 10849, Control_c, 12, 1, 18
14, 10849, Control_c, 12, 1, 17
14, 10850, Control_c, 12, 1, 16
14, 10850, Control_c, 12, 1, 15
14, 10852, Control_c, 12, 1, 12
14, 10852, Control_c, 12, 1, 14
14, 10852, Control_c, 12, 1, 13
14, 10853, Control_c, 12, 1, 11
14, 10854, Control_c, 12, 1, 9
14, 10854, Control_c, 12, 1, 10
14, 10856, Control_c, 12, 1, 8
14, 10859, Control_c, 12, 1, 7
14, 10861, Control_c, 12, 1, 6
14, 10863, Control_c, 12, 1, 5
14, 10864, Control_c, 12, 1, 4
14, 10866, Control_c, 12, 1, 3
14, 10867, Control_c, 12, 1, 2
14, 10868, Control_c, 12, 1, 1
14, 10881, Control_c, 12, 1, 0
14, 10885, Note_on_c, 12, 86, 0
14, 10912, Note_on_c, 12, 86, 54
14, 10922, Control_c, 12, 1, 2
14, 10922, Control_c, 12, 1, 1
14, 10923, Control_c, 12, 1, 3
14, 10923, Control_c, 12, 1, 4
14, 10923, Control_c, 12, 1, 6
14, 10923, Control_c, 12, 1, 7
14, 10923, Control_c, 12, 1, 5
14, 10925, Control_c, 12, 1, 8
14, 10926, Control_c, 12, 1, 10
14, 10926, Control_c, 12, 1, 9
14, 10926, Control_c, 12, 1, 11
14, 10926, Control_c, 12, 1, 12
14, 10928, Control_c, 12, 1, 16
14, 10928, Control_c, 12, 1, 14
14, 10928, Control_c, 12, 1, 13
14, 10928, Control_c, 12, 1, 15
14, 10929, Control_c, 12, 1, 17
14, 10930, Control_c, 12, 1, 18
14, 10932, Control_c, 12, 1, 19
14, 10932, Control_c, 12, 1, 20
14, 10933, Control_c, 12, 1, 21
14, 10933, Control_c, 12, 1, 22
14, 10936, Control_c, 12, 1, 23
14, 10937, Control_c, 12, 1, 24
14, 10939, Control_c, 12, 1, 25
14, 10941, Control_c, 12, 1, 26
14, 10946, Control_c, 12, 1, 27
14, 10984, Note_on_c, 12, 84, 54
14, 10984, Note_on_c, 12, 86, 0
14, 11017, Control_c, 12, 1, 26
14, 11017, Control_c, 12, 1, 25
14, 11019, Control_c, 12, 1, 24
14, 11020, Control_c, 12, 1, 23
14, 11021, Control_c, 12, 1, 22
14, 11023, Control_c, 12, 1, 21
14, 11024, Control_c, 12, 1, 20
14, 11026, Control_c, 12, 1, 19
14, 11027, Control_c, 12, 1, 18
14, 11034, Control_c, 12, 1, 17
14, 11038, Control_c, 12, 1, 16
14, 11042, Note_on_c, 12, 82, 49
14, 11044, Control_c, 12, 1, 15
14, 11046, Note_on_c, 12, 84, 0
14, 11063, Control_c, 12, 1, 14
14, 11104, Note_on_c, 12, 81, 51
14, 11111, Note_on_c, 12, 82, 0
14, 11169, Note_on_c, 12, 79, 53
14, 11173, Note_on_c, 12, 81, 0
14, 11187, Control_c, 12, 1, 15
14, 11188, Control_c, 12, 1, 16
14, 11191, Control_c, 12, 1, 17
14, 11191, Control_c, 12, 1, 18
14, 11193, Control_c, 12, 1, 19
14, 11193, Control_c, 12, 1, 20
14, 11194, Control_c, 12, 1, 21
14, 11195, Control_c, 12, 1, 23
14, 11195, Control_c, 12, 1, 22
14, 11197, Control_c, 12, 1, 25
14, 11197, Control_c, 12, 1, 24
14, 11198, Control_c, 12, 1, 27
14, 11198, Control_c, 12, 1, 26
14, 11199, Control_c, 12, 1, 28
14, 11201, Control_c, 12, 1, 31
14, 11201, Control_c, 12, 1, 30
14, 11201, Control_c, 12, 1, 29
14, 11202, Control_c, 12, 1, 32
14, 11204, Control_c, 12, 1, 33
14, 11204, Control_c, 12, 1, 34
14, 11205, Control_c, 12, 1, 35
14, 11206, Control_c, 12, 1, 36
14, 11208, Control_c, 12, 1, 37
14, 11209, Control_c, 12, 1, 38
14, 11220, Control_c, 12, 1, 37
14, 11222, Control_c, 12, 1, 36
14, 11222, Control_c, 12, 1, 35
14, 11223, Control_c, 12, 1, 34
14, 11224, Control_c, 12, 1, 33
14, 11224, Control_c, 12, 1, 32
14, 11226, Control_c, 12, 1, 31
14, 11227, Control_c, 12, 1, 30
14, 11228, Control_c, 12, 1, 29
14, 11233, Control_c, 12, 1, 28
14, 11235, Control_c, 12, 1, 27
14, 11237, Control_c, 12, 1, 26
14, 11237, Control_c, 12, 1, 25
14, 11238, Control_c, 12, 1, 24
14, 11239, Control_c, 12, 1, 23
14, 11239, Control_c, 12, 1, 22
14, 11241, Control_c, 12, 1, 21
14, 11241, Control_c, 12, 1, 20
14, 11244, Control_c, 12, 1, 19
14, 11245, Control_c, 12, 1, 18
14, 11246, Note_on_c, 12, 78, 48
14, 11248, Control_c, 12, 1, 17
14, 11251, Control_c, 12, 1, 16
14, 11251, Note_on_c, 12, 79, 0
14, 11281, Control_c, 12, 1, 18
14, 11281, Control_c, 12, 1, 17
14, 11282, Control_c, 12, 1, 19
14, 11284, Control_c, 12, 1, 20
14, 11286, Control_c, 12, 1, 21
14, 11288, Control_c, 12, 1, 22
14, 11291, Control_c, 12, 1, 24
14, 11291, Control_c, 12, 1, 23
14, 11292, Control_c, 12, 1, 25
14, 11293, Control_c, 12, 1, 26
14, 11295, Control_c, 12, 1, 27
14, 11297, Control_c, 12, 1, 28
14, 11299, Control_c, 12, 1, 29
14, 11300, Control_c, 12, 1, 31
14, 11300, Control_c, 12, 1, 30
14, 11302, Control_c, 12, 1, 32
14, 11304, Control_c, 12, 1, 33
14, 11304, Control_c, 12, 1, 34
14, 11307, Control_c, 12, 1, 35
14, 11310, Control_c, 12, 1, 36
14, 11313, Control_c, 12, 1, 37
14, 11315, Control_c, 12, 1, 38
14, 11405, Control_c, 12, 1, 37
14, 11406, Note_on_c, 12, 78, 0
14, 11411, Control_c, 12, 1, 36
14, 11416, Control_c, 12, 1, 35
14, 11420, Control_c, 12, 1, 34
14, 11423, Control_c, 12, 1, 33
14, 11435, Control_c, 12, 1, 32
14, 11438, Control_c, 12, 1, 30
14, 11438, Control_c, 12, 1, 31
14, 11440, Control_c, 12, 1, 29
14, 11441, Control_c, 12, 1, 28
14, 11441, Control_c, 12, 1, 27
14, 11442, Control_c, 12, 1, 26
14, 11442, Control_c, 12, 1, 25
14, 11444, Control_c, 12, 1, 24
14, 11458, Control_c, 12, 1, 23
14, 11463, Control_c, 12, 1, 22
14, 11473, Control_c, 12, 1, 21
14, 11475, Control_c, 12, 1, 20
14, 11478, Control_c, 12, 1, 19
14, 11480, Note_on_c, 12, 71, 57
14, 11489, Control_c, 12, 1, 4
14, 11489, Control_c, 12, 1, 3
14, 11489, Control_c, 12, 1, 1
14, 11489, Control_c, 12, 1, 2
14, 11491, Control_c, 12, 1, 5
14, 11491, Control_c, 12, 1, 6
14, 11492, Control_c, 12, 1, 7
14, 11492, Control_c, 12, 1, 9
14, 11492, Control_c, 12, 1, 10
14, 11492, Control_c, 12, 1, 8
14, 11493, Control_c, 12, 1, 18
14, 11494, Control_c, 12, 1, 12
14, 11494, Control_c, 12, 1, 14
14, 11494, Control_c, 12, 1, 13
14, 11494, Control_c, 12, 1, 15
14, 11494, Control_c, 12, 1, 11
14, 11495, Control_c, 12, 1, 16
14, 11496, Control_c, 12, 1, 19
14, 11496, Control_c, 12, 1, 17
14, 11496, Control_c, 12, 1, 18
14, 11496, Control_c, 12, 1, 20
14, 11498, Control_c, 12, 1, 21
14, 11499, Control_c, 12, 1, 23
14, 11499, Control_c, 12, 1, 24
14, 11499, Control_c, 12, 1, 22
14, 11500, Control_c, 12, 1, 26
14, 11500, Control_c, 12, 1, 25
14, 11502, Control_c, 12, 1, 27
14, 11503, Control_c, 12, 1, 28
14, 11505, Control_c, 12, 1, 29
14, 11506, Control_c, 12, 1, 17
14, 11507, Control_c, 12, 1, 30
14, 11509, Control_c, 12, 1, 15
14, 11509, Control_c, 12, 1, 31
14, 11509, Control_c, 12, 1, 16
14, 11510, Control_c, 12, 1, 32
14, 11510, Control_c, 12, 1, 14
14, 11511, Control_c, 12, 1, 11
14, 11511, Control_c, 12, 1, 13
14, 11511, Control_c, 12, 1, 12
14, 11513, Control_c, 12, 1, 10
14, 11513, Control_c, 12, 1, 9
14, 11514, Control_c, 12, 1, 8
14, 11514, Control_c, 12, 1, 7
14, 11515, Control_c, 12, 1, 6
14, 11532, Control_c, 12, 1, 31
14, 11534, Control_c, 12, 1, 30
14, 11536, Control_c, 12, 1, 5
14, 11538, Control_c, 12, 1, 29
14, 11539, Control_c, 12, 1, 4
14, 11540, Control_c, 12, 1, 3
14, 11542, Control_c, 12, 1, 2
14, 11543, Control_c, 12, 1, 1
14, 11549, Control_c, 12, 1, 28
14, 11552, Control_c, 12, 1, 27
14, 11553, Control_c, 12, 1, 26
14, 11555, Note_on_c, 12, 71, 0
14, 11556, Control_c, 12, 1, 25
14, 11557, Control_c, 12, 1, 24
14, 11558, Note_on_c, 12, 80, 53
14, 11558, Control_c, 12, 1, 23
14, 11558, Control_c, 12, 1, 22
14, 11561, Control_c, 12, 1, 21
14, 11563, Control_c, 12, 1, 20
14, 11564, Control_c, 12, 1, 19
14, 11565, Control_c, 12, 1, 0
14, 11581, Control_c, 12, 1, 20
14, 11589, Control_c, 12, 1, 21
14, 11596, Control_c, 12, 1, 22
14, 11598, Note_on_c, 12, 83, 53
14, 11601, Control_c, 12, 1, 23
14, 11603, Note_on_c, 12, 80, 0
14, 11605, Control_c, 12, 1, 24
14, 11623, Control_c, 12, 1, 25
14, 11633, Control_c, 12, 1, 26
14, 11638, Note_on_c, 12, 83, 0
14, 11638, Note_on_c, 12, 81, 60
14, 11641, Control_c, 12, 1, 27
14, 11644, Control_c, 12, 1, 28
14, 11648, Control_c, 12, 1, 29
14, 11652, Control_c, 12, 1, 30
14, 11656, Control_c, 12, 1, 31
14, 11658, Control_c, 12, 1, 32
14, 11661, Control_c, 12, 1, 33
14, 11663, Control_c, 12, 1, 34
14, 11667, Control_c, 12, 1, 35
14, 11677, Control_c, 12, 1, 36
14, 11683, Control_c, 12, 1, 37
14, 11687, Control_c, 12, 1, 38
14, 11691, Control_c, 12, 1, 39
14, 11692, Control_c, 12, 1, 40
14, 11694, Control_c, 12, 1, 41
14, 11695, Control_c, 12, 1, 42
14, 11699, Control_c, 12, 1, 43
14, 11716, Control_c, 12, 1, 44
14, 11719, Control_c, 12, 1, 45
14, 11720, Control_c, 12, 1, 46
14, 11721, Control_c, 12, 1, 47
14, 11723, Control_c, 12, 1, 48
14, 11725, Control_c, 12, 1, 49
14, 11727, Control_c, 12, 1, 50
14, 11728, Control_c, 12, 1, 51
14, 11734, Control_c, 12, 1, 52
14, 11753, Control_c, 12, 1, 51
14, 11771, Control_c, 12, 1, 50
14, 11785, Control_c, 12, 1, 49
14, 11792, Control_c, 12, 1, 48
14, 11796, Control_c, 12, 1, 47
14, 11797, Control_c, 12, 1, 46
14, 11799, Control_c, 12, 1, 45
14, 11800, Control_c, 12, 1, 44
14, 11801, Control_c, 12, 1, 42
14, 11801, Control_c, 12, 1, 43
14, 11804, Control_c, 12, 1, 41
14, 11804, Control_c, 12, 1, 39
14, 11804, Control_c, 12, 1, 40
14, 11805, Control_c, 12, 1, 38
14, 11805, Control_c, 12, 1, 37
14, 11807, Control_c, 12, 1, 36
14, 11807, Control_c, 12, 1, 35
14, 11808, Control_c, 12, 1, 33
14, 11808, Control_c, 12, 1, 34
14, 11808, Control_c, 12, 1, 32
14, 11810, Control_c, 12, 1, 29
14, 11810, Control_c, 12, 1, 31
14, 11810, Control_c, 12, 1, 30
14, 11811, Control_c, 12, 1, 28
14, 11811, Control_c, 12, 1, 27
14, 11812, Control_c, 12, 1, 24
14, 11812, Control_c, 12, 1, 26
14, 11812, Control_c, 12, 1, 25
14, 11814, Control_c, 12, 1, 23
14, 11814, Control_c, 12, 1, 22
14, 11815, Control_c, 12, 1, 19
14, 11815, Control_c, 12, 1, 21
14, 11815, Control_c, 12, 1, 20
14, 11817, Control_c, 12, 1, 17
14, 11817, Control_c, 12, 1, 18
14, 11818, Control_c, 12, 1, 15
14, 11818, Control_c, 12, 1, 16
14, 11819, Control_c, 12, 1, 14
14, 11821, Control_c, 12, 1, 13
14, 11821, Control_c, 12, 1, 12
14, 11822, Control_c, 12, 1, 11
14, 11823, Control_c, 12, 1, 10
14, 11825, Control_c, 12, 1, 9
14, 11829, Control_c, 12, 1, 8
14, 11830, Control_c, 12, 1, 7
14, 11833, Control_c, 12, 1, 6
14, 11834, Control_c, 12, 1, 5
14, 11834, Control_c, 12, 1, 4
14, 11837, Control_c, 12, 1, 3
14, 11837, Control_c, 12, 1, 2
14, 11840, Control_c, 12, 1, 1
14, 11868, Control_c, 12, 1, 0
14, 11883, Note_on_c, 12, 81, 0
14, 11908, Control_c, 12, 10, 8
14, 11938, Note_on_c, 12, 76, 51
14, 11952, Control_c, 12, 1, 1
14, 11953, Control_c, 12, 1, 3
14, 11953, Control_c, 12, 1, 2
14, 11955, Control_c, 12, 1, 4
14, 11955, Control_c, 12, 1, 5
14, 11955, Control_c, 12, 1, 6
14, 11956, Control_c, 12, 1, 7
14, 11956, Control_c, 12, 1, 8
14, 11957, Control_c, 12, 1, 10
14, 11957, Control_c, 12, 1, 9
14, 11959, Control_c, 12, 1, 11
14, 11959, Control_c, 12, 1, 12
14, 11960, Control_c, 12, 1, 13
14, 11960, Control_c, 12, 1, 14
14, 11961, Control_c, 12, 1, 16
14, 11961, Control_c, 12, 1, 17
14, 11961, Control_c, 12, 1, 15
14, 11963, Control_c, 12, 1, 19
14, 11963, Control_c, 12, 1, 18
14, 11964, Control_c, 12, 1, 21
14, 11964, Control_c, 12, 1, 20
14, 11966, Control_c, 12, 1, 23
14, 11966, Control_c, 12, 1, 22
14, 11966, Control_c, 12, 1, 24
14, 11967, Control_c, 12, 1, 26
14, 11967, Control_c, 12, 1, 25
14, 11967, Control_c, 12, 1, 27
14, 11968, Control_c, 12, 1, 28
14, 11968, Control_c, 12, 1, 29
14, 11970, Control_c, 12, 1, 30
14, 11970, Control_c, 12, 1, 31
14, 11970, Control_c, 12, 1, 32
14, 11970, Control_c, 12, 1, 34
14, 11970, Control_c, 12, 1, 33
14, 11971, Control_c, 12, 1, 36
14, 11971, Control_c, 12, 1, 35
14, 11972, Control_c, 12, 1, 38
14, 11972, Control_c, 12, 1, 37
14, 11974, Control_c, 12, 1, 39
14, 11974, Control_c, 12, 1, 41
14, 11974, Control_c, 12, 1, 40
14, 11975, Control_c, 12, 1, 45
14, 11975, Control_c, 12, 1, 42
14, 11975, Control_c, 12, 1, 44
14, 11975, Control_c, 12, 1, 43
14, 11977, Control_c, 12, 1, 46
14, 11977, Control_c, 12, 1, 47
14, 11978, Control_c, 12, 1, 48
14, 11979, Control_c, 12, 1, 49
14, 11979, Control_c, 12, 1, 50
14, 11979, Control_c, 12, 1, 51
14, 11982, Control_c, 12, 1, 52
14, 11993, Control_c, 12, 1, 51
14, 12000, Control_c, 12, 1, 50
14, 12001, Note_on_c, 12, 85, 54
14, 12004, Control_c, 12, 1, 49
14, 12006, Note_on_c, 12, 76, 0
14, 12008, Control_c, 12, 1, 48
14, 12008, Control_c, 12, 1, 47
14, 12010, Control_c, 12, 1, 46
14, 12011, Control_c, 12, 1, 44
14, 12011, Control_c, 12, 1, 45
14, 12012, Control_c, 12, 1, 43
14, 12017, Control_c, 12, 1, 42
14, 12017, Control_c, 12, 1, 41
14, 12018, Control_c, 12, 1, 40
14, 12018, Control_c, 12, 1, 39
14, 12021, Control_c, 12, 1, 38
14, 12059, Note_on_c, 12, 88, 54
14, 12062, Control_c, 12, 1, 39
14, 12065, Control_c, 12, 1, 40
14, 12066, Note_on_c, 12, 85, 0
14, 12066, Control_c, 12, 1, 41
14, 12068, Control_c, 12, 1, 42
14, 12069, Control_c, 12, 1, 43
14, 12072, Control_c, 12, 1, 45
14, 12072, Control_c, 12, 1, 44
14, 12075, Control_c, 12, 1, 46
14, 12075, Control_c, 12, 1, 47
14, 12076, Control_c, 12, 1, 48
14, 12077, Control_c, 12, 1, 49
14, 12079, Control_c, 12, 1, 50
14, 12080, Control_c, 12, 1, 51
14, 12083, Control_c, 12, 1, 52
14, 12086, Control_c, 12, 1, 53
14, 12104, Control_c, 12, 1, 54
14, 12121, Control_c, 12, 1, 53
14, 12121, Control_c, 12, 1, 52
14, 12123, Control_c, 12, 1, 50
14, 12123, Control_c, 12, 1, 51
14, 12124, Control_c, 12, 1, 49
14, 12126, Control_c, 12, 1, 45
14, 12126, Control_c, 12, 1, 47
14, 12126, Control_c, 12, 1, 46
14, 12126, Control_c, 12, 1, 48
14, 12128, Control_c, 12, 1, 44
14, 12128, Control_c, 12, 1, 43
14, 12128, Control_c, 12, 1, 42
14, 12130, Control_c, 12, 1, 40
14, 12130, Control_c, 12, 1, 41
14, 12131, Control_c, 12, 1, 39
14, 12133, Control_c, 12, 1, 38
14, 12133, Control_c, 12, 1, 37
14, 12133, Control_c, 12, 1, 36
14, 12135, Control_c, 12, 1, 34
14, 12135, Control_c, 12, 1, 35
14, 12137, Control_c, 12, 1, 32
14, 12137, Control_c, 12, 1, 33
14, 12138, Control_c, 12, 1, 31
14, 12139, Control_c, 12, 1, 29
14, 12139, Control_c, 12, 1, 30
14, 12141, Control_c, 12, 1, 28
14, 12142, Control_c, 12, 1, 27
14, 12144, Control_c, 12, 1, 26
14, 12145, Control_c, 12, 1, 25
14, 12146, Control_c, 12, 1, 24
14, 12148, Control_c, 12, 1, 23
14, 12149, Control_c, 12, 1, 22
14, 12152, Control_c, 12, 1, 21
14, 12157, Control_c, 12, 1, 20
14, 12162, Control_c, 12, 1, 19
14, 12164, Control_c, 12, 1, 18
14, 12167, Control_c, 12, 1, 17
14, 12170, Control_c, 12, 1, 16
14, 12171, Control_c, 12, 1, 15
14, 12174, Control_c, 12, 1, 14
14, 12175, Control_c, 12, 1, 13
14, 12178, Control_c, 12, 1, 12
14, 12179, Note_on_c, 12, 86, 53
14, 12179, Control_c, 12, 1, 11
14, 12182, Control_c, 12, 1, 10
14, 12185, Control_c, 12, 1, 9
14, 12189, Note_on_c, 12, 88, 0
14, 12190, Control_c, 12, 1, 10
14, 12192, Control_c, 12, 1, 11
14, 12193, Control_c, 12, 1, 13
14, 12193, Control_c, 12, 1, 12
14, 12196, Control_c, 12, 1, 16
14, 12196, Control_c, 12, 1, 14
14, 12196, Control_c, 12, 1, 15
14, 12197, Control_c, 12, 1, 17
14, 12199, Control_c, 12, 1, 18
14, 12199, Control_c, 12, 1, 19
14, 12199, Control_c, 12, 1, 20
14, 12202, Control_c, 12, 1, 23
14, 12202, Control_c, 12, 1, 21
14, 12202, Control_c, 12, 1, 22
14, 12202, Control_c, 12, 1, 24
14, 12203, Control_c, 12, 1, 25
14, 12203, Control_c, 12, 1, 26
14, 12204, Control_c, 12, 1, 27
14, 12206, Control_c, 12, 1, 29
14, 12206, Control_c, 12, 1, 28
14, 12207, Control_c, 12, 1, 31
14, 12207, Control_c, 12, 1, 32
14, 12207, Control_c, 12, 1, 30
14, 12207, Control_c, 12, 1, 33
14, 12208, Control_c, 12, 1, 34
14, 12210, Control_c, 12, 1, 37
14, 12210, Control_c, 12, 1, 38
14, 12210, Control_c, 12, 1, 36
14, 12210, Control_c, 12, 1, 35
14, 12211, Control_c, 12, 1, 39
14, 12213, Control_c, 12, 1, 40
14, 12213, Control_c, 12, 1, 41
14, 12213, Control_c, 12, 1, 42
14, 12214, Control_c, 12, 1, 44
14, 12214, Control_c, 12, 1, 43
14, 12215, Control_c, 12, 1, 46
14, 12215, Control_c, 12, 1, 45
14, 12217, Control_c, 12, 1, 47
14, 12217, Control_c, 12, 1, 48
14, 12218, Control_c, 12, 1, 49
14, 12219, Control_c, 12, 1, 50
14, 12221, Control_c, 12, 1, 51
14, 12222, Control_c, 12, 1, 52
14, 12224, Control_c, 12, 1, 53
14, 12225, Control_c, 12, 1, 54
14, 12231, Control_c, 12, 1, 55
14, 12246, Control_c, 12, 1, 56
14, 12251, Control_c, 12, 1, 57
14, 12261, Control_c, 12, 1, 56
14, 12262, Control_c, 12, 1, 54
14, 12262, Control_c, 12, 1, 55
14, 12265, Control_c, 12, 1, 52
14, 12265, Control_c, 12, 1, 53
14, 12266, Control_c, 12, 1, 51
14, 12268, Control_c, 12, 1, 50
14, 12268, Control_c, 12, 1, 49
14, 12269, Control_c, 12, 1, 48
14, 12271, Control_c, 12, 1, 47
14, 12271, Control_c, 12, 1, 46
14, 12272, Control_c, 12, 1, 45
14, 12273, Control_c, 12, 1, 44
14, 12275, Control_c, 12, 1, 43
14, 12276, Control_c, 12, 1, 42
14, 12277, Control_c, 12, 1, 40
14, 12277, Control_c, 12, 1, 41
14, 12279, Control_c, 12, 1, 39
14, 12280, Control_c, 12, 1, 38
14, 12282, Control_c, 12, 1, 37
14, 12282, Control_c, 12, 1, 36
14, 12283, Control_c, 12, 1, 34
14, 12283, Control_c, 12, 1, 35
14, 12284, Control_c, 12, 1, 32
14, 12284, Control_c, 12, 1, 30
14, 12284, Control_c, 12, 1, 33
14, 12284, Control_c, 12, 1, 31
14, 12286, Control_c, 12, 1, 29
14, 12287, Control_c, 12, 1, 27
14, 12287, Control_c, 12, 1, 28
14, 12288, Control_c, 12, 1, 26
14, 12288, Control_c, 12, 1, 25
14, 12291, Control_c, 12, 1, 23
14, 12291, Control_c, 12, 1, 24
14, 12293, Control_c, 12, 1, 22
14, 12294, Control_c, 12, 1, 20
14, 12294, Control_c, 12, 1, 21
14, 12294, Control_c, 12, 1, 19
14, 12295, Control_c, 12, 1, 18
14, 12297, Control_c, 12, 1, 17
14, 12298, Control_c, 12, 1, 14
14, 12298, Control_c, 12, 1, 15
14, 12298, Control_c, 12, 1, 16
14, 12300, Control_c, 12, 1, 13
14, 12301, Control_c, 12, 1, 12
14, 12302, Control_c, 12, 1, 10
14, 12302, Control_c, 12, 1, 11
14, 12304, Control_c, 12, 1, 9
14, 12305, Control_c, 12, 1, 8
14, 12306, Control_c, 12, 1, 6
14, 12306, Control_c, 12, 1, 7
14, 12308, Control_c, 12, 1, 5
14, 12308, Control_c, 12, 1, 4
14, 12309, Control_c, 12, 1, 3
14, 12311, Control_c, 12, 1, 2
14, 12312, Control_c, 12, 1, 1
14, 12316, Control_c, 12, 1, 0
14, 12359, Note_on_c, 12, 86, 0
14, 12432, Note_on_c, 12, 85, 54
14, 12451, Control_c, 12, 1, 2
14, 12451, Control_c, 12, 1, 1
14, 12451, Control_c, 12, 1, 3
14, 12453, Control_c, 12, 1, 5
14, 12453, Control_c, 12, 1, 8
14, 12453, Control_c, 12, 1, 10
14, 12453, Control_c, 12, 1, 4
14, 12453, Control_c, 12, 1, 6
14, 12453, Control_c, 12, 1, 7
14, 12453, Control_c, 12, 1, 9
14, 12455, Control_c, 12, 1, 16
14, 12455, Control_c, 12, 1, 13
14, 12455, Control_c, 12, 1, 14
14, 12455, Control_c, 12, 1, 11
14, 12455, Control_c, 12, 1, 15
14, 12455, Control_c, 12, 1, 12
14, 12458, Control_c, 12, 1, 20
14, 12458, Control_c, 12, 1, 18
14, 12458, Control_c, 12, 1, 19
14, 12458, Control_c, 12, 1, 21
14, 12458, Control_c, 12, 1, 17
14, 12458, Control_c, 12, 1, 22
14, 12461, Control_c, 12, 1, 23
14, 12461, Control_c, 12, 1, 28
14, 12461, Control_c, 12, 1, 26
14, 12461, Control_c, 12, 1, 27
14, 12461, Control_c, 12, 1, 24
14, 12461, Control_c, 12, 1, 25
14, 12464, Control_c, 12, 1, 31
14, 12464, Control_c, 12, 1, 29
14, 12464, Control_c, 12, 1, 30
14, 12464, Control_c, 12, 1, 33
14, 12464, Control_c, 12, 1, 32
14, 12466, Control_c, 12, 1, 40
14, 12466, Control_c, 12, 1, 37
14, 12466, Control_c, 12, 1, 36
14, 12466, Control_c, 12, 1, 38
14, 12466, Control_c, 12, 1, 35
14, 12466, Control_c, 12, 1, 34
14, 12466, Control_c, 12, 1, 39
14, 12469, Control_c, 12, 1, 45
14, 12469, Control_c, 12, 1, 46
14, 12469, Control_c, 12, 1, 41
14, 12469, Control_c, 12, 1, 43
14, 12469, Control_c, 12, 1, 44
14, 12469, Control_c, 12, 1, 42
14, 12472, Control_c, 12, 1, 52
14, 12472, Control_c, 12, 1, 47
14, 12472, Control_c, 12, 1, 48
14, 12472, Control_c, 12, 1, 51
14, 12472, Control_c, 12, 1, 50
14, 12472, Control_c, 12, 1, 49
14, 12475, Control_c, 12, 1, 55
14, 12475, Control_c, 12, 1, 54
14, 12475, Control_c, 12, 1, 53
14, 12475, Control_c, 12, 1, 56
14, 12475, Control_c, 12, 1, 57
14, 12478, Control_c, 12, 1, 60
14, 12478, Control_c, 12, 1, 58
14, 12478, Control_c, 12, 1, 59
14, 12479, Control_c, 12, 1, 61
14, 12487, Control_c, 12, 1, 59
14, 12487, Control_c, 12, 1, 60
14, 12489, Control_c, 12, 1, 56
14, 12489, Control_c, 12, 1, 57
14, 12489, Control_c, 12, 1, 58
14, 12490, Control_c, 12, 1, 55
14, 12491, Control_c, 12, 1, 53
14, 12491, Control_c, 12, 1, 52
14, 12491, Control_c, 12, 1, 54
14, 12493, Control_c, 12, 1, 48
14, 12493, Control_c, 12, 1, 49
14, 12493, Control_c, 12, 1, 51
14, 12493, Control_c, 12, 1, 50
14, 12494, Control_c, 12, 1, 47
14, 12494, Control_c, 12, 1, 46
14, 12495, Control_c, 12, 1, 45
14, 12495, Control_c, 12, 1, 43
14, 12495, Control_c, 12, 1, 42
14, 12495, Control_c, 12, 1, 44
14, 12495, Control_c, 12, 1, 41
14, 12498, Control_c, 12, 1, 40
14, 12498, Control_c, 12, 1, 39
14, 12498, Control_c, 12, 1, 35
14, 12498, Control_c, 12, 1, 37
14, 12498, Control_c, 12, 1, 38
14, 12498, Control_c, 12, 1, 36
14, 12498, Control_c, 12, 1, 34
14, 12498, Control_c, 12, 1, 33
14, 12501, Control_c, 12, 1, 32
14, 12501, Control_c, 12, 1, 29
14, 12501, Control_c, 12, 1, 31
14, 12501, Control_c, 12, 1, 28
14, 12501, Control_c, 12, 1, 30
14, 12502, Control_c, 12, 1, 25
14, 12502, Control_c, 12, 1, 22
14, 12502, Control_c, 12, 1, 24
14, 12502, Control_c, 12, 1, 26
14, 12502, Control_c, 12, 1, 23
14, 12502, Control_c, 12, 1, 27
14, 12505, Control_c, 12, 1, 20
14, 12505, Control_c, 12, 1, 21
14, 12505, Control_c, 12, 1, 18
14, 12505, Control_c, 12, 1, 19
14, 12507, Control_c, 12, 1, 14
14, 12507, Control_c, 12, 1, 15
14, 12507, Control_c, 12, 1, 16
14, 12507, Control_c, 12, 1, 17
14, 12508, Control_c, 12, 1, 13
14, 12509, Control_c, 12, 1, 12
14, 12509, Control_c, 12, 1, 10
14, 12509, Control_c, 12, 1, 11
14, 12509, Control_c, 12, 1, 9
14, 12512, Control_c, 12, 1, 8
14, 12512, Control_c, 12, 1, 6
14, 12512, Control_c, 12, 1, 7
14, 12515, Control_c, 12, 1, 5
14, 12524, Control_c, 12, 1, 4
14, 12530, Control_c, 12, 1, 3
14, 12535, Note_on_c, 12, 87, 54
14, 12538, Note_on_c, 12, 85, 0
14, 12559, Control_c, 12, 1, 4
14, 12560, Control_c, 12, 1, 5
14, 12562, Control_c, 12, 1, 7
14, 12562, Control_c, 12, 1, 6
14, 12563, Control_c, 12, 1, 8
14, 12563, Control_c, 12, 1, 9
14, 12564, Control_c, 12, 1, 11
14, 12564, Control_c, 12, 1, 10
14, 12566, Control_c, 12, 1, 12
14, 12567, Control_c, 12, 1, 13
14, 12570, Control_c, 12, 1, 14
14, 12593, Note_on_c, 12, 88, 63
14, 12598, Note_on_c, 12, 87, 0
14, 12613, Control_c, 12, 1, 15
14, 12614, Control_c, 12, 1, 17
14, 12614, Control_c, 12, 1, 16
14, 12616, Control_c, 12, 1, 18
14, 12617, Control_c, 12, 1, 19
14, 12617, Control_c, 12, 1, 20
14, 12618, Control_c, 12, 1, 22
14, 12618, Control_c, 12, 1, 21
14, 12618, Control_c, 12, 1, 23
14, 12620, Control_c, 12, 1, 25
14, 12620, Control_c, 12, 1, 24
14, 12620, Control_c, 12, 1, 26
14, 12621, Control_c, 12, 1, 27
14, 12621, Control_c, 12, 1, 28
14, 12622, Control_c, 12, 1, 29
14, 12622, Control_c, 12, 1, 30
14, 12624, Control_c, 12, 1, 31
14, 12624, Control_c, 12, 1, 32
14, 12624, Control_c, 12, 1, 33
14, 12625, Control_c, 12, 1, 34
14, 12627, Control_c, 12, 1, 36
14, 12627, Control_c, 12, 1, 35
14, 12628, Control_c, 12, 1, 38
14, 12628, Control_c, 12, 1, 37
14, 12629, Control_c, 12, 1, 39
14, 12631, Control_c, 12, 1, 41
14, 12631, Control_c, 12, 1, 40
14, 12632, Control_c, 12, 1, 42
14, 12633, Control_c, 12, 1, 43
14, 12633, Control_c, 12, 1, 44
14, 12636, Control_c, 12, 1, 45
14, 12638, Control_c, 12, 1, 46
14, 12639, Control_c, 12, 1, 47
14, 12642, Control_c, 12, 1, 48
14, 12654, Note_on_c, 12, 90, 61
14, 12658, Note_on_c, 12, 88, 0
14, 12693, Control_c, 12, 1, 47
14, 12694, Control_c, 12, 1, 46
14, 12696, Control_c, 12, 1, 45
14, 12697, Control_c, 12, 1, 44
14, 12697, Control_c, 12, 1, 43
14, 12698, Control_c, 12, 1, 42
14, 12700, Control_c, 12, 1, 41
14, 12701, Control_c, 12, 1, 40
14, 12701, Control_c, 12, 1, 39
14, 12702, Control_c, 12, 1, 37
14, 12702, Control_c, 12, 1, 38
14, 12704, Control_c, 12, 1, 35
14, 12704, Control_c, 12, 1, 34
14, 12704, Control_c, 12, 1, 36
14, 12705, Control_c, 12, 1, 32
14, 12705, Control_c, 12, 1, 31
14, 12705, Control_c, 12, 1, 30
14, 12705, Control_c, 12, 1, 33
14, 12708, Control_c, 12, 1, 28
14, 12708, Control_c, 12, 1, 27
14, 12708, Control_c, 12, 1, 24
14, 12708, Control_c, 12, 1, 26
14, 12708, Control_c, 12, 1, 25
14, 12708, Control_c, 12, 1, 23
14, 12708, Control_c, 12, 1, 29
14, 12711, Control_c, 12, 1, 22
14, 12711, Control_c, 12, 1, 19
14, 12711, Control_c, 12, 1, 21
14, 12711, Control_c, 12, 1, 17
14, 12711, Control_c, 12, 1, 20
14, 12711, Control_c, 12, 1, 18
14, 12714, Control_c, 12, 1, 16
14, 12714, Control_c, 12, 1, 13
14, 12714, Control_c, 12, 1, 15
14, 12714, Control_c, 12, 1, 14
14, 12715, Control_c, 12, 1, 10
14, 12715, Control_c, 12, 1, 9
14, 12715, Control_c, 12, 1, 12
14, 12715, Control_c, 12, 1, 8
14, 12715, Control_c, 12, 1, 11
14, 12718, Note_on_c, 12, 82, 52
14, 12718, Control_c, 12, 1, 7
14, 12718, Control_c, 12, 1, 6
14, 12718, Control_c, 12, 1, 5
14, 12718, Control_c, 12, 1, 4
14, 12718, Control_c, 12, 1, 3
14, 12718, Control_c, 12, 1, 2
14, 12720, Control_c, 12, 1, 1
14, 12725, Note_on_c, 12, 90, 0
14, 12741, Control_c, 12, 1, 0
14, 12777, Note_on_c, 12, 83, 62
14, 12783, Control_c, 12, 1, 1
14, 12784, Note_on_c, 12, 82, 0
14, 12785, Control_c, 12, 1, 2
14, 12789, Control_c, 12, 1, 3
14, 12792, Control_c, 12, 1, 4
14, 12792, Control_c, 12, 1, 5
14, 12794, Control_c, 12, 1, 6
14, 12794, Control_c, 12, 1, 8
14, 12794, Control_c, 12, 1, 7
14, 12795, Control_c, 12, 1, 11
14, 12795, Control_c, 12, 1, 10
14, 12795, Control_c, 12, 1, 13
14, 12795, Control_c, 12, 1, 12
14, 12795, Control_c, 12, 1, 9
14, 12798, Control_c, 12, 1, 16
14, 12798, Control_c, 12, 1, 20
14, 12798, Control_c, 12, 1, 17
14, 12798, Control_c, 12, 1, 15
14, 12798, Control_c, 12, 1, 22
14, 12798, Control_c, 12, 1, 14
14, 12798, Control_c, 12, 1, 21
14, 12798, Control_c, 12, 1, 18
14, 12798, Control_c, 12, 1, 19
14, 12799, Control_c, 12, 1, 23
14, 12800, Control_c, 12, 1, 24
14, 12800, Control_c, 12, 1, 25
14, 12800, Control_c, 12, 1, 26
14, 12802, Control_c, 12, 1, 28
14, 12802, Control_c, 12, 1, 27
14, 12803, Control_c, 12, 1, 29
14, 12805, Control_c, 12, 1, 30
14, 12805, Control_c, 12, 1, 31
14, 12806, Control_c, 12, 1, 32
14, 12809, Control_c, 12, 1, 33
14, 12810, Control_c, 12, 1, 34
14, 12811, Control_c, 12, 1, 35
14, 12813, Control_c, 12, 1, 36
14, 12814, Control_c, 12, 1, 37
14, 12816, Control_c, 12, 1, 38
14, 12817, Control_c, 12, 1, 39
14, 12818, Control_c, 12, 1, 40
14, 12820, Control_c, 12, 1, 41
14, 12821, Control_c, 12, 1, 42
14, 12823, Control_c, 12, 1, 43
14, 12824, Control_c, 12, 1, 44
14, 12838, Note_on_c, 12, 84, 69
14, 12840, Note_on_c, 12, 83, 0
14, 12894, Control_c, 12, 1, 43
14, 12901, Note_on_c, 12, 85, 57
14, 12904, Note_on_c, 12, 84, 0
14, 12947, Control_c, 12, 1, 44
14, 12948, Control_c, 12, 1, 45
14, 12952, Control_c, 12, 1, 46
14, 12954, Control_c, 12, 1, 47
14, 12956, Control_c, 12, 1, 48
14, 12969, Control_c, 12, 1, 47
14, 12970, Control_c, 12, 1, 46
14, 12972, Control_c, 12, 1, 45
14, 12973, Control_c, 12, 1, 43
14, 12973, Control_c, 12, 1, 44
14, 12974, Control_c, 12, 1, 41
14, 12974, Control_c, 12, 1, 42
14, 12976, Control_c, 12, 1, 40
14, 12976, Control_c, 12, 1, 39
14, 12976, Control_c, 12, 1, 38
14, 12977, Control_c, 12, 1, 37
14, 12978, Control_c, 12, 1, 34
14, 12978, Control_c, 12, 1, 35
14, 12978, Control_c, 12, 1, 36
14, 12980, Control_c, 12, 1, 33
14, 12981, Control_c, 12, 1, 31
14, 12981, Control_c, 12, 1, 32
14, 12983, Control_c, 12, 1, 29
14, 12983, Control_c, 12, 1, 30
14, 12984, Control_c, 12, 1, 28
14, 12984, Control_c, 12, 1, 27
14, 12985, Control_c, 12, 1, 24
14, 12985, Control_c, 12, 1, 25
14, 12985, Control_c, 12, 1, 26
14, 12987, Control_c, 12, 1, 22
14, 12987, Control_c, 12, 1, 21
14, 12987, Control_c, 12, 1, 20
14, 12987, Control_c, 12, 1, 23
14, 12990, Control_c, 12, 1, 19
14, 12991, Control_c, 12, 1, 18
14, 12991, Control_c, 12, 1, 17
14, 12992, Note_on_c, 12, 76, 48
14, 12992, Control_c, 12, 1, 16
14, 12994, Control_c, 12, 1, 15
14, 12995, Control_c, 12, 1, 14
14, 12998, Control_c, 12, 1, 13
14, 13002, Note_on_c, 12, 85, 0
14, 13031, Note_on_c, 12, 78, 50
14, 13035, Note_on_c, 12, 76, 0
14, 13078, Control_c, 12, 1, 14
14, 13079, Control_c, 12, 1, 15
14, 13081, Control_c, 12, 1, 16
14, 13081, Control_c, 12, 1, 17
14, 13081, Note_on_c, 12, 79, 48
14, 13083, Note_on_c, 12, 78, 0
14, 13083, Control_c, 12, 1, 20
14, 13083, Control_c, 12, 1, 18
14, 13083, Control_c, 12, 1, 19
14, 13085, Control_c, 12, 1, 21
14, 13086, Control_c, 12, 1, 24
14, 13086, Control_c, 12, 1, 22
14, 13086, Control_c, 12, 1, 23
14, 13087, Control_c, 12, 1, 25
14, 13089, Control_c, 12, 1, 27
14, 13089, Control_c, 12, 1, 26
14, 13090, Control_c, 12, 1, 28
14, 13092, Control_c, 12, 1, 29
14, 13093, Control_c, 12, 1, 30
14, 13093, Control_c, 12, 1, 31
14, 13094, Control_c, 12, 1, 33
14, 13094, Control_c, 12, 1, 32
14, 13096, Control_c, 12, 1, 34
14, 13097, Control_c, 12, 1, 35
14, 13099, Control_c, 12, 1, 36
14, 13099, Control_c, 12, 1, 37
14, 13100, Control_c, 12, 1, 38
14, 13101, Control_c, 12, 1, 39
14, 13103, Control_c, 12, 1, 40
14, 13104, Control_c, 12, 1, 41
14, 13105, Control_c, 12, 1, 42
14, 13107, Control_c, 12, 1, 43
14, 13108, Control_c, 12, 1, 44
14, 13112, Control_c, 12, 1, 45
14, 13134, Control_c, 12, 1, 44
14, 13136, Control_c, 12, 1, 43
14, 13139, Control_c, 12, 1, 42
14, 13139, Control_c, 12, 1, 41
14, 13140, Control_c, 12, 1, 40
14, 13141, Control_c, 12, 1, 39
14, 13143, Control_c, 12, 1, 38
14, 13144, Control_c, 12, 1, 37
14, 13144, Control_c, 12, 1, 36
14, 13145, Control_c, 12, 1, 35
14, 13145, Control_c, 12, 1, 34
14, 13147, Control_c, 12, 1, 32
14, 13147, Control_c, 12, 1, 33
14, 13148, Control_c, 12, 1, 30
14, 13148, Control_c, 12, 1, 31
14, 13151, Control_c, 12, 1, 29
14, 13152, Control_c, 12, 1, 28
14, 13155, Control_c, 12, 1, 27
14, 13156, Control_c, 12, 1, 26
14, 13162, Control_c, 12, 1, 25
14, 13166, Control_c, 12, 1, 24
14, 13169, Control_c, 12, 1, 23
14, 13172, Control_c, 12, 1, 22
14, 13174, Control_c, 12, 1, 21
14, 13177, Control_c, 12, 1, 20
14, 13188, Control_c, 12, 1, 22
14, 13188, Control_c, 12, 1, 21
14, 13190, Control_c, 12, 1, 25
14, 13190, Control_c, 12, 1, 23
14, 13190, Control_c, 12, 1, 24
14, 13191, Control_c, 12, 1, 26
14, 13191, Control_c, 12, 1, 27
14, 13191, Control_c, 12, 1, 28
14, 13192, Control_c, 12, 1, 30
14, 13192, Control_c, 12, 1, 31
14, 13192, Control_c, 12, 1, 29
14, 13194, Control_c, 12, 1, 34
14, 13194, Control_c, 12, 1, 32
14, 13194, Control_c, 12, 1, 33
14, 13197, Control_c, 12, 1, 35
14, 13197, Control_c, 12, 1, 37
14, 13197, Control_c, 12, 1, 36
14, 13197, Control_c, 12, 1, 38
14, 13198, Control_c, 12, 1, 39
14, 13198, Control_c, 12, 1, 40
14, 13198, Control_c, 12, 1, 41
14, 13199, Control_c, 12, 1, 42
14, 13201, Control_c, 12, 1, 44
14, 13201, Control_c, 12, 1, 43
14, 13202, Control_c, 12, 1, 45
14, 13205, Control_c, 12, 1, 46
14, 13216, Control_c, 12, 1, 45
14, 13219, Control_c, 12, 1, 44
14, 13220, Control_c, 12, 1, 43
14, 13221, Control_c, 12, 1, 41
14, 13221, Control_c, 12, 1, 42
14, 13223, Control_c, 12, 1, 40
14, 13223, Control_c, 12, 1, 39
14, 13224, Control_c, 12, 1, 36
14, 13224, Control_c, 12, 1, 37
14, 13224, Control_c, 12, 1, 38
14, 13225, Control_c, 12, 1, 35
14, 13225, Control_c, 12, 1, 34
14, 13227, Control_c, 12, 1, 32
14, 13227, Control_c, 12, 1, 33
14, 13228, Control_c, 12, 1, 31
14, 13230, Control_c, 12, 1, 29
14, 13230, Control_c, 12, 1, 30
14, 13231, Control_c, 12, 1, 28
14, 13232, Control_c, 12, 1, 27
14, 13235, Control_c, 12, 1, 26
14, 13241, Control_c, 12, 1, 25
14, 13245, Control_c, 12, 1, 23
14, 13245, Control_c, 12, 1, 24
14, 13246, Control_c, 12, 1, 22
14, 13248, Control_c, 12, 1, 20
14, 13248, Control_c, 12, 1, 21
14, 13249, Control_c, 12, 1, 19
14, 13250, Control_c, 12, 1, 18
14, 13250, Control_c, 12, 1, 17
14, 13252, Control_c, 12, 1, 15
14, 13252, Control_c, 12, 1, 16
14, 13253, Control_c, 12, 1, 14
14, 13254, Control_c, 12, 1, 12
14, 13254, Control_c, 12, 1, 13
14, 13256, Control_c, 12, 1, 11
14, 13257, Control_c, 12, 1, 10
14, 13257, Control_c, 12, 1, 9
14, 13259, Control_c, 12, 1, 8
14, 13260, Control_c, 12, 1, 6
14, 13260, Control_c, 12, 1, 7
14, 13261, Control_c, 12, 1, 5
14, 13263, Control_c, 12, 1, 4
14, 13264, Control_c, 12, 1, 3
14, 13267, Control_c, 12, 1, 2
14, 13268, Control_c, 12, 1, 1
14, 13274, Note_on_c, 12, 79, 0
14, 13300, Control_c, 12, 1, 0
14, 13373, Control_c, 12, 1, 4
14, 13373, Control_c, 12, 1, 6
14, 13373, Control_c, 12, 1, 5
14, 13373, Control_c, 12, 1, 1
14, 13373, Control_c, 12, 1, 2
14, 13373, Control_c, 12, 1, 3
14, 13375, Control_c, 12, 1, 7
14, 13375, Control_c, 12, 1, 8
14, 13375, Control_c, 12, 1, 9
14, 13376, Control_c, 12, 1, 12
14, 13376, Control_c, 12, 1, 10
14, 13376, Control_c, 12, 1, 11
14, 13377, Control_c, 12, 1, 13
14, 13379, Control_c, 12, 1, 14
14, 13379, Control_c, 12, 1, 15
14, 13379, Control_c, 12, 1, 16
14, 13380, Control_c, 12, 1, 17
14, 13381, Control_c, 12, 1, 19
14, 13381, Control_c, 12, 1, 20
14, 13381, Note_on_c, 12, 71, 65
14, 13381, Control_c, 12, 1, 18
14, 13383, Control_c, 12, 1, 21
14, 13384, Control_c, 12, 1, 23
14, 13384, Control_c, 12, 1, 22
14, 13386, Control_c, 12, 1, 25
14, 13386, Control_c, 12, 1, 24
14, 13387, Control_c, 12, 1, 28
14, 13387, Control_c, 12, 1, 26
14, 13387, Control_c, 12, 1, 27
14, 13388, Control_c, 12, 1, 30
14, 13388, Control_c, 12, 1, 29
14, 13390, Control_c, 12, 1, 32
14, 13390, Control_c, 12, 1, 31
14, 13390, Control_c, 12, 1, 33
14, 13391, Control_c, 12, 1, 34
14, 13392, Control_c, 12, 1, 37
14, 13392, Control_c, 12, 1, 36
14, 13392, Control_c, 12, 1, 35
14, 13394, Control_c, 12, 1, 38
14, 13395, Control_c, 12, 1, 39
14, 13395, Control_c, 12, 1, 40
14, 13397, Control_c, 12, 1, 41
14, 13398, Control_c, 12, 1, 42
14, 13399, Control_c, 12, 1, 43
14, 13402, Control_c, 12, 1, 44
14, 13412, Control_c, 12, 1, 43
14, 13415, Control_c, 12, 1, 42
14, 13416, Control_c, 12, 1, 41
14, 13419, Control_c, 12, 1, 40
14, 13423, Control_c, 12, 1, 39
14, 13430, Control_c, 12, 1, 38
14, 13444, Note_on_c, 12, 66, 52
14, 13446, Note_on_c, 12, 71, 0
14, 13499, Note_on_c, 12, 66, 0
14, 13501, Note_on_c, 12, 83, 50
14, 13525, Control_c, 12, 1, 39
14, 13526, Control_c, 12, 1, 40
14, 13528, Control_c, 12, 1, 41
14, 13528, Control_c, 12, 1, 42
14, 13529, Control_c, 12, 1, 43
14, 13530, Control_c, 12, 1, 45
14, 13530, Control_c, 12, 1, 44
14, 13532, Control_c, 12, 1, 47
14, 13532, Control_c, 12, 1, 48
14, 13532, Control_c, 12, 1, 46
14, 13535, Control_c, 12, 1, 50
14, 13535, Control_c, 12, 1, 49
14, 13536, Control_c, 12, 1, 51
14, 13537, Control_c, 12, 1, 52
14, 13553, Control_c, 12, 1, 51
14, 13553, Note_on_c, 12, 81, 59
14, 13555, Control_c, 12, 1, 50
14, 13557, Control_c, 12, 1, 49
14, 13558, Note_on_c, 12, 83, 0
14, 13559, Control_c, 12, 1, 48
14, 13561, Control_c, 12, 1, 47
14, 13561, Control_c, 12, 1, 46
14, 13562, Control_c, 12, 1, 45
14, 13565, Control_c, 12, 1, 44
14, 13566, Control_c, 12, 1, 43
14, 13570, Control_c, 12, 1, 42
14, 13573, Control_c, 12, 1, 41
14, 13576, Control_c, 12, 1, 40
14, 13582, Control_c, 12, 1, 39
14, 13595, Control_c, 12, 1, 40
14, 13597, Control_c, 12, 1, 41
14, 13599, Control_c, 12, 1, 42
14, 13612, Control_c, 12, 1, 41
14, 13613, Control_c, 12, 1, 40
14, 13613, Control_c, 12, 1, 39
14, 13615, Control_c, 12, 1, 38
14, 13616, Control_c, 12, 1, 36
14, 13616, Control_c, 12, 1, 35
14, 13616, Control_c, 12, 1, 37
14, 13617, Control_c, 12, 1, 34
14, 13619, Control_c, 12, 1, 33
14, 13619, Control_c, 12, 1, 32
14, 13620, Control_c, 12, 1, 30
14, 13620, Control_c, 12, 1, 31
14, 13622, Control_c, 12, 1, 29
14, 13622, Control_c, 12, 1, 28
14, 13623, Control_c, 12, 1, 27
14, 13623, Control_c, 12, 1, 26
14, 13624, Control_c, 12, 1, 24
14, 13624, Control_c, 12, 1, 25
14, 13626, Control_c, 12, 1, 23
14, 13626, Control_c, 12, 1, 22
14, 13627, Control_c, 12, 1, 21
14, 13627, Control_c, 12, 1, 20
14, 13628, Control_c, 12, 1, 17
14, 13628, Control_c, 12, 1, 18
14, 13628, Control_c, 12, 1, 19
14, 13630, Control_c, 12, 1, 16
14, 13631, Control_c, 12, 1, 14
14, 13631, Control_c, 12, 1, 15
14, 13631, Control_c, 12, 1, 13
14, 13633, Control_c, 12, 1, 12
14, 13634, Control_c, 12, 1, 11
14, 13635, Control_c, 12, 1, 10
14, 13637, Control_c, 12, 1, 9
14, 13638, Control_c, 12, 1, 8
14, 13639, Control_c, 12, 1, 7
14, 13641, Control_c, 12, 1, 6
14, 13642, Control_c, 12, 1, 5
14, 13644, Control_c, 12, 1, 4
14, 13645, Control_c, 12, 1, 3
14, 13646, Control_c, 12, 1, 2
14, 13656, Control_c, 12, 1, 5
14, 13656, Control_c, 12, 1, 3
14, 13656, Control_c, 12, 1, 4
14, 13657, Control_c, 12, 1, 9
14, 13657, Control_c, 12, 1, 8
14, 13657, Control_c, 12, 1, 6
14, 13657, Control_c, 12, 1, 7
14, 13659, Control_c, 12, 1, 12
14, 13659, Control_c, 12, 1, 14
14, 13659, Control_c, 12, 1, 13
14, 13659, Control_c, 12, 1, 10
14, 13659, Control_c, 12, 1, 11
14, 13660, Control_c, 12, 1, 15
14, 13660, Control_c, 12, 1, 16
14, 13660, Control_c, 12, 1, 17
14, 13662, Control_c, 12, 1, 18
14, 13662, Control_c, 12, 1, 19
14, 13663, Control_c, 12, 1, 21
14, 13663, Control_c, 12, 1, 22
14, 13663, Control_c, 12, 1, 23
14, 13663, Control_c, 12, 1, 20
14, 13664, Control_c, 12, 1, 25
14, 13664, Control_c, 12, 1, 26
14, 13664, Control_c, 12, 1, 24
14, 13666, Control_c, 12, 1, 27
14, 13667, Control_c, 12, 1, 29
14, 13667, Control_c, 12, 1, 28
14, 13668, Control_c, 12, 1, 31
14, 13668, Control_c, 12, 1, 30
14, 13670, Control_c, 12, 1, 32
14, 13671, Control_c, 12, 1, 34
14, 13671, Control_c, 12, 1, 33
14, 13673, Control_c, 12, 1, 35
14, 13674, Control_c, 12, 1, 36
14, 13675, Control_c, 12, 1, 37
14, 13675, Control_c, 12, 1, 38
14, 13677, Control_c, 12, 1, 39
14, 13678, Control_c, 12, 1, 40
14, 13680, Control_c, 12, 1, 41
14, 13681, Control_c, 12, 1, 42
14, 13695, Control_c, 12, 1, 40
14, 13695, Control_c, 12, 1, 38
14, 13695, Control_c, 12, 1, 41
14, 13695, Control_c, 12, 1, 39
14, 13696, Control_c, 12, 1, 35
14, 13696, Control_c, 12, 1, 36
14, 13696, Control_c, 12, 1, 37
14, 13697, Control_c, 12, 1, 33
14, 13697, Control_c, 12, 1, 34
14, 13699, Control_c, 12, 1, 26
14, 13699, Control_c, 12, 1, 30
14, 13699, Control_c, 12, 1, 31
14, 13699, Control_c, 12, 1, 29
14, 13699, Control_c, 12, 1, 28
14, 13699, Control_c, 12, 1, 32
14, 13699, Control_c, 12, 1, 27
14, 13700, Control_c, 12, 1, 24
14, 13700, Control_c, 12, 1, 25
14, 13700, Control_c, 12, 1, 23
14, 13702, Control_c, 12, 1, 22
14, 13702, Control_c, 12, 1, 21
14, 13702, Control_c, 12, 1, 20
14, 13702, Control_c, 12, 1, 19
14, 13702, Control_c, 12, 1, 17
14, 13703, Control_c, 12, 1, 15
14, 13703, Control_c, 12, 1, 16
14, 13704, Control_c, 12, 1, 8
14, 13704, Control_c, 12, 1, 14
14, 13704, Control_c, 12, 1, 10
14, 13704, Control_c, 12, 1, 13
14, 13704, Control_c, 12, 1, 11
14, 13704, Control_c, 12, 1, 6
14, 13704, Control_c, 12, 1, 12
14, 13704, Control_c, 12, 1, 9
14, 13706, Control_c, 12, 1, 4
14, 13706, Control_c, 12, 1, 5
14, 13707, Control_c, 12, 1, 2
14, 13707, Control_c, 12, 1, 3
14, 13708, Control_c, 12, 1, 0
14, 13708, Control_c, 12, 1, 1
14, 13760, Note_on_c, 12, 73, 52
14, 13771, Note_on_c, 12, 81, 0
14, 13798, Note_on_c, 12, 73, 0
14, 13800, Note_on_c, 12, 74, 58
14, 13838, Note_on_c, 12, 78, 47
14, 13842, Note_on_c, 12, 74, 0
14, 13876, Note_on_c, 12, 81, 68
14, 13878, Control_c, 12, 1, 1
14, 13878, Note_on_c, 12, 78, 0
14, 13880, Control_c, 12, 1, 2
14, 13881, Control_c, 12, 1, 4
14, 13881, Control_c, 12, 1, 3
14, 13882, Control_c, 12, 1, 5
14, 13884, Control_c, 12, 1, 6
14, 13884, Control_c, 12, 1, 7
14, 13885, Control_c, 12, 1, 8
14, 13887, Control_c, 12, 1, 9
14, 13887, Control_c, 12, 1, 10
14, 13888, Control_c, 12, 1, 11
14, 13889, Control_c, 12, 1, 13
14, 13889, Control_c, 12, 1, 12
14, 13891, Control_c, 12, 1, 14
14, 13892, Control_c, 12, 1, 16
14, 13892, Control_c, 12, 1, 15
14, 13893, Control_c, 12, 1, 17
14, 13895, Control_c, 12, 1, 18
14, 13896, Control_c, 12, 1, 19
14, 13898, Control_c, 12, 1, 20
14, 13898, Control_c, 12, 1, 21
14, 13900, Control_c, 12, 1, 22
14, 13917, Note_on_c, 12, 85, 58
14, 13918, Note_on_c, 12, 81, 0
14, 13927, Control_c, 12, 1, 23
14, 13929, Control_c, 12, 1, 24
14, 13932, Control_c, 12, 1, 25
14, 13933, Control_c, 12, 1, 26
14, 13936, Control_c, 12, 1, 27
14, 13942, Control_c, 12, 1, 28
14, 13951, Control_c, 12, 1, 27
14, 13954, Control_c, 12, 1, 25
14, 13954, Control_c, 12, 1, 26
14, 13956, Control_c, 12, 1, 24
14, 13957, Note_on_c, 12, 88, 63
14, 13957, Control_c, 12, 1, 23
14, 13958, Control_c, 12, 1, 22
14, 13958, Control_c, 12, 1, 21
14, 13965, Note_on_c, 12, 85, 0
14, 13983, Control_c, 12, 1, 22
14, 13984, Control_c, 12, 1, 24
14, 13984, Control_c, 12, 1, 23
14, 13986, Control_c, 12, 1, 25
14, 13986, Control_c, 12, 1, 27
14, 13986, Control_c, 12, 1, 26
14, 13987, Control_c, 12, 1, 28
14, 13989, Control_c, 12, 1, 32
14, 13989, Control_c, 12, 1, 31
14, 13989, Control_c, 12, 1, 29
14, 13989, Control_c, 12, 1, 30
14, 13990, Control_c, 12, 1, 34
14, 13990, Control_c, 12, 1, 33
14, 13991, Control_c, 12, 1, 36
14, 13991, Control_c, 12, 1, 35
14, 13993, Control_c, 12, 1, 37
14, 13993, Control_c, 12, 1, 38
14, 13996, Control_c, 12, 1, 39
14, 13997, Control_c, 12, 1, 41
14, 13997, Control_c, 12, 1, 40
14, 13998, Note_on_c, 12, 86, 64
14, 14000, Control_c, 12, 1, 42
14, 14002, Control_c, 12, 1, 43
14, 14003, Note_on_c, 12, 88, 0
14, 14040, Note_on_c, 12, 85, 58
14, 14046, Note_on_c, 12, 86, 0
14, 14060, Control_c, 12, 1, 44
14, 14065, Control_c, 12, 1, 45
14, 14067, Control_c, 12, 1, 46
14, 14069, Control_c, 12, 1, 47
14, 14070, Control_c, 12, 1, 48
14, 14076, Control_c, 12, 1, 49
14, 14092, Control_c, 12, 1, 48
14, 14096, Control_c, 12, 1, 47
14, 14149, Control_c, 12, 1, 46
14, 14153, Control_c, 12, 1, 45
14, 14154, Control_c, 12, 1, 44
14, 14157, Control_c, 12, 1, 43
14, 14158, Control_c, 12, 1, 42
14, 14160, Control_c, 12, 1, 41
14, 14161, Control_c, 12, 1, 40
14, 14163, Control_c, 12, 1, 39
14, 14164, Control_c, 12, 1, 38
14, 14165, Control_c, 12, 1, 36
14, 14165, Control_c, 12, 1, 37
14, 14167, Control_c, 12, 1, 35
14, 14168, Control_c, 12, 1, 34
14, 14169, Control_c, 12, 1, 33
14, 14169, Control_c, 12, 1, 32
14, 14171, Control_c, 12, 1, 31
14, 14172, Control_c, 12, 1, 29
14, 14172, Control_c, 12, 1, 30
14, 14174, Control_c, 12, 1, 28
14, 14175, Control_c, 12, 1, 26
14, 14175, Control_c, 12, 1, 27
14, 14176, Control_c, 12, 1, 25
14, 14178, Control_c, 12, 1, 24
14, 14179, Control_c, 12, 1, 23
14, 14180, Control_c, 12, 1, 22
14, 14182, Control_c, 12, 1, 21
14, 14183, Control_c, 12, 1, 20
14, 14185, Control_c, 12, 1, 19
14, 14187, Control_c, 12, 1, 18
14, 14258, Control_c, 12, 1, 17
14, 14259, Control_c, 12, 1, 16
14, 14260, Control_c, 12, 1, 15
14, 14262, Control_c, 12, 1, 14
14, 14263, Control_c, 12, 1, 13
14, 14265, Control_c, 12, 1, 12
14, 14266, Control_c, 12, 1, 10
14, 14266, Control_c, 12, 1, 11
14, 14267, Control_c, 12, 1, 8
14, 14267, Control_c, 12, 1, 9
14, 14269, Control_c, 12, 1, 6
14, 14269, Control_c, 12, 1, 7
14, 14270, Control_c, 12, 1, 5
14, 14270, Control_c, 12, 1, 4
14, 14270, Control_c, 12, 1, 3
14, 14272, Control_c, 12, 1, 2
14, 14273, Control_c, 12, 1, 1
14, 14274, Control_c, 12, 1, 0
14, 14274, Note_on_c, 12, 85, 0
14, 14327, Control_c, 12, 1, 2
14, 14328, Control_c, 12, 1, 4
14, 14329, Control_c, 12, 1, 10
14, 14329, Control_c, 12, 1, 13
14, 14329, Control_c, 12, 1, 6
14, 14329, Control_c, 12, 1, 8
14, 14332, Control_c, 12, 1, 15
14, 14332, Control_c, 12, 1, 17
14, 14332, Control_c, 12, 1, 19
14, 14335, Control_c, 12, 1, 21
14, 14336, Control_c, 12, 1, 23
14, 14338, Control_c, 12, 1, 25
14, 14341, Control_c, 12, 1, 27
14, 14343, Control_c, 12, 1, 29
14, 14345, Control_c, 12, 1, 31
14, 14363, Control_c, 12, 1, 31
14, 14364, Control_c, 12, 1, 29
14, 14365, Control_c, 12, 1, 27
14, 14366, Control_c, 12, 10, 39
14, 14368, Control_c, 12, 1, 23
14, 14368, Control_c, 12, 1, 25
14, 14371, Control_c, 12, 1, 21
14, 14372, Control_c, 12, 1, 19
14, 14374, Control_c, 12, 1, 17
14, 14375, Control_c, 12, 1, 15
14, 14376, Control_c, 12, 1, 13
14, 14378, Control_c, 12, 1, 11
14, 14379, Control_c, 12, 1, 9
14, 14382, Control_c, 12, 1, 7
14, 14383, Control_c, 12, 1, 5
14, 14389, Control_c, 12, 1, 3
14, 14400, Note_on_c, 12, 78, 53
14, 14414, Control_c, 12, 1, 5
14, 14415, Control_c, 12, 1, 9
14, 14415, Control_c, 12, 1, 7
14, 14416, Control_c, 12, 1, 13
14, 14416, Control_c, 12, 1, 11
14, 14418, Control_c, 12, 1, 15
14, 14419, Control_c, 12, 1, 17
14, 14419, Control_c, 12, 1, 21
14, 14419, Control_c, 12, 1, 19
14, 14422, Control_c, 12, 1, 25
14, 14422, Control_c, 12, 1, 23
14, 14423, Control_c, 12, 1, 27
14, 14425, Control_c, 12, 1, 29
14, 14426, Control_c, 12, 1, 31
14, 14429, Control_c, 12, 1, 33
14, 14432, Control_c, 12, 1, 35
14, 14457, Note_on_c, 12, 79, 68
14, 14459, Note_on_c, 12, 78, 0
14, 14505, Control_c, 12, 1, 35
14, 14517, Note_on_c, 12, 81, 75
14, 14523, Note_on_c, 12, 79, 0
14, 14577, Note_on_c, 12, 83, 69
14, 14581, Note_on_c, 12, 81, 0
14, 14638, Note_on_c, 12, 72, 49
14, 14640, Note_on_c, 12, 83, 0
14, 14698, Note_on_c, 12, 74, 66
14, 14701, Note_on_c, 12, 72, 0
14, 14759, Note_on_c, 12, 75, 60
14, 14765, Note_on_c, 12, 74, 0
14, 14775, Control_c, 12, 1, 35
14, 14777, Control_c, 12, 1, 37
14, 14779, Control_c, 12, 1, 39
14, 14781, Control_c, 12, 1, 41
14, 14784, Control_c, 12, 1, 43
14, 14786, Control_c, 12, 1, 45
14, 14789, Control_c, 12, 1, 47
14, 14817, Control_c, 12, 1, 45
14, 14819, Note_on_c, 12, 78, 60
14, 14819, Control_c, 12, 1, 43
14, 14824, Note_on_c, 12, 75, 0
14, 14824, Control_c, 12, 1, 41
14, 14837, Control_c, 12, 1, 39
14, 14864, Control_c, 12, 1, 37
14, 14868, Control_c, 12, 1, 35
14, 14870, Control_c, 12, 1, 33
14, 14873, Control_c, 12, 1, 31
14, 14875, Control_c, 12, 1, 29
14, 14876, Control_c, 12, 1, 27
14, 14876, Control_c, 12, 1, 25
14, 14876, Control_c, 12, 1, 22
14, 14877, Note_on_c, 12, 78, 0
14, 14878, Note_on_c, 12, 69, 62
14, 14879, Control_c, 12, 1, 19
14, 14879, Control_c, 12, 1, 21
14, 14880, Control_c, 12, 1, 17
14, 14881, Control_c, 12, 1, 15
14, 14883, Control_c, 12, 1, 13
14, 14886, Control_c, 12, 1, 11
14, 14887, Control_c, 12, 1, 9
14, 14893, Control_c, 12, 1, 7
14, 14941, Note_on_c, 12, 69, 0
14, 14941, Note_on_c, 12, 71, 69
14, 15000, Note_on_c, 12, 72, 54
14, 15000, Note_on_c, 12, 71, 0
14, 15002, Control_c, 12, 1, 9
14, 15004, Control_c, 12, 1, 11
14, 15006, Control_c, 12, 1, 13
14, 15007, Control_c, 12, 1, 15
14, 15008, Control_c, 12, 1, 17
14, 15010, Control_c, 12, 1, 19
14, 15011, Control_c, 12, 1, 21
14, 15013, Control_c, 12, 1, 23
14, 15017, Control_c, 12, 1, 25
14, 15032, Note_on_c, 12, 74, 63
14, 15036, Note_on_c, 12, 72, 0
14, 15039, Control_c, 12, 1, 23
14, 15061, Note_on_c, 12, 75, 65
14, 15066, Note_on_c, 12, 74, 0
14, 15091, Note_on_c, 12, 78, 67
14, 15092, Note_on_c, 12, 75, 0
14, 15121, Note_on_c, 12, 78, 0
14, 15122, Note_on_c, 12, 80, 60
14, 15123, Control_c, 12, 1, 21
14, 15126, Control_c, 12, 1, 19
14, 15130, Control_c, 12, 1, 17
14, 15131, Control_c, 12, 1, 13
14, 15131, Control_c, 12, 1, 15
14, 15133, Control_c, 12, 1, 11
14, 15134, Control_c, 12, 1, 9
14, 15134, Note_on_c, 12, 80, 0
14, 15135, Control_c, 12, 1, 7
14, 15135, Control_c, 12, 1, 5
14, 15135, Control_c, 12, 1, 3
14, 15137, Control_c, 12, 1, 1
14, 15137, Note_on_c, 12, 81, 68
14, 15149, Note_on_c, 12, 81, 0
14, 15151, Note_on_c, 12, 83, 76
14, 15162, Control_c, 12, 1, 0
14, 15165, Note_on_c, 12, 83, 0
14, 15166, Note_on_c, 12, 84, 77
14, 15178, Note_on_c, 12, 84, 0
14, 15181, Note_on_c, 12, 86, 78
14, 15196, Note_on_c, 12, 87, 80
14, 15198, Note_on_c, 12, 86, 0
14, 15208, Note_on_c, 12, 88, 81
14, 15210, Note_on_c, 12, 87, 0
14, 15226, Note_on_c, 12, 89, 82
14, 15227, Note_on_c, 12, 88, 0
14, 15241, Note_on_c, 12, 89, 0
14, 15242, Note_on_c, 12, 90, 85
14, 15254, Control_c, 12, 1, 1
14, 15255, Control_c, 12, 1, 3
14, 15256, Control_c, 12, 1, 5
14, 15257, Control_c, 12, 1, 7
14, 15258, Control_c, 12, 1, 9
14, 15260, Control_c, 12, 1, 11
14, 15262, Control_c, 12, 1, 13
14, 15266, Control_c, 12, 1, 15
14, 15274, Control_c, 12, 1, 17
14, 15344, Control_c, 12, 1, 15
14, 15347, Control_c, 12, 1, 13
14, 15350, Control_c, 12, 1, 11
14, 15353, Control_c, 12, 1, 9
14, 15354, Control_c, 12, 1, 7
14, 15355, Control_c, 12, 1, 5
14, 15356, Control_c, 12, 1, 1
14, 15356, Control_c, 12, 1, 3
14, 15357, Control_c, 12, 1, 0
14, 15476, Note_on_c, 12, 88, 76
14, 15481, Control_c, 12, 1, 1
14, 15482, Note_on_c, 12, 90, 0
14, 15484, Control_c, 12, 1, 3
14, 15486, Control_c, 12, 1, 5
14, 15488, Control_c, 12, 1, 7
14, 15490, Control_c, 12, 1, 9
14, 15493, Control_c, 12, 1, 11
14, 15494, Control_c, 12, 1, 13
14, 15497, Control_c, 12, 1, 15
14, 15501, Control_c, 12, 1, 17
14, 15508, Control_c, 12, 1, 19
14, 15509, Control_c, 12, 1, 21
14, 15513, Control_c, 12, 1, 23
14, 15519, Control_c, 12, 1, 25
14, 15523, Control_c, 12, 1, 27
14, 15526, Control_c, 12, 1, 29
14, 15527, Control_c, 12, 1, 31
14, 15531, Control_c, 12, 1, 33
14, 15537, Control_c, 12, 1, 35
14, 15571, Control_c, 12, 1, 33
14, 15588, Control_c, 12, 1, 31
14, 15589, Control_c, 12, 1, 29
14, 15592, Control_c, 12, 1, 27
14, 15595, Control_c, 12, 1, 25
14, 15603, Control_c, 12, 1, 23
14, 15628, Control_c, 12, 1, 25
14, 15647, Control_c, 12, 1, 25
14, 15651, Control_c, 12, 1, 23
14, 15655, Control_c, 12, 1, 21
14, 15661, Control_c, 12, 1, 19
14, 15673, Control_c, 12, 1, 17
14, 15722, Note_on_c, 12, 86, 79
14, 15726, Note_on_c, 12, 88, 0
14, 15755, Control_c, 12, 1, 19
14, 15757, Control_c, 12, 1, 21
14, 15762, Control_c, 12, 1, 23
14, 15763, Control_c, 12, 1, 25
14, 15769, Control_c, 12, 1, 27
14, 15803, Control_c, 12, 1, 27
14, 15833, Control_c, 12, 1, 27
14, 15875, Control_c, 12, 1, 27
14, 16156, Control_c, 12, 1, 25
14, 16199, Note_on_c, 12, 85, 69
14, 16203, Note_on_c, 12, 86, 0
14, 16249, Control_c, 12, 1, 27
14, 16263, Control_c, 12, 1, 29
14, 16298, Control_c, 12, 1, 29
14, 16301, Control_c, 12, 1, 31
14, 16305, Control_c, 12, 1, 33
14, 16309, Control_c, 12, 1, 35
14, 16312, Control_c, 12, 1, 37
14, 16316, Control_c, 12, 1, 39
14, 16329, Control_c, 12, 1, 39
14, 16332, Control_c, 12, 1, 37
14, 16333, Control_c, 12, 1, 35
14, 16337, Control_c, 12, 1, 33
14, 16347, Control_c, 12, 1, 31
14, 16381, Control_c, 12, 1, 29
14, 16391, Control_c, 12, 1, 27
14, 16398, Control_c, 12, 1, 25
14, 16401, Control_c, 12, 1, 23
14, 16403, Control_c, 12, 1, 21
14, 16407, Control_c, 12, 1, 19
14, 16423, Control_c, 12, 1, 21
14, 16424, Control_c, 12, 1, 23
14, 16427, Control_c, 12, 1, 25
14, 16428, Control_c, 12, 1, 27
14, 16431, Control_c, 12, 1, 29
14, 16434, Control_c, 12, 1, 31
14, 16436, Control_c, 12, 1, 33
14, 16438, Control_c, 12, 1, 35
14, 16441, Control_c, 12, 1, 37
14, 16443, Control_c, 12, 1, 39
14, 16445, Control_c, 12, 1, 41
14, 16447, Control_c, 12, 1, 43
14, 16452, Control_c, 12, 1, 45
14, 16465, Control_c, 12, 1, 45
14, 16468, Control_c, 12, 1, 43
14, 16470, Control_c, 12, 1, 41
14, 16470, Control_c, 12, 1, 39
14, 16471, Control_c, 12, 1, 37
14, 16472, Control_c, 12, 1, 35
14, 16474, Control_c, 12, 1, 33
14, 16475, Control_c, 12, 1, 31
14, 16476, Control_c, 12, 1, 29
14, 16478, Control_c, 12, 1, 27
14, 16479, Control_c, 12, 1, 25
14, 16481, Control_c, 12, 1, 23
14, 16483, Control_c, 12, 1, 21
14, 16489, Control_c, 12, 1, 19
14, 16552, Note_on_c, 12, 83, 59
14, 16557, Note_on_c, 12, 85, 0
14, 16557, Control_c, 12, 1, 19
14, 16563, Control_c, 12, 1, 21
14, 16565, Control_c, 12, 1, 23
14, 16568, Control_c, 12, 1, 25
14, 16569, Control_c, 12, 1, 27
14, 16570, Control_c, 12, 1, 29
14, 16573, Control_c, 12, 1, 31
14, 16577, Control_c, 12, 1, 33
14, 16605, Control_c, 12, 1, 33
14, 16610, Control_c, 12, 1, 31
14, 16614, Control_c, 12, 1, 29
14, 16623, Control_c, 12, 1, 27
14, 16628, Control_c, 12, 1, 25
14, 16631, Control_c, 12, 1, 21
14, 16631, Control_c, 12, 1, 23
14, 16632, Control_c, 12, 1, 19
14, 16634, Control_c, 12, 1, 17
14, 16635, Control_c, 12, 1, 15
14, 16637, Control_c, 12, 1, 13
14, 16639, Control_c, 12, 1, 11
14, 16682, Note_on_c, 12, 76, 53
14, 16685, Note_on_c, 12, 83, 0
14, 16712, Note_on_c, 12, 78, 53
14, 16715, Note_on_c, 12, 76, 0
14, 16746, Note_on_c, 12, 79, 53
14, 16747, Note_on_c, 12, 78, 0
14, 16770, Note_on_c, 12, 81, 53
14, 16773, Note_on_c, 12, 79, 0
14, 16800, Note_on_c, 12, 82, 52
14, 16805, Note_on_c, 12, 81, 0
14, 16844, Control_c, 12, 1, 11
14, 16860, Note_on_c, 12, 82, 0
14, 16860, Note_on_c, 12, 83, 51
14, 16920, Note_on_c, 12, 85, 57
14, 16926, Note_on_c, 12, 83, 0
14, 16944, Control_c, 12, 1, 13
14, 16948, Control_c, 12, 1, 15
14, 16953, Control_c, 12, 1, 17
14, 16955, Control_c, 12, 1, 19
14, 16957, Control_c, 12, 1, 21
14, 16961, Control_c, 12, 1, 23
14, 16962, Control_c, 12, 1, 25
14, 16968, Control_c, 12, 1, 27
14, 16983, Control_c, 12, 1, 29
14, 16987, Control_c, 12, 1, 31
14, 17115, Control_c, 12, 1, 31
14, 17124, Control_c, 12, 1, 29
14, 17128, Control_c, 12, 1, 27
14, 17129, Control_c, 12, 1, 25
14, 17132, Control_c, 12, 1, 23
14, 17143, Control_c, 12, 1, 21
14, 17147, Control_c, 12, 1, 19
14, 17150, Control_c, 12, 1, 17
14, 17151, Control_c, 12, 1, 15
14, 17153, Control_c, 12, 1, 13
14, 17155, Control_c, 12, 1, 7
14, 17155, Control_c, 12, 1, 9
14, 17155, Control_c, 12, 1, 11
14, 17157, Control_c, 12, 1, 5
14, 17158, Note_on_c, 12, 85, 0
14, 17158, Control_c, 12, 1, 3
14, 17160, Control_c, 12, 1, 1
14, 17175, Control_c, 12, 1, 0
14, 22455, Control_c, 12, 1, 35
14, 22457, Control_c, 12, 1, 37
14, 22459, Control_c, 12, 1, 39
14, 22461, Control_c, 12, 1, 41
14, 22464, Control_c, 12, 1, 43
14, 22466, Control_c, 12, 1, 45
14, 22469, Control_c, 12, 1, 47
14, 22497, Control_c, 12, 1, 45
14, 22499, Note_on_c, 12, 78, 60
14, 22499, Control_c, 12, 1, 43
14, 22504, Control_c, 12, 1, 41
14, 22517, Control_c, 12, 1, 39
14, 22544, Control_c, 12, 1, 37
14, 22548, Control_c, 12, 1, 35
14, 22550, Control_c, 12, 1, 33
14, 22553, Control_c, 12, 1, 31
14, 22555, Control_c, 12, 1, 29
14, 22556, Control_c, 12, 1, 22
14, 22556, Control_c, 12, 1, 25
14, 22556, Control_c, 12, 1, 27
14, 22557, Note_on_c, 12, 78, 0
14, 22558, Note_on_c, 12, 69, 62
14, 22559, Control_c, 12, 1, 21
14, 22559, Control_c, 12, 1, 19
14, 22560, Control_c, 12, 1, 17
14, 22561, Control_c, 12, 1, 15
14, 22563, Control_c, 12, 1, 13
14, 22566, Control_c, 12, 1, 11
14, 22567, Control_c, 12, 1, 9
14, 22573, Control_c, 12, 1, 7
14, 22621, Note_on_c, 12, 71, 69
14, 22621, Note_on_c, 12, 69, 0
14, 22680, Note_on_c, 12, 72, 53
14, 22680, Note_on_c, 12, 71, 0
14, 22682, Control_c, 12, 1, 9
14, 22684, Control_c, 12, 1, 11
14, 22686, Control_c, 12, 1, 13
14, 22687, Control_c, 12, 1, 15
14, 22688, Control_c, 12, 1, 17
14, 22690, Control_c, 12, 1, 19
14, 22691, Control_c, 12, 1, 21
14, 22693, Control_c, 12, 1, 23
14, 22697, Control_c, 12, 1, 25
14, 22712, Note_on_c, 12, 74, 62
14, 22716, Note_on_c, 12, 72, 0
14, 22719, Control_c, 12, 1, 23
14, 22741, Note_on_c, 12, 75, 64
14, 22746, Note_on_c, 12, 74, 0
14, 22771, Note_on_c, 12, 78, 66
14, 22772, Note_on_c, 12, 75, 0
14, 22801, Note_on_c, 12, 78, 0
14, 22802, Note_on_c, 12, 80, 59
14, 22803, Control_c, 12, 1, 21
14, 22806, Control_c, 12, 1, 19
14, 22810, Control_c, 12, 1, 17
14, 22811, Control_c, 12, 1, 15
14, 22811, Control_c, 12, 1, 13
14, 22813, Control_c, 12, 1, 11
14, 22814, Control_c, 12, 1, 9
14, 22814, Note_on_c, 12, 80, 0
14, 22815, Control_c, 12, 1, 5
14, 22815, Control_c, 12, 1, 7
14, 22815, Control_c, 12, 1, 3
14, 22817, Note_on_c, 12, 81, 67
14, 22817, Control_c, 12, 1, 1
14, 22829, Note_on_c, 12, 81, 0
14, 22831, Note_on_c, 12, 83, 75
14, 22842, Control_c, 12, 1, 0
14, 22845, Note_on_c, 12, 83, 0
14, 22846, Note_on_c, 12, 84, 76
14, 22858, Note_on_c, 12, 84, 0
14, 22861, Note_on_c, 12, 86, 77
14, 22876, Note_on_c, 12, 87, 79
14, 22878, Note_on_c, 12, 86, 0
14, 22888, Note_on_c, 12, 88, 80
14, 22890, Note_on_c, 12, 87, 0
14, 22906, Note_on_c, 12, 89, 81
14, 22907, Note_on_c, 12, 88, 0
14, 22921, Note_on_c, 12, 89, 0
14, 22922, Note_on_c, 12, 90, 83
14, 22934, Control_c, 12, 1, 1
14, 22935, Control_c, 12, 1, 3
14, 22936, Control_c, 12, 1, 5
14, 22937, Control_c, 12, 1, 7
14, 22938, Control_c, 12, 1, 9
14, 22940, Control_c, 12, 1, 11
14, 22942, Control_c, 12, 1, 13
14, 22946, Control_c, 12, 1, 15
14, 22954, Control_c, 12, 1, 17
14, 23024, Control_c, 12, 1, 15
14, 23027, Control_c, 12, 1, 13
14, 23030, Control_c, 12, 1, 11
14, 23033, Control_c, 12, 1, 9
14, 23034, Control_c, 12, 1, 7
14, 23035, Control_c, 12, 1, 5
14, 23036, Control_c, 12, 1, 1
14, 23036, Control_c, 12, 1, 3
14, 23037, Control_c, 12, 1, 0
14, 23156, Note_on_c, 12, 88, 71
14, 23161, Control_c, 12, 1, 1
14, 23162, Note_on_c, 12, 90, 0
14, 23164, Control_c, 12, 1, 3
14, 23166, Control_c, 12, 1, 5
14, 23168, Control_c, 12, 1, 7
14, 23170, Control_c, 12, 1, 9
14, 23173, Control_c, 12, 1, 11
14, 23174, Control_c, 12, 1, 13
14, 23177, Control_c, 12, 1, 15
14, 23181, Control_c, 12, 1, 17
14, 23188, Control_c, 12, 1, 19
14, 23189, Control_c, 12, 1, 21
14, 23193, Control_c, 12, 1, 23
14, 23199, Control_c, 12, 1, 25
14, 23203, Control_c, 12, 1, 27
14, 23206, Control_c, 12, 1, 29
14, 23207, Control_c, 12, 1, 31
14, 23211, Control_c, 12, 1, 33
14, 23217, Control_c, 12, 1, 35
14, 23251, Control_c, 12, 1, 33
14, 23268, Control_c, 12, 1, 31
14, 23269, Control_c, 12, 1, 29
14, 23272, Control_c, 12, 1, 27
14, 23275, Control_c, 12, 1, 25
14, 23283, Control_c, 12, 1, 23
14, 23308, Control_c, 12, 1, 25
14, 23327, Control_c, 12, 1, 25
14, 23331, Control_c, 12, 1, 23
14, 23335, Control_c, 12, 1, 21
14, 23341, Control_c, 12, 1, 19
14, 23353, Control_c, 12, 1, 17
14, 23402, Note_on_c, 12, 86, 70
14, 23406, Note_on_c, 12, 88, 0
14, 23435, Control_c, 12, 1, 19
14, 23437, Control_c, 12, 1, 21
14, 23442, Control_c, 12, 1, 23
14, 23443, Control_c, 12, 1, 25
14, 23449, Control_c, 12, 1, 27
14, 23483, Control_c, 12, 1, 27
14, 23513, Control_c, 12, 1, 27
14, 23555, Control_c, 12, 1, 27
14, 23836, Control_c, 12, 1, 25
14, 23879, Note_on_c, 12, 85, 60
14, 23883, Note_on_c, 12, 86, 0
14, 23929, Control_c, 12, 1, 27
14, 23943, Control_c, 12, 1, 29
14, 23978, Control_c, 12, 1, 29
14, 23981, Control_c, 12, 1, 31
14, 23985, Control_c, 12, 1, 33
14, 23989, Control_c, 12, 1, 35
14, 23992, Control_c, 12, 1, 37
14, 23996, Control_c, 12, 1, 39
14, 24009, Control_c, 12, 1, 39
14, 24012, Control_c, 12, 1, 37
14, 24013, Control_c, 12, 1, 35
14, 24017, Control_c, 12, 1, 33
14, 24027, Control_c, 12, 1, 31
14, 24061, Control_c, 12, 1, 29
14, 24071, Control_c, 12, 1, 27
14, 24078, Control_c, 12, 1, 25
14, 24081, Control_c, 12, 1, 23
14, 24083, Control_c, 12, 1, 21
14, 24087, Control_c, 12, 1, 19
14, 24103, Control_c, 12, 1, 21
14, 24104, Control_c, 12, 1, 23
14, 24107, Control_c, 12, 1, 25
14, 24108, Control_c, 12, 1, 27
14, 24111, Control_c, 12, 1, 29
14, 24114, Control_c, 12, 1, 31
14, 24116, Control_c, 12, 1, 33
14, 24118, Control_c, 12, 1, 35
14, 24121, Control_c, 12, 1, 37
14, 24123, Control_c, 12, 1, 39
14, 24125, Control_c, 12, 1, 41
14, 24127, Control_c, 12, 1, 43
14, 24132, Control_c, 12, 1, 45
14, 24145, Control_c, 12, 1, 45
14, 24148, Control_c, 12, 1, 43
14, 24150, Control_c, 12, 1, 39
14, 24150, Control_c, 12, 1, 41
14, 24151, Control_c, 12, 1, 37
14, 24152, Control_c, 12, 1, 35
14, 24154, Control_c, 12, 1, 33
14, 24155, Control_c, 12, 1, 31
14, 24156, Control_c, 12, 1, 29
14, 24158, Control_c, 12, 1, 27
14, 24159, Control_c, 12, 1, 25
14, 24161, Control_c, 12, 1, 23
14, 24163, Control_c, 12, 1, 21
14, 24169, Control_c, 12, 1, 19
14, 24232, Note_on_c, 12, 83, 50
14, 24237, Control_c, 12, 1, 19
14, 24237, Note_on_c, 12, 85, 0
14, 24243, Control_c, 12, 1, 21
14, 24245, Control_c, 12, 1, 23
14, 24248, Control_c, 12, 1, 25
14, 24249, Control_c, 12, 1, 27
14, 24250, Control_c, 12, 1, 29
14, 24253, Control_c, 12, 1, 31
14, 24257, Control_c, 12, 1, 33
14, 24285, Control_c, 12, 1, 33
14, 24290, Control_c, 12, 1, 31
14, 24294, Control_c, 12, 1, 29
14, 24303, Control_c, 12, 1, 27
14, 24308, Control_c, 12, 1, 25
14, 24311, Control_c, 12, 1, 21
14, 24311, Control_c, 12, 1, 23
14, 24312, Control_c, 12, 1, 19
14, 24314, Control_c, 12, 1, 17
14, 24315, Control_c, 12, 1, 15
14, 24317, Control_c, 12, 1, 13
14, 24319, Control_c, 12, 1, 11
14, 24362, Note_on_c, 12, 76, 57
14, 24365, Note_on_c, 12, 83, 0
14, 24392, Note_on_c, 12, 78, 56
14, 24395, Note_on_c, 12, 76, 0
14, 24426, Note_on_c, 12, 79, 57
14, 24427, Note_on_c, 12, 78, 0
14, 24450, Note_on_c, 12, 81, 57
14, 24453, Note_on_c, 12, 79, 0
14, 24480, Note_on_c, 12, 82, 57
14, 24485, Note_on_c, 12, 81, 0
14, 24524, Control_c, 12, 1, 11
14, 24540, Note_on_c, 12, 82, 0
14, 24540, Note_on_c, 12, 83, 56
14, 24600, Note_on_c, 12, 85, 62
14, 24606, Note_on_c, 12, 83, 0
14, 24624, Control_c, 12, 1, 13
14, 24628, Control_c, 12, 1, 15
14, 24633, Control_c, 12, 1, 17
14, 24635, Control_c, 12, 1, 19
14, 24637, Control_c, 12, 1, 21
14, 24641, Control_c, 12, 1, 23
14, 24642, Control_c, 12, 1, 25
14, 24648, Control_c, 12, 1, 27
14, 24663, Control_c, 12, 1, 29
14, 24667, Control_c, 12, 1, 31
14, 24795, Control_c, 12, 1, 31
14, 24804, Control_c, 12, 1, 29
14, 24808, Control_c, 12, 1, 27
14, 24809, Control_c, 12, 1, 25
14, 24812, Control_c, 12, 1, 23
14, 24823, Control_c, 12, 1, 21
14, 24827, Control_c, 12, 1, 19
14, 24830, Control_c, 12, 1, 17
14, 24831, Control_c, 12, 1, 15
14, 24833, Control_c, 12, 1, 13
14, 24835, Control_c, 12, 1, 7
14, 24835, Control_c, 12, 1, 11
14, 24835, Control_c, 12, 1, 9
14, 24837, Control_c, 12, 1, 5
14, 24838, Control_c, 12, 1, 3
14, 24838, Note_on_c, 12, 85, 0
14, 24840, Control_c, 12, 1, 1
14, 24855, Control_c, 12, 1, 0
14, 27242, Text_t, "%+"
14, 27242, End_track
15, 0, Start_track
15, 0, Control_c, 13, 0, 0
15, 0, Program_c, 13, 48
15, 0, Sequencer_specific, 20, 74, 65, 90, 50, 1, 0, 0, 0, 0, 0, 0, 0, 0, 0, 0, 0, 0, 0, 0, 0
15, 0, MIDI_port, 0
15, 0, Title_t, "Strings"
15, 0, Control_c, 13, 7, 105
15, 0, Control_c, 13, 10, 40
15, 0, Control_c, 13, 121, 0
15, 6, Control_c, 13, 11, 127
15, 8, Control_c, 13, 91, 127
15, 10, Control_c, 13, 93, 80
15, 480, Note_on_c, 13, 73, 36
15, 480, Note_on_c, 13, 61, 36
15, 536, Note_on_c, 13, 62, 44
15, 539, Note_on_c, 13, 74, 44
15, 543, Note_on_c, 13, 61, 0
15, 543, Note_on_c, 13, 73, 0
15, 592, Note_on_c, 13, 64, 50
15, 598, Note_on_c, 13, 62, 0
15, 600, Note_on_c, 13, 76, 47
15, 604, Note_on_c, 13, 74, 0
15, 650, Note_on_c, 13, 78, 53
15, 651, Note_on_c, 13, 66, 49
15, 654, Note_on_c, 13, 76, 0
15, 659, Note_on_c, 13, 64, 0
15, 709, Note_on_c, 13, 79, 51
15, 711, Note_on_c, 13, 67, 51
15, 714, Note_on_c, 13, 78, 0
15, 715, Note_on_c, 13, 66, 0
15, 770, Note_on_c, 13, 68, 56
15, 771, Note_on_c, 13, 80, 57
15, 774, Note_on_c, 13, 67, 0
15, 776, Note_on_c, 13, 79, 0
15, 831, Note_on_c, 13, 69, 62
15, 832, Note_on_c, 13, 81, 62
15, 835, Note_on_c, 13, 68, 0
15, 837, Note_on_c, 13, 80, 0
15, 891, Note_on_c, 13, 71, 63
15, 894, Note_on_c, 13, 83, 63
15, 896, Note_on_c, 13, 69, 0
15, 899, Note_on_c, 13, 81, 0
15, 958, Note_on_c, 13, 84, 69
15, 960, Note_on_c, 13, 72, 69
15, 961, Note_on_c, 13, 71, 0
15, 964, Note_on_c, 13, 83, 0
15, 1021, Note_on_c, 13, 65, 62
15, 1028, Note_on_c, 13, 77, 60
15, 1033, Note_on_c, 13, 72, 0
15, 1040, Note_on_c, 13, 84, 0
15, 1133, Note_on_c, 13, 77, 0
15, 1194, Note_on_c, 13, 72, 56
15, 1203, Note_on_c, 13, 65, 0
15, 1205, Note_on_c, 13, 84, 49
15, 1268, Note_on_c, 13, 65, 39
15, 1270, Note_on_c, 13, 77, 42
15, 1277, Note_on_c, 13, 72, 0
15, 1281, Note_on_c, 13, 84, 0
15, 1435, Note_on_c, 13, 77, 0
15, 1438, Note_on_c, 13, 65, 0
15, 1440, Control_c, 13, 1, 2
15, 1440, Control_c, 13, 1, 7
15, 1440, Control_c, 13, 1, 3
15, 1440, Control_c, 13, 1, 10
15, 1440, Control_c, 13, 1, 1
15, 1440, Control_c, 13, 1, 11
15, 1440, Control_c, 13, 1, 8
15, 1440, Control_c, 13, 1, 6
15, 1440, Control_c, 13, 1, 9
15, 1440, Control_c, 13, 1, 14
15, 1440, Control_c, 13, 1, 4
15, 1440, Control_c, 13, 1, 5
15, 1440, Control_c, 13, 1, 12
15, 1440, Control_c, 13, 1, 13
15, 1440, Note_on_c, 13, 77, 47
15, 1440, Control_c, 13, 1, 13
15, 1464, Control_c, 13, 1, 14
15, 1466, Control_c, 13, 1, 15
15, 1466, Control_c, 13, 1, 16
15, 1469, Control_c, 13, 1, 17
15, 1471, Control_c, 13, 1, 19
15, 1471, Control_c, 13, 1, 18
15, 1471, Control_c, 13, 1, 20
15, 1471, Control_c, 13, 1, 21
15, 1473, Control_c, 13, 1, 22
15, 1475, Control_c, 13, 1, 24
15, 1475, Control_c, 13, 1, 23
15, 1475, Control_c, 13, 1, 25
15, 1478, Control_c, 13, 1, 26
15, 1480, Control_c, 13, 1, 27
15, 1482, Control_c, 13, 1, 28
15, 1545, Control_c, 13, 1, 27
15, 1547, Control_c, 13, 1, 26
15, 1547, Control_c, 13, 1, 25
15, 1552, Control_c, 13, 1, 24
15, 1552, Control_c, 13, 1, 23
15, 1554, Control_c, 13, 1, 22
15, 1556, Control_c, 13, 1, 21
15, 1558, Control_c, 13, 1, 20
15, 1560, Control_c, 13, 1, 18
15, 1560, Control_c, 13, 1, 19
15, 1562, Note_on_c, 13, 70, 39
15, 1565, Control_c, 13, 1, 17
15, 1565, Control_c, 13, 1, 16
15, 1567, Control_c, 13, 1, 15
15, 1569, Control_c, 13, 1, 14
15, 1572, Control_c, 13, 1, 13
15, 1574, Control_c, 13, 1, 12
15, 1578, Control_c, 13, 1, 11
15, 1581, Note_on_c, 13, 77, 0
15, 1619, Control_c, 13, 1, 12
15, 1621, Control_c, 13, 1, 13
15, 1621, Control_c, 13, 1, 14
15, 1621, Control_c, 13, 1, 15
15, 1625, Control_c, 13, 1, 17
15, 1625, Control_c, 13, 1, 16
15, 1628, Control_c, 13, 1, 20
15, 1628, Control_c, 13, 1, 18
15, 1628, Control_c, 13, 1, 19
15, 1632, Control_c, 13, 1, 21
15, 1632, Control_c, 13, 1, 22
15, 1637, Control_c, 13, 1, 23
15, 1637, Control_c, 13, 1, 24
15, 1641, Control_c, 13, 1, 25
15, 1641, Control_c, 13, 1, 26
15, 1643, Control_c, 13, 1, 27
15, 1643, Control_c, 13, 1, 28
15, 1646, Control_c, 13, 1, 29
15, 1648, Control_c, 13, 1, 30
15, 1648, Control_c, 13, 1, 31
15, 1650, Control_c, 13, 1, 32
15, 1652, Control_c, 13, 1, 33
15, 1655, Control_c, 13, 1, 34
15, 1657, Control_c, 13, 1, 36
15, 1657, Control_c, 13, 1, 35
15, 1659, Control_c, 13, 1, 38
15, 1659, Control_c, 13, 1, 37
15, 1661, Control_c, 13, 1, 39
15, 1664, Control_c, 13, 1, 40
15, 1666, Control_c, 13, 1, 42
15, 1666, Control_c, 13, 1, 41
15, 1670, Control_c, 13, 1, 43
15, 1672, Control_c, 13, 1, 44
15, 1675, Control_c, 13, 1, 45
15, 1681, Control_c, 13, 1, 46
15, 1684, Control_c, 13, 1, 47
15, 1688, Control_c, 13, 1, 48
15, 1708, Control_c, 13, 1, 45
15, 1708, Control_c, 13, 1, 46
15, 1708, Control_c, 13, 1, 47
15, 1713, Control_c, 13, 1, 42
15, 1713, Control_c, 13, 1, 44
15, 1713, Control_c, 13, 1, 43
15, 1715, Control_c, 13, 1, 40
15, 1715, Control_c, 13, 1, 39
15, 1715, Control_c, 13, 1, 41
15, 1720, Control_c, 13, 1, 38
15, 1720, Control_c, 13, 1, 36
15, 1720, Control_c, 13, 1, 37
15, 1720, Control_c, 13, 1, 35
15, 1724, Control_c, 13, 1, 33
15, 1724, Control_c, 13, 1, 34
15, 1724, Control_c, 13, 1, 32
15, 1726, Control_c, 13, 1, 31
15, 1726, Control_c, 13, 1, 30
15, 1728, Control_c, 13, 1, 29
15, 1731, Control_c, 13, 1, 28
15, 1769, Control_c, 13, 1, 27
15, 1801, Note_on_c, 13, 77, 39
15, 1804, Note_on_c, 13, 70, 0
15, 1820, Control_c, 13, 1, 28
15, 1823, Control_c, 13, 1, 30
15, 1823, Control_c, 13, 1, 29
15, 1823, Control_c, 13, 1, 31
15, 1825, Control_c, 13, 1, 32
15, 1827, Control_c, 13, 1, 35
15, 1827, Control_c, 13, 1, 36
15, 1827, Control_c, 13, 1, 34
15, 1827, Control_c, 13, 1, 33
15, 1829, Control_c, 13, 1, 37
15, 1832, Control_c, 13, 1, 39
15, 1832, Control_c, 13, 1, 40
15, 1832, Control_c, 13, 1, 38
15, 1834, Control_c, 13, 1, 41
15, 1836, Control_c, 13, 1, 42
15, 1836, Control_c, 13, 1, 43
15, 1838, Control_c, 13, 1, 44
15, 1840, Control_c, 13, 1, 45
15, 1843, Control_c, 13, 1, 46
15, 1845, Control_c, 13, 1, 47
15, 1847, Control_c, 13, 1, 48
15, 1854, Control_c, 13, 1, 49
15, 1861, Control_c, 13, 1, 50
15, 1899, Control_c, 13, 1, 49
15, 1905, Control_c, 13, 1, 48
15, 1908, Control_c, 13, 1, 47
15, 1914, Control_c, 13, 1, 46
15, 1919, Note_on_c, 13, 70, 42
15, 1921, Control_c, 13, 1, 45
15, 1926, Control_c, 13, 1, 44
15, 1927, Note_on_c, 13, 77, 0
15, 1928, Control_c, 13, 1, 43
15, 1935, Control_c, 13, 1, 42
15, 1941, Control_c, 13, 1, 41
15, 1991, Control_c, 13, 1, 42
15, 2013, Control_c, 13, 1, 43
15, 2020, Control_c, 13, 1, 44
15, 2029, Control_c, 13, 1, 45
15, 2062, Control_c, 13, 1, 44
15, 2073, Control_c, 13, 1, 43
15, 2085, Control_c, 13, 1, 42
15, 2091, Control_c, 13, 1, 41
15, 2094, Control_c, 13, 1, 39
15, 2094, Control_c, 13, 1, 40
15, 2098, Control_c, 13, 1, 37
15, 2098, Control_c, 13, 1, 38
15, 2100, Control_c, 13, 1, 36
15, 2103, Control_c, 13, 1, 35
15, 2105, Control_c, 13, 1, 34
15, 2107, Control_c, 13, 1, 33
15, 2112, Control_c, 13, 1, 32
15, 2116, Control_c, 13, 1, 31
15, 2118, Control_c, 13, 1, 30
15, 2123, Control_c, 13, 1, 29
15, 2125, Control_c, 13, 1, 28
15, 2127, Control_c, 13, 1, 27
15, 2129, Control_c, 13, 1, 26
15, 2132, Control_c, 13, 1, 25
15, 2136, Control_c, 13, 1, 24
15, 2138, Control_c, 13, 1, 23
15, 2145, Control_c, 13, 1, 22
15, 2150, Control_c, 13, 1, 21
15, 2154, Control_c, 13, 1, 20
15, 2159, Control_c, 13, 1, 19
15, 2161, Control_c, 13, 1, 18
15, 2161, Control_c, 13, 1, 17
15, 2163, Control_c, 13, 1, 15
15, 2163, Control_c, 13, 1, 16
15, 2165, Control_c, 13, 1, 14
15, 2168, Control_c, 13, 1, 12
15, 2168, Control_c, 13, 1, 13
15, 2170, Control_c, 13, 1, 11
15, 2172, Control_c, 13, 1, 10
15, 2174, Control_c, 13, 1, 9
15, 2179, Control_c, 13, 1, 8
15, 2183, Control_c, 13, 1, 7
15, 2197, Control_c, 13, 1, 6
15, 2208, Control_c, 13, 1, 5
15, 2212, Control_c, 13, 1, 4
15, 2215, Control_c, 13, 1, 3
15, 2219, Control_c, 13, 1, 2
15, 2224, Control_c, 13, 1, 1
15, 2349, Control_c, 13, 1, 0
15, 2385, Note_on_c, 13, 70, 0
15, 7560, Note_on_c, 13, 81, 52
15, 7623, Note_on_c, 13, 79, 54
15, 7626, Note_on_c, 13, 81, 0
15, 7682, Note_on_c, 13, 78, 45
15, 7689, Note_on_c, 13, 79, 0
15, 7733, Note_on_c, 13, 76, 54
15, 7736, Note_on_c, 13, 78, 0
15, 7795, Note_on_c, 13, 74, 55
15, 7801, Note_on_c, 13, 76, 0
15, 7918, Note_on_c, 13, 71, 57
15, 7921, Note_on_c, 13, 74, 0
15, 8009, Note_on_c, 13, 79, 56
15, 8019, Note_on_c, 13, 71, 0
15, 8022, Note_on_c, 13, 80, 47
15, 8033, Note_on_c, 13, 79, 0
15, 8040, Note_on_c, 13, 81, 57
15, 8044, Note_on_c, 13, 80, 0
15, 8154, Note_on_c, 13, 79, 56
15, 8163, Note_on_c, 13, 81, 0
15, 8274, Note_on_c, 13, 81, 52
15, 8281, Note_on_c, 13, 79, 0
15, 8491, Note_on_c, 13, 81, 0
15, 9480, Note_on_c, 13, 78, 51
15, 9600, Note_on_c, 13, 78, 0
15, 9603, Note_on_c, 13, 80, 56
15, 9721, Note_on_c, 13, 81, 57
15, 9726, Note_on_c, 13, 80, 0
15, 9843, Note_on_c, 13, 83, 66
15, 9843, Note_on_c, 13, 81, 0
15, 9963, Note_on_c, 13, 85, 64
15, 9967, Note_on_c, 13, 83, 0
15, 10078, Note_on_c, 13, 86, 63
15, 10083, Note_on_c, 13, 85, 0
15, 10200, Note_on_c, 13, 85, 57
15, 10204, Note_on_c, 13, 86, 0
15, 10399, Note_on_c, 13, 85, 0
15, 10400, Note_on_c, 13, 86, 52
15, 10445, Note_on_c, 13, 88, 72
15, 10445, Note_on_c, 13, 86, 0
15, 10614, Note_on_c, 13, 88, 0
15, 10620, Note_on_c, 13, 85, 61
15, 10650, Note_on_c, 13, 86, 61
15, 10654, Note_on_c, 13, 85, 0
15, 10675, Note_on_c, 13, 86, 0
15, 10676, Note_on_c, 13, 88, 58
15, 10739, Note_on_c, 13, 86, 59
15, 10740, Note_on_c, 13, 88, 0
15, 10883, Note_on_c, 13, 86, 0
15, 10911, Note_on_c, 13, 86, 66
15, 10975, Note_on_c, 13, 84, 58
15, 10979, Note_on_c, 13, 86, 0
15, 11041, Note_on_c, 13, 82, 62
15, 11045, Note_on_c, 13, 84, 0
15, 11101, Note_on_c, 13, 81, 59
15, 11104, Note_on_c, 13, 82, 0
15, 11166, Note_on_c, 13, 79, 49
15, 11173, Note_on_c, 13, 81, 0
15, 11239, Note_on_c, 13, 78, 35
15, 11244, Note_on_c, 13, 79, 0
15, 11405, Control_c, 13, 1, 37
15, 11411, Control_c, 13, 1, 36
15, 11416, Control_c, 13, 1, 35
15, 11420, Control_c, 13, 1, 34
15, 11423, Control_c, 13, 1, 33
15, 11435, Control_c, 13, 1, 32
15, 11438, Control_c, 13, 1, 30
15, 11438, Control_c, 13, 1, 31
15, 11440, Control_c, 13, 1, 29
15, 11441, Control_c, 13, 1, 27
15, 11441, Control_c, 13, 1, 28
15, 11442, Control_c, 13, 1, 25
15, 11442, Control_c, 13, 1, 26
15, 11444, Control_c, 13, 1, 24
15, 11458, Control_c, 13, 1, 23
15, 11463, Control_c, 13, 1, 22
15, 11473, Control_c, 13, 1, 21
15, 11475, Control_c, 13, 1, 20
15, 11478, Control_c, 13, 1, 19
15, 11480, Note_on_c, 13, 71, 45
15, 11489, Control_c, 13, 1, 3
15, 11489, Control_c, 13, 1, 1
15, 11489, Control_c, 13, 1, 2
15, 11489, Control_c, 13, 1, 4
15, 11491, Control_c, 13, 1, 6
15, 11491, Control_c, 13, 1, 5
15, 11492, Control_c, 13, 1, 8
15, 11492, Control_c, 13, 1, 10
15, 11492, Control_c, 13, 1, 7
15, 11492, Control_c, 13, 1, 9
15, 11493, Control_c, 13, 1, 18
15, 11494, Control_c, 13, 1, 11
15, 11494, Control_c, 13, 1, 15
15, 11494, Control_c, 13, 1, 14
15, 11494, Control_c, 13, 1, 13
15, 11494, Control_c, 13, 1, 12
15, 11495, Control_c, 13, 1, 16
15, 11496, Control_c, 13, 1, 20
15, 11496, Control_c, 13, 1, 19
15, 11496, Control_c, 13, 1, 18
15, 11496, Control_c, 13, 1, 17
15, 11498, Control_c, 13, 1, 21
15, 11499, Control_c, 13, 1, 22
15, 11499, Control_c, 13, 1, 23
15, 11499, Control_c, 13, 1, 24
15, 11500, Control_c, 13, 1, 26
15, 11500, Control_c, 13, 1, 25
15, 11502, Control_c, 13, 1, 27
15, 11503, Control_c, 13, 1, 28
15, 11505, Control_c, 13, 1, 29
15, 11506, Control_c, 13, 1, 17
15, 11507, Control_c, 13, 1, 30
15, 11509, Control_c, 13, 1, 15
15, 11509, Control_c, 13, 1, 16
15, 11509, Control_c, 13, 1, 31
15, 11510, Control_c, 13, 1, 14
15, 11510, Control_c, 13, 1, 32
15, 11511, Control_c, 13, 1, 11
15, 11511, Control_c, 13, 1, 12
15, 11511, Control_c, 13, 1, 13
15, 11513, Control_c, 13, 1, 10
15, 11513, Control_c, 13, 1, 9
15, 11514, Control_c, 13, 1, 7
15, 11514, Control_c, 13, 1, 8
15, 11515, Control_c, 13, 1, 6
15, 11532, Control_c, 13, 1, 31
15, 11534, Control_c, 13, 1, 30
15, 11536, Control_c, 13, 1, 5
15, 11538, Control_c, 13, 1, 29
15, 11539, Control_c, 13, 1, 4
15, 11540, Control_c, 13, 1, 3
15, 11542, Control_c, 13, 1, 2
15, 11543, Control_c, 13, 1, 1
15, 11549, Control_c, 13, 1, 28
15, 11552, Control_c, 13, 1, 27
15, 11553, Control_c, 13, 1, 26
15, 11555, Note_on_c, 13, 71, 0
15, 11556, Control_c, 13, 1, 25
15, 11557, Control_c, 13, 1, 24
15, 11558, Note_on_c, 13, 80, 42
15, 11558, Control_c, 13, 1, 23
15, 11558, Control_c, 13, 1, 22
15, 11561, Control_c, 13, 1, 21
15, 11563, Control_c, 13, 1, 20
15, 11564, Control_c, 13, 1, 19
15, 11565, Control_c, 13, 1, 0
15, 11581, Control_c, 13, 1, 20
15, 11589, Control_c, 13, 1, 21
15, 11596, Control_c, 13, 1, 22
15, 11598, Note_on_c, 13, 83, 42
15, 11601, Control_c, 13, 1, 23
15, 11603, Note_on_c, 13, 80, 0
15, 11605, Control_c, 13, 1, 24
15, 11623, Control_c, 13, 1, 25
15, 11633, Control_c, 13, 1, 26
15, 11638, Note_on_c, 13, 81, 48
15, 11638, Note_on_c, 13, 83, 0
15, 11641, Control_c, 13, 1, 27
15, 11641, Note_on_c, 13, 78, 0
15, 11644, Control_c, 13, 1, 28
15, 11648, Control_c, 13, 1, 29
15, 11652, Control_c, 13, 1, 30
15, 11656, Control_c, 13, 1, 31
15, 11658, Control_c, 13, 1, 32
15, 11661, Control_c, 13, 1, 33
15, 11663, Control_c, 13, 1, 34
15, 11667, Control_c, 13, 1, 35
15, 11677, Control_c, 13, 1, 36
15, 11683, Control_c, 13, 1, 37
15, 11687, Control_c, 13, 1, 38
15, 11691, Control_c, 13, 1, 39
15, 11692, Control_c, 13, 1, 40
15, 11694, Control_c, 13, 1, 41
15, 11695, Control_c, 13, 1, 42
15, 11699, Control_c, 13, 1, 43
15, 11716, Control_c, 13, 1, 44
15, 11719, Control_c, 13, 1, 45
15, 11720, Control_c, 13, 1, 46
15, 11721, Control_c, 13, 1, 47
15, 11723, Control_c, 13, 1, 48
15, 11725, Control_c, 13, 1, 49
15, 11727, Control_c, 13, 1, 50
15, 11728, Control_c, 13, 1, 51
15, 11734, Control_c, 13, 1, 52
15, 11753, Control_c, 13, 1, 51
15, 11771, Control_c, 13, 1, 50
15, 11785, Control_c, 13, 1, 49
15, 11792, Control_c, 13, 1, 48
15, 11796, Control_c, 13, 1, 47
15, 11797, Control_c, 13, 1, 46
15, 11799, Control_c, 13, 1, 45
15, 11800, Control_c, 13, 1, 44
15, 11801, Control_c, 13, 1, 43
15, 11801, Control_c, 13, 1, 42
15, 11804, Control_c, 13, 1, 40
15, 11804, Control_c, 13, 1, 41
15, 11804, Control_c, 13, 1, 39
15, 11805, Control_c, 13, 1, 37
15, 11805, Control_c, 13, 1, 38
15, 11807, Control_c, 13, 1, 35
15, 11807, Control_c, 13, 1, 36
15, 11808, Control_c, 13, 1, 34
15, 11808, Control_c, 13, 1, 32
15, 11808, Control_c, 13, 1, 33
15, 11810, Control_c, 13, 1, 29
15, 11810, Control_c, 13, 1, 30
15, 11810, Control_c, 13, 1, 31
15, 11811, Control_c, 13, 1, 27
15, 11811, Control_c, 13, 1, 28
15, 11812, Control_c, 13, 1, 25
15, 11812, Control_c, 13, 1, 26
15, 11812, Control_c, 13, 1, 24
15, 11814, Control_c, 13, 1, 22
15, 11814, Control_c, 13, 1, 23
15, 11815, Control_c, 13, 1, 20
15, 11815, Control_c, 13, 1, 19
15, 11815, Control_c, 13, 1, 21
15, 11817, Control_c, 13, 1, 18
15, 11817, Control_c, 13, 1, 17
15, 11818, Control_c, 13, 1, 15
15, 11818, Control_c, 13, 1, 16
15, 11819, Control_c, 13, 1, 14
15, 11821, Control_c, 13, 1, 13
15, 11821, Control_c, 13, 1, 12
15, 11822, Control_c, 13, 1, 11
15, 11823, Control_c, 13, 1, 10
15, 11825, Control_c, 13, 1, 9
15, 11829, Control_c, 13, 1, 8
15, 11830, Control_c, 13, 1, 7
15, 11833, Control_c, 13, 1, 6
15, 11834, Control_c, 13, 1, 5
15, 11834, Control_c, 13, 1, 4
15, 11837, Control_c, 13, 1, 3
15, 11837, Control_c, 13, 1, 2
15, 11840, Control_c, 13, 1, 1
15, 11868, Control_c, 13, 1, 0
15, 11883, Note_on_c, 13, 81, 0
15, 14882, Note_on_c, 13, 69, 87
15, 14941, Note_on_c, 13, 71, 94
15, 14942, Note_on_c, 13, 69, 0
15, 15002, Note_on_c, 13, 72, 89
15, 15004, Note_on_c, 13, 71, 0
15, 15032, Note_on_c, 13, 72, 0
15, 15032, Note_on_c, 13, 74, 91
15, 15057, Note_on_c, 13, 74, 0
15, 15061, Note_on_c, 13, 75, 74
15, 15092, Note_on_c, 13, 78, 87
15, 15096, Note_on_c, 13, 75, 0
15, 15122, Note_on_c, 13, 78, 0
15, 15122, Note_on_c, 13, 80, 76
15, 15135, Note_on_c, 13, 80, 0
15, 15137, Note_on_c, 13, 81, 75
15, 15152, Note_on_c, 13, 83, 85
15, 15152, Note_on_c, 13, 81, 0
15, 15167, Note_on_c, 13, 84, 85
15, 15168, Note_on_c, 13, 83, 0
15, 15181, Note_on_c, 13, 86, 85
15, 15183, Note_on_c, 13, 84, 0
15, 15197, Note_on_c, 13, 86, 0
15, 15207, Note_on_c, 13, 87, 69
15, 15213, Note_on_c, 13, 88, 74
15, 15222, Note_on_c, 13, 87, 0
15, 15226, Note_on_c, 13, 88, 0
15, 15227, Note_on_c, 13, 89, 98
15, 15232, Note_on_c, 13, 89, 0
15, 15243, Note_on_c, 13, 90, 127
15, 15479, Note_on_c, 13, 90, 0
15, 15482, Note_on_c, 13, 88, 102
15, 15720, Note_on_c, 13, 86, 86
15, 15722, Note_on_c, 13, 88, 0
15, 16196, Note_on_c, 13, 85, 68
15, 16200, Note_on_c, 13, 86, 0
15, 16555, Note_on_c, 13, 83, 72
15, 16560, Note_on_c, 13, 85, 0
15, 16671, Note_on_c, 13, 83, 0
15, 16678, Note_on_c, 13, 76, 62
15, 16708, Note_on_c, 13, 78, 55
15, 16716, Note_on_c, 13, 76, 0
15, 16738, Note_on_c, 13, 79, 55
15, 16739, Note_on_c, 13, 78, 0
15, 16771, Note_on_c, 13, 81, 50
15, 16781, Note_on_c, 13, 79, 0
15, 16802, Note_on_c, 13, 82, 45
15, 16808, Note_on_c, 13, 81, 0
15, 16860, Note_on_c, 13, 82, 0
15, 16860, Note_on_c, 13, 83, 40
15, 16922, Note_on_c, 13, 85, 35
15, 16925, Note_on_c, 13, 83, 0
15, 17097, Note_on_c, 13, 85, 0
15, 22562, Note_on_c, 13, 69, 87
15, 22621, Note_on_c, 13, 71, 94
15, 22622, Note_on_c, 13, 69, 0
15, 22682, Note_on_c, 13, 72, 88
15, 22684, Note_on_c, 13, 71, 0
15, 22712, Note_on_c, 13, 72, 0
15, 22712, Note_on_c, 13, 74, 90
15, 22737, Note_on_c, 13, 74, 0
15, 22741, Note_on_c, 13, 75, 73
15, 22772, Note_on_c, 13, 78, 86
15, 22776, Note_on_c, 13, 75, 0
15, 22802, Note_on_c, 13, 78, 0
15, 22802, Note_on_c, 13, 80, 75
15, 22815, Note_on_c, 13, 80, 0
15, 22817, Note_on_c, 13, 81, 74
15, 22832, Note_on_c, 13, 81, 0
15, 22832, Note_on_c, 13, 83, 84
15, 22847, Note_on_c, 13, 84, 84
15, 22848, Note_on_c, 13, 83, 0
15, 22861, Note_on_c, 13, 86, 84
15, 22863, Note_on_c, 13, 84, 0
15, 22877, Note_on_c, 13, 86, 0
15, 22887, Note_on_c, 13, 87, 68
15, 22893, Note_on_c, 13, 88, 73
15, 22902, Note_on_c, 13, 87, 0
15, 22906, Note_on_c, 13, 88, 0
15, 22907, Note_on_c, 13, 89, 97
15, 22912, Note_on_c, 13, 89, 0
15, 22923, Note_on_c, 13, 90, 124
15, 23159, Note_on_c, 13, 90, 0
15, 23162, Note_on_c, 13, 88, 95
15, 23400, Note_on_c, 13, 86, 77
15, 23402, Note_on_c, 13, 88, 0
15, 23876, Note_on_c, 13, 85, 60
15, 23880, Note_on_c, 13, 86, 0
15, 24235, Note_on_c, 13, 83, 61
15, 24240, Note_on_c, 13, 85, 0
15, 24351, Note_on_c, 13, 83, 0
15, 24358, Note_on_c, 13, 76, 53
15, 24388, Note_on_c, 13, 78, 58
15, 24396, Note_on_c, 13, 76, 0
15, 24418, Note_on_c, 13, 79, 58
15, 24419, Note_on_c, 13, 78, 0
15, 24451, Note_on_c, 13, 81, 54
15, 24461, Note_on_c, 13, 79, 0
15, 24482, Note_on_c, 13, 82, 48
15, 24488, Note_on_c, 13, 81, 0
15, 24540, Note_on_c, 13, 82, 0
15, 24540, Note_on_c, 13, 83, 44
15, 24602, Note_on_c, 13, 85, 38
15, 24605, Note_on_c, 13, 83, 0
15, 24777, Note_on_c, 13, 85, 0
15, 26280, Note_on_c, 13, 81, 60
15, 26401, Note_on_c, 13, 86, 61
15, 26410, Note_on_c, 13, 81, 0
15, 26524, Note_on_c, 13, 85, 56
15, 26525, Note_on_c, 13, 86, 0
15, 26642, Note_on_c, 13, 80, 58
15, 26649, Note_on_c, 13, 85, 0
15, 26759, Note_on_c, 13, 79, 63
15, 26766, Note_on_c, 13, 80, 0
15, 26845, Note_on_c, 13, 88, 55
15, 26856, Note_on_c, 13, 89, 66
15, 26864, Note_on_c, 13, 79, 0
15, 26864, Note_on_c, 13, 88, 0
15, 26880, Note_on_c, 13, 90, 60
15, 26882, Note_on_c, 13, 89, 0
15, 26998, Note_on_c, 13, 90, 0
15, 27000, Note_on_c, 13, 89, 64
15, 27062, Note_on_c, 13, 82, 54
15, 27075, Note_on_c, 13, 89, 0
15, 27120, Note_on_c, 13, 77, 58
15, 27127, Note_on_c, 13, 82, 0
15, 27160, Note_on_c, 13, 70, 56
15, 27171, Note_on_c, 13, 77, 0
15, 27199, Note_on_c, 13, 70, 0
15, 27200, Note_on_c, 13, 65, 53
15, 27240, Note_on_c, 13, 64, 58
15, 27246, Note_on_c, 13, 65, 0
15, 27729, Note_on_c, 13, 64, 0
15, 27729, End_track
16, 0, Start_track
16, 0, Control_c, 14, 0, 0
16, 0, Program_c, 14, 48
16, 0, Sequencer_specific, 20, 74, 65, 90, 50, 1, 0, 0, 0, 0, 0, 0, 0, 0, 0, 0, 0, 0, 0, 0, 0
16, 0, MIDI_port, 0
16, 0, Title_t, "Strings"
16, 0, Control_c, 14, 7, 99
16, 0, Control_c, 14, 10, 64
16, 0, Control_c, 14, 121, 0
16, 6, Control_c, 14, 11, 127
16, 8, Control_c, 14, 91, 127
16, 10, Control_c, 14, 93, 100
16, 480, Note_on_c, 14, 57, 36
16, 481, Note_on_c, 14, 69, 37
16, 533, Note_on_c, 14, 59, 44
16, 536, Note_on_c, 14, 71, 46
16, 536, Note_on_c, 14, 57, 0
16, 536, Note_on_c, 14, 69, 0
16, 595, Note_on_c, 14, 61, 42
16, 600, Note_on_c, 14, 59, 0
16, 600, Note_on_c, 14, 73, 47
16, 601, Note_on_c, 14, 71, 0
16, 653, Note_on_c, 14, 74, 49
16, 653, Note_on_c, 14, 73, 0
16, 656, Note_on_c, 14, 62, 56
16, 659, Note_on_c, 14, 61, 0
16, 715, Note_on_c, 14, 60, 48
16, 715, Note_on_c, 14, 76, 58
16, 717, Note_on_c, 14, 74, 0
16, 717, Note_on_c, 14, 62, 0
16, 774, Note_on_c, 14, 61, 55
16, 777, Note_on_c, 14, 77, 69
16, 777, Note_on_c, 14, 76, 0
16, 782, Note_on_c, 14, 60, 0
16, 835, Note_on_c, 14, 78, 57
16, 835, Note_on_c, 14, 62, 63
16, 841, Note_on_c, 14, 77, 0
16, 843, Note_on_c, 14, 61, 0
16, 890, Note_on_c, 14, 79, 75
16, 891, Note_on_c, 14, 64, 64
16, 893, Note_on_c, 14, 78, 0
16, 894, Note_on_c, 14, 62, 0
16, 955, Note_on_c, 14, 81, 79
16, 955, Note_on_c, 14, 65, 68
16, 960, Note_on_c, 14, 79, 0
16, 961, Note_on_c, 14, 64, 0
16, 1019, Note_on_c, 14, 60, 59
16, 1025, Note_on_c, 14, 74, 67
16, 1028, Note_on_c, 14, 65, 0
16, 1034, Note_on_c, 14, 81, 0
16, 1198, Note_on_c, 14, 60, 0
16, 1200, Note_on_c, 14, 65, 48
16, 1205, Note_on_c, 14, 81, 56
16, 1206, Note_on_c, 14, 74, 0
16, 1265, Note_on_c, 14, 60, 46
16, 1268, Note_on_c, 14, 65, 0
16, 1268, Note_on_c, 14, 74, 48
16, 1274, Note_on_c, 14, 81, 0
16, 1408, Note_on_c, 14, 74, 0
16, 1435, Note_on_c, 14, 60, 0
16, 1440, Note_on_c, 14, 74, 51
16, 1442, Note_on_c, 14, 65, 46
16, 1565, Note_on_c, 14, 62, 46
16, 1569, Note_on_c, 14, 70, 35
16, 1572, Note_on_c, 14, 74, 0
16, 1578, Note_on_c, 14, 65, 0
16, 1796, Note_on_c, 14, 74, 49
16, 1798, Note_on_c, 14, 65, 44
16, 1809, Note_on_c, 14, 62, 0
16, 1811, Note_on_c, 14, 70, 0
16, 1926, Note_on_c, 14, 70, 47
16, 1930, Note_on_c, 14, 62, 44
16, 1939, Note_on_c, 14, 65, 0
16, 1941, Note_on_c, 14, 74, 0
16, 2385, Note_on_c, 14, 62, 0
16, 2387, Note_on_c, 14, 70, 0
16, 2400, Note_on_c, 14, 61, 38
16, 2400, Note_on_c, 14, 67, 38
16, 2400, Note_on_c, 14, 63, 38
16, 2400, Note_on_c, 14, 58, 38
16, 3116, Note_on_c, 14, 58, 0
16, 3119, Note_on_c, 14, 57, 44
16, 3119, Note_on_c, 14, 64, 45
16, 3136, Note_on_c, 14, 63, 0
16, 3579, Note_on_c, 14, 64, 0
16, 3599, Note_on_c, 14, 57, 0
16, 3600, Note_on_c, 14, 61, 0
16, 3600, Note_on_c, 14, 67, 0
16, 3601, Note_on_c, 14, 59, 44
16, 3605, Note_on_c, 14, 54, 45
16, 3605, Note_on_c, 14, 64, 45
16, 3833, Note_on_c, 14, 62, 59
16, 3838, Note_on_c, 14, 64, 0
16, 4062, Note_on_c, 14, 59, 0
16, 4065, Note_on_c, 14, 57, 59
16, 4065, Note_on_c, 14, 61, 64
16, 4067, Note_on_c, 14, 62, 0
16, 4319, Note_on_c, 14, 61, 0
16, 4320, Note_on_c, 14, 59, 56
16, 4552, Note_on_c, 14, 56, 50
16, 4555, Note_on_c, 14, 57, 0
16, 5040, Note_on_c, 14, 58, 51
16, 5047, Note_on_c, 14, 56, 0
16, 5053, Note_on_c, 14, 59, 0
16, 5160, Note_on_c, 14, 55, 44
16, 5169, Note_on_c, 14, 54, 0
16, 5507, Note_on_c, 14, 58, 0
16, 5508, Note_on_c, 14, 55, 0
16, 5520, Note_on_c, 14, 62, 31
16, 5520, Note_on_c, 14, 57, 31
16, 5520, Note_on_c, 14, 66, 31
16, 5520, Note_on_c, 14, 54, 31
16, 5760, Note_on_c, 14, 64, 37
16, 5760, Note_on_c, 14, 61, 37
16, 5765, Note_on_c, 14, 62, 0
16, 5766, Note_on_c, 14, 66, 0
16, 5997, Note_on_c, 14, 61, 0
16, 6000, Note_on_c, 14, 62, 43
16, 6000, Note_on_c, 14, 59, 43
16, 6007, Note_on_c, 14, 64, 0
16, 6240, Note_on_c, 14, 65, 44
16, 6240, Note_on_c, 14, 59, 0
16, 6240, Note_on_c, 14, 61, 44
16, 6240, Note_on_c, 14, 56, 44
16, 6252, Note_on_c, 14, 57, 0
16, 6253, Note_on_c, 14, 54, 0
16, 6475, Note_on_c, 14, 65, 0
16, 6480, Note_on_c, 14, 60, 44
16, 6480, Note_on_c, 14, 62, 0
16, 6480, Note_on_c, 14, 64, 44
16, 6480, Note_on_c, 14, 57, 44
16, 6480, Note_on_c, 14, 55, 44
16, 6491, Note_on_c, 14, 56, 0
16, 6491, Note_on_c, 14, 61, 0
16, 6890, Note_on_c, 14, 55, 0
16, 6960, Note_on_c, 14, 56, 48
16, 6960, Note_on_c, 14, 54, 48
16, 6960, Note_on_c, 14, 63, 48
16, 6965, Note_on_c, 14, 64, 0
16, 6968, Note_on_c, 14, 57, 0
16, 7216, Control_c, 14, 11, 127
16, 7220, Control_c, 14, 11, 126
16, 7222, Control_c, 14, 11, 125
16, 7228, Control_c, 14, 11, 124
16, 7232, Control_c, 14, 11, 123
16, 7236, Control_c, 14, 11, 122
16, 7242, Control_c, 14, 11, 121
16, 7248, Control_c, 14, 11, 120
16, 7252, Control_c, 14, 11, 119
16, 7260, Control_c, 14, 11, 118
16, 7276, Control_c, 14, 11, 117
16, 7280, Control_c, 14, 11, 116
16, 7288, Control_c, 14, 11, 115
16, 7290, Control_c, 14, 11, 114
16, 7298, Control_c, 14, 11, 113
16, 7300, Control_c, 14, 11, 112
16, 7304, Control_c, 14, 11, 111
16, 7316, Control_c, 14, 11, 110
16, 7328, Control_c, 14, 11, 108
16, 7332, Control_c, 14, 11, 107
16, 7336, Control_c, 14, 11, 106
16, 7340, Control_c, 14, 11, 105
16, 7346, Control_c, 14, 11, 104
16, 7350, Control_c, 14, 11, 103
16, 7354, Control_c, 14, 11, 102
16, 7356, Control_c, 14, 11, 101
16, 7358, Control_c, 14, 11, 100
16, 7360, Control_c, 14, 11, 99
16, 7364, Control_c, 14, 11, 98
16, 7368, Control_c, 14, 11, 97
16, 7372, Control_c, 14, 11, 96
16, 7376, Control_c, 14, 11, 95
16, 7380, Note_on_c, 14, 63, 0
16, 7380, Control_c, 14, 11, 94
16, 7380, Note_on_c, 14, 56, 0
16, 7380, Note_on_c, 14, 60, 0
16, 7384, Control_c, 14, 11, 93
16, 7385, Note_on_c, 14, 54, 0
16, 7438, Control_c, 14, 11, 127
16, 7440, Note_on_c, 14, 57, 39
16, 7440, Note_on_c, 14, 60, 39
16, 7440, Note_on_c, 14, 62, 39
16, 7445, Note_on_c, 14, 54, 39
16, 7555, Note_on_c, 14, 57, 0
16, 7560, Note_on_c, 14, 78, 39
16, 7560, Note_on_c, 14, 54, 0
16, 7565, Note_on_c, 14, 60, 0
16, 7565, Note_on_c, 14, 62, 0
16, 7616, Note_on_c, 14, 76, 42
16, 7620, Note_on_c, 14, 78, 0
16, 7675, Note_on_c, 14, 76, 0
16, 7677, Note_on_c, 14, 74, 43
16, 7733, Note_on_c, 14, 74, 0
16, 7733, Note_on_c, 14, 72, 47
16, 7797, Note_on_c, 14, 71, 48
16, 7801, Note_on_c, 14, 72, 0
16, 7914, Note_on_c, 14, 67, 44
16, 7917, Note_on_c, 14, 71, 0
16, 7998, Note_on_c, 14, 76, 41
16, 8009, Note_on_c, 14, 67, 0
16, 8012, Note_on_c, 14, 77, 45
16, 8019, Note_on_c, 14, 76, 0
16, 8033, Note_on_c, 14, 78, 46
16, 8040, Note_on_c, 14, 77, 0
16, 8157, Note_on_c, 14, 76, 42
16, 8163, Note_on_c, 14, 78, 0
16, 8272, Note_on_c, 14, 78, 45
16, 8281, Note_on_c, 14, 76, 0
16, 8510, Note_on_c, 14, 78, 0
16, 9481, Note_on_c, 14, 66, 50
16, 9482, Note_on_c, 14, 62, 58
16, 9598, Note_on_c, 14, 64, 58
16, 9600, Note_on_c, 14, 68, 59
16, 9604, Note_on_c, 14, 62, 0
16, 9604, Note_on_c, 14, 66, 0
16, 9715, Note_on_c, 14, 66, 53
16, 9717, Note_on_c, 14, 64, 0
16, 9720, Note_on_c, 14, 68, 0
16, 9720, Note_on_c, 14, 69, 53
16, 9837, Note_on_c, 14, 66, 0
16, 9837, Note_on_c, 14, 69, 0
16, 9840, Note_on_c, 14, 71, 64
16, 9840, Note_on_c, 14, 68, 58
16, 9955, Note_on_c, 14, 71, 0
16, 9960, Note_on_c, 14, 73, 58
16, 9965, Note_on_c, 14, 70, 59
16, 9965, Note_on_c, 14, 68, 0
16, 10080, Note_on_c, 14, 70, 0
16, 10080, Note_on_c, 14, 73, 0
16, 10080, Note_on_c, 14, 74, 62
16, 10080, Note_on_c, 14, 71, 62
16, 10195, Note_on_c, 14, 71, 0
16, 10195, Note_on_c, 14, 73, 61
16, 10198, Note_on_c, 14, 74, 0
16, 10200, Note_on_c, 14, 70, 62
16, 10390, Note_on_c, 14, 73, 0
16, 10395, Note_on_c, 14, 70, 0
16, 10399, Note_on_c, 14, 74, 60
16, 10399, Note_on_c, 14, 71, 60
16, 10442, Note_on_c, 14, 76, 62
16, 10443, Note_on_c, 14, 74, 0
16, 10615, Note_on_c, 14, 71, 0
16, 10618, Note_on_c, 14, 73, 50
16, 10621, Note_on_c, 14, 69, 61
16, 10622, Note_on_c, 14, 76, 0
16, 10650, Note_on_c, 14, 73, 0
16, 10650, Note_on_c, 14, 74, 58
16, 10657, Note_on_c, 14, 71, 58
16, 10657, Note_on_c, 14, 69, 0
16, 10683, Note_on_c, 14, 71, 0
16, 10684, Note_on_c, 14, 72, 64
16, 10684, Note_on_c, 14, 74, 0
16, 10685, Note_on_c, 14, 76, 63
16, 10740, Note_on_c, 14, 70, 55
16, 10741, Note_on_c, 14, 74, 67
16, 10743, Note_on_c, 14, 76, 0
16, 10744, Note_on_c, 14, 72, 0
16, 10899, Note_on_c, 14, 74, 0
16, 10904, Note_on_c, 14, 70, 0
16, 10920, Note_on_c, 14, 70, 61
16, 10920, Note_on_c, 14, 74, 61
16, 10920, Note_on_c, 14, 65, 60
16, 10976, Note_on_c, 14, 63, 56
16, 10980, Note_on_c, 14, 72, 56
16, 10980, Note_on_c, 14, 65, 0
16, 10980, Note_on_c, 14, 70, 0
16, 10983, Note_on_c, 14, 74, 0
16, 10985, Note_on_c, 14, 69, 56
16, 11040, Note_on_c, 14, 72, 0
16, 11040, Note_on_c, 14, 70, 59
16, 11040, Note_on_c, 14, 67, 64
16, 11042, Note_on_c, 14, 69, 0
16, 11045, Note_on_c, 14, 62, 56
16, 11049, Note_on_c, 14, 63, 0
16, 11090, Note_on_c, 14, 67, 0
16, 11090, Note_on_c, 14, 70, 0
16, 11099, Note_on_c, 14, 62, 0
16, 11100, Note_on_c, 14, 69, 60
16, 11102, Note_on_c, 14, 60, 58
16, 11105, Note_on_c, 14, 65, 55
16, 11160, Note_on_c, 14, 64, 57
16, 11160, Note_on_c, 14, 69, 0
16, 11160, Note_on_c, 14, 67, 57
16, 11160, Note_on_c, 14, 65, 0
16, 11163, Note_on_c, 14, 59, 56
16, 11167, Note_on_c, 14, 60, 0
16, 11236, Note_on_c, 14, 67, 0
16, 11239, Note_on_c, 14, 64, 0
16, 11240, Note_on_c, 14, 63, 58
16, 11240, Note_on_c, 14, 66, 49
16, 11240, Note_on_c, 14, 58, 58
16, 11241, Note_on_c, 14, 59, 0
16, 11400, Note_on_c, 14, 57, 43
16, 11400, Note_on_c, 14, 63, 0
16, 11404, Note_on_c, 14, 58, 0
16, 11405, Note_on_c, 14, 64, 43
16, 12360, Note_on_c, 14, 64, 0
16, 12360, Note_on_c, 14, 66, 0
16, 12365, Note_on_c, 14, 57, 0
16, 14819, Note_on_c, 14, 66, 60
16, 14877, Note_on_c, 14, 66, 0
16, 14878, Note_on_c, 14, 57, 62
16, 14941, Note_on_c, 14, 59, 69
16, 14941, Note_on_c, 14, 57, 0
16, 15000, Note_on_c, 14, 60, 54
16, 15000, Note_on_c, 14, 59, 0
16, 15032, Note_on_c, 14, 62, 63
16, 15036, Note_on_c, 14, 60, 0
16, 15061, Note_on_c, 14, 63, 65
16, 15066, Note_on_c, 14, 62, 0
16, 15091, Note_on_c, 14, 66, 67
16, 15092, Note_on_c, 14, 63, 0
16, 15121, Note_on_c, 14, 66, 0
16, 15122, Note_on_c, 14, 68, 60
16, 15134, Note_on_c, 14, 68, 0
16, 15137, Note_on_c, 14, 69, 68
16, 15149, Note_on_c, 14, 69, 0
16, 15151, Note_on_c, 14, 71, 76
16, 15165, Note_on_c, 14, 71, 0
16, 15166, Note_on_c, 14, 72, 77
16, 15178, Note_on_c, 14, 72, 0
16, 15181, Note_on_c, 14, 74, 78
16, 15196, Note_on_c, 14, 75, 80
16, 15198, Note_on_c, 14, 74, 0
16, 15208, Note_on_c, 14, 76, 81
16, 15210, Note_on_c, 14, 75, 0
16, 15226, Note_on_c, 14, 77, 82
16, 15227, Note_on_c, 14, 76, 0
16, 15241, Note_on_c, 14, 77, 0
16, 15242, Note_on_c, 14, 78, 85
16, 15476, Note_on_c, 14, 76, 76
16, 15482, Note_on_c, 14, 78, 0
16, 15722, Note_on_c, 14, 74, 79
16, 15726, Note_on_c, 14, 76, 0
16, 16199, Note_on_c, 14, 73, 69
16, 16203, Note_on_c, 14, 74, 0
16, 16552, Note_on_c, 14, 71, 59
16, 16557, Note_on_c, 14, 73, 0
16, 16682, Note_on_c, 14, 64, 53
16, 16685, Note_on_c, 14, 71, 0
16, 16712, Note_on_c, 14, 66, 56
16, 16715, Note_on_c, 14, 64, 0
16, 16746, Note_on_c, 14, 67, 54
16, 16747, Note_on_c, 14, 66, 0
16, 16770, Note_on_c, 14, 69, 52
16, 16773, Note_on_c, 14, 67, 0
16, 16800, Note_on_c, 14, 70, 49
16, 16805, Note_on_c, 14, 69, 0
16, 16860, Note_on_c, 14, 70, 0
16, 16860, Note_on_c, 14, 71, 48
16, 16920, Note_on_c, 14, 73, 50
16, 16926, Note_on_c, 14, 71, 0
16, 17158, Note_on_c, 14, 73, 0
16, 18659, Note_on_c, 14, 54, 60
16, 18659, Note_on_c, 14, 66, 66
16, 18713, Note_on_c, 14, 54, 0
16, 18719, Note_on_c, 14, 42, 60
16, 18719, Note_on_c, 14, 54, 68
16, 18726, Note_on_c, 14, 66, 0
16, 18775, Note_on_c, 14, 42, 0
16, 18778, Note_on_c, 14, 43, 70
16, 18779, Note_on_c, 14, 54, 0
16, 18779, Note_on_c, 14, 55, 64
16, 18839, Note_on_c, 14, 44, 67
16, 18839, Note_on_c, 14, 56, 77
16, 18839, Note_on_c, 14, 43, 0
16, 18841, Note_on_c, 14, 55, 0
16, 18895, Note_on_c, 14, 44, 0
16, 18897, Note_on_c, 14, 56, 0
16, 18899, Note_on_c, 14, 54, 63
16, 18900, Note_on_c, 14, 66, 63
16, 18959, Note_on_c, 14, 45, 70
16, 18959, Note_on_c, 14, 57, 60
16, 18960, Note_on_c, 14, 66, 0
16, 18963, Note_on_c, 14, 54, 0
16, 19015, Note_on_c, 14, 45, 0
16, 19018, Note_on_c, 14, 46, 59
16, 19019, Note_on_c, 14, 58, 66
16, 19022, Note_on_c, 14, 57, 0
16, 19079, Note_on_c, 14, 58, 0
16, 19079, Note_on_c, 14, 59, 75
16, 19079, Note_on_c, 14, 47, 87
16, 19085, Note_on_c, 14, 46, 0
16, 19193, Note_on_c, 14, 59, 0
16, 19197, Note_on_c, 14, 47, 0
16, 19198, Note_on_c, 14, 61, 72
16, 19198, Note_on_c, 14, 49, 74
16, 19317, Note_on_c, 14, 50, 83
16, 19317, Note_on_c, 14, 62, 75
16, 19322, Note_on_c, 14, 61, 0
16, 19322, Note_on_c, 14, 49, 0
16, 19436, Note_on_c, 14, 62, 0
16, 19437, Note_on_c, 14, 64, 72
16, 19437, Note_on_c, 14, 52, 76
16, 19440, Note_on_c, 14, 50, 0
16, 19558, Note_on_c, 14, 66, 71
16, 19558, Note_on_c, 14, 54, 71
16, 19564, Note_on_c, 14, 64, 0
16, 19568, Note_on_c, 14, 52, 0
16, 19674, Note_on_c, 14, 66, 0
16, 19676, Note_on_c, 14, 54, 0
16, 19676, Note_on_c, 14, 69, 69
16, 19677, Note_on_c, 14, 57, 71
16, 19797, Note_on_c, 14, 64, 72
16, 19797, Note_on_c, 14, 52, 74
16, 19807, Note_on_c, 14, 69, 0
16, 19808, Note_on_c, 14, 57, 0
16, 19978, Note_on_c, 14, 50, 74
16, 19978, Note_on_c, 14, 62, 72
16, 19982, Note_on_c, 14, 64, 0
16, 19986, Note_on_c, 14, 52, 0
16, 20040, Note_on_c, 14, 64, 75
16, 20040, Note_on_c, 14, 52, 63
16, 20044, Note_on_c, 14, 50, 0
16, 20044, Note_on_c, 14, 62, 0
16, 20756, Note_on_c, 14, 64, 0
16, 20758, Note_on_c, 14, 43, 70
16, 20758, Note_on_c, 14, 55, 60
16, 20759, Note_on_c, 14, 52, 0
16, 20816, Note_on_c, 14, 43, 0
16, 20819, Note_on_c, 14, 66, 67
16, 20819, Note_on_c, 14, 54, 67
16, 20827, Note_on_c, 14, 55, 0
16, 20879, Note_on_c, 14, 60, 69
16, 20879, Note_on_c, 14, 48, 75
16, 20886, Note_on_c, 14, 54, 0
16, 20892, Note_on_c, 14, 66, 0
16, 20939, Note_on_c, 14, 49, 66
16, 20939, Note_on_c, 14, 61, 72
16, 20940, Note_on_c, 14, 60, 0
16, 20943, Note_on_c, 14, 48, 0
16, 20999, Note_on_c, 14, 50, 90
16, 20999, Note_on_c, 14, 62, 69
16, 21004, Note_on_c, 14, 49, 0
16, 21004, Note_on_c, 14, 61, 0
16, 21118, Note_on_c, 14, 64, 77
16, 21118, Note_on_c, 14, 52, 74
16, 21119, Note_on_c, 14, 50, 0
16, 21120, Note_on_c, 14, 62, 0
16, 21239, Note_on_c, 14, 54, 86
16, 21239, Note_on_c, 14, 66, 76
16, 21243, Note_on_c, 14, 52, 0
16, 21246, Note_on_c, 14, 64, 0
16, 21356, Note_on_c, 14, 66, 0
16, 21358, Note_on_c, 14, 57, 67
16, 21358, Note_on_c, 14, 69, 74
16, 21359, Note_on_c, 14, 54, 0
16, 21475, Note_on_c, 14, 69, 0
16, 21477, Note_on_c, 14, 59, 76
16, 21477, Note_on_c, 14, 71, 86
16, 21481, Note_on_c, 14, 57, 0
16, 21597, Note_on_c, 14, 74, 71
16, 21598, Note_on_c, 14, 62, 69
16, 21605, Note_on_c, 14, 71, 0
16, 21605, Note_on_c, 14, 59, 0
16, 21717, Note_on_c, 14, 59, 81
16, 21717, Note_on_c, 14, 71, 71
16, 21719, Note_on_c, 14, 62, 0
16, 21724, Note_on_c, 14, 74, 0
16, 21898, Note_on_c, 14, 69, 72
16, 21898, Note_on_c, 14, 57, 74
16, 21902, Note_on_c, 14, 59, 0
16, 21902, Note_on_c, 14, 71, 0
16, 21958, Note_on_c, 14, 59, 79
16, 21959, Note_on_c, 14, 71, 72
16, 21962, Note_on_c, 14, 69, 0
16, 21965, Note_on_c, 14, 57, 0
16, 22499, Note_on_c, 14, 66, 60
16, 22557, Note_on_c, 14, 66, 0
16, 22558, Note_on_c, 14, 57, 62
16, 22621, Note_on_c, 14, 57, 0
16, 22621, Note_on_c, 14, 59, 69
16, 22680, Note_on_c, 14, 59, 0
16, 22680, Note_on_c, 14, 60, 53
16, 22712, Note_on_c, 14, 62, 62
16, 22716, Note_on_c, 14, 60, 0
16, 22741, Note_on_c, 14, 63, 64
16, 22746, Note_on_c, 14, 62, 0
16, 22771, Note_on_c, 14, 66, 66
16, 22772, Note_on_c, 14, 63, 0
16, 22801, Note_on_c, 14, 66, 0
16, 22802, Note_on_c, 14, 68, 59
16, 22806, Note_on_c, 14, 71, 0
16, 22808, Note_on_c, 14, 59, 0
16, 22814, Note_on_c, 14, 68, 0
16, 22817, Note_on_c, 14, 69, 67
16, 22829, Note_on_c, 14, 69, 0
16, 22831, Note_on_c, 14, 71, 75
16, 22845, Note_on_c, 14, 71, 0
16, 22846, Note_on_c, 14, 72, 76
16, 22858, Note_on_c, 14, 72, 0
16, 22861, Note_on_c, 14, 74, 77
16, 22876, Note_on_c, 14, 75, 79
16, 22878, Note_on_c, 14, 74, 0
16, 22888, Note_on_c, 14, 76, 80
16, 22890, Note_on_c, 14, 75, 0
16, 22906, Note_on_c, 14, 77, 81
16, 22907, Note_on_c, 14, 76, 0
16, 22921, Note_on_c, 14, 77, 0
16, 22922, Note_on_c, 14, 78, 83
16, 23156, Note_on_c, 14, 76, 71
16, 23162, Note_on_c, 14, 78, 0
16, 23402, Note_on_c, 14, 74, 70
16, 23406, Note_on_c, 14, 76, 0
16, 23879, Note_on_c, 14, 73, 60
16, 23883, Note_on_c, 14, 74, 0
16, 24232, Note_on_c, 14, 71, 50
16, 24237, Note_on_c, 14, 73, 0
16, 24362, Note_on_c, 14, 64, 57
16, 24365, Note_on_c, 14, 71, 0
16, 24392, Note_on_c, 14, 66, 59
16, 24395, Note_on_c, 14, 64, 0
16, 24426, Note_on_c, 14, 67, 57
16, 24427, Note_on_c, 14, 66, 0
16, 24450, Note_on_c, 14, 69, 56
16, 24453, Note_on_c, 14, 67, 0
16, 24480, Note_on_c, 14, 70, 53
16, 24485, Note_on_c, 14, 69, 0
16, 24540, Note_on_c, 14, 71, 52
16, 24540, Note_on_c, 14, 70, 0
16, 24600, Note_on_c, 14, 73, 54
16, 24606, Note_on_c, 14, 71, 0
16, 24838, Note_on_c, 14, 73, 0
16, 24838, End_track
17, 0, Start_track
17, 0, Sequencer_specific, 20, 74, 65, 90, 50, 1, 0, 0, 0, 0, 0, 0, 0, 0, 0, 0, 0, 0, 0, 0, 0
17, 0, End_track
18, 0, Start_track
18, 0, Control_c, 0, 0, 0
18, 0, Sequencer_specific, 20, 74, 65, 90, 50, 1, 0, 0, 0, 0, 0, 0, 0, 0, 0, 0, 0, 0, 0, 0, 0
18, 0, Title_t, "Sequenced by"
18, 0, End_track
19, 0, Start_track
19, 0, Control_c, 0, 0, 0
19, 0, Sequencer_specific, 20, 74, 65, 90, 50, 1, 0, 0, 0, 0, 0, 0, 0, 0, 0, 0, 0, 0, 0, 0, 0
19, 0, Title_t, "MidiMart.net"
19, 0, End_track
20, 0, Start_track
20, 0, Control_c, 0, 0, 0
20, 0, Sequencer_specific, 20, 74, 65, 90, 50, 1, 0, 0, 0, 0, 0, 0, 0, 0, 0, 0, 0, 0, 0, 0, 0
20, 0, Title_t, "www.midimart.net"
20, 0, End_track
21, 0, Start_track
21, 0, Control_c, 0, 0, 0
21, 0, Sequencer_specific, 20, 74, 65, 90, 50, 1, 0, 0, 0, 0, 0, 0, 0, 0, 0, 0, 0, 0, 0, 0, 0
21, 0, Title_t, "============="
21, 0, End_track
22, 0, Start_track
22, 0, Sequencer_specific, 20, 74, 65, 90, 50, 1, 0, 0, 0, 0, 0, 0, 0, 0, 0, 0, 0, 0, 0, 0, 0
22, 0, End_track
23, 0, Start_track
23, 0, Sequencer_specific, 20, 74, 65, 90, 50, 1, 0, 0, 0, 0, 0, 0, 0, 0, 0, 0, 0, 0, 0, 0, 0
23, 0, End_track
24, 0, Start_track
24, 0, Sequencer_specific, 20, 74, 65, 90, 50, 1, 0, 0, 0, 0, 0, 0, 0, 0, 0, 0, 0, 0, 0, 0, 0
24, 0, End_track
25, 0, Start_track
25, 0, Sequencer_specific, 20, 74, 65, 90, 50, 1, 0, 0, 0, 0, 0, 0, 0, 0, 0, 0, 0, 0, 0, 0, 0
25, 0, End_track
26, 0, Start_track
26, 0, Sequencer_specific, 20, 74, 65, 90, 50, 1, 0, 0, 0, 0, 0, 0, 0, 0, 0, 0, 0, 0, 0, 0, 0
26, 0, End_track
27, 0, Start_track
27, 0, Sequencer_specific, 20, 74, 65, 90, 50, 1, 0, 0, 0, 0, 0, 0, 0, 0, 0, 0, 0, 0, 0, 0, 0
27, 0, End_track
28, 0, Start_track
28, 0, Sequencer_specific, 20, 74, 65, 90, 50, 1, 0, 0, 0, 0, 0, 0, 0, 0, 0, 0, 0, 0, 0, 0, 0
28, 0, End_track
29, 0, Start_track
29, 0, Sequencer_specific, 20, 74, 65, 90, 50, 1, 0, 0, 0, 0, 0, 0, 0, 0, 0, 0, 0, 0, 0, 0, 0
29, 0, End_track
30, 0, Start_track
30, 0, Sequencer_specific, 20, 74, 65, 90, 50, 1, 0, 0, 0, 0, 0, 0, 0, 0, 0, 0, 0, 0, 0, 0, 0
30, 0, End_track
31, 0, Start_track
31, 0, Sequencer_specific, 20, 74, 65, 90, 50, 1, 0, 0, 0, 0, 0, 0, 0, 0, 0, 0, 0, 0, 0, 0, 0
31, 0, End_track
32, 0, Start_track
32, 0, Sequencer_specific, 20, 74, 65, 90, 50, 1, 0, 0, 0, 0, 0, 0, 0, 0, 0, 0, 0, 0, 0, 0, 0
32, 0, End_track
33, 0, Start_track
33, 0, Sequencer_specific, 20, 74, 65, 90, 50, 1, 0, 0, 0, 0, 0, 0, 0, 0, 0, 0, 0, 0, 0, 0, 0
33, 0, End_track
34, 0, Start_track
34, 0, Sequencer_specific, 20, 74, 65, 90, 50, 1, 0, 0, 0, 0, 0, 0, 0, 0, 0, 0, 0, 0, 0, 0, 0
34, 0, End_track
35, 0, Start_track
35, 0, Sequencer_specific, 20, 74, 65, 90, 50, 1, 0, 0, 0, 0, 0, 0, 0, 0, 0, 0, 0, 0, 0, 0, 0
35, 0, End_track
36, 0, Start_track
36, 0, Sequencer_specific, 20, 74, 65, 90, 50, 1, 0, 0, 0, 0, 0, 0, 0, 0, 0, 0, 0, 0, 0, 0, 0
36, 0, End_track
37, 0, Start_track
37, 0, Sequencer_specific, 20, 74, 65, 90, 50, 1, 0, 0, 0, 0, 0, 0, 0, 0, 0, 0, 0, 0, 0, 0, 0
37, 0, End_track
38, 0, Start_track
38, 0, Sequencer_specific, 20, 74, 65, 90, 50, 1, 0, 0, 0, 0, 0, 0, 0, 0, 0, 0, 0, 0, 0, 0, 0
38, 0, End_track
39, 0, Start_track
39, 0, Sequencer_specific, 20, 74, 65, 90, 50, 1, 0, 0, 0, 0, 0, 0, 0, 0, 0, 0, 0, 0, 0, 0, 0
39, 0, End_track
40, 0, Start_track
40, 0, Sequencer_specific, 20, 74, 65, 90, 50, 1, 0, 0, 0, 0, 0, 0, 0, 0, 0, 0, 0, 0, 0, 0, 0
40, 0, End_track
41, 0, Start_track
41, 0, Sequencer_specific, 20, 74, 65, 90, 50, 1, 0, 0, 0, 0, 0, 0, 0, 0, 0, 0, 0, 0, 0, 0, 0
41, 0, End_track
42, 0, Start_track
42, 0, Sequencer_specific, 20, 74, 65, 90, 50, 1, 0, 0, 0, 0, 0, 0, 0, 0, 0, 0, 0, 0, 0, 0, 0
42, 0, End_track
43, 0, Start_track
43, 0, Sequencer_specific, 20, 74, 65, 90, 50, 1, 0, 0, 0, 0, 0, 0, 0, 0, 0, 0, 0, 0, 0, 0, 0
43, 0, End_track
44, 0, Start_track
44, 0, Sequencer_specific, 20, 74, 65, 90, 50, 1, 0, 0, 0, 0, 0, 0, 0, 0, 0, 0, 0, 0, 0, 0, 0
44, 0, End_track
45, 0, Start_track
45, 0, Sequencer_specific, 20, 74, 65, 90, 50, 1, 0, 0, 0, 0, 0, 0, 0, 0, 0, 0, 0, 0, 0, 0, 0
45, 0, End_track
46, 0, Start_track
46, 0, Sequencer_specific, 20, 74, 65, 90, 50, 1, 0, 0, 0, 0, 0, 0, 0, 0, 0, 0, 0, 0, 0, 0, 0
46, 0, End_track
47, 0, Start_track
47, 0, Sequencer_specific, 20, 74, 65, 90, 50, 1, 0, 0, 0, 0, 0, 0, 0, 0, 0, 0, 0, 0, 0, 0, 0
47, 0, End_track
48, 0, Start_track
48, 0, Sequencer_specific, 20, 74, 65, 90, 50, 1, 0, 0, 0, 0, 0, 0, 0, 0, 0, 0, 0, 0, 0, 0, 0
48, 0, End_track
49, 0, Start_track
49, 0, Sequencer_specific, 20, 74, 65, 90, 50, 1, 0, 0, 0, 0, 0, 0, 0, 0, 0, 0, 0, 0, 0, 0, 0
49, 0, End_track
50, 0, Start_track
50, 0, Sequencer_specific, 20, 74, 65, 90, 50, 1, 0, 0, 0, 0, 0, 0, 0, 0, 0, 0, 0, 0, 0, 0, 0
50, 0, End_track
51, 0, Start_track
51, 0, Sequencer_specific, 20, 74, 65, 90, 50, 1, 0, 0, 0, 0, 0, 0, 0, 0, 0, 0, 0, 0, 0, 0, 0
51, 0, End_track
52, 0, Start_track
52, 0, Sequencer_specific, 20, 74, 65, 90, 50, 1, 0, 0, 0, 0, 0, 0, 0, 0, 0, 0, 0, 0, 0, 0, 0
52, 0, End_track
53, 0, Start_track
53, 0, Sequencer_specific, 20, 74, 65, 90, 50, 1, 0, 0, 0, 0, 0, 0, 0, 0, 0, 0, 0, 0, 0, 0, 0
53, 0, End_track
54, 0, Start_track
54, 0, Sequencer_specific, 20, 74, 65, 90, 50, 1, 0, 0, 0, 0, 0, 0, 0, 0, 0, 0, 0, 0, 0, 0, 0
54, 0, End_track
55, 0, Start_track
55, 0, Sequencer_specific, 20, 74, 65, 90, 50, 1, 0, 0, 0, 0, 0, 0, 0, 0, 0, 0, 0, 0, 0, 0, 0
55, 0, End_track
56, 0, Start_track
56, 0, Sequencer_specific, 20, 74, 65, 90, 50, 1, 0, 0, 0, 0, 0, 0, 0, 0, 0, 0, 0, 0, 0, 0, 0
56, 0, End_track
57, 0, Start_track
57, 0, Sequencer_specific, 20, 74, 65, 90, 50, 1, 0, 0, 0, 0, 0, 0, 0, 0, 0, 0, 0, 0, 0, 0, 0
57, 0, End_track
58, 0, Start_track
58, 0, Sequencer_specific, 20, 74, 65, 90, 50, 1, 0, 0, 0, 0, 0, 0, 0, 0, 0, 0, 0, 0, 0, 0, 0
58, 0, End_track
59, 0, Start_track
59, 0, Sequencer_specific, 20, 74, 65, 90, 50, 1, 0, 0, 0, 0, 0, 0, 0, 0, 0, 0, 0, 0, 0, 0, 0
59, 0, End_track
60, 0, Start_track
60, 0, Sequencer_specific, 20, 74, 65, 90, 50, 1, 0, 0, 0, 0, 0, 0, 0, 0, 0, 0, 0, 0, 0, 0, 0
60, 0, End_track
61, 0, Start_track
61, 0, Sequencer_specific, 20, 74, 65, 90, 50, 1, 0, 0, 0, 0, 0, 0, 0, 0, 0, 0, 0, 0, 0, 0, 0
61, 0, End_track
62, 0, Start_track
62, 0, Sequencer_specific, 20, 74, 65, 90, 50, 1, 0, 0, 0, 0, 0, 0, 0, 0, 0, 0, 0, 0, 0, 0, 0
62, 0, End_track
63, 0, Start_track
63, 0, Sequencer_specific, 20, 74, 65, 90, 50, 1, 0, 0, 0, 0, 0, 0, 0, 0, 0, 0, 0, 0, 0, 0, 0
63, 0, End_track
64, 0, Start_track
64, 0, Sequencer_specific, 20, 74, 65, 90, 50, 1, 0, 0, 0, 0, 0, 0, 0, 0, 0, 0, 0, 0, 0, 0, 0
64, 0, End_track
65, 0, Start_track
65, 0, Sequencer_specific, 20, 74, 65, 90, 50, 1, 0, 0, 0, 0, 0, 0, 0, 0, 0, 0, 0, 0, 0, 0, 0
65, 0, End_track
66, 0, Start_track
66, 0, Sequencer_specific, 20, 74, 65, 90, 50, 1, 0, 0, 0, 0, 0, 0, 0, 0, 0, 0, 0, 0, 0, 0, 0
66, 0, End_track
67, 0, Start_track
67, 0, Sequencer_specific, 20, 74, 65, 90, 50, 1, 0, 0, 0, 0, 0, 0, 0, 0, 0, 0, 0, 0, 0, 0, 0
67, 0, End_track
68, 0, Start_track
68, 0, Sequencer_specific, 20, 74, 65, 90, 50, 1, 0, 0, 0, 0, 0, 0, 0, 0, 0, 0, 0, 0, 0, 0, 0
68, 0, End_track
69, 0, Start_track
69, 0, Sequencer_specific, 20, 74, 65, 90, 50, 1, 0, 0, 0, 0, 0, 0, 0, 0, 0, 0, 0, 0, 0, 0, 0
69, 0, End_track
70, 0, Start_track
70, 0, Sequencer_specific, 20, 74, 65, 90, 50, 1, 0, 0, 0, 0, 0, 0, 0, 0, 0, 0, 0, 0, 0, 0, 0
70, 0, End_track
71, 0, Start_track
71, 0, Sequencer_specific, 20, 74, 65, 90, 50, 1, 0, 0, 0, 0, 0, 0, 0, 0, 0, 0, 0, 0, 0, 0, 0
71, 0, End_track
72, 0, Start_track
72, 0, Sequencer_specific, 20, 74, 65, 90, 50, 1, 0, 0, 0, 0, 0, 0, 0, 0, 0, 0, 0, 0, 0, 0, 0
72, 0, End_track
73, 0, Start_track
73, 0, Sequencer_specific, 20, 74, 65, 90, 50, 1, 0, 0, 0, 0, 0, 0, 0, 0, 0, 0, 0, 0, 0, 0, 0
73, 0, End_track
74, 0, Start_track
74, 0, Sequencer_specific, 20, 74, 65, 90, 50, 1, 0, 0, 0, 0, 0, 0, 0, 0, 0, 0, 0, 0, 0, 0, 0
74, 0, End_track
75, 0, Start_track
75, 0, Sequencer_specific, 20, 74, 65, 90, 50, 1, 0, 0, 0, 0, 0, 0, 0, 0, 0, 0, 0, 0, 0, 0, 0
75, 0, End_track
76, 0, Start_track
76, 0, Sequencer_specific, 20, 74, 65, 90, 50, 1, 0, 0, 0, 0, 0, 0, 0, 0, 0, 0, 0, 0, 0, 0, 0
76, 0, End_track
77, 0, Start_track
77, 0, Sequencer_specific, 20, 74, 65, 90, 50, 1, 0, 0, 0, 0, 0, 0, 0, 0, 0, 0, 0, 0, 0, 0, 0
77, 0, End_track
78, 0, Start_track
78, 0, Sequencer_specific, 20, 74, 65, 90, 50, 1, 0, 0, 0, 0, 0, 0, 0, 0, 0, 0, 0, 0, 0, 0, 0
78, 0, End_track
79, 0, Start_track
79, 0, Sequencer_specific, 20, 74, 65, 90, 50, 1, 0, 0, 0, 0, 0, 0, 0, 0, 0, 0, 0, 0, 0, 0, 0
79, 0, End_track
80, 0, Start_track
80, 0, Sequencer_specific, 20, 74, 65, 90, 50, 1, 0, 0, 0, 0, 0, 0, 0, 0, 0, 0, 0, 0, 0, 0, 0
80, 0, End_track
81, 0, Start_track
81, 0, Sequencer_specific, 20, 74, 65, 90, 50, 1, 0, 0, 0, 0, 0, 0, 0, 0, 0, 0, 0, 0, 0, 0, 0
81, 0, End_track
82, 0, Start_track
82, 0, Sequencer_specific, 20, 74, 65, 90, 50, 1, 0, 0, 0, 0, 0, 0, 0, 0, 0, 0, 0, 0, 0, 0, 0
82, 0, End_track
83, 0, Start_track
83, 0, Sequencer_specific, 20, 74, 65, 90, 50, 1, 0, 0, 0, 0, 0, 0, 0, 0, 0, 0, 0, 0, 0, 0, 0
83, 0, End_track
84, 0, Start_track
84, 0, Sequencer_specific, 20, 74, 65, 90, 50, 1, 0, 0, 0, 0, 0, 0, 0, 0, 0, 0, 0, 0, 0, 0, 0
84, 0, End_track
85, 0, Start_track
85, 0, Sequencer_specific, 20, 74, 65, 90, 50, 1, 0, 0, 0, 0, 0, 0, 0, 0, 0, 0, 0, 0, 0, 0, 0
85, 0, End_track
86, 0, Start_track
86, 0, Sequencer_specific, 20, 74, 65, 90, 50, 1, 0, 0, 0, 0, 0, 0, 0, 0, 0, 0, 0, 0, 0, 0, 0
86, 0, End_track
87, 0, Start_track
87, 0, Sequencer_specific, 20, 74, 65, 90, 50, 1, 0, 0, 0, 0, 0, 0, 0, 0, 0, 0, 0, 0, 0, 0, 0
87, 0, End_track
88, 0, Start_track
88, 0, Sequencer_specific, 20, 74, 65, 90, 50, 1, 0, 0, 0, 0, 0, 0, 0, 0, 0, 0, 0, 0, 0, 0, 0
88, 0, End_track
89, 0, Start_track
89, 0, Sequencer_specific, 20, 74, 65, 90, 50, 1, 0, 0, 0, 0, 0, 0, 0, 0, 0, 0, 0, 0, 0, 0, 0
89, 0, End_track
90, 0, Start_track
90, 0, Sequencer_specific, 20, 74, 65, 90, 50, 1, 0, 0, 0, 0, 0, 0, 0, 0, 0, 0, 0, 0, 0, 0, 0
90, 0, End_track
91, 0, Start_track
91, 0, Sequencer_specific, 20, 74, 65, 90, 50, 1, 0, 0, 0, 0, 0, 0, 0, 0, 0, 0, 0, 0, 0, 0, 0
91, 0, End_track
92, 0, Start_track
92, 0, Sequencer_specific, 20, 74, 65, 90, 50, 1, 0, 0, 0, 0, 0, 0, 0, 0, 0, 0, 0, 0, 0, 0, 0
92, 0, End_track
93, 0, Start_track
93, 0, Sequencer_specific, 20, 74, 65, 90, 50, 1, 0, 0, 0, 0, 0, 0, 0, 0, 0, 0, 0, 0, 0, 0, 0
93, 0, End_track
94, 0, Start_track
94, 0, Sequencer_specific, 20, 74, 65, 90, 50, 1, 0, 0, 0, 0, 0, 0, 0, 0, 0, 0, 0, 0, 0, 0, 0
94, 0, End_track
95, 0, Start_track
95, 0, Sequencer_specific, 20, 74, 65, 90, 50, 1, 0, 0, 0, 0, 0, 0, 0, 0, 0, 0, 0, 0, 0, 0, 0
95, 0, End_track
96, 0, Start_track
96, 0, Sequencer_specific, 20, 74, 65, 90, 50, 1, 0, 0, 0, 0, 0, 0, 0, 0, 0, 0, 0, 0, 0, 0, 0
96, 0, End_track
97, 0, Start_track
97, 0, Sequencer_specific, 20, 74, 65, 90, 50, 1, 0, 0, 0, 0, 0, 0, 0, 0, 0, 0, 0, 0, 0, 0, 0
97, 0, End_track
98, 0, Start_track
98, 0, Sequencer_specific, 20, 74, 65, 90, 50, 1, 0, 0, 0, 0, 0, 0, 0, 0, 0, 0, 0, 0, 0, 0, 0
98, 0, End_track
99, 0, Start_track
99, 0, Sequencer_specific, 20, 74, 65, 90, 50, 1, 0, 0, 0, 0, 0, 0, 0, 0, 0, 0, 0, 0, 0, 0, 0
99, 0, End_track
100, 0, Start_track
100, 0, Sequencer_specific, 20, 74, 65, 90, 50, 1, 0, 0, 0, 0, 0, 0, 0, 0, 0, 0, 0, 0, 0, 0, 0
100, 0, End_track
101, 0, Start_track
101, 0, Sequencer_specific, 20, 74, 65, 90, 50, 1, 0, 0, 0, 0, 0, 0, 0, 0, 0, 0, 0, 0, 0, 0, 0
101, 0, End_track
102, 0, Start_track
102, 0, Sequencer_specific, 20, 74, 65, 90, 50, 1, 0, 0, 0, 0, 0, 0, 0, 0, 0, 0, 0, 0, 0, 0, 0
102, 0, End_track
103, 0, Start_track
103, 0, Sequencer_specific, 20, 74, 65, 90, 50, 1, 0, 0, 0, 0, 0, 0, 0, 0, 0, 0, 0, 0, 0, 0, 0
103, 0, End_track
104, 0, Start_track
104, 0, Sequencer_specific, 20, 74, 65, 90, 50, 1, 0, 0, 0, 0, 0, 0, 0, 0, 0, 0, 0, 0, 0, 0, 0
104, 0, End_track
105, 0, Start_track
105, 0, Sequencer_specific, 20, 74, 65, 90, 50, 1, 0, 0, 0, 0, 0, 0, 0, 0, 0, 0, 0, 0, 0, 0, 0
105, 0, End_track
106, 0, Start_track
106, 0, Sequencer_specific, 20, 74, 65, 90, 50, 1, 0, 0, 0, 0, 0, 0, 0, 0, 0, 0, 0, 0, 0, 0, 0
106, 0, End_track
107, 0, Start_track
107, 0, Sequencer_specific, 20, 74, 65, 90, 50, 1, 0, 0, 0, 0, 0, 0, 0, 0, 0, 0, 0, 0, 0, 0, 0
107, 0, End_track
108, 0, Start_track
108, 0, Sequencer_specific, 20, 74, 65, 90, 50, 1, 0, 0, 0, 0, 0, 0, 0, 0, 0, 0, 0, 0, 0, 0, 0
108, 0, End_track
109, 0, Start_track
109, 0, Sequencer_specific, 20, 74, 65, 90, 50, 1, 0, 0, 0, 0, 0, 0, 0, 0, 0, 0, 0, 0, 0, 0, 0
109, 0, End_track
110, 0, Start_track
110, 0, Sequencer_specific, 20, 74, 65, 90, 50, 1, 0, 0, 0, 0, 0, 0, 0, 0, 0, 0, 0, 0, 0, 0, 0
110, 0, End_track
111, 0, Start_track
111, 0, Sequencer_specific, 20, 74, 65, 90, 50, 1, 0, 0, 0, 0, 0, 0, 0, 0, 0, 0, 0, 0, 0, 0, 0
111, 0, End_track
112, 0, Start_track
112, 0, Sequencer_specific, 20, 74, 65, 90, 50, 1, 0, 0, 0, 0, 0, 0, 0, 0, 0, 0, 0, 0, 0, 0, 0
112, 0, End_track
113, 0, Start_track
113, 0, Sequencer_specific, 20, 74, 65, 90, 50, 1, 0, 0, 0, 0, 0, 0, 0, 0, 0, 0, 0, 0, 0, 0, 0
113, 0, End_track
114, 0, Start_track
114, 0, Sequencer_specific, 20, 74, 65, 90, 50, 1, 0, 0, 0, 0, 0, 0, 0, 0, 0, 0, 0, 0, 0, 0, 0
114, 0, End_track
115, 0, Start_track
115, 0, Sequencer_specific, 20, 74, 65, 90, 50, 1, 0, 0, 0, 0, 0, 0, 0, 0, 0, 0, 0, 0, 0, 0, 0
115, 0, End_track
116, 0, Start_track
116, 0, Sequencer_specific, 20, 74, 65, 90, 50, 1, 0, 0, 0, 0, 0, 0, 0, 0, 0, 0, 0, 0, 0, 0, 0
116, 0, End_track
117, 0, Start_track
117, 0, Sequencer_specific, 20, 74, 65, 90, 50, 1, 0, 0, 0, 0, 0, 0, 0, 0, 0, 0, 0, 0, 0, 0, 0
117, 0, End_track
118, 0, Start_track
118, 0, Sequencer_specific, 20, 74, 65, 90, 50, 1, 0, 0, 0, 0, 0, 0, 0, 0, 0, 0, 0, 0, 0, 0, 0
118, 0, End_track
119, 0, Start_track
119, 0, Sequencer_specific, 20, 74, 65, 90, 50, 1, 0, 0, 0, 0, 0, 0, 0, 0, 0, 0, 0, 0, 0, 0, 0
119, 0, End_track
120, 0, Start_track
120, 0, Sequencer_specific, 20, 74, 65, 90, 50, 1, 0, 0, 0, 0, 0, 0, 0, 0, 0, 0, 0, 0, 0, 0, 0
120, 0, End_track
121, 0, Start_track
121, 0, Sequencer_specific, 20, 74, 65, 90, 50, 1, 0, 0, 0, 0, 0, 0, 0, 0, 0, 0, 0, 0, 0, 0, 0
121, 0, End_track
122, 0, Start_track
122, 0, Sequencer_specific, 20, 74, 65, 90, 50, 1, 0, 0, 0, 0, 0, 0, 0, 0, 0, 0, 0, 0, 0, 0, 0
122, 0, End_track
123, 0, Start_track
123, 0, Sequencer_specific, 20, 74, 65, 90, 50, 1, 0, 0, 0, 0, 0, 0, 0, 0, 0, 0, 0, 0, 0, 0, 0
123, 0, End_track
124, 0, Start_track
124, 0, Sequencer_specific, 20, 74, 65, 90, 50, 1, 0, 0, 0, 0, 0, 0, 0, 0, 0, 0, 0, 0, 0, 0, 0
124, 0, End_track
125, 0, Start_track
125, 0, Sequencer_specific, 20, 74, 65, 90, 50, 1, 0, 0, 0, 0, 0, 0, 0, 0, 0, 0, 0, 0, 0, 0, 0
125, 0, End_track
126, 0, Start_track
126, 0, Control_c, 0, 0, 0
126, 0, Sequencer_specific, 20, 74, 65, 90, 50, 1, 0, 0, 0, 0, 0, 0, 0, 0, 0, 0, 0, 0, 0, 0, 0
126, 0, Title_t, "MidiMart.net"
126, 0, End_track
0, 0, End_of_file
