0, 0, Header, 0, 1, 192
1, 0, Start_track
1, 0, Title_t, "untitled"
1, 0, Time_signature, 4, 2, 24, 8
1, 0, Key_signature, 0, "major"
1, 0, Tempo, 600000
1, 0, Program_c, 1, 37
1, 0, Control_c, 1, 7, 127
1, 0, Control_c, 1, 10, 64
1, 0, Control_c, 1, 91, 15
1, 0, Program_c, 2, 87
1, 0, Control_c, 2, 7, 101
1, 0, Control_c, 2, 10, 64
1, 0, Control_c, 2, 91, 16
1, 0, Note_on_c, 2, 73, 64
1, 0, Note_on_c, 2, 71, 64
1, 0, Note_on_c, 2, 64, 64
1, 0, Program_c, 3, 72
1, 0, Control_c, 3, 7, 127
1, 0, Control_c, 3, 10, 64
1, 0, Control_c, 3, 91, 14
1, 0, Control_c, 4, 0, 56
1, 0, Control_c, 4, 32, 0
1, 0, Program_c, 4, 83
1, 0, Control_c, 4, 7, 90
1, 0, Control_c, 4, 10, 64
1, 0, Control_c, 4, 91, 13
1, 0, Program_c, 5, 29
1, 0, Control_c, 5, 7, 104
1, 0, Control_c, 5, 10, 64
1, 0, Control_c, 5, 91, 127
1, 0, Program_c, 6, 28
1, 0, Control_c, 6, 7, 127
1, 0, Control_c, 6, 10, 64
1, 0, Control_c, 6, 91, 15
1, 0, Control_c, 3, 7, 127
1, 0, Control_c, 3, 10, 64
1, 0, Control_c, 3, 91, 21
1, 0, Control_c, 9, 7, 127
1, 0, Control_c, 9, 10, 64
1, 0, Control_c, 9, 91, 7
1, 0, Note_on_c, 9, 36, 127
1, 0, Program_c, 9, 0
1, 0, Control_c, 9, 7, 127
1, 0, Control_c, 9, 10, 64
1, 0, Control_c, 9, 91, 0
1, 0, Control_c, 9, 7, 127
1, 0, Control_c, 9, 10, 64
1, 0, Control_c, 9, 91, 0
1, 0, Control_c, 9, 7, 127
1, 0, Control_c, 9, 10, 64
1, 0, Control_c, 9, 91, 0
1, 0, Control_c, 9, 7, 127
1, 0, Control_c, 9, 10, 64
1, 0, Control_c, 9, 91, 0
1, 0, Control_c, 9, 7, 127
1, 0, Control_c, 9, 10, 64
1, 0, Control_c, 9, 91, 0
1, 0, Control_c, 0, 7, 127
1, 0, Control_c, 0, 10, 64
1, 0, Control_c, 0, 91, 0
1, 0, Control_c, 0, 7, 127
1, 0, Control_c, 0, 10, 64
1, 0, Control_c, 0, 91, 0
1, 0, Control_c, 0, 7, 127
1, 0, Control_c, 0, 10, 64
1, 0, Control_c, 0, 91, 0
1, 0, Control_c, 0, 7, 127
1, 0, Control_c, 0, 10, 64
1, 40, Note_on_c, 2, 64, 0
1, 40, Note_on_c, 2, 73, 0
1, 40, Note_on_c, 2, 71, 0
1, 48, Note_on_c, 9, 36, 0
1, 48, Note_on_c, 2, 71, 64
1, 48, Note_on_c, 2, 69, 64
1, 48, Note_on_c, 2, 64, 64
1, 88, Note_on_c, 2, 64, 0
1, 88, Note_on_c, 2, 69, 0
1, 88, Note_on_c, 2, 71, 0
1, 96, Note_on_c, 2, 71, 64
1, 96, Note_on_c, 2, 69, 64
1, 96, Note_on_c, 2, 64, 64
1, 136, Note_on_c, 2, 64, 0
1, 136, Note_on_c, 2, 69, 0
1, 136, Note_on_c, 2, 71, 0
1, 192, Note_on_c, 2, 71, 64
1, 192, Note_on_c, 2, 69, 64
1, 192, Note_on_c, 2, 64, 64
1, 232, Note_on_c, 2, 64, 0
1, 232, Note_on_c, 2, 69, 0
1, 232, Note_on_c, 2, 71, 0
1, 288, Note_on_c, 2, 71, 64
1, 288, Note_on_c, 2, 69, 64
1, 288, Note_on_c, 2, 64, 64
1, 328, Note_on_c, 2, 64, 0
1, 328, Note_on_c, 2, 69, 0
1, 328, Note_on_c, 2, 71, 0
1, 384, Note_on_c, 2, 71, 64
1, 384, Note_on_c, 2, 68, 64
1, 384, Note_on_c, 2, 64, 64
1, 384, Note_on_c, 9, 36, 127
1, 424, Note_on_c, 2, 64, 0
1, 424, Note_on_c, 2, 71, 0
1, 424, Note_on_c, 2, 68, 0
1, 432, Note_on_c, 9, 36, 0
1, 480, Note_on_c, 2, 71, 64
1, 480, Note_on_c, 2, 68, 64
1, 480, Note_on_c, 2, 64, 64
1, 520, Note_on_c, 2, 64, 0
1, 520, Note_on_c, 2, 68, 0
1, 520, Note_on_c, 2, 71, 0
1, 576, Note_on_c, 2, 71, 64
1, 576, Note_on_c, 2, 68, 64
1, 576, Note_on_c, 2, 64, 64
1, 616, Note_on_c, 2, 64, 0
1, 616, Note_on_c, 2, 68, 0
1, 616, Note_on_c, 2, 71, 0
1, 672, Note_on_c, 2, 71, 64
1, 672, Note_on_c, 2, 68, 64
1, 672, Note_on_c, 2, 64, 64
1, 712, Note_on_c, 2, 64, 0
1, 712, Note_on_c, 2, 68, 0
1, 712, Note_on_c, 2, 71, 0
1, 768, Note_on_c, 2, 71, 64
1, 768, Note_on_c, 2, 66, 64
1, 768, Note_on_c, 2, 63, 64
1, 768, Note_on_c, 9, 36, 127
1, 808, Note_on_c, 2, 63, 0
1, 808, Note_on_c, 2, 71, 0
1, 808, Note_on_c, 2, 66, 0
1, 816, Note_on_c, 9, 36, 0
1, 864, Note_on_c, 2, 71, 64
1, 864, Note_on_c, 2, 66, 64
1, 864, Note_on_c, 2, 63, 64
1, 904, Note_on_c, 2, 63, 0
1, 904, Note_on_c, 2, 66, 0
1, 904, Note_on_c, 2, 71, 0
1, 960, Note_on_c, 2, 71, 64
1, 960, Note_on_c, 2, 66, 64
1, 960, Note_on_c, 2, 63, 64
1, 1000, Note_on_c, 2, 63, 0
1, 1000, Note_on_c, 2, 66, 0
1, 1000, Note_on_c, 2, 71, 0
1, 1008, Note_on_c, 1, 35, 127
1, 1008, Note_on_c, 4, 71, 127
1, 1040, Note_on_c, 4, 71, 0
1, 1040, Note_on_c, 1, 35, 0
1, 1056, Note_on_c, 1, 37, 127
1, 1056, Note_on_c, 2, 71, 64
1, 1056, Note_on_c, 2, 66, 64
1, 1056, Note_on_c, 2, 63, 64
1, 1056, Note_on_c, 4, 73, 127
1, 1080, Note_on_c, 4, 73, 0
1, 1088, Note_on_c, 1, 37, 0
1, 1096, Note_on_c, 2, 71, 0
1, 1096, Note_on_c, 2, 66, 0
1, 1096, Note_on_c, 2, 63, 0
1, 1104, Note_on_c, 1, 40, 127
1, 1104, Note_on_c, 4, 76, 127
1, 1152, Note_on_c, 2, 71, 64
1, 1152, Note_on_c, 2, 66, 64
1, 1152, Note_on_c, 2, 63, 64
1, 1152, Note_on_c, 9, 36, 127
1, 1192, Note_on_c, 2, 63, 0
1, 1192, Note_on_c, 2, 66, 0
1, 1192, Note_on_c, 2, 71, 0
1, 1200, Note_on_c, 1, 40, 0
1, 1200, Note_on_c, 9, 36, 0
1, 1200, Note_on_c, 4, 76, 0
1, 1200, Note_on_c, 1, 35, 127
1, 1200, Note_on_c, 4, 71, 127
1, 1232, Note_on_c, 4, 71, 0
1, 1232, Note_on_c, 1, 35, 0
1, 1248, Note_on_c, 1, 37, 127
1, 1248, Note_on_c, 2, 71, 64
1, 1248, Note_on_c, 2, 66, 64
1, 1248, Note_on_c, 2, 63, 64
1, 1248, Note_on_c, 4, 73, 127
1, 1280, Note_on_c, 4, 73, 0
1, 1280, Note_on_c, 1, 37, 0
1, 1288, Note_on_c, 2, 71, 0
1, 1288, Note_on_c, 2, 66, 0
1, 1288, Note_on_c, 2, 63, 0
1, 1296, Note_on_c, 1, 42, 127
1, 1296, Note_on_c, 4, 78, 127
1, 1344, Note_on_c, 2, 71, 64
1, 1344, Note_on_c, 2, 66, 64
1, 1344, Note_on_c, 2, 63, 64
1, 1360, Note_on_c, 4, 78, 0
1, 1384, Note_on_c, 2, 66, 0
1, 1384, Note_on_c, 2, 63, 0
1, 1384, Note_on_c, 2, 71, 0
1, 1392, Note_on_c, 1, 42, 0
1, 1392, Note_on_c, 1, 37, 127
1, 1392, Note_on_c, 4, 73, 127
1, 1416, Note_on_c, 4, 73, 0
1, 1424, Note_on_c, 1, 37, 0
1, 1440, Note_on_c, 1, 40, 127
1, 1440, Note_on_c, 2, 71, 64
1, 1440, Note_on_c, 2, 66, 64
1, 1440, Note_on_c, 2, 63, 64
1, 1440, Note_on_c, 4, 76, 127
1, 1472, Note_on_c, 4, 76, 0
1, 1472, Note_on_c, 1, 40, 0
1, 1480, Note_on_c, 2, 71, 0
1, 1480, Note_on_c, 2, 66, 0
1, 1480, Note_on_c, 2, 63, 0
1, 1488, Note_on_c, 1, 40, 127
1, 1488, Note_on_c, 4, 76, 127
1, 1520, Note_on_c, 4, 76, 0
1, 1520, Note_on_c, 1, 40, 0
1, 1536, Note_on_c, 2, 73, 64
1, 1536, Note_on_c, 2, 71, 64
1, 1536, Note_on_c, 2, 64, 64
1, 1536, Note_on_c, 9, 36, 127
1, 1576, Note_on_c, 2, 64, 0
1, 1576, Note_on_c, 2, 73, 0
1, 1576, Note_on_c, 2, 71, 0
1, 1584, Note_on_c, 9, 36, 0
1, 1584, Note_on_c, 2, 71, 64
1, 1584, Note_on_c, 2, 69, 64
1, 1584, Note_on_c, 2, 64, 64
1, 1624, Note_on_c, 2, 64, 0
1, 1624, Note_on_c, 2, 69, 0
1, 1624, Note_on_c, 2, 71, 0
1, 1632, Note_on_c, 2, 71, 64
1, 1632, Note_on_c, 2, 69, 64
1, 1632, Note_on_c, 2, 64, 64
1, 1672, Note_on_c, 2, 64, 0
1, 1672, Note_on_c, 2, 69, 0
1, 1672, Note_on_c, 2, 71, 0
1, 1720, Note_on_c, 5, 78, 127
1, 1728, Note_on_c, 2, 71, 64
1, 1728, Note_on_c, 2, 69, 64
1, 1728, Note_on_c, 2, 64, 64
1, 1768, Note_on_c, 2, 64, 0
1, 1768, Note_on_c, 2, 69, 0
1, 1768, Note_on_c, 2, 71, 0
1, 1824, Note_on_c, 2, 71, 64
1, 1824, Note_on_c, 2, 69, 64
1, 1824, Note_on_c, 2, 64, 64
1, 1864, Note_on_c, 2, 64, 0
1, 1864, Note_on_c, 2, 69, 0
1, 1864, Note_on_c, 2, 71, 0
1, 1920, Note_on_c, 2, 71, 64
1, 1920, Note_on_c, 2, 68, 64
1, 1920, Note_on_c, 2, 64, 64
1, 1920, Note_on_c, 9, 36, 127
1, 1960, Note_on_c, 2, 64, 0
1, 1960, Note_on_c, 2, 68, 0
1, 1960, Note_on_c, 2, 71, 0
1, 1968, Note_on_c, 9, 36, 0
1, 2016, Note_on_c, 2, 71, 64
1, 2016, Note_on_c, 2, 68, 64
1, 2016, Note_on_c, 2, 64, 64
1, 2056, Note_on_c, 2, 64, 0
1, 2056, Note_on_c, 2, 68, 0
1, 2056, Note_on_c, 2, 71, 0
1, 2112, Note_on_c, 2, 71, 64
1, 2112, Note_on_c, 2, 68, 64
1, 2112, Note_on_c, 2, 64, 64
1, 2152, Note_on_c, 2, 64, 0
1, 2152, Note_on_c, 2, 68, 0
1, 2152, Note_on_c, 2, 71, 0
1, 2208, Note_on_c, 2, 71, 64
1, 2208, Note_on_c, 2, 68, 64
1, 2208, Note_on_c, 2, 64, 64
1, 2248, Note_on_c, 2, 64, 0
1, 2248, Note_on_c, 2, 68, 0
1, 2248, Note_on_c, 2, 71, 0
1, 2304, Note_on_c, 2, 71, 64
1, 2304, Note_on_c, 2, 66, 64
1, 2304, Note_on_c, 2, 63, 64
1, 2304, Note_on_c, 9, 36, 127
1, 2344, Note_on_c, 2, 63, 0
1, 2344, Note_on_c, 2, 66, 0
1, 2344, Note_on_c, 2, 71, 0
1, 2352, Note_on_c, 9, 36, 0
1, 2400, Note_on_c, 2, 71, 64
1, 2400, Note_on_c, 2, 66, 64
1, 2400, Note_on_c, 2, 63, 64
1, 2440, Note_on_c, 2, 63, 0
1, 2440, Note_on_c, 2, 66, 0
1, 2440, Note_on_c, 2, 71, 0
1, 2496, Note_on_c, 2, 71, 64
1, 2496, Note_on_c, 2, 66, 64
1, 2496, Note_on_c, 2, 63, 64
1, 2536, Note_on_c, 2, 63, 0
1, 2536, Note_on_c, 2, 66, 0
1, 2536, Note_on_c, 2, 71, 0
1, 2544, Note_on_c, 1, 35, 127
1, 2544, Note_on_c, 4, 71, 127
1, 2576, Note_on_c, 4, 71, 0
1, 2576, Note_on_c, 1, 35, 0
1, 2592, Note_on_c, 1, 37, 127
1, 2592, Note_on_c, 2, 71, 64
1, 2592, Note_on_c, 2, 66, 64
1, 2592, Note_on_c, 2, 63, 64
1, 2592, Note_on_c, 4, 73, 127
1, 2624, Note_on_c, 1, 37, 0
1, 2632, Note_on_c, 2, 71, 0
1, 2632, Note_on_c, 2, 66, 0
1, 2632, Note_on_c, 2, 63, 0
1, 2632, Note_on_c, 4, 73, 0
1, 2640, Note_on_c, 1, 40, 127
1, 2640, Note_on_c, 4, 76, 127
1, 2688, Note_on_c, 2, 71, 64
1, 2688, Note_on_c, 2, 66, 64
1, 2688, Note_on_c, 2, 63, 64
1, 2688, Note_on_c, 9, 36, 127
1, 2728, Note_on_c, 2, 63, 0
1, 2728, Note_on_c, 2, 71, 0
1, 2728, Note_on_c, 2, 66, 0
1, 2736, Note_on_c, 1, 40, 0
1, 2736, Note_on_c, 9, 36, 0
1, 2736, Note_on_c, 1, 35, 127
1, 2736, Note_on_c, 4, 71, 127
1, 2744, Note_on_c, 4, 76, 0
1, 2768, Note_on_c, 1, 35, 0
1, 2776, Note_on_c, 4, 71, 0
1, 2784, Note_on_c, 1, 37, 127
1, 2784, Note_on_c, 2, 71, 64
1, 2784, Note_on_c, 2, 66, 64
1, 2784, Note_on_c, 2, 63, 64
1, 2784, Note_on_c, 4, 73, 127
1, 2816, Note_on_c, 4, 73, 0
1, 2816, Note_on_c, 1, 37, 0
1, 2824, Note_on_c, 2, 66, 0
1, 2824, Note_on_c, 2, 63, 0
1, 2824, Note_on_c, 2, 71, 0
1, 2832, Note_on_c, 1, 42, 127
1, 2832, Note_on_c, 4, 78, 127
1, 2880, Note_on_c, 2, 71, 64
1, 2880, Note_on_c, 2, 66, 64
1, 2880, Note_on_c, 2, 63, 64
1, 2904, Note_on_c, 4, 78, 0
1, 2904, Note_on_c, 5, 78, 0
1, 2920, Note_on_c, 2, 71, 0
1, 2920, Note_on_c, 2, 66, 0
1, 2920, Note_on_c, 2, 63, 0
1, 2928, Note_on_c, 1, 42, 0
1, 2928, Note_on_c, 1, 37, 127
1, 2928, Note_on_c, 4, 73, 127
1, 2944, Note_on_c, 4, 73, 0
1, 2960, Note_on_c, 1, 37, 0
1, 2976, Note_on_c, 1, 40, 127
1, 2976, Note_on_c, 2, 71, 64
1, 2976, Note_on_c, 2, 66, 64
1, 2976, Note_on_c, 2, 63, 64
1, 2976, Note_on_c, 4, 76, 127
1, 2976, Note_on_c, 9, 38, 127
1, 3000, Note_on_c, 4, 76, 0
1, 3008, Note_on_c, 1, 40, 0
1, 3016, Note_on_c, 2, 63, 0
1, 3016, Note_on_c, 2, 71, 0
1, 3016, Note_on_c, 2, 66, 0
1, 3024, Note_on_c, 9, 38, 0
1, 3024, Note_on_c, 1, 40, 127
1, 3024, Note_on_c, 4, 76, 127
1, 3024, Note_on_c, 9, 38, 127
1, 3056, Note_on_c, 4, 76, 0
1, 3056, Note_on_c, 1, 40, 0
1, 3072, Note_on_c, 9, 38, 0
1, 3072, Note_on_c, 2, 73, 64
1, 3072, Note_on_c, 2, 71, 64
1, 3072, Note_on_c, 2, 64, 64
1, 3072, Note_on_c, 9, 36, 127
1, 3072, Note_on_c, 9, 42, 90
1, 3104, Note_on_c, 5, 83, 127
1, 3112, Note_on_c, 2, 64, 0
1, 3112, Note_on_c, 2, 73, 0
1, 3112, Note_on_c, 2, 71, 0
1, 3120, Note_on_c, 9, 36, 0
1, 3120, Note_on_c, 9, 42, 0
1, 3120, Note_on_c, 2, 71, 64
1, 3120, Note_on_c, 2, 69, 64
1, 3120, Note_on_c, 2, 64, 64
1, 3160, Note_on_c, 2, 64, 0
1, 3160, Note_on_c, 2, 69, 0
1, 3160, Note_on_c, 2, 71, 0
1, 3168, Note_on_c, 2, 71, 64
1, 3168, Note_on_c, 2, 69, 64
1, 3168, Note_on_c, 2, 64, 64
1, 3168, Note_on_c, 9, 42, 90
1, 3208, Note_on_c, 2, 64, 0
1, 3208, Note_on_c, 2, 69, 0
1, 3208, Note_on_c, 2, 71, 0
1, 3216, Note_on_c, 9, 42, 0
1, 3264, Note_on_c, 2, 71, 64
1, 3264, Note_on_c, 2, 69, 64
1, 3264, Note_on_c, 2, 64, 64
1, 3264, Note_on_c, 9, 36, 127
1, 3264, Note_on_c, 9, 38, 127
1, 3264, Note_on_c, 9, 42, 90
1, 3264, Note_on_c, 9, 37, 127
1, 3304, Note_on_c, 2, 64, 0
1, 3304, Note_on_c, 2, 69, 0
1, 3304, Note_on_c, 2, 71, 0
1, 3312, Note_on_c, 9, 38, 0
1, 3312, Note_on_c, 9, 36, 0
1, 3312, Note_on_c, 9, 42, 0
1, 3360, Note_on_c, 2, 71, 64
1, 3360, Note_on_c, 2, 69, 64
1, 3360, Note_on_c, 2, 64, 64
1, 3360, Note_on_c, 9, 36, 127
1, 3360, Note_on_c, 9, 42, 90
1, 3400, Note_on_c, 2, 64, 0
1, 3400, Note_on_c, 2, 69, 0
1, 3400, Note_on_c, 2, 71, 0
1, 3408, Note_on_c, 9, 36, 0
1, 3408, Note_on_c, 9, 42, 0
1, 3456, Note_on_c, 9, 37, 0
1, 3456, Note_on_c, 2, 71, 64
1, 3456, Note_on_c, 2, 68, 64
1, 3456, Note_on_c, 2, 64, 64
1, 3456, Note_on_c, 9, 36, 127
1, 3456, Note_on_c, 9, 42, 90
1, 3496, Note_on_c, 2, 64, 0
1, 3496, Note_on_c, 2, 68, 0
1, 3496, Note_on_c, 2, 71, 0
1, 3504, Note_on_c, 9, 42, 0
1, 3504, Note_on_c, 9, 36, 0
1, 3552, Note_on_c, 2, 71, 64
1, 3552, Note_on_c, 2, 68, 64
1, 3552, Note_on_c, 2, 64, 64
1, 3552, Note_on_c, 9, 42, 90
1, 3592, Note_on_c, 2, 64, 0
1, 3592, Note_on_c, 2, 68, 0
1, 3592, Note_on_c, 2, 71, 0
1, 3600, Note_on_c, 9, 42, 0
1, 3648, Note_on_c, 2, 71, 64
1, 3648, Note_on_c, 2, 68, 64
1, 3648, Note_on_c, 2, 64, 64
1, 3648, Note_on_c, 9, 36, 127
1, 3648, Note_on_c, 9, 38, 127
1, 3648, Note_on_c, 9, 42, 90
1, 3648, Note_on_c, 9, 37, 127
1, 3688, Note_on_c, 2, 64, 0
1, 3688, Note_on_c, 2, 68, 0
1, 3688, Note_on_c, 2, 71, 0
1, 3696, Note_on_c, 9, 38, 0
1, 3696, Note_on_c, 9, 36, 0
1, 3696, Note_on_c, 9, 42, 0
1, 3744, Note_on_c, 2, 71, 64
1, 3744, Note_on_c, 2, 68, 64
1, 3744, Note_on_c, 2, 64, 64
1, 3744, Note_on_c, 9, 42, 90
1, 3784, Note_on_c, 2, 64, 0
1, 3784, Note_on_c, 2, 68, 0
1, 3784, Note_on_c, 2, 71, 0
1, 3792, Note_on_c, 9, 42, 0
1, 3840, Note_on_c, 9, 37, 0
1, 3840, Note_on_c, 2, 71, 64
1, 3840, Note_on_c, 2, 66, 64
1, 3840, Note_on_c, 2, 63, 64
1, 3840, Note_on_c, 9, 36, 127
1, 3840, Note_on_c, 9, 42, 90
1, 3880, Note_on_c, 2, 63, 0
1, 3880, Note_on_c, 2, 66, 0
1, 3880, Note_on_c, 2, 71, 0
1, 3888, Note_on_c, 9, 42, 0
1, 3888, Note_on_c, 9, 36, 0
1, 3936, Note_on_c, 2, 71, 64
1, 3936, Note_on_c, 2, 66, 64
1, 3936, Note_on_c, 2, 63, 64
1, 3936, Note_on_c, 9, 42, 90
1, 3976, Note_on_c, 2, 63, 0
1, 3976, Note_on_c, 2, 66, 0
1, 3976, Note_on_c, 2, 71, 0
1, 3984, Note_on_c, 9, 42, 0
1, 4032, Note_on_c, 2, 71, 64
1, 4032, Note_on_c, 2, 66, 64
1, 4032, Note_on_c, 2, 63, 64
1, 4032, Note_on_c, 9, 36, 127
1, 4032, Note_on_c, 9, 38, 127
1, 4032, Note_on_c, 9, 42, 90
1, 4032, Note_on_c, 9, 37, 127
1, 4072, Note_on_c, 2, 63, 0
1, 4072, Note_on_c, 2, 66, 0
1, 4072, Note_on_c, 2, 71, 0
1, 4080, Note_on_c, 9, 38, 0
1, 4080, Note_on_c, 9, 36, 0
1, 4080, Note_on_c, 9, 37, 0
1, 4080, Note_on_c, 9, 42, 0
1, 4080, Note_on_c, 1, 35, 127
1, 4080, Note_on_c, 4, 71, 127
1, 4112, Note_on_c, 4, 71, 0
1, 4112, Note_on_c, 1, 35, 0
1, 4128, Note_on_c, 1, 37, 127
1, 4128, Note_on_c, 2, 71, 64
1, 4128, Note_on_c, 2, 66, 64
1, 4128, Note_on_c, 2, 63, 64
1, 4128, Note_on_c, 4, 73, 127
1, 4128, Note_on_c, 9, 36, 127
1, 4128, Note_on_c, 9, 42, 90
1, 4152, Note_on_c, 4, 73, 0
1, 4160, Note_on_c, 1, 37, 0
1, 4168, Note_on_c, 2, 63, 0
1, 4168, Note_on_c, 2, 66, 0
1, 4168, Note_on_c, 2, 71, 0
1, 4176, Note_on_c, 9, 42, 0
1, 4176, Note_on_c, 9, 36, 0
1, 4176, Note_on_c, 1, 40, 127
1, 4176, Note_on_c, 4, 76, 127
1, 4208, Note_on_c, 1, 40, 0
1, 4224, Note_on_c, 2, 71, 64
1, 4224, Note_on_c, 2, 66, 64
1, 4224, Note_on_c, 2, 63, 64
1, 4224, Note_on_c, 9, 36, 127
1, 4224, Note_on_c, 9, 42, 90
1, 4264, Note_on_c, 2, 63, 0
1, 4264, Note_on_c, 2, 66, 0
1, 4264, Note_on_c, 2, 71, 0
1, 4272, Note_on_c, 9, 36, 0
1, 4272, Note_on_c, 4, 76, 0
1, 4272, Note_on_c, 9, 42, 0
1, 4272, Note_on_c, 1, 35, 127
1, 4272, Note_on_c, 4, 71, 127
1, 4304, Note_on_c, 4, 71, 0
1, 4304, Note_on_c, 1, 35, 0
1, 4320, Note_on_c, 1, 37, 127
1, 4320, Note_on_c, 2, 71, 64
1, 4320, Note_on_c, 2, 66, 64
1, 4320, Note_on_c, 2, 63, 64
1, 4320, Note_on_c, 4, 73, 127
1, 4320, Note_on_c, 9, 42, 90
1, 4344, Note_on_c, 4, 73, 0
1, 4352, Note_on_c, 1, 37, 0
1, 4360, Note_on_c, 2, 63, 0
1, 4360, Note_on_c, 2, 66, 0
1, 4360, Note_on_c, 2, 71, 0
1, 4368, Note_on_c, 9, 42, 0
1, 4368, Note_on_c, 1, 42, 127
1, 4368, Note_on_c, 4, 78, 127
1, 4400, Note_on_c, 1, 42, 0
1, 4416, Note_on_c, 2, 71, 64
1, 4416, Note_on_c, 2, 66, 64
1, 4416, Note_on_c, 2, 63, 64
1, 4416, Note_on_c, 9, 36, 127
1, 4416, Note_on_c, 9, 38, 127
1, 4416, Note_on_c, 9, 42, 90
1, 4416, Note_on_c, 9, 37, 127
1, 4440, Note_on_c, 4, 78, 0
1, 4456, Note_on_c, 2, 63, 0
1, 4456, Note_on_c, 2, 66, 0
1, 4456, Note_on_c, 2, 71, 0
1, 4464, Note_on_c, 9, 36, 0
1, 4464, Note_on_c, 9, 42, 0
1, 4464, Note_on_c, 9, 37, 0
1, 4464, Note_on_c, 9, 38, 0
1, 4464, Note_on_c, 1, 37, 127
1, 4464, Note_on_c, 4, 73, 127
1, 4488, Note_on_c, 4, 73, 0
1, 4496, Note_on_c, 1, 37, 0
1, 4512, Note_on_c, 1, 40, 127
1, 4512, Note_on_c, 2, 71, 64
1, 4512, Note_on_c, 2, 66, 64
1, 4512, Note_on_c, 2, 63, 64
1, 4512, Note_on_c, 4, 76, 127
1, 4512, Note_on_c, 9, 42, 90
1, 4544, Note_on_c, 4, 76, 0
1, 4544, Note_on_c, 1, 40, 0
1, 4552, Note_on_c, 2, 63, 0
1, 4552, Note_on_c, 2, 66, 0
1, 4552, Note_on_c, 2, 71, 0
1, 4560, Note_on_c, 5, 83, 0
1, 4560, Note_on_c, 9, 42, 0
1, 4560, Note_on_c, 1, 40, 127
1, 4560, Note_on_c, 4, 76, 127
1, 4592, Note_on_c, 1, 40, 0
1, 4600, Note_on_c, 4, 76, 0
1, 4608, Note_on_c, 2, 73, 64
1, 4608, Note_on_c, 2, 71, 64
1, 4608, Note_on_c, 2, 64, 64
1, 4608, Note_on_c, 9, 36, 127
1, 4608, Note_on_c, 9, 42, 90
1, 4648, Note_on_c, 2, 64, 0
1, 4648, Note_on_c, 2, 73, 0
1, 4648, Note_on_c, 2, 71, 0
1, 4656, Note_on_c, 9, 36, 0
1, 4656, Note_on_c, 9, 42, 0
1, 4656, Note_on_c, 2, 71, 64
1, 4656, Note_on_c, 2, 69, 64
1, 4656, Note_on_c, 2, 64, 64
1, 4696, Note_on_c, 2, 64, 0
1, 4696, Note_on_c, 2, 69, 0
1, 4696, Note_on_c, 2, 71, 0
1, 4704, Note_on_c, 2, 71, 64
1, 4704, Note_on_c, 2, 69, 64
1, 4704, Note_on_c, 2, 64, 64
1, 4704, Note_on_c, 5, 81, 64
1, 4704, Note_on_c, 9, 42, 90
1, 4744, Note_on_c, 2, 64, 0
1, 4744, Note_on_c, 2, 71, 0
1, 4744, Note_on_c, 2, 69, 0
1, 4752, Note_on_c, 9, 42, 0
1, 4800, Note_on_c, 2, 71, 64
1, 4800, Note_on_c, 2, 69, 64
1, 4800, Note_on_c, 2, 64, 64
1, 4800, Note_on_c, 9, 36, 127
1, 4800, Note_on_c, 9, 38, 127
1, 4800, Note_on_c, 9, 42, 90
1, 4800, Note_on_c, 9, 37, 127
1, 4840, Note_on_c, 2, 64, 0
1, 4840, Note_on_c, 2, 69, 0
1, 4840, Note_on_c, 2, 71, 0
1, 4848, Note_on_c, 9, 38, 0
1, 4848, Note_on_c, 9, 36, 0
1, 4848, Note_on_c, 9, 37, 0
1, 4848, Note_on_c, 9, 42, 0
1, 4896, Note_on_c, 2, 71, 64
1, 4896, Note_on_c, 2, 69, 64
1, 4896, Note_on_c, 2, 64, 64
1, 4896, Note_on_c, 9, 36, 127
1, 4896, Note_on_c, 9, 42, 90
1, 4936, Note_on_c, 2, 64, 0
1, 4936, Note_on_c, 2, 69, 0
1, 4936, Note_on_c, 2, 71, 0
1, 4944, Note_on_c, 9, 42, 0
1, 4944, Note_on_c, 9, 36, 0
1, 4976, Note_on_c, 5, 81, 0
1, 4992, Note_on_c, 2, 71, 64
1, 4992, Note_on_c, 2, 68, 64
1, 4992, Note_on_c, 2, 64, 64
1, 4992, Note_on_c, 5, 78, 64
1, 4992, Note_on_c, 9, 36, 127
1, 4992, Note_on_c, 9, 42, 90
1, 5032, Note_on_c, 2, 64, 0
1, 5032, Note_on_c, 2, 71, 0
1, 5032, Note_on_c, 2, 68, 0
1, 5040, Note_on_c, 5, 78, 0
1, 5040, Note_on_c, 9, 36, 0
1, 5040, Note_on_c, 9, 42, 0
1, 5088, Note_on_c, 2, 71, 64
1, 5088, Note_on_c, 2, 68, 64
1, 5088, Note_on_c, 2, 64, 64
1, 5088, Note_on_c, 5, 76, 64
1, 5088, Note_on_c, 9, 42, 90
1, 5128, Note_on_c, 2, 64, 0
1, 5128, Note_on_c, 2, 71, 0
1, 5128, Note_on_c, 2, 68, 0
1, 5136, Note_on_c, 9, 42, 0
1, 5184, Note_on_c, 2, 71, 64
1, 5184, Note_on_c, 2, 68, 64
1, 5184, Note_on_c, 2, 64, 64
1, 5184, Note_on_c, 9, 36, 127
1, 5184, Note_on_c, 9, 38, 127
1, 5184, Note_on_c, 9, 42, 90
1, 5184, Note_on_c, 9, 37, 127
1, 5224, Note_on_c, 2, 64, 0
1, 5224, Note_on_c, 2, 68, 0
1, 5224, Note_on_c, 2, 71, 0
1, 5232, Note_on_c, 9, 38, 0
1, 5232, Note_on_c, 9, 36, 0
1, 5232, Note_on_c, 9, 37, 0
1, 5232, Note_on_c, 9, 42, 0
1, 5248, Note_on_c, 5, 76, 0
1, 5272, Note_on_c, 5, 72, 64
1, 5280, Note_on_c, 2, 71, 64
1, 5280, Note_on_c, 2, 68, 64
1, 5280, Note_on_c, 2, 64, 64
1, 5280, Note_on_c, 9, 42, 90
1, 5320, Note_on_c, 2, 64, 0
1, 5320, Note_on_c, 2, 68, 0
1, 5320, Note_on_c, 2, 71, 0
1, 5328, Note_on_c, 9, 42, 0
1, 5328, Note_on_c, 1, 36, 127
1, 5352, Note_on_c, 5, 72, 0
1, 5360, Note_on_c, 1, 36, 0
1, 5376, Note_on_c, 1, 33, 127
1, 5376, Note_on_c, 1, 30, 127
1, 5376, Note_on_c, 2, 71, 64
1, 5376, Note_on_c, 2, 66, 64
1, 5376, Note_on_c, 2, 63, 64
1, 5376, Note_on_c, 5, 71, 64
1, 5376, Note_on_c, 9, 36, 127
1, 5376, Note_on_c, 9, 42, 90
1, 5408, Note_on_c, 1, 30, 0
1, 5408, Note_on_c, 1, 33, 0
1, 5416, Note_on_c, 2, 66, 0
1, 5416, Note_on_c, 2, 63, 0
1, 5416, Note_on_c, 2, 71, 0
1, 5424, Note_on_c, 9, 42, 0
1, 5424, Note_on_c, 9, 36, 0
1, 5472, Note_on_c, 2, 71, 64
1, 5472, Note_on_c, 2, 66, 64
1, 5472, Note_on_c, 2, 63, 64
1, 5472, Note_on_c, 9, 42, 90
1, 5512, Note_on_c, 2, 63, 0
1, 5512, Note_on_c, 2, 66, 0
1, 5512, Note_on_c, 2, 71, 0
1, 5520, Note_on_c, 9, 42, 0
1, 5568, Note_on_c, 2, 71, 64
1, 5568, Note_on_c, 2, 66, 64
1, 5568, Note_on_c, 2, 63, 64
1, 5568, Note_on_c, 9, 36, 127
1, 5568, Note_on_c, 9, 38, 127
1, 5568, Note_on_c, 9, 42, 90
1, 5568, Note_on_c, 9, 37, 127
1, 5608, Note_on_c, 2, 63, 0
1, 5608, Note_on_c, 2, 66, 0
1, 5608, Note_on_c, 2, 71, 0
1, 5616, Note_on_c, 9, 38, 0
1, 5616, Note_on_c, 9, 36, 0
1, 5616, Note_on_c, 9, 37, 0
1, 5616, Note_on_c, 9, 42, 0
1, 5616, Note_on_c, 1, 35, 127
1, 5616, Note_on_c, 4, 71, 127
1, 5632, Note_on_c, 5, 71, 0
1, 5648, Note_on_c, 1, 35, 0
1, 5656, Note_on_c, 4, 71, 0
1, 5664, Note_on_c, 1, 37, 127
1, 5664, Note_on_c, 2, 71, 64
1, 5664, Note_on_c, 2, 66, 64
1, 5664, Note_on_c, 2, 63, 64
1, 5664, Note_on_c, 4, 73, 127
1, 5664, Note_on_c, 9, 36, 127
1, 5664, Note_on_c, 9, 42, 90
1, 5696, Note_on_c, 4, 73, 0
1, 5696, Note_on_c, 1, 37, 0
1, 5704, Note_on_c, 2, 71, 0
1, 5704, Note_on_c, 2, 63, 0
1, 5704, Note_on_c, 2, 66, 0
1, 5712, Note_on_c, 9, 42, 0
1, 5712, Note_on_c, 9, 36, 0
1, 5712, Note_on_c, 1, 40, 127
1, 5712, Note_on_c, 4, 76, 127
1, 5744, Note_on_c, 1, 40, 0
1, 5760, Note_on_c, 2, 71, 64
1, 5760, Note_on_c, 2, 66, 64
1, 5760, Note_on_c, 2, 63, 64
1, 5760, Note_on_c, 9, 36, 127
1, 5760, Note_on_c, 9, 42, 90
1, 5800, Note_on_c, 2, 63, 0
1, 5800, Note_on_c, 2, 66, 0
1, 5800, Note_on_c, 4, 76, 0
1, 5800, Note_on_c, 2, 71, 0
1, 5808, Note_on_c, 9, 42, 0
1, 5808, Note_on_c, 9, 36, 0
1, 5808, Note_on_c, 1, 35, 127
1, 5808, Note_on_c, 4, 73, 127
1, 5840, Note_on_c, 4, 73, 0
1, 5840, Note_on_c, 1, 35, 0
1, 5856, Note_on_c, 1, 37, 127
1, 5856, Note_on_c, 2, 71, 64
1, 5856, Note_on_c, 2, 66, 64
1, 5856, Note_on_c, 2, 63, 64
1, 5856, Note_on_c, 4, 76, 127
1, 5856, Note_on_c, 9, 42, 90
1, 5888, Note_on_c, 4, 76, 0
1, 5888, Note_on_c, 1, 37, 0
1, 5896, Note_on_c, 2, 63, 0
1, 5896, Note_on_c, 2, 71, 0
1, 5896, Note_on_c, 2, 66, 0
1, 5904, Note_on_c, 9, 42, 0
1, 5904, Note_on_c, 1, 42, 127
1, 5904, Note_on_c, 4, 78, 127
1, 5936, Note_on_c, 1, 42, 0
1, 5952, Note_on_c, 2, 71, 64
1, 5952, Note_on_c, 2, 66, 64
1, 5952, Note_on_c, 2, 63, 64
1, 5952, Note_on_c, 9, 36, 127
1, 5952, Note_on_c, 9, 38, 127
1, 5952, Note_on_c, 9, 42, 90
1, 5952, Note_on_c, 9, 37, 127
1, 5960, Note_on_c, 3, 66, 127
1, 5968, Note_on_c, 4, 78, 0
1, 5992, Note_on_c, 2, 63, 0
1, 5992, Note_on_c, 2, 71, 0
1, 5992, Note_on_c, 2, 66, 0
1, 6000, Note_on_c, 9, 38, 0
1, 6000, Note_on_c, 9, 36, 0
1, 6000, Note_on_c, 9, 37, 0
1, 6000, Note_on_c, 9, 42, 0
1, 6000, Note_on_c, 1, 37, 127
1, 6000, Note_on_c, 4, 73, 127
1, 6024, Note_on_c, 4, 73, 0
1, 6032, Note_on_c, 1, 37, 0
1, 6032, Note_on_c, 3, 66, 0
1, 6048, Note_on_c, 1, 40, 127
1, 6048, Note_on_c, 2, 71, 64
1, 6048, Note_on_c, 2, 66, 64
1, 6048, Note_on_c, 2, 63, 64
1, 6048, Note_on_c, 3, 69, 127
1, 6048, Note_on_c, 4, 76, 127
1, 6048, Note_on_c, 9, 36, 127
1, 6048, Note_on_c, 9, 38, 127
1, 6048, Note_on_c, 9, 42, 90
1, 6072, Note_on_c, 4, 76, 0
1, 6080, Note_on_c, 1, 40, 0
1, 6088, Note_on_c, 2, 63, 0
1, 6088, Note_on_c, 2, 71, 0
1, 6088, Note_on_c, 2, 66, 0
1, 6096, Note_on_c, 3, 69, 0
1, 6096, Note_on_c, 9, 38, 0
1, 6096, Note_on_c, 9, 42, 0
1, 6096, Note_on_c, 9, 36, 0
1, 6096, Note_on_c, 1, 40, 127
1, 6096, Note_on_c, 4, 76, 127
1, 6096, Note_on_c, 9, 36, 127
1, 6096, Note_on_c, 9, 38, 127
1, 6112, Note_on_c, 4, 76, 0
1, 6128, Note_on_c, 1, 40, 0
1, 6144, Note_on_c, 9, 36, 0
1, 6144, Note_on_c, 9, 38, 0
1, 6144, Note_on_c, 1, 30, 127
1, 6144, Note_on_c, 2, 73, 64
1, 6144, Note_on_c, 2, 71, 64
1, 6144, Note_on_c, 2, 64, 64
1, 6144, Note_on_c, 3, 71, 127
1, 6144, Note_on_c, 9, 36, 127
1, 6144, Note_on_c, 9, 42, 90
1, 6168, Note_on_c, 2, 73, 0
1, 6176, Note_on_c, 2, 71, 0
1, 6184, Note_on_c, 2, 64, 0
1, 6192, Note_on_c, 9, 36, 0
1, 6192, Note_on_c, 1, 30, 0
1, 6192, Note_on_c, 9, 42, 0
1, 6192, Note_on_c, 1, 30, 127
1, 6192, Note_on_c, 2, 71, 64
1, 6192, Note_on_c, 2, 69, 64
1, 6192, Note_on_c, 2, 64, 64
1, 6208, Note_on_c, 3, 71, 0
1, 6216, Note_on_c, 2, 71, 0
1, 6224, Note_on_c, 2, 69, 0
1, 6232, Note_on_c, 2, 64, 0
1, 6240, Note_on_c, 1, 30, 0
1, 6240, Note_on_c, 1, 30, 127
1, 6240, Note_on_c, 2, 71, 64
1, 6240, Note_on_c, 2, 69, 64
1, 6240, Note_on_c, 2, 64, 64
1, 6240, Note_on_c, 9, 42, 90
1, 6264, Note_on_c, 2, 69, 0
1, 6264, Note_on_c, 2, 71, 0
1, 6288, Note_on_c, 1, 30, 0
1, 6288, Note_on_c, 2, 64, 0
1, 6288, Note_on_c, 9, 42, 0
1, 6336, Note_on_c, 1, 30, 127
1, 6336, Note_on_c, 2, 71, 64
1, 6336, Note_on_c, 2, 69, 64
1, 6336, Note_on_c, 2, 64, 64
1, 6336, Note_on_c, 3, 71, 127
1, 6336, Note_on_c, 9, 36, 127
1, 6336, Note_on_c, 9, 38, 127
1, 6336, Note_on_c, 9, 42, 90
1, 6336, Note_on_c, 9, 37, 127
1, 6360, Note_on_c, 2, 69, 0
1, 6360, Note_on_c, 2, 71, 0
1, 6384, Note_on_c, 1, 30, 0
1, 6384, Note_on_c, 9, 38, 0
1, 6384, Note_on_c, 9, 36, 0
1, 6384, Note_on_c, 2, 64, 0
1, 6384, Note_on_c, 9, 42, 0
1, 6384, Note_on_c, 3, 71, 0
1, 6384, Note_on_c, 9, 37, 0
1, 6432, Note_on_c, 1, 33, 127
1, 6432, Note_on_c, 2, 71, 64
1, 6432, Note_on_c, 2, 69, 64
1, 6432, Note_on_c, 2, 64, 64
1, 6432, Note_on_c, 3, 73, 127
1, 6432, Note_on_c, 9, 36, 127
1, 6432, Note_on_c, 9, 42, 90
1, 6456, Note_on_c, 2, 71, 0
1, 6464, Note_on_c, 2, 69, 0
1, 6472, Note_on_c, 3, 73, 0
1, 6472, Note_on_c, 2, 64, 0
1, 6480, Note_on_c, 1, 33, 0
1, 6480, Note_on_c, 9, 42, 0
1, 6480, Note_on_c, 9, 36, 0
1, 6528, Note_on_c, 1, 35, 127
1, 6528, Note_on_c, 2, 71, 64
1, 6528, Note_on_c, 2, 68, 64
1, 6528, Note_on_c, 2, 64, 64
1, 6528, Note_on_c, 3, 69, 127
1, 6528, Note_on_c, 9, 36, 127
1, 6528, Note_on_c, 9, 42, 90
1, 6552, Note_on_c, 2, 71, 0
1, 6560, Note_on_c, 2, 68, 0
1, 6568, Note_on_c, 2, 64, 0
1, 6576, Note_on_c, 9, 36, 0
1, 6576, Note_on_c, 9, 42, 0
1, 6624, Note_on_c, 1, 35, 0
1, 6624, Note_on_c, 2, 71, 64
1, 6624, Note_on_c, 2, 68, 64
1, 6624, Note_on_c, 2, 64, 64
1, 6624, Note_on_c, 9, 42, 90
1, 6640, Note_on_c, 3, 69, 0
1, 6648, Note_on_c, 2, 71, 0
1, 6656, Note_on_c, 2, 68, 0
1, 6672, Note_on_c, 2, 64, 0
1, 6672, Note_on_c, 9, 42, 0
1, 6672, Note_on_c, 1, 37, 127
1, 6720, Note_on_c, 2, 71, 64
1, 6720, Note_on_c, 2, 68, 64
1, 6720, Note_on_c, 2, 64, 64
1, 6720, Note_on_c, 3, 66, 127
1, 6720, Note_on_c, 9, 36, 127
1, 6720, Note_on_c, 9, 38, 127
1, 6720, Note_on_c, 9, 42, 90
1, 6720, Note_on_c, 9, 37, 127
1, 6744, Note_on_c, 2, 71, 0
1, 6768, Note_on_c, 2, 64, 0
1, 6768, Note_on_c, 1, 37, 0
1, 6768, Note_on_c, 9, 36, 0
1, 6768, Note_on_c, 2, 68, 0
1, 6768, Note_on_c, 9, 37, 0
1, 6768, Note_on_c, 9, 42, 0
1, 6768, Note_on_c, 9, 38, 0
1, 6768, Note_on_c, 1, 33, 127
1, 6784, Note_on_c, 3, 66, 0
1, 6816, Note_on_c, 1, 33, 0
1, 6816, Note_on_c, 1, 30, 127
1, 6816, Note_on_c, 2, 71, 64
1, 6816, Note_on_c, 2, 68, 64
1, 6816, Note_on_c, 2, 64, 64
1, 6816, Note_on_c, 3, 69, 127
1, 6816, Note_on_c, 9, 42, 90
1, 6848, Note_on_c, 2, 71, 0
1, 6856, Note_on_c, 2, 68, 0
1, 6864, Note_on_c, 2, 64, 0
1, 6864, Note_on_c, 9, 42, 0
1, 6880, Note_on_c, 3, 69, 0
1, 6912, Note_on_c, 1, 30, 0
1, 6912, Note_on_c, 2, 71, 64
1, 6912, Note_on_c, 2, 66, 64
1, 6912, Note_on_c, 2, 63, 64
1, 6912, Note_on_c, 3, 71, 127
1, 6912, Note_on_c, 9, 36, 127
1, 6912, Note_on_c, 9, 42, 90
1, 6944, Note_on_c, 2, 66, 0
1, 6944, Note_on_c, 2, 71, 0
1, 6960, Note_on_c, 9, 36, 0
1, 6960, Note_on_c, 2, 63, 0
1, 6960, Note_on_c, 9, 42, 0
1, 7000, Note_on_c, 3, 71, 0
1, 7008, Note_on_c, 2, 71, 64
1, 7008, Note_on_c, 2, 66, 64
1, 7008, Note_on_c, 2, 63, 64
1, 7008, Note_on_c, 9, 42, 90
1, 7040, Note_on_c, 2, 66, 0
1, 7048, Note_on_c, 2, 71, 0
1, 7056, Note_on_c, 2, 63, 0
1, 7056, Note_on_c, 9, 42, 0
1, 7056, Note_on_c, 3, 73, 127
1, 7104, Note_on_c, 2, 71, 64
1, 7104, Note_on_c, 2, 66, 64
1, 7104, Note_on_c, 2, 63, 64
1, 7104, Note_on_c, 9, 36, 127
1, 7104, Note_on_c, 9, 38, 127
1, 7104, Note_on_c, 9, 42, 90
1, 7104, Note_on_c, 9, 37, 127
1, 7136, Note_on_c, 2, 66, 0
1, 7144, Note_on_c, 2, 71, 0
1, 7152, Note_on_c, 9, 42, 0
1, 7152, Note_on_c, 9, 38, 0
1, 7152, Note_on_c, 2, 63, 0
1, 7152, Note_on_c, 9, 36, 0
1, 7152, Note_on_c, 3, 73, 0
1, 7152, Note_on_c, 9, 37, 0
1, 7152, Note_on_c, 1, 33, 127
1, 7200, Note_on_c, 1, 33, 0
1, 7200, Note_on_c, 1, 30, 127
1, 7200, Note_on_c, 2, 71, 64
1, 7200, Note_on_c, 2, 66, 64
1, 7200, Note_on_c, 2, 63, 64
1, 7200, Note_on_c, 3, 69, 127
1, 7200, Note_on_c, 9, 36, 127
1, 7200, Note_on_c, 9, 42, 90
1, 7240, Note_on_c, 2, 63, 0
1, 7240, Note_on_c, 2, 66, 0
1, 7248, Note_on_c, 2, 71, 0
1, 7248, Note_on_c, 9, 36, 0
1, 7248, Note_on_c, 9, 42, 0
1, 7296, Note_on_c, 1, 30, 0
1, 7296, Note_on_c, 3, 69, 0
1, 7296, Note_on_c, 1, 28, 127
1, 7296, Note_on_c, 2, 71, 64
1, 7296, Note_on_c, 2, 66, 64
1, 7296, Note_on_c, 2, 63, 64
1, 7296, Note_on_c, 9, 36, 127
1, 7296, Note_on_c, 9, 42, 90
1, 7336, Note_on_c, 2, 66, 0
1, 7336, Note_on_c, 2, 71, 0
1, 7344, Note_on_c, 2, 63, 0
1, 7344, Note_on_c, 9, 36, 0
1, 7344, Note_on_c, 9, 42, 0
1, 7392, Note_on_c, 1, 28, 0
1, 7392, Note_on_c, 2, 71, 64
1, 7392, Note_on_c, 2, 66, 64
1, 7392, Note_on_c, 2, 63, 64
1, 7392, Note_on_c, 9, 42, 90
1, 7432, Note_on_c, 2, 66, 0
1, 7432, Note_on_c, 2, 71, 0
1, 7440, Note_on_c, 2, 63, 0
1, 7440, Note_on_c, 9, 42, 0
1, 7488, Note_on_c, 1, 28, 127
1, 7488, Note_on_c, 2, 71, 64
1, 7488, Note_on_c, 2, 66, 64
1, 7488, Note_on_c, 2, 63, 64
1, 7488, Note_on_c, 3, 66, 127
1, 7488, Note_on_c, 9, 36, 127
1, 7488, Note_on_c, 9, 38, 127
1, 7488, Note_on_c, 9, 42, 90
1, 7488, Note_on_c, 9, 37, 127
1, 7528, Note_on_c, 2, 66, 0
1, 7528, Note_on_c, 2, 71, 0
1, 7536, Note_on_c, 1, 28, 0
1, 7536, Note_on_c, 9, 38, 0
1, 7536, Note_on_c, 9, 36, 0
1, 7536, Note_on_c, 9, 37, 0
1, 7536, Note_on_c, 9, 42, 0
1, 7536, Note_on_c, 2, 63, 0
1, 7544, Note_on_c, 3, 66, 0
1, 7584, Note_on_c, 1, 28, 127
1, 7584, Note_on_c, 2, 71, 64
1, 7584, Note_on_c, 2, 66, 64
1, 7584, Note_on_c, 2, 63, 64
1, 7584, Note_on_c, 3, 69, 127
1, 7584, Note_on_c, 9, 44, 90
1, 7624, Note_on_c, 2, 71, 0
1, 7632, Note_on_c, 2, 66, 0
1, 7632, Note_on_c, 2, 63, 0
1, 7632, Note_on_c, 1, 28, 0
1, 7632, Note_on_c, 9, 44, 0
1, 7640, Note_on_c, 3, 69, 0
1, 7680, Note_on_c, 1, 30, 127
1, 7680, Note_on_c, 2, 73, 64
1, 7680, Note_on_c, 2, 71, 64
1, 7680, Note_on_c, 2, 64, 64
1, 7680, Note_on_c, 3, 71, 127
1, 7680, Note_on_c, 9, 36, 127
1, 7680, Note_on_c, 9, 42, 90
1, 7704, Note_on_c, 2, 73, 0
1, 7712, Note_on_c, 2, 71, 0
1, 7720, Note_on_c, 2, 64, 0
1, 7728, Note_on_c, 9, 36, 0
1, 7728, Note_on_c, 1, 30, 0
1, 7728, Note_on_c, 9, 42, 0
1, 7728, Note_on_c, 1, 30, 127
1, 7728, Note_on_c, 2, 71, 64
1, 7728, Note_on_c, 2, 69, 64
1, 7728, Note_on_c, 2, 64, 64
1, 7752, Note_on_c, 2, 71, 0
1, 7760, Note_on_c, 2, 69, 0
1, 7768, Note_on_c, 2, 64, 0
1, 7768, Note_on_c, 3, 71, 0
1, 7776, Note_on_c, 1, 30, 0
1, 7776, Note_on_c, 1, 30, 127
1, 7776, Note_on_c, 2, 71, 64
1, 7776, Note_on_c, 2, 69, 64
1, 7776, Note_on_c, 2, 64, 64
1, 7776, Note_on_c, 9, 42, 90
1, 7800, Note_on_c, 2, 69, 0
1, 7800, Note_on_c, 2, 71, 0
1, 7824, Note_on_c, 1, 30, 0
1, 7824, Note_on_c, 2, 64, 0
1, 7824, Note_on_c, 9, 42, 0
1, 7872, Note_on_c, 1, 30, 127
1, 7872, Note_on_c, 2, 71, 64
1, 7872, Note_on_c, 2, 69, 64
1, 7872, Note_on_c, 2, 64, 64
1, 7872, Note_on_c, 3, 71, 127
1, 7872, Note_on_c, 9, 36, 127
1, 7872, Note_on_c, 9, 38, 127
1, 7872, Note_on_c, 9, 42, 90
1, 7872, Note_on_c, 9, 37, 127
1, 7896, Note_on_c, 2, 69, 0
1, 7896, Note_on_c, 2, 71, 0
1, 7920, Note_on_c, 1, 30, 0
1, 7920, Note_on_c, 9, 38, 0
1, 7920, Note_on_c, 9, 36, 0
1, 7920, Note_on_c, 9, 37, 0
1, 7920, Note_on_c, 9, 42, 0
1, 7920, Note_on_c, 2, 64, 0
1, 7928, Note_on_c, 3, 71, 0
1, 7968, Note_on_c, 1, 33, 127
1, 7968, Note_on_c, 2, 71, 64
1, 7968, Note_on_c, 2, 69, 64
1, 7968, Note_on_c, 2, 64, 64
1, 7968, Note_on_c, 3, 73, 127
1, 7968, Note_on_c, 9, 36, 127
1, 7968, Note_on_c, 9, 42, 90
1, 7992, Note_on_c, 2, 71, 0
1, 8000, Note_on_c, 2, 69, 0
1, 8008, Note_on_c, 2, 64, 0
1, 8016, Note_on_c, 9, 36, 0
1, 8016, Note_on_c, 1, 33, 0
1, 8016, Note_on_c, 9, 42, 0
1, 8024, Note_on_c, 3, 73, 0
1, 8064, Note_on_c, 1, 35, 127
1, 8064, Note_on_c, 2, 71, 64
1, 8064, Note_on_c, 2, 68, 64
1, 8064, Note_on_c, 2, 64, 64
1, 8064, Note_on_c, 3, 69, 127
1, 8064, Note_on_c, 9, 36, 127
1, 8064, Note_on_c, 9, 42, 90
1, 8088, Note_on_c, 2, 71, 0
1, 8096, Note_on_c, 2, 68, 0
1, 8104, Note_on_c, 2, 64, 0
1, 8112, Note_on_c, 9, 36, 0
1, 8112, Note_on_c, 9, 42, 0
1, 8160, Note_on_c, 1, 35, 0
1, 8160, Note_on_c, 2, 71, 64
1, 8160, Note_on_c, 2, 68, 64
1, 8160, Note_on_c, 2, 64, 64
1, 8160, Note_on_c, 9, 42, 90
1, 8168, Note_on_c, 3, 69, 0
1, 8184, Note_on_c, 2, 71, 0
1, 8192, Note_on_c, 2, 68, 0
1, 8208, Note_on_c, 2, 64, 0
1, 8208, Note_on_c, 9, 42, 0
1, 8208, Note_on_c, 1, 37, 127
1, 8256, Note_on_c, 2, 71, 64
1, 8256, Note_on_c, 2, 68, 64
1, 8256, Note_on_c, 2, 64, 64
1, 8256, Note_on_c, 3, 69, 127
1, 8256, Note_on_c, 9, 36, 127
1, 8256, Note_on_c, 9, 38, 127
1, 8256, Note_on_c, 9, 42, 90
1, 8256, Note_on_c, 9, 37, 127
1, 8280, Note_on_c, 2, 71, 0
1, 8304, Note_on_c, 2, 64, 0
1, 8304, Note_on_c, 1, 37, 0
1, 8304, Note_on_c, 9, 36, 0
1, 8304, Note_on_c, 2, 68, 0
1, 8304, Note_on_c, 9, 37, 0
1, 8304, Note_on_c, 9, 42, 0
1, 8304, Note_on_c, 9, 38, 0
1, 8312, Note_on_c, 3, 69, 0
1, 8352, Note_on_c, 1, 40, 127
1, 8352, Note_on_c, 2, 71, 64
1, 8352, Note_on_c, 2, 68, 64
1, 8352, Note_on_c, 2, 64, 64
1, 8352, Note_on_c, 3, 66, 127
1, 8352, Note_on_c, 9, 42, 90
1, 8384, Note_on_c, 2, 71, 0
1, 8392, Note_on_c, 2, 68, 0
1, 8400, Note_on_c, 2, 64, 0
1, 8400, Note_on_c, 1, 40, 0
1, 8400, Note_on_c, 9, 42, 0
1, 8416, Note_on_c, 3, 66, 0
1, 8448, Note_on_c, 1, 42, 127
1, 8448, Note_on_c, 2, 71, 64
1, 8448, Note_on_c, 2, 66, 64
1, 8448, Note_on_c, 2, 63, 64
1, 8448, Note_on_c, 3, 76, 127
1, 8448, Note_on_c, 9, 36, 127
1, 8448, Note_on_c, 9, 42, 90
1, 8480, Note_on_c, 2, 66, 0
1, 8480, Note_on_c, 2, 71, 0
1, 8496, Note_on_c, 9, 36, 0
1, 8496, Note_on_c, 2, 63, 0
1, 8496, Note_on_c, 9, 42, 0
1, 8544, Note_on_c, 1, 42, 0
1, 8544, Note_on_c, 2, 71, 64
1, 8544, Note_on_c, 2, 66, 64
1, 8544, Note_on_c, 2, 63, 64
1, 8544, Note_on_c, 9, 42, 90
1, 8576, Note_on_c, 2, 66, 0
1, 8584, Note_on_c, 2, 71, 0
1, 8592, Note_on_c, 3, 76, 0
1, 8592, Note_on_c, 2, 63, 0
1, 8592, Note_on_c, 9, 42, 0
1, 8592, Note_on_c, 3, 75, 127
1, 8640, Note_on_c, 1, 40, 127
1, 8640, Note_on_c, 2, 71, 64
1, 8640, Note_on_c, 2, 66, 64
1, 8640, Note_on_c, 2, 63, 64
1, 8640, Note_on_c, 9, 36, 127
1, 8640, Note_on_c, 9, 38, 127
1, 8640, Note_on_c, 9, 42, 90
1, 8640, Note_on_c, 9, 37, 127
1, 8672, Note_on_c, 2, 66, 0
1, 8680, Note_on_c, 2, 71, 0
1, 8688, Note_on_c, 3, 75, 0
1, 8688, Note_on_c, 9, 36, 0
1, 8688, Note_on_c, 1, 40, 0
1, 8688, Note_on_c, 2, 63, 0
1, 8688, Note_on_c, 9, 37, 0
1, 8688, Note_on_c, 9, 38, 0
1, 8688, Note_on_c, 9, 42, 0
1, 8736, Note_on_c, 1, 42, 127
1, 8736, Note_on_c, 2, 71, 64
1, 8736, Note_on_c, 2, 66, 64
1, 8736, Note_on_c, 2, 63, 64
1, 8736, Note_on_c, 3, 71, 127
1, 8736, Note_on_c, 9, 36, 127
1, 8736, Note_on_c, 9, 42, 90
1, 8776, Note_on_c, 2, 63, 0
1, 8776, Note_on_c, 2, 66, 0
1, 8784, Note_on_c, 2, 71, 0
1, 8784, Note_on_c, 9, 36, 0
1, 8784, Note_on_c, 1, 42, 0
1, 8784, Note_on_c, 9, 42, 0
1, 8832, Note_on_c, 1, 40, 127
1, 8832, Note_on_c, 2, 71, 64
1, 8832, Note_on_c, 2, 66, 64
1, 8832, Note_on_c, 2, 63, 64
1, 8832, Note_on_c, 9, 36, 127
1, 8832, Note_on_c, 9, 42, 90
1, 8872, Note_on_c, 2, 66, 0
1, 8872, Note_on_c, 2, 71, 0
1, 8880, Note_on_c, 9, 36, 0
1, 8880, Note_on_c, 2, 63, 0
1, 8880, Note_on_c, 9, 42, 0
1, 8912, Note_on_c, 3, 71, 0
1, 8928, Note_on_c, 1, 40, 0
1, 8928, Note_on_c, 2, 71, 64
1, 8928, Note_on_c, 2, 66, 64
1, 8928, Note_on_c, 2, 63, 64
1, 8928, Note_on_c, 9, 42, 90
1, 8968, Note_on_c, 2, 66, 0
1, 8968, Note_on_c, 2, 71, 0
1, 8976, Note_on_c, 2, 63, 0
1, 8976, Note_on_c, 9, 42, 0
1, 9024, Note_on_c, 1, 40, 127
1, 9024, Note_on_c, 2, 71, 64
1, 9024, Note_on_c, 2, 66, 64
1, 9024, Note_on_c, 2, 63, 64
1, 9024, Note_on_c, 3, 66, 127
1, 9024, Note_on_c, 9, 36, 127
1, 9024, Note_on_c, 9, 38, 127
1, 9024, Note_on_c, 9, 42, 90
1, 9024, Note_on_c, 9, 37, 127
1, 9064, Note_on_c, 2, 66, 0
1, 9064, Note_on_c, 2, 71, 0
1, 9072, Note_on_c, 1, 40, 0
1, 9072, Note_on_c, 9, 38, 0
1, 9072, Note_on_c, 9, 36, 0
1, 9072, Note_on_c, 2, 63, 0
1, 9072, Note_on_c, 9, 42, 0
1, 9072, Note_on_c, 3, 66, 0
1, 9072, Note_on_c, 9, 37, 0
1, 9072, Note_on_c, 1, 41, 127
1, 9120, Note_on_c, 1, 41, 0
1, 9120, Note_on_c, 1, 42, 127
1, 9120, Note_on_c, 2, 71, 64
1, 9120, Note_on_c, 2, 66, 64
1, 9120, Note_on_c, 2, 63, 64
1, 9120, Note_on_c, 3, 69, 127
1, 9120, Note_on_c, 9, 38, 127
1, 9120, Note_on_c, 9, 44, 90
1, 9160, Note_on_c, 2, 71, 0
1, 9168, Note_on_c, 9, 38, 0
1, 9168, Note_on_c, 2, 66, 0
1, 9168, Note_on_c, 2, 63, 0
1, 9168, Note_on_c, 1, 42, 0
1, 9168, Note_on_c, 9, 44, 0
1, 9168, Note_on_c, 3, 69, 0
1, 9168, Note_on_c, 1, 37, 127
1, 9168, Note_on_c, 9, 36, 127
1, 9168, Note_on_c, 9, 38, 127
1, 9216, Note_on_c, 9, 38, 0
1, 9216, Note_on_c, 9, 36, 0
1, 9216, Note_on_c, 1, 37, 0
1, 9216, Note_on_c, 1, 30, 127
1, 9216, Note_on_c, 2, 73, 64
1, 9216, Note_on_c, 2, 71, 64
1, 9216, Note_on_c, 2, 64, 64
1, 9216, Note_on_c, 3, 71, 127
1, 9216, Note_on_c, 9, 36, 127
1, 9216, Note_on_c, 9, 42, 90
1, 9240, Note_on_c, 2, 73, 0
1, 9248, Note_on_c, 2, 71, 0
1, 9256, Note_on_c, 2, 64, 0
1, 9264, Note_on_c, 1, 30, 0
1, 9264, Note_on_c, 9, 42, 0
1, 9264, Note_on_c, 1, 30, 127
1, 9264, Note_on_c, 2, 71, 64
1, 9264, Note_on_c, 2, 69, 64
1, 9264, Note_on_c, 2, 64, 64
1, 9288, Note_on_c, 2, 71, 0
1, 9296, Note_on_c, 2, 69, 0
1, 9304, Note_on_c, 2, 64, 0
1, 9312, Note_on_c, 9, 36, 0
1, 9312, Note_on_c, 1, 30, 0
1, 9312, Note_on_c, 1, 30, 127
1, 9312, Note_on_c, 2, 71, 64
1, 9312, Note_on_c, 2, 69, 64
1, 9312, Note_on_c, 2, 64, 64
1, 9312, Note_on_c, 9, 42, 90
1, 9336, Note_on_c, 2, 69, 0
1, 9336, Note_on_c, 2, 71, 0
1, 9336, Note_on_c, 3, 71, 0
1, 9360, Note_on_c, 1, 30, 0
1, 9360, Note_on_c, 2, 64, 0
1, 9360, Note_on_c, 9, 42, 0
1, 9408, Note_on_c, 1, 30, 127
1, 9408, Note_on_c, 2, 71, 64
1, 9408, Note_on_c, 2, 69, 64
1, 9408, Note_on_c, 2, 64, 64
1, 9408, Note_on_c, 3, 71, 127
1, 9408, Note_on_c, 9, 36, 127
1, 9408, Note_on_c, 9, 38, 127
1, 9408, Note_on_c, 9, 42, 90
1, 9408, Note_on_c, 9, 37, 127
1, 9432, Note_on_c, 2, 69, 0
1, 9432, Note_on_c, 2, 71, 0
1, 9456, Note_on_c, 1, 30, 0
1, 9456, Note_on_c, 9, 38, 0
1, 9456, Note_on_c, 9, 36, 0
1, 9456, Note_on_c, 9, 37, 0
1, 9456, Note_on_c, 9, 42, 0
1, 9456, Note_on_c, 2, 64, 0
1, 9464, Note_on_c, 3, 71, 0
1, 9504, Note_on_c, 1, 33, 127
1, 9504, Note_on_c, 2, 71, 64
1, 9504, Note_on_c, 2, 69, 64
1, 9504, Note_on_c, 2, 64, 64
1, 9504, Note_on_c, 3, 73, 127
1, 9504, Note_on_c, 9, 36, 127
1, 9504, Note_on_c, 9, 42, 90
1, 9528, Note_on_c, 2, 71, 0
1, 9536, Note_on_c, 2, 69, 0
1, 9544, Note_on_c, 2, 64, 0
1, 9552, Note_on_c, 9, 36, 0
1, 9552, Note_on_c, 1, 33, 0
1, 9552, Note_on_c, 9, 42, 0
1, 9568, Note_on_c, 3, 73, 0
1, 9600, Note_on_c, 1, 35, 127
1, 9600, Note_on_c, 2, 71, 64
1, 9600, Note_on_c, 2, 68, 64
1, 9600, Note_on_c, 2, 64, 64
1, 9600, Note_on_c, 3, 69, 127
1, 9600, Note_on_c, 9, 36, 127
1, 9600, Note_on_c, 9, 42, 90
1, 9624, Note_on_c, 2, 71, 0
1, 9632, Note_on_c, 2, 68, 0
1, 9640, Note_on_c, 2, 64, 0
1, 9648, Note_on_c, 9, 36, 0
1, 9648, Note_on_c, 9, 42, 0
1, 9696, Note_on_c, 1, 35, 0
1, 9696, Note_on_c, 2, 71, 64
1, 9696, Note_on_c, 2, 68, 64
1, 9696, Note_on_c, 2, 64, 64
1, 9696, Note_on_c, 9, 42, 90
1, 9712, Note_on_c, 3, 69, 0
1, 9720, Note_on_c, 2, 71, 0
1, 9728, Note_on_c, 2, 68, 0
1, 9744, Note_on_c, 2, 64, 0
1, 9744, Note_on_c, 9, 42, 0
1, 9744, Note_on_c, 1, 37, 127
1, 9792, Note_on_c, 1, 37, 0
1, 9792, Note_on_c, 2, 71, 64
1, 9792, Note_on_c, 2, 68, 64
1, 9792, Note_on_c, 2, 64, 64
1, 9792, Note_on_c, 3, 66, 127
1, 9792, Note_on_c, 9, 36, 127
1, 9792, Note_on_c, 9, 38, 127
1, 9792, Note_on_c, 9, 42, 90
1, 9792, Note_on_c, 9, 37, 127
1, 9816, Note_on_c, 2, 71, 0
1, 9840, Note_on_c, 9, 37, 0
1, 9840, Note_on_c, 9, 38, 0
1, 9840, Note_on_c, 2, 64, 0
1, 9840, Note_on_c, 2, 68, 0
1, 9840, Note_on_c, 9, 36, 0
1, 9840, Note_on_c, 9, 42, 0
1, 9840, Note_on_c, 1, 33, 127
1, 9856, Note_on_c, 3, 66, 0
1, 9888, Note_on_c, 1, 33, 0
1, 9888, Note_on_c, 1, 30, 127
1, 9888, Note_on_c, 2, 71, 64
1, 9888, Note_on_c, 2, 68, 64
1, 9888, Note_on_c, 2, 64, 64
1, 9888, Note_on_c, 3, 69, 127
1, 9888, Note_on_c, 9, 42, 90
1, 9920, Note_on_c, 2, 71, 0
1, 9928, Note_on_c, 2, 68, 0
1, 9936, Note_on_c, 2, 64, 0
1, 9936, Note_on_c, 9, 42, 0
1, 9944, Note_on_c, 3, 69, 0
1, 9984, Note_on_c, 1, 30, 0
1, 9984, Note_on_c, 2, 71, 64
1, 9984, Note_on_c, 2, 66, 64
1, 9984, Note_on_c, 2, 63, 64
1, 9984, Note_on_c, 3, 71, 127
1, 9984, Note_on_c, 9, 36, 127
1, 9984, Note_on_c, 9, 42, 90
1, 10016, Note_on_c, 2, 66, 0
1, 10016, Note_on_c, 2, 71, 0
1, 10032, Note_on_c, 9, 36, 0
1, 10032, Note_on_c, 2, 63, 0
1, 10032, Note_on_c, 9, 42, 0
1, 10080, Note_on_c, 2, 71, 64
1, 10080, Note_on_c, 2, 66, 64
1, 10080, Note_on_c, 2, 63, 64
1, 10080, Note_on_c, 9, 42, 90
1, 10088, Note_on_c, 3, 71, 0
1, 10112, Note_on_c, 2, 66, 0
1, 10120, Note_on_c, 2, 71, 0
1, 10128, Note_on_c, 9, 42, 0
1, 10128, Note_on_c, 2, 63, 0
1, 10128, Note_on_c, 3, 73, 127
1, 10176, Note_on_c, 2, 71, 64
1, 10176, Note_on_c, 2, 66, 64
1, 10176, Note_on_c, 2, 63, 64
1, 10176, Note_on_c, 9, 36, 127
1, 10176, Note_on_c, 9, 38, 127
1, 10176, Note_on_c, 9, 42, 90
1, 10176, Note_on_c, 9, 37, 127
1, 10208, Note_on_c, 2, 66, 0
1, 10216, Note_on_c, 2, 71, 0
1, 10224, Note_on_c, 9, 42, 0
1, 10224, Note_on_c, 9, 37, 0
1, 10224, Note_on_c, 2, 63, 0
1, 10224, Note_on_c, 9, 36, 0
1, 10224, Note_on_c, 9, 38, 0
1, 10224, Note_on_c, 1, 33, 127
1, 10232, Note_on_c, 3, 73, 0
1, 10272, Note_on_c, 1, 33, 0
1, 10272, Note_on_c, 1, 30, 127
1, 10272, Note_on_c, 2, 71, 64
1, 10272, Note_on_c, 2, 66, 64
1, 10272, Note_on_c, 2, 63, 64
1, 10272, Note_on_c, 3, 69, 127
1, 10272, Note_on_c, 9, 36, 127
1, 10272, Note_on_c, 9, 42, 90
1, 10312, Note_on_c, 2, 63, 0
1, 10312, Note_on_c, 2, 66, 0
1, 10320, Note_on_c, 2, 71, 0
1, 10320, Note_on_c, 9, 36, 0
1, 10320, Note_on_c, 1, 30, 0
1, 10320, Note_on_c, 9, 42, 0
1, 10368, Note_on_c, 1, 28, 127
1, 10368, Note_on_c, 2, 71, 64
1, 10368, Note_on_c, 2, 66, 64
1, 10368, Note_on_c, 2, 63, 64
1, 10368, Note_on_c, 9, 36, 127
1, 10368, Note_on_c, 9, 42, 90
1, 10408, Note_on_c, 2, 66, 0
1, 10408, Note_on_c, 2, 71, 0
1, 10416, Note_on_c, 9, 36, 0
1, 10416, Note_on_c, 2, 63, 0
1, 10416, Note_on_c, 9, 42, 0
1, 10432, Note_on_c, 3, 69, 0
1, 10464, Note_on_c, 1, 28, 0
1, 10464, Note_on_c, 2, 71, 64
1, 10464, Note_on_c, 2, 66, 64
1, 10464, Note_on_c, 2, 63, 64
1, 10464, Note_on_c, 9, 42, 90
1, 10504, Note_on_c, 2, 66, 0
1, 10504, Note_on_c, 2, 71, 0
1, 10512, Note_on_c, 2, 63, 0
1, 10512, Note_on_c, 9, 42, 0
1, 10560, Note_on_c, 1, 28, 127
1, 10560, Note_on_c, 2, 71, 64
1, 10560, Note_on_c, 2, 66, 64
1, 10560, Note_on_c, 2, 63, 64
1, 10560, Note_on_c, 3, 66, 127
1, 10560, Note_on_c, 9, 36, 127
1, 10560, Note_on_c, 9, 38, 127
1, 10560, Note_on_c, 9, 42, 90
1, 10560, Note_on_c, 9, 37, 127
1, 10600, Note_on_c, 2, 66, 0
1, 10600, Note_on_c, 2, 71, 0
1, 10608, Note_on_c, 1, 28, 0
1, 10608, Note_on_c, 9, 38, 0
1, 10608, Note_on_c, 9, 36, 0
1, 10608, Note_on_c, 9, 37, 0
1, 10608, Note_on_c, 9, 42, 0
1, 10608, Note_on_c, 2, 63, 0
1, 10616, Note_on_c, 3, 66, 0
1, 10656, Note_on_c, 1, 28, 127
1, 10656, Note_on_c, 2, 71, 64
1, 10656, Note_on_c, 2, 66, 64
1, 10656, Note_on_c, 2, 63, 64
1, 10656, Note_on_c, 3, 69, 127
1, 10656, Note_on_c, 9, 44, 90
1, 10696, Note_on_c, 2, 71, 0
1, 10704, Note_on_c, 2, 66, 0
1, 10704, Note_on_c, 2, 63, 0
1, 10704, Note_on_c, 1, 28, 0
1, 10704, Note_on_c, 9, 44, 0
1, 10720, Note_on_c, 3, 69, 0
1, 10752, Note_on_c, 1, 30, 127
1, 10752, Note_on_c, 2, 73, 64
1, 10752, Note_on_c, 2, 71, 64
1, 10752, Note_on_c, 2, 64, 64
1, 10752, Note_on_c, 3, 71, 127
1, 10752, Note_on_c, 9, 36, 127
1, 10752, Note_on_c, 9, 42, 90
1, 10776, Note_on_c, 2, 73, 0
1, 10784, Note_on_c, 2, 71, 0
1, 10792, Note_on_c, 2, 64, 0
1, 10800, Note_on_c, 9, 36, 0
1, 10800, Note_on_c, 1, 30, 0
1, 10800, Note_on_c, 9, 42, 0
1, 10800, Note_on_c, 1, 30, 127
1, 10800, Note_on_c, 2, 71, 64
1, 10800, Note_on_c, 2, 69, 64
1, 10800, Note_on_c, 2, 64, 64
1, 10824, Note_on_c, 2, 71, 0
1, 10832, Note_on_c, 2, 69, 0
1, 10840, Note_on_c, 2, 64, 0
1, 10848, Note_on_c, 1, 30, 0
1, 10848, Note_on_c, 1, 30, 127
1, 10848, Note_on_c, 2, 71, 64
1, 10848, Note_on_c, 2, 69, 64
1, 10848, Note_on_c, 2, 64, 64
1, 10848, Note_on_c, 9, 42, 90
1, 10872, Note_on_c, 2, 69, 0
1, 10872, Note_on_c, 2, 71, 0
1, 10872, Note_on_c, 3, 71, 0
1, 10896, Note_on_c, 1, 30, 0
1, 10896, Note_on_c, 2, 64, 0
1, 10896, Note_on_c, 9, 42, 0
1, 10944, Note_on_c, 1, 30, 127
1, 10944, Note_on_c, 2, 71, 64
1, 10944, Note_on_c, 2, 69, 64
1, 10944, Note_on_c, 2, 64, 64
1, 10944, Note_on_c, 3, 71, 127
1, 10944, Note_on_c, 9, 36, 127
1, 10944, Note_on_c, 9, 38, 127
1, 10944, Note_on_c, 9, 42, 90
1, 10944, Note_on_c, 9, 37, 127
1, 10968, Note_on_c, 2, 69, 0
1, 10968, Note_on_c, 2, 71, 0
1, 10992, Note_on_c, 1, 30, 0
1, 10992, Note_on_c, 9, 38, 0
1, 10992, Note_on_c, 9, 36, 0
1, 10992, Note_on_c, 9, 37, 0
1, 10992, Note_on_c, 9, 42, 0
1, 10992, Note_on_c, 2, 64, 0
1, 11008, Note_on_c, 3, 71, 0
1, 11040, Note_on_c, 1, 33, 127
1, 11040, Note_on_c, 2, 71, 64
1, 11040, Note_on_c, 2, 69, 64
1, 11040, Note_on_c, 2, 64, 64
1, 11040, Note_on_c, 3, 73, 127
1, 11040, Note_on_c, 9, 36, 127
1, 11040, Note_on_c, 9, 42, 90
1, 11064, Note_on_c, 2, 71, 0
1, 11072, Note_on_c, 2, 69, 0
1, 11080, Note_on_c, 2, 64, 0
1, 11088, Note_on_c, 9, 36, 0
1, 11088, Note_on_c, 1, 33, 0
1, 11088, Note_on_c, 9, 42, 0
1, 11104, Note_on_c, 3, 73, 0
1, 11136, Note_on_c, 1, 35, 127
1, 11136, Note_on_c, 2, 71, 64
1, 11136, Note_on_c, 2, 68, 64
1, 11136, Note_on_c, 2, 64, 64
1, 11136, Note_on_c, 3, 69, 127
1, 11136, Note_on_c, 9, 36, 127
1, 11136, Note_on_c, 9, 42, 90
1, 11160, Note_on_c, 2, 71, 0
1, 11168, Note_on_c, 2, 68, 0
1, 11176, Note_on_c, 2, 64, 0
1, 11184, Note_on_c, 9, 36, 0
1, 11184, Note_on_c, 9, 42, 0
1, 11232, Note_on_c, 1, 35, 0
1, 11232, Note_on_c, 2, 71, 64
1, 11232, Note_on_c, 2, 68, 64
1, 11232, Note_on_c, 2, 64, 64
1, 11232, Note_on_c, 9, 42, 90
1, 11248, Note_on_c, 3, 69, 0
1, 11256, Note_on_c, 2, 71, 0
1, 11264, Note_on_c, 2, 68, 0
1, 11280, Note_on_c, 2, 64, 0
1, 11280, Note_on_c, 9, 42, 0
1, 11280, Note_on_c, 1, 37, 127
1, 11328, Note_on_c, 2, 71, 64
1, 11328, Note_on_c, 2, 68, 64
1, 11328, Note_on_c, 2, 64, 64
1, 11328, Note_on_c, 3, 69, 127
1, 11328, Note_on_c, 9, 36, 127
1, 11328, Note_on_c, 9, 38, 127
1, 11328, Note_on_c, 9, 42, 90
1, 11328, Note_on_c, 9, 37, 127
1, 11352, Note_on_c, 2, 71, 0
1, 11376, Note_on_c, 2, 64, 0
1, 11376, Note_on_c, 1, 37, 0
1, 11376, Note_on_c, 9, 36, 0
1, 11376, Note_on_c, 2, 68, 0
1, 11376, Note_on_c, 9, 37, 0
1, 11376, Note_on_c, 9, 42, 0
1, 11376, Note_on_c, 9, 38, 0
1, 11400, Note_on_c, 3, 69, 0
1, 11424, Note_on_c, 1, 40, 127
1, 11424, Note_on_c, 2, 71, 64
1, 11424, Note_on_c, 2, 68, 64
1, 11424, Note_on_c, 2, 64, 64
1, 11424, Note_on_c, 3, 66, 127
1, 11424, Note_on_c, 9, 42, 90
1, 11456, Note_on_c, 2, 71, 0
1, 11464, Note_on_c, 2, 68, 0
1, 11472, Note_on_c, 2, 64, 0
1, 11472, Note_on_c, 1, 40, 0
1, 11472, Note_on_c, 9, 42, 0
1, 11496, Note_on_c, 3, 66, 0
1, 11520, Note_on_c, 1, 42, 127
1, 11520, Note_on_c, 2, 71, 64
1, 11520, Note_on_c, 2, 66, 64
1, 11520, Note_on_c, 2, 63, 64
1, 11520, Note_on_c, 3, 76, 127
1, 11520, Note_on_c, 9, 36, 127
1, 11520, Note_on_c, 9, 42, 90
1, 11552, Note_on_c, 2, 66, 0
1, 11552, Note_on_c, 2, 71, 0
1, 11568, Note_on_c, 9, 36, 0
1, 11568, Note_on_c, 2, 63, 0
1, 11568, Note_on_c, 9, 42, 0
1, 11616, Note_on_c, 1, 42, 0
1, 11616, Note_on_c, 2, 71, 64
1, 11616, Note_on_c, 2, 66, 64
1, 11616, Note_on_c, 2, 63, 64
1, 11616, Note_on_c, 9, 42, 90
1, 11648, Note_on_c, 2, 66, 0
1, 11656, Note_on_c, 2, 71, 0
1, 11664, Note_on_c, 9, 42, 0
1, 11664, Note_on_c, 2, 63, 0
1, 11664, Note_on_c, 3, 75, 127
1, 11672, Note_on_c, 3, 76, 0
1, 11712, Note_on_c, 1, 40, 127
1, 11712, Note_on_c, 2, 71, 64
1, 11712, Note_on_c, 2, 66, 64
1, 11712, Note_on_c, 2, 63, 64
1, 11712, Note_on_c, 9, 36, 127
1, 11712, Note_on_c, 9, 38, 127
1, 11712, Note_on_c, 9, 42, 90
1, 11712, Note_on_c, 9, 37, 127
1, 11744, Note_on_c, 2, 66, 0
1, 11752, Note_on_c, 2, 71, 0
1, 11760, Note_on_c, 9, 42, 0
1, 11760, Note_on_c, 9, 36, 0
1, 11760, Note_on_c, 9, 37, 0
1, 11760, Note_on_c, 2, 63, 0
1, 11760, Note_on_c, 9, 38, 0
1, 11776, Note_on_c, 3, 75, 0
1, 11808, Note_on_c, 1, 40, 0
1, 11808, Note_on_c, 1, 42, 127
1, 11808, Note_on_c, 2, 71, 64
1, 11808, Note_on_c, 2, 66, 64
1, 11808, Note_on_c, 2, 63, 64
1, 11808, Note_on_c, 3, 71, 127
1, 11808, Note_on_c, 9, 36, 127
1, 11808, Note_on_c, 9, 42, 90
1, 11848, Note_on_c, 2, 63, 0
1, 11848, Note_on_c, 2, 66, 0
1, 11856, Note_on_c, 2, 71, 0
1, 11856, Note_on_c, 9, 36, 0
1, 11856, Note_on_c, 1, 42, 0
1, 11856, Note_on_c, 9, 42, 0
1, 11904, Note_on_c, 1, 40, 127
1, 11904, Note_on_c, 2, 71, 64
1, 11904, Note_on_c, 2, 66, 64
1, 11904, Note_on_c, 2, 63, 64
1, 11904, Note_on_c, 9, 36, 127
1, 11904, Note_on_c, 9, 42, 90
1, 11944, Note_on_c, 2, 66, 0
1, 11944, Note_on_c, 2, 71, 0
1, 11952, Note_on_c, 9, 36, 0
1, 11952, Note_on_c, 2, 63, 0
1, 11952, Note_on_c, 9, 42, 0
1, 12000, Note_on_c, 1, 40, 0
1, 12000, Note_on_c, 2, 71, 64
1, 12000, Note_on_c, 2, 66, 64
1, 12000, Note_on_c, 2, 63, 64
1, 12000, Note_on_c, 9, 42, 90
1, 12040, Note_on_c, 2, 66, 0
1, 12040, Note_on_c, 2, 71, 0
1, 12048, Note_on_c, 9, 42, 0
1, 12048, Note_on_c, 2, 63, 0
1, 12096, Note_on_c, 1, 40, 127
1, 12096, Note_on_c, 2, 71, 64
1, 12096, Note_on_c, 2, 66, 64
1, 12096, Note_on_c, 2, 63, 64
1, 12096, Note_on_c, 9, 36, 127
1, 12096, Note_on_c, 9, 38, 127
1, 12096, Note_on_c, 9, 42, 90
1, 12096, Note_on_c, 9, 37, 127
1, 12128, Note_on_c, 3, 71, 0
1, 12136, Note_on_c, 2, 66, 0
1, 12136, Note_on_c, 2, 71, 0
1, 12144, Note_on_c, 9, 38, 0
1, 12144, Note_on_c, 9, 36, 0
1, 12144, Note_on_c, 2, 63, 0
1, 12144, Note_on_c, 9, 37, 0
1, 12144, Note_on_c, 1, 40, 0
1, 12144, Note_on_c, 9, 42, 0
1, 12144, Note_on_c, 1, 41, 127
1, 12192, Note_on_c, 1, 41, 0
1, 12192, Note_on_c, 1, 42, 127
1, 12192, Note_on_c, 2, 71, 64
1, 12192, Note_on_c, 2, 66, 64
1, 12192, Note_on_c, 2, 63, 64
1, 12192, Note_on_c, 9, 36, 127
1, 12192, Note_on_c, 9, 38, 127
1, 12192, Note_on_c, 9, 44, 90
1, 12232, Note_on_c, 2, 71, 0
1, 12240, Note_on_c, 9, 38, 0
1, 12240, Note_on_c, 2, 66, 0
1, 12240, Note_on_c, 2, 63, 0
1, 12240, Note_on_c, 1, 42, 0
1, 12240, Note_on_c, 9, 44, 0
1, 12240, Note_on_c, 9, 36, 0
1, 12240, Note_on_c, 1, 37, 127
1, 12240, Note_on_c, 9, 38, 127
1, 12288, Note_on_c, 9, 38, 0
1, 12288, Note_on_c, 1, 37, 0
1, 12288, Note_on_c, 1, 30, 127
1, 12288, Note_on_c, 2, 73, 64
1, 12288, Note_on_c, 2, 71, 64
1, 12288, Note_on_c, 2, 64, 64
1, 12288, Note_on_c, 6, 66, 28
1, 12288, Note_on_c, 9, 36, 127
1, 12288, Note_on_c, 9, 42, 90
1, 12312, Note_on_c, 6, 66, 0
1, 12312, Note_on_c, 2, 73, 0
1, 12320, Note_on_c, 2, 71, 0
1, 12328, Note_on_c, 2, 64, 0
1, 12336, Note_on_c, 1, 30, 0
1, 12336, Note_on_c, 9, 36, 0
1, 12336, Note_on_c, 9, 42, 0
1, 12336, Note_on_c, 1, 30, 127
1, 12336, Note_on_c, 2, 71, 64
1, 12336, Note_on_c, 2, 69, 64
1, 12336, Note_on_c, 2, 64, 64
1, 12336, Note_on_c, 6, 66, 28
1, 12360, Note_on_c, 2, 71, 0
1, 12368, Note_on_c, 6, 66, 0
1, 12368, Note_on_c, 2, 69, 0
1, 12376, Note_on_c, 2, 64, 0
1, 12384, Note_on_c, 1, 30, 0
1, 12384, Note_on_c, 1, 30, 127
1, 12384, Note_on_c, 2, 71, 64
1, 12384, Note_on_c, 2, 69, 64
1, 12384, Note_on_c, 2, 64, 64
1, 12384, Note_on_c, 6, 66, 28
1, 12384, Note_on_c, 9, 42, 90
1, 12408, Note_on_c, 2, 69, 0
1, 12408, Note_on_c, 2, 71, 0
1, 12424, Note_on_c, 6, 66, 0
1, 12432, Note_on_c, 1, 30, 0
1, 12432, Note_on_c, 9, 42, 0
1, 12432, Note_on_c, 2, 64, 0
1, 12480, Note_on_c, 1, 30, 127
1, 12480, Note_on_c, 2, 71, 64
1, 12480, Note_on_c, 2, 69, 64
1, 12480, Note_on_c, 2, 64, 64
1, 12480, Note_on_c, 6, 66, 28
1, 12480, Note_on_c, 9, 36, 127
1, 12480, Note_on_c, 9, 38, 127
1, 12480, Note_on_c, 9, 42, 90
1, 12480, Note_on_c, 9, 37, 127
1, 12504, Note_on_c, 2, 69, 0
1, 12504, Note_on_c, 2, 71, 0
1, 12528, Note_on_c, 1, 30, 0
1, 12528, Note_on_c, 9, 38, 0
1, 12528, Note_on_c, 9, 36, 0
1, 12528, Note_on_c, 2, 64, 0
1, 12528, Note_on_c, 9, 42, 0
1, 12528, Note_on_c, 6, 66, 0
1, 12528, Note_on_c, 9, 37, 0
1, 12576, Note_on_c, 1, 33, 127
1, 12576, Note_on_c, 2, 71, 64
1, 12576, Note_on_c, 2, 69, 64
1, 12576, Note_on_c, 2, 64, 64
1, 12576, Note_on_c, 6, 66, 28
1, 12576, Note_on_c, 9, 36, 127
1, 12576, Note_on_c, 9, 42, 90
1, 12600, Note_on_c, 2, 71, 0
1, 12608, Note_on_c, 6, 66, 0
1, 12608, Note_on_c, 2, 69, 0
1, 12616, Note_on_c, 2, 64, 0
1, 12624, Note_on_c, 1, 33, 0
1, 12624, Note_on_c, 9, 36, 0
1, 12624, Note_on_c, 9, 42, 0
1, 12672, Note_on_c, 1, 35, 127
1, 12672, Note_on_c, 2, 71, 64
1, 12672, Note_on_c, 2, 68, 64
1, 12672, Note_on_c, 2, 64, 64
1, 12672, Note_on_c, 3, 81, 127
1, 12672, Note_on_c, 4, 69, 127
1, 12672, Note_on_c, 6, 66, 28
1, 12672, Note_on_c, 9, 36, 127
1, 12672, Note_on_c, 9, 42, 90
1, 12696, Note_on_c, 2, 71, 0
1, 12704, Note_on_c, 6, 66, 0
1, 12704, Note_on_c, 2, 68, 0
1, 12712, Note_on_c, 2, 64, 0
1, 12720, Note_on_c, 9, 42, 0
1, 12720, Note_on_c, 3, 81, 0
1, 12720, Note_on_c, 4, 69, 0
1, 12720, Note_on_c, 3, 83, 127
1, 12720, Note_on_c, 4, 71, 127
1, 12768, Note_on_c, 4, 71, 0
1, 12768, Note_on_c, 1, 35, 0
1, 12768, Note_on_c, 9, 36, 0
1, 12768, Note_on_c, 3, 83, 0
1, 12768, Note_on_c, 2, 71, 64
1, 12768, Note_on_c, 2, 68, 64
1, 12768, Note_on_c, 2, 64, 64
1, 12768, Note_on_c, 3, 84, 127
1, 12768, Note_on_c, 4, 72, 127
1, 12768, Note_on_c, 9, 42, 90
1, 12792, Note_on_c, 2, 71, 0
1, 12800, Note_on_c, 2, 68, 0
1, 12816, Note_on_c, 4, 72, 0
1, 12816, Note_on_c, 3, 84, 0
1, 12816, Note_on_c, 9, 42, 0
1, 12816, Note_on_c, 2, 64, 0
1, 12816, Note_on_c, 1, 37, 127
1, 12816, Note_on_c, 3, 85, 127
1, 12816, Note_on_c, 4, 73, 127
1, 12816, Note_on_c, 6, 66, 28
1, 12848, Note_on_c, 6, 66, 0
1, 12864, Note_on_c, 2, 71, 64
1, 12864, Note_on_c, 2, 68, 64
1, 12864, Note_on_c, 2, 64, 64
1, 12864, Note_on_c, 9, 36, 127
1, 12864, Note_on_c, 9, 38, 127
1, 12864, Note_on_c, 9, 42, 90
1, 12864, Note_on_c, 9, 37, 127
1, 12888, Note_on_c, 2, 71, 0
1, 12912, Note_on_c, 1, 37, 0
1, 12912, Note_on_c, 2, 68, 0
1, 12912, Note_on_c, 9, 37, 0
1, 12912, Note_on_c, 2, 64, 0
1, 12912, Note_on_c, 9, 38, 0
1, 12912, Note_on_c, 9, 42, 0
1, 12912, Note_on_c, 9, 36, 0
1, 12912, Note_on_c, 1, 33, 127
1, 12912, Note_on_c, 6, 66, 28
1, 12928, Note_on_c, 6, 66, 0
1, 12960, Note_on_c, 4, 73, 0
1, 12960, Note_on_c, 3, 85, 0
1, 12960, Note_on_c, 1, 33, 0
1, 12960, Note_on_c, 1, 30, 127
1, 12960, Note_on_c, 2, 71, 64
1, 12960, Note_on_c, 2, 68, 64
1, 12960, Note_on_c, 2, 64, 64
1, 12960, Note_on_c, 6, 66, 28
1, 12960, Note_on_c, 9, 36, 127
1, 12960, Note_on_c, 9, 42, 90
1, 12984, Note_on_c, 6, 66, 0
1, 12992, Note_on_c, 2, 71, 0
1, 13000, Note_on_c, 2, 68, 0
1, 13008, Note_on_c, 2, 64, 0
1, 13008, Note_on_c, 9, 42, 0
1, 13008, Note_on_c, 9, 36, 0
1, 13056, Note_on_c, 1, 30, 0
1, 13056, Note_on_c, 2, 71, 64
1, 13056, Note_on_c, 2, 66, 64
1, 13056, Note_on_c, 2, 63, 64
1, 13056, Note_on_c, 3, 81, 127
1, 13056, Note_on_c, 4, 69, 127
1, 13056, Note_on_c, 9, 36, 127
1, 13056, Note_on_c, 9, 42, 90
1, 13088, Note_on_c, 2, 66, 0
1, 13088, Note_on_c, 2, 71, 0
1, 13104, Note_on_c, 2, 63, 0
1, 13104, Note_on_c, 4, 69, 0
1, 13104, Note_on_c, 3, 81, 0
1, 13104, Note_on_c, 9, 42, 0
1, 13104, Note_on_c, 9, 36, 0
1, 13104, Note_on_c, 3, 83, 127
1, 13104, Note_on_c, 4, 71, 127
1, 13152, Note_on_c, 4, 71, 0
1, 13152, Note_on_c, 3, 83, 0
1, 13152, Note_on_c, 2, 71, 64
1, 13152, Note_on_c, 2, 66, 64
1, 13152, Note_on_c, 2, 63, 64
1, 13152, Note_on_c, 3, 84, 127
1, 13152, Note_on_c, 4, 72, 127
1, 13152, Note_on_c, 9, 42, 90
1, 13184, Note_on_c, 2, 66, 0
1, 13192, Note_on_c, 2, 71, 0
1, 13200, Note_on_c, 4, 72, 0
1, 13200, Note_on_c, 3, 84, 0
1, 13200, Note_on_c, 9, 42, 0
1, 13200, Note_on_c, 2, 63, 0
1, 13200, Note_on_c, 3, 85, 127
1, 13200, Note_on_c, 4, 73, 127
1, 13200, Note_on_c, 6, 66, 28
1, 13208, Note_on_c, 6, 66, 0
1, 13248, Note_on_c, 2, 71, 64
1, 13248, Note_on_c, 2, 66, 64
1, 13248, Note_on_c, 2, 63, 64
1, 13248, Note_on_c, 9, 36, 127
1, 13248, Note_on_c, 9, 38, 127
1, 13248, Note_on_c, 9, 42, 90
1, 13248, Note_on_c, 9, 37, 127
1, 13280, Note_on_c, 2, 66, 0
1, 13288, Note_on_c, 2, 71, 0
1, 13296, Note_on_c, 9, 42, 0
1, 13296, Note_on_c, 9, 36, 0
1, 13296, Note_on_c, 9, 37, 0
1, 13296, Note_on_c, 2, 63, 0
1, 13296, Note_on_c, 9, 38, 0
1, 13296, Note_on_c, 1, 33, 127
1, 13296, Note_on_c, 6, 66, 28
1, 13344, Note_on_c, 6, 66, 0
1, 13344, Note_on_c, 4, 73, 0
1, 13344, Note_on_c, 3, 85, 0
1, 13344, Note_on_c, 1, 33, 0
1, 13344, Note_on_c, 1, 30, 127
1, 13344, Note_on_c, 2, 71, 64
1, 13344, Note_on_c, 2, 66, 64
1, 13344, Note_on_c, 2, 63, 64
1, 13344, Note_on_c, 9, 36, 127
1, 13344, Note_on_c, 9, 42, 90
1, 13384, Note_on_c, 2, 63, 0
1, 13384, Note_on_c, 2, 66, 0
1, 13392, Note_on_c, 9, 36, 0
1, 13392, Note_on_c, 2, 71, 0
1, 13392, Note_on_c, 9, 42, 0
1, 13440, Note_on_c, 1, 30, 0
1, 13440, Note_on_c, 1, 28, 127
1, 13440, Note_on_c, 2, 71, 64
1, 13440, Note_on_c, 2, 66, 64
1, 13440, Note_on_c, 2, 63, 64
1, 13440, Note_on_c, 5, 69, 127
1, 13440, Note_on_c, 6, 73, 28
1, 13440, Note_on_c, 9, 36, 127
1, 13440, Note_on_c, 9, 42, 90
1, 13480, Note_on_c, 2, 66, 0
1, 13480, Note_on_c, 2, 71, 0
1, 13488, Note_on_c, 9, 42, 0
1, 13488, Note_on_c, 2, 63, 0
1, 13488, Note_on_c, 9, 36, 0
1, 13536, Note_on_c, 1, 28, 0
1, 13536, Note_on_c, 2, 71, 64
1, 13536, Note_on_c, 2, 66, 64
1, 13536, Note_on_c, 2, 63, 64
1, 13536, Note_on_c, 9, 42, 90
1, 13576, Note_on_c, 2, 66, 0
1, 13576, Note_on_c, 2, 71, 0
1, 13584, Note_on_c, 2, 63, 0
1, 13584, Note_on_c, 9, 42, 0
1, 13584, Note_on_c, 9, 36, 127
1, 13632, Note_on_c, 9, 36, 0
1, 13632, Note_on_c, 6, 73, 0
1, 13632, Note_on_c, 5, 69, 0
1, 13632, Note_on_c, 1, 28, 127
1, 13632, Note_on_c, 2, 71, 64
1, 13632, Note_on_c, 2, 66, 64
1, 13632, Note_on_c, 2, 63, 64
1, 13632, Note_on_c, 6, 71, 28
1, 13632, Note_on_c, 9, 38, 127
1, 13632, Note_on_c, 9, 42, 90
1, 13632, Note_on_c, 9, 37, 127
1, 13640, Note_on_c, 5, 71, 127
1, 13672, Note_on_c, 2, 66, 0
1, 13672, Note_on_c, 2, 71, 0
1, 13680, Note_on_c, 1, 28, 0
1, 13680, Note_on_c, 9, 42, 0
1, 13680, Note_on_c, 9, 37, 0
1, 13680, Note_on_c, 2, 63, 0
1, 13680, Note_on_c, 9, 38, 0
1, 13720, Note_on_c, 6, 71, 0
1, 13728, Note_on_c, 1, 28, 127
1, 13728, Note_on_c, 2, 71, 64
1, 13728, Note_on_c, 2, 66, 64
1, 13728, Note_on_c, 2, 63, 64
1, 13728, Note_on_c, 6, 69, 28
1, 13728, Note_on_c, 9, 36, 127
1, 13728, Note_on_c, 9, 38, 127
1, 13728, Note_on_c, 9, 44, 90
1, 13768, Note_on_c, 2, 71, 0
1, 13776, Note_on_c, 2, 63, 0
1, 13776, Note_on_c, 9, 44, 0
1, 13776, Note_on_c, 1, 28, 0
1, 13776, Note_on_c, 9, 38, 0
1, 13776, Note_on_c, 2, 66, 0
1, 13776, Note_on_c, 9, 36, 0
1, 13776, Note_on_c, 9, 38, 127
1, 13800, Note_on_c, 5, 71, 0
1, 13824, Note_on_c, 9, 38, 0
1, 13824, Note_on_c, 6, 69, 0
1, 13824, Note_on_c, 1, 30, 127
1, 13824, Note_on_c, 2, 73, 64
1, 13824, Note_on_c, 2, 71, 64
1, 13824, Note_on_c, 2, 64, 64
1, 13824, Note_on_c, 5, 73, 127
1, 13824, Note_on_c, 6, 66, 28
1, 13824, Note_on_c, 9, 36, 127
1, 13824, Note_on_c, 9, 42, 90
1, 13848, Note_on_c, 2, 73, 0
1, 13856, Note_on_c, 2, 71, 0
1, 13864, Note_on_c, 2, 64, 0
1, 13864, Note_on_c, 6, 66, 0
1, 13872, Note_on_c, 9, 36, 0
1, 13872, Note_on_c, 9, 42, 0
1, 13872, Note_on_c, 1, 30, 0
1, 13872, Note_on_c, 1, 30, 127
1, 13872, Note_on_c, 2, 71, 64
1, 13872, Note_on_c, 2, 69, 64
1, 13872, Note_on_c, 2, 64, 64
1, 13896, Note_on_c, 2, 71, 0
1, 13904, Note_on_c, 2, 69, 0
1, 13904, Note_on_c, 5, 73, 0
1, 13912, Note_on_c, 2, 64, 0
1, 13920, Note_on_c, 1, 30, 0
1, 13920, Note_on_c, 1, 30, 127
1, 13920, Note_on_c, 2, 71, 64
1, 13920, Note_on_c, 2, 69, 64
1, 13920, Note_on_c, 2, 64, 64
1, 13920, Note_on_c, 9, 42, 90
1, 13928, Note_on_c, 5, 73, 127
1, 13944, Note_on_c, 2, 69, 0
1, 13944, Note_on_c, 2, 71, 0
1, 13968, Note_on_c, 2, 64, 0
1, 13968, Note_on_c, 1, 30, 0
1, 13968, Note_on_c, 9, 42, 0
1, 13968, Note_on_c, 6, 66, 28
1, 14016, Note_on_c, 6, 66, 0
1, 14016, Note_on_c, 5, 73, 0
1, 14016, Note_on_c, 1, 30, 127
1, 14016, Note_on_c, 2, 71, 64
1, 14016, Note_on_c, 2, 69, 64
1, 14016, Note_on_c, 2, 64, 64
1, 14016, Note_on_c, 9, 36, 127
1, 14016, Note_on_c, 9, 38, 127
1, 14016, Note_on_c, 9, 42, 90
1, 14016, Note_on_c, 9, 37, 127
1, 14040, Note_on_c, 2, 69, 0
1, 14040, Note_on_c, 2, 71, 0
1, 14064, Note_on_c, 9, 42, 0
1, 14064, Note_on_c, 9, 38, 0
1, 14064, Note_on_c, 2, 64, 0
1, 14064, Note_on_c, 9, 36, 0
1, 14064, Note_on_c, 1, 30, 0
1, 14064, Note_on_c, 9, 37, 0
1, 14112, Note_on_c, 1, 33, 127
1, 14112, Note_on_c, 2, 71, 64
1, 14112, Note_on_c, 2, 69, 64
1, 14112, Note_on_c, 2, 64, 64
1, 14112, Note_on_c, 6, 66, 28
1, 14112, Note_on_c, 9, 36, 127
1, 14112, Note_on_c, 9, 42, 90
1, 14128, Note_on_c, 6, 66, 0
1, 14136, Note_on_c, 2, 71, 0
1, 14144, Note_on_c, 2, 69, 0
1, 14152, Note_on_c, 2, 64, 0
1, 14160, Note_on_c, 1, 33, 0
1, 14160, Note_on_c, 9, 36, 0
1, 14160, Note_on_c, 9, 42, 0
1, 14208, Note_on_c, 1, 35, 127
1, 14208, Note_on_c, 2, 71, 64
1, 14208, Note_on_c, 2, 68, 64
1, 14208, Note_on_c, 2, 64, 64
1, 14208, Note_on_c, 3, 81, 127
1, 14208, Note_on_c, 4, 69, 127
1, 14208, Note_on_c, 6, 66, 28
1, 14208, Note_on_c, 9, 36, 127
1, 14208, Note_on_c, 9, 42, 90
1, 14232, Note_on_c, 2, 71, 0
1, 14240, Note_on_c, 2, 68, 0
1, 14248, Note_on_c, 2, 64, 0
1, 14248, Note_on_c, 6, 66, 0
1, 14256, Note_on_c, 9, 42, 0
1, 14256, Note_on_c, 3, 81, 0
1, 14256, Note_on_c, 4, 69, 0
1, 14256, Note_on_c, 3, 83, 127
1, 14256, Note_on_c, 4, 71, 127
1, 14256, Note_on_c, 6, 69, 28
1, 14288, Note_on_c, 6, 69, 0
1, 14304, Note_on_c, 3, 83, 0
1, 14304, Note_on_c, 9, 36, 0
1, 14304, Note_on_c, 1, 35, 0
1, 14304, Note_on_c, 4, 71, 0
1, 14304, Note_on_c, 2, 71, 64
1, 14304, Note_on_c, 2, 68, 64
1, 14304, Note_on_c, 2, 64, 64
1, 14304, Note_on_c, 3, 84, 127
1, 14304, Note_on_c, 4, 72, 127
1, 14304, Note_on_c, 6, 71, 28
1, 14304, Note_on_c, 9, 42, 90
1, 14328, Note_on_c, 6, 71, 0
1, 14328, Note_on_c, 2, 71, 0
1, 14336, Note_on_c, 2, 68, 0
1, 14352, Note_on_c, 4, 72, 0
1, 14352, Note_on_c, 3, 84, 0
1, 14352, Note_on_c, 9, 42, 0
1, 14352, Note_on_c, 2, 64, 0
1, 14352, Note_on_c, 1, 37, 127
1, 14352, Note_on_c, 3, 85, 127
1, 14352, Note_on_c, 4, 73, 127
1, 14352, Note_on_c, 6, 73, 28
1, 14400, Note_on_c, 2, 71, 64
1, 14400, Note_on_c, 2, 68, 64
1, 14400, Note_on_c, 2, 64, 64
1, 14400, Note_on_c, 9, 36, 127
1, 14400, Note_on_c, 9, 38, 127
1, 14400, Note_on_c, 9, 42, 90
1, 14400, Note_on_c, 9, 37, 127
1, 14416, Note_on_c, 6, 73, 0
1, 14424, Note_on_c, 2, 71, 0
1, 14448, Note_on_c, 4, 73, 0
1, 14448, Note_on_c, 9, 36, 0
1, 14448, Note_on_c, 9, 42, 0
1, 14448, Note_on_c, 2, 68, 0
1, 14448, Note_on_c, 1, 37, 0
1, 14448, Note_on_c, 9, 37, 0
1, 14448, Note_on_c, 9, 38, 0
1, 14448, Note_on_c, 2, 64, 0
1, 14456, Note_on_c, 5, 69, 127
1, 14488, Note_on_c, 5, 69, 0
1, 14496, Note_on_c, 3, 85, 0
1, 14496, Note_on_c, 1, 40, 127
1, 14496, Note_on_c, 2, 71, 64
1, 14496, Note_on_c, 2, 68, 64
1, 14496, Note_on_c, 2, 64, 64
1, 14496, Note_on_c, 9, 36, 127
1, 14496, Note_on_c, 9, 42, 90
1, 14504, Note_on_c, 5, 71, 127
1, 14528, Note_on_c, 2, 71, 0
1, 14536, Note_on_c, 2, 68, 0
1, 14544, Note_on_c, 9, 42, 0
1, 14544, Note_on_c, 2, 64, 0
1, 14544, Note_on_c, 1, 40, 0
1, 14544, Note_on_c, 5, 71, 0
1, 14544, Note_on_c, 9, 36, 0
1, 14560, Note_on_c, 5, 73, 127
1, 14592, Note_on_c, 1, 42, 127
1, 14592, Note_on_c, 2, 71, 64
1, 14592, Note_on_c, 2, 66, 64
1, 14592, Note_on_c, 2, 63, 64
1, 14592, Note_on_c, 6, 66, 28
1, 14592, Note_on_c, 9, 36, 127
1, 14592, Note_on_c, 9, 42, 90
1, 14608, Note_on_c, 6, 66, 0
1, 14616, Note_on_c, 5, 73, 0
1, 14624, Note_on_c, 2, 66, 0
1, 14624, Note_on_c, 2, 71, 0
1, 14640, Note_on_c, 2, 63, 0
1, 14640, Note_on_c, 9, 42, 0
1, 14640, Note_on_c, 6, 69, 28
1, 14648, Note_on_c, 6, 69, 0
1, 14688, Note_on_c, 1, 42, 0
1, 14688, Note_on_c, 2, 71, 64
1, 14688, Note_on_c, 2, 66, 64
1, 14688, Note_on_c, 2, 63, 64
1, 14688, Note_on_c, 6, 71, 28
1, 14688, Note_on_c, 9, 42, 90
1, 14704, Note_on_c, 6, 71, 0
1, 14704, Note_on_c, 5, 73, 127
1, 14720, Note_on_c, 2, 66, 0
1, 14728, Note_on_c, 2, 71, 0
1, 14736, Note_on_c, 2, 63, 0
1, 14736, Note_on_c, 9, 36, 0
1, 14736, Note_on_c, 9, 42, 0
1, 14736, Note_on_c, 6, 73, 28
1, 14784, Note_on_c, 6, 73, 0
1, 14784, Note_on_c, 1, 40, 127
1, 14784, Note_on_c, 2, 71, 64
1, 14784, Note_on_c, 2, 66, 64
1, 14784, Note_on_c, 2, 63, 64
1, 14784, Note_on_c, 9, 36, 127
1, 14784, Note_on_c, 9, 38, 127
1, 14784, Note_on_c, 9, 42, 90
1, 14784, Note_on_c, 9, 37, 127
1, 14808, Note_on_c, 5, 73, 0
1, 14816, Note_on_c, 2, 66, 0
1, 14824, Note_on_c, 2, 71, 0
1, 14832, Note_on_c, 9, 38, 0
1, 14832, Note_on_c, 9, 36, 0
1, 14832, Note_on_c, 2, 63, 0
1, 14832, Note_on_c, 9, 37, 0
1, 14832, Note_on_c, 1, 40, 0
1, 14832, Note_on_c, 9, 42, 0
1, 14832, Note_on_c, 5, 71, 127
1, 14832, Note_on_c, 6, 73, 28
1, 14856, Note_on_c, 6, 73, 0
1, 14880, Note_on_c, 1, 42, 127
1, 14880, Note_on_c, 2, 71, 64
1, 14880, Note_on_c, 2, 66, 64
1, 14880, Note_on_c, 2, 63, 64
1, 14880, Note_on_c, 9, 36, 127
1, 14880, Note_on_c, 9, 42, 90
1, 14920, Note_on_c, 2, 63, 0
1, 14920, Note_on_c, 2, 66, 0
1, 14928, Note_on_c, 1, 42, 0
1, 14928, Note_on_c, 2, 71, 0
1, 14928, Note_on_c, 9, 36, 0
1, 14928, Note_on_c, 9, 42, 0
1, 14952, Note_on_c, 5, 71, 0
1, 14976, Note_on_c, 1, 40, 127
1, 14976, Note_on_c, 2, 71, 64
1, 14976, Note_on_c, 2, 66, 64
1, 14976, Note_on_c, 2, 63, 64
1, 14976, Note_on_c, 9, 36, 127
1, 14976, Note_on_c, 9, 42, 90
1, 14984, Note_on_c, 5, 71, 127
1, 15016, Note_on_c, 2, 66, 0
1, 15016, Note_on_c, 2, 71, 0
1, 15024, Note_on_c, 2, 63, 0
1, 15024, Note_on_c, 9, 42, 0
1, 15072, Note_on_c, 1, 40, 0
1, 15072, Note_on_c, 9, 36, 0
1, 15072, Note_on_c, 2, 71, 64
1, 15072, Note_on_c, 2, 66, 64
1, 15072, Note_on_c, 2, 63, 64
1, 15072, Note_on_c, 6, 69, 28
1, 15072, Note_on_c, 9, 42, 90
1, 15112, Note_on_c, 6, 69, 0
1, 15112, Note_on_c, 2, 66, 0
1, 15112, Note_on_c, 2, 71, 0
1, 15120, Note_on_c, 9, 42, 0
1, 15120, Note_on_c, 2, 63, 0
1, 15120, Note_on_c, 6, 71, 28
1, 15120, Note_on_c, 9, 36, 127
1, 15144, Note_on_c, 5, 71, 0
1, 15152, Note_on_c, 6, 71, 0
1, 15168, Note_on_c, 9, 36, 0
1, 15168, Note_on_c, 1, 40, 127
1, 15168, Note_on_c, 2, 71, 64
1, 15168, Note_on_c, 2, 66, 64
1, 15168, Note_on_c, 2, 63, 64
1, 15168, Note_on_c, 5, 69, 127
1, 15168, Note_on_c, 9, 36, 127
1, 15168, Note_on_c, 9, 38, 127
1, 15168, Note_on_c, 9, 42, 90
1, 15168, Note_on_c, 9, 37, 127
1, 15200, Note_on_c, 5, 69, 0
1, 15208, Note_on_c, 2, 66, 0
1, 15208, Note_on_c, 2, 71, 0
1, 15208, Note_on_c, 5, 66, 127
1, 15216, Note_on_c, 9, 38, 0
1, 15216, Note_on_c, 9, 42, 0
1, 15216, Note_on_c, 9, 36, 0
1, 15216, Note_on_c, 2, 63, 0
1, 15216, Note_on_c, 9, 37, 0
1, 15216, Note_on_c, 1, 40, 0
1, 15216, Note_on_c, 1, 41, 127
1, 15216, Note_on_c, 6, 73, 28
1, 15216, Note_on_c, 6, 73, 0
1, 15264, Note_on_c, 1, 41, 0
1, 15264, Note_on_c, 1, 42, 127
1, 15264, Note_on_c, 2, 71, 64
1, 15264, Note_on_c, 2, 66, 64
1, 15264, Note_on_c, 2, 63, 64
1, 15264, Note_on_c, 9, 36, 127
1, 15264, Note_on_c, 9, 38, 127
1, 15264, Note_on_c, 9, 44, 90
1, 15304, Note_on_c, 2, 71, 0
1, 15312, Note_on_c, 9, 44, 0
1, 15312, Note_on_c, 9, 36, 0
1, 15312, Note_on_c, 1, 42, 0
1, 15312, Note_on_c, 2, 66, 0
1, 15312, Note_on_c, 2, 63, 0
1, 15312, Note_on_c, 9, 38, 0
1, 15312, Note_on_c, 1, 37, 127
1, 15312, Note_on_c, 6, 73, 28
1, 15312, Note_on_c, 9, 38, 127
1, 15360, Note_on_c, 9, 38, 0
1, 15360, Note_on_c, 1, 37, 0
1, 15360, Note_on_c, 1, 30, 127
1, 15360, Note_on_c, 2, 73, 64
1, 15360, Note_on_c, 2, 71, 64
1, 15360, Note_on_c, 2, 64, 64
1, 15360, Note_on_c, 9, 36, 127
1, 15360, Note_on_c, 9, 42, 90
1, 15376, Note_on_c, 5, 66, 0
1, 15384, Note_on_c, 2, 73, 0
1, 15392, Note_on_c, 2, 71, 0
1, 15400, Note_on_c, 2, 64, 0
1, 15408, Note_on_c, 9, 42, 0
1, 15408, Note_on_c, 1, 30, 0
1, 15408, Note_on_c, 1, 30, 127
1, 15408, Note_on_c, 2, 71, 64
1, 15408, Note_on_c, 2, 69, 64
1, 15408, Note_on_c, 2, 64, 64
1, 15408, Note_on_c, 6, 73, 28
1, 15416, Note_on_c, 6, 73, 0
1, 15432, Note_on_c, 2, 71, 0
1, 15440, Note_on_c, 2, 69, 0
1, 15448, Note_on_c, 2, 64, 0
1, 15456, Note_on_c, 9, 36, 0
1, 15456, Note_on_c, 1, 30, 0
1, 15456, Note_on_c, 1, 30, 127
1, 15456, Note_on_c, 2, 71, 64
1, 15456, Note_on_c, 2, 69, 64
1, 15456, Note_on_c, 2, 64, 64
1, 15456, Note_on_c, 9, 42, 90
1, 15480, Note_on_c, 2, 69, 0
1, 15480, Note_on_c, 2, 71, 0
1, 15504, Note_on_c, 2, 64, 0
1, 15504, Note_on_c, 1, 30, 0
1, 15504, Note_on_c, 9, 42, 0
1, 15552, Note_on_c, 1, 30, 127
1, 15552, Note_on_c, 2, 71, 64
1, 15552, Note_on_c, 2, 69, 64
1, 15552, Note_on_c, 2, 64, 64
1, 15552, Note_on_c, 9, 36, 127
1, 15552, Note_on_c, 9, 38, 127
1, 15552, Note_on_c, 9, 42, 90
1, 15552, Note_on_c, 9, 37, 127
1, 15576, Note_on_c, 2, 69, 0
1, 15576, Note_on_c, 2, 71, 0
1, 15600, Note_on_c, 9, 42, 0
1, 15600, Note_on_c, 9, 36, 0
1, 15600, Note_on_c, 1, 30, 0
1, 15600, Note_on_c, 2, 64, 0
1, 15600, Note_on_c, 9, 37, 0
1, 15600, Note_on_c, 9, 38, 0
1, 15648, Note_on_c, 1, 33, 127
1, 15648, Note_on_c, 2, 71, 64
1, 15648, Note_on_c, 2, 69, 64
1, 15648, Note_on_c, 2, 64, 64
1, 15648, Note_on_c, 9, 36, 127
1, 15648, Note_on_c, 9, 42, 90
1, 15672, Note_on_c, 2, 71, 0
1, 15680, Note_on_c, 2, 69, 0
1, 15688, Note_on_c, 2, 64, 0
1, 15696, Note_on_c, 9, 36, 0
1, 15696, Note_on_c, 1, 33, 0
1, 15696, Note_on_c, 9, 42, 0
1, 15744, Note_on_c, 1, 35, 127
1, 15744, Note_on_c, 2, 71, 64
1, 15744, Note_on_c, 2, 68, 64
1, 15744, Note_on_c, 2, 64, 64
1, 15744, Note_on_c, 3, 81, 127
1, 15744, Note_on_c, 4, 69, 127
1, 15744, Note_on_c, 6, 73, 28
1, 15744, Note_on_c, 9, 36, 127
1, 15744, Note_on_c, 9, 42, 90
1, 15768, Note_on_c, 2, 71, 0
1, 15776, Note_on_c, 2, 68, 0
1, 15776, Note_on_c, 6, 73, 0
1, 15784, Note_on_c, 2, 64, 0
1, 15792, Note_on_c, 4, 69, 0
1, 15792, Note_on_c, 9, 42, 0
1, 15792, Note_on_c, 3, 81, 0
1, 15792, Note_on_c, 3, 83, 127
1, 15792, Note_on_c, 4, 71, 127
1, 15792, Note_on_c, 6, 71, 28
1, 15824, Note_on_c, 6, 71, 0
1, 15840, Note_on_c, 3, 83, 0
1, 15840, Note_on_c, 1, 35, 0
1, 15840, Note_on_c, 4, 71, 0
1, 15840, Note_on_c, 2, 71, 64
1, 15840, Note_on_c, 2, 68, 64
1, 15840, Note_on_c, 2, 64, 64
1, 15840, Note_on_c, 3, 84, 127
1, 15840, Note_on_c, 4, 72, 127
1, 15840, Note_on_c, 6, 69, 28
1, 15840, Note_on_c, 9, 42, 90
1, 15864, Note_on_c, 6, 69, 0
1, 15864, Note_on_c, 2, 71, 0
1, 15872, Note_on_c, 2, 68, 0
1, 15888, Note_on_c, 3, 84, 0
1, 15888, Note_on_c, 9, 36, 0
1, 15888, Note_on_c, 2, 64, 0
1, 15888, Note_on_c, 9, 42, 0
1, 15888, Note_on_c, 4, 72, 0
1, 15888, Note_on_c, 1, 37, 127
1, 15888, Note_on_c, 3, 85, 127
1, 15888, Note_on_c, 4, 73, 127
1, 15888, Note_on_c, 6, 66, 28
1, 15936, Note_on_c, 6, 66, 0
1, 15936, Note_on_c, 1, 37, 0
1, 15936, Note_on_c, 2, 71, 64
1, 15936, Note_on_c, 2, 68, 64
1, 15936, Note_on_c, 2, 64, 64
1, 15936, Note_on_c, 9, 36, 127
1, 15936, Note_on_c, 9, 38, 127
1, 15936, Note_on_c, 9, 42, 90
1, 15936, Note_on_c, 9, 37, 127
1, 15960, Note_on_c, 2, 71, 0
1, 15984, Note_on_c, 9, 37, 0
1, 15984, Note_on_c, 9, 38, 0
1, 15984, Note_on_c, 2, 68, 0
1, 15984, Note_on_c, 2, 64, 0
1, 15984, Note_on_c, 9, 42, 0
1, 15984, Note_on_c, 9, 36, 0
1, 15984, Note_on_c, 1, 33, 127
1, 16032, Note_on_c, 1, 33, 0
1, 16032, Note_on_c, 3, 85, 0
1, 16032, Note_on_c, 4, 73, 0
1, 16032, Note_on_c, 1, 30, 127
1, 16032, Note_on_c, 2, 71, 64
1, 16032, Note_on_c, 2, 68, 64
1, 16032, Note_on_c, 2, 64, 64
1, 16032, Note_on_c, 9, 42, 90
1, 16064, Note_on_c, 2, 71, 0
1, 16072, Note_on_c, 2, 68, 0
1, 16080, Note_on_c, 2, 64, 0
1, 16080, Note_on_c, 9, 42, 0
1, 16128, Note_on_c, 1, 30, 0
1, 16128, Note_on_c, 2, 71, 64
1, 16128, Note_on_c, 2, 66, 64
1, 16128, Note_on_c, 2, 63, 64
1, 16128, Note_on_c, 3, 81, 127
1, 16128, Note_on_c, 4, 69, 127
1, 16128, Note_on_c, 6, 73, 28
1, 16128, Note_on_c, 9, 36, 127
1, 16128, Note_on_c, 9, 42, 90
1, 16152, Note_on_c, 6, 73, 0
1, 16160, Note_on_c, 2, 71, 0
1, 16160, Note_on_c, 2, 66, 0
1, 16176, Note_on_c, 9, 36, 0
1, 16176, Note_on_c, 4, 69, 0
1, 16176, Note_on_c, 3, 81, 0
1, 16176, Note_on_c, 9, 42, 0
1, 16176, Note_on_c, 2, 63, 0
1, 16176, Note_on_c, 3, 83, 127
1, 16176, Note_on_c, 4, 71, 127
1, 16176, Note_on_c, 6, 71, 28
1, 16200, Note_on_c, 6, 71, 0
1, 16224, Note_on_c, 4, 71, 0
1, 16224, Note_on_c, 3, 83, 0
1, 16224, Note_on_c, 2, 71, 64
1, 16224, Note_on_c, 2, 66, 64
1, 16224, Note_on_c, 2, 63, 64
1, 16224, Note_on_c, 3, 84, 127
1, 16224, Note_on_c, 4, 72, 127
1, 16224, Note_on_c, 6, 69, 28
1, 16224, Note_on_c, 9, 42, 90
1, 16248, Note_on_c, 6, 69, 0
1, 16256, Note_on_c, 2, 66, 0
1, 16264, Note_on_c, 2, 71, 0
1, 16272, Note_on_c, 9, 42, 0
1, 16272, Note_on_c, 2, 63, 0
1, 16272, Note_on_c, 3, 84, 0
1, 16272, Note_on_c, 4, 72, 0
1, 16272, Note_on_c, 3, 85, 127
1, 16272, Note_on_c, 3, 85, 127
1, 16272, Note_on_c, 4, 73, 127
1, 16272, Note_on_c, 6, 66, 28
1, 16304, Note_on_c, 6, 66, 0
1, 16320, Note_on_c, 3, 85, 0
1, 16320, Note_on_c, 2, 71, 64
1, 16320, Note_on_c, 2, 66, 64
1, 16320, Note_on_c, 2, 63, 64
1, 16320, Note_on_c, 9, 36, 127
1, 16320, Note_on_c, 9, 38, 127
1, 16320, Note_on_c, 9, 42, 90
1, 16320, Note_on_c, 9, 37, 127
1, 16352, Note_on_c, 2, 66, 0
1, 16360, Note_on_c, 2, 71, 0
1, 16368, Note_on_c, 9, 42, 0
1, 16368, Note_on_c, 9, 38, 0
1, 16368, Note_on_c, 2, 63, 0
1, 16368, Note_on_c, 9, 37, 0
1, 16368, Note_on_c, 9, 36, 0
1, 16368, Note_on_c, 1, 33, 127
1, 16416, Note_on_c, 1, 33, 0
1, 16416, Note_on_c, 3, 85, 0
1, 16416, Note_on_c, 4, 73, 0
1, 16416, Note_on_c, 1, 30, 127
1, 16416, Note_on_c, 2, 71, 64
1, 16416, Note_on_c, 2, 66, 64
1, 16416, Note_on_c, 2, 63, 64
1, 16416, Note_on_c, 9, 36, 127
1, 16416, Note_on_c, 9, 42, 90
1, 16456, Note_on_c, 2, 63, 0
1, 16456, Note_on_c, 2, 66, 0
1, 16464, Note_on_c, 1, 30, 0
1, 16464, Note_on_c, 2, 71, 0
1, 16464, Note_on_c, 9, 36, 0
1, 16464, Note_on_c, 9, 42, 0
1, 16512, Note_on_c, 1, 28, 127
1, 16512, Note_on_c, 2, 71, 64
1, 16512, Note_on_c, 2, 66, 64
1, 16512, Note_on_c, 2, 63, 64
1, 16512, Note_on_c, 5, 69, 127
1, 16512, Note_on_c, 9, 36, 127
1, 16512, Note_on_c, 9, 42, 90
1, 16552, Note_on_c, 2, 66, 0
1, 16552, Note_on_c, 2, 71, 0
1, 16560, Note_on_c, 9, 42, 0
1, 16560, Note_on_c, 2, 63, 0
1, 16560, Note_on_c, 9, 36, 0
1, 16608, Note_on_c, 1, 28, 0
1, 16608, Note_on_c, 2, 71, 64
1, 16608, Note_on_c, 2, 66, 64
1, 16608, Note_on_c, 2, 63, 64
1, 16608, Note_on_c, 9, 42, 90
1, 16648, Note_on_c, 2, 66, 0
1, 16648, Note_on_c, 2, 71, 0
1, 16656, Note_on_c, 2, 63, 0
1, 16656, Note_on_c, 9, 42, 0
1, 16696, Note_on_c, 5, 69, 0
1, 16704, Note_on_c, 1, 28, 127
1, 16704, Note_on_c, 2, 71, 64
1, 16704, Note_on_c, 2, 66, 64
1, 16704, Note_on_c, 2, 63, 64
1, 16704, Note_on_c, 6, 66, 28
1, 16704, Note_on_c, 9, 36, 127
1, 16704, Note_on_c, 9, 38, 127
1, 16704, Note_on_c, 9, 42, 90
1, 16704, Note_on_c, 9, 37, 127
1, 16712, Note_on_c, 5, 71, 127
1, 16736, Note_on_c, 6, 66, 0
1, 16744, Note_on_c, 2, 71, 0
1, 16744, Note_on_c, 2, 66, 0
1, 16752, Note_on_c, 9, 42, 0
1, 16752, Note_on_c, 9, 38, 0
1, 16752, Note_on_c, 9, 36, 0
1, 16752, Note_on_c, 1, 28, 0
1, 16752, Note_on_c, 9, 37, 0
1, 16752, Note_on_c, 2, 63, 0
1, 16752, Note_on_c, 6, 76, 28
1, 16776, Note_on_c, 6, 76, 0
1, 16800, Note_on_c, 1, 28, 127
1, 16800, Note_on_c, 2, 71, 64
1, 16800, Note_on_c, 2, 66, 64
1, 16800, Note_on_c, 2, 63, 64
1, 16800, Note_on_c, 6, 78, 28
1, 16800, Note_on_c, 9, 36, 127
1, 16800, Note_on_c, 9, 42, 90
1, 16824, Note_on_c, 6, 78, 0
1, 16840, Note_on_c, 2, 71, 0
1, 16848, Note_on_c, 9, 42, 0
1, 16848, Note_on_c, 2, 63, 0
1, 16848, Note_on_c, 9, 36, 0
1, 16848, Note_on_c, 1, 28, 0
1, 16848, Note_on_c, 2, 66, 0
1, 16848, Note_on_c, 6, 78, 28
1, 16872, Note_on_c, 6, 78, 0
1, 16872, Note_on_c, 5, 71, 0
1, 16896, Note_on_c, 1, 30, 127
1, 16896, Note_on_c, 2, 73, 64
1, 16896, Note_on_c, 2, 71, 64
1, 16896, Note_on_c, 2, 64, 64
1, 16896, Note_on_c, 5, 73, 127
1, 16896, Note_on_c, 9, 36, 127
1, 16896, Note_on_c, 9, 42, 90
1, 16920, Note_on_c, 2, 73, 0
1, 16928, Note_on_c, 2, 71, 0
1, 16936, Note_on_c, 2, 64, 0
1, 16944, Note_on_c, 1, 30, 0
1, 16944, Note_on_c, 9, 42, 0
1, 16944, Note_on_c, 9, 36, 0
1, 16944, Note_on_c, 1, 30, 127
1, 16944, Note_on_c, 2, 71, 64
1, 16944, Note_on_c, 2, 69, 64
1, 16944, Note_on_c, 2, 64, 64
1, 16968, Note_on_c, 2, 71, 0
1, 16976, Note_on_c, 2, 69, 0
1, 16976, Note_on_c, 5, 73, 0
1, 16984, Note_on_c, 2, 64, 0
1, 16992, Note_on_c, 1, 30, 0
1, 16992, Note_on_c, 1, 30, 127
1, 16992, Note_on_c, 2, 71, 64
1, 16992, Note_on_c, 2, 69, 64
1, 16992, Note_on_c, 2, 64, 64
1, 16992, Note_on_c, 9, 42, 90
1, 17000, Note_on_c, 5, 73, 127
1, 17016, Note_on_c, 2, 69, 0
1, 17016, Note_on_c, 2, 71, 0
1, 17040, Note_on_c, 1, 30, 0
1, 17040, Note_on_c, 2, 64, 0
1, 17040, Note_on_c, 9, 42, 0
1, 17088, Note_on_c, 1, 30, 127
1, 17088, Note_on_c, 2, 71, 64
1, 17088, Note_on_c, 2, 69, 64
1, 17088, Note_on_c, 2, 64, 64
1, 17088, Note_on_c, 9, 36, 127
1, 17088, Note_on_c, 9, 38, 127
1, 17088, Note_on_c, 9, 42, 90
1, 17088, Note_on_c, 9, 37, 127
1, 17104, Note_on_c, 5, 73, 0
1, 17112, Note_on_c, 2, 69, 0
1, 17112, Note_on_c, 2, 71, 0
1, 17136, Note_on_c, 9, 38, 0
1, 17136, Note_on_c, 2, 64, 0
1, 17136, Note_on_c, 1, 30, 0
1, 17136, Note_on_c, 9, 37, 0
1, 17136, Note_on_c, 9, 42, 0
1, 17136, Note_on_c, 9, 36, 0
1, 17184, Note_on_c, 1, 33, 127
1, 17184, Note_on_c, 2, 71, 64
1, 17184, Note_on_c, 2, 69, 64
1, 17184, Note_on_c, 2, 64, 64
1, 17184, Note_on_c, 9, 36, 127
1, 17184, Note_on_c, 9, 42, 90
1, 17208, Note_on_c, 2, 71, 0
1, 17216, Note_on_c, 2, 69, 0
1, 17224, Note_on_c, 2, 64, 0
1, 17232, Note_on_c, 9, 36, 0
1, 17232, Note_on_c, 1, 33, 0
1, 17232, Note_on_c, 9, 42, 0
1, 17280, Note_on_c, 1, 35, 127
1, 17280, Note_on_c, 2, 71, 64
1, 17280, Note_on_c, 2, 68, 64
1, 17280, Note_on_c, 2, 64, 64
1, 17280, Note_on_c, 3, 81, 127
1, 17280, Note_on_c, 4, 69, 127
1, 17280, Note_on_c, 9, 36, 127
1, 17280, Note_on_c, 9, 42, 90
1, 17304, Note_on_c, 2, 71, 0
1, 17312, Note_on_c, 2, 68, 0
1, 17320, Note_on_c, 2, 64, 0
1, 17328, Note_on_c, 3, 81, 0
1, 17328, Note_on_c, 9, 42, 0
1, 17328, Note_on_c, 9, 36, 0
1, 17328, Note_on_c, 4, 69, 0
1, 17328, Note_on_c, 3, 83, 127
1, 17328, Note_on_c, 4, 71, 127
1, 17376, Note_on_c, 4, 71, 0
1, 17376, Note_on_c, 3, 83, 0
1, 17376, Note_on_c, 1, 35, 0
1, 17376, Note_on_c, 2, 71, 64
1, 17376, Note_on_c, 2, 68, 64
1, 17376, Note_on_c, 2, 64, 64
1, 17376, Note_on_c, 3, 84, 127
1, 17376, Note_on_c, 4, 72, 127
1, 17376, Note_on_c, 9, 42, 90
1, 17400, Note_on_c, 2, 71, 0
1, 17408, Note_on_c, 2, 68, 0
1, 17424, Note_on_c, 4, 72, 0
1, 17424, Note_on_c, 2, 64, 0
1, 17424, Note_on_c, 3, 84, 0
1, 17424, Note_on_c, 9, 42, 0
1, 17424, Note_on_c, 1, 37, 127
1, 17424, Note_on_c, 3, 85, 127
1, 17424, Note_on_c, 4, 73, 127
1, 17424, Note_on_c, 9, 36, 127
1, 17472, Note_on_c, 9, 36, 0
1, 17472, Note_on_c, 2, 71, 64
1, 17472, Note_on_c, 2, 68, 64
1, 17472, Note_on_c, 2, 64, 64
1, 17472, Note_on_c, 6, 66, 28
1, 17472, Note_on_c, 9, 36, 127
1, 17472, Note_on_c, 9, 38, 127
1, 17472, Note_on_c, 9, 42, 90
1, 17472, Note_on_c, 9, 37, 127
1, 17496, Note_on_c, 6, 66, 0
1, 17496, Note_on_c, 2, 71, 0
1, 17520, Note_on_c, 9, 38, 0
1, 17520, Note_on_c, 4, 73, 0
1, 17520, Note_on_c, 3, 85, 0
1, 17520, Note_on_c, 1, 37, 0
1, 17520, Note_on_c, 2, 68, 0
1, 17520, Note_on_c, 2, 64, 0
1, 17520, Note_on_c, 9, 42, 0
1, 17520, Note_on_c, 9, 36, 0
1, 17520, Note_on_c, 9, 37, 0
1, 17520, Note_on_c, 6, 73, 28
1, 17528, Note_on_c, 5, 69, 127
1, 17536, Note_on_c, 6, 73, 0
1, 17552, Note_on_c, 5, 69, 0
1, 17568, Note_on_c, 1, 40, 127
1, 17568, Note_on_c, 2, 71, 64
1, 17568, Note_on_c, 2, 68, 64
1, 17568, Note_on_c, 2, 64, 64
1, 17568, Note_on_c, 6, 76, 28
1, 17568, Note_on_c, 9, 36, 127
1, 17568, Note_on_c, 9, 42, 90
1, 17576, Note_on_c, 5, 71, 127
1, 17592, Note_on_c, 6, 76, 0
1, 17600, Note_on_c, 2, 71, 0
1, 17608, Note_on_c, 5, 71, 0
1, 17608, Note_on_c, 2, 68, 0
1, 17616, Note_on_c, 1, 40, 0
1, 17616, Note_on_c, 2, 64, 0
1, 17616, Note_on_c, 9, 36, 0
1, 17616, Note_on_c, 9, 42, 0
1, 17616, Note_on_c, 6, 78, 28
1, 17624, Note_on_c, 5, 73, 127
1, 17640, Note_on_c, 6, 78, 0
1, 17664, Note_on_c, 1, 42, 127
1, 17664, Note_on_c, 2, 71, 64
1, 17664, Note_on_c, 2, 66, 64
1, 17664, Note_on_c, 2, 63, 64
1, 17664, Note_on_c, 9, 36, 127
1, 17664, Note_on_c, 9, 42, 90
1, 17696, Note_on_c, 2, 66, 0
1, 17696, Note_on_c, 2, 71, 0
1, 17704, Note_on_c, 5, 73, 0
1, 17712, Note_on_c, 2, 63, 0
1, 17712, Note_on_c, 9, 42, 0
1, 17712, Note_on_c, 9, 36, 0
1, 17760, Note_on_c, 1, 42, 0
1, 17760, Note_on_c, 2, 71, 64
1, 17760, Note_on_c, 2, 66, 64
1, 17760, Note_on_c, 2, 63, 64
1, 17760, Note_on_c, 9, 42, 90
1, 17776, Note_on_c, 5, 73, 127
1, 17792, Note_on_c, 2, 66, 0
1, 17800, Note_on_c, 2, 71, 0
1, 17808, Note_on_c, 2, 63, 0
1, 17808, Note_on_c, 9, 42, 0
1, 17856, Note_on_c, 1, 40, 127
1, 17856, Note_on_c, 2, 71, 64
1, 17856, Note_on_c, 2, 66, 64
1, 17856, Note_on_c, 2, 63, 64
1, 17856, Note_on_c, 9, 36, 127
1, 17856, Note_on_c, 9, 38, 127
1, 17856, Note_on_c, 9, 42, 90
1, 17856, Note_on_c, 9, 37, 127
1, 17872, Note_on_c, 5, 73, 0
1, 17888, Note_on_c, 2, 66, 0
1, 17896, Note_on_c, 2, 71, 0
1, 17904, Note_on_c, 9, 38, 0
1, 17904, Note_on_c, 2, 63, 0
1, 17904, Note_on_c, 9, 42, 0
1, 17904, Note_on_c, 9, 37, 0
1, 17904, Note_on_c, 9, 36, 0
1, 17920, Note_on_c, 5, 71, 127
1, 17952, Note_on_c, 1, 40, 0
1, 17952, Note_on_c, 1, 42, 127
1, 17952, Note_on_c, 2, 71, 64
1, 17952, Note_on_c, 2, 66, 64
1, 17952, Note_on_c, 2, 63, 64
1, 17952, Note_on_c, 6, 73, 28
1, 17952, Note_on_c, 9, 36, 127
1, 17952, Note_on_c, 9, 42, 90
1, 17976, Note_on_c, 6, 73, 0
1, 17992, Note_on_c, 2, 66, 0
1, 17992, Note_on_c, 2, 63, 0
1, 18000, Note_on_c, 9, 36, 0
1, 18000, Note_on_c, 9, 42, 0
1, 18000, Note_on_c, 2, 71, 0
1, 18000, Note_on_c, 1, 42, 0
1, 18000, Note_on_c, 6, 76, 28
1, 18016, Note_on_c, 5, 71, 0
1, 18032, Note_on_c, 6, 76, 0
1, 18048, Note_on_c, 1, 40, 127
1, 18048, Note_on_c, 2, 71, 64
1, 18048, Note_on_c, 2, 66, 64
1, 18048, Note_on_c, 2, 63, 64
1, 18048, Note_on_c, 9, 36, 127
1, 18048, Note_on_c, 9, 42, 90
1, 18064, Note_on_c, 5, 71, 127
1, 18088, Note_on_c, 2, 66, 0
1, 18088, Note_on_c, 2, 71, 0
1, 18096, Note_on_c, 9, 36, 0
1, 18096, Note_on_c, 2, 63, 0
1, 18096, Note_on_c, 9, 42, 0
1, 18096, Note_on_c, 6, 78, 28
1, 18136, Note_on_c, 6, 78, 0
1, 18144, Note_on_c, 1, 40, 0
1, 18144, Note_on_c, 2, 71, 64
1, 18144, Note_on_c, 2, 66, 64
1, 18144, Note_on_c, 2, 63, 64
1, 18144, Note_on_c, 9, 36, 127
1, 18144, Note_on_c, 9, 44, 90
1, 18184, Note_on_c, 2, 66, 0
1, 18184, Note_on_c, 2, 71, 0
1, 18192, Note_on_c, 9, 36, 0
1, 18192, Note_on_c, 2, 63, 0
1, 18192, Note_on_c, 9, 44, 0
1, 18192, Note_on_c, 6, 76, 28
1, 18192, Note_on_c, 9, 36, 127
1, 18192, Note_on_c, 9, 38, 127
1, 18192, Note_on_c, 9, 45, 127
1, 18224, Note_on_c, 6, 76, 0
1, 18232, Note_on_c, 5, 71, 0
1, 18240, Note_on_c, 9, 36, 0
1, 18240, Note_on_c, 9, 38, 0
1, 18240, Note_on_c, 9, 45, 0
1, 18240, Note_on_c, 1, 40, 127
1, 18240, Note_on_c, 2, 71, 64
1, 18240, Note_on_c, 2, 66, 64
1, 18240, Note_on_c, 2, 63, 64
1, 18240, Note_on_c, 6, 78, 28
1, 18240, Note_on_c, 9, 38, 127
1, 18240, Note_on_c, 9, 42, 90
1, 18240, Note_on_c, 9, 41, 127
1, 18240, Note_on_c, 9, 37, 127
1, 18248, Note_on_c, 5, 69, 127
1, 18264, Note_on_c, 6, 78, 0
1, 18280, Note_on_c, 2, 71, 0
1, 18280, Note_on_c, 2, 66, 0
1, 18288, Note_on_c, 9, 42, 0
1, 18288, Note_on_c, 9, 37, 0
1, 18288, Note_on_c, 9, 38, 0
1, 18288, Note_on_c, 1, 40, 0
1, 18288, Note_on_c, 5, 69, 0
1, 18288, Note_on_c, 9, 41, 0
1, 18288, Note_on_c, 2, 63, 0
1, 18288, Note_on_c, 1, 41, 127
1, 18288, Note_on_c, 5, 66, 127
1, 18288, Note_on_c, 6, 76, 28
1, 18288, Note_on_c, 9, 36, 127
1, 18304, Note_on_c, 6, 76, 0
1, 18336, Note_on_c, 1, 41, 0
1, 18336, Note_on_c, 9, 36, 0
1, 18336, Note_on_c, 1, 42, 127
1, 18336, Note_on_c, 2, 71, 64
1, 18336, Note_on_c, 2, 66, 64
1, 18336, Note_on_c, 2, 63, 64
1, 18336, Note_on_c, 6, 73, 28
1, 18336, Note_on_c, 9, 36, 127
1, 18336, Note_on_c, 9, 38, 127
1, 18336, Note_on_c, 9, 46, 90
1, 18336, Note_on_c, 9, 49, 127
1, 18360, Note_on_c, 6, 73, 0
1, 18376, Note_on_c, 2, 71, 0
1, 18384, Note_on_c, 2, 66, 0
1, 18384, Note_on_c, 9, 36, 0
1, 18384, Note_on_c, 9, 46, 0
1, 18384, Note_on_c, 9, 38, 0
1, 18384, Note_on_c, 1, 42, 0
1, 18384, Note_on_c, 9, 49, 0
1, 18384, Note_on_c, 2, 63, 0
1, 18384, Note_on_c, 1, 37, 127
1, 18384, Note_on_c, 6, 66, 28
1, 18392, Note_on_c, 5, 66, 0
1, 18400, Note_on_c, 6, 66, 0
1, 18432, Note_on_c, 1, 37, 0
1, 18432, Note_on_c, 6, 73, 0
1, 18432, Note_on_c, 1, 33, 127
1, 18432, Note_on_c, 2, 67, 64
1, 18432, Note_on_c, 2, 64, 64
1, 18432, Note_on_c, 2, 57, 64
1, 18432, Note_on_c, 2, 61, 64
1, 18432, Note_on_c, 9, 36, 127
1, 18432, Note_on_c, 9, 42, 90
1, 18432, Note_on_c, 9, 49, 127
1, 18432, Note_on_c, 9, 48, 127
1, 18472, Note_on_c, 2, 61, 0
1, 18472, Note_on_c, 2, 57, 0
1, 18472, Note_on_c, 2, 64, 0
1, 18472, Note_on_c, 2, 67, 0
1, 18480, Note_on_c, 9, 48, 0
1, 18480, Note_on_c, 9, 49, 0
1, 18480, Note_on_c, 9, 42, 0
1, 18480, Note_on_c, 9, 42, 90
1, 18528, Note_on_c, 9, 42, 0
1, 18528, Note_on_c, 2, 67, 64
1, 18528, Note_on_c, 2, 64, 64
1, 18528, Note_on_c, 2, 57, 64
1, 18528, Note_on_c, 2, 61, 64
1, 18528, Note_on_c, 9, 42, 90
1, 18568, Note_on_c, 2, 61, 0
1, 18568, Note_on_c, 2, 64, 0
1, 18568, Note_on_c, 2, 67, 0
1, 18568, Note_on_c, 2, 57, 0
1, 18576, Note_on_c, 9, 36, 0
1, 18576, Note_on_c, 9, 42, 0
1, 18576, Note_on_c, 1, 45, 127
1, 18592, Note_on_c, 1, 33, 0
1, 18624, Note_on_c, 2, 67, 64
1, 18624, Note_on_c, 2, 64, 64
1, 18624, Note_on_c, 2, 57, 64
1, 18624, Note_on_c, 2, 61, 64
1, 18624, Note_on_c, 3, 79, 127
1, 18624, Note_on_c, 9, 36, 127
1, 18624, Note_on_c, 9, 38, 127
1, 18624, Note_on_c, 9, 42, 90
1, 18624, Note_on_c, 9, 42, 90
1, 18624, Note_on_c, 9, 37, 127
1, 18640, Note_on_c, 1, 45, 0
1, 18664, Note_on_c, 2, 61, 0
1, 18664, Note_on_c, 2, 67, 0
1, 18664, Note_on_c, 2, 57, 0
1, 18664, Note_on_c, 2, 64, 0
1, 18672, Note_on_c, 9, 42, 0
1, 18672, Note_on_c, 9, 37, 0
1, 18672, Note_on_c, 9, 42, 0
1, 18672, Note_on_c, 9, 38, 0
1, 18672, Note_on_c, 1, 33, 127
1, 18672, Note_on_c, 2, 67, 64
1, 18672, Note_on_c, 2, 64, 64
1, 18672, Note_on_c, 2, 57, 64
1, 18672, Note_on_c, 2, 61, 64
1, 18712, Note_on_c, 2, 61, 0
1, 18712, Note_on_c, 2, 64, 0
1, 18712, Note_on_c, 2, 67, 0
1, 18712, Note_on_c, 2, 57, 0
1, 18720, Note_on_c, 9, 36, 0
1, 18720, Note_on_c, 1, 34, 127
1, 18720, Note_on_c, 9, 42, 90
1, 18736, Note_on_c, 1, 33, 0
1, 18752, Note_on_c, 1, 34, 0
1, 18768, Note_on_c, 9, 42, 0
1, 18768, Note_on_c, 1, 35, 127
1, 18768, Note_on_c, 2, 67, 64
1, 18768, Note_on_c, 2, 64, 64
1, 18768, Note_on_c, 2, 57, 64
1, 18768, Note_on_c, 2, 61, 64
1, 18768, Note_on_c, 3, 70, 67
1, 18768, Note_on_c, 9, 36, 127
1, 18800, Note_on_c, 1, 35, 0
1, 18808, Note_on_c, 2, 57, 0
1, 18808, Note_on_c, 2, 64, 0
1, 18808, Note_on_c, 2, 67, 0
1, 18808, Note_on_c, 2, 61, 0
1, 18816, Note_on_c, 9, 36, 0
1, 18816, Note_on_c, 1, 36, 127
1, 18816, Note_on_c, 9, 36, 127
1, 18816, Note_on_c, 9, 42, 90
1, 18832, Note_on_c, 3, 70, 0
1, 18848, Note_on_c, 1, 36, 0
1, 18864, Note_on_c, 9, 42, 0
1, 18864, Note_on_c, 9, 36, 0
1, 18864, Note_on_c, 1, 37, 127
1, 18864, Note_on_c, 2, 67, 64
1, 18864, Note_on_c, 2, 64, 64
1, 18864, Note_on_c, 2, 57, 64
1, 18864, Note_on_c, 2, 61, 64
1, 18864, Note_on_c, 3, 70, 67
1, 18888, Note_on_c, 1, 37, 0
1, 18904, Note_on_c, 2, 57, 0
1, 18904, Note_on_c, 2, 67, 0
1, 18904, Note_on_c, 2, 64, 0
1, 18904, Note_on_c, 2, 61, 0
1, 18912, Note_on_c, 1, 38, 127
1, 18912, Note_on_c, 9, 36, 127
1, 18912, Note_on_c, 9, 42, 90
1, 18936, Note_on_c, 3, 70, 0
1, 18960, Note_on_c, 9, 36, 0
1, 18960, Note_on_c, 9, 42, 0
1, 18960, Note_on_c, 2, 67, 64
1, 18960, Note_on_c, 2, 64, 64
1, 18960, Note_on_c, 2, 57, 64
1, 18960, Note_on_c, 2, 61, 64
1, 18960, Note_on_c, 3, 70, 67
1, 18976, Note_on_c, 1, 38, 0
1, 19000, Note_on_c, 2, 57, 0
1, 19000, Note_on_c, 2, 67, 0
1, 19000, Note_on_c, 2, 64, 0
1, 19000, Note_on_c, 2, 61, 0
1, 19008, Note_on_c, 2, 66, 64
1, 19008, Note_on_c, 2, 62, 64
1, 19008, Note_on_c, 2, 57, 64
1, 19008, Note_on_c, 9, 36, 127
1, 19008, Note_on_c, 9, 38, 127
1, 19008, Note_on_c, 9, 42, 90
1, 19008, Note_on_c, 9, 37, 127
1, 19032, Note_on_c, 3, 70, 0
1, 19048, Note_on_c, 2, 57, 0
1, 19048, Note_on_c, 2, 62, 0
1, 19048, Note_on_c, 2, 66, 0
1, 19056, Note_on_c, 9, 42, 0
1, 19056, Note_on_c, 9, 38, 0
1, 19056, Note_on_c, 1, 35, 127
1, 19056, Note_on_c, 3, 70, 67
1, 19088, Note_on_c, 1, 35, 0
1, 19104, Note_on_c, 9, 36, 0
1, 19104, Note_on_c, 9, 37, 0
1, 19104, Note_on_c, 1, 36, 127
1, 19104, Note_on_c, 2, 66, 64
1, 19104, Note_on_c, 2, 62, 64
1, 19104, Note_on_c, 2, 57, 64
1, 19104, Note_on_c, 9, 42, 90
1, 19128, Note_on_c, 3, 79, 0
1, 19128, Note_on_c, 3, 70, 0
1, 19136, Note_on_c, 1, 36, 0
1, 19144, Note_on_c, 2, 62, 0
1, 19144, Note_on_c, 2, 66, 0
1, 19144, Note_on_c, 2, 57, 0
1, 19152, Note_on_c, 9, 42, 0
1, 19152, Note_on_c, 1, 37, 127
1, 19152, Note_on_c, 3, 79, 127
1, 19152, Note_on_c, 3, 70, 67
1, 19176, Note_on_c, 1, 37, 0
1, 19200, Note_on_c, 1, 38, 127
1, 19200, Note_on_c, 2, 59, 64
1, 19200, Note_on_c, 2, 62, 64
1, 19200, Note_on_c, 2, 56, 64
1, 19200, Note_on_c, 2, 64, 64
1, 19200, Note_on_c, 9, 36, 127
1, 19200, Note_on_c, 9, 42, 90
1, 19216, Note_on_c, 3, 79, 0
1, 19224, Note_on_c, 3, 70, 0
1, 19224, Note_on_c, 1, 38, 0
1, 19240, Note_on_c, 2, 64, 0
1, 19240, Note_on_c, 2, 59, 0
1, 19240, Note_on_c, 2, 62, 0
1, 19240, Note_on_c, 2, 56, 0
1, 19248, Note_on_c, 9, 42, 0
1, 19248, Note_on_c, 1, 39, 127
1, 19248, Note_on_c, 3, 78, 127
1, 19248, Note_on_c, 3, 69, 67
1, 19272, Note_on_c, 3, 69, 0
1, 19280, Note_on_c, 1, 39, 0
1, 19296, Note_on_c, 3, 78, 0
1, 19296, Note_on_c, 9, 36, 0
1, 19296, Note_on_c, 1, 40, 127
1, 19296, Note_on_c, 2, 59, 64
1, 19296, Note_on_c, 2, 62, 64
1, 19296, Note_on_c, 2, 56, 64
1, 19296, Note_on_c, 2, 64, 64
1, 19296, Note_on_c, 3, 76, 127
1, 19296, Note_on_c, 3, 68, 67
1, 19296, Note_on_c, 9, 42, 90
1, 19336, Note_on_c, 3, 76, 0
1, 19336, Note_on_c, 2, 56, 0
1, 19336, Note_on_c, 2, 62, 0
1, 19336, Note_on_c, 2, 59, 0
1, 19336, Note_on_c, 2, 64, 0
1, 19344, Note_on_c, 9, 42, 0
1, 19344, Note_on_c, 3, 68, 0
1, 19344, Note_on_c, 9, 42, 90
1, 19384, Note_on_c, 1, 40, 0
1, 19392, Note_on_c, 9, 42, 0
1, 19392, Note_on_c, 2, 59, 64
1, 19392, Note_on_c, 2, 62, 64
1, 19392, Note_on_c, 2, 56, 64
1, 19392, Note_on_c, 2, 64, 64
1, 19392, Note_on_c, 9, 36, 127
1, 19392, Note_on_c, 9, 38, 127
1, 19392, Note_on_c, 9, 42, 90
1, 19392, Note_on_c, 9, 37, 127
1, 19432, Note_on_c, 2, 64, 0
1, 19432, Note_on_c, 2, 56, 0
1, 19432, Note_on_c, 2, 59, 0
1, 19432, Note_on_c, 2, 62, 0
1, 19440, Note_on_c, 9, 42, 0
1, 19440, Note_on_c, 9, 37, 0
1, 19440, Note_on_c, 9, 38, 0
1, 19440, Note_on_c, 2, 59, 64
1, 19440, Note_on_c, 2, 62, 64
1, 19440, Note_on_c, 2, 56, 64
1, 19440, Note_on_c, 2, 64, 64
1, 19440, Note_on_c, 4, 59, 127
1, 19472, Note_on_c, 4, 59, 0
1, 19480, Note_on_c, 2, 59, 0
1, 19480, Note_on_c, 2, 62, 0
1, 19480, Note_on_c, 2, 56, 0
1, 19480, Note_on_c, 2, 64, 0
1, 19488, Note_on_c, 9, 36, 0
1, 19488, Note_on_c, 1, 38, 127
1, 19488, Note_on_c, 4, 61, 127
1, 19488, Note_on_c, 9, 42, 90
1, 19512, Note_on_c, 4, 61, 0
1, 19536, Note_on_c, 9, 42, 0
1, 19536, Note_on_c, 1, 38, 0
1, 19536, Note_on_c, 1, 39, 127
1, 19536, Note_on_c, 2, 59, 64
1, 19536, Note_on_c, 2, 62, 64
1, 19536, Note_on_c, 2, 56, 64
1, 19536, Note_on_c, 2, 64, 64
1, 19536, Note_on_c, 4, 64, 127
1, 19536, Note_on_c, 9, 36, 127
1, 19536, Note_on_c, 9, 42, 90
1, 19560, Note_on_c, 1, 39, 0
1, 19576, Note_on_c, 2, 64, 0
1, 19576, Note_on_c, 2, 59, 0
1, 19576, Note_on_c, 2, 56, 0
1, 19576, Note_on_c, 2, 62, 0
1, 19584, Note_on_c, 9, 42, 0
1, 19584, Note_on_c, 9, 36, 0
1, 19584, Note_on_c, 1, 40, 127
1, 19584, Note_on_c, 9, 36, 127
1, 19584, Note_on_c, 9, 42, 90
1, 19616, Note_on_c, 1, 40, 0
1, 19632, Note_on_c, 4, 64, 0
1, 19632, Note_on_c, 9, 42, 0
1, 19632, Note_on_c, 1, 28, 127
1, 19632, Note_on_c, 2, 59, 64
1, 19632, Note_on_c, 2, 62, 64
1, 19632, Note_on_c, 2, 56, 64
1, 19632, Note_on_c, 2, 64, 64
1, 19632, Note_on_c, 4, 59, 127
1, 19632, Note_on_c, 9, 42, 90
1, 19632, Note_on_c, 9, 48, 127
1, 19664, Note_on_c, 4, 59, 0
1, 19672, Note_on_c, 2, 62, 0
1, 19672, Note_on_c, 2, 59, 0
1, 19672, Note_on_c, 2, 56, 0
1, 19672, Note_on_c, 2, 64, 0
1, 19680, Note_on_c, 9, 42, 0
1, 19680, Note_on_c, 9, 48, 0
1, 19680, Note_on_c, 9, 36, 0
1, 19680, Note_on_c, 4, 61, 127
1, 19680, Note_on_c, 9, 42, 90
1, 19688, Note_on_c, 1, 28, 0
1, 19712, Note_on_c, 4, 61, 0
1, 19728, Note_on_c, 9, 42, 0
1, 19728, Note_on_c, 1, 28, 127
1, 19728, Note_on_c, 2, 59, 64
1, 19728, Note_on_c, 2, 62, 64
1, 19728, Note_on_c, 2, 56, 64
1, 19728, Note_on_c, 2, 64, 64
1, 19728, Note_on_c, 4, 66, 127
1, 19728, Note_on_c, 9, 36, 127
1, 19728, Note_on_c, 9, 38, 127
1, 19728, Note_on_c, 9, 42, 90
1, 19728, Note_on_c, 9, 45, 127
1, 19752, Note_on_c, 1, 28, 0
1, 19768, Note_on_c, 2, 64, 0
1, 19768, Note_on_c, 2, 59, 0
1, 19768, Note_on_c, 2, 56, 0
1, 19768, Note_on_c, 2, 62, 0
1, 19776, Note_on_c, 9, 38, 0
1, 19776, Note_on_c, 9, 42, 0
1, 19776, Note_on_c, 9, 45, 0
1, 19776, Note_on_c, 9, 36, 0
1, 19776, Note_on_c, 1, 28, 127
1, 19776, Note_on_c, 2, 59, 64
1, 19776, Note_on_c, 2, 62, 64
1, 19776, Note_on_c, 2, 64, 64
1, 19776, Note_on_c, 2, 56, 64
1, 19776, Note_on_c, 9, 36, 127
1, 19776, Note_on_c, 9, 38, 127
1, 19776, Note_on_c, 9, 42, 90
1, 19776, Note_on_c, 9, 41, 127
1, 19776, Note_on_c, 9, 37, 127
1, 19792, Note_on_c, 4, 66, 0
1, 19816, Note_on_c, 2, 64, 0
1, 19816, Note_on_c, 2, 62, 0
1, 19816, Note_on_c, 2, 56, 0
1, 19816, Note_on_c, 2, 59, 0
1, 19824, Note_on_c, 9, 36, 0
1, 19824, Note_on_c, 9, 41, 0
1, 19824, Note_on_c, 9, 37, 0
1, 19824, Note_on_c, 9, 42, 0
1, 19824, Note_on_c, 9, 38, 0
1, 19824, Note_on_c, 3, 76, 127
1, 19824, Note_on_c, 4, 61, 127
1, 19848, Note_on_c, 4, 61, 0
1, 19848, Note_on_c, 3, 76, 0
1, 19856, Note_on_c, 1, 28, 0
1, 19872, Note_on_c, 1, 28, 127
1, 19872, Note_on_c, 3, 76, 127
1, 19872, Note_on_c, 4, 64, 127
1, 19872, Note_on_c, 9, 36, 127
1, 19872, Note_on_c, 9, 38, 127
1, 19872, Note_on_c, 9, 44, 90
1, 19872, Note_on_c, 9, 41, 127
1, 19896, Note_on_c, 3, 76, 0
1, 19904, Note_on_c, 4, 64, 0
1, 19920, Note_on_c, 9, 44, 0
1, 19920, Note_on_c, 9, 36, 0
1, 19920, Note_on_c, 9, 38, 0
1, 19920, Note_on_c, 9, 41, 0
1, 19920, Note_on_c, 3, 76, 127
1, 19920, Note_on_c, 4, 64, 127
1, 19936, Note_on_c, 1, 28, 0
1, 19944, Note_on_c, 3, 76, 0
1, 19952, Note_on_c, 4, 64, 0
1, 19968, Note_on_c, 1, 33, 127
1, 19968, Note_on_c, 2, 67, 64
1, 19968, Note_on_c, 2, 64, 64
1, 19968, Note_on_c, 2, 57, 64
1, 19968, Note_on_c, 2, 61, 64
1, 19968, Note_on_c, 3, 81, 127
1, 19968, Note_on_c, 3, 76, 67
1, 19968, Note_on_c, 9, 36, 127
1, 19968, Note_on_c, 9, 42, 90
1, 20000, Note_on_c, 3, 81, 0
1, 20008, Note_on_c, 2, 57, 0
1, 20008, Note_on_c, 2, 64, 0
1, 20008, Note_on_c, 2, 61, 0
1, 20008, Note_on_c, 2, 67, 0
1, 20016, Note_on_c, 9, 42, 0
1, 20016, Note_on_c, 3, 76, 0
1, 20064, Note_on_c, 2, 67, 64
1, 20064, Note_on_c, 2, 64, 64
1, 20064, Note_on_c, 2, 57, 64
1, 20064, Note_on_c, 2, 61, 64
1, 20064, Note_on_c, 3, 81, 127
1, 20064, Note_on_c, 3, 76, 67
1, 20064, Note_on_c, 9, 42, 90
1, 20104, Note_on_c, 2, 61, 0
1, 20104, Note_on_c, 2, 64, 0
1, 20104, Note_on_c, 2, 67, 0
1, 20104, Note_on_c, 2, 57, 0
1, 20112, Note_on_c, 9, 42, 0
1, 20112, Note_on_c, 3, 76, 0
1, 20112, Note_on_c, 9, 36, 0
1, 20112, Note_on_c, 1, 45, 127
1, 20112, Note_on_c, 9, 42, 90
1, 20120, Note_on_c, 1, 33, 0
1, 20120, Note_on_c, 3, 81, 0
1, 20160, Note_on_c, 1, 45, 0
1, 20160, Note_on_c, 9, 42, 0
1, 20160, Note_on_c, 2, 67, 64
1, 20160, Note_on_c, 2, 64, 64
1, 20160, Note_on_c, 2, 57, 64
1, 20160, Note_on_c, 2, 61, 64
1, 20160, Note_on_c, 3, 79, 127
1, 20160, Note_on_c, 3, 72, 67
1, 20160, Note_on_c, 9, 36, 127
1, 20160, Note_on_c, 9, 38, 127
1, 20160, Note_on_c, 9, 42, 90
1, 20160, Note_on_c, 9, 37, 127
1, 20200, Note_on_c, 2, 61, 0
1, 20200, Note_on_c, 2, 57, 0
1, 20200, Note_on_c, 2, 67, 0
1, 20200, Note_on_c, 2, 64, 0
1, 20208, Note_on_c, 9, 42, 0
1, 20208, Note_on_c, 9, 38, 0
1, 20208, Note_on_c, 9, 37, 0
1, 20208, Note_on_c, 1, 33, 127
1, 20208, Note_on_c, 2, 67, 64
1, 20208, Note_on_c, 2, 64, 64
1, 20208, Note_on_c, 2, 57, 64
1, 20208, Note_on_c, 2, 61, 64
1, 20224, Note_on_c, 3, 72, 0
1, 20248, Note_on_c, 2, 61, 0
1, 20248, Note_on_c, 2, 64, 0
1, 20248, Note_on_c, 2, 67, 0
1, 20248, Note_on_c, 3, 79, 0
1, 20248, Note_on_c, 2, 57, 0
1, 20256, Note_on_c, 9, 36, 0
1, 20256, Note_on_c, 1, 34, 127
1, 20256, Note_on_c, 3, 78, 127
1, 20256, Note_on_c, 3, 72, 67
1, 20256, Note_on_c, 9, 42, 90
1, 20272, Note_on_c, 3, 78, 0
1, 20272, Note_on_c, 1, 33, 0
1, 20280, Note_on_c, 3, 72, 0
1, 20288, Note_on_c, 1, 34, 0
1, 20304, Note_on_c, 9, 42, 0
1, 20304, Note_on_c, 1, 35, 127
1, 20304, Note_on_c, 2, 67, 64
1, 20304, Note_on_c, 2, 64, 64
1, 20304, Note_on_c, 2, 57, 64
1, 20304, Note_on_c, 2, 61, 64
1, 20304, Note_on_c, 3, 79, 127
1, 20304, Note_on_c, 3, 72, 67
1, 20336, Note_on_c, 1, 35, 0
1, 20344, Note_on_c, 2, 61, 0
1, 20344, Note_on_c, 2, 67, 0
1, 20344, Note_on_c, 2, 57, 0
1, 20344, Note_on_c, 2, 64, 0
1, 20352, Note_on_c, 1, 36, 127
1, 20352, Note_on_c, 9, 36, 127
1, 20352, Note_on_c, 9, 42, 90
1, 20368, Note_on_c, 3, 72, 0
1, 20376, Note_on_c, 3, 79, 0
1, 20384, Note_on_c, 1, 36, 0
1, 20400, Note_on_c, 9, 42, 0
1, 20400, Note_on_c, 1, 37, 127
1, 20400, Note_on_c, 2, 67, 64
1, 20400, Note_on_c, 2, 64, 64
1, 20400, Note_on_c, 2, 57, 64
1, 20400, Note_on_c, 2, 61, 64
1, 20400, Note_on_c, 3, 78, 127
1, 20400, Note_on_c, 3, 71, 67
1, 20432, Note_on_c, 1, 37, 0
1, 20440, Note_on_c, 2, 57, 0
1, 20440, Note_on_c, 2, 64, 0
1, 20440, Note_on_c, 2, 67, 0
1, 20440, Note_on_c, 2, 61, 0
1, 20448, Note_on_c, 9, 36, 0
1, 20448, Note_on_c, 1, 38, 127
1, 20448, Note_on_c, 9, 43, 90
1, 20456, Note_on_c, 3, 71, 0
1, 20464, Note_on_c, 3, 78, 0
1, 20496, Note_on_c, 9, 43, 0
1, 20496, Note_on_c, 2, 67, 64
1, 20496, Note_on_c, 2, 64, 64
1, 20496, Note_on_c, 2, 57, 64
1, 20496, Note_on_c, 2, 61, 64
1, 20496, Note_on_c, 3, 76, 127
1, 20496, Note_on_c, 3, 69, 67
1, 20536, Note_on_c, 2, 61, 0
1, 20536, Note_on_c, 2, 57, 0
1, 20536, Note_on_c, 2, 64, 0
1, 20536, Note_on_c, 2, 67, 0
1, 20544, Note_on_c, 1, 38, 0
1, 20544, Note_on_c, 2, 66, 64
1, 20544, Note_on_c, 2, 62, 64
1, 20544, Note_on_c, 2, 57, 64
1, 20544, Note_on_c, 9, 36, 127
1, 20544, Note_on_c, 9, 38, 127
1, 20544, Note_on_c, 9, 42, 90
1, 20544, Note_on_c, 9, 37, 127
1, 20560, Note_on_c, 3, 69, 0
1, 20560, Note_on_c, 3, 76, 0
1, 20584, Note_on_c, 2, 62, 0
1, 20584, Note_on_c, 2, 57, 0
1, 20584, Note_on_c, 2, 66, 0
1, 20592, Note_on_c, 9, 42, 0
1, 20592, Note_on_c, 9, 37, 0
1, 20592, Note_on_c, 9, 36, 0
1, 20592, Note_on_c, 9, 38, 0
1, 20592, Note_on_c, 1, 35, 127
1, 20592, Note_on_c, 3, 74, 127
1, 20592, Note_on_c, 3, 68, 67
1, 20624, Note_on_c, 1, 35, 0
1, 20640, Note_on_c, 3, 74, 0
1, 20640, Note_on_c, 1, 36, 127
1, 20640, Note_on_c, 2, 66, 64
1, 20640, Note_on_c, 2, 62, 64
1, 20640, Note_on_c, 2, 57, 64
1, 20640, Note_on_c, 9, 36, 127
1, 20640, Note_on_c, 9, 42, 90
1, 20656, Note_on_c, 3, 68, 0
1, 20664, Note_on_c, 1, 36, 0
1, 20680, Note_on_c, 2, 62, 0
1, 20680, Note_on_c, 2, 57, 0
1, 20680, Note_on_c, 2, 66, 0
1, 20688, Note_on_c, 9, 42, 0
1, 20688, Note_on_c, 9, 36, 0
1, 20688, Note_on_c, 1, 37, 127
1, 20688, Note_on_c, 3, 79, 127
1, 20688, Note_on_c, 3, 71, 67
1, 20688, Note_on_c, 9, 42, 90
1, 20712, Note_on_c, 1, 37, 0
1, 20736, Note_on_c, 9, 42, 0
1, 20736, Note_on_c, 1, 38, 127
1, 20736, Note_on_c, 2, 59, 64
1, 20736, Note_on_c, 2, 62, 64
1, 20736, Note_on_c, 2, 56, 64
1, 20736, Note_on_c, 2, 64, 64
1, 20736, Note_on_c, 9, 36, 127
1, 20736, Note_on_c, 9, 42, 90
1, 20752, Note_on_c, 3, 71, 0
1, 20760, Note_on_c, 1, 38, 0
1, 20776, Note_on_c, 2, 62, 0
1, 20776, Note_on_c, 2, 64, 0
1, 20776, Note_on_c, 3, 79, 0
1, 20776, Note_on_c, 2, 59, 0
1, 20776, Note_on_c, 2, 56, 0
1, 20784, Note_on_c, 9, 42, 0
1, 20784, Note_on_c, 1, 39, 127
1, 20784, Note_on_c, 3, 78, 127
1, 20784, Note_on_c, 3, 69, 67
1, 20800, Note_on_c, 3, 78, 0
1, 20808, Note_on_c, 3, 69, 0
1, 20816, Note_on_c, 1, 39, 0
1, 20832, Note_on_c, 9, 36, 0
1, 20832, Note_on_c, 1, 40, 127
1, 20832, Note_on_c, 2, 59, 64
1, 20832, Note_on_c, 2, 62, 64
1, 20832, Note_on_c, 2, 56, 64
1, 20832, Note_on_c, 2, 64, 64
1, 20832, Note_on_c, 3, 76, 127
1, 20832, Note_on_c, 3, 68, 67
1, 20832, Note_on_c, 9, 42, 90
1, 20848, Note_on_c, 3, 76, 0
1, 20872, Note_on_c, 2, 56, 0
1, 20872, Note_on_c, 2, 62, 0
1, 20872, Note_on_c, 2, 59, 0
1, 20872, Note_on_c, 2, 64, 0
1, 20880, Note_on_c, 9, 42, 0
1, 20896, Note_on_c, 3, 68, 0
1, 20920, Note_on_c, 1, 40, 0
1, 20928, Note_on_c, 2, 59, 64
1, 20928, Note_on_c, 2, 62, 64
1, 20928, Note_on_c, 2, 56, 64
1, 20928, Note_on_c, 2, 64, 64
1, 20928, Note_on_c, 9, 36, 127
1, 20928, Note_on_c, 9, 38, 127
1, 20928, Note_on_c, 9, 42, 90
1, 20928, Note_on_c, 9, 37, 127
1, 20968, Note_on_c, 2, 64, 0
1, 20968, Note_on_c, 2, 56, 0
1, 20968, Note_on_c, 2, 59, 0
1, 20968, Note_on_c, 2, 62, 0
1, 20976, Note_on_c, 9, 42, 0
1, 20976, Note_on_c, 9, 37, 0
1, 20976, Note_on_c, 9, 38, 0
1, 20976, Note_on_c, 2, 59, 64
1, 20976, Note_on_c, 2, 62, 64
1, 20976, Note_on_c, 2, 56, 64
1, 20976, Note_on_c, 2, 64, 64
1, 20976, Note_on_c, 4, 59, 127
1, 21008, Note_on_c, 4, 59, 0
1, 21016, Note_on_c, 2, 59, 0
1, 21016, Note_on_c, 2, 62, 0
1, 21016, Note_on_c, 2, 56, 0
1, 21016, Note_on_c, 2, 64, 0
1, 21024, Note_on_c, 9, 36, 0
1, 21024, Note_on_c, 1, 38, 127
1, 21024, Note_on_c, 4, 61, 127
1, 21024, Note_on_c, 9, 42, 90
1, 21064, Note_on_c, 4, 61, 0
1, 21064, Note_on_c, 1, 38, 0
1, 21072, Note_on_c, 9, 42, 0
1, 21072, Note_on_c, 1, 39, 127
1, 21072, Note_on_c, 2, 59, 64
1, 21072, Note_on_c, 2, 62, 64
1, 21072, Note_on_c, 2, 56, 64
1, 21072, Note_on_c, 2, 64, 64
1, 21072, Note_on_c, 4, 64, 127
1, 21072, Note_on_c, 9, 42, 90
1, 21104, Note_on_c, 1, 39, 0
1, 21112, Note_on_c, 2, 64, 0
1, 21112, Note_on_c, 2, 59, 0
1, 21112, Note_on_c, 2, 56, 0
1, 21112, Note_on_c, 2, 62, 0
1, 21120, Note_on_c, 9, 42, 0
1, 21120, Note_on_c, 1, 40, 127
1, 21120, Note_on_c, 9, 36, 127
1, 21152, Note_on_c, 1, 40, 0
1, 21168, Note_on_c, 1, 28, 127
1, 21168, Note_on_c, 2, 59, 64
1, 21168, Note_on_c, 2, 62, 64
1, 21168, Note_on_c, 2, 56, 64
1, 21168, Note_on_c, 2, 64, 64
1, 21168, Note_on_c, 4, 59, 127
1, 21168, Note_on_c, 9, 42, 90
1, 21176, Note_on_c, 4, 64, 0
1, 21200, Note_on_c, 1, 28, 0
1, 21208, Note_on_c, 4, 59, 0
1, 21208, Note_on_c, 2, 64, 0
1, 21208, Note_on_c, 2, 62, 0
1, 21208, Note_on_c, 2, 59, 0
1, 21208, Note_on_c, 2, 56, 0
1, 21216, Note_on_c, 9, 36, 0
1, 21216, Note_on_c, 9, 42, 0
1, 21216, Note_on_c, 4, 61, 127
1, 21216, Note_on_c, 9, 42, 90
1, 21248, Note_on_c, 4, 61, 0
1, 21264, Note_on_c, 9, 42, 0
1, 21264, Note_on_c, 1, 28, 127
1, 21264, Note_on_c, 2, 59, 64
1, 21264, Note_on_c, 2, 62, 64
1, 21264, Note_on_c, 2, 56, 64
1, 21264, Note_on_c, 2, 64, 64
1, 21264, Note_on_c, 4, 66, 127
1, 21264, Note_on_c, 9, 36, 127
1, 21264, Note_on_c, 9, 38, 127
1, 21264, Note_on_c, 9, 42, 90
1, 21264, Note_on_c, 9, 45, 127
1, 21288, Note_on_c, 1, 28, 0
1, 21304, Note_on_c, 2, 64, 0
1, 21304, Note_on_c, 2, 59, 0
1, 21304, Note_on_c, 2, 56, 0
1, 21304, Note_on_c, 2, 62, 0
1, 21312, Note_on_c, 9, 38, 0
1, 21312, Note_on_c, 9, 42, 0
1, 21312, Note_on_c, 9, 45, 0
1, 21312, Note_on_c, 9, 36, 0
1, 21312, Note_on_c, 1, 28, 127
1, 21312, Note_on_c, 2, 59, 64
1, 21312, Note_on_c, 2, 62, 64
1, 21312, Note_on_c, 2, 64, 64
1, 21312, Note_on_c, 2, 56, 64
1, 21312, Note_on_c, 9, 36, 127
1, 21312, Note_on_c, 9, 38, 127
1, 21312, Note_on_c, 9, 42, 90
1, 21312, Note_on_c, 9, 41, 127
1, 21312, Note_on_c, 9, 37, 127
1, 21336, Note_on_c, 4, 66, 0
1, 21352, Note_on_c, 2, 64, 0
1, 21352, Note_on_c, 2, 62, 0
1, 21352, Note_on_c, 2, 56, 0
1, 21352, Note_on_c, 2, 59, 0
1, 21360, Note_on_c, 9, 36, 0
1, 21360, Note_on_c, 9, 41, 0
1, 21360, Note_on_c, 9, 37, 0
1, 21360, Note_on_c, 9, 42, 0
1, 21360, Note_on_c, 9, 38, 0
1, 21360, Note_on_c, 4, 61, 127
1, 21376, Note_on_c, 4, 61, 0
1, 21384, Note_on_c, 1, 28, 0
1, 21408, Note_on_c, 1, 28, 127
1, 21408, Note_on_c, 3, 76, 127
1, 21408, Note_on_c, 4, 64, 127
1, 21408, Note_on_c, 9, 36, 127
1, 21408, Note_on_c, 9, 38, 127
1, 21408, Note_on_c, 9, 44, 90
1, 21408, Note_on_c, 9, 41, 127
1, 21432, Note_on_c, 4, 64, 0
1, 21432, Note_on_c, 3, 76, 0
1, 21456, Note_on_c, 9, 44, 0
1, 21456, Note_on_c, 9, 36, 0
1, 21456, Note_on_c, 1, 28, 0
1, 21456, Note_on_c, 9, 41, 0
1, 21456, Note_on_c, 9, 38, 0
1, 21456, Note_on_c, 3, 84, 127
1, 21456, Note_on_c, 4, 64, 127
1, 21456, Note_on_c, 3, 76, 67
1, 21488, Note_on_c, 4, 64, 0
1, 21504, Note_on_c, 1, 33, 127
1, 21504, Note_on_c, 2, 67, 64
1, 21504, Note_on_c, 2, 64, 64
1, 21504, Note_on_c, 2, 57, 64
1, 21504, Note_on_c, 2, 61, 64
1, 21504, Note_on_c, 9, 36, 127
1, 21504, Note_on_c, 9, 42, 90
1, 21512, Note_on_c, 3, 76, 0
1, 21520, Note_on_c, 3, 84, 0
1, 21544, Note_on_c, 2, 67, 0
1, 21544, Note_on_c, 2, 57, 0
1, 21544, Note_on_c, 2, 64, 0
1, 21544, Note_on_c, 2, 61, 0
1, 21552, Note_on_c, 9, 42, 0
1, 21552, Note_on_c, 3, 84, 127
1, 21552, Note_on_c, 3, 76, 67
1, 21600, Note_on_c, 9, 36, 0
1, 21600, Note_on_c, 2, 67, 64
1, 21600, Note_on_c, 2, 64, 64
1, 21600, Note_on_c, 2, 57, 64
1, 21600, Note_on_c, 2, 61, 64
1, 21600, Note_on_c, 9, 42, 90
1, 21616, Note_on_c, 3, 76, 0
1, 21624, Note_on_c, 3, 84, 0
1, 21640, Note_on_c, 2, 61, 0
1, 21640, Note_on_c, 2, 64, 0
1, 21640, Note_on_c, 2, 67, 0
1, 21640, Note_on_c, 1, 33, 0
1, 21640, Note_on_c, 2, 57, 0
1, 21648, Note_on_c, 9, 42, 0
1, 21648, Note_on_c, 1, 45, 127
1, 21648, Note_on_c, 3, 83, 127
1, 21648, Note_on_c, 3, 74, 67
1, 21648, Note_on_c, 9, 42, 90
1, 21696, Note_on_c, 9, 42, 0
1, 21696, Note_on_c, 1, 45, 0
1, 21696, Note_on_c, 2, 67, 64
1, 21696, Note_on_c, 2, 64, 64
1, 21696, Note_on_c, 2, 57, 64
1, 21696, Note_on_c, 2, 61, 64
1, 21696, Note_on_c, 9, 36, 127
1, 21696, Note_on_c, 9, 38, 127
1, 21696, Note_on_c, 9, 42, 90
1, 21696, Note_on_c, 9, 37, 127
1, 21704, Note_on_c, 3, 74, 0
1, 21712, Note_on_c, 3, 83, 0
1, 21736, Note_on_c, 2, 64, 0
1, 21736, Note_on_c, 2, 57, 0
1, 21736, Note_on_c, 2, 61, 0
1, 21736, Note_on_c, 2, 67, 0
1, 21744, Note_on_c, 9, 42, 0
1, 21744, Note_on_c, 9, 37, 0
1, 21744, Note_on_c, 9, 38, 0
1, 21744, Note_on_c, 1, 33, 127
1, 21744, Note_on_c, 2, 67, 64
1, 21744, Note_on_c, 2, 64, 64
1, 21744, Note_on_c, 2, 57, 64
1, 21744, Note_on_c, 2, 61, 64
1, 21744, Note_on_c, 3, 81, 127
1, 21744, Note_on_c, 3, 72, 67
1, 21784, Note_on_c, 2, 61, 0
1, 21784, Note_on_c, 2, 64, 0
1, 21784, Note_on_c, 2, 67, 0
1, 21784, Note_on_c, 2, 57, 0
1, 21792, Note_on_c, 9, 36, 0
1, 21792, Note_on_c, 1, 34, 127
1, 21792, Note_on_c, 9, 42, 90
1, 21800, Note_on_c, 1, 33, 0
1, 21816, Note_on_c, 1, 34, 0
1, 21816, Note_on_c, 3, 81, 0
1, 21832, Note_on_c, 3, 72, 0
1, 21840, Note_on_c, 9, 42, 0
1, 21840, Note_on_c, 1, 35, 127
1, 21840, Note_on_c, 2, 67, 64
1, 21840, Note_on_c, 2, 64, 64
1, 21840, Note_on_c, 2, 57, 64
1, 21840, Note_on_c, 2, 61, 64
1, 21840, Note_on_c, 3, 81, 127
1, 21840, Note_on_c, 3, 72, 67
1, 21840, Note_on_c, 9, 42, 90
1, 21864, Note_on_c, 3, 81, 0
1, 21872, Note_on_c, 3, 72, 0
1, 21872, Note_on_c, 1, 35, 0
1, 21880, Note_on_c, 2, 61, 0
1, 21880, Note_on_c, 2, 57, 0
1, 21880, Note_on_c, 2, 67, 0
1, 21880, Note_on_c, 2, 64, 0
1, 21888, Note_on_c, 9, 42, 0
1, 21888, Note_on_c, 1, 36, 127
1, 21888, Note_on_c, 3, 81, 127
1, 21888, Note_on_c, 3, 74, 67
1, 21888, Note_on_c, 9, 36, 127
1, 21904, Note_on_c, 3, 81, 0
1, 21912, Note_on_c, 1, 36, 0
1, 21920, Note_on_c, 3, 74, 0
1, 21936, Note_on_c, 9, 36, 0
1, 21936, Note_on_c, 1, 37, 127
1, 21936, Note_on_c, 2, 67, 64
1, 21936, Note_on_c, 2, 64, 64
1, 21936, Note_on_c, 2, 57, 64
1, 21936, Note_on_c, 2, 61, 64
1, 21936, Note_on_c, 3, 81, 127
1, 21936, Note_on_c, 3, 74, 67
1, 21936, Note_on_c, 9, 42, 90
1, 21960, Note_on_c, 3, 81, 0
1, 21960, Note_on_c, 1, 37, 0
1, 21968, Note_on_c, 3, 74, 0
1, 21976, Note_on_c, 2, 61, 0
1, 21976, Note_on_c, 2, 57, 0
1, 21976, Note_on_c, 2, 67, 0
1, 21976, Note_on_c, 2, 64, 0
1, 21984, Note_on_c, 9, 42, 0
1, 21984, Note_on_c, 1, 38, 127
1, 21984, Note_on_c, 3, 78, 127
1, 21984, Note_on_c, 3, 72, 67
1, 21984, Note_on_c, 9, 42, 90
1, 22000, Note_on_c, 3, 78, 0
1, 22016, Note_on_c, 3, 72, 0
1, 22032, Note_on_c, 9, 42, 0
1, 22032, Note_on_c, 2, 67, 64
1, 22032, Note_on_c, 2, 64, 64
1, 22032, Note_on_c, 2, 57, 64
1, 22032, Note_on_c, 2, 61, 64
1, 22032, Note_on_c, 3, 81, 127
1, 22032, Note_on_c, 3, 71, 67
1, 22048, Note_on_c, 3, 81, 0
1, 22072, Note_on_c, 2, 57, 0
1, 22072, Note_on_c, 2, 67, 0
1, 22072, Note_on_c, 2, 64, 0
1, 22072, Note_on_c, 2, 61, 0
1, 22080, Note_on_c, 3, 71, 0
1, 22080, Note_on_c, 2, 66, 64
1, 22080, Note_on_c, 2, 62, 64
1, 22080, Note_on_c, 2, 57, 64
1, 22080, Note_on_c, 3, 81, 127
1, 22080, Note_on_c, 9, 36, 127
1, 22080, Note_on_c, 9, 38, 127
1, 22080, Note_on_c, 9, 42, 90
1, 22080, Note_on_c, 9, 37, 127
1, 22104, Note_on_c, 1, 38, 0
1, 22112, Note_on_c, 3, 81, 0
1, 22120, Note_on_c, 2, 66, 0
1, 22120, Note_on_c, 2, 57, 0
1, 22120, Note_on_c, 2, 62, 0
1, 22128, Note_on_c, 9, 42, 0
1, 22128, Note_on_c, 9, 37, 0
1, 22128, Note_on_c, 9, 36, 0
1, 22128, Note_on_c, 9, 38, 0
1, 22128, Note_on_c, 1, 36, 127
1, 22160, Note_on_c, 1, 36, 0
1, 22176, Note_on_c, 1, 37, 127
1, 22176, Note_on_c, 2, 66, 64
1, 22176, Note_on_c, 2, 62, 64
1, 22176, Note_on_c, 2, 57, 64
1, 22176, Note_on_c, 9, 36, 127
1, 22176, Note_on_c, 9, 42, 90
1, 22200, Note_on_c, 1, 37, 0
1, 22216, Note_on_c, 2, 57, 0
1, 22216, Note_on_c, 2, 66, 0
1, 22216, Note_on_c, 2, 62, 0
1, 22224, Note_on_c, 9, 42, 0
1, 22224, Note_on_c, 9, 36, 0
1, 22224, Note_on_c, 1, 38, 127
1, 22224, Note_on_c, 3, 79, 127
1, 22224, Note_on_c, 3, 72, 67
1, 22224, Note_on_c, 9, 42, 90
1, 22248, Note_on_c, 1, 38, 0
1, 22272, Note_on_c, 9, 42, 0
1, 22272, Note_on_c, 1, 38, 127
1, 22272, Note_on_c, 2, 59, 64
1, 22272, Note_on_c, 2, 62, 64
1, 22272, Note_on_c, 2, 56, 64
1, 22272, Note_on_c, 2, 64, 64
1, 22272, Note_on_c, 9, 36, 127
1, 22272, Note_on_c, 9, 42, 90
1, 22280, Note_on_c, 3, 79, 0
1, 22288, Note_on_c, 3, 72, 0
1, 22296, Note_on_c, 1, 38, 0
1, 22312, Note_on_c, 2, 64, 0
1, 22312, Note_on_c, 2, 59, 0
1, 22312, Note_on_c, 2, 62, 0
1, 22312, Note_on_c, 2, 56, 0
1, 22320, Note_on_c, 9, 42, 0
1, 22320, Note_on_c, 1, 39, 127
1, 22320, Note_on_c, 3, 79, 127
1, 22320, Note_on_c, 3, 72, 67
1, 22344, Note_on_c, 1, 39, 0
1, 22368, Note_on_c, 9, 36, 0
1, 22368, Note_on_c, 1, 40, 127
1, 22368, Note_on_c, 2, 59, 64
1, 22368, Note_on_c, 2, 62, 64
1, 22368, Note_on_c, 2, 56, 64
1, 22368, Note_on_c, 2, 64, 64
1, 22368, Note_on_c, 9, 42, 90
1, 22376, Note_on_c, 3, 79, 0
1, 22392, Note_on_c, 3, 72, 0
1, 22408, Note_on_c, 2, 56, 0
1, 22408, Note_on_c, 2, 59, 0
1, 22408, Note_on_c, 2, 62, 0
1, 22408, Note_on_c, 2, 64, 0
1, 22416, Note_on_c, 9, 42, 0
1, 22416, Note_on_c, 3, 79, 127
1, 22416, Note_on_c, 3, 72, 67
1, 22464, Note_on_c, 2, 59, 64
1, 22464, Note_on_c, 2, 62, 64
1, 22464, Note_on_c, 2, 56, 64
1, 22464, Note_on_c, 2, 64, 64
1, 22464, Note_on_c, 9, 36, 127
1, 22464, Note_on_c, 9, 38, 127
1, 22464, Note_on_c, 9, 42, 90
1, 22464, Note_on_c, 9, 37, 127
1, 22496, Note_on_c, 3, 72, 0
1, 22504, Note_on_c, 2, 62, 0
1, 22504, Note_on_c, 2, 59, 0
1, 22504, Note_on_c, 2, 64, 0
1, 22504, Note_on_c, 2, 56, 0
1, 22512, Note_on_c, 9, 42, 0
1, 22512, Note_on_c, 9, 38, 0
1, 22512, Note_on_c, 9, 37, 0
1, 22512, Note_on_c, 2, 59, 64
1, 22512, Note_on_c, 2, 62, 64
1, 22512, Note_on_c, 2, 56, 64
1, 22512, Note_on_c, 2, 64, 64
1, 22512, Note_on_c, 4, 59, 127
1, 22512, Note_on_c, 3, 71, 67
1, 22536, Note_on_c, 1, 40, 0
1, 22536, Note_on_c, 3, 79, 0
1, 22544, Note_on_c, 4, 59, 0
1, 22552, Note_on_c, 2, 64, 0
1, 22552, Note_on_c, 2, 62, 0
1, 22552, Note_on_c, 2, 59, 0
1, 22552, Note_on_c, 2, 56, 0
1, 22560, Note_on_c, 9, 36, 0
1, 22560, Note_on_c, 1, 38, 127
1, 22560, Note_on_c, 3, 78, 127
1, 22560, Note_on_c, 4, 61, 127
1, 22560, Note_on_c, 9, 42, 90
1, 22576, Note_on_c, 3, 78, 0
1, 22584, Note_on_c, 4, 61, 0
1, 22584, Note_on_c, 3, 71, 0
1, 22608, Note_on_c, 1, 38, 0
1, 22608, Note_on_c, 9, 42, 0
1, 22608, Note_on_c, 1, 39, 127
1, 22608, Note_on_c, 2, 59, 64
1, 22608, Note_on_c, 2, 62, 64
1, 22608, Note_on_c, 2, 56, 64
1, 22608, Note_on_c, 2, 64, 64
1, 22608, Note_on_c, 3, 79, 127
1, 22608, Note_on_c, 4, 64, 127
1, 22608, Note_on_c, 3, 69, 67
1, 22608, Note_on_c, 9, 42, 90
1, 22624, Note_on_c, 3, 79, 0
1, 22632, Note_on_c, 1, 39, 0
1, 22640, Note_on_c, 3, 69, 0
1, 22648, Note_on_c, 2, 59, 0
1, 22648, Note_on_c, 2, 64, 0
1, 22648, Note_on_c, 2, 56, 0
1, 22648, Note_on_c, 2, 62, 0
1, 22656, Note_on_c, 9, 42, 0
1, 22656, Note_on_c, 1, 40, 127
1, 22656, Note_on_c, 3, 79, 127
1, 22656, Note_on_c, 3, 71, 67
1, 22656, Note_on_c, 9, 36, 127
1, 22656, Note_on_c, 9, 42, 90
1, 22688, Note_on_c, 3, 71, 0
1, 22688, Note_on_c, 1, 40, 0
1, 22704, Note_on_c, 4, 64, 0
1, 22704, Note_on_c, 9, 42, 0
1, 22704, Note_on_c, 1, 28, 127
1, 22704, Note_on_c, 2, 59, 64
1, 22704, Note_on_c, 2, 62, 64
1, 22704, Note_on_c, 2, 56, 64
1, 22704, Note_on_c, 2, 64, 64
1, 22704, Note_on_c, 4, 59, 127
1, 22704, Note_on_c, 3, 71, 67
1, 22736, Note_on_c, 3, 71, 0
1, 22736, Note_on_c, 4, 59, 0
1, 22736, Note_on_c, 1, 28, 0
1, 22744, Note_on_c, 2, 56, 0
1, 22744, Note_on_c, 3, 79, 0
1, 22744, Note_on_c, 2, 59, 0
1, 22744, Note_on_c, 2, 62, 0
1, 22744, Note_on_c, 2, 64, 0
1, 22752, Note_on_c, 9, 36, 0
1, 22752, Note_on_c, 3, 78, 127
1, 22752, Note_on_c, 4, 61, 127
1, 22752, Note_on_c, 3, 69, 67
1, 22752, Note_on_c, 9, 42, 90
1, 22776, Note_on_c, 3, 69, 0
1, 22776, Note_on_c, 4, 61, 0
1, 22784, Note_on_c, 3, 78, 0
1, 22800, Note_on_c, 9, 42, 0
1, 22800, Note_on_c, 1, 28, 127
1, 22800, Note_on_c, 2, 59, 64
1, 22800, Note_on_c, 2, 62, 64
1, 22800, Note_on_c, 2, 56, 64
1, 22800, Note_on_c, 2, 64, 64
1, 22800, Note_on_c, 3, 76, 127
1, 22800, Note_on_c, 4, 66, 127
1, 22800, Note_on_c, 3, 68, 67
1, 22800, Note_on_c, 9, 36, 127
1, 22800, Note_on_c, 9, 38, 127
1, 22800, Note_on_c, 9, 42, 90
1, 22800, Note_on_c, 9, 45, 127
1, 22832, Note_on_c, 3, 76, 0
1, 22832, Note_on_c, 1, 28, 0
1, 22840, Note_on_c, 3, 68, 0
1, 22840, Note_on_c, 2, 64, 0
1, 22840, Note_on_c, 2, 59, 0
1, 22840, Note_on_c, 2, 56, 0
1, 22840, Note_on_c, 2, 62, 0
1, 22848, Note_on_c, 9, 42, 0
1, 22848, Note_on_c, 9, 36, 0
1, 22848, Note_on_c, 9, 38, 0
1, 22848, Note_on_c, 9, 45, 0
1, 22848, Note_on_c, 1, 28, 127
1, 22848, Note_on_c, 2, 59, 64
1, 22848, Note_on_c, 2, 62, 64
1, 22848, Note_on_c, 2, 64, 64
1, 22848, Note_on_c, 2, 56, 64
1, 22848, Note_on_c, 9, 36, 127
1, 22848, Note_on_c, 9, 38, 127
1, 22848, Note_on_c, 9, 41, 127
1, 22848, Note_on_c, 9, 37, 127
1, 22872, Note_on_c, 4, 66, 0
1, 22888, Note_on_c, 2, 64, 0
1, 22888, Note_on_c, 2, 62, 0
1, 22888, Note_on_c, 2, 56, 0
1, 22888, Note_on_c, 2, 59, 0
1, 22896, Note_on_c, 9, 38, 0
1, 22896, Note_on_c, 9, 37, 0
1, 22896, Note_on_c, 9, 41, 0
1, 22896, Note_on_c, 9, 36, 0
1, 22896, Note_on_c, 3, 76, 127
1, 22896, Note_on_c, 4, 61, 127
1, 22896, Note_on_c, 9, 42, 90
1, 22920, Note_on_c, 4, 61, 0
1, 22928, Note_on_c, 1, 28, 0
1, 22936, Note_on_c, 3, 76, 0
1, 22944, Note_on_c, 9, 42, 0
1, 22944, Note_on_c, 1, 28, 127
1, 22944, Note_on_c, 4, 64, 127
1, 22944, Note_on_c, 9, 36, 127
1, 22944, Note_on_c, 9, 38, 127
1, 22944, Note_on_c, 9, 44, 90
1, 22944, Note_on_c, 9, 41, 127
1, 22976, Note_on_c, 4, 64, 0
1, 22992, Note_on_c, 9, 36, 0
1, 22992, Note_on_c, 9, 38, 0
1, 22992, Note_on_c, 9, 44, 0
1, 22992, Note_on_c, 9, 41, 0
1, 22992, Note_on_c, 3, 84, 127
1, 22992, Note_on_c, 4, 64, 127
1, 22992, Note_on_c, 3, 74, 67
1, 22992, Note_on_c, 3, 72, 67
1, 23024, Note_on_c, 3, 72, 0
1, 23024, Note_on_c, 3, 74, 0
1, 23032, Note_on_c, 4, 64, 0
1, 23032, Note_on_c, 1, 28, 0
1, 23040, Note_on_c, 1, 33, 127
1, 23040, Note_on_c, 2, 67, 64
1, 23040, Note_on_c, 2, 64, 64
1, 23040, Note_on_c, 2, 57, 64
1, 23040, Note_on_c, 2, 61, 64
1, 23040, Note_on_c, 9, 36, 127
1, 23040, Note_on_c, 9, 42, 90
1, 23048, Note_on_c, 3, 84, 0
1, 23080, Note_on_c, 2, 57, 0
1, 23080, Note_on_c, 2, 64, 0
1, 23080, Note_on_c, 2, 67, 0
1, 23080, Note_on_c, 2, 61, 0
1, 23088, Note_on_c, 9, 42, 0
1, 23088, Note_on_c, 3, 83, 127
1, 23088, Note_on_c, 3, 74, 67
1, 23136, Note_on_c, 3, 83, 0
1, 23136, Note_on_c, 9, 36, 0
1, 23136, Note_on_c, 2, 67, 64
1, 23136, Note_on_c, 2, 64, 64
1, 23136, Note_on_c, 2, 57, 64
1, 23136, Note_on_c, 2, 61, 64
1, 23136, Note_on_c, 9, 42, 90
1, 23144, Note_on_c, 3, 74, 0
1, 23176, Note_on_c, 2, 57, 0
1, 23176, Note_on_c, 2, 67, 0
1, 23176, Note_on_c, 2, 64, 0
1, 23176, Note_on_c, 2, 61, 0
1, 23184, Note_on_c, 1, 33, 0
1, 23184, Note_on_c, 9, 42, 0
1, 23184, Note_on_c, 1, 45, 127
1, 23184, Note_on_c, 3, 81, 127
1, 23184, Note_on_c, 3, 74, 67
1, 23184, Note_on_c, 9, 42, 90
1, 23232, Note_on_c, 9, 42, 0
1, 23232, Note_on_c, 1, 45, 0
1, 23232, Note_on_c, 2, 67, 64
1, 23232, Note_on_c, 2, 64, 64
1, 23232, Note_on_c, 2, 57, 64
1, 23232, Note_on_c, 2, 61, 64
1, 23232, Note_on_c, 9, 36, 127
1, 23232, Note_on_c, 9, 38, 127
1, 23232, Note_on_c, 9, 42, 90
1, 23232, Note_on_c, 9, 37, 127
1, 23256, Note_on_c, 3, 74, 0
1, 23256, Note_on_c, 3, 81, 0
1, 23272, Note_on_c, 2, 64, 0
1, 23272, Note_on_c, 2, 57, 0
1, 23272, Note_on_c, 2, 61, 0
1, 23272, Note_on_c, 2, 67, 0
1, 23280, Note_on_c, 9, 42, 0
1, 23280, Note_on_c, 9, 37, 0
1, 23280, Note_on_c, 9, 38, 0
1, 23280, Note_on_c, 1, 33, 127
1, 23280, Note_on_c, 2, 67, 64
1, 23280, Note_on_c, 2, 64, 64
1, 23280, Note_on_c, 2, 57, 64
1, 23280, Note_on_c, 2, 61, 64
1, 23280, Note_on_c, 3, 78, 127
1, 23280, Note_on_c, 3, 72, 67
1, 23304, Note_on_c, 3, 78, 0
1, 23320, Note_on_c, 2, 64, 0
1, 23320, Note_on_c, 2, 57, 0
1, 23320, Note_on_c, 2, 67, 0
1, 23320, Note_on_c, 2, 61, 0
1, 23328, Note_on_c, 9, 36, 0
1, 23328, Note_on_c, 1, 34, 127
1, 23328, Note_on_c, 3, 78, 127
1, 23328, Note_on_c, 9, 42, 90
1, 23336, Note_on_c, 3, 72, 0
1, 23344, Note_on_c, 3, 78, 0
1, 23344, Note_on_c, 1, 33, 0
1, 23360, Note_on_c, 1, 34, 0
1, 23376, Note_on_c, 9, 42, 0
1, 23376, Note_on_c, 1, 35, 127
1, 23376, Note_on_c, 2, 67, 64
1, 23376, Note_on_c, 2, 64, 64
1, 23376, Note_on_c, 2, 57, 64
1, 23376, Note_on_c, 2, 61, 64
1, 23376, Note_on_c, 3, 78, 127
1, 23376, Note_on_c, 3, 71, 67
1, 23376, Note_on_c, 9, 42, 90
1, 23392, Note_on_c, 3, 71, 0
1, 23392, Note_on_c, 3, 78, 0
1, 23408, Note_on_c, 1, 35, 0
1, 23416, Note_on_c, 2, 61, 0
1, 23416, Note_on_c, 2, 57, 0
1, 23416, Note_on_c, 2, 67, 0
1, 23416, Note_on_c, 2, 64, 0
1, 23424, Note_on_c, 9, 42, 0
1, 23424, Note_on_c, 1, 36, 127
1, 23424, Note_on_c, 3, 79, 127
1, 23424, Note_on_c, 3, 72, 67
1, 23424, Note_on_c, 9, 36, 127
1, 23424, Note_on_c, 9, 42, 90
1, 23448, Note_on_c, 3, 72, 0
1, 23448, Note_on_c, 3, 79, 0
1, 23456, Note_on_c, 1, 36, 0
1, 23472, Note_on_c, 9, 42, 0
1, 23472, Note_on_c, 1, 37, 127
1, 23472, Note_on_c, 2, 67, 64
1, 23472, Note_on_c, 2, 64, 64
1, 23472, Note_on_c, 2, 57, 64
1, 23472, Note_on_c, 2, 61, 64
1, 23472, Note_on_c, 3, 79, 127
1, 23472, Note_on_c, 3, 72, 67
1, 23504, Note_on_c, 3, 72, 0
1, 23504, Note_on_c, 3, 79, 0
1, 23504, Note_on_c, 1, 37, 0
1, 23512, Note_on_c, 2, 67, 0
1, 23512, Note_on_c, 2, 64, 0
1, 23512, Note_on_c, 2, 57, 0
1, 23512, Note_on_c, 2, 61, 0
1, 23520, Note_on_c, 9, 36, 0
1, 23520, Note_on_c, 1, 38, 127
1, 23520, Note_on_c, 3, 78, 127
1, 23520, Note_on_c, 3, 71, 67
1, 23520, Note_on_c, 9, 42, 90
1, 23544, Note_on_c, 3, 71, 0
1, 23544, Note_on_c, 3, 78, 0
1, 23568, Note_on_c, 9, 42, 0
1, 23568, Note_on_c, 2, 67, 64
1, 23568, Note_on_c, 2, 64, 64
1, 23568, Note_on_c, 2, 57, 64
1, 23568, Note_on_c, 2, 61, 64
1, 23568, Note_on_c, 3, 78, 127
1, 23568, Note_on_c, 3, 71, 67
1, 23584, Note_on_c, 3, 71, 0
1, 23600, Note_on_c, 3, 78, 0
1, 23608, Note_on_c, 2, 67, 0
1, 23608, Note_on_c, 2, 64, 0
1, 23608, Note_on_c, 2, 57, 0
1, 23608, Note_on_c, 2, 61, 0
1, 23616, Note_on_c, 1, 38, 0
1, 23616, Note_on_c, 2, 66, 64
1, 23616, Note_on_c, 2, 62, 64
1, 23616, Note_on_c, 2, 57, 64
1, 23616, Note_on_c, 3, 76, 127
1, 23616, Note_on_c, 3, 69, 67
1, 23616, Note_on_c, 9, 36, 127
1, 23616, Note_on_c, 9, 38, 127
1, 23616, Note_on_c, 9, 42, 90
1, 23616, Note_on_c, 9, 37, 127
1, 23656, Note_on_c, 2, 57, 0
1, 23656, Note_on_c, 2, 66, 0
1, 23656, Note_on_c, 2, 62, 0
1, 23664, Note_on_c, 9, 38, 0
1, 23664, Note_on_c, 9, 42, 0
1, 23664, Note_on_c, 3, 69, 0
1, 23664, Note_on_c, 9, 37, 0
1, 23664, Note_on_c, 9, 36, 0
1, 23664, Note_on_c, 1, 34, 127
1, 23680, Note_on_c, 3, 76, 0
1, 23688, Note_on_c, 1, 34, 0
1, 23712, Note_on_c, 1, 35, 127
1, 23712, Note_on_c, 2, 66, 64
1, 23712, Note_on_c, 2, 62, 64
1, 23712, Note_on_c, 2, 57, 64
1, 23712, Note_on_c, 3, 78, 127
1, 23712, Note_on_c, 3, 71, 67
1, 23712, Note_on_c, 9, 36, 127
1, 23712, Note_on_c, 9, 42, 90
1, 23744, Note_on_c, 1, 35, 0
1, 23752, Note_on_c, 2, 57, 0
1, 23752, Note_on_c, 2, 66, 0
1, 23752, Note_on_c, 2, 62, 0
1, 23760, Note_on_c, 9, 36, 0
1, 23760, Note_on_c, 9, 42, 0
1, 23760, Note_on_c, 1, 36, 127
1, 23760, Note_on_c, 9, 42, 90
1, 23784, Note_on_c, 1, 36, 0
1, 23808, Note_on_c, 9, 42, 0
1, 23808, Note_on_c, 1, 37, 127
1, 23808, Note_on_c, 2, 59, 64
1, 23808, Note_on_c, 2, 62, 64
1, 23808, Note_on_c, 2, 56, 64
1, 23808, Note_on_c, 2, 64, 64
1, 23808, Note_on_c, 9, 36, 127
1, 23808, Note_on_c, 9, 42, 90
1, 23832, Note_on_c, 1, 37, 0
1, 23848, Note_on_c, 2, 62, 0
1, 23848, Note_on_c, 2, 59, 0
1, 23848, Note_on_c, 2, 56, 0
1, 23848, Note_on_c, 2, 64, 0
1, 23856, Note_on_c, 9, 42, 0
1, 23856, Note_on_c, 1, 37, 127
1, 23856, Note_on_c, 1, 38, 127
1, 23872, Note_on_c, 3, 78, 0
1, 23880, Note_on_c, 1, 38, 0
1, 23888, Note_on_c, 3, 71, 0
1, 23904, Note_on_c, 9, 36, 0
1, 23904, Note_on_c, 1, 40, 127
1, 23904, Note_on_c, 2, 59, 64
1, 23904, Note_on_c, 2, 62, 64
1, 23904, Note_on_c, 2, 56, 64
1, 23904, Note_on_c, 2, 64, 64
1, 23904, Note_on_c, 3, 76, 127
1, 23904, Note_on_c, 3, 68, 67
1, 23904, Note_on_c, 9, 42, 90
1, 23944, Note_on_c, 2, 64, 0
1, 23944, Note_on_c, 2, 62, 0
1, 23944, Note_on_c, 2, 59, 0
1, 23944, Note_on_c, 2, 56, 0
1, 23952, Note_on_c, 9, 42, 0
1, 23984, Note_on_c, 3, 68, 0
1, 23984, Note_on_c, 3, 76, 0
1, 24000, Note_on_c, 2, 59, 64
1, 24000, Note_on_c, 2, 62, 64
1, 24000, Note_on_c, 2, 56, 64
1, 24000, Note_on_c, 2, 64, 64
1, 24000, Note_on_c, 9, 36, 127
1, 24000, Note_on_c, 9, 38, 127
1, 24000, Note_on_c, 9, 42, 90
1, 24000, Note_on_c, 9, 37, 127
1, 24040, Note_on_c, 2, 64, 0
1, 24040, Note_on_c, 2, 62, 0
1, 24040, Note_on_c, 2, 59, 0
1, 24040, Note_on_c, 2, 56, 0
1, 24048, Note_on_c, 9, 38, 0
1, 24048, Note_on_c, 9, 42, 0
1, 24048, Note_on_c, 9, 37, 0
1, 24048, Note_on_c, 2, 59, 64
1, 24048, Note_on_c, 2, 62, 64
1, 24048, Note_on_c, 2, 56, 64
1, 24048, Note_on_c, 2, 64, 64
1, 24048, Note_on_c, 4, 59, 127
1, 24048, Note_on_c, 9, 42, 90
1, 24080, Note_on_c, 1, 40, 0
1, 24088, Note_on_c, 4, 59, 0
1, 24088, Note_on_c, 2, 62, 0
1, 24088, Note_on_c, 2, 56, 0
1, 24088, Note_on_c, 2, 59, 0
1, 24088, Note_on_c, 2, 64, 0
1, 24096, Note_on_c, 9, 42, 0
1, 24096, Note_on_c, 9, 36, 0
1, 24096, Note_on_c, 1, 38, 127
1, 24096, Note_on_c, 4, 61, 127
1, 24128, Note_on_c, 4, 61, 0
1, 24136, Note_on_c, 1, 38, 0
1, 24144, Note_on_c, 1, 39, 127
1, 24144, Note_on_c, 2, 59, 64
1, 24144, Note_on_c, 2, 62, 64
1, 24144, Note_on_c, 2, 56, 64
1, 24144, Note_on_c, 2, 64, 64
1, 24144, Note_on_c, 4, 64, 127
1, 24144, Note_on_c, 9, 42, 90
1, 24176, Note_on_c, 1, 39, 0
1, 24184, Note_on_c, 2, 56, 0
1, 24184, Note_on_c, 2, 62, 0
1, 24184, Note_on_c, 2, 59, 0
1, 24184, Note_on_c, 2, 64, 0
1, 24192, Note_on_c, 9, 42, 0
1, 24192, Note_on_c, 1, 40, 127
1, 24192, Note_on_c, 9, 36, 127
1, 24232, Note_on_c, 1, 40, 0
1, 24232, Note_on_c, 4, 64, 0
1, 24240, Note_on_c, 1, 28, 127
1, 24240, Note_on_c, 2, 59, 64
1, 24240, Note_on_c, 2, 62, 64
1, 24240, Note_on_c, 2, 56, 64
1, 24240, Note_on_c, 2, 64, 64
1, 24240, Note_on_c, 4, 61, 127
1, 24240, Note_on_c, 9, 38, 127
1, 24240, Note_on_c, 9, 42, 90
1, 24240, Note_on_c, 9, 48, 127
1, 24264, Note_on_c, 1, 28, 0
1, 24272, Note_on_c, 4, 61, 0
1, 24280, Note_on_c, 2, 62, 0
1, 24280, Note_on_c, 2, 59, 0
1, 24280, Note_on_c, 2, 64, 0
1, 24280, Note_on_c, 2, 56, 0
1, 24288, Note_on_c, 9, 38, 0
1, 24288, Note_on_c, 9, 42, 0
1, 24288, Note_on_c, 9, 48, 0
1, 24288, Note_on_c, 9, 36, 0
1, 24288, Note_on_c, 4, 64, 127
1, 24320, Note_on_c, 4, 64, 0
1, 24336, Note_on_c, 1, 28, 127
1, 24336, Note_on_c, 2, 59, 64
1, 24336, Note_on_c, 2, 62, 64
1, 24336, Note_on_c, 2, 56, 64
1, 24336, Note_on_c, 2, 64, 64
1, 24336, Note_on_c, 4, 66, 127
1, 24336, Note_on_c, 9, 36, 127
1, 24336, Note_on_c, 9, 38, 127
1, 24336, Note_on_c, 9, 42, 90
1, 24336, Note_on_c, 9, 45, 127
1, 24352, Note_on_c, 1, 28, 0
1, 24376, Note_on_c, 2, 56, 0
1, 24376, Note_on_c, 2, 62, 0
1, 24376, Note_on_c, 2, 64, 0
1, 24376, Note_on_c, 2, 59, 0
1, 24384, Note_on_c, 9, 42, 0
1, 24384, Note_on_c, 9, 38, 0
1, 24384, Note_on_c, 9, 45, 0
1, 24384, Note_on_c, 9, 36, 0
1, 24384, Note_on_c, 1, 28, 127
1, 24384, Note_on_c, 2, 59, 64
1, 24384, Note_on_c, 2, 62, 64
1, 24384, Note_on_c, 2, 64, 64
1, 24384, Note_on_c, 2, 56, 64
1, 24384, Note_on_c, 9, 36, 127
1, 24384, Note_on_c, 9, 38, 127
1, 24384, Note_on_c, 9, 42, 90
1, 24384, Note_on_c, 9, 45, 127
1, 24384, Note_on_c, 9, 37, 127
1, 24400, Note_on_c, 4, 66, 0
1, 24424, Note_on_c, 2, 62, 0
1, 24424, Note_on_c, 2, 59, 0
1, 24424, Note_on_c, 2, 56, 0
1, 24424, Note_on_c, 2, 64, 0
1, 24432, Note_on_c, 9, 45, 0
1, 24432, Note_on_c, 9, 38, 0
1, 24432, Note_on_c, 9, 37, 0
1, 24432, Note_on_c, 9, 42, 0
1, 24432, Note_on_c, 9, 36, 0
1, 24432, Note_on_c, 4, 61, 127
1, 24448, Note_on_c, 1, 28, 0
1, 24456, Note_on_c, 4, 61, 0
1, 24480, Note_on_c, 1, 30, 127
1, 24480, Note_on_c, 4, 64, 127
1, 24480, Note_on_c, 9, 36, 127
1, 24480, Note_on_c, 9, 38, 127
1, 24480, Note_on_c, 9, 44, 90
1, 24480, Note_on_c, 9, 45, 127
1, 24480, Note_on_c, 9, 49, 127
1, 24488, Note_on_c, 1, 30, 0
1, 24504, Note_on_c, 4, 64, 0
1, 24528, Note_on_c, 9, 45, 0
1, 24528, Note_on_c, 9, 49, 0
1, 24528, Note_on_c, 9, 36, 0
1, 24528, Note_on_c, 9, 38, 0
1, 24528, Note_on_c, 9, 44, 0
1, 24528, Note_on_c, 4, 64, 127
1, 24544, Note_on_c, 4, 64, 0
1, 24576, Note_on_c, 1, 37, 0
1, 24576, Note_on_c, 1, 30, 127
1, 24576, Note_on_c, 2, 73, 64
1, 24576, Note_on_c, 2, 71, 64
1, 24576, Note_on_c, 2, 64, 64
1, 24576, Note_on_c, 3, 71, 127
1, 24576, Note_on_c, 3, 66, 1
1, 24576, Note_on_c, 9, 36, 127
1, 24576, Note_on_c, 9, 42, 90
1, 24576, Note_on_c, 9, 49, 127
1, 24600, Note_on_c, 3, 66, 0
1, 24600, Note_on_c, 2, 73, 0
1, 24608, Note_on_c, 2, 71, 0
1, 24616, Note_on_c, 2, 64, 0
1, 24616, Note_on_c, 1, 30, 0
1, 24624, Note_on_c, 9, 36, 0
1, 24624, Note_on_c, 9, 42, 0
1, 24624, Note_on_c, 1, 30, 127
1, 24624, Note_on_c, 2, 71, 64
1, 24624, Note_on_c, 2, 69, 64
1, 24624, Note_on_c, 2, 64, 64
1, 24624, Note_on_c, 3, 66, 1
1, 24640, Note_on_c, 3, 71, 0
1, 24648, Note_on_c, 2, 71, 0
1, 24656, Note_on_c, 2, 69, 0
1, 24656, Note_on_c, 3, 66, 0
1, 24664, Note_on_c, 1, 30, 0
1, 24664, Note_on_c, 2, 64, 0
1, 24672, Note_on_c, 1, 30, 127
1, 24672, Note_on_c, 2, 71, 64
1, 24672, Note_on_c, 2, 69, 64
1, 24672, Note_on_c, 2, 64, 64
1, 24672, Note_on_c, 3, 66, 1
1, 24672, Note_on_c, 9, 42, 90
1, 24696, Note_on_c, 2, 69, 0
1, 24696, Note_on_c, 2, 71, 0
1, 24712, Note_on_c, 1, 30, 0
1, 24712, Note_on_c, 3, 66, 0
1, 24720, Note_on_c, 9, 42, 0
1, 24720, Note_on_c, 2, 64, 0
1, 24760, Note_on_c, 9, 49, 0
1, 24768, Note_on_c, 1, 30, 127
1, 24768, Note_on_c, 2, 71, 64
1, 24768, Note_on_c, 2, 69, 64
1, 24768, Note_on_c, 2, 64, 64
1, 24768, Note_on_c, 3, 71, 127
1, 24768, Note_on_c, 3, 66, 1
1, 24768, Note_on_c, 9, 36, 127
1, 24768, Note_on_c, 9, 38, 127
1, 24768, Note_on_c, 9, 42, 90
1, 24768, Note_on_c, 9, 37, 127
1, 24792, Note_on_c, 2, 69, 0
1, 24792, Note_on_c, 2, 71, 0
1, 24808, Note_on_c, 1, 30, 0
1, 24816, Note_on_c, 2, 64, 0
1, 24816, Note_on_c, 9, 36, 0
1, 24816, Note_on_c, 3, 66, 0
1, 24816, Note_on_c, 9, 37, 0
1, 24816, Note_on_c, 9, 42, 0
1, 24816, Note_on_c, 3, 71, 0
1, 24816, Note_on_c, 9, 38, 0
1, 24864, Note_on_c, 1, 33, 127
1, 24864, Note_on_c, 2, 71, 64
1, 24864, Note_on_c, 2, 69, 64
1, 24864, Note_on_c, 2, 64, 64
1, 24864, Note_on_c, 3, 73, 127
1, 24864, Note_on_c, 3, 66, 1
1, 24864, Note_on_c, 9, 36, 127
1, 24864, Note_on_c, 9, 42, 90
1, 24888, Note_on_c, 2, 71, 0
1, 24896, Note_on_c, 3, 66, 0
1, 24896, Note_on_c, 2, 69, 0
1, 24904, Note_on_c, 3, 73, 0
1, 24904, Note_on_c, 2, 64, 0
1, 24904, Note_on_c, 1, 33, 0
1, 24912, Note_on_c, 9, 36, 0
1, 24912, Note_on_c, 9, 42, 0
1, 24960, Note_on_c, 1, 35, 127
1, 24960, Note_on_c, 2, 71, 64
1, 24960, Note_on_c, 2, 68, 64
1, 24960, Note_on_c, 2, 64, 64
1, 24960, Note_on_c, 3, 69, 127
1, 24960, Note_on_c, 3, 66, 1
1, 24960, Note_on_c, 9, 36, 127
1, 24960, Note_on_c, 9, 42, 90
1, 24984, Note_on_c, 2, 71, 0
1, 24992, Note_on_c, 3, 66, 0
1, 24992, Note_on_c, 2, 68, 0
1, 25000, Note_on_c, 2, 64, 0
1, 25000, Note_on_c, 1, 35, 0
1, 25008, Note_on_c, 9, 42, 0
1, 25008, Note_on_c, 9, 36, 0
1, 25056, Note_on_c, 2, 71, 64
1, 25056, Note_on_c, 2, 68, 64
1, 25056, Note_on_c, 2, 64, 64
1, 25056, Note_on_c, 9, 42, 90
1, 25072, Note_on_c, 3, 69, 0
1, 25080, Note_on_c, 2, 71, 0
1, 25088, Note_on_c, 2, 68, 0
1, 25104, Note_on_c, 2, 64, 0
1, 25104, Note_on_c, 9, 42, 0
1, 25104, Note_on_c, 1, 37, 127
1, 25104, Note_on_c, 3, 66, 1
1, 25136, Note_on_c, 3, 66, 0
1, 25144, Note_on_c, 1, 37, 0
1, 25152, Note_on_c, 2, 71, 64
1, 25152, Note_on_c, 2, 68, 64
1, 25152, Note_on_c, 2, 64, 64
1, 25152, Note_on_c, 3, 66, 127
1, 25152, Note_on_c, 9, 36, 127
1, 25152, Note_on_c, 9, 38, 127
1, 25152, Note_on_c, 9, 42, 90
1, 25152, Note_on_c, 9, 37, 127
1, 25176, Note_on_c, 2, 71, 0
1, 25200, Note_on_c, 9, 37, 0
1, 25200, Note_on_c, 9, 38, 0
1, 25200, Note_on_c, 2, 64, 0
1, 25200, Note_on_c, 2, 68, 0
1, 25200, Note_on_c, 9, 36, 0
1, 25200, Note_on_c, 9, 42, 0
1, 25200, Note_on_c, 1, 33, 127
1, 25200, Note_on_c, 3, 66, 1
1, 25216, Note_on_c, 3, 66, 0
1, 25216, Note_on_c, 3, 66, 0
1, 25240, Note_on_c, 1, 33, 0
1, 25248, Note_on_c, 1, 30, 127
1, 25248, Note_on_c, 2, 71, 64
1, 25248, Note_on_c, 2, 68, 64
1, 25248, Note_on_c, 2, 64, 64
1, 25248, Note_on_c, 3, 69, 127
1, 25248, Note_on_c, 3, 66, 1
1, 25248, Note_on_c, 9, 42, 90
1, 25272, Note_on_c, 3, 66, 0
1, 25280, Note_on_c, 2, 71, 0
1, 25288, Note_on_c, 1, 30, 0
1, 25288, Note_on_c, 2, 68, 0
1, 25296, Note_on_c, 2, 64, 0
1, 25296, Note_on_c, 9, 42, 0
1, 25312, Note_on_c, 3, 69, 0
1, 25344, Note_on_c, 2, 71, 64
1, 25344, Note_on_c, 2, 66, 64
1, 25344, Note_on_c, 2, 63, 64
1, 25344, Note_on_c, 3, 71, 127
1, 25344, Note_on_c, 9, 36, 127
1, 25344, Note_on_c, 9, 42, 90
1, 25376, Note_on_c, 2, 66, 0
1, 25376, Note_on_c, 2, 71, 0
1, 25392, Note_on_c, 9, 36, 0
1, 25392, Note_on_c, 2, 63, 0
1, 25392, Note_on_c, 9, 42, 0
1, 25432, Note_on_c, 3, 71, 0
1, 25440, Note_on_c, 2, 71, 64
1, 25440, Note_on_c, 2, 66, 64
1, 25440, Note_on_c, 2, 63, 64
1, 25440, Note_on_c, 9, 42, 90
1, 25472, Note_on_c, 2, 66, 0
1, 25480, Note_on_c, 2, 71, 0
1, 25488, Note_on_c, 2, 63, 0
1, 25488, Note_on_c, 9, 42, 0
1, 25488, Note_on_c, 3, 73, 127
1, 25488, Note_on_c, 3, 66, 1
1, 25496, Note_on_c, 3, 66, 0
1, 25536, Note_on_c, 2, 71, 64
1, 25536, Note_on_c, 2, 66, 64
1, 25536, Note_on_c, 2, 63, 64
1, 25536, Note_on_c, 9, 36, 127
1, 25536, Note_on_c, 9, 38, 127
1, 25536, Note_on_c, 9, 42, 90
1, 25536, Note_on_c, 9, 37, 127
1, 25568, Note_on_c, 2, 66, 0
1, 25576, Note_on_c, 2, 71, 0
1, 25584, Note_on_c, 9, 42, 0
1, 25584, Note_on_c, 9, 38, 0
1, 25584, Note_on_c, 2, 63, 0
1, 25584, Note_on_c, 9, 36, 0
1, 25584, Note_on_c, 3, 73, 0
1, 25584, Note_on_c, 9, 37, 0
1, 25584, Note_on_c, 1, 33, 127
1, 25584, Note_on_c, 3, 66, 1
1, 25624, Note_on_c, 1, 33, 0
1, 25632, Note_on_c, 3, 66, 0
1, 25632, Note_on_c, 1, 30, 127
1, 25632, Note_on_c, 2, 71, 64
1, 25632, Note_on_c, 2, 66, 64
1, 25632, Note_on_c, 2, 63, 64
1, 25632, Note_on_c, 3, 69, 127
1, 25632, Note_on_c, 9, 36, 127
1, 25632, Note_on_c, 9, 42, 90
1, 25672, Note_on_c, 2, 63, 0
1, 25672, Note_on_c, 2, 66, 0
1, 25672, Note_on_c, 1, 30, 0
1, 25680, Note_on_c, 9, 42, 0
1, 25680, Note_on_c, 2, 71, 0
1, 25680, Note_on_c, 9, 36, 0
1, 25728, Note_on_c, 3, 69, 0
1, 25728, Note_on_c, 1, 28, 127
1, 25728, Note_on_c, 2, 71, 64
1, 25728, Note_on_c, 2, 66, 64
1, 25728, Note_on_c, 2, 63, 64
1, 25728, Note_on_c, 3, 73, 1
1, 25728, Note_on_c, 9, 36, 127
1, 25728, Note_on_c, 9, 42, 90
1, 25768, Note_on_c, 2, 66, 0
1, 25768, Note_on_c, 1, 28, 0
1, 25768, Note_on_c, 2, 71, 0
1, 25776, Note_on_c, 9, 42, 0
1, 25776, Note_on_c, 2, 63, 0
1, 25776, Note_on_c, 9, 36, 0
1, 25824, Note_on_c, 2, 71, 64
1, 25824, Note_on_c, 2, 66, 64
1, 25824, Note_on_c, 2, 63, 64
1, 25824, Note_on_c, 9, 42, 90
1, 25864, Note_on_c, 2, 66, 0
1, 25864, Note_on_c, 2, 71, 0
1, 25872, Note_on_c, 9, 42, 0
1, 25872, Note_on_c, 2, 63, 0
1, 25920, Note_on_c, 3, 73, 0
1, 25920, Note_on_c, 1, 28, 127
1, 25920, Note_on_c, 2, 71, 64
1, 25920, Note_on_c, 2, 66, 64
1, 25920, Note_on_c, 2, 63, 64
1, 25920, Note_on_c, 3, 66, 127
1, 25920, Note_on_c, 3, 71, 1
1, 25920, Note_on_c, 9, 36, 127
1, 25920, Note_on_c, 9, 38, 127
1, 25920, Note_on_c, 9, 42, 90
1, 25920, Note_on_c, 9, 37, 127
1, 25960, Note_on_c, 2, 66, 0
1, 25960, Note_on_c, 1, 28, 0
1, 25960, Note_on_c, 2, 71, 0
1, 25968, Note_on_c, 9, 42, 0
1, 25968, Note_on_c, 9, 36, 0
1, 25968, Note_on_c, 2, 63, 0
1, 25968, Note_on_c, 9, 37, 0
1, 25968, Note_on_c, 9, 38, 0
1, 25976, Note_on_c, 3, 66, 0
1, 26008, Note_on_c, 3, 71, 0
1, 26016, Note_on_c, 1, 28, 127
1, 26016, Note_on_c, 2, 71, 64
1, 26016, Note_on_c, 2, 66, 64
1, 26016, Note_on_c, 2, 63, 64
1, 26016, Note_on_c, 3, 69, 127
1, 26016, Note_on_c, 3, 69, 1
1, 26016, Note_on_c, 9, 44, 90
1, 26056, Note_on_c, 2, 71, 0
1, 26056, Note_on_c, 1, 28, 0
1, 26064, Note_on_c, 2, 66, 0
1, 26064, Note_on_c, 2, 63, 0
1, 26064, Note_on_c, 9, 44, 0
1, 26072, Note_on_c, 3, 69, 0
1, 26112, Note_on_c, 3, 69, 0
1, 26112, Note_on_c, 1, 30, 127
1, 26112, Note_on_c, 2, 73, 64
1, 26112, Note_on_c, 2, 71, 64
1, 26112, Note_on_c, 2, 64, 64
1, 26112, Note_on_c, 3, 71, 127
1, 26112, Note_on_c, 3, 66, 1
1, 26112, Note_on_c, 9, 36, 127
1, 26112, Note_on_c, 9, 42, 90
1, 26136, Note_on_c, 2, 73, 0
1, 26144, Note_on_c, 2, 71, 0
1, 26152, Note_on_c, 2, 64, 0
1, 26152, Note_on_c, 1, 30, 0
1, 26152, Note_on_c, 3, 66, 0
1, 26160, Note_on_c, 9, 36, 0
1, 26160, Note_on_c, 9, 42, 0
1, 26160, Note_on_c, 1, 30, 127
1, 26160, Note_on_c, 2, 71, 64
1, 26160, Note_on_c, 2, 69, 64
1, 26160, Note_on_c, 2, 64, 64
1, 26184, Note_on_c, 2, 71, 0
1, 26192, Note_on_c, 2, 69, 0
1, 26200, Note_on_c, 3, 71, 0
1, 26200, Note_on_c, 1, 30, 0
1, 26200, Note_on_c, 2, 64, 0
1, 26208, Note_on_c, 1, 30, 127
1, 26208, Note_on_c, 2, 71, 64
1, 26208, Note_on_c, 2, 69, 64
1, 26208, Note_on_c, 2, 64, 64
1, 26208, Note_on_c, 9, 42, 90
1, 26232, Note_on_c, 2, 69, 0
1, 26232, Note_on_c, 2, 71, 0
1, 26248, Note_on_c, 1, 30, 0
1, 26256, Note_on_c, 9, 42, 0
1, 26256, Note_on_c, 2, 64, 0
1, 26256, Note_on_c, 3, 66, 1
1, 26304, Note_on_c, 3, 66, 0
1, 26304, Note_on_c, 1, 30, 127
1, 26304, Note_on_c, 2, 71, 64
1, 26304, Note_on_c, 2, 69, 64
1, 26304, Note_on_c, 2, 64, 64
1, 26304, Note_on_c, 3, 71, 127
1, 26304, Note_on_c, 9, 36, 127
1, 26304, Note_on_c, 9, 38, 127
1, 26304, Note_on_c, 9, 42, 90
1, 26304, Note_on_c, 9, 37, 127
1, 26328, Note_on_c, 2, 69, 0
1, 26328, Note_on_c, 2, 71, 0
1, 26344, Note_on_c, 1, 30, 0
1, 26352, Note_on_c, 9, 38, 0
1, 26352, Note_on_c, 9, 36, 0
1, 26352, Note_on_c, 2, 64, 0
1, 26352, Note_on_c, 9, 37, 0
1, 26352, Note_on_c, 9, 42, 0
1, 26360, Note_on_c, 3, 71, 0
1, 26400, Note_on_c, 1, 33, 127
1, 26400, Note_on_c, 2, 71, 64
1, 26400, Note_on_c, 2, 69, 64
1, 26400, Note_on_c, 2, 64, 64
1, 26400, Note_on_c, 3, 73, 127
1, 26400, Note_on_c, 3, 66, 1
1, 26400, Note_on_c, 9, 36, 127
1, 26400, Note_on_c, 9, 42, 90
1, 26416, Note_on_c, 3, 66, 0
1, 26424, Note_on_c, 2, 71, 0
1, 26432, Note_on_c, 2, 69, 0
1, 26440, Note_on_c, 2, 64, 0
1, 26440, Note_on_c, 1, 33, 0
1, 26448, Note_on_c, 9, 42, 0
1, 26448, Note_on_c, 9, 36, 0
1, 26456, Note_on_c, 3, 73, 0
1, 26496, Note_on_c, 1, 35, 127
1, 26496, Note_on_c, 2, 71, 64
1, 26496, Note_on_c, 2, 68, 64
1, 26496, Note_on_c, 2, 64, 64
1, 26496, Note_on_c, 3, 69, 127
1, 26496, Note_on_c, 3, 66, 1
1, 26496, Note_on_c, 9, 36, 127
1, 26496, Note_on_c, 9, 42, 90
1, 26520, Note_on_c, 2, 71, 0
1, 26528, Note_on_c, 2, 68, 0
1, 26536, Note_on_c, 2, 64, 0
1, 26536, Note_on_c, 1, 35, 0
1, 26536, Note_on_c, 3, 66, 0
1, 26544, Note_on_c, 9, 36, 0
1, 26544, Note_on_c, 9, 42, 0
1, 26544, Note_on_c, 3, 69, 1
1, 26576, Note_on_c, 3, 69, 0
1, 26592, Note_on_c, 2, 71, 64
1, 26592, Note_on_c, 2, 68, 64
1, 26592, Note_on_c, 2, 64, 64
1, 26592, Note_on_c, 3, 71, 1
1, 26592, Note_on_c, 9, 42, 90
1, 26600, Note_on_c, 3, 69, 0
1, 26616, Note_on_c, 3, 71, 0
1, 26616, Note_on_c, 2, 71, 0
1, 26624, Note_on_c, 2, 68, 0
1, 26640, Note_on_c, 2, 64, 0
1, 26640, Note_on_c, 9, 42, 0
1, 26640, Note_on_c, 1, 37, 127
1, 26640, Note_on_c, 3, 73, 1
1, 26680, Note_on_c, 1, 37, 0
1, 26688, Note_on_c, 2, 71, 64
1, 26688, Note_on_c, 2, 68, 64
1, 26688, Note_on_c, 2, 64, 64
1, 26688, Note_on_c, 3, 69, 127
1, 26688, Note_on_c, 9, 36, 127
1, 26688, Note_on_c, 9, 38, 127
1, 26688, Note_on_c, 9, 42, 90
1, 26688, Note_on_c, 9, 37, 127
1, 26704, Note_on_c, 3, 73, 0
1, 26712, Note_on_c, 2, 71, 0
1, 26736, Note_on_c, 2, 64, 0
1, 26736, Note_on_c, 9, 36, 0
1, 26736, Note_on_c, 2, 68, 0
1, 26736, Note_on_c, 9, 42, 0
1, 26736, Note_on_c, 9, 37, 0
1, 26736, Note_on_c, 9, 38, 0
1, 26744, Note_on_c, 3, 69, 0
1, 26784, Note_on_c, 1, 40, 127
1, 26784, Note_on_c, 2, 71, 64
1, 26784, Note_on_c, 2, 68, 64
1, 26784, Note_on_c, 2, 64, 64
1, 26784, Note_on_c, 3, 66, 127
1, 26784, Note_on_c, 9, 42, 90
1, 26816, Note_on_c, 2, 71, 0
1, 26824, Note_on_c, 1, 40, 0
1, 26824, Note_on_c, 2, 68, 0
1, 26832, Note_on_c, 2, 64, 0
1, 26832, Note_on_c, 9, 42, 0
1, 26848, Note_on_c, 3, 66, 0
1, 26880, Note_on_c, 1, 42, 127
1, 26880, Note_on_c, 2, 71, 64
1, 26880, Note_on_c, 2, 66, 64
1, 26880, Note_on_c, 2, 63, 64
1, 26880, Note_on_c, 3, 76, 127
1, 26880, Note_on_c, 3, 66, 1
1, 26880, Note_on_c, 9, 36, 127
1, 26880, Note_on_c, 9, 42, 90
1, 26896, Note_on_c, 3, 66, 0
1, 26912, Note_on_c, 2, 66, 0
1, 26912, Note_on_c, 2, 71, 0
1, 26920, Note_on_c, 1, 42, 0
1, 26928, Note_on_c, 2, 63, 0
1, 26928, Note_on_c, 9, 42, 0
1, 26928, Note_on_c, 9, 36, 0
1, 26928, Note_on_c, 3, 69, 1
1, 26936, Note_on_c, 3, 69, 0
1, 26976, Note_on_c, 2, 71, 64
1, 26976, Note_on_c, 2, 66, 64
1, 26976, Note_on_c, 2, 63, 64
1, 26976, Note_on_c, 3, 71, 1
1, 26976, Note_on_c, 9, 42, 90
1, 26992, Note_on_c, 3, 71, 0
1, 27008, Note_on_c, 2, 66, 0
1, 27016, Note_on_c, 2, 71, 0
1, 27024, Note_on_c, 3, 76, 0
1, 27024, Note_on_c, 2, 63, 0
1, 27024, Note_on_c, 9, 42, 0
1, 27024, Note_on_c, 3, 75, 127
1, 27024, Note_on_c, 3, 73, 1
1, 27072, Note_on_c, 3, 73, 0
1, 27072, Note_on_c, 1, 40, 127
1, 27072, Note_on_c, 2, 71, 64
1, 27072, Note_on_c, 2, 66, 64
1, 27072, Note_on_c, 2, 63, 64
1, 27072, Note_on_c, 9, 36, 127
1, 27072, Note_on_c, 9, 38, 127
1, 27072, Note_on_c, 9, 42, 90
1, 27072, Note_on_c, 9, 37, 127
1, 27104, Note_on_c, 2, 66, 0
1, 27112, Note_on_c, 2, 71, 0
1, 27112, Note_on_c, 1, 40, 0
1, 27120, Note_on_c, 9, 38, 0
1, 27120, Note_on_c, 9, 36, 0
1, 27120, Note_on_c, 2, 63, 0
1, 27120, Note_on_c, 9, 37, 0
1, 27120, Note_on_c, 3, 75, 0
1, 27120, Note_on_c, 9, 42, 0
1, 27120, Note_on_c, 3, 73, 1
1, 27144, Note_on_c, 3, 73, 0
1, 27168, Note_on_c, 1, 42, 127
1, 27168, Note_on_c, 2, 71, 64
1, 27168, Note_on_c, 2, 66, 64
1, 27168, Note_on_c, 2, 63, 64
1, 27168, Note_on_c, 3, 71, 127
1, 27168, Note_on_c, 9, 36, 127
1, 27168, Note_on_c, 9, 42, 90
1, 27208, Note_on_c, 2, 63, 0
1, 27208, Note_on_c, 2, 66, 0
1, 27208, Note_on_c, 1, 42, 0
1, 27216, Note_on_c, 9, 42, 0
1, 27216, Note_on_c, 2, 71, 0
1, 27216, Note_on_c, 9, 36, 0
1, 27264, Note_on_c, 1, 40, 127
1, 27264, Note_on_c, 2, 71, 64
1, 27264, Note_on_c, 2, 66, 64
1, 27264, Note_on_c, 2, 63, 64
1, 27264, Note_on_c, 9, 36, 127
1, 27264, Note_on_c, 9, 42, 90
1, 27304, Note_on_c, 2, 66, 0
1, 27304, Note_on_c, 2, 71, 0
1, 27304, Note_on_c, 1, 40, 0
1, 27312, Note_on_c, 2, 63, 0
1, 27312, Note_on_c, 9, 42, 0
1, 27312, Note_on_c, 9, 36, 0
1, 27344, Note_on_c, 3, 71, 0
1, 27360, Note_on_c, 2, 71, 64
1, 27360, Note_on_c, 2, 66, 64
1, 27360, Note_on_c, 2, 63, 64
1, 27360, Note_on_c, 3, 69, 1
1, 27360, Note_on_c, 9, 42, 90
1, 27400, Note_on_c, 3, 69, 0
1, 27400, Note_on_c, 2, 66, 0
1, 27400, Note_on_c, 2, 71, 0
1, 27408, Note_on_c, 2, 63, 0
1, 27408, Note_on_c, 9, 42, 0
1, 27408, Note_on_c, 3, 71, 1
1, 27440, Note_on_c, 3, 71, 0
1, 27456, Note_on_c, 1, 40, 127
1, 27456, Note_on_c, 2, 71, 64
1, 27456, Note_on_c, 2, 66, 64
1, 27456, Note_on_c, 2, 63, 64
1, 27456, Note_on_c, 3, 66, 127
1, 27456, Note_on_c, 9, 36, 127
1, 27456, Note_on_c, 9, 38, 127
1, 27456, Note_on_c, 9, 42, 90
1, 27456, Note_on_c, 9, 37, 127
1, 27496, Note_on_c, 2, 66, 0
1, 27496, Note_on_c, 1, 40, 0
1, 27496, Note_on_c, 2, 71, 0
1, 27504, Note_on_c, 9, 38, 0
1, 27504, Note_on_c, 9, 36, 0
1, 27504, Note_on_c, 3, 66, 0
1, 27504, Note_on_c, 9, 37, 0
1, 27504, Note_on_c, 2, 63, 0
1, 27504, Note_on_c, 9, 42, 0
1, 27504, Note_on_c, 1, 41, 127
1, 27504, Note_on_c, 3, 73, 1
1, 27504, Note_on_c, 3, 73, 0
1, 27544, Note_on_c, 1, 41, 0
1, 27552, Note_on_c, 1, 42, 127
1, 27552, Note_on_c, 2, 71, 64
1, 27552, Note_on_c, 2, 66, 64
1, 27552, Note_on_c, 2, 63, 64
1, 27552, Note_on_c, 3, 69, 127
1, 27552, Note_on_c, 9, 38, 127
1, 27552, Note_on_c, 9, 44, 90
1, 27592, Note_on_c, 2, 71, 0
1, 27592, Note_on_c, 1, 42, 0
1, 27600, Note_on_c, 2, 66, 0
1, 27600, Note_on_c, 3, 69, 0
1, 27600, Note_on_c, 2, 63, 0
1, 27600, Note_on_c, 9, 44, 0
1, 27600, Note_on_c, 9, 38, 0
1, 27600, Note_on_c, 1, 37, 127
1, 27600, Note_on_c, 3, 73, 1
1, 27600, Note_on_c, 9, 36, 127
1, 27600, Note_on_c, 9, 38, 127
1, 27640, Note_on_c, 1, 37, 0
1, 27648, Note_on_c, 9, 38, 0
1, 27648, Note_on_c, 9, 36, 0
1, 27648, Note_on_c, 1, 30, 127
1, 27648, Note_on_c, 2, 73, 64
1, 27648, Note_on_c, 2, 71, 64
1, 27648, Note_on_c, 2, 64, 64
1, 27648, Note_on_c, 3, 71, 127
1, 27648, Note_on_c, 9, 36, 127
1, 27648, Note_on_c, 9, 42, 90
1, 27672, Note_on_c, 2, 73, 0
1, 27680, Note_on_c, 2, 71, 0
1, 27688, Note_on_c, 2, 64, 0
1, 27688, Note_on_c, 1, 30, 0
1, 27696, Note_on_c, 9, 42, 0
1, 27696, Note_on_c, 1, 30, 127
1, 27696, Note_on_c, 2, 71, 64
1, 27696, Note_on_c, 2, 69, 64
1, 27696, Note_on_c, 2, 64, 64
1, 27696, Note_on_c, 3, 73, 1
1, 27704, Note_on_c, 3, 73, 0
1, 27720, Note_on_c, 2, 71, 0
1, 27728, Note_on_c, 2, 69, 0
1, 27736, Note_on_c, 1, 30, 0
1, 27736, Note_on_c, 2, 64, 0
1, 27744, Note_on_c, 9, 36, 0
1, 27744, Note_on_c, 1, 30, 127
1, 27744, Note_on_c, 2, 71, 64
1, 27744, Note_on_c, 2, 69, 64
1, 27744, Note_on_c, 2, 64, 64
1, 27744, Note_on_c, 9, 42, 90
1, 27768, Note_on_c, 2, 69, 0
1, 27768, Note_on_c, 2, 71, 0
1, 27768, Note_on_c, 3, 71, 0
1, 27784, Note_on_c, 1, 30, 0
1, 27792, Note_on_c, 2, 64, 0
1, 27792, Note_on_c, 9, 42, 0
1, 27840, Note_on_c, 1, 30, 127
1, 27840, Note_on_c, 2, 71, 64
1, 27840, Note_on_c, 2, 69, 64
1, 27840, Note_on_c, 2, 64, 64
1, 27840, Note_on_c, 3, 71, 127
1, 27840, Note_on_c, 9, 36, 127
1, 27840, Note_on_c, 9, 38, 127
1, 27840, Note_on_c, 9, 42, 90
1, 27840, Note_on_c, 9, 37, 127
1, 27864, Note_on_c, 2, 69, 0
1, 27864, Note_on_c, 2, 71, 0
1, 27880, Note_on_c, 1, 30, 0
1, 27888, Note_on_c, 2, 64, 0
1, 27888, Note_on_c, 9, 36, 0
1, 27888, Note_on_c, 9, 42, 0
1, 27888, Note_on_c, 9, 37, 0
1, 27888, Note_on_c, 9, 38, 0
1, 27896, Note_on_c, 3, 71, 0
1, 27936, Note_on_c, 1, 33, 127
1, 27936, Note_on_c, 2, 71, 64
1, 27936, Note_on_c, 2, 69, 64
1, 27936, Note_on_c, 2, 64, 64
1, 27936, Note_on_c, 3, 73, 127
1, 27936, Note_on_c, 9, 36, 127
1, 27936, Note_on_c, 9, 42, 90
1, 27960, Note_on_c, 2, 71, 0
1, 27968, Note_on_c, 2, 69, 0
1, 27976, Note_on_c, 2, 64, 0
1, 27976, Note_on_c, 1, 33, 0
1, 27984, Note_on_c, 9, 36, 0
1, 27984, Note_on_c, 9, 42, 0
1, 28000, Note_on_c, 3, 73, 0
1, 28032, Note_on_c, 1, 35, 127
1, 28032, Note_on_c, 2, 71, 64
1, 28032, Note_on_c, 2, 68, 64
1, 28032, Note_on_c, 2, 64, 64
1, 28032, Note_on_c, 3, 69, 127
1, 28032, Note_on_c, 3, 73, 1
1, 28032, Note_on_c, 9, 36, 127
1, 28032, Note_on_c, 9, 42, 90
1, 28056, Note_on_c, 2, 71, 0
1, 28064, Note_on_c, 2, 68, 0
1, 28064, Note_on_c, 3, 73, 0
1, 28072, Note_on_c, 1, 35, 0
1, 28072, Note_on_c, 2, 64, 0
1, 28080, Note_on_c, 9, 42, 0
1, 28080, Note_on_c, 9, 36, 0
1, 28080, Note_on_c, 3, 71, 1
1, 28112, Note_on_c, 3, 71, 0
1, 28128, Note_on_c, 2, 71, 64
1, 28128, Note_on_c, 2, 68, 64
1, 28128, Note_on_c, 2, 64, 64
1, 28128, Note_on_c, 3, 69, 1
1, 28128, Note_on_c, 9, 42, 90
1, 28144, Note_on_c, 3, 69, 0
1, 28152, Note_on_c, 3, 69, 0
1, 28152, Note_on_c, 2, 71, 0
1, 28160, Note_on_c, 2, 68, 0
1, 28176, Note_on_c, 2, 64, 0
1, 28176, Note_on_c, 9, 42, 0
1, 28176, Note_on_c, 1, 37, 127
1, 28176, Note_on_c, 3, 66, 1
1, 28216, Note_on_c, 1, 37, 0
1, 28224, Note_on_c, 3, 66, 0
1, 28224, Note_on_c, 2, 71, 64
1, 28224, Note_on_c, 2, 68, 64
1, 28224, Note_on_c, 2, 64, 64
1, 28224, Note_on_c, 3, 66, 127
1, 28224, Note_on_c, 9, 36, 127
1, 28224, Note_on_c, 9, 38, 127
1, 28224, Note_on_c, 9, 42, 90
1, 28224, Note_on_c, 9, 37, 127
1, 28248, Note_on_c, 2, 71, 0
1, 28272, Note_on_c, 2, 64, 0
1, 28272, Note_on_c, 9, 37, 0
1, 28272, Note_on_c, 9, 36, 0
1, 28272, Note_on_c, 2, 68, 0
1, 28272, Note_on_c, 9, 42, 0
1, 28272, Note_on_c, 9, 38, 0
1, 28272, Note_on_c, 1, 33, 127
1, 28288, Note_on_c, 3, 66, 0
1, 28312, Note_on_c, 1, 33, 0
1, 28320, Note_on_c, 2, 71, 64
1, 28320, Note_on_c, 2, 68, 64
1, 28320, Note_on_c, 2, 64, 64
1, 28320, Note_on_c, 3, 69, 127
1, 28320, Note_on_c, 9, 42, 90
1, 28352, Note_on_c, 2, 71, 0
1, 28360, Note_on_c, 2, 68, 0
1, 28368, Note_on_c, 2, 64, 0
1, 28368, Note_on_c, 9, 42, 0
1, 28376, Note_on_c, 3, 69, 0
1, 28416, Note_on_c, 2, 71, 64
1, 28416, Note_on_c, 2, 66, 64
1, 28416, Note_on_c, 2, 63, 64
1, 28416, Note_on_c, 3, 71, 127
1, 28416, Note_on_c, 3, 73, 1
1, 28416, Note_on_c, 9, 36, 127
1, 28416, Note_on_c, 9, 42, 90
1, 28440, Note_on_c, 3, 73, 0
1, 28448, Note_on_c, 2, 71, 0
1, 28448, Note_on_c, 2, 66, 0
1, 28464, Note_on_c, 2, 63, 0
1, 28464, Note_on_c, 9, 42, 0
1, 28464, Note_on_c, 9, 36, 0
1, 28464, Note_on_c, 3, 71, 1
1, 28488, Note_on_c, 3, 71, 0
1, 28512, Note_on_c, 2, 71, 64
1, 28512, Note_on_c, 2, 66, 64
1, 28512, Note_on_c, 2, 63, 64
1, 28512, Note_on_c, 3, 69, 1
1, 28512, Note_on_c, 9, 42, 90
1, 28520, Note_on_c, 3, 71, 0
1, 28536, Note_on_c, 3, 69, 0
1, 28544, Note_on_c, 2, 66, 0
1, 28552, Note_on_c, 2, 71, 0
1, 28560, Note_on_c, 9, 42, 0
1, 28560, Note_on_c, 2, 63, 0
1, 28560, Note_on_c, 3, 73, 127
1, 28560, Note_on_c, 3, 66, 1
1, 28592, Note_on_c, 3, 66, 0
1, 28608, Note_on_c, 2, 71, 64
1, 28608, Note_on_c, 2, 66, 64
1, 28608, Note_on_c, 2, 63, 64
1, 28608, Note_on_c, 9, 36, 127
1, 28608, Note_on_c, 9, 38, 127
1, 28608, Note_on_c, 9, 42, 90
1, 28608, Note_on_c, 9, 37, 127
1, 28640, Note_on_c, 2, 66, 0
1, 28648, Note_on_c, 2, 71, 0
1, 28656, Note_on_c, 9, 42, 0
1, 28656, Note_on_c, 9, 36, 0
1, 28656, Note_on_c, 9, 37, 0
1, 28656, Note_on_c, 2, 63, 0
1, 28656, Note_on_c, 9, 38, 0
1, 28664, Note_on_c, 3, 73, 0
1, 28704, Note_on_c, 2, 71, 64
1, 28704, Note_on_c, 2, 66, 64
1, 28704, Note_on_c, 2, 63, 64
1, 28704, Note_on_c, 3, 69, 127
1, 28704, Note_on_c, 9, 36, 127
1, 28704, Note_on_c, 9, 42, 90
1, 28744, Note_on_c, 2, 63, 0
1, 28744, Note_on_c, 2, 66, 0
1, 28752, Note_on_c, 2, 71, 0
1, 28752, Note_on_c, 9, 36, 0
1, 28752, Note_on_c, 9, 42, 0
1, 28752, Note_on_c, 1, 30, 127
1, 28792, Note_on_c, 1, 30, 0
1, 28800, Note_on_c, 1, 28, 127
1, 28800, Note_on_c, 2, 71, 64
1, 28800, Note_on_c, 2, 66, 64
1, 28800, Note_on_c, 2, 63, 64
1, 28800, Note_on_c, 9, 36, 127
1, 28800, Note_on_c, 9, 42, 90
1, 28840, Note_on_c, 2, 66, 0
1, 28840, Note_on_c, 2, 71, 0
1, 28840, Note_on_c, 1, 28, 0
1, 28848, Note_on_c, 2, 63, 0
1, 28848, Note_on_c, 9, 42, 0
1, 28848, Note_on_c, 9, 36, 0
1, 28864, Note_on_c, 3, 69, 0
1, 28896, Note_on_c, 2, 71, 64
1, 28896, Note_on_c, 2, 66, 64
1, 28896, Note_on_c, 2, 63, 64
1, 28896, Note_on_c, 9, 42, 90
1, 28936, Note_on_c, 2, 66, 0
1, 28936, Note_on_c, 2, 71, 0
1, 28944, Note_on_c, 9, 42, 0
1, 28944, Note_on_c, 2, 63, 0
1, 28992, Note_on_c, 1, 28, 127
1, 28992, Note_on_c, 2, 71, 64
1, 28992, Note_on_c, 2, 66, 64
1, 28992, Note_on_c, 2, 63, 64
1, 28992, Note_on_c, 3, 66, 127
1, 28992, Note_on_c, 3, 66, 1
1, 28992, Note_on_c, 9, 36, 127
1, 28992, Note_on_c, 9, 38, 127
1, 28992, Note_on_c, 9, 42, 90
1, 28992, Note_on_c, 9, 37, 127
1, 29024, Note_on_c, 3, 66, 0
1, 29032, Note_on_c, 2, 71, 0
1, 29032, Note_on_c, 2, 66, 0
1, 29032, Note_on_c, 1, 28, 0
1, 29040, Note_on_c, 9, 42, 0
1, 29040, Note_on_c, 2, 63, 0
1, 29040, Note_on_c, 9, 38, 0
1, 29040, Note_on_c, 9, 37, 0
1, 29040, Note_on_c, 9, 36, 0
1, 29040, Note_on_c, 3, 76, 1
1, 29048, Note_on_c, 3, 66, 0
1, 29064, Note_on_c, 3, 76, 0
1, 29088, Note_on_c, 1, 28, 127
1, 29088, Note_on_c, 2, 71, 64
1, 29088, Note_on_c, 2, 66, 64
1, 29088, Note_on_c, 2, 63, 64
1, 29088, Note_on_c, 3, 69, 127
1, 29088, Note_on_c, 3, 78, 1
1, 29088, Note_on_c, 9, 44, 90
1, 29112, Note_on_c, 3, 78, 0
1, 29128, Note_on_c, 2, 71, 0
1, 29128, Note_on_c, 1, 28, 0
1, 29136, Note_on_c, 9, 44, 0
1, 29136, Note_on_c, 2, 66, 0
1, 29136, Note_on_c, 2, 63, 0
1, 29136, Note_on_c, 3, 78, 1
1, 29152, Note_on_c, 3, 69, 0
1, 29160, Note_on_c, 3, 78, 0
1, 29184, Note_on_c, 1, 30, 127
1, 29184, Note_on_c, 2, 73, 64
1, 29184, Note_on_c, 2, 71, 64
1, 29184, Note_on_c, 2, 64, 64
1, 29184, Note_on_c, 3, 71, 127
1, 29184, Note_on_c, 9, 36, 127
1, 29184, Note_on_c, 9, 42, 90
1, 29208, Note_on_c, 2, 73, 0
1, 29216, Note_on_c, 2, 71, 0
1, 29224, Note_on_c, 2, 64, 0
1, 29224, Note_on_c, 1, 30, 0
1, 29232, Note_on_c, 9, 36, 0
1, 29232, Note_on_c, 9, 42, 0
1, 29232, Note_on_c, 1, 30, 127
1, 29232, Note_on_c, 2, 71, 64
1, 29232, Note_on_c, 2, 69, 64
1, 29232, Note_on_c, 2, 64, 64
1, 29256, Note_on_c, 2, 71, 0
1, 29264, Note_on_c, 2, 69, 0
1, 29272, Note_on_c, 1, 30, 0
1, 29272, Note_on_c, 2, 64, 0
1, 29280, Note_on_c, 1, 30, 127
1, 29280, Note_on_c, 2, 71, 64
1, 29280, Note_on_c, 2, 69, 64
1, 29280, Note_on_c, 2, 64, 64
1, 29280, Note_on_c, 9, 42, 90
1, 29304, Note_on_c, 2, 69, 0
1, 29304, Note_on_c, 2, 71, 0
1, 29304, Note_on_c, 3, 71, 0
1, 29320, Note_on_c, 1, 30, 0
1, 29328, Note_on_c, 2, 64, 0
1, 29328, Note_on_c, 9, 42, 0
1, 29376, Note_on_c, 1, 30, 127
1, 29376, Note_on_c, 2, 71, 64
1, 29376, Note_on_c, 2, 69, 64
1, 29376, Note_on_c, 2, 64, 64
1, 29376, Note_on_c, 3, 71, 127
1, 29376, Note_on_c, 9, 36, 127
1, 29376, Note_on_c, 9, 38, 127
1, 29376, Note_on_c, 9, 42, 90
1, 29376, Note_on_c, 9, 37, 127
1, 29400, Note_on_c, 2, 69, 0
1, 29400, Note_on_c, 2, 71, 0
1, 29416, Note_on_c, 1, 30, 0
1, 29424, Note_on_c, 2, 64, 0
1, 29424, Note_on_c, 9, 36, 0
1, 29424, Note_on_c, 9, 42, 0
1, 29424, Note_on_c, 9, 37, 0
1, 29424, Note_on_c, 9, 38, 0
1, 29440, Note_on_c, 3, 71, 0
1, 29472, Note_on_c, 1, 33, 127
1, 29472, Note_on_c, 2, 71, 64
1, 29472, Note_on_c, 2, 69, 64
1, 29472, Note_on_c, 2, 64, 64
1, 29472, Note_on_c, 3, 73, 127
1, 29472, Note_on_c, 9, 36, 127
1, 29472, Note_on_c, 9, 42, 90
1, 29496, Note_on_c, 2, 71, 0
1, 29504, Note_on_c, 2, 69, 0
1, 29512, Note_on_c, 2, 64, 0
1, 29512, Note_on_c, 1, 33, 0
1, 29520, Note_on_c, 9, 36, 0
1, 29520, Note_on_c, 9, 42, 0
1, 29536, Note_on_c, 3, 73, 0
1, 29568, Note_on_c, 1, 35, 127
1, 29568, Note_on_c, 2, 71, 64
1, 29568, Note_on_c, 2, 68, 64
1, 29568, Note_on_c, 2, 64, 64
1, 29568, Note_on_c, 3, 69, 127
1, 29568, Note_on_c, 9, 36, 127
1, 29568, Note_on_c, 9, 42, 90
1, 29592, Note_on_c, 2, 71, 0
1, 29600, Note_on_c, 2, 68, 0
1, 29608, Note_on_c, 2, 64, 0
1, 29608, Note_on_c, 1, 35, 0
1, 29616, Note_on_c, 9, 36, 0
1, 29616, Note_on_c, 9, 42, 0
1, 29664, Note_on_c, 2, 71, 64
1, 29664, Note_on_c, 2, 68, 64
1, 29664, Note_on_c, 2, 64, 64
1, 29664, Note_on_c, 9, 42, 90
1, 29680, Note_on_c, 3, 69, 0
1, 29688, Note_on_c, 2, 71, 0
1, 29696, Note_on_c, 2, 68, 0
1, 29712, Note_on_c, 2, 64, 0
1, 29712, Note_on_c, 9, 42, 0
1, 29712, Note_on_c, 1, 37, 127
1, 29752, Note_on_c, 1, 37, 0
1, 29760, Note_on_c, 2, 71, 64
1, 29760, Note_on_c, 2, 68, 64
1, 29760, Note_on_c, 2, 64, 64
1, 29760, Note_on_c, 3, 69, 127
1, 29760, Note_on_c, 3, 66, 1
1, 29760, Note_on_c, 9, 36, 127
1, 29760, Note_on_c, 9, 38, 127
1, 29760, Note_on_c, 9, 42, 90
1, 29760, Note_on_c, 9, 37, 127
1, 29784, Note_on_c, 3, 66, 0
1, 29784, Note_on_c, 2, 71, 0
1, 29808, Note_on_c, 2, 64, 0
1, 29808, Note_on_c, 9, 37, 0
1, 29808, Note_on_c, 9, 36, 0
1, 29808, Note_on_c, 9, 38, 0
1, 29808, Note_on_c, 9, 42, 0
1, 29808, Note_on_c, 2, 68, 0
1, 29808, Note_on_c, 3, 73, 1
1, 29824, Note_on_c, 3, 73, 0
1, 29832, Note_on_c, 3, 69, 0
1, 29856, Note_on_c, 1, 40, 127
1, 29856, Note_on_c, 2, 71, 64
1, 29856, Note_on_c, 2, 68, 64
1, 29856, Note_on_c, 2, 64, 64
1, 29856, Note_on_c, 3, 66, 127
1, 29856, Note_on_c, 3, 76, 1
1, 29856, Note_on_c, 9, 42, 90
1, 29880, Note_on_c, 3, 76, 0
1, 29888, Note_on_c, 2, 71, 0
1, 29896, Note_on_c, 2, 68, 0
1, 29896, Note_on_c, 1, 40, 0
1, 29904, Note_on_c, 2, 64, 0
1, 29904, Note_on_c, 9, 42, 0
1, 29904, Note_on_c, 3, 78, 1
1, 29928, Note_on_c, 3, 78, 0
1, 29928, Note_on_c, 3, 66, 0
1, 29952, Note_on_c, 1, 42, 127
1, 29952, Note_on_c, 2, 71, 64
1, 29952, Note_on_c, 2, 66, 64
1, 29952, Note_on_c, 2, 63, 64
1, 29952, Note_on_c, 3, 76, 127
1, 29952, Note_on_c, 9, 36, 127
1, 29952, Note_on_c, 9, 42, 90
1, 29984, Note_on_c, 2, 66, 0
1, 29984, Note_on_c, 2, 71, 0
1, 29992, Note_on_c, 1, 42, 0
1, 30000, Note_on_c, 9, 42, 0
1, 30000, Note_on_c, 2, 63, 0
1, 30000, Note_on_c, 9, 36, 0
1, 30048, Note_on_c, 2, 71, 64
1, 30048, Note_on_c, 2, 66, 64
1, 30048, Note_on_c, 2, 63, 64
1, 30048, Note_on_c, 9, 42, 90
1, 30080, Note_on_c, 2, 66, 0
1, 30088, Note_on_c, 2, 71, 0
1, 30096, Note_on_c, 2, 63, 0
1, 30096, Note_on_c, 9, 42, 0
1, 30096, Note_on_c, 3, 75, 127
1, 30104, Note_on_c, 3, 76, 0
1, 30144, Note_on_c, 2, 71, 64
1, 30144, Note_on_c, 2, 66, 64
1, 30144, Note_on_c, 2, 63, 64
1, 30144, Note_on_c, 9, 36, 127
1, 30144, Note_on_c, 9, 38, 127
1, 30144, Note_on_c, 9, 42, 90
1, 30144, Note_on_c, 9, 37, 127
1, 30176, Note_on_c, 2, 66, 0
1, 30184, Note_on_c, 2, 71, 0
1, 30192, Note_on_c, 9, 42, 0
1, 30192, Note_on_c, 9, 36, 0
1, 30192, Note_on_c, 9, 37, 0
1, 30192, Note_on_c, 2, 63, 0
1, 30192, Note_on_c, 9, 38, 0
1, 30208, Note_on_c, 3, 75, 0
1, 30240, Note_on_c, 2, 71, 64
1, 30240, Note_on_c, 2, 66, 64
1, 30240, Note_on_c, 2, 63, 64
1, 30240, Note_on_c, 3, 71, 127
1, 30240, Note_on_c, 3, 73, 1
1, 30240, Note_on_c, 9, 36, 127
1, 30240, Note_on_c, 9, 42, 90
1, 30264, Note_on_c, 3, 73, 0
1, 30280, Note_on_c, 2, 63, 0
1, 30280, Note_on_c, 2, 66, 0
1, 30288, Note_on_c, 2, 71, 0
1, 30288, Note_on_c, 9, 42, 0
1, 30288, Note_on_c, 9, 36, 0
1, 30288, Note_on_c, 3, 76, 1
1, 30320, Note_on_c, 3, 76, 0
1, 30336, Note_on_c, 1, 47, 127
1, 30336, Note_on_c, 2, 71, 64
1, 30336, Note_on_c, 2, 66, 64
1, 30336, Note_on_c, 2, 63, 64
1, 30336, Note_on_c, 9, 36, 127
1, 30336, Note_on_c, 9, 42, 90
1, 30368, Note_on_c, 1, 49, 127
1, 30376, Note_on_c, 2, 66, 0
1, 30376, Note_on_c, 2, 71, 0
1, 30376, Note_on_c, 1, 47, 0
1, 30384, Note_on_c, 2, 63, 0
1, 30384, Note_on_c, 9, 42, 0
1, 30384, Note_on_c, 9, 36, 0
1, 30384, Note_on_c, 3, 78, 1
1, 30400, Note_on_c, 1, 47, 127
1, 30408, Note_on_c, 1, 49, 0
1, 30424, Note_on_c, 3, 78, 0
1, 30432, Note_on_c, 1, 45, 127
1, 30432, Note_on_c, 2, 71, 64
1, 30432, Note_on_c, 2, 66, 64
1, 30432, Note_on_c, 2, 63, 64
1, 30432, Note_on_c, 9, 42, 90
1, 30440, Note_on_c, 1, 47, 0
1, 30472, Note_on_c, 2, 71, 0
1, 30472, Note_on_c, 1, 45, 0
1, 30472, Note_on_c, 2, 66, 0
1, 30480, Note_on_c, 2, 63, 0
1, 30480, Note_on_c, 9, 42, 0
1, 30480, Note_on_c, 3, 76, 1
1, 30512, Note_on_c, 3, 76, 0
1, 30528, Note_on_c, 1, 47, 127
1, 30528, Note_on_c, 2, 71, 64
1, 30528, Note_on_c, 2, 66, 64
1, 30528, Note_on_c, 2, 63, 64
1, 30528, Note_on_c, 3, 78, 1
1, 30528, Note_on_c, 9, 36, 127
1, 30528, Note_on_c, 9, 38, 127
1, 30528, Note_on_c, 9, 42, 90
1, 30528, Note_on_c, 9, 37, 127
1, 30552, Note_on_c, 3, 78, 0
1, 30552, Note_on_c, 1, 49, 127
1, 30560, Note_on_c, 3, 71, 0
1, 30568, Note_on_c, 2, 66, 0
1, 30568, Note_on_c, 2, 71, 0
1, 30568, Note_on_c, 1, 47, 0
1, 30576, Note_on_c, 9, 38, 0
1, 30576, Note_on_c, 9, 37, 0
1, 30576, Note_on_c, 9, 36, 0
1, 30576, Note_on_c, 9, 42, 0
1, 30576, Note_on_c, 2, 63, 0
1, 30576, Note_on_c, 3, 76, 1
1, 30584, Note_on_c, 1, 47, 127
1, 30592, Note_on_c, 3, 76, 0
1, 30592, Note_on_c, 1, 49, 0
1, 30624, Note_on_c, 1, 47, 0
1, 30624, Note_on_c, 1, 45, 127
1, 30624, Note_on_c, 2, 71, 64
1, 30624, Note_on_c, 2, 66, 64
1, 30624, Note_on_c, 2, 63, 64
1, 30624, Note_on_c, 3, 73, 1
1, 30624, Note_on_c, 9, 36, 127
1, 30624, Note_on_c, 9, 38, 127
1, 30624, Note_on_c, 9, 44, 90
1, 30648, Note_on_c, 3, 73, 0
1, 30664, Note_on_c, 1, 45, 0
1, 30664, Note_on_c, 2, 71, 0
1, 30672, Note_on_c, 9, 36, 0
1, 30672, Note_on_c, 9, 38, 0
1, 30672, Note_on_c, 2, 63, 0
1, 30672, Note_on_c, 9, 44, 0
1, 30672, Note_on_c, 2, 66, 0
1, 30672, Note_on_c, 3, 66, 1
1, 30672, Note_on_c, 9, 38, 127
1, 30688, Note_on_c, 3, 66, 0
1, 30720, Note_on_c, 9, 38, 0
1, 30720, Note_on_c, 3, 73, 0
1, 30720, Note_on_c, 1, 30, 127
1, 30720, Note_on_c, 2, 73, 64
1, 30720, Note_on_c, 2, 71, 64
1, 30720, Note_on_c, 2, 64, 64
1, 30720, Note_on_c, 6, 66, 28
1, 30720, Note_on_c, 9, 36, 127
1, 30720, Note_on_c, 9, 42, 90
1, 30744, Note_on_c, 6, 66, 0
1, 30744, Note_on_c, 2, 73, 0
1, 30752, Note_on_c, 2, 71, 0
1, 30760, Note_on_c, 2, 64, 0
1, 30768, Note_on_c, 1, 30, 0
1, 30768, Note_on_c, 9, 36, 0
1, 30768, Note_on_c, 9, 42, 0
1, 30768, Note_on_c, 1, 30, 127
1, 30768, Note_on_c, 2, 71, 64
1, 30768, Note_on_c, 2, 69, 64
1, 30768, Note_on_c, 2, 64, 64
1, 30768, Note_on_c, 6, 66, 28
1, 30792, Note_on_c, 2, 71, 0
1, 30800, Note_on_c, 6, 66, 0
1, 30800, Note_on_c, 2, 69, 0
1, 30808, Note_on_c, 2, 64, 0
1, 30816, Note_on_c, 1, 30, 0
1, 30816, Note_on_c, 1, 30, 127
1, 30816, Note_on_c, 2, 71, 64
1, 30816, Note_on_c, 2, 69, 64
1, 30816, Note_on_c, 2, 64, 64
1, 30816, Note_on_c, 6, 66, 28
1, 30816, Note_on_c, 9, 42, 90
1, 30840, Note_on_c, 2, 69, 0
1, 30840, Note_on_c, 2, 71, 0
1, 30856, Note_on_c, 6, 66, 0
1, 30864, Note_on_c, 1, 30, 0
1, 30864, Note_on_c, 9, 42, 0
1, 30864, Note_on_c, 2, 64, 0
1, 30912, Note_on_c, 1, 30, 127
1, 30912, Note_on_c, 2, 71, 64
1, 30912, Note_on_c, 2, 69, 64
1, 30912, Note_on_c, 2, 64, 64
1, 30912, Note_on_c, 6, 66, 28
1, 30912, Note_on_c, 9, 36, 127
1, 30912, Note_on_c, 9, 38, 127
1, 30912, Note_on_c, 9, 42, 90
1, 30912, Note_on_c, 9, 37, 127
1, 30936, Note_on_c, 2, 69, 0
1, 30936, Note_on_c, 2, 71, 0
1, 30960, Note_on_c, 1, 30, 0
1, 30960, Note_on_c, 9, 38, 0
1, 30960, Note_on_c, 9, 36, 0
1, 30960, Note_on_c, 2, 64, 0
1, 30960, Note_on_c, 9, 42, 0
1, 30960, Note_on_c, 6, 66, 0
1, 30960, Note_on_c, 9, 37, 0
1, 31008, Note_on_c, 1, 33, 127
1, 31008, Note_on_c, 2, 71, 64
1, 31008, Note_on_c, 2, 69, 64
1, 31008, Note_on_c, 2, 64, 64
1, 31008, Note_on_c, 6, 66, 28
1, 31008, Note_on_c, 9, 36, 127
1, 31008, Note_on_c, 9, 42, 90
1, 31032, Note_on_c, 2, 71, 0
1, 31040, Note_on_c, 6, 66, 0
1, 31040, Note_on_c, 2, 69, 0
1, 31048, Note_on_c, 2, 64, 0
1, 31056, Note_on_c, 1, 33, 0
1, 31056, Note_on_c, 9, 36, 0
1, 31056, Note_on_c, 9, 42, 0
1, 31104, Note_on_c, 1, 35, 127
1, 31104, Note_on_c, 2, 71, 64
1, 31104, Note_on_c, 2, 68, 64
1, 31104, Note_on_c, 2, 64, 64
1, 31104, Note_on_c, 3, 81, 127
1, 31104, Note_on_c, 4, 69, 127
1, 31104, Note_on_c, 6, 66, 28
1, 31104, Note_on_c, 9, 36, 127
1, 31104, Note_on_c, 9, 42, 90
1, 31128, Note_on_c, 2, 71, 0
1, 31136, Note_on_c, 6, 66, 0
1, 31136, Note_on_c, 2, 68, 0
1, 31144, Note_on_c, 2, 64, 0
1, 31152, Note_on_c, 9, 42, 0
1, 31152, Note_on_c, 3, 81, 0
1, 31152, Note_on_c, 4, 69, 0
1, 31152, Note_on_c, 3, 83, 127
1, 31152, Note_on_c, 4, 71, 127
1, 31200, Note_on_c, 4, 71, 0
1, 31200, Note_on_c, 1, 35, 0
1, 31200, Note_on_c, 9, 36, 0
1, 31200, Note_on_c, 3, 83, 0
1, 31200, Note_on_c, 2, 71, 64
1, 31200, Note_on_c, 2, 68, 64
1, 31200, Note_on_c, 2, 64, 64
1, 31200, Note_on_c, 3, 84, 127
1, 31200, Note_on_c, 4, 72, 127
1, 31200, Note_on_c, 9, 42, 90
1, 31224, Note_on_c, 2, 71, 0
1, 31232, Note_on_c, 2, 68, 0
1, 31248, Note_on_c, 4, 72, 0
1, 31248, Note_on_c, 3, 84, 0
1, 31248, Note_on_c, 9, 42, 0
1, 31248, Note_on_c, 2, 64, 0
1, 31248, Note_on_c, 1, 37, 127
1, 31248, Note_on_c, 3, 85, 127
1, 31248, Note_on_c, 4, 73, 127
1, 31248, Note_on_c, 6, 66, 28
1, 31280, Note_on_c, 6, 66, 0
1, 31296, Note_on_c, 2, 71, 64
1, 31296, Note_on_c, 2, 68, 64
1, 31296, Note_on_c, 2, 64, 64
1, 31296, Note_on_c, 9, 36, 127
1, 31296, Note_on_c, 9, 38, 127
1, 31296, Note_on_c, 9, 42, 90
1, 31296, Note_on_c, 9, 37, 127
1, 31320, Note_on_c, 2, 71, 0
1, 31344, Note_on_c, 1, 37, 0
1, 31344, Note_on_c, 2, 68, 0
1, 31344, Note_on_c, 9, 37, 0
1, 31344, Note_on_c, 2, 64, 0
1, 31344, Note_on_c, 9, 38, 0
1, 31344, Note_on_c, 9, 42, 0
1, 31344, Note_on_c, 9, 36, 0
1, 31344, Note_on_c, 1, 33, 127
1, 31344, Note_on_c, 6, 66, 28
1, 31360, Note_on_c, 6, 66, 0
1, 31392, Note_on_c, 4, 73, 0
1, 31392, Note_on_c, 3, 85, 0
1, 31392, Note_on_c, 1, 33, 0
1, 31392, Note_on_c, 1, 30, 127
1, 31392, Note_on_c, 2, 71, 64
1, 31392, Note_on_c, 2, 68, 64
1, 31392, Note_on_c, 2, 64, 64
1, 31392, Note_on_c, 6, 66, 28
1, 31392, Note_on_c, 9, 36, 127
1, 31392, Note_on_c, 9, 42, 90
1, 31416, Note_on_c, 6, 66, 0
1, 31424, Note_on_c, 2, 71, 0
1, 31432, Note_on_c, 2, 68, 0
1, 31440, Note_on_c, 2, 64, 0
1, 31440, Note_on_c, 9, 42, 0
1, 31440, Note_on_c, 9, 36, 0
1, 31488, Note_on_c, 1, 30, 0
1, 31488, Note_on_c, 2, 71, 64
1, 31488, Note_on_c, 2, 66, 64
1, 31488, Note_on_c, 2, 63, 64
1, 31488, Note_on_c, 3, 81, 127
1, 31488, Note_on_c, 4, 69, 127
1, 31488, Note_on_c, 9, 36, 127
1, 31488, Note_on_c, 9, 42, 90
1, 31520, Note_on_c, 2, 66, 0
1, 31520, Note_on_c, 2, 71, 0
1, 31536, Note_on_c, 2, 63, 0
1, 31536, Note_on_c, 4, 69, 0
1, 31536, Note_on_c, 3, 81, 0
1, 31536, Note_on_c, 9, 42, 0
1, 31536, Note_on_c, 9, 36, 0
1, 31536, Note_on_c, 3, 83, 127
1, 31536, Note_on_c, 4, 71, 127
1, 31584, Note_on_c, 4, 71, 0
1, 31584, Note_on_c, 3, 83, 0
1, 31584, Note_on_c, 2, 71, 64
1, 31584, Note_on_c, 2, 66, 64
1, 31584, Note_on_c, 2, 63, 64
1, 31584, Note_on_c, 3, 84, 127
1, 31584, Note_on_c, 4, 72, 127
1, 31584, Note_on_c, 9, 42, 90
1, 31616, Note_on_c, 2, 66, 0
1, 31624, Note_on_c, 2, 71, 0
1, 31632, Note_on_c, 4, 72, 0
1, 31632, Note_on_c, 3, 84, 0
1, 31632, Note_on_c, 9, 42, 0
1, 31632, Note_on_c, 2, 63, 0
1, 31632, Note_on_c, 3, 85, 127
1, 31632, Note_on_c, 4, 73, 127
1, 31632, Note_on_c, 6, 66, 28
1, 31640, Note_on_c, 6, 66, 0
1, 31680, Note_on_c, 2, 71, 64
1, 31680, Note_on_c, 2, 66, 64
1, 31680, Note_on_c, 2, 63, 64
1, 31680, Note_on_c, 9, 36, 127
1, 31680, Note_on_c, 9, 38, 127
1, 31680, Note_on_c, 9, 42, 90
1, 31680, Note_on_c, 9, 37, 127
1, 31712, Note_on_c, 2, 66, 0
1, 31720, Note_on_c, 2, 71, 0
1, 31728, Note_on_c, 9, 42, 0
1, 31728, Note_on_c, 9, 36, 0
1, 31728, Note_on_c, 9, 37, 0
1, 31728, Note_on_c, 2, 63, 0
1, 31728, Note_on_c, 9, 38, 0
1, 31728, Note_on_c, 1, 33, 127
1, 31728, Note_on_c, 6, 66, 28
1, 31776, Note_on_c, 6, 66, 0
1, 31776, Note_on_c, 4, 73, 0
1, 31776, Note_on_c, 3, 85, 0
1, 31776, Note_on_c, 1, 33, 0
1, 31776, Note_on_c, 1, 30, 127
1, 31776, Note_on_c, 2, 71, 64
1, 31776, Note_on_c, 2, 66, 64
1, 31776, Note_on_c, 2, 63, 64
1, 31776, Note_on_c, 9, 36, 127
1, 31776, Note_on_c, 9, 42, 90
1, 31816, Note_on_c, 2, 63, 0
1, 31816, Note_on_c, 2, 66, 0
1, 31824, Note_on_c, 9, 36, 0
1, 31824, Note_on_c, 2, 71, 0
1, 31824, Note_on_c, 9, 42, 0
1, 31872, Note_on_c, 1, 30, 0
1, 31872, Note_on_c, 1, 28, 127
1, 31872, Note_on_c, 2, 71, 64
1, 31872, Note_on_c, 2, 66, 64
1, 31872, Note_on_c, 2, 63, 64
1, 31872, Note_on_c, 5, 69, 127
1, 31872, Note_on_c, 6, 73, 28
1, 31872, Note_on_c, 9, 36, 127
1, 31872, Note_on_c, 9, 42, 90
1, 31912, Note_on_c, 2, 66, 0
1, 31912, Note_on_c, 2, 71, 0
1, 31920, Note_on_c, 9, 42, 0
1, 31920, Note_on_c, 2, 63, 0
1, 31920, Note_on_c, 9, 36, 0
1, 31968, Note_on_c, 1, 28, 0
1, 31968, Note_on_c, 2, 71, 64
1, 31968, Note_on_c, 2, 66, 64
1, 31968, Note_on_c, 2, 63, 64
1, 31968, Note_on_c, 9, 42, 90
1, 32008, Note_on_c, 2, 66, 0
1, 32008, Note_on_c, 2, 71, 0
1, 32016, Note_on_c, 2, 63, 0
1, 32016, Note_on_c, 9, 42, 0
1, 32016, Note_on_c, 9, 36, 127
1, 32064, Note_on_c, 9, 36, 0
1, 32064, Note_on_c, 6, 73, 0
1, 32064, Note_on_c, 5, 69, 0
1, 32064, Note_on_c, 1, 28, 127
1, 32064, Note_on_c, 2, 71, 64
1, 32064, Note_on_c, 2, 66, 64
1, 32064, Note_on_c, 2, 63, 64
1, 32064, Note_on_c, 6, 71, 28
1, 32064, Note_on_c, 9, 38, 127
1, 32064, Note_on_c, 9, 42, 90
1, 32064, Note_on_c, 9, 37, 127
1, 32072, Note_on_c, 5, 71, 127
1, 32104, Note_on_c, 2, 66, 0
1, 32104, Note_on_c, 2, 71, 0
1, 32112, Note_on_c, 1, 28, 0
1, 32112, Note_on_c, 9, 42, 0
1, 32112, Note_on_c, 9, 37, 0
1, 32112, Note_on_c, 2, 63, 0
1, 32112, Note_on_c, 9, 38, 0
1, 32152, Note_on_c, 6, 71, 0
1, 32160, Note_on_c, 1, 28, 127
1, 32160, Note_on_c, 2, 71, 64
1, 32160, Note_on_c, 2, 66, 64
1, 32160, Note_on_c, 2, 63, 64
1, 32160, Note_on_c, 6, 69, 28
1, 32160, Note_on_c, 9, 36, 127
1, 32160, Note_on_c, 9, 38, 127
1, 32160, Note_on_c, 9, 44, 90
1, 32200, Note_on_c, 2, 71, 0
1, 32208, Note_on_c, 2, 63, 0
1, 32208, Note_on_c, 9, 44, 0
1, 32208, Note_on_c, 1, 28, 0
1, 32208, Note_on_c, 9, 38, 0
1, 32208, Note_on_c, 2, 66, 0
1, 32208, Note_on_c, 9, 36, 0
1, 32208, Note_on_c, 9, 38, 127
1, 32232, Note_on_c, 5, 71, 0
1, 32256, Note_on_c, 9, 38, 0
1, 32256, Note_on_c, 6, 69, 0
1, 32256, Note_on_c, 1, 30, 127
1, 32256, Note_on_c, 2, 73, 64
1, 32256, Note_on_c, 2, 71, 64
1, 32256, Note_on_c, 2, 64, 64
1, 32256, Note_on_c, 5, 73, 127
1, 32256, Note_on_c, 6, 66, 28
1, 32256, Note_on_c, 9, 36, 127
1, 32256, Note_on_c, 9, 42, 90
1, 32280, Note_on_c, 2, 73, 0
1, 32288, Note_on_c, 2, 71, 0
1, 32296, Note_on_c, 2, 64, 0
1, 32296, Note_on_c, 6, 66, 0
1, 32304, Note_on_c, 9, 36, 0
1, 32304, Note_on_c, 9, 42, 0
1, 32304, Note_on_c, 1, 30, 0
1, 32304, Note_on_c, 1, 30, 127
1, 32304, Note_on_c, 2, 71, 64
1, 32304, Note_on_c, 2, 69, 64
1, 32304, Note_on_c, 2, 64, 64
1, 32328, Note_on_c, 2, 71, 0
1, 32336, Note_on_c, 2, 69, 0
1, 32336, Note_on_c, 5, 73, 0
1, 32344, Note_on_c, 2, 64, 0
1, 32352, Note_on_c, 1, 30, 0
1, 32352, Note_on_c, 1, 30, 127
1, 32352, Note_on_c, 2, 71, 64
1, 32352, Note_on_c, 2, 69, 64
1, 32352, Note_on_c, 2, 64, 64
1, 32352, Note_on_c, 9, 42, 90
1, 32360, Note_on_c, 5, 73, 127
1, 32376, Note_on_c, 2, 69, 0
1, 32376, Note_on_c, 2, 71, 0
1, 32400, Note_on_c, 2, 64, 0
1, 32400, Note_on_c, 1, 30, 0
1, 32400, Note_on_c, 9, 42, 0
1, 32400, Note_on_c, 6, 66, 28
1, 32448, Note_on_c, 6, 66, 0
1, 32448, Note_on_c, 5, 73, 0
1, 32448, Note_on_c, 1, 30, 127
1, 32448, Note_on_c, 2, 71, 64
1, 32448, Note_on_c, 2, 69, 64
1, 32448, Note_on_c, 2, 64, 64
1, 32448, Note_on_c, 9, 36, 127
1, 32448, Note_on_c, 9, 38, 127
1, 32448, Note_on_c, 9, 42, 90
1, 32448, Note_on_c, 9, 37, 127
1, 32472, Note_on_c, 2, 69, 0
1, 32472, Note_on_c, 2, 71, 0
1, 32496, Note_on_c, 9, 42, 0
1, 32496, Note_on_c, 9, 38, 0
1, 32496, Note_on_c, 2, 64, 0
1, 32496, Note_on_c, 9, 36, 0
1, 32496, Note_on_c, 1, 30, 0
1, 32496, Note_on_c, 9, 37, 0
1, 32544, Note_on_c, 1, 33, 127
1, 32544, Note_on_c, 2, 71, 64
1, 32544, Note_on_c, 2, 69, 64
1, 32544, Note_on_c, 2, 64, 64
1, 32544, Note_on_c, 6, 66, 28
1, 32544, Note_on_c, 9, 36, 127
1, 32544, Note_on_c, 9, 42, 90
1, 32560, Note_on_c, 6, 66, 0
1, 32568, Note_on_c, 2, 71, 0
1, 32576, Note_on_c, 2, 69, 0
1, 32584, Note_on_c, 2, 64, 0
1, 32592, Note_on_c, 1, 33, 0
1, 32592, Note_on_c, 9, 36, 0
1, 32592, Note_on_c, 9, 42, 0
1, 32640, Note_on_c, 1, 35, 127
1, 32640, Note_on_c, 2, 71, 64
1, 32640, Note_on_c, 2, 68, 64
1, 32640, Note_on_c, 2, 64, 64
1, 32640, Note_on_c, 3, 81, 127
1, 32640, Note_on_c, 4, 69, 127
1, 32640, Note_on_c, 6, 66, 28
1, 32640, Note_on_c, 9, 36, 127
1, 32640, Note_on_c, 9, 42, 90
1, 32664, Note_on_c, 2, 71, 0
1, 32672, Note_on_c, 2, 68, 0
1, 32680, Note_on_c, 2, 64, 0
1, 32680, Note_on_c, 6, 66, 0
1, 32688, Note_on_c, 9, 42, 0
1, 32688, Note_on_c, 3, 81, 0
1, 32688, Note_on_c, 4, 69, 0
1, 32688, Note_on_c, 3, 83, 127
1, 32688, Note_on_c, 4, 71, 127
1, 32688, Note_on_c, 6, 69, 28
1, 32720, Note_on_c, 6, 69, 0
1, 32736, Note_on_c, 3, 83, 0
1, 32736, Note_on_c, 9, 36, 0
1, 32736, Note_on_c, 1, 35, 0
1, 32736, Note_on_c, 4, 71, 0
1, 32736, Note_on_c, 2, 71, 64
1, 32736, Note_on_c, 2, 68, 64
1, 32736, Note_on_c, 2, 64, 64
1, 32736, Note_on_c, 3, 84, 127
1, 32736, Note_on_c, 4, 72, 127
1, 32736, Note_on_c, 6, 71, 28
1, 32736, Note_on_c, 9, 42, 90
1, 32760, Note_on_c, 6, 71, 0
1, 32760, Note_on_c, 2, 71, 0
1, 32768, Note_on_c, 2, 68, 0
1, 32784, Note_on_c, 4, 72, 0
1, 32784, Note_on_c, 3, 84, 0
1, 32784, Note_on_c, 9, 42, 0
1, 32784, Note_on_c, 2, 64, 0
1, 32784, Note_on_c, 1, 37, 127
1, 32784, Note_on_c, 3, 85, 127
1, 32784, Note_on_c, 4, 73, 127
1, 32784, Note_on_c, 6, 73, 28
1, 32832, Note_on_c, 2, 71, 64
1, 32832, Note_on_c, 2, 68, 64
1, 32832, Note_on_c, 2, 64, 64
1, 32832, Note_on_c, 9, 36, 127
1, 32832, Note_on_c, 9, 38, 127
1, 32832, Note_on_c, 9, 42, 90
1, 32832, Note_on_c, 9, 37, 127
1, 32848, Note_on_c, 6, 73, 0
1, 32856, Note_on_c, 2, 71, 0
1, 32880, Note_on_c, 4, 73, 0
1, 32880, Note_on_c, 9, 36, 0
1, 32880, Note_on_c, 9, 42, 0
1, 32880, Note_on_c, 2, 68, 0
1, 32880, Note_on_c, 1, 37, 0
1, 32880, Note_on_c, 9, 37, 0
1, 32880, Note_on_c, 9, 38, 0
1, 32880, Note_on_c, 2, 64, 0
1, 32888, Note_on_c, 5, 69, 127
1, 32920, Note_on_c, 5, 69, 0
1, 32928, Note_on_c, 3, 85, 0
1, 32928, Note_on_c, 1, 40, 127
1, 32928, Note_on_c, 2, 71, 64
1, 32928, Note_on_c, 2, 68, 64
1, 32928, Note_on_c, 2, 64, 64
1, 32928, Note_on_c, 9, 36, 127
1, 32928, Note_on_c, 9, 42, 90
1, 32936, Note_on_c, 5, 71, 127
1, 32960, Note_on_c, 2, 71, 0
1, 32968, Note_on_c, 2, 68, 0
1, 32976, Note_on_c, 9, 42, 0
1, 32976, Note_on_c, 2, 64, 0
1, 32976, Note_on_c, 1, 40, 0
1, 32976, Note_on_c, 5, 71, 0
1, 32976, Note_on_c, 9, 36, 0
1, 32992, Note_on_c, 5, 73, 127
1, 33024, Note_on_c, 1, 42, 127
1, 33024, Note_on_c, 2, 71, 64
1, 33024, Note_on_c, 2, 66, 64
1, 33024, Note_on_c, 2, 63, 64
1, 33024, Note_on_c, 6, 66, 28
1, 33024, Note_on_c, 9, 36, 127
1, 33024, Note_on_c, 9, 42, 90
1, 33040, Note_on_c, 6, 66, 0
1, 33048, Note_on_c, 5, 73, 0
1, 33056, Note_on_c, 2, 66, 0
1, 33056, Note_on_c, 2, 71, 0
1, 33072, Note_on_c, 2, 63, 0
1, 33072, Note_on_c, 9, 42, 0
1, 33072, Note_on_c, 6, 69, 28
1, 33080, Note_on_c, 6, 69, 0
1, 33120, Note_on_c, 1, 42, 0
1, 33120, Note_on_c, 2, 71, 64
1, 33120, Note_on_c, 2, 66, 64
1, 33120, Note_on_c, 2, 63, 64
1, 33120, Note_on_c, 6, 71, 28
1, 33120, Note_on_c, 9, 42, 90
1, 33136, Note_on_c, 6, 71, 0
1, 33136, Note_on_c, 5, 73, 127
1, 33152, Note_on_c, 2, 66, 0
1, 33160, Note_on_c, 2, 71, 0
1, 33168, Note_on_c, 2, 63, 0
1, 33168, Note_on_c, 9, 36, 0
1, 33168, Note_on_c, 9, 42, 0
1, 33168, Note_on_c, 6, 73, 28
1, 33216, Note_on_c, 6, 73, 0
1, 33216, Note_on_c, 1, 40, 127
1, 33216, Note_on_c, 2, 71, 64
1, 33216, Note_on_c, 2, 66, 64
1, 33216, Note_on_c, 2, 63, 64
1, 33216, Note_on_c, 9, 36, 127
1, 33216, Note_on_c, 9, 38, 127
1, 33216, Note_on_c, 9, 42, 90
1, 33216, Note_on_c, 9, 37, 127
1, 33240, Note_on_c, 5, 73, 0
1, 33248, Note_on_c, 2, 66, 0
1, 33256, Note_on_c, 2, 71, 0
1, 33264, Note_on_c, 9, 38, 0
1, 33264, Note_on_c, 9, 36, 0
1, 33264, Note_on_c, 2, 63, 0
1, 33264, Note_on_c, 9, 37, 0
1, 33264, Note_on_c, 1, 40, 0
1, 33264, Note_on_c, 9, 42, 0
1, 33264, Note_on_c, 5, 71, 127
1, 33264, Note_on_c, 6, 73, 28
1, 33288, Note_on_c, 6, 73, 0
1, 33312, Note_on_c, 1, 42, 127
1, 33312, Note_on_c, 2, 71, 64
1, 33312, Note_on_c, 2, 66, 64
1, 33312, Note_on_c, 2, 63, 64
1, 33312, Note_on_c, 9, 36, 127
1, 33312, Note_on_c, 9, 42, 90
1, 33352, Note_on_c, 2, 63, 0
1, 33352, Note_on_c, 2, 66, 0
1, 33360, Note_on_c, 1, 42, 0
1, 33360, Note_on_c, 2, 71, 0
1, 33360, Note_on_c, 9, 36, 0
1, 33360, Note_on_c, 9, 42, 0
1, 33384, Note_on_c, 5, 71, 0
1, 33408, Note_on_c, 1, 40, 127
1, 33408, Note_on_c, 2, 71, 64
1, 33408, Note_on_c, 2, 66, 64
1, 33408, Note_on_c, 2, 63, 64
1, 33408, Note_on_c, 9, 36, 127
1, 33408, Note_on_c, 9, 42, 90
1, 33416, Note_on_c, 5, 71, 127
1, 33448, Note_on_c, 2, 66, 0
1, 33448, Note_on_c, 2, 71, 0
1, 33456, Note_on_c, 2, 63, 0
1, 33456, Note_on_c, 9, 42, 0
1, 33504, Note_on_c, 1, 40, 0
1, 33504, Note_on_c, 9, 36, 0
1, 33504, Note_on_c, 2, 71, 64
1, 33504, Note_on_c, 2, 66, 64
1, 33504, Note_on_c, 2, 63, 64
1, 33504, Note_on_c, 6, 69, 28
1, 33504, Note_on_c, 9, 42, 90
1, 33544, Note_on_c, 6, 69, 0
1, 33544, Note_on_c, 2, 66, 0
1, 33544, Note_on_c, 2, 71, 0
1, 33552, Note_on_c, 9, 42, 0
1, 33552, Note_on_c, 2, 63, 0
1, 33552, Note_on_c, 6, 71, 28
1, 33552, Note_on_c, 9, 36, 127
1, 33576, Note_on_c, 5, 71, 0
1, 33584, Note_on_c, 6, 71, 0
1, 33600, Note_on_c, 9, 36, 0
1, 33600, Note_on_c, 1, 40, 127
1, 33600, Note_on_c, 2, 71, 64
1, 33600, Note_on_c, 2, 66, 64
1, 33600, Note_on_c, 2, 63, 64
1, 33600, Note_on_c, 5, 69, 127
1, 33600, Note_on_c, 9, 36, 127
1, 33600, Note_on_c, 9, 38, 127
1, 33600, Note_on_c, 9, 42, 90
1, 33600, Note_on_c, 9, 37, 127
1, 33632, Note_on_c, 5, 69, 0
1, 33640, Note_on_c, 2, 66, 0
1, 33640, Note_on_c, 2, 71, 0
1, 33640, Note_on_c, 5, 66, 127
1, 33648, Note_on_c, 9, 38, 0
1, 33648, Note_on_c, 9, 42, 0
1, 33648, Note_on_c, 9, 36, 0
1, 33648, Note_on_c, 2, 63, 0
1, 33648, Note_on_c, 9, 37, 0
1, 33648, Note_on_c, 1, 40, 0
1, 33648, Note_on_c, 1, 41, 127
1, 33648, Note_on_c, 6, 73, 28
1, 33648, Note_on_c, 6, 73, 0
1, 33696, Note_on_c, 1, 41, 0
1, 33696, Note_on_c, 1, 42, 127
1, 33696, Note_on_c, 2, 71, 64
1, 33696, Note_on_c, 2, 66, 64
1, 33696, Note_on_c, 2, 63, 64
1, 33696, Note_on_c, 9, 36, 127
1, 33696, Note_on_c, 9, 38, 127
1, 33696, Note_on_c, 9, 44, 90
1, 33736, Note_on_c, 2, 71, 0
1, 33744, Note_on_c, 9, 44, 0
1, 33744, Note_on_c, 9, 36, 0
1, 33744, Note_on_c, 1, 42, 0
1, 33744, Note_on_c, 2, 66, 0
1, 33744, Note_on_c, 2, 63, 0
1, 33744, Note_on_c, 9, 38, 0
1, 33744, Note_on_c, 1, 37, 127
1, 33744, Note_on_c, 6, 73, 28
1, 33744, Note_on_c, 9, 38, 127
1, 33792, Note_on_c, 9, 38, 0
1, 33792, Note_on_c, 1, 37, 0
1, 33792, Note_on_c, 1, 30, 127
1, 33792, Note_on_c, 2, 73, 64
1, 33792, Note_on_c, 2, 71, 64
1, 33792, Note_on_c, 2, 64, 64
1, 33792, Note_on_c, 9, 36, 127
1, 33792, Note_on_c, 9, 42, 90
1, 33808, Note_on_c, 5, 66, 0
1, 33816, Note_on_c, 2, 73, 0
1, 33824, Note_on_c, 2, 71, 0
1, 33832, Note_on_c, 2, 64, 0
1, 33840, Note_on_c, 9, 42, 0
1, 33840, Note_on_c, 1, 30, 0
1, 33840, Note_on_c, 1, 30, 127
1, 33840, Note_on_c, 2, 71, 64
1, 33840, Note_on_c, 2, 69, 64
1, 33840, Note_on_c, 2, 64, 64
1, 33840, Note_on_c, 6, 73, 28
1, 33848, Note_on_c, 6, 73, 0
1, 33864, Note_on_c, 2, 71, 0
1, 33872, Note_on_c, 2, 69, 0
1, 33880, Note_on_c, 2, 64, 0
1, 33888, Note_on_c, 9, 36, 0
1, 33888, Note_on_c, 1, 30, 0
1, 33888, Note_on_c, 1, 30, 127
1, 33888, Note_on_c, 2, 71, 64
1, 33888, Note_on_c, 2, 69, 64
1, 33888, Note_on_c, 2, 64, 64
1, 33888, Note_on_c, 9, 42, 90
1, 33912, Note_on_c, 2, 69, 0
1, 33912, Note_on_c, 2, 71, 0
1, 33936, Note_on_c, 2, 64, 0
1, 33936, Note_on_c, 1, 30, 0
1, 33936, Note_on_c, 9, 42, 0
1, 33984, Note_on_c, 1, 30, 127
1, 33984, Note_on_c, 2, 71, 64
1, 33984, Note_on_c, 2, 69, 64
1, 33984, Note_on_c, 2, 64, 64
1, 33984, Note_on_c, 9, 36, 127
1, 33984, Note_on_c, 9, 38, 127
1, 33984, Note_on_c, 9, 42, 90
1, 33984, Note_on_c, 9, 37, 127
1, 34008, Note_on_c, 2, 69, 0
1, 34008, Note_on_c, 2, 71, 0
1, 34032, Note_on_c, 9, 42, 0
1, 34032, Note_on_c, 9, 36, 0
1, 34032, Note_on_c, 1, 30, 0
1, 34032, Note_on_c, 2, 64, 0
1, 34032, Note_on_c, 9, 37, 0
1, 34032, Note_on_c, 9, 38, 0
1, 34080, Note_on_c, 1, 33, 127
1, 34080, Note_on_c, 2, 71, 64
1, 34080, Note_on_c, 2, 69, 64
1, 34080, Note_on_c, 2, 64, 64
1, 34080, Note_on_c, 9, 36, 127
1, 34080, Note_on_c, 9, 42, 90
1, 34104, Note_on_c, 2, 71, 0
1, 34112, Note_on_c, 2, 69, 0
1, 34120, Note_on_c, 2, 64, 0
1, 34128, Note_on_c, 9, 36, 0
1, 34128, Note_on_c, 1, 33, 0
1, 34128, Note_on_c, 9, 42, 0
1, 34176, Note_on_c, 1, 35, 127
1, 34176, Note_on_c, 2, 71, 64
1, 34176, Note_on_c, 2, 68, 64
1, 34176, Note_on_c, 2, 64, 64
1, 34176, Note_on_c, 3, 81, 127
1, 34176, Note_on_c, 4, 69, 127
1, 34176, Note_on_c, 6, 73, 28
1, 34176, Note_on_c, 9, 36, 127
1, 34176, Note_on_c, 9, 42, 90
1, 34200, Note_on_c, 2, 71, 0
1, 34208, Note_on_c, 2, 68, 0
1, 34208, Note_on_c, 6, 73, 0
1, 34216, Note_on_c, 2, 64, 0
1, 34224, Note_on_c, 4, 69, 0
1, 34224, Note_on_c, 9, 42, 0
1, 34224, Note_on_c, 3, 81, 0
1, 34224, Note_on_c, 3, 83, 127
1, 34224, Note_on_c, 4, 71, 127
1, 34224, Note_on_c, 6, 71, 28
1, 34256, Note_on_c, 6, 71, 0
1, 34272, Note_on_c, 3, 83, 0
1, 34272, Note_on_c, 1, 35, 0
1, 34272, Note_on_c, 4, 71, 0
1, 34272, Note_on_c, 2, 71, 64
1, 34272, Note_on_c, 2, 68, 64
1, 34272, Note_on_c, 2, 64, 64
1, 34272, Note_on_c, 3, 84, 127
1, 34272, Note_on_c, 4, 72, 127
1, 34272, Note_on_c, 6, 69, 28
1, 34272, Note_on_c, 9, 42, 90
1, 34296, Note_on_c, 6, 69, 0
1, 34296, Note_on_c, 2, 71, 0
1, 34304, Note_on_c, 2, 68, 0
1, 34320, Note_on_c, 3, 84, 0
1, 34320, Note_on_c, 9, 36, 0
1, 34320, Note_on_c, 2, 64, 0
1, 34320, Note_on_c, 9, 42, 0
1, 34320, Note_on_c, 4, 72, 0
1, 34320, Note_on_c, 1, 37, 127
1, 34320, Note_on_c, 3, 85, 127
1, 34320, Note_on_c, 4, 73, 127
1, 34320, Note_on_c, 6, 66, 28
1, 34368, Note_on_c, 6, 66, 0
1, 34368, Note_on_c, 1, 37, 0
1, 34368, Note_on_c, 2, 71, 64
1, 34368, Note_on_c, 2, 68, 64
1, 34368, Note_on_c, 2, 64, 64
1, 34368, Note_on_c, 9, 36, 127
1, 34368, Note_on_c, 9, 38, 127
1, 34368, Note_on_c, 9, 42, 90
1, 34368, Note_on_c, 9, 37, 127
1, 34392, Note_on_c, 2, 71, 0
1, 34416, Note_on_c, 9, 37, 0
1, 34416, Note_on_c, 9, 38, 0
1, 34416, Note_on_c, 2, 68, 0
1, 34416, Note_on_c, 2, 64, 0
1, 34416, Note_on_c, 9, 42, 0
1, 34416, Note_on_c, 9, 36, 0
1, 34416, Note_on_c, 1, 33, 127
1, 34464, Note_on_c, 1, 33, 0
1, 34464, Note_on_c, 3, 85, 0
1, 34464, Note_on_c, 4, 73, 0
1, 34464, Note_on_c, 1, 30, 127
1, 34464, Note_on_c, 2, 71, 64
1, 34464, Note_on_c, 2, 68, 64
1, 34464, Note_on_c, 2, 64, 64
1, 34464, Note_on_c, 9, 42, 90
1, 34496, Note_on_c, 2, 71, 0
1, 34504, Note_on_c, 2, 68, 0
1, 34512, Note_on_c, 2, 64, 0
1, 34512, Note_on_c, 9, 42, 0
1, 34560, Note_on_c, 1, 30, 0
1, 34560, Note_on_c, 2, 71, 64
1, 34560, Note_on_c, 2, 66, 64
1, 34560, Note_on_c, 2, 63, 64
1, 34560, Note_on_c, 3, 81, 127
1, 34560, Note_on_c, 4, 69, 127
1, 34560, Note_on_c, 6, 73, 28
1, 34560, Note_on_c, 9, 36, 127
1, 34560, Note_on_c, 9, 42, 90
1, 34584, Note_on_c, 6, 73, 0
1, 34592, Note_on_c, 2, 71, 0
1, 34592, Note_on_c, 2, 66, 0
1, 34608, Note_on_c, 9, 36, 0
1, 34608, Note_on_c, 4, 69, 0
1, 34608, Note_on_c, 3, 81, 0
1, 34608, Note_on_c, 9, 42, 0
1, 34608, Note_on_c, 2, 63, 0
1, 34608, Note_on_c, 3, 83, 127
1, 34608, Note_on_c, 4, 71, 127
1, 34608, Note_on_c, 6, 71, 28
1, 34632, Note_on_c, 6, 71, 0
1, 34656, Note_on_c, 4, 71, 0
1, 34656, Note_on_c, 3, 83, 0
1, 34656, Note_on_c, 2, 71, 64
1, 34656, Note_on_c, 2, 66, 64
1, 34656, Note_on_c, 2, 63, 64
1, 34656, Note_on_c, 3, 84, 127
1, 34656, Note_on_c, 4, 72, 127
1, 34656, Note_on_c, 6, 69, 28
1, 34656, Note_on_c, 9, 42, 90
1, 34680, Note_on_c, 6, 69, 0
1, 34688, Note_on_c, 2, 66, 0
1, 34696, Note_on_c, 2, 71, 0
1, 34704, Note_on_c, 9, 42, 0
1, 34704, Note_on_c, 2, 63, 0
1, 34704, Note_on_c, 3, 84, 0
1, 34704, Note_on_c, 4, 72, 0
1, 34704, Note_on_c, 3, 85, 127
1, 34704, Note_on_c, 3, 85, 127
1, 34704, Note_on_c, 4, 73, 127
1, 34704, Note_on_c, 6, 66, 28
1, 34736, Note_on_c, 6, 66, 0
1, 34752, Note_on_c, 3, 85, 0
1, 34752, Note_on_c, 2, 71, 64
1, 34752, Note_on_c, 2, 66, 64
1, 34752, Note_on_c, 2, 63, 64
1, 34752, Note_on_c, 9, 36, 127
1, 34752, Note_on_c, 9, 38, 127
1, 34752, Note_on_c, 9, 42, 90
1, 34752, Note_on_c, 9, 37, 127
1, 34784, Note_on_c, 2, 66, 0
1, 34792, Note_on_c, 2, 71, 0
1, 34800, Note_on_c, 9, 42, 0
1, 34800, Note_on_c, 9, 38, 0
1, 34800, Note_on_c, 2, 63, 0
1, 34800, Note_on_c, 9, 37, 0
1, 34800, Note_on_c, 9, 36, 0
1, 34800, Note_on_c, 1, 33, 127
1, 34848, Note_on_c, 1, 33, 0
1, 34848, Note_on_c, 3, 85, 0
1, 34848, Note_on_c, 4, 73, 0
1, 34848, Note_on_c, 1, 30, 127
1, 34848, Note_on_c, 2, 71, 64
1, 34848, Note_on_c, 2, 66, 64
1, 34848, Note_on_c, 2, 63, 64
1, 34848, Note_on_c, 9, 36, 127
1, 34848, Note_on_c, 9, 42, 90
1, 34888, Note_on_c, 2, 63, 0
1, 34888, Note_on_c, 2, 66, 0
1, 34896, Note_on_c, 1, 30, 0
1, 34896, Note_on_c, 2, 71, 0
1, 34896, Note_on_c, 9, 36, 0
1, 34896, Note_on_c, 9, 42, 0
1, 34944, Note_on_c, 1, 28, 127
1, 34944, Note_on_c, 2, 71, 64
1, 34944, Note_on_c, 2, 66, 64
1, 34944, Note_on_c, 2, 63, 64
1, 34944, Note_on_c, 5, 69, 127
1, 34944, Note_on_c, 9, 36, 127
1, 34944, Note_on_c, 9, 42, 90
1, 34984, Note_on_c, 2, 66, 0
1, 34984, Note_on_c, 2, 71, 0
1, 34992, Note_on_c, 9, 42, 0
1, 34992, Note_on_c, 2, 63, 0
1, 34992, Note_on_c, 9, 36, 0
1, 35040, Note_on_c, 1, 28, 0
1, 35040, Note_on_c, 2, 71, 64
1, 35040, Note_on_c, 2, 66, 64
1, 35040, Note_on_c, 2, 63, 64
1, 35040, Note_on_c, 9, 42, 90
1, 35080, Note_on_c, 2, 66, 0
1, 35080, Note_on_c, 2, 71, 0
1, 35088, Note_on_c, 2, 63, 0
1, 35088, Note_on_c, 9, 42, 0
1, 35128, Note_on_c, 5, 69, 0
1, 35136, Note_on_c, 1, 28, 127
1, 35136, Note_on_c, 2, 71, 64
1, 35136, Note_on_c, 2, 66, 64
1, 35136, Note_on_c, 2, 63, 64
1, 35136, Note_on_c, 6, 66, 28
1, 35136, Note_on_c, 9, 36, 127
1, 35136, Note_on_c, 9, 38, 127
1, 35136, Note_on_c, 9, 42, 90
1, 35136, Note_on_c, 9, 37, 127
1, 35144, Note_on_c, 5, 71, 127
1, 35168, Note_on_c, 6, 66, 0
1, 35176, Note_on_c, 2, 71, 0
1, 35176, Note_on_c, 2, 66, 0
1, 35184, Note_on_c, 9, 42, 0
1, 35184, Note_on_c, 9, 38, 0
1, 35184, Note_on_c, 9, 36, 0
1, 35184, Note_on_c, 1, 28, 0
1, 35184, Note_on_c, 9, 37, 0
1, 35184, Note_on_c, 2, 63, 0
1, 35184, Note_on_c, 6, 76, 28
1, 35208, Note_on_c, 6, 76, 0
1, 35232, Note_on_c, 1, 28, 127
1, 35232, Note_on_c, 2, 71, 64
1, 35232, Note_on_c, 2, 66, 64
1, 35232, Note_on_c, 2, 63, 64
1, 35232, Note_on_c, 6, 78, 28
1, 35232, Note_on_c, 9, 36, 127
1, 35232, Note_on_c, 9, 42, 90
1, 35256, Note_on_c, 6, 78, 0
1, 35272, Note_on_c, 2, 71, 0
1, 35280, Note_on_c, 9, 42, 0
1, 35280, Note_on_c, 2, 63, 0
1, 35280, Note_on_c, 9, 36, 0
1, 35280, Note_on_c, 1, 28, 0
1, 35280, Note_on_c, 2, 66, 0
1, 35280, Note_on_c, 6, 78, 28
1, 35304, Note_on_c, 6, 78, 0
1, 35304, Note_on_c, 5, 71, 0
1, 35328, Note_on_c, 1, 30, 127
1, 35328, Note_on_c, 2, 73, 64
1, 35328, Note_on_c, 2, 71, 64
1, 35328, Note_on_c, 2, 64, 64
1, 35328, Note_on_c, 5, 73, 127
1, 35328, Note_on_c, 9, 36, 127
1, 35328, Note_on_c, 9, 42, 90
1, 35352, Note_on_c, 2, 73, 0
1, 35360, Note_on_c, 2, 71, 0
1, 35368, Note_on_c, 2, 64, 0
1, 35376, Note_on_c, 1, 30, 0
1, 35376, Note_on_c, 9, 42, 0
1, 35376, Note_on_c, 9, 36, 0
1, 35376, Note_on_c, 1, 30, 127
1, 35376, Note_on_c, 2, 71, 64
1, 35376, Note_on_c, 2, 69, 64
1, 35376, Note_on_c, 2, 64, 64
1, 35400, Note_on_c, 2, 71, 0
1, 35408, Note_on_c, 2, 69, 0
1, 35408, Note_on_c, 5, 73, 0
1, 35416, Note_on_c, 2, 64, 0
1, 35424, Note_on_c, 1, 30, 0
1, 35424, Note_on_c, 1, 30, 127
1, 35424, Note_on_c, 2, 71, 64
1, 35424, Note_on_c, 2, 69, 64
1, 35424, Note_on_c, 2, 64, 64
1, 35424, Note_on_c, 9, 42, 90
1, 35432, Note_on_c, 5, 73, 127
1, 35448, Note_on_c, 2, 69, 0
1, 35448, Note_on_c, 2, 71, 0
1, 35472, Note_on_c, 1, 30, 0
1, 35472, Note_on_c, 2, 64, 0
1, 35472, Note_on_c, 9, 42, 0
1, 35520, Note_on_c, 1, 30, 127
1, 35520, Note_on_c, 2, 71, 64
1, 35520, Note_on_c, 2, 69, 64
1, 35520, Note_on_c, 2, 64, 64
1, 35520, Note_on_c, 9, 36, 127
1, 35520, Note_on_c, 9, 38, 127
1, 35520, Note_on_c, 9, 42, 90
1, 35520, Note_on_c, 9, 37, 127
1, 35536, Note_on_c, 5, 73, 0
1, 35544, Note_on_c, 2, 69, 0
1, 35544, Note_on_c, 2, 71, 0
1, 35568, Note_on_c, 9, 38, 0
1, 35568, Note_on_c, 2, 64, 0
1, 35568, Note_on_c, 1, 30, 0
1, 35568, Note_on_c, 9, 37, 0
1, 35568, Note_on_c, 9, 42, 0
1, 35568, Note_on_c, 9, 36, 0
1, 35616, Note_on_c, 1, 33, 127
1, 35616, Note_on_c, 2, 71, 64
1, 35616, Note_on_c, 2, 69, 64
1, 35616, Note_on_c, 2, 64, 64
1, 35616, Note_on_c, 9, 36, 127
1, 35616, Note_on_c, 9, 42, 90
1, 35640, Note_on_c, 2, 71, 0
1, 35648, Note_on_c, 2, 69, 0
1, 35656, Note_on_c, 2, 64, 0
1, 35664, Note_on_c, 9, 36, 0
1, 35664, Note_on_c, 1, 33, 0
1, 35664, Note_on_c, 9, 42, 0
1, 35712, Note_on_c, 1, 35, 127
1, 35712, Note_on_c, 2, 71, 64
1, 35712, Note_on_c, 2, 68, 64
1, 35712, Note_on_c, 2, 64, 64
1, 35712, Note_on_c, 3, 81, 127
1, 35712, Note_on_c, 4, 69, 127
1, 35712, Note_on_c, 9, 36, 127
1, 35712, Note_on_c, 9, 42, 90
1, 35736, Note_on_c, 2, 71, 0
1, 35744, Note_on_c, 2, 68, 0
1, 35752, Note_on_c, 2, 64, 0
1, 35760, Note_on_c, 3, 81, 0
1, 35760, Note_on_c, 9, 42, 0
1, 35760, Note_on_c, 9, 36, 0
1, 35760, Note_on_c, 4, 69, 0
1, 35760, Note_on_c, 3, 83, 127
1, 35760, Note_on_c, 4, 71, 127
1, 35808, Note_on_c, 4, 71, 0
1, 35808, Note_on_c, 3, 83, 0
1, 35808, Note_on_c, 1, 35, 0
1, 35808, Note_on_c, 2, 71, 64
1, 35808, Note_on_c, 2, 68, 64
1, 35808, Note_on_c, 2, 64, 64
1, 35808, Note_on_c, 3, 84, 127
1, 35808, Note_on_c, 4, 72, 127
1, 35808, Note_on_c, 9, 42, 90
1, 35832, Note_on_c, 2, 71, 0
1, 35840, Note_on_c, 2, 68, 0
1, 35856, Note_on_c, 4, 72, 0
1, 35856, Note_on_c, 2, 64, 0
1, 35856, Note_on_c, 3, 84, 0
1, 35856, Note_on_c, 9, 42, 0
1, 35856, Note_on_c, 1, 37, 127
1, 35856, Note_on_c, 3, 85, 127
1, 35856, Note_on_c, 4, 73, 127
1, 35856, Note_on_c, 9, 36, 127
1, 35904, Note_on_c, 9, 36, 0
1, 35904, Note_on_c, 2, 71, 64
1, 35904, Note_on_c, 2, 68, 64
1, 35904, Note_on_c, 2, 64, 64
1, 35904, Note_on_c, 6, 66, 28
1, 35904, Note_on_c, 9, 36, 127
1, 35904, Note_on_c, 9, 38, 127
1, 35904, Note_on_c, 9, 42, 90
1, 35904, Note_on_c, 9, 37, 127
1, 35928, Note_on_c, 6, 66, 0
1, 35928, Note_on_c, 2, 71, 0
1, 35952, Note_on_c, 9, 38, 0
1, 35952, Note_on_c, 4, 73, 0
1, 35952, Note_on_c, 3, 85, 0
1, 35952, Note_on_c, 1, 37, 0
1, 35952, Note_on_c, 2, 68, 0
1, 35952, Note_on_c, 2, 64, 0
1, 35952, Note_on_c, 9, 42, 0
1, 35952, Note_on_c, 9, 36, 0
1, 35952, Note_on_c, 9, 37, 0
1, 35952, Note_on_c, 6, 73, 28
1, 35960, Note_on_c, 5, 69, 127
1, 35968, Note_on_c, 6, 73, 0
1, 35984, Note_on_c, 5, 69, 0
1, 36000, Note_on_c, 1, 40, 127
1, 36000, Note_on_c, 2, 71, 64
1, 36000, Note_on_c, 2, 68, 64
1, 36000, Note_on_c, 2, 64, 64
1, 36000, Note_on_c, 6, 76, 28
1, 36000, Note_on_c, 9, 36, 127
1, 36000, Note_on_c, 9, 42, 90
1, 36008, Note_on_c, 5, 71, 127
1, 36024, Note_on_c, 6, 76, 0
1, 36032, Note_on_c, 2, 71, 0
1, 36040, Note_on_c, 5, 71, 0
1, 36040, Note_on_c, 2, 68, 0
1, 36048, Note_on_c, 1, 40, 0
1, 36048, Note_on_c, 2, 64, 0
1, 36048, Note_on_c, 9, 36, 0
1, 36048, Note_on_c, 9, 42, 0
1, 36048, Note_on_c, 6, 78, 28
1, 36056, Note_on_c, 5, 73, 127
1, 36072, Note_on_c, 6, 78, 0
1, 36096, Note_on_c, 1, 42, 127
1, 36096, Note_on_c, 2, 71, 64
1, 36096, Note_on_c, 2, 66, 64
1, 36096, Note_on_c, 2, 63, 64
1, 36096, Note_on_c, 9, 36, 127
1, 36096, Note_on_c, 9, 42, 90
1, 36128, Note_on_c, 2, 66, 0
1, 36128, Note_on_c, 2, 71, 0
1, 36136, Note_on_c, 5, 73, 0
1, 36144, Note_on_c, 2, 63, 0
1, 36144, Note_on_c, 9, 42, 0
1, 36144, Note_on_c, 9, 36, 0
1, 36192, Note_on_c, 1, 42, 0
1, 36192, Note_on_c, 2, 71, 64
1, 36192, Note_on_c, 2, 66, 64
1, 36192, Note_on_c, 2, 63, 64
1, 36192, Note_on_c, 9, 42, 90
1, 36208, Note_on_c, 5, 73, 127
1, 36224, Note_on_c, 2, 66, 0
1, 36232, Note_on_c, 2, 71, 0
1, 36240, Note_on_c, 2, 63, 0
1, 36240, Note_on_c, 9, 42, 0
1, 36288, Note_on_c, 1, 40, 127
1, 36288, Note_on_c, 2, 71, 64
1, 36288, Note_on_c, 2, 66, 64
1, 36288, Note_on_c, 2, 63, 64
1, 36288, Note_on_c, 9, 36, 127
1, 36288, Note_on_c, 9, 38, 127
1, 36288, Note_on_c, 9, 42, 90
1, 36288, Note_on_c, 9, 37, 127
1, 36304, Note_on_c, 5, 73, 0
1, 36320, Note_on_c, 2, 66, 0
1, 36328, Note_on_c, 2, 71, 0
1, 36336, Note_on_c, 9, 38, 0
1, 36336, Note_on_c, 2, 63, 0
1, 36336, Note_on_c, 9, 42, 0
1, 36336, Note_on_c, 9, 37, 0
1, 36336, Note_on_c, 9, 36, 0
1, 36352, Note_on_c, 5, 71, 127
1, 36384, Note_on_c, 1, 40, 0
1, 36384, Note_on_c, 1, 42, 127
1, 36384, Note_on_c, 2, 71, 64
1, 36384, Note_on_c, 2, 66, 64
1, 36384, Note_on_c, 2, 63, 64
1, 36384, Note_on_c, 6, 73, 28
1, 36384, Note_on_c, 9, 36, 127
1, 36384, Note_on_c, 9, 42, 90
1, 36408, Note_on_c, 6, 73, 0
1, 36424, Note_on_c, 2, 66, 0
1, 36424, Note_on_c, 2, 63, 0
1, 36432, Note_on_c, 9, 36, 0
1, 36432, Note_on_c, 9, 42, 0
1, 36432, Note_on_c, 2, 71, 0
1, 36432, Note_on_c, 1, 42, 0
1, 36432, Note_on_c, 6, 76, 28
1, 36448, Note_on_c, 5, 71, 0
1, 36464, Note_on_c, 6, 76, 0
1, 36480, Note_on_c, 1, 40, 127
1, 36480, Note_on_c, 2, 71, 64
1, 36480, Note_on_c, 2, 66, 64
1, 36480, Note_on_c, 2, 63, 64
1, 36480, Note_on_c, 9, 36, 127
1, 36480, Note_on_c, 9, 42, 90
1, 36496, Note_on_c, 5, 71, 127
1, 36520, Note_on_c, 2, 66, 0
1, 36520, Note_on_c, 2, 71, 0
1, 36528, Note_on_c, 9, 36, 0
1, 36528, Note_on_c, 2, 63, 0
1, 36528, Note_on_c, 9, 42, 0
1, 36528, Note_on_c, 6, 78, 28
1, 36568, Note_on_c, 6, 78, 0
1, 36576, Note_on_c, 1, 40, 0
1, 36576, Note_on_c, 2, 71, 64
1, 36576, Note_on_c, 2, 66, 64
1, 36576, Note_on_c, 2, 63, 64
1, 36576, Note_on_c, 9, 36, 127
1, 36576, Note_on_c, 9, 44, 90
1, 36616, Note_on_c, 2, 66, 0
1, 36616, Note_on_c, 2, 71, 0
1, 36624, Note_on_c, 9, 36, 0
1, 36624, Note_on_c, 2, 63, 0
1, 36624, Note_on_c, 9, 44, 0
1, 36624, Note_on_c, 6, 76, 28
1, 36624, Note_on_c, 9, 36, 127
1, 36624, Note_on_c, 9, 38, 127
1, 36624, Note_on_c, 9, 45, 127
1, 36656, Note_on_c, 6, 76, 0
1, 36664, Note_on_c, 5, 71, 0
1, 36672, Note_on_c, 9, 36, 0
1, 36672, Note_on_c, 9, 38, 0
1, 36672, Note_on_c, 9, 45, 0
1, 36672, Note_on_c, 1, 40, 127
1, 36672, Note_on_c, 2, 71, 64
1, 36672, Note_on_c, 2, 66, 64
1, 36672, Note_on_c, 2, 63, 64
1, 36672, Note_on_c, 6, 78, 28
1, 36672, Note_on_c, 9, 38, 127
1, 36672, Note_on_c, 9, 42, 90
1, 36672, Note_on_c, 9, 41, 127
1, 36672, Note_on_c, 9, 37, 127
1, 36680, Note_on_c, 5, 69, 127
1, 36696, Note_on_c, 6, 78, 0
1, 36712, Note_on_c, 2, 71, 0
1, 36712, Note_on_c, 2, 66, 0
1, 36720, Note_on_c, 9, 42, 0
1, 36720, Note_on_c, 9, 37, 0
1, 36720, Note_on_c, 9, 38, 0
1, 36720, Note_on_c, 1, 40, 0
1, 36720, Note_on_c, 5, 69, 0
1, 36720, Note_on_c, 9, 41, 0
1, 36720, Note_on_c, 2, 63, 0
1, 36720, Note_on_c, 1, 41, 127
1, 36720, Note_on_c, 5, 66, 127
1, 36720, Note_on_c, 6, 76, 28
1, 36720, Note_on_c, 9, 36, 127
1, 36736, Note_on_c, 6, 76, 0
1, 36768, Note_on_c, 1, 41, 0
1, 36768, Note_on_c, 9, 36, 0
1, 36768, Note_on_c, 1, 42, 127
1, 36768, Note_on_c, 2, 71, 64
1, 36768, Note_on_c, 2, 66, 64
1, 36768, Note_on_c, 2, 63, 64
1, 36768, Note_on_c, 6, 73, 28
1, 36768, Note_on_c, 9, 36, 127
1, 36768, Note_on_c, 9, 38, 127
1, 36768, Note_on_c, 9, 46, 90
1, 36768, Note_on_c, 9, 49, 127
1, 36792, Note_on_c, 6, 73, 0
1, 36808, Note_on_c, 2, 71, 0
1, 36816, Note_on_c, 2, 66, 0
1, 36816, Note_on_c, 9, 36, 0
1, 36816, Note_on_c, 9, 46, 0
1, 36816, Note_on_c, 9, 38, 0
1, 36816, Note_on_c, 1, 42, 0
1, 36816, Note_on_c, 9, 49, 0
1, 36816, Note_on_c, 2, 63, 0
1, 36816, Note_on_c, 1, 37, 127
1, 36816, Note_on_c, 6, 66, 28
1, 36824, Note_on_c, 5, 66, 0
1, 36832, Note_on_c, 6, 66, 0
1, 36864, Note_on_c, 1, 37, 0
1, 36864, Note_on_c, 6, 73, 0
1, 36864, Note_on_c, 1, 33, 127
1, 36864, Note_on_c, 2, 67, 64
1, 36864, Note_on_c, 2, 64, 64
1, 36864, Note_on_c, 2, 57, 64
1, 36864, Note_on_c, 2, 61, 64
1, 36864, Note_on_c, 9, 36, 127
1, 36864, Note_on_c, 9, 42, 90
1, 36864, Note_on_c, 9, 49, 127
1, 36864, Note_on_c, 9, 48, 127
1, 36904, Note_on_c, 2, 61, 0
1, 36904, Note_on_c, 2, 57, 0
1, 36904, Note_on_c, 2, 64, 0
1, 36904, Note_on_c, 2, 67, 0
1, 36912, Note_on_c, 9, 48, 0
1, 36912, Note_on_c, 9, 49, 0
1, 36912, Note_on_c, 9, 42, 0
1, 36912, Note_on_c, 9, 42, 90
1, 36960, Note_on_c, 9, 42, 0
1, 36960, Note_on_c, 2, 67, 64
1, 36960, Note_on_c, 2, 64, 64
1, 36960, Note_on_c, 2, 57, 64
1, 36960, Note_on_c, 2, 61, 64
1, 36960, Note_on_c, 9, 42, 90
1, 37000, Note_on_c, 2, 61, 0
1, 37000, Note_on_c, 2, 64, 0
1, 37000, Note_on_c, 2, 67, 0
1, 37000, Note_on_c, 2, 57, 0
1, 37008, Note_on_c, 9, 36, 0
1, 37008, Note_on_c, 9, 42, 0
1, 37008, Note_on_c, 1, 45, 127
1, 37024, Note_on_c, 1, 33, 0
1, 37056, Note_on_c, 2, 67, 64
1, 37056, Note_on_c, 2, 64, 64
1, 37056, Note_on_c, 2, 57, 64
1, 37056, Note_on_c, 2, 61, 64
1, 37056, Note_on_c, 3, 79, 127
1, 37056, Note_on_c, 9, 36, 127
1, 37056, Note_on_c, 9, 38, 127
1, 37056, Note_on_c, 9, 42, 90
1, 37056, Note_on_c, 9, 42, 90
1, 37056, Note_on_c, 9, 37, 127
1, 37072, Note_on_c, 1, 45, 0
1, 37096, Note_on_c, 2, 61, 0
1, 37096, Note_on_c, 2, 67, 0
1, 37096, Note_on_c, 2, 57, 0
1, 37096, Note_on_c, 2, 64, 0
1, 37104, Note_on_c, 9, 42, 0
1, 37104, Note_on_c, 9, 37, 0
1, 37104, Note_on_c, 9, 42, 0
1, 37104, Note_on_c, 9, 38, 0
1, 37104, Note_on_c, 1, 33, 127
1, 37104, Note_on_c, 2, 67, 64
1, 37104, Note_on_c, 2, 64, 64
1, 37104, Note_on_c, 2, 57, 64
1, 37104, Note_on_c, 2, 61, 64
1, 37144, Note_on_c, 2, 61, 0
1, 37144, Note_on_c, 2, 64, 0
1, 37144, Note_on_c, 2, 67, 0
1, 37144, Note_on_c, 2, 57, 0
1, 37152, Note_on_c, 9, 36, 0
1, 37152, Note_on_c, 1, 34, 127
1, 37152, Note_on_c, 9, 42, 90
1, 37168, Note_on_c, 1, 33, 0
1, 37184, Note_on_c, 1, 34, 0
1, 37200, Note_on_c, 9, 42, 0
1, 37200, Note_on_c, 1, 35, 127
1, 37200, Note_on_c, 2, 67, 64
1, 37200, Note_on_c, 2, 64, 64
1, 37200, Note_on_c, 2, 57, 64
1, 37200, Note_on_c, 2, 61, 64
1, 37200, Note_on_c, 3, 70, 67
1, 37200, Note_on_c, 9, 36, 127
1, 37232, Note_on_c, 1, 35, 0
1, 37240, Note_on_c, 2, 57, 0
1, 37240, Note_on_c, 2, 64, 0
1, 37240, Note_on_c, 2, 67, 0
1, 37240, Note_on_c, 2, 61, 0
1, 37248, Note_on_c, 9, 36, 0
1, 37248, Note_on_c, 1, 36, 127
1, 37248, Note_on_c, 9, 36, 127
1, 37248, Note_on_c, 9, 42, 90
1, 37264, Note_on_c, 3, 70, 0
1, 37280, Note_on_c, 1, 36, 0
1, 37296, Note_on_c, 9, 42, 0
1, 37296, Note_on_c, 9, 36, 0
1, 37296, Note_on_c, 1, 37, 127
1, 37296, Note_on_c, 2, 67, 64
1, 37296, Note_on_c, 2, 64, 64
1, 37296, Note_on_c, 2, 57, 64
1, 37296, Note_on_c, 2, 61, 64
1, 37296, Note_on_c, 3, 70, 67
1, 37320, Note_on_c, 1, 37, 0
1, 37336, Note_on_c, 2, 57, 0
1, 37336, Note_on_c, 2, 67, 0
1, 37336, Note_on_c, 2, 64, 0
1, 37336, Note_on_c, 2, 61, 0
1, 37344, Note_on_c, 1, 38, 127
1, 37344, Note_on_c, 9, 36, 127
1, 37344, Note_on_c, 9, 42, 90
1, 37368, Note_on_c, 3, 70, 0
1, 37392, Note_on_c, 9, 36, 0
1, 37392, Note_on_c, 9, 42, 0
1, 37392, Note_on_c, 2, 67, 64
1, 37392, Note_on_c, 2, 64, 64
1, 37392, Note_on_c, 2, 57, 64
1, 37392, Note_on_c, 2, 61, 64
1, 37392, Note_on_c, 3, 70, 67
1, 37408, Note_on_c, 1, 38, 0
1, 37432, Note_on_c, 2, 57, 0
1, 37432, Note_on_c, 2, 67, 0
1, 37432, Note_on_c, 2, 64, 0
1, 37432, Note_on_c, 2, 61, 0
1, 37440, Note_on_c, 2, 66, 64
1, 37440, Note_on_c, 2, 62, 64
1, 37440, Note_on_c, 2, 57, 64
1, 37440, Note_on_c, 9, 36, 127
1, 37440, Note_on_c, 9, 38, 127
1, 37440, Note_on_c, 9, 42, 90
1, 37440, Note_on_c, 9, 37, 127
1, 37464, Note_on_c, 3, 70, 0
1, 37480, Note_on_c, 2, 57, 0
1, 37480, Note_on_c, 2, 62, 0
1, 37480, Note_on_c, 2, 66, 0
1, 37488, Note_on_c, 9, 42, 0
1, 37488, Note_on_c, 9, 38, 0
1, 37488, Note_on_c, 1, 35, 127
1, 37488, Note_on_c, 3, 70, 67
1, 37520, Note_on_c, 1, 35, 0
1, 37536, Note_on_c, 9, 36, 0
1, 37536, Note_on_c, 9, 37, 0
1, 37536, Note_on_c, 1, 36, 127
1, 37536, Note_on_c, 2, 66, 64
1, 37536, Note_on_c, 2, 62, 64
1, 37536, Note_on_c, 2, 57, 64
1, 37536, Note_on_c, 9, 42, 90
1, 37560, Note_on_c, 3, 79, 0
1, 37560, Note_on_c, 3, 70, 0
1, 37568, Note_on_c, 1, 36, 0
1, 37576, Note_on_c, 2, 62, 0
1, 37576, Note_on_c, 2, 66, 0
1, 37576, Note_on_c, 2, 57, 0
1, 37584, Note_on_c, 9, 42, 0
1, 37584, Note_on_c, 1, 37, 127
1, 37584, Note_on_c, 3, 79, 127
1, 37584, Note_on_c, 3, 70, 67
1, 37608, Note_on_c, 1, 37, 0
1, 37632, Note_on_c, 1, 38, 127
1, 37632, Note_on_c, 2, 59, 64
1, 37632, Note_on_c, 2, 62, 64
1, 37632, Note_on_c, 2, 56, 64
1, 37632, Note_on_c, 2, 64, 64
1, 37632, Note_on_c, 9, 36, 127
1, 37632, Note_on_c, 9, 42, 90
1, 37648, Note_on_c, 3, 79, 0
1, 37656, Note_on_c, 3, 70, 0
1, 37656, Note_on_c, 1, 38, 0
1, 37672, Note_on_c, 2, 64, 0
1, 37672, Note_on_c, 2, 59, 0
1, 37672, Note_on_c, 2, 62, 0
1, 37672, Note_on_c, 2, 56, 0
1, 37680, Note_on_c, 9, 42, 0
1, 37680, Note_on_c, 1, 39, 127
1, 37680, Note_on_c, 3, 78, 127
1, 37680, Note_on_c, 3, 69, 67
1, 37704, Note_on_c, 3, 69, 0
1, 37712, Note_on_c, 1, 39, 0
1, 37728, Note_on_c, 3, 78, 0
1, 37728, Note_on_c, 9, 36, 0
1, 37728, Note_on_c, 1, 40, 127
1, 37728, Note_on_c, 2, 59, 64
1, 37728, Note_on_c, 2, 62, 64
1, 37728, Note_on_c, 2, 56, 64
1, 37728, Note_on_c, 2, 64, 64
1, 37728, Note_on_c, 3, 76, 127
1, 37728, Note_on_c, 3, 68, 67
1, 37728, Note_on_c, 9, 42, 90
1, 37768, Note_on_c, 3, 76, 0
1, 37768, Note_on_c, 2, 56, 0
1, 37768, Note_on_c, 2, 62, 0
1, 37768, Note_on_c, 2, 59, 0
1, 37768, Note_on_c, 2, 64, 0
1, 37776, Note_on_c, 9, 42, 0
1, 37776, Note_on_c, 3, 68, 0
1, 37776, Note_on_c, 9, 42, 90
1, 37816, Note_on_c, 1, 40, 0
1, 37824, Note_on_c, 9, 42, 0
1, 37824, Note_on_c, 2, 59, 64
1, 37824, Note_on_c, 2, 62, 64
1, 37824, Note_on_c, 2, 56, 64
1, 37824, Note_on_c, 2, 64, 64
1, 37824, Note_on_c, 9, 36, 127
1, 37824, Note_on_c, 9, 38, 127
1, 37824, Note_on_c, 9, 42, 90
1, 37824, Note_on_c, 9, 37, 127
1, 37864, Note_on_c, 2, 64, 0
1, 37864, Note_on_c, 2, 56, 0
1, 37864, Note_on_c, 2, 59, 0
1, 37864, Note_on_c, 2, 62, 0
1, 37872, Note_on_c, 9, 42, 0
1, 37872, Note_on_c, 9, 37, 0
1, 37872, Note_on_c, 9, 38, 0
1, 37872, Note_on_c, 2, 59, 64
1, 37872, Note_on_c, 2, 62, 64
1, 37872, Note_on_c, 2, 56, 64
1, 37872, Note_on_c, 2, 64, 64
1, 37872, Note_on_c, 4, 59, 127
1, 37904, Note_on_c, 4, 59, 0
1, 37912, Note_on_c, 2, 59, 0
1, 37912, Note_on_c, 2, 62, 0
1, 37912, Note_on_c, 2, 56, 0
1, 37912, Note_on_c, 2, 64, 0
1, 37920, Note_on_c, 9, 36, 0
1, 37920, Note_on_c, 1, 38, 127
1, 37920, Note_on_c, 4, 61, 127
1, 37920, Note_on_c, 9, 42, 90
1, 37944, Note_on_c, 4, 61, 0
1, 37968, Note_on_c, 9, 42, 0
1, 37968, Note_on_c, 1, 38, 0
1, 37968, Note_on_c, 1, 39, 127
1, 37968, Note_on_c, 2, 59, 64
1, 37968, Note_on_c, 2, 62, 64
1, 37968, Note_on_c, 2, 56, 64
1, 37968, Note_on_c, 2, 64, 64
1, 37968, Note_on_c, 4, 64, 127
1, 37968, Note_on_c, 9, 36, 127
1, 37968, Note_on_c, 9, 42, 90
1, 37992, Note_on_c, 1, 39, 0
1, 38008, Note_on_c, 2, 64, 0
1, 38008, Note_on_c, 2, 59, 0
1, 38008, Note_on_c, 2, 56, 0
1, 38008, Note_on_c, 2, 62, 0
1, 38016, Note_on_c, 9, 42, 0
1, 38016, Note_on_c, 9, 36, 0
1, 38016, Note_on_c, 1, 40, 127
1, 38016, Note_on_c, 9, 36, 127
1, 38016, Note_on_c, 9, 42, 90
1, 38048, Note_on_c, 1, 40, 0
1, 38064, Note_on_c, 4, 64, 0
1, 38064, Note_on_c, 9, 42, 0
1, 38064, Note_on_c, 1, 28, 127
1, 38064, Note_on_c, 2, 59, 64
1, 38064, Note_on_c, 2, 62, 64
1, 38064, Note_on_c, 2, 56, 64
1, 38064, Note_on_c, 2, 64, 64
1, 38064, Note_on_c, 4, 59, 127
1, 38064, Note_on_c, 9, 42, 90
1, 38064, Note_on_c, 9, 48, 127
1, 38096, Note_on_c, 4, 59, 0
1, 38104, Note_on_c, 2, 62, 0
1, 38104, Note_on_c, 2, 59, 0
1, 38104, Note_on_c, 2, 56, 0
1, 38104, Note_on_c, 2, 64, 0
1, 38112, Note_on_c, 9, 42, 0
1, 38112, Note_on_c, 9, 48, 0
1, 38112, Note_on_c, 9, 36, 0
1, 38112, Note_on_c, 4, 61, 127
1, 38112, Note_on_c, 9, 42, 90
1, 38120, Note_on_c, 1, 28, 0
1, 38144, Note_on_c, 4, 61, 0
1, 38160, Note_on_c, 9, 42, 0
1, 38160, Note_on_c, 1, 28, 127
1, 38160, Note_on_c, 2, 59, 64
1, 38160, Note_on_c, 2, 62, 64
1, 38160, Note_on_c, 2, 56, 64
1, 38160, Note_on_c, 2, 64, 64
1, 38160, Note_on_c, 4, 66, 127
1, 38160, Note_on_c, 9, 36, 127
1, 38160, Note_on_c, 9, 38, 127
1, 38160, Note_on_c, 9, 42, 90
1, 38160, Note_on_c, 9, 45, 127
1, 38184, Note_on_c, 1, 28, 0
1, 38200, Note_on_c, 2, 64, 0
1, 38200, Note_on_c, 2, 59, 0
1, 38200, Note_on_c, 2, 56, 0
1, 38200, Note_on_c, 2, 62, 0
1, 38208, Note_on_c, 9, 38, 0
1, 38208, Note_on_c, 9, 42, 0
1, 38208, Note_on_c, 9, 45, 0
1, 38208, Note_on_c, 9, 36, 0
1, 38208, Note_on_c, 1, 28, 127
1, 38208, Note_on_c, 2, 59, 64
1, 38208, Note_on_c, 2, 62, 64
1, 38208, Note_on_c, 2, 64, 64
1, 38208, Note_on_c, 2, 56, 64
1, 38208, Note_on_c, 9, 36, 127
1, 38208, Note_on_c, 9, 38, 127
1, 38208, Note_on_c, 9, 42, 90
1, 38208, Note_on_c, 9, 41, 127
1, 38208, Note_on_c, 9, 37, 127
1, 38224, Note_on_c, 4, 66, 0
1, 38248, Note_on_c, 2, 64, 0
1, 38248, Note_on_c, 2, 62, 0
1, 38248, Note_on_c, 2, 56, 0
1, 38248, Note_on_c, 2, 59, 0
1, 38256, Note_on_c, 9, 36, 0
1, 38256, Note_on_c, 9, 41, 0
1, 38256, Note_on_c, 9, 37, 0
1, 38256, Note_on_c, 9, 42, 0
1, 38256, Note_on_c, 9, 38, 0
1, 38256, Note_on_c, 3, 76, 127
1, 38256, Note_on_c, 4, 61, 127
1, 38280, Note_on_c, 4, 61, 0
1, 38280, Note_on_c, 3, 76, 0
1, 38288, Note_on_c, 1, 28, 0
1, 38304, Note_on_c, 1, 28, 127
1, 38304, Note_on_c, 3, 76, 127
1, 38304, Note_on_c, 4, 64, 127
1, 38304, Note_on_c, 9, 36, 127
1, 38304, Note_on_c, 9, 38, 127
1, 38304, Note_on_c, 9, 44, 90
1, 38304, Note_on_c, 9, 41, 127
1, 38328, Note_on_c, 3, 76, 0
1, 38336, Note_on_c, 4, 64, 0
1, 38352, Note_on_c, 9, 44, 0
1, 38352, Note_on_c, 9, 36, 0
1, 38352, Note_on_c, 9, 38, 0
1, 38352, Note_on_c, 9, 41, 0
1, 38352, Note_on_c, 3, 76, 127
1, 38352, Note_on_c, 4, 64, 127
1, 38368, Note_on_c, 1, 28, 0
1, 38376, Note_on_c, 3, 76, 0
1, 38384, Note_on_c, 4, 64, 0
1, 38400, Note_on_c, 1, 33, 127
1, 38400, Note_on_c, 2, 67, 64
1, 38400, Note_on_c, 2, 64, 64
1, 38400, Note_on_c, 2, 57, 64
1, 38400, Note_on_c, 2, 61, 64
1, 38400, Note_on_c, 3, 81, 127
1, 38400, Note_on_c, 3, 76, 67
1, 38400, Note_on_c, 9, 36, 127
1, 38400, Note_on_c, 9, 42, 90
1, 38432, Note_on_c, 3, 81, 0
1, 38440, Note_on_c, 2, 57, 0
1, 38440, Note_on_c, 2, 64, 0
1, 38440, Note_on_c, 2, 61, 0
1, 38440, Note_on_c, 2, 67, 0
1, 38448, Note_on_c, 9, 42, 0
1, 38448, Note_on_c, 3, 76, 0
1, 38496, Note_on_c, 2, 67, 64
1, 38496, Note_on_c, 2, 64, 64
1, 38496, Note_on_c, 2, 57, 64
1, 38496, Note_on_c, 2, 61, 64
1, 38496, Note_on_c, 3, 81, 127
1, 38496, Note_on_c, 3, 76, 67
1, 38496, Note_on_c, 9, 42, 90
1, 38536, Note_on_c, 2, 61, 0
1, 38536, Note_on_c, 2, 64, 0
1, 38536, Note_on_c, 2, 67, 0
1, 38536, Note_on_c, 2, 57, 0
1, 38544, Note_on_c, 9, 42, 0
1, 38544, Note_on_c, 3, 76, 0
1, 38544, Note_on_c, 9, 36, 0
1, 38544, Note_on_c, 1, 45, 127
1, 38544, Note_on_c, 9, 42, 90
1, 38552, Note_on_c, 1, 33, 0
1, 38552, Note_on_c, 3, 81, 0
1, 38592, Note_on_c, 1, 45, 0
1, 38592, Note_on_c, 9, 42, 0
1, 38592, Note_on_c, 2, 67, 64
1, 38592, Note_on_c, 2, 64, 64
1, 38592, Note_on_c, 2, 57, 64
1, 38592, Note_on_c, 2, 61, 64
1, 38592, Note_on_c, 3, 79, 127
1, 38592, Note_on_c, 3, 72, 67
1, 38592, Note_on_c, 9, 36, 127
1, 38592, Note_on_c, 9, 38, 127
1, 38592, Note_on_c, 9, 42, 90
1, 38592, Note_on_c, 9, 37, 127
1, 38632, Note_on_c, 2, 61, 0
1, 38632, Note_on_c, 2, 57, 0
1, 38632, Note_on_c, 2, 67, 0
1, 38632, Note_on_c, 2, 64, 0
1, 38640, Note_on_c, 9, 42, 0
1, 38640, Note_on_c, 9, 38, 0
1, 38640, Note_on_c, 9, 37, 0
1, 38640, Note_on_c, 1, 33, 127
1, 38640, Note_on_c, 2, 67, 64
1, 38640, Note_on_c, 2, 64, 64
1, 38640, Note_on_c, 2, 57, 64
1, 38640, Note_on_c, 2, 61, 64
1, 38656, Note_on_c, 3, 72, 0
1, 38680, Note_on_c, 2, 61, 0
1, 38680, Note_on_c, 2, 64, 0
1, 38680, Note_on_c, 2, 67, 0
1, 38680, Note_on_c, 3, 79, 0
1, 38680, Note_on_c, 2, 57, 0
1, 38688, Note_on_c, 9, 36, 0
1, 38688, Note_on_c, 1, 34, 127
1, 38688, Note_on_c, 3, 78, 127
1, 38688, Note_on_c, 3, 72, 67
1, 38688, Note_on_c, 9, 42, 90
1, 38704, Note_on_c, 3, 78, 0
1, 38704, Note_on_c, 1, 33, 0
1, 38712, Note_on_c, 3, 72, 0
1, 38720, Note_on_c, 1, 34, 0
1, 38736, Note_on_c, 9, 42, 0
1, 38736, Note_on_c, 1, 35, 127
1, 38736, Note_on_c, 2, 67, 64
1, 38736, Note_on_c, 2, 64, 64
1, 38736, Note_on_c, 2, 57, 64
1, 38736, Note_on_c, 2, 61, 64
1, 38736, Note_on_c, 3, 79, 127
1, 38736, Note_on_c, 3, 72, 67
1, 38768, Note_on_c, 1, 35, 0
1, 38776, Note_on_c, 2, 61, 0
1, 38776, Note_on_c, 2, 67, 0
1, 38776, Note_on_c, 2, 57, 0
1, 38776, Note_on_c, 2, 64, 0
1, 38784, Note_on_c, 1, 36, 127
1, 38784, Note_on_c, 9, 36, 127
1, 38784, Note_on_c, 9, 42, 90
1, 38800, Note_on_c, 3, 72, 0
1, 38808, Note_on_c, 3, 79, 0
1, 38816, Note_on_c, 1, 36, 0
1, 38832, Note_on_c, 9, 42, 0
1, 38832, Note_on_c, 1, 37, 127
1, 38832, Note_on_c, 2, 67, 64
1, 38832, Note_on_c, 2, 64, 64
1, 38832, Note_on_c, 2, 57, 64
1, 38832, Note_on_c, 2, 61, 64
1, 38832, Note_on_c, 3, 78, 127
1, 38832, Note_on_c, 3, 71, 67
1, 38864, Note_on_c, 1, 37, 0
1, 38872, Note_on_c, 2, 57, 0
1, 38872, Note_on_c, 2, 64, 0
1, 38872, Note_on_c, 2, 67, 0
1, 38872, Note_on_c, 2, 61, 0
1, 38880, Note_on_c, 9, 36, 0
1, 38880, Note_on_c, 1, 38, 127
1, 38880, Note_on_c, 9, 43, 90
1, 38888, Note_on_c, 3, 71, 0
1, 38896, Note_on_c, 3, 78, 0
1, 38928, Note_on_c, 9, 43, 0
1, 38928, Note_on_c, 2, 67, 64
1, 38928, Note_on_c, 2, 64, 64
1, 38928, Note_on_c, 2, 57, 64
1, 38928, Note_on_c, 2, 61, 64
1, 38928, Note_on_c, 3, 76, 127
1, 38928, Note_on_c, 3, 69, 67
1, 38968, Note_on_c, 2, 61, 0
1, 38968, Note_on_c, 2, 57, 0
1, 38968, Note_on_c, 2, 64, 0
1, 38968, Note_on_c, 2, 67, 0
1, 38976, Note_on_c, 1, 38, 0
1, 38976, Note_on_c, 2, 66, 64
1, 38976, Note_on_c, 2, 62, 64
1, 38976, Note_on_c, 2, 57, 64
1, 38976, Note_on_c, 9, 36, 127
1, 38976, Note_on_c, 9, 38, 127
1, 38976, Note_on_c, 9, 42, 90
1, 38976, Note_on_c, 9, 37, 127
1, 38992, Note_on_c, 3, 69, 0
1, 38992, Note_on_c, 3, 76, 0
1, 39016, Note_on_c, 2, 62, 0
1, 39016, Note_on_c, 2, 57, 0
1, 39016, Note_on_c, 2, 66, 0
1, 39024, Note_on_c, 9, 42, 0
1, 39024, Note_on_c, 9, 37, 0
1, 39024, Note_on_c, 9, 36, 0
1, 39024, Note_on_c, 9, 38, 0
1, 39024, Note_on_c, 1, 35, 127
1, 39024, Note_on_c, 3, 74, 127
1, 39024, Note_on_c, 3, 68, 67
1, 39056, Note_on_c, 1, 35, 0
1, 39072, Note_on_c, 3, 74, 0
1, 39072, Note_on_c, 1, 36, 127
1, 39072, Note_on_c, 2, 66, 64
1, 39072, Note_on_c, 2, 62, 64
1, 39072, Note_on_c, 2, 57, 64
1, 39072, Note_on_c, 9, 36, 127
1, 39072, Note_on_c, 9, 42, 90
1, 39088, Note_on_c, 3, 68, 0
1, 39096, Note_on_c, 1, 36, 0
1, 39112, Note_on_c, 2, 62, 0
1, 39112, Note_on_c, 2, 57, 0
1, 39112, Note_on_c, 2, 66, 0
1, 39120, Note_on_c, 9, 42, 0
1, 39120, Note_on_c, 9, 36, 0
1, 39120, Note_on_c, 1, 37, 127
1, 39120, Note_on_c, 3, 79, 127
1, 39120, Note_on_c, 3, 71, 67
1, 39120, Note_on_c, 9, 42, 90
1, 39144, Note_on_c, 1, 37, 0
1, 39168, Note_on_c, 9, 42, 0
1, 39168, Note_on_c, 1, 38, 127
1, 39168, Note_on_c, 2, 59, 64
1, 39168, Note_on_c, 2, 62, 64
1, 39168, Note_on_c, 2, 56, 64
1, 39168, Note_on_c, 2, 64, 64
1, 39168, Note_on_c, 9, 36, 127
1, 39168, Note_on_c, 9, 42, 90
1, 39184, Note_on_c, 3, 71, 0
1, 39192, Note_on_c, 1, 38, 0
1, 39208, Note_on_c, 2, 62, 0
1, 39208, Note_on_c, 2, 64, 0
1, 39208, Note_on_c, 3, 79, 0
1, 39208, Note_on_c, 2, 59, 0
1, 39208, Note_on_c, 2, 56, 0
1, 39216, Note_on_c, 9, 42, 0
1, 39216, Note_on_c, 1, 39, 127
1, 39216, Note_on_c, 3, 78, 127
1, 39216, Note_on_c, 3, 69, 67
1, 39232, Note_on_c, 3, 78, 0
1, 39240, Note_on_c, 3, 69, 0
1, 39248, Note_on_c, 1, 39, 0
1, 39264, Note_on_c, 9, 36, 0
1, 39264, Note_on_c, 1, 40, 127
1, 39264, Note_on_c, 2, 59, 64
1, 39264, Note_on_c, 2, 62, 64
1, 39264, Note_on_c, 2, 56, 64
1, 39264, Note_on_c, 2, 64, 64
1, 39264, Note_on_c, 3, 76, 127
1, 39264, Note_on_c, 3, 68, 67
1, 39264, Note_on_c, 9, 42, 90
1, 39280, Note_on_c, 3, 76, 0
1, 39304, Note_on_c, 2, 56, 0
1, 39304, Note_on_c, 2, 62, 0
1, 39304, Note_on_c, 2, 59, 0
1, 39304, Note_on_c, 2, 64, 0
1, 39312, Note_on_c, 9, 42, 0
1, 39328, Note_on_c, 3, 68, 0
1, 39352, Note_on_c, 1, 40, 0
1, 39360, Note_on_c, 2, 59, 64
1, 39360, Note_on_c, 2, 62, 64
1, 39360, Note_on_c, 2, 56, 64
1, 39360, Note_on_c, 2, 64, 64
1, 39360, Note_on_c, 9, 36, 127
1, 39360, Note_on_c, 9, 38, 127
1, 39360, Note_on_c, 9, 42, 90
1, 39360, Note_on_c, 9, 37, 127
1, 39400, Note_on_c, 2, 64, 0
1, 39400, Note_on_c, 2, 56, 0
1, 39400, Note_on_c, 2, 59, 0
1, 39400, Note_on_c, 2, 62, 0
1, 39408, Note_on_c, 9, 42, 0
1, 39408, Note_on_c, 9, 37, 0
1, 39408, Note_on_c, 9, 38, 0
1, 39408, Note_on_c, 2, 59, 64
1, 39408, Note_on_c, 2, 62, 64
1, 39408, Note_on_c, 2, 56, 64
1, 39408, Note_on_c, 2, 64, 64
1, 39408, Note_on_c, 4, 59, 127
1, 39440, Note_on_c, 4, 59, 0
1, 39448, Note_on_c, 2, 59, 0
1, 39448, Note_on_c, 2, 62, 0
1, 39448, Note_on_c, 2, 56, 0
1, 39448, Note_on_c, 2, 64, 0
1, 39456, Note_on_c, 9, 36, 0
1, 39456, Note_on_c, 1, 38, 127
1, 39456, Note_on_c, 4, 61, 127
1, 39456, Note_on_c, 9, 42, 90
1, 39496, Note_on_c, 4, 61, 0
1, 39496, Note_on_c, 1, 38, 0
1, 39504, Note_on_c, 9, 42, 0
1, 39504, Note_on_c, 1, 39, 127
1, 39504, Note_on_c, 2, 59, 64
1, 39504, Note_on_c, 2, 62, 64
1, 39504, Note_on_c, 2, 56, 64
1, 39504, Note_on_c, 2, 64, 64
1, 39504, Note_on_c, 4, 64, 127
1, 39504, Note_on_c, 9, 42, 90
1, 39536, Note_on_c, 1, 39, 0
1, 39544, Note_on_c, 2, 64, 0
1, 39544, Note_on_c, 2, 59, 0
1, 39544, Note_on_c, 2, 56, 0
1, 39544, Note_on_c, 2, 62, 0
1, 39552, Note_on_c, 9, 42, 0
1, 39552, Note_on_c, 1, 40, 127
1, 39552, Note_on_c, 9, 36, 127
1, 39584, Note_on_c, 1, 40, 0
1, 39600, Note_on_c, 1, 28, 127
1, 39600, Note_on_c, 2, 59, 64
1, 39600, Note_on_c, 2, 62, 64
1, 39600, Note_on_c, 2, 56, 64
1, 39600, Note_on_c, 2, 64, 64
1, 39600, Note_on_c, 4, 59, 127
1, 39600, Note_on_c, 9, 42, 90
1, 39608, Note_on_c, 4, 64, 0
1, 39632, Note_on_c, 1, 28, 0
1, 39640, Note_on_c, 4, 59, 0
1, 39640, Note_on_c, 2, 64, 0
1, 39640, Note_on_c, 2, 62, 0
1, 39640, Note_on_c, 2, 59, 0
1, 39640, Note_on_c, 2, 56, 0
1, 39648, Note_on_c, 9, 36, 0
1, 39648, Note_on_c, 9, 42, 0
1, 39648, Note_on_c, 4, 61, 127
1, 39648, Note_on_c, 9, 42, 90
1, 39680, Note_on_c, 4, 61, 0
1, 39696, Note_on_c, 9, 42, 0
1, 39696, Note_on_c, 1, 28, 127
1, 39696, Note_on_c, 2, 59, 64
1, 39696, Note_on_c, 2, 62, 64
1, 39696, Note_on_c, 2, 56, 64
1, 39696, Note_on_c, 2, 64, 64
1, 39696, Note_on_c, 4, 66, 127
1, 39696, Note_on_c, 9, 36, 127
1, 39696, Note_on_c, 9, 38, 127
1, 39696, Note_on_c, 9, 42, 90
1, 39696, Note_on_c, 9, 45, 127
1, 39720, Note_on_c, 1, 28, 0
1, 39736, Note_on_c, 2, 64, 0
1, 39736, Note_on_c, 2, 59, 0
1, 39736, Note_on_c, 2, 56, 0
1, 39736, Note_on_c, 2, 62, 0
1, 39744, Note_on_c, 9, 38, 0
1, 39744, Note_on_c, 9, 42, 0
1, 39744, Note_on_c, 9, 45, 0
1, 39744, Note_on_c, 9, 36, 0
1, 39744, Note_on_c, 1, 28, 127
1, 39744, Note_on_c, 2, 59, 64
1, 39744, Note_on_c, 2, 62, 64
1, 39744, Note_on_c, 2, 64, 64
1, 39744, Note_on_c, 2, 56, 64
1, 39744, Note_on_c, 9, 36, 127
1, 39744, Note_on_c, 9, 38, 127
1, 39744, Note_on_c, 9, 42, 90
1, 39744, Note_on_c, 9, 41, 127
1, 39744, Note_on_c, 9, 37, 127
1, 39768, Note_on_c, 4, 66, 0
1, 39784, Note_on_c, 2, 64, 0
1, 39784, Note_on_c, 2, 62, 0
1, 39784, Note_on_c, 2, 56, 0
1, 39784, Note_on_c, 2, 59, 0
1, 39792, Note_on_c, 9, 36, 0
1, 39792, Note_on_c, 9, 41, 0
1, 39792, Note_on_c, 9, 37, 0
1, 39792, Note_on_c, 9, 42, 0
1, 39792, Note_on_c, 9, 38, 0
1, 39792, Note_on_c, 4, 61, 127
1, 39808, Note_on_c, 4, 61, 0
1, 39816, Note_on_c, 1, 28, 0
1, 39840, Note_on_c, 1, 28, 127
1, 39840, Note_on_c, 3, 76, 127
1, 39840, Note_on_c, 4, 64, 127
1, 39840, Note_on_c, 9, 36, 127
1, 39840, Note_on_c, 9, 38, 127
1, 39840, Note_on_c, 9, 44, 90
1, 39840, Note_on_c, 9, 41, 127
1, 39864, Note_on_c, 4, 64, 0
1, 39864, Note_on_c, 3, 76, 0
1, 39888, Note_on_c, 9, 44, 0
1, 39888, Note_on_c, 9, 36, 0
1, 39888, Note_on_c, 1, 28, 0
1, 39888, Note_on_c, 9, 41, 0
1, 39888, Note_on_c, 9, 38, 0
1, 39888, Note_on_c, 3, 84, 127
1, 39888, Note_on_c, 4, 64, 127
1, 39888, Note_on_c, 3, 76, 67
1, 39920, Note_on_c, 4, 64, 0
1, 39936, Note_on_c, 1, 33, 127
1, 39936, Note_on_c, 2, 67, 64
1, 39936, Note_on_c, 2, 64, 64
1, 39936, Note_on_c, 2, 57, 64
1, 39936, Note_on_c, 2, 61, 64
1, 39936, Note_on_c, 9, 36, 127
1, 39936, Note_on_c, 9, 42, 90
1, 39944, Note_on_c, 3, 76, 0
1, 39952, Note_on_c, 3, 84, 0
1, 39976, Note_on_c, 2, 67, 0
1, 39976, Note_on_c, 2, 57, 0
1, 39976, Note_on_c, 2, 64, 0
1, 39976, Note_on_c, 2, 61, 0
1, 39984, Note_on_c, 9, 42, 0
1, 39984, Note_on_c, 3, 84, 127
1, 39984, Note_on_c, 3, 76, 67
1, 40032, Note_on_c, 9, 36, 0
1, 40032, Note_on_c, 2, 67, 64
1, 40032, Note_on_c, 2, 64, 64
1, 40032, Note_on_c, 2, 57, 64
1, 40032, Note_on_c, 2, 61, 64
1, 40032, Note_on_c, 9, 42, 90
1, 40048, Note_on_c, 3, 76, 0
1, 40056, Note_on_c, 3, 84, 0
1, 40072, Note_on_c, 2, 61, 0
1, 40072, Note_on_c, 2, 64, 0
1, 40072, Note_on_c, 2, 67, 0
1, 40072, Note_on_c, 1, 33, 0
1, 40072, Note_on_c, 2, 57, 0
1, 40080, Note_on_c, 9, 42, 0
1, 40080, Note_on_c, 1, 45, 127
1, 40080, Note_on_c, 3, 83, 127
1, 40080, Note_on_c, 3, 74, 67
1, 40080, Note_on_c, 9, 42, 90
1, 40128, Note_on_c, 9, 42, 0
1, 40128, Note_on_c, 1, 45, 0
1, 40128, Note_on_c, 2, 67, 64
1, 40128, Note_on_c, 2, 64, 64
1, 40128, Note_on_c, 2, 57, 64
1, 40128, Note_on_c, 2, 61, 64
1, 40128, Note_on_c, 9, 36, 127
1, 40128, Note_on_c, 9, 38, 127
1, 40128, Note_on_c, 9, 42, 90
1, 40128, Note_on_c, 9, 37, 127
1, 40136, Note_on_c, 3, 74, 0
1, 40144, Note_on_c, 3, 83, 0
1, 40168, Note_on_c, 2, 64, 0
1, 40168, Note_on_c, 2, 57, 0
1, 40168, Note_on_c, 2, 61, 0
1, 40168, Note_on_c, 2, 67, 0
1, 40176, Note_on_c, 9, 42, 0
1, 40176, Note_on_c, 9, 37, 0
1, 40176, Note_on_c, 9, 38, 0
1, 40176, Note_on_c, 1, 33, 127
1, 40176, Note_on_c, 2, 67, 64
1, 40176, Note_on_c, 2, 64, 64
1, 40176, Note_on_c, 2, 57, 64
1, 40176, Note_on_c, 2, 61, 64
1, 40176, Note_on_c, 3, 81, 127
1, 40176, Note_on_c, 3, 72, 67
1, 40216, Note_on_c, 2, 61, 0
1, 40216, Note_on_c, 2, 64, 0
1, 40216, Note_on_c, 2, 67, 0
1, 40216, Note_on_c, 2, 57, 0
1, 40224, Note_on_c, 9, 36, 0
1, 40224, Note_on_c, 1, 34, 127
1, 40224, Note_on_c, 9, 42, 90
1, 40232, Note_on_c, 1, 33, 0
1, 40248, Note_on_c, 1, 34, 0
1, 40248, Note_on_c, 3, 81, 0
1, 40264, Note_on_c, 3, 72, 0
1, 40272, Note_on_c, 9, 42, 0
1, 40272, Note_on_c, 1, 35, 127
1, 40272, Note_on_c, 2, 67, 64
1, 40272, Note_on_c, 2, 64, 64
1, 40272, Note_on_c, 2, 57, 64
1, 40272, Note_on_c, 2, 61, 64
1, 40272, Note_on_c, 3, 81, 127
1, 40272, Note_on_c, 3, 72, 67
1, 40272, Note_on_c, 9, 42, 90
1, 40296, Note_on_c, 3, 81, 0
1, 40304, Note_on_c, 3, 72, 0
1, 40304, Note_on_c, 1, 35, 0
1, 40312, Note_on_c, 2, 61, 0
1, 40312, Note_on_c, 2, 57, 0
1, 40312, Note_on_c, 2, 67, 0
1, 40312, Note_on_c, 2, 64, 0
1, 40320, Note_on_c, 9, 42, 0
1, 40320, Note_on_c, 1, 36, 127
1, 40320, Note_on_c, 3, 81, 127
1, 40320, Note_on_c, 3, 74, 67
1, 40320, Note_on_c, 9, 36, 127
1, 40336, Note_on_c, 3, 81, 0
1, 40344, Note_on_c, 1, 36, 0
1, 40352, Note_on_c, 3, 74, 0
1, 40368, Note_on_c, 9, 36, 0
1, 40368, Note_on_c, 1, 37, 127
1, 40368, Note_on_c, 2, 67, 64
1, 40368, Note_on_c, 2, 64, 64
1, 40368, Note_on_c, 2, 57, 64
1, 40368, Note_on_c, 2, 61, 64
1, 40368, Note_on_c, 3, 81, 127
1, 40368, Note_on_c, 3, 74, 67
1, 40368, Note_on_c, 9, 42, 90
1, 40392, Note_on_c, 3, 81, 0
1, 40392, Note_on_c, 1, 37, 0
1, 40400, Note_on_c, 3, 74, 0
1, 40408, Note_on_c, 2, 61, 0
1, 40408, Note_on_c, 2, 57, 0
1, 40408, Note_on_c, 2, 67, 0
1, 40408, Note_on_c, 2, 64, 0
1, 40416, Note_on_c, 9, 42, 0
1, 40416, Note_on_c, 1, 38, 127
1, 40416, Note_on_c, 3, 78, 127
1, 40416, Note_on_c, 3, 72, 67
1, 40416, Note_on_c, 9, 42, 90
1, 40432, Note_on_c, 3, 78, 0
1, 40448, Note_on_c, 3, 72, 0
1, 40464, Note_on_c, 9, 42, 0
1, 40464, Note_on_c, 2, 67, 64
1, 40464, Note_on_c, 2, 64, 64
1, 40464, Note_on_c, 2, 57, 64
1, 40464, Note_on_c, 2, 61, 64
1, 40464, Note_on_c, 3, 81, 127
1, 40464, Note_on_c, 3, 71, 67
1, 40480, Note_on_c, 3, 81, 0
1, 40504, Note_on_c, 2, 57, 0
1, 40504, Note_on_c, 2, 67, 0
1, 40504, Note_on_c, 2, 64, 0
1, 40504, Note_on_c, 2, 61, 0
1, 40512, Note_on_c, 3, 71, 0
1, 40512, Note_on_c, 2, 66, 64
1, 40512, Note_on_c, 2, 62, 64
1, 40512, Note_on_c, 2, 57, 64
1, 40512, Note_on_c, 3, 81, 127
1, 40512, Note_on_c, 9, 36, 127
1, 40512, Note_on_c, 9, 38, 127
1, 40512, Note_on_c, 9, 42, 90
1, 40512, Note_on_c, 9, 37, 127
1, 40536, Note_on_c, 1, 38, 0
1, 40544, Note_on_c, 3, 81, 0
1, 40552, Note_on_c, 2, 66, 0
1, 40552, Note_on_c, 2, 57, 0
1, 40552, Note_on_c, 2, 62, 0
1, 40560, Note_on_c, 9, 42, 0
1, 40560, Note_on_c, 9, 37, 0
1, 40560, Note_on_c, 9, 36, 0
1, 40560, Note_on_c, 9, 38, 0
1, 40560, Note_on_c, 1, 36, 127
1, 40592, Note_on_c, 1, 36, 0
1, 40608, Note_on_c, 1, 37, 127
1, 40608, Note_on_c, 2, 66, 64
1, 40608, Note_on_c, 2, 62, 64
1, 40608, Note_on_c, 2, 57, 64
1, 40608, Note_on_c, 9, 36, 127
1, 40608, Note_on_c, 9, 42, 90
1, 40632, Note_on_c, 1, 37, 0
1, 40648, Note_on_c, 2, 57, 0
1, 40648, Note_on_c, 2, 66, 0
1, 40648, Note_on_c, 2, 62, 0
1, 40656, Note_on_c, 9, 42, 0
1, 40656, Note_on_c, 9, 36, 0
1, 40656, Note_on_c, 1, 38, 127
1, 40656, Note_on_c, 3, 79, 127
1, 40656, Note_on_c, 3, 72, 67
1, 40656, Note_on_c, 9, 42, 90
1, 40680, Note_on_c, 1, 38, 0
1, 40704, Note_on_c, 9, 42, 0
1, 40704, Note_on_c, 1, 38, 127
1, 40704, Note_on_c, 2, 59, 64
1, 40704, Note_on_c, 2, 62, 64
1, 40704, Note_on_c, 2, 56, 64
1, 40704, Note_on_c, 2, 64, 64
1, 40704, Note_on_c, 9, 36, 127
1, 40704, Note_on_c, 9, 42, 90
1, 40712, Note_on_c, 3, 79, 0
1, 40720, Note_on_c, 3, 72, 0
1, 40728, Note_on_c, 1, 38, 0
1, 40744, Note_on_c, 2, 64, 0
1, 40744, Note_on_c, 2, 59, 0
1, 40744, Note_on_c, 2, 62, 0
1, 40744, Note_on_c, 2, 56, 0
1, 40752, Note_on_c, 9, 42, 0
1, 40752, Note_on_c, 1, 39, 127
1, 40752, Note_on_c, 3, 79, 127
1, 40752, Note_on_c, 3, 72, 67
1, 40776, Note_on_c, 1, 39, 0
1, 40800, Note_on_c, 9, 36, 0
1, 40800, Note_on_c, 1, 40, 127
1, 40800, Note_on_c, 2, 59, 64
1, 40800, Note_on_c, 2, 62, 64
1, 40800, Note_on_c, 2, 56, 64
1, 40800, Note_on_c, 2, 64, 64
1, 40800, Note_on_c, 9, 42, 90
1, 40808, Note_on_c, 3, 79, 0
1, 40824, Note_on_c, 3, 72, 0
1, 40840, Note_on_c, 2, 56, 0
1, 40840, Note_on_c, 2, 59, 0
1, 40840, Note_on_c, 2, 62, 0
1, 40840, Note_on_c, 2, 64, 0
1, 40848, Note_on_c, 9, 42, 0
1, 40848, Note_on_c, 3, 79, 127
1, 40848, Note_on_c, 3, 72, 67
1, 40896, Note_on_c, 2, 59, 64
1, 40896, Note_on_c, 2, 62, 64
1, 40896, Note_on_c, 2, 56, 64
1, 40896, Note_on_c, 2, 64, 64
1, 40896, Note_on_c, 9, 36, 127
1, 40896, Note_on_c, 9, 38, 127
1, 40896, Note_on_c, 9, 42, 90
1, 40896, Note_on_c, 9, 37, 127
1, 40928, Note_on_c, 3, 72, 0
1, 40936, Note_on_c, 2, 62, 0
1, 40936, Note_on_c, 2, 59, 0
1, 40936, Note_on_c, 2, 64, 0
1, 40936, Note_on_c, 2, 56, 0
1, 40944, Note_on_c, 9, 42, 0
1, 40944, Note_on_c, 9, 38, 0
1, 40944, Note_on_c, 9, 37, 0
1, 40944, Note_on_c, 2, 59, 64
1, 40944, Note_on_c, 2, 62, 64
1, 40944, Note_on_c, 2, 56, 64
1, 40944, Note_on_c, 2, 64, 64
1, 40944, Note_on_c, 4, 59, 127
1, 40944, Note_on_c, 3, 71, 67
1, 40968, Note_on_c, 1, 40, 0
1, 40968, Note_on_c, 3, 79, 0
1, 40976, Note_on_c, 4, 59, 0
1, 40984, Note_on_c, 2, 64, 0
1, 40984, Note_on_c, 2, 62, 0
1, 40984, Note_on_c, 2, 59, 0
1, 40984, Note_on_c, 2, 56, 0
1, 40992, Note_on_c, 9, 36, 0
1, 40992, Note_on_c, 1, 38, 127
1, 40992, Note_on_c, 3, 78, 127
1, 40992, Note_on_c, 4, 61, 127
1, 40992, Note_on_c, 9, 42, 90
1, 41008, Note_on_c, 3, 78, 0
1, 41016, Note_on_c, 4, 61, 0
1, 41016, Note_on_c, 3, 71, 0
1, 41040, Note_on_c, 1, 38, 0
1, 41040, Note_on_c, 9, 42, 0
1, 41040, Note_on_c, 1, 39, 127
1, 41040, Note_on_c, 2, 59, 64
1, 41040, Note_on_c, 2, 62, 64
1, 41040, Note_on_c, 2, 56, 64
1, 41040, Note_on_c, 2, 64, 64
1, 41040, Note_on_c, 3, 79, 127
1, 41040, Note_on_c, 4, 64, 127
1, 41040, Note_on_c, 3, 69, 67
1, 41040, Note_on_c, 9, 42, 90
1, 41056, Note_on_c, 3, 79, 0
1, 41064, Note_on_c, 1, 39, 0
1, 41072, Note_on_c, 3, 69, 0
1, 41080, Note_on_c, 2, 59, 0
1, 41080, Note_on_c, 2, 64, 0
1, 41080, Note_on_c, 2, 56, 0
1, 41080, Note_on_c, 2, 62, 0
1, 41088, Note_on_c, 9, 42, 0
1, 41088, Note_on_c, 1, 40, 127
1, 41088, Note_on_c, 3, 79, 127
1, 41088, Note_on_c, 3, 71, 67
1, 41088, Note_on_c, 9, 36, 127
1, 41088, Note_on_c, 9, 42, 90
1, 41120, Note_on_c, 3, 71, 0
1, 41120, Note_on_c, 1, 40, 0
1, 41136, Note_on_c, 4, 64, 0
1, 41136, Note_on_c, 9, 42, 0
1, 41136, Note_on_c, 1, 28, 127
1, 41136, Note_on_c, 2, 59, 64
1, 41136, Note_on_c, 2, 62, 64
1, 41136, Note_on_c, 2, 56, 64
1, 41136, Note_on_c, 2, 64, 64
1, 41136, Note_on_c, 4, 59, 127
1, 41136, Note_on_c, 3, 71, 67
1, 41168, Note_on_c, 3, 71, 0
1, 41168, Note_on_c, 4, 59, 0
1, 41168, Note_on_c, 1, 28, 0
1, 41176, Note_on_c, 2, 56, 0
1, 41176, Note_on_c, 3, 79, 0
1, 41176, Note_on_c, 2, 59, 0
1, 41176, Note_on_c, 2, 62, 0
1, 41176, Note_on_c, 2, 64, 0
1, 41184, Note_on_c, 9, 36, 0
1, 41184, Note_on_c, 3, 78, 127
1, 41184, Note_on_c, 4, 61, 127
1, 41184, Note_on_c, 3, 69, 67
1, 41184, Note_on_c, 9, 42, 90
1, 41208, Note_on_c, 3, 69, 0
1, 41208, Note_on_c, 4, 61, 0
1, 41216, Note_on_c, 3, 78, 0
1, 41232, Note_on_c, 9, 42, 0
1, 41232, Note_on_c, 1, 28, 127
1, 41232, Note_on_c, 2, 59, 64
1, 41232, Note_on_c, 2, 62, 64
1, 41232, Note_on_c, 2, 56, 64
1, 41232, Note_on_c, 2, 64, 64
1, 41232, Note_on_c, 3, 76, 127
1, 41232, Note_on_c, 4, 66, 127
1, 41232, Note_on_c, 3, 68, 67
1, 41232, Note_on_c, 9, 36, 127
1, 41232, Note_on_c, 9, 38, 127
1, 41232, Note_on_c, 9, 42, 90
1, 41232, Note_on_c, 9, 45, 127
1, 41264, Note_on_c, 3, 76, 0
1, 41264, Note_on_c, 1, 28, 0
1, 41272, Note_on_c, 3, 68, 0
1, 41272, Note_on_c, 2, 64, 0
1, 41272, Note_on_c, 2, 59, 0
1, 41272, Note_on_c, 2, 56, 0
1, 41272, Note_on_c, 2, 62, 0
1, 41280, Note_on_c, 9, 42, 0
1, 41280, Note_on_c, 9, 36, 0
1, 41280, Note_on_c, 9, 38, 0
1, 41280, Note_on_c, 9, 45, 0
1, 41280, Note_on_c, 1, 28, 127
1, 41280, Note_on_c, 2, 59, 64
1, 41280, Note_on_c, 2, 62, 64
1, 41280, Note_on_c, 2, 64, 64
1, 41280, Note_on_c, 2, 56, 64
1, 41280, Note_on_c, 9, 36, 127
1, 41280, Note_on_c, 9, 38, 127
1, 41280, Note_on_c, 9, 41, 127
1, 41280, Note_on_c, 9, 37, 127
1, 41304, Note_on_c, 4, 66, 0
1, 41320, Note_on_c, 2, 64, 0
1, 41320, Note_on_c, 2, 62, 0
1, 41320, Note_on_c, 2, 56, 0
1, 41320, Note_on_c, 2, 59, 0
1, 41328, Note_on_c, 9, 38, 0
1, 41328, Note_on_c, 9, 37, 0
1, 41328, Note_on_c, 9, 41, 0
1, 41328, Note_on_c, 9, 36, 0
1, 41328, Note_on_c, 3, 76, 127
1, 41328, Note_on_c, 4, 61, 127
1, 41328, Note_on_c, 9, 42, 90
1, 41352, Note_on_c, 4, 61, 0
1, 41360, Note_on_c, 1, 28, 0
1, 41368, Note_on_c, 3, 76, 0
1, 41376, Note_on_c, 9, 42, 0
1, 41376, Note_on_c, 1, 28, 127
1, 41376, Note_on_c, 4, 64, 127
1, 41376, Note_on_c, 9, 36, 127
1, 41376, Note_on_c, 9, 38, 127
1, 41376, Note_on_c, 9, 44, 90
1, 41376, Note_on_c, 9, 41, 127
1, 41408, Note_on_c, 4, 64, 0
1, 41424, Note_on_c, 9, 36, 0
1, 41424, Note_on_c, 9, 38, 0
1, 41424, Note_on_c, 9, 44, 0
1, 41424, Note_on_c, 9, 41, 0
1, 41424, Note_on_c, 3, 84, 127
1, 41424, Note_on_c, 4, 64, 127
1, 41424, Note_on_c, 3, 74, 67
1, 41424, Note_on_c, 3, 72, 67
1, 41456, Note_on_c, 3, 72, 0
1, 41456, Note_on_c, 3, 74, 0
1, 41464, Note_on_c, 4, 64, 0
1, 41464, Note_on_c, 1, 28, 0
1, 41472, Note_on_c, 1, 33, 127
1, 41472, Note_on_c, 2, 67, 64
1, 41472, Note_on_c, 2, 64, 64
1, 41472, Note_on_c, 2, 57, 64
1, 41472, Note_on_c, 2, 61, 64
1, 41472, Note_on_c, 9, 36, 127
1, 41472, Note_on_c, 9, 42, 90
1, 41480, Note_on_c, 3, 84, 0
1, 41512, Note_on_c, 2, 57, 0
1, 41512, Note_on_c, 2, 64, 0
1, 41512, Note_on_c, 2, 67, 0
1, 41512, Note_on_c, 2, 61, 0
1, 41520, Note_on_c, 9, 42, 0
1, 41520, Note_on_c, 3, 83, 127
1, 41520, Note_on_c, 3, 74, 67
1, 41568, Note_on_c, 3, 83, 0
1, 41568, Note_on_c, 9, 36, 0
1, 41568, Note_on_c, 2, 67, 64
1, 41568, Note_on_c, 2, 64, 64
1, 41568, Note_on_c, 2, 57, 64
1, 41568, Note_on_c, 2, 61, 64
1, 41568, Note_on_c, 9, 42, 90
1, 41576, Note_on_c, 3, 74, 0
1, 41608, Note_on_c, 2, 57, 0
1, 41608, Note_on_c, 2, 67, 0
1, 41608, Note_on_c, 2, 64, 0
1, 41608, Note_on_c, 2, 61, 0
1, 41616, Note_on_c, 1, 33, 0
1, 41616, Note_on_c, 9, 42, 0
1, 41616, Note_on_c, 1, 45, 127
1, 41616, Note_on_c, 3, 81, 127
1, 41616, Note_on_c, 3, 74, 67
1, 41616, Note_on_c, 9, 42, 90
1, 41664, Note_on_c, 9, 42, 0
1, 41664, Note_on_c, 1, 45, 0
1, 41664, Note_on_c, 2, 67, 64
1, 41664, Note_on_c, 2, 64, 64
1, 41664, Note_on_c, 2, 57, 64
1, 41664, Note_on_c, 2, 61, 64
1, 41664, Note_on_c, 9, 36, 127
1, 41664, Note_on_c, 9, 38, 127
1, 41664, Note_on_c, 9, 42, 90
1, 41664, Note_on_c, 9, 37, 127
1, 41688, Note_on_c, 3, 74, 0
1, 41688, Note_on_c, 3, 81, 0
1, 41704, Note_on_c, 2, 64, 0
1, 41704, Note_on_c, 2, 57, 0
1, 41704, Note_on_c, 2, 61, 0
1, 41704, Note_on_c, 2, 67, 0
1, 41712, Note_on_c, 9, 42, 0
1, 41712, Note_on_c, 9, 37, 0
1, 41712, Note_on_c, 9, 38, 0
1, 41712, Note_on_c, 1, 33, 127
1, 41712, Note_on_c, 2, 67, 64
1, 41712, Note_on_c, 2, 64, 64
1, 41712, Note_on_c, 2, 57, 64
1, 41712, Note_on_c, 2, 61, 64
1, 41712, Note_on_c, 3, 78, 127
1, 41712, Note_on_c, 3, 72, 67
1, 41736, Note_on_c, 3, 78, 0
1, 41752, Note_on_c, 2, 64, 0
1, 41752, Note_on_c, 2, 57, 0
1, 41752, Note_on_c, 2, 67, 0
1, 41752, Note_on_c, 2, 61, 0
1, 41760, Note_on_c, 9, 36, 0
1, 41760, Note_on_c, 1, 34, 127
1, 41760, Note_on_c, 3, 78, 127
1, 41760, Note_on_c, 9, 42, 90
1, 41768, Note_on_c, 3, 72, 0
1, 41776, Note_on_c, 3, 78, 0
1, 41776, Note_on_c, 1, 33, 0
1, 41792, Note_on_c, 1, 34, 0
1, 41808, Note_on_c, 9, 42, 0
1, 41808, Note_on_c, 1, 35, 127
1, 41808, Note_on_c, 2, 67, 64
1, 41808, Note_on_c, 2, 64, 64
1, 41808, Note_on_c, 2, 57, 64
1, 41808, Note_on_c, 2, 61, 64
1, 41808, Note_on_c, 3, 78, 127
1, 41808, Note_on_c, 3, 71, 67
1, 41808, Note_on_c, 9, 42, 90
1, 41824, Note_on_c, 3, 71, 0
1, 41824, Note_on_c, 3, 78, 0
1, 41840, Note_on_c, 1, 35, 0
1, 41848, Note_on_c, 2, 61, 0
1, 41848, Note_on_c, 2, 57, 0
1, 41848, Note_on_c, 2, 67, 0
1, 41848, Note_on_c, 2, 64, 0
1, 41856, Note_on_c, 9, 42, 0
1, 41856, Note_on_c, 1, 36, 127
1, 41856, Note_on_c, 3, 79, 127
1, 41856, Note_on_c, 3, 72, 67
1, 41856, Note_on_c, 9, 36, 127
1, 41856, Note_on_c, 9, 42, 90
1, 41880, Note_on_c, 3, 72, 0
1, 41880, Note_on_c, 3, 79, 0
1, 41888, Note_on_c, 1, 36, 0
1, 41904, Note_on_c, 9, 42, 0
1, 41904, Note_on_c, 1, 37, 127
1, 41904, Note_on_c, 2, 67, 64
1, 41904, Note_on_c, 2, 64, 64
1, 41904, Note_on_c, 2, 57, 64
1, 41904, Note_on_c, 2, 61, 64
1, 41904, Note_on_c, 3, 79, 127
1, 41904, Note_on_c, 3, 72, 67
1, 41936, Note_on_c, 3, 72, 0
1, 41936, Note_on_c, 3, 79, 0
1, 41936, Note_on_c, 1, 37, 0
1, 41944, Note_on_c, 2, 67, 0
1, 41944, Note_on_c, 2, 64, 0
1, 41944, Note_on_c, 2, 57, 0
1, 41944, Note_on_c, 2, 61, 0
1, 41952, Note_on_c, 9, 36, 0
1, 41952, Note_on_c, 1, 38, 127
1, 41952, Note_on_c, 3, 78, 127
1, 41952, Note_on_c, 3, 71, 67
1, 41952, Note_on_c, 9, 42, 90
1, 41976, Note_on_c, 3, 71, 0
1, 41976, Note_on_c, 3, 78, 0
1, 42000, Note_on_c, 9, 42, 0
1, 42000, Note_on_c, 2, 67, 64
1, 42000, Note_on_c, 2, 64, 64
1, 42000, Note_on_c, 2, 57, 64
1, 42000, Note_on_c, 2, 61, 64
1, 42000, Note_on_c, 3, 78, 127
1, 42000, Note_on_c, 3, 71, 67
1, 42016, Note_on_c, 3, 71, 0
1, 42032, Note_on_c, 3, 78, 0
1, 42040, Note_on_c, 2, 67, 0
1, 42040, Note_on_c, 2, 64, 0
1, 42040, Note_on_c, 2, 57, 0
1, 42040, Note_on_c, 2, 61, 0
1, 42048, Note_on_c, 1, 38, 0
1, 42048, Note_on_c, 2, 66, 64
1, 42048, Note_on_c, 2, 62, 64
1, 42048, Note_on_c, 2, 57, 64
1, 42048, Note_on_c, 3, 76, 127
1, 42048, Note_on_c, 3, 69, 67
1, 42048, Note_on_c, 9, 36, 127
1, 42048, Note_on_c, 9, 38, 127
1, 42048, Note_on_c, 9, 42, 90
1, 42048, Note_on_c, 9, 37, 127
1, 42088, Note_on_c, 2, 57, 0
1, 42088, Note_on_c, 2, 66, 0
1, 42088, Note_on_c, 2, 62, 0
1, 42096, Note_on_c, 9, 38, 0
1, 42096, Note_on_c, 9, 42, 0
1, 42096, Note_on_c, 3, 69, 0
1, 42096, Note_on_c, 9, 37, 0
1, 42096, Note_on_c, 9, 36, 0
1, 42096, Note_on_c, 1, 34, 127
1, 42112, Note_on_c, 3, 76, 0
1, 42120, Note_on_c, 1, 34, 0
1, 42144, Note_on_c, 1, 35, 127
1, 42144, Note_on_c, 2, 66, 64
1, 42144, Note_on_c, 2, 62, 64
1, 42144, Note_on_c, 2, 57, 64
1, 42144, Note_on_c, 3, 78, 127
1, 42144, Note_on_c, 3, 71, 67
1, 42144, Note_on_c, 9, 36, 127
1, 42144, Note_on_c, 9, 42, 90
1, 42176, Note_on_c, 1, 35, 0
1, 42184, Note_on_c, 2, 57, 0
1, 42184, Note_on_c, 2, 66, 0
1, 42184, Note_on_c, 2, 62, 0
1, 42192, Note_on_c, 9, 36, 0
1, 42192, Note_on_c, 9, 42, 0
1, 42192, Note_on_c, 1, 36, 127
1, 42192, Note_on_c, 9, 42, 90
1, 42216, Note_on_c, 1, 36, 0
1, 42240, Note_on_c, 9, 42, 0
1, 42240, Note_on_c, 1, 37, 127
1, 42240, Note_on_c, 2, 59, 64
1, 42240, Note_on_c, 2, 62, 64
1, 42240, Note_on_c, 2, 56, 64
1, 42240, Note_on_c, 2, 64, 64
1, 42240, Note_on_c, 9, 36, 127
1, 42240, Note_on_c, 9, 42, 90
1, 42264, Note_on_c, 1, 37, 0
1, 42280, Note_on_c, 2, 62, 0
1, 42280, Note_on_c, 2, 59, 0
1, 42280, Note_on_c, 2, 56, 0
1, 42280, Note_on_c, 2, 64, 0
1, 42288, Note_on_c, 9, 42, 0
1, 42288, Note_on_c, 1, 37, 127
1, 42288, Note_on_c, 1, 38, 127
1, 42304, Note_on_c, 3, 78, 0
1, 42312, Note_on_c, 1, 38, 0
1, 42320, Note_on_c, 3, 71, 0
1, 42336, Note_on_c, 9, 36, 0
1, 42336, Note_on_c, 1, 40, 127
1, 42336, Note_on_c, 2, 59, 64
1, 42336, Note_on_c, 2, 62, 64
1, 42336, Note_on_c, 2, 56, 64
1, 42336, Note_on_c, 2, 64, 64
1, 42336, Note_on_c, 3, 76, 127
1, 42336, Note_on_c, 3, 68, 67
1, 42336, Note_on_c, 9, 42, 90
1, 42376, Note_on_c, 2, 64, 0
1, 42376, Note_on_c, 2, 62, 0
1, 42376, Note_on_c, 2, 59, 0
1, 42376, Note_on_c, 2, 56, 0
1, 42384, Note_on_c, 9, 42, 0
1, 42416, Note_on_c, 3, 68, 0
1, 42416, Note_on_c, 3, 76, 0
1, 42432, Note_on_c, 2, 59, 64
1, 42432, Note_on_c, 2, 62, 64
1, 42432, Note_on_c, 2, 56, 64
1, 42432, Note_on_c, 2, 64, 64
1, 42432, Note_on_c, 9, 36, 127
1, 42432, Note_on_c, 9, 38, 127
1, 42432, Note_on_c, 9, 42, 90
1, 42432, Note_on_c, 9, 37, 127
1, 42472, Note_on_c, 2, 64, 0
1, 42472, Note_on_c, 2, 62, 0
1, 42472, Note_on_c, 2, 59, 0
1, 42472, Note_on_c, 2, 56, 0
1, 42480, Note_on_c, 9, 38, 0
1, 42480, Note_on_c, 9, 42, 0
1, 42480, Note_on_c, 9, 37, 0
1, 42480, Note_on_c, 2, 59, 64
1, 42480, Note_on_c, 2, 62, 64
1, 42480, Note_on_c, 2, 56, 64
1, 42480, Note_on_c, 2, 64, 64
1, 42480, Note_on_c, 4, 59, 127
1, 42480, Note_on_c, 9, 42, 90
1, 42512, Note_on_c, 1, 40, 0
1, 42520, Note_on_c, 4, 59, 0
1, 42520, Note_on_c, 2, 62, 0
1, 42520, Note_on_c, 2, 56, 0
1, 42520, Note_on_c, 2, 59, 0
1, 42520, Note_on_c, 2, 64, 0
1, 42528, Note_on_c, 9, 42, 0
1, 42528, Note_on_c, 9, 36, 0
1, 42528, Note_on_c, 1, 38, 127
1, 42528, Note_on_c, 4, 61, 127
1, 42560, Note_on_c, 4, 61, 0
1, 42568, Note_on_c, 1, 38, 0
1, 42576, Note_on_c, 1, 39, 127
1, 42576, Note_on_c, 2, 59, 64
1, 42576, Note_on_c, 2, 62, 64
1, 42576, Note_on_c, 2, 56, 64
1, 42576, Note_on_c, 2, 64, 64
1, 42576, Note_on_c, 4, 64, 127
1, 42576, Note_on_c, 9, 42, 90
1, 42608, Note_on_c, 1, 39, 0
1, 42616, Note_on_c, 2, 56, 0
1, 42616, Note_on_c, 2, 62, 0
1, 42616, Note_on_c, 2, 59, 0
1, 42616, Note_on_c, 2, 64, 0
1, 42624, Note_on_c, 9, 42, 0
1, 42624, Note_on_c, 1, 40, 127
1, 42624, Note_on_c, 9, 36, 127
1, 42664, Note_on_c, 1, 40, 0
1, 42664, Note_on_c, 4, 64, 0
1, 42672, Note_on_c, 1, 28, 127
1, 42672, Note_on_c, 2, 59, 64
1, 42672, Note_on_c, 2, 62, 64
1, 42672, Note_on_c, 2, 56, 64
1, 42672, Note_on_c, 2, 64, 64
1, 42672, Note_on_c, 4, 61, 127
1, 42672, Note_on_c, 9, 38, 127
1, 42672, Note_on_c, 9, 42, 90
1, 42672, Note_on_c, 9, 48, 127
1, 42696, Note_on_c, 1, 28, 0
1, 42704, Note_on_c, 4, 61, 0
1, 42712, Note_on_c, 2, 62, 0
1, 42712, Note_on_c, 2, 59, 0
1, 42712, Note_on_c, 2, 64, 0
1, 42712, Note_on_c, 2, 56, 0
1, 42720, Note_on_c, 9, 38, 0
1, 42720, Note_on_c, 9, 42, 0
1, 42720, Note_on_c, 9, 48, 0
1, 42720, Note_on_c, 9, 36, 0
1, 42720, Note_on_c, 4, 64, 127
1, 42752, Note_on_c, 4, 64, 0
1, 42768, Note_on_c, 1, 28, 127
1, 42768, Note_on_c, 2, 59, 64
1, 42768, Note_on_c, 2, 62, 64
1, 42768, Note_on_c, 2, 56, 64
1, 42768, Note_on_c, 2, 64, 64
1, 42768, Note_on_c, 4, 66, 127
1, 42768, Note_on_c, 9, 36, 127
1, 42768, Note_on_c, 9, 38, 127
1, 42768, Note_on_c, 9, 42, 90
1, 42768, Note_on_c, 9, 45, 127
1, 42784, Note_on_c, 1, 28, 0
1, 42808, Note_on_c, 2, 56, 0
1, 42808, Note_on_c, 2, 62, 0
1, 42808, Note_on_c, 2, 64, 0
1, 42808, Note_on_c, 2, 59, 0
1, 42816, Note_on_c, 9, 42, 0
1, 42816, Note_on_c, 9, 38, 0
1, 42816, Note_on_c, 9, 45, 0
1, 42816, Note_on_c, 9, 36, 0
1, 42816, Note_on_c, 1, 28, 127
1, 42816, Note_on_c, 2, 59, 64
1, 42816, Note_on_c, 2, 62, 64
1, 42816, Note_on_c, 2, 64, 64
1, 42816, Note_on_c, 2, 56, 64
1, 42816, Note_on_c, 9, 36, 127
1, 42816, Note_on_c, 9, 38, 127
1, 42816, Note_on_c, 9, 42, 90
1, 42816, Note_on_c, 9, 45, 127
1, 42816, Note_on_c, 9, 37, 127
1, 42832, Note_on_c, 4, 66, 0
1, 42856, Note_on_c, 2, 62, 0
1, 42856, Note_on_c, 2, 59, 0
1, 42856, Note_on_c, 2, 56, 0
1, 42856, Note_on_c, 2, 64, 0
1, 42864, Note_on_c, 9, 45, 0
1, 42864, Note_on_c, 9, 38, 0
1, 42864, Note_on_c, 9, 37, 0
1, 42864, Note_on_c, 9, 42, 0
1, 42864, Note_on_c, 9, 36, 0
1, 42864, Note_on_c, 4, 61, 127
1, 42880, Note_on_c, 1, 28, 0
1, 42888, Note_on_c, 4, 61, 0
1, 42912, Note_on_c, 1, 30, 127
1, 42912, Note_on_c, 4, 64, 127
1, 42912, Note_on_c, 9, 36, 127
1, 42912, Note_on_c, 9, 38, 127
1, 42912, Note_on_c, 9, 44, 90
1, 42912, Note_on_c, 9, 45, 127
1, 42912, Note_on_c, 9, 49, 127
1, 42920, Note_on_c, 1, 30, 0
1, 42936, Note_on_c, 4, 64, 0
1, 42960, Note_on_c, 9, 45, 0
1, 42960, Note_on_c, 9, 49, 0
1, 42960, Note_on_c, 9, 36, 0
1, 42960, Note_on_c, 9, 38, 0
1, 42960, Note_on_c, 9, 44, 0
1, 42960, Note_on_c, 4, 64, 127
1, 42976, Note_on_c, 4, 64, 0
1, 43008, Note_on_c, 1, 37, 0
1, 43008, Note_on_c, 2, 73, 64
1, 43008, Note_on_c, 2, 71, 64
1, 43008, Note_on_c, 2, 64, 64
1, 43008, Note_on_c, 5, 54, 127
1, 43008, Note_on_c, 9, 36, 127
1, 43008, Note_on_c, 9, 42, 90
1, 43032, Note_on_c, 2, 73, 0
1, 43040, Note_on_c, 2, 71, 0
1, 43048, Note_on_c, 2, 64, 0
1, 43056, Note_on_c, 9, 42, 0
1, 43056, Note_on_c, 9, 36, 0
1, 43056, Note_on_c, 2, 71, 64
1, 43056, Note_on_c, 2, 69, 64
1, 43056, Note_on_c, 2, 64, 64
1, 43072, Note_on_c, 5, 54, 0
1, 43080, Note_on_c, 2, 71, 0
1, 43088, Note_on_c, 2, 69, 0
1, 43096, Note_on_c, 2, 64, 0
1, 43104, Note_on_c, 2, 71, 64
1, 43104, Note_on_c, 2, 69, 64
1, 43104, Note_on_c, 2, 64, 64
1, 43104, Note_on_c, 9, 42, 90
1, 43128, Note_on_c, 2, 69, 0
1, 43128, Note_on_c, 2, 71, 0
1, 43152, Note_on_c, 2, 64, 0
1, 43152, Note_on_c, 9, 42, 0
1, 43200, Note_on_c, 2, 71, 64
1, 43200, Note_on_c, 2, 69, 64
1, 43200, Note_on_c, 2, 64, 64
1, 43200, Note_on_c, 9, 36, 127
1, 43200, Note_on_c, 9, 38, 127
1, 43200, Note_on_c, 9, 42, 90
1, 43200, Note_on_c, 9, 37, 127
1, 43224, Note_on_c, 2, 69, 0
1, 43224, Note_on_c, 2, 71, 0
1, 43248, Note_on_c, 2, 64, 0
1, 43248, Note_on_c, 9, 38, 0
1, 43248, Note_on_c, 9, 36, 0
1, 43248, Note_on_c, 9, 37, 0
1, 43248, Note_on_c, 9, 42, 0
1, 43296, Note_on_c, 2, 71, 64
1, 43296, Note_on_c, 2, 69, 64
1, 43296, Note_on_c, 2, 64, 64
1, 43296, Note_on_c, 9, 36, 127
1, 43296, Note_on_c, 9, 42, 90
1, 43320, Note_on_c, 2, 71, 0
1, 43328, Note_on_c, 2, 69, 0
1, 43336, Note_on_c, 2, 64, 0
1, 43344, Note_on_c, 9, 36, 0
1, 43344, Note_on_c, 9, 42, 0
1, 43392, Note_on_c, 2, 71, 64
1, 43392, Note_on_c, 2, 68, 64
1, 43392, Note_on_c, 2, 64, 64
1, 43392, Note_on_c, 9, 36, 127
1, 43392, Note_on_c, 9, 42, 90
1, 43416, Note_on_c, 2, 71, 0
1, 43424, Note_on_c, 2, 68, 0
1, 43432, Note_on_c, 2, 64, 0
1, 43440, Note_on_c, 9, 36, 0
1, 43440, Note_on_c, 9, 42, 0
1, 43488, Note_on_c, 2, 71, 64
1, 43488, Note_on_c, 2, 68, 64
1, 43488, Note_on_c, 2, 64, 64
1, 43488, Note_on_c, 9, 42, 90
1, 43512, Note_on_c, 2, 71, 0
1, 43520, Note_on_c, 2, 68, 0
1, 43536, Note_on_c, 2, 64, 0
1, 43536, Note_on_c, 9, 42, 0
1, 43584, Note_on_c, 2, 71, 64
1, 43584, Note_on_c, 2, 68, 64
1, 43584, Note_on_c, 2, 64, 64
1, 43584, Note_on_c, 9, 36, 127
1, 43584, Note_on_c, 9, 38, 127
1, 43584, Note_on_c, 9, 42, 90
1, 43584, Note_on_c, 9, 37, 127
1, 43608, Note_on_c, 2, 71, 0
1, 43632, Note_on_c, 9, 42, 0
1, 43632, Note_on_c, 2, 64, 0
1, 43632, Note_on_c, 9, 36, 0
1, 43632, Note_on_c, 2, 68, 0
1, 43632, Note_on_c, 9, 37, 0
1, 43632, Note_on_c, 9, 38, 0
1, 43680, Note_on_c, 2, 71, 64
1, 43680, Note_on_c, 2, 68, 64
1, 43680, Note_on_c, 2, 64, 64
1, 43680, Note_on_c, 9, 42, 90
1, 43712, Note_on_c, 2, 71, 0
1, 43720, Note_on_c, 2, 68, 0
1, 43728, Note_on_c, 2, 64, 0
1, 43728, Note_on_c, 9, 42, 0
1, 43776, Note_on_c, 2, 71, 64
1, 43776, Note_on_c, 2, 66, 64
1, 43776, Note_on_c, 2, 63, 64
1, 43776, Note_on_c, 9, 36, 127
1, 43776, Note_on_c, 9, 42, 90
1, 43808, Note_on_c, 2, 66, 0
1, 43808, Note_on_c, 2, 71, 0
1, 43824, Note_on_c, 9, 36, 0
1, 43824, Note_on_c, 2, 63, 0
1, 43824, Note_on_c, 9, 42, 0
1, 43872, Note_on_c, 2, 71, 64
1, 43872, Note_on_c, 2, 66, 64
1, 43872, Note_on_c, 2, 63, 64
1, 43872, Note_on_c, 9, 42, 90
1, 43904, Note_on_c, 2, 66, 0
1, 43912, Note_on_c, 2, 71, 0
1, 43920, Note_on_c, 2, 63, 0
1, 43920, Note_on_c, 9, 42, 0
1, 43968, Note_on_c, 2, 71, 64
1, 43968, Note_on_c, 2, 66, 64
1, 43968, Note_on_c, 2, 63, 64
1, 43968, Note_on_c, 9, 36, 127
1, 43968, Note_on_c, 9, 38, 127
1, 43968, Note_on_c, 9, 42, 90
1, 43968, Note_on_c, 9, 37, 127
1, 44000, Note_on_c, 2, 66, 0
1, 44008, Note_on_c, 2, 71, 0
1, 44016, Note_on_c, 2, 63, 0
1, 44016, Note_on_c, 9, 38, 0
1, 44016, Note_on_c, 9, 36, 0
1, 44016, Note_on_c, 9, 37, 0
1, 44016, Note_on_c, 9, 42, 0
1, 44016, Note_on_c, 1, 47, 127
1, 44016, Note_on_c, 3, 59, 127
1, 44032, Note_on_c, 1, 47, 0
1, 44048, Note_on_c, 3, 59, 0
1, 44064, Note_on_c, 1, 49, 127
1, 44064, Note_on_c, 2, 71, 64
1, 44064, Note_on_c, 2, 66, 64
1, 44064, Note_on_c, 2, 63, 64
1, 44064, Note_on_c, 3, 61, 127
1, 44064, Note_on_c, 9, 36, 127
1, 44064, Note_on_c, 9, 42, 90
1, 44088, Note_on_c, 3, 61, 0
1, 44088, Note_on_c, 1, 49, 0
1, 44104, Note_on_c, 2, 63, 0
1, 44104, Note_on_c, 2, 66, 0
1, 44112, Note_on_c, 2, 71, 0
1, 44112, Note_on_c, 9, 42, 0
1, 44112, Note_on_c, 9, 36, 0
1, 44112, Note_on_c, 1, 52, 127
1, 44112, Note_on_c, 3, 64, 127
1, 44160, Note_on_c, 2, 71, 64
1, 44160, Note_on_c, 2, 66, 64
1, 44160, Note_on_c, 2, 63, 64
1, 44160, Note_on_c, 9, 36, 127
1, 44160, Note_on_c, 9, 42, 90
1, 44200, Note_on_c, 2, 66, 0
1, 44200, Note_on_c, 2, 71, 0
1, 44208, Note_on_c, 3, 64, 0
1, 44208, Note_on_c, 2, 63, 0
1, 44208, Note_on_c, 9, 36, 0
1, 44208, Note_on_c, 9, 42, 0
1, 44208, Note_on_c, 1, 47, 127
1, 44208, Note_on_c, 3, 59, 127
1, 44216, Note_on_c, 1, 52, 0
1, 44240, Note_on_c, 3, 59, 0
1, 44248, Note_on_c, 1, 47, 0
1, 44256, Note_on_c, 1, 49, 127
1, 44256, Note_on_c, 2, 71, 64
1, 44256, Note_on_c, 2, 66, 64
1, 44256, Note_on_c, 2, 63, 64
1, 44256, Note_on_c, 3, 61, 127
1, 44256, Note_on_c, 9, 42, 90
1, 44288, Note_on_c, 3, 61, 0
1, 44296, Note_on_c, 2, 66, 0
1, 44296, Note_on_c, 1, 49, 0
1, 44296, Note_on_c, 2, 71, 0
1, 44304, Note_on_c, 2, 63, 0
1, 44304, Note_on_c, 9, 42, 0
1, 44304, Note_on_c, 1, 54, 127
1, 44304, Note_on_c, 3, 66, 127
1, 44352, Note_on_c, 2, 71, 64
1, 44352, Note_on_c, 2, 66, 64
1, 44352, Note_on_c, 2, 63, 64
1, 44352, Note_on_c, 9, 36, 127
1, 44352, Note_on_c, 9, 38, 127
1, 44352, Note_on_c, 9, 42, 90
1, 44352, Note_on_c, 9, 37, 127
1, 44368, Note_on_c, 3, 66, 0
1, 44376, Note_on_c, 1, 54, 0
1, 44392, Note_on_c, 2, 66, 0
1, 44392, Note_on_c, 2, 71, 0
1, 44400, Note_on_c, 9, 36, 0
1, 44400, Note_on_c, 2, 63, 0
1, 44400, Note_on_c, 9, 37, 0
1, 44400, Note_on_c, 9, 38, 0
1, 44400, Note_on_c, 9, 42, 0
1, 44400, Note_on_c, 1, 49, 127
1, 44400, Note_on_c, 3, 61, 127
1, 44424, Note_on_c, 3, 61, 0
1, 44424, Note_on_c, 1, 49, 0
1, 44448, Note_on_c, 1, 52, 127
1, 44448, Note_on_c, 2, 71, 64
1, 44448, Note_on_c, 2, 66, 64
1, 44448, Note_on_c, 2, 63, 64
1, 44448, Note_on_c, 3, 64, 127
1, 44448, Note_on_c, 9, 44, 90
1, 44480, Note_on_c, 3, 64, 0
1, 44480, Note_on_c, 1, 52, 0
1, 44488, Note_on_c, 2, 71, 0
1, 44496, Note_on_c, 2, 63, 0
1, 44496, Note_on_c, 9, 44, 0
1, 44496, Note_on_c, 2, 66, 0
1, 44496, Note_on_c, 1, 52, 127
1, 44496, Note_on_c, 3, 64, 127
1, 44520, Note_on_c, 1, 52, 0
1, 44528, Note_on_c, 3, 64, 0
1, 44544, Note_on_c, 2, 73, 64
1, 44544, Note_on_c, 2, 71, 64
1, 44544, Note_on_c, 2, 64, 64
1, 44544, Note_on_c, 9, 36, 127
1, 44544, Note_on_c, 9, 42, 90
1, 44568, Note_on_c, 2, 73, 0
1, 44576, Note_on_c, 2, 71, 0
1, 44584, Note_on_c, 2, 64, 0
1, 44592, Note_on_c, 9, 36, 0
1, 44592, Note_on_c, 9, 42, 0
1, 44592, Note_on_c, 2, 71, 64
1, 44592, Note_on_c, 2, 69, 64
1, 44592, Note_on_c, 2, 64, 64
1, 44616, Note_on_c, 2, 71, 0
1, 44624, Note_on_c, 2, 69, 0
1, 44632, Note_on_c, 2, 64, 0
1, 44640, Note_on_c, 2, 71, 64
1, 44640, Note_on_c, 2, 69, 64
1, 44640, Note_on_c, 2, 64, 64
1, 44640, Note_on_c, 9, 42, 90
1, 44664, Note_on_c, 2, 69, 0
1, 44664, Note_on_c, 2, 71, 0
1, 44688, Note_on_c, 2, 64, 0
1, 44688, Note_on_c, 9, 42, 0
1, 44728, Note_on_c, 4, 78, 127
1, 44736, Note_on_c, 2, 71, 64
1, 44736, Note_on_c, 2, 69, 64
1, 44736, Note_on_c, 2, 64, 64
1, 44736, Note_on_c, 9, 36, 127
1, 44736, Note_on_c, 9, 38, 127
1, 44736, Note_on_c, 9, 42, 90
1, 44736, Note_on_c, 9, 37, 127
1, 44760, Note_on_c, 2, 69, 0
1, 44760, Note_on_c, 2, 71, 0
1, 44784, Note_on_c, 9, 42, 0
1, 44784, Note_on_c, 9, 37, 0
1, 44784, Note_on_c, 2, 64, 0
1, 44784, Note_on_c, 9, 36, 0
1, 44784, Note_on_c, 9, 38, 0
1, 44832, Note_on_c, 2, 71, 64
1, 44832, Note_on_c, 2, 69, 64
1, 44832, Note_on_c, 2, 64, 64
1, 44832, Note_on_c, 9, 36, 127
1, 44832, Note_on_c, 9, 42, 90
1, 44856, Note_on_c, 2, 71, 0
1, 44864, Note_on_c, 2, 69, 0
1, 44872, Note_on_c, 2, 64, 0
1, 44880, Note_on_c, 9, 36, 0
1, 44880, Note_on_c, 9, 42, 0
1, 44928, Note_on_c, 2, 71, 64
1, 44928, Note_on_c, 2, 68, 64
1, 44928, Note_on_c, 2, 64, 64
1, 44928, Note_on_c, 9, 36, 127
1, 44928, Note_on_c, 9, 42, 90
1, 44952, Note_on_c, 2, 71, 0
1, 44960, Note_on_c, 2, 68, 0
1, 44968, Note_on_c, 2, 64, 0
1, 44976, Note_on_c, 9, 36, 0
1, 44976, Note_on_c, 9, 42, 0
1, 45024, Note_on_c, 2, 71, 64
1, 45024, Note_on_c, 2, 68, 64
1, 45024, Note_on_c, 2, 64, 64
1, 45024, Note_on_c, 9, 42, 90
1, 45048, Note_on_c, 2, 71, 0
1, 45056, Note_on_c, 2, 68, 0
1, 45072, Note_on_c, 9, 42, 0
1, 45072, Note_on_c, 2, 64, 0
1, 45120, Note_on_c, 2, 71, 64
1, 45120, Note_on_c, 2, 68, 64
1, 45120, Note_on_c, 2, 64, 64
1, 45120, Note_on_c, 9, 36, 127
1, 45120, Note_on_c, 9, 38, 127
1, 45120, Note_on_c, 9, 42, 90
1, 45120, Note_on_c, 9, 37, 127
1, 45144, Note_on_c, 2, 71, 0
1, 45168, Note_on_c, 9, 37, 0
1, 45168, Note_on_c, 9, 38, 0
1, 45168, Note_on_c, 2, 68, 0
1, 45168, Note_on_c, 2, 64, 0
1, 45168, Note_on_c, 9, 36, 0
1, 45168, Note_on_c, 9, 42, 0
1, 45216, Note_on_c, 2, 71, 64
1, 45216, Note_on_c, 2, 68, 64
1, 45216, Note_on_c, 2, 64, 64
1, 45216, Note_on_c, 9, 42, 90
1, 45248, Note_on_c, 2, 71, 0
1, 45256, Note_on_c, 2, 68, 0
1, 45264, Note_on_c, 9, 42, 0
1, 45264, Note_on_c, 2, 64, 0
1, 45264, Note_on_c, 1, 48, 127
1, 45280, Note_on_c, 1, 45, 127
1, 45288, Note_on_c, 1, 48, 0
1, 45296, Note_on_c, 1, 45, 0
1, 45296, Note_on_c, 1, 43, 127
1, 45312, Note_on_c, 1, 42, 127
1, 45312, Note_on_c, 2, 71, 64
1, 45312, Note_on_c, 2, 66, 64
1, 45312, Note_on_c, 2, 63, 64
1, 45312, Note_on_c, 9, 36, 127
1, 45312, Note_on_c, 9, 42, 90
1, 45320, Note_on_c, 1, 43, 0
1, 45328, Note_on_c, 1, 42, 0
1, 45344, Note_on_c, 2, 66, 0
1, 45344, Note_on_c, 2, 71, 0
1, 45360, Note_on_c, 9, 36, 0
1, 45360, Note_on_c, 9, 42, 0
1, 45360, Note_on_c, 2, 63, 0
1, 45408, Note_on_c, 2, 71, 64
1, 45408, Note_on_c, 2, 66, 64
1, 45408, Note_on_c, 2, 63, 64
1, 45408, Note_on_c, 9, 42, 90
1, 45440, Note_on_c, 2, 66, 0
1, 45448, Note_on_c, 2, 71, 0
1, 45456, Note_on_c, 9, 42, 0
1, 45456, Note_on_c, 2, 63, 0
1, 45504, Note_on_c, 2, 71, 64
1, 45504, Note_on_c, 2, 66, 64
1, 45504, Note_on_c, 2, 63, 64
1, 45504, Note_on_c, 9, 36, 127
1, 45504, Note_on_c, 9, 38, 127
1, 45504, Note_on_c, 9, 42, 90
1, 45504, Note_on_c, 9, 37, 127
1, 45536, Note_on_c, 2, 66, 0
1, 45544, Note_on_c, 2, 71, 0
1, 45552, Note_on_c, 9, 42, 0
1, 45552, Note_on_c, 9, 37, 0
1, 45552, Note_on_c, 2, 63, 0
1, 45552, Note_on_c, 9, 36, 0
1, 45552, Note_on_c, 9, 38, 0
1, 45552, Note_on_c, 1, 47, 127
1, 45552, Note_on_c, 3, 59, 127
1, 45568, Note_on_c, 1, 47, 0
1, 45584, Note_on_c, 3, 59, 0
1, 45600, Note_on_c, 1, 49, 127
1, 45600, Note_on_c, 2, 71, 64
1, 45600, Note_on_c, 2, 66, 64
1, 45600, Note_on_c, 2, 63, 64
1, 45600, Note_on_c, 3, 61, 127
1, 45600, Note_on_c, 9, 36, 127
1, 45600, Note_on_c, 9, 42, 90
1, 45624, Note_on_c, 1, 49, 0
1, 45640, Note_on_c, 2, 63, 0
1, 45640, Note_on_c, 2, 66, 0
1, 45640, Note_on_c, 3, 61, 0
1, 45648, Note_on_c, 9, 36, 0
1, 45648, Note_on_c, 9, 42, 0
1, 45648, Note_on_c, 2, 71, 0
1, 45648, Note_on_c, 1, 52, 127
1, 45648, Note_on_c, 3, 64, 127
1, 45696, Note_on_c, 2, 71, 64
1, 45696, Note_on_c, 2, 66, 64
1, 45696, Note_on_c, 2, 63, 64
1, 45696, Note_on_c, 9, 36, 127
1, 45696, Note_on_c, 9, 42, 90
1, 45736, Note_on_c, 2, 66, 0
1, 45736, Note_on_c, 2, 71, 0
1, 45736, Note_on_c, 1, 52, 0
1, 45744, Note_on_c, 2, 63, 0
1, 45744, Note_on_c, 9, 42, 0
1, 45744, Note_on_c, 9, 36, 0
1, 45744, Note_on_c, 1, 47, 127
1, 45744, Note_on_c, 3, 59, 127
1, 45752, Note_on_c, 3, 64, 0
1, 45784, Note_on_c, 3, 59, 0
1, 45784, Note_on_c, 1, 47, 0
1, 45792, Note_on_c, 1, 49, 127
1, 45792, Note_on_c, 2, 71, 64
1, 45792, Note_on_c, 2, 66, 64
1, 45792, Note_on_c, 2, 63, 64
1, 45792, Note_on_c, 3, 61, 127
1, 45792, Note_on_c, 9, 42, 90
1, 45816, Note_on_c, 1, 49, 0
1, 45824, Note_on_c, 3, 61, 0
1, 45832, Note_on_c, 2, 66, 0
1, 45832, Note_on_c, 2, 71, 0
1, 45840, Note_on_c, 9, 42, 0
1, 45840, Note_on_c, 2, 63, 0
1, 45840, Note_on_c, 1, 54, 127
1, 45840, Note_on_c, 3, 66, 127
1, 45888, Note_on_c, 2, 71, 64
1, 45888, Note_on_c, 2, 66, 64
1, 45888, Note_on_c, 2, 63, 64
1, 45888, Note_on_c, 9, 36, 127
1, 45888, Note_on_c, 9, 38, 127
1, 45888, Note_on_c, 9, 42, 90
1, 45888, Note_on_c, 9, 37, 127
1, 45904, Note_on_c, 1, 54, 0
1, 45912, Note_on_c, 4, 78, 0
1, 45912, Note_on_c, 3, 66, 0
1, 45928, Note_on_c, 2, 71, 0
1, 45928, Note_on_c, 2, 66, 0
1, 45936, Note_on_c, 2, 63, 0
1, 45936, Note_on_c, 9, 38, 0
1, 45936, Note_on_c, 9, 37, 0
1, 45936, Note_on_c, 9, 42, 0
1, 45936, Note_on_c, 9, 36, 0
1, 45936, Note_on_c, 1, 49, 127
1, 45936, Note_on_c, 3, 61, 127
1, 45952, Note_on_c, 3, 61, 0
1, 45960, Note_on_c, 1, 49, 0
1, 45984, Note_on_c, 1, 52, 127
1, 45984, Note_on_c, 2, 71, 64
1, 45984, Note_on_c, 2, 66, 64
1, 45984, Note_on_c, 2, 63, 64
1, 45984, Note_on_c, 3, 64, 127
1, 45984, Note_on_c, 9, 38, 127
1, 45984, Note_on_c, 9, 44, 90
1, 46008, Note_on_c, 3, 64, 0
1, 46008, Note_on_c, 1, 52, 0
1, 46024, Note_on_c, 2, 71, 0
1, 46032, Note_on_c, 9, 38, 0
1, 46032, Note_on_c, 2, 63, 0
1, 46032, Note_on_c, 9, 44, 0
1, 46032, Note_on_c, 2, 66, 0
1, 46032, Note_on_c, 1, 52, 127
1, 46032, Note_on_c, 3, 64, 127
1, 46032, Note_on_c, 9, 36, 127
1, 46032, Note_on_c, 9, 38, 127
1, 46056, Note_on_c, 1, 52, 0
1, 46064, Note_on_c, 3, 64, 0
1, 46080, Note_on_c, 9, 36, 0
1, 46080, Note_on_c, 9, 38, 0
1, 46080, Note_on_c, 2, 73, 64
1, 46080, Note_on_c, 2, 71, 64
1, 46080, Note_on_c, 2, 64, 64
1, 46080, Note_on_c, 9, 36, 127
1, 46080, Note_on_c, 9, 42, 90
1, 46104, Note_on_c, 2, 73, 0
1, 46112, Note_on_c, 2, 71, 0
1, 46112, Note_on_c, 4, 83, 127
1, 46120, Note_on_c, 2, 64, 0
1, 46128, Note_on_c, 9, 42, 0
1, 46128, Note_on_c, 2, 71, 64
1, 46128, Note_on_c, 2, 69, 64
1, 46128, Note_on_c, 2, 64, 64
1, 46152, Note_on_c, 2, 71, 0
1, 46160, Note_on_c, 2, 69, 0
1, 46168, Note_on_c, 2, 64, 0
1, 46176, Note_on_c, 9, 36, 0
1, 46176, Note_on_c, 2, 71, 64
1, 46176, Note_on_c, 2, 69, 64
1, 46176, Note_on_c, 2, 64, 64
1, 46176, Note_on_c, 9, 42, 90
1, 46200, Note_on_c, 2, 69, 0
1, 46200, Note_on_c, 2, 71, 0
1, 46224, Note_on_c, 9, 42, 0
1, 46224, Note_on_c, 2, 64, 0
1, 46272, Note_on_c, 2, 71, 64
1, 46272, Note_on_c, 2, 69, 64
1, 46272, Note_on_c, 2, 64, 64
1, 46272, Note_on_c, 6, 59, 127
1, 46272, Note_on_c, 9, 36, 127
1, 46272, Note_on_c, 9, 38, 127
1, 46272, Note_on_c, 9, 42, 90
1, 46272, Note_on_c, 9, 37, 127
1, 46296, Note_on_c, 2, 69, 0
1, 46296, Note_on_c, 2, 71, 0
1, 46320, Note_on_c, 9, 37, 0
1, 46320, Note_on_c, 9, 38, 0
1, 46320, Note_on_c, 9, 36, 0
1, 46320, Note_on_c, 9, 42, 0
1, 46320, Note_on_c, 2, 64, 0
1, 46368, Note_on_c, 2, 71, 64
1, 46368, Note_on_c, 2, 69, 64
1, 46368, Note_on_c, 2, 64, 64
1, 46368, Note_on_c, 5, 59, 127
1, 46368, Note_on_c, 9, 36, 127
1, 46368, Note_on_c, 9, 42, 90
1, 46392, Note_on_c, 2, 71, 0
1, 46400, Note_on_c, 2, 69, 0
1, 46408, Note_on_c, 2, 64, 0
1, 46416, Note_on_c, 9, 42, 0
1, 46416, Note_on_c, 9, 36, 0
1, 46464, Note_on_c, 2, 71, 64
1, 46464, Note_on_c, 2, 68, 64
1, 46464, Note_on_c, 2, 64, 64
1, 46464, Note_on_c, 9, 36, 127
1, 46464, Note_on_c, 9, 42, 90
1, 46488, Note_on_c, 2, 71, 0
1, 46496, Note_on_c, 2, 68, 0
1, 46504, Note_on_c, 2, 64, 0
1, 46512, Note_on_c, 9, 42, 0
1, 46512, Note_on_c, 9, 36, 0
1, 46560, Note_on_c, 2, 71, 64
1, 46560, Note_on_c, 2, 68, 64
1, 46560, Note_on_c, 2, 64, 64
1, 46560, Note_on_c, 9, 42, 90
1, 46584, Note_on_c, 2, 71, 0
1, 46592, Note_on_c, 2, 68, 0
1, 46608, Note_on_c, 2, 64, 0
1, 46608, Note_on_c, 9, 42, 0
1, 46656, Note_on_c, 2, 71, 64
1, 46656, Note_on_c, 2, 68, 64
1, 46656, Note_on_c, 2, 64, 64
1, 46656, Note_on_c, 9, 36, 127
1, 46656, Note_on_c, 9, 38, 127
1, 46656, Note_on_c, 9, 42, 90
1, 46656, Note_on_c, 9, 37, 127
1, 46680, Note_on_c, 2, 71, 0
1, 46704, Note_on_c, 9, 37, 0
1, 46704, Note_on_c, 9, 38, 0
1, 46704, Note_on_c, 2, 68, 0
1, 46704, Note_on_c, 2, 64, 0
1, 46704, Note_on_c, 9, 42, 0
1, 46704, Note_on_c, 9, 36, 0
1, 46752, Note_on_c, 2, 71, 64
1, 46752, Note_on_c, 2, 68, 64
1, 46752, Note_on_c, 2, 64, 64
1, 46752, Note_on_c, 9, 42, 90
1, 46784, Note_on_c, 2, 71, 0
1, 46792, Note_on_c, 2, 68, 0
1, 46800, Note_on_c, 2, 64, 0
1, 46800, Note_on_c, 9, 42, 0
1, 46848, Note_on_c, 2, 71, 64
1, 46848, Note_on_c, 2, 66, 64
1, 46848, Note_on_c, 2, 63, 64
1, 46848, Note_on_c, 9, 36, 127
1, 46848, Note_on_c, 9, 42, 90
1, 46880, Note_on_c, 2, 66, 0
1, 46880, Note_on_c, 2, 71, 0
1, 46896, Note_on_c, 2, 63, 0
1, 46896, Note_on_c, 9, 42, 0
1, 46896, Note_on_c, 9, 36, 0
1, 46928, Note_on_c, 5, 59, 0
1, 46944, Note_on_c, 2, 71, 64
1, 46944, Note_on_c, 2, 66, 64
1, 46944, Note_on_c, 2, 63, 64
1, 46944, Note_on_c, 9, 42, 90
1, 46976, Note_on_c, 2, 66, 0
1, 46984, Note_on_c, 2, 71, 0
1, 46992, Note_on_c, 2, 63, 0
1, 46992, Note_on_c, 9, 42, 0
1, 47040, Note_on_c, 2, 71, 64
1, 47040, Note_on_c, 2, 66, 64
1, 47040, Note_on_c, 2, 63, 64
1, 47040, Note_on_c, 9, 36, 127
1, 47040, Note_on_c, 9, 38, 127
1, 47040, Note_on_c, 9, 42, 90
1, 47040, Note_on_c, 9, 37, 127
1, 47072, Note_on_c, 2, 66, 0
1, 47080, Note_on_c, 2, 71, 0
1, 47088, Note_on_c, 9, 42, 0
1, 47088, Note_on_c, 9, 36, 0
1, 47088, Note_on_c, 9, 37, 0
1, 47088, Note_on_c, 2, 63, 0
1, 47088, Note_on_c, 9, 38, 0
1, 47088, Note_on_c, 1, 47, 127
1, 47088, Note_on_c, 3, 59, 127
1, 47120, Note_on_c, 3, 59, 0
1, 47120, Note_on_c, 1, 47, 0
1, 47136, Note_on_c, 6, 59, 0
1, 47136, Note_on_c, 1, 49, 127
1, 47136, Note_on_c, 2, 71, 64
1, 47136, Note_on_c, 2, 66, 64
1, 47136, Note_on_c, 2, 63, 64
1, 47136, Note_on_c, 3, 61, 127
1, 47136, Note_on_c, 9, 36, 127
1, 47136, Note_on_c, 9, 42, 90
1, 47160, Note_on_c, 3, 61, 0
1, 47168, Note_on_c, 1, 49, 0
1, 47176, Note_on_c, 2, 63, 0
1, 47176, Note_on_c, 2, 66, 0
1, 47184, Note_on_c, 9, 36, 0
1, 47184, Note_on_c, 9, 42, 0
1, 47184, Note_on_c, 2, 71, 0
1, 47184, Note_on_c, 1, 52, 127
1, 47184, Note_on_c, 3, 64, 127
1, 47232, Note_on_c, 2, 71, 64
1, 47232, Note_on_c, 2, 66, 64
1, 47232, Note_on_c, 2, 63, 64
1, 47232, Note_on_c, 9, 36, 127
1, 47232, Note_on_c, 9, 42, 90
1, 47272, Note_on_c, 2, 66, 0
1, 47272, Note_on_c, 2, 71, 0
1, 47280, Note_on_c, 2, 63, 0
1, 47280, Note_on_c, 1, 52, 0
1, 47280, Note_on_c, 3, 64, 0
1, 47280, Note_on_c, 9, 42, 0
1, 47280, Note_on_c, 9, 36, 0
1, 47280, Note_on_c, 1, 47, 127
1, 47280, Note_on_c, 3, 59, 127
1, 47312, Note_on_c, 3, 59, 0
1, 47312, Note_on_c, 1, 47, 0
1, 47328, Note_on_c, 1, 49, 127
1, 47328, Note_on_c, 2, 71, 64
1, 47328, Note_on_c, 2, 66, 64
1, 47328, Note_on_c, 2, 63, 64
1, 47328, Note_on_c, 3, 61, 127
1, 47328, Note_on_c, 9, 42, 90
1, 47352, Note_on_c, 3, 61, 0
1, 47360, Note_on_c, 1, 49, 0
1, 47368, Note_on_c, 2, 66, 0
1, 47368, Note_on_c, 2, 71, 0
1, 47376, Note_on_c, 9, 42, 0
1, 47376, Note_on_c, 2, 63, 0
1, 47376, Note_on_c, 1, 54, 127
1, 47376, Note_on_c, 3, 66, 127
1, 47424, Note_on_c, 2, 71, 64
1, 47424, Note_on_c, 2, 66, 64
1, 47424, Note_on_c, 2, 63, 64
1, 47424, Note_on_c, 9, 36, 127
1, 47424, Note_on_c, 9, 38, 127
1, 47424, Note_on_c, 9, 42, 90
1, 47424, Note_on_c, 9, 37, 127
1, 47448, Note_on_c, 3, 66, 0
1, 47448, Note_on_c, 1, 54, 0
1, 47464, Note_on_c, 2, 66, 0
1, 47464, Note_on_c, 2, 71, 0
1, 47472, Note_on_c, 9, 36, 0
1, 47472, Note_on_c, 2, 63, 0
1, 47472, Note_on_c, 9, 38, 0
1, 47472, Note_on_c, 9, 42, 0
1, 47472, Note_on_c, 9, 37, 0
1, 47472, Note_on_c, 1, 49, 127
1, 47472, Note_on_c, 3, 61, 127
1, 47496, Note_on_c, 3, 61, 0
1, 47504, Note_on_c, 1, 49, 0
1, 47520, Note_on_c, 1, 52, 127
1, 47520, Note_on_c, 2, 71, 64
1, 47520, Note_on_c, 2, 66, 64
1, 47520, Note_on_c, 2, 63, 64
1, 47520, Note_on_c, 3, 64, 127
1, 47520, Note_on_c, 9, 44, 90
1, 47552, Note_on_c, 3, 64, 0
1, 47552, Note_on_c, 1, 52, 0
1, 47560, Note_on_c, 2, 71, 0
1, 47568, Note_on_c, 2, 66, 0
1, 47568, Note_on_c, 4, 83, 0
1, 47568, Note_on_c, 9, 44, 0
1, 47568, Note_on_c, 2, 63, 0
1, 47568, Note_on_c, 1, 52, 127
1, 47568, Note_on_c, 3, 64, 127
1, 47600, Note_on_c, 1, 52, 0
1, 47608, Note_on_c, 3, 64, 0
1, 47616, Note_on_c, 2, 73, 64
1, 47616, Note_on_c, 2, 71, 64
1, 47616, Note_on_c, 2, 64, 64
1, 47616, Note_on_c, 9, 36, 127
1, 47616, Note_on_c, 9, 42, 90
1, 47640, Note_on_c, 2, 73, 0
1, 47648, Note_on_c, 2, 71, 0
1, 47656, Note_on_c, 2, 64, 0
1, 47664, Note_on_c, 9, 36, 0
1, 47664, Note_on_c, 9, 42, 0
1, 47664, Note_on_c, 2, 71, 64
1, 47664, Note_on_c, 2, 69, 64
1, 47664, Note_on_c, 2, 64, 64
1, 47688, Note_on_c, 2, 71, 0
1, 47696, Note_on_c, 2, 69, 0
1, 47704, Note_on_c, 2, 64, 0
1, 47712, Note_on_c, 2, 71, 64
1, 47712, Note_on_c, 2, 69, 64
1, 47712, Note_on_c, 2, 64, 64
1, 47712, Note_on_c, 4, 81, 64
1, 47712, Note_on_c, 9, 42, 90
1, 47736, Note_on_c, 2, 69, 0
1, 47736, Note_on_c, 2, 71, 0
1, 47760, Note_on_c, 9, 42, 0
1, 47760, Note_on_c, 2, 64, 0
1, 47808, Note_on_c, 2, 71, 64
1, 47808, Note_on_c, 2, 69, 64
1, 47808, Note_on_c, 2, 64, 64
1, 47808, Note_on_c, 9, 36, 127
1, 47808, Note_on_c, 9, 38, 127
1, 47808, Note_on_c, 9, 42, 90
1, 47808, Note_on_c, 9, 37, 127
1, 47832, Note_on_c, 2, 69, 0
1, 47832, Note_on_c, 2, 71, 0
1, 47856, Note_on_c, 9, 42, 0
1, 47856, Note_on_c, 9, 37, 0
1, 47856, Note_on_c, 2, 64, 0
1, 47856, Note_on_c, 9, 36, 0
1, 47856, Note_on_c, 9, 38, 0
1, 47904, Note_on_c, 2, 71, 64
1, 47904, Note_on_c, 2, 69, 64
1, 47904, Note_on_c, 2, 64, 64
1, 47904, Note_on_c, 6, 71, 127
1, 47904, Note_on_c, 9, 36, 127
1, 47904, Note_on_c, 9, 42, 90
1, 47928, Note_on_c, 2, 71, 0
1, 47936, Note_on_c, 2, 69, 0
1, 47944, Note_on_c, 6, 71, 0
1, 47944, Note_on_c, 2, 64, 0
1, 47952, Note_on_c, 9, 36, 0
1, 47952, Note_on_c, 9, 42, 0
1, 47984, Note_on_c, 4, 81, 0
1, 48000, Note_on_c, 2, 71, 64
1, 48000, Note_on_c, 2, 68, 64
1, 48000, Note_on_c, 2, 64, 64
1, 48000, Note_on_c, 4, 78, 64
1, 48000, Note_on_c, 6, 73, 127
1, 48000, Note_on_c, 9, 36, 127
1, 48000, Note_on_c, 9, 42, 90
1, 48024, Note_on_c, 2, 71, 0
1, 48032, Note_on_c, 2, 68, 0
1, 48040, Note_on_c, 2, 64, 0
1, 48048, Note_on_c, 9, 42, 0
1, 48048, Note_on_c, 4, 78, 0
1, 48048, Note_on_c, 9, 36, 0
1, 48096, Note_on_c, 2, 71, 64
1, 48096, Note_on_c, 2, 68, 64
1, 48096, Note_on_c, 2, 64, 64
1, 48096, Note_on_c, 4, 76, 64
1, 48096, Note_on_c, 9, 42, 90
1, 48120, Note_on_c, 2, 71, 0
1, 48120, Note_on_c, 6, 73, 0
1, 48128, Note_on_c, 2, 68, 0
1, 48144, Note_on_c, 2, 64, 0
1, 48144, Note_on_c, 9, 42, 0
1, 48144, Note_on_c, 6, 69, 127
1, 48192, Note_on_c, 2, 71, 64
1, 48192, Note_on_c, 2, 68, 64
1, 48192, Note_on_c, 2, 64, 64
1, 48192, Note_on_c, 9, 36, 127
1, 48192, Note_on_c, 9, 38, 127
1, 48192, Note_on_c, 9, 42, 90
1, 48192, Note_on_c, 9, 37, 127
1, 48216, Note_on_c, 2, 71, 0
1, 48240, Note_on_c, 2, 64, 0
1, 48240, Note_on_c, 9, 37, 0
1, 48240, Note_on_c, 9, 36, 0
1, 48240, Note_on_c, 9, 42, 0
1, 48240, Note_on_c, 2, 68, 0
1, 48240, Note_on_c, 9, 38, 0
1, 48256, Note_on_c, 4, 76, 0
1, 48264, Note_on_c, 6, 69, 0
1, 48280, Note_on_c, 4, 72, 64
1, 48288, Note_on_c, 2, 71, 64
1, 48288, Note_on_c, 2, 68, 64
1, 48288, Note_on_c, 2, 64, 64
1, 48288, Note_on_c, 6, 66, 127
1, 48288, Note_on_c, 9, 42, 90
1, 48320, Note_on_c, 2, 71, 0
1, 48328, Note_on_c, 2, 68, 0
1, 48336, Note_on_c, 2, 64, 0
1, 48336, Note_on_c, 9, 42, 0
1, 48336, Note_on_c, 1, 48, 127
1, 48360, Note_on_c, 4, 72, 0
1, 48384, Note_on_c, 1, 48, 0
1, 48384, Note_on_c, 1, 45, 127
1, 48384, Note_on_c, 1, 42, 127
1, 48384, Note_on_c, 2, 71, 64
1, 48384, Note_on_c, 2, 66, 64
1, 48384, Note_on_c, 2, 63, 64
1, 48384, Note_on_c, 4, 71, 64
1, 48384, Note_on_c, 9, 36, 127
1, 48384, Note_on_c, 9, 42, 90
1, 48400, Note_on_c, 1, 42, 0
1, 48400, Note_on_c, 1, 45, 0
1, 48416, Note_on_c, 2, 66, 0
1, 48416, Note_on_c, 2, 71, 0
1, 48432, Note_on_c, 2, 63, 0
1, 48432, Note_on_c, 9, 42, 0
1, 48432, Note_on_c, 9, 36, 0
1, 48432, Note_on_c, 9, 48, 127
1, 48432, Note_on_c, 9, 47, 127
1, 48480, Note_on_c, 9, 47, 0
1, 48480, Note_on_c, 9, 48, 0
1, 48480, Note_on_c, 2, 71, 64
1, 48480, Note_on_c, 2, 66, 64
1, 48480, Note_on_c, 2, 63, 64
1, 48480, Note_on_c, 9, 42, 90
1, 48512, Note_on_c, 2, 66, 0
1, 48520, Note_on_c, 2, 71, 0
1, 48528, Note_on_c, 2, 63, 0
1, 48528, Note_on_c, 9, 42, 0
1, 48576, Note_on_c, 2, 71, 64
1, 48576, Note_on_c, 2, 66, 64
1, 48576, Note_on_c, 2, 63, 64
1, 48576, Note_on_c, 9, 36, 127
1, 48576, Note_on_c, 9, 38, 127
1, 48576, Note_on_c, 9, 42, 90
1, 48576, Note_on_c, 9, 48, 127
1, 48576, Note_on_c, 9, 47, 127
1, 48576, Note_on_c, 9, 37, 127
1, 48608, Note_on_c, 2, 66, 0
1, 48616, Note_on_c, 2, 71, 0
1, 48624, Note_on_c, 2, 63, 0
1, 48624, Note_on_c, 9, 42, 0
1, 48624, Note_on_c, 9, 47, 0
1, 48624, Note_on_c, 9, 36, 0
1, 48624, Note_on_c, 9, 48, 0
1, 48624, Note_on_c, 9, 37, 0
1, 48624, Note_on_c, 9, 38, 0
1, 48624, Note_on_c, 1, 47, 127
1, 48624, Note_on_c, 3, 59, 127
1, 48640, Note_on_c, 4, 71, 0
1, 48648, Note_on_c, 1, 47, 0
1, 48664, Note_on_c, 3, 59, 0
1, 48672, Note_on_c, 1, 49, 127
1, 48672, Note_on_c, 2, 71, 64
1, 48672, Note_on_c, 2, 66, 64
1, 48672, Note_on_c, 2, 63, 64
1, 48672, Note_on_c, 3, 61, 127
1, 48672, Note_on_c, 9, 36, 127
1, 48672, Note_on_c, 9, 42, 90
1, 48672, Note_on_c, 9, 48, 127
1, 48672, Note_on_c, 9, 47, 127
1, 48688, Note_on_c, 1, 49, 0
1, 48704, Note_on_c, 3, 61, 0
1, 48712, Note_on_c, 2, 63, 0
1, 48712, Note_on_c, 2, 66, 0
1, 48720, Note_on_c, 9, 36, 0
1, 48720, Note_on_c, 9, 42, 0
1, 48720, Note_on_c, 2, 71, 0
1, 48720, Note_on_c, 1, 52, 127
1, 48720, Note_on_c, 3, 64, 127
1, 48768, Note_on_c, 9, 47, 0
1, 48768, Note_on_c, 9, 48, 0
1, 48768, Note_on_c, 2, 71, 64
1, 48768, Note_on_c, 2, 66, 64
1, 48768, Note_on_c, 2, 63, 64
1, 48768, Note_on_c, 9, 36, 127
1, 48768, Note_on_c, 9, 42, 90
1, 48808, Note_on_c, 2, 66, 0
1, 48808, Note_on_c, 2, 71, 0
1, 48808, Note_on_c, 3, 64, 0
1, 48808, Note_on_c, 1, 52, 0
1, 48816, Note_on_c, 9, 36, 0
1, 48816, Note_on_c, 9, 42, 0
1, 48816, Note_on_c, 2, 63, 0
1, 48816, Note_on_c, 1, 47, 127
1, 48816, Note_on_c, 3, 61, 127
1, 48816, Note_on_c, 9, 45, 127
1, 48816, Note_on_c, 9, 43, 127
1, 48848, Note_on_c, 3, 61, 0
1, 48848, Note_on_c, 1, 47, 0
1, 48864, Note_on_c, 9, 43, 0
1, 48864, Note_on_c, 9, 45, 0
1, 48864, Note_on_c, 1, 49, 127
1, 48864, Note_on_c, 2, 71, 64
1, 48864, Note_on_c, 2, 66, 64
1, 48864, Note_on_c, 2, 63, 64
1, 48864, Note_on_c, 3, 64, 127
1, 48864, Note_on_c, 9, 42, 90
1, 48864, Note_on_c, 9, 47, 127
1, 48864, Note_on_c, 9, 48, 127
1, 48880, Note_on_c, 6, 66, 0
1, 48888, Note_on_c, 1, 49, 0
1, 48896, Note_on_c, 3, 64, 0
1, 48904, Note_on_c, 2, 66, 0
1, 48904, Note_on_c, 2, 71, 0
1, 48912, Note_on_c, 2, 63, 0
1, 48912, Note_on_c, 9, 48, 0
1, 48912, Note_on_c, 9, 47, 0
1, 48912, Note_on_c, 9, 42, 0
1, 48912, Note_on_c, 1, 54, 127
1, 48912, Note_on_c, 3, 66, 127
1, 48960, Note_on_c, 2, 71, 64
1, 48960, Note_on_c, 2, 66, 64
1, 48960, Note_on_c, 2, 63, 64
1, 48960, Note_on_c, 9, 36, 127
1, 48960, Note_on_c, 9, 38, 127
1, 48960, Note_on_c, 9, 42, 90
1, 48960, Note_on_c, 9, 47, 127
1, 48960, Note_on_c, 9, 45, 127
1, 48960, Note_on_c, 9, 37, 127
1, 48968, Note_on_c, 1, 54, 0
1, 48976, Note_on_c, 3, 66, 0
1, 49000, Note_on_c, 2, 66, 0
1, 49000, Note_on_c, 2, 71, 0
1, 49008, Note_on_c, 9, 42, 0
1, 49008, Note_on_c, 9, 38, 0
1, 49008, Note_on_c, 9, 36, 0
1, 49008, Note_on_c, 9, 37, 0
1, 49008, Note_on_c, 9, 45, 0
1, 49008, Note_on_c, 9, 47, 0
1, 49008, Note_on_c, 2, 63, 0
1, 49008, Note_on_c, 1, 49, 127
1, 49008, Note_on_c, 3, 61, 127
1, 49008, Note_on_c, 9, 41, 127
1, 49008, Note_on_c, 9, 43, 127
1, 49032, Note_on_c, 3, 61, 0
1, 49032, Note_on_c, 1, 49, 0
1, 49056, Note_on_c, 9, 41, 0
1, 49056, Note_on_c, 9, 43, 0
1, 49056, Note_on_c, 1, 52, 127
1, 49056, Note_on_c, 2, 71, 64
1, 49056, Note_on_c, 2, 66, 64
1, 49056, Note_on_c, 2, 63, 64
1, 49056, Note_on_c, 3, 64, 127
1, 49056, Note_on_c, 9, 36, 127
1, 49056, Note_on_c, 9, 38, 127
1, 49056, Note_on_c, 9, 44, 90
1, 49056, Note_on_c, 9, 43, 127
1, 49056, Note_on_c, 9, 41, 127
1, 49080, Note_on_c, 3, 64, 0
1, 49080, Note_on_c, 1, 52, 0
1, 49096, Note_on_c, 2, 71, 0
1, 49104, Note_on_c, 2, 63, 0
1, 49104, Note_on_c, 9, 36, 0
1, 49104, Note_on_c, 2, 66, 0
1, 49104, Note_on_c, 9, 41, 0
1, 49104, Note_on_c, 9, 43, 0
1, 49104, Note_on_c, 9, 38, 0
1, 49104, Note_on_c, 9, 44, 0
1, 49104, Note_on_c, 1, 52, 127
1, 49104, Note_on_c, 3, 64, 127
1, 49104, Note_on_c, 9, 38, 127
1, 49120, Note_on_c, 3, 64, 0
1, 49128, Note_on_c, 1, 52, 0
1, 49152, Note_on_c, 9, 38, 0
1, 49152, Note_on_c, 1, 30, 127
1, 49152, Note_on_c, 2, 73, 64
1, 49152, Note_on_c, 2, 71, 64
1, 49152, Note_on_c, 2, 64, 64
1, 49152, Note_on_c, 3, 71, 127
1, 49152, Note_on_c, 9, 36, 127
1, 49152, Note_on_c, 9, 42, 90
1, 49176, Note_on_c, 2, 73, 0
1, 49184, Note_on_c, 2, 71, 0
1, 49192, Note_on_c, 2, 64, 0
1, 49200, Note_on_c, 9, 36, 0
1, 49200, Note_on_c, 1, 30, 0
1, 49200, Note_on_c, 9, 42, 0
1, 49200, Note_on_c, 1, 30, 127
1, 49200, Note_on_c, 2, 71, 64
1, 49200, Note_on_c, 2, 69, 64
1, 49200, Note_on_c, 2, 64, 64
1, 49216, Note_on_c, 3, 71, 0
1, 49224, Note_on_c, 2, 71, 0
1, 49232, Note_on_c, 2, 69, 0
1, 49240, Note_on_c, 2, 64, 0
1, 49248, Note_on_c, 1, 30, 0
1, 49248, Note_on_c, 1, 30, 127
1, 49248, Note_on_c, 2, 71, 64
1, 49248, Note_on_c, 2, 69, 64
1, 49248, Note_on_c, 2, 64, 64
1, 49248, Note_on_c, 9, 42, 90
1, 49272, Note_on_c, 2, 69, 0
1, 49272, Note_on_c, 2, 71, 0
1, 49296, Note_on_c, 1, 30, 0
1, 49296, Note_on_c, 2, 64, 0
1, 49296, Note_on_c, 9, 42, 0
1, 49344, Note_on_c, 1, 30, 127
1, 49344, Note_on_c, 2, 71, 64
1, 49344, Note_on_c, 2, 69, 64
1, 49344, Note_on_c, 2, 64, 64
1, 49344, Note_on_c, 3, 71, 127
1, 49344, Note_on_c, 9, 36, 127
1, 49344, Note_on_c, 9, 38, 127
1, 49344, Note_on_c, 9, 42, 90
1, 49344, Note_on_c, 9, 37, 127
1, 49368, Note_on_c, 2, 69, 0
1, 49368, Note_on_c, 2, 71, 0
1, 49392, Note_on_c, 1, 30, 0
1, 49392, Note_on_c, 9, 38, 0
1, 49392, Note_on_c, 9, 36, 0
1, 49392, Note_on_c, 2, 64, 0
1, 49392, Note_on_c, 9, 42, 0
1, 49392, Note_on_c, 3, 71, 0
1, 49392, Note_on_c, 9, 37, 0
1, 49440, Note_on_c, 1, 33, 127
1, 49440, Note_on_c, 2, 71, 64
1, 49440, Note_on_c, 2, 69, 64
1, 49440, Note_on_c, 2, 64, 64
1, 49440, Note_on_c, 3, 73, 127
1, 49440, Note_on_c, 9, 36, 127
1, 49440, Note_on_c, 9, 42, 90
1, 49464, Note_on_c, 2, 71, 0
1, 49472, Note_on_c, 2, 69, 0
1, 49480, Note_on_c, 3, 73, 0
1, 49480, Note_on_c, 2, 64, 0
1, 49488, Note_on_c, 1, 33, 0
1, 49488, Note_on_c, 9, 42, 0
1, 49488, Note_on_c, 9, 36, 0
1, 49536, Note_on_c, 1, 35, 127
1, 49536, Note_on_c, 2, 71, 64
1, 49536, Note_on_c, 2, 68, 64
1, 49536, Note_on_c, 2, 64, 64
1, 49536, Note_on_c, 3, 69, 127
1, 49536, Note_on_c, 9, 36, 127
1, 49536, Note_on_c, 9, 42, 90
1, 49560, Note_on_c, 2, 71, 0
1, 49568, Note_on_c, 2, 68, 0
1, 49576, Note_on_c, 2, 64, 0
1, 49584, Note_on_c, 9, 36, 0
1, 49584, Note_on_c, 9, 42, 0
1, 49632, Note_on_c, 1, 35, 0
1, 49632, Note_on_c, 2, 71, 64
1, 49632, Note_on_c, 2, 68, 64
1, 49632, Note_on_c, 2, 64, 64
1, 49632, Note_on_c, 9, 42, 90
1, 49648, Note_on_c, 3, 69, 0
1, 49656, Note_on_c, 2, 71, 0
1, 49664, Note_on_c, 2, 68, 0
1, 49680, Note_on_c, 2, 64, 0
1, 49680, Note_on_c, 9, 42, 0
1, 49680, Note_on_c, 1, 37, 127
1, 49728, Note_on_c, 2, 71, 64
1, 49728, Note_on_c, 2, 68, 64
1, 49728, Note_on_c, 2, 64, 64
1, 49728, Note_on_c, 3, 66, 127
1, 49728, Note_on_c, 9, 36, 127
1, 49728, Note_on_c, 9, 38, 127
1, 49728, Note_on_c, 9, 42, 90
1, 49728, Note_on_c, 9, 37, 127
1, 49752, Note_on_c, 2, 71, 0
1, 49776, Note_on_c, 2, 64, 0
1, 49776, Note_on_c, 1, 37, 0
1, 49776, Note_on_c, 9, 36, 0
1, 49776, Note_on_c, 2, 68, 0
1, 49776, Note_on_c, 9, 37, 0
1, 49776, Note_on_c, 9, 42, 0
1, 49776, Note_on_c, 9, 38, 0
1, 49776, Note_on_c, 1, 33, 127
1, 49792, Note_on_c, 3, 66, 0
1, 49824, Note_on_c, 1, 33, 0
1, 49824, Note_on_c, 1, 30, 127
1, 49824, Note_on_c, 2, 71, 64
1, 49824, Note_on_c, 2, 68, 64
1, 49824, Note_on_c, 2, 64, 64
1, 49824, Note_on_c, 3, 69, 127
1, 49824, Note_on_c, 9, 42, 90
1, 49856, Note_on_c, 2, 71, 0
1, 49864, Note_on_c, 2, 68, 0
1, 49872, Note_on_c, 2, 64, 0
1, 49872, Note_on_c, 9, 42, 0
1, 49888, Note_on_c, 3, 69, 0
1, 49920, Note_on_c, 1, 30, 0
1, 49920, Note_on_c, 2, 71, 64
1, 49920, Note_on_c, 2, 66, 64
1, 49920, Note_on_c, 2, 63, 64
1, 49920, Note_on_c, 3, 71, 127
1, 49920, Note_on_c, 9, 36, 127
1, 49920, Note_on_c, 9, 42, 90
1, 49952, Note_on_c, 2, 66, 0
1, 49952, Note_on_c, 2, 71, 0
1, 49968, Note_on_c, 9, 36, 0
1, 49968, Note_on_c, 2, 63, 0
1, 49968, Note_on_c, 9, 42, 0
1, 50008, Note_on_c, 3, 71, 0
1, 50016, Note_on_c, 2, 71, 64
1, 50016, Note_on_c, 2, 66, 64
1, 50016, Note_on_c, 2, 63, 64
1, 50016, Note_on_c, 9, 42, 90
1, 50048, Note_on_c, 2, 66, 0
1, 50056, Note_on_c, 2, 71, 0
1, 50064, Note_on_c, 2, 63, 0
1, 50064, Note_on_c, 9, 42, 0
1, 50064, Note_on_c, 3, 73, 127
1, 50112, Note_on_c, 2, 71, 64
1, 50112, Note_on_c, 2, 66, 64
1, 50112, Note_on_c, 2, 63, 64
1, 50112, Note_on_c, 9, 36, 127
1, 50112, Note_on_c, 9, 38, 127
1, 50112, Note_on_c, 9, 42, 90
1, 50112, Note_on_c, 9, 37, 127
1, 50144, Note_on_c, 2, 66, 0
1, 50152, Note_on_c, 2, 71, 0
1, 50160, Note_on_c, 9, 42, 0
1, 50160, Note_on_c, 9, 38, 0
1, 50160, Note_on_c, 2, 63, 0
1, 50160, Note_on_c, 9, 36, 0
1, 50160, Note_on_c, 3, 73, 0
1, 50160, Note_on_c, 9, 37, 0
1, 50160, Note_on_c, 1, 33, 127
1, 50208, Note_on_c, 1, 33, 0
1, 50208, Note_on_c, 1, 30, 127
1, 50208, Note_on_c, 2, 71, 64
1, 50208, Note_on_c, 2, 66, 64
1, 50208, Note_on_c, 2, 63, 64
1, 50208, Note_on_c, 3, 69, 127
1, 50208, Note_on_c, 9, 36, 127
1, 50208, Note_on_c, 9, 42, 90
1, 50248, Note_on_c, 2, 63, 0
1, 50248, Note_on_c, 2, 66, 0
1, 50256, Note_on_c, 2, 71, 0
1, 50256, Note_on_c, 9, 36, 0
1, 50256, Note_on_c, 9, 42, 0
1, 50304, Note_on_c, 1, 30, 0
1, 50304, Note_on_c, 3, 69, 0
1, 50304, Note_on_c, 1, 28, 127
1, 50304, Note_on_c, 2, 71, 64
1, 50304, Note_on_c, 2, 66, 64
1, 50304, Note_on_c, 2, 63, 64
1, 50304, Note_on_c, 9, 36, 127
1, 50304, Note_on_c, 9, 42, 90
1, 50344, Note_on_c, 2, 66, 0
1, 50344, Note_on_c, 2, 71, 0
1, 50352, Note_on_c, 2, 63, 0
1, 50352, Note_on_c, 9, 36, 0
1, 50352, Note_on_c, 9, 42, 0
1, 50400, Note_on_c, 1, 28, 0
1, 50400, Note_on_c, 2, 71, 64
1, 50400, Note_on_c, 2, 66, 64
1, 50400, Note_on_c, 2, 63, 64
1, 50400, Note_on_c, 9, 42, 90
1, 50440, Note_on_c, 2, 66, 0
1, 50440, Note_on_c, 2, 71, 0
1, 50448, Note_on_c, 2, 63, 0
1, 50448, Note_on_c, 9, 42, 0
1, 50496, Note_on_c, 1, 28, 127
1, 50496, Note_on_c, 2, 71, 64
1, 50496, Note_on_c, 2, 66, 64
1, 50496, Note_on_c, 2, 63, 64
1, 50496, Note_on_c, 3, 66, 127
1, 50496, Note_on_c, 9, 36, 127
1, 50496, Note_on_c, 9, 38, 127
1, 50496, Note_on_c, 9, 42, 90
1, 50496, Note_on_c, 9, 37, 127
1, 50536, Note_on_c, 2, 66, 0
1, 50536, Note_on_c, 2, 71, 0
1, 50544, Note_on_c, 1, 28, 0
1, 50544, Note_on_c, 9, 38, 0
1, 50544, Note_on_c, 9, 36, 0
1, 50544, Note_on_c, 9, 37, 0
1, 50544, Note_on_c, 9, 42, 0
1, 50544, Note_on_c, 2, 63, 0
1, 50552, Note_on_c, 3, 66, 0
1, 50592, Note_on_c, 1, 28, 127
1, 50592, Note_on_c, 2, 71, 64
1, 50592, Note_on_c, 2, 66, 64
1, 50592, Note_on_c, 2, 63, 64
1, 50592, Note_on_c, 3, 69, 127
1, 50592, Note_on_c, 9, 44, 90
1, 50632, Note_on_c, 2, 71, 0
1, 50640, Note_on_c, 2, 66, 0
1, 50640, Note_on_c, 2, 63, 0
1, 50640, Note_on_c, 1, 28, 0
1, 50640, Note_on_c, 9, 44, 0
1, 50648, Note_on_c, 3, 69, 0
1, 50688, Note_on_c, 1, 30, 127
1, 50688, Note_on_c, 2, 73, 64
1, 50688, Note_on_c, 2, 71, 64
1, 50688, Note_on_c, 2, 64, 64
1, 50688, Note_on_c, 3, 71, 127
1, 50688, Note_on_c, 9, 36, 127
1, 50688, Note_on_c, 9, 42, 90
1, 50712, Note_on_c, 2, 73, 0
1, 50720, Note_on_c, 2, 71, 0
1, 50728, Note_on_c, 2, 64, 0
1, 50736, Note_on_c, 9, 36, 0
1, 50736, Note_on_c, 1, 30, 0
1, 50736, Note_on_c, 9, 42, 0
1, 50736, Note_on_c, 1, 30, 127
1, 50736, Note_on_c, 2, 71, 64
1, 50736, Note_on_c, 2, 69, 64
1, 50736, Note_on_c, 2, 64, 64
1, 50760, Note_on_c, 2, 71, 0
1, 50768, Note_on_c, 2, 69, 0
1, 50776, Note_on_c, 2, 64, 0
1, 50776, Note_on_c, 3, 71, 0
1, 50784, Note_on_c, 1, 30, 0
1, 50784, Note_on_c, 1, 30, 127
1, 50784, Note_on_c, 2, 71, 64
1, 50784, Note_on_c, 2, 69, 64
1, 50784, Note_on_c, 2, 64, 64
1, 50784, Note_on_c, 9, 42, 90
1, 50808, Note_on_c, 2, 69, 0
1, 50808, Note_on_c, 2, 71, 0
1, 50832, Note_on_c, 1, 30, 0
1, 50832, Note_on_c, 2, 64, 0
1, 50832, Note_on_c, 9, 42, 0
1, 50880, Note_on_c, 1, 30, 127
1, 50880, Note_on_c, 2, 71, 64
1, 50880, Note_on_c, 2, 69, 64
1, 50880, Note_on_c, 2, 64, 64
1, 50880, Note_on_c, 3, 71, 127
1, 50880, Note_on_c, 9, 36, 127
1, 50880, Note_on_c, 9, 38, 127
1, 50880, Note_on_c, 9, 42, 90
1, 50880, Note_on_c, 9, 37, 127
1, 50904, Note_on_c, 2, 69, 0
1, 50904, Note_on_c, 2, 71, 0
1, 50928, Note_on_c, 1, 30, 0
1, 50928, Note_on_c, 9, 38, 0
1, 50928, Note_on_c, 9, 36, 0
1, 50928, Note_on_c, 9, 37, 0
1, 50928, Note_on_c, 9, 42, 0
1, 50928, Note_on_c, 2, 64, 0
1, 50936, Note_on_c, 3, 71, 0
1, 50976, Note_on_c, 1, 33, 127
1, 50976, Note_on_c, 2, 71, 64
1, 50976, Note_on_c, 2, 69, 64
1, 50976, Note_on_c, 2, 64, 64
1, 50976, Note_on_c, 3, 73, 127
1, 50976, Note_on_c, 9, 36, 127
1, 50976, Note_on_c, 9, 42, 90
1, 51000, Note_on_c, 2, 71, 0
1, 51008, Note_on_c, 2, 69, 0
1, 51016, Note_on_c, 2, 64, 0
1, 51024, Note_on_c, 9, 36, 0
1, 51024, Note_on_c, 1, 33, 0
1, 51024, Note_on_c, 9, 42, 0
1, 51032, Note_on_c, 3, 73, 0
1, 51072, Note_on_c, 1, 35, 127
1, 51072, Note_on_c, 2, 71, 64
1, 51072, Note_on_c, 2, 68, 64
1, 51072, Note_on_c, 2, 64, 64
1, 51072, Note_on_c, 3, 69, 127
1, 51072, Note_on_c, 9, 36, 127
1, 51072, Note_on_c, 9, 42, 90
1, 51096, Note_on_c, 2, 71, 0
1, 51104, Note_on_c, 2, 68, 0
1, 51112, Note_on_c, 2, 64, 0
1, 51120, Note_on_c, 9, 36, 0
1, 51120, Note_on_c, 9, 42, 0
1, 51168, Note_on_c, 1, 35, 0
1, 51168, Note_on_c, 2, 71, 64
1, 51168, Note_on_c, 2, 68, 64
1, 51168, Note_on_c, 2, 64, 64
1, 51168, Note_on_c, 9, 42, 90
1, 51176, Note_on_c, 3, 69, 0
1, 51192, Note_on_c, 2, 71, 0
1, 51200, Note_on_c, 2, 68, 0
1, 51216, Note_on_c, 2, 64, 0
1, 51216, Note_on_c, 9, 42, 0
1, 51216, Note_on_c, 1, 37, 127
1, 51264, Note_on_c, 2, 71, 64
1, 51264, Note_on_c, 2, 68, 64
1, 51264, Note_on_c, 2, 64, 64
1, 51264, Note_on_c, 3, 69, 127
1, 51264, Note_on_c, 9, 36, 127
1, 51264, Note_on_c, 9, 38, 127
1, 51264, Note_on_c, 9, 42, 90
1, 51264, Note_on_c, 9, 37, 127
1, 51288, Note_on_c, 2, 71, 0
1, 51312, Note_on_c, 2, 64, 0
1, 51312, Note_on_c, 1, 37, 0
1, 51312, Note_on_c, 9, 36, 0
1, 51312, Note_on_c, 2, 68, 0
1, 51312, Note_on_c, 9, 37, 0
1, 51312, Note_on_c, 9, 42, 0
1, 51312, Note_on_c, 9, 38, 0
1, 51320, Note_on_c, 3, 69, 0
1, 51360, Note_on_c, 1, 40, 127
1, 51360, Note_on_c, 2, 71, 64
1, 51360, Note_on_c, 2, 68, 64
1, 51360, Note_on_c, 2, 64, 64
1, 51360, Note_on_c, 3, 66, 127
1, 51360, Note_on_c, 9, 42, 90
1, 51392, Note_on_c, 2, 71, 0
1, 51400, Note_on_c, 2, 68, 0
1, 51408, Note_on_c, 2, 64, 0
1, 51408, Note_on_c, 1, 40, 0
1, 51408, Note_on_c, 9, 42, 0
1, 51424, Note_on_c, 3, 66, 0
1, 51456, Note_on_c, 1, 42, 127
1, 51456, Note_on_c, 2, 71, 64
1, 51456, Note_on_c, 2, 66, 64
1, 51456, Note_on_c, 2, 63, 64
1, 51456, Note_on_c, 3, 76, 127
1, 51456, Note_on_c, 9, 36, 127
1, 51456, Note_on_c, 9, 42, 90
1, 51488, Note_on_c, 2, 66, 0
1, 51488, Note_on_c, 2, 71, 0
1, 51504, Note_on_c, 9, 36, 0
1, 51504, Note_on_c, 2, 63, 0
1, 51504, Note_on_c, 9, 42, 0
1, 51552, Note_on_c, 1, 42, 0
1, 51552, Note_on_c, 2, 71, 64
1, 51552, Note_on_c, 2, 66, 64
1, 51552, Note_on_c, 2, 63, 64
1, 51552, Note_on_c, 9, 42, 90
1, 51584, Note_on_c, 2, 66, 0
1, 51592, Note_on_c, 2, 71, 0
1, 51600, Note_on_c, 3, 76, 0
1, 51600, Note_on_c, 2, 63, 0
1, 51600, Note_on_c, 9, 42, 0
1, 51600, Note_on_c, 3, 75, 127
1, 51648, Note_on_c, 1, 40, 127
1, 51648, Note_on_c, 2, 71, 64
1, 51648, Note_on_c, 2, 66, 64
1, 51648, Note_on_c, 2, 63, 64
1, 51648, Note_on_c, 9, 36, 127
1, 51648, Note_on_c, 9, 38, 127
1, 51648, Note_on_c, 9, 42, 90
1, 51648, Note_on_c, 9, 37, 127
1, 51680, Note_on_c, 2, 66, 0
1, 51688, Note_on_c, 2, 71, 0
1, 51696, Note_on_c, 3, 75, 0
1, 51696, Note_on_c, 9, 36, 0
1, 51696, Note_on_c, 1, 40, 0
1, 51696, Note_on_c, 2, 63, 0
1, 51696, Note_on_c, 9, 37, 0
1, 51696, Note_on_c, 9, 38, 0
1, 51696, Note_on_c, 9, 42, 0
1, 51744, Note_on_c, 1, 42, 127
1, 51744, Note_on_c, 2, 71, 64
1, 51744, Note_on_c, 2, 66, 64
1, 51744, Note_on_c, 2, 63, 64
1, 51744, Note_on_c, 3, 71, 127
1, 51744, Note_on_c, 9, 36, 127
1, 51744, Note_on_c, 9, 42, 90
1, 51784, Note_on_c, 2, 63, 0
1, 51784, Note_on_c, 2, 66, 0
1, 51792, Note_on_c, 2, 71, 0
1, 51792, Note_on_c, 9, 36, 0
1, 51792, Note_on_c, 1, 42, 0
1, 51792, Note_on_c, 9, 42, 0
1, 51840, Note_on_c, 1, 40, 127
1, 51840, Note_on_c, 2, 71, 64
1, 51840, Note_on_c, 2, 66, 64
1, 51840, Note_on_c, 2, 63, 64
1, 51840, Note_on_c, 9, 36, 127
1, 51840, Note_on_c, 9, 42, 90
1, 51880, Note_on_c, 2, 66, 0
1, 51880, Note_on_c, 2, 71, 0
1, 51888, Note_on_c, 9, 36, 0
1, 51888, Note_on_c, 2, 63, 0
1, 51888, Note_on_c, 9, 42, 0
1, 51920, Note_on_c, 3, 71, 0
1, 51936, Note_on_c, 1, 40, 0
1, 51936, Note_on_c, 2, 71, 64
1, 51936, Note_on_c, 2, 66, 64
1, 51936, Note_on_c, 2, 63, 64
1, 51936, Note_on_c, 9, 42, 90
1, 51976, Note_on_c, 2, 66, 0
1, 51976, Note_on_c, 2, 71, 0
1, 51984, Note_on_c, 2, 63, 0
1, 51984, Note_on_c, 9, 42, 0
1, 52032, Note_on_c, 1, 40, 127
1, 52032, Note_on_c, 2, 71, 64
1, 52032, Note_on_c, 2, 66, 64
1, 52032, Note_on_c, 2, 63, 64
1, 52032, Note_on_c, 3, 66, 127
1, 52032, Note_on_c, 9, 36, 127
1, 52032, Note_on_c, 9, 38, 127
1, 52032, Note_on_c, 9, 42, 90
1, 52032, Note_on_c, 9, 37, 127
1, 52072, Note_on_c, 2, 66, 0
1, 52072, Note_on_c, 2, 71, 0
1, 52080, Note_on_c, 1, 40, 0
1, 52080, Note_on_c, 9, 38, 0
1, 52080, Note_on_c, 9, 36, 0
1, 52080, Note_on_c, 2, 63, 0
1, 52080, Note_on_c, 9, 42, 0
1, 52080, Note_on_c, 3, 66, 0
1, 52080, Note_on_c, 9, 37, 0
1, 52080, Note_on_c, 1, 41, 127
1, 52128, Note_on_c, 1, 41, 0
1, 52128, Note_on_c, 1, 42, 127
1, 52128, Note_on_c, 2, 71, 64
1, 52128, Note_on_c, 2, 66, 64
1, 52128, Note_on_c, 2, 63, 64
1, 52128, Note_on_c, 3, 69, 127
1, 52128, Note_on_c, 9, 38, 127
1, 52128, Note_on_c, 9, 44, 90
1, 52168, Note_on_c, 2, 71, 0
1, 52176, Note_on_c, 9, 38, 0
1, 52176, Note_on_c, 2, 66, 0
1, 52176, Note_on_c, 2, 63, 0
1, 52176, Note_on_c, 1, 42, 0
1, 52176, Note_on_c, 9, 44, 0
1, 52176, Note_on_c, 3, 69, 0
1, 52176, Note_on_c, 1, 37, 127
1, 52176, Note_on_c, 9, 36, 127
1, 52176, Note_on_c, 9, 38, 127
1, 52224, Note_on_c, 9, 38, 0
1, 52224, Note_on_c, 9, 36, 0
1, 52224, Note_on_c, 1, 37, 0
1, 52224, Note_on_c, 1, 30, 127
1, 52224, Note_on_c, 2, 73, 64
1, 52224, Note_on_c, 2, 71, 64
1, 52224, Note_on_c, 2, 64, 64
1, 52224, Note_on_c, 3, 71, 127
1, 52224, Note_on_c, 9, 36, 127
1, 52224, Note_on_c, 9, 42, 90
1, 52248, Note_on_c, 2, 73, 0
1, 52256, Note_on_c, 2, 71, 0
1, 52264, Note_on_c, 2, 64, 0
1, 52272, Note_on_c, 1, 30, 0
1, 52272, Note_on_c, 9, 42, 0
1, 52272, Note_on_c, 1, 30, 127
1, 52272, Note_on_c, 2, 71, 64
1, 52272, Note_on_c, 2, 69, 64
1, 52272, Note_on_c, 2, 64, 64
1, 52296, Note_on_c, 2, 71, 0
1, 52304, Note_on_c, 2, 69, 0
1, 52312, Note_on_c, 2, 64, 0
1, 52320, Note_on_c, 9, 36, 0
1, 52320, Note_on_c, 1, 30, 0
1, 52320, Note_on_c, 1, 30, 127
1, 52320, Note_on_c, 2, 71, 64
1, 52320, Note_on_c, 2, 69, 64
1, 52320, Note_on_c, 2, 64, 64
1, 52320, Note_on_c, 9, 42, 90
1, 52344, Note_on_c, 2, 69, 0
1, 52344, Note_on_c, 2, 71, 0
1, 52344, Note_on_c, 3, 71, 0
1, 52368, Note_on_c, 1, 30, 0
1, 52368, Note_on_c, 2, 64, 0
1, 52368, Note_on_c, 9, 42, 0
1, 52416, Note_on_c, 1, 30, 127
1, 52416, Note_on_c, 2, 71, 64
1, 52416, Note_on_c, 2, 69, 64
1, 52416, Note_on_c, 2, 64, 64
1, 52416, Note_on_c, 3, 71, 127
1, 52416, Note_on_c, 9, 36, 127
1, 52416, Note_on_c, 9, 38, 127
1, 52416, Note_on_c, 9, 42, 90
1, 52416, Note_on_c, 9, 37, 127
1, 52440, Note_on_c, 2, 69, 0
1, 52440, Note_on_c, 2, 71, 0
1, 52464, Note_on_c, 1, 30, 0
1, 52464, Note_on_c, 9, 38, 0
1, 52464, Note_on_c, 9, 36, 0
1, 52464, Note_on_c, 9, 37, 0
1, 52464, Note_on_c, 9, 42, 0
1, 52464, Note_on_c, 2, 64, 0
1, 52472, Note_on_c, 3, 71, 0
1, 52512, Note_on_c, 1, 33, 127
1, 52512, Note_on_c, 2, 71, 64
1, 52512, Note_on_c, 2, 69, 64
1, 52512, Note_on_c, 2, 64, 64
1, 52512, Note_on_c, 3, 73, 127
1, 52512, Note_on_c, 9, 36, 127
1, 52512, Note_on_c, 9, 42, 90
1, 52536, Note_on_c, 2, 71, 0
1, 52544, Note_on_c, 2, 69, 0
1, 52552, Note_on_c, 2, 64, 0
1, 52560, Note_on_c, 9, 36, 0
1, 52560, Note_on_c, 1, 33, 0
1, 52560, Note_on_c, 9, 42, 0
1, 52576, Note_on_c, 3, 73, 0
1, 52608, Note_on_c, 1, 35, 127
1, 52608, Note_on_c, 2, 71, 64
1, 52608, Note_on_c, 2, 68, 64
1, 52608, Note_on_c, 2, 64, 64
1, 52608, Note_on_c, 3, 69, 127
1, 52608, Note_on_c, 9, 36, 127
1, 52608, Note_on_c, 9, 42, 90
1, 52632, Note_on_c, 2, 71, 0
1, 52640, Note_on_c, 2, 68, 0
1, 52648, Note_on_c, 2, 64, 0
1, 52656, Note_on_c, 9, 36, 0
1, 52656, Note_on_c, 9, 42, 0
1, 52704, Note_on_c, 1, 35, 0
1, 52704, Note_on_c, 2, 71, 64
1, 52704, Note_on_c, 2, 68, 64
1, 52704, Note_on_c, 2, 64, 64
1, 52704, Note_on_c, 9, 42, 90
1, 52720, Note_on_c, 3, 69, 0
1, 52728, Note_on_c, 2, 71, 0
1, 52736, Note_on_c, 2, 68, 0
1, 52752, Note_on_c, 2, 64, 0
1, 52752, Note_on_c, 9, 42, 0
1, 52752, Note_on_c, 1, 37, 127
1, 52800, Note_on_c, 1, 37, 0
1, 52800, Note_on_c, 2, 71, 64
1, 52800, Note_on_c, 2, 68, 64
1, 52800, Note_on_c, 2, 64, 64
1, 52800, Note_on_c, 3, 66, 127
1, 52800, Note_on_c, 9, 36, 127
1, 52800, Note_on_c, 9, 38, 127
1, 52800, Note_on_c, 9, 42, 90
1, 52800, Note_on_c, 9, 37, 127
1, 52824, Note_on_c, 2, 71, 0
1, 52848, Note_on_c, 9, 37, 0
1, 52848, Note_on_c, 9, 38, 0
1, 52848, Note_on_c, 2, 64, 0
1, 52848, Note_on_c, 2, 68, 0
1, 52848, Note_on_c, 9, 36, 0
1, 52848, Note_on_c, 9, 42, 0
1, 52848, Note_on_c, 1, 33, 127
1, 52864, Note_on_c, 3, 66, 0
1, 52896, Note_on_c, 1, 33, 0
1, 52896, Note_on_c, 1, 30, 127
1, 52896, Note_on_c, 2, 71, 64
1, 52896, Note_on_c, 2, 68, 64
1, 52896, Note_on_c, 2, 64, 64
1, 52896, Note_on_c, 3, 69, 127
1, 52896, Note_on_c, 9, 42, 90
1, 52928, Note_on_c, 2, 71, 0
1, 52936, Note_on_c, 2, 68, 0
1, 52944, Note_on_c, 2, 64, 0
1, 52944, Note_on_c, 9, 42, 0
1, 52952, Note_on_c, 3, 69, 0
1, 52992, Note_on_c, 1, 30, 0
1, 52992, Note_on_c, 2, 71, 64
1, 52992, Note_on_c, 2, 66, 64
1, 52992, Note_on_c, 2, 63, 64
1, 52992, Note_on_c, 3, 71, 127
1, 52992, Note_on_c, 9, 36, 127
1, 52992, Note_on_c, 9, 42, 90
1, 53024, Note_on_c, 2, 66, 0
1, 53024, Note_on_c, 2, 71, 0
1, 53040, Note_on_c, 9, 36, 0
1, 53040, Note_on_c, 2, 63, 0
1, 53040, Note_on_c, 9, 42, 0
1, 53088, Note_on_c, 2, 71, 64
1, 53088, Note_on_c, 2, 66, 64
1, 53088, Note_on_c, 2, 63, 64
1, 53088, Note_on_c, 9, 42, 90
1, 53096, Note_on_c, 3, 71, 0
1, 53120, Note_on_c, 2, 66, 0
1, 53128, Note_on_c, 2, 71, 0
1, 53136, Note_on_c, 9, 42, 0
1, 53136, Note_on_c, 2, 63, 0
1, 53136, Note_on_c, 3, 73, 127
1, 53184, Note_on_c, 2, 71, 64
1, 53184, Note_on_c, 2, 66, 64
1, 53184, Note_on_c, 2, 63, 64
1, 53184, Note_on_c, 9, 36, 127
1, 53184, Note_on_c, 9, 38, 127
1, 53184, Note_on_c, 9, 42, 90
1, 53184, Note_on_c, 9, 37, 127
1, 53216, Note_on_c, 2, 66, 0
1, 53224, Note_on_c, 2, 71, 0
1, 53232, Note_on_c, 9, 42, 0
1, 53232, Note_on_c, 9, 37, 0
1, 53232, Note_on_c, 2, 63, 0
1, 53232, Note_on_c, 9, 36, 0
1, 53232, Note_on_c, 9, 38, 0
1, 53232, Note_on_c, 1, 33, 127
1, 53240, Note_on_c, 3, 73, 0
1, 53280, Note_on_c, 1, 33, 0
1, 53280, Note_on_c, 1, 30, 127
1, 53280, Note_on_c, 2, 71, 64
1, 53280, Note_on_c, 2, 66, 64
1, 53280, Note_on_c, 2, 63, 64
1, 53280, Note_on_c, 3, 69, 127
1, 53280, Note_on_c, 9, 36, 127
1, 53280, Note_on_c, 9, 42, 90
1, 53320, Note_on_c, 2, 63, 0
1, 53320, Note_on_c, 2, 66, 0
1, 53328, Note_on_c, 2, 71, 0
1, 53328, Note_on_c, 9, 36, 0
1, 53328, Note_on_c, 1, 30, 0
1, 53328, Note_on_c, 9, 42, 0
1, 53376, Note_on_c, 1, 28, 127
1, 53376, Note_on_c, 2, 71, 64
1, 53376, Note_on_c, 2, 66, 64
1, 53376, Note_on_c, 2, 63, 64
1, 53376, Note_on_c, 9, 36, 127
1, 53376, Note_on_c, 9, 42, 90
1, 53416, Note_on_c, 2, 66, 0
1, 53416, Note_on_c, 2, 71, 0
1, 53424, Note_on_c, 9, 36, 0
1, 53424, Note_on_c, 2, 63, 0
1, 53424, Note_on_c, 9, 42, 0
1, 53440, Note_on_c, 3, 69, 0
1, 53472, Note_on_c, 1, 28, 0
1, 53472, Note_on_c, 2, 71, 64
1, 53472, Note_on_c, 2, 66, 64
1, 53472, Note_on_c, 2, 63, 64
1, 53472, Note_on_c, 9, 42, 90
1, 53512, Note_on_c, 2, 66, 0
1, 53512, Note_on_c, 2, 71, 0
1, 53520, Note_on_c, 2, 63, 0
1, 53520, Note_on_c, 9, 42, 0
1, 53568, Note_on_c, 1, 28, 127
1, 53568, Note_on_c, 2, 71, 64
1, 53568, Note_on_c, 2, 66, 64
1, 53568, Note_on_c, 2, 63, 64
1, 53568, Note_on_c, 3, 66, 127
1, 53568, Note_on_c, 9, 36, 127
1, 53568, Note_on_c, 9, 38, 127
1, 53568, Note_on_c, 9, 42, 90
1, 53568, Note_on_c, 9, 37, 127
1, 53608, Note_on_c, 2, 66, 0
1, 53608, Note_on_c, 2, 71, 0
1, 53616, Note_on_c, 1, 28, 0
1, 53616, Note_on_c, 9, 38, 0
1, 53616, Note_on_c, 9, 36, 0
1, 53616, Note_on_c, 9, 37, 0
1, 53616, Note_on_c, 9, 42, 0
1, 53616, Note_on_c, 2, 63, 0
1, 53624, Note_on_c, 3, 66, 0
1, 53664, Note_on_c, 1, 28, 127
1, 53664, Note_on_c, 2, 71, 64
1, 53664, Note_on_c, 2, 66, 64
1, 53664, Note_on_c, 2, 63, 64
1, 53664, Note_on_c, 3, 69, 127
1, 53664, Note_on_c, 9, 44, 90
1, 53704, Note_on_c, 2, 71, 0
1, 53712, Note_on_c, 2, 66, 0
1, 53712, Note_on_c, 2, 63, 0
1, 53712, Note_on_c, 1, 28, 0
1, 53712, Note_on_c, 9, 44, 0
1, 53728, Note_on_c, 3, 69, 0
1, 53760, Note_on_c, 1, 30, 127
1, 53760, Note_on_c, 2, 73, 64
1, 53760, Note_on_c, 2, 71, 64
1, 53760, Note_on_c, 2, 64, 64
1, 53760, Note_on_c, 3, 71, 127
1, 53760, Note_on_c, 9, 36, 127
1, 53760, Note_on_c, 9, 42, 90
1, 53784, Note_on_c, 2, 73, 0
1, 53792, Note_on_c, 2, 71, 0
1, 53800, Note_on_c, 2, 64, 0
1, 53808, Note_on_c, 9, 36, 0
1, 53808, Note_on_c, 1, 30, 0
1, 53808, Note_on_c, 9, 42, 0
1, 53808, Note_on_c, 1, 30, 127
1, 53808, Note_on_c, 2, 71, 64
1, 53808, Note_on_c, 2, 69, 64
1, 53808, Note_on_c, 2, 64, 64
1, 53832, Note_on_c, 2, 71, 0
1, 53840, Note_on_c, 2, 69, 0
1, 53848, Note_on_c, 2, 64, 0
1, 53856, Note_on_c, 1, 30, 0
1, 53856, Note_on_c, 1, 30, 127
1, 53856, Note_on_c, 2, 71, 64
1, 53856, Note_on_c, 2, 69, 64
1, 53856, Note_on_c, 2, 64, 64
1, 53856, Note_on_c, 9, 42, 90
1, 53880, Note_on_c, 2, 69, 0
1, 53880, Note_on_c, 2, 71, 0
1, 53880, Note_on_c, 3, 71, 0
1, 53904, Note_on_c, 1, 30, 0
1, 53904, Note_on_c, 2, 64, 0
1, 53904, Note_on_c, 9, 42, 0
1, 53952, Note_on_c, 1, 30, 127
1, 53952, Note_on_c, 2, 71, 64
1, 53952, Note_on_c, 2, 69, 64
1, 53952, Note_on_c, 2, 64, 64
1, 53952, Note_on_c, 3, 71, 127
1, 53952, Note_on_c, 9, 36, 127
1, 53952, Note_on_c, 9, 38, 127
1, 53952, Note_on_c, 9, 42, 90
1, 53952, Note_on_c, 9, 37, 127
1, 53976, Note_on_c, 2, 69, 0
1, 53976, Note_on_c, 2, 71, 0
1, 54000, Note_on_c, 1, 30, 0
1, 54000, Note_on_c, 9, 38, 0
1, 54000, Note_on_c, 9, 36, 0
1, 54000, Note_on_c, 9, 37, 0
1, 54000, Note_on_c, 9, 42, 0
1, 54000, Note_on_c, 2, 64, 0
1, 54016, Note_on_c, 3, 71, 0
1, 54048, Note_on_c, 1, 33, 127
1, 54048, Note_on_c, 2, 71, 64
1, 54048, Note_on_c, 2, 69, 64
1, 54048, Note_on_c, 2, 64, 64
1, 54048, Note_on_c, 3, 73, 127
1, 54048, Note_on_c, 9, 36, 127
1, 54048, Note_on_c, 9, 42, 90
1, 54072, Note_on_c, 2, 71, 0
1, 54080, Note_on_c, 2, 69, 0
1, 54088, Note_on_c, 2, 64, 0
1, 54096, Note_on_c, 9, 36, 0
1, 54096, Note_on_c, 1, 33, 0
1, 54096, Note_on_c, 9, 42, 0
1, 54112, Note_on_c, 3, 73, 0
1, 54144, Note_on_c, 1, 35, 127
1, 54144, Note_on_c, 2, 71, 64
1, 54144, Note_on_c, 2, 68, 64
1, 54144, Note_on_c, 2, 64, 64
1, 54144, Note_on_c, 3, 69, 127
1, 54144, Note_on_c, 9, 36, 127
1, 54144, Note_on_c, 9, 42, 90
1, 54168, Note_on_c, 2, 71, 0
1, 54176, Note_on_c, 2, 68, 0
1, 54184, Note_on_c, 2, 64, 0
1, 54192, Note_on_c, 9, 36, 0
1, 54192, Note_on_c, 9, 42, 0
1, 54240, Note_on_c, 1, 35, 0
1, 54240, Note_on_c, 2, 71, 64
1, 54240, Note_on_c, 2, 68, 64
1, 54240, Note_on_c, 2, 64, 64
1, 54240, Note_on_c, 9, 42, 90
1, 54256, Note_on_c, 3, 69, 0
1, 54264, Note_on_c, 2, 71, 0
1, 54272, Note_on_c, 2, 68, 0
1, 54288, Note_on_c, 2, 64, 0
1, 54288, Note_on_c, 9, 42, 0
1, 54288, Note_on_c, 1, 37, 127
1, 54336, Note_on_c, 2, 71, 64
1, 54336, Note_on_c, 2, 68, 64
1, 54336, Note_on_c, 2, 64, 64
1, 54336, Note_on_c, 3, 69, 127
1, 54336, Note_on_c, 9, 36, 127
1, 54336, Note_on_c, 9, 38, 127
1, 54336, Note_on_c, 9, 42, 90
1, 54336, Note_on_c, 9, 37, 127
1, 54360, Note_on_c, 2, 71, 0
1, 54384, Note_on_c, 2, 64, 0
1, 54384, Note_on_c, 1, 37, 0
1, 54384, Note_on_c, 9, 36, 0
1, 54384, Note_on_c, 2, 68, 0
1, 54384, Note_on_c, 9, 37, 0
1, 54384, Note_on_c, 9, 42, 0
1, 54384, Note_on_c, 9, 38, 0
1, 54408, Note_on_c, 3, 69, 0
1, 54432, Note_on_c, 1, 40, 127
1, 54432, Note_on_c, 2, 71, 64
1, 54432, Note_on_c, 2, 68, 64
1, 54432, Note_on_c, 2, 64, 64
1, 54432, Note_on_c, 3, 66, 127
1, 54432, Note_on_c, 9, 42, 90
1, 54464, Note_on_c, 2, 71, 0
1, 54472, Note_on_c, 2, 68, 0
1, 54480, Note_on_c, 2, 64, 0
1, 54480, Note_on_c, 1, 40, 0
1, 54480, Note_on_c, 9, 42, 0
1, 54504, Note_on_c, 3, 66, 0
1, 54528, Note_on_c, 1, 42, 127
1, 54528, Note_on_c, 2, 71, 64
1, 54528, Note_on_c, 2, 66, 64
1, 54528, Note_on_c, 2, 63, 64
1, 54528, Note_on_c, 3, 76, 127
1, 54528, Note_on_c, 9, 36, 127
1, 54528, Note_on_c, 9, 42, 90
1, 54560, Note_on_c, 2, 66, 0
1, 54560, Note_on_c, 2, 71, 0
1, 54576, Note_on_c, 9, 36, 0
1, 54576, Note_on_c, 2, 63, 0
1, 54576, Note_on_c, 9, 42, 0
1, 54624, Note_on_c, 1, 42, 0
1, 54624, Note_on_c, 2, 71, 64
1, 54624, Note_on_c, 2, 66, 64
1, 54624, Note_on_c, 2, 63, 64
1, 54624, Note_on_c, 9, 42, 90
1, 54656, Note_on_c, 2, 66, 0
1, 54664, Note_on_c, 2, 71, 0
1, 54672, Note_on_c, 9, 42, 0
1, 54672, Note_on_c, 2, 63, 0
1, 54672, Note_on_c, 3, 75, 127
1, 54680, Note_on_c, 3, 76, 0
1, 54720, Note_on_c, 1, 40, 127
1, 54720, Note_on_c, 2, 71, 64
1, 54720, Note_on_c, 2, 66, 64
1, 54720, Note_on_c, 2, 63, 64
1, 54720, Note_on_c, 9, 36, 127
1, 54720, Note_on_c, 9, 38, 127
1, 54720, Note_on_c, 9, 42, 90
1, 54720, Note_on_c, 9, 37, 127
1, 54752, Note_on_c, 2, 66, 0
1, 54760, Note_on_c, 2, 71, 0
1, 54768, Note_on_c, 9, 42, 0
1, 54768, Note_on_c, 9, 36, 0
1, 54768, Note_on_c, 9, 37, 0
1, 54768, Note_on_c, 2, 63, 0
1, 54768, Note_on_c, 9, 38, 0
1, 54784, Note_on_c, 3, 75, 0
1, 54816, Note_on_c, 1, 40, 0
1, 54816, Note_on_c, 1, 42, 127
1, 54816, Note_on_c, 2, 71, 64
1, 54816, Note_on_c, 2, 66, 64
1, 54816, Note_on_c, 2, 63, 64
1, 54816, Note_on_c, 3, 71, 127
1, 54816, Note_on_c, 9, 36, 127
1, 54816, Note_on_c, 9, 42, 90
1, 54856, Note_on_c, 2, 63, 0
1, 54856, Note_on_c, 2, 66, 0
1, 54864, Note_on_c, 2, 71, 0
1, 54864, Note_on_c, 9, 36, 0
1, 54864, Note_on_c, 1, 42, 0
1, 54864, Note_on_c, 9, 42, 0
1, 54912, Note_on_c, 1, 40, 127
1, 54912, Note_on_c, 2, 71, 64
1, 54912, Note_on_c, 2, 66, 64
1, 54912, Note_on_c, 2, 63, 64
1, 54912, Note_on_c, 9, 36, 127
1, 54912, Note_on_c, 9, 42, 90
1, 54952, Note_on_c, 2, 66, 0
1, 54952, Note_on_c, 2, 71, 0
1, 54960, Note_on_c, 9, 36, 0
1, 54960, Note_on_c, 2, 63, 0
1, 54960, Note_on_c, 9, 42, 0
1, 55008, Note_on_c, 1, 40, 0
1, 55008, Note_on_c, 2, 71, 64
1, 55008, Note_on_c, 2, 66, 64
1, 55008, Note_on_c, 2, 63, 64
1, 55008, Note_on_c, 9, 42, 90
1, 55048, Note_on_c, 2, 66, 0
1, 55048, Note_on_c, 2, 71, 0
1, 55056, Note_on_c, 9, 42, 0
1, 55056, Note_on_c, 2, 63, 0
1, 55104, Note_on_c, 1, 40, 127
1, 55104, Note_on_c, 2, 71, 64
1, 55104, Note_on_c, 2, 66, 64
1, 55104, Note_on_c, 2, 63, 64
1, 55104, Note_on_c, 9, 36, 127
1, 55104, Note_on_c, 9, 38, 127
1, 55104, Note_on_c, 9, 42, 90
1, 55104, Note_on_c, 9, 37, 127
1, 55136, Note_on_c, 3, 71, 0
1, 55144, Note_on_c, 2, 66, 0
1, 55144, Note_on_c, 2, 71, 0
1, 55152, Note_on_c, 9, 38, 0
1, 55152, Note_on_c, 9, 36, 0
1, 55152, Note_on_c, 2, 63, 0
1, 55152, Note_on_c, 9, 37, 0
1, 55152, Note_on_c, 1, 40, 0
1, 55152, Note_on_c, 9, 42, 0
1, 55152, Note_on_c, 1, 41, 127
1, 55200, Note_on_c, 1, 41, 0
1, 55200, Note_on_c, 1, 42, 127
1, 55200, Note_on_c, 2, 71, 64
1, 55200, Note_on_c, 2, 66, 64
1, 55200, Note_on_c, 2, 63, 64
1, 55200, Note_on_c, 9, 36, 127
1, 55200, Note_on_c, 9, 38, 127
1, 55200, Note_on_c, 9, 44, 90
1, 55240, Note_on_c, 2, 71, 0
1, 55248, Note_on_c, 9, 38, 0
1, 55248, Note_on_c, 2, 66, 0
1, 55248, Note_on_c, 2, 63, 0
1, 55248, Note_on_c, 1, 42, 0
1, 55248, Note_on_c, 9, 44, 0
1, 55248, Note_on_c, 9, 36, 0
1, 55248, Note_on_c, 1, 37, 127
1, 55248, Note_on_c, 9, 38, 127
1, 55296, Note_on_c, 9, 38, 0
1, 55296, Note_on_c, 1, 37, 0
1, 55296, Note_on_c, 1, 30, 127
1, 55296, Note_on_c, 2, 73, 64
1, 55296, Note_on_c, 2, 71, 64
1, 55296, Note_on_c, 2, 64, 64
1, 55296, Note_on_c, 6, 66, 28
1, 55296, Note_on_c, 9, 36, 127
1, 55296, Note_on_c, 9, 42, 90
1, 55320, Note_on_c, 6, 66, 0
1, 55320, Note_on_c, 2, 73, 0
1, 55328, Note_on_c, 2, 71, 0
1, 55336, Note_on_c, 2, 64, 0
1, 55344, Note_on_c, 1, 30, 0
1, 55344, Note_on_c, 9, 36, 0
1, 55344, Note_on_c, 9, 42, 0
1, 55344, Note_on_c, 1, 30, 127
1, 55344, Note_on_c, 2, 71, 64
1, 55344, Note_on_c, 2, 69, 64
1, 55344, Note_on_c, 2, 64, 64
1, 55344, Note_on_c, 6, 66, 28
1, 55368, Note_on_c, 2, 71, 0
1, 55376, Note_on_c, 6, 66, 0
1, 55376, Note_on_c, 2, 69, 0
1, 55384, Note_on_c, 2, 64, 0
1, 55392, Note_on_c, 1, 30, 0
1, 55392, Note_on_c, 1, 30, 127
1, 55392, Note_on_c, 2, 71, 64
1, 55392, Note_on_c, 2, 69, 64
1, 55392, Note_on_c, 2, 64, 64
1, 55392, Note_on_c, 6, 66, 28
1, 55392, Note_on_c, 9, 42, 90
1, 55416, Note_on_c, 2, 69, 0
1, 55416, Note_on_c, 2, 71, 0
1, 55432, Note_on_c, 6, 66, 0
1, 55440, Note_on_c, 1, 30, 0
1, 55440, Note_on_c, 9, 42, 0
1, 55440, Note_on_c, 2, 64, 0
1, 55488, Note_on_c, 1, 30, 127
1, 55488, Note_on_c, 2, 71, 64
1, 55488, Note_on_c, 2, 69, 64
1, 55488, Note_on_c, 2, 64, 64
1, 55488, Note_on_c, 6, 66, 28
1, 55488, Note_on_c, 9, 36, 127
1, 55488, Note_on_c, 9, 38, 127
1, 55488, Note_on_c, 9, 42, 90
1, 55488, Note_on_c, 9, 37, 127
1, 55512, Note_on_c, 2, 69, 0
1, 55512, Note_on_c, 2, 71, 0
1, 55536, Note_on_c, 1, 30, 0
1, 55536, Note_on_c, 9, 38, 0
1, 55536, Note_on_c, 9, 36, 0
1, 55536, Note_on_c, 2, 64, 0
1, 55536, Note_on_c, 9, 42, 0
1, 55536, Note_on_c, 6, 66, 0
1, 55536, Note_on_c, 9, 37, 0
1, 55584, Note_on_c, 1, 33, 127
1, 55584, Note_on_c, 2, 71, 64
1, 55584, Note_on_c, 2, 69, 64
1, 55584, Note_on_c, 2, 64, 64
1, 55584, Note_on_c, 6, 66, 28
1, 55584, Note_on_c, 9, 36, 127
1, 55584, Note_on_c, 9, 42, 90
1, 55608, Note_on_c, 2, 71, 0
1, 55616, Note_on_c, 6, 66, 0
1, 55616, Note_on_c, 2, 69, 0
1, 55624, Note_on_c, 2, 64, 0
1, 55632, Note_on_c, 1, 33, 0
1, 55632, Note_on_c, 9, 36, 0
1, 55632, Note_on_c, 9, 42, 0
1, 55680, Note_on_c, 1, 35, 127
1, 55680, Note_on_c, 2, 71, 64
1, 55680, Note_on_c, 2, 68, 64
1, 55680, Note_on_c, 2, 64, 64
1, 55680, Note_on_c, 3, 81, 127
1, 55680, Note_on_c, 4, 69, 127
1, 55680, Note_on_c, 6, 66, 28
1, 55680, Note_on_c, 9, 36, 127
1, 55680, Note_on_c, 9, 42, 90
1, 55704, Note_on_c, 2, 71, 0
1, 55712, Note_on_c, 6, 66, 0
1, 55712, Note_on_c, 2, 68, 0
1, 55720, Note_on_c, 2, 64, 0
1, 55728, Note_on_c, 9, 42, 0
1, 55728, Note_on_c, 3, 81, 0
1, 55728, Note_on_c, 4, 69, 0
1, 55728, Note_on_c, 3, 83, 127
1, 55728, Note_on_c, 4, 71, 127
1, 55776, Note_on_c, 4, 71, 0
1, 55776, Note_on_c, 1, 35, 0
1, 55776, Note_on_c, 9, 36, 0
1, 55776, Note_on_c, 3, 83, 0
1, 55776, Note_on_c, 2, 71, 64
1, 55776, Note_on_c, 2, 68, 64
1, 55776, Note_on_c, 2, 64, 64
1, 55776, Note_on_c, 3, 84, 127
1, 55776, Note_on_c, 4, 72, 127
1, 55776, Note_on_c, 9, 42, 90
1, 55800, Note_on_c, 2, 71, 0
1, 55808, Note_on_c, 2, 68, 0
1, 55824, Note_on_c, 4, 72, 0
1, 55824, Note_on_c, 3, 84, 0
1, 55824, Note_on_c, 9, 42, 0
1, 55824, Note_on_c, 2, 64, 0
1, 55824, Note_on_c, 1, 37, 127
1, 55824, Note_on_c, 3, 85, 127
1, 55824, Note_on_c, 4, 73, 127
1, 55824, Note_on_c, 6, 66, 28
1, 55856, Note_on_c, 6, 66, 0
1, 55872, Note_on_c, 2, 71, 64
1, 55872, Note_on_c, 2, 68, 64
1, 55872, Note_on_c, 2, 64, 64
1, 55872, Note_on_c, 9, 36, 127
1, 55872, Note_on_c, 9, 38, 127
1, 55872, Note_on_c, 9, 42, 90
1, 55872, Note_on_c, 9, 37, 127
1, 55896, Note_on_c, 2, 71, 0
1, 55920, Note_on_c, 1, 37, 0
1, 55920, Note_on_c, 2, 68, 0
1, 55920, Note_on_c, 9, 37, 0
1, 55920, Note_on_c, 2, 64, 0
1, 55920, Note_on_c, 9, 38, 0
1, 55920, Note_on_c, 9, 42, 0
1, 55920, Note_on_c, 9, 36, 0
1, 55920, Note_on_c, 1, 33, 127
1, 55920, Note_on_c, 6, 66, 28
1, 55936, Note_on_c, 6, 66, 0
1, 55968, Note_on_c, 4, 73, 0
1, 55968, Note_on_c, 3, 85, 0
1, 55968, Note_on_c, 1, 33, 0
1, 55968, Note_on_c, 1, 30, 127
1, 55968, Note_on_c, 2, 71, 64
1, 55968, Note_on_c, 2, 68, 64
1, 55968, Note_on_c, 2, 64, 64
1, 55968, Note_on_c, 6, 66, 28
1, 55968, Note_on_c, 9, 36, 127
1, 55968, Note_on_c, 9, 42, 90
1, 55992, Note_on_c, 6, 66, 0
1, 56000, Note_on_c, 2, 71, 0
1, 56008, Note_on_c, 2, 68, 0
1, 56016, Note_on_c, 2, 64, 0
1, 56016, Note_on_c, 9, 42, 0
1, 56016, Note_on_c, 9, 36, 0
1, 56064, Note_on_c, 1, 30, 0
1, 56064, Note_on_c, 2, 71, 64
1, 56064, Note_on_c, 2, 66, 64
1, 56064, Note_on_c, 2, 63, 64
1, 56064, Note_on_c, 3, 81, 127
1, 56064, Note_on_c, 4, 69, 127
1, 56064, Note_on_c, 9, 36, 127
1, 56064, Note_on_c, 9, 42, 90
1, 56096, Note_on_c, 2, 66, 0
1, 56096, Note_on_c, 2, 71, 0
1, 56112, Note_on_c, 2, 63, 0
1, 56112, Note_on_c, 4, 69, 0
1, 56112, Note_on_c, 3, 81, 0
1, 56112, Note_on_c, 9, 42, 0
1, 56112, Note_on_c, 9, 36, 0
1, 56112, Note_on_c, 3, 83, 127
1, 56112, Note_on_c, 4, 71, 127
1, 56160, Note_on_c, 4, 71, 0
1, 56160, Note_on_c, 3, 83, 0
1, 56160, Note_on_c, 2, 71, 64
1, 56160, Note_on_c, 2, 66, 64
1, 56160, Note_on_c, 2, 63, 64
1, 56160, Note_on_c, 3, 84, 127
1, 56160, Note_on_c, 4, 72, 127
1, 56160, Note_on_c, 9, 42, 90
1, 56192, Note_on_c, 2, 66, 0
1, 56200, Note_on_c, 2, 71, 0
1, 56208, Note_on_c, 4, 72, 0
1, 56208, Note_on_c, 3, 84, 0
1, 56208, Note_on_c, 9, 42, 0
1, 56208, Note_on_c, 2, 63, 0
1, 56208, Note_on_c, 3, 85, 127
1, 56208, Note_on_c, 4, 73, 127
1, 56208, Note_on_c, 6, 66, 28
1, 56216, Note_on_c, 6, 66, 0
1, 56256, Note_on_c, 2, 71, 64
1, 56256, Note_on_c, 2, 66, 64
1, 56256, Note_on_c, 2, 63, 64
1, 56256, Note_on_c, 9, 36, 127
1, 56256, Note_on_c, 9, 38, 127
1, 56256, Note_on_c, 9, 42, 90
1, 56256, Note_on_c, 9, 37, 127
1, 56288, Note_on_c, 2, 66, 0
1, 56296, Note_on_c, 2, 71, 0
1, 56304, Note_on_c, 9, 42, 0
1, 56304, Note_on_c, 9, 36, 0
1, 56304, Note_on_c, 9, 37, 0
1, 56304, Note_on_c, 2, 63, 0
1, 56304, Note_on_c, 9, 38, 0
1, 56304, Note_on_c, 1, 33, 127
1, 56304, Note_on_c, 6, 66, 28
1, 56352, Note_on_c, 6, 66, 0
1, 56352, Note_on_c, 4, 73, 0
1, 56352, Note_on_c, 3, 85, 0
1, 56352, Note_on_c, 1, 33, 0
1, 56352, Note_on_c, 1, 30, 127
1, 56352, Note_on_c, 2, 71, 64
1, 56352, Note_on_c, 2, 66, 64
1, 56352, Note_on_c, 2, 63, 64
1, 56352, Note_on_c, 9, 36, 127
1, 56352, Note_on_c, 9, 42, 90
1, 56392, Note_on_c, 2, 63, 0
1, 56392, Note_on_c, 2, 66, 0
1, 56400, Note_on_c, 9, 36, 0
1, 56400, Note_on_c, 2, 71, 0
1, 56400, Note_on_c, 9, 42, 0
1, 56448, Note_on_c, 1, 30, 0
1, 56448, Note_on_c, 1, 28, 127
1, 56448, Note_on_c, 2, 71, 64
1, 56448, Note_on_c, 2, 66, 64
1, 56448, Note_on_c, 2, 63, 64
1, 56448, Note_on_c, 5, 69, 127
1, 56448, Note_on_c, 6, 73, 28
1, 56448, Note_on_c, 9, 36, 127
1, 56448, Note_on_c, 9, 42, 90
1, 56488, Note_on_c, 2, 66, 0
1, 56488, Note_on_c, 2, 71, 0
1, 56496, Note_on_c, 9, 42, 0
1, 56496, Note_on_c, 2, 63, 0
1, 56496, Note_on_c, 9, 36, 0
1, 56544, Note_on_c, 1, 28, 0
1, 56544, Note_on_c, 2, 71, 64
1, 56544, Note_on_c, 2, 66, 64
1, 56544, Note_on_c, 2, 63, 64
1, 56544, Note_on_c, 9, 42, 90
1, 56584, Note_on_c, 2, 66, 0
1, 56584, Note_on_c, 2, 71, 0
1, 56592, Note_on_c, 2, 63, 0
1, 56592, Note_on_c, 9, 42, 0
1, 56592, Note_on_c, 9, 36, 127
1, 56640, Note_on_c, 9, 36, 0
1, 56640, Note_on_c, 6, 73, 0
1, 56640, Note_on_c, 5, 69, 0
1, 56640, Note_on_c, 1, 28, 127
1, 56640, Note_on_c, 2, 71, 64
1, 56640, Note_on_c, 2, 66, 64
1, 56640, Note_on_c, 2, 63, 64
1, 56640, Note_on_c, 6, 71, 28
1, 56640, Note_on_c, 9, 38, 127
1, 56640, Note_on_c, 9, 42, 90
1, 56640, Note_on_c, 9, 37, 127
1, 56648, Note_on_c, 5, 71, 127
1, 56680, Note_on_c, 2, 66, 0
1, 56680, Note_on_c, 2, 71, 0
1, 56688, Note_on_c, 1, 28, 0
1, 56688, Note_on_c, 9, 42, 0
1, 56688, Note_on_c, 9, 37, 0
1, 56688, Note_on_c, 2, 63, 0
1, 56688, Note_on_c, 9, 38, 0
1, 56728, Note_on_c, 6, 71, 0
1, 56736, Note_on_c, 1, 28, 127
1, 56736, Note_on_c, 2, 71, 64
1, 56736, Note_on_c, 2, 66, 64
1, 56736, Note_on_c, 2, 63, 64
1, 56736, Note_on_c, 6, 69, 28
1, 56736, Note_on_c, 9, 36, 127
1, 56736, Note_on_c, 9, 38, 127
1, 56736, Note_on_c, 9, 44, 90
1, 56776, Note_on_c, 2, 71, 0
1, 56784, Note_on_c, 2, 63, 0
1, 56784, Note_on_c, 9, 44, 0
1, 56784, Note_on_c, 1, 28, 0
1, 56784, Note_on_c, 9, 38, 0
1, 56784, Note_on_c, 2, 66, 0
1, 56784, Note_on_c, 9, 36, 0
1, 56784, Note_on_c, 9, 38, 127
1, 56808, Note_on_c, 5, 71, 0
1, 56832, Note_on_c, 9, 38, 0
1, 56832, Note_on_c, 6, 69, 0
1, 56832, Note_on_c, 1, 30, 127
1, 56832, Note_on_c, 2, 73, 64
1, 56832, Note_on_c, 2, 71, 64
1, 56832, Note_on_c, 2, 64, 64
1, 56832, Note_on_c, 5, 73, 127
1, 56832, Note_on_c, 6, 66, 28
1, 56832, Note_on_c, 9, 36, 127
1, 56832, Note_on_c, 9, 42, 90
1, 56856, Note_on_c, 2, 73, 0
1, 56864, Note_on_c, 2, 71, 0
1, 56872, Note_on_c, 2, 64, 0
1, 56872, Note_on_c, 6, 66, 0
1, 56880, Note_on_c, 9, 36, 0
1, 56880, Note_on_c, 9, 42, 0
1, 56880, Note_on_c, 1, 30, 0
1, 56880, Note_on_c, 1, 30, 127
1, 56880, Note_on_c, 2, 71, 64
1, 56880, Note_on_c, 2, 69, 64
1, 56880, Note_on_c, 2, 64, 64
1, 56904, Note_on_c, 2, 71, 0
1, 56912, Note_on_c, 2, 69, 0
1, 56912, Note_on_c, 5, 73, 0
1, 56920, Note_on_c, 2, 64, 0
1, 56928, Note_on_c, 1, 30, 0
1, 56928, Note_on_c, 1, 30, 127
1, 56928, Note_on_c, 2, 71, 64
1, 56928, Note_on_c, 2, 69, 64
1, 56928, Note_on_c, 2, 64, 64
1, 56928, Note_on_c, 9, 42, 90
1, 56936, Note_on_c, 5, 73, 127
1, 56952, Note_on_c, 2, 69, 0
1, 56952, Note_on_c, 2, 71, 0
1, 56976, Note_on_c, 2, 64, 0
1, 56976, Note_on_c, 1, 30, 0
1, 56976, Note_on_c, 9, 42, 0
1, 56976, Note_on_c, 6, 66, 28
1, 57024, Note_on_c, 6, 66, 0
1, 57024, Note_on_c, 5, 73, 0
1, 57024, Note_on_c, 1, 30, 127
1, 57024, Note_on_c, 2, 71, 64
1, 57024, Note_on_c, 2, 69, 64
1, 57024, Note_on_c, 2, 64, 64
1, 57024, Note_on_c, 9, 36, 127
1, 57024, Note_on_c, 9, 38, 127
1, 57024, Note_on_c, 9, 42, 90
1, 57024, Note_on_c, 9, 37, 127
1, 57048, Note_on_c, 2, 69, 0
1, 57048, Note_on_c, 2, 71, 0
1, 57072, Note_on_c, 9, 42, 0
1, 57072, Note_on_c, 9, 38, 0
1, 57072, Note_on_c, 2, 64, 0
1, 57072, Note_on_c, 9, 36, 0
1, 57072, Note_on_c, 1, 30, 0
1, 57072, Note_on_c, 9, 37, 0
1, 57120, Note_on_c, 1, 33, 127
1, 57120, Note_on_c, 2, 71, 64
1, 57120, Note_on_c, 2, 69, 64
1, 57120, Note_on_c, 2, 64, 64
1, 57120, Note_on_c, 6, 66, 28
1, 57120, Note_on_c, 9, 36, 127
1, 57120, Note_on_c, 9, 42, 90
1, 57136, Note_on_c, 6, 66, 0
1, 57144, Note_on_c, 2, 71, 0
1, 57152, Note_on_c, 2, 69, 0
1, 57160, Note_on_c, 2, 64, 0
1, 57168, Note_on_c, 1, 33, 0
1, 57168, Note_on_c, 9, 36, 0
1, 57168, Note_on_c, 9, 42, 0
1, 57216, Note_on_c, 1, 35, 127
1, 57216, Note_on_c, 2, 71, 64
1, 57216, Note_on_c, 2, 68, 64
1, 57216, Note_on_c, 2, 64, 64
1, 57216, Note_on_c, 3, 81, 127
1, 57216, Note_on_c, 4, 69, 127
1, 57216, Note_on_c, 6, 66, 28
1, 57216, Note_on_c, 9, 36, 127
1, 57216, Note_on_c, 9, 42, 90
1, 57240, Note_on_c, 2, 71, 0
1, 57248, Note_on_c, 2, 68, 0
1, 57256, Note_on_c, 2, 64, 0
1, 57256, Note_on_c, 6, 66, 0
1, 57264, Note_on_c, 9, 42, 0
1, 57264, Note_on_c, 3, 81, 0
1, 57264, Note_on_c, 4, 69, 0
1, 57264, Note_on_c, 3, 83, 127
1, 57264, Note_on_c, 4, 71, 127
1, 57264, Note_on_c, 6, 69, 28
1, 57296, Note_on_c, 6, 69, 0
1, 57312, Note_on_c, 3, 83, 0
1, 57312, Note_on_c, 9, 36, 0
1, 57312, Note_on_c, 1, 35, 0
1, 57312, Note_on_c, 4, 71, 0
1, 57312, Note_on_c, 2, 71, 64
1, 57312, Note_on_c, 2, 68, 64
1, 57312, Note_on_c, 2, 64, 64
1, 57312, Note_on_c, 3, 84, 127
1, 57312, Note_on_c, 4, 72, 127
1, 57312, Note_on_c, 6, 71, 28
1, 57312, Note_on_c, 9, 42, 90
1, 57336, Note_on_c, 6, 71, 0
1, 57336, Note_on_c, 2, 71, 0
1, 57344, Note_on_c, 2, 68, 0
1, 57360, Note_on_c, 4, 72, 0
1, 57360, Note_on_c, 3, 84, 0
1, 57360, Note_on_c, 9, 42, 0
1, 57360, Note_on_c, 2, 64, 0
1, 57360, Note_on_c, 1, 37, 127
1, 57360, Note_on_c, 3, 85, 127
1, 57360, Note_on_c, 4, 73, 127
1, 57360, Note_on_c, 6, 73, 28
1, 57408, Note_on_c, 2, 71, 64
1, 57408, Note_on_c, 2, 68, 64
1, 57408, Note_on_c, 2, 64, 64
1, 57408, Note_on_c, 9, 36, 127
1, 57408, Note_on_c, 9, 38, 127
1, 57408, Note_on_c, 9, 42, 90
1, 57408, Note_on_c, 9, 37, 127
1, 57424, Note_on_c, 6, 73, 0
1, 57432, Note_on_c, 2, 71, 0
1, 57456, Note_on_c, 4, 73, 0
1, 57456, Note_on_c, 9, 36, 0
1, 57456, Note_on_c, 9, 42, 0
1, 57456, Note_on_c, 2, 68, 0
1, 57456, Note_on_c, 1, 37, 0
1, 57456, Note_on_c, 9, 37, 0
1, 57456, Note_on_c, 9, 38, 0
1, 57456, Note_on_c, 2, 64, 0
1, 57464, Note_on_c, 5, 69, 127
1, 57496, Note_on_c, 5, 69, 0
1, 57504, Note_on_c, 3, 85, 0
1, 57504, Note_on_c, 1, 40, 127
1, 57504, Note_on_c, 2, 71, 64
1, 57504, Note_on_c, 2, 68, 64
1, 57504, Note_on_c, 2, 64, 64
1, 57504, Note_on_c, 9, 36, 127
1, 57504, Note_on_c, 9, 42, 90
1, 57512, Note_on_c, 5, 71, 127
1, 57536, Note_on_c, 2, 71, 0
1, 57544, Note_on_c, 2, 68, 0
1, 57552, Note_on_c, 9, 42, 0
1, 57552, Note_on_c, 2, 64, 0
1, 57552, Note_on_c, 1, 40, 0
1, 57552, Note_on_c, 5, 71, 0
1, 57552, Note_on_c, 9, 36, 0
1, 57568, Note_on_c, 5, 73, 127
1, 57600, Note_on_c, 1, 42, 127
1, 57600, Note_on_c, 2, 71, 64
1, 57600, Note_on_c, 2, 66, 64
1, 57600, Note_on_c, 2, 63, 64
1, 57600, Note_on_c, 6, 66, 28
1, 57600, Note_on_c, 9, 36, 127
1, 57600, Note_on_c, 9, 42, 90
1, 57616, Note_on_c, 6, 66, 0
1, 57624, Note_on_c, 5, 73, 0
1, 57632, Note_on_c, 2, 66, 0
1, 57632, Note_on_c, 2, 71, 0
1, 57648, Note_on_c, 2, 63, 0
1, 57648, Note_on_c, 9, 42, 0
1, 57648, Note_on_c, 6, 69, 28
1, 57656, Note_on_c, 6, 69, 0
1, 57696, Note_on_c, 1, 42, 0
1, 57696, Note_on_c, 2, 71, 64
1, 57696, Note_on_c, 2, 66, 64
1, 57696, Note_on_c, 2, 63, 64
1, 57696, Note_on_c, 6, 71, 28
1, 57696, Note_on_c, 9, 42, 90
1, 57712, Note_on_c, 6, 71, 0
1, 57712, Note_on_c, 5, 73, 127
1, 57728, Note_on_c, 2, 66, 0
1, 57736, Note_on_c, 2, 71, 0
1, 57744, Note_on_c, 2, 63, 0
1, 57744, Note_on_c, 9, 36, 0
1, 57744, Note_on_c, 9, 42, 0
1, 57744, Note_on_c, 6, 73, 28
1, 57792, Note_on_c, 6, 73, 0
1, 57792, Note_on_c, 1, 40, 127
1, 57792, Note_on_c, 2, 71, 64
1, 57792, Note_on_c, 2, 66, 64
1, 57792, Note_on_c, 2, 63, 64
1, 57792, Note_on_c, 9, 36, 127
1, 57792, Note_on_c, 9, 38, 127
1, 57792, Note_on_c, 9, 42, 90
1, 57792, Note_on_c, 9, 37, 127
1, 57816, Note_on_c, 5, 73, 0
1, 57824, Note_on_c, 2, 66, 0
1, 57832, Note_on_c, 2, 71, 0
1, 57840, Note_on_c, 9, 38, 0
1, 57840, Note_on_c, 9, 36, 0
1, 57840, Note_on_c, 2, 63, 0
1, 57840, Note_on_c, 9, 37, 0
1, 57840, Note_on_c, 1, 40, 0
1, 57840, Note_on_c, 9, 42, 0
1, 57840, Note_on_c, 5, 71, 127
1, 57840, Note_on_c, 6, 73, 28
1, 57864, Note_on_c, 6, 73, 0
1, 57888, Note_on_c, 1, 42, 127
1, 57888, Note_on_c, 2, 71, 64
1, 57888, Note_on_c, 2, 66, 64
1, 57888, Note_on_c, 2, 63, 64
1, 57888, Note_on_c, 9, 36, 127
1, 57888, Note_on_c, 9, 42, 90
1, 57928, Note_on_c, 2, 63, 0
1, 57928, Note_on_c, 2, 66, 0
1, 57936, Note_on_c, 1, 42, 0
1, 57936, Note_on_c, 2, 71, 0
1, 57936, Note_on_c, 9, 36, 0
1, 57936, Note_on_c, 9, 42, 0
1, 57960, Note_on_c, 5, 71, 0
1, 57984, Note_on_c, 1, 40, 127
1, 57984, Note_on_c, 2, 71, 64
1, 57984, Note_on_c, 2, 66, 64
1, 57984, Note_on_c, 2, 63, 64
1, 57984, Note_on_c, 9, 36, 127
1, 57984, Note_on_c, 9, 42, 90
1, 57992, Note_on_c, 5, 71, 127
1, 58024, Note_on_c, 2, 66, 0
1, 58024, Note_on_c, 2, 71, 0
1, 58032, Note_on_c, 2, 63, 0
1, 58032, Note_on_c, 9, 42, 0
1, 58080, Note_on_c, 1, 40, 0
1, 58080, Note_on_c, 9, 36, 0
1, 58080, Note_on_c, 2, 71, 64
1, 58080, Note_on_c, 2, 66, 64
1, 58080, Note_on_c, 2, 63, 64
1, 58080, Note_on_c, 6, 69, 28
1, 58080, Note_on_c, 9, 42, 90
1, 58120, Note_on_c, 6, 69, 0
1, 58120, Note_on_c, 2, 66, 0
1, 58120, Note_on_c, 2, 71, 0
1, 58128, Note_on_c, 9, 42, 0
1, 58128, Note_on_c, 2, 63, 0
1, 58128, Note_on_c, 6, 71, 28
1, 58128, Note_on_c, 9, 36, 127
1, 58152, Note_on_c, 5, 71, 0
1, 58160, Note_on_c, 6, 71, 0
1, 58176, Note_on_c, 9, 36, 0
1, 58176, Note_on_c, 1, 40, 127
1, 58176, Note_on_c, 2, 71, 64
1, 58176, Note_on_c, 2, 66, 64
1, 58176, Note_on_c, 2, 63, 64
1, 58176, Note_on_c, 5, 69, 127
1, 58176, Note_on_c, 9, 36, 127
1, 58176, Note_on_c, 9, 38, 127
1, 58176, Note_on_c, 9, 42, 90
1, 58176, Note_on_c, 9, 37, 127
1, 58208, Note_on_c, 5, 69, 0
1, 58216, Note_on_c, 2, 66, 0
1, 58216, Note_on_c, 2, 71, 0
1, 58216, Note_on_c, 5, 66, 127
1, 58224, Note_on_c, 9, 38, 0
1, 58224, Note_on_c, 9, 42, 0
1, 58224, Note_on_c, 9, 36, 0
1, 58224, Note_on_c, 2, 63, 0
1, 58224, Note_on_c, 9, 37, 0
1, 58224, Note_on_c, 1, 40, 0
1, 58224, Note_on_c, 1, 41, 127
1, 58224, Note_on_c, 6, 73, 28
1, 58224, Note_on_c, 6, 73, 0
1, 58272, Note_on_c, 1, 41, 0
1, 58272, Note_on_c, 1, 42, 127
1, 58272, Note_on_c, 2, 71, 64
1, 58272, Note_on_c, 2, 66, 64
1, 58272, Note_on_c, 2, 63, 64
1, 58272, Note_on_c, 9, 36, 127
1, 58272, Note_on_c, 9, 38, 127
1, 58272, Note_on_c, 9, 44, 90
1, 58312, Note_on_c, 2, 71, 0
1, 58320, Note_on_c, 9, 44, 0
1, 58320, Note_on_c, 9, 36, 0
1, 58320, Note_on_c, 1, 42, 0
1, 58320, Note_on_c, 2, 66, 0
1, 58320, Note_on_c, 2, 63, 0
1, 58320, Note_on_c, 9, 38, 0
1, 58320, Note_on_c, 1, 37, 127
1, 58320, Note_on_c, 6, 73, 28
1, 58320, Note_on_c, 9, 38, 127
1, 58368, Note_on_c, 9, 38, 0
1, 58368, Note_on_c, 1, 37, 0
1, 58368, Note_on_c, 1, 30, 127
1, 58368, Note_on_c, 2, 73, 64
1, 58368, Note_on_c, 2, 71, 64
1, 58368, Note_on_c, 2, 64, 64
1, 58368, Note_on_c, 9, 36, 127
1, 58368, Note_on_c, 9, 42, 90
1, 58384, Note_on_c, 5, 66, 0
1, 58392, Note_on_c, 2, 73, 0
1, 58400, Note_on_c, 2, 71, 0
1, 58408, Note_on_c, 2, 64, 0
1, 58416, Note_on_c, 9, 42, 0
1, 58416, Note_on_c, 1, 30, 0
1, 58416, Note_on_c, 1, 30, 127
1, 58416, Note_on_c, 2, 71, 64
1, 58416, Note_on_c, 2, 69, 64
1, 58416, Note_on_c, 2, 64, 64
1, 58416, Note_on_c, 6, 73, 28
1, 58424, Note_on_c, 6, 73, 0
1, 58440, Note_on_c, 2, 71, 0
1, 58448, Note_on_c, 2, 69, 0
1, 58456, Note_on_c, 2, 64, 0
1, 58464, Note_on_c, 9, 36, 0
1, 58464, Note_on_c, 1, 30, 0
1, 58464, Note_on_c, 1, 30, 127
1, 58464, Note_on_c, 2, 71, 64
1, 58464, Note_on_c, 2, 69, 64
1, 58464, Note_on_c, 2, 64, 64
1, 58464, Note_on_c, 9, 42, 90
1, 58488, Note_on_c, 2, 69, 0
1, 58488, Note_on_c, 2, 71, 0
1, 58512, Note_on_c, 2, 64, 0
1, 58512, Note_on_c, 1, 30, 0
1, 58512, Note_on_c, 9, 42, 0
1, 58560, Note_on_c, 1, 30, 127
1, 58560, Note_on_c, 2, 71, 64
1, 58560, Note_on_c, 2, 69, 64
1, 58560, Note_on_c, 2, 64, 64
1, 58560, Note_on_c, 9, 36, 127
1, 58560, Note_on_c, 9, 38, 127
1, 58560, Note_on_c, 9, 42, 90
1, 58560, Note_on_c, 9, 37, 127
1, 58584, Note_on_c, 2, 69, 0
1, 58584, Note_on_c, 2, 71, 0
1, 58608, Note_on_c, 9, 42, 0
1, 58608, Note_on_c, 9, 36, 0
1, 58608, Note_on_c, 1, 30, 0
1, 58608, Note_on_c, 2, 64, 0
1, 58608, Note_on_c, 9, 37, 0
1, 58608, Note_on_c, 9, 38, 0
1, 58656, Note_on_c, 1, 33, 127
1, 58656, Note_on_c, 2, 71, 64
1, 58656, Note_on_c, 2, 69, 64
1, 58656, Note_on_c, 2, 64, 64
1, 58656, Note_on_c, 9, 36, 127
1, 58656, Note_on_c, 9, 42, 90
1, 58680, Note_on_c, 2, 71, 0
1, 58688, Note_on_c, 2, 69, 0
1, 58696, Note_on_c, 2, 64, 0
1, 58704, Note_on_c, 9, 36, 0
1, 58704, Note_on_c, 1, 33, 0
1, 58704, Note_on_c, 9, 42, 0
1, 58752, Note_on_c, 1, 35, 127
1, 58752, Note_on_c, 2, 71, 64
1, 58752, Note_on_c, 2, 68, 64
1, 58752, Note_on_c, 2, 64, 64
1, 58752, Note_on_c, 3, 81, 127
1, 58752, Note_on_c, 4, 69, 127
1, 58752, Note_on_c, 6, 73, 28
1, 58752, Note_on_c, 9, 36, 127
1, 58752, Note_on_c, 9, 42, 90
1, 58776, Note_on_c, 2, 71, 0
1, 58784, Note_on_c, 2, 68, 0
1, 58784, Note_on_c, 6, 73, 0
1, 58792, Note_on_c, 2, 64, 0
1, 58800, Note_on_c, 4, 69, 0
1, 58800, Note_on_c, 9, 42, 0
1, 58800, Note_on_c, 3, 81, 0
1, 58800, Note_on_c, 3, 83, 127
1, 58800, Note_on_c, 4, 71, 127
1, 58800, Note_on_c, 6, 71, 28
1, 58832, Note_on_c, 6, 71, 0
1, 58848, Note_on_c, 3, 83, 0
1, 58848, Note_on_c, 1, 35, 0
1, 58848, Note_on_c, 4, 71, 0
1, 58848, Note_on_c, 2, 71, 64
1, 58848, Note_on_c, 2, 68, 64
1, 58848, Note_on_c, 2, 64, 64
1, 58848, Note_on_c, 3, 84, 127
1, 58848, Note_on_c, 4, 72, 127
1, 58848, Note_on_c, 6, 69, 28
1, 58848, Note_on_c, 9, 42, 90
1, 58872, Note_on_c, 6, 69, 0
1, 58872, Note_on_c, 2, 71, 0
1, 58880, Note_on_c, 2, 68, 0
1, 58896, Note_on_c, 3, 84, 0
1, 58896, Note_on_c, 9, 36, 0
1, 58896, Note_on_c, 2, 64, 0
1, 58896, Note_on_c, 9, 42, 0
1, 58896, Note_on_c, 4, 72, 0
1, 58896, Note_on_c, 1, 37, 127
1, 58896, Note_on_c, 3, 85, 127
1, 58896, Note_on_c, 4, 73, 127
1, 58896, Note_on_c, 6, 66, 28
1, 58944, Note_on_c, 6, 66, 0
1, 58944, Note_on_c, 1, 37, 0
1, 58944, Note_on_c, 2, 71, 64
1, 58944, Note_on_c, 2, 68, 64
1, 58944, Note_on_c, 2, 64, 64
1, 58944, Note_on_c, 9, 36, 127
1, 58944, Note_on_c, 9, 38, 127
1, 58944, Note_on_c, 9, 42, 90
1, 58944, Note_on_c, 9, 37, 127
1, 58968, Note_on_c, 2, 71, 0
1, 58992, Note_on_c, 9, 37, 0
1, 58992, Note_on_c, 9, 38, 0
1, 58992, Note_on_c, 2, 68, 0
1, 58992, Note_on_c, 2, 64, 0
1, 58992, Note_on_c, 9, 42, 0
1, 58992, Note_on_c, 9, 36, 0
1, 58992, Note_on_c, 1, 33, 127
1, 59040, Note_on_c, 1, 33, 0
1, 59040, Note_on_c, 3, 85, 0
1, 59040, Note_on_c, 4, 73, 0
1, 59040, Note_on_c, 1, 30, 127
1, 59040, Note_on_c, 2, 71, 64
1, 59040, Note_on_c, 2, 68, 64
1, 59040, Note_on_c, 2, 64, 64
1, 59040, Note_on_c, 9, 42, 90
1, 59072, Note_on_c, 2, 71, 0
1, 59080, Note_on_c, 2, 68, 0
1, 59088, Note_on_c, 2, 64, 0
1, 59088, Note_on_c, 9, 42, 0
1, 59136, Note_on_c, 1, 30, 0
1, 59136, Note_on_c, 2, 71, 64
1, 59136, Note_on_c, 2, 66, 64
1, 59136, Note_on_c, 2, 63, 64
1, 59136, Note_on_c, 3, 81, 127
1, 59136, Note_on_c, 4, 69, 127
1, 59136, Note_on_c, 6, 73, 28
1, 59136, Note_on_c, 9, 36, 127
1, 59136, Note_on_c, 9, 42, 90
1, 59160, Note_on_c, 6, 73, 0
1, 59168, Note_on_c, 2, 71, 0
1, 59168, Note_on_c, 2, 66, 0
1, 59184, Note_on_c, 9, 36, 0
1, 59184, Note_on_c, 4, 69, 0
1, 59184, Note_on_c, 3, 81, 0
1, 59184, Note_on_c, 9, 42, 0
1, 59184, Note_on_c, 2, 63, 0
1, 59184, Note_on_c, 3, 83, 127
1, 59184, Note_on_c, 4, 71, 127
1, 59184, Note_on_c, 6, 71, 28
1, 59208, Note_on_c, 6, 71, 0
1, 59232, Note_on_c, 4, 71, 0
1, 59232, Note_on_c, 3, 83, 0
1, 59232, Note_on_c, 2, 71, 64
1, 59232, Note_on_c, 2, 66, 64
1, 59232, Note_on_c, 2, 63, 64
1, 59232, Note_on_c, 3, 84, 127
1, 59232, Note_on_c, 4, 72, 127
1, 59232, Note_on_c, 6, 69, 28
1, 59232, Note_on_c, 9, 42, 90
1, 59256, Note_on_c, 6, 69, 0
1, 59264, Note_on_c, 2, 66, 0
1, 59272, Note_on_c, 2, 71, 0
1, 59280, Note_on_c, 9, 42, 0
1, 59280, Note_on_c, 2, 63, 0
1, 59280, Note_on_c, 3, 84, 0
1, 59280, Note_on_c, 4, 72, 0
1, 59280, Note_on_c, 3, 85, 127
1, 59280, Note_on_c, 3, 85, 127
1, 59280, Note_on_c, 4, 73, 127
1, 59280, Note_on_c, 6, 66, 28
1, 59312, Note_on_c, 6, 66, 0
1, 59328, Note_on_c, 3, 85, 0
1, 59328, Note_on_c, 2, 71, 64
1, 59328, Note_on_c, 2, 66, 64
1, 59328, Note_on_c, 2, 63, 64
1, 59328, Note_on_c, 9, 36, 127
1, 59328, Note_on_c, 9, 38, 127
1, 59328, Note_on_c, 9, 42, 90
1, 59328, Note_on_c, 9, 37, 127
1, 59360, Note_on_c, 2, 66, 0
1, 59368, Note_on_c, 2, 71, 0
1, 59376, Note_on_c, 9, 42, 0
1, 59376, Note_on_c, 9, 38, 0
1, 59376, Note_on_c, 2, 63, 0
1, 59376, Note_on_c, 9, 37, 0
1, 59376, Note_on_c, 9, 36, 0
1, 59376, Note_on_c, 1, 33, 127
1, 59424, Note_on_c, 1, 33, 0
1, 59424, Note_on_c, 3, 85, 0
1, 59424, Note_on_c, 4, 73, 0
1, 59424, Note_on_c, 1, 30, 127
1, 59424, Note_on_c, 2, 71, 64
1, 59424, Note_on_c, 2, 66, 64
1, 59424, Note_on_c, 2, 63, 64
1, 59424, Note_on_c, 9, 36, 127
1, 59424, Note_on_c, 9, 42, 90
1, 59464, Note_on_c, 2, 63, 0
1, 59464, Note_on_c, 2, 66, 0
1, 59472, Note_on_c, 1, 30, 0
1, 59472, Note_on_c, 2, 71, 0
1, 59472, Note_on_c, 9, 36, 0
1, 59472, Note_on_c, 9, 42, 0
1, 59520, Note_on_c, 1, 28, 127
1, 59520, Note_on_c, 2, 71, 64
1, 59520, Note_on_c, 2, 66, 64
1, 59520, Note_on_c, 2, 63, 64
1, 59520, Note_on_c, 5, 69, 127
1, 59520, Note_on_c, 9, 36, 127
1, 59520, Note_on_c, 9, 42, 90
1, 59560, Note_on_c, 2, 66, 0
1, 59560, Note_on_c, 2, 71, 0
1, 59568, Note_on_c, 9, 42, 0
1, 59568, Note_on_c, 2, 63, 0
1, 59568, Note_on_c, 9, 36, 0
1, 59616, Note_on_c, 1, 28, 0
1, 59616, Note_on_c, 2, 71, 64
1, 59616, Note_on_c, 2, 66, 64
1, 59616, Note_on_c, 2, 63, 64
1, 59616, Note_on_c, 9, 42, 90
1, 59656, Note_on_c, 2, 66, 0
1, 59656, Note_on_c, 2, 71, 0
1, 59664, Note_on_c, 2, 63, 0
1, 59664, Note_on_c, 9, 42, 0
1, 59704, Note_on_c, 5, 69, 0
1, 59712, Note_on_c, 1, 28, 127
1, 59712, Note_on_c, 2, 71, 64
1, 59712, Note_on_c, 2, 66, 64
1, 59712, Note_on_c, 2, 63, 64
1, 59712, Note_on_c, 6, 66, 28
1, 59712, Note_on_c, 9, 36, 127
1, 59712, Note_on_c, 9, 38, 127
1, 59712, Note_on_c, 9, 42, 90
1, 59712, Note_on_c, 9, 37, 127
1, 59720, Note_on_c, 5, 71, 127
1, 59744, Note_on_c, 6, 66, 0
1, 59752, Note_on_c, 2, 71, 0
1, 59752, Note_on_c, 2, 66, 0
1, 59760, Note_on_c, 9, 42, 0
1, 59760, Note_on_c, 9, 38, 0
1, 59760, Note_on_c, 9, 36, 0
1, 59760, Note_on_c, 1, 28, 0
1, 59760, Note_on_c, 9, 37, 0
1, 59760, Note_on_c, 2, 63, 0
1, 59760, Note_on_c, 6, 76, 28
1, 59784, Note_on_c, 6, 76, 0
1, 59808, Note_on_c, 1, 28, 127
1, 59808, Note_on_c, 2, 71, 64
1, 59808, Note_on_c, 2, 66, 64
1, 59808, Note_on_c, 2, 63, 64
1, 59808, Note_on_c, 6, 78, 28
1, 59808, Note_on_c, 9, 36, 127
1, 59808, Note_on_c, 9, 42, 90
1, 59832, Note_on_c, 6, 78, 0
1, 59848, Note_on_c, 2, 71, 0
1, 59856, Note_on_c, 9, 42, 0
1, 59856, Note_on_c, 2, 63, 0
1, 59856, Note_on_c, 9, 36, 0
1, 59856, Note_on_c, 1, 28, 0
1, 59856, Note_on_c, 2, 66, 0
1, 59856, Note_on_c, 6, 78, 28
1, 59880, Note_on_c, 6, 78, 0
1, 59880, Note_on_c, 5, 71, 0
1, 59904, Note_on_c, 1, 30, 127
1, 59904, Note_on_c, 2, 73, 64
1, 59904, Note_on_c, 2, 71, 64
1, 59904, Note_on_c, 2, 64, 64
1, 59904, Note_on_c, 5, 73, 127
1, 59904, Note_on_c, 9, 36, 127
1, 59904, Note_on_c, 9, 42, 90
1, 59928, Note_on_c, 2, 73, 0
1, 59936, Note_on_c, 2, 71, 0
1, 59944, Note_on_c, 2, 64, 0
1, 59952, Note_on_c, 1, 30, 0
1, 59952, Note_on_c, 9, 42, 0
1, 59952, Note_on_c, 9, 36, 0
1, 59952, Note_on_c, 1, 30, 127
1, 59952, Note_on_c, 2, 71, 64
1, 59952, Note_on_c, 2, 69, 64
1, 59952, Note_on_c, 2, 64, 64
1, 59976, Note_on_c, 2, 71, 0
1, 59984, Note_on_c, 2, 69, 0
1, 59984, Note_on_c, 5, 73, 0
1, 59992, Note_on_c, 2, 64, 0
1, 60000, Note_on_c, 1, 30, 0
1, 60000, Note_on_c, 1, 30, 127
1, 60000, Note_on_c, 2, 71, 64
1, 60000, Note_on_c, 2, 69, 64
1, 60000, Note_on_c, 2, 64, 64
1, 60000, Note_on_c, 9, 42, 90
1, 60008, Note_on_c, 5, 73, 127
1, 60024, Note_on_c, 2, 69, 0
1, 60024, Note_on_c, 2, 71, 0
1, 60048, Note_on_c, 1, 30, 0
1, 60048, Note_on_c, 2, 64, 0
1, 60048, Note_on_c, 9, 42, 0
1, 60096, Note_on_c, 1, 30, 127
1, 60096, Note_on_c, 2, 71, 64
1, 60096, Note_on_c, 2, 69, 64
1, 60096, Note_on_c, 2, 64, 64
1, 60096, Note_on_c, 9, 36, 127
1, 60096, Note_on_c, 9, 38, 127
1, 60096, Note_on_c, 9, 42, 90
1, 60096, Note_on_c, 9, 37, 127
1, 60112, Note_on_c, 5, 73, 0
1, 60120, Note_on_c, 2, 69, 0
1, 60120, Note_on_c, 2, 71, 0
1, 60144, Note_on_c, 9, 38, 0
1, 60144, Note_on_c, 2, 64, 0
1, 60144, Note_on_c, 1, 30, 0
1, 60144, Note_on_c, 9, 37, 0
1, 60144, Note_on_c, 9, 42, 0
1, 60144, Note_on_c, 9, 36, 0
1, 60192, Note_on_c, 1, 33, 127
1, 60192, Note_on_c, 2, 71, 64
1, 60192, Note_on_c, 2, 69, 64
1, 60192, Note_on_c, 2, 64, 64
1, 60192, Note_on_c, 9, 36, 127
1, 60192, Note_on_c, 9, 42, 90
1, 60216, Note_on_c, 2, 71, 0
1, 60224, Note_on_c, 2, 69, 0
1, 60232, Note_on_c, 2, 64, 0
1, 60240, Note_on_c, 9, 36, 0
1, 60240, Note_on_c, 1, 33, 0
1, 60240, Note_on_c, 9, 42, 0
1, 60288, Note_on_c, 1, 35, 127
1, 60288, Note_on_c, 2, 71, 64
1, 60288, Note_on_c, 2, 68, 64
1, 60288, Note_on_c, 2, 64, 64
1, 60288, Note_on_c, 3, 81, 127
1, 60288, Note_on_c, 4, 69, 127
1, 60288, Note_on_c, 9, 36, 127
1, 60288, Note_on_c, 9, 42, 90
1, 60312, Note_on_c, 2, 71, 0
1, 60320, Note_on_c, 2, 68, 0
1, 60328, Note_on_c, 2, 64, 0
1, 60336, Note_on_c, 3, 81, 0
1, 60336, Note_on_c, 9, 42, 0
1, 60336, Note_on_c, 9, 36, 0
1, 60336, Note_on_c, 4, 69, 0
1, 60336, Note_on_c, 3, 83, 127
1, 60336, Note_on_c, 4, 71, 127
1, 60384, Note_on_c, 4, 71, 0
1, 60384, Note_on_c, 3, 83, 0
1, 60384, Note_on_c, 1, 35, 0
1, 60384, Note_on_c, 2, 71, 64
1, 60384, Note_on_c, 2, 68, 64
1, 60384, Note_on_c, 2, 64, 64
1, 60384, Note_on_c, 3, 84, 127
1, 60384, Note_on_c, 4, 72, 127
1, 60384, Note_on_c, 9, 42, 90
1, 60408, Note_on_c, 2, 71, 0
1, 60416, Note_on_c, 2, 68, 0
1, 60432, Note_on_c, 4, 72, 0
1, 60432, Note_on_c, 2, 64, 0
1, 60432, Note_on_c, 3, 84, 0
1, 60432, Note_on_c, 9, 42, 0
1, 60432, Note_on_c, 1, 37, 127
1, 60432, Note_on_c, 3, 85, 127
1, 60432, Note_on_c, 4, 73, 127
1, 60432, Note_on_c, 9, 36, 127
1, 60480, Note_on_c, 9, 36, 0
1, 60480, Note_on_c, 2, 71, 64
1, 60480, Note_on_c, 2, 68, 64
1, 60480, Note_on_c, 2, 64, 64
1, 60480, Note_on_c, 6, 66, 28
1, 60480, Note_on_c, 9, 36, 127
1, 60480, Note_on_c, 9, 38, 127
1, 60480, Note_on_c, 9, 42, 90
1, 60480, Note_on_c, 9, 37, 127
1, 60504, Note_on_c, 6, 66, 0
1, 60504, Note_on_c, 2, 71, 0
1, 60528, Note_on_c, 9, 38, 0
1, 60528, Note_on_c, 4, 73, 0
1, 60528, Note_on_c, 3, 85, 0
1, 60528, Note_on_c, 1, 37, 0
1, 60528, Note_on_c, 2, 68, 0
1, 60528, Note_on_c, 2, 64, 0
1, 60528, Note_on_c, 9, 42, 0
1, 60528, Note_on_c, 9, 36, 0
1, 60528, Note_on_c, 9, 37, 0
1, 60528, Note_on_c, 6, 73, 28
1, 60536, Note_on_c, 5, 69, 127
1, 60544, Note_on_c, 6, 73, 0
1, 60560, Note_on_c, 5, 69, 0
1, 60576, Note_on_c, 1, 40, 127
1, 60576, Note_on_c, 2, 71, 64
1, 60576, Note_on_c, 2, 68, 64
1, 60576, Note_on_c, 2, 64, 64
1, 60576, Note_on_c, 6, 76, 28
1, 60576, Note_on_c, 9, 36, 127
1, 60576, Note_on_c, 9, 42, 90
1, 60584, Note_on_c, 5, 71, 127
1, 60600, Note_on_c, 6, 76, 0
1, 60608, Note_on_c, 2, 71, 0
1, 60616, Note_on_c, 5, 71, 0
1, 60616, Note_on_c, 2, 68, 0
1, 60624, Note_on_c, 1, 40, 0
1, 60624, Note_on_c, 2, 64, 0
1, 60624, Note_on_c, 9, 36, 0
1, 60624, Note_on_c, 9, 42, 0
1, 60624, Note_on_c, 6, 78, 28
1, 60632, Note_on_c, 5, 73, 127
1, 60648, Note_on_c, 6, 78, 0
1, 60672, Note_on_c, 1, 42, 127
1, 60672, Note_on_c, 2, 71, 64
1, 60672, Note_on_c, 2, 66, 64
1, 60672, Note_on_c, 2, 63, 64
1, 60672, Note_on_c, 9, 36, 127
1, 60672, Note_on_c, 9, 42, 90
1, 60704, Note_on_c, 2, 66, 0
1, 60704, Note_on_c, 2, 71, 0
1, 60712, Note_on_c, 5, 73, 0
1, 60720, Note_on_c, 2, 63, 0
1, 60720, Note_on_c, 9, 42, 0
1, 60720, Note_on_c, 9, 36, 0
1, 60768, Note_on_c, 1, 42, 0
1, 60768, Note_on_c, 2, 71, 64
1, 60768, Note_on_c, 2, 66, 64
1, 60768, Note_on_c, 2, 63, 64
1, 60768, Note_on_c, 9, 42, 90
1, 60784, Note_on_c, 5, 73, 127
1, 60800, Note_on_c, 2, 66, 0
1, 60808, Note_on_c, 2, 71, 0
1, 60816, Note_on_c, 2, 63, 0
1, 60816, Note_on_c, 9, 42, 0
1, 60864, Note_on_c, 1, 40, 127
1, 60864, Note_on_c, 2, 71, 64
1, 60864, Note_on_c, 2, 66, 64
1, 60864, Note_on_c, 2, 63, 64
1, 60864, Note_on_c, 9, 36, 127
1, 60864, Note_on_c, 9, 38, 127
1, 60864, Note_on_c, 9, 42, 90
1, 60864, Note_on_c, 9, 37, 127
1, 60880, Note_on_c, 5, 73, 0
1, 60896, Note_on_c, 2, 66, 0
1, 60904, Note_on_c, 2, 71, 0
1, 60912, Note_on_c, 9, 38, 0
1, 60912, Note_on_c, 2, 63, 0
1, 60912, Note_on_c, 9, 42, 0
1, 60912, Note_on_c, 9, 37, 0
1, 60912, Note_on_c, 9, 36, 0
1, 60928, Note_on_c, 5, 71, 127
1, 60960, Note_on_c, 1, 40, 0
1, 60960, Note_on_c, 1, 42, 127
1, 60960, Note_on_c, 2, 71, 64
1, 60960, Note_on_c, 2, 66, 64
1, 60960, Note_on_c, 2, 63, 64
1, 60960, Note_on_c, 6, 73, 28
1, 60960, Note_on_c, 9, 36, 127
1, 60960, Note_on_c, 9, 42, 90
1, 60984, Note_on_c, 6, 73, 0
1, 61000, Note_on_c, 2, 66, 0
1, 61000, Note_on_c, 2, 63, 0
1, 61008, Note_on_c, 9, 36, 0
1, 61008, Note_on_c, 9, 42, 0
1, 61008, Note_on_c, 2, 71, 0
1, 61008, Note_on_c, 1, 42, 0
1, 61008, Note_on_c, 6, 76, 28
1, 61024, Note_on_c, 5, 71, 0
1, 61040, Note_on_c, 6, 76, 0
1, 61056, Note_on_c, 1, 40, 127
1, 61056, Note_on_c, 2, 71, 64
1, 61056, Note_on_c, 2, 66, 64
1, 61056, Note_on_c, 2, 63, 64
1, 61056, Note_on_c, 9, 36, 127
1, 61056, Note_on_c, 9, 42, 90
1, 61072, Note_on_c, 5, 71, 127
1, 61096, Note_on_c, 2, 66, 0
1, 61096, Note_on_c, 2, 71, 0
1, 61104, Note_on_c, 9, 36, 0
1, 61104, Note_on_c, 2, 63, 0
1, 61104, Note_on_c, 9, 42, 0
1, 61104, Note_on_c, 6, 78, 28
1, 61144, Note_on_c, 6, 78, 0
1, 61152, Note_on_c, 1, 40, 0
1, 61152, Note_on_c, 2, 71, 64
1, 61152, Note_on_c, 2, 66, 64
1, 61152, Note_on_c, 2, 63, 64
1, 61152, Note_on_c, 9, 36, 127
1, 61152, Note_on_c, 9, 44, 90
1, 61192, Note_on_c, 2, 66, 0
1, 61192, Note_on_c, 2, 71, 0
1, 61200, Note_on_c, 9, 36, 0
1, 61200, Note_on_c, 2, 63, 0
1, 61200, Note_on_c, 9, 44, 0
1, 61200, Note_on_c, 6, 76, 28
1, 61200, Note_on_c, 9, 36, 127
1, 61200, Note_on_c, 9, 38, 127
1, 61200, Note_on_c, 9, 45, 127
1, 61232, Note_on_c, 6, 76, 0
1, 61240, Note_on_c, 5, 71, 0
1, 61248, Note_on_c, 9, 36, 0
1, 61248, Note_on_c, 9, 38, 0
1, 61248, Note_on_c, 9, 45, 0
1, 61248, Note_on_c, 1, 40, 127
1, 61248, Note_on_c, 2, 71, 64
1, 61248, Note_on_c, 2, 66, 64
1, 61248, Note_on_c, 2, 63, 64
1, 61248, Note_on_c, 6, 78, 28
1, 61248, Note_on_c, 9, 38, 127
1, 61248, Note_on_c, 9, 42, 90
1, 61248, Note_on_c, 9, 41, 127
1, 61248, Note_on_c, 9, 37, 127
1, 61256, Note_on_c, 5, 69, 127
1, 61272, Note_on_c, 6, 78, 0
1, 61288, Note_on_c, 2, 71, 0
1, 61288, Note_on_c, 2, 66, 0
1, 61296, Note_on_c, 9, 42, 0
1, 61296, Note_on_c, 9, 37, 0
1, 61296, Note_on_c, 9, 38, 0
1, 61296, Note_on_c, 1, 40, 0
1, 61296, Note_on_c, 5, 69, 0
1, 61296, Note_on_c, 9, 41, 0
1, 61296, Note_on_c, 2, 63, 0
1, 61296, Note_on_c, 1, 41, 127
1, 61296, Note_on_c, 5, 66, 127
1, 61296, Note_on_c, 6, 76, 28
1, 61296, Note_on_c, 9, 36, 127
1, 61312, Note_on_c, 6, 76, 0
1, 61344, Note_on_c, 1, 41, 0
1, 61344, Note_on_c, 9, 36, 0
1, 61344, Note_on_c, 1, 42, 127
1, 61344, Note_on_c, 2, 71, 64
1, 61344, Note_on_c, 2, 66, 64
1, 61344, Note_on_c, 2, 63, 64
1, 61344, Note_on_c, 6, 73, 28
1, 61344, Note_on_c, 9, 36, 127
1, 61344, Note_on_c, 9, 38, 127
1, 61344, Note_on_c, 9, 46, 90
1, 61344, Note_on_c, 9, 49, 127
1, 61368, Note_on_c, 6, 73, 0
1, 61384, Note_on_c, 2, 71, 0
1, 61392, Note_on_c, 2, 66, 0
1, 61392, Note_on_c, 9, 36, 0
1, 61392, Note_on_c, 9, 46, 0
1, 61392, Note_on_c, 9, 38, 0
1, 61392, Note_on_c, 1, 42, 0
1, 61392, Note_on_c, 9, 49, 0
1, 61392, Note_on_c, 2, 63, 0
1, 61392, Note_on_c, 1, 37, 127
1, 61392, Note_on_c, 6, 66, 28
1, 61400, Note_on_c, 5, 66, 0
1, 61408, Note_on_c, 6, 66, 0
1, 61440, Note_on_c, 1, 37, 0
1, 61440, Note_on_c, 6, 73, 0
1, 61440, Note_on_c, 1, 30, 127
1, 61440, Note_on_c, 2, 73, 64
1, 61440, Note_on_c, 2, 71, 64
1, 61440, Note_on_c, 2, 64, 64
1, 61440, Note_on_c, 6, 66, 28
1, 61440, Note_on_c, 9, 36, 127
1, 61440, Note_on_c, 9, 42, 90
1, 61464, Note_on_c, 6, 66, 0
1, 61464, Note_on_c, 2, 73, 0
1, 61472, Note_on_c, 2, 71, 0
1, 61480, Note_on_c, 2, 64, 0
1, 61488, Note_on_c, 1, 30, 0
1, 61488, Note_on_c, 9, 36, 0
1, 61488, Note_on_c, 9, 42, 0
1, 61488, Note_on_c, 1, 30, 127
1, 61488, Note_on_c, 2, 71, 64
1, 61488, Note_on_c, 2, 69, 64
1, 61488, Note_on_c, 2, 64, 64
1, 61488, Note_on_c, 6, 66, 28
1, 61512, Note_on_c, 2, 71, 0
1, 61520, Note_on_c, 6, 66, 0
1, 61520, Note_on_c, 2, 69, 0
1, 61528, Note_on_c, 2, 64, 0
1, 61536, Note_on_c, 1, 30, 0
1, 61536, Note_on_c, 1, 30, 127
1, 61536, Note_on_c, 2, 71, 64
1, 61536, Note_on_c, 2, 69, 64
1, 61536, Note_on_c, 2, 64, 64
1, 61536, Note_on_c, 6, 66, 28
1, 61536, Note_on_c, 9, 42, 90
1, 61560, Note_on_c, 2, 69, 0
1, 61560, Note_on_c, 2, 71, 0
1, 61576, Note_on_c, 6, 66, 0
1, 61584, Note_on_c, 1, 30, 0
1, 61584, Note_on_c, 9, 42, 0
1, 61584, Note_on_c, 2, 64, 0
1, 61632, Note_on_c, 1, 30, 127
1, 61632, Note_on_c, 2, 71, 64
1, 61632, Note_on_c, 2, 69, 64
1, 61632, Note_on_c, 2, 64, 64
1, 61632, Note_on_c, 6, 66, 28
1, 61632, Note_on_c, 9, 36, 127
1, 61632, Note_on_c, 9, 38, 127
1, 61632, Note_on_c, 9, 42, 90
1, 61632, Note_on_c, 9, 37, 127
1, 61656, Note_on_c, 2, 69, 0
1, 61656, Note_on_c, 2, 71, 0
1, 61680, Note_on_c, 1, 30, 0
1, 61680, Note_on_c, 9, 38, 0
1, 61680, Note_on_c, 9, 36, 0
1, 61680, Note_on_c, 2, 64, 0
1, 61680, Note_on_c, 9, 42, 0
1, 61680, Note_on_c, 6, 66, 0
1, 61680, Note_on_c, 9, 37, 0
1, 61728, Note_on_c, 1, 33, 127
1, 61728, Note_on_c, 2, 71, 64
1, 61728, Note_on_c, 2, 69, 64
1, 61728, Note_on_c, 2, 64, 64
1, 61728, Note_on_c, 6, 66, 28
1, 61728, Note_on_c, 9, 36, 127
1, 61728, Note_on_c, 9, 42, 90
1, 61752, Note_on_c, 2, 71, 0
1, 61760, Note_on_c, 6, 66, 0
1, 61760, Note_on_c, 2, 69, 0
1, 61768, Note_on_c, 2, 64, 0
1, 61776, Note_on_c, 1, 33, 0
1, 61776, Note_on_c, 9, 36, 0
1, 61776, Note_on_c, 9, 42, 0
1, 61824, Note_on_c, 1, 35, 127
1, 61824, Note_on_c, 2, 71, 64
1, 61824, Note_on_c, 2, 68, 64
1, 61824, Note_on_c, 2, 64, 64
1, 61824, Note_on_c, 3, 81, 127
1, 61824, Note_on_c, 4, 69, 127
1, 61824, Note_on_c, 6, 66, 28
1, 61824, Note_on_c, 9, 36, 127
1, 61824, Note_on_c, 9, 42, 90
1, 61848, Note_on_c, 2, 71, 0
1, 61856, Note_on_c, 6, 66, 0
1, 61856, Note_on_c, 2, 68, 0
1, 61864, Note_on_c, 2, 64, 0
1, 61872, Note_on_c, 9, 42, 0
1, 61872, Note_on_c, 3, 81, 0
1, 61872, Note_on_c, 4, 69, 0
1, 61872, Note_on_c, 3, 83, 127
1, 61872, Note_on_c, 4, 71, 127
1, 61920, Note_on_c, 4, 71, 0
1, 61920, Note_on_c, 1, 35, 0
1, 61920, Note_on_c, 9, 36, 0
1, 61920, Note_on_c, 3, 83, 0
1, 61920, Note_on_c, 2, 71, 64
1, 61920, Note_on_c, 2, 68, 64
1, 61920, Note_on_c, 2, 64, 64
1, 61920, Note_on_c, 3, 84, 127
1, 61920, Note_on_c, 4, 72, 127
1, 61920, Note_on_c, 9, 42, 90
1, 61944, Note_on_c, 2, 71, 0
1, 61952, Note_on_c, 2, 68, 0
1, 61968, Note_on_c, 4, 72, 0
1, 61968, Note_on_c, 3, 84, 0
1, 61968, Note_on_c, 9, 42, 0
1, 61968, Note_on_c, 2, 64, 0
1, 61968, Note_on_c, 1, 37, 127
1, 61968, Note_on_c, 3, 85, 127
1, 61968, Note_on_c, 4, 73, 127
1, 61968, Note_on_c, 6, 66, 28
1, 62000, Note_on_c, 6, 66, 0
1, 62016, Note_on_c, 2, 71, 64
1, 62016, Note_on_c, 2, 68, 64
1, 62016, Note_on_c, 2, 64, 64
1, 62016, Note_on_c, 9, 36, 127
1, 62016, Note_on_c, 9, 38, 127
1, 62016, Note_on_c, 9, 42, 90
1, 62016, Note_on_c, 9, 37, 127
1, 62040, Note_on_c, 2, 71, 0
1, 62064, Note_on_c, 1, 37, 0
1, 62064, Note_on_c, 2, 68, 0
1, 62064, Note_on_c, 9, 37, 0
1, 62064, Note_on_c, 2, 64, 0
1, 62064, Note_on_c, 9, 38, 0
1, 62064, Note_on_c, 9, 42, 0
1, 62064, Note_on_c, 9, 36, 0
1, 62064, Note_on_c, 1, 33, 127
1, 62064, Note_on_c, 6, 66, 28
1, 62080, Note_on_c, 6, 66, 0
1, 62112, Note_on_c, 4, 73, 0
1, 62112, Note_on_c, 3, 85, 0
1, 62112, Note_on_c, 1, 33, 0
1, 62112, Note_on_c, 1, 30, 127
1, 62112, Note_on_c, 2, 71, 64
1, 62112, Note_on_c, 2, 68, 64
1, 62112, Note_on_c, 2, 64, 64
1, 62112, Note_on_c, 6, 66, 28
1, 62112, Note_on_c, 9, 36, 127
1, 62112, Note_on_c, 9, 42, 90
1, 62136, Note_on_c, 6, 66, 0
1, 62144, Note_on_c, 2, 71, 0
1, 62152, Note_on_c, 2, 68, 0
1, 62160, Note_on_c, 2, 64, 0
1, 62160, Note_on_c, 9, 42, 0
1, 62160, Note_on_c, 9, 36, 0
1, 62208, Note_on_c, 1, 30, 0
1, 62208, Note_on_c, 2, 71, 64
1, 62208, Note_on_c, 2, 66, 64
1, 62208, Note_on_c, 2, 63, 64
1, 62208, Note_on_c, 3, 81, 127
1, 62208, Note_on_c, 4, 69, 127
1, 62208, Note_on_c, 9, 36, 127
1, 62208, Note_on_c, 9, 42, 90
1, 62240, Note_on_c, 2, 66, 0
1, 62240, Note_on_c, 2, 71, 0
1, 62256, Note_on_c, 2, 63, 0
1, 62256, Note_on_c, 4, 69, 0
1, 62256, Note_on_c, 3, 81, 0
1, 62256, Note_on_c, 9, 42, 0
1, 62256, Note_on_c, 9, 36, 0
1, 62256, Note_on_c, 3, 83, 127
1, 62256, Note_on_c, 4, 71, 127
1, 62304, Note_on_c, 4, 71, 0
1, 62304, Note_on_c, 3, 83, 0
1, 62304, Note_on_c, 2, 71, 64
1, 62304, Note_on_c, 2, 66, 64
1, 62304, Note_on_c, 2, 63, 64
1, 62304, Note_on_c, 3, 84, 127
1, 62304, Note_on_c, 4, 72, 127
1, 62304, Note_on_c, 9, 42, 90
1, 62336, Note_on_c, 2, 66, 0
1, 62344, Note_on_c, 2, 71, 0
1, 62352, Note_on_c, 4, 72, 0
1, 62352, Note_on_c, 3, 84, 0
1, 62352, Note_on_c, 9, 42, 0
1, 62352, Note_on_c, 2, 63, 0
1, 62352, Note_on_c, 3, 85, 127
1, 62352, Note_on_c, 4, 73, 127
1, 62352, Note_on_c, 6, 66, 28
1, 62360, Note_on_c, 6, 66, 0
1, 62400, Note_on_c, 2, 71, 64
1, 62400, Note_on_c, 2, 66, 64
1, 62400, Note_on_c, 2, 63, 64
1, 62400, Note_on_c, 9, 36, 127
1, 62400, Note_on_c, 9, 38, 127
1, 62400, Note_on_c, 9, 42, 90
1, 62400, Note_on_c, 9, 37, 127
1, 62432, Note_on_c, 2, 66, 0
1, 62440, Note_on_c, 2, 71, 0
1, 62448, Note_on_c, 9, 42, 0
1, 62448, Note_on_c, 9, 36, 0
1, 62448, Note_on_c, 9, 37, 0
1, 62448, Note_on_c, 2, 63, 0
1, 62448, Note_on_c, 9, 38, 0
1, 62448, Note_on_c, 1, 33, 127
1, 62448, Note_on_c, 6, 66, 28
1, 62496, Note_on_c, 6, 66, 0
1, 62496, Note_on_c, 4, 73, 0
1, 62496, Note_on_c, 3, 85, 0
1, 62496, Note_on_c, 1, 33, 0
1, 62496, Note_on_c, 1, 30, 127
1, 62496, Note_on_c, 2, 71, 64
1, 62496, Note_on_c, 2, 66, 64
1, 62496, Note_on_c, 2, 63, 64
1, 62496, Note_on_c, 9, 36, 127
1, 62496, Note_on_c, 9, 42, 90
1, 62536, Note_on_c, 2, 63, 0
1, 62536, Note_on_c, 2, 66, 0
1, 62544, Note_on_c, 9, 36, 0
1, 62544, Note_on_c, 2, 71, 0
1, 62544, Note_on_c, 9, 42, 0
1, 62592, Note_on_c, 1, 30, 0
1, 62592, Note_on_c, 1, 28, 127
1, 62592, Note_on_c, 2, 71, 64
1, 62592, Note_on_c, 2, 66, 64
1, 62592, Note_on_c, 2, 63, 64
1, 62592, Note_on_c, 5, 69, 127
1, 62592, Note_on_c, 6, 73, 28
1, 62592, Note_on_c, 9, 36, 127
1, 62592, Note_on_c, 9, 42, 90
1, 62632, Note_on_c, 2, 66, 0
1, 62632, Note_on_c, 2, 71, 0
1, 62640, Note_on_c, 9, 42, 0
1, 62640, Note_on_c, 2, 63, 0
1, 62640, Note_on_c, 9, 36, 0
1, 62688, Note_on_c, 1, 28, 0
1, 62688, Note_on_c, 2, 71, 64
1, 62688, Note_on_c, 2, 66, 64
1, 62688, Note_on_c, 2, 63, 64
1, 62688, Note_on_c, 9, 42, 90
1, 62728, Note_on_c, 2, 66, 0
1, 62728, Note_on_c, 2, 71, 0
1, 62736, Note_on_c, 2, 63, 0
1, 62736, Note_on_c, 9, 42, 0
1, 62736, Note_on_c, 9, 36, 127
1, 62784, Note_on_c, 9, 36, 0
1, 62784, Note_on_c, 6, 73, 0
1, 62784, Note_on_c, 5, 69, 0
1, 62784, Note_on_c, 1, 28, 127
1, 62784, Note_on_c, 2, 71, 64
1, 62784, Note_on_c, 2, 66, 64
1, 62784, Note_on_c, 2, 63, 64
1, 62784, Note_on_c, 6, 71, 28
1, 62784, Note_on_c, 9, 38, 127
1, 62784, Note_on_c, 9, 42, 90
1, 62784, Note_on_c, 9, 37, 127
1, 62792, Note_on_c, 5, 71, 127
1, 62824, Note_on_c, 2, 66, 0
1, 62824, Note_on_c, 2, 71, 0
1, 62832, Note_on_c, 1, 28, 0
1, 62832, Note_on_c, 9, 42, 0
1, 62832, Note_on_c, 9, 37, 0
1, 62832, Note_on_c, 2, 63, 0
1, 62832, Note_on_c, 9, 38, 0
1, 62872, Note_on_c, 6, 71, 0
1, 62880, Note_on_c, 1, 28, 127
1, 62880, Note_on_c, 2, 71, 64
1, 62880, Note_on_c, 2, 66, 64
1, 62880, Note_on_c, 2, 63, 64
1, 62880, Note_on_c, 6, 69, 28
1, 62880, Note_on_c, 9, 36, 127
1, 62880, Note_on_c, 9, 38, 127
1, 62880, Note_on_c, 9, 44, 90
1, 62920, Note_on_c, 2, 71, 0
1, 62928, Note_on_c, 2, 63, 0
1, 62928, Note_on_c, 9, 44, 0
1, 62928, Note_on_c, 1, 28, 0
1, 62928, Note_on_c, 9, 38, 0
1, 62928, Note_on_c, 2, 66, 0
1, 62928, Note_on_c, 9, 36, 0
1, 62928, Note_on_c, 9, 38, 127
1, 62952, Note_on_c, 5, 71, 0
1, 62976, Note_on_c, 9, 38, 0
1, 62976, Note_on_c, 6, 69, 0
1, 62976, Note_on_c, 1, 30, 127
1, 62976, Note_on_c, 2, 73, 64
1, 62976, Note_on_c, 2, 71, 64
1, 62976, Note_on_c, 2, 64, 64
1, 62976, Note_on_c, 5, 73, 127
1, 62976, Note_on_c, 6, 66, 28
1, 62976, Note_on_c, 9, 36, 127
1, 62976, Note_on_c, 9, 42, 90
1, 63000, Note_on_c, 2, 73, 0
1, 63008, Note_on_c, 2, 71, 0
1, 63016, Note_on_c, 2, 64, 0
1, 63016, Note_on_c, 6, 66, 0
1, 63024, Note_on_c, 9, 36, 0
1, 63024, Note_on_c, 9, 42, 0
1, 63024, Note_on_c, 1, 30, 0
1, 63024, Note_on_c, 1, 30, 127
1, 63024, Note_on_c, 2, 71, 64
1, 63024, Note_on_c, 2, 69, 64
1, 63024, Note_on_c, 2, 64, 64
1, 63048, Note_on_c, 2, 71, 0
1, 63056, Note_on_c, 2, 69, 0
1, 63056, Note_on_c, 5, 73, 0
1, 63064, Note_on_c, 2, 64, 0
1, 63072, Note_on_c, 1, 30, 0
1, 63072, Note_on_c, 1, 30, 127
1, 63072, Note_on_c, 2, 71, 64
1, 63072, Note_on_c, 2, 69, 64
1, 63072, Note_on_c, 2, 64, 64
1, 63072, Note_on_c, 9, 42, 90
1, 63080, Note_on_c, 5, 73, 127
1, 63096, Note_on_c, 2, 69, 0
1, 63096, Note_on_c, 2, 71, 0
1, 63120, Note_on_c, 2, 64, 0
1, 63120, Note_on_c, 1, 30, 0
1, 63120, Note_on_c, 9, 42, 0
1, 63120, Note_on_c, 6, 66, 28
1, 63168, Note_on_c, 6, 66, 0
1, 63168, Note_on_c, 5, 73, 0
1, 63168, Note_on_c, 1, 30, 127
1, 63168, Note_on_c, 2, 71, 64
1, 63168, Note_on_c, 2, 69, 64
1, 63168, Note_on_c, 2, 64, 64
1, 63168, Note_on_c, 9, 36, 127
1, 63168, Note_on_c, 9, 38, 127
1, 63168, Note_on_c, 9, 42, 90
1, 63168, Note_on_c, 9, 37, 127
1, 63192, Note_on_c, 2, 69, 0
1, 63192, Note_on_c, 2, 71, 0
1, 63216, Note_on_c, 9, 42, 0
1, 63216, Note_on_c, 9, 38, 0
1, 63216, Note_on_c, 2, 64, 0
1, 63216, Note_on_c, 9, 36, 0
1, 63216, Note_on_c, 1, 30, 0
1, 63216, Note_on_c, 9, 37, 0
1, 63264, Note_on_c, 1, 33, 127
1, 63264, Note_on_c, 2, 71, 64
1, 63264, Note_on_c, 2, 69, 64
1, 63264, Note_on_c, 2, 64, 64
1, 63264, Note_on_c, 6, 66, 28
1, 63264, Note_on_c, 9, 36, 127
1, 63264, Note_on_c, 9, 42, 90
1, 63280, Note_on_c, 6, 66, 0
1, 63288, Note_on_c, 2, 71, 0
1, 63296, Note_on_c, 2, 69, 0
1, 63304, Note_on_c, 2, 64, 0
1, 63312, Note_on_c, 1, 33, 0
1, 63312, Note_on_c, 9, 36, 0
1, 63312, Note_on_c, 9, 42, 0
1, 63360, Note_on_c, 1, 35, 127
1, 63360, Note_on_c, 2, 71, 64
1, 63360, Note_on_c, 2, 68, 64
1, 63360, Note_on_c, 2, 64, 64
1, 63360, Note_on_c, 3, 81, 127
1, 63360, Note_on_c, 4, 69, 127
1, 63360, Note_on_c, 6, 66, 28
1, 63360, Note_on_c, 9, 36, 127
1, 63360, Note_on_c, 9, 42, 90
1, 63384, Note_on_c, 2, 71, 0
1, 63392, Note_on_c, 2, 68, 0
1, 63400, Note_on_c, 2, 64, 0
1, 63400, Note_on_c, 6, 66, 0
1, 63408, Note_on_c, 9, 42, 0
1, 63408, Note_on_c, 3, 81, 0
1, 63408, Note_on_c, 4, 69, 0
1, 63408, Note_on_c, 3, 83, 127
1, 63408, Note_on_c, 4, 71, 127
1, 63408, Note_on_c, 6, 69, 28
1, 63440, Note_on_c, 6, 69, 0
1, 63456, Note_on_c, 3, 83, 0
1, 63456, Note_on_c, 9, 36, 0
1, 63456, Note_on_c, 1, 35, 0
1, 63456, Note_on_c, 4, 71, 0
1, 63456, Note_on_c, 2, 71, 64
1, 63456, Note_on_c, 2, 68, 64
1, 63456, Note_on_c, 2, 64, 64
1, 63456, Note_on_c, 3, 84, 127
1, 63456, Note_on_c, 4, 72, 127
1, 63456, Note_on_c, 6, 71, 28
1, 63456, Note_on_c, 9, 42, 90
1, 63480, Note_on_c, 6, 71, 0
1, 63480, Note_on_c, 2, 71, 0
1, 63488, Note_on_c, 2, 68, 0
1, 63504, Note_on_c, 4, 72, 0
1, 63504, Note_on_c, 3, 84, 0
1, 63504, Note_on_c, 9, 42, 0
1, 63504, Note_on_c, 2, 64, 0
1, 63504, Note_on_c, 1, 37, 127
1, 63504, Note_on_c, 3, 85, 127
1, 63504, Note_on_c, 4, 73, 127
1, 63504, Note_on_c, 6, 73, 28
1, 63552, Note_on_c, 2, 71, 64
1, 63552, Note_on_c, 2, 68, 64
1, 63552, Note_on_c, 2, 64, 64
1, 63552, Note_on_c, 9, 36, 127
1, 63552, Note_on_c, 9, 38, 127
1, 63552, Note_on_c, 9, 42, 90
1, 63552, Note_on_c, 9, 37, 127
1, 63568, Note_on_c, 6, 73, 0
1, 63576, Note_on_c, 2, 71, 0
1, 63600, Note_on_c, 4, 73, 0
1, 63600, Note_on_c, 9, 36, 0
1, 63600, Note_on_c, 9, 42, 0
1, 63600, Note_on_c, 2, 68, 0
1, 63600, Note_on_c, 1, 37, 0
1, 63600, Note_on_c, 9, 37, 0
1, 63600, Note_on_c, 9, 38, 0
1, 63600, Note_on_c, 2, 64, 0
1, 63608, Note_on_c, 5, 69, 127
1, 63640, Note_on_c, 5, 69, 0
1, 63648, Note_on_c, 3, 85, 0
1, 63648, Note_on_c, 1, 40, 127
1, 63648, Note_on_c, 2, 71, 64
1, 63648, Note_on_c, 2, 68, 64
1, 63648, Note_on_c, 2, 64, 64
1, 63648, Note_on_c, 9, 36, 127
1, 63648, Note_on_c, 9, 42, 90
1, 63656, Note_on_c, 5, 71, 127
1, 63680, Note_on_c, 2, 71, 0
1, 63688, Note_on_c, 2, 68, 0
1, 63696, Note_on_c, 9, 42, 0
1, 63696, Note_on_c, 2, 64, 0
1, 63696, Note_on_c, 1, 40, 0
1, 63696, Note_on_c, 5, 71, 0
1, 63696, Note_on_c, 9, 36, 0
1, 63712, Note_on_c, 5, 73, 127
1, 63744, Note_on_c, 1, 42, 127
1, 63744, Note_on_c, 2, 71, 64
1, 63744, Note_on_c, 2, 66, 64
1, 63744, Note_on_c, 2, 63, 64
1, 63744, Note_on_c, 6, 66, 28
1, 63744, Note_on_c, 9, 36, 127
1, 63744, Note_on_c, 9, 42, 90
1, 63760, Note_on_c, 6, 66, 0
1, 63768, Note_on_c, 5, 73, 0
1, 63776, Note_on_c, 2, 66, 0
1, 63776, Note_on_c, 2, 71, 0
1, 63792, Note_on_c, 2, 63, 0
1, 63792, Note_on_c, 9, 42, 0
1, 63792, Note_on_c, 6, 69, 28
1, 63800, Note_on_c, 6, 69, 0
1, 63840, Note_on_c, 1, 42, 0
1, 63840, Note_on_c, 2, 71, 64
1, 63840, Note_on_c, 2, 66, 64
1, 63840, Note_on_c, 2, 63, 64
1, 63840, Note_on_c, 6, 71, 28
1, 63840, Note_on_c, 9, 42, 90
1, 63856, Note_on_c, 6, 71, 0
1, 63856, Note_on_c, 5, 73, 127
1, 63872, Note_on_c, 2, 66, 0
1, 63880, Note_on_c, 2, 71, 0
1, 63888, Note_on_c, 2, 63, 0
1, 63888, Note_on_c, 9, 36, 0
1, 63888, Note_on_c, 9, 42, 0
1, 63888, Note_on_c, 6, 73, 28
1, 63936, Note_on_c, 6, 73, 0
1, 63936, Note_on_c, 1, 40, 127
1, 63936, Note_on_c, 2, 71, 64
1, 63936, Note_on_c, 2, 66, 64
1, 63936, Note_on_c, 2, 63, 64
1, 63936, Note_on_c, 9, 36, 127
1, 63936, Note_on_c, 9, 38, 127
1, 63936, Note_on_c, 9, 42, 90
1, 63936, Note_on_c, 9, 37, 127
1, 63960, Note_on_c, 5, 73, 0
1, 63968, Note_on_c, 2, 66, 0
1, 63976, Note_on_c, 2, 71, 0
1, 63984, Note_on_c, 9, 38, 0
1, 63984, Note_on_c, 9, 36, 0
1, 63984, Note_on_c, 2, 63, 0
1, 63984, Note_on_c, 9, 37, 0
1, 63984, Note_on_c, 1, 40, 0
1, 63984, Note_on_c, 9, 42, 0
1, 63984, Note_on_c, 5, 71, 127
1, 63984, Note_on_c, 6, 73, 28
1, 64008, Note_on_c, 6, 73, 0
1, 64032, Note_on_c, 1, 42, 127
1, 64032, Note_on_c, 2, 71, 64
1, 64032, Note_on_c, 2, 66, 64
1, 64032, Note_on_c, 2, 63, 64
1, 64032, Note_on_c, 9, 36, 127
1, 64032, Note_on_c, 9, 42, 90
1, 64072, Note_on_c, 2, 63, 0
1, 64072, Note_on_c, 2, 66, 0
1, 64080, Note_on_c, 1, 42, 0
1, 64080, Note_on_c, 2, 71, 0
1, 64080, Note_on_c, 9, 36, 0
1, 64080, Note_on_c, 9, 42, 0
1, 64104, Note_on_c, 5, 71, 0
1, 64128, Note_on_c, 1, 40, 127
1, 64128, Note_on_c, 2, 71, 64
1, 64128, Note_on_c, 2, 66, 64
1, 64128, Note_on_c, 2, 63, 64
1, 64128, Note_on_c, 9, 36, 127
1, 64128, Note_on_c, 9, 42, 90
1, 64136, Note_on_c, 5, 71, 127
1, 64168, Note_on_c, 2, 66, 0
1, 64168, Note_on_c, 2, 71, 0
1, 64176, Note_on_c, 2, 63, 0
1, 64176, Note_on_c, 9, 42, 0
1, 64224, Note_on_c, 1, 40, 0
1, 64224, Note_on_c, 9, 36, 0
1, 64224, Note_on_c, 2, 71, 64
1, 64224, Note_on_c, 2, 66, 64
1, 64224, Note_on_c, 2, 63, 64
1, 64224, Note_on_c, 6, 69, 28
1, 64224, Note_on_c, 9, 42, 90
1, 64264, Note_on_c, 6, 69, 0
1, 64264, Note_on_c, 2, 66, 0
1, 64264, Note_on_c, 2, 71, 0
1, 64272, Note_on_c, 9, 42, 0
1, 64272, Note_on_c, 2, 63, 0
1, 64272, Note_on_c, 6, 71, 28
1, 64272, Note_on_c, 9, 36, 127
1, 64296, Note_on_c, 5, 71, 0
1, 64304, Note_on_c, 6, 71, 0
1, 64320, Note_on_c, 9, 36, 0
1, 64320, Note_on_c, 1, 40, 127
1, 64320, Note_on_c, 2, 71, 64
1, 64320, Note_on_c, 2, 66, 64
1, 64320, Note_on_c, 2, 63, 64
1, 64320, Note_on_c, 5, 69, 127
1, 64320, Note_on_c, 9, 36, 127
1, 64320, Note_on_c, 9, 38, 127
1, 64320, Note_on_c, 9, 42, 90
1, 64320, Note_on_c, 9, 37, 127
1, 64352, Note_on_c, 5, 69, 0
1, 64360, Note_on_c, 2, 66, 0
1, 64360, Note_on_c, 2, 71, 0
1, 64360, Note_on_c, 5, 66, 127
1, 64368, Note_on_c, 9, 38, 0
1, 64368, Note_on_c, 9, 42, 0
1, 64368, Note_on_c, 9, 36, 0
1, 64368, Note_on_c, 2, 63, 0
1, 64368, Note_on_c, 9, 37, 0
1, 64368, Note_on_c, 1, 40, 0
1, 64368, Note_on_c, 1, 41, 127
1, 64368, Note_on_c, 6, 73, 28
1, 64368, Note_on_c, 6, 73, 0
1, 64416, Note_on_c, 1, 41, 0
1, 64416, Note_on_c, 1, 42, 127
1, 64416, Note_on_c, 2, 71, 64
1, 64416, Note_on_c, 2, 66, 64
1, 64416, Note_on_c, 2, 63, 64
1, 64416, Note_on_c, 9, 36, 127
1, 64416, Note_on_c, 9, 38, 127
1, 64416, Note_on_c, 9, 44, 90
1, 64456, Note_on_c, 2, 71, 0
1, 64464, Note_on_c, 9, 44, 0
1, 64464, Note_on_c, 9, 36, 0
1, 64464, Note_on_c, 1, 42, 0
1, 64464, Note_on_c, 2, 66, 0
1, 64464, Note_on_c, 2, 63, 0
1, 64464, Note_on_c, 9, 38, 0
1, 64464, Note_on_c, 1, 37, 127
1, 64464, Note_on_c, 6, 73, 28
1, 64464, Note_on_c, 9, 38, 127
1, 64512, Note_on_c, 9, 38, 0
1, 64512, Note_on_c, 1, 37, 0
1, 64512, Note_on_c, 1, 30, 127
1, 64512, Note_on_c, 2, 73, 64
1, 64512, Note_on_c, 2, 71, 64
1, 64512, Note_on_c, 2, 64, 64
1, 64512, Note_on_c, 9, 36, 127
1, 64512, Note_on_c, 9, 42, 90
1, 64528, Note_on_c, 5, 66, 0
1, 64536, Note_on_c, 2, 73, 0
1, 64544, Note_on_c, 2, 71, 0
1, 64552, Note_on_c, 2, 64, 0
1, 64560, Note_on_c, 9, 42, 0
1, 64560, Note_on_c, 1, 30, 0
1, 64560, Note_on_c, 1, 30, 127
1, 64560, Note_on_c, 2, 71, 64
1, 64560, Note_on_c, 2, 69, 64
1, 64560, Note_on_c, 2, 64, 64
1, 64560, Note_on_c, 6, 73, 28
1, 64568, Note_on_c, 6, 73, 0
1, 64584, Note_on_c, 2, 71, 0
1, 64592, Note_on_c, 2, 69, 0
1, 64600, Note_on_c, 2, 64, 0
1, 64608, Note_on_c, 9, 36, 0
1, 64608, Note_on_c, 1, 30, 0
1, 64608, Note_on_c, 1, 30, 127
1, 64608, Note_on_c, 2, 71, 64
1, 64608, Note_on_c, 2, 69, 64
1, 64608, Note_on_c, 2, 64, 64
1, 64608, Note_on_c, 9, 42, 90
1, 64632, Note_on_c, 2, 69, 0
1, 64632, Note_on_c, 2, 71, 0
1, 64656, Note_on_c, 2, 64, 0
1, 64656, Note_on_c, 1, 30, 0
1, 64656, Note_on_c, 9, 42, 0
1, 64704, Note_on_c, 1, 30, 127
1, 64704, Note_on_c, 2, 71, 64
1, 64704, Note_on_c, 2, 69, 64
1, 64704, Note_on_c, 2, 64, 64
1, 64704, Note_on_c, 9, 36, 127
1, 64704, Note_on_c, 9, 38, 127
1, 64704, Note_on_c, 9, 42, 90
1, 64704, Note_on_c, 9, 37, 127
1, 64728, Note_on_c, 2, 69, 0
1, 64728, Note_on_c, 2, 71, 0
1, 64752, Note_on_c, 9, 42, 0
1, 64752, Note_on_c, 9, 36, 0
1, 64752, Note_on_c, 1, 30, 0
1, 64752, Note_on_c, 2, 64, 0
1, 64752, Note_on_c, 9, 37, 0
1, 64752, Note_on_c, 9, 38, 0
1, 64800, Note_on_c, 1, 33, 127
1, 64800, Note_on_c, 2, 71, 64
1, 64800, Note_on_c, 2, 69, 64
1, 64800, Note_on_c, 2, 64, 64
1, 64800, Note_on_c, 9, 36, 127
1, 64800, Note_on_c, 9, 42, 90
1, 64824, Note_on_c, 2, 71, 0
1, 64832, Note_on_c, 2, 69, 0
1, 64840, Note_on_c, 2, 64, 0
1, 64848, Note_on_c, 9, 36, 0
1, 64848, Note_on_c, 1, 33, 0
1, 64848, Note_on_c, 9, 42, 0
1, 64896, Note_on_c, 1, 35, 127
1, 64896, Note_on_c, 2, 71, 64
1, 64896, Note_on_c, 2, 68, 64
1, 64896, Note_on_c, 2, 64, 64
1, 64896, Note_on_c, 3, 81, 127
1, 64896, Note_on_c, 4, 69, 127
1, 64896, Note_on_c, 6, 73, 28
1, 64896, Note_on_c, 9, 36, 127
1, 64896, Note_on_c, 9, 42, 90
1, 64920, Note_on_c, 2, 71, 0
1, 64928, Note_on_c, 2, 68, 0
1, 64928, Note_on_c, 6, 73, 0
1, 64936, Note_on_c, 2, 64, 0
1, 64944, Note_on_c, 4, 69, 0
1, 64944, Note_on_c, 9, 42, 0
1, 64944, Note_on_c, 3, 81, 0
1, 64944, Note_on_c, 3, 83, 127
1, 64944, Note_on_c, 4, 71, 127
1, 64944, Note_on_c, 6, 71, 28
1, 64976, Note_on_c, 6, 71, 0
1, 64992, Note_on_c, 3, 83, 0
1, 64992, Note_on_c, 1, 35, 0
1, 64992, Note_on_c, 4, 71, 0
1, 64992, Note_on_c, 2, 71, 64
1, 64992, Note_on_c, 2, 68, 64
1, 64992, Note_on_c, 2, 64, 64
1, 64992, Note_on_c, 3, 84, 127
1, 64992, Note_on_c, 4, 72, 127
1, 64992, Note_on_c, 6, 69, 28
1, 64992, Note_on_c, 9, 42, 90
1, 65016, Note_on_c, 6, 69, 0
1, 65016, Note_on_c, 2, 71, 0
1, 65024, Note_on_c, 2, 68, 0
1, 65040, Note_on_c, 3, 84, 0
1, 65040, Note_on_c, 9, 36, 0
1, 65040, Note_on_c, 2, 64, 0
1, 65040, Note_on_c, 9, 42, 0
1, 65040, Note_on_c, 4, 72, 0
1, 65040, Note_on_c, 1, 37, 127
1, 65040, Note_on_c, 3, 85, 127
1, 65040, Note_on_c, 4, 73, 127
1, 65040, Note_on_c, 6, 66, 28
1, 65088, Note_on_c, 6, 66, 0
1, 65088, Note_on_c, 1, 37, 0
1, 65088, Note_on_c, 2, 71, 64
1, 65088, Note_on_c, 2, 68, 64
1, 65088, Note_on_c, 2, 64, 64
1, 65088, Note_on_c, 9, 36, 127
1, 65088, Note_on_c, 9, 38, 127
1, 65088, Note_on_c, 9, 42, 90
1, 65088, Note_on_c, 9, 37, 127
1, 65112, Note_on_c, 2, 71, 0
1, 65136, Note_on_c, 9, 37, 0
1, 65136, Note_on_c, 9, 38, 0
1, 65136, Note_on_c, 2, 68, 0
1, 65136, Note_on_c, 2, 64, 0
1, 65136, Note_on_c, 9, 42, 0
1, 65136, Note_on_c, 9, 36, 0
1, 65136, Note_on_c, 1, 33, 127
1, 65184, Note_on_c, 1, 33, 0
1, 65184, Note_on_c, 3, 85, 0
1, 65184, Note_on_c, 4, 73, 0
1, 65184, Note_on_c, 1, 30, 127
1, 65184, Note_on_c, 2, 71, 64
1, 65184, Note_on_c, 2, 68, 64
1, 65184, Note_on_c, 2, 64, 64
1, 65184, Note_on_c, 9, 42, 90
1, 65216, Note_on_c, 2, 71, 0
1, 65224, Note_on_c, 2, 68, 0
1, 65232, Note_on_c, 2, 64, 0
1, 65232, Note_on_c, 9, 42, 0
1, 65280, Note_on_c, 1, 30, 0
1, 65280, Note_on_c, 2, 71, 64
1, 65280, Note_on_c, 2, 66, 64
1, 65280, Note_on_c, 2, 63, 64
1, 65280, Note_on_c, 3, 81, 127
1, 65280, Note_on_c, 4, 69, 127
1, 65280, Note_on_c, 6, 73, 28
1, 65280, Note_on_c, 9, 36, 127
1, 65280, Note_on_c, 9, 42, 90
1, 65304, Note_on_c, 6, 73, 0
1, 65312, Note_on_c, 2, 71, 0
1, 65312, Note_on_c, 2, 66, 0
1, 65328, Note_on_c, 9, 36, 0
1, 65328, Note_on_c, 4, 69, 0
1, 65328, Note_on_c, 3, 81, 0
1, 65328, Note_on_c, 9, 42, 0
1, 65328, Note_on_c, 2, 63, 0
1, 65328, Note_on_c, 3, 83, 127
1, 65328, Note_on_c, 4, 71, 127
1, 65328, Note_on_c, 6, 71, 28
1, 65352, Note_on_c, 6, 71, 0
1, 65376, Note_on_c, 4, 71, 0
1, 65376, Note_on_c, 3, 83, 0
1, 65376, Note_on_c, 2, 71, 64
1, 65376, Note_on_c, 2, 66, 64
1, 65376, Note_on_c, 2, 63, 64
1, 65376, Note_on_c, 3, 84, 127
1, 65376, Note_on_c, 4, 72, 127
1, 65376, Note_on_c, 6, 69, 28
1, 65376, Note_on_c, 9, 42, 90
1, 65400, Note_on_c, 6, 69, 0
1, 65408, Note_on_c, 2, 66, 0
1, 65416, Note_on_c, 2, 71, 0
1, 65424, Note_on_c, 9, 42, 0
1, 65424, Note_on_c, 2, 63, 0
1, 65424, Note_on_c, 3, 84, 0
1, 65424, Note_on_c, 4, 72, 0
1, 65424, Note_on_c, 3, 85, 127
1, 65424, Note_on_c, 3, 85, 127
1, 65424, Note_on_c, 4, 73, 127
1, 65424, Note_on_c, 6, 66, 28
1, 65456, Note_on_c, 6, 66, 0
1, 65472, Note_on_c, 3, 85, 0
1, 65472, Note_on_c, 2, 71, 64
1, 65472, Note_on_c, 2, 66, 64
1, 65472, Note_on_c, 2, 63, 64
1, 65472, Note_on_c, 9, 36, 127
1, 65472, Note_on_c, 9, 38, 127
1, 65472, Note_on_c, 9, 42, 90
1, 65472, Note_on_c, 9, 37, 127
1, 65504, Note_on_c, 2, 66, 0
1, 65512, Note_on_c, 2, 71, 0
1, 65520, Note_on_c, 9, 42, 0
1, 65520, Note_on_c, 9, 38, 0
1, 65520, Note_on_c, 2, 63, 0
1, 65520, Note_on_c, 9, 37, 0
1, 65520, Note_on_c, 9, 36, 0
1, 65520, Note_on_c, 1, 33, 127
1, 65568, Note_on_c, 1, 33, 0
1, 65568, Note_on_c, 3, 85, 0
1, 65568, Note_on_c, 4, 73, 0
1, 65568, Note_on_c, 1, 30, 127
1, 65568, Note_on_c, 2, 71, 64
1, 65568, Note_on_c, 2, 66, 64
1, 65568, Note_on_c, 2, 63, 64
1, 65568, Note_on_c, 9, 36, 127
1, 65568, Note_on_c, 9, 42, 90
1, 65608, Note_on_c, 2, 63, 0
1, 65608, Note_on_c, 2, 66, 0
1, 65616, Note_on_c, 1, 30, 0
1, 65616, Note_on_c, 2, 71, 0
1, 65616, Note_on_c, 9, 36, 0
1, 65616, Note_on_c, 9, 42, 0
1, 65664, Note_on_c, 1, 28, 127
1, 65664, Note_on_c, 2, 71, 64
1, 65664, Note_on_c, 2, 66, 64
1, 65664, Note_on_c, 2, 63, 64
1, 65664, Note_on_c, 5, 69, 127
1, 65664, Note_on_c, 9, 36, 127
1, 65664, Note_on_c, 9, 42, 90
1, 65704, Note_on_c, 2, 66, 0
1, 65704, Note_on_c, 2, 71, 0
1, 65712, Note_on_c, 9, 42, 0
1, 65712, Note_on_c, 2, 63, 0
1, 65712, Note_on_c, 9, 36, 0
1, 65760, Note_on_c, 1, 28, 0
1, 65760, Note_on_c, 2, 71, 64
1, 65760, Note_on_c, 2, 66, 64
1, 65760, Note_on_c, 2, 63, 64
1, 65760, Note_on_c, 9, 42, 90
1, 65800, Note_on_c, 2, 66, 0
1, 65800, Note_on_c, 2, 71, 0
1, 65808, Note_on_c, 2, 63, 0
1, 65808, Note_on_c, 9, 42, 0
1, 65848, Note_on_c, 5, 69, 0
1, 65856, Note_on_c, 1, 28, 127
1, 65856, Note_on_c, 2, 71, 64
1, 65856, Note_on_c, 2, 66, 64
1, 65856, Note_on_c, 2, 63, 64
1, 65856, Note_on_c, 6, 66, 28
1, 65856, Note_on_c, 9, 36, 127
1, 65856, Note_on_c, 9, 38, 127
1, 65856, Note_on_c, 9, 42, 90
1, 65856, Note_on_c, 9, 37, 127
1, 65864, Note_on_c, 5, 71, 127
1, 65888, Note_on_c, 6, 66, 0
1, 65896, Note_on_c, 2, 71, 0
1, 65896, Note_on_c, 2, 66, 0
1, 65904, Note_on_c, 9, 42, 0
1, 65904, Note_on_c, 9, 38, 0
1, 65904, Note_on_c, 9, 36, 0
1, 65904, Note_on_c, 1, 28, 0
1, 65904, Note_on_c, 9, 37, 0
1, 65904, Note_on_c, 2, 63, 0
1, 65904, Note_on_c, 6, 76, 28
1, 65928, Note_on_c, 6, 76, 0
1, 65952, Note_on_c, 1, 28, 127
1, 65952, Note_on_c, 2, 71, 64
1, 65952, Note_on_c, 2, 66, 64
1, 65952, Note_on_c, 2, 63, 64
1, 65952, Note_on_c, 6, 78, 28
1, 65952, Note_on_c, 9, 36, 127
1, 65952, Note_on_c, 9, 42, 90
1, 65976, Note_on_c, 6, 78, 0
1, 65992, Note_on_c, 2, 71, 0
1, 66000, Note_on_c, 9, 42, 0
1, 66000, Note_on_c, 2, 63, 0
1, 66000, Note_on_c, 9, 36, 0
1, 66000, Note_on_c, 1, 28, 0
1, 66000, Note_on_c, 2, 66, 0
1, 66000, Note_on_c, 6, 78, 28
1, 66024, Note_on_c, 6, 78, 0
1, 66024, Note_on_c, 5, 71, 0
1, 66048, Note_on_c, 1, 30, 127
1, 66048, Note_on_c, 2, 73, 64
1, 66048, Note_on_c, 2, 71, 64
1, 66048, Note_on_c, 2, 64, 64
1, 66048, Note_on_c, 5, 73, 127
1, 66048, Note_on_c, 9, 36, 127
1, 66048, Note_on_c, 9, 42, 90
1, 66072, Note_on_c, 2, 73, 0
1, 66080, Note_on_c, 2, 71, 0
1, 66088, Note_on_c, 2, 64, 0
1, 66096, Note_on_c, 1, 30, 0
1, 66096, Note_on_c, 9, 42, 0
1, 66096, Note_on_c, 9, 36, 0
1, 66096, Note_on_c, 1, 30, 127
1, 66096, Note_on_c, 2, 71, 64
1, 66096, Note_on_c, 2, 69, 64
1, 66096, Note_on_c, 2, 64, 64
1, 66120, Note_on_c, 2, 71, 0
1, 66128, Note_on_c, 2, 69, 0
1, 66128, Note_on_c, 5, 73, 0
1, 66136, Note_on_c, 2, 64, 0
1, 66144, Note_on_c, 1, 30, 0
1, 66144, Note_on_c, 1, 30, 127
1, 66144, Note_on_c, 2, 71, 64
1, 66144, Note_on_c, 2, 69, 64
1, 66144, Note_on_c, 2, 64, 64
1, 66144, Note_on_c, 9, 42, 90
1, 66152, Note_on_c, 5, 73, 127
1, 66168, Note_on_c, 2, 69, 0
1, 66168, Note_on_c, 2, 71, 0
1, 66192, Note_on_c, 1, 30, 0
1, 66192, Note_on_c, 2, 64, 0
1, 66192, Note_on_c, 9, 42, 0
1, 66240, Note_on_c, 1, 30, 127
1, 66240, Note_on_c, 2, 71, 64
1, 66240, Note_on_c, 2, 69, 64
1, 66240, Note_on_c, 2, 64, 64
1, 66240, Note_on_c, 9, 36, 127
1, 66240, Note_on_c, 9, 38, 127
1, 66240, Note_on_c, 9, 42, 90
1, 66240, Note_on_c, 9, 37, 127
1, 66256, Note_on_c, 5, 73, 0
1, 66264, Note_on_c, 2, 69, 0
1, 66264, Note_on_c, 2, 71, 0
1, 66288, Note_on_c, 9, 38, 0
1, 66288, Note_on_c, 2, 64, 0
1, 66288, Note_on_c, 1, 30, 0
1, 66288, Note_on_c, 9, 37, 0
1, 66288, Note_on_c, 9, 42, 0
1, 66288, Note_on_c, 9, 36, 0
1, 66336, Note_on_c, 1, 33, 127
1, 66336, Note_on_c, 2, 71, 64
1, 66336, Note_on_c, 2, 69, 64
1, 66336, Note_on_c, 2, 64, 64
1, 66336, Note_on_c, 9, 36, 127
1, 66336, Note_on_c, 9, 42, 90
1, 66360, Note_on_c, 2, 71, 0
1, 66368, Note_on_c, 2, 69, 0
1, 66376, Note_on_c, 2, 64, 0
1, 66384, Note_on_c, 9, 36, 0
1, 66384, Note_on_c, 1, 33, 0
1, 66384, Note_on_c, 9, 42, 0
1, 66432, Note_on_c, 1, 35, 127
1, 66432, Note_on_c, 2, 71, 64
1, 66432, Note_on_c, 2, 68, 64
1, 66432, Note_on_c, 2, 64, 64
1, 66432, Note_on_c, 3, 81, 127
1, 66432, Note_on_c, 4, 69, 127
1, 66432, Note_on_c, 9, 36, 127
1, 66432, Note_on_c, 9, 42, 90
1, 66456, Note_on_c, 2, 71, 0
1, 66464, Note_on_c, 2, 68, 0
1, 66472, Note_on_c, 2, 64, 0
1, 66480, Note_on_c, 3, 81, 0
1, 66480, Note_on_c, 9, 42, 0
1, 66480, Note_on_c, 9, 36, 0
1, 66480, Note_on_c, 4, 69, 0
1, 66480, Note_on_c, 3, 83, 127
1, 66480, Note_on_c, 4, 71, 127
1, 66528, Note_on_c, 4, 71, 0
1, 66528, Note_on_c, 3, 83, 0
1, 66528, Note_on_c, 1, 35, 0
1, 66528, Note_on_c, 2, 71, 64
1, 66528, Note_on_c, 2, 68, 64
1, 66528, Note_on_c, 2, 64, 64
1, 66528, Note_on_c, 3, 84, 127
1, 66528, Note_on_c, 4, 72, 127
1, 66528, Note_on_c, 9, 42, 90
1, 66552, Note_on_c, 2, 71, 0
1, 66560, Note_on_c, 2, 68, 0
1, 66576, Note_on_c, 4, 72, 0
1, 66576, Note_on_c, 2, 64, 0
1, 66576, Note_on_c, 3, 84, 0
1, 66576, Note_on_c, 9, 42, 0
1, 66576, Note_on_c, 1, 37, 127
1, 66576, Note_on_c, 3, 85, 127
1, 66576, Note_on_c, 4, 73, 127
1, 66576, Note_on_c, 9, 36, 127
1, 66624, Note_on_c, 9, 36, 0
1, 66624, Note_on_c, 2, 71, 64
1, 66624, Note_on_c, 2, 68, 64
1, 66624, Note_on_c, 2, 64, 64
1, 66624, Note_on_c, 6, 66, 28
1, 66624, Note_on_c, 9, 36, 127
1, 66624, Note_on_c, 9, 38, 127
1, 66624, Note_on_c, 9, 42, 90
1, 66624, Note_on_c, 9, 37, 127
1, 66648, Note_on_c, 6, 66, 0
1, 66648, Note_on_c, 2, 71, 0
1, 66672, Note_on_c, 9, 38, 0
1, 66672, Note_on_c, 4, 73, 0
1, 66672, Note_on_c, 3, 85, 0
1, 66672, Note_on_c, 1, 37, 0
1, 66672, Note_on_c, 2, 68, 0
1, 66672, Note_on_c, 2, 64, 0
1, 66672, Note_on_c, 9, 42, 0
1, 66672, Note_on_c, 9, 36, 0
1, 66672, Note_on_c, 9, 37, 0
1, 66672, Note_on_c, 6, 73, 28
1, 66680, Note_on_c, 5, 69, 127
1, 66688, Note_on_c, 6, 73, 0
1, 66704, Note_on_c, 5, 69, 0
1, 66720, Note_on_c, 1, 40, 127
1, 66720, Note_on_c, 2, 71, 64
1, 66720, Note_on_c, 2, 68, 64
1, 66720, Note_on_c, 2, 64, 64
1, 66720, Note_on_c, 6, 76, 28
1, 66720, Note_on_c, 9, 36, 127
1, 66720, Note_on_c, 9, 42, 90
1, 66728, Note_on_c, 5, 71, 127
1, 66744, Note_on_c, 6, 76, 0
1, 66752, Note_on_c, 2, 71, 0
1, 66760, Note_on_c, 5, 71, 0
1, 66760, Note_on_c, 2, 68, 0
1, 66768, Note_on_c, 1, 40, 0
1, 66768, Note_on_c, 2, 64, 0
1, 66768, Note_on_c, 9, 36, 0
1, 66768, Note_on_c, 9, 42, 0
1, 66768, Note_on_c, 6, 78, 28
1, 66776, Note_on_c, 5, 73, 127
1, 66792, Note_on_c, 6, 78, 0
1, 66816, Note_on_c, 1, 42, 127
1, 66816, Note_on_c, 2, 71, 64
1, 66816, Note_on_c, 2, 66, 64
1, 66816, Note_on_c, 2, 63, 64
1, 66816, Note_on_c, 9, 36, 127
1, 66816, Note_on_c, 9, 42, 90
1, 66848, Note_on_c, 2, 66, 0
1, 66848, Note_on_c, 2, 71, 0
1, 66856, Note_on_c, 5, 73, 0
1, 66864, Note_on_c, 2, 63, 0
1, 66864, Note_on_c, 9, 42, 0
1, 66864, Note_on_c, 9, 36, 0
1, 66912, Note_on_c, 1, 42, 0
1, 66912, Note_on_c, 2, 71, 64
1, 66912, Note_on_c, 2, 66, 64
1, 66912, Note_on_c, 2, 63, 64
1, 66912, Note_on_c, 9, 42, 90
1, 66928, Note_on_c, 5, 73, 127
1, 66944, Note_on_c, 2, 66, 0
1, 66952, Note_on_c, 2, 71, 0
1, 66960, Note_on_c, 2, 63, 0
1, 66960, Note_on_c, 9, 42, 0
1, 67008, Note_on_c, 1, 40, 127
1, 67008, Note_on_c, 2, 71, 64
1, 67008, Note_on_c, 2, 66, 64
1, 67008, Note_on_c, 2, 63, 64
1, 67008, Note_on_c, 9, 36, 127
1, 67008, Note_on_c, 9, 38, 127
1, 67008, Note_on_c, 9, 42, 90
1, 67008, Note_on_c, 9, 37, 127
1, 67024, Note_on_c, 5, 73, 0
1, 67040, Note_on_c, 2, 66, 0
1, 67048, Note_on_c, 2, 71, 0
1, 67056, Note_on_c, 9, 38, 0
1, 67056, Note_on_c, 2, 63, 0
1, 67056, Note_on_c, 9, 42, 0
1, 67056, Note_on_c, 9, 37, 0
1, 67056, Note_on_c, 9, 36, 0
1, 67072, Note_on_c, 5, 71, 127
1, 67104, Note_on_c, 1, 40, 0
1, 67104, Note_on_c, 1, 42, 127
1, 67104, Note_on_c, 2, 71, 64
1, 67104, Note_on_c, 2, 66, 64
1, 67104, Note_on_c, 2, 63, 64
1, 67104, Note_on_c, 6, 73, 28
1, 67104, Note_on_c, 9, 36, 127
1, 67104, Note_on_c, 9, 42, 90
1, 67128, Note_on_c, 6, 73, 0
1, 67144, Note_on_c, 2, 66, 0
1, 67144, Note_on_c, 2, 63, 0
1, 67152, Note_on_c, 9, 36, 0
1, 67152, Note_on_c, 9, 42, 0
1, 67152, Note_on_c, 2, 71, 0
1, 67152, Note_on_c, 1, 42, 0
1, 67152, Note_on_c, 6, 76, 28
1, 67168, Note_on_c, 5, 71, 0
1, 67184, Note_on_c, 6, 76, 0
1, 67200, Note_on_c, 1, 40, 127
1, 67200, Note_on_c, 2, 71, 64
1, 67200, Note_on_c, 2, 66, 64
1, 67200, Note_on_c, 2, 63, 64
1, 67200, Note_on_c, 9, 36, 127
1, 67200, Note_on_c, 9, 42, 90
1, 67216, Note_on_c, 5, 71, 127
1, 67240, Note_on_c, 2, 66, 0
1, 67240, Note_on_c, 2, 71, 0
1, 67248, Note_on_c, 9, 36, 0
1, 67248, Note_on_c, 2, 63, 0
1, 67248, Note_on_c, 9, 42, 0
1, 67248, Note_on_c, 6, 78, 28
1, 67288, Note_on_c, 6, 78, 0
1, 67296, Note_on_c, 1, 40, 0
1, 67296, Note_on_c, 2, 71, 64
1, 67296, Note_on_c, 2, 66, 64
1, 67296, Note_on_c, 2, 63, 64
1, 67296, Note_on_c, 9, 36, 127
1, 67296, Note_on_c, 9, 44, 90
1, 67336, Note_on_c, 2, 66, 0
1, 67336, Note_on_c, 2, 71, 0
1, 67344, Note_on_c, 9, 36, 0
1, 67344, Note_on_c, 2, 63, 0
1, 67344, Note_on_c, 9, 44, 0
1, 67344, Note_on_c, 6, 76, 28
1, 67344, Note_on_c, 9, 36, 127
1, 67344, Note_on_c, 9, 38, 127
1, 67344, Note_on_c, 9, 45, 127
1, 67376, Note_on_c, 6, 76, 0
1, 67384, Note_on_c, 5, 71, 0
1, 67392, Note_on_c, 9, 36, 0
1, 67392, Note_on_c, 9, 38, 0
1, 67392, Note_on_c, 9, 45, 0
1, 67392, Note_on_c, 1, 40, 127
1, 67392, Note_on_c, 2, 71, 64
1, 67392, Note_on_c, 2, 66, 64
1, 67392, Note_on_c, 2, 63, 64
1, 67392, Note_on_c, 6, 78, 28
1, 67392, Note_on_c, 9, 38, 127
1, 67392, Note_on_c, 9, 42, 90
1, 67392, Note_on_c, 9, 41, 127
1, 67392, Note_on_c, 9, 37, 127
1, 67400, Note_on_c, 5, 69, 127
1, 67416, Note_on_c, 6, 78, 0
1, 67432, Note_on_c, 2, 71, 0
1, 67432, Note_on_c, 2, 66, 0
1, 67440, Note_on_c, 9, 42, 0
1, 67440, Note_on_c, 9, 37, 0
1, 67440, Note_on_c, 9, 38, 0
1, 67440, Note_on_c, 1, 40, 0
1, 67440, Note_on_c, 5, 69, 0
1, 67440, Note_on_c, 9, 41, 0
1, 67440, Note_on_c, 2, 63, 0
1, 67440, Note_on_c, 1, 41, 127
1, 67440, Note_on_c, 5, 66, 127
1, 67440, Note_on_c, 6, 76, 28
1, 67440, Note_on_c, 9, 36, 127
1, 67456, Note_on_c, 6, 76, 0
1, 67488, Note_on_c, 1, 41, 0
1, 67488, Note_on_c, 9, 36, 0
1, 67488, Note_on_c, 1, 42, 127
1, 67488, Note_on_c, 2, 71, 64
1, 67488, Note_on_c, 2, 66, 64
1, 67488, Note_on_c, 2, 63, 64
1, 67488, Note_on_c, 6, 73, 28
1, 67488, Note_on_c, 9, 36, 127
1, 67488, Note_on_c, 9, 38, 127
1, 67488, Note_on_c, 9, 46, 90
1, 67488, Note_on_c, 9, 49, 127
1, 67512, Note_on_c, 6, 73, 0
1, 67528, Note_on_c, 2, 71, 0
1, 67536, Note_on_c, 2, 66, 0
1, 67536, Note_on_c, 9, 36, 0
1, 67536, Note_on_c, 9, 46, 0
1, 67536, Note_on_c, 9, 38, 0
1, 67536, Note_on_c, 1, 42, 0
1, 67536, Note_on_c, 9, 49, 0
1, 67536, Note_on_c, 2, 63, 0
1, 67536, Note_on_c, 1, 37, 127
1, 67536, Note_on_c, 6, 66, 28
1, 67544, Note_on_c, 5, 66, 0
1, 67552, Note_on_c, 6, 66, 0
1, 67584, Note_on_c, 1, 37, 0
1, 67584, Note_on_c, 6, 73, 0
1, 67584, End_track
0, 0, End_of_file
