0, 0, Header, 0, 1, 96
1, 0, Start_track
1, 0, Title_t, "Sec.Marriage"
1, 0, Copyright_t, "(C)1993 Music Sales Ltd."
1, 0, Time_signature, 4, 2, 24, 8
1, 0, Tempo, 652164
1, 0, System_exclusive, 5, 126, 127, 9, 1, 247
1, 103, Program_c, 1, 32
1, 104, Control_c, 1, 7, 75
1, 104, Control_c, 1, 10, 64
1, 104, Control_c, 1, 11, 127
1, 105, Control_c, 1, 91, 70
1, 105, Control_c, 1, 93, 30
1, 113, Program_c, 3, 88
1, 114, Control_c, 3, 7, 80
1, 114, Control_c, 3, 10, 64
1, 114, Control_c, 3, 11, 127
1, 115, Control_c, 3, 91, 80
1, 115, Control_c, 3, 93, 35
1, 118, Program_c, 4, 0
1, 119, Control_c, 4, 7, 75
1, 119, Control_c, 4, 10, 40
1, 119, Control_c, 4, 11, 127
1, 120, Control_c, 4, 91, 40
1, 120, Control_c, 4, 93, 0
1, 123, Program_c, 5, 0
1, 124, Control_c, 5, 7, 75
1, 124, Control_c, 5, 10, 78
1, 124, Control_c, 5, 11, 127
1, 125, Control_c, 5, 91, 70
1, 125, Control_c, 5, 93, 0
1, 144, Control_c, 9, 7, 75
1, 144, Control_c, 9, 11, 127
1, 145, Control_c, 9, 91, 80
1, 145, Control_c, 9, 93, 0
1, 384, Time_signature, 4, 2, 24, 8
1, 384, Note_on_c, 9, 42, 111
1, 388, Note_off_c, 9, 42, 111
1, 480, Note_on_c, 9, 42, 51
1, 484, Note_off_c, 9, 42, 51
1, 576, Note_on_c, 9, 42, 89
1, 580, Note_off_c, 9, 42, 89
1, 672, Note_on_c, 9, 42, 38
1, 676, Note_off_c, 9, 42, 38
1, 768, Time_signature, 3, 2, 24, 8
1, 768, Note_on_c, 1, 49, 49
1, 818, Note_on_c, 5, 61, 35
1, 818, Note_on_c, 5, 70, 30
1, 819, Note_on_c, 5, 66, 46
1, 820, Note_on_c, 3, 73, 32
1, 841, Control_c, 5, 64, 127
1, 848, Note_off_c, 5, 61, 35
1, 850, Note_off_c, 5, 66, 46
1, 850, Note_off_c, 5, 70, 30
1, 858, Note_off_c, 3, 73, 32
1, 862, Note_on_c, 5, 70, 60
1, 863, Note_on_c, 5, 61, 57
1, 863, Note_on_c, 5, 66, 66
1, 868, Note_on_c, 3, 73, 64
1, 885, Note_off_c, 5, 61, 57
1, 889, Note_off_c, 5, 66, 66
1, 891, Note_off_c, 5, 70, 60
1, 908, Note_on_c, 5, 66, 67
1, 909, Note_on_c, 5, 61, 64
1, 910, Note_on_c, 5, 71, 52
1, 912, Note_on_c, 3, 75, 66
1, 916, Note_off_c, 3, 73, 64
1, 926, Note_off_c, 5, 61, 64
1, 929, Note_off_c, 5, 71, 52
1, 929, Note_off_c, 5, 66, 67
1, 947, Note_off_c, 3, 75, 66
1, 954, Note_on_c, 5, 71, 66
1, 955, Note_on_c, 5, 66, 73
1, 956, Note_on_c, 5, 61, 55
1, 959, Note_on_c, 3, 75, 64
1, 972, Note_off_c, 5, 66, 73
1, 974, Note_off_c, 5, 61, 55
1, 975, Note_off_c, 5, 71, 66
1, 1003, Note_off_c, 3, 75, 64
1, 1003, Note_on_c, 3, 73, 51
1, 1007, Note_on_c, 5, 61, 37
1, 1008, Note_on_c, 5, 70, 49
1, 1009, Note_on_c, 5, 66, 59
1, 1035, Control_c, 5, 64, 0
1, 1041, Note_off_c, 3, 73, 51
1, 1050, Note_off_c, 1, 49, 49
1, 1051, Note_off_c, 5, 61, 37
1, 1052, Note_off_c, 5, 66, 59
1, 1053, Note_off_c, 5, 70, 49
1, 1056, Time_signature, 4, 2, 24, 8
1, 1056, Note_on_c, 1, 49, 53
1, 1058, Note_on_c, 5, 66, 44
1, 1058, Note_on_c, 5, 70, 44
1, 1059, Note_on_c, 5, 61, 44
1, 1060, Note_on_c, 3, 73, 55
1, 1065, Control_c, 5, 64, 127
1, 1087, Note_off_c, 5, 61, 44
1, 1087, Note_off_c, 5, 70, 44
1, 1091, Note_off_c, 5, 66, 44
1, 1101, Note_on_c, 5, 66, 56
1, 1102, Note_on_c, 5, 61, 63
1, 1103, Note_on_c, 5, 71, 50
1, 1103, Note_off_c, 3, 73, 55
1, 1104, Note_on_c, 3, 75, 55
1, 1126, Note_off_c, 5, 71, 50
1, 1126, Note_off_c, 5, 61, 63
1, 1130, Note_off_c, 5, 66, 56
1, 1137, Note_off_c, 3, 75, 55
1, 1147, Note_on_c, 5, 61, 74
1, 1148, Note_on_c, 5, 71, 80
1, 1149, Note_on_c, 5, 66, 85
1, 1153, Note_on_c, 3, 75, 71
1, 1170, Note_off_c, 5, 71, 80
1, 1171, Note_off_c, 5, 66, 85
1, 1171, Note_off_c, 5, 61, 74
1, 1189, Note_off_c, 3, 75, 71
1, 1190, Note_on_c, 3, 73, 59
1, 1196, Note_on_c, 5, 61, 53
1, 1196, Note_on_c, 5, 70, 56
1, 1197, Note_on_c, 5, 66, 60
1, 1211, Control_c, 5, 64, 0
1, 1228, Note_off_c, 3, 73, 59
1, 1241, Note_off_c, 1, 49, 53
1, 1241, Note_on_c, 3, 77, 54
1, 1242, Note_off_c, 5, 61, 53
1, 1245, Note_on_c, 1, 51, 51
1, 1247, Note_off_c, 5, 70, 56
1, 1248, Note_on_c, 4, 51, 51
1, 1248, Note_off_c, 5, 66, 60
1, 1278, Note_off_c, 3, 77, 54
1, 1291, Note_on_c, 5, 63, 49
1, 1292, Note_on_c, 3, 77, 45
1, 1294, Note_on_c, 5, 71, 27
1, 1295, Note_on_c, 5, 66, 60
1, 1326, Note_off_c, 5, 63, 49
1, 1328, Note_off_c, 5, 66, 60
1, 1332, Control_c, 5, 64, 127
1, 1334, Note_off_c, 5, 71, 27
1, 1335, Note_off_c, 3, 77, 45
1, 1340, Note_on_c, 5, 63, 64
1, 1341, Note_on_c, 5, 66, 62
1, 1342, Note_on_c, 5, 71, 60
1, 1359, Note_off_c, 5, 71, 60
1, 1360, Note_off_c, 5, 66, 62
1, 1361, Note_off_c, 5, 63, 64
1, 1384, Note_on_c, 5, 63, 66
1, 1385, Note_on_c, 3, 70, 50
1, 1388, Note_on_c, 5, 66, 60
1, 1389, Note_on_c, 5, 70, 60
1, 1402, Note_off_c, 5, 66, 60
1, 1403, Note_off_c, 5, 63, 66
1, 1407, Note_off_c, 5, 70, 60
1, 1415, Note_off_c, 3, 70, 50
1, 1431, Note_on_c, 3, 70, 57
1, 1434, Note_on_c, 5, 66, 71
1, 1435, Note_on_c, 5, 70, 66
1, 1437, Note_off_c, 1, 51, 51
1, 1437, Note_on_c, 1, 50, 45
1, 1440, Note_off_c, 4, 51, 51
1, 1440, Note_on_c, 4, 50, 45
1, 1441, Control_c, 5, 64, 0
1, 1466, Control_c, 5, 64, 127
1, 1472, Note_off_c, 5, 66, 71
1, 1474, Note_off_c, 5, 70, 66
1, 1477, Note_off_c, 3, 70, 57
1, 1480, Note_on_c, 3, 71, 53
1, 1480, Note_on_c, 5, 66, 50
1, 1488, Note_on_c, 5, 71, 33
1, 1500, Note_off_c, 5, 71, 33
1, 1501, Note_off_c, 5, 66, 50
1, 1515, Note_off_c, 3, 71, 53
1, 1529, Note_on_c, 3, 71, 53
1, 1529, Note_on_c, 5, 66, 70
1, 1530, Note_on_c, 5, 71, 60
1, 1532, Note_on_c, 1, 49, 46
1, 1534, Note_off_c, 1, 50, 45
1, 1535, Note_on_c, 4, 49, 46
1, 1536, Control_c, 5, 64, 0
1, 1537, Note_off_c, 4, 50, 45
1, 1555, Control_c, 5, 64, 127
1, 1564, Note_off_c, 5, 66, 70
1, 1571, Note_off_c, 3, 71, 53
1, 1574, Note_off_c, 5, 71, 60
1, 1581, Note_on_c, 5, 70, 41
1, 1581, Note_on_c, 5, 66, 34
1, 1582, Note_on_c, 3, 70, 58
1, 1598, Note_off_c, 5, 66, 34
1, 1598, Note_off_c, 5, 70, 41
1, 1616, Note_off_c, 3, 70, 58
1, 1626, Note_on_c, 1, 51, 46
1, 1626, Note_on_c, 5, 70, 44
1, 1627, Note_on_c, 3, 70, 66
1, 1627, Note_on_c, 5, 66, 70
1, 1629, Note_on_c, 4, 51, 46
1, 1631, Control_c, 5, 64, 0
1, 1635, Note_off_c, 1, 49, 46
1, 1638, Note_off_c, 4, 49, 46
1, 1650, Control_c, 5, 64, 127
1, 1665, Note_off_c, 5, 70, 44
1, 1674, Note_off_c, 5, 66, 70
1, 1674, Note_on_c, 5, 66, 32
1, 1675, Note_on_c, 5, 71, 44
1, 1676, Note_off_c, 3, 70, 66
1, 1677, Note_on_c, 3, 71, 50
1, 1688, Note_off_c, 5, 66, 32
1, 1689, Note_off_c, 5, 71, 44
1, 1712, Note_off_c, 3, 71, 50
1, 1720, Note_on_c, 5, 66, 64
1, 1721, Note_off_c, 1, 51, 46
1, 1722, Note_on_c, 5, 71, 54
1, 1724, Note_on_c, 1, 50, 53
1, 1724, Note_off_c, 4, 51, 46
1, 1725, Note_on_c, 3, 71, 60
1, 1725, Control_c, 5, 64, 0
1, 1727, Note_on_c, 4, 50, 53
1, 1750, Control_c, 5, 64, 127
1, 1751, Note_off_c, 5, 66, 64
1, 1762, Note_off_c, 5, 71, 54
1, 1764, Note_off_c, 3, 71, 60
1, 1770, Note_on_c, 3, 70, 46
1, 1772, Note_on_c, 5, 66, 52
1, 1773, Note_on_c, 5, 70, 55
1, 1789, Note_off_c, 5, 66, 52
1, 1789, Note_off_c, 5, 70, 55
1, 1814, Note_off_c, 3, 70, 46
1, 1816, Note_on_c, 3, 73, 47
1, 1820, Note_on_c, 1, 46, 54
1, 1823, Note_off_c, 1, 50, 53
1, 1823, Note_on_c, 4, 46, 54
1, 1824, Time_signature, 3, 2, 24, 8
1, 1824, Control_c, 5, 64, 0
1, 1826, Note_off_c, 4, 50, 53
1, 1865, Note_on_c, 5, 66, 61
1, 1868, Note_on_c, 5, 73, 58
1, 1881, Control_c, 5, 64, 127
1, 1894, Note_off_c, 3, 73, 47
1, 1903, Note_off_c, 5, 66, 61
1, 1903, Note_off_c, 5, 73, 58
1, 1910, Note_on_c, 3, 73, 42
1, 1914, Note_on_c, 5, 66, 80
1, 1915, Note_on_c, 5, 73, 86
1, 1941, Note_off_c, 5, 73, 86
1, 1942, Note_off_c, 5, 66, 80
1, 1964, Note_on_c, 5, 68, 75
1, 1964, Note_on_c, 5, 73, 72
1, 1992, Note_off_c, 5, 73, 72
1, 1993, Note_off_c, 5, 68, 75
1, 2011, Note_off_c, 3, 73, 42
1, 2011, Note_on_c, 5, 68, 74
1, 2013, Note_on_c, 5, 73, 70
1, 2042, Note_off_c, 5, 73, 70
1, 2048, Note_off_c, 5, 68, 74
1, 2056, Note_on_c, 3, 66, 59
1, 2062, Note_on_c, 5, 73, 77
1, 2063, Note_on_c, 5, 66, 64
1, 2084, Control_c, 5, 64, 0
1, 2095, Note_off_c, 3, 66, 59
1, 2103, Note_off_c, 1, 46, 54
1, 2106, Note_off_c, 4, 46, 54
1, 2107, Note_on_c, 3, 66, 75
1, 2112, Time_signature, 4, 2, 24, 8
1, 2112, Note_on_c, 1, 45, 53
1, 2115, Note_on_c, 4, 45, 53
1, 2116, Control_c, 5, 64, 127
1, 2119, Note_off_c, 5, 73, 77
1, 2121, Note_off_c, 5, 66, 64
1, 2150, Note_off_c, 3, 66, 75
1, 2154, Note_on_c, 5, 73, 50
1, 2157, Note_on_c, 5, 68, 56
1, 2158, Note_on_c, 3, 68, 74
1, 2182, Note_off_c, 5, 68, 56
1, 2184, Note_off_c, 5, 73, 50
1, 2194, Note_off_c, 3, 68, 74
1, 2202, Note_on_c, 5, 73, 69
1, 2203, Note_on_c, 5, 68, 85
1, 2204, Note_on_c, 3, 68, 71
1, 2224, Note_off_c, 5, 73, 69
1, 2228, Note_off_c, 5, 68, 85
1, 2249, Note_off_c, 3, 68, 71
1, 2249, Note_on_c, 3, 66, 51
1, 2251, Note_on_c, 5, 73, 83
1, 2253, Note_on_c, 5, 66, 71
1, 2274, Note_off_c, 5, 66, 71
1, 2278, Note_off_c, 5, 73, 83
1, 2284, Note_off_c, 3, 66, 51
1, 2296, Note_on_c, 5, 66, 85
1, 2297, Note_on_c, 5, 73, 85
1, 2299, Note_off_c, 1, 45, 53
1, 2300, Note_on_c, 3, 66, 60
1, 2301, Note_on_c, 1, 46, 57
1, 2302, Note_off_c, 4, 45, 53
1, 2302, Control_c, 5, 64, 0
1, 2304, Note_on_c, 4, 46, 57
1, 2321, Control_c, 5, 64, 127
1, 2332, Note_off_c, 5, 73, 85
1, 2335, Note_off_c, 5, 66, 85
1, 2344, Note_on_c, 5, 68, 82
1, 2346, Note_on_c, 3, 68, 62
1, 2346, Note_on_c, 5, 73, 66
1, 2350, Note_off_c, 3, 66, 60
1, 2373, Note_off_c, 5, 73, 66
1, 2373, Note_off_c, 5, 68, 82
1, 2376, Note_off_c, 3, 68, 62
1, 2377, Control_c, 5, 64, 0
1, 2385, Control_c, 5, 64, 127
1, 2388, Note_off_c, 1, 46, 57
1, 2388, Note_on_c, 1, 45, 55
1, 2390, Note_on_c, 3, 68, 59
1, 2391, Note_on_c, 5, 73, 76
1, 2391, Note_off_c, 4, 46, 57
1, 2391, Note_on_c, 4, 45, 55
1, 2392, Note_on_c, 5, 68, 68
1, 2412, Note_off_c, 5, 68, 68
1, 2424, Note_off_c, 5, 73, 76
1, 2432, Note_off_c, 3, 68, 59
1, 2440, Note_on_c, 5, 73, 62
1, 2444, Note_on_c, 3, 66, 64
1, 2444, Note_on_c, 5, 66, 37
1, 2459, Note_off_c, 5, 73, 62
1, 2464, Note_off_c, 5, 66, 37
1, 2484, Note_off_c, 1, 45, 55
1, 2487, Note_off_c, 4, 45, 55
1, 2490, Note_on_c, 1, 44, 34
1, 2493, Note_on_c, 4, 44, 34
1, 2500, Note_on_c, 3, 71, 32
1, 2501, Note_off_c, 3, 66, 64
1, 2520, Control_c, 5, 64, 0
1, 2542, Note_on_c, 5, 63, 44
1, 2543, Note_on_c, 5, 66, 57
1, 2559, Control_c, 5, 64, 127
1, 2569, Note_off_c, 5, 66, 57
1, 2571, Note_off_c, 5, 63, 44
1, 2589, Note_on_c, 5, 63, 65
1, 2590, Note_on_c, 5, 66, 77
1, 2612, Note_off_c, 5, 63, 65
1, 2617, Note_off_c, 5, 66, 77
1, 2630, Note_off_c, 3, 71, 32
1, 2637, Note_on_c, 5, 63, 77
1, 2638, Note_on_c, 5, 68, 85
1, 2640, Control_c, 5, 64, 0
1, 2669, Note_off_c, 5, 63, 77
1, 2671, Control_c, 5, 64, 127
1, 2677, Note_off_c, 5, 68, 85
1, 2683, Note_on_c, 5, 63, 77
1, 2685, Note_on_c, 5, 68, 81
1, 2691, Note_off_c, 4, 44, 34
1, 2716, Note_off_c, 5, 63, 77
1, 2719, Note_off_c, 5, 68, 81
1, 2732, Note_on_c, 5, 63, 58
1, 2733, Note_off_c, 1, 44, 34
1, 2733, Note_on_c, 5, 66, 69
1, 2737, Note_on_c, 3, 71, 30
1, 2744, Note_off_c, 5, 66, 69
1, 2745, Note_off_c, 5, 63, 58
1, 2778, Note_on_c, 1, 34, 50
1, 2778, Note_on_c, 5, 66, 75
1, 2779, Note_on_c, 5, 63, 64
1, 2780, Note_on_c, 3, 63, 44
1, 2781, Note_on_c, 4, 34, 50
1, 2792, Note_off_c, 5, 66, 75
1, 2795, Note_off_c, 5, 63, 64
1, 2798, Note_off_c, 3, 71, 30
1, 2822, Note_on_c, 5, 68, 65
1, 2825, Note_on_c, 5, 62, 49
1, 2830, Note_on_c, 3, 62, 44
1, 2839, Note_off_c, 3, 63, 44
1, 2852, Control_c, 5, 64, 0
1, 2875, Note_on_c, 3, 71, 51
1, 2875, Note_off_c, 3, 62, 44
1, 2880, Time_signature, 3, 2, 24, 8
1, 2880, Note_on_c, 1, 39, 43
1, 2880, Note_on_c, 5, 66, 52
1, 2880, Note_on_c, 5, 71, 46
1, 2880, Note_off_c, 1, 34, 50
1, 2881, Note_off_c, 5, 68, 65
1, 2883, Note_on_c, 4, 39, 43
1, 2883, Note_off_c, 5, 62, 49
1, 2883, Note_off_c, 4, 34, 50
1, 2887, Control_c, 5, 64, 127
1, 2919, Note_off_c, 3, 71, 51
1, 2923, Note_on_c, 3, 70, 51
1, 2926, Note_on_c, 5, 70, 70
1, 2926, Note_off_c, 5, 71, 46
1, 2927, Note_on_c, 5, 65, 39
1, 2929, Note_off_c, 5, 66, 52
1, 2937, Note_off_c, 5, 70, 70
1, 2940, Note_off_c, 5, 65, 39
1, 2946, Note_off_c, 3, 70, 51
1, 2971, Note_on_c, 1, 38, 43
1, 2974, Note_on_c, 4, 38, 43
1, 2974, Note_on_c, 5, 70, 66
1, 2974, Note_on_c, 5, 77, 59
1, 2976, Note_on_c, 3, 77, 40
1, 2977, Note_off_c, 1, 39, 43
1, 2978, Control_c, 5, 64, 0
1, 2980, Note_off_c, 4, 39, 43
1, 3006, Control_c, 5, 64, 127
1, 3013, Note_off_c, 3, 77, 40
1, 3017, Note_on_c, 3, 78, 43
1, 3022, Note_off_c, 5, 70, 66
1, 3023, Note_off_c, 5, 77, 59
1, 3025, Note_on_c, 5, 78, 72
1, 3028, Note_on_c, 5, 70, 66
1, 3043, Note_off_c, 5, 78, 72
1, 3045, Note_off_c, 5, 70, 66
1, 3069, Note_off_c, 3, 78, 43
1, 3070, Note_on_c, 5, 66, 57
1, 3070, Note_on_c, 5, 71, 57
1, 3073, Note_on_c, 3, 71, 47
1, 3074, Note_on_c, 1, 37, 41
1, 3077, Note_on_c, 4, 37, 41
1, 3079, Note_off_c, 1, 38, 43
1, 3079, Control_c, 5, 64, 0
1, 3082, Note_off_c, 4, 38, 43
1, 3102, Control_c, 5, 64, 127
1, 3104, Note_off_c, 5, 66, 57
1, 3114, Note_on_c, 3, 70, 53
1, 3115, Note_on_c, 5, 66, 54
1, 3118, Note_on_c, 5, 70, 60
1, 3119, Note_off_c, 3, 71, 47
1, 3123, Note_off_c, 5, 71, 57
1, 3148, Note_off_c, 3, 70, 53
1, 3151, Note_off_c, 5, 66, 54
1, 3154, Control_c, 5, 64, 0
1, 3162, Note_off_c, 1, 37, 41
1, 3163, Note_off_c, 5, 70, 60
1, 3165, Note_on_c, 3, 70, 64
1, 3165, Note_off_c, 4, 37, 41
1, 3167, Note_on_c, 1, 36, 37
1, 3170, Note_on_c, 4, 36, 37
1, 3210, Note_on_c, 5, 63, 40
1, 3212, Note_on_c, 5, 66, 56
1, 3241, Control_c, 5, 64, 127
1, 3242, Note_off_c, 5, 63, 40
1, 3246, Note_off_c, 5, 66, 56
1, 3252, Note_off_c, 3, 70, 64
1, 3256, Note_on_c, 3, 68, 43
1, 3258, Note_on_c, 5, 66, 68
1, 3259, Note_on_c, 5, 63, 66
1, 3290, Note_off_c, 5, 63, 66
1, 3301, Note_off_c, 5, 66, 68
1, 3308, Note_on_c, 5, 68, 78
1, 3309, Note_on_c, 5, 63, 59
1, 3338, Note_off_c, 5, 63, 59
1, 3340, Note_off_c, 5, 68, 78
1, 3356, Note_on_c, 5, 63, 59
1, 3357, Note_on_c, 5, 68, 74
1, 3370, Note_off_c, 3, 68, 43
1, 3377, Control_c, 5, 64, 0
1, 3387, Note_off_c, 5, 63, 59
1, 3402, Control_c, 5, 64, 127
1, 3405, Note_on_c, 5, 66, 70
1, 3406, Note_on_c, 5, 63, 55
1, 3411, Note_off_c, 5, 68, 74
1, 3437, Note_off_c, 5, 63, 55
1, 3439, Note_off_c, 5, 66, 70
1, 3452, Control_c, 5, 64, 0
1, 3453, Note_off_c, 1, 36, 37
1, 3456, Note_off_c, 4, 36, 37
1, 3457, Note_on_c, 1, 49, 46
1, 3504, Note_on_c, 5, 61, 39
1, 3504, Note_on_c, 5, 66, 54
1, 3505, Note_on_c, 3, 73, 43
1, 3505, Note_on_c, 5, 70, 50
1, 3507, Control_c, 5, 64, 127
1, 3533, Note_off_c, 5, 66, 54
1, 3538, Note_off_c, 3, 73, 43
1, 3544, Note_off_c, 5, 61, 39
1, 3548, Note_off_c, 5, 70, 50
1, 3552, Note_on_c, 3, 73, 70
1, 3552, Note_on_c, 5, 70, 73
1, 3553, Note_on_c, 5, 61, 64
1, 3554, Note_on_c, 5, 66, 74
1, 3578, Note_off_c, 5, 61, 64
1, 3580, Note_off_c, 5, 70, 73
1, 3581, Note_off_c, 5, 66, 74
1, 3596, Note_on_c, 3, 75, 74
1, 3596, Note_on_c, 5, 61, 76
1, 3597, Note_off_c, 3, 73, 70
1, 3598, Note_on_c, 5, 71, 77
1, 3598, Note_on_c, 5, 66, 76
1, 3619, Note_off_c, 5, 71, 77
1, 3619, Note_off_c, 5, 61, 76
1, 3621, Note_off_c, 5, 66, 76
1, 3633, Note_off_c, 3, 75, 74
1, 3644, Note_on_c, 3, 75, 80
1, 3645, Note_on_c, 5, 71, 83
1, 3646, Note_on_c, 5, 61, 78
1, 3647, Note_on_c, 5, 66, 83
1, 3672, Note_off_c, 5, 61, 78
1, 3673, Note_off_c, 5, 66, 83
1, 3680, Note_off_c, 5, 71, 83
1, 3688, Note_off_c, 3, 75, 80
1, 3689, Note_on_c, 3, 73, 66
1, 3694, Note_on_c, 5, 61, 57
1, 3695, Note_on_c, 5, 66, 68
1, 3696, Note_on_c, 5, 70, 60
1, 3699, Control_c, 5, 64, 0
1, 3728, Note_off_c, 3, 73, 66
1, 3729, Note_off_c, 5, 70, 60
1, 3729, Note_off_c, 5, 61, 57
1, 3729, Note_off_c, 1, 49, 46
1, 3730, Note_off_c, 5, 66, 68
1, 3731, Control_c, 5, 64, 127
1, 3739, Note_on_c, 1, 49, 58
1, 3741, Note_on_c, 3, 73, 60
1, 3744, Time_signature, 4, 2, 24, 8
1, 3744, Note_on_c, 5, 66, 75
1, 3744, Note_on_c, 5, 61, 64
1, 3745, Note_on_c, 5, 70, 70
1, 3771, Note_off_c, 5, 61, 64
1, 3773, Note_off_c, 5, 70, 70
1, 3776, Note_off_c, 5, 66, 75
1, 3791, Note_on_c, 3, 75, 60
1, 3791, Note_on_c, 5, 71, 74
1, 3791, Note_off_c, 3, 73, 60
1, 3792, Note_on_c, 5, 66, 74
1, 3793, Note_on_c, 5, 61, 63
1, 3812, Note_off_c, 5, 71, 74
1, 3814, Note_off_c, 5, 61, 63
1, 3815, Note_off_c, 5, 66, 74
1, 3823, Note_off_c, 3, 75, 60
1, 3835, Note_on_c, 5, 61, 73
1, 3836, Note_on_c, 5, 71, 82
1, 3837, Note_on_c, 3, 75, 72
1, 3837, Note_on_c, 5, 66, 87
1, 3860, Note_off_c, 5, 71, 82
1, 3862, Note_off_c, 5, 66, 87
1, 3864, Note_off_c, 5, 61, 73
1, 3874, Note_off_c, 3, 75, 72
1, 3877, Note_on_c, 3, 73, 59
1, 3884, Note_on_c, 5, 61, 60
1, 3885, Note_on_c, 5, 70, 63
1, 3886, Control_c, 5, 64, 0
1, 3888, Note_on_c, 5, 66, 62
1, 3929, Note_off_c, 3, 73, 59
1, 3933, Note_off_c, 5, 61, 60
1, 3934, Note_on_c, 3, 77, 58
1, 3938, Note_off_c, 5, 66, 62
1, 3939, Note_off_c, 5, 70, 63
1, 3940, Note_on_c, 1, 51, 60
1, 3947, Note_off_c, 1, 49, 58
1, 3974, Control_c, 5, 64, 127
1, 3981, Note_on_c, 5, 63, 43
1, 3986, Note_on_c, 5, 66, 59
1, 3988, Note_on_c, 5, 71, 21
1, 4015, Note_off_c, 5, 66, 59
1, 4015, Note_off_c, 5, 63, 43
1, 4015, Note_off_c, 5, 71, 21
1, 4029, Note_on_c, 5, 63, 67
1, 4031, Note_on_c, 5, 71, 52
1, 4032, Note_on_c, 5, 66, 67
1, 4041, Note_off_c, 3, 77, 58
1, 4059, Note_off_c, 5, 66, 67
1, 4060, Note_off_c, 5, 63, 67
1, 4062, Note_off_c, 5, 71, 52
1, 4074, Note_on_c, 5, 63, 64
1, 4079, Note_on_c, 5, 70, 58
1, 4080, Note_on_c, 3, 70, 46
1, 4080, Note_on_c, 5, 66, 51
1, 4093, Note_off_c, 5, 63, 64
1, 4095, Note_off_c, 5, 66, 51
1, 4106, Note_off_c, 5, 70, 58
1, 4118, Note_off_c, 1, 51, 60
1, 4121, Note_on_c, 1, 50, 66
1, 4124, Note_on_c, 4, 50, 66
1, 4125, Note_on_c, 5, 70, 68
1, 4125, Note_off_c, 3, 70, 46
1, 4126, Note_on_c, 5, 66, 55
1, 4127, Control_c, 5, 64, 0
1, 4128, Note_on_c, 3, 70, 42
1, 4159, Control_c, 5, 64, 127
1, 4163, Note_off_c, 5, 66, 55
1, 4170, Note_off_c, 5, 70, 68
1, 4173, Note_on_c, 3, 71, 51
1, 4178, Note_off_c, 3, 70, 42
1, 4180, Note_on_c, 5, 66, 60
1, 4180, Note_on_c, 5, 71, 63
1, 4210, Note_off_c, 5, 71, 63
1, 4210, Note_off_c, 3, 71, 51
1, 4211, Note_off_c, 5, 66, 60
1, 4222, Note_on_c, 3, 71, 64
1, 4223, Note_on_c, 1, 49, 63
1, 4226, Note_on_c, 4, 49, 63
1, 4226, Note_on_c, 5, 66, 69
1, 4229, Note_off_c, 1, 50, 66
1, 4229, Note_on_c, 5, 71, 71
1, 4232, Note_off_c, 4, 50, 66
1, 4252, Control_c, 5, 64, 0
1, 4257, Note_off_c, 5, 66, 69
1, 4266, Note_on_c, 3, 70, 72
1, 4268, Note_off_c, 3, 71, 64
1, 4269, Note_on_c, 5, 66, 70
1, 4272, Note_on_c, 5, 70, 64
1, 4272, Note_off_c, 5, 71, 71
1, 4274, Control_c, 5, 64, 127
1, 4298, Note_off_c, 5, 66, 70
1, 4303, Note_off_c, 3, 70, 72
1, 4306, Note_off_c, 5, 70, 64
1, 4312, Note_on_c, 3, 70, 67
1, 4320, Note_on_c, 1, 51, 65
1, 4320, Note_off_c, 1, 49, 63
1, 4321, Note_on_c, 5, 66, 76
1, 4321, Note_on_c, 5, 70, 75
1, 4323, Note_on_c, 4, 51, 65
1, 4323, Note_off_c, 4, 49, 63
1, 4325, Control_c, 5, 64, 0
1, 4338, Control_c, 5, 64, 127
1, 4354, Note_off_c, 5, 66, 76
1, 4360, Note_off_c, 5, 70, 75
1, 4365, Note_on_c, 3, 71, 57
1, 4369, Note_on_c, 5, 66, 72
1, 4372, Note_off_c, 3, 70, 67
1, 4372, Note_on_c, 5, 71, 61
1, 4393, Note_off_c, 5, 66, 72
1, 4395, Note_off_c, 3, 71, 57
1, 4395, Note_off_c, 5, 71, 61
1, 4409, Note_on_c, 3, 71, 58
1, 4413, Note_off_c, 1, 51, 65
1, 4415, Note_on_c, 5, 66, 64
1, 4415, Note_on_c, 1, 50, 60
1, 4416, Note_off_c, 4, 51, 65
1, 4417, Note_on_c, 5, 71, 47
1, 4418, Note_on_c, 4, 50, 60
1, 4442, Note_off_c, 5, 66, 64
1, 4451, Note_off_c, 3, 71, 58
1, 4453, Note_off_c, 5, 71, 47
1, 4454, Note_on_c, 3, 70, 61
1, 4455, Control_c, 5, 64, 0
1, 4464, Note_on_c, 5, 70, 76
1, 4466, Note_on_c, 5, 66, 51
1, 4494, Control_c, 5, 64, 127
1, 4505, Note_off_c, 5, 70, 76
1, 4506, Note_on_c, 3, 73, 47
1, 4507, Note_on_c, 1, 46, 52
1, 4507, Note_off_c, 5, 66, 51
1, 4510, Note_on_c, 4, 46, 52
1, 4511, Note_off_c, 3, 70, 61
1, 4512, Time_signature, 3, 2, 24, 8
1, 4512, Note_off_c, 1, 50, 60
1, 4515, Note_off_c, 4, 50, 60
1, 4530, Control_c, 5, 64, 0
1, 4558, Note_on_c, 5, 66, 51
1, 4560, Note_on_c, 5, 73, 63
1, 4580, Note_off_c, 3, 73, 47
1, 4587, Control_c, 5, 64, 127
1, 4590, Note_off_c, 5, 66, 51
1, 4594, Note_off_c, 5, 73, 63
1, 4605, Note_on_c, 3, 73, 38
1, 4607, Note_on_c, 5, 66, 71
1, 4609, Note_on_c, 5, 73, 77
1, 4631, Note_off_c, 5, 73, 77
1, 4632, Note_off_c, 5, 66, 71
1, 4654, Note_on_c, 5, 68, 76
1, 4659, Note_on_c, 5, 73, 56
1, 4674, Control_c, 5, 64, 0
1, 4693, Note_off_c, 5, 73, 56
1, 4693, Note_off_c, 5, 68, 76
1, 4697, Note_off_c, 3, 73, 38
1, 4702, Note_on_c, 5, 73, 71
1, 4703, Note_on_c, 5, 68, 71
1, 4708, Control_c, 5, 64, 127
1, 4733, Note_off_c, 5, 68, 71
1, 4735, Note_off_c, 5, 73, 71
1, 4747, Note_on_c, 3, 66, 40
1, 4749, Note_on_c, 5, 73, 59
1, 4752, Note_on_c, 5, 66, 36
1, 4763, Control_c, 5, 64, 0
1, 4767, Note_off_c, 1, 46, 52
1, 4770, Note_off_c, 4, 46, 52
1, 4779, Note_off_c, 3, 66, 40
1, 4791, Note_off_c, 5, 66, 36
1, 4792, Note_off_c, 5, 73, 59
1, 4797, Note_on_c, 1, 45, 44
1, 4797, Note_on_c, 3, 66, 57
1, 4800, Time_signature, 4, 2, 24, 8
1, 4800, Note_on_c, 4, 45, 44
1, 4840, Note_on_c, 5, 68, 36
1, 4844, Note_on_c, 5, 73, 62
1, 4844, Note_on_c, 3, 68, 66
1, 4851, Note_off_c, 3, 66, 57
1, 4851, Control_c, 5, 64, 127
1, 4872, Note_off_c, 5, 68, 36
1, 4875, Note_off_c, 5, 73, 62
1, 4880, Note_off_c, 3, 68, 66
1, 4891, Note_on_c, 5, 68, 70
1, 4891, Note_on_c, 3, 68, 71
1, 4892, Note_on_c, 5, 73, 80
1, 4915, Note_off_c, 5, 68, 70
1, 4919, Note_off_c, 5, 73, 80
1, 4934, Note_on_c, 3, 66, 62
1, 4935, Note_off_c, 3, 68, 71
1, 4941, Note_on_c, 5, 66, 57
1, 4941, Note_on_c, 5, 73, 77
1, 4961, Note_off_c, 5, 73, 77
1, 4961, Note_off_c, 5, 66, 57
1, 4968, Note_off_c, 3, 66, 62
1, 4985, Note_on_c, 1, 46, 52
1, 4986, Note_on_c, 5, 66, 70
1, 4988, Note_on_c, 3, 66, 64
1, 4988, Note_on_c, 4, 46, 52
1, 4988, Note_on_c, 5, 73, 71
1, 4989, Note_off_c, 1, 45, 44
1, 4992, Note_off_c, 4, 45, 44
1, 5000, Control_c, 5, 64, 0
1, 5018, Note_off_c, 5, 66, 70
1, 5019, Control_c, 5, 64, 127
1, 5024, Note_off_c, 5, 73, 71
1, 5033, Note_on_c, 3, 68, 56
1, 5036, Note_on_c, 5, 73, 52
1, 5038, Note_off_c, 3, 66, 64
1, 5042, Note_on_c, 5, 68, 50
1, 5057, Note_off_c, 5, 68, 50
1, 5060, Note_off_c, 3, 68, 56
1, 5063, Note_off_c, 5, 73, 52
1, 5081, Note_on_c, 3, 68, 52
1, 5087, Note_off_c, 1, 46, 52
1, 5088, Note_on_c, 1, 45, 34
1, 5090, Note_off_c, 4, 46, 52
1, 5090, Note_on_c, 5, 73, 47
1, 5091, Note_on_c, 4, 45, 34
1, 5091, Note_on_c, 5, 68, 53
1, 5112, Control_c, 5, 64, 0
1, 5114, Note_off_c, 5, 68, 53
1, 5125, Note_off_c, 5, 73, 47
1, 5125, Note_off_c, 3, 68, 52
1, 5128, Note_on_c, 3, 66, 52
1, 5134, Note_on_c, 5, 73, 56
1, 5136, Note_on_c, 5, 66, 39
1, 5179, Note_on_c, 3, 71, 37
1, 5182, Note_off_c, 5, 66, 39
1, 5183, Note_on_c, 1, 44, 48
1, 5186, Note_off_c, 1, 45, 34
1, 5186, Note_off_c, 5, 73, 56
1, 5186, Note_on_c, 4, 44, 48
1, 5189, Note_off_c, 3, 66, 52
1, 5189, Note_off_c, 4, 45, 34
1, 5232, Note_on_c, 5, 66, 58
1, 5234, Note_on_c, 5, 63, 33
1, 5268, Note_off_c, 5, 63, 33
1, 5268, Note_off_c, 5, 66, 58
1, 5268, Control_c, 5, 64, 127
1, 5280, Note_on_c, 5, 66, 64
1, 5282, Note_on_c, 5, 63, 51
1, 5302, Note_off_c, 5, 63, 51
1, 5308, Note_off_c, 5, 66, 64
1, 5326, Note_on_c, 5, 63, 46
1, 5327, Note_on_c, 5, 68, 56
1, 5340, Note_off_c, 3, 71, 37
1, 5350, Note_off_c, 5, 63, 46
1, 5352, Note_off_c, 5, 68, 56
1, 5373, Control_c, 5, 64, 0
1, 5374, Note_on_c, 5, 63, 60
1, 5375, Note_on_c, 5, 68, 70
1, 5399, Control_c, 5, 64, 127
1, 5409, Note_off_c, 5, 63, 60
1, 5415, Note_off_c, 1, 44, 48
1, 5418, Note_off_c, 5, 68, 70
1, 5418, Note_off_c, 4, 44, 48
1, 5422, Note_on_c, 3, 71, 51
1, 5424, Note_on_c, 5, 63, 56
1, 5424, Note_on_c, 5, 66, 64
1, 5443, Note_off_c, 5, 63, 56
1, 5445, Note_off_c, 5, 66, 64
1, 5471, Note_on_c, 1, 34, 47
1, 5472, Note_on_c, 5, 66, 72
1, 5473, Note_on_c, 3, 63, 54
1, 5473, Note_on_c, 5, 63, 62
1, 5474, Note_on_c, 4, 34, 47
1, 5483, Note_off_c, 3, 71, 51
1, 5494, Note_off_c, 5, 66, 72
1, 5497, Note_off_c, 5, 63, 62
1, 5521, Note_on_c, 3, 62, 47
1, 5523, Note_on_c, 5, 68, 57
1, 5527, Note_on_c, 5, 62, 20
1, 5532, Control_c, 5, 64, 0
1, 5533, Note_off_c, 3, 63, 54
1, 5560, Note_off_c, 5, 68, 57
1, 5562, Note_off_c, 5, 62, 20
1, 5563, Note_off_c, 3, 62, 47
1, 5568, Time_signature, 3, 2, 24, 8
1, 5568, Note_off_c, 1, 34, 47
1, 5568, Note_on_c, 3, 71, 68
1, 5568, Note_on_c, 1, 39, 47
1, 5571, Note_off_c, 4, 34, 47
1, 5571, Note_on_c, 4, 39, 47
1, 5576, Note_on_c, 5, 66, 39
1, 5577, Note_on_c, 5, 71, 46
1, 5581, Control_c, 5, 64, 127
1, 5615, Note_off_c, 5, 71, 46
1, 5617, Note_off_c, 3, 71, 68
1, 5617, Note_on_c, 3, 70, 59
1, 5618, Note_off_c, 5, 66, 39
1, 5622, Note_on_c, 5, 70, 66
1, 5625, Note_on_c, 5, 65, 50
1, 5635, Note_off_c, 5, 70, 66
1, 5639, Note_off_c, 5, 65, 50
1, 5662, Note_on_c, 1, 38, 49
1, 5664, Note_on_c, 5, 70, 59
1, 5664, Note_on_c, 3, 77, 54
1, 5665, Note_on_c, 5, 77, 58
1, 5665, Note_on_c, 4, 38, 49
1, 5670, Note_off_c, 1, 39, 47
1, 5672, Note_off_c, 3, 70, 59
1, 5673, Note_off_c, 4, 39, 47
1, 5705, Note_off_c, 5, 70, 59
1, 5711, Note_off_c, 3, 77, 54
1, 5712, Note_on_c, 3, 78, 46
1, 5714, Note_on_c, 5, 70, 53
1, 5718, Note_on_c, 5, 78, 81
1, 5722, Note_off_c, 5, 77, 58
1, 5728, Note_off_c, 5, 70, 53
1, 5729, Note_off_c, 5, 78, 81
1, 5758, Note_on_c, 1, 37, 61
1, 5761, Note_on_c, 4, 37, 61
1, 5764, Note_off_c, 1, 38, 49
1, 5764, Note_on_c, 5, 66, 51
1, 5764, Control_c, 5, 64, 0
1, 5764, Note_on_c, 3, 71, 53
1, 5766, Note_on_c, 5, 71, 61
1, 5767, Note_off_c, 3, 78, 46
1, 5767, Note_off_c, 4, 38, 49
1, 5812, Note_off_c, 5, 66, 51
1, 5812, Note_off_c, 3, 71, 53
1, 5815, Note_off_c, 5, 71, 61
1, 5815, Note_on_c, 3, 70, 49
1, 5818, Note_on_c, 5, 66, 31
1, 5819, Note_on_c, 5, 70, 59
1, 5843, Note_off_c, 3, 70, 49
1, 5844, Note_off_c, 5, 70, 59
1, 5851, Note_off_c, 5, 66, 31
1, 5854, Note_off_c, 1, 37, 61
1, 5856, Time_signature, 5, 2, 24, 8
1, 5857, Note_off_c, 4, 37, 61
1, 5858, Note_on_c, 3, 70, 51
1, 5860, Note_on_c, 1, 36, 43
1, 5863, Note_on_c, 4, 36, 43
1, 5902, Note_on_c, 5, 63, 52
1, 5904, Note_on_c, 5, 66, 54
1, 5912, Note_on_c, 3, 68, 44
1, 5914, Note_off_c, 3, 70, 51
1, 5929, Note_off_c, 5, 63, 52
1, 5931, Note_off_c, 5, 66, 54
1, 5948, Note_on_c, 5, 66, 78
1, 5949, Note_on_c, 5, 63, 67
1, 5963, Control_c, 5, 64, 127
1, 5981, Note_off_c, 5, 63, 67
1, 5995, Note_on_c, 5, 63, 53
1, 5996, Note_off_c, 5, 66, 78
1, 5996, Note_on_c, 5, 68, 78
1, 6019, Note_off_c, 5, 63, 53
1, 6024, Note_off_c, 5, 68, 78
1, 6044, Note_on_c, 5, 68, 67
1, 6045, Note_on_c, 5, 63, 39
1, 6048, Control_c, 5, 64, 0
1, 6073, Note_off_c, 5, 63, 39
1, 6090, Note_off_c, 3, 68, 44
1, 6093, Note_on_c, 5, 63, 29
1, 6094, Note_on_c, 5, 66, 56
1, 6096, Note_off_c, 5, 68, 67
1, 6152, Note_off_c, 1, 36, 43
1, 6155, Note_off_c, 4, 36, 43
1, 6187, Note_on_c, 3, 73, 58
1, 6193, Note_off_c, 5, 66, 56
1, 6199, Note_off_c, 5, 63, 29
1, 6237, Note_on_c, 3, 77, 63
1, 6242, Note_off_c, 3, 73, 58
1, 6286, Note_on_c, 3, 78, 76
1, 6290, Note_off_c, 3, 77, 63
1, 6336, Time_signature, 3, 2, 24, 8
1, 6336, Note_on_c, 1, 48, 43
1, 6337, Note_on_c, 3, 69, 60
1, 6339, Note_off_c, 3, 78, 76
1, 6371, Note_off_c, 3, 69, 60
1, 6386, Note_on_c, 3, 69, 53
1, 6386, Note_on_c, 5, 60, 25
1, 6386, Note_on_c, 5, 63, 46
1, 6387, Note_on_c, 5, 69, 25
1, 6387, Note_on_c, 5, 66, 22
1, 6411, Note_off_c, 3, 69, 53
1, 6425, Note_off_c, 5, 66, 22
1, 6425, Note_off_c, 5, 63, 46
1, 6425, Control_c, 5, 64, 127
1, 6428, Note_off_c, 5, 60, 25
1, 6429, Note_off_c, 5, 69, 25
1, 6431, Note_on_c, 5, 63, 58
1, 6432, Note_on_c, 3, 69, 50
1, 6433, Note_on_c, 5, 60, 44
1, 6434, Note_on_c, 5, 69, 31
1, 6436, Note_on_c, 5, 66, 22
1, 6460, Note_off_c, 5, 66, 22
1, 6464, Note_off_c, 5, 69, 31
1, 6465, Note_off_c, 5, 60, 44
1, 6467, Note_off_c, 5, 63, 58
1, 6481, Note_on_c, 5, 60, 51
1, 6483, Note_on_c, 5, 64, 33
1, 6484, Note_on_c, 5, 66, 22
1, 6484, Note_on_c, 5, 69, 41
1, 6496, Note_off_c, 5, 66, 22
1, 6499, Note_off_c, 5, 60, 51
1, 6500, Note_off_c, 5, 69, 41
1, 6502, Note_off_c, 5, 64, 33
1, 6524, Note_off_c, 1, 48, 43
1, 6527, Note_on_c, 1, 42, 50
1, 6528, Note_on_c, 5, 66, 22
1, 6529, Note_on_c, 5, 60, 47
1, 6530, Note_on_c, 5, 69, 54
1, 6531, Note_on_c, 5, 64, 35
1, 6540, Control_c, 5, 64, 0
1, 6544, Note_off_c, 3, 69, 50
1, 6562, Note_off_c, 5, 60, 47
1, 6566, Control_c, 5, 64, 127
1, 6571, Note_off_c, 5, 64, 35
1, 6575, Note_on_c, 5, 63, 58
1, 6576, Note_on_c, 5, 60, 36
1, 6594, Note_off_c, 5, 66, 22
1, 6596, Note_off_c, 5, 69, 54
1, 6597, Note_off_c, 5, 60, 36
1, 6600, Note_off_c, 5, 63, 58
1, 6624, Note_on_c, 5, 64, 29
1, 6625, Note_on_c, 5, 60, 44
1, 6626, Note_on_c, 1, 48, 37
1, 6626, Note_on_c, 5, 66, 22
1, 6627, Note_off_c, 1, 42, 50
1, 6627, Note_on_c, 5, 69, 49
1, 6637, Control_c, 5, 64, 0
1, 6655, Note_off_c, 5, 60, 44
1, 6657, Control_c, 5, 64, 127
1, 6658, Note_off_c, 5, 66, 22
1, 6662, Note_off_c, 5, 69, 49
1, 6664, Note_off_c, 5, 64, 29
1, 6672, Note_on_c, 5, 66, 22
1, 6673, Note_on_c, 5, 63, 53
1, 6674, Note_on_c, 5, 60, 38
1, 6675, Note_on_c, 5, 69, 17
1, 6686, Note_off_c, 5, 66, 22
1, 6693, Note_off_c, 5, 69, 17
1, 6693, Note_off_c, 5, 63, 53
1, 6694, Note_off_c, 5, 60, 38
1, 6733, Note_on_c, 5, 63, 45
1, 6734, Note_on_c, 5, 60, 22
1, 6735, Note_on_c, 5, 69, 34
1, 6736, Note_on_c, 5, 66, 15
1, 6740, Control_c, 5, 64, 0
1, 6786, Note_on_c, 3, 73, 57
1, 6830, Note_on_c, 3, 77, 53
1, 6837, Note_off_c, 3, 73, 57
1, 6874, Note_off_c, 1, 48, 37
1, 6879, Note_on_c, 3, 78, 75
1, 6882, Note_off_c, 3, 77, 53
1, 6884, Note_off_c, 5, 66, 15
1, 6890, Note_off_c, 5, 69, 34
1, 6891, Note_off_c, 5, 60, 22
1, 6896, Note_off_c, 5, 63, 45
1, 6912, Time_signature, 5, 2, 24, 8
1, 6920, Note_on_c, 1, 47, 39
1, 6920, Note_on_c, 3, 68, 54
1, 6921, Note_off_c, 3, 78, 75
1, 6921, Note_on_c, 4, 47, 39
1, 6961, Note_on_c, 5, 68, 54
1, 6962, Note_on_c, 5, 63, 31
1, 6970, Control_c, 5, 64, 127
1, 6982, Note_off_c, 3, 68, 54
1, 6989, Note_off_c, 5, 63, 31
1, 6989, Note_off_c, 5, 68, 54
1, 7009, Note_on_c, 5, 63, 42
1, 7009, Note_on_c, 5, 68, 46
1, 7014, Note_on_c, 3, 68, 63
1, 7027, Note_off_c, 5, 63, 42
1, 7028, Note_off_c, 5, 68, 46
1, 7053, Note_on_c, 5, 68, 71
1, 7054, Note_on_c, 5, 62, 56
1, 7073, Note_off_c, 5, 62, 56
1, 7077, Note_off_c, 5, 68, 71
1, 7101, Note_on_c, 5, 68, 71
1, 7102, Note_on_c, 5, 62, 64
1, 7108, Control_c, 5, 64, 0
1, 7124, Control_c, 5, 64, 127
1, 7137, Note_off_c, 5, 62, 64
1, 7137, Note_off_c, 5, 68, 71
1, 7146, Note_off_c, 3, 68, 63
1, 7149, Note_on_c, 5, 68, 44
1, 7151, Note_on_c, 5, 63, 55
1, 7167, Control_c, 5, 64, 0
1, 7170, Note_off_c, 1, 47, 39
1, 7171, Note_off_c, 4, 47, 39
1, 7183, Note_off_c, 5, 63, 55
1, 7188, Note_off_c, 5, 68, 44
1, 7245, Note_on_c, 1, 35, 49
1, 7247, Note_on_c, 5, 63, 39
1, 7248, Note_on_c, 4, 35, 49
1, 7249, Note_on_c, 5, 66, 49
1, 7256, Note_on_c, 3, 71, 47
1, 7266, Control_c, 5, 64, 127
1, 7280, Note_off_c, 5, 66, 49
1, 7281, Note_off_c, 5, 63, 39
1, 7295, Note_on_c, 5, 66, 68
1, 7296, Note_on_c, 5, 63, 57
1, 7298, Note_off_c, 1, 35, 49
1, 7298, Note_on_c, 1, 34, 47
1, 7299, Note_on_c, 3, 63, 61
1, 7301, Note_off_c, 4, 35, 49
1, 7301, Note_on_c, 4, 34, 47
1, 7313, Note_off_c, 3, 71, 47
1, 7322, Note_off_c, 5, 63, 57
1, 7322, Note_off_c, 5, 66, 68
1, 7342, Note_on_c, 5, 68, 70
1, 7343, Note_on_c, 3, 62, 50
1, 7344, Note_on_c, 5, 62, 54
1, 7349, Note_off_c, 3, 63, 61
1, 7364, Note_off_c, 5, 68, 70
1, 7371, Note_off_c, 5, 62, 54
1, 7384, Control_c, 5, 64, 0
1, 7388, Note_on_c, 5, 66, 62
1, 7390, Note_on_c, 1, 39, 33
1, 7392, Time_signature, 3, 2, 24, 8
1, 7393, Note_off_c, 3, 62, 50
1, 7393, Note_on_c, 4, 39, 33
1, 7394, Note_on_c, 5, 71, 44
1, 7395, Note_on_c, 3, 71, 40
1, 7396, Note_off_c, 1, 34, 47
1, 7399, Note_off_c, 4, 34, 47
1, 7432, Control_c, 5, 64, 127
1, 7434, Note_off_c, 3, 71, 40
1, 7435, Note_on_c, 3, 70, 66
1, 7441, Note_off_c, 5, 71, 44
1, 7441, Note_off_c, 5, 66, 62
1, 7441, Note_on_c, 5, 65, 39
1, 7443, Note_on_c, 5, 70, 63
1, 7454, Note_off_c, 5, 70, 63
1, 7456, Note_off_c, 5, 65, 39
1, 7470, Note_off_c, 3, 70, 66
1, 7484, Note_on_c, 1, 38, 43
1, 7486, Note_off_c, 1, 39, 33
1, 7486, Note_on_c, 5, 70, 69
1, 7487, Note_on_c, 4, 38, 43
1, 7488, Note_on_c, 5, 77, 49
1, 7489, Note_off_c, 4, 39, 33
1, 7491, Note_on_c, 3, 77, 54
1, 7493, Control_c, 5, 64, 0
1, 7524, Control_c, 5, 64, 127
1, 7529, Note_off_c, 3, 77, 54
1, 7534, Note_off_c, 5, 70, 69
1, 7537, Note_on_c, 3, 78, 43
1, 7538, Note_on_c, 5, 78, 69
1, 7539, Note_off_c, 5, 77, 49
1, 7544, Note_on_c, 5, 70, 55
1, 7552, Note_off_c, 5, 70, 55
1, 7573, Note_off_c, 5, 78, 69
1, 7574, Note_off_c, 3, 78, 43
1, 7580, Note_on_c, 1, 37, 44
1, 7583, Note_on_c, 4, 37, 44
1, 7586, Note_off_c, 1, 38, 43
1, 7586, Note_on_c, 3, 71, 49
1, 7587, Note_on_c, 5, 71, 51
1, 7588, Note_on_c, 5, 66, 46
1, 7589, Note_off_c, 4, 38, 43
1, 7600, Control_c, 5, 64, 0
1, 7625, Note_off_c, 3, 71, 49
1, 7628, Note_off_c, 5, 71, 51
1, 7629, Note_on_c, 3, 70, 44
1, 7635, Note_on_c, 5, 70, 49
1, 7656, Note_off_c, 5, 70, 49
1, 7662, Note_off_c, 3, 70, 44
1, 7662, Note_off_c, 5, 66, 46
1, 7678, Note_off_c, 1, 37, 44
1, 7680, Note_on_c, 1, 36, 43
1, 7681, Note_on_c, 3, 70, 53
1, 7681, Note_off_c, 4, 37, 44
1, 7683, Note_on_c, 4, 36, 43
1, 7726, Note_on_c, 5, 66, 56
1, 7729, Note_on_c, 5, 63, 32
1, 7741, Control_c, 5, 64, 127
1, 7755, Note_off_c, 5, 66, 56
1, 7756, Note_off_c, 5, 63, 32
1, 7771, Note_on_c, 3, 68, 36
1, 7772, Note_on_c, 5, 63, 63
1, 7772, Note_off_c, 3, 70, 53
1, 7773, Note_on_c, 5, 66, 71
1, 7803, Note_off_c, 5, 66, 71
1, 7803, Note_off_c, 5, 63, 63
1, 7822, Note_on_c, 5, 63, 69
1, 7823, Note_on_c, 5, 68, 85
1, 7845, Note_off_c, 5, 63, 69
1, 7849, Note_off_c, 5, 68, 85
1, 7867, Note_on_c, 5, 63, 54
1, 7868, Note_on_c, 5, 68, 69
1, 7871, Control_c, 5, 64, 0
1, 7893, Note_off_c, 5, 63, 54
1, 7916, Note_off_c, 5, 68, 69
1, 7921, Note_on_c, 5, 63, 28
1, 7922, Note_on_c, 5, 66, 45
1, 7933, Note_off_c, 3, 68, 36
1, 7984, Note_off_c, 5, 63, 28
1, 7988, Note_off_c, 5, 66, 45
1, 7989, Note_off_c, 1, 36, 43
1, 7992, Note_off_c, 4, 36, 43
1, 8256, Time_signature, 5, 2, 24, 8
1, 8256, Note_on_c, 1, 37, 59
1, 8256, Note_on_c, 4, 37, 59
1, 8301, Note_on_c, 3, 73, 51
1, 8305, Note_on_c, 5, 70, 44
1, 8308, Note_on_c, 5, 66, 49
1, 8310, Control_c, 5, 64, 127
1, 8311, Note_on_c, 5, 61, 26
1, 8338, Note_off_c, 5, 66, 49
1, 8338, Note_off_c, 5, 61, 26
1, 8341, Note_off_c, 5, 70, 44
1, 8343, Note_off_c, 3, 73, 51
1, 8351, Note_on_c, 3, 73, 65
1, 8356, Note_on_c, 5, 70, 58
1, 8357, Note_on_c, 5, 61, 61
1, 8359, Note_on_c, 5, 66, 68
1, 8376, Note_off_c, 5, 66, 68
1, 8377, Note_off_c, 5, 61, 61
1, 8379, Note_off_c, 5, 70, 58
1, 8400, Note_on_c, 3, 75, 67
1, 8400, Note_off_c, 3, 73, 65
1, 8402, Note_on_c, 5, 61, 59
1, 8403, Note_on_c, 5, 71, 48
1, 8404, Note_on_c, 5, 66, 64
1, 8419, Note_off_c, 5, 66, 64
1, 8421, Note_off_c, 5, 61, 59
1, 8422, Note_off_c, 5, 71, 48
1, 8436, Note_off_c, 3, 75, 67
1, 8449, Note_on_c, 3, 75, 69
1, 8449, Note_on_c, 5, 61, 60
1, 8450, Note_on_c, 5, 71, 69
1, 8451, Note_on_c, 5, 66, 71
1, 8471, Note_off_c, 5, 66, 71
1, 8471, Note_off_c, 5, 61, 60
1, 8474, Note_off_c, 5, 71, 69
1, 8491, Note_on_c, 3, 73, 53
1, 8493, Note_off_c, 3, 75, 69
1, 8495, Note_on_c, 5, 61, 56
1, 8497, Note_on_c, 5, 70, 57
1, 8499, Note_on_c, 5, 66, 64
1, 8513, Note_off_c, 5, 66, 64
1, 8517, Note_off_c, 5, 61, 56
1, 8520, Note_off_c, 5, 70, 57
1, 8524, Note_off_c, 3, 73, 53
1, 8537, Note_on_c, 1, 39, 56
1, 8539, Note_off_c, 1, 37, 59
1, 8539, Note_on_c, 3, 73, 50
1, 8539, Note_off_c, 4, 37, 59
1, 8540, Note_on_c, 4, 39, 56
1, 8547, Note_on_c, 5, 63, 57
1, 8548, Note_on_c, 5, 70, 60
1, 8550, Note_on_c, 5, 66, 69
1, 8554, Control_c, 5, 64, 0
1, 8579, Control_c, 5, 64, 127
1, 8583, Note_off_c, 5, 70, 60
1, 8583, Note_off_c, 5, 63, 57
1, 8590, Note_on_c, 3, 75, 43
1, 8595, Note_off_c, 3, 73, 50
1, 8596, Note_on_c, 5, 63, 58
1, 8597, Note_on_c, 5, 71, 56
1, 8623, Control_c, 5, 64, 0
1, 8636, Note_off_c, 3, 75, 43
1, 8667, Note_off_c, 5, 63, 58
1, 8668, Note_off_c, 5, 71, 56
1, 8670, Note_off_c, 5, 66, 69
1, 8690, Note_on_c, 5, 63, 52
1, 8691, Note_on_c, 3, 73, 37
1, 8692, Note_on_c, 5, 66, 51
1, 8694, Note_on_c, 5, 70, 53
1, 8723, Note_off_c, 5, 66, 51
1, 8724, Note_off_c, 3, 73, 37
1, 8725, Note_off_c, 5, 70, 53
1, 8726, Note_off_c, 5, 63, 52
1, 8736, Time_signature, 4, 2, 24, 8
1, 8736, Note_off_c, 1, 39, 56
1, 8736, Note_on_c, 1, 41, 51
1, 8737, Note_on_c, 5, 66, 83
1, 8737, Note_on_c, 5, 70, 80
1, 8738, Control_c, 5, 64, 127
1, 8739, Note_off_c, 4, 39, 56
1, 8739, Note_on_c, 4, 41, 51
1, 8739, Note_on_c, 3, 73, 63
1, 8766, Note_off_c, 5, 66, 83
1, 8774, Note_off_c, 5, 70, 80
1, 8782, Note_on_c, 5, 66, 70
1, 8783, Note_on_c, 5, 71, 60
1, 8784, Note_on_c, 3, 75, 66
1, 8787, Note_off_c, 3, 73, 63
1, 8811, Note_off_c, 5, 71, 60
1, 8811, Note_off_c, 5, 66, 70
1, 8812, Note_off_c, 3, 75, 66
1, 8827, Note_on_c, 1, 42, 57
1, 8827, Note_on_c, 3, 75, 74
1, 8830, Note_on_c, 4, 42, 57
1, 8832, Note_on_c, 5, 66, 66
1, 8833, Note_on_c, 5, 71, 52
1, 8834, Note_off_c, 1, 41, 51
1, 8837, Note_off_c, 4, 41, 51
1, 8837, Control_c, 5, 64, 0
1, 8868, Control_c, 5, 64, 127
1, 8869, Note_on_c, 3, 73, 64
1, 8874, Note_off_c, 3, 75, 74
1, 8877, Note_off_c, 5, 71, 52
1, 8881, Note_on_c, 5, 70, 55
1, 8894, Note_off_c, 5, 70, 55
1, 8899, Note_off_c, 5, 66, 66
1, 8923, Note_off_c, 3, 73, 64
1, 8923, Note_off_c, 1, 42, 57
1, 8924, Note_on_c, 3, 77, 54
1, 8926, Note_off_c, 4, 42, 57
1, 8927, Note_on_c, 5, 73, 64
1, 8929, Note_on_c, 1, 34, 55
1, 8931, Note_on_c, 5, 65, 33
1, 8932, Note_on_c, 4, 34, 55
1, 8937, Control_c, 5, 64, 0
1, 8962, Control_c, 5, 64, 127
1, 8977, Note_off_c, 5, 65, 33
1, 8978, Note_off_c, 5, 73, 64
1, 9039, Note_off_c, 3, 77, 54
1, 9069, Note_on_c, 3, 70, 54
1, 9071, Note_on_c, 5, 65, 31
1, 9073, Note_on_c, 5, 70, 38
1, 9080, Note_off_c, 5, 70, 38
1, 9086, Note_off_c, 5, 65, 31
1, 9094, Note_off_c, 1, 34, 55
1, 9097, Note_off_c, 4, 34, 55
1, 9102, Note_off_c, 3, 70, 54
1, 9113, Control_c, 5, 64, 0
1, 9118, Note_on_c, 3, 70, 62
1, 9120, Note_on_c, 1, 38, 51
1, 9122, Note_on_c, 5, 65, 51
1, 9123, Note_on_c, 4, 50, 51
1, 9123, Note_on_c, 5, 70, 61
1, 9145, Control_c, 5, 64, 127
1, 9150, Note_off_c, 5, 65, 51
1, 9157, Note_off_c, 5, 70, 61
1, 9165, Note_on_c, 3, 71, 64
1, 9166, Note_off_c, 3, 70, 62
1, 9170, Note_on_c, 5, 71, 64
1, 9170, Note_on_c, 5, 65, 41
1, 9188, Note_off_c, 5, 65, 41
1, 9192, Note_off_c, 5, 71, 64
1, 9197, Note_off_c, 3, 71, 64
1, 9212, Note_on_c, 3, 71, 62
1, 9218, Note_on_c, 5, 65, 58
1, 9219, Note_on_c, 5, 71, 75
1, 9226, Control_c, 5, 64, 0
1, 9250, Note_off_c, 5, 65, 58
1, 9255, Note_off_c, 5, 71, 75
1, 9258, Control_c, 5, 64, 127
1, 9260, Note_on_c, 3, 70, 56
1, 9262, Note_off_c, 3, 71, 62
1, 9265, Note_on_c, 5, 70, 58
1, 9265, Note_on_c, 5, 64, 33
1, 9293, Note_off_c, 3, 70, 56
1, 9299, Note_off_c, 5, 70, 58
1, 9300, Note_off_c, 5, 64, 33
1, 9310, Note_off_c, 1, 38, 51
1, 9313, Note_off_c, 4, 50, 51
1, 9313, Note_on_c, 5, 64, 45
1, 9314, Note_on_c, 1, 37, 51
1, 9314, Note_on_c, 5, 70, 69
1, 9315, Note_on_c, 3, 70, 41
1, 9317, Note_on_c, 4, 49, 51
1, 9328, Control_c, 5, 64, 0
1, 9349, Note_off_c, 5, 70, 69
1, 9352, Note_off_c, 5, 64, 45
1, 9360, Note_on_c, 5, 71, 62
1, 9361, Note_on_c, 5, 64, 41
1, 9367, Note_on_c, 3, 71, 38
1, 9368, Note_off_c, 3, 70, 41
1, 9368, Control_c, 5, 64, 127
1, 9414, Note_off_c, 3, 71, 38
1, 9419, Note_off_c, 5, 64, 41
1, 9425, Note_off_c, 5, 71, 62
1, 9455, Note_on_c, 3, 70, 48
1, 9456, Note_on_c, 5, 70, 57
1, 9459, Control_c, 5, 64, 0
1, 9460, Note_on_c, 5, 66, 57
1, 9468, Note_off_c, 1, 37, 51
1, 9471, Note_off_c, 4, 49, 51
1, 9484, Note_off_c, 3, 70, 48
1, 9486, Note_off_c, 5, 66, 57
1, 9489, Note_off_c, 5, 70, 57
1, 9491, Control_c, 5, 64, 127
1, 9503, Note_on_c, 5, 70, 58
1, 9504, Note_on_c, 3, 70, 58
1, 9506, Note_on_c, 5, 66, 74
1, 9507, Note_on_c, 1, 39, 51
1, 9510, Note_on_c, 4, 51, 51
1, 9533, Note_off_c, 5, 66, 74
1, 9536, Note_off_c, 5, 70, 58
1, 9546, Note_on_c, 3, 71, 62
1, 9551, Note_on_c, 5, 66, 73
1, 9552, Note_on_c, 5, 71, 68
1, 9553, Note_off_c, 3, 70, 58
1, 9572, Note_off_c, 3, 71, 62
1, 9579, Note_off_c, 5, 66, 73
1, 9580, Note_off_c, 5, 71, 68
1, 9593, Note_on_c, 3, 71, 50
1, 9600, Note_on_c, 5, 66, 70
1, 9601, Note_on_c, 1, 38, 40
1, 9601, Note_on_c, 5, 71, 66
1, 9604, Note_on_c, 4, 50, 40
1, 9604, Control_c, 5, 64, 0
1, 9606, Note_off_c, 1, 39, 51
1, 9609, Note_off_c, 4, 51, 51
1, 9623, Control_c, 5, 64, 127
1, 9630, Note_off_c, 5, 66, 70
1, 9639, Note_on_c, 3, 70, 49
1, 9640, Note_off_c, 5, 71, 66
1, 9646, Note_off_c, 3, 71, 50
1, 9648, Note_on_c, 5, 70, 61
1, 9649, Note_on_c, 5, 66, 49
1, 9685, Control_c, 5, 64, 0
1, 9691, Note_on_c, 3, 73, 55
1, 9694, Note_off_c, 1, 38, 40
1, 9696, Note_on_c, 1, 34, 62
1, 9696, Note_off_c, 3, 70, 49
1, 9697, Note_off_c, 4, 50, 40
1, 9699, Note_on_c, 4, 46, 62
1, 9701, Note_off_c, 5, 66, 49
1, 9705, Note_off_c, 5, 70, 61
1, 9742, Note_on_c, 5, 73, 56
1, 9743, Note_on_c, 5, 66, 46
1, 9754, Control_c, 5, 64, 127
1, 9772, Note_off_c, 5, 66, 46
1, 9778, Note_off_c, 5, 73, 56
1, 9789, Note_on_c, 5, 66, 55
1, 9793, Note_on_c, 5, 73, 47
1, 9819, Note_off_c, 5, 66, 55
1, 9829, Note_off_c, 5, 73, 47
1, 9830, Note_off_c, 3, 73, 55
1, 9836, Note_on_c, 5, 68, 57
1, 9838, Note_on_c, 5, 73, 63
1, 9847, Control_c, 5, 64, 0
1, 9889, Note_off_c, 5, 68, 57
1, 9890, Note_on_c, 1, 33, 46
1, 9890, Note_off_c, 5, 73, 63
1, 9890, Note_on_c, 5, 73, 49
1, 9890, Note_on_c, 5, 68, 36
1, 9892, Note_off_c, 1, 34, 62
1, 9893, Note_on_c, 4, 33, 46
1, 9895, Note_off_c, 4, 46, 62
1, 9945, Note_on_c, 5, 66, 22
1, 9953, Note_off_c, 5, 68, 36
1, 10087, Note_off_c, 5, 66, 22
1, 10092, Note_off_c, 5, 73, 49
1, 10126, Note_on_c, 3, 73, 50
1, 10140, Note_off_c, 1, 33, 46
1, 10143, Note_off_c, 4, 33, 46
1, 10174, Note_on_c, 3, 77, 65
1, 10179, Note_off_c, 3, 73, 50
1, 10223, Note_on_c, 3, 78, 64
1, 10224, Note_off_c, 3, 77, 65
1, 10272, Time_signature, 3, 2, 24, 8
1, 10272, Note_on_c, 1, 48, 43
1, 10275, Note_on_c, 3, 69, 47
1, 10281, Note_off_c, 3, 78, 64
1, 10311, Note_off_c, 3, 69, 47
1, 10322, Note_on_c, 5, 60, 25
1, 10322, Note_on_c, 5, 63, 46
1, 10323, Note_on_c, 5, 69, 25
1, 10323, Note_on_c, 5, 66, 22
1, 10323, Note_on_c, 3, 69, 53
1, 10356, Note_off_c, 3, 69, 53
1, 10361, Note_off_c, 5, 66, 22
1, 10361, Note_off_c, 5, 63, 46
1, 10361, Control_c, 5, 64, 127
1, 10364, Note_off_c, 5, 60, 25
1, 10365, Note_off_c, 5, 69, 25
1, 10367, Note_on_c, 5, 63, 58
1, 10369, Note_on_c, 5, 60, 44
1, 10370, Note_on_c, 5, 69, 31
1, 10372, Note_on_c, 3, 69, 52
1, 10372, Note_on_c, 5, 66, 22
1, 10396, Note_off_c, 5, 66, 22
1, 10400, Note_off_c, 5, 69, 31
1, 10401, Note_off_c, 5, 60, 44
1, 10403, Note_off_c, 5, 63, 58
1, 10417, Note_on_c, 5, 60, 51
1, 10419, Note_on_c, 5, 64, 33
1, 10420, Note_on_c, 5, 66, 22
1, 10420, Note_on_c, 5, 69, 41
1, 10432, Note_off_c, 5, 66, 22
1, 10435, Note_off_c, 5, 60, 51
1, 10436, Note_off_c, 5, 69, 41
1, 10438, Note_off_c, 5, 64, 33
1, 10460, Note_off_c, 1, 48, 43
1, 10463, Note_on_c, 1, 42, 50
1, 10464, Note_on_c, 5, 66, 22
1, 10465, Note_on_c, 5, 60, 47
1, 10466, Note_on_c, 5, 69, 54
1, 10467, Note_on_c, 5, 64, 35
1, 10476, Control_c, 5, 64, 0
1, 10498, Note_off_c, 5, 60, 47
1, 10502, Control_c, 5, 64, 127
1, 10507, Note_off_c, 5, 64, 35
1, 10511, Note_on_c, 5, 63, 58
1, 10512, Note_off_c, 3, 69, 52
1, 10512, Note_on_c, 5, 60, 36
1, 10530, Note_off_c, 5, 66, 22
1, 10532, Note_off_c, 5, 69, 54
1, 10533, Note_off_c, 5, 60, 36
1, 10536, Note_off_c, 5, 63, 58
1, 10560, Note_on_c, 5, 64, 29
1, 10561, Note_on_c, 5, 60, 44
1, 10562, Note_on_c, 1, 48, 37
1, 10562, Note_on_c, 5, 66, 22
1, 10563, Note_off_c, 1, 42, 50
1, 10563, Note_on_c, 5, 69, 49
1, 10573, Control_c, 5, 64, 0
1, 10591, Note_off_c, 5, 60, 44
1, 10593, Control_c, 5, 64, 127
1, 10594, Note_off_c, 5, 66, 22
1, 10598, Note_off_c, 5, 69, 49
1, 10600, Note_off_c, 5, 64, 29
1, 10608, Note_on_c, 5, 66, 22
1, 10609, Note_on_c, 5, 63, 53
1, 10610, Note_on_c, 5, 60, 38
1, 10611, Note_on_c, 5, 69, 17
1, 10622, Note_off_c, 5, 66, 22
1, 10629, Note_off_c, 5, 69, 17
1, 10629, Note_off_c, 5, 63, 53
1, 10630, Note_off_c, 5, 60, 38
1, 10669, Note_on_c, 5, 63, 45
1, 10670, Note_on_c, 5, 60, 22
1, 10671, Note_on_c, 5, 69, 34
1, 10672, Note_on_c, 5, 66, 15
1, 10676, Control_c, 5, 64, 0
1, 10714, Note_on_c, 3, 73, 47
1, 10765, Note_on_c, 3, 77, 64
1, 10770, Note_off_c, 3, 73, 47
1, 10810, Note_off_c, 1, 48, 37
1, 10811, Note_on_c, 3, 78, 75
1, 10812, Note_off_c, 3, 77, 64
1, 10820, Note_off_c, 5, 66, 15
1, 10826, Note_off_c, 5, 69, 34
1, 10827, Note_off_c, 5, 60, 22
1, 10832, Note_off_c, 5, 63, 45
1, 10848, Time_signature, 5, 2, 24, 8
1, 10857, Note_on_c, 1, 35, 39
1, 10857, Note_on_c, 4, 47, 39
1, 10858, Note_on_c, 3, 68, 64
1, 10864, Note_off_c, 3, 78, 75
1, 10897, Note_on_c, 5, 68, 54
1, 10898, Note_on_c, 5, 63, 31
1, 10906, Control_c, 5, 64, 127
1, 10925, Note_off_c, 5, 63, 31
1, 10925, Note_off_c, 5, 68, 54
1, 10926, Note_off_c, 3, 68, 64
1, 10944, Note_on_c, 3, 68, 60
1, 10945, Note_on_c, 5, 63, 42
1, 10945, Note_on_c, 5, 68, 46
1, 10963, Note_off_c, 5, 63, 42
1, 10964, Note_off_c, 5, 68, 46
1, 10989, Note_on_c, 5, 68, 71
1, 10990, Note_on_c, 5, 62, 56
1, 11009, Note_off_c, 5, 62, 56
1, 11013, Note_off_c, 5, 68, 71
1, 11037, Note_on_c, 5, 68, 71
1, 11038, Note_on_c, 5, 62, 64
1, 11044, Control_c, 5, 64, 0
1, 11060, Control_c, 5, 64, 127
1, 11073, Note_off_c, 5, 62, 64
1, 11073, Note_off_c, 5, 68, 71
1, 11085, Note_on_c, 5, 68, 44
1, 11087, Note_on_c, 5, 63, 55
1, 11090, Note_off_c, 3, 68, 60
1, 11103, Control_c, 5, 64, 0
1, 11107, Note_off_c, 1, 35, 39
1, 11108, Note_off_c, 4, 47, 39
1, 11119, Note_off_c, 5, 63, 55
1, 11124, Note_off_c, 5, 68, 44
1, 11181, Note_on_c, 1, 35, 49
1, 11183, Note_on_c, 5, 63, 39
1, 11184, Note_on_c, 3, 71, 40
1, 11184, Note_on_c, 4, 35, 49
1, 11185, Note_on_c, 5, 66, 49
1, 11202, Control_c, 5, 64, 127
1, 11216, Note_off_c, 5, 66, 49
1, 11217, Note_off_c, 5, 63, 39
1, 11231, Note_on_c, 5, 66, 68
1, 11232, Note_on_c, 5, 63, 57
1, 11234, Note_off_c, 1, 35, 49
1, 11234, Note_on_c, 1, 34, 47
1, 11237, Note_off_c, 4, 35, 49
1, 11237, Note_on_c, 4, 34, 47
1, 11238, Note_on_c, 3, 63, 44
1, 11239, Note_off_c, 3, 71, 40
1, 11258, Note_off_c, 5, 63, 57
1, 11258, Note_off_c, 5, 66, 68
1, 11278, Note_on_c, 5, 68, 70
1, 11279, Note_on_c, 3, 62, 57
1, 11280, Note_on_c, 5, 62, 54
1, 11284, Note_off_c, 3, 63, 44
1, 11300, Note_off_c, 5, 68, 70
1, 11307, Note_off_c, 5, 62, 54
1, 11320, Control_c, 5, 64, 0
1, 11324, Note_on_c, 3, 71, 66
1, 11324, Note_on_c, 5, 66, 62
1, 11326, Note_on_c, 1, 39, 33
1, 11328, Time_signature, 3, 2, 24, 8
1, 11329, Note_on_c, 4, 39, 33
1, 11330, Note_on_c, 5, 71, 44
1, 11332, Note_off_c, 1, 34, 47
1, 11332, Note_off_c, 3, 62, 57
1, 11335, Note_off_c, 4, 34, 47
1, 11368, Note_off_c, 3, 71, 66
1, 11368, Control_c, 5, 64, 127
1, 11368, Note_on_c, 3, 70, 71
1, 11377, Note_off_c, 5, 71, 44
1, 11377, Note_off_c, 5, 66, 62
1, 11377, Note_on_c, 5, 65, 39
1, 11379, Note_on_c, 5, 70, 63
1, 11390, Note_off_c, 5, 70, 63
1, 11392, Note_off_c, 5, 65, 39
1, 11409, Note_off_c, 3, 70, 71
1, 11420, Note_on_c, 1, 38, 43
1, 11422, Note_off_c, 1, 39, 33
1, 11422, Note_on_c, 5, 70, 69
1, 11423, Note_on_c, 4, 38, 43
1, 11424, Note_on_c, 3, 77, 66
1, 11424, Note_on_c, 5, 77, 49
1, 11425, Note_off_c, 4, 39, 33
1, 11429, Control_c, 5, 64, 0
1, 11458, Note_off_c, 3, 77, 66
1, 11460, Control_c, 5, 64, 127
1, 11468, Note_on_c, 3, 78, 57
1, 11470, Note_off_c, 5, 70, 69
1, 11474, Note_on_c, 5, 78, 69
1, 11475, Note_off_c, 5, 77, 49
1, 11480, Note_on_c, 5, 70, 55
1, 11488, Note_off_c, 5, 70, 55
1, 11509, Note_off_c, 5, 78, 69
1, 11516, Note_on_c, 1, 37, 44
1, 11519, Note_on_c, 4, 37, 44
1, 11522, Note_off_c, 1, 38, 43
1, 11523, Note_on_c, 5, 71, 51
1, 11524, Note_on_c, 3, 71, 66
1, 11524, Note_on_c, 5, 66, 46
1, 11525, Note_off_c, 4, 38, 43
1, 11529, Note_off_c, 3, 78, 57
1, 11536, Control_c, 5, 64, 0
1, 11564, Note_off_c, 5, 71, 51
1, 11567, Note_off_c, 3, 71, 66
1, 11568, Note_on_c, 3, 70, 51
1, 11571, Note_on_c, 5, 70, 49
1, 11592, Note_off_c, 5, 70, 49
1, 11594, Note_off_c, 3, 70, 51
1, 11598, Note_off_c, 5, 66, 46
1, 11614, Note_off_c, 1, 37, 44
1, 11616, Note_on_c, 3, 70, 59
1, 11616, Note_on_c, 1, 36, 43
1, 11617, Note_off_c, 4, 37, 44
1, 11619, Note_on_c, 4, 36, 43
1, 11662, Note_on_c, 5, 66, 56
1, 11665, Note_on_c, 5, 63, 32
1, 11677, Control_c, 5, 64, 127
1, 11691, Note_off_c, 5, 66, 56
1, 11692, Note_off_c, 5, 63, 32
1, 11708, Note_on_c, 5, 63, 63
1, 11709, Note_on_c, 5, 66, 71
1, 11710, Note_on_c, 3, 68, 41
1, 11711, Note_off_c, 3, 70, 59
1, 11739, Note_off_c, 5, 66, 71
1, 11739, Note_off_c, 5, 63, 63
1, 11758, Note_on_c, 5, 63, 69
1, 11759, Note_on_c, 5, 68, 85
1, 11781, Note_off_c, 5, 63, 69
1, 11785, Note_off_c, 5, 68, 85
1, 11803, Note_on_c, 5, 63, 54
1, 11804, Note_on_c, 5, 68, 69
1, 11807, Control_c, 5, 64, 0
1, 11829, Note_off_c, 5, 63, 54
1, 11852, Note_off_c, 5, 68, 69
1, 11857, Note_on_c, 5, 63, 28
1, 11858, Note_on_c, 5, 66, 45
1, 11878, Note_off_c, 3, 68, 41
1, 11904, Note_on_c, 1, 37, 40
1, 11904, Note_on_c, 3, 73, 40
1, 11904, Note_off_c, 5, 63, 28
1, 11905, Note_off_c, 1, 36, 43
1, 11906, Note_off_c, 5, 66, 45
1, 11907, Note_on_c, 4, 37, 40
1, 11908, Note_off_c, 4, 36, 43
1, 11952, Note_on_c, 5, 66, 41
1, 11953, Note_on_c, 5, 70, 34
1, 11964, Control_c, 5, 64, 127
1, 11977, Note_off_c, 5, 70, 34
1, 11977, Note_off_c, 5, 66, 41
1, 11999, Note_on_c, 5, 70, 63
1, 12000, Note_on_c, 5, 66, 61
1, 12017, Note_off_c, 5, 66, 61
1, 12020, Note_off_c, 5, 70, 63
1, 12044, Note_on_c, 5, 66, 65
1, 12046, Note_on_c, 5, 69, 62
1, 12063, Note_off_c, 5, 66, 65
1, 12065, Note_off_c, 5, 69, 62
1, 12093, Note_on_c, 5, 66, 55
1, 12094, Note_on_c, 5, 69, 50
1, 12106, Control_c, 5, 64, 0
1, 12130, Note_off_c, 5, 66, 55
1, 12131, Note_off_c, 5, 69, 50
1, 12133, Control_c, 5, 64, 127
1, 12143, Note_on_c, 5, 69, 42
1, 12145, Note_on_c, 5, 66, 51
1, 12172, Control_c, 5, 64, 0
1, 12177, Note_off_c, 5, 69, 42
1, 12181, Note_off_c, 5, 66, 51
1, 12187, Note_off_c, 1, 37, 40
1, 12187, Note_on_c, 3, 72, 35
1, 12190, Note_off_c, 4, 37, 40
1, 12192, Note_off_c, 3, 73, 40
1, 12195, Note_on_c, 1, 36, 32
1, 12198, Note_on_c, 4, 36, 32
1, 12240, Note_on_c, 5, 63, 42
1, 12244, Note_on_c, 5, 69, 28
1, 12265, Control_c, 5, 64, 127
1, 12273, Note_off_c, 5, 63, 42
1, 12275, Note_off_c, 5, 69, 28
1, 12290, Note_on_c, 5, 63, 67
1, 12290, Note_on_c, 5, 69, 56
1, 12310, Note_off_c, 5, 63, 67
1, 12318, Note_off_c, 5, 69, 56
1, 12334, Note_on_c, 5, 63, 60
1, 12335, Note_on_c, 5, 68, 65
1, 12356, Note_off_c, 5, 68, 65
1, 12356, Note_off_c, 5, 63, 60
1, 12382, Note_on_c, 5, 68, 59
1, 12384, Note_on_c, 5, 63, 51
1, 12407, Control_c, 5, 64, 0
1, 12412, Note_off_c, 5, 63, 51
1, 12412, Note_off_c, 5, 68, 59
1, 12436, Note_on_c, 5, 68, 31
1, 12437, Note_on_c, 5, 63, 32
1, 12463, Note_off_c, 1, 36, 32
1, 12466, Note_off_c, 4, 36, 32
1, 12472, Note_off_c, 5, 68, 31
1, 12475, Note_off_c, 5, 63, 32
1, 12481, Note_off_c, 3, 72, 35
1, 12483, Note_on_c, 3, 71, 30
1, 12487, Note_on_c, 1, 35, 33
1, 12490, Note_on_c, 4, 35, 33
1, 12530, Note_on_c, 5, 68, 36
1, 12530, Note_on_c, 5, 63, 22
1, 12564, Note_off_c, 5, 68, 36
1, 12564, Control_c, 5, 64, 127
1, 12574, Note_off_c, 5, 63, 22
1, 12580, Note_on_c, 5, 68, 61
1, 12583, Note_on_c, 5, 63, 33
1, 12609, Note_off_c, 5, 63, 33
1, 12612, Note_off_c, 5, 68, 61
1, 12632, Note_on_c, 5, 65, 33
1, 12635, Note_on_c, 5, 63, 33
1, 12651, Note_off_c, 5, 65, 33
1, 12683, Note_on_c, 5, 65, 29
1, 12707, Control_c, 5, 64, 0
1, 12739, Control_c, 5, 64, 127
1, 12740, Note_on_c, 5, 66, 42
1, 12741, Note_off_c, 5, 65, 29
1, 12770, Note_off_c, 5, 63, 33
1, 12777, Note_off_c, 1, 35, 33
1, 12780, Note_off_c, 4, 35, 33
1, 12794, Note_on_c, 1, 34, 19
1, 12794, Note_on_c, 5, 62, 23
1, 12795, Control_c, 5, 64, 0
1, 12800, Note_on_c, 3, 70, 16
1, 12801, Note_off_c, 3, 71, 30
1, 13151, Note_off_c, 5, 62, 23
1, 13155, Note_off_c, 5, 66, 42
1, 13213, Note_off_c, 1, 34, 19
1, 13340, Note_off_c, 3, 70, 16
1, 13632, End_track
0, 0, End_of_file
