0, 0, Header, 1, 15, 120
1, 0, Start_track
1, 0, Key_signature, 0, "major"
1, 0, SMPTE_offset, 96, 0, 0, 0, 0
1, 0, Tempo, 600000
1, 0, Time_signature, 4, 2, 24, 8
1, 0, End_track
2, 0, Start_track
2, 0, MIDI_port, 0
2, 0, Title_t, """The World is"
2, 0, Control_c, 0, 10, 0
2, 0, Control_c, 0, 7, 110
2, 0, Program_c, 0, 5
2, 0, Control_c, 0, 123, 0
2, 34, Note_on_c, 0, 57, 64
2, 35, Note_on_c, 0, 60, 59
2, 36, Note_on_c, 0, 53, 55
2, 39, Note_on_c, 0, 64, 40
2, 45, Note_on_c, 0, 64, 0
2, 47, Note_on_c, 0, 60, 0
2, 49, Note_on_c, 0, 57, 0
2, 49, Note_on_c, 0, 53, 0
2, 49, Control_c, 0, 123, 0
2, 121, Note_on_c, 0, 57, 97
2, 121, Note_on_c, 0, 64, 86
2, 121, Note_on_c, 0, 60, 97
2, 122, Note_on_c, 0, 53, 86
2, 184, Note_on_c, 0, 57, 0
2, 184, Note_on_c, 0, 53, 0
2, 186, Note_on_c, 0, 64, 0
2, 186, Note_on_c, 0, 60, 0
2, 186, Control_c, 0, 123, 0
2, 209, Note_on_c, 0, 57, 58
2, 210, Note_on_c, 0, 60, 62
2, 211, Note_on_c, 0, 53, 56
2, 211, Note_on_c, 0, 64, 48
2, 222, Note_on_c, 0, 64, 0
2, 225, Note_on_c, 0, 60, 0
2, 227, Note_on_c, 0, 53, 0
2, 228, Note_on_c, 0, 57, 0
2, 228, Control_c, 0, 123, 0
2, 296, Note_on_c, 0, 60, 73
2, 296, Note_on_c, 0, 64, 68
2, 297, Note_on_c, 0, 57, 77
2, 297, Note_on_c, 0, 53, 73
2, 489, Note_on_c, 0, 64, 0
2, 489, Note_on_c, 0, 57, 0
2, 489, Note_on_c, 0, 53, 0
2, 491, Note_on_c, 0, 60, 0
2, 491, Control_c, 0, 123, 0
2, 508, Note_on_c, 0, 60, 58
2, 508, Note_on_c, 0, 64, 52
2, 508, Note_on_c, 0, 53, 45
2, 509, Note_on_c, 0, 57, 58
2, 525, Note_on_c, 0, 64, 0
2, 525, Note_on_c, 0, 53, 0
2, 526, Note_on_c, 0, 60, 0
2, 526, Note_on_c, 0, 57, 0
2, 526, Control_c, 0, 123, 0
2, 598, Note_on_c, 0, 57, 95
2, 598, Note_on_c, 0, 60, 97
2, 599, Note_on_c, 0, 64, 88
2, 601, Note_on_c, 0, 53, 84
2, 656, Note_on_c, 0, 64, 0
2, 657, Note_on_c, 0, 60, 0
2, 659, Note_on_c, 0, 53, 0
2, 662, Note_on_c, 0, 57, 0
2, 662, Control_c, 0, 123, 0
2, 687, Note_on_c, 0, 57, 56
2, 689, Note_on_c, 0, 60, 60
2, 689, Note_on_c, 0, 53, 50
2, 690, Note_on_c, 0, 64, 51
2, 705, Note_on_c, 0, 64, 0
2, 707, Note_on_c, 0, 60, 0
2, 707, Note_on_c, 0, 53, 0
2, 710, Note_on_c, 0, 57, 0
2, 710, Control_c, 0, 123, 0
2, 782, Note_on_c, 0, 57, 90
2, 782, Note_on_c, 0, 64, 84
2, 783, Note_on_c, 0, 60, 97
2, 783, Note_on_c, 0, 53, 86
2, 950, Note_on_c, 0, 57, 0
2, 950, Note_on_c, 0, 53, 0
2, 955, Note_on_c, 0, 60, 0
2, 959, Note_on_c, 0, 64, 0
2, 959, Control_c, 0, 123, 0
2, 993, Note_on_c, 0, 55, 68
2, 994, Note_on_c, 0, 58, 41
2, 996, Note_on_c, 0, 62, 41
2, 1003, Note_on_c, 0, 58, 0
2, 1004, Note_on_c, 0, 62, 0
2, 1008, Note_on_c, 0, 55, 0
2, 1008, Control_c, 0, 123, 0
2, 1080, Note_on_c, 0, 58, 83
2, 1080, Note_on_c, 0, 62, 82
2, 1081, Note_on_c, 0, 55, 84
2, 1081, Note_on_c, 0, 65, 79
2, 1147, Note_on_c, 0, 55, 0
2, 1148, Note_on_c, 0, 58, 0
2, 1150, Note_on_c, 0, 62, 0
2, 1150, Note_on_c, 0, 65, 0
2, 1150, Control_c, 0, 123, 0
2, 1171, Note_on_c, 0, 58, 47
2, 1171, Note_on_c, 0, 62, 53
2, 1172, Note_on_c, 0, 65, 60
2, 1172, Note_on_c, 0, 55, 50
2, 1180, Note_on_c, 0, 58, 0
2, 1180, Note_on_c, 0, 55, 0
2, 1182, Note_on_c, 0, 65, 0
2, 1183, Note_on_c, 0, 62, 0
2, 1183, Control_c, 0, 123, 0
2, 1258, Note_on_c, 0, 58, 83
2, 1259, Note_on_c, 0, 62, 90
2, 1259, Note_on_c, 0, 55, 86
2, 1261, Note_on_c, 0, 65, 84
2, 1444, Note_on_c, 0, 58, 0
2, 1444, Note_on_c, 0, 65, 0
2, 1445, Note_on_c, 0, 55, 0
2, 1446, Note_on_c, 0, 62, 0
2, 1446, Control_c, 0, 123, 0
2, 1470, Note_on_c, 0, 58, 51
2, 1473, Note_on_c, 0, 62, 51
2, 1474, Note_on_c, 0, 65, 51
2, 1474, Note_on_c, 0, 55, 58
2, 1483, Note_on_c, 0, 65, 0
2, 1485, Note_on_c, 0, 58, 0
2, 1485, Note_on_c, 0, 62, 0
2, 1485, Note_on_c, 0, 55, 0
2, 1485, Control_c, 0, 123, 0
2, 1559, Note_on_c, 0, 58, 77
2, 1561, Note_on_c, 0, 62, 80
2, 1561, Note_on_c, 0, 65, 80
2, 1561, Note_on_c, 0, 55, 80
2, 1625, Note_on_c, 0, 58, 0
2, 1625, Note_on_c, 0, 65, 0
2, 1627, Note_on_c, 0, 62, 0
2, 1627, Note_on_c, 0, 55, 0
2, 1627, Control_c, 0, 123, 0
2, 1648, Note_on_c, 0, 58, 63
2, 1648, Note_on_c, 0, 55, 66
2, 1650, Note_on_c, 0, 62, 56
2, 1652, Note_on_c, 0, 65, 56
2, 1660, Note_on_c, 0, 65, 0
2, 1662, Note_on_c, 0, 58, 0
2, 1662, Note_on_c, 0, 55, 0
2, 1662, Note_on_c, 0, 62, 0
2, 1662, Control_c, 0, 123, 0
2, 1735, Note_on_c, 0, 58, 95
2, 1736, Note_on_c, 0, 62, 97
2, 1736, Note_on_c, 0, 65, 90
2, 1737, Note_on_c, 0, 55, 95
2, 1910, Note_on_c, 0, 65, 0
2, 1916, Note_on_c, 0, 58, 0
2, 1916, Note_on_c, 0, 62, 0
2, 1920, Note_on_c, 0, 55, 0
2, 1920, Control_c, 0, 123, 0
2, 1952, Note_on_c, 0, 57, 70
2, 1952, Note_on_c, 0, 60, 69
2, 1952, Note_on_c, 0, 64, 60
2, 1953, Note_on_c, 0, 53, 62
2, 1966, Note_on_c, 0, 64, 0
2, 1968, Note_on_c, 0, 57, 0
2, 1968, Note_on_c, 0, 60, 0
2, 1968, Note_on_c, 0, 53, 0
2, 1968, Control_c, 0, 123, 0
2, 2036, Note_on_c, 0, 57, 100
2, 2036, Note_on_c, 0, 64, 90
2, 2037, Note_on_c, 0, 60, 97
2, 2037, Note_on_c, 0, 53, 90
2, 2111, Note_on_c, 0, 64, 0
2, 2111, Note_on_c, 0, 60, 0
2, 2112, Note_on_c, 0, 57, 0
2, 2112, Note_on_c, 0, 53, 0
2, 2112, Control_c, 0, 123, 0
2, 2128, Note_on_c, 0, 57, 70
2, 2129, Note_on_c, 0, 60, 70
2, 2129, Note_on_c, 0, 53, 61
2, 2129, Note_on_c, 0, 64, 62
2, 2142, Note_on_c, 0, 64, 0
2, 2143, Note_on_c, 0, 60, 0
2, 2145, Note_on_c, 0, 57, 0
2, 2145, Note_on_c, 0, 53, 0
2, 2145, Control_c, 0, 123, 0
2, 2217, Note_on_c, 0, 57, 80
2, 2218, Note_on_c, 0, 60, 92
2, 2218, Note_on_c, 0, 64, 82
2, 2218, Note_on_c, 0, 53, 77
2, 2413, Note_on_c, 0, 64, 0
2, 2415, Note_on_c, 0, 57, 0
2, 2415, Note_on_c, 0, 53, 0
2, 2417, Note_on_c, 0, 60, 0
2, 2417, Control_c, 0, 123, 0
2, 2433, Note_on_c, 0, 57, 62
2, 2434, Note_on_c, 0, 60, 64
2, 2434, Note_on_c, 0, 53, 57
2, 2434, Note_on_c, 0, 64, 62
2, 2451, Note_on_c, 0, 64, 0
2, 2453, Note_on_c, 0, 53, 0
2, 2454, Note_on_c, 0, 57, 0
2, 2454, Note_on_c, 0, 60, 0
2, 2455, Control_c, 0, 123, 0
2, 2519, Note_on_c, 0, 60, 86
2, 2520, Note_on_c, 0, 57, 88
2, 2520, Note_on_c, 0, 64, 77
2, 2520, Note_on_c, 0, 53, 82
2, 2595, Note_on_c, 0, 60, 0
2, 2595, Note_on_c, 0, 57, 0
2, 2595, Note_on_c, 0, 64, 0
2, 2595, Note_on_c, 0, 53, 0
2, 2595, Control_c, 0, 123, 0
2, 2612, Note_on_c, 0, 57, 57
2, 2612, Note_on_c, 0, 60, 56
2, 2614, Note_on_c, 0, 53, 53
2, 2616, Note_on_c, 0, 64, 51
2, 2628, Note_on_c, 0, 64, 0
2, 2629, Note_on_c, 0, 60, 0
2, 2630, Note_on_c, 0, 57, 0
2, 2630, Note_on_c, 0, 53, 0
2, 2630, Control_c, 0, 123, 0
2, 2702, Note_on_c, 0, 57, 86
2, 2702, Note_on_c, 0, 60, 88
2, 2702, Note_on_c, 0, 64, 84
2, 2703, Note_on_c, 0, 53, 86
2, 2874, Note_on_c, 0, 53, 0
2, 2875, Note_on_c, 0, 57, 0
2, 2878, Note_on_c, 0, 60, 0
2, 2881, Note_on_c, 0, 64, 0
2, 2881, Control_c, 0, 123, 0
2, 2909, Note_on_c, 0, 55, 74
2, 2909, Note_on_c, 0, 58, 57
2, 2910, Note_on_c, 0, 62, 56
2, 2921, Note_on_c, 0, 62, 0
2, 2922, Note_on_c, 0, 55, 0
2, 2922, Note_on_c, 0, 58, 0
2, 2922, Control_c, 0, 123, 0
2, 2994, Note_on_c, 0, 58, 86
2, 2995, Note_on_c, 0, 62, 80
2, 2997, Note_on_c, 0, 65, 77
2, 2997, Note_on_c, 0, 55, 86
2, 2999, Note_on_c, 0, 64, 77
2, 3002, Note_on_c, 0, 64, 0
2, 3064, Note_on_c, 0, 55, 0
2, 3067, Note_on_c, 0, 58, 0
2, 3068, Note_on_c, 0, 62, 0
2, 3068, Note_on_c, 0, 65, 0
2, 3068, Control_c, 0, 123, 0
2, 3086, Note_on_c, 0, 58, 58
2, 3088, Note_on_c, 0, 65, 66
2, 3088, Note_on_c, 0, 62, 61
2, 3088, Note_on_c, 0, 55, 62
2, 3099, Note_on_c, 0, 55, 0
2, 3101, Note_on_c, 0, 58, 0
2, 3102, Note_on_c, 0, 65, 0
2, 3102, Note_on_c, 0, 62, 0
2, 3103, Control_c, 0, 123, 0
2, 3178, Note_on_c, 0, 58, 77
2, 3178, Note_on_c, 0, 65, 84
2, 3178, Note_on_c, 0, 55, 88
2, 3178, Note_on_c, 0, 62, 80
2, 3368, Note_on_c, 0, 58, 0
2, 3369, Note_on_c, 0, 65, 0
2, 3370, Note_on_c, 0, 55, 0
2, 3371, Note_on_c, 0, 62, 0
2, 3371, Control_c, 0, 123, 0
2, 3392, Note_on_c, 0, 58, 59
2, 3394, Note_on_c, 0, 55, 56
2, 3394, Note_on_c, 0, 62, 62
2, 3396, Note_on_c, 0, 65, 57
2, 3407, Note_on_c, 0, 65, 0
2, 3408, Note_on_c, 0, 58, 0
2, 3410, Note_on_c, 0, 55, 0
2, 3410, Note_on_c, 0, 62, 0
2, 3410, Control_c, 0, 123, 0
2, 3479, Note_on_c, 0, 58, 83
2, 3480, Note_on_c, 0, 62, 84
2, 3480, Note_on_c, 0, 55, 86
2, 3480, Note_on_c, 0, 65, 84
2, 3549, Note_on_c, 0, 58, 0
2, 3549, Note_on_c, 0, 62, 0
2, 3549, Note_on_c, 0, 55, 0
2, 3551, Note_on_c, 0, 65, 0
2, 3551, Control_c, 0, 123, 0
2, 3570, Note_on_c, 0, 58, 63
2, 3570, Note_on_c, 0, 55, 67
2, 3571, Note_on_c, 0, 65, 65
2, 3571, Note_on_c, 0, 62, 60
2, 3583, Note_on_c, 0, 58, 0
2, 3584, Note_on_c, 0, 55, 0
2, 3585, Note_on_c, 0, 65, 0
2, 3585, Note_on_c, 0, 62, 0
2, 3585, Control_c, 0, 123, 0
2, 3656, Note_on_c, 0, 58, 83
2, 3656, Note_on_c, 0, 62, 84
2, 3657, Note_on_c, 0, 55, 90
2, 3657, Note_on_c, 0, 65, 84
2, 3813, Note_on_c, 0, 65, 0
2, 3824, Note_on_c, 0, 62, 0
2, 3828, Note_on_c, 0, 58, 0
2, 3834, Note_on_c, 0, 55, 0
2, 3834, Control_c, 0, 123, 0
2, 3875, Note_on_c, 0, 64, 63
2, 3875, Note_on_c, 0, 60, 73
2, 3876, Note_on_c, 0, 53, 67
2, 3876, Note_on_c, 0, 57, 67
2, 3890, Note_on_c, 0, 64, 0
2, 3891, Note_on_c, 0, 57, 0
2, 3893, Note_on_c, 0, 60, 0
2, 3893, Note_on_c, 0, 53, 0
2, 3893, Control_c, 0, 123, 0
2, 3959, Note_on_c, 0, 57, 84
2, 3960, Note_on_c, 0, 60, 77
2, 3960, Note_on_c, 0, 64, 73
2, 3960, Note_on_c, 0, 53, 79
2, 4032, Note_on_c, 0, 64, 0
2, 4035, Note_on_c, 0, 57, 0
2, 4035, Note_on_c, 0, 60, 0
2, 4035, Note_on_c, 0, 53, 0
2, 4035, Control_c, 0, 123, 0
2, 4052, Note_on_c, 0, 57, 76
2, 4052, Note_on_c, 0, 53, 66
2, 4052, Note_on_c, 0, 60, 77
2, 4054, Note_on_c, 0, 64, 67
2, 4065, Note_on_c, 0, 64, 0
2, 4068, Note_on_c, 0, 57, 0
2, 4068, Note_on_c, 0, 53, 0
2, 4068, Note_on_c, 0, 60, 0
2, 4068, Control_c, 0, 123, 0
2, 4139, Note_on_c, 0, 57, 88
2, 4139, Note_on_c, 0, 60, 88
2, 4140, Note_on_c, 0, 53, 86
2, 4140, Note_on_c, 0, 64, 82
2, 4334, Note_on_c, 0, 57, 0
2, 4334, Note_on_c, 0, 53, 0
2, 4334, Note_on_c, 0, 64, 0
2, 4336, Note_on_c, 0, 60, 0
2, 4336, Control_c, 0, 123, 0
2, 4354, Note_on_c, 0, 57, 66
2, 4354, Note_on_c, 0, 60, 69
2, 4354, Note_on_c, 0, 53, 65
2, 4356, Note_on_c, 0, 64, 64
2, 4371, Note_on_c, 0, 64, 0
2, 4372, Note_on_c, 0, 57, 0
2, 4372, Note_on_c, 0, 53, 0
2, 4374, Note_on_c, 0, 60, 0
2, 4374, Control_c, 0, 123, 0
2, 4443, Note_on_c, 0, 57, 79
2, 4443, Note_on_c, 0, 60, 80
2, 4443, Note_on_c, 0, 64, 76
2, 4444, Note_on_c, 0, 53, 82
2, 4513, Note_on_c, 0, 57, 0
2, 4514, Note_on_c, 0, 60, 0
2, 4514, Note_on_c, 0, 64, 0
2, 4514, Note_on_c, 0, 53, 0
2, 4514, Control_c, 0, 123, 0
2, 4533, Note_on_c, 0, 57, 68
2, 4534, Note_on_c, 0, 53, 66
2, 4534, Note_on_c, 0, 60, 70
2, 4536, Note_on_c, 0, 64, 61
2, 4553, Note_on_c, 0, 60, 0
2, 4553, Note_on_c, 0, 64, 0
2, 4554, Note_on_c, 0, 57, 0
2, 4555, Note_on_c, 0, 53, 0
2, 4555, Control_c, 0, 123, 0
2, 4618, Note_on_c, 0, 57, 82
2, 4618, Note_on_c, 0, 60, 88
2, 4619, Note_on_c, 0, 64, 77
2, 4619, Note_on_c, 0, 53, 86
2, 4789, Note_on_c, 0, 53, 0
2, 4791, Note_on_c, 0, 57, 0
2, 4791, Note_on_c, 0, 60, 0
2, 4801, Note_on_c, 0, 64, 0
2, 4801, Control_c, 0, 123, 0
2, 4831, Note_on_c, 0, 55, 68
2, 4831, Note_on_c, 0, 58, 49
2, 4833, Note_on_c, 0, 62, 48
2, 4833, Note_on_c, 0, 65, 42
2, 4844, Note_on_c, 0, 58, 0
2, 4844, Note_on_c, 0, 62, 0
2, 4844, Note_on_c, 0, 65, 0
2, 4848, Note_on_c, 0, 55, 0
2, 4848, Control_c, 0, 123, 0
2, 4918, Note_on_c, 0, 58, 80
2, 4919, Note_on_c, 0, 62, 82
2, 4920, Note_on_c, 0, 55, 90
2, 4921, Note_on_c, 0, 65, 82
2, 4989, Note_on_c, 0, 58, 0
2, 4989, Note_on_c, 0, 62, 0
2, 4989, Note_on_c, 0, 55, 0
2, 4991, Note_on_c, 0, 65, 0
2, 4991, Control_c, 0, 123, 0
2, 5012, Note_on_c, 0, 65, 56
2, 5012, Note_on_c, 0, 58, 46
2, 5014, Note_on_c, 0, 55, 54
2, 5014, Note_on_c, 0, 62, 53
2, 5022, Note_on_c, 0, 58, 0
2, 5022, Note_on_c, 0, 62, 0
2, 5024, Note_on_c, 0, 65, 0
2, 5024, Note_on_c, 0, 55, 0
2, 5024, Control_c, 0, 123, 0
2, 5098, Note_on_c, 0, 58, 95
2, 5098, Note_on_c, 0, 62, 92
2, 5098, Note_on_c, 0, 65, 88
2, 5099, Note_on_c, 0, 55, 97
2, 5101, Note_on_c, 0, 64, 73
2, 5106, Note_on_c, 0, 64, 0
2, 5289, Note_on_c, 0, 58, 0
2, 5289, Note_on_c, 0, 55, 0
2, 5292, Note_on_c, 0, 62, 0
2, 5292, Note_on_c, 0, 65, 0
2, 5292, Control_c, 0, 123, 0
2, 5316, Note_on_c, 0, 65, 56
2, 5316, Note_on_c, 0, 58, 51
2, 5317, Note_on_c, 0, 62, 55
2, 5317, Note_on_c, 0, 55, 51
2, 5331, Note_on_c, 0, 65, 0
2, 5331, Note_on_c, 0, 58, 0
2, 5331, Note_on_c, 0, 62, 0
2, 5331, Note_on_c, 0, 55, 0
2, 5331, Control_c, 0, 123, 0
2, 5396, Note_on_c, 0, 62, 79
2, 5396, Note_on_c, 0, 58, 73
2, 5397, Note_on_c, 0, 65, 82
2, 5397, Note_on_c, 0, 55, 82
2, 5467, Note_on_c, 0, 58, 0
2, 5469, Note_on_c, 0, 62, 0
2, 5469, Note_on_c, 0, 65, 0
2, 5469, Note_on_c, 0, 55, 0
2, 5469, Control_c, 0, 123, 0
2, 5488, Note_on_c, 0, 58, 58
2, 5490, Note_on_c, 0, 62, 57
2, 5492, Note_on_c, 0, 55, 51
2, 5492, Note_on_c, 0, 65, 50
2, 5502, Note_on_c, 0, 58, 0
2, 5502, Note_on_c, 0, 62, 0
2, 5502, Note_on_c, 0, 55, 0
2, 5502, Note_on_c, 0, 65, 0
2, 5502, Control_c, 0, 123, 0
2, 5577, Note_on_c, 0, 58, 86
2, 5578, Note_on_c, 0, 55, 88
2, 5578, Note_on_c, 0, 62, 88
2, 5578, Note_on_c, 0, 65, 86
2, 5738, Note_on_c, 0, 65, 0
2, 5741, Note_on_c, 0, 62, 0
2, 5747, Note_on_c, 0, 58, 0
2, 5755, Note_on_c, 0, 55, 0
2, 5755, Control_c, 0, 123, 0
2, 5790, Note_on_c, 0, 57, 72
2, 5791, Note_on_c, 0, 64, 62
2, 5791, Note_on_c, 0, 53, 66
2, 5793, Note_on_c, 0, 60, 57
2, 5806, Note_on_c, 0, 64, 0
2, 5808, Note_on_c, 0, 57, 0
2, 5808, Note_on_c, 0, 53, 0
2, 5808, Note_on_c, 0, 60, 0
2, 5808, Control_c, 0, 123, 0
2, 5876, Note_on_c, 0, 64, 77
2, 5876, Note_on_c, 0, 60, 84
2, 5877, Note_on_c, 0, 57, 84
2, 5879, Note_on_c, 0, 53, 77
2, 5950, Note_on_c, 0, 64, 0
2, 5950, Note_on_c, 0, 60, 0
2, 5950, Note_on_c, 0, 57, 0
2, 5952, Note_on_c, 0, 53, 0
2, 5952, Control_c, 0, 123, 0
2, 5968, Note_on_c, 0, 57, 73
2, 5969, Note_on_c, 0, 53, 62
2, 5969, Note_on_c, 0, 60, 77
2, 5971, Note_on_c, 0, 64, 66
2, 5982, Note_on_c, 0, 64, 0
2, 5985, Note_on_c, 0, 60, 0
2, 5986, Note_on_c, 0, 57, 0
2, 5986, Note_on_c, 0, 53, 0
2, 5987, Control_c, 0, 123, 0
2, 6054, Note_on_c, 0, 57, 82
2, 6054, Note_on_c, 0, 60, 84
2, 6055, Note_on_c, 0, 64, 77
2, 6055, Note_on_c, 0, 53, 76
2, 6258, Note_on_c, 0, 64, 0
2, 6258, Note_on_c, 0, 53, 0
2, 6260, Note_on_c, 0, 57, 0
2, 6260, Note_on_c, 0, 60, 0
2, 6260, Control_c, 0, 123, 0
2, 6276, Note_on_c, 0, 60, 70
2, 6276, Note_on_c, 0, 57, 65
2, 6277, Note_on_c, 0, 53, 60
2, 6277, Note_on_c, 0, 64, 63
2, 6291, Note_on_c, 0, 64, 0
2, 6293, Note_on_c, 0, 57, 0
2, 6293, Note_on_c, 0, 53, 0
2, 6294, Note_on_c, 0, 60, 0
2, 6294, Control_c, 0, 123, 0
2, 6356, Note_on_c, 0, 57, 84
2, 6356, Note_on_c, 0, 60, 84
2, 6357, Note_on_c, 0, 64, 82
2, 6357, Note_on_c, 0, 53, 77
2, 6428, Note_on_c, 0, 64, 0
2, 6429, Note_on_c, 0, 57, 0
2, 6429, Note_on_c, 0, 60, 0
2, 6431, Note_on_c, 0, 53, 0
2, 6431, Control_c, 0, 123, 0
2, 6447, Note_on_c, 0, 57, 60
2, 6447, Note_on_c, 0, 53, 54
2, 6449, Note_on_c, 0, 60, 65
2, 6449, Note_on_c, 0, 64, 56
2, 6463, Note_on_c, 0, 60, 0
2, 6463, Note_on_c, 0, 64, 0
2, 6465, Note_on_c, 0, 57, 0
2, 6465, Note_on_c, 0, 53, 0
2, 6465, Control_c, 0, 123, 0
2, 6534, Note_on_c, 0, 57, 82
2, 6535, Note_on_c, 0, 60, 88
2, 6535, Note_on_c, 0, 64, 76
2, 6535, Note_on_c, 0, 53, 77
2, 6720, Note_on_c, 0, 57, 0
2, 6720, Note_on_c, 0, 53, 0
2, 6722, Note_on_c, 0, 60, 0
2, 6725, Note_on_c, 0, 64, 0
2, 6725, Control_c, 0, 123, 0
2, 6755, Note_on_c, 0, 62, 71
2, 6755, Note_on_c, 0, 58, 59
2, 6755, Note_on_c, 0, 55, 73
2, 6756, Note_on_c, 0, 65, 47
2, 6767, Note_on_c, 0, 58, 0
2, 6767, Note_on_c, 0, 65, 0
2, 6770, Note_on_c, 0, 62, 0
2, 6772, Note_on_c, 0, 55, 0
2, 6772, Control_c, 0, 123, 0
2, 6835, Note_on_c, 0, 58, 75
2, 6837, Note_on_c, 0, 55, 82
2, 6837, Note_on_c, 0, 62, 80
2, 6837, Note_on_c, 0, 65, 79
2, 6910, Note_on_c, 0, 58, 0
2, 6910, Note_on_c, 0, 55, 0
2, 6910, Note_on_c, 0, 62, 0
2, 6912, Note_on_c, 0, 65, 0
2, 6912, Control_c, 0, 123, 0
2, 6927, Note_on_c, 0, 58, 57
2, 6929, Note_on_c, 0, 65, 57
2, 6931, Note_on_c, 0, 55, 49
2, 6931, Note_on_c, 0, 62, 59
2, 6942, Note_on_c, 0, 58, 0
2, 6942, Note_on_c, 0, 55, 0
2, 6943, Note_on_c, 0, 62, 0
2, 6944, Note_on_c, 0, 65, 0
2, 6944, Control_c, 0, 123, 0
2, 7016, Note_on_c, 0, 58, 83
2, 7018, Note_on_c, 0, 62, 86
2, 7018, Note_on_c, 0, 65, 84
2, 7018, Note_on_c, 0, 55, 92
2, 7209, Note_on_c, 0, 58, 0
2, 7209, Note_on_c, 0, 65, 0
2, 7209, Note_on_c, 0, 55, 0
2, 7211, Note_on_c, 0, 62, 0
2, 7211, Control_c, 0, 123, 0
2, 7233, Note_on_c, 0, 58, 49
2, 7235, Note_on_c, 0, 55, 50
2, 7237, Note_on_c, 0, 62, 61
2, 7246, Note_on_c, 0, 58, 0
2, 7246, Note_on_c, 0, 55, 0
2, 7246, Note_on_c, 0, 62, 0
2, 7246, Control_c, 0, 123, 0
2, 7324, Note_on_c, 0, 65, 72
2, 7325, Note_on_c, 0, 58, 67
2, 7325, Note_on_c, 0, 62, 72
2, 7325, Note_on_c, 0, 55, 73
2, 7389, Note_on_c, 0, 58, 0
2, 7392, Note_on_c, 0, 55, 0
2, 7394, Note_on_c, 0, 62, 0
2, 7399, Note_on_c, 0, 65, 0
2, 7399, Control_c, 0, 123, 0
2, 7418, Note_on_c, 0, 65, 64
2, 7420, Note_on_c, 0, 55, 63
2, 7420, Note_on_c, 0, 58, 59
2, 7420, Note_on_c, 0, 62, 62
2, 7433, Note_on_c, 0, 58, 0
2, 7434, Note_on_c, 0, 55, 0
2, 7436, Note_on_c, 0, 62, 0
2, 7439, Note_on_c, 0, 65, 0
2, 7439, Control_c, 0, 123, 0
2, 7498, Note_on_c, 0, 50, 109
2, 7525, Note_on_c, 0, 50, 0
2, 7525, Control_c, 0, 123, 0
2, 7559, Note_on_c, 0, 53, 113
2, 7582, Note_on_c, 0, 53, 0
2, 7582, Control_c, 0, 123, 0
2, 7619, Note_on_c, 0, 57, 97
2, 7649, Note_on_c, 0, 57, 0
2, 7649, Control_c, 0, 123, 0
2, 7980, Note_on_c, 0, 50, 113
2, 8001, Control_c, 0, 123, 0
2, 8008, Note_on_c, 0, 50, 0
2, 8040, Note_on_c, 0, 53, 109
2, 8058, Control_c, 0, 123, 0
2, 8063, Note_on_c, 0, 53, 0
2, 8100, Note_on_c, 0, 57, 100
2, 8120, Control_c, 0, 123, 0
2, 8125, Note_on_c, 0, 57, 0
2, 8460, Note_on_c, 0, 50, 109
2, 8493, Note_on_c, 0, 50, 0
2, 8494, Control_c, 0, 123, 0
2, 8520, Note_on_c, 0, 53, 103
2, 8545, Note_on_c, 0, 53, 0
2, 8547, Control_c, 0, 123, 0
2, 8580, Note_on_c, 0, 55, 109
2, 8601, Control_c, 0, 123, 0
2, 8602, Note_on_c, 0, 55, 0
2, 8940, Note_on_c, 0, 50, 95
2, 8975, Control_c, 0, 123, 0
2, 8976, Note_on_c, 0, 50, 0
2, 9000, Note_on_c, 0, 53, 95
2, 9023, Control_c, 0, 123, 0
2, 9026, Note_on_c, 0, 53, 0
2, 9060, Note_on_c, 0, 55, 100
2, 9079, Control_c, 0, 123, 0
2, 9084, Note_on_c, 0, 55, 0
2, 9120, Note_on_c, 0, 57, 100
2, 9240, Note_on_c, 0, 55, 106
2, 9250, Note_on_c, 0, 57, 0
2, 9285, Control_c, 0, 123, 0
2, 9287, Note_on_c, 0, 55, 0
2, 9300, Note_on_c, 0, 53, 97
2, 9327, Control_c, 0, 123, 0
2, 9331, Note_on_c, 0, 53, 0
2, 9360, Note_on_c, 0, 55, 109
2, 9403, Control_c, 0, 123, 0
2, 9404, Note_on_c, 0, 55, 0
2, 9420, Note_on_c, 0, 50, 97
2, 9445, Control_c, 0, 123, 0
2, 9448, Note_on_c, 0, 50, 0
2, 9480, Note_on_c, 0, 53, 106
2, 9504, Note_on_c, 0, 53, 0
2, 9504, Control_c, 0, 123, 0
2, 9540, Note_on_c, 0, 57, 100
2, 9566, Control_c, 0, 123, 0
2, 9567, Note_on_c, 0, 57, 0
2, 9900, Note_on_c, 0, 50, 109
2, 9929, Control_c, 0, 123, 0
2, 9932, Note_on_c, 0, 50, 0
2, 9960, Note_on_c, 0, 53, 106
2, 9980, Control_c, 0, 123, 0
2, 9984, Note_on_c, 0, 53, 0
2, 10020, Note_on_c, 0, 57, 103
2, 10043, Control_c, 0, 123, 0
2, 10046, Note_on_c, 0, 57, 0
2, 10380, Note_on_c, 0, 50, 100
2, 10408, Control_c, 0, 123, 0
2, 10409, Note_on_c, 0, 50, 0
2, 10440, Note_on_c, 0, 53, 88
2, 10462, Control_c, 0, 123, 0
2, 10465, Note_on_c, 0, 53, 0
2, 10500, Note_on_c, 0, 55, 106
2, 10522, Control_c, 0, 123, 0
2, 10525, Note_on_c, 0, 55, 0
2, 10860, Note_on_c, 0, 50, 97
2, 10893, Control_c, 0, 123, 0
2, 10897, Note_on_c, 0, 50, 0
2, 10920, Note_on_c, 0, 53, 86
2, 10940, Control_c, 0, 123, 0
2, 10945, Note_on_c, 0, 53, 0
2, 10980, Note_on_c, 0, 55, 86
2, 10998, Control_c, 0, 123, 0
2, 11005, Note_on_c, 0, 55, 0
2, 11040, Note_on_c, 0, 57, 97
2, 11160, Note_on_c, 0, 55, 80
2, 11165, Note_on_c, 0, 57, 0
2, 11200, Control_c, 0, 123, 0
2, 11207, Note_on_c, 0, 55, 0
2, 11220, Note_on_c, 0, 53, 84
2, 11240, Control_c, 0, 123, 0
2, 11245, Note_on_c, 0, 53, 0
2, 11280, Note_on_c, 0, 55, 97
2, 11302, Control_c, 0, 123, 0
2, 11305, Note_on_c, 0, 55, 0
2, 11340, Note_on_c, 0, 53, 122
2, 11994, Control_c, 0, 123, 0
2, 11995, Note_on_c, 0, 53, 0
2, 12000, Control_c, 0, 123, 0
2, 12034, Note_on_c, 0, 57, 64
2, 12035, Note_on_c, 0, 60, 59
2, 12036, Note_on_c, 0, 53, 55
2, 12039, Note_on_c, 0, 64, 40
2, 12045, Note_on_c, 0, 64, 0
2, 12047, Note_on_c, 0, 60, 0
2, 12049, Note_on_c, 0, 57, 0
2, 12049, Note_on_c, 0, 53, 0
2, 12049, Control_c, 0, 123, 0
2, 12121, Note_on_c, 0, 57, 97
2, 12121, Note_on_c, 0, 64, 86
2, 12121, Note_on_c, 0, 60, 97
2, 12122, Note_on_c, 0, 53, 86
2, 12184, Note_on_c, 0, 57, 0
2, 12184, Note_on_c, 0, 53, 0
2, 12186, Note_on_c, 0, 64, 0
2, 12186, Note_on_c, 0, 60, 0
2, 12186, Control_c, 0, 123, 0
2, 12209, Note_on_c, 0, 57, 58
2, 12210, Note_on_c, 0, 60, 62
2, 12211, Note_on_c, 0, 53, 56
2, 12211, Note_on_c, 0, 64, 48
2, 12222, Note_on_c, 0, 64, 0
2, 12225, Note_on_c, 0, 60, 0
2, 12227, Note_on_c, 0, 53, 0
2, 12228, Note_on_c, 0, 57, 0
2, 12228, Control_c, 0, 123, 0
2, 12296, Note_on_c, 0, 60, 73
2, 12296, Note_on_c, 0, 64, 68
2, 12297, Note_on_c, 0, 57, 77
2, 12297, Note_on_c, 0, 53, 73
2, 12489, Note_on_c, 0, 64, 0
2, 12489, Note_on_c, 0, 57, 0
2, 12489, Note_on_c, 0, 53, 0
2, 12491, Note_on_c, 0, 60, 0
2, 12491, Control_c, 0, 123, 0
2, 12508, Note_on_c, 0, 60, 58
2, 12508, Note_on_c, 0, 64, 52
2, 12508, Note_on_c, 0, 53, 45
2, 12509, Note_on_c, 0, 57, 58
2, 12525, Note_on_c, 0, 64, 0
2, 12525, Note_on_c, 0, 53, 0
2, 12526, Note_on_c, 0, 60, 0
2, 12526, Note_on_c, 0, 57, 0
2, 12526, Control_c, 0, 123, 0
2, 12598, Note_on_c, 0, 57, 95
2, 12598, Note_on_c, 0, 60, 97
2, 12599, Note_on_c, 0, 64, 88
2, 12601, Note_on_c, 0, 53, 84
2, 12656, Note_on_c, 0, 64, 0
2, 12657, Note_on_c, 0, 60, 0
2, 12659, Note_on_c, 0, 53, 0
2, 12662, Note_on_c, 0, 57, 0
2, 12662, Control_c, 0, 123, 0
2, 12687, Note_on_c, 0, 57, 56
2, 12689, Note_on_c, 0, 60, 60
2, 12689, Note_on_c, 0, 53, 50
2, 12690, Note_on_c, 0, 64, 51
2, 12705, Note_on_c, 0, 64, 0
2, 12707, Note_on_c, 0, 60, 0
2, 12707, Note_on_c, 0, 53, 0
2, 12710, Note_on_c, 0, 57, 0
2, 12710, Control_c, 0, 123, 0
2, 12782, Note_on_c, 0, 57, 90
2, 12782, Note_on_c, 0, 64, 84
2, 12783, Note_on_c, 0, 60, 97
2, 12783, Note_on_c, 0, 53, 86
2, 12950, Note_on_c, 0, 57, 0
2, 12950, Note_on_c, 0, 53, 0
2, 12955, Note_on_c, 0, 60, 0
2, 12959, Note_on_c, 0, 64, 0
2, 12959, Control_c, 0, 123, 0
2, 12993, Note_on_c, 0, 55, 68
2, 12994, Note_on_c, 0, 58, 41
2, 12996, Note_on_c, 0, 62, 41
2, 13003, Note_on_c, 0, 58, 0
2, 13004, Note_on_c, 0, 62, 0
2, 13008, Note_on_c, 0, 55, 0
2, 13008, Control_c, 0, 123, 0
2, 13080, Note_on_c, 0, 58, 83
2, 13080, Note_on_c, 0, 62, 82
2, 13081, Note_on_c, 0, 55, 84
2, 13081, Note_on_c, 0, 65, 79
2, 13147, Note_on_c, 0, 55, 0
2, 13148, Note_on_c, 0, 58, 0
2, 13150, Note_on_c, 0, 62, 0
2, 13150, Note_on_c, 0, 65, 0
2, 13150, Control_c, 0, 123, 0
2, 13171, Note_on_c, 0, 58, 47
2, 13171, Note_on_c, 0, 62, 53
2, 13172, Note_on_c, 0, 65, 60
2, 13172, Note_on_c, 0, 55, 50
2, 13180, Note_on_c, 0, 58, 0
2, 13180, Note_on_c, 0, 55, 0
2, 13182, Note_on_c, 0, 65, 0
2, 13183, Note_on_c, 0, 62, 0
2, 13183, Control_c, 0, 123, 0
2, 13258, Note_on_c, 0, 58, 83
2, 13259, Note_on_c, 0, 62, 90
2, 13259, Note_on_c, 0, 55, 86
2, 13261, Note_on_c, 0, 65, 84
2, 13444, Note_on_c, 0, 58, 0
2, 13444, Note_on_c, 0, 65, 0
2, 13445, Note_on_c, 0, 55, 0
2, 13446, Note_on_c, 0, 62, 0
2, 13446, Control_c, 0, 123, 0
2, 13470, Note_on_c, 0, 58, 51
2, 13473, Note_on_c, 0, 62, 51
2, 13474, Note_on_c, 0, 65, 51
2, 13474, Note_on_c, 0, 55, 58
2, 13483, Note_on_c, 0, 65, 0
2, 13485, Note_on_c, 0, 58, 0
2, 13485, Note_on_c, 0, 62, 0
2, 13485, Note_on_c, 0, 55, 0
2, 13485, Control_c, 0, 123, 0
2, 13559, Note_on_c, 0, 58, 77
2, 13561, Note_on_c, 0, 62, 80
2, 13561, Note_on_c, 0, 65, 80
2, 13561, Note_on_c, 0, 55, 80
2, 13625, Note_on_c, 0, 58, 0
2, 13625, Note_on_c, 0, 65, 0
2, 13627, Note_on_c, 0, 62, 0
2, 13627, Note_on_c, 0, 55, 0
2, 13627, Control_c, 0, 123, 0
2, 13648, Note_on_c, 0, 58, 63
2, 13648, Note_on_c, 0, 55, 66
2, 13650, Note_on_c, 0, 62, 56
2, 13652, Note_on_c, 0, 65, 56
2, 13660, Note_on_c, 0, 65, 0
2, 13662, Note_on_c, 0, 58, 0
2, 13662, Note_on_c, 0, 55, 0
2, 13662, Note_on_c, 0, 62, 0
2, 13662, Control_c, 0, 123, 0
2, 13735, Note_on_c, 0, 58, 95
2, 13736, Note_on_c, 0, 62, 97
2, 13736, Note_on_c, 0, 65, 90
2, 13737, Note_on_c, 0, 55, 95
2, 13910, Note_on_c, 0, 65, 0
2, 13916, Note_on_c, 0, 58, 0
2, 13916, Note_on_c, 0, 62, 0
2, 13920, Note_on_c, 0, 55, 0
2, 13920, Control_c, 0, 123, 0
2, 13952, Note_on_c, 0, 57, 70
2, 13952, Note_on_c, 0, 60, 69
2, 13952, Note_on_c, 0, 64, 60
2, 13953, Note_on_c, 0, 53, 62
2, 13966, Note_on_c, 0, 64, 0
2, 13968, Note_on_c, 0, 57, 0
2, 13968, Note_on_c, 0, 60, 0
2, 13968, Note_on_c, 0, 53, 0
2, 13968, Control_c, 0, 123, 0
2, 14036, Note_on_c, 0, 57, 100
2, 14036, Note_on_c, 0, 64, 90
2, 14037, Note_on_c, 0, 60, 97
2, 14037, Note_on_c, 0, 53, 90
2, 14111, Note_on_c, 0, 64, 0
2, 14111, Note_on_c, 0, 60, 0
2, 14112, Note_on_c, 0, 57, 0
2, 14112, Note_on_c, 0, 53, 0
2, 14112, Control_c, 0, 123, 0
2, 14128, Note_on_c, 0, 57, 70
2, 14129, Note_on_c, 0, 60, 70
2, 14129, Note_on_c, 0, 53, 61
2, 14129, Note_on_c, 0, 64, 62
2, 14142, Note_on_c, 0, 64, 0
2, 14143, Note_on_c, 0, 60, 0
2, 14145, Note_on_c, 0, 57, 0
2, 14145, Note_on_c, 0, 53, 0
2, 14145, Control_c, 0, 123, 0
2, 14217, Note_on_c, 0, 57, 80
2, 14218, Note_on_c, 0, 60, 92
2, 14218, Note_on_c, 0, 64, 82
2, 14218, Note_on_c, 0, 53, 77
2, 14413, Note_on_c, 0, 64, 0
2, 14415, Note_on_c, 0, 57, 0
2, 14415, Note_on_c, 0, 53, 0
2, 14417, Note_on_c, 0, 60, 0
2, 14417, Control_c, 0, 123, 0
2, 14433, Note_on_c, 0, 57, 62
2, 14434, Note_on_c, 0, 60, 64
2, 14434, Note_on_c, 0, 53, 57
2, 14434, Note_on_c, 0, 64, 62
2, 14451, Note_on_c, 0, 64, 0
2, 14453, Note_on_c, 0, 53, 0
2, 14454, Note_on_c, 0, 57, 0
2, 14454, Note_on_c, 0, 60, 0
2, 14455, Control_c, 0, 123, 0
2, 14519, Note_on_c, 0, 60, 86
2, 14520, Note_on_c, 0, 57, 88
2, 14520, Note_on_c, 0, 64, 77
2, 14520, Note_on_c, 0, 53, 82
2, 14595, Note_on_c, 0, 60, 0
2, 14595, Note_on_c, 0, 57, 0
2, 14595, Note_on_c, 0, 64, 0
2, 14595, Note_on_c, 0, 53, 0
2, 14595, Control_c, 0, 123, 0
2, 14612, Note_on_c, 0, 57, 57
2, 14612, Note_on_c, 0, 60, 56
2, 14614, Note_on_c, 0, 53, 53
2, 14616, Note_on_c, 0, 64, 51
2, 14628, Note_on_c, 0, 64, 0
2, 14629, Note_on_c, 0, 60, 0
2, 14630, Note_on_c, 0, 57, 0
2, 14630, Note_on_c, 0, 53, 0
2, 14630, Control_c, 0, 123, 0
2, 14702, Note_on_c, 0, 57, 86
2, 14702, Note_on_c, 0, 60, 88
2, 14702, Note_on_c, 0, 64, 84
2, 14703, Note_on_c, 0, 53, 86
2, 14874, Note_on_c, 0, 53, 0
2, 14875, Note_on_c, 0, 57, 0
2, 14878, Note_on_c, 0, 60, 0
2, 14881, Note_on_c, 0, 64, 0
2, 14881, Control_c, 0, 123, 0
2, 14909, Note_on_c, 0, 55, 74
2, 14909, Note_on_c, 0, 58, 57
2, 14910, Note_on_c, 0, 62, 56
2, 14921, Note_on_c, 0, 62, 0
2, 14922, Note_on_c, 0, 55, 0
2, 14922, Note_on_c, 0, 58, 0
2, 14922, Control_c, 0, 123, 0
2, 14994, Note_on_c, 0, 58, 86
2, 14995, Note_on_c, 0, 62, 80
2, 14997, Note_on_c, 0, 65, 77
2, 14997, Note_on_c, 0, 55, 86
2, 14999, Note_on_c, 0, 64, 77
2, 15002, Note_on_c, 0, 64, 0
2, 15064, Note_on_c, 0, 55, 0
2, 15067, Note_on_c, 0, 58, 0
2, 15068, Note_on_c, 0, 62, 0
2, 15068, Note_on_c, 0, 65, 0
2, 15068, Control_c, 0, 123, 0
2, 15086, Note_on_c, 0, 58, 58
2, 15088, Note_on_c, 0, 65, 66
2, 15088, Note_on_c, 0, 62, 61
2, 15088, Note_on_c, 0, 55, 62
2, 15099, Note_on_c, 0, 55, 0
2, 15101, Note_on_c, 0, 58, 0
2, 15102, Note_on_c, 0, 65, 0
2, 15102, Note_on_c, 0, 62, 0
2, 15103, Control_c, 0, 123, 0
2, 15178, Note_on_c, 0, 58, 77
2, 15178, Note_on_c, 0, 65, 84
2, 15178, Note_on_c, 0, 55, 88
2, 15178, Note_on_c, 0, 62, 80
2, 15368, Note_on_c, 0, 58, 0
2, 15369, Note_on_c, 0, 65, 0
2, 15370, Note_on_c, 0, 55, 0
2, 15371, Note_on_c, 0, 62, 0
2, 15371, Control_c, 0, 123, 0
2, 15392, Note_on_c, 0, 58, 59
2, 15394, Note_on_c, 0, 55, 56
2, 15394, Note_on_c, 0, 62, 62
2, 15396, Note_on_c, 0, 65, 57
2, 15407, Note_on_c, 0, 65, 0
2, 15408, Note_on_c, 0, 58, 0
2, 15410, Note_on_c, 0, 55, 0
2, 15410, Note_on_c, 0, 62, 0
2, 15410, Control_c, 0, 123, 0
2, 15479, Note_on_c, 0, 58, 83
2, 15480, Note_on_c, 0, 62, 84
2, 15480, Note_on_c, 0, 55, 86
2, 15480, Note_on_c, 0, 65, 84
2, 15549, Note_on_c, 0, 58, 0
2, 15549, Note_on_c, 0, 62, 0
2, 15549, Note_on_c, 0, 55, 0
2, 15551, Note_on_c, 0, 65, 0
2, 15551, Control_c, 0, 123, 0
2, 15570, Note_on_c, 0, 58, 63
2, 15570, Note_on_c, 0, 55, 67
2, 15571, Note_on_c, 0, 65, 65
2, 15571, Note_on_c, 0, 62, 60
2, 15583, Note_on_c, 0, 58, 0
2, 15584, Note_on_c, 0, 55, 0
2, 15585, Note_on_c, 0, 65, 0
2, 15585, Note_on_c, 0, 62, 0
2, 15585, Control_c, 0, 123, 0
2, 15656, Note_on_c, 0, 58, 83
2, 15656, Note_on_c, 0, 62, 84
2, 15657, Note_on_c, 0, 55, 90
2, 15657, Note_on_c, 0, 65, 84
2, 15813, Note_on_c, 0, 65, 0
2, 15824, Note_on_c, 0, 62, 0
2, 15828, Note_on_c, 0, 58, 0
2, 15834, Note_on_c, 0, 55, 0
2, 15834, Control_c, 0, 123, 0
2, 15875, Note_on_c, 0, 64, 63
2, 15875, Note_on_c, 0, 60, 73
2, 15876, Note_on_c, 0, 53, 67
2, 15876, Note_on_c, 0, 57, 67
2, 15890, Note_on_c, 0, 64, 0
2, 15891, Note_on_c, 0, 57, 0
2, 15893, Note_on_c, 0, 60, 0
2, 15893, Note_on_c, 0, 53, 0
2, 15893, Control_c, 0, 123, 0
2, 15959, Note_on_c, 0, 57, 84
2, 15960, Note_on_c, 0, 60, 77
2, 15960, Note_on_c, 0, 64, 73
2, 15960, Note_on_c, 0, 53, 79
2, 16032, Note_on_c, 0, 64, 0
2, 16035, Note_on_c, 0, 57, 0
2, 16035, Note_on_c, 0, 60, 0
2, 16035, Note_on_c, 0, 53, 0
2, 16035, Control_c, 0, 123, 0
2, 16052, Note_on_c, 0, 57, 76
2, 16052, Note_on_c, 0, 53, 66
2, 16052, Note_on_c, 0, 60, 77
2, 16054, Note_on_c, 0, 64, 67
2, 16065, Note_on_c, 0, 64, 0
2, 16068, Note_on_c, 0, 57, 0
2, 16068, Note_on_c, 0, 53, 0
2, 16068, Note_on_c, 0, 60, 0
2, 16068, Control_c, 0, 123, 0
2, 16139, Note_on_c, 0, 57, 88
2, 16139, Note_on_c, 0, 60, 88
2, 16140, Note_on_c, 0, 53, 86
2, 16140, Note_on_c, 0, 64, 82
2, 16334, Note_on_c, 0, 57, 0
2, 16334, Note_on_c, 0, 53, 0
2, 16334, Note_on_c, 0, 64, 0
2, 16336, Note_on_c, 0, 60, 0
2, 16336, Control_c, 0, 123, 0
2, 16354, Note_on_c, 0, 57, 66
2, 16354, Note_on_c, 0, 60, 69
2, 16354, Note_on_c, 0, 53, 65
2, 16356, Note_on_c, 0, 64, 64
2, 16371, Note_on_c, 0, 64, 0
2, 16372, Note_on_c, 0, 57, 0
2, 16372, Note_on_c, 0, 53, 0
2, 16374, Note_on_c, 0, 60, 0
2, 16374, Control_c, 0, 123, 0
2, 16443, Note_on_c, 0, 57, 79
2, 16443, Note_on_c, 0, 60, 80
2, 16443, Note_on_c, 0, 64, 76
2, 16444, Note_on_c, 0, 53, 82
2, 16513, Note_on_c, 0, 57, 0
2, 16514, Note_on_c, 0, 60, 0
2, 16514, Note_on_c, 0, 64, 0
2, 16514, Note_on_c, 0, 53, 0
2, 16514, Control_c, 0, 123, 0
2, 16533, Note_on_c, 0, 57, 68
2, 16534, Note_on_c, 0, 53, 66
2, 16534, Note_on_c, 0, 60, 70
2, 16536, Note_on_c, 0, 64, 61
2, 16553, Note_on_c, 0, 60, 0
2, 16553, Note_on_c, 0, 64, 0
2, 16554, Note_on_c, 0, 57, 0
2, 16555, Note_on_c, 0, 53, 0
2, 16555, Control_c, 0, 123, 0
2, 16618, Note_on_c, 0, 57, 82
2, 16618, Note_on_c, 0, 60, 88
2, 16619, Note_on_c, 0, 64, 77
2, 16619, Note_on_c, 0, 53, 86
2, 16789, Note_on_c, 0, 53, 0
2, 16791, Note_on_c, 0, 57, 0
2, 16791, Note_on_c, 0, 60, 0
2, 16801, Note_on_c, 0, 64, 0
2, 16801, Control_c, 0, 123, 0
2, 16831, Note_on_c, 0, 55, 68
2, 16831, Note_on_c, 0, 58, 49
2, 16833, Note_on_c, 0, 62, 48
2, 16833, Note_on_c, 0, 65, 42
2, 16844, Note_on_c, 0, 58, 0
2, 16844, Note_on_c, 0, 62, 0
2, 16844, Note_on_c, 0, 65, 0
2, 16848, Note_on_c, 0, 55, 0
2, 16848, Control_c, 0, 123, 0
2, 16918, Note_on_c, 0, 58, 80
2, 16919, Note_on_c, 0, 62, 82
2, 16920, Note_on_c, 0, 55, 90
2, 16921, Note_on_c, 0, 65, 82
2, 16989, Note_on_c, 0, 58, 0
2, 16989, Note_on_c, 0, 62, 0
2, 16989, Note_on_c, 0, 55, 0
2, 16991, Note_on_c, 0, 65, 0
2, 16991, Control_c, 0, 123, 0
2, 17012, Note_on_c, 0, 65, 56
2, 17012, Note_on_c, 0, 58, 46
2, 17014, Note_on_c, 0, 55, 54
2, 17014, Note_on_c, 0, 62, 53
2, 17022, Note_on_c, 0, 58, 0
2, 17022, Note_on_c, 0, 62, 0
2, 17024, Note_on_c, 0, 65, 0
2, 17024, Note_on_c, 0, 55, 0
2, 17024, Control_c, 0, 123, 0
2, 17098, Note_on_c, 0, 58, 95
2, 17098, Note_on_c, 0, 62, 92
2, 17098, Note_on_c, 0, 65, 88
2, 17099, Note_on_c, 0, 55, 97
2, 17101, Note_on_c, 0, 64, 73
2, 17106, Note_on_c, 0, 64, 0
2, 17289, Note_on_c, 0, 58, 0
2, 17289, Note_on_c, 0, 55, 0
2, 17292, Note_on_c, 0, 62, 0
2, 17292, Note_on_c, 0, 65, 0
2, 17292, Control_c, 0, 123, 0
2, 17316, Note_on_c, 0, 65, 56
2, 17316, Note_on_c, 0, 58, 51
2, 17317, Note_on_c, 0, 62, 55
2, 17317, Note_on_c, 0, 55, 51
2, 17331, Note_on_c, 0, 65, 0
2, 17331, Note_on_c, 0, 58, 0
2, 17331, Note_on_c, 0, 62, 0
2, 17331, Note_on_c, 0, 55, 0
2, 17331, Control_c, 0, 123, 0
2, 17396, Note_on_c, 0, 62, 79
2, 17396, Note_on_c, 0, 58, 73
2, 17397, Note_on_c, 0, 65, 82
2, 17397, Note_on_c, 0, 55, 82
2, 17467, Note_on_c, 0, 58, 0
2, 17469, Note_on_c, 0, 62, 0
2, 17469, Note_on_c, 0, 65, 0
2, 17469, Note_on_c, 0, 55, 0
2, 17469, Control_c, 0, 123, 0
2, 17488, Note_on_c, 0, 58, 58
2, 17490, Note_on_c, 0, 62, 57
2, 17492, Note_on_c, 0, 55, 51
2, 17492, Note_on_c, 0, 65, 50
2, 17502, Note_on_c, 0, 58, 0
2, 17502, Note_on_c, 0, 62, 0
2, 17502, Note_on_c, 0, 55, 0
2, 17502, Note_on_c, 0, 65, 0
2, 17502, Control_c, 0, 123, 0
2, 17577, Note_on_c, 0, 58, 86
2, 17578, Note_on_c, 0, 55, 88
2, 17578, Note_on_c, 0, 62, 88
2, 17578, Note_on_c, 0, 65, 86
2, 17738, Note_on_c, 0, 65, 0
2, 17741, Note_on_c, 0, 62, 0
2, 17747, Note_on_c, 0, 58, 0
2, 17755, Note_on_c, 0, 55, 0
2, 17755, Control_c, 0, 123, 0
2, 17790, Note_on_c, 0, 57, 72
2, 17791, Note_on_c, 0, 64, 62
2, 17791, Note_on_c, 0, 53, 66
2, 17793, Note_on_c, 0, 60, 57
2, 17806, Note_on_c, 0, 64, 0
2, 17808, Note_on_c, 0, 57, 0
2, 17808, Note_on_c, 0, 53, 0
2, 17808, Note_on_c, 0, 60, 0
2, 17808, Control_c, 0, 123, 0
2, 17876, Note_on_c, 0, 64, 77
2, 17876, Note_on_c, 0, 60, 84
2, 17877, Note_on_c, 0, 57, 84
2, 17879, Note_on_c, 0, 53, 77
2, 17950, Note_on_c, 0, 64, 0
2, 17950, Note_on_c, 0, 60, 0
2, 17950, Note_on_c, 0, 57, 0
2, 17952, Note_on_c, 0, 53, 0
2, 17952, Control_c, 0, 123, 0
2, 17968, Note_on_c, 0, 57, 73
2, 17969, Note_on_c, 0, 53, 62
2, 17969, Note_on_c, 0, 60, 77
2, 17971, Note_on_c, 0, 64, 66
2, 17982, Note_on_c, 0, 64, 0
2, 17985, Note_on_c, 0, 60, 0
2, 17986, Note_on_c, 0, 57, 0
2, 17986, Note_on_c, 0, 53, 0
2, 17987, Control_c, 0, 123, 0
2, 18054, Note_on_c, 0, 57, 82
2, 18054, Note_on_c, 0, 60, 84
2, 18055, Note_on_c, 0, 64, 77
2, 18055, Note_on_c, 0, 53, 76
2, 18258, Note_on_c, 0, 64, 0
2, 18258, Note_on_c, 0, 53, 0
2, 18260, Note_on_c, 0, 57, 0
2, 18260, Note_on_c, 0, 60, 0
2, 18260, Control_c, 0, 123, 0
2, 18276, Note_on_c, 0, 60, 70
2, 18276, Note_on_c, 0, 57, 65
2, 18277, Note_on_c, 0, 53, 60
2, 18277, Note_on_c, 0, 64, 63
2, 18291, Note_on_c, 0, 64, 0
2, 18293, Note_on_c, 0, 57, 0
2, 18293, Note_on_c, 0, 53, 0
2, 18294, Note_on_c, 0, 60, 0
2, 18294, Control_c, 0, 123, 0
2, 18356, Note_on_c, 0, 57, 84
2, 18356, Note_on_c, 0, 60, 84
2, 18357, Note_on_c, 0, 64, 82
2, 18357, Note_on_c, 0, 53, 77
2, 18428, Note_on_c, 0, 64, 0
2, 18429, Note_on_c, 0, 57, 0
2, 18429, Note_on_c, 0, 60, 0
2, 18431, Note_on_c, 0, 53, 0
2, 18431, Control_c, 0, 123, 0
2, 18447, Note_on_c, 0, 57, 60
2, 18447, Note_on_c, 0, 53, 54
2, 18449, Note_on_c, 0, 60, 65
2, 18449, Note_on_c, 0, 64, 56
2, 18463, Note_on_c, 0, 60, 0
2, 18463, Note_on_c, 0, 64, 0
2, 18465, Note_on_c, 0, 57, 0
2, 18465, Note_on_c, 0, 53, 0
2, 18465, Control_c, 0, 123, 0
2, 18534, Note_on_c, 0, 57, 82
2, 18535, Note_on_c, 0, 60, 88
2, 18535, Note_on_c, 0, 64, 76
2, 18535, Note_on_c, 0, 53, 77
2, 18720, Note_on_c, 0, 57, 0
2, 18720, Note_on_c, 0, 53, 0
2, 18722, Note_on_c, 0, 60, 0
2, 18725, Note_on_c, 0, 64, 0
2, 18725, Control_c, 0, 123, 0
2, 18755, Note_on_c, 0, 62, 71
2, 18755, Note_on_c, 0, 58, 59
2, 18755, Note_on_c, 0, 55, 73
2, 18756, Note_on_c, 0, 65, 47
2, 18767, Note_on_c, 0, 58, 0
2, 18767, Note_on_c, 0, 65, 0
2, 18770, Note_on_c, 0, 62, 0
2, 18772, Note_on_c, 0, 55, 0
2, 18772, Control_c, 0, 123, 0
2, 18835, Note_on_c, 0, 58, 75
2, 18837, Note_on_c, 0, 55, 82
2, 18837, Note_on_c, 0, 62, 80
2, 18837, Note_on_c, 0, 65, 79
2, 18910, Note_on_c, 0, 58, 0
2, 18910, Note_on_c, 0, 55, 0
2, 18910, Note_on_c, 0, 62, 0
2, 18912, Note_on_c, 0, 65, 0
2, 18912, Control_c, 0, 123, 0
2, 18927, Note_on_c, 0, 58, 57
2, 18929, Note_on_c, 0, 65, 57
2, 18931, Note_on_c, 0, 55, 49
2, 18931, Note_on_c, 0, 62, 59
2, 18942, Note_on_c, 0, 58, 0
2, 18942, Note_on_c, 0, 55, 0
2, 18943, Note_on_c, 0, 62, 0
2, 18944, Note_on_c, 0, 65, 0
2, 18944, Control_c, 0, 123, 0
2, 19016, Note_on_c, 0, 58, 83
2, 19018, Note_on_c, 0, 62, 86
2, 19018, Note_on_c, 0, 65, 84
2, 19018, Note_on_c, 0, 55, 92
2, 19209, Note_on_c, 0, 58, 0
2, 19209, Note_on_c, 0, 65, 0
2, 19209, Note_on_c, 0, 55, 0
2, 19211, Note_on_c, 0, 62, 0
2, 19211, Control_c, 0, 123, 0
2, 19233, Note_on_c, 0, 58, 49
2, 19235, Note_on_c, 0, 55, 50
2, 19237, Note_on_c, 0, 62, 61
2, 19246, Note_on_c, 0, 58, 0
2, 19246, Note_on_c, 0, 55, 0
2, 19246, Note_on_c, 0, 62, 0
2, 19246, Control_c, 0, 123, 0
2, 19324, Note_on_c, 0, 65, 72
2, 19325, Note_on_c, 0, 58, 67
2, 19325, Note_on_c, 0, 62, 72
2, 19325, Note_on_c, 0, 55, 73
2, 19389, Note_on_c, 0, 58, 0
2, 19392, Note_on_c, 0, 55, 0
2, 19394, Note_on_c, 0, 62, 0
2, 19399, Note_on_c, 0, 65, 0
2, 19399, Control_c, 0, 123, 0
2, 19418, Note_on_c, 0, 65, 64
2, 19420, Note_on_c, 0, 55, 63
2, 19420, Note_on_c, 0, 58, 59
2, 19420, Note_on_c, 0, 62, 62
2, 19433, Note_on_c, 0, 58, 0
2, 19434, Note_on_c, 0, 55, 0
2, 19436, Note_on_c, 0, 62, 0
2, 19439, Note_on_c, 0, 65, 0
2, 19439, Control_c, 0, 123, 0
2, 19498, Note_on_c, 0, 50, 109
2, 19525, Note_on_c, 0, 50, 0
2, 19525, Control_c, 0, 123, 0
2, 19559, Note_on_c, 0, 53, 113
2, 19582, Note_on_c, 0, 53, 0
2, 19582, Control_c, 0, 123, 0
2, 19619, Note_on_c, 0, 57, 97
2, 19649, Note_on_c, 0, 57, 0
2, 19649, Control_c, 0, 123, 0
2, 19980, Note_on_c, 0, 50, 113
2, 20001, Control_c, 0, 123, 0
2, 20008, Note_on_c, 0, 50, 0
2, 20040, Note_on_c, 0, 53, 109
2, 20058, Control_c, 0, 123, 0
2, 20063, Note_on_c, 0, 53, 0
2, 20100, Note_on_c, 0, 57, 100
2, 20120, Control_c, 0, 123, 0
2, 20125, Note_on_c, 0, 57, 0
2, 20460, Note_on_c, 0, 50, 109
2, 20493, Note_on_c, 0, 50, 0
2, 20494, Control_c, 0, 123, 0
2, 20520, Note_on_c, 0, 53, 103
2, 20545, Note_on_c, 0, 53, 0
2, 20547, Control_c, 0, 123, 0
2, 20580, Note_on_c, 0, 55, 109
2, 20601, Control_c, 0, 123, 0
2, 20602, Note_on_c, 0, 55, 0
2, 20940, Note_on_c, 0, 50, 95
2, 20975, Control_c, 0, 123, 0
2, 20976, Note_on_c, 0, 50, 0
2, 21000, Note_on_c, 0, 53, 95
2, 21023, Control_c, 0, 123, 0
2, 21026, Note_on_c, 0, 53, 0
2, 21060, Note_on_c, 0, 55, 100
2, 21079, Control_c, 0, 123, 0
2, 21084, Note_on_c, 0, 55, 0
2, 21120, Note_on_c, 0, 57, 100
2, 21240, Note_on_c, 0, 55, 106
2, 21250, Note_on_c, 0, 57, 0
2, 21285, Control_c, 0, 123, 0
2, 21287, Note_on_c, 0, 55, 0
2, 21300, Note_on_c, 0, 53, 97
2, 21327, Control_c, 0, 123, 0
2, 21331, Note_on_c, 0, 53, 0
2, 21360, Note_on_c, 0, 55, 109
2, 21403, Control_c, 0, 123, 0
2, 21404, Note_on_c, 0, 55, 0
2, 21420, Note_on_c, 0, 50, 97
2, 21445, Control_c, 0, 123, 0
2, 21448, Note_on_c, 0, 50, 0
2, 21480, Note_on_c, 0, 53, 106
2, 21504, Note_on_c, 0, 53, 0
2, 21504, Control_c, 0, 123, 0
2, 21540, Note_on_c, 0, 57, 100
2, 21566, Control_c, 0, 123, 0
2, 21567, Note_on_c, 0, 57, 0
2, 21900, Note_on_c, 0, 50, 109
2, 21929, Control_c, 0, 123, 0
2, 21932, Note_on_c, 0, 50, 0
2, 21960, Note_on_c, 0, 53, 106
2, 21980, Control_c, 0, 123, 0
2, 21984, Note_on_c, 0, 53, 0
2, 22020, Note_on_c, 0, 57, 103
2, 22043, Control_c, 0, 123, 0
2, 22046, Note_on_c, 0, 57, 0
2, 22380, Note_on_c, 0, 50, 100
2, 22408, Control_c, 0, 123, 0
2, 22409, Note_on_c, 0, 50, 0
2, 22440, Note_on_c, 0, 53, 88
2, 22462, Control_c, 0, 123, 0
2, 22465, Note_on_c, 0, 53, 0
2, 22500, Note_on_c, 0, 55, 106
2, 22522, Control_c, 0, 123, 0
2, 22525, Note_on_c, 0, 55, 0
2, 22860, Note_on_c, 0, 50, 97
2, 22893, Control_c, 0, 123, 0
2, 22897, Note_on_c, 0, 50, 0
2, 22920, Note_on_c, 0, 53, 86
2, 22940, Control_c, 0, 123, 0
2, 22945, Note_on_c, 0, 53, 0
2, 22980, Note_on_c, 0, 55, 86
2, 22998, Control_c, 0, 123, 0
2, 23005, Note_on_c, 0, 55, 0
2, 23040, Note_on_c, 0, 57, 97
2, 23160, Note_on_c, 0, 55, 80
2, 23165, Note_on_c, 0, 57, 0
2, 23200, Control_c, 0, 123, 0
2, 23207, Note_on_c, 0, 55, 0
2, 23220, Note_on_c, 0, 53, 84
2, 23240, Control_c, 0, 123, 0
2, 23245, Note_on_c, 0, 53, 0
2, 23280, Note_on_c, 0, 55, 97
2, 23302, Control_c, 0, 123, 0
2, 23305, Note_on_c, 0, 55, 0
2, 23340, Note_on_c, 0, 53, 122
2, 23994, Control_c, 0, 123, 0
2, 23995, Note_on_c, 0, 53, 0
2, 31680, Control_c, 0, 123, 0
2, 31714, Note_on_c, 0, 57, 64
2, 31715, Note_on_c, 0, 60, 59
2, 31716, Note_on_c, 0, 53, 55
2, 31719, Note_on_c, 0, 64, 40
2, 31725, Note_on_c, 0, 64, 0
2, 31727, Note_on_c, 0, 60, 0
2, 31729, Note_on_c, 0, 57, 0
2, 31729, Note_on_c, 0, 53, 0
2, 31729, Control_c, 0, 123, 0
2, 31801, Note_on_c, 0, 57, 97
2, 31801, Note_on_c, 0, 64, 86
2, 31801, Note_on_c, 0, 60, 97
2, 31802, Note_on_c, 0, 53, 86
2, 31864, Note_on_c, 0, 57, 0
2, 31864, Note_on_c, 0, 53, 0
2, 31866, Note_on_c, 0, 64, 0
2, 31866, Note_on_c, 0, 60, 0
2, 31866, Control_c, 0, 123, 0
2, 31889, Note_on_c, 0, 57, 58
2, 31890, Note_on_c, 0, 60, 62
2, 31891, Note_on_c, 0, 53, 56
2, 31891, Note_on_c, 0, 64, 48
2, 31902, Note_on_c, 0, 64, 0
2, 31905, Note_on_c, 0, 60, 0
2, 31907, Note_on_c, 0, 53, 0
2, 31908, Note_on_c, 0, 57, 0
2, 31908, Control_c, 0, 123, 0
2, 31976, Note_on_c, 0, 60, 73
2, 31976, Note_on_c, 0, 64, 68
2, 31977, Note_on_c, 0, 57, 77
2, 31977, Note_on_c, 0, 53, 73
2, 32169, Note_on_c, 0, 64, 0
2, 32169, Note_on_c, 0, 57, 0
2, 32169, Note_on_c, 0, 53, 0
2, 32171, Note_on_c, 0, 60, 0
2, 32171, Control_c, 0, 123, 0
2, 32188, Note_on_c, 0, 60, 58
2, 32188, Note_on_c, 0, 64, 52
2, 32188, Note_on_c, 0, 53, 45
2, 32189, Note_on_c, 0, 57, 58
2, 32205, Note_on_c, 0, 64, 0
2, 32205, Note_on_c, 0, 53, 0
2, 32206, Note_on_c, 0, 60, 0
2, 32206, Note_on_c, 0, 57, 0
2, 32206, Control_c, 0, 123, 0
2, 32278, Note_on_c, 0, 57, 95
2, 32278, Note_on_c, 0, 60, 97
2, 32279, Note_on_c, 0, 64, 88
2, 32281, Note_on_c, 0, 53, 84
2, 32336, Note_on_c, 0, 64, 0
2, 32337, Note_on_c, 0, 60, 0
2, 32339, Note_on_c, 0, 53, 0
2, 32342, Note_on_c, 0, 57, 0
2, 32342, Control_c, 0, 123, 0
2, 32367, Note_on_c, 0, 57, 56
2, 32369, Note_on_c, 0, 60, 60
2, 32369, Note_on_c, 0, 53, 50
2, 32370, Note_on_c, 0, 64, 51
2, 32385, Note_on_c, 0, 64, 0
2, 32387, Note_on_c, 0, 60, 0
2, 32387, Note_on_c, 0, 53, 0
2, 32390, Note_on_c, 0, 57, 0
2, 32390, Control_c, 0, 123, 0
2, 32462, Note_on_c, 0, 57, 90
2, 32462, Note_on_c, 0, 64, 84
2, 32463, Note_on_c, 0, 60, 97
2, 32463, Note_on_c, 0, 53, 86
2, 32630, Note_on_c, 0, 57, 0
2, 32630, Note_on_c, 0, 53, 0
2, 32635, Note_on_c, 0, 60, 0
2, 32639, Note_on_c, 0, 64, 0
2, 32639, Control_c, 0, 123, 0
2, 32673, Note_on_c, 0, 55, 68
2, 32674, Note_on_c, 0, 58, 41
2, 32676, Note_on_c, 0, 62, 41
2, 32683, Note_on_c, 0, 58, 0
2, 32684, Note_on_c, 0, 62, 0
2, 32688, Note_on_c, 0, 55, 0
2, 32688, Control_c, 0, 123, 0
2, 32760, Note_on_c, 0, 58, 83
2, 32760, Note_on_c, 0, 62, 82
2, 32761, Note_on_c, 0, 55, 84
2, 32761, Note_on_c, 0, 65, 79
2, 32827, Note_on_c, 0, 55, 0
2, 32828, Note_on_c, 0, 58, 0
2, 32830, Note_on_c, 0, 62, 0
2, 32830, Note_on_c, 0, 65, 0
2, 32830, Control_c, 0, 123, 0
2, 32851, Note_on_c, 0, 58, 47
2, 32851, Note_on_c, 0, 62, 53
2, 32852, Note_on_c, 0, 65, 60
2, 32852, Note_on_c, 0, 55, 50
2, 32860, Note_on_c, 0, 58, 0
2, 32860, Note_on_c, 0, 55, 0
2, 32862, Note_on_c, 0, 65, 0
2, 32863, Note_on_c, 0, 62, 0
2, 32863, Control_c, 0, 123, 0
2, 32938, Note_on_c, 0, 58, 83
2, 32939, Note_on_c, 0, 62, 90
2, 32939, Note_on_c, 0, 55, 86
2, 32941, Note_on_c, 0, 65, 84
2, 33124, Note_on_c, 0, 58, 0
2, 33124, Note_on_c, 0, 65, 0
2, 33125, Note_on_c, 0, 55, 0
2, 33126, Note_on_c, 0, 62, 0
2, 33126, Control_c, 0, 123, 0
2, 33150, Note_on_c, 0, 58, 51
2, 33153, Note_on_c, 0, 62, 51
2, 33154, Note_on_c, 0, 65, 51
2, 33154, Note_on_c, 0, 55, 58
2, 33163, Note_on_c, 0, 65, 0
2, 33165, Note_on_c, 0, 58, 0
2, 33165, Note_on_c, 0, 62, 0
2, 33165, Note_on_c, 0, 55, 0
2, 33165, Control_c, 0, 123, 0
2, 33239, Note_on_c, 0, 58, 77
2, 33241, Note_on_c, 0, 62, 80
2, 33241, Note_on_c, 0, 65, 80
2, 33241, Note_on_c, 0, 55, 80
2, 33305, Note_on_c, 0, 58, 0
2, 33305, Note_on_c, 0, 65, 0
2, 33307, Note_on_c, 0, 62, 0
2, 33307, Note_on_c, 0, 55, 0
2, 33307, Control_c, 0, 123, 0
2, 33328, Note_on_c, 0, 58, 63
2, 33328, Note_on_c, 0, 55, 66
2, 33330, Note_on_c, 0, 62, 56
2, 33332, Note_on_c, 0, 65, 56
2, 33340, Note_on_c, 0, 65, 0
2, 33342, Note_on_c, 0, 58, 0
2, 33342, Note_on_c, 0, 55, 0
2, 33342, Note_on_c, 0, 62, 0
2, 33342, Control_c, 0, 123, 0
2, 33415, Note_on_c, 0, 58, 95
2, 33416, Note_on_c, 0, 62, 97
2, 33416, Note_on_c, 0, 65, 90
2, 33417, Note_on_c, 0, 55, 95
2, 33590, Note_on_c, 0, 65, 0
2, 33596, Note_on_c, 0, 58, 0
2, 33596, Note_on_c, 0, 62, 0
2, 33600, Note_on_c, 0, 55, 0
2, 33600, Control_c, 0, 123, 0
2, 33632, Note_on_c, 0, 57, 70
2, 33632, Note_on_c, 0, 60, 69
2, 33632, Note_on_c, 0, 64, 60
2, 33633, Note_on_c, 0, 53, 62
2, 33646, Note_on_c, 0, 64, 0
2, 33648, Note_on_c, 0, 57, 0
2, 33648, Note_on_c, 0, 60, 0
2, 33648, Note_on_c, 0, 53, 0
2, 33648, Control_c, 0, 123, 0
2, 33716, Note_on_c, 0, 57, 100
2, 33716, Note_on_c, 0, 64, 90
2, 33717, Note_on_c, 0, 60, 97
2, 33717, Note_on_c, 0, 53, 90
2, 33791, Note_on_c, 0, 64, 0
2, 33791, Note_on_c, 0, 60, 0
2, 33792, Note_on_c, 0, 57, 0
2, 33792, Note_on_c, 0, 53, 0
2, 33792, Control_c, 0, 123, 0
2, 33808, Note_on_c, 0, 57, 70
2, 33809, Note_on_c, 0, 60, 70
2, 33809, Note_on_c, 0, 53, 61
2, 33809, Note_on_c, 0, 64, 62
2, 33822, Note_on_c, 0, 64, 0
2, 33823, Note_on_c, 0, 60, 0
2, 33825, Note_on_c, 0, 57, 0
2, 33825, Note_on_c, 0, 53, 0
2, 33825, Control_c, 0, 123, 0
2, 33897, Note_on_c, 0, 57, 80
2, 33898, Note_on_c, 0, 60, 92
2, 33898, Note_on_c, 0, 64, 82
2, 33898, Note_on_c, 0, 53, 77
2, 34093, Note_on_c, 0, 64, 0
2, 34095, Note_on_c, 0, 57, 0
2, 34095, Note_on_c, 0, 53, 0
2, 34097, Note_on_c, 0, 60, 0
2, 34097, Control_c, 0, 123, 0
2, 34113, Note_on_c, 0, 57, 62
2, 34114, Note_on_c, 0, 60, 64
2, 34114, Note_on_c, 0, 53, 57
2, 34114, Note_on_c, 0, 64, 62
2, 34131, Note_on_c, 0, 64, 0
2, 34133, Note_on_c, 0, 53, 0
2, 34134, Note_on_c, 0, 57, 0
2, 34134, Note_on_c, 0, 60, 0
2, 34135, Control_c, 0, 123, 0
2, 34199, Note_on_c, 0, 60, 86
2, 34200, Note_on_c, 0, 57, 88
2, 34200, Note_on_c, 0, 64, 77
2, 34200, Note_on_c, 0, 53, 82
2, 34275, Note_on_c, 0, 60, 0
2, 34275, Note_on_c, 0, 57, 0
2, 34275, Note_on_c, 0, 64, 0
2, 34275, Note_on_c, 0, 53, 0
2, 34275, Control_c, 0, 123, 0
2, 34292, Note_on_c, 0, 57, 57
2, 34292, Note_on_c, 0, 60, 56
2, 34294, Note_on_c, 0, 53, 53
2, 34296, Note_on_c, 0, 64, 51
2, 34308, Note_on_c, 0, 64, 0
2, 34309, Note_on_c, 0, 60, 0
2, 34310, Note_on_c, 0, 57, 0
2, 34310, Note_on_c, 0, 53, 0
2, 34310, Control_c, 0, 123, 0
2, 34382, Note_on_c, 0, 57, 86
2, 34382, Note_on_c, 0, 60, 88
2, 34382, Note_on_c, 0, 64, 84
2, 34383, Note_on_c, 0, 53, 86
2, 34554, Note_on_c, 0, 53, 0
2, 34555, Note_on_c, 0, 57, 0
2, 34558, Note_on_c, 0, 60, 0
2, 34561, Note_on_c, 0, 64, 0
2, 34561, Control_c, 0, 123, 0
2, 34589, Note_on_c, 0, 55, 74
2, 34589, Note_on_c, 0, 58, 57
2, 34590, Note_on_c, 0, 62, 56
2, 34601, Note_on_c, 0, 62, 0
2, 34602, Note_on_c, 0, 55, 0
2, 34602, Note_on_c, 0, 58, 0
2, 34602, Control_c, 0, 123, 0
2, 34674, Note_on_c, 0, 58, 86
2, 34675, Note_on_c, 0, 62, 80
2, 34677, Note_on_c, 0, 65, 77
2, 34677, Note_on_c, 0, 55, 86
2, 34679, Note_on_c, 0, 64, 77
2, 34682, Note_on_c, 0, 64, 0
2, 34744, Note_on_c, 0, 55, 0
2, 34747, Note_on_c, 0, 58, 0
2, 34748, Note_on_c, 0, 62, 0
2, 34748, Note_on_c, 0, 65, 0
2, 34748, Control_c, 0, 123, 0
2, 34766, Note_on_c, 0, 58, 58
2, 34768, Note_on_c, 0, 65, 66
2, 34768, Note_on_c, 0, 62, 61
2, 34768, Note_on_c, 0, 55, 62
2, 34779, Note_on_c, 0, 55, 0
2, 34781, Note_on_c, 0, 58, 0
2, 34782, Note_on_c, 0, 65, 0
2, 34782, Note_on_c, 0, 62, 0
2, 34783, Control_c, 0, 123, 0
2, 34858, Note_on_c, 0, 58, 77
2, 34858, Note_on_c, 0, 65, 84
2, 34858, Note_on_c, 0, 55, 88
2, 34858, Note_on_c, 0, 62, 80
2, 35048, Note_on_c, 0, 58, 0
2, 35049, Note_on_c, 0, 65, 0
2, 35050, Note_on_c, 0, 55, 0
2, 35051, Note_on_c, 0, 62, 0
2, 35051, Control_c, 0, 123, 0
2, 35072, Note_on_c, 0, 58, 59
2, 35074, Note_on_c, 0, 55, 56
2, 35074, Note_on_c, 0, 62, 62
2, 35076, Note_on_c, 0, 65, 57
2, 35087, Note_on_c, 0, 65, 0
2, 35088, Note_on_c, 0, 58, 0
2, 35090, Note_on_c, 0, 55, 0
2, 35090, Note_on_c, 0, 62, 0
2, 35090, Control_c, 0, 123, 0
2, 35159, Note_on_c, 0, 58, 83
2, 35160, Note_on_c, 0, 62, 84
2, 35160, Note_on_c, 0, 55, 86
2, 35160, Note_on_c, 0, 65, 84
2, 35229, Note_on_c, 0, 58, 0
2, 35229, Note_on_c, 0, 62, 0
2, 35229, Note_on_c, 0, 55, 0
2, 35231, Note_on_c, 0, 65, 0
2, 35231, Control_c, 0, 123, 0
2, 35250, Note_on_c, 0, 58, 63
2, 35250, Note_on_c, 0, 55, 67
2, 35251, Note_on_c, 0, 65, 65
2, 35251, Note_on_c, 0, 62, 60
2, 35263, Note_on_c, 0, 58, 0
2, 35264, Note_on_c, 0, 55, 0
2, 35265, Note_on_c, 0, 65, 0
2, 35265, Note_on_c, 0, 62, 0
2, 35265, Control_c, 0, 123, 0
2, 35336, Note_on_c, 0, 58, 83
2, 35336, Note_on_c, 0, 62, 84
2, 35337, Note_on_c, 0, 55, 90
2, 35337, Note_on_c, 0, 65, 84
2, 35493, Note_on_c, 0, 65, 0
2, 35504, Note_on_c, 0, 62, 0
2, 35508, Note_on_c, 0, 58, 0
2, 35514, Note_on_c, 0, 55, 0
2, 35514, Control_c, 0, 123, 0
2, 35555, Note_on_c, 0, 64, 63
2, 35555, Note_on_c, 0, 60, 73
2, 35556, Note_on_c, 0, 53, 67
2, 35556, Note_on_c, 0, 57, 67
2, 35570, Note_on_c, 0, 64, 0
2, 35571, Note_on_c, 0, 57, 0
2, 35573, Note_on_c, 0, 60, 0
2, 35573, Note_on_c, 0, 53, 0
2, 35573, Control_c, 0, 123, 0
2, 35639, Note_on_c, 0, 57, 84
2, 35640, Note_on_c, 0, 60, 77
2, 35640, Note_on_c, 0, 64, 73
2, 35640, Note_on_c, 0, 53, 79
2, 35712, Note_on_c, 0, 64, 0
2, 35715, Note_on_c, 0, 57, 0
2, 35715, Note_on_c, 0, 60, 0
2, 35715, Note_on_c, 0, 53, 0
2, 35715, Control_c, 0, 123, 0
2, 35732, Note_on_c, 0, 57, 76
2, 35732, Note_on_c, 0, 53, 66
2, 35732, Note_on_c, 0, 60, 77
2, 35734, Note_on_c, 0, 64, 67
2, 35745, Note_on_c, 0, 64, 0
2, 35748, Note_on_c, 0, 57, 0
2, 35748, Note_on_c, 0, 53, 0
2, 35748, Note_on_c, 0, 60, 0
2, 35748, Control_c, 0, 123, 0
2, 35819, Note_on_c, 0, 57, 88
2, 35819, Note_on_c, 0, 60, 88
2, 35820, Note_on_c, 0, 53, 86
2, 35820, Note_on_c, 0, 64, 82
2, 36014, Note_on_c, 0, 57, 0
2, 36014, Note_on_c, 0, 53, 0
2, 36014, Note_on_c, 0, 64, 0
2, 36016, Note_on_c, 0, 60, 0
2, 36016, Control_c, 0, 123, 0
2, 36034, Note_on_c, 0, 57, 66
2, 36034, Note_on_c, 0, 60, 69
2, 36034, Note_on_c, 0, 53, 65
2, 36036, Note_on_c, 0, 64, 64
2, 36051, Note_on_c, 0, 64, 0
2, 36052, Note_on_c, 0, 57, 0
2, 36052, Note_on_c, 0, 53, 0
2, 36054, Note_on_c, 0, 60, 0
2, 36054, Control_c, 0, 123, 0
2, 36123, Note_on_c, 0, 57, 79
2, 36123, Note_on_c, 0, 60, 80
2, 36123, Note_on_c, 0, 64, 76
2, 36124, Note_on_c, 0, 53, 82
2, 36193, Note_on_c, 0, 57, 0
2, 36194, Note_on_c, 0, 60, 0
2, 36194, Note_on_c, 0, 64, 0
2, 36194, Note_on_c, 0, 53, 0
2, 36194, Control_c, 0, 123, 0
2, 36213, Note_on_c, 0, 57, 68
2, 36214, Note_on_c, 0, 53, 66
2, 36214, Note_on_c, 0, 60, 70
2, 36216, Note_on_c, 0, 64, 61
2, 36233, Note_on_c, 0, 60, 0
2, 36233, Note_on_c, 0, 64, 0
2, 36234, Note_on_c, 0, 57, 0
2, 36235, Note_on_c, 0, 53, 0
2, 36235, Control_c, 0, 123, 0
2, 36298, Note_on_c, 0, 57, 82
2, 36298, Note_on_c, 0, 60, 88
2, 36299, Note_on_c, 0, 64, 77
2, 36299, Note_on_c, 0, 53, 86
2, 36469, Note_on_c, 0, 53, 0
2, 36471, Note_on_c, 0, 57, 0
2, 36471, Note_on_c, 0, 60, 0
2, 36481, Note_on_c, 0, 64, 0
2, 36481, Control_c, 0, 123, 0
2, 36511, Note_on_c, 0, 55, 68
2, 36511, Note_on_c, 0, 58, 49
2, 36513, Note_on_c, 0, 62, 48
2, 36513, Note_on_c, 0, 65, 42
2, 36524, Note_on_c, 0, 58, 0
2, 36524, Note_on_c, 0, 62, 0
2, 36524, Note_on_c, 0, 65, 0
2, 36528, Note_on_c, 0, 55, 0
2, 36528, Control_c, 0, 123, 0
2, 36598, Note_on_c, 0, 58, 80
2, 36599, Note_on_c, 0, 62, 82
2, 36600, Note_on_c, 0, 55, 90
2, 36601, Note_on_c, 0, 65, 82
2, 36669, Note_on_c, 0, 58, 0
2, 36669, Note_on_c, 0, 62, 0
2, 36669, Note_on_c, 0, 55, 0
2, 36671, Note_on_c, 0, 65, 0
2, 36671, Control_c, 0, 123, 0
2, 36692, Note_on_c, 0, 65, 56
2, 36692, Note_on_c, 0, 58, 46
2, 36694, Note_on_c, 0, 55, 54
2, 36694, Note_on_c, 0, 62, 53
2, 36702, Note_on_c, 0, 58, 0
2, 36702, Note_on_c, 0, 62, 0
2, 36704, Note_on_c, 0, 65, 0
2, 36704, Note_on_c, 0, 55, 0
2, 36704, Control_c, 0, 123, 0
2, 36778, Note_on_c, 0, 58, 95
2, 36778, Note_on_c, 0, 62, 92
2, 36778, Note_on_c, 0, 65, 88
2, 36779, Note_on_c, 0, 55, 97
2, 36781, Note_on_c, 0, 64, 73
2, 36786, Note_on_c, 0, 64, 0
2, 36969, Note_on_c, 0, 58, 0
2, 36969, Note_on_c, 0, 55, 0
2, 36972, Note_on_c, 0, 62, 0
2, 36972, Note_on_c, 0, 65, 0
2, 36972, Control_c, 0, 123, 0
2, 36996, Note_on_c, 0, 65, 56
2, 36996, Note_on_c, 0, 58, 51
2, 36997, Note_on_c, 0, 62, 55
2, 36997, Note_on_c, 0, 55, 51
2, 37011, Note_on_c, 0, 65, 0
2, 37011, Note_on_c, 0, 58, 0
2, 37011, Note_on_c, 0, 62, 0
2, 37011, Note_on_c, 0, 55, 0
2, 37011, Control_c, 0, 123, 0
2, 37076, Note_on_c, 0, 62, 79
2, 37076, Note_on_c, 0, 58, 73
2, 37077, Note_on_c, 0, 65, 82
2, 37077, Note_on_c, 0, 55, 82
2, 37147, Note_on_c, 0, 58, 0
2, 37149, Note_on_c, 0, 62, 0
2, 37149, Note_on_c, 0, 65, 0
2, 37149, Note_on_c, 0, 55, 0
2, 37149, Control_c, 0, 123, 0
2, 37168, Note_on_c, 0, 58, 58
2, 37170, Note_on_c, 0, 62, 57
2, 37172, Note_on_c, 0, 55, 51
2, 37172, Note_on_c, 0, 65, 50
2, 37182, Note_on_c, 0, 58, 0
2, 37182, Note_on_c, 0, 62, 0
2, 37182, Note_on_c, 0, 55, 0
2, 37182, Note_on_c, 0, 65, 0
2, 37182, Control_c, 0, 123, 0
2, 37257, Note_on_c, 0, 58, 86
2, 37258, Note_on_c, 0, 55, 88
2, 37258, Note_on_c, 0, 62, 88
2, 37258, Note_on_c, 0, 65, 86
2, 37418, Note_on_c, 0, 65, 0
2, 37421, Note_on_c, 0, 62, 0
2, 37427, Note_on_c, 0, 58, 0
2, 37435, Note_on_c, 0, 55, 0
2, 37435, Control_c, 0, 123, 0
2, 37470, Note_on_c, 0, 57, 72
2, 37471, Note_on_c, 0, 64, 62
2, 37471, Note_on_c, 0, 53, 66
2, 37473, Note_on_c, 0, 60, 57
2, 37486, Note_on_c, 0, 64, 0
2, 37488, Note_on_c, 0, 57, 0
2, 37488, Note_on_c, 0, 53, 0
2, 37488, Note_on_c, 0, 60, 0
2, 37488, Control_c, 0, 123, 0
2, 37556, Note_on_c, 0, 64, 77
2, 37556, Note_on_c, 0, 60, 84
2, 37557, Note_on_c, 0, 57, 84
2, 37559, Note_on_c, 0, 53, 77
2, 37630, Note_on_c, 0, 64, 0
2, 37630, Note_on_c, 0, 60, 0
2, 37630, Note_on_c, 0, 57, 0
2, 37632, Note_on_c, 0, 53, 0
2, 37632, Control_c, 0, 123, 0
2, 37648, Note_on_c, 0, 57, 73
2, 37649, Note_on_c, 0, 53, 62
2, 37649, Note_on_c, 0, 60, 77
2, 37651, Note_on_c, 0, 64, 66
2, 37662, Note_on_c, 0, 64, 0
2, 37665, Note_on_c, 0, 60, 0
2, 37666, Note_on_c, 0, 57, 0
2, 37666, Note_on_c, 0, 53, 0
2, 37667, Control_c, 0, 123, 0
2, 37734, Note_on_c, 0, 57, 82
2, 37734, Note_on_c, 0, 60, 84
2, 37735, Note_on_c, 0, 64, 77
2, 37735, Note_on_c, 0, 53, 76
2, 37938, Note_on_c, 0, 64, 0
2, 37938, Note_on_c, 0, 53, 0
2, 37940, Note_on_c, 0, 57, 0
2, 37940, Note_on_c, 0, 60, 0
2, 37940, Control_c, 0, 123, 0
2, 37956, Note_on_c, 0, 60, 70
2, 37956, Note_on_c, 0, 57, 65
2, 37957, Note_on_c, 0, 53, 60
2, 37957, Note_on_c, 0, 64, 63
2, 37971, Note_on_c, 0, 64, 0
2, 37973, Note_on_c, 0, 57, 0
2, 37973, Note_on_c, 0, 53, 0
2, 37974, Note_on_c, 0, 60, 0
2, 37974, Control_c, 0, 123, 0
2, 38036, Note_on_c, 0, 57, 84
2, 38036, Note_on_c, 0, 60, 84
2, 38037, Note_on_c, 0, 64, 82
2, 38037, Note_on_c, 0, 53, 77
2, 38108, Note_on_c, 0, 64, 0
2, 38109, Note_on_c, 0, 57, 0
2, 38109, Note_on_c, 0, 60, 0
2, 38111, Note_on_c, 0, 53, 0
2, 38111, Control_c, 0, 123, 0
2, 38127, Note_on_c, 0, 57, 60
2, 38127, Note_on_c, 0, 53, 54
2, 38129, Note_on_c, 0, 60, 65
2, 38129, Note_on_c, 0, 64, 56
2, 38143, Note_on_c, 0, 60, 0
2, 38143, Note_on_c, 0, 64, 0
2, 38145, Note_on_c, 0, 57, 0
2, 38145, Note_on_c, 0, 53, 0
2, 38145, Control_c, 0, 123, 0
2, 38214, Note_on_c, 0, 57, 82
2, 38215, Note_on_c, 0, 60, 88
2, 38215, Note_on_c, 0, 64, 76
2, 38215, Note_on_c, 0, 53, 77
2, 38400, Note_on_c, 0, 57, 0
2, 38400, Note_on_c, 0, 53, 0
2, 38402, Note_on_c, 0, 60, 0
2, 38405, Note_on_c, 0, 64, 0
2, 38405, Control_c, 0, 123, 0
2, 38435, Note_on_c, 0, 62, 71
2, 38435, Note_on_c, 0, 58, 59
2, 38435, Note_on_c, 0, 55, 73
2, 38436, Note_on_c, 0, 65, 47
2, 38447, Note_on_c, 0, 58, 0
2, 38447, Note_on_c, 0, 65, 0
2, 38450, Note_on_c, 0, 62, 0
2, 38452, Note_on_c, 0, 55, 0
2, 38452, Control_c, 0, 123, 0
2, 38515, Note_on_c, 0, 58, 75
2, 38517, Note_on_c, 0, 55, 82
2, 38517, Note_on_c, 0, 62, 80
2, 38517, Note_on_c, 0, 65, 79
2, 38590, Note_on_c, 0, 58, 0
2, 38590, Note_on_c, 0, 55, 0
2, 38590, Note_on_c, 0, 62, 0
2, 38592, Note_on_c, 0, 65, 0
2, 38592, Control_c, 0, 123, 0
2, 38607, Note_on_c, 0, 58, 57
2, 38609, Note_on_c, 0, 65, 57
2, 38611, Note_on_c, 0, 55, 49
2, 38611, Note_on_c, 0, 62, 59
2, 38622, Note_on_c, 0, 58, 0
2, 38622, Note_on_c, 0, 55, 0
2, 38623, Note_on_c, 0, 62, 0
2, 38624, Note_on_c, 0, 65, 0
2, 38624, Control_c, 0, 123, 0
2, 38696, Note_on_c, 0, 58, 83
2, 38698, Note_on_c, 0, 62, 86
2, 38698, Note_on_c, 0, 65, 84
2, 38698, Note_on_c, 0, 55, 92
2, 38889, Note_on_c, 0, 58, 0
2, 38889, Note_on_c, 0, 65, 0
2, 38889, Note_on_c, 0, 55, 0
2, 38891, Note_on_c, 0, 62, 0
2, 38891, Control_c, 0, 123, 0
2, 38913, Note_on_c, 0, 58, 49
2, 38915, Note_on_c, 0, 55, 50
2, 38917, Note_on_c, 0, 62, 61
2, 38926, Note_on_c, 0, 58, 0
2, 38926, Note_on_c, 0, 55, 0
2, 38926, Note_on_c, 0, 62, 0
2, 38926, Control_c, 0, 123, 0
2, 39004, Note_on_c, 0, 65, 72
2, 39005, Note_on_c, 0, 58, 67
2, 39005, Note_on_c, 0, 62, 72
2, 39005, Note_on_c, 0, 55, 73
2, 39069, Note_on_c, 0, 58, 0
2, 39072, Note_on_c, 0, 55, 0
2, 39074, Note_on_c, 0, 62, 0
2, 39079, Note_on_c, 0, 65, 0
2, 39079, Control_c, 0, 123, 0
2, 39098, Note_on_c, 0, 65, 64
2, 39100, Note_on_c, 0, 55, 63
2, 39100, Note_on_c, 0, 58, 59
2, 39100, Note_on_c, 0, 62, 62
2, 39113, Note_on_c, 0, 58, 0
2, 39114, Note_on_c, 0, 55, 0
2, 39116, Note_on_c, 0, 62, 0
2, 39119, Note_on_c, 0, 65, 0
2, 39119, Control_c, 0, 123, 0
2, 39178, Note_on_c, 0, 50, 109
2, 39205, Note_on_c, 0, 50, 0
2, 39205, Control_c, 0, 123, 0
2, 39239, Note_on_c, 0, 53, 113
2, 39262, Note_on_c, 0, 53, 0
2, 39262, Control_c, 0, 123, 0
2, 39299, Note_on_c, 0, 57, 97
2, 39329, Note_on_c, 0, 57, 0
2, 39329, Control_c, 0, 123, 0
2, 39660, Note_on_c, 0, 50, 113
2, 39681, Control_c, 0, 123, 0
2, 39688, Note_on_c, 0, 50, 0
2, 39720, Note_on_c, 0, 53, 109
2, 39738, Control_c, 0, 123, 0
2, 39743, Note_on_c, 0, 53, 0
2, 39780, Note_on_c, 0, 57, 100
2, 39800, Control_c, 0, 123, 0
2, 39805, Note_on_c, 0, 57, 0
2, 40140, Note_on_c, 0, 50, 109
2, 40173, Note_on_c, 0, 50, 0
2, 40174, Control_c, 0, 123, 0
2, 40200, Note_on_c, 0, 53, 103
2, 40225, Note_on_c, 0, 53, 0
2, 40227, Control_c, 0, 123, 0
2, 40260, Note_on_c, 0, 55, 109
2, 40281, Control_c, 0, 123, 0
2, 40282, Note_on_c, 0, 55, 0
2, 40620, Note_on_c, 0, 50, 95
2, 40655, Control_c, 0, 123, 0
2, 40656, Note_on_c, 0, 50, 0
2, 40680, Note_on_c, 0, 53, 95
2, 40703, Control_c, 0, 123, 0
2, 40706, Note_on_c, 0, 53, 0
2, 40740, Note_on_c, 0, 55, 100
2, 40759, Control_c, 0, 123, 0
2, 40764, Note_on_c, 0, 55, 0
2, 40800, Note_on_c, 0, 57, 100
2, 40920, Note_on_c, 0, 55, 106
2, 40930, Note_on_c, 0, 57, 0
2, 40965, Control_c, 0, 123, 0
2, 40967, Note_on_c, 0, 55, 0
2, 40980, Note_on_c, 0, 53, 97
2, 41007, Control_c, 0, 123, 0
2, 41011, Note_on_c, 0, 53, 0
2, 41040, Note_on_c, 0, 55, 109
2, 41083, Control_c, 0, 123, 0
2, 41084, Note_on_c, 0, 55, 0
2, 41100, Note_on_c, 0, 50, 97
2, 41125, Control_c, 0, 123, 0
2, 41128, Note_on_c, 0, 50, 0
2, 41160, Note_on_c, 0, 53, 106
2, 41184, Note_on_c, 0, 53, 0
2, 41184, Control_c, 0, 123, 0
2, 41220, Note_on_c, 0, 57, 100
2, 41246, Control_c, 0, 123, 0
2, 41247, Note_on_c, 0, 57, 0
2, 41580, Note_on_c, 0, 50, 109
2, 41609, Control_c, 0, 123, 0
2, 41612, Note_on_c, 0, 50, 0
2, 41640, Note_on_c, 0, 53, 106
2, 41660, Control_c, 0, 123, 0
2, 41664, Note_on_c, 0, 53, 0
2, 41700, Note_on_c, 0, 57, 103
2, 41723, Control_c, 0, 123, 0
2, 41726, Note_on_c, 0, 57, 0
2, 42060, Note_on_c, 0, 50, 100
2, 42088, Control_c, 0, 123, 0
2, 42089, Note_on_c, 0, 50, 0
2, 42120, Note_on_c, 0, 53, 88
2, 42142, Control_c, 0, 123, 0
2, 42145, Note_on_c, 0, 53, 0
2, 42180, Note_on_c, 0, 55, 106
2, 42202, Control_c, 0, 123, 0
2, 42205, Note_on_c, 0, 55, 0
2, 42540, Note_on_c, 0, 50, 97
2, 42573, Control_c, 0, 123, 0
2, 42577, Note_on_c, 0, 50, 0
2, 42600, Note_on_c, 0, 53, 86
2, 42620, Control_c, 0, 123, 0
2, 42625, Note_on_c, 0, 53, 0
2, 42660, Note_on_c, 0, 55, 86
2, 42678, Control_c, 0, 123, 0
2, 42685, Note_on_c, 0, 55, 0
2, 42720, Note_on_c, 0, 57, 97
2, 42840, Note_on_c, 0, 55, 80
2, 42845, Note_on_c, 0, 57, 0
2, 42880, Control_c, 0, 123, 0
2, 42887, Note_on_c, 0, 55, 0
2, 42900, Note_on_c, 0, 53, 84
2, 42920, Control_c, 0, 123, 0
2, 42925, Note_on_c, 0, 53, 0
2, 42960, Note_on_c, 0, 55, 97
2, 42982, Control_c, 0, 123, 0
2, 42985, Note_on_c, 0, 55, 0
2, 43020, Note_on_c, 0, 53, 122
2, 43674, Control_c, 0, 123, 0
2, 43675, Note_on_c, 0, 53, 0
2, 43680, Control_c, 0, 123, 0
2, 43714, Note_on_c, 0, 57, 64
2, 43715, Note_on_c, 0, 60, 59
2, 43716, Note_on_c, 0, 53, 55
2, 43719, Note_on_c, 0, 64, 40
2, 43725, Note_on_c, 0, 64, 0
2, 43727, Note_on_c, 0, 60, 0
2, 43729, Note_on_c, 0, 57, 0
2, 43729, Note_on_c, 0, 53, 0
2, 43729, Control_c, 0, 123, 0
2, 43801, Note_on_c, 0, 57, 97
2, 43801, Note_on_c, 0, 64, 86
2, 43801, Note_on_c, 0, 60, 97
2, 43802, Note_on_c, 0, 53, 86
2, 43864, Note_on_c, 0, 57, 0
2, 43864, Note_on_c, 0, 53, 0
2, 43866, Note_on_c, 0, 64, 0
2, 43866, Note_on_c, 0, 60, 0
2, 43866, Control_c, 0, 123, 0
2, 43889, Note_on_c, 0, 57, 58
2, 43890, Note_on_c, 0, 60, 62
2, 43891, Note_on_c, 0, 53, 56
2, 43891, Note_on_c, 0, 64, 48
2, 43902, Note_on_c, 0, 64, 0
2, 43905, Note_on_c, 0, 60, 0
2, 43907, Note_on_c, 0, 53, 0
2, 43908, Note_on_c, 0, 57, 0
2, 43908, Control_c, 0, 123, 0
2, 43976, Note_on_c, 0, 60, 73
2, 43976, Note_on_c, 0, 64, 68
2, 43977, Note_on_c, 0, 57, 77
2, 43977, Note_on_c, 0, 53, 73
2, 44169, Note_on_c, 0, 64, 0
2, 44169, Note_on_c, 0, 57, 0
2, 44169, Note_on_c, 0, 53, 0
2, 44171, Note_on_c, 0, 60, 0
2, 44171, Control_c, 0, 123, 0
2, 44188, Note_on_c, 0, 60, 58
2, 44188, Note_on_c, 0, 64, 52
2, 44188, Note_on_c, 0, 53, 45
2, 44189, Note_on_c, 0, 57, 58
2, 44205, Note_on_c, 0, 64, 0
2, 44205, Note_on_c, 0, 53, 0
2, 44206, Note_on_c, 0, 60, 0
2, 44206, Note_on_c, 0, 57, 0
2, 44206, Control_c, 0, 123, 0
2, 44278, Note_on_c, 0, 57, 95
2, 44278, Note_on_c, 0, 60, 97
2, 44279, Note_on_c, 0, 64, 88
2, 44281, Note_on_c, 0, 53, 84
2, 44336, Note_on_c, 0, 64, 0
2, 44337, Note_on_c, 0, 60, 0
2, 44339, Note_on_c, 0, 53, 0
2, 44342, Note_on_c, 0, 57, 0
2, 44342, Control_c, 0, 123, 0
2, 44367, Note_on_c, 0, 57, 56
2, 44369, Note_on_c, 0, 60, 60
2, 44369, Note_on_c, 0, 53, 50
2, 44370, Note_on_c, 0, 64, 51
2, 44385, Note_on_c, 0, 64, 0
2, 44387, Note_on_c, 0, 60, 0
2, 44387, Note_on_c, 0, 53, 0
2, 44390, Note_on_c, 0, 57, 0
2, 44390, Control_c, 0, 123, 0
2, 44462, Note_on_c, 0, 57, 90
2, 44462, Note_on_c, 0, 64, 84
2, 44463, Note_on_c, 0, 60, 97
2, 44463, Note_on_c, 0, 53, 86
2, 44630, Note_on_c, 0, 57, 0
2, 44630, Note_on_c, 0, 53, 0
2, 44635, Note_on_c, 0, 60, 0
2, 44639, Note_on_c, 0, 64, 0
2, 44639, Control_c, 0, 123, 0
2, 44673, Note_on_c, 0, 55, 68
2, 44674, Note_on_c, 0, 58, 41
2, 44676, Note_on_c, 0, 62, 41
2, 44683, Note_on_c, 0, 58, 0
2, 44684, Note_on_c, 0, 62, 0
2, 44688, Note_on_c, 0, 55, 0
2, 44688, Control_c, 0, 123, 0
2, 44760, Note_on_c, 0, 58, 83
2, 44760, Note_on_c, 0, 62, 82
2, 44761, Note_on_c, 0, 55, 84
2, 44761, Note_on_c, 0, 65, 79
2, 44827, Note_on_c, 0, 55, 0
2, 44828, Note_on_c, 0, 58, 0
2, 44830, Note_on_c, 0, 62, 0
2, 44830, Note_on_c, 0, 65, 0
2, 44830, Control_c, 0, 123, 0
2, 44851, Note_on_c, 0, 58, 47
2, 44851, Note_on_c, 0, 62, 53
2, 44852, Note_on_c, 0, 65, 60
2, 44852, Note_on_c, 0, 55, 50
2, 44860, Note_on_c, 0, 58, 0
2, 44860, Note_on_c, 0, 55, 0
2, 44862, Note_on_c, 0, 65, 0
2, 44863, Note_on_c, 0, 62, 0
2, 44863, Control_c, 0, 123, 0
2, 44938, Note_on_c, 0, 58, 83
2, 44939, Note_on_c, 0, 62, 90
2, 44939, Note_on_c, 0, 55, 86
2, 44941, Note_on_c, 0, 65, 84
2, 45124, Note_on_c, 0, 58, 0
2, 45124, Note_on_c, 0, 65, 0
2, 45125, Note_on_c, 0, 55, 0
2, 45126, Note_on_c, 0, 62, 0
2, 45126, Control_c, 0, 123, 0
2, 45150, Note_on_c, 0, 58, 51
2, 45153, Note_on_c, 0, 62, 51
2, 45154, Note_on_c, 0, 65, 51
2, 45154, Note_on_c, 0, 55, 58
2, 45163, Note_on_c, 0, 65, 0
2, 45165, Note_on_c, 0, 58, 0
2, 45165, Note_on_c, 0, 62, 0
2, 45165, Note_on_c, 0, 55, 0
2, 45165, Control_c, 0, 123, 0
2, 45239, Note_on_c, 0, 58, 77
2, 45241, Note_on_c, 0, 62, 80
2, 45241, Note_on_c, 0, 65, 80
2, 45241, Note_on_c, 0, 55, 80
2, 45305, Note_on_c, 0, 58, 0
2, 45305, Note_on_c, 0, 65, 0
2, 45307, Note_on_c, 0, 62, 0
2, 45307, Note_on_c, 0, 55, 0
2, 45307, Control_c, 0, 123, 0
2, 45328, Note_on_c, 0, 58, 63
2, 45328, Note_on_c, 0, 55, 66
2, 45330, Note_on_c, 0, 62, 56
2, 45332, Note_on_c, 0, 65, 56
2, 45340, Note_on_c, 0, 65, 0
2, 45342, Note_on_c, 0, 58, 0
2, 45342, Note_on_c, 0, 55, 0
2, 45342, Note_on_c, 0, 62, 0
2, 45342, Control_c, 0, 123, 0
2, 45415, Note_on_c, 0, 58, 95
2, 45416, Note_on_c, 0, 62, 97
2, 45416, Note_on_c, 0, 65, 90
2, 45417, Note_on_c, 0, 55, 95
2, 45590, Note_on_c, 0, 65, 0
2, 45596, Note_on_c, 0, 58, 0
2, 45596, Note_on_c, 0, 62, 0
2, 45600, Note_on_c, 0, 55, 0
2, 45600, Control_c, 0, 123, 0
2, 45632, Note_on_c, 0, 57, 70
2, 45632, Note_on_c, 0, 60, 69
2, 45632, Note_on_c, 0, 64, 60
2, 45633, Note_on_c, 0, 53, 62
2, 45646, Note_on_c, 0, 64, 0
2, 45648, Note_on_c, 0, 57, 0
2, 45648, Note_on_c, 0, 60, 0
2, 45648, Note_on_c, 0, 53, 0
2, 45648, Control_c, 0, 123, 0
2, 45716, Note_on_c, 0, 57, 100
2, 45716, Note_on_c, 0, 64, 90
2, 45717, Note_on_c, 0, 60, 97
2, 45717, Note_on_c, 0, 53, 90
2, 45791, Note_on_c, 0, 64, 0
2, 45791, Note_on_c, 0, 60, 0
2, 45792, Note_on_c, 0, 57, 0
2, 45792, Note_on_c, 0, 53, 0
2, 45792, Control_c, 0, 123, 0
2, 45808, Note_on_c, 0, 57, 70
2, 45809, Note_on_c, 0, 60, 70
2, 45809, Note_on_c, 0, 53, 61
2, 45809, Note_on_c, 0, 64, 62
2, 45822, Note_on_c, 0, 64, 0
2, 45823, Note_on_c, 0, 60, 0
2, 45825, Note_on_c, 0, 57, 0
2, 45825, Note_on_c, 0, 53, 0
2, 45825, Control_c, 0, 123, 0
2, 45897, Note_on_c, 0, 57, 80
2, 45898, Note_on_c, 0, 60, 92
2, 45898, Note_on_c, 0, 64, 82
2, 45898, Note_on_c, 0, 53, 77
2, 46093, Note_on_c, 0, 64, 0
2, 46095, Note_on_c, 0, 57, 0
2, 46095, Note_on_c, 0, 53, 0
2, 46097, Note_on_c, 0, 60, 0
2, 46097, Control_c, 0, 123, 0
2, 46113, Note_on_c, 0, 57, 62
2, 46114, Note_on_c, 0, 60, 64
2, 46114, Note_on_c, 0, 53, 57
2, 46114, Note_on_c, 0, 64, 62
2, 46131, Note_on_c, 0, 64, 0
2, 46133, Note_on_c, 0, 53, 0
2, 46134, Note_on_c, 0, 57, 0
2, 46134, Note_on_c, 0, 60, 0
2, 46135, Control_c, 0, 123, 0
2, 46199, Note_on_c, 0, 60, 86
2, 46200, Note_on_c, 0, 57, 88
2, 46200, Note_on_c, 0, 64, 77
2, 46200, Note_on_c, 0, 53, 82
2, 46275, Note_on_c, 0, 60, 0
2, 46275, Note_on_c, 0, 57, 0
2, 46275, Note_on_c, 0, 64, 0
2, 46275, Note_on_c, 0, 53, 0
2, 46275, Control_c, 0, 123, 0
2, 46292, Note_on_c, 0, 57, 57
2, 46292, Note_on_c, 0, 60, 56
2, 46294, Note_on_c, 0, 53, 53
2, 46296, Note_on_c, 0, 64, 51
2, 46308, Note_on_c, 0, 64, 0
2, 46309, Note_on_c, 0, 60, 0
2, 46310, Note_on_c, 0, 57, 0
2, 46310, Note_on_c, 0, 53, 0
2, 46310, Control_c, 0, 123, 0
2, 46382, Note_on_c, 0, 57, 86
2, 46382, Note_on_c, 0, 60, 88
2, 46382, Note_on_c, 0, 64, 84
2, 46383, Note_on_c, 0, 53, 86
2, 46554, Note_on_c, 0, 53, 0
2, 46555, Note_on_c, 0, 57, 0
2, 46558, Note_on_c, 0, 60, 0
2, 46561, Note_on_c, 0, 64, 0
2, 46561, Control_c, 0, 123, 0
2, 46589, Note_on_c, 0, 55, 74
2, 46589, Note_on_c, 0, 58, 57
2, 46590, Note_on_c, 0, 62, 56
2, 46601, Note_on_c, 0, 62, 0
2, 46602, Note_on_c, 0, 55, 0
2, 46602, Note_on_c, 0, 58, 0
2, 46602, Control_c, 0, 123, 0
2, 46674, Note_on_c, 0, 58, 86
2, 46675, Note_on_c, 0, 62, 80
2, 46677, Note_on_c, 0, 65, 77
2, 46677, Note_on_c, 0, 55, 86
2, 46679, Note_on_c, 0, 64, 77
2, 46682, Note_on_c, 0, 64, 0
2, 46744, Note_on_c, 0, 55, 0
2, 46747, Note_on_c, 0, 58, 0
2, 46748, Note_on_c, 0, 62, 0
2, 46748, Note_on_c, 0, 65, 0
2, 46748, Control_c, 0, 123, 0
2, 46766, Note_on_c, 0, 58, 58
2, 46768, Note_on_c, 0, 65, 66
2, 46768, Note_on_c, 0, 62, 61
2, 46768, Note_on_c, 0, 55, 62
2, 46779, Note_on_c, 0, 55, 0
2, 46781, Note_on_c, 0, 58, 0
2, 46782, Note_on_c, 0, 65, 0
2, 46782, Note_on_c, 0, 62, 0
2, 46783, Control_c, 0, 123, 0
2, 46858, Note_on_c, 0, 58, 77
2, 46858, Note_on_c, 0, 65, 84
2, 46858, Note_on_c, 0, 55, 88
2, 46858, Note_on_c, 0, 62, 80
2, 47048, Note_on_c, 0, 58, 0
2, 47049, Note_on_c, 0, 65, 0
2, 47050, Note_on_c, 0, 55, 0
2, 47051, Note_on_c, 0, 62, 0
2, 47051, Control_c, 0, 123, 0
2, 47072, Note_on_c, 0, 58, 59
2, 47074, Note_on_c, 0, 55, 56
2, 47074, Note_on_c, 0, 62, 62
2, 47076, Note_on_c, 0, 65, 57
2, 47087, Note_on_c, 0, 65, 0
2, 47088, Note_on_c, 0, 58, 0
2, 47090, Note_on_c, 0, 55, 0
2, 47090, Note_on_c, 0, 62, 0
2, 47090, Control_c, 0, 123, 0
2, 47159, Note_on_c, 0, 58, 83
2, 47160, Note_on_c, 0, 62, 84
2, 47160, Note_on_c, 0, 55, 86
2, 47160, Note_on_c, 0, 65, 84
2, 47229, Note_on_c, 0, 58, 0
2, 47229, Note_on_c, 0, 62, 0
2, 47229, Note_on_c, 0, 55, 0
2, 47231, Note_on_c, 0, 65, 0
2, 47231, Control_c, 0, 123, 0
2, 47250, Note_on_c, 0, 58, 63
2, 47250, Note_on_c, 0, 55, 67
2, 47251, Note_on_c, 0, 65, 65
2, 47251, Note_on_c, 0, 62, 60
2, 47263, Note_on_c, 0, 58, 0
2, 47264, Note_on_c, 0, 55, 0
2, 47265, Note_on_c, 0, 65, 0
2, 47265, Note_on_c, 0, 62, 0
2, 47265, Control_c, 0, 123, 0
2, 47336, Note_on_c, 0, 58, 83
2, 47336, Note_on_c, 0, 62, 84
2, 47337, Note_on_c, 0, 55, 90
2, 47337, Note_on_c, 0, 65, 84
2, 47493, Note_on_c, 0, 65, 0
2, 47504, Note_on_c, 0, 62, 0
2, 47508, Note_on_c, 0, 58, 0
2, 47514, Note_on_c, 0, 55, 0
2, 47514, Control_c, 0, 123, 0
2, 47555, Note_on_c, 0, 64, 63
2, 47555, Note_on_c, 0, 60, 73
2, 47556, Note_on_c, 0, 53, 67
2, 47556, Note_on_c, 0, 57, 67
2, 47570, Note_on_c, 0, 64, 0
2, 47571, Note_on_c, 0, 57, 0
2, 47573, Note_on_c, 0, 60, 0
2, 47573, Note_on_c, 0, 53, 0
2, 47573, Control_c, 0, 123, 0
2, 47639, Note_on_c, 0, 57, 84
2, 47640, Note_on_c, 0, 60, 77
2, 47640, Note_on_c, 0, 64, 73
2, 47640, Note_on_c, 0, 53, 79
2, 47712, Note_on_c, 0, 64, 0
2, 47715, Note_on_c, 0, 57, 0
2, 47715, Note_on_c, 0, 60, 0
2, 47715, Note_on_c, 0, 53, 0
2, 47715, Control_c, 0, 123, 0
2, 47732, Note_on_c, 0, 57, 76
2, 47732, Note_on_c, 0, 53, 66
2, 47732, Note_on_c, 0, 60, 77
2, 47734, Note_on_c, 0, 64, 67
2, 47745, Note_on_c, 0, 64, 0
2, 47748, Note_on_c, 0, 57, 0
2, 47748, Note_on_c, 0, 53, 0
2, 47748, Note_on_c, 0, 60, 0
2, 47748, Control_c, 0, 123, 0
2, 47819, Note_on_c, 0, 57, 88
2, 47819, Note_on_c, 0, 60, 88
2, 47820, Note_on_c, 0, 53, 86
2, 47820, Note_on_c, 0, 64, 82
2, 48014, Note_on_c, 0, 57, 0
2, 48014, Note_on_c, 0, 53, 0
2, 48014, Note_on_c, 0, 64, 0
2, 48016, Note_on_c, 0, 60, 0
2, 48016, Control_c, 0, 123, 0
2, 48034, Note_on_c, 0, 57, 66
2, 48034, Note_on_c, 0, 60, 69
2, 48034, Note_on_c, 0, 53, 65
2, 48036, Note_on_c, 0, 64, 64
2, 48051, Note_on_c, 0, 64, 0
2, 48052, Note_on_c, 0, 57, 0
2, 48052, Note_on_c, 0, 53, 0
2, 48054, Note_on_c, 0, 60, 0
2, 48054, Control_c, 0, 123, 0
2, 48123, Note_on_c, 0, 57, 79
2, 48123, Note_on_c, 0, 60, 80
2, 48123, Note_on_c, 0, 64, 76
2, 48124, Note_on_c, 0, 53, 82
2, 48193, Note_on_c, 0, 57, 0
2, 48194, Note_on_c, 0, 60, 0
2, 48194, Note_on_c, 0, 64, 0
2, 48194, Note_on_c, 0, 53, 0
2, 48194, Control_c, 0, 123, 0
2, 48213, Note_on_c, 0, 57, 68
2, 48214, Note_on_c, 0, 53, 66
2, 48214, Note_on_c, 0, 60, 70
2, 48216, Note_on_c, 0, 64, 61
2, 48233, Note_on_c, 0, 60, 0
2, 48233, Note_on_c, 0, 64, 0
2, 48234, Note_on_c, 0, 57, 0
2, 48235, Note_on_c, 0, 53, 0
2, 48235, Control_c, 0, 123, 0
2, 48298, Note_on_c, 0, 57, 82
2, 48298, Note_on_c, 0, 60, 88
2, 48299, Note_on_c, 0, 64, 77
2, 48299, Note_on_c, 0, 53, 86
2, 48469, Note_on_c, 0, 53, 0
2, 48471, Note_on_c, 0, 57, 0
2, 48471, Note_on_c, 0, 60, 0
2, 48481, Note_on_c, 0, 64, 0
2, 48481, Control_c, 0, 123, 0
2, 48511, Note_on_c, 0, 55, 68
2, 48511, Note_on_c, 0, 58, 49
2, 48513, Note_on_c, 0, 62, 48
2, 48513, Note_on_c, 0, 65, 42
2, 48524, Note_on_c, 0, 58, 0
2, 48524, Note_on_c, 0, 62, 0
2, 48524, Note_on_c, 0, 65, 0
2, 48528, Note_on_c, 0, 55, 0
2, 48528, Control_c, 0, 123, 0
2, 48598, Note_on_c, 0, 58, 80
2, 48599, Note_on_c, 0, 62, 82
2, 48600, Note_on_c, 0, 55, 90
2, 48601, Note_on_c, 0, 65, 82
2, 48669, Note_on_c, 0, 58, 0
2, 48669, Note_on_c, 0, 62, 0
2, 48669, Note_on_c, 0, 55, 0
2, 48671, Note_on_c, 0, 65, 0
2, 48671, Control_c, 0, 123, 0
2, 48692, Note_on_c, 0, 65, 56
2, 48692, Note_on_c, 0, 58, 46
2, 48694, Note_on_c, 0, 55, 54
2, 48694, Note_on_c, 0, 62, 53
2, 48702, Note_on_c, 0, 58, 0
2, 48702, Note_on_c, 0, 62, 0
2, 48704, Note_on_c, 0, 65, 0
2, 48704, Note_on_c, 0, 55, 0
2, 48704, Control_c, 0, 123, 0
2, 48778, Note_on_c, 0, 58, 95
2, 48778, Note_on_c, 0, 62, 92
2, 48778, Note_on_c, 0, 65, 88
2, 48779, Note_on_c, 0, 55, 97
2, 48781, Note_on_c, 0, 64, 73
2, 48786, Note_on_c, 0, 64, 0
2, 48969, Note_on_c, 0, 58, 0
2, 48969, Note_on_c, 0, 55, 0
2, 48972, Note_on_c, 0, 62, 0
2, 48972, Note_on_c, 0, 65, 0
2, 48972, Control_c, 0, 123, 0
2, 48996, Note_on_c, 0, 65, 56
2, 48996, Note_on_c, 0, 58, 51
2, 48997, Note_on_c, 0, 62, 55
2, 48997, Note_on_c, 0, 55, 51
2, 49011, Note_on_c, 0, 65, 0
2, 49011, Note_on_c, 0, 58, 0
2, 49011, Note_on_c, 0, 62, 0
2, 49011, Note_on_c, 0, 55, 0
2, 49011, Control_c, 0, 123, 0
2, 49076, Note_on_c, 0, 62, 79
2, 49076, Note_on_c, 0, 58, 73
2, 49077, Note_on_c, 0, 65, 82
2, 49077, Note_on_c, 0, 55, 82
2, 49147, Note_on_c, 0, 58, 0
2, 49149, Note_on_c, 0, 62, 0
2, 49149, Note_on_c, 0, 65, 0
2, 49149, Note_on_c, 0, 55, 0
2, 49149, Control_c, 0, 123, 0
2, 49168, Note_on_c, 0, 58, 58
2, 49170, Note_on_c, 0, 62, 57
2, 49172, Note_on_c, 0, 55, 51
2, 49172, Note_on_c, 0, 65, 50
2, 49182, Note_on_c, 0, 58, 0
2, 49182, Note_on_c, 0, 62, 0
2, 49182, Note_on_c, 0, 55, 0
2, 49182, Note_on_c, 0, 65, 0
2, 49182, Control_c, 0, 123, 0
2, 49257, Note_on_c, 0, 58, 86
2, 49258, Note_on_c, 0, 55, 88
2, 49258, Note_on_c, 0, 62, 88
2, 49258, Note_on_c, 0, 65, 86
2, 49418, Note_on_c, 0, 65, 0
2, 49421, Note_on_c, 0, 62, 0
2, 49427, Note_on_c, 0, 58, 0
2, 49435, Note_on_c, 0, 55, 0
2, 49435, Control_c, 0, 123, 0
2, 49470, Note_on_c, 0, 57, 72
2, 49471, Note_on_c, 0, 64, 62
2, 49471, Note_on_c, 0, 53, 66
2, 49473, Note_on_c, 0, 60, 57
2, 49486, Note_on_c, 0, 64, 0
2, 49488, Note_on_c, 0, 57, 0
2, 49488, Note_on_c, 0, 53, 0
2, 49488, Note_on_c, 0, 60, 0
2, 49488, Control_c, 0, 123, 0
2, 49556, Note_on_c, 0, 64, 77
2, 49556, Note_on_c, 0, 60, 84
2, 49557, Note_on_c, 0, 57, 84
2, 49559, Note_on_c, 0, 53, 77
2, 49630, Note_on_c, 0, 64, 0
2, 49630, Note_on_c, 0, 60, 0
2, 49630, Note_on_c, 0, 57, 0
2, 49632, Note_on_c, 0, 53, 0
2, 49632, Control_c, 0, 123, 0
2, 49648, Note_on_c, 0, 57, 73
2, 49649, Note_on_c, 0, 53, 62
2, 49649, Note_on_c, 0, 60, 77
2, 49651, Note_on_c, 0, 64, 66
2, 49662, Note_on_c, 0, 64, 0
2, 49665, Note_on_c, 0, 60, 0
2, 49666, Note_on_c, 0, 57, 0
2, 49666, Note_on_c, 0, 53, 0
2, 49667, Control_c, 0, 123, 0
2, 49734, Note_on_c, 0, 57, 82
2, 49734, Note_on_c, 0, 60, 84
2, 49735, Note_on_c, 0, 64, 77
2, 49735, Note_on_c, 0, 53, 76
2, 49938, Note_on_c, 0, 64, 0
2, 49938, Note_on_c, 0, 53, 0
2, 49940, Note_on_c, 0, 57, 0
2, 49940, Note_on_c, 0, 60, 0
2, 49940, Control_c, 0, 123, 0
2, 49956, Note_on_c, 0, 60, 70
2, 49956, Note_on_c, 0, 57, 65
2, 49957, Note_on_c, 0, 53, 60
2, 49957, Note_on_c, 0, 64, 63
2, 49971, Note_on_c, 0, 64, 0
2, 49973, Note_on_c, 0, 57, 0
2, 49973, Note_on_c, 0, 53, 0
2, 49974, Note_on_c, 0, 60, 0
2, 49974, Control_c, 0, 123, 0
2, 50036, Note_on_c, 0, 57, 84
2, 50036, Note_on_c, 0, 60, 84
2, 50037, Note_on_c, 0, 64, 82
2, 50037, Note_on_c, 0, 53, 77
2, 50108, Note_on_c, 0, 64, 0
2, 50109, Note_on_c, 0, 57, 0
2, 50109, Note_on_c, 0, 60, 0
2, 50111, Note_on_c, 0, 53, 0
2, 50111, Control_c, 0, 123, 0
2, 50127, Note_on_c, 0, 57, 60
2, 50127, Note_on_c, 0, 53, 54
2, 50129, Note_on_c, 0, 60, 65
2, 50129, Note_on_c, 0, 64, 56
2, 50143, Note_on_c, 0, 60, 0
2, 50143, Note_on_c, 0, 64, 0
2, 50145, Note_on_c, 0, 57, 0
2, 50145, Note_on_c, 0, 53, 0
2, 50145, Control_c, 0, 123, 0
2, 50214, Note_on_c, 0, 57, 82
2, 50215, Note_on_c, 0, 60, 88
2, 50215, Note_on_c, 0, 64, 76
2, 50215, Note_on_c, 0, 53, 77
2, 50400, Note_on_c, 0, 57, 0
2, 50400, Note_on_c, 0, 53, 0
2, 50402, Note_on_c, 0, 60, 0
2, 50405, Note_on_c, 0, 64, 0
2, 50405, Control_c, 0, 123, 0
2, 50435, Note_on_c, 0, 62, 71
2, 50435, Note_on_c, 0, 58, 59
2, 50435, Note_on_c, 0, 55, 73
2, 50436, Note_on_c, 0, 65, 47
2, 50447, Note_on_c, 0, 58, 0
2, 50447, Note_on_c, 0, 65, 0
2, 50450, Note_on_c, 0, 62, 0
2, 50452, Note_on_c, 0, 55, 0
2, 50452, Control_c, 0, 123, 0
2, 50515, Note_on_c, 0, 58, 75
2, 50517, Note_on_c, 0, 55, 82
2, 50517, Note_on_c, 0, 62, 80
2, 50517, Note_on_c, 0, 65, 79
2, 50590, Note_on_c, 0, 58, 0
2, 50590, Note_on_c, 0, 55, 0
2, 50590, Note_on_c, 0, 62, 0
2, 50592, Note_on_c, 0, 65, 0
2, 50592, Control_c, 0, 123, 0
2, 50607, Note_on_c, 0, 58, 57
2, 50609, Note_on_c, 0, 65, 57
2, 50611, Note_on_c, 0, 55, 49
2, 50611, Note_on_c, 0, 62, 59
2, 50622, Note_on_c, 0, 58, 0
2, 50622, Note_on_c, 0, 55, 0
2, 50623, Note_on_c, 0, 62, 0
2, 50624, Note_on_c, 0, 65, 0
2, 50624, Control_c, 0, 123, 0
2, 50696, Note_on_c, 0, 58, 83
2, 50698, Note_on_c, 0, 62, 86
2, 50698, Note_on_c, 0, 65, 84
2, 50698, Note_on_c, 0, 55, 92
2, 50889, Note_on_c, 0, 58, 0
2, 50889, Note_on_c, 0, 65, 0
2, 50889, Note_on_c, 0, 55, 0
2, 50891, Note_on_c, 0, 62, 0
2, 50891, Control_c, 0, 123, 0
2, 50913, Note_on_c, 0, 58, 49
2, 50915, Note_on_c, 0, 55, 50
2, 50917, Note_on_c, 0, 62, 61
2, 50926, Note_on_c, 0, 58, 0
2, 50926, Note_on_c, 0, 55, 0
2, 50926, Note_on_c, 0, 62, 0
2, 50926, Control_c, 0, 123, 0
2, 51004, Note_on_c, 0, 65, 72
2, 51005, Note_on_c, 0, 58, 67
2, 51005, Note_on_c, 0, 62, 72
2, 51005, Note_on_c, 0, 55, 73
2, 51069, Note_on_c, 0, 58, 0
2, 51072, Note_on_c, 0, 55, 0
2, 51074, Note_on_c, 0, 62, 0
2, 51079, Note_on_c, 0, 65, 0
2, 51079, Control_c, 0, 123, 0
2, 51098, Note_on_c, 0, 65, 64
2, 51100, Note_on_c, 0, 55, 63
2, 51100, Note_on_c, 0, 58, 59
2, 51100, Note_on_c, 0, 62, 62
2, 51113, Note_on_c, 0, 58, 0
2, 51114, Note_on_c, 0, 55, 0
2, 51116, Note_on_c, 0, 62, 0
2, 51119, Note_on_c, 0, 65, 0
2, 51119, Control_c, 0, 123, 0
2, 51178, Note_on_c, 0, 50, 109
2, 51205, Note_on_c, 0, 50, 0
2, 51205, Control_c, 0, 123, 0
2, 51239, Note_on_c, 0, 53, 113
2, 51262, Note_on_c, 0, 53, 0
2, 51262, Control_c, 0, 123, 0
2, 51299, Note_on_c, 0, 57, 97
2, 51329, Note_on_c, 0, 57, 0
2, 51329, Control_c, 0, 123, 0
2, 51360, Control_c, 0, 7, 110
2, 51408, Control_c, 0, 7, 109
2, 51456, Control_c, 0, 7, 108
2, 51504, Control_c, 0, 7, 107
2, 51552, Control_c, 0, 7, 106
2, 51600, Control_c, 0, 7, 105
2, 51648, Control_c, 0, 7, 104
2, 51660, Note_on_c, 0, 50, 113
2, 51681, Control_c, 0, 123, 0
2, 51688, Note_on_c, 0, 50, 0
2, 51696, Control_c, 0, 7, 103
2, 51720, Note_on_c, 0, 53, 109
2, 51738, Control_c, 0, 123, 0
2, 51743, Note_on_c, 0, 53, 0
2, 51744, Control_c, 0, 7, 102
2, 51780, Note_on_c, 0, 57, 100
2, 51792, Control_c, 0, 7, 101
2, 51800, Control_c, 0, 123, 0
2, 51805, Note_on_c, 0, 57, 0
2, 51840, Control_c, 0, 7, 100
2, 51888, Control_c, 0, 7, 99
2, 51936, Control_c, 0, 7, 98
2, 51984, Control_c, 0, 7, 97
2, 52032, Control_c, 0, 7, 96
2, 52080, Control_c, 0, 7, 95
2, 52128, Control_c, 0, 7, 94
2, 52140, Note_on_c, 0, 50, 109
2, 52173, Note_on_c, 0, 50, 0
2, 52174, Control_c, 0, 123, 0
2, 52176, Control_c, 0, 7, 93
2, 52200, Note_on_c, 0, 53, 103
2, 52224, Control_c, 0, 7, 92
2, 52225, Note_on_c, 0, 53, 0
2, 52227, Control_c, 0, 123, 0
2, 52260, Note_on_c, 0, 55, 109
2, 52272, Control_c, 0, 7, 91
2, 52281, Control_c, 0, 123, 0
2, 52282, Note_on_c, 0, 55, 0
2, 52320, Control_c, 0, 7, 90
2, 52368, Control_c, 0, 7, 89
2, 52416, Control_c, 0, 7, 88
2, 52464, Control_c, 0, 7, 87
2, 52512, Control_c, 0, 7, 86
2, 52560, Control_c, 0, 7, 85
2, 52608, Control_c, 0, 7, 84
2, 52620, Note_on_c, 0, 50, 95
2, 52655, Control_c, 0, 123, 0
2, 52656, Note_on_c, 0, 50, 0
2, 52656, Control_c, 0, 7, 83
2, 52680, Note_on_c, 0, 53, 95
2, 52703, Control_c, 0, 123, 0
2, 52704, Control_c, 0, 7, 82
2, 52706, Note_on_c, 0, 53, 0
2, 52740, Note_on_c, 0, 55, 100
2, 52752, Control_c, 0, 7, 81
2, 52759, Control_c, 0, 123, 0
2, 52764, Note_on_c, 0, 55, 0
2, 52800, Control_c, 0, 7, 80
2, 52800, Note_on_c, 0, 57, 100
2, 52848, Control_c, 0, 7, 79
2, 52896, Control_c, 0, 7, 78
2, 52920, Note_on_c, 0, 55, 106
2, 52930, Note_on_c, 0, 57, 0
2, 52944, Control_c, 0, 7, 77
2, 52965, Control_c, 0, 123, 0
2, 52967, Note_on_c, 0, 55, 0
2, 52980, Note_on_c, 0, 53, 97
2, 52992, Control_c, 0, 7, 76
2, 53007, Control_c, 0, 123, 0
2, 53011, Note_on_c, 0, 53, 0
2, 53040, Control_c, 0, 7, 75
2, 53040, Note_on_c, 0, 55, 109
2, 53083, Control_c, 0, 123, 0
2, 53084, Note_on_c, 0, 55, 0
2, 53088, Control_c, 0, 7, 74
2, 53100, Note_on_c, 0, 50, 97
2, 53125, Control_c, 0, 123, 0
2, 53128, Note_on_c, 0, 50, 0
2, 53136, Control_c, 0, 7, 73
2, 53160, Note_on_c, 0, 53, 106
2, 53184, Note_on_c, 0, 53, 0
2, 53184, Control_c, 0, 7, 72
2, 53184, Control_c, 0, 123, 0
2, 53220, Note_on_c, 0, 57, 100
2, 53232, Control_c, 0, 7, 71
2, 53246, Control_c, 0, 123, 0
2, 53247, Note_on_c, 0, 57, 0
2, 53280, Control_c, 0, 7, 70
2, 53328, Control_c, 0, 7, 69
2, 53376, Control_c, 0, 7, 68
2, 53424, Control_c, 0, 7, 67
2, 53472, Control_c, 0, 7, 66
2, 53520, Control_c, 0, 7, 65
2, 53568, Control_c, 0, 7, 64
2, 53580, Note_on_c, 0, 50, 109
2, 53609, Control_c, 0, 123, 0
2, 53612, Note_on_c, 0, 50, 0
2, 53616, Control_c, 0, 7, 63
2, 53640, Note_on_c, 0, 53, 106
2, 53660, Control_c, 0, 123, 0
2, 53664, Note_on_c, 0, 53, 0
2, 53664, Control_c, 0, 7, 62
2, 53700, Note_on_c, 0, 57, 103
2, 53712, Control_c, 0, 7, 61
2, 53723, Control_c, 0, 123, 0
2, 53726, Note_on_c, 0, 57, 0
2, 53760, Control_c, 0, 7, 60
2, 53808, Control_c, 0, 7, 59
2, 53856, Control_c, 0, 7, 58
2, 53904, Control_c, 0, 7, 57
2, 53952, Control_c, 0, 7, 56
2, 54000, Control_c, 0, 7, 55
2, 54048, Control_c, 0, 7, 54
2, 54060, Note_on_c, 0, 50, 100
2, 54088, Control_c, 0, 123, 0
2, 54089, Note_on_c, 0, 50, 0
2, 54096, Control_c, 0, 7, 53
2, 54120, Note_on_c, 0, 53, 88
2, 54142, Control_c, 0, 123, 0
2, 54144, Control_c, 0, 7, 52
2, 54145, Note_on_c, 0, 53, 0
2, 54180, Note_on_c, 0, 55, 106
2, 54192, Control_c, 0, 7, 51
2, 54202, Control_c, 0, 123, 0
2, 54205, Note_on_c, 0, 55, 0
2, 54240, Control_c, 0, 7, 50
2, 54288, Control_c, 0, 7, 49
2, 54336, Control_c, 0, 7, 48
2, 54384, Control_c, 0, 7, 47
2, 54432, Control_c, 0, 7, 46
2, 54480, Control_c, 0, 7, 45
2, 54528, Control_c, 0, 7, 44
2, 54540, Note_on_c, 0, 50, 97
2, 54573, Control_c, 0, 123, 0
2, 54576, Control_c, 0, 7, 43
2, 54577, Note_on_c, 0, 50, 0
2, 54600, Note_on_c, 0, 53, 86
2, 54620, Control_c, 0, 123, 0
2, 54624, Control_c, 0, 7, 42
2, 54625, Note_on_c, 0, 53, 0
2, 54660, Note_on_c, 0, 55, 86
2, 54672, Control_c, 0, 7, 41
2, 54678, Control_c, 0, 123, 0
2, 54685, Note_on_c, 0, 55, 0
2, 54720, Control_c, 0, 7, 40
2, 54720, Note_on_c, 0, 57, 97
2, 54768, Control_c, 0, 7, 39
2, 54816, Control_c, 0, 7, 38
2, 54840, Note_on_c, 0, 55, 80
2, 54845, Note_on_c, 0, 57, 0
2, 54864, Control_c, 0, 7, 37
2, 54880, Control_c, 0, 123, 0
2, 54887, Note_on_c, 0, 55, 0
2, 54900, Note_on_c, 0, 53, 84
2, 54912, Control_c, 0, 7, 36
2, 54920, Control_c, 0, 123, 0
2, 54925, Note_on_c, 0, 53, 0
2, 54960, Control_c, 0, 7, 35
2, 54960, Note_on_c, 0, 55, 97
2, 54982, Control_c, 0, 123, 0
2, 54985, Note_on_c, 0, 55, 0
2, 55008, Control_c, 0, 7, 34
2, 55020, Note_on_c, 0, 53, 122
2, 55056, Control_c, 0, 7, 33
2, 55104, Control_c, 0, 7, 32
2, 55152, Control_c, 0, 7, 31
2, 55200, Control_c, 0, 7, 30
2, 55248, Control_c, 0, 7, 29
2, 55296, Control_c, 0, 7, 28
2, 55344, Control_c, 0, 7, 27
2, 55392, Control_c, 0, 7, 26
2, 55440, Control_c, 0, 7, 25
2, 55488, Control_c, 0, 7, 24
2, 55536, Control_c, 0, 7, 23
2, 55584, Control_c, 0, 7, 22
2, 55632, Control_c, 0, 7, 21
2, 55674, Control_c, 0, 123, 0
2, 55675, Note_on_c, 0, 53, 0
2, 55680, Control_c, 0, 7, 20
2, 55728, Control_c, 0, 7, 19
2, 55776, Control_c, 0, 7, 18
2, 55824, Control_c, 0, 7, 17
2, 55872, Control_c, 0, 7, 16
2, 55920, Control_c, 0, 7, 15
2, 55968, Control_c, 0, 7, 14
2, 56016, Control_c, 0, 7, 13
2, 56064, Control_c, 0, 7, 12
2, 56112, Control_c, 0, 7, 11
2, 56160, Control_c, 0, 7, 10
2, 56208, Control_c, 0, 7, 9
2, 56256, Control_c, 0, 7, 8
2, 56304, Control_c, 0, 7, 7
2, 56352, Control_c, 0, 7, 6
2, 56400, Control_c, 0, 7, 5
2, 56448, Control_c, 0, 7, 4
2, 56496, Control_c, 0, 7, 3
2, 56544, Control_c, 0, 7, 2
2, 56592, Control_c, 0, 7, 1
2, 56640, Control_c, 0, 7, 0
2, 56640, End_track
3, 0, Start_track
3, 0, MIDI_port, 0
3, 0, Title_t, "A Ghetto"""
3, 0, Control_c, 1, 10, 127
3, 0, Program_c, 1, 26
3, 0, Control_c, 1, 7, 64
3, 126, Note_on_c, 1, 57, 64
3, 128, Note_on_c, 1, 64, 56
3, 128, Note_on_c, 1, 53, 58
3, 128, Note_on_c, 1, 60, 58
3, 136, Note_on_c, 1, 64, 0
3, 136, Note_on_c, 1, 60, 0
3, 138, Note_on_c, 1, 57, 0
3, 138, Note_on_c, 1, 53, 0
3, 138, Control_c, 1, 123, 0
3, 216, Note_on_c, 1, 57, 84
3, 216, Note_on_c, 1, 53, 79
3, 216, Note_on_c, 1, 64, 67
3, 217, Note_on_c, 1, 60, 71
3, 225, Note_on_c, 1, 64, 0
3, 225, Note_on_c, 1, 60, 0
3, 226, Note_on_c, 1, 53, 0
3, 227, Note_on_c, 1, 57, 0
3, 227, Control_c, 1, 123, 0
3, 304, Note_on_c, 1, 57, 95
3, 305, Note_on_c, 1, 64, 88
3, 305, Note_on_c, 1, 60, 97
3, 305, Note_on_c, 1, 53, 86
3, 371, Note_on_c, 1, 64, 0
3, 374, Note_on_c, 1, 60, 0
3, 375, Note_on_c, 1, 53, 0
3, 376, Note_on_c, 1, 57, 0
3, 376, Control_c, 1, 123, 0
3, 418, Note_on_c, 1, 57, 88
3, 418, Note_on_c, 1, 64, 72
3, 419, Note_on_c, 1, 53, 80
3, 419, Note_on_c, 1, 60, 82
3, 427, Note_on_c, 1, 64, 0
3, 427, Note_on_c, 1, 60, 0
3, 430, Note_on_c, 1, 57, 0
3, 430, Note_on_c, 1, 53, 0
3, 430, Control_c, 1, 123, 0
3, 444, Note_on_c, 1, 57, 68
3, 444, Note_on_c, 1, 60, 70
3, 446, Note_on_c, 1, 64, 60
3, 447, Note_on_c, 1, 53, 51
3, 455, Note_on_c, 1, 64, 0
3, 456, Note_on_c, 1, 60, 0
3, 456, Note_on_c, 1, 53, 0
3, 460, Note_on_c, 1, 57, 0
3, 460, Control_c, 1, 123, 0
3, 509, Note_on_c, 1, 57, 80
3, 511, Note_on_c, 1, 60, 72
3, 511, Note_on_c, 1, 64, 61
3, 512, Note_on_c, 1, 53, 73
3, 517, Note_on_c, 1, 57, 0
3, 517, Note_on_c, 1, 60, 0
3, 517, Note_on_c, 1, 64, 0
3, 519, Note_on_c, 1, 53, 0
3, 519, Control_c, 1, 123, 0
3, 642, Note_on_c, 1, 57, 80
3, 642, Note_on_c, 1, 53, 76
3, 643, Note_on_c, 1, 64, 74
3, 643, Note_on_c, 1, 60, 80
3, 649, Note_on_c, 1, 64, 0
3, 649, Note_on_c, 1, 60, 0
3, 650, Note_on_c, 1, 57, 0
3, 651, Note_on_c, 1, 53, 0
3, 651, Control_c, 1, 123, 0
3, 717, Note_on_c, 1, 57, 95
3, 718, Note_on_c, 1, 60, 97
3, 718, Note_on_c, 1, 64, 82
3, 718, Note_on_c, 1, 53, 92
3, 731, Note_on_c, 1, 64, 0
3, 734, Note_on_c, 1, 57, 0
3, 734, Note_on_c, 1, 60, 0
3, 734, Note_on_c, 1, 53, 0
3, 734, Control_c, 1, 123, 0
3, 810, Note_on_c, 1, 64, 92
3, 810, Note_on_c, 1, 57, 103
3, 810, Note_on_c, 1, 60, 109
3, 811, Note_on_c, 1, 53, 92
3, 834, Note_on_c, 1, 60, 0
3, 837, Note_on_c, 1, 64, 0
3, 861, Note_on_c, 1, 57, 0
3, 861, Note_on_c, 1, 53, 0
3, 861, Control_c, 1, 123, 0
3, 903, Note_on_c, 1, 57, 90
3, 903, Note_on_c, 1, 64, 80
3, 903, Note_on_c, 1, 60, 84
3, 904, Note_on_c, 1, 53, 84
3, 913, Note_on_c, 1, 64, 0
3, 916, Note_on_c, 1, 60, 0
3, 918, Note_on_c, 1, 57, 0
3, 918, Note_on_c, 1, 53, 0
3, 918, Control_c, 1, 123, 0
3, 929, Note_on_c, 1, 57, 62
3, 931, Note_on_c, 1, 60, 70
3, 931, Note_on_c, 1, 53, 51
3, 933, Note_on_c, 1, 64, 62
3, 942, Note_on_c, 1, 57, 0
3, 944, Note_on_c, 1, 60, 0
3, 944, Note_on_c, 1, 53, 0
3, 944, Note_on_c, 1, 64, 0
3, 944, Control_c, 1, 123, 0
3, 1112, Note_on_c, 1, 58, 90
3, 1113, Note_on_c, 1, 62, 95
3, 1113, Note_on_c, 1, 55, 92
3, 1113, Note_on_c, 1, 65, 88
3, 1127, Note_on_c, 1, 58, 0
3, 1127, Note_on_c, 1, 65, 0
3, 1131, Note_on_c, 1, 62, 0
3, 1131, Note_on_c, 1, 55, 0
3, 1131, Control_c, 1, 123, 0
3, 1200, Note_on_c, 1, 58, 90
3, 1200, Note_on_c, 1, 62, 88
3, 1200, Note_on_c, 1, 55, 95
3, 1200, Note_on_c, 1, 65, 82
3, 1203, Note_on_c, 1, 64, 69
3, 1206, Note_on_c, 1, 64, 0
3, 1257, Note_on_c, 1, 58, 0
3, 1257, Note_on_c, 1, 65, 0
3, 1259, Note_on_c, 1, 62, 0
3, 1259, Note_on_c, 1, 55, 0
3, 1259, Control_c, 1, 123, 0
3, 1287, Note_on_c, 1, 58, 83
3, 1288, Note_on_c, 1, 62, 84
3, 1288, Note_on_c, 1, 65, 80
3, 1288, Note_on_c, 1, 55, 90
3, 1304, Note_on_c, 1, 58, 0
3, 1304, Note_on_c, 1, 65, 0
3, 1306, Note_on_c, 1, 62, 0
3, 1306, Note_on_c, 1, 55, 0
3, 1306, Control_c, 1, 123, 0
3, 1379, Note_on_c, 1, 58, 83
3, 1379, Note_on_c, 1, 62, 88
3, 1379, Note_on_c, 1, 55, 90
3, 1380, Note_on_c, 1, 65, 84
3, 1389, Note_on_c, 1, 65, 0
3, 1391, Note_on_c, 1, 58, 0
3, 1391, Note_on_c, 1, 62, 0
3, 1393, Note_on_c, 1, 55, 0
3, 1393, Control_c, 1, 123, 0
3, 1406, Note_on_c, 1, 58, 75
3, 1408, Note_on_c, 1, 62, 79
3, 1408, Note_on_c, 1, 55, 76
3, 1409, Note_on_c, 1, 65, 79
3, 1421, Note_on_c, 1, 58, 0
3, 1421, Note_on_c, 1, 65, 0
3, 1423, Note_on_c, 1, 62, 0
3, 1425, Note_on_c, 1, 55, 0
3, 1425, Control_c, 1, 123, 0
3, 1588, Note_on_c, 1, 58, 67
3, 1589, Note_on_c, 1, 55, 72
3, 1589, Note_on_c, 1, 62, 66
3, 1589, Note_on_c, 1, 65, 66
3, 1602, Note_on_c, 1, 65, 0
3, 1603, Note_on_c, 1, 62, 0
3, 1607, Note_on_c, 1, 58, 0
3, 1608, Note_on_c, 1, 55, 0
3, 1608, Control_c, 1, 123, 0
3, 1680, Note_on_c, 1, 58, 95
3, 1682, Note_on_c, 1, 62, 92
3, 1682, Note_on_c, 1, 55, 92
3, 1682, Note_on_c, 1, 65, 90
3, 1684, Note_on_c, 1, 64, 64
3, 1688, Note_on_c, 1, 64, 0
3, 1740, Note_on_c, 1, 55, 0
3, 1742, Note_on_c, 1, 58, 0
3, 1742, Note_on_c, 1, 62, 0
3, 1742, Note_on_c, 1, 65, 0
3, 1742, Control_c, 1, 123, 0
3, 1766, Note_on_c, 1, 58, 69
3, 1768, Note_on_c, 1, 55, 73
3, 1768, Note_on_c, 1, 62, 72
3, 1768, Note_on_c, 1, 65, 73
3, 1778, Note_on_c, 1, 58, 0
3, 1780, Note_on_c, 1, 55, 0
3, 1780, Note_on_c, 1, 62, 0
3, 1780, Note_on_c, 1, 65, 0
3, 1780, Control_c, 1, 123, 0
3, 1862, Note_on_c, 1, 58, 106
3, 1862, Note_on_c, 1, 62, 100
3, 1862, Note_on_c, 1, 65, 92
3, 1863, Note_on_c, 1, 55, 97
3, 1875, Note_on_c, 1, 58, 0
3, 1875, Note_on_c, 1, 62, 0
3, 1875, Note_on_c, 1, 65, 0
3, 1875, Note_on_c, 1, 55, 0
3, 1875, Control_c, 1, 123, 0
3, 1889, Note_on_c, 1, 58, 67
3, 1890, Note_on_c, 1, 62, 68
3, 1890, Note_on_c, 1, 55, 62
3, 1892, Note_on_c, 1, 65, 65
3, 1903, Note_on_c, 1, 65, 0
3, 1905, Note_on_c, 1, 62, 0
3, 1906, Note_on_c, 1, 58, 0
3, 1908, Note_on_c, 1, 55, 0
3, 1908, Control_c, 1, 123, 0
3, 2069, Note_on_c, 1, 57, 84
3, 2069, Note_on_c, 1, 60, 90
3, 2069, Note_on_c, 1, 53, 76
3, 2070, Note_on_c, 1, 64, 76
3, 2082, Note_on_c, 1, 64, 0
3, 2084, Note_on_c, 1, 57, 0
3, 2084, Note_on_c, 1, 60, 0
3, 2084, Note_on_c, 1, 53, 0
3, 2084, Control_c, 1, 123, 0
3, 2159, Note_on_c, 1, 57, 95
3, 2159, Note_on_c, 1, 53, 92
3, 2159, Note_on_c, 1, 60, 100
3, 2160, Note_on_c, 1, 64, 86
3, 2220, Note_on_c, 1, 53, 0
3, 2220, Note_on_c, 1, 64, 0
3, 2222, Note_on_c, 1, 57, 0
3, 2222, Note_on_c, 1, 60, 0
3, 2222, Control_c, 1, 123, 0
3, 2246, Note_on_c, 1, 57, 88
3, 2246, Note_on_c, 1, 53, 80
3, 2247, Note_on_c, 1, 64, 77
3, 2247, Note_on_c, 1, 60, 82
3, 2258, Note_on_c, 1, 64, 0
3, 2261, Note_on_c, 1, 60, 0
3, 2263, Note_on_c, 1, 53, 0
3, 2264, Note_on_c, 1, 57, 0
3, 2264, Control_c, 1, 123, 0
3, 2334, Note_on_c, 1, 57, 88
3, 2334, Note_on_c, 1, 64, 80
3, 2335, Note_on_c, 1, 60, 90
3, 2335, Note_on_c, 1, 53, 90
3, 2347, Note_on_c, 1, 64, 0
3, 2351, Note_on_c, 1, 57, 0
3, 2351, Note_on_c, 1, 60, 0
3, 2351, Note_on_c, 1, 53, 0
3, 2351, Control_c, 1, 123, 0
3, 2363, Note_on_c, 1, 57, 77
3, 2365, Note_on_c, 1, 60, 84
3, 2365, Note_on_c, 1, 53, 70
3, 2366, Note_on_c, 1, 64, 72
3, 2381, Note_on_c, 1, 53, 0
3, 2381, Note_on_c, 1, 64, 0
3, 2383, Note_on_c, 1, 57, 0
3, 2383, Note_on_c, 1, 60, 0
3, 2383, Control_c, 1, 123, 0
3, 2550, Note_on_c, 1, 57, 79
3, 2550, Note_on_c, 1, 60, 82
3, 2550, Note_on_c, 1, 64, 72
3, 2550, Note_on_c, 1, 53, 73
3, 2563, Note_on_c, 1, 64, 0
3, 2566, Note_on_c, 1, 60, 0
3, 2566, Note_on_c, 1, 53, 0
3, 2568, Note_on_c, 1, 57, 0
3, 2568, Control_c, 1, 123, 0
3, 2641, Note_on_c, 1, 57, 109
3, 2642, Note_on_c, 1, 60, 113
3, 2642, Note_on_c, 1, 53, 103
3, 2642, Note_on_c, 1, 64, 100
3, 2702, Note_on_c, 1, 53, 0
3, 2704, Note_on_c, 1, 60, 0
3, 2704, Note_on_c, 1, 64, 0
3, 2706, Note_on_c, 1, 57, 0
3, 2706, Control_c, 1, 123, 0
3, 2730, Note_on_c, 1, 57, 88
3, 2730, Note_on_c, 1, 53, 82
3, 2730, Note_on_c, 1, 60, 95
3, 2730, Note_on_c, 1, 64, 84
3, 2746, Note_on_c, 1, 60, 0
3, 2746, Note_on_c, 1, 64, 0
3, 2748, Note_on_c, 1, 57, 0
3, 2748, Note_on_c, 1, 53, 0
3, 2748, Control_c, 1, 123, 0
3, 2821, Note_on_c, 1, 64, 90
3, 2821, Note_on_c, 1, 57, 100
3, 2822, Note_on_c, 1, 60, 103
3, 2822, Note_on_c, 1, 53, 97
3, 2836, Note_on_c, 1, 64, 0
3, 2836, Note_on_c, 1, 60, 0
3, 2838, Note_on_c, 1, 57, 0
3, 2838, Note_on_c, 1, 53, 0
3, 2838, Control_c, 1, 123, 0
3, 2850, Note_on_c, 1, 57, 74
3, 2850, Note_on_c, 1, 60, 77
3, 2851, Note_on_c, 1, 64, 72
3, 2851, Note_on_c, 1, 53, 61
3, 2865, Note_on_c, 1, 53, 0
3, 2867, Note_on_c, 1, 57, 0
3, 2867, Note_on_c, 1, 60, 0
3, 2869, Note_on_c, 1, 64, 0
3, 2869, Control_c, 1, 123, 0
3, 3031, Note_on_c, 1, 58, 83
3, 3033, Note_on_c, 1, 62, 80
3, 3033, Note_on_c, 1, 55, 77
3, 3033, Note_on_c, 1, 65, 60
3, 3041, Note_on_c, 1, 65, 0
3, 3043, Note_on_c, 1, 58, 0
3, 3043, Note_on_c, 1, 62, 0
3, 3046, Note_on_c, 1, 55, 0
3, 3046, Control_c, 1, 123, 0
3, 3118, Note_on_c, 1, 58, 106
3, 3118, Note_on_c, 1, 62, 95
3, 3119, Note_on_c, 1, 55, 97
3, 3119, Note_on_c, 1, 65, 90
3, 3182, Note_on_c, 1, 55, 0
3, 3185, Note_on_c, 1, 58, 0
3, 3185, Note_on_c, 1, 62, 0
3, 3185, Note_on_c, 1, 65, 0
3, 3186, Control_c, 1, 123, 0
3, 3208, Note_on_c, 1, 58, 71
3, 3208, Note_on_c, 1, 62, 80
3, 3209, Note_on_c, 1, 65, 80
3, 3209, Note_on_c, 1, 55, 80
3, 3221, Note_on_c, 1, 58, 0
3, 3223, Note_on_c, 1, 62, 0
3, 3223, Note_on_c, 1, 55, 0
3, 3227, Note_on_c, 1, 65, 0
3, 3227, Control_c, 1, 123, 0
3, 3304, Note_on_c, 1, 58, 86
3, 3304, Note_on_c, 1, 55, 90
3, 3304, Note_on_c, 1, 62, 86
3, 3305, Note_on_c, 1, 65, 86
3, 3315, Note_on_c, 1, 58, 0
3, 3315, Note_on_c, 1, 65, 0
3, 3317, Note_on_c, 1, 62, 0
3, 3319, Note_on_c, 1, 55, 0
3, 3319, Control_c, 1, 123, 0
3, 3333, Note_on_c, 1, 58, 77
3, 3334, Note_on_c, 1, 55, 74
3, 3335, Note_on_c, 1, 62, 84
3, 3335, Note_on_c, 1, 65, 80
3, 3349, Note_on_c, 1, 58, 0
3, 3351, Note_on_c, 1, 55, 0
3, 3351, Note_on_c, 1, 62, 0
3, 3351, Note_on_c, 1, 65, 0
3, 3351, Control_c, 1, 123, 0
3, 3509, Note_on_c, 1, 58, 73
3, 3509, Note_on_c, 1, 55, 73
3, 3509, Note_on_c, 1, 62, 64
3, 3511, Note_on_c, 1, 65, 68
3, 3519, Note_on_c, 1, 65, 0
3, 3522, Note_on_c, 1, 58, 0
3, 3522, Note_on_c, 1, 55, 0
3, 3522, Note_on_c, 1, 62, 0
3, 3523, Control_c, 1, 123, 0
3, 3600, Note_on_c, 1, 58, 95
3, 3600, Note_on_c, 1, 55, 92
3, 3601, Note_on_c, 1, 62, 95
3, 3601, Note_on_c, 1, 65, 88
3, 3658, Note_on_c, 1, 58, 0
3, 3658, Note_on_c, 1, 55, 0
3, 3658, Note_on_c, 1, 62, 0
3, 3660, Note_on_c, 1, 65, 0
3, 3660, Control_c, 1, 123, 0
3, 3688, Note_on_c, 1, 65, 88
3, 3689, Note_on_c, 1, 58, 100
3, 3689, Note_on_c, 1, 62, 95
3, 3689, Note_on_c, 1, 55, 100
3, 3699, Note_on_c, 1, 65, 0
3, 3701, Note_on_c, 1, 58, 0
3, 3701, Note_on_c, 1, 62, 0
3, 3703, Note_on_c, 1, 55, 0
3, 3703, Control_c, 1, 123, 0
3, 3780, Note_on_c, 1, 58, 100
3, 3781, Note_on_c, 1, 55, 92
3, 3782, Note_on_c, 1, 62, 97
3, 3782, Note_on_c, 1, 65, 88
3, 3793, Note_on_c, 1, 65, 0
3, 3795, Note_on_c, 1, 58, 0
3, 3795, Note_on_c, 1, 55, 0
3, 3795, Note_on_c, 1, 62, 0
3, 3795, Control_c, 1, 123, 0
3, 3807, Note_on_c, 1, 58, 65
3, 3809, Note_on_c, 1, 55, 61
3, 3809, Note_on_c, 1, 62, 68
3, 3810, Note_on_c, 1, 65, 63
3, 3819, Note_on_c, 1, 65, 0
3, 3821, Note_on_c, 1, 62, 0
3, 3822, Note_on_c, 1, 58, 0
3, 3826, Note_on_c, 1, 55, 0
3, 3826, Control_c, 1, 123, 0
3, 3990, Note_on_c, 1, 57, 82
3, 3990, Note_on_c, 1, 64, 79
3, 3990, Note_on_c, 1, 53, 74
3, 3992, Note_on_c, 1, 60, 74
3, 4001, Note_on_c, 1, 60, 0
3, 4002, Note_on_c, 1, 64, 0
3, 4005, Note_on_c, 1, 57, 0
3, 4005, Note_on_c, 1, 53, 0
3, 4005, Control_c, 1, 123, 0
3, 4080, Note_on_c, 1, 57, 103
3, 4080, Note_on_c, 1, 53, 100
3, 4080, Note_on_c, 1, 60, 113
3, 4081, Note_on_c, 1, 64, 95
3, 4147, Note_on_c, 1, 57, 0
3, 4147, Note_on_c, 1, 53, 0
3, 4147, Note_on_c, 1, 60, 0
3, 4147, Note_on_c, 1, 64, 0
3, 4147, Control_c, 1, 123, 0
3, 4168, Note_on_c, 1, 57, 79
3, 4169, Note_on_c, 1, 64, 76
3, 4169, Note_on_c, 1, 53, 73
3, 4169, Note_on_c, 1, 60, 73
3, 4185, Note_on_c, 1, 64, 0
3, 4187, Note_on_c, 1, 57, 0
3, 4187, Note_on_c, 1, 53, 0
3, 4187, Note_on_c, 1, 60, 0
3, 4187, Control_c, 1, 123, 0
3, 4260, Note_on_c, 1, 57, 95
3, 4260, Note_on_c, 1, 64, 92
3, 4260, Note_on_c, 1, 53, 84
3, 4261, Note_on_c, 1, 60, 100
3, 4276, Note_on_c, 1, 57, 0
3, 4276, Note_on_c, 1, 64, 0
3, 4276, Note_on_c, 1, 53, 0
3, 4278, Note_on_c, 1, 60, 0
3, 4278, Control_c, 1, 123, 0
3, 4289, Note_on_c, 1, 57, 70
3, 4289, Note_on_c, 1, 60, 69
3, 4289, Note_on_c, 1, 53, 60
3, 4290, Note_on_c, 1, 64, 64
3, 4304, Note_on_c, 1, 57, 0
3, 4304, Note_on_c, 1, 60, 0
3, 4304, Note_on_c, 1, 53, 0
3, 4304, Note_on_c, 1, 64, 0
3, 4304, Control_c, 1, 123, 0
3, 4471, Note_on_c, 1, 57, 80
3, 4471, Note_on_c, 1, 64, 77
3, 4472, Note_on_c, 1, 60, 82
3, 4472, Note_on_c, 1, 53, 72
3, 4483, Note_on_c, 1, 64, 0
3, 4483, Note_on_c, 1, 60, 0
3, 4485, Note_on_c, 1, 53, 0
3, 4486, Note_on_c, 1, 57, 0
3, 4487, Control_c, 1, 123, 0
3, 4558, Note_on_c, 1, 57, 103
3, 4560, Note_on_c, 1, 53, 97
3, 4560, Note_on_c, 1, 64, 95
3, 4560, Note_on_c, 1, 60, 106
3, 4631, Note_on_c, 1, 57, 0
3, 4631, Note_on_c, 1, 53, 0
3, 4631, Note_on_c, 1, 64, 0
3, 4631, Note_on_c, 1, 60, 0
3, 4631, Control_c, 1, 123, 0
3, 4650, Note_on_c, 1, 57, 82
3, 4650, Note_on_c, 1, 53, 77
3, 4650, Note_on_c, 1, 64, 79
3, 4650, Note_on_c, 1, 60, 84
3, 4666, Note_on_c, 1, 53, 0
3, 4666, Note_on_c, 1, 64, 0
3, 4666, Note_on_c, 1, 60, 0
3, 4668, Note_on_c, 1, 57, 0
3, 4668, Control_c, 1, 123, 0
3, 4741, Note_on_c, 1, 53, 88
3, 4743, Note_on_c, 1, 57, 92
3, 4743, Note_on_c, 1, 64, 88
3, 4744, Note_on_c, 1, 60, 95
3, 4757, Note_on_c, 1, 64, 0
3, 4759, Note_on_c, 1, 57, 0
3, 4759, Note_on_c, 1, 60, 0
3, 4761, Note_on_c, 1, 53, 0
3, 4761, Control_c, 1, 123, 0
3, 4772, Note_on_c, 1, 57, 73
3, 4772, Note_on_c, 1, 53, 68
3, 4772, Note_on_c, 1, 60, 80
3, 4773, Note_on_c, 1, 64, 64
3, 4788, Note_on_c, 1, 53, 0
3, 4788, Note_on_c, 1, 60, 0
3, 4790, Note_on_c, 1, 57, 0
3, 4792, Note_on_c, 1, 64, 0
3, 4792, Control_c, 1, 123, 0
3, 4952, Note_on_c, 1, 58, 60
3, 4953, Note_on_c, 1, 55, 67
3, 4955, Note_on_c, 1, 65, 59
3, 4955, Note_on_c, 1, 62, 55
3, 4964, Note_on_c, 1, 65, 0
3, 4964, Note_on_c, 1, 62, 0
3, 4965, Note_on_c, 1, 58, 0
3, 4968, Note_on_c, 1, 55, 0
3, 4968, Control_c, 1, 123, 0
3, 5041, Note_on_c, 1, 58, 106
3, 5042, Note_on_c, 1, 62, 97
3, 5042, Note_on_c, 1, 65, 95
3, 5042, Note_on_c, 1, 55, 100
3, 5104, Note_on_c, 1, 55, 0
3, 5105, Note_on_c, 1, 58, 0
3, 5107, Note_on_c, 1, 62, 0
3, 5107, Note_on_c, 1, 65, 0
3, 5107, Control_c, 1, 123, 0
3, 5127, Note_on_c, 1, 58, 58
3, 5127, Note_on_c, 1, 65, 63
3, 5127, Note_on_c, 1, 62, 60
3, 5129, Note_on_c, 1, 55, 69
3, 5139, Note_on_c, 1, 58, 0
3, 5140, Note_on_c, 1, 55, 0
3, 5141, Note_on_c, 1, 65, 0
3, 5141, Note_on_c, 1, 62, 0
3, 5141, Control_c, 1, 123, 0
3, 5221, Note_on_c, 1, 58, 90
3, 5221, Note_on_c, 1, 55, 88
3, 5222, Note_on_c, 1, 62, 90
3, 5222, Note_on_c, 1, 65, 90
3, 5236, Note_on_c, 1, 58, 0
3, 5236, Note_on_c, 1, 55, 0
3, 5236, Note_on_c, 1, 62, 0
3, 5236, Note_on_c, 1, 65, 0
3, 5236, Control_c, 1, 123, 0
3, 5249, Note_on_c, 1, 58, 61
3, 5250, Note_on_c, 1, 55, 61
3, 5251, Note_on_c, 1, 65, 68
3, 5251, Note_on_c, 1, 62, 60
3, 5267, Note_on_c, 1, 58, 0
3, 5267, Note_on_c, 1, 65, 0
3, 5267, Note_on_c, 1, 62, 0
3, 5269, Note_on_c, 1, 55, 0
3, 5269, Control_c, 1, 123, 0
3, 5429, Note_on_c, 1, 58, 67
3, 5429, Note_on_c, 1, 62, 73
3, 5431, Note_on_c, 1, 65, 65
3, 5432, Note_on_c, 1, 55, 69
3, 5439, Note_on_c, 1, 65, 0
3, 5440, Note_on_c, 1, 58, 0
3, 5441, Note_on_c, 1, 55, 0
3, 5442, Note_on_c, 1, 62, 0
3, 5442, Control_c, 1, 123, 0
3, 5519, Note_on_c, 1, 58, 100
3, 5520, Note_on_c, 1, 65, 90
3, 5520, Note_on_c, 1, 62, 100
3, 5520, Note_on_c, 1, 55, 97
3, 5585, Note_on_c, 1, 58, 0
3, 5586, Note_on_c, 1, 65, 0
3, 5586, Note_on_c, 1, 55, 0
3, 5587, Note_on_c, 1, 62, 0
3, 5587, Control_c, 1, 123, 0
3, 5606, Note_on_c, 1, 58, 71
3, 5607, Note_on_c, 1, 62, 74
3, 5607, Note_on_c, 1, 65, 77
3, 5607, Note_on_c, 1, 55, 82
3, 5618, Note_on_c, 1, 58, 0
3, 5618, Note_on_c, 1, 65, 0
3, 5620, Note_on_c, 1, 62, 0
3, 5622, Note_on_c, 1, 55, 0
3, 5622, Control_c, 1, 123, 0
3, 5700, Note_on_c, 1, 58, 100
3, 5701, Note_on_c, 1, 62, 97
3, 5701, Note_on_c, 1, 55, 100
3, 5701, Note_on_c, 1, 65, 95
3, 5712, Note_on_c, 1, 65, 0
3, 5714, Note_on_c, 1, 58, 0
3, 5714, Note_on_c, 1, 62, 0
3, 5716, Note_on_c, 1, 55, 0
3, 5716, Control_c, 1, 123, 0
3, 5728, Note_on_c, 1, 58, 64
3, 5730, Note_on_c, 1, 55, 57
3, 5730, Note_on_c, 1, 62, 64
3, 5730, Note_on_c, 1, 65, 62
3, 5743, Note_on_c, 1, 62, 0
3, 5743, Note_on_c, 1, 65, 0
3, 5746, Note_on_c, 1, 58, 0
3, 5747, Note_on_c, 1, 55, 0
3, 5747, Control_c, 1, 123, 0
3, 5909, Note_on_c, 1, 53, 66
3, 5911, Note_on_c, 1, 57, 69
3, 5913, Note_on_c, 1, 60, 71
3, 5913, Note_on_c, 1, 64, 63
3, 5928, Note_on_c, 1, 64, 0
3, 5930, Note_on_c, 1, 57, 0
3, 5930, Note_on_c, 1, 60, 0
3, 5932, Note_on_c, 1, 53, 0
3, 5932, Control_c, 1, 123, 0
3, 5996, Note_on_c, 1, 57, 106
3, 5997, Note_on_c, 1, 53, 100
3, 5997, Note_on_c, 1, 64, 97
3, 5997, Note_on_c, 1, 60, 109
3, 6066, Note_on_c, 1, 60, 0
3, 6067, Note_on_c, 1, 57, 0
3, 6067, Note_on_c, 1, 53, 0
3, 6067, Note_on_c, 1, 64, 0
3, 6067, Control_c, 1, 123, 0
3, 6084, Note_on_c, 1, 57, 63
3, 6084, Note_on_c, 1, 53, 58
3, 6086, Note_on_c, 1, 64, 58
3, 6088, Note_on_c, 1, 60, 49
3, 6097, Note_on_c, 1, 64, 0
3, 6097, Note_on_c, 1, 60, 0
3, 6099, Note_on_c, 1, 57, 0
3, 6100, Note_on_c, 1, 53, 0
3, 6100, Control_c, 1, 123, 0
3, 6179, Note_on_c, 1, 64, 86
3, 6180, Note_on_c, 1, 57, 95
3, 6180, Note_on_c, 1, 53, 88
3, 6180, Note_on_c, 1, 60, 90
3, 6196, Note_on_c, 1, 64, 0
3, 6196, Note_on_c, 1, 57, 0
3, 6196, Note_on_c, 1, 53, 0
3, 6196, Note_on_c, 1, 60, 0
3, 6196, Control_c, 1, 123, 0
3, 6209, Note_on_c, 1, 60, 73
3, 6209, Note_on_c, 1, 57, 77
3, 6209, Note_on_c, 1, 53, 66
3, 6210, Note_on_c, 1, 64, 77
3, 6227, Note_on_c, 1, 60, 0
3, 6227, Note_on_c, 1, 57, 0
3, 6227, Note_on_c, 1, 53, 0
3, 6227, Note_on_c, 1, 64, 0
3, 6227, Control_c, 1, 123, 0
3, 6389, Note_on_c, 1, 57, 84
3, 6390, Note_on_c, 1, 64, 77
3, 6390, Note_on_c, 1, 53, 79
3, 6390, Note_on_c, 1, 60, 77
3, 6401, Note_on_c, 1, 64, 0
3, 6403, Note_on_c, 1, 60, 0
3, 6405, Note_on_c, 1, 53, 0
3, 6406, Note_on_c, 1, 57, 0
3, 6407, Control_c, 1, 123, 0
3, 6480, Note_on_c, 1, 57, 106
3, 6480, Note_on_c, 1, 60, 103
3, 6480, Note_on_c, 1, 64, 100
3, 6480, Note_on_c, 1, 53, 103
3, 6546, Note_on_c, 1, 64, 0
3, 6547, Note_on_c, 1, 57, 0
3, 6548, Note_on_c, 1, 60, 0
3, 6548, Note_on_c, 1, 53, 0
3, 6549, Control_c, 1, 123, 0
3, 6570, Note_on_c, 1, 57, 90
3, 6570, Note_on_c, 1, 53, 88
3, 6570, Note_on_c, 1, 64, 80
3, 6570, Note_on_c, 1, 60, 84
3, 6588, Note_on_c, 1, 57, 0
3, 6588, Note_on_c, 1, 64, 0
3, 6589, Note_on_c, 1, 60, 0
3, 6591, Note_on_c, 1, 53, 0
3, 6591, Control_c, 1, 123, 0
3, 6659, Note_on_c, 1, 57, 88
3, 6660, Note_on_c, 1, 64, 84
3, 6660, Note_on_c, 1, 53, 90
3, 6660, Note_on_c, 1, 60, 90
3, 6676, Note_on_c, 1, 57, 0
3, 6676, Note_on_c, 1, 64, 0
3, 6676, Note_on_c, 1, 60, 0
3, 6678, Note_on_c, 1, 53, 0
3, 6678, Control_c, 1, 123, 0
3, 6689, Note_on_c, 1, 57, 73
3, 6689, Note_on_c, 1, 60, 80
3, 6691, Note_on_c, 1, 53, 62
3, 6692, Note_on_c, 1, 64, 67
3, 6708, Note_on_c, 1, 53, 0
3, 6709, Note_on_c, 1, 57, 0
3, 6709, Note_on_c, 1, 60, 0
3, 6710, Note_on_c, 1, 64, 0
3, 6710, Control_c, 1, 123, 0
3, 6871, Note_on_c, 1, 58, 83
3, 6872, Note_on_c, 1, 55, 88
3, 6872, Note_on_c, 1, 62, 84
3, 6872, Note_on_c, 1, 65, 79
3, 6883, Note_on_c, 1, 65, 0
3, 6886, Note_on_c, 1, 58, 0
3, 6886, Note_on_c, 1, 62, 0
3, 6888, Note_on_c, 1, 55, 0
3, 6888, Control_c, 1, 123, 0
3, 6959, Note_on_c, 1, 58, 106
3, 6959, Note_on_c, 1, 55, 103
3, 6959, Note_on_c, 1, 65, 88
3, 6960, Note_on_c, 1, 62, 100
3, 6962, Note_on_c, 1, 64, 80
3, 6965, Note_on_c, 1, 64, 0
3, 7028, Note_on_c, 1, 58, 0
3, 7028, Note_on_c, 1, 65, 0
3, 7030, Note_on_c, 1, 55, 0
3, 7030, Note_on_c, 1, 62, 0
3, 7030, Control_c, 1, 123, 0
3, 7049, Note_on_c, 1, 58, 60
3, 7050, Note_on_c, 1, 55, 73
3, 7052, Note_on_c, 1, 65, 56
3, 7052, Note_on_c, 1, 62, 58
3, 7060, Note_on_c, 1, 58, 0
3, 7060, Note_on_c, 1, 65, 0
3, 7060, Note_on_c, 1, 62, 0
3, 7065, Note_on_c, 1, 55, 0
3, 7065, Control_c, 1, 123, 0
3, 7139, Note_on_c, 1, 58, 95
3, 7139, Note_on_c, 1, 55, 95
3, 7140, Note_on_c, 1, 62, 88
3, 7140, Note_on_c, 1, 65, 82
3, 7143, Note_on_c, 1, 64, 65
3, 7147, Note_on_c, 1, 64, 0
3, 7152, Note_on_c, 1, 65, 0
3, 7155, Note_on_c, 1, 58, 0
3, 7155, Note_on_c, 1, 62, 0
3, 7157, Note_on_c, 1, 55, 0
3, 7157, Control_c, 1, 123, 0
3, 7167, Note_on_c, 1, 58, 58
3, 7169, Note_on_c, 1, 55, 52
3, 7170, Note_on_c, 1, 62, 60
3, 7170, Note_on_c, 1, 65, 56
3, 7181, Note_on_c, 1, 58, 0
3, 7181, Note_on_c, 1, 62, 0
3, 7181, Note_on_c, 1, 65, 0
3, 7184, Note_on_c, 1, 55, 0
3, 7185, Control_c, 1, 123, 0
3, 7348, Note_on_c, 1, 58, 69
3, 7348, Note_on_c, 1, 55, 76
3, 7348, Note_on_c, 1, 62, 67
3, 7350, Note_on_c, 1, 65, 58
3, 7358, Note_on_c, 1, 65, 0
3, 7363, Note_on_c, 1, 62, 0
3, 7364, Note_on_c, 1, 58, 0
3, 7365, Note_on_c, 1, 55, 0
3, 7365, Control_c, 1, 123, 0
3, 7504, Note_on_c, 1, 50, 103
3, 7555, Note_on_c, 1, 50, 0
3, 7555, Control_c, 1, 123, 0
3, 7680, Note_on_c, 1, 57, 86
3, 7680, Note_on_c, 1, 64, 76
3, 7680, Note_on_c, 1, 60, 88
3, 7681, Note_on_c, 1, 53, 86
3, 7694, Note_on_c, 1, 64, 0
3, 7695, Note_on_c, 1, 53, 0
3, 7696, Note_on_c, 1, 57, 0
3, 7696, Note_on_c, 1, 60, 0
3, 7696, Control_c, 1, 123, 0
3, 7800, Note_on_c, 1, 59, 53
3, 7802, Note_on_c, 1, 57, 88
3, 7803, Note_on_c, 1, 60, 84
3, 7803, Note_on_c, 1, 64, 77
3, 7804, Note_on_c, 1, 53, 82
3, 7813, Note_on_c, 1, 64, 0
3, 7815, Note_on_c, 1, 60, 0
3, 7816, Note_on_c, 1, 57, 0
3, 7816, Note_on_c, 1, 53, 0
3, 7817, Control_c, 1, 123, 0
3, 7817, Control_c, 1, 123, 0
3, 7821, Note_on_c, 1, 59, 0
3, 7860, Note_on_c, 1, 57, 64
3, 7881, Control_c, 1, 123, 0
3, 7884, Note_on_c, 1, 57, 0
3, 7921, Note_on_c, 1, 57, 88
3, 7922, Note_on_c, 1, 60, 86
3, 7922, Note_on_c, 1, 53, 80
3, 7923, Note_on_c, 1, 64, 80
3, 7932, Note_on_c, 1, 64, 0
3, 7934, Note_on_c, 1, 60, 0
3, 7934, Note_on_c, 1, 53, 0
3, 7935, Note_on_c, 1, 57, 0
3, 7936, Control_c, 1, 123, 0
3, 7980, Note_on_c, 1, 50, 100
3, 8007, Control_c, 1, 123, 0
3, 8011, Note_on_c, 1, 50, 0
3, 8040, Note_on_c, 1, 53, 92
3, 8042, Note_on_c, 1, 57, 90
3, 8043, Note_on_c, 1, 60, 90
3, 8043, Note_on_c, 1, 64, 80
3, 8043, Note_on_c, 1, 53, 82
3, 8053, Note_on_c, 1, 64, 0
3, 8054, Note_on_c, 1, 53, 0
3, 8056, Note_on_c, 1, 57, 0
3, 8056, Note_on_c, 1, 60, 0
3, 8056, Control_c, 1, 123, 0
3, 8062, Control_c, 1, 123, 0
3, 8068, Note_on_c, 1, 53, 0
3, 8100, Note_on_c, 1, 57, 97
3, 8139, Control_c, 1, 123, 0
3, 8144, Note_on_c, 1, 57, 0
3, 8159, Note_on_c, 1, 57, 84
3, 8159, Note_on_c, 1, 64, 77
3, 8160, Note_on_c, 1, 60, 86
3, 8160, Note_on_c, 1, 53, 82
3, 8170, Note_on_c, 1, 64, 0
3, 8173, Note_on_c, 1, 57, 0
3, 8173, Note_on_c, 1, 60, 0
3, 8173, Note_on_c, 1, 53, 0
3, 8173, Control_c, 1, 123, 0
3, 8282, Note_on_c, 1, 60, 90
3, 8283, Note_on_c, 1, 64, 79
3, 8283, Note_on_c, 1, 57, 86
3, 8284, Note_on_c, 1, 53, 82
3, 8293, Note_on_c, 1, 64, 0
3, 8295, Note_on_c, 1, 60, 0
3, 8295, Note_on_c, 1, 57, 0
3, 8295, Note_on_c, 1, 53, 0
3, 8295, Control_c, 1, 123, 0
3, 8404, Note_on_c, 1, 64, 88
3, 8405, Note_on_c, 1, 57, 95
3, 8405, Note_on_c, 1, 60, 95
3, 8405, Note_on_c, 1, 53, 88
3, 8418, Note_on_c, 1, 64, 0
3, 8419, Note_on_c, 1, 60, 0
3, 8419, Note_on_c, 1, 53, 0
3, 8420, Note_on_c, 1, 57, 0
3, 8420, Control_c, 1, 123, 0
3, 8460, Note_on_c, 1, 50, 106
3, 8484, Control_c, 1, 123, 0
3, 8486, Note_on_c, 1, 50, 0
3, 8520, Note_on_c, 1, 53, 97
3, 8522, Note_on_c, 1, 57, 92
3, 8523, Note_on_c, 1, 53, 84
3, 8523, Note_on_c, 1, 60, 92
3, 8523, Note_on_c, 1, 64, 86
3, 8534, Note_on_c, 1, 64, 0
3, 8536, Note_on_c, 1, 53, 0
3, 8536, Note_on_c, 1, 60, 0
3, 8538, Note_on_c, 1, 57, 0
3, 8538, Control_c, 1, 123, 0
3, 8545, Note_on_c, 1, 53, 0
3, 8546, Control_c, 1, 123, 0
3, 8580, Note_on_c, 1, 55, 109
3, 8619, Control_c, 1, 123, 0
3, 8622, Note_on_c, 1, 55, 0
3, 8639, Note_on_c, 1, 58, 83
3, 8639, Note_on_c, 1, 62, 84
3, 8640, Note_on_c, 1, 65, 84
3, 8640, Note_on_c, 1, 55, 90
3, 8652, Note_on_c, 1, 55, 0
3, 8653, Note_on_c, 1, 58, 0
3, 8653, Note_on_c, 1, 62, 0
3, 8653, Note_on_c, 1, 65, 0
3, 8653, Control_c, 1, 123, 0
3, 8765, Note_on_c, 1, 58, 86
3, 8766, Note_on_c, 1, 62, 90
3, 8766, Note_on_c, 1, 65, 88
3, 8766, Note_on_c, 1, 55, 92
3, 8777, Note_on_c, 1, 58, 0
3, 8777, Note_on_c, 1, 65, 0
3, 8779, Note_on_c, 1, 62, 0
3, 8779, Note_on_c, 1, 55, 0
3, 8779, Control_c, 1, 123, 0
3, 8879, Note_on_c, 1, 58, 75
3, 8880, Note_on_c, 1, 62, 76
3, 8880, Note_on_c, 1, 65, 80
3, 8880, Note_on_c, 1, 55, 84
3, 8893, Note_on_c, 1, 58, 0
3, 8895, Note_on_c, 1, 62, 0
3, 8895, Note_on_c, 1, 65, 0
3, 8895, Note_on_c, 1, 55, 0
3, 8895, Control_c, 1, 123, 0
3, 8940, Note_on_c, 1, 50, 106
3, 8960, Control_c, 1, 123, 0
3, 8965, Note_on_c, 1, 50, 0
3, 9000, Note_on_c, 1, 58, 75
3, 9000, Note_on_c, 1, 53, 100
3, 9002, Note_on_c, 1, 62, 79
3, 9003, Note_on_c, 1, 65, 80
3, 9003, Note_on_c, 1, 55, 84
3, 9012, Note_on_c, 1, 65, 0
3, 9014, Note_on_c, 1, 58, 0
3, 9014, Note_on_c, 1, 62, 0
3, 9014, Note_on_c, 1, 55, 0
3, 9014, Control_c, 1, 123, 0
3, 9024, Control_c, 1, 123, 0
3, 9027, Note_on_c, 1, 53, 0
3, 9060, Note_on_c, 1, 55, 90
3, 9079, Control_c, 1, 123, 0
3, 9085, Note_on_c, 1, 55, 0
3, 9120, Note_on_c, 1, 58, 86
3, 9120, Note_on_c, 1, 62, 80
3, 9120, Note_on_c, 1, 55, 80
3, 9120, Note_on_c, 1, 57, 97
3, 9121, Note_on_c, 1, 65, 73
3, 9131, Note_on_c, 1, 65, 0
3, 9133, Note_on_c, 1, 58, 0
3, 9133, Note_on_c, 1, 62, 0
3, 9133, Note_on_c, 1, 55, 0
3, 9133, Control_c, 1, 123, 0
3, 9229, Control_c, 1, 123, 0
3, 9230, Note_on_c, 1, 57, 0
3, 9238, Note_on_c, 1, 58, 80
3, 9238, Note_on_c, 1, 62, 86
3, 9240, Note_on_c, 1, 55, 84
3, 9240, Note_on_c, 1, 65, 80
3, 9240, Note_on_c, 1, 55, 97
3, 9250, Note_on_c, 1, 65, 0
3, 9252, Note_on_c, 1, 58, 0
3, 9252, Note_on_c, 1, 62, 0
3, 9252, Note_on_c, 1, 55, 0
3, 9252, Control_c, 1, 123, 0
3, 9300, Note_on_c, 1, 53, 95
3, 9305, Note_on_c, 1, 55, 0
3, 9338, Control_c, 1, 123, 0
3, 9346, Note_on_c, 1, 53, 0
3, 9360, Note_on_c, 1, 58, 86
3, 9360, Note_on_c, 1, 62, 82
3, 9360, Note_on_c, 1, 55, 97
3, 9361, Note_on_c, 1, 65, 82
3, 9362, Note_on_c, 1, 55, 86
3, 9371, Note_on_c, 1, 65, 0
3, 9373, Note_on_c, 1, 58, 0
3, 9373, Note_on_c, 1, 62, 0
3, 9373, Note_on_c, 1, 55, 0
3, 9373, Control_c, 1, 123, 0
3, 9398, Control_c, 1, 123, 0
3, 9410, Note_on_c, 1, 55, 0
3, 9420, Note_on_c, 1, 50, 100
3, 9444, Control_c, 1, 123, 0
3, 9451, Note_on_c, 1, 50, 0
3, 9479, Note_on_c, 1, 58, 95
3, 9479, Note_on_c, 1, 62, 90
3, 9479, Note_on_c, 1, 55, 90
3, 9480, Note_on_c, 1, 65, 88
3, 9480, Note_on_c, 1, 53, 103
3, 9489, Note_on_c, 1, 65, 0
3, 9493, Note_on_c, 1, 58, 0
3, 9493, Note_on_c, 1, 62, 0
3, 9493, Note_on_c, 1, 55, 0
3, 9493, Control_c, 1, 123, 0
3, 9505, Control_c, 1, 123, 0
3, 9514, Note_on_c, 1, 53, 0
3, 9540, Note_on_c, 1, 57, 95
3, 9579, Control_c, 1, 123, 0
3, 9587, Note_on_c, 1, 57, 0
3, 9603, Note_on_c, 1, 57, 92
3, 9604, Note_on_c, 1, 64, 86
3, 9604, Note_on_c, 1, 60, 92
3, 9604, Note_on_c, 1, 53, 84
3, 9617, Note_on_c, 1, 57, 0
3, 9617, Note_on_c, 1, 64, 0
3, 9617, Note_on_c, 1, 60, 0
3, 9617, Note_on_c, 1, 53, 0
3, 9617, Control_c, 1, 123, 0
3, 9720, Note_on_c, 1, 57, 79
3, 9721, Note_on_c, 1, 64, 77
3, 9721, Note_on_c, 1, 60, 77
3, 9722, Note_on_c, 1, 53, 79
3, 9734, Note_on_c, 1, 64, 0
3, 9736, Note_on_c, 1, 57, 0
3, 9736, Note_on_c, 1, 60, 0
3, 9736, Note_on_c, 1, 53, 0
3, 9736, Control_c, 1, 123, 0
3, 9839, Note_on_c, 1, 57, 84
3, 9840, Note_on_c, 1, 60, 86
3, 9840, Note_on_c, 1, 64, 77
3, 9840, Note_on_c, 1, 53, 77
3, 9853, Note_on_c, 1, 64, 0
3, 9855, Note_on_c, 1, 57, 0
3, 9855, Note_on_c, 1, 60, 0
3, 9855, Note_on_c, 1, 53, 0
3, 9855, Control_c, 1, 123, 0
3, 9900, Note_on_c, 1, 50, 103
3, 9921, Control_c, 1, 123, 0
3, 9926, Note_on_c, 1, 50, 0
3, 9960, Note_on_c, 1, 53, 95
3, 9962, Note_on_c, 1, 57, 84
3, 9962, Note_on_c, 1, 60, 88
3, 9963, Note_on_c, 1, 64, 80
3, 9963, Note_on_c, 1, 53, 80
3, 9975, Note_on_c, 1, 64, 0
3, 9977, Note_on_c, 1, 57, 0
3, 9977, Note_on_c, 1, 60, 0
3, 9979, Note_on_c, 1, 53, 0
3, 9979, Control_c, 1, 123, 0
3, 9988, Control_c, 1, 123, 0
3, 9989, Note_on_c, 1, 53, 0
3, 10020, Note_on_c, 1, 57, 92
3, 10050, Control_c, 1, 123, 0
3, 10053, Note_on_c, 1, 57, 0
3, 10078, Note_on_c, 1, 53, 79
3, 10079, Note_on_c, 1, 60, 88
3, 10079, Note_on_c, 1, 64, 77
3, 10080, Note_on_c, 1, 57, 77
3, 10093, Note_on_c, 1, 64, 0
3, 10095, Note_on_c, 1, 53, 0
3, 10095, Note_on_c, 1, 57, 0
3, 10097, Note_on_c, 1, 60, 0
3, 10097, Control_c, 1, 123, 0
3, 10200, Note_on_c, 1, 57, 88
3, 10200, Note_on_c, 1, 60, 95
3, 10201, Note_on_c, 1, 53, 77
3, 10201, Note_on_c, 1, 64, 80
3, 10214, Note_on_c, 1, 64, 0
3, 10217, Note_on_c, 1, 57, 0
3, 10217, Note_on_c, 1, 60, 0
3, 10217, Note_on_c, 1, 53, 0
3, 10217, Control_c, 1, 123, 0
3, 10320, Note_on_c, 1, 57, 82
3, 10321, Note_on_c, 1, 64, 80
3, 10321, Note_on_c, 1, 60, 90
3, 10322, Note_on_c, 1, 53, 77
3, 10334, Note_on_c, 1, 64, 0
3, 10336, Note_on_c, 1, 57, 0
3, 10337, Note_on_c, 1, 53, 0
3, 10339, Note_on_c, 1, 60, 0
3, 10339, Control_c, 1, 123, 0
3, 10380, Note_on_c, 1, 50, 106
3, 10399, Control_c, 1, 123, 0
3, 10404, Note_on_c, 1, 50, 0
3, 10440, Note_on_c, 1, 53, 90
3, 10443, Note_on_c, 1, 57, 95
3, 10443, Note_on_c, 1, 53, 86
3, 10444, Note_on_c, 1, 60, 88
3, 10444, Note_on_c, 1, 64, 84
3, 10455, Note_on_c, 1, 64, 0
3, 10458, Note_on_c, 1, 53, 0
3, 10458, Note_on_c, 1, 57, 0
3, 10458, Note_on_c, 1, 60, 0
3, 10458, Control_c, 1, 123, 0
3, 10464, Control_c, 1, 123, 0
3, 10468, Note_on_c, 1, 53, 0
3, 10500, Note_on_c, 1, 55, 106
3, 10538, Control_c, 1, 123, 0
3, 10543, Note_on_c, 1, 55, 0
3, 10563, Note_on_c, 1, 58, 90
3, 10563, Note_on_c, 1, 62, 88
3, 10563, Note_on_c, 1, 55, 90
3, 10564, Note_on_c, 1, 65, 82
3, 10575, Note_on_c, 1, 65, 0
3, 10576, Note_on_c, 1, 58, 0
3, 10576, Note_on_c, 1, 62, 0
3, 10578, Note_on_c, 1, 55, 0
3, 10578, Control_c, 1, 123, 0
3, 10681, Note_on_c, 1, 58, 90
3, 10683, Note_on_c, 1, 62, 82
3, 10684, Note_on_c, 1, 55, 88
3, 10684, Note_on_c, 1, 65, 63
3, 10687, Note_on_c, 1, 64, 54
3, 10691, Note_on_c, 1, 64, 0
3, 10692, Note_on_c, 1, 65, 0
3, 10696, Note_on_c, 1, 58, 0
3, 10696, Note_on_c, 1, 62, 0
3, 10696, Note_on_c, 1, 55, 0
3, 10696, Control_c, 1, 123, 0
3, 10795, Note_on_c, 1, 58, 90
3, 10797, Note_on_c, 1, 62, 84
3, 10797, Note_on_c, 1, 55, 90
3, 10797, Note_on_c, 1, 65, 76
3, 10807, Note_on_c, 1, 65, 0
3, 10809, Note_on_c, 1, 58, 0
3, 10809, Note_on_c, 1, 62, 0
3, 10809, Note_on_c, 1, 55, 0
3, 10809, Control_c, 1, 123, 0
3, 10860, Note_on_c, 1, 50, 106
3, 10880, Control_c, 1, 123, 0
3, 10882, Note_on_c, 1, 50, 0
3, 10914, Note_on_c, 1, 58, 77
3, 10914, Note_on_c, 1, 62, 82
3, 10915, Note_on_c, 1, 65, 80
3, 10915, Note_on_c, 1, 55, 86
3, 10920, Note_on_c, 1, 53, 84
3, 10926, Note_on_c, 1, 65, 0
3, 10928, Note_on_c, 1, 58, 0
3, 10928, Note_on_c, 1, 62, 0
3, 10928, Note_on_c, 1, 55, 0
3, 10928, Control_c, 1, 123, 0
3, 10939, Control_c, 1, 123, 0
3, 10944, Note_on_c, 1, 53, 0
3, 10980, Note_on_c, 1, 55, 86
3, 10997, Control_c, 1, 123, 0
3, 11005, Note_on_c, 1, 55, 0
3, 11037, Note_on_c, 1, 58, 77
3, 11037, Note_on_c, 1, 62, 77
3, 11038, Note_on_c, 1, 55, 86
3, 11038, Note_on_c, 1, 65, 64
3, 11040, Note_on_c, 1, 57, 97
3, 11041, Note_on_c, 1, 64, 54
3, 11045, Note_on_c, 1, 64, 0
3, 11047, Note_on_c, 1, 65, 0
3, 11050, Note_on_c, 1, 58, 0
3, 11050, Note_on_c, 1, 62, 0
3, 11050, Note_on_c, 1, 55, 0
3, 11050, Control_c, 1, 123, 0
3, 11148, Control_c, 1, 123, 0
3, 11152, Note_on_c, 1, 57, 0
3, 11160, Note_on_c, 1, 58, 86
3, 11160, Note_on_c, 1, 55, 103
3, 11161, Note_on_c, 1, 62, 86
3, 11162, Note_on_c, 1, 55, 88
3, 11162, Note_on_c, 1, 65, 74
3, 11172, Note_on_c, 1, 65, 0
3, 11173, Note_on_c, 1, 58, 0
3, 11174, Note_on_c, 1, 55, 0
3, 11174, Note_on_c, 1, 62, 0
3, 11174, Control_c, 1, 123, 0
3, 11207, Control_c, 1, 123, 0
3, 11219, Note_on_c, 1, 55, 0
3, 11220, Note_on_c, 1, 53, 103
3, 11239, Control_c, 1, 123, 0
3, 11249, Note_on_c, 1, 53, 0
3, 11276, Note_on_c, 1, 58, 77
3, 11277, Note_on_c, 1, 55, 86
3, 11277, Note_on_c, 1, 62, 82
3, 11279, Note_on_c, 1, 65, 65
3, 11280, Note_on_c, 1, 55, 106
3, 11287, Note_on_c, 1, 65, 0
3, 11289, Note_on_c, 1, 58, 0
3, 11289, Note_on_c, 1, 55, 0
3, 11289, Note_on_c, 1, 62, 0
3, 11289, Control_c, 1, 123, 0
3, 11314, Control_c, 1, 123, 0
3, 11324, Note_on_c, 1, 55, 0
3, 11340, Note_on_c, 1, 53, 122
3, 11399, Note_on_c, 1, 58, 75
3, 11399, Note_on_c, 1, 55, 86
3, 11399, Note_on_c, 1, 62, 80
3, 11401, Note_on_c, 1, 65, 65
3, 11409, Note_on_c, 1, 65, 0
3, 11411, Note_on_c, 1, 58, 0
3, 11413, Note_on_c, 1, 55, 0
3, 11413, Note_on_c, 1, 62, 0
3, 11413, Control_c, 1, 123, 0
3, 11519, Note_on_c, 1, 58, 77
3, 11521, Note_on_c, 1, 62, 86
3, 11521, Note_on_c, 1, 55, 82
3, 11522, Note_on_c, 1, 65, 76
3, 11531, Note_on_c, 1, 65, 0
3, 11533, Note_on_c, 1, 58, 0
3, 11533, Note_on_c, 1, 55, 0
3, 11535, Note_on_c, 1, 62, 0
3, 11535, Control_c, 1, 123, 0
3, 11638, Note_on_c, 1, 58, 80
3, 11638, Note_on_c, 1, 62, 86
3, 11638, Note_on_c, 1, 65, 86
3, 11639, Note_on_c, 1, 55, 88
3, 11650, Note_on_c, 1, 65, 0
3, 11651, Note_on_c, 1, 58, 0
3, 11651, Note_on_c, 1, 55, 0
3, 11652, Note_on_c, 1, 62, 0
3, 11652, Control_c, 1, 123, 0
3, 11758, Note_on_c, 1, 58, 77
3, 11760, Note_on_c, 1, 62, 80
3, 11760, Note_on_c, 1, 55, 86
3, 11760, Note_on_c, 1, 65, 73
3, 11769, Note_on_c, 1, 65, 0
3, 11770, Note_on_c, 1, 58, 0
3, 11770, Note_on_c, 1, 62, 0
3, 11770, Note_on_c, 1, 55, 0
3, 11770, Control_c, 1, 123, 0
3, 11880, Note_on_c, 1, 58, 90
3, 11880, Note_on_c, 1, 62, 95
3, 11880, Note_on_c, 1, 55, 95
3, 11880, Note_on_c, 1, 65, 90
3, 11892, Note_on_c, 1, 65, 0
3, 11895, Note_on_c, 1, 58, 0
3, 11895, Note_on_c, 1, 62, 0
3, 11895, Note_on_c, 1, 55, 0
3, 11895, Control_c, 1, 123, 0
3, 12030, Control_c, 1, 123, 0
3, 12035, Note_on_c, 1, 53, 0
3, 12126, Note_on_c, 1, 57, 64
3, 12128, Note_on_c, 1, 64, 56
3, 12128, Note_on_c, 1, 53, 58
3, 12128, Note_on_c, 1, 60, 58
3, 12136, Note_on_c, 1, 64, 0
3, 12136, Note_on_c, 1, 60, 0
3, 12138, Note_on_c, 1, 57, 0
3, 12138, Note_on_c, 1, 53, 0
3, 12138, Control_c, 1, 123, 0
3, 12216, Note_on_c, 1, 57, 84
3, 12216, Note_on_c, 1, 53, 79
3, 12216, Note_on_c, 1, 64, 67
3, 12217, Note_on_c, 1, 60, 71
3, 12225, Note_on_c, 1, 64, 0
3, 12225, Note_on_c, 1, 60, 0
3, 12226, Note_on_c, 1, 53, 0
3, 12227, Note_on_c, 1, 57, 0
3, 12227, Control_c, 1, 123, 0
3, 12304, Note_on_c, 1, 57, 95
3, 12305, Note_on_c, 1, 64, 88
3, 12305, Note_on_c, 1, 60, 97
3, 12305, Note_on_c, 1, 53, 86
3, 12371, Note_on_c, 1, 64, 0
3, 12374, Note_on_c, 1, 60, 0
3, 12375, Note_on_c, 1, 53, 0
3, 12376, Note_on_c, 1, 57, 0
3, 12376, Control_c, 1, 123, 0
3, 12418, Note_on_c, 1, 57, 88
3, 12418, Note_on_c, 1, 64, 72
3, 12419, Note_on_c, 1, 53, 80
3, 12419, Note_on_c, 1, 60, 82
3, 12427, Note_on_c, 1, 64, 0
3, 12427, Note_on_c, 1, 60, 0
3, 12430, Note_on_c, 1, 57, 0
3, 12430, Note_on_c, 1, 53, 0
3, 12430, Control_c, 1, 123, 0
3, 12444, Note_on_c, 1, 57, 68
3, 12444, Note_on_c, 1, 60, 70
3, 12446, Note_on_c, 1, 64, 60
3, 12447, Note_on_c, 1, 53, 51
3, 12455, Note_on_c, 1, 64, 0
3, 12456, Note_on_c, 1, 60, 0
3, 12456, Note_on_c, 1, 53, 0
3, 12460, Note_on_c, 1, 57, 0
3, 12460, Control_c, 1, 123, 0
3, 12509, Note_on_c, 1, 57, 80
3, 12511, Note_on_c, 1, 60, 72
3, 12511, Note_on_c, 1, 64, 61
3, 12512, Note_on_c, 1, 53, 73
3, 12517, Note_on_c, 1, 57, 0
3, 12517, Note_on_c, 1, 60, 0
3, 12517, Note_on_c, 1, 64, 0
3, 12519, Note_on_c, 1, 53, 0
3, 12519, Control_c, 1, 123, 0
3, 12642, Note_on_c, 1, 57, 80
3, 12642, Note_on_c, 1, 53, 76
3, 12643, Note_on_c, 1, 64, 74
3, 12643, Note_on_c, 1, 60, 80
3, 12649, Note_on_c, 1, 64, 0
3, 12649, Note_on_c, 1, 60, 0
3, 12650, Note_on_c, 1, 57, 0
3, 12651, Note_on_c, 1, 53, 0
3, 12651, Control_c, 1, 123, 0
3, 12717, Note_on_c, 1, 57, 95
3, 12718, Note_on_c, 1, 60, 97
3, 12718, Note_on_c, 1, 64, 82
3, 12718, Note_on_c, 1, 53, 92
3, 12731, Note_on_c, 1, 64, 0
3, 12734, Note_on_c, 1, 57, 0
3, 12734, Note_on_c, 1, 60, 0
3, 12734, Note_on_c, 1, 53, 0
3, 12734, Control_c, 1, 123, 0
3, 12810, Note_on_c, 1, 64, 92
3, 12810, Note_on_c, 1, 57, 103
3, 12810, Note_on_c, 1, 60, 109
3, 12811, Note_on_c, 1, 53, 92
3, 12834, Note_on_c, 1, 60, 0
3, 12837, Note_on_c, 1, 64, 0
3, 12861, Note_on_c, 1, 57, 0
3, 12861, Note_on_c, 1, 53, 0
3, 12861, Control_c, 1, 123, 0
3, 12903, Note_on_c, 1, 57, 90
3, 12903, Note_on_c, 1, 64, 80
3, 12903, Note_on_c, 1, 60, 84
3, 12904, Note_on_c, 1, 53, 84
3, 12913, Note_on_c, 1, 64, 0
3, 12916, Note_on_c, 1, 60, 0
3, 12918, Note_on_c, 1, 57, 0
3, 12918, Note_on_c, 1, 53, 0
3, 12918, Control_c, 1, 123, 0
3, 12929, Note_on_c, 1, 57, 62
3, 12931, Note_on_c, 1, 60, 70
3, 12931, Note_on_c, 1, 53, 51
3, 12933, Note_on_c, 1, 64, 62
3, 12942, Note_on_c, 1, 57, 0
3, 12944, Note_on_c, 1, 60, 0
3, 12944, Note_on_c, 1, 53, 0
3, 12944, Note_on_c, 1, 64, 0
3, 12944, Control_c, 1, 123, 0
3, 13112, Note_on_c, 1, 58, 90
3, 13113, Note_on_c, 1, 62, 95
3, 13113, Note_on_c, 1, 55, 92
3, 13113, Note_on_c, 1, 65, 88
3, 13127, Note_on_c, 1, 58, 0
3, 13127, Note_on_c, 1, 65, 0
3, 13131, Note_on_c, 1, 62, 0
3, 13131, Note_on_c, 1, 55, 0
3, 13131, Control_c, 1, 123, 0
3, 13200, Note_on_c, 1, 58, 90
3, 13200, Note_on_c, 1, 62, 88
3, 13200, Note_on_c, 1, 55, 95
3, 13200, Note_on_c, 1, 65, 82
3, 13203, Note_on_c, 1, 64, 69
3, 13206, Note_on_c, 1, 64, 0
3, 13257, Note_on_c, 1, 58, 0
3, 13257, Note_on_c, 1, 65, 0
3, 13259, Note_on_c, 1, 62, 0
3, 13259, Note_on_c, 1, 55, 0
3, 13259, Control_c, 1, 123, 0
3, 13287, Note_on_c, 1, 58, 83
3, 13288, Note_on_c, 1, 62, 84
3, 13288, Note_on_c, 1, 65, 80
3, 13288, Note_on_c, 1, 55, 90
3, 13304, Note_on_c, 1, 58, 0
3, 13304, Note_on_c, 1, 65, 0
3, 13306, Note_on_c, 1, 62, 0
3, 13306, Note_on_c, 1, 55, 0
3, 13306, Control_c, 1, 123, 0
3, 13379, Note_on_c, 1, 58, 83
3, 13379, Note_on_c, 1, 62, 88
3, 13379, Note_on_c, 1, 55, 90
3, 13380, Note_on_c, 1, 65, 84
3, 13389, Note_on_c, 1, 65, 0
3, 13391, Note_on_c, 1, 58, 0
3, 13391, Note_on_c, 1, 62, 0
3, 13393, Note_on_c, 1, 55, 0
3, 13393, Control_c, 1, 123, 0
3, 13406, Note_on_c, 1, 58, 75
3, 13408, Note_on_c, 1, 62, 79
3, 13408, Note_on_c, 1, 55, 76
3, 13409, Note_on_c, 1, 65, 79
3, 13421, Note_on_c, 1, 58, 0
3, 13421, Note_on_c, 1, 65, 0
3, 13423, Note_on_c, 1, 62, 0
3, 13425, Note_on_c, 1, 55, 0
3, 13425, Control_c, 1, 123, 0
3, 13588, Note_on_c, 1, 58, 67
3, 13589, Note_on_c, 1, 55, 72
3, 13589, Note_on_c, 1, 62, 66
3, 13589, Note_on_c, 1, 65, 66
3, 13602, Note_on_c, 1, 65, 0
3, 13603, Note_on_c, 1, 62, 0
3, 13607, Note_on_c, 1, 58, 0
3, 13608, Note_on_c, 1, 55, 0
3, 13608, Control_c, 1, 123, 0
3, 13680, Note_on_c, 1, 58, 95
3, 13682, Note_on_c, 1, 62, 92
3, 13682, Note_on_c, 1, 55, 92
3, 13682, Note_on_c, 1, 65, 90
3, 13684, Note_on_c, 1, 64, 64
3, 13688, Note_on_c, 1, 64, 0
3, 13740, Note_on_c, 1, 55, 0
3, 13742, Note_on_c, 1, 58, 0
3, 13742, Note_on_c, 1, 62, 0
3, 13742, Note_on_c, 1, 65, 0
3, 13742, Control_c, 1, 123, 0
3, 13766, Note_on_c, 1, 58, 69
3, 13768, Note_on_c, 1, 55, 73
3, 13768, Note_on_c, 1, 62, 72
3, 13768, Note_on_c, 1, 65, 73
3, 13778, Note_on_c, 1, 58, 0
3, 13780, Note_on_c, 1, 55, 0
3, 13780, Note_on_c, 1, 62, 0
3, 13780, Note_on_c, 1, 65, 0
3, 13780, Control_c, 1, 123, 0
3, 13862, Note_on_c, 1, 58, 106
3, 13862, Note_on_c, 1, 62, 100
3, 13862, Note_on_c, 1, 65, 92
3, 13863, Note_on_c, 1, 55, 97
3, 13875, Note_on_c, 1, 58, 0
3, 13875, Note_on_c, 1, 62, 0
3, 13875, Note_on_c, 1, 65, 0
3, 13875, Note_on_c, 1, 55, 0
3, 13875, Control_c, 1, 123, 0
3, 13889, Note_on_c, 1, 58, 67
3, 13890, Note_on_c, 1, 62, 68
3, 13890, Note_on_c, 1, 55, 62
3, 13892, Note_on_c, 1, 65, 65
3, 13903, Note_on_c, 1, 65, 0
3, 13905, Note_on_c, 1, 62, 0
3, 13906, Note_on_c, 1, 58, 0
3, 13908, Note_on_c, 1, 55, 0
3, 13908, Control_c, 1, 123, 0
3, 14069, Note_on_c, 1, 57, 84
3, 14069, Note_on_c, 1, 60, 90
3, 14069, Note_on_c, 1, 53, 76
3, 14070, Note_on_c, 1, 64, 76
3, 14082, Note_on_c, 1, 64, 0
3, 14084, Note_on_c, 1, 57, 0
3, 14084, Note_on_c, 1, 60, 0
3, 14084, Note_on_c, 1, 53, 0
3, 14084, Control_c, 1, 123, 0
3, 14159, Note_on_c, 1, 57, 95
3, 14159, Note_on_c, 1, 53, 92
3, 14159, Note_on_c, 1, 60, 100
3, 14160, Note_on_c, 1, 64, 86
3, 14220, Note_on_c, 1, 53, 0
3, 14220, Note_on_c, 1, 64, 0
3, 14222, Note_on_c, 1, 57, 0
3, 14222, Note_on_c, 1, 60, 0
3, 14222, Control_c, 1, 123, 0
3, 14246, Note_on_c, 1, 57, 88
3, 14246, Note_on_c, 1, 53, 80
3, 14247, Note_on_c, 1, 64, 77
3, 14247, Note_on_c, 1, 60, 82
3, 14258, Note_on_c, 1, 64, 0
3, 14261, Note_on_c, 1, 60, 0
3, 14263, Note_on_c, 1, 53, 0
3, 14264, Note_on_c, 1, 57, 0
3, 14264, Control_c, 1, 123, 0
3, 14334, Note_on_c, 1, 57, 88
3, 14334, Note_on_c, 1, 64, 80
3, 14335, Note_on_c, 1, 60, 90
3, 14335, Note_on_c, 1, 53, 90
3, 14347, Note_on_c, 1, 64, 0
3, 14351, Note_on_c, 1, 57, 0
3, 14351, Note_on_c, 1, 60, 0
3, 14351, Note_on_c, 1, 53, 0
3, 14351, Control_c, 1, 123, 0
3, 14363, Note_on_c, 1, 57, 77
3, 14365, Note_on_c, 1, 60, 84
3, 14365, Note_on_c, 1, 53, 70
3, 14366, Note_on_c, 1, 64, 72
3, 14381, Note_on_c, 1, 53, 0
3, 14381, Note_on_c, 1, 64, 0
3, 14383, Note_on_c, 1, 57, 0
3, 14383, Note_on_c, 1, 60, 0
3, 14383, Control_c, 1, 123, 0
3, 14550, Note_on_c, 1, 57, 79
3, 14550, Note_on_c, 1, 60, 82
3, 14550, Note_on_c, 1, 64, 72
3, 14550, Note_on_c, 1, 53, 73
3, 14563, Note_on_c, 1, 64, 0
3, 14566, Note_on_c, 1, 60, 0
3, 14566, Note_on_c, 1, 53, 0
3, 14568, Note_on_c, 1, 57, 0
3, 14568, Control_c, 1, 123, 0
3, 14641, Note_on_c, 1, 57, 109
3, 14642, Note_on_c, 1, 60, 113
3, 14642, Note_on_c, 1, 53, 103
3, 14642, Note_on_c, 1, 64, 100
3, 14702, Note_on_c, 1, 53, 0
3, 14704, Note_on_c, 1, 60, 0
3, 14704, Note_on_c, 1, 64, 0
3, 14706, Note_on_c, 1, 57, 0
3, 14706, Control_c, 1, 123, 0
3, 14730, Note_on_c, 1, 57, 88
3, 14730, Note_on_c, 1, 53, 82
3, 14730, Note_on_c, 1, 60, 95
3, 14730, Note_on_c, 1, 64, 84
3, 14746, Note_on_c, 1, 60, 0
3, 14746, Note_on_c, 1, 64, 0
3, 14748, Note_on_c, 1, 57, 0
3, 14748, Note_on_c, 1, 53, 0
3, 14748, Control_c, 1, 123, 0
3, 14821, Note_on_c, 1, 64, 90
3, 14821, Note_on_c, 1, 57, 100
3, 14822, Note_on_c, 1, 60, 103
3, 14822, Note_on_c, 1, 53, 97
3, 14836, Note_on_c, 1, 64, 0
3, 14836, Note_on_c, 1, 60, 0
3, 14838, Note_on_c, 1, 57, 0
3, 14838, Note_on_c, 1, 53, 0
3, 14838, Control_c, 1, 123, 0
3, 14850, Note_on_c, 1, 57, 74
3, 14850, Note_on_c, 1, 60, 77
3, 14851, Note_on_c, 1, 64, 72
3, 14851, Note_on_c, 1, 53, 61
3, 14865, Note_on_c, 1, 53, 0
3, 14867, Note_on_c, 1, 57, 0
3, 14867, Note_on_c, 1, 60, 0
3, 14869, Note_on_c, 1, 64, 0
3, 14869, Control_c, 1, 123, 0
3, 15031, Note_on_c, 1, 58, 83
3, 15033, Note_on_c, 1, 62, 80
3, 15033, Note_on_c, 1, 55, 77
3, 15033, Note_on_c, 1, 65, 60
3, 15041, Note_on_c, 1, 65, 0
3, 15043, Note_on_c, 1, 58, 0
3, 15043, Note_on_c, 1, 62, 0
3, 15046, Note_on_c, 1, 55, 0
3, 15046, Control_c, 1, 123, 0
3, 15118, Note_on_c, 1, 58, 106
3, 15118, Note_on_c, 1, 62, 95
3, 15119, Note_on_c, 1, 55, 97
3, 15119, Note_on_c, 1, 65, 90
3, 15182, Note_on_c, 1, 55, 0
3, 15185, Note_on_c, 1, 58, 0
3, 15185, Note_on_c, 1, 62, 0
3, 15185, Note_on_c, 1, 65, 0
3, 15186, Control_c, 1, 123, 0
3, 15208, Note_on_c, 1, 58, 71
3, 15208, Note_on_c, 1, 62, 80
3, 15209, Note_on_c, 1, 65, 80
3, 15209, Note_on_c, 1, 55, 80
3, 15221, Note_on_c, 1, 58, 0
3, 15223, Note_on_c, 1, 62, 0
3, 15223, Note_on_c, 1, 55, 0
3, 15227, Note_on_c, 1, 65, 0
3, 15227, Control_c, 1, 123, 0
3, 15304, Note_on_c, 1, 58, 86
3, 15304, Note_on_c, 1, 55, 90
3, 15304, Note_on_c, 1, 62, 86
3, 15305, Note_on_c, 1, 65, 86
3, 15315, Note_on_c, 1, 58, 0
3, 15315, Note_on_c, 1, 65, 0
3, 15317, Note_on_c, 1, 62, 0
3, 15319, Note_on_c, 1, 55, 0
3, 15319, Control_c, 1, 123, 0
3, 15333, Note_on_c, 1, 58, 77
3, 15334, Note_on_c, 1, 55, 74
3, 15335, Note_on_c, 1, 62, 84
3, 15335, Note_on_c, 1, 65, 80
3, 15349, Note_on_c, 1, 58, 0
3, 15351, Note_on_c, 1, 55, 0
3, 15351, Note_on_c, 1, 62, 0
3, 15351, Note_on_c, 1, 65, 0
3, 15351, Control_c, 1, 123, 0
3, 15509, Note_on_c, 1, 58, 73
3, 15509, Note_on_c, 1, 55, 73
3, 15509, Note_on_c, 1, 62, 64
3, 15511, Note_on_c, 1, 65, 68
3, 15519, Note_on_c, 1, 65, 0
3, 15522, Note_on_c, 1, 58, 0
3, 15522, Note_on_c, 1, 55, 0
3, 15522, Note_on_c, 1, 62, 0
3, 15523, Control_c, 1, 123, 0
3, 15600, Note_on_c, 1, 58, 95
3, 15600, Note_on_c, 1, 55, 92
3, 15601, Note_on_c, 1, 62, 95
3, 15601, Note_on_c, 1, 65, 88
3, 15658, Note_on_c, 1, 58, 0
3, 15658, Note_on_c, 1, 55, 0
3, 15658, Note_on_c, 1, 62, 0
3, 15660, Note_on_c, 1, 65, 0
3, 15660, Control_c, 1, 123, 0
3, 15688, Note_on_c, 1, 65, 88
3, 15689, Note_on_c, 1, 58, 100
3, 15689, Note_on_c, 1, 62, 95
3, 15689, Note_on_c, 1, 55, 100
3, 15699, Note_on_c, 1, 65, 0
3, 15701, Note_on_c, 1, 58, 0
3, 15701, Note_on_c, 1, 62, 0
3, 15703, Note_on_c, 1, 55, 0
3, 15703, Control_c, 1, 123, 0
3, 15780, Note_on_c, 1, 58, 100
3, 15781, Note_on_c, 1, 55, 92
3, 15782, Note_on_c, 1, 62, 97
3, 15782, Note_on_c, 1, 65, 88
3, 15793, Note_on_c, 1, 65, 0
3, 15795, Note_on_c, 1, 58, 0
3, 15795, Note_on_c, 1, 55, 0
3, 15795, Note_on_c, 1, 62, 0
3, 15795, Control_c, 1, 123, 0
3, 15807, Note_on_c, 1, 58, 65
3, 15809, Note_on_c, 1, 55, 61
3, 15809, Note_on_c, 1, 62, 68
3, 15810, Note_on_c, 1, 65, 63
3, 15819, Note_on_c, 1, 65, 0
3, 15821, Note_on_c, 1, 62, 0
3, 15822, Note_on_c, 1, 58, 0
3, 15826, Note_on_c, 1, 55, 0
3, 15826, Control_c, 1, 123, 0
3, 15990, Note_on_c, 1, 57, 82
3, 15990, Note_on_c, 1, 64, 79
3, 15990, Note_on_c, 1, 53, 74
3, 15992, Note_on_c, 1, 60, 74
3, 16001, Note_on_c, 1, 60, 0
3, 16002, Note_on_c, 1, 64, 0
3, 16005, Note_on_c, 1, 57, 0
3, 16005, Note_on_c, 1, 53, 0
3, 16005, Control_c, 1, 123, 0
3, 16080, Note_on_c, 1, 57, 103
3, 16080, Note_on_c, 1, 53, 100
3, 16080, Note_on_c, 1, 60, 113
3, 16081, Note_on_c, 1, 64, 95
3, 16147, Note_on_c, 1, 57, 0
3, 16147, Note_on_c, 1, 53, 0
3, 16147, Note_on_c, 1, 60, 0
3, 16147, Note_on_c, 1, 64, 0
3, 16147, Control_c, 1, 123, 0
3, 16168, Note_on_c, 1, 57, 79
3, 16169, Note_on_c, 1, 64, 76
3, 16169, Note_on_c, 1, 53, 73
3, 16169, Note_on_c, 1, 60, 73
3, 16185, Note_on_c, 1, 64, 0
3, 16187, Note_on_c, 1, 57, 0
3, 16187, Note_on_c, 1, 53, 0
3, 16187, Note_on_c, 1, 60, 0
3, 16187, Control_c, 1, 123, 0
3, 16260, Note_on_c, 1, 57, 95
3, 16260, Note_on_c, 1, 64, 92
3, 16260, Note_on_c, 1, 53, 84
3, 16261, Note_on_c, 1, 60, 100
3, 16276, Note_on_c, 1, 57, 0
3, 16276, Note_on_c, 1, 64, 0
3, 16276, Note_on_c, 1, 53, 0
3, 16278, Note_on_c, 1, 60, 0
3, 16278, Control_c, 1, 123, 0
3, 16289, Note_on_c, 1, 57, 70
3, 16289, Note_on_c, 1, 60, 69
3, 16289, Note_on_c, 1, 53, 60
3, 16290, Note_on_c, 1, 64, 64
3, 16304, Note_on_c, 1, 57, 0
3, 16304, Note_on_c, 1, 60, 0
3, 16304, Note_on_c, 1, 53, 0
3, 16304, Note_on_c, 1, 64, 0
3, 16304, Control_c, 1, 123, 0
3, 16471, Note_on_c, 1, 57, 80
3, 16471, Note_on_c, 1, 64, 77
3, 16472, Note_on_c, 1, 60, 82
3, 16472, Note_on_c, 1, 53, 72
3, 16483, Note_on_c, 1, 64, 0
3, 16483, Note_on_c, 1, 60, 0
3, 16485, Note_on_c, 1, 53, 0
3, 16486, Note_on_c, 1, 57, 0
3, 16487, Control_c, 1, 123, 0
3, 16558, Note_on_c, 1, 57, 103
3, 16560, Note_on_c, 1, 53, 97
3, 16560, Note_on_c, 1, 64, 95
3, 16560, Note_on_c, 1, 60, 106
3, 16631, Note_on_c, 1, 57, 0
3, 16631, Note_on_c, 1, 53, 0
3, 16631, Note_on_c, 1, 64, 0
3, 16631, Note_on_c, 1, 60, 0
3, 16631, Control_c, 1, 123, 0
3, 16650, Note_on_c, 1, 57, 82
3, 16650, Note_on_c, 1, 53, 77
3, 16650, Note_on_c, 1, 64, 79
3, 16650, Note_on_c, 1, 60, 84
3, 16666, Note_on_c, 1, 53, 0
3, 16666, Note_on_c, 1, 64, 0
3, 16666, Note_on_c, 1, 60, 0
3, 16668, Note_on_c, 1, 57, 0
3, 16668, Control_c, 1, 123, 0
3, 16741, Note_on_c, 1, 53, 88
3, 16743, Note_on_c, 1, 57, 92
3, 16743, Note_on_c, 1, 64, 88
3, 16744, Note_on_c, 1, 60, 95
3, 16757, Note_on_c, 1, 64, 0
3, 16759, Note_on_c, 1, 57, 0
3, 16759, Note_on_c, 1, 60, 0
3, 16761, Note_on_c, 1, 53, 0
3, 16761, Control_c, 1, 123, 0
3, 16772, Note_on_c, 1, 57, 73
3, 16772, Note_on_c, 1, 53, 68
3, 16772, Note_on_c, 1, 60, 80
3, 16773, Note_on_c, 1, 64, 64
3, 16788, Note_on_c, 1, 53, 0
3, 16788, Note_on_c, 1, 60, 0
3, 16790, Note_on_c, 1, 57, 0
3, 16792, Note_on_c, 1, 64, 0
3, 16792, Control_c, 1, 123, 0
3, 16952, Note_on_c, 1, 58, 60
3, 16953, Note_on_c, 1, 55, 67
3, 16955, Note_on_c, 1, 65, 59
3, 16955, Note_on_c, 1, 62, 55
3, 16964, Note_on_c, 1, 65, 0
3, 16964, Note_on_c, 1, 62, 0
3, 16965, Note_on_c, 1, 58, 0
3, 16968, Note_on_c, 1, 55, 0
3, 16968, Control_c, 1, 123, 0
3, 17041, Note_on_c, 1, 58, 106
3, 17042, Note_on_c, 1, 62, 97
3, 17042, Note_on_c, 1, 65, 95
3, 17042, Note_on_c, 1, 55, 100
3, 17104, Note_on_c, 1, 55, 0
3, 17105, Note_on_c, 1, 58, 0
3, 17107, Note_on_c, 1, 62, 0
3, 17107, Note_on_c, 1, 65, 0
3, 17107, Control_c, 1, 123, 0
3, 17127, Note_on_c, 1, 58, 58
3, 17127, Note_on_c, 1, 65, 63
3, 17127, Note_on_c, 1, 62, 60
3, 17129, Note_on_c, 1, 55, 69
3, 17139, Note_on_c, 1, 58, 0
3, 17140, Note_on_c, 1, 55, 0
3, 17141, Note_on_c, 1, 65, 0
3, 17141, Note_on_c, 1, 62, 0
3, 17141, Control_c, 1, 123, 0
3, 17221, Note_on_c, 1, 58, 90
3, 17221, Note_on_c, 1, 55, 88
3, 17222, Note_on_c, 1, 62, 90
3, 17222, Note_on_c, 1, 65, 90
3, 17236, Note_on_c, 1, 58, 0
3, 17236, Note_on_c, 1, 55, 0
3, 17236, Note_on_c, 1, 62, 0
3, 17236, Note_on_c, 1, 65, 0
3, 17236, Control_c, 1, 123, 0
3, 17249, Note_on_c, 1, 58, 61
3, 17250, Note_on_c, 1, 55, 61
3, 17251, Note_on_c, 1, 65, 68
3, 17251, Note_on_c, 1, 62, 60
3, 17267, Note_on_c, 1, 58, 0
3, 17267, Note_on_c, 1, 65, 0
3, 17267, Note_on_c, 1, 62, 0
3, 17269, Note_on_c, 1, 55, 0
3, 17269, Control_c, 1, 123, 0
3, 17429, Note_on_c, 1, 58, 67
3, 17429, Note_on_c, 1, 62, 73
3, 17431, Note_on_c, 1, 65, 65
3, 17432, Note_on_c, 1, 55, 69
3, 17439, Note_on_c, 1, 65, 0
3, 17440, Note_on_c, 1, 58, 0
3, 17441, Note_on_c, 1, 55, 0
3, 17442, Note_on_c, 1, 62, 0
3, 17442, Control_c, 1, 123, 0
3, 17519, Note_on_c, 1, 58, 100
3, 17520, Note_on_c, 1, 65, 90
3, 17520, Note_on_c, 1, 62, 100
3, 17520, Note_on_c, 1, 55, 97
3, 17585, Note_on_c, 1, 58, 0
3, 17586, Note_on_c, 1, 65, 0
3, 17586, Note_on_c, 1, 55, 0
3, 17587, Note_on_c, 1, 62, 0
3, 17587, Control_c, 1, 123, 0
3, 17606, Note_on_c, 1, 58, 71
3, 17607, Note_on_c, 1, 62, 74
3, 17607, Note_on_c, 1, 65, 77
3, 17607, Note_on_c, 1, 55, 82
3, 17618, Note_on_c, 1, 58, 0
3, 17618, Note_on_c, 1, 65, 0
3, 17620, Note_on_c, 1, 62, 0
3, 17622, Note_on_c, 1, 55, 0
3, 17622, Control_c, 1, 123, 0
3, 17700, Note_on_c, 1, 58, 100
3, 17701, Note_on_c, 1, 62, 97
3, 17701, Note_on_c, 1, 55, 100
3, 17701, Note_on_c, 1, 65, 95
3, 17712, Note_on_c, 1, 65, 0
3, 17714, Note_on_c, 1, 58, 0
3, 17714, Note_on_c, 1, 62, 0
3, 17716, Note_on_c, 1, 55, 0
3, 17716, Control_c, 1, 123, 0
3, 17728, Note_on_c, 1, 58, 64
3, 17730, Note_on_c, 1, 55, 57
3, 17730, Note_on_c, 1, 62, 64
3, 17730, Note_on_c, 1, 65, 62
3, 17743, Note_on_c, 1, 62, 0
3, 17743, Note_on_c, 1, 65, 0
3, 17746, Note_on_c, 1, 58, 0
3, 17747, Note_on_c, 1, 55, 0
3, 17747, Control_c, 1, 123, 0
3, 17909, Note_on_c, 1, 53, 66
3, 17911, Note_on_c, 1, 57, 69
3, 17913, Note_on_c, 1, 60, 71
3, 17913, Note_on_c, 1, 64, 63
3, 17928, Note_on_c, 1, 64, 0
3, 17930, Note_on_c, 1, 57, 0
3, 17930, Note_on_c, 1, 60, 0
3, 17932, Note_on_c, 1, 53, 0
3, 17932, Control_c, 1, 123, 0
3, 17996, Note_on_c, 1, 57, 106
3, 17997, Note_on_c, 1, 53, 100
3, 17997, Note_on_c, 1, 64, 97
3, 17997, Note_on_c, 1, 60, 109
3, 18066, Note_on_c, 1, 60, 0
3, 18067, Note_on_c, 1, 57, 0
3, 18067, Note_on_c, 1, 53, 0
3, 18067, Note_on_c, 1, 64, 0
3, 18067, Control_c, 1, 123, 0
3, 18084, Note_on_c, 1, 57, 63
3, 18084, Note_on_c, 1, 53, 58
3, 18086, Note_on_c, 1, 64, 58
3, 18088, Note_on_c, 1, 60, 49
3, 18097, Note_on_c, 1, 64, 0
3, 18097, Note_on_c, 1, 60, 0
3, 18099, Note_on_c, 1, 57, 0
3, 18100, Note_on_c, 1, 53, 0
3, 18100, Control_c, 1, 123, 0
3, 18179, Note_on_c, 1, 64, 86
3, 18180, Note_on_c, 1, 57, 95
3, 18180, Note_on_c, 1, 53, 88
3, 18180, Note_on_c, 1, 60, 90
3, 18196, Note_on_c, 1, 64, 0
3, 18196, Note_on_c, 1, 57, 0
3, 18196, Note_on_c, 1, 53, 0
3, 18196, Note_on_c, 1, 60, 0
3, 18196, Control_c, 1, 123, 0
3, 18209, Note_on_c, 1, 60, 73
3, 18209, Note_on_c, 1, 57, 77
3, 18209, Note_on_c, 1, 53, 66
3, 18210, Note_on_c, 1, 64, 77
3, 18227, Note_on_c, 1, 60, 0
3, 18227, Note_on_c, 1, 57, 0
3, 18227, Note_on_c, 1, 53, 0
3, 18227, Note_on_c, 1, 64, 0
3, 18227, Control_c, 1, 123, 0
3, 18389, Note_on_c, 1, 57, 84
3, 18390, Note_on_c, 1, 64, 77
3, 18390, Note_on_c, 1, 53, 79
3, 18390, Note_on_c, 1, 60, 77
3, 18401, Note_on_c, 1, 64, 0
3, 18403, Note_on_c, 1, 60, 0
3, 18405, Note_on_c, 1, 53, 0
3, 18406, Note_on_c, 1, 57, 0
3, 18407, Control_c, 1, 123, 0
3, 18480, Note_on_c, 1, 57, 106
3, 18480, Note_on_c, 1, 60, 103
3, 18480, Note_on_c, 1, 64, 100
3, 18480, Note_on_c, 1, 53, 103
3, 18546, Note_on_c, 1, 64, 0
3, 18547, Note_on_c, 1, 57, 0
3, 18548, Note_on_c, 1, 60, 0
3, 18548, Note_on_c, 1, 53, 0
3, 18549, Control_c, 1, 123, 0
3, 18570, Note_on_c, 1, 57, 90
3, 18570, Note_on_c, 1, 53, 88
3, 18570, Note_on_c, 1, 64, 80
3, 18570, Note_on_c, 1, 60, 84
3, 18588, Note_on_c, 1, 57, 0
3, 18588, Note_on_c, 1, 64, 0
3, 18589, Note_on_c, 1, 60, 0
3, 18591, Note_on_c, 1, 53, 0
3, 18591, Control_c, 1, 123, 0
3, 18659, Note_on_c, 1, 57, 88
3, 18660, Note_on_c, 1, 64, 84
3, 18660, Note_on_c, 1, 53, 90
3, 18660, Note_on_c, 1, 60, 90
3, 18676, Note_on_c, 1, 57, 0
3, 18676, Note_on_c, 1, 64, 0
3, 18676, Note_on_c, 1, 60, 0
3, 18678, Note_on_c, 1, 53, 0
3, 18678, Control_c, 1, 123, 0
3, 18689, Note_on_c, 1, 57, 73
3, 18689, Note_on_c, 1, 60, 80
3, 18691, Note_on_c, 1, 53, 62
3, 18692, Note_on_c, 1, 64, 67
3, 18708, Note_on_c, 1, 53, 0
3, 18709, Note_on_c, 1, 57, 0
3, 18709, Note_on_c, 1, 60, 0
3, 18710, Note_on_c, 1, 64, 0
3, 18710, Control_c, 1, 123, 0
3, 18871, Note_on_c, 1, 58, 83
3, 18872, Note_on_c, 1, 55, 88
3, 18872, Note_on_c, 1, 62, 84
3, 18872, Note_on_c, 1, 65, 79
3, 18883, Note_on_c, 1, 65, 0
3, 18886, Note_on_c, 1, 58, 0
3, 18886, Note_on_c, 1, 62, 0
3, 18888, Note_on_c, 1, 55, 0
3, 18888, Control_c, 1, 123, 0
3, 18959, Note_on_c, 1, 58, 106
3, 18959, Note_on_c, 1, 55, 103
3, 18959, Note_on_c, 1, 65, 88
3, 18960, Note_on_c, 1, 62, 100
3, 18962, Note_on_c, 1, 64, 80
3, 18965, Note_on_c, 1, 64, 0
3, 19028, Note_on_c, 1, 58, 0
3, 19028, Note_on_c, 1, 65, 0
3, 19030, Note_on_c, 1, 55, 0
3, 19030, Note_on_c, 1, 62, 0
3, 19030, Control_c, 1, 123, 0
3, 19049, Note_on_c, 1, 58, 60
3, 19050, Note_on_c, 1, 55, 73
3, 19052, Note_on_c, 1, 65, 56
3, 19052, Note_on_c, 1, 62, 58
3, 19060, Note_on_c, 1, 58, 0
3, 19060, Note_on_c, 1, 65, 0
3, 19060, Note_on_c, 1, 62, 0
3, 19065, Note_on_c, 1, 55, 0
3, 19065, Control_c, 1, 123, 0
3, 19139, Note_on_c, 1, 58, 95
3, 19139, Note_on_c, 1, 55, 95
3, 19140, Note_on_c, 1, 62, 88
3, 19140, Note_on_c, 1, 65, 82
3, 19143, Note_on_c, 1, 64, 65
3, 19147, Note_on_c, 1, 64, 0
3, 19152, Note_on_c, 1, 65, 0
3, 19155, Note_on_c, 1, 58, 0
3, 19155, Note_on_c, 1, 62, 0
3, 19157, Note_on_c, 1, 55, 0
3, 19157, Control_c, 1, 123, 0
3, 19167, Note_on_c, 1, 58, 58
3, 19169, Note_on_c, 1, 55, 52
3, 19170, Note_on_c, 1, 62, 60
3, 19170, Note_on_c, 1, 65, 56
3, 19181, Note_on_c, 1, 58, 0
3, 19181, Note_on_c, 1, 62, 0
3, 19181, Note_on_c, 1, 65, 0
3, 19184, Note_on_c, 1, 55, 0
3, 19185, Control_c, 1, 123, 0
3, 19348, Note_on_c, 1, 58, 69
3, 19348, Note_on_c, 1, 55, 76
3, 19348, Note_on_c, 1, 62, 67
3, 19350, Note_on_c, 1, 65, 58
3, 19358, Note_on_c, 1, 65, 0
3, 19363, Note_on_c, 1, 62, 0
3, 19364, Note_on_c, 1, 58, 0
3, 19365, Note_on_c, 1, 55, 0
3, 19365, Control_c, 1, 123, 0
3, 19504, Note_on_c, 1, 50, 103
3, 19555, Note_on_c, 1, 50, 0
3, 19555, Control_c, 1, 123, 0
3, 19679, Note_on_c, 1, 64, 80
3, 19679, Note_on_c, 1, 60, 92
3, 19679, Note_on_c, 1, 57, 82
3, 19680, Note_on_c, 1, 53, 82
3, 19697, Note_on_c, 1, 64, 0
3, 19697, Note_on_c, 1, 53, 0
3, 19699, Note_on_c, 1, 60, 0
3, 19699, Note_on_c, 1, 57, 0
3, 19699, Control_c, 1, 123, 0
3, 19800, Note_on_c, 1, 59, 53
3, 19801, Note_on_c, 1, 57, 92
3, 19801, Note_on_c, 1, 60, 97
3, 19802, Note_on_c, 1, 64, 84
3, 19802, Note_on_c, 1, 53, 90
3, 19814, Note_on_c, 1, 64, 0
3, 19817, Control_c, 1, 123, 0
3, 19818, Note_on_c, 1, 57, 0
3, 19818, Note_on_c, 1, 53, 0
3, 19820, Note_on_c, 1, 60, 0
3, 19820, Control_c, 1, 123, 0
3, 19821, Note_on_c, 1, 59, 0
3, 19860, Note_on_c, 1, 57, 64
3, 19881, Control_c, 1, 123, 0
3, 19884, Note_on_c, 1, 57, 0
3, 19923, Note_on_c, 1, 57, 90
3, 19924, Note_on_c, 1, 64, 86
3, 19924, Note_on_c, 1, 60, 92
3, 19924, Note_on_c, 1, 53, 88
3, 19938, Note_on_c, 1, 64, 0
3, 19940, Note_on_c, 1, 57, 0
3, 19940, Note_on_c, 1, 60, 0
3, 19940, Note_on_c, 1, 53, 0
3, 19940, Control_c, 1, 123, 0
3, 19980, Note_on_c, 1, 50, 100
3, 20007, Control_c, 1, 123, 0
3, 20011, Note_on_c, 1, 50, 0
3, 20040, Note_on_c, 1, 57, 95
3, 20040, Note_on_c, 1, 53, 92
3, 20041, Note_on_c, 1, 64, 88
3, 20042, Note_on_c, 1, 60, 95
3, 20042, Note_on_c, 1, 53, 90
3, 20058, Note_on_c, 1, 53, 0
3, 20058, Note_on_c, 1, 64, 0
3, 20059, Note_on_c, 1, 60, 0
3, 20060, Note_on_c, 1, 57, 0
3, 20060, Control_c, 1, 123, 0
3, 20062, Control_c, 1, 123, 0
3, 20068, Note_on_c, 1, 53, 0
3, 20100, Note_on_c, 1, 57, 97
3, 20139, Control_c, 1, 123, 0
3, 20144, Note_on_c, 1, 57, 0
3, 20160, Note_on_c, 1, 57, 90
3, 20160, Note_on_c, 1, 64, 82
3, 20160, Note_on_c, 1, 60, 90
3, 20160, Note_on_c, 1, 53, 86
3, 20176, Note_on_c, 1, 57, 0
3, 20176, Note_on_c, 1, 64, 0
3, 20176, Note_on_c, 1, 60, 0
3, 20176, Note_on_c, 1, 53, 0
3, 20176, Control_c, 1, 123, 0
3, 20283, Note_on_c, 1, 57, 92
3, 20283, Note_on_c, 1, 60, 95
3, 20284, Note_on_c, 1, 64, 86
3, 20284, Note_on_c, 1, 53, 86
3, 20298, Note_on_c, 1, 64, 0
3, 20300, Note_on_c, 1, 57, 0
3, 20300, Note_on_c, 1, 60, 0
3, 20300, Note_on_c, 1, 53, 0
3, 20300, Control_c, 1, 123, 0
3, 20402, Note_on_c, 1, 57, 92
3, 20402, Note_on_c, 1, 64, 88
3, 20402, Note_on_c, 1, 60, 97
3, 20403, Note_on_c, 1, 53, 86
3, 20417, Note_on_c, 1, 64, 0
3, 20418, Note_on_c, 1, 60, 0
3, 20419, Note_on_c, 1, 57, 0
3, 20419, Note_on_c, 1, 53, 0
3, 20419, Control_c, 1, 123, 0
3, 20460, Note_on_c, 1, 50, 106
3, 20484, Control_c, 1, 123, 0
3, 20486, Note_on_c, 1, 50, 0
3, 20520, Note_on_c, 1, 53, 97
3, 20523, Note_on_c, 1, 57, 92
3, 20523, Note_on_c, 1, 64, 88
3, 20524, Note_on_c, 1, 53, 86
3, 20524, Note_on_c, 1, 60, 95
3, 20539, Note_on_c, 1, 53, 0
3, 20539, Note_on_c, 1, 57, 0
3, 20540, Note_on_c, 1, 64, 0
3, 20540, Note_on_c, 1, 60, 0
3, 20540, Control_c, 1, 123, 0
3, 20545, Note_on_c, 1, 53, 0
3, 20546, Control_c, 1, 123, 0
3, 20580, Note_on_c, 1, 55, 109
3, 20619, Control_c, 1, 123, 0
3, 20622, Note_on_c, 1, 55, 0
3, 20643, Note_on_c, 1, 58, 86
3, 20643, Note_on_c, 1, 62, 95
3, 20645, Note_on_c, 1, 55, 95
3, 20645, Note_on_c, 1, 65, 90
3, 20659, Note_on_c, 1, 58, 0
3, 20661, Note_on_c, 1, 55, 0
3, 20663, Note_on_c, 1, 62, 0
3, 20663, Note_on_c, 1, 65, 0
3, 20663, Control_c, 1, 123, 0
3, 20765, Note_on_c, 1, 58, 83
3, 20765, Note_on_c, 1, 62, 88
3, 20765, Note_on_c, 1, 65, 84
3, 20766, Note_on_c, 1, 55, 90
3, 20780, Note_on_c, 1, 58, 0
3, 20780, Note_on_c, 1, 65, 0
3, 20780, Note_on_c, 1, 55, 0
3, 20782, Note_on_c, 1, 62, 0
3, 20782, Control_c, 1, 123, 0
3, 20880, Note_on_c, 1, 58, 86
3, 20881, Note_on_c, 1, 62, 86
3, 20881, Note_on_c, 1, 55, 90
3, 20882, Note_on_c, 1, 65, 86
3, 20895, Note_on_c, 1, 58, 0
3, 20895, Note_on_c, 1, 65, 0
3, 20896, Note_on_c, 1, 55, 0
3, 20897, Note_on_c, 1, 62, 0
3, 20897, Control_c, 1, 123, 0
3, 20940, Note_on_c, 1, 50, 106
3, 20960, Control_c, 1, 123, 0
3, 20965, Note_on_c, 1, 50, 0
3, 21000, Note_on_c, 1, 58, 83
3, 21000, Note_on_c, 1, 62, 86
3, 21000, Note_on_c, 1, 65, 88
3, 21000, Note_on_c, 1, 55, 90
3, 21000, Note_on_c, 1, 53, 100
3, 21013, Note_on_c, 1, 65, 0
3, 21015, Note_on_c, 1, 58, 0
3, 21015, Note_on_c, 1, 62, 0
3, 21017, Note_on_c, 1, 55, 0
3, 21017, Control_c, 1, 123, 0
3, 21024, Control_c, 1, 123, 0
3, 21027, Note_on_c, 1, 53, 0
3, 21060, Note_on_c, 1, 55, 90
3, 21079, Control_c, 1, 123, 0
3, 21085, Note_on_c, 1, 55, 0
3, 21120, Note_on_c, 1, 58, 80
3, 21120, Note_on_c, 1, 57, 97
3, 21121, Note_on_c, 1, 62, 82
3, 21122, Note_on_c, 1, 65, 88
3, 21122, Note_on_c, 1, 55, 84
3, 21138, Note_on_c, 1, 58, 0
3, 21138, Note_on_c, 1, 55, 0
3, 21140, Note_on_c, 1, 62, 0
3, 21140, Note_on_c, 1, 65, 0
3, 21140, Control_c, 1, 123, 0
3, 21229, Control_c, 1, 123, 0
3, 21230, Note_on_c, 1, 57, 0
3, 21240, Note_on_c, 1, 58, 83
3, 21240, Note_on_c, 1, 62, 86
3, 21240, Note_on_c, 1, 65, 88
3, 21240, Note_on_c, 1, 55, 97
3, 21241, Note_on_c, 1, 55, 86
3, 21254, Note_on_c, 1, 65, 0
3, 21256, Note_on_c, 1, 58, 0
3, 21256, Note_on_c, 1, 62, 0
3, 21256, Note_on_c, 1, 55, 0
3, 21256, Control_c, 1, 123, 0
3, 21300, Note_on_c, 1, 53, 95
3, 21305, Note_on_c, 1, 55, 0
3, 21338, Control_c, 1, 123, 0
3, 21346, Note_on_c, 1, 53, 0
3, 21360, Note_on_c, 1, 58, 95
3, 21360, Note_on_c, 1, 55, 97
3, 21362, Note_on_c, 1, 62, 88
3, 21362, Note_on_c, 1, 55, 88
3, 21363, Note_on_c, 1, 65, 88
3, 21374, Note_on_c, 1, 65, 0
3, 21375, Note_on_c, 1, 58, 0
3, 21375, Note_on_c, 1, 55, 0
3, 21377, Note_on_c, 1, 62, 0
3, 21377, Control_c, 1, 123, 0
3, 21398, Control_c, 1, 123, 0
3, 21410, Note_on_c, 1, 55, 0
3, 21420, Note_on_c, 1, 50, 100
3, 21444, Control_c, 1, 123, 0
3, 21451, Note_on_c, 1, 50, 0
3, 21480, Note_on_c, 1, 58, 90
3, 21480, Note_on_c, 1, 53, 103
3, 21481, Note_on_c, 1, 62, 88
3, 21482, Note_on_c, 1, 55, 88
3, 21482, Note_on_c, 1, 65, 90
3, 21496, Note_on_c, 1, 58, 0
3, 21496, Note_on_c, 1, 55, 0
3, 21496, Note_on_c, 1, 65, 0
3, 21498, Note_on_c, 1, 62, 0
3, 21498, Control_c, 1, 123, 0
3, 21505, Control_c, 1, 123, 0
3, 21514, Note_on_c, 1, 53, 0
3, 21540, Note_on_c, 1, 57, 95
3, 21579, Control_c, 1, 123, 0
3, 21587, Note_on_c, 1, 57, 0
3, 21601, Note_on_c, 1, 64, 86
3, 21601, Note_on_c, 1, 60, 90
3, 21602, Note_on_c, 1, 57, 90
3, 21602, Note_on_c, 1, 53, 86
3, 21617, Note_on_c, 1, 57, 0
3, 21617, Note_on_c, 1, 53, 0
3, 21618, Note_on_c, 1, 64, 0
3, 21618, Note_on_c, 1, 60, 0
3, 21618, Control_c, 1, 123, 0
3, 21723, Note_on_c, 1, 60, 97
3, 21723, Note_on_c, 1, 57, 95
3, 21724, Note_on_c, 1, 64, 90
3, 21724, Note_on_c, 1, 53, 90
3, 21738, Note_on_c, 1, 64, 0
3, 21739, Note_on_c, 1, 53, 0
3, 21740, Note_on_c, 1, 60, 0
3, 21740, Note_on_c, 1, 57, 0
3, 21740, Control_c, 1, 123, 0
3, 21840, Note_on_c, 1, 57, 95
3, 21840, Note_on_c, 1, 60, 95
3, 21841, Note_on_c, 1, 64, 90
3, 21841, Note_on_c, 1, 53, 86
3, 21854, Note_on_c, 1, 64, 0
3, 21855, Note_on_c, 1, 60, 0
3, 21855, Note_on_c, 1, 53, 0
3, 21856, Note_on_c, 1, 57, 0
3, 21856, Control_c, 1, 123, 0
3, 21900, Note_on_c, 1, 50, 103
3, 21921, Control_c, 1, 123, 0
3, 21926, Note_on_c, 1, 50, 0
3, 21956, Note_on_c, 1, 57, 88
3, 21957, Note_on_c, 1, 64, 86
3, 21957, Note_on_c, 1, 60, 95
3, 21958, Note_on_c, 1, 53, 80
3, 21960, Note_on_c, 1, 53, 95
3, 21973, Note_on_c, 1, 57, 0
3, 21973, Note_on_c, 1, 64, 0
3, 21973, Note_on_c, 1, 53, 0
3, 21975, Note_on_c, 1, 60, 0
3, 21975, Control_c, 1, 123, 0
3, 21988, Control_c, 1, 123, 0
3, 21989, Note_on_c, 1, 53, 0
3, 22020, Note_on_c, 1, 57, 92
3, 22050, Control_c, 1, 123, 0
3, 22053, Note_on_c, 1, 57, 0
3, 22081, Note_on_c, 1, 57, 90
3, 22081, Note_on_c, 1, 60, 92
3, 22082, Note_on_c, 1, 64, 86
3, 22082, Note_on_c, 1, 53, 84
3, 22096, Note_on_c, 1, 64, 0
3, 22097, Note_on_c, 1, 53, 0
3, 22098, Note_on_c, 1, 57, 0
3, 22098, Note_on_c, 1, 60, 0
3, 22098, Control_c, 1, 123, 0
3, 22201, Note_on_c, 1, 57, 92
3, 22202, Note_on_c, 1, 64, 86
3, 22202, Note_on_c, 1, 60, 90
3, 22202, Note_on_c, 1, 53, 86
3, 22216, Note_on_c, 1, 64, 0
3, 22218, Note_on_c, 1, 57, 0
3, 22218, Note_on_c, 1, 60, 0
3, 22218, Note_on_c, 1, 53, 0
3, 22218, Control_c, 1, 123, 0
3, 22322, Note_on_c, 1, 57, 84
3, 22322, Note_on_c, 1, 64, 82
3, 22322, Note_on_c, 1, 60, 86
3, 22323, Note_on_c, 1, 53, 82
3, 22335, Note_on_c, 1, 64, 0
3, 22337, Note_on_c, 1, 57, 0
3, 22337, Note_on_c, 1, 60, 0
3, 22337, Note_on_c, 1, 53, 0
3, 22337, Control_c, 1, 123, 0
3, 22380, Note_on_c, 1, 50, 106
3, 22399, Control_c, 1, 123, 0
3, 22404, Note_on_c, 1, 50, 0
3, 22439, Note_on_c, 1, 57, 90
3, 22440, Note_on_c, 1, 60, 88
3, 22440, Note_on_c, 1, 64, 84
3, 22440, Note_on_c, 1, 53, 82
3, 22440, Note_on_c, 1, 53, 90
3, 22456, Note_on_c, 1, 57, 0
3, 22456, Note_on_c, 1, 60, 0
3, 22456, Note_on_c, 1, 64, 0
3, 22456, Note_on_c, 1, 53, 0
3, 22456, Control_c, 1, 123, 0
3, 22464, Control_c, 1, 123, 0
3, 22468, Note_on_c, 1, 53, 0
3, 22500, Note_on_c, 1, 55, 106
3, 22538, Control_c, 1, 123, 0
3, 22543, Note_on_c, 1, 55, 0
3, 22559, Note_on_c, 1, 58, 86
3, 22560, Note_on_c, 1, 62, 84
3, 22562, Note_on_c, 1, 65, 86
3, 22562, Note_on_c, 1, 55, 88
3, 22573, Note_on_c, 1, 65, 0
3, 22575, Note_on_c, 1, 55, 0
3, 22576, Note_on_c, 1, 58, 0
3, 22576, Note_on_c, 1, 62, 0
3, 22576, Control_c, 1, 123, 0
3, 22681, Note_on_c, 1, 58, 86
3, 22682, Note_on_c, 1, 62, 86
3, 22682, Note_on_c, 1, 65, 88
3, 22682, Note_on_c, 1, 55, 90
3, 22695, Note_on_c, 1, 58, 0
3, 22695, Note_on_c, 1, 65, 0
3, 22696, Note_on_c, 1, 55, 0
3, 22697, Note_on_c, 1, 62, 0
3, 22697, Control_c, 1, 123, 0
3, 22798, Note_on_c, 1, 58, 83
3, 22799, Note_on_c, 1, 62, 86
3, 22799, Note_on_c, 1, 55, 90
3, 22800, Note_on_c, 1, 65, 86
3, 22812, Note_on_c, 1, 58, 0
3, 22812, Note_on_c, 1, 65, 0
3, 22814, Note_on_c, 1, 62, 0
3, 22814, Note_on_c, 1, 55, 0
3, 22814, Control_c, 1, 123, 0
3, 22860, Note_on_c, 1, 50, 106
3, 22880, Control_c, 1, 123, 0
3, 22882, Note_on_c, 1, 50, 0
3, 22920, Note_on_c, 1, 58, 80
3, 22920, Note_on_c, 1, 62, 86
3, 22920, Note_on_c, 1, 53, 84
3, 22921, Note_on_c, 1, 65, 86
3, 22922, Note_on_c, 1, 55, 84
3, 22933, Note_on_c, 1, 65, 0
3, 22934, Note_on_c, 1, 58, 0
3, 22935, Note_on_c, 1, 62, 0
3, 22935, Note_on_c, 1, 55, 0
3, 22935, Control_c, 1, 123, 0
3, 22939, Control_c, 1, 123, 0
3, 22944, Note_on_c, 1, 53, 0
3, 22980, Note_on_c, 1, 55, 86
3, 22997, Control_c, 1, 123, 0
3, 23005, Note_on_c, 1, 55, 0
3, 23040, Note_on_c, 1, 58, 86
3, 23040, Note_on_c, 1, 57, 97
3, 23043, Note_on_c, 1, 62, 84
3, 23043, Note_on_c, 1, 65, 84
3, 23043, Note_on_c, 1, 55, 86
3, 23054, Note_on_c, 1, 58, 0
3, 23054, Note_on_c, 1, 65, 0
3, 23056, Note_on_c, 1, 62, 0
3, 23056, Note_on_c, 1, 55, 0
3, 23056, Control_c, 1, 123, 0
3, 23148, Control_c, 1, 123, 0
3, 23152, Note_on_c, 1, 57, 0
3, 23160, Note_on_c, 1, 55, 103
3, 23163, Note_on_c, 1, 58, 80
3, 23163, Note_on_c, 1, 62, 82
3, 23164, Note_on_c, 1, 65, 79
3, 23164, Note_on_c, 1, 55, 86
3, 23173, Note_on_c, 1, 65, 0
3, 23175, Note_on_c, 1, 58, 0
3, 23175, Note_on_c, 1, 62, 0
3, 23177, Note_on_c, 1, 55, 0
3, 23177, Control_c, 1, 123, 0
3, 23207, Control_c, 1, 123, 0
3, 23219, Note_on_c, 1, 55, 0
3, 23220, Note_on_c, 1, 53, 103
3, 23239, Control_c, 1, 123, 0
3, 23249, Note_on_c, 1, 53, 0
3, 23279, Note_on_c, 1, 58, 80
3, 23280, Note_on_c, 1, 55, 106
3, 23281, Note_on_c, 1, 62, 76
3, 23282, Note_on_c, 1, 55, 80
3, 23282, Note_on_c, 1, 65, 69
3, 23292, Note_on_c, 1, 65, 0
3, 23293, Note_on_c, 1, 58, 0
3, 23293, Note_on_c, 1, 55, 0
3, 23293, Note_on_c, 1, 62, 0
3, 23294, Control_c, 1, 123, 0
3, 23314, Control_c, 1, 123, 0
3, 23324, Note_on_c, 1, 55, 0
3, 23340, Note_on_c, 1, 53, 122
3, 23397, Note_on_c, 1, 58, 80
3, 23398, Note_on_c, 1, 62, 84
3, 23398, Note_on_c, 1, 65, 88
3, 23398, Note_on_c, 1, 55, 80
3, 23412, Note_on_c, 1, 58, 0
3, 23412, Note_on_c, 1, 62, 0
3, 23412, Note_on_c, 1, 65, 0
3, 23413, Note_on_c, 1, 55, 0
3, 23413, Control_c, 1, 123, 0
3, 23519, Note_on_c, 1, 58, 86
3, 23519, Note_on_c, 1, 62, 86
3, 23520, Note_on_c, 1, 55, 86
3, 23520, Note_on_c, 1, 65, 86
3, 23531, Note_on_c, 1, 65, 0
3, 23533, Note_on_c, 1, 58, 0
3, 23533, Note_on_c, 1, 62, 0
3, 23533, Note_on_c, 1, 55, 0
3, 23533, Control_c, 1, 123, 0
3, 23639, Note_on_c, 1, 58, 80
3, 23639, Note_on_c, 1, 62, 82
3, 23640, Note_on_c, 1, 65, 80
3, 23640, Note_on_c, 1, 55, 82
3, 23651, Note_on_c, 1, 65, 0
3, 23653, Note_on_c, 1, 58, 0
3, 23653, Note_on_c, 1, 62, 0
3, 23653, Note_on_c, 1, 55, 0
3, 23653, Control_c, 1, 123, 0
3, 23759, Note_on_c, 1, 58, 77
3, 23761, Note_on_c, 1, 55, 82
3, 23762, Note_on_c, 1, 62, 79
3, 23762, Note_on_c, 1, 65, 77
3, 23771, Note_on_c, 1, 65, 0
3, 23775, Note_on_c, 1, 58, 0
3, 23775, Note_on_c, 1, 55, 0
3, 23775, Note_on_c, 1, 62, 0
3, 23775, Control_c, 1, 123, 0
3, 23880, Note_on_c, 1, 58, 90
3, 23880, Note_on_c, 1, 55, 88
3, 23880, Note_on_c, 1, 62, 86
3, 23882, Note_on_c, 1, 65, 77
3, 23884, Note_on_c, 1, 64, 69
3, 23888, Note_on_c, 1, 64, 0
3, 23895, Note_on_c, 1, 65, 0
3, 23897, Note_on_c, 1, 58, 0
3, 23897, Note_on_c, 1, 55, 0
3, 23897, Note_on_c, 1, 62, 0
3, 23897, Control_c, 1, 123, 0
3, 24030, Control_c, 1, 123, 0
3, 24035, Note_on_c, 1, 53, 0
3, 31806, Note_on_c, 1, 57, 64
3, 31808, Note_on_c, 1, 64, 56
3, 31808, Note_on_c, 1, 53, 58
3, 31808, Note_on_c, 1, 60, 58
3, 31816, Note_on_c, 1, 64, 0
3, 31816, Note_on_c, 1, 60, 0
3, 31818, Note_on_c, 1, 57, 0
3, 31818, Note_on_c, 1, 53, 0
3, 31818, Control_c, 1, 123, 0
3, 31896, Note_on_c, 1, 57, 84
3, 31896, Note_on_c, 1, 53, 79
3, 31896, Note_on_c, 1, 64, 67
3, 31897, Note_on_c, 1, 60, 71
3, 31905, Note_on_c, 1, 64, 0
3, 31905, Note_on_c, 1, 60, 0
3, 31906, Note_on_c, 1, 53, 0
3, 31907, Note_on_c, 1, 57, 0
3, 31907, Control_c, 1, 123, 0
3, 31984, Note_on_c, 1, 57, 95
3, 31985, Note_on_c, 1, 64, 88
3, 31985, Note_on_c, 1, 60, 97
3, 31985, Note_on_c, 1, 53, 86
3, 32051, Note_on_c, 1, 64, 0
3, 32054, Note_on_c, 1, 60, 0
3, 32055, Note_on_c, 1, 53, 0
3, 32056, Note_on_c, 1, 57, 0
3, 32056, Control_c, 1, 123, 0
3, 32098, Note_on_c, 1, 57, 88
3, 32098, Note_on_c, 1, 64, 72
3, 32099, Note_on_c, 1, 53, 80
3, 32099, Note_on_c, 1, 60, 82
3, 32107, Note_on_c, 1, 64, 0
3, 32107, Note_on_c, 1, 60, 0
3, 32110, Note_on_c, 1, 57, 0
3, 32110, Note_on_c, 1, 53, 0
3, 32110, Control_c, 1, 123, 0
3, 32124, Note_on_c, 1, 57, 68
3, 32124, Note_on_c, 1, 60, 70
3, 32126, Note_on_c, 1, 64, 60
3, 32127, Note_on_c, 1, 53, 51
3, 32135, Note_on_c, 1, 64, 0
3, 32136, Note_on_c, 1, 60, 0
3, 32136, Note_on_c, 1, 53, 0
3, 32140, Note_on_c, 1, 57, 0
3, 32140, Control_c, 1, 123, 0
3, 32189, Note_on_c, 1, 57, 80
3, 32191, Note_on_c, 1, 60, 72
3, 32191, Note_on_c, 1, 64, 61
3, 32192, Note_on_c, 1, 53, 73
3, 32197, Note_on_c, 1, 57, 0
3, 32197, Note_on_c, 1, 60, 0
3, 32197, Note_on_c, 1, 64, 0
3, 32199, Note_on_c, 1, 53, 0
3, 32199, Control_c, 1, 123, 0
3, 32322, Note_on_c, 1, 57, 80
3, 32322, Note_on_c, 1, 53, 76
3, 32323, Note_on_c, 1, 64, 74
3, 32323, Note_on_c, 1, 60, 80
3, 32329, Note_on_c, 1, 64, 0
3, 32329, Note_on_c, 1, 60, 0
3, 32330, Note_on_c, 1, 57, 0
3, 32331, Note_on_c, 1, 53, 0
3, 32331, Control_c, 1, 123, 0
3, 32397, Note_on_c, 1, 57, 95
3, 32398, Note_on_c, 1, 60, 97
3, 32398, Note_on_c, 1, 64, 82
3, 32398, Note_on_c, 1, 53, 92
3, 32411, Note_on_c, 1, 64, 0
3, 32414, Note_on_c, 1, 57, 0
3, 32414, Note_on_c, 1, 60, 0
3, 32414, Note_on_c, 1, 53, 0
3, 32414, Control_c, 1, 123, 0
3, 32490, Note_on_c, 1, 64, 92
3, 32490, Note_on_c, 1, 57, 103
3, 32490, Note_on_c, 1, 60, 109
3, 32491, Note_on_c, 1, 53, 92
3, 32514, Note_on_c, 1, 60, 0
3, 32517, Note_on_c, 1, 64, 0
3, 32541, Note_on_c, 1, 57, 0
3, 32541, Note_on_c, 1, 53, 0
3, 32541, Control_c, 1, 123, 0
3, 32583, Note_on_c, 1, 57, 90
3, 32583, Note_on_c, 1, 64, 80
3, 32583, Note_on_c, 1, 60, 84
3, 32584, Note_on_c, 1, 53, 84
3, 32593, Note_on_c, 1, 64, 0
3, 32596, Note_on_c, 1, 60, 0
3, 32598, Note_on_c, 1, 57, 0
3, 32598, Note_on_c, 1, 53, 0
3, 32598, Control_c, 1, 123, 0
3, 32609, Note_on_c, 1, 57, 62
3, 32611, Note_on_c, 1, 60, 70
3, 32611, Note_on_c, 1, 53, 51
3, 32613, Note_on_c, 1, 64, 62
3, 32622, Note_on_c, 1, 57, 0
3, 32624, Note_on_c, 1, 60, 0
3, 32624, Note_on_c, 1, 53, 0
3, 32624, Note_on_c, 1, 64, 0
3, 32624, Control_c, 1, 123, 0
3, 32792, Note_on_c, 1, 58, 90
3, 32793, Note_on_c, 1, 62, 95
3, 32793, Note_on_c, 1, 55, 92
3, 32793, Note_on_c, 1, 65, 88
3, 32807, Note_on_c, 1, 58, 0
3, 32807, Note_on_c, 1, 65, 0
3, 32811, Note_on_c, 1, 62, 0
3, 32811, Note_on_c, 1, 55, 0
3, 32811, Control_c, 1, 123, 0
3, 32880, Note_on_c, 1, 58, 90
3, 32880, Note_on_c, 1, 62, 88
3, 32880, Note_on_c, 1, 55, 95
3, 32880, Note_on_c, 1, 65, 82
3, 32883, Note_on_c, 1, 64, 69
3, 32886, Note_on_c, 1, 64, 0
3, 32937, Note_on_c, 1, 58, 0
3, 32937, Note_on_c, 1, 65, 0
3, 32939, Note_on_c, 1, 62, 0
3, 32939, Note_on_c, 1, 55, 0
3, 32939, Control_c, 1, 123, 0
3, 32967, Note_on_c, 1, 58, 83
3, 32968, Note_on_c, 1, 62, 84
3, 32968, Note_on_c, 1, 65, 80
3, 32968, Note_on_c, 1, 55, 90
3, 32984, Note_on_c, 1, 58, 0
3, 32984, Note_on_c, 1, 65, 0
3, 32986, Note_on_c, 1, 62, 0
3, 32986, Note_on_c, 1, 55, 0
3, 32986, Control_c, 1, 123, 0
3, 33059, Note_on_c, 1, 58, 83
3, 33059, Note_on_c, 1, 62, 88
3, 33059, Note_on_c, 1, 55, 90
3, 33060, Note_on_c, 1, 65, 84
3, 33069, Note_on_c, 1, 65, 0
3, 33071, Note_on_c, 1, 58, 0
3, 33071, Note_on_c, 1, 62, 0
3, 33073, Note_on_c, 1, 55, 0
3, 33073, Control_c, 1, 123, 0
3, 33086, Note_on_c, 1, 58, 75
3, 33088, Note_on_c, 1, 62, 79
3, 33088, Note_on_c, 1, 55, 76
3, 33089, Note_on_c, 1, 65, 79
3, 33101, Note_on_c, 1, 58, 0
3, 33101, Note_on_c, 1, 65, 0
3, 33103, Note_on_c, 1, 62, 0
3, 33105, Note_on_c, 1, 55, 0
3, 33105, Control_c, 1, 123, 0
3, 33268, Note_on_c, 1, 58, 67
3, 33269, Note_on_c, 1, 55, 72
3, 33269, Note_on_c, 1, 62, 66
3, 33269, Note_on_c, 1, 65, 66
3, 33282, Note_on_c, 1, 65, 0
3, 33283, Note_on_c, 1, 62, 0
3, 33287, Note_on_c, 1, 58, 0
3, 33288, Note_on_c, 1, 55, 0
3, 33288, Control_c, 1, 123, 0
3, 33360, Note_on_c, 1, 58, 95
3, 33362, Note_on_c, 1, 62, 92
3, 33362, Note_on_c, 1, 55, 92
3, 33362, Note_on_c, 1, 65, 90
3, 33364, Note_on_c, 1, 64, 64
3, 33368, Note_on_c, 1, 64, 0
3, 33420, Note_on_c, 1, 55, 0
3, 33422, Note_on_c, 1, 58, 0
3, 33422, Note_on_c, 1, 62, 0
3, 33422, Note_on_c, 1, 65, 0
3, 33422, Control_c, 1, 123, 0
3, 33446, Note_on_c, 1, 58, 69
3, 33448, Note_on_c, 1, 55, 73
3, 33448, Note_on_c, 1, 62, 72
3, 33448, Note_on_c, 1, 65, 73
3, 33458, Note_on_c, 1, 58, 0
3, 33460, Note_on_c, 1, 55, 0
3, 33460, Note_on_c, 1, 62, 0
3, 33460, Note_on_c, 1, 65, 0
3, 33460, Control_c, 1, 123, 0
3, 33542, Note_on_c, 1, 58, 106
3, 33542, Note_on_c, 1, 62, 100
3, 33542, Note_on_c, 1, 65, 92
3, 33543, Note_on_c, 1, 55, 97
3, 33555, Note_on_c, 1, 58, 0
3, 33555, Note_on_c, 1, 62, 0
3, 33555, Note_on_c, 1, 65, 0
3, 33555, Note_on_c, 1, 55, 0
3, 33555, Control_c, 1, 123, 0
3, 33569, Note_on_c, 1, 58, 67
3, 33570, Note_on_c, 1, 62, 68
3, 33570, Note_on_c, 1, 55, 62
3, 33572, Note_on_c, 1, 65, 65
3, 33583, Note_on_c, 1, 65, 0
3, 33585, Note_on_c, 1, 62, 0
3, 33586, Note_on_c, 1, 58, 0
3, 33588, Note_on_c, 1, 55, 0
3, 33588, Control_c, 1, 123, 0
3, 33749, Note_on_c, 1, 57, 84
3, 33749, Note_on_c, 1, 60, 90
3, 33749, Note_on_c, 1, 53, 76
3, 33750, Note_on_c, 1, 64, 76
3, 33762, Note_on_c, 1, 64, 0
3, 33764, Note_on_c, 1, 57, 0
3, 33764, Note_on_c, 1, 60, 0
3, 33764, Note_on_c, 1, 53, 0
3, 33764, Control_c, 1, 123, 0
3, 33839, Note_on_c, 1, 57, 95
3, 33839, Note_on_c, 1, 53, 92
3, 33839, Note_on_c, 1, 60, 100
3, 33840, Note_on_c, 1, 64, 86
3, 33900, Note_on_c, 1, 53, 0
3, 33900, Note_on_c, 1, 64, 0
3, 33902, Note_on_c, 1, 57, 0
3, 33902, Note_on_c, 1, 60, 0
3, 33902, Control_c, 1, 123, 0
3, 33926, Note_on_c, 1, 57, 88
3, 33926, Note_on_c, 1, 53, 80
3, 33927, Note_on_c, 1, 64, 77
3, 33927, Note_on_c, 1, 60, 82
3, 33938, Note_on_c, 1, 64, 0
3, 33941, Note_on_c, 1, 60, 0
3, 33943, Note_on_c, 1, 53, 0
3, 33944, Note_on_c, 1, 57, 0
3, 33944, Control_c, 1, 123, 0
3, 34014, Note_on_c, 1, 57, 88
3, 34014, Note_on_c, 1, 64, 80
3, 34015, Note_on_c, 1, 60, 90
3, 34015, Note_on_c, 1, 53, 90
3, 34027, Note_on_c, 1, 64, 0
3, 34031, Note_on_c, 1, 57, 0
3, 34031, Note_on_c, 1, 60, 0
3, 34031, Note_on_c, 1, 53, 0
3, 34031, Control_c, 1, 123, 0
3, 34043, Note_on_c, 1, 57, 77
3, 34045, Note_on_c, 1, 60, 84
3, 34045, Note_on_c, 1, 53, 70
3, 34046, Note_on_c, 1, 64, 72
3, 34061, Note_on_c, 1, 53, 0
3, 34061, Note_on_c, 1, 64, 0
3, 34063, Note_on_c, 1, 57, 0
3, 34063, Note_on_c, 1, 60, 0
3, 34063, Control_c, 1, 123, 0
3, 34230, Note_on_c, 1, 57, 79
3, 34230, Note_on_c, 1, 60, 82
3, 34230, Note_on_c, 1, 64, 72
3, 34230, Note_on_c, 1, 53, 73
3, 34243, Note_on_c, 1, 64, 0
3, 34246, Note_on_c, 1, 60, 0
3, 34246, Note_on_c, 1, 53, 0
3, 34248, Note_on_c, 1, 57, 0
3, 34248, Control_c, 1, 123, 0
3, 34321, Note_on_c, 1, 57, 109
3, 34322, Note_on_c, 1, 60, 113
3, 34322, Note_on_c, 1, 53, 103
3, 34322, Note_on_c, 1, 64, 100
3, 34382, Note_on_c, 1, 53, 0
3, 34384, Note_on_c, 1, 60, 0
3, 34384, Note_on_c, 1, 64, 0
3, 34386, Note_on_c, 1, 57, 0
3, 34386, Control_c, 1, 123, 0
3, 34410, Note_on_c, 1, 57, 88
3, 34410, Note_on_c, 1, 53, 82
3, 34410, Note_on_c, 1, 60, 95
3, 34410, Note_on_c, 1, 64, 84
3, 34426, Note_on_c, 1, 60, 0
3, 34426, Note_on_c, 1, 64, 0
3, 34428, Note_on_c, 1, 57, 0
3, 34428, Note_on_c, 1, 53, 0
3, 34428, Control_c, 1, 123, 0
3, 34501, Note_on_c, 1, 64, 90
3, 34501, Note_on_c, 1, 57, 100
3, 34502, Note_on_c, 1, 60, 103
3, 34502, Note_on_c, 1, 53, 97
3, 34516, Note_on_c, 1, 64, 0
3, 34516, Note_on_c, 1, 60, 0
3, 34518, Note_on_c, 1, 57, 0
3, 34518, Note_on_c, 1, 53, 0
3, 34518, Control_c, 1, 123, 0
3, 34530, Note_on_c, 1, 57, 74
3, 34530, Note_on_c, 1, 60, 77
3, 34531, Note_on_c, 1, 64, 72
3, 34531, Note_on_c, 1, 53, 61
3, 34545, Note_on_c, 1, 53, 0
3, 34547, Note_on_c, 1, 57, 0
3, 34547, Note_on_c, 1, 60, 0
3, 34549, Note_on_c, 1, 64, 0
3, 34549, Control_c, 1, 123, 0
3, 34711, Note_on_c, 1, 58, 83
3, 34713, Note_on_c, 1, 62, 80
3, 34713, Note_on_c, 1, 55, 77
3, 34713, Note_on_c, 1, 65, 60
3, 34721, Note_on_c, 1, 65, 0
3, 34723, Note_on_c, 1, 58, 0
3, 34723, Note_on_c, 1, 62, 0
3, 34726, Note_on_c, 1, 55, 0
3, 34726, Control_c, 1, 123, 0
3, 34798, Note_on_c, 1, 58, 106
3, 34798, Note_on_c, 1, 62, 95
3, 34799, Note_on_c, 1, 55, 97
3, 34799, Note_on_c, 1, 65, 90
3, 34862, Note_on_c, 1, 55, 0
3, 34865, Note_on_c, 1, 58, 0
3, 34865, Note_on_c, 1, 62, 0
3, 34865, Note_on_c, 1, 65, 0
3, 34866, Control_c, 1, 123, 0
3, 34888, Note_on_c, 1, 58, 71
3, 34888, Note_on_c, 1, 62, 80
3, 34889, Note_on_c, 1, 65, 80
3, 34889, Note_on_c, 1, 55, 80
3, 34901, Note_on_c, 1, 58, 0
3, 34903, Note_on_c, 1, 62, 0
3, 34903, Note_on_c, 1, 55, 0
3, 34907, Note_on_c, 1, 65, 0
3, 34907, Control_c, 1, 123, 0
3, 34984, Note_on_c, 1, 58, 86
3, 34984, Note_on_c, 1, 55, 90
3, 34984, Note_on_c, 1, 62, 86
3, 34985, Note_on_c, 1, 65, 86
3, 34995, Note_on_c, 1, 58, 0
3, 34995, Note_on_c, 1, 65, 0
3, 34997, Note_on_c, 1, 62, 0
3, 34999, Note_on_c, 1, 55, 0
3, 34999, Control_c, 1, 123, 0
3, 35013, Note_on_c, 1, 58, 77
3, 35014, Note_on_c, 1, 55, 74
3, 35015, Note_on_c, 1, 62, 84
3, 35015, Note_on_c, 1, 65, 80
3, 35029, Note_on_c, 1, 58, 0
3, 35031, Note_on_c, 1, 55, 0
3, 35031, Note_on_c, 1, 62, 0
3, 35031, Note_on_c, 1, 65, 0
3, 35031, Control_c, 1, 123, 0
3, 35189, Note_on_c, 1, 58, 73
3, 35189, Note_on_c, 1, 55, 73
3, 35189, Note_on_c, 1, 62, 64
3, 35191, Note_on_c, 1, 65, 68
3, 35199, Note_on_c, 1, 65, 0
3, 35202, Note_on_c, 1, 58, 0
3, 35202, Note_on_c, 1, 55, 0
3, 35202, Note_on_c, 1, 62, 0
3, 35203, Control_c, 1, 123, 0
3, 35280, Note_on_c, 1, 58, 95
3, 35280, Note_on_c, 1, 55, 92
3, 35281, Note_on_c, 1, 62, 95
3, 35281, Note_on_c, 1, 65, 88
3, 35338, Note_on_c, 1, 58, 0
3, 35338, Note_on_c, 1, 55, 0
3, 35338, Note_on_c, 1, 62, 0
3, 35340, Note_on_c, 1, 65, 0
3, 35340, Control_c, 1, 123, 0
3, 35368, Note_on_c, 1, 65, 88
3, 35369, Note_on_c, 1, 58, 100
3, 35369, Note_on_c, 1, 62, 95
3, 35369, Note_on_c, 1, 55, 100
3, 35379, Note_on_c, 1, 65, 0
3, 35381, Note_on_c, 1, 58, 0
3, 35381, Note_on_c, 1, 62, 0
3, 35383, Note_on_c, 1, 55, 0
3, 35383, Control_c, 1, 123, 0
3, 35460, Note_on_c, 1, 58, 100
3, 35461, Note_on_c, 1, 55, 92
3, 35462, Note_on_c, 1, 62, 97
3, 35462, Note_on_c, 1, 65, 88
3, 35473, Note_on_c, 1, 65, 0
3, 35475, Note_on_c, 1, 58, 0
3, 35475, Note_on_c, 1, 55, 0
3, 35475, Note_on_c, 1, 62, 0
3, 35475, Control_c, 1, 123, 0
3, 35487, Note_on_c, 1, 58, 65
3, 35489, Note_on_c, 1, 55, 61
3, 35489, Note_on_c, 1, 62, 68
3, 35490, Note_on_c, 1, 65, 63
3, 35499, Note_on_c, 1, 65, 0
3, 35501, Note_on_c, 1, 62, 0
3, 35502, Note_on_c, 1, 58, 0
3, 35506, Note_on_c, 1, 55, 0
3, 35506, Control_c, 1, 123, 0
3, 35670, Note_on_c, 1, 57, 82
3, 35670, Note_on_c, 1, 64, 79
3, 35670, Note_on_c, 1, 53, 74
3, 35672, Note_on_c, 1, 60, 74
3, 35681, Note_on_c, 1, 60, 0
3, 35682, Note_on_c, 1, 64, 0
3, 35685, Note_on_c, 1, 57, 0
3, 35685, Note_on_c, 1, 53, 0
3, 35685, Control_c, 1, 123, 0
3, 35760, Note_on_c, 1, 57, 103
3, 35760, Note_on_c, 1, 53, 100
3, 35760, Note_on_c, 1, 60, 113
3, 35761, Note_on_c, 1, 64, 95
3, 35827, Note_on_c, 1, 57, 0
3, 35827, Note_on_c, 1, 53, 0
3, 35827, Note_on_c, 1, 60, 0
3, 35827, Note_on_c, 1, 64, 0
3, 35827, Control_c, 1, 123, 0
3, 35848, Note_on_c, 1, 57, 79
3, 35849, Note_on_c, 1, 64, 76
3, 35849, Note_on_c, 1, 53, 73
3, 35849, Note_on_c, 1, 60, 73
3, 35865, Note_on_c, 1, 64, 0
3, 35867, Note_on_c, 1, 57, 0
3, 35867, Note_on_c, 1, 53, 0
3, 35867, Note_on_c, 1, 60, 0
3, 35867, Control_c, 1, 123, 0
3, 35940, Note_on_c, 1, 57, 95
3, 35940, Note_on_c, 1, 64, 92
3, 35940, Note_on_c, 1, 53, 84
3, 35941, Note_on_c, 1, 60, 100
3, 35956, Note_on_c, 1, 57, 0
3, 35956, Note_on_c, 1, 64, 0
3, 35956, Note_on_c, 1, 53, 0
3, 35958, Note_on_c, 1, 60, 0
3, 35958, Control_c, 1, 123, 0
3, 35969, Note_on_c, 1, 57, 70
3, 35969, Note_on_c, 1, 60, 69
3, 35969, Note_on_c, 1, 53, 60
3, 35970, Note_on_c, 1, 64, 64
3, 35984, Note_on_c, 1, 57, 0
3, 35984, Note_on_c, 1, 60, 0
3, 35984, Note_on_c, 1, 53, 0
3, 35984, Note_on_c, 1, 64, 0
3, 35984, Control_c, 1, 123, 0
3, 36151, Note_on_c, 1, 57, 80
3, 36151, Note_on_c, 1, 64, 77
3, 36152, Note_on_c, 1, 60, 82
3, 36152, Note_on_c, 1, 53, 72
3, 36163, Note_on_c, 1, 64, 0
3, 36163, Note_on_c, 1, 60, 0
3, 36165, Note_on_c, 1, 53, 0
3, 36166, Note_on_c, 1, 57, 0
3, 36167, Control_c, 1, 123, 0
3, 36238, Note_on_c, 1, 57, 103
3, 36240, Note_on_c, 1, 53, 97
3, 36240, Note_on_c, 1, 64, 95
3, 36240, Note_on_c, 1, 60, 106
3, 36311, Note_on_c, 1, 57, 0
3, 36311, Note_on_c, 1, 53, 0
3, 36311, Note_on_c, 1, 64, 0
3, 36311, Note_on_c, 1, 60, 0
3, 36311, Control_c, 1, 123, 0
3, 36330, Note_on_c, 1, 57, 82
3, 36330, Note_on_c, 1, 53, 77
3, 36330, Note_on_c, 1, 64, 79
3, 36330, Note_on_c, 1, 60, 84
3, 36346, Note_on_c, 1, 53, 0
3, 36346, Note_on_c, 1, 64, 0
3, 36346, Note_on_c, 1, 60, 0
3, 36348, Note_on_c, 1, 57, 0
3, 36348, Control_c, 1, 123, 0
3, 36421, Note_on_c, 1, 53, 88
3, 36423, Note_on_c, 1, 57, 92
3, 36423, Note_on_c, 1, 64, 88
3, 36424, Note_on_c, 1, 60, 95
3, 36437, Note_on_c, 1, 64, 0
3, 36439, Note_on_c, 1, 57, 0
3, 36439, Note_on_c, 1, 60, 0
3, 36441, Note_on_c, 1, 53, 0
3, 36441, Control_c, 1, 123, 0
3, 36452, Note_on_c, 1, 57, 73
3, 36452, Note_on_c, 1, 53, 68
3, 36452, Note_on_c, 1, 60, 80
3, 36453, Note_on_c, 1, 64, 64
3, 36468, Note_on_c, 1, 53, 0
3, 36468, Note_on_c, 1, 60, 0
3, 36470, Note_on_c, 1, 57, 0
3, 36472, Note_on_c, 1, 64, 0
3, 36472, Control_c, 1, 123, 0
3, 36632, Note_on_c, 1, 58, 60
3, 36633, Note_on_c, 1, 55, 67
3, 36635, Note_on_c, 1, 65, 59
3, 36635, Note_on_c, 1, 62, 55
3, 36644, Note_on_c, 1, 65, 0
3, 36644, Note_on_c, 1, 62, 0
3, 36645, Note_on_c, 1, 58, 0
3, 36648, Note_on_c, 1, 55, 0
3, 36648, Control_c, 1, 123, 0
3, 36721, Note_on_c, 1, 58, 106
3, 36722, Note_on_c, 1, 62, 97
3, 36722, Note_on_c, 1, 65, 95
3, 36722, Note_on_c, 1, 55, 100
3, 36784, Note_on_c, 1, 55, 0
3, 36785, Note_on_c, 1, 58, 0
3, 36787, Note_on_c, 1, 62, 0
3, 36787, Note_on_c, 1, 65, 0
3, 36787, Control_c, 1, 123, 0
3, 36807, Note_on_c, 1, 58, 58
3, 36807, Note_on_c, 1, 65, 63
3, 36807, Note_on_c, 1, 62, 60
3, 36809, Note_on_c, 1, 55, 69
3, 36819, Note_on_c, 1, 58, 0
3, 36820, Note_on_c, 1, 55, 0
3, 36821, Note_on_c, 1, 65, 0
3, 36821, Note_on_c, 1, 62, 0
3, 36821, Control_c, 1, 123, 0
3, 36901, Note_on_c, 1, 58, 90
3, 36901, Note_on_c, 1, 55, 88
3, 36902, Note_on_c, 1, 62, 90
3, 36902, Note_on_c, 1, 65, 90
3, 36916, Note_on_c, 1, 58, 0
3, 36916, Note_on_c, 1, 55, 0
3, 36916, Note_on_c, 1, 62, 0
3, 36916, Note_on_c, 1, 65, 0
3, 36916, Control_c, 1, 123, 0
3, 36929, Note_on_c, 1, 58, 61
3, 36930, Note_on_c, 1, 55, 61
3, 36931, Note_on_c, 1, 65, 68
3, 36931, Note_on_c, 1, 62, 60
3, 36947, Note_on_c, 1, 58, 0
3, 36947, Note_on_c, 1, 65, 0
3, 36947, Note_on_c, 1, 62, 0
3, 36949, Note_on_c, 1, 55, 0
3, 36949, Control_c, 1, 123, 0
3, 37109, Note_on_c, 1, 58, 67
3, 37109, Note_on_c, 1, 62, 73
3, 37111, Note_on_c, 1, 65, 65
3, 37112, Note_on_c, 1, 55, 69
3, 37119, Note_on_c, 1, 65, 0
3, 37120, Note_on_c, 1, 58, 0
3, 37121, Note_on_c, 1, 55, 0
3, 37122, Note_on_c, 1, 62, 0
3, 37122, Control_c, 1, 123, 0
3, 37199, Note_on_c, 1, 58, 100
3, 37200, Note_on_c, 1, 65, 90
3, 37200, Note_on_c, 1, 62, 100
3, 37200, Note_on_c, 1, 55, 97
3, 37265, Note_on_c, 1, 58, 0
3, 37266, Note_on_c, 1, 65, 0
3, 37266, Note_on_c, 1, 55, 0
3, 37267, Note_on_c, 1, 62, 0
3, 37267, Control_c, 1, 123, 0
3, 37286, Note_on_c, 1, 58, 71
3, 37287, Note_on_c, 1, 62, 74
3, 37287, Note_on_c, 1, 65, 77
3, 37287, Note_on_c, 1, 55, 82
3, 37298, Note_on_c, 1, 58, 0
3, 37298, Note_on_c, 1, 65, 0
3, 37300, Note_on_c, 1, 62, 0
3, 37302, Note_on_c, 1, 55, 0
3, 37302, Control_c, 1, 123, 0
3, 37380, Note_on_c, 1, 58, 100
3, 37381, Note_on_c, 1, 62, 97
3, 37381, Note_on_c, 1, 55, 100
3, 37381, Note_on_c, 1, 65, 95
3, 37392, Note_on_c, 1, 65, 0
3, 37394, Note_on_c, 1, 58, 0
3, 37394, Note_on_c, 1, 62, 0
3, 37396, Note_on_c, 1, 55, 0
3, 37396, Control_c, 1, 123, 0
3, 37408, Note_on_c, 1, 58, 64
3, 37410, Note_on_c, 1, 55, 57
3, 37410, Note_on_c, 1, 62, 64
3, 37410, Note_on_c, 1, 65, 62
3, 37423, Note_on_c, 1, 62, 0
3, 37423, Note_on_c, 1, 65, 0
3, 37426, Note_on_c, 1, 58, 0
3, 37427, Note_on_c, 1, 55, 0
3, 37427, Control_c, 1, 123, 0
3, 37589, Note_on_c, 1, 53, 66
3, 37591, Note_on_c, 1, 57, 69
3, 37593, Note_on_c, 1, 60, 71
3, 37593, Note_on_c, 1, 64, 63
3, 37608, Note_on_c, 1, 64, 0
3, 37610, Note_on_c, 1, 57, 0
3, 37610, Note_on_c, 1, 60, 0
3, 37612, Note_on_c, 1, 53, 0
3, 37612, Control_c, 1, 123, 0
3, 37676, Note_on_c, 1, 57, 106
3, 37677, Note_on_c, 1, 53, 100
3, 37677, Note_on_c, 1, 64, 97
3, 37677, Note_on_c, 1, 60, 109
3, 37746, Note_on_c, 1, 60, 0
3, 37747, Note_on_c, 1, 57, 0
3, 37747, Note_on_c, 1, 53, 0
3, 37747, Note_on_c, 1, 64, 0
3, 37747, Control_c, 1, 123, 0
3, 37764, Note_on_c, 1, 57, 63
3, 37764, Note_on_c, 1, 53, 58
3, 37766, Note_on_c, 1, 64, 58
3, 37768, Note_on_c, 1, 60, 49
3, 37777, Note_on_c, 1, 64, 0
3, 37777, Note_on_c, 1, 60, 0
3, 37779, Note_on_c, 1, 57, 0
3, 37780, Note_on_c, 1, 53, 0
3, 37780, Control_c, 1, 123, 0
3, 37859, Note_on_c, 1, 64, 86
3, 37860, Note_on_c, 1, 57, 95
3, 37860, Note_on_c, 1, 53, 88
3, 37860, Note_on_c, 1, 60, 90
3, 37876, Note_on_c, 1, 64, 0
3, 37876, Note_on_c, 1, 57, 0
3, 37876, Note_on_c, 1, 53, 0
3, 37876, Note_on_c, 1, 60, 0
3, 37876, Control_c, 1, 123, 0
3, 37889, Note_on_c, 1, 60, 73
3, 37889, Note_on_c, 1, 57, 77
3, 37889, Note_on_c, 1, 53, 66
3, 37890, Note_on_c, 1, 64, 77
3, 37907, Note_on_c, 1, 60, 0
3, 37907, Note_on_c, 1, 57, 0
3, 37907, Note_on_c, 1, 53, 0
3, 37907, Note_on_c, 1, 64, 0
3, 37907, Control_c, 1, 123, 0
3, 38069, Note_on_c, 1, 57, 84
3, 38070, Note_on_c, 1, 64, 77
3, 38070, Note_on_c, 1, 53, 79
3, 38070, Note_on_c, 1, 60, 77
3, 38081, Note_on_c, 1, 64, 0
3, 38083, Note_on_c, 1, 60, 0
3, 38085, Note_on_c, 1, 53, 0
3, 38086, Note_on_c, 1, 57, 0
3, 38087, Control_c, 1, 123, 0
3, 38160, Note_on_c, 1, 57, 106
3, 38160, Note_on_c, 1, 60, 103
3, 38160, Note_on_c, 1, 64, 100
3, 38160, Note_on_c, 1, 53, 103
3, 38226, Note_on_c, 1, 64, 0
3, 38227, Note_on_c, 1, 57, 0
3, 38228, Note_on_c, 1, 60, 0
3, 38228, Note_on_c, 1, 53, 0
3, 38229, Control_c, 1, 123, 0
3, 38250, Note_on_c, 1, 57, 90
3, 38250, Note_on_c, 1, 53, 88
3, 38250, Note_on_c, 1, 64, 80
3, 38250, Note_on_c, 1, 60, 84
3, 38268, Note_on_c, 1, 57, 0
3, 38268, Note_on_c, 1, 64, 0
3, 38269, Note_on_c, 1, 60, 0
3, 38271, Note_on_c, 1, 53, 0
3, 38271, Control_c, 1, 123, 0
3, 38339, Note_on_c, 1, 57, 88
3, 38340, Note_on_c, 1, 64, 84
3, 38340, Note_on_c, 1, 53, 90
3, 38340, Note_on_c, 1, 60, 90
3, 38356, Note_on_c, 1, 57, 0
3, 38356, Note_on_c, 1, 64, 0
3, 38356, Note_on_c, 1, 60, 0
3, 38358, Note_on_c, 1, 53, 0
3, 38358, Control_c, 1, 123, 0
3, 38369, Note_on_c, 1, 57, 73
3, 38369, Note_on_c, 1, 60, 80
3, 38371, Note_on_c, 1, 53, 62
3, 38372, Note_on_c, 1, 64, 67
3, 38388, Note_on_c, 1, 53, 0
3, 38389, Note_on_c, 1, 57, 0
3, 38389, Note_on_c, 1, 60, 0
3, 38390, Note_on_c, 1, 64, 0
3, 38390, Control_c, 1, 123, 0
3, 38551, Note_on_c, 1, 58, 83
3, 38552, Note_on_c, 1, 55, 88
3, 38552, Note_on_c, 1, 62, 84
3, 38552, Note_on_c, 1, 65, 79
3, 38563, Note_on_c, 1, 65, 0
3, 38566, Note_on_c, 1, 58, 0
3, 38566, Note_on_c, 1, 62, 0
3, 38568, Note_on_c, 1, 55, 0
3, 38568, Control_c, 1, 123, 0
3, 38639, Note_on_c, 1, 58, 106
3, 38639, Note_on_c, 1, 55, 103
3, 38639, Note_on_c, 1, 65, 88
3, 38640, Note_on_c, 1, 62, 100
3, 38642, Note_on_c, 1, 64, 80
3, 38645, Note_on_c, 1, 64, 0
3, 38708, Note_on_c, 1, 58, 0
3, 38708, Note_on_c, 1, 65, 0
3, 38710, Note_on_c, 1, 55, 0
3, 38710, Note_on_c, 1, 62, 0
3, 38710, Control_c, 1, 123, 0
3, 38729, Note_on_c, 1, 58, 60
3, 38730, Note_on_c, 1, 55, 73
3, 38732, Note_on_c, 1, 65, 56
3, 38732, Note_on_c, 1, 62, 58
3, 38740, Note_on_c, 1, 58, 0
3, 38740, Note_on_c, 1, 65, 0
3, 38740, Note_on_c, 1, 62, 0
3, 38745, Note_on_c, 1, 55, 0
3, 38745, Control_c, 1, 123, 0
3, 38819, Note_on_c, 1, 58, 95
3, 38819, Note_on_c, 1, 55, 95
3, 38820, Note_on_c, 1, 62, 88
3, 38820, Note_on_c, 1, 65, 82
3, 38823, Note_on_c, 1, 64, 65
3, 38827, Note_on_c, 1, 64, 0
3, 38832, Note_on_c, 1, 65, 0
3, 38835, Note_on_c, 1, 58, 0
3, 38835, Note_on_c, 1, 62, 0
3, 38837, Note_on_c, 1, 55, 0
3, 38837, Control_c, 1, 123, 0
3, 38847, Note_on_c, 1, 58, 58
3, 38849, Note_on_c, 1, 55, 52
3, 38850, Note_on_c, 1, 62, 60
3, 38850, Note_on_c, 1, 65, 56
3, 38861, Note_on_c, 1, 58, 0
3, 38861, Note_on_c, 1, 62, 0
3, 38861, Note_on_c, 1, 65, 0
3, 38864, Note_on_c, 1, 55, 0
3, 38865, Control_c, 1, 123, 0
3, 39028, Note_on_c, 1, 58, 69
3, 39028, Note_on_c, 1, 55, 76
3, 39028, Note_on_c, 1, 62, 67
3, 39030, Note_on_c, 1, 65, 58
3, 39038, Note_on_c, 1, 65, 0
3, 39043, Note_on_c, 1, 62, 0
3, 39044, Note_on_c, 1, 58, 0
3, 39045, Note_on_c, 1, 55, 0
3, 39045, Control_c, 1, 123, 0
3, 39184, Note_on_c, 1, 50, 103
3, 39235, Note_on_c, 1, 50, 0
3, 39235, Control_c, 1, 123, 0
3, 39360, Note_on_c, 1, 57, 86
3, 39360, Note_on_c, 1, 64, 76
3, 39360, Note_on_c, 1, 60, 88
3, 39361, Note_on_c, 1, 53, 86
3, 39374, Note_on_c, 1, 64, 0
3, 39375, Note_on_c, 1, 53, 0
3, 39376, Note_on_c, 1, 57, 0
3, 39376, Note_on_c, 1, 60, 0
3, 39376, Control_c, 1, 123, 0
3, 39480, Note_on_c, 1, 59, 53
3, 39482, Note_on_c, 1, 57, 88
3, 39483, Note_on_c, 1, 60, 84
3, 39483, Note_on_c, 1, 64, 77
3, 39484, Note_on_c, 1, 53, 82
3, 39493, Note_on_c, 1, 64, 0
3, 39495, Note_on_c, 1, 60, 0
3, 39496, Note_on_c, 1, 57, 0
3, 39496, Note_on_c, 1, 53, 0
3, 39497, Control_c, 1, 123, 0
3, 39497, Control_c, 1, 123, 0
3, 39501, Note_on_c, 1, 59, 0
3, 39540, Note_on_c, 1, 57, 64
3, 39561, Control_c, 1, 123, 0
3, 39564, Note_on_c, 1, 57, 0
3, 39601, Note_on_c, 1, 57, 88
3, 39602, Note_on_c, 1, 60, 86
3, 39602, Note_on_c, 1, 53, 80
3, 39603, Note_on_c, 1, 64, 80
3, 39612, Note_on_c, 1, 64, 0
3, 39614, Note_on_c, 1, 60, 0
3, 39614, Note_on_c, 1, 53, 0
3, 39615, Note_on_c, 1, 57, 0
3, 39616, Control_c, 1, 123, 0
3, 39660, Note_on_c, 1, 50, 100
3, 39687, Control_c, 1, 123, 0
3, 39691, Note_on_c, 1, 50, 0
3, 39720, Note_on_c, 1, 53, 92
3, 39722, Note_on_c, 1, 57, 90
3, 39723, Note_on_c, 1, 60, 90
3, 39723, Note_on_c, 1, 64, 80
3, 39723, Note_on_c, 1, 53, 82
3, 39733, Note_on_c, 1, 64, 0
3, 39734, Note_on_c, 1, 53, 0
3, 39736, Note_on_c, 1, 57, 0
3, 39736, Note_on_c, 1, 60, 0
3, 39736, Control_c, 1, 123, 0
3, 39742, Control_c, 1, 123, 0
3, 39748, Note_on_c, 1, 53, 0
3, 39780, Note_on_c, 1, 57, 97
3, 39819, Control_c, 1, 123, 0
3, 39824, Note_on_c, 1, 57, 0
3, 39839, Note_on_c, 1, 57, 84
3, 39839, Note_on_c, 1, 64, 77
3, 39840, Note_on_c, 1, 60, 86
3, 39840, Note_on_c, 1, 53, 82
3, 39850, Note_on_c, 1, 64, 0
3, 39853, Note_on_c, 1, 57, 0
3, 39853, Note_on_c, 1, 60, 0
3, 39853, Note_on_c, 1, 53, 0
3, 39853, Control_c, 1, 123, 0
3, 39962, Note_on_c, 1, 60, 90
3, 39963, Note_on_c, 1, 64, 79
3, 39963, Note_on_c, 1, 57, 86
3, 39964, Note_on_c, 1, 53, 82
3, 39973, Note_on_c, 1, 64, 0
3, 39975, Note_on_c, 1, 60, 0
3, 39975, Note_on_c, 1, 57, 0
3, 39975, Note_on_c, 1, 53, 0
3, 39975, Control_c, 1, 123, 0
3, 40084, Note_on_c, 1, 64, 88
3, 40085, Note_on_c, 1, 57, 95
3, 40085, Note_on_c, 1, 60, 95
3, 40085, Note_on_c, 1, 53, 88
3, 40098, Note_on_c, 1, 64, 0
3, 40099, Note_on_c, 1, 60, 0
3, 40099, Note_on_c, 1, 53, 0
3, 40100, Note_on_c, 1, 57, 0
3, 40100, Control_c, 1, 123, 0
3, 40140, Note_on_c, 1, 50, 106
3, 40164, Control_c, 1, 123, 0
3, 40166, Note_on_c, 1, 50, 0
3, 40200, Note_on_c, 1, 53, 97
3, 40202, Note_on_c, 1, 57, 92
3, 40203, Note_on_c, 1, 53, 84
3, 40203, Note_on_c, 1, 60, 92
3, 40203, Note_on_c, 1, 64, 86
3, 40214, Note_on_c, 1, 64, 0
3, 40216, Note_on_c, 1, 53, 0
3, 40216, Note_on_c, 1, 60, 0
3, 40218, Note_on_c, 1, 57, 0
3, 40218, Control_c, 1, 123, 0
3, 40225, Note_on_c, 1, 53, 0
3, 40226, Control_c, 1, 123, 0
3, 40260, Note_on_c, 1, 55, 109
3, 40299, Control_c, 1, 123, 0
3, 40302, Note_on_c, 1, 55, 0
3, 40319, Note_on_c, 1, 58, 83
3, 40319, Note_on_c, 1, 62, 84
3, 40320, Note_on_c, 1, 65, 84
3, 40320, Note_on_c, 1, 55, 90
3, 40332, Note_on_c, 1, 55, 0
3, 40333, Note_on_c, 1, 58, 0
3, 40333, Note_on_c, 1, 62, 0
3, 40333, Note_on_c, 1, 65, 0
3, 40333, Control_c, 1, 123, 0
3, 40445, Note_on_c, 1, 58, 86
3, 40446, Note_on_c, 1, 62, 90
3, 40446, Note_on_c, 1, 65, 88
3, 40446, Note_on_c, 1, 55, 92
3, 40457, Note_on_c, 1, 58, 0
3, 40457, Note_on_c, 1, 65, 0
3, 40459, Note_on_c, 1, 62, 0
3, 40459, Note_on_c, 1, 55, 0
3, 40459, Control_c, 1, 123, 0
3, 40559, Note_on_c, 1, 58, 75
3, 40560, Note_on_c, 1, 62, 76
3, 40560, Note_on_c, 1, 65, 80
3, 40560, Note_on_c, 1, 55, 84
3, 40573, Note_on_c, 1, 58, 0
3, 40575, Note_on_c, 1, 62, 0
3, 40575, Note_on_c, 1, 65, 0
3, 40575, Note_on_c, 1, 55, 0
3, 40575, Control_c, 1, 123, 0
3, 40620, Note_on_c, 1, 50, 106
3, 40640, Control_c, 1, 123, 0
3, 40645, Note_on_c, 1, 50, 0
3, 40680, Note_on_c, 1, 58, 75
3, 40680, Note_on_c, 1, 53, 100
3, 40682, Note_on_c, 1, 62, 79
3, 40683, Note_on_c, 1, 65, 80
3, 40683, Note_on_c, 1, 55, 84
3, 40692, Note_on_c, 1, 65, 0
3, 40694, Note_on_c, 1, 58, 0
3, 40694, Note_on_c, 1, 62, 0
3, 40694, Note_on_c, 1, 55, 0
3, 40694, Control_c, 1, 123, 0
3, 40704, Control_c, 1, 123, 0
3, 40707, Note_on_c, 1, 53, 0
3, 40740, Note_on_c, 1, 55, 90
3, 40759, Control_c, 1, 123, 0
3, 40765, Note_on_c, 1, 55, 0
3, 40800, Note_on_c, 1, 58, 86
3, 40800, Note_on_c, 1, 62, 80
3, 40800, Note_on_c, 1, 55, 80
3, 40800, Note_on_c, 1, 57, 97
3, 40801, Note_on_c, 1, 65, 73
3, 40811, Note_on_c, 1, 65, 0
3, 40813, Note_on_c, 1, 58, 0
3, 40813, Note_on_c, 1, 62, 0
3, 40813, Note_on_c, 1, 55, 0
3, 40813, Control_c, 1, 123, 0
3, 40909, Control_c, 1, 123, 0
3, 40910, Note_on_c, 1, 57, 0
3, 40918, Note_on_c, 1, 58, 80
3, 40918, Note_on_c, 1, 62, 86
3, 40920, Note_on_c, 1, 55, 84
3, 40920, Note_on_c, 1, 65, 80
3, 40920, Note_on_c, 1, 55, 97
3, 40930, Note_on_c, 1, 65, 0
3, 40932, Note_on_c, 1, 58, 0
3, 40932, Note_on_c, 1, 62, 0
3, 40932, Note_on_c, 1, 55, 0
3, 40932, Control_c, 1, 123, 0
3, 40980, Note_on_c, 1, 53, 95
3, 40985, Note_on_c, 1, 55, 0
3, 41018, Control_c, 1, 123, 0
3, 41026, Note_on_c, 1, 53, 0
3, 41040, Note_on_c, 1, 58, 86
3, 41040, Note_on_c, 1, 62, 82
3, 41040, Note_on_c, 1, 55, 97
3, 41041, Note_on_c, 1, 65, 82
3, 41042, Note_on_c, 1, 55, 86
3, 41051, Note_on_c, 1, 65, 0
3, 41053, Note_on_c, 1, 58, 0
3, 41053, Note_on_c, 1, 62, 0
3, 41053, Note_on_c, 1, 55, 0
3, 41053, Control_c, 1, 123, 0
3, 41078, Control_c, 1, 123, 0
3, 41090, Note_on_c, 1, 55, 0
3, 41100, Note_on_c, 1, 50, 100
3, 41124, Control_c, 1, 123, 0
3, 41131, Note_on_c, 1, 50, 0
3, 41159, Note_on_c, 1, 58, 95
3, 41159, Note_on_c, 1, 62, 90
3, 41159, Note_on_c, 1, 55, 90
3, 41160, Note_on_c, 1, 65, 88
3, 41160, Note_on_c, 1, 53, 103
3, 41169, Note_on_c, 1, 65, 0
3, 41173, Note_on_c, 1, 58, 0
3, 41173, Note_on_c, 1, 62, 0
3, 41173, Note_on_c, 1, 55, 0
3, 41173, Control_c, 1, 123, 0
3, 41185, Control_c, 1, 123, 0
3, 41194, Note_on_c, 1, 53, 0
3, 41220, Note_on_c, 1, 57, 95
3, 41259, Control_c, 1, 123, 0
3, 41267, Note_on_c, 1, 57, 0
3, 41283, Note_on_c, 1, 57, 92
3, 41284, Note_on_c, 1, 64, 86
3, 41284, Note_on_c, 1, 60, 92
3, 41284, Note_on_c, 1, 53, 84
3, 41297, Note_on_c, 1, 57, 0
3, 41297, Note_on_c, 1, 64, 0
3, 41297, Note_on_c, 1, 60, 0
3, 41297, Note_on_c, 1, 53, 0
3, 41297, Control_c, 1, 123, 0
3, 41400, Note_on_c, 1, 57, 79
3, 41401, Note_on_c, 1, 64, 77
3, 41401, Note_on_c, 1, 60, 77
3, 41402, Note_on_c, 1, 53, 79
3, 41414, Note_on_c, 1, 64, 0
3, 41416, Note_on_c, 1, 57, 0
3, 41416, Note_on_c, 1, 60, 0
3, 41416, Note_on_c, 1, 53, 0
3, 41416, Control_c, 1, 123, 0
3, 41519, Note_on_c, 1, 57, 84
3, 41520, Note_on_c, 1, 60, 86
3, 41520, Note_on_c, 1, 64, 77
3, 41520, Note_on_c, 1, 53, 77
3, 41533, Note_on_c, 1, 64, 0
3, 41535, Note_on_c, 1, 57, 0
3, 41535, Note_on_c, 1, 60, 0
3, 41535, Note_on_c, 1, 53, 0
3, 41535, Control_c, 1, 123, 0
3, 41580, Note_on_c, 1, 50, 103
3, 41601, Control_c, 1, 123, 0
3, 41606, Note_on_c, 1, 50, 0
3, 41640, Note_on_c, 1, 53, 95
3, 41642, Note_on_c, 1, 57, 84
3, 41642, Note_on_c, 1, 60, 88
3, 41643, Note_on_c, 1, 64, 80
3, 41643, Note_on_c, 1, 53, 80
3, 41655, Note_on_c, 1, 64, 0
3, 41657, Note_on_c, 1, 57, 0
3, 41657, Note_on_c, 1, 60, 0
3, 41659, Note_on_c, 1, 53, 0
3, 41659, Control_c, 1, 123, 0
3, 41668, Control_c, 1, 123, 0
3, 41669, Note_on_c, 1, 53, 0
3, 41700, Note_on_c, 1, 57, 92
3, 41730, Control_c, 1, 123, 0
3, 41733, Note_on_c, 1, 57, 0
3, 41758, Note_on_c, 1, 53, 79
3, 41759, Note_on_c, 1, 60, 88
3, 41759, Note_on_c, 1, 64, 77
3, 41760, Note_on_c, 1, 57, 77
3, 41773, Note_on_c, 1, 64, 0
3, 41775, Note_on_c, 1, 53, 0
3, 41775, Note_on_c, 1, 57, 0
3, 41777, Note_on_c, 1, 60, 0
3, 41777, Control_c, 1, 123, 0
3, 41880, Note_on_c, 1, 57, 88
3, 41880, Note_on_c, 1, 60, 95
3, 41881, Note_on_c, 1, 53, 77
3, 41881, Note_on_c, 1, 64, 80
3, 41894, Note_on_c, 1, 64, 0
3, 41897, Note_on_c, 1, 57, 0
3, 41897, Note_on_c, 1, 60, 0
3, 41897, Note_on_c, 1, 53, 0
3, 41897, Control_c, 1, 123, 0
3, 42000, Note_on_c, 1, 57, 82
3, 42001, Note_on_c, 1, 64, 80
3, 42001, Note_on_c, 1, 60, 90
3, 42002, Note_on_c, 1, 53, 77
3, 42014, Note_on_c, 1, 64, 0
3, 42016, Note_on_c, 1, 57, 0
3, 42017, Note_on_c, 1, 53, 0
3, 42019, Note_on_c, 1, 60, 0
3, 42019, Control_c, 1, 123, 0
3, 42060, Note_on_c, 1, 50, 106
3, 42079, Control_c, 1, 123, 0
3, 42084, Note_on_c, 1, 50, 0
3, 42120, Note_on_c, 1, 53, 90
3, 42123, Note_on_c, 1, 57, 95
3, 42123, Note_on_c, 1, 53, 86
3, 42124, Note_on_c, 1, 60, 88
3, 42124, Note_on_c, 1, 64, 84
3, 42135, Note_on_c, 1, 64, 0
3, 42138, Note_on_c, 1, 53, 0
3, 42138, Note_on_c, 1, 57, 0
3, 42138, Note_on_c, 1, 60, 0
3, 42138, Control_c, 1, 123, 0
3, 42144, Control_c, 1, 123, 0
3, 42148, Note_on_c, 1, 53, 0
3, 42180, Note_on_c, 1, 55, 106
3, 42218, Control_c, 1, 123, 0
3, 42223, Note_on_c, 1, 55, 0
3, 42243, Note_on_c, 1, 58, 90
3, 42243, Note_on_c, 1, 62, 88
3, 42243, Note_on_c, 1, 55, 90
3, 42244, Note_on_c, 1, 65, 82
3, 42255, Note_on_c, 1, 65, 0
3, 42256, Note_on_c, 1, 58, 0
3, 42256, Note_on_c, 1, 62, 0
3, 42258, Note_on_c, 1, 55, 0
3, 42258, Control_c, 1, 123, 0
3, 42361, Note_on_c, 1, 58, 90
3, 42363, Note_on_c, 1, 62, 82
3, 42364, Note_on_c, 1, 55, 88
3, 42364, Note_on_c, 1, 65, 63
3, 42367, Note_on_c, 1, 64, 54
3, 42371, Note_on_c, 1, 64, 0
3, 42372, Note_on_c, 1, 65, 0
3, 42376, Note_on_c, 1, 58, 0
3, 42376, Note_on_c, 1, 62, 0
3, 42376, Note_on_c, 1, 55, 0
3, 42376, Control_c, 1, 123, 0
3, 42475, Note_on_c, 1, 58, 90
3, 42477, Note_on_c, 1, 62, 84
3, 42477, Note_on_c, 1, 55, 90
3, 42477, Note_on_c, 1, 65, 76
3, 42487, Note_on_c, 1, 65, 0
3, 42489, Note_on_c, 1, 58, 0
3, 42489, Note_on_c, 1, 62, 0
3, 42489, Note_on_c, 1, 55, 0
3, 42489, Control_c, 1, 123, 0
3, 42540, Note_on_c, 1, 50, 106
3, 42560, Control_c, 1, 123, 0
3, 42562, Note_on_c, 1, 50, 0
3, 42594, Note_on_c, 1, 58, 77
3, 42594, Note_on_c, 1, 62, 82
3, 42595, Note_on_c, 1, 65, 80
3, 42595, Note_on_c, 1, 55, 86
3, 42600, Note_on_c, 1, 53, 84
3, 42606, Note_on_c, 1, 65, 0
3, 42608, Note_on_c, 1, 58, 0
3, 42608, Note_on_c, 1, 62, 0
3, 42608, Note_on_c, 1, 55, 0
3, 42608, Control_c, 1, 123, 0
3, 42619, Control_c, 1, 123, 0
3, 42624, Note_on_c, 1, 53, 0
3, 42660, Note_on_c, 1, 55, 86
3, 42677, Control_c, 1, 123, 0
3, 42685, Note_on_c, 1, 55, 0
3, 42717, Note_on_c, 1, 58, 77
3, 42717, Note_on_c, 1, 62, 77
3, 42718, Note_on_c, 1, 55, 86
3, 42718, Note_on_c, 1, 65, 64
3, 42720, Note_on_c, 1, 57, 97
3, 42721, Note_on_c, 1, 64, 54
3, 42725, Note_on_c, 1, 64, 0
3, 42727, Note_on_c, 1, 65, 0
3, 42730, Note_on_c, 1, 58, 0
3, 42730, Note_on_c, 1, 62, 0
3, 42730, Note_on_c, 1, 55, 0
3, 42730, Control_c, 1, 123, 0
3, 42828, Control_c, 1, 123, 0
3, 42832, Note_on_c, 1, 57, 0
3, 42840, Note_on_c, 1, 58, 86
3, 42840, Note_on_c, 1, 55, 103
3, 42841, Note_on_c, 1, 62, 86
3, 42842, Note_on_c, 1, 55, 88
3, 42842, Note_on_c, 1, 65, 74
3, 42852, Note_on_c, 1, 65, 0
3, 42853, Note_on_c, 1, 58, 0
3, 42854, Note_on_c, 1, 55, 0
3, 42854, Note_on_c, 1, 62, 0
3, 42854, Control_c, 1, 123, 0
3, 42887, Control_c, 1, 123, 0
3, 42899, Note_on_c, 1, 55, 0
3, 42900, Note_on_c, 1, 53, 103
3, 42919, Control_c, 1, 123, 0
3, 42929, Note_on_c, 1, 53, 0
3, 42956, Note_on_c, 1, 58, 77
3, 42957, Note_on_c, 1, 55, 86
3, 42957, Note_on_c, 1, 62, 82
3, 42959, Note_on_c, 1, 65, 65
3, 42960, Note_on_c, 1, 55, 106
3, 42967, Note_on_c, 1, 65, 0
3, 42969, Note_on_c, 1, 58, 0
3, 42969, Note_on_c, 1, 55, 0
3, 42969, Note_on_c, 1, 62, 0
3, 42969, Control_c, 1, 123, 0
3, 42994, Control_c, 1, 123, 0
3, 43004, Note_on_c, 1, 55, 0
3, 43020, Note_on_c, 1, 53, 122
3, 43079, Note_on_c, 1, 58, 75
3, 43079, Note_on_c, 1, 55, 86
3, 43079, Note_on_c, 1, 62, 80
3, 43081, Note_on_c, 1, 65, 65
3, 43089, Note_on_c, 1, 65, 0
3, 43091, Note_on_c, 1, 58, 0
3, 43093, Note_on_c, 1, 55, 0
3, 43093, Note_on_c, 1, 62, 0
3, 43093, Control_c, 1, 123, 0
3, 43199, Note_on_c, 1, 58, 77
3, 43201, Note_on_c, 1, 62, 86
3, 43201, Note_on_c, 1, 55, 82
3, 43202, Note_on_c, 1, 65, 76
3, 43211, Note_on_c, 1, 65, 0
3, 43213, Note_on_c, 1, 58, 0
3, 43213, Note_on_c, 1, 55, 0
3, 43215, Note_on_c, 1, 62, 0
3, 43215, Control_c, 1, 123, 0
3, 43318, Note_on_c, 1, 58, 80
3, 43318, Note_on_c, 1, 62, 86
3, 43318, Note_on_c, 1, 65, 86
3, 43319, Note_on_c, 1, 55, 88
3, 43330, Note_on_c, 1, 65, 0
3, 43331, Note_on_c, 1, 58, 0
3, 43331, Note_on_c, 1, 55, 0
3, 43332, Note_on_c, 1, 62, 0
3, 43332, Control_c, 1, 123, 0
3, 43438, Note_on_c, 1, 58, 77
3, 43440, Note_on_c, 1, 62, 80
3, 43440, Note_on_c, 1, 55, 86
3, 43440, Note_on_c, 1, 65, 73
3, 43449, Note_on_c, 1, 65, 0
3, 43450, Note_on_c, 1, 58, 0
3, 43450, Note_on_c, 1, 62, 0
3, 43450, Note_on_c, 1, 55, 0
3, 43450, Control_c, 1, 123, 0
3, 43560, Note_on_c, 1, 58, 90
3, 43560, Note_on_c, 1, 62, 95
3, 43560, Note_on_c, 1, 55, 95
3, 43560, Note_on_c, 1, 65, 90
3, 43572, Note_on_c, 1, 65, 0
3, 43575, Note_on_c, 1, 58, 0
3, 43575, Note_on_c, 1, 62, 0
3, 43575, Note_on_c, 1, 55, 0
3, 43575, Control_c, 1, 123, 0
3, 43710, Control_c, 1, 123, 0
3, 43715, Note_on_c, 1, 53, 0
3, 43806, Note_on_c, 1, 57, 64
3, 43808, Note_on_c, 1, 64, 56
3, 43808, Note_on_c, 1, 53, 58
3, 43808, Note_on_c, 1, 60, 58
3, 43816, Note_on_c, 1, 64, 0
3, 43816, Note_on_c, 1, 60, 0
3, 43818, Note_on_c, 1, 57, 0
3, 43818, Note_on_c, 1, 53, 0
3, 43818, Control_c, 1, 123, 0
3, 43896, Note_on_c, 1, 57, 84
3, 43896, Note_on_c, 1, 53, 79
3, 43896, Note_on_c, 1, 64, 67
3, 43897, Note_on_c, 1, 60, 71
3, 43905, Note_on_c, 1, 64, 0
3, 43905, Note_on_c, 1, 60, 0
3, 43906, Note_on_c, 1, 53, 0
3, 43907, Note_on_c, 1, 57, 0
3, 43907, Control_c, 1, 123, 0
3, 43984, Note_on_c, 1, 57, 95
3, 43985, Note_on_c, 1, 64, 88
3, 43985, Note_on_c, 1, 60, 97
3, 43985, Note_on_c, 1, 53, 86
3, 44051, Note_on_c, 1, 64, 0
3, 44054, Note_on_c, 1, 60, 0
3, 44055, Note_on_c, 1, 53, 0
3, 44056, Note_on_c, 1, 57, 0
3, 44056, Control_c, 1, 123, 0
3, 44098, Note_on_c, 1, 57, 88
3, 44098, Note_on_c, 1, 64, 72
3, 44099, Note_on_c, 1, 53, 80
3, 44099, Note_on_c, 1, 60, 82
3, 44107, Note_on_c, 1, 64, 0
3, 44107, Note_on_c, 1, 60, 0
3, 44110, Note_on_c, 1, 57, 0
3, 44110, Note_on_c, 1, 53, 0
3, 44110, Control_c, 1, 123, 0
3, 44124, Note_on_c, 1, 57, 68
3, 44124, Note_on_c, 1, 60, 70
3, 44126, Note_on_c, 1, 64, 60
3, 44127, Note_on_c, 1, 53, 51
3, 44135, Note_on_c, 1, 64, 0
3, 44136, Note_on_c, 1, 60, 0
3, 44136, Note_on_c, 1, 53, 0
3, 44140, Note_on_c, 1, 57, 0
3, 44140, Control_c, 1, 123, 0
3, 44189, Note_on_c, 1, 57, 80
3, 44191, Note_on_c, 1, 60, 72
3, 44191, Note_on_c, 1, 64, 61
3, 44192, Note_on_c, 1, 53, 73
3, 44197, Note_on_c, 1, 57, 0
3, 44197, Note_on_c, 1, 60, 0
3, 44197, Note_on_c, 1, 64, 0
3, 44199, Note_on_c, 1, 53, 0
3, 44199, Control_c, 1, 123, 0
3, 44322, Note_on_c, 1, 57, 80
3, 44322, Note_on_c, 1, 53, 76
3, 44323, Note_on_c, 1, 64, 74
3, 44323, Note_on_c, 1, 60, 80
3, 44329, Note_on_c, 1, 64, 0
3, 44329, Note_on_c, 1, 60, 0
3, 44330, Note_on_c, 1, 57, 0
3, 44331, Note_on_c, 1, 53, 0
3, 44331, Control_c, 1, 123, 0
3, 44397, Note_on_c, 1, 57, 95
3, 44398, Note_on_c, 1, 60, 97
3, 44398, Note_on_c, 1, 64, 82
3, 44398, Note_on_c, 1, 53, 92
3, 44411, Note_on_c, 1, 64, 0
3, 44414, Note_on_c, 1, 57, 0
3, 44414, Note_on_c, 1, 60, 0
3, 44414, Note_on_c, 1, 53, 0
3, 44414, Control_c, 1, 123, 0
3, 44490, Note_on_c, 1, 64, 92
3, 44490, Note_on_c, 1, 57, 103
3, 44490, Note_on_c, 1, 60, 109
3, 44491, Note_on_c, 1, 53, 92
3, 44514, Note_on_c, 1, 60, 0
3, 44517, Note_on_c, 1, 64, 0
3, 44541, Note_on_c, 1, 57, 0
3, 44541, Note_on_c, 1, 53, 0
3, 44541, Control_c, 1, 123, 0
3, 44583, Note_on_c, 1, 57, 90
3, 44583, Note_on_c, 1, 64, 80
3, 44583, Note_on_c, 1, 60, 84
3, 44584, Note_on_c, 1, 53, 84
3, 44593, Note_on_c, 1, 64, 0
3, 44596, Note_on_c, 1, 60, 0
3, 44598, Note_on_c, 1, 57, 0
3, 44598, Note_on_c, 1, 53, 0
3, 44598, Control_c, 1, 123, 0
3, 44609, Note_on_c, 1, 57, 62
3, 44611, Note_on_c, 1, 60, 70
3, 44611, Note_on_c, 1, 53, 51
3, 44613, Note_on_c, 1, 64, 62
3, 44622, Note_on_c, 1, 57, 0
3, 44624, Note_on_c, 1, 60, 0
3, 44624, Note_on_c, 1, 53, 0
3, 44624, Note_on_c, 1, 64, 0
3, 44624, Control_c, 1, 123, 0
3, 44792, Note_on_c, 1, 58, 90
3, 44793, Note_on_c, 1, 62, 95
3, 44793, Note_on_c, 1, 55, 92
3, 44793, Note_on_c, 1, 65, 88
3, 44807, Note_on_c, 1, 58, 0
3, 44807, Note_on_c, 1, 65, 0
3, 44811, Note_on_c, 1, 62, 0
3, 44811, Note_on_c, 1, 55, 0
3, 44811, Control_c, 1, 123, 0
3, 44880, Note_on_c, 1, 58, 90
3, 44880, Note_on_c, 1, 62, 88
3, 44880, Note_on_c, 1, 55, 95
3, 44880, Note_on_c, 1, 65, 82
3, 44883, Note_on_c, 1, 64, 69
3, 44886, Note_on_c, 1, 64, 0
3, 44937, Note_on_c, 1, 58, 0
3, 44937, Note_on_c, 1, 65, 0
3, 44939, Note_on_c, 1, 62, 0
3, 44939, Note_on_c, 1, 55, 0
3, 44939, Control_c, 1, 123, 0
3, 44967, Note_on_c, 1, 58, 83
3, 44968, Note_on_c, 1, 62, 84
3, 44968, Note_on_c, 1, 65, 80
3, 44968, Note_on_c, 1, 55, 90
3, 44984, Note_on_c, 1, 58, 0
3, 44984, Note_on_c, 1, 65, 0
3, 44986, Note_on_c, 1, 62, 0
3, 44986, Note_on_c, 1, 55, 0
3, 44986, Control_c, 1, 123, 0
3, 45059, Note_on_c, 1, 58, 83
3, 45059, Note_on_c, 1, 62, 88
3, 45059, Note_on_c, 1, 55, 90
3, 45060, Note_on_c, 1, 65, 84
3, 45069, Note_on_c, 1, 65, 0
3, 45071, Note_on_c, 1, 58, 0
3, 45071, Note_on_c, 1, 62, 0
3, 45073, Note_on_c, 1, 55, 0
3, 45073, Control_c, 1, 123, 0
3, 45086, Note_on_c, 1, 58, 75
3, 45088, Note_on_c, 1, 62, 79
3, 45088, Note_on_c, 1, 55, 76
3, 45089, Note_on_c, 1, 65, 79
3, 45101, Note_on_c, 1, 58, 0
3, 45101, Note_on_c, 1, 65, 0
3, 45103, Note_on_c, 1, 62, 0
3, 45105, Note_on_c, 1, 55, 0
3, 45105, Control_c, 1, 123, 0
3, 45268, Note_on_c, 1, 58, 67
3, 45269, Note_on_c, 1, 55, 72
3, 45269, Note_on_c, 1, 62, 66
3, 45269, Note_on_c, 1, 65, 66
3, 45282, Note_on_c, 1, 65, 0
3, 45283, Note_on_c, 1, 62, 0
3, 45287, Note_on_c, 1, 58, 0
3, 45288, Note_on_c, 1, 55, 0
3, 45288, Control_c, 1, 123, 0
3, 45360, Note_on_c, 1, 58, 95
3, 45362, Note_on_c, 1, 62, 92
3, 45362, Note_on_c, 1, 55, 92
3, 45362, Note_on_c, 1, 65, 90
3, 45364, Note_on_c, 1, 64, 64
3, 45368, Note_on_c, 1, 64, 0
3, 45420, Note_on_c, 1, 55, 0
3, 45422, Note_on_c, 1, 58, 0
3, 45422, Note_on_c, 1, 62, 0
3, 45422, Note_on_c, 1, 65, 0
3, 45422, Control_c, 1, 123, 0
3, 45446, Note_on_c, 1, 58, 69
3, 45448, Note_on_c, 1, 55, 73
3, 45448, Note_on_c, 1, 62, 72
3, 45448, Note_on_c, 1, 65, 73
3, 45458, Note_on_c, 1, 58, 0
3, 45460, Note_on_c, 1, 55, 0
3, 45460, Note_on_c, 1, 62, 0
3, 45460, Note_on_c, 1, 65, 0
3, 45460, Control_c, 1, 123, 0
3, 45542, Note_on_c, 1, 58, 106
3, 45542, Note_on_c, 1, 62, 100
3, 45542, Note_on_c, 1, 65, 92
3, 45543, Note_on_c, 1, 55, 97
3, 45555, Note_on_c, 1, 58, 0
3, 45555, Note_on_c, 1, 62, 0
3, 45555, Note_on_c, 1, 65, 0
3, 45555, Note_on_c, 1, 55, 0
3, 45555, Control_c, 1, 123, 0
3, 45569, Note_on_c, 1, 58, 67
3, 45570, Note_on_c, 1, 62, 68
3, 45570, Note_on_c, 1, 55, 62
3, 45572, Note_on_c, 1, 65, 65
3, 45583, Note_on_c, 1, 65, 0
3, 45585, Note_on_c, 1, 62, 0
3, 45586, Note_on_c, 1, 58, 0
3, 45588, Note_on_c, 1, 55, 0
3, 45588, Control_c, 1, 123, 0
3, 45749, Note_on_c, 1, 57, 84
3, 45749, Note_on_c, 1, 60, 90
3, 45749, Note_on_c, 1, 53, 76
3, 45750, Note_on_c, 1, 64, 76
3, 45762, Note_on_c, 1, 64, 0
3, 45764, Note_on_c, 1, 57, 0
3, 45764, Note_on_c, 1, 60, 0
3, 45764, Note_on_c, 1, 53, 0
3, 45764, Control_c, 1, 123, 0
3, 45839, Note_on_c, 1, 57, 95
3, 45839, Note_on_c, 1, 53, 92
3, 45839, Note_on_c, 1, 60, 100
3, 45840, Note_on_c, 1, 64, 86
3, 45900, Note_on_c, 1, 53, 0
3, 45900, Note_on_c, 1, 64, 0
3, 45902, Note_on_c, 1, 57, 0
3, 45902, Note_on_c, 1, 60, 0
3, 45902, Control_c, 1, 123, 0
3, 45926, Note_on_c, 1, 57, 88
3, 45926, Note_on_c, 1, 53, 80
3, 45927, Note_on_c, 1, 64, 77
3, 45927, Note_on_c, 1, 60, 82
3, 45938, Note_on_c, 1, 64, 0
3, 45941, Note_on_c, 1, 60, 0
3, 45943, Note_on_c, 1, 53, 0
3, 45944, Note_on_c, 1, 57, 0
3, 45944, Control_c, 1, 123, 0
3, 46014, Note_on_c, 1, 57, 88
3, 46014, Note_on_c, 1, 64, 80
3, 46015, Note_on_c, 1, 60, 90
3, 46015, Note_on_c, 1, 53, 90
3, 46027, Note_on_c, 1, 64, 0
3, 46031, Note_on_c, 1, 57, 0
3, 46031, Note_on_c, 1, 60, 0
3, 46031, Note_on_c, 1, 53, 0
3, 46031, Control_c, 1, 123, 0
3, 46043, Note_on_c, 1, 57, 77
3, 46045, Note_on_c, 1, 60, 84
3, 46045, Note_on_c, 1, 53, 70
3, 46046, Note_on_c, 1, 64, 72
3, 46061, Note_on_c, 1, 53, 0
3, 46061, Note_on_c, 1, 64, 0
3, 46063, Note_on_c, 1, 57, 0
3, 46063, Note_on_c, 1, 60, 0
3, 46063, Control_c, 1, 123, 0
3, 46230, Note_on_c, 1, 57, 79
3, 46230, Note_on_c, 1, 60, 82
3, 46230, Note_on_c, 1, 64, 72
3, 46230, Note_on_c, 1, 53, 73
3, 46243, Note_on_c, 1, 64, 0
3, 46246, Note_on_c, 1, 60, 0
3, 46246, Note_on_c, 1, 53, 0
3, 46248, Note_on_c, 1, 57, 0
3, 46248, Control_c, 1, 123, 0
3, 46321, Note_on_c, 1, 57, 109
3, 46322, Note_on_c, 1, 60, 113
3, 46322, Note_on_c, 1, 53, 103
3, 46322, Note_on_c, 1, 64, 100
3, 46382, Note_on_c, 1, 53, 0
3, 46384, Note_on_c, 1, 60, 0
3, 46384, Note_on_c, 1, 64, 0
3, 46386, Note_on_c, 1, 57, 0
3, 46386, Control_c, 1, 123, 0
3, 46410, Note_on_c, 1, 57, 88
3, 46410, Note_on_c, 1, 53, 82
3, 46410, Note_on_c, 1, 60, 95
3, 46410, Note_on_c, 1, 64, 84
3, 46426, Note_on_c, 1, 60, 0
3, 46426, Note_on_c, 1, 64, 0
3, 46428, Note_on_c, 1, 57, 0
3, 46428, Note_on_c, 1, 53, 0
3, 46428, Control_c, 1, 123, 0
3, 46501, Note_on_c, 1, 64, 90
3, 46501, Note_on_c, 1, 57, 100
3, 46502, Note_on_c, 1, 60, 103
3, 46502, Note_on_c, 1, 53, 97
3, 46516, Note_on_c, 1, 64, 0
3, 46516, Note_on_c, 1, 60, 0
3, 46518, Note_on_c, 1, 57, 0
3, 46518, Note_on_c, 1, 53, 0
3, 46518, Control_c, 1, 123, 0
3, 46530, Note_on_c, 1, 57, 74
3, 46530, Note_on_c, 1, 60, 77
3, 46531, Note_on_c, 1, 64, 72
3, 46531, Note_on_c, 1, 53, 61
3, 46545, Note_on_c, 1, 53, 0
3, 46547, Note_on_c, 1, 57, 0
3, 46547, Note_on_c, 1, 60, 0
3, 46549, Note_on_c, 1, 64, 0
3, 46549, Control_c, 1, 123, 0
3, 46711, Note_on_c, 1, 58, 83
3, 46713, Note_on_c, 1, 62, 80
3, 46713, Note_on_c, 1, 55, 77
3, 46713, Note_on_c, 1, 65, 60
3, 46721, Note_on_c, 1, 65, 0
3, 46723, Note_on_c, 1, 58, 0
3, 46723, Note_on_c, 1, 62, 0
3, 46726, Note_on_c, 1, 55, 0
3, 46726, Control_c, 1, 123, 0
3, 46798, Note_on_c, 1, 58, 106
3, 46798, Note_on_c, 1, 62, 95
3, 46799, Note_on_c, 1, 55, 97
3, 46799, Note_on_c, 1, 65, 90
3, 46862, Note_on_c, 1, 55, 0
3, 46865, Note_on_c, 1, 58, 0
3, 46865, Note_on_c, 1, 62, 0
3, 46865, Note_on_c, 1, 65, 0
3, 46866, Control_c, 1, 123, 0
3, 46888, Note_on_c, 1, 58, 71
3, 46888, Note_on_c, 1, 62, 80
3, 46889, Note_on_c, 1, 65, 80
3, 46889, Note_on_c, 1, 55, 80
3, 46901, Note_on_c, 1, 58, 0
3, 46903, Note_on_c, 1, 62, 0
3, 46903, Note_on_c, 1, 55, 0
3, 46907, Note_on_c, 1, 65, 0
3, 46907, Control_c, 1, 123, 0
3, 46984, Note_on_c, 1, 58, 86
3, 46984, Note_on_c, 1, 55, 90
3, 46984, Note_on_c, 1, 62, 86
3, 46985, Note_on_c, 1, 65, 86
3, 46995, Note_on_c, 1, 58, 0
3, 46995, Note_on_c, 1, 65, 0
3, 46997, Note_on_c, 1, 62, 0
3, 46999, Note_on_c, 1, 55, 0
3, 46999, Control_c, 1, 123, 0
3, 47013, Note_on_c, 1, 58, 77
3, 47014, Note_on_c, 1, 55, 74
3, 47015, Note_on_c, 1, 62, 84
3, 47015, Note_on_c, 1, 65, 80
3, 47029, Note_on_c, 1, 58, 0
3, 47031, Note_on_c, 1, 55, 0
3, 47031, Note_on_c, 1, 62, 0
3, 47031, Note_on_c, 1, 65, 0
3, 47031, Control_c, 1, 123, 0
3, 47189, Note_on_c, 1, 58, 73
3, 47189, Note_on_c, 1, 55, 73
3, 47189, Note_on_c, 1, 62, 64
3, 47191, Note_on_c, 1, 65, 68
3, 47199, Note_on_c, 1, 65, 0
3, 47202, Note_on_c, 1, 58, 0
3, 47202, Note_on_c, 1, 55, 0
3, 47202, Note_on_c, 1, 62, 0
3, 47203, Control_c, 1, 123, 0
3, 47280, Note_on_c, 1, 58, 95
3, 47280, Note_on_c, 1, 55, 92
3, 47281, Note_on_c, 1, 62, 95
3, 47281, Note_on_c, 1, 65, 88
3, 47338, Note_on_c, 1, 58, 0
3, 47338, Note_on_c, 1, 55, 0
3, 47338, Note_on_c, 1, 62, 0
3, 47340, Note_on_c, 1, 65, 0
3, 47340, Control_c, 1, 123, 0
3, 47368, Note_on_c, 1, 65, 88
3, 47369, Note_on_c, 1, 58, 100
3, 47369, Note_on_c, 1, 62, 95
3, 47369, Note_on_c, 1, 55, 100
3, 47379, Note_on_c, 1, 65, 0
3, 47381, Note_on_c, 1, 58, 0
3, 47381, Note_on_c, 1, 62, 0
3, 47383, Note_on_c, 1, 55, 0
3, 47383, Control_c, 1, 123, 0
3, 47460, Note_on_c, 1, 58, 100
3, 47461, Note_on_c, 1, 55, 92
3, 47462, Note_on_c, 1, 62, 97
3, 47462, Note_on_c, 1, 65, 88
3, 47473, Note_on_c, 1, 65, 0
3, 47475, Note_on_c, 1, 58, 0
3, 47475, Note_on_c, 1, 55, 0
3, 47475, Note_on_c, 1, 62, 0
3, 47475, Control_c, 1, 123, 0
3, 47487, Note_on_c, 1, 58, 65
3, 47489, Note_on_c, 1, 55, 61
3, 47489, Note_on_c, 1, 62, 68
3, 47490, Note_on_c, 1, 65, 63
3, 47499, Note_on_c, 1, 65, 0
3, 47501, Note_on_c, 1, 62, 0
3, 47502, Note_on_c, 1, 58, 0
3, 47506, Note_on_c, 1, 55, 0
3, 47506, Control_c, 1, 123, 0
3, 47670, Note_on_c, 1, 57, 82
3, 47670, Note_on_c, 1, 64, 79
3, 47670, Note_on_c, 1, 53, 74
3, 47672, Note_on_c, 1, 60, 74
3, 47681, Note_on_c, 1, 60, 0
3, 47682, Note_on_c, 1, 64, 0
3, 47685, Note_on_c, 1, 57, 0
3, 47685, Note_on_c, 1, 53, 0
3, 47685, Control_c, 1, 123, 0
3, 47760, Note_on_c, 1, 57, 103
3, 47760, Note_on_c, 1, 53, 100
3, 47760, Note_on_c, 1, 60, 113
3, 47761, Note_on_c, 1, 64, 95
3, 47827, Note_on_c, 1, 57, 0
3, 47827, Note_on_c, 1, 53, 0
3, 47827, Note_on_c, 1, 60, 0
3, 47827, Note_on_c, 1, 64, 0
3, 47827, Control_c, 1, 123, 0
3, 47848, Note_on_c, 1, 57, 79
3, 47849, Note_on_c, 1, 64, 76
3, 47849, Note_on_c, 1, 53, 73
3, 47849, Note_on_c, 1, 60, 73
3, 47865, Note_on_c, 1, 64, 0
3, 47867, Note_on_c, 1, 57, 0
3, 47867, Note_on_c, 1, 53, 0
3, 47867, Note_on_c, 1, 60, 0
3, 47867, Control_c, 1, 123, 0
3, 47940, Note_on_c, 1, 57, 95
3, 47940, Note_on_c, 1, 64, 92
3, 47940, Note_on_c, 1, 53, 84
3, 47941, Note_on_c, 1, 60, 100
3, 47956, Note_on_c, 1, 57, 0
3, 47956, Note_on_c, 1, 64, 0
3, 47956, Note_on_c, 1, 53, 0
3, 47958, Note_on_c, 1, 60, 0
3, 47958, Control_c, 1, 123, 0
3, 47969, Note_on_c, 1, 57, 70
3, 47969, Note_on_c, 1, 60, 69
3, 47969, Note_on_c, 1, 53, 60
3, 47970, Note_on_c, 1, 64, 64
3, 47984, Note_on_c, 1, 57, 0
3, 47984, Note_on_c, 1, 60, 0
3, 47984, Note_on_c, 1, 53, 0
3, 47984, Note_on_c, 1, 64, 0
3, 47984, Control_c, 1, 123, 0
3, 48151, Note_on_c, 1, 57, 80
3, 48151, Note_on_c, 1, 64, 77
3, 48152, Note_on_c, 1, 60, 82
3, 48152, Note_on_c, 1, 53, 72
3, 48163, Note_on_c, 1, 64, 0
3, 48163, Note_on_c, 1, 60, 0
3, 48165, Note_on_c, 1, 53, 0
3, 48166, Note_on_c, 1, 57, 0
3, 48167, Control_c, 1, 123, 0
3, 48238, Note_on_c, 1, 57, 103
3, 48240, Note_on_c, 1, 53, 97
3, 48240, Note_on_c, 1, 64, 95
3, 48240, Note_on_c, 1, 60, 106
3, 48311, Note_on_c, 1, 57, 0
3, 48311, Note_on_c, 1, 53, 0
3, 48311, Note_on_c, 1, 64, 0
3, 48311, Note_on_c, 1, 60, 0
3, 48311, Control_c, 1, 123, 0
3, 48330, Note_on_c, 1, 57, 82
3, 48330, Note_on_c, 1, 53, 77
3, 48330, Note_on_c, 1, 64, 79
3, 48330, Note_on_c, 1, 60, 84
3, 48346, Note_on_c, 1, 53, 0
3, 48346, Note_on_c, 1, 64, 0
3, 48346, Note_on_c, 1, 60, 0
3, 48348, Note_on_c, 1, 57, 0
3, 48348, Control_c, 1, 123, 0
3, 48421, Note_on_c, 1, 53, 88
3, 48423, Note_on_c, 1, 57, 92
3, 48423, Note_on_c, 1, 64, 88
3, 48424, Note_on_c, 1, 60, 95
3, 48437, Note_on_c, 1, 64, 0
3, 48439, Note_on_c, 1, 57, 0
3, 48439, Note_on_c, 1, 60, 0
3, 48441, Note_on_c, 1, 53, 0
3, 48441, Control_c, 1, 123, 0
3, 48452, Note_on_c, 1, 57, 73
3, 48452, Note_on_c, 1, 53, 68
3, 48452, Note_on_c, 1, 60, 80
3, 48453, Note_on_c, 1, 64, 64
3, 48468, Note_on_c, 1, 53, 0
3, 48468, Note_on_c, 1, 60, 0
3, 48470, Note_on_c, 1, 57, 0
3, 48472, Note_on_c, 1, 64, 0
3, 48472, Control_c, 1, 123, 0
3, 48632, Note_on_c, 1, 58, 60
3, 48633, Note_on_c, 1, 55, 67
3, 48635, Note_on_c, 1, 65, 59
3, 48635, Note_on_c, 1, 62, 55
3, 48644, Note_on_c, 1, 65, 0
3, 48644, Note_on_c, 1, 62, 0
3, 48645, Note_on_c, 1, 58, 0
3, 48648, Note_on_c, 1, 55, 0
3, 48648, Control_c, 1, 123, 0
3, 48721, Note_on_c, 1, 58, 106
3, 48722, Note_on_c, 1, 62, 97
3, 48722, Note_on_c, 1, 65, 95
3, 48722, Note_on_c, 1, 55, 100
3, 48784, Note_on_c, 1, 55, 0
3, 48785, Note_on_c, 1, 58, 0
3, 48787, Note_on_c, 1, 62, 0
3, 48787, Note_on_c, 1, 65, 0
3, 48787, Control_c, 1, 123, 0
3, 48807, Note_on_c, 1, 58, 58
3, 48807, Note_on_c, 1, 65, 63
3, 48807, Note_on_c, 1, 62, 60
3, 48809, Note_on_c, 1, 55, 69
3, 48819, Note_on_c, 1, 58, 0
3, 48820, Note_on_c, 1, 55, 0
3, 48821, Note_on_c, 1, 65, 0
3, 48821, Note_on_c, 1, 62, 0
3, 48821, Control_c, 1, 123, 0
3, 48901, Note_on_c, 1, 58, 90
3, 48901, Note_on_c, 1, 55, 88
3, 48902, Note_on_c, 1, 62, 90
3, 48902, Note_on_c, 1, 65, 90
3, 48916, Note_on_c, 1, 58, 0
3, 48916, Note_on_c, 1, 55, 0
3, 48916, Note_on_c, 1, 62, 0
3, 48916, Note_on_c, 1, 65, 0
3, 48916, Control_c, 1, 123, 0
3, 48929, Note_on_c, 1, 58, 61
3, 48930, Note_on_c, 1, 55, 61
3, 48931, Note_on_c, 1, 65, 68
3, 48931, Note_on_c, 1, 62, 60
3, 48947, Note_on_c, 1, 58, 0
3, 48947, Note_on_c, 1, 65, 0
3, 48947, Note_on_c, 1, 62, 0
3, 48949, Note_on_c, 1, 55, 0
3, 48949, Control_c, 1, 123, 0
3, 49109, Note_on_c, 1, 58, 67
3, 49109, Note_on_c, 1, 62, 73
3, 49111, Note_on_c, 1, 65, 65
3, 49112, Note_on_c, 1, 55, 69
3, 49119, Note_on_c, 1, 65, 0
3, 49120, Note_on_c, 1, 58, 0
3, 49121, Note_on_c, 1, 55, 0
3, 49122, Note_on_c, 1, 62, 0
3, 49122, Control_c, 1, 123, 0
3, 49199, Note_on_c, 1, 58, 100
3, 49200, Note_on_c, 1, 65, 90
3, 49200, Note_on_c, 1, 62, 100
3, 49200, Note_on_c, 1, 55, 97
3, 49265, Note_on_c, 1, 58, 0
3, 49266, Note_on_c, 1, 65, 0
3, 49266, Note_on_c, 1, 55, 0
3, 49267, Note_on_c, 1, 62, 0
3, 49267, Control_c, 1, 123, 0
3, 49286, Note_on_c, 1, 58, 71
3, 49287, Note_on_c, 1, 62, 74
3, 49287, Note_on_c, 1, 65, 77
3, 49287, Note_on_c, 1, 55, 82
3, 49298, Note_on_c, 1, 58, 0
3, 49298, Note_on_c, 1, 65, 0
3, 49300, Note_on_c, 1, 62, 0
3, 49302, Note_on_c, 1, 55, 0
3, 49302, Control_c, 1, 123, 0
3, 49380, Note_on_c, 1, 58, 100
3, 49381, Note_on_c, 1, 62, 97
3, 49381, Note_on_c, 1, 55, 100
3, 49381, Note_on_c, 1, 65, 95
3, 49392, Note_on_c, 1, 65, 0
3, 49394, Note_on_c, 1, 58, 0
3, 49394, Note_on_c, 1, 62, 0
3, 49396, Note_on_c, 1, 55, 0
3, 49396, Control_c, 1, 123, 0
3, 49408, Note_on_c, 1, 58, 64
3, 49410, Note_on_c, 1, 55, 57
3, 49410, Note_on_c, 1, 62, 64
3, 49410, Note_on_c, 1, 65, 62
3, 49423, Note_on_c, 1, 62, 0
3, 49423, Note_on_c, 1, 65, 0
3, 49426, Note_on_c, 1, 58, 0
3, 49427, Note_on_c, 1, 55, 0
3, 49427, Control_c, 1, 123, 0
3, 49589, Note_on_c, 1, 53, 66
3, 49591, Note_on_c, 1, 57, 69
3, 49593, Note_on_c, 1, 60, 71
3, 49593, Note_on_c, 1, 64, 63
3, 49608, Note_on_c, 1, 64, 0
3, 49610, Note_on_c, 1, 57, 0
3, 49610, Note_on_c, 1, 60, 0
3, 49612, Note_on_c, 1, 53, 0
3, 49612, Control_c, 1, 123, 0
3, 49676, Note_on_c, 1, 57, 106
3, 49677, Note_on_c, 1, 53, 100
3, 49677, Note_on_c, 1, 64, 97
3, 49677, Note_on_c, 1, 60, 109
3, 49746, Note_on_c, 1, 60, 0
3, 49747, Note_on_c, 1, 57, 0
3, 49747, Note_on_c, 1, 53, 0
3, 49747, Note_on_c, 1, 64, 0
3, 49747, Control_c, 1, 123, 0
3, 49764, Note_on_c, 1, 57, 63
3, 49764, Note_on_c, 1, 53, 58
3, 49766, Note_on_c, 1, 64, 58
3, 49768, Note_on_c, 1, 60, 49
3, 49777, Note_on_c, 1, 64, 0
3, 49777, Note_on_c, 1, 60, 0
3, 49779, Note_on_c, 1, 57, 0
3, 49780, Note_on_c, 1, 53, 0
3, 49780, Control_c, 1, 123, 0
3, 49859, Note_on_c, 1, 64, 86
3, 49860, Note_on_c, 1, 57, 95
3, 49860, Note_on_c, 1, 53, 88
3, 49860, Note_on_c, 1, 60, 90
3, 49876, Note_on_c, 1, 64, 0
3, 49876, Note_on_c, 1, 57, 0
3, 49876, Note_on_c, 1, 53, 0
3, 49876, Note_on_c, 1, 60, 0
3, 49876, Control_c, 1, 123, 0
3, 49889, Note_on_c, 1, 60, 73
3, 49889, Note_on_c, 1, 57, 77
3, 49889, Note_on_c, 1, 53, 66
3, 49890, Note_on_c, 1, 64, 77
3, 49907, Note_on_c, 1, 60, 0
3, 49907, Note_on_c, 1, 57, 0
3, 49907, Note_on_c, 1, 53, 0
3, 49907, Note_on_c, 1, 64, 0
3, 49907, Control_c, 1, 123, 0
3, 50069, Note_on_c, 1, 57, 84
3, 50070, Note_on_c, 1, 64, 77
3, 50070, Note_on_c, 1, 53, 79
3, 50070, Note_on_c, 1, 60, 77
3, 50081, Note_on_c, 1, 64, 0
3, 50083, Note_on_c, 1, 60, 0
3, 50085, Note_on_c, 1, 53, 0
3, 50086, Note_on_c, 1, 57, 0
3, 50087, Control_c, 1, 123, 0
3, 50160, Note_on_c, 1, 57, 106
3, 50160, Note_on_c, 1, 60, 103
3, 50160, Note_on_c, 1, 64, 100
3, 50160, Note_on_c, 1, 53, 103
3, 50226, Note_on_c, 1, 64, 0
3, 50227, Note_on_c, 1, 57, 0
3, 50228, Note_on_c, 1, 60, 0
3, 50228, Note_on_c, 1, 53, 0
3, 50229, Control_c, 1, 123, 0
3, 50250, Note_on_c, 1, 57, 90
3, 50250, Note_on_c, 1, 53, 88
3, 50250, Note_on_c, 1, 64, 80
3, 50250, Note_on_c, 1, 60, 84
3, 50268, Note_on_c, 1, 57, 0
3, 50268, Note_on_c, 1, 64, 0
3, 50269, Note_on_c, 1, 60, 0
3, 50271, Note_on_c, 1, 53, 0
3, 50271, Control_c, 1, 123, 0
3, 50339, Note_on_c, 1, 57, 88
3, 50340, Note_on_c, 1, 64, 84
3, 50340, Note_on_c, 1, 53, 90
3, 50340, Note_on_c, 1, 60, 90
3, 50356, Note_on_c, 1, 57, 0
3, 50356, Note_on_c, 1, 64, 0
3, 50356, Note_on_c, 1, 60, 0
3, 50358, Note_on_c, 1, 53, 0
3, 50358, Control_c, 1, 123, 0
3, 50369, Note_on_c, 1, 57, 73
3, 50369, Note_on_c, 1, 60, 80
3, 50371, Note_on_c, 1, 53, 62
3, 50372, Note_on_c, 1, 64, 67
3, 50388, Note_on_c, 1, 53, 0
3, 50389, Note_on_c, 1, 57, 0
3, 50389, Note_on_c, 1, 60, 0
3, 50390, Note_on_c, 1, 64, 0
3, 50390, Control_c, 1, 123, 0
3, 50551, Note_on_c, 1, 58, 83
3, 50552, Note_on_c, 1, 55, 88
3, 50552, Note_on_c, 1, 62, 84
3, 50552, Note_on_c, 1, 65, 79
3, 50563, Note_on_c, 1, 65, 0
3, 50566, Note_on_c, 1, 58, 0
3, 50566, Note_on_c, 1, 62, 0
3, 50568, Note_on_c, 1, 55, 0
3, 50568, Control_c, 1, 123, 0
3, 50639, Note_on_c, 1, 58, 106
3, 50639, Note_on_c, 1, 55, 103
3, 50639, Note_on_c, 1, 65, 88
3, 50640, Note_on_c, 1, 62, 100
3, 50642, Note_on_c, 1, 64, 80
3, 50645, Note_on_c, 1, 64, 0
3, 50708, Note_on_c, 1, 58, 0
3, 50708, Note_on_c, 1, 65, 0
3, 50710, Note_on_c, 1, 55, 0
3, 50710, Note_on_c, 1, 62, 0
3, 50710, Control_c, 1, 123, 0
3, 50729, Note_on_c, 1, 58, 60
3, 50730, Note_on_c, 1, 55, 73
3, 50732, Note_on_c, 1, 65, 56
3, 50732, Note_on_c, 1, 62, 58
3, 50740, Note_on_c, 1, 58, 0
3, 50740, Note_on_c, 1, 65, 0
3, 50740, Note_on_c, 1, 62, 0
3, 50745, Note_on_c, 1, 55, 0
3, 50745, Control_c, 1, 123, 0
3, 50819, Note_on_c, 1, 58, 95
3, 50819, Note_on_c, 1, 55, 95
3, 50820, Note_on_c, 1, 62, 88
3, 50820, Note_on_c, 1, 65, 82
3, 50823, Note_on_c, 1, 64, 65
3, 50827, Note_on_c, 1, 64, 0
3, 50832, Note_on_c, 1, 65, 0
3, 50835, Note_on_c, 1, 58, 0
3, 50835, Note_on_c, 1, 62, 0
3, 50837, Note_on_c, 1, 55, 0
3, 50837, Control_c, 1, 123, 0
3, 50847, Note_on_c, 1, 58, 58
3, 50849, Note_on_c, 1, 55, 52
3, 50850, Note_on_c, 1, 62, 60
3, 50850, Note_on_c, 1, 65, 56
3, 50861, Note_on_c, 1, 58, 0
3, 50861, Note_on_c, 1, 62, 0
3, 50861, Note_on_c, 1, 65, 0
3, 50864, Note_on_c, 1, 55, 0
3, 50865, Control_c, 1, 123, 0
3, 51028, Note_on_c, 1, 58, 69
3, 51028, Note_on_c, 1, 55, 76
3, 51028, Note_on_c, 1, 62, 67
3, 51030, Note_on_c, 1, 65, 58
3, 51038, Note_on_c, 1, 65, 0
3, 51043, Note_on_c, 1, 62, 0
3, 51044, Note_on_c, 1, 58, 0
3, 51045, Note_on_c, 1, 55, 0
3, 51045, Control_c, 1, 123, 0
3, 51184, Note_on_c, 1, 50, 103
3, 51235, Note_on_c, 1, 50, 0
3, 51235, Control_c, 1, 123, 0
3, 51359, Note_on_c, 1, 64, 80
3, 51359, Note_on_c, 1, 60, 92
3, 51359, Note_on_c, 1, 57, 82
3, 51360, Control_c, 1, 7, 64
3, 51360, Note_on_c, 1, 53, 82
3, 51377, Note_on_c, 1, 64, 0
3, 51377, Note_on_c, 1, 53, 0
3, 51379, Note_on_c, 1, 60, 0
3, 51379, Note_on_c, 1, 57, 0
3, 51379, Control_c, 1, 123, 0
3, 51443, Control_c, 1, 7, 63
3, 51480, Note_on_c, 1, 59, 53
3, 51481, Note_on_c, 1, 57, 92
3, 51481, Note_on_c, 1, 60, 97
3, 51482, Note_on_c, 1, 64, 84
3, 51482, Note_on_c, 1, 53, 90
3, 51494, Note_on_c, 1, 64, 0
3, 51497, Control_c, 1, 123, 0
3, 51498, Note_on_c, 1, 57, 0
3, 51498, Note_on_c, 1, 53, 0
3, 51500, Note_on_c, 1, 60, 0
3, 51500, Control_c, 1, 123, 0
3, 51501, Note_on_c, 1, 59, 0
3, 51525, Control_c, 1, 7, 62
3, 51540, Note_on_c, 1, 57, 64
3, 51561, Control_c, 1, 123, 0
3, 51564, Note_on_c, 1, 57, 0
3, 51603, Note_on_c, 1, 57, 90
3, 51604, Note_on_c, 1, 64, 86
3, 51604, Note_on_c, 1, 60, 92
3, 51604, Note_on_c, 1, 53, 88
3, 51608, Control_c, 1, 7, 61
3, 51618, Note_on_c, 1, 64, 0
3, 51620, Note_on_c, 1, 57, 0
3, 51620, Note_on_c, 1, 60, 0
3, 51620, Note_on_c, 1, 53, 0
3, 51620, Control_c, 1, 123, 0
3, 51660, Note_on_c, 1, 50, 100
3, 51687, Control_c, 1, 123, 0
3, 51690, Control_c, 1, 7, 60
3, 51691, Note_on_c, 1, 50, 0
3, 51720, Note_on_c, 1, 57, 95
3, 51720, Note_on_c, 1, 53, 92
3, 51721, Note_on_c, 1, 64, 88
3, 51722, Note_on_c, 1, 60, 95
3, 51722, Note_on_c, 1, 53, 90
3, 51738, Note_on_c, 1, 53, 0
3, 51738, Note_on_c, 1, 64, 0
3, 51739, Note_on_c, 1, 60, 0
3, 51740, Note_on_c, 1, 57, 0
3, 51740, Control_c, 1, 123, 0
3, 51742, Control_c, 1, 123, 0
3, 51748, Note_on_c, 1, 53, 0
3, 51773, Control_c, 1, 7, 59
3, 51780, Note_on_c, 1, 57, 97
3, 51819, Control_c, 1, 123, 0
3, 51824, Note_on_c, 1, 57, 0
3, 51840, Note_on_c, 1, 57, 90
3, 51840, Note_on_c, 1, 64, 82
3, 51840, Note_on_c, 1, 60, 90
3, 51840, Note_on_c, 1, 53, 86
3, 51855, Control_c, 1, 7, 58
3, 51856, Note_on_c, 1, 57, 0
3, 51856, Note_on_c, 1, 64, 0
3, 51856, Note_on_c, 1, 60, 0
3, 51856, Note_on_c, 1, 53, 0
3, 51856, Control_c, 1, 123, 0
3, 51938, Control_c, 1, 7, 57
3, 51963, Note_on_c, 1, 57, 92
3, 51963, Note_on_c, 1, 60, 95
3, 51964, Note_on_c, 1, 64, 86
3, 51964, Note_on_c, 1, 53, 86
3, 51978, Note_on_c, 1, 64, 0
3, 51980, Note_on_c, 1, 57, 0
3, 51980, Note_on_c, 1, 60, 0
3, 51980, Note_on_c, 1, 53, 0
3, 51980, Control_c, 1, 123, 0
3, 52020, Control_c, 1, 7, 56
3, 52082, Note_on_c, 1, 57, 92
3, 52082, Note_on_c, 1, 64, 88
3, 52082, Note_on_c, 1, 60, 97
3, 52083, Note_on_c, 1, 53, 86
3, 52097, Note_on_c, 1, 64, 0
3, 52098, Note_on_c, 1, 60, 0
3, 52099, Note_on_c, 1, 57, 0
3, 52099, Note_on_c, 1, 53, 0
3, 52099, Control_c, 1, 123, 0
3, 52103, Control_c, 1, 7, 55
3, 52140, Note_on_c, 1, 50, 106
3, 52164, Control_c, 1, 123, 0
3, 52166, Note_on_c, 1, 50, 0
3, 52185, Control_c, 1, 7, 54
3, 52200, Note_on_c, 1, 53, 97
3, 52203, Note_on_c, 1, 57, 92
3, 52203, Note_on_c, 1, 64, 88
3, 52204, Note_on_c, 1, 53, 86
3, 52204, Note_on_c, 1, 60, 95
3, 52219, Note_on_c, 1, 53, 0
3, 52219, Note_on_c, 1, 57, 0
3, 52220, Note_on_c, 1, 64, 0
3, 52220, Note_on_c, 1, 60, 0
3, 52220, Control_c, 1, 123, 0
3, 52225, Note_on_c, 1, 53, 0
3, 52226, Control_c, 1, 123, 0
3, 52260, Note_on_c, 1, 55, 109
3, 52268, Control_c, 1, 7, 53
3, 52299, Control_c, 1, 123, 0
3, 52302, Note_on_c, 1, 55, 0
3, 52323, Note_on_c, 1, 58, 86
3, 52323, Note_on_c, 1, 62, 95
3, 52325, Note_on_c, 1, 55, 95
3, 52325, Note_on_c, 1, 65, 90
3, 52339, Note_on_c, 1, 58, 0
3, 52341, Note_on_c, 1, 55, 0
3, 52343, Note_on_c, 1, 62, 0
3, 52343, Note_on_c, 1, 65, 0
3, 52343, Control_c, 1, 123, 0
3, 52350, Control_c, 1, 7, 52
3, 52433, Control_c, 1, 7, 51
3, 52445, Note_on_c, 1, 58, 83
3, 52445, Note_on_c, 1, 62, 88
3, 52445, Note_on_c, 1, 65, 84
3, 52446, Note_on_c, 1, 55, 90
3, 52460, Note_on_c, 1, 58, 0
3, 52460, Note_on_c, 1, 65, 0
3, 52460, Note_on_c, 1, 55, 0
3, 52462, Note_on_c, 1, 62, 0
3, 52462, Control_c, 1, 123, 0
3, 52515, Control_c, 1, 7, 50
3, 52560, Note_on_c, 1, 58, 86
3, 52561, Note_on_c, 1, 62, 86
3, 52561, Note_on_c, 1, 55, 90
3, 52562, Note_on_c, 1, 65, 86
3, 52575, Note_on_c, 1, 58, 0
3, 52575, Note_on_c, 1, 65, 0
3, 52576, Note_on_c, 1, 55, 0
3, 52577, Note_on_c, 1, 62, 0
3, 52577, Control_c, 1, 123, 0
3, 52598, Control_c, 1, 7, 49
3, 52620, Note_on_c, 1, 50, 106
3, 52640, Control_c, 1, 123, 0
3, 52645, Note_on_c, 1, 50, 0
3, 52680, Control_c, 1, 7, 48
3, 52680, Note_on_c, 1, 58, 83
3, 52680, Note_on_c, 1, 62, 86
3, 52680, Note_on_c, 1, 65, 88
3, 52680, Note_on_c, 1, 55, 90
3, 52680, Note_on_c, 1, 53, 100
3, 52693, Note_on_c, 1, 65, 0
3, 52695, Note_on_c, 1, 58, 0
3, 52695, Note_on_c, 1, 62, 0
3, 52697, Note_on_c, 1, 55, 0
3, 52697, Control_c, 1, 123, 0
3, 52704, Control_c, 1, 123, 0
3, 52707, Note_on_c, 1, 53, 0
3, 52740, Note_on_c, 1, 55, 90
3, 52759, Control_c, 1, 123, 0
3, 52763, Control_c, 1, 7, 47
3, 52765, Note_on_c, 1, 55, 0
3, 52800, Note_on_c, 1, 58, 80
3, 52800, Note_on_c, 1, 57, 97
3, 52801, Note_on_c, 1, 62, 82
3, 52802, Note_on_c, 1, 65, 88
3, 52802, Note_on_c, 1, 55, 84
3, 52818, Note_on_c, 1, 58, 0
3, 52818, Note_on_c, 1, 55, 0
3, 52820, Note_on_c, 1, 62, 0
3, 52820, Note_on_c, 1, 65, 0
3, 52820, Control_c, 1, 123, 0
3, 52845, Control_c, 1, 7, 46
3, 52909, Control_c, 1, 123, 0
3, 52910, Note_on_c, 1, 57, 0
3, 52920, Note_on_c, 1, 58, 83
3, 52920, Note_on_c, 1, 62, 86
3, 52920, Note_on_c, 1, 65, 88
3, 52920, Note_on_c, 1, 55, 97
3, 52921, Note_on_c, 1, 55, 86
3, 52928, Control_c, 1, 7, 45
3, 52934, Note_on_c, 1, 65, 0
3, 52936, Note_on_c, 1, 58, 0
3, 52936, Note_on_c, 1, 62, 0
3, 52936, Note_on_c, 1, 55, 0
3, 52936, Control_c, 1, 123, 0
3, 52980, Note_on_c, 1, 53, 95
3, 52985, Note_on_c, 1, 55, 0
3, 53010, Control_c, 1, 7, 44
3, 53018, Control_c, 1, 123, 0
3, 53026, Note_on_c, 1, 53, 0
3, 53040, Note_on_c, 1, 58, 95
3, 53040, Note_on_c, 1, 55, 97
3, 53042, Note_on_c, 1, 62, 88
3, 53042, Note_on_c, 1, 55, 88
3, 53043, Note_on_c, 1, 65, 88
3, 53054, Note_on_c, 1, 65, 0
3, 53055, Note_on_c, 1, 58, 0
3, 53055, Note_on_c, 1, 55, 0
3, 53057, Note_on_c, 1, 62, 0
3, 53057, Control_c, 1, 123, 0
3, 53078, Control_c, 1, 123, 0
3, 53090, Note_on_c, 1, 55, 0
3, 53093, Control_c, 1, 7, 43
3, 53100, Note_on_c, 1, 50, 100
3, 53124, Control_c, 1, 123, 0
3, 53131, Note_on_c, 1, 50, 0
3, 53160, Note_on_c, 1, 58, 90
3, 53160, Note_on_c, 1, 53, 103
3, 53161, Note_on_c, 1, 62, 88
3, 53162, Note_on_c, 1, 55, 88
3, 53162, Note_on_c, 1, 65, 90
3, 53175, Control_c, 1, 7, 42
3, 53176, Note_on_c, 1, 58, 0
3, 53176, Note_on_c, 1, 55, 0
3, 53176, Note_on_c, 1, 65, 0
3, 53178, Note_on_c, 1, 62, 0
3, 53178, Control_c, 1, 123, 0
3, 53185, Control_c, 1, 123, 0
3, 53194, Note_on_c, 1, 53, 0
3, 53220, Note_on_c, 1, 57, 95
3, 53258, Control_c, 1, 7, 41
3, 53259, Control_c, 1, 123, 0
3, 53267, Note_on_c, 1, 57, 0
3, 53281, Note_on_c, 1, 64, 86
3, 53281, Note_on_c, 1, 60, 90
3, 53282, Note_on_c, 1, 57, 90
3, 53282, Note_on_c, 1, 53, 86
3, 53297, Note_on_c, 1, 57, 0
3, 53297, Note_on_c, 1, 53, 0
3, 53298, Note_on_c, 1, 64, 0
3, 53298, Note_on_c, 1, 60, 0
3, 53298, Control_c, 1, 123, 0
3, 53340, Control_c, 1, 7, 40
3, 53403, Note_on_c, 1, 60, 97
3, 53403, Note_on_c, 1, 57, 95
3, 53404, Note_on_c, 1, 64, 90
3, 53404, Note_on_c, 1, 53, 90
3, 53418, Note_on_c, 1, 64, 0
3, 53419, Note_on_c, 1, 53, 0
3, 53420, Note_on_c, 1, 60, 0
3, 53420, Note_on_c, 1, 57, 0
3, 53420, Control_c, 1, 123, 0
3, 53423, Control_c, 1, 7, 39
3, 53505, Control_c, 1, 7, 38
3, 53520, Note_on_c, 1, 57, 95
3, 53520, Note_on_c, 1, 60, 95
3, 53521, Note_on_c, 1, 64, 90
3, 53521, Note_on_c, 1, 53, 86
3, 53534, Note_on_c, 1, 64, 0
3, 53535, Note_on_c, 1, 60, 0
3, 53535, Note_on_c, 1, 53, 0
3, 53536, Note_on_c, 1, 57, 0
3, 53536, Control_c, 1, 123, 0
3, 53580, Note_on_c, 1, 50, 103
3, 53588, Control_c, 1, 7, 37
3, 53601, Control_c, 1, 123, 0
3, 53606, Note_on_c, 1, 50, 0
3, 53636, Note_on_c, 1, 57, 88
3, 53637, Note_on_c, 1, 64, 86
3, 53637, Note_on_c, 1, 60, 95
3, 53638, Note_on_c, 1, 53, 80
3, 53640, Note_on_c, 1, 53, 95
3, 53653, Note_on_c, 1, 57, 0
3, 53653, Note_on_c, 1, 64, 0
3, 53653, Note_on_c, 1, 53, 0
3, 53655, Note_on_c, 1, 60, 0
3, 53655, Control_c, 1, 123, 0
3, 53668, Control_c, 1, 123, 0
3, 53669, Note_on_c, 1, 53, 0
3, 53670, Control_c, 1, 7, 36
3, 53700, Note_on_c, 1, 57, 92
3, 53730, Control_c, 1, 123, 0
3, 53733, Note_on_c, 1, 57, 0
3, 53753, Control_c, 1, 7, 35
3, 53761, Note_on_c, 1, 57, 90
3, 53761, Note_on_c, 1, 60, 92
3, 53762, Note_on_c, 1, 64, 86
3, 53762, Note_on_c, 1, 53, 84
3, 53776, Note_on_c, 1, 64, 0
3, 53777, Note_on_c, 1, 53, 0
3, 53778, Note_on_c, 1, 57, 0
3, 53778, Note_on_c, 1, 60, 0
3, 53778, Control_c, 1, 123, 0
3, 53835, Control_c, 1, 7, 34
3, 53881, Note_on_c, 1, 57, 92
3, 53882, Note_on_c, 1, 64, 86
3, 53882, Note_on_c, 1, 60, 90
3, 53882, Note_on_c, 1, 53, 86
3, 53896, Note_on_c, 1, 64, 0
3, 53898, Note_on_c, 1, 57, 0
3, 53898, Note_on_c, 1, 60, 0
3, 53898, Note_on_c, 1, 53, 0
3, 53898, Control_c, 1, 123, 0
3, 53918, Control_c, 1, 7, 33
3, 54000, Control_c, 1, 7, 32
3, 54002, Note_on_c, 1, 57, 84
3, 54002, Note_on_c, 1, 64, 82
3, 54002, Note_on_c, 1, 60, 86
3, 54003, Note_on_c, 1, 53, 82
3, 54015, Note_on_c, 1, 64, 0
3, 54017, Note_on_c, 1, 57, 0
3, 54017, Note_on_c, 1, 60, 0
3, 54017, Note_on_c, 1, 53, 0
3, 54017, Control_c, 1, 123, 0
3, 54060, Note_on_c, 1, 50, 106
3, 54079, Control_c, 1, 123, 0
3, 54083, Control_c, 1, 7, 31
3, 54084, Note_on_c, 1, 50, 0
3, 54119, Note_on_c, 1, 57, 90
3, 54120, Note_on_c, 1, 60, 88
3, 54120, Note_on_c, 1, 64, 84
3, 54120, Note_on_c, 1, 53, 82
3, 54120, Note_on_c, 1, 53, 90
3, 54136, Note_on_c, 1, 57, 0
3, 54136, Note_on_c, 1, 60, 0
3, 54136, Note_on_c, 1, 64, 0
3, 54136, Note_on_c, 1, 53, 0
3, 54136, Control_c, 1, 123, 0
3, 54144, Control_c, 1, 123, 0
3, 54148, Note_on_c, 1, 53, 0
3, 54165, Control_c, 1, 7, 30
3, 54180, Note_on_c, 1, 55, 106
3, 54218, Control_c, 1, 123, 0
3, 54223, Note_on_c, 1, 55, 0
3, 54239, Note_on_c, 1, 58, 86
3, 54240, Note_on_c, 1, 62, 84
3, 54242, Note_on_c, 1, 65, 86
3, 54242, Note_on_c, 1, 55, 88
3, 54248, Control_c, 1, 7, 29
3, 54253, Note_on_c, 1, 65, 0
3, 54255, Note_on_c, 1, 55, 0
3, 54256, Note_on_c, 1, 58, 0
3, 54256, Note_on_c, 1, 62, 0
3, 54256, Control_c, 1, 123, 0
3, 54330, Control_c, 1, 7, 28
3, 54361, Note_on_c, 1, 58, 86
3, 54362, Note_on_c, 1, 62, 86
3, 54362, Note_on_c, 1, 65, 88
3, 54362, Note_on_c, 1, 55, 90
3, 54375, Note_on_c, 1, 58, 0
3, 54375, Note_on_c, 1, 65, 0
3, 54376, Note_on_c, 1, 55, 0
3, 54377, Note_on_c, 1, 62, 0
3, 54377, Control_c, 1, 123, 0
3, 54413, Control_c, 1, 7, 27
3, 54478, Note_on_c, 1, 58, 83
3, 54479, Note_on_c, 1, 62, 86
3, 54479, Note_on_c, 1, 55, 90
3, 54480, Note_on_c, 1, 65, 86
3, 54492, Note_on_c, 1, 58, 0
3, 54492, Note_on_c, 1, 65, 0
3, 54494, Note_on_c, 1, 62, 0
3, 54494, Note_on_c, 1, 55, 0
3, 54494, Control_c, 1, 123, 0
3, 54495, Control_c, 1, 7, 26
3, 54540, Note_on_c, 1, 50, 106
3, 54560, Control_c, 1, 123, 0
3, 54562, Note_on_c, 1, 50, 0
3, 54578, Control_c, 1, 7, 25
3, 54600, Note_on_c, 1, 58, 80
3, 54600, Note_on_c, 1, 62, 86
3, 54600, Note_on_c, 1, 53, 84
3, 54601, Note_on_c, 1, 65, 86
3, 54602, Note_on_c, 1, 55, 84
3, 54613, Note_on_c, 1, 65, 0
3, 54614, Note_on_c, 1, 58, 0
3, 54615, Note_on_c, 1, 62, 0
3, 54615, Note_on_c, 1, 55, 0
3, 54615, Control_c, 1, 123, 0
3, 54619, Control_c, 1, 123, 0
3, 54624, Note_on_c, 1, 53, 0
3, 54660, Control_c, 1, 7, 24
3, 54660, Note_on_c, 1, 55, 86
3, 54677, Control_c, 1, 123, 0
3, 54685, Note_on_c, 1, 55, 0
3, 54720, Note_on_c, 1, 58, 86
3, 54720, Note_on_c, 1, 57, 97
3, 54723, Note_on_c, 1, 62, 84
3, 54723, Note_on_c, 1, 65, 84
3, 54723, Note_on_c, 1, 55, 86
3, 54734, Note_on_c, 1, 58, 0
3, 54734, Note_on_c, 1, 65, 0
3, 54736, Note_on_c, 1, 62, 0
3, 54736, Note_on_c, 1, 55, 0
3, 54736, Control_c, 1, 123, 0
3, 54743, Control_c, 1, 7, 23
3, 54825, Control_c, 1, 7, 22
3, 54828, Control_c, 1, 123, 0
3, 54832, Note_on_c, 1, 57, 0
3, 54840, Note_on_c, 1, 55, 103
3, 54843, Note_on_c, 1, 58, 80
3, 54843, Note_on_c, 1, 62, 82
3, 54844, Note_on_c, 1, 65, 79
3, 54844, Note_on_c, 1, 55, 86
3, 54853, Note_on_c, 1, 65, 0
3, 54855, Note_on_c, 1, 58, 0
3, 54855, Note_on_c, 1, 62, 0
3, 54857, Note_on_c, 1, 55, 0
3, 54857, Control_c, 1, 123, 0
3, 54887, Control_c, 1, 123, 0
3, 54899, Note_on_c, 1, 55, 0
3, 54900, Note_on_c, 1, 53, 103
3, 54908, Control_c, 1, 7, 21
3, 54919, Control_c, 1, 123, 0
3, 54929, Note_on_c, 1, 53, 0
3, 54959, Note_on_c, 1, 58, 80
3, 54960, Note_on_c, 1, 55, 106
3, 54961, Note_on_c, 1, 62, 76
3, 54962, Note_on_c, 1, 55, 80
3, 54962, Note_on_c, 1, 65, 69
3, 54972, Note_on_c, 1, 65, 0
3, 54973, Note_on_c, 1, 58, 0
3, 54973, Note_on_c, 1, 55, 0
3, 54973, Note_on_c, 1, 62, 0
3, 54974, Control_c, 1, 123, 0
3, 54990, Control_c, 1, 7, 20
3, 54994, Control_c, 1, 123, 0
3, 55004, Note_on_c, 1, 55, 0
3, 55020, Note_on_c, 1, 53, 122
3, 55073, Control_c, 1, 7, 19
3, 55077, Note_on_c, 1, 58, 80
3, 55078, Note_on_c, 1, 62, 84
3, 55078, Note_on_c, 1, 65, 88
3, 55078, Note_on_c, 1, 55, 80
3, 55092, Note_on_c, 1, 58, 0
3, 55092, Note_on_c, 1, 62, 0
3, 55092, Note_on_c, 1, 65, 0
3, 55093, Note_on_c, 1, 55, 0
3, 55093, Control_c, 1, 123, 0
3, 55155, Control_c, 1, 7, 18
3, 55199, Note_on_c, 1, 58, 86
3, 55199, Note_on_c, 1, 62, 86
3, 55200, Note_on_c, 1, 55, 86
3, 55200, Note_on_c, 1, 65, 86
3, 55211, Note_on_c, 1, 65, 0
3, 55213, Note_on_c, 1, 58, 0
3, 55213, Note_on_c, 1, 62, 0
3, 55213, Note_on_c, 1, 55, 0
3, 55213, Control_c, 1, 123, 0
3, 55238, Control_c, 1, 7, 17
3, 55319, Note_on_c, 1, 58, 80
3, 55319, Note_on_c, 1, 62, 82
3, 55320, Control_c, 1, 7, 16
3, 55320, Note_on_c, 1, 65, 80
3, 55320, Note_on_c, 1, 55, 82
3, 55331, Note_on_c, 1, 65, 0
3, 55333, Note_on_c, 1, 58, 0
3, 55333, Note_on_c, 1, 62, 0
3, 55333, Note_on_c, 1, 55, 0
3, 55333, Control_c, 1, 123, 0
3, 55403, Control_c, 1, 7, 15
3, 55439, Note_on_c, 1, 58, 77
3, 55441, Note_on_c, 1, 55, 82
3, 55442, Note_on_c, 1, 62, 79
3, 55442, Note_on_c, 1, 65, 77
3, 55451, Note_on_c, 1, 65, 0
3, 55455, Note_on_c, 1, 58, 0
3, 55455, Note_on_c, 1, 55, 0
3, 55455, Note_on_c, 1, 62, 0
3, 55455, Control_c, 1, 123, 0
3, 55485, Control_c, 1, 7, 14
3, 55560, Note_on_c, 1, 58, 90
3, 55560, Note_on_c, 1, 55, 88
3, 55560, Note_on_c, 1, 62, 86
3, 55562, Note_on_c, 1, 65, 77
3, 55564, Note_on_c, 1, 64, 69
3, 55568, Note_on_c, 1, 64, 0
3, 55568, Control_c, 1, 7, 13
3, 55575, Note_on_c, 1, 65, 0
3, 55577, Note_on_c, 1, 58, 0
3, 55577, Note_on_c, 1, 55, 0
3, 55577, Note_on_c, 1, 62, 0
3, 55577, Control_c, 1, 123, 0
3, 55650, Control_c, 1, 7, 12
3, 55710, Control_c, 1, 123, 0
3, 55715, Note_on_c, 1, 53, 0
3, 55733, Control_c, 1, 7, 11
3, 55815, Control_c, 1, 7, 10
3, 55898, Control_c, 1, 7, 9
3, 55980, Control_c, 1, 7, 8
3, 56063, Control_c, 1, 7, 7
3, 56145, Control_c, 1, 7, 6
3, 56228, Control_c, 1, 7, 5
3, 56310, Control_c, 1, 7, 4
3, 56393, Control_c, 1, 7, 3
3, 56475, Control_c, 1, 7, 2
3, 56558, Control_c, 1, 7, 1
3, 56640, Control_c, 1, 7, 0
3, 56640, End_track
4, 0, Start_track
4, 0, MIDI_port, 0
4, 0, Title_t, "............................"
4, 0, Control_c, 2, 91, 64
4, 0, Control_c, 2, 65, 50
4, 0, Control_c, 2, 5, 120
4, 0, Program_c, 2, 65
4, 0, Control_c, 2, 7, 120
4, 9, Control_c, 2, 11, 127
4, 9, Note_on_c, 2, 64, 103
4, 34, Note_on_c, 2, 65, 88
4, 36, Note_on_c, 2, 64, 0
4, 57, Note_on_c, 2, 65, 0
4, 58, Control_c, 2, 123, 0
4, 65, Note_on_c, 2, 64, 77
4, 93, Note_on_c, 2, 64, 0
4, 93, Control_c, 2, 123, 0
4, 97, Note_on_c, 2, 62, 95
4, 118, Note_on_c, 2, 62, 0
4, 118, Control_c, 2, 123, 0
4, 124, Note_on_c, 2, 64, 97
4, 868, Note_on_c, 2, 62, 63
4, 874, Note_on_c, 2, 64, 0
4, 905, Note_on_c, 2, 64, 100
4, 910, Note_on_c, 2, 62, 0
4, 962, Note_on_c, 2, 65, 97
4, 965, Note_on_c, 2, 64, 0
4, 1136, Note_on_c, 2, 62, 88
4, 1141, Note_on_c, 2, 65, 0
4, 1170, Note_on_c, 2, 62, 0
4, 1170, Control_c, 2, 123, 0
4, 1192, Note_on_c, 2, 62, 79
4, 1921, Note_on_c, 2, 64, 103
4, 1931, Note_on_c, 2, 62, 0
4, 1949, Note_on_c, 2, 64, 0
4, 1949, Control_c, 2, 123, 0
4, 1950, Note_on_c, 2, 65, 79
4, 1977, Note_on_c, 2, 64, 69
4, 1991, Note_on_c, 2, 65, 0
4, 2012, Note_on_c, 2, 64, 0
4, 2012, Control_c, 2, 123, 0
4, 2012, Note_on_c, 2, 62, 92
4, 2043, Note_on_c, 2, 64, 106
4, 2051, Note_on_c, 2, 62, 0
4, 2695, Note_on_c, 2, 62, 72
4, 2701, Note_on_c, 2, 64, 0
4, 2787, Note_on_c, 2, 64, 80
4, 2794, Note_on_c, 2, 62, 0
4, 2877, Note_on_c, 2, 65, 92
4, 2882, Note_on_c, 2, 64, 0
4, 3056, Note_on_c, 2, 62, 88
4, 3062, Note_on_c, 2, 65, 0
4, 3089, Note_on_c, 2, 62, 0
4, 3089, Control_c, 2, 123, 0
4, 3115, Note_on_c, 2, 62, 80
4, 3784, Note_on_c, 2, 62, 0
4, 3784, Control_c, 2, 123, 0
4, 3840, Note_on_c, 2, 69, 95
4, 3867, Note_on_c, 2, 70, 83
4, 3868, Note_on_c, 2, 69, 0
4, 3895, Note_on_c, 2, 69, 86
4, 3901, Note_on_c, 2, 70, 0
4, 3925, Note_on_c, 2, 69, 0
4, 3925, Control_c, 2, 123, 0
4, 3926, Note_on_c, 2, 67, 95
4, 3959, Note_on_c, 2, 69, 92
4, 3966, Note_on_c, 2, 67, 0
4, 4625, Note_on_c, 2, 67, 100
4, 4633, Note_on_c, 2, 69, 0
4, 4711, Note_on_c, 2, 69, 90
4, 4719, Note_on_c, 2, 67, 0
4, 4797, Note_on_c, 2, 70, 118
4, 4802, Note_on_c, 2, 69, 0
4, 4978, Note_on_c, 2, 67, 103
4, 4981, Note_on_c, 2, 70, 0
4, 5017, Note_on_c, 2, 67, 0
4, 5017, Control_c, 2, 123, 0
4, 5038, Note_on_c, 2, 67, 84
4, 5752, Note_on_c, 2, 67, 0
4, 5752, Control_c, 2, 123, 0
4, 5764, Note_on_c, 2, 69, 74
4, 5850, Note_on_c, 2, 70, 112
4, 5855, Note_on_c, 2, 69, 0
4, 5937, Note_on_c, 2, 69, 95
4, 5944, Note_on_c, 2, 70, 0
4, 6025, Note_on_c, 2, 67, 103
4, 6029, Note_on_c, 2, 69, 0
4, 6114, Note_on_c, 2, 69, 100
4, 6120, Note_on_c, 2, 67, 0
4, 6631, Note_on_c, 2, 67, 86
4, 6638, Note_on_c, 2, 69, 0
4, 6664, Note_on_c, 2, 69, 88
4, 6674, Note_on_c, 2, 67, 0
4, 6723, Note_on_c, 2, 70, 112
4, 6726, Note_on_c, 2, 69, 0
4, 6897, Note_on_c, 2, 67, 100
4, 6900, Note_on_c, 2, 70, 0
4, 6917, Note_on_c, 2, 67, 0
4, 6917, Control_c, 2, 123, 0
4, 6955, Note_on_c, 2, 67, 97
4, 7486, Note_on_c, 2, 67, 0
4, 7486, Control_c, 2, 123, 0
4, 7490, Note_on_c, 2, 67, 61
4, 7494, Note_on_c, 2, 67, 0
4, 7494, Control_c, 2, 123, 0
4, 7500, Note_on_c, 2, 62, 97
4, 7522, Note_on_c, 2, 62, 0
4, 7522, Control_c, 2, 123, 0
4, 7559, Note_on_c, 2, 65, 95
4, 7580, Note_on_c, 2, 65, 0
4, 7581, Control_c, 2, 123, 0
4, 7619, Note_on_c, 2, 69, 103
4, 7645, Note_on_c, 2, 69, 0
4, 7645, Control_c, 2, 123, 0
4, 7980, Note_on_c, 2, 62, 92
4, 7999, Control_c, 2, 123, 0
4, 8004, Note_on_c, 2, 62, 0
4, 8040, Note_on_c, 2, 65, 95
4, 8053, Control_c, 2, 123, 0
4, 8060, Note_on_c, 2, 65, 0
4, 8100, Note_on_c, 2, 69, 103
4, 8113, Control_c, 2, 123, 0
4, 8121, Note_on_c, 2, 69, 0
4, 8460, Note_on_c, 2, 62, 86
4, 8485, Control_c, 2, 123, 0
4, 8488, Note_on_c, 2, 62, 0
4, 8520, Note_on_c, 2, 65, 88
4, 8538, Control_c, 2, 123, 0
4, 8541, Note_on_c, 2, 65, 0
4, 8580, Note_on_c, 2, 67, 106
4, 8599, Control_c, 2, 123, 0
4, 8603, Note_on_c, 2, 67, 0
4, 8940, Note_on_c, 2, 62, 80
4, 8963, Control_c, 2, 123, 0
4, 8967, Note_on_c, 2, 62, 0
4, 9000, Note_on_c, 2, 65, 92
4, 9019, Control_c, 2, 123, 0
4, 9024, Note_on_c, 2, 65, 0
4, 9060, Note_on_c, 2, 67, 97
4, 9077, Control_c, 2, 123, 0
4, 9084, Note_on_c, 2, 67, 0
4, 9120, Note_on_c, 2, 69, 95
4, 9240, Note_on_c, 2, 67, 95
4, 9242, Note_on_c, 2, 69, 0
4, 9281, Control_c, 2, 123, 0
4, 9287, Note_on_c, 2, 67, 0
4, 9300, Note_on_c, 2, 65, 86
4, 9316, Control_c, 2, 123, 0
4, 9322, Note_on_c, 2, 65, 0
4, 9360, Note_on_c, 2, 67, 109
4, 9400, Control_c, 2, 123, 0
4, 9405, Note_on_c, 2, 67, 0
4, 9420, Note_on_c, 2, 62, 82
4, 9434, Control_c, 2, 123, 0
4, 9443, Note_on_c, 2, 62, 0
4, 9480, Note_on_c, 2, 65, 92
4, 9492, Control_c, 2, 123, 0
4, 9500, Note_on_c, 2, 65, 0
4, 9540, Note_on_c, 2, 69, 97
4, 9557, Control_c, 2, 123, 0
4, 9564, Note_on_c, 2, 69, 0
4, 9900, Note_on_c, 2, 62, 97
4, 9922, Control_c, 2, 123, 0
4, 9925, Note_on_c, 2, 62, 0
4, 9960, Note_on_c, 2, 65, 90
4, 9977, Control_c, 2, 123, 0
4, 9981, Note_on_c, 2, 65, 0
4, 10020, Note_on_c, 2, 69, 100
4, 10041, Control_c, 2, 123, 0
4, 10046, Note_on_c, 2, 69, 0
4, 10380, Note_on_c, 2, 62, 90
4, 10403, Control_c, 2, 123, 0
4, 10405, Note_on_c, 2, 62, 0
4, 10440, Note_on_c, 2, 65, 88
4, 10459, Control_c, 2, 123, 0
4, 10463, Note_on_c, 2, 65, 0
4, 10500, Note_on_c, 2, 67, 106
4, 10520, Control_c, 2, 123, 0
4, 10525, Note_on_c, 2, 67, 0
4, 10860, Note_on_c, 2, 62, 79
4, 10884, Control_c, 2, 123, 0
4, 10888, Note_on_c, 2, 62, 0
4, 10920, Note_on_c, 2, 65, 92
4, 10936, Control_c, 2, 123, 0
4, 10941, Note_on_c, 2, 65, 0
4, 10980, Note_on_c, 2, 67, 88
4, 10994, Control_c, 2, 123, 0
4, 11001, Note_on_c, 2, 67, 0
4, 11040, Note_on_c, 2, 69, 97
4, 11152, Control_c, 2, 123, 0
4, 11158, Note_on_c, 2, 69, 0
4, 11160, Note_on_c, 2, 67, 92
4, 11201, Control_c, 2, 123, 0
4, 11209, Note_on_c, 2, 67, 0
4, 11220, Note_on_c, 2, 65, 80
4, 11240, Control_c, 2, 123, 0
4, 11247, Note_on_c, 2, 65, 0
4, 11280, Note_on_c, 2, 67, 95
4, 11308, Control_c, 2, 123, 0
4, 11316, Note_on_c, 2, 67, 0
4, 11340, Note_on_c, 2, 65, 84
4, 11995, Control_c, 2, 123, 0
4, 11999, Note_on_c, 2, 65, 0
4, 51360, Control_c, 2, 7, 120
4, 51404, Control_c, 2, 7, 119
4, 51448, Control_c, 2, 7, 118
4, 51492, Control_c, 2, 7, 117
4, 51536, Control_c, 2, 7, 116
4, 51580, Control_c, 2, 7, 115
4, 51624, Control_c, 2, 7, 114
4, 51668, Control_c, 2, 7, 113
4, 51712, Control_c, 2, 7, 112
4, 51756, Control_c, 2, 7, 111
4, 51800, Control_c, 2, 7, 110
4, 51844, Control_c, 2, 7, 109
4, 51888, Control_c, 2, 7, 108
4, 51932, Control_c, 2, 7, 107
4, 51976, Control_c, 2, 7, 106
4, 52020, Control_c, 2, 7, 105
4, 52064, Control_c, 2, 7, 104
4, 52108, Control_c, 2, 7, 103
4, 52152, Control_c, 2, 7, 102
4, 52196, Control_c, 2, 7, 101
4, 52240, Control_c, 2, 7, 100
4, 52284, Control_c, 2, 7, 99
4, 52328, Control_c, 2, 7, 98
4, 52372, Control_c, 2, 7, 97
4, 52416, Control_c, 2, 7, 96
4, 52460, Control_c, 2, 7, 95
4, 52504, Control_c, 2, 7, 94
4, 52548, Control_c, 2, 7, 93
4, 52592, Control_c, 2, 7, 92
4, 52636, Control_c, 2, 7, 91
4, 52680, Control_c, 2, 7, 90
4, 52724, Control_c, 2, 7, 89
4, 52768, Control_c, 2, 7, 88
4, 52812, Control_c, 2, 7, 87
4, 52856, Control_c, 2, 7, 86
4, 52900, Control_c, 2, 7, 85
4, 52944, Control_c, 2, 7, 84
4, 52988, Control_c, 2, 7, 83
4, 53032, Control_c, 2, 7, 82
4, 53076, Control_c, 2, 7, 81
4, 53120, Control_c, 2, 7, 80
4, 53164, Control_c, 2, 7, 79
4, 53208, Control_c, 2, 7, 78
4, 53252, Control_c, 2, 7, 77
4, 53296, Control_c, 2, 7, 76
4, 53340, Control_c, 2, 7, 75
4, 53384, Control_c, 2, 7, 74
4, 53428, Control_c, 2, 7, 73
4, 53472, Control_c, 2, 7, 72
4, 53516, Control_c, 2, 7, 71
4, 53560, Control_c, 2, 7, 70
4, 53604, Control_c, 2, 7, 69
4, 53648, Control_c, 2, 7, 68
4, 53692, Control_c, 2, 7, 67
4, 53736, Control_c, 2, 7, 66
4, 53780, Control_c, 2, 7, 65
4, 53824, Control_c, 2, 7, 64
4, 53868, Control_c, 2, 7, 63
4, 53912, Control_c, 2, 7, 62
4, 53956, Control_c, 2, 7, 61
4, 54000, Control_c, 2, 7, 60
4, 54044, Control_c, 2, 7, 59
4, 54088, Control_c, 2, 7, 58
4, 54132, Control_c, 2, 7, 57
4, 54176, Control_c, 2, 7, 56
4, 54220, Control_c, 2, 7, 55
4, 54264, Control_c, 2, 7, 54
4, 54308, Control_c, 2, 7, 53
4, 54352, Control_c, 2, 7, 52
4, 54396, Control_c, 2, 7, 51
4, 54440, Control_c, 2, 7, 50
4, 54484, Control_c, 2, 7, 49
4, 54528, Control_c, 2, 7, 48
4, 54572, Control_c, 2, 7, 47
4, 54616, Control_c, 2, 7, 46
4, 54660, Control_c, 2, 7, 45
4, 54704, Control_c, 2, 7, 44
4, 54748, Control_c, 2, 7, 43
4, 54792, Control_c, 2, 7, 42
4, 54836, Control_c, 2, 7, 41
4, 54880, Control_c, 2, 7, 40
4, 54924, Control_c, 2, 7, 39
4, 54968, Control_c, 2, 7, 38
4, 55012, Control_c, 2, 7, 37
4, 55056, Control_c, 2, 7, 36
4, 55100, Control_c, 2, 7, 35
4, 55144, Control_c, 2, 7, 34
4, 55188, Control_c, 2, 7, 33
4, 55232, Control_c, 2, 7, 32
4, 55276, Control_c, 2, 7, 31
4, 55320, Control_c, 2, 7, 30
4, 55364, Control_c, 2, 7, 29
4, 55408, Control_c, 2, 7, 28
4, 55452, Control_c, 2, 7, 27
4, 55496, Control_c, 2, 7, 26
4, 55540, Control_c, 2, 7, 25
4, 55584, Control_c, 2, 7, 24
4, 55628, Control_c, 2, 7, 23
4, 55672, Control_c, 2, 7, 22
4, 55716, Control_c, 2, 7, 21
4, 55760, Control_c, 2, 7, 20
4, 55804, Control_c, 2, 7, 19
4, 55848, Control_c, 2, 7, 18
4, 55892, Control_c, 2, 7, 17
4, 55936, Control_c, 2, 7, 16
4, 55980, Control_c, 2, 7, 15
4, 56024, Control_c, 2, 7, 14
4, 56068, Control_c, 2, 7, 13
4, 56112, Control_c, 2, 7, 12
4, 56156, Control_c, 2, 7, 11
4, 56200, Control_c, 2, 7, 10
4, 56244, Control_c, 2, 7, 9
4, 56288, Control_c, 2, 7, 8
4, 56332, Control_c, 2, 7, 7
4, 56376, Control_c, 2, 7, 6
4, 56420, Control_c, 2, 7, 5
4, 56464, Control_c, 2, 7, 4
4, 56508, Control_c, 2, 7, 3
4, 56552, Control_c, 2, 7, 2
4, 56596, Control_c, 2, 7, 1
4, 56640, Control_c, 2, 7, 0
4, 56640, End_track
5, 0, Start_track
5, 0, MIDI_port, 0
5, 0, Title_t, "Arranged By:"
5, 0, Program_c, 3, 90
5, 0, Control_c, 3, 7, 64
5, 3842, Note_on_c, 3, 72, 95
5, 3842, Note_on_c, 3, 69, 82
5, 3843, Note_on_c, 3, 76, 76
5, 3845, Note_on_c, 3, 65, 70
5, 4734, Note_on_c, 3, 69, 0
5, 4734, Note_on_c, 3, 65, 0
5, 4738, Note_on_c, 3, 72, 0
5, 4740, Note_on_c, 3, 76, 0
5, 4740, Control_c, 3, 123, 0
5, 4798, Note_on_c, 3, 77, 93
5, 4798, Note_on_c, 3, 74, 99
5, 4799, Note_on_c, 3, 70, 93
5, 4799, Note_on_c, 3, 67, 97
5, 5707, Note_on_c, 3, 77, 0
5, 5713, Note_on_c, 3, 74, 0
5, 5719, Note_on_c, 3, 67, 0
5, 5721, Note_on_c, 3, 70, 0
5, 5721, Control_c, 3, 123, 0
5, 5761, Note_on_c, 3, 72, 93
5, 5762, Note_on_c, 3, 76, 70
5, 5762, Note_on_c, 3, 69, 89
5, 5764, Note_on_c, 3, 77, 75
5, 5765, Note_on_c, 3, 65, 75
5, 5789, Note_on_c, 3, 77, 0
5, 6666, Note_on_c, 3, 69, 0
5, 6666, Note_on_c, 3, 65, 0
5, 6672, Note_on_c, 3, 72, 0
5, 6674, Note_on_c, 3, 76, 0
5, 6674, Control_c, 3, 123, 0
5, 6722, Note_on_c, 3, 70, 88
5, 6722, Note_on_c, 3, 74, 92
5, 6723, Note_on_c, 3, 77, 92
5, 6725, Note_on_c, 3, 67, 87
5, 7666, Note_on_c, 3, 77, 0
5, 7667, Note_on_c, 3, 67, 0
5, 7669, Note_on_c, 3, 70, 0
5, 7669, Note_on_c, 3, 74, 0
5, 7669, Control_c, 3, 123, 0
5, 15842, Note_on_c, 3, 72, 95
5, 15842, Note_on_c, 3, 69, 82
5, 15843, Note_on_c, 3, 76, 76
5, 15845, Note_on_c, 3, 65, 70
5, 16734, Note_on_c, 3, 69, 0
5, 16734, Note_on_c, 3, 65, 0
5, 16738, Note_on_c, 3, 72, 0
5, 16740, Note_on_c, 3, 76, 0
5, 16740, Control_c, 3, 123, 0
5, 16798, Note_on_c, 3, 77, 93
5, 16798, Note_on_c, 3, 74, 99
5, 16799, Note_on_c, 3, 70, 93
5, 16799, Note_on_c, 3, 67, 97
5, 17707, Note_on_c, 3, 77, 0
5, 17713, Note_on_c, 3, 74, 0
5, 17719, Note_on_c, 3, 67, 0
5, 17721, Note_on_c, 3, 70, 0
5, 17721, Control_c, 3, 123, 0
5, 17761, Note_on_c, 3, 72, 93
5, 17762, Note_on_c, 3, 76, 70
5, 17762, Note_on_c, 3, 69, 89
5, 17764, Note_on_c, 3, 77, 75
5, 17765, Note_on_c, 3, 65, 75
5, 17789, Note_on_c, 3, 77, 0
5, 18666, Note_on_c, 3, 69, 0
5, 18666, Note_on_c, 3, 65, 0
5, 18672, Note_on_c, 3, 72, 0
5, 18674, Note_on_c, 3, 76, 0
5, 18674, Control_c, 3, 123, 0
5, 18722, Note_on_c, 3, 70, 88
5, 18722, Note_on_c, 3, 74, 92
5, 18723, Note_on_c, 3, 77, 92
5, 18725, Note_on_c, 3, 67, 87
5, 19666, Note_on_c, 3, 77, 0
5, 19667, Note_on_c, 3, 67, 0
5, 19669, Note_on_c, 3, 70, 0
5, 19669, Note_on_c, 3, 74, 0
5, 19669, Control_c, 3, 123, 0
5, 24004, Note_on_c, 3, 72, 99
5, 24004, Note_on_c, 3, 69, 84
5, 24005, Note_on_c, 3, 76, 74
5, 24007, Note_on_c, 3, 65, 74
5, 24904, Note_on_c, 3, 69, 0
5, 24906, Note_on_c, 3, 65, 0
5, 24909, Note_on_c, 3, 72, 0
5, 24915, Note_on_c, 3, 76, 0
5, 24915, Control_c, 3, 123, 0
5, 24951, Note_on_c, 3, 70, 84
5, 24953, Note_on_c, 3, 74, 89
5, 24953, Note_on_c, 3, 77, 90
5, 24954, Note_on_c, 3, 67, 90
5, 25871, Note_on_c, 3, 77, 0
5, 25877, Note_on_c, 3, 70, 0
5, 25877, Note_on_c, 3, 74, 0
5, 25879, Note_on_c, 3, 67, 0
5, 25879, Control_c, 3, 123, 0
5, 25912, Note_on_c, 3, 76, 80
5, 25912, Note_on_c, 3, 72, 99
5, 25914, Note_on_c, 3, 69, 92
5, 25914, Note_on_c, 3, 65, 83
5, 26820, Note_on_c, 3, 69, 0
5, 26823, Note_on_c, 3, 65, 0
5, 26833, Note_on_c, 3, 72, 0
5, 26837, Note_on_c, 3, 76, 0
5, 26837, Control_c, 3, 123, 0
5, 26877, Note_on_c, 3, 70, 93
5, 26878, Note_on_c, 3, 77, 97
5, 26878, Note_on_c, 3, 74, 90
5, 26879, Note_on_c, 3, 67, 95
5, 27357, Note_on_c, 3, 79, 82
5, 27798, Note_on_c, 3, 70, 0
5, 27798, Note_on_c, 3, 67, 0
5, 27798, Note_on_c, 3, 79, 0
5, 27800, Note_on_c, 3, 77, 0
5, 27800, Note_on_c, 3, 74, 0
5, 27800, Control_c, 3, 123, 0
5, 35522, Note_on_c, 3, 72, 95
5, 35522, Note_on_c, 3, 69, 82
5, 35523, Note_on_c, 3, 76, 76
5, 35525, Note_on_c, 3, 65, 70
5, 36414, Note_on_c, 3, 69, 0
5, 36414, Note_on_c, 3, 65, 0
5, 36418, Note_on_c, 3, 72, 0
5, 36420, Note_on_c, 3, 76, 0
5, 36420, Control_c, 3, 123, 0
5, 36478, Note_on_c, 3, 77, 93
5, 36478, Note_on_c, 3, 74, 99
5, 36479, Note_on_c, 3, 70, 93
5, 36479, Note_on_c, 3, 67, 97
5, 37387, Note_on_c, 3, 77, 0
5, 37393, Note_on_c, 3, 74, 0
5, 37399, Note_on_c, 3, 67, 0
5, 37401, Note_on_c, 3, 70, 0
5, 37401, Control_c, 3, 123, 0
5, 37441, Note_on_c, 3, 72, 93
5, 37442, Note_on_c, 3, 76, 70
5, 37442, Note_on_c, 3, 69, 89
5, 37444, Note_on_c, 3, 77, 75
5, 37445, Note_on_c, 3, 65, 75
5, 37469, Note_on_c, 3, 77, 0
5, 38346, Note_on_c, 3, 69, 0
5, 38346, Note_on_c, 3, 65, 0
5, 38352, Note_on_c, 3, 72, 0
5, 38354, Note_on_c, 3, 76, 0
5, 38354, Control_c, 3, 123, 0
5, 38402, Note_on_c, 3, 70, 88
5, 38402, Note_on_c, 3, 74, 92
5, 38403, Note_on_c, 3, 77, 92
5, 38405, Note_on_c, 3, 67, 87
5, 39346, Note_on_c, 3, 77, 0
5, 39347, Note_on_c, 3, 67, 0
5, 39349, Note_on_c, 3, 70, 0
5, 39349, Note_on_c, 3, 74, 0
5, 39349, Control_c, 3, 123, 0
5, 47522, Note_on_c, 3, 72, 95
5, 47522, Note_on_c, 3, 69, 82
5, 47523, Note_on_c, 3, 76, 76
5, 47525, Note_on_c, 3, 65, 70
5, 48414, Note_on_c, 3, 69, 0
5, 48414, Note_on_c, 3, 65, 0
5, 48418, Note_on_c, 3, 72, 0
5, 48420, Note_on_c, 3, 76, 0
5, 48420, Control_c, 3, 123, 0
5, 48478, Note_on_c, 3, 77, 93
5, 48478, Note_on_c, 3, 74, 99
5, 48479, Note_on_c, 3, 70, 93
5, 48479, Note_on_c, 3, 67, 97
5, 49387, Note_on_c, 3, 77, 0
5, 49393, Note_on_c, 3, 74, 0
5, 49399, Note_on_c, 3, 67, 0
5, 49401, Note_on_c, 3, 70, 0
5, 49401, Control_c, 3, 123, 0
5, 49441, Note_on_c, 3, 72, 93
5, 49442, Note_on_c, 3, 76, 70
5, 49442, Note_on_c, 3, 69, 89
5, 49444, Note_on_c, 3, 77, 75
5, 49445, Note_on_c, 3, 65, 75
5, 49469, Note_on_c, 3, 77, 0
5, 50346, Note_on_c, 3, 69, 0
5, 50346, Note_on_c, 3, 65, 0
5, 50352, Note_on_c, 3, 72, 0
5, 50354, Note_on_c, 3, 76, 0
5, 50354, Control_c, 3, 123, 0
5, 50402, Note_on_c, 3, 70, 88
5, 50402, Note_on_c, 3, 74, 92
5, 50403, Note_on_c, 3, 77, 92
5, 50405, Note_on_c, 3, 67, 87
5, 51346, Note_on_c, 3, 77, 0
5, 51347, Note_on_c, 3, 67, 0
5, 51349, Note_on_c, 3, 70, 0
5, 51349, Note_on_c, 3, 74, 0
5, 51349, Control_c, 3, 123, 0
5, 51360, Control_c, 3, 7, 64
5, 51443, Control_c, 3, 7, 63
5, 51525, Control_c, 3, 7, 62
5, 51608, Control_c, 3, 7, 61
5, 51690, Control_c, 3, 7, 60
5, 51773, Control_c, 3, 7, 59
5, 51855, Control_c, 3, 7, 58
5, 51938, Control_c, 3, 7, 57
5, 52020, Control_c, 3, 7, 56
5, 52103, Control_c, 3, 7, 55
5, 52185, Control_c, 3, 7, 54
5, 52268, Control_c, 3, 7, 53
5, 52350, Control_c, 3, 7, 52
5, 52433, Control_c, 3, 7, 51
5, 52515, Control_c, 3, 7, 50
5, 52598, Control_c, 3, 7, 49
5, 52680, Control_c, 3, 7, 48
5, 52763, Control_c, 3, 7, 47
5, 52845, Control_c, 3, 7, 46
5, 52928, Control_c, 3, 7, 45
5, 53010, Control_c, 3, 7, 44
5, 53093, Control_c, 3, 7, 43
5, 53175, Control_c, 3, 7, 42
5, 53258, Control_c, 3, 7, 41
5, 53340, Control_c, 3, 7, 40
5, 53423, Control_c, 3, 7, 39
5, 53505, Control_c, 3, 7, 38
5, 53588, Control_c, 3, 7, 37
5, 53670, Control_c, 3, 7, 36
5, 53753, Control_c, 3, 7, 35
5, 53835, Control_c, 3, 7, 34
5, 53918, Control_c, 3, 7, 33
5, 54000, Control_c, 3, 7, 32
5, 54083, Control_c, 3, 7, 31
5, 54165, Control_c, 3, 7, 30
5, 54248, Control_c, 3, 7, 29
5, 54330, Control_c, 3, 7, 28
5, 54413, Control_c, 3, 7, 27
5, 54495, Control_c, 3, 7, 26
5, 54578, Control_c, 3, 7, 25
5, 54660, Control_c, 3, 7, 24
5, 54743, Control_c, 3, 7, 23
5, 54825, Control_c, 3, 7, 22
5, 54908, Control_c, 3, 7, 21
5, 54990, Control_c, 3, 7, 20
5, 55073, Control_c, 3, 7, 19
5, 55155, Control_c, 3, 7, 18
5, 55238, Control_c, 3, 7, 17
5, 55320, Control_c, 3, 7, 16
5, 55403, Control_c, 3, 7, 15
5, 55485, Control_c, 3, 7, 14
5, 55568, Control_c, 3, 7, 13
5, 55650, Control_c, 3, 7, 12
5, 55684, Note_on_c, 3, 72, 99
5, 55684, Note_on_c, 3, 69, 84
5, 55685, Note_on_c, 3, 76, 74
5, 55687, Note_on_c, 3, 65, 74
5, 55733, Control_c, 3, 7, 11
5, 55815, Control_c, 3, 7, 10
5, 55898, Control_c, 3, 7, 9
5, 55980, Control_c, 3, 7, 8
5, 56063, Control_c, 3, 7, 7
5, 56145, Control_c, 3, 7, 6
5, 56228, Control_c, 3, 7, 5
5, 56310, Control_c, 3, 7, 4
5, 56393, Control_c, 3, 7, 3
5, 56475, Control_c, 3, 7, 2
5, 56558, Control_c, 3, 7, 1
5, 56584, Note_on_c, 3, 69, 0
5, 56586, Note_on_c, 3, 65, 0
5, 56589, Note_on_c, 3, 72, 0
5, 56595, Note_on_c, 3, 76, 0
5, 56640, Control_c, 3, 7, 0
5, 56640, End_track
6, 0, Start_track
6, 0, MIDI_port, 0
6, 0, Title_t, "Edward Phillips"
6, 0, Program_c, 4, 24
6, 0, Control_c, 4, 7, 120
6, 7500, Control_c, 4, 91, 85
6, 7500, Note_on_c, 4, 50, 106
6, 7526, Note_on_c, 4, 50, 0
6, 7526, Control_c, 4, 123, 0
6, 7559, Note_on_c, 4, 53, 106
6, 7584, Note_on_c, 4, 53, 0
6, 7584, Control_c, 4, 123, 0
6, 7618, Note_on_c, 4, 57, 106
6, 7644, Note_on_c, 4, 57, 0
6, 7644, Control_c, 4, 123, 0
6, 7978, Note_on_c, 4, 50, 100
6, 8006, Note_on_c, 4, 50, 0
6, 8006, Control_c, 4, 123, 0
6, 8039, Note_on_c, 4, 53, 106
6, 8065, Note_on_c, 4, 53, 0
6, 8065, Control_c, 4, 123, 0
6, 8098, Note_on_c, 4, 57, 109
6, 8125, Note_on_c, 4, 57, 0
6, 8125, Control_c, 4, 123, 0
6, 8460, Note_on_c, 4, 50, 97
6, 8488, Note_on_c, 4, 50, 0
6, 8488, Control_c, 4, 123, 0
6, 8522, Note_on_c, 4, 53, 106
6, 8549, Note_on_c, 4, 53, 0
6, 8549, Control_c, 4, 123, 0
6, 8580, Note_on_c, 4, 55, 100
6, 8606, Note_on_c, 4, 55, 0
6, 8607, Control_c, 4, 123, 0
6, 8939, Note_on_c, 4, 50, 92
6, 8966, Note_on_c, 4, 50, 0
6, 8966, Control_c, 4, 123, 0
6, 9000, Note_on_c, 4, 53, 100
6, 9022, Note_on_c, 4, 53, 0
6, 9022, Control_c, 4, 123, 0
6, 9059, Note_on_c, 4, 55, 97
6, 9080, Note_on_c, 4, 55, 0
6, 9080, Control_c, 4, 123, 0
6, 9120, Note_on_c, 4, 57, 100
6, 9240, Note_on_c, 4, 55, 92
6, 9242, Note_on_c, 4, 57, 0
6, 9301, Note_on_c, 4, 53, 100
6, 9308, Note_on_c, 4, 55, 0
6, 9331, Note_on_c, 4, 53, 0
6, 9331, Control_c, 4, 123, 0
6, 9360, Note_on_c, 4, 55, 88
6, 9424, Note_on_c, 4, 50, 88
6, 9431, Note_on_c, 4, 55, 0
6, 9454, Note_on_c, 4, 50, 0
6, 9454, Control_c, 4, 123, 0
6, 9479, Note_on_c, 4, 53, 100
6, 9501, Note_on_c, 4, 53, 0
6, 9501, Control_c, 4, 123, 0
6, 9539, Note_on_c, 4, 57, 113
6, 9564, Note_on_c, 4, 57, 0
6, 9564, Control_c, 4, 123, 0
6, 9902, Note_on_c, 4, 50, 82
6, 9932, Note_on_c, 4, 50, 0
6, 9932, Control_c, 4, 123, 0
6, 9960, Note_on_c, 4, 53, 106
6, 9985, Note_on_c, 4, 53, 0
6, 9985, Control_c, 4, 123, 0
6, 10018, Note_on_c, 4, 57, 103
6, 10045, Note_on_c, 4, 57, 0
6, 10045, Control_c, 4, 123, 0
6, 10381, Note_on_c, 4, 50, 95
6, 10406, Note_on_c, 4, 50, 0
6, 10407, Control_c, 4, 123, 0
6, 10442, Note_on_c, 4, 53, 100
6, 10467, Note_on_c, 4, 53, 0
6, 10467, Control_c, 4, 123, 0
6, 10500, Note_on_c, 4, 55, 100
6, 10524, Note_on_c, 4, 55, 0
6, 10524, Control_c, 4, 123, 0
6, 10854, Note_on_c, 4, 50, 100
6, 10879, Note_on_c, 4, 50, 0
6, 10879, Control_c, 4, 123, 0
6, 10918, Note_on_c, 4, 53, 100
6, 10939, Note_on_c, 4, 53, 0
6, 10939, Control_c, 4, 123, 0
6, 10976, Note_on_c, 4, 55, 86
6, 10998, Note_on_c, 4, 55, 0
6, 10998, Control_c, 4, 123, 0
6, 11038, Note_on_c, 4, 57, 97
6, 11154, Note_on_c, 4, 57, 0
6, 11154, Control_c, 4, 123, 0
6, 11157, Note_on_c, 4, 55, 84
6, 11219, Note_on_c, 4, 55, 0
6, 11219, Control_c, 4, 123, 0
6, 11220, Note_on_c, 4, 53, 95
6, 11244, Note_on_c, 4, 53, 0
6, 11244, Control_c, 4, 123, 0
6, 11280, Note_on_c, 4, 55, 95
6, 11329, Note_on_c, 4, 55, 0
6, 11329, Control_c, 4, 123, 0
6, 11340, Note_on_c, 4, 53, 112
6, 11879, Note_on_c, 4, 53, 0
6, 11879, Control_c, 4, 123, 0
6, 12210, Note_on_c, 4, 62, 86
6, 12225, Note_on_c, 4, 64, 84
6, 12228, Note_on_c, 4, 62, 0
6, 12235, Note_on_c, 4, 64, 0
6, 12235, Control_c, 4, 123, 0
6, 12240, Note_on_c, 4, 69, 113
6, 12256, Control_c, 4, 123, 0
6, 12258, Note_on_c, 4, 69, 0
6, 12330, Note_on_c, 4, 67, 100
6, 12349, Control_c, 4, 123, 0
6, 12350, Note_on_c, 4, 67, 0
6, 12390, Note_on_c, 4, 65, 126
6, 12414, Note_on_c, 4, 65, 0
6, 12416, Control_c, 4, 123, 0
6, 12420, Note_on_c, 4, 64, 56
6, 12435, Note_on_c, 4, 64, 0
6, 12439, Control_c, 4, 123, 0
6, 12450, Note_on_c, 4, 65, 106
6, 12474, Note_on_c, 4, 65, 0
6, 12474, Control_c, 4, 123, 0
6, 12480, Note_on_c, 4, 64, 74
6, 12501, Note_on_c, 4, 64, 0
6, 12501, Control_c, 4, 123, 0
6, 12510, Note_on_c, 4, 62, 109
6, 12529, Note_on_c, 4, 62, 0
6, 12530, Control_c, 4, 123, 0
6, 12780, Note_on_c, 4, 57, 109
6, 12808, Note_on_c, 4, 57, 0
6, 12810, Note_on_c, 4, 60, 112
6, 12810, Control_c, 4, 123, 0
6, 12834, Note_on_c, 4, 60, 0
6, 12835, Control_c, 4, 123, 0
6, 12840, Note_on_c, 4, 57, 74
6, 12860, Note_on_c, 4, 57, 0
6, 12863, Control_c, 4, 123, 0
6, 12870, Note_on_c, 4, 56, 127
6, 12889, Note_on_c, 4, 56, 0
6, 12894, Control_c, 4, 123, 0
6, 12930, Note_on_c, 4, 55, 117
6, 12951, Note_on_c, 4, 55, 0
6, 12953, Control_c, 4, 123, 0
6, 13005, Note_on_c, 4, 53, 118
6, 13025, Control_c, 4, 123, 0
6, 13031, Note_on_c, 4, 53, 0
6, 13050, Note_on_c, 4, 53, 112
6, 13076, Note_on_c, 4, 53, 0
6, 13080, Note_on_c, 4, 52, 113
6, 13081, Control_c, 4, 123, 0
6, 13103, Note_on_c, 4, 52, 0
6, 13106, Control_c, 4, 123, 0
6, 13110, Note_on_c, 4, 53, 112
6, 13134, Note_on_c, 4, 53, 0
6, 13134, Control_c, 4, 123, 0
6, 13140, Note_on_c, 4, 52, 92
6, 13160, Control_c, 4, 123, 0
6, 13161, Note_on_c, 4, 52, 0
6, 13170, Note_on_c, 4, 50, 88
6, 13196, Control_c, 4, 123, 0
6, 13197, Note_on_c, 4, 50, 0
6, 13200, Note_on_c, 4, 52, 117
6, 13219, Note_on_c, 4, 52, 0
6, 13219, Control_c, 4, 123, 0
6, 13230, Note_on_c, 4, 53, 90
6, 13254, Note_on_c, 4, 53, 0
6, 13255, Control_c, 4, 123, 0
6, 13260, Note_on_c, 4, 55, 82
6, 13275, Note_on_c, 4, 55, 0
6, 13277, Control_c, 4, 123, 0
6, 13290, Note_on_c, 4, 57, 117
6, 13305, Note_on_c, 4, 55, 62
6, 13308, Note_on_c, 4, 55, 0
6, 13311, Note_on_c, 4, 57, 0
6, 13314, Control_c, 4, 123, 0
6, 13350, Note_on_c, 4, 55, 113
6, 13372, Note_on_c, 4, 55, 0
6, 13372, Control_c, 4, 123, 0
6, 13410, Note_on_c, 4, 53, 126
6, 13410, Note_on_c, 4, 55, 49
6, 13410, Note_on_c, 4, 57, 56
6, 13414, Note_on_c, 4, 57, 0
6, 13419, Note_on_c, 4, 55, 0
6, 13437, Note_on_c, 4, 53, 0
6, 13439, Control_c, 4, 123, 0
6, 13440, Note_on_c, 4, 52, 90
6, 13463, Note_on_c, 4, 52, 0
6, 13465, Control_c, 4, 123, 0
6, 13470, Note_on_c, 4, 53, 100
6, 13498, Note_on_c, 4, 53, 0
6, 13498, Control_c, 4, 123, 0
6, 13500, Note_on_c, 4, 52, 90
6, 13522, Note_on_c, 4, 52, 0
6, 13522, Control_c, 4, 123, 0
6, 13530, Note_on_c, 4, 50, 109
6, 13548, Note_on_c, 4, 50, 0
6, 13551, Control_c, 4, 123, 0
6, 13590, Note_on_c, 4, 48, 112
6, 13665, Control_c, 4, 123, 0
6, 13666, Note_on_c, 4, 48, 0
6, 13680, Note_on_c, 4, 45, 117
6, 13735, Note_on_c, 4, 45, 0
6, 13740, Note_on_c, 4, 48, 112
6, 13765, Control_c, 4, 123, 0
6, 13766, Note_on_c, 4, 48, 0
6, 13770, Note_on_c, 4, 45, 100
6, 13809, Control_c, 4, 123, 0
6, 13811, Note_on_c, 4, 45, 0
6, 13830, Note_on_c, 4, 43, 103
6, 13856, Note_on_c, 4, 43, 0
6, 13858, Control_c, 4, 123, 0
6, 13890, Note_on_c, 4, 41, 118
6, 13912, Control_c, 4, 123, 0
6, 13913, Note_on_c, 4, 41, 0
6, 13950, Note_on_c, 4, 40, 106
6, 14010, Note_on_c, 4, 41, 118
6, 14013, Note_on_c, 4, 40, 0
6, 14033, Note_on_c, 4, 41, 0
6, 14034, Control_c, 4, 123, 0
6, 14040, Note_on_c, 4, 40, 97
6, 14060, Note_on_c, 4, 40, 0
6, 14060, Control_c, 4, 123, 0
6, 14070, Note_on_c, 4, 38, 106
6, 14070, Note_on_c, 4, 40, 68
6, 14076, Note_on_c, 4, 40, 0
6, 14088, Control_c, 4, 123, 0
6, 14091, Note_on_c, 4, 38, 0
6, 14430, Note_on_c, 4, 50, 90
6, 14460, Note_on_c, 4, 52, 95
6, 14466, Note_on_c, 4, 50, 0
6, 14482, Note_on_c, 4, 52, 0
6, 14483, Control_c, 4, 123, 0
6, 14490, Note_on_c, 4, 53, 67
6, 14506, Control_c, 4, 123, 0
6, 14508, Note_on_c, 4, 53, 0
6, 14520, Note_on_c, 4, 55, 80
6, 14534, Control_c, 4, 123, 0
6, 14535, Note_on_c, 4, 55, 0
6, 14550, Note_on_c, 4, 56, 126
6, 14561, Control_c, 4, 123, 0
6, 14565, Note_on_c, 4, 56, 0
6, 14580, Note_on_c, 4, 57, 97
6, 14599, Control_c, 4, 123, 0
6, 14600, Note_on_c, 4, 57, 0
6, 14610, Note_on_c, 4, 60, 112
6, 14625, Note_on_c, 4, 60, 0
6, 14629, Control_c, 4, 123, 0
6, 14670, Note_on_c, 4, 62, 122
6, 14695, Note_on_c, 4, 62, 0
6, 14699, Control_c, 4, 123, 0
6, 14730, Note_on_c, 4, 64, 117
6, 14751, Note_on_c, 4, 64, 0
6, 14755, Control_c, 4, 123, 0
6, 14790, Note_on_c, 4, 65, 118
6, 14812, Note_on_c, 4, 65, 0
6, 14816, Control_c, 4, 123, 0
6, 14850, Note_on_c, 4, 67, 100
6, 14875, Note_on_c, 4, 67, 0
6, 14875, Control_c, 4, 123, 0
6, 14910, Note_on_c, 4, 68, 126
6, 14933, Note_on_c, 4, 68, 0
6, 14934, Control_c, 4, 123, 0
6, 14970, Note_on_c, 4, 69, 113
6, 14991, Note_on_c, 4, 69, 0
6, 14992, Control_c, 4, 123, 0
6, 15030, Note_on_c, 4, 72, 118
6, 15051, Note_on_c, 4, 72, 0
6, 15051, Control_c, 4, 123, 0
6, 15090, Note_on_c, 4, 74, 127
6, 15111, Note_on_c, 4, 74, 0
6, 15111, Control_c, 4, 123, 0
6, 15150, Note_on_c, 4, 76, 113
6, 15168, Note_on_c, 4, 76, 0
6, 15169, Control_c, 4, 123, 0
6, 15210, Note_on_c, 4, 77, 118
6, 15226, Note_on_c, 4, 77, 0
6, 15228, Control_c, 4, 123, 0
6, 15270, Note_on_c, 4, 79, 113
6, 15288, Note_on_c, 4, 79, 0
6, 15290, Control_c, 4, 123, 0
6, 15330, Note_on_c, 4, 80, 118
6, 15330, Note_on_c, 4, 81, 103
6, 15338, Note_on_c, 4, 80, 0
6, 15349, Note_on_c, 4, 81, 0
6, 15350, Control_c, 4, 123, 0
6, 15390, Note_on_c, 4, 84, 126
6, 15406, Note_on_c, 4, 84, 0
6, 15406, Control_c, 4, 123, 0
6, 15450, Note_on_c, 4, 86, 126
6, 15528, Control_c, 4, 1, 127
6, 15735, Control_c, 4, 1, 0
6, 15780, Note_on_c, 4, 84, 112
6, 15788, Note_on_c, 4, 86, 0
6, 15809, Control_c, 4, 123, 0
6, 15810, Note_on_c, 4, 81, 97
6, 15812, Note_on_c, 4, 84, 0
6, 15845, Control_c, 4, 1, 127
6, 16013, Control_c, 4, 1, 0
6, 16017, Note_on_c, 4, 81, 0
6, 16020, Note_on_c, 4, 84, 100
6, 16047, Control_c, 4, 123, 0
6, 16049, Note_on_c, 4, 84, 0
6, 16050, Note_on_c, 4, 81, 100
6, 16069, Control_c, 4, 123, 0
6, 16071, Note_on_c, 4, 81, 0
6, 16380, Note_on_c, 4, 86, 95
6, 16395, Note_on_c, 4, 84, 90
6, 16404, Note_on_c, 4, 86, 0
6, 16410, Note_on_c, 4, 81, 69
6, 16412, Note_on_c, 4, 84, 0
6, 16425, Note_on_c, 4, 79, 84
6, 16437, Note_on_c, 4, 81, 0
6, 16440, Note_on_c, 4, 84, 100
6, 16441, Note_on_c, 4, 79, 0
6, 16455, Note_on_c, 4, 81, 92
6, 16459, Note_on_c, 4, 84, 0
6, 16470, Note_on_c, 4, 79, 48
6, 16473, Note_on_c, 4, 81, 0
6, 16473, Control_c, 4, 123, 0
6, 16481, Note_on_c, 4, 79, 0
6, 16485, Note_on_c, 4, 77, 83
6, 16500, Note_on_c, 4, 81, 79
6, 16503, Control_c, 4, 123, 0
6, 16505, Note_on_c, 4, 77, 0
6, 16515, Note_on_c, 4, 79, 90
6, 16521, Note_on_c, 4, 81, 0
6, 16530, Note_on_c, 4, 77, 61
6, 16535, Note_on_c, 4, 79, 0
6, 16545, Note_on_c, 4, 74, 88
6, 16551, Note_on_c, 4, 77, 0
6, 16560, Note_on_c, 4, 79, 74
6, 16562, Note_on_c, 4, 74, 0
6, 16562, Control_c, 4, 123, 0
6, 16575, Note_on_c, 4, 79, 0
6, 16575, Note_on_c, 4, 77, 100
6, 16590, Note_on_c, 4, 74, 74
6, 16592, Note_on_c, 4, 77, 0
6, 16605, Note_on_c, 4, 72, 61
6, 16612, Note_on_c, 4, 74, 0
6, 16620, Note_on_c, 4, 77, 95
6, 16625, Note_on_c, 4, 72, 0
6, 16635, Note_on_c, 4, 74, 113
6, 16642, Note_on_c, 4, 77, 0
6, 16650, Note_on_c, 4, 72, 64
6, 16655, Note_on_c, 4, 74, 0
6, 16665, Note_on_c, 4, 69, 82
6, 16672, Note_on_c, 4, 72, 0
6, 16680, Note_on_c, 4, 74, 97
6, 16682, Note_on_c, 4, 69, 0
6, 16695, Note_on_c, 4, 72, 86
6, 16700, Note_on_c, 4, 74, 0
6, 16709, Note_on_c, 4, 72, 0
6, 16710, Note_on_c, 4, 69, 60
6, 16725, Note_on_c, 4, 67, 74
6, 16735, Note_on_c, 4, 69, 0
6, 16740, Note_on_c, 4, 72, 106
6, 16744, Note_on_c, 4, 67, 0
6, 16755, Note_on_c, 4, 69, 95
6, 16763, Note_on_c, 4, 72, 0
6, 16770, Note_on_c, 4, 67, 60
6, 16776, Note_on_c, 4, 69, 0
6, 16785, Note_on_c, 4, 65, 80
6, 16793, Note_on_c, 4, 67, 0
6, 16800, Note_on_c, 4, 69, 82
6, 16804, Note_on_c, 4, 65, 0
6, 16815, Note_on_c, 4, 67, 82
6, 16819, Note_on_c, 4, 69, 0
6, 16830, Note_on_c, 4, 65, 51
6, 16834, Note_on_c, 4, 67, 0
6, 16845, Note_on_c, 4, 62, 86
6, 16853, Note_on_c, 4, 65, 0
6, 16860, Note_on_c, 4, 67, 73
6, 16863, Control_c, 4, 123, 0
6, 16867, Note_on_c, 4, 62, 0
6, 16875, Note_on_c, 4, 65, 86
6, 16876, Note_on_c, 4, 67, 0
6, 16886, Note_on_c, 4, 65, 0
6, 16890, Note_on_c, 4, 62, 69
6, 16890, Note_on_c, 4, 60, 71
6, 16910, Note_on_c, 4, 60, 0
6, 16912, Note_on_c, 4, 62, 0
6, 16920, Note_on_c, 4, 65, 100
6, 16935, Note_on_c, 4, 62, 97
6, 16943, Note_on_c, 4, 65, 0
6, 16950, Note_on_c, 4, 60, 48
6, 16956, Note_on_c, 4, 62, 0
6, 16965, Note_on_c, 4, 57, 71
6, 16971, Note_on_c, 4, 60, 0
6, 16980, Note_on_c, 4, 62, 84
6, 16984, Note_on_c, 4, 57, 0
6, 16995, Note_on_c, 4, 60, 73
6, 17005, Note_on_c, 4, 62, 0
6, 17010, Note_on_c, 4, 60, 0
6, 17010, Note_on_c, 4, 57, 71
6, 17025, Note_on_c, 4, 55, 86
6, 17038, Note_on_c, 4, 57, 0
6, 17040, Note_on_c, 4, 60, 100
6, 17045, Note_on_c, 4, 55, 0
6, 17055, Note_on_c, 4, 57, 109
6, 17060, Note_on_c, 4, 60, 0
6, 17070, Note_on_c, 4, 55, 63
6, 17072, Note_on_c, 4, 57, 0
6, 17085, Note_on_c, 4, 53, 86
6, 17090, Note_on_c, 4, 55, 0
6, 17100, Note_on_c, 4, 57, 86
6, 17104, Note_on_c, 4, 53, 0
6, 17104, Control_c, 4, 123, 0
6, 17115, Note_on_c, 4, 55, 100
6, 17118, Note_on_c, 4, 57, 0
6, 17130, Note_on_c, 4, 53, 67
6, 17135, Note_on_c, 4, 55, 0
6, 17145, Note_on_c, 4, 50, 95
6, 17154, Note_on_c, 4, 53, 0
6, 17160, Note_on_c, 4, 55, 90
6, 17161, Note_on_c, 4, 50, 0
6, 17175, Note_on_c, 4, 53, 100
6, 17175, Note_on_c, 4, 50, 80
6, 17182, Note_on_c, 4, 53, 0
6, 17183, Note_on_c, 4, 55, 0
6, 17199, Note_on_c, 4, 50, 0
6, 17205, Note_on_c, 4, 48, 75
6, 17220, Note_on_c, 4, 53, 100
6, 17224, Note_on_c, 4, 48, 0
6, 17235, Note_on_c, 4, 50, 95
6, 17235, Note_on_c, 4, 48, 83
6, 17244, Note_on_c, 4, 53, 0
6, 17250, Note_on_c, 4, 45, 64
6, 17255, Note_on_c, 4, 50, 0
6, 17255, Note_on_c, 4, 48, 0
6, 17270, Note_on_c, 4, 45, 0
6, 17275, Control_c, 4, 123, 0
6, 17280, Note_on_c, 4, 50, 97
6, 17295, Note_on_c, 4, 48, 77
6, 17295, Note_on_c, 4, 45, 70
6, 17302, Note_on_c, 4, 50, 0
6, 17311, Note_on_c, 4, 48, 0
6, 17319, Note_on_c, 4, 45, 0
6, 17325, Note_on_c, 4, 43, 68
6, 17340, Note_on_c, 4, 48, 90
6, 17345, Note_on_c, 4, 43, 0
6, 17355, Note_on_c, 4, 45, 95
6, 17355, Note_on_c, 4, 43, 60
6, 17363, Note_on_c, 4, 48, 0
6, 17370, Note_on_c, 4, 41, 71
6, 17373, Note_on_c, 4, 45, 0
6, 17375, Note_on_c, 4, 43, 0
6, 17390, Note_on_c, 4, 41, 0
6, 17393, Control_c, 4, 123, 0
6, 17520, Note_on_c, 4, 38, 95
6, 17541, Control_c, 4, 123, 0
6, 17547, Note_on_c, 4, 38, 0
6, 17550, Note_on_c, 4, 40, 57
6, 17580, Note_on_c, 4, 41, 100
6, 17587, Note_on_c, 4, 40, 0
6, 17607, Control_c, 4, 123, 0
6, 17609, Note_on_c, 4, 41, 0
6, 17610, Note_on_c, 4, 43, 100
6, 17636, Note_on_c, 4, 43, 0
6, 17636, Control_c, 4, 123, 0
6, 17640, Note_on_c, 4, 44, 112
6, 17667, Control_c, 4, 123, 0
6, 17668, Note_on_c, 4, 44, 0
6, 17670, Note_on_c, 4, 45, 100
6, 17691, Control_c, 4, 123, 0
6, 17692, Note_on_c, 4, 45, 0
6, 17700, Note_on_c, 4, 48, 112
6, 17722, Control_c, 4, 123, 0
6, 17723, Note_on_c, 4, 48, 0
6, 17730, Note_on_c, 4, 50, 127
6, 17776, Note_on_c, 4, 50, 0
6, 17777, Control_c, 4, 123, 0
6, 17790, Note_on_c, 4, 52, 113
6, 17850, Note_on_c, 4, 53, 126
6, 17856, Note_on_c, 4, 52, 0
6, 17909, Note_on_c, 4, 53, 0
6, 17910, Note_on_c, 4, 55, 109
6, 17970, Note_on_c, 4, 56, 127
6, 17978, Note_on_c, 4, 55, 0
6, 18030, Note_on_c, 4, 57, 97
6, 18031, Note_on_c, 4, 56, 0
6, 18033, Control_c, 4, 123, 0
6, 18090, Note_on_c, 4, 60, 106
6, 18093, Note_on_c, 4, 57, 0
6, 18147, Control_c, 4, 123, 0
6, 18150, Note_on_c, 4, 60, 0
6, 18150, Note_on_c, 4, 62, 122
6, 18150, Note_on_c, 4, 61, 106
6, 18166, Note_on_c, 4, 61, 0
6, 18193, Control_c, 4, 123, 0
6, 18194, Note_on_c, 4, 62, 0
6, 18210, Note_on_c, 4, 64, 92
6, 18270, Note_on_c, 4, 65, 126
6, 18282, Note_on_c, 4, 64, 0
6, 18329, Note_on_c, 4, 65, 0
6, 18330, Note_on_c, 4, 67, 100
6, 18390, Note_on_c, 4, 67, 0
6, 18390, Note_on_c, 4, 68, 118
6, 18450, Note_on_c, 4, 69, 109
6, 18454, Note_on_c, 4, 68, 0
6, 18510, Note_on_c, 4, 72, 126
6, 18523, Note_on_c, 4, 69, 0
6, 18567, Note_on_c, 4, 72, 0
6, 18569, Control_c, 4, 123, 0
6, 18570, Note_on_c, 4, 77, 126
6, 18630, Note_on_c, 4, 76, 113
6, 18638, Note_on_c, 4, 77, 0
6, 18704, Note_on_c, 4, 76, 0
6, 18707, Control_c, 4, 123, 0
6, 18720, Note_on_c, 4, 81, 109
6, 19140, Note_on_c, 4, 79, 103
6, 19141, Control_c, 4, 123, 0
6, 19146, Note_on_c, 4, 81, 0
6, 19170, Note_on_c, 4, 77, 106
6, 19177, Note_on_c, 4, 79, 0
6, 19184, Note_on_c, 4, 77, 0
6, 19189, Control_c, 4, 123, 0
6, 19200, Note_on_c, 4, 76, 97
6, 19232, Control_c, 4, 1, 127
6, 19401, Control_c, 4, 1, 0
6, 19404, Note_on_c, 4, 76, 0
6, 19409, Control_c, 4, 123, 0
6, 19500, Note_on_c, 4, 50, 106
6, 19532, Note_on_c, 4, 50, 0
6, 19533, Control_c, 4, 123, 0
6, 19560, Note_on_c, 4, 53, 112
6, 19580, Note_on_c, 4, 53, 0
6, 19580, Control_c, 4, 123, 0
6, 19620, Note_on_c, 4, 57, 109
6, 19644, Control_c, 4, 123, 0
6, 19648, Note_on_c, 4, 57, 0
6, 19980, Note_on_c, 4, 50, 103
6, 20006, Note_on_c, 4, 50, 0
6, 20009, Control_c, 4, 123, 0
6, 20040, Note_on_c, 4, 53, 106
6, 20063, Note_on_c, 4, 53, 0
6, 20066, Control_c, 4, 123, 0
6, 20100, Note_on_c, 4, 57, 97
6, 20100, Note_on_c, 4, 55, 84
6, 20118, Note_on_c, 4, 55, 0
6, 20123, Note_on_c, 4, 57, 0
6, 20125, Control_c, 4, 123, 0
6, 20460, Note_on_c, 4, 50, 88
6, 20492, Note_on_c, 4, 50, 0
6, 20492, Control_c, 4, 123, 0
6, 20520, Note_on_c, 4, 53, 100
6, 20546, Note_on_c, 4, 53, 0
6, 20548, Control_c, 4, 123, 0
6, 20580, Note_on_c, 4, 55, 100
6, 20608, Note_on_c, 4, 55, 0
6, 20608, Control_c, 4, 123, 0
6, 20940, Note_on_c, 4, 50, 92
6, 20968, Note_on_c, 4, 50, 0
6, 20972, Control_c, 4, 123, 0
6, 21000, Note_on_c, 4, 53, 100
6, 21024, Note_on_c, 4, 53, 0
6, 21024, Control_c, 4, 123, 0
6, 21060, Note_on_c, 4, 55, 92
6, 21084, Note_on_c, 4, 55, 0
6, 21085, Control_c, 4, 123, 0
6, 21120, Note_on_c, 4, 57, 106
6, 21240, Note_on_c, 4, 55, 95
6, 21245, Note_on_c, 4, 57, 0
6, 21288, Note_on_c, 4, 55, 0
6, 21294, Control_c, 4, 123, 0
6, 21300, Note_on_c, 4, 53, 95
6, 21333, Note_on_c, 4, 53, 0
6, 21336, Control_c, 4, 123, 0
6, 21360, Note_on_c, 4, 55, 86
6, 21420, Note_on_c, 4, 50, 106
6, 21425, Note_on_c, 4, 55, 0
6, 21450, Note_on_c, 4, 50, 0
6, 21453, Control_c, 4, 123, 0
6, 21480, Note_on_c, 4, 53, 100
6, 21505, Note_on_c, 4, 53, 0
6, 21505, Control_c, 4, 123, 0
6, 21540, Note_on_c, 4, 57, 106
6, 21568, Note_on_c, 4, 57, 0
6, 21568, Control_c, 4, 123, 0
6, 21900, Note_on_c, 4, 50, 90
6, 21930, Note_on_c, 4, 50, 0
6, 21932, Control_c, 4, 123, 0
6, 21960, Note_on_c, 4, 53, 106
6, 21985, Note_on_c, 4, 53, 0
6, 21985, Control_c, 4, 123, 0
6, 22020, Note_on_c, 4, 57, 100
6, 22049, Note_on_c, 4, 57, 0
6, 22049, Control_c, 4, 123, 0
6, 22380, Note_on_c, 4, 50, 97
6, 22405, Note_on_c, 4, 50, 0
6, 22406, Control_c, 4, 123, 0
6, 22440, Note_on_c, 4, 53, 100
6, 22463, Note_on_c, 4, 53, 0
6, 22466, Control_c, 4, 123, 0
6, 22500, Note_on_c, 4, 55, 95
6, 22525, Note_on_c, 4, 55, 0
6, 22526, Control_c, 4, 123, 0
6, 22860, Note_on_c, 4, 50, 79
6, 22891, Note_on_c, 4, 50, 0
6, 22891, Control_c, 4, 123, 0
6, 22920, Note_on_c, 4, 53, 106
6, 22944, Control_c, 4, 123, 0
6, 22945, Note_on_c, 4, 53, 0
6, 22980, Note_on_c, 4, 55, 95
6, 23003, Control_c, 4, 123, 0
6, 23004, Note_on_c, 4, 55, 0
6, 23040, Note_on_c, 4, 57, 106
6, 23160, Note_on_c, 4, 55, 92
6, 23170, Note_on_c, 4, 57, 0
6, 23199, Note_on_c, 4, 55, 0
6, 23203, Control_c, 4, 123, 0
6, 23220, Note_on_c, 4, 53, 100
6, 23245, Note_on_c, 4, 53, 0
6, 23248, Control_c, 4, 123, 0
6, 23280, Note_on_c, 4, 55, 97
6, 23311, Control_c, 4, 123, 0
6, 23312, Note_on_c, 4, 55, 0
6, 23340, Note_on_c, 4, 53, 118
6, 24047, Note_on_c, 4, 53, 0
6, 24047, Control_c, 4, 123, 0
6, 31681, Note_on_c, 4, 64, 109
6, 31708, Note_on_c, 4, 65, 95
6, 31710, Note_on_c, 4, 64, 0
6, 31739, Note_on_c, 4, 64, 74
6, 31751, Note_on_c, 4, 65, 0
6, 31762, Note_on_c, 4, 64, 0
6, 31762, Control_c, 4, 123, 0
6, 31773, Note_on_c, 4, 62, 109
6, 31794, Note_on_c, 4, 62, 0
6, 31794, Control_c, 4, 123, 0
6, 31803, Note_on_c, 4, 64, 117
6, 32620, Note_on_c, 4, 64, 0
6, 32620, Control_c, 4, 123, 0
6, 32644, Note_on_c, 4, 65, 127
6, 32822, Note_on_c, 4, 65, 0
6, 32822, Control_c, 4, 123, 0
6, 32824, Note_on_c, 4, 62, 103
6, 32844, Note_on_c, 4, 62, 0
6, 32845, Control_c, 4, 123, 0
6, 32881, Note_on_c, 4, 62, 122
6, 33502, Note_on_c, 4, 62, 0
6, 33502, Control_c, 4, 123, 0
6, 33602, Note_on_c, 4, 64, 109
6, 33632, Note_on_c, 4, 64, 0
6, 33632, Control_c, 4, 123, 0
6, 33634, Note_on_c, 4, 65, 112
6, 33667, Note_on_c, 4, 64, 76
6, 33674, Note_on_c, 4, 65, 0
6, 33687, Note_on_c, 4, 64, 0
6, 33687, Control_c, 4, 123, 0
6, 33697, Note_on_c, 4, 62, 100
6, 33721, Note_on_c, 4, 62, 0
6, 33721, Control_c, 4, 123, 0
6, 33728, Note_on_c, 4, 64, 117
6, 34472, Note_on_c, 4, 64, 0
6, 34472, Control_c, 4, 123, 0
6, 34472, Note_on_c, 4, 62, 86
6, 34499, Note_on_c, 4, 62, 0
6, 34499, Control_c, 4, 123, 0
6, 34506, Note_on_c, 4, 64, 84
6, 34528, Note_on_c, 4, 64, 0
6, 34528, Control_c, 4, 123, 0
6, 34565, Note_on_c, 4, 65, 127
6, 34744, Note_on_c, 4, 62, 103
6, 34748, Note_on_c, 4, 65, 0
6, 34763, Note_on_c, 4, 62, 0
6, 34763, Control_c, 4, 123, 0
6, 34805, Note_on_c, 4, 62, 103
6, 35060, Note_on_c, 4, 62, 0
6, 35060, Control_c, 4, 123, 0
6, 35523, Note_on_c, 4, 69, 113
6, 35551, Note_on_c, 4, 69, 0
6, 35552, Control_c, 4, 123, 0
6, 35553, Note_on_c, 4, 70, 106
6, 35582, Note_on_c, 4, 69, 97
6, 35587, Note_on_c, 4, 70, 0
6, 35605, Note_on_c, 4, 69, 0
6, 35605, Control_c, 4, 123, 0
6, 35614, Note_on_c, 4, 67, 84
6, 35634, Note_on_c, 4, 67, 0
6, 35634, Control_c, 4, 123, 0
6, 35646, Note_on_c, 4, 69, 117
6, 36450, Note_on_c, 4, 69, 0
6, 36450, Control_c, 4, 123, 0
6, 36481, Note_on_c, 4, 70, 112
6, 36659, Note_on_c, 4, 70, 0
6, 36660, Control_c, 4, 123, 0
6, 36663, Note_on_c, 4, 67, 92
6, 36688, Note_on_c, 4, 67, 0
6, 36688, Control_c, 4, 123, 0
6, 36724, Note_on_c, 4, 67, 100
6, 37395, Note_on_c, 4, 67, 0
6, 37395, Control_c, 4, 123, 0
6, 37441, Note_on_c, 4, 69, 126
6, 37521, Note_on_c, 4, 69, 0
6, 37521, Control_c, 4, 123, 0
6, 37540, Note_on_c, 4, 70, 112
6, 37609, Note_on_c, 4, 70, 0
6, 37609, Control_c, 4, 123, 0
6, 37623, Note_on_c, 4, 69, 126
6, 37711, Note_on_c, 4, 69, 0
6, 37711, Control_c, 4, 123, 0
6, 37715, Note_on_c, 4, 67, 103
6, 37779, Note_on_c, 4, 67, 0
6, 37779, Control_c, 4, 123, 0
6, 37796, Note_on_c, 4, 69, 126
6, 38312, Note_on_c, 4, 67, 95
6, 38315, Note_on_c, 4, 69, 0
6, 38337, Note_on_c, 4, 67, 0
6, 38337, Control_c, 4, 123, 0
6, 38344, Note_on_c, 4, 69, 92
6, 38368, Note_on_c, 4, 69, 0
6, 38368, Control_c, 4, 123, 0
6, 38404, Note_on_c, 4, 70, 126
6, 38573, Note_on_c, 4, 70, 0
6, 38573, Control_c, 4, 123, 0
6, 38578, Note_on_c, 4, 67, 88
6, 38598, Note_on_c, 4, 67, 0
6, 38598, Control_c, 4, 123, 0
6, 38637, Note_on_c, 4, 67, 109
6, 39018, Note_on_c, 4, 67, 0
6, 39019, Control_c, 4, 123, 0
6, 39177, Note_on_c, 4, 50, 100
6, 39207, Note_on_c, 4, 50, 0
6, 39207, Control_c, 4, 123, 0
6, 39243, Note_on_c, 4, 53, 118
6, 39266, Note_on_c, 4, 53, 0
6, 39266, Control_c, 4, 123, 0
6, 39298, Note_on_c, 4, 57, 100
6, 39327, Note_on_c, 4, 57, 0
6, 39327, Control_c, 4, 123, 0
6, 39661, Note_on_c, 4, 50, 97
6, 39719, Note_on_c, 4, 50, 0
6, 39719, Control_c, 4, 123, 0
6, 39724, Note_on_c, 4, 53, 83
6, 39746, Note_on_c, 4, 53, 0
6, 39746, Control_c, 4, 123, 0
6, 39784, Note_on_c, 4, 57, 113
6, 39809, Note_on_c, 4, 57, 0
6, 39810, Control_c, 4, 123, 0
6, 40139, Note_on_c, 4, 50, 100
6, 40170, Note_on_c, 4, 50, 0
6, 40170, Control_c, 4, 123, 0
6, 40204, Note_on_c, 4, 53, 73
6, 40230, Note_on_c, 4, 53, 0
6, 40230, Control_c, 4, 123, 0
6, 40259, Note_on_c, 4, 55, 109
6, 40286, Note_on_c, 4, 55, 0
6, 40286, Control_c, 4, 123, 0
6, 40619, Note_on_c, 4, 50, 71
6, 40669, Note_on_c, 4, 50, 0
6, 40669, Control_c, 4, 123, 0
6, 40679, Note_on_c, 4, 53, 106
6, 40708, Note_on_c, 4, 53, 0
6, 40708, Control_c, 4, 123, 0
6, 40743, Note_on_c, 4, 55, 106
6, 40766, Note_on_c, 4, 55, 0
6, 40766, Control_c, 4, 123, 0
6, 41218, Note_on_c, 4, 57, 69
6, 41248, Note_on_c, 4, 57, 0
6, 41248, Control_c, 4, 123, 0
6, 41576, Note_on_c, 4, 50, 103
6, 41608, Note_on_c, 4, 50, 0
6, 41608, Control_c, 4, 123, 0
6, 41636, Note_on_c, 4, 53, 106
6, 41665, Note_on_c, 4, 53, 0
6, 41665, Control_c, 4, 123, 0
6, 41698, Note_on_c, 4, 57, 100
6, 41728, Note_on_c, 4, 57, 0
6, 41728, Control_c, 4, 123, 0
6, 42059, Note_on_c, 4, 50, 95
6, 42089, Note_on_c, 4, 50, 0
6, 42089, Control_c, 4, 123, 0
6, 42120, Note_on_c, 4, 53, 95
6, 42148, Note_on_c, 4, 53, 0
6, 42148, Control_c, 4, 123, 0
6, 42181, Note_on_c, 4, 55, 106
6, 42208, Note_on_c, 4, 55, 0
6, 42208, Control_c, 4, 123, 0
6, 42538, Note_on_c, 4, 50, 80
6, 42563, Note_on_c, 4, 50, 0
6, 42563, Control_c, 4, 123, 0
6, 42603, Note_on_c, 4, 53, 83
6, 42625, Note_on_c, 4, 53, 0
6, 42625, Control_c, 4, 123, 0
6, 42655, Note_on_c, 4, 55, 66
6, 42675, Note_on_c, 4, 55, 0
6, 42675, Control_c, 4, 123, 0
6, 42718, Note_on_c, 4, 57, 100
6, 42835, Note_on_c, 4, 57, 0
6, 42835, Control_c, 4, 123, 0
6, 42838, Note_on_c, 4, 55, 97
6, 42891, Note_on_c, 4, 55, 0
6, 42892, Control_c, 4, 123, 0
6, 42902, Note_on_c, 4, 53, 95
6, 42927, Note_on_c, 4, 53, 0
6, 42927, Control_c, 4, 123, 0
6, 42964, Note_on_c, 4, 55, 97
6, 43023, Note_on_c, 4, 55, 0
6, 43023, Control_c, 4, 123, 0
6, 43025, Note_on_c, 4, 53, 118
6, 43286, Note_on_c, 4, 53, 0
6, 43286, Control_c, 4, 123, 0
6, 43682, Note_on_c, 4, 50, 126
6, 43811, Note_on_c, 4, 52, 90
6, 43812, Note_on_c, 4, 50, 0
6, 43833, Note_on_c, 4, 53, 106
6, 43835, Note_on_c, 4, 52, 0
6, 43862, Note_on_c, 4, 53, 0
6, 43862, Control_c, 4, 123, 0
6, 43864, Note_on_c, 4, 55, 79
6, 43889, Note_on_c, 4, 55, 0
6, 43889, Control_c, 4, 123, 0
6, 43889, Note_on_c, 4, 56, 118
6, 43914, Note_on_c, 4, 56, 0
6, 43914, Control_c, 4, 123, 0
6, 43919, Note_on_c, 4, 57, 106
6, 43935, Note_on_c, 4, 57, 0
6, 43935, Control_c, 4, 123, 0
6, 43949, Note_on_c, 4, 60, 118
6, 43967, Note_on_c, 4, 60, 0
6, 43967, Control_c, 4, 123, 0
6, 44013, Note_on_c, 4, 62, 109
6, 44034, Note_on_c, 4, 62, 0
6, 44034, Control_c, 4, 123, 0
6, 44079, Note_on_c, 4, 65, 100
6, 44100, Note_on_c, 4, 65, 0
6, 44100, Control_c, 4, 123, 0
6, 44137, Note_on_c, 4, 64, 126
6, 44193, Note_on_c, 4, 64, 0
6, 44193, Control_c, 4, 123, 0
6, 44193, Note_on_c, 4, 65, 69
6, 44225, Note_on_c, 4, 64, 68
6, 44229, Note_on_c, 4, 65, 0
6, 44243, Note_on_c, 4, 62, 79
6, 44249, Note_on_c, 4, 64, 0
6, 44268, Note_on_c, 4, 62, 0
6, 44269, Control_c, 4, 123, 0
6, 44280, Note_on_c, 4, 69, 117
6, 44359, Note_on_c, 4, 69, 0
6, 44360, Control_c, 4, 123, 0
6, 44436, Note_on_c, 4, 65, 126
6, 44457, Note_on_c, 4, 65, 0
6, 44457, Control_c, 4, 123, 0
6, 44466, Note_on_c, 4, 64, 59
6, 44491, Note_on_c, 4, 64, 0
6, 44491, Control_c, 4, 123, 0
6, 44494, Note_on_c, 4, 65, 83
6, 44521, Note_on_c, 4, 64, 60
6, 44523, Note_on_c, 4, 65, 0
6, 44551, Note_on_c, 4, 64, 0
6, 44552, Control_c, 4, 123, 0
6, 44553, Note_on_c, 4, 62, 97
6, 44580, Note_on_c, 4, 64, 82
6, 44588, Note_on_c, 4, 62, 0
6, 44600, Note_on_c, 4, 64, 0
6, 44600, Control_c, 4, 123, 0
6, 44910, Note_on_c, 4, 69, 95
6, 44939, Note_on_c, 4, 69, 0
6, 44939, Control_c, 4, 123, 0
6, 44939, Note_on_c, 4, 72, 118
6, 44966, Note_on_c, 4, 72, 0
6, 44966, Control_c, 4, 123, 0
6, 44970, Note_on_c, 4, 69, 100
6, 44997, Note_on_c, 4, 69, 0
6, 44997, Control_c, 4, 123, 0
6, 45030, Note_on_c, 4, 77, 126
6, 45050, Note_on_c, 4, 77, 0
6, 45050, Control_c, 4, 123, 0
6, 45090, Note_on_c, 4, 76, 117
6, 45152, Note_on_c, 4, 76, 0
6, 45152, Control_c, 4, 123, 0
6, 45152, Note_on_c, 4, 77, 71
6, 45185, Note_on_c, 4, 76, 95
6, 45190, Note_on_c, 4, 77, 0
6, 45215, Note_on_c, 4, 72, 77
6, 45216, Note_on_c, 4, 76, 0
6, 45242, Note_on_c, 4, 72, 0
6, 45242, Control_c, 4, 123, 0
6, 45278, Note_on_c, 4, 69, 74
6, 45279, Note_on_c, 4, 81, 109
6, 45287, Note_on_c, 4, 69, 0
6, 45333, Note_on_c, 4, 79, 109
6, 45338, Note_on_c, 4, 81, 0
6, 45363, Note_on_c, 4, 77, 106
6, 45370, Note_on_c, 4, 79, 0
6, 45385, Note_on_c, 4, 77, 0
6, 45385, Control_c, 4, 123, 0
6, 45392, Note_on_c, 4, 76, 84
6, 45413, Note_on_c, 4, 76, 0
6, 45414, Control_c, 4, 123, 0
6, 45421, Note_on_c, 4, 74, 127
6, 45438, Note_on_c, 4, 74, 0
6, 45438, Control_c, 4, 123, 0
6, 45450, Note_on_c, 4, 86, 117
6, 45544, Note_on_c, 4, 84, 126
6, 45550, Note_on_c, 4, 86, 0
6, 45567, Note_on_c, 4, 84, 0
6, 45567, Control_c, 4, 123, 0
6, 45577, Note_on_c, 4, 81, 109
6, 45653, Control_c, 4, 1, 127
6, 45755, Control_c, 4, 1, 0
6, 45775, Note_on_c, 4, 81, 0
6, 45775, Note_on_c, 4, 84, 118
6, 45801, Note_on_c, 4, 84, 0
6, 45801, Control_c, 4, 123, 0
6, 45806, Note_on_c, 4, 81, 103
6, 45847, Control_c, 4, 1, 127
6, 45990, Control_c, 4, 1, 0
6, 46006, Note_on_c, 4, 81, 0
6, 46006, Control_c, 4, 123, 0
6, 46199, Note_on_c, 4, 62, 95
6, 46228, Note_on_c, 4, 64, 82
6, 46236, Note_on_c, 4, 62, 0
6, 46248, Note_on_c, 4, 64, 0
6, 46248, Control_c, 4, 123, 0
6, 46259, Note_on_c, 4, 65, 42
6, 46280, Note_on_c, 4, 65, 0
6, 46280, Control_c, 4, 123, 0
6, 46287, Note_on_c, 4, 69, 97
6, 46316, Note_on_c, 4, 67, 106
6, 46319, Note_on_c, 4, 69, 0
6, 46345, Note_on_c, 4, 65, 100
6, 46358, Note_on_c, 4, 67, 0
6, 46376, Note_on_c, 4, 65, 0
6, 46376, Control_c, 4, 123, 0
6, 46376, Note_on_c, 4, 64, 71
6, 46399, Note_on_c, 4, 64, 0
6, 46399, Control_c, 4, 123, 0
6, 46407, Note_on_c, 4, 67, 90
6, 46438, Note_on_c, 4, 65, 112
6, 46445, Note_on_c, 4, 67, 0
6, 46468, Note_on_c, 4, 64, 71
6, 46472, Note_on_c, 4, 65, 0
6, 46497, Note_on_c, 4, 62, 74
6, 46501, Note_on_c, 4, 64, 0
6, 46526, Note_on_c, 4, 62, 0
6, 46526, Control_c, 4, 123, 0
6, 46529, Note_on_c, 4, 65, 100
6, 46558, Note_on_c, 4, 62, 113
6, 46566, Note_on_c, 4, 65, 0
6, 46587, Note_on_c, 4, 60, 60
6, 46596, Note_on_c, 4, 62, 0
6, 46614, Note_on_c, 4, 57, 74
6, 46619, Note_on_c, 4, 60, 0
6, 46640, Note_on_c, 4, 57, 0
6, 46640, Control_c, 4, 123, 0
6, 46647, Note_on_c, 4, 62, 100
6, 46677, Note_on_c, 4, 60, 118
6, 46685, Note_on_c, 4, 62, 0
6, 46706, Note_on_c, 4, 57, 82
6, 46707, Note_on_c, 4, 60, 0
6, 46739, Note_on_c, 4, 55, 84
6, 46743, Note_on_c, 4, 57, 0
6, 46767, Note_on_c, 4, 60, 106
6, 46770, Note_on_c, 4, 55, 0
6, 46798, Note_on_c, 4, 57, 103
6, 46807, Note_on_c, 4, 60, 0
6, 46828, Note_on_c, 4, 55, 74
6, 46837, Note_on_c, 4, 57, 0
6, 46853, Note_on_c, 4, 53, 73
6, 46857, Note_on_c, 4, 55, 0
6, 46883, Note_on_c, 4, 53, 0
6, 46883, Control_c, 4, 123, 0
6, 46887, Note_on_c, 4, 57, 103
6, 46918, Note_on_c, 4, 55, 109
6, 46927, Note_on_c, 4, 57, 0
6, 46948, Note_on_c, 4, 53, 86
6, 46954, Note_on_c, 4, 55, 0
6, 46976, Note_on_c, 4, 50, 92
6, 46978, Note_on_c, 4, 53, 0
6, 46996, Note_on_c, 4, 50, 0
6, 46996, Control_c, 4, 123, 0
6, 47006, Note_on_c, 4, 55, 90
6, 47034, Note_on_c, 4, 53, 112
6, 47045, Note_on_c, 4, 55, 0
6, 47066, Note_on_c, 4, 50, 100
6, 47069, Note_on_c, 4, 53, 0
6, 47095, Note_on_c, 4, 48, 90
6, 47101, Note_on_c, 4, 50, 0
6, 47122, Note_on_c, 4, 48, 0
6, 47122, Control_c, 4, 123, 0
6, 47127, Note_on_c, 4, 53, 106
6, 47156, Note_on_c, 4, 50, 122
6, 47166, Note_on_c, 4, 53, 0
6, 47191, Note_on_c, 4, 48, 106
6, 47194, Note_on_c, 4, 50, 0
6, 47218, Note_on_c, 4, 48, 0
6, 47218, Control_c, 4, 123, 0
6, 47220, Note_on_c, 4, 45, 95
6, 47238, Note_on_c, 4, 45, 0
6, 47238, Control_c, 4, 123, 0
6, 47249, Note_on_c, 4, 50, 100
6, 47279, Note_on_c, 4, 48, 112
6, 47287, Note_on_c, 4, 50, 0
6, 47306, Note_on_c, 4, 48, 0
6, 47306, Control_c, 4, 123, 0
6, 47309, Note_on_c, 4, 45, 95
6, 47344, Note_on_c, 4, 45, 0
6, 47344, Note_on_c, 4, 43, 84
6, 47366, Note_on_c, 4, 43, 0
6, 47366, Control_c, 4, 123, 0
6, 47368, Note_on_c, 4, 48, 106
6, 47401, Note_on_c, 4, 45, 113
6, 47413, Note_on_c, 4, 48, 0
6, 47430, Note_on_c, 4, 43, 76
6, 47442, Note_on_c, 4, 45, 0
6, 47457, Note_on_c, 4, 41, 90
6, 47459, Note_on_c, 4, 43, 0
6, 47474, Note_on_c, 4, 41, 0
6, 47474, Control_c, 4, 123, 0
6, 47584, Note_on_c, 4, 50, 80
6, 47610, Note_on_c, 4, 52, 56
6, 47613, Note_on_c, 4, 50, 0
6, 47645, Note_on_c, 4, 53, 90
6, 47650, Note_on_c, 4, 52, 0
6, 47670, Note_on_c, 4, 53, 0
6, 47670, Control_c, 4, 123, 0
6, 47672, Note_on_c, 4, 55, 84
6, 47702, Note_on_c, 4, 56, 126
6, 47703, Note_on_c, 4, 55, 0
6, 47725, Note_on_c, 4, 56, 0
6, 47725, Control_c, 4, 123, 0
6, 47727, Note_on_c, 4, 57, 63
6, 47760, Note_on_c, 4, 57, 0
6, 47760, Control_c, 4, 123, 0
6, 47760, Note_on_c, 4, 60, 90
6, 47783, Note_on_c, 4, 60, 0
6, 47783, Control_c, 4, 123, 0
6, 47794, Note_on_c, 4, 62, 90
6, 47812, Note_on_c, 4, 62, 0
6, 47812, Control_c, 4, 123, 0
6, 47825, Note_on_c, 4, 64, 84
6, 47852, Note_on_c, 4, 65, 126
6, 47856, Note_on_c, 4, 64, 0
6, 47911, Note_on_c, 4, 65, 0
6, 47911, Control_c, 4, 123, 0
6, 47913, Note_on_c, 4, 69, 90
6, 47913, Note_on_c, 4, 67, 82
6, 47918, Note_on_c, 4, 69, 0
6, 47939, Note_on_c, 4, 67, 0
6, 47939, Control_c, 4, 123, 0
6, 47940, Note_on_c, 4, 68, 95
6, 47970, Note_on_c, 4, 68, 0
6, 47970, Control_c, 4, 123, 0
6, 47973, Note_on_c, 4, 69, 113
6, 48028, Note_on_c, 4, 72, 90
6, 48037, Note_on_c, 4, 69, 0
6, 48060, Note_on_c, 4, 72, 0
6, 48060, Control_c, 4, 123, 0
6, 48063, Note_on_c, 4, 74, 117
6, 48265, Note_on_c, 4, 81, 82
6, 48266, Note_on_c, 4, 74, 0
6, 48300, Note_on_c, 4, 79, 122
6, 48304, Note_on_c, 4, 81, 0
6, 48328, Note_on_c, 4, 77, 112
6, 48339, Note_on_c, 4, 79, 0
6, 48357, Note_on_c, 4, 76, 69
6, 48359, Note_on_c, 4, 77, 0
6, 48390, Note_on_c, 4, 74, 113
6, 48395, Note_on_c, 4, 76, 0
6, 48448, Note_on_c, 4, 74, 0
6, 48448, Control_c, 4, 123, 0
6, 48450, Note_on_c, 4, 79, 113
6, 48510, Note_on_c, 4, 77, 100
6, 48522, Note_on_c, 4, 79, 0
6, 48540, Note_on_c, 4, 76, 68
6, 48543, Note_on_c, 4, 77, 0
6, 48567, Note_on_c, 4, 76, 0
6, 48567, Control_c, 4, 123, 0
6, 48570, Note_on_c, 4, 74, 86
6, 48599, Note_on_c, 4, 74, 0
6, 48599, Control_c, 4, 123, 0
6, 48602, Note_on_c, 4, 79, 109
6, 48630, Note_on_c, 4, 77, 100
6, 48641, Note_on_c, 4, 79, 0
6, 48664, Note_on_c, 4, 76, 66
6, 48666, Note_on_c, 4, 77, 0
6, 48693, Note_on_c, 4, 74, 88
6, 48701, Note_on_c, 4, 76, 0
6, 48722, Note_on_c, 4, 74, 0
6, 48722, Control_c, 4, 123, 0
6, 48725, Note_on_c, 4, 79, 113
6, 48752, Note_on_c, 4, 77, 112
6, 48761, Note_on_c, 4, 79, 0
6, 48778, Note_on_c, 4, 77, 0
6, 48778, Control_c, 4, 123, 0
6, 48783, Note_on_c, 4, 76, 61
6, 48808, Note_on_c, 4, 74, 95
6, 48816, Note_on_c, 4, 76, 0
6, 48836, Note_on_c, 4, 74, 0
6, 48836, Control_c, 4, 123, 0
6, 48839, Note_on_c, 4, 77, 112
6, 48870, Note_on_c, 4, 74, 103
6, 48877, Note_on_c, 4, 77, 0
6, 48899, Note_on_c, 4, 72, 48
6, 48905, Note_on_c, 4, 74, 0
6, 48923, Note_on_c, 4, 69, 61
6, 48931, Note_on_c, 4, 72, 0
6, 48957, Note_on_c, 4, 77, 106
6, 48959, Note_on_c, 4, 69, 0
6, 48987, Note_on_c, 4, 74, 127
6, 48995, Note_on_c, 4, 77, 0
6, 49018, Note_on_c, 4, 72, 57
6, 49027, Note_on_c, 4, 74, 0
6, 49048, Note_on_c, 4, 69, 73
6, 49054, Note_on_c, 4, 72, 0
6, 49078, Note_on_c, 4, 69, 0
6, 49078, Control_c, 4, 123, 0
6, 49083, Note_on_c, 4, 77, 95
6, 49098, Note_on_c, 4, 74, 122
6, 49103, Note_on_c, 4, 77, 0
6, 49109, Note_on_c, 4, 72, 63
6, 49117, Note_on_c, 4, 74, 0
6, 49128, Note_on_c, 4, 69, 73
6, 49131, Note_on_c, 4, 72, 0
6, 49149, Note_on_c, 4, 69, 0
6, 49149, Note_on_c, 4, 77, 90
6, 49160, Note_on_c, 4, 74, 126
6, 49168, Note_on_c, 4, 77, 0
6, 49175, Note_on_c, 4, 72, 49
6, 49179, Note_on_c, 4, 74, 0
6, 49187, Note_on_c, 4, 69, 69
6, 49194, Note_on_c, 4, 72, 0
6, 49205, Note_on_c, 4, 77, 90
6, 49207, Note_on_c, 4, 69, 0
6, 49220, Note_on_c, 4, 74, 90
6, 49227, Note_on_c, 4, 77, 0
6, 49231, Note_on_c, 4, 72, 61
6, 49238, Note_on_c, 4, 74, 0
6, 49245, Note_on_c, 4, 69, 77
6, 49250, Note_on_c, 4, 72, 0
6, 49260, Note_on_c, 4, 77, 83
6, 49264, Note_on_c, 4, 69, 0
6, 49273, Note_on_c, 4, 74, 117
6, 49280, Note_on_c, 4, 77, 0
6, 49292, Note_on_c, 4, 72, 61
6, 49295, Note_on_c, 4, 74, 0
6, 49307, Note_on_c, 4, 69, 77
6, 49312, Note_on_c, 4, 72, 0
6, 49321, Note_on_c, 4, 77, 100
6, 49325, Note_on_c, 4, 69, 0
6, 49337, Note_on_c, 4, 74, 103
6, 49343, Note_on_c, 4, 77, 0
6, 49352, Note_on_c, 4, 72, 51
6, 49356, Note_on_c, 4, 74, 0
6, 49366, Note_on_c, 4, 69, 71
6, 49372, Note_on_c, 4, 72, 0
6, 49383, Note_on_c, 4, 77, 83
6, 49386, Note_on_c, 4, 69, 0
6, 49397, Note_on_c, 4, 74, 109
6, 49405, Note_on_c, 4, 77, 0
6, 49413, Note_on_c, 4, 72, 65
6, 49418, Note_on_c, 4, 74, 0
6, 49429, Note_on_c, 4, 69, 77
6, 49432, Note_on_c, 4, 72, 0
6, 49443, Note_on_c, 4, 77, 100
6, 49448, Note_on_c, 4, 69, 0
6, 49462, Note_on_c, 4, 74, 100
6, 49465, Note_on_c, 4, 77, 0
6, 49473, Note_on_c, 4, 72, 54
6, 49479, Note_on_c, 4, 74, 0
6, 49490, Note_on_c, 4, 69, 74
6, 49493, Note_on_c, 4, 72, 0
6, 49501, Note_on_c, 4, 77, 65
6, 49506, Note_on_c, 4, 69, 0
6, 49515, Note_on_c, 4, 74, 100
6, 49521, Note_on_c, 4, 77, 0
6, 49533, Note_on_c, 4, 72, 61
6, 49535, Note_on_c, 4, 74, 0
6, 49547, Note_on_c, 4, 69, 80
6, 49553, Note_on_c, 4, 72, 0
6, 49561, Note_on_c, 4, 77, 106
6, 49566, Note_on_c, 4, 69, 0
6, 49578, Note_on_c, 4, 74, 122
6, 49583, Note_on_c, 4, 77, 0
6, 49593, Note_on_c, 4, 72, 55
6, 49597, Note_on_c, 4, 74, 0
6, 49607, Note_on_c, 4, 69, 71
6, 49615, Note_on_c, 4, 72, 0
6, 49625, Note_on_c, 4, 77, 90
6, 49628, Note_on_c, 4, 69, 0
6, 49635, Note_on_c, 4, 74, 117
6, 49644, Note_on_c, 4, 77, 0
6, 49654, Note_on_c, 4, 72, 65
6, 49655, Note_on_c, 4, 74, 0
6, 49665, Note_on_c, 4, 69, 65
6, 49673, Note_on_c, 4, 72, 0
6, 49682, Note_on_c, 4, 77, 86
6, 49687, Note_on_c, 4, 69, 0
6, 49695, Note_on_c, 4, 74, 103
6, 49703, Note_on_c, 4, 77, 0
6, 49710, Note_on_c, 4, 72, 69
6, 49714, Note_on_c, 4, 74, 0
6, 49729, Note_on_c, 4, 69, 79
6, 49732, Note_on_c, 4, 72, 0
6, 49740, Note_on_c, 4, 77, 95
6, 49746, Note_on_c, 4, 69, 0
6, 49755, Note_on_c, 4, 74, 109
6, 49760, Note_on_c, 4, 77, 0
6, 49769, Note_on_c, 4, 72, 56
6, 49774, Note_on_c, 4, 74, 0
6, 49783, Note_on_c, 4, 69, 73
6, 49788, Note_on_c, 4, 72, 0
6, 49800, Note_on_c, 4, 77, 83
6, 49804, Note_on_c, 4, 69, 0
6, 49815, Note_on_c, 4, 74, 117
6, 49820, Note_on_c, 4, 77, 0
6, 49823, Note_on_c, 4, 72, 59
6, 49833, Note_on_c, 4, 74, 0
6, 49842, Note_on_c, 4, 69, 77
6, 49847, Note_on_c, 4, 72, 0
6, 49860, Note_on_c, 4, 77, 80
6, 49862, Note_on_c, 4, 69, 0
6, 49874, Note_on_c, 4, 74, 117
6, 49879, Note_on_c, 4, 77, 0
6, 49885, Note_on_c, 4, 72, 51
6, 49893, Note_on_c, 4, 74, 0
6, 49898, Note_on_c, 4, 69, 74
6, 49906, Note_on_c, 4, 72, 0
6, 49917, Note_on_c, 4, 77, 80
6, 49920, Note_on_c, 4, 69, 0
6, 49934, Note_on_c, 4, 74, 106
6, 49938, Note_on_c, 4, 77, 0
6, 49943, Note_on_c, 4, 72, 63
6, 49953, Note_on_c, 4, 74, 0
6, 49960, Note_on_c, 4, 69, 80
6, 49967, Note_on_c, 4, 72, 0
6, 49980, Note_on_c, 4, 69, 0
6, 49980, Control_c, 4, 123, 0
6, 49982, Note_on_c, 4, 77, 83
6, 49991, Note_on_c, 4, 74, 113
6, 50001, Note_on_c, 4, 77, 0
6, 50008, Note_on_c, 4, 72, 47
6, 50013, Note_on_c, 4, 74, 0
6, 50024, Note_on_c, 4, 69, 79
6, 50030, Note_on_c, 4, 72, 0
6, 50042, Note_on_c, 4, 77, 95
6, 50044, Note_on_c, 4, 69, 0
6, 50060, Note_on_c, 4, 74, 106
6, 50062, Note_on_c, 4, 77, 0
6, 50071, Note_on_c, 4, 72, 61
6, 50076, Note_on_c, 4, 74, 0
6, 50088, Note_on_c, 4, 69, 77
6, 50093, Note_on_c, 4, 72, 0
6, 50101, Note_on_c, 4, 77, 106
6, 50107, Note_on_c, 4, 69, 0
6, 50117, Note_on_c, 4, 74, 109
6, 50118, Note_on_c, 4, 77, 0
6, 50127, Note_on_c, 4, 72, 75
6, 50134, Note_on_c, 4, 74, 0
6, 50143, Note_on_c, 4, 69, 79
6, 50147, Note_on_c, 4, 72, 0
6, 50159, Note_on_c, 4, 77, 69
6, 50160, Note_on_c, 4, 69, 0
6, 50170, Note_on_c, 4, 74, 126
6, 50176, Note_on_c, 4, 77, 0
6, 50182, Note_on_c, 4, 72, 77
6, 50191, Note_on_c, 4, 74, 0
6, 50200, Note_on_c, 4, 69, 88
6, 50205, Note_on_c, 4, 72, 0
6, 50216, Note_on_c, 4, 77, 86
6, 50218, Note_on_c, 4, 69, 0
6, 50231, Note_on_c, 4, 74, 100
6, 50236, Note_on_c, 4, 77, 0
6, 50242, Note_on_c, 4, 72, 65
6, 50250, Note_on_c, 4, 74, 0
6, 50258, Note_on_c, 4, 69, 76
6, 50264, Note_on_c, 4, 72, 0
6, 50276, Note_on_c, 4, 77, 106
6, 50278, Note_on_c, 4, 69, 0
6, 50296, Note_on_c, 4, 77, 0
6, 50296, Note_on_c, 4, 74, 100
6, 50303, Note_on_c, 4, 72, 73
6, 50312, Note_on_c, 4, 74, 0
6, 50323, Note_on_c, 4, 69, 76
6, 50327, Note_on_c, 4, 72, 0
6, 50336, Note_on_c, 4, 77, 95
6, 50341, Note_on_c, 4, 69, 0
6, 50351, Note_on_c, 4, 74, 109
6, 50357, Note_on_c, 4, 77, 0
6, 50364, Note_on_c, 4, 72, 86
6, 50367, Note_on_c, 4, 74, 0
6, 50376, Note_on_c, 4, 69, 95
6, 50381, Note_on_c, 4, 72, 0
6, 50399, Note_on_c, 4, 69, 0
6, 50399, Control_c, 4, 123, 0
6, 50436, Note_on_c, 4, 86, 113
6, 50819, Note_on_c, 4, 86, 0
6, 50819, Control_c, 4, 123, 0
6, 50913, Note_on_c, 4, 84, 118
6, 50943, Note_on_c, 4, 81, 109
6, 50946, Note_on_c, 4, 84, 0
6, 50966, Note_on_c, 4, 81, 0
6, 50966, Control_c, 4, 123, 0
6, 50975, Note_on_c, 4, 79, 76
6, 50999, Note_on_c, 4, 77, 50
6, 51005, Note_on_c, 4, 79, 0
6, 51027, Note_on_c, 4, 77, 0
6, 51027, Control_c, 4, 123, 0
6, 51033, Note_on_c, 4, 81, 84
6, 51063, Note_on_c, 4, 79, 113
6, 51069, Note_on_c, 4, 81, 0
6, 51088, Note_on_c, 4, 79, 0
6, 51088, Control_c, 4, 123, 0
6, 51094, Note_on_c, 4, 77, 53
6, 51124, Note_on_c, 4, 74, 97
6, 51126, Note_on_c, 4, 77, 0
6, 51144, Note_on_c, 4, 74, 0
6, 51144, Control_c, 4, 123, 0
6, 51153, Note_on_c, 4, 79, 90
6, 51183, Note_on_c, 4, 77, 106
6, 51188, Note_on_c, 4, 79, 0
6, 51206, Note_on_c, 4, 77, 0
6, 51206, Control_c, 4, 123, 0
6, 51215, Note_on_c, 4, 74, 86
6, 51244, Note_on_c, 4, 72, 73
6, 51250, Note_on_c, 4, 74, 0
6, 51270, Note_on_c, 4, 72, 0
6, 51270, Control_c, 4, 123, 0
6, 51272, Note_on_c, 4, 77, 112
6, 51302, Note_on_c, 4, 74, 127
6, 51304, Note_on_c, 4, 77, 0
6, 51323, Note_on_c, 4, 74, 0
6, 51324, Control_c, 4, 123, 0
6, 51331, Note_on_c, 4, 72, 100
6, 51351, Note_on_c, 4, 72, 0
6, 51351, Control_c, 4, 123, 0
6, 51360, Control_c, 4, 7, 120
6, 51404, Control_c, 4, 7, 119
6, 51448, Control_c, 4, 7, 118
6, 51492, Control_c, 4, 7, 117
6, 51536, Control_c, 4, 7, 116
6, 51580, Control_c, 4, 7, 115
6, 51624, Control_c, 4, 7, 114
6, 51668, Control_c, 4, 7, 113
6, 51712, Control_c, 4, 7, 112
6, 51756, Control_c, 4, 7, 111
6, 51800, Control_c, 4, 7, 110
6, 51844, Control_c, 4, 7, 109
6, 51888, Control_c, 4, 7, 108
6, 51932, Control_c, 4, 7, 107
6, 51976, Control_c, 4, 7, 106
6, 52020, Control_c, 4, 7, 105
6, 52064, Control_c, 4, 7, 104
6, 52108, Control_c, 4, 7, 103
6, 52140, Note_on_c, 4, 50, 100
6, 52152, Control_c, 4, 7, 102
6, 52168, Note_on_c, 4, 50, 0
6, 52168, Control_c, 4, 123, 0
6, 52196, Control_c, 4, 7, 101
6, 52198, Note_on_c, 4, 53, 100
6, 52222, Note_on_c, 4, 53, 0
6, 52222, Control_c, 4, 123, 0
6, 52240, Control_c, 4, 7, 100
6, 52260, Note_on_c, 4, 55, 100
6, 52284, Note_on_c, 4, 55, 0
6, 52284, Control_c, 4, 7, 99
6, 52284, Control_c, 4, 123, 0
6, 52328, Control_c, 4, 7, 98
6, 52372, Control_c, 4, 7, 97
6, 52416, Control_c, 4, 7, 96
6, 52460, Control_c, 4, 7, 95
6, 52504, Control_c, 4, 7, 94
6, 52548, Control_c, 4, 7, 93
6, 52592, Control_c, 4, 7, 92
6, 52619, Note_on_c, 4, 50, 88
6, 52636, Control_c, 4, 7, 91
6, 52644, Note_on_c, 4, 50, 0
6, 52644, Control_c, 4, 123, 0
6, 52677, Note_on_c, 4, 53, 83
6, 52680, Control_c, 4, 7, 90
6, 52701, Note_on_c, 4, 53, 0
6, 52701, Control_c, 4, 123, 0
6, 52724, Control_c, 4, 7, 89
6, 52737, Note_on_c, 4, 55, 82
6, 52761, Note_on_c, 4, 55, 0
6, 52761, Control_c, 4, 123, 0
6, 52768, Control_c, 4, 7, 88
6, 52798, Note_on_c, 4, 57, 100
6, 52812, Control_c, 4, 7, 87
6, 52856, Control_c, 4, 7, 86
6, 52900, Control_c, 4, 7, 85
6, 52922, Note_on_c, 4, 55, 95
6, 52927, Note_on_c, 4, 57, 0
6, 52944, Control_c, 4, 7, 84
6, 52985, Note_on_c, 4, 53, 90
6, 52987, Note_on_c, 4, 55, 0
6, 52988, Control_c, 4, 7, 83
6, 53032, Control_c, 4, 7, 82
6, 53033, Note_on_c, 4, 53, 0
6, 53033, Control_c, 4, 123, 0
6, 53040, Note_on_c, 4, 55, 95
6, 53076, Control_c, 4, 7, 81
6, 53100, Note_on_c, 4, 50, 100
6, 53112, Note_on_c, 4, 55, 0
6, 53120, Control_c, 4, 7, 80
6, 53158, Note_on_c, 4, 53, 100
6, 53164, Control_c, 4, 7, 79
6, 53172, Note_on_c, 4, 50, 0
6, 53184, Note_on_c, 4, 53, 0
6, 53184, Control_c, 4, 123, 0
6, 53208, Control_c, 4, 7, 78
6, 53217, Note_on_c, 4, 57, 106
6, 53242, Note_on_c, 4, 57, 0
6, 53242, Control_c, 4, 123, 0
6, 53252, Control_c, 4, 7, 77
6, 53296, Control_c, 4, 7, 76
6, 53340, Control_c, 4, 7, 75
6, 53384, Control_c, 4, 7, 74
6, 53428, Control_c, 4, 7, 73
6, 53472, Control_c, 4, 7, 72
6, 53516, Control_c, 4, 7, 71
6, 53560, Control_c, 4, 7, 70
6, 53582, Note_on_c, 4, 50, 80
6, 53604, Control_c, 4, 7, 69
6, 53639, Note_on_c, 4, 53, 100
6, 53648, Control_c, 4, 7, 68
6, 53652, Note_on_c, 4, 50, 0
6, 53673, Note_on_c, 4, 53, 0
6, 53673, Control_c, 4, 123, 0
6, 53692, Control_c, 4, 7, 67
6, 53698, Note_on_c, 4, 57, 100
6, 53727, Note_on_c, 4, 57, 0
6, 53727, Control_c, 4, 123, 0
6, 53736, Control_c, 4, 7, 66
6, 53780, Control_c, 4, 7, 65
6, 53824, Control_c, 4, 7, 64
6, 53868, Control_c, 4, 7, 63
6, 53912, Control_c, 4, 7, 62
6, 53956, Control_c, 4, 7, 61
6, 54000, Control_c, 4, 7, 60
6, 54044, Control_c, 4, 7, 59
6, 54060, Note_on_c, 4, 50, 92
6, 54088, Control_c, 4, 7, 58
6, 54096, Note_on_c, 4, 50, 0
6, 54096, Control_c, 4, 123, 0
6, 54120, Note_on_c, 4, 53, 95
6, 54132, Control_c, 4, 7, 57
6, 54147, Note_on_c, 4, 53, 0
6, 54147, Control_c, 4, 123, 0
6, 54176, Control_c, 4, 7, 56
6, 54180, Note_on_c, 4, 55, 103
6, 54204, Note_on_c, 4, 55, 0
6, 54204, Control_c, 4, 123, 0
6, 54220, Control_c, 4, 7, 55
6, 54264, Control_c, 4, 7, 54
6, 54308, Control_c, 4, 7, 53
6, 54352, Control_c, 4, 7, 52
6, 54396, Control_c, 4, 7, 51
6, 54440, Control_c, 4, 7, 50
6, 54484, Control_c, 4, 7, 49
6, 54528, Control_c, 4, 7, 48
6, 54539, Note_on_c, 4, 50, 76
6, 54570, Note_on_c, 4, 50, 0
6, 54570, Control_c, 4, 123, 0
6, 54572, Control_c, 4, 7, 47
6, 54598, Note_on_c, 4, 53, 86
6, 54616, Control_c, 4, 7, 46
6, 54621, Note_on_c, 4, 53, 0
6, 54621, Control_c, 4, 123, 0
6, 54658, Note_on_c, 4, 55, 88
6, 54660, Control_c, 4, 7, 45
6, 54684, Note_on_c, 4, 55, 0
6, 54684, Control_c, 4, 123, 0
6, 54704, Control_c, 4, 7, 44
6, 54718, Note_on_c, 4, 57, 100
6, 54748, Control_c, 4, 7, 43
6, 54792, Control_c, 4, 7, 42
6, 54836, Control_c, 4, 7, 41
6, 54843, Note_on_c, 4, 57, 0
6, 54844, Control_c, 4, 123, 0
6, 54844, Note_on_c, 4, 55, 100
6, 54880, Control_c, 4, 7, 40
6, 54891, Note_on_c, 4, 55, 0
6, 54892, Control_c, 4, 123, 0
6, 54902, Note_on_c, 4, 53, 95
6, 54924, Control_c, 4, 7, 39
6, 54926, Note_on_c, 4, 53, 0
6, 54926, Control_c, 4, 123, 0
6, 54960, Note_on_c, 4, 55, 95
6, 54968, Control_c, 4, 7, 38
6, 54995, Note_on_c, 4, 55, 0
6, 54996, Control_c, 4, 123, 0
6, 55012, Control_c, 4, 7, 37
6, 55022, Note_on_c, 4, 53, 112
6, 55056, Control_c, 4, 7, 36
6, 55100, Control_c, 4, 7, 35
6, 55144, Control_c, 4, 7, 34
6, 55188, Control_c, 4, 7, 33
6, 55232, Control_c, 4, 7, 32
6, 55276, Control_c, 4, 7, 31
6, 55320, Control_c, 4, 7, 30
6, 55364, Control_c, 4, 7, 29
6, 55408, Control_c, 4, 7, 28
6, 55452, Control_c, 4, 7, 27
6, 55496, Control_c, 4, 7, 26
6, 55540, Control_c, 4, 7, 25
6, 55584, Control_c, 4, 7, 24
6, 55628, Control_c, 4, 7, 23
6, 55637, Note_on_c, 4, 53, 0
6, 55637, Control_c, 4, 123, 0
6, 55672, Control_c, 4, 7, 22
6, 55716, Control_c, 4, 7, 21
6, 55760, Control_c, 4, 7, 20
6, 55804, Control_c, 4, 7, 19
6, 55848, Control_c, 4, 7, 18
6, 55892, Control_c, 4, 7, 17
6, 55936, Control_c, 4, 7, 16
6, 55980, Control_c, 4, 7, 15
6, 56024, Control_c, 4, 7, 14
6, 56068, Control_c, 4, 7, 13
6, 56112, Control_c, 4, 7, 12
6, 56156, Control_c, 4, 7, 11
6, 56200, Control_c, 4, 7, 10
6, 56244, Control_c, 4, 7, 9
6, 56288, Control_c, 4, 7, 8
6, 56332, Control_c, 4, 7, 7
6, 56376, Control_c, 4, 7, 6
6, 56420, Control_c, 4, 7, 5
6, 56464, Control_c, 4, 7, 4
6, 56508, Control_c, 4, 7, 3
6, 56552, Control_c, 4, 7, 2
6, 56596, Control_c, 4, 7, 1
6, 56640, Control_c, 4, 7, 0
6, 56640, End_track
7, 0, Start_track
7, 0, MIDI_port, 0
7, 0, Title_t, "............................"
7, 0, Program_c, 5, 48
7, 0, Control_c, 5, 7, 70
7, 4081, Note_on_c, 5, 64, 74
7, 4082, Note_on_c, 5, 60, 79
7, 4083, Note_on_c, 5, 57, 68
7, 4083, Note_on_c, 5, 53, 67
7, 4317, Note_on_c, 5, 64, 0
7, 4317, Note_on_c, 5, 60, 0
7, 4318, Note_on_c, 5, 53, 0
7, 4320, Note_on_c, 5, 57, 0
7, 4320, Control_c, 5, 123, 0
7, 4560, Note_on_c, 5, 57, 79
7, 4560, Note_on_c, 5, 64, 74
7, 4560, Note_on_c, 5, 60, 84
7, 4561, Note_on_c, 5, 53, 76
7, 4787, Note_on_c, 5, 57, 0
7, 4787, Note_on_c, 5, 53, 0
7, 4793, Note_on_c, 5, 60, 0
7, 4795, Note_on_c, 5, 64, 0
7, 4795, Control_c, 5, 123, 0
7, 5038, Note_on_c, 5, 58, 65
7, 5038, Note_on_c, 5, 62, 71
7, 5038, Note_on_c, 5, 65, 67
7, 5039, Note_on_c, 5, 55, 74
7, 5282, Note_on_c, 5, 58, 0
7, 5282, Note_on_c, 5, 55, 0
7, 5284, Note_on_c, 5, 62, 0
7, 5284, Note_on_c, 5, 65, 0
7, 5284, Control_c, 5, 123, 0
7, 5515, Note_on_c, 5, 55, 64
7, 5515, Note_on_c, 5, 65, 57
7, 5516, Note_on_c, 5, 58, 64
7, 5516, Note_on_c, 5, 62, 63
7, 5519, Note_on_c, 5, 64, 68
7, 5520, Note_on_c, 5, 67, 86
7, 5523, Note_on_c, 5, 64, 0
7, 5745, Note_on_c, 5, 67, 0
7, 5748, Note_on_c, 5, 65, 0
7, 5748, Note_on_c, 5, 62, 0
7, 5750, Note_on_c, 5, 58, 0
7, 5754, Note_on_c, 5, 55, 0
7, 5754, Control_c, 5, 123, 0
7, 5996, Note_on_c, 5, 60, 86
7, 5996, Note_on_c, 5, 64, 72
7, 5996, Note_on_c, 5, 57, 76
7, 5999, Note_on_c, 5, 53, 73
7, 6246, Note_on_c, 5, 60, 0
7, 6247, Note_on_c, 5, 64, 0
7, 6247, Note_on_c, 5, 57, 0
7, 6247, Note_on_c, 5, 53, 0
7, 6247, Control_c, 5, 123, 0
7, 6482, Note_on_c, 5, 64, 74
7, 6482, Note_on_c, 5, 60, 86
7, 6483, Note_on_c, 5, 57, 84
7, 6483, Note_on_c, 5, 53, 84
7, 6713, Note_on_c, 5, 60, 0
7, 6713, Note_on_c, 5, 57, 0
7, 6713, Note_on_c, 5, 53, 0
7, 6719, Note_on_c, 5, 64, 0
7, 6719, Control_c, 5, 123, 0
7, 6960, Note_on_c, 5, 62, 68
7, 6960, Note_on_c, 5, 65, 69
7, 6961, Note_on_c, 5, 58, 71
7, 6962, Note_on_c, 5, 55, 84
7, 7203, Note_on_c, 5, 58, 0
7, 7207, Note_on_c, 5, 55, 0
7, 7210, Note_on_c, 5, 62, 0
7, 7212, Note_on_c, 5, 65, 0
7, 7212, Control_c, 5, 123, 0
7, 7432, Note_on_c, 5, 62, 76
7, 7433, Note_on_c, 5, 67, 76
7, 7433, Note_on_c, 5, 65, 73
7, 7433, Note_on_c, 5, 58, 73
7, 7436, Note_on_c, 5, 55, 90
7, 7640, Note_on_c, 5, 67, 0
7, 7647, Note_on_c, 5, 62, 0
7, 7647, Note_on_c, 5, 65, 0
7, 7651, Note_on_c, 5, 58, 0
7, 7663, Note_on_c, 5, 55, 0
7, 7663, Control_c, 5, 123, 0
7, 7918, Note_on_c, 5, 64, 77
7, 7918, Note_on_c, 5, 60, 82
7, 7918, Note_on_c, 5, 57, 77
7, 7919, Note_on_c, 5, 53, 76
7, 8156, Note_on_c, 5, 53, 0
7, 8157, Note_on_c, 5, 64, 0
7, 8157, Note_on_c, 5, 60, 0
7, 8157, Note_on_c, 5, 57, 0
7, 8157, Control_c, 5, 123, 0
7, 8399, Note_on_c, 5, 57, 77
7, 8400, Note_on_c, 5, 60, 80
7, 8400, Note_on_c, 5, 64, 73
7, 8400, Note_on_c, 5, 53, 76
7, 8637, Note_on_c, 5, 57, 0
7, 8637, Note_on_c, 5, 53, 0
7, 8639, Note_on_c, 5, 60, 0
7, 8642, Note_on_c, 5, 64, 0
7, 8642, Control_c, 5, 123, 0
7, 8880, Note_on_c, 5, 62, 76
7, 8881, Note_on_c, 5, 58, 77
7, 8882, Note_on_c, 5, 65, 70
7, 8882, Note_on_c, 5, 55, 84
7, 9110, Note_on_c, 5, 62, 0
7, 9110, Note_on_c, 5, 58, 0
7, 9110, Note_on_c, 5, 65, 0
7, 9110, Note_on_c, 5, 55, 0
7, 9110, Control_c, 5, 123, 0
7, 9360, Note_on_c, 5, 62, 74
7, 9360, Note_on_c, 5, 58, 75
7, 9362, Note_on_c, 5, 65, 71
7, 9362, Note_on_c, 5, 55, 84
7, 9593, Note_on_c, 5, 65, 0
7, 9595, Note_on_c, 5, 62, 0
7, 9597, Note_on_c, 5, 58, 0
7, 9597, Note_on_c, 5, 55, 0
7, 9598, Control_c, 5, 123, 0
7, 9838, Note_on_c, 5, 60, 73
7, 9838, Note_on_c, 5, 64, 66
7, 9838, Note_on_c, 5, 57, 69
7, 9840, Note_on_c, 5, 53, 71
7, 10082, Note_on_c, 5, 60, 0
7, 10082, Note_on_c, 5, 64, 0
7, 10082, Note_on_c, 5, 57, 0
7, 10082, Note_on_c, 5, 53, 0
7, 10082, Control_c, 5, 123, 0
7, 10323, Note_on_c, 5, 57, 77
7, 10323, Note_on_c, 5, 64, 72
7, 10324, Note_on_c, 5, 60, 82
7, 10324, Note_on_c, 5, 53, 80
7, 10555, Note_on_c, 5, 57, 0
7, 10557, Note_on_c, 5, 53, 0
7, 10560, Note_on_c, 5, 60, 0
7, 10562, Note_on_c, 5, 64, 0
7, 10562, Control_c, 5, 123, 0
7, 10801, Note_on_c, 5, 62, 68
7, 10801, Note_on_c, 5, 58, 67
7, 10802, Note_on_c, 5, 65, 70
7, 10804, Note_on_c, 5, 55, 79
7, 11038, Note_on_c, 5, 62, 0
7, 11038, Note_on_c, 5, 58, 0
7, 11038, Note_on_c, 5, 65, 0
7, 11038, Note_on_c, 5, 55, 0
7, 11038, Control_c, 5, 123, 0
7, 11280, Note_on_c, 5, 65, 63
7, 11282, Note_on_c, 5, 62, 62
7, 11282, Note_on_c, 5, 58, 63
7, 11282, Note_on_c, 5, 55, 67
7, 11285, Note_on_c, 5, 67, 80
7, 11923, Note_on_c, 5, 67, 0
7, 11927, Note_on_c, 5, 65, 0
7, 11927, Note_on_c, 5, 62, 0
7, 11927, Note_on_c, 5, 58, 0
7, 11935, Note_on_c, 5, 55, 0
7, 11935, Control_c, 5, 123, 0
7, 12002, Note_on_c, 5, 64, 67
7, 12003, Note_on_c, 5, 60, 76
7, 12003, Note_on_c, 5, 57, 70
7, 12004, Note_on_c, 5, 53, 77
7, 12921, Note_on_c, 5, 57, 0
7, 12924, Note_on_c, 5, 53, 0
7, 12929, Note_on_c, 5, 60, 0
7, 12931, Note_on_c, 5, 64, 0
7, 12931, Control_c, 5, 123, 0
7, 12958, Note_on_c, 5, 58, 75
7, 12959, Note_on_c, 5, 62, 82
7, 12961, Note_on_c, 5, 65, 74
7, 12961, Note_on_c, 5, 55, 84
7, 13874, Note_on_c, 5, 65, 0
7, 13886, Note_on_c, 5, 62, 0
7, 13892, Note_on_c, 5, 58, 0
7, 13893, Note_on_c, 5, 55, 0
7, 13893, Control_c, 5, 123, 0
7, 13916, Note_on_c, 5, 60, 79
7, 13917, Note_on_c, 5, 57, 71
7, 13917, Note_on_c, 5, 64, 65
7, 13921, Note_on_c, 5, 53, 69
7, 14833, Note_on_c, 5, 57, 0
7, 14838, Note_on_c, 5, 60, 0
7, 14838, Note_on_c, 5, 53, 0
7, 14839, Note_on_c, 5, 64, 0
7, 14839, Control_c, 5, 123, 0
7, 14874, Note_on_c, 5, 58, 73
7, 14875, Note_on_c, 5, 62, 71
7, 14875, Note_on_c, 5, 65, 67
7, 14876, Note_on_c, 5, 55, 80
7, 15600, Note_on_c, 5, 67, 82
7, 15755, Note_on_c, 5, 58, 0
7, 15757, Note_on_c, 5, 55, 0
7, 15769, Note_on_c, 5, 62, 0
7, 15769, Note_on_c, 5, 65, 0
7, 15771, Note_on_c, 5, 67, 0
7, 15771, Control_c, 5, 123, 0
7, 15837, Note_on_c, 5, 76, 62
7, 15837, Note_on_c, 5, 72, 88
7, 15838, Note_on_c, 5, 69, 70
7, 15838, Note_on_c, 5, 65, 62
7, 16754, Note_on_c, 5, 69, 0
7, 16756, Note_on_c, 5, 65, 0
7, 16763, Note_on_c, 5, 72, 0
7, 16770, Note_on_c, 5, 76, 0
7, 16770, Control_c, 5, 123, 0
7, 16796, Note_on_c, 5, 70, 73
7, 16798, Note_on_c, 5, 74, 77
7, 16798, Note_on_c, 5, 67, 79
7, 16798, Note_on_c, 5, 77, 79
7, 17727, Note_on_c, 5, 77, 0
7, 17729, Note_on_c, 5, 74, 0
7, 17730, Note_on_c, 5, 70, 0
7, 17735, Note_on_c, 5, 67, 0
7, 17735, Control_c, 5, 123, 0
7, 17764, Note_on_c, 5, 74, 60
7, 17764, Note_on_c, 5, 69, 79
7, 17765, Note_on_c, 5, 76, 68
7, 17765, Note_on_c, 5, 77, 69
7, 17765, Note_on_c, 5, 72, 76
7, 17766, Note_on_c, 5, 65, 68
7, 17789, Note_on_c, 5, 74, 0
7, 17806, Note_on_c, 5, 77, 0
7, 18676, Note_on_c, 5, 69, 0
7, 18678, Note_on_c, 5, 65, 0
7, 18685, Note_on_c, 5, 72, 0
7, 18690, Note_on_c, 5, 76, 0
7, 18690, Control_c, 5, 123, 0
7, 18716, Note_on_c, 5, 70, 77
7, 18719, Note_on_c, 5, 74, 74
7, 18720, Note_on_c, 5, 77, 66
7, 18722, Note_on_c, 5, 76, 71
7, 18722, Note_on_c, 5, 67, 61
7, 18723, Note_on_c, 5, 65, 60
7, 18746, Note_on_c, 5, 76, 0
7, 18763, Note_on_c, 5, 65, 0
7, 19170, Note_on_c, 5, 67, 0
7, 19181, Note_on_c, 5, 70, 0
7, 19183, Note_on_c, 5, 74, 0
7, 19183, Note_on_c, 5, 77, 0
7, 19183, Control_c, 5, 123, 0
7, 19192, Note_on_c, 5, 74, 53
7, 19193, Note_on_c, 5, 77, 66
7, 19193, Note_on_c, 5, 70, 65
7, 19197, Note_on_c, 5, 67, 71
7, 19197, Note_on_c, 5, 79, 76
7, 19626, Note_on_c, 5, 79, 0
7, 19632, Note_on_c, 5, 77, 0
7, 19634, Note_on_c, 5, 70, 0
7, 19636, Note_on_c, 5, 74, 0
7, 19646, Note_on_c, 5, 67, 0
7, 19646, Control_c, 5, 123, 0
7, 19918, Note_on_c, 5, 60, 80
7, 19918, Note_on_c, 5, 64, 72
7, 19919, Note_on_c, 5, 57, 72
7, 19919, Note_on_c, 5, 53, 72
7, 20157, Note_on_c, 5, 60, 0
7, 20157, Note_on_c, 5, 57, 0
7, 20157, Note_on_c, 5, 53, 0
7, 20159, Note_on_c, 5, 64, 0
7, 20159, Control_c, 5, 123, 0
7, 20399, Note_on_c, 5, 60, 79
7, 20400, Note_on_c, 5, 64, 72
7, 20400, Note_on_c, 5, 57, 79
7, 20400, Note_on_c, 5, 53, 79
7, 20635, Note_on_c, 5, 57, 0
7, 20635, Note_on_c, 5, 53, 0
7, 20637, Note_on_c, 5, 60, 0
7, 20640, Note_on_c, 5, 64, 0
7, 20640, Control_c, 5, 123, 0
7, 20882, Note_on_c, 5, 62, 71
7, 20883, Note_on_c, 5, 58, 73
7, 20883, Note_on_c, 5, 65, 67
7, 20885, Note_on_c, 5, 55, 80
7, 21124, Note_on_c, 5, 58, 0
7, 21128, Note_on_c, 5, 55, 0
7, 21131, Note_on_c, 5, 62, 0
7, 21133, Note_on_c, 5, 65, 0
7, 21133, Control_c, 5, 123, 0
7, 21360, Note_on_c, 5, 65, 69
7, 21360, Note_on_c, 5, 67, 73
7, 21360, Note_on_c, 5, 58, 71
7, 21360, Note_on_c, 5, 62, 80
7, 21361, Note_on_c, 5, 55, 79
7, 21592, Note_on_c, 5, 65, 0
7, 21592, Note_on_c, 5, 58, 0
7, 21593, Note_on_c, 5, 62, 0
7, 21594, Note_on_c, 5, 67, 0
7, 21596, Note_on_c, 5, 55, 0
7, 21596, Control_c, 5, 123, 0
7, 21836, Note_on_c, 5, 60, 72
7, 21838, Note_on_c, 5, 57, 70
7, 21838, Note_on_c, 5, 64, 71
7, 21839, Note_on_c, 5, 53, 70
7, 22088, Note_on_c, 5, 57, 0
7, 22088, Note_on_c, 5, 64, 0
7, 22088, Note_on_c, 5, 53, 0
7, 22090, Note_on_c, 5, 60, 0
7, 22090, Control_c, 5, 123, 0
7, 22317, Note_on_c, 5, 64, 68
7, 22317, Note_on_c, 5, 57, 73
7, 22318, Note_on_c, 5, 60, 74
7, 22318, Note_on_c, 5, 53, 71
7, 22554, Note_on_c, 5, 57, 0
7, 22557, Note_on_c, 5, 60, 0
7, 22557, Note_on_c, 5, 53, 0
7, 22564, Note_on_c, 5, 64, 0
7, 22564, Control_c, 5, 123, 0
7, 22799, Note_on_c, 5, 58, 69
7, 22800, Note_on_c, 5, 62, 68
7, 22800, Note_on_c, 5, 65, 68
7, 22800, Note_on_c, 5, 55, 84
7, 23043, Note_on_c, 5, 58, 0
7, 23048, Note_on_c, 5, 55, 0
7, 23050, Note_on_c, 5, 62, 0
7, 23050, Note_on_c, 5, 65, 0
7, 23050, Control_c, 5, 123, 0
7, 23278, Note_on_c, 5, 65, 66
7, 23279, Note_on_c, 5, 58, 65
7, 23279, Note_on_c, 5, 62, 72
7, 23279, Note_on_c, 5, 67, 80
7, 23280, Note_on_c, 5, 55, 74
7, 23997, Note_on_c, 5, 65, 0
7, 23998, Note_on_c, 5, 58, 0
7, 23998, Note_on_c, 5, 62, 0
7, 23998, Note_on_c, 5, 67, 0
7, 23998, Note_on_c, 5, 55, 0
7, 23998, Control_c, 5, 123, 0
7, 24000, Note_on_c, 5, 57, 84
7, 24001, Note_on_c, 5, 60, 86
7, 24001, Note_on_c, 5, 64, 76
7, 24002, Note_on_c, 5, 53, 84
7, 24911, Note_on_c, 5, 57, 0
7, 24914, Note_on_c, 5, 53, 0
7, 24916, Note_on_c, 5, 60, 0
7, 24919, Note_on_c, 5, 64, 0
7, 24919, Control_c, 5, 123, 0
7, 24950, Note_on_c, 5, 58, 75
7, 24952, Note_on_c, 5, 62, 80
7, 24953, Note_on_c, 5, 65, 74
7, 24953, Note_on_c, 5, 55, 88
7, 25861, Note_on_c, 5, 65, 0
7, 25869, Note_on_c, 5, 62, 0
7, 25874, Note_on_c, 5, 58, 0
7, 25874, Note_on_c, 5, 55, 0
7, 25874, Control_c, 5, 123, 0
7, 25906, Note_on_c, 5, 60, 70
7, 25906, Note_on_c, 5, 64, 62
7, 25906, Note_on_c, 5, 57, 72
7, 25909, Note_on_c, 5, 53, 65
7, 26823, Note_on_c, 5, 57, 0
7, 26828, Note_on_c, 5, 60, 0
7, 26828, Note_on_c, 5, 64, 0
7, 26828, Note_on_c, 5, 53, 0
7, 26828, Control_c, 5, 123, 0
7, 26876, Note_on_c, 5, 58, 77
7, 26876, Note_on_c, 5, 62, 84
7, 26876, Note_on_c, 5, 55, 88
7, 26877, Note_on_c, 5, 65, 76
7, 27354, Note_on_c, 5, 67, 86
7, 27789, Note_on_c, 5, 67, 0
7, 27794, Note_on_c, 5, 58, 0
7, 27798, Note_on_c, 5, 62, 0
7, 27798, Note_on_c, 5, 55, 0
7, 27798, Note_on_c, 5, 65, 0
7, 27798, Control_c, 5, 123, 0
7, 35761, Note_on_c, 5, 64, 74
7, 35762, Note_on_c, 5, 60, 79
7, 35763, Note_on_c, 5, 57, 68
7, 35763, Note_on_c, 5, 53, 67
7, 35997, Note_on_c, 5, 64, 0
7, 35997, Note_on_c, 5, 60, 0
7, 35998, Note_on_c, 5, 53, 0
7, 36000, Note_on_c, 5, 57, 0
7, 36000, Control_c, 5, 123, 0
7, 36240, Note_on_c, 5, 57, 79
7, 36240, Note_on_c, 5, 64, 74
7, 36240, Note_on_c, 5, 60, 84
7, 36241, Note_on_c, 5, 53, 76
7, 36467, Note_on_c, 5, 57, 0
7, 36467, Note_on_c, 5, 53, 0
7, 36473, Note_on_c, 5, 60, 0
7, 36475, Note_on_c, 5, 64, 0
7, 36475, Control_c, 5, 123, 0
7, 36718, Note_on_c, 5, 58, 65
7, 36718, Note_on_c, 5, 62, 71
7, 36718, Note_on_c, 5, 65, 67
7, 36719, Note_on_c, 5, 55, 74
7, 36962, Note_on_c, 5, 58, 0
7, 36962, Note_on_c, 5, 55, 0
7, 36964, Note_on_c, 5, 62, 0
7, 36964, Note_on_c, 5, 65, 0
7, 36964, Control_c, 5, 123, 0
7, 37195, Note_on_c, 5, 55, 64
7, 37195, Note_on_c, 5, 65, 57
7, 37196, Note_on_c, 5, 58, 64
7, 37196, Note_on_c, 5, 62, 63
7, 37199, Note_on_c, 5, 64, 68
7, 37200, Note_on_c, 5, 67, 86
7, 37203, Note_on_c, 5, 64, 0
7, 37425, Note_on_c, 5, 67, 0
7, 37428, Note_on_c, 5, 65, 0
7, 37428, Note_on_c, 5, 62, 0
7, 37430, Note_on_c, 5, 58, 0
7, 37434, Note_on_c, 5, 55, 0
7, 37434, Control_c, 5, 123, 0
7, 37676, Note_on_c, 5, 60, 86
7, 37676, Note_on_c, 5, 64, 72
7, 37676, Note_on_c, 5, 57, 76
7, 37679, Note_on_c, 5, 53, 73
7, 37926, Note_on_c, 5, 60, 0
7, 37927, Note_on_c, 5, 64, 0
7, 37927, Note_on_c, 5, 57, 0
7, 37927, Note_on_c, 5, 53, 0
7, 37927, Control_c, 5, 123, 0
7, 38162, Note_on_c, 5, 64, 74
7, 38162, Note_on_c, 5, 60, 86
7, 38163, Note_on_c, 5, 57, 84
7, 38163, Note_on_c, 5, 53, 84
7, 38393, Note_on_c, 5, 60, 0
7, 38393, Note_on_c, 5, 57, 0
7, 38393, Note_on_c, 5, 53, 0
7, 38399, Note_on_c, 5, 64, 0
7, 38399, Control_c, 5, 123, 0
7, 38640, Note_on_c, 5, 62, 68
7, 38640, Note_on_c, 5, 65, 69
7, 38641, Note_on_c, 5, 58, 71
7, 38642, Note_on_c, 5, 55, 84
7, 38883, Note_on_c, 5, 58, 0
7, 38887, Note_on_c, 5, 55, 0
7, 38890, Note_on_c, 5, 62, 0
7, 38892, Note_on_c, 5, 65, 0
7, 38892, Control_c, 5, 123, 0
7, 39112, Note_on_c, 5, 62, 76
7, 39113, Note_on_c, 5, 67, 76
7, 39113, Note_on_c, 5, 65, 73
7, 39113, Note_on_c, 5, 58, 73
7, 39116, Note_on_c, 5, 55, 90
7, 39320, Note_on_c, 5, 67, 0
7, 39327, Note_on_c, 5, 62, 0
7, 39327, Note_on_c, 5, 65, 0
7, 39331, Note_on_c, 5, 58, 0
7, 39343, Note_on_c, 5, 55, 0
7, 39343, Control_c, 5, 123, 0
7, 39598, Note_on_c, 5, 64, 77
7, 39598, Note_on_c, 5, 60, 82
7, 39598, Note_on_c, 5, 57, 77
7, 39599, Note_on_c, 5, 53, 76
7, 39836, Note_on_c, 5, 53, 0
7, 39837, Note_on_c, 5, 64, 0
7, 39837, Note_on_c, 5, 60, 0
7, 39837, Note_on_c, 5, 57, 0
7, 39837, Control_c, 5, 123, 0
7, 40079, Note_on_c, 5, 57, 77
7, 40080, Note_on_c, 5, 60, 80
7, 40080, Note_on_c, 5, 64, 73
7, 40080, Note_on_c, 5, 53, 76
7, 40317, Note_on_c, 5, 57, 0
7, 40317, Note_on_c, 5, 53, 0
7, 40319, Note_on_c, 5, 60, 0
7, 40322, Note_on_c, 5, 64, 0
7, 40322, Control_c, 5, 123, 0
7, 40560, Note_on_c, 5, 62, 76
7, 40561, Note_on_c, 5, 58, 77
7, 40562, Note_on_c, 5, 65, 70
7, 40562, Note_on_c, 5, 55, 84
7, 40790, Note_on_c, 5, 62, 0
7, 40790, Note_on_c, 5, 58, 0
7, 40790, Note_on_c, 5, 65, 0
7, 40790, Note_on_c, 5, 55, 0
7, 40790, Control_c, 5, 123, 0
7, 41040, Note_on_c, 5, 62, 74
7, 41040, Note_on_c, 5, 58, 75
7, 41042, Note_on_c, 5, 65, 71
7, 41042, Note_on_c, 5, 55, 84
7, 41273, Note_on_c, 5, 65, 0
7, 41275, Note_on_c, 5, 62, 0
7, 41277, Note_on_c, 5, 58, 0
7, 41277, Note_on_c, 5, 55, 0
7, 41278, Control_c, 5, 123, 0
7, 41518, Note_on_c, 5, 60, 73
7, 41518, Note_on_c, 5, 64, 66
7, 41518, Note_on_c, 5, 57, 69
7, 41520, Note_on_c, 5, 53, 71
7, 41762, Note_on_c, 5, 60, 0
7, 41762, Note_on_c, 5, 64, 0
7, 41762, Note_on_c, 5, 57, 0
7, 41762, Note_on_c, 5, 53, 0
7, 41762, Control_c, 5, 123, 0
7, 42003, Note_on_c, 5, 57, 77
7, 42003, Note_on_c, 5, 64, 72
7, 42004, Note_on_c, 5, 60, 82
7, 42004, Note_on_c, 5, 53, 80
7, 42235, Note_on_c, 5, 57, 0
7, 42237, Note_on_c, 5, 53, 0
7, 42240, Note_on_c, 5, 60, 0
7, 42242, Note_on_c, 5, 64, 0
7, 42242, Control_c, 5, 123, 0
7, 42481, Note_on_c, 5, 62, 68
7, 42481, Note_on_c, 5, 58, 67
7, 42482, Note_on_c, 5, 65, 70
7, 42484, Note_on_c, 5, 55, 79
7, 42718, Note_on_c, 5, 62, 0
7, 42718, Note_on_c, 5, 58, 0
7, 42718, Note_on_c, 5, 65, 0
7, 42718, Note_on_c, 5, 55, 0
7, 42718, Control_c, 5, 123, 0
7, 42960, Note_on_c, 5, 65, 63
7, 42962, Note_on_c, 5, 62, 62
7, 42962, Note_on_c, 5, 58, 63
7, 42962, Note_on_c, 5, 55, 67
7, 42965, Note_on_c, 5, 67, 80
7, 43603, Note_on_c, 5, 67, 0
7, 43607, Note_on_c, 5, 65, 0
7, 43607, Note_on_c, 5, 62, 0
7, 43607, Note_on_c, 5, 58, 0
7, 43615, Note_on_c, 5, 55, 0
7, 43615, Control_c, 5, 123, 0
7, 43682, Note_on_c, 5, 64, 67
7, 43683, Note_on_c, 5, 60, 76
7, 43683, Note_on_c, 5, 57, 70
7, 43684, Note_on_c, 5, 53, 77
7, 44601, Note_on_c, 5, 57, 0
7, 44604, Note_on_c, 5, 53, 0
7, 44609, Note_on_c, 5, 60, 0
7, 44611, Note_on_c, 5, 64, 0
7, 44611, Control_c, 5, 123, 0
7, 44638, Note_on_c, 5, 58, 75
7, 44639, Note_on_c, 5, 62, 82
7, 44641, Note_on_c, 5, 65, 74
7, 44641, Note_on_c, 5, 55, 84
7, 45554, Note_on_c, 5, 65, 0
7, 45566, Note_on_c, 5, 62, 0
7, 45572, Note_on_c, 5, 58, 0
7, 45573, Note_on_c, 5, 55, 0
7, 45573, Control_c, 5, 123, 0
7, 45596, Note_on_c, 5, 60, 79
7, 45597, Note_on_c, 5, 57, 71
7, 45597, Note_on_c, 5, 64, 65
7, 45601, Note_on_c, 5, 53, 69
7, 46513, Note_on_c, 5, 57, 0
7, 46518, Note_on_c, 5, 60, 0
7, 46518, Note_on_c, 5, 53, 0
7, 46519, Note_on_c, 5, 64, 0
7, 46519, Control_c, 5, 123, 0
7, 46554, Note_on_c, 5, 58, 73
7, 46555, Note_on_c, 5, 62, 71
7, 46555, Note_on_c, 5, 65, 67
7, 46556, Note_on_c, 5, 55, 80
7, 47280, Note_on_c, 5, 67, 82
7, 47435, Note_on_c, 5, 58, 0
7, 47437, Note_on_c, 5, 55, 0
7, 47449, Note_on_c, 5, 62, 0
7, 47449, Note_on_c, 5, 65, 0
7, 47451, Note_on_c, 5, 67, 0
7, 47451, Control_c, 5, 123, 0
7, 47517, Note_on_c, 5, 76, 62
7, 47517, Note_on_c, 5, 72, 88
7, 47518, Note_on_c, 5, 69, 70
7, 47518, Note_on_c, 5, 65, 62
7, 48434, Note_on_c, 5, 69, 0
7, 48436, Note_on_c, 5, 65, 0
7, 48443, Note_on_c, 5, 72, 0
7, 48450, Note_on_c, 5, 76, 0
7, 48450, Control_c, 5, 123, 0
7, 48476, Note_on_c, 5, 70, 73
7, 48478, Note_on_c, 5, 74, 77
7, 48478, Note_on_c, 5, 67, 79
7, 48478, Note_on_c, 5, 77, 79
7, 49407, Note_on_c, 5, 77, 0
7, 49409, Note_on_c, 5, 74, 0
7, 49410, Note_on_c, 5, 70, 0
7, 49415, Note_on_c, 5, 67, 0
7, 49415, Control_c, 5, 123, 0
7, 49444, Note_on_c, 5, 74, 60
7, 49444, Note_on_c, 5, 69, 79
7, 49445, Note_on_c, 5, 76, 68
7, 49445, Note_on_c, 5, 77, 69
7, 49445, Note_on_c, 5, 72, 76
7, 49446, Note_on_c, 5, 65, 68
7, 49469, Note_on_c, 5, 74, 0
7, 49486, Note_on_c, 5, 77, 0
7, 50356, Note_on_c, 5, 69, 0
7, 50358, Note_on_c, 5, 65, 0
7, 50365, Note_on_c, 5, 72, 0
7, 50370, Note_on_c, 5, 76, 0
7, 50370, Control_c, 5, 123, 0
7, 50396, Note_on_c, 5, 70, 77
7, 50399, Note_on_c, 5, 74, 74
7, 50400, Note_on_c, 5, 77, 66
7, 50402, Note_on_c, 5, 76, 71
7, 50402, Note_on_c, 5, 67, 61
7, 50403, Note_on_c, 5, 65, 60
7, 50426, Note_on_c, 5, 76, 0
7, 50443, Note_on_c, 5, 65, 0
7, 50850, Note_on_c, 5, 67, 0
7, 50861, Note_on_c, 5, 70, 0
7, 50863, Note_on_c, 5, 74, 0
7, 50863, Note_on_c, 5, 77, 0
7, 50863, Control_c, 5, 123, 0
7, 50872, Note_on_c, 5, 74, 53
7, 50873, Note_on_c, 5, 77, 66
7, 50873, Note_on_c, 5, 70, 65
7, 50877, Note_on_c, 5, 67, 71
7, 50877, Note_on_c, 5, 79, 76
7, 51306, Note_on_c, 5, 79, 0
7, 51312, Note_on_c, 5, 77, 0
7, 51314, Note_on_c, 5, 70, 0
7, 51316, Note_on_c, 5, 74, 0
7, 51326, Note_on_c, 5, 67, 0
7, 51326, Control_c, 5, 123, 0
7, 51360, Control_c, 5, 7, 70
7, 51435, Control_c, 5, 7, 69
7, 51511, Control_c, 5, 7, 68
7, 51586, Control_c, 5, 7, 67
7, 51598, Note_on_c, 5, 60, 80
7, 51598, Note_on_c, 5, 64, 72
7, 51599, Note_on_c, 5, 57, 72
7, 51599, Note_on_c, 5, 53, 72
7, 51662, Control_c, 5, 7, 66
7, 51737, Control_c, 5, 7, 65
7, 51813, Control_c, 5, 7, 64
7, 51837, Note_on_c, 5, 60, 0
7, 51837, Note_on_c, 5, 57, 0
7, 51837, Note_on_c, 5, 53, 0
7, 51839, Note_on_c, 5, 64, 0
7, 51839, Control_c, 5, 123, 0
7, 51888, Control_c, 5, 7, 63
7, 51963, Control_c, 5, 7, 62
7, 52039, Control_c, 5, 7, 61
7, 52079, Note_on_c, 5, 60, 79
7, 52080, Note_on_c, 5, 64, 72
7, 52080, Note_on_c, 5, 57, 79
7, 52080, Note_on_c, 5, 53, 79
7, 52114, Control_c, 5, 7, 60
7, 52190, Control_c, 5, 7, 59
7, 52265, Control_c, 5, 7, 58
7, 52315, Note_on_c, 5, 57, 0
7, 52315, Note_on_c, 5, 53, 0
7, 52317, Note_on_c, 5, 60, 0
7, 52320, Note_on_c, 5, 64, 0
7, 52320, Control_c, 5, 123, 0
7, 52341, Control_c, 5, 7, 57
7, 52416, Control_c, 5, 7, 56
7, 52491, Control_c, 5, 7, 55
7, 52562, Note_on_c, 5, 62, 71
7, 52563, Note_on_c, 5, 58, 73
7, 52563, Note_on_c, 5, 65, 67
7, 52565, Note_on_c, 5, 55, 80
7, 52567, Control_c, 5, 7, 54
7, 52642, Control_c, 5, 7, 53
7, 52718, Control_c, 5, 7, 52
7, 52793, Control_c, 5, 7, 51
7, 52804, Note_on_c, 5, 58, 0
7, 52808, Note_on_c, 5, 55, 0
7, 52811, Note_on_c, 5, 62, 0
7, 52813, Note_on_c, 5, 65, 0
7, 52813, Control_c, 5, 123, 0
7, 52869, Control_c, 5, 7, 50
7, 52944, Control_c, 5, 7, 49
7, 53019, Control_c, 5, 7, 48
7, 53040, Note_on_c, 5, 65, 69
7, 53040, Note_on_c, 5, 67, 73
7, 53040, Note_on_c, 5, 58, 71
7, 53040, Note_on_c, 5, 62, 80
7, 53041, Note_on_c, 5, 55, 79
7, 53095, Control_c, 5, 7, 47
7, 53170, Control_c, 5, 7, 46
7, 53246, Control_c, 5, 7, 45
7, 53272, Note_on_c, 5, 65, 0
7, 53272, Note_on_c, 5, 58, 0
7, 53273, Note_on_c, 5, 62, 0
7, 53274, Note_on_c, 5, 67, 0
7, 53276, Note_on_c, 5, 55, 0
7, 53276, Control_c, 5, 123, 0
7, 53321, Control_c, 5, 7, 44
7, 53397, Control_c, 5, 7, 43
7, 53472, Control_c, 5, 7, 42
7, 53516, Note_on_c, 5, 60, 72
7, 53518, Note_on_c, 5, 57, 70
7, 53518, Note_on_c, 5, 64, 71
7, 53519, Note_on_c, 5, 53, 70
7, 53547, Control_c, 5, 7, 41
7, 53623, Control_c, 5, 7, 40
7, 53698, Control_c, 5, 7, 39
7, 53768, Note_on_c, 5, 57, 0
7, 53768, Note_on_c, 5, 64, 0
7, 53768, Note_on_c, 5, 53, 0
7, 53770, Note_on_c, 5, 60, 0
7, 53770, Control_c, 5, 123, 0
7, 53774, Control_c, 5, 7, 38
7, 53849, Control_c, 5, 7, 37
7, 53925, Control_c, 5, 7, 36
7, 53997, Note_on_c, 5, 64, 68
7, 53997, Note_on_c, 5, 57, 73
7, 53998, Note_on_c, 5, 60, 74
7, 53998, Note_on_c, 5, 53, 71
7, 54000, Control_c, 5, 7, 35
7, 54075, Control_c, 5, 7, 34
7, 54151, Control_c, 5, 7, 33
7, 54226, Control_c, 5, 7, 32
7, 54234, Note_on_c, 5, 57, 0
7, 54237, Note_on_c, 5, 60, 0
7, 54237, Note_on_c, 5, 53, 0
7, 54244, Note_on_c, 5, 64, 0
7, 54244, Control_c, 5, 123, 0
7, 54302, Control_c, 5, 7, 31
7, 54377, Control_c, 5, 7, 30
7, 54453, Control_c, 5, 7, 29
7, 54479, Note_on_c, 5, 58, 69
7, 54480, Note_on_c, 5, 62, 68
7, 54480, Note_on_c, 5, 65, 68
7, 54480, Note_on_c, 5, 55, 84
7, 54528, Control_c, 5, 7, 28
7, 54603, Control_c, 5, 7, 27
7, 54679, Control_c, 5, 7, 26
7, 54723, Note_on_c, 5, 58, 0
7, 54728, Note_on_c, 5, 55, 0
7, 54730, Note_on_c, 5, 62, 0
7, 54730, Note_on_c, 5, 65, 0
7, 54730, Control_c, 5, 123, 0
7, 54754, Control_c, 5, 7, 25
7, 54830, Control_c, 5, 7, 24
7, 54905, Control_c, 5, 7, 23
7, 54958, Note_on_c, 5, 65, 66
7, 54959, Note_on_c, 5, 58, 65
7, 54959, Note_on_c, 5, 62, 72
7, 54959, Note_on_c, 5, 67, 80
7, 54960, Note_on_c, 5, 55, 74
7, 54981, Control_c, 5, 7, 22
7, 55056, Control_c, 5, 7, 21
7, 55131, Control_c, 5, 7, 20
7, 55207, Control_c, 5, 7, 19
7, 55282, Control_c, 5, 7, 18
7, 55358, Control_c, 5, 7, 17
7, 55433, Control_c, 5, 7, 16
7, 55509, Control_c, 5, 7, 15
7, 55584, Control_c, 5, 7, 14
7, 55659, Control_c, 5, 7, 13
7, 55677, Note_on_c, 5, 65, 0
7, 55678, Note_on_c, 5, 58, 0
7, 55678, Note_on_c, 5, 62, 0
7, 55678, Note_on_c, 5, 67, 0
7, 55678, Note_on_c, 5, 55, 0
7, 55678, Control_c, 5, 123, 0
7, 55680, Note_on_c, 5, 57, 84
7, 55681, Note_on_c, 5, 60, 86
7, 55681, Note_on_c, 5, 64, 76
7, 55682, Note_on_c, 5, 53, 84
7, 55735, Control_c, 5, 7, 12
7, 55810, Control_c, 5, 7, 11
7, 55886, Control_c, 5, 7, 10
7, 55961, Control_c, 5, 7, 9
7, 56037, Control_c, 5, 7, 8
7, 56112, Control_c, 5, 7, 7
7, 56187, Control_c, 5, 7, 6
7, 56263, Control_c, 5, 7, 5
7, 56338, Control_c, 5, 7, 4
7, 56414, Control_c, 5, 7, 3
7, 56489, Control_c, 5, 7, 2
7, 56565, Control_c, 5, 7, 1
7, 56591, Note_on_c, 5, 57, 0
7, 56594, Note_on_c, 5, 53, 0
7, 56596, Note_on_c, 5, 60, 0
7, 56599, Note_on_c, 5, 64, 0
7, 56640, Control_c, 5, 7, 0
7, 56640, End_track
8, 0, Start_track
8, 0, MIDI_port, 0
8, 0, Title_t, "Original By:"
8, 0, Program_c, 6, 1
8, 0, Control_c, 6, 7, 115
8, 24126, Note_on_c, 6, 69, 113
8, 24128, Note_on_c, 6, 67, 100
8, 24140, Note_on_c, 6, 67, 0
8, 24186, Note_on_c, 6, 67, 95
8, 24192, Note_on_c, 6, 69, 0
8, 24210, Note_on_c, 6, 67, 0
8, 24211, Control_c, 6, 123, 0
8, 24217, Note_on_c, 6, 65, 112
8, 24236, Note_on_c, 6, 65, 0
8, 24236, Control_c, 6, 123, 0
8, 24274, Note_on_c, 6, 64, 127
8, 24726, Note_on_c, 6, 64, 0
8, 24726, Control_c, 6, 123, 0
8, 24728, Note_on_c, 6, 65, 126
8, 24751, Note_on_c, 6, 64, 100
8, 24754, Note_on_c, 6, 65, 0
8, 24786, Note_on_c, 6, 64, 0
8, 24786, Note_on_c, 6, 62, 84
8, 24811, Note_on_c, 6, 62, 0
8, 24812, Control_c, 6, 123, 0
8, 24819, Note_on_c, 6, 60, 83
8, 24831, Note_on_c, 6, 60, 0
8, 24831, Control_c, 6, 123, 0
8, 24872, Note_on_c, 6, 57, 122
8, 24895, Note_on_c, 6, 57, 0
8, 24895, Control_c, 6, 123, 0
8, 24928, Note_on_c, 6, 57, 122
8, 25012, Note_on_c, 6, 57, 0
8, 25012, Control_c, 6, 123, 0
8, 25016, Note_on_c, 6, 60, 112
8, 25039, Note_on_c, 6, 60, 0
8, 25040, Control_c, 6, 123, 0
8, 25046, Note_on_c, 6, 57, 117
8, 25065, Note_on_c, 6, 57, 0
8, 25065, Control_c, 6, 123, 0
8, 25318, Note_on_c, 6, 50, 103
8, 25349, Note_on_c, 6, 50, 0
8, 25349, Control_c, 6, 123, 0
8, 25349, Note_on_c, 6, 52, 97
8, 25369, Note_on_c, 6, 52, 0
8, 25369, Control_c, 6, 123, 0
8, 25371, Note_on_c, 6, 53, 52
8, 25389, Note_on_c, 6, 53, 0
8, 25389, Control_c, 6, 123, 0
8, 25407, Note_on_c, 6, 57, 103
8, 25431, Note_on_c, 6, 57, 0
8, 25431, Control_c, 6, 123, 0
8, 25467, Note_on_c, 6, 55, 109
8, 25494, Note_on_c, 6, 55, 0
8, 25494, Control_c, 6, 123, 0
8, 25522, Note_on_c, 6, 53, 118
8, 25526, Note_on_c, 6, 55, 50
8, 25535, Note_on_c, 6, 55, 0
8, 25547, Note_on_c, 6, 53, 0
8, 25547, Control_c, 6, 123, 0
8, 25557, Note_on_c, 6, 52, 79
8, 25576, Note_on_c, 6, 52, 0
8, 25576, Control_c, 6, 123, 0
8, 25583, Note_on_c, 6, 53, 86
8, 25602, Note_on_c, 6, 53, 0
8, 25602, Control_c, 6, 123, 0
8, 25615, Note_on_c, 6, 52, 71
8, 25637, Note_on_c, 6, 52, 0
8, 25637, Control_c, 6, 123, 0
8, 25646, Note_on_c, 6, 50, 97
8, 25663, Note_on_c, 6, 50, 0
8, 25663, Control_c, 6, 123, 0
8, 25858, Note_on_c, 6, 45, 126
8, 25882, Note_on_c, 6, 45, 0
8, 25882, Control_c, 6, 123, 0
8, 25887, Note_on_c, 6, 48, 106
8, 25911, Note_on_c, 6, 48, 0
8, 25911, Control_c, 6, 123, 0
8, 25918, Note_on_c, 6, 43, 88
8, 25943, Note_on_c, 6, 43, 0
8, 25944, Control_c, 6, 123, 0
8, 25945, Note_on_c, 6, 45, 95
8, 25972, Note_on_c, 6, 45, 0
8, 25972, Control_c, 6, 123, 0
8, 25976, Note_on_c, 6, 41, 63
8, 25993, Note_on_c, 6, 41, 0
8, 25993, Control_c, 6, 123, 0
8, 26007, Note_on_c, 6, 43, 88
8, 26029, Note_on_c, 6, 43, 0
8, 26029, Control_c, 6, 123, 0
8, 26037, Note_on_c, 6, 40, 113
8, 26059, Note_on_c, 6, 40, 0
8, 26059, Control_c, 6, 123, 0
8, 26065, Note_on_c, 6, 41, 112
8, 26087, Note_on_c, 6, 41, 0
8, 26087, Control_c, 6, 123, 0
8, 26097, Note_on_c, 6, 38, 95
8, 26114, Note_on_c, 6, 38, 0
8, 26114, Control_c, 6, 123, 0
8, 26129, Note_on_c, 6, 40, 122
8, 26147, Note_on_c, 6, 40, 0
8, 26148, Control_c, 6, 123, 0
8, 26497, Note_on_c, 6, 77, 100
8, 26529, Note_on_c, 6, 75, 77
8, 26529, Note_on_c, 6, 74, 117
8, 26533, Note_on_c, 6, 75, 0
8, 26534, Note_on_c, 6, 77, 0
8, 26553, Note_on_c, 6, 74, 0
8, 26553, Control_c, 6, 123, 0
8, 26553, Note_on_c, 6, 72, 100
8, 26579, Note_on_c, 6, 72, 0
8, 26579, Control_c, 6, 123, 0
8, 26586, Note_on_c, 6, 69, 72
8, 26606, Note_on_c, 6, 69, 0
8, 26606, Control_c, 6, 123, 0
8, 26615, Note_on_c, 6, 74, 86
8, 26643, Note_on_c, 6, 72, 106
8, 26649, Note_on_c, 6, 74, 0
8, 26671, Note_on_c, 6, 72, 0
8, 26671, Control_c, 6, 123, 0
8, 26671, Note_on_c, 6, 69, 80
8, 26705, Note_on_c, 6, 67, 64
8, 26709, Note_on_c, 6, 69, 0
8, 26727, Note_on_c, 6, 67, 0
8, 26727, Control_c, 6, 123, 0
8, 26729, Note_on_c, 6, 72, 80
8, 26763, Note_on_c, 6, 69, 122
8, 26769, Note_on_c, 6, 72, 0
8, 26787, Note_on_c, 6, 69, 0
8, 26788, Control_c, 6, 123, 0
8, 26793, Note_on_c, 6, 67, 77
8, 26818, Note_on_c, 6, 65, 71
8, 26820, Note_on_c, 6, 67, 0
8, 26844, Note_on_c, 6, 65, 0
8, 26844, Control_c, 6, 123, 0
8, 26851, Note_on_c, 6, 69, 100
8, 26882, Note_on_c, 6, 67, 106
8, 26889, Note_on_c, 6, 69, 0
8, 26904, Note_on_c, 6, 67, 0
8, 26905, Control_c, 6, 123, 0
8, 26908, Note_on_c, 6, 65, 64
8, 26938, Note_on_c, 6, 62, 82
8, 26941, Note_on_c, 6, 65, 0
8, 26961, Note_on_c, 6, 62, 0
8, 26961, Control_c, 6, 123, 0
8, 26971, Note_on_c, 6, 67, 88
8, 27001, Note_on_c, 6, 65, 112
8, 27006, Note_on_c, 6, 67, 0
8, 27027, Note_on_c, 6, 65, 0
8, 27027, Control_c, 6, 123, 0
8, 27031, Note_on_c, 6, 62, 79
8, 27059, Note_on_c, 6, 60, 60
8, 27063, Note_on_c, 6, 62, 0
8, 27086, Note_on_c, 6, 60, 0
8, 27086, Control_c, 6, 123, 0
8, 27092, Note_on_c, 6, 65, 118
8, 27123, Note_on_c, 6, 62, 117
8, 27129, Note_on_c, 6, 65, 0
8, 27149, Note_on_c, 6, 62, 0
8, 27149, Control_c, 6, 123, 0
8, 27151, Note_on_c, 6, 60, 83
8, 27176, Note_on_c, 6, 60, 0
8, 27176, Control_c, 6, 123, 0
8, 27178, Note_on_c, 6, 57, 84
8, 27202, Note_on_c, 6, 57, 0
8, 27202, Control_c, 6, 123, 0
8, 27211, Note_on_c, 6, 62, 95
8, 27241, Note_on_c, 6, 60, 106
8, 27249, Note_on_c, 6, 62, 0
8, 27265, Note_on_c, 6, 60, 0
8, 27265, Control_c, 6, 123, 0
8, 27272, Note_on_c, 6, 57, 84
8, 27305, Note_on_c, 6, 55, 74
8, 27310, Note_on_c, 6, 57, 0
8, 27331, Note_on_c, 6, 55, 0
8, 27331, Note_on_c, 6, 60, 106
8, 27363, Note_on_c, 6, 57, 126
8, 27370, Note_on_c, 6, 60, 0
8, 27387, Note_on_c, 6, 57, 0
8, 27387, Control_c, 6, 123, 0
8, 27391, Note_on_c, 6, 55, 77
8, 27424, Note_on_c, 6, 55, 0
8, 27424, Note_on_c, 6, 53, 73
8, 27451, Note_on_c, 6, 53, 0
8, 27451, Control_c, 6, 123, 0
8, 27455, Note_on_c, 6, 57, 97
8, 27484, Note_on_c, 6, 55, 113
8, 27491, Note_on_c, 6, 57, 0
8, 27509, Note_on_c, 6, 55, 0
8, 27509, Note_on_c, 6, 53, 86
8, 27543, Note_on_c, 6, 53, 0
8, 27543, Control_c, 6, 123, 0
8, 27545, Note_on_c, 6, 50, 62
8, 27568, Note_on_c, 6, 50, 0
8, 27569, Control_c, 6, 123, 0
8, 27572, Note_on_c, 6, 55, 79
8, 27604, Note_on_c, 6, 53, 126
8, 27613, Note_on_c, 6, 55, 0
8, 27626, Note_on_c, 6, 53, 0
8, 27626, Control_c, 6, 123, 0
8, 27630, Note_on_c, 6, 50, 74
8, 27665, Note_on_c, 6, 48, 71
8, 27669, Note_on_c, 6, 50, 0
8, 27689, Note_on_c, 6, 48, 0
8, 27689, Control_c, 6, 123, 0
8, 27693, Note_on_c, 6, 53, 118
8, 27720, Note_on_c, 6, 50, 117
8, 27727, Note_on_c, 6, 53, 0
8, 27746, Note_on_c, 6, 50, 0
8, 27746, Control_c, 6, 123, 0
8, 27746, Note_on_c, 6, 48, 77
8, 27778, Note_on_c, 6, 45, 86
8, 27779, Note_on_c, 6, 48, 0
8, 27797, Note_on_c, 6, 45, 0
8, 27797, Control_c, 6, 123, 0
8, 27807, Note_on_c, 6, 50, 100
8, 27830, Note_on_c, 6, 50, 0
8, 27830, Control_c, 6, 123, 0
8, 27838, Note_on_c, 6, 65, 95
8, 27855, Note_on_c, 6, 62, 100
8, 27865, Note_on_c, 6, 65, 0
8, 27872, Note_on_c, 6, 60, 51
8, 27878, Note_on_c, 6, 62, 0
8, 27893, Note_on_c, 6, 57, 70
8, 27895, Note_on_c, 6, 60, 0
8, 27907, Note_on_c, 6, 65, 86
8, 27914, Note_on_c, 6, 57, 0
8, 27924, Note_on_c, 6, 62, 92
8, 27932, Note_on_c, 6, 65, 0
8, 27940, Note_on_c, 6, 60, 45
8, 27943, Note_on_c, 6, 62, 0
8, 27951, Note_on_c, 6, 57, 62
8, 27957, Note_on_c, 6, 60, 0
8, 27964, Note_on_c, 6, 65, 77
8, 27973, Note_on_c, 6, 57, 0
8, 27980, Note_on_c, 6, 62, 84
8, 27989, Note_on_c, 6, 65, 0
8, 27995, Note_on_c, 6, 60, 53
8, 28004, Note_on_c, 6, 62, 0
8, 28010, Note_on_c, 6, 57, 65
8, 28016, Note_on_c, 6, 60, 0
8, 28025, Note_on_c, 6, 65, 71
8, 28032, Note_on_c, 6, 57, 0
8, 28040, Note_on_c, 6, 62, 84
8, 28049, Note_on_c, 6, 65, 0
8, 28053, Note_on_c, 6, 60, 51
8, 28060, Note_on_c, 6, 62, 0
8, 28066, Note_on_c, 6, 57, 65
8, 28075, Note_on_c, 6, 60, 0
8, 28078, Note_on_c, 6, 65, 75
8, 28087, Note_on_c, 6, 57, 0
8, 28094, Note_on_c, 6, 62, 95
8, 28103, Note_on_c, 6, 65, 0
8, 28110, Note_on_c, 6, 60, 60
8, 28116, Note_on_c, 6, 62, 0
8, 28128, Note_on_c, 6, 57, 68
8, 28132, Note_on_c, 6, 60, 0
8, 28140, Note_on_c, 6, 65, 75
8, 28146, Note_on_c, 6, 57, 0
8, 28156, Note_on_c, 6, 62, 84
8, 28163, Note_on_c, 6, 65, 0
8, 28170, Note_on_c, 6, 60, 51
8, 28174, Note_on_c, 6, 62, 0
8, 28181, Note_on_c, 6, 57, 70
8, 28187, Note_on_c, 6, 60, 0
8, 28197, Note_on_c, 6, 65, 73
8, 28203, Note_on_c, 6, 57, 0
8, 28210, Note_on_c, 6, 62, 92
8, 28219, Note_on_c, 6, 65, 0
8, 28224, Note_on_c, 6, 60, 57
8, 28228, Note_on_c, 6, 62, 0
8, 28242, Note_on_c, 6, 57, 66
8, 28247, Note_on_c, 6, 60, 0
8, 28256, Note_on_c, 6, 65, 77
8, 28260, Note_on_c, 6, 57, 0
8, 28275, Note_on_c, 6, 62, 88
8, 28282, Note_on_c, 6, 65, 0
8, 28284, Note_on_c, 6, 60, 61
8, 28295, Note_on_c, 6, 62, 0
8, 28298, Note_on_c, 6, 57, 71
8, 28304, Note_on_c, 6, 60, 0
8, 28314, Note_on_c, 6, 65, 83
8, 28318, Note_on_c, 6, 57, 0
8, 28328, Note_on_c, 6, 62, 100
8, 28336, Note_on_c, 6, 65, 0
8, 28343, Note_on_c, 6, 60, 56
8, 28345, Note_on_c, 6, 62, 0
8, 28359, Note_on_c, 6, 57, 62
8, 28364, Note_on_c, 6, 60, 0
8, 28375, Note_on_c, 6, 65, 83
8, 28380, Note_on_c, 6, 57, 0
8, 28392, Note_on_c, 6, 62, 92
8, 28398, Note_on_c, 6, 65, 0
8, 28406, Note_on_c, 6, 60, 43
8, 28414, Note_on_c, 6, 62, 0
8, 28419, Note_on_c, 6, 57, 73
8, 28427, Note_on_c, 6, 60, 0
8, 28440, Note_on_c, 6, 65, 77
8, 28444, Note_on_c, 6, 57, 0
8, 28458, Note_on_c, 6, 62, 92
8, 28463, Note_on_c, 6, 65, 0
8, 28470, Note_on_c, 6, 60, 48
8, 28476, Note_on_c, 6, 62, 0
8, 28488, Note_on_c, 6, 57, 74
8, 28492, Note_on_c, 6, 60, 0
8, 28502, Note_on_c, 6, 65, 80
8, 28509, Note_on_c, 6, 57, 0
8, 28515, Note_on_c, 6, 62, 103
8, 28524, Note_on_c, 6, 65, 0
8, 28530, Note_on_c, 6, 60, 65
8, 28533, Note_on_c, 6, 62, 0
8, 28543, Note_on_c, 6, 57, 71
8, 28550, Note_on_c, 6, 60, 0
8, 28559, Note_on_c, 6, 65, 86
8, 28565, Note_on_c, 6, 57, 0
8, 28575, Note_on_c, 6, 62, 88
8, 28581, Note_on_c, 6, 65, 0
8, 28586, Note_on_c, 6, 60, 67
8, 28592, Note_on_c, 6, 62, 0
8, 28605, Note_on_c, 6, 57, 67
8, 28609, Note_on_c, 6, 60, 0
8, 28616, Note_on_c, 6, 65, 83
8, 28625, Note_on_c, 6, 57, 0
8, 28630, Note_on_c, 6, 62, 88
8, 28638, Note_on_c, 6, 65, 0
8, 28643, Note_on_c, 6, 60, 80
8, 28649, Note_on_c, 6, 62, 0
8, 28664, Note_on_c, 6, 60, 0
8, 28664, Control_c, 6, 123, 0
8, 28666, Note_on_c, 6, 57, 76
8, 28673, Note_on_c, 6, 65, 86
8, 28684, Note_on_c, 6, 57, 0
8, 28689, Note_on_c, 6, 62, 103
8, 28695, Note_on_c, 6, 65, 0
8, 28705, Note_on_c, 6, 60, 80
8, 28707, Note_on_c, 6, 62, 0
8, 28726, Note_on_c, 6, 60, 0
8, 28727, Control_c, 6, 123, 0
8, 28730, Note_on_c, 6, 65, 95
8, 28746, Note_on_c, 6, 62, 106
8, 28753, Note_on_c, 6, 65, 0
8, 28763, Note_on_c, 6, 57, 97
8, 28768, Note_on_c, 6, 62, 0
8, 28792, Note_on_c, 6, 57, 0
8, 28792, Control_c, 6, 123, 0
8, 28896, Note_on_c, 6, 69, 117
8, 28916, Note_on_c, 6, 69, 0
8, 28916, Control_c, 6, 123, 0
8, 28955, Note_on_c, 6, 67, 100
8, 28975, Note_on_c, 6, 67, 0
8, 28975, Control_c, 6, 123, 0
8, 29014, Note_on_c, 6, 65, 126
8, 29040, Note_on_c, 6, 65, 0
8, 29040, Control_c, 6, 123, 0
8, 29047, Note_on_c, 6, 64, 56
8, 29074, Note_on_c, 6, 64, 0
8, 29074, Control_c, 6, 123, 0
8, 29075, Note_on_c, 6, 65, 73
8, 29104, Note_on_c, 6, 64, 57
8, 29106, Note_on_c, 6, 65, 0
8, 29131, Note_on_c, 6, 64, 0
8, 29131, Control_c, 6, 123, 0
8, 29133, Note_on_c, 6, 62, 106
8, 29159, Note_on_c, 6, 62, 0
8, 29159, Control_c, 6, 123, 0
8, 29190, Note_on_c, 6, 60, 126
8, 29215, Note_on_c, 6, 60, 0
8, 29216, Control_c, 6, 123, 0
8, 29250, Note_on_c, 6, 57, 126
8, 29335, Note_on_c, 6, 57, 0
8, 29335, Control_c, 6, 123, 0
8, 29342, Note_on_c, 6, 60, 118
8, 29366, Note_on_c, 6, 60, 0
8, 29366, Control_c, 6, 123, 0
8, 29373, Note_on_c, 6, 57, 109
8, 29393, Note_on_c, 6, 57, 0
8, 29394, Control_c, 6, 123, 0
8, 29521, Note_on_c, 6, 50, 106
8, 29545, Note_on_c, 6, 52, 84
8, 29552, Note_on_c, 6, 50, 0
8, 29574, Note_on_c, 6, 52, 0
8, 29574, Control_c, 6, 123, 0
8, 29581, Note_on_c, 6, 53, 80
8, 29603, Note_on_c, 6, 53, 0
8, 29603, Control_c, 6, 123, 0
8, 29615, Note_on_c, 6, 57, 90
8, 29645, Note_on_c, 6, 55, 109
8, 29649, Note_on_c, 6, 57, 0
8, 29674, Note_on_c, 6, 53, 106
8, 29688, Note_on_c, 6, 55, 0
8, 29700, Note_on_c, 6, 53, 0
8, 29700, Control_c, 6, 123, 0
8, 29704, Note_on_c, 6, 52, 73
8, 29730, Note_on_c, 6, 52, 0
8, 29731, Control_c, 6, 123, 0
8, 29733, Note_on_c, 6, 55, 95
8, 29765, Note_on_c, 6, 53, 118
8, 29771, Note_on_c, 6, 55, 0
8, 29787, Note_on_c, 6, 52, 97
8, 29788, Note_on_c, 6, 53, 0
8, 29822, Note_on_c, 6, 50, 84
8, 29827, Note_on_c, 6, 52, 0
8, 29848, Note_on_c, 6, 50, 0
8, 29848, Control_c, 6, 123, 0
8, 29852, Note_on_c, 6, 53, 95
8, 29885, Note_on_c, 6, 50, 117
8, 29889, Note_on_c, 6, 53, 0
8, 29911, Note_on_c, 6, 50, 0
8, 29911, Note_on_c, 6, 48, 77
8, 29943, Note_on_c, 6, 48, 0
8, 29943, Control_c, 6, 123, 0
8, 29945, Note_on_c, 6, 45, 56
8, 29947, Note_on_c, 6, 47, 65
8, 29962, Note_on_c, 6, 47, 0
8, 29965, Note_on_c, 6, 45, 0
8, 29965, Control_c, 6, 123, 0
8, 29974, Note_on_c, 6, 50, 86
8, 30005, Note_on_c, 6, 48, 118
8, 30010, Note_on_c, 6, 50, 0
8, 30031, Note_on_c, 6, 48, 0
8, 30031, Control_c, 6, 123, 0
8, 30035, Note_on_c, 6, 45, 80
8, 30063, Note_on_c, 6, 45, 0
8, 30063, Control_c, 6, 123, 0
8, 30065, Note_on_c, 6, 43, 70
8, 30087, Note_on_c, 6, 43, 0
8, 30087, Control_c, 6, 123, 0
8, 30092, Note_on_c, 6, 48, 106
8, 30126, Note_on_c, 6, 45, 113
8, 30130, Note_on_c, 6, 47, 56
8, 30134, Note_on_c, 6, 48, 0
8, 30141, Note_on_c, 6, 47, 0
8, 30148, Note_on_c, 6, 45, 0
8, 30148, Control_c, 6, 123, 0
8, 30150, Note_on_c, 6, 43, 63
8, 30178, Note_on_c, 6, 43, 0
8, 30178, Control_c, 6, 123, 0
8, 30184, Note_on_c, 6, 41, 75
8, 30204, Note_on_c, 6, 41, 0
8, 30204, Control_c, 6, 123, 0
8, 30537, Note_on_c, 6, 72, 126
8, 30563, Note_on_c, 6, 72, 0
8, 30563, Control_c, 6, 123, 0
8, 30566, Note_on_c, 6, 74, 127
8, 30588, Note_on_c, 6, 74, 0
8, 30588, Control_c, 6, 123, 0
8, 30597, Note_on_c, 6, 71, 68
8, 30620, Note_on_c, 6, 71, 0
8, 30620, Control_c, 6, 123, 0
8, 30623, Note_on_c, 6, 72, 83
8, 30649, Note_on_c, 6, 72, 0
8, 30649, Control_c, 6, 123, 0
8, 30657, Note_on_c, 6, 69, 97
8, 30684, Note_on_c, 6, 69, 0
8, 30685, Control_c, 6, 123, 0
8, 30686, Note_on_c, 6, 71, 62
8, 30712, Note_on_c, 6, 71, 0
8, 30712, Control_c, 6, 123, 0
8, 30719, Note_on_c, 6, 67, 84
8, 30747, Note_on_c, 6, 67, 0
8, 30747, Control_c, 6, 123, 0
8, 30749, Note_on_c, 6, 69, 82
8, 30776, Note_on_c, 6, 69, 0
8, 30776, Control_c, 6, 123, 0
8, 30781, Note_on_c, 6, 65, 118
8, 30806, Note_on_c, 6, 65, 0
8, 30807, Control_c, 6, 123, 0
8, 30808, Note_on_c, 6, 67, 84
8, 30834, Note_on_c, 6, 67, 0
8, 30834, Control_c, 6, 123, 0
8, 30841, Note_on_c, 6, 64, 92
8, 30868, Note_on_c, 6, 64, 0
8, 30868, Control_c, 6, 123, 0
8, 30872, Note_on_c, 6, 65, 100
8, 30892, Note_on_c, 6, 65, 0
8, 30892, Control_c, 6, 123, 0
8, 30902, Note_on_c, 6, 62, 97
8, 30931, Note_on_c, 6, 62, 0
8, 30931, Control_c, 6, 123, 0
8, 30931, Note_on_c, 6, 64, 90
8, 30957, Note_on_c, 6, 64, 0
8, 30957, Control_c, 6, 123, 0
8, 30962, Note_on_c, 6, 60, 112
8, 30986, Note_on_c, 6, 60, 0
8, 30986, Control_c, 6, 123, 0
8, 30991, Note_on_c, 6, 62, 82
8, 31013, Note_on_c, 6, 62, 0
8, 31013, Control_c, 6, 123, 0
8, 31021, Note_on_c, 6, 59, 84
8, 31050, Note_on_c, 6, 59, 0
8, 31050, Control_c, 6, 123, 0
8, 31052, Note_on_c, 6, 60, 106
8, 31072, Note_on_c, 6, 60, 0
8, 31072, Control_c, 6, 123, 0
8, 31084, Note_on_c, 6, 57, 113
8, 31110, Note_on_c, 6, 57, 0
8, 31110, Note_on_c, 6, 59, 86
8, 31132, Note_on_c, 6, 59, 0
8, 31132, Control_c, 6, 123, 0
8, 31139, Note_on_c, 6, 55, 92
8, 31167, Note_on_c, 6, 55, 0
8, 31167, Control_c, 6, 123, 0
8, 31169, Note_on_c, 6, 57, 92
8, 31193, Note_on_c, 6, 57, 0
8, 31193, Control_c, 6, 123, 0
8, 31198, Note_on_c, 6, 53, 118
8, 31225, Note_on_c, 6, 53, 0
8, 31226, Control_c, 6, 123, 0
8, 31227, Note_on_c, 6, 55, 90
8, 31249, Note_on_c, 6, 55, 0
8, 31250, Control_c, 6, 123, 0
8, 31258, Note_on_c, 6, 52, 92
8, 31285, Note_on_c, 6, 52, 0
8, 31285, Control_c, 6, 123, 0
8, 31287, Note_on_c, 6, 53, 100
8, 31309, Note_on_c, 6, 53, 0
8, 31309, Control_c, 6, 123, 0
8, 31320, Note_on_c, 6, 50, 117
8, 31345, Note_on_c, 6, 50, 0
8, 31345, Control_c, 6, 123, 0
8, 31347, Note_on_c, 6, 52, 97
8, 31369, Note_on_c, 6, 52, 0
8, 31369, Control_c, 6, 123, 0
8, 31379, Note_on_c, 6, 48, 112
8, 31401, Note_on_c, 6, 48, 0
8, 31401, Control_c, 6, 123, 0
8, 31405, Note_on_c, 6, 50, 106
8, 31428, Note_on_c, 6, 50, 0
8, 31428, Control_c, 6, 123, 0
8, 31437, Note_on_c, 6, 47, 97
8, 31462, Note_on_c, 6, 47, 0
8, 31463, Control_c, 6, 123, 0
8, 31468, Note_on_c, 6, 48, 106
8, 31488, Note_on_c, 6, 48, 0
8, 31488, Control_c, 6, 123, 0
8, 31500, Note_on_c, 6, 45, 97
8, 31522, Note_on_c, 6, 45, 0
8, 31522, Control_c, 6, 123, 0
8, 31526, Note_on_c, 6, 47, 95
8, 31549, Note_on_c, 6, 47, 0
8, 31549, Control_c, 6, 123, 0
8, 31556, Note_on_c, 6, 43, 100
8, 31578, Note_on_c, 6, 43, 0
8, 31578, Control_c, 6, 123, 0
8, 31583, Note_on_c, 6, 45, 103
8, 31607, Note_on_c, 6, 45, 0
8, 31608, Control_c, 6, 123, 0
8, 31613, Note_on_c, 6, 41, 112
8, 31633, Note_on_c, 6, 41, 0
8, 31633, Control_c, 6, 123, 0
8, 31647, Note_on_c, 6, 43, 117
8, 31667, Note_on_c, 6, 43, 0
8, 31667, Control_c, 6, 123, 0
8, 51360, Control_c, 6, 7, 115
8, 51406, Control_c, 6, 7, 114
8, 51452, Control_c, 6, 7, 113
8, 51498, Control_c, 6, 7, 112
8, 51544, Control_c, 6, 7, 111
8, 51590, Control_c, 6, 7, 110
8, 51635, Control_c, 6, 7, 109
8, 51681, Control_c, 6, 7, 108
8, 51727, Control_c, 6, 7, 107
8, 51773, Control_c, 6, 7, 106
8, 51819, Control_c, 6, 7, 105
8, 51865, Control_c, 6, 7, 104
8, 51911, Control_c, 6, 7, 103
8, 51957, Control_c, 6, 7, 102
8, 52003, Control_c, 6, 7, 101
8, 52049, Control_c, 6, 7, 100
8, 52095, Control_c, 6, 7, 99
8, 52141, Control_c, 6, 7, 98
8, 52186, Control_c, 6, 7, 97
8, 52232, Control_c, 6, 7, 96
8, 52278, Control_c, 6, 7, 95
8, 52324, Control_c, 6, 7, 94
8, 52370, Control_c, 6, 7, 93
8, 52416, Control_c, 6, 7, 92
8, 52462, Control_c, 6, 7, 91
8, 52508, Control_c, 6, 7, 90
8, 52554, Control_c, 6, 7, 89
8, 52600, Control_c, 6, 7, 88
8, 52646, Control_c, 6, 7, 87
8, 52691, Control_c, 6, 7, 86
8, 52737, Control_c, 6, 7, 85
8, 52783, Control_c, 6, 7, 84
8, 52829, Control_c, 6, 7, 83
8, 52875, Control_c, 6, 7, 82
8, 52921, Control_c, 6, 7, 81
8, 52967, Control_c, 6, 7, 80
8, 53013, Control_c, 6, 7, 79
8, 53059, Control_c, 6, 7, 78
8, 53105, Control_c, 6, 7, 77
8, 53151, Control_c, 6, 7, 76
8, 53197, Control_c, 6, 7, 75
8, 53242, Control_c, 6, 7, 74
8, 53288, Control_c, 6, 7, 73
8, 53334, Control_c, 6, 7, 72
8, 53380, Control_c, 6, 7, 71
8, 53426, Control_c, 6, 7, 70
8, 53472, Control_c, 6, 7, 69
8, 53518, Control_c, 6, 7, 68
8, 53564, Control_c, 6, 7, 67
8, 53610, Control_c, 6, 7, 66
8, 53656, Control_c, 6, 7, 65
8, 53702, Control_c, 6, 7, 64
8, 53747, Control_c, 6, 7, 63
8, 53793, Control_c, 6, 7, 62
8, 53839, Control_c, 6, 7, 61
8, 53885, Control_c, 6, 7, 60
8, 53931, Control_c, 6, 7, 59
8, 53977, Control_c, 6, 7, 58
8, 54023, Control_c, 6, 7, 57
8, 54069, Control_c, 6, 7, 56
8, 54115, Control_c, 6, 7, 55
8, 54161, Control_c, 6, 7, 54
8, 54207, Control_c, 6, 7, 53
8, 54253, Control_c, 6, 7, 52
8, 54298, Control_c, 6, 7, 51
8, 54344, Control_c, 6, 7, 50
8, 54390, Control_c, 6, 7, 49
8, 54436, Control_c, 6, 7, 48
8, 54482, Control_c, 6, 7, 47
8, 54528, Control_c, 6, 7, 46
8, 54574, Control_c, 6, 7, 45
8, 54620, Control_c, 6, 7, 44
8, 54666, Control_c, 6, 7, 43
8, 54712, Control_c, 6, 7, 42
8, 54758, Control_c, 6, 7, 41
8, 54803, Control_c, 6, 7, 40
8, 54849, Control_c, 6, 7, 39
8, 54895, Control_c, 6, 7, 38
8, 54941, Control_c, 6, 7, 37
8, 54987, Control_c, 6, 7, 36
8, 55033, Control_c, 6, 7, 35
8, 55079, Control_c, 6, 7, 34
8, 55125, Control_c, 6, 7, 33
8, 55171, Control_c, 6, 7, 32
8, 55217, Control_c, 6, 7, 31
8, 55263, Control_c, 6, 7, 30
8, 55309, Control_c, 6, 7, 29
8, 55354, Control_c, 6, 7, 28
8, 55400, Control_c, 6, 7, 27
8, 55446, Control_c, 6, 7, 26
8, 55492, Control_c, 6, 7, 25
8, 55538, Control_c, 6, 7, 24
8, 55584, Control_c, 6, 7, 23
8, 55630, Control_c, 6, 7, 22
8, 55676, Control_c, 6, 7, 21
8, 55722, Control_c, 6, 7, 20
8, 55768, Control_c, 6, 7, 19
8, 55814, Control_c, 6, 7, 18
8, 55859, Control_c, 6, 7, 17
8, 55905, Control_c, 6, 7, 16
8, 55951, Control_c, 6, 7, 15
8, 55997, Control_c, 6, 7, 14
8, 56043, Control_c, 6, 7, 13
8, 56089, Control_c, 6, 7, 12
8, 56135, Control_c, 6, 7, 11
8, 56181, Control_c, 6, 7, 10
8, 56227, Control_c, 6, 7, 9
8, 56273, Control_c, 6, 7, 8
8, 56319, Control_c, 6, 7, 7
8, 56365, Control_c, 6, 7, 6
8, 56410, Control_c, 6, 7, 5
8, 56456, Control_c, 6, 7, 4
8, 56502, Control_c, 6, 7, 3
8, 56548, Control_c, 6, 7, 2
8, 56594, Control_c, 6, 7, 1
8, 56640, Control_c, 6, 7, 0
8, 56640, End_track
9, 0, Start_track
9, 0, MIDI_port, 0
9, 0, Title_t, "WAR"
9, 0, Program_c, 7, 95
9, 27835, Control_c, 7, 7, 127
9, 27835, Note_on_c, 7, 60, 81
9, 27835, Note_on_c, 7, 57, 75
9, 27836, Note_on_c, 7, 64, 64
9, 27838, Note_on_c, 7, 53, 70
9, 27840, Note_on_c, 7, 62, 68
9, 27866, Note_on_c, 7, 62, 0
9, 28747, Note_on_c, 7, 57, 0
9, 28749, Note_on_c, 7, 53, 0
9, 28756, Note_on_c, 7, 60, 0
9, 28759, Note_on_c, 7, 64, 0
9, 28759, Control_c, 7, 123, 0
9, 28805, Note_on_c, 7, 62, 81
9, 28805, Note_on_c, 7, 58, 77
9, 28808, Note_on_c, 7, 65, 77
9, 28808, Note_on_c, 7, 55, 92
9, 29724, Note_on_c, 7, 58, 0
9, 29724, Note_on_c, 7, 65, 0
9, 29727, Note_on_c, 7, 62, 0
9, 29728, Note_on_c, 7, 55, 0
9, 29728, Control_c, 7, 123, 0
9, 29760, Note_on_c, 7, 64, 67
9, 29761, Note_on_c, 7, 60, 85
9, 29763, Note_on_c, 7, 57, 87
9, 29765, Note_on_c, 7, 53, 81
9, 30675, Note_on_c, 7, 57, 0
9, 30680, Note_on_c, 7, 53, 0
9, 30686, Note_on_c, 7, 64, 0
9, 30686, Note_on_c, 7, 60, 0
9, 30687, Control_c, 7, 123, 0
9, 30721, Note_on_c, 7, 62, 82
9, 30721, Note_on_c, 7, 58, 88
9, 30722, Note_on_c, 7, 65, 74
9, 30724, Note_on_c, 7, 55, 100
9, 30726, Note_on_c, 7, 64, 66
9, 30736, Note_on_c, 7, 64, 0
9, 31435, Note_on_c, 7, 67, 84
9, 31666, Note_on_c, 7, 55, 0
9, 31666, Note_on_c, 7, 67, 0
9, 31668, Note_on_c, 7, 62, 0
9, 31668, Note_on_c, 7, 58, 0
9, 31668, Note_on_c, 7, 65, 0
9, 31668, Control_c, 7, 123, 0
9, 51360, Control_c, 7, 7, 127
9, 51402, Control_c, 7, 7, 126
9, 51443, Control_c, 7, 7, 125
9, 51485, Control_c, 7, 7, 124
9, 51526, Control_c, 7, 7, 123
9, 51568, Control_c, 7, 7, 122
9, 51609, Control_c, 7, 7, 121
9, 51651, Control_c, 7, 7, 120
9, 51693, Control_c, 7, 7, 119
9, 51734, Control_c, 7, 7, 118
9, 51776, Control_c, 7, 7, 117
9, 51817, Control_c, 7, 7, 116
9, 51859, Control_c, 7, 7, 115
9, 51900, Control_c, 7, 7, 114
9, 51942, Control_c, 7, 7, 113
9, 51984, Control_c, 7, 7, 112
9, 52025, Control_c, 7, 7, 111
9, 52067, Control_c, 7, 7, 110
9, 52108, Control_c, 7, 7, 109
9, 52150, Control_c, 7, 7, 108
9, 52191, Control_c, 7, 7, 107
9, 52233, Control_c, 7, 7, 106
9, 52275, Control_c, 7, 7, 105
9, 52316, Control_c, 7, 7, 104
9, 52358, Control_c, 7, 7, 103
9, 52399, Control_c, 7, 7, 102
9, 52441, Control_c, 7, 7, 101
9, 52483, Control_c, 7, 7, 100
9, 52524, Control_c, 7, 7, 99
9, 52566, Control_c, 7, 7, 98
9, 52607, Control_c, 7, 7, 97
9, 52649, Control_c, 7, 7, 96
9, 52690, Control_c, 7, 7, 95
9, 52732, Control_c, 7, 7, 94
9, 52774, Control_c, 7, 7, 93
9, 52815, Control_c, 7, 7, 92
9, 52857, Control_c, 7, 7, 91
9, 52898, Control_c, 7, 7, 90
9, 52940, Control_c, 7, 7, 89
9, 52981, Control_c, 7, 7, 88
9, 53023, Control_c, 7, 7, 87
9, 53065, Control_c, 7, 7, 86
9, 53106, Control_c, 7, 7, 85
9, 53148, Control_c, 7, 7, 84
9, 53189, Control_c, 7, 7, 83
9, 53231, Control_c, 7, 7, 82
9, 53272, Control_c, 7, 7, 81
9, 53314, Control_c, 7, 7, 80
9, 53356, Control_c, 7, 7, 79
9, 53397, Control_c, 7, 7, 78
9, 53439, Control_c, 7, 7, 77
9, 53480, Control_c, 7, 7, 76
9, 53522, Control_c, 7, 7, 75
9, 53563, Control_c, 7, 7, 74
9, 53605, Control_c, 7, 7, 73
9, 53647, Control_c, 7, 7, 72
9, 53688, Control_c, 7, 7, 71
9, 53730, Control_c, 7, 7, 70
9, 53771, Control_c, 7, 7, 69
9, 53813, Control_c, 7, 7, 68
9, 53854, Control_c, 7, 7, 67
9, 53896, Control_c, 7, 7, 66
9, 53938, Control_c, 7, 7, 65
9, 53979, Control_c, 7, 7, 64
9, 54021, Control_c, 7, 7, 63
9, 54062, Control_c, 7, 7, 62
9, 54104, Control_c, 7, 7, 61
9, 54146, Control_c, 7, 7, 60
9, 54187, Control_c, 7, 7, 59
9, 54229, Control_c, 7, 7, 58
9, 54270, Control_c, 7, 7, 57
9, 54312, Control_c, 7, 7, 56
9, 54353, Control_c, 7, 7, 55
9, 54395, Control_c, 7, 7, 54
9, 54437, Control_c, 7, 7, 53
9, 54478, Control_c, 7, 7, 52
9, 54520, Control_c, 7, 7, 51
9, 54561, Control_c, 7, 7, 50
9, 54603, Control_c, 7, 7, 49
9, 54644, Control_c, 7, 7, 48
9, 54686, Control_c, 7, 7, 47
9, 54728, Control_c, 7, 7, 46
9, 54769, Control_c, 7, 7, 45
9, 54811, Control_c, 7, 7, 44
9, 54852, Control_c, 7, 7, 43
9, 54894, Control_c, 7, 7, 42
9, 54935, Control_c, 7, 7, 41
9, 54977, Control_c, 7, 7, 40
9, 55019, Control_c, 7, 7, 39
9, 55060, Control_c, 7, 7, 38
9, 55102, Control_c, 7, 7, 37
9, 55143, Control_c, 7, 7, 36
9, 55185, Control_c, 7, 7, 35
9, 55226, Control_c, 7, 7, 34
9, 55268, Control_c, 7, 7, 33
9, 55310, Control_c, 7, 7, 32
9, 55351, Control_c, 7, 7, 31
9, 55393, Control_c, 7, 7, 30
9, 55434, Control_c, 7, 7, 29
9, 55476, Control_c, 7, 7, 28
9, 55517, Control_c, 7, 7, 27
9, 55559, Control_c, 7, 7, 26
9, 55601, Control_c, 7, 7, 25
9, 55642, Control_c, 7, 7, 24
9, 55684, Control_c, 7, 7, 23
9, 55725, Control_c, 7, 7, 22
9, 55767, Control_c, 7, 7, 21
9, 55809, Control_c, 7, 7, 20
9, 55850, Control_c, 7, 7, 19
9, 55892, Control_c, 7, 7, 18
9, 55933, Control_c, 7, 7, 17
9, 55975, Control_c, 7, 7, 16
9, 56016, Control_c, 7, 7, 15
9, 56058, Control_c, 7, 7, 14
9, 56100, Control_c, 7, 7, 13
9, 56141, Control_c, 7, 7, 12
9, 56183, Control_c, 7, 7, 11
9, 56224, Control_c, 7, 7, 10
9, 56266, Control_c, 7, 7, 9
9, 56307, Control_c, 7, 7, 8
9, 56349, Control_c, 7, 7, 7
9, 56391, Control_c, 7, 7, 6
9, 56432, Control_c, 7, 7, 5
9, 56474, Control_c, 7, 7, 4
9, 56515, Control_c, 7, 7, 3
9, 56557, Control_c, 7, 7, 2
9, 56598, Control_c, 7, 7, 1
9, 56640, Control_c, 7, 7, 0
9, 56640, End_track
10, 0, Start_track
10, 0, MIDI_port, 0
10, 0, Title_t, "............................"
10, 0, Program_c, 8, 35
10, 0, Control_c, 8, 7, 120
10, 9, Note_on_c, 8, 26, 98
10, 96, Note_on_c, 8, 26, 0
10, 97, Control_c, 8, 123, 0
10, 98, Note_on_c, 8, 33, 74
10, 111, Note_on_c, 8, 33, 0
10, 112, Control_c, 8, 123, 0
10, 127, Note_on_c, 8, 33, 107
10, 207, Note_on_c, 8, 33, 0
10, 207, Control_c, 8, 123, 0
10, 210, Note_on_c, 8, 38, 96
10, 226, Note_on_c, 8, 38, 0
10, 226, Control_c, 8, 123, 0
10, 240, Note_on_c, 8, 38, 90
10, 330, Note_on_c, 8, 33, 96
10, 335, Note_on_c, 8, 38, 0
10, 347, Note_on_c, 8, 33, 0
10, 347, Control_c, 8, 123, 0
10, 356, Note_on_c, 8, 33, 80
10, 449, Note_on_c, 8, 26, 81
10, 461, Note_on_c, 8, 26, 0
10, 471, Note_on_c, 8, 33, 0
10, 471, Control_c, 8, 123, 0
10, 479, Note_on_c, 8, 26, 107
10, 561, Note_on_c, 8, 26, 0
10, 561, Control_c, 8, 123, 0
10, 565, Note_on_c, 8, 33, 66
10, 579, Note_on_c, 8, 33, 0
10, 579, Control_c, 8, 123, 0
10, 597, Note_on_c, 8, 33, 105
10, 681, Note_on_c, 8, 33, 0
10, 681, Control_c, 8, 123, 0
10, 684, Note_on_c, 8, 38, 86
10, 701, Note_on_c, 8, 38, 0
10, 701, Control_c, 8, 123, 0
10, 716, Note_on_c, 8, 38, 92
10, 811, Note_on_c, 8, 33, 94
10, 815, Note_on_c, 8, 38, 0
10, 824, Note_on_c, 8, 33, 0
10, 824, Control_c, 8, 123, 0
10, 839, Note_on_c, 8, 33, 96
10, 928, Note_on_c, 8, 26, 76
10, 944, Note_on_c, 8, 26, 0
10, 950, Note_on_c, 8, 33, 0
10, 950, Control_c, 8, 123, 0
10, 961, Note_on_c, 8, 27, 90
10, 1038, Note_on_c, 8, 27, 0
10, 1038, Control_c, 8, 123, 0
10, 1049, Note_on_c, 8, 34, 96
10, 1062, Note_on_c, 8, 34, 0
10, 1062, Control_c, 8, 123, 0
10, 1077, Note_on_c, 8, 34, 100
10, 1156, Note_on_c, 8, 34, 0
10, 1156, Control_c, 8, 123, 0
10, 1168, Note_on_c, 8, 39, 85
10, 1183, Note_on_c, 8, 39, 0
10, 1183, Control_c, 8, 123, 0
10, 1196, Note_on_c, 8, 39, 100
10, 1291, Note_on_c, 8, 34, 79
10, 1296, Note_on_c, 8, 39, 0
10, 1303, Note_on_c, 8, 34, 0
10, 1303, Control_c, 8, 123, 0
10, 1317, Note_on_c, 8, 34, 79
10, 1405, Note_on_c, 8, 27, 77
10, 1419, Note_on_c, 8, 34, 0
10, 1419, Note_on_c, 8, 27, 0
10, 1419, Control_c, 8, 123, 0
10, 1438, Note_on_c, 8, 27, 93
10, 1526, Note_on_c, 8, 27, 0
10, 1526, Control_c, 8, 123, 0
10, 1529, Note_on_c, 8, 34, 87
10, 1539, Note_on_c, 8, 34, 0
10, 1540, Control_c, 8, 123, 0
10, 1560, Note_on_c, 8, 34, 105
10, 1640, Note_on_c, 8, 34, 0
10, 1641, Control_c, 8, 123, 0
10, 1647, Note_on_c, 8, 39, 90
10, 1663, Note_on_c, 8, 39, 0
10, 1663, Control_c, 8, 123, 0
10, 1677, Note_on_c, 8, 39, 96
10, 1771, Note_on_c, 8, 34, 110
10, 1772, Note_on_c, 8, 39, 0
10, 1782, Note_on_c, 8, 34, 0
10, 1782, Control_c, 8, 123, 0
10, 1797, Note_on_c, 8, 34, 100
10, 1860, Note_on_c, 8, 27, 87
10, 1866, Note_on_c, 8, 34, 0
10, 1883, Note_on_c, 8, 27, 0
10, 1883, Control_c, 8, 123, 0
10, 1888, Note_on_c, 8, 34, 83
10, 1914, Note_on_c, 8, 34, 0
10, 1915, Control_c, 8, 123, 0
10, 1919, Note_on_c, 8, 26, 105
10, 2001, Note_on_c, 8, 26, 0
10, 2001, Control_c, 8, 123, 0
10, 2001, Note_on_c, 8, 33, 92
10, 2016, Note_on_c, 8, 33, 0
10, 2016, Control_c, 8, 123, 0
10, 2031, Note_on_c, 8, 33, 98
10, 2118, Note_on_c, 8, 38, 89
10, 2122, Note_on_c, 8, 36, 81
10, 2124, Note_on_c, 8, 33, 0
10, 2127, Note_on_c, 8, 36, 0
10, 2133, Note_on_c, 8, 38, 0
10, 2133, Control_c, 8, 123, 0
10, 2151, Note_on_c, 8, 38, 105
10, 2243, Note_on_c, 8, 38, 0
10, 2243, Control_c, 8, 123, 0
10, 2243, Note_on_c, 8, 33, 100
10, 2259, Note_on_c, 8, 33, 0
10, 2259, Control_c, 8, 123, 0
10, 2273, Note_on_c, 8, 33, 105
10, 2363, Note_on_c, 8, 26, 96
10, 2378, Note_on_c, 8, 26, 0
10, 2385, Note_on_c, 8, 33, 0
10, 2385, Control_c, 8, 123, 0
10, 2396, Note_on_c, 8, 26, 102
10, 2483, Note_on_c, 8, 26, 0
10, 2483, Control_c, 8, 123, 0
10, 2485, Note_on_c, 8, 33, 86
10, 2500, Note_on_c, 8, 33, 0
10, 2500, Control_c, 8, 123, 0
10, 2518, Note_on_c, 8, 33, 105
10, 2602, Note_on_c, 8, 38, 87
10, 2608, Note_on_c, 8, 33, 0
10, 2619, Note_on_c, 8, 38, 0
10, 2619, Control_c, 8, 123, 0
10, 2635, Note_on_c, 8, 38, 102
10, 2733, Note_on_c, 8, 33, 110
10, 2745, Note_on_c, 8, 38, 0
10, 2763, Note_on_c, 8, 26, 83
10, 2765, Note_on_c, 8, 33, 0
10, 2788, Note_on_c, 8, 26, 0
10, 2788, Note_on_c, 8, 33, 76
10, 2819, Note_on_c, 8, 33, 0
10, 2819, Note_on_c, 8, 38, 102
10, 2847, Note_on_c, 8, 33, 98
10, 2855, Note_on_c, 8, 38, 0
10, 2877, Note_on_c, 8, 33, 0
10, 2877, Control_c, 8, 123, 0
10, 2878, Note_on_c, 8, 27, 110
10, 2962, Note_on_c, 8, 34, 83
10, 2965, Note_on_c, 8, 27, 0
10, 2977, Note_on_c, 8, 34, 0
10, 2977, Control_c, 8, 123, 0
10, 2994, Note_on_c, 8, 34, 116
10, 3078, Note_on_c, 8, 34, 0
10, 3078, Control_c, 8, 123, 0
10, 3081, Note_on_c, 8, 39, 83
10, 3097, Note_on_c, 8, 39, 0
10, 3097, Control_c, 8, 123, 0
10, 3112, Note_on_c, 8, 39, 96
10, 3209, Note_on_c, 8, 39, 0
10, 3209, Note_on_c, 8, 34, 85
10, 3222, Note_on_c, 8, 34, 0
10, 3222, Control_c, 8, 123, 0
10, 3236, Note_on_c, 8, 34, 85
10, 3323, Note_on_c, 8, 34, 0
10, 3323, Note_on_c, 8, 27, 93
10, 3336, Note_on_c, 8, 27, 0
10, 3336, Control_c, 8, 123, 0
10, 3359, Note_on_c, 8, 27, 110
10, 3433, Note_on_c, 8, 27, 0
10, 3433, Control_c, 8, 123, 0
10, 3442, Note_on_c, 8, 34, 96
10, 3456, Note_on_c, 8, 34, 0
10, 3456, Control_c, 8, 123, 0
10, 3475, Note_on_c, 8, 34, 105
10, 3558, Note_on_c, 8, 34, 0
10, 3558, Control_c, 8, 123, 0
10, 3569, Note_on_c, 8, 39, 96
10, 3585, Note_on_c, 8, 39, 0
10, 3585, Control_c, 8, 123, 0
10, 3597, Note_on_c, 8, 39, 83
10, 3690, Note_on_c, 8, 34, 110
10, 3691, Note_on_c, 8, 39, 0
10, 3704, Note_on_c, 8, 34, 0
10, 3704, Control_c, 8, 123, 0
10, 3716, Note_on_c, 8, 34, 90
10, 3806, Note_on_c, 8, 27, 100
10, 3821, Note_on_c, 8, 34, 0
10, 3823, Note_on_c, 8, 27, 0
10, 3823, Control_c, 8, 123, 0
10, 3839, Note_on_c, 8, 26, 92
10, 3918, Note_on_c, 8, 33, 92
10, 3920, Note_on_c, 8, 26, 0
10, 3933, Note_on_c, 8, 33, 0
10, 3933, Control_c, 8, 123, 0
10, 3949, Note_on_c, 8, 33, 105
10, 4038, Note_on_c, 8, 38, 86
10, 4043, Note_on_c, 8, 33, 0
10, 4055, Note_on_c, 8, 38, 0
10, 4055, Control_c, 8, 123, 0
10, 4073, Note_on_c, 8, 38, 98
10, 4168, Note_on_c, 8, 33, 80
10, 4178, Note_on_c, 8, 38, 0
10, 4184, Note_on_c, 8, 33, 0
10, 4184, Control_c, 8, 123, 0
10, 4198, Note_on_c, 8, 33, 100
10, 4289, Note_on_c, 8, 26, 84
10, 4303, Note_on_c, 8, 26, 0
10, 4309, Note_on_c, 8, 33, 0
10, 4309, Control_c, 8, 123, 0
10, 4322, Note_on_c, 8, 26, 107
10, 4407, Note_on_c, 8, 26, 0
10, 4407, Control_c, 8, 123, 0
10, 4407, Note_on_c, 8, 33, 86
10, 4419, Note_on_c, 8, 33, 0
10, 4419, Control_c, 8, 123, 0
10, 4434, Note_on_c, 8, 33, 96
10, 4524, Note_on_c, 8, 38, 90
10, 4525, Note_on_c, 8, 33, 0
10, 4541, Note_on_c, 8, 38, 0
10, 4541, Control_c, 8, 123, 0
10, 4556, Note_on_c, 8, 38, 98
10, 4646, Note_on_c, 8, 33, 100
10, 4656, Note_on_c, 8, 38, 0
10, 4661, Note_on_c, 8, 33, 0
10, 4662, Control_c, 8, 123, 0
10, 4673, Note_on_c, 8, 33, 98
10, 4761, Note_on_c, 8, 38, 102
10, 4774, Note_on_c, 8, 33, 0
10, 4796, Note_on_c, 8, 27, 93
10, 4800, Note_on_c, 8, 38, 0
10, 4886, Note_on_c, 8, 34, 77
10, 4890, Note_on_c, 8, 27, 0
10, 4898, Note_on_c, 8, 34, 0
10, 4898, Control_c, 8, 123, 0
10, 4920, Note_on_c, 8, 34, 116
10, 4997, Note_on_c, 8, 34, 0
10, 4998, Control_c, 8, 123, 0
10, 5001, Note_on_c, 8, 39, 90
10, 5018, Note_on_c, 8, 39, 0
10, 5019, Control_c, 8, 123, 0
10, 5035, Note_on_c, 8, 39, 100
10, 5131, Note_on_c, 8, 39, 0
10, 5131, Note_on_c, 8, 34, 85
10, 5142, Note_on_c, 8, 34, 0
10, 5142, Control_c, 8, 123, 0
10, 5160, Note_on_c, 8, 34, 81
10, 5245, Note_on_c, 8, 27, 79
10, 5247, Note_on_c, 8, 34, 0
10, 5259, Note_on_c, 8, 27, 0
10, 5259, Control_c, 8, 123, 0
10, 5278, Note_on_c, 8, 27, 105
10, 5359, Note_on_c, 8, 27, 0
10, 5359, Control_c, 8, 123, 0
10, 5365, Note_on_c, 8, 34, 90
10, 5377, Note_on_c, 8, 34, 0
10, 5377, Control_c, 8, 123, 0
10, 5395, Note_on_c, 8, 34, 105
10, 5472, Note_on_c, 8, 34, 0
10, 5472, Control_c, 8, 123, 0
10, 5484, Note_on_c, 8, 39, 87
10, 5500, Note_on_c, 8, 39, 0
10, 5500, Control_c, 8, 123, 0
10, 5515, Note_on_c, 8, 39, 90
10, 5610, Note_on_c, 8, 39, 0
10, 5610, Control_c, 8, 123, 0
10, 5610, Note_on_c, 8, 34, 105
10, 5624, Note_on_c, 8, 34, 0
10, 5624, Control_c, 8, 123, 0
10, 5637, Note_on_c, 8, 34, 83
10, 5724, Note_on_c, 8, 27, 87
10, 5731, Note_on_c, 8, 34, 0
10, 5741, Note_on_c, 8, 27, 0
10, 5741, Control_c, 8, 123, 0
10, 5757, Note_on_c, 8, 26, 105
10, 5838, Note_on_c, 8, 26, 0
10, 5838, Note_on_c, 8, 33, 83
10, 5853, Note_on_c, 8, 33, 0
10, 5853, Control_c, 8, 123, 0
10, 5869, Note_on_c, 8, 33, 90
10, 5958, Note_on_c, 8, 33, 0
10, 5958, Control_c, 8, 123, 0
10, 5958, Note_on_c, 8, 38, 81
10, 5975, Note_on_c, 8, 38, 0
10, 5975, Control_c, 8, 123, 0
10, 5991, Note_on_c, 8, 38, 84
10, 6085, Note_on_c, 8, 33, 94
10, 6088, Note_on_c, 8, 38, 0
10, 6100, Note_on_c, 8, 33, 0
10, 6100, Control_c, 8, 123, 0
10, 6113, Note_on_c, 8, 33, 98
10, 6202, Note_on_c, 8, 26, 83
10, 6218, Note_on_c, 8, 26, 0
10, 6220, Note_on_c, 8, 33, 0
10, 6220, Control_c, 8, 123, 0
10, 6235, Note_on_c, 8, 26, 100
10, 6322, Note_on_c, 8, 26, 0
10, 6322, Control_c, 8, 123, 0
10, 6322, Note_on_c, 8, 33, 90
10, 6339, Note_on_c, 8, 33, 0
10, 6339, Control_c, 8, 123, 0
10, 6355, Note_on_c, 8, 33, 92
10, 6434, Note_on_c, 8, 33, 0
10, 6434, Control_c, 8, 123, 0
10, 6442, Note_on_c, 8, 38, 102
10, 6458, Note_on_c, 8, 38, 0
10, 6458, Control_c, 8, 123, 0
10, 6473, Note_on_c, 8, 38, 100
10, 6562, Note_on_c, 8, 38, 0
10, 6562, Control_c, 8, 123, 0
10, 6567, Note_on_c, 8, 33, 84
10, 6586, Note_on_c, 8, 33, 0
10, 6586, Control_c, 8, 123, 0
10, 6595, Note_on_c, 8, 33, 77
10, 6659, Note_on_c, 8, 26, 94
10, 6662, Note_on_c, 8, 33, 0
10, 6684, Note_on_c, 8, 26, 0
10, 6684, Control_c, 8, 123, 0
10, 6687, Note_on_c, 8, 33, 96
10, 6712, Note_on_c, 8, 33, 0
10, 6713, Control_c, 8, 123, 0
10, 6719, Note_on_c, 8, 27, 96
10, 6805, Note_on_c, 8, 27, 0
10, 6805, Control_c, 8, 123, 0
10, 6806, Note_on_c, 8, 34, 87
10, 6820, Note_on_c, 8, 34, 0
10, 6820, Control_c, 8, 123, 0
10, 6838, Note_on_c, 8, 34, 100
10, 6916, Note_on_c, 8, 34, 0
10, 6917, Control_c, 8, 123, 0
10, 6923, Note_on_c, 8, 39, 90
10, 6940, Note_on_c, 8, 39, 0
10, 6941, Control_c, 8, 123, 0
10, 6954, Note_on_c, 8, 39, 110
10, 7047, Note_on_c, 8, 34, 90
10, 7055, Note_on_c, 8, 39, 0
10, 7061, Note_on_c, 8, 34, 0
10, 7061, Control_c, 8, 123, 0
10, 7079, Note_on_c, 8, 34, 96
10, 7163, Note_on_c, 8, 34, 0
10, 7163, Control_c, 8, 123, 0
10, 7165, Note_on_c, 8, 27, 85
10, 7180, Note_on_c, 8, 27, 0
10, 7180, Control_c, 8, 123, 0
10, 7197, Note_on_c, 8, 27, 105
10, 7283, Note_on_c, 8, 27, 0
10, 7284, Control_c, 8, 123, 0
10, 7287, Note_on_c, 8, 34, 71
10, 7297, Note_on_c, 8, 34, 0
10, 7297, Control_c, 8, 123, 0
10, 7318, Note_on_c, 8, 34, 105
10, 7401, Note_on_c, 8, 34, 0
10, 7401, Control_c, 8, 123, 0
10, 7406, Note_on_c, 8, 39, 93
10, 7424, Note_on_c, 8, 39, 0
10, 7424, Control_c, 8, 123, 0
10, 7437, Note_on_c, 8, 39, 96
10, 7500, Note_on_c, 8, 38, 127
10, 7523, Note_on_c, 8, 39, 0
10, 7523, Control_c, 8, 123, 0
10, 7526, Note_on_c, 8, 38, 0
10, 7526, Control_c, 8, 123, 0
10, 7526, Note_on_c, 8, 34, 83
10, 7535, Note_on_c, 8, 34, 0
10, 7535, Control_c, 8, 123, 0
10, 7557, Note_on_c, 8, 34, 100
10, 7560, Note_on_c, 8, 41, 123
10, 7586, Note_on_c, 8, 41, 0
10, 7586, Control_c, 8, 123, 0
10, 7619, Note_on_c, 8, 34, 0
10, 7619, Control_c, 8, 123, 0
10, 7620, Note_on_c, 8, 45, 110
10, 7623, Note_on_c, 8, 27, 77
10, 7644, Note_on_c, 8, 27, 0
10, 7644, Control_c, 8, 123, 0
10, 7648, Note_on_c, 8, 45, 0
10, 7649, Control_c, 8, 123, 0
10, 7653, Note_on_c, 8, 34, 87
10, 7668, Note_on_c, 8, 34, 0
10, 7668, Control_c, 8, 123, 0
10, 7980, Note_on_c, 8, 38, 116
10, 8005, Control_c, 8, 123, 0
10, 8008, Note_on_c, 8, 38, 0
10, 8040, Note_on_c, 8, 41, 119
10, 8063, Control_c, 8, 123, 0
10, 8065, Note_on_c, 8, 41, 0
10, 8100, Note_on_c, 8, 45, 113
10, 8123, Control_c, 8, 123, 0
10, 8125, Note_on_c, 8, 45, 0
10, 8460, Note_on_c, 8, 38, 110
10, 8494, Note_on_c, 8, 38, 0
10, 8494, Control_c, 8, 123, 0
10, 8520, Note_on_c, 8, 41, 119
10, 8551, Note_on_c, 8, 41, 0
10, 8552, Control_c, 8, 123, 0
10, 8580, Note_on_c, 8, 43, 123
10, 8605, Note_on_c, 8, 43, 0
10, 8605, Control_c, 8, 123, 0
10, 8940, Note_on_c, 8, 38, 105
10, 8984, Control_c, 8, 123, 0
10, 8985, Note_on_c, 8, 38, 0
10, 9000, Note_on_c, 8, 41, 107
10, 9028, Control_c, 8, 123, 0
10, 9031, Note_on_c, 8, 41, 0
10, 9060, Note_on_c, 8, 43, 102
10, 9092, Control_c, 8, 123, 0
10, 9096, Note_on_c, 8, 43, 0
10, 9120, Note_on_c, 8, 45, 105
10, 9240, Note_on_c, 8, 43, 102
10, 9246, Note_on_c, 8, 45, 0
10, 9300, Note_on_c, 8, 41, 100
10, 9316, Note_on_c, 8, 43, 0
10, 9360, Note_on_c, 8, 43, 102
10, 9368, Note_on_c, 8, 41, 0
10, 9420, Note_on_c, 8, 38, 105
10, 9424, Note_on_c, 8, 43, 0
10, 9480, Note_on_c, 8, 41, 113
10, 9497, Note_on_c, 8, 38, 0
10, 9512, Note_on_c, 8, 41, 0
10, 9515, Control_c, 8, 123, 0
10, 9540, Note_on_c, 8, 45, 105
10, 9566, Note_on_c, 8, 45, 0
10, 9567, Control_c, 8, 123, 0
10, 9900, Note_on_c, 8, 38, 107
10, 9947, Control_c, 8, 123, 0
10, 9948, Note_on_c, 8, 38, 0
10, 9960, Note_on_c, 8, 41, 113
10, 9985, Note_on_c, 8, 41, 0
10, 9985, Control_c, 8, 123, 0
10, 10020, Note_on_c, 8, 45, 105
10, 10041, Control_c, 8, 123, 0
10, 10045, Note_on_c, 8, 45, 0
10, 10380, Note_on_c, 8, 38, 102
10, 10422, Control_c, 8, 123, 0
10, 10428, Note_on_c, 8, 38, 0
10, 10440, Note_on_c, 8, 41, 113
10, 10468, Control_c, 8, 123, 0
10, 10470, Note_on_c, 8, 41, 0
10, 10500, Note_on_c, 8, 43, 119
10, 10519, Control_c, 8, 123, 0
10, 10523, Note_on_c, 8, 43, 0
10, 10860, Note_on_c, 8, 38, 98
10, 10900, Control_c, 8, 123, 0
10, 10905, Note_on_c, 8, 38, 0
10, 10920, Note_on_c, 8, 41, 100
10, 10942, Control_c, 8, 123, 0
10, 10945, Note_on_c, 8, 41, 0
10, 10980, Note_on_c, 8, 43, 100
10, 11009, Control_c, 8, 123, 0
10, 11016, Note_on_c, 8, 43, 0
10, 11040, Note_on_c, 8, 45, 94
10, 11160, Note_on_c, 8, 43, 92
10, 11162, Note_on_c, 8, 45, 0
10, 11220, Note_on_c, 8, 41, 102
10, 11228, Note_on_c, 8, 43, 0
10, 11277, Control_c, 8, 123, 0
10, 11279, Note_on_c, 8, 41, 0
10, 11280, Note_on_c, 8, 43, 113
10, 11340, Note_on_c, 8, 41, 127
10, 11347, Note_on_c, 8, 43, 0
10, 12005, Note_on_c, 8, 41, 0
10, 12007, Control_c, 8, 123, 0
10, 12009, Note_on_c, 8, 26, 98
10, 12096, Note_on_c, 8, 26, 0
10, 12097, Control_c, 8, 123, 0
10, 12098, Note_on_c, 8, 33, 74
10, 12111, Note_on_c, 8, 33, 0
10, 12112, Control_c, 8, 123, 0
10, 12127, Note_on_c, 8, 33, 107
10, 12207, Note_on_c, 8, 33, 0
10, 12207, Control_c, 8, 123, 0
10, 12210, Note_on_c, 8, 38, 96
10, 12226, Note_on_c, 8, 38, 0
10, 12226, Control_c, 8, 123, 0
10, 12240, Note_on_c, 8, 38, 90
10, 12330, Note_on_c, 8, 33, 96
10, 12335, Note_on_c, 8, 38, 0
10, 12347, Note_on_c, 8, 33, 0
10, 12347, Control_c, 8, 123, 0
10, 12356, Note_on_c, 8, 33, 80
10, 12449, Note_on_c, 8, 26, 81
10, 12461, Note_on_c, 8, 26, 0
10, 12471, Note_on_c, 8, 33, 0
10, 12471, Control_c, 8, 123, 0
10, 12479, Note_on_c, 8, 26, 107
10, 12561, Note_on_c, 8, 26, 0
10, 12561, Control_c, 8, 123, 0
10, 12565, Note_on_c, 8, 33, 66
10, 12579, Note_on_c, 8, 33, 0
10, 12579, Control_c, 8, 123, 0
10, 12597, Note_on_c, 8, 33, 105
10, 12681, Note_on_c, 8, 33, 0
10, 12681, Control_c, 8, 123, 0
10, 12684, Note_on_c, 8, 38, 86
10, 12701, Note_on_c, 8, 38, 0
10, 12701, Control_c, 8, 123, 0
10, 12716, Note_on_c, 8, 38, 92
10, 12811, Note_on_c, 8, 33, 94
10, 12815, Note_on_c, 8, 38, 0
10, 12824, Note_on_c, 8, 33, 0
10, 12824, Control_c, 8, 123, 0
10, 12839, Note_on_c, 8, 33, 96
10, 12928, Note_on_c, 8, 26, 76
10, 12944, Note_on_c, 8, 26, 0
10, 12950, Note_on_c, 8, 33, 0
10, 12950, Control_c, 8, 123, 0
10, 12961, Note_on_c, 8, 27, 90
10, 13038, Note_on_c, 8, 27, 0
10, 13038, Control_c, 8, 123, 0
10, 13049, Note_on_c, 8, 34, 96
10, 13062, Note_on_c, 8, 34, 0
10, 13062, Control_c, 8, 123, 0
10, 13077, Note_on_c, 8, 34, 100
10, 13156, Note_on_c, 8, 34, 0
10, 13156, Control_c, 8, 123, 0
10, 13168, Note_on_c, 8, 39, 85
10, 13183, Note_on_c, 8, 39, 0
10, 13183, Control_c, 8, 123, 0
10, 13196, Note_on_c, 8, 39, 100
10, 13291, Note_on_c, 8, 34, 79
10, 13296, Note_on_c, 8, 39, 0
10, 13303, Note_on_c, 8, 34, 0
10, 13303, Control_c, 8, 123, 0
10, 13317, Note_on_c, 8, 34, 79
10, 13405, Note_on_c, 8, 27, 77
10, 13419, Note_on_c, 8, 34, 0
10, 13419, Note_on_c, 8, 27, 0
10, 13419, Control_c, 8, 123, 0
10, 13438, Note_on_c, 8, 27, 93
10, 13526, Note_on_c, 8, 27, 0
10, 13526, Control_c, 8, 123, 0
10, 13529, Note_on_c, 8, 34, 87
10, 13539, Note_on_c, 8, 34, 0
10, 13540, Control_c, 8, 123, 0
10, 13560, Note_on_c, 8, 34, 105
10, 13640, Note_on_c, 8, 34, 0
10, 13641, Control_c, 8, 123, 0
10, 13647, Note_on_c, 8, 39, 90
10, 13663, Note_on_c, 8, 39, 0
10, 13663, Control_c, 8, 123, 0
10, 13677, Note_on_c, 8, 39, 96
10, 13771, Note_on_c, 8, 34, 110
10, 13772, Note_on_c, 8, 39, 0
10, 13782, Note_on_c, 8, 34, 0
10, 13782, Control_c, 8, 123, 0
10, 13797, Note_on_c, 8, 34, 100
10, 13860, Note_on_c, 8, 27, 87
10, 13866, Note_on_c, 8, 34, 0
10, 13883, Note_on_c, 8, 27, 0
10, 13883, Control_c, 8, 123, 0
10, 13888, Note_on_c, 8, 34, 83
10, 13914, Note_on_c, 8, 34, 0
10, 13915, Control_c, 8, 123, 0
10, 13919, Note_on_c, 8, 26, 105
10, 14001, Note_on_c, 8, 26, 0
10, 14001, Control_c, 8, 123, 0
10, 14001, Note_on_c, 8, 33, 92
10, 14016, Note_on_c, 8, 33, 0
10, 14016, Control_c, 8, 123, 0
10, 14031, Note_on_c, 8, 33, 98
10, 14118, Note_on_c, 8, 38, 89
10, 14122, Note_on_c, 8, 36, 81
10, 14124, Note_on_c, 8, 33, 0
10, 14127, Note_on_c, 8, 36, 0
10, 14133, Note_on_c, 8, 38, 0
10, 14133, Control_c, 8, 123, 0
10, 14151, Note_on_c, 8, 38, 105
10, 14243, Note_on_c, 8, 38, 0
10, 14243, Control_c, 8, 123, 0
10, 14243, Note_on_c, 8, 33, 100
10, 14259, Note_on_c, 8, 33, 0
10, 14259, Control_c, 8, 123, 0
10, 14273, Note_on_c, 8, 33, 105
10, 14363, Note_on_c, 8, 26, 96
10, 14378, Note_on_c, 8, 26, 0
10, 14385, Note_on_c, 8, 33, 0
10, 14385, Control_c, 8, 123, 0
10, 14396, Note_on_c, 8, 26, 102
10, 14483, Note_on_c, 8, 26, 0
10, 14483, Control_c, 8, 123, 0
10, 14485, Note_on_c, 8, 33, 86
10, 14500, Note_on_c, 8, 33, 0
10, 14500, Control_c, 8, 123, 0
10, 14518, Note_on_c, 8, 33, 105
10, 14602, Note_on_c, 8, 38, 87
10, 14608, Note_on_c, 8, 33, 0
10, 14619, Note_on_c, 8, 38, 0
10, 14619, Control_c, 8, 123, 0
10, 14635, Note_on_c, 8, 38, 102
10, 14733, Note_on_c, 8, 33, 110
10, 14745, Note_on_c, 8, 38, 0
10, 14763, Note_on_c, 8, 26, 83
10, 14765, Note_on_c, 8, 33, 0
10, 14788, Note_on_c, 8, 26, 0
10, 14788, Note_on_c, 8, 33, 76
10, 14819, Note_on_c, 8, 33, 0
10, 14819, Note_on_c, 8, 38, 102
10, 14847, Note_on_c, 8, 33, 98
10, 14855, Note_on_c, 8, 38, 0
10, 14877, Note_on_c, 8, 33, 0
10, 14877, Control_c, 8, 123, 0
10, 14878, Note_on_c, 8, 27, 110
10, 14962, Note_on_c, 8, 34, 83
10, 14965, Note_on_c, 8, 27, 0
10, 14977, Note_on_c, 8, 34, 0
10, 14977, Control_c, 8, 123, 0
10, 14994, Note_on_c, 8, 34, 116
10, 15078, Note_on_c, 8, 34, 0
10, 15078, Control_c, 8, 123, 0
10, 15081, Note_on_c, 8, 39, 83
10, 15097, Note_on_c, 8, 39, 0
10, 15097, Control_c, 8, 123, 0
10, 15112, Note_on_c, 8, 39, 96
10, 15209, Note_on_c, 8, 39, 0
10, 15209, Note_on_c, 8, 34, 85
10, 15222, Note_on_c, 8, 34, 0
10, 15222, Control_c, 8, 123, 0
10, 15236, Note_on_c, 8, 34, 85
10, 15323, Note_on_c, 8, 34, 0
10, 15323, Note_on_c, 8, 27, 93
10, 15336, Note_on_c, 8, 27, 0
10, 15336, Control_c, 8, 123, 0
10, 15359, Note_on_c, 8, 27, 110
10, 15433, Note_on_c, 8, 27, 0
10, 15433, Control_c, 8, 123, 0
10, 15442, Note_on_c, 8, 34, 96
10, 15456, Note_on_c, 8, 34, 0
10, 15456, Control_c, 8, 123, 0
10, 15475, Note_on_c, 8, 34, 105
10, 15558, Note_on_c, 8, 34, 0
10, 15558, Control_c, 8, 123, 0
10, 15569, Note_on_c, 8, 39, 96
10, 15585, Note_on_c, 8, 39, 0
10, 15585, Control_c, 8, 123, 0
10, 15597, Note_on_c, 8, 39, 83
10, 15690, Note_on_c, 8, 34, 110
10, 15691, Note_on_c, 8, 39, 0
10, 15704, Note_on_c, 8, 34, 0
10, 15704, Control_c, 8, 123, 0
10, 15716, Note_on_c, 8, 34, 90
10, 15806, Note_on_c, 8, 27, 100
10, 15821, Note_on_c, 8, 34, 0
10, 15823, Note_on_c, 8, 27, 0
10, 15823, Control_c, 8, 123, 0
10, 15839, Note_on_c, 8, 26, 92
10, 15918, Note_on_c, 8, 33, 92
10, 15920, Note_on_c, 8, 26, 0
10, 15933, Note_on_c, 8, 33, 0
10, 15933, Control_c, 8, 123, 0
10, 15949, Note_on_c, 8, 33, 105
10, 16038, Note_on_c, 8, 38, 86
10, 16043, Note_on_c, 8, 33, 0
10, 16055, Note_on_c, 8, 38, 0
10, 16055, Control_c, 8, 123, 0
10, 16073, Note_on_c, 8, 38, 98
10, 16168, Note_on_c, 8, 33, 80
10, 16178, Note_on_c, 8, 38, 0
10, 16184, Note_on_c, 8, 33, 0
10, 16184, Control_c, 8, 123, 0
10, 16198, Note_on_c, 8, 33, 100
10, 16289, Note_on_c, 8, 26, 84
10, 16303, Note_on_c, 8, 26, 0
10, 16309, Note_on_c, 8, 33, 0
10, 16309, Control_c, 8, 123, 0
10, 16322, Note_on_c, 8, 26, 107
10, 16407, Note_on_c, 8, 26, 0
10, 16407, Control_c, 8, 123, 0
10, 16407, Note_on_c, 8, 33, 86
10, 16419, Note_on_c, 8, 33, 0
10, 16419, Control_c, 8, 123, 0
10, 16434, Note_on_c, 8, 33, 96
10, 16524, Note_on_c, 8, 38, 90
10, 16525, Note_on_c, 8, 33, 0
10, 16541, Note_on_c, 8, 38, 0
10, 16541, Control_c, 8, 123, 0
10, 16556, Note_on_c, 8, 38, 98
10, 16646, Note_on_c, 8, 33, 100
10, 16656, Note_on_c, 8, 38, 0
10, 16661, Note_on_c, 8, 33, 0
10, 16662, Control_c, 8, 123, 0
10, 16673, Note_on_c, 8, 33, 98
10, 16761, Note_on_c, 8, 38, 102
10, 16774, Note_on_c, 8, 33, 0
10, 16796, Note_on_c, 8, 27, 93
10, 16800, Note_on_c, 8, 38, 0
10, 16886, Note_on_c, 8, 34, 77
10, 16890, Note_on_c, 8, 27, 0
10, 16898, Note_on_c, 8, 34, 0
10, 16898, Control_c, 8, 123, 0
10, 16920, Note_on_c, 8, 34, 116
10, 16997, Note_on_c, 8, 34, 0
10, 16998, Control_c, 8, 123, 0
10, 17001, Note_on_c, 8, 39, 90
10, 17018, Note_on_c, 8, 39, 0
10, 17019, Control_c, 8, 123, 0
10, 17035, Note_on_c, 8, 39, 100
10, 17131, Note_on_c, 8, 39, 0
10, 17131, Note_on_c, 8, 34, 85
10, 17142, Note_on_c, 8, 34, 0
10, 17142, Control_c, 8, 123, 0
10, 17160, Note_on_c, 8, 34, 81
10, 17245, Note_on_c, 8, 27, 79
10, 17247, Note_on_c, 8, 34, 0
10, 17259, Note_on_c, 8, 27, 0
10, 17259, Control_c, 8, 123, 0
10, 17278, Note_on_c, 8, 27, 105
10, 17359, Note_on_c, 8, 27, 0
10, 17359, Control_c, 8, 123, 0
10, 17365, Note_on_c, 8, 34, 90
10, 17377, Note_on_c, 8, 34, 0
10, 17377, Control_c, 8, 123, 0
10, 17395, Note_on_c, 8, 34, 105
10, 17472, Note_on_c, 8, 34, 0
10, 17472, Control_c, 8, 123, 0
10, 17484, Note_on_c, 8, 39, 87
10, 17500, Note_on_c, 8, 39, 0
10, 17500, Control_c, 8, 123, 0
10, 17515, Note_on_c, 8, 39, 90
10, 17610, Note_on_c, 8, 39, 0
10, 17610, Control_c, 8, 123, 0
10, 17610, Note_on_c, 8, 34, 105
10, 17624, Note_on_c, 8, 34, 0
10, 17624, Control_c, 8, 123, 0
10, 17637, Note_on_c, 8, 34, 83
10, 17724, Note_on_c, 8, 27, 87
10, 17731, Note_on_c, 8, 34, 0
10, 17741, Note_on_c, 8, 27, 0
10, 17741, Control_c, 8, 123, 0
10, 17757, Note_on_c, 8, 26, 105
10, 17838, Note_on_c, 8, 26, 0
10, 17838, Note_on_c, 8, 33, 83
10, 17853, Note_on_c, 8, 33, 0
10, 17853, Control_c, 8, 123, 0
10, 17869, Note_on_c, 8, 33, 90
10, 17958, Note_on_c, 8, 33, 0
10, 17958, Control_c, 8, 123, 0
10, 17958, Note_on_c, 8, 38, 81
10, 17975, Note_on_c, 8, 38, 0
10, 17975, Control_c, 8, 123, 0
10, 17991, Note_on_c, 8, 38, 84
10, 18085, Note_on_c, 8, 33, 94
10, 18088, Note_on_c, 8, 38, 0
10, 18100, Note_on_c, 8, 33, 0
10, 18100, Control_c, 8, 123, 0
10, 18113, Note_on_c, 8, 33, 98
10, 18202, Note_on_c, 8, 26, 83
10, 18218, Note_on_c, 8, 26, 0
10, 18220, Note_on_c, 8, 33, 0
10, 18220, Control_c, 8, 123, 0
10, 18235, Note_on_c, 8, 26, 100
10, 18322, Note_on_c, 8, 26, 0
10, 18322, Control_c, 8, 123, 0
10, 18322, Note_on_c, 8, 33, 90
10, 18339, Note_on_c, 8, 33, 0
10, 18339, Control_c, 8, 123, 0
10, 18355, Note_on_c, 8, 33, 92
10, 18434, Note_on_c, 8, 33, 0
10, 18434, Control_c, 8, 123, 0
10, 18442, Note_on_c, 8, 38, 102
10, 18458, Note_on_c, 8, 38, 0
10, 18458, Control_c, 8, 123, 0
10, 18473, Note_on_c, 8, 38, 100
10, 18562, Note_on_c, 8, 38, 0
10, 18562, Control_c, 8, 123, 0
10, 18567, Note_on_c, 8, 33, 84
10, 18586, Note_on_c, 8, 33, 0
10, 18586, Control_c, 8, 123, 0
10, 18595, Note_on_c, 8, 33, 77
10, 18659, Note_on_c, 8, 26, 94
10, 18662, Note_on_c, 8, 33, 0
10, 18684, Note_on_c, 8, 26, 0
10, 18684, Control_c, 8, 123, 0
10, 18687, Note_on_c, 8, 33, 96
10, 18712, Note_on_c, 8, 33, 0
10, 18713, Control_c, 8, 123, 0
10, 18719, Note_on_c, 8, 27, 96
10, 18805, Note_on_c, 8, 27, 0
10, 18805, Control_c, 8, 123, 0
10, 18806, Note_on_c, 8, 34, 87
10, 18820, Note_on_c, 8, 34, 0
10, 18820, Control_c, 8, 123, 0
10, 18838, Note_on_c, 8, 34, 100
10, 18916, Note_on_c, 8, 34, 0
10, 18917, Control_c, 8, 123, 0
10, 18923, Note_on_c, 8, 39, 90
10, 18940, Note_on_c, 8, 39, 0
10, 18941, Control_c, 8, 123, 0
10, 18954, Note_on_c, 8, 39, 110
10, 19047, Note_on_c, 8, 34, 90
10, 19055, Note_on_c, 8, 39, 0
10, 19061, Note_on_c, 8, 34, 0
10, 19061, Control_c, 8, 123, 0
10, 19079, Note_on_c, 8, 34, 96
10, 19163, Note_on_c, 8, 34, 0
10, 19163, Control_c, 8, 123, 0
10, 19165, Note_on_c, 8, 27, 85
10, 19180, Note_on_c, 8, 27, 0
10, 19180, Control_c, 8, 123, 0
10, 19197, Note_on_c, 8, 27, 105
10, 19283, Note_on_c, 8, 27, 0
10, 19284, Control_c, 8, 123, 0
10, 19287, Note_on_c, 8, 34, 71
10, 19297, Note_on_c, 8, 34, 0
10, 19297, Control_c, 8, 123, 0
10, 19318, Note_on_c, 8, 34, 105
10, 19401, Note_on_c, 8, 34, 0
10, 19401, Control_c, 8, 123, 0
10, 19406, Note_on_c, 8, 39, 93
10, 19424, Note_on_c, 8, 39, 0
10, 19424, Control_c, 8, 123, 0
10, 19437, Note_on_c, 8, 39, 96
10, 19500, Note_on_c, 8, 38, 127
10, 19523, Note_on_c, 8, 39, 0
10, 19523, Control_c, 8, 123, 0
10, 19526, Note_on_c, 8, 38, 0
10, 19526, Control_c, 8, 123, 0
10, 19526, Note_on_c, 8, 34, 83
10, 19535, Note_on_c, 8, 34, 0
10, 19535, Control_c, 8, 123, 0
10, 19557, Note_on_c, 8, 34, 100
10, 19560, Note_on_c, 8, 41, 123
10, 19586, Note_on_c, 8, 41, 0
10, 19586, Control_c, 8, 123, 0
10, 19619, Note_on_c, 8, 34, 0
10, 19619, Control_c, 8, 123, 0
10, 19620, Note_on_c, 8, 45, 110
10, 19623, Note_on_c, 8, 27, 77
10, 19644, Note_on_c, 8, 27, 0
10, 19644, Control_c, 8, 123, 0
10, 19648, Note_on_c, 8, 45, 0
10, 19649, Control_c, 8, 123, 0
10, 19653, Note_on_c, 8, 34, 87
10, 19668, Note_on_c, 8, 34, 0
10, 19668, Control_c, 8, 123, 0
10, 19980, Note_on_c, 8, 38, 116
10, 20005, Control_c, 8, 123, 0
10, 20008, Note_on_c, 8, 38, 0
10, 20040, Note_on_c, 8, 41, 119
10, 20063, Control_c, 8, 123, 0
10, 20065, Note_on_c, 8, 41, 0
10, 20100, Note_on_c, 8, 45, 113
10, 20123, Control_c, 8, 123, 0
10, 20125, Note_on_c, 8, 45, 0
10, 20460, Note_on_c, 8, 38, 110
10, 20494, Note_on_c, 8, 38, 0
10, 20494, Control_c, 8, 123, 0
10, 20520, Note_on_c, 8, 41, 119
10, 20551, Note_on_c, 8, 41, 0
10, 20552, Control_c, 8, 123, 0
10, 20580, Note_on_c, 8, 43, 123
10, 20605, Note_on_c, 8, 43, 0
10, 20605, Control_c, 8, 123, 0
10, 20940, Note_on_c, 8, 38, 105
10, 20984, Control_c, 8, 123, 0
10, 20985, Note_on_c, 8, 38, 0
10, 21000, Note_on_c, 8, 41, 107
10, 21028, Control_c, 8, 123, 0
10, 21031, Note_on_c, 8, 41, 0
10, 21060, Note_on_c, 8, 43, 102
10, 21092, Control_c, 8, 123, 0
10, 21096, Note_on_c, 8, 43, 0
10, 21120, Note_on_c, 8, 45, 105
10, 21240, Note_on_c, 8, 43, 102
10, 21246, Note_on_c, 8, 45, 0
10, 21300, Note_on_c, 8, 41, 100
10, 21316, Note_on_c, 8, 43, 0
10, 21360, Note_on_c, 8, 43, 102
10, 21368, Note_on_c, 8, 41, 0
10, 21420, Note_on_c, 8, 38, 105
10, 21424, Note_on_c, 8, 43, 0
10, 21480, Note_on_c, 8, 41, 113
10, 21497, Note_on_c, 8, 38, 0
10, 21512, Note_on_c, 8, 41, 0
10, 21515, Control_c, 8, 123, 0
10, 21540, Note_on_c, 8, 45, 105
10, 21566, Note_on_c, 8, 45, 0
10, 21567, Control_c, 8, 123, 0
10, 21900, Note_on_c, 8, 38, 107
10, 21947, Control_c, 8, 123, 0
10, 21948, Note_on_c, 8, 38, 0
10, 21960, Note_on_c, 8, 41, 113
10, 21985, Note_on_c, 8, 41, 0
10, 21985, Control_c, 8, 123, 0
10, 22020, Note_on_c, 8, 45, 105
10, 22041, Control_c, 8, 123, 0
10, 22045, Note_on_c, 8, 45, 0
10, 22380, Note_on_c, 8, 38, 102
10, 22422, Control_c, 8, 123, 0
10, 22428, Note_on_c, 8, 38, 0
10, 22440, Note_on_c, 8, 41, 113
10, 22468, Control_c, 8, 123, 0
10, 22470, Note_on_c, 8, 41, 0
10, 22500, Note_on_c, 8, 43, 119
10, 22519, Control_c, 8, 123, 0
10, 22523, Note_on_c, 8, 43, 0
10, 22860, Note_on_c, 8, 38, 98
10, 22900, Control_c, 8, 123, 0
10, 22905, Note_on_c, 8, 38, 0
10, 22920, Note_on_c, 8, 41, 100
10, 22942, Control_c, 8, 123, 0
10, 22945, Note_on_c, 8, 41, 0
10, 22980, Note_on_c, 8, 43, 100
10, 23009, Control_c, 8, 123, 0
10, 23016, Note_on_c, 8, 43, 0
10, 23040, Note_on_c, 8, 45, 94
10, 23160, Note_on_c, 8, 43, 92
10, 23162, Note_on_c, 8, 45, 0
10, 23220, Note_on_c, 8, 41, 102
10, 23228, Note_on_c, 8, 43, 0
10, 23277, Control_c, 8, 123, 0
10, 23279, Note_on_c, 8, 41, 0
10, 23280, Note_on_c, 8, 43, 113
10, 23340, Note_on_c, 8, 41, 127
10, 23347, Note_on_c, 8, 43, 0
10, 24005, Note_on_c, 8, 41, 0
10, 24007, Control_c, 8, 123, 0
10, 24064, Note_on_c, 8, 26, 90
10, 24079, Note_on_c, 8, 26, 0
10, 24079, Control_c, 8, 123, 0
10, 24094, Note_on_c, 8, 38, 116
10, 24112, Note_on_c, 8, 38, 0
10, 24112, Control_c, 8, 123, 0
10, 24241, Note_on_c, 8, 26, 94
10, 24269, Note_on_c, 8, 26, 0
10, 24269, Control_c, 8, 123, 0
10, 24269, Note_on_c, 8, 38, 82
10, 24292, Note_on_c, 8, 38, 0
10, 24292, Control_c, 8, 123, 0
10, 24292, Note_on_c, 8, 28, 76
10, 24315, Note_on_c, 8, 28, 0
10, 24315, Control_c, 8, 123, 0
10, 24325, Note_on_c, 8, 40, 72
10, 24340, Note_on_c, 8, 40, 0
10, 24340, Control_c, 8, 123, 0
10, 24354, Note_on_c, 8, 29, 90
10, 24374, Note_on_c, 8, 29, 0
10, 24374, Control_c, 8, 123, 0
10, 24384, Note_on_c, 8, 41, 100
10, 24402, Note_on_c, 8, 41, 0
10, 24402, Control_c, 8, 123, 0
10, 24540, Note_on_c, 8, 26, 89
10, 24559, Note_on_c, 8, 26, 0
10, 24559, Control_c, 8, 123, 0
10, 24570, Note_on_c, 8, 38, 96
10, 24587, Note_on_c, 8, 38, 0
10, 24587, Control_c, 8, 123, 0
10, 24721, Note_on_c, 8, 26, 89
10, 24750, Note_on_c, 8, 26, 0
10, 24750, Note_on_c, 8, 38, 72
10, 24770, Note_on_c, 8, 38, 0
10, 24770, Control_c, 8, 123, 0
10, 24777, Note_on_c, 8, 28, 84
10, 24800, Note_on_c, 8, 28, 0
10, 24800, Control_c, 8, 123, 0
10, 24807, Note_on_c, 8, 40, 74
10, 24823, Note_on_c, 8, 40, 0
10, 24824, Control_c, 8, 123, 0
10, 24835, Note_on_c, 8, 29, 84
10, 24858, Note_on_c, 8, 29, 0
10, 24859, Control_c, 8, 123, 0
10, 24867, Note_on_c, 8, 41, 70
10, 24883, Note_on_c, 8, 41, 0
10, 24883, Control_c, 8, 123, 0
10, 24897, Note_on_c, 8, 31, 89
10, 24913, Note_on_c, 8, 31, 0
10, 24913, Control_c, 8, 123, 0
10, 24924, Note_on_c, 8, 43, 105
10, 24940, Note_on_c, 8, 43, 0
10, 24940, Control_c, 8, 123, 0
10, 25016, Note_on_c, 8, 26, 86
10, 25031, Note_on_c, 8, 26, 0
10, 25031, Control_c, 8, 123, 0
10, 25044, Note_on_c, 8, 38, 113
10, 25061, Note_on_c, 8, 38, 0
10, 25061, Control_c, 8, 123, 0
10, 25384, Note_on_c, 8, 24, 107
10, 25407, Note_on_c, 8, 24, 0
10, 25407, Control_c, 8, 123, 0
10, 25410, Note_on_c, 8, 36, 110
10, 25427, Note_on_c, 8, 36, 0
10, 25427, Control_c, 8, 123, 0
10, 25499, Note_on_c, 8, 26, 105
10, 25517, Note_on_c, 8, 26, 0
10, 25517, Control_c, 8, 123, 0
10, 25529, Note_on_c, 8, 38, 123
10, 25548, Note_on_c, 8, 38, 0
10, 25548, Control_c, 8, 123, 0
10, 25679, Note_on_c, 8, 26, 83
10, 25705, Note_on_c, 8, 38, 78
10, 25707, Note_on_c, 8, 26, 0
10, 25728, Note_on_c, 8, 38, 0
10, 25728, Control_c, 8, 123, 0
10, 25733, Note_on_c, 8, 28, 89
10, 25760, Note_on_c, 8, 28, 0
10, 25760, Control_c, 8, 123, 0
10, 25763, Note_on_c, 8, 40, 74
10, 25782, Note_on_c, 8, 40, 0
10, 25782, Control_c, 8, 123, 0
10, 25794, Note_on_c, 8, 29, 82
10, 25817, Note_on_c, 8, 29, 0
10, 25817, Control_c, 8, 123, 0
10, 25825, Note_on_c, 8, 41, 90
10, 25843, Note_on_c, 8, 41, 0
10, 25843, Control_c, 8, 123, 0
10, 25853, Note_on_c, 8, 28, 76
10, 25876, Note_on_c, 8, 28, 0
10, 25877, Control_c, 8, 123, 0
10, 25883, Note_on_c, 8, 40, 102
10, 25903, Note_on_c, 8, 40, 0
10, 25903, Control_c, 8, 123, 0
10, 25974, Note_on_c, 8, 26, 86
10, 25990, Note_on_c, 8, 26, 0
10, 25991, Control_c, 8, 123, 0
10, 26005, Note_on_c, 8, 38, 113
10, 26025, Note_on_c, 8, 38, 0
10, 26025, Control_c, 8, 123, 0
10, 26461, Note_on_c, 8, 26, 102
10, 26480, Note_on_c, 8, 26, 0
10, 26481, Control_c, 8, 123, 0
10, 26490, Note_on_c, 8, 38, 110
10, 26510, Note_on_c, 8, 38, 0
10, 26510, Control_c, 8, 123, 0
10, 26637, Note_on_c, 8, 26, 81
10, 26664, Note_on_c, 8, 38, 82
10, 26669, Note_on_c, 8, 26, 0
10, 26687, Note_on_c, 8, 38, 0
10, 26687, Control_c, 8, 123, 0
10, 26692, Note_on_c, 8, 28, 81
10, 26718, Note_on_c, 8, 28, 0
10, 26718, Control_c, 8, 123, 0
10, 26722, Note_on_c, 8, 40, 75
10, 26740, Note_on_c, 8, 40, 0
10, 26740, Control_c, 8, 123, 0
10, 26753, Note_on_c, 8, 29, 83
10, 26773, Note_on_c, 8, 29, 0
10, 26774, Control_c, 8, 123, 0
10, 26782, Note_on_c, 8, 41, 81
10, 26798, Note_on_c, 8, 41, 0
10, 26799, Control_c, 8, 123, 0
10, 26807, Note_on_c, 8, 28, 89
10, 26828, Note_on_c, 8, 28, 0
10, 26828, Control_c, 8, 123, 0
10, 26842, Note_on_c, 8, 41, 110
10, 26863, Note_on_c, 8, 41, 0
10, 26863, Control_c, 8, 123, 0
10, 26937, Note_on_c, 8, 26, 94
10, 26958, Note_on_c, 8, 26, 0
10, 26959, Control_c, 8, 123, 0
10, 26969, Note_on_c, 8, 38, 119
10, 26988, Note_on_c, 8, 38, 0
10, 26988, Control_c, 8, 123, 0
10, 27182, Note_on_c, 8, 24, 81
10, 27201, Note_on_c, 8, 24, 0
10, 27201, Control_c, 8, 123, 0
10, 27212, Note_on_c, 8, 36, 119
10, 27232, Note_on_c, 8, 36, 0
10, 27232, Control_c, 8, 123, 0
10, 27603, Note_on_c, 8, 26, 100
10, 27629, Note_on_c, 8, 26, 0
10, 27629, Control_c, 8, 123, 0
10, 27631, Note_on_c, 8, 38, 92
10, 27652, Note_on_c, 8, 38, 0
10, 27652, Control_c, 8, 123, 0
10, 27657, Note_on_c, 8, 28, 83
10, 27684, Note_on_c, 8, 28, 0
10, 27684, Control_c, 8, 123, 0
10, 27687, Note_on_c, 8, 40, 72
10, 27709, Note_on_c, 8, 40, 0
10, 27709, Control_c, 8, 123, 0
10, 27715, Note_on_c, 8, 29, 84
10, 27740, Note_on_c, 8, 29, 0
10, 27740, Control_c, 8, 123, 0
10, 27745, Note_on_c, 8, 41, 76
10, 27765, Note_on_c, 8, 41, 0
10, 27765, Control_c, 8, 123, 0
10, 27777, Note_on_c, 8, 31, 107
10, 27798, Note_on_c, 8, 31, 0
10, 27798, Control_c, 8, 123, 0
10, 27805, Note_on_c, 8, 43, 105
10, 27827, Note_on_c, 8, 43, 0
10, 27827, Control_c, 8, 123, 0
10, 27901, Note_on_c, 8, 26, 98
10, 27922, Note_on_c, 8, 26, 0
10, 27923, Control_c, 8, 123, 0
10, 27933, Note_on_c, 8, 38, 119
10, 27956, Note_on_c, 8, 38, 0
10, 27956, Control_c, 8, 123, 0
10, 28385, Note_on_c, 8, 26, 102
10, 28404, Note_on_c, 8, 26, 0
10, 28405, Control_c, 8, 123, 0
10, 28414, Note_on_c, 8, 38, 116
10, 28436, Note_on_c, 8, 38, 0
10, 28436, Control_c, 8, 123, 0
10, 28565, Note_on_c, 8, 26, 100
10, 28594, Note_on_c, 8, 38, 92
10, 28598, Note_on_c, 8, 26, 0
10, 28614, Note_on_c, 8, 28, 82
10, 28623, Note_on_c, 8, 38, 0
10, 28643, Note_on_c, 8, 28, 0
10, 28643, Control_c, 8, 123, 0
10, 28649, Note_on_c, 8, 40, 92
10, 28674, Note_on_c, 8, 40, 0
10, 28674, Control_c, 8, 123, 0
10, 28681, Note_on_c, 8, 29, 107
10, 28706, Note_on_c, 8, 29, 0
10, 28706, Control_c, 8, 123, 0
10, 28711, Note_on_c, 8, 41, 110
10, 28732, Note_on_c, 8, 41, 0
10, 28732, Control_c, 8, 123, 0
10, 28865, Note_on_c, 8, 26, 100
10, 28886, Note_on_c, 8, 26, 0
10, 28886, Control_c, 8, 123, 0
10, 28895, Note_on_c, 8, 38, 119
10, 28918, Note_on_c, 8, 38, 0
10, 28918, Control_c, 8, 123, 0
10, 29342, Note_on_c, 8, 26, 105
10, 29363, Note_on_c, 8, 26, 0
10, 29363, Control_c, 8, 123, 0
10, 29370, Note_on_c, 8, 38, 113
10, 29391, Note_on_c, 8, 38, 0
10, 29392, Control_c, 8, 123, 0
10, 29520, Note_on_c, 8, 26, 98
10, 29548, Note_on_c, 8, 26, 0
10, 29548, Control_c, 8, 123, 0
10, 29552, Note_on_c, 8, 38, 98
10, 29576, Note_on_c, 8, 38, 0
10, 29577, Control_c, 8, 123, 0
10, 29577, Note_on_c, 8, 28, 94
10, 29606, Note_on_c, 8, 28, 0
10, 29606, Control_c, 8, 123, 0
10, 29610, Note_on_c, 8, 40, 94
10, 29634, Note_on_c, 8, 40, 0
10, 29634, Control_c, 8, 123, 0
10, 29639, Note_on_c, 8, 29, 105
10, 29663, Note_on_c, 8, 29, 0
10, 29663, Control_c, 8, 123, 0
10, 29670, Note_on_c, 8, 41, 102
10, 29691, Note_on_c, 8, 41, 0
10, 29691, Control_c, 8, 123, 0
10, 29823, Note_on_c, 8, 26, 90
10, 29843, Note_on_c, 8, 26, 0
10, 29843, Control_c, 8, 123, 0
10, 29852, Note_on_c, 8, 38, 116
10, 29873, Note_on_c, 8, 38, 0
10, 29873, Control_c, 8, 123, 0
10, 30305, Note_on_c, 8, 26, 92
10, 30327, Note_on_c, 8, 26, 0
10, 30327, Control_c, 8, 123, 0
10, 30334, Note_on_c, 8, 38, 116
10, 30355, Note_on_c, 8, 38, 0
10, 30355, Control_c, 8, 123, 0
10, 30476, Note_on_c, 8, 26, 96
10, 30504, Note_on_c, 8, 26, 0
10, 30504, Control_c, 8, 123, 0
10, 30506, Note_on_c, 8, 38, 100
10, 30532, Note_on_c, 8, 38, 0
10, 30532, Note_on_c, 8, 28, 98
10, 30560, Note_on_c, 8, 28, 0
10, 30560, Control_c, 8, 123, 0
10, 30563, Note_on_c, 8, 40, 96
10, 30588, Note_on_c, 8, 40, 0
10, 30588, Control_c, 8, 123, 0
10, 30595, Note_on_c, 8, 29, 102
10, 30616, Note_on_c, 8, 29, 0
10, 30616, Control_c, 8, 123, 0
10, 30625, Note_on_c, 8, 41, 100
10, 30649, Note_on_c, 8, 41, 0
10, 30650, Control_c, 8, 123, 0
10, 30784, Note_on_c, 8, 26, 102
10, 30803, Note_on_c, 8, 26, 0
10, 30804, Control_c, 8, 123, 0
10, 30814, Note_on_c, 8, 38, 123
10, 30833, Note_on_c, 8, 38, 0
10, 30834, Control_c, 8, 123, 0
10, 31257, Note_on_c, 8, 26, 102
10, 31279, Note_on_c, 8, 26, 0
10, 31279, Control_c, 8, 123, 0
10, 31286, Note_on_c, 8, 38, 105
10, 31306, Note_on_c, 8, 38, 0
10, 31306, Control_c, 8, 123, 0
10, 31434, Note_on_c, 8, 26, 96
10, 31467, Note_on_c, 8, 38, 96
10, 31474, Note_on_c, 8, 26, 0
10, 31491, Note_on_c, 8, 38, 0
10, 31491, Control_c, 8, 123, 0
10, 31492, Note_on_c, 8, 28, 92
10, 31522, Note_on_c, 8, 28, 0
10, 31522, Control_c, 8, 123, 0
10, 31524, Note_on_c, 8, 40, 82
10, 31552, Note_on_c, 8, 40, 0
10, 31552, Control_c, 8, 123, 0
10, 31558, Note_on_c, 8, 29, 100
10, 31583, Note_on_c, 8, 29, 0
10, 31583, Control_c, 8, 123, 0
10, 31587, Note_on_c, 8, 41, 107
10, 31615, Note_on_c, 8, 41, 0
10, 31615, Control_c, 8, 123, 0
10, 31689, Note_on_c, 8, 26, 98
10, 31776, Note_on_c, 8, 26, 0
10, 31777, Control_c, 8, 123, 0
10, 31778, Note_on_c, 8, 33, 74
10, 31791, Note_on_c, 8, 33, 0
10, 31792, Control_c, 8, 123, 0
10, 31807, Note_on_c, 8, 33, 107
10, 31887, Note_on_c, 8, 33, 0
10, 31887, Control_c, 8, 123, 0
10, 31890, Note_on_c, 8, 38, 96
10, 31906, Note_on_c, 8, 38, 0
10, 31906, Control_c, 8, 123, 0
10, 31920, Note_on_c, 8, 38, 90
10, 32010, Note_on_c, 8, 33, 96
10, 32015, Note_on_c, 8, 38, 0
10, 32027, Note_on_c, 8, 33, 0
10, 32027, Control_c, 8, 123, 0
10, 32036, Note_on_c, 8, 33, 80
10, 32129, Note_on_c, 8, 26, 81
10, 32141, Note_on_c, 8, 26, 0
10, 32151, Note_on_c, 8, 33, 0
10, 32151, Control_c, 8, 123, 0
10, 32159, Note_on_c, 8, 26, 107
10, 32241, Note_on_c, 8, 26, 0
10, 32241, Control_c, 8, 123, 0
10, 32245, Note_on_c, 8, 33, 66
10, 32259, Note_on_c, 8, 33, 0
10, 32259, Control_c, 8, 123, 0
10, 32277, Note_on_c, 8, 33, 105
10, 32361, Note_on_c, 8, 33, 0
10, 32361, Control_c, 8, 123, 0
10, 32364, Note_on_c, 8, 38, 86
10, 32381, Note_on_c, 8, 38, 0
10, 32381, Control_c, 8, 123, 0
10, 32396, Note_on_c, 8, 38, 92
10, 32491, Note_on_c, 8, 33, 94
10, 32495, Note_on_c, 8, 38, 0
10, 32504, Note_on_c, 8, 33, 0
10, 32504, Control_c, 8, 123, 0
10, 32519, Note_on_c, 8, 33, 96
10, 32608, Note_on_c, 8, 26, 76
10, 32624, Note_on_c, 8, 26, 0
10, 32630, Note_on_c, 8, 33, 0
10, 32630, Control_c, 8, 123, 0
10, 32641, Note_on_c, 8, 27, 90
10, 32718, Note_on_c, 8, 27, 0
10, 32718, Control_c, 8, 123, 0
10, 32729, Note_on_c, 8, 34, 96
10, 32742, Note_on_c, 8, 34, 0
10, 32742, Control_c, 8, 123, 0
10, 32757, Note_on_c, 8, 34, 100
10, 32836, Note_on_c, 8, 34, 0
10, 32836, Control_c, 8, 123, 0
10, 32848, Note_on_c, 8, 39, 85
10, 32863, Note_on_c, 8, 39, 0
10, 32863, Control_c, 8, 123, 0
10, 32876, Note_on_c, 8, 39, 100
10, 32971, Note_on_c, 8, 34, 79
10, 32976, Note_on_c, 8, 39, 0
10, 32983, Note_on_c, 8, 34, 0
10, 32983, Control_c, 8, 123, 0
10, 32997, Note_on_c, 8, 34, 79
10, 33085, Note_on_c, 8, 27, 77
10, 33099, Note_on_c, 8, 34, 0
10, 33099, Note_on_c, 8, 27, 0
10, 33099, Control_c, 8, 123, 0
10, 33118, Note_on_c, 8, 27, 93
10, 33206, Note_on_c, 8, 27, 0
10, 33206, Control_c, 8, 123, 0
10, 33209, Note_on_c, 8, 34, 87
10, 33219, Note_on_c, 8, 34, 0
10, 33220, Control_c, 8, 123, 0
10, 33240, Note_on_c, 8, 34, 105
10, 33320, Note_on_c, 8, 34, 0
10, 33321, Control_c, 8, 123, 0
10, 33327, Note_on_c, 8, 39, 90
10, 33343, Note_on_c, 8, 39, 0
10, 33343, Control_c, 8, 123, 0
10, 33357, Note_on_c, 8, 39, 96
10, 33451, Note_on_c, 8, 34, 110
10, 33452, Note_on_c, 8, 39, 0
10, 33462, Note_on_c, 8, 34, 0
10, 33462, Control_c, 8, 123, 0
10, 33477, Note_on_c, 8, 34, 100
10, 33540, Note_on_c, 8, 27, 87
10, 33546, Note_on_c, 8, 34, 0
10, 33563, Note_on_c, 8, 27, 0
10, 33563, Control_c, 8, 123, 0
10, 33568, Note_on_c, 8, 34, 83
10, 33594, Note_on_c, 8, 34, 0
10, 33595, Control_c, 8, 123, 0
10, 33599, Note_on_c, 8, 26, 105
10, 33681, Note_on_c, 8, 26, 0
10, 33681, Control_c, 8, 123, 0
10, 33681, Note_on_c, 8, 33, 92
10, 33696, Note_on_c, 8, 33, 0
10, 33696, Control_c, 8, 123, 0
10, 33711, Note_on_c, 8, 33, 98
10, 33798, Note_on_c, 8, 38, 89
10, 33802, Note_on_c, 8, 36, 81
10, 33804, Note_on_c, 8, 33, 0
10, 33807, Note_on_c, 8, 36, 0
10, 33813, Note_on_c, 8, 38, 0
10, 33813, Control_c, 8, 123, 0
10, 33831, Note_on_c, 8, 38, 105
10, 33923, Note_on_c, 8, 38, 0
10, 33923, Control_c, 8, 123, 0
10, 33923, Note_on_c, 8, 33, 100
10, 33939, Note_on_c, 8, 33, 0
10, 33939, Control_c, 8, 123, 0
10, 33953, Note_on_c, 8, 33, 105
10, 34043, Note_on_c, 8, 26, 96
10, 34058, Note_on_c, 8, 26, 0
10, 34065, Note_on_c, 8, 33, 0
10, 34065, Control_c, 8, 123, 0
10, 34076, Note_on_c, 8, 26, 102
10, 34163, Note_on_c, 8, 26, 0
10, 34163, Control_c, 8, 123, 0
10, 34165, Note_on_c, 8, 33, 86
10, 34180, Note_on_c, 8, 33, 0
10, 34180, Control_c, 8, 123, 0
10, 34198, Note_on_c, 8, 33, 105
10, 34282, Note_on_c, 8, 38, 87
10, 34288, Note_on_c, 8, 33, 0
10, 34299, Note_on_c, 8, 38, 0
10, 34299, Control_c, 8, 123, 0
10, 34315, Note_on_c, 8, 38, 102
10, 34413, Note_on_c, 8, 33, 110
10, 34425, Note_on_c, 8, 38, 0
10, 34443, Note_on_c, 8, 26, 83
10, 34445, Note_on_c, 8, 33, 0
10, 34468, Note_on_c, 8, 26, 0
10, 34468, Note_on_c, 8, 33, 76
10, 34499, Note_on_c, 8, 33, 0
10, 34499, Note_on_c, 8, 38, 102
10, 34527, Note_on_c, 8, 33, 98
10, 34535, Note_on_c, 8, 38, 0
10, 34557, Note_on_c, 8, 33, 0
10, 34557, Control_c, 8, 123, 0
10, 34558, Note_on_c, 8, 27, 110
10, 34642, Note_on_c, 8, 34, 83
10, 34645, Note_on_c, 8, 27, 0
10, 34657, Note_on_c, 8, 34, 0
10, 34657, Control_c, 8, 123, 0
10, 34674, Note_on_c, 8, 34, 116
10, 34758, Note_on_c, 8, 34, 0
10, 34758, Control_c, 8, 123, 0
10, 34761, Note_on_c, 8, 39, 83
10, 34777, Note_on_c, 8, 39, 0
10, 34777, Control_c, 8, 123, 0
10, 34792, Note_on_c, 8, 39, 96
10, 34889, Note_on_c, 8, 39, 0
10, 34889, Note_on_c, 8, 34, 85
10, 34902, Note_on_c, 8, 34, 0
10, 34902, Control_c, 8, 123, 0
10, 34916, Note_on_c, 8, 34, 85
10, 35003, Note_on_c, 8, 34, 0
10, 35003, Note_on_c, 8, 27, 93
10, 35016, Note_on_c, 8, 27, 0
10, 35016, Control_c, 8, 123, 0
10, 35039, Note_on_c, 8, 27, 110
10, 35113, Note_on_c, 8, 27, 0
10, 35113, Control_c, 8, 123, 0
10, 35122, Note_on_c, 8, 34, 96
10, 35136, Note_on_c, 8, 34, 0
10, 35136, Control_c, 8, 123, 0
10, 35155, Note_on_c, 8, 34, 105
10, 35238, Note_on_c, 8, 34, 0
10, 35238, Control_c, 8, 123, 0
10, 35249, Note_on_c, 8, 39, 96
10, 35265, Note_on_c, 8, 39, 0
10, 35265, Control_c, 8, 123, 0
10, 35277, Note_on_c, 8, 39, 83
10, 35370, Note_on_c, 8, 34, 110
10, 35371, Note_on_c, 8, 39, 0
10, 35384, Note_on_c, 8, 34, 0
10, 35384, Control_c, 8, 123, 0
10, 35396, Note_on_c, 8, 34, 90
10, 35486, Note_on_c, 8, 27, 100
10, 35501, Note_on_c, 8, 34, 0
10, 35503, Note_on_c, 8, 27, 0
10, 35503, Control_c, 8, 123, 0
10, 35519, Note_on_c, 8, 26, 92
10, 35598, Note_on_c, 8, 33, 92
10, 35600, Note_on_c, 8, 26, 0
10, 35613, Note_on_c, 8, 33, 0
10, 35613, Control_c, 8, 123, 0
10, 35629, Note_on_c, 8, 33, 105
10, 35718, Note_on_c, 8, 38, 86
10, 35723, Note_on_c, 8, 33, 0
10, 35735, Note_on_c, 8, 38, 0
10, 35735, Control_c, 8, 123, 0
10, 35753, Note_on_c, 8, 38, 98
10, 35848, Note_on_c, 8, 33, 80
10, 35858, Note_on_c, 8, 38, 0
10, 35864, Note_on_c, 8, 33, 0
10, 35864, Control_c, 8, 123, 0
10, 35878, Note_on_c, 8, 33, 100
10, 35969, Note_on_c, 8, 26, 84
10, 35983, Note_on_c, 8, 26, 0
10, 35989, Note_on_c, 8, 33, 0
10, 35989, Control_c, 8, 123, 0
10, 36002, Note_on_c, 8, 26, 107
10, 36087, Note_on_c, 8, 26, 0
10, 36087, Control_c, 8, 123, 0
10, 36087, Note_on_c, 8, 33, 86
10, 36099, Note_on_c, 8, 33, 0
10, 36099, Control_c, 8, 123, 0
10, 36114, Note_on_c, 8, 33, 96
10, 36204, Note_on_c, 8, 38, 90
10, 36205, Note_on_c, 8, 33, 0
10, 36221, Note_on_c, 8, 38, 0
10, 36221, Control_c, 8, 123, 0
10, 36236, Note_on_c, 8, 38, 98
10, 36326, Note_on_c, 8, 33, 100
10, 36336, Note_on_c, 8, 38, 0
10, 36341, Note_on_c, 8, 33, 0
10, 36342, Control_c, 8, 123, 0
10, 36353, Note_on_c, 8, 33, 98
10, 36441, Note_on_c, 8, 38, 102
10, 36454, Note_on_c, 8, 33, 0
10, 36476, Note_on_c, 8, 27, 93
10, 36480, Note_on_c, 8, 38, 0
10, 36566, Note_on_c, 8, 34, 77
10, 36570, Note_on_c, 8, 27, 0
10, 36578, Note_on_c, 8, 34, 0
10, 36578, Control_c, 8, 123, 0
10, 36600, Note_on_c, 8, 34, 116
10, 36677, Note_on_c, 8, 34, 0
10, 36678, Control_c, 8, 123, 0
10, 36681, Note_on_c, 8, 39, 90
10, 36698, Note_on_c, 8, 39, 0
10, 36699, Control_c, 8, 123, 0
10, 36715, Note_on_c, 8, 39, 100
10, 36811, Note_on_c, 8, 39, 0
10, 36811, Note_on_c, 8, 34, 85
10, 36822, Note_on_c, 8, 34, 0
10, 36822, Control_c, 8, 123, 0
10, 36840, Note_on_c, 8, 34, 81
10, 36925, Note_on_c, 8, 27, 79
10, 36927, Note_on_c, 8, 34, 0
10, 36939, Note_on_c, 8, 27, 0
10, 36939, Control_c, 8, 123, 0
10, 36958, Note_on_c, 8, 27, 105
10, 37039, Note_on_c, 8, 27, 0
10, 37039, Control_c, 8, 123, 0
10, 37045, Note_on_c, 8, 34, 90
10, 37057, Note_on_c, 8, 34, 0
10, 37057, Control_c, 8, 123, 0
10, 37075, Note_on_c, 8, 34, 105
10, 37152, Note_on_c, 8, 34, 0
10, 37152, Control_c, 8, 123, 0
10, 37164, Note_on_c, 8, 39, 87
10, 37180, Note_on_c, 8, 39, 0
10, 37180, Control_c, 8, 123, 0
10, 37195, Note_on_c, 8, 39, 90
10, 37290, Note_on_c, 8, 39, 0
10, 37290, Control_c, 8, 123, 0
10, 37290, Note_on_c, 8, 34, 105
10, 37304, Note_on_c, 8, 34, 0
10, 37304, Control_c, 8, 123, 0
10, 37317, Note_on_c, 8, 34, 83
10, 37404, Note_on_c, 8, 27, 87
10, 37411, Note_on_c, 8, 34, 0
10, 37421, Note_on_c, 8, 27, 0
10, 37421, Control_c, 8, 123, 0
10, 37437, Note_on_c, 8, 26, 105
10, 37518, Note_on_c, 8, 26, 0
10, 37518, Note_on_c, 8, 33, 83
10, 37533, Note_on_c, 8, 33, 0
10, 37533, Control_c, 8, 123, 0
10, 37549, Note_on_c, 8, 33, 90
10, 37638, Note_on_c, 8, 33, 0
10, 37638, Control_c, 8, 123, 0
10, 37638, Note_on_c, 8, 38, 81
10, 37655, Note_on_c, 8, 38, 0
10, 37655, Control_c, 8, 123, 0
10, 37671, Note_on_c, 8, 38, 84
10, 37765, Note_on_c, 8, 33, 94
10, 37768, Note_on_c, 8, 38, 0
10, 37780, Note_on_c, 8, 33, 0
10, 37780, Control_c, 8, 123, 0
10, 37793, Note_on_c, 8, 33, 98
10, 37882, Note_on_c, 8, 26, 83
10, 37898, Note_on_c, 8, 26, 0
10, 37900, Note_on_c, 8, 33, 0
10, 37900, Control_c, 8, 123, 0
10, 37915, Note_on_c, 8, 26, 100
10, 38002, Note_on_c, 8, 26, 0
10, 38002, Control_c, 8, 123, 0
10, 38002, Note_on_c, 8, 33, 90
10, 38019, Note_on_c, 8, 33, 0
10, 38019, Control_c, 8, 123, 0
10, 38035, Note_on_c, 8, 33, 92
10, 38114, Note_on_c, 8, 33, 0
10, 38114, Control_c, 8, 123, 0
10, 38122, Note_on_c, 8, 38, 102
10, 38138, Note_on_c, 8, 38, 0
10, 38138, Control_c, 8, 123, 0
10, 38153, Note_on_c, 8, 38, 100
10, 38242, Note_on_c, 8, 38, 0
10, 38242, Control_c, 8, 123, 0
10, 38247, Note_on_c, 8, 33, 84
10, 38266, Note_on_c, 8, 33, 0
10, 38266, Control_c, 8, 123, 0
10, 38275, Note_on_c, 8, 33, 77
10, 38339, Note_on_c, 8, 26, 94
10, 38342, Note_on_c, 8, 33, 0
10, 38364, Note_on_c, 8, 26, 0
10, 38364, Control_c, 8, 123, 0
10, 38367, Note_on_c, 8, 33, 96
10, 38392, Note_on_c, 8, 33, 0
10, 38393, Control_c, 8, 123, 0
10, 38399, Note_on_c, 8, 27, 96
10, 38485, Note_on_c, 8, 27, 0
10, 38485, Control_c, 8, 123, 0
10, 38486, Note_on_c, 8, 34, 87
10, 38500, Note_on_c, 8, 34, 0
10, 38500, Control_c, 8, 123, 0
10, 38518, Note_on_c, 8, 34, 100
10, 38596, Note_on_c, 8, 34, 0
10, 38597, Control_c, 8, 123, 0
10, 38603, Note_on_c, 8, 39, 90
10, 38620, Note_on_c, 8, 39, 0
10, 38621, Control_c, 8, 123, 0
10, 38634, Note_on_c, 8, 39, 110
10, 38727, Note_on_c, 8, 34, 90
10, 38735, Note_on_c, 8, 39, 0
10, 38741, Note_on_c, 8, 34, 0
10, 38741, Control_c, 8, 123, 0
10, 38759, Note_on_c, 8, 34, 96
10, 38843, Note_on_c, 8, 34, 0
10, 38843, Control_c, 8, 123, 0
10, 38845, Note_on_c, 8, 27, 85
10, 38860, Note_on_c, 8, 27, 0
10, 38860, Control_c, 8, 123, 0
10, 38877, Note_on_c, 8, 27, 105
10, 38963, Note_on_c, 8, 27, 0
10, 38964, Control_c, 8, 123, 0
10, 38967, Note_on_c, 8, 34, 71
10, 38977, Note_on_c, 8, 34, 0
10, 38977, Control_c, 8, 123, 0
10, 38998, Note_on_c, 8, 34, 105
10, 39081, Note_on_c, 8, 34, 0
10, 39081, Control_c, 8, 123, 0
10, 39086, Note_on_c, 8, 39, 93
10, 39104, Note_on_c, 8, 39, 0
10, 39104, Control_c, 8, 123, 0
10, 39117, Note_on_c, 8, 39, 96
10, 39180, Note_on_c, 8, 38, 127
10, 39203, Note_on_c, 8, 39, 0
10, 39203, Control_c, 8, 123, 0
10, 39206, Note_on_c, 8, 38, 0
10, 39206, Control_c, 8, 123, 0
10, 39206, Note_on_c, 8, 34, 83
10, 39215, Note_on_c, 8, 34, 0
10, 39215, Control_c, 8, 123, 0
10, 39237, Note_on_c, 8, 34, 100
10, 39240, Note_on_c, 8, 41, 123
10, 39266, Note_on_c, 8, 41, 0
10, 39266, Control_c, 8, 123, 0
10, 39299, Note_on_c, 8, 34, 0
10, 39299, Control_c, 8, 123, 0
10, 39300, Note_on_c, 8, 45, 110
10, 39303, Note_on_c, 8, 27, 77
10, 39324, Note_on_c, 8, 27, 0
10, 39324, Control_c, 8, 123, 0
10, 39328, Note_on_c, 8, 45, 0
10, 39329, Control_c, 8, 123, 0
10, 39333, Note_on_c, 8, 34, 87
10, 39348, Note_on_c, 8, 34, 0
10, 39348, Control_c, 8, 123, 0
10, 39660, Note_on_c, 8, 38, 116
10, 39685, Control_c, 8, 123, 0
10, 39688, Note_on_c, 8, 38, 0
10, 39720, Note_on_c, 8, 41, 119
10, 39743, Control_c, 8, 123, 0
10, 39745, Note_on_c, 8, 41, 0
10, 39780, Note_on_c, 8, 45, 113
10, 39803, Control_c, 8, 123, 0
10, 39805, Note_on_c, 8, 45, 0
10, 40140, Note_on_c, 8, 38, 110
10, 40174, Note_on_c, 8, 38, 0
10, 40174, Control_c, 8, 123, 0
10, 40200, Note_on_c, 8, 41, 119
10, 40231, Note_on_c, 8, 41, 0
10, 40232, Control_c, 8, 123, 0
10, 40260, Note_on_c, 8, 43, 123
10, 40285, Note_on_c, 8, 43, 0
10, 40285, Control_c, 8, 123, 0
10, 40620, Note_on_c, 8, 38, 105
10, 40664, Control_c, 8, 123, 0
10, 40665, Note_on_c, 8, 38, 0
10, 40680, Note_on_c, 8, 41, 107
10, 40708, Control_c, 8, 123, 0
10, 40711, Note_on_c, 8, 41, 0
10, 40740, Note_on_c, 8, 43, 102
10, 40772, Control_c, 8, 123, 0
10, 40776, Note_on_c, 8, 43, 0
10, 40800, Note_on_c, 8, 45, 105
10, 40920, Note_on_c, 8, 43, 102
10, 40926, Note_on_c, 8, 45, 0
10, 40980, Note_on_c, 8, 41, 100
10, 40996, Note_on_c, 8, 43, 0
10, 41040, Note_on_c, 8, 43, 102
10, 41048, Note_on_c, 8, 41, 0
10, 41100, Note_on_c, 8, 38, 105
10, 41104, Note_on_c, 8, 43, 0
10, 41160, Note_on_c, 8, 41, 113
10, 41177, Note_on_c, 8, 38, 0
10, 41192, Note_on_c, 8, 41, 0
10, 41195, Control_c, 8, 123, 0
10, 41220, Note_on_c, 8, 45, 105
10, 41246, Note_on_c, 8, 45, 0
10, 41247, Control_c, 8, 123, 0
10, 41580, Note_on_c, 8, 38, 107
10, 41627, Control_c, 8, 123, 0
10, 41628, Note_on_c, 8, 38, 0
10, 41640, Note_on_c, 8, 41, 113
10, 41665, Note_on_c, 8, 41, 0
10, 41665, Control_c, 8, 123, 0
10, 41700, Note_on_c, 8, 45, 105
10, 41721, Control_c, 8, 123, 0
10, 41725, Note_on_c, 8, 45, 0
10, 42060, Note_on_c, 8, 38, 102
10, 42102, Control_c, 8, 123, 0
10, 42108, Note_on_c, 8, 38, 0
10, 42120, Note_on_c, 8, 41, 113
10, 42148, Control_c, 8, 123, 0
10, 42150, Note_on_c, 8, 41, 0
10, 42180, Note_on_c, 8, 43, 119
10, 42199, Control_c, 8, 123, 0
10, 42203, Note_on_c, 8, 43, 0
10, 42540, Note_on_c, 8, 38, 98
10, 42580, Control_c, 8, 123, 0
10, 42585, Note_on_c, 8, 38, 0
10, 42600, Note_on_c, 8, 41, 100
10, 42622, Control_c, 8, 123, 0
10, 42625, Note_on_c, 8, 41, 0
10, 42660, Note_on_c, 8, 43, 100
10, 42689, Control_c, 8, 123, 0
10, 42696, Note_on_c, 8, 43, 0
10, 42720, Note_on_c, 8, 45, 94
10, 42840, Note_on_c, 8, 43, 92
10, 42842, Note_on_c, 8, 45, 0
10, 42900, Note_on_c, 8, 41, 102
10, 42908, Note_on_c, 8, 43, 0
10, 42957, Control_c, 8, 123, 0
10, 42959, Note_on_c, 8, 41, 0
10, 42960, Note_on_c, 8, 43, 113
10, 43020, Note_on_c, 8, 41, 127
10, 43027, Note_on_c, 8, 43, 0
10, 43685, Note_on_c, 8, 41, 0
10, 43687, Control_c, 8, 123, 0
10, 43689, Note_on_c, 8, 26, 98
10, 43776, Note_on_c, 8, 26, 0
10, 43777, Control_c, 8, 123, 0
10, 43778, Note_on_c, 8, 33, 74
10, 43791, Note_on_c, 8, 33, 0
10, 43792, Control_c, 8, 123, 0
10, 43807, Note_on_c, 8, 33, 107
10, 43887, Note_on_c, 8, 33, 0
10, 43887, Control_c, 8, 123, 0
10, 43890, Note_on_c, 8, 38, 96
10, 43906, Note_on_c, 8, 38, 0
10, 43906, Control_c, 8, 123, 0
10, 43920, Note_on_c, 8, 38, 90
10, 44010, Note_on_c, 8, 33, 96
10, 44015, Note_on_c, 8, 38, 0
10, 44027, Note_on_c, 8, 33, 0
10, 44027, Control_c, 8, 123, 0
10, 44036, Note_on_c, 8, 33, 80
10, 44129, Note_on_c, 8, 26, 81
10, 44141, Note_on_c, 8, 26, 0
10, 44151, Note_on_c, 8, 33, 0
10, 44151, Control_c, 8, 123, 0
10, 44159, Note_on_c, 8, 26, 107
10, 44241, Note_on_c, 8, 26, 0
10, 44241, Control_c, 8, 123, 0
10, 44245, Note_on_c, 8, 33, 66
10, 44259, Note_on_c, 8, 33, 0
10, 44259, Control_c, 8, 123, 0
10, 44277, Note_on_c, 8, 33, 105
10, 44361, Note_on_c, 8, 33, 0
10, 44361, Control_c, 8, 123, 0
10, 44364, Note_on_c, 8, 38, 86
10, 44381, Note_on_c, 8, 38, 0
10, 44381, Control_c, 8, 123, 0
10, 44396, Note_on_c, 8, 38, 92
10, 44491, Note_on_c, 8, 33, 94
10, 44495, Note_on_c, 8, 38, 0
10, 44504, Note_on_c, 8, 33, 0
10, 44504, Control_c, 8, 123, 0
10, 44519, Note_on_c, 8, 33, 96
10, 44608, Note_on_c, 8, 26, 76
10, 44624, Note_on_c, 8, 26, 0
10, 44630, Note_on_c, 8, 33, 0
10, 44630, Control_c, 8, 123, 0
10, 44641, Note_on_c, 8, 27, 90
10, 44718, Note_on_c, 8, 27, 0
10, 44718, Control_c, 8, 123, 0
10, 44729, Note_on_c, 8, 34, 96
10, 44742, Note_on_c, 8, 34, 0
10, 44742, Control_c, 8, 123, 0
10, 44757, Note_on_c, 8, 34, 100
10, 44836, Note_on_c, 8, 34, 0
10, 44836, Control_c, 8, 123, 0
10, 44848, Note_on_c, 8, 39, 85
10, 44863, Note_on_c, 8, 39, 0
10, 44863, Control_c, 8, 123, 0
10, 44876, Note_on_c, 8, 39, 100
10, 44971, Note_on_c, 8, 34, 79
10, 44976, Note_on_c, 8, 39, 0
10, 44983, Note_on_c, 8, 34, 0
10, 44983, Control_c, 8, 123, 0
10, 44997, Note_on_c, 8, 34, 79
10, 45085, Note_on_c, 8, 27, 77
10, 45099, Note_on_c, 8, 34, 0
10, 45099, Note_on_c, 8, 27, 0
10, 45099, Control_c, 8, 123, 0
10, 45118, Note_on_c, 8, 27, 93
10, 45206, Note_on_c, 8, 27, 0
10, 45206, Control_c, 8, 123, 0
10, 45209, Note_on_c, 8, 34, 87
10, 45219, Note_on_c, 8, 34, 0
10, 45220, Control_c, 8, 123, 0
10, 45240, Note_on_c, 8, 34, 105
10, 45320, Note_on_c, 8, 34, 0
10, 45321, Control_c, 8, 123, 0
10, 45327, Note_on_c, 8, 39, 90
10, 45343, Note_on_c, 8, 39, 0
10, 45343, Control_c, 8, 123, 0
10, 45357, Note_on_c, 8, 39, 96
10, 45451, Note_on_c, 8, 34, 110
10, 45452, Note_on_c, 8, 39, 0
10, 45462, Note_on_c, 8, 34, 0
10, 45462, Control_c, 8, 123, 0
10, 45477, Note_on_c, 8, 34, 100
10, 45540, Note_on_c, 8, 27, 87
10, 45546, Note_on_c, 8, 34, 0
10, 45563, Note_on_c, 8, 27, 0
10, 45563, Control_c, 8, 123, 0
10, 45568, Note_on_c, 8, 34, 83
10, 45594, Note_on_c, 8, 34, 0
10, 45595, Control_c, 8, 123, 0
10, 45599, Note_on_c, 8, 26, 105
10, 45681, Note_on_c, 8, 26, 0
10, 45681, Control_c, 8, 123, 0
10, 45681, Note_on_c, 8, 33, 92
10, 45696, Note_on_c, 8, 33, 0
10, 45696, Control_c, 8, 123, 0
10, 45711, Note_on_c, 8, 33, 98
10, 45798, Note_on_c, 8, 38, 89
10, 45802, Note_on_c, 8, 36, 81
10, 45804, Note_on_c, 8, 33, 0
10, 45807, Note_on_c, 8, 36, 0
10, 45813, Note_on_c, 8, 38, 0
10, 45813, Control_c, 8, 123, 0
10, 45831, Note_on_c, 8, 38, 105
10, 45923, Note_on_c, 8, 38, 0
10, 45923, Control_c, 8, 123, 0
10, 45923, Note_on_c, 8, 33, 100
10, 45939, Note_on_c, 8, 33, 0
10, 45939, Control_c, 8, 123, 0
10, 45953, Note_on_c, 8, 33, 105
10, 46043, Note_on_c, 8, 26, 96
10, 46058, Note_on_c, 8, 26, 0
10, 46065, Note_on_c, 8, 33, 0
10, 46065, Control_c, 8, 123, 0
10, 46076, Note_on_c, 8, 26, 102
10, 46163, Note_on_c, 8, 26, 0
10, 46163, Control_c, 8, 123, 0
10, 46165, Note_on_c, 8, 33, 86
10, 46180, Note_on_c, 8, 33, 0
10, 46180, Control_c, 8, 123, 0
10, 46198, Note_on_c, 8, 33, 105
10, 46282, Note_on_c, 8, 38, 87
10, 46288, Note_on_c, 8, 33, 0
10, 46299, Note_on_c, 8, 38, 0
10, 46299, Control_c, 8, 123, 0
10, 46315, Note_on_c, 8, 38, 102
10, 46413, Note_on_c, 8, 33, 110
10, 46425, Note_on_c, 8, 38, 0
10, 46443, Note_on_c, 8, 26, 83
10, 46445, Note_on_c, 8, 33, 0
10, 46468, Note_on_c, 8, 26, 0
10, 46468, Note_on_c, 8, 33, 76
10, 46499, Note_on_c, 8, 33, 0
10, 46499, Note_on_c, 8, 38, 102
10, 46527, Note_on_c, 8, 33, 98
10, 46535, Note_on_c, 8, 38, 0
10, 46557, Note_on_c, 8, 33, 0
10, 46557, Control_c, 8, 123, 0
10, 46558, Note_on_c, 8, 27, 110
10, 46642, Note_on_c, 8, 34, 83
10, 46645, Note_on_c, 8, 27, 0
10, 46657, Note_on_c, 8, 34, 0
10, 46657, Control_c, 8, 123, 0
10, 46674, Note_on_c, 8, 34, 116
10, 46758, Note_on_c, 8, 34, 0
10, 46758, Control_c, 8, 123, 0
10, 46761, Note_on_c, 8, 39, 83
10, 46777, Note_on_c, 8, 39, 0
10, 46777, Control_c, 8, 123, 0
10, 46792, Note_on_c, 8, 39, 96
10, 46889, Note_on_c, 8, 39, 0
10, 46889, Note_on_c, 8, 34, 85
10, 46902, Note_on_c, 8, 34, 0
10, 46902, Control_c, 8, 123, 0
10, 46916, Note_on_c, 8, 34, 85
10, 47003, Note_on_c, 8, 34, 0
10, 47003, Note_on_c, 8, 27, 93
10, 47016, Note_on_c, 8, 27, 0
10, 47016, Control_c, 8, 123, 0
10, 47039, Note_on_c, 8, 27, 110
10, 47113, Note_on_c, 8, 27, 0
10, 47113, Control_c, 8, 123, 0
10, 47122, Note_on_c, 8, 34, 96
10, 47136, Note_on_c, 8, 34, 0
10, 47136, Control_c, 8, 123, 0
10, 47155, Note_on_c, 8, 34, 105
10, 47238, Note_on_c, 8, 34, 0
10, 47238, Control_c, 8, 123, 0
10, 47249, Note_on_c, 8, 39, 96
10, 47265, Note_on_c, 8, 39, 0
10, 47265, Control_c, 8, 123, 0
10, 47277, Note_on_c, 8, 39, 83
10, 47370, Note_on_c, 8, 34, 110
10, 47371, Note_on_c, 8, 39, 0
10, 47384, Note_on_c, 8, 34, 0
10, 47384, Control_c, 8, 123, 0
10, 47396, Note_on_c, 8, 34, 90
10, 47486, Note_on_c, 8, 27, 100
10, 47501, Note_on_c, 8, 34, 0
10, 47503, Note_on_c, 8, 27, 0
10, 47503, Control_c, 8, 123, 0
10, 47519, Note_on_c, 8, 26, 92
10, 47598, Note_on_c, 8, 33, 92
10, 47600, Note_on_c, 8, 26, 0
10, 47613, Note_on_c, 8, 33, 0
10, 47613, Control_c, 8, 123, 0
10, 47629, Note_on_c, 8, 33, 105
10, 47718, Note_on_c, 8, 38, 86
10, 47723, Note_on_c, 8, 33, 0
10, 47735, Note_on_c, 8, 38, 0
10, 47735, Control_c, 8, 123, 0
10, 47753, Note_on_c, 8, 38, 98
10, 47848, Note_on_c, 8, 33, 80
10, 47858, Note_on_c, 8, 38, 0
10, 47864, Note_on_c, 8, 33, 0
10, 47864, Control_c, 8, 123, 0
10, 47878, Note_on_c, 8, 33, 100
10, 47969, Note_on_c, 8, 26, 84
10, 47983, Note_on_c, 8, 26, 0
10, 47989, Note_on_c, 8, 33, 0
10, 47989, Control_c, 8, 123, 0
10, 48002, Note_on_c, 8, 26, 107
10, 48087, Note_on_c, 8, 26, 0
10, 48087, Control_c, 8, 123, 0
10, 48087, Note_on_c, 8, 33, 86
10, 48099, Note_on_c, 8, 33, 0
10, 48099, Control_c, 8, 123, 0
10, 48114, Note_on_c, 8, 33, 96
10, 48204, Note_on_c, 8, 38, 90
10, 48205, Note_on_c, 8, 33, 0
10, 48221, Note_on_c, 8, 38, 0
10, 48221, Control_c, 8, 123, 0
10, 48236, Note_on_c, 8, 38, 98
10, 48326, Note_on_c, 8, 33, 100
10, 48336, Note_on_c, 8, 38, 0
10, 48341, Note_on_c, 8, 33, 0
10, 48342, Control_c, 8, 123, 0
10, 48353, Note_on_c, 8, 33, 98
10, 48441, Note_on_c, 8, 38, 102
10, 48454, Note_on_c, 8, 33, 0
10, 48476, Note_on_c, 8, 27, 93
10, 48480, Note_on_c, 8, 38, 0
10, 48566, Note_on_c, 8, 34, 77
10, 48570, Note_on_c, 8, 27, 0
10, 48578, Note_on_c, 8, 34, 0
10, 48578, Control_c, 8, 123, 0
10, 48600, Note_on_c, 8, 34, 116
10, 48677, Note_on_c, 8, 34, 0
10, 48678, Control_c, 8, 123, 0
10, 48681, Note_on_c, 8, 39, 90
10, 48698, Note_on_c, 8, 39, 0
10, 48699, Control_c, 8, 123, 0
10, 48715, Note_on_c, 8, 39, 100
10, 48811, Note_on_c, 8, 39, 0
10, 48811, Note_on_c, 8, 34, 85
10, 48822, Note_on_c, 8, 34, 0
10, 48822, Control_c, 8, 123, 0
10, 48840, Note_on_c, 8, 34, 81
10, 48925, Note_on_c, 8, 27, 79
10, 48927, Note_on_c, 8, 34, 0
10, 48939, Note_on_c, 8, 27, 0
10, 48939, Control_c, 8, 123, 0
10, 48958, Note_on_c, 8, 27, 105
10, 49039, Note_on_c, 8, 27, 0
10, 49039, Control_c, 8, 123, 0
10, 49045, Note_on_c, 8, 34, 90
10, 49057, Note_on_c, 8, 34, 0
10, 49057, Control_c, 8, 123, 0
10, 49075, Note_on_c, 8, 34, 105
10, 49152, Note_on_c, 8, 34, 0
10, 49152, Control_c, 8, 123, 0
10, 49164, Note_on_c, 8, 39, 87
10, 49180, Note_on_c, 8, 39, 0
10, 49180, Control_c, 8, 123, 0
10, 49195, Note_on_c, 8, 39, 90
10, 49290, Note_on_c, 8, 39, 0
10, 49290, Control_c, 8, 123, 0
10, 49290, Note_on_c, 8, 34, 105
10, 49304, Note_on_c, 8, 34, 0
10, 49304, Control_c, 8, 123, 0
10, 49317, Note_on_c, 8, 34, 83
10, 49404, Note_on_c, 8, 27, 87
10, 49411, Note_on_c, 8, 34, 0
10, 49421, Note_on_c, 8, 27, 0
10, 49421, Control_c, 8, 123, 0
10, 49437, Note_on_c, 8, 26, 105
10, 49518, Note_on_c, 8, 26, 0
10, 49518, Note_on_c, 8, 33, 83
10, 49533, Note_on_c, 8, 33, 0
10, 49533, Control_c, 8, 123, 0
10, 49549, Note_on_c, 8, 33, 90
10, 49638, Note_on_c, 8, 33, 0
10, 49638, Control_c, 8, 123, 0
10, 49638, Note_on_c, 8, 38, 81
10, 49655, Note_on_c, 8, 38, 0
10, 49655, Control_c, 8, 123, 0
10, 49671, Note_on_c, 8, 38, 84
10, 49765, Note_on_c, 8, 33, 94
10, 49768, Note_on_c, 8, 38, 0
10, 49780, Note_on_c, 8, 33, 0
10, 49780, Control_c, 8, 123, 0
10, 49793, Note_on_c, 8, 33, 98
10, 49882, Note_on_c, 8, 26, 83
10, 49898, Note_on_c, 8, 26, 0
10, 49900, Note_on_c, 8, 33, 0
10, 49900, Control_c, 8, 123, 0
10, 49915, Note_on_c, 8, 26, 100
10, 50002, Note_on_c, 8, 26, 0
10, 50002, Control_c, 8, 123, 0
10, 50002, Note_on_c, 8, 33, 90
10, 50019, Note_on_c, 8, 33, 0
10, 50019, Control_c, 8, 123, 0
10, 50035, Note_on_c, 8, 33, 92
10, 50114, Note_on_c, 8, 33, 0
10, 50114, Control_c, 8, 123, 0
10, 50122, Note_on_c, 8, 38, 102
10, 50138, Note_on_c, 8, 38, 0
10, 50138, Control_c, 8, 123, 0
10, 50153, Note_on_c, 8, 38, 100
10, 50242, Note_on_c, 8, 38, 0
10, 50242, Control_c, 8, 123, 0
10, 50247, Note_on_c, 8, 33, 84
10, 50266, Note_on_c, 8, 33, 0
10, 50266, Control_c, 8, 123, 0
10, 50275, Note_on_c, 8, 33, 77
10, 50339, Note_on_c, 8, 26, 94
10, 50342, Note_on_c, 8, 33, 0
10, 50364, Note_on_c, 8, 26, 0
10, 50364, Control_c, 8, 123, 0
10, 50367, Note_on_c, 8, 33, 96
10, 50392, Note_on_c, 8, 33, 0
10, 50393, Control_c, 8, 123, 0
10, 50399, Note_on_c, 8, 27, 96
10, 50485, Note_on_c, 8, 27, 0
10, 50485, Control_c, 8, 123, 0
10, 50486, Note_on_c, 8, 34, 87
10, 50500, Note_on_c, 8, 34, 0
10, 50500, Control_c, 8, 123, 0
10, 50518, Note_on_c, 8, 34, 100
10, 50596, Note_on_c, 8, 34, 0
10, 50597, Control_c, 8, 123, 0
10, 50603, Note_on_c, 8, 39, 90
10, 50620, Note_on_c, 8, 39, 0
10, 50621, Control_c, 8, 123, 0
10, 50634, Note_on_c, 8, 39, 110
10, 50727, Note_on_c, 8, 34, 90
10, 50735, Note_on_c, 8, 39, 0
10, 50741, Note_on_c, 8, 34, 0
10, 50741, Control_c, 8, 123, 0
10, 50759, Note_on_c, 8, 34, 96
10, 50843, Note_on_c, 8, 34, 0
10, 50843, Control_c, 8, 123, 0
10, 50845, Note_on_c, 8, 27, 85
10, 50860, Note_on_c, 8, 27, 0
10, 50860, Control_c, 8, 123, 0
10, 50877, Note_on_c, 8, 27, 105
10, 50963, Note_on_c, 8, 27, 0
10, 50964, Control_c, 8, 123, 0
10, 50967, Note_on_c, 8, 34, 71
10, 50977, Note_on_c, 8, 34, 0
10, 50977, Control_c, 8, 123, 0
10, 50998, Note_on_c, 8, 34, 105
10, 51081, Note_on_c, 8, 34, 0
10, 51081, Control_c, 8, 123, 0
10, 51086, Note_on_c, 8, 39, 93
10, 51104, Note_on_c, 8, 39, 0
10, 51104, Control_c, 8, 123, 0
10, 51117, Note_on_c, 8, 39, 96
10, 51180, Note_on_c, 8, 38, 127
10, 51203, Note_on_c, 8, 39, 0
10, 51203, Control_c, 8, 123, 0
10, 51206, Note_on_c, 8, 38, 0
10, 51206, Control_c, 8, 123, 0
10, 51206, Note_on_c, 8, 34, 83
10, 51215, Note_on_c, 8, 34, 0
10, 51215, Control_c, 8, 123, 0
10, 51237, Note_on_c, 8, 34, 100
10, 51240, Note_on_c, 8, 41, 123
10, 51266, Note_on_c, 8, 41, 0
10, 51266, Control_c, 8, 123, 0
10, 51299, Note_on_c, 8, 34, 0
10, 51299, Control_c, 8, 123, 0
10, 51300, Note_on_c, 8, 45, 110
10, 51303, Note_on_c, 8, 27, 77
10, 51324, Note_on_c, 8, 27, 0
10, 51324, Control_c, 8, 123, 0
10, 51328, Note_on_c, 8, 45, 0
10, 51329, Control_c, 8, 123, 0
10, 51333, Note_on_c, 8, 34, 87
10, 51348, Note_on_c, 8, 34, 0
10, 51348, Control_c, 8, 123, 0
10, 51360, Control_c, 8, 7, 120
10, 51404, Control_c, 8, 7, 119
10, 51448, Control_c, 8, 7, 118
10, 51492, Control_c, 8, 7, 117
10, 51536, Control_c, 8, 7, 116
10, 51580, Control_c, 8, 7, 115
10, 51624, Control_c, 8, 7, 114
10, 51660, Note_on_c, 8, 38, 116
10, 51668, Control_c, 8, 7, 113
10, 51685, Control_c, 8, 123, 0
10, 51688, Note_on_c, 8, 38, 0
10, 51712, Control_c, 8, 7, 112
10, 51720, Note_on_c, 8, 41, 119
10, 51743, Control_c, 8, 123, 0
10, 51745, Note_on_c, 8, 41, 0
10, 51756, Control_c, 8, 7, 111
10, 51780, Note_on_c, 8, 45, 113
10, 51800, Control_c, 8, 7, 110
10, 51803, Control_c, 8, 123, 0
10, 51805, Note_on_c, 8, 45, 0
10, 51844, Control_c, 8, 7, 109
10, 51888, Control_c, 8, 7, 108
10, 51932, Control_c, 8, 7, 107
10, 51976, Control_c, 8, 7, 106
10, 52020, Control_c, 8, 7, 105
10, 52064, Control_c, 8, 7, 104
10, 52108, Control_c, 8, 7, 103
10, 52140, Note_on_c, 8, 38, 110
10, 52152, Control_c, 8, 7, 102
10, 52174, Note_on_c, 8, 38, 0
10, 52174, Control_c, 8, 123, 0
10, 52196, Control_c, 8, 7, 101
10, 52200, Note_on_c, 8, 41, 119
10, 52231, Note_on_c, 8, 41, 0
10, 52232, Control_c, 8, 123, 0
10, 52240, Control_c, 8, 7, 100
10, 52260, Note_on_c, 8, 43, 123
10, 52284, Control_c, 8, 7, 99
10, 52285, Note_on_c, 8, 43, 0
10, 52285, Control_c, 8, 123, 0
10, 52328, Control_c, 8, 7, 98
10, 52372, Control_c, 8, 7, 97
10, 52416, Control_c, 8, 7, 96
10, 52460, Control_c, 8, 7, 95
10, 52504, Control_c, 8, 7, 94
10, 52548, Control_c, 8, 7, 93
10, 52592, Control_c, 8, 7, 92
10, 52620, Note_on_c, 8, 38, 105
10, 52636, Control_c, 8, 7, 91
10, 52664, Control_c, 8, 123, 0
10, 52665, Note_on_c, 8, 38, 0
10, 52680, Control_c, 8, 7, 90
10, 52680, Note_on_c, 8, 41, 107
10, 52708, Control_c, 8, 123, 0
10, 52711, Note_on_c, 8, 41, 0
10, 52724, Control_c, 8, 7, 89
10, 52740, Note_on_c, 8, 43, 102
10, 52768, Control_c, 8, 7, 88
10, 52772, Control_c, 8, 123, 0
10, 52776, Note_on_c, 8, 43, 0
10, 52800, Note_on_c, 8, 45, 105
10, 52812, Control_c, 8, 7, 87
10, 52856, Control_c, 8, 7, 86
10, 52900, Control_c, 8, 7, 85
10, 52920, Note_on_c, 8, 43, 102
10, 52926, Note_on_c, 8, 45, 0
10, 52944, Control_c, 8, 7, 84
10, 52980, Note_on_c, 8, 41, 100
10, 52988, Control_c, 8, 7, 83
10, 52996, Note_on_c, 8, 43, 0
10, 53032, Control_c, 8, 7, 82
10, 53040, Note_on_c, 8, 43, 102
10, 53048, Note_on_c, 8, 41, 0
10, 53076, Control_c, 8, 7, 81
10, 53100, Note_on_c, 8, 38, 105
10, 53104, Note_on_c, 8, 43, 0
10, 53120, Control_c, 8, 7, 80
10, 53160, Note_on_c, 8, 41, 113
10, 53164, Control_c, 8, 7, 79
10, 53177, Note_on_c, 8, 38, 0
10, 53192, Note_on_c, 8, 41, 0
10, 53195, Control_c, 8, 123, 0
10, 53208, Control_c, 8, 7, 78
10, 53220, Note_on_c, 8, 45, 105
10, 53246, Note_on_c, 8, 45, 0
10, 53247, Control_c, 8, 123, 0
10, 53252, Control_c, 8, 7, 77
10, 53296, Control_c, 8, 7, 76
10, 53340, Control_c, 8, 7, 75
10, 53384, Control_c, 8, 7, 74
10, 53428, Control_c, 8, 7, 73
10, 53472, Control_c, 8, 7, 72
10, 53516, Control_c, 8, 7, 71
10, 53560, Control_c, 8, 7, 70
10, 53580, Note_on_c, 8, 38, 107
10, 53604, Control_c, 8, 7, 69
10, 53627, Control_c, 8, 123, 0
10, 53628, Note_on_c, 8, 38, 0
10, 53640, Note_on_c, 8, 41, 113
10, 53648, Control_c, 8, 7, 68
10, 53665, Note_on_c, 8, 41, 0
10, 53665, Control_c, 8, 123, 0
10, 53692, Control_c, 8, 7, 67
10, 53700, Note_on_c, 8, 45, 105
10, 53721, Control_c, 8, 123, 0
10, 53725, Note_on_c, 8, 45, 0
10, 53736, Control_c, 8, 7, 66
10, 53780, Control_c, 8, 7, 65
10, 53824, Control_c, 8, 7, 64
10, 53868, Control_c, 8, 7, 63
10, 53912, Control_c, 8, 7, 62
10, 53956, Control_c, 8, 7, 61
10, 54000, Control_c, 8, 7, 60
10, 54044, Control_c, 8, 7, 59
10, 54060, Note_on_c, 8, 38, 102
10, 54088, Control_c, 8, 7, 58
10, 54102, Control_c, 8, 123, 0
10, 54108, Note_on_c, 8, 38, 0
10, 54120, Note_on_c, 8, 41, 113
10, 54132, Control_c, 8, 7, 57
10, 54148, Control_c, 8, 123, 0
10, 54150, Note_on_c, 8, 41, 0
10, 54176, Control_c, 8, 7, 56
10, 54180, Note_on_c, 8, 43, 119
10, 54199, Control_c, 8, 123, 0
10, 54203, Note_on_c, 8, 43, 0
10, 54220, Control_c, 8, 7, 55
10, 54264, Control_c, 8, 7, 54
10, 54308, Control_c, 8, 7, 53
10, 54352, Control_c, 8, 7, 52
10, 54396, Control_c, 8, 7, 51
10, 54440, Control_c, 8, 7, 50
10, 54484, Control_c, 8, 7, 49
10, 54528, Control_c, 8, 7, 48
10, 54540, Note_on_c, 8, 38, 98
10, 54572, Control_c, 8, 7, 47
10, 54580, Control_c, 8, 123, 0
10, 54585, Note_on_c, 8, 38, 0
10, 54600, Note_on_c, 8, 41, 100
10, 54616, Control_c, 8, 7, 46
10, 54622, Control_c, 8, 123, 0
10, 54625, Note_on_c, 8, 41, 0
10, 54660, Control_c, 8, 7, 45
10, 54660, Note_on_c, 8, 43, 100
10, 54689, Control_c, 8, 123, 0
10, 54696, Note_on_c, 8, 43, 0
10, 54704, Control_c, 8, 7, 44
10, 54720, Note_on_c, 8, 45, 94
10, 54748, Control_c, 8, 7, 43
10, 54792, Control_c, 8, 7, 42
10, 54836, Control_c, 8, 7, 41
10, 54840, Note_on_c, 8, 43, 92
10, 54842, Note_on_c, 8, 45, 0
10, 54880, Control_c, 8, 7, 40
10, 54900, Note_on_c, 8, 41, 102
10, 54908, Note_on_c, 8, 43, 0
10, 54924, Control_c, 8, 7, 39
10, 54957, Control_c, 8, 123, 0
10, 54959, Note_on_c, 8, 41, 0
10, 54960, Note_on_c, 8, 43, 113
10, 54968, Control_c, 8, 7, 38
10, 55012, Control_c, 8, 7, 37
10, 55020, Note_on_c, 8, 41, 127
10, 55027, Note_on_c, 8, 43, 0
10, 55056, Control_c, 8, 7, 36
10, 55100, Control_c, 8, 7, 35
10, 55144, Control_c, 8, 7, 34
10, 55188, Control_c, 8, 7, 33
10, 55232, Control_c, 8, 7, 32
10, 55276, Control_c, 8, 7, 31
10, 55320, Control_c, 8, 7, 30
10, 55364, Control_c, 8, 7, 29
10, 55408, Control_c, 8, 7, 28
10, 55452, Control_c, 8, 7, 27
10, 55496, Control_c, 8, 7, 26
10, 55540, Control_c, 8, 7, 25
10, 55584, Control_c, 8, 7, 24
10, 55628, Control_c, 8, 7, 23
10, 55672, Control_c, 8, 7, 22
10, 55685, Note_on_c, 8, 41, 0
10, 55687, Control_c, 8, 123, 0
10, 55716, Control_c, 8, 7, 21
10, 55744, Note_on_c, 8, 26, 90
10, 55759, Note_on_c, 8, 26, 0
10, 55759, Control_c, 8, 123, 0
10, 55760, Control_c, 8, 7, 20
10, 55774, Note_on_c, 8, 38, 116
10, 55792, Note_on_c, 8, 38, 0
10, 55792, Control_c, 8, 123, 0
10, 55804, Control_c, 8, 7, 19
10, 55848, Control_c, 8, 7, 18
10, 55892, Control_c, 8, 7, 17
10, 55921, Note_on_c, 8, 26, 94
10, 55936, Control_c, 8, 7, 16
10, 55949, Note_on_c, 8, 26, 0
10, 55949, Control_c, 8, 123, 0
10, 55949, Note_on_c, 8, 38, 82
10, 55972, Note_on_c, 8, 38, 0
10, 55972, Control_c, 8, 123, 0
10, 55972, Note_on_c, 8, 28, 76
10, 55980, Control_c, 8, 7, 15
10, 55995, Note_on_c, 8, 28, 0
10, 56024, Control_c, 8, 7, 14
10, 56068, Control_c, 8, 7, 13
10, 56112, Control_c, 8, 7, 12
10, 56156, Control_c, 8, 7, 11
10, 56200, Control_c, 8, 7, 10
10, 56244, Control_c, 8, 7, 9
10, 56288, Control_c, 8, 7, 8
10, 56332, Control_c, 8, 7, 7
10, 56376, Control_c, 8, 7, 6
10, 56420, Control_c, 8, 7, 5
10, 56464, Control_c, 8, 7, 4
10, 56508, Control_c, 8, 7, 3
10, 56552, Control_c, 8, 7, 2
10, 56596, Control_c, 8, 7, 1
10, 56640, Control_c, 8, 7, 0
10, 56640, End_track
11, 0, Start_track
11, 0, MIDI_port, 0
11, 0, Title_t, "The Musician's BBS"
11, 0, Control_c, 9, 7, 95
11, 0, Note_on_c, 9, 40, 72
11, 0, Note_on_c, 9, 42, 127
11, 0, Note_on_c, 9, 35, 92
11, 0, Note_on_c, 9, 42, 127
11, 0, Control_c, 9, 123, 0
11, 1, Note_on_c, 9, 40, 0
11, 18, Note_on_c, 9, 42, 0
11, 19, Note_on_c, 9, 42, 0
11, 19, Control_c, 9, 123, 0
11, 25, Control_c, 9, 123, 0
11, 30, Note_on_c, 9, 44, 59
11, 30, Note_on_c, 9, 44, 77
11, 31, Note_on_c, 9, 35, 0
11, 35, Control_c, 9, 123, 0
11, 43, Control_c, 9, 123, 0
11, 46, Note_on_c, 9, 44, 0
11, 48, Note_on_c, 9, 44, 0
11, 49, Control_c, 9, 123, 0
11, 60, Note_on_c, 9, 42, 83
11, 60, Note_on_c, 9, 42, 77
11, 70, Control_c, 9, 123, 0
11, 73, Note_on_c, 9, 42, 0
11, 73, Control_c, 9, 123, 0
11, 75, Note_on_c, 9, 42, 0
11, 90, Note_on_c, 9, 44, 95
11, 90, Note_on_c, 9, 44, 53
11, 100, Control_c, 9, 123, 0
11, 105, Control_c, 9, 123, 0
11, 106, Note_on_c, 9, 44, 0
11, 110, Note_on_c, 9, 44, 0
11, 120, Note_on_c, 9, 42, 127
11, 120, Note_on_c, 9, 42, 127
11, 120, Note_on_c, 9, 40, 106
11, 138, Control_c, 9, 123, 0
11, 139, Control_c, 9, 123, 0
11, 140, Note_on_c, 9, 42, 0
11, 141, Note_on_c, 9, 42, 0
11, 150, Note_on_c, 9, 44, 60
11, 150, Note_on_c, 9, 44, 44
11, 161, Control_c, 9, 123, 0
11, 164, Note_on_c, 9, 44, 0
11, 165, Control_c, 9, 123, 0
11, 166, Note_on_c, 9, 40, 0
11, 169, Control_c, 9, 123, 0
11, 171, Note_on_c, 9, 44, 0
11, 180, Note_on_c, 9, 42, 65
11, 180, Note_on_c, 9, 42, 51
11, 194, Note_on_c, 9, 42, 0
11, 196, Control_c, 9, 123, 0
11, 198, Control_c, 9, 123, 0
11, 199, Note_on_c, 9, 42, 0
11, 210, Note_on_c, 9, 44, 95
11, 210, Note_on_c, 9, 44, 90
11, 226, Control_c, 9, 123, 0
11, 228, Control_c, 9, 123, 0
11, 230, Note_on_c, 9, 44, 0
11, 231, Note_on_c, 9, 44, 0
11, 240, Note_on_c, 9, 42, 106
11, 240, Note_on_c, 9, 42, 40
11, 248, Note_on_c, 9, 42, 0
11, 250, Control_c, 9, 123, 0
11, 256, Note_on_c, 9, 42, 0
11, 256, Control_c, 9, 123, 0
11, 270, Note_on_c, 9, 44, 86
11, 270, Note_on_c, 9, 44, 100
11, 284, Control_c, 9, 123, 0
11, 289, Note_on_c, 9, 44, 0
11, 289, Control_c, 9, 123, 0
11, 290, Note_on_c, 9, 44, 0
11, 300, Note_on_c, 9, 42, 46
11, 300, Note_on_c, 9, 42, 50
11, 312, Note_on_c, 9, 42, 0
11, 312, Note_on_c, 9, 42, 0
11, 313, Control_c, 9, 123, 0
11, 315, Control_c, 9, 123, 0
11, 330, Note_on_c, 9, 44, 83
11, 330, Note_on_c, 9, 44, 80
11, 340, Control_c, 9, 123, 0
11, 345, Note_on_c, 9, 44, 0
11, 346, Note_on_c, 9, 44, 0
11, 346, Control_c, 9, 123, 0
11, 360, Note_on_c, 9, 42, 127
11, 360, Note_on_c, 9, 42, 127
11, 360, Note_on_c, 9, 40, 113
11, 375, Control_c, 9, 123, 0
11, 379, Note_on_c, 9, 42, 0
11, 379, Control_c, 9, 123, 0
11, 380, Note_on_c, 9, 42, 0
11, 390, Note_on_c, 9, 44, 67
11, 390, Note_on_c, 9, 44, 71
11, 399, Control_c, 9, 123, 0
11, 404, Control_c, 9, 123, 0
11, 405, Note_on_c, 9, 40, 0
11, 405, Note_on_c, 9, 44, 0
11, 406, Note_on_c, 9, 44, 0
11, 406, Control_c, 9, 123, 0
11, 420, Note_on_c, 9, 42, 65
11, 420, Note_on_c, 9, 42, 65
11, 432, Control_c, 9, 123, 0
11, 433, Control_c, 9, 123, 0
11, 434, Note_on_c, 9, 42, 0
11, 436, Note_on_c, 9, 42, 0
11, 450, Note_on_c, 9, 44, 95
11, 450, Note_on_c, 9, 46, 118
11, 450, Note_on_c, 9, 35, 61
11, 458, Control_c, 9, 123, 0
11, 459, Note_on_c, 9, 35, 0
11, 463, Control_c, 9, 123, 0
11, 463, Control_c, 9, 123, 0
11, 467, Note_on_c, 9, 44, 0
11, 471, Note_on_c, 9, 46, 0
11, 480, Note_on_c, 9, 42, 127
11, 480, Note_on_c, 9, 42, 83
11, 480, Note_on_c, 9, 35, 88
11, 489, Control_c, 9, 123, 0
11, 490, Note_on_c, 9, 35, 0
11, 490, Control_c, 9, 123, 0
11, 496, Control_c, 9, 123, 0
11, 498, Note_on_c, 9, 42, 0
11, 501, Note_on_c, 9, 42, 0
11, 510, Note_on_c, 9, 44, 73
11, 510, Note_on_c, 9, 44, 48
11, 510, Note_on_c, 9, 35, 97
11, 522, Control_c, 9, 123, 0
11, 526, Control_c, 9, 123, 0
11, 527, Control_c, 9, 123, 0
11, 529, Note_on_c, 9, 44, 0
11, 531, Note_on_c, 9, 44, 0
11, 531, Note_on_c, 9, 35, 0
11, 540, Note_on_c, 9, 42, 67
11, 540, Note_on_c, 9, 42, 63
11, 551, Control_c, 9, 123, 0
11, 552, Note_on_c, 9, 42, 0
11, 553, Control_c, 9, 123, 0
11, 559, Note_on_c, 9, 42, 0
11, 570, Note_on_c, 9, 44, 73
11, 570, Note_on_c, 9, 44, 83
11, 580, Control_c, 9, 123, 0
11, 585, Note_on_c, 9, 44, 0
11, 585, Control_c, 9, 123, 0
11, 590, Note_on_c, 9, 44, 0
11, 600, Note_on_c, 9, 42, 127
11, 600, Note_on_c, 9, 40, 103
11, 600, Note_on_c, 9, 42, 126
11, 615, Control_c, 9, 123, 0
11, 615, Control_c, 9, 123, 0
11, 618, Note_on_c, 9, 42, 0
11, 619, Note_on_c, 9, 42, 0
11, 630, Note_on_c, 9, 44, 63
11, 630, Note_on_c, 9, 44, 64
11, 638, Control_c, 9, 123, 0
11, 641, Note_on_c, 9, 44, 0
11, 641, Control_c, 9, 123, 0
11, 646, Note_on_c, 9, 44, 0
11, 660, Note_on_c, 9, 42, 75
11, 660, Note_on_c, 9, 42, 54
11, 662, Control_c, 9, 123, 0
11, 665, Note_on_c, 9, 42, 0
11, 671, Note_on_c, 9, 42, 0
11, 673, Control_c, 9, 123, 0
11, 675, Note_on_c, 9, 44, 77
11, 680, Control_c, 9, 123, 0
11, 684, Note_on_c, 9, 44, 0
11, 690, Note_on_c, 9, 42, 127
11, 690, Note_on_c, 9, 44, 90
11, 697, Control_c, 9, 123, 0
11, 704, Note_on_c, 9, 42, 0
11, 706, Control_c, 9, 123, 0
11, 710, Note_on_c, 9, 44, 0
11, 720, Note_on_c, 9, 44, 118
11, 720, Note_on_c, 9, 42, 48
11, 721, Control_c, 9, 123, 0
11, 725, Note_on_c, 9, 40, 0
11, 733, Control_c, 9, 123, 0
11, 736, Control_c, 9, 123, 0
11, 737, Note_on_c, 9, 42, 0
11, 738, Note_on_c, 9, 44, 0
11, 750, Note_on_c, 9, 44, 106
11, 764, Control_c, 9, 123, 0
11, 769, Note_on_c, 9, 44, 0
11, 780, Note_on_c, 9, 42, 126
11, 780, Note_on_c, 9, 42, 73
11, 788, Control_c, 9, 123, 0
11, 790, Control_c, 9, 123, 0
11, 793, Note_on_c, 9, 42, 0
11, 795, Note_on_c, 9, 42, 0
11, 810, Note_on_c, 9, 44, 100
11, 810, Note_on_c, 9, 44, 80
11, 810, Note_on_c, 9, 35, 68
11, 821, Control_c, 9, 123, 0
11, 821, Control_c, 9, 123, 0
11, 828, Note_on_c, 9, 44, 0
11, 828, Note_on_c, 9, 44, 0
11, 833, Control_c, 9, 123, 0
11, 835, Note_on_c, 9, 35, 0
11, 840, Note_on_c, 9, 42, 127
11, 840, Note_on_c, 9, 42, 100
11, 840, Note_on_c, 9, 40, 109
11, 854, Control_c, 9, 123, 0
11, 854, Control_c, 9, 123, 0
11, 858, Note_on_c, 9, 42, 0
11, 858, Note_on_c, 9, 42, 0
11, 870, Note_on_c, 9, 44, 100
11, 870, Note_on_c, 9, 44, 73
11, 870, Note_on_c, 9, 35, 82
11, 882, Control_c, 9, 123, 0
11, 882, Control_c, 9, 123, 0
11, 885, Note_on_c, 9, 40, 0
11, 886, Note_on_c, 9, 44, 0
11, 891, Note_on_c, 9, 44, 0
11, 892, Control_c, 9, 123, 0
11, 893, Note_on_c, 9, 35, 0
11, 900, Note_on_c, 9, 42, 69
11, 900, Note_on_c, 9, 44, 73
11, 913, Note_on_c, 9, 44, 0
11, 915, Control_c, 9, 123, 0
11, 918, Note_on_c, 9, 42, 0
11, 921, Control_c, 9, 123, 0
11, 930, Note_on_c, 9, 46, 112
11, 930, Note_on_c, 9, 42, 71
11, 930, Note_on_c, 9, 35, 57
11, 938, Control_c, 9, 123, 0
11, 941, Note_on_c, 9, 35, 0
11, 942, Control_c, 9, 123, 0
11, 946, Note_on_c, 9, 42, 0
11, 947, Control_c, 9, 123, 0
11, 951, Note_on_c, 9, 46, 0
11, 960, Note_on_c, 9, 42, 126
11, 960, Note_on_c, 9, 44, 112
11, 960, Note_on_c, 9, 35, 79
11, 973, Control_c, 9, 123, 0
11, 977, Control_c, 9, 123, 0
11, 979, Note_on_c, 9, 44, 0
11, 980, Note_on_c, 9, 42, 0
11, 980, Control_c, 9, 123, 0
11, 983, Note_on_c, 9, 35, 0
11, 990, Note_on_c, 9, 44, 95
11, 1004, Control_c, 9, 123, 0
11, 1008, Note_on_c, 9, 44, 0
11, 1020, Note_on_c, 9, 42, 60
11, 1035, Control_c, 9, 123, 0
11, 1036, Note_on_c, 9, 42, 0
11, 1050, Note_on_c, 9, 44, 67
11, 1050, Note_on_c, 9, 44, 51
11, 1064, Note_on_c, 9, 44, 0
11, 1065, Control_c, 9, 123, 0
11, 1065, Control_c, 9, 123, 0
11, 1068, Note_on_c, 9, 44, 0
11, 1080, Note_on_c, 9, 40, 86
11, 1080, Note_on_c, 9, 42, 127
11, 1080, Note_on_c, 9, 42, 127
11, 1100, Note_on_c, 9, 42, 0
11, 1101, Note_on_c, 9, 42, 0
11, 1101, Control_c, 9, 123, 0
11, 1101, Control_c, 9, 123, 0
11, 1110, Note_on_c, 9, 44, 83
11, 1110, Note_on_c, 9, 44, 77
11, 1125, Note_on_c, 9, 44, 0
11, 1125, Control_c, 9, 123, 0
11, 1126, Note_on_c, 9, 44, 0
11, 1126, Control_c, 9, 123, 0
11, 1140, Note_on_c, 9, 42, 56
11, 1140, Note_on_c, 9, 42, 54
11, 1155, Note_on_c, 9, 42, 0
11, 1155, Note_on_c, 9, 42, 0
11, 1158, Control_c, 9, 123, 0
11, 1159, Control_c, 9, 123, 0
11, 1170, Note_on_c, 9, 44, 112
11, 1170, Note_on_c, 9, 44, 100
11, 1187, Note_on_c, 9, 44, 0
11, 1188, Control_c, 9, 123, 0
11, 1189, Note_on_c, 9, 44, 0
11, 1190, Control_c, 9, 123, 0
11, 1200, Note_on_c, 9, 42, 67
11, 1200, Note_on_c, 9, 42, 127
11, 1218, Control_c, 9, 123, 0
11, 1219, Note_on_c, 9, 42, 0
11, 1220, Note_on_c, 9, 42, 0
11, 1224, Control_c, 9, 123, 0
11, 1230, Note_on_c, 9, 44, 90
11, 1230, Note_on_c, 9, 44, 100
11, 1247, Note_on_c, 9, 44, 0
11, 1247, Control_c, 9, 123, 0
11, 1248, Control_c, 9, 123, 0
11, 1250, Note_on_c, 9, 44, 0
11, 1260, Note_on_c, 9, 42, 65
11, 1260, Note_on_c, 9, 42, 53
11, 1273, Control_c, 9, 123, 0
11, 1275, Note_on_c, 9, 42, 0
11, 1278, Note_on_c, 9, 42, 0
11, 1278, Control_c, 9, 123, 0
11, 1287, Control_c, 9, 123, 0
11, 1288, Note_on_c, 9, 40, 0
11, 1290, Note_on_c, 9, 44, 90
11, 1290, Note_on_c, 9, 44, 77
11, 1304, Control_c, 9, 123, 0
11, 1305, Control_c, 9, 123, 0
11, 1306, Note_on_c, 9, 44, 0
11, 1308, Note_on_c, 9, 44, 0
11, 1320, Note_on_c, 9, 42, 127
11, 1320, Note_on_c, 9, 40, 117
11, 1320, Note_on_c, 9, 42, 127
11, 1337, Control_c, 9, 123, 0
11, 1339, Note_on_c, 9, 42, 0
11, 1339, Note_on_c, 9, 42, 0
11, 1341, Control_c, 9, 123, 0
11, 1347, Note_on_c, 9, 40, 0
11, 1349, Control_c, 9, 123, 0
11, 1350, Note_on_c, 9, 44, 86
11, 1350, Note_on_c, 9, 44, 73
11, 1360, Control_c, 9, 123, 0
11, 1362, Note_on_c, 9, 44, 0
11, 1362, Control_c, 9, 123, 0
11, 1364, Note_on_c, 9, 44, 0
11, 1380, Note_on_c, 9, 42, 83
11, 1380, Note_on_c, 9, 42, 75
11, 1383, Control_c, 9, 123, 0
11, 1386, Note_on_c, 9, 42, 0
11, 1395, Note_on_c, 9, 44, 90
11, 1395, Control_c, 9, 123, 0
11, 1396, Note_on_c, 9, 42, 0
11, 1402, Control_c, 9, 123, 0
11, 1407, Note_on_c, 9, 44, 0
11, 1410, Note_on_c, 9, 42, 127
11, 1410, Note_on_c, 9, 46, 95
11, 1410, Note_on_c, 9, 35, 56
11, 1415, Control_c, 9, 123, 0
11, 1419, Note_on_c, 9, 35, 0
11, 1422, Note_on_c, 9, 42, 0
11, 1423, Control_c, 9, 123, 0
11, 1428, Control_c, 9, 123, 0
11, 1431, Note_on_c, 9, 46, 0
11, 1440, Note_on_c, 9, 44, 112
11, 1440, Note_on_c, 9, 42, 65
11, 1440, Note_on_c, 9, 35, 86
11, 1453, Note_on_c, 9, 35, 0
11, 1455, Control_c, 9, 123, 0
11, 1455, Control_c, 9, 123, 0
11, 1458, Note_on_c, 9, 44, 0
11, 1460, Control_c, 9, 123, 0
11, 1463, Note_on_c, 9, 42, 0
11, 1470, Note_on_c, 9, 44, 83
11, 1470, Note_on_c, 9, 35, 95
11, 1484, Control_c, 9, 123, 0
11, 1487, Note_on_c, 9, 44, 0
11, 1488, Control_c, 9, 123, 0
11, 1490, Note_on_c, 9, 35, 0
11, 1500, Note_on_c, 9, 42, 106
11, 1500, Note_on_c, 9, 42, 65
11, 1513, Note_on_c, 9, 42, 0
11, 1513, Control_c, 9, 123, 0
11, 1515, Control_c, 9, 123, 0
11, 1518, Note_on_c, 9, 42, 0
11, 1530, Note_on_c, 9, 44, 95
11, 1530, Note_on_c, 9, 44, 71
11, 1540, Control_c, 9, 123, 0
11, 1541, Control_c, 9, 123, 0
11, 1543, Note_on_c, 9, 44, 0
11, 1545, Note_on_c, 9, 44, 0
11, 1560, Note_on_c, 9, 42, 127
11, 1560, Note_on_c, 9, 42, 118
11, 1560, Note_on_c, 9, 40, 113
11, 1576, Control_c, 9, 123, 0
11, 1577, Control_c, 9, 123, 0
11, 1579, Note_on_c, 9, 42, 0
11, 1579, Note_on_c, 9, 42, 0
11, 1585, Note_on_c, 9, 40, 0
11, 1585, Control_c, 9, 123, 0
11, 1590, Note_on_c, 9, 44, 77
11, 1590, Note_on_c, 9, 44, 77
11, 1599, Control_c, 9, 123, 0
11, 1600, Control_c, 9, 123, 0
11, 1602, Note_on_c, 9, 44, 0
11, 1604, Note_on_c, 9, 44, 0
11, 1620, Note_on_c, 9, 42, 56
11, 1620, Note_on_c, 9, 42, 61
11, 1633, Control_c, 9, 123, 0
11, 1634, Note_on_c, 9, 42, 0
11, 1636, Control_c, 9, 123, 0
11, 1639, Note_on_c, 9, 42, 0
11, 1650, Note_on_c, 9, 44, 95
11, 1650, Note_on_c, 9, 46, 90
11, 1661, Control_c, 9, 123, 0
11, 1663, Note_on_c, 9, 44, 0
11, 1665, Control_c, 9, 123, 0
11, 1670, Note_on_c, 9, 46, 0
11, 1680, Note_on_c, 9, 42, 100
11, 1680, Note_on_c, 9, 42, 71
11, 1696, Control_c, 9, 123, 0
11, 1697, Note_on_c, 9, 42, 0
11, 1698, Control_c, 9, 123, 0
11, 1702, Note_on_c, 9, 42, 0
11, 1710, Note_on_c, 9, 46, 118
11, 1710, Note_on_c, 9, 46, 86
11, 1720, Control_c, 9, 123, 0
11, 1726, Control_c, 9, 123, 0
11, 1728, Note_on_c, 9, 46, 0
11, 1728, Note_on_c, 9, 46, 0
11, 1740, Note_on_c, 9, 42, 73
11, 1740, Note_on_c, 9, 42, 57
11, 1752, Control_c, 9, 123, 0
11, 1753, Note_on_c, 9, 42, 0
11, 1754, Control_c, 9, 123, 0
11, 1762, Note_on_c, 9, 42, 0
11, 1770, Note_on_c, 9, 44, 90
11, 1770, Note_on_c, 9, 44, 75
11, 1784, Control_c, 9, 123, 0
11, 1787, Control_c, 9, 123, 0
11, 1791, Note_on_c, 9, 44, 0
11, 1792, Note_on_c, 9, 44, 0
11, 1800, Note_on_c, 9, 42, 127
11, 1800, Note_on_c, 9, 42, 112
11, 1800, Note_on_c, 9, 40, 103
11, 1814, Control_c, 9, 123, 0
11, 1815, Control_c, 9, 123, 0
11, 1816, Note_on_c, 9, 42, 0
11, 1819, Note_on_c, 9, 42, 0
11, 1824, Note_on_c, 9, 40, 0
11, 1825, Control_c, 9, 123, 0
11, 1830, Note_on_c, 9, 44, 80
11, 1830, Note_on_c, 9, 44, 69
11, 1830, Note_on_c, 9, 35, 70
11, 1836, Control_c, 9, 123, 0
11, 1838, Control_c, 9, 123, 0
11, 1843, Note_on_c, 9, 44, 0
11, 1845, Note_on_c, 9, 44, 0
11, 1846, Note_on_c, 9, 35, 0
11, 1847, Control_c, 9, 123, 0
11, 1857, Control_c, 9, 123, 0
11, 1860, Note_on_c, 9, 42, 86
11, 1860, Note_on_c, 9, 42, 49
11, 1860, Note_on_c, 9, 44, 73
11, 1863, Control_c, 9, 123, 0
11, 1865, Note_on_c, 9, 42, 0
11, 1867, Note_on_c, 9, 42, 0
11, 1872, Note_on_c, 9, 44, 0
11, 1875, Note_on_c, 9, 44, 90
11, 1877, Control_c, 9, 123, 0
11, 1881, Control_c, 9, 123, 0
11, 1886, Note_on_c, 9, 44, 0
11, 1890, Note_on_c, 9, 42, 127
11, 1890, Note_on_c, 9, 42, 86
11, 1898, Control_c, 9, 123, 0
11, 1899, Control_c, 9, 123, 0
11, 1903, Note_on_c, 9, 42, 0
11, 1906, Note_on_c, 9, 42, 0
11, 1920, Note_on_c, 9, 44, 127
11, 1920, Note_on_c, 9, 44, 118
11, 1928, Control_c, 9, 123, 0
11, 1934, Control_c, 9, 123, 0
11, 1938, Note_on_c, 9, 44, 0
11, 1938, Note_on_c, 9, 44, 0
11, 1980, Note_on_c, 9, 42, 127
11, 1980, Note_on_c, 9, 42, 53
11, 1988, Control_c, 9, 123, 0
11, 1993, Note_on_c, 9, 42, 0
11, 1993, Control_c, 9, 123, 0
11, 1994, Note_on_c, 9, 42, 0
11, 2010, Note_on_c, 9, 44, 90
11, 2010, Note_on_c, 9, 44, 69
11, 2015, Control_c, 9, 123, 0
11, 2019, Control_c, 9, 123, 0
11, 2024, Note_on_c, 9, 44, 0
11, 2026, Note_on_c, 9, 44, 0
11, 2040, Note_on_c, 9, 42, 127
11, 2040, Note_on_c, 9, 40, 113
11, 2040, Note_on_c, 9, 42, 127
11, 2051, Control_c, 9, 123, 0
11, 2058, Note_on_c, 9, 42, 0
11, 2058, Note_on_c, 9, 42, 0
11, 2059, Control_c, 9, 123, 0
11, 2062, Control_c, 9, 123, 0
11, 2066, Note_on_c, 9, 40, 0
11, 2070, Note_on_c, 9, 44, 100
11, 2070, Note_on_c, 9, 44, 73
11, 2074, Control_c, 9, 123, 0
11, 2082, Control_c, 9, 123, 0
11, 2084, Note_on_c, 9, 44, 0
11, 2085, Note_on_c, 9, 44, 0
11, 2100, Note_on_c, 9, 42, 95
11, 2100, Note_on_c, 9, 42, 73
11, 2111, Control_c, 9, 123, 0
11, 2113, Control_c, 9, 123, 0
11, 2115, Note_on_c, 9, 42, 0
11, 2117, Note_on_c, 9, 42, 0
11, 2130, Note_on_c, 9, 44, 106
11, 2130, Note_on_c, 9, 46, 100
11, 2130, Note_on_c, 9, 35, 58
11, 2136, Control_c, 9, 123, 0
11, 2140, Control_c, 9, 123, 0
11, 2141, Note_on_c, 9, 35, 0
11, 2144, Control_c, 9, 123, 0
11, 2147, Note_on_c, 9, 44, 0
11, 2148, Note_on_c, 9, 46, 0
11, 2160, Note_on_c, 9, 42, 67
11, 2160, Note_on_c, 9, 42, 86
11, 2160, Note_on_c, 9, 35, 72
11, 2168, Note_on_c, 9, 42, 0
11, 2168, Control_c, 9, 123, 0
11, 2173, Control_c, 9, 123, 0
11, 2179, Control_c, 9, 123, 0
11, 2181, Note_on_c, 9, 42, 0
11, 2182, Note_on_c, 9, 35, 0
11, 2190, Note_on_c, 9, 44, 106
11, 2190, Note_on_c, 9, 44, 69
11, 2199, Control_c, 9, 123, 0
11, 2204, Note_on_c, 9, 44, 0
11, 2207, Control_c, 9, 123, 0
11, 2208, Note_on_c, 9, 44, 0
11, 2220, Note_on_c, 9, 42, 71
11, 2228, Control_c, 9, 123, 0
11, 2235, Note_on_c, 9, 42, 0
11, 2250, Note_on_c, 9, 44, 80
11, 2250, Note_on_c, 9, 44, 83
11, 2260, Control_c, 9, 123, 0
11, 2260, Control_c, 9, 123, 0
11, 2265, Note_on_c, 9, 44, 0
11, 2267, Note_on_c, 9, 44, 0
11, 2280, Note_on_c, 9, 42, 127
11, 2280, Note_on_c, 9, 40, 113
11, 2280, Note_on_c, 9, 42, 127
11, 2294, Control_c, 9, 123, 0
11, 2295, Control_c, 9, 123, 0
11, 2298, Control_c, 9, 123, 0
11, 2299, Note_on_c, 9, 42, 0
11, 2300, Note_on_c, 9, 42, 0
11, 2303, Note_on_c, 9, 40, 0
11, 2310, Note_on_c, 9, 44, 86
11, 2310, Note_on_c, 9, 44, 80
11, 2317, Control_c, 9, 123, 0
11, 2320, Control_c, 9, 123, 0
11, 2323, Note_on_c, 9, 44, 0
11, 2327, Note_on_c, 9, 44, 0
11, 2340, Note_on_c, 9, 42, 42
11, 2340, Note_on_c, 9, 42, 40
11, 2346, Control_c, 9, 123, 0
11, 2352, Note_on_c, 9, 42, 0
11, 2353, Note_on_c, 9, 42, 0
11, 2354, Control_c, 9, 123, 0
11, 2370, Note_on_c, 9, 44, 80
11, 2370, Note_on_c, 9, 44, 69
11, 2370, Note_on_c, 9, 35, 66
11, 2375, Control_c, 9, 123, 0
11, 2376, Control_c, 9, 123, 0
11, 2380, Note_on_c, 9, 35, 0
11, 2382, Control_c, 9, 123, 0
11, 2385, Note_on_c, 9, 44, 0
11, 2385, Note_on_c, 9, 44, 0
11, 2400, Note_on_c, 9, 42, 127
11, 2400, Note_on_c, 9, 42, 127
11, 2400, Note_on_c, 9, 35, 103
11, 2409, Control_c, 9, 123, 0
11, 2417, Control_c, 9, 123, 0
11, 2417, Control_c, 9, 123, 0
11, 2419, Note_on_c, 9, 42, 0
11, 2419, Note_on_c, 9, 42, 0
11, 2420, Note_on_c, 9, 35, 0
11, 2430, Note_on_c, 9, 44, 80
11, 2430, Note_on_c, 9, 44, 73
11, 2433, Control_c, 9, 123, 0
11, 2443, Control_c, 9, 123, 0
11, 2445, Note_on_c, 9, 44, 0
11, 2448, Note_on_c, 9, 44, 0
11, 2460, Note_on_c, 9, 42, 75
11, 2460, Note_on_c, 9, 42, 51
11, 2468, Control_c, 9, 123, 0
11, 2475, Control_c, 9, 123, 0
11, 2476, Note_on_c, 9, 42, 0
11, 2477, Note_on_c, 9, 42, 0
11, 2490, Note_on_c, 9, 44, 90
11, 2490, Note_on_c, 9, 44, 83
11, 2497, Control_c, 9, 123, 0
11, 2505, Note_on_c, 9, 44, 0
11, 2505, Control_c, 9, 123, 0
11, 2508, Note_on_c, 9, 44, 0
11, 2520, Note_on_c, 9, 42, 126
11, 2520, Note_on_c, 9, 40, 113
11, 2520, Note_on_c, 9, 42, 127
11, 2533, Control_c, 9, 123, 0
11, 2537, Note_on_c, 9, 42, 0
11, 2538, Control_c, 9, 123, 0
11, 2541, Note_on_c, 9, 42, 0
11, 2545, Control_c, 9, 123, 0
11, 2548, Note_on_c, 9, 40, 0
11, 2550, Note_on_c, 9, 44, 67
11, 2550, Note_on_c, 9, 44, 60
11, 2559, Control_c, 9, 123, 0
11, 2560, Control_c, 9, 123, 0
11, 2563, Note_on_c, 9, 44, 0
11, 2568, Note_on_c, 9, 44, 0
11, 2580, Note_on_c, 9, 42, 55
11, 2580, Note_on_c, 9, 42, 95
11, 2586, Note_on_c, 9, 42, 0
11, 2587, Control_c, 9, 123, 0
11, 2593, Control_c, 9, 123, 0
11, 2595, Note_on_c, 9, 44, 86
11, 2598, Note_on_c, 9, 42, 0
11, 2603, Control_c, 9, 123, 0
11, 2607, Note_on_c, 9, 44, 0
11, 2610, Note_on_c, 9, 42, 112
11, 2610, Note_on_c, 9, 44, 83
11, 2620, Control_c, 9, 123, 0
11, 2621, Control_c, 9, 123, 0
11, 2623, Note_on_c, 9, 42, 0
11, 2629, Note_on_c, 9, 44, 0
11, 2640, Note_on_c, 9, 44, 118
11, 2640, Note_on_c, 9, 42, 95
11, 2653, Control_c, 9, 123, 0
11, 2657, Control_c, 9, 123, 0
11, 2658, Note_on_c, 9, 44, 0
11, 2659, Note_on_c, 9, 42, 0
11, 2670, Note_on_c, 9, 44, 65
11, 2678, Control_c, 9, 123, 0
11, 2685, Note_on_c, 9, 44, 0
11, 2700, Note_on_c, 9, 42, 100
11, 2700, Note_on_c, 9, 42, 60
11, 2712, Control_c, 9, 123, 0
11, 2713, Note_on_c, 9, 42, 0
11, 2714, Control_c, 9, 123, 0
11, 2717, Note_on_c, 9, 42, 0
11, 2730, Note_on_c, 9, 44, 75
11, 2730, Note_on_c, 9, 44, 77
11, 2738, Control_c, 9, 123, 0
11, 2739, Control_c, 9, 123, 0
11, 2743, Note_on_c, 9, 44, 0
11, 2744, Note_on_c, 9, 44, 0
11, 2760, Note_on_c, 9, 42, 127
11, 2760, Note_on_c, 9, 42, 127
11, 2760, Note_on_c, 9, 40, 113
11, 2777, Control_c, 9, 123, 0
11, 2778, Note_on_c, 9, 42, 0
11, 2778, Control_c, 9, 123, 0
11, 2780, Note_on_c, 9, 42, 0
11, 2785, Note_on_c, 9, 40, 0
11, 2786, Control_c, 9, 123, 0
11, 2790, Note_on_c, 9, 44, 100
11, 2790, Note_on_c, 9, 44, 86
11, 2801, Control_c, 9, 123, 0
11, 2802, Control_c, 9, 123, 0
11, 2805, Note_on_c, 9, 44, 0
11, 2805, Note_on_c, 9, 44, 0
11, 2820, Note_on_c, 9, 42, 95
11, 2820, Note_on_c, 9, 42, 67
11, 2835, Note_on_c, 9, 42, 0
11, 2835, Control_c, 9, 123, 0
11, 2838, Control_c, 9, 123, 0
11, 2840, Note_on_c, 9, 42, 0
11, 2850, Note_on_c, 9, 46, 106
11, 2850, Note_on_c, 9, 46, 100
11, 2850, Note_on_c, 9, 35, 67
11, 2857, Control_c, 9, 123, 0
11, 2859, Note_on_c, 9, 35, 0
11, 2866, Control_c, 9, 123, 0
11, 2867, Control_c, 9, 123, 0
11, 2869, Note_on_c, 9, 46, 0
11, 2869, Note_on_c, 9, 46, 0
11, 2880, Note_on_c, 9, 42, 126
11, 2880, Note_on_c, 9, 42, 126
11, 2880, Note_on_c, 9, 35, 113
11, 2897, Note_on_c, 9, 42, 0
11, 2897, Control_c, 9, 123, 0
11, 2899, Control_c, 9, 123, 0
11, 2901, Note_on_c, 9, 35, 0
11, 2901, Control_c, 9, 123, 0
11, 2902, Note_on_c, 9, 42, 0
11, 2910, Note_on_c, 9, 44, 90
11, 2910, Note_on_c, 9, 44, 71
11, 2920, Control_c, 9, 123, 0
11, 2922, Note_on_c, 9, 44, 0
11, 2923, Control_c, 9, 123, 0
11, 2928, Note_on_c, 9, 44, 0
11, 2940, Note_on_c, 9, 42, 69
11, 2940, Note_on_c, 9, 42, 69
11, 2950, Control_c, 9, 123, 0
11, 2952, Note_on_c, 9, 42, 0
11, 2956, Control_c, 9, 123, 0
11, 2958, Note_on_c, 9, 42, 0
11, 2970, Note_on_c, 9, 44, 86
11, 2970, Note_on_c, 9, 44, 86
11, 2979, Control_c, 9, 123, 0
11, 2985, Control_c, 9, 123, 0
11, 2986, Note_on_c, 9, 44, 0
11, 2987, Note_on_c, 9, 44, 0
11, 3000, Note_on_c, 9, 42, 127
11, 3000, Note_on_c, 9, 42, 118
11, 3000, Note_on_c, 9, 40, 106
11, 3016, Control_c, 9, 123, 0
11, 3018, Note_on_c, 9, 42, 0
11, 3018, Control_c, 9, 123, 0
11, 3021, Note_on_c, 9, 42, 0
11, 3024, Note_on_c, 9, 40, 0
11, 3024, Control_c, 9, 123, 0
11, 3030, Note_on_c, 9, 44, 86
11, 3030, Note_on_c, 9, 44, 64
11, 3040, Control_c, 9, 123, 0
11, 3043, Control_c, 9, 123, 0
11, 3047, Note_on_c, 9, 44, 0
11, 3048, Note_on_c, 9, 44, 0
11, 3060, Note_on_c, 9, 42, 45
11, 3060, Note_on_c, 9, 42, 69
11, 3074, Control_c, 9, 123, 0
11, 3074, Control_c, 9, 123, 0
11, 3075, Note_on_c, 9, 42, 0
11, 3079, Note_on_c, 9, 42, 0
11, 3090, Note_on_c, 9, 44, 86
11, 3090, Note_on_c, 9, 44, 77
11, 3100, Control_c, 9, 123, 0
11, 3103, Control_c, 9, 123, 0
11, 3105, Note_on_c, 9, 44, 0
11, 3110, Note_on_c, 9, 44, 0
11, 3120, Note_on_c, 9, 42, 126
11, 3120, Note_on_c, 9, 42, 71
11, 3136, Control_c, 9, 123, 0
11, 3137, Control_c, 9, 123, 0
11, 3139, Note_on_c, 9, 42, 0
11, 3141, Note_on_c, 9, 42, 0
11, 3150, Note_on_c, 9, 44, 83
11, 3150, Note_on_c, 9, 44, 67
11, 3158, Control_c, 9, 123, 0
11, 3161, Control_c, 9, 123, 0
11, 3165, Note_on_c, 9, 44, 0
11, 3168, Note_on_c, 9, 44, 0
11, 3180, Note_on_c, 9, 42, 53
11, 3180, Note_on_c, 9, 42, 75
11, 3192, Control_c, 9, 123, 0
11, 3193, Control_c, 9, 123, 0
11, 3195, Note_on_c, 9, 44, 75
11, 3198, Note_on_c, 9, 42, 0
11, 3198, Note_on_c, 9, 42, 0
11, 3210, Note_on_c, 9, 44, 73
11, 3211, Note_on_c, 9, 44, 0
11, 3218, Control_c, 9, 123, 0
11, 3224, Control_c, 9, 123, 0
11, 3230, Note_on_c, 9, 44, 0
11, 3240, Note_on_c, 9, 42, 127
11, 3240, Note_on_c, 9, 40, 117
11, 3240, Note_on_c, 9, 42, 83
11, 3258, Control_c, 9, 123, 0
11, 3258, Control_c, 9, 123, 0
11, 3259, Note_on_c, 9, 42, 0
11, 3259, Note_on_c, 9, 42, 0
11, 3263, Control_c, 9, 123, 0
11, 3265, Note_on_c, 9, 40, 0
11, 3270, Note_on_c, 9, 44, 69
11, 3270, Note_on_c, 9, 44, 77
11, 3281, Control_c, 9, 123, 0
11, 3282, Control_c, 9, 123, 0
11, 3285, Note_on_c, 9, 44, 0
11, 3287, Note_on_c, 9, 44, 0
11, 3300, Note_on_c, 9, 50, 68
11, 3300, Note_on_c, 9, 42, 69
11, 3300, Note_on_c, 9, 42, 73
11, 3303, Note_on_c, 9, 50, 0
11, 3304, Control_c, 9, 123, 0
11, 3314, Control_c, 9, 123, 0
11, 3315, Note_on_c, 9, 42, 0
11, 3315, Note_on_c, 9, 42, 0
11, 3315, Note_on_c, 9, 50, 71
11, 3315, Control_c, 9, 123, 0
11, 3319, Control_c, 9, 123, 0
11, 3323, Note_on_c, 9, 50, 0
11, 3330, Note_on_c, 9, 50, 71
11, 3330, Note_on_c, 9, 44, 73
11, 3330, Note_on_c, 9, 44, 75
11, 3330, Control_c, 9, 123, 0
11, 3336, Note_on_c, 9, 50, 0
11, 3342, Control_c, 9, 123, 0
11, 3345, Control_c, 9, 123, 0
11, 3346, Note_on_c, 9, 44, 0
11, 3349, Note_on_c, 9, 44, 0
11, 3360, Note_on_c, 9, 50, 106
11, 3360, Note_on_c, 9, 42, 127
11, 3360, Note_on_c, 9, 42, 73
11, 3360, Note_on_c, 9, 35, 71
11, 3372, Note_on_c, 9, 35, 0
11, 3374, Control_c, 9, 123, 0
11, 3376, Control_c, 9, 123, 0
11, 3377, Control_c, 9, 123, 0
11, 3378, Note_on_c, 9, 42, 0
11, 3380, Note_on_c, 9, 42, 0
11, 3390, Note_on_c, 9, 44, 73
11, 3390, Note_on_c, 9, 44, 86
11, 3390, Note_on_c, 9, 35, 100
11, 3396, Control_c, 9, 123, 0
11, 3398, Note_on_c, 9, 50, 0
11, 3400, Control_c, 9, 123, 0
11, 3401, Control_c, 9, 123, 0
11, 3404, Note_on_c, 9, 44, 0
11, 3407, Control_c, 9, 123, 0
11, 3408, Note_on_c, 9, 44, 0
11, 3408, Note_on_c, 9, 35, 0
11, 3420, Note_on_c, 9, 42, 77
11, 3420, Note_on_c, 9, 42, 51
11, 3433, Control_c, 9, 123, 0
11, 3433, Control_c, 9, 123, 0
11, 3435, Note_on_c, 9, 42, 0
11, 3435, Note_on_c, 9, 42, 0
11, 3450, Note_on_c, 9, 50, 80
11, 3450, Note_on_c, 9, 44, 90
11, 3450, Note_on_c, 9, 44, 80
11, 3461, Control_c, 9, 123, 0
11, 3464, Control_c, 9, 123, 0
11, 3464, Control_c, 9, 123, 0
11, 3466, Note_on_c, 9, 44, 0
11, 3468, Note_on_c, 9, 50, 0
11, 3468, Note_on_c, 9, 44, 0
11, 3480, Note_on_c, 9, 48, 122
11, 3480, Note_on_c, 9, 42, 127
11, 3480, Note_on_c, 9, 42, 127
11, 3480, Note_on_c, 9, 40, 122
11, 3496, Control_c, 9, 123, 0
11, 3497, Note_on_c, 9, 48, 0
11, 3497, Control_c, 9, 123, 0
11, 3498, Note_on_c, 9, 42, 0
11, 3499, Control_c, 9, 123, 0
11, 3500, Note_on_c, 9, 42, 0
11, 3504, Note_on_c, 9, 40, 0
11, 3506, Control_c, 9, 123, 0
11, 3510, Note_on_c, 9, 48, 109
11, 3510, Note_on_c, 9, 44, 67
11, 3510, Note_on_c, 9, 44, 90
11, 3518, Control_c, 9, 123, 0
11, 3520, Note_on_c, 9, 44, 0
11, 3524, Control_c, 9, 123, 0
11, 3526, Note_on_c, 9, 48, 0
11, 3526, Note_on_c, 9, 44, 0
11, 3527, Control_c, 9, 123, 0
11, 3540, Note_on_c, 9, 48, 82
11, 3540, Note_on_c, 9, 42, 71
11, 3542, Control_c, 9, 123, 0
11, 3543, Note_on_c, 9, 42, 0
11, 3548, Control_c, 9, 123, 0
11, 3551, Note_on_c, 9, 48, 0
11, 3555, Note_on_c, 9, 44, 80
11, 3559, Control_c, 9, 123, 0
11, 3563, Note_on_c, 9, 44, 0
11, 3570, Note_on_c, 9, 48, 76
11, 3570, Note_on_c, 9, 42, 127
11, 3570, Note_on_c, 9, 44, 100
11, 3572, Control_c, 9, 123, 0
11, 3578, Note_on_c, 9, 42, 0
11, 3583, Control_c, 9, 123, 0
11, 3585, Note_on_c, 9, 48, 0
11, 3586, Control_c, 9, 123, 0
11, 3589, Note_on_c, 9, 44, 0
11, 3600, Note_on_c, 9, 45, 103
11, 3600, Note_on_c, 9, 44, 112
11, 3600, Note_on_c, 9, 42, 106
11, 3614, Control_c, 9, 123, 0
11, 3615, Control_c, 9, 123, 0
11, 3615, Control_c, 9, 123, 0
11, 3616, Note_on_c, 9, 45, 0
11, 3618, Note_on_c, 9, 44, 0
11, 3620, Note_on_c, 9, 42, 0
11, 3630, Note_on_c, 9, 45, 82
11, 3630, Note_on_c, 9, 44, 100
11, 3642, Control_c, 9, 123, 0
11, 3646, Control_c, 9, 123, 0
11, 3647, Note_on_c, 9, 44, 0
11, 3651, Note_on_c, 9, 45, 0
11, 3660, Note_on_c, 9, 45, 86
11, 3660, Note_on_c, 9, 42, 118
11, 3669, Control_c, 9, 123, 0
11, 3671, Note_on_c, 9, 42, 0
11, 3675, Control_c, 9, 123, 0
11, 3678, Note_on_c, 9, 45, 0
11, 3690, Note_on_c, 9, 45, 86
11, 3690, Note_on_c, 9, 44, 106
11, 3690, Note_on_c, 9, 44, 73
11, 3697, Control_c, 9, 123, 0
11, 3700, Control_c, 9, 123, 0
11, 3704, Note_on_c, 9, 44, 0
11, 3705, Note_on_c, 9, 44, 0
11, 3708, Control_c, 9, 123, 0
11, 3712, Note_on_c, 9, 45, 0
11, 3720, Note_on_c, 9, 41, 80
11, 3720, Note_on_c, 9, 42, 127
11, 3720, Note_on_c, 9, 42, 127
11, 3720, Note_on_c, 9, 40, 117
11, 3726, Control_c, 9, 123, 0
11, 3728, Note_on_c, 9, 41, 0
11, 3734, Control_c, 9, 123, 0
11, 3737, Control_c, 9, 123, 0
11, 3738, Note_on_c, 9, 42, 0
11, 3739, Note_on_c, 9, 42, 0
11, 3744, Control_c, 9, 123, 0
11, 3745, Note_on_c, 9, 40, 0
11, 3750, Note_on_c, 9, 41, 77
11, 3750, Note_on_c, 9, 44, 100
11, 3750, Note_on_c, 9, 46, 100
11, 3755, Control_c, 9, 123, 0
11, 3760, Control_c, 9, 123, 0
11, 3761, Note_on_c, 9, 41, 0
11, 3764, Control_c, 9, 123, 0
11, 3765, Note_on_c, 9, 44, 0
11, 3772, Note_on_c, 9, 46, 0
11, 3780, Note_on_c, 9, 41, 54
11, 3780, Note_on_c, 9, 42, 118
11, 3780, Note_on_c, 9, 42, 67
11, 3786, Note_on_c, 9, 41, 0
11, 3786, Control_c, 9, 123, 0
11, 3792, Control_c, 9, 123, 0
11, 3794, Control_c, 9, 123, 0
11, 3795, Note_on_c, 9, 42, 0
11, 3796, Note_on_c, 9, 42, 0
11, 3810, Note_on_c, 9, 41, 71
11, 3810, Note_on_c, 9, 46, 118
11, 3810, Note_on_c, 9, 46, 118
11, 3810, Note_on_c, 9, 35, 68
11, 3823, Control_c, 9, 123, 0
11, 3823, Control_c, 9, 123, 0
11, 3823, Control_c, 9, 123, 0
11, 3824, Note_on_c, 9, 35, 0
11, 3824, Control_c, 9, 123, 0
11, 3826, Note_on_c, 9, 41, 0
11, 3829, Note_on_c, 9, 46, 0
11, 3829, Note_on_c, 9, 46, 0
11, 3840, Note_on_c, 9, 42, 127
11, 3840, Note_on_c, 9, 42, 77
11, 3840, Note_on_c, 9, 35, 95
11, 3840, Note_on_c, 9, 49, 118
11, 3853, Control_c, 9, 123, 0
11, 3855, Control_c, 9, 123, 0
11, 3856, Note_on_c, 9, 42, 0
11, 3859, Note_on_c, 9, 42, 0
11, 3864, Control_c, 9, 123, 0
11, 3865, Note_on_c, 9, 35, 0
11, 3870, Note_on_c, 9, 44, 86
11, 3870, Note_on_c, 9, 44, 73
11, 3880, Control_c, 9, 123, 0
11, 3883, Control_c, 9, 123, 0
11, 3885, Note_on_c, 9, 44, 0
11, 3886, Note_on_c, 9, 44, 0
11, 3900, Note_on_c, 9, 42, 73
11, 3900, Note_on_c, 9, 42, 64
11, 3915, Control_c, 9, 123, 0
11, 3916, Note_on_c, 9, 42, 0
11, 3916, Note_on_c, 9, 42, 0
11, 3916, Control_c, 9, 123, 0
11, 3930, Note_on_c, 9, 44, 83
11, 3930, Note_on_c, 9, 44, 83
11, 3939, Control_c, 9, 123, 0
11, 3945, Note_on_c, 9, 44, 0
11, 3947, Control_c, 9, 123, 0
11, 3948, Note_on_c, 9, 44, 0
11, 3960, Note_on_c, 9, 42, 127
11, 3960, Note_on_c, 9, 42, 127
11, 3960, Note_on_c, 9, 40, 113
11, 3975, Control_c, 9, 123, 0
11, 3978, Note_on_c, 9, 42, 0
11, 3982, Note_on_c, 9, 42, 0
11, 3982, Control_c, 9, 123, 0
11, 3984, Note_on_c, 9, 40, 0
11, 3985, Control_c, 9, 123, 0
11, 3990, Note_on_c, 9, 44, 90
11, 3990, Note_on_c, 9, 44, 75
11, 4000, Control_c, 9, 123, 0
11, 4005, Note_on_c, 9, 44, 0
11, 4008, Note_on_c, 9, 44, 0
11, 4010, Control_c, 9, 123, 0
11, 4020, Note_on_c, 9, 42, 83
11, 4020, Note_on_c, 9, 42, 64
11, 4034, Control_c, 9, 123, 0
11, 4035, Note_on_c, 9, 42, 0
11, 4035, Control_c, 9, 123, 0
11, 4036, Note_on_c, 9, 42, 0
11, 4050, Note_on_c, 9, 44, 100
11, 4050, Note_on_c, 9, 44, 86
11, 4066, Note_on_c, 9, 49, 0
11, 4066, Note_on_c, 9, 44, 0
11, 4066, Control_c, 9, 123, 0
11, 4067, Control_c, 9, 123, 0
11, 4067, Control_c, 9, 123, 0
11, 4068, Note_on_c, 9, 44, 0
11, 4080, Note_on_c, 9, 42, 75
11, 4080, Note_on_c, 9, 42, 106
11, 4095, Control_c, 9, 123, 0
11, 4096, Note_on_c, 9, 42, 0
11, 4096, Note_on_c, 9, 42, 0
11, 4099, Control_c, 9, 123, 0
11, 4110, Note_on_c, 9, 44, 90
11, 4110, Note_on_c, 9, 44, 64
11, 4122, Control_c, 9, 123, 0
11, 4122, Control_c, 9, 123, 0
11, 4124, Note_on_c, 9, 44, 0
11, 4128, Note_on_c, 9, 44, 0
11, 4140, Note_on_c, 9, 42, 86
11, 4140, Note_on_c, 9, 42, 69
11, 4153, Control_c, 9, 123, 0
11, 4155, Control_c, 9, 123, 0
11, 4156, Note_on_c, 9, 42, 0
11, 4158, Note_on_c, 9, 42, 0
11, 4170, Note_on_c, 9, 44, 80
11, 4170, Note_on_c, 9, 44, 80
11, 4185, Control_c, 9, 123, 0
11, 4186, Control_c, 9, 123, 0
11, 4188, Note_on_c, 9, 44, 0
11, 4191, Note_on_c, 9, 44, 0
11, 4200, Note_on_c, 9, 42, 127
11, 4200, Note_on_c, 9, 40, 113
11, 4200, Note_on_c, 9, 42, 69
11, 4215, Control_c, 9, 123, 0
11, 4217, Note_on_c, 9, 42, 0
11, 4218, Note_on_c, 9, 42, 0
11, 4218, Control_c, 9, 123, 0
11, 4219, Control_c, 9, 123, 0
11, 4221, Note_on_c, 9, 40, 0
11, 4230, Note_on_c, 9, 44, 71
11, 4230, Note_on_c, 9, 44, 90
11, 4236, Control_c, 9, 123, 0
11, 4242, Note_on_c, 9, 44, 0
11, 4245, Control_c, 9, 123, 0
11, 4250, Note_on_c, 9, 44, 0
11, 4260, Note_on_c, 9, 42, 95
11, 4260, Note_on_c, 9, 42, 69
11, 4263, Control_c, 9, 123, 0
11, 4268, Note_on_c, 9, 42, 0
11, 4274, Control_c, 9, 123, 0
11, 4275, Note_on_c, 9, 44, 95
11, 4279, Note_on_c, 9, 42, 0
11, 4282, Control_c, 9, 123, 0
11, 4288, Note_on_c, 9, 44, 0
11, 4290, Note_on_c, 9, 42, 127
11, 4290, Note_on_c, 9, 35, 63
11, 4290, Note_on_c, 9, 44, 77
11, 4299, Control_c, 9, 123, 0
11, 4300, Note_on_c, 9, 35, 0
11, 4301, Control_c, 9, 123, 0
11, 4305, Note_on_c, 9, 42, 0
11, 4307, Control_c, 9, 123, 0
11, 4309, Note_on_c, 9, 44, 0
11, 4320, Note_on_c, 9, 44, 118
11, 4320, Note_on_c, 9, 35, 109
11, 4320, Note_on_c, 9, 42, 73
11, 4334, Control_c, 9, 123, 0
11, 4338, Note_on_c, 9, 44, 0
11, 4340, Note_on_c, 9, 42, 0
11, 4340, Control_c, 9, 123, 0
11, 4340, Control_c, 9, 123, 0
11, 4342, Note_on_c, 9, 35, 0
11, 4350, Note_on_c, 9, 44, 83
11, 4367, Control_c, 9, 123, 0
11, 4368, Note_on_c, 9, 44, 0
11, 4380, Note_on_c, 9, 42, 90
11, 4380, Note_on_c, 9, 42, 65
11, 4389, Control_c, 9, 123, 0
11, 4392, Note_on_c, 9, 42, 0
11, 4395, Note_on_c, 9, 42, 0
11, 4395, Note_on_c, 9, 44, 90
11, 4397, Control_c, 9, 123, 0
11, 4410, Note_on_c, 9, 44, 0
11, 4410, Note_on_c, 9, 44, 95
11, 4418, Control_c, 9, 123, 0
11, 4428, Control_c, 9, 123, 0
11, 4429, Note_on_c, 9, 44, 0
11, 4440, Note_on_c, 9, 42, 127
11, 4440, Note_on_c, 9, 40, 109
11, 4440, Note_on_c, 9, 42, 127
11, 4455, Control_c, 9, 123, 0
11, 4460, Note_on_c, 9, 42, 0
11, 4460, Note_on_c, 9, 42, 0
11, 4460, Control_c, 9, 123, 0
11, 4463, Control_c, 9, 123, 0
11, 4465, Note_on_c, 9, 40, 0
11, 4470, Note_on_c, 9, 44, 90
11, 4470, Note_on_c, 9, 44, 73
11, 4479, Control_c, 9, 123, 0
11, 4483, Note_on_c, 9, 44, 0
11, 4488, Control_c, 9, 123, 0
11, 4489, Note_on_c, 9, 44, 0
11, 4500, Note_on_c, 9, 42, 57
11, 4512, Note_on_c, 9, 42, 0
11, 4513, Control_c, 9, 123, 0
11, 4530, Note_on_c, 9, 44, 95
11, 4530, Note_on_c, 9, 44, 95
11, 4543, Control_c, 9, 123, 0
11, 4545, Note_on_c, 9, 44, 0
11, 4545, Control_c, 9, 123, 0
11, 4548, Note_on_c, 9, 44, 0
11, 4560, Note_on_c, 9, 42, 106
11, 4560, Note_on_c, 9, 42, 73
11, 4575, Note_on_c, 9, 42, 0
11, 4575, Control_c, 9, 123, 0
11, 4575, Control_c, 9, 123, 0
11, 4576, Note_on_c, 9, 42, 0
11, 4590, Note_on_c, 9, 46, 126
11, 4590, Note_on_c, 9, 44, 90
11, 4605, Control_c, 9, 123, 0
11, 4607, Note_on_c, 9, 46, 0
11, 4607, Control_c, 9, 123, 0
11, 4608, Note_on_c, 9, 44, 0
11, 4620, Note_on_c, 9, 42, 95
11, 4620, Note_on_c, 9, 42, 67
11, 4632, Control_c, 9, 123, 0
11, 4634, Note_on_c, 9, 42, 0
11, 4635, Control_c, 9, 123, 0
11, 4637, Note_on_c, 9, 42, 0
11, 4650, Note_on_c, 9, 44, 80
11, 4650, Note_on_c, 9, 44, 100
11, 4660, Control_c, 9, 123, 0
11, 4661, Note_on_c, 9, 44, 0
11, 4668, Note_on_c, 9, 44, 0
11, 4669, Control_c, 9, 123, 0
11, 4680, Note_on_c, 9, 42, 127
11, 4680, Note_on_c, 9, 42, 100
11, 4680, Note_on_c, 9, 40, 113
11, 4695, Note_on_c, 9, 42, 0
11, 4695, Control_c, 9, 123, 0
11, 4699, Control_c, 9, 123, 0
11, 4700, Note_on_c, 9, 42, 0
11, 4704, Note_on_c, 9, 40, 0
11, 4704, Control_c, 9, 123, 0
11, 4710, Note_on_c, 9, 44, 95
11, 4710, Note_on_c, 9, 44, 75
11, 4720, Note_on_c, 9, 44, 0
11, 4720, Control_c, 9, 123, 0
11, 4726, Control_c, 9, 123, 0
11, 4729, Note_on_c, 9, 44, 0
11, 4740, Note_on_c, 9, 42, 77
11, 4740, Note_on_c, 9, 42, 65
11, 4753, Control_c, 9, 123, 0
11, 4754, Note_on_c, 9, 42, 0
11, 4757, Control_c, 9, 123, 0
11, 4761, Note_on_c, 9, 42, 0
11, 4770, Note_on_c, 9, 46, 126
11, 4770, Note_on_c, 9, 46, 126
11, 4770, Note_on_c, 9, 35, 68
11, 4780, Note_on_c, 9, 35, 0
11, 4780, Control_c, 9, 123, 0
11, 4785, Control_c, 9, 123, 0
11, 4787, Control_c, 9, 123, 0
11, 4788, Note_on_c, 9, 46, 0
11, 4789, Note_on_c, 9, 46, 0
11, 4800, Note_on_c, 9, 42, 112
11, 4800, Note_on_c, 9, 42, 69
11, 4800, Note_on_c, 9, 35, 100
11, 4818, Control_c, 9, 123, 0
11, 4818, Control_c, 9, 123, 0
11, 4819, Control_c, 9, 123, 0
11, 4820, Note_on_c, 9, 42, 0
11, 4821, Note_on_c, 9, 35, 0
11, 4822, Note_on_c, 9, 42, 0
11, 4830, Note_on_c, 9, 44, 86
11, 4830, Note_on_c, 9, 46, 86
11, 4843, Control_c, 9, 123, 0
11, 4845, Note_on_c, 9, 44, 0
11, 4847, Control_c, 9, 123, 0
11, 4852, Note_on_c, 9, 46, 0
11, 4860, Note_on_c, 9, 42, 73
11, 4860, Note_on_c, 9, 42, 63
11, 4867, Note_on_c, 9, 42, 0
11, 4867, Control_c, 9, 123, 0
11, 4875, Control_c, 9, 123, 0
11, 4876, Note_on_c, 9, 42, 0
11, 4890, Note_on_c, 9, 44, 95
11, 4890, Note_on_c, 9, 44, 73
11, 4900, Control_c, 9, 123, 0
11, 4903, Note_on_c, 9, 44, 0
11, 4903, Control_c, 9, 123, 0
11, 4909, Note_on_c, 9, 44, 0
11, 4920, Note_on_c, 9, 42, 127
11, 4920, Note_on_c, 9, 42, 90
11, 4920, Note_on_c, 9, 40, 109
11, 4935, Control_c, 9, 123, 0
11, 4938, Note_on_c, 9, 42, 0
11, 4939, Control_c, 9, 123, 0
11, 4944, Note_on_c, 9, 42, 0
11, 4945, Note_on_c, 9, 40, 0
11, 4947, Control_c, 9, 123, 0
11, 4950, Note_on_c, 9, 44, 86
11, 4950, Note_on_c, 9, 44, 52
11, 4960, Control_c, 9, 123, 0
11, 4962, Note_on_c, 9, 44, 0
11, 4962, Control_c, 9, 123, 0
11, 4966, Note_on_c, 9, 44, 0
11, 4980, Note_on_c, 9, 42, 53
11, 4980, Note_on_c, 9, 42, 77
11, 4993, Note_on_c, 9, 42, 0
11, 4996, Control_c, 9, 123, 0
11, 4999, Note_on_c, 9, 42, 0
11, 5000, Control_c, 9, 123, 0
11, 5010, Note_on_c, 9, 44, 86
11, 5010, Note_on_c, 9, 44, 80
11, 5027, Note_on_c, 9, 44, 0
11, 5027, Control_c, 9, 123, 0
11, 5030, Control_c, 9, 123, 0
11, 5031, Note_on_c, 9, 44, 0
11, 5040, Note_on_c, 9, 42, 65
11, 5040, Note_on_c, 9, 42, 126
11, 5058, Note_on_c, 9, 42, 0
11, 5059, Control_c, 9, 123, 0
11, 5060, Note_on_c, 9, 42, 0
11, 5061, Control_c, 9, 123, 0
11, 5070, Note_on_c, 9, 44, 100
11, 5070, Note_on_c, 9, 44, 95
11, 5084, Note_on_c, 9, 44, 0
11, 5085, Control_c, 9, 123, 0
11, 5090, Control_c, 9, 123, 0
11, 5092, Note_on_c, 9, 44, 0
11, 5100, Note_on_c, 9, 42, 51
11, 5100, Note_on_c, 9, 42, 77
11, 5111, Control_c, 9, 123, 0
11, 5112, Note_on_c, 9, 42, 0
11, 5116, Note_on_c, 9, 42, 0
11, 5117, Control_c, 9, 123, 0
11, 5130, Note_on_c, 9, 44, 80
11, 5130, Note_on_c, 9, 44, 100
11, 5146, Control_c, 9, 123, 0
11, 5146, Control_c, 9, 123, 0
11, 5147, Note_on_c, 9, 44, 0
11, 5148, Note_on_c, 9, 44, 0
11, 5160, Note_on_c, 9, 42, 127
11, 5160, Note_on_c, 9, 42, 95
11, 5160, Note_on_c, 9, 40, 117
11, 5177, Control_c, 9, 123, 0
11, 5178, Note_on_c, 9, 42, 0
11, 5178, Control_c, 9, 123, 0
11, 5180, Note_on_c, 9, 42, 0
11, 5188, Note_on_c, 9, 40, 0
11, 5190, Note_on_c, 9, 44, 83
11, 5190, Note_on_c, 9, 44, 67
11, 5190, Control_c, 9, 123, 0
11, 5199, Control_c, 9, 123, 0
11, 5201, Control_c, 9, 123, 0
11, 5203, Note_on_c, 9, 44, 0
11, 5207, Note_on_c, 9, 44, 0
11, 5220, Note_on_c, 9, 42, 55
11, 5220, Note_on_c, 9, 42, 83
11, 5225, Note_on_c, 9, 42, 0
11, 5226, Control_c, 9, 123, 0
11, 5231, Control_c, 9, 123, 0
11, 5233, Note_on_c, 9, 42, 0
11, 5235, Note_on_c, 9, 44, 86
11, 5243, Control_c, 9, 123, 0
11, 5246, Note_on_c, 9, 44, 0
11, 5250, Note_on_c, 9, 42, 127
11, 5250, Note_on_c, 9, 44, 71
11, 5250, Note_on_c, 9, 35, 74
11, 5258, Control_c, 9, 123, 0
11, 5259, Control_c, 9, 123, 0
11, 5260, Note_on_c, 9, 35, 0
11, 5261, Control_c, 9, 123, 0
11, 5264, Note_on_c, 9, 42, 0
11, 5265, Note_on_c, 9, 44, 112
11, 5267, Note_on_c, 9, 44, 0
11, 5280, Note_on_c, 9, 42, 80
11, 5280, Note_on_c, 9, 35, 76
11, 5281, Note_on_c, 9, 44, 0
11, 5286, Control_c, 9, 123, 0
11, 5288, Note_on_c, 9, 35, 0
11, 5288, Control_c, 9, 123, 0
11, 5292, Control_c, 9, 123, 0
11, 5297, Note_on_c, 9, 42, 0
11, 5310, Note_on_c, 9, 44, 83
11, 5310, Note_on_c, 9, 35, 95
11, 5320, Control_c, 9, 123, 0
11, 5324, Control_c, 9, 123, 0
11, 5326, Note_on_c, 9, 44, 0
11, 5328, Note_on_c, 9, 35, 0
11, 5340, Note_on_c, 9, 42, 112
11, 5340, Note_on_c, 9, 42, 54
11, 5349, Control_c, 9, 123, 0
11, 5352, Note_on_c, 9, 42, 0
11, 5353, Note_on_c, 9, 42, 0
11, 5353, Control_c, 9, 123, 0
11, 5370, Note_on_c, 9, 44, 95
11, 5370, Note_on_c, 9, 44, 71
11, 5381, Control_c, 9, 123, 0
11, 5384, Note_on_c, 9, 44, 0
11, 5388, Control_c, 9, 123, 0
11, 5389, Note_on_c, 9, 44, 0
11, 5400, Note_on_c, 9, 42, 127
11, 5400, Note_on_c, 9, 40, 109
11, 5400, Note_on_c, 9, 42, 127
11, 5416, Note_on_c, 9, 42, 0
11, 5416, Control_c, 9, 123, 0
11, 5417, Control_c, 9, 123, 0
11, 5418, Note_on_c, 9, 42, 0
11, 5430, Note_on_c, 9, 44, 90
11, 5430, Note_on_c, 9, 44, 65
11, 5438, Note_on_c, 9, 40, 0
11, 5438, Control_c, 9, 123, 0
11, 5440, Control_c, 9, 123, 0
11, 5442, Note_on_c, 9, 44, 0
11, 5443, Control_c, 9, 123, 0
11, 5445, Note_on_c, 9, 44, 0
11, 5460, Note_on_c, 9, 42, 75
11, 5460, Note_on_c, 9, 44, 77
11, 5460, Note_on_c, 9, 42, 59
11, 5461, Control_c, 9, 123, 0
11, 5466, Note_on_c, 9, 42, 0
11, 5474, Note_on_c, 9, 44, 0
11, 5474, Note_on_c, 9, 42, 0
11, 5476, Control_c, 9, 123, 0
11, 5481, Control_c, 9, 123, 0
11, 5490, Note_on_c, 9, 44, 86
11, 5490, Note_on_c, 9, 42, 106
11, 5499, Control_c, 9, 123, 0
11, 5504, Note_on_c, 9, 44, 0
11, 5505, Note_on_c, 9, 42, 0
11, 5505, Control_c, 9, 123, 0
11, 5520, Note_on_c, 9, 44, 112
11, 5520, Note_on_c, 9, 42, 106
11, 5535, Note_on_c, 9, 42, 0
11, 5535, Control_c, 9, 123, 0
11, 5537, Control_c, 9, 123, 0
11, 5544, Note_on_c, 9, 44, 0
11, 5550, Note_on_c, 9, 46, 126
11, 5567, Control_c, 9, 123, 0
11, 5568, Note_on_c, 9, 46, 0
11, 5580, Note_on_c, 9, 42, 71
11, 5580, Note_on_c, 9, 42, 67
11, 5585, Control_c, 9, 123, 0
11, 5587, Control_c, 9, 123, 0
11, 5589, Note_on_c, 9, 42, 0
11, 5595, Note_on_c, 9, 42, 0
11, 5610, Note_on_c, 9, 44, 75
11, 5610, Note_on_c, 9, 44, 75
11, 5617, Control_c, 9, 123, 0
11, 5623, Control_c, 9, 123, 0
11, 5625, Note_on_c, 9, 44, 0
11, 5627, Note_on_c, 9, 44, 0
11, 5640, Note_on_c, 9, 42, 127
11, 5640, Note_on_c, 9, 42, 127
11, 5640, Note_on_c, 9, 40, 122
11, 5654, Control_c, 9, 123, 0
11, 5657, Control_c, 9, 123, 0
11, 5658, Note_on_c, 9, 42, 0
11, 5660, Note_on_c, 9, 42, 0
11, 5661, Control_c, 9, 123, 0
11, 5665, Note_on_c, 9, 40, 0
11, 5670, Note_on_c, 9, 46, 126
11, 5670, Note_on_c, 9, 44, 86
11, 5679, Control_c, 9, 123, 0
11, 5684, Control_c, 9, 123, 0
11, 5685, Note_on_c, 9, 46, 0
11, 5685, Note_on_c, 9, 44, 0
11, 5700, Note_on_c, 9, 42, 106
11, 5700, Note_on_c, 9, 42, 57
11, 5713, Control_c, 9, 123, 0
11, 5713, Control_c, 9, 123, 0
11, 5714, Note_on_c, 9, 42, 0
11, 5717, Note_on_c, 9, 42, 0
11, 5730, Note_on_c, 9, 44, 95
11, 5730, Note_on_c, 9, 46, 112
11, 5730, Note_on_c, 9, 35, 80
11, 5742, Control_c, 9, 123, 0
11, 5743, Control_c, 9, 123, 0
11, 5745, Note_on_c, 9, 35, 0
11, 5749, Note_on_c, 9, 44, 0
11, 5749, Note_on_c, 9, 46, 0
11, 5749, Control_c, 9, 123, 0
11, 5760, Note_on_c, 9, 42, 80
11, 5760, Note_on_c, 9, 35, 103
11, 5760, Note_on_c, 9, 42, 127
11, 5775, Control_c, 9, 123, 0
11, 5778, Note_on_c, 9, 42, 0
11, 5779, Control_c, 9, 123, 0
11, 5781, Note_on_c, 9, 42, 0
11, 5783, Control_c, 9, 123, 0
11, 5785, Note_on_c, 9, 35, 0
11, 5790, Note_on_c, 9, 44, 71
11, 5790, Note_on_c, 9, 44, 73
11, 5802, Note_on_c, 9, 44, 0
11, 5803, Control_c, 9, 123, 0
11, 5803, Control_c, 9, 123, 0
11, 5809, Note_on_c, 9, 44, 0
11, 5820, Note_on_c, 9, 42, 55
11, 5820, Note_on_c, 9, 42, 64
11, 5832, Control_c, 9, 123, 0
11, 5834, Note_on_c, 9, 42, 0
11, 5835, Note_on_c, 9, 42, 0
11, 5836, Control_c, 9, 123, 0
11, 5850, Note_on_c, 9, 44, 83
11, 5850, Note_on_c, 9, 44, 100
11, 5863, Control_c, 9, 123, 0
11, 5865, Note_on_c, 9, 44, 0
11, 5866, Control_c, 9, 123, 0
11, 5868, Note_on_c, 9, 44, 0
11, 5880, Note_on_c, 9, 42, 127
11, 5880, Note_on_c, 9, 40, 109
11, 5880, Note_on_c, 9, 42, 127
11, 5895, Control_c, 9, 123, 0
11, 5896, Note_on_c, 9, 42, 0
11, 5898, Note_on_c, 9, 42, 0
11, 5899, Control_c, 9, 123, 0
11, 5905, Control_c, 9, 123, 0
11, 5906, Note_on_c, 9, 40, 0
11, 5910, Note_on_c, 9, 44, 77
11, 5910, Note_on_c, 9, 44, 80
11, 5922, Note_on_c, 9, 44, 0
11, 5924, Control_c, 9, 123, 0
11, 5925, Note_on_c, 9, 44, 0
11, 5925, Control_c, 9, 123, 0
11, 5940, Note_on_c, 9, 42, 77
11, 5940, Note_on_c, 9, 42, 51
11, 5952, Note_on_c, 9, 42, 0
11, 5954, Control_c, 9, 123, 0
11, 5955, Note_on_c, 9, 42, 0
11, 5955, Control_c, 9, 123, 0
11, 5970, Note_on_c, 9, 44, 86
11, 5970, Note_on_c, 9, 44, 80
11, 5982, Control_c, 9, 123, 0
11, 5984, Note_on_c, 9, 44, 0
11, 5984, Control_c, 9, 123, 0
11, 5986, Note_on_c, 9, 44, 0
11, 6000, Note_on_c, 9, 42, 126
11, 6000, Note_on_c, 9, 42, 58
11, 6014, Control_c, 9, 123, 0
11, 6016, Note_on_c, 9, 42, 0
11, 6017, Note_on_c, 9, 42, 0
11, 6017, Control_c, 9, 123, 0
11, 6030, Note_on_c, 9, 44, 77
11, 6030, Note_on_c, 9, 44, 71
11, 6039, Control_c, 9, 123, 0
11, 6043, Note_on_c, 9, 44, 0
11, 6044, Control_c, 9, 123, 0
11, 6048, Note_on_c, 9, 44, 0
11, 6060, Note_on_c, 9, 42, 90
11, 6060, Note_on_c, 9, 42, 59
11, 6073, Control_c, 9, 123, 0
11, 6076, Note_on_c, 9, 42, 0
11, 6077, Control_c, 9, 123, 0
11, 6079, Note_on_c, 9, 42, 0
11, 6090, Note_on_c, 9, 44, 95
11, 6090, Note_on_c, 9, 44, 80
11, 6100, Control_c, 9, 123, 0
11, 6101, Control_c, 9, 123, 0
11, 6105, Note_on_c, 9, 44, 0
11, 6106, Note_on_c, 9, 44, 0
11, 6120, Note_on_c, 9, 42, 112
11, 6120, Note_on_c, 9, 40, 109
11, 6120, Note_on_c, 9, 42, 106
11, 6133, Control_c, 9, 123, 0
11, 6138, Note_on_c, 9, 42, 0
11, 6138, Control_c, 9, 123, 0
11, 6139, Note_on_c, 9, 42, 0
11, 6140, Control_c, 9, 123, 0
11, 6147, Note_on_c, 9, 40, 0
11, 6150, Note_on_c, 9, 44, 75
11, 6150, Note_on_c, 9, 44, 71
11, 6159, Control_c, 9, 123, 0
11, 6161, Control_c, 9, 123, 0
11, 6165, Note_on_c, 9, 44, 0
11, 6166, Note_on_c, 9, 44, 0
11, 6180, Note_on_c, 9, 42, 106
11, 6180, Note_on_c, 9, 42, 57
11, 6186, Note_on_c, 9, 42, 0
11, 6186, Control_c, 9, 123, 0
11, 6192, Control_c, 9, 123, 0
11, 6195, Note_on_c, 9, 44, 100
11, 6197, Note_on_c, 9, 42, 0
11, 6207, Note_on_c, 9, 44, 0
11, 6210, Note_on_c, 9, 42, 127
11, 6210, Note_on_c, 9, 44, 95
11, 6210, Note_on_c, 9, 35, 58
11, 6218, Control_c, 9, 123, 0
11, 6222, Note_on_c, 9, 35, 0
11, 6222, Control_c, 9, 123, 0
11, 6223, Control_c, 9, 123, 0
11, 6224, Note_on_c, 9, 42, 0
11, 6228, Note_on_c, 9, 44, 0
11, 6240, Note_on_c, 9, 44, 118
11, 6240, Note_on_c, 9, 35, 79
11, 6240, Note_on_c, 9, 42, 86
11, 6250, Control_c, 9, 123, 0
11, 6252, Note_on_c, 9, 35, 0
11, 6254, Control_c, 9, 123, 0
11, 6257, Control_c, 9, 123, 0
11, 6258, Note_on_c, 9, 44, 0
11, 6259, Note_on_c, 9, 42, 0
11, 6270, Note_on_c, 9, 35, 88
11, 6270, Note_on_c, 9, 44, 75
11, 6282, Control_c, 9, 123, 0
11, 6285, Note_on_c, 9, 44, 0
11, 6288, Control_c, 9, 123, 0
11, 6292, Note_on_c, 9, 35, 0
11, 6300, Note_on_c, 9, 42, 118
11, 6300, Note_on_c, 9, 42, 50
11, 6311, Control_c, 9, 123, 0
11, 6312, Note_on_c, 9, 42, 0
11, 6313, Control_c, 9, 123, 0
11, 6317, Note_on_c, 9, 42, 0
11, 6330, Note_on_c, 9, 44, 86
11, 6330, Note_on_c, 9, 44, 77
11, 6344, Control_c, 9, 123, 0
11, 6346, Control_c, 9, 123, 0
11, 6347, Note_on_c, 9, 44, 0
11, 6350, Note_on_c, 9, 44, 0
11, 6360, Note_on_c, 9, 42, 127
11, 6360, Note_on_c, 9, 42, 100
11, 6360, Note_on_c, 9, 40, 109
11, 6377, Control_c, 9, 123, 0
11, 6378, Note_on_c, 9, 42, 0
11, 6378, Control_c, 9, 123, 0
11, 6379, Note_on_c, 9, 42, 0
11, 6387, Note_on_c, 9, 40, 0
11, 6387, Control_c, 9, 123, 0
11, 6390, Note_on_c, 9, 44, 80
11, 6390, Note_on_c, 9, 44, 73
11, 6400, Control_c, 9, 123, 0
11, 6404, Note_on_c, 9, 44, 0
11, 6405, Note_on_c, 9, 44, 0
11, 6405, Control_c, 9, 123, 0
11, 6419, Control_c, 9, 123, 0
11, 6420, Note_on_c, 9, 42, 80
11, 6420, Note_on_c, 9, 42, 67
11, 6420, Note_on_c, 9, 44, 77
11, 6427, Note_on_c, 9, 42, 0
11, 6432, Note_on_c, 9, 44, 0
11, 6438, Note_on_c, 9, 42, 0
11, 6438, Control_c, 9, 123, 0
11, 6439, Control_c, 9, 123, 0
11, 6450, Note_on_c, 9, 44, 100
11, 6450, Note_on_c, 9, 42, 75
11, 6456, Control_c, 9, 123, 0
11, 6464, Note_on_c, 9, 42, 0
11, 6465, Note_on_c, 9, 44, 0
11, 6465, Control_c, 9, 123, 0
11, 6480, Note_on_c, 9, 44, 106
11, 6480, Note_on_c, 9, 42, 126
11, 6493, Control_c, 9, 123, 0
11, 6498, Note_on_c, 9, 44, 0
11, 6498, Note_on_c, 9, 42, 0
11, 6500, Control_c, 9, 123, 0
11, 6510, Note_on_c, 9, 44, 86
11, 6524, Control_c, 9, 123, 0
11, 6525, Note_on_c, 9, 44, 0
11, 6540, Note_on_c, 9, 42, 67
11, 6540, Note_on_c, 9, 42, 83
11, 6551, Control_c, 9, 123, 0
11, 6554, Note_on_c, 9, 42, 0
11, 6557, Control_c, 9, 123, 0
11, 6558, Note_on_c, 9, 42, 0
11, 6570, Note_on_c, 9, 44, 83
11, 6570, Note_on_c, 9, 44, 65
11, 6579, Control_c, 9, 123, 0
11, 6579, Control_c, 9, 123, 0
11, 6583, Note_on_c, 9, 44, 0
11, 6586, Note_on_c, 9, 44, 0
11, 6600, Note_on_c, 9, 42, 127
11, 6600, Note_on_c, 9, 40, 109
11, 6600, Note_on_c, 9, 42, 127
11, 6614, Control_c, 9, 123, 0
11, 6615, Control_c, 9, 123, 0
11, 6618, Note_on_c, 9, 42, 0
11, 6618, Note_on_c, 9, 42, 0
11, 6620, Control_c, 9, 123, 0
11, 6624, Note_on_c, 9, 40, 0
11, 6630, Note_on_c, 9, 44, 90
11, 6630, Note_on_c, 9, 44, 77
11, 6635, Control_c, 9, 123, 0
11, 6639, Control_c, 9, 123, 0
11, 6641, Note_on_c, 9, 44, 0
11, 6643, Note_on_c, 9, 44, 0
11, 6660, Note_on_c, 9, 42, 86
11, 6660, Note_on_c, 9, 42, 63
11, 6670, Control_c, 9, 123, 0
11, 6672, Control_c, 9, 123, 0
11, 6675, Note_on_c, 9, 42, 0
11, 6676, Note_on_c, 9, 42, 0
11, 6690, Note_on_c, 9, 46, 118
11, 6690, Note_on_c, 9, 46, 106
11, 6690, Note_on_c, 9, 35, 66
11, 6702, Control_c, 9, 123, 0
11, 6702, Control_c, 9, 123, 0
11, 6702, Control_c, 9, 123, 0
11, 6705, Note_on_c, 9, 35, 0
11, 6709, Note_on_c, 9, 46, 0
11, 6710, Note_on_c, 9, 46, 0
11, 6720, Note_on_c, 9, 42, 126
11, 6720, Note_on_c, 9, 42, 60
11, 6720, Note_on_c, 9, 35, 95
11, 6732, Control_c, 9, 123, 0
11, 6734, Control_c, 9, 123, 0
11, 6738, Note_on_c, 9, 42, 0
11, 6740, Note_on_c, 9, 42, 0
11, 6742, Control_c, 9, 123, 0
11, 6744, Note_on_c, 9, 35, 0
11, 6750, Note_on_c, 9, 44, 90
11, 6750, Note_on_c, 9, 44, 80
11, 6760, Control_c, 9, 123, 0
11, 6760, Control_c, 9, 123, 0
11, 6764, Note_on_c, 9, 44, 0
11, 6766, Note_on_c, 9, 44, 0
11, 6780, Note_on_c, 9, 42, 69
11, 6780, Note_on_c, 9, 42, 69
11, 6793, Control_c, 9, 123, 0
11, 6793, Control_c, 9, 123, 0
11, 6795, Note_on_c, 9, 42, 0
11, 6796, Note_on_c, 9, 42, 0
11, 6810, Note_on_c, 9, 44, 95
11, 6810, Note_on_c, 9, 44, 86
11, 6823, Control_c, 9, 123, 0
11, 6824, Note_on_c, 9, 44, 0
11, 6825, Control_c, 9, 123, 0
11, 6828, Note_on_c, 9, 44, 0
11, 6840, Note_on_c, 9, 42, 126
11, 6840, Note_on_c, 9, 40, 106
11, 6840, Note_on_c, 9, 42, 126
11, 6857, Control_c, 9, 123, 0
11, 6860, Note_on_c, 9, 42, 0
11, 6861, Note_on_c, 9, 42, 0
11, 6862, Control_c, 9, 123, 0
11, 6869, Control_c, 9, 123, 0
11, 6870, Note_on_c, 9, 44, 83
11, 6870, Note_on_c, 9, 44, 67
11, 6872, Note_on_c, 9, 40, 0
11, 6884, Control_c, 9, 123, 0
11, 6885, Note_on_c, 9, 44, 0
11, 6887, Note_on_c, 9, 44, 0
11, 6887, Control_c, 9, 123, 0
11, 6900, Note_on_c, 9, 42, 44
11, 6900, Note_on_c, 9, 42, 80
11, 6916, Note_on_c, 9, 42, 0
11, 6918, Note_on_c, 9, 42, 0
11, 6918, Control_c, 9, 123, 0
11, 6921, Control_c, 9, 123, 0
11, 6930, Note_on_c, 9, 44, 86
11, 6930, Note_on_c, 9, 44, 106
11, 6947, Note_on_c, 9, 44, 0
11, 6947, Control_c, 9, 123, 0
11, 6948, Note_on_c, 9, 44, 0
11, 6949, Control_c, 9, 123, 0
11, 6960, Note_on_c, 9, 42, 100
11, 6960, Note_on_c, 9, 42, 106
11, 6977, Note_on_c, 9, 42, 0
11, 6979, Control_c, 9, 123, 0
11, 6980, Note_on_c, 9, 42, 0
11, 6981, Control_c, 9, 123, 0
11, 6990, Note_on_c, 9, 44, 95
11, 6990, Note_on_c, 9, 44, 67
11, 7003, Control_c, 9, 123, 0
11, 7004, Note_on_c, 9, 44, 0
11, 7006, Control_c, 9, 123, 0
11, 7007, Note_on_c, 9, 44, 0
11, 7020, Note_on_c, 9, 42, 100
11, 7020, Note_on_c, 9, 42, 60
11, 7032, Control_c, 9, 123, 0
11, 7034, Control_c, 9, 123, 0
11, 7035, Note_on_c, 9, 42, 0
11, 7036, Note_on_c, 9, 42, 0
11, 7050, Note_on_c, 9, 44, 90
11, 7050, Note_on_c, 9, 44, 95
11, 7065, Control_c, 9, 123, 0
11, 7066, Note_on_c, 9, 44, 0
11, 7066, Control_c, 9, 123, 0
11, 7067, Note_on_c, 9, 44, 0
11, 7080, Note_on_c, 9, 42, 127
11, 7080, Note_on_c, 9, 40, 117
11, 7080, Note_on_c, 9, 42, 127
11, 7096, Control_c, 9, 123, 0
11, 7097, Note_on_c, 9, 42, 0
11, 7099, Note_on_c, 9, 42, 0
11, 7100, Control_c, 9, 123, 0
11, 7101, Control_c, 9, 123, 0
11, 7102, Note_on_c, 9, 40, 0
11, 7110, Note_on_c, 9, 44, 77
11, 7110, Note_on_c, 9, 44, 69
11, 7118, Control_c, 9, 123, 0
11, 7122, Note_on_c, 9, 44, 0
11, 7123, Control_c, 9, 123, 0
11, 7125, Note_on_c, 9, 44, 0
11, 7140, Note_on_c, 9, 50, 92
11, 7140, Note_on_c, 9, 42, 106
11, 7140, Note_on_c, 9, 42, 52
11, 7147, Note_on_c, 9, 50, 0
11, 7147, Control_c, 9, 123, 0
11, 7147, Control_c, 9, 123, 0
11, 7148, Note_on_c, 9, 42, 0
11, 7155, Note_on_c, 9, 50, 80
11, 7155, Note_on_c, 9, 44, 86
11, 7158, Note_on_c, 9, 42, 0
11, 7159, Control_c, 9, 123, 0
11, 7160, Control_c, 9, 123, 0
11, 7164, Note_on_c, 9, 44, 0
11, 7165, Control_c, 9, 123, 0
11, 7168, Note_on_c, 9, 50, 0
11, 7170, Note_on_c, 9, 42, 118
11, 7170, Note_on_c, 9, 44, 75
11, 7170, Note_on_c, 9, 35, 67
11, 7170, Note_on_c, 9, 50, 77
11, 7179, Note_on_c, 9, 50, 0
11, 7181, Note_on_c, 9, 35, 0
11, 7181, Control_c, 9, 123, 0
11, 7183, Control_c, 9, 123, 0
11, 7183, Control_c, 9, 123, 0
11, 7186, Note_on_c, 9, 42, 0
11, 7186, Note_on_c, 9, 44, 0
11, 7186, Control_c, 9, 123, 0
11, 7200, Note_on_c, 9, 50, 106
11, 7200, Note_on_c, 9, 44, 118
11, 7200, Note_on_c, 9, 42, 86
11, 7200, Note_on_c, 9, 35, 100
11, 7212, Note_on_c, 9, 35, 0
11, 7213, Control_c, 9, 123, 0
11, 7217, Control_c, 9, 123, 0
11, 7218, Note_on_c, 9, 44, 0
11, 7218, Note_on_c, 9, 42, 0
11, 7218, Control_c, 9, 123, 0
11, 7230, Note_on_c, 9, 46, 118
11, 7230, Note_on_c, 9, 35, 113
11, 7236, Control_c, 9, 123, 0
11, 7237, Note_on_c, 9, 50, 0
11, 7246, Note_on_c, 9, 46, 0
11, 7247, Control_c, 9, 123, 0
11, 7248, Note_on_c, 9, 35, 0
11, 7250, Control_c, 9, 123, 0
11, 7260, Note_on_c, 9, 42, 86
11, 7260, Note_on_c, 9, 42, 69
11, 7273, Control_c, 9, 123, 0
11, 7274, Control_c, 9, 123, 0
11, 7275, Note_on_c, 9, 42, 0
11, 7278, Note_on_c, 9, 42, 0
11, 7290, Note_on_c, 9, 50, 73
11, 7290, Note_on_c, 9, 44, 80
11, 7290, Note_on_c, 9, 44, 71
11, 7300, Control_c, 9, 123, 0
11, 7301, Control_c, 9, 123, 0
11, 7303, Note_on_c, 9, 44, 0
11, 7303, Note_on_c, 9, 44, 0
11, 7305, Control_c, 9, 123, 0
11, 7308, Note_on_c, 9, 50, 0
11, 7320, Note_on_c, 9, 48, 103
11, 7320, Note_on_c, 9, 42, 127
11, 7320, Note_on_c, 9, 42, 127
11, 7320, Note_on_c, 9, 40, 109
11, 7336, Note_on_c, 9, 48, 0
11, 7336, Control_c, 9, 123, 0
11, 7336, Control_c, 9, 123, 0
11, 7337, Control_c, 9, 123, 0
11, 7338, Note_on_c, 9, 42, 0
11, 7339, Note_on_c, 9, 42, 0
11, 7342, Note_on_c, 9, 40, 0
11, 7345, Control_c, 9, 123, 0
11, 7350, Note_on_c, 9, 48, 80
11, 7350, Note_on_c, 9, 44, 83
11, 7350, Note_on_c, 9, 44, 75
11, 7361, Control_c, 9, 123, 0
11, 7362, Note_on_c, 9, 44, 0
11, 7363, Control_c, 9, 123, 0
11, 7365, Note_on_c, 9, 48, 0
11, 7365, Control_c, 9, 123, 0
11, 7366, Note_on_c, 9, 44, 0
11, 7380, Note_on_c, 9, 42, 69
11, 7380, Note_on_c, 9, 44, 80
11, 7380, Note_on_c, 9, 48, 55
11, 7382, Control_c, 9, 123, 0
11, 7386, Note_on_c, 9, 42, 0
11, 7389, Note_on_c, 9, 48, 0
11, 7391, Note_on_c, 9, 44, 0
11, 7391, Control_c, 9, 123, 0
11, 7410, Note_on_c, 9, 48, 68
11, 7410, Note_on_c, 9, 44, 95
11, 7410, Note_on_c, 9, 42, 86
11, 7417, Control_c, 9, 123, 0
11, 7423, Control_c, 9, 123, 0
11, 7423, Control_c, 9, 123, 0
11, 7424, Note_on_c, 9, 44, 0
11, 7425, Note_on_c, 9, 48, 0
11, 7425, Note_on_c, 9, 42, 0
11, 7440, Note_on_c, 9, 45, 95
11, 7440, Note_on_c, 9, 44, 118
11, 7440, Note_on_c, 9, 42, 95
11, 7455, Note_on_c, 9, 42, 0
11, 7455, Control_c, 9, 123, 0
11, 7456, Control_c, 9, 123, 0
11, 7456, Control_c, 9, 123, 0
11, 7457, Note_on_c, 9, 45, 0
11, 7464, Note_on_c, 9, 44, 0
11, 7470, Note_on_c, 9, 45, 82
11, 7470, Note_on_c, 9, 46, 126
11, 7487, Control_c, 9, 123, 0
11, 7488, Note_on_c, 9, 46, 0
11, 7489, Control_c, 9, 123, 0
11, 7491, Note_on_c, 9, 45, 0
11, 7500, Note_on_c, 9, 42, 71
11, 7500, Note_on_c, 9, 42, 126
11, 7500, Note_on_c, 9, 45, 92
11, 7511, Note_on_c, 9, 42, 0
11, 7511, Control_c, 9, 123, 0
11, 7515, Control_c, 9, 123, 0
11, 7517, Note_on_c, 9, 45, 0
11, 7518, Note_on_c, 9, 42, 0
11, 7518, Control_c, 9, 123, 0
11, 7530, Note_on_c, 9, 45, 88
11, 7530, Note_on_c, 9, 44, 80
11, 7530, Note_on_c, 9, 44, 80
11, 7541, Control_c, 9, 123, 0
11, 7542, Control_c, 9, 123, 0
11, 7545, Note_on_c, 9, 44, 0
11, 7545, Note_on_c, 9, 44, 0
11, 7550, Control_c, 9, 123, 0
11, 7552, Note_on_c, 9, 45, 0
11, 7560, Note_on_c, 9, 41, 79
11, 7560, Note_on_c, 9, 42, 127
11, 7560, Note_on_c, 9, 40, 106
11, 7560, Note_on_c, 9, 42, 112
11, 7568, Control_c, 9, 123, 0
11, 7571, Note_on_c, 9, 41, 0
11, 7576, Control_c, 9, 123, 0
11, 7576, Control_c, 9, 123, 0
11, 7577, Note_on_c, 9, 42, 0
11, 7578, Note_on_c, 9, 42, 0
11, 7578, Control_c, 9, 123, 0
11, 7581, Note_on_c, 9, 40, 0
11, 7590, Note_on_c, 9, 41, 76
11, 7590, Note_on_c, 9, 44, 90
11, 7590, Note_on_c, 9, 44, 73
11, 7595, Control_c, 9, 123, 0
11, 7599, Note_on_c, 9, 41, 0
11, 7600, Control_c, 9, 123, 0
11, 7601, Control_c, 9, 123, 0
11, 7605, Note_on_c, 9, 44, 0
11, 7606, Note_on_c, 9, 44, 0
11, 7620, Note_on_c, 9, 41, 65
11, 7620, Note_on_c, 9, 42, 90
11, 7620, Note_on_c, 9, 42, 95
11, 7627, Note_on_c, 9, 41, 0
11, 7627, Control_c, 9, 123, 0
11, 7633, Control_c, 9, 123, 0
11, 7637, Note_on_c, 9, 42, 0
11, 7637, Control_c, 9, 123, 0
11, 7639, Note_on_c, 9, 42, 0
11, 7650, Note_on_c, 9, 41, 70
11, 7650, Note_on_c, 9, 44, 106
11, 7650, Note_on_c, 9, 46, 95
11, 7650, Note_on_c, 9, 35, 77
11, 7661, Control_c, 9, 123, 0
11, 7662, Note_on_c, 9, 35, 0
11, 7662, Control_c, 9, 123, 0
11, 7664, Control_c, 9, 123, 0
11, 7664, Control_c, 9, 123, 0
11, 7665, Note_on_c, 9, 41, 0
11, 7668, Note_on_c, 9, 46, 0
11, 7670, Note_on_c, 9, 44, 0
11, 7680, Note_on_c, 9, 40, 92
11, 7680, Note_on_c, 9, 42, 112
11, 7680, Note_on_c, 9, 42, 106
11, 7680, Note_on_c, 9, 35, 106
11, 7680, Note_on_c, 9, 42, 127
11, 7680, Note_on_c, 9, 49, 106
11, 7694, Control_c, 9, 123, 0
11, 7696, Control_c, 9, 123, 0
11, 7697, Control_c, 9, 123, 0
11, 7698, Note_on_c, 9, 42, 0
11, 7698, Note_on_c, 9, 42, 0
11, 7699, Control_c, 9, 123, 0
11, 7700, Note_on_c, 9, 35, 0
11, 7701, Note_on_c, 9, 40, 0
11, 7701, Note_on_c, 9, 42, 0
11, 7703, Control_c, 9, 123, 0
11, 7740, Note_on_c, 9, 35, 43
11, 7740, Note_on_c, 9, 46, 77
11, 7746, Note_on_c, 9, 35, 0
11, 7749, Control_c, 9, 123, 0
11, 7762, Note_on_c, 9, 46, 0
11, 7766, Control_c, 9, 123, 0
11, 7800, Note_on_c, 9, 40, 109
11, 7800, Note_on_c, 9, 42, 127
11, 7811, Note_on_c, 9, 49, 0
11, 7814, Control_c, 9, 123, 0
11, 7820, Note_on_c, 9, 42, 0
11, 7823, Control_c, 9, 123, 0
11, 7824, Note_on_c, 9, 40, 0
11, 7825, Control_c, 9, 123, 0
11, 7860, Note_on_c, 9, 46, 65
11, 7860, Note_on_c, 9, 35, 64
11, 7874, Note_on_c, 9, 35, 0
11, 7875, Control_c, 9, 123, 0
11, 7879, Control_c, 9, 123, 0
11, 7880, Note_on_c, 9, 46, 0
11, 7920, Note_on_c, 9, 40, 109
11, 7920, Note_on_c, 9, 42, 127
11, 7939, Note_on_c, 9, 42, 0
11, 7939, Control_c, 9, 123, 0
11, 7944, Control_c, 9, 123, 0
11, 7945, Note_on_c, 9, 40, 0
11, 7980, Note_on_c, 9, 44, 86
11, 7980, Note_on_c, 9, 35, 97
11, 7998, Note_on_c, 9, 35, 0
11, 8002, Control_c, 9, 123, 0
11, 8006, Control_c, 9, 123, 0
11, 8007, Note_on_c, 9, 44, 0
11, 8040, Note_on_c, 9, 40, 109
11, 8040, Note_on_c, 9, 42, 127
11, 8055, Control_c, 9, 123, 0
11, 8058, Note_on_c, 9, 42, 0
11, 8059, Control_c, 9, 123, 0
11, 8063, Note_on_c, 9, 40, 0
11, 8100, Note_on_c, 9, 35, 103
11, 8100, Note_on_c, 9, 44, 86
11, 8114, Control_c, 9, 123, 0
11, 8118, Note_on_c, 9, 35, 0
11, 8119, Control_c, 9, 123, 0
11, 8121, Note_on_c, 9, 44, 0
11, 8160, Note_on_c, 9, 42, 126
11, 8160, Note_on_c, 9, 40, 113
11, 8167, Control_c, 9, 123, 0
11, 8176, Control_c, 9, 123, 0
11, 8177, Note_on_c, 9, 42, 0
11, 8182, Note_on_c, 9, 40, 0
11, 8220, Note_on_c, 9, 46, 112
11, 8220, Note_on_c, 9, 35, 97
11, 8234, Control_c, 9, 123, 0
11, 8236, Note_on_c, 9, 35, 0
11, 8253, Control_c, 9, 123, 0
11, 8259, Note_on_c, 9, 46, 0
11, 8280, Note_on_c, 9, 40, 109
11, 8280, Note_on_c, 9, 42, 127
11, 8293, Control_c, 9, 123, 0
11, 8296, Control_c, 9, 123, 0
11, 8298, Note_on_c, 9, 42, 0
11, 8302, Note_on_c, 9, 40, 0
11, 8340, Note_on_c, 9, 46, 95
11, 8340, Note_on_c, 9, 35, 84
11, 8355, Control_c, 9, 123, 0
11, 8358, Note_on_c, 9, 35, 0
11, 8373, Control_c, 9, 123, 0
11, 8377, Note_on_c, 9, 46, 0
11, 8400, Note_on_c, 9, 42, 126
11, 8400, Note_on_c, 9, 40, 122
11, 8411, Control_c, 9, 123, 0
11, 8416, Note_on_c, 9, 42, 0
11, 8421, Control_c, 9, 123, 0
11, 8425, Note_on_c, 9, 40, 0
11, 8460, Note_on_c, 9, 44, 95
11, 8460, Note_on_c, 9, 35, 79
11, 8467, Control_c, 9, 123, 0
11, 8469, Note_on_c, 9, 35, 0
11, 8475, Control_c, 9, 123, 0
11, 8481, Note_on_c, 9, 44, 0
11, 8490, Note_on_c, 9, 35, 73
11, 8499, Control_c, 9, 123, 0
11, 8505, Note_on_c, 9, 35, 0
11, 8520, Note_on_c, 9, 40, 117
11, 8520, Note_on_c, 9, 42, 127
11, 8533, Control_c, 9, 123, 0
11, 8537, Note_on_c, 9, 42, 0
11, 8544, Control_c, 9, 123, 0
11, 8550, Note_on_c, 9, 40, 0
11, 8580, Note_on_c, 9, 44, 95
11, 8580, Note_on_c, 9, 35, 90
11, 8595, Control_c, 9, 123, 0
11, 8596, Control_c, 9, 123, 0
11, 8603, Note_on_c, 9, 35, 0
11, 8604, Note_on_c, 9, 44, 0
11, 8610, Note_on_c, 9, 40, 109
11, 8635, Note_on_c, 9, 40, 0
11, 8640, Note_on_c, 9, 42, 126
11, 8644, Control_c, 9, 123, 0
11, 8649, Control_c, 9, 123, 0
11, 8655, Note_on_c, 9, 42, 0
11, 8700, Note_on_c, 9, 35, 76
11, 8700, Note_on_c, 9, 46, 100
11, 8711, Control_c, 9, 123, 0
11, 8719, Note_on_c, 9, 35, 0
11, 8731, Control_c, 9, 123, 0
11, 8738, Note_on_c, 9, 46, 0
11, 8760, Note_on_c, 9, 40, 117
11, 8760, Note_on_c, 9, 42, 127
11, 8771, Control_c, 9, 123, 0
11, 8776, Control_c, 9, 123, 0
11, 8777, Note_on_c, 9, 42, 0
11, 8782, Note_on_c, 9, 40, 0
11, 8820, Note_on_c, 9, 46, 95
11, 8820, Note_on_c, 9, 35, 88
11, 8835, Control_c, 9, 123, 0
11, 8838, Note_on_c, 9, 35, 0
11, 8852, Control_c, 9, 123, 0
11, 8858, Note_on_c, 9, 46, 0
11, 8880, Note_on_c, 9, 42, 127
11, 8880, Note_on_c, 9, 40, 113
11, 8893, Control_c, 9, 123, 0
11, 8896, Note_on_c, 9, 42, 0
11, 8897, Control_c, 9, 123, 0
11, 8899, Note_on_c, 9, 40, 0
11, 8940, Note_on_c, 9, 44, 100
11, 8940, Note_on_c, 9, 35, 90
11, 8951, Control_c, 9, 123, 0
11, 8957, Note_on_c, 9, 44, 0
11, 8958, Note_on_c, 9, 35, 0
11, 8958, Control_c, 9, 123, 0
11, 9000, Note_on_c, 9, 40, 117
11, 9000, Note_on_c, 9, 42, 126
11, 9012, Control_c, 9, 123, 0
11, 9016, Control_c, 9, 123, 0
11, 9017, Note_on_c, 9, 42, 0
11, 9022, Note_on_c, 9, 40, 0
11, 9060, Note_on_c, 9, 44, 100
11, 9060, Note_on_c, 9, 35, 103
11, 9074, Control_c, 9, 123, 0
11, 9077, Control_c, 9, 123, 0
11, 9079, Note_on_c, 9, 44, 0
11, 9081, Note_on_c, 9, 35, 0
11, 9120, Note_on_c, 9, 40, 109
11, 9120, Note_on_c, 9, 42, 126
11, 9130, Control_c, 9, 123, 0
11, 9134, Control_c, 9, 123, 0
11, 9136, Note_on_c, 9, 42, 0
11, 9141, Note_on_c, 9, 40, 0
11, 9180, Note_on_c, 9, 46, 100
11, 9180, Note_on_c, 9, 35, 97
11, 9193, Control_c, 9, 123, 0
11, 9200, Note_on_c, 9, 35, 0
11, 9207, Control_c, 9, 123, 0
11, 9215, Note_on_c, 9, 46, 0
11, 9240, Note_on_c, 9, 40, 113
11, 9240, Note_on_c, 9, 42, 127
11, 9254, Control_c, 9, 123, 0
11, 9254, Control_c, 9, 123, 0
11, 9257, Note_on_c, 9, 42, 0
11, 9260, Note_on_c, 9, 40, 0
11, 9300, Note_on_c, 9, 35, 92
11, 9300, Note_on_c, 9, 46, 100
11, 9316, Control_c, 9, 123, 0
11, 9319, Control_c, 9, 123, 0
11, 9322, Note_on_c, 9, 35, 0
11, 9324, Note_on_c, 9, 46, 0
11, 9360, Note_on_c, 9, 40, 106
11, 9360, Note_on_c, 9, 42, 126
11, 9375, Control_c, 9, 123, 0
11, 9376, Note_on_c, 9, 42, 0
11, 9377, Control_c, 9, 123, 0
11, 9384, Note_on_c, 9, 40, 0
11, 9420, Note_on_c, 9, 35, 95
11, 9420, Note_on_c, 9, 44, 95
11, 9436, Control_c, 9, 123, 0
11, 9436, Control_c, 9, 123, 0
11, 9442, Note_on_c, 9, 35, 0
11, 9442, Note_on_c, 9, 44, 0
11, 9480, Note_on_c, 9, 40, 109
11, 9480, Note_on_c, 9, 42, 118
11, 9488, Control_c, 9, 123, 0
11, 9495, Control_c, 9, 123, 0
11, 9496, Note_on_c, 9, 42, 0
11, 9503, Note_on_c, 9, 40, 0
11, 9540, Note_on_c, 9, 44, 95
11, 9540, Note_on_c, 9, 35, 100
11, 9548, Control_c, 9, 123, 0
11, 9556, Control_c, 9, 123, 0
11, 9558, Note_on_c, 9, 44, 0
11, 9563, Note_on_c, 9, 35, 0
11, 9600, Note_on_c, 9, 42, 127
11, 9600, Note_on_c, 9, 40, 106
11, 9607, Control_c, 9, 123, 0
11, 9608, Control_c, 9, 123, 0
11, 9617, Note_on_c, 9, 40, 0
11, 9618, Note_on_c, 9, 42, 0
11, 9660, Note_on_c, 9, 35, 97
11, 9660, Note_on_c, 9, 46, 106
11, 9668, Control_c, 9, 123, 0
11, 9679, Note_on_c, 9, 35, 0
11, 9688, Control_c, 9, 123, 0
11, 9697, Note_on_c, 9, 46, 0
11, 9720, Note_on_c, 9, 40, 117
11, 9720, Note_on_c, 9, 42, 127
11, 9732, Control_c, 9, 123, 0
11, 9733, Control_c, 9, 123, 0
11, 9736, Note_on_c, 9, 42, 0
11, 9742, Note_on_c, 9, 40, 0
11, 9780, Note_on_c, 9, 35, 73
11, 9780, Note_on_c, 9, 46, 95
11, 9788, Control_c, 9, 123, 0
11, 9800, Note_on_c, 9, 35, 0
11, 9809, Control_c, 9, 123, 0
11, 9815, Note_on_c, 9, 46, 0
11, 9840, Note_on_c, 9, 40, 113
11, 9840, Note_on_c, 9, 42, 127
11, 9852, Control_c, 9, 123, 0
11, 9854, Control_c, 9, 123, 0
11, 9857, Note_on_c, 9, 42, 0
11, 9862, Note_on_c, 9, 40, 0
11, 9900, Note_on_c, 9, 44, 90
11, 9900, Note_on_c, 9, 35, 92
11, 9912, Control_c, 9, 123, 0
11, 9920, Note_on_c, 9, 35, 0
11, 9920, Control_c, 9, 123, 0
11, 9930, Note_on_c, 9, 44, 0
11, 9960, Note_on_c, 9, 40, 117
11, 9960, Note_on_c, 9, 42, 127
11, 9971, Control_c, 9, 123, 0
11, 9973, Control_c, 9, 123, 0
11, 9978, Note_on_c, 9, 42, 0
11, 9981, Note_on_c, 9, 40, 0
11, 10020, Note_on_c, 9, 35, 106
11, 10020, Note_on_c, 9, 44, 100
11, 10030, Control_c, 9, 123, 0
11, 10034, Control_c, 9, 123, 0
11, 10039, Note_on_c, 9, 35, 0
11, 10044, Note_on_c, 9, 44, 0
11, 10080, Note_on_c, 9, 40, 117
11, 10080, Note_on_c, 9, 42, 127
11, 10088, Control_c, 9, 123, 0
11, 10090, Control_c, 9, 123, 0
11, 10097, Note_on_c, 9, 42, 0
11, 10102, Note_on_c, 9, 40, 0
11, 10140, Note_on_c, 9, 35, 92
11, 10140, Note_on_c, 9, 46, 106
11, 10148, Control_c, 9, 123, 0
11, 10158, Note_on_c, 9, 35, 0
11, 10167, Control_c, 9, 123, 0
11, 10177, Note_on_c, 9, 46, 0
11, 10200, Note_on_c, 9, 40, 117
11, 10200, Note_on_c, 9, 42, 127
11, 10209, Control_c, 9, 123, 0
11, 10217, Control_c, 9, 123, 0
11, 10218, Note_on_c, 9, 42, 0
11, 10226, Note_on_c, 9, 40, 0
11, 10260, Note_on_c, 9, 46, 100
11, 10260, Note_on_c, 9, 35, 86
11, 10272, Control_c, 9, 123, 0
11, 10279, Note_on_c, 9, 35, 0
11, 10289, Control_c, 9, 123, 0
11, 10301, Note_on_c, 9, 46, 0
11, 10320, Note_on_c, 9, 40, 117
11, 10320, Note_on_c, 9, 42, 126
11, 10329, Control_c, 9, 123, 0
11, 10333, Control_c, 9, 123, 0
11, 10336, Note_on_c, 9, 42, 0
11, 10345, Note_on_c, 9, 40, 0
11, 10380, Note_on_c, 9, 35, 79
11, 10380, Note_on_c, 9, 44, 95
11, 10389, Control_c, 9, 123, 0
11, 10399, Note_on_c, 9, 44, 0
11, 10412, Control_c, 9, 123, 0
11, 10424, Note_on_c, 9, 35, 0
11, 10440, Note_on_c, 9, 40, 117
11, 10440, Note_on_c, 9, 42, 127
11, 10450, Control_c, 9, 123, 0
11, 10454, Control_c, 9, 123, 0
11, 10458, Note_on_c, 9, 42, 0
11, 10466, Note_on_c, 9, 40, 0
11, 10500, Note_on_c, 9, 35, 84
11, 10500, Note_on_c, 9, 44, 86
11, 10503, Control_c, 9, 123, 0
11, 10516, Note_on_c, 9, 35, 0
11, 10519, Control_c, 9, 123, 0
11, 10527, Note_on_c, 9, 44, 0
11, 10560, Note_on_c, 9, 40, 109
11, 10560, Note_on_c, 9, 35, 95
11, 10560, Note_on_c, 9, 42, 118
11, 10566, Control_c, 9, 123, 0
11, 10567, Control_c, 9, 123, 0
11, 10575, Note_on_c, 9, 42, 0
11, 10580, Note_on_c, 9, 40, 0
11, 10580, Note_on_c, 9, 35, 0
11, 10620, Note_on_c, 9, 46, 95
11, 10649, Control_c, 9, 123, 0
11, 10650, Note_on_c, 9, 40, 117
11, 10655, Note_on_c, 9, 46, 0
11, 10674, Note_on_c, 9, 40, 0
11, 10680, Note_on_c, 9, 35, 100
11, 10680, Note_on_c, 9, 42, 127
11, 10687, Control_c, 9, 123, 0
11, 10694, Control_c, 9, 123, 0
11, 10696, Note_on_c, 9, 42, 0
11, 10701, Note_on_c, 9, 35, 0
11, 10740, Note_on_c, 9, 46, 83
11, 10770, Control_c, 9, 123, 0
11, 10775, Note_on_c, 9, 46, 0
11, 10800, Note_on_c, 9, 40, 117
11, 10800, Note_on_c, 9, 35, 106
11, 10800, Note_on_c, 9, 42, 127
11, 10811, Control_c, 9, 123, 0
11, 10814, Control_c, 9, 123, 0
11, 10815, Note_on_c, 9, 42, 0
11, 10820, Note_on_c, 9, 35, 0
11, 10822, Note_on_c, 9, 40, 0
11, 10860, Note_on_c, 9, 35, 69
11, 10860, Note_on_c, 9, 44, 100
11, 10871, Control_c, 9, 123, 0
11, 10880, Note_on_c, 9, 44, 0
11, 10900, Control_c, 9, 123, 0
11, 10909, Note_on_c, 9, 35, 0
11, 10920, Note_on_c, 9, 40, 122
11, 10920, Note_on_c, 9, 42, 126
11, 10932, Control_c, 9, 123, 0
11, 10936, Control_c, 9, 123, 0
11, 10937, Note_on_c, 9, 42, 0
11, 10944, Note_on_c, 9, 40, 0
11, 10980, Note_on_c, 9, 35, 109
11, 10980, Note_on_c, 9, 44, 95
11, 10993, Control_c, 9, 123, 0
11, 11000, Note_on_c, 9, 44, 0
11, 11013, Control_c, 9, 123, 0
11, 11022, Note_on_c, 9, 35, 0
11, 11040, Note_on_c, 9, 40, 126
11, 11040, Note_on_c, 9, 42, 127
11, 11051, Control_c, 9, 123, 0
11, 11053, Control_c, 9, 123, 0
11, 11057, Note_on_c, 9, 42, 0
11, 11061, Note_on_c, 9, 40, 0
11, 11100, Note_on_c, 9, 46, 100
11, 11100, Note_on_c, 9, 35, 100
11, 11123, Control_c, 9, 123, 0
11, 11130, Note_on_c, 9, 46, 0
11, 11133, Control_c, 9, 123, 0
11, 11139, Note_on_c, 9, 35, 0
11, 11160, Note_on_c, 9, 40, 113
11, 11160, Note_on_c, 9, 42, 118
11, 11176, Note_on_c, 9, 42, 0
11, 11176, Control_c, 9, 123, 0
11, 11180, Control_c, 9, 123, 0
11, 11185, Note_on_c, 9, 40, 0
11, 11220, Note_on_c, 9, 46, 86
11, 11220, Note_on_c, 9, 35, 103
11, 11234, Control_c, 9, 123, 0
11, 11244, Note_on_c, 9, 46, 0
11, 11260, Control_c, 9, 123, 0
11, 11268, Note_on_c, 9, 35, 0
11, 11280, Note_on_c, 9, 40, 122
11, 11280, Note_on_c, 9, 42, 126
11, 11292, Control_c, 9, 123, 0
11, 11296, Note_on_c, 9, 42, 0
11, 11298, Control_c, 9, 123, 0
11, 11303, Note_on_c, 9, 40, 0
11, 11340, Note_on_c, 9, 44, 106
11, 11340, Note_on_c, 9, 35, 100
11, 11350, Control_c, 9, 123, 0
11, 11361, Note_on_c, 9, 44, 0
11, 11382, Control_c, 9, 123, 0
11, 11389, Note_on_c, 9, 35, 0
11, 11400, Note_on_c, 9, 40, 100
11, 11400, Note_on_c, 9, 42, 126
11, 11405, Control_c, 9, 123, 0
11, 11414, Note_on_c, 9, 42, 0
11, 11414, Control_c, 9, 123, 0
11, 11425, Note_on_c, 9, 40, 0
11, 11460, Note_on_c, 9, 44, 80
11, 11460, Note_on_c, 9, 35, 109
11, 11464, Control_c, 9, 123, 0
11, 11475, Note_on_c, 9, 44, 0
11, 11505, Control_c, 9, 123, 0
11, 11514, Note_on_c, 9, 35, 0
11, 11520, Note_on_c, 9, 40, 97
11, 11520, Note_on_c, 9, 42, 127
11, 11529, Control_c, 9, 123, 0
11, 11531, Control_c, 9, 123, 0
11, 11536, Note_on_c, 9, 42, 0
11, 11541, Note_on_c, 9, 40, 0
11, 11580, Note_on_c, 9, 44, 77
11, 11594, Control_c, 9, 123, 0
11, 11601, Note_on_c, 9, 44, 0
11, 11640, Note_on_c, 9, 40, 113
11, 11640, Note_on_c, 9, 42, 127
11, 11653, Control_c, 9, 123, 0
11, 11654, Control_c, 9, 123, 0
11, 11658, Note_on_c, 9, 42, 0
11, 11665, Note_on_c, 9, 40, 0
11, 11700, Note_on_c, 9, 44, 83
11, 11700, Note_on_c, 9, 35, 100
11, 11710, Control_c, 9, 123, 0
11, 11718, Note_on_c, 9, 44, 0
11, 11726, Control_c, 9, 123, 0
11, 11732, Note_on_c, 9, 35, 0
11, 11760, Note_on_c, 9, 40, 113
11, 11760, Note_on_c, 9, 42, 127
11, 11772, Control_c, 9, 123, 0
11, 11776, Note_on_c, 9, 42, 0
11, 11777, Control_c, 9, 123, 0
11, 11783, Note_on_c, 9, 40, 0
11, 11820, Note_on_c, 9, 44, 90
11, 11820, Note_on_c, 9, 35, 109
11, 11834, Control_c, 9, 123, 0
11, 11839, Note_on_c, 9, 44, 0
11, 11844, Control_c, 9, 123, 0
11, 11848, Note_on_c, 9, 35, 0
11, 11880, Note_on_c, 9, 42, 127
11, 11880, Note_on_c, 9, 40, 122
11, 11893, Control_c, 9, 123, 0
11, 11898, Note_on_c, 9, 42, 0
11, 11912, Control_c, 9, 123, 0
11, 11915, Note_on_c, 9, 40, 0
11, 11940, Note_on_c, 9, 44, 112
11, 11940, Note_on_c, 9, 35, 106
11, 11958, Control_c, 9, 123, 0
11, 11961, Note_on_c, 9, 35, 0
11, 11961, Control_c, 9, 123, 0
11, 11968, Note_on_c, 9, 44, 0
11, 12000, Note_on_c, 9, 40, 72
11, 12000, Note_on_c, 9, 42, 127
11, 12000, Note_on_c, 9, 35, 92
11, 12000, Note_on_c, 9, 42, 127
11, 12000, Control_c, 9, 123, 0
11, 12000, Note_on_c, 9, 49, 90
11, 12000, Note_on_c, 9, 35, 106
11, 12000, Note_on_c, 9, 42, 126
11, 12001, Note_on_c, 9, 40, 0
11, 12013, Control_c, 9, 123, 0
11, 12015, Note_on_c, 9, 42, 0
11, 12016, Control_c, 9, 123, 0
11, 12018, Note_on_c, 9, 35, 0
11, 12018, Note_on_c, 9, 42, 0
11, 12019, Note_on_c, 9, 42, 0
11, 12019, Control_c, 9, 123, 0
11, 12025, Control_c, 9, 123, 0
11, 12030, Note_on_c, 9, 44, 59
11, 12030, Note_on_c, 9, 44, 77
11, 12031, Note_on_c, 9, 35, 0
11, 12035, Control_c, 9, 123, 0
11, 12043, Control_c, 9, 123, 0
11, 12046, Note_on_c, 9, 44, 0
11, 12048, Note_on_c, 9, 44, 0
11, 12049, Control_c, 9, 123, 0
11, 12060, Note_on_c, 9, 42, 83
11, 12060, Note_on_c, 9, 42, 77
11, 12070, Control_c, 9, 123, 0
11, 12073, Note_on_c, 9, 42, 0
11, 12073, Control_c, 9, 123, 0
11, 12075, Note_on_c, 9, 42, 0
11, 12090, Note_on_c, 9, 44, 95
11, 12090, Note_on_c, 9, 44, 53
11, 12100, Control_c, 9, 123, 0
11, 12105, Control_c, 9, 123, 0
11, 12106, Note_on_c, 9, 44, 0
11, 12110, Note_on_c, 9, 44, 0
11, 12120, Note_on_c, 9, 42, 127
11, 12120, Note_on_c, 9, 42, 127
11, 12120, Note_on_c, 9, 40, 106
11, 12138, Control_c, 9, 123, 0
11, 12139, Control_c, 9, 123, 0
11, 12140, Note_on_c, 9, 42, 0
11, 12141, Note_on_c, 9, 42, 0
11, 12150, Note_on_c, 9, 44, 60
11, 12150, Note_on_c, 9, 44, 44
11, 12161, Control_c, 9, 123, 0
11, 12164, Note_on_c, 9, 44, 0
11, 12165, Control_c, 9, 123, 0
11, 12166, Note_on_c, 9, 40, 0
11, 12169, Control_c, 9, 123, 0
11, 12171, Note_on_c, 9, 44, 0
11, 12180, Note_on_c, 9, 42, 65
11, 12180, Note_on_c, 9, 42, 51
11, 12184, Control_c, 9, 123, 0
11, 12189, Note_on_c, 9, 49, 0
11, 12194, Note_on_c, 9, 42, 0
11, 12196, Control_c, 9, 123, 0
11, 12198, Control_c, 9, 123, 0
11, 12199, Note_on_c, 9, 42, 0
11, 12210, Note_on_c, 9, 44, 95
11, 12210, Note_on_c, 9, 44, 90
11, 12226, Control_c, 9, 123, 0
11, 12228, Control_c, 9, 123, 0
11, 12230, Note_on_c, 9, 44, 0
11, 12231, Note_on_c, 9, 44, 0
11, 12240, Note_on_c, 9, 42, 106
11, 12240, Note_on_c, 9, 42, 40
11, 12248, Note_on_c, 9, 42, 0
11, 12250, Control_c, 9, 123, 0
11, 12256, Note_on_c, 9, 42, 0
11, 12256, Control_c, 9, 123, 0
11, 12270, Note_on_c, 9, 44, 86
11, 12270, Note_on_c, 9, 44, 100
11, 12284, Control_c, 9, 123, 0
11, 12289, Note_on_c, 9, 44, 0
11, 12289, Control_c, 9, 123, 0
11, 12290, Note_on_c, 9, 44, 0
11, 12300, Note_on_c, 9, 42, 46
11, 12300, Note_on_c, 9, 42, 50
11, 12312, Note_on_c, 9, 42, 0
11, 12312, Note_on_c, 9, 42, 0
11, 12313, Control_c, 9, 123, 0
11, 12315, Control_c, 9, 123, 0
11, 12330, Note_on_c, 9, 44, 83
11, 12330, Note_on_c, 9, 44, 80
11, 12340, Control_c, 9, 123, 0
11, 12345, Note_on_c, 9, 44, 0
11, 12346, Note_on_c, 9, 44, 0
11, 12346, Control_c, 9, 123, 0
11, 12360, Note_on_c, 9, 42, 127
11, 12360, Note_on_c, 9, 42, 127
11, 12360, Note_on_c, 9, 40, 113
11, 12375, Control_c, 9, 123, 0
11, 12379, Note_on_c, 9, 42, 0
11, 12379, Control_c, 9, 123, 0
11, 12380, Note_on_c, 9, 42, 0
11, 12390, Note_on_c, 9, 44, 67
11, 12390, Note_on_c, 9, 44, 71
11, 12399, Control_c, 9, 123, 0
11, 12404, Control_c, 9, 123, 0
11, 12405, Note_on_c, 9, 40, 0
11, 12405, Note_on_c, 9, 44, 0
11, 12406, Note_on_c, 9, 44, 0
11, 12406, Control_c, 9, 123, 0
11, 12420, Note_on_c, 9, 42, 65
11, 12420, Note_on_c, 9, 42, 65
11, 12432, Control_c, 9, 123, 0
11, 12433, Control_c, 9, 123, 0
11, 12434, Note_on_c, 9, 42, 0
11, 12436, Note_on_c, 9, 42, 0
11, 12450, Note_on_c, 9, 44, 95
11, 12450, Note_on_c, 9, 46, 118
11, 12450, Note_on_c, 9, 35, 61
11, 12458, Control_c, 9, 123, 0
11, 12459, Note_on_c, 9, 35, 0
11, 12463, Control_c, 9, 123, 0
11, 12463, Control_c, 9, 123, 0
11, 12467, Note_on_c, 9, 44, 0
11, 12471, Note_on_c, 9, 46, 0
11, 12480, Note_on_c, 9, 42, 127
11, 12480, Note_on_c, 9, 42, 83
11, 12480, Note_on_c, 9, 35, 88
11, 12489, Control_c, 9, 123, 0
11, 12490, Note_on_c, 9, 35, 0
11, 12490, Control_c, 9, 123, 0
11, 12496, Control_c, 9, 123, 0
11, 12498, Note_on_c, 9, 42, 0
11, 12501, Note_on_c, 9, 42, 0
11, 12510, Note_on_c, 9, 44, 73
11, 12510, Note_on_c, 9, 44, 48
11, 12510, Note_on_c, 9, 35, 97
11, 12522, Control_c, 9, 123, 0
11, 12526, Control_c, 9, 123, 0
11, 12527, Control_c, 9, 123, 0
11, 12529, Note_on_c, 9, 44, 0
11, 12531, Note_on_c, 9, 44, 0
11, 12531, Note_on_c, 9, 35, 0
11, 12540, Note_on_c, 9, 42, 67
11, 12540, Note_on_c, 9, 42, 63
11, 12551, Control_c, 9, 123, 0
11, 12552, Note_on_c, 9, 42, 0
11, 12553, Control_c, 9, 123, 0
11, 12559, Note_on_c, 9, 42, 0
11, 12570, Note_on_c, 9, 44, 73
11, 12570, Note_on_c, 9, 44, 83
11, 12580, Control_c, 9, 123, 0
11, 12585, Note_on_c, 9, 44, 0
11, 12585, Control_c, 9, 123, 0
11, 12590, Note_on_c, 9, 44, 0
11, 12600, Note_on_c, 9, 42, 127
11, 12600, Note_on_c, 9, 40, 103
11, 12600, Note_on_c, 9, 42, 126
11, 12615, Control_c, 9, 123, 0
11, 12615, Control_c, 9, 123, 0
11, 12618, Note_on_c, 9, 42, 0
11, 12619, Note_on_c, 9, 42, 0
11, 12630, Note_on_c, 9, 44, 63
11, 12630, Note_on_c, 9, 44, 64
11, 12638, Control_c, 9, 123, 0
11, 12641, Note_on_c, 9, 44, 0
11, 12641, Control_c, 9, 123, 0
11, 12646, Note_on_c, 9, 44, 0
11, 12660, Note_on_c, 9, 42, 75
11, 12660, Note_on_c, 9, 42, 54
11, 12662, Control_c, 9, 123, 0
11, 12665, Note_on_c, 9, 42, 0
11, 12671, Note_on_c, 9, 42, 0
11, 12673, Control_c, 9, 123, 0
11, 12675, Note_on_c, 9, 44, 77
11, 12680, Control_c, 9, 123, 0
11, 12684, Note_on_c, 9, 44, 0
11, 12690, Note_on_c, 9, 42, 127
11, 12690, Note_on_c, 9, 44, 90
11, 12697, Control_c, 9, 123, 0
11, 12704, Note_on_c, 9, 42, 0
11, 12706, Control_c, 9, 123, 0
11, 12710, Note_on_c, 9, 44, 0
11, 12720, Note_on_c, 9, 44, 118
11, 12720, Note_on_c, 9, 42, 48
11, 12721, Control_c, 9, 123, 0
11, 12725, Note_on_c, 9, 40, 0
11, 12733, Control_c, 9, 123, 0
11, 12736, Control_c, 9, 123, 0
11, 12737, Note_on_c, 9, 42, 0
11, 12738, Note_on_c, 9, 44, 0
11, 12750, Note_on_c, 9, 44, 106
11, 12764, Control_c, 9, 123, 0
11, 12769, Note_on_c, 9, 44, 0
11, 12780, Note_on_c, 9, 42, 126
11, 12780, Note_on_c, 9, 42, 73
11, 12788, Control_c, 9, 123, 0
11, 12790, Control_c, 9, 123, 0
11, 12793, Note_on_c, 9, 42, 0
11, 12795, Note_on_c, 9, 42, 0
11, 12810, Note_on_c, 9, 44, 100
11, 12810, Note_on_c, 9, 44, 80
11, 12810, Note_on_c, 9, 35, 68
11, 12821, Control_c, 9, 123, 0
11, 12821, Control_c, 9, 123, 0
11, 12828, Note_on_c, 9, 44, 0
11, 12828, Note_on_c, 9, 44, 0
11, 12833, Control_c, 9, 123, 0
11, 12835, Note_on_c, 9, 35, 0
11, 12840, Note_on_c, 9, 42, 127
11, 12840, Note_on_c, 9, 42, 100
11, 12840, Note_on_c, 9, 40, 109
11, 12854, Control_c, 9, 123, 0
11, 12854, Control_c, 9, 123, 0
11, 12858, Note_on_c, 9, 42, 0
11, 12858, Note_on_c, 9, 42, 0
11, 12870, Note_on_c, 9, 44, 100
11, 12870, Note_on_c, 9, 44, 73
11, 12870, Note_on_c, 9, 35, 82
11, 12882, Control_c, 9, 123, 0
11, 12882, Control_c, 9, 123, 0
11, 12885, Note_on_c, 9, 40, 0
11, 12886, Note_on_c, 9, 44, 0
11, 12891, Note_on_c, 9, 44, 0
11, 12892, Control_c, 9, 123, 0
11, 12893, Note_on_c, 9, 35, 0
11, 12900, Note_on_c, 9, 42, 69
11, 12900, Note_on_c, 9, 44, 73
11, 12913, Note_on_c, 9, 44, 0
11, 12915, Control_c, 9, 123, 0
11, 12918, Note_on_c, 9, 42, 0
11, 12921, Control_c, 9, 123, 0
11, 12930, Note_on_c, 9, 46, 112
11, 12930, Note_on_c, 9, 42, 71
11, 12930, Note_on_c, 9, 35, 57
11, 12938, Control_c, 9, 123, 0
11, 12941, Note_on_c, 9, 35, 0
11, 12942, Control_c, 9, 123, 0
11, 12946, Note_on_c, 9, 42, 0
11, 12947, Control_c, 9, 123, 0
11, 12951, Note_on_c, 9, 46, 0
11, 12960, Note_on_c, 9, 42, 126
11, 12960, Note_on_c, 9, 44, 112
11, 12960, Note_on_c, 9, 35, 79
11, 12973, Control_c, 9, 123, 0
11, 12977, Control_c, 9, 123, 0
11, 12979, Note_on_c, 9, 44, 0
11, 12980, Note_on_c, 9, 42, 0
11, 12980, Control_c, 9, 123, 0
11, 12983, Note_on_c, 9, 35, 0
11, 12990, Note_on_c, 9, 44, 95
11, 13004, Control_c, 9, 123, 0
11, 13008, Note_on_c, 9, 44, 0
11, 13020, Note_on_c, 9, 42, 60
11, 13035, Control_c, 9, 123, 0
11, 13036, Note_on_c, 9, 42, 0
11, 13050, Note_on_c, 9, 44, 67
11, 13050, Note_on_c, 9, 44, 51
11, 13064, Note_on_c, 9, 44, 0
11, 13065, Control_c, 9, 123, 0
11, 13065, Control_c, 9, 123, 0
11, 13068, Note_on_c, 9, 44, 0
11, 13080, Note_on_c, 9, 40, 86
11, 13080, Note_on_c, 9, 42, 127
11, 13080, Note_on_c, 9, 42, 127
11, 13100, Note_on_c, 9, 42, 0
11, 13101, Note_on_c, 9, 42, 0
11, 13101, Control_c, 9, 123, 0
11, 13101, Control_c, 9, 123, 0
11, 13110, Note_on_c, 9, 44, 83
11, 13110, Note_on_c, 9, 44, 77
11, 13125, Note_on_c, 9, 44, 0
11, 13125, Control_c, 9, 123, 0
11, 13126, Note_on_c, 9, 44, 0
11, 13126, Control_c, 9, 123, 0
11, 13140, Note_on_c, 9, 42, 56
11, 13140, Note_on_c, 9, 42, 54
11, 13155, Note_on_c, 9, 42, 0
11, 13155, Note_on_c, 9, 42, 0
11, 13158, Control_c, 9, 123, 0
11, 13159, Control_c, 9, 123, 0
11, 13170, Note_on_c, 9, 44, 112
11, 13170, Note_on_c, 9, 44, 100
11, 13187, Note_on_c, 9, 44, 0
11, 13188, Control_c, 9, 123, 0
11, 13189, Note_on_c, 9, 44, 0
11, 13190, Control_c, 9, 123, 0
11, 13200, Note_on_c, 9, 42, 67
11, 13200, Note_on_c, 9, 42, 127
11, 13218, Control_c, 9, 123, 0
11, 13219, Note_on_c, 9, 42, 0
11, 13220, Note_on_c, 9, 42, 0
11, 13224, Control_c, 9, 123, 0
11, 13230, Note_on_c, 9, 44, 90
11, 13230, Note_on_c, 9, 44, 100
11, 13247, Note_on_c, 9, 44, 0
11, 13247, Control_c, 9, 123, 0
11, 13248, Control_c, 9, 123, 0
11, 13250, Note_on_c, 9, 44, 0
11, 13260, Note_on_c, 9, 42, 65
11, 13260, Note_on_c, 9, 42, 53
11, 13273, Control_c, 9, 123, 0
11, 13275, Note_on_c, 9, 42, 0
11, 13278, Note_on_c, 9, 42, 0
11, 13278, Control_c, 9, 123, 0
11, 13287, Control_c, 9, 123, 0
11, 13288, Note_on_c, 9, 40, 0
11, 13290, Note_on_c, 9, 44, 90
11, 13290, Note_on_c, 9, 44, 77
11, 13304, Control_c, 9, 123, 0
11, 13305, Control_c, 9, 123, 0
11, 13306, Note_on_c, 9, 44, 0
11, 13308, Note_on_c, 9, 44, 0
11, 13320, Note_on_c, 9, 42, 127
11, 13320, Note_on_c, 9, 40, 117
11, 13320, Note_on_c, 9, 42, 127
11, 13337, Control_c, 9, 123, 0
11, 13339, Note_on_c, 9, 42, 0
11, 13339, Note_on_c, 9, 42, 0
11, 13341, Control_c, 9, 123, 0
11, 13347, Note_on_c, 9, 40, 0
11, 13349, Control_c, 9, 123, 0
11, 13350, Note_on_c, 9, 44, 86
11, 13350, Note_on_c, 9, 44, 73
11, 13360, Control_c, 9, 123, 0
11, 13362, Note_on_c, 9, 44, 0
11, 13362, Control_c, 9, 123, 0
11, 13364, Note_on_c, 9, 44, 0
11, 13380, Note_on_c, 9, 42, 83
11, 13380, Note_on_c, 9, 42, 75
11, 13383, Control_c, 9, 123, 0
11, 13386, Note_on_c, 9, 42, 0
11, 13395, Note_on_c, 9, 44, 90
11, 13395, Control_c, 9, 123, 0
11, 13396, Note_on_c, 9, 42, 0
11, 13402, Control_c, 9, 123, 0
11, 13407, Note_on_c, 9, 44, 0
11, 13410, Note_on_c, 9, 42, 127
11, 13410, Note_on_c, 9, 46, 95
11, 13410, Note_on_c, 9, 35, 56
11, 13415, Control_c, 9, 123, 0
11, 13419, Note_on_c, 9, 35, 0
11, 13422, Note_on_c, 9, 42, 0
11, 13423, Control_c, 9, 123, 0
11, 13428, Control_c, 9, 123, 0
11, 13431, Note_on_c, 9, 46, 0
11, 13440, Note_on_c, 9, 44, 112
11, 13440, Note_on_c, 9, 42, 65
11, 13440, Note_on_c, 9, 35, 86
11, 13453, Note_on_c, 9, 35, 0
11, 13455, Control_c, 9, 123, 0
11, 13455, Control_c, 9, 123, 0
11, 13458, Note_on_c, 9, 44, 0
11, 13460, Control_c, 9, 123, 0
11, 13463, Note_on_c, 9, 42, 0
11, 13470, Note_on_c, 9, 44, 83
11, 13470, Note_on_c, 9, 35, 95
11, 13484, Control_c, 9, 123, 0
11, 13487, Note_on_c, 9, 44, 0
11, 13488, Control_c, 9, 123, 0
11, 13490, Note_on_c, 9, 35, 0
11, 13500, Note_on_c, 9, 42, 106
11, 13500, Note_on_c, 9, 42, 65
11, 13513, Note_on_c, 9, 42, 0
11, 13513, Control_c, 9, 123, 0
11, 13515, Control_c, 9, 123, 0
11, 13518, Note_on_c, 9, 42, 0
11, 13530, Note_on_c, 9, 44, 95
11, 13530, Note_on_c, 9, 44, 71
11, 13540, Control_c, 9, 123, 0
11, 13541, Control_c, 9, 123, 0
11, 13543, Note_on_c, 9, 44, 0
11, 13545, Note_on_c, 9, 44, 0
11, 13560, Note_on_c, 9, 42, 127
11, 13560, Note_on_c, 9, 42, 118
11, 13560, Note_on_c, 9, 40, 113
11, 13576, Control_c, 9, 123, 0
11, 13577, Control_c, 9, 123, 0
11, 13579, Note_on_c, 9, 42, 0
11, 13579, Note_on_c, 9, 42, 0
11, 13585, Note_on_c, 9, 40, 0
11, 13585, Control_c, 9, 123, 0
11, 13590, Note_on_c, 9, 44, 77
11, 13590, Note_on_c, 9, 44, 77
11, 13599, Control_c, 9, 123, 0
11, 13600, Control_c, 9, 123, 0
11, 13602, Note_on_c, 9, 44, 0
11, 13604, Note_on_c, 9, 44, 0
11, 13620, Note_on_c, 9, 42, 56
11, 13620, Note_on_c, 9, 42, 61
11, 13633, Control_c, 9, 123, 0
11, 13634, Note_on_c, 9, 42, 0
11, 13636, Control_c, 9, 123, 0
11, 13639, Note_on_c, 9, 42, 0
11, 13650, Note_on_c, 9, 44, 95
11, 13650, Note_on_c, 9, 46, 90
11, 13661, Control_c, 9, 123, 0
11, 13663, Note_on_c, 9, 44, 0
11, 13665, Control_c, 9, 123, 0
11, 13670, Note_on_c, 9, 46, 0
11, 13680, Note_on_c, 9, 42, 100
11, 13680, Note_on_c, 9, 42, 71
11, 13696, Control_c, 9, 123, 0
11, 13697, Note_on_c, 9, 42, 0
11, 13698, Control_c, 9, 123, 0
11, 13702, Note_on_c, 9, 42, 0
11, 13710, Note_on_c, 9, 46, 118
11, 13710, Note_on_c, 9, 46, 86
11, 13720, Control_c, 9, 123, 0
11, 13726, Control_c, 9, 123, 0
11, 13728, Note_on_c, 9, 46, 0
11, 13728, Note_on_c, 9, 46, 0
11, 13740, Note_on_c, 9, 42, 73
11, 13740, Note_on_c, 9, 42, 57
11, 13752, Control_c, 9, 123, 0
11, 13753, Note_on_c, 9, 42, 0
11, 13754, Control_c, 9, 123, 0
11, 13762, Note_on_c, 9, 42, 0
11, 13770, Note_on_c, 9, 44, 90
11, 13770, Note_on_c, 9, 44, 75
11, 13784, Control_c, 9, 123, 0
11, 13787, Control_c, 9, 123, 0
11, 13791, Note_on_c, 9, 44, 0
11, 13792, Note_on_c, 9, 44, 0
11, 13800, Note_on_c, 9, 42, 127
11, 13800, Note_on_c, 9, 42, 112
11, 13800, Note_on_c, 9, 40, 103
11, 13814, Control_c, 9, 123, 0
11, 13815, Control_c, 9, 123, 0
11, 13816, Note_on_c, 9, 42, 0
11, 13819, Note_on_c, 9, 42, 0
11, 13824, Note_on_c, 9, 40, 0
11, 13825, Control_c, 9, 123, 0
11, 13830, Note_on_c, 9, 44, 80
11, 13830, Note_on_c, 9, 44, 69
11, 13830, Note_on_c, 9, 35, 70
11, 13836, Control_c, 9, 123, 0
11, 13838, Control_c, 9, 123, 0
11, 13843, Note_on_c, 9, 44, 0
11, 13845, Note_on_c, 9, 44, 0
11, 13846, Note_on_c, 9, 35, 0
11, 13847, Control_c, 9, 123, 0
11, 13857, Control_c, 9, 123, 0
11, 13860, Note_on_c, 9, 42, 86
11, 13860, Note_on_c, 9, 42, 49
11, 13860, Note_on_c, 9, 44, 73
11, 13863, Control_c, 9, 123, 0
11, 13865, Note_on_c, 9, 42, 0
11, 13867, Note_on_c, 9, 42, 0
11, 13872, Note_on_c, 9, 44, 0
11, 13875, Note_on_c, 9, 44, 90
11, 13877, Control_c, 9, 123, 0
11, 13881, Control_c, 9, 123, 0
11, 13886, Note_on_c, 9, 44, 0
11, 13890, Note_on_c, 9, 42, 127
11, 13890, Note_on_c, 9, 42, 86
11, 13898, Control_c, 9, 123, 0
11, 13899, Control_c, 9, 123, 0
11, 13903, Note_on_c, 9, 42, 0
11, 13906, Note_on_c, 9, 42, 0
11, 13920, Note_on_c, 9, 44, 127
11, 13920, Note_on_c, 9, 44, 118
11, 13928, Control_c, 9, 123, 0
11, 13934, Control_c, 9, 123, 0
11, 13938, Note_on_c, 9, 44, 0
11, 13938, Note_on_c, 9, 44, 0
11, 13980, Note_on_c, 9, 42, 127
11, 13980, Note_on_c, 9, 42, 53
11, 13988, Control_c, 9, 123, 0
11, 13993, Note_on_c, 9, 42, 0
11, 13993, Control_c, 9, 123, 0
11, 13994, Note_on_c, 9, 42, 0
11, 14010, Note_on_c, 9, 44, 90
11, 14010, Note_on_c, 9, 44, 69
11, 14015, Control_c, 9, 123, 0
11, 14019, Control_c, 9, 123, 0
11, 14024, Note_on_c, 9, 44, 0
11, 14026, Note_on_c, 9, 44, 0
11, 14040, Note_on_c, 9, 42, 127
11, 14040, Note_on_c, 9, 40, 113
11, 14040, Note_on_c, 9, 42, 127
11, 14051, Control_c, 9, 123, 0
11, 14058, Note_on_c, 9, 42, 0
11, 14058, Note_on_c, 9, 42, 0
11, 14059, Control_c, 9, 123, 0
11, 14062, Control_c, 9, 123, 0
11, 14066, Note_on_c, 9, 40, 0
11, 14070, Note_on_c, 9, 44, 100
11, 14070, Note_on_c, 9, 44, 73
11, 14074, Control_c, 9, 123, 0
11, 14082, Control_c, 9, 123, 0
11, 14084, Note_on_c, 9, 44, 0
11, 14085, Note_on_c, 9, 44, 0
11, 14100, Note_on_c, 9, 42, 95
11, 14100, Note_on_c, 9, 42, 73
11, 14111, Control_c, 9, 123, 0
11, 14113, Control_c, 9, 123, 0
11, 14115, Note_on_c, 9, 42, 0
11, 14117, Note_on_c, 9, 42, 0
11, 14130, Note_on_c, 9, 44, 106
11, 14130, Note_on_c, 9, 46, 100
11, 14130, Note_on_c, 9, 35, 58
11, 14136, Control_c, 9, 123, 0
11, 14140, Control_c, 9, 123, 0
11, 14141, Note_on_c, 9, 35, 0
11, 14144, Control_c, 9, 123, 0
11, 14147, Note_on_c, 9, 44, 0
11, 14148, Note_on_c, 9, 46, 0
11, 14160, Note_on_c, 9, 42, 67
11, 14160, Note_on_c, 9, 42, 86
11, 14160, Note_on_c, 9, 35, 72
11, 14168, Note_on_c, 9, 42, 0
11, 14168, Control_c, 9, 123, 0
11, 14173, Control_c, 9, 123, 0
11, 14179, Control_c, 9, 123, 0
11, 14181, Note_on_c, 9, 42, 0
11, 14182, Note_on_c, 9, 35, 0
11, 14190, Note_on_c, 9, 44, 106
11, 14190, Note_on_c, 9, 44, 69
11, 14199, Control_c, 9, 123, 0
11, 14204, Note_on_c, 9, 44, 0
11, 14207, Control_c, 9, 123, 0
11, 14208, Note_on_c, 9, 44, 0
11, 14220, Note_on_c, 9, 42, 71
11, 14228, Control_c, 9, 123, 0
11, 14235, Note_on_c, 9, 42, 0
11, 14250, Note_on_c, 9, 44, 80
11, 14250, Note_on_c, 9, 44, 83
11, 14260, Control_c, 9, 123, 0
11, 14260, Control_c, 9, 123, 0
11, 14265, Note_on_c, 9, 44, 0
11, 14267, Note_on_c, 9, 44, 0
11, 14280, Note_on_c, 9, 42, 127
11, 14280, Note_on_c, 9, 40, 113
11, 14280, Note_on_c, 9, 42, 127
11, 14294, Control_c, 9, 123, 0
11, 14295, Control_c, 9, 123, 0
11, 14298, Control_c, 9, 123, 0
11, 14299, Note_on_c, 9, 42, 0
11, 14300, Note_on_c, 9, 42, 0
11, 14303, Note_on_c, 9, 40, 0
11, 14310, Note_on_c, 9, 44, 86
11, 14310, Note_on_c, 9, 44, 80
11, 14317, Control_c, 9, 123, 0
11, 14320, Control_c, 9, 123, 0
11, 14323, Note_on_c, 9, 44, 0
11, 14327, Note_on_c, 9, 44, 0
11, 14340, Note_on_c, 9, 42, 42
11, 14340, Note_on_c, 9, 42, 40
11, 14346, Control_c, 9, 123, 0
11, 14352, Note_on_c, 9, 42, 0
11, 14353, Note_on_c, 9, 42, 0
11, 14354, Control_c, 9, 123, 0
11, 14370, Note_on_c, 9, 44, 80
11, 14370, Note_on_c, 9, 44, 69
11, 14370, Note_on_c, 9, 35, 66
11, 14375, Control_c, 9, 123, 0
11, 14376, Control_c, 9, 123, 0
11, 14380, Note_on_c, 9, 35, 0
11, 14382, Control_c, 9, 123, 0
11, 14385, Note_on_c, 9, 44, 0
11, 14385, Note_on_c, 9, 44, 0
11, 14400, Note_on_c, 9, 42, 127
11, 14400, Note_on_c, 9, 42, 127
11, 14400, Note_on_c, 9, 35, 103
11, 14409, Control_c, 9, 123, 0
11, 14417, Control_c, 9, 123, 0
11, 14417, Control_c, 9, 123, 0
11, 14419, Note_on_c, 9, 42, 0
11, 14419, Note_on_c, 9, 42, 0
11, 14420, Note_on_c, 9, 35, 0
11, 14430, Note_on_c, 9, 44, 80
11, 14430, Note_on_c, 9, 44, 73
11, 14433, Control_c, 9, 123, 0
11, 14443, Control_c, 9, 123, 0
11, 14445, Note_on_c, 9, 44, 0
11, 14448, Note_on_c, 9, 44, 0
11, 14460, Note_on_c, 9, 42, 75
11, 14460, Note_on_c, 9, 42, 51
11, 14468, Control_c, 9, 123, 0
11, 14475, Control_c, 9, 123, 0
11, 14476, Note_on_c, 9, 42, 0
11, 14477, Note_on_c, 9, 42, 0
11, 14490, Note_on_c, 9, 44, 90
11, 14490, Note_on_c, 9, 44, 83
11, 14497, Control_c, 9, 123, 0
11, 14505, Note_on_c, 9, 44, 0
11, 14505, Control_c, 9, 123, 0
11, 14508, Note_on_c, 9, 44, 0
11, 14520, Note_on_c, 9, 42, 126
11, 14520, Note_on_c, 9, 40, 113
11, 14520, Note_on_c, 9, 42, 127
11, 14533, Control_c, 9, 123, 0
11, 14537, Note_on_c, 9, 42, 0
11, 14538, Control_c, 9, 123, 0
11, 14541, Note_on_c, 9, 42, 0
11, 14545, Control_c, 9, 123, 0
11, 14548, Note_on_c, 9, 40, 0
11, 14550, Note_on_c, 9, 44, 67
11, 14550, Note_on_c, 9, 44, 60
11, 14559, Control_c, 9, 123, 0
11, 14560, Control_c, 9, 123, 0
11, 14563, Note_on_c, 9, 44, 0
11, 14568, Note_on_c, 9, 44, 0
11, 14580, Note_on_c, 9, 42, 55
11, 14580, Note_on_c, 9, 42, 95
11, 14586, Note_on_c, 9, 42, 0
11, 14587, Control_c, 9, 123, 0
11, 14593, Control_c, 9, 123, 0
11, 14595, Note_on_c, 9, 44, 86
11, 14598, Note_on_c, 9, 42, 0
11, 14603, Control_c, 9, 123, 0
11, 14607, Note_on_c, 9, 44, 0
11, 14610, Note_on_c, 9, 42, 112
11, 14610, Note_on_c, 9, 44, 83
11, 14620, Control_c, 9, 123, 0
11, 14621, Control_c, 9, 123, 0
11, 14623, Note_on_c, 9, 42, 0
11, 14629, Note_on_c, 9, 44, 0
11, 14640, Note_on_c, 9, 44, 118
11, 14640, Note_on_c, 9, 42, 95
11, 14653, Control_c, 9, 123, 0
11, 14657, Control_c, 9, 123, 0
11, 14658, Note_on_c, 9, 44, 0
11, 14659, Note_on_c, 9, 42, 0
11, 14670, Note_on_c, 9, 44, 65
11, 14678, Control_c, 9, 123, 0
11, 14685, Note_on_c, 9, 44, 0
11, 14700, Note_on_c, 9, 42, 100
11, 14700, Note_on_c, 9, 42, 60
11, 14712, Control_c, 9, 123, 0
11, 14713, Note_on_c, 9, 42, 0
11, 14714, Control_c, 9, 123, 0
11, 14717, Note_on_c, 9, 42, 0
11, 14730, Note_on_c, 9, 44, 75
11, 14730, Note_on_c, 9, 44, 77
11, 14738, Control_c, 9, 123, 0
11, 14739, Control_c, 9, 123, 0
11, 14743, Note_on_c, 9, 44, 0
11, 14744, Note_on_c, 9, 44, 0
11, 14760, Note_on_c, 9, 42, 127
11, 14760, Note_on_c, 9, 42, 127
11, 14760, Note_on_c, 9, 40, 113
11, 14777, Control_c, 9, 123, 0
11, 14778, Note_on_c, 9, 42, 0
11, 14778, Control_c, 9, 123, 0
11, 14780, Note_on_c, 9, 42, 0
11, 14785, Note_on_c, 9, 40, 0
11, 14786, Control_c, 9, 123, 0
11, 14790, Note_on_c, 9, 44, 100
11, 14790, Note_on_c, 9, 44, 86
11, 14801, Control_c, 9, 123, 0
11, 14802, Control_c, 9, 123, 0
11, 14805, Note_on_c, 9, 44, 0
11, 14805, Note_on_c, 9, 44, 0
11, 14820, Note_on_c, 9, 42, 95
11, 14820, Note_on_c, 9, 42, 67
11, 14835, Note_on_c, 9, 42, 0
11, 14835, Control_c, 9, 123, 0
11, 14838, Control_c, 9, 123, 0
11, 14840, Note_on_c, 9, 42, 0
11, 14850, Note_on_c, 9, 46, 106
11, 14850, Note_on_c, 9, 46, 100
11, 14850, Note_on_c, 9, 35, 67
11, 14857, Control_c, 9, 123, 0
11, 14859, Note_on_c, 9, 35, 0
11, 14866, Control_c, 9, 123, 0
11, 14867, Control_c, 9, 123, 0
11, 14869, Note_on_c, 9, 46, 0
11, 14869, Note_on_c, 9, 46, 0
11, 14880, Note_on_c, 9, 42, 126
11, 14880, Note_on_c, 9, 42, 126
11, 14880, Note_on_c, 9, 35, 113
11, 14897, Note_on_c, 9, 42, 0
11, 14897, Control_c, 9, 123, 0
11, 14899, Control_c, 9, 123, 0
11, 14901, Note_on_c, 9, 35, 0
11, 14901, Control_c, 9, 123, 0
11, 14902, Note_on_c, 9, 42, 0
11, 14910, Note_on_c, 9, 44, 90
11, 14910, Note_on_c, 9, 44, 71
11, 14920, Control_c, 9, 123, 0
11, 14922, Note_on_c, 9, 44, 0
11, 14923, Control_c, 9, 123, 0
11, 14928, Note_on_c, 9, 44, 0
11, 14940, Note_on_c, 9, 42, 69
11, 14940, Note_on_c, 9, 42, 69
11, 14950, Control_c, 9, 123, 0
11, 14952, Note_on_c, 9, 42, 0
11, 14956, Control_c, 9, 123, 0
11, 14958, Note_on_c, 9, 42, 0
11, 14970, Note_on_c, 9, 44, 86
11, 14970, Note_on_c, 9, 44, 86
11, 14979, Control_c, 9, 123, 0
11, 14985, Control_c, 9, 123, 0
11, 14986, Note_on_c, 9, 44, 0
11, 14987, Note_on_c, 9, 44, 0
11, 15000, Note_on_c, 9, 42, 127
11, 15000, Note_on_c, 9, 42, 118
11, 15000, Note_on_c, 9, 40, 106
11, 15016, Control_c, 9, 123, 0
11, 15018, Note_on_c, 9, 42, 0
11, 15018, Control_c, 9, 123, 0
11, 15021, Note_on_c, 9, 42, 0
11, 15024, Note_on_c, 9, 40, 0
11, 15024, Control_c, 9, 123, 0
11, 15030, Note_on_c, 9, 44, 86
11, 15030, Note_on_c, 9, 44, 64
11, 15040, Control_c, 9, 123, 0
11, 15043, Control_c, 9, 123, 0
11, 15047, Note_on_c, 9, 44, 0
11, 15048, Note_on_c, 9, 44, 0
11, 15060, Note_on_c, 9, 42, 45
11, 15060, Note_on_c, 9, 42, 69
11, 15074, Control_c, 9, 123, 0
11, 15074, Control_c, 9, 123, 0
11, 15075, Note_on_c, 9, 42, 0
11, 15079, Note_on_c, 9, 42, 0
11, 15090, Note_on_c, 9, 44, 86
11, 15090, Note_on_c, 9, 44, 77
11, 15100, Control_c, 9, 123, 0
11, 15103, Control_c, 9, 123, 0
11, 15105, Note_on_c, 9, 44, 0
11, 15110, Note_on_c, 9, 44, 0
11, 15120, Note_on_c, 9, 42, 126
11, 15120, Note_on_c, 9, 42, 71
11, 15136, Control_c, 9, 123, 0
11, 15137, Control_c, 9, 123, 0
11, 15139, Note_on_c, 9, 42, 0
11, 15141, Note_on_c, 9, 42, 0
11, 15150, Note_on_c, 9, 44, 83
11, 15150, Note_on_c, 9, 44, 67
11, 15158, Control_c, 9, 123, 0
11, 15161, Control_c, 9, 123, 0
11, 15165, Note_on_c, 9, 44, 0
11, 15168, Note_on_c, 9, 44, 0
11, 15180, Note_on_c, 9, 42, 53
11, 15180, Note_on_c, 9, 42, 75
11, 15192, Control_c, 9, 123, 0
11, 15193, Control_c, 9, 123, 0
11, 15195, Note_on_c, 9, 44, 75
11, 15198, Note_on_c, 9, 42, 0
11, 15198, Note_on_c, 9, 42, 0
11, 15210, Note_on_c, 9, 44, 73
11, 15211, Note_on_c, 9, 44, 0
11, 15218, Control_c, 9, 123, 0
11, 15224, Control_c, 9, 123, 0
11, 15230, Note_on_c, 9, 44, 0
11, 15240, Note_on_c, 9, 42, 127
11, 15240, Note_on_c, 9, 40, 117
11, 15240, Note_on_c, 9, 42, 83
11, 15258, Control_c, 9, 123, 0
11, 15258, Control_c, 9, 123, 0
11, 15259, Note_on_c, 9, 42, 0
11, 15259, Note_on_c, 9, 42, 0
11, 15263, Control_c, 9, 123, 0
11, 15265, Note_on_c, 9, 40, 0
11, 15270, Note_on_c, 9, 44, 69
11, 15270, Note_on_c, 9, 44, 77
11, 15281, Control_c, 9, 123, 0
11, 15282, Control_c, 9, 123, 0
11, 15285, Note_on_c, 9, 44, 0
11, 15287, Note_on_c, 9, 44, 0
11, 15300, Note_on_c, 9, 50, 68
11, 15300, Note_on_c, 9, 42, 69
11, 15300, Note_on_c, 9, 42, 73
11, 15303, Note_on_c, 9, 50, 0
11, 15304, Control_c, 9, 123, 0
11, 15314, Control_c, 9, 123, 0
11, 15315, Note_on_c, 9, 42, 0
11, 15315, Note_on_c, 9, 42, 0
11, 15315, Note_on_c, 9, 50, 71
11, 15315, Control_c, 9, 123, 0
11, 15319, Control_c, 9, 123, 0
11, 15323, Note_on_c, 9, 50, 0
11, 15330, Note_on_c, 9, 50, 71
11, 15330, Note_on_c, 9, 44, 73
11, 15330, Note_on_c, 9, 44, 75
11, 15330, Control_c, 9, 123, 0
11, 15336, Note_on_c, 9, 50, 0
11, 15342, Control_c, 9, 123, 0
11, 15345, Control_c, 9, 123, 0
11, 15346, Note_on_c, 9, 44, 0
11, 15349, Note_on_c, 9, 44, 0
11, 15360, Note_on_c, 9, 50, 106
11, 15360, Note_on_c, 9, 42, 127
11, 15360, Note_on_c, 9, 42, 73
11, 15360, Note_on_c, 9, 35, 71
11, 15372, Note_on_c, 9, 35, 0
11, 15374, Control_c, 9, 123, 0
11, 15376, Control_c, 9, 123, 0
11, 15377, Control_c, 9, 123, 0
11, 15378, Note_on_c, 9, 42, 0
11, 15380, Note_on_c, 9, 42, 0
11, 15390, Note_on_c, 9, 44, 73
11, 15390, Note_on_c, 9, 44, 86
11, 15390, Note_on_c, 9, 35, 100
11, 15396, Control_c, 9, 123, 0
11, 15398, Note_on_c, 9, 50, 0
11, 15400, Control_c, 9, 123, 0
11, 15401, Control_c, 9, 123, 0
11, 15404, Note_on_c, 9, 44, 0
11, 15407, Control_c, 9, 123, 0
11, 15408, Note_on_c, 9, 44, 0
11, 15408, Note_on_c, 9, 35, 0
11, 15420, Note_on_c, 9, 42, 77
11, 15420, Note_on_c, 9, 42, 51
11, 15433, Control_c, 9, 123, 0
11, 15433, Control_c, 9, 123, 0
11, 15435, Note_on_c, 9, 42, 0
11, 15435, Note_on_c, 9, 42, 0
11, 15450, Note_on_c, 9, 50, 80
11, 15450, Note_on_c, 9, 44, 90
11, 15450, Note_on_c, 9, 44, 80
11, 15461, Control_c, 9, 123, 0
11, 15464, Control_c, 9, 123, 0
11, 15464, Control_c, 9, 123, 0
11, 15466, Note_on_c, 9, 44, 0
11, 15468, Note_on_c, 9, 50, 0
11, 15468, Note_on_c, 9, 44, 0
11, 15480, Note_on_c, 9, 48, 122
11, 15480, Note_on_c, 9, 42, 127
11, 15480, Note_on_c, 9, 42, 127
11, 15480, Note_on_c, 9, 40, 122
11, 15496, Control_c, 9, 123, 0
11, 15497, Note_on_c, 9, 48, 0
11, 15497, Control_c, 9, 123, 0
11, 15498, Note_on_c, 9, 42, 0
11, 15499, Control_c, 9, 123, 0
11, 15500, Note_on_c, 9, 42, 0
11, 15504, Note_on_c, 9, 40, 0
11, 15506, Control_c, 9, 123, 0
11, 15510, Note_on_c, 9, 48, 109
11, 15510, Note_on_c, 9, 44, 67
11, 15510, Note_on_c, 9, 44, 90
11, 15518, Control_c, 9, 123, 0
11, 15520, Note_on_c, 9, 44, 0
11, 15524, Control_c, 9, 123, 0
11, 15526, Note_on_c, 9, 48, 0
11, 15526, Note_on_c, 9, 44, 0
11, 15527, Control_c, 9, 123, 0
11, 15540, Note_on_c, 9, 48, 82
11, 15540, Note_on_c, 9, 42, 71
11, 15542, Control_c, 9, 123, 0
11, 15543, Note_on_c, 9, 42, 0
11, 15548, Control_c, 9, 123, 0
11, 15551, Note_on_c, 9, 48, 0
11, 15555, Note_on_c, 9, 44, 80
11, 15559, Control_c, 9, 123, 0
11, 15563, Note_on_c, 9, 44, 0
11, 15570, Note_on_c, 9, 48, 76
11, 15570, Note_on_c, 9, 42, 127
11, 15570, Note_on_c, 9, 44, 100
11, 15572, Control_c, 9, 123, 0
11, 15578, Note_on_c, 9, 42, 0
11, 15583, Control_c, 9, 123, 0
11, 15585, Note_on_c, 9, 48, 0
11, 15586, Control_c, 9, 123, 0
11, 15589, Note_on_c, 9, 44, 0
11, 15600, Note_on_c, 9, 45, 103
11, 15600, Note_on_c, 9, 44, 112
11, 15600, Note_on_c, 9, 42, 106
11, 15614, Control_c, 9, 123, 0
11, 15615, Control_c, 9, 123, 0
11, 15615, Control_c, 9, 123, 0
11, 15616, Note_on_c, 9, 45, 0
11, 15618, Note_on_c, 9, 44, 0
11, 15620, Note_on_c, 9, 42, 0
11, 15630, Note_on_c, 9, 45, 82
11, 15630, Note_on_c, 9, 44, 100
11, 15642, Control_c, 9, 123, 0
11, 15646, Control_c, 9, 123, 0
11, 15647, Note_on_c, 9, 44, 0
11, 15651, Note_on_c, 9, 45, 0
11, 15660, Note_on_c, 9, 45, 86
11, 15660, Note_on_c, 9, 42, 118
11, 15669, Control_c, 9, 123, 0
11, 15671, Note_on_c, 9, 42, 0
11, 15675, Control_c, 9, 123, 0
11, 15678, Note_on_c, 9, 45, 0
11, 15690, Note_on_c, 9, 45, 86
11, 15690, Note_on_c, 9, 44, 106
11, 15690, Note_on_c, 9, 44, 73
11, 15697, Control_c, 9, 123, 0
11, 15700, Control_c, 9, 123, 0
11, 15704, Note_on_c, 9, 44, 0
11, 15705, Note_on_c, 9, 44, 0
11, 15708, Control_c, 9, 123, 0
11, 15712, Note_on_c, 9, 45, 0
11, 15720, Note_on_c, 9, 41, 80
11, 15720, Note_on_c, 9, 42, 127
11, 15720, Note_on_c, 9, 42, 127
11, 15720, Note_on_c, 9, 40, 117
11, 15726, Control_c, 9, 123, 0
11, 15728, Note_on_c, 9, 41, 0
11, 15734, Control_c, 9, 123, 0
11, 15737, Control_c, 9, 123, 0
11, 15738, Note_on_c, 9, 42, 0
11, 15739, Note_on_c, 9, 42, 0
11, 15744, Control_c, 9, 123, 0
11, 15745, Note_on_c, 9, 40, 0
11, 15750, Note_on_c, 9, 41, 77
11, 15750, Note_on_c, 9, 44, 100
11, 15750, Note_on_c, 9, 46, 100
11, 15755, Control_c, 9, 123, 0
11, 15760, Control_c, 9, 123, 0
11, 15761, Note_on_c, 9, 41, 0
11, 15764, Control_c, 9, 123, 0
11, 15765, Note_on_c, 9, 44, 0
11, 15772, Note_on_c, 9, 46, 0
11, 15780, Note_on_c, 9, 41, 54
11, 15780, Note_on_c, 9, 42, 118
11, 15780, Note_on_c, 9, 42, 67
11, 15786, Note_on_c, 9, 41, 0
11, 15786, Control_c, 9, 123, 0
11, 15792, Control_c, 9, 123, 0
11, 15794, Control_c, 9, 123, 0
11, 15795, Note_on_c, 9, 42, 0
11, 15796, Note_on_c, 9, 42, 0
11, 15810, Note_on_c, 9, 41, 71
11, 15810, Note_on_c, 9, 46, 118
11, 15810, Note_on_c, 9, 46, 118
11, 15810, Note_on_c, 9, 35, 68
11, 15823, Control_c, 9, 123, 0
11, 15823, Control_c, 9, 123, 0
11, 15823, Control_c, 9, 123, 0
11, 15824, Note_on_c, 9, 35, 0
11, 15824, Control_c, 9, 123, 0
11, 15826, Note_on_c, 9, 41, 0
11, 15829, Note_on_c, 9, 46, 0
11, 15829, Note_on_c, 9, 46, 0
11, 15840, Note_on_c, 9, 42, 127
11, 15840, Note_on_c, 9, 42, 77
11, 15840, Note_on_c, 9, 35, 95
11, 15840, Note_on_c, 9, 49, 118
11, 15853, Control_c, 9, 123, 0
11, 15855, Control_c, 9, 123, 0
11, 15856, Note_on_c, 9, 42, 0
11, 15859, Note_on_c, 9, 42, 0
11, 15864, Control_c, 9, 123, 0
11, 15865, Note_on_c, 9, 35, 0
11, 15870, Note_on_c, 9, 44, 86
11, 15870, Note_on_c, 9, 44, 73
11, 15880, Control_c, 9, 123, 0
11, 15883, Control_c, 9, 123, 0
11, 15885, Note_on_c, 9, 44, 0
11, 15886, Note_on_c, 9, 44, 0
11, 15900, Note_on_c, 9, 42, 73
11, 15900, Note_on_c, 9, 42, 64
11, 15915, Control_c, 9, 123, 0
11, 15916, Note_on_c, 9, 42, 0
11, 15916, Note_on_c, 9, 42, 0
11, 15916, Control_c, 9, 123, 0
11, 15930, Note_on_c, 9, 44, 83
11, 15930, Note_on_c, 9, 44, 83
11, 15939, Control_c, 9, 123, 0
11, 15945, Note_on_c, 9, 44, 0
11, 15947, Control_c, 9, 123, 0
11, 15948, Note_on_c, 9, 44, 0
11, 15960, Note_on_c, 9, 42, 127
11, 15960, Note_on_c, 9, 42, 127
11, 15960, Note_on_c, 9, 40, 113
11, 15975, Control_c, 9, 123, 0
11, 15978, Note_on_c, 9, 42, 0
11, 15982, Note_on_c, 9, 42, 0
11, 15982, Control_c, 9, 123, 0
11, 15984, Note_on_c, 9, 40, 0
11, 15985, Control_c, 9, 123, 0
11, 15990, Note_on_c, 9, 44, 90
11, 15990, Note_on_c, 9, 44, 75
11, 16000, Control_c, 9, 123, 0
11, 16005, Note_on_c, 9, 44, 0
11, 16008, Note_on_c, 9, 44, 0
11, 16010, Control_c, 9, 123, 0
11, 16020, Note_on_c, 9, 42, 83
11, 16020, Note_on_c, 9, 42, 64
11, 16034, Control_c, 9, 123, 0
11, 16035, Note_on_c, 9, 42, 0
11, 16035, Control_c, 9, 123, 0
11, 16036, Note_on_c, 9, 42, 0
11, 16050, Note_on_c, 9, 44, 100
11, 16050, Note_on_c, 9, 44, 86
11, 16066, Note_on_c, 9, 49, 0
11, 16066, Note_on_c, 9, 44, 0
11, 16066, Control_c, 9, 123, 0
11, 16067, Control_c, 9, 123, 0
11, 16067, Control_c, 9, 123, 0
11, 16068, Note_on_c, 9, 44, 0
11, 16080, Note_on_c, 9, 42, 75
11, 16080, Note_on_c, 9, 42, 106
11, 16095, Control_c, 9, 123, 0
11, 16096, Note_on_c, 9, 42, 0
11, 16096, Note_on_c, 9, 42, 0
11, 16099, Control_c, 9, 123, 0
11, 16110, Note_on_c, 9, 44, 90
11, 16110, Note_on_c, 9, 44, 64
11, 16122, Control_c, 9, 123, 0
11, 16122, Control_c, 9, 123, 0
11, 16124, Note_on_c, 9, 44, 0
11, 16128, Note_on_c, 9, 44, 0
11, 16140, Note_on_c, 9, 42, 86
11, 16140, Note_on_c, 9, 42, 69
11, 16153, Control_c, 9, 123, 0
11, 16155, Control_c, 9, 123, 0
11, 16156, Note_on_c, 9, 42, 0
11, 16158, Note_on_c, 9, 42, 0
11, 16170, Note_on_c, 9, 44, 80
11, 16170, Note_on_c, 9, 44, 80
11, 16185, Control_c, 9, 123, 0
11, 16186, Control_c, 9, 123, 0
11, 16188, Note_on_c, 9, 44, 0
11, 16191, Note_on_c, 9, 44, 0
11, 16200, Note_on_c, 9, 42, 127
11, 16200, Note_on_c, 9, 40, 113
11, 16200, Note_on_c, 9, 42, 69
11, 16215, Control_c, 9, 123, 0
11, 16217, Note_on_c, 9, 42, 0
11, 16218, Note_on_c, 9, 42, 0
11, 16218, Control_c, 9, 123, 0
11, 16219, Control_c, 9, 123, 0
11, 16221, Note_on_c, 9, 40, 0
11, 16230, Note_on_c, 9, 44, 71
11, 16230, Note_on_c, 9, 44, 90
11, 16236, Control_c, 9, 123, 0
11, 16242, Note_on_c, 9, 44, 0
11, 16245, Control_c, 9, 123, 0
11, 16250, Note_on_c, 9, 44, 0
11, 16260, Note_on_c, 9, 42, 95
11, 16260, Note_on_c, 9, 42, 69
11, 16263, Control_c, 9, 123, 0
11, 16268, Note_on_c, 9, 42, 0
11, 16274, Control_c, 9, 123, 0
11, 16275, Note_on_c, 9, 44, 95
11, 16279, Note_on_c, 9, 42, 0
11, 16282, Control_c, 9, 123, 0
11, 16288, Note_on_c, 9, 44, 0
11, 16290, Note_on_c, 9, 42, 127
11, 16290, Note_on_c, 9, 35, 63
11, 16290, Note_on_c, 9, 44, 77
11, 16299, Control_c, 9, 123, 0
11, 16300, Note_on_c, 9, 35, 0
11, 16301, Control_c, 9, 123, 0
11, 16305, Note_on_c, 9, 42, 0
11, 16307, Control_c, 9, 123, 0
11, 16309, Note_on_c, 9, 44, 0
11, 16320, Note_on_c, 9, 44, 118
11, 16320, Note_on_c, 9, 35, 109
11, 16320, Note_on_c, 9, 42, 73
11, 16334, Control_c, 9, 123, 0
11, 16338, Note_on_c, 9, 44, 0
11, 16340, Note_on_c, 9, 42, 0
11, 16340, Control_c, 9, 123, 0
11, 16340, Control_c, 9, 123, 0
11, 16342, Note_on_c, 9, 35, 0
11, 16350, Note_on_c, 9, 44, 83
11, 16367, Control_c, 9, 123, 0
11, 16368, Note_on_c, 9, 44, 0
11, 16380, Note_on_c, 9, 42, 90
11, 16380, Note_on_c, 9, 42, 65
11, 16389, Control_c, 9, 123, 0
11, 16392, Note_on_c, 9, 42, 0
11, 16395, Note_on_c, 9, 42, 0
11, 16395, Note_on_c, 9, 44, 90
11, 16397, Control_c, 9, 123, 0
11, 16410, Note_on_c, 9, 44, 0
11, 16410, Note_on_c, 9, 44, 95
11, 16418, Control_c, 9, 123, 0
11, 16428, Control_c, 9, 123, 0
11, 16429, Note_on_c, 9, 44, 0
11, 16440, Note_on_c, 9, 42, 127
11, 16440, Note_on_c, 9, 40, 109
11, 16440, Note_on_c, 9, 42, 127
11, 16455, Control_c, 9, 123, 0
11, 16460, Note_on_c, 9, 42, 0
11, 16460, Note_on_c, 9, 42, 0
11, 16460, Control_c, 9, 123, 0
11, 16463, Control_c, 9, 123, 0
11, 16465, Note_on_c, 9, 40, 0
11, 16470, Note_on_c, 9, 44, 90
11, 16470, Note_on_c, 9, 44, 73
11, 16479, Control_c, 9, 123, 0
11, 16483, Note_on_c, 9, 44, 0
11, 16488, Control_c, 9, 123, 0
11, 16489, Note_on_c, 9, 44, 0
11, 16500, Note_on_c, 9, 42, 57
11, 16512, Note_on_c, 9, 42, 0
11, 16513, Control_c, 9, 123, 0
11, 16530, Note_on_c, 9, 44, 95
11, 16530, Note_on_c, 9, 44, 95
11, 16543, Control_c, 9, 123, 0
11, 16545, Note_on_c, 9, 44, 0
11, 16545, Control_c, 9, 123, 0
11, 16548, Note_on_c, 9, 44, 0
11, 16560, Note_on_c, 9, 42, 106
11, 16560, Note_on_c, 9, 42, 73
11, 16575, Note_on_c, 9, 42, 0
11, 16575, Control_c, 9, 123, 0
11, 16575, Control_c, 9, 123, 0
11, 16576, Note_on_c, 9, 42, 0
11, 16590, Note_on_c, 9, 46, 126
11, 16590, Note_on_c, 9, 44, 90
11, 16605, Control_c, 9, 123, 0
11, 16607, Note_on_c, 9, 46, 0
11, 16607, Control_c, 9, 123, 0
11, 16608, Note_on_c, 9, 44, 0
11, 16620, Note_on_c, 9, 42, 95
11, 16620, Note_on_c, 9, 42, 67
11, 16632, Control_c, 9, 123, 0
11, 16634, Note_on_c, 9, 42, 0
11, 16635, Control_c, 9, 123, 0
11, 16637, Note_on_c, 9, 42, 0
11, 16650, Note_on_c, 9, 44, 80
11, 16650, Note_on_c, 9, 44, 100
11, 16660, Control_c, 9, 123, 0
11, 16661, Note_on_c, 9, 44, 0
11, 16668, Note_on_c, 9, 44, 0
11, 16669, Control_c, 9, 123, 0
11, 16680, Note_on_c, 9, 42, 127
11, 16680, Note_on_c, 9, 42, 100
11, 16680, Note_on_c, 9, 40, 113
11, 16695, Note_on_c, 9, 42, 0
11, 16695, Control_c, 9, 123, 0
11, 16699, Control_c, 9, 123, 0
11, 16700, Note_on_c, 9, 42, 0
11, 16704, Note_on_c, 9, 40, 0
11, 16704, Control_c, 9, 123, 0
11, 16710, Note_on_c, 9, 44, 95
11, 16710, Note_on_c, 9, 44, 75
11, 16720, Note_on_c, 9, 44, 0
11, 16720, Control_c, 9, 123, 0
11, 16726, Control_c, 9, 123, 0
11, 16729, Note_on_c, 9, 44, 0
11, 16740, Note_on_c, 9, 42, 77
11, 16740, Note_on_c, 9, 42, 65
11, 16753, Control_c, 9, 123, 0
11, 16754, Note_on_c, 9, 42, 0
11, 16757, Control_c, 9, 123, 0
11, 16761, Note_on_c, 9, 42, 0
11, 16770, Note_on_c, 9, 46, 126
11, 16770, Note_on_c, 9, 46, 126
11, 16770, Note_on_c, 9, 35, 68
11, 16780, Note_on_c, 9, 35, 0
11, 16780, Control_c, 9, 123, 0
11, 16785, Control_c, 9, 123, 0
11, 16787, Control_c, 9, 123, 0
11, 16788, Note_on_c, 9, 46, 0
11, 16789, Note_on_c, 9, 46, 0
11, 16800, Note_on_c, 9, 42, 112
11, 16800, Note_on_c, 9, 42, 69
11, 16800, Note_on_c, 9, 35, 100
11, 16818, Control_c, 9, 123, 0
11, 16818, Control_c, 9, 123, 0
11, 16819, Control_c, 9, 123, 0
11, 16820, Note_on_c, 9, 42, 0
11, 16821, Note_on_c, 9, 35, 0
11, 16822, Note_on_c, 9, 42, 0
11, 16830, Note_on_c, 9, 44, 86
11, 16830, Note_on_c, 9, 46, 86
11, 16843, Control_c, 9, 123, 0
11, 16845, Note_on_c, 9, 44, 0
11, 16847, Control_c, 9, 123, 0
11, 16852, Note_on_c, 9, 46, 0
11, 16860, Note_on_c, 9, 42, 73
11, 16860, Note_on_c, 9, 42, 63
11, 16867, Note_on_c, 9, 42, 0
11, 16867, Control_c, 9, 123, 0
11, 16875, Control_c, 9, 123, 0
11, 16876, Note_on_c, 9, 42, 0
11, 16890, Note_on_c, 9, 44, 95
11, 16890, Note_on_c, 9, 44, 73
11, 16900, Control_c, 9, 123, 0
11, 16903, Note_on_c, 9, 44, 0
11, 16903, Control_c, 9, 123, 0
11, 16909, Note_on_c, 9, 44, 0
11, 16920, Note_on_c, 9, 42, 127
11, 16920, Note_on_c, 9, 42, 90
11, 16920, Note_on_c, 9, 40, 109
11, 16935, Control_c, 9, 123, 0
11, 16938, Note_on_c, 9, 42, 0
11, 16939, Control_c, 9, 123, 0
11, 16944, Note_on_c, 9, 42, 0
11, 16945, Note_on_c, 9, 40, 0
11, 16947, Control_c, 9, 123, 0
11, 16950, Note_on_c, 9, 44, 86
11, 16950, Note_on_c, 9, 44, 52
11, 16960, Control_c, 9, 123, 0
11, 16962, Note_on_c, 9, 44, 0
11, 16962, Control_c, 9, 123, 0
11, 16966, Note_on_c, 9, 44, 0
11, 16980, Note_on_c, 9, 42, 53
11, 16980, Note_on_c, 9, 42, 77
11, 16993, Note_on_c, 9, 42, 0
11, 16996, Control_c, 9, 123, 0
11, 16999, Note_on_c, 9, 42, 0
11, 17000, Control_c, 9, 123, 0
11, 17010, Note_on_c, 9, 44, 86
11, 17010, Note_on_c, 9, 44, 80
11, 17027, Note_on_c, 9, 44, 0
11, 17027, Control_c, 9, 123, 0
11, 17030, Control_c, 9, 123, 0
11, 17031, Note_on_c, 9, 44, 0
11, 17040, Note_on_c, 9, 42, 65
11, 17040, Note_on_c, 9, 42, 126
11, 17058, Note_on_c, 9, 42, 0
11, 17059, Control_c, 9, 123, 0
11, 17060, Note_on_c, 9, 42, 0
11, 17061, Control_c, 9, 123, 0
11, 17070, Note_on_c, 9, 44, 100
11, 17070, Note_on_c, 9, 44, 95
11, 17084, Note_on_c, 9, 44, 0
11, 17085, Control_c, 9, 123, 0
11, 17090, Control_c, 9, 123, 0
11, 17092, Note_on_c, 9, 44, 0
11, 17100, Note_on_c, 9, 42, 51
11, 17100, Note_on_c, 9, 42, 77
11, 17111, Control_c, 9, 123, 0
11, 17112, Note_on_c, 9, 42, 0
11, 17116, Note_on_c, 9, 42, 0
11, 17117, Control_c, 9, 123, 0
11, 17130, Note_on_c, 9, 44, 80
11, 17130, Note_on_c, 9, 44, 100
11, 17146, Control_c, 9, 123, 0
11, 17146, Control_c, 9, 123, 0
11, 17147, Note_on_c, 9, 44, 0
11, 17148, Note_on_c, 9, 44, 0
11, 17160, Note_on_c, 9, 42, 127
11, 17160, Note_on_c, 9, 42, 95
11, 17160, Note_on_c, 9, 40, 117
11, 17177, Control_c, 9, 123, 0
11, 17178, Note_on_c, 9, 42, 0
11, 17178, Control_c, 9, 123, 0
11, 17180, Note_on_c, 9, 42, 0
11, 17188, Note_on_c, 9, 40, 0
11, 17190, Note_on_c, 9, 44, 83
11, 17190, Note_on_c, 9, 44, 67
11, 17190, Control_c, 9, 123, 0
11, 17199, Control_c, 9, 123, 0
11, 17201, Control_c, 9, 123, 0
11, 17203, Note_on_c, 9, 44, 0
11, 17207, Note_on_c, 9, 44, 0
11, 17220, Note_on_c, 9, 42, 55
11, 17220, Note_on_c, 9, 42, 83
11, 17225, Note_on_c, 9, 42, 0
11, 17226, Control_c, 9, 123, 0
11, 17231, Control_c, 9, 123, 0
11, 17233, Note_on_c, 9, 42, 0
11, 17235, Note_on_c, 9, 44, 86
11, 17243, Control_c, 9, 123, 0
11, 17246, Note_on_c, 9, 44, 0
11, 17250, Note_on_c, 9, 42, 127
11, 17250, Note_on_c, 9, 44, 71
11, 17250, Note_on_c, 9, 35, 74
11, 17258, Control_c, 9, 123, 0
11, 17259, Control_c, 9, 123, 0
11, 17260, Note_on_c, 9, 35, 0
11, 17261, Control_c, 9, 123, 0
11, 17264, Note_on_c, 9, 42, 0
11, 17265, Note_on_c, 9, 44, 112
11, 17267, Note_on_c, 9, 44, 0
11, 17280, Note_on_c, 9, 42, 80
11, 17280, Note_on_c, 9, 35, 76
11, 17281, Note_on_c, 9, 44, 0
11, 17286, Control_c, 9, 123, 0
11, 17288, Note_on_c, 9, 35, 0
11, 17288, Control_c, 9, 123, 0
11, 17292, Control_c, 9, 123, 0
11, 17297, Note_on_c, 9, 42, 0
11, 17310, Note_on_c, 9, 44, 83
11, 17310, Note_on_c, 9, 35, 95
11, 17320, Control_c, 9, 123, 0
11, 17324, Control_c, 9, 123, 0
11, 17326, Note_on_c, 9, 44, 0
11, 17328, Note_on_c, 9, 35, 0
11, 17340, Note_on_c, 9, 42, 112
11, 17340, Note_on_c, 9, 42, 54
11, 17349, Control_c, 9, 123, 0
11, 17352, Note_on_c, 9, 42, 0
11, 17353, Note_on_c, 9, 42, 0
11, 17353, Control_c, 9, 123, 0
11, 17370, Note_on_c, 9, 44, 95
11, 17370, Note_on_c, 9, 44, 71
11, 17381, Control_c, 9, 123, 0
11, 17384, Note_on_c, 9, 44, 0
11, 17388, Control_c, 9, 123, 0
11, 17389, Note_on_c, 9, 44, 0
11, 17400, Note_on_c, 9, 42, 127
11, 17400, Note_on_c, 9, 40, 109
11, 17400, Note_on_c, 9, 42, 127
11, 17416, Note_on_c, 9, 42, 0
11, 17416, Control_c, 9, 123, 0
11, 17417, Control_c, 9, 123, 0
11, 17418, Note_on_c, 9, 42, 0
11, 17430, Note_on_c, 9, 44, 90
11, 17430, Note_on_c, 9, 44, 65
11, 17438, Note_on_c, 9, 40, 0
11, 17438, Control_c, 9, 123, 0
11, 17440, Control_c, 9, 123, 0
11, 17442, Note_on_c, 9, 44, 0
11, 17443, Control_c, 9, 123, 0
11, 17445, Note_on_c, 9, 44, 0
11, 17460, Note_on_c, 9, 42, 75
11, 17460, Note_on_c, 9, 44, 77
11, 17460, Note_on_c, 9, 42, 59
11, 17461, Control_c, 9, 123, 0
11, 17466, Note_on_c, 9, 42, 0
11, 17474, Note_on_c, 9, 44, 0
11, 17474, Note_on_c, 9, 42, 0
11, 17476, Control_c, 9, 123, 0
11, 17481, Control_c, 9, 123, 0
11, 17490, Note_on_c, 9, 44, 86
11, 17490, Note_on_c, 9, 42, 106
11, 17499, Control_c, 9, 123, 0
11, 17504, Note_on_c, 9, 44, 0
11, 17505, Note_on_c, 9, 42, 0
11, 17505, Control_c, 9, 123, 0
11, 17520, Note_on_c, 9, 44, 112
11, 17520, Note_on_c, 9, 42, 106
11, 17535, Note_on_c, 9, 42, 0
11, 17535, Control_c, 9, 123, 0
11, 17537, Control_c, 9, 123, 0
11, 17544, Note_on_c, 9, 44, 0
11, 17550, Note_on_c, 9, 46, 126
11, 17567, Control_c, 9, 123, 0
11, 17568, Note_on_c, 9, 46, 0
11, 17580, Note_on_c, 9, 42, 71
11, 17580, Note_on_c, 9, 42, 67
11, 17585, Control_c, 9, 123, 0
11, 17587, Control_c, 9, 123, 0
11, 17589, Note_on_c, 9, 42, 0
11, 17595, Note_on_c, 9, 42, 0
11, 17610, Note_on_c, 9, 44, 75
11, 17610, Note_on_c, 9, 44, 75
11, 17617, Control_c, 9, 123, 0
11, 17623, Control_c, 9, 123, 0
11, 17625, Note_on_c, 9, 44, 0
11, 17627, Note_on_c, 9, 44, 0
11, 17640, Note_on_c, 9, 42, 127
11, 17640, Note_on_c, 9, 42, 127
11, 17640, Note_on_c, 9, 40, 122
11, 17654, Control_c, 9, 123, 0
11, 17657, Control_c, 9, 123, 0
11, 17658, Note_on_c, 9, 42, 0
11, 17660, Note_on_c, 9, 42, 0
11, 17661, Control_c, 9, 123, 0
11, 17665, Note_on_c, 9, 40, 0
11, 17670, Note_on_c, 9, 46, 126
11, 17670, Note_on_c, 9, 44, 86
11, 17679, Control_c, 9, 123, 0
11, 17684, Control_c, 9, 123, 0
11, 17685, Note_on_c, 9, 46, 0
11, 17685, Note_on_c, 9, 44, 0
11, 17700, Note_on_c, 9, 42, 106
11, 17700, Note_on_c, 9, 42, 57
11, 17713, Control_c, 9, 123, 0
11, 17713, Control_c, 9, 123, 0
11, 17714, Note_on_c, 9, 42, 0
11, 17717, Note_on_c, 9, 42, 0
11, 17730, Note_on_c, 9, 44, 95
11, 17730, Note_on_c, 9, 46, 112
11, 17730, Note_on_c, 9, 35, 80
11, 17742, Control_c, 9, 123, 0
11, 17743, Control_c, 9, 123, 0
11, 17745, Note_on_c, 9, 35, 0
11, 17749, Note_on_c, 9, 44, 0
11, 17749, Note_on_c, 9, 46, 0
11, 17749, Control_c, 9, 123, 0
11, 17760, Note_on_c, 9, 42, 80
11, 17760, Note_on_c, 9, 35, 103
11, 17760, Note_on_c, 9, 42, 127
11, 17775, Control_c, 9, 123, 0
11, 17778, Note_on_c, 9, 42, 0
11, 17779, Control_c, 9, 123, 0
11, 17781, Note_on_c, 9, 42, 0
11, 17783, Control_c, 9, 123, 0
11, 17785, Note_on_c, 9, 35, 0
11, 17790, Note_on_c, 9, 44, 71
11, 17790, Note_on_c, 9, 44, 73
11, 17802, Note_on_c, 9, 44, 0
11, 17803, Control_c, 9, 123, 0
11, 17803, Control_c, 9, 123, 0
11, 17809, Note_on_c, 9, 44, 0
11, 17820, Note_on_c, 9, 42, 55
11, 17820, Note_on_c, 9, 42, 64
11, 17832, Control_c, 9, 123, 0
11, 17834, Note_on_c, 9, 42, 0
11, 17835, Note_on_c, 9, 42, 0
11, 17836, Control_c, 9, 123, 0
11, 17850, Note_on_c, 9, 44, 83
11, 17850, Note_on_c, 9, 44, 100
11, 17863, Control_c, 9, 123, 0
11, 17865, Note_on_c, 9, 44, 0
11, 17866, Control_c, 9, 123, 0
11, 17868, Note_on_c, 9, 44, 0
11, 17880, Note_on_c, 9, 42, 127
11, 17880, Note_on_c, 9, 40, 109
11, 17880, Note_on_c, 9, 42, 127
11, 17895, Control_c, 9, 123, 0
11, 17896, Note_on_c, 9, 42, 0
11, 17898, Note_on_c, 9, 42, 0
11, 17899, Control_c, 9, 123, 0
11, 17905, Control_c, 9, 123, 0
11, 17906, Note_on_c, 9, 40, 0
11, 17910, Note_on_c, 9, 44, 77
11, 17910, Note_on_c, 9, 44, 80
11, 17922, Note_on_c, 9, 44, 0
11, 17924, Control_c, 9, 123, 0
11, 17925, Note_on_c, 9, 44, 0
11, 17925, Control_c, 9, 123, 0
11, 17940, Note_on_c, 9, 42, 77
11, 17940, Note_on_c, 9, 42, 51
11, 17952, Note_on_c, 9, 42, 0
11, 17954, Control_c, 9, 123, 0
11, 17955, Note_on_c, 9, 42, 0
11, 17955, Control_c, 9, 123, 0
11, 17970, Note_on_c, 9, 44, 86
11, 17970, Note_on_c, 9, 44, 80
11, 17982, Control_c, 9, 123, 0
11, 17984, Note_on_c, 9, 44, 0
11, 17984, Control_c, 9, 123, 0
11, 17986, Note_on_c, 9, 44, 0
11, 18000, Note_on_c, 9, 42, 126
11, 18000, Note_on_c, 9, 42, 58
11, 18014, Control_c, 9, 123, 0
11, 18016, Note_on_c, 9, 42, 0
11, 18017, Note_on_c, 9, 42, 0
11, 18017, Control_c, 9, 123, 0
11, 18030, Note_on_c, 9, 44, 77
11, 18030, Note_on_c, 9, 44, 71
11, 18039, Control_c, 9, 123, 0
11, 18043, Note_on_c, 9, 44, 0
11, 18044, Control_c, 9, 123, 0
11, 18048, Note_on_c, 9, 44, 0
11, 18060, Note_on_c, 9, 42, 90
11, 18060, Note_on_c, 9, 42, 59
11, 18073, Control_c, 9, 123, 0
11, 18076, Note_on_c, 9, 42, 0
11, 18077, Control_c, 9, 123, 0
11, 18079, Note_on_c, 9, 42, 0
11, 18090, Note_on_c, 9, 44, 95
11, 18090, Note_on_c, 9, 44, 80
11, 18100, Control_c, 9, 123, 0
11, 18101, Control_c, 9, 123, 0
11, 18105, Note_on_c, 9, 44, 0
11, 18106, Note_on_c, 9, 44, 0
11, 18120, Note_on_c, 9, 42, 112
11, 18120, Note_on_c, 9, 40, 109
11, 18120, Note_on_c, 9, 42, 106
11, 18133, Control_c, 9, 123, 0
11, 18138, Note_on_c, 9, 42, 0
11, 18138, Control_c, 9, 123, 0
11, 18139, Note_on_c, 9, 42, 0
11, 18140, Control_c, 9, 123, 0
11, 18147, Note_on_c, 9, 40, 0
11, 18150, Note_on_c, 9, 44, 75
11, 18150, Note_on_c, 9, 44, 71
11, 18159, Control_c, 9, 123, 0
11, 18161, Control_c, 9, 123, 0
11, 18165, Note_on_c, 9, 44, 0
11, 18166, Note_on_c, 9, 44, 0
11, 18180, Note_on_c, 9, 42, 106
11, 18180, Note_on_c, 9, 42, 57
11, 18186, Note_on_c, 9, 42, 0
11, 18186, Control_c, 9, 123, 0
11, 18192, Control_c, 9, 123, 0
11, 18195, Note_on_c, 9, 44, 100
11, 18197, Note_on_c, 9, 42, 0
11, 18207, Note_on_c, 9, 44, 0
11, 18210, Note_on_c, 9, 42, 127
11, 18210, Note_on_c, 9, 44, 95
11, 18210, Note_on_c, 9, 35, 58
11, 18218, Control_c, 9, 123, 0
11, 18222, Note_on_c, 9, 35, 0
11, 18222, Control_c, 9, 123, 0
11, 18223, Control_c, 9, 123, 0
11, 18224, Note_on_c, 9, 42, 0
11, 18228, Note_on_c, 9, 44, 0
11, 18240, Note_on_c, 9, 44, 118
11, 18240, Note_on_c, 9, 35, 79
11, 18240, Note_on_c, 9, 42, 86
11, 18250, Control_c, 9, 123, 0
11, 18252, Note_on_c, 9, 35, 0
11, 18254, Control_c, 9, 123, 0
11, 18257, Control_c, 9, 123, 0
11, 18258, Note_on_c, 9, 44, 0
11, 18259, Note_on_c, 9, 42, 0
11, 18270, Note_on_c, 9, 35, 88
11, 18270, Note_on_c, 9, 44, 75
11, 18282, Control_c, 9, 123, 0
11, 18285, Note_on_c, 9, 44, 0
11, 18288, Control_c, 9, 123, 0
11, 18292, Note_on_c, 9, 35, 0
11, 18300, Note_on_c, 9, 42, 118
11, 18300, Note_on_c, 9, 42, 50
11, 18311, Control_c, 9, 123, 0
11, 18312, Note_on_c, 9, 42, 0
11, 18313, Control_c, 9, 123, 0
11, 18317, Note_on_c, 9, 42, 0
11, 18330, Note_on_c, 9, 44, 86
11, 18330, Note_on_c, 9, 44, 77
11, 18344, Control_c, 9, 123, 0
11, 18346, Control_c, 9, 123, 0
11, 18347, Note_on_c, 9, 44, 0
11, 18350, Note_on_c, 9, 44, 0
11, 18360, Note_on_c, 9, 42, 127
11, 18360, Note_on_c, 9, 42, 100
11, 18360, Note_on_c, 9, 40, 109
11, 18377, Control_c, 9, 123, 0
11, 18378, Note_on_c, 9, 42, 0
11, 18378, Control_c, 9, 123, 0
11, 18379, Note_on_c, 9, 42, 0
11, 18387, Note_on_c, 9, 40, 0
11, 18387, Control_c, 9, 123, 0
11, 18390, Note_on_c, 9, 44, 80
11, 18390, Note_on_c, 9, 44, 73
11, 18400, Control_c, 9, 123, 0
11, 18404, Note_on_c, 9, 44, 0
11, 18405, Note_on_c, 9, 44, 0
11, 18405, Control_c, 9, 123, 0
11, 18419, Control_c, 9, 123, 0
11, 18420, Note_on_c, 9, 42, 80
11, 18420, Note_on_c, 9, 42, 67
11, 18420, Note_on_c, 9, 44, 77
11, 18427, Note_on_c, 9, 42, 0
11, 18432, Note_on_c, 9, 44, 0
11, 18438, Note_on_c, 9, 42, 0
11, 18438, Control_c, 9, 123, 0
11, 18439, Control_c, 9, 123, 0
11, 18450, Note_on_c, 9, 44, 100
11, 18450, Note_on_c, 9, 42, 75
11, 18456, Control_c, 9, 123, 0
11, 18464, Note_on_c, 9, 42, 0
11, 18465, Note_on_c, 9, 44, 0
11, 18465, Control_c, 9, 123, 0
11, 18480, Note_on_c, 9, 44, 106
11, 18480, Note_on_c, 9, 42, 126
11, 18493, Control_c, 9, 123, 0
11, 18498, Note_on_c, 9, 44, 0
11, 18498, Note_on_c, 9, 42, 0
11, 18500, Control_c, 9, 123, 0
11, 18510, Note_on_c, 9, 44, 86
11, 18524, Control_c, 9, 123, 0
11, 18525, Note_on_c, 9, 44, 0
11, 18540, Note_on_c, 9, 42, 67
11, 18540, Note_on_c, 9, 42, 83
11, 18551, Control_c, 9, 123, 0
11, 18554, Note_on_c, 9, 42, 0
11, 18557, Control_c, 9, 123, 0
11, 18558, Note_on_c, 9, 42, 0
11, 18570, Note_on_c, 9, 44, 83
11, 18570, Note_on_c, 9, 44, 65
11, 18579, Control_c, 9, 123, 0
11, 18579, Control_c, 9, 123, 0
11, 18583, Note_on_c, 9, 44, 0
11, 18586, Note_on_c, 9, 44, 0
11, 18600, Note_on_c, 9, 42, 127
11, 18600, Note_on_c, 9, 40, 109
11, 18600, Note_on_c, 9, 42, 127
11, 18614, Control_c, 9, 123, 0
11, 18615, Control_c, 9, 123, 0
11, 18618, Note_on_c, 9, 42, 0
11, 18618, Note_on_c, 9, 42, 0
11, 18620, Control_c, 9, 123, 0
11, 18624, Note_on_c, 9, 40, 0
11, 18630, Note_on_c, 9, 44, 90
11, 18630, Note_on_c, 9, 44, 77
11, 18635, Control_c, 9, 123, 0
11, 18639, Control_c, 9, 123, 0
11, 18641, Note_on_c, 9, 44, 0
11, 18643, Note_on_c, 9, 44, 0
11, 18660, Note_on_c, 9, 42, 86
11, 18660, Note_on_c, 9, 42, 63
11, 18670, Control_c, 9, 123, 0
11, 18672, Control_c, 9, 123, 0
11, 18675, Note_on_c, 9, 42, 0
11, 18676, Note_on_c, 9, 42, 0
11, 18690, Note_on_c, 9, 46, 118
11, 18690, Note_on_c, 9, 46, 106
11, 18690, Note_on_c, 9, 35, 66
11, 18702, Control_c, 9, 123, 0
11, 18702, Control_c, 9, 123, 0
11, 18702, Control_c, 9, 123, 0
11, 18705, Note_on_c, 9, 35, 0
11, 18709, Note_on_c, 9, 46, 0
11, 18710, Note_on_c, 9, 46, 0
11, 18720, Note_on_c, 9, 42, 126
11, 18720, Note_on_c, 9, 42, 60
11, 18720, Note_on_c, 9, 35, 95
11, 18732, Control_c, 9, 123, 0
11, 18734, Control_c, 9, 123, 0
11, 18738, Note_on_c, 9, 42, 0
11, 18740, Note_on_c, 9, 42, 0
11, 18742, Control_c, 9, 123, 0
11, 18744, Note_on_c, 9, 35, 0
11, 18750, Note_on_c, 9, 44, 90
11, 18750, Note_on_c, 9, 44, 80
11, 18760, Control_c, 9, 123, 0
11, 18760, Control_c, 9, 123, 0
11, 18764, Note_on_c, 9, 44, 0
11, 18766, Note_on_c, 9, 44, 0
11, 18780, Note_on_c, 9, 42, 69
11, 18780, Note_on_c, 9, 42, 69
11, 18793, Control_c, 9, 123, 0
11, 18793, Control_c, 9, 123, 0
11, 18795, Note_on_c, 9, 42, 0
11, 18796, Note_on_c, 9, 42, 0
11, 18810, Note_on_c, 9, 44, 95
11, 18810, Note_on_c, 9, 44, 86
11, 18823, Control_c, 9, 123, 0
11, 18824, Note_on_c, 9, 44, 0
11, 18825, Control_c, 9, 123, 0
11, 18828, Note_on_c, 9, 44, 0
11, 18840, Note_on_c, 9, 42, 126
11, 18840, Note_on_c, 9, 40, 106
11, 18840, Note_on_c, 9, 42, 126
11, 18857, Control_c, 9, 123, 0
11, 18860, Note_on_c, 9, 42, 0
11, 18861, Note_on_c, 9, 42, 0
11, 18862, Control_c, 9, 123, 0
11, 18869, Control_c, 9, 123, 0
11, 18870, Note_on_c, 9, 44, 83
11, 18870, Note_on_c, 9, 44, 67
11, 18872, Note_on_c, 9, 40, 0
11, 18884, Control_c, 9, 123, 0
11, 18885, Note_on_c, 9, 44, 0
11, 18887, Note_on_c, 9, 44, 0
11, 18887, Control_c, 9, 123, 0
11, 18900, Note_on_c, 9, 42, 44
11, 18900, Note_on_c, 9, 42, 80
11, 18916, Note_on_c, 9, 42, 0
11, 18918, Note_on_c, 9, 42, 0
11, 18918, Control_c, 9, 123, 0
11, 18921, Control_c, 9, 123, 0
11, 18930, Note_on_c, 9, 44, 86
11, 18930, Note_on_c, 9, 44, 106
11, 18947, Note_on_c, 9, 44, 0
11, 18947, Control_c, 9, 123, 0
11, 18948, Note_on_c, 9, 44, 0
11, 18949, Control_c, 9, 123, 0
11, 18960, Note_on_c, 9, 42, 100
11, 18960, Note_on_c, 9, 42, 106
11, 18977, Note_on_c, 9, 42, 0
11, 18979, Control_c, 9, 123, 0
11, 18980, Note_on_c, 9, 42, 0
11, 18981, Control_c, 9, 123, 0
11, 18990, Note_on_c, 9, 44, 95
11, 18990, Note_on_c, 9, 44, 67
11, 19003, Control_c, 9, 123, 0
11, 19004, Note_on_c, 9, 44, 0
11, 19006, Control_c, 9, 123, 0
11, 19007, Note_on_c, 9, 44, 0
11, 19020, Note_on_c, 9, 42, 100
11, 19020, Note_on_c, 9, 42, 60
11, 19032, Control_c, 9, 123, 0
11, 19034, Control_c, 9, 123, 0
11, 19035, Note_on_c, 9, 42, 0
11, 19036, Note_on_c, 9, 42, 0
11, 19050, Note_on_c, 9, 44, 90
11, 19050, Note_on_c, 9, 44, 95
11, 19065, Control_c, 9, 123, 0
11, 19066, Note_on_c, 9, 44, 0
11, 19066, Control_c, 9, 123, 0
11, 19067, Note_on_c, 9, 44, 0
11, 19080, Note_on_c, 9, 42, 127
11, 19080, Note_on_c, 9, 40, 117
11, 19080, Note_on_c, 9, 42, 127
11, 19096, Control_c, 9, 123, 0
11, 19097, Note_on_c, 9, 42, 0
11, 19099, Note_on_c, 9, 42, 0
11, 19100, Control_c, 9, 123, 0
11, 19101, Control_c, 9, 123, 0
11, 19102, Note_on_c, 9, 40, 0
11, 19110, Note_on_c, 9, 44, 77
11, 19110, Note_on_c, 9, 44, 69
11, 19118, Control_c, 9, 123, 0
11, 19122, Note_on_c, 9, 44, 0
11, 19123, Control_c, 9, 123, 0
11, 19125, Note_on_c, 9, 44, 0
11, 19140, Note_on_c, 9, 50, 92
11, 19140, Note_on_c, 9, 42, 106
11, 19140, Note_on_c, 9, 42, 52
11, 19147, Note_on_c, 9, 50, 0
11, 19147, Control_c, 9, 123, 0
11, 19147, Control_c, 9, 123, 0
11, 19148, Note_on_c, 9, 42, 0
11, 19155, Note_on_c, 9, 50, 80
11, 19155, Note_on_c, 9, 44, 86
11, 19158, Note_on_c, 9, 42, 0
11, 19159, Control_c, 9, 123, 0
11, 19160, Control_c, 9, 123, 0
11, 19164, Note_on_c, 9, 44, 0
11, 19165, Control_c, 9, 123, 0
11, 19168, Note_on_c, 9, 50, 0
11, 19170, Note_on_c, 9, 42, 118
11, 19170, Note_on_c, 9, 44, 75
11, 19170, Note_on_c, 9, 35, 67
11, 19170, Note_on_c, 9, 50, 77
11, 19179, Note_on_c, 9, 50, 0
11, 19181, Note_on_c, 9, 35, 0
11, 19181, Control_c, 9, 123, 0
11, 19183, Control_c, 9, 123, 0
11, 19183, Control_c, 9, 123, 0
11, 19186, Note_on_c, 9, 42, 0
11, 19186, Note_on_c, 9, 44, 0
11, 19186, Control_c, 9, 123, 0
11, 19200, Note_on_c, 9, 50, 106
11, 19200, Note_on_c, 9, 44, 118
11, 19200, Note_on_c, 9, 42, 86
11, 19200, Note_on_c, 9, 35, 100
11, 19212, Note_on_c, 9, 35, 0
11, 19213, Control_c, 9, 123, 0
11, 19217, Control_c, 9, 123, 0
11, 19218, Note_on_c, 9, 44, 0
11, 19218, Note_on_c, 9, 42, 0
11, 19218, Control_c, 9, 123, 0
11, 19230, Note_on_c, 9, 46, 118
11, 19230, Note_on_c, 9, 35, 113
11, 19236, Control_c, 9, 123, 0
11, 19237, Note_on_c, 9, 50, 0
11, 19246, Note_on_c, 9, 46, 0
11, 19247, Control_c, 9, 123, 0
11, 19248, Note_on_c, 9, 35, 0
11, 19250, Control_c, 9, 123, 0
11, 19260, Note_on_c, 9, 42, 86
11, 19260, Note_on_c, 9, 42, 69
11, 19273, Control_c, 9, 123, 0
11, 19274, Control_c, 9, 123, 0
11, 19275, Note_on_c, 9, 42, 0
11, 19278, Note_on_c, 9, 42, 0
11, 19290, Note_on_c, 9, 50, 73
11, 19290, Note_on_c, 9, 44, 80
11, 19290, Note_on_c, 9, 44, 71
11, 19300, Control_c, 9, 123, 0
11, 19301, Control_c, 9, 123, 0
11, 19303, Note_on_c, 9, 44, 0
11, 19303, Note_on_c, 9, 44, 0
11, 19305, Control_c, 9, 123, 0
11, 19308, Note_on_c, 9, 50, 0
11, 19320, Note_on_c, 9, 48, 103
11, 19320, Note_on_c, 9, 42, 127
11, 19320, Note_on_c, 9, 42, 127
11, 19320, Note_on_c, 9, 40, 109
11, 19336, Note_on_c, 9, 48, 0
11, 19336, Control_c, 9, 123, 0
11, 19336, Control_c, 9, 123, 0
11, 19337, Control_c, 9, 123, 0
11, 19338, Note_on_c, 9, 42, 0
11, 19339, Note_on_c, 9, 42, 0
11, 19342, Note_on_c, 9, 40, 0
11, 19345, Control_c, 9, 123, 0
11, 19350, Note_on_c, 9, 48, 80
11, 19350, Note_on_c, 9, 44, 83
11, 19350, Note_on_c, 9, 44, 75
11, 19361, Control_c, 9, 123, 0
11, 19362, Note_on_c, 9, 44, 0
11, 19363, Control_c, 9, 123, 0
11, 19365, Note_on_c, 9, 48, 0
11, 19365, Control_c, 9, 123, 0
11, 19366, Note_on_c, 9, 44, 0
11, 19380, Note_on_c, 9, 42, 69
11, 19380, Note_on_c, 9, 44, 80
11, 19380, Note_on_c, 9, 48, 55
11, 19382, Control_c, 9, 123, 0
11, 19386, Note_on_c, 9, 42, 0
11, 19389, Note_on_c, 9, 48, 0
11, 19391, Note_on_c, 9, 44, 0
11, 19391, Control_c, 9, 123, 0
11, 19410, Note_on_c, 9, 48, 68
11, 19410, Note_on_c, 9, 44, 95
11, 19410, Note_on_c, 9, 42, 86
11, 19417, Control_c, 9, 123, 0
11, 19423, Control_c, 9, 123, 0
11, 19423, Control_c, 9, 123, 0
11, 19424, Note_on_c, 9, 44, 0
11, 19425, Note_on_c, 9, 48, 0
11, 19425, Note_on_c, 9, 42, 0
11, 19440, Note_on_c, 9, 45, 95
11, 19440, Note_on_c, 9, 44, 118
11, 19440, Note_on_c, 9, 42, 95
11, 19455, Note_on_c, 9, 42, 0
11, 19455, Control_c, 9, 123, 0
11, 19456, Control_c, 9, 123, 0
11, 19456, Control_c, 9, 123, 0
11, 19457, Note_on_c, 9, 45, 0
11, 19464, Note_on_c, 9, 44, 0
11, 19470, Note_on_c, 9, 45, 82
11, 19470, Note_on_c, 9, 46, 126
11, 19487, Control_c, 9, 123, 0
11, 19488, Note_on_c, 9, 46, 0
11, 19489, Control_c, 9, 123, 0
11, 19491, Note_on_c, 9, 45, 0
11, 19500, Note_on_c, 9, 42, 71
11, 19500, Note_on_c, 9, 42, 126
11, 19500, Note_on_c, 9, 45, 92
11, 19511, Note_on_c, 9, 42, 0
11, 19511, Control_c, 9, 123, 0
11, 19515, Control_c, 9, 123, 0
11, 19517, Note_on_c, 9, 45, 0
11, 19518, Note_on_c, 9, 42, 0
11, 19518, Control_c, 9, 123, 0
11, 19530, Note_on_c, 9, 45, 88
11, 19530, Note_on_c, 9, 44, 80
11, 19530, Note_on_c, 9, 44, 80
11, 19541, Control_c, 9, 123, 0
11, 19542, Control_c, 9, 123, 0
11, 19545, Note_on_c, 9, 44, 0
11, 19545, Note_on_c, 9, 44, 0
11, 19550, Control_c, 9, 123, 0
11, 19552, Note_on_c, 9, 45, 0
11, 19560, Note_on_c, 9, 41, 79
11, 19560, Note_on_c, 9, 42, 127
11, 19560, Note_on_c, 9, 40, 106
11, 19560, Note_on_c, 9, 42, 112
11, 19568, Control_c, 9, 123, 0
11, 19571, Note_on_c, 9, 41, 0
11, 19576, Control_c, 9, 123, 0
11, 19576, Control_c, 9, 123, 0
11, 19577, Note_on_c, 9, 42, 0
11, 19578, Note_on_c, 9, 42, 0
11, 19578, Control_c, 9, 123, 0
11, 19581, Note_on_c, 9, 40, 0
11, 19590, Note_on_c, 9, 41, 76
11, 19590, Note_on_c, 9, 44, 90
11, 19590, Note_on_c, 9, 44, 73
11, 19595, Control_c, 9, 123, 0
11, 19599, Note_on_c, 9, 41, 0
11, 19600, Control_c, 9, 123, 0
11, 19601, Control_c, 9, 123, 0
11, 19605, Note_on_c, 9, 44, 0
11, 19606, Note_on_c, 9, 44, 0
11, 19620, Note_on_c, 9, 41, 65
11, 19620, Note_on_c, 9, 42, 90
11, 19620, Note_on_c, 9, 42, 95
11, 19627, Note_on_c, 9, 41, 0
11, 19627, Control_c, 9, 123, 0
11, 19633, Control_c, 9, 123, 0
11, 19637, Note_on_c, 9, 42, 0
11, 19637, Control_c, 9, 123, 0
11, 19639, Note_on_c, 9, 42, 0
11, 19650, Note_on_c, 9, 41, 70
11, 19650, Note_on_c, 9, 44, 106
11, 19650, Note_on_c, 9, 46, 95
11, 19650, Note_on_c, 9, 35, 77
11, 19661, Control_c, 9, 123, 0
11, 19662, Note_on_c, 9, 35, 0
11, 19662, Control_c, 9, 123, 0
11, 19664, Control_c, 9, 123, 0
11, 19664, Control_c, 9, 123, 0
11, 19665, Note_on_c, 9, 41, 0
11, 19668, Note_on_c, 9, 46, 0
11, 19670, Note_on_c, 9, 44, 0
11, 19680, Note_on_c, 9, 40, 92
11, 19680, Note_on_c, 9, 42, 112
11, 19680, Note_on_c, 9, 42, 106
11, 19680, Note_on_c, 9, 35, 106
11, 19680, Note_on_c, 9, 42, 127
11, 19680, Note_on_c, 9, 49, 106
11, 19694, Control_c, 9, 123, 0
11, 19696, Control_c, 9, 123, 0
11, 19697, Control_c, 9, 123, 0
11, 19698, Note_on_c, 9, 42, 0
11, 19698, Note_on_c, 9, 42, 0
11, 19699, Control_c, 9, 123, 0
11, 19700, Note_on_c, 9, 35, 0
11, 19701, Note_on_c, 9, 40, 0
11, 19701, Note_on_c, 9, 42, 0
11, 19703, Control_c, 9, 123, 0
11, 19740, Note_on_c, 9, 35, 43
11, 19740, Note_on_c, 9, 46, 77
11, 19746, Note_on_c, 9, 35, 0
11, 19749, Control_c, 9, 123, 0
11, 19762, Note_on_c, 9, 46, 0
11, 19766, Control_c, 9, 123, 0
11, 19800, Note_on_c, 9, 40, 109
11, 19800, Note_on_c, 9, 42, 127
11, 19811, Note_on_c, 9, 49, 0
11, 19814, Control_c, 9, 123, 0
11, 19820, Note_on_c, 9, 42, 0
11, 19823, Control_c, 9, 123, 0
11, 19824, Note_on_c, 9, 40, 0
11, 19825, Control_c, 9, 123, 0
11, 19860, Note_on_c, 9, 46, 65
11, 19860, Note_on_c, 9, 35, 64
11, 19874, Note_on_c, 9, 35, 0
11, 19875, Control_c, 9, 123, 0
11, 19879, Control_c, 9, 123, 0
11, 19880, Note_on_c, 9, 46, 0
11, 19920, Note_on_c, 9, 40, 109
11, 19920, Note_on_c, 9, 42, 127
11, 19939, Note_on_c, 9, 42, 0
11, 19939, Control_c, 9, 123, 0
11, 19944, Control_c, 9, 123, 0
11, 19945, Note_on_c, 9, 40, 0
11, 19980, Note_on_c, 9, 44, 86
11, 19980, Note_on_c, 9, 35, 97
11, 19998, Note_on_c, 9, 35, 0
11, 20002, Control_c, 9, 123, 0
11, 20006, Control_c, 9, 123, 0
11, 20007, Note_on_c, 9, 44, 0
11, 20040, Note_on_c, 9, 40, 109
11, 20040, Note_on_c, 9, 42, 127
11, 20055, Control_c, 9, 123, 0
11, 20058, Note_on_c, 9, 42, 0
11, 20059, Control_c, 9, 123, 0
11, 20063, Note_on_c, 9, 40, 0
11, 20100, Note_on_c, 9, 35, 103
11, 20100, Note_on_c, 9, 44, 86
11, 20114, Control_c, 9, 123, 0
11, 20118, Note_on_c, 9, 35, 0
11, 20119, Control_c, 9, 123, 0
11, 20121, Note_on_c, 9, 44, 0
11, 20160, Note_on_c, 9, 42, 126
11, 20160, Note_on_c, 9, 40, 113
11, 20167, Control_c, 9, 123, 0
11, 20176, Control_c, 9, 123, 0
11, 20177, Note_on_c, 9, 42, 0
11, 20182, Note_on_c, 9, 40, 0
11, 20220, Note_on_c, 9, 46, 112
11, 20220, Note_on_c, 9, 35, 97
11, 20234, Control_c, 9, 123, 0
11, 20236, Note_on_c, 9, 35, 0
11, 20253, Control_c, 9, 123, 0
11, 20259, Note_on_c, 9, 46, 0
11, 20280, Note_on_c, 9, 40, 109
11, 20280, Note_on_c, 9, 42, 127
11, 20293, Control_c, 9, 123, 0
11, 20296, Control_c, 9, 123, 0
11, 20298, Note_on_c, 9, 42, 0
11, 20302, Note_on_c, 9, 40, 0
11, 20340, Note_on_c, 9, 46, 95
11, 20340, Note_on_c, 9, 35, 84
11, 20355, Control_c, 9, 123, 0
11, 20358, Note_on_c, 9, 35, 0
11, 20373, Control_c, 9, 123, 0
11, 20377, Note_on_c, 9, 46, 0
11, 20400, Note_on_c, 9, 42, 126
11, 20400, Note_on_c, 9, 40, 122
11, 20411, Control_c, 9, 123, 0
11, 20416, Note_on_c, 9, 42, 0
11, 20421, Control_c, 9, 123, 0
11, 20425, Note_on_c, 9, 40, 0
11, 20460, Note_on_c, 9, 44, 95
11, 20460, Note_on_c, 9, 35, 79
11, 20467, Control_c, 9, 123, 0
11, 20469, Note_on_c, 9, 35, 0
11, 20475, Control_c, 9, 123, 0
11, 20481, Note_on_c, 9, 44, 0
11, 20490, Note_on_c, 9, 35, 73
11, 20499, Control_c, 9, 123, 0
11, 20505, Note_on_c, 9, 35, 0
11, 20520, Note_on_c, 9, 40, 117
11, 20520, Note_on_c, 9, 42, 127
11, 20533, Control_c, 9, 123, 0
11, 20537, Note_on_c, 9, 42, 0
11, 20544, Control_c, 9, 123, 0
11, 20550, Note_on_c, 9, 40, 0
11, 20580, Note_on_c, 9, 44, 95
11, 20580, Note_on_c, 9, 35, 90
11, 20595, Control_c, 9, 123, 0
11, 20596, Control_c, 9, 123, 0
11, 20603, Note_on_c, 9, 35, 0
11, 20604, Note_on_c, 9, 44, 0
11, 20610, Note_on_c, 9, 40, 109
11, 20635, Note_on_c, 9, 40, 0
11, 20640, Note_on_c, 9, 42, 126
11, 20644, Control_c, 9, 123, 0
11, 20649, Control_c, 9, 123, 0
11, 20655, Note_on_c, 9, 42, 0
11, 20700, Note_on_c, 9, 35, 76
11, 20700, Note_on_c, 9, 46, 100
11, 20711, Control_c, 9, 123, 0
11, 20719, Note_on_c, 9, 35, 0
11, 20731, Control_c, 9, 123, 0
11, 20738, Note_on_c, 9, 46, 0
11, 20760, Note_on_c, 9, 40, 117
11, 20760, Note_on_c, 9, 42, 127
11, 20771, Control_c, 9, 123, 0
11, 20776, Control_c, 9, 123, 0
11, 20777, Note_on_c, 9, 42, 0
11, 20782, Note_on_c, 9, 40, 0
11, 20820, Note_on_c, 9, 46, 95
11, 20820, Note_on_c, 9, 35, 88
11, 20835, Control_c, 9, 123, 0
11, 20838, Note_on_c, 9, 35, 0
11, 20852, Control_c, 9, 123, 0
11, 20858, Note_on_c, 9, 46, 0
11, 20880, Note_on_c, 9, 42, 127
11, 20880, Note_on_c, 9, 40, 113
11, 20893, Control_c, 9, 123, 0
11, 20896, Note_on_c, 9, 42, 0
11, 20897, Control_c, 9, 123, 0
11, 20899, Note_on_c, 9, 40, 0
11, 20940, Note_on_c, 9, 44, 100
11, 20940, Note_on_c, 9, 35, 90
11, 20951, Control_c, 9, 123, 0
11, 20957, Note_on_c, 9, 44, 0
11, 20958, Note_on_c, 9, 35, 0
11, 20958, Control_c, 9, 123, 0
11, 21000, Note_on_c, 9, 40, 117
11, 21000, Note_on_c, 9, 42, 126
11, 21012, Control_c, 9, 123, 0
11, 21016, Control_c, 9, 123, 0
11, 21017, Note_on_c, 9, 42, 0
11, 21022, Note_on_c, 9, 40, 0
11, 21060, Note_on_c, 9, 44, 100
11, 21060, Note_on_c, 9, 35, 103
11, 21074, Control_c, 9, 123, 0
11, 21077, Control_c, 9, 123, 0
11, 21079, Note_on_c, 9, 44, 0
11, 21081, Note_on_c, 9, 35, 0
11, 21120, Note_on_c, 9, 40, 109
11, 21120, Note_on_c, 9, 42, 126
11, 21130, Control_c, 9, 123, 0
11, 21134, Control_c, 9, 123, 0
11, 21136, Note_on_c, 9, 42, 0
11, 21141, Note_on_c, 9, 40, 0
11, 21180, Note_on_c, 9, 46, 100
11, 21180, Note_on_c, 9, 35, 97
11, 21193, Control_c, 9, 123, 0
11, 21200, Note_on_c, 9, 35, 0
11, 21207, Control_c, 9, 123, 0
11, 21215, Note_on_c, 9, 46, 0
11, 21240, Note_on_c, 9, 40, 113
11, 21240, Note_on_c, 9, 42, 127
11, 21254, Control_c, 9, 123, 0
11, 21254, Control_c, 9, 123, 0
11, 21257, Note_on_c, 9, 42, 0
11, 21260, Note_on_c, 9, 40, 0
11, 21300, Note_on_c, 9, 35, 92
11, 21300, Note_on_c, 9, 46, 100
11, 21316, Control_c, 9, 123, 0
11, 21319, Control_c, 9, 123, 0
11, 21322, Note_on_c, 9, 35, 0
11, 21324, Note_on_c, 9, 46, 0
11, 21360, Note_on_c, 9, 40, 106
11, 21360, Note_on_c, 9, 42, 126
11, 21375, Control_c, 9, 123, 0
11, 21376, Note_on_c, 9, 42, 0
11, 21377, Control_c, 9, 123, 0
11, 21384, Note_on_c, 9, 40, 0
11, 21420, Note_on_c, 9, 35, 95
11, 21420, Note_on_c, 9, 44, 95
11, 21436, Control_c, 9, 123, 0
11, 21436, Control_c, 9, 123, 0
11, 21442, Note_on_c, 9, 35, 0
11, 21442, Note_on_c, 9, 44, 0
11, 21480, Note_on_c, 9, 40, 109
11, 21480, Note_on_c, 9, 42, 118
11, 21488, Control_c, 9, 123, 0
11, 21495, Control_c, 9, 123, 0
11, 21496, Note_on_c, 9, 42, 0
11, 21503, Note_on_c, 9, 40, 0
11, 21540, Note_on_c, 9, 44, 95
11, 21540, Note_on_c, 9, 35, 100
11, 21548, Control_c, 9, 123, 0
11, 21556, Control_c, 9, 123, 0
11, 21558, Note_on_c, 9, 44, 0
11, 21563, Note_on_c, 9, 35, 0
11, 21600, Note_on_c, 9, 42, 127
11, 21600, Note_on_c, 9, 40, 106
11, 21607, Control_c, 9, 123, 0
11, 21608, Control_c, 9, 123, 0
11, 21617, Note_on_c, 9, 40, 0
11, 21618, Note_on_c, 9, 42, 0
11, 21660, Note_on_c, 9, 35, 97
11, 21660, Note_on_c, 9, 46, 106
11, 21668, Control_c, 9, 123, 0
11, 21679, Note_on_c, 9, 35, 0
11, 21688, Control_c, 9, 123, 0
11, 21697, Note_on_c, 9, 46, 0
11, 21720, Note_on_c, 9, 40, 117
11, 21720, Note_on_c, 9, 42, 127
11, 21732, Control_c, 9, 123, 0
11, 21733, Control_c, 9, 123, 0
11, 21736, Note_on_c, 9, 42, 0
11, 21742, Note_on_c, 9, 40, 0
11, 21780, Note_on_c, 9, 35, 73
11, 21780, Note_on_c, 9, 46, 95
11, 21788, Control_c, 9, 123, 0
11, 21800, Note_on_c, 9, 35, 0
11, 21809, Control_c, 9, 123, 0
11, 21815, Note_on_c, 9, 46, 0
11, 21840, Note_on_c, 9, 40, 113
11, 21840, Note_on_c, 9, 42, 127
11, 21852, Control_c, 9, 123, 0
11, 21854, Control_c, 9, 123, 0
11, 21857, Note_on_c, 9, 42, 0
11, 21862, Note_on_c, 9, 40, 0
11, 21900, Note_on_c, 9, 44, 90
11, 21900, Note_on_c, 9, 35, 92
11, 21912, Control_c, 9, 123, 0
11, 21920, Note_on_c, 9, 35, 0
11, 21920, Control_c, 9, 123, 0
11, 21930, Note_on_c, 9, 44, 0
11, 21960, Note_on_c, 9, 40, 117
11, 21960, Note_on_c, 9, 42, 127
11, 21971, Control_c, 9, 123, 0
11, 21973, Control_c, 9, 123, 0
11, 21978, Note_on_c, 9, 42, 0
11, 21981, Note_on_c, 9, 40, 0
11, 22020, Note_on_c, 9, 35, 106
11, 22020, Note_on_c, 9, 44, 100
11, 22030, Control_c, 9, 123, 0
11, 22034, Control_c, 9, 123, 0
11, 22039, Note_on_c, 9, 35, 0
11, 22044, Note_on_c, 9, 44, 0
11, 22080, Note_on_c, 9, 40, 117
11, 22080, Note_on_c, 9, 42, 127
11, 22088, Control_c, 9, 123, 0
11, 22090, Control_c, 9, 123, 0
11, 22097, Note_on_c, 9, 42, 0
11, 22102, Note_on_c, 9, 40, 0
11, 22140, Note_on_c, 9, 35, 92
11, 22140, Note_on_c, 9, 46, 106
11, 22148, Control_c, 9, 123, 0
11, 22158, Note_on_c, 9, 35, 0
11, 22167, Control_c, 9, 123, 0
11, 22177, Note_on_c, 9, 46, 0
11, 22200, Note_on_c, 9, 40, 117
11, 22200, Note_on_c, 9, 42, 127
11, 22209, Control_c, 9, 123, 0
11, 22217, Control_c, 9, 123, 0
11, 22218, Note_on_c, 9, 42, 0
11, 22226, Note_on_c, 9, 40, 0
11, 22260, Note_on_c, 9, 46, 100
11, 22260, Note_on_c, 9, 35, 86
11, 22272, Control_c, 9, 123, 0
11, 22279, Note_on_c, 9, 35, 0
11, 22289, Control_c, 9, 123, 0
11, 22301, Note_on_c, 9, 46, 0
11, 22320, Note_on_c, 9, 40, 117
11, 22320, Note_on_c, 9, 42, 126
11, 22329, Control_c, 9, 123, 0
11, 22333, Control_c, 9, 123, 0
11, 22336, Note_on_c, 9, 42, 0
11, 22345, Note_on_c, 9, 40, 0
11, 22380, Note_on_c, 9, 35, 79
11, 22380, Note_on_c, 9, 44, 95
11, 22389, Control_c, 9, 123, 0
11, 22399, Note_on_c, 9, 44, 0
11, 22412, Control_c, 9, 123, 0
11, 22424, Note_on_c, 9, 35, 0
11, 22440, Note_on_c, 9, 40, 117
11, 22440, Note_on_c, 9, 42, 127
11, 22450, Control_c, 9, 123, 0
11, 22454, Control_c, 9, 123, 0
11, 22458, Note_on_c, 9, 42, 0
11, 22466, Note_on_c, 9, 40, 0
11, 22500, Note_on_c, 9, 35, 84
11, 22500, Note_on_c, 9, 44, 86
11, 22503, Control_c, 9, 123, 0
11, 22516, Note_on_c, 9, 35, 0
11, 22519, Control_c, 9, 123, 0
11, 22527, Note_on_c, 9, 44, 0
11, 22560, Note_on_c, 9, 40, 109
11, 22560, Note_on_c, 9, 35, 95
11, 22560, Note_on_c, 9, 42, 118
11, 22566, Control_c, 9, 123, 0
11, 22567, Control_c, 9, 123, 0
11, 22575, Note_on_c, 9, 42, 0
11, 22580, Note_on_c, 9, 40, 0
11, 22580, Note_on_c, 9, 35, 0
11, 22620, Note_on_c, 9, 46, 95
11, 22649, Control_c, 9, 123, 0
11, 22650, Note_on_c, 9, 40, 117
11, 22655, Note_on_c, 9, 46, 0
11, 22674, Note_on_c, 9, 40, 0
11, 22680, Note_on_c, 9, 35, 100
11, 22680, Note_on_c, 9, 42, 127
11, 22687, Control_c, 9, 123, 0
11, 22694, Control_c, 9, 123, 0
11, 22696, Note_on_c, 9, 42, 0
11, 22701, Note_on_c, 9, 35, 0
11, 22740, Note_on_c, 9, 46, 83
11, 22770, Control_c, 9, 123, 0
11, 22775, Note_on_c, 9, 46, 0
11, 22800, Note_on_c, 9, 40, 117
11, 22800, Note_on_c, 9, 35, 106
11, 22800, Note_on_c, 9, 42, 127
11, 22811, Control_c, 9, 123, 0
11, 22814, Control_c, 9, 123, 0
11, 22815, Note_on_c, 9, 42, 0
11, 22820, Note_on_c, 9, 35, 0
11, 22822, Note_on_c, 9, 40, 0
11, 22860, Note_on_c, 9, 35, 69
11, 22860, Note_on_c, 9, 44, 100
11, 22871, Control_c, 9, 123, 0
11, 22880, Note_on_c, 9, 44, 0
11, 22900, Control_c, 9, 123, 0
11, 22909, Note_on_c, 9, 35, 0
11, 22920, Note_on_c, 9, 40, 122
11, 22920, Note_on_c, 9, 42, 126
11, 22932, Control_c, 9, 123, 0
11, 22936, Control_c, 9, 123, 0
11, 22937, Note_on_c, 9, 42, 0
11, 22944, Note_on_c, 9, 40, 0
11, 22980, Note_on_c, 9, 35, 109
11, 22980, Note_on_c, 9, 44, 95
11, 22993, Control_c, 9, 123, 0
11, 23000, Note_on_c, 9, 44, 0
11, 23013, Control_c, 9, 123, 0
11, 23022, Note_on_c, 9, 35, 0
11, 23040, Note_on_c, 9, 40, 126
11, 23040, Note_on_c, 9, 42, 127
11, 23051, Control_c, 9, 123, 0
11, 23053, Control_c, 9, 123, 0
11, 23057, Note_on_c, 9, 42, 0
11, 23061, Note_on_c, 9, 40, 0
11, 23100, Note_on_c, 9, 46, 100
11, 23100, Note_on_c, 9, 35, 100
11, 23123, Control_c, 9, 123, 0
11, 23130, Note_on_c, 9, 46, 0
11, 23133, Control_c, 9, 123, 0
11, 23139, Note_on_c, 9, 35, 0
11, 23160, Note_on_c, 9, 40, 113
11, 23160, Note_on_c, 9, 42, 118
11, 23176, Note_on_c, 9, 42, 0
11, 23176, Control_c, 9, 123, 0
11, 23180, Control_c, 9, 123, 0
11, 23185, Note_on_c, 9, 40, 0
11, 23220, Note_on_c, 9, 46, 86
11, 23220, Note_on_c, 9, 35, 103
11, 23234, Control_c, 9, 123, 0
11, 23244, Note_on_c, 9, 46, 0
11, 23260, Control_c, 9, 123, 0
11, 23268, Note_on_c, 9, 35, 0
11, 23280, Note_on_c, 9, 40, 122
11, 23280, Note_on_c, 9, 42, 126
11, 23292, Control_c, 9, 123, 0
11, 23296, Note_on_c, 9, 42, 0
11, 23298, Control_c, 9, 123, 0
11, 23303, Note_on_c, 9, 40, 0
11, 23340, Note_on_c, 9, 44, 106
11, 23340, Note_on_c, 9, 35, 100
11, 23350, Control_c, 9, 123, 0
11, 23361, Note_on_c, 9, 44, 0
11, 23382, Control_c, 9, 123, 0
11, 23389, Note_on_c, 9, 35, 0
11, 23400, Note_on_c, 9, 40, 100
11, 23400, Note_on_c, 9, 42, 126
11, 23405, Control_c, 9, 123, 0
11, 23414, Note_on_c, 9, 42, 0
11, 23414, Control_c, 9, 123, 0
11, 23425, Note_on_c, 9, 40, 0
11, 23460, Note_on_c, 9, 44, 80
11, 23460, Note_on_c, 9, 35, 109
11, 23464, Control_c, 9, 123, 0
11, 23475, Note_on_c, 9, 44, 0
11, 23505, Control_c, 9, 123, 0
11, 23514, Note_on_c, 9, 35, 0
11, 23520, Note_on_c, 9, 40, 97
11, 23520, Note_on_c, 9, 42, 127
11, 23529, Control_c, 9, 123, 0
11, 23531, Control_c, 9, 123, 0
11, 23536, Note_on_c, 9, 42, 0
11, 23541, Note_on_c, 9, 40, 0
11, 23580, Note_on_c, 9, 44, 77
11, 23594, Control_c, 9, 123, 0
11, 23601, Note_on_c, 9, 44, 0
11, 23640, Note_on_c, 9, 40, 113
11, 23640, Note_on_c, 9, 42, 127
11, 23653, Control_c, 9, 123, 0
11, 23654, Control_c, 9, 123, 0
11, 23658, Note_on_c, 9, 42, 0
11, 23665, Note_on_c, 9, 40, 0
11, 23700, Note_on_c, 9, 44, 83
11, 23700, Note_on_c, 9, 35, 100
11, 23710, Control_c, 9, 123, 0
11, 23718, Note_on_c, 9, 44, 0
11, 23726, Control_c, 9, 123, 0
11, 23732, Note_on_c, 9, 35, 0
11, 23760, Note_on_c, 9, 40, 113
11, 23760, Note_on_c, 9, 42, 127
11, 23772, Control_c, 9, 123, 0
11, 23776, Note_on_c, 9, 42, 0
11, 23777, Control_c, 9, 123, 0
11, 23783, Note_on_c, 9, 40, 0
11, 23820, Note_on_c, 9, 44, 90
11, 23820, Note_on_c, 9, 35, 109
11, 23834, Control_c, 9, 123, 0
11, 23839, Note_on_c, 9, 44, 0
11, 23844, Control_c, 9, 123, 0
11, 23848, Note_on_c, 9, 35, 0
11, 23880, Note_on_c, 9, 42, 127
11, 23880, Note_on_c, 9, 40, 122
11, 23893, Control_c, 9, 123, 0
11, 23898, Note_on_c, 9, 42, 0
11, 23912, Control_c, 9, 123, 0
11, 23915, Note_on_c, 9, 40, 0
11, 23940, Note_on_c, 9, 44, 112
11, 23940, Note_on_c, 9, 35, 106
11, 23958, Control_c, 9, 123, 0
11, 23961, Note_on_c, 9, 35, 0
11, 23961, Control_c, 9, 123, 0
11, 23968, Note_on_c, 9, 44, 0
11, 24000, Note_on_c, 9, 49, 90
11, 24000, Note_on_c, 9, 35, 106
11, 24000, Note_on_c, 9, 42, 126
11, 24013, Control_c, 9, 123, 0
11, 24015, Note_on_c, 9, 42, 0
11, 24016, Control_c, 9, 123, 0
11, 24018, Note_on_c, 9, 35, 0
11, 24066, Note_on_c, 9, 70, 106
11, 24079, Note_on_c, 9, 70, 0
11, 24079, Control_c, 9, 123, 0
11, 24094, Note_on_c, 9, 70, 112
11, 24114, Note_on_c, 9, 70, 0
11, 24114, Control_c, 9, 123, 0
11, 24184, Control_c, 9, 123, 0
11, 24189, Note_on_c, 9, 49, 0
11, 24237, Note_on_c, 9, 35, 113
11, 24273, Note_on_c, 9, 35, 0
11, 24273, Control_c, 9, 123, 0
11, 24326, Note_on_c, 9, 35, 95
11, 24329, Note_on_c, 9, 69, 106
11, 24346, Note_on_c, 9, 69, 0
11, 24346, Control_c, 9, 123, 0
11, 24349, Note_on_c, 9, 35, 0
11, 24349, Control_c, 9, 123, 0
11, 24540, Note_on_c, 9, 70, 95
11, 24552, Note_on_c, 9, 70, 0
11, 24552, Control_c, 9, 123, 0
11, 24570, Note_on_c, 9, 70, 95
11, 24586, Note_on_c, 9, 70, 0
11, 24587, Control_c, 9, 123, 0
11, 24722, Note_on_c, 9, 35, 113
11, 24751, Note_on_c, 9, 35, 0
11, 24751, Control_c, 9, 123, 0
11, 24810, Note_on_c, 9, 69, 106
11, 24812, Note_on_c, 9, 35, 106
11, 24828, Note_on_c, 9, 69, 0
11, 24828, Control_c, 9, 123, 0
11, 24835, Note_on_c, 9, 35, 0
11, 24835, Control_c, 9, 123, 0
11, 25016, Note_on_c, 9, 70, 83
11, 25028, Note_on_c, 9, 70, 0
11, 25028, Control_c, 9, 123, 0
11, 25046, Note_on_c, 9, 70, 100
11, 25064, Note_on_c, 9, 70, 0
11, 25065, Control_c, 9, 123, 0
11, 25200, Note_on_c, 9, 35, 109
11, 25229, Note_on_c, 9, 35, 0
11, 25230, Control_c, 9, 123, 0
11, 25289, Note_on_c, 9, 69, 90
11, 25293, Note_on_c, 9, 35, 106
11, 25308, Note_on_c, 9, 69, 0
11, 25308, Control_c, 9, 123, 0
11, 25316, Note_on_c, 9, 35, 0
11, 25316, Control_c, 9, 123, 0
11, 25500, Note_on_c, 9, 70, 86
11, 25512, Note_on_c, 9, 70, 0
11, 25512, Control_c, 9, 123, 0
11, 25530, Note_on_c, 9, 70, 100
11, 25548, Note_on_c, 9, 70, 0
11, 25548, Control_c, 9, 123, 0
11, 25679, Note_on_c, 9, 35, 109
11, 25707, Note_on_c, 9, 35, 0
11, 25707, Control_c, 9, 123, 0
11, 25768, Note_on_c, 9, 69, 100
11, 25769, Note_on_c, 9, 35, 106
11, 25788, Note_on_c, 9, 69, 0
11, 25788, Control_c, 9, 123, 0
11, 25791, Note_on_c, 9, 35, 0
11, 25791, Control_c, 9, 123, 0
11, 25976, Note_on_c, 9, 70, 75
11, 25987, Note_on_c, 9, 70, 0
11, 25987, Control_c, 9, 123, 0
11, 26006, Note_on_c, 9, 70, 100
11, 26023, Note_on_c, 9, 70, 0
11, 26023, Control_c, 9, 123, 0
11, 26163, Note_on_c, 9, 35, 109
11, 26194, Note_on_c, 9, 35, 0
11, 26194, Control_c, 9, 123, 0
11, 26253, Note_on_c, 9, 69, 100
11, 26254, Note_on_c, 9, 35, 109
11, 26273, Note_on_c, 9, 69, 0
11, 26273, Control_c, 9, 123, 0
11, 26276, Note_on_c, 9, 35, 0
11, 26276, Control_c, 9, 123, 0
11, 26459, Note_on_c, 9, 70, 95
11, 26471, Note_on_c, 9, 70, 0
11, 26471, Control_c, 9, 123, 0
11, 26489, Note_on_c, 9, 70, 100
11, 26505, Note_on_c, 9, 70, 0
11, 26505, Control_c, 9, 123, 0
11, 26645, Note_on_c, 9, 35, 106
11, 26672, Note_on_c, 9, 35, 0
11, 26672, Control_c, 9, 123, 0
11, 26732, Note_on_c, 9, 69, 95
11, 26734, Note_on_c, 9, 35, 109
11, 26752, Note_on_c, 9, 69, 0
11, 26752, Control_c, 9, 123, 0
11, 26757, Note_on_c, 9, 35, 0
11, 26757, Control_c, 9, 123, 0
11, 26942, Note_on_c, 9, 70, 86
11, 26954, Note_on_c, 9, 70, 0
11, 26954, Control_c, 9, 123, 0
11, 26972, Note_on_c, 9, 70, 90
11, 26990, Note_on_c, 9, 70, 0
11, 26990, Control_c, 9, 123, 0
11, 27122, Note_on_c, 9, 35, 109
11, 27147, Note_on_c, 9, 35, 0
11, 27147, Control_c, 9, 123, 0
11, 27212, Note_on_c, 9, 69, 97
11, 27212, Note_on_c, 9, 35, 106
11, 27232, Note_on_c, 9, 69, 0
11, 27232, Control_c, 9, 123, 0
11, 27235, Note_on_c, 9, 35, 0
11, 27235, Control_c, 9, 123, 0
11, 27419, Note_on_c, 9, 70, 86
11, 27429, Note_on_c, 9, 70, 0
11, 27430, Control_c, 9, 123, 0
11, 27451, Note_on_c, 9, 70, 95
11, 27466, Note_on_c, 9, 70, 0
11, 27466, Control_c, 9, 123, 0
11, 27605, Note_on_c, 9, 35, 106
11, 27633, Note_on_c, 9, 35, 0
11, 27633, Control_c, 9, 123, 0
11, 27693, Note_on_c, 9, 35, 117
11, 27694, Note_on_c, 9, 69, 100
11, 27712, Note_on_c, 9, 69, 0
11, 27713, Control_c, 9, 123, 0
11, 27718, Note_on_c, 9, 35, 0
11, 27718, Control_c, 9, 123, 0
11, 27900, Note_on_c, 9, 35, 80
11, 27915, Note_on_c, 9, 35, 0
11, 27915, Control_c, 9, 123, 0
11, 27935, Note_on_c, 9, 35, 103
11, 27958, Note_on_c, 9, 35, 0
11, 27958, Control_c, 9, 123, 0
11, 28200, Note_on_c, 9, 40, 117
11, 28227, Note_on_c, 9, 40, 0
11, 28227, Control_c, 9, 123, 0
11, 28386, Note_on_c, 9, 35, 100
11, 28400, Note_on_c, 9, 35, 0
11, 28400, Control_c, 9, 123, 0
11, 28416, Note_on_c, 9, 35, 100
11, 28436, Note_on_c, 9, 35, 0
11, 28436, Control_c, 9, 123, 0
11, 28685, Note_on_c, 9, 40, 122
11, 28710, Note_on_c, 9, 40, 0
11, 28710, Control_c, 9, 123, 0
11, 28864, Note_on_c, 9, 35, 90
11, 28879, Note_on_c, 9, 35, 0
11, 28879, Control_c, 9, 123, 0
11, 28894, Note_on_c, 9, 35, 97
11, 28915, Note_on_c, 9, 35, 0
11, 28916, Control_c, 9, 123, 0
11, 29163, Note_on_c, 9, 40, 122
11, 29188, Note_on_c, 9, 40, 0
11, 29188, Control_c, 9, 123, 0
11, 29344, Note_on_c, 9, 35, 97
11, 29359, Note_on_c, 9, 35, 0
11, 29359, Control_c, 9, 123, 0
11, 29374, Note_on_c, 9, 35, 90
11, 29394, Note_on_c, 9, 35, 0
11, 29394, Control_c, 9, 123, 0
11, 29643, Note_on_c, 9, 40, 109
11, 29666, Note_on_c, 9, 40, 0
11, 29666, Control_c, 9, 123, 0
11, 29824, Note_on_c, 9, 35, 92
11, 29837, Note_on_c, 9, 35, 0
11, 29837, Control_c, 9, 123, 0
11, 29855, Note_on_c, 9, 35, 100
11, 29876, Note_on_c, 9, 35, 0
11, 29877, Control_c, 9, 123, 0
11, 30121, Note_on_c, 9, 40, 113
11, 30145, Note_on_c, 9, 40, 0
11, 30145, Control_c, 9, 123, 0
11, 30302, Note_on_c, 9, 35, 95
11, 30315, Note_on_c, 9, 35, 0
11, 30315, Control_c, 9, 123, 0
11, 30333, Note_on_c, 9, 35, 103
11, 30359, Note_on_c, 9, 35, 0
11, 30359, Control_c, 9, 123, 0
11, 30602, Note_on_c, 9, 40, 113
11, 30625, Note_on_c, 9, 40, 0
11, 30625, Control_c, 9, 123, 0
11, 30783, Note_on_c, 9, 35, 82
11, 30796, Note_on_c, 9, 35, 0
11, 30796, Control_c, 9, 123, 0
11, 30811, Note_on_c, 9, 35, 97
11, 30831, Note_on_c, 9, 35, 0
11, 30831, Control_c, 9, 123, 0
11, 31080, Note_on_c, 9, 40, 113
11, 31105, Note_on_c, 9, 40, 0
11, 31105, Control_c, 9, 123, 0
11, 31261, Note_on_c, 9, 35, 86
11, 31274, Note_on_c, 9, 35, 0
11, 31274, Control_c, 9, 123, 0
11, 31289, Note_on_c, 9, 35, 95
11, 31309, Note_on_c, 9, 35, 0
11, 31309, Control_c, 9, 123, 0
11, 31560, Note_on_c, 9, 40, 117
11, 31583, Note_on_c, 9, 40, 0
11, 31583, Control_c, 9, 123, 0
11, 31680, Note_on_c, 9, 40, 72
11, 31680, Note_on_c, 9, 42, 127
11, 31680, Note_on_c, 9, 35, 92
11, 31680, Note_on_c, 9, 42, 127
11, 31680, Control_c, 9, 123, 0
11, 31681, Note_on_c, 9, 40, 0
11, 31698, Note_on_c, 9, 42, 0
11, 31699, Note_on_c, 9, 42, 0
11, 31699, Control_c, 9, 123, 0
11, 31705, Control_c, 9, 123, 0
11, 31710, Note_on_c, 9, 44, 59
11, 31710, Note_on_c, 9, 44, 77
11, 31711, Note_on_c, 9, 35, 0
11, 31715, Control_c, 9, 123, 0
11, 31723, Control_c, 9, 123, 0
11, 31726, Note_on_c, 9, 44, 0
11, 31728, Note_on_c, 9, 44, 0
11, 31729, Control_c, 9, 123, 0
11, 31740, Note_on_c, 9, 42, 83
11, 31740, Note_on_c, 9, 42, 77
11, 31750, Control_c, 9, 123, 0
11, 31753, Note_on_c, 9, 42, 0
11, 31753, Control_c, 9, 123, 0
11, 31755, Note_on_c, 9, 42, 0
11, 31770, Note_on_c, 9, 44, 95
11, 31770, Note_on_c, 9, 44, 53
11, 31780, Control_c, 9, 123, 0
11, 31785, Control_c, 9, 123, 0
11, 31786, Note_on_c, 9, 44, 0
11, 31790, Note_on_c, 9, 44, 0
11, 31800, Note_on_c, 9, 42, 127
11, 31800, Note_on_c, 9, 42, 127
11, 31800, Note_on_c, 9, 40, 106
11, 31818, Control_c, 9, 123, 0
11, 31819, Control_c, 9, 123, 0
11, 31820, Note_on_c, 9, 42, 0
11, 31821, Note_on_c, 9, 42, 0
11, 31830, Note_on_c, 9, 44, 60
11, 31830, Note_on_c, 9, 44, 44
11, 31841, Control_c, 9, 123, 0
11, 31844, Note_on_c, 9, 44, 0
11, 31845, Control_c, 9, 123, 0
11, 31846, Note_on_c, 9, 40, 0
11, 31849, Control_c, 9, 123, 0
11, 31851, Note_on_c, 9, 44, 0
11, 31860, Note_on_c, 9, 42, 65
11, 31860, Note_on_c, 9, 42, 51
11, 31874, Note_on_c, 9, 42, 0
11, 31876, Control_c, 9, 123, 0
11, 31878, Control_c, 9, 123, 0
11, 31879, Note_on_c, 9, 42, 0
11, 31890, Note_on_c, 9, 44, 95
11, 31890, Note_on_c, 9, 44, 90
11, 31906, Control_c, 9, 123, 0
11, 31908, Control_c, 9, 123, 0
11, 31910, Note_on_c, 9, 44, 0
11, 31911, Note_on_c, 9, 44, 0
11, 31920, Note_on_c, 9, 42, 106
11, 31920, Note_on_c, 9, 42, 40
11, 31928, Note_on_c, 9, 42, 0
11, 31930, Control_c, 9, 123, 0
11, 31936, Note_on_c, 9, 42, 0
11, 31936, Control_c, 9, 123, 0
11, 31950, Note_on_c, 9, 44, 86
11, 31950, Note_on_c, 9, 44, 100
11, 31964, Control_c, 9, 123, 0
11, 31969, Note_on_c, 9, 44, 0
11, 31969, Control_c, 9, 123, 0
11, 31970, Note_on_c, 9, 44, 0
11, 31980, Note_on_c, 9, 42, 46
11, 31980, Note_on_c, 9, 42, 50
11, 31992, Note_on_c, 9, 42, 0
11, 31992, Note_on_c, 9, 42, 0
11, 31993, Control_c, 9, 123, 0
11, 31995, Control_c, 9, 123, 0
11, 32010, Note_on_c, 9, 44, 83
11, 32010, Note_on_c, 9, 44, 80
11, 32020, Control_c, 9, 123, 0
11, 32025, Note_on_c, 9, 44, 0
11, 32026, Note_on_c, 9, 44, 0
11, 32026, Control_c, 9, 123, 0
11, 32040, Note_on_c, 9, 42, 127
11, 32040, Note_on_c, 9, 42, 127
11, 32040, Note_on_c, 9, 40, 113
11, 32055, Control_c, 9, 123, 0
11, 32059, Note_on_c, 9, 42, 0
11, 32059, Control_c, 9, 123, 0
11, 32060, Note_on_c, 9, 42, 0
11, 32070, Note_on_c, 9, 44, 67
11, 32070, Note_on_c, 9, 44, 71
11, 32079, Control_c, 9, 123, 0
11, 32084, Control_c, 9, 123, 0
11, 32085, Note_on_c, 9, 40, 0
11, 32085, Note_on_c, 9, 44, 0
11, 32086, Note_on_c, 9, 44, 0
11, 32086, Control_c, 9, 123, 0
11, 32100, Note_on_c, 9, 42, 65
11, 32100, Note_on_c, 9, 42, 65
11, 32112, Control_c, 9, 123, 0
11, 32113, Control_c, 9, 123, 0
11, 32114, Note_on_c, 9, 42, 0
11, 32116, Note_on_c, 9, 42, 0
11, 32130, Note_on_c, 9, 44, 95
11, 32130, Note_on_c, 9, 46, 118
11, 32130, Note_on_c, 9, 35, 61
11, 32138, Control_c, 9, 123, 0
11, 32139, Note_on_c, 9, 35, 0
11, 32143, Control_c, 9, 123, 0
11, 32143, Control_c, 9, 123, 0
11, 32147, Note_on_c, 9, 44, 0
11, 32151, Note_on_c, 9, 46, 0
11, 32160, Note_on_c, 9, 42, 127
11, 32160, Note_on_c, 9, 42, 83
11, 32160, Note_on_c, 9, 35, 88
11, 32169, Control_c, 9, 123, 0
11, 32170, Note_on_c, 9, 35, 0
11, 32170, Control_c, 9, 123, 0
11, 32176, Control_c, 9, 123, 0
11, 32178, Note_on_c, 9, 42, 0
11, 32181, Note_on_c, 9, 42, 0
11, 32190, Note_on_c, 9, 44, 73
11, 32190, Note_on_c, 9, 44, 48
11, 32190, Note_on_c, 9, 35, 97
11, 32202, Control_c, 9, 123, 0
11, 32206, Control_c, 9, 123, 0
11, 32207, Control_c, 9, 123, 0
11, 32209, Note_on_c, 9, 44, 0
11, 32211, Note_on_c, 9, 44, 0
11, 32211, Note_on_c, 9, 35, 0
11, 32220, Note_on_c, 9, 42, 67
11, 32220, Note_on_c, 9, 42, 63
11, 32231, Control_c, 9, 123, 0
11, 32232, Note_on_c, 9, 42, 0
11, 32233, Control_c, 9, 123, 0
11, 32239, Note_on_c, 9, 42, 0
11, 32250, Note_on_c, 9, 44, 73
11, 32250, Note_on_c, 9, 44, 83
11, 32260, Control_c, 9, 123, 0
11, 32265, Note_on_c, 9, 44, 0
11, 32265, Control_c, 9, 123, 0
11, 32270, Note_on_c, 9, 44, 0
11, 32280, Note_on_c, 9, 42, 127
11, 32280, Note_on_c, 9, 40, 103
11, 32280, Note_on_c, 9, 42, 126
11, 32295, Control_c, 9, 123, 0
11, 32295, Control_c, 9, 123, 0
11, 32298, Note_on_c, 9, 42, 0
11, 32299, Note_on_c, 9, 42, 0
11, 32310, Note_on_c, 9, 44, 63
11, 32310, Note_on_c, 9, 44, 64
11, 32318, Control_c, 9, 123, 0
11, 32321, Note_on_c, 9, 44, 0
11, 32321, Control_c, 9, 123, 0
11, 32326, Note_on_c, 9, 44, 0
11, 32340, Note_on_c, 9, 42, 75
11, 32340, Note_on_c, 9, 42, 54
11, 32342, Control_c, 9, 123, 0
11, 32345, Note_on_c, 9, 42, 0
11, 32351, Note_on_c, 9, 42, 0
11, 32353, Control_c, 9, 123, 0
11, 32355, Note_on_c, 9, 44, 77
11, 32360, Control_c, 9, 123, 0
11, 32364, Note_on_c, 9, 44, 0
11, 32370, Note_on_c, 9, 42, 127
11, 32370, Note_on_c, 9, 44, 90
11, 32377, Control_c, 9, 123, 0
11, 32384, Note_on_c, 9, 42, 0
11, 32386, Control_c, 9, 123, 0
11, 32390, Note_on_c, 9, 44, 0
11, 32400, Note_on_c, 9, 44, 118
11, 32400, Note_on_c, 9, 42, 48
11, 32401, Control_c, 9, 123, 0
11, 32405, Note_on_c, 9, 40, 0
11, 32413, Control_c, 9, 123, 0
11, 32416, Control_c, 9, 123, 0
11, 32417, Note_on_c, 9, 42, 0
11, 32418, Note_on_c, 9, 44, 0
11, 32430, Note_on_c, 9, 44, 106
11, 32444, Control_c, 9, 123, 0
11, 32449, Note_on_c, 9, 44, 0
11, 32460, Note_on_c, 9, 42, 126
11, 32460, Note_on_c, 9, 42, 73
11, 32468, Control_c, 9, 123, 0
11, 32470, Control_c, 9, 123, 0
11, 32473, Note_on_c, 9, 42, 0
11, 32475, Note_on_c, 9, 42, 0
11, 32490, Note_on_c, 9, 44, 100
11, 32490, Note_on_c, 9, 44, 80
11, 32490, Note_on_c, 9, 35, 68
11, 32501, Control_c, 9, 123, 0
11, 32501, Control_c, 9, 123, 0
11, 32508, Note_on_c, 9, 44, 0
11, 32508, Note_on_c, 9, 44, 0
11, 32513, Control_c, 9, 123, 0
11, 32515, Note_on_c, 9, 35, 0
11, 32520, Note_on_c, 9, 42, 127
11, 32520, Note_on_c, 9, 42, 100
11, 32520, Note_on_c, 9, 40, 109
11, 32534, Control_c, 9, 123, 0
11, 32534, Control_c, 9, 123, 0
11, 32538, Note_on_c, 9, 42, 0
11, 32538, Note_on_c, 9, 42, 0
11, 32550, Note_on_c, 9, 44, 100
11, 32550, Note_on_c, 9, 44, 73
11, 32550, Note_on_c, 9, 35, 82
11, 32562, Control_c, 9, 123, 0
11, 32562, Control_c, 9, 123, 0
11, 32565, Note_on_c, 9, 40, 0
11, 32566, Note_on_c, 9, 44, 0
11, 32571, Note_on_c, 9, 44, 0
11, 32572, Control_c, 9, 123, 0
11, 32573, Note_on_c, 9, 35, 0
11, 32580, Note_on_c, 9, 42, 69
11, 32580, Note_on_c, 9, 44, 73
11, 32593, Note_on_c, 9, 44, 0
11, 32595, Control_c, 9, 123, 0
11, 32598, Note_on_c, 9, 42, 0
11, 32601, Control_c, 9, 123, 0
11, 32610, Note_on_c, 9, 46, 112
11, 32610, Note_on_c, 9, 42, 71
11, 32610, Note_on_c, 9, 35, 57
11, 32618, Control_c, 9, 123, 0
11, 32621, Note_on_c, 9, 35, 0
11, 32622, Control_c, 9, 123, 0
11, 32626, Note_on_c, 9, 42, 0
11, 32627, Control_c, 9, 123, 0
11, 32631, Note_on_c, 9, 46, 0
11, 32640, Note_on_c, 9, 42, 126
11, 32640, Note_on_c, 9, 44, 112
11, 32640, Note_on_c, 9, 35, 79
11, 32653, Control_c, 9, 123, 0
11, 32657, Control_c, 9, 123, 0
11, 32659, Note_on_c, 9, 44, 0
11, 32660, Note_on_c, 9, 42, 0
11, 32660, Control_c, 9, 123, 0
11, 32663, Note_on_c, 9, 35, 0
11, 32670, Note_on_c, 9, 44, 95
11, 32684, Control_c, 9, 123, 0
11, 32688, Note_on_c, 9, 44, 0
11, 32700, Note_on_c, 9, 42, 60
11, 32715, Control_c, 9, 123, 0
11, 32716, Note_on_c, 9, 42, 0
11, 32730, Note_on_c, 9, 44, 67
11, 32730, Note_on_c, 9, 44, 51
11, 32744, Note_on_c, 9, 44, 0
11, 32745, Control_c, 9, 123, 0
11, 32745, Control_c, 9, 123, 0
11, 32748, Note_on_c, 9, 44, 0
11, 32760, Note_on_c, 9, 40, 86
11, 32760, Note_on_c, 9, 42, 127
11, 32760, Note_on_c, 9, 42, 127
11, 32780, Note_on_c, 9, 42, 0
11, 32781, Note_on_c, 9, 42, 0
11, 32781, Control_c, 9, 123, 0
11, 32781, Control_c, 9, 123, 0
11, 32790, Note_on_c, 9, 44, 83
11, 32790, Note_on_c, 9, 44, 77
11, 32805, Note_on_c, 9, 44, 0
11, 32805, Control_c, 9, 123, 0
11, 32806, Note_on_c, 9, 44, 0
11, 32806, Control_c, 9, 123, 0
11, 32820, Note_on_c, 9, 42, 56
11, 32820, Note_on_c, 9, 42, 54
11, 32835, Note_on_c, 9, 42, 0
11, 32835, Note_on_c, 9, 42, 0
11, 32838, Control_c, 9, 123, 0
11, 32839, Control_c, 9, 123, 0
11, 32850, Note_on_c, 9, 44, 112
11, 32850, Note_on_c, 9, 44, 100
11, 32867, Note_on_c, 9, 44, 0
11, 32868, Control_c, 9, 123, 0
11, 32869, Note_on_c, 9, 44, 0
11, 32870, Control_c, 9, 123, 0
11, 32880, Note_on_c, 9, 42, 67
11, 32880, Note_on_c, 9, 42, 127
11, 32898, Control_c, 9, 123, 0
11, 32899, Note_on_c, 9, 42, 0
11, 32900, Note_on_c, 9, 42, 0
11, 32904, Control_c, 9, 123, 0
11, 32910, Note_on_c, 9, 44, 90
11, 32910, Note_on_c, 9, 44, 100
11, 32927, Note_on_c, 9, 44, 0
11, 32927, Control_c, 9, 123, 0
11, 32928, Control_c, 9, 123, 0
11, 32930, Note_on_c, 9, 44, 0
11, 32940, Note_on_c, 9, 42, 65
11, 32940, Note_on_c, 9, 42, 53
11, 32953, Control_c, 9, 123, 0
11, 32955, Note_on_c, 9, 42, 0
11, 32958, Note_on_c, 9, 42, 0
11, 32958, Control_c, 9, 123, 0
11, 32967, Control_c, 9, 123, 0
11, 32968, Note_on_c, 9, 40, 0
11, 32970, Note_on_c, 9, 44, 90
11, 32970, Note_on_c, 9, 44, 77
11, 32984, Control_c, 9, 123, 0
11, 32985, Control_c, 9, 123, 0
11, 32986, Note_on_c, 9, 44, 0
11, 32988, Note_on_c, 9, 44, 0
11, 33000, Note_on_c, 9, 42, 127
11, 33000, Note_on_c, 9, 40, 117
11, 33000, Note_on_c, 9, 42, 127
11, 33017, Control_c, 9, 123, 0
11, 33019, Note_on_c, 9, 42, 0
11, 33019, Note_on_c, 9, 42, 0
11, 33021, Control_c, 9, 123, 0
11, 33027, Note_on_c, 9, 40, 0
11, 33029, Control_c, 9, 123, 0
11, 33030, Note_on_c, 9, 44, 86
11, 33030, Note_on_c, 9, 44, 73
11, 33040, Control_c, 9, 123, 0
11, 33042, Note_on_c, 9, 44, 0
11, 33042, Control_c, 9, 123, 0
11, 33044, Note_on_c, 9, 44, 0
11, 33060, Note_on_c, 9, 42, 83
11, 33060, Note_on_c, 9, 42, 75
11, 33063, Control_c, 9, 123, 0
11, 33066, Note_on_c, 9, 42, 0
11, 33075, Note_on_c, 9, 44, 90
11, 33075, Control_c, 9, 123, 0
11, 33076, Note_on_c, 9, 42, 0
11, 33082, Control_c, 9, 123, 0
11, 33087, Note_on_c, 9, 44, 0
11, 33090, Note_on_c, 9, 42, 127
11, 33090, Note_on_c, 9, 46, 95
11, 33090, Note_on_c, 9, 35, 56
11, 33095, Control_c, 9, 123, 0
11, 33099, Note_on_c, 9, 35, 0
11, 33102, Note_on_c, 9, 42, 0
11, 33103, Control_c, 9, 123, 0
11, 33108, Control_c, 9, 123, 0
11, 33111, Note_on_c, 9, 46, 0
11, 33120, Note_on_c, 9, 44, 112
11, 33120, Note_on_c, 9, 42, 65
11, 33120, Note_on_c, 9, 35, 86
11, 33133, Note_on_c, 9, 35, 0
11, 33135, Control_c, 9, 123, 0
11, 33135, Control_c, 9, 123, 0
11, 33138, Note_on_c, 9, 44, 0
11, 33140, Control_c, 9, 123, 0
11, 33143, Note_on_c, 9, 42, 0
11, 33150, Note_on_c, 9, 44, 83
11, 33150, Note_on_c, 9, 35, 95
11, 33164, Control_c, 9, 123, 0
11, 33167, Note_on_c, 9, 44, 0
11, 33168, Control_c, 9, 123, 0
11, 33170, Note_on_c, 9, 35, 0
11, 33180, Note_on_c, 9, 42, 106
11, 33180, Note_on_c, 9, 42, 65
11, 33193, Note_on_c, 9, 42, 0
11, 33193, Control_c, 9, 123, 0
11, 33195, Control_c, 9, 123, 0
11, 33198, Note_on_c, 9, 42, 0
11, 33210, Note_on_c, 9, 44, 95
11, 33210, Note_on_c, 9, 44, 71
11, 33220, Control_c, 9, 123, 0
11, 33221, Control_c, 9, 123, 0
11, 33223, Note_on_c, 9, 44, 0
11, 33225, Note_on_c, 9, 44, 0
11, 33240, Note_on_c, 9, 42, 127
11, 33240, Note_on_c, 9, 42, 118
11, 33240, Note_on_c, 9, 40, 113
11, 33256, Control_c, 9, 123, 0
11, 33257, Control_c, 9, 123, 0
11, 33259, Note_on_c, 9, 42, 0
11, 33259, Note_on_c, 9, 42, 0
11, 33265, Note_on_c, 9, 40, 0
11, 33265, Control_c, 9, 123, 0
11, 33270, Note_on_c, 9, 44, 77
11, 33270, Note_on_c, 9, 44, 77
11, 33279, Control_c, 9, 123, 0
11, 33280, Control_c, 9, 123, 0
11, 33282, Note_on_c, 9, 44, 0
11, 33284, Note_on_c, 9, 44, 0
11, 33300, Note_on_c, 9, 42, 56
11, 33300, Note_on_c, 9, 42, 61
11, 33313, Control_c, 9, 123, 0
11, 33314, Note_on_c, 9, 42, 0
11, 33316, Control_c, 9, 123, 0
11, 33319, Note_on_c, 9, 42, 0
11, 33330, Note_on_c, 9, 44, 95
11, 33330, Note_on_c, 9, 46, 90
11, 33341, Control_c, 9, 123, 0
11, 33343, Note_on_c, 9, 44, 0
11, 33345, Control_c, 9, 123, 0
11, 33350, Note_on_c, 9, 46, 0
11, 33360, Note_on_c, 9, 42, 100
11, 33360, Note_on_c, 9, 42, 71
11, 33376, Control_c, 9, 123, 0
11, 33377, Note_on_c, 9, 42, 0
11, 33378, Control_c, 9, 123, 0
11, 33382, Note_on_c, 9, 42, 0
11, 33390, Note_on_c, 9, 46, 118
11, 33390, Note_on_c, 9, 46, 86
11, 33400, Control_c, 9, 123, 0
11, 33406, Control_c, 9, 123, 0
11, 33408, Note_on_c, 9, 46, 0
11, 33408, Note_on_c, 9, 46, 0
11, 33420, Note_on_c, 9, 42, 73
11, 33420, Note_on_c, 9, 42, 57
11, 33432, Control_c, 9, 123, 0
11, 33433, Note_on_c, 9, 42, 0
11, 33434, Control_c, 9, 123, 0
11, 33442, Note_on_c, 9, 42, 0
11, 33450, Note_on_c, 9, 44, 90
11, 33450, Note_on_c, 9, 44, 75
11, 33464, Control_c, 9, 123, 0
11, 33467, Control_c, 9, 123, 0
11, 33471, Note_on_c, 9, 44, 0
11, 33472, Note_on_c, 9, 44, 0
11, 33480, Note_on_c, 9, 42, 127
11, 33480, Note_on_c, 9, 42, 112
11, 33480, Note_on_c, 9, 40, 103
11, 33494, Control_c, 9, 123, 0
11, 33495, Control_c, 9, 123, 0
11, 33496, Note_on_c, 9, 42, 0
11, 33499, Note_on_c, 9, 42, 0
11, 33504, Note_on_c, 9, 40, 0
11, 33505, Control_c, 9, 123, 0
11, 33510, Note_on_c, 9, 44, 80
11, 33510, Note_on_c, 9, 44, 69
11, 33510, Note_on_c, 9, 35, 70
11, 33516, Control_c, 9, 123, 0
11, 33518, Control_c, 9, 123, 0
11, 33523, Note_on_c, 9, 44, 0
11, 33525, Note_on_c, 9, 44, 0
11, 33526, Note_on_c, 9, 35, 0
11, 33527, Control_c, 9, 123, 0
11, 33537, Control_c, 9, 123, 0
11, 33540, Note_on_c, 9, 42, 86
11, 33540, Note_on_c, 9, 42, 49
11, 33540, Note_on_c, 9, 44, 73
11, 33543, Control_c, 9, 123, 0
11, 33545, Note_on_c, 9, 42, 0
11, 33547, Note_on_c, 9, 42, 0
11, 33552, Note_on_c, 9, 44, 0
11, 33555, Note_on_c, 9, 44, 90
11, 33557, Control_c, 9, 123, 0
11, 33561, Control_c, 9, 123, 0
11, 33566, Note_on_c, 9, 44, 0
11, 33570, Note_on_c, 9, 42, 127
11, 33570, Note_on_c, 9, 42, 86
11, 33578, Control_c, 9, 123, 0
11, 33579, Control_c, 9, 123, 0
11, 33583, Note_on_c, 9, 42, 0
11, 33586, Note_on_c, 9, 42, 0
11, 33600, Note_on_c, 9, 44, 127
11, 33600, Note_on_c, 9, 44, 118
11, 33608, Control_c, 9, 123, 0
11, 33614, Control_c, 9, 123, 0
11, 33618, Note_on_c, 9, 44, 0
11, 33618, Note_on_c, 9, 44, 0
11, 33660, Note_on_c, 9, 42, 127
11, 33660, Note_on_c, 9, 42, 53
11, 33668, Control_c, 9, 123, 0
11, 33673, Note_on_c, 9, 42, 0
11, 33673, Control_c, 9, 123, 0
11, 33674, Note_on_c, 9, 42, 0
11, 33690, Note_on_c, 9, 44, 90
11, 33690, Note_on_c, 9, 44, 69
11, 33695, Control_c, 9, 123, 0
11, 33699, Control_c, 9, 123, 0
11, 33704, Note_on_c, 9, 44, 0
11, 33706, Note_on_c, 9, 44, 0
11, 33720, Note_on_c, 9, 42, 127
11, 33720, Note_on_c, 9, 40, 113
11, 33720, Note_on_c, 9, 42, 127
11, 33731, Control_c, 9, 123, 0
11, 33738, Note_on_c, 9, 42, 0
11, 33738, Note_on_c, 9, 42, 0
11, 33739, Control_c, 9, 123, 0
11, 33742, Control_c, 9, 123, 0
11, 33746, Note_on_c, 9, 40, 0
11, 33750, Note_on_c, 9, 44, 100
11, 33750, Note_on_c, 9, 44, 73
11, 33754, Control_c, 9, 123, 0
11, 33762, Control_c, 9, 123, 0
11, 33764, Note_on_c, 9, 44, 0
11, 33765, Note_on_c, 9, 44, 0
11, 33780, Note_on_c, 9, 42, 95
11, 33780, Note_on_c, 9, 42, 73
11, 33791, Control_c, 9, 123, 0
11, 33793, Control_c, 9, 123, 0
11, 33795, Note_on_c, 9, 42, 0
11, 33797, Note_on_c, 9, 42, 0
11, 33810, Note_on_c, 9, 44, 106
11, 33810, Note_on_c, 9, 46, 100
11, 33810, Note_on_c, 9, 35, 58
11, 33816, Control_c, 9, 123, 0
11, 33820, Control_c, 9, 123, 0
11, 33821, Note_on_c, 9, 35, 0
11, 33824, Control_c, 9, 123, 0
11, 33827, Note_on_c, 9, 44, 0
11, 33828, Note_on_c, 9, 46, 0
11, 33840, Note_on_c, 9, 42, 67
11, 33840, Note_on_c, 9, 42, 86
11, 33840, Note_on_c, 9, 35, 72
11, 33848, Note_on_c, 9, 42, 0
11, 33848, Control_c, 9, 123, 0
11, 33853, Control_c, 9, 123, 0
11, 33859, Control_c, 9, 123, 0
11, 33861, Note_on_c, 9, 42, 0
11, 33862, Note_on_c, 9, 35, 0
11, 33870, Note_on_c, 9, 44, 106
11, 33870, Note_on_c, 9, 44, 69
11, 33879, Control_c, 9, 123, 0
11, 33884, Note_on_c, 9, 44, 0
11, 33887, Control_c, 9, 123, 0
11, 33888, Note_on_c, 9, 44, 0
11, 33900, Note_on_c, 9, 42, 71
11, 33908, Control_c, 9, 123, 0
11, 33915, Note_on_c, 9, 42, 0
11, 33930, Note_on_c, 9, 44, 80
11, 33930, Note_on_c, 9, 44, 83
11, 33940, Control_c, 9, 123, 0
11, 33940, Control_c, 9, 123, 0
11, 33945, Note_on_c, 9, 44, 0
11, 33947, Note_on_c, 9, 44, 0
11, 33960, Note_on_c, 9, 42, 127
11, 33960, Note_on_c, 9, 40, 113
11, 33960, Note_on_c, 9, 42, 127
11, 33974, Control_c, 9, 123, 0
11, 33975, Control_c, 9, 123, 0
11, 33978, Control_c, 9, 123, 0
11, 33979, Note_on_c, 9, 42, 0
11, 33980, Note_on_c, 9, 42, 0
11, 33983, Note_on_c, 9, 40, 0
11, 33990, Note_on_c, 9, 44, 86
11, 33990, Note_on_c, 9, 44, 80
11, 33997, Control_c, 9, 123, 0
11, 34000, Control_c, 9, 123, 0
11, 34003, Note_on_c, 9, 44, 0
11, 34007, Note_on_c, 9, 44, 0
11, 34020, Note_on_c, 9, 42, 42
11, 34020, Note_on_c, 9, 42, 40
11, 34026, Control_c, 9, 123, 0
11, 34032, Note_on_c, 9, 42, 0
11, 34033, Note_on_c, 9, 42, 0
11, 34034, Control_c, 9, 123, 0
11, 34050, Note_on_c, 9, 44, 80
11, 34050, Note_on_c, 9, 44, 69
11, 34050, Note_on_c, 9, 35, 66
11, 34055, Control_c, 9, 123, 0
11, 34056, Control_c, 9, 123, 0
11, 34060, Note_on_c, 9, 35, 0
11, 34062, Control_c, 9, 123, 0
11, 34065, Note_on_c, 9, 44, 0
11, 34065, Note_on_c, 9, 44, 0
11, 34080, Note_on_c, 9, 42, 127
11, 34080, Note_on_c, 9, 42, 127
11, 34080, Note_on_c, 9, 35, 103
11, 34089, Control_c, 9, 123, 0
11, 34097, Control_c, 9, 123, 0
11, 34097, Control_c, 9, 123, 0
11, 34099, Note_on_c, 9, 42, 0
11, 34099, Note_on_c, 9, 42, 0
11, 34100, Note_on_c, 9, 35, 0
11, 34110, Note_on_c, 9, 44, 80
11, 34110, Note_on_c, 9, 44, 73
11, 34113, Control_c, 9, 123, 0
11, 34123, Control_c, 9, 123, 0
11, 34125, Note_on_c, 9, 44, 0
11, 34128, Note_on_c, 9, 44, 0
11, 34140, Note_on_c, 9, 42, 75
11, 34140, Note_on_c, 9, 42, 51
11, 34148, Control_c, 9, 123, 0
11, 34155, Control_c, 9, 123, 0
11, 34156, Note_on_c, 9, 42, 0
11, 34157, Note_on_c, 9, 42, 0
11, 34170, Note_on_c, 9, 44, 90
11, 34170, Note_on_c, 9, 44, 83
11, 34177, Control_c, 9, 123, 0
11, 34185, Note_on_c, 9, 44, 0
11, 34185, Control_c, 9, 123, 0
11, 34188, Note_on_c, 9, 44, 0
11, 34200, Note_on_c, 9, 42, 126
11, 34200, Note_on_c, 9, 40, 113
11, 34200, Note_on_c, 9, 42, 127
11, 34213, Control_c, 9, 123, 0
11, 34217, Note_on_c, 9, 42, 0
11, 34218, Control_c, 9, 123, 0
11, 34221, Note_on_c, 9, 42, 0
11, 34225, Control_c, 9, 123, 0
11, 34228, Note_on_c, 9, 40, 0
11, 34230, Note_on_c, 9, 44, 67
11, 34230, Note_on_c, 9, 44, 60
11, 34239, Control_c, 9, 123, 0
11, 34240, Control_c, 9, 123, 0
11, 34243, Note_on_c, 9, 44, 0
11, 34248, Note_on_c, 9, 44, 0
11, 34260, Note_on_c, 9, 42, 55
11, 34260, Note_on_c, 9, 42, 95
11, 34266, Note_on_c, 9, 42, 0
11, 34267, Control_c, 9, 123, 0
11, 34273, Control_c, 9, 123, 0
11, 34275, Note_on_c, 9, 44, 86
11, 34278, Note_on_c, 9, 42, 0
11, 34283, Control_c, 9, 123, 0
11, 34287, Note_on_c, 9, 44, 0
11, 34290, Note_on_c, 9, 42, 112
11, 34290, Note_on_c, 9, 44, 83
11, 34300, Control_c, 9, 123, 0
11, 34301, Control_c, 9, 123, 0
11, 34303, Note_on_c, 9, 42, 0
11, 34309, Note_on_c, 9, 44, 0
11, 34320, Note_on_c, 9, 44, 118
11, 34320, Note_on_c, 9, 42, 95
11, 34333, Control_c, 9, 123, 0
11, 34337, Control_c, 9, 123, 0
11, 34338, Note_on_c, 9, 44, 0
11, 34339, Note_on_c, 9, 42, 0
11, 34350, Note_on_c, 9, 44, 65
11, 34358, Control_c, 9, 123, 0
11, 34365, Note_on_c, 9, 44, 0
11, 34380, Note_on_c, 9, 42, 100
11, 34380, Note_on_c, 9, 42, 60
11, 34392, Control_c, 9, 123, 0
11, 34393, Note_on_c, 9, 42, 0
11, 34394, Control_c, 9, 123, 0
11, 34397, Note_on_c, 9, 42, 0
11, 34410, Note_on_c, 9, 44, 75
11, 34410, Note_on_c, 9, 44, 77
11, 34418, Control_c, 9, 123, 0
11, 34419, Control_c, 9, 123, 0
11, 34423, Note_on_c, 9, 44, 0
11, 34424, Note_on_c, 9, 44, 0
11, 34440, Note_on_c, 9, 42, 127
11, 34440, Note_on_c, 9, 42, 127
11, 34440, Note_on_c, 9, 40, 113
11, 34457, Control_c, 9, 123, 0
11, 34458, Note_on_c, 9, 42, 0
11, 34458, Control_c, 9, 123, 0
11, 34460, Note_on_c, 9, 42, 0
11, 34465, Note_on_c, 9, 40, 0
11, 34466, Control_c, 9, 123, 0
11, 34470, Note_on_c, 9, 44, 100
11, 34470, Note_on_c, 9, 44, 86
11, 34481, Control_c, 9, 123, 0
11, 34482, Control_c, 9, 123, 0
11, 34485, Note_on_c, 9, 44, 0
11, 34485, Note_on_c, 9, 44, 0
11, 34500, Note_on_c, 9, 42, 95
11, 34500, Note_on_c, 9, 42, 67
11, 34515, Note_on_c, 9, 42, 0
11, 34515, Control_c, 9, 123, 0
11, 34518, Control_c, 9, 123, 0
11, 34520, Note_on_c, 9, 42, 0
11, 34530, Note_on_c, 9, 46, 106
11, 34530, Note_on_c, 9, 46, 100
11, 34530, Note_on_c, 9, 35, 67
11, 34537, Control_c, 9, 123, 0
11, 34539, Note_on_c, 9, 35, 0
11, 34546, Control_c, 9, 123, 0
11, 34547, Control_c, 9, 123, 0
11, 34549, Note_on_c, 9, 46, 0
11, 34549, Note_on_c, 9, 46, 0
11, 34560, Note_on_c, 9, 42, 126
11, 34560, Note_on_c, 9, 42, 126
11, 34560, Note_on_c, 9, 35, 113
11, 34577, Note_on_c, 9, 42, 0
11, 34577, Control_c, 9, 123, 0
11, 34579, Control_c, 9, 123, 0
11, 34581, Note_on_c, 9, 35, 0
11, 34581, Control_c, 9, 123, 0
11, 34582, Note_on_c, 9, 42, 0
11, 34590, Note_on_c, 9, 44, 90
11, 34590, Note_on_c, 9, 44, 71
11, 34600, Control_c, 9, 123, 0
11, 34602, Note_on_c, 9, 44, 0
11, 34603, Control_c, 9, 123, 0
11, 34608, Note_on_c, 9, 44, 0
11, 34620, Note_on_c, 9, 42, 69
11, 34620, Note_on_c, 9, 42, 69
11, 34630, Control_c, 9, 123, 0
11, 34632, Note_on_c, 9, 42, 0
11, 34636, Control_c, 9, 123, 0
11, 34638, Note_on_c, 9, 42, 0
11, 34650, Note_on_c, 9, 44, 86
11, 34650, Note_on_c, 9, 44, 86
11, 34659, Control_c, 9, 123, 0
11, 34665, Control_c, 9, 123, 0
11, 34666, Note_on_c, 9, 44, 0
11, 34667, Note_on_c, 9, 44, 0
11, 34680, Note_on_c, 9, 42, 127
11, 34680, Note_on_c, 9, 42, 118
11, 34680, Note_on_c, 9, 40, 106
11, 34696, Control_c, 9, 123, 0
11, 34698, Note_on_c, 9, 42, 0
11, 34698, Control_c, 9, 123, 0
11, 34701, Note_on_c, 9, 42, 0
11, 34704, Note_on_c, 9, 40, 0
11, 34704, Control_c, 9, 123, 0
11, 34710, Note_on_c, 9, 44, 86
11, 34710, Note_on_c, 9, 44, 64
11, 34720, Control_c, 9, 123, 0
11, 34723, Control_c, 9, 123, 0
11, 34727, Note_on_c, 9, 44, 0
11, 34728, Note_on_c, 9, 44, 0
11, 34740, Note_on_c, 9, 42, 45
11, 34740, Note_on_c, 9, 42, 69
11, 34754, Control_c, 9, 123, 0
11, 34754, Control_c, 9, 123, 0
11, 34755, Note_on_c, 9, 42, 0
11, 34759, Note_on_c, 9, 42, 0
11, 34770, Note_on_c, 9, 44, 86
11, 34770, Note_on_c, 9, 44, 77
11, 34780, Control_c, 9, 123, 0
11, 34783, Control_c, 9, 123, 0
11, 34785, Note_on_c, 9, 44, 0
11, 34790, Note_on_c, 9, 44, 0
11, 34800, Note_on_c, 9, 42, 126
11, 34800, Note_on_c, 9, 42, 71
11, 34816, Control_c, 9, 123, 0
11, 34817, Control_c, 9, 123, 0
11, 34819, Note_on_c, 9, 42, 0
11, 34821, Note_on_c, 9, 42, 0
11, 34830, Note_on_c, 9, 44, 83
11, 34830, Note_on_c, 9, 44, 67
11, 34838, Control_c, 9, 123, 0
11, 34841, Control_c, 9, 123, 0
11, 34845, Note_on_c, 9, 44, 0
11, 34848, Note_on_c, 9, 44, 0
11, 34860, Note_on_c, 9, 42, 53
11, 34860, Note_on_c, 9, 42, 75
11, 34872, Control_c, 9, 123, 0
11, 34873, Control_c, 9, 123, 0
11, 34875, Note_on_c, 9, 44, 75
11, 34878, Note_on_c, 9, 42, 0
11, 34878, Note_on_c, 9, 42, 0
11, 34890, Note_on_c, 9, 44, 73
11, 34891, Note_on_c, 9, 44, 0
11, 34898, Control_c, 9, 123, 0
11, 34904, Control_c, 9, 123, 0
11, 34910, Note_on_c, 9, 44, 0
11, 34920, Note_on_c, 9, 42, 127
11, 34920, Note_on_c, 9, 40, 117
11, 34920, Note_on_c, 9, 42, 83
11, 34938, Control_c, 9, 123, 0
11, 34938, Control_c, 9, 123, 0
11, 34939, Note_on_c, 9, 42, 0
11, 34939, Note_on_c, 9, 42, 0
11, 34943, Control_c, 9, 123, 0
11, 34945, Note_on_c, 9, 40, 0
11, 34950, Note_on_c, 9, 44, 69
11, 34950, Note_on_c, 9, 44, 77
11, 34961, Control_c, 9, 123, 0
11, 34962, Control_c, 9, 123, 0
11, 34965, Note_on_c, 9, 44, 0
11, 34967, Note_on_c, 9, 44, 0
11, 34980, Note_on_c, 9, 50, 68
11, 34980, Note_on_c, 9, 42, 69
11, 34980, Note_on_c, 9, 42, 73
11, 34983, Note_on_c, 9, 50, 0
11, 34984, Control_c, 9, 123, 0
11, 34994, Control_c, 9, 123, 0
11, 34995, Note_on_c, 9, 42, 0
11, 34995, Note_on_c, 9, 42, 0
11, 34995, Note_on_c, 9, 50, 71
11, 34995, Control_c, 9, 123, 0
11, 34999, Control_c, 9, 123, 0
11, 35003, Note_on_c, 9, 50, 0
11, 35010, Note_on_c, 9, 50, 71
11, 35010, Note_on_c, 9, 44, 73
11, 35010, Note_on_c, 9, 44, 75
11, 35010, Control_c, 9, 123, 0
11, 35016, Note_on_c, 9, 50, 0
11, 35022, Control_c, 9, 123, 0
11, 35025, Control_c, 9, 123, 0
11, 35026, Note_on_c, 9, 44, 0
11, 35029, Note_on_c, 9, 44, 0
11, 35040, Note_on_c, 9, 50, 106
11, 35040, Note_on_c, 9, 42, 127
11, 35040, Note_on_c, 9, 42, 73
11, 35040, Note_on_c, 9, 35, 71
11, 35052, Note_on_c, 9, 35, 0
11, 35054, Control_c, 9, 123, 0
11, 35056, Control_c, 9, 123, 0
11, 35057, Control_c, 9, 123, 0
11, 35058, Note_on_c, 9, 42, 0
11, 35060, Note_on_c, 9, 42, 0
11, 35070, Note_on_c, 9, 44, 73
11, 35070, Note_on_c, 9, 44, 86
11, 35070, Note_on_c, 9, 35, 100
11, 35076, Control_c, 9, 123, 0
11, 35078, Note_on_c, 9, 50, 0
11, 35080, Control_c, 9, 123, 0
11, 35081, Control_c, 9, 123, 0
11, 35084, Note_on_c, 9, 44, 0
11, 35087, Control_c, 9, 123, 0
11, 35088, Note_on_c, 9, 44, 0
11, 35088, Note_on_c, 9, 35, 0
11, 35100, Note_on_c, 9, 42, 77
11, 35100, Note_on_c, 9, 42, 51
11, 35113, Control_c, 9, 123, 0
11, 35113, Control_c, 9, 123, 0
11, 35115, Note_on_c, 9, 42, 0
11, 35115, Note_on_c, 9, 42, 0
11, 35130, Note_on_c, 9, 50, 80
11, 35130, Note_on_c, 9, 44, 90
11, 35130, Note_on_c, 9, 44, 80
11, 35141, Control_c, 9, 123, 0
11, 35144, Control_c, 9, 123, 0
11, 35144, Control_c, 9, 123, 0
11, 35146, Note_on_c, 9, 44, 0
11, 35148, Note_on_c, 9, 50, 0
11, 35148, Note_on_c, 9, 44, 0
11, 35160, Note_on_c, 9, 48, 122
11, 35160, Note_on_c, 9, 42, 127
11, 35160, Note_on_c, 9, 42, 127
11, 35160, Note_on_c, 9, 40, 122
11, 35176, Control_c, 9, 123, 0
11, 35177, Note_on_c, 9, 48, 0
11, 35177, Control_c, 9, 123, 0
11, 35178, Note_on_c, 9, 42, 0
11, 35179, Control_c, 9, 123, 0
11, 35180, Note_on_c, 9, 42, 0
11, 35184, Note_on_c, 9, 40, 0
11, 35186, Control_c, 9, 123, 0
11, 35190, Note_on_c, 9, 48, 109
11, 35190, Note_on_c, 9, 44, 67
11, 35190, Note_on_c, 9, 44, 90
11, 35198, Control_c, 9, 123, 0
11, 35200, Note_on_c, 9, 44, 0
11, 35204, Control_c, 9, 123, 0
11, 35206, Note_on_c, 9, 48, 0
11, 35206, Note_on_c, 9, 44, 0
11, 35207, Control_c, 9, 123, 0
11, 35220, Note_on_c, 9, 48, 82
11, 35220, Note_on_c, 9, 42, 71
11, 35222, Control_c, 9, 123, 0
11, 35223, Note_on_c, 9, 42, 0
11, 35228, Control_c, 9, 123, 0
11, 35231, Note_on_c, 9, 48, 0
11, 35235, Note_on_c, 9, 44, 80
11, 35239, Control_c, 9, 123, 0
11, 35243, Note_on_c, 9, 44, 0
11, 35250, Note_on_c, 9, 48, 76
11, 35250, Note_on_c, 9, 42, 127
11, 35250, Note_on_c, 9, 44, 100
11, 35252, Control_c, 9, 123, 0
11, 35258, Note_on_c, 9, 42, 0
11, 35263, Control_c, 9, 123, 0
11, 35265, Note_on_c, 9, 48, 0
11, 35266, Control_c, 9, 123, 0
11, 35269, Note_on_c, 9, 44, 0
11, 35280, Note_on_c, 9, 45, 103
11, 35280, Note_on_c, 9, 44, 112
11, 35280, Note_on_c, 9, 42, 106
11, 35294, Control_c, 9, 123, 0
11, 35295, Control_c, 9, 123, 0
11, 35295, Control_c, 9, 123, 0
11, 35296, Note_on_c, 9, 45, 0
11, 35298, Note_on_c, 9, 44, 0
11, 35300, Note_on_c, 9, 42, 0
11, 35310, Note_on_c, 9, 45, 82
11, 35310, Note_on_c, 9, 44, 100
11, 35322, Control_c, 9, 123, 0
11, 35326, Control_c, 9, 123, 0
11, 35327, Note_on_c, 9, 44, 0
11, 35331, Note_on_c, 9, 45, 0
11, 35340, Note_on_c, 9, 45, 86
11, 35340, Note_on_c, 9, 42, 118
11, 35349, Control_c, 9, 123, 0
11, 35351, Note_on_c, 9, 42, 0
11, 35355, Control_c, 9, 123, 0
11, 35358, Note_on_c, 9, 45, 0
11, 35370, Note_on_c, 9, 45, 86
11, 35370, Note_on_c, 9, 44, 106
11, 35370, Note_on_c, 9, 44, 73
11, 35377, Control_c, 9, 123, 0
11, 35380, Control_c, 9, 123, 0
11, 35384, Note_on_c, 9, 44, 0
11, 35385, Note_on_c, 9, 44, 0
11, 35388, Control_c, 9, 123, 0
11, 35392, Note_on_c, 9, 45, 0
11, 35400, Note_on_c, 9, 41, 80
11, 35400, Note_on_c, 9, 42, 127
11, 35400, Note_on_c, 9, 42, 127
11, 35400, Note_on_c, 9, 40, 117
11, 35406, Control_c, 9, 123, 0
11, 35408, Note_on_c, 9, 41, 0
11, 35414, Control_c, 9, 123, 0
11, 35417, Control_c, 9, 123, 0
11, 35418, Note_on_c, 9, 42, 0
11, 35419, Note_on_c, 9, 42, 0
11, 35424, Control_c, 9, 123, 0
11, 35425, Note_on_c, 9, 40, 0
11, 35430, Note_on_c, 9, 41, 77
11, 35430, Note_on_c, 9, 44, 100
11, 35430, Note_on_c, 9, 46, 100
11, 35435, Control_c, 9, 123, 0
11, 35440, Control_c, 9, 123, 0
11, 35441, Note_on_c, 9, 41, 0
11, 35444, Control_c, 9, 123, 0
11, 35445, Note_on_c, 9, 44, 0
11, 35452, Note_on_c, 9, 46, 0
11, 35460, Note_on_c, 9, 41, 54
11, 35460, Note_on_c, 9, 42, 118
11, 35460, Note_on_c, 9, 42, 67
11, 35466, Note_on_c, 9, 41, 0
11, 35466, Control_c, 9, 123, 0
11, 35472, Control_c, 9, 123, 0
11, 35474, Control_c, 9, 123, 0
11, 35475, Note_on_c, 9, 42, 0
11, 35476, Note_on_c, 9, 42, 0
11, 35490, Note_on_c, 9, 41, 71
11, 35490, Note_on_c, 9, 46, 118
11, 35490, Note_on_c, 9, 46, 118
11, 35490, Note_on_c, 9, 35, 68
11, 35503, Control_c, 9, 123, 0
11, 35503, Control_c, 9, 123, 0
11, 35503, Control_c, 9, 123, 0
11, 35504, Note_on_c, 9, 35, 0
11, 35504, Control_c, 9, 123, 0
11, 35506, Note_on_c, 9, 41, 0
11, 35509, Note_on_c, 9, 46, 0
11, 35509, Note_on_c, 9, 46, 0
11, 35520, Note_on_c, 9, 42, 127
11, 35520, Note_on_c, 9, 42, 77
11, 35520, Note_on_c, 9, 35, 95
11, 35520, Note_on_c, 9, 49, 118
11, 35533, Control_c, 9, 123, 0
11, 35535, Control_c, 9, 123, 0
11, 35536, Note_on_c, 9, 42, 0
11, 35539, Note_on_c, 9, 42, 0
11, 35544, Control_c, 9, 123, 0
11, 35545, Note_on_c, 9, 35, 0
11, 35550, Note_on_c, 9, 44, 86
11, 35550, Note_on_c, 9, 44, 73
11, 35560, Control_c, 9, 123, 0
11, 35563, Control_c, 9, 123, 0
11, 35565, Note_on_c, 9, 44, 0
11, 35566, Note_on_c, 9, 44, 0
11, 35580, Note_on_c, 9, 42, 73
11, 35580, Note_on_c, 9, 42, 64
11, 35595, Control_c, 9, 123, 0
11, 35596, Note_on_c, 9, 42, 0
11, 35596, Note_on_c, 9, 42, 0
11, 35596, Control_c, 9, 123, 0
11, 35610, Note_on_c, 9, 44, 83
11, 35610, Note_on_c, 9, 44, 83
11, 35619, Control_c, 9, 123, 0
11, 35625, Note_on_c, 9, 44, 0
11, 35627, Control_c, 9, 123, 0
11, 35628, Note_on_c, 9, 44, 0
11, 35640, Note_on_c, 9, 42, 127
11, 35640, Note_on_c, 9, 42, 127
11, 35640, Note_on_c, 9, 40, 113
11, 35655, Control_c, 9, 123, 0
11, 35658, Note_on_c, 9, 42, 0
11, 35662, Note_on_c, 9, 42, 0
11, 35662, Control_c, 9, 123, 0
11, 35664, Note_on_c, 9, 40, 0
11, 35665, Control_c, 9, 123, 0
11, 35670, Note_on_c, 9, 44, 90
11, 35670, Note_on_c, 9, 44, 75
11, 35680, Control_c, 9, 123, 0
11, 35685, Note_on_c, 9, 44, 0
11, 35688, Note_on_c, 9, 44, 0
11, 35690, Control_c, 9, 123, 0
11, 35700, Note_on_c, 9, 42, 83
11, 35700, Note_on_c, 9, 42, 64
11, 35714, Control_c, 9, 123, 0
11, 35715, Note_on_c, 9, 42, 0
11, 35715, Control_c, 9, 123, 0
11, 35716, Note_on_c, 9, 42, 0
11, 35730, Note_on_c, 9, 44, 100
11, 35730, Note_on_c, 9, 44, 86
11, 35746, Note_on_c, 9, 49, 0
11, 35746, Note_on_c, 9, 44, 0
11, 35746, Control_c, 9, 123, 0
11, 35747, Control_c, 9, 123, 0
11, 35747, Control_c, 9, 123, 0
11, 35748, Note_on_c, 9, 44, 0
11, 35760, Note_on_c, 9, 42, 75
11, 35760, Note_on_c, 9, 42, 106
11, 35775, Control_c, 9, 123, 0
11, 35776, Note_on_c, 9, 42, 0
11, 35776, Note_on_c, 9, 42, 0
11, 35779, Control_c, 9, 123, 0
11, 35790, Note_on_c, 9, 44, 90
11, 35790, Note_on_c, 9, 44, 64
11, 35802, Control_c, 9, 123, 0
11, 35802, Control_c, 9, 123, 0
11, 35804, Note_on_c, 9, 44, 0
11, 35808, Note_on_c, 9, 44, 0
11, 35820, Note_on_c, 9, 42, 86
11, 35820, Note_on_c, 9, 42, 69
11, 35833, Control_c, 9, 123, 0
11, 35835, Control_c, 9, 123, 0
11, 35836, Note_on_c, 9, 42, 0
11, 35838, Note_on_c, 9, 42, 0
11, 35850, Note_on_c, 9, 44, 80
11, 35850, Note_on_c, 9, 44, 80
11, 35865, Control_c, 9, 123, 0
11, 35866, Control_c, 9, 123, 0
11, 35868, Note_on_c, 9, 44, 0
11, 35871, Note_on_c, 9, 44, 0
11, 35880, Note_on_c, 9, 42, 127
11, 35880, Note_on_c, 9, 40, 113
11, 35880, Note_on_c, 9, 42, 69
11, 35895, Control_c, 9, 123, 0
11, 35897, Note_on_c, 9, 42, 0
11, 35898, Note_on_c, 9, 42, 0
11, 35898, Control_c, 9, 123, 0
11, 35899, Control_c, 9, 123, 0
11, 35901, Note_on_c, 9, 40, 0
11, 35910, Note_on_c, 9, 44, 71
11, 35910, Note_on_c, 9, 44, 90
11, 35916, Control_c, 9, 123, 0
11, 35922, Note_on_c, 9, 44, 0
11, 35925, Control_c, 9, 123, 0
11, 35930, Note_on_c, 9, 44, 0
11, 35940, Note_on_c, 9, 42, 95
11, 35940, Note_on_c, 9, 42, 69
11, 35943, Control_c, 9, 123, 0
11, 35948, Note_on_c, 9, 42, 0
11, 35954, Control_c, 9, 123, 0
11, 35955, Note_on_c, 9, 44, 95
11, 35959, Note_on_c, 9, 42, 0
11, 35962, Control_c, 9, 123, 0
11, 35968, Note_on_c, 9, 44, 0
11, 35970, Note_on_c, 9, 42, 127
11, 35970, Note_on_c, 9, 35, 63
11, 35970, Note_on_c, 9, 44, 77
11, 35979, Control_c, 9, 123, 0
11, 35980, Note_on_c, 9, 35, 0
11, 35981, Control_c, 9, 123, 0
11, 35985, Note_on_c, 9, 42, 0
11, 35987, Control_c, 9, 123, 0
11, 35989, Note_on_c, 9, 44, 0
11, 36000, Note_on_c, 9, 44, 118
11, 36000, Note_on_c, 9, 35, 109
11, 36000, Note_on_c, 9, 42, 73
11, 36014, Control_c, 9, 123, 0
11, 36018, Note_on_c, 9, 44, 0
11, 36020, Note_on_c, 9, 42, 0
11, 36020, Control_c, 9, 123, 0
11, 36020, Control_c, 9, 123, 0
11, 36022, Note_on_c, 9, 35, 0
11, 36030, Note_on_c, 9, 44, 83
11, 36047, Control_c, 9, 123, 0
11, 36048, Note_on_c, 9, 44, 0
11, 36060, Note_on_c, 9, 42, 90
11, 36060, Note_on_c, 9, 42, 65
11, 36069, Control_c, 9, 123, 0
11, 36072, Note_on_c, 9, 42, 0
11, 36075, Note_on_c, 9, 42, 0
11, 36075, Note_on_c, 9, 44, 90
11, 36077, Control_c, 9, 123, 0
11, 36090, Note_on_c, 9, 44, 0
11, 36090, Note_on_c, 9, 44, 95
11, 36098, Control_c, 9, 123, 0
11, 36108, Control_c, 9, 123, 0
11, 36109, Note_on_c, 9, 44, 0
11, 36120, Note_on_c, 9, 42, 127
11, 36120, Note_on_c, 9, 40, 109
11, 36120, Note_on_c, 9, 42, 127
11, 36135, Control_c, 9, 123, 0
11, 36140, Note_on_c, 9, 42, 0
11, 36140, Note_on_c, 9, 42, 0
11, 36140, Control_c, 9, 123, 0
11, 36143, Control_c, 9, 123, 0
11, 36145, Note_on_c, 9, 40, 0
11, 36150, Note_on_c, 9, 44, 90
11, 36150, Note_on_c, 9, 44, 73
11, 36159, Control_c, 9, 123, 0
11, 36163, Note_on_c, 9, 44, 0
11, 36168, Control_c, 9, 123, 0
11, 36169, Note_on_c, 9, 44, 0
11, 36180, Note_on_c, 9, 42, 57
11, 36192, Note_on_c, 9, 42, 0
11, 36193, Control_c, 9, 123, 0
11, 36210, Note_on_c, 9, 44, 95
11, 36210, Note_on_c, 9, 44, 95
11, 36223, Control_c, 9, 123, 0
11, 36225, Note_on_c, 9, 44, 0
11, 36225, Control_c, 9, 123, 0
11, 36228, Note_on_c, 9, 44, 0
11, 36240, Note_on_c, 9, 42, 106
11, 36240, Note_on_c, 9, 42, 73
11, 36255, Note_on_c, 9, 42, 0
11, 36255, Control_c, 9, 123, 0
11, 36255, Control_c, 9, 123, 0
11, 36256, Note_on_c, 9, 42, 0
11, 36270, Note_on_c, 9, 46, 126
11, 36270, Note_on_c, 9, 44, 90
11, 36285, Control_c, 9, 123, 0
11, 36287, Note_on_c, 9, 46, 0
11, 36287, Control_c, 9, 123, 0
11, 36288, Note_on_c, 9, 44, 0
11, 36300, Note_on_c, 9, 42, 95
11, 36300, Note_on_c, 9, 42, 67
11, 36312, Control_c, 9, 123, 0
11, 36314, Note_on_c, 9, 42, 0
11, 36315, Control_c, 9, 123, 0
11, 36317, Note_on_c, 9, 42, 0
11, 36330, Note_on_c, 9, 44, 80
11, 36330, Note_on_c, 9, 44, 100
11, 36340, Control_c, 9, 123, 0
11, 36341, Note_on_c, 9, 44, 0
11, 36348, Note_on_c, 9, 44, 0
11, 36349, Control_c, 9, 123, 0
11, 36360, Note_on_c, 9, 42, 127
11, 36360, Note_on_c, 9, 42, 100
11, 36360, Note_on_c, 9, 40, 113
11, 36375, Note_on_c, 9, 42, 0
11, 36375, Control_c, 9, 123, 0
11, 36379, Control_c, 9, 123, 0
11, 36380, Note_on_c, 9, 42, 0
11, 36384, Note_on_c, 9, 40, 0
11, 36384, Control_c, 9, 123, 0
11, 36390, Note_on_c, 9, 44, 95
11, 36390, Note_on_c, 9, 44, 75
11, 36400, Note_on_c, 9, 44, 0
11, 36400, Control_c, 9, 123, 0
11, 36406, Control_c, 9, 123, 0
11, 36409, Note_on_c, 9, 44, 0
11, 36420, Note_on_c, 9, 42, 77
11, 36420, Note_on_c, 9, 42, 65
11, 36433, Control_c, 9, 123, 0
11, 36434, Note_on_c, 9, 42, 0
11, 36437, Control_c, 9, 123, 0
11, 36441, Note_on_c, 9, 42, 0
11, 36450, Note_on_c, 9, 46, 126
11, 36450, Note_on_c, 9, 46, 126
11, 36450, Note_on_c, 9, 35, 68
11, 36460, Note_on_c, 9, 35, 0
11, 36460, Control_c, 9, 123, 0
11, 36465, Control_c, 9, 123, 0
11, 36467, Control_c, 9, 123, 0
11, 36468, Note_on_c, 9, 46, 0
11, 36469, Note_on_c, 9, 46, 0
11, 36480, Note_on_c, 9, 42, 112
11, 36480, Note_on_c, 9, 42, 69
11, 36480, Note_on_c, 9, 35, 100
11, 36498, Control_c, 9, 123, 0
11, 36498, Control_c, 9, 123, 0
11, 36499, Control_c, 9, 123, 0
11, 36500, Note_on_c, 9, 42, 0
11, 36501, Note_on_c, 9, 35, 0
11, 36502, Note_on_c, 9, 42, 0
11, 36510, Note_on_c, 9, 44, 86
11, 36510, Note_on_c, 9, 46, 86
11, 36523, Control_c, 9, 123, 0
11, 36525, Note_on_c, 9, 44, 0
11, 36527, Control_c, 9, 123, 0
11, 36532, Note_on_c, 9, 46, 0
11, 36540, Note_on_c, 9, 42, 73
11, 36540, Note_on_c, 9, 42, 63
11, 36547, Note_on_c, 9, 42, 0
11, 36547, Control_c, 9, 123, 0
11, 36555, Control_c, 9, 123, 0
11, 36556, Note_on_c, 9, 42, 0
11, 36570, Note_on_c, 9, 44, 95
11, 36570, Note_on_c, 9, 44, 73
11, 36580, Control_c, 9, 123, 0
11, 36583, Note_on_c, 9, 44, 0
11, 36583, Control_c, 9, 123, 0
11, 36589, Note_on_c, 9, 44, 0
11, 36600, Note_on_c, 9, 42, 127
11, 36600, Note_on_c, 9, 42, 90
11, 36600, Note_on_c, 9, 40, 109
11, 36615, Control_c, 9, 123, 0
11, 36618, Note_on_c, 9, 42, 0
11, 36619, Control_c, 9, 123, 0
11, 36624, Note_on_c, 9, 42, 0
11, 36625, Note_on_c, 9, 40, 0
11, 36627, Control_c, 9, 123, 0
11, 36630, Note_on_c, 9, 44, 86
11, 36630, Note_on_c, 9, 44, 52
11, 36640, Control_c, 9, 123, 0
11, 36642, Note_on_c, 9, 44, 0
11, 36642, Control_c, 9, 123, 0
11, 36646, Note_on_c, 9, 44, 0
11, 36660, Note_on_c, 9, 42, 53
11, 36660, Note_on_c, 9, 42, 77
11, 36673, Note_on_c, 9, 42, 0
11, 36676, Control_c, 9, 123, 0
11, 36679, Note_on_c, 9, 42, 0
11, 36680, Control_c, 9, 123, 0
11, 36690, Note_on_c, 9, 44, 86
11, 36690, Note_on_c, 9, 44, 80
11, 36707, Note_on_c, 9, 44, 0
11, 36707, Control_c, 9, 123, 0
11, 36710, Control_c, 9, 123, 0
11, 36711, Note_on_c, 9, 44, 0
11, 36720, Note_on_c, 9, 42, 65
11, 36720, Note_on_c, 9, 42, 126
11, 36738, Note_on_c, 9, 42, 0
11, 36739, Control_c, 9, 123, 0
11, 36740, Note_on_c, 9, 42, 0
11, 36741, Control_c, 9, 123, 0
11, 36750, Note_on_c, 9, 44, 100
11, 36750, Note_on_c, 9, 44, 95
11, 36764, Note_on_c, 9, 44, 0
11, 36765, Control_c, 9, 123, 0
11, 36770, Control_c, 9, 123, 0
11, 36772, Note_on_c, 9, 44, 0
11, 36780, Note_on_c, 9, 42, 51
11, 36780, Note_on_c, 9, 42, 77
11, 36791, Control_c, 9, 123, 0
11, 36792, Note_on_c, 9, 42, 0
11, 36796, Note_on_c, 9, 42, 0
11, 36797, Control_c, 9, 123, 0
11, 36810, Note_on_c, 9, 44, 80
11, 36810, Note_on_c, 9, 44, 100
11, 36826, Control_c, 9, 123, 0
11, 36826, Control_c, 9, 123, 0
11, 36827, Note_on_c, 9, 44, 0
11, 36828, Note_on_c, 9, 44, 0
11, 36840, Note_on_c, 9, 42, 127
11, 36840, Note_on_c, 9, 42, 95
11, 36840, Note_on_c, 9, 40, 117
11, 36857, Control_c, 9, 123, 0
11, 36858, Note_on_c, 9, 42, 0
11, 36858, Control_c, 9, 123, 0
11, 36860, Note_on_c, 9, 42, 0
11, 36868, Note_on_c, 9, 40, 0
11, 36870, Note_on_c, 9, 44, 83
11, 36870, Note_on_c, 9, 44, 67
11, 36870, Control_c, 9, 123, 0
11, 36879, Control_c, 9, 123, 0
11, 36881, Control_c, 9, 123, 0
11, 36883, Note_on_c, 9, 44, 0
11, 36887, Note_on_c, 9, 44, 0
11, 36900, Note_on_c, 9, 42, 55
11, 36900, Note_on_c, 9, 42, 83
11, 36905, Note_on_c, 9, 42, 0
11, 36906, Control_c, 9, 123, 0
11, 36911, Control_c, 9, 123, 0
11, 36913, Note_on_c, 9, 42, 0
11, 36915, Note_on_c, 9, 44, 86
11, 36923, Control_c, 9, 123, 0
11, 36926, Note_on_c, 9, 44, 0
11, 36930, Note_on_c, 9, 42, 127
11, 36930, Note_on_c, 9, 44, 71
11, 36930, Note_on_c, 9, 35, 74
11, 36938, Control_c, 9, 123, 0
11, 36939, Control_c, 9, 123, 0
11, 36940, Note_on_c, 9, 35, 0
11, 36941, Control_c, 9, 123, 0
11, 36944, Note_on_c, 9, 42, 0
11, 36945, Note_on_c, 9, 44, 112
11, 36947, Note_on_c, 9, 44, 0
11, 36960, Note_on_c, 9, 42, 80
11, 36960, Note_on_c, 9, 35, 76
11, 36961, Note_on_c, 9, 44, 0
11, 36966, Control_c, 9, 123, 0
11, 36968, Note_on_c, 9, 35, 0
11, 36968, Control_c, 9, 123, 0
11, 36972, Control_c, 9, 123, 0
11, 36977, Note_on_c, 9, 42, 0
11, 36990, Note_on_c, 9, 44, 83
11, 36990, Note_on_c, 9, 35, 95
11, 37000, Control_c, 9, 123, 0
11, 37004, Control_c, 9, 123, 0
11, 37006, Note_on_c, 9, 44, 0
11, 37008, Note_on_c, 9, 35, 0
11, 37020, Note_on_c, 9, 42, 112
11, 37020, Note_on_c, 9, 42, 54
11, 37029, Control_c, 9, 123, 0
11, 37032, Note_on_c, 9, 42, 0
11, 37033, Note_on_c, 9, 42, 0
11, 37033, Control_c, 9, 123, 0
11, 37050, Note_on_c, 9, 44, 95
11, 37050, Note_on_c, 9, 44, 71
11, 37061, Control_c, 9, 123, 0
11, 37064, Note_on_c, 9, 44, 0
11, 37068, Control_c, 9, 123, 0
11, 37069, Note_on_c, 9, 44, 0
11, 37080, Note_on_c, 9, 42, 127
11, 37080, Note_on_c, 9, 40, 109
11, 37080, Note_on_c, 9, 42, 127
11, 37096, Note_on_c, 9, 42, 0
11, 37096, Control_c, 9, 123, 0
11, 37097, Control_c, 9, 123, 0
11, 37098, Note_on_c, 9, 42, 0
11, 37110, Note_on_c, 9, 44, 90
11, 37110, Note_on_c, 9, 44, 65
11, 37118, Note_on_c, 9, 40, 0
11, 37118, Control_c, 9, 123, 0
11, 37120, Control_c, 9, 123, 0
11, 37122, Note_on_c, 9, 44, 0
11, 37123, Control_c, 9, 123, 0
11, 37125, Note_on_c, 9, 44, 0
11, 37140, Note_on_c, 9, 42, 75
11, 37140, Note_on_c, 9, 44, 77
11, 37140, Note_on_c, 9, 42, 59
11, 37141, Control_c, 9, 123, 0
11, 37146, Note_on_c, 9, 42, 0
11, 37154, Note_on_c, 9, 44, 0
11, 37154, Note_on_c, 9, 42, 0
11, 37156, Control_c, 9, 123, 0
11, 37161, Control_c, 9, 123, 0
11, 37170, Note_on_c, 9, 44, 86
11, 37170, Note_on_c, 9, 42, 106
11, 37179, Control_c, 9, 123, 0
11, 37184, Note_on_c, 9, 44, 0
11, 37185, Note_on_c, 9, 42, 0
11, 37185, Control_c, 9, 123, 0
11, 37200, Note_on_c, 9, 44, 112
11, 37200, Note_on_c, 9, 42, 106
11, 37215, Note_on_c, 9, 42, 0
11, 37215, Control_c, 9, 123, 0
11, 37217, Control_c, 9, 123, 0
11, 37224, Note_on_c, 9, 44, 0
11, 37230, Note_on_c, 9, 46, 126
11, 37247, Control_c, 9, 123, 0
11, 37248, Note_on_c, 9, 46, 0
11, 37260, Note_on_c, 9, 42, 71
11, 37260, Note_on_c, 9, 42, 67
11, 37265, Control_c, 9, 123, 0
11, 37267, Control_c, 9, 123, 0
11, 37269, Note_on_c, 9, 42, 0
11, 37275, Note_on_c, 9, 42, 0
11, 37290, Note_on_c, 9, 44, 75
11, 37290, Note_on_c, 9, 44, 75
11, 37297, Control_c, 9, 123, 0
11, 37303, Control_c, 9, 123, 0
11, 37305, Note_on_c, 9, 44, 0
11, 37307, Note_on_c, 9, 44, 0
11, 37320, Note_on_c, 9, 42, 127
11, 37320, Note_on_c, 9, 42, 127
11, 37320, Note_on_c, 9, 40, 122
11, 37334, Control_c, 9, 123, 0
11, 37337, Control_c, 9, 123, 0
11, 37338, Note_on_c, 9, 42, 0
11, 37340, Note_on_c, 9, 42, 0
11, 37341, Control_c, 9, 123, 0
11, 37345, Note_on_c, 9, 40, 0
11, 37350, Note_on_c, 9, 46, 126
11, 37350, Note_on_c, 9, 44, 86
11, 37359, Control_c, 9, 123, 0
11, 37364, Control_c, 9, 123, 0
11, 37365, Note_on_c, 9, 46, 0
11, 37365, Note_on_c, 9, 44, 0
11, 37380, Note_on_c, 9, 42, 106
11, 37380, Note_on_c, 9, 42, 57
11, 37393, Control_c, 9, 123, 0
11, 37393, Control_c, 9, 123, 0
11, 37394, Note_on_c, 9, 42, 0
11, 37397, Note_on_c, 9, 42, 0
11, 37410, Note_on_c, 9, 44, 95
11, 37410, Note_on_c, 9, 46, 112
11, 37410, Note_on_c, 9, 35, 80
11, 37422, Control_c, 9, 123, 0
11, 37423, Control_c, 9, 123, 0
11, 37425, Note_on_c, 9, 35, 0
11, 37429, Note_on_c, 9, 44, 0
11, 37429, Note_on_c, 9, 46, 0
11, 37429, Control_c, 9, 123, 0
11, 37440, Note_on_c, 9, 42, 80
11, 37440, Note_on_c, 9, 35, 103
11, 37440, Note_on_c, 9, 42, 127
11, 37455, Control_c, 9, 123, 0
11, 37458, Note_on_c, 9, 42, 0
11, 37459, Control_c, 9, 123, 0
11, 37461, Note_on_c, 9, 42, 0
11, 37463, Control_c, 9, 123, 0
11, 37465, Note_on_c, 9, 35, 0
11, 37470, Note_on_c, 9, 44, 71
11, 37470, Note_on_c, 9, 44, 73
11, 37482, Note_on_c, 9, 44, 0
11, 37483, Control_c, 9, 123, 0
11, 37483, Control_c, 9, 123, 0
11, 37489, Note_on_c, 9, 44, 0
11, 37500, Note_on_c, 9, 42, 55
11, 37500, Note_on_c, 9, 42, 64
11, 37512, Control_c, 9, 123, 0
11, 37514, Note_on_c, 9, 42, 0
11, 37515, Note_on_c, 9, 42, 0
11, 37516, Control_c, 9, 123, 0
11, 37530, Note_on_c, 9, 44, 83
11, 37530, Note_on_c, 9, 44, 100
11, 37543, Control_c, 9, 123, 0
11, 37545, Note_on_c, 9, 44, 0
11, 37546, Control_c, 9, 123, 0
11, 37548, Note_on_c, 9, 44, 0
11, 37560, Note_on_c, 9, 42, 127
11, 37560, Note_on_c, 9, 40, 109
11, 37560, Note_on_c, 9, 42, 127
11, 37575, Control_c, 9, 123, 0
11, 37576, Note_on_c, 9, 42, 0
11, 37578, Note_on_c, 9, 42, 0
11, 37579, Control_c, 9, 123, 0
11, 37585, Control_c, 9, 123, 0
11, 37586, Note_on_c, 9, 40, 0
11, 37590, Note_on_c, 9, 44, 77
11, 37590, Note_on_c, 9, 44, 80
11, 37602, Note_on_c, 9, 44, 0
11, 37604, Control_c, 9, 123, 0
11, 37605, Note_on_c, 9, 44, 0
11, 37605, Control_c, 9, 123, 0
11, 37620, Note_on_c, 9, 42, 77
11, 37620, Note_on_c, 9, 42, 51
11, 37632, Note_on_c, 9, 42, 0
11, 37634, Control_c, 9, 123, 0
11, 37635, Note_on_c, 9, 42, 0
11, 37635, Control_c, 9, 123, 0
11, 37650, Note_on_c, 9, 44, 86
11, 37650, Note_on_c, 9, 44, 80
11, 37662, Control_c, 9, 123, 0
11, 37664, Note_on_c, 9, 44, 0
11, 37664, Control_c, 9, 123, 0
11, 37666, Note_on_c, 9, 44, 0
11, 37680, Note_on_c, 9, 42, 126
11, 37680, Note_on_c, 9, 42, 58
11, 37694, Control_c, 9, 123, 0
11, 37696, Note_on_c, 9, 42, 0
11, 37697, Note_on_c, 9, 42, 0
11, 37697, Control_c, 9, 123, 0
11, 37710, Note_on_c, 9, 44, 77
11, 37710, Note_on_c, 9, 44, 71
11, 37719, Control_c, 9, 123, 0
11, 37723, Note_on_c, 9, 44, 0
11, 37724, Control_c, 9, 123, 0
11, 37728, Note_on_c, 9, 44, 0
11, 37740, Note_on_c, 9, 42, 90
11, 37740, Note_on_c, 9, 42, 59
11, 37753, Control_c, 9, 123, 0
11, 37756, Note_on_c, 9, 42, 0
11, 37757, Control_c, 9, 123, 0
11, 37759, Note_on_c, 9, 42, 0
11, 37770, Note_on_c, 9, 44, 95
11, 37770, Note_on_c, 9, 44, 80
11, 37780, Control_c, 9, 123, 0
11, 37781, Control_c, 9, 123, 0
11, 37785, Note_on_c, 9, 44, 0
11, 37786, Note_on_c, 9, 44, 0
11, 37800, Note_on_c, 9, 42, 112
11, 37800, Note_on_c, 9, 40, 109
11, 37800, Note_on_c, 9, 42, 106
11, 37813, Control_c, 9, 123, 0
11, 37818, Note_on_c, 9, 42, 0
11, 37818, Control_c, 9, 123, 0
11, 37819, Note_on_c, 9, 42, 0
11, 37820, Control_c, 9, 123, 0
11, 37827, Note_on_c, 9, 40, 0
11, 37830, Note_on_c, 9, 44, 75
11, 37830, Note_on_c, 9, 44, 71
11, 37839, Control_c, 9, 123, 0
11, 37841, Control_c, 9, 123, 0
11, 37845, Note_on_c, 9, 44, 0
11, 37846, Note_on_c, 9, 44, 0
11, 37860, Note_on_c, 9, 42, 106
11, 37860, Note_on_c, 9, 42, 57
11, 37866, Note_on_c, 9, 42, 0
11, 37866, Control_c, 9, 123, 0
11, 37872, Control_c, 9, 123, 0
11, 37875, Note_on_c, 9, 44, 100
11, 37877, Note_on_c, 9, 42, 0
11, 37887, Note_on_c, 9, 44, 0
11, 37890, Note_on_c, 9, 42, 127
11, 37890, Note_on_c, 9, 44, 95
11, 37890, Note_on_c, 9, 35, 58
11, 37898, Control_c, 9, 123, 0
11, 37902, Note_on_c, 9, 35, 0
11, 37902, Control_c, 9, 123, 0
11, 37903, Control_c, 9, 123, 0
11, 37904, Note_on_c, 9, 42, 0
11, 37908, Note_on_c, 9, 44, 0
11, 37920, Note_on_c, 9, 44, 118
11, 37920, Note_on_c, 9, 35, 79
11, 37920, Note_on_c, 9, 42, 86
11, 37930, Control_c, 9, 123, 0
11, 37932, Note_on_c, 9, 35, 0
11, 37934, Control_c, 9, 123, 0
11, 37937, Control_c, 9, 123, 0
11, 37938, Note_on_c, 9, 44, 0
11, 37939, Note_on_c, 9, 42, 0
11, 37950, Note_on_c, 9, 35, 88
11, 37950, Note_on_c, 9, 44, 75
11, 37962, Control_c, 9, 123, 0
11, 37965, Note_on_c, 9, 44, 0
11, 37968, Control_c, 9, 123, 0
11, 37972, Note_on_c, 9, 35, 0
11, 37980, Note_on_c, 9, 42, 118
11, 37980, Note_on_c, 9, 42, 50
11, 37991, Control_c, 9, 123, 0
11, 37992, Note_on_c, 9, 42, 0
11, 37993, Control_c, 9, 123, 0
11, 37997, Note_on_c, 9, 42, 0
11, 38010, Note_on_c, 9, 44, 86
11, 38010, Note_on_c, 9, 44, 77
11, 38024, Control_c, 9, 123, 0
11, 38026, Control_c, 9, 123, 0
11, 38027, Note_on_c, 9, 44, 0
11, 38030, Note_on_c, 9, 44, 0
11, 38040, Note_on_c, 9, 42, 127
11, 38040, Note_on_c, 9, 42, 100
11, 38040, Note_on_c, 9, 40, 109
11, 38057, Control_c, 9, 123, 0
11, 38058, Note_on_c, 9, 42, 0
11, 38058, Control_c, 9, 123, 0
11, 38059, Note_on_c, 9, 42, 0
11, 38067, Note_on_c, 9, 40, 0
11, 38067, Control_c, 9, 123, 0
11, 38070, Note_on_c, 9, 44, 80
11, 38070, Note_on_c, 9, 44, 73
11, 38080, Control_c, 9, 123, 0
11, 38084, Note_on_c, 9, 44, 0
11, 38085, Note_on_c, 9, 44, 0
11, 38085, Control_c, 9, 123, 0
11, 38099, Control_c, 9, 123, 0
11, 38100, Note_on_c, 9, 42, 80
11, 38100, Note_on_c, 9, 42, 67
11, 38100, Note_on_c, 9, 44, 77
11, 38107, Note_on_c, 9, 42, 0
11, 38112, Note_on_c, 9, 44, 0
11, 38118, Note_on_c, 9, 42, 0
11, 38118, Control_c, 9, 123, 0
11, 38119, Control_c, 9, 123, 0
11, 38130, Note_on_c, 9, 44, 100
11, 38130, Note_on_c, 9, 42, 75
11, 38136, Control_c, 9, 123, 0
11, 38144, Note_on_c, 9, 42, 0
11, 38145, Note_on_c, 9, 44, 0
11, 38145, Control_c, 9, 123, 0
11, 38160, Note_on_c, 9, 44, 106
11, 38160, Note_on_c, 9, 42, 126
11, 38173, Control_c, 9, 123, 0
11, 38178, Note_on_c, 9, 44, 0
11, 38178, Note_on_c, 9, 42, 0
11, 38180, Control_c, 9, 123, 0
11, 38190, Note_on_c, 9, 44, 86
11, 38204, Control_c, 9, 123, 0
11, 38205, Note_on_c, 9, 44, 0
11, 38220, Note_on_c, 9, 42, 67
11, 38220, Note_on_c, 9, 42, 83
11, 38231, Control_c, 9, 123, 0
11, 38234, Note_on_c, 9, 42, 0
11, 38237, Control_c, 9, 123, 0
11, 38238, Note_on_c, 9, 42, 0
11, 38250, Note_on_c, 9, 44, 83
11, 38250, Note_on_c, 9, 44, 65
11, 38259, Control_c, 9, 123, 0
11, 38259, Control_c, 9, 123, 0
11, 38263, Note_on_c, 9, 44, 0
11, 38266, Note_on_c, 9, 44, 0
11, 38280, Note_on_c, 9, 42, 127
11, 38280, Note_on_c, 9, 40, 109
11, 38280, Note_on_c, 9, 42, 127
11, 38294, Control_c, 9, 123, 0
11, 38295, Control_c, 9, 123, 0
11, 38298, Note_on_c, 9, 42, 0
11, 38298, Note_on_c, 9, 42, 0
11, 38300, Control_c, 9, 123, 0
11, 38304, Note_on_c, 9, 40, 0
11, 38310, Note_on_c, 9, 44, 90
11, 38310, Note_on_c, 9, 44, 77
11, 38315, Control_c, 9, 123, 0
11, 38319, Control_c, 9, 123, 0
11, 38321, Note_on_c, 9, 44, 0
11, 38323, Note_on_c, 9, 44, 0
11, 38340, Note_on_c, 9, 42, 86
11, 38340, Note_on_c, 9, 42, 63
11, 38350, Control_c, 9, 123, 0
11, 38352, Control_c, 9, 123, 0
11, 38355, Note_on_c, 9, 42, 0
11, 38356, Note_on_c, 9, 42, 0
11, 38370, Note_on_c, 9, 46, 118
11, 38370, Note_on_c, 9, 46, 106
11, 38370, Note_on_c, 9, 35, 66
11, 38382, Control_c, 9, 123, 0
11, 38382, Control_c, 9, 123, 0
11, 38382, Control_c, 9, 123, 0
11, 38385, Note_on_c, 9, 35, 0
11, 38389, Note_on_c, 9, 46, 0
11, 38390, Note_on_c, 9, 46, 0
11, 38400, Note_on_c, 9, 42, 126
11, 38400, Note_on_c, 9, 42, 60
11, 38400, Note_on_c, 9, 35, 95
11, 38412, Control_c, 9, 123, 0
11, 38414, Control_c, 9, 123, 0
11, 38418, Note_on_c, 9, 42, 0
11, 38420, Note_on_c, 9, 42, 0
11, 38422, Control_c, 9, 123, 0
11, 38424, Note_on_c, 9, 35, 0
11, 38430, Note_on_c, 9, 44, 90
11, 38430, Note_on_c, 9, 44, 80
11, 38440, Control_c, 9, 123, 0
11, 38440, Control_c, 9, 123, 0
11, 38444, Note_on_c, 9, 44, 0
11, 38446, Note_on_c, 9, 44, 0
11, 38460, Note_on_c, 9, 42, 69
11, 38460, Note_on_c, 9, 42, 69
11, 38473, Control_c, 9, 123, 0
11, 38473, Control_c, 9, 123, 0
11, 38475, Note_on_c, 9, 42, 0
11, 38476, Note_on_c, 9, 42, 0
11, 38490, Note_on_c, 9, 44, 95
11, 38490, Note_on_c, 9, 44, 86
11, 38503, Control_c, 9, 123, 0
11, 38504, Note_on_c, 9, 44, 0
11, 38505, Control_c, 9, 123, 0
11, 38508, Note_on_c, 9, 44, 0
11, 38520, Note_on_c, 9, 42, 126
11, 38520, Note_on_c, 9, 40, 106
11, 38520, Note_on_c, 9, 42, 126
11, 38537, Control_c, 9, 123, 0
11, 38540, Note_on_c, 9, 42, 0
11, 38541, Note_on_c, 9, 42, 0
11, 38542, Control_c, 9, 123, 0
11, 38549, Control_c, 9, 123, 0
11, 38550, Note_on_c, 9, 44, 83
11, 38550, Note_on_c, 9, 44, 67
11, 38552, Note_on_c, 9, 40, 0
11, 38564, Control_c, 9, 123, 0
11, 38565, Note_on_c, 9, 44, 0
11, 38567, Note_on_c, 9, 44, 0
11, 38567, Control_c, 9, 123, 0
11, 38580, Note_on_c, 9, 42, 44
11, 38580, Note_on_c, 9, 42, 80
11, 38596, Note_on_c, 9, 42, 0
11, 38598, Note_on_c, 9, 42, 0
11, 38598, Control_c, 9, 123, 0
11, 38601, Control_c, 9, 123, 0
11, 38610, Note_on_c, 9, 44, 86
11, 38610, Note_on_c, 9, 44, 106
11, 38627, Note_on_c, 9, 44, 0
11, 38627, Control_c, 9, 123, 0
11, 38628, Note_on_c, 9, 44, 0
11, 38629, Control_c, 9, 123, 0
11, 38640, Note_on_c, 9, 42, 100
11, 38640, Note_on_c, 9, 42, 106
11, 38657, Note_on_c, 9, 42, 0
11, 38659, Control_c, 9, 123, 0
11, 38660, Note_on_c, 9, 42, 0
11, 38661, Control_c, 9, 123, 0
11, 38670, Note_on_c, 9, 44, 95
11, 38670, Note_on_c, 9, 44, 67
11, 38683, Control_c, 9, 123, 0
11, 38684, Note_on_c, 9, 44, 0
11, 38686, Control_c, 9, 123, 0
11, 38687, Note_on_c, 9, 44, 0
11, 38700, Note_on_c, 9, 42, 100
11, 38700, Note_on_c, 9, 42, 60
11, 38712, Control_c, 9, 123, 0
11, 38714, Control_c, 9, 123, 0
11, 38715, Note_on_c, 9, 42, 0
11, 38716, Note_on_c, 9, 42, 0
11, 38730, Note_on_c, 9, 44, 90
11, 38730, Note_on_c, 9, 44, 95
11, 38745, Control_c, 9, 123, 0
11, 38746, Note_on_c, 9, 44, 0
11, 38746, Control_c, 9, 123, 0
11, 38747, Note_on_c, 9, 44, 0
11, 38760, Note_on_c, 9, 42, 127
11, 38760, Note_on_c, 9, 40, 117
11, 38760, Note_on_c, 9, 42, 127
11, 38776, Control_c, 9, 123, 0
11, 38777, Note_on_c, 9, 42, 0
11, 38779, Note_on_c, 9, 42, 0
11, 38780, Control_c, 9, 123, 0
11, 38781, Control_c, 9, 123, 0
11, 38782, Note_on_c, 9, 40, 0
11, 38790, Note_on_c, 9, 44, 77
11, 38790, Note_on_c, 9, 44, 69
11, 38798, Control_c, 9, 123, 0
11, 38802, Note_on_c, 9, 44, 0
11, 38803, Control_c, 9, 123, 0
11, 38805, Note_on_c, 9, 44, 0
11, 38820, Note_on_c, 9, 50, 92
11, 38820, Note_on_c, 9, 42, 106
11, 38820, Note_on_c, 9, 42, 52
11, 38827, Note_on_c, 9, 50, 0
11, 38827, Control_c, 9, 123, 0
11, 38827, Control_c, 9, 123, 0
11, 38828, Note_on_c, 9, 42, 0
11, 38835, Note_on_c, 9, 50, 80
11, 38835, Note_on_c, 9, 44, 86
11, 38838, Note_on_c, 9, 42, 0
11, 38839, Control_c, 9, 123, 0
11, 38840, Control_c, 9, 123, 0
11, 38844, Note_on_c, 9, 44, 0
11, 38845, Control_c, 9, 123, 0
11, 38848, Note_on_c, 9, 50, 0
11, 38850, Note_on_c, 9, 42, 118
11, 38850, Note_on_c, 9, 44, 75
11, 38850, Note_on_c, 9, 35, 67
11, 38850, Note_on_c, 9, 50, 77
11, 38859, Note_on_c, 9, 50, 0
11, 38861, Note_on_c, 9, 35, 0
11, 38861, Control_c, 9, 123, 0
11, 38863, Control_c, 9, 123, 0
11, 38863, Control_c, 9, 123, 0
11, 38866, Note_on_c, 9, 42, 0
11, 38866, Note_on_c, 9, 44, 0
11, 38866, Control_c, 9, 123, 0
11, 38880, Note_on_c, 9, 50, 106
11, 38880, Note_on_c, 9, 44, 118
11, 38880, Note_on_c, 9, 42, 86
11, 38880, Note_on_c, 9, 35, 100
11, 38892, Note_on_c, 9, 35, 0
11, 38893, Control_c, 9, 123, 0
11, 38897, Control_c, 9, 123, 0
11, 38898, Note_on_c, 9, 44, 0
11, 38898, Note_on_c, 9, 42, 0
11, 38898, Control_c, 9, 123, 0
11, 38910, Note_on_c, 9, 46, 118
11, 38910, Note_on_c, 9, 35, 113
11, 38916, Control_c, 9, 123, 0
11, 38917, Note_on_c, 9, 50, 0
11, 38926, Note_on_c, 9, 46, 0
11, 38927, Control_c, 9, 123, 0
11, 38928, Note_on_c, 9, 35, 0
11, 38930, Control_c, 9, 123, 0
11, 38940, Note_on_c, 9, 42, 86
11, 38940, Note_on_c, 9, 42, 69
11, 38953, Control_c, 9, 123, 0
11, 38954, Control_c, 9, 123, 0
11, 38955, Note_on_c, 9, 42, 0
11, 38958, Note_on_c, 9, 42, 0
11, 38970, Note_on_c, 9, 50, 73
11, 38970, Note_on_c, 9, 44, 80
11, 38970, Note_on_c, 9, 44, 71
11, 38980, Control_c, 9, 123, 0
11, 38981, Control_c, 9, 123, 0
11, 38983, Note_on_c, 9, 44, 0
11, 38983, Note_on_c, 9, 44, 0
11, 38985, Control_c, 9, 123, 0
11, 38988, Note_on_c, 9, 50, 0
11, 39000, Note_on_c, 9, 48, 103
11, 39000, Note_on_c, 9, 42, 127
11, 39000, Note_on_c, 9, 42, 127
11, 39000, Note_on_c, 9, 40, 109
11, 39016, Note_on_c, 9, 48, 0
11, 39016, Control_c, 9, 123, 0
11, 39016, Control_c, 9, 123, 0
11, 39017, Control_c, 9, 123, 0
11, 39018, Note_on_c, 9, 42, 0
11, 39019, Note_on_c, 9, 42, 0
11, 39022, Note_on_c, 9, 40, 0
11, 39025, Control_c, 9, 123, 0
11, 39030, Note_on_c, 9, 48, 80
11, 39030, Note_on_c, 9, 44, 83
11, 39030, Note_on_c, 9, 44, 75
11, 39041, Control_c, 9, 123, 0
11, 39042, Note_on_c, 9, 44, 0
11, 39043, Control_c, 9, 123, 0
11, 39045, Note_on_c, 9, 48, 0
11, 39045, Control_c, 9, 123, 0
11, 39046, Note_on_c, 9, 44, 0
11, 39060, Note_on_c, 9, 42, 69
11, 39060, Note_on_c, 9, 44, 80
11, 39060, Note_on_c, 9, 48, 55
11, 39062, Control_c, 9, 123, 0
11, 39066, Note_on_c, 9, 42, 0
11, 39069, Note_on_c, 9, 48, 0
11, 39071, Note_on_c, 9, 44, 0
11, 39071, Control_c, 9, 123, 0
11, 39090, Note_on_c, 9, 48, 68
11, 39090, Note_on_c, 9, 44, 95
11, 39090, Note_on_c, 9, 42, 86
11, 39097, Control_c, 9, 123, 0
11, 39103, Control_c, 9, 123, 0
11, 39103, Control_c, 9, 123, 0
11, 39104, Note_on_c, 9, 44, 0
11, 39105, Note_on_c, 9, 48, 0
11, 39105, Note_on_c, 9, 42, 0
11, 39120, Note_on_c, 9, 45, 95
11, 39120, Note_on_c, 9, 44, 118
11, 39120, Note_on_c, 9, 42, 95
11, 39135, Note_on_c, 9, 42, 0
11, 39135, Control_c, 9, 123, 0
11, 39136, Control_c, 9, 123, 0
11, 39136, Control_c, 9, 123, 0
11, 39137, Note_on_c, 9, 45, 0
11, 39144, Note_on_c, 9, 44, 0
11, 39150, Note_on_c, 9, 45, 82
11, 39150, Note_on_c, 9, 46, 126
11, 39167, Control_c, 9, 123, 0
11, 39168, Note_on_c, 9, 46, 0
11, 39169, Control_c, 9, 123, 0
11, 39171, Note_on_c, 9, 45, 0
11, 39180, Note_on_c, 9, 42, 71
11, 39180, Note_on_c, 9, 42, 126
11, 39180, Note_on_c, 9, 45, 92
11, 39191, Note_on_c, 9, 42, 0
11, 39191, Control_c, 9, 123, 0
11, 39195, Control_c, 9, 123, 0
11, 39197, Note_on_c, 9, 45, 0
11, 39198, Note_on_c, 9, 42, 0
11, 39198, Control_c, 9, 123, 0
11, 39210, Note_on_c, 9, 45, 88
11, 39210, Note_on_c, 9, 44, 80
11, 39210, Note_on_c, 9, 44, 80
11, 39221, Control_c, 9, 123, 0
11, 39222, Control_c, 9, 123, 0
11, 39225, Note_on_c, 9, 44, 0
11, 39225, Note_on_c, 9, 44, 0
11, 39230, Control_c, 9, 123, 0
11, 39232, Note_on_c, 9, 45, 0
11, 39240, Note_on_c, 9, 41, 79
11, 39240, Note_on_c, 9, 42, 127
11, 39240, Note_on_c, 9, 40, 106
11, 39240, Note_on_c, 9, 42, 112
11, 39248, Control_c, 9, 123, 0
11, 39251, Note_on_c, 9, 41, 0
11, 39256, Control_c, 9, 123, 0
11, 39256, Control_c, 9, 123, 0
11, 39257, Note_on_c, 9, 42, 0
11, 39258, Note_on_c, 9, 42, 0
11, 39258, Control_c, 9, 123, 0
11, 39261, Note_on_c, 9, 40, 0
11, 39270, Note_on_c, 9, 41, 76
11, 39270, Note_on_c, 9, 44, 90
11, 39270, Note_on_c, 9, 44, 73
11, 39275, Control_c, 9, 123, 0
11, 39279, Note_on_c, 9, 41, 0
11, 39280, Control_c, 9, 123, 0
11, 39281, Control_c, 9, 123, 0
11, 39285, Note_on_c, 9, 44, 0
11, 39286, Note_on_c, 9, 44, 0
11, 39300, Note_on_c, 9, 41, 65
11, 39300, Note_on_c, 9, 42, 90
11, 39300, Note_on_c, 9, 42, 95
11, 39307, Note_on_c, 9, 41, 0
11, 39307, Control_c, 9, 123, 0
11, 39313, Control_c, 9, 123, 0
11, 39317, Note_on_c, 9, 42, 0
11, 39317, Control_c, 9, 123, 0
11, 39319, Note_on_c, 9, 42, 0
11, 39330, Note_on_c, 9, 41, 70
11, 39330, Note_on_c, 9, 44, 106
11, 39330, Note_on_c, 9, 46, 95
11, 39330, Note_on_c, 9, 35, 77
11, 39341, Control_c, 9, 123, 0
11, 39342, Note_on_c, 9, 35, 0
11, 39342, Control_c, 9, 123, 0
11, 39344, Control_c, 9, 123, 0
11, 39344, Control_c, 9, 123, 0
11, 39345, Note_on_c, 9, 41, 0
11, 39348, Note_on_c, 9, 46, 0
11, 39350, Note_on_c, 9, 44, 0
11, 39360, Note_on_c, 9, 40, 92
11, 39360, Note_on_c, 9, 42, 112
11, 39360, Note_on_c, 9, 42, 106
11, 39360, Note_on_c, 9, 35, 106
11, 39360, Note_on_c, 9, 42, 127
11, 39360, Note_on_c, 9, 49, 106
11, 39374, Control_c, 9, 123, 0
11, 39376, Control_c, 9, 123, 0
11, 39377, Control_c, 9, 123, 0
11, 39378, Note_on_c, 9, 42, 0
11, 39378, Note_on_c, 9, 42, 0
11, 39379, Control_c, 9, 123, 0
11, 39380, Note_on_c, 9, 35, 0
11, 39381, Note_on_c, 9, 40, 0
11, 39381, Note_on_c, 9, 42, 0
11, 39383, Control_c, 9, 123, 0
11, 39420, Note_on_c, 9, 35, 43
11, 39420, Note_on_c, 9, 46, 77
11, 39426, Note_on_c, 9, 35, 0
11, 39429, Control_c, 9, 123, 0
11, 39442, Note_on_c, 9, 46, 0
11, 39446, Control_c, 9, 123, 0
11, 39480, Note_on_c, 9, 40, 109
11, 39480, Note_on_c, 9, 42, 127
11, 39491, Note_on_c, 9, 49, 0
11, 39494, Control_c, 9, 123, 0
11, 39500, Note_on_c, 9, 42, 0
11, 39503, Control_c, 9, 123, 0
11, 39504, Note_on_c, 9, 40, 0
11, 39505, Control_c, 9, 123, 0
11, 39540, Note_on_c, 9, 46, 65
11, 39540, Note_on_c, 9, 35, 64
11, 39554, Note_on_c, 9, 35, 0
11, 39555, Control_c, 9, 123, 0
11, 39559, Control_c, 9, 123, 0
11, 39560, Note_on_c, 9, 46, 0
11, 39600, Note_on_c, 9, 40, 109
11, 39600, Note_on_c, 9, 42, 127
11, 39619, Note_on_c, 9, 42, 0
11, 39619, Control_c, 9, 123, 0
11, 39624, Control_c, 9, 123, 0
11, 39625, Note_on_c, 9, 40, 0
11, 39660, Note_on_c, 9, 44, 86
11, 39660, Note_on_c, 9, 35, 97
11, 39678, Note_on_c, 9, 35, 0
11, 39682, Control_c, 9, 123, 0
11, 39686, Control_c, 9, 123, 0
11, 39687, Note_on_c, 9, 44, 0
11, 39720, Note_on_c, 9, 40, 109
11, 39720, Note_on_c, 9, 42, 127
11, 39735, Control_c, 9, 123, 0
11, 39738, Note_on_c, 9, 42, 0
11, 39739, Control_c, 9, 123, 0
11, 39743, Note_on_c, 9, 40, 0
11, 39780, Note_on_c, 9, 35, 103
11, 39780, Note_on_c, 9, 44, 86
11, 39794, Control_c, 9, 123, 0
11, 39798, Note_on_c, 9, 35, 0
11, 39799, Control_c, 9, 123, 0
11, 39801, Note_on_c, 9, 44, 0
11, 39840, Note_on_c, 9, 42, 126
11, 39840, Note_on_c, 9, 40, 113
11, 39847, Control_c, 9, 123, 0
11, 39856, Control_c, 9, 123, 0
11, 39857, Note_on_c, 9, 42, 0
11, 39862, Note_on_c, 9, 40, 0
11, 39900, Note_on_c, 9, 46, 112
11, 39900, Note_on_c, 9, 35, 97
11, 39914, Control_c, 9, 123, 0
11, 39916, Note_on_c, 9, 35, 0
11, 39933, Control_c, 9, 123, 0
11, 39939, Note_on_c, 9, 46, 0
11, 39960, Note_on_c, 9, 40, 109
11, 39960, Note_on_c, 9, 42, 127
11, 39973, Control_c, 9, 123, 0
11, 39976, Control_c, 9, 123, 0
11, 39978, Note_on_c, 9, 42, 0
11, 39982, Note_on_c, 9, 40, 0
11, 40020, Note_on_c, 9, 46, 95
11, 40020, Note_on_c, 9, 35, 84
11, 40035, Control_c, 9, 123, 0
11, 40038, Note_on_c, 9, 35, 0
11, 40053, Control_c, 9, 123, 0
11, 40057, Note_on_c, 9, 46, 0
11, 40080, Note_on_c, 9, 42, 126
11, 40080, Note_on_c, 9, 40, 122
11, 40091, Control_c, 9, 123, 0
11, 40096, Note_on_c, 9, 42, 0
11, 40101, Control_c, 9, 123, 0
11, 40105, Note_on_c, 9, 40, 0
11, 40140, Note_on_c, 9, 44, 95
11, 40140, Note_on_c, 9, 35, 79
11, 40147, Control_c, 9, 123, 0
11, 40149, Note_on_c, 9, 35, 0
11, 40155, Control_c, 9, 123, 0
11, 40161, Note_on_c, 9, 44, 0
11, 40170, Note_on_c, 9, 35, 73
11, 40179, Control_c, 9, 123, 0
11, 40185, Note_on_c, 9, 35, 0
11, 40200, Note_on_c, 9, 40, 117
11, 40200, Note_on_c, 9, 42, 127
11, 40213, Control_c, 9, 123, 0
11, 40217, Note_on_c, 9, 42, 0
11, 40224, Control_c, 9, 123, 0
11, 40230, Note_on_c, 9, 40, 0
11, 40260, Note_on_c, 9, 44, 95
11, 40260, Note_on_c, 9, 35, 90
11, 40275, Control_c, 9, 123, 0
11, 40276, Control_c, 9, 123, 0
11, 40283, Note_on_c, 9, 35, 0
11, 40284, Note_on_c, 9, 44, 0
11, 40290, Note_on_c, 9, 40, 109
11, 40315, Note_on_c, 9, 40, 0
11, 40320, Note_on_c, 9, 42, 126
11, 40324, Control_c, 9, 123, 0
11, 40329, Control_c, 9, 123, 0
11, 40335, Note_on_c, 9, 42, 0
11, 40380, Note_on_c, 9, 35, 76
11, 40380, Note_on_c, 9, 46, 100
11, 40391, Control_c, 9, 123, 0
11, 40399, Note_on_c, 9, 35, 0
11, 40411, Control_c, 9, 123, 0
11, 40418, Note_on_c, 9, 46, 0
11, 40440, Note_on_c, 9, 40, 117
11, 40440, Note_on_c, 9, 42, 127
11, 40451, Control_c, 9, 123, 0
11, 40456, Control_c, 9, 123, 0
11, 40457, Note_on_c, 9, 42, 0
11, 40462, Note_on_c, 9, 40, 0
11, 40500, Note_on_c, 9, 46, 95
11, 40500, Note_on_c, 9, 35, 88
11, 40515, Control_c, 9, 123, 0
11, 40518, Note_on_c, 9, 35, 0
11, 40532, Control_c, 9, 123, 0
11, 40538, Note_on_c, 9, 46, 0
11, 40560, Note_on_c, 9, 42, 127
11, 40560, Note_on_c, 9, 40, 113
11, 40573, Control_c, 9, 123, 0
11, 40576, Note_on_c, 9, 42, 0
11, 40577, Control_c, 9, 123, 0
11, 40579, Note_on_c, 9, 40, 0
11, 40620, Note_on_c, 9, 44, 100
11, 40620, Note_on_c, 9, 35, 90
11, 40631, Control_c, 9, 123, 0
11, 40637, Note_on_c, 9, 44, 0
11, 40638, Note_on_c, 9, 35, 0
11, 40638, Control_c, 9, 123, 0
11, 40680, Note_on_c, 9, 40, 117
11, 40680, Note_on_c, 9, 42, 126
11, 40692, Control_c, 9, 123, 0
11, 40696, Control_c, 9, 123, 0
11, 40697, Note_on_c, 9, 42, 0
11, 40702, Note_on_c, 9, 40, 0
11, 40740, Note_on_c, 9, 44, 100
11, 40740, Note_on_c, 9, 35, 103
11, 40754, Control_c, 9, 123, 0
11, 40757, Control_c, 9, 123, 0
11, 40759, Note_on_c, 9, 44, 0
11, 40761, Note_on_c, 9, 35, 0
11, 40800, Note_on_c, 9, 40, 109
11, 40800, Note_on_c, 9, 42, 126
11, 40810, Control_c, 9, 123, 0
11, 40814, Control_c, 9, 123, 0
11, 40816, Note_on_c, 9, 42, 0
11, 40821, Note_on_c, 9, 40, 0
11, 40860, Note_on_c, 9, 46, 100
11, 40860, Note_on_c, 9, 35, 97
11, 40873, Control_c, 9, 123, 0
11, 40880, Note_on_c, 9, 35, 0
11, 40887, Control_c, 9, 123, 0
11, 40895, Note_on_c, 9, 46, 0
11, 40920, Note_on_c, 9, 40, 113
11, 40920, Note_on_c, 9, 42, 127
11, 40934, Control_c, 9, 123, 0
11, 40934, Control_c, 9, 123, 0
11, 40937, Note_on_c, 9, 42, 0
11, 40940, Note_on_c, 9, 40, 0
11, 40980, Note_on_c, 9, 35, 92
11, 40980, Note_on_c, 9, 46, 100
11, 40996, Control_c, 9, 123, 0
11, 40999, Control_c, 9, 123, 0
11, 41002, Note_on_c, 9, 35, 0
11, 41004, Note_on_c, 9, 46, 0
11, 41040, Note_on_c, 9, 40, 106
11, 41040, Note_on_c, 9, 42, 126
11, 41055, Control_c, 9, 123, 0
11, 41056, Note_on_c, 9, 42, 0
11, 41057, Control_c, 9, 123, 0
11, 41064, Note_on_c, 9, 40, 0
11, 41100, Note_on_c, 9, 35, 95
11, 41100, Note_on_c, 9, 44, 95
11, 41116, Control_c, 9, 123, 0
11, 41116, Control_c, 9, 123, 0
11, 41122, Note_on_c, 9, 35, 0
11, 41122, Note_on_c, 9, 44, 0
11, 41160, Note_on_c, 9, 40, 109
11, 41160, Note_on_c, 9, 42, 118
11, 41168, Control_c, 9, 123, 0
11, 41175, Control_c, 9, 123, 0
11, 41176, Note_on_c, 9, 42, 0
11, 41183, Note_on_c, 9, 40, 0
11, 41220, Note_on_c, 9, 44, 95
11, 41220, Note_on_c, 9, 35, 100
11, 41228, Control_c, 9, 123, 0
11, 41236, Control_c, 9, 123, 0
11, 41238, Note_on_c, 9, 44, 0
11, 41243, Note_on_c, 9, 35, 0
11, 41280, Note_on_c, 9, 42, 127
11, 41280, Note_on_c, 9, 40, 106
11, 41287, Control_c, 9, 123, 0
11, 41288, Control_c, 9, 123, 0
11, 41297, Note_on_c, 9, 40, 0
11, 41298, Note_on_c, 9, 42, 0
11, 41340, Note_on_c, 9, 35, 97
11, 41340, Note_on_c, 9, 46, 106
11, 41348, Control_c, 9, 123, 0
11, 41359, Note_on_c, 9, 35, 0
11, 41368, Control_c, 9, 123, 0
11, 41377, Note_on_c, 9, 46, 0
11, 41400, Note_on_c, 9, 40, 117
11, 41400, Note_on_c, 9, 42, 127
11, 41412, Control_c, 9, 123, 0
11, 41413, Control_c, 9, 123, 0
11, 41416, Note_on_c, 9, 42, 0
11, 41422, Note_on_c, 9, 40, 0
11, 41460, Note_on_c, 9, 35, 73
11, 41460, Note_on_c, 9, 46, 95
11, 41468, Control_c, 9, 123, 0
11, 41480, Note_on_c, 9, 35, 0
11, 41489, Control_c, 9, 123, 0
11, 41495, Note_on_c, 9, 46, 0
11, 41520, Note_on_c, 9, 40, 113
11, 41520, Note_on_c, 9, 42, 127
11, 41532, Control_c, 9, 123, 0
11, 41534, Control_c, 9, 123, 0
11, 41537, Note_on_c, 9, 42, 0
11, 41542, Note_on_c, 9, 40, 0
11, 41580, Note_on_c, 9, 44, 90
11, 41580, Note_on_c, 9, 35, 92
11, 41592, Control_c, 9, 123, 0
11, 41600, Note_on_c, 9, 35, 0
11, 41600, Control_c, 9, 123, 0
11, 41610, Note_on_c, 9, 44, 0
11, 41640, Note_on_c, 9, 40, 117
11, 41640, Note_on_c, 9, 42, 127
11, 41651, Control_c, 9, 123, 0
11, 41653, Control_c, 9, 123, 0
11, 41658, Note_on_c, 9, 42, 0
11, 41661, Note_on_c, 9, 40, 0
11, 41700, Note_on_c, 9, 35, 106
11, 41700, Note_on_c, 9, 44, 100
11, 41710, Control_c, 9, 123, 0
11, 41714, Control_c, 9, 123, 0
11, 41719, Note_on_c, 9, 35, 0
11, 41724, Note_on_c, 9, 44, 0
11, 41760, Note_on_c, 9, 40, 117
11, 41760, Note_on_c, 9, 42, 127
11, 41768, Control_c, 9, 123, 0
11, 41770, Control_c, 9, 123, 0
11, 41777, Note_on_c, 9, 42, 0
11, 41782, Note_on_c, 9, 40, 0
11, 41820, Note_on_c, 9, 35, 92
11, 41820, Note_on_c, 9, 46, 106
11, 41828, Control_c, 9, 123, 0
11, 41838, Note_on_c, 9, 35, 0
11, 41847, Control_c, 9, 123, 0
11, 41857, Note_on_c, 9, 46, 0
11, 41880, Note_on_c, 9, 40, 117
11, 41880, Note_on_c, 9, 42, 127
11, 41889, Control_c, 9, 123, 0
11, 41897, Control_c, 9, 123, 0
11, 41898, Note_on_c, 9, 42, 0
11, 41906, Note_on_c, 9, 40, 0
11, 41940, Note_on_c, 9, 46, 100
11, 41940, Note_on_c, 9, 35, 86
11, 41952, Control_c, 9, 123, 0
11, 41959, Note_on_c, 9, 35, 0
11, 41969, Control_c, 9, 123, 0
11, 41981, Note_on_c, 9, 46, 0
11, 42000, Note_on_c, 9, 40, 117
11, 42000, Note_on_c, 9, 42, 126
11, 42009, Control_c, 9, 123, 0
11, 42013, Control_c, 9, 123, 0
11, 42016, Note_on_c, 9, 42, 0
11, 42025, Note_on_c, 9, 40, 0
11, 42060, Note_on_c, 9, 35, 79
11, 42060, Note_on_c, 9, 44, 95
11, 42069, Control_c, 9, 123, 0
11, 42079, Note_on_c, 9, 44, 0
11, 42092, Control_c, 9, 123, 0
11, 42104, Note_on_c, 9, 35, 0
11, 42120, Note_on_c, 9, 40, 117
11, 42120, Note_on_c, 9, 42, 127
11, 42130, Control_c, 9, 123, 0
11, 42134, Control_c, 9, 123, 0
11, 42138, Note_on_c, 9, 42, 0
11, 42146, Note_on_c, 9, 40, 0
11, 42180, Note_on_c, 9, 35, 84
11, 42180, Note_on_c, 9, 44, 86
11, 42183, Control_c, 9, 123, 0
11, 42196, Note_on_c, 9, 35, 0
11, 42199, Control_c, 9, 123, 0
11, 42207, Note_on_c, 9, 44, 0
11, 42240, Note_on_c, 9, 40, 109
11, 42240, Note_on_c, 9, 35, 95
11, 42240, Note_on_c, 9, 42, 118
11, 42246, Control_c, 9, 123, 0
11, 42247, Control_c, 9, 123, 0
11, 42255, Note_on_c, 9, 42, 0
11, 42260, Note_on_c, 9, 40, 0
11, 42260, Note_on_c, 9, 35, 0
11, 42300, Note_on_c, 9, 46, 95
11, 42329, Control_c, 9, 123, 0
11, 42330, Note_on_c, 9, 40, 117
11, 42335, Note_on_c, 9, 46, 0
11, 42354, Note_on_c, 9, 40, 0
11, 42360, Note_on_c, 9, 35, 100
11, 42360, Note_on_c, 9, 42, 127
11, 42367, Control_c, 9, 123, 0
11, 42374, Control_c, 9, 123, 0
11, 42376, Note_on_c, 9, 42, 0
11, 42381, Note_on_c, 9, 35, 0
11, 42420, Note_on_c, 9, 46, 83
11, 42450, Control_c, 9, 123, 0
11, 42455, Note_on_c, 9, 46, 0
11, 42480, Note_on_c, 9, 40, 117
11, 42480, Note_on_c, 9, 35, 106
11, 42480, Note_on_c, 9, 42, 127
11, 42491, Control_c, 9, 123, 0
11, 42494, Control_c, 9, 123, 0
11, 42495, Note_on_c, 9, 42, 0
11, 42500, Note_on_c, 9, 35, 0
11, 42502, Note_on_c, 9, 40, 0
11, 42540, Note_on_c, 9, 35, 69
11, 42540, Note_on_c, 9, 44, 100
11, 42551, Control_c, 9, 123, 0
11, 42560, Note_on_c, 9, 44, 0
11, 42580, Control_c, 9, 123, 0
11, 42589, Note_on_c, 9, 35, 0
11, 42600, Note_on_c, 9, 40, 122
11, 42600, Note_on_c, 9, 42, 126
11, 42612, Control_c, 9, 123, 0
11, 42616, Control_c, 9, 123, 0
11, 42617, Note_on_c, 9, 42, 0
11, 42624, Note_on_c, 9, 40, 0
11, 42660, Note_on_c, 9, 35, 109
11, 42660, Note_on_c, 9, 44, 95
11, 42673, Control_c, 9, 123, 0
11, 42680, Note_on_c, 9, 44, 0
11, 42693, Control_c, 9, 123, 0
11, 42702, Note_on_c, 9, 35, 0
11, 42720, Note_on_c, 9, 40, 126
11, 42720, Note_on_c, 9, 42, 127
11, 42731, Control_c, 9, 123, 0
11, 42733, Control_c, 9, 123, 0
11, 42737, Note_on_c, 9, 42, 0
11, 42741, Note_on_c, 9, 40, 0
11, 42780, Note_on_c, 9, 46, 100
11, 42780, Note_on_c, 9, 35, 100
11, 42803, Control_c, 9, 123, 0
11, 42810, Note_on_c, 9, 46, 0
11, 42813, Control_c, 9, 123, 0
11, 42819, Note_on_c, 9, 35, 0
11, 42840, Note_on_c, 9, 40, 113
11, 42840, Note_on_c, 9, 42, 118
11, 42856, Note_on_c, 9, 42, 0
11, 42856, Control_c, 9, 123, 0
11, 42860, Control_c, 9, 123, 0
11, 42865, Note_on_c, 9, 40, 0
11, 42900, Note_on_c, 9, 46, 86
11, 42900, Note_on_c, 9, 35, 103
11, 42914, Control_c, 9, 123, 0
11, 42924, Note_on_c, 9, 46, 0
11, 42940, Control_c, 9, 123, 0
11, 42948, Note_on_c, 9, 35, 0
11, 42960, Note_on_c, 9, 40, 122
11, 42960, Note_on_c, 9, 42, 126
11, 42972, Control_c, 9, 123, 0
11, 42976, Note_on_c, 9, 42, 0
11, 42978, Control_c, 9, 123, 0
11, 42983, Note_on_c, 9, 40, 0
11, 43020, Note_on_c, 9, 44, 106
11, 43020, Note_on_c, 9, 35, 100
11, 43030, Control_c, 9, 123, 0
11, 43041, Note_on_c, 9, 44, 0
11, 43062, Control_c, 9, 123, 0
11, 43069, Note_on_c, 9, 35, 0
11, 43080, Note_on_c, 9, 40, 100
11, 43080, Note_on_c, 9, 42, 126
11, 43085, Control_c, 9, 123, 0
11, 43094, Note_on_c, 9, 42, 0
11, 43094, Control_c, 9, 123, 0
11, 43105, Note_on_c, 9, 40, 0
11, 43140, Note_on_c, 9, 44, 80
11, 43140, Note_on_c, 9, 35, 109
11, 43144, Control_c, 9, 123, 0
11, 43155, Note_on_c, 9, 44, 0
11, 43185, Control_c, 9, 123, 0
11, 43194, Note_on_c, 9, 35, 0
11, 43200, Note_on_c, 9, 40, 97
11, 43200, Note_on_c, 9, 42, 127
11, 43209, Control_c, 9, 123, 0
11, 43211, Control_c, 9, 123, 0
11, 43216, Note_on_c, 9, 42, 0
11, 43221, Note_on_c, 9, 40, 0
11, 43260, Note_on_c, 9, 44, 77
11, 43274, Control_c, 9, 123, 0
11, 43281, Note_on_c, 9, 44, 0
11, 43320, Note_on_c, 9, 40, 113
11, 43320, Note_on_c, 9, 42, 127
11, 43333, Control_c, 9, 123, 0
11, 43334, Control_c, 9, 123, 0
11, 43338, Note_on_c, 9, 42, 0
11, 43345, Note_on_c, 9, 40, 0
11, 43380, Note_on_c, 9, 44, 83
11, 43380, Note_on_c, 9, 35, 100
11, 43390, Control_c, 9, 123, 0
11, 43398, Note_on_c, 9, 44, 0
11, 43406, Control_c, 9, 123, 0
11, 43412, Note_on_c, 9, 35, 0
11, 43440, Note_on_c, 9, 40, 113
11, 43440, Note_on_c, 9, 42, 127
11, 43452, Control_c, 9, 123, 0
11, 43456, Note_on_c, 9, 42, 0
11, 43457, Control_c, 9, 123, 0
11, 43463, Note_on_c, 9, 40, 0
11, 43500, Note_on_c, 9, 44, 90
11, 43500, Note_on_c, 9, 35, 109
11, 43514, Control_c, 9, 123, 0
11, 43519, Note_on_c, 9, 44, 0
11, 43524, Control_c, 9, 123, 0
11, 43528, Note_on_c, 9, 35, 0
11, 43560, Note_on_c, 9, 42, 127
11, 43560, Note_on_c, 9, 40, 122
11, 43573, Control_c, 9, 123, 0
11, 43578, Note_on_c, 9, 42, 0
11, 43592, Control_c, 9, 123, 0
11, 43595, Note_on_c, 9, 40, 0
11, 43620, Note_on_c, 9, 44, 112
11, 43620, Note_on_c, 9, 35, 106
11, 43638, Control_c, 9, 123, 0
11, 43641, Note_on_c, 9, 35, 0
11, 43641, Control_c, 9, 123, 0
11, 43648, Note_on_c, 9, 44, 0
11, 43680, Note_on_c, 9, 40, 72
11, 43680, Note_on_c, 9, 42, 127
11, 43680, Note_on_c, 9, 35, 92
11, 43680, Note_on_c, 9, 42, 127
11, 43680, Control_c, 9, 123, 0
11, 43680, Note_on_c, 9, 49, 90
11, 43680, Note_on_c, 9, 35, 106
11, 43680, Note_on_c, 9, 42, 126
11, 43681, Note_on_c, 9, 40, 0
11, 43693, Control_c, 9, 123, 0
11, 43695, Note_on_c, 9, 42, 0
11, 43696, Control_c, 9, 123, 0
11, 43698, Note_on_c, 9, 35, 0
11, 43698, Note_on_c, 9, 42, 0
11, 43699, Note_on_c, 9, 42, 0
11, 43699, Control_c, 9, 123, 0
11, 43705, Control_c, 9, 123, 0
11, 43710, Note_on_c, 9, 44, 59
11, 43710, Note_on_c, 9, 44, 77
11, 43711, Note_on_c, 9, 35, 0
11, 43715, Control_c, 9, 123, 0
11, 43723, Control_c, 9, 123, 0
11, 43726, Note_on_c, 9, 44, 0
11, 43728, Note_on_c, 9, 44, 0
11, 43729, Control_c, 9, 123, 0
11, 43740, Note_on_c, 9, 42, 83
11, 43740, Note_on_c, 9, 42, 77
11, 43750, Control_c, 9, 123, 0
11, 43753, Note_on_c, 9, 42, 0
11, 43753, Control_c, 9, 123, 0
11, 43755, Note_on_c, 9, 42, 0
11, 43770, Note_on_c, 9, 44, 95
11, 43770, Note_on_c, 9, 44, 53
11, 43780, Control_c, 9, 123, 0
11, 43785, Control_c, 9, 123, 0
11, 43786, Note_on_c, 9, 44, 0
11, 43790, Note_on_c, 9, 44, 0
11, 43800, Note_on_c, 9, 42, 127
11, 43800, Note_on_c, 9, 42, 127
11, 43800, Note_on_c, 9, 40, 106
11, 43818, Control_c, 9, 123, 0
11, 43819, Control_c, 9, 123, 0
11, 43820, Note_on_c, 9, 42, 0
11, 43821, Note_on_c, 9, 42, 0
11, 43830, Note_on_c, 9, 44, 60
11, 43830, Note_on_c, 9, 44, 44
11, 43841, Control_c, 9, 123, 0
11, 43844, Note_on_c, 9, 44, 0
11, 43845, Control_c, 9, 123, 0
11, 43846, Note_on_c, 9, 40, 0
11, 43849, Control_c, 9, 123, 0
11, 43851, Note_on_c, 9, 44, 0
11, 43860, Note_on_c, 9, 42, 65
11, 43860, Note_on_c, 9, 42, 51
11, 43864, Control_c, 9, 123, 0
11, 43869, Note_on_c, 9, 49, 0
11, 43874, Note_on_c, 9, 42, 0
11, 43876, Control_c, 9, 123, 0
11, 43878, Control_c, 9, 123, 0
11, 43879, Note_on_c, 9, 42, 0
11, 43890, Note_on_c, 9, 44, 95
11, 43890, Note_on_c, 9, 44, 90
11, 43906, Control_c, 9, 123, 0
11, 43908, Control_c, 9, 123, 0
11, 43910, Note_on_c, 9, 44, 0
11, 43911, Note_on_c, 9, 44, 0
11, 43920, Note_on_c, 9, 42, 106
11, 43920, Note_on_c, 9, 42, 40
11, 43928, Note_on_c, 9, 42, 0
11, 43930, Control_c, 9, 123, 0
11, 43936, Note_on_c, 9, 42, 0
11, 43936, Control_c, 9, 123, 0
11, 43950, Note_on_c, 9, 44, 86
11, 43950, Note_on_c, 9, 44, 100
11, 43964, Control_c, 9, 123, 0
11, 43969, Note_on_c, 9, 44, 0
11, 43969, Control_c, 9, 123, 0
11, 43970, Note_on_c, 9, 44, 0
11, 43980, Note_on_c, 9, 42, 46
11, 43980, Note_on_c, 9, 42, 50
11, 43992, Note_on_c, 9, 42, 0
11, 43992, Note_on_c, 9, 42, 0
11, 43993, Control_c, 9, 123, 0
11, 43995, Control_c, 9, 123, 0
11, 44010, Note_on_c, 9, 44, 83
11, 44010, Note_on_c, 9, 44, 80
11, 44020, Control_c, 9, 123, 0
11, 44025, Note_on_c, 9, 44, 0
11, 44026, Note_on_c, 9, 44, 0
11, 44026, Control_c, 9, 123, 0
11, 44040, Note_on_c, 9, 42, 127
11, 44040, Note_on_c, 9, 42, 127
11, 44040, Note_on_c, 9, 40, 113
11, 44055, Control_c, 9, 123, 0
11, 44059, Note_on_c, 9, 42, 0
11, 44059, Control_c, 9, 123, 0
11, 44060, Note_on_c, 9, 42, 0
11, 44070, Note_on_c, 9, 44, 67
11, 44070, Note_on_c, 9, 44, 71
11, 44079, Control_c, 9, 123, 0
11, 44084, Control_c, 9, 123, 0
11, 44085, Note_on_c, 9, 40, 0
11, 44085, Note_on_c, 9, 44, 0
11, 44086, Note_on_c, 9, 44, 0
11, 44086, Control_c, 9, 123, 0
11, 44100, Note_on_c, 9, 42, 65
11, 44100, Note_on_c, 9, 42, 65
11, 44112, Control_c, 9, 123, 0
11, 44113, Control_c, 9, 123, 0
11, 44114, Note_on_c, 9, 42, 0
11, 44116, Note_on_c, 9, 42, 0
11, 44130, Note_on_c, 9, 44, 95
11, 44130, Note_on_c, 9, 46, 118
11, 44130, Note_on_c, 9, 35, 61
11, 44138, Control_c, 9, 123, 0
11, 44139, Note_on_c, 9, 35, 0
11, 44143, Control_c, 9, 123, 0
11, 44143, Control_c, 9, 123, 0
11, 44147, Note_on_c, 9, 44, 0
11, 44151, Note_on_c, 9, 46, 0
11, 44160, Note_on_c, 9, 42, 127
11, 44160, Note_on_c, 9, 42, 83
11, 44160, Note_on_c, 9, 35, 88
11, 44169, Control_c, 9, 123, 0
11, 44170, Note_on_c, 9, 35, 0
11, 44170, Control_c, 9, 123, 0
11, 44176, Control_c, 9, 123, 0
11, 44178, Note_on_c, 9, 42, 0
11, 44181, Note_on_c, 9, 42, 0
11, 44190, Note_on_c, 9, 44, 73
11, 44190, Note_on_c, 9, 44, 48
11, 44190, Note_on_c, 9, 35, 97
11, 44202, Control_c, 9, 123, 0
11, 44206, Control_c, 9, 123, 0
11, 44207, Control_c, 9, 123, 0
11, 44209, Note_on_c, 9, 44, 0
11, 44211, Note_on_c, 9, 44, 0
11, 44211, Note_on_c, 9, 35, 0
11, 44220, Note_on_c, 9, 42, 67
11, 44220, Note_on_c, 9, 42, 63
11, 44231, Control_c, 9, 123, 0
11, 44232, Note_on_c, 9, 42, 0
11, 44233, Control_c, 9, 123, 0
11, 44239, Note_on_c, 9, 42, 0
11, 44250, Note_on_c, 9, 44, 73
11, 44250, Note_on_c, 9, 44, 83
11, 44260, Control_c, 9, 123, 0
11, 44265, Note_on_c, 9, 44, 0
11, 44265, Control_c, 9, 123, 0
11, 44270, Note_on_c, 9, 44, 0
11, 44280, Note_on_c, 9, 42, 127
11, 44280, Note_on_c, 9, 40, 103
11, 44280, Note_on_c, 9, 42, 126
11, 44295, Control_c, 9, 123, 0
11, 44295, Control_c, 9, 123, 0
11, 44298, Note_on_c, 9, 42, 0
11, 44299, Note_on_c, 9, 42, 0
11, 44310, Note_on_c, 9, 44, 63
11, 44310, Note_on_c, 9, 44, 64
11, 44318, Control_c, 9, 123, 0
11, 44321, Note_on_c, 9, 44, 0
11, 44321, Control_c, 9, 123, 0
11, 44326, Note_on_c, 9, 44, 0
11, 44340, Note_on_c, 9, 42, 75
11, 44340, Note_on_c, 9, 42, 54
11, 44342, Control_c, 9, 123, 0
11, 44345, Note_on_c, 9, 42, 0
11, 44351, Note_on_c, 9, 42, 0
11, 44353, Control_c, 9, 123, 0
11, 44355, Note_on_c, 9, 44, 77
11, 44360, Control_c, 9, 123, 0
11, 44364, Note_on_c, 9, 44, 0
11, 44370, Note_on_c, 9, 42, 127
11, 44370, Note_on_c, 9, 44, 90
11, 44377, Control_c, 9, 123, 0
11, 44384, Note_on_c, 9, 42, 0
11, 44386, Control_c, 9, 123, 0
11, 44390, Note_on_c, 9, 44, 0
11, 44400, Note_on_c, 9, 44, 118
11, 44400, Note_on_c, 9, 42, 48
11, 44401, Control_c, 9, 123, 0
11, 44405, Note_on_c, 9, 40, 0
11, 44413, Control_c, 9, 123, 0
11, 44416, Control_c, 9, 123, 0
11, 44417, Note_on_c, 9, 42, 0
11, 44418, Note_on_c, 9, 44, 0
11, 44430, Note_on_c, 9, 44, 106
11, 44444, Control_c, 9, 123, 0
11, 44449, Note_on_c, 9, 44, 0
11, 44460, Note_on_c, 9, 42, 126
11, 44460, Note_on_c, 9, 42, 73
11, 44468, Control_c, 9, 123, 0
11, 44470, Control_c, 9, 123, 0
11, 44473, Note_on_c, 9, 42, 0
11, 44475, Note_on_c, 9, 42, 0
11, 44490, Note_on_c, 9, 44, 100
11, 44490, Note_on_c, 9, 44, 80
11, 44490, Note_on_c, 9, 35, 68
11, 44501, Control_c, 9, 123, 0
11, 44501, Control_c, 9, 123, 0
11, 44508, Note_on_c, 9, 44, 0
11, 44508, Note_on_c, 9, 44, 0
11, 44513, Control_c, 9, 123, 0
11, 44515, Note_on_c, 9, 35, 0
11, 44520, Note_on_c, 9, 42, 127
11, 44520, Note_on_c, 9, 42, 100
11, 44520, Note_on_c, 9, 40, 109
11, 44534, Control_c, 9, 123, 0
11, 44534, Control_c, 9, 123, 0
11, 44538, Note_on_c, 9, 42, 0
11, 44538, Note_on_c, 9, 42, 0
11, 44550, Note_on_c, 9, 44, 100
11, 44550, Note_on_c, 9, 44, 73
11, 44550, Note_on_c, 9, 35, 82
11, 44562, Control_c, 9, 123, 0
11, 44562, Control_c, 9, 123, 0
11, 44565, Note_on_c, 9, 40, 0
11, 44566, Note_on_c, 9, 44, 0
11, 44571, Note_on_c, 9, 44, 0
11, 44572, Control_c, 9, 123, 0
11, 44573, Note_on_c, 9, 35, 0
11, 44580, Note_on_c, 9, 42, 69
11, 44580, Note_on_c, 9, 44, 73
11, 44593, Note_on_c, 9, 44, 0
11, 44595, Control_c, 9, 123, 0
11, 44598, Note_on_c, 9, 42, 0
11, 44601, Control_c, 9, 123, 0
11, 44610, Note_on_c, 9, 46, 112
11, 44610, Note_on_c, 9, 42, 71
11, 44610, Note_on_c, 9, 35, 57
11, 44618, Control_c, 9, 123, 0
11, 44621, Note_on_c, 9, 35, 0
11, 44622, Control_c, 9, 123, 0
11, 44626, Note_on_c, 9, 42, 0
11, 44627, Control_c, 9, 123, 0
11, 44631, Note_on_c, 9, 46, 0
11, 44640, Note_on_c, 9, 42, 126
11, 44640, Note_on_c, 9, 44, 112
11, 44640, Note_on_c, 9, 35, 79
11, 44653, Control_c, 9, 123, 0
11, 44657, Control_c, 9, 123, 0
11, 44659, Note_on_c, 9, 44, 0
11, 44660, Note_on_c, 9, 42, 0
11, 44660, Control_c, 9, 123, 0
11, 44663, Note_on_c, 9, 35, 0
11, 44670, Note_on_c, 9, 44, 95
11, 44684, Control_c, 9, 123, 0
11, 44688, Note_on_c, 9, 44, 0
11, 44700, Note_on_c, 9, 42, 60
11, 44715, Control_c, 9, 123, 0
11, 44716, Note_on_c, 9, 42, 0
11, 44730, Note_on_c, 9, 44, 67
11, 44730, Note_on_c, 9, 44, 51
11, 44744, Note_on_c, 9, 44, 0
11, 44745, Control_c, 9, 123, 0
11, 44745, Control_c, 9, 123, 0
11, 44748, Note_on_c, 9, 44, 0
11, 44760, Note_on_c, 9, 40, 86
11, 44760, Note_on_c, 9, 42, 127
11, 44760, Note_on_c, 9, 42, 127
11, 44780, Note_on_c, 9, 42, 0
11, 44781, Note_on_c, 9, 42, 0
11, 44781, Control_c, 9, 123, 0
11, 44781, Control_c, 9, 123, 0
11, 44790, Note_on_c, 9, 44, 83
11, 44790, Note_on_c, 9, 44, 77
11, 44805, Note_on_c, 9, 44, 0
11, 44805, Control_c, 9, 123, 0
11, 44806, Note_on_c, 9, 44, 0
11, 44806, Control_c, 9, 123, 0
11, 44820, Note_on_c, 9, 42, 56
11, 44820, Note_on_c, 9, 42, 54
11, 44835, Note_on_c, 9, 42, 0
11, 44835, Note_on_c, 9, 42, 0
11, 44838, Control_c, 9, 123, 0
11, 44839, Control_c, 9, 123, 0
11, 44850, Note_on_c, 9, 44, 112
11, 44850, Note_on_c, 9, 44, 100
11, 44867, Note_on_c, 9, 44, 0
11, 44868, Control_c, 9, 123, 0
11, 44869, Note_on_c, 9, 44, 0
11, 44870, Control_c, 9, 123, 0
11, 44880, Note_on_c, 9, 42, 67
11, 44880, Note_on_c, 9, 42, 127
11, 44898, Control_c, 9, 123, 0
11, 44899, Note_on_c, 9, 42, 0
11, 44900, Note_on_c, 9, 42, 0
11, 44904, Control_c, 9, 123, 0
11, 44910, Note_on_c, 9, 44, 90
11, 44910, Note_on_c, 9, 44, 100
11, 44927, Note_on_c, 9, 44, 0
11, 44927, Control_c, 9, 123, 0
11, 44928, Control_c, 9, 123, 0
11, 44930, Note_on_c, 9, 44, 0
11, 44940, Note_on_c, 9, 42, 65
11, 44940, Note_on_c, 9, 42, 53
11, 44953, Control_c, 9, 123, 0
11, 44955, Note_on_c, 9, 42, 0
11, 44958, Note_on_c, 9, 42, 0
11, 44958, Control_c, 9, 123, 0
11, 44967, Control_c, 9, 123, 0
11, 44968, Note_on_c, 9, 40, 0
11, 44970, Note_on_c, 9, 44, 90
11, 44970, Note_on_c, 9, 44, 77
11, 44984, Control_c, 9, 123, 0
11, 44985, Control_c, 9, 123, 0
11, 44986, Note_on_c, 9, 44, 0
11, 44988, Note_on_c, 9, 44, 0
11, 45000, Note_on_c, 9, 42, 127
11, 45000, Note_on_c, 9, 40, 117
11, 45000, Note_on_c, 9, 42, 127
11, 45017, Control_c, 9, 123, 0
11, 45019, Note_on_c, 9, 42, 0
11, 45019, Note_on_c, 9, 42, 0
11, 45021, Control_c, 9, 123, 0
11, 45027, Note_on_c, 9, 40, 0
11, 45029, Control_c, 9, 123, 0
11, 45030, Note_on_c, 9, 44, 86
11, 45030, Note_on_c, 9, 44, 73
11, 45040, Control_c, 9, 123, 0
11, 45042, Note_on_c, 9, 44, 0
11, 45042, Control_c, 9, 123, 0
11, 45044, Note_on_c, 9, 44, 0
11, 45060, Note_on_c, 9, 42, 83
11, 45060, Note_on_c, 9, 42, 75
11, 45063, Control_c, 9, 123, 0
11, 45066, Note_on_c, 9, 42, 0
11, 45075, Note_on_c, 9, 44, 90
11, 45075, Control_c, 9, 123, 0
11, 45076, Note_on_c, 9, 42, 0
11, 45082, Control_c, 9, 123, 0
11, 45087, Note_on_c, 9, 44, 0
11, 45090, Note_on_c, 9, 42, 127
11, 45090, Note_on_c, 9, 46, 95
11, 45090, Note_on_c, 9, 35, 56
11, 45095, Control_c, 9, 123, 0
11, 45099, Note_on_c, 9, 35, 0
11, 45102, Note_on_c, 9, 42, 0
11, 45103, Control_c, 9, 123, 0
11, 45108, Control_c, 9, 123, 0
11, 45111, Note_on_c, 9, 46, 0
11, 45120, Note_on_c, 9, 44, 112
11, 45120, Note_on_c, 9, 42, 65
11, 45120, Note_on_c, 9, 35, 86
11, 45133, Note_on_c, 9, 35, 0
11, 45135, Control_c, 9, 123, 0
11, 45135, Control_c, 9, 123, 0
11, 45138, Note_on_c, 9, 44, 0
11, 45140, Control_c, 9, 123, 0
11, 45143, Note_on_c, 9, 42, 0
11, 45150, Note_on_c, 9, 44, 83
11, 45150, Note_on_c, 9, 35, 95
11, 45164, Control_c, 9, 123, 0
11, 45167, Note_on_c, 9, 44, 0
11, 45168, Control_c, 9, 123, 0
11, 45170, Note_on_c, 9, 35, 0
11, 45180, Note_on_c, 9, 42, 106
11, 45180, Note_on_c, 9, 42, 65
11, 45193, Note_on_c, 9, 42, 0
11, 45193, Control_c, 9, 123, 0
11, 45195, Control_c, 9, 123, 0
11, 45198, Note_on_c, 9, 42, 0
11, 45210, Note_on_c, 9, 44, 95
11, 45210, Note_on_c, 9, 44, 71
11, 45220, Control_c, 9, 123, 0
11, 45221, Control_c, 9, 123, 0
11, 45223, Note_on_c, 9, 44, 0
11, 45225, Note_on_c, 9, 44, 0
11, 45240, Note_on_c, 9, 42, 127
11, 45240, Note_on_c, 9, 42, 118
11, 45240, Note_on_c, 9, 40, 113
11, 45256, Control_c, 9, 123, 0
11, 45257, Control_c, 9, 123, 0
11, 45259, Note_on_c, 9, 42, 0
11, 45259, Note_on_c, 9, 42, 0
11, 45265, Note_on_c, 9, 40, 0
11, 45265, Control_c, 9, 123, 0
11, 45270, Note_on_c, 9, 44, 77
11, 45270, Note_on_c, 9, 44, 77
11, 45279, Control_c, 9, 123, 0
11, 45280, Control_c, 9, 123, 0
11, 45282, Note_on_c, 9, 44, 0
11, 45284, Note_on_c, 9, 44, 0
11, 45300, Note_on_c, 9, 42, 56
11, 45300, Note_on_c, 9, 42, 61
11, 45313, Control_c, 9, 123, 0
11, 45314, Note_on_c, 9, 42, 0
11, 45316, Control_c, 9, 123, 0
11, 45319, Note_on_c, 9, 42, 0
11, 45330, Note_on_c, 9, 44, 95
11, 45330, Note_on_c, 9, 46, 90
11, 45341, Control_c, 9, 123, 0
11, 45343, Note_on_c, 9, 44, 0
11, 45345, Control_c, 9, 123, 0
11, 45350, Note_on_c, 9, 46, 0
11, 45360, Note_on_c, 9, 42, 100
11, 45360, Note_on_c, 9, 42, 71
11, 45376, Control_c, 9, 123, 0
11, 45377, Note_on_c, 9, 42, 0
11, 45378, Control_c, 9, 123, 0
11, 45382, Note_on_c, 9, 42, 0
11, 45390, Note_on_c, 9, 46, 118
11, 45390, Note_on_c, 9, 46, 86
11, 45400, Control_c, 9, 123, 0
11, 45406, Control_c, 9, 123, 0
11, 45408, Note_on_c, 9, 46, 0
11, 45408, Note_on_c, 9, 46, 0
11, 45420, Note_on_c, 9, 42, 73
11, 45420, Note_on_c, 9, 42, 57
11, 45432, Control_c, 9, 123, 0
11, 45433, Note_on_c, 9, 42, 0
11, 45434, Control_c, 9, 123, 0
11, 45442, Note_on_c, 9, 42, 0
11, 45450, Note_on_c, 9, 44, 90
11, 45450, Note_on_c, 9, 44, 75
11, 45464, Control_c, 9, 123, 0
11, 45467, Control_c, 9, 123, 0
11, 45471, Note_on_c, 9, 44, 0
11, 45472, Note_on_c, 9, 44, 0
11, 45480, Note_on_c, 9, 42, 127
11, 45480, Note_on_c, 9, 42, 112
11, 45480, Note_on_c, 9, 40, 103
11, 45494, Control_c, 9, 123, 0
11, 45495, Control_c, 9, 123, 0
11, 45496, Note_on_c, 9, 42, 0
11, 45499, Note_on_c, 9, 42, 0
11, 45504, Note_on_c, 9, 40, 0
11, 45505, Control_c, 9, 123, 0
11, 45510, Note_on_c, 9, 44, 80
11, 45510, Note_on_c, 9, 44, 69
11, 45510, Note_on_c, 9, 35, 70
11, 45516, Control_c, 9, 123, 0
11, 45518, Control_c, 9, 123, 0
11, 45523, Note_on_c, 9, 44, 0
11, 45525, Note_on_c, 9, 44, 0
11, 45526, Note_on_c, 9, 35, 0
11, 45527, Control_c, 9, 123, 0
11, 45537, Control_c, 9, 123, 0
11, 45540, Note_on_c, 9, 42, 86
11, 45540, Note_on_c, 9, 42, 49
11, 45540, Note_on_c, 9, 44, 73
11, 45543, Control_c, 9, 123, 0
11, 45545, Note_on_c, 9, 42, 0
11, 45547, Note_on_c, 9, 42, 0
11, 45552, Note_on_c, 9, 44, 0
11, 45555, Note_on_c, 9, 44, 90
11, 45557, Control_c, 9, 123, 0
11, 45561, Control_c, 9, 123, 0
11, 45566, Note_on_c, 9, 44, 0
11, 45570, Note_on_c, 9, 42, 127
11, 45570, Note_on_c, 9, 42, 86
11, 45578, Control_c, 9, 123, 0
11, 45579, Control_c, 9, 123, 0
11, 45583, Note_on_c, 9, 42, 0
11, 45586, Note_on_c, 9, 42, 0
11, 45600, Note_on_c, 9, 44, 127
11, 45600, Note_on_c, 9, 44, 118
11, 45608, Control_c, 9, 123, 0
11, 45614, Control_c, 9, 123, 0
11, 45618, Note_on_c, 9, 44, 0
11, 45618, Note_on_c, 9, 44, 0
11, 45660, Note_on_c, 9, 42, 127
11, 45660, Note_on_c, 9, 42, 53
11, 45668, Control_c, 9, 123, 0
11, 45673, Note_on_c, 9, 42, 0
11, 45673, Control_c, 9, 123, 0
11, 45674, Note_on_c, 9, 42, 0
11, 45690, Note_on_c, 9, 44, 90
11, 45690, Note_on_c, 9, 44, 69
11, 45695, Control_c, 9, 123, 0
11, 45699, Control_c, 9, 123, 0
11, 45704, Note_on_c, 9, 44, 0
11, 45706, Note_on_c, 9, 44, 0
11, 45720, Note_on_c, 9, 42, 127
11, 45720, Note_on_c, 9, 40, 113
11, 45720, Note_on_c, 9, 42, 127
11, 45731, Control_c, 9, 123, 0
11, 45738, Note_on_c, 9, 42, 0
11, 45738, Note_on_c, 9, 42, 0
11, 45739, Control_c, 9, 123, 0
11, 45742, Control_c, 9, 123, 0
11, 45746, Note_on_c, 9, 40, 0
11, 45750, Note_on_c, 9, 44, 100
11, 45750, Note_on_c, 9, 44, 73
11, 45754, Control_c, 9, 123, 0
11, 45762, Control_c, 9, 123, 0
11, 45764, Note_on_c, 9, 44, 0
11, 45765, Note_on_c, 9, 44, 0
11, 45780, Note_on_c, 9, 42, 95
11, 45780, Note_on_c, 9, 42, 73
11, 45791, Control_c, 9, 123, 0
11, 45793, Control_c, 9, 123, 0
11, 45795, Note_on_c, 9, 42, 0
11, 45797, Note_on_c, 9, 42, 0
11, 45810, Note_on_c, 9, 44, 106
11, 45810, Note_on_c, 9, 46, 100
11, 45810, Note_on_c, 9, 35, 58
11, 45816, Control_c, 9, 123, 0
11, 45820, Control_c, 9, 123, 0
11, 45821, Note_on_c, 9, 35, 0
11, 45824, Control_c, 9, 123, 0
11, 45827, Note_on_c, 9, 44, 0
11, 45828, Note_on_c, 9, 46, 0
11, 45840, Note_on_c, 9, 42, 67
11, 45840, Note_on_c, 9, 42, 86
11, 45840, Note_on_c, 9, 35, 72
11, 45848, Note_on_c, 9, 42, 0
11, 45848, Control_c, 9, 123, 0
11, 45853, Control_c, 9, 123, 0
11, 45859, Control_c, 9, 123, 0
11, 45861, Note_on_c, 9, 42, 0
11, 45862, Note_on_c, 9, 35, 0
11, 45870, Note_on_c, 9, 44, 106
11, 45870, Note_on_c, 9, 44, 69
11, 45879, Control_c, 9, 123, 0
11, 45884, Note_on_c, 9, 44, 0
11, 45887, Control_c, 9, 123, 0
11, 45888, Note_on_c, 9, 44, 0
11, 45900, Note_on_c, 9, 42, 71
11, 45908, Control_c, 9, 123, 0
11, 45915, Note_on_c, 9, 42, 0
11, 45930, Note_on_c, 9, 44, 80
11, 45930, Note_on_c, 9, 44, 83
11, 45940, Control_c, 9, 123, 0
11, 45940, Control_c, 9, 123, 0
11, 45945, Note_on_c, 9, 44, 0
11, 45947, Note_on_c, 9, 44, 0
11, 45960, Note_on_c, 9, 42, 127
11, 45960, Note_on_c, 9, 40, 113
11, 45960, Note_on_c, 9, 42, 127
11, 45974, Control_c, 9, 123, 0
11, 45975, Control_c, 9, 123, 0
11, 45978, Control_c, 9, 123, 0
11, 45979, Note_on_c, 9, 42, 0
11, 45980, Note_on_c, 9, 42, 0
11, 45983, Note_on_c, 9, 40, 0
11, 45990, Note_on_c, 9, 44, 86
11, 45990, Note_on_c, 9, 44, 80
11, 45997, Control_c, 9, 123, 0
11, 46000, Control_c, 9, 123, 0
11, 46003, Note_on_c, 9, 44, 0
11, 46007, Note_on_c, 9, 44, 0
11, 46020, Note_on_c, 9, 42, 42
11, 46020, Note_on_c, 9, 42, 40
11, 46026, Control_c, 9, 123, 0
11, 46032, Note_on_c, 9, 42, 0
11, 46033, Note_on_c, 9, 42, 0
11, 46034, Control_c, 9, 123, 0
11, 46050, Note_on_c, 9, 44, 80
11, 46050, Note_on_c, 9, 44, 69
11, 46050, Note_on_c, 9, 35, 66
11, 46055, Control_c, 9, 123, 0
11, 46056, Control_c, 9, 123, 0
11, 46060, Note_on_c, 9, 35, 0
11, 46062, Control_c, 9, 123, 0
11, 46065, Note_on_c, 9, 44, 0
11, 46065, Note_on_c, 9, 44, 0
11, 46080, Note_on_c, 9, 42, 127
11, 46080, Note_on_c, 9, 42, 127
11, 46080, Note_on_c, 9, 35, 103
11, 46089, Control_c, 9, 123, 0
11, 46097, Control_c, 9, 123, 0
11, 46097, Control_c, 9, 123, 0
11, 46099, Note_on_c, 9, 42, 0
11, 46099, Note_on_c, 9, 42, 0
11, 46100, Note_on_c, 9, 35, 0
11, 46110, Note_on_c, 9, 44, 80
11, 46110, Note_on_c, 9, 44, 73
11, 46113, Control_c, 9, 123, 0
11, 46123, Control_c, 9, 123, 0
11, 46125, Note_on_c, 9, 44, 0
11, 46128, Note_on_c, 9, 44, 0
11, 46140, Note_on_c, 9, 42, 75
11, 46140, Note_on_c, 9, 42, 51
11, 46148, Control_c, 9, 123, 0
11, 46155, Control_c, 9, 123, 0
11, 46156, Note_on_c, 9, 42, 0
11, 46157, Note_on_c, 9, 42, 0
11, 46170, Note_on_c, 9, 44, 90
11, 46170, Note_on_c, 9, 44, 83
11, 46177, Control_c, 9, 123, 0
11, 46185, Note_on_c, 9, 44, 0
11, 46185, Control_c, 9, 123, 0
11, 46188, Note_on_c, 9, 44, 0
11, 46200, Note_on_c, 9, 42, 126
11, 46200, Note_on_c, 9, 40, 113
11, 46200, Note_on_c, 9, 42, 127
11, 46213, Control_c, 9, 123, 0
11, 46217, Note_on_c, 9, 42, 0
11, 46218, Control_c, 9, 123, 0
11, 46221, Note_on_c, 9, 42, 0
11, 46225, Control_c, 9, 123, 0
11, 46228, Note_on_c, 9, 40, 0
11, 46230, Note_on_c, 9, 44, 67
11, 46230, Note_on_c, 9, 44, 60
11, 46239, Control_c, 9, 123, 0
11, 46240, Control_c, 9, 123, 0
11, 46243, Note_on_c, 9, 44, 0
11, 46248, Note_on_c, 9, 44, 0
11, 46260, Note_on_c, 9, 42, 55
11, 46260, Note_on_c, 9, 42, 95
11, 46266, Note_on_c, 9, 42, 0
11, 46267, Control_c, 9, 123, 0
11, 46273, Control_c, 9, 123, 0
11, 46275, Note_on_c, 9, 44, 86
11, 46278, Note_on_c, 9, 42, 0
11, 46283, Control_c, 9, 123, 0
11, 46287, Note_on_c, 9, 44, 0
11, 46290, Note_on_c, 9, 42, 112
11, 46290, Note_on_c, 9, 44, 83
11, 46300, Control_c, 9, 123, 0
11, 46301, Control_c, 9, 123, 0
11, 46303, Note_on_c, 9, 42, 0
11, 46309, Note_on_c, 9, 44, 0
11, 46320, Note_on_c, 9, 44, 118
11, 46320, Note_on_c, 9, 42, 95
11, 46333, Control_c, 9, 123, 0
11, 46337, Control_c, 9, 123, 0
11, 46338, Note_on_c, 9, 44, 0
11, 46339, Note_on_c, 9, 42, 0
11, 46350, Note_on_c, 9, 44, 65
11, 46358, Control_c, 9, 123, 0
11, 46365, Note_on_c, 9, 44, 0
11, 46380, Note_on_c, 9, 42, 100
11, 46380, Note_on_c, 9, 42, 60
11, 46392, Control_c, 9, 123, 0
11, 46393, Note_on_c, 9, 42, 0
11, 46394, Control_c, 9, 123, 0
11, 46397, Note_on_c, 9, 42, 0
11, 46410, Note_on_c, 9, 44, 75
11, 46410, Note_on_c, 9, 44, 77
11, 46418, Control_c, 9, 123, 0
11, 46419, Control_c, 9, 123, 0
11, 46423, Note_on_c, 9, 44, 0
11, 46424, Note_on_c, 9, 44, 0
11, 46440, Note_on_c, 9, 42, 127
11, 46440, Note_on_c, 9, 42, 127
11, 46440, Note_on_c, 9, 40, 113
11, 46457, Control_c, 9, 123, 0
11, 46458, Note_on_c, 9, 42, 0
11, 46458, Control_c, 9, 123, 0
11, 46460, Note_on_c, 9, 42, 0
11, 46465, Note_on_c, 9, 40, 0
11, 46466, Control_c, 9, 123, 0
11, 46470, Note_on_c, 9, 44, 100
11, 46470, Note_on_c, 9, 44, 86
11, 46481, Control_c, 9, 123, 0
11, 46482, Control_c, 9, 123, 0
11, 46485, Note_on_c, 9, 44, 0
11, 46485, Note_on_c, 9, 44, 0
11, 46500, Note_on_c, 9, 42, 95
11, 46500, Note_on_c, 9, 42, 67
11, 46515, Note_on_c, 9, 42, 0
11, 46515, Control_c, 9, 123, 0
11, 46518, Control_c, 9, 123, 0
11, 46520, Note_on_c, 9, 42, 0
11, 46530, Note_on_c, 9, 46, 106
11, 46530, Note_on_c, 9, 46, 100
11, 46530, Note_on_c, 9, 35, 67
11, 46537, Control_c, 9, 123, 0
11, 46539, Note_on_c, 9, 35, 0
11, 46546, Control_c, 9, 123, 0
11, 46547, Control_c, 9, 123, 0
11, 46549, Note_on_c, 9, 46, 0
11, 46549, Note_on_c, 9, 46, 0
11, 46560, Note_on_c, 9, 42, 126
11, 46560, Note_on_c, 9, 42, 126
11, 46560, Note_on_c, 9, 35, 113
11, 46577, Note_on_c, 9, 42, 0
11, 46577, Control_c, 9, 123, 0
11, 46579, Control_c, 9, 123, 0
11, 46581, Note_on_c, 9, 35, 0
11, 46581, Control_c, 9, 123, 0
11, 46582, Note_on_c, 9, 42, 0
11, 46590, Note_on_c, 9, 44, 90
11, 46590, Note_on_c, 9, 44, 71
11, 46600, Control_c, 9, 123, 0
11, 46602, Note_on_c, 9, 44, 0
11, 46603, Control_c, 9, 123, 0
11, 46608, Note_on_c, 9, 44, 0
11, 46620, Note_on_c, 9, 42, 69
11, 46620, Note_on_c, 9, 42, 69
11, 46630, Control_c, 9, 123, 0
11, 46632, Note_on_c, 9, 42, 0
11, 46636, Control_c, 9, 123, 0
11, 46638, Note_on_c, 9, 42, 0
11, 46650, Note_on_c, 9, 44, 86
11, 46650, Note_on_c, 9, 44, 86
11, 46659, Control_c, 9, 123, 0
11, 46665, Control_c, 9, 123, 0
11, 46666, Note_on_c, 9, 44, 0
11, 46667, Note_on_c, 9, 44, 0
11, 46680, Note_on_c, 9, 42, 127
11, 46680, Note_on_c, 9, 42, 118
11, 46680, Note_on_c, 9, 40, 106
11, 46696, Control_c, 9, 123, 0
11, 46698, Note_on_c, 9, 42, 0
11, 46698, Control_c, 9, 123, 0
11, 46701, Note_on_c, 9, 42, 0
11, 46704, Note_on_c, 9, 40, 0
11, 46704, Control_c, 9, 123, 0
11, 46710, Note_on_c, 9, 44, 86
11, 46710, Note_on_c, 9, 44, 64
11, 46720, Control_c, 9, 123, 0
11, 46723, Control_c, 9, 123, 0
11, 46727, Note_on_c, 9, 44, 0
11, 46728, Note_on_c, 9, 44, 0
11, 46740, Note_on_c, 9, 42, 45
11, 46740, Note_on_c, 9, 42, 69
11, 46754, Control_c, 9, 123, 0
11, 46754, Control_c, 9, 123, 0
11, 46755, Note_on_c, 9, 42, 0
11, 46759, Note_on_c, 9, 42, 0
11, 46770, Note_on_c, 9, 44, 86
11, 46770, Note_on_c, 9, 44, 77
11, 46780, Control_c, 9, 123, 0
11, 46783, Control_c, 9, 123, 0
11, 46785, Note_on_c, 9, 44, 0
11, 46790, Note_on_c, 9, 44, 0
11, 46800, Note_on_c, 9, 42, 126
11, 46800, Note_on_c, 9, 42, 71
11, 46816, Control_c, 9, 123, 0
11, 46817, Control_c, 9, 123, 0
11, 46819, Note_on_c, 9, 42, 0
11, 46821, Note_on_c, 9, 42, 0
11, 46830, Note_on_c, 9, 44, 83
11, 46830, Note_on_c, 9, 44, 67
11, 46838, Control_c, 9, 123, 0
11, 46841, Control_c, 9, 123, 0
11, 46845, Note_on_c, 9, 44, 0
11, 46848, Note_on_c, 9, 44, 0
11, 46860, Note_on_c, 9, 42, 53
11, 46860, Note_on_c, 9, 42, 75
11, 46872, Control_c, 9, 123, 0
11, 46873, Control_c, 9, 123, 0
11, 46875, Note_on_c, 9, 44, 75
11, 46878, Note_on_c, 9, 42, 0
11, 46878, Note_on_c, 9, 42, 0
11, 46890, Note_on_c, 9, 44, 73
11, 46891, Note_on_c, 9, 44, 0
11, 46898, Control_c, 9, 123, 0
11, 46904, Control_c, 9, 123, 0
11, 46910, Note_on_c, 9, 44, 0
11, 46920, Note_on_c, 9, 42, 127
11, 46920, Note_on_c, 9, 40, 117
11, 46920, Note_on_c, 9, 42, 83
11, 46938, Control_c, 9, 123, 0
11, 46938, Control_c, 9, 123, 0
11, 46939, Note_on_c, 9, 42, 0
11, 46939, Note_on_c, 9, 42, 0
11, 46943, Control_c, 9, 123, 0
11, 46945, Note_on_c, 9, 40, 0
11, 46950, Note_on_c, 9, 44, 69
11, 46950, Note_on_c, 9, 44, 77
11, 46961, Control_c, 9, 123, 0
11, 46962, Control_c, 9, 123, 0
11, 46965, Note_on_c, 9, 44, 0
11, 46967, Note_on_c, 9, 44, 0
11, 46980, Note_on_c, 9, 50, 68
11, 46980, Note_on_c, 9, 42, 69
11, 46980, Note_on_c, 9, 42, 73
11, 46983, Note_on_c, 9, 50, 0
11, 46984, Control_c, 9, 123, 0
11, 46994, Control_c, 9, 123, 0
11, 46995, Note_on_c, 9, 42, 0
11, 46995, Note_on_c, 9, 42, 0
11, 46995, Note_on_c, 9, 50, 71
11, 46995, Control_c, 9, 123, 0
11, 46999, Control_c, 9, 123, 0
11, 47003, Note_on_c, 9, 50, 0
11, 47010, Note_on_c, 9, 50, 71
11, 47010, Note_on_c, 9, 44, 73
11, 47010, Note_on_c, 9, 44, 75
11, 47010, Control_c, 9, 123, 0
11, 47016, Note_on_c, 9, 50, 0
11, 47022, Control_c, 9, 123, 0
11, 47025, Control_c, 9, 123, 0
11, 47026, Note_on_c, 9, 44, 0
11, 47029, Note_on_c, 9, 44, 0
11, 47040, Note_on_c, 9, 50, 106
11, 47040, Note_on_c, 9, 42, 127
11, 47040, Note_on_c, 9, 42, 73
11, 47040, Note_on_c, 9, 35, 71
11, 47052, Note_on_c, 9, 35, 0
11, 47054, Control_c, 9, 123, 0
11, 47056, Control_c, 9, 123, 0
11, 47057, Control_c, 9, 123, 0
11, 47058, Note_on_c, 9, 42, 0
11, 47060, Note_on_c, 9, 42, 0
11, 47070, Note_on_c, 9, 44, 73
11, 47070, Note_on_c, 9, 44, 86
11, 47070, Note_on_c, 9, 35, 100
11, 47076, Control_c, 9, 123, 0
11, 47078, Note_on_c, 9, 50, 0
11, 47080, Control_c, 9, 123, 0
11, 47081, Control_c, 9, 123, 0
11, 47084, Note_on_c, 9, 44, 0
11, 47087, Control_c, 9, 123, 0
11, 47088, Note_on_c, 9, 44, 0
11, 47088, Note_on_c, 9, 35, 0
11, 47100, Note_on_c, 9, 42, 77
11, 47100, Note_on_c, 9, 42, 51
11, 47113, Control_c, 9, 123, 0
11, 47113, Control_c, 9, 123, 0
11, 47115, Note_on_c, 9, 42, 0
11, 47115, Note_on_c, 9, 42, 0
11, 47130, Note_on_c, 9, 50, 80
11, 47130, Note_on_c, 9, 44, 90
11, 47130, Note_on_c, 9, 44, 80
11, 47141, Control_c, 9, 123, 0
11, 47144, Control_c, 9, 123, 0
11, 47144, Control_c, 9, 123, 0
11, 47146, Note_on_c, 9, 44, 0
11, 47148, Note_on_c, 9, 50, 0
11, 47148, Note_on_c, 9, 44, 0
11, 47160, Note_on_c, 9, 48, 122
11, 47160, Note_on_c, 9, 42, 127
11, 47160, Note_on_c, 9, 42, 127
11, 47160, Note_on_c, 9, 40, 122
11, 47176, Control_c, 9, 123, 0
11, 47177, Note_on_c, 9, 48, 0
11, 47177, Control_c, 9, 123, 0
11, 47178, Note_on_c, 9, 42, 0
11, 47179, Control_c, 9, 123, 0
11, 47180, Note_on_c, 9, 42, 0
11, 47184, Note_on_c, 9, 40, 0
11, 47186, Control_c, 9, 123, 0
11, 47190, Note_on_c, 9, 48, 109
11, 47190, Note_on_c, 9, 44, 67
11, 47190, Note_on_c, 9, 44, 90
11, 47198, Control_c, 9, 123, 0
11, 47200, Note_on_c, 9, 44, 0
11, 47204, Control_c, 9, 123, 0
11, 47206, Note_on_c, 9, 48, 0
11, 47206, Note_on_c, 9, 44, 0
11, 47207, Control_c, 9, 123, 0
11, 47220, Note_on_c, 9, 48, 82
11, 47220, Note_on_c, 9, 42, 71
11, 47222, Control_c, 9, 123, 0
11, 47223, Note_on_c, 9, 42, 0
11, 47228, Control_c, 9, 123, 0
11, 47231, Note_on_c, 9, 48, 0
11, 47235, Note_on_c, 9, 44, 80
11, 47239, Control_c, 9, 123, 0
11, 47243, Note_on_c, 9, 44, 0
11, 47250, Note_on_c, 9, 48, 76
11, 47250, Note_on_c, 9, 42, 127
11, 47250, Note_on_c, 9, 44, 100
11, 47252, Control_c, 9, 123, 0
11, 47258, Note_on_c, 9, 42, 0
11, 47263, Control_c, 9, 123, 0
11, 47265, Note_on_c, 9, 48, 0
11, 47266, Control_c, 9, 123, 0
11, 47269, Note_on_c, 9, 44, 0
11, 47280, Note_on_c, 9, 45, 103
11, 47280, Note_on_c, 9, 44, 112
11, 47280, Note_on_c, 9, 42, 106
11, 47294, Control_c, 9, 123, 0
11, 47295, Control_c, 9, 123, 0
11, 47295, Control_c, 9, 123, 0
11, 47296, Note_on_c, 9, 45, 0
11, 47298, Note_on_c, 9, 44, 0
11, 47300, Note_on_c, 9, 42, 0
11, 47310, Note_on_c, 9, 45, 82
11, 47310, Note_on_c, 9, 44, 100
11, 47322, Control_c, 9, 123, 0
11, 47326, Control_c, 9, 123, 0
11, 47327, Note_on_c, 9, 44, 0
11, 47331, Note_on_c, 9, 45, 0
11, 47340, Note_on_c, 9, 45, 86
11, 47340, Note_on_c, 9, 42, 118
11, 47349, Control_c, 9, 123, 0
11, 47351, Note_on_c, 9, 42, 0
11, 47355, Control_c, 9, 123, 0
11, 47358, Note_on_c, 9, 45, 0
11, 47370, Note_on_c, 9, 45, 86
11, 47370, Note_on_c, 9, 44, 106
11, 47370, Note_on_c, 9, 44, 73
11, 47377, Control_c, 9, 123, 0
11, 47380, Control_c, 9, 123, 0
11, 47384, Note_on_c, 9, 44, 0
11, 47385, Note_on_c, 9, 44, 0
11, 47388, Control_c, 9, 123, 0
11, 47392, Note_on_c, 9, 45, 0
11, 47400, Note_on_c, 9, 41, 80
11, 47400, Note_on_c, 9, 42, 127
11, 47400, Note_on_c, 9, 42, 127
11, 47400, Note_on_c, 9, 40, 117
11, 47406, Control_c, 9, 123, 0
11, 47408, Note_on_c, 9, 41, 0
11, 47414, Control_c, 9, 123, 0
11, 47417, Control_c, 9, 123, 0
11, 47418, Note_on_c, 9, 42, 0
11, 47419, Note_on_c, 9, 42, 0
11, 47424, Control_c, 9, 123, 0
11, 47425, Note_on_c, 9, 40, 0
11, 47430, Note_on_c, 9, 41, 77
11, 47430, Note_on_c, 9, 44, 100
11, 47430, Note_on_c, 9, 46, 100
11, 47435, Control_c, 9, 123, 0
11, 47440, Control_c, 9, 123, 0
11, 47441, Note_on_c, 9, 41, 0
11, 47444, Control_c, 9, 123, 0
11, 47445, Note_on_c, 9, 44, 0
11, 47452, Note_on_c, 9, 46, 0
11, 47460, Note_on_c, 9, 41, 54
11, 47460, Note_on_c, 9, 42, 118
11, 47460, Note_on_c, 9, 42, 67
11, 47466, Note_on_c, 9, 41, 0
11, 47466, Control_c, 9, 123, 0
11, 47472, Control_c, 9, 123, 0
11, 47474, Control_c, 9, 123, 0
11, 47475, Note_on_c, 9, 42, 0
11, 47476, Note_on_c, 9, 42, 0
11, 47490, Note_on_c, 9, 41, 71
11, 47490, Note_on_c, 9, 46, 118
11, 47490, Note_on_c, 9, 46, 118
11, 47490, Note_on_c, 9, 35, 68
11, 47503, Control_c, 9, 123, 0
11, 47503, Control_c, 9, 123, 0
11, 47503, Control_c, 9, 123, 0
11, 47504, Note_on_c, 9, 35, 0
11, 47504, Control_c, 9, 123, 0
11, 47506, Note_on_c, 9, 41, 0
11, 47509, Note_on_c, 9, 46, 0
11, 47509, Note_on_c, 9, 46, 0
11, 47520, Note_on_c, 9, 42, 127
11, 47520, Note_on_c, 9, 42, 77
11, 47520, Note_on_c, 9, 35, 95
11, 47520, Note_on_c, 9, 49, 118
11, 47533, Control_c, 9, 123, 0
11, 47535, Control_c, 9, 123, 0
11, 47536, Note_on_c, 9, 42, 0
11, 47539, Note_on_c, 9, 42, 0
11, 47544, Control_c, 9, 123, 0
11, 47545, Note_on_c, 9, 35, 0
11, 47550, Note_on_c, 9, 44, 86
11, 47550, Note_on_c, 9, 44, 73
11, 47560, Control_c, 9, 123, 0
11, 47563, Control_c, 9, 123, 0
11, 47565, Note_on_c, 9, 44, 0
11, 47566, Note_on_c, 9, 44, 0
11, 47580, Note_on_c, 9, 42, 73
11, 47580, Note_on_c, 9, 42, 64
11, 47595, Control_c, 9, 123, 0
11, 47596, Note_on_c, 9, 42, 0
11, 47596, Note_on_c, 9, 42, 0
11, 47596, Control_c, 9, 123, 0
11, 47610, Note_on_c, 9, 44, 83
11, 47610, Note_on_c, 9, 44, 83
11, 47619, Control_c, 9, 123, 0
11, 47625, Note_on_c, 9, 44, 0
11, 47627, Control_c, 9, 123, 0
11, 47628, Note_on_c, 9, 44, 0
11, 47640, Note_on_c, 9, 42, 127
11, 47640, Note_on_c, 9, 42, 127
11, 47640, Note_on_c, 9, 40, 113
11, 47655, Control_c, 9, 123, 0
11, 47658, Note_on_c, 9, 42, 0
11, 47662, Note_on_c, 9, 42, 0
11, 47662, Control_c, 9, 123, 0
11, 47664, Note_on_c, 9, 40, 0
11, 47665, Control_c, 9, 123, 0
11, 47670, Note_on_c, 9, 44, 90
11, 47670, Note_on_c, 9, 44, 75
11, 47680, Control_c, 9, 123, 0
11, 47685, Note_on_c, 9, 44, 0
11, 47688, Note_on_c, 9, 44, 0
11, 47690, Control_c, 9, 123, 0
11, 47700, Note_on_c, 9, 42, 83
11, 47700, Note_on_c, 9, 42, 64
11, 47714, Control_c, 9, 123, 0
11, 47715, Note_on_c, 9, 42, 0
11, 47715, Control_c, 9, 123, 0
11, 47716, Note_on_c, 9, 42, 0
11, 47730, Note_on_c, 9, 44, 100
11, 47730, Note_on_c, 9, 44, 86
11, 47746, Note_on_c, 9, 49, 0
11, 47746, Note_on_c, 9, 44, 0
11, 47746, Control_c, 9, 123, 0
11, 47747, Control_c, 9, 123, 0
11, 47747, Control_c, 9, 123, 0
11, 47748, Note_on_c, 9, 44, 0
11, 47760, Note_on_c, 9, 42, 75
11, 47760, Note_on_c, 9, 42, 106
11, 47775, Control_c, 9, 123, 0
11, 47776, Note_on_c, 9, 42, 0
11, 47776, Note_on_c, 9, 42, 0
11, 47779, Control_c, 9, 123, 0
11, 47790, Note_on_c, 9, 44, 90
11, 47790, Note_on_c, 9, 44, 64
11, 47802, Control_c, 9, 123, 0
11, 47802, Control_c, 9, 123, 0
11, 47804, Note_on_c, 9, 44, 0
11, 47808, Note_on_c, 9, 44, 0
11, 47820, Note_on_c, 9, 42, 86
11, 47820, Note_on_c, 9, 42, 69
11, 47833, Control_c, 9, 123, 0
11, 47835, Control_c, 9, 123, 0
11, 47836, Note_on_c, 9, 42, 0
11, 47838, Note_on_c, 9, 42, 0
11, 47850, Note_on_c, 9, 44, 80
11, 47850, Note_on_c, 9, 44, 80
11, 47865, Control_c, 9, 123, 0
11, 47866, Control_c, 9, 123, 0
11, 47868, Note_on_c, 9, 44, 0
11, 47871, Note_on_c, 9, 44, 0
11, 47880, Note_on_c, 9, 42, 127
11, 47880, Note_on_c, 9, 40, 113
11, 47880, Note_on_c, 9, 42, 69
11, 47895, Control_c, 9, 123, 0
11, 47897, Note_on_c, 9, 42, 0
11, 47898, Note_on_c, 9, 42, 0
11, 47898, Control_c, 9, 123, 0
11, 47899, Control_c, 9, 123, 0
11, 47901, Note_on_c, 9, 40, 0
11, 47910, Note_on_c, 9, 44, 71
11, 47910, Note_on_c, 9, 44, 90
11, 47916, Control_c, 9, 123, 0
11, 47922, Note_on_c, 9, 44, 0
11, 47925, Control_c, 9, 123, 0
11, 47930, Note_on_c, 9, 44, 0
11, 47940, Note_on_c, 9, 42, 95
11, 47940, Note_on_c, 9, 42, 69
11, 47943, Control_c, 9, 123, 0
11, 47948, Note_on_c, 9, 42, 0
11, 47954, Control_c, 9, 123, 0
11, 47955, Note_on_c, 9, 44, 95
11, 47959, Note_on_c, 9, 42, 0
11, 47962, Control_c, 9, 123, 0
11, 47968, Note_on_c, 9, 44, 0
11, 47970, Note_on_c, 9, 42, 127
11, 47970, Note_on_c, 9, 35, 63
11, 47970, Note_on_c, 9, 44, 77
11, 47979, Control_c, 9, 123, 0
11, 47980, Note_on_c, 9, 35, 0
11, 47981, Control_c, 9, 123, 0
11, 47985, Note_on_c, 9, 42, 0
11, 47987, Control_c, 9, 123, 0
11, 47989, Note_on_c, 9, 44, 0
11, 48000, Note_on_c, 9, 44, 118
11, 48000, Note_on_c, 9, 35, 109
11, 48000, Note_on_c, 9, 42, 73
11, 48014, Control_c, 9, 123, 0
11, 48018, Note_on_c, 9, 44, 0
11, 48020, Note_on_c, 9, 42, 0
11, 48020, Control_c, 9, 123, 0
11, 48020, Control_c, 9, 123, 0
11, 48022, Note_on_c, 9, 35, 0
11, 48030, Note_on_c, 9, 44, 83
11, 48047, Control_c, 9, 123, 0
11, 48048, Note_on_c, 9, 44, 0
11, 48060, Note_on_c, 9, 42, 90
11, 48060, Note_on_c, 9, 42, 65
11, 48069, Control_c, 9, 123, 0
11, 48072, Note_on_c, 9, 42, 0
11, 48075, Note_on_c, 9, 42, 0
11, 48075, Note_on_c, 9, 44, 90
11, 48077, Control_c, 9, 123, 0
11, 48090, Note_on_c, 9, 44, 0
11, 48090, Note_on_c, 9, 44, 95
11, 48098, Control_c, 9, 123, 0
11, 48108, Control_c, 9, 123, 0
11, 48109, Note_on_c, 9, 44, 0
11, 48120, Note_on_c, 9, 42, 127
11, 48120, Note_on_c, 9, 40, 109
11, 48120, Note_on_c, 9, 42, 127
11, 48135, Control_c, 9, 123, 0
11, 48140, Note_on_c, 9, 42, 0
11, 48140, Note_on_c, 9, 42, 0
11, 48140, Control_c, 9, 123, 0
11, 48143, Control_c, 9, 123, 0
11, 48145, Note_on_c, 9, 40, 0
11, 48150, Note_on_c, 9, 44, 90
11, 48150, Note_on_c, 9, 44, 73
11, 48159, Control_c, 9, 123, 0
11, 48163, Note_on_c, 9, 44, 0
11, 48168, Control_c, 9, 123, 0
11, 48169, Note_on_c, 9, 44, 0
11, 48180, Note_on_c, 9, 42, 57
11, 48192, Note_on_c, 9, 42, 0
11, 48193, Control_c, 9, 123, 0
11, 48210, Note_on_c, 9, 44, 95
11, 48210, Note_on_c, 9, 44, 95
11, 48223, Control_c, 9, 123, 0
11, 48225, Note_on_c, 9, 44, 0
11, 48225, Control_c, 9, 123, 0
11, 48228, Note_on_c, 9, 44, 0
11, 48240, Note_on_c, 9, 42, 106
11, 48240, Note_on_c, 9, 42, 73
11, 48255, Note_on_c, 9, 42, 0
11, 48255, Control_c, 9, 123, 0
11, 48255, Control_c, 9, 123, 0
11, 48256, Note_on_c, 9, 42, 0
11, 48270, Note_on_c, 9, 46, 126
11, 48270, Note_on_c, 9, 44, 90
11, 48285, Control_c, 9, 123, 0
11, 48287, Note_on_c, 9, 46, 0
11, 48287, Control_c, 9, 123, 0
11, 48288, Note_on_c, 9, 44, 0
11, 48300, Note_on_c, 9, 42, 95
11, 48300, Note_on_c, 9, 42, 67
11, 48312, Control_c, 9, 123, 0
11, 48314, Note_on_c, 9, 42, 0
11, 48315, Control_c, 9, 123, 0
11, 48317, Note_on_c, 9, 42, 0
11, 48330, Note_on_c, 9, 44, 80
11, 48330, Note_on_c, 9, 44, 100
11, 48340, Control_c, 9, 123, 0
11, 48341, Note_on_c, 9, 44, 0
11, 48348, Note_on_c, 9, 44, 0
11, 48349, Control_c, 9, 123, 0
11, 48360, Note_on_c, 9, 42, 127
11, 48360, Note_on_c, 9, 42, 100
11, 48360, Note_on_c, 9, 40, 113
11, 48375, Note_on_c, 9, 42, 0
11, 48375, Control_c, 9, 123, 0
11, 48379, Control_c, 9, 123, 0
11, 48380, Note_on_c, 9, 42, 0
11, 48384, Note_on_c, 9, 40, 0
11, 48384, Control_c, 9, 123, 0
11, 48390, Note_on_c, 9, 44, 95
11, 48390, Note_on_c, 9, 44, 75
11, 48400, Note_on_c, 9, 44, 0
11, 48400, Control_c, 9, 123, 0
11, 48406, Control_c, 9, 123, 0
11, 48409, Note_on_c, 9, 44, 0
11, 48420, Note_on_c, 9, 42, 77
11, 48420, Note_on_c, 9, 42, 65
11, 48433, Control_c, 9, 123, 0
11, 48434, Note_on_c, 9, 42, 0
11, 48437, Control_c, 9, 123, 0
11, 48441, Note_on_c, 9, 42, 0
11, 48450, Note_on_c, 9, 46, 126
11, 48450, Note_on_c, 9, 46, 126
11, 48450, Note_on_c, 9, 35, 68
11, 48460, Note_on_c, 9, 35, 0
11, 48460, Control_c, 9, 123, 0
11, 48465, Control_c, 9, 123, 0
11, 48467, Control_c, 9, 123, 0
11, 48468, Note_on_c, 9, 46, 0
11, 48469, Note_on_c, 9, 46, 0
11, 48480, Note_on_c, 9, 42, 112
11, 48480, Note_on_c, 9, 42, 69
11, 48480, Note_on_c, 9, 35, 100
11, 48498, Control_c, 9, 123, 0
11, 48498, Control_c, 9, 123, 0
11, 48499, Control_c, 9, 123, 0
11, 48500, Note_on_c, 9, 42, 0
11, 48501, Note_on_c, 9, 35, 0
11, 48502, Note_on_c, 9, 42, 0
11, 48510, Note_on_c, 9, 44, 86
11, 48510, Note_on_c, 9, 46, 86
11, 48523, Control_c, 9, 123, 0
11, 48525, Note_on_c, 9, 44, 0
11, 48527, Control_c, 9, 123, 0
11, 48532, Note_on_c, 9, 46, 0
11, 48540, Note_on_c, 9, 42, 73
11, 48540, Note_on_c, 9, 42, 63
11, 48547, Note_on_c, 9, 42, 0
11, 48547, Control_c, 9, 123, 0
11, 48555, Control_c, 9, 123, 0
11, 48556, Note_on_c, 9, 42, 0
11, 48570, Note_on_c, 9, 44, 95
11, 48570, Note_on_c, 9, 44, 73
11, 48580, Control_c, 9, 123, 0
11, 48583, Note_on_c, 9, 44, 0
11, 48583, Control_c, 9, 123, 0
11, 48589, Note_on_c, 9, 44, 0
11, 48600, Note_on_c, 9, 42, 127
11, 48600, Note_on_c, 9, 42, 90
11, 48600, Note_on_c, 9, 40, 109
11, 48615, Control_c, 9, 123, 0
11, 48618, Note_on_c, 9, 42, 0
11, 48619, Control_c, 9, 123, 0
11, 48624, Note_on_c, 9, 42, 0
11, 48625, Note_on_c, 9, 40, 0
11, 48627, Control_c, 9, 123, 0
11, 48630, Note_on_c, 9, 44, 86
11, 48630, Note_on_c, 9, 44, 52
11, 48640, Control_c, 9, 123, 0
11, 48642, Note_on_c, 9, 44, 0
11, 48642, Control_c, 9, 123, 0
11, 48646, Note_on_c, 9, 44, 0
11, 48660, Note_on_c, 9, 42, 53
11, 48660, Note_on_c, 9, 42, 77
11, 48673, Note_on_c, 9, 42, 0
11, 48676, Control_c, 9, 123, 0
11, 48679, Note_on_c, 9, 42, 0
11, 48680, Control_c, 9, 123, 0
11, 48690, Note_on_c, 9, 44, 86
11, 48690, Note_on_c, 9, 44, 80
11, 48707, Note_on_c, 9, 44, 0
11, 48707, Control_c, 9, 123, 0
11, 48710, Control_c, 9, 123, 0
11, 48711, Note_on_c, 9, 44, 0
11, 48720, Note_on_c, 9, 42, 65
11, 48720, Note_on_c, 9, 42, 126
11, 48738, Note_on_c, 9, 42, 0
11, 48739, Control_c, 9, 123, 0
11, 48740, Note_on_c, 9, 42, 0
11, 48741, Control_c, 9, 123, 0
11, 48750, Note_on_c, 9, 44, 100
11, 48750, Note_on_c, 9, 44, 95
11, 48764, Note_on_c, 9, 44, 0
11, 48765, Control_c, 9, 123, 0
11, 48770, Control_c, 9, 123, 0
11, 48772, Note_on_c, 9, 44, 0
11, 48780, Note_on_c, 9, 42, 51
11, 48780, Note_on_c, 9, 42, 77
11, 48791, Control_c, 9, 123, 0
11, 48792, Note_on_c, 9, 42, 0
11, 48796, Note_on_c, 9, 42, 0
11, 48797, Control_c, 9, 123, 0
11, 48810, Note_on_c, 9, 44, 80
11, 48810, Note_on_c, 9, 44, 100
11, 48826, Control_c, 9, 123, 0
11, 48826, Control_c, 9, 123, 0
11, 48827, Note_on_c, 9, 44, 0
11, 48828, Note_on_c, 9, 44, 0
11, 48840, Note_on_c, 9, 42, 127
11, 48840, Note_on_c, 9, 42, 95
11, 48840, Note_on_c, 9, 40, 117
11, 48857, Control_c, 9, 123, 0
11, 48858, Note_on_c, 9, 42, 0
11, 48858, Control_c, 9, 123, 0
11, 48860, Note_on_c, 9, 42, 0
11, 48868, Note_on_c, 9, 40, 0
11, 48870, Note_on_c, 9, 44, 83
11, 48870, Note_on_c, 9, 44, 67
11, 48870, Control_c, 9, 123, 0
11, 48879, Control_c, 9, 123, 0
11, 48881, Control_c, 9, 123, 0
11, 48883, Note_on_c, 9, 44, 0
11, 48887, Note_on_c, 9, 44, 0
11, 48900, Note_on_c, 9, 42, 55
11, 48900, Note_on_c, 9, 42, 83
11, 48905, Note_on_c, 9, 42, 0
11, 48906, Control_c, 9, 123, 0
11, 48911, Control_c, 9, 123, 0
11, 48913, Note_on_c, 9, 42, 0
11, 48915, Note_on_c, 9, 44, 86
11, 48923, Control_c, 9, 123, 0
11, 48926, Note_on_c, 9, 44, 0
11, 48930, Note_on_c, 9, 42, 127
11, 48930, Note_on_c, 9, 44, 71
11, 48930, Note_on_c, 9, 35, 74
11, 48938, Control_c, 9, 123, 0
11, 48939, Control_c, 9, 123, 0
11, 48940, Note_on_c, 9, 35, 0
11, 48941, Control_c, 9, 123, 0
11, 48944, Note_on_c, 9, 42, 0
11, 48945, Note_on_c, 9, 44, 112
11, 48947, Note_on_c, 9, 44, 0
11, 48960, Note_on_c, 9, 42, 80
11, 48960, Note_on_c, 9, 35, 76
11, 48961, Note_on_c, 9, 44, 0
11, 48966, Control_c, 9, 123, 0
11, 48968, Note_on_c, 9, 35, 0
11, 48968, Control_c, 9, 123, 0
11, 48972, Control_c, 9, 123, 0
11, 48977, Note_on_c, 9, 42, 0
11, 48990, Note_on_c, 9, 44, 83
11, 48990, Note_on_c, 9, 35, 95
11, 49000, Control_c, 9, 123, 0
11, 49004, Control_c, 9, 123, 0
11, 49006, Note_on_c, 9, 44, 0
11, 49008, Note_on_c, 9, 35, 0
11, 49020, Note_on_c, 9, 42, 112
11, 49020, Note_on_c, 9, 42, 54
11, 49029, Control_c, 9, 123, 0
11, 49032, Note_on_c, 9, 42, 0
11, 49033, Note_on_c, 9, 42, 0
11, 49033, Control_c, 9, 123, 0
11, 49050, Note_on_c, 9, 44, 95
11, 49050, Note_on_c, 9, 44, 71
11, 49061, Control_c, 9, 123, 0
11, 49064, Note_on_c, 9, 44, 0
11, 49068, Control_c, 9, 123, 0
11, 49069, Note_on_c, 9, 44, 0
11, 49080, Note_on_c, 9, 42, 127
11, 49080, Note_on_c, 9, 40, 109
11, 49080, Note_on_c, 9, 42, 127
11, 49096, Note_on_c, 9, 42, 0
11, 49096, Control_c, 9, 123, 0
11, 49097, Control_c, 9, 123, 0
11, 49098, Note_on_c, 9, 42, 0
11, 49110, Note_on_c, 9, 44, 90
11, 49110, Note_on_c, 9, 44, 65
11, 49118, Note_on_c, 9, 40, 0
11, 49118, Control_c, 9, 123, 0
11, 49120, Control_c, 9, 123, 0
11, 49122, Note_on_c, 9, 44, 0
11, 49123, Control_c, 9, 123, 0
11, 49125, Note_on_c, 9, 44, 0
11, 49140, Note_on_c, 9, 42, 75
11, 49140, Note_on_c, 9, 44, 77
11, 49140, Note_on_c, 9, 42, 59
11, 49141, Control_c, 9, 123, 0
11, 49146, Note_on_c, 9, 42, 0
11, 49154, Note_on_c, 9, 44, 0
11, 49154, Note_on_c, 9, 42, 0
11, 49156, Control_c, 9, 123, 0
11, 49161, Control_c, 9, 123, 0
11, 49170, Note_on_c, 9, 44, 86
11, 49170, Note_on_c, 9, 42, 106
11, 49179, Control_c, 9, 123, 0
11, 49184, Note_on_c, 9, 44, 0
11, 49185, Note_on_c, 9, 42, 0
11, 49185, Control_c, 9, 123, 0
11, 49200, Note_on_c, 9, 44, 112
11, 49200, Note_on_c, 9, 42, 106
11, 49215, Note_on_c, 9, 42, 0
11, 49215, Control_c, 9, 123, 0
11, 49217, Control_c, 9, 123, 0
11, 49224, Note_on_c, 9, 44, 0
11, 49230, Note_on_c, 9, 46, 126
11, 49247, Control_c, 9, 123, 0
11, 49248, Note_on_c, 9, 46, 0
11, 49260, Note_on_c, 9, 42, 71
11, 49260, Note_on_c, 9, 42, 67
11, 49265, Control_c, 9, 123, 0
11, 49267, Control_c, 9, 123, 0
11, 49269, Note_on_c, 9, 42, 0
11, 49275, Note_on_c, 9, 42, 0
11, 49290, Note_on_c, 9, 44, 75
11, 49290, Note_on_c, 9, 44, 75
11, 49297, Control_c, 9, 123, 0
11, 49303, Control_c, 9, 123, 0
11, 49305, Note_on_c, 9, 44, 0
11, 49307, Note_on_c, 9, 44, 0
11, 49320, Note_on_c, 9, 42, 127
11, 49320, Note_on_c, 9, 42, 127
11, 49320, Note_on_c, 9, 40, 122
11, 49334, Control_c, 9, 123, 0
11, 49337, Control_c, 9, 123, 0
11, 49338, Note_on_c, 9, 42, 0
11, 49340, Note_on_c, 9, 42, 0
11, 49341, Control_c, 9, 123, 0
11, 49345, Note_on_c, 9, 40, 0
11, 49350, Note_on_c, 9, 46, 126
11, 49350, Note_on_c, 9, 44, 86
11, 49359, Control_c, 9, 123, 0
11, 49364, Control_c, 9, 123, 0
11, 49365, Note_on_c, 9, 46, 0
11, 49365, Note_on_c, 9, 44, 0
11, 49380, Note_on_c, 9, 42, 106
11, 49380, Note_on_c, 9, 42, 57
11, 49393, Control_c, 9, 123, 0
11, 49393, Control_c, 9, 123, 0
11, 49394, Note_on_c, 9, 42, 0
11, 49397, Note_on_c, 9, 42, 0
11, 49410, Note_on_c, 9, 44, 95
11, 49410, Note_on_c, 9, 46, 112
11, 49410, Note_on_c, 9, 35, 80
11, 49422, Control_c, 9, 123, 0
11, 49423, Control_c, 9, 123, 0
11, 49425, Note_on_c, 9, 35, 0
11, 49429, Note_on_c, 9, 44, 0
11, 49429, Note_on_c, 9, 46, 0
11, 49429, Control_c, 9, 123, 0
11, 49440, Note_on_c, 9, 42, 80
11, 49440, Note_on_c, 9, 35, 103
11, 49440, Note_on_c, 9, 42, 127
11, 49455, Control_c, 9, 123, 0
11, 49458, Note_on_c, 9, 42, 0
11, 49459, Control_c, 9, 123, 0
11, 49461, Note_on_c, 9, 42, 0
11, 49463, Control_c, 9, 123, 0
11, 49465, Note_on_c, 9, 35, 0
11, 49470, Note_on_c, 9, 44, 71
11, 49470, Note_on_c, 9, 44, 73
11, 49482, Note_on_c, 9, 44, 0
11, 49483, Control_c, 9, 123, 0
11, 49483, Control_c, 9, 123, 0
11, 49489, Note_on_c, 9, 44, 0
11, 49500, Note_on_c, 9, 42, 55
11, 49500, Note_on_c, 9, 42, 64
11, 49512, Control_c, 9, 123, 0
11, 49514, Note_on_c, 9, 42, 0
11, 49515, Note_on_c, 9, 42, 0
11, 49516, Control_c, 9, 123, 0
11, 49530, Note_on_c, 9, 44, 83
11, 49530, Note_on_c, 9, 44, 100
11, 49543, Control_c, 9, 123, 0
11, 49545, Note_on_c, 9, 44, 0
11, 49546, Control_c, 9, 123, 0
11, 49548, Note_on_c, 9, 44, 0
11, 49560, Note_on_c, 9, 42, 127
11, 49560, Note_on_c, 9, 40, 109
11, 49560, Note_on_c, 9, 42, 127
11, 49575, Control_c, 9, 123, 0
11, 49576, Note_on_c, 9, 42, 0
11, 49578, Note_on_c, 9, 42, 0
11, 49579, Control_c, 9, 123, 0
11, 49585, Control_c, 9, 123, 0
11, 49586, Note_on_c, 9, 40, 0
11, 49590, Note_on_c, 9, 44, 77
11, 49590, Note_on_c, 9, 44, 80
11, 49602, Note_on_c, 9, 44, 0
11, 49604, Control_c, 9, 123, 0
11, 49605, Note_on_c, 9, 44, 0
11, 49605, Control_c, 9, 123, 0
11, 49620, Note_on_c, 9, 42, 77
11, 49620, Note_on_c, 9, 42, 51
11, 49632, Note_on_c, 9, 42, 0
11, 49634, Control_c, 9, 123, 0
11, 49635, Note_on_c, 9, 42, 0
11, 49635, Control_c, 9, 123, 0
11, 49650, Note_on_c, 9, 44, 86
11, 49650, Note_on_c, 9, 44, 80
11, 49662, Control_c, 9, 123, 0
11, 49664, Note_on_c, 9, 44, 0
11, 49664, Control_c, 9, 123, 0
11, 49666, Note_on_c, 9, 44, 0
11, 49680, Note_on_c, 9, 42, 126
11, 49680, Note_on_c, 9, 42, 58
11, 49694, Control_c, 9, 123, 0
11, 49696, Note_on_c, 9, 42, 0
11, 49697, Note_on_c, 9, 42, 0
11, 49697, Control_c, 9, 123, 0
11, 49710, Note_on_c, 9, 44, 77
11, 49710, Note_on_c, 9, 44, 71
11, 49719, Control_c, 9, 123, 0
11, 49723, Note_on_c, 9, 44, 0
11, 49724, Control_c, 9, 123, 0
11, 49728, Note_on_c, 9, 44, 0
11, 49740, Note_on_c, 9, 42, 90
11, 49740, Note_on_c, 9, 42, 59
11, 49753, Control_c, 9, 123, 0
11, 49756, Note_on_c, 9, 42, 0
11, 49757, Control_c, 9, 123, 0
11, 49759, Note_on_c, 9, 42, 0
11, 49770, Note_on_c, 9, 44, 95
11, 49770, Note_on_c, 9, 44, 80
11, 49780, Control_c, 9, 123, 0
11, 49781, Control_c, 9, 123, 0
11, 49785, Note_on_c, 9, 44, 0
11, 49786, Note_on_c, 9, 44, 0
11, 49800, Note_on_c, 9, 42, 112
11, 49800, Note_on_c, 9, 40, 109
11, 49800, Note_on_c, 9, 42, 106
11, 49813, Control_c, 9, 123, 0
11, 49818, Note_on_c, 9, 42, 0
11, 49818, Control_c, 9, 123, 0
11, 49819, Note_on_c, 9, 42, 0
11, 49820, Control_c, 9, 123, 0
11, 49827, Note_on_c, 9, 40, 0
11, 49830, Note_on_c, 9, 44, 75
11, 49830, Note_on_c, 9, 44, 71
11, 49839, Control_c, 9, 123, 0
11, 49841, Control_c, 9, 123, 0
11, 49845, Note_on_c, 9, 44, 0
11, 49846, Note_on_c, 9, 44, 0
11, 49860, Note_on_c, 9, 42, 106
11, 49860, Note_on_c, 9, 42, 57
11, 49866, Note_on_c, 9, 42, 0
11, 49866, Control_c, 9, 123, 0
11, 49872, Control_c, 9, 123, 0
11, 49875, Note_on_c, 9, 44, 100
11, 49877, Note_on_c, 9, 42, 0
11, 49887, Note_on_c, 9, 44, 0
11, 49890, Note_on_c, 9, 42, 127
11, 49890, Note_on_c, 9, 44, 95
11, 49890, Note_on_c, 9, 35, 58
11, 49898, Control_c, 9, 123, 0
11, 49902, Note_on_c, 9, 35, 0
11, 49902, Control_c, 9, 123, 0
11, 49903, Control_c, 9, 123, 0
11, 49904, Note_on_c, 9, 42, 0
11, 49908, Note_on_c, 9, 44, 0
11, 49920, Note_on_c, 9, 44, 118
11, 49920, Note_on_c, 9, 35, 79
11, 49920, Note_on_c, 9, 42, 86
11, 49930, Control_c, 9, 123, 0
11, 49932, Note_on_c, 9, 35, 0
11, 49934, Control_c, 9, 123, 0
11, 49937, Control_c, 9, 123, 0
11, 49938, Note_on_c, 9, 44, 0
11, 49939, Note_on_c, 9, 42, 0
11, 49950, Note_on_c, 9, 35, 88
11, 49950, Note_on_c, 9, 44, 75
11, 49962, Control_c, 9, 123, 0
11, 49965, Note_on_c, 9, 44, 0
11, 49968, Control_c, 9, 123, 0
11, 49972, Note_on_c, 9, 35, 0
11, 49980, Note_on_c, 9, 42, 118
11, 49980, Note_on_c, 9, 42, 50
11, 49991, Control_c, 9, 123, 0
11, 49992, Note_on_c, 9, 42, 0
11, 49993, Control_c, 9, 123, 0
11, 49997, Note_on_c, 9, 42, 0
11, 50010, Note_on_c, 9, 44, 86
11, 50010, Note_on_c, 9, 44, 77
11, 50024, Control_c, 9, 123, 0
11, 50026, Control_c, 9, 123, 0
11, 50027, Note_on_c, 9, 44, 0
11, 50030, Note_on_c, 9, 44, 0
11, 50040, Note_on_c, 9, 42, 127
11, 50040, Note_on_c, 9, 42, 100
11, 50040, Note_on_c, 9, 40, 109
11, 50057, Control_c, 9, 123, 0
11, 50058, Note_on_c, 9, 42, 0
11, 50058, Control_c, 9, 123, 0
11, 50059, Note_on_c, 9, 42, 0
11, 50067, Note_on_c, 9, 40, 0
11, 50067, Control_c, 9, 123, 0
11, 50070, Note_on_c, 9, 44, 80
11, 50070, Note_on_c, 9, 44, 73
11, 50080, Control_c, 9, 123, 0
11, 50084, Note_on_c, 9, 44, 0
11, 50085, Note_on_c, 9, 44, 0
11, 50085, Control_c, 9, 123, 0
11, 50099, Control_c, 9, 123, 0
11, 50100, Note_on_c, 9, 42, 80
11, 50100, Note_on_c, 9, 42, 67
11, 50100, Note_on_c, 9, 44, 77
11, 50107, Note_on_c, 9, 42, 0
11, 50112, Note_on_c, 9, 44, 0
11, 50118, Note_on_c, 9, 42, 0
11, 50118, Control_c, 9, 123, 0
11, 50119, Control_c, 9, 123, 0
11, 50130, Note_on_c, 9, 44, 100
11, 50130, Note_on_c, 9, 42, 75
11, 50136, Control_c, 9, 123, 0
11, 50144, Note_on_c, 9, 42, 0
11, 50145, Note_on_c, 9, 44, 0
11, 50145, Control_c, 9, 123, 0
11, 50160, Note_on_c, 9, 44, 106
11, 50160, Note_on_c, 9, 42, 126
11, 50173, Control_c, 9, 123, 0
11, 50178, Note_on_c, 9, 44, 0
11, 50178, Note_on_c, 9, 42, 0
11, 50180, Control_c, 9, 123, 0
11, 50190, Note_on_c, 9, 44, 86
11, 50204, Control_c, 9, 123, 0
11, 50205, Note_on_c, 9, 44, 0
11, 50220, Note_on_c, 9, 42, 67
11, 50220, Note_on_c, 9, 42, 83
11, 50231, Control_c, 9, 123, 0
11, 50234, Note_on_c, 9, 42, 0
11, 50237, Control_c, 9, 123, 0
11, 50238, Note_on_c, 9, 42, 0
11, 50250, Note_on_c, 9, 44, 83
11, 50250, Note_on_c, 9, 44, 65
11, 50259, Control_c, 9, 123, 0
11, 50259, Control_c, 9, 123, 0
11, 50263, Note_on_c, 9, 44, 0
11, 50266, Note_on_c, 9, 44, 0
11, 50280, Note_on_c, 9, 42, 127
11, 50280, Note_on_c, 9, 40, 109
11, 50280, Note_on_c, 9, 42, 127
11, 50294, Control_c, 9, 123, 0
11, 50295, Control_c, 9, 123, 0
11, 50298, Note_on_c, 9, 42, 0
11, 50298, Note_on_c, 9, 42, 0
11, 50300, Control_c, 9, 123, 0
11, 50304, Note_on_c, 9, 40, 0
11, 50310, Note_on_c, 9, 44, 90
11, 50310, Note_on_c, 9, 44, 77
11, 50315, Control_c, 9, 123, 0
11, 50319, Control_c, 9, 123, 0
11, 50321, Note_on_c, 9, 44, 0
11, 50323, Note_on_c, 9, 44, 0
11, 50340, Note_on_c, 9, 42, 86
11, 50340, Note_on_c, 9, 42, 63
11, 50350, Control_c, 9, 123, 0
11, 50352, Control_c, 9, 123, 0
11, 50355, Note_on_c, 9, 42, 0
11, 50356, Note_on_c, 9, 42, 0
11, 50370, Note_on_c, 9, 46, 118
11, 50370, Note_on_c, 9, 46, 106
11, 50370, Note_on_c, 9, 35, 66
11, 50382, Control_c, 9, 123, 0
11, 50382, Control_c, 9, 123, 0
11, 50382, Control_c, 9, 123, 0
11, 50385, Note_on_c, 9, 35, 0
11, 50389, Note_on_c, 9, 46, 0
11, 50390, Note_on_c, 9, 46, 0
11, 50400, Note_on_c, 9, 42, 126
11, 50400, Note_on_c, 9, 42, 60
11, 50400, Note_on_c, 9, 35, 95
11, 50412, Control_c, 9, 123, 0
11, 50414, Control_c, 9, 123, 0
11, 50418, Note_on_c, 9, 42, 0
11, 50420, Note_on_c, 9, 42, 0
11, 50422, Control_c, 9, 123, 0
11, 50424, Note_on_c, 9, 35, 0
11, 50430, Note_on_c, 9, 44, 90
11, 50430, Note_on_c, 9, 44, 80
11, 50440, Control_c, 9, 123, 0
11, 50440, Control_c, 9, 123, 0
11, 50444, Note_on_c, 9, 44, 0
11, 50446, Note_on_c, 9, 44, 0
11, 50460, Note_on_c, 9, 42, 69
11, 50460, Note_on_c, 9, 42, 69
11, 50473, Control_c, 9, 123, 0
11, 50473, Control_c, 9, 123, 0
11, 50475, Note_on_c, 9, 42, 0
11, 50476, Note_on_c, 9, 42, 0
11, 50490, Note_on_c, 9, 44, 95
11, 50490, Note_on_c, 9, 44, 86
11, 50503, Control_c, 9, 123, 0
11, 50504, Note_on_c, 9, 44, 0
11, 50505, Control_c, 9, 123, 0
11, 50508, Note_on_c, 9, 44, 0
11, 50520, Note_on_c, 9, 42, 126
11, 50520, Note_on_c, 9, 40, 106
11, 50520, Note_on_c, 9, 42, 126
11, 50537, Control_c, 9, 123, 0
11, 50540, Note_on_c, 9, 42, 0
11, 50541, Note_on_c, 9, 42, 0
11, 50542, Control_c, 9, 123, 0
11, 50549, Control_c, 9, 123, 0
11, 50550, Note_on_c, 9, 44, 83
11, 50550, Note_on_c, 9, 44, 67
11, 50552, Note_on_c, 9, 40, 0
11, 50564, Control_c, 9, 123, 0
11, 50565, Note_on_c, 9, 44, 0
11, 50567, Note_on_c, 9, 44, 0
11, 50567, Control_c, 9, 123, 0
11, 50580, Note_on_c, 9, 42, 44
11, 50580, Note_on_c, 9, 42, 80
11, 50596, Note_on_c, 9, 42, 0
11, 50598, Note_on_c, 9, 42, 0
11, 50598, Control_c, 9, 123, 0
11, 50601, Control_c, 9, 123, 0
11, 50610, Note_on_c, 9, 44, 86
11, 50610, Note_on_c, 9, 44, 106
11, 50627, Note_on_c, 9, 44, 0
11, 50627, Control_c, 9, 123, 0
11, 50628, Note_on_c, 9, 44, 0
11, 50629, Control_c, 9, 123, 0
11, 50640, Note_on_c, 9, 42, 100
11, 50640, Note_on_c, 9, 42, 106
11, 50657, Note_on_c, 9, 42, 0
11, 50659, Control_c, 9, 123, 0
11, 50660, Note_on_c, 9, 42, 0
11, 50661, Control_c, 9, 123, 0
11, 50670, Note_on_c, 9, 44, 95
11, 50670, Note_on_c, 9, 44, 67
11, 50683, Control_c, 9, 123, 0
11, 50684, Note_on_c, 9, 44, 0
11, 50686, Control_c, 9, 123, 0
11, 50687, Note_on_c, 9, 44, 0
11, 50700, Note_on_c, 9, 42, 100
11, 50700, Note_on_c, 9, 42, 60
11, 50712, Control_c, 9, 123, 0
11, 50714, Control_c, 9, 123, 0
11, 50715, Note_on_c, 9, 42, 0
11, 50716, Note_on_c, 9, 42, 0
11, 50730, Note_on_c, 9, 44, 90
11, 50730, Note_on_c, 9, 44, 95
11, 50745, Control_c, 9, 123, 0
11, 50746, Note_on_c, 9, 44, 0
11, 50746, Control_c, 9, 123, 0
11, 50747, Note_on_c, 9, 44, 0
11, 50760, Note_on_c, 9, 42, 127
11, 50760, Note_on_c, 9, 40, 117
11, 50760, Note_on_c, 9, 42, 127
11, 50776, Control_c, 9, 123, 0
11, 50777, Note_on_c, 9, 42, 0
11, 50779, Note_on_c, 9, 42, 0
11, 50780, Control_c, 9, 123, 0
11, 50781, Control_c, 9, 123, 0
11, 50782, Note_on_c, 9, 40, 0
11, 50790, Note_on_c, 9, 44, 77
11, 50790, Note_on_c, 9, 44, 69
11, 50798, Control_c, 9, 123, 0
11, 50802, Note_on_c, 9, 44, 0
11, 50803, Control_c, 9, 123, 0
11, 50805, Note_on_c, 9, 44, 0
11, 50820, Note_on_c, 9, 50, 92
11, 50820, Note_on_c, 9, 42, 106
11, 50820, Note_on_c, 9, 42, 52
11, 50827, Note_on_c, 9, 50, 0
11, 50827, Control_c, 9, 123, 0
11, 50827, Control_c, 9, 123, 0
11, 50828, Note_on_c, 9, 42, 0
11, 50835, Note_on_c, 9, 50, 80
11, 50835, Note_on_c, 9, 44, 86
11, 50838, Note_on_c, 9, 42, 0
11, 50839, Control_c, 9, 123, 0
11, 50840, Control_c, 9, 123, 0
11, 50844, Note_on_c, 9, 44, 0
11, 50845, Control_c, 9, 123, 0
11, 50848, Note_on_c, 9, 50, 0
11, 50850, Note_on_c, 9, 42, 118
11, 50850, Note_on_c, 9, 44, 75
11, 50850, Note_on_c, 9, 35, 67
11, 50850, Note_on_c, 9, 50, 77
11, 50859, Note_on_c, 9, 50, 0
11, 50861, Note_on_c, 9, 35, 0
11, 50861, Control_c, 9, 123, 0
11, 50863, Control_c, 9, 123, 0
11, 50863, Control_c, 9, 123, 0
11, 50866, Note_on_c, 9, 42, 0
11, 50866, Note_on_c, 9, 44, 0
11, 50866, Control_c, 9, 123, 0
11, 50880, Note_on_c, 9, 50, 106
11, 50880, Note_on_c, 9, 44, 118
11, 50880, Note_on_c, 9, 42, 86
11, 50880, Note_on_c, 9, 35, 100
11, 50892, Note_on_c, 9, 35, 0
11, 50893, Control_c, 9, 123, 0
11, 50897, Control_c, 9, 123, 0
11, 50898, Note_on_c, 9, 44, 0
11, 50898, Note_on_c, 9, 42, 0
11, 50898, Control_c, 9, 123, 0
11, 50910, Note_on_c, 9, 46, 118
11, 50910, Note_on_c, 9, 35, 113
11, 50916, Control_c, 9, 123, 0
11, 50917, Note_on_c, 9, 50, 0
11, 50926, Note_on_c, 9, 46, 0
11, 50927, Control_c, 9, 123, 0
11, 50928, Note_on_c, 9, 35, 0
11, 50930, Control_c, 9, 123, 0
11, 50940, Note_on_c, 9, 42, 86
11, 50940, Note_on_c, 9, 42, 69
11, 50953, Control_c, 9, 123, 0
11, 50954, Control_c, 9, 123, 0
11, 50955, Note_on_c, 9, 42, 0
11, 50958, Note_on_c, 9, 42, 0
11, 50970, Note_on_c, 9, 50, 73
11, 50970, Note_on_c, 9, 44, 80
11, 50970, Note_on_c, 9, 44, 71
11, 50980, Control_c, 9, 123, 0
11, 50981, Control_c, 9, 123, 0
11, 50983, Note_on_c, 9, 44, 0
11, 50983, Note_on_c, 9, 44, 0
11, 50985, Control_c, 9, 123, 0
11, 50988, Note_on_c, 9, 50, 0
11, 51000, Note_on_c, 9, 48, 103
11, 51000, Note_on_c, 9, 42, 127
11, 51000, Note_on_c, 9, 42, 127
11, 51000, Note_on_c, 9, 40, 109
11, 51016, Note_on_c, 9, 48, 0
11, 51016, Control_c, 9, 123, 0
11, 51016, Control_c, 9, 123, 0
11, 51017, Control_c, 9, 123, 0
11, 51018, Note_on_c, 9, 42, 0
11, 51019, Note_on_c, 9, 42, 0
11, 51022, Note_on_c, 9, 40, 0
11, 51025, Control_c, 9, 123, 0
11, 51030, Note_on_c, 9, 48, 80
11, 51030, Note_on_c, 9, 44, 83
11, 51030, Note_on_c, 9, 44, 75
11, 51041, Control_c, 9, 123, 0
11, 51042, Note_on_c, 9, 44, 0
11, 51043, Control_c, 9, 123, 0
11, 51045, Note_on_c, 9, 48, 0
11, 51045, Control_c, 9, 123, 0
11, 51046, Note_on_c, 9, 44, 0
11, 51060, Note_on_c, 9, 42, 69
11, 51060, Note_on_c, 9, 44, 80
11, 51060, Note_on_c, 9, 48, 55
11, 51062, Control_c, 9, 123, 0
11, 51066, Note_on_c, 9, 42, 0
11, 51069, Note_on_c, 9, 48, 0
11, 51071, Note_on_c, 9, 44, 0
11, 51071, Control_c, 9, 123, 0
11, 51090, Note_on_c, 9, 48, 68
11, 51090, Note_on_c, 9, 44, 95
11, 51090, Note_on_c, 9, 42, 86
11, 51097, Control_c, 9, 123, 0
11, 51103, Control_c, 9, 123, 0
11, 51103, Control_c, 9, 123, 0
11, 51104, Note_on_c, 9, 44, 0
11, 51105, Note_on_c, 9, 48, 0
11, 51105, Note_on_c, 9, 42, 0
11, 51120, Note_on_c, 9, 45, 95
11, 51120, Note_on_c, 9, 44, 118
11, 51120, Note_on_c, 9, 42, 95
11, 51135, Note_on_c, 9, 42, 0
11, 51135, Control_c, 9, 123, 0
11, 51136, Control_c, 9, 123, 0
11, 51136, Control_c, 9, 123, 0
11, 51137, Note_on_c, 9, 45, 0
11, 51144, Note_on_c, 9, 44, 0
11, 51150, Note_on_c, 9, 45, 82
11, 51150, Note_on_c, 9, 46, 126
11, 51167, Control_c, 9, 123, 0
11, 51168, Note_on_c, 9, 46, 0
11, 51169, Control_c, 9, 123, 0
11, 51171, Note_on_c, 9, 45, 0
11, 51180, Note_on_c, 9, 42, 71
11, 51180, Note_on_c, 9, 42, 126
11, 51180, Note_on_c, 9, 45, 92
11, 51191, Note_on_c, 9, 42, 0
11, 51191, Control_c, 9, 123, 0
11, 51195, Control_c, 9, 123, 0
11, 51197, Note_on_c, 9, 45, 0
11, 51198, Note_on_c, 9, 42, 0
11, 51198, Control_c, 9, 123, 0
11, 51210, Note_on_c, 9, 45, 88
11, 51210, Note_on_c, 9, 44, 80
11, 51210, Note_on_c, 9, 44, 80
11, 51221, Control_c, 9, 123, 0
11, 51222, Control_c, 9, 123, 0
11, 51225, Note_on_c, 9, 44, 0
11, 51225, Note_on_c, 9, 44, 0
11, 51230, Control_c, 9, 123, 0
11, 51232, Note_on_c, 9, 45, 0
11, 51240, Note_on_c, 9, 41, 79
11, 51240, Note_on_c, 9, 42, 127
11, 51240, Note_on_c, 9, 40, 106
11, 51240, Note_on_c, 9, 42, 112
11, 51248, Control_c, 9, 123, 0
11, 51251, Note_on_c, 9, 41, 0
11, 51256, Control_c, 9, 123, 0
11, 51256, Control_c, 9, 123, 0
11, 51257, Note_on_c, 9, 42, 0
11, 51258, Note_on_c, 9, 42, 0
11, 51258, Control_c, 9, 123, 0
11, 51261, Note_on_c, 9, 40, 0
11, 51270, Note_on_c, 9, 41, 76
11, 51270, Note_on_c, 9, 44, 90
11, 51270, Note_on_c, 9, 44, 73
11, 51275, Control_c, 9, 123, 0
11, 51279, Note_on_c, 9, 41, 0
11, 51280, Control_c, 9, 123, 0
11, 51281, Control_c, 9, 123, 0
11, 51285, Note_on_c, 9, 44, 0
11, 51286, Note_on_c, 9, 44, 0
11, 51300, Note_on_c, 9, 41, 65
11, 51300, Note_on_c, 9, 42, 90
11, 51300, Note_on_c, 9, 42, 95
11, 51307, Note_on_c, 9, 41, 0
11, 51307, Control_c, 9, 123, 0
11, 51313, Control_c, 9, 123, 0
11, 51317, Note_on_c, 9, 42, 0
11, 51317, Control_c, 9, 123, 0
11, 51319, Note_on_c, 9, 42, 0
11, 51330, Note_on_c, 9, 41, 70
11, 51330, Note_on_c, 9, 44, 106
11, 51330, Note_on_c, 9, 46, 95
11, 51330, Note_on_c, 9, 35, 77
11, 51341, Control_c, 9, 123, 0
11, 51342, Note_on_c, 9, 35, 0
11, 51342, Control_c, 9, 123, 0
11, 51344, Control_c, 9, 123, 0
11, 51344, Control_c, 9, 123, 0
11, 51345, Note_on_c, 9, 41, 0
11, 51348, Note_on_c, 9, 46, 0
11, 51350, Note_on_c, 9, 44, 0
11, 51360, Control_c, 9, 7, 95
11, 51360, Note_on_c, 9, 40, 92
11, 51360, Note_on_c, 9, 42, 112
11, 51360, Note_on_c, 9, 42, 106
11, 51360, Note_on_c, 9, 35, 106
11, 51360, Note_on_c, 9, 42, 127
11, 51360, Note_on_c, 9, 49, 106
11, 51374, Control_c, 9, 123, 0
11, 51376, Control_c, 9, 123, 0
11, 51377, Control_c, 9, 123, 0
11, 51378, Note_on_c, 9, 42, 0
11, 51378, Note_on_c, 9, 42, 0
11, 51379, Control_c, 9, 123, 0
11, 51380, Note_on_c, 9, 35, 0
11, 51381, Note_on_c, 9, 40, 0
11, 51381, Note_on_c, 9, 42, 0
11, 51383, Control_c, 9, 123, 0
11, 51416, Control_c, 9, 7, 94
11, 51420, Note_on_c, 9, 35, 43
11, 51420, Note_on_c, 9, 46, 77
11, 51426, Note_on_c, 9, 35, 0
11, 51429, Control_c, 9, 123, 0
11, 51442, Note_on_c, 9, 46, 0
11, 51446, Control_c, 9, 123, 0
11, 51471, Control_c, 9, 7, 93
11, 51480, Note_on_c, 9, 40, 109
11, 51480, Note_on_c, 9, 42, 127
11, 51491, Note_on_c, 9, 49, 0
11, 51494, Control_c, 9, 123, 0
11, 51500, Note_on_c, 9, 42, 0
11, 51503, Control_c, 9, 123, 0
11, 51504, Note_on_c, 9, 40, 0
11, 51505, Control_c, 9, 123, 0
11, 51527, Control_c, 9, 7, 92
11, 51540, Note_on_c, 9, 46, 65
11, 51540, Note_on_c, 9, 35, 64
11, 51554, Note_on_c, 9, 35, 0
11, 51555, Control_c, 9, 123, 0
11, 51559, Control_c, 9, 123, 0
11, 51560, Note_on_c, 9, 46, 0
11, 51582, Control_c, 9, 7, 91
11, 51600, Note_on_c, 9, 40, 109
11, 51600, Note_on_c, 9, 42, 127
11, 51619, Note_on_c, 9, 42, 0
11, 51619, Control_c, 9, 123, 0
11, 51624, Control_c, 9, 123, 0
11, 51625, Note_on_c, 9, 40, 0
11, 51638, Control_c, 9, 7, 90
11, 51660, Note_on_c, 9, 44, 86
11, 51660, Note_on_c, 9, 35, 97
11, 51678, Note_on_c, 9, 35, 0
11, 51682, Control_c, 9, 123, 0
11, 51686, Control_c, 9, 123, 0
11, 51687, Note_on_c, 9, 44, 0
11, 51693, Control_c, 9, 7, 89
11, 51720, Note_on_c, 9, 40, 109
11, 51720, Note_on_c, 9, 42, 127
11, 51735, Control_c, 9, 123, 0
11, 51738, Note_on_c, 9, 42, 0
11, 51739, Control_c, 9, 123, 0
11, 51743, Note_on_c, 9, 40, 0
11, 51749, Control_c, 9, 7, 88
11, 51780, Note_on_c, 9, 35, 103
11, 51780, Note_on_c, 9, 44, 86
11, 51794, Control_c, 9, 123, 0
11, 51798, Note_on_c, 9, 35, 0
11, 51799, Control_c, 9, 123, 0
11, 51801, Note_on_c, 9, 44, 0
11, 51805, Control_c, 9, 7, 87
11, 51840, Note_on_c, 9, 42, 126
11, 51840, Note_on_c, 9, 40, 113
11, 51847, Control_c, 9, 123, 0
11, 51856, Control_c, 9, 123, 0
11, 51857, Note_on_c, 9, 42, 0
11, 51860, Control_c, 9, 7, 86
11, 51862, Note_on_c, 9, 40, 0
11, 51900, Note_on_c, 9, 46, 112
11, 51900, Note_on_c, 9, 35, 97
11, 51914, Control_c, 9, 123, 0
11, 51916, Note_on_c, 9, 35, 0
11, 51916, Control_c, 9, 7, 85
11, 51933, Control_c, 9, 123, 0
11, 51939, Note_on_c, 9, 46, 0
11, 51960, Note_on_c, 9, 40, 109
11, 51960, Note_on_c, 9, 42, 127
11, 51971, Control_c, 9, 7, 84
11, 51973, Control_c, 9, 123, 0
11, 51976, Control_c, 9, 123, 0
11, 51978, Note_on_c, 9, 42, 0
11, 51982, Note_on_c, 9, 40, 0
11, 52020, Note_on_c, 9, 46, 95
11, 52020, Note_on_c, 9, 35, 84
11, 52027, Control_c, 9, 7, 83
11, 52035, Control_c, 9, 123, 0
11, 52038, Note_on_c, 9, 35, 0
11, 52053, Control_c, 9, 123, 0
11, 52057, Note_on_c, 9, 46, 0
11, 52080, Note_on_c, 9, 42, 126
11, 52080, Note_on_c, 9, 40, 122
11, 52083, Control_c, 9, 7, 82
11, 52091, Control_c, 9, 123, 0
11, 52096, Note_on_c, 9, 42, 0
11, 52101, Control_c, 9, 123, 0
11, 52105, Note_on_c, 9, 40, 0
11, 52138, Control_c, 9, 7, 81
11, 52140, Note_on_c, 9, 44, 95
11, 52140, Note_on_c, 9, 35, 79
11, 52147, Control_c, 9, 123, 0
11, 52149, Note_on_c, 9, 35, 0
11, 52155, Control_c, 9, 123, 0
11, 52161, Note_on_c, 9, 44, 0
11, 52170, Note_on_c, 9, 35, 73
11, 52179, Control_c, 9, 123, 0
11, 52185, Note_on_c, 9, 35, 0
11, 52194, Control_c, 9, 7, 80
11, 52200, Note_on_c, 9, 40, 117
11, 52200, Note_on_c, 9, 42, 127
11, 52213, Control_c, 9, 123, 0
11, 52217, Note_on_c, 9, 42, 0
11, 52224, Control_c, 9, 123, 0
11, 52230, Note_on_c, 9, 40, 0
11, 52249, Control_c, 9, 7, 79
11, 52260, Note_on_c, 9, 44, 95
11, 52260, Note_on_c, 9, 35, 90
11, 52275, Control_c, 9, 123, 0
11, 52276, Control_c, 9, 123, 0
11, 52283, Note_on_c, 9, 35, 0
11, 52284, Note_on_c, 9, 44, 0
11, 52290, Note_on_c, 9, 40, 109
11, 52305, Control_c, 9, 7, 78
11, 52315, Note_on_c, 9, 40, 0
11, 52320, Note_on_c, 9, 42, 126
11, 52324, Control_c, 9, 123, 0
11, 52329, Control_c, 9, 123, 0
11, 52335, Note_on_c, 9, 42, 0
11, 52360, Control_c, 9, 7, 77
11, 52380, Note_on_c, 9, 35, 76
11, 52380, Note_on_c, 9, 46, 100
11, 52391, Control_c, 9, 123, 0
11, 52399, Note_on_c, 9, 35, 0
11, 52411, Control_c, 9, 123, 0
11, 52416, Control_c, 9, 7, 76
11, 52418, Note_on_c, 9, 46, 0
11, 52440, Note_on_c, 9, 40, 117
11, 52440, Note_on_c, 9, 42, 127
11, 52451, Control_c, 9, 123, 0
11, 52456, Control_c, 9, 123, 0
11, 52457, Note_on_c, 9, 42, 0
11, 52462, Note_on_c, 9, 40, 0
11, 52472, Control_c, 9, 7, 75
11, 52500, Note_on_c, 9, 46, 95
11, 52500, Note_on_c, 9, 35, 88
11, 52515, Control_c, 9, 123, 0
11, 52518, Note_on_c, 9, 35, 0
11, 52527, Control_c, 9, 7, 74
11, 52532, Control_c, 9, 123, 0
11, 52538, Note_on_c, 9, 46, 0
11, 52560, Note_on_c, 9, 42, 127
11, 52560, Note_on_c, 9, 40, 113
11, 52573, Control_c, 9, 123, 0
11, 52576, Note_on_c, 9, 42, 0
11, 52577, Control_c, 9, 123, 0
11, 52579, Note_on_c, 9, 40, 0
11, 52583, Control_c, 9, 7, 73
11, 52620, Note_on_c, 9, 44, 100
11, 52620, Note_on_c, 9, 35, 90
11, 52631, Control_c, 9, 123, 0
11, 52637, Note_on_c, 9, 44, 0
11, 52638, Note_on_c, 9, 35, 0
11, 52638, Control_c, 9, 7, 72
11, 52638, Control_c, 9, 123, 0
11, 52680, Note_on_c, 9, 40, 117
11, 52680, Note_on_c, 9, 42, 126
11, 52692, Control_c, 9, 123, 0
11, 52694, Control_c, 9, 7, 71
11, 52696, Control_c, 9, 123, 0
11, 52697, Note_on_c, 9, 42, 0
11, 52702, Note_on_c, 9, 40, 0
11, 52740, Note_on_c, 9, 44, 100
11, 52740, Note_on_c, 9, 35, 103
11, 52749, Control_c, 9, 7, 70
11, 52754, Control_c, 9, 123, 0
11, 52757, Control_c, 9, 123, 0
11, 52759, Note_on_c, 9, 44, 0
11, 52761, Note_on_c, 9, 35, 0
11, 52800, Note_on_c, 9, 40, 109
11, 52800, Note_on_c, 9, 42, 126
11, 52805, Control_c, 9, 7, 69
11, 52810, Control_c, 9, 123, 0
11, 52814, Control_c, 9, 123, 0
11, 52816, Note_on_c, 9, 42, 0
11, 52821, Note_on_c, 9, 40, 0
11, 52860, Note_on_c, 9, 46, 100
11, 52860, Note_on_c, 9, 35, 97
11, 52861, Control_c, 9, 7, 68
11, 52873, Control_c, 9, 123, 0
11, 52880, Note_on_c, 9, 35, 0
11, 52887, Control_c, 9, 123, 0
11, 52895, Note_on_c, 9, 46, 0
11, 52916, Control_c, 9, 7, 67
11, 52920, Note_on_c, 9, 40, 113
11, 52920, Note_on_c, 9, 42, 127
11, 52934, Control_c, 9, 123, 0
11, 52934, Control_c, 9, 123, 0
11, 52937, Note_on_c, 9, 42, 0
11, 52940, Note_on_c, 9, 40, 0
11, 52972, Control_c, 9, 7, 66
11, 52980, Note_on_c, 9, 35, 92
11, 52980, Note_on_c, 9, 46, 100
11, 52996, Control_c, 9, 123, 0
11, 52999, Control_c, 9, 123, 0
11, 53002, Note_on_c, 9, 35, 0
11, 53004, Note_on_c, 9, 46, 0
11, 53027, Control_c, 9, 7, 65
11, 53040, Note_on_c, 9, 40, 106
11, 53040, Note_on_c, 9, 42, 126
11, 53055, Control_c, 9, 123, 0
11, 53056, Note_on_c, 9, 42, 0
11, 53057, Control_c, 9, 123, 0
11, 53064, Note_on_c, 9, 40, 0
11, 53083, Control_c, 9, 7, 64
11, 53100, Note_on_c, 9, 35, 95
11, 53100, Note_on_c, 9, 44, 95
11, 53116, Control_c, 9, 123, 0
11, 53116, Control_c, 9, 123, 0
11, 53122, Note_on_c, 9, 35, 0
11, 53122, Note_on_c, 9, 44, 0
11, 53139, Control_c, 9, 7, 63
11, 53160, Note_on_c, 9, 40, 109
11, 53160, Note_on_c, 9, 42, 118
11, 53168, Control_c, 9, 123, 0
11, 53175, Control_c, 9, 123, 0
11, 53176, Note_on_c, 9, 42, 0
11, 53183, Note_on_c, 9, 40, 0
11, 53194, Control_c, 9, 7, 62
11, 53220, Note_on_c, 9, 44, 95
11, 53220, Note_on_c, 9, 35, 100
11, 53228, Control_c, 9, 123, 0
11, 53236, Control_c, 9, 123, 0
11, 53238, Note_on_c, 9, 44, 0
11, 53243, Note_on_c, 9, 35, 0
11, 53250, Control_c, 9, 7, 61
11, 53280, Note_on_c, 9, 42, 127
11, 53280, Note_on_c, 9, 40, 106
11, 53287, Control_c, 9, 123, 0
11, 53288, Control_c, 9, 123, 0
11, 53297, Note_on_c, 9, 40, 0
11, 53298, Note_on_c, 9, 42, 0
11, 53305, Control_c, 9, 7, 60
11, 53340, Note_on_c, 9, 35, 97
11, 53340, Note_on_c, 9, 46, 106
11, 53348, Control_c, 9, 123, 0
11, 53359, Note_on_c, 9, 35, 0
11, 53361, Control_c, 9, 7, 59
11, 53368, Control_c, 9, 123, 0
11, 53377, Note_on_c, 9, 46, 0
11, 53400, Note_on_c, 9, 40, 117
11, 53400, Note_on_c, 9, 42, 127
11, 53412, Control_c, 9, 123, 0
11, 53413, Control_c, 9, 123, 0
11, 53416, Note_on_c, 9, 42, 0
11, 53416, Control_c, 9, 7, 58
11, 53422, Note_on_c, 9, 40, 0
11, 53460, Note_on_c, 9, 35, 73
11, 53460, Note_on_c, 9, 46, 95
11, 53468, Control_c, 9, 123, 0
11, 53472, Control_c, 9, 7, 57
11, 53480, Note_on_c, 9, 35, 0
11, 53489, Control_c, 9, 123, 0
11, 53495, Note_on_c, 9, 46, 0
11, 53520, Note_on_c, 9, 40, 113
11, 53520, Note_on_c, 9, 42, 127
11, 53528, Control_c, 9, 7, 56
11, 53532, Control_c, 9, 123, 0
11, 53534, Control_c, 9, 123, 0
11, 53537, Note_on_c, 9, 42, 0
11, 53542, Note_on_c, 9, 40, 0
11, 53580, Note_on_c, 9, 44, 90
11, 53580, Note_on_c, 9, 35, 92
11, 53583, Control_c, 9, 7, 55
11, 53592, Control_c, 9, 123, 0
11, 53600, Note_on_c, 9, 35, 0
11, 53600, Control_c, 9, 123, 0
11, 53610, Note_on_c, 9, 44, 0
11, 53639, Control_c, 9, 7, 54
11, 53640, Note_on_c, 9, 40, 117
11, 53640, Note_on_c, 9, 42, 127
11, 53651, Control_c, 9, 123, 0
11, 53653, Control_c, 9, 123, 0
11, 53658, Note_on_c, 9, 42, 0
11, 53661, Note_on_c, 9, 40, 0
11, 53694, Control_c, 9, 7, 53
11, 53700, Note_on_c, 9, 35, 106
11, 53700, Note_on_c, 9, 44, 100
11, 53710, Control_c, 9, 123, 0
11, 53714, Control_c, 9, 123, 0
11, 53719, Note_on_c, 9, 35, 0
11, 53724, Note_on_c, 9, 44, 0
11, 53750, Control_c, 9, 7, 52
11, 53760, Note_on_c, 9, 40, 117
11, 53760, Note_on_c, 9, 42, 127
11, 53768, Control_c, 9, 123, 0
11, 53770, Control_c, 9, 123, 0
11, 53777, Note_on_c, 9, 42, 0
11, 53782, Note_on_c, 9, 40, 0
11, 53805, Control_c, 9, 7, 51
11, 53820, Note_on_c, 9, 35, 92
11, 53820, Note_on_c, 9, 46, 106
11, 53828, Control_c, 9, 123, 0
11, 53838, Note_on_c, 9, 35, 0
11, 53847, Control_c, 9, 123, 0
11, 53857, Note_on_c, 9, 46, 0
11, 53861, Control_c, 9, 7, 50
11, 53880, Note_on_c, 9, 40, 117
11, 53880, Note_on_c, 9, 42, 127
11, 53889, Control_c, 9, 123, 0
11, 53897, Control_c, 9, 123, 0
11, 53898, Note_on_c, 9, 42, 0
11, 53906, Note_on_c, 9, 40, 0
11, 53917, Control_c, 9, 7, 49
11, 53940, Note_on_c, 9, 46, 100
11, 53940, Note_on_c, 9, 35, 86
11, 53952, Control_c, 9, 123, 0
11, 53959, Note_on_c, 9, 35, 0
11, 53969, Control_c, 9, 123, 0
11, 53972, Control_c, 9, 7, 48
11, 53981, Note_on_c, 9, 46, 0
11, 54000, Note_on_c, 9, 40, 117
11, 54000, Note_on_c, 9, 42, 126
11, 54009, Control_c, 9, 123, 0
11, 54013, Control_c, 9, 123, 0
11, 54016, Note_on_c, 9, 42, 0
11, 54025, Note_on_c, 9, 40, 0
11, 54028, Control_c, 9, 7, 47
11, 54060, Note_on_c, 9, 35, 79
11, 54060, Note_on_c, 9, 44, 95
11, 54069, Control_c, 9, 123, 0
11, 54079, Note_on_c, 9, 44, 0
11, 54083, Control_c, 9, 7, 46
11, 54092, Control_c, 9, 123, 0
11, 54104, Note_on_c, 9, 35, 0
11, 54120, Note_on_c, 9, 40, 117
11, 54120, Note_on_c, 9, 42, 127
11, 54130, Control_c, 9, 123, 0
11, 54134, Control_c, 9, 123, 0
11, 54138, Note_on_c, 9, 42, 0
11, 54139, Control_c, 9, 7, 45
11, 54146, Note_on_c, 9, 40, 0
11, 54180, Note_on_c, 9, 35, 84
11, 54180, Note_on_c, 9, 44, 86
11, 54183, Control_c, 9, 123, 0
11, 54195, Control_c, 9, 7, 44
11, 54196, Note_on_c, 9, 35, 0
11, 54199, Control_c, 9, 123, 0
11, 54207, Note_on_c, 9, 44, 0
11, 54240, Note_on_c, 9, 40, 109
11, 54240, Note_on_c, 9, 35, 95
11, 54240, Note_on_c, 9, 42, 118
11, 54246, Control_c, 9, 123, 0
11, 54247, Control_c, 9, 123, 0
11, 54250, Control_c, 9, 7, 43
11, 54255, Note_on_c, 9, 42, 0
11, 54260, Note_on_c, 9, 40, 0
11, 54260, Note_on_c, 9, 35, 0
11, 54300, Note_on_c, 9, 46, 95
11, 54306, Control_c, 9, 7, 42
11, 54329, Control_c, 9, 123, 0
11, 54330, Note_on_c, 9, 40, 117
11, 54335, Note_on_c, 9, 46, 0
11, 54354, Note_on_c, 9, 40, 0
11, 54360, Note_on_c, 9, 35, 100
11, 54360, Note_on_c, 9, 42, 127
11, 54361, Control_c, 9, 7, 41
11, 54367, Control_c, 9, 123, 0
11, 54374, Control_c, 9, 123, 0
11, 54376, Note_on_c, 9, 42, 0
11, 54381, Note_on_c, 9, 35, 0
11, 54417, Control_c, 9, 7, 40
11, 54420, Note_on_c, 9, 46, 83
11, 54450, Control_c, 9, 123, 0
11, 54455, Note_on_c, 9, 46, 0
11, 54472, Control_c, 9, 7, 39
11, 54480, Note_on_c, 9, 40, 117
11, 54480, Note_on_c, 9, 35, 106
11, 54480, Note_on_c, 9, 42, 127
11, 54491, Control_c, 9, 123, 0
11, 54494, Control_c, 9, 123, 0
11, 54495, Note_on_c, 9, 42, 0
11, 54500, Note_on_c, 9, 35, 0
11, 54502, Note_on_c, 9, 40, 0
11, 54528, Control_c, 9, 7, 38
11, 54540, Note_on_c, 9, 35, 69
11, 54540, Note_on_c, 9, 44, 100
11, 54551, Control_c, 9, 123, 0
11, 54560, Note_on_c, 9, 44, 0
11, 54580, Control_c, 9, 123, 0
11, 54584, Control_c, 9, 7, 37
11, 54589, Note_on_c, 9, 35, 0
11, 54600, Note_on_c, 9, 40, 122
11, 54600, Note_on_c, 9, 42, 126
11, 54612, Control_c, 9, 123, 0
11, 54616, Control_c, 9, 123, 0
11, 54617, Note_on_c, 9, 42, 0
11, 54624, Note_on_c, 9, 40, 0
11, 54639, Control_c, 9, 7, 36
11, 54660, Note_on_c, 9, 35, 109
11, 54660, Note_on_c, 9, 44, 95
11, 54673, Control_c, 9, 123, 0
11, 54680, Note_on_c, 9, 44, 0
11, 54693, Control_c, 9, 123, 0
11, 54695, Control_c, 9, 7, 35
11, 54702, Note_on_c, 9, 35, 0
11, 54720, Note_on_c, 9, 40, 126
11, 54720, Note_on_c, 9, 42, 127
11, 54731, Control_c, 9, 123, 0
11, 54733, Control_c, 9, 123, 0
11, 54737, Note_on_c, 9, 42, 0
11, 54741, Note_on_c, 9, 40, 0
11, 54750, Control_c, 9, 7, 34
11, 54780, Note_on_c, 9, 46, 100
11, 54780, Note_on_c, 9, 35, 100
11, 54803, Control_c, 9, 123, 0
11, 54806, Control_c, 9, 7, 33
11, 54810, Note_on_c, 9, 46, 0
11, 54813, Control_c, 9, 123, 0
11, 54819, Note_on_c, 9, 35, 0
11, 54840, Note_on_c, 9, 40, 113
11, 54840, Note_on_c, 9, 42, 118
11, 54856, Note_on_c, 9, 42, 0
11, 54856, Control_c, 9, 123, 0
11, 54860, Control_c, 9, 123, 0
11, 54861, Control_c, 9, 7, 32
11, 54865, Note_on_c, 9, 40, 0
11, 54900, Note_on_c, 9, 46, 86
11, 54900, Note_on_c, 9, 35, 103
11, 54914, Control_c, 9, 123, 0
11, 54917, Control_c, 9, 7, 31
11, 54924, Note_on_c, 9, 46, 0
11, 54940, Control_c, 9, 123, 0
11, 54948, Note_on_c, 9, 35, 0
11, 54960, Note_on_c, 9, 40, 122
11, 54960, Note_on_c, 9, 42, 126
11, 54972, Control_c, 9, 123, 0
11, 54973, Control_c, 9, 7, 30
11, 54976, Note_on_c, 9, 42, 0
11, 54978, Control_c, 9, 123, 0
11, 54983, Note_on_c, 9, 40, 0
11, 55020, Note_on_c, 9, 44, 106
11, 55020, Note_on_c, 9, 35, 100
11, 55028, Control_c, 9, 7, 29
11, 55030, Control_c, 9, 123, 0
11, 55041, Note_on_c, 9, 44, 0
11, 55062, Control_c, 9, 123, 0
11, 55069, Note_on_c, 9, 35, 0
11, 55080, Note_on_c, 9, 40, 100
11, 55080, Note_on_c, 9, 42, 126
11, 55084, Control_c, 9, 7, 28
11, 55085, Control_c, 9, 123, 0
11, 55094, Note_on_c, 9, 42, 0
11, 55094, Control_c, 9, 123, 0
11, 55105, Note_on_c, 9, 40, 0
11, 55139, Control_c, 9, 7, 27
11, 55140, Note_on_c, 9, 44, 80
11, 55140, Note_on_c, 9, 35, 109
11, 55144, Control_c, 9, 123, 0
11, 55155, Note_on_c, 9, 44, 0
11, 55185, Control_c, 9, 123, 0
11, 55194, Note_on_c, 9, 35, 0
11, 55195, Control_c, 9, 7, 26
11, 55200, Note_on_c, 9, 40, 97
11, 55200, Note_on_c, 9, 42, 127
11, 55209, Control_c, 9, 123, 0
11, 55211, Control_c, 9, 123, 0
11, 55216, Note_on_c, 9, 42, 0
11, 55221, Note_on_c, 9, 40, 0
11, 55251, Control_c, 9, 7, 25
11, 55260, Note_on_c, 9, 44, 77
11, 55274, Control_c, 9, 123, 0
11, 55281, Note_on_c, 9, 44, 0
11, 55306, Control_c, 9, 7, 24
11, 55320, Note_on_c, 9, 40, 113
11, 55320, Note_on_c, 9, 42, 127
11, 55333, Control_c, 9, 123, 0
11, 55334, Control_c, 9, 123, 0
11, 55338, Note_on_c, 9, 42, 0
11, 55345, Note_on_c, 9, 40, 0
11, 55362, Control_c, 9, 7, 23
11, 55380, Note_on_c, 9, 44, 83
11, 55380, Note_on_c, 9, 35, 100
11, 55390, Control_c, 9, 123, 0
11, 55398, Note_on_c, 9, 44, 0
11, 55406, Control_c, 9, 123, 0
11, 55412, Note_on_c, 9, 35, 0
11, 55417, Control_c, 9, 7, 22
11, 55440, Note_on_c, 9, 40, 113
11, 55440, Note_on_c, 9, 42, 127
11, 55452, Control_c, 9, 123, 0
11, 55456, Note_on_c, 9, 42, 0
11, 55457, Control_c, 9, 123, 0
11, 55463, Note_on_c, 9, 40, 0
11, 55473, Control_c, 9, 7, 21
11, 55500, Note_on_c, 9, 44, 90
11, 55500, Note_on_c, 9, 35, 109
11, 55514, Control_c, 9, 123, 0
11, 55519, Note_on_c, 9, 44, 0
11, 55524, Control_c, 9, 123, 0
11, 55528, Note_on_c, 9, 35, 0
11, 55528, Control_c, 9, 7, 20
11, 55560, Note_on_c, 9, 42, 127
11, 55560, Note_on_c, 9, 40, 122
11, 55573, Control_c, 9, 123, 0
11, 55578, Note_on_c, 9, 42, 0
11, 55584, Control_c, 9, 7, 19
11, 55592, Control_c, 9, 123, 0
11, 55595, Note_on_c, 9, 40, 0
11, 55620, Note_on_c, 9, 44, 112
11, 55620, Note_on_c, 9, 35, 106
11, 55638, Control_c, 9, 123, 0
11, 55640, Control_c, 9, 7, 18
11, 55641, Note_on_c, 9, 35, 0
11, 55641, Control_c, 9, 123, 0
11, 55648, Note_on_c, 9, 44, 0
11, 55680, Note_on_c, 9, 49, 90
11, 55680, Note_on_c, 9, 35, 106
11, 55680, Note_on_c, 9, 42, 126
11, 55693, Control_c, 9, 123, 0
11, 55695, Note_on_c, 9, 42, 0
11, 55695, Control_c, 9, 7, 17
11, 55696, Control_c, 9, 123, 0
11, 55698, Note_on_c, 9, 35, 0
11, 55746, Note_on_c, 9, 70, 106
11, 55751, Control_c, 9, 7, 16
11, 55759, Note_on_c, 9, 70, 0
11, 55759, Control_c, 9, 123, 0
11, 55774, Note_on_c, 9, 70, 112
11, 55794, Note_on_c, 9, 70, 0
11, 55794, Control_c, 9, 123, 0
11, 55806, Control_c, 9, 7, 15
11, 55862, Control_c, 9, 7, 14
11, 55864, Control_c, 9, 123, 0
11, 55869, Note_on_c, 9, 49, 0
11, 55917, Control_c, 9, 7, 13
11, 55917, Note_on_c, 9, 35, 113
11, 55953, Note_on_c, 9, 35, 0
11, 55953, Control_c, 9, 123, 0
11, 55973, Control_c, 9, 7, 12
11, 56029, Control_c, 9, 7, 11
11, 56084, Control_c, 9, 7, 10
11, 56140, Control_c, 9, 7, 9
11, 56195, Control_c, 9, 7, 8
11, 56251, Control_c, 9, 7, 7
11, 56307, Control_c, 9, 7, 6
11, 56362, Control_c, 9, 7, 5
11, 56418, Control_c, 9, 7, 4
11, 56473, Control_c, 9, 7, 3
11, 56529, Control_c, 9, 7, 2
11, 56584, Control_c, 9, 7, 1
11, 56640, Control_c, 9, 7, 0
11, 56640, End_track
12, 0, Start_track
12, 0, MIDI_port, 0
12, 0, Title_t, "(412) 441-3193"
12, 3840, Note_on_c, 9, 56, 61
12, 3869, Note_on_c, 9, 56, 0
12, 3869, Control_c, 9, 123, 0
12, 3960, Note_on_c, 9, 60, 101
12, 3960, Note_on_c, 9, 56, 78
12, 3982, Note_on_c, 9, 60, 0
12, 3982, Note_on_c, 9, 56, 0
12, 3985, Control_c, 9, 123, 0
12, 3987, Control_c, 9, 123, 0
12, 3990, Note_on_c, 9, 62, 69
12, 4011, Note_on_c, 9, 62, 0
12, 4016, Control_c, 9, 123, 0
12, 4020, Note_on_c, 9, 61, 61
12, 4037, Note_on_c, 9, 61, 0
12, 4040, Control_c, 9, 123, 0
12, 4050, Note_on_c, 9, 63, 92
12, 4069, Note_on_c, 9, 63, 0
12, 4073, Control_c, 9, 123, 0
12, 4080, Note_on_c, 9, 60, 54
12, 4080, Note_on_c, 9, 56, 82
12, 4090, Note_on_c, 9, 60, 0
12, 4093, Control_c, 9, 123, 0
12, 4098, Note_on_c, 9, 56, 0
12, 4101, Control_c, 9, 123, 0
12, 4110, Note_on_c, 9, 62, 109
12, 4128, Note_on_c, 9, 62, 0
12, 4131, Control_c, 9, 123, 0
12, 4170, Note_on_c, 9, 62, 56
12, 4170, Note_on_c, 9, 53, 36
12, 4188, Note_on_c, 9, 62, 0
12, 4189, Control_c, 9, 123, 0
12, 4197, Note_on_c, 9, 53, 0
12, 4198, Control_c, 9, 123, 0
12, 4200, Note_on_c, 9, 60, 95
12, 4200, Note_on_c, 9, 56, 87
12, 4219, Note_on_c, 9, 56, 0
12, 4222, Control_c, 9, 123, 0
12, 4223, Note_on_c, 9, 60, 0
12, 4227, Control_c, 9, 123, 0
12, 4230, Note_on_c, 9, 62, 71
12, 4253, Note_on_c, 9, 62, 0
12, 4254, Control_c, 9, 123, 0
12, 4260, Note_on_c, 9, 53, 37
12, 4260, Note_on_c, 9, 61, 72
12, 4274, Control_c, 9, 123, 0
12, 4276, Note_on_c, 9, 53, 0
12, 4276, Note_on_c, 9, 61, 0
12, 4279, Control_c, 9, 123, 0
12, 4290, Note_on_c, 9, 63, 104
12, 4290, Note_on_c, 9, 53, 55
12, 4309, Note_on_c, 9, 63, 0
12, 4311, Control_c, 9, 123, 0
12, 4314, Note_on_c, 9, 53, 0
12, 4315, Control_c, 9, 123, 0
12, 4320, Note_on_c, 9, 56, 87
12, 4339, Note_on_c, 9, 56, 0
12, 4339, Control_c, 9, 123, 0
12, 4440, Note_on_c, 9, 60, 101
12, 4440, Note_on_c, 9, 56, 98
12, 4461, Note_on_c, 9, 56, 0
12, 4462, Note_on_c, 9, 60, 0
12, 4462, Control_c, 9, 123, 0
12, 4464, Control_c, 9, 123, 0
12, 4470, Note_on_c, 9, 62, 89
12, 4490, Note_on_c, 9, 62, 0
12, 4492, Control_c, 9, 123, 0
12, 4500, Note_on_c, 9, 61, 59
12, 4515, Note_on_c, 9, 61, 0
12, 4519, Control_c, 9, 123, 0
12, 4530, Note_on_c, 9, 63, 92
12, 4549, Note_on_c, 9, 63, 0
12, 4551, Control_c, 9, 123, 0
12, 4560, Note_on_c, 9, 56, 98
12, 4580, Note_on_c, 9, 56, 0
12, 4583, Control_c, 9, 123, 0
12, 4590, Note_on_c, 9, 62, 98
12, 4609, Note_on_c, 9, 62, 0
12, 4610, Control_c, 9, 123, 0
12, 4650, Note_on_c, 9, 62, 72
12, 4667, Control_c, 9, 123, 0
12, 4668, Note_on_c, 9, 62, 0
12, 4680, Note_on_c, 9, 60, 105
12, 4680, Note_on_c, 9, 56, 98
12, 4699, Note_on_c, 9, 56, 0
12, 4700, Control_c, 9, 123, 0
12, 4703, Note_on_c, 9, 60, 0
12, 4705, Control_c, 9, 123, 0
12, 4710, Note_on_c, 9, 62, 87
12, 4729, Note_on_c, 9, 62, 0
12, 4730, Control_c, 9, 123, 0
12, 4740, Note_on_c, 9, 61, 69
12, 4759, Note_on_c, 9, 61, 0
12, 4761, Control_c, 9, 123, 0
12, 4770, Note_on_c, 9, 63, 87
12, 4790, Note_on_c, 9, 63, 0
12, 4793, Control_c, 9, 123, 0
12, 4800, Note_on_c, 9, 56, 98
12, 4818, Note_on_c, 9, 56, 0
12, 4820, Control_c, 9, 123, 0
12, 4890, Note_on_c, 9, 62, 74
12, 4903, Control_c, 9, 123, 0
12, 4908, Note_on_c, 9, 62, 0
12, 4920, Note_on_c, 9, 60, 109
12, 4920, Note_on_c, 9, 56, 98
12, 4938, Note_on_c, 9, 56, 0
12, 4941, Note_on_c, 9, 60, 0
12, 4942, Control_c, 9, 123, 0
12, 4942, Control_c, 9, 123, 0
12, 4950, Note_on_c, 9, 62, 82
12, 4969, Note_on_c, 9, 62, 0
12, 4969, Control_c, 9, 123, 0
12, 4980, Note_on_c, 9, 61, 67
12, 4996, Note_on_c, 9, 61, 0
12, 5000, Control_c, 9, 123, 0
12, 5010, Note_on_c, 9, 63, 98
12, 5029, Note_on_c, 9, 63, 0
12, 5031, Control_c, 9, 123, 0
12, 5040, Note_on_c, 9, 56, 98
12, 5060, Note_on_c, 9, 56, 0
12, 5062, Control_c, 9, 123, 0
12, 5070, Note_on_c, 9, 62, 98
12, 5090, Note_on_c, 9, 62, 0
12, 5090, Control_c, 9, 123, 0
12, 5100, Note_on_c, 9, 53, 41
12, 5106, Control_c, 9, 123, 0
12, 5113, Note_on_c, 9, 53, 0
12, 5130, Note_on_c, 9, 53, 48
12, 5130, Note_on_c, 9, 62, 65
12, 5147, Note_on_c, 9, 62, 0
12, 5148, Control_c, 9, 123, 0
12, 5153, Control_c, 9, 123, 0
12, 5157, Note_on_c, 9, 53, 0
12, 5160, Note_on_c, 9, 60, 101
12, 5160, Note_on_c, 9, 56, 92
12, 5178, Note_on_c, 9, 56, 0
12, 5180, Note_on_c, 9, 60, 0
12, 5183, Control_c, 9, 123, 0
12, 5184, Control_c, 9, 123, 0
12, 5190, Note_on_c, 9, 62, 84
12, 5211, Note_on_c, 9, 62, 0
12, 5211, Control_c, 9, 123, 0
12, 5220, Note_on_c, 9, 61, 61
12, 5232, Note_on_c, 9, 61, 0
12, 5235, Control_c, 9, 123, 0
12, 5250, Note_on_c, 9, 53, 49
12, 5250, Note_on_c, 9, 63, 78
12, 5269, Note_on_c, 9, 63, 0
12, 5271, Control_c, 9, 123, 0
12, 5273, Note_on_c, 9, 53, 0
12, 5273, Control_c, 9, 123, 0
12, 5280, Note_on_c, 9, 60, 82
12, 5280, Note_on_c, 9, 56, 98
12, 5295, Note_on_c, 9, 60, 0
12, 5297, Note_on_c, 9, 56, 0
12, 5299, Control_c, 9, 123, 0
12, 5299, Control_c, 9, 123, 0
12, 5310, Note_on_c, 9, 62, 84
12, 5325, Note_on_c, 9, 62, 0
12, 5327, Control_c, 9, 123, 0
12, 5370, Note_on_c, 9, 62, 76
12, 5388, Note_on_c, 9, 62, 0
12, 5388, Control_c, 9, 123, 0
12, 5400, Note_on_c, 9, 56, 92
12, 5400, Note_on_c, 9, 60, 95
12, 5419, Note_on_c, 9, 60, 0
12, 5419, Control_c, 9, 123, 0
12, 5420, Note_on_c, 9, 56, 0
12, 5422, Control_c, 9, 123, 0
12, 5430, Note_on_c, 9, 62, 87
12, 5448, Note_on_c, 9, 62, 0
12, 5448, Control_c, 9, 123, 0
12, 5460, Note_on_c, 9, 61, 72
12, 5473, Note_on_c, 9, 61, 0
12, 5476, Control_c, 9, 123, 0
12, 5490, Note_on_c, 9, 63, 92
12, 5507, Note_on_c, 9, 63, 0
12, 5507, Control_c, 9, 123, 0
12, 5520, Note_on_c, 9, 56, 92
12, 5539, Note_on_c, 9, 56, 0
12, 5539, Control_c, 9, 123, 0
12, 5550, Note_on_c, 9, 62, 89
12, 5568, Note_on_c, 9, 62, 0
12, 5568, Control_c, 9, 123, 0
12, 5580, Note_on_c, 9, 53, 51
12, 5595, Control_c, 9, 123, 0
12, 5597, Note_on_c, 9, 53, 0
12, 5610, Note_on_c, 9, 53, 55
12, 5610, Note_on_c, 9, 62, 80
12, 5625, Note_on_c, 9, 62, 0
12, 5625, Control_c, 9, 123, 0
12, 5632, Note_on_c, 9, 53, 0
12, 5633, Control_c, 9, 123, 0
12, 5640, Note_on_c, 9, 60, 105
12, 5640, Note_on_c, 9, 56, 92
12, 5657, Note_on_c, 9, 56, 0
12, 5659, Control_c, 9, 123, 0
12, 5661, Note_on_c, 9, 60, 0
12, 5663, Control_c, 9, 123, 0
12, 5670, Note_on_c, 9, 62, 87
12, 5691, Note_on_c, 9, 62, 0
12, 5691, Control_c, 9, 123, 0
12, 5700, Note_on_c, 9, 61, 78
12, 5700, Note_on_c, 9, 53, 46
12, 5715, Note_on_c, 9, 61, 0
12, 5717, Control_c, 9, 123, 0
12, 5718, Note_on_c, 9, 53, 0
12, 5721, Control_c, 9, 123, 0
12, 5730, Note_on_c, 9, 63, 92
12, 5730, Note_on_c, 9, 53, 60
12, 5749, Control_c, 9, 123, 0
12, 5750, Note_on_c, 9, 63, 0
12, 5760, Note_on_c, 9, 53, 0
12, 5760, Note_on_c, 9, 60, 101
12, 5760, Note_on_c, 9, 56, 98
12, 5763, Control_c, 9, 123, 0
12, 5776, Note_on_c, 9, 56, 0
12, 5777, Control_c, 9, 123, 0
12, 5780, Note_on_c, 9, 60, 0
12, 5783, Control_c, 9, 123, 0
12, 5790, Note_on_c, 9, 62, 84
12, 5809, Note_on_c, 9, 62, 0
12, 5809, Control_c, 9, 123, 0
12, 5820, Note_on_c, 9, 60, 57
12, 5833, Note_on_c, 9, 60, 0
12, 5837, Control_c, 9, 123, 0
12, 5850, Note_on_c, 9, 62, 80
12, 5867, Control_c, 9, 123, 0
12, 5868, Note_on_c, 9, 62, 0
12, 5880, Note_on_c, 9, 60, 101
12, 5880, Note_on_c, 9, 56, 92
12, 5896, Note_on_c, 9, 56, 0
12, 5901, Control_c, 9, 123, 0
12, 5902, Note_on_c, 9, 60, 0
12, 5904, Control_c, 9, 123, 0
12, 5910, Note_on_c, 9, 62, 87
12, 5931, Control_c, 9, 123, 0
12, 5932, Note_on_c, 9, 62, 0
12, 5940, Note_on_c, 9, 61, 72
12, 5956, Note_on_c, 9, 61, 0
12, 5957, Control_c, 9, 123, 0
12, 5970, Note_on_c, 9, 63, 98
12, 5988, Note_on_c, 9, 63, 0
12, 5989, Control_c, 9, 123, 0
12, 6000, Note_on_c, 9, 56, 92
12, 6017, Note_on_c, 9, 56, 0
12, 6019, Control_c, 9, 123, 0
12, 6030, Note_on_c, 9, 62, 105
12, 6047, Note_on_c, 9, 62, 0
12, 6047, Control_c, 9, 123, 0
12, 6090, Note_on_c, 9, 62, 80
12, 6105, Control_c, 9, 123, 0
12, 6107, Note_on_c, 9, 62, 0
12, 6120, Note_on_c, 9, 56, 92
12, 6120, Note_on_c, 9, 60, 105
12, 6137, Control_c, 9, 123, 0
12, 6139, Note_on_c, 9, 56, 0
12, 6143, Note_on_c, 9, 60, 0
12, 6143, Control_c, 9, 123, 0
12, 6150, Note_on_c, 9, 62, 82
12, 6168, Note_on_c, 9, 62, 0
12, 6168, Control_c, 9, 123, 0
12, 6180, Note_on_c, 9, 61, 72
12, 6197, Note_on_c, 9, 61, 0
12, 6197, Control_c, 9, 123, 0
12, 6210, Note_on_c, 9, 63, 82
12, 6227, Control_c, 9, 123, 0
12, 6229, Note_on_c, 9, 63, 0
12, 6240, Note_on_c, 9, 56, 92
12, 6240, Note_on_c, 9, 60, 105
12, 6257, Note_on_c, 9, 56, 0
12, 6257, Control_c, 9, 123, 0
12, 6260, Note_on_c, 9, 60, 0
12, 6260, Control_c, 9, 123, 0
12, 6270, Note_on_c, 9, 62, 69
12, 6286, Control_c, 9, 123, 0
12, 6289, Note_on_c, 9, 62, 0
12, 6300, Note_on_c, 9, 60, 60
12, 6315, Note_on_c, 9, 60, 0
12, 6317, Control_c, 9, 123, 0
12, 6330, Note_on_c, 9, 62, 72
12, 6348, Note_on_c, 9, 62, 0
12, 6348, Control_c, 9, 123, 0
12, 6360, Note_on_c, 9, 60, 101
12, 6360, Note_on_c, 9, 56, 78
12, 6379, Note_on_c, 9, 56, 0
12, 6381, Note_on_c, 9, 60, 0
12, 6382, Control_c, 9, 123, 0
12, 6384, Control_c, 9, 123, 0
12, 6390, Note_on_c, 9, 62, 84
12, 6410, Note_on_c, 9, 62, 0
12, 6410, Control_c, 9, 123, 0
12, 6420, Note_on_c, 9, 61, 75
12, 6437, Note_on_c, 9, 61, 0
12, 6437, Control_c, 9, 123, 0
12, 6450, Note_on_c, 9, 63, 98
12, 6468, Note_on_c, 9, 63, 0
12, 6469, Control_c, 9, 123, 0
12, 6480, Note_on_c, 9, 56, 87
12, 6496, Note_on_c, 9, 56, 0
12, 6496, Control_c, 9, 123, 0
12, 6510, Note_on_c, 9, 62, 98
12, 6528, Note_on_c, 9, 62, 0
12, 6529, Control_c, 9, 123, 0
12, 6540, Note_on_c, 9, 53, 40
12, 6556, Note_on_c, 9, 53, 0
12, 6558, Control_c, 9, 123, 0
12, 6570, Note_on_c, 9, 62, 84
12, 6570, Note_on_c, 9, 53, 61
12, 6586, Note_on_c, 9, 62, 0
12, 6586, Control_c, 9, 123, 0
12, 6600, Note_on_c, 9, 53, 0
12, 6600, Note_on_c, 9, 60, 98
12, 6600, Note_on_c, 9, 56, 92
12, 6602, Control_c, 9, 123, 0
12, 6617, Note_on_c, 9, 56, 0
12, 6620, Control_c, 9, 123, 0
12, 6622, Note_on_c, 9, 60, 0
12, 6623, Control_c, 9, 123, 0
12, 6630, Note_on_c, 9, 62, 80
12, 6651, Note_on_c, 9, 62, 0
12, 6653, Control_c, 9, 123, 0
12, 6660, Note_on_c, 9, 61, 69
12, 6660, Note_on_c, 9, 53, 52
12, 6675, Note_on_c, 9, 53, 0
12, 6677, Note_on_c, 9, 61, 0
12, 6678, Control_c, 9, 123, 0
12, 6679, Control_c, 9, 123, 0
12, 6690, Note_on_c, 9, 63, 82
12, 6690, Note_on_c, 9, 53, 61
12, 6708, Note_on_c, 9, 63, 0
12, 6708, Control_c, 9, 123, 0
12, 6717, Note_on_c, 9, 53, 0
12, 6719, Control_c, 9, 123, 0
12, 6720, Note_on_c, 9, 56, 92
12, 6720, Note_on_c, 9, 60, 92
12, 6737, Note_on_c, 9, 56, 0
12, 6737, Control_c, 9, 123, 0
12, 6740, Note_on_c, 9, 60, 0
12, 6742, Control_c, 9, 123, 0
12, 6750, Note_on_c, 9, 62, 72
12, 6766, Note_on_c, 9, 62, 0
12, 6767, Control_c, 9, 123, 0
12, 6780, Note_on_c, 9, 60, 58
12, 6796, Note_on_c, 9, 60, 0
12, 6799, Control_c, 9, 123, 0
12, 6810, Note_on_c, 9, 62, 84
12, 6826, Note_on_c, 9, 62, 0
12, 6826, Control_c, 9, 123, 0
12, 6840, Note_on_c, 9, 60, 95
12, 6840, Note_on_c, 9, 56, 92
12, 6858, Note_on_c, 9, 56, 0
12, 6863, Control_c, 9, 123, 0
12, 6866, Note_on_c, 9, 60, 0
12, 6867, Control_c, 9, 123, 0
12, 6870, Note_on_c, 9, 62, 89
12, 6891, Note_on_c, 9, 62, 0
12, 6891, Control_c, 9, 123, 0
12, 6900, Note_on_c, 9, 61, 72
12, 6915, Note_on_c, 9, 61, 0
12, 6917, Control_c, 9, 123, 0
12, 6930, Note_on_c, 9, 63, 110
12, 6950, Note_on_c, 9, 63, 0
12, 6950, Control_c, 9, 123, 0
12, 6960, Note_on_c, 9, 56, 87
12, 6977, Note_on_c, 9, 56, 0
12, 6979, Control_c, 9, 123, 0
12, 6990, Note_on_c, 9, 62, 105
12, 6990, Note_on_c, 9, 63, 47
12, 6993, Note_on_c, 9, 63, 0
12, 7007, Note_on_c, 9, 62, 0
12, 7009, Control_c, 9, 123, 0
12, 7050, Note_on_c, 9, 62, 82
12, 7065, Note_on_c, 9, 62, 0
12, 7065, Control_c, 9, 123, 0
12, 7080, Note_on_c, 9, 60, 101
12, 7080, Note_on_c, 9, 56, 92
12, 7095, Note_on_c, 9, 56, 0
12, 7098, Control_c, 9, 123, 0
12, 7102, Control_c, 9, 123, 0
12, 7103, Note_on_c, 9, 60, 0
12, 7110, Note_on_c, 9, 62, 78
12, 7129, Note_on_c, 9, 62, 0
12, 7129, Control_c, 9, 123, 0
12, 7140, Note_on_c, 9, 50, 84
12, 7140, Note_on_c, 9, 61, 65
12, 7142, Control_c, 9, 123, 0
12, 7146, Note_on_c, 9, 50, 0
12, 7155, Note_on_c, 9, 50, 69
12, 7157, Note_on_c, 9, 61, 0
12, 7158, Control_c, 9, 123, 0
12, 7161, Control_c, 9, 123, 0
12, 7166, Note_on_c, 9, 50, 0
12, 7170, Note_on_c, 9, 63, 87
12, 7193, Note_on_c, 9, 63, 0
12, 7193, Control_c, 9, 123, 0
12, 7200, Note_on_c, 9, 56, 92
12, 7200, Note_on_c, 9, 60, 98
12, 7200, Note_on_c, 9, 50, 109
12, 7215, Control_c, 9, 123, 0
12, 7216, Note_on_c, 9, 56, 0
12, 7218, Note_on_c, 9, 60, 0
12, 7219, Note_on_c, 9, 50, 0
12, 7222, Control_c, 9, 123, 0
12, 7225, Control_c, 9, 123, 0
12, 7230, Note_on_c, 9, 62, 87
12, 7248, Note_on_c, 9, 62, 0
12, 7249, Control_c, 9, 123, 0
12, 7260, Note_on_c, 9, 60, 58
12, 7276, Note_on_c, 9, 60, 0
12, 7279, Control_c, 9, 123, 0
12, 7290, Note_on_c, 9, 62, 82
12, 7290, Note_on_c, 9, 50, 72
12, 7298, Note_on_c, 9, 50, 0
12, 7301, Control_c, 9, 123, 0
12, 7310, Note_on_c, 9, 62, 0
12, 7311, Control_c, 9, 123, 0
12, 7320, Note_on_c, 9, 60, 98
12, 7320, Note_on_c, 9, 56, 92
12, 7338, Note_on_c, 9, 56, 0
12, 7341, Control_c, 9, 123, 0
12, 7342, Note_on_c, 9, 60, 0
12, 7345, Control_c, 9, 123, 0
12, 7350, Note_on_c, 9, 62, 78
12, 7370, Note_on_c, 9, 62, 0
12, 7370, Control_c, 9, 123, 0
12, 7380, Note_on_c, 9, 61, 78
12, 7397, Note_on_c, 9, 61, 0
12, 7399, Control_c, 9, 123, 0
12, 7410, Note_on_c, 9, 63, 104
12, 7428, Control_c, 9, 123, 0
12, 7429, Note_on_c, 9, 63, 0
12, 7440, Note_on_c, 9, 56, 87
12, 7455, Control_c, 9, 123, 0
12, 7457, Note_on_c, 9, 56, 0
12, 7470, Note_on_c, 9, 62, 101
12, 7488, Note_on_c, 9, 62, 0
12, 7489, Control_c, 9, 123, 0
12, 7530, Note_on_c, 9, 62, 80
12, 7547, Control_c, 9, 123, 0
12, 7548, Note_on_c, 9, 62, 0
12, 7560, Note_on_c, 9, 56, 92
12, 7560, Note_on_c, 9, 60, 98
12, 7576, Note_on_c, 9, 56, 0
12, 7576, Control_c, 9, 123, 0
12, 7584, Note_on_c, 9, 60, 0
12, 7584, Control_c, 9, 123, 0
12, 7590, Note_on_c, 9, 62, 78
12, 7610, Note_on_c, 9, 62, 0
12, 7611, Control_c, 9, 123, 0
12, 7620, Note_on_c, 9, 61, 75
12, 7636, Note_on_c, 9, 61, 0
12, 7639, Control_c, 9, 123, 0
12, 7650, Note_on_c, 9, 53, 72
12, 7650, Note_on_c, 9, 63, 92
12, 7668, Control_c, 9, 123, 0
12, 7670, Note_on_c, 9, 63, 0
12, 7673, Note_on_c, 9, 53, 0
12, 7673, Control_c, 9, 123, 0
12, 7680, Note_on_c, 9, 56, 92
12, 7680, Note_on_c, 9, 60, 87
12, 7696, Note_on_c, 9, 56, 0
12, 7696, Control_c, 9, 123, 0
12, 7698, Note_on_c, 9, 60, 0
12, 7700, Control_c, 9, 123, 0
12, 7710, Note_on_c, 9, 62, 84
12, 7727, Control_c, 9, 123, 0
12, 7728, Note_on_c, 9, 62, 0
12, 7740, Note_on_c, 9, 60, 61
12, 7753, Note_on_c, 9, 60, 0
12, 7756, Control_c, 9, 123, 0
12, 7770, Note_on_c, 9, 62, 76
12, 7786, Note_on_c, 9, 62, 0
12, 7788, Control_c, 9, 123, 0
12, 7800, Note_on_c, 9, 60, 105
12, 7800, Note_on_c, 9, 56, 98
12, 7819, Note_on_c, 9, 56, 0
12, 7820, Control_c, 9, 123, 0
12, 7822, Note_on_c, 9, 60, 0
12, 7824, Control_c, 9, 123, 0
12, 7830, Note_on_c, 9, 62, 82
12, 7850, Note_on_c, 9, 62, 0
12, 7850, Control_c, 9, 123, 0
12, 7860, Note_on_c, 9, 61, 69
12, 7875, Note_on_c, 9, 61, 0
12, 7877, Control_c, 9, 123, 0
12, 7890, Note_on_c, 9, 63, 98
12, 7907, Control_c, 9, 123, 0
12, 7908, Note_on_c, 9, 63, 0
12, 7920, Note_on_c, 9, 56, 98
12, 7938, Note_on_c, 9, 56, 0
12, 7942, Control_c, 9, 123, 0
12, 7950, Note_on_c, 9, 62, 105
12, 7967, Control_c, 9, 123, 0
12, 7968, Note_on_c, 9, 62, 0
12, 8010, Note_on_c, 9, 62, 84
12, 8024, Control_c, 9, 123, 0
12, 8027, Note_on_c, 9, 62, 0
12, 8040, Note_on_c, 9, 60, 101
12, 8040, Note_on_c, 9, 56, 104
12, 8057, Note_on_c, 9, 56, 0
12, 8062, Control_c, 9, 123, 0
12, 8064, Note_on_c, 9, 60, 0
12, 8065, Control_c, 9, 123, 0
12, 8070, Note_on_c, 9, 62, 84
12, 8089, Note_on_c, 9, 62, 0
12, 8089, Control_c, 9, 123, 0
12, 8100, Note_on_c, 9, 61, 82
12, 8116, Note_on_c, 9, 61, 0
12, 8117, Control_c, 9, 123, 0
12, 8130, Note_on_c, 9, 63, 92
12, 8147, Control_c, 9, 123, 0
12, 8149, Note_on_c, 9, 63, 0
12, 8160, Note_on_c, 9, 56, 98
12, 8160, Note_on_c, 9, 60, 78
12, 8175, Note_on_c, 9, 56, 0
12, 8175, Control_c, 9, 123, 0
12, 8178, Note_on_c, 9, 60, 0
12, 8179, Control_c, 9, 123, 0
12, 8190, Note_on_c, 9, 62, 87
12, 8203, Control_c, 9, 123, 0
12, 8206, Note_on_c, 9, 62, 0
12, 8220, Note_on_c, 9, 53, 58
12, 8220, Note_on_c, 9, 60, 61
12, 8234, Control_c, 9, 123, 0
12, 8235, Note_on_c, 9, 60, 0
12, 8250, Note_on_c, 9, 62, 82
12, 8250, Control_c, 9, 123, 0
12, 8252, Note_on_c, 9, 53, 0
12, 8262, Control_c, 9, 123, 0
12, 8266, Note_on_c, 9, 62, 0
12, 8280, Note_on_c, 9, 56, 98
12, 8280, Note_on_c, 9, 60, 105
12, 8299, Note_on_c, 9, 56, 0
12, 8299, Control_c, 9, 123, 0
12, 8300, Control_c, 9, 123, 0
12, 8302, Note_on_c, 9, 60, 0
12, 8310, Note_on_c, 9, 62, 87
12, 8323, Control_c, 9, 123, 0
12, 8327, Note_on_c, 9, 62, 0
12, 8340, Note_on_c, 9, 61, 72
12, 8340, Note_on_c, 9, 53, 52
12, 8353, Control_c, 9, 123, 0
12, 8356, Note_on_c, 9, 61, 0
12, 8370, Note_on_c, 9, 63, 104
12, 8375, Note_on_c, 9, 53, 0
12, 8378, Control_c, 9, 123, 0
12, 8383, Control_c, 9, 123, 0
12, 8389, Note_on_c, 9, 63, 0
12, 8400, Note_on_c, 9, 56, 98
12, 8418, Control_c, 9, 123, 0
12, 8419, Note_on_c, 9, 56, 0
12, 8430, Note_on_c, 9, 62, 92
12, 8445, Control_c, 9, 123, 0
12, 8449, Note_on_c, 9, 62, 0
12, 8460, Note_on_c, 9, 53, 55
12, 8473, Note_on_c, 9, 53, 0
12, 8475, Control_c, 9, 123, 0
12, 8490, Note_on_c, 9, 53, 72
12, 8490, Note_on_c, 9, 62, 84
12, 8501, Control_c, 9, 123, 0
12, 8509, Note_on_c, 9, 62, 0
12, 8519, Note_on_c, 9, 53, 0
12, 8519, Control_c, 9, 123, 0
12, 8520, Note_on_c, 9, 56, 92
12, 8520, Note_on_c, 9, 60, 101
12, 8538, Note_on_c, 9, 56, 0
12, 8538, Control_c, 9, 123, 0
12, 8542, Control_c, 9, 123, 0
12, 8548, Note_on_c, 9, 60, 0
12, 8550, Note_on_c, 9, 62, 84
12, 8567, Control_c, 9, 123, 0
12, 8571, Note_on_c, 9, 62, 0
12, 8580, Note_on_c, 9, 61, 82
12, 8580, Note_on_c, 9, 53, 46
12, 8592, Control_c, 9, 123, 0
12, 8594, Note_on_c, 9, 53, 0
12, 8596, Note_on_c, 9, 61, 0
12, 8597, Control_c, 9, 123, 0
12, 8610, Note_on_c, 9, 53, 65
12, 8610, Note_on_c, 9, 63, 92
12, 8622, Control_c, 9, 123, 0
12, 8629, Note_on_c, 9, 63, 0
12, 8640, Note_on_c, 9, 53, 0
12, 8640, Note_on_c, 9, 56, 98
12, 8640, Note_on_c, 9, 60, 89
12, 8640, Control_c, 9, 123, 0
12, 8654, Control_c, 9, 123, 0
12, 8657, Control_c, 9, 123, 0
12, 8658, Note_on_c, 9, 56, 0
12, 8658, Note_on_c, 9, 60, 0
12, 8670, Note_on_c, 9, 62, 89
12, 8676, Control_c, 9, 123, 0
12, 8686, Note_on_c, 9, 62, 0
12, 8700, Note_on_c, 9, 60, 65
12, 8706, Control_c, 9, 123, 0
12, 8716, Note_on_c, 9, 60, 0
12, 8730, Note_on_c, 9, 62, 68
12, 8736, Control_c, 9, 123, 0
12, 8749, Note_on_c, 9, 62, 0
12, 8760, Note_on_c, 9, 60, 105
12, 8760, Note_on_c, 9, 56, 92
12, 8771, Control_c, 9, 123, 0
12, 8777, Note_on_c, 9, 56, 0
12, 8778, Control_c, 9, 123, 0
12, 8782, Note_on_c, 9, 60, 0
12, 8790, Note_on_c, 9, 62, 76
12, 8801, Control_c, 9, 123, 0
12, 8810, Note_on_c, 9, 62, 0
12, 8820, Note_on_c, 9, 61, 82
12, 8831, Control_c, 9, 123, 0
12, 8838, Note_on_c, 9, 61, 0
12, 8850, Note_on_c, 9, 63, 92
12, 8860, Control_c, 9, 123, 0
12, 8870, Note_on_c, 9, 63, 0
12, 8880, Note_on_c, 9, 56, 98
12, 8899, Control_c, 9, 123, 0
12, 8900, Note_on_c, 9, 56, 0
12, 8910, Note_on_c, 9, 62, 84
12, 8922, Control_c, 9, 123, 0
12, 8928, Note_on_c, 9, 62, 0
12, 8940, Note_on_c, 9, 53, 53
12, 8955, Note_on_c, 9, 53, 0
12, 8958, Control_c, 9, 123, 0
12, 8970, Note_on_c, 9, 62, 78
12, 8970, Note_on_c, 9, 53, 61
12, 8981, Control_c, 9, 123, 0
12, 8988, Note_on_c, 9, 62, 0
12, 8992, Note_on_c, 9, 53, 0
12, 8994, Control_c, 9, 123, 0
12, 9000, Note_on_c, 9, 56, 92
12, 9000, Note_on_c, 9, 60, 109
12, 9017, Control_c, 9, 123, 0
12, 9019, Note_on_c, 9, 56, 0
12, 9019, Control_c, 9, 123, 0
12, 9022, Note_on_c, 9, 60, 0
12, 9030, Note_on_c, 9, 62, 82
12, 9046, Control_c, 9, 123, 0
12, 9050, Note_on_c, 9, 62, 0
12, 9060, Note_on_c, 9, 61, 72
12, 9060, Note_on_c, 9, 53, 46
12, 9068, Note_on_c, 9, 53, 0
12, 9071, Control_c, 9, 123, 0
12, 9074, Control_c, 9, 123, 0
12, 9076, Note_on_c, 9, 61, 0
12, 9090, Note_on_c, 9, 63, 92
12, 9090, Note_on_c, 9, 53, 72
12, 9105, Control_c, 9, 123, 0
12, 9109, Note_on_c, 9, 63, 0
12, 9114, Note_on_c, 9, 53, 0
12, 9116, Control_c, 9, 123, 0
12, 9120, Note_on_c, 9, 56, 92
12, 9120, Note_on_c, 9, 60, 92
12, 9136, Control_c, 9, 123, 0
12, 9137, Note_on_c, 9, 56, 0
12, 9138, Control_c, 9, 123, 0
12, 9141, Note_on_c, 9, 60, 0
12, 9150, Note_on_c, 9, 62, 84
12, 9160, Control_c, 9, 123, 0
12, 9165, Note_on_c, 9, 62, 0
12, 9180, Note_on_c, 9, 60, 71
12, 9193, Control_c, 9, 123, 0
12, 9198, Note_on_c, 9, 60, 0
12, 9210, Note_on_c, 9, 62, 82
12, 9223, Control_c, 9, 123, 0
12, 9228, Note_on_c, 9, 62, 0
12, 9240, Note_on_c, 9, 56, 92
12, 9240, Note_on_c, 9, 60, 98
12, 9257, Control_c, 9, 123, 0
12, 9258, Note_on_c, 9, 56, 0
12, 9259, Note_on_c, 9, 60, 0
12, 9259, Control_c, 9, 123, 0
12, 9270, Note_on_c, 9, 62, 80
12, 9284, Control_c, 9, 123, 0
12, 9289, Note_on_c, 9, 62, 0
12, 9300, Note_on_c, 9, 61, 78
12, 9313, Control_c, 9, 123, 0
12, 9318, Note_on_c, 9, 61, 0
12, 9330, Note_on_c, 9, 63, 98
12, 9343, Control_c, 9, 123, 0
12, 9350, Note_on_c, 9, 63, 0
12, 9360, Note_on_c, 9, 56, 98
12, 9375, Note_on_c, 9, 56, 0
12, 9380, Control_c, 9, 123, 0
12, 9390, Note_on_c, 9, 62, 101
12, 9401, Control_c, 9, 123, 0
12, 9407, Note_on_c, 9, 62, 0
12, 9420, Note_on_c, 9, 53, 58
12, 9434, Note_on_c, 9, 53, 0
12, 9439, Control_c, 9, 123, 0
12, 9450, Note_on_c, 9, 62, 89
12, 9450, Note_on_c, 9, 53, 65
12, 9464, Control_c, 9, 123, 0
12, 9466, Note_on_c, 9, 62, 0
12, 9471, Note_on_c, 9, 53, 0
12, 9476, Control_c, 9, 123, 0
12, 9480, Note_on_c, 9, 60, 101
12, 9480, Note_on_c, 9, 56, 98
12, 9496, Control_c, 9, 123, 0
12, 9497, Note_on_c, 9, 56, 0
12, 9501, Note_on_c, 9, 60, 0
12, 9502, Control_c, 9, 123, 0
12, 9510, Note_on_c, 9, 62, 82
12, 9525, Control_c, 9, 123, 0
12, 9530, Note_on_c, 9, 62, 0
12, 9540, Note_on_c, 9, 61, 82
12, 9540, Note_on_c, 9, 53, 64
12, 9553, Note_on_c, 9, 53, 0
12, 9554, Control_c, 9, 123, 0
12, 9557, Note_on_c, 9, 61, 0
12, 9557, Control_c, 9, 123, 0
12, 9570, Note_on_c, 9, 63, 87
12, 9570, Note_on_c, 9, 53, 68
12, 9582, Control_c, 9, 123, 0
12, 9588, Note_on_c, 9, 63, 0
12, 9589, Note_on_c, 9, 53, 0
12, 9593, Control_c, 9, 123, 0
12, 9600, Note_on_c, 9, 60, 84
12, 9600, Note_on_c, 9, 56, 92
12, 9615, Control_c, 9, 123, 0
12, 9617, Note_on_c, 9, 56, 0
12, 9619, Note_on_c, 9, 60, 0
12, 9619, Control_c, 9, 123, 0
12, 9630, Note_on_c, 9, 62, 87
12, 9639, Control_c, 9, 123, 0
12, 9646, Note_on_c, 9, 62, 0
12, 9660, Note_on_c, 9, 60, 53
12, 9666, Control_c, 9, 123, 0
12, 9671, Note_on_c, 9, 60, 0
12, 9690, Note_on_c, 9, 62, 76
12, 9697, Control_c, 9, 123, 0
12, 9706, Note_on_c, 9, 62, 0
12, 9720, Note_on_c, 9, 56, 98
12, 9720, Note_on_c, 9, 60, 105
12, 9733, Control_c, 9, 123, 0
12, 9738, Control_c, 9, 123, 0
12, 9739, Note_on_c, 9, 56, 0
12, 9742, Note_on_c, 9, 60, 0
12, 9750, Note_on_c, 9, 62, 74
12, 9760, Control_c, 9, 123, 0
12, 9771, Note_on_c, 9, 62, 0
12, 9780, Note_on_c, 9, 61, 82
12, 9787, Control_c, 9, 123, 0
12, 9797, Note_on_c, 9, 61, 0
12, 9810, Note_on_c, 9, 63, 98
12, 9818, Control_c, 9, 123, 0
12, 9829, Note_on_c, 9, 63, 0
12, 9840, Note_on_c, 9, 56, 98
12, 9858, Control_c, 9, 123, 0
12, 9859, Note_on_c, 9, 56, 0
12, 9870, Note_on_c, 9, 62, 101
12, 9877, Control_c, 9, 123, 0
12, 9887, Note_on_c, 9, 62, 0
12, 9900, Note_on_c, 9, 53, 52
12, 9900, Note_on_c, 9, 62, 58
12, 9911, Note_on_c, 9, 53, 0
12, 9911, Control_c, 9, 123, 0
12, 9920, Note_on_c, 9, 62, 0
12, 9930, Note_on_c, 9, 53, 69
12, 9934, Control_c, 9, 123, 0
12, 9957, Note_on_c, 9, 53, 0
12, 9958, Control_c, 9, 123, 0
12, 9960, Note_on_c, 9, 60, 105
12, 9960, Note_on_c, 9, 56, 98
12, 9970, Control_c, 9, 123, 0
12, 9979, Note_on_c, 9, 56, 0
12, 9981, Note_on_c, 9, 60, 0
12, 9983, Control_c, 9, 123, 0
12, 9990, Note_on_c, 9, 62, 87
12, 10001, Control_c, 9, 123, 0
12, 10009, Note_on_c, 9, 62, 0
12, 10020, Note_on_c, 9, 61, 87
12, 10020, Note_on_c, 9, 53, 56
12, 10029, Note_on_c, 9, 53, 0
12, 10030, Control_c, 9, 123, 0
12, 10031, Control_c, 9, 123, 0
12, 10037, Note_on_c, 9, 61, 0
12, 10050, Note_on_c, 9, 63, 92
12, 10050, Note_on_c, 9, 53, 76
12, 10059, Control_c, 9, 123, 0
12, 10068, Note_on_c, 9, 63, 0
12, 10072, Note_on_c, 9, 53, 0
12, 10073, Control_c, 9, 123, 0
12, 10080, Note_on_c, 9, 60, 98
12, 10080, Note_on_c, 9, 56, 92
12, 10093, Control_c, 9, 123, 0
12, 10098, Note_on_c, 9, 56, 0
12, 10100, Control_c, 9, 123, 0
12, 10101, Note_on_c, 9, 60, 0
12, 10110, Note_on_c, 9, 62, 89
12, 10117, Control_c, 9, 123, 0
12, 10126, Note_on_c, 9, 62, 0
12, 10140, Note_on_c, 9, 60, 59
12, 10148, Control_c, 9, 123, 0
12, 10155, Note_on_c, 9, 60, 0
12, 10170, Note_on_c, 9, 62, 71
12, 10178, Control_c, 9, 123, 0
12, 10188, Note_on_c, 9, 62, 0
12, 10200, Note_on_c, 9, 60, 95
12, 10200, Note_on_c, 9, 56, 92
12, 10215, Control_c, 9, 123, 0
12, 10218, Note_on_c, 9, 56, 0
12, 10219, Control_c, 9, 123, 0
12, 10222, Note_on_c, 9, 60, 0
12, 10230, Note_on_c, 9, 62, 82
12, 10241, Control_c, 9, 123, 0
12, 10250, Note_on_c, 9, 62, 0
12, 10260, Note_on_c, 9, 61, 75
12, 10268, Control_c, 9, 123, 0
12, 10277, Note_on_c, 9, 61, 0
12, 10290, Note_on_c, 9, 63, 78
12, 10299, Control_c, 9, 123, 0
12, 10308, Note_on_c, 9, 63, 0
12, 10320, Note_on_c, 9, 56, 98
12, 10337, Note_on_c, 9, 56, 0
12, 10341, Control_c, 9, 123, 0
12, 10350, Note_on_c, 9, 62, 92
12, 10357, Control_c, 9, 123, 0
12, 10367, Note_on_c, 9, 62, 0
12, 10380, Note_on_c, 9, 53, 61
12, 10393, Control_c, 9, 123, 0
12, 10395, Note_on_c, 9, 53, 0
12, 10410, Note_on_c, 9, 53, 71
12, 10410, Note_on_c, 9, 62, 80
12, 10415, Control_c, 9, 123, 0
12, 10427, Note_on_c, 9, 62, 0
12, 10436, Control_c, 9, 123, 0
12, 10437, Note_on_c, 9, 53, 0
12, 10440, Note_on_c, 9, 60, 95
12, 10440, Note_on_c, 9, 56, 104
12, 10452, Control_c, 9, 123, 0
12, 10459, Note_on_c, 9, 56, 0
12, 10462, Note_on_c, 9, 60, 0
12, 10462, Control_c, 9, 123, 0
12, 10470, Note_on_c, 9, 62, 72
12, 10479, Control_c, 9, 123, 0
12, 10491, Note_on_c, 9, 62, 0
12, 10500, Note_on_c, 9, 53, 53
12, 10500, Note_on_c, 9, 61, 78
12, 10508, Control_c, 9, 123, 0
12, 10516, Note_on_c, 9, 53, 0
12, 10516, Control_c, 9, 123, 0
12, 10517, Note_on_c, 9, 61, 0
12, 10530, Note_on_c, 9, 63, 78
12, 10530, Note_on_c, 9, 53, 74
12, 10539, Control_c, 9, 123, 0
12, 10548, Note_on_c, 9, 63, 0
12, 10555, Note_on_c, 9, 53, 0
12, 10556, Control_c, 9, 123, 0
12, 10560, Note_on_c, 9, 56, 98
12, 10560, Note_on_c, 9, 60, 80
12, 10571, Control_c, 9, 123, 0
12, 10579, Note_on_c, 9, 56, 0
12, 10579, Control_c, 9, 123, 0
12, 10580, Note_on_c, 9, 60, 0
12, 10590, Note_on_c, 9, 62, 82
12, 10595, Control_c, 9, 123, 0
12, 10606, Note_on_c, 9, 62, 0
12, 10620, Note_on_c, 9, 60, 60
12, 10625, Control_c, 9, 123, 0
12, 10637, Note_on_c, 9, 60, 0
12, 10650, Note_on_c, 9, 62, 78
12, 10656, Control_c, 9, 123, 0
12, 10668, Note_on_c, 9, 62, 0
12, 10680, Note_on_c, 9, 56, 98
12, 10680, Note_on_c, 9, 60, 98
12, 10692, Control_c, 9, 123, 0
12, 10696, Control_c, 9, 123, 0
12, 10697, Note_on_c, 9, 56, 0
12, 10703, Note_on_c, 9, 60, 0
12, 10710, Note_on_c, 9, 62, 87
12, 10714, Control_c, 9, 123, 0
12, 10729, Note_on_c, 9, 62, 0
12, 10740, Note_on_c, 9, 61, 78
12, 10745, Control_c, 9, 123, 0
12, 10757, Note_on_c, 9, 61, 0
12, 10770, Note_on_c, 9, 63, 82
12, 10775, Control_c, 9, 123, 0
12, 10789, Note_on_c, 9, 63, 0
12, 10800, Note_on_c, 9, 56, 98
12, 10819, Note_on_c, 9, 56, 0
12, 10819, Control_c, 9, 123, 0
12, 10830, Note_on_c, 9, 62, 89
12, 10840, Control_c, 9, 123, 0
12, 10849, Note_on_c, 9, 62, 0
12, 10860, Note_on_c, 9, 53, 60
12, 10871, Control_c, 9, 123, 0
12, 10873, Note_on_c, 9, 53, 0
12, 10890, Note_on_c, 9, 53, 66
12, 10890, Note_on_c, 9, 62, 74
12, 10900, Control_c, 9, 123, 0
12, 10908, Note_on_c, 9, 62, 0
12, 10919, Control_c, 9, 123, 0
12, 10920, Note_on_c, 9, 56, 98
12, 10920, Note_on_c, 9, 60, 98
12, 10921, Note_on_c, 9, 53, 0
12, 10935, Control_c, 9, 123, 0
12, 10937, Note_on_c, 9, 56, 0
12, 10939, Control_c, 9, 123, 0
12, 10947, Note_on_c, 9, 60, 0
12, 10950, Note_on_c, 9, 62, 84
12, 10960, Control_c, 9, 123, 0
12, 10968, Note_on_c, 9, 62, 0
12, 10980, Note_on_c, 9, 53, 49
12, 10980, Note_on_c, 9, 61, 78
12, 10988, Control_c, 9, 123, 0
12, 10989, Control_c, 9, 123, 0
12, 10991, Note_on_c, 9, 53, 0
12, 10996, Note_on_c, 9, 61, 0
12, 11010, Note_on_c, 9, 53, 78
12, 11010, Note_on_c, 9, 63, 78
12, 11020, Control_c, 9, 123, 0
12, 11028, Note_on_c, 9, 63, 0
12, 11036, Control_c, 9, 123, 0
12, 11038, Note_on_c, 9, 53, 0
12, 11040, Note_on_c, 9, 56, 98
12, 11040, Note_on_c, 9, 60, 92
12, 11052, Control_c, 9, 123, 0
12, 11054, Control_c, 9, 123, 0
12, 11056, Note_on_c, 9, 56, 0
12, 11059, Note_on_c, 9, 60, 0
12, 11070, Note_on_c, 9, 62, 65
12, 11080, Control_c, 9, 123, 0
12, 11088, Note_on_c, 9, 62, 0
12, 11100, Note_on_c, 9, 60, 71
12, 11111, Control_c, 9, 123, 0
12, 11115, Note_on_c, 9, 60, 0
12, 11130, Note_on_c, 9, 62, 80
12, 11138, Control_c, 9, 123, 0
12, 11146, Note_on_c, 9, 62, 0
12, 11160, Note_on_c, 9, 56, 98
12, 11160, Note_on_c, 9, 60, 98
12, 11177, Note_on_c, 9, 56, 0
12, 11177, Control_c, 9, 123, 0
12, 11179, Control_c, 9, 123, 0
12, 11186, Note_on_c, 9, 60, 0
12, 11190, Note_on_c, 9, 62, 84
12, 11204, Control_c, 9, 123, 0
12, 11211, Note_on_c, 9, 62, 0
12, 11220, Note_on_c, 9, 61, 78
12, 11233, Control_c, 9, 123, 0
12, 11238, Note_on_c, 9, 61, 0
12, 11250, Note_on_c, 9, 63, 92
12, 11260, Control_c, 9, 123, 0
12, 11267, Note_on_c, 9, 63, 0
12, 11280, Note_on_c, 9, 56, 92
12, 11295, Note_on_c, 9, 56, 0
12, 11299, Control_c, 9, 123, 0
12, 11310, Note_on_c, 9, 62, 98
12, 11324, Control_c, 9, 123, 0
12, 11328, Note_on_c, 9, 62, 0
12, 11340, Note_on_c, 9, 53, 42
12, 11356, Note_on_c, 9, 53, 0
12, 11356, Control_c, 9, 123, 0
12, 11370, Note_on_c, 9, 53, 62
12, 11370, Note_on_c, 9, 62, 84
12, 11382, Control_c, 9, 123, 0
12, 11387, Note_on_c, 9, 62, 0
12, 11393, Note_on_c, 9, 53, 0
12, 11393, Control_c, 9, 123, 0
12, 11400, Note_on_c, 9, 60, 98
12, 11400, Note_on_c, 9, 56, 98
12, 11415, Control_c, 9, 123, 0
12, 11417, Note_on_c, 9, 56, 0
12, 11421, Control_c, 9, 123, 0
12, 11423, Note_on_c, 9, 60, 0
12, 11430, Note_on_c, 9, 62, 84
12, 11440, Control_c, 9, 123, 0
12, 11448, Note_on_c, 9, 62, 0
12, 11460, Note_on_c, 9, 61, 78
12, 11460, Note_on_c, 9, 53, 60
12, 11470, Control_c, 9, 123, 0
12, 11472, Note_on_c, 9, 53, 0
12, 11474, Control_c, 9, 123, 0
12, 11476, Note_on_c, 9, 61, 0
12, 11490, Note_on_c, 9, 63, 98
12, 11490, Note_on_c, 9, 53, 82
12, 11498, Control_c, 9, 123, 0
12, 11508, Note_on_c, 9, 63, 0
12, 11520, Note_on_c, 9, 53, 0
12, 11520, Note_on_c, 9, 60, 89
12, 11520, Note_on_c, 9, 56, 92
12, 11521, Control_c, 9, 123, 0
12, 11531, Control_c, 9, 123, 0
12, 11537, Note_on_c, 9, 56, 0
12, 11539, Note_on_c, 9, 60, 0
12, 11540, Control_c, 9, 123, 0
12, 11550, Note_on_c, 9, 62, 74
12, 11558, Control_c, 9, 123, 0
12, 11568, Note_on_c, 9, 62, 0
12, 11580, Note_on_c, 9, 60, 65
12, 11588, Control_c, 9, 123, 0
12, 11595, Note_on_c, 9, 60, 0
12, 11610, Note_on_c, 9, 62, 78
12, 11616, Control_c, 9, 123, 0
12, 11628, Note_on_c, 9, 62, 0
12, 11640, Note_on_c, 9, 60, 84
12, 11640, Note_on_c, 9, 56, 92
12, 11657, Note_on_c, 9, 56, 0
12, 11659, Control_c, 9, 123, 0
12, 11659, Control_c, 9, 123, 0
12, 11668, Note_on_c, 9, 60, 0
12, 11670, Note_on_c, 9, 62, 76
12, 11682, Control_c, 9, 123, 0
12, 11691, Note_on_c, 9, 62, 0
12, 11700, Note_on_c, 9, 61, 82
12, 11700, Note_on_c, 9, 50, 64
12, 11712, Control_c, 9, 123, 0
12, 11716, Note_on_c, 9, 50, 0
12, 11718, Note_on_c, 9, 61, 0
12, 11721, Control_c, 9, 123, 0
12, 11730, Note_on_c, 9, 63, 98
12, 11730, Note_on_c, 9, 50, 82
12, 11739, Control_c, 9, 123, 0
12, 11747, Note_on_c, 9, 63, 0
12, 11748, Note_on_c, 9, 50, 0
12, 11751, Control_c, 9, 123, 0
12, 11760, Note_on_c, 9, 56, 82
12, 11760, Note_on_c, 9, 48, 87
12, 11777, Note_on_c, 9, 56, 0
12, 11777, Note_on_c, 9, 48, 0
12, 11780, Control_c, 9, 123, 0
12, 11780, Control_c, 9, 123, 0
12, 11790, Note_on_c, 9, 62, 92
12, 11790, Note_on_c, 9, 48, 95
12, 11801, Control_c, 9, 123, 0
12, 11806, Note_on_c, 9, 48, 0
12, 11808, Note_on_c, 9, 62, 0
12, 11808, Control_c, 9, 123, 0
12, 11820, Note_on_c, 9, 53, 59
12, 11820, Note_on_c, 9, 48, 78
12, 11832, Note_on_c, 9, 53, 0
12, 11832, Control_c, 9, 123, 0
12, 11836, Note_on_c, 9, 48, 0
12, 11837, Control_c, 9, 123, 0
12, 11850, Note_on_c, 9, 53, 74
12, 11850, Note_on_c, 9, 48, 101
12, 11850, Note_on_c, 9, 62, 80
12, 11861, Control_c, 9, 123, 0
12, 11866, Note_on_c, 9, 48, 0
12, 11867, Control_c, 9, 123, 0
12, 11869, Note_on_c, 9, 62, 0
12, 11876, Control_c, 9, 123, 0
12, 11878, Note_on_c, 9, 53, 0
12, 11880, Note_on_c, 9, 56, 87
12, 11880, Note_on_c, 9, 60, 101
12, 11880, Note_on_c, 9, 45, 92
12, 11894, Control_c, 9, 123, 0
12, 11897, Note_on_c, 9, 56, 0
12, 11897, Control_c, 9, 123, 0
12, 11901, Note_on_c, 9, 45, 0
12, 11902, Note_on_c, 9, 60, 0
12, 11904, Control_c, 9, 123, 0
12, 11910, Note_on_c, 9, 62, 80
12, 11910, Note_on_c, 9, 45, 98
12, 11923, Control_c, 9, 123, 0
12, 11929, Note_on_c, 9, 62, 0
12, 11934, Note_on_c, 9, 45, 0
12, 11935, Control_c, 9, 123, 0
12, 11940, Note_on_c, 9, 53, 68
12, 11940, Note_on_c, 9, 61, 98
12, 11940, Note_on_c, 9, 41, 64
12, 11940, Note_on_c, 9, 43, 78
12, 11947, Note_on_c, 9, 43, 0
12, 11950, Control_c, 9, 123, 0
12, 11951, Note_on_c, 9, 41, 0
12, 11952, Note_on_c, 9, 53, 0
12, 11952, Control_c, 9, 123, 0
12, 11954, Control_c, 9, 123, 0
12, 11956, Note_on_c, 9, 61, 0
12, 11970, Note_on_c, 9, 53, 84
12, 11970, Note_on_c, 9, 41, 80
12, 11970, Note_on_c, 9, 63, 98
12, 11982, Control_c, 9, 123, 0
12, 11988, Note_on_c, 9, 41, 0
12, 11988, Note_on_c, 9, 63, 0
12, 11988, Control_c, 9, 123, 0
12, 11996, Note_on_c, 9, 53, 0
12, 11996, Control_c, 9, 123, 0
12, 12000, Note_on_c, 9, 49, 118
12, 12000, Note_on_c, 9, 56, 92
12, 12018, Note_on_c, 9, 56, 0
12, 12021, Control_c, 9, 123, 0
12, 12120, Note_on_c, 9, 56, 98
12, 12139, Note_on_c, 9, 56, 0
12, 12142, Control_c, 9, 123, 0
12, 12233, Note_on_c, 9, 49, 0
12, 12233, Control_c, 9, 123, 0
12, 12240, Note_on_c, 9, 56, 92
12, 12257, Note_on_c, 9, 56, 0
12, 12259, Control_c, 9, 123, 0
12, 12360, Note_on_c, 9, 56, 98
12, 12376, Note_on_c, 9, 56, 0
12, 12376, Control_c, 9, 123, 0
12, 12480, Note_on_c, 9, 56, 92
12, 12497, Control_c, 9, 123, 0
12, 12499, Note_on_c, 9, 56, 0
12, 12600, Note_on_c, 9, 56, 98
12, 12614, Control_c, 9, 123, 0
12, 12616, Note_on_c, 9, 56, 0
12, 12720, Note_on_c, 9, 56, 98
12, 12737, Note_on_c, 9, 56, 0
12, 12739, Control_c, 9, 123, 0
12, 12840, Note_on_c, 9, 56, 92
12, 12857, Note_on_c, 9, 56, 0
12, 12858, Control_c, 9, 123, 0
12, 12960, Note_on_c, 9, 56, 98
12, 12978, Note_on_c, 9, 56, 0
12, 12979, Control_c, 9, 123, 0
12, 13080, Note_on_c, 9, 56, 98
12, 13100, Note_on_c, 9, 56, 0
12, 13100, Control_c, 9, 123, 0
12, 13200, Note_on_c, 9, 56, 98
12, 13219, Note_on_c, 9, 56, 0
12, 13222, Control_c, 9, 123, 0
12, 13320, Note_on_c, 9, 56, 92
12, 13337, Note_on_c, 9, 56, 0
12, 13337, Control_c, 9, 123, 0
12, 13440, Note_on_c, 9, 56, 92
12, 13457, Note_on_c, 9, 56, 0
12, 13457, Control_c, 9, 123, 0
12, 13560, Note_on_c, 9, 56, 98
12, 13577, Note_on_c, 9, 56, 0
12, 13580, Control_c, 9, 123, 0
12, 13680, Note_on_c, 9, 56, 98
12, 13698, Note_on_c, 9, 56, 0
12, 13700, Control_c, 9, 123, 0
12, 13740, Note_on_c, 9, 53, 45
12, 13753, Note_on_c, 9, 53, 0
12, 13757, Control_c, 9, 123, 0
12, 13770, Note_on_c, 9, 53, 63
12, 13792, Control_c, 9, 123, 0
12, 13793, Note_on_c, 9, 53, 0
12, 13800, Note_on_c, 9, 56, 98
12, 13816, Note_on_c, 9, 56, 0
12, 13818, Control_c, 9, 123, 0
12, 13860, Note_on_c, 9, 53, 45
12, 13875, Note_on_c, 9, 53, 0
12, 13875, Control_c, 9, 123, 0
12, 13890, Note_on_c, 9, 53, 61
12, 13912, Note_on_c, 9, 53, 0
12, 13912, Control_c, 9, 123, 0
12, 13920, Note_on_c, 9, 56, 92
12, 13936, Control_c, 9, 123, 0
12, 13937, Note_on_c, 9, 56, 0
12, 14040, Note_on_c, 9, 56, 87
12, 14057, Note_on_c, 9, 56, 0
12, 14060, Control_c, 9, 123, 0
12, 14160, Note_on_c, 9, 56, 98
12, 14175, Note_on_c, 9, 56, 0
12, 14177, Control_c, 9, 123, 0
12, 14280, Note_on_c, 9, 56, 98
12, 14299, Note_on_c, 9, 56, 0
12, 14300, Control_c, 9, 123, 0
12, 14400, Note_on_c, 9, 56, 92
12, 14417, Control_c, 9, 123, 0
12, 14418, Note_on_c, 9, 56, 0
12, 14520, Note_on_c, 9, 56, 98
12, 14539, Note_on_c, 9, 56, 0
12, 14539, Control_c, 9, 123, 0
12, 14640, Note_on_c, 9, 56, 98
12, 14657, Note_on_c, 9, 56, 0
12, 14659, Control_c, 9, 123, 0
12, 14760, Note_on_c, 9, 56, 98
12, 14775, Note_on_c, 9, 56, 0
12, 14779, Control_c, 9, 123, 0
12, 14880, Note_on_c, 9, 56, 98
12, 14899, Note_on_c, 9, 56, 0
12, 14903, Control_c, 9, 123, 0
12, 15000, Note_on_c, 9, 56, 98
12, 15017, Note_on_c, 9, 56, 0
12, 15019, Control_c, 9, 123, 0
12, 15120, Note_on_c, 9, 56, 98
12, 15137, Note_on_c, 9, 56, 0
12, 15139, Control_c, 9, 123, 0
12, 15240, Note_on_c, 9, 56, 92
12, 15259, Note_on_c, 9, 56, 0
12, 15262, Control_c, 9, 123, 0
12, 15360, Note_on_c, 9, 56, 98
12, 15377, Control_c, 9, 123, 0
12, 15378, Note_on_c, 9, 56, 0
12, 15480, Note_on_c, 9, 56, 104
12, 15497, Control_c, 9, 123, 0
12, 15499, Note_on_c, 9, 56, 0
12, 15600, Note_on_c, 9, 56, 92
12, 15618, Note_on_c, 9, 56, 0
12, 15622, Control_c, 9, 123, 0
12, 15660, Note_on_c, 9, 53, 54
12, 15674, Note_on_c, 9, 53, 0
12, 15675, Control_c, 9, 123, 0
12, 15690, Note_on_c, 9, 53, 72
12, 15720, Note_on_c, 9, 56, 92
12, 15722, Note_on_c, 9, 53, 0
12, 15722, Control_c, 9, 123, 0
12, 15735, Note_on_c, 9, 56, 0
12, 15740, Control_c, 9, 123, 0
12, 15780, Note_on_c, 9, 53, 58
12, 15793, Control_c, 9, 123, 0
12, 15795, Note_on_c, 9, 53, 0
12, 15810, Note_on_c, 9, 53, 69
12, 15834, Control_c, 9, 123, 0
12, 15836, Note_on_c, 9, 53, 0
12, 15840, Note_on_c, 9, 56, 98
12, 15861, Note_on_c, 9, 56, 0
12, 15862, Control_c, 9, 123, 0
12, 15960, Note_on_c, 9, 60, 101
12, 15960, Note_on_c, 9, 56, 98
12, 15978, Note_on_c, 9, 56, 0
12, 15982, Note_on_c, 9, 60, 0
12, 15982, Control_c, 9, 123, 0
12, 15987, Control_c, 9, 123, 0
12, 15990, Note_on_c, 9, 62, 69
12, 16011, Note_on_c, 9, 62, 0
12, 16016, Control_c, 9, 123, 0
12, 16020, Note_on_c, 9, 61, 61
12, 16037, Note_on_c, 9, 61, 0
12, 16040, Control_c, 9, 123, 0
12, 16050, Note_on_c, 9, 63, 92
12, 16069, Note_on_c, 9, 63, 0
12, 16073, Control_c, 9, 123, 0
12, 16080, Note_on_c, 9, 60, 54
12, 16080, Note_on_c, 9, 56, 92
12, 16090, Note_on_c, 9, 60, 0
12, 16093, Control_c, 9, 123, 0
12, 16097, Note_on_c, 9, 56, 0
12, 16100, Control_c, 9, 123, 0
12, 16110, Note_on_c, 9, 62, 109
12, 16128, Note_on_c, 9, 62, 0
12, 16131, Control_c, 9, 123, 0
12, 16170, Note_on_c, 9, 62, 56
12, 16188, Note_on_c, 9, 62, 0
12, 16189, Control_c, 9, 123, 0
12, 16200, Note_on_c, 9, 60, 95
12, 16200, Note_on_c, 9, 56, 92
12, 16219, Note_on_c, 9, 56, 0
12, 16221, Control_c, 9, 123, 0
12, 16223, Note_on_c, 9, 60, 0
12, 16227, Control_c, 9, 123, 0
12, 16230, Note_on_c, 9, 62, 71
12, 16253, Note_on_c, 9, 62, 0
12, 16254, Control_c, 9, 123, 0
12, 16260, Note_on_c, 9, 61, 72
12, 16276, Note_on_c, 9, 61, 0
12, 16279, Control_c, 9, 123, 0
12, 16290, Note_on_c, 9, 63, 104
12, 16309, Note_on_c, 9, 63, 0
12, 16311, Control_c, 9, 123, 0
12, 16320, Note_on_c, 9, 56, 92
12, 16337, Note_on_c, 9, 56, 0
12, 16340, Control_c, 9, 123, 0
12, 16440, Note_on_c, 9, 56, 98
12, 16440, Note_on_c, 9, 60, 101
12, 16456, Control_c, 9, 123, 0
12, 16457, Note_on_c, 9, 56, 0
12, 16462, Note_on_c, 9, 60, 0
12, 16464, Control_c, 9, 123, 0
12, 16470, Note_on_c, 9, 62, 89
12, 16490, Note_on_c, 9, 62, 0
12, 16492, Control_c, 9, 123, 0
12, 16500, Note_on_c, 9, 61, 59
12, 16515, Note_on_c, 9, 61, 0
12, 16519, Control_c, 9, 123, 0
12, 16530, Note_on_c, 9, 63, 92
12, 16549, Note_on_c, 9, 63, 0
12, 16551, Control_c, 9, 123, 0
12, 16560, Note_on_c, 9, 56, 98
12, 16577, Note_on_c, 9, 56, 0
12, 16577, Control_c, 9, 123, 0
12, 16590, Note_on_c, 9, 62, 98
12, 16609, Note_on_c, 9, 62, 0
12, 16610, Control_c, 9, 123, 0
12, 16650, Note_on_c, 9, 62, 72
12, 16667, Control_c, 9, 123, 0
12, 16668, Note_on_c, 9, 62, 0
12, 16680, Note_on_c, 9, 60, 105
12, 16680, Note_on_c, 9, 56, 98
12, 16697, Note_on_c, 9, 56, 0
12, 16699, Control_c, 9, 123, 0
12, 16703, Note_on_c, 9, 60, 0
12, 16705, Control_c, 9, 123, 0
12, 16710, Note_on_c, 9, 62, 87
12, 16729, Note_on_c, 9, 62, 0
12, 16730, Control_c, 9, 123, 0
12, 16740, Note_on_c, 9, 61, 69
12, 16759, Note_on_c, 9, 61, 0
12, 16761, Control_c, 9, 123, 0
12, 16770, Note_on_c, 9, 63, 87
12, 16790, Note_on_c, 9, 63, 0
12, 16793, Control_c, 9, 123, 0
12, 16800, Note_on_c, 9, 56, 98
12, 16816, Note_on_c, 9, 56, 0
12, 16819, Control_c, 9, 123, 0
12, 16890, Note_on_c, 9, 62, 74
12, 16903, Control_c, 9, 123, 0
12, 16908, Note_on_c, 9, 62, 0
12, 16920, Note_on_c, 9, 60, 109
12, 16920, Note_on_c, 9, 56, 104
12, 16938, Note_on_c, 9, 56, 0
12, 16941, Note_on_c, 9, 60, 0
12, 16942, Control_c, 9, 123, 0
12, 16945, Control_c, 9, 123, 0
12, 16950, Note_on_c, 9, 62, 82
12, 16969, Note_on_c, 9, 62, 0
12, 16969, Control_c, 9, 123, 0
12, 16980, Note_on_c, 9, 61, 67
12, 16996, Note_on_c, 9, 61, 0
12, 17000, Control_c, 9, 123, 0
12, 17010, Note_on_c, 9, 63, 98
12, 17029, Note_on_c, 9, 63, 0
12, 17031, Control_c, 9, 123, 0
12, 17040, Note_on_c, 9, 56, 92
12, 17061, Note_on_c, 9, 56, 0
12, 17065, Control_c, 9, 123, 0
12, 17070, Note_on_c, 9, 62, 98
12, 17090, Note_on_c, 9, 62, 0
12, 17090, Control_c, 9, 123, 0
12, 17130, Note_on_c, 9, 62, 65
12, 17147, Note_on_c, 9, 62, 0
12, 17148, Control_c, 9, 123, 0
12, 17160, Note_on_c, 9, 60, 101
12, 17160, Note_on_c, 9, 56, 92
12, 17177, Note_on_c, 9, 56, 0
12, 17180, Note_on_c, 9, 60, 0
12, 17180, Control_c, 9, 123, 0
12, 17183, Control_c, 9, 123, 0
12, 17190, Note_on_c, 9, 62, 84
12, 17211, Note_on_c, 9, 62, 0
12, 17211, Control_c, 9, 123, 0
12, 17220, Note_on_c, 9, 61, 61
12, 17232, Note_on_c, 9, 61, 0
12, 17235, Control_c, 9, 123, 0
12, 17250, Note_on_c, 9, 63, 78
12, 17269, Note_on_c, 9, 63, 0
12, 17271, Control_c, 9, 123, 0
12, 17280, Note_on_c, 9, 60, 82
12, 17280, Note_on_c, 9, 56, 87
12, 17295, Note_on_c, 9, 60, 0
12, 17299, Note_on_c, 9, 56, 0
12, 17299, Control_c, 9, 123, 0
12, 17305, Control_c, 9, 123, 0
12, 17310, Note_on_c, 9, 62, 84
12, 17325, Note_on_c, 9, 62, 0
12, 17327, Control_c, 9, 123, 0
12, 17370, Note_on_c, 9, 62, 76
12, 17388, Note_on_c, 9, 62, 0
12, 17388, Control_c, 9, 123, 0
12, 17400, Note_on_c, 9, 60, 95
12, 17400, Note_on_c, 9, 56, 92
12, 17418, Note_on_c, 9, 56, 0
12, 17419, Note_on_c, 9, 60, 0
12, 17421, Control_c, 9, 123, 0
12, 17422, Control_c, 9, 123, 0
12, 17430, Note_on_c, 9, 62, 87
12, 17448, Note_on_c, 9, 62, 0
12, 17448, Control_c, 9, 123, 0
12, 17460, Note_on_c, 9, 61, 72
12, 17473, Note_on_c, 9, 61, 0
12, 17476, Control_c, 9, 123, 0
12, 17490, Note_on_c, 9, 63, 92
12, 17507, Note_on_c, 9, 63, 0
12, 17507, Control_c, 9, 123, 0
12, 17520, Note_on_c, 9, 56, 98
12, 17536, Note_on_c, 9, 56, 0
12, 17543, Control_c, 9, 123, 0
12, 17550, Note_on_c, 9, 62, 89
12, 17568, Note_on_c, 9, 62, 0
12, 17568, Control_c, 9, 123, 0
12, 17580, Note_on_c, 9, 53, 57
12, 17592, Note_on_c, 9, 53, 0
12, 17592, Control_c, 9, 123, 0
12, 17610, Note_on_c, 9, 53, 69
12, 17610, Note_on_c, 9, 62, 80
12, 17625, Note_on_c, 9, 62, 0
12, 17625, Control_c, 9, 123, 0
12, 17634, Note_on_c, 9, 53, 0
12, 17634, Control_c, 9, 123, 0
12, 17640, Note_on_c, 9, 60, 105
12, 17640, Note_on_c, 9, 56, 87
12, 17658, Note_on_c, 9, 56, 0
12, 17660, Control_c, 9, 123, 0
12, 17661, Note_on_c, 9, 60, 0
12, 17663, Control_c, 9, 123, 0
12, 17670, Note_on_c, 9, 62, 87
12, 17691, Note_on_c, 9, 62, 0
12, 17691, Control_c, 9, 123, 0
12, 17700, Note_on_c, 9, 61, 78
12, 17700, Note_on_c, 9, 53, 54
12, 17714, Note_on_c, 9, 53, 0
12, 17715, Note_on_c, 9, 61, 0
12, 17715, Control_c, 9, 123, 0
12, 17717, Control_c, 9, 123, 0
12, 17730, Note_on_c, 9, 53, 68
12, 17730, Note_on_c, 9, 63, 92
12, 17749, Control_c, 9, 123, 0
12, 17750, Note_on_c, 9, 63, 0
12, 17758, Control_c, 9, 123, 0
12, 17759, Note_on_c, 9, 53, 0
12, 17760, Note_on_c, 9, 60, 101
12, 17760, Note_on_c, 9, 56, 92
12, 17779, Note_on_c, 9, 56, 0
12, 17780, Note_on_c, 9, 60, 0
12, 17780, Control_c, 9, 123, 0
12, 17783, Control_c, 9, 123, 0
12, 17790, Note_on_c, 9, 62, 84
12, 17809, Note_on_c, 9, 62, 0
12, 17809, Control_c, 9, 123, 0
12, 17820, Note_on_c, 9, 60, 57
12, 17833, Note_on_c, 9, 60, 0
12, 17837, Control_c, 9, 123, 0
12, 17850, Note_on_c, 9, 62, 80
12, 17867, Control_c, 9, 123, 0
12, 17868, Note_on_c, 9, 62, 0
12, 17880, Note_on_c, 9, 60, 101
12, 17880, Note_on_c, 9, 56, 92
12, 17897, Note_on_c, 9, 56, 0
12, 17900, Control_c, 9, 123, 0
12, 17902, Note_on_c, 9, 60, 0
12, 17904, Control_c, 9, 123, 0
12, 17910, Note_on_c, 9, 62, 87
12, 17931, Control_c, 9, 123, 0
12, 17932, Note_on_c, 9, 62, 0
12, 17940, Note_on_c, 9, 61, 72
12, 17956, Note_on_c, 9, 61, 0
12, 17957, Control_c, 9, 123, 0
12, 17970, Note_on_c, 9, 63, 98
12, 17988, Note_on_c, 9, 63, 0
12, 17989, Control_c, 9, 123, 0
12, 18000, Note_on_c, 9, 56, 92
12, 18015, Note_on_c, 9, 56, 0
12, 18021, Control_c, 9, 123, 0
12, 18030, Note_on_c, 9, 62, 105
12, 18047, Note_on_c, 9, 62, 0
12, 18047, Control_c, 9, 123, 0
12, 18090, Note_on_c, 9, 62, 80
12, 18105, Control_c, 9, 123, 0
12, 18107, Note_on_c, 9, 62, 0
12, 18120, Note_on_c, 9, 60, 105
12, 18120, Note_on_c, 9, 56, 92
12, 18138, Note_on_c, 9, 56, 0
12, 18140, Control_c, 9, 123, 0
12, 18143, Note_on_c, 9, 60, 0
12, 18143, Control_c, 9, 123, 0
12, 18150, Note_on_c, 9, 62, 82
12, 18168, Note_on_c, 9, 62, 0
12, 18168, Control_c, 9, 123, 0
12, 18180, Note_on_c, 9, 61, 72
12, 18197, Note_on_c, 9, 61, 0
12, 18197, Control_c, 9, 123, 0
12, 18210, Note_on_c, 9, 63, 82
12, 18227, Control_c, 9, 123, 0
12, 18229, Note_on_c, 9, 63, 0
12, 18240, Note_on_c, 9, 60, 105
12, 18240, Note_on_c, 9, 56, 92
12, 18256, Note_on_c, 9, 56, 0
12, 18260, Note_on_c, 9, 60, 0
12, 18260, Control_c, 9, 123, 0
12, 18261, Control_c, 9, 123, 0
12, 18270, Note_on_c, 9, 62, 69
12, 18286, Control_c, 9, 123, 0
12, 18289, Note_on_c, 9, 62, 0
12, 18300, Note_on_c, 9, 60, 60
12, 18315, Note_on_c, 9, 60, 0
12, 18317, Control_c, 9, 123, 0
12, 18330, Note_on_c, 9, 62, 72
12, 18348, Note_on_c, 9, 62, 0
12, 18348, Control_c, 9, 123, 0
12, 18360, Note_on_c, 9, 56, 98
12, 18360, Note_on_c, 9, 60, 101
12, 18377, Note_on_c, 9, 56, 0
12, 18377, Control_c, 9, 123, 0
12, 18381, Note_on_c, 9, 60, 0
12, 18384, Control_c, 9, 123, 0
12, 18390, Note_on_c, 9, 62, 84
12, 18410, Note_on_c, 9, 62, 0
12, 18410, Control_c, 9, 123, 0
12, 18420, Note_on_c, 9, 61, 75
12, 18437, Note_on_c, 9, 61, 0
12, 18437, Control_c, 9, 123, 0
12, 18450, Note_on_c, 9, 63, 98
12, 18468, Note_on_c, 9, 63, 0
12, 18469, Control_c, 9, 123, 0
12, 18480, Note_on_c, 9, 56, 92
12, 18496, Control_c, 9, 123, 0
12, 18497, Note_on_c, 9, 56, 0
12, 18510, Note_on_c, 9, 62, 98
12, 18528, Note_on_c, 9, 62, 0
12, 18529, Control_c, 9, 123, 0
12, 18570, Note_on_c, 9, 62, 84
12, 18586, Note_on_c, 9, 62, 0
12, 18586, Control_c, 9, 123, 0
12, 18600, Note_on_c, 9, 56, 98
12, 18600, Note_on_c, 9, 60, 98
12, 18616, Control_c, 9, 123, 0
12, 18618, Note_on_c, 9, 56, 0
12, 18622, Note_on_c, 9, 60, 0
12, 18623, Control_c, 9, 123, 0
12, 18630, Note_on_c, 9, 62, 80
12, 18651, Note_on_c, 9, 62, 0
12, 18653, Control_c, 9, 123, 0
12, 18660, Note_on_c, 9, 61, 69
12, 18660, Note_on_c, 9, 53, 42
12, 18671, Note_on_c, 9, 53, 0
12, 18673, Control_c, 9, 123, 0
12, 18677, Note_on_c, 9, 61, 0
12, 18679, Control_c, 9, 123, 0
12, 18690, Note_on_c, 9, 53, 65
12, 18690, Note_on_c, 9, 63, 82
12, 18708, Note_on_c, 9, 63, 0
12, 18708, Control_c, 9, 123, 0
12, 18720, Note_on_c, 9, 53, 0
12, 18720, Note_on_c, 9, 56, 87
12, 18720, Note_on_c, 9, 60, 92
12, 18720, Control_c, 9, 123, 0
12, 18738, Control_c, 9, 123, 0
12, 18739, Note_on_c, 9, 56, 0
12, 18740, Note_on_c, 9, 60, 0
12, 18742, Control_c, 9, 123, 0
12, 18750, Note_on_c, 9, 62, 72
12, 18766, Note_on_c, 9, 62, 0
12, 18767, Control_c, 9, 123, 0
12, 18780, Note_on_c, 9, 60, 58
12, 18796, Note_on_c, 9, 60, 0
12, 18799, Control_c, 9, 123, 0
12, 18810, Note_on_c, 9, 62, 84
12, 18826, Note_on_c, 9, 62, 0
12, 18826, Control_c, 9, 123, 0
12, 18840, Note_on_c, 9, 56, 92
12, 18840, Note_on_c, 9, 60, 95
12, 18857, Control_c, 9, 123, 0
12, 18860, Note_on_c, 9, 56, 0
12, 18866, Note_on_c, 9, 60, 0
12, 18867, Control_c, 9, 123, 0
12, 18870, Note_on_c, 9, 62, 89
12, 18891, Note_on_c, 9, 62, 0
12, 18891, Control_c, 9, 123, 0
12, 18900, Note_on_c, 9, 61, 72
12, 18915, Note_on_c, 9, 61, 0
12, 18917, Control_c, 9, 123, 0
12, 18930, Note_on_c, 9, 63, 110
12, 18950, Note_on_c, 9, 63, 0
12, 18950, Control_c, 9, 123, 0
12, 18960, Note_on_c, 9, 56, 98
12, 18977, Note_on_c, 9, 56, 0
12, 18978, Control_c, 9, 123, 0
12, 18990, Note_on_c, 9, 62, 105
12, 18990, Note_on_c, 9, 63, 47
12, 18993, Note_on_c, 9, 63, 0
12, 19007, Note_on_c, 9, 62, 0
12, 19009, Control_c, 9, 123, 0
12, 19050, Note_on_c, 9, 62, 82
12, 19065, Note_on_c, 9, 62, 0
12, 19065, Control_c, 9, 123, 0
12, 19080, Note_on_c, 9, 60, 101
12, 19080, Note_on_c, 9, 56, 98
12, 19098, Note_on_c, 9, 56, 0
12, 19102, Control_c, 9, 123, 0
12, 19102, Control_c, 9, 123, 0
12, 19103, Note_on_c, 9, 60, 0
12, 19110, Note_on_c, 9, 62, 78
12, 19129, Note_on_c, 9, 62, 0
12, 19129, Control_c, 9, 123, 0
12, 19140, Note_on_c, 9, 61, 65
12, 19157, Note_on_c, 9, 61, 0
12, 19158, Control_c, 9, 123, 0
12, 19170, Note_on_c, 9, 63, 87
12, 19193, Note_on_c, 9, 63, 0
12, 19193, Control_c, 9, 123, 0
12, 19200, Note_on_c, 9, 60, 98
12, 19200, Note_on_c, 9, 56, 98
12, 19217, Note_on_c, 9, 56, 0
12, 19218, Note_on_c, 9, 60, 0
12, 19222, Control_c, 9, 123, 0
12, 19222, Control_c, 9, 123, 0
12, 19230, Note_on_c, 9, 62, 87
12, 19248, Note_on_c, 9, 62, 0
12, 19249, Control_c, 9, 123, 0
12, 19260, Note_on_c, 9, 60, 58
12, 19276, Note_on_c, 9, 60, 0
12, 19279, Control_c, 9, 123, 0
12, 19290, Note_on_c, 9, 62, 82
12, 19310, Note_on_c, 9, 62, 0
12, 19311, Control_c, 9, 123, 0
12, 19320, Note_on_c, 9, 60, 98
12, 19320, Note_on_c, 9, 56, 92
12, 19339, Note_on_c, 9, 56, 0
12, 19342, Note_on_c, 9, 60, 0
12, 19344, Control_c, 9, 123, 0
12, 19345, Control_c, 9, 123, 0
12, 19350, Note_on_c, 9, 62, 78
12, 19370, Note_on_c, 9, 62, 0
12, 19370, Control_c, 9, 123, 0
12, 19380, Note_on_c, 9, 61, 78
12, 19397, Note_on_c, 9, 61, 0
12, 19399, Control_c, 9, 123, 0
12, 19410, Note_on_c, 9, 63, 104
12, 19428, Control_c, 9, 123, 0
12, 19429, Note_on_c, 9, 63, 0
12, 19440, Note_on_c, 9, 56, 92
12, 19458, Note_on_c, 9, 56, 0
12, 19462, Control_c, 9, 123, 0
12, 19470, Note_on_c, 9, 62, 101
12, 19488, Note_on_c, 9, 62, 0
12, 19489, Control_c, 9, 123, 0
12, 19500, Note_on_c, 9, 53, 54
12, 19511, Control_c, 9, 123, 0
12, 19515, Note_on_c, 9, 53, 0
12, 19530, Note_on_c, 9, 53, 76
12, 19530, Note_on_c, 9, 62, 80
12, 19547, Control_c, 9, 123, 0
12, 19548, Note_on_c, 9, 62, 0
12, 19555, Control_c, 9, 123, 0
12, 19556, Note_on_c, 9, 53, 0
12, 19560, Note_on_c, 9, 60, 98
12, 19560, Note_on_c, 9, 56, 92
12, 19577, Note_on_c, 9, 56, 0
12, 19579, Control_c, 9, 123, 0
12, 19584, Note_on_c, 9, 60, 0
12, 19584, Control_c, 9, 123, 0
12, 19590, Note_on_c, 9, 62, 78
12, 19610, Note_on_c, 9, 62, 0
12, 19611, Control_c, 9, 123, 0
12, 19620, Note_on_c, 9, 53, 68
12, 19620, Note_on_c, 9, 61, 75
12, 19635, Control_c, 9, 123, 0
12, 19636, Note_on_c, 9, 53, 0
12, 19636, Note_on_c, 9, 61, 0
12, 19639, Control_c, 9, 123, 0
12, 19650, Note_on_c, 9, 53, 69
12, 19650, Note_on_c, 9, 63, 92
12, 19668, Control_c, 9, 123, 0
12, 19670, Note_on_c, 9, 53, 0
12, 19670, Note_on_c, 9, 63, 0
12, 19670, Control_c, 9, 123, 0
12, 19680, Note_on_c, 9, 56, 87
12, 19680, Note_on_c, 9, 60, 87
12, 19697, Control_c, 9, 123, 0
12, 19698, Note_on_c, 9, 56, 0
12, 19698, Note_on_c, 9, 60, 0
12, 19700, Control_c, 9, 123, 0
12, 19710, Note_on_c, 9, 62, 84
12, 19727, Control_c, 9, 123, 0
12, 19728, Note_on_c, 9, 62, 0
12, 19740, Note_on_c, 9, 60, 61
12, 19753, Note_on_c, 9, 60, 0
12, 19756, Control_c, 9, 123, 0
12, 19770, Note_on_c, 9, 62, 76
12, 19786, Note_on_c, 9, 62, 0
12, 19788, Control_c, 9, 123, 0
12, 19800, Note_on_c, 9, 60, 105
12, 19800, Note_on_c, 9, 56, 92
12, 19817, Note_on_c, 9, 56, 0
12, 19818, Control_c, 9, 123, 0
12, 19822, Note_on_c, 9, 60, 0
12, 19824, Control_c, 9, 123, 0
12, 19830, Note_on_c, 9, 62, 82
12, 19850, Note_on_c, 9, 62, 0
12, 19850, Control_c, 9, 123, 0
12, 19860, Note_on_c, 9, 61, 69
12, 19875, Note_on_c, 9, 61, 0
12, 19877, Control_c, 9, 123, 0
12, 19890, Note_on_c, 9, 63, 98
12, 19907, Control_c, 9, 123, 0
12, 19908, Note_on_c, 9, 63, 0
12, 19920, Note_on_c, 9, 56, 98
12, 19937, Note_on_c, 9, 56, 0
12, 19939, Control_c, 9, 123, 0
12, 19950, Note_on_c, 9, 62, 105
12, 19967, Control_c, 9, 123, 0
12, 19968, Note_on_c, 9, 62, 0
12, 19980, Note_on_c, 9, 53, 51
12, 19995, Note_on_c, 9, 53, 0
12, 19996, Control_c, 9, 123, 0
12, 20010, Note_on_c, 9, 62, 84
12, 20010, Note_on_c, 9, 53, 65
12, 20024, Control_c, 9, 123, 0
12, 20027, Note_on_c, 9, 62, 0
12, 20035, Note_on_c, 9, 53, 0
12, 20037, Control_c, 9, 123, 0
12, 20040, Note_on_c, 9, 60, 101
12, 20040, Note_on_c, 9, 56, 92
12, 20059, Note_on_c, 9, 56, 0
12, 20060, Control_c, 9, 123, 0
12, 20064, Note_on_c, 9, 60, 0
12, 20065, Control_c, 9, 123, 0
12, 20070, Note_on_c, 9, 62, 84
12, 20089, Note_on_c, 9, 62, 0
12, 20089, Control_c, 9, 123, 0
12, 20100, Note_on_c, 9, 61, 82
12, 20100, Note_on_c, 9, 53, 35
12, 20108, Note_on_c, 9, 53, 0
12, 20110, Control_c, 9, 123, 0
12, 20116, Note_on_c, 9, 61, 0
12, 20117, Control_c, 9, 123, 0
12, 20130, Note_on_c, 9, 63, 92
12, 20130, Note_on_c, 9, 53, 80
12, 20147, Control_c, 9, 123, 0
12, 20149, Note_on_c, 9, 63, 0
12, 20156, Note_on_c, 9, 53, 0
12, 20159, Control_c, 9, 123, 0
12, 20160, Note_on_c, 9, 56, 92
12, 20160, Note_on_c, 9, 60, 78
12, 20178, Note_on_c, 9, 60, 0
12, 20179, Control_c, 9, 123, 0
12, 20181, Note_on_c, 9, 56, 0
12, 20181, Control_c, 9, 123, 0
12, 20190, Note_on_c, 9, 62, 87
12, 20203, Control_c, 9, 123, 0
12, 20206, Note_on_c, 9, 62, 0
12, 20220, Note_on_c, 9, 60, 61
12, 20234, Control_c, 9, 123, 0
12, 20235, Note_on_c, 9, 60, 0
12, 20250, Note_on_c, 9, 62, 82
12, 20262, Control_c, 9, 123, 0
12, 20266, Note_on_c, 9, 62, 0
12, 20280, Note_on_c, 9, 60, 105
12, 20280, Note_on_c, 9, 56, 87
12, 20296, Note_on_c, 9, 56, 0
12, 20300, Control_c, 9, 123, 0
12, 20301, Control_c, 9, 123, 0
12, 20302, Note_on_c, 9, 60, 0
12, 20310, Note_on_c, 9, 62, 87
12, 20323, Control_c, 9, 123, 0
12, 20327, Note_on_c, 9, 62, 0
12, 20340, Note_on_c, 9, 61, 72
12, 20353, Control_c, 9, 123, 0
12, 20356, Note_on_c, 9, 61, 0
12, 20370, Note_on_c, 9, 63, 104
12, 20383, Control_c, 9, 123, 0
12, 20389, Note_on_c, 9, 63, 0
12, 20400, Note_on_c, 9, 56, 87
12, 20418, Note_on_c, 9, 56, 0
12, 20421, Control_c, 9, 123, 0
12, 20430, Note_on_c, 9, 62, 92
12, 20445, Control_c, 9, 123, 0
12, 20449, Note_on_c, 9, 62, 0
12, 20460, Note_on_c, 9, 53, 48
12, 20470, Control_c, 9, 123, 0
12, 20471, Note_on_c, 9, 53, 0
12, 20490, Note_on_c, 9, 53, 68
12, 20490, Note_on_c, 9, 62, 84
12, 20501, Control_c, 9, 123, 0
12, 20509, Note_on_c, 9, 62, 0
12, 20512, Control_c, 9, 123, 0
12, 20514, Note_on_c, 9, 53, 0
12, 20520, Note_on_c, 9, 60, 101
12, 20520, Note_on_c, 9, 56, 92
12, 20539, Note_on_c, 9, 56, 0
12, 20541, Control_c, 9, 123, 0
12, 20542, Control_c, 9, 123, 0
12, 20548, Note_on_c, 9, 60, 0
12, 20550, Note_on_c, 9, 62, 84
12, 20567, Control_c, 9, 123, 0
12, 20571, Note_on_c, 9, 62, 0
12, 20580, Note_on_c, 9, 53, 44
12, 20580, Note_on_c, 9, 61, 82
12, 20592, Control_c, 9, 123, 0
12, 20592, Control_c, 9, 123, 0
12, 20593, Note_on_c, 9, 53, 0
12, 20596, Note_on_c, 9, 61, 0
12, 20610, Note_on_c, 9, 53, 62
12, 20610, Note_on_c, 9, 63, 92
12, 20622, Control_c, 9, 123, 0
12, 20626, Control_c, 9, 123, 0
12, 20627, Note_on_c, 9, 53, 0
12, 20629, Note_on_c, 9, 63, 0
12, 20640, Note_on_c, 9, 56, 92
12, 20640, Note_on_c, 9, 60, 89
12, 20654, Control_c, 9, 123, 0
12, 20655, Control_c, 9, 123, 0
12, 20656, Note_on_c, 9, 56, 0
12, 20658, Note_on_c, 9, 60, 0
12, 20670, Note_on_c, 9, 62, 89
12, 20676, Control_c, 9, 123, 0
12, 20686, Note_on_c, 9, 62, 0
12, 20700, Note_on_c, 9, 60, 65
12, 20706, Control_c, 9, 123, 0
12, 20716, Note_on_c, 9, 60, 0
12, 20730, Note_on_c, 9, 62, 68
12, 20736, Control_c, 9, 123, 0
12, 20749, Note_on_c, 9, 62, 0
12, 20760, Note_on_c, 9, 60, 105
12, 20760, Note_on_c, 9, 56, 98
12, 20771, Control_c, 9, 123, 0
12, 20776, Note_on_c, 9, 56, 0
12, 20782, Note_on_c, 9, 60, 0
12, 20782, Control_c, 9, 123, 0
12, 20790, Note_on_c, 9, 62, 76
12, 20801, Control_c, 9, 123, 0
12, 20810, Note_on_c, 9, 62, 0
12, 20820, Note_on_c, 9, 53, 66
12, 20820, Note_on_c, 9, 61, 82
12, 20831, Control_c, 9, 123, 0
12, 20838, Note_on_c, 9, 61, 0
12, 20841, Control_c, 9, 123, 0
12, 20848, Note_on_c, 9, 53, 0
12, 20850, Note_on_c, 9, 63, 92
12, 20860, Control_c, 9, 123, 0
12, 20870, Note_on_c, 9, 63, 0
12, 20880, Note_on_c, 9, 56, 92
12, 20898, Note_on_c, 9, 56, 0
12, 20901, Control_c, 9, 123, 0
12, 20910, Note_on_c, 9, 62, 84
12, 20922, Control_c, 9, 123, 0
12, 20928, Note_on_c, 9, 62, 0
12, 20970, Note_on_c, 9, 62, 78
12, 20981, Control_c, 9, 123, 0
12, 20988, Note_on_c, 9, 62, 0
12, 21000, Note_on_c, 9, 60, 109
12, 21000, Note_on_c, 9, 56, 98
12, 21017, Note_on_c, 9, 56, 0
12, 21017, Control_c, 9, 123, 0
12, 21020, Control_c, 9, 123, 0
12, 21022, Note_on_c, 9, 60, 0
12, 21030, Note_on_c, 9, 62, 82
12, 21046, Control_c, 9, 123, 0
12, 21050, Note_on_c, 9, 62, 0
12, 21060, Note_on_c, 9, 61, 72
12, 21060, Note_on_c, 9, 53, 64
12, 21074, Control_c, 9, 123, 0
12, 21076, Note_on_c, 9, 61, 0
12, 21083, Note_on_c, 9, 53, 0
12, 21085, Control_c, 9, 123, 0
12, 21090, Note_on_c, 9, 63, 92
12, 21105, Control_c, 9, 123, 0
12, 21109, Note_on_c, 9, 63, 0
12, 21120, Note_on_c, 9, 60, 92
12, 21120, Note_on_c, 9, 56, 98
12, 21138, Control_c, 9, 123, 0
12, 21139, Note_on_c, 9, 56, 0
12, 21141, Note_on_c, 9, 60, 0
12, 21142, Control_c, 9, 123, 0
12, 21150, Note_on_c, 9, 62, 84
12, 21160, Control_c, 9, 123, 0
12, 21165, Note_on_c, 9, 62, 0
12, 21180, Note_on_c, 9, 60, 71
12, 21193, Control_c, 9, 123, 0
12, 21198, Note_on_c, 9, 60, 0
12, 21210, Note_on_c, 9, 62, 82
12, 21223, Control_c, 9, 123, 0
12, 21228, Note_on_c, 9, 62, 0
12, 21240, Note_on_c, 9, 60, 98
12, 21240, Note_on_c, 9, 56, 92
12, 21257, Note_on_c, 9, 56, 0
12, 21257, Control_c, 9, 123, 0
12, 21259, Note_on_c, 9, 60, 0
12, 21259, Control_c, 9, 123, 0
12, 21270, Note_on_c, 9, 62, 80
12, 21284, Control_c, 9, 123, 0
12, 21289, Note_on_c, 9, 62, 0
12, 21300, Note_on_c, 9, 61, 78
12, 21300, Note_on_c, 9, 53, 69
12, 21313, Control_c, 9, 123, 0
12, 21318, Note_on_c, 9, 61, 0
12, 21328, Note_on_c, 9, 53, 0
12, 21330, Note_on_c, 9, 63, 98
12, 21334, Control_c, 9, 123, 0
12, 21343, Control_c, 9, 123, 0
12, 21350, Note_on_c, 9, 63, 0
12, 21360, Note_on_c, 9, 56, 92
12, 21379, Note_on_c, 9, 56, 0
12, 21383, Control_c, 9, 123, 0
12, 21390, Note_on_c, 9, 62, 101
12, 21401, Control_c, 9, 123, 0
12, 21407, Note_on_c, 9, 62, 0
12, 21420, Note_on_c, 9, 53, 49
12, 21437, Note_on_c, 9, 53, 0
12, 21439, Control_c, 9, 123, 0
12, 21450, Note_on_c, 9, 62, 89
12, 21450, Note_on_c, 9, 53, 65
12, 21464, Control_c, 9, 123, 0
12, 21466, Note_on_c, 9, 62, 0
12, 21476, Note_on_c, 9, 53, 0
12, 21477, Control_c, 9, 123, 0
12, 21480, Note_on_c, 9, 60, 101
12, 21480, Note_on_c, 9, 56, 87
12, 21496, Control_c, 9, 123, 0
12, 21497, Note_on_c, 9, 56, 0
12, 21501, Note_on_c, 9, 60, 0
12, 21501, Control_c, 9, 123, 0
12, 21510, Note_on_c, 9, 62, 82
12, 21525, Control_c, 9, 123, 0
12, 21530, Note_on_c, 9, 62, 0
12, 21540, Note_on_c, 9, 61, 82
12, 21540, Note_on_c, 9, 53, 56
12, 21554, Control_c, 9, 123, 0
12, 21555, Note_on_c, 9, 53, 0
12, 21557, Note_on_c, 9, 61, 0
12, 21557, Control_c, 9, 123, 0
12, 21570, Note_on_c, 9, 53, 64
12, 21570, Note_on_c, 9, 63, 87
12, 21582, Control_c, 9, 123, 0
12, 21588, Note_on_c, 9, 63, 0
12, 21593, Note_on_c, 9, 53, 0
12, 21593, Control_c, 9, 123, 0
12, 21600, Note_on_c, 9, 56, 92
12, 21600, Note_on_c, 9, 60, 84
12, 21615, Control_c, 9, 123, 0
12, 21618, Note_on_c, 9, 56, 0
12, 21618, Control_c, 9, 123, 0
12, 21619, Note_on_c, 9, 60, 0
12, 21630, Note_on_c, 9, 62, 87
12, 21639, Control_c, 9, 123, 0
12, 21646, Note_on_c, 9, 62, 0
12, 21660, Note_on_c, 9, 60, 53
12, 21666, Control_c, 9, 123, 0
12, 21671, Note_on_c, 9, 60, 0
12, 21690, Note_on_c, 9, 62, 76
12, 21697, Control_c, 9, 123, 0
12, 21706, Note_on_c, 9, 62, 0
12, 21720, Note_on_c, 9, 60, 105
12, 21720, Note_on_c, 9, 56, 98
12, 21733, Control_c, 9, 123, 0
12, 21737, Note_on_c, 9, 56, 0
12, 21742, Note_on_c, 9, 60, 0
12, 21743, Control_c, 9, 123, 0
12, 21750, Note_on_c, 9, 62, 74
12, 21760, Control_c, 9, 123, 0
12, 21771, Note_on_c, 9, 62, 0
12, 21780, Note_on_c, 9, 61, 82
12, 21780, Note_on_c, 9, 53, 59
12, 21787, Control_c, 9, 123, 0
12, 21797, Note_on_c, 9, 61, 0
12, 21807, Note_on_c, 9, 53, 0
12, 21809, Control_c, 9, 123, 0
12, 21810, Note_on_c, 9, 63, 98
12, 21818, Control_c, 9, 123, 0
12, 21829, Note_on_c, 9, 63, 0
12, 21840, Note_on_c, 9, 56, 92
12, 21859, Note_on_c, 9, 56, 0
12, 21864, Control_c, 9, 123, 0
12, 21870, Note_on_c, 9, 62, 101
12, 21877, Control_c, 9, 123, 0
12, 21887, Note_on_c, 9, 62, 0
12, 21900, Note_on_c, 9, 62, 58
12, 21920, Note_on_c, 9, 62, 0
12, 21934, Control_c, 9, 123, 0
12, 21960, Note_on_c, 9, 60, 105
12, 21960, Note_on_c, 9, 56, 92
12, 21970, Control_c, 9, 123, 0
12, 21977, Note_on_c, 9, 56, 0
12, 21980, Control_c, 9, 123, 0
12, 21981, Note_on_c, 9, 60, 0
12, 21990, Note_on_c, 9, 62, 87
12, 22001, Control_c, 9, 123, 0
12, 22009, Note_on_c, 9, 62, 0
12, 22020, Note_on_c, 9, 53, 69
12, 22020, Note_on_c, 9, 61, 87
12, 22030, Control_c, 9, 123, 0
12, 22037, Note_on_c, 9, 61, 0
12, 22050, Note_on_c, 9, 63, 92
12, 22051, Note_on_c, 9, 53, 0
12, 22051, Control_c, 9, 123, 0
12, 22059, Control_c, 9, 123, 0
12, 22068, Note_on_c, 9, 63, 0
12, 22080, Note_on_c, 9, 60, 98
12, 22080, Note_on_c, 9, 56, 92
12, 22093, Control_c, 9, 123, 0
12, 22098, Note_on_c, 9, 56, 0
12, 22100, Control_c, 9, 123, 0
12, 22101, Note_on_c, 9, 60, 0
12, 22110, Note_on_c, 9, 62, 89
12, 22117, Control_c, 9, 123, 0
12, 22126, Note_on_c, 9, 62, 0
12, 22140, Note_on_c, 9, 60, 59
12, 22148, Control_c, 9, 123, 0
12, 22155, Note_on_c, 9, 60, 0
12, 22170, Note_on_c, 9, 62, 71
12, 22178, Control_c, 9, 123, 0
12, 22188, Note_on_c, 9, 62, 0
12, 22200, Note_on_c, 9, 60, 95
12, 22200, Note_on_c, 9, 56, 92
12, 22215, Control_c, 9, 123, 0
12, 22218, Note_on_c, 9, 56, 0
12, 22222, Note_on_c, 9, 60, 0
12, 22223, Control_c, 9, 123, 0
12, 22230, Note_on_c, 9, 62, 82
12, 22241, Control_c, 9, 123, 0
12, 22250, Note_on_c, 9, 62, 0
12, 22260, Note_on_c, 9, 53, 72
12, 22260, Note_on_c, 9, 61, 75
12, 22268, Control_c, 9, 123, 0
12, 22277, Note_on_c, 9, 61, 0
12, 22290, Note_on_c, 9, 63, 78
12, 22295, Note_on_c, 9, 53, 0
12, 22295, Control_c, 9, 123, 0
12, 22299, Control_c, 9, 123, 0
12, 22308, Note_on_c, 9, 63, 0
12, 22320, Note_on_c, 9, 56, 87
12, 22338, Note_on_c, 9, 56, 0
12, 22342, Control_c, 9, 123, 0
12, 22350, Note_on_c, 9, 62, 92
12, 22357, Control_c, 9, 123, 0
12, 22367, Note_on_c, 9, 62, 0
12, 22380, Note_on_c, 9, 53, 50
12, 22389, Note_on_c, 9, 53, 0
12, 22389, Control_c, 9, 123, 0
12, 22410, Note_on_c, 9, 53, 60
12, 22410, Note_on_c, 9, 62, 80
12, 22415, Control_c, 9, 123, 0
12, 22427, Note_on_c, 9, 62, 0
12, 22428, Control_c, 9, 123, 0
12, 22429, Note_on_c, 9, 53, 0
12, 22440, Note_on_c, 9, 60, 95
12, 22440, Note_on_c, 9, 56, 98
12, 22452, Control_c, 9, 123, 0
12, 22459, Note_on_c, 9, 56, 0
12, 22462, Note_on_c, 9, 60, 0
12, 22462, Control_c, 9, 123, 0
12, 22470, Note_on_c, 9, 62, 72
12, 22479, Control_c, 9, 123, 0
12, 22491, Note_on_c, 9, 62, 0
12, 22500, Note_on_c, 9, 61, 78
12, 22500, Note_on_c, 9, 53, 34
12, 22503, Note_on_c, 9, 53, 0
12, 22506, Control_c, 9, 123, 0
12, 22508, Control_c, 9, 123, 0
12, 22517, Note_on_c, 9, 61, 0
12, 22530, Note_on_c, 9, 53, 80
12, 22530, Note_on_c, 9, 63, 78
12, 22539, Control_c, 9, 123, 0
12, 22548, Note_on_c, 9, 63, 0
12, 22550, Control_c, 9, 123, 0
12, 22551, Note_on_c, 9, 53, 0
12, 22560, Note_on_c, 9, 60, 80
12, 22560, Note_on_c, 9, 56, 82
12, 22571, Control_c, 9, 123, 0
12, 22579, Note_on_c, 9, 56, 0
12, 22580, Note_on_c, 9, 60, 0
12, 22580, Control_c, 9, 123, 0
12, 22590, Note_on_c, 9, 62, 82
12, 22595, Control_c, 9, 123, 0
12, 22606, Note_on_c, 9, 62, 0
12, 22620, Note_on_c, 9, 60, 60
12, 22625, Control_c, 9, 123, 0
12, 22637, Note_on_c, 9, 60, 0
12, 22650, Note_on_c, 9, 62, 78
12, 22656, Control_c, 9, 123, 0
12, 22668, Note_on_c, 9, 62, 0
12, 22680, Note_on_c, 9, 56, 98
12, 22680, Note_on_c, 9, 60, 98
12, 22692, Control_c, 9, 123, 0
12, 22699, Note_on_c, 9, 56, 0
12, 22699, Control_c, 9, 123, 0
12, 22703, Note_on_c, 9, 60, 0
12, 22710, Note_on_c, 9, 62, 87
12, 22714, Control_c, 9, 123, 0
12, 22729, Note_on_c, 9, 62, 0
12, 22740, Note_on_c, 9, 61, 78
12, 22740, Note_on_c, 9, 53, 80
12, 22745, Control_c, 9, 123, 0
12, 22757, Note_on_c, 9, 61, 0
12, 22765, Note_on_c, 9, 53, 0
12, 22767, Control_c, 9, 123, 0
12, 22770, Note_on_c, 9, 63, 82
12, 22775, Control_c, 9, 123, 0
12, 22789, Note_on_c, 9, 63, 0
12, 22800, Note_on_c, 9, 56, 98
12, 22819, Note_on_c, 9, 56, 0
12, 22819, Control_c, 9, 123, 0
12, 22830, Note_on_c, 9, 62, 89
12, 22840, Control_c, 9, 123, 0
12, 22849, Note_on_c, 9, 62, 0
12, 22890, Note_on_c, 9, 62, 74
12, 22900, Control_c, 9, 123, 0
12, 22908, Note_on_c, 9, 62, 0
12, 22920, Note_on_c, 9, 60, 98
12, 22920, Note_on_c, 9, 56, 92
12, 22938, Note_on_c, 9, 56, 0
12, 22939, Control_c, 9, 123, 0
12, 22939, Control_c, 9, 123, 0
12, 22947, Note_on_c, 9, 60, 0
12, 22950, Note_on_c, 9, 62, 84
12, 22960, Control_c, 9, 123, 0
12, 22968, Note_on_c, 9, 62, 0
12, 22980, Note_on_c, 9, 61, 78
12, 22980, Note_on_c, 9, 53, 78
12, 22989, Control_c, 9, 123, 0
12, 22996, Note_on_c, 9, 61, 0
12, 23003, Note_on_c, 9, 53, 0
12, 23008, Control_c, 9, 123, 0
12, 23010, Note_on_c, 9, 63, 78
12, 23020, Control_c, 9, 123, 0
12, 23028, Note_on_c, 9, 63, 0
12, 23040, Note_on_c, 9, 60, 92
12, 23040, Note_on_c, 9, 56, 87
12, 23052, Control_c, 9, 123, 0
12, 23058, Note_on_c, 9, 56, 0
12, 23059, Note_on_c, 9, 60, 0
12, 23061, Control_c, 9, 123, 0
12, 23070, Note_on_c, 9, 62, 65
12, 23080, Control_c, 9, 123, 0
12, 23088, Note_on_c, 9, 62, 0
12, 23100, Note_on_c, 9, 60, 71
12, 23111, Control_c, 9, 123, 0
12, 23115, Note_on_c, 9, 60, 0
12, 23130, Note_on_c, 9, 62, 80
12, 23138, Control_c, 9, 123, 0
12, 23146, Note_on_c, 9, 62, 0
12, 23160, Note_on_c, 9, 60, 98
12, 23160, Note_on_c, 9, 56, 92
12, 23179, Note_on_c, 9, 56, 0
12, 23179, Control_c, 9, 123, 0
12, 23181, Control_c, 9, 123, 0
12, 23186, Note_on_c, 9, 60, 0
12, 23190, Note_on_c, 9, 62, 84
12, 23204, Control_c, 9, 123, 0
12, 23211, Note_on_c, 9, 62, 0
12, 23220, Note_on_c, 9, 53, 60
12, 23220, Note_on_c, 9, 61, 78
12, 23233, Control_c, 9, 123, 0
12, 23238, Note_on_c, 9, 61, 0
12, 23238, Control_c, 9, 123, 0
12, 23239, Note_on_c, 9, 53, 0
12, 23250, Note_on_c, 9, 53, 68
12, 23250, Note_on_c, 9, 63, 92
12, 23260, Control_c, 9, 123, 0
12, 23267, Note_on_c, 9, 63, 0
12, 23275, Note_on_c, 9, 53, 0
12, 23275, Control_c, 9, 123, 0
12, 23280, Note_on_c, 9, 56, 87
12, 23298, Note_on_c, 9, 56, 0
12, 23303, Control_c, 9, 123, 0
12, 23310, Note_on_c, 9, 62, 98
12, 23324, Control_c, 9, 123, 0
12, 23328, Note_on_c, 9, 62, 0
12, 23340, Note_on_c, 9, 53, 52
12, 23354, Control_c, 9, 123, 0
12, 23355, Note_on_c, 9, 53, 0
12, 23370, Note_on_c, 9, 53, 62
12, 23370, Note_on_c, 9, 62, 84
12, 23382, Control_c, 9, 123, 0
12, 23387, Note_on_c, 9, 62, 0
12, 23393, Control_c, 9, 123, 0
12, 23395, Note_on_c, 9, 53, 0
12, 23400, Note_on_c, 9, 60, 98
12, 23400, Note_on_c, 9, 56, 92
12, 23415, Control_c, 9, 123, 0
12, 23419, Note_on_c, 9, 56, 0
12, 23421, Control_c, 9, 123, 0
12, 23423, Note_on_c, 9, 60, 0
12, 23430, Note_on_c, 9, 62, 84
12, 23440, Control_c, 9, 123, 0
12, 23448, Note_on_c, 9, 62, 0
12, 23460, Note_on_c, 9, 61, 78
12, 23460, Note_on_c, 9, 53, 63
12, 23470, Control_c, 9, 123, 0
12, 23474, Note_on_c, 9, 53, 0
12, 23475, Control_c, 9, 123, 0
12, 23476, Note_on_c, 9, 61, 0
12, 23490, Note_on_c, 9, 63, 98
12, 23490, Note_on_c, 9, 53, 78
12, 23498, Control_c, 9, 123, 0
12, 23508, Note_on_c, 9, 63, 0
12, 23511, Note_on_c, 9, 53, 0
12, 23512, Control_c, 9, 123, 0
12, 23520, Note_on_c, 9, 60, 89
12, 23520, Note_on_c, 9, 56, 82
12, 23531, Control_c, 9, 123, 0
12, 23538, Note_on_c, 9, 56, 0
12, 23539, Note_on_c, 9, 60, 0
12, 23543, Control_c, 9, 123, 0
12, 23550, Note_on_c, 9, 62, 74
12, 23558, Control_c, 9, 123, 0
12, 23568, Note_on_c, 9, 62, 0
12, 23580, Note_on_c, 9, 60, 65
12, 23588, Control_c, 9, 123, 0
12, 23595, Note_on_c, 9, 60, 0
12, 23610, Note_on_c, 9, 62, 78
12, 23616, Control_c, 9, 123, 0
12, 23628, Note_on_c, 9, 62, 0
12, 23640, Note_on_c, 9, 60, 84
12, 23640, Note_on_c, 9, 56, 92
12, 23659, Note_on_c, 9, 56, 0
12, 23659, Control_c, 9, 123, 0
12, 23662, Control_c, 9, 123, 0
12, 23668, Note_on_c, 9, 60, 0
12, 23670, Note_on_c, 9, 62, 76
12, 23682, Control_c, 9, 123, 0
12, 23691, Note_on_c, 9, 62, 0
12, 23700, Note_on_c, 9, 53, 58
12, 23700, Note_on_c, 9, 61, 82
12, 23712, Control_c, 9, 123, 0
12, 23713, Control_c, 9, 123, 0
12, 23715, Note_on_c, 9, 53, 0
12, 23718, Note_on_c, 9, 61, 0
12, 23730, Note_on_c, 9, 53, 76
12, 23730, Note_on_c, 9, 63, 98
12, 23739, Control_c, 9, 123, 0
12, 23747, Note_on_c, 9, 63, 0
12, 23752, Control_c, 9, 123, 0
12, 23753, Note_on_c, 9, 53, 0
12, 23760, Note_on_c, 9, 56, 98
12, 23779, Note_on_c, 9, 56, 0
12, 23786, Control_c, 9, 123, 0
12, 23790, Note_on_c, 9, 62, 92
12, 23801, Control_c, 9, 123, 0
12, 23808, Note_on_c, 9, 62, 0
12, 23850, Note_on_c, 9, 62, 80
12, 23861, Control_c, 9, 123, 0
12, 23869, Note_on_c, 9, 62, 0
12, 23880, Note_on_c, 9, 60, 101
12, 23880, Note_on_c, 9, 56, 98
12, 23894, Control_c, 9, 123, 0
12, 23900, Note_on_c, 9, 56, 0
12, 23902, Note_on_c, 9, 60, 0
12, 23904, Control_c, 9, 123, 0
12, 23910, Note_on_c, 9, 62, 80
12, 23923, Control_c, 9, 123, 0
12, 23929, Note_on_c, 9, 62, 0
12, 23940, Note_on_c, 9, 61, 98
12, 23940, Note_on_c, 9, 53, 55
12, 23949, Note_on_c, 9, 53, 0
12, 23951, Control_c, 9, 123, 0
12, 23952, Control_c, 9, 123, 0
12, 23956, Note_on_c, 9, 61, 0
12, 23970, Note_on_c, 9, 63, 98
12, 23970, Note_on_c, 9, 53, 71
12, 23982, Control_c, 9, 123, 0
12, 23988, Note_on_c, 9, 63, 0
12, 23989, Note_on_c, 9, 53, 0
12, 23990, Control_c, 9, 123, 0
12, 24000, Note_on_c, 9, 56, 98
12, 24000, Note_on_c, 9, 51, 87
12, 24000, Note_on_c, 9, 42, 92
12, 24017, Control_c, 9, 123, 0
12, 24019, Note_on_c, 9, 56, 0
12, 24025, Note_on_c, 9, 42, 0
12, 24027, Note_on_c, 9, 51, 0
12, 24030, Control_c, 9, 123, 0
12, 24031, Control_c, 9, 123, 0
12, 24120, Note_on_c, 9, 42, 98
12, 24146, Note_on_c, 9, 42, 0
12, 24149, Control_c, 9, 123, 0
12, 24240, Note_on_c, 9, 42, 110
12, 24264, Note_on_c, 9, 42, 0
12, 24269, Control_c, 9, 123, 0
12, 24300, Note_on_c, 9, 51, 72
12, 24317, Control_c, 9, 123, 0
12, 24324, Note_on_c, 9, 51, 0
12, 24355, Note_on_c, 9, 42, 118
12, 24380, Note_on_c, 9, 42, 0
12, 24380, Control_c, 9, 123, 0
12, 24476, Note_on_c, 9, 42, 104
12, 24483, Note_on_c, 9, 51, 104
12, 24499, Note_on_c, 9, 42, 0
12, 24499, Control_c, 9, 123, 0
12, 24508, Note_on_c, 9, 51, 0
12, 24508, Control_c, 9, 123, 0
12, 24601, Note_on_c, 9, 42, 110
12, 24622, Note_on_c, 9, 42, 0
12, 24622, Control_c, 9, 123, 0
12, 24718, Note_on_c, 9, 42, 110
12, 24739, Note_on_c, 9, 42, 0
12, 24739, Control_c, 9, 123, 0
12, 24782, Note_on_c, 9, 51, 92
12, 24808, Note_on_c, 9, 51, 0
12, 24808, Control_c, 9, 123, 0
12, 24842, Note_on_c, 9, 42, 110
12, 24863, Note_on_c, 9, 42, 0
12, 24864, Control_c, 9, 123, 0
12, 24955, Note_on_c, 9, 42, 104
12, 24958, Note_on_c, 9, 51, 104
12, 24979, Note_on_c, 9, 42, 0
12, 24979, Control_c, 9, 123, 0
12, 24980, Note_on_c, 9, 51, 0
12, 24980, Control_c, 9, 123, 0
12, 25077, Note_on_c, 9, 42, 110
12, 25100, Note_on_c, 9, 42, 0
12, 25100, Control_c, 9, 123, 0
12, 25196, Note_on_c, 9, 42, 104
12, 25219, Note_on_c, 9, 42, 0
12, 25219, Control_c, 9, 123, 0
12, 25266, Note_on_c, 9, 51, 98
12, 25289, Note_on_c, 9, 51, 0
12, 25289, Control_c, 9, 123, 0
12, 25319, Note_on_c, 9, 42, 104
12, 25343, Note_on_c, 9, 42, 0
12, 25343, Control_c, 9, 123, 0
12, 25439, Note_on_c, 9, 42, 118
12, 25442, Note_on_c, 9, 51, 98
12, 25462, Note_on_c, 9, 42, 0
12, 25462, Control_c, 9, 123, 0
12, 25464, Note_on_c, 9, 51, 0
12, 25464, Control_c, 9, 123, 0
12, 25557, Note_on_c, 9, 42, 118
12, 25579, Note_on_c, 9, 42, 0
12, 25579, Control_c, 9, 123, 0
12, 25679, Note_on_c, 9, 42, 110
12, 25701, Note_on_c, 9, 42, 0
12, 25701, Control_c, 9, 123, 0
12, 25737, Note_on_c, 9, 51, 92
12, 25759, Note_on_c, 9, 51, 0
12, 25759, Control_c, 9, 123, 0
12, 25801, Note_on_c, 9, 42, 104
12, 25824, Note_on_c, 9, 42, 0
12, 25824, Control_c, 9, 123, 0
12, 25914, Note_on_c, 9, 51, 98
12, 25920, Note_on_c, 9, 42, 110
12, 25937, Note_on_c, 9, 51, 0
12, 25937, Control_c, 9, 123, 0
12, 25942, Note_on_c, 9, 42, 0
12, 25942, Control_c, 9, 123, 0
12, 26037, Note_on_c, 9, 42, 104
12, 26059, Note_on_c, 9, 42, 0
12, 26060, Control_c, 9, 123, 0
12, 26158, Note_on_c, 9, 42, 110
12, 26180, Note_on_c, 9, 42, 0
12, 26180, Control_c, 9, 123, 0
12, 26224, Note_on_c, 9, 51, 92
12, 26247, Note_on_c, 9, 51, 0
12, 26247, Control_c, 9, 123, 0
12, 26279, Note_on_c, 9, 42, 98
12, 26301, Note_on_c, 9, 42, 0
12, 26301, Control_c, 9, 123, 0
12, 26401, Note_on_c, 9, 51, 98
12, 26404, Note_on_c, 9, 42, 110
12, 26424, Note_on_c, 9, 51, 0
12, 26425, Note_on_c, 9, 42, 0
12, 26425, Control_c, 9, 123, 0
12, 26425, Control_c, 9, 123, 0
12, 26522, Note_on_c, 9, 42, 98
12, 26548, Note_on_c, 9, 42, 0
12, 26548, Control_c, 9, 123, 0
12, 26640, Note_on_c, 9, 42, 104
12, 26663, Note_on_c, 9, 42, 0
12, 26663, Control_c, 9, 123, 0
12, 26703, Note_on_c, 9, 51, 98
12, 26724, Note_on_c, 9, 51, 0
12, 26724, Control_c, 9, 123, 0
12, 26762, Note_on_c, 9, 42, 104
12, 26785, Note_on_c, 9, 42, 0
12, 26785, Control_c, 9, 123, 0
12, 26876, Note_on_c, 9, 51, 98
12, 26879, Note_on_c, 9, 42, 110
12, 26898, Note_on_c, 9, 51, 0
12, 26898, Control_c, 9, 123, 0
12, 26901, Note_on_c, 9, 42, 0
12, 26902, Control_c, 9, 123, 0
12, 27000, Note_on_c, 9, 42, 104
12, 27024, Note_on_c, 9, 42, 0
12, 27024, Control_c, 9, 123, 0
12, 27121, Note_on_c, 9, 42, 98
12, 27143, Note_on_c, 9, 42, 0
12, 27143, Control_c, 9, 123, 0
12, 27183, Note_on_c, 9, 51, 98
12, 27206, Note_on_c, 9, 51, 0
12, 27206, Control_c, 9, 123, 0
12, 27243, Note_on_c, 9, 42, 110
12, 27266, Note_on_c, 9, 42, 0
12, 27266, Control_c, 9, 123, 0
12, 27357, Note_on_c, 9, 51, 110
12, 27359, Note_on_c, 9, 42, 104
12, 27380, Note_on_c, 9, 51, 0
12, 27380, Control_c, 9, 123, 0
12, 27382, Note_on_c, 9, 42, 0
12, 27382, Control_c, 9, 123, 0
12, 27482, Note_on_c, 9, 42, 110
12, 27501, Note_on_c, 9, 42, 0
12, 27501, Control_c, 9, 123, 0
12, 27601, Note_on_c, 9, 42, 104
12, 27621, Note_on_c, 9, 42, 0
12, 27621, Control_c, 9, 123, 0
12, 27655, Note_on_c, 9, 51, 118
12, 27678, Note_on_c, 9, 51, 0
12, 27679, Control_c, 9, 123, 0
12, 27720, Note_on_c, 9, 42, 110
12, 27745, Note_on_c, 9, 42, 0
12, 27745, Control_c, 9, 123, 0
12, 27837, Note_on_c, 9, 51, 104
12, 27839, Note_on_c, 9, 42, 104
12, 27841, Note_on_c, 9, 42, 110
12, 27857, Note_on_c, 9, 51, 0
12, 27857, Control_c, 9, 123, 0
12, 27859, Note_on_c, 9, 42, 0
12, 27859, Control_c, 9, 123, 0
12, 27868, Note_on_c, 9, 42, 0
12, 27868, Control_c, 9, 123, 0
12, 27963, Note_on_c, 9, 42, 98
12, 27987, Note_on_c, 9, 42, 0
12, 27987, Control_c, 9, 123, 0
12, 28082, Note_on_c, 9, 42, 118
12, 28105, Note_on_c, 9, 42, 0
12, 28105, Control_c, 9, 123, 0
12, 28203, Note_on_c, 9, 42, 118
12, 28222, Note_on_c, 9, 42, 0
12, 28223, Control_c, 9, 123, 0
12, 28325, Note_on_c, 9, 42, 110
12, 28347, Note_on_c, 9, 42, 0
12, 28347, Control_c, 9, 123, 0
12, 28443, Note_on_c, 9, 42, 118
12, 28464, Note_on_c, 9, 42, 0
12, 28464, Control_c, 9, 123, 0
12, 28557, Note_on_c, 9, 42, 104
12, 28579, Note_on_c, 9, 42, 0
12, 28579, Control_c, 9, 123, 0
12, 28678, Note_on_c, 9, 42, 110
12, 28700, Note_on_c, 9, 42, 0
12, 28700, Control_c, 9, 123, 0
12, 28802, Note_on_c, 9, 42, 110
12, 28822, Note_on_c, 9, 42, 0
12, 28822, Control_c, 9, 123, 0
12, 28919, Note_on_c, 9, 42, 110
12, 28940, Note_on_c, 9, 42, 0
12, 28940, Control_c, 9, 123, 0
12, 29038, Note_on_c, 9, 42, 110
12, 29059, Note_on_c, 9, 42, 0
12, 29059, Control_c, 9, 123, 0
12, 29157, Note_on_c, 9, 42, 104
12, 29177, Note_on_c, 9, 42, 0
12, 29177, Control_c, 9, 123, 0
12, 29281, Note_on_c, 9, 42, 110
12, 29301, Note_on_c, 9, 42, 0
12, 29301, Control_c, 9, 123, 0
12, 29400, Note_on_c, 9, 42, 104
12, 29420, Note_on_c, 9, 42, 0
12, 29420, Control_c, 9, 123, 0
12, 29521, Note_on_c, 9, 42, 118
12, 29543, Note_on_c, 9, 42, 0
12, 29543, Control_c, 9, 123, 0
12, 29644, Note_on_c, 9, 42, 104
12, 29665, Note_on_c, 9, 42, 0
12, 29665, Control_c, 9, 123, 0
12, 29765, Note_on_c, 9, 42, 104
12, 29786, Note_on_c, 9, 42, 0
12, 29786, Control_c, 9, 123, 0
12, 29878, Note_on_c, 9, 42, 110
12, 29901, Note_on_c, 9, 42, 0
12, 29901, Control_c, 9, 123, 0
12, 30000, Note_on_c, 9, 42, 98
12, 30020, Note_on_c, 9, 42, 0
12, 30020, Control_c, 9, 123, 0
12, 30119, Note_on_c, 9, 42, 98
12, 30141, Note_on_c, 9, 42, 0
12, 30141, Control_c, 9, 123, 0
12, 30242, Note_on_c, 9, 42, 98
12, 30263, Note_on_c, 9, 42, 0
12, 30263, Control_c, 9, 123, 0
12, 30358, Note_on_c, 9, 42, 104
12, 30379, Note_on_c, 9, 42, 0
12, 30380, Control_c, 9, 123, 0
12, 30479, Note_on_c, 9, 42, 104
12, 30500, Note_on_c, 9, 42, 0
12, 30500, Control_c, 9, 123, 0
12, 30600, Note_on_c, 9, 42, 104
12, 30623, Note_on_c, 9, 42, 0
12, 30623, Control_c, 9, 123, 0
12, 30720, Note_on_c, 9, 42, 98
12, 30743, Note_on_c, 9, 42, 0
12, 30744, Control_c, 9, 123, 0
12, 30837, Note_on_c, 9, 42, 87
12, 30858, Note_on_c, 9, 42, 0
12, 30858, Control_c, 9, 123, 0
12, 30962, Note_on_c, 9, 42, 104
12, 30984, Note_on_c, 9, 42, 0
12, 30984, Control_c, 9, 123, 0
12, 31080, Note_on_c, 9, 42, 92
12, 31103, Note_on_c, 9, 42, 0
12, 31103, Control_c, 9, 123, 0
12, 31202, Note_on_c, 9, 42, 104
12, 31224, Note_on_c, 9, 42, 0
12, 31224, Control_c, 9, 123, 0
12, 31315, Note_on_c, 9, 42, 104
12, 31340, Note_on_c, 9, 42, 0
12, 31340, Control_c, 9, 123, 0
12, 31436, Note_on_c, 9, 42, 98
12, 31459, Note_on_c, 9, 42, 0
12, 31459, Control_c, 9, 123, 0
12, 31559, Note_on_c, 9, 42, 118
12, 31585, Note_on_c, 9, 42, 0
12, 31585, Control_c, 9, 123, 0
12, 31681, Note_on_c, 9, 42, 104
12, 31701, Note_on_c, 9, 42, 0
12, 31701, Control_c, 9, 123, 0
12, 35520, Note_on_c, 9, 56, 61
12, 35549, Note_on_c, 9, 56, 0
12, 35549, Control_c, 9, 123, 0
12, 35640, Note_on_c, 9, 60, 101
12, 35640, Note_on_c, 9, 56, 78
12, 35662, Note_on_c, 9, 60, 0
12, 35662, Note_on_c, 9, 56, 0
12, 35665, Control_c, 9, 123, 0
12, 35667, Control_c, 9, 123, 0
12, 35670, Note_on_c, 9, 62, 69
12, 35691, Note_on_c, 9, 62, 0
12, 35696, Control_c, 9, 123, 0
12, 35700, Note_on_c, 9, 61, 61
12, 35717, Note_on_c, 9, 61, 0
12, 35720, Control_c, 9, 123, 0
12, 35730, Note_on_c, 9, 63, 92
12, 35749, Note_on_c, 9, 63, 0
12, 35753, Control_c, 9, 123, 0
12, 35760, Note_on_c, 9, 60, 54
12, 35760, Note_on_c, 9, 56, 82
12, 35770, Note_on_c, 9, 60, 0
12, 35773, Control_c, 9, 123, 0
12, 35778, Note_on_c, 9, 56, 0
12, 35781, Control_c, 9, 123, 0
12, 35790, Note_on_c, 9, 62, 109
12, 35808, Note_on_c, 9, 62, 0
12, 35811, Control_c, 9, 123, 0
12, 35850, Note_on_c, 9, 62, 56
12, 35850, Note_on_c, 9, 53, 36
12, 35868, Note_on_c, 9, 62, 0
12, 35869, Control_c, 9, 123, 0
12, 35877, Note_on_c, 9, 53, 0
12, 35878, Control_c, 9, 123, 0
12, 35880, Note_on_c, 9, 60, 95
12, 35880, Note_on_c, 9, 56, 87
12, 35899, Note_on_c, 9, 56, 0
12, 35902, Control_c, 9, 123, 0
12, 35903, Note_on_c, 9, 60, 0
12, 35907, Control_c, 9, 123, 0
12, 35910, Note_on_c, 9, 62, 71
12, 35933, Note_on_c, 9, 62, 0
12, 35934, Control_c, 9, 123, 0
12, 35940, Note_on_c, 9, 53, 37
12, 35940, Note_on_c, 9, 61, 72
12, 35954, Control_c, 9, 123, 0
12, 35956, Note_on_c, 9, 53, 0
12, 35956, Note_on_c, 9, 61, 0
12, 35959, Control_c, 9, 123, 0
12, 35970, Note_on_c, 9, 63, 104
12, 35970, Note_on_c, 9, 53, 55
12, 35989, Note_on_c, 9, 63, 0
12, 35991, Control_c, 9, 123, 0
12, 35994, Note_on_c, 9, 53, 0
12, 35995, Control_c, 9, 123, 0
12, 36000, Note_on_c, 9, 56, 87
12, 36019, Note_on_c, 9, 56, 0
12, 36019, Control_c, 9, 123, 0
12, 36120, Note_on_c, 9, 60, 101
12, 36120, Note_on_c, 9, 56, 98
12, 36141, Note_on_c, 9, 56, 0
12, 36142, Note_on_c, 9, 60, 0
12, 36142, Control_c, 9, 123, 0
12, 36144, Control_c, 9, 123, 0
12, 36150, Note_on_c, 9, 62, 89
12, 36170, Note_on_c, 9, 62, 0
12, 36172, Control_c, 9, 123, 0
12, 36180, Note_on_c, 9, 61, 59
12, 36195, Note_on_c, 9, 61, 0
12, 36199, Control_c, 9, 123, 0
12, 36210, Note_on_c, 9, 63, 92
12, 36229, Note_on_c, 9, 63, 0
12, 36231, Control_c, 9, 123, 0
12, 36240, Note_on_c, 9, 56, 98
12, 36260, Note_on_c, 9, 56, 0
12, 36263, Control_c, 9, 123, 0
12, 36270, Note_on_c, 9, 62, 98
12, 36289, Note_on_c, 9, 62, 0
12, 36290, Control_c, 9, 123, 0
12, 36330, Note_on_c, 9, 62, 72
12, 36347, Control_c, 9, 123, 0
12, 36348, Note_on_c, 9, 62, 0
12, 36360, Note_on_c, 9, 60, 105
12, 36360, Note_on_c, 9, 56, 98
12, 36379, Note_on_c, 9, 56, 0
12, 36380, Control_c, 9, 123, 0
12, 36383, Note_on_c, 9, 60, 0
12, 36385, Control_c, 9, 123, 0
12, 36390, Note_on_c, 9, 62, 87
12, 36409, Note_on_c, 9, 62, 0
12, 36410, Control_c, 9, 123, 0
12, 36420, Note_on_c, 9, 61, 69
12, 36439, Note_on_c, 9, 61, 0
12, 36441, Control_c, 9, 123, 0
12, 36450, Note_on_c, 9, 63, 87
12, 36470, Note_on_c, 9, 63, 0
12, 36473, Control_c, 9, 123, 0
12, 36480, Note_on_c, 9, 56, 98
12, 36498, Note_on_c, 9, 56, 0
12, 36500, Control_c, 9, 123, 0
12, 36570, Note_on_c, 9, 62, 74
12, 36583, Control_c, 9, 123, 0
12, 36588, Note_on_c, 9, 62, 0
12, 36600, Note_on_c, 9, 60, 109
12, 36600, Note_on_c, 9, 56, 98
12, 36618, Note_on_c, 9, 56, 0
12, 36621, Note_on_c, 9, 60, 0
12, 36622, Control_c, 9, 123, 0
12, 36622, Control_c, 9, 123, 0
12, 36630, Note_on_c, 9, 62, 82
12, 36649, Note_on_c, 9, 62, 0
12, 36649, Control_c, 9, 123, 0
12, 36660, Note_on_c, 9, 61, 67
12, 36676, Note_on_c, 9, 61, 0
12, 36680, Control_c, 9, 123, 0
12, 36690, Note_on_c, 9, 63, 98
12, 36709, Note_on_c, 9, 63, 0
12, 36711, Control_c, 9, 123, 0
12, 36720, Note_on_c, 9, 56, 98
12, 36740, Note_on_c, 9, 56, 0
12, 36742, Control_c, 9, 123, 0
12, 36750, Note_on_c, 9, 62, 98
12, 36770, Note_on_c, 9, 62, 0
12, 36770, Control_c, 9, 123, 0
12, 36780, Note_on_c, 9, 53, 41
12, 36786, Control_c, 9, 123, 0
12, 36793, Note_on_c, 9, 53, 0
12, 36810, Note_on_c, 9, 53, 48
12, 36810, Note_on_c, 9, 62, 65
12, 36827, Note_on_c, 9, 62, 0
12, 36828, Control_c, 9, 123, 0
12, 36833, Control_c, 9, 123, 0
12, 36837, Note_on_c, 9, 53, 0
12, 36840, Note_on_c, 9, 60, 101
12, 36840, Note_on_c, 9, 56, 92
12, 36858, Note_on_c, 9, 56, 0
12, 36860, Note_on_c, 9, 60, 0
12, 36863, Control_c, 9, 123, 0
12, 36864, Control_c, 9, 123, 0
12, 36870, Note_on_c, 9, 62, 84
12, 36891, Note_on_c, 9, 62, 0
12, 36891, Control_c, 9, 123, 0
12, 36900, Note_on_c, 9, 61, 61
12, 36912, Note_on_c, 9, 61, 0
12, 36915, Control_c, 9, 123, 0
12, 36930, Note_on_c, 9, 53, 49
12, 36930, Note_on_c, 9, 63, 78
12, 36949, Note_on_c, 9, 63, 0
12, 36951, Control_c, 9, 123, 0
12, 36953, Note_on_c, 9, 53, 0
12, 36953, Control_c, 9, 123, 0
12, 36960, Note_on_c, 9, 60, 82
12, 36960, Note_on_c, 9, 56, 98
12, 36975, Note_on_c, 9, 60, 0
12, 36977, Note_on_c, 9, 56, 0
12, 36979, Control_c, 9, 123, 0
12, 36979, Control_c, 9, 123, 0
12, 36990, Note_on_c, 9, 62, 84
12, 37005, Note_on_c, 9, 62, 0
12, 37007, Control_c, 9, 123, 0
12, 37050, Note_on_c, 9, 62, 76
12, 37068, Note_on_c, 9, 62, 0
12, 37068, Control_c, 9, 123, 0
12, 37080, Note_on_c, 9, 56, 92
12, 37080, Note_on_c, 9, 60, 95
12, 37099, Note_on_c, 9, 60, 0
12, 37099, Control_c, 9, 123, 0
12, 37100, Note_on_c, 9, 56, 0
12, 37102, Control_c, 9, 123, 0
12, 37110, Note_on_c, 9, 62, 87
12, 37128, Note_on_c, 9, 62, 0
12, 37128, Control_c, 9, 123, 0
12, 37140, Note_on_c, 9, 61, 72
12, 37153, Note_on_c, 9, 61, 0
12, 37156, Control_c, 9, 123, 0
12, 37170, Note_on_c, 9, 63, 92
12, 37187, Note_on_c, 9, 63, 0
12, 37187, Control_c, 9, 123, 0
12, 37200, Note_on_c, 9, 56, 92
12, 37219, Note_on_c, 9, 56, 0
12, 37219, Control_c, 9, 123, 0
12, 37230, Note_on_c, 9, 62, 89
12, 37248, Note_on_c, 9, 62, 0
12, 37248, Control_c, 9, 123, 0
12, 37260, Note_on_c, 9, 53, 51
12, 37275, Control_c, 9, 123, 0
12, 37277, Note_on_c, 9, 53, 0
12, 37290, Note_on_c, 9, 53, 55
12, 37290, Note_on_c, 9, 62, 80
12, 37305, Note_on_c, 9, 62, 0
12, 37305, Control_c, 9, 123, 0
12, 37312, Note_on_c, 9, 53, 0
12, 37313, Control_c, 9, 123, 0
12, 37320, Note_on_c, 9, 60, 105
12, 37320, Note_on_c, 9, 56, 92
12, 37337, Note_on_c, 9, 56, 0
12, 37339, Control_c, 9, 123, 0
12, 37341, Note_on_c, 9, 60, 0
12, 37343, Control_c, 9, 123, 0
12, 37350, Note_on_c, 9, 62, 87
12, 37371, Note_on_c, 9, 62, 0
12, 37371, Control_c, 9, 123, 0
12, 37380, Note_on_c, 9, 61, 78
12, 37380, Note_on_c, 9, 53, 46
12, 37395, Note_on_c, 9, 61, 0
12, 37397, Control_c, 9, 123, 0
12, 37398, Note_on_c, 9, 53, 0
12, 37401, Control_c, 9, 123, 0
12, 37410, Note_on_c, 9, 63, 92
12, 37410, Note_on_c, 9, 53, 60
12, 37429, Control_c, 9, 123, 0
12, 37430, Note_on_c, 9, 63, 0
12, 37440, Note_on_c, 9, 53, 0
12, 37440, Note_on_c, 9, 60, 101
12, 37440, Note_on_c, 9, 56, 98
12, 37443, Control_c, 9, 123, 0
12, 37456, Note_on_c, 9, 56, 0
12, 37457, Control_c, 9, 123, 0
12, 37460, Note_on_c, 9, 60, 0
12, 37463, Control_c, 9, 123, 0
12, 37470, Note_on_c, 9, 62, 84
12, 37489, Note_on_c, 9, 62, 0
12, 37489, Control_c, 9, 123, 0
12, 37500, Note_on_c, 9, 60, 57
12, 37513, Note_on_c, 9, 60, 0
12, 37517, Control_c, 9, 123, 0
12, 37530, Note_on_c, 9, 62, 80
12, 37547, Control_c, 9, 123, 0
12, 37548, Note_on_c, 9, 62, 0
12, 37560, Note_on_c, 9, 60, 101
12, 37560, Note_on_c, 9, 56, 92
12, 37576, Note_on_c, 9, 56, 0
12, 37581, Control_c, 9, 123, 0
12, 37582, Note_on_c, 9, 60, 0
12, 37584, Control_c, 9, 123, 0
12, 37590, Note_on_c, 9, 62, 87
12, 37611, Control_c, 9, 123, 0
12, 37612, Note_on_c, 9, 62, 0
12, 37620, Note_on_c, 9, 61, 72
12, 37636, Note_on_c, 9, 61, 0
12, 37637, Control_c, 9, 123, 0
12, 37650, Note_on_c, 9, 63, 98
12, 37668, Note_on_c, 9, 63, 0
12, 37669, Control_c, 9, 123, 0
12, 37680, Note_on_c, 9, 56, 92
12, 37697, Note_on_c, 9, 56, 0
12, 37699, Control_c, 9, 123, 0
12, 37710, Note_on_c, 9, 62, 105
12, 37727, Note_on_c, 9, 62, 0
12, 37727, Control_c, 9, 123, 0
12, 37770, Note_on_c, 9, 62, 80
12, 37785, Control_c, 9, 123, 0
12, 37787, Note_on_c, 9, 62, 0
12, 37800, Note_on_c, 9, 56, 92
12, 37800, Note_on_c, 9, 60, 105
12, 37817, Control_c, 9, 123, 0
12, 37819, Note_on_c, 9, 56, 0
12, 37823, Note_on_c, 9, 60, 0
12, 37823, Control_c, 9, 123, 0
12, 37830, Note_on_c, 9, 62, 82
12, 37848, Note_on_c, 9, 62, 0
12, 37848, Control_c, 9, 123, 0
12, 37860, Note_on_c, 9, 61, 72
12, 37877, Note_on_c, 9, 61, 0
12, 37877, Control_c, 9, 123, 0
12, 37890, Note_on_c, 9, 63, 82
12, 37907, Control_c, 9, 123, 0
12, 37909, Note_on_c, 9, 63, 0
12, 37920, Note_on_c, 9, 56, 92
12, 37920, Note_on_c, 9, 60, 105
12, 37937, Note_on_c, 9, 56, 0
12, 37937, Control_c, 9, 123, 0
12, 37940, Note_on_c, 9, 60, 0
12, 37940, Control_c, 9, 123, 0
12, 37950, Note_on_c, 9, 62, 69
12, 37966, Control_c, 9, 123, 0
12, 37969, Note_on_c, 9, 62, 0
12, 37980, Note_on_c, 9, 60, 60
12, 37995, Note_on_c, 9, 60, 0
12, 37997, Control_c, 9, 123, 0
12, 38010, Note_on_c, 9, 62, 72
12, 38028, Note_on_c, 9, 62, 0
12, 38028, Control_c, 9, 123, 0
12, 38040, Note_on_c, 9, 60, 101
12, 38040, Note_on_c, 9, 56, 78
12, 38059, Note_on_c, 9, 56, 0
12, 38061, Note_on_c, 9, 60, 0
12, 38062, Control_c, 9, 123, 0
12, 38064, Control_c, 9, 123, 0
12, 38070, Note_on_c, 9, 62, 84
12, 38090, Note_on_c, 9, 62, 0
12, 38090, Control_c, 9, 123, 0
12, 38100, Note_on_c, 9, 61, 75
12, 38117, Note_on_c, 9, 61, 0
12, 38117, Control_c, 9, 123, 0
12, 38130, Note_on_c, 9, 63, 98
12, 38148, Note_on_c, 9, 63, 0
12, 38149, Control_c, 9, 123, 0
12, 38160, Note_on_c, 9, 56, 87
12, 38176, Note_on_c, 9, 56, 0
12, 38176, Control_c, 9, 123, 0
12, 38190, Note_on_c, 9, 62, 98
12, 38208, Note_on_c, 9, 62, 0
12, 38209, Control_c, 9, 123, 0
12, 38220, Note_on_c, 9, 53, 40
12, 38236, Note_on_c, 9, 53, 0
12, 38238, Control_c, 9, 123, 0
12, 38250, Note_on_c, 9, 62, 84
12, 38250, Note_on_c, 9, 53, 61
12, 38266, Note_on_c, 9, 62, 0
12, 38266, Control_c, 9, 123, 0
12, 38280, Note_on_c, 9, 53, 0
12, 38280, Note_on_c, 9, 60, 98
12, 38280, Note_on_c, 9, 56, 92
12, 38282, Control_c, 9, 123, 0
12, 38297, Note_on_c, 9, 56, 0
12, 38300, Control_c, 9, 123, 0
12, 38302, Note_on_c, 9, 60, 0
12, 38303, Control_c, 9, 123, 0
12, 38310, Note_on_c, 9, 62, 80
12, 38331, Note_on_c, 9, 62, 0
12, 38333, Control_c, 9, 123, 0
12, 38340, Note_on_c, 9, 61, 69
12, 38340, Note_on_c, 9, 53, 52
12, 38355, Note_on_c, 9, 53, 0
12, 38357, Note_on_c, 9, 61, 0
12, 38358, Control_c, 9, 123, 0
12, 38359, Control_c, 9, 123, 0
12, 38370, Note_on_c, 9, 63, 82
12, 38370, Note_on_c, 9, 53, 61
12, 38388, Note_on_c, 9, 63, 0
12, 38388, Control_c, 9, 123, 0
12, 38397, Note_on_c, 9, 53, 0
12, 38399, Control_c, 9, 123, 0
12, 38400, Note_on_c, 9, 56, 92
12, 38400, Note_on_c, 9, 60, 92
12, 38417, Note_on_c, 9, 56, 0
12, 38417, Control_c, 9, 123, 0
12, 38420, Note_on_c, 9, 60, 0
12, 38422, Control_c, 9, 123, 0
12, 38430, Note_on_c, 9, 62, 72
12, 38446, Note_on_c, 9, 62, 0
12, 38447, Control_c, 9, 123, 0
12, 38460, Note_on_c, 9, 60, 58
12, 38476, Note_on_c, 9, 60, 0
12, 38479, Control_c, 9, 123, 0
12, 38490, Note_on_c, 9, 62, 84
12, 38506, Note_on_c, 9, 62, 0
12, 38506, Control_c, 9, 123, 0
12, 38520, Note_on_c, 9, 60, 95
12, 38520, Note_on_c, 9, 56, 92
12, 38538, Note_on_c, 9, 56, 0
12, 38543, Control_c, 9, 123, 0
12, 38546, Note_on_c, 9, 60, 0
12, 38547, Control_c, 9, 123, 0
12, 38550, Note_on_c, 9, 62, 89
12, 38571, Note_on_c, 9, 62, 0
12, 38571, Control_c, 9, 123, 0
12, 38580, Note_on_c, 9, 61, 72
12, 38595, Note_on_c, 9, 61, 0
12, 38597, Control_c, 9, 123, 0
12, 38610, Note_on_c, 9, 63, 110
12, 38630, Note_on_c, 9, 63, 0
12, 38630, Control_c, 9, 123, 0
12, 38640, Note_on_c, 9, 56, 87
12, 38657, Note_on_c, 9, 56, 0
12, 38659, Control_c, 9, 123, 0
12, 38670, Note_on_c, 9, 62, 105
12, 38670, Note_on_c, 9, 63, 47
12, 38673, Note_on_c, 9, 63, 0
12, 38687, Note_on_c, 9, 62, 0
12, 38689, Control_c, 9, 123, 0
12, 38730, Note_on_c, 9, 62, 82
12, 38745, Note_on_c, 9, 62, 0
12, 38745, Control_c, 9, 123, 0
12, 38760, Note_on_c, 9, 60, 101
12, 38760, Note_on_c, 9, 56, 92
12, 38775, Note_on_c, 9, 56, 0
12, 38778, Control_c, 9, 123, 0
12, 38782, Control_c, 9, 123, 0
12, 38783, Note_on_c, 9, 60, 0
12, 38790, Note_on_c, 9, 62, 78
12, 38809, Note_on_c, 9, 62, 0
12, 38809, Control_c, 9, 123, 0
12, 38820, Note_on_c, 9, 50, 84
12, 38820, Note_on_c, 9, 61, 65
12, 38822, Control_c, 9, 123, 0
12, 38826, Note_on_c, 9, 50, 0
12, 38835, Note_on_c, 9, 50, 69
12, 38837, Note_on_c, 9, 61, 0
12, 38838, Control_c, 9, 123, 0
12, 38841, Control_c, 9, 123, 0
12, 38846, Note_on_c, 9, 50, 0
12, 38850, Note_on_c, 9, 63, 87
12, 38873, Note_on_c, 9, 63, 0
12, 38873, Control_c, 9, 123, 0
12, 38880, Note_on_c, 9, 56, 92
12, 38880, Note_on_c, 9, 60, 98
12, 38880, Note_on_c, 9, 50, 109
12, 38895, Control_c, 9, 123, 0
12, 38896, Note_on_c, 9, 56, 0
12, 38898, Note_on_c, 9, 60, 0
12, 38899, Note_on_c, 9, 50, 0
12, 38902, Control_c, 9, 123, 0
12, 38905, Control_c, 9, 123, 0
12, 38910, Note_on_c, 9, 62, 87
12, 38928, Note_on_c, 9, 62, 0
12, 38929, Control_c, 9, 123, 0
12, 38940, Note_on_c, 9, 60, 58
12, 38956, Note_on_c, 9, 60, 0
12, 38959, Control_c, 9, 123, 0
12, 38970, Note_on_c, 9, 62, 82
12, 38970, Note_on_c, 9, 50, 72
12, 38978, Note_on_c, 9, 50, 0
12, 38981, Control_c, 9, 123, 0
12, 38990, Note_on_c, 9, 62, 0
12, 38991, Control_c, 9, 123, 0
12, 39000, Note_on_c, 9, 60, 98
12, 39000, Note_on_c, 9, 56, 92
12, 39018, Note_on_c, 9, 56, 0
12, 39021, Control_c, 9, 123, 0
12, 39022, Note_on_c, 9, 60, 0
12, 39025, Control_c, 9, 123, 0
12, 39030, Note_on_c, 9, 62, 78
12, 39050, Note_on_c, 9, 62, 0
12, 39050, Control_c, 9, 123, 0
12, 39060, Note_on_c, 9, 61, 78
12, 39077, Note_on_c, 9, 61, 0
12, 39079, Control_c, 9, 123, 0
12, 39090, Note_on_c, 9, 63, 104
12, 39108, Control_c, 9, 123, 0
12, 39109, Note_on_c, 9, 63, 0
12, 39120, Note_on_c, 9, 56, 87
12, 39135, Control_c, 9, 123, 0
12, 39137, Note_on_c, 9, 56, 0
12, 39150, Note_on_c, 9, 62, 101
12, 39168, Note_on_c, 9, 62, 0
12, 39169, Control_c, 9, 123, 0
12, 39210, Note_on_c, 9, 62, 80
12, 39227, Control_c, 9, 123, 0
12, 39228, Note_on_c, 9, 62, 0
12, 39240, Note_on_c, 9, 56, 92
12, 39240, Note_on_c, 9, 60, 98
12, 39256, Note_on_c, 9, 56, 0
12, 39256, Control_c, 9, 123, 0
12, 39264, Note_on_c, 9, 60, 0
12, 39264, Control_c, 9, 123, 0
12, 39270, Note_on_c, 9, 62, 78
12, 39290, Note_on_c, 9, 62, 0
12, 39291, Control_c, 9, 123, 0
12, 39300, Note_on_c, 9, 61, 75
12, 39316, Note_on_c, 9, 61, 0
12, 39319, Control_c, 9, 123, 0
12, 39330, Note_on_c, 9, 53, 72
12, 39330, Note_on_c, 9, 63, 92
12, 39348, Control_c, 9, 123, 0
12, 39350, Note_on_c, 9, 63, 0
12, 39353, Note_on_c, 9, 53, 0
12, 39353, Control_c, 9, 123, 0
12, 39360, Note_on_c, 9, 56, 92
12, 39360, Note_on_c, 9, 60, 87
12, 39376, Note_on_c, 9, 56, 0
12, 39376, Control_c, 9, 123, 0
12, 39378, Note_on_c, 9, 60, 0
12, 39380, Control_c, 9, 123, 0
12, 39390, Note_on_c, 9, 62, 84
12, 39407, Control_c, 9, 123, 0
12, 39408, Note_on_c, 9, 62, 0
12, 39420, Note_on_c, 9, 60, 61
12, 39433, Note_on_c, 9, 60, 0
12, 39436, Control_c, 9, 123, 0
12, 39450, Note_on_c, 9, 62, 76
12, 39466, Note_on_c, 9, 62, 0
12, 39468, Control_c, 9, 123, 0
12, 39480, Note_on_c, 9, 60, 105
12, 39480, Note_on_c, 9, 56, 98
12, 39499, Note_on_c, 9, 56, 0
12, 39500, Control_c, 9, 123, 0
12, 39502, Note_on_c, 9, 60, 0
12, 39504, Control_c, 9, 123, 0
12, 39510, Note_on_c, 9, 62, 82
12, 39530, Note_on_c, 9, 62, 0
12, 39530, Control_c, 9, 123, 0
12, 39540, Note_on_c, 9, 61, 69
12, 39555, Note_on_c, 9, 61, 0
12, 39557, Control_c, 9, 123, 0
12, 39570, Note_on_c, 9, 63, 98
12, 39587, Control_c, 9, 123, 0
12, 39588, Note_on_c, 9, 63, 0
12, 39600, Note_on_c, 9, 56, 98
12, 39618, Note_on_c, 9, 56, 0
12, 39622, Control_c, 9, 123, 0
12, 39630, Note_on_c, 9, 62, 105
12, 39647, Control_c, 9, 123, 0
12, 39648, Note_on_c, 9, 62, 0
12, 39690, Note_on_c, 9, 62, 84
12, 39704, Control_c, 9, 123, 0
12, 39707, Note_on_c, 9, 62, 0
12, 39720, Note_on_c, 9, 60, 101
12, 39720, Note_on_c, 9, 56, 104
12, 39737, Note_on_c, 9, 56, 0
12, 39742, Control_c, 9, 123, 0
12, 39744, Note_on_c, 9, 60, 0
12, 39745, Control_c, 9, 123, 0
12, 39750, Note_on_c, 9, 62, 84
12, 39769, Note_on_c, 9, 62, 0
12, 39769, Control_c, 9, 123, 0
12, 39780, Note_on_c, 9, 61, 82
12, 39796, Note_on_c, 9, 61, 0
12, 39797, Control_c, 9, 123, 0
12, 39810, Note_on_c, 9, 63, 92
12, 39827, Control_c, 9, 123, 0
12, 39829, Note_on_c, 9, 63, 0
12, 39840, Note_on_c, 9, 56, 98
12, 39840, Note_on_c, 9, 60, 78
12, 39855, Note_on_c, 9, 56, 0
12, 39855, Control_c, 9, 123, 0
12, 39858, Note_on_c, 9, 60, 0
12, 39859, Control_c, 9, 123, 0
12, 39870, Note_on_c, 9, 62, 87
12, 39883, Control_c, 9, 123, 0
12, 39886, Note_on_c, 9, 62, 0
12, 39900, Note_on_c, 9, 53, 58
12, 39900, Note_on_c, 9, 60, 61
12, 39914, Control_c, 9, 123, 0
12, 39915, Note_on_c, 9, 60, 0
12, 39930, Note_on_c, 9, 62, 82
12, 39930, Control_c, 9, 123, 0
12, 39932, Note_on_c, 9, 53, 0
12, 39942, Control_c, 9, 123, 0
12, 39946, Note_on_c, 9, 62, 0
12, 39960, Note_on_c, 9, 56, 98
12, 39960, Note_on_c, 9, 60, 105
12, 39979, Note_on_c, 9, 56, 0
12, 39979, Control_c, 9, 123, 0
12, 39980, Control_c, 9, 123, 0
12, 39982, Note_on_c, 9, 60, 0
12, 39990, Note_on_c, 9, 62, 87
12, 40003, Control_c, 9, 123, 0
12, 40007, Note_on_c, 9, 62, 0
12, 40020, Note_on_c, 9, 61, 72
12, 40020, Note_on_c, 9, 53, 52
12, 40033, Control_c, 9, 123, 0
12, 40036, Note_on_c, 9, 61, 0
12, 40050, Note_on_c, 9, 63, 104
12, 40055, Note_on_c, 9, 53, 0
12, 40058, Control_c, 9, 123, 0
12, 40063, Control_c, 9, 123, 0
12, 40069, Note_on_c, 9, 63, 0
12, 40080, Note_on_c, 9, 56, 98
12, 40098, Control_c, 9, 123, 0
12, 40099, Note_on_c, 9, 56, 0
12, 40110, Note_on_c, 9, 62, 92
12, 40125, Control_c, 9, 123, 0
12, 40129, Note_on_c, 9, 62, 0
12, 40140, Note_on_c, 9, 53, 55
12, 40153, Note_on_c, 9, 53, 0
12, 40155, Control_c, 9, 123, 0
12, 40170, Note_on_c, 9, 53, 72
12, 40170, Note_on_c, 9, 62, 84
12, 40181, Control_c, 9, 123, 0
12, 40189, Note_on_c, 9, 62, 0
12, 40199, Note_on_c, 9, 53, 0
12, 40199, Control_c, 9, 123, 0
12, 40200, Note_on_c, 9, 56, 92
12, 40200, Note_on_c, 9, 60, 101
12, 40218, Note_on_c, 9, 56, 0
12, 40218, Control_c, 9, 123, 0
12, 40222, Control_c, 9, 123, 0
12, 40228, Note_on_c, 9, 60, 0
12, 40230, Note_on_c, 9, 62, 84
12, 40247, Control_c, 9, 123, 0
12, 40251, Note_on_c, 9, 62, 0
12, 40260, Note_on_c, 9, 61, 82
12, 40260, Note_on_c, 9, 53, 46
12, 40272, Control_c, 9, 123, 0
12, 40274, Note_on_c, 9, 53, 0
12, 40276, Note_on_c, 9, 61, 0
12, 40277, Control_c, 9, 123, 0
12, 40290, Note_on_c, 9, 53, 65
12, 40290, Note_on_c, 9, 63, 92
12, 40302, Control_c, 9, 123, 0
12, 40309, Note_on_c, 9, 63, 0
12, 40320, Note_on_c, 9, 53, 0
12, 40320, Note_on_c, 9, 56, 98
12, 40320, Note_on_c, 9, 60, 89
12, 40320, Control_c, 9, 123, 0
12, 40334, Control_c, 9, 123, 0
12, 40337, Control_c, 9, 123, 0
12, 40338, Note_on_c, 9, 56, 0
12, 40338, Note_on_c, 9, 60, 0
12, 40350, Note_on_c, 9, 62, 89
12, 40356, Control_c, 9, 123, 0
12, 40366, Note_on_c, 9, 62, 0
12, 40380, Note_on_c, 9, 60, 65
12, 40386, Control_c, 9, 123, 0
12, 40396, Note_on_c, 9, 60, 0
12, 40410, Note_on_c, 9, 62, 68
12, 40416, Control_c, 9, 123, 0
12, 40429, Note_on_c, 9, 62, 0
12, 40440, Note_on_c, 9, 60, 105
12, 40440, Note_on_c, 9, 56, 92
12, 40451, Control_c, 9, 123, 0
12, 40457, Note_on_c, 9, 56, 0
12, 40458, Control_c, 9, 123, 0
12, 40462, Note_on_c, 9, 60, 0
12, 40470, Note_on_c, 9, 62, 76
12, 40481, Control_c, 9, 123, 0
12, 40490, Note_on_c, 9, 62, 0
12, 40500, Note_on_c, 9, 61, 82
12, 40511, Control_c, 9, 123, 0
12, 40518, Note_on_c, 9, 61, 0
12, 40530, Note_on_c, 9, 63, 92
12, 40540, Control_c, 9, 123, 0
12, 40550, Note_on_c, 9, 63, 0
12, 40560, Note_on_c, 9, 56, 98
12, 40579, Control_c, 9, 123, 0
12, 40580, Note_on_c, 9, 56, 0
12, 40590, Note_on_c, 9, 62, 84
12, 40602, Control_c, 9, 123, 0
12, 40608, Note_on_c, 9, 62, 0
12, 40620, Note_on_c, 9, 53, 53
12, 40635, Note_on_c, 9, 53, 0
12, 40638, Control_c, 9, 123, 0
12, 40650, Note_on_c, 9, 62, 78
12, 40650, Note_on_c, 9, 53, 61
12, 40661, Control_c, 9, 123, 0
12, 40668, Note_on_c, 9, 62, 0
12, 40672, Note_on_c, 9, 53, 0
12, 40674, Control_c, 9, 123, 0
12, 40680, Note_on_c, 9, 56, 92
12, 40680, Note_on_c, 9, 60, 109
12, 40697, Control_c, 9, 123, 0
12, 40699, Note_on_c, 9, 56, 0
12, 40699, Control_c, 9, 123, 0
12, 40702, Note_on_c, 9, 60, 0
12, 40710, Note_on_c, 9, 62, 82
12, 40726, Control_c, 9, 123, 0
12, 40730, Note_on_c, 9, 62, 0
12, 40740, Note_on_c, 9, 61, 72
12, 40740, Note_on_c, 9, 53, 46
12, 40748, Note_on_c, 9, 53, 0
12, 40751, Control_c, 9, 123, 0
12, 40754, Control_c, 9, 123, 0
12, 40756, Note_on_c, 9, 61, 0
12, 40770, Note_on_c, 9, 63, 92
12, 40770, Note_on_c, 9, 53, 72
12, 40785, Control_c, 9, 123, 0
12, 40789, Note_on_c, 9, 63, 0
12, 40794, Note_on_c, 9, 53, 0
12, 40796, Control_c, 9, 123, 0
12, 40800, Note_on_c, 9, 56, 92
12, 40800, Note_on_c, 9, 60, 92
12, 40816, Control_c, 9, 123, 0
12, 40817, Note_on_c, 9, 56, 0
12, 40818, Control_c, 9, 123, 0
12, 40821, Note_on_c, 9, 60, 0
12, 40830, Note_on_c, 9, 62, 84
12, 40840, Control_c, 9, 123, 0
12, 40845, Note_on_c, 9, 62, 0
12, 40860, Note_on_c, 9, 60, 71
12, 40873, Control_c, 9, 123, 0
12, 40878, Note_on_c, 9, 60, 0
12, 40890, Note_on_c, 9, 62, 82
12, 40903, Control_c, 9, 123, 0
12, 40908, Note_on_c, 9, 62, 0
12, 40920, Note_on_c, 9, 56, 92
12, 40920, Note_on_c, 9, 60, 98
12, 40937, Control_c, 9, 123, 0
12, 40938, Note_on_c, 9, 56, 0
12, 40939, Note_on_c, 9, 60, 0
12, 40939, Control_c, 9, 123, 0
12, 40950, Note_on_c, 9, 62, 80
12, 40964, Control_c, 9, 123, 0
12, 40969, Note_on_c, 9, 62, 0
12, 40980, Note_on_c, 9, 61, 78
12, 40993, Control_c, 9, 123, 0
12, 40998, Note_on_c, 9, 61, 0
12, 41010, Note_on_c, 9, 63, 98
12, 41023, Control_c, 9, 123, 0
12, 41030, Note_on_c, 9, 63, 0
12, 41040, Note_on_c, 9, 56, 98
12, 41055, Note_on_c, 9, 56, 0
12, 41060, Control_c, 9, 123, 0
12, 41070, Note_on_c, 9, 62, 101
12, 41081, Control_c, 9, 123, 0
12, 41087, Note_on_c, 9, 62, 0
12, 41100, Note_on_c, 9, 53, 58
12, 41114, Note_on_c, 9, 53, 0
12, 41119, Control_c, 9, 123, 0
12, 41130, Note_on_c, 9, 62, 89
12, 41130, Note_on_c, 9, 53, 65
12, 41144, Control_c, 9, 123, 0
12, 41146, Note_on_c, 9, 62, 0
12, 41151, Note_on_c, 9, 53, 0
12, 41156, Control_c, 9, 123, 0
12, 41160, Note_on_c, 9, 60, 101
12, 41160, Note_on_c, 9, 56, 98
12, 41176, Control_c, 9, 123, 0
12, 41177, Note_on_c, 9, 56, 0
12, 41181, Note_on_c, 9, 60, 0
12, 41182, Control_c, 9, 123, 0
12, 41190, Note_on_c, 9, 62, 82
12, 41205, Control_c, 9, 123, 0
12, 41210, Note_on_c, 9, 62, 0
12, 41220, Note_on_c, 9, 61, 82
12, 41220, Note_on_c, 9, 53, 64
12, 41233, Note_on_c, 9, 53, 0
12, 41234, Control_c, 9, 123, 0
12, 41237, Note_on_c, 9, 61, 0
12, 41237, Control_c, 9, 123, 0
12, 41250, Note_on_c, 9, 63, 87
12, 41250, Note_on_c, 9, 53, 68
12, 41262, Control_c, 9, 123, 0
12, 41268, Note_on_c, 9, 63, 0
12, 41269, Note_on_c, 9, 53, 0
12, 41273, Control_c, 9, 123, 0
12, 41280, Note_on_c, 9, 60, 84
12, 41280, Note_on_c, 9, 56, 92
12, 41295, Control_c, 9, 123, 0
12, 41297, Note_on_c, 9, 56, 0
12, 41299, Note_on_c, 9, 60, 0
12, 41299, Control_c, 9, 123, 0
12, 41310, Note_on_c, 9, 62, 87
12, 41319, Control_c, 9, 123, 0
12, 41326, Note_on_c, 9, 62, 0
12, 41340, Note_on_c, 9, 60, 53
12, 41346, Control_c, 9, 123, 0
12, 41351, Note_on_c, 9, 60, 0
12, 41370, Note_on_c, 9, 62, 76
12, 41377, Control_c, 9, 123, 0
12, 41386, Note_on_c, 9, 62, 0
12, 41400, Note_on_c, 9, 56, 98
12, 41400, Note_on_c, 9, 60, 105
12, 41413, Control_c, 9, 123, 0
12, 41418, Control_c, 9, 123, 0
12, 41419, Note_on_c, 9, 56, 0
12, 41422, Note_on_c, 9, 60, 0
12, 41430, Note_on_c, 9, 62, 74
12, 41440, Control_c, 9, 123, 0
12, 41451, Note_on_c, 9, 62, 0
12, 41460, Note_on_c, 9, 61, 82
12, 41467, Control_c, 9, 123, 0
12, 41477, Note_on_c, 9, 61, 0
12, 41490, Note_on_c, 9, 63, 98
12, 41498, Control_c, 9, 123, 0
12, 41509, Note_on_c, 9, 63, 0
12, 41520, Note_on_c, 9, 56, 98
12, 41538, Control_c, 9, 123, 0
12, 41539, Note_on_c, 9, 56, 0
12, 41550, Note_on_c, 9, 62, 101
12, 41557, Control_c, 9, 123, 0
12, 41567, Note_on_c, 9, 62, 0
12, 41580, Note_on_c, 9, 53, 52
12, 41580, Note_on_c, 9, 62, 58
12, 41591, Note_on_c, 9, 53, 0
12, 41591, Control_c, 9, 123, 0
12, 41600, Note_on_c, 9, 62, 0
12, 41610, Note_on_c, 9, 53, 69
12, 41614, Control_c, 9, 123, 0
12, 41637, Note_on_c, 9, 53, 0
12, 41638, Control_c, 9, 123, 0
12, 41640, Note_on_c, 9, 60, 105
12, 41640, Note_on_c, 9, 56, 98
12, 41650, Control_c, 9, 123, 0
12, 41659, Note_on_c, 9, 56, 0
12, 41661, Note_on_c, 9, 60, 0
12, 41663, Control_c, 9, 123, 0
12, 41670, Note_on_c, 9, 62, 87
12, 41681, Control_c, 9, 123, 0
12, 41689, Note_on_c, 9, 62, 0
12, 41700, Note_on_c, 9, 61, 87
12, 41700, Note_on_c, 9, 53, 56
12, 41709, Note_on_c, 9, 53, 0
12, 41710, Control_c, 9, 123, 0
12, 41711, Control_c, 9, 123, 0
12, 41717, Note_on_c, 9, 61, 0
12, 41730, Note_on_c, 9, 63, 92
12, 41730, Note_on_c, 9, 53, 76
12, 41739, Control_c, 9, 123, 0
12, 41748, Note_on_c, 9, 63, 0
12, 41752, Note_on_c, 9, 53, 0
12, 41753, Control_c, 9, 123, 0
12, 41760, Note_on_c, 9, 60, 98
12, 41760, Note_on_c, 9, 56, 92
12, 41773, Control_c, 9, 123, 0
12, 41778, Note_on_c, 9, 56, 0
12, 41780, Control_c, 9, 123, 0
12, 41781, Note_on_c, 9, 60, 0
12, 41790, Note_on_c, 9, 62, 89
12, 41797, Control_c, 9, 123, 0
12, 41806, Note_on_c, 9, 62, 0
12, 41820, Note_on_c, 9, 60, 59
12, 41828, Control_c, 9, 123, 0
12, 41835, Note_on_c, 9, 60, 0
12, 41850, Note_on_c, 9, 62, 71
12, 41858, Control_c, 9, 123, 0
12, 41868, Note_on_c, 9, 62, 0
12, 41880, Note_on_c, 9, 60, 95
12, 41880, Note_on_c, 9, 56, 92
12, 41895, Control_c, 9, 123, 0
12, 41898, Note_on_c, 9, 56, 0
12, 41899, Control_c, 9, 123, 0
12, 41902, Note_on_c, 9, 60, 0
12, 41910, Note_on_c, 9, 62, 82
12, 41921, Control_c, 9, 123, 0
12, 41930, Note_on_c, 9, 62, 0
12, 41940, Note_on_c, 9, 61, 75
12, 41948, Control_c, 9, 123, 0
12, 41957, Note_on_c, 9, 61, 0
12, 41970, Note_on_c, 9, 63, 78
12, 41979, Control_c, 9, 123, 0
12, 41988, Note_on_c, 9, 63, 0
12, 42000, Note_on_c, 9, 56, 98
12, 42017, Note_on_c, 9, 56, 0
12, 42021, Control_c, 9, 123, 0
12, 42030, Note_on_c, 9, 62, 92
12, 42037, Control_c, 9, 123, 0
12, 42047, Note_on_c, 9, 62, 0
12, 42060, Note_on_c, 9, 53, 61
12, 42073, Control_c, 9, 123, 0
12, 42075, Note_on_c, 9, 53, 0
12, 42090, Note_on_c, 9, 53, 71
12, 42090, Note_on_c, 9, 62, 80
12, 42095, Control_c, 9, 123, 0
12, 42107, Note_on_c, 9, 62, 0
12, 42116, Control_c, 9, 123, 0
12, 42117, Note_on_c, 9, 53, 0
12, 42120, Note_on_c, 9, 60, 95
12, 42120, Note_on_c, 9, 56, 104
12, 42132, Control_c, 9, 123, 0
12, 42139, Note_on_c, 9, 56, 0
12, 42142, Note_on_c, 9, 60, 0
12, 42142, Control_c, 9, 123, 0
12, 42150, Note_on_c, 9, 62, 72
12, 42159, Control_c, 9, 123, 0
12, 42171, Note_on_c, 9, 62, 0
12, 42180, Note_on_c, 9, 53, 53
12, 42180, Note_on_c, 9, 61, 78
12, 42188, Control_c, 9, 123, 0
12, 42196, Note_on_c, 9, 53, 0
12, 42196, Control_c, 9, 123, 0
12, 42197, Note_on_c, 9, 61, 0
12, 42210, Note_on_c, 9, 63, 78
12, 42210, Note_on_c, 9, 53, 74
12, 42219, Control_c, 9, 123, 0
12, 42228, Note_on_c, 9, 63, 0
12, 42235, Note_on_c, 9, 53, 0
12, 42236, Control_c, 9, 123, 0
12, 42240, Note_on_c, 9, 56, 98
12, 42240, Note_on_c, 9, 60, 80
12, 42251, Control_c, 9, 123, 0
12, 42259, Note_on_c, 9, 56, 0
12, 42259, Control_c, 9, 123, 0
12, 42260, Note_on_c, 9, 60, 0
12, 42270, Note_on_c, 9, 62, 82
12, 42275, Control_c, 9, 123, 0
12, 42286, Note_on_c, 9, 62, 0
12, 42300, Note_on_c, 9, 60, 60
12, 42305, Control_c, 9, 123, 0
12, 42317, Note_on_c, 9, 60, 0
12, 42330, Note_on_c, 9, 62, 78
12, 42336, Control_c, 9, 123, 0
12, 42348, Note_on_c, 9, 62, 0
12, 42360, Note_on_c, 9, 56, 98
12, 42360, Note_on_c, 9, 60, 98
12, 42372, Control_c, 9, 123, 0
12, 42376, Control_c, 9, 123, 0
12, 42377, Note_on_c, 9, 56, 0
12, 42383, Note_on_c, 9, 60, 0
12, 42390, Note_on_c, 9, 62, 87
12, 42394, Control_c, 9, 123, 0
12, 42409, Note_on_c, 9, 62, 0
12, 42420, Note_on_c, 9, 61, 78
12, 42425, Control_c, 9, 123, 0
12, 42437, Note_on_c, 9, 61, 0
12, 42450, Note_on_c, 9, 63, 82
12, 42455, Control_c, 9, 123, 0
12, 42469, Note_on_c, 9, 63, 0
12, 42480, Note_on_c, 9, 56, 98
12, 42499, Note_on_c, 9, 56, 0
12, 42499, Control_c, 9, 123, 0
12, 42510, Note_on_c, 9, 62, 89
12, 42520, Control_c, 9, 123, 0
12, 42529, Note_on_c, 9, 62, 0
12, 42540, Note_on_c, 9, 53, 60
12, 42551, Control_c, 9, 123, 0
12, 42553, Note_on_c, 9, 53, 0
12, 42570, Note_on_c, 9, 53, 66
12, 42570, Note_on_c, 9, 62, 74
12, 42580, Control_c, 9, 123, 0
12, 42588, Note_on_c, 9, 62, 0
12, 42599, Control_c, 9, 123, 0
12, 42600, Note_on_c, 9, 56, 98
12, 42600, Note_on_c, 9, 60, 98
12, 42601, Note_on_c, 9, 53, 0
12, 42615, Control_c, 9, 123, 0
12, 42617, Note_on_c, 9, 56, 0
12, 42619, Control_c, 9, 123, 0
12, 42627, Note_on_c, 9, 60, 0
12, 42630, Note_on_c, 9, 62, 84
12, 42640, Control_c, 9, 123, 0
12, 42648, Note_on_c, 9, 62, 0
12, 42660, Note_on_c, 9, 53, 49
12, 42660, Note_on_c, 9, 61, 78
12, 42668, Control_c, 9, 123, 0
12, 42669, Control_c, 9, 123, 0
12, 42671, Note_on_c, 9, 53, 0
12, 42676, Note_on_c, 9, 61, 0
12, 42690, Note_on_c, 9, 53, 78
12, 42690, Note_on_c, 9, 63, 78
12, 42700, Control_c, 9, 123, 0
12, 42708, Note_on_c, 9, 63, 0
12, 42716, Control_c, 9, 123, 0
12, 42718, Note_on_c, 9, 53, 0
12, 42720, Note_on_c, 9, 56, 98
12, 42720, Note_on_c, 9, 60, 92
12, 42732, Control_c, 9, 123, 0
12, 42734, Control_c, 9, 123, 0
12, 42736, Note_on_c, 9, 56, 0
12, 42739, Note_on_c, 9, 60, 0
12, 42750, Note_on_c, 9, 62, 65
12, 42760, Control_c, 9, 123, 0
12, 42768, Note_on_c, 9, 62, 0
12, 42780, Note_on_c, 9, 60, 71
12, 42791, Control_c, 9, 123, 0
12, 42795, Note_on_c, 9, 60, 0
12, 42810, Note_on_c, 9, 62, 80
12, 42818, Control_c, 9, 123, 0
12, 42826, Note_on_c, 9, 62, 0
12, 42840, Note_on_c, 9, 56, 98
12, 42840, Note_on_c, 9, 60, 98
12, 42857, Note_on_c, 9, 56, 0
12, 42857, Control_c, 9, 123, 0
12, 42859, Control_c, 9, 123, 0
12, 42866, Note_on_c, 9, 60, 0
12, 42870, Note_on_c, 9, 62, 84
12, 42884, Control_c, 9, 123, 0
12, 42891, Note_on_c, 9, 62, 0
12, 42900, Note_on_c, 9, 61, 78
12, 42913, Control_c, 9, 123, 0
12, 42918, Note_on_c, 9, 61, 0
12, 42930, Note_on_c, 9, 63, 92
12, 42940, Control_c, 9, 123, 0
12, 42947, Note_on_c, 9, 63, 0
12, 42960, Note_on_c, 9, 56, 92
12, 42975, Note_on_c, 9, 56, 0
12, 42979, Control_c, 9, 123, 0
12, 42990, Note_on_c, 9, 62, 98
12, 43004, Control_c, 9, 123, 0
12, 43008, Note_on_c, 9, 62, 0
12, 43020, Note_on_c, 9, 53, 42
12, 43036, Note_on_c, 9, 53, 0
12, 43036, Control_c, 9, 123, 0
12, 43050, Note_on_c, 9, 53, 62
12, 43050, Note_on_c, 9, 62, 84
12, 43062, Control_c, 9, 123, 0
12, 43067, Note_on_c, 9, 62, 0
12, 43073, Note_on_c, 9, 53, 0
12, 43073, Control_c, 9, 123, 0
12, 43080, Note_on_c, 9, 60, 98
12, 43080, Note_on_c, 9, 56, 98
12, 43095, Control_c, 9, 123, 0
12, 43097, Note_on_c, 9, 56, 0
12, 43101, Control_c, 9, 123, 0
12, 43103, Note_on_c, 9, 60, 0
12, 43110, Note_on_c, 9, 62, 84
12, 43120, Control_c, 9, 123, 0
12, 43128, Note_on_c, 9, 62, 0
12, 43140, Note_on_c, 9, 61, 78
12, 43140, Note_on_c, 9, 53, 60
12, 43150, Control_c, 9, 123, 0
12, 43152, Note_on_c, 9, 53, 0
12, 43154, Control_c, 9, 123, 0
12, 43156, Note_on_c, 9, 61, 0
12, 43170, Note_on_c, 9, 63, 98
12, 43170, Note_on_c, 9, 53, 82
12, 43178, Control_c, 9, 123, 0
12, 43188, Note_on_c, 9, 63, 0
12, 43200, Note_on_c, 9, 53, 0
12, 43200, Note_on_c, 9, 60, 89
12, 43200, Note_on_c, 9, 56, 92
12, 43201, Control_c, 9, 123, 0
12, 43211, Control_c, 9, 123, 0
12, 43217, Note_on_c, 9, 56, 0
12, 43219, Note_on_c, 9, 60, 0
12, 43220, Control_c, 9, 123, 0
12, 43230, Note_on_c, 9, 62, 74
12, 43238, Control_c, 9, 123, 0
12, 43248, Note_on_c, 9, 62, 0
12, 43260, Note_on_c, 9, 60, 65
12, 43268, Control_c, 9, 123, 0
12, 43275, Note_on_c, 9, 60, 0
12, 43290, Note_on_c, 9, 62, 78
12, 43296, Control_c, 9, 123, 0
12, 43308, Note_on_c, 9, 62, 0
12, 43320, Note_on_c, 9, 60, 84
12, 43320, Note_on_c, 9, 56, 92
12, 43337, Note_on_c, 9, 56, 0
12, 43339, Control_c, 9, 123, 0
12, 43339, Control_c, 9, 123, 0
12, 43348, Note_on_c, 9, 60, 0
12, 43350, Note_on_c, 9, 62, 76
12, 43362, Control_c, 9, 123, 0
12, 43371, Note_on_c, 9, 62, 0
12, 43380, Note_on_c, 9, 61, 82
12, 43380, Note_on_c, 9, 50, 64
12, 43392, Control_c, 9, 123, 0
12, 43396, Note_on_c, 9, 50, 0
12, 43398, Note_on_c, 9, 61, 0
12, 43401, Control_c, 9, 123, 0
12, 43410, Note_on_c, 9, 63, 98
12, 43410, Note_on_c, 9, 50, 82
12, 43419, Control_c, 9, 123, 0
12, 43427, Note_on_c, 9, 63, 0
12, 43428, Note_on_c, 9, 50, 0
12, 43431, Control_c, 9, 123, 0
12, 43440, Note_on_c, 9, 56, 82
12, 43440, Note_on_c, 9, 48, 87
12, 43457, Note_on_c, 9, 56, 0
12, 43457, Note_on_c, 9, 48, 0
12, 43460, Control_c, 9, 123, 0
12, 43460, Control_c, 9, 123, 0
12, 43470, Note_on_c, 9, 62, 92
12, 43470, Note_on_c, 9, 48, 95
12, 43481, Control_c, 9, 123, 0
12, 43486, Note_on_c, 9, 48, 0
12, 43488, Note_on_c, 9, 62, 0
12, 43488, Control_c, 9, 123, 0
12, 43500, Note_on_c, 9, 53, 59
12, 43500, Note_on_c, 9, 48, 78
12, 43512, Note_on_c, 9, 53, 0
12, 43512, Control_c, 9, 123, 0
12, 43516, Note_on_c, 9, 48, 0
12, 43517, Control_c, 9, 123, 0
12, 43530, Note_on_c, 9, 53, 74
12, 43530, Note_on_c, 9, 48, 101
12, 43530, Note_on_c, 9, 62, 80
12, 43541, Control_c, 9, 123, 0
12, 43546, Note_on_c, 9, 48, 0
12, 43547, Control_c, 9, 123, 0
12, 43549, Note_on_c, 9, 62, 0
12, 43556, Control_c, 9, 123, 0
12, 43558, Note_on_c, 9, 53, 0
12, 43560, Note_on_c, 9, 56, 87
12, 43560, Note_on_c, 9, 60, 101
12, 43560, Note_on_c, 9, 45, 92
12, 43574, Control_c, 9, 123, 0
12, 43577, Note_on_c, 9, 56, 0
12, 43577, Control_c, 9, 123, 0
12, 43581, Note_on_c, 9, 45, 0
12, 43582, Note_on_c, 9, 60, 0
12, 43584, Control_c, 9, 123, 0
12, 43590, Note_on_c, 9, 62, 80
12, 43590, Note_on_c, 9, 45, 98
12, 43603, Control_c, 9, 123, 0
12, 43609, Note_on_c, 9, 62, 0
12, 43614, Note_on_c, 9, 45, 0
12, 43615, Control_c, 9, 123, 0
12, 43620, Note_on_c, 9, 53, 68
12, 43620, Note_on_c, 9, 61, 98
12, 43620, Note_on_c, 9, 41, 64
12, 43620, Note_on_c, 9, 43, 78
12, 43627, Note_on_c, 9, 43, 0
12, 43630, Control_c, 9, 123, 0
12, 43631, Note_on_c, 9, 41, 0
12, 43632, Note_on_c, 9, 53, 0
12, 43632, Control_c, 9, 123, 0
12, 43634, Control_c, 9, 123, 0
12, 43636, Note_on_c, 9, 61, 0
12, 43650, Note_on_c, 9, 53, 84
12, 43650, Note_on_c, 9, 41, 80
12, 43650, Note_on_c, 9, 63, 98
12, 43662, Control_c, 9, 123, 0
12, 43668, Note_on_c, 9, 41, 0
12, 43668, Note_on_c, 9, 63, 0
12, 43668, Control_c, 9, 123, 0
12, 43676, Note_on_c, 9, 53, 0
12, 43676, Control_c, 9, 123, 0
12, 43680, Note_on_c, 9, 49, 118
12, 43680, Note_on_c, 9, 56, 92
12, 43698, Note_on_c, 9, 56, 0
12, 43701, Control_c, 9, 123, 0
12, 43800, Note_on_c, 9, 56, 98
12, 43819, Note_on_c, 9, 56, 0
12, 43822, Control_c, 9, 123, 0
12, 43913, Note_on_c, 9, 49, 0
12, 43913, Control_c, 9, 123, 0
12, 43920, Note_on_c, 9, 56, 92
12, 43937, Note_on_c, 9, 56, 0
12, 43939, Control_c, 9, 123, 0
12, 44040, Note_on_c, 9, 56, 98
12, 44056, Note_on_c, 9, 56, 0
12, 44056, Control_c, 9, 123, 0
12, 44160, Note_on_c, 9, 56, 92
12, 44177, Control_c, 9, 123, 0
12, 44179, Note_on_c, 9, 56, 0
12, 44280, Note_on_c, 9, 56, 98
12, 44294, Control_c, 9, 123, 0
12, 44296, Note_on_c, 9, 56, 0
12, 44400, Note_on_c, 9, 56, 98
12, 44417, Note_on_c, 9, 56, 0
12, 44419, Control_c, 9, 123, 0
12, 44520, Note_on_c, 9, 56, 92
12, 44537, Note_on_c, 9, 56, 0
12, 44538, Control_c, 9, 123, 0
12, 44640, Note_on_c, 9, 56, 98
12, 44658, Note_on_c, 9, 56, 0
12, 44659, Control_c, 9, 123, 0
12, 44760, Note_on_c, 9, 56, 98
12, 44780, Note_on_c, 9, 56, 0
12, 44780, Control_c, 9, 123, 0
12, 44880, Note_on_c, 9, 56, 98
12, 44899, Note_on_c, 9, 56, 0
12, 44902, Control_c, 9, 123, 0
12, 45000, Note_on_c, 9, 56, 92
12, 45017, Note_on_c, 9, 56, 0
12, 45017, Control_c, 9, 123, 0
12, 45120, Note_on_c, 9, 56, 92
12, 45137, Note_on_c, 9, 56, 0
12, 45137, Control_c, 9, 123, 0
12, 45240, Note_on_c, 9, 56, 98
12, 45257, Note_on_c, 9, 56, 0
12, 45260, Control_c, 9, 123, 0
12, 45360, Note_on_c, 9, 56, 98
12, 45378, Note_on_c, 9, 56, 0
12, 45380, Control_c, 9, 123, 0
12, 45420, Note_on_c, 9, 53, 45
12, 45433, Note_on_c, 9, 53, 0
12, 45437, Control_c, 9, 123, 0
12, 45450, Note_on_c, 9, 53, 63
12, 45472, Control_c, 9, 123, 0
12, 45473, Note_on_c, 9, 53, 0
12, 45480, Note_on_c, 9, 56, 98
12, 45496, Note_on_c, 9, 56, 0
12, 45498, Control_c, 9, 123, 0
12, 45540, Note_on_c, 9, 53, 45
12, 45555, Note_on_c, 9, 53, 0
12, 45555, Control_c, 9, 123, 0
12, 45570, Note_on_c, 9, 53, 61
12, 45592, Note_on_c, 9, 53, 0
12, 45592, Control_c, 9, 123, 0
12, 45600, Note_on_c, 9, 56, 92
12, 45616, Control_c, 9, 123, 0
12, 45617, Note_on_c, 9, 56, 0
12, 45720, Note_on_c, 9, 56, 87
12, 45737, Note_on_c, 9, 56, 0
12, 45740, Control_c, 9, 123, 0
12, 45840, Note_on_c, 9, 56, 98
12, 45855, Note_on_c, 9, 56, 0
12, 45857, Control_c, 9, 123, 0
12, 45960, Note_on_c, 9, 56, 98
12, 45979, Note_on_c, 9, 56, 0
12, 45980, Control_c, 9, 123, 0
12, 46080, Note_on_c, 9, 56, 92
12, 46097, Control_c, 9, 123, 0
12, 46098, Note_on_c, 9, 56, 0
12, 46200, Note_on_c, 9, 56, 98
12, 46219, Note_on_c, 9, 56, 0
12, 46219, Control_c, 9, 123, 0
12, 46320, Note_on_c, 9, 56, 98
12, 46337, Note_on_c, 9, 56, 0
12, 46339, Control_c, 9, 123, 0
12, 46440, Note_on_c, 9, 56, 98
12, 46455, Note_on_c, 9, 56, 0
12, 46459, Control_c, 9, 123, 0
12, 46560, Note_on_c, 9, 56, 98
12, 46579, Note_on_c, 9, 56, 0
12, 46583, Control_c, 9, 123, 0
12, 46680, Note_on_c, 9, 56, 98
12, 46697, Note_on_c, 9, 56, 0
12, 46699, Control_c, 9, 123, 0
12, 46800, Note_on_c, 9, 56, 98
12, 46817, Note_on_c, 9, 56, 0
12, 46819, Control_c, 9, 123, 0
12, 46920, Note_on_c, 9, 56, 92
12, 46939, Note_on_c, 9, 56, 0
12, 46942, Control_c, 9, 123, 0
12, 47040, Note_on_c, 9, 56, 98
12, 47057, Control_c, 9, 123, 0
12, 47058, Note_on_c, 9, 56, 0
12, 47160, Note_on_c, 9, 56, 104
12, 47177, Control_c, 9, 123, 0
12, 47179, Note_on_c, 9, 56, 0
12, 47280, Note_on_c, 9, 56, 92
12, 47298, Note_on_c, 9, 56, 0
12, 47302, Control_c, 9, 123, 0
12, 47340, Note_on_c, 9, 53, 54
12, 47354, Note_on_c, 9, 53, 0
12, 47355, Control_c, 9, 123, 0
12, 47370, Note_on_c, 9, 53, 72
12, 47400, Note_on_c, 9, 56, 92
12, 47402, Note_on_c, 9, 53, 0
12, 47402, Control_c, 9, 123, 0
12, 47415, Note_on_c, 9, 56, 0
12, 47420, Control_c, 9, 123, 0
12, 47460, Note_on_c, 9, 53, 58
12, 47473, Control_c, 9, 123, 0
12, 47475, Note_on_c, 9, 53, 0
12, 47490, Note_on_c, 9, 53, 69
12, 47514, Control_c, 9, 123, 0
12, 47516, Note_on_c, 9, 53, 0
12, 47520, Note_on_c, 9, 56, 98
12, 47541, Note_on_c, 9, 56, 0
12, 47542, Control_c, 9, 123, 0
12, 47640, Note_on_c, 9, 60, 101
12, 47640, Note_on_c, 9, 56, 98
12, 47658, Note_on_c, 9, 56, 0
12, 47662, Note_on_c, 9, 60, 0
12, 47662, Control_c, 9, 123, 0
12, 47667, Control_c, 9, 123, 0
12, 47670, Note_on_c, 9, 62, 69
12, 47691, Note_on_c, 9, 62, 0
12, 47696, Control_c, 9, 123, 0
12, 47700, Note_on_c, 9, 61, 61
12, 47717, Note_on_c, 9, 61, 0
12, 47720, Control_c, 9, 123, 0
12, 47730, Note_on_c, 9, 63, 92
12, 47749, Note_on_c, 9, 63, 0
12, 47753, Control_c, 9, 123, 0
12, 47760, Note_on_c, 9, 60, 54
12, 47760, Note_on_c, 9, 56, 92
12, 47770, Note_on_c, 9, 60, 0
12, 47773, Control_c, 9, 123, 0
12, 47777, Note_on_c, 9, 56, 0
12, 47780, Control_c, 9, 123, 0
12, 47790, Note_on_c, 9, 62, 109
12, 47808, Note_on_c, 9, 62, 0
12, 47811, Control_c, 9, 123, 0
12, 47850, Note_on_c, 9, 62, 56
12, 47868, Note_on_c, 9, 62, 0
12, 47869, Control_c, 9, 123, 0
12, 47880, Note_on_c, 9, 60, 95
12, 47880, Note_on_c, 9, 56, 92
12, 47899, Note_on_c, 9, 56, 0
12, 47901, Control_c, 9, 123, 0
12, 47903, Note_on_c, 9, 60, 0
12, 47907, Control_c, 9, 123, 0
12, 47910, Note_on_c, 9, 62, 71
12, 47933, Note_on_c, 9, 62, 0
12, 47934, Control_c, 9, 123, 0
12, 47940, Note_on_c, 9, 61, 72
12, 47956, Note_on_c, 9, 61, 0
12, 47959, Control_c, 9, 123, 0
12, 47970, Note_on_c, 9, 63, 104
12, 47989, Note_on_c, 9, 63, 0
12, 47991, Control_c, 9, 123, 0
12, 48000, Note_on_c, 9, 56, 92
12, 48017, Note_on_c, 9, 56, 0
12, 48020, Control_c, 9, 123, 0
12, 48120, Note_on_c, 9, 56, 98
12, 48120, Note_on_c, 9, 60, 101
12, 48136, Control_c, 9, 123, 0
12, 48137, Note_on_c, 9, 56, 0
12, 48142, Note_on_c, 9, 60, 0
12, 48144, Control_c, 9, 123, 0
12, 48150, Note_on_c, 9, 62, 89
12, 48170, Note_on_c, 9, 62, 0
12, 48172, Control_c, 9, 123, 0
12, 48180, Note_on_c, 9, 61, 59
12, 48195, Note_on_c, 9, 61, 0
12, 48199, Control_c, 9, 123, 0
12, 48210, Note_on_c, 9, 63, 92
12, 48229, Note_on_c, 9, 63, 0
12, 48231, Control_c, 9, 123, 0
12, 48240, Note_on_c, 9, 56, 98
12, 48257, Note_on_c, 9, 56, 0
12, 48257, Control_c, 9, 123, 0
12, 48270, Note_on_c, 9, 62, 98
12, 48289, Note_on_c, 9, 62, 0
12, 48290, Control_c, 9, 123, 0
12, 48330, Note_on_c, 9, 62, 72
12, 48347, Control_c, 9, 123, 0
12, 48348, Note_on_c, 9, 62, 0
12, 48360, Note_on_c, 9, 60, 105
12, 48360, Note_on_c, 9, 56, 98
12, 48377, Note_on_c, 9, 56, 0
12, 48379, Control_c, 9, 123, 0
12, 48383, Note_on_c, 9, 60, 0
12, 48385, Control_c, 9, 123, 0
12, 48390, Note_on_c, 9, 62, 87
12, 48409, Note_on_c, 9, 62, 0
12, 48410, Control_c, 9, 123, 0
12, 48420, Note_on_c, 9, 61, 69
12, 48439, Note_on_c, 9, 61, 0
12, 48441, Control_c, 9, 123, 0
12, 48450, Note_on_c, 9, 63, 87
12, 48470, Note_on_c, 9, 63, 0
12, 48473, Control_c, 9, 123, 0
12, 48480, Note_on_c, 9, 56, 98
12, 48496, Note_on_c, 9, 56, 0
12, 48499, Control_c, 9, 123, 0
12, 48570, Note_on_c, 9, 62, 74
12, 48583, Control_c, 9, 123, 0
12, 48588, Note_on_c, 9, 62, 0
12, 48600, Note_on_c, 9, 60, 109
12, 48600, Note_on_c, 9, 56, 104
12, 48618, Note_on_c, 9, 56, 0
12, 48621, Note_on_c, 9, 60, 0
12, 48622, Control_c, 9, 123, 0
12, 48625, Control_c, 9, 123, 0
12, 48630, Note_on_c, 9, 62, 82
12, 48649, Note_on_c, 9, 62, 0
12, 48649, Control_c, 9, 123, 0
12, 48660, Note_on_c, 9, 61, 67
12, 48676, Note_on_c, 9, 61, 0
12, 48680, Control_c, 9, 123, 0
12, 48690, Note_on_c, 9, 63, 98
12, 48709, Note_on_c, 9, 63, 0
12, 48711, Control_c, 9, 123, 0
12, 48720, Note_on_c, 9, 56, 92
12, 48741, Note_on_c, 9, 56, 0
12, 48745, Control_c, 9, 123, 0
12, 48750, Note_on_c, 9, 62, 98
12, 48770, Note_on_c, 9, 62, 0
12, 48770, Control_c, 9, 123, 0
12, 48810, Note_on_c, 9, 62, 65
12, 48827, Note_on_c, 9, 62, 0
12, 48828, Control_c, 9, 123, 0
12, 48840, Note_on_c, 9, 60, 101
12, 48840, Note_on_c, 9, 56, 92
12, 48857, Note_on_c, 9, 56, 0
12, 48860, Note_on_c, 9, 60, 0
12, 48860, Control_c, 9, 123, 0
12, 48863, Control_c, 9, 123, 0
12, 48870, Note_on_c, 9, 62, 84
12, 48891, Note_on_c, 9, 62, 0
12, 48891, Control_c, 9, 123, 0
12, 48900, Note_on_c, 9, 61, 61
12, 48912, Note_on_c, 9, 61, 0
12, 48915, Control_c, 9, 123, 0
12, 48930, Note_on_c, 9, 63, 78
12, 48949, Note_on_c, 9, 63, 0
12, 48951, Control_c, 9, 123, 0
12, 48960, Note_on_c, 9, 60, 82
12, 48960, Note_on_c, 9, 56, 87
12, 48975, Note_on_c, 9, 60, 0
12, 48979, Note_on_c, 9, 56, 0
12, 48979, Control_c, 9, 123, 0
12, 48985, Control_c, 9, 123, 0
12, 48990, Note_on_c, 9, 62, 84
12, 49005, Note_on_c, 9, 62, 0
12, 49007, Control_c, 9, 123, 0
12, 49050, Note_on_c, 9, 62, 76
12, 49068, Note_on_c, 9, 62, 0
12, 49068, Control_c, 9, 123, 0
12, 49080, Note_on_c, 9, 60, 95
12, 49080, Note_on_c, 9, 56, 92
12, 49098, Note_on_c, 9, 56, 0
12, 49099, Note_on_c, 9, 60, 0
12, 49101, Control_c, 9, 123, 0
12, 49102, Control_c, 9, 123, 0
12, 49110, Note_on_c, 9, 62, 87
12, 49128, Note_on_c, 9, 62, 0
12, 49128, Control_c, 9, 123, 0
12, 49140, Note_on_c, 9, 61, 72
12, 49153, Note_on_c, 9, 61, 0
12, 49156, Control_c, 9, 123, 0
12, 49170, Note_on_c, 9, 63, 92
12, 49187, Note_on_c, 9, 63, 0
12, 49187, Control_c, 9, 123, 0
12, 49200, Note_on_c, 9, 56, 98
12, 49216, Note_on_c, 9, 56, 0
12, 49223, Control_c, 9, 123, 0
12, 49230, Note_on_c, 9, 62, 89
12, 49248, Note_on_c, 9, 62, 0
12, 49248, Control_c, 9, 123, 0
12, 49260, Note_on_c, 9, 53, 57
12, 49272, Note_on_c, 9, 53, 0
12, 49272, Control_c, 9, 123, 0
12, 49290, Note_on_c, 9, 53, 69
12, 49290, Note_on_c, 9, 62, 80
12, 49305, Note_on_c, 9, 62, 0
12, 49305, Control_c, 9, 123, 0
12, 49314, Note_on_c, 9, 53, 0
12, 49314, Control_c, 9, 123, 0
12, 49320, Note_on_c, 9, 60, 105
12, 49320, Note_on_c, 9, 56, 87
12, 49338, Note_on_c, 9, 56, 0
12, 49340, Control_c, 9, 123, 0
12, 49341, Note_on_c, 9, 60, 0
12, 49343, Control_c, 9, 123, 0
12, 49350, Note_on_c, 9, 62, 87
12, 49371, Note_on_c, 9, 62, 0
12, 49371, Control_c, 9, 123, 0
12, 49380, Note_on_c, 9, 61, 78
12, 49380, Note_on_c, 9, 53, 54
12, 49394, Note_on_c, 9, 53, 0
12, 49395, Note_on_c, 9, 61, 0
12, 49395, Control_c, 9, 123, 0
12, 49397, Control_c, 9, 123, 0
12, 49410, Note_on_c, 9, 53, 68
12, 49410, Note_on_c, 9, 63, 92
12, 49429, Control_c, 9, 123, 0
12, 49430, Note_on_c, 9, 63, 0
12, 49438, Control_c, 9, 123, 0
12, 49439, Note_on_c, 9, 53, 0
12, 49440, Note_on_c, 9, 60, 101
12, 49440, Note_on_c, 9, 56, 92
12, 49459, Note_on_c, 9, 56, 0
12, 49460, Note_on_c, 9, 60, 0
12, 49460, Control_c, 9, 123, 0
12, 49463, Control_c, 9, 123, 0
12, 49470, Note_on_c, 9, 62, 84
12, 49489, Note_on_c, 9, 62, 0
12, 49489, Control_c, 9, 123, 0
12, 49500, Note_on_c, 9, 60, 57
12, 49513, Note_on_c, 9, 60, 0
12, 49517, Control_c, 9, 123, 0
12, 49530, Note_on_c, 9, 62, 80
12, 49547, Control_c, 9, 123, 0
12, 49548, Note_on_c, 9, 62, 0
12, 49560, Note_on_c, 9, 60, 101
12, 49560, Note_on_c, 9, 56, 92
12, 49577, Note_on_c, 9, 56, 0
12, 49580, Control_c, 9, 123, 0
12, 49582, Note_on_c, 9, 60, 0
12, 49584, Control_c, 9, 123, 0
12, 49590, Note_on_c, 9, 62, 87
12, 49611, Control_c, 9, 123, 0
12, 49612, Note_on_c, 9, 62, 0
12, 49620, Note_on_c, 9, 61, 72
12, 49636, Note_on_c, 9, 61, 0
12, 49637, Control_c, 9, 123, 0
12, 49650, Note_on_c, 9, 63, 98
12, 49668, Note_on_c, 9, 63, 0
12, 49669, Control_c, 9, 123, 0
12, 49680, Note_on_c, 9, 56, 92
12, 49695, Note_on_c, 9, 56, 0
12, 49701, Control_c, 9, 123, 0
12, 49710, Note_on_c, 9, 62, 105
12, 49727, Note_on_c, 9, 62, 0
12, 49727, Control_c, 9, 123, 0
12, 49770, Note_on_c, 9, 62, 80
12, 49785, Control_c, 9, 123, 0
12, 49787, Note_on_c, 9, 62, 0
12, 49800, Note_on_c, 9, 60, 105
12, 49800, Note_on_c, 9, 56, 92
12, 49818, Note_on_c, 9, 56, 0
12, 49820, Control_c, 9, 123, 0
12, 49823, Note_on_c, 9, 60, 0
12, 49823, Control_c, 9, 123, 0
12, 49830, Note_on_c, 9, 62, 82
12, 49848, Note_on_c, 9, 62, 0
12, 49848, Control_c, 9, 123, 0
12, 49860, Note_on_c, 9, 61, 72
12, 49877, Note_on_c, 9, 61, 0
12, 49877, Control_c, 9, 123, 0
12, 49890, Note_on_c, 9, 63, 82
12, 49907, Control_c, 9, 123, 0
12, 49909, Note_on_c, 9, 63, 0
12, 49920, Note_on_c, 9, 60, 105
12, 49920, Note_on_c, 9, 56, 92
12, 49936, Note_on_c, 9, 56, 0
12, 49940, Note_on_c, 9, 60, 0
12, 49940, Control_c, 9, 123, 0
12, 49941, Control_c, 9, 123, 0
12, 49950, Note_on_c, 9, 62, 69
12, 49966, Control_c, 9, 123, 0
12, 49969, Note_on_c, 9, 62, 0
12, 49980, Note_on_c, 9, 60, 60
12, 49995, Note_on_c, 9, 60, 0
12, 49997, Control_c, 9, 123, 0
12, 50010, Note_on_c, 9, 62, 72
12, 50028, Note_on_c, 9, 62, 0
12, 50028, Control_c, 9, 123, 0
12, 50040, Note_on_c, 9, 56, 98
12, 50040, Note_on_c, 9, 60, 101
12, 50057, Note_on_c, 9, 56, 0
12, 50057, Control_c, 9, 123, 0
12, 50061, Note_on_c, 9, 60, 0
12, 50064, Control_c, 9, 123, 0
12, 50070, Note_on_c, 9, 62, 84
12, 50090, Note_on_c, 9, 62, 0
12, 50090, Control_c, 9, 123, 0
12, 50100, Note_on_c, 9, 61, 75
12, 50117, Note_on_c, 9, 61, 0
12, 50117, Control_c, 9, 123, 0
12, 50130, Note_on_c, 9, 63, 98
12, 50148, Note_on_c, 9, 63, 0
12, 50149, Control_c, 9, 123, 0
12, 50160, Note_on_c, 9, 56, 92
12, 50176, Control_c, 9, 123, 0
12, 50177, Note_on_c, 9, 56, 0
12, 50190, Note_on_c, 9, 62, 98
12, 50208, Note_on_c, 9, 62, 0
12, 50209, Control_c, 9, 123, 0
12, 50250, Note_on_c, 9, 62, 84
12, 50266, Note_on_c, 9, 62, 0
12, 50266, Control_c, 9, 123, 0
12, 50280, Note_on_c, 9, 56, 98
12, 50280, Note_on_c, 9, 60, 98
12, 50296, Control_c, 9, 123, 0
12, 50298, Note_on_c, 9, 56, 0
12, 50302, Note_on_c, 9, 60, 0
12, 50303, Control_c, 9, 123, 0
12, 50310, Note_on_c, 9, 62, 80
12, 50331, Note_on_c, 9, 62, 0
12, 50333, Control_c, 9, 123, 0
12, 50340, Note_on_c, 9, 61, 69
12, 50340, Note_on_c, 9, 53, 42
12, 50351, Note_on_c, 9, 53, 0
12, 50353, Control_c, 9, 123, 0
12, 50357, Note_on_c, 9, 61, 0
12, 50359, Control_c, 9, 123, 0
12, 50370, Note_on_c, 9, 53, 65
12, 50370, Note_on_c, 9, 63, 82
12, 50388, Note_on_c, 9, 63, 0
12, 50388, Control_c, 9, 123, 0
12, 50400, Note_on_c, 9, 53, 0
12, 50400, Note_on_c, 9, 56, 87
12, 50400, Note_on_c, 9, 60, 92
12, 50400, Control_c, 9, 123, 0
12, 50418, Control_c, 9, 123, 0
12, 50419, Note_on_c, 9, 56, 0
12, 50420, Note_on_c, 9, 60, 0
12, 50422, Control_c, 9, 123, 0
12, 50430, Note_on_c, 9, 62, 72
12, 50446, Note_on_c, 9, 62, 0
12, 50447, Control_c, 9, 123, 0
12, 50460, Note_on_c, 9, 60, 58
12, 50476, Note_on_c, 9, 60, 0
12, 50479, Control_c, 9, 123, 0
12, 50490, Note_on_c, 9, 62, 84
12, 50506, Note_on_c, 9, 62, 0
12, 50506, Control_c, 9, 123, 0
12, 50520, Note_on_c, 9, 56, 92
12, 50520, Note_on_c, 9, 60, 95
12, 50537, Control_c, 9, 123, 0
12, 50540, Note_on_c, 9, 56, 0
12, 50546, Note_on_c, 9, 60, 0
12, 50547, Control_c, 9, 123, 0
12, 50550, Note_on_c, 9, 62, 89
12, 50571, Note_on_c, 9, 62, 0
12, 50571, Control_c, 9, 123, 0
12, 50580, Note_on_c, 9, 61, 72
12, 50595, Note_on_c, 9, 61, 0
12, 50597, Control_c, 9, 123, 0
12, 50610, Note_on_c, 9, 63, 110
12, 50630, Note_on_c, 9, 63, 0
12, 50630, Control_c, 9, 123, 0
12, 50640, Note_on_c, 9, 56, 98
12, 50657, Note_on_c, 9, 56, 0
12, 50658, Control_c, 9, 123, 0
12, 50670, Note_on_c, 9, 62, 105
12, 50670, Note_on_c, 9, 63, 47
12, 50673, Note_on_c, 9, 63, 0
12, 50687, Note_on_c, 9, 62, 0
12, 50689, Control_c, 9, 123, 0
12, 50730, Note_on_c, 9, 62, 82
12, 50745, Note_on_c, 9, 62, 0
12, 50745, Control_c, 9, 123, 0
12, 50760, Note_on_c, 9, 60, 101
12, 50760, Note_on_c, 9, 56, 98
12, 50778, Note_on_c, 9, 56, 0
12, 50782, Control_c, 9, 123, 0
12, 50782, Control_c, 9, 123, 0
12, 50783, Note_on_c, 9, 60, 0
12, 50790, Note_on_c, 9, 62, 78
12, 50809, Note_on_c, 9, 62, 0
12, 50809, Control_c, 9, 123, 0
12, 50820, Note_on_c, 9, 61, 65
12, 50837, Note_on_c, 9, 61, 0
12, 50838, Control_c, 9, 123, 0
12, 50850, Note_on_c, 9, 63, 87
12, 50873, Note_on_c, 9, 63, 0
12, 50873, Control_c, 9, 123, 0
12, 50880, Note_on_c, 9, 60, 98
12, 50880, Note_on_c, 9, 56, 98
12, 50897, Note_on_c, 9, 56, 0
12, 50898, Note_on_c, 9, 60, 0
12, 50902, Control_c, 9, 123, 0
12, 50902, Control_c, 9, 123, 0
12, 50910, Note_on_c, 9, 62, 87
12, 50928, Note_on_c, 9, 62, 0
12, 50929, Control_c, 9, 123, 0
12, 50940, Note_on_c, 9, 60, 58
12, 50956, Note_on_c, 9, 60, 0
12, 50959, Control_c, 9, 123, 0
12, 50970, Note_on_c, 9, 62, 82
12, 50990, Note_on_c, 9, 62, 0
12, 50991, Control_c, 9, 123, 0
12, 51000, Note_on_c, 9, 60, 98
12, 51000, Note_on_c, 9, 56, 92
12, 51019, Note_on_c, 9, 56, 0
12, 51022, Note_on_c, 9, 60, 0
12, 51024, Control_c, 9, 123, 0
12, 51025, Control_c, 9, 123, 0
12, 51030, Note_on_c, 9, 62, 78
12, 51050, Note_on_c, 9, 62, 0
12, 51050, Control_c, 9, 123, 0
12, 51060, Note_on_c, 9, 61, 78
12, 51077, Note_on_c, 9, 61, 0
12, 51079, Control_c, 9, 123, 0
12, 51090, Note_on_c, 9, 63, 104
12, 51108, Control_c, 9, 123, 0
12, 51109, Note_on_c, 9, 63, 0
12, 51120, Note_on_c, 9, 56, 92
12, 51138, Note_on_c, 9, 56, 0
12, 51142, Control_c, 9, 123, 0
12, 51150, Note_on_c, 9, 62, 101
12, 51168, Note_on_c, 9, 62, 0
12, 51169, Control_c, 9, 123, 0
12, 51180, Note_on_c, 9, 53, 54
12, 51191, Control_c, 9, 123, 0
12, 51195, Note_on_c, 9, 53, 0
12, 51210, Note_on_c, 9, 53, 76
12, 51210, Note_on_c, 9, 62, 80
12, 51227, Control_c, 9, 123, 0
12, 51228, Note_on_c, 9, 62, 0
12, 51235, Control_c, 9, 123, 0
12, 51236, Note_on_c, 9, 53, 0
12, 51240, Note_on_c, 9, 60, 98
12, 51240, Note_on_c, 9, 56, 92
12, 51257, Note_on_c, 9, 56, 0
12, 51259, Control_c, 9, 123, 0
12, 51264, Note_on_c, 9, 60, 0
12, 51264, Control_c, 9, 123, 0
12, 51270, Note_on_c, 9, 62, 78
12, 51290, Note_on_c, 9, 62, 0
12, 51291, Control_c, 9, 123, 0
12, 51300, Note_on_c, 9, 53, 68
12, 51300, Note_on_c, 9, 61, 75
12, 51315, Control_c, 9, 123, 0
12, 51316, Note_on_c, 9, 53, 0
12, 51316, Note_on_c, 9, 61, 0
12, 51319, Control_c, 9, 123, 0
12, 51330, Note_on_c, 9, 53, 69
12, 51330, Note_on_c, 9, 63, 92
12, 51348, Control_c, 9, 123, 0
12, 51350, Note_on_c, 9, 53, 0
12, 51350, Note_on_c, 9, 63, 0
12, 51350, Control_c, 9, 123, 0
12, 51360, Control_c, 9, 7, 95
12, 51360, Note_on_c, 9, 56, 87
12, 51360, Note_on_c, 9, 60, 87
12, 51377, Control_c, 9, 123, 0
12, 51378, Note_on_c, 9, 56, 0
12, 51378, Note_on_c, 9, 60, 0
12, 51380, Control_c, 9, 123, 0
12, 51390, Note_on_c, 9, 62, 84
12, 51407, Control_c, 9, 123, 0
12, 51408, Note_on_c, 9, 62, 0
12, 51416, Control_c, 9, 7, 94
12, 51420, Note_on_c, 9, 60, 61
12, 51433, Note_on_c, 9, 60, 0
12, 51436, Control_c, 9, 123, 0
12, 51450, Note_on_c, 9, 62, 76
12, 51466, Note_on_c, 9, 62, 0
12, 51468, Control_c, 9, 123, 0
12, 51471, Control_c, 9, 7, 93
12, 51480, Note_on_c, 9, 60, 105
12, 51480, Note_on_c, 9, 56, 92
12, 51497, Note_on_c, 9, 56, 0
12, 51498, Control_c, 9, 123, 0
12, 51502, Note_on_c, 9, 60, 0
12, 51504, Control_c, 9, 123, 0
12, 51510, Note_on_c, 9, 62, 82
12, 51527, Control_c, 9, 7, 92
12, 51530, Note_on_c, 9, 62, 0
12, 51530, Control_c, 9, 123, 0
12, 51540, Note_on_c, 9, 61, 69
12, 51555, Note_on_c, 9, 61, 0
12, 51557, Control_c, 9, 123, 0
12, 51570, Note_on_c, 9, 63, 98
12, 51582, Control_c, 9, 7, 91
12, 51587, Control_c, 9, 123, 0
12, 51588, Note_on_c, 9, 63, 0
12, 51600, Note_on_c, 9, 56, 98
12, 51617, Note_on_c, 9, 56, 0
12, 51619, Control_c, 9, 123, 0
12, 51630, Note_on_c, 9, 62, 105
12, 51638, Control_c, 9, 7, 90
12, 51647, Control_c, 9, 123, 0
12, 51648, Note_on_c, 9, 62, 0
12, 51660, Note_on_c, 9, 53, 51
12, 51675, Note_on_c, 9, 53, 0
12, 51676, Control_c, 9, 123, 0
12, 51690, Note_on_c, 9, 62, 84
12, 51690, Note_on_c, 9, 53, 65
12, 51693, Control_c, 9, 7, 89
12, 51704, Control_c, 9, 123, 0
12, 51707, Note_on_c, 9, 62, 0
12, 51715, Note_on_c, 9, 53, 0
12, 51717, Control_c, 9, 123, 0
12, 51720, Note_on_c, 9, 60, 101
12, 51720, Note_on_c, 9, 56, 92
12, 51739, Note_on_c, 9, 56, 0
12, 51740, Control_c, 9, 123, 0
12, 51744, Note_on_c, 9, 60, 0
12, 51745, Control_c, 9, 123, 0
12, 51749, Control_c, 9, 7, 88
12, 51750, Note_on_c, 9, 62, 84
12, 51769, Note_on_c, 9, 62, 0
12, 51769, Control_c, 9, 123, 0
12, 51780, Note_on_c, 9, 61, 82
12, 51780, Note_on_c, 9, 53, 35
12, 51788, Note_on_c, 9, 53, 0
12, 51790, Control_c, 9, 123, 0
12, 51796, Note_on_c, 9, 61, 0
12, 51797, Control_c, 9, 123, 0
12, 51805, Control_c, 9, 7, 87
12, 51810, Note_on_c, 9, 63, 92
12, 51810, Note_on_c, 9, 53, 80
12, 51827, Control_c, 9, 123, 0
12, 51829, Note_on_c, 9, 63, 0
12, 51836, Note_on_c, 9, 53, 0
12, 51839, Control_c, 9, 123, 0
12, 51840, Note_on_c, 9, 56, 92
12, 51840, Note_on_c, 9, 60, 78
12, 51858, Note_on_c, 9, 60, 0
12, 51859, Control_c, 9, 123, 0
12, 51860, Control_c, 9, 7, 86
12, 51861, Note_on_c, 9, 56, 0
12, 51861, Control_c, 9, 123, 0
12, 51870, Note_on_c, 9, 62, 87
12, 51883, Control_c, 9, 123, 0
12, 51886, Note_on_c, 9, 62, 0
12, 51900, Note_on_c, 9, 60, 61
12, 51914, Control_c, 9, 123, 0
12, 51915, Note_on_c, 9, 60, 0
12, 51916, Control_c, 9, 7, 85
12, 51930, Note_on_c, 9, 62, 82
12, 51942, Control_c, 9, 123, 0
12, 51946, Note_on_c, 9, 62, 0
12, 51960, Note_on_c, 9, 60, 105
12, 51960, Note_on_c, 9, 56, 87
12, 51971, Control_c, 9, 7, 84
12, 51976, Note_on_c, 9, 56, 0
12, 51980, Control_c, 9, 123, 0
12, 51981, Control_c, 9, 123, 0
12, 51982, Note_on_c, 9, 60, 0
12, 51990, Note_on_c, 9, 62, 87
12, 52003, Control_c, 9, 123, 0
12, 52007, Note_on_c, 9, 62, 0
12, 52020, Note_on_c, 9, 61, 72
12, 52027, Control_c, 9, 7, 83
12, 52033, Control_c, 9, 123, 0
12, 52036, Note_on_c, 9, 61, 0
12, 52050, Note_on_c, 9, 63, 104
12, 52063, Control_c, 9, 123, 0
12, 52069, Note_on_c, 9, 63, 0
12, 52080, Note_on_c, 9, 56, 87
12, 52083, Control_c, 9, 7, 82
12, 52098, Note_on_c, 9, 56, 0
12, 52101, Control_c, 9, 123, 0
12, 52110, Note_on_c, 9, 62, 92
12, 52125, Control_c, 9, 123, 0
12, 52129, Note_on_c, 9, 62, 0
12, 52138, Control_c, 9, 7, 81
12, 52140, Note_on_c, 9, 53, 48
12, 52150, Control_c, 9, 123, 0
12, 52151, Note_on_c, 9, 53, 0
12, 52170, Note_on_c, 9, 53, 68
12, 52170, Note_on_c, 9, 62, 84
12, 52181, Control_c, 9, 123, 0
12, 52189, Note_on_c, 9, 62, 0
12, 52192, Control_c, 9, 123, 0
12, 52194, Note_on_c, 9, 53, 0
12, 52194, Control_c, 9, 7, 80
12, 52200, Note_on_c, 9, 60, 101
12, 52200, Note_on_c, 9, 56, 92
12, 52219, Note_on_c, 9, 56, 0
12, 52221, Control_c, 9, 123, 0
12, 52222, Control_c, 9, 123, 0
12, 52228, Note_on_c, 9, 60, 0
12, 52230, Note_on_c, 9, 62, 84
12, 52247, Control_c, 9, 123, 0
12, 52249, Control_c, 9, 7, 79
12, 52251, Note_on_c, 9, 62, 0
12, 52260, Note_on_c, 9, 53, 44
12, 52260, Note_on_c, 9, 61, 82
12, 52272, Control_c, 9, 123, 0
12, 52272, Control_c, 9, 123, 0
12, 52273, Note_on_c, 9, 53, 0
12, 52276, Note_on_c, 9, 61, 0
12, 52290, Note_on_c, 9, 53, 62
12, 52290, Note_on_c, 9, 63, 92
12, 52302, Control_c, 9, 123, 0
12, 52305, Control_c, 9, 7, 78
12, 52306, Control_c, 9, 123, 0
12, 52307, Note_on_c, 9, 53, 0
12, 52309, Note_on_c, 9, 63, 0
12, 52320, Note_on_c, 9, 56, 92
12, 52320, Note_on_c, 9, 60, 89
12, 52334, Control_c, 9, 123, 0
12, 52335, Control_c, 9, 123, 0
12, 52336, Note_on_c, 9, 56, 0
12, 52338, Note_on_c, 9, 60, 0
12, 52350, Note_on_c, 9, 62, 89
12, 52356, Control_c, 9, 123, 0
12, 52360, Control_c, 9, 7, 77
12, 52366, Note_on_c, 9, 62, 0
12, 52380, Note_on_c, 9, 60, 65
12, 52386, Control_c, 9, 123, 0
12, 52396, Note_on_c, 9, 60, 0
12, 52410, Note_on_c, 9, 62, 68
12, 52416, Control_c, 9, 7, 76
12, 52416, Control_c, 9, 123, 0
12, 52429, Note_on_c, 9, 62, 0
12, 52440, Note_on_c, 9, 60, 105
12, 52440, Note_on_c, 9, 56, 98
12, 52451, Control_c, 9, 123, 0
12, 52456, Note_on_c, 9, 56, 0
12, 52462, Note_on_c, 9, 60, 0
12, 52462, Control_c, 9, 123, 0
12, 52470, Note_on_c, 9, 62, 76
12, 52472, Control_c, 9, 7, 75
12, 52481, Control_c, 9, 123, 0
12, 52490, Note_on_c, 9, 62, 0
12, 52500, Note_on_c, 9, 53, 66
12, 52500, Note_on_c, 9, 61, 82
12, 52511, Control_c, 9, 123, 0
12, 52518, Note_on_c, 9, 61, 0
12, 52521, Control_c, 9, 123, 0
12, 52527, Control_c, 9, 7, 74
12, 52528, Note_on_c, 9, 53, 0
12, 52530, Note_on_c, 9, 63, 92
12, 52540, Control_c, 9, 123, 0
12, 52550, Note_on_c, 9, 63, 0
12, 52560, Note_on_c, 9, 56, 92
12, 52578, Note_on_c, 9, 56, 0
12, 52581, Control_c, 9, 123, 0
12, 52583, Control_c, 9, 7, 73
12, 52590, Note_on_c, 9, 62, 84
12, 52602, Control_c, 9, 123, 0
12, 52608, Note_on_c, 9, 62, 0
12, 52638, Control_c, 9, 7, 72
12, 52650, Note_on_c, 9, 62, 78
12, 52661, Control_c, 9, 123, 0
12, 52668, Note_on_c, 9, 62, 0
12, 52680, Note_on_c, 9, 60, 109
12, 52680, Note_on_c, 9, 56, 98
12, 52694, Control_c, 9, 7, 71
12, 52697, Note_on_c, 9, 56, 0
12, 52697, Control_c, 9, 123, 0
12, 52700, Control_c, 9, 123, 0
12, 52702, Note_on_c, 9, 60, 0
12, 52710, Note_on_c, 9, 62, 82
12, 52726, Control_c, 9, 123, 0
12, 52730, Note_on_c, 9, 62, 0
12, 52740, Note_on_c, 9, 61, 72
12, 52740, Note_on_c, 9, 53, 64
12, 52749, Control_c, 9, 7, 70
12, 52754, Control_c, 9, 123, 0
12, 52756, Note_on_c, 9, 61, 0
12, 52763, Note_on_c, 9, 53, 0
12, 52765, Control_c, 9, 123, 0
12, 52770, Note_on_c, 9, 63, 92
12, 52785, Control_c, 9, 123, 0
12, 52789, Note_on_c, 9, 63, 0
12, 52800, Note_on_c, 9, 60, 92
12, 52800, Note_on_c, 9, 56, 98
12, 52805, Control_c, 9, 7, 69
12, 52818, Control_c, 9, 123, 0
12, 52819, Note_on_c, 9, 56, 0
12, 52821, Note_on_c, 9, 60, 0
12, 52822, Control_c, 9, 123, 0
12, 52830, Note_on_c, 9, 62, 84
12, 52840, Control_c, 9, 123, 0
12, 52845, Note_on_c, 9, 62, 0
12, 52860, Note_on_c, 9, 60, 71
12, 52861, Control_c, 9, 7, 68
12, 52873, Control_c, 9, 123, 0
12, 52878, Note_on_c, 9, 60, 0
12, 52890, Note_on_c, 9, 62, 82
12, 52903, Control_c, 9, 123, 0
12, 52908, Note_on_c, 9, 62, 0
12, 52916, Control_c, 9, 7, 67
12, 52920, Note_on_c, 9, 60, 98
12, 52920, Note_on_c, 9, 56, 92
12, 52937, Note_on_c, 9, 56, 0
12, 52937, Control_c, 9, 123, 0
12, 52939, Note_on_c, 9, 60, 0
12, 52939, Control_c, 9, 123, 0
12, 52950, Note_on_c, 9, 62, 80
12, 52964, Control_c, 9, 123, 0
12, 52969, Note_on_c, 9, 62, 0
12, 52972, Control_c, 9, 7, 66
12, 52980, Note_on_c, 9, 61, 78
12, 52980, Note_on_c, 9, 53, 69
12, 52993, Control_c, 9, 123, 0
12, 52998, Note_on_c, 9, 61, 0
12, 53008, Note_on_c, 9, 53, 0
12, 53010, Note_on_c, 9, 63, 98
12, 53014, Control_c, 9, 123, 0
12, 53023, Control_c, 9, 123, 0
12, 53027, Control_c, 9, 7, 65
12, 53030, Note_on_c, 9, 63, 0
12, 53040, Note_on_c, 9, 56, 92
12, 53059, Note_on_c, 9, 56, 0
12, 53063, Control_c, 9, 123, 0
12, 53070, Note_on_c, 9, 62, 101
12, 53081, Control_c, 9, 123, 0
12, 53083, Control_c, 9, 7, 64
12, 53087, Note_on_c, 9, 62, 0
12, 53100, Note_on_c, 9, 53, 49
12, 53117, Note_on_c, 9, 53, 0
12, 53119, Control_c, 9, 123, 0
12, 53130, Note_on_c, 9, 62, 89
12, 53130, Note_on_c, 9, 53, 65
12, 53139, Control_c, 9, 7, 63
12, 53144, Control_c, 9, 123, 0
12, 53146, Note_on_c, 9, 62, 0
12, 53156, Note_on_c, 9, 53, 0
12, 53157, Control_c, 9, 123, 0
12, 53160, Note_on_c, 9, 60, 101
12, 53160, Note_on_c, 9, 56, 87
12, 53176, Control_c, 9, 123, 0
12, 53177, Note_on_c, 9, 56, 0
12, 53181, Note_on_c, 9, 60, 0
12, 53181, Control_c, 9, 123, 0
12, 53190, Note_on_c, 9, 62, 82
12, 53194, Control_c, 9, 7, 62
12, 53205, Control_c, 9, 123, 0
12, 53210, Note_on_c, 9, 62, 0
12, 53220, Note_on_c, 9, 61, 82
12, 53220, Note_on_c, 9, 53, 56
12, 53234, Control_c, 9, 123, 0
12, 53235, Note_on_c, 9, 53, 0
12, 53237, Note_on_c, 9, 61, 0
12, 53237, Control_c, 9, 123, 0
12, 53250, Control_c, 9, 7, 61
12, 53250, Note_on_c, 9, 53, 64
12, 53250, Note_on_c, 9, 63, 87
12, 53262, Control_c, 9, 123, 0
12, 53268, Note_on_c, 9, 63, 0
12, 53273, Note_on_c, 9, 53, 0
12, 53273, Control_c, 9, 123, 0
12, 53280, Note_on_c, 9, 56, 92
12, 53280, Note_on_c, 9, 60, 84
12, 53295, Control_c, 9, 123, 0
12, 53298, Note_on_c, 9, 56, 0
12, 53298, Control_c, 9, 123, 0
12, 53299, Note_on_c, 9, 60, 0
12, 53305, Control_c, 9, 7, 60
12, 53310, Note_on_c, 9, 62, 87
12, 53319, Control_c, 9, 123, 0
12, 53326, Note_on_c, 9, 62, 0
12, 53340, Note_on_c, 9, 60, 53
12, 53346, Control_c, 9, 123, 0
12, 53351, Note_on_c, 9, 60, 0
12, 53361, Control_c, 9, 7, 59
12, 53370, Note_on_c, 9, 62, 76
12, 53377, Control_c, 9, 123, 0
12, 53386, Note_on_c, 9, 62, 0
12, 53400, Note_on_c, 9, 60, 105
12, 53400, Note_on_c, 9, 56, 98
12, 53413, Control_c, 9, 123, 0
12, 53416, Control_c, 9, 7, 58
12, 53417, Note_on_c, 9, 56, 0
12, 53422, Note_on_c, 9, 60, 0
12, 53423, Control_c, 9, 123, 0
12, 53430, Note_on_c, 9, 62, 74
12, 53440, Control_c, 9, 123, 0
12, 53451, Note_on_c, 9, 62, 0
12, 53460, Note_on_c, 9, 61, 82
12, 53460, Note_on_c, 9, 53, 59
12, 53467, Control_c, 9, 123, 0
12, 53472, Control_c, 9, 7, 57
12, 53477, Note_on_c, 9, 61, 0
12, 53487, Note_on_c, 9, 53, 0
12, 53489, Control_c, 9, 123, 0
12, 53490, Note_on_c, 9, 63, 98
12, 53498, Control_c, 9, 123, 0
12, 53509, Note_on_c, 9, 63, 0
12, 53520, Note_on_c, 9, 56, 92
12, 53528, Control_c, 9, 7, 56
12, 53539, Note_on_c, 9, 56, 0
12, 53544, Control_c, 9, 123, 0
12, 53550, Note_on_c, 9, 62, 101
12, 53557, Control_c, 9, 123, 0
12, 53567, Note_on_c, 9, 62, 0
12, 53580, Note_on_c, 9, 62, 58
12, 53583, Control_c, 9, 7, 55
12, 53600, Note_on_c, 9, 62, 0
12, 53614, Control_c, 9, 123, 0
12, 53639, Control_c, 9, 7, 54
12, 53640, Note_on_c, 9, 60, 105
12, 53640, Note_on_c, 9, 56, 92
12, 53650, Control_c, 9, 123, 0
12, 53657, Note_on_c, 9, 56, 0
12, 53660, Control_c, 9, 123, 0
12, 53661, Note_on_c, 9, 60, 0
12, 53670, Note_on_c, 9, 62, 87
12, 53681, Control_c, 9, 123, 0
12, 53689, Note_on_c, 9, 62, 0
12, 53694, Control_c, 9, 7, 53
12, 53700, Note_on_c, 9, 53, 69
12, 53700, Note_on_c, 9, 61, 87
12, 53710, Control_c, 9, 123, 0
12, 53717, Note_on_c, 9, 61, 0
12, 53730, Note_on_c, 9, 63, 92
12, 53731, Note_on_c, 9, 53, 0
12, 53731, Control_c, 9, 123, 0
12, 53739, Control_c, 9, 123, 0
12, 53748, Note_on_c, 9, 63, 0
12, 53750, Control_c, 9, 7, 52
12, 53760, Note_on_c, 9, 60, 98
12, 53760, Note_on_c, 9, 56, 92
12, 53773, Control_c, 9, 123, 0
12, 53778, Note_on_c, 9, 56, 0
12, 53780, Control_c, 9, 123, 0
12, 53781, Note_on_c, 9, 60, 0
12, 53790, Note_on_c, 9, 62, 89
12, 53797, Control_c, 9, 123, 0
12, 53805, Control_c, 9, 7, 51
12, 53806, Note_on_c, 9, 62, 0
12, 53820, Note_on_c, 9, 60, 59
12, 53828, Control_c, 9, 123, 0
12, 53835, Note_on_c, 9, 60, 0
12, 53850, Note_on_c, 9, 62, 71
12, 53858, Control_c, 9, 123, 0
12, 53861, Control_c, 9, 7, 50
12, 53868, Note_on_c, 9, 62, 0
12, 53880, Note_on_c, 9, 60, 95
12, 53880, Note_on_c, 9, 56, 92
12, 53895, Control_c, 9, 123, 0
12, 53898, Note_on_c, 9, 56, 0
12, 53902, Note_on_c, 9, 60, 0
12, 53903, Control_c, 9, 123, 0
12, 53910, Note_on_c, 9, 62, 82
12, 53917, Control_c, 9, 7, 49
12, 53921, Control_c, 9, 123, 0
12, 53930, Note_on_c, 9, 62, 0
12, 53940, Note_on_c, 9, 53, 72
12, 53940, Note_on_c, 9, 61, 75
12, 53948, Control_c, 9, 123, 0
12, 53957, Note_on_c, 9, 61, 0
12, 53970, Note_on_c, 9, 63, 78
12, 53972, Control_c, 9, 7, 48
12, 53975, Note_on_c, 9, 53, 0
12, 53975, Control_c, 9, 123, 0
12, 53979, Control_c, 9, 123, 0
12, 53988, Note_on_c, 9, 63, 0
12, 54000, Note_on_c, 9, 56, 87
12, 54018, Note_on_c, 9, 56, 0
12, 54022, Control_c, 9, 123, 0
12, 54028, Control_c, 9, 7, 47
12, 54030, Note_on_c, 9, 62, 92
12, 54037, Control_c, 9, 123, 0
12, 54047, Note_on_c, 9, 62, 0
12, 54060, Note_on_c, 9, 53, 50
12, 54069, Note_on_c, 9, 53, 0
12, 54069, Control_c, 9, 123, 0
12, 54083, Control_c, 9, 7, 46
12, 54090, Note_on_c, 9, 53, 60
12, 54090, Note_on_c, 9, 62, 80
12, 54095, Control_c, 9, 123, 0
12, 54107, Note_on_c, 9, 62, 0
12, 54108, Control_c, 9, 123, 0
12, 54109, Note_on_c, 9, 53, 0
12, 54120, Note_on_c, 9, 60, 95
12, 54120, Note_on_c, 9, 56, 98
12, 54132, Control_c, 9, 123, 0
12, 54139, Note_on_c, 9, 56, 0
12, 54139, Control_c, 9, 7, 45
12, 54142, Note_on_c, 9, 60, 0
12, 54142, Control_c, 9, 123, 0
12, 54150, Note_on_c, 9, 62, 72
12, 54159, Control_c, 9, 123, 0
12, 54171, Note_on_c, 9, 62, 0
12, 54180, Note_on_c, 9, 61, 78
12, 54180, Note_on_c, 9, 53, 34
12, 54183, Note_on_c, 9, 53, 0
12, 54186, Control_c, 9, 123, 0
12, 54188, Control_c, 9, 123, 0
12, 54195, Control_c, 9, 7, 44
12, 54197, Note_on_c, 9, 61, 0
12, 54210, Note_on_c, 9, 53, 80
12, 54210, Note_on_c, 9, 63, 78
12, 54219, Control_c, 9, 123, 0
12, 54228, Note_on_c, 9, 63, 0
12, 54230, Control_c, 9, 123, 0
12, 54231, Note_on_c, 9, 53, 0
12, 54240, Note_on_c, 9, 60, 80
12, 54240, Note_on_c, 9, 56, 82
12, 54250, Control_c, 9, 7, 43
12, 54251, Control_c, 9, 123, 0
12, 54259, Note_on_c, 9, 56, 0
12, 54260, Note_on_c, 9, 60, 0
12, 54260, Control_c, 9, 123, 0
12, 54270, Note_on_c, 9, 62, 82
12, 54275, Control_c, 9, 123, 0
12, 54286, Note_on_c, 9, 62, 0
12, 54300, Note_on_c, 9, 60, 60
12, 54305, Control_c, 9, 123, 0
12, 54306, Control_c, 9, 7, 42
12, 54317, Note_on_c, 9, 60, 0
12, 54330, Note_on_c, 9, 62, 78
12, 54336, Control_c, 9, 123, 0
12, 54348, Note_on_c, 9, 62, 0
12, 54360, Note_on_c, 9, 56, 98
12, 54360, Note_on_c, 9, 60, 98
12, 54361, Control_c, 9, 7, 41
12, 54372, Control_c, 9, 123, 0
12, 54379, Note_on_c, 9, 56, 0
12, 54379, Control_c, 9, 123, 0
12, 54383, Note_on_c, 9, 60, 0
12, 54390, Note_on_c, 9, 62, 87
12, 54394, Control_c, 9, 123, 0
12, 54409, Note_on_c, 9, 62, 0
12, 54417, Control_c, 9, 7, 40
12, 54420, Note_on_c, 9, 61, 78
12, 54420, Note_on_c, 9, 53, 80
12, 54425, Control_c, 9, 123, 0
12, 54437, Note_on_c, 9, 61, 0
12, 54445, Note_on_c, 9, 53, 0
12, 54447, Control_c, 9, 123, 0
12, 54450, Note_on_c, 9, 63, 82
12, 54455, Control_c, 9, 123, 0
12, 54469, Note_on_c, 9, 63, 0
12, 54472, Control_c, 9, 7, 39
12, 54480, Note_on_c, 9, 56, 98
12, 54499, Note_on_c, 9, 56, 0
12, 54499, Control_c, 9, 123, 0
12, 54510, Note_on_c, 9, 62, 89
12, 54520, Control_c, 9, 123, 0
12, 54528, Control_c, 9, 7, 38
12, 54529, Note_on_c, 9, 62, 0
12, 54570, Note_on_c, 9, 62, 74
12, 54580, Control_c, 9, 123, 0
12, 54584, Control_c, 9, 7, 37
12, 54588, Note_on_c, 9, 62, 0
12, 54600, Note_on_c, 9, 60, 98
12, 54600, Note_on_c, 9, 56, 92
12, 54618, Note_on_c, 9, 56, 0
12, 54619, Control_c, 9, 123, 0
12, 54619, Control_c, 9, 123, 0
12, 54627, Note_on_c, 9, 60, 0
12, 54630, Note_on_c, 9, 62, 84
12, 54639, Control_c, 9, 7, 36
12, 54640, Control_c, 9, 123, 0
12, 54648, Note_on_c, 9, 62, 0
12, 54660, Note_on_c, 9, 61, 78
12, 54660, Note_on_c, 9, 53, 78
12, 54669, Control_c, 9, 123, 0
12, 54676, Note_on_c, 9, 61, 0
12, 54683, Note_on_c, 9, 53, 0
12, 54688, Control_c, 9, 123, 0
12, 54690, Note_on_c, 9, 63, 78
12, 54695, Control_c, 9, 7, 35
12, 54700, Control_c, 9, 123, 0
12, 54708, Note_on_c, 9, 63, 0
12, 54720, Note_on_c, 9, 60, 92
12, 54720, Note_on_c, 9, 56, 87
12, 54732, Control_c, 9, 123, 0
12, 54738, Note_on_c, 9, 56, 0
12, 54739, Note_on_c, 9, 60, 0
12, 54741, Control_c, 9, 123, 0
12, 54750, Control_c, 9, 7, 34
12, 54750, Note_on_c, 9, 62, 65
12, 54760, Control_c, 9, 123, 0
12, 54768, Note_on_c, 9, 62, 0
12, 54780, Note_on_c, 9, 60, 71
12, 54791, Control_c, 9, 123, 0
12, 54795, Note_on_c, 9, 60, 0
12, 54806, Control_c, 9, 7, 33
12, 54810, Note_on_c, 9, 62, 80
12, 54818, Control_c, 9, 123, 0
12, 54826, Note_on_c, 9, 62, 0
12, 54840, Note_on_c, 9, 60, 98
12, 54840, Note_on_c, 9, 56, 92
12, 54859, Note_on_c, 9, 56, 0
12, 54859, Control_c, 9, 123, 0
12, 54861, Control_c, 9, 7, 32
12, 54861, Control_c, 9, 123, 0
12, 54866, Note_on_c, 9, 60, 0
12, 54870, Note_on_c, 9, 62, 84
12, 54884, Control_c, 9, 123, 0
12, 54891, Note_on_c, 9, 62, 0
12, 54900, Note_on_c, 9, 53, 60
12, 54900, Note_on_c, 9, 61, 78
12, 54913, Control_c, 9, 123, 0
12, 54917, Control_c, 9, 7, 31
12, 54918, Note_on_c, 9, 61, 0
12, 54918, Control_c, 9, 123, 0
12, 54919, Note_on_c, 9, 53, 0
12, 54930, Note_on_c, 9, 53, 68
12, 54930, Note_on_c, 9, 63, 92
12, 54940, Control_c, 9, 123, 0
12, 54947, Note_on_c, 9, 63, 0
12, 54955, Note_on_c, 9, 53, 0
12, 54955, Control_c, 9, 123, 0
12, 54960, Note_on_c, 9, 56, 87
12, 54973, Control_c, 9, 7, 30
12, 54978, Note_on_c, 9, 56, 0
12, 54983, Control_c, 9, 123, 0
12, 54990, Note_on_c, 9, 62, 98
12, 55004, Control_c, 9, 123, 0
12, 55008, Note_on_c, 9, 62, 0
12, 55020, Note_on_c, 9, 53, 52
12, 55028, Control_c, 9, 7, 29
12, 55034, Control_c, 9, 123, 0
12, 55035, Note_on_c, 9, 53, 0
12, 55050, Note_on_c, 9, 53, 62
12, 55050, Note_on_c, 9, 62, 84
12, 55062, Control_c, 9, 123, 0
12, 55067, Note_on_c, 9, 62, 0
12, 55073, Control_c, 9, 123, 0
12, 55075, Note_on_c, 9, 53, 0
12, 55080, Note_on_c, 9, 60, 98
12, 55080, Note_on_c, 9, 56, 92
12, 55084, Control_c, 9, 7, 28
12, 55095, Control_c, 9, 123, 0
12, 55099, Note_on_c, 9, 56, 0
12, 55101, Control_c, 9, 123, 0
12, 55103, Note_on_c, 9, 60, 0
12, 55110, Note_on_c, 9, 62, 84
12, 55120, Control_c, 9, 123, 0
12, 55128, Note_on_c, 9, 62, 0
12, 55139, Control_c, 9, 7, 27
12, 55140, Note_on_c, 9, 61, 78
12, 55140, Note_on_c, 9, 53, 63
12, 55150, Control_c, 9, 123, 0
12, 55154, Note_on_c, 9, 53, 0
12, 55155, Control_c, 9, 123, 0
12, 55156, Note_on_c, 9, 61, 0
12, 55170, Note_on_c, 9, 63, 98
12, 55170, Note_on_c, 9, 53, 78
12, 55178, Control_c, 9, 123, 0
12, 55188, Note_on_c, 9, 63, 0
12, 55191, Note_on_c, 9, 53, 0
12, 55192, Control_c, 9, 123, 0
12, 55195, Control_c, 9, 7, 26
12, 55200, Note_on_c, 9, 60, 89
12, 55200, Note_on_c, 9, 56, 82
12, 55211, Control_c, 9, 123, 0
12, 55218, Note_on_c, 9, 56, 0
12, 55219, Note_on_c, 9, 60, 0
12, 55223, Control_c, 9, 123, 0
12, 55230, Note_on_c, 9, 62, 74
12, 55238, Control_c, 9, 123, 0
12, 55248, Note_on_c, 9, 62, 0
12, 55251, Control_c, 9, 7, 25
12, 55260, Note_on_c, 9, 60, 65
12, 55268, Control_c, 9, 123, 0
12, 55275, Note_on_c, 9, 60, 0
12, 55290, Note_on_c, 9, 62, 78
12, 55296, Control_c, 9, 123, 0
12, 55306, Control_c, 9, 7, 24
12, 55308, Note_on_c, 9, 62, 0
12, 55320, Note_on_c, 9, 60, 84
12, 55320, Note_on_c, 9, 56, 92
12, 55339, Note_on_c, 9, 56, 0
12, 55339, Control_c, 9, 123, 0
12, 55342, Control_c, 9, 123, 0
12, 55348, Note_on_c, 9, 60, 0
12, 55350, Note_on_c, 9, 62, 76
12, 55362, Control_c, 9, 7, 23
12, 55362, Control_c, 9, 123, 0
12, 55371, Note_on_c, 9, 62, 0
12, 55380, Note_on_c, 9, 53, 58
12, 55380, Note_on_c, 9, 61, 82
12, 55392, Control_c, 9, 123, 0
12, 55393, Control_c, 9, 123, 0
12, 55395, Note_on_c, 9, 53, 0
12, 55398, Note_on_c, 9, 61, 0
12, 55410, Note_on_c, 9, 53, 76
12, 55410, Note_on_c, 9, 63, 98
12, 55417, Control_c, 9, 7, 22
12, 55419, Control_c, 9, 123, 0
12, 55427, Note_on_c, 9, 63, 0
12, 55432, Control_c, 9, 123, 0
12, 55433, Note_on_c, 9, 53, 0
12, 55440, Note_on_c, 9, 56, 98
12, 55459, Note_on_c, 9, 56, 0
12, 55466, Control_c, 9, 123, 0
12, 55470, Note_on_c, 9, 62, 92
12, 55473, Control_c, 9, 7, 21
12, 55481, Control_c, 9, 123, 0
12, 55488, Note_on_c, 9, 62, 0
12, 55528, Control_c, 9, 7, 20
12, 55530, Note_on_c, 9, 62, 80
12, 55541, Control_c, 9, 123, 0
12, 55549, Note_on_c, 9, 62, 0
12, 55560, Note_on_c, 9, 60, 101
12, 55560, Note_on_c, 9, 56, 98
12, 55574, Control_c, 9, 123, 0
12, 55580, Note_on_c, 9, 56, 0
12, 55582, Note_on_c, 9, 60, 0
12, 55584, Control_c, 9, 7, 19
12, 55584, Control_c, 9, 123, 0
12, 55590, Note_on_c, 9, 62, 80
12, 55603, Control_c, 9, 123, 0
12, 55609, Note_on_c, 9, 62, 0
12, 55620, Note_on_c, 9, 61, 98
12, 55620, Note_on_c, 9, 53, 55
12, 55629, Note_on_c, 9, 53, 0
12, 55631, Control_c, 9, 123, 0
12, 55632, Control_c, 9, 123, 0
12, 55636, Note_on_c, 9, 61, 0
12, 55640, Control_c, 9, 7, 18
12, 55650, Note_on_c, 9, 63, 98
12, 55650, Note_on_c, 9, 53, 71
12, 55662, Control_c, 9, 123, 0
12, 55668, Note_on_c, 9, 63, 0
12, 55669, Note_on_c, 9, 53, 0
12, 55670, Control_c, 9, 123, 0
12, 55680, Note_on_c, 9, 56, 98
12, 55680, Note_on_c, 9, 51, 87
12, 55680, Note_on_c, 9, 42, 92
12, 55695, Control_c, 9, 7, 17
12, 55697, Control_c, 9, 123, 0
12, 55699, Note_on_c, 9, 56, 0
12, 55705, Note_on_c, 9, 42, 0
12, 55707, Note_on_c, 9, 51, 0
12, 55710, Control_c, 9, 123, 0
12, 55711, Control_c, 9, 123, 0
12, 55751, Control_c, 9, 7, 16
12, 55800, Note_on_c, 9, 42, 98
12, 55806, Control_c, 9, 7, 15
12, 55826, Note_on_c, 9, 42, 0
12, 55829, Control_c, 9, 123, 0
12, 55862, Control_c, 9, 7, 14
12, 55917, Control_c, 9, 7, 13
12, 55920, Note_on_c, 9, 42, 110
12, 55944, Note_on_c, 9, 42, 0
12, 55949, Control_c, 9, 123, 0
12, 55973, Control_c, 9, 7, 12
12, 55980, Note_on_c, 9, 51, 72
12, 56004, Note_on_c, 9, 51, 0
12, 56029, Control_c, 9, 7, 11
12, 56084, Control_c, 9, 7, 10
12, 56140, Control_c, 9, 7, 9
12, 56195, Control_c, 9, 7, 8
12, 56251, Control_c, 9, 7, 7
12, 56307, Control_c, 9, 7, 6
12, 56362, Control_c, 9, 7, 5
12, 56418, Control_c, 9, 7, 4
12, 56473, Control_c, 9, 7, 3
12, 56529, Control_c, 9, 7, 2
12, 56584, Control_c, 9, 7, 1
12, 56640, Control_c, 9, 7, 0
12, 56640, End_track
13, 0, Start_track
13, 0, MIDI_port, 0
13, 0, Title_t, "............................"
13, 0, Program_c, 10, 52
13, 27835, Note_on_c, 10, 60, 67
13, 27837, Note_on_c, 10, 64, 59
13, 27838, Note_on_c, 10, 57, 62
13, 27838, Note_on_c, 10, 53, 62
13, 28746, Note_on_c, 10, 57, 0
13, 28756, Note_on_c, 10, 60, 0
13, 28756, Note_on_c, 10, 53, 0
13, 28766, Note_on_c, 10, 64, 0
13, 28766, Control_c, 10, 123, 0
13, 28809, Note_on_c, 10, 58, 61
13, 28809, Note_on_c, 10, 62, 67
13, 28813, Note_on_c, 10, 65, 68
13, 28814, Note_on_c, 10, 55, 80
13, 29718, Note_on_c, 10, 58, 0
13, 29719, Note_on_c, 10, 65, 0
13, 29726, Note_on_c, 10, 62, 0
13, 29730, Note_on_c, 10, 55, 0
13, 29730, Control_c, 10, 123, 0
13, 29759, Note_on_c, 10, 60, 65
13, 29761, Note_on_c, 10, 64, 60
13, 29762, Note_on_c, 10, 57, 74
13, 29765, Note_on_c, 10, 53, 67
13, 30676, Note_on_c, 10, 57, 0
13, 30686, Note_on_c, 10, 53, 0
13, 30691, Note_on_c, 10, 60, 0
13, 30693, Note_on_c, 10, 64, 0
13, 30693, Control_c, 10, 123, 0
13, 30719, Note_on_c, 10, 58, 73
13, 30720, Note_on_c, 10, 62, 77
13, 30720, Note_on_c, 10, 65, 65
13, 30721, Note_on_c, 10, 55, 80
13, 30725, Note_on_c, 10, 64, 58
13, 30729, Note_on_c, 10, 64, 0
13, 31195, Note_on_c, 10, 67, 77
13, 31664, Note_on_c, 10, 58, 0
13, 31666, Note_on_c, 10, 62, 0
13, 31666, Note_on_c, 10, 65, 0
13, 31666, Note_on_c, 10, 55, 0
13, 31668, Note_on_c, 10, 67, 0
13, 31668, Control_c, 10, 123, 0
13, 51360, Control_c, 10, 7, 100
13, 51413, Control_c, 10, 7, 99
13, 51466, Control_c, 10, 7, 98
13, 51518, Control_c, 10, 7, 97
13, 51571, Control_c, 10, 7, 96
13, 51624, Control_c, 10, 7, 95
13, 51677, Control_c, 10, 7, 94
13, 51730, Control_c, 10, 7, 93
13, 51782, Control_c, 10, 7, 92
13, 51835, Control_c, 10, 7, 91
13, 51888, Control_c, 10, 7, 90
13, 51941, Control_c, 10, 7, 89
13, 51994, Control_c, 10, 7, 88
13, 52046, Control_c, 10, 7, 87
13, 52099, Control_c, 10, 7, 86
13, 52152, Control_c, 10, 7, 85
13, 52205, Control_c, 10, 7, 84
13, 52258, Control_c, 10, 7, 83
13, 52310, Control_c, 10, 7, 82
13, 52363, Control_c, 10, 7, 81
13, 52416, Control_c, 10, 7, 80
13, 52469, Control_c, 10, 7, 79
13, 52522, Control_c, 10, 7, 78
13, 52574, Control_c, 10, 7, 77
13, 52627, Control_c, 10, 7, 76
13, 52680, Control_c, 10, 7, 75
13, 52733, Control_c, 10, 7, 74
13, 52786, Control_c, 10, 7, 73
13, 52838, Control_c, 10, 7, 72
13, 52891, Control_c, 10, 7, 71
13, 52944, Control_c, 10, 7, 70
13, 52997, Control_c, 10, 7, 69
13, 53050, Control_c, 10, 7, 68
13, 53102, Control_c, 10, 7, 67
13, 53155, Control_c, 10, 7, 66
13, 53208, Control_c, 10, 7, 65
13, 53261, Control_c, 10, 7, 64
13, 53314, Control_c, 10, 7, 63
13, 53366, Control_c, 10, 7, 62
13, 53419, Control_c, 10, 7, 61
13, 53472, Control_c, 10, 7, 60
13, 53525, Control_c, 10, 7, 59
13, 53578, Control_c, 10, 7, 58
13, 53630, Control_c, 10, 7, 57
13, 53683, Control_c, 10, 7, 56
13, 53736, Control_c, 10, 7, 55
13, 53789, Control_c, 10, 7, 54
13, 53842, Control_c, 10, 7, 53
13, 53894, Control_c, 10, 7, 52
13, 53947, Control_c, 10, 7, 51
13, 54000, Control_c, 10, 7, 50
13, 54053, Control_c, 10, 7, 49
13, 54106, Control_c, 10, 7, 48
13, 54158, Control_c, 10, 7, 47
13, 54211, Control_c, 10, 7, 46
13, 54264, Control_c, 10, 7, 45
13, 54317, Control_c, 10, 7, 44
13, 54370, Control_c, 10, 7, 43
13, 54422, Control_c, 10, 7, 42
13, 54475, Control_c, 10, 7, 41
13, 54528, Control_c, 10, 7, 40
13, 54581, Control_c, 10, 7, 39
13, 54634, Control_c, 10, 7, 38
13, 54686, Control_c, 10, 7, 37
13, 54739, Control_c, 10, 7, 36
13, 54792, Control_c, 10, 7, 35
13, 54845, Control_c, 10, 7, 34
13, 54898, Control_c, 10, 7, 33
13, 54950, Control_c, 10, 7, 32
13, 55003, Control_c, 10, 7, 31
13, 55056, Control_c, 10, 7, 30
13, 55109, Control_c, 10, 7, 29
13, 55162, Control_c, 10, 7, 28
13, 55214, Control_c, 10, 7, 27
13, 55267, Control_c, 10, 7, 26
13, 55320, Control_c, 10, 7, 25
13, 55373, Control_c, 10, 7, 24
13, 55426, Control_c, 10, 7, 23
13, 55478, Control_c, 10, 7, 22
13, 55531, Control_c, 10, 7, 21
13, 55584, Control_c, 10, 7, 20
13, 55637, Control_c, 10, 7, 19
13, 55690, Control_c, 10, 7, 18
13, 55742, Control_c, 10, 7, 17
13, 55795, Control_c, 10, 7, 16
13, 55848, Control_c, 10, 7, 15
13, 55901, Control_c, 10, 7, 14
13, 55954, Control_c, 10, 7, 13
13, 56006, Control_c, 10, 7, 12
13, 56059, Control_c, 10, 7, 11
13, 56112, Control_c, 10, 7, 10
13, 56165, Control_c, 10, 7, 9
13, 56218, Control_c, 10, 7, 8
13, 56270, Control_c, 10, 7, 7
13, 56323, Control_c, 10, 7, 6
13, 56376, Control_c, 10, 7, 5
13, 56429, Control_c, 10, 7, 4
13, 56482, Control_c, 10, 7, 3
13, 56534, Control_c, 10, 7, 2
13, 56587, Control_c, 10, 7, 1
13, 56640, Control_c, 10, 7, 0
13, 56640, End_track
14, 0, Start_track
14, 0, MIDI_port, 0
14, 0, Title_t, "The BBS For"
14, 3840, Note_on_c, 9, 81, 77
14, 3876, Note_on_c, 9, 81, 0
14, 3876, Control_c, 9, 123, 0
14, 3900, Note_on_c, 9, 80, 68
14, 3914, Note_on_c, 9, 80, 0
14, 3919, Control_c, 9, 123, 0
14, 3930, Note_on_c, 9, 81, 65
14, 3942, Note_on_c, 9, 81, 0
14, 3946, Control_c, 9, 123, 0
14, 3960, Note_on_c, 9, 81, 71
14, 3990, Note_on_c, 9, 81, 0
14, 3994, Control_c, 9, 123, 0
14, 4020, Note_on_c, 9, 80, 63
14, 4031, Note_on_c, 9, 80, 0
14, 4035, Control_c, 9, 123, 0
14, 4050, Note_on_c, 9, 81, 63
14, 4059, Note_on_c, 9, 81, 0
14, 4060, Control_c, 9, 123, 0
14, 4080, Note_on_c, 9, 81, 71
14, 4102, Note_on_c, 9, 81, 0
14, 4102, Control_c, 9, 123, 0
14, 4140, Note_on_c, 9, 80, 51
14, 4147, Note_on_c, 9, 80, 0
14, 4153, Control_c, 9, 123, 0
14, 4170, Note_on_c, 9, 81, 60
14, 4179, Note_on_c, 9, 81, 0
14, 4183, Control_c, 9, 123, 0
14, 4200, Note_on_c, 9, 81, 65
14, 4228, Note_on_c, 9, 81, 0
14, 4230, Control_c, 9, 123, 0
14, 4260, Note_on_c, 9, 80, 54
14, 4266, Note_on_c, 9, 80, 0
14, 4270, Control_c, 9, 123, 0
14, 4290, Note_on_c, 9, 81, 63
14, 4300, Note_on_c, 9, 81, 0
14, 4303, Control_c, 9, 123, 0
14, 4320, Note_on_c, 9, 81, 74
14, 4339, Note_on_c, 9, 81, 0
14, 4341, Control_c, 9, 123, 0
14, 4380, Note_on_c, 9, 80, 54
14, 4387, Note_on_c, 9, 80, 0
14, 4392, Control_c, 9, 123, 0
14, 4410, Note_on_c, 9, 81, 60
14, 4418, Note_on_c, 9, 81, 0
14, 4420, Control_c, 9, 123, 0
14, 4440, Note_on_c, 9, 81, 74
14, 4462, Note_on_c, 9, 81, 0
14, 4462, Control_c, 9, 123, 0
14, 4500, Note_on_c, 9, 80, 63
14, 4506, Note_on_c, 9, 80, 0
14, 4512, Control_c, 9, 123, 0
14, 4530, Note_on_c, 9, 81, 68
14, 4540, Note_on_c, 9, 81, 0
14, 4545, Control_c, 9, 123, 0
14, 4560, Note_on_c, 9, 81, 68
14, 4578, Note_on_c, 9, 81, 0
14, 4581, Control_c, 9, 123, 0
14, 4620, Note_on_c, 9, 80, 74
14, 4633, Note_on_c, 9, 80, 0
14, 4638, Control_c, 9, 123, 0
14, 4650, Note_on_c, 9, 81, 56
14, 4658, Note_on_c, 9, 81, 0
14, 4660, Control_c, 9, 123, 0
14, 4680, Note_on_c, 9, 81, 74
14, 4702, Note_on_c, 9, 81, 0
14, 4704, Control_c, 9, 123, 0
14, 4740, Note_on_c, 9, 80, 63
14, 4747, Note_on_c, 9, 80, 0
14, 4749, Control_c, 9, 123, 0
14, 4770, Note_on_c, 9, 81, 56
14, 4778, Note_on_c, 9, 81, 0
14, 4778, Control_c, 9, 123, 0
14, 4800, Note_on_c, 9, 81, 71
14, 4818, Control_c, 9, 123, 0
14, 4820, Note_on_c, 9, 81, 0
14, 4860, Note_on_c, 9, 80, 74
14, 4875, Note_on_c, 9, 80, 0
14, 4878, Control_c, 9, 123, 0
14, 4890, Note_on_c, 9, 81, 58
14, 4900, Control_c, 9, 123, 0
14, 4901, Note_on_c, 9, 81, 0
14, 4920, Note_on_c, 9, 81, 65
14, 4940, Control_c, 9, 123, 0
14, 4941, Note_on_c, 9, 81, 0
14, 4980, Note_on_c, 9, 80, 74
14, 4992, Note_on_c, 9, 80, 0
14, 4995, Control_c, 9, 123, 0
14, 5010, Note_on_c, 9, 81, 60
14, 5019, Note_on_c, 9, 81, 0
14, 5020, Control_c, 9, 123, 0
14, 5040, Note_on_c, 9, 81, 63
14, 5060, Note_on_c, 9, 81, 0
14, 5060, Control_c, 9, 123, 0
14, 5100, Note_on_c, 9, 80, 63
14, 5107, Note_on_c, 9, 80, 0
14, 5110, Control_c, 9, 123, 0
14, 5130, Note_on_c, 9, 81, 60
14, 5139, Note_on_c, 9, 81, 0
14, 5140, Control_c, 9, 123, 0
14, 5160, Note_on_c, 9, 81, 68
14, 5182, Note_on_c, 9, 81, 0
14, 5184, Control_c, 9, 123, 0
14, 5220, Note_on_c, 9, 80, 58
14, 5227, Note_on_c, 9, 80, 0
14, 5230, Control_c, 9, 123, 0
14, 5250, Note_on_c, 9, 81, 65
14, 5260, Note_on_c, 9, 81, 0
14, 5262, Control_c, 9, 123, 0
14, 5280, Note_on_c, 9, 81, 63
14, 5298, Control_c, 9, 123, 0
14, 5299, Note_on_c, 9, 81, 0
14, 5340, Note_on_c, 9, 80, 74
14, 5354, Note_on_c, 9, 80, 0
14, 5354, Control_c, 9, 123, 0
14, 5370, Note_on_c, 9, 81, 58
14, 5378, Control_c, 9, 123, 0
14, 5380, Note_on_c, 9, 81, 0
14, 5400, Note_on_c, 9, 81, 68
14, 5426, Control_c, 9, 123, 0
14, 5427, Note_on_c, 9, 81, 0
14, 5460, Note_on_c, 9, 80, 58
14, 5471, Note_on_c, 9, 80, 0
14, 5476, Control_c, 9, 123, 0
14, 5490, Note_on_c, 9, 81, 56
14, 5497, Note_on_c, 9, 81, 0
14, 5498, Control_c, 9, 123, 0
14, 5520, Note_on_c, 9, 81, 71
14, 5532, Note_on_c, 9, 81, 0
14, 5534, Control_c, 9, 123, 0
14, 5550, Note_on_c, 9, 81, 45
14, 5560, Note_on_c, 9, 81, 0
14, 5563, Control_c, 9, 123, 0
14, 5580, Note_on_c, 9, 80, 63
14, 5587, Note_on_c, 9, 80, 0
14, 5590, Control_c, 9, 123, 0
14, 5610, Note_on_c, 9, 80, 54
14, 5622, Note_on_c, 9, 80, 0
14, 5624, Control_c, 9, 123, 0
14, 5640, Note_on_c, 9, 81, 65
14, 5651, Control_c, 9, 123, 0
14, 5652, Note_on_c, 9, 81, 0
14, 5670, Note_on_c, 9, 81, 50
14, 5684, Control_c, 9, 123, 0
14, 5685, Note_on_c, 9, 81, 0
14, 5700, Note_on_c, 9, 80, 63
14, 5705, Note_on_c, 9, 80, 0
14, 5710, Control_c, 9, 123, 0
14, 5730, Note_on_c, 9, 80, 45
14, 5737, Note_on_c, 9, 80, 0
14, 5739, Control_c, 9, 123, 0
14, 5760, Note_on_c, 9, 81, 58
14, 5763, Control_c, 9, 123, 0
14, 5767, Note_on_c, 9, 81, 0
14, 5820, Note_on_c, 9, 80, 58
14, 5832, Note_on_c, 9, 80, 0
14, 5836, Control_c, 9, 123, 0
14, 5850, Note_on_c, 9, 81, 68
14, 5857, Note_on_c, 9, 81, 0
14, 5863, Control_c, 9, 123, 0
14, 5880, Note_on_c, 9, 81, 65
14, 5898, Note_on_c, 9, 81, 0
14, 5901, Control_c, 9, 123, 0
14, 5940, Note_on_c, 9, 80, 74
14, 5952, Note_on_c, 9, 80, 0
14, 5954, Control_c, 9, 123, 0
14, 5970, Note_on_c, 9, 81, 60
14, 5979, Note_on_c, 9, 81, 0
14, 5980, Control_c, 9, 123, 0
14, 6000, Note_on_c, 9, 81, 65
14, 6017, Note_on_c, 9, 81, 0
14, 6017, Control_c, 9, 123, 0
14, 6060, Note_on_c, 9, 80, 74
14, 6072, Note_on_c, 9, 80, 0
14, 6075, Control_c, 9, 123, 0
14, 6090, Note_on_c, 9, 81, 56
14, 6099, Note_on_c, 9, 81, 0
14, 6099, Control_c, 9, 123, 0
14, 6120, Note_on_c, 9, 81, 68
14, 6138, Note_on_c, 9, 81, 0
14, 6139, Control_c, 9, 123, 0
14, 6180, Note_on_c, 9, 80, 58
14, 6193, Control_c, 9, 123, 0
14, 6194, Note_on_c, 9, 80, 0
14, 6210, Note_on_c, 9, 81, 60
14, 6216, Control_c, 9, 123, 0
14, 6217, Note_on_c, 9, 81, 0
14, 6240, Note_on_c, 9, 81, 68
14, 6256, Control_c, 9, 123, 0
14, 6257, Note_on_c, 9, 81, 0
14, 6300, Note_on_c, 9, 80, 63
14, 6309, Note_on_c, 9, 80, 0
14, 6309, Control_c, 9, 123, 0
14, 6330, Note_on_c, 9, 81, 63
14, 6337, Note_on_c, 9, 81, 0
14, 6341, Control_c, 9, 123, 0
14, 6360, Note_on_c, 9, 81, 63
14, 6377, Note_on_c, 9, 81, 0
14, 6379, Control_c, 9, 123, 0
14, 6420, Note_on_c, 9, 80, 54
14, 6437, Note_on_c, 9, 80, 0
14, 6437, Control_c, 9, 123, 0
14, 6450, Note_on_c, 9, 81, 54
14, 6458, Control_c, 9, 123, 0
14, 6459, Note_on_c, 9, 81, 0
14, 6480, Note_on_c, 9, 81, 63
14, 6498, Control_c, 9, 123, 0
14, 6500, Note_on_c, 9, 81, 0
14, 6540, Note_on_c, 9, 80, 58
14, 6547, Control_c, 9, 123, 0
14, 6548, Note_on_c, 9, 80, 0
14, 6570, Note_on_c, 9, 81, 65
14, 6581, Note_on_c, 9, 81, 0
14, 6581, Control_c, 9, 123, 0
14, 6600, Note_on_c, 9, 81, 56
14, 6620, Note_on_c, 9, 81, 0
14, 6620, Control_c, 9, 123, 0
14, 6660, Note_on_c, 9, 80, 63
14, 6673, Note_on_c, 9, 80, 0
14, 6673, Control_c, 9, 123, 0
14, 6690, Note_on_c, 9, 81, 54
14, 6697, Note_on_c, 9, 81, 0
14, 6697, Control_c, 9, 123, 0
14, 6720, Note_on_c, 9, 81, 68
14, 6739, Note_on_c, 9, 81, 0
14, 6741, Control_c, 9, 123, 0
14, 6780, Note_on_c, 9, 80, 51
14, 6787, Note_on_c, 9, 80, 0
14, 6789, Control_c, 9, 123, 0
14, 6810, Note_on_c, 9, 81, 65
14, 6821, Note_on_c, 9, 81, 0
14, 6823, Control_c, 9, 123, 0
14, 6840, Note_on_c, 9, 81, 65
14, 6863, Note_on_c, 9, 81, 0
14, 6863, Control_c, 9, 123, 0
14, 6900, Note_on_c, 9, 80, 68
14, 6912, Note_on_c, 9, 80, 0
14, 6914, Control_c, 9, 123, 0
14, 6930, Note_on_c, 9, 81, 58
14, 6938, Control_c, 9, 123, 0
14, 6940, Note_on_c, 9, 81, 0
14, 6960, Note_on_c, 9, 81, 65
14, 6980, Note_on_c, 9, 81, 0
14, 6980, Control_c, 9, 123, 0
14, 7020, Note_on_c, 9, 80, 58
14, 7030, Note_on_c, 9, 80, 0
14, 7033, Control_c, 9, 123, 0
14, 7050, Note_on_c, 9, 81, 60
14, 7055, Control_c, 9, 123, 0
14, 7060, Note_on_c, 9, 81, 0
14, 7080, Note_on_c, 9, 81, 68
14, 7103, Note_on_c, 9, 81, 0
14, 7104, Control_c, 9, 123, 0
14, 7140, Note_on_c, 9, 80, 63
14, 7155, Note_on_c, 9, 80, 0
14, 7158, Control_c, 9, 123, 0
14, 7170, Note_on_c, 9, 81, 56
14, 7178, Control_c, 9, 123, 0
14, 7179, Note_on_c, 9, 81, 0
14, 7200, Note_on_c, 9, 81, 63
14, 7210, Note_on_c, 9, 81, 0
14, 7211, Control_c, 9, 123, 0
14, 7230, Note_on_c, 9, 81, 54
14, 7245, Note_on_c, 9, 81, 0
14, 7245, Control_c, 9, 123, 0
14, 7260, Note_on_c, 9, 80, 63
14, 7267, Note_on_c, 9, 80, 0
14, 7269, Control_c, 9, 123, 0
14, 7290, Note_on_c, 9, 80, 58
14, 7302, Note_on_c, 9, 80, 0
14, 7306, Control_c, 9, 123, 0
14, 7320, Note_on_c, 9, 81, 63
14, 7331, Control_c, 9, 123, 0
14, 7334, Note_on_c, 9, 81, 0
14, 7350, Note_on_c, 9, 81, 52
14, 7368, Note_on_c, 9, 81, 0
14, 7368, Control_c, 9, 123, 0
14, 7380, Note_on_c, 9, 80, 54
14, 7386, Note_on_c, 9, 80, 0
14, 7389, Control_c, 9, 123, 0
14, 7410, Note_on_c, 9, 80, 27
14, 7420, Note_on_c, 9, 80, 0
14, 7422, Control_c, 9, 123, 0
14, 7440, Note_on_c, 9, 81, 63
14, 7449, Note_on_c, 9, 81, 0
14, 7450, Control_c, 9, 123, 0
14, 7470, Note_on_c, 9, 81, 58
14, 7488, Note_on_c, 9, 81, 0
14, 7489, Control_c, 9, 123, 0
14, 7500, Note_on_c, 9, 80, 54
14, 7505, Note_on_c, 9, 80, 0
14, 7508, Control_c, 9, 123, 0
14, 7530, Note_on_c, 9, 80, 31
14, 7538, Note_on_c, 9, 80, 0
14, 7540, Control_c, 9, 123, 0
14, 7560, Note_on_c, 9, 81, 65
14, 7569, Note_on_c, 9, 81, 0
14, 7571, Control_c, 9, 123, 0
14, 7590, Note_on_c, 9, 81, 52
14, 7607, Note_on_c, 9, 81, 0
14, 7608, Control_c, 9, 123, 0
14, 7620, Note_on_c, 9, 80, 74
14, 7627, Note_on_c, 9, 80, 0
14, 7632, Control_c, 9, 123, 0
14, 7650, Note_on_c, 9, 80, 63
14, 7662, Note_on_c, 9, 80, 0
14, 7666, Control_c, 9, 123, 0
14, 7680, Note_on_c, 9, 81, 56
14, 7702, Note_on_c, 9, 81, 0
14, 7702, Control_c, 9, 123, 0
14, 9600, Note_on_c, 9, 81, 71
14, 9614, Note_on_c, 9, 81, 0
14, 9615, Control_c, 9, 123, 0
14, 9630, Note_on_c, 9, 81, 60
14, 9646, Note_on_c, 9, 81, 0
14, 9647, Control_c, 9, 123, 0
14, 9660, Note_on_c, 9, 80, 45
14, 9667, Note_on_c, 9, 80, 0
14, 9670, Control_c, 9, 123, 0
14, 9690, Note_on_c, 9, 80, 31
14, 9705, Note_on_c, 9, 80, 0
14, 9706, Control_c, 9, 123, 0
14, 9720, Note_on_c, 9, 81, 71
14, 9731, Note_on_c, 9, 81, 0
14, 9735, Control_c, 9, 123, 0
14, 9750, Note_on_c, 9, 81, 50
14, 9764, Note_on_c, 9, 81, 0
14, 9765, Control_c, 9, 123, 0
14, 9780, Note_on_c, 9, 80, 51
14, 9785, Note_on_c, 9, 80, 0
14, 9788, Control_c, 9, 123, 0
14, 9810, Note_on_c, 9, 80, 80
14, 9824, Note_on_c, 9, 80, 0
14, 9828, Control_c, 9, 123, 0
14, 9840, Note_on_c, 9, 81, 68
14, 9850, Note_on_c, 9, 81, 0
14, 9856, Control_c, 9, 123, 0
14, 9870, Note_on_c, 9, 81, 47
14, 9884, Note_on_c, 9, 81, 0
14, 9888, Control_c, 9, 123, 0
14, 9900, Note_on_c, 9, 80, 51
14, 9907, Note_on_c, 9, 80, 0
14, 9910, Control_c, 9, 123, 0
14, 9930, Note_on_c, 9, 80, 63
14, 9944, Note_on_c, 9, 80, 0
14, 9947, Control_c, 9, 123, 0
14, 9960, Note_on_c, 9, 81, 71
14, 9974, Note_on_c, 9, 81, 0
14, 9979, Control_c, 9, 123, 0
14, 9990, Note_on_c, 9, 81, 47
14, 10005, Note_on_c, 9, 81, 0
14, 10009, Control_c, 9, 123, 0
14, 10020, Note_on_c, 9, 80, 68
14, 10027, Note_on_c, 9, 80, 0
14, 10033, Control_c, 9, 123, 0
14, 10050, Note_on_c, 9, 80, 63
14, 10062, Note_on_c, 9, 80, 0
14, 10068, Control_c, 9, 123, 0
14, 10080, Note_on_c, 9, 81, 71
14, 10091, Note_on_c, 9, 81, 0
14, 10097, Control_c, 9, 123, 0
14, 10110, Note_on_c, 9, 81, 58
14, 10128, Note_on_c, 9, 81, 0
14, 10130, Control_c, 9, 123, 0
14, 10140, Note_on_c, 9, 80, 68
14, 10147, Note_on_c, 9, 80, 0
14, 10150, Control_c, 9, 123, 0
14, 10170, Note_on_c, 9, 80, 58
14, 10182, Note_on_c, 9, 80, 0
14, 10185, Control_c, 9, 123, 0
14, 10200, Note_on_c, 9, 81, 71
14, 10210, Note_on_c, 9, 81, 0
14, 10215, Control_c, 9, 123, 0
14, 10230, Note_on_c, 9, 81, 56
14, 10248, Note_on_c, 9, 81, 0
14, 10250, Control_c, 9, 123, 0
14, 10260, Note_on_c, 9, 80, 74
14, 10266, Note_on_c, 9, 80, 0
14, 10272, Control_c, 9, 123, 0
14, 10290, Note_on_c, 9, 80, 54
14, 10301, Note_on_c, 9, 80, 0
14, 10305, Control_c, 9, 123, 0
14, 10320, Note_on_c, 9, 81, 68
14, 10332, Note_on_c, 9, 81, 0
14, 10335, Control_c, 9, 123, 0
14, 10350, Note_on_c, 9, 81, 48
14, 10364, Note_on_c, 9, 81, 0
14, 10367, Control_c, 9, 123, 0
14, 10380, Note_on_c, 9, 80, 58
14, 10385, Note_on_c, 9, 80, 0
14, 10390, Control_c, 9, 123, 0
14, 10410, Note_on_c, 9, 80, 48
14, 10419, Note_on_c, 9, 80, 0
14, 10422, Control_c, 9, 123, 0
14, 10440, Note_on_c, 9, 81, 68
14, 10452, Note_on_c, 9, 81, 0
14, 10454, Control_c, 9, 123, 0
14, 10470, Note_on_c, 9, 81, 56
14, 10485, Note_on_c, 9, 81, 0
14, 10486, Control_c, 9, 123, 0
14, 10500, Note_on_c, 9, 80, 74
14, 10507, Note_on_c, 9, 80, 0
14, 10512, Control_c, 9, 123, 0
14, 10530, Note_on_c, 9, 80, 48
14, 10544, Note_on_c, 9, 80, 0
14, 10547, Control_c, 9, 123, 0
14, 10560, Note_on_c, 9, 81, 71
14, 10570, Note_on_c, 9, 81, 0
14, 10572, Control_c, 9, 123, 0
14, 10590, Note_on_c, 9, 81, 52
14, 10605, Note_on_c, 9, 81, 0
14, 10607, Control_c, 9, 123, 0
14, 10620, Note_on_c, 9, 80, 68
14, 10625, Note_on_c, 9, 80, 0
14, 10627, Control_c, 9, 123, 0
14, 10650, Note_on_c, 9, 80, 63
14, 10662, Note_on_c, 9, 80, 0
14, 10662, Control_c, 9, 123, 0
14, 10680, Note_on_c, 9, 81, 68
14, 10691, Note_on_c, 9, 81, 0
14, 10694, Control_c, 9, 123, 0
14, 10710, Note_on_c, 9, 81, 56
14, 10727, Note_on_c, 9, 81, 0
14, 10727, Control_c, 9, 123, 0
14, 10740, Note_on_c, 9, 80, 74
14, 10747, Note_on_c, 9, 80, 0
14, 10749, Control_c, 9, 123, 0
14, 10770, Note_on_c, 9, 80, 58
14, 10778, Note_on_c, 9, 80, 0
14, 10783, Control_c, 9, 123, 0
14, 10800, Note_on_c, 9, 81, 65
14, 10809, Note_on_c, 9, 81, 0
14, 10812, Control_c, 9, 123, 0
14, 10830, Note_on_c, 9, 81, 54
14, 10847, Note_on_c, 9, 81, 0
14, 10847, Control_c, 9, 123, 0
14, 10860, Note_on_c, 9, 80, 68
14, 10867, Note_on_c, 9, 80, 0
14, 10869, Control_c, 9, 123, 0
14, 10890, Note_on_c, 9, 80, 63
14, 10898, Note_on_c, 9, 80, 0
14, 10902, Control_c, 9, 123, 0
14, 10920, Note_on_c, 9, 81, 68
14, 10932, Note_on_c, 9, 81, 0
14, 10934, Control_c, 9, 123, 0
14, 10950, Note_on_c, 9, 81, 50
14, 10965, Note_on_c, 9, 81, 0
14, 10968, Control_c, 9, 123, 0
14, 10980, Note_on_c, 9, 80, 74
14, 10985, Note_on_c, 9, 80, 0
14, 10990, Control_c, 9, 123, 0
14, 11010, Note_on_c, 9, 80, 58
14, 11022, Note_on_c, 9, 80, 0
14, 11025, Control_c, 9, 123, 0
14, 11040, Note_on_c, 9, 81, 65
14, 11051, Note_on_c, 9, 81, 0
14, 11051, Control_c, 9, 123, 0
14, 11070, Note_on_c, 9, 81, 48
14, 11086, Control_c, 9, 123, 0
14, 11087, Note_on_c, 9, 81, 0
14, 11100, Note_on_c, 9, 80, 54
14, 11106, Note_on_c, 9, 80, 0
14, 11108, Control_c, 9, 123, 0
14, 11130, Note_on_c, 9, 80, 48
14, 11144, Control_c, 9, 123, 0
14, 11145, Note_on_c, 9, 80, 0
14, 11160, Note_on_c, 9, 81, 71
14, 11175, Note_on_c, 9, 81, 0
14, 11175, Control_c, 9, 123, 0
14, 11190, Note_on_c, 9, 81, 52
14, 11207, Note_on_c, 9, 81, 0
14, 11208, Control_c, 9, 123, 0
14, 11220, Note_on_c, 9, 80, 63
14, 11227, Note_on_c, 9, 80, 0
14, 11232, Control_c, 9, 123, 0
14, 11250, Note_on_c, 9, 80, 48
14, 11264, Note_on_c, 9, 80, 0
14, 11269, Control_c, 9, 123, 0
14, 11280, Note_on_c, 9, 81, 71
14, 11292, Note_on_c, 9, 81, 0
14, 11298, Control_c, 9, 123, 0
14, 11310, Note_on_c, 9, 81, 42
14, 11325, Note_on_c, 9, 81, 0
14, 11330, Control_c, 9, 123, 0
14, 11340, Note_on_c, 9, 80, 74
14, 11349, Note_on_c, 9, 80, 0
14, 11350, Control_c, 9, 123, 0
14, 11370, Note_on_c, 9, 80, 58
14, 11383, Note_on_c, 9, 80, 0
14, 11387, Control_c, 9, 123, 0
14, 11400, Note_on_c, 9, 81, 60
14, 11409, Note_on_c, 9, 81, 0
14, 11412, Control_c, 9, 123, 0
14, 11430, Note_on_c, 9, 81, 58
14, 11446, Note_on_c, 9, 81, 0
14, 11448, Control_c, 9, 123, 0
14, 11460, Note_on_c, 9, 80, 68
14, 11467, Note_on_c, 9, 80, 0
14, 11469, Control_c, 9, 123, 0
14, 11490, Note_on_c, 9, 80, 37
14, 11498, Note_on_c, 9, 80, 0
14, 11498, Control_c, 9, 123, 0
14, 11520, Note_on_c, 9, 81, 71
14, 11532, Note_on_c, 9, 81, 0
14, 11533, Control_c, 9, 123, 0
14, 11550, Note_on_c, 9, 81, 48
14, 11565, Note_on_c, 9, 81, 0
14, 11567, Control_c, 9, 123, 0
14, 11580, Note_on_c, 9, 80, 74
14, 11588, Note_on_c, 9, 80, 0
14, 11588, Control_c, 9, 123, 0
14, 11610, Note_on_c, 9, 80, 43
14, 11617, Note_on_c, 9, 80, 0
14, 11620, Control_c, 9, 123, 0
14, 11640, Note_on_c, 9, 81, 65
14, 11649, Note_on_c, 9, 81, 0
14, 11653, Control_c, 9, 123, 0
14, 11670, Note_on_c, 9, 81, 60
14, 11687, Note_on_c, 9, 81, 0
14, 11691, Control_c, 9, 123, 0
14, 11700, Note_on_c, 9, 80, 68
14, 11707, Note_on_c, 9, 80, 0
14, 11711, Control_c, 9, 123, 0
14, 11730, Note_on_c, 9, 80, 37
14, 11742, Note_on_c, 9, 80, 0
14, 11746, Control_c, 9, 123, 0
14, 11760, Note_on_c, 9, 81, 63
14, 11769, Note_on_c, 9, 81, 0
14, 11773, Control_c, 9, 123, 0
14, 11790, Note_on_c, 9, 81, 54
14, 11805, Note_on_c, 9, 81, 0
14, 11810, Control_c, 9, 123, 0
14, 11820, Note_on_c, 9, 80, 68
14, 11825, Note_on_c, 9, 80, 0
14, 11831, Control_c, 9, 123, 0
14, 11850, Note_on_c, 9, 80, 54
14, 11859, Note_on_c, 9, 80, 0
14, 11863, Control_c, 9, 123, 0
14, 11880, Note_on_c, 9, 81, 65
14, 11891, Note_on_c, 9, 81, 0
14, 11892, Control_c, 9, 123, 0
14, 11910, Note_on_c, 9, 81, 52
14, 11927, Note_on_c, 9, 81, 0
14, 11927, Control_c, 9, 123, 0
14, 11940, Note_on_c, 9, 80, 74
14, 11947, Note_on_c, 9, 80, 0
14, 11950, Control_c, 9, 123, 0
14, 11970, Note_on_c, 9, 80, 63
14, 11980, Note_on_c, 9, 80, 0
14, 11982, Control_c, 9, 123, 0
14, 15840, Note_on_c, 9, 81, 71
14, 15868, Control_c, 9, 123, 0
14, 15870, Note_on_c, 9, 81, 0
14, 15900, Note_on_c, 9, 80, 63
14, 15913, Note_on_c, 9, 80, 0
14, 15914, Control_c, 9, 123, 0
14, 15930, Note_on_c, 9, 81, 65
14, 15942, Note_on_c, 9, 81, 0
14, 15946, Control_c, 9, 123, 0
14, 15960, Note_on_c, 9, 81, 65
14, 15982, Note_on_c, 9, 81, 0
14, 15986, Control_c, 9, 123, 0
14, 16020, Note_on_c, 9, 80, 58
14, 16029, Note_on_c, 9, 80, 0
14, 16031, Control_c, 9, 123, 0
14, 16050, Note_on_c, 9, 81, 60
14, 16062, Note_on_c, 9, 81, 0
14, 16063, Control_c, 9, 123, 0
14, 16080, Note_on_c, 9, 81, 71
14, 16099, Control_c, 9, 123, 0
14, 16100, Note_on_c, 9, 81, 0
14, 16140, Note_on_c, 9, 80, 74
14, 16152, Note_on_c, 9, 80, 0
14, 16153, Control_c, 9, 123, 0
14, 16170, Note_on_c, 9, 81, 58
14, 16180, Control_c, 9, 123, 0
14, 16182, Note_on_c, 9, 81, 0
14, 16200, Note_on_c, 9, 81, 74
14, 16226, Note_on_c, 9, 81, 0
14, 16227, Control_c, 9, 123, 0
14, 16260, Note_on_c, 9, 80, 54
14, 16274, Control_c, 9, 123, 0
14, 16275, Note_on_c, 9, 80, 0
14, 16290, Note_on_c, 9, 81, 58
14, 16302, Note_on_c, 9, 81, 0
14, 16303, Control_c, 9, 123, 0
14, 16320, Note_on_c, 9, 81, 65
14, 16340, Note_on_c, 9, 81, 0
14, 16342, Control_c, 9, 123, 0
14, 16380, Note_on_c, 9, 80, 45
14, 16388, Note_on_c, 9, 80, 0
14, 16393, Control_c, 9, 123, 0
14, 16410, Note_on_c, 9, 81, 58
14, 16418, Note_on_c, 9, 81, 0
14, 16424, Control_c, 9, 123, 0
14, 16440, Note_on_c, 9, 81, 68
14, 16462, Note_on_c, 9, 81, 0
14, 16462, Control_c, 9, 123, 0
14, 16500, Note_on_c, 9, 80, 58
14, 16505, Note_on_c, 9, 80, 0
14, 16507, Control_c, 9, 123, 0
14, 16530, Note_on_c, 9, 81, 68
14, 16544, Note_on_c, 9, 81, 0
14, 16551, Control_c, 9, 123, 0
14, 16560, Note_on_c, 9, 81, 54
14, 16577, Note_on_c, 9, 81, 0
14, 16582, Control_c, 9, 123, 0
14, 16620, Note_on_c, 9, 80, 58
14, 16627, Note_on_c, 9, 80, 0
14, 16631, Control_c, 9, 123, 0
14, 16650, Note_on_c, 9, 81, 68
14, 16661, Note_on_c, 9, 81, 0
14, 16666, Control_c, 9, 123, 0
14, 16680, Note_on_c, 9, 81, 60
14, 16698, Note_on_c, 9, 81, 0
14, 16700, Control_c, 9, 123, 0
14, 16740, Note_on_c, 9, 80, 63
14, 16746, Note_on_c, 9, 80, 0
14, 16747, Control_c, 9, 123, 0
14, 16770, Note_on_c, 9, 81, 65
14, 16781, Note_on_c, 9, 81, 0
14, 16783, Control_c, 9, 123, 0
14, 16800, Note_on_c, 9, 81, 65
14, 16817, Note_on_c, 9, 81, 0
14, 16817, Control_c, 9, 123, 0
14, 16860, Note_on_c, 9, 80, 68
14, 16869, Note_on_c, 9, 80, 0
14, 16872, Control_c, 9, 123, 0
14, 16890, Note_on_c, 9, 81, 58
14, 16898, Note_on_c, 9, 81, 0
14, 16902, Control_c, 9, 123, 0
14, 16920, Note_on_c, 9, 81, 71
14, 16939, Note_on_c, 9, 81, 0
14, 16941, Control_c, 9, 123, 0
14, 16980, Note_on_c, 9, 80, 63
14, 16987, Note_on_c, 9, 80, 0
14, 16993, Control_c, 9, 123, 0
14, 17010, Note_on_c, 9, 81, 65
14, 17021, Note_on_c, 9, 81, 0
14, 17025, Control_c, 9, 123, 0
14, 17040, Note_on_c, 9, 81, 54
14, 17060, Note_on_c, 9, 81, 0
14, 17062, Control_c, 9, 123, 0
14, 17100, Note_on_c, 9, 80, 58
14, 17105, Note_on_c, 9, 80, 0
14, 17111, Control_c, 9, 123, 0
14, 17130, Note_on_c, 9, 81, 63
14, 17140, Note_on_c, 9, 81, 0
14, 17142, Control_c, 9, 123, 0
14, 17160, Note_on_c, 9, 81, 65
14, 17181, Note_on_c, 9, 81, 0
14, 17181, Control_c, 9, 123, 0
14, 17220, Note_on_c, 9, 80, 74
14, 17232, Note_on_c, 9, 80, 0
14, 17234, Control_c, 9, 123, 0
14, 17250, Note_on_c, 9, 81, 54
14, 17259, Note_on_c, 9, 81, 0
14, 17260, Control_c, 9, 123, 0
14, 17280, Note_on_c, 9, 81, 63
14, 17301, Note_on_c, 9, 81, 0
14, 17301, Control_c, 9, 123, 0
14, 17340, Note_on_c, 9, 80, 54
14, 17348, Note_on_c, 9, 80, 0
14, 17348, Control_c, 9, 123, 0
14, 17370, Note_on_c, 9, 81, 56
14, 17377, Note_on_c, 9, 81, 0
14, 17380, Control_c, 9, 123, 0
14, 17400, Note_on_c, 9, 81, 65
14, 17421, Control_c, 9, 123, 0
14, 17422, Note_on_c, 9, 81, 0
14, 17460, Note_on_c, 9, 80, 68
14, 17474, Note_on_c, 9, 80, 0
14, 17474, Control_c, 9, 123, 0
14, 17490, Note_on_c, 9, 81, 65
14, 17503, Note_on_c, 9, 81, 0
14, 17507, Control_c, 9, 123, 0
14, 17520, Note_on_c, 9, 81, 58
14, 17538, Note_on_c, 9, 81, 0
14, 17540, Control_c, 9, 123, 0
14, 17580, Note_on_c, 9, 80, 58
14, 17589, Note_on_c, 9, 80, 0
14, 17590, Control_c, 9, 123, 0
14, 17610, Note_on_c, 9, 81, 58
14, 17616, Control_c, 9, 123, 0
14, 17617, Note_on_c, 9, 81, 0
14, 17640, Note_on_c, 9, 81, 68
14, 17656, Control_c, 9, 123, 0
14, 17661, Note_on_c, 9, 81, 0
14, 17700, Note_on_c, 9, 80, 68
14, 17708, Note_on_c, 9, 80, 0
14, 17709, Control_c, 9, 123, 0
14, 17730, Note_on_c, 9, 81, 60
14, 17740, Control_c, 9, 123, 0
14, 17741, Note_on_c, 9, 81, 0
14, 17760, Note_on_c, 9, 81, 63
14, 17779, Note_on_c, 9, 81, 0
14, 17779, Control_c, 9, 123, 0
14, 17820, Note_on_c, 9, 80, 54
14, 17828, Control_c, 9, 123, 0
14, 17829, Note_on_c, 9, 80, 0
14, 17850, Note_on_c, 9, 81, 60
14, 17859, Note_on_c, 9, 81, 0
14, 17860, Control_c, 9, 123, 0
14, 17880, Note_on_c, 9, 81, 60
14, 17898, Control_c, 9, 123, 0
14, 17899, Note_on_c, 9, 81, 0
14, 17940, Note_on_c, 9, 80, 63
14, 17948, Note_on_c, 9, 80, 0
14, 17948, Control_c, 9, 123, 0
14, 17970, Note_on_c, 9, 81, 56
14, 17977, Control_c, 9, 123, 0
14, 17978, Note_on_c, 9, 81, 0
14, 18000, Note_on_c, 9, 81, 65
14, 18019, Control_c, 9, 123, 0
14, 18020, Note_on_c, 9, 81, 0
14, 18060, Note_on_c, 9, 80, 58
14, 18066, Control_c, 9, 123, 0
14, 18067, Note_on_c, 9, 80, 0
14, 18090, Note_on_c, 9, 81, 58
14, 18100, Note_on_c, 9, 81, 0
14, 18105, Control_c, 9, 123, 0
14, 18120, Note_on_c, 9, 81, 60
14, 18137, Note_on_c, 9, 81, 0
14, 18140, Control_c, 9, 123, 0
14, 18180, Note_on_c, 9, 80, 63
14, 18194, Note_on_c, 9, 80, 0
14, 18195, Control_c, 9, 123, 0
14, 18210, Note_on_c, 9, 81, 47
14, 18217, Note_on_c, 9, 81, 0
14, 18219, Control_c, 9, 123, 0
14, 18240, Note_on_c, 9, 81, 63
14, 18258, Note_on_c, 9, 81, 0
14, 18260, Control_c, 9, 123, 0
14, 18300, Note_on_c, 9, 80, 63
14, 18314, Note_on_c, 9, 80, 0
14, 18314, Control_c, 9, 123, 0
14, 18330, Note_on_c, 9, 81, 63
14, 18339, Note_on_c, 9, 81, 0
14, 18346, Control_c, 9, 123, 0
14, 18360, Note_on_c, 9, 81, 60
14, 18382, Note_on_c, 9, 81, 0
14, 18386, Control_c, 9, 123, 0
14, 18420, Note_on_c, 9, 80, 63
14, 18433, Note_on_c, 9, 80, 0
14, 18433, Control_c, 9, 123, 0
14, 18450, Note_on_c, 9, 81, 56
14, 18460, Note_on_c, 9, 81, 0
14, 18463, Control_c, 9, 123, 0
14, 18480, Note_on_c, 9, 81, 74
14, 18499, Note_on_c, 9, 81, 0
14, 18502, Control_c, 9, 123, 0
14, 18540, Note_on_c, 9, 80, 63
14, 18555, Note_on_c, 9, 80, 0
14, 18556, Control_c, 9, 123, 0
14, 18570, Note_on_c, 9, 81, 42
14, 18578, Note_on_c, 9, 81, 0
14, 18578, Control_c, 9, 123, 0
14, 18600, Note_on_c, 9, 81, 74
14, 18621, Note_on_c, 9, 81, 0
14, 18623, Control_c, 9, 123, 0
14, 18660, Note_on_c, 9, 80, 58
14, 18673, Note_on_c, 9, 80, 0
14, 18676, Control_c, 9, 123, 0
14, 18690, Note_on_c, 9, 81, 60
14, 18702, Note_on_c, 9, 81, 0
14, 18706, Control_c, 9, 123, 0
14, 18720, Note_on_c, 9, 81, 56
14, 18739, Note_on_c, 9, 81, 0
14, 18742, Control_c, 9, 123, 0
14, 18780, Note_on_c, 9, 80, 54
14, 18794, Note_on_c, 9, 80, 0
14, 18797, Control_c, 9, 123, 0
14, 18810, Note_on_c, 9, 81, 48
14, 18817, Note_on_c, 9, 81, 0
14, 18820, Control_c, 9, 123, 0
14, 18840, Note_on_c, 9, 81, 68
14, 18860, Note_on_c, 9, 81, 0
14, 18865, Control_c, 9, 123, 0
14, 18900, Note_on_c, 9, 80, 48
14, 18913, Note_on_c, 9, 80, 0
14, 18918, Control_c, 9, 123, 0
14, 18930, Note_on_c, 9, 81, 58
14, 18941, Note_on_c, 9, 81, 0
14, 18946, Control_c, 9, 123, 0
14, 18960, Note_on_c, 9, 81, 65
14, 18980, Note_on_c, 9, 81, 0
14, 18986, Control_c, 9, 123, 0
14, 19020, Note_on_c, 9, 80, 63
14, 19033, Note_on_c, 9, 80, 0
14, 19035, Control_c, 9, 123, 0
14, 19050, Note_on_c, 9, 81, 48
14, 19059, Note_on_c, 9, 81, 0
14, 19059, Control_c, 9, 123, 0
14, 19080, Note_on_c, 9, 81, 71
14, 19099, Note_on_c, 9, 81, 0
14, 19099, Control_c, 9, 123, 0
14, 19140, Note_on_c, 9, 80, 63
14, 19152, Note_on_c, 9, 80, 0
14, 19155, Control_c, 9, 123, 0
14, 19170, Note_on_c, 9, 81, 63
14, 19177, Control_c, 9, 123, 0
14, 19179, Note_on_c, 9, 81, 0
14, 19200, Note_on_c, 9, 81, 56
14, 19214, Control_c, 9, 123, 0
14, 19217, Note_on_c, 9, 81, 0
14, 19260, Note_on_c, 9, 80, 63
14, 19274, Note_on_c, 9, 80, 0
14, 19274, Control_c, 9, 123, 0
14, 19290, Note_on_c, 9, 81, 45
14, 19294, Control_c, 9, 123, 0
14, 19297, Note_on_c, 9, 81, 0
14, 19320, Note_on_c, 9, 81, 71
14, 19338, Control_c, 9, 123, 0
14, 19341, Note_on_c, 9, 81, 0
14, 19380, Note_on_c, 9, 80, 68
14, 19396, Note_on_c, 9, 80, 0
14, 19398, Control_c, 9, 123, 0
14, 19410, Note_on_c, 9, 81, 63
14, 19421, Note_on_c, 9, 81, 0
14, 19422, Control_c, 9, 123, 0
14, 19440, Note_on_c, 9, 81, 68
14, 19458, Note_on_c, 9, 81, 0
14, 19459, Control_c, 9, 123, 0
14, 19500, Note_on_c, 9, 80, 68
14, 19515, Control_c, 9, 123, 0
14, 19516, Note_on_c, 9, 80, 0
14, 19530, Note_on_c, 9, 81, 60
14, 19539, Note_on_c, 9, 81, 0
14, 19539, Control_c, 9, 123, 0
14, 19560, Note_on_c, 9, 81, 63
14, 19580, Note_on_c, 9, 81, 0
14, 19582, Control_c, 9, 123, 0
14, 19620, Note_on_c, 9, 80, 68
14, 19632, Control_c, 9, 123, 0
14, 19633, Note_on_c, 9, 80, 0
14, 19650, Note_on_c, 9, 81, 63
14, 19665, Note_on_c, 9, 81, 0
14, 19668, Control_c, 9, 123, 0
14, 24090, Note_on_c, 9, 80, 29
14, 24095, Note_on_c, 9, 80, 0
14, 24104, Control_c, 9, 123, 0
14, 24120, Note_on_c, 9, 81, 77
14, 24141, Note_on_c, 9, 81, 0
14, 24150, Control_c, 9, 123, 0
14, 24180, Note_on_c, 9, 80, 35
14, 24185, Note_on_c, 9, 80, 0
14, 24191, Control_c, 9, 123, 0
14, 24210, Note_on_c, 9, 80, 58
14, 24224, Note_on_c, 9, 80, 0
14, 24227, Control_c, 9, 123, 0
14, 24240, Note_on_c, 9, 81, 68
14, 24261, Note_on_c, 9, 81, 0
14, 24268, Control_c, 9, 123, 0
14, 24300, Note_on_c, 9, 80, 43
14, 24305, Note_on_c, 9, 80, 0
14, 24305, Control_c, 9, 123, 0
14, 24330, Note_on_c, 9, 80, 45
14, 24337, Note_on_c, 9, 80, 0
14, 24338, Control_c, 9, 123, 0
14, 24360, Note_on_c, 9, 81, 71
14, 24378, Note_on_c, 9, 81, 0
14, 24381, Control_c, 9, 123, 0
14, 24420, Note_on_c, 9, 80, 48
14, 24424, Control_c, 9, 123, 0
14, 24425, Note_on_c, 9, 80, 0
14, 24450, Note_on_c, 9, 80, 58
14, 24461, Control_c, 9, 123, 0
14, 24463, Note_on_c, 9, 80, 0
14, 24480, Note_on_c, 9, 81, 68
14, 24502, Control_c, 9, 123, 0
14, 24506, Note_on_c, 9, 81, 0
14, 24540, Note_on_c, 9, 80, 48
14, 24545, Note_on_c, 9, 80, 0
14, 24547, Control_c, 9, 123, 0
14, 24570, Note_on_c, 9, 80, 43
14, 24580, Note_on_c, 9, 80, 0
14, 24580, Control_c, 9, 123, 0
14, 24600, Note_on_c, 9, 81, 74
14, 24621, Note_on_c, 9, 81, 0
14, 24621, Control_c, 9, 123, 0
14, 24660, Note_on_c, 9, 80, 54
14, 24665, Note_on_c, 9, 80, 0
14, 24667, Control_c, 9, 123, 0
14, 24690, Note_on_c, 9, 80, 63
14, 24703, Note_on_c, 9, 80, 0
14, 24706, Control_c, 9, 123, 0
14, 24720, Note_on_c, 9, 81, 63
14, 24748, Note_on_c, 9, 81, 0
14, 24750, Control_c, 9, 123, 0
14, 24780, Note_on_c, 9, 80, 48
14, 24786, Note_on_c, 9, 80, 0
14, 24792, Control_c, 9, 123, 0
14, 24810, Note_on_c, 9, 80, 45
14, 24820, Note_on_c, 9, 80, 0
14, 24825, Control_c, 9, 123, 0
14, 24840, Note_on_c, 9, 81, 65
14, 24862, Note_on_c, 9, 81, 0
14, 24865, Control_c, 9, 123, 0
14, 24900, Note_on_c, 9, 80, 48
14, 24905, Note_on_c, 9, 80, 0
14, 24905, Control_c, 9, 123, 0
14, 24930, Note_on_c, 9, 80, 68
14, 24944, Note_on_c, 9, 80, 0
14, 24944, Control_c, 9, 123, 0
14, 24960, Note_on_c, 9, 81, 77
14, 24980, Note_on_c, 9, 81, 0
14, 24982, Control_c, 9, 123, 0
14, 25020, Note_on_c, 9, 80, 68
14, 25025, Note_on_c, 9, 80, 0
14, 25027, Control_c, 9, 123, 0
14, 25050, Note_on_c, 9, 80, 63
14, 25060, Note_on_c, 9, 80, 0
14, 25061, Control_c, 9, 123, 0
14, 25080, Note_on_c, 9, 81, 74
14, 25099, Control_c, 9, 123, 0
14, 25100, Note_on_c, 9, 81, 0
14, 25140, Note_on_c, 9, 80, 54
14, 25145, Control_c, 9, 123, 0
14, 25146, Note_on_c, 9, 80, 0
14, 25170, Note_on_c, 9, 80, 63
14, 25181, Control_c, 9, 123, 0
14, 25183, Note_on_c, 9, 80, 0
14, 25200, Note_on_c, 9, 81, 71
14, 25222, Control_c, 9, 123, 0
14, 25225, Note_on_c, 9, 81, 0
14, 25260, Note_on_c, 9, 80, 58
14, 25267, Note_on_c, 9, 80, 0
14, 25268, Control_c, 9, 123, 0
14, 25290, Note_on_c, 9, 80, 39
14, 25299, Note_on_c, 9, 80, 0
14, 25301, Control_c, 9, 123, 0
14, 25320, Note_on_c, 9, 81, 74
14, 25345, Note_on_c, 9, 81, 0
14, 25346, Control_c, 9, 123, 0
14, 25380, Note_on_c, 9, 80, 58
14, 25385, Control_c, 9, 123, 0
14, 25387, Note_on_c, 9, 80, 0
14, 25410, Note_on_c, 9, 80, 58
14, 25418, Note_on_c, 9, 80, 0
14, 25420, Control_c, 9, 123, 0
14, 25440, Note_on_c, 9, 81, 65
14, 25462, Control_c, 9, 123, 0
14, 25463, Note_on_c, 9, 81, 0
14, 25500, Note_on_c, 9, 80, 63
14, 25505, Note_on_c, 9, 80, 0
14, 25505, Control_c, 9, 123, 0
14, 25530, Note_on_c, 9, 80, 51
14, 25537, Note_on_c, 9, 80, 0
14, 25537, Control_c, 9, 123, 0
14, 25560, Note_on_c, 9, 81, 74
14, 25580, Control_c, 9, 123, 0
14, 25581, Note_on_c, 9, 81, 0
14, 25620, Note_on_c, 9, 80, 58
14, 25625, Control_c, 9, 123, 0
14, 25627, Note_on_c, 9, 80, 0
14, 25650, Note_on_c, 9, 80, 54
14, 25660, Control_c, 9, 123, 0
14, 25662, Note_on_c, 9, 80, 0
14, 25680, Note_on_c, 9, 81, 68
14, 25698, Control_c, 9, 123, 0
14, 25703, Note_on_c, 9, 81, 0
14, 25740, Note_on_c, 9, 80, 58
14, 25743, Control_c, 9, 123, 0
14, 25746, Note_on_c, 9, 80, 0
14, 25770, Note_on_c, 9, 80, 63
14, 25777, Control_c, 9, 123, 0
14, 25778, Note_on_c, 9, 80, 0
14, 25800, Note_on_c, 9, 81, 71
14, 25820, Control_c, 9, 123, 0
14, 25823, Note_on_c, 9, 81, 0
14, 25860, Note_on_c, 9, 80, 63
14, 25865, Control_c, 9, 123, 0
14, 25866, Note_on_c, 9, 80, 0
14, 25890, Note_on_c, 9, 80, 45
14, 25897, Note_on_c, 9, 80, 0
14, 25898, Control_c, 9, 123, 0
14, 25920, Note_on_c, 9, 81, 74
14, 25941, Note_on_c, 9, 81, 0
14, 25942, Control_c, 9, 123, 0
14, 25980, Note_on_c, 9, 80, 58
14, 25987, Control_c, 9, 123, 0
14, 25988, Note_on_c, 9, 80, 0
14, 26010, Note_on_c, 9, 80, 58
14, 26022, Note_on_c, 9, 80, 0
14, 26023, Control_c, 9, 123, 0
14, 26040, Note_on_c, 9, 81, 68
14, 26061, Control_c, 9, 123, 0
14, 26062, Note_on_c, 9, 81, 0
14, 26100, Note_on_c, 9, 80, 68
14, 26105, Note_on_c, 9, 80, 0
14, 26107, Control_c, 9, 123, 0
14, 26130, Note_on_c, 9, 80, 54
14, 26140, Note_on_c, 9, 80, 0
14, 26140, Control_c, 9, 123, 0
14, 26160, Note_on_c, 9, 81, 63
14, 26182, Control_c, 9, 123, 0
14, 26183, Note_on_c, 9, 81, 0
14, 26220, Note_on_c, 9, 80, 58
14, 26225, Note_on_c, 9, 80, 0
14, 26226, Control_c, 9, 123, 0
14, 26250, Note_on_c, 9, 80, 48
14, 26257, Note_on_c, 9, 80, 0
14, 26259, Control_c, 9, 123, 0
14, 26280, Note_on_c, 9, 81, 74
14, 26300, Note_on_c, 9, 81, 0
14, 26303, Control_c, 9, 123, 0
14, 26340, Note_on_c, 9, 80, 63
14, 26347, Control_c, 9, 123, 0
14, 26348, Note_on_c, 9, 80, 0
14, 26370, Note_on_c, 9, 80, 58
14, 26378, Note_on_c, 9, 80, 0
14, 26380, Control_c, 9, 123, 0
14, 26400, Note_on_c, 9, 81, 65
14, 26426, Note_on_c, 9, 81, 0
14, 26426, Control_c, 9, 123, 0
14, 26460, Note_on_c, 9, 80, 58
14, 26465, Note_on_c, 9, 80, 0
14, 26465, Control_c, 9, 123, 0
14, 26490, Note_on_c, 9, 80, 54
14, 26496, Note_on_c, 9, 80, 0
14, 26499, Control_c, 9, 123, 0
14, 26520, Note_on_c, 9, 81, 65
14, 26543, Note_on_c, 9, 81, 0
14, 26543, Control_c, 9, 123, 0
14, 26580, Note_on_c, 9, 80, 68
14, 26587, Note_on_c, 9, 80, 0
14, 26589, Control_c, 9, 123, 0
14, 26610, Note_on_c, 9, 80, 45
14, 26617, Note_on_c, 9, 80, 0
14, 26621, Control_c, 9, 123, 0
14, 26640, Note_on_c, 9, 81, 71
14, 26662, Note_on_c, 9, 81, 0
14, 26663, Control_c, 9, 123, 0
14, 26700, Note_on_c, 9, 80, 63
14, 26706, Note_on_c, 9, 80, 0
14, 26709, Control_c, 9, 123, 0
14, 26730, Note_on_c, 9, 80, 58
14, 26737, Note_on_c, 9, 80, 0
14, 26741, Control_c, 9, 123, 0
14, 26760, Note_on_c, 9, 81, 68
14, 26783, Note_on_c, 9, 81, 0
14, 26787, Control_c, 9, 123, 0
14, 26820, Note_on_c, 9, 80, 58
14, 26826, Note_on_c, 9, 80, 0
14, 26828, Control_c, 9, 123, 0
14, 26850, Note_on_c, 9, 80, 63
14, 26858, Note_on_c, 9, 80, 0
14, 26859, Control_c, 9, 123, 0
14, 26880, Note_on_c, 9, 81, 68
14, 26900, Note_on_c, 9, 81, 0
14, 26902, Control_c, 9, 123, 0
14, 26940, Note_on_c, 9, 80, 63
14, 26948, Note_on_c, 9, 80, 0
14, 26948, Control_c, 9, 123, 0
14, 26970, Note_on_c, 9, 80, 48
14, 26978, Note_on_c, 9, 80, 0
14, 26979, Control_c, 9, 123, 0
14, 27000, Note_on_c, 9, 81, 68
14, 27021, Note_on_c, 9, 81, 0
14, 27024, Control_c, 9, 123, 0
14, 27060, Note_on_c, 9, 80, 63
14, 27066, Note_on_c, 9, 80, 0
14, 27066, Control_c, 9, 123, 0
14, 27090, Note_on_c, 9, 80, 35
14, 27097, Control_c, 9, 123, 0
14, 27098, Note_on_c, 9, 80, 0
14, 27120, Note_on_c, 9, 81, 77
14, 27144, Note_on_c, 9, 81, 0
14, 27148, Control_c, 9, 123, 0
14, 27180, Note_on_c, 9, 80, 68
14, 27187, Note_on_c, 9, 80, 0
14, 27189, Control_c, 9, 123, 0
14, 27210, Note_on_c, 9, 80, 54
14, 27219, Note_on_c, 9, 80, 0
14, 27223, Control_c, 9, 123, 0
14, 27240, Note_on_c, 9, 81, 71
14, 27260, Note_on_c, 9, 81, 0
14, 27266, Control_c, 9, 123, 0
14, 27300, Note_on_c, 9, 80, 80
14, 27307, Note_on_c, 9, 80, 0
14, 27307, Control_c, 9, 123, 0
14, 27330, Note_on_c, 9, 80, 51
14, 27338, Note_on_c, 9, 80, 0
14, 27341, Control_c, 9, 123, 0
14, 27360, Note_on_c, 9, 81, 71
14, 27380, Note_on_c, 9, 81, 0
14, 27384, Control_c, 9, 123, 0
14, 27420, Note_on_c, 9, 80, 51
14, 27426, Note_on_c, 9, 80, 0
14, 27428, Control_c, 9, 123, 0
14, 27450, Note_on_c, 9, 80, 58
14, 27462, Note_on_c, 9, 80, 0
14, 27465, Control_c, 9, 123, 0
14, 27480, Note_on_c, 9, 81, 74
14, 27501, Note_on_c, 9, 81, 0
14, 27504, Control_c, 9, 123, 0
14, 27540, Note_on_c, 9, 80, 63
14, 27548, Note_on_c, 9, 80, 0
14, 27551, Control_c, 9, 123, 0
14, 27570, Note_on_c, 9, 80, 54
14, 27582, Note_on_c, 9, 80, 0
14, 27586, Control_c, 9, 123, 0
14, 27600, Note_on_c, 9, 81, 68
14, 27628, Note_on_c, 9, 81, 0
14, 27630, Control_c, 9, 123, 0
14, 27660, Note_on_c, 9, 80, 63
14, 27667, Note_on_c, 9, 80, 0
14, 27670, Control_c, 9, 123, 0
14, 27690, Note_on_c, 9, 80, 51
14, 27703, Note_on_c, 9, 80, 0
14, 27703, Control_c, 9, 123, 0
14, 27720, Note_on_c, 9, 81, 68
14, 27745, Note_on_c, 9, 81, 0
14, 27746, Control_c, 9, 123, 0
14, 27780, Note_on_c, 9, 80, 63
14, 27783, Control_c, 9, 123, 0
14, 27788, Note_on_c, 9, 80, 0
14, 27810, Note_on_c, 9, 80, 58
14, 27819, Control_c, 9, 123, 0
14, 27823, Note_on_c, 9, 80, 0
14, 27840, Note_on_c, 9, 81, 71
14, 27860, Control_c, 9, 123, 0
14, 27862, Note_on_c, 9, 81, 0
14, 27900, Note_on_c, 9, 80, 68
14, 27908, Control_c, 9, 123, 0
14, 27911, Note_on_c, 9, 80, 0
14, 27930, Note_on_c, 9, 80, 68
14, 27942, Note_on_c, 9, 80, 0
14, 27942, Control_c, 9, 123, 0
14, 27960, Note_on_c, 9, 81, 74
14, 27984, Note_on_c, 9, 81, 0
14, 27984, Control_c, 9, 123, 0
14, 28020, Note_on_c, 9, 80, 54
14, 28025, Control_c, 9, 123, 0
14, 28026, Note_on_c, 9, 80, 0
14, 28050, Note_on_c, 9, 80, 43
14, 28059, Note_on_c, 9, 80, 0
14, 28060, Control_c, 9, 123, 0
14, 28080, Note_on_c, 9, 81, 77
14, 28106, Note_on_c, 9, 81, 0
14, 28108, Control_c, 9, 123, 0
14, 28140, Note_on_c, 9, 80, 68
14, 28148, Note_on_c, 9, 80, 0
14, 28149, Control_c, 9, 123, 0
14, 28170, Note_on_c, 9, 80, 27
14, 28176, Note_on_c, 9, 80, 0
14, 28180, Control_c, 9, 123, 0
14, 28200, Note_on_c, 9, 81, 77
14, 28227, Note_on_c, 9, 81, 0
14, 28232, Control_c, 9, 123, 0
14, 28260, Note_on_c, 9, 80, 51
14, 28262, Control_c, 9, 123, 0
14, 28265, Note_on_c, 9, 80, 0
14, 28290, Note_on_c, 9, 80, 54
14, 28298, Control_c, 9, 123, 0
14, 28300, Note_on_c, 9, 80, 0
14, 28320, Note_on_c, 9, 81, 77
14, 28334, Note_on_c, 9, 81, 0
14, 28338, Control_c, 9, 123, 0
14, 28350, Note_on_c, 9, 81, 56
14, 28368, Note_on_c, 9, 81, 0
14, 28371, Control_c, 9, 123, 0
14, 28380, Note_on_c, 9, 80, 54
14, 28387, Note_on_c, 9, 80, 0
14, 28388, Control_c, 9, 123, 0
14, 28410, Note_on_c, 9, 80, 51
14, 28421, Control_c, 9, 123, 0
14, 28422, Note_on_c, 9, 80, 0
14, 28440, Note_on_c, 9, 81, 71
14, 28452, Note_on_c, 9, 81, 0
14, 28461, Control_c, 9, 123, 0
14, 28470, Note_on_c, 9, 81, 52
14, 28488, Note_on_c, 9, 81, 0
14, 28494, Control_c, 9, 123, 0
14, 28500, Note_on_c, 9, 80, 45
14, 28506, Note_on_c, 9, 80, 0
14, 28513, Control_c, 9, 123, 0
14, 28530, Note_on_c, 9, 80, 51
14, 28544, Note_on_c, 9, 80, 0
14, 28546, Control_c, 9, 123, 0
14, 28560, Note_on_c, 9, 81, 68
14, 28571, Note_on_c, 9, 81, 0
14, 28577, Control_c, 9, 123, 0
14, 28590, Note_on_c, 9, 81, 58
14, 28608, Note_on_c, 9, 81, 0
14, 28612, Control_c, 9, 123, 0
14, 28620, Note_on_c, 9, 80, 54
14, 28626, Control_c, 9, 123, 0
14, 28627, Note_on_c, 9, 80, 0
14, 28650, Note_on_c, 9, 80, 58
14, 28664, Note_on_c, 9, 80, 0
14, 28664, Control_c, 9, 123, 0
14, 28680, Note_on_c, 9, 81, 65
14, 28691, Note_on_c, 9, 81, 0
14, 28694, Control_c, 9, 123, 0
14, 28710, Note_on_c, 9, 81, 52
14, 28725, Note_on_c, 9, 81, 0
14, 28726, Control_c, 9, 123, 0
14, 28740, Note_on_c, 9, 80, 63
14, 28751, Note_on_c, 9, 80, 0
14, 28754, Control_c, 9, 123, 0
14, 28770, Note_on_c, 9, 80, 45
14, 28782, Note_on_c, 9, 80, 0
14, 28785, Control_c, 9, 123, 0
14, 28800, Note_on_c, 9, 81, 68
14, 28813, Note_on_c, 9, 81, 0
14, 28815, Control_c, 9, 123, 0
14, 28830, Note_on_c, 9, 81, 47
14, 28844, Note_on_c, 9, 81, 0
14, 28847, Control_c, 9, 123, 0
14, 28860, Note_on_c, 9, 80, 74
14, 28870, Note_on_c, 9, 80, 0
14, 28870, Control_c, 9, 123, 0
14, 28890, Note_on_c, 9, 80, 58
14, 28902, Note_on_c, 9, 80, 0
14, 28904, Control_c, 9, 123, 0
14, 28920, Note_on_c, 9, 81, 68
14, 28933, Note_on_c, 9, 81, 0
14, 28935, Control_c, 9, 123, 0
14, 28950, Note_on_c, 9, 81, 56
14, 28967, Note_on_c, 9, 81, 0
14, 28970, Control_c, 9, 123, 0
14, 28980, Note_on_c, 9, 80, 54
14, 28987, Note_on_c, 9, 80, 0
14, 28991, Control_c, 9, 123, 0
14, 29010, Note_on_c, 9, 80, 58
14, 29023, Note_on_c, 9, 80, 0
14, 29026, Control_c, 9, 123, 0
14, 29040, Note_on_c, 9, 81, 68
14, 29054, Note_on_c, 9, 81, 0
14, 29058, Control_c, 9, 123, 0
14, 29070, Note_on_c, 9, 81, 54
14, 29086, Note_on_c, 9, 81, 0
14, 29090, Control_c, 9, 123, 0
14, 29100, Note_on_c, 9, 80, 58
14, 29111, Note_on_c, 9, 80, 0
14, 29111, Control_c, 9, 123, 0
14, 29130, Note_on_c, 9, 80, 39
14, 29139, Note_on_c, 9, 80, 0
14, 29141, Control_c, 9, 123, 0
14, 29160, Note_on_c, 9, 81, 63
14, 29172, Note_on_c, 9, 81, 0
14, 29173, Control_c, 9, 123, 0
14, 29190, Note_on_c, 9, 81, 48
14, 29207, Note_on_c, 9, 81, 0
14, 29208, Control_c, 9, 123, 0
14, 29220, Note_on_c, 9, 80, 63
14, 29230, Note_on_c, 9, 80, 0
14, 29231, Control_c, 9, 123, 0
14, 29250, Note_on_c, 9, 80, 63
14, 29263, Note_on_c, 9, 80, 0
14, 29266, Control_c, 9, 123, 0
14, 29280, Note_on_c, 9, 81, 71
14, 29292, Note_on_c, 9, 81, 0
14, 29296, Control_c, 9, 123, 0
14, 29310, Note_on_c, 9, 81, 52
14, 29327, Note_on_c, 9, 81, 0
14, 29331, Control_c, 9, 123, 0
14, 29340, Note_on_c, 9, 80, 58
14, 29351, Note_on_c, 9, 80, 0
14, 29352, Control_c, 9, 123, 0
14, 29370, Note_on_c, 9, 80, 43
14, 29380, Note_on_c, 9, 80, 0
14, 29382, Control_c, 9, 123, 0
14, 29400, Note_on_c, 9, 81, 71
14, 29413, Note_on_c, 9, 81, 0
14, 29419, Control_c, 9, 123, 0
14, 29430, Note_on_c, 9, 81, 42
14, 29447, Note_on_c, 9, 81, 0
14, 29452, Control_c, 9, 123, 0
14, 29460, Note_on_c, 9, 80, 51
14, 29467, Note_on_c, 9, 80, 0
14, 29470, Control_c, 9, 123, 0
14, 29490, Note_on_c, 9, 80, 63
14, 29502, Note_on_c, 9, 80, 0
14, 29505, Control_c, 9, 123, 0
14, 29520, Note_on_c, 9, 81, 68
14, 29534, Note_on_c, 9, 81, 0
14, 29537, Control_c, 9, 123, 0
14, 29550, Note_on_c, 9, 81, 48
14, 29565, Note_on_c, 9, 81, 0
14, 29569, Control_c, 9, 123, 0
14, 29580, Note_on_c, 9, 80, 68
14, 29592, Note_on_c, 9, 80, 0
14, 29596, Control_c, 9, 123, 0
14, 29610, Note_on_c, 9, 80, 51
14, 29622, Note_on_c, 9, 80, 0
14, 29625, Control_c, 9, 123, 0
14, 29640, Note_on_c, 9, 81, 65
14, 29653, Note_on_c, 9, 81, 0
14, 29656, Control_c, 9, 123, 0
14, 29670, Note_on_c, 9, 81, 63
14, 29685, Note_on_c, 9, 81, 0
14, 29689, Control_c, 9, 123, 0
14, 29700, Note_on_c, 9, 80, 63
14, 29707, Note_on_c, 9, 80, 0
14, 29710, Control_c, 9, 123, 0
14, 29730, Note_on_c, 9, 80, 35
14, 29743, Note_on_c, 9, 80, 0
14, 29743, Control_c, 9, 123, 0
14, 29760, Note_on_c, 9, 81, 63
14, 29773, Note_on_c, 9, 81, 0
14, 29773, Control_c, 9, 123, 0
14, 29790, Note_on_c, 9, 81, 60
14, 29808, Note_on_c, 9, 81, 0
14, 29810, Control_c, 9, 123, 0
14, 29820, Note_on_c, 9, 80, 63
14, 29828, Note_on_c, 9, 80, 0
14, 29831, Control_c, 9, 123, 0
14, 29850, Note_on_c, 9, 80, 58
14, 29863, Note_on_c, 9, 80, 0
14, 29865, Control_c, 9, 123, 0
14, 29880, Note_on_c, 9, 81, 68
14, 29890, Note_on_c, 9, 81, 0
14, 29896, Control_c, 9, 123, 0
14, 29910, Note_on_c, 9, 81, 54
14, 29927, Note_on_c, 9, 81, 0
14, 29929, Control_c, 9, 123, 0
14, 29940, Note_on_c, 9, 80, 74
14, 29952, Note_on_c, 9, 80, 0
14, 29954, Control_c, 9, 123, 0
14, 29970, Note_on_c, 9, 80, 27
14, 29979, Note_on_c, 9, 80, 0
14, 29981, Control_c, 9, 123, 0
14, 30000, Note_on_c, 9, 81, 63
14, 30011, Note_on_c, 9, 81, 0
14, 30016, Control_c, 9, 123, 0
14, 30030, Note_on_c, 9, 81, 52
14, 30047, Note_on_c, 9, 81, 0
14, 30052, Control_c, 9, 123, 0
14, 30060, Note_on_c, 9, 80, 54
14, 30068, Note_on_c, 9, 80, 0
14, 30071, Control_c, 9, 123, 0
14, 30090, Note_on_c, 9, 80, 68
14, 30102, Note_on_c, 9, 80, 0
14, 30106, Control_c, 9, 123, 0
14, 30120, Note_on_c, 9, 81, 71
14, 30131, Note_on_c, 9, 81, 0
14, 30137, Control_c, 9, 123, 0
14, 30150, Note_on_c, 9, 81, 56
14, 30165, Note_on_c, 9, 81, 0
14, 30169, Control_c, 9, 123, 0
14, 30180, Note_on_c, 9, 80, 68
14, 30188, Control_c, 9, 123, 0
14, 30191, Note_on_c, 9, 80, 0
14, 30210, Note_on_c, 9, 80, 63
14, 30223, Control_c, 9, 123, 0
14, 30225, Note_on_c, 9, 80, 0
14, 30240, Note_on_c, 9, 81, 71
14, 30251, Control_c, 9, 123, 0
14, 30252, Note_on_c, 9, 81, 0
14, 30270, Note_on_c, 9, 81, 56
14, 30284, Control_c, 9, 123, 0
14, 30287, Note_on_c, 9, 81, 0
14, 30300, Note_on_c, 9, 80, 68
14, 30310, Note_on_c, 9, 80, 0
14, 30310, Control_c, 9, 123, 0
14, 30330, Note_on_c, 9, 80, 45
14, 30338, Note_on_c, 9, 80, 0
14, 30340, Control_c, 9, 123, 0
14, 30360, Note_on_c, 9, 81, 68
14, 30372, Note_on_c, 9, 81, 0
14, 30375, Control_c, 9, 123, 0
14, 30390, Note_on_c, 9, 81, 50
14, 30405, Note_on_c, 9, 81, 0
14, 30406, Control_c, 9, 123, 0
14, 30420, Note_on_c, 9, 80, 63
14, 30428, Control_c, 9, 123, 0
14, 30429, Note_on_c, 9, 80, 0
14, 30450, Note_on_c, 9, 80, 63
14, 30460, Note_on_c, 9, 80, 0
14, 30462, Control_c, 9, 123, 0
14, 30480, Note_on_c, 9, 81, 60
14, 30492, Note_on_c, 9, 81, 0
14, 30494, Control_c, 9, 123, 0
14, 30510, Note_on_c, 9, 81, 63
14, 30525, Note_on_c, 9, 81, 0
14, 30527, Control_c, 9, 123, 0
14, 30540, Note_on_c, 9, 80, 74
14, 30549, Control_c, 9, 123, 0
14, 30551, Note_on_c, 9, 80, 0
14, 30570, Note_on_c, 9, 80, 68
14, 30583, Control_c, 9, 123, 0
14, 30584, Note_on_c, 9, 80, 0
14, 30600, Note_on_c, 9, 81, 68
14, 30612, Note_on_c, 9, 81, 0
14, 30612, Control_c, 9, 123, 0
14, 30630, Note_on_c, 9, 81, 50
14, 30644, Control_c, 9, 123, 0
14, 30645, Note_on_c, 9, 81, 0
14, 30660, Note_on_c, 9, 80, 48
14, 30665, Control_c, 9, 123, 0
14, 30669, Note_on_c, 9, 80, 0
14, 30690, Note_on_c, 9, 80, 51
14, 30703, Note_on_c, 9, 80, 0
14, 30703, Control_c, 9, 123, 0
14, 30720, Note_on_c, 9, 81, 68
14, 30730, Control_c, 9, 123, 0
14, 30731, Note_on_c, 9, 81, 0
14, 30750, Note_on_c, 9, 81, 47
14, 30762, Control_c, 9, 123, 0
14, 30765, Note_on_c, 9, 81, 0
14, 30780, Note_on_c, 9, 80, 63
14, 30790, Control_c, 9, 123, 0
14, 30791, Note_on_c, 9, 80, 0
14, 30810, Note_on_c, 9, 80, 48
14, 30822, Note_on_c, 9, 80, 0
14, 30824, Control_c, 9, 123, 0
14, 30840, Note_on_c, 9, 81, 68
14, 30851, Note_on_c, 9, 81, 0
14, 30853, Control_c, 9, 123, 0
14, 30870, Note_on_c, 9, 81, 45
14, 30885, Control_c, 9, 123, 0
14, 30886, Note_on_c, 9, 81, 0
14, 30900, Note_on_c, 9, 80, 63
14, 30910, Note_on_c, 9, 80, 0
14, 30911, Control_c, 9, 123, 0
14, 30930, Note_on_c, 9, 80, 51
14, 30942, Note_on_c, 9, 80, 0
14, 30943, Control_c, 9, 123, 0
14, 30960, Note_on_c, 9, 81, 65
14, 30971, Note_on_c, 9, 81, 0
14, 30973, Control_c, 9, 123, 0
14, 30990, Note_on_c, 9, 81, 45
14, 31005, Note_on_c, 9, 81, 0
14, 31005, Control_c, 9, 123, 0
14, 31020, Note_on_c, 9, 80, 74
14, 31031, Note_on_c, 9, 80, 0
14, 31031, Control_c, 9, 123, 0
14, 31050, Note_on_c, 9, 80, 54
14, 31065, Note_on_c, 9, 80, 0
14, 31065, Control_c, 9, 123, 0
14, 31080, Note_on_c, 9, 81, 63
14, 31090, Note_on_c, 9, 81, 0
14, 31091, Control_c, 9, 123, 0
14, 31110, Note_on_c, 9, 81, 48
14, 31124, Control_c, 9, 123, 0
14, 31127, Note_on_c, 9, 81, 0
14, 31140, Note_on_c, 9, 80, 68
14, 31150, Note_on_c, 9, 80, 0
14, 31151, Control_c, 9, 123, 0
14, 31170, Note_on_c, 9, 80, 51
14, 31183, Note_on_c, 9, 80, 0
14, 31187, Control_c, 9, 123, 0
14, 31200, Note_on_c, 9, 81, 65
14, 31212, Note_on_c, 9, 81, 0
14, 31212, Control_c, 9, 123, 0
14, 31230, Note_on_c, 9, 81, 50
14, 31244, Control_c, 9, 123, 0
14, 31247, Note_on_c, 9, 81, 0
14, 31260, Note_on_c, 9, 80, 58
14, 31267, Note_on_c, 9, 80, 0
14, 31268, Control_c, 9, 123, 0
14, 31290, Note_on_c, 9, 80, 45
14, 31302, Note_on_c, 9, 80, 0
14, 31302, Control_c, 9, 123, 0
14, 31320, Note_on_c, 9, 81, 65
14, 31331, Note_on_c, 9, 81, 0
14, 31333, Control_c, 9, 123, 0
14, 31350, Note_on_c, 9, 81, 50
14, 31365, Control_c, 9, 123, 0
14, 31367, Note_on_c, 9, 81, 0
14, 31380, Note_on_c, 9, 80, 68
14, 31392, Note_on_c, 9, 80, 0
14, 31392, Control_c, 9, 123, 0
14, 31410, Note_on_c, 9, 80, 37
14, 31421, Control_c, 9, 123, 0
14, 31424, Note_on_c, 9, 80, 0
14, 31440, Note_on_c, 9, 81, 74
14, 31452, Note_on_c, 9, 81, 0
14, 31453, Control_c, 9, 123, 0
14, 31470, Note_on_c, 9, 81, 47
14, 31487, Control_c, 9, 123, 0
14, 31489, Note_on_c, 9, 81, 0
14, 31500, Note_on_c, 9, 80, 63
14, 31506, Control_c, 9, 123, 0
14, 31509, Note_on_c, 9, 80, 0
14, 31530, Note_on_c, 9, 80, 58
14, 31540, Control_c, 9, 123, 0
14, 31542, Note_on_c, 9, 80, 0
14, 31560, Note_on_c, 9, 81, 60
14, 31569, Control_c, 9, 123, 0
14, 31570, Note_on_c, 9, 81, 0
14, 31590, Note_on_c, 9, 81, 47
14, 31606, Control_c, 9, 123, 0
14, 31608, Note_on_c, 9, 81, 0
14, 31620, Note_on_c, 9, 80, 68
14, 31626, Note_on_c, 9, 80, 0
14, 31626, Control_c, 9, 123, 0
14, 31650, Note_on_c, 9, 80, 54
14, 31659, Control_c, 9, 123, 0
14, 31660, Note_on_c, 9, 80, 0
14, 31680, Note_on_c, 9, 81, 54
14, 31695, Control_c, 9, 123, 0
14, 31697, Note_on_c, 9, 81, 0
14, 35520, Note_on_c, 9, 81, 68
14, 35544, Control_c, 9, 123, 0
14, 35545, Note_on_c, 9, 81, 0
14, 35580, Note_on_c, 9, 80, 58
14, 35589, Note_on_c, 9, 80, 0
14, 35589, Control_c, 9, 123, 0
14, 35610, Note_on_c, 9, 80, 63
14, 35624, Note_on_c, 9, 80, 0
14, 35624, Control_c, 9, 123, 0
14, 35640, Note_on_c, 9, 81, 68
14, 35664, Note_on_c, 9, 81, 0
14, 35664, Control_c, 9, 123, 0
14, 35700, Note_on_c, 9, 80, 51
14, 35706, Note_on_c, 9, 80, 0
14, 35706, Control_c, 9, 123, 0
14, 35730, Note_on_c, 9, 80, 74
14, 35740, Control_c, 9, 123, 0
14, 35741, Note_on_c, 9, 80, 0
14, 35760, Note_on_c, 9, 81, 77
14, 35782, Note_on_c, 9, 81, 0
14, 35783, Control_c, 9, 123, 0
14, 35820, Note_on_c, 9, 80, 54
14, 35826, Note_on_c, 9, 80, 0
14, 35830, Control_c, 9, 123, 0
14, 35850, Note_on_c, 9, 80, 63
14, 35858, Note_on_c, 9, 80, 0
14, 35861, Control_c, 9, 123, 0
14, 35880, Note_on_c, 9, 81, 71
14, 35902, Note_on_c, 9, 81, 0
14, 35905, Control_c, 9, 123, 0
14, 35940, Note_on_c, 9, 80, 63
14, 35945, Note_on_c, 9, 80, 0
14, 35945, Control_c, 9, 123, 0
14, 35970, Note_on_c, 9, 80, 68
14, 35977, Note_on_c, 9, 80, 0
14, 35980, Control_c, 9, 123, 0
14, 36000, Note_on_c, 9, 81, 77
14, 36022, Note_on_c, 9, 81, 0
14, 36026, Control_c, 9, 123, 0
14, 36060, Note_on_c, 9, 80, 63
14, 36065, Note_on_c, 9, 80, 0
14, 36067, Control_c, 9, 123, 0
14, 36090, Note_on_c, 9, 80, 63
14, 36097, Note_on_c, 9, 80, 0
14, 36100, Control_c, 9, 123, 0
14, 36120, Note_on_c, 9, 81, 68
14, 36143, Note_on_c, 9, 81, 0
14, 36145, Control_c, 9, 123, 0
14, 36180, Note_on_c, 9, 80, 54
14, 36186, Note_on_c, 9, 80, 0
14, 36187, Control_c, 9, 123, 0
14, 36210, Note_on_c, 9, 80, 74
14, 36220, Note_on_c, 9, 80, 0
14, 36220, Control_c, 9, 123, 0
14, 36240, Note_on_c, 9, 81, 68
14, 36263, Note_on_c, 9, 81, 0
14, 36265, Control_c, 9, 123, 0
14, 36300, Note_on_c, 9, 80, 48
14, 36305, Note_on_c, 9, 80, 0
14, 36308, Control_c, 9, 123, 0
14, 36330, Note_on_c, 9, 80, 74
14, 36338, Note_on_c, 9, 80, 0
14, 36343, Control_c, 9, 123, 0
14, 36360, Note_on_c, 9, 81, 71
14, 36380, Note_on_c, 9, 81, 0
14, 36385, Control_c, 9, 123, 0
14, 36420, Note_on_c, 9, 80, 54
14, 36426, Note_on_c, 9, 80, 0
14, 36427, Control_c, 9, 123, 0
14, 36450, Note_on_c, 9, 80, 63
14, 36457, Note_on_c, 9, 80, 0
14, 36460, Control_c, 9, 123, 0
14, 36480, Note_on_c, 9, 81, 71
14, 36502, Note_on_c, 9, 81, 0
14, 36505, Control_c, 9, 123, 0
14, 36540, Note_on_c, 9, 80, 63
14, 36547, Note_on_c, 9, 80, 0
14, 36548, Control_c, 9, 123, 0
14, 36570, Note_on_c, 9, 80, 63
14, 36579, Note_on_c, 9, 80, 0
14, 36581, Control_c, 9, 123, 0
14, 36600, Note_on_c, 9, 81, 71
14, 36620, Note_on_c, 9, 81, 0
14, 36623, Control_c, 9, 123, 0
14, 36660, Note_on_c, 9, 80, 58
14, 36667, Note_on_c, 9, 80, 0
14, 36669, Control_c, 9, 123, 0
14, 36690, Note_on_c, 9, 80, 63
14, 36695, Note_on_c, 9, 80, 0
14, 36701, Control_c, 9, 123, 0
14, 36720, Note_on_c, 9, 81, 74
14, 36740, Note_on_c, 9, 81, 0
14, 36745, Control_c, 9, 123, 0
14, 36780, Note_on_c, 9, 80, 58
14, 36786, Note_on_c, 9, 80, 0
14, 36790, Control_c, 9, 123, 0
14, 36810, Note_on_c, 9, 80, 63
14, 36818, Note_on_c, 9, 80, 0
14, 36822, Control_c, 9, 123, 0
14, 36840, Note_on_c, 9, 81, 68
14, 36862, Note_on_c, 9, 81, 0
14, 36865, Control_c, 9, 123, 0
14, 36900, Note_on_c, 9, 80, 58
14, 36907, Note_on_c, 9, 80, 0
14, 36908, Control_c, 9, 123, 0
14, 36930, Note_on_c, 9, 80, 58
14, 36937, Note_on_c, 9, 80, 0
14, 36942, Control_c, 9, 123, 0
14, 36960, Note_on_c, 9, 81, 68
14, 36979, Note_on_c, 9, 81, 0
14, 36981, Control_c, 9, 123, 0
14, 37020, Note_on_c, 9, 80, 68
14, 37026, Note_on_c, 9, 80, 0
14, 37026, Control_c, 9, 123, 0
14, 37050, Note_on_c, 9, 80, 51
14, 37057, Note_on_c, 9, 80, 0
14, 37059, Control_c, 9, 123, 0
14, 37080, Note_on_c, 9, 81, 71
14, 37104, Control_c, 9, 123, 0
14, 37105, Note_on_c, 9, 81, 0
14, 37140, Note_on_c, 9, 80, 51
14, 37144, Note_on_c, 9, 80, 0
14, 37146, Control_c, 9, 123, 0
14, 37170, Note_on_c, 9, 80, 63
14, 37177, Note_on_c, 9, 80, 0
14, 37179, Control_c, 9, 123, 0
14, 37200, Note_on_c, 9, 81, 74
14, 37222, Note_on_c, 9, 81, 0
14, 37225, Control_c, 9, 123, 0
14, 37260, Note_on_c, 9, 80, 63
14, 37265, Note_on_c, 9, 80, 0
14, 37269, Control_c, 9, 123, 0
14, 37290, Note_on_c, 9, 80, 48
14, 37300, Note_on_c, 9, 80, 0
14, 37303, Control_c, 9, 123, 0
14, 37320, Note_on_c, 9, 81, 74
14, 37338, Note_on_c, 9, 81, 0
14, 37343, Control_c, 9, 123, 0
14, 37380, Note_on_c, 9, 80, 68
14, 37386, Note_on_c, 9, 80, 0
14, 37388, Control_c, 9, 123, 0
14, 37410, Note_on_c, 9, 80, 51
14, 37420, Note_on_c, 9, 80, 0
14, 37420, Control_c, 9, 123, 0
14, 37440, Note_on_c, 9, 81, 74
14, 37459, Note_on_c, 9, 81, 0
14, 37461, Control_c, 9, 123, 0
14, 37500, Note_on_c, 9, 80, 63
14, 37505, Note_on_c, 9, 80, 0
14, 37510, Control_c, 9, 123, 0
14, 37530, Note_on_c, 9, 80, 58
14, 37539, Note_on_c, 9, 80, 0
14, 37543, Control_c, 9, 123, 0
14, 37560, Note_on_c, 9, 81, 74
14, 37579, Note_on_c, 9, 81, 0
14, 37584, Control_c, 9, 123, 0
14, 37620, Note_on_c, 9, 80, 63
14, 37627, Note_on_c, 9, 80, 0
14, 37628, Control_c, 9, 123, 0
14, 37650, Note_on_c, 9, 80, 58
14, 37660, Note_on_c, 9, 80, 0
14, 37663, Control_c, 9, 123, 0
14, 37680, Note_on_c, 9, 81, 74
14, 37703, Note_on_c, 9, 81, 0
14, 37705, Control_c, 9, 123, 0
14, 37740, Note_on_c, 9, 80, 63
14, 37747, Note_on_c, 9, 80, 0
14, 37749, Control_c, 9, 123, 0
14, 37770, Note_on_c, 9, 80, 58
14, 37781, Note_on_c, 9, 80, 0
14, 37784, Control_c, 9, 123, 0
14, 37800, Note_on_c, 9, 81, 60
14, 37822, Note_on_c, 9, 81, 0
14, 37824, Control_c, 9, 123, 0
14, 37860, Note_on_c, 9, 80, 68
14, 37862, Control_c, 9, 123, 0
14, 37865, Note_on_c, 9, 80, 0
14, 37890, Note_on_c, 9, 80, 54
14, 37897, Control_c, 9, 123, 0
14, 37898, Note_on_c, 9, 80, 0
14, 37920, Note_on_c, 9, 81, 71
14, 37941, Control_c, 9, 123, 0
14, 37944, Note_on_c, 9, 81, 0
14, 37980, Note_on_c, 9, 80, 51
14, 37986, Control_c, 9, 123, 0
14, 37987, Note_on_c, 9, 80, 0
14, 38010, Note_on_c, 9, 80, 45
14, 38017, Note_on_c, 9, 80, 0
14, 38018, Control_c, 9, 123, 0
14, 38040, Note_on_c, 9, 81, 77
14, 38062, Note_on_c, 9, 81, 0
14, 38066, Control_c, 9, 123, 0
14, 38100, Note_on_c, 9, 80, 58
14, 38108, Note_on_c, 9, 80, 0
14, 38108, Control_c, 9, 123, 0
14, 38130, Note_on_c, 9, 80, 54
14, 38144, Note_on_c, 9, 80, 0
14, 38145, Control_c, 9, 123, 0
14, 38160, Note_on_c, 9, 81, 77
14, 38180, Note_on_c, 9, 81, 0
14, 38187, Control_c, 9, 123, 0
14, 38220, Note_on_c, 9, 80, 63
14, 38227, Note_on_c, 9, 80, 0
14, 38230, Control_c, 9, 123, 0
14, 38250, Note_on_c, 9, 80, 58
14, 38260, Note_on_c, 9, 80, 0
14, 38263, Control_c, 9, 123, 0
14, 38280, Note_on_c, 9, 81, 74
14, 38302, Note_on_c, 9, 81, 0
14, 38305, Control_c, 9, 123, 0
14, 38340, Note_on_c, 9, 80, 63
14, 38347, Note_on_c, 9, 80, 0
14, 38349, Control_c, 9, 123, 0
14, 38370, Note_on_c, 9, 80, 51
14, 38382, Note_on_c, 9, 80, 0
14, 38382, Control_c, 9, 123, 0
14, 38400, Note_on_c, 9, 81, 77
14, 38420, Note_on_c, 9, 81, 0
14, 38424, Control_c, 9, 123, 0
14, 38460, Note_on_c, 9, 80, 58
14, 38465, Note_on_c, 9, 80, 0
14, 38472, Control_c, 9, 123, 0
14, 38490, Note_on_c, 9, 80, 63
14, 38503, Note_on_c, 9, 80, 0
14, 38506, Control_c, 9, 123, 0
14, 38520, Note_on_c, 9, 81, 71
14, 38542, Note_on_c, 9, 81, 0
14, 38545, Control_c, 9, 123, 0
14, 38580, Note_on_c, 9, 80, 58
14, 38585, Note_on_c, 9, 80, 0
14, 38588, Control_c, 9, 123, 0
14, 38610, Note_on_c, 9, 80, 63
14, 38622, Control_c, 9, 123, 0
14, 38624, Note_on_c, 9, 80, 0
14, 38640, Note_on_c, 9, 81, 68
14, 38663, Note_on_c, 9, 81, 0
14, 38663, Control_c, 9, 123, 0
14, 38700, Note_on_c, 9, 80, 63
14, 38705, Note_on_c, 9, 80, 0
14, 38707, Control_c, 9, 123, 0
14, 38730, Note_on_c, 9, 80, 51
14, 38740, Note_on_c, 9, 80, 0
14, 38741, Control_c, 9, 123, 0
14, 38760, Note_on_c, 9, 81, 68
14, 38783, Note_on_c, 9, 81, 0
14, 38786, Control_c, 9, 123, 0
14, 38820, Note_on_c, 9, 80, 63
14, 38826, Note_on_c, 9, 80, 0
14, 38826, Control_c, 9, 123, 0
14, 38850, Note_on_c, 9, 80, 41
14, 38858, Control_c, 9, 123, 0
14, 38860, Note_on_c, 9, 80, 0
14, 38880, Note_on_c, 9, 81, 74
14, 38901, Note_on_c, 9, 81, 0
14, 38901, Control_c, 9, 123, 0
14, 38940, Note_on_c, 9, 80, 68
14, 38945, Note_on_c, 9, 80, 0
14, 38949, Control_c, 9, 123, 0
14, 38970, Note_on_c, 9, 80, 45
14, 38979, Note_on_c, 9, 80, 0
14, 38981, Control_c, 9, 123, 0
14, 39000, Note_on_c, 9, 81, 71
14, 39024, Note_on_c, 9, 81, 0
14, 39028, Control_c, 9, 123, 0
14, 39060, Note_on_c, 9, 80, 58
14, 39066, Note_on_c, 9, 80, 0
14, 39068, Control_c, 9, 123, 0
14, 39090, Note_on_c, 9, 80, 63
14, 39101, Control_c, 9, 123, 0
14, 39103, Note_on_c, 9, 80, 0
14, 39120, Note_on_c, 9, 81, 77
14, 39140, Note_on_c, 9, 81, 0
14, 39147, Control_c, 9, 123, 0
14, 39180, Note_on_c, 9, 80, 58
14, 39185, Note_on_c, 9, 80, 0
14, 39188, Control_c, 9, 123, 0
14, 39210, Note_on_c, 9, 80, 54
14, 39222, Control_c, 9, 123, 0
14, 39224, Note_on_c, 9, 80, 0
14, 39240, Note_on_c, 9, 81, 77
14, 39262, Note_on_c, 9, 81, 0
14, 39266, Control_c, 9, 123, 0
14, 39300, Note_on_c, 9, 80, 63
14, 39309, Note_on_c, 9, 80, 0
14, 39311, Control_c, 9, 123, 0
14, 39343, Control_c, 9, 123, 0
14, 39360, Note_on_c, 9, 81, 68
14, 39383, Note_on_c, 9, 81, 0
14, 39386, Control_c, 9, 123, 0
14, 41520, Note_on_c, 9, 81, 68
14, 41549, Note_on_c, 9, 81, 0
14, 41549, Control_c, 9, 123, 0
14, 41580, Note_on_c, 9, 80, 45
14, 41587, Note_on_c, 9, 80, 0
14, 41589, Control_c, 9, 123, 0
14, 41610, Note_on_c, 9, 80, 63
14, 41624, Note_on_c, 9, 80, 0
14, 41624, Control_c, 9, 123, 0
14, 41640, Note_on_c, 9, 81, 63
14, 41664, Note_on_c, 9, 81, 0
14, 41664, Control_c, 9, 123, 0
14, 41700, Note_on_c, 9, 80, 45
14, 41705, Note_on_c, 9, 80, 0
14, 41706, Control_c, 9, 123, 0
14, 41730, Note_on_c, 9, 80, 58
14, 41742, Control_c, 9, 123, 0
14, 41743, Note_on_c, 9, 80, 0
14, 41760, Note_on_c, 9, 81, 74
14, 41782, Note_on_c, 9, 81, 0
14, 41784, Control_c, 9, 123, 0
14, 41820, Note_on_c, 9, 80, 45
14, 41826, Note_on_c, 9, 80, 0
14, 41828, Control_c, 9, 123, 0
14, 41850, Note_on_c, 9, 80, 54
14, 41861, Note_on_c, 9, 80, 0
14, 41862, Control_c, 9, 123, 0
14, 41880, Note_on_c, 9, 81, 71
14, 41902, Note_on_c, 9, 81, 0
14, 41903, Control_c, 9, 123, 0
14, 41940, Note_on_c, 9, 80, 54
14, 41947, Note_on_c, 9, 80, 0
14, 41951, Control_c, 9, 123, 0
14, 41970, Note_on_c, 9, 80, 68
14, 41981, Note_on_c, 9, 80, 0
14, 41986, Control_c, 9, 123, 0
14, 42000, Note_on_c, 9, 81, 74
14, 42022, Note_on_c, 9, 81, 0
14, 42026, Control_c, 9, 123, 0
14, 42060, Note_on_c, 9, 80, 63
14, 42065, Note_on_c, 9, 80, 0
14, 42070, Control_c, 9, 123, 0
14, 42090, Note_on_c, 9, 80, 58
14, 42103, Note_on_c, 9, 80, 0
14, 42105, Control_c, 9, 123, 0
14, 42120, Note_on_c, 9, 81, 77
14, 42142, Note_on_c, 9, 81, 0
14, 42144, Control_c, 9, 123, 0
14, 42180, Note_on_c, 9, 80, 74
14, 42187, Note_on_c, 9, 80, 0
14, 42189, Control_c, 9, 123, 0
14, 42210, Note_on_c, 9, 80, 58
14, 42220, Note_on_c, 9, 80, 0
14, 42223, Control_c, 9, 123, 0
14, 42240, Note_on_c, 9, 81, 71
14, 42260, Note_on_c, 9, 81, 0
14, 42265, Control_c, 9, 123, 0
14, 42300, Note_on_c, 9, 80, 54
14, 42309, Note_on_c, 9, 80, 0
14, 42312, Control_c, 9, 123, 0
14, 42330, Note_on_c, 9, 80, 58
14, 42340, Note_on_c, 9, 80, 0
14, 42343, Control_c, 9, 123, 0
14, 42360, Note_on_c, 9, 81, 71
14, 42381, Note_on_c, 9, 81, 0
14, 42384, Control_c, 9, 123, 0
14, 42420, Note_on_c, 9, 80, 68
14, 42427, Note_on_c, 9, 80, 0
14, 42428, Control_c, 9, 123, 0
14, 42450, Note_on_c, 9, 80, 58
14, 42461, Note_on_c, 9, 80, 0
14, 42463, Control_c, 9, 123, 0
14, 42480, Note_on_c, 9, 81, 71
14, 42504, Note_on_c, 9, 81, 0
14, 42506, Control_c, 9, 123, 0
14, 42540, Note_on_c, 9, 80, 58
14, 42545, Note_on_c, 9, 80, 0
14, 42547, Control_c, 9, 123, 0
14, 42570, Note_on_c, 9, 80, 58
14, 42582, Note_on_c, 9, 80, 0
14, 42582, Control_c, 9, 123, 0
14, 42600, Note_on_c, 9, 81, 71
14, 42622, Note_on_c, 9, 81, 0
14, 42624, Control_c, 9, 123, 0
14, 42660, Note_on_c, 9, 80, 68
14, 42666, Note_on_c, 9, 80, 0
14, 42666, Control_c, 9, 123, 0
14, 42690, Note_on_c, 9, 80, 54
14, 42699, Control_c, 9, 123, 0
14, 42700, Note_on_c, 9, 80, 0
14, 42720, Note_on_c, 9, 81, 65
14, 42740, Control_c, 9, 123, 0
14, 42742, Note_on_c, 9, 81, 0
14, 42780, Note_on_c, 9, 80, 63
14, 42785, Note_on_c, 9, 80, 0
14, 42787, Control_c, 9, 123, 0
14, 42810, Note_on_c, 9, 80, 51
14, 42820, Note_on_c, 9, 80, 0
14, 42820, Control_c, 9, 123, 0
14, 42840, Note_on_c, 9, 81, 74
14, 42860, Note_on_c, 9, 81, 0
14, 42864, Control_c, 9, 123, 0
14, 42900, Note_on_c, 9, 80, 58
14, 42907, Note_on_c, 9, 80, 0
14, 42910, Control_c, 9, 123, 0
14, 42930, Note_on_c, 9, 80, 54
14, 42940, Note_on_c, 9, 80, 0
14, 42945, Control_c, 9, 123, 0
14, 42960, Note_on_c, 9, 81, 71
14, 42980, Note_on_c, 9, 81, 0
14, 42983, Control_c, 9, 123, 0
14, 43020, Note_on_c, 9, 80, 63
14, 43025, Note_on_c, 9, 80, 0
14, 43027, Control_c, 9, 123, 0
14, 43050, Note_on_c, 9, 80, 63
14, 43062, Note_on_c, 9, 80, 0
14, 43062, Control_c, 9, 123, 0
14, 43080, Note_on_c, 9, 81, 68
14, 43100, Note_on_c, 9, 81, 0
14, 43102, Control_c, 9, 123, 0
14, 43140, Note_on_c, 9, 80, 58
14, 43145, Note_on_c, 9, 80, 0
14, 43148, Control_c, 9, 123, 0
14, 43170, Note_on_c, 9, 80, 63
14, 43182, Note_on_c, 9, 80, 0
14, 43188, Control_c, 9, 123, 0
14, 43200, Note_on_c, 9, 81, 68
14, 43221, Note_on_c, 9, 81, 0
14, 43223, Control_c, 9, 123, 0
14, 43260, Note_on_c, 9, 80, 58
14, 43265, Note_on_c, 9, 80, 0
14, 43270, Control_c, 9, 123, 0
14, 43290, Note_on_c, 9, 80, 58
14, 43300, Note_on_c, 9, 80, 0
14, 43302, Control_c, 9, 123, 0
14, 43320, Note_on_c, 9, 81, 65
14, 43334, Note_on_c, 9, 81, 0
14, 43337, Control_c, 9, 123, 0
14, 43350, Note_on_c, 9, 81, 60
14, 43367, Note_on_c, 9, 81, 0
14, 43370, Control_c, 9, 123, 0
14, 43380, Note_on_c, 9, 80, 74
14, 43389, Note_on_c, 9, 80, 0
14, 43389, Control_c, 9, 123, 0
14, 43410, Note_on_c, 9, 80, 54
14, 43422, Note_on_c, 9, 80, 0
14, 43422, Control_c, 9, 123, 0
14, 43440, Note_on_c, 9, 81, 65
14, 43455, Note_on_c, 9, 81, 0
14, 43458, Control_c, 9, 123, 0
14, 43470, Note_on_c, 9, 81, 56
14, 43487, Note_on_c, 9, 81, 0
14, 43490, Control_c, 9, 123, 0
14, 43500, Note_on_c, 9, 80, 68
14, 43509, Note_on_c, 9, 80, 0
14, 43512, Control_c, 9, 123, 0
14, 43530, Note_on_c, 9, 80, 54
14, 43541, Note_on_c, 9, 80, 0
14, 43543, Control_c, 9, 123, 0
14, 43560, Note_on_c, 9, 81, 71
14, 43572, Note_on_c, 9, 81, 0
14, 43575, Control_c, 9, 123, 0
14, 43590, Note_on_c, 9, 81, 68
14, 43606, Note_on_c, 9, 81, 0
14, 43610, Control_c, 9, 123, 0
14, 43620, Note_on_c, 9, 80, 68
14, 43628, Note_on_c, 9, 80, 0
14, 43632, Control_c, 9, 123, 0
14, 43650, Note_on_c, 9, 80, 58
14, 43662, Note_on_c, 9, 80, 0
14, 43664, Control_c, 9, 123, 0
14, 43680, Note_on_c, 9, 81, 74
14, 43696, Note_on_c, 9, 81, 0
14, 43698, Control_c, 9, 123, 0
14, 43920, Note_on_c, 9, 81, 68
14, 43945, Note_on_c, 9, 81, 0
14, 43947, Control_c, 9, 123, 0
14, 43980, Note_on_c, 9, 80, 51
14, 43983, Note_on_c, 9, 80, 0
14, 43986, Control_c, 9, 123, 0
14, 44010, Note_on_c, 9, 80, 26
14, 44014, Note_on_c, 9, 80, 0
14, 44015, Control_c, 9, 123, 0
14, 44040, Note_on_c, 9, 81, 77
14, 44061, Control_c, 9, 123, 0
14, 44065, Note_on_c, 9, 81, 0
14, 44100, Note_on_c, 9, 80, 45
14, 44104, Control_c, 9, 123, 0
14, 44105, Note_on_c, 9, 80, 0
14, 44130, Note_on_c, 9, 80, 51
14, 44136, Note_on_c, 9, 80, 0
14, 44138, Control_c, 9, 123, 0
14, 44160, Note_on_c, 9, 81, 71
14, 44180, Note_on_c, 9, 81, 0
14, 44182, Control_c, 9, 123, 0
14, 44220, Note_on_c, 9, 80, 41
14, 44226, Note_on_c, 9, 80, 0
14, 44230, Control_c, 9, 123, 0
14, 44250, Note_on_c, 9, 80, 39
14, 44256, Note_on_c, 9, 80, 0
14, 44257, Control_c, 9, 123, 0
14, 44280, Note_on_c, 9, 81, 74
14, 44301, Note_on_c, 9, 81, 0
14, 44304, Control_c, 9, 123, 0
14, 44340, Note_on_c, 9, 80, 54
14, 44345, Control_c, 9, 123, 0
14, 44346, Note_on_c, 9, 80, 0
14, 44370, Note_on_c, 9, 80, 58
14, 44378, Note_on_c, 9, 80, 0
14, 44380, Control_c, 9, 123, 0
14, 44400, Note_on_c, 9, 81, 74
14, 44420, Note_on_c, 9, 81, 0
14, 44422, Control_c, 9, 123, 0
14, 44460, Note_on_c, 9, 80, 48
14, 44466, Note_on_c, 9, 80, 0
14, 44472, Control_c, 9, 123, 0
14, 44490, Note_on_c, 9, 80, 45
14, 44497, Note_on_c, 9, 80, 0
14, 44503, Control_c, 9, 123, 0
14, 44520, Note_on_c, 9, 81, 74
14, 44542, Note_on_c, 9, 81, 0
14, 44547, Control_c, 9, 123, 0
14, 44580, Note_on_c, 9, 80, 58
14, 44585, Note_on_c, 9, 80, 0
14, 44585, Control_c, 9, 123, 0
14, 44610, Note_on_c, 9, 80, 68
14, 44620, Note_on_c, 9, 80, 0
14, 44622, Control_c, 9, 123, 0
14, 44640, Note_on_c, 9, 81, 68
14, 44667, Note_on_c, 9, 81, 0
14, 44668, Control_c, 9, 123, 0
14, 44700, Note_on_c, 9, 80, 63
14, 44705, Note_on_c, 9, 80, 0
14, 44707, Control_c, 9, 123, 0
14, 44730, Note_on_c, 9, 80, 51
14, 44743, Note_on_c, 9, 80, 0
14, 44745, Control_c, 9, 123, 0
14, 44760, Note_on_c, 9, 81, 68
14, 44785, Note_on_c, 9, 81, 0
14, 44787, Control_c, 9, 123, 0
14, 44820, Note_on_c, 9, 80, 51
14, 44827, Note_on_c, 9, 80, 0
14, 44835, Control_c, 9, 123, 0
14, 44850, Note_on_c, 9, 80, 41
14, 44862, Note_on_c, 9, 80, 0
14, 44869, Control_c, 9, 123, 0
14, 44880, Note_on_c, 9, 81, 74
14, 44902, Note_on_c, 9, 81, 0
14, 44909, Control_c, 9, 123, 0
14, 44940, Note_on_c, 9, 80, 63
14, 44947, Note_on_c, 9, 80, 0
14, 44950, Control_c, 9, 123, 0
14, 44970, Note_on_c, 9, 80, 43
14, 44977, Note_on_c, 9, 80, 0
14, 44984, Control_c, 9, 123, 0
14, 45000, Note_on_c, 9, 81, 74
14, 45021, Note_on_c, 9, 81, 0
14, 45026, Control_c, 9, 123, 0
14, 45060, Note_on_c, 9, 80, 54
14, 45068, Note_on_c, 9, 80, 0
14, 45070, Control_c, 9, 123, 0
14, 45090, Note_on_c, 9, 80, 63
14, 45102, Note_on_c, 9, 80, 0
14, 45104, Control_c, 9, 123, 0
14, 45120, Note_on_c, 9, 81, 71
14, 45146, Control_c, 9, 123, 0
14, 45147, Note_on_c, 9, 81, 0
14, 45180, Note_on_c, 9, 80, 45
14, 45184, Control_c, 9, 123, 0
14, 45187, Note_on_c, 9, 80, 0
14, 45210, Note_on_c, 9, 80, 51
14, 45221, Control_c, 9, 123, 0
14, 45222, Note_on_c, 9, 80, 0
14, 45240, Note_on_c, 9, 81, 74
14, 45268, Note_on_c, 9, 81, 0
14, 45268, Control_c, 9, 123, 0
14, 45300, Note_on_c, 9, 80, 51
14, 45306, Control_c, 9, 123, 0
14, 45307, Note_on_c, 9, 80, 0
14, 45330, Note_on_c, 9, 80, 74
14, 45344, Note_on_c, 9, 80, 0
14, 45346, Control_c, 9, 123, 0
14, 45360, Note_on_c, 9, 81, 74
14, 45382, Note_on_c, 9, 81, 0
14, 45385, Control_c, 9, 123, 0
14, 45420, Note_on_c, 9, 80, 58
14, 45427, Control_c, 9, 123, 0
14, 45428, Note_on_c, 9, 80, 0
14, 45450, Note_on_c, 9, 80, 54
14, 45462, Control_c, 9, 123, 0
14, 45464, Note_on_c, 9, 80, 0
14, 45480, Note_on_c, 9, 81, 68
14, 45503, Control_c, 9, 123, 0
14, 45505, Note_on_c, 9, 81, 0
14, 45540, Note_on_c, 9, 80, 51
14, 45545, Control_c, 9, 123, 0
14, 45549, Note_on_c, 9, 80, 0
14, 45570, Note_on_c, 9, 80, 31
14, 45581, Note_on_c, 9, 80, 0
14, 45581, Control_c, 9, 123, 0
14, 45600, Note_on_c, 9, 81, 74
14, 45620, Note_on_c, 9, 81, 0
14, 45623, Control_c, 9, 123, 0
14, 45660, Note_on_c, 9, 80, 54
14, 45667, Note_on_c, 9, 80, 0
14, 45667, Control_c, 9, 123, 0
14, 45690, Note_on_c, 9, 80, 68
14, 45700, Note_on_c, 9, 80, 0
14, 45704, Control_c, 9, 123, 0
14, 45720, Note_on_c, 9, 81, 71
14, 45744, Note_on_c, 9, 81, 0
14, 45749, Control_c, 9, 123, 0
14, 45780, Note_on_c, 9, 80, 48
14, 45787, Note_on_c, 9, 80, 0
14, 45790, Control_c, 9, 123, 0
14, 45810, Note_on_c, 9, 80, 63
14, 45822, Note_on_c, 9, 80, 0
14, 45826, Control_c, 9, 123, 0
14, 45840, Note_on_c, 9, 81, 74
14, 45863, Control_c, 9, 123, 0
14, 45864, Note_on_c, 9, 81, 0
14, 45900, Note_on_c, 9, 80, 58
14, 45909, Note_on_c, 9, 80, 0
14, 45909, Control_c, 9, 123, 0
14, 45930, Note_on_c, 9, 80, 54
14, 45940, Note_on_c, 9, 80, 0
14, 45944, Control_c, 9, 123, 0
14, 45960, Note_on_c, 9, 81, 65
14, 45987, Note_on_c, 9, 81, 0
14, 45989, Control_c, 9, 123, 0
14, 46020, Note_on_c, 9, 80, 54
14, 46030, Note_on_c, 9, 80, 0
14, 46032, Control_c, 9, 123, 0
14, 46050, Note_on_c, 9, 80, 54
14, 46062, Note_on_c, 9, 80, 0
14, 46065, Control_c, 9, 123, 0
14, 46080, Note_on_c, 9, 81, 68
14, 46106, Note_on_c, 9, 81, 0
14, 46106, Control_c, 9, 123, 0
14, 46140, Note_on_c, 9, 80, 74
14, 46150, Note_on_c, 9, 80, 0
14, 46154, Control_c, 9, 123, 0
14, 46170, Note_on_c, 9, 80, 63
14, 46182, Note_on_c, 9, 80, 0
14, 46187, Control_c, 9, 123, 0
14, 46200, Note_on_c, 9, 81, 71
14, 46226, Note_on_c, 9, 81, 0
14, 46228, Control_c, 9, 123, 0
14, 46260, Note_on_c, 9, 80, 48
14, 46267, Note_on_c, 9, 80, 0
14, 46269, Control_c, 9, 123, 0
14, 46290, Note_on_c, 9, 80, 58
14, 46302, Note_on_c, 9, 80, 0
14, 46306, Control_c, 9, 123, 0
14, 46320, Note_on_c, 9, 81, 74
14, 46343, Note_on_c, 9, 81, 0
14, 46343, Control_c, 9, 123, 0
14, 46380, Note_on_c, 9, 80, 63
14, 46386, Control_c, 9, 123, 0
14, 46388, Note_on_c, 9, 80, 0
14, 46410, Note_on_c, 9, 80, 58
14, 46421, Control_c, 9, 123, 0
14, 46422, Note_on_c, 9, 80, 0
14, 46440, Note_on_c, 9, 81, 74
14, 46463, Note_on_c, 9, 81, 0
14, 46463, Control_c, 9, 123, 0
14, 46500, Note_on_c, 9, 80, 58
14, 46509, Note_on_c, 9, 80, 0
14, 46511, Control_c, 9, 123, 0
14, 46530, Note_on_c, 9, 80, 54
14, 46543, Note_on_c, 9, 80, 0
14, 46543, Control_c, 9, 123, 0
14, 46560, Note_on_c, 9, 81, 74
14, 46582, Control_c, 9, 123, 0
14, 46584, Note_on_c, 9, 81, 0
14, 46620, Note_on_c, 9, 80, 58
14, 46628, Note_on_c, 9, 80, 0
14, 46630, Control_c, 9, 123, 0
14, 46650, Note_on_c, 9, 80, 63
14, 46661, Note_on_c, 9, 80, 0
14, 46664, Control_c, 9, 123, 0
14, 46680, Note_on_c, 9, 81, 74
14, 46702, Note_on_c, 9, 81, 0
14, 46702, Control_c, 9, 123, 0
14, 46740, Note_on_c, 9, 80, 48
14, 46747, Note_on_c, 9, 80, 0
14, 46750, Control_c, 9, 123, 0
14, 46770, Note_on_c, 9, 80, 58
14, 46782, Note_on_c, 9, 80, 0
14, 46784, Control_c, 9, 123, 0
14, 46800, Note_on_c, 9, 81, 68
14, 46824, Control_c, 9, 123, 0
14, 46825, Note_on_c, 9, 81, 0
14, 46860, Note_on_c, 9, 80, 54
14, 46868, Note_on_c, 9, 80, 0
14, 46870, Control_c, 9, 123, 0
14, 46890, Note_on_c, 9, 80, 58
14, 46900, Note_on_c, 9, 80, 0
14, 46906, Control_c, 9, 123, 0
14, 46920, Note_on_c, 9, 81, 74
14, 46943, Note_on_c, 9, 81, 0
14, 46945, Control_c, 9, 123, 0
14, 46980, Note_on_c, 9, 80, 63
14, 46989, Note_on_c, 9, 80, 0
14, 46990, Control_c, 9, 123, 0
14, 47010, Note_on_c, 9, 80, 68
14, 47022, Note_on_c, 9, 80, 0
14, 47023, Control_c, 9, 123, 0
14, 47040, Note_on_c, 9, 81, 71
14, 47061, Control_c, 9, 123, 0
14, 47062, Note_on_c, 9, 81, 0
14, 47100, Note_on_c, 9, 80, 63
14, 47106, Control_c, 9, 123, 0
14, 47108, Note_on_c, 9, 80, 0
14, 47130, Note_on_c, 9, 80, 58
14, 47140, Control_c, 9, 123, 0
14, 47142, Note_on_c, 9, 80, 0
14, 47160, Note_on_c, 9, 81, 68
14, 47183, Control_c, 9, 123, 0
14, 47185, Note_on_c, 9, 81, 0
14, 47220, Note_on_c, 9, 80, 51
14, 47225, Control_c, 9, 123, 0
14, 47226, Note_on_c, 9, 80, 0
14, 47250, Note_on_c, 9, 80, 45
14, 47262, Control_c, 9, 123, 0
14, 47264, Note_on_c, 9, 80, 0
14, 47280, Note_on_c, 9, 81, 68
14, 47306, Note_on_c, 9, 81, 0
14, 47306, Control_c, 9, 123, 0
14, 47340, Note_on_c, 9, 80, 58
14, 47349, Note_on_c, 9, 80, 0
14, 47349, Control_c, 9, 123, 0
14, 47370, Note_on_c, 9, 80, 39
14, 47384, Note_on_c, 9, 80, 0
14, 47384, Control_c, 9, 123, 0
14, 47400, Note_on_c, 9, 81, 71
14, 47430, Note_on_c, 9, 81, 0
14, 47433, Control_c, 9, 123, 0
14, 47460, Note_on_c, 9, 80, 58
14, 47465, Control_c, 9, 123, 0
14, 47466, Note_on_c, 9, 80, 0
14, 47490, Note_on_c, 9, 80, 51
14, 47501, Control_c, 9, 123, 0
14, 47503, Note_on_c, 9, 80, 0
14, 47520, Note_on_c, 9, 81, 65
14, 47534, Note_on_c, 9, 81, 0
14, 47538, Control_c, 9, 123, 0
14, 47550, Note_on_c, 9, 81, 60
14, 47568, Note_on_c, 9, 81, 0
14, 47573, Control_c, 9, 123, 0
14, 47580, Note_on_c, 9, 80, 54
14, 47587, Note_on_c, 9, 80, 0
14, 47593, Control_c, 9, 123, 0
14, 47610, Note_on_c, 9, 80, 29
14, 47622, Note_on_c, 9, 80, 0
14, 47625, Control_c, 9, 123, 0
14, 47640, Note_on_c, 9, 81, 74
14, 47655, Note_on_c, 9, 81, 0
14, 47662, Control_c, 9, 123, 0
14, 47670, Note_on_c, 9, 81, 58
14, 47688, Note_on_c, 9, 81, 0
14, 47692, Control_c, 9, 123, 0
14, 47700, Note_on_c, 9, 80, 54
14, 47709, Note_on_c, 9, 80, 0
14, 47711, Control_c, 9, 123, 0
14, 47730, Note_on_c, 9, 80, 68
14, 47743, Note_on_c, 9, 80, 0
14, 47746, Control_c, 9, 123, 0
14, 47760, Note_on_c, 9, 81, 68
14, 47772, Note_on_c, 9, 81, 0
14, 47775, Control_c, 9, 123, 0
14, 47790, Note_on_c, 9, 81, 56
14, 47807, Note_on_c, 9, 81, 0
14, 47809, Control_c, 9, 123, 0
14, 47820, Note_on_c, 9, 80, 54
14, 47830, Note_on_c, 9, 80, 0
14, 47834, Control_c, 9, 123, 0
14, 47850, Note_on_c, 9, 80, 29
14, 47857, Note_on_c, 9, 80, 0
14, 47864, Control_c, 9, 123, 0
14, 47880, Note_on_c, 9, 81, 71
14, 47892, Note_on_c, 9, 81, 0
14, 47898, Control_c, 9, 123, 0
14, 47910, Note_on_c, 9, 81, 58
14, 47928, Note_on_c, 9, 81, 0
14, 47932, Control_c, 9, 123, 0
14, 47940, Note_on_c, 9, 80, 68
14, 47953, Note_on_c, 9, 80, 0
14, 47954, Control_c, 9, 123, 0
14, 47970, Note_on_c, 9, 80, 63
14, 47982, Note_on_c, 9, 80, 0
14, 47984, Control_c, 9, 123, 0
14, 48000, Note_on_c, 9, 81, 60
14, 48013, Note_on_c, 9, 81, 0
14, 48016, Control_c, 9, 123, 0
14, 48030, Note_on_c, 9, 81, 54
14, 48048, Note_on_c, 9, 81, 0
14, 48051, Control_c, 9, 123, 0
14, 48060, Note_on_c, 9, 80, 58
14, 48067, Note_on_c, 9, 80, 0
14, 48072, Control_c, 9, 123, 0
14, 48090, Note_on_c, 9, 80, 39
14, 48104, Note_on_c, 9, 80, 0
14, 48104, Control_c, 9, 123, 0
14, 48120, Note_on_c, 9, 81, 74
14, 48134, Note_on_c, 9, 81, 0
14, 48139, Control_c, 9, 123, 0
14, 48150, Note_on_c, 9, 81, 63
14, 48167, Note_on_c, 9, 81, 0
14, 48169, Control_c, 9, 123, 0
14, 48180, Note_on_c, 9, 80, 63
14, 48191, Note_on_c, 9, 80, 0
14, 48191, Control_c, 9, 123, 0
14, 48210, Note_on_c, 9, 80, 58
14, 48224, Note_on_c, 9, 80, 0
14, 48226, Control_c, 9, 123, 0
14, 48240, Note_on_c, 9, 81, 65
14, 48254, Note_on_c, 9, 81, 0
14, 48255, Control_c, 9, 123, 0
14, 48270, Note_on_c, 9, 81, 48
14, 48284, Note_on_c, 9, 81, 0
14, 48285, Control_c, 9, 123, 0
14, 48300, Note_on_c, 9, 80, 51
14, 48305, Note_on_c, 9, 80, 0
14, 48308, Control_c, 9, 123, 0
14, 48330, Note_on_c, 9, 80, 27
14, 48339, Control_c, 9, 123, 0
14, 48342, Note_on_c, 9, 80, 0
14, 48360, Note_on_c, 9, 81, 74
14, 48372, Note_on_c, 9, 81, 0
14, 48373, Control_c, 9, 123, 0
14, 48390, Note_on_c, 9, 81, 52
14, 48408, Note_on_c, 9, 81, 0
14, 48408, Control_c, 9, 123, 0
14, 48420, Note_on_c, 9, 80, 45
14, 48425, Control_c, 9, 123, 0
14, 48426, Note_on_c, 9, 80, 0
14, 48450, Note_on_c, 9, 80, 51
14, 48460, Control_c, 9, 123, 0
14, 48463, Note_on_c, 9, 80, 0
14, 48480, Note_on_c, 9, 81, 65
14, 48490, Control_c, 9, 123, 0
14, 48491, Note_on_c, 9, 81, 0
14, 48510, Note_on_c, 9, 81, 54
14, 48525, Control_c, 9, 123, 0
14, 48526, Note_on_c, 9, 81, 0
14, 48540, Note_on_c, 9, 80, 58
14, 48547, Note_on_c, 9, 80, 0
14, 48548, Control_c, 9, 123, 0
14, 48570, Note_on_c, 9, 80, 43
14, 48582, Note_on_c, 9, 80, 0
14, 48583, Control_c, 9, 123, 0
14, 48600, Note_on_c, 9, 81, 65
14, 48609, Control_c, 9, 123, 0
14, 48611, Note_on_c, 9, 81, 0
14, 48630, Note_on_c, 9, 81, 58
14, 48643, Control_c, 9, 123, 0
14, 48645, Note_on_c, 9, 81, 0
14, 48660, Note_on_c, 9, 80, 63
14, 48666, Control_c, 9, 123, 0
14, 48667, Note_on_c, 9, 80, 0
14, 48690, Note_on_c, 9, 80, 58
14, 48703, Note_on_c, 9, 80, 0
14, 48703, Control_c, 9, 123, 0
14, 48720, Note_on_c, 9, 81, 65
14, 48730, Note_on_c, 9, 81, 0
14, 48732, Control_c, 9, 123, 0
14, 48750, Note_on_c, 9, 81, 58
14, 48769, Note_on_c, 9, 81, 0
14, 48769, Control_c, 9, 123, 0
14, 48780, Note_on_c, 9, 80, 58
14, 48790, Note_on_c, 9, 80, 0
14, 48790, Control_c, 9, 123, 0
14, 48810, Note_on_c, 9, 80, 51
14, 48823, Control_c, 9, 123, 0
14, 48824, Note_on_c, 9, 80, 0
14, 48840, Note_on_c, 9, 81, 74
14, 48853, Note_on_c, 9, 81, 0
14, 48858, Control_c, 9, 123, 0
14, 48870, Note_on_c, 9, 81, 56
14, 48884, Note_on_c, 9, 81, 0
14, 48887, Control_c, 9, 123, 0
14, 48900, Note_on_c, 9, 80, 58
14, 48907, Control_c, 9, 123, 0
14, 48908, Note_on_c, 9, 80, 0
14, 48930, Note_on_c, 9, 80, 63
14, 48943, Note_on_c, 9, 80, 0
14, 48943, Control_c, 9, 123, 0
14, 48960, Note_on_c, 9, 81, 54
14, 48971, Note_on_c, 9, 81, 0
14, 48972, Control_c, 9, 123, 0
14, 48990, Note_on_c, 9, 81, 63
14, 49007, Note_on_c, 9, 81, 0
14, 49007, Control_c, 9, 123, 0
14, 49020, Note_on_c, 9, 80, 74
14, 49029, Control_c, 9, 123, 0
14, 49030, Note_on_c, 9, 80, 0
14, 49050, Note_on_c, 9, 80, 51
14, 49063, Note_on_c, 9, 80, 0
14, 49063, Control_c, 9, 123, 0
14, 49080, Note_on_c, 9, 81, 65
14, 49090, Control_c, 9, 123, 0
14, 49093, Note_on_c, 9, 81, 0
14, 49110, Note_on_c, 9, 81, 50
14, 49123, Control_c, 9, 123, 0
14, 49125, Note_on_c, 9, 81, 0
14, 49140, Note_on_c, 9, 80, 68
14, 49149, Control_c, 9, 123, 0
14, 49151, Note_on_c, 9, 80, 0
14, 49170, Note_on_c, 9, 80, 54
14, 49181, Control_c, 9, 123, 0
14, 49184, Note_on_c, 9, 80, 0
14, 49200, Note_on_c, 9, 81, 71
14, 49209, Control_c, 9, 123, 0
14, 49213, Note_on_c, 9, 81, 0
14, 49230, Note_on_c, 9, 81, 48
14, 49242, Control_c, 9, 123, 0
14, 49245, Note_on_c, 9, 81, 0
14, 49260, Note_on_c, 9, 80, 68
14, 49265, Control_c, 9, 123, 0
14, 49270, Note_on_c, 9, 80, 0
14, 49290, Note_on_c, 9, 80, 63
14, 49301, Control_c, 9, 123, 0
14, 49302, Note_on_c, 9, 80, 0
14, 49320, Note_on_c, 9, 81, 71
14, 49330, Control_c, 9, 123, 0
14, 49332, Note_on_c, 9, 81, 0
14, 49350, Note_on_c, 9, 81, 52
14, 49362, Control_c, 9, 123, 0
14, 49365, Note_on_c, 9, 81, 0
14, 49380, Note_on_c, 9, 80, 63
14, 49386, Control_c, 9, 123, 0
14, 49389, Note_on_c, 9, 80, 0
14, 49410, Note_on_c, 9, 80, 41
14, 49422, Control_c, 9, 123, 0
14, 49423, Note_on_c, 9, 80, 0
14, 49440, Note_on_c, 9, 81, 68
14, 49452, Note_on_c, 9, 81, 0
14, 49452, Control_c, 9, 123, 0
14, 49470, Note_on_c, 9, 81, 52
14, 49485, Control_c, 9, 123, 0
14, 49487, Note_on_c, 9, 81, 0
14, 49500, Note_on_c, 9, 80, 54
14, 49507, Note_on_c, 9, 80, 0
14, 49507, Control_c, 9, 123, 0
14, 49530, Note_on_c, 9, 80, 63
14, 49544, Note_on_c, 9, 80, 0
14, 49546, Control_c, 9, 123, 0
14, 49560, Note_on_c, 9, 81, 65
14, 49573, Note_on_c, 9, 81, 0
14, 49573, Control_c, 9, 123, 0
14, 49590, Note_on_c, 9, 81, 47
14, 49606, Note_on_c, 9, 81, 0
14, 49607, Control_c, 9, 123, 0
14, 49620, Note_on_c, 9, 80, 63
14, 49627, Control_c, 9, 123, 0
14, 49628, Note_on_c, 9, 80, 0
14, 49650, Note_on_c, 9, 80, 51
14, 49661, Control_c, 9, 123, 0
14, 49664, Note_on_c, 9, 80, 0
14, 49680, Note_on_c, 9, 81, 68
14, 49692, Note_on_c, 9, 81, 0
14, 49693, Control_c, 9, 123, 0
14, 49710, Note_on_c, 9, 81, 48
14, 49725, Note_on_c, 9, 81, 0
14, 49727, Control_c, 9, 123, 0
14, 49740, Note_on_c, 9, 80, 68
14, 49748, Note_on_c, 9, 80, 0
14, 49751, Control_c, 9, 123, 0
14, 49770, Note_on_c, 9, 80, 51
14, 49784, Note_on_c, 9, 80, 0
14, 49785, Control_c, 9, 123, 0
14, 49800, Note_on_c, 9, 81, 63
14, 49813, Note_on_c, 9, 81, 0
14, 49813, Control_c, 9, 123, 0
14, 49830, Note_on_c, 9, 81, 50
14, 49846, Note_on_c, 9, 81, 0
14, 49847, Control_c, 9, 123, 0
14, 49860, Note_on_c, 9, 80, 63
14, 49867, Note_on_c, 9, 80, 0
14, 49870, Control_c, 9, 123, 0
14, 49890, Note_on_c, 9, 80, 58
14, 49905, Note_on_c, 9, 80, 0
14, 49907, Control_c, 9, 123, 0
14, 49920, Note_on_c, 9, 81, 63
14, 49931, Note_on_c, 9, 81, 0
14, 49932, Control_c, 9, 123, 0
14, 49950, Note_on_c, 9, 81, 48
14, 49967, Note_on_c, 9, 81, 0
14, 49967, Control_c, 9, 123, 0
14, 49980, Note_on_c, 9, 80, 68
14, 49991, Control_c, 9, 123, 0
14, 49992, Note_on_c, 9, 80, 0
14, 50010, Note_on_c, 9, 80, 41
14, 50024, Note_on_c, 9, 80, 0
14, 50026, Control_c, 9, 123, 0
14, 50040, Note_on_c, 9, 81, 68
14, 50053, Note_on_c, 9, 81, 0
14, 50056, Control_c, 9, 123, 0
14, 50070, Note_on_c, 9, 81, 47
14, 50089, Note_on_c, 9, 81, 0
14, 50092, Control_c, 9, 123, 0
14, 50100, Note_on_c, 9, 80, 63
14, 50111, Note_on_c, 9, 80, 0
14, 50111, Control_c, 9, 123, 0
14, 50130, Note_on_c, 9, 80, 58
14, 50144, Note_on_c, 9, 80, 0
14, 50147, Control_c, 9, 123, 0
14, 50160, Note_on_c, 9, 81, 65
14, 50172, Note_on_c, 9, 81, 0
14, 50174, Control_c, 9, 123, 0
14, 50190, Note_on_c, 9, 81, 44
14, 50210, Note_on_c, 9, 81, 0
14, 50211, Control_c, 9, 123, 0
14, 50220, Note_on_c, 9, 80, 68
14, 50231, Note_on_c, 9, 80, 0
14, 50233, Control_c, 9, 123, 0
14, 50250, Note_on_c, 9, 80, 68
14, 50266, Note_on_c, 9, 80, 0
14, 50270, Control_c, 9, 123, 0
14, 50280, Note_on_c, 9, 81, 65
14, 50293, Note_on_c, 9, 81, 0
14, 50297, Control_c, 9, 123, 0
14, 50310, Note_on_c, 9, 81, 47
14, 50328, Note_on_c, 9, 81, 0
14, 50330, Control_c, 9, 123, 0
14, 50340, Note_on_c, 9, 80, 63
14, 50349, Control_c, 9, 123, 0
14, 50350, Note_on_c, 9, 80, 0
14, 50370, Note_on_c, 9, 80, 48
14, 50384, Note_on_c, 9, 80, 0
14, 50384, Control_c, 9, 123, 0
14, 50400, Note_on_c, 9, 81, 63
14, 50409, Control_c, 9, 123, 0
14, 50410, Note_on_c, 9, 81, 0
14, 50430, Note_on_c, 9, 81, 48
14, 50444, Control_c, 9, 123, 0
14, 50447, Note_on_c, 9, 81, 0
14, 50460, Note_on_c, 9, 80, 51
14, 50467, Note_on_c, 9, 80, 0
14, 50469, Control_c, 9, 123, 0
14, 50490, Note_on_c, 9, 80, 68
14, 50506, Note_on_c, 9, 80, 0
14, 50511, Control_c, 9, 123, 0
14, 50520, Note_on_c, 9, 81, 65
14, 50532, Note_on_c, 9, 81, 0
14, 50534, Control_c, 9, 123, 0
14, 50550, Note_on_c, 9, 81, 47
14, 50566, Note_on_c, 9, 81, 0
14, 50566, Control_c, 9, 123, 0
14, 50580, Note_on_c, 9, 80, 58
14, 50588, Control_c, 9, 123, 0
14, 50589, Note_on_c, 9, 80, 0
14, 50610, Note_on_c, 9, 80, 68
14, 50625, Note_on_c, 9, 80, 0
14, 50625, Control_c, 9, 123, 0
14, 50640, Note_on_c, 9, 81, 65
14, 50650, Note_on_c, 9, 81, 0
14, 50654, Control_c, 9, 123, 0
14, 50670, Note_on_c, 9, 81, 45
14, 50687, Note_on_c, 9, 81, 0
14, 50687, Control_c, 9, 123, 0
14, 50700, Note_on_c, 9, 80, 63
14, 50709, Note_on_c, 9, 80, 0
14, 50709, Control_c, 9, 123, 0
14, 50730, Note_on_c, 9, 80, 63
14, 50744, Note_on_c, 9, 80, 0
14, 50746, Control_c, 9, 123, 0
14, 50760, Note_on_c, 9, 81, 65
14, 50772, Note_on_c, 9, 81, 0
14, 50776, Control_c, 9, 123, 0
14, 50790, Note_on_c, 9, 81, 50
14, 50808, Note_on_c, 9, 81, 0
14, 50811, Control_c, 9, 123, 0
14, 50820, Note_on_c, 9, 80, 63
14, 50827, Note_on_c, 9, 80, 0
14, 50830, Control_c, 9, 123, 0
14, 50850, Note_on_c, 9, 80, 63
14, 50864, Note_on_c, 9, 80, 0
14, 50866, Control_c, 9, 123, 0
14, 50880, Note_on_c, 9, 81, 68
14, 50892, Note_on_c, 9, 81, 0
14, 50892, Control_c, 9, 123, 0
14, 50910, Note_on_c, 9, 81, 48
14, 50927, Control_c, 9, 123, 0
14, 50929, Note_on_c, 9, 81, 0
14, 50940, Note_on_c, 9, 80, 68
14, 50949, Control_c, 9, 123, 0
14, 50950, Note_on_c, 9, 80, 0
14, 50970, Note_on_c, 9, 80, 54
14, 50984, Note_on_c, 9, 80, 0
14, 50984, Control_c, 9, 123, 0
14, 51000, Note_on_c, 9, 81, 68
14, 51013, Note_on_c, 9, 81, 0
14, 51013, Control_c, 9, 123, 0
14, 51030, Note_on_c, 9, 81, 45
14, 51047, Note_on_c, 9, 81, 0
14, 51047, Control_c, 9, 123, 0
14, 51060, Note_on_c, 9, 80, 63
14, 51069, Note_on_c, 9, 80, 0
14, 51069, Control_c, 9, 123, 0
14, 51090, Note_on_c, 9, 80, 68
14, 51104, Note_on_c, 9, 80, 0
14, 51106, Control_c, 9, 123, 0
14, 51120, Note_on_c, 9, 81, 65
14, 51130, Note_on_c, 9, 81, 0
14, 51135, Control_c, 9, 123, 0
14, 51150, Note_on_c, 9, 81, 54
14, 51168, Note_on_c, 9, 81, 0
14, 51172, Control_c, 9, 123, 0
14, 51180, Note_on_c, 9, 80, 58
14, 51187, Note_on_c, 9, 80, 0
14, 51189, Control_c, 9, 123, 0
14, 51210, Note_on_c, 9, 80, 63
14, 51223, Note_on_c, 9, 80, 0
14, 51228, Control_c, 9, 123, 0
14, 51240, Note_on_c, 9, 81, 60
14, 51253, Note_on_c, 9, 81, 0
14, 51253, Control_c, 9, 123, 0
14, 51270, Note_on_c, 9, 81, 44
14, 51287, Note_on_c, 9, 81, 0
14, 51289, Control_c, 9, 123, 0
14, 51300, Note_on_c, 9, 80, 68
14, 51309, Note_on_c, 9, 80, 0
14, 51314, Control_c, 9, 123, 0
14, 51330, Note_on_c, 9, 80, 48
14, 51342, Note_on_c, 9, 80, 0
14, 51347, Control_c, 9, 123, 0
14, 51360, Control_c, 9, 7, 95
14, 51360, Note_on_c, 9, 81, 68
14, 51382, Note_on_c, 9, 81, 0
14, 51385, Control_c, 9, 123, 0
14, 51416, Control_c, 9, 7, 94
14, 51420, Note_on_c, 9, 80, 63
14, 51427, Note_on_c, 9, 80, 0
14, 51434, Control_c, 9, 123, 0
14, 51450, Note_on_c, 9, 80, 45
14, 51463, Note_on_c, 9, 80, 0
14, 51468, Control_c, 9, 123, 0
14, 51471, Control_c, 9, 7, 93
14, 51480, Note_on_c, 9, 81, 71
14, 51502, Note_on_c, 9, 81, 0
14, 51502, Control_c, 9, 123, 0
14, 51527, Control_c, 9, 7, 92
14, 51540, Note_on_c, 9, 80, 58
14, 51551, Note_on_c, 9, 80, 0
14, 51555, Control_c, 9, 123, 0
14, 51570, Note_on_c, 9, 80, 54
14, 51582, Control_c, 9, 7, 91
14, 51585, Note_on_c, 9, 80, 0
14, 51588, Control_c, 9, 123, 0
14, 51600, Note_on_c, 9, 81, 74
14, 51620, Note_on_c, 9, 81, 0
14, 51621, Control_c, 9, 123, 0
14, 51638, Control_c, 9, 7, 90
14, 51660, Note_on_c, 9, 80, 63
14, 51668, Note_on_c, 9, 80, 0
14, 51672, Control_c, 9, 123, 0
14, 51690, Note_on_c, 9, 80, 54
14, 51693, Control_c, 9, 7, 89
14, 51705, Note_on_c, 9, 80, 0
14, 51707, Control_c, 9, 123, 0
14, 51720, Note_on_c, 9, 81, 68
14, 51741, Note_on_c, 9, 81, 0
14, 51743, Control_c, 9, 123, 0
14, 51749, Control_c, 9, 7, 88
14, 51780, Note_on_c, 9, 80, 68
14, 51791, Note_on_c, 9, 80, 0
14, 51791, Control_c, 9, 123, 0
14, 51805, Control_c, 9, 7, 87
14, 51810, Note_on_c, 9, 80, 68
14, 51825, Note_on_c, 9, 80, 0
14, 51829, Control_c, 9, 123, 0
14, 51840, Note_on_c, 9, 81, 71
14, 51860, Control_c, 9, 7, 86
14, 51861, Control_c, 9, 123, 0
14, 51862, Note_on_c, 9, 81, 0
14, 51900, Note_on_c, 9, 80, 74
14, 51911, Note_on_c, 9, 80, 0
14, 51911, Control_c, 9, 123, 0
14, 51916, Control_c, 9, 7, 85
14, 51930, Note_on_c, 9, 80, 54
14, 51945, Note_on_c, 9, 80, 0
14, 51945, Control_c, 9, 123, 0
14, 51960, Note_on_c, 9, 81, 74
14, 51971, Control_c, 9, 7, 84
14, 51985, Note_on_c, 9, 81, 0
14, 51985, Control_c, 9, 123, 0
14, 52020, Note_on_c, 9, 80, 68
14, 52027, Control_c, 9, 7, 83
14, 52029, Note_on_c, 9, 80, 0
14, 52033, Control_c, 9, 123, 0
14, 52050, Note_on_c, 9, 80, 58
14, 52063, Note_on_c, 9, 80, 0
14, 52068, Control_c, 9, 123, 0
14, 52080, Note_on_c, 9, 81, 71
14, 52083, Control_c, 9, 7, 82
14, 52101, Note_on_c, 9, 81, 0
14, 52103, Control_c, 9, 123, 0
14, 52138, Control_c, 9, 7, 81
14, 52140, Note_on_c, 9, 80, 68
14, 52150, Note_on_c, 9, 80, 0
14, 52152, Control_c, 9, 123, 0
14, 52170, Note_on_c, 9, 80, 63
14, 52185, Note_on_c, 9, 80, 0
14, 52187, Control_c, 9, 123, 0
14, 52194, Control_c, 9, 7, 80
14, 52200, Note_on_c, 9, 81, 65
14, 52222, Control_c, 9, 123, 0
14, 52223, Note_on_c, 9, 81, 0
14, 52249, Control_c, 9, 7, 79
14, 52260, Note_on_c, 9, 80, 68
14, 52269, Control_c, 9, 123, 0
14, 52270, Note_on_c, 9, 80, 0
14, 52290, Note_on_c, 9, 80, 68
14, 52304, Control_c, 9, 123, 0
14, 52305, Note_on_c, 9, 80, 0
14, 52305, Control_c, 9, 7, 78
14, 52320, Note_on_c, 9, 81, 71
14, 52339, Note_on_c, 9, 81, 0
14, 52340, Control_c, 9, 123, 0
14, 52360, Control_c, 9, 7, 77
14, 52380, Note_on_c, 9, 80, 63
14, 52389, Note_on_c, 9, 80, 0
14, 52389, Control_c, 9, 123, 0
14, 52410, Note_on_c, 9, 80, 58
14, 52416, Control_c, 9, 7, 76
14, 52424, Note_on_c, 9, 80, 0
14, 52424, Control_c, 9, 123, 0
14, 52440, Note_on_c, 9, 81, 71
14, 52462, Note_on_c, 9, 81, 0
14, 52464, Control_c, 9, 123, 0
14, 52472, Control_c, 9, 7, 75
14, 52500, Note_on_c, 9, 80, 68
14, 52511, Note_on_c, 9, 80, 0
14, 52515, Control_c, 9, 123, 0
14, 52527, Control_c, 9, 7, 74
14, 52530, Note_on_c, 9, 80, 58
14, 52544, Note_on_c, 9, 80, 0
14, 52548, Control_c, 9, 123, 0
14, 52560, Note_on_c, 9, 81, 68
14, 52583, Note_on_c, 9, 81, 0
14, 52583, Control_c, 9, 7, 73
14, 52585, Control_c, 9, 123, 0
14, 52620, Note_on_c, 9, 80, 63
14, 52629, Note_on_c, 9, 80, 0
14, 52631, Control_c, 9, 123, 0
14, 52638, Control_c, 9, 7, 72
14, 52650, Note_on_c, 9, 80, 51
14, 52665, Note_on_c, 9, 80, 0
14, 52666, Control_c, 9, 123, 0
14, 52680, Note_on_c, 9, 81, 71
14, 52694, Control_c, 9, 7, 71
14, 52699, Note_on_c, 9, 81, 0
14, 52701, Control_c, 9, 123, 0
14, 52740, Note_on_c, 9, 80, 58
14, 52745, Note_on_c, 9, 80, 0
14, 52749, Control_c, 9, 7, 70
14, 52749, Control_c, 9, 123, 0
14, 52770, Note_on_c, 9, 80, 63
14, 52783, Note_on_c, 9, 80, 0
14, 52786, Control_c, 9, 123, 0
14, 52800, Note_on_c, 9, 81, 68
14, 52805, Control_c, 9, 7, 69
14, 52825, Note_on_c, 9, 81, 0
14, 52825, Control_c, 9, 123, 0
14, 52860, Note_on_c, 9, 80, 58
14, 52861, Control_c, 9, 7, 68
14, 52868, Note_on_c, 9, 80, 0
14, 52874, Control_c, 9, 123, 0
14, 52890, Note_on_c, 9, 80, 43
14, 52903, Note_on_c, 9, 80, 0
14, 52907, Control_c, 9, 123, 0
14, 52916, Control_c, 9, 7, 67
14, 52920, Note_on_c, 9, 81, 74
14, 52941, Note_on_c, 9, 81, 0
14, 52941, Control_c, 9, 123, 0
14, 52972, Control_c, 9, 7, 66
14, 52980, Note_on_c, 9, 80, 74
14, 52988, Note_on_c, 9, 80, 0
14, 52992, Control_c, 9, 123, 0
14, 53010, Note_on_c, 9, 80, 68
14, 53023, Note_on_c, 9, 80, 0
14, 53027, Control_c, 9, 7, 65
14, 53029, Control_c, 9, 123, 0
14, 53040, Note_on_c, 9, 81, 68
14, 53064, Note_on_c, 9, 81, 0
14, 53068, Control_c, 9, 123, 0
14, 53083, Control_c, 9, 7, 64
14, 53100, Note_on_c, 9, 80, 68
14, 53111, Note_on_c, 9, 80, 0
14, 53113, Control_c, 9, 123, 0
14, 53130, Note_on_c, 9, 80, 68
14, 53139, Control_c, 9, 7, 63
14, 53145, Note_on_c, 9, 80, 0
14, 53148, Control_c, 9, 123, 0
14, 53160, Note_on_c, 9, 81, 60
14, 53184, Note_on_c, 9, 81, 0
14, 53187, Control_c, 9, 123, 0
14, 53194, Control_c, 9, 7, 62
14, 53220, Note_on_c, 9, 80, 63
14, 53228, Note_on_c, 9, 80, 0
14, 53233, Control_c, 9, 123, 0
14, 53250, Control_c, 9, 7, 61
14, 53250, Note_on_c, 9, 80, 63
14, 53264, Note_on_c, 9, 80, 0
14, 53267, Control_c, 9, 123, 0
14, 53280, Note_on_c, 9, 81, 68
14, 53302, Note_on_c, 9, 81, 0
14, 53304, Control_c, 9, 123, 0
14, 53305, Control_c, 9, 7, 60
14, 53340, Note_on_c, 9, 80, 63
14, 53348, Note_on_c, 9, 80, 0
14, 53352, Control_c, 9, 123, 0
14, 53361, Control_c, 9, 7, 59
14, 53370, Note_on_c, 9, 80, 54
14, 53384, Note_on_c, 9, 80, 0
14, 53385, Control_c, 9, 123, 0
14, 53400, Note_on_c, 9, 81, 71
14, 53416, Control_c, 9, 7, 58
14, 53421, Note_on_c, 9, 81, 0
14, 53425, Control_c, 9, 123, 0
14, 53460, Note_on_c, 9, 80, 68
14, 53470, Note_on_c, 9, 80, 0
14, 53472, Control_c, 9, 7, 57
14, 53475, Control_c, 9, 123, 0
14, 53490, Note_on_c, 9, 80, 58
14, 53503, Note_on_c, 9, 80, 0
14, 53508, Control_c, 9, 123, 0
14, 53520, Note_on_c, 9, 81, 68
14, 53528, Control_c, 9, 7, 56
14, 53542, Note_on_c, 9, 81, 0
14, 53544, Control_c, 9, 123, 0
14, 53580, Note_on_c, 9, 80, 80
14, 53583, Control_c, 9, 7, 55
14, 53590, Note_on_c, 9, 80, 0
14, 53592, Control_c, 9, 123, 0
14, 53610, Note_on_c, 9, 80, 68
14, 53623, Note_on_c, 9, 80, 0
14, 53626, Control_c, 9, 123, 0
14, 53639, Control_c, 9, 7, 54
14, 53640, Note_on_c, 9, 81, 65
14, 53666, Note_on_c, 9, 81, 0
14, 53667, Control_c, 9, 123, 0
14, 53694, Control_c, 9, 7, 53
14, 53700, Note_on_c, 9, 80, 68
14, 53711, Note_on_c, 9, 80, 0
14, 53716, Control_c, 9, 123, 0
14, 53730, Note_on_c, 9, 80, 39
14, 53743, Note_on_c, 9, 80, 0
14, 53748, Control_c, 9, 123, 0
14, 53750, Control_c, 9, 7, 52
14, 53760, Note_on_c, 9, 81, 68
14, 53782, Note_on_c, 9, 81, 0
14, 53786, Control_c, 9, 123, 0
14, 53805, Control_c, 9, 7, 51
14, 53820, Note_on_c, 9, 80, 54
14, 53830, Note_on_c, 9, 80, 0
14, 53833, Control_c, 9, 123, 0
14, 53850, Note_on_c, 9, 80, 48
14, 53861, Control_c, 9, 7, 50
14, 53866, Note_on_c, 9, 80, 0
14, 53869, Control_c, 9, 123, 0
14, 53880, Note_on_c, 9, 81, 74
14, 53902, Note_on_c, 9, 81, 0
14, 53908, Control_c, 9, 123, 0
14, 53917, Control_c, 9, 7, 49
14, 53940, Note_on_c, 9, 80, 68
14, 53951, Note_on_c, 9, 80, 0
14, 53954, Control_c, 9, 123, 0
14, 53970, Note_on_c, 9, 80, 63
14, 53972, Control_c, 9, 7, 48
14, 53985, Note_on_c, 9, 80, 0
14, 53988, Control_c, 9, 123, 0
14, 54000, Note_on_c, 9, 81, 68
14, 54022, Note_on_c, 9, 81, 0
14, 54024, Control_c, 9, 123, 0
14, 54028, Control_c, 9, 7, 47
14, 54060, Note_on_c, 9, 80, 68
14, 54074, Note_on_c, 9, 80, 0
14, 54078, Control_c, 9, 123, 0
14, 54083, Control_c, 9, 7, 46
14, 54090, Note_on_c, 9, 80, 43
14, 54104, Note_on_c, 9, 80, 0
14, 54110, Control_c, 9, 123, 0
14, 54120, Note_on_c, 9, 81, 65
14, 54139, Control_c, 9, 7, 45
14, 54142, Note_on_c, 9, 81, 0
14, 54147, Control_c, 9, 123, 0
14, 54180, Note_on_c, 9, 80, 80
14, 54191, Note_on_c, 9, 80, 0
14, 54195, Control_c, 9, 7, 44
14, 54197, Control_c, 9, 123, 0
14, 54210, Note_on_c, 9, 80, 41
14, 54225, Note_on_c, 9, 80, 0
14, 54230, Control_c, 9, 123, 0
14, 54240, Note_on_c, 9, 81, 68
14, 54250, Control_c, 9, 7, 43
14, 54266, Note_on_c, 9, 81, 0
14, 54266, Control_c, 9, 123, 0
14, 54300, Note_on_c, 9, 80, 68
14, 54306, Control_c, 9, 7, 42
14, 54311, Note_on_c, 9, 80, 0
14, 54312, Control_c, 9, 123, 0
14, 54330, Note_on_c, 9, 80, 63
14, 54345, Note_on_c, 9, 80, 0
14, 54346, Control_c, 9, 123, 0
14, 54360, Note_on_c, 9, 81, 68
14, 54361, Control_c, 9, 7, 41
14, 54381, Note_on_c, 9, 81, 0
14, 54383, Control_c, 9, 123, 0
14, 54417, Control_c, 9, 7, 40
14, 54420, Note_on_c, 9, 80, 68
14, 54429, Note_on_c, 9, 80, 0
14, 54431, Control_c, 9, 123, 0
14, 54450, Note_on_c, 9, 80, 51
14, 54465, Note_on_c, 9, 80, 0
14, 54465, Control_c, 9, 123, 0
14, 54472, Control_c, 9, 7, 39
14, 54480, Note_on_c, 9, 81, 60
14, 54506, Note_on_c, 9, 81, 0
14, 54510, Control_c, 9, 123, 0
14, 54528, Control_c, 9, 7, 38
14, 54540, Note_on_c, 9, 80, 68
14, 54549, Note_on_c, 9, 80, 0
14, 54550, Control_c, 9, 123, 0
14, 54570, Note_on_c, 9, 80, 51
14, 54583, Control_c, 9, 123, 0
14, 54584, Note_on_c, 9, 80, 0
14, 54584, Control_c, 9, 7, 37
14, 54600, Note_on_c, 9, 81, 65
14, 54619, Note_on_c, 9, 81, 0
14, 54624, Control_c, 9, 123, 0
14, 54639, Control_c, 9, 7, 36
14, 54660, Note_on_c, 9, 80, 74
14, 54672, Note_on_c, 9, 80, 0
14, 54675, Control_c, 9, 123, 0
14, 54690, Note_on_c, 9, 80, 43
14, 54695, Control_c, 9, 7, 35
14, 54705, Note_on_c, 9, 80, 0
14, 54707, Control_c, 9, 123, 0
14, 54720, Note_on_c, 9, 81, 65
14, 54738, Note_on_c, 9, 81, 0
14, 54746, Control_c, 9, 123, 0
14, 54750, Control_c, 9, 7, 34
14, 54780, Note_on_c, 9, 80, 68
14, 54791, Note_on_c, 9, 80, 0
14, 54791, Control_c, 9, 123, 0
14, 54806, Control_c, 9, 7, 33
14, 54810, Note_on_c, 9, 80, 45
14, 54825, Note_on_c, 9, 80, 0
14, 54825, Control_c, 9, 123, 0
14, 54840, Note_on_c, 9, 81, 71
14, 54861, Control_c, 9, 7, 32
14, 54863, Note_on_c, 9, 81, 0
14, 54864, Control_c, 9, 123, 0
14, 54900, Note_on_c, 9, 80, 80
14, 54911, Note_on_c, 9, 80, 0
14, 54915, Control_c, 9, 123, 0
14, 54917, Control_c, 9, 7, 31
14, 54930, Note_on_c, 9, 80, 54
14, 54947, Note_on_c, 9, 80, 0
14, 54950, Control_c, 9, 123, 0
14, 54960, Note_on_c, 9, 81, 65
14, 54973, Control_c, 9, 7, 30
14, 54979, Note_on_c, 9, 81, 0
14, 54986, Control_c, 9, 123, 0
14, 55020, Note_on_c, 9, 80, 58
14, 55028, Control_c, 9, 7, 29
14, 55029, Note_on_c, 9, 80, 0
14, 55032, Control_c, 9, 123, 0
14, 55050, Note_on_c, 9, 80, 51
14, 55063, Note_on_c, 9, 80, 0
14, 55065, Control_c, 9, 123, 0
14, 55080, Note_on_c, 9, 81, 68
14, 55084, Control_c, 9, 7, 28
14, 55101, Note_on_c, 9, 81, 0
14, 55104, Control_c, 9, 123, 0
14, 55139, Control_c, 9, 7, 27
14, 55140, Note_on_c, 9, 80, 54
14, 55145, Note_on_c, 9, 80, 0
14, 55148, Control_c, 9, 123, 0
14, 55170, Note_on_c, 9, 80, 48
14, 55184, Control_c, 9, 123, 0
14, 55185, Note_on_c, 9, 80, 0
14, 55195, Control_c, 9, 7, 26
14, 55200, Note_on_c, 9, 81, 65
14, 55221, Note_on_c, 9, 81, 0
14, 55221, Control_c, 9, 123, 0
14, 55251, Control_c, 9, 7, 25
14, 55260, Note_on_c, 9, 80, 54
14, 55270, Note_on_c, 9, 80, 0
14, 55272, Control_c, 9, 123, 0
14, 55290, Note_on_c, 9, 80, 48
14, 55305, Control_c, 9, 123, 0
14, 55306, Control_c, 9, 7, 24
14, 55307, Note_on_c, 9, 80, 0
14, 55320, Note_on_c, 9, 81, 71
14, 55344, Note_on_c, 9, 81, 0
14, 55345, Control_c, 9, 123, 0
14, 55362, Control_c, 9, 7, 23
14, 55380, Note_on_c, 9, 80, 68
14, 55390, Note_on_c, 9, 80, 0
14, 55394, Control_c, 9, 123, 0
14, 55410, Note_on_c, 9, 80, 68
14, 55417, Control_c, 9, 7, 22
14, 55425, Note_on_c, 9, 80, 0
14, 55429, Control_c, 9, 123, 0
14, 55440, Note_on_c, 9, 81, 71
14, 55462, Note_on_c, 9, 81, 0
14, 55464, Control_c, 9, 123, 0
14, 55473, Control_c, 9, 7, 21
14, 55500, Note_on_c, 9, 80, 74
14, 55512, Note_on_c, 9, 80, 0
14, 55513, Control_c, 9, 123, 0
14, 55528, Control_c, 9, 7, 20
14, 55530, Note_on_c, 9, 80, 48
14, 55545, Note_on_c, 9, 80, 0
14, 55546, Control_c, 9, 123, 0
14, 55560, Note_on_c, 9, 81, 68
14, 55584, Control_c, 9, 7, 19
14, 55585, Note_on_c, 9, 81, 0
14, 55585, Control_c, 9, 123, 0
14, 55620, Note_on_c, 9, 80, 68
14, 55632, Note_on_c, 9, 80, 0
14, 55636, Control_c, 9, 123, 0
14, 55640, Control_c, 9, 7, 18
14, 55650, Note_on_c, 9, 80, 51
14, 55665, Note_on_c, 9, 80, 0
14, 55667, Control_c, 9, 123, 0
14, 55680, Note_on_c, 9, 81, 77
14, 55695, Control_c, 9, 7, 17
14, 55703, Note_on_c, 9, 81, 0
14, 55705, Control_c, 9, 123, 0
14, 55751, Control_c, 9, 7, 16
14, 55806, Control_c, 9, 7, 15
14, 55862, Control_c, 9, 7, 14
14, 55917, Control_c, 9, 7, 13
14, 55973, Control_c, 9, 7, 12
14, 56029, Control_c, 9, 7, 11
14, 56084, Control_c, 9, 7, 10
14, 56140, Control_c, 9, 7, 9
14, 56195, Control_c, 9, 7, 8
14, 56251, Control_c, 9, 7, 7
14, 56307, Control_c, 9, 7, 6
14, 56362, Control_c, 9, 7, 5
14, 56418, Control_c, 9, 7, 4
14, 56473, Control_c, 9, 7, 3
14, 56529, Control_c, 9, 7, 2
14, 56584, Control_c, 9, 7, 1
14, 56640, Control_c, 9, 7, 0
14, 56640, End_track
15, 0, Start_track
15, 0, MIDI_port, 0
15, 0, Title_t, "Musician's"
15, 0, End_track
0, 0, End_of_file
