0, 0, Header, 1, 17, 120
1, 0, Start_track
1, 0, Time_signature, 4, 2, 24, 8
1, 0, Key_signature, -1, "major"
1, 0, Tempo, 895522
1, 0, End_track
2, 0, Start_track
2, 0, Title_t, "Soft karaoke"
2, 0, Text_t, "@KMIDI KARAOKE FILE"
2, 0, End_track
3, 0, Start_track
3, 0, Title_t, "Words"
3, 0, Text_t, "@LDutch"
3, 0, Text_t, "@TThink Twice"
3, 0, Text_t, "@TCeline Dion"
3, 0, Text_t, "@TSequenced & Karaoke by H. de Koning."
3, 2580, Text_t, "\\Don't"
3, 2640, Text_t, " think"
3, 2670, Text_t, " I"
3, 2700, Text_t, " can't"
3, 2760, Text_t, " feel"
3, 2820, Text_t, " that"
3, 2850, Text_t, " there's"
3, 2880, Text_t, " some"
3, 3000, Text_t, "thing"
3, 3060, Text_t, " wrong."
3, 3510, Text_t, "/You've"
3, 3540, Text_t, " been"
3, 3600, Text_t, " the"
3, 3630, Text_t, " sweetest"
3, 3720, Text_t, " part"
3, 3760, Text_t, " of"
3, 3810, Text_t, " my"
3, 3840, Text_t, " life"
3, 3930, Text_t, " for"
3, 3945, Text_t, " so"
3, 4080, Text_t, " long."
3, 4410, Text_t, "/I"
3, 4440, Text_t, " look"
3, 4480, Text_t, " in"
3, 4520, Text_t, " your"
3, 4560, Text_t, " eyes"
3, 4740, Text_t, " there's"
3, 4770, Text_t, " a"
3, 4800, Text_t, " dis"
3, 4890, Text_t, "tant"
3, 4980, Text_t, " light."
3, 5370, Text_t, "/And"
3, 5400, Text_t, " you"
3, 5430, Text_t, " and"
3, 5460, Text_t, " I"
3, 5520, Text_t, " know"
3, 5670, Text_t, " there'll"
3, 5700, Text_t, " be"
3, 5730, Text_t, " a"
3, 5760, Text_t, " storm"
3, 5850, Text_t, " to"
3, 5940, Text_t, "night."
3, 6540, Text_t, "/This"
3, 6570, Text_t, " is"
3, 6600, Text_t, " get"
3, 6660, Text_t, "ting"
3, 6720, Text_t, " se"
3, 6900, Text_t, "rious."
3, 7500, Text_t, "/Are"
3, 7530, Text_t, " you"
3, 7560, Text_t, " thin"
3, 7590, Text_t, "king"
3, 7620, Text_t, " 'bout"
3, 7680, Text_t, " you"
3, 7860, Text_t, " or"
3, 7920, Text_t, " us."
3, 8100, Text_t, "\\Don't"
3, 8160, Text_t, " say"
3, 8240, Text_t, " what"
3, 8320, Text_t, " you're"
3, 8400, Text_t, " about"
3, 8520, Text_t, " to"
3, 8580, Text_t, " say."
3, 9000, Text_t, "/Look"
3, 9060, Text_t, " back"
3, 9180, Text_t, " be"
3, 9210, Text_t, "fore"
3, 9300, Text_t, " you"
3, 9360, Text_t, " leave"
3, 9540, Text_t, " my"
3, 9600, Text_t, " life."
3, 10020, Text_t, "/Be"
3, 10080, Text_t, " sure"
3, 10170, Text_t, " be"
3, 10200, Text_t, "fore"
3, 10260, Text_t, " you"
3, 10320, Text_t, " close"
3, 10410, Text_t, " that"
3, 10500, Text_t, " door."
3, 10890, Text_t, "/Be"
3, 10920, Text_t, "fore"
3, 10980, Text_t, " you"
3, 11040, Text_t, " roll"
3, 11400, Text_t, " those"
3, 11460, Text_t, " dice."
3, 11880, Text_t, "/Ba"
3, 11910, Text_t, "by"
3, 11940, Text_t, " think"
3, 12090, Text_t, " twice."
3, 12840, Text_t, "\\Ba"
3, 12870, Text_t, "by"
3, 12900, Text_t, " think"
3, 12960, Text_t, " twice"
3, 13140, Text_t, " for"
3, 13170, Text_t, " the"
3, 13200, Text_t, " sake"
3, 13230, Text_t, " of"
3, 13260, Text_t, " our"
3, 13320, Text_t, " love"
3, 13410, Text_t, " for"
3, 13440, Text_t, " the"
3, 13500, Text_t, " me"
3, 13590, Text_t, "mo"
3, 13680, Text_t, "ry."
3, 14100, Text_t, "/For"
3, 14130, Text_t, " the"
3, 14160, Text_t, " fire"
3, 14220, Text_t, " and"
3, 14250, Text_t, " the"
3, 14280, Text_t, " faith"
3, 14340, Text_t, " that"
3, 14370, Text_t, " was"
3, 14400, Text_t, " you"
3, 14520, Text_t, " and"
3, 14640, Text_t, " me."
3, 14910, Text_t, "/Babe"
3, 14970, Text_t, " I"
3, 15000, Text_t, " know"
3, 15060, Text_t, " it"
3, 15090, Text_t, " ain't"
3, 15120, Text_t, " easy"
3, 15150, Text_t, " when"
3, 15180, Text_t, " your"
3, 15210, Text_t, " soul"
3, 15240, Text_t, " cries"
3, 15300, Text_t, " out"
3, 15450, Text_t, " for"
3, 15480, Text_t, " the"
3, 15570, Text_t, " higher"
3, 15600, Text_t, " ground."
3, 15990, Text_t, "/'Cos"
3, 16020, Text_t, " when"
3, 16050, Text_t, " you're"
3, 16080, Text_t, " half"
3, 16140, Text_t, "way"
3, 16170, Text_t, " up,"
3, 16230, Text_t, " you're"
3, 16260, Text_t, " al"
3, 16290, Text_t, "ways"
3, 16320, Text_t, " half"
3, 16440, Text_t, "way"
3, 16530, Text_t, " down."
3, 17055, Text_t, "/But"
3, 17070, Text_t, " ba"
3, 17100, Text_t, "by"
3, 17160, Text_t, " this"
3, 17220, Text_t, " is"
3, 17280, Text_t, " se"
3, 17520, Text_t, "rious."
3, 18060, Text_t, "/Are"
3, 18090, Text_t, " you"
3, 18120, Text_t, " thin"
3, 18150, Text_t, "king"
3, 18180, Text_t, " 'bout"
3, 18240, Text_t, " you"
3, 18420, Text_t, " or"
3, 18480, Text_t, " us."
3, 18620, Text_t, "\\Don't"
3, 18720, Text_t, " say"
3, 18840, Text_t, " what"
3, 18900, Text_t, " you're"
3, 18960, Text_t, " about"
3, 19140, Text_t, " to"
3, 19200, Text_t, " say."
3, 19620, Text_t, "/Look"
3, 19680, Text_t, " back"
3, 19770, Text_t, " be"
3, 19800, Text_t, "fore"
3, 19860, Text_t, " you"
3, 19920, Text_t, " leave"
3, 20100, Text_t, " my"
3, 20160, Text_t, " life."
3, 20520, Text_t, "/Be"
3, 20610, Text_t, " sure"
3, 20700, Text_t, " be"
3, 20730, Text_t, "fore"
3, 20820, Text_t, " you"
3, 20880, Text_t, " close"
3, 20970, Text_t, " that"
3, 21060, Text_t, " door."
3, 21450, Text_t, "/Be"
3, 21480, Text_t, "fore"
3, 21540, Text_t, " you"
3, 21600, Text_t, " roll"
3, 21960, Text_t, " those"
3, 22020, Text_t, " dice."
3, 22440, Text_t, "/Ba"
3, 22470, Text_t, "by"
3, 22500, Text_t, " think"
3, 22560, Text_t, " twice."
3, 24765, Text_t, "\\Baby"
3, 24870, Text_t, " this"
3, 24900, Text_t, " is"
3, 24930, Text_t, " se"
3, 24960, Text_t, "ri"
3, 25170, Text_t, "ous"
3, 25200, Text_t, "."
3, 25710, Text_t, "/Are"
3, 25755, Text_t, " you"
3, 25815, Text_t, " thinking"
3, 25845, Text_t, " 'bout"
3, 25875, Text_t, " you"
3, 25890, Text_t, " or"
3, 25920, Text_t, " us."
3, 26430, Text_t, "/Ba"
3, 26550, Text_t, "be"
3, 27480, Text_t, " No"
3, 27520, Text_t, " no"
3, 27560, Text_t, " no"
3, 27600, Text_t, " no."
3, 27780, Text_t, "/Look"
3, 27840, Text_t, " back"
3, 27930, Text_t, " be"
3, 27960, Text_t, "fore"
3, 28020, Text_t, " you"
3, 28080, Text_t, " leave"
3, 28260, Text_t, " my"
3, 28320, Text_t, " live."
3, 28380, Text_t, "/Ooh"
3, 28440, Text_t, " leave"
3, 28500, Text_t, " my"
3, 28560, Text_t, " li"
3, 28590, Text_t, "ve"
3, 28620, Text_t, "."
3, 28740, Text_t, "/Be"
3, 28800, Text_t, " sure"
3, 28890, Text_t, " be"
3, 28920, Text_t, "fore"
3, 28980, Text_t, " you"
3, 29040, Text_t, " close"
3, 29130, Text_t, " that"
3, 29220, Text_t, " door."
3, 29610, Text_t, "/Be"
3, 29640, Text_t, "fore"
3, 29700, Text_t, " you"
3, 29745, Text_t, " roll"
3, 30120, Text_t, " those"
3, 30180, Text_t, " dice."
3, 30600, Text_t, "/Ba"
3, 30630, Text_t, "by"
3, 30660, Text_t, " think"
3, 30720, Text_t, " twice."
3, 32220, Text_t, "/I"
3, 32250, Text_t, " de"
3, 32280, Text_t, "pend"
3, 32340, Text_t, " on"
3, 32400, Text_t, " you."
3, 32580, Text_t, "/What"
3, 32640, Text_t, "ever"
3, 32730, Text_t, " it"
3, 32760, Text_t, " takes,"
3, 32820, Text_t, " I'll"
3, 32880, Text_t, " sa"
3, 32970, Text_t, "cri"
3, 33060, Text_t, "fice."
3, 33450, Text_t, "/Be"
3, 33480, Text_t, "fore"
3, 33540, Text_t, " you"
3, 33600, Text_t, " roll"
3, 33600, End_track
4, 0, Start_track
4, 0, MIDI_port, 0
4, 0, Title_t, "Karaoke"
4, 0, Text_t, "@K Midi Karaoke File tm"
4, 0, Text_t, "@V0100"
4, 0, Text_t, "@I Think Twice (Celine Dion)"
4, 0, Text_t, "@I Seqeunced & Karaoke by H. de Koning"
4, 0, Text_t, "@K All Rights Reserved"
4, 0, End_track
5, 0, Start_track
5, 0, MIDI_port, 0
5, 0, Title_t, "Melody"
5, 0, Program_c, 0, 65
5, 0, Control_c, 0, 7, 100
5, 0, Control_c, 0, 93, 0
5, 0, Control_c, 0, 91, 100
5, 2580, Note_on_c, 0, 69, 100
5, 2639, Note_on_c, 0, 69, 0
5, 2640, Note_on_c, 0, 69, 100
5, 2669, Note_on_c, 0, 69, 0
5, 2670, Note_on_c, 0, 69, 100
5, 2699, Note_on_c, 0, 69, 0
5, 2700, Note_on_c, 0, 69, 100
5, 2744, Note_on_c, 0, 69, 0
5, 2760, Note_on_c, 0, 69, 100
5, 2819, Note_on_c, 0, 69, 0
5, 2820, Note_on_c, 0, 67, 100
5, 2849, Note_on_c, 0, 67, 0
5, 2850, Note_on_c, 0, 65, 100
5, 2879, Note_on_c, 0, 65, 0
5, 2880, Note_on_c, 0, 58, 100
5, 2939, Note_on_c, 0, 58, 0
5, 3000, Note_on_c, 0, 67, 100
5, 3059, Note_on_c, 0, 67, 0
5, 3060, Note_on_c, 0, 67, 100
5, 3239, Note_on_c, 0, 67, 0
5, 3510, Note_on_c, 0, 67, 100
5, 3539, Note_on_c, 0, 67, 0
5, 3540, Note_on_c, 0, 67, 100
5, 3599, Note_on_c, 0, 67, 0
5, 3600, Note_on_c, 0, 67, 100
5, 3629, Note_on_c, 0, 67, 0
5, 3630, Note_on_c, 0, 67, 100
5, 3719, Note_on_c, 0, 67, 0
5, 3720, Note_on_c, 0, 67, 100
5, 3759, Note_on_c, 0, 67, 0
5, 3760, Note_on_c, 0, 64, 100
5, 3799, Note_on_c, 0, 64, 0
5, 3810, Note_on_c, 0, 62, 100
5, 3839, Note_on_c, 0, 62, 0
5, 3840, Note_on_c, 0, 60, 100
5, 3884, Note_on_c, 0, 60, 0
5, 3930, Note_on_c, 0, 60, 100
5, 3944, Note_on_c, 0, 60, 0
5, 3945, Note_on_c, 0, 67, 100
5, 4079, Note_on_c, 0, 67, 0
5, 4080, Note_on_c, 0, 65, 100
5, 4199, Note_on_c, 0, 65, 0
5, 4410, Note_on_c, 0, 62, 100
5, 4439, Note_on_c, 0, 62, 0
5, 4440, Note_on_c, 0, 69, 100
5, 4479, Note_on_c, 0, 69, 0
5, 4480, Note_on_c, 0, 69, 100
5, 4519, Note_on_c, 0, 69, 0
5, 4520, Note_on_c, 0, 69, 100
5, 4559, Note_on_c, 0, 69, 0
5, 4560, Note_on_c, 0, 69, 100
5, 4679, Note_on_c, 0, 69, 0
5, 4740, Note_on_c, 0, 67, 100
5, 4769, Note_on_c, 0, 67, 0
5, 4770, Note_on_c, 0, 65, 100
5, 4799, Note_on_c, 0, 65, 0
5, 4800, Note_on_c, 0, 58, 100
5, 4879, Note_on_c, 0, 58, 0
5, 4890, Note_on_c, 0, 67, 100
5, 4979, Note_on_c, 0, 67, 0
5, 4980, Note_on_c, 0, 67, 100
5, 5159, Note_on_c, 0, 67, 0
5, 5370, Note_on_c, 0, 60, 100
5, 5399, Note_on_c, 0, 60, 0
5, 5400, Note_on_c, 0, 67, 100
5, 5429, Note_on_c, 0, 67, 0
5, 5430, Note_on_c, 0, 67, 100
5, 5459, Note_on_c, 0, 67, 0
5, 5460, Note_on_c, 0, 67, 100
5, 5519, Note_on_c, 0, 67, 0
5, 5520, Note_on_c, 0, 67, 100
5, 5609, Note_on_c, 0, 67, 0
5, 5670, Note_on_c, 0, 64, 100
5, 5699, Note_on_c, 0, 64, 0
5, 5700, Note_on_c, 0, 64, 100
5, 5729, Note_on_c, 0, 64, 0
5, 5730, Note_on_c, 0, 62, 100
5, 5759, Note_on_c, 0, 62, 0
5, 5760, Note_on_c, 0, 60, 100
5, 5849, Note_on_c, 0, 60, 0
5, 5850, Note_on_c, 0, 62, 100
5, 5939, Note_on_c, 0, 62, 0
5, 5940, Note_on_c, 0, 62, 100
5, 6089, Note_on_c, 0, 62, 0
5, 6540, Note_on_c, 0, 62, 100
5, 6569, Note_on_c, 0, 62, 0
5, 6570, Note_on_c, 0, 62, 100
5, 6599, Note_on_c, 0, 62, 0
5, 6600, Note_on_c, 0, 64, 100
5, 6659, Note_on_c, 0, 64, 0
5, 6660, Note_on_c, 0, 65, 100
5, 6719, Note_on_c, 0, 65, 0
5, 6720, Note_on_c, 0, 69, 100
5, 6899, Note_on_c, 0, 69, 0
5, 6900, Note_on_c, 0, 67, 100
5, 7079, Note_on_c, 0, 67, 0
5, 7500, Note_on_c, 0, 62, 100
5, 7529, Note_on_c, 0, 62, 0
5, 7530, Note_on_c, 0, 62, 100
5, 7559, Note_on_c, 0, 62, 0
5, 7560, Note_on_c, 0, 64, 100
5, 7589, Note_on_c, 0, 64, 0
5, 7590, Note_on_c, 0, 64, 100
5, 7619, Note_on_c, 0, 64, 0
5, 7620, Note_on_c, 0, 65, 100
5, 7679, Note_on_c, 0, 65, 0
5, 7680, Note_on_c, 0, 69, 100
5, 7829, Note_on_c, 0, 69, 0
5, 7860, Note_on_c, 0, 70, 100
5, 7919, Note_on_c, 0, 70, 0
5, 7920, Note_on_c, 0, 70, 100
5, 8009, Note_on_c, 0, 70, 0
5, 8100, Note_on_c, 0, 70, 100
5, 8159, Note_on_c, 0, 70, 0
5, 8160, Note_on_c, 0, 69, 100
5, 8239, Note_on_c, 0, 69, 0
5, 8240, Note_on_c, 0, 65, 100
5, 8319, Note_on_c, 0, 65, 0
5, 8320, Note_on_c, 0, 65, 100
5, 8399, Note_on_c, 0, 65, 0
5, 8400, Note_on_c, 0, 62, 100
5, 8519, Note_on_c, 0, 62, 0
5, 8520, Note_on_c, 0, 69, 100
5, 8579, Note_on_c, 0, 69, 0
5, 8580, Note_on_c, 0, 67, 100
5, 8699, Note_on_c, 0, 67, 0
5, 9000, Note_on_c, 0, 70, 100
5, 9059, Note_on_c, 0, 70, 0
5, 9060, Note_on_c, 0, 69, 100
5, 9149, Note_on_c, 0, 69, 0
5, 9180, Note_on_c, 0, 65, 100
5, 9209, Note_on_c, 0, 65, 0
5, 9210, Note_on_c, 0, 65, 100
5, 9299, Note_on_c, 0, 65, 0
5, 9300, Note_on_c, 0, 72, 100
5, 9359, Note_on_c, 0, 72, 0
5, 9360, Note_on_c, 0, 72, 100
5, 9479, Note_on_c, 0, 72, 0
5, 9540, Note_on_c, 0, 64, 100
5, 9599, Note_on_c, 0, 64, 0
5, 9600, Note_on_c, 0, 62, 100
5, 9659, Note_on_c, 0, 62, 0
5, 10020, Note_on_c, 0, 70, 100
5, 10079, Note_on_c, 0, 70, 0
5, 10080, Note_on_c, 0, 69, 100
5, 10169, Note_on_c, 0, 69, 0
5, 10170, Note_on_c, 0, 65, 100
5, 10199, Note_on_c, 0, 65, 0
5, 10200, Note_on_c, 0, 65, 100
5, 10259, Note_on_c, 0, 65, 0
5, 10260, Note_on_c, 0, 65, 100
5, 10319, Note_on_c, 0, 65, 0
5, 10320, Note_on_c, 0, 62, 100
5, 10409, Note_on_c, 0, 62, 0
5, 10410, Note_on_c, 0, 69, 100
5, 10499, Note_on_c, 0, 69, 0
5, 10500, Note_on_c, 0, 67, 100
5, 10589, Note_on_c, 0, 67, 0
5, 10890, Note_on_c, 0, 67, 100
5, 10919, Note_on_c, 0, 67, 0
5, 10920, Note_on_c, 0, 67, 100
5, 10979, Note_on_c, 0, 67, 0
5, 10980, Note_on_c, 0, 69, 100
5, 11039, Note_on_c, 0, 69, 0
5, 11040, Note_on_c, 0, 67, 100
5, 11099, Note_on_c, 0, 67, 0
5, 11100, Note_on_c, 0, 65, 100
5, 11129, Note_on_c, 0, 65, 0
5, 11130, Note_on_c, 0, 62, 100
5, 11189, Note_on_c, 0, 62, 0
5, 11190, Note_on_c, 0, 65, 100
5, 11279, Note_on_c, 0, 65, 0
5, 11400, Note_on_c, 0, 62, 100
5, 11459, Note_on_c, 0, 62, 0
5, 11460, Note_on_c, 0, 65, 100
5, 11759, Note_on_c, 0, 65, 0
5, 11880, Note_on_c, 0, 60, 100
5, 11909, Note_on_c, 0, 60, 0
5, 11910, Note_on_c, 0, 60, 100
5, 11939, Note_on_c, 0, 60, 0
5, 11940, Note_on_c, 0, 67, 100
5, 12089, Note_on_c, 0, 67, 0
5, 12090, Note_on_c, 0, 65, 100
5, 12299, Note_on_c, 0, 65, 0
5, 12840, Note_on_c, 0, 62, 100
5, 12869, Note_on_c, 0, 62, 0
5, 12870, Note_on_c, 0, 62, 100
5, 12899, Note_on_c, 0, 62, 0
5, 12900, Note_on_c, 0, 65, 100
5, 12959, Note_on_c, 0, 65, 0
5, 12960, Note_on_c, 0, 69, 100
5, 13139, Note_on_c, 0, 69, 0
5, 13140, Note_on_c, 0, 67, 100
5, 13169, Note_on_c, 0, 67, 0
5, 13170, Note_on_c, 0, 65, 100
5, 13199, Note_on_c, 0, 65, 0
5, 13200, Note_on_c, 0, 67, 100
5, 13229, Note_on_c, 0, 67, 0
5, 13230, Note_on_c, 0, 69, 100
5, 13259, Note_on_c, 0, 69, 0
5, 13260, Note_on_c, 0, 69, 100
5, 13319, Note_on_c, 0, 69, 0
5, 13320, Note_on_c, 0, 69, 100
5, 13409, Note_on_c, 0, 69, 0
5, 13410, Note_on_c, 0, 67, 100
5, 13439, Note_on_c, 0, 67, 0
5, 13440, Note_on_c, 0, 65, 100
5, 13499, Note_on_c, 0, 65, 0
5, 13500, Note_on_c, 0, 58, 100
5, 13589, Note_on_c, 0, 58, 0
5, 13590, Note_on_c, 0, 67, 100
5, 13679, Note_on_c, 0, 67, 0
5, 13680, Note_on_c, 0, 67, 100
5, 13799, Note_on_c, 0, 67, 0
5, 14100, Note_on_c, 0, 67, 100
5, 14129, Note_on_c, 0, 67, 0
5, 14130, Note_on_c, 0, 67, 100
5, 14159, Note_on_c, 0, 67, 0
5, 14160, Note_on_c, 0, 67, 100
5, 14219, Note_on_c, 0, 67, 0
5, 14220, Note_on_c, 0, 67, 100
5, 14249, Note_on_c, 0, 67, 0
5, 14250, Note_on_c, 0, 67, 100
5, 14279, Note_on_c, 0, 67, 0
5, 14280, Note_on_c, 0, 67, 100
5, 14339, Note_on_c, 0, 67, 0
5, 14340, Note_on_c, 0, 64, 100
5, 14369, Note_on_c, 0, 64, 0
5, 14370, Note_on_c, 0, 62, 100
5, 14399, Note_on_c, 0, 62, 0
5, 14400, Note_on_c, 0, 60, 100
5, 14519, Note_on_c, 0, 60, 0
5, 14520, Note_on_c, 0, 67, 100
5, 14639, Note_on_c, 0, 67, 0
5, 14640, Note_on_c, 0, 65, 100
5, 14759, Note_on_c, 0, 65, 0
5, 14910, Note_on_c, 0, 69, 100
5, 14969, Note_on_c, 0, 69, 0
5, 14970, Note_on_c, 0, 69, 100
5, 14999, Note_on_c, 0, 69, 0
5, 15000, Note_on_c, 0, 69, 100
5, 15059, Note_on_c, 0, 69, 0
5, 15060, Note_on_c, 0, 69, 100
5, 15089, Note_on_c, 0, 69, 0
5, 15090, Note_on_c, 0, 69, 100
5, 15119, Note_on_c, 0, 69, 0
5, 15120, Note_on_c, 0, 69, 100
5, 15149, Note_on_c, 0, 69, 0
5, 15150, Note_on_c, 0, 69, 100
5, 15179, Note_on_c, 0, 69, 0
5, 15180, Note_on_c, 0, 69, 100
5, 15209, Note_on_c, 0, 69, 0
5, 15210, Note_on_c, 0, 69, 100
5, 15239, Note_on_c, 0, 69, 0
5, 15240, Note_on_c, 0, 69, 100
5, 15299, Note_on_c, 0, 69, 0
5, 15300, Note_on_c, 0, 74, 100
5, 15449, Note_on_c, 0, 74, 0
5, 15450, Note_on_c, 0, 77, 100
5, 15479, Note_on_c, 0, 77, 0
5, 15480, Note_on_c, 0, 69, 100
5, 15569, Note_on_c, 0, 69, 0
5, 15570, Note_on_c, 0, 69, 100
5, 15599, Note_on_c, 0, 69, 0
5, 15600, Note_on_c, 0, 65, 100
5, 15719, Note_on_c, 0, 65, 0
5, 15990, Note_on_c, 0, 67, 100
5, 16019, Note_on_c, 0, 67, 0
5, 16020, Note_on_c, 0, 67, 100
5, 16049, Note_on_c, 0, 67, 0
5, 16050, Note_on_c, 0, 67, 100
5, 16079, Note_on_c, 0, 67, 0
5, 16080, Note_on_c, 0, 67, 100
5, 16139, Note_on_c, 0, 67, 0
5, 16140, Note_on_c, 0, 67, 100
5, 16169, Note_on_c, 0, 67, 0
5, 16170, Note_on_c, 0, 67, 100
5, 16229, Note_on_c, 0, 67, 0
5, 16230, Note_on_c, 0, 67, 100
5, 16259, Note_on_c, 0, 67, 0
5, 16260, Note_on_c, 0, 64, 100
5, 16289, Note_on_c, 0, 64, 0
5, 16290, Note_on_c, 0, 62, 100
5, 16319, Note_on_c, 0, 62, 0
5, 16320, Note_on_c, 0, 60, 100
5, 16439, Note_on_c, 0, 60, 0
5, 16440, Note_on_c, 0, 67, 100
5, 16529, Note_on_c, 0, 67, 0
5, 16530, Note_on_c, 0, 65, 100
5, 16649, Note_on_c, 0, 65, 0
5, 17055, Note_on_c, 0, 62, 100
5, 17069, Note_on_c, 0, 62, 0
5, 17070, Note_on_c, 0, 62, 100
5, 17099, Note_on_c, 0, 62, 0
5, 17100, Note_on_c, 0, 62, 100
5, 17159, Note_on_c, 0, 62, 0
5, 17160, Note_on_c, 0, 64, 100
5, 17219, Note_on_c, 0, 64, 0
5, 17220, Note_on_c, 0, 65, 100
5, 17279, Note_on_c, 0, 65, 0
5, 17280, Note_on_c, 0, 69, 100
5, 17519, Note_on_c, 0, 69, 0
5, 17520, Note_on_c, 0, 67, 100
5, 17639, Note_on_c, 0, 67, 0
5, 18060, Note_on_c, 0, 62, 100
5, 18089, Note_on_c, 0, 62, 0
5, 18090, Note_on_c, 0, 62, 100
5, 18119, Note_on_c, 0, 62, 0
5, 18120, Note_on_c, 0, 64, 100
5, 18149, Note_on_c, 0, 64, 0
5, 18150, Note_on_c, 0, 64, 100
5, 18179, Note_on_c, 0, 64, 0
5, 18180, Note_on_c, 0, 65, 100
5, 18239, Note_on_c, 0, 65, 0
5, 18240, Note_on_c, 0, 69, 100
5, 18419, Note_on_c, 0, 69, 0
5, 18420, Note_on_c, 0, 70, 100
5, 18479, Note_on_c, 0, 70, 0
5, 18480, Note_on_c, 0, 70, 100
5, 18539, Note_on_c, 0, 70, 0
5, 18620, Note_on_c, 0, 70, 100
5, 18719, Note_on_c, 0, 70, 0
5, 18720, Note_on_c, 0, 69, 100
5, 18839, Note_on_c, 0, 69, 0
5, 18840, Note_on_c, 0, 65, 100
5, 18899, Note_on_c, 0, 65, 0
5, 18900, Note_on_c, 0, 65, 100
5, 18959, Note_on_c, 0, 65, 0
5, 18960, Note_on_c, 0, 62, 100
5, 19139, Note_on_c, 0, 62, 0
5, 19140, Note_on_c, 0, 69, 100
5, 19199, Note_on_c, 0, 69, 0
5, 19200, Note_on_c, 0, 67, 100
5, 19319, Note_on_c, 0, 67, 0
5, 19620, Note_on_c, 0, 70, 100
5, 19679, Note_on_c, 0, 70, 0
5, 19680, Note_on_c, 0, 69, 100
5, 19769, Note_on_c, 0, 69, 0
5, 19770, Note_on_c, 0, 65, 100
5, 19799, Note_on_c, 0, 65, 0
5, 19800, Note_on_c, 0, 65, 100
5, 19859, Note_on_c, 0, 65, 0
5, 19860, Note_on_c, 0, 72, 100
5, 19919, Note_on_c, 0, 72, 0
5, 19920, Note_on_c, 0, 72, 100
5, 20039, Note_on_c, 0, 72, 0
5, 20100, Note_on_c, 0, 64, 100
5, 20159, Note_on_c, 0, 64, 0
5, 20160, Note_on_c, 0, 62, 100
5, 20279, Note_on_c, 0, 62, 0
5, 20520, Note_on_c, 0, 70, 100
5, 20609, Note_on_c, 0, 70, 0
5, 20610, Note_on_c, 0, 69, 100
5, 20699, Note_on_c, 0, 69, 0
5, 20700, Note_on_c, 0, 65, 100
5, 20729, Note_on_c, 0, 65, 0
5, 20730, Note_on_c, 0, 65, 100
5, 20819, Note_on_c, 0, 65, 0
5, 20820, Note_on_c, 0, 65, 100
5, 20879, Note_on_c, 0, 65, 0
5, 20880, Note_on_c, 0, 62, 100
5, 20969, Note_on_c, 0, 62, 0
5, 20970, Note_on_c, 0, 69, 100
5, 21059, Note_on_c, 0, 69, 0
5, 21060, Note_on_c, 0, 67, 100
5, 21179, Note_on_c, 0, 67, 0
5, 21450, Note_on_c, 0, 67, 100
5, 21479, Note_on_c, 0, 67, 0
5, 21480, Note_on_c, 0, 67, 100
5, 21539, Note_on_c, 0, 67, 0
5, 21540, Note_on_c, 0, 69, 100
5, 21599, Note_on_c, 0, 69, 0
5, 21600, Note_on_c, 0, 70, 100
5, 21659, Note_on_c, 0, 70, 0
5, 21660, Note_on_c, 0, 69, 100
5, 21689, Note_on_c, 0, 69, 0
5, 21690, Note_on_c, 0, 65, 100
5, 21779, Note_on_c, 0, 65, 0
5, 21960, Note_on_c, 0, 62, 100
5, 22019, Note_on_c, 0, 62, 0
5, 22020, Note_on_c, 0, 65, 100
5, 22379, Note_on_c, 0, 65, 0
5, 22440, Note_on_c, 0, 62, 100
5, 22469, Note_on_c, 0, 62, 0
5, 22470, Note_on_c, 0, 62, 100
5, 22499, Note_on_c, 0, 62, 0
5, 22500, Note_on_c, 0, 65, 100
5, 22559, Note_on_c, 0, 65, 0
5, 22560, Note_on_c, 0, 69, 100
5, 22739, Note_on_c, 0, 69, 0
5, 24765, Note_on_c, 0, 74, 100
5, 24869, Note_on_c, 0, 74, 0
5, 24870, Note_on_c, 0, 72, 100
5, 24899, Note_on_c, 0, 72, 0
5, 24900, Note_on_c, 0, 70, 100
5, 24929, Note_on_c, 0, 70, 0
5, 24930, Note_on_c, 0, 69, 100
5, 24959, Note_on_c, 0, 69, 0
5, 24960, Note_on_c, 0, 69, 100
5, 25109, Note_on_c, 0, 69, 0
5, 25110, Note_on_c, 0, 67, 100
5, 25169, Note_on_c, 0, 67, 0
5, 25170, Note_on_c, 0, 70, 100
5, 25184, Note_on_c, 0, 70, 0
5, 25185, Note_on_c, 0, 69, 100
5, 25199, Note_on_c, 0, 69, 0
5, 25200, Note_on_c, 0, 67, 100
5, 25319, Note_on_c, 0, 67, 0
5, 25710, Note_on_c, 0, 70, 100
5, 25754, Note_on_c, 0, 70, 0
5, 25755, Note_on_c, 0, 69, 100
5, 25814, Note_on_c, 0, 69, 0
5, 25815, Note_on_c, 0, 70, 100
5, 25844, Note_on_c, 0, 70, 0
5, 25845, Note_on_c, 0, 69, 100
5, 25874, Note_on_c, 0, 69, 0
5, 25875, Note_on_c, 0, 70, 100
5, 25889, Note_on_c, 0, 70, 0
5, 25890, Note_on_c, 0, 70, 100
5, 25919, Note_on_c, 0, 70, 0
5, 25920, Note_on_c, 0, 67, 100
5, 26099, Note_on_c, 0, 67, 0
5, 26430, Note_on_c, 0, 77, 100
5, 26549, Note_on_c, 0, 77, 0
5, 26550, Note_on_c, 0, 72, 100
5, 26639, Note_on_c, 0, 72, 0
5, 26640, Note_on_c, 0, 74, 100
5, 26879, Note_on_c, 0, 74, 0
5, 26880, Note_on_c, 0, 72, 100
5, 26999, Note_on_c, 0, 72, 0
5, 27000, Note_on_c, 0, 72, 100
5, 27120, Note_on_c, 0, 69, 100
5, 27134, Note_on_c, 0, 72, 0
5, 27239, Note_on_c, 0, 69, 0
5, 27240, Note_on_c, 0, 65, 100
5, 27344, Note_on_c, 0, 65, 0
5, 27480, Note_on_c, 0, 74, 100
5, 27519, Note_on_c, 0, 74, 0
5, 27520, Note_on_c, 0, 72, 100
5, 27559, Note_on_c, 0, 72, 0
5, 27560, Note_on_c, 0, 71, 100
5, 27599, Note_on_c, 0, 71, 0
5, 27600, Note_on_c, 0, 72, 100
5, 27659, Note_on_c, 0, 72, 0
5, 27780, Note_on_c, 0, 70, 100
5, 27839, Note_on_c, 0, 70, 0
5, 27840, Note_on_c, 0, 69, 100
5, 27929, Note_on_c, 0, 69, 0
5, 27930, Note_on_c, 0, 65, 100
5, 27959, Note_on_c, 0, 65, 0
5, 27960, Note_on_c, 0, 65, 100
5, 28019, Note_on_c, 0, 65, 0
5, 28020, Note_on_c, 0, 72, 100
5, 28079, Note_on_c, 0, 72, 0
5, 28080, Note_on_c, 0, 72, 100
5, 28259, Note_on_c, 0, 72, 0
5, 28260, Note_on_c, 0, 64, 100
5, 28319, Note_on_c, 0, 64, 0
5, 28320, Note_on_c, 0, 62, 100
5, 28379, Note_on_c, 0, 62, 0
5, 28380, Note_on_c, 0, 72, 100
5, 28439, Note_on_c, 0, 72, 0
5, 28440, Note_on_c, 0, 74, 100
5, 28499, Note_on_c, 0, 74, 0
5, 28500, Note_on_c, 0, 72, 100
5, 28559, Note_on_c, 0, 72, 0
5, 28560, Note_on_c, 0, 75, 100
5, 28589, Note_on_c, 0, 75, 0
5, 28590, Note_on_c, 0, 74, 100
5, 28619, Note_on_c, 0, 74, 0
5, 28620, Note_on_c, 0, 72, 100
5, 28709, Note_on_c, 0, 72, 0
5, 28740, Note_on_c, 0, 70, 100
5, 28799, Note_on_c, 0, 70, 0
5, 28800, Note_on_c, 0, 69, 100
5, 28889, Note_on_c, 0, 69, 0
5, 28890, Note_on_c, 0, 65, 100
5, 28919, Note_on_c, 0, 65, 0
5, 28920, Note_on_c, 0, 65, 100
5, 28979, Note_on_c, 0, 65, 0
5, 28980, Note_on_c, 0, 65, 100
5, 29039, Note_on_c, 0, 65, 0
5, 29040, Note_on_c, 0, 62, 100
5, 29129, Note_on_c, 0, 62, 0
5, 29130, Note_on_c, 0, 69, 100
5, 29219, Note_on_c, 0, 69, 0
5, 29220, Note_on_c, 0, 67, 100
5, 29309, Note_on_c, 0, 67, 0
5, 29310, Note_on_c, 0, 69, 100
5, 29339, Note_on_c, 0, 69, 0
5, 29610, Note_on_c, 0, 67, 100
5, 29639, Note_on_c, 0, 67, 0
5, 29640, Note_on_c, 0, 67, 100
5, 29699, Note_on_c, 0, 67, 0
5, 29700, Note_on_c, 0, 69, 100
5, 29744, Note_on_c, 0, 69, 0
5, 29745, Note_on_c, 0, 70, 100
5, 29819, Note_on_c, 0, 70, 0
5, 29820, Note_on_c, 0, 69, 100
5, 29864, Note_on_c, 0, 69, 0
5, 29865, Note_on_c, 0, 65, 100
5, 29924, Note_on_c, 0, 65, 0
5, 30120, Note_on_c, 0, 65, 100
5, 30179, Note_on_c, 0, 65, 0
5, 30180, Note_on_c, 0, 65, 100
5, 30479, Note_on_c, 0, 65, 0
5, 30600, Note_on_c, 0, 70, 100
5, 30629, Note_on_c, 0, 70, 0
5, 30630, Note_on_c, 0, 70, 100
5, 30659, Note_on_c, 0, 70, 0
5, 30660, Note_on_c, 0, 72, 100
5, 30719, Note_on_c, 0, 72, 0
5, 30720, Note_on_c, 0, 72, 100
5, 31439, Note_on_c, 0, 72, 0
5, 32220, Note_on_c, 0, 67, 100
5, 32249, Note_on_c, 0, 67, 0
5, 32250, Note_on_c, 0, 67, 100
5, 32279, Note_on_c, 0, 67, 0
5, 32280, Note_on_c, 0, 69, 100
5, 32339, Note_on_c, 0, 69, 0
5, 32340, Note_on_c, 0, 70, 100
5, 32399, Note_on_c, 0, 70, 0
5, 32400, Note_on_c, 0, 69, 100
5, 32459, Note_on_c, 0, 69, 0
5, 32580, Note_on_c, 0, 70, 100
5, 32639, Note_on_c, 0, 70, 0
5, 32640, Note_on_c, 0, 69, 100
5, 32640, Control_c, 0, 7, 99
5, 32655, Control_c, 0, 7, 98
5, 32670, Control_c, 0, 7, 97
5, 32685, Control_c, 0, 7, 96
5, 32699, Note_on_c, 0, 69, 0
5, 32700, Note_on_c, 0, 65, 100
5, 32700, Control_c, 0, 7, 95
5, 32715, Control_c, 0, 7, 94
5, 32727, Control_c, 0, 7, 93
5, 32729, Note_on_c, 0, 65, 0
5, 32730, Note_on_c, 0, 65, 100
5, 32742, Control_c, 0, 7, 92
5, 32757, Control_c, 0, 7, 91
5, 32759, Note_on_c, 0, 65, 0
5, 32760, Note_on_c, 0, 65, 100
5, 32772, Control_c, 0, 7, 90
5, 32787, Control_c, 0, 7, 89
5, 32800, Control_c, 0, 7, 88
5, 32815, Control_c, 0, 7, 87
5, 32819, Note_on_c, 0, 65, 0
5, 32820, Note_on_c, 0, 65, 100
5, 32830, Control_c, 0, 7, 86
5, 32845, Control_c, 0, 7, 85
5, 32860, Control_c, 0, 7, 84
5, 32875, Control_c, 0, 7, 83
5, 32879, Note_on_c, 0, 65, 0
5, 32880, Note_on_c, 0, 62, 100
5, 32887, Control_c, 0, 7, 82
5, 32902, Control_c, 0, 7, 81
5, 32917, Control_c, 0, 7, 80
5, 32932, Control_c, 0, 7, 79
5, 32947, Control_c, 0, 7, 78
5, 32960, Control_c, 0, 7, 77
5, 32969, Note_on_c, 0, 62, 0
5, 32970, Note_on_c, 0, 69, 100
5, 32975, Control_c, 0, 7, 76
5, 32990, Control_c, 0, 7, 75
5, 33005, Control_c, 0, 7, 74
5, 33020, Control_c, 0, 7, 73
5, 33035, Control_c, 0, 7, 72
5, 33047, Control_c, 0, 7, 71
5, 33059, Note_on_c, 0, 69, 0
5, 33060, Note_on_c, 0, 67, 100
5, 33062, Control_c, 0, 7, 70
5, 33077, Control_c, 0, 7, 69
5, 33092, Control_c, 0, 7, 68
5, 33107, Control_c, 0, 7, 67
5, 33119, Note_on_c, 0, 67, 0
5, 33120, Control_c, 0, 7, 66
5, 33135, Control_c, 0, 7, 65
5, 33150, Control_c, 0, 7, 64
5, 33165, Control_c, 0, 7, 63
5, 33180, Control_c, 0, 7, 62
5, 33195, Control_c, 0, 7, 61
5, 33207, Control_c, 0, 7, 60
5, 33222, Control_c, 0, 7, 59
5, 33237, Control_c, 0, 7, 58
5, 33252, Control_c, 0, 7, 57
5, 33267, Control_c, 0, 7, 56
5, 33280, Control_c, 0, 7, 55
5, 33295, Control_c, 0, 7, 54
5, 33310, Control_c, 0, 7, 53
5, 33325, Control_c, 0, 7, 52
5, 33340, Control_c, 0, 7, 51
5, 33355, Control_c, 0, 7, 50
5, 33367, Control_c, 0, 7, 49
5, 33382, Control_c, 0, 7, 48
5, 33397, Control_c, 0, 7, 47
5, 33412, Control_c, 0, 7, 46
5, 33427, Control_c, 0, 7, 45
5, 33440, Control_c, 0, 7, 44
5, 33450, Note_on_c, 0, 67, 100
5, 33455, Control_c, 0, 7, 43
5, 33470, Control_c, 0, 7, 42
5, 33479, Note_on_c, 0, 67, 0
5, 33480, Note_on_c, 0, 67, 100
5, 33485, Control_c, 0, 7, 41
5, 33500, Control_c, 0, 7, 40
5, 33515, Control_c, 0, 7, 39
5, 33527, Control_c, 0, 7, 38
5, 33539, Note_on_c, 0, 67, 0
5, 33540, Note_on_c, 0, 69, 100
5, 33542, Control_c, 0, 7, 37
5, 33557, Control_c, 0, 7, 36
5, 33572, Control_c, 0, 7, 35
5, 33587, Control_c, 0, 7, 34
5, 33599, Note_on_c, 0, 69, 0
5, 33600, Note_on_c, 0, 70, 100
5, 33600, Control_c, 0, 7, 33
5, 33615, Control_c, 0, 7, 32
5, 33629, Note_on_c, 0, 70, 0
5, 33630, Note_on_c, 0, 69, 100
5, 33630, Control_c, 0, 7, 31
5, 33645, Control_c, 0, 7, 30
5, 33660, Control_c, 0, 7, 29
5, 33675, Control_c, 0, 7, 28
5, 33687, Control_c, 0, 7, 27
5, 33689, Note_on_c, 0, 69, 0
5, 33690, Note_on_c, 0, 65, 100
5, 33702, Control_c, 0, 7, 26
5, 33717, Control_c, 0, 7, 25
5, 33732, Control_c, 0, 7, 24
5, 33747, Control_c, 0, 7, 23
5, 33760, Control_c, 0, 7, 22
5, 33775, Control_c, 0, 7, 21
5, 33790, Control_c, 0, 7, 20
5, 33805, Control_c, 0, 7, 19
5, 33820, Control_c, 0, 7, 18
5, 33835, Control_c, 0, 7, 17
5, 33847, Control_c, 0, 7, 16
5, 33862, Control_c, 0, 7, 15
5, 33877, Control_c, 0, 7, 14
5, 33892, Control_c, 0, 7, 13
5, 33899, Note_on_c, 0, 65, 0
5, 33907, Control_c, 0, 7, 12
5, 33920, Control_c, 0, 7, 11
5, 33935, Control_c, 0, 7, 10
5, 33950, Control_c, 0, 7, 9
5, 33965, Control_c, 0, 7, 8
5, 33980, Control_c, 0, 7, 7
5, 33995, Control_c, 0, 7, 6
5, 34007, Control_c, 0, 7, 5
5, 34022, Control_c, 0, 7, 4
5, 34037, Control_c, 0, 7, 3
5, 34052, Control_c, 0, 7, 2
5, 34067, Control_c, 0, 7, 1
5, 34080, Control_c, 0, 7, 0
5, 34080, End_track
6, 0, Start_track
6, 0, MIDI_port, 0
6, 0, Title_t, "Warmpad"
6, 0, Program_c, 1, 89
6, 0, Control_c, 1, 7, 100
6, 0, Control_c, 1, 10, 30
6, 0, Control_c, 1, 93, 90
6, 0, Control_c, 1, 91, 60
6, 480, Note_on_c, 1, 57, 81
6, 480, Note_on_c, 1, 60, 81
6, 480, Note_on_c, 1, 65, 81
6, 959, Note_on_c, 1, 65, 0
6, 959, Note_on_c, 1, 60, 0
6, 959, Note_on_c, 1, 57, 0
6, 960, Note_on_c, 1, 58, 78
6, 960, Note_on_c, 1, 62, 78
6, 960, Note_on_c, 1, 67, 78
6, 1439, Note_on_c, 1, 67, 0
6, 1439, Note_on_c, 1, 62, 0
6, 1439, Note_on_c, 1, 58, 0
6, 1440, Note_on_c, 1, 57, 81
6, 1440, Note_on_c, 1, 60, 81
6, 1440, Note_on_c, 1, 65, 81
6, 1919, Note_on_c, 1, 65, 0
6, 1919, Note_on_c, 1, 60, 0
6, 1919, Note_on_c, 1, 57, 0
6, 1920, Note_on_c, 1, 58, 78
6, 1920, Note_on_c, 1, 62, 78
6, 1920, Note_on_c, 1, 67, 78
6, 2399, Note_on_c, 1, 67, 0
6, 2399, Note_on_c, 1, 62, 0
6, 2399, Note_on_c, 1, 58, 0
6, 2400, Note_on_c, 1, 57, 78
6, 2400, Note_on_c, 1, 62, 78
6, 2400, Note_on_c, 1, 65, 78
6, 2879, Note_on_c, 1, 65, 0
6, 2879, Note_on_c, 1, 62, 0
6, 2879, Note_on_c, 1, 57, 0
6, 2880, Note_on_c, 1, 58, 81
6, 2880, Note_on_c, 1, 62, 81
6, 2880, Note_on_c, 1, 67, 81
6, 3359, Note_on_c, 1, 67, 0
6, 3359, Note_on_c, 1, 62, 0
6, 3359, Note_on_c, 1, 58, 0
6, 3360, Note_on_c, 1, 60, 80
6, 3360, Note_on_c, 1, 64, 80
6, 3360, Note_on_c, 1, 67, 80
6, 3839, Note_on_c, 1, 67, 0
6, 3839, Note_on_c, 1, 64, 0
6, 3839, Note_on_c, 1, 60, 0
6, 3840, Note_on_c, 1, 52, 77
6, 3840, Note_on_c, 1, 57, 77
6, 3840, Note_on_c, 1, 60, 77
6, 4079, Note_on_c, 1, 60, 0
6, 4079, Note_on_c, 1, 57, 0
6, 4079, Note_on_c, 1, 52, 0
6, 4080, Note_on_c, 1, 53, 77
6, 4080, Note_on_c, 1, 58, 77
6, 4080, Note_on_c, 1, 62, 77
6, 4319, Note_on_c, 1, 62, 0
6, 4319, Note_on_c, 1, 58, 0
6, 4319, Note_on_c, 1, 53, 0
6, 4320, Note_on_c, 1, 57, 77
6, 4320, Note_on_c, 1, 62, 77
6, 4320, Note_on_c, 1, 65, 77
6, 4799, Note_on_c, 1, 65, 0
6, 4799, Note_on_c, 1, 62, 0
6, 4799, Note_on_c, 1, 57, 0
6, 4800, Note_on_c, 1, 58, 77
6, 4800, Note_on_c, 1, 62, 77
6, 4800, Note_on_c, 1, 67, 77
6, 5279, Note_on_c, 1, 67, 0
6, 5279, Note_on_c, 1, 62, 0
6, 5279, Note_on_c, 1, 58, 0
6, 5280, Note_on_c, 1, 60, 77
6, 5280, Note_on_c, 1, 64, 77
6, 5280, Note_on_c, 1, 67, 77
6, 5759, Note_on_c, 1, 67, 0
6, 5759, Note_on_c, 1, 64, 0
6, 5759, Note_on_c, 1, 60, 0
6, 5760, Note_on_c, 1, 52, 77
6, 5760, Note_on_c, 1, 57, 77
6, 5760, Note_on_c, 1, 60, 77
6, 5999, Note_on_c, 1, 60, 0
6, 5999, Note_on_c, 1, 57, 0
6, 5999, Note_on_c, 1, 52, 0
6, 6000, Note_on_c, 1, 53, 77
6, 6000, Note_on_c, 1, 58, 77
6, 6000, Note_on_c, 1, 62, 77
6, 6239, Note_on_c, 1, 62, 0
6, 6239, Note_on_c, 1, 58, 0
6, 6239, Note_on_c, 1, 53, 0
6, 6240, Note_on_c, 1, 55, 77
6, 6240, Note_on_c, 1, 58, 77
6, 6240, Note_on_c, 1, 62, 77
6, 6719, Note_on_c, 1, 62, 0
6, 6719, Note_on_c, 1, 58, 0
6, 6719, Note_on_c, 1, 55, 0
6, 6720, Note_on_c, 1, 55, 77
6, 6720, Note_on_c, 1, 60, 77
6, 6720, Note_on_c, 1, 64, 77
6, 7199, Note_on_c, 1, 64, 0
6, 7199, Note_on_c, 1, 60, 0
6, 7199, Note_on_c, 1, 55, 0
6, 7200, Note_on_c, 1, 55, 77
6, 7200, Note_on_c, 1, 58, 77
6, 7200, Note_on_c, 1, 62, 77
6, 7679, Note_on_c, 1, 62, 0
6, 7679, Note_on_c, 1, 58, 0
6, 7679, Note_on_c, 1, 55, 0
6, 7680, Note_on_c, 1, 55, 77
6, 7680, Note_on_c, 1, 60, 77
6, 7680, Note_on_c, 1, 64, 77
6, 8159, Note_on_c, 1, 64, 0
6, 8159, Note_on_c, 1, 60, 0
6, 8159, Note_on_c, 1, 55, 0
6, 8160, Note_on_c, 1, 53, 100
6, 8160, Note_on_c, 1, 57, 100
6, 8160, Note_on_c, 1, 60, 100
6, 8399, Note_on_c, 1, 60, 0
6, 8399, Note_on_c, 1, 57, 0
6, 8399, Note_on_c, 1, 53, 0
6, 8400, Note_on_c, 1, 53, 100
6, 8400, Note_on_c, 1, 58, 100
6, 8400, Note_on_c, 1, 62, 100
6, 8639, Note_on_c, 1, 62, 0
6, 8639, Note_on_c, 1, 58, 0
6, 8639, Note_on_c, 1, 53, 0
6, 8640, Note_on_c, 1, 55, 100
6, 8640, Note_on_c, 1, 60, 100
6, 8640, Note_on_c, 1, 64, 100
6, 9119, Note_on_c, 1, 64, 0
6, 9119, Note_on_c, 1, 60, 0
6, 9119, Note_on_c, 1, 55, 0
6, 9120, Note_on_c, 1, 53, 100
6, 9120, Note_on_c, 1, 57, 100
6, 9120, Note_on_c, 1, 60, 100
6, 9359, Note_on_c, 1, 53, 0
6, 9360, Note_on_c, 1, 52, 100
6, 9599, Note_on_c, 1, 52, 0
6, 9599, Note_on_c, 1, 60, 0
6, 9599, Note_on_c, 1, 57, 0
6, 9600, Note_on_c, 1, 53, 100
6, 9600, Note_on_c, 1, 58, 100
6, 9600, Note_on_c, 1, 62, 100
6, 9839, Note_on_c, 1, 62, 0
6, 9839, Note_on_c, 1, 58, 0
6, 9839, Note_on_c, 1, 53, 0
6, 9840, Note_on_c, 1, 55, 100
6, 9840, Note_on_c, 1, 60, 100
6, 9840, Note_on_c, 1, 64, 100
6, 10079, Note_on_c, 1, 64, 0
6, 10079, Note_on_c, 1, 55, 0
6, 10080, Note_on_c, 1, 53, 100
6, 10080, Note_on_c, 1, 57, 100
6, 10319, Note_on_c, 1, 57, 0
6, 10319, Note_on_c, 1, 60, 0
6, 10320, Note_on_c, 1, 58, 100
6, 10320, Note_on_c, 1, 62, 100
6, 10559, Note_on_c, 1, 62, 0
6, 10559, Note_on_c, 1, 58, 0
6, 10559, Note_on_c, 1, 53, 0
6, 10560, Note_on_c, 1, 55, 100
6, 10560, Note_on_c, 1, 60, 100
6, 10560, Note_on_c, 1, 64, 100
6, 11039, Note_on_c, 1, 64, 0
6, 11039, Note_on_c, 1, 60, 0
6, 11040, Note_on_c, 1, 58, 100
6, 11040, Note_on_c, 1, 62, 100
6, 11519, Note_on_c, 1, 55, 0
6, 11520, Note_on_c, 1, 53, 100
6, 11999, Note_on_c, 1, 53, 0
6, 11999, Note_on_c, 1, 62, 0
6, 11999, Note_on_c, 1, 58, 0
6, 12000, Note_on_c, 1, 53, 100
6, 12000, Note_on_c, 1, 57, 100
6, 12000, Note_on_c, 1, 60, 100
6, 12479, Note_on_c, 1, 60, 0
6, 12479, Note_on_c, 1, 57, 0
6, 12479, Note_on_c, 1, 53, 0
6, 12480, Note_on_c, 1, 55, 100
6, 12480, Note_on_c, 1, 58, 100
6, 12480, Note_on_c, 1, 62, 100
6, 12959, Note_on_c, 1, 62, 0
6, 12959, Note_on_c, 1, 58, 0
6, 12959, Note_on_c, 1, 55, 0
6, 12960, Note_on_c, 1, 53, 100
6, 12960, Note_on_c, 1, 57, 100
6, 12960, Note_on_c, 1, 62, 100
6, 13439, Note_on_c, 1, 62, 0
6, 13439, Note_on_c, 1, 57, 0
6, 13439, Note_on_c, 1, 53, 0
6, 13440, Note_on_c, 1, 55, 100
6, 13440, Note_on_c, 1, 58, 100
6, 13440, Note_on_c, 1, 62, 100
6, 13919, Note_on_c, 1, 62, 0
6, 13919, Note_on_c, 1, 58, 0
6, 13919, Note_on_c, 1, 55, 0
6, 13920, Note_on_c, 1, 55, 100
6, 13920, Note_on_c, 1, 60, 100
6, 13920, Note_on_c, 1, 64, 100
6, 14399, Note_on_c, 1, 64, 0
6, 14399, Note_on_c, 1, 60, 0
6, 14399, Note_on_c, 1, 55, 0
6, 14400, Note_on_c, 1, 52, 100
6, 14400, Note_on_c, 1, 57, 100
6, 14400, Note_on_c, 1, 60, 100
6, 14639, Note_on_c, 1, 60, 0
6, 14639, Note_on_c, 1, 57, 0
6, 14639, Note_on_c, 1, 52, 0
6, 14640, Note_on_c, 1, 53, 100
6, 14640, Note_on_c, 1, 58, 100
6, 14640, Note_on_c, 1, 62, 100
6, 14879, Note_on_c, 1, 62, 0
6, 14879, Note_on_c, 1, 58, 0
6, 14879, Note_on_c, 1, 53, 0
6, 14880, Note_on_c, 1, 53, 100
6, 14880, Note_on_c, 1, 57, 100
6, 14880, Note_on_c, 1, 62, 100
6, 15359, Note_on_c, 1, 62, 0
6, 15359, Note_on_c, 1, 57, 0
6, 15359, Note_on_c, 1, 53, 0
6, 15360, Note_on_c, 1, 55, 100
6, 15360, Note_on_c, 1, 58, 100
6, 15360, Note_on_c, 1, 62, 100
6, 15839, Note_on_c, 1, 62, 0
6, 15839, Note_on_c, 1, 58, 0
6, 15839, Note_on_c, 1, 55, 0
6, 15840, Note_on_c, 1, 55, 100
6, 15840, Note_on_c, 1, 60, 100
6, 15840, Note_on_c, 1, 64, 100
6, 16319, Note_on_c, 1, 64, 0
6, 16319, Note_on_c, 1, 60, 0
6, 16319, Note_on_c, 1, 55, 0
6, 16320, Note_on_c, 1, 52, 100
6, 16320, Note_on_c, 1, 57, 100
6, 16320, Note_on_c, 1, 60, 100
6, 16559, Note_on_c, 1, 60, 0
6, 16559, Note_on_c, 1, 57, 0
6, 16559, Note_on_c, 1, 52, 0
6, 16560, Note_on_c, 1, 53, 100
6, 16560, Note_on_c, 1, 58, 100
6, 16560, Note_on_c, 1, 62, 100
6, 16799, Note_on_c, 1, 62, 0
6, 16799, Note_on_c, 1, 58, 0
6, 16799, Note_on_c, 1, 53, 0
6, 16800, Note_on_c, 1, 55, 100
6, 16800, Note_on_c, 1, 58, 100
6, 16800, Note_on_c, 1, 62, 100
6, 17279, Note_on_c, 1, 62, 0
6, 17279, Note_on_c, 1, 58, 0
6, 17279, Note_on_c, 1, 55, 0
6, 17280, Note_on_c, 1, 55, 100
6, 17280, Note_on_c, 1, 60, 100
6, 17280, Note_on_c, 1, 64, 100
6, 17759, Note_on_c, 1, 64, 0
6, 17759, Note_on_c, 1, 60, 0
6, 17759, Note_on_c, 1, 55, 0
6, 17760, Note_on_c, 1, 55, 100
6, 17760, Note_on_c, 1, 58, 100
6, 17760, Note_on_c, 1, 62, 100
6, 18239, Note_on_c, 1, 62, 0
6, 18239, Note_on_c, 1, 58, 0
6, 18239, Note_on_c, 1, 55, 0
6, 18240, Note_on_c, 1, 55, 100
6, 18240, Note_on_c, 1, 60, 100
6, 18240, Note_on_c, 1, 64, 100
6, 18719, Note_on_c, 1, 64, 0
6, 18719, Note_on_c, 1, 60, 0
6, 18719, Note_on_c, 1, 55, 0
6, 18720, Note_on_c, 1, 57, 100
6, 18720, Note_on_c, 1, 60, 100
6, 18720, Note_on_c, 1, 65, 100
6, 18959, Note_on_c, 1, 65, 0
6, 18959, Note_on_c, 1, 60, 0
6, 18959, Note_on_c, 1, 57, 0
6, 18960, Note_on_c, 1, 58, 100
6, 18960, Note_on_c, 1, 62, 100
6, 18960, Note_on_c, 1, 65, 100
6, 19199, Note_on_c, 1, 65, 0
6, 19199, Note_on_c, 1, 62, 0
6, 19199, Note_on_c, 1, 58, 0
6, 19200, Note_on_c, 1, 55, 100
6, 19200, Note_on_c, 1, 60, 100
6, 19200, Note_on_c, 1, 64, 100
6, 19679, Note_on_c, 1, 64, 0
6, 19679, Note_on_c, 1, 60, 0
6, 19679, Note_on_c, 1, 55, 0
6, 19680, Note_on_c, 1, 57, 100
6, 19680, Note_on_c, 1, 60, 100
6, 19680, Note_on_c, 1, 65, 100
6, 19919, Note_on_c, 1, 65, 0
6, 19919, Note_on_c, 1, 60, 0
6, 19919, Note_on_c, 1, 57, 0
6, 19920, Note_on_c, 1, 57, 100
6, 19920, Note_on_c, 1, 60, 100
6, 19920, Note_on_c, 1, 64, 100
6, 20159, Note_on_c, 1, 64, 0
6, 20159, Note_on_c, 1, 60, 0
6, 20159, Note_on_c, 1, 57, 0
6, 20160, Note_on_c, 1, 58, 100
6, 20160, Note_on_c, 1, 62, 100
6, 20160, Note_on_c, 1, 65, 100
6, 20399, Note_on_c, 1, 65, 0
6, 20399, Note_on_c, 1, 62, 0
6, 20399, Note_on_c, 1, 58, 0
6, 20400, Note_on_c, 1, 60, 100
6, 20400, Note_on_c, 1, 64, 100
6, 20400, Note_on_c, 1, 67, 100
6, 20639, Note_on_c, 1, 67, 0
6, 20639, Note_on_c, 1, 64, 0
6, 20639, Note_on_c, 1, 60, 0
6, 20640, Note_on_c, 1, 57, 100
6, 20640, Note_on_c, 1, 60, 100
6, 20640, Note_on_c, 1, 65, 100
6, 20879, Note_on_c, 1, 65, 0
6, 20879, Note_on_c, 1, 60, 0
6, 20879, Note_on_c, 1, 57, 0
6, 20880, Note_on_c, 1, 62, 100
6, 20880, Note_on_c, 1, 58, 100
6, 20880, Note_on_c, 1, 65, 100
6, 21119, Note_on_c, 1, 65, 0
6, 21119, Note_on_c, 1, 58, 0
6, 21119, Note_on_c, 1, 62, 0
6, 21120, Note_on_c, 1, 60, 100
6, 21120, Note_on_c, 1, 64, 100
6, 21120, Note_on_c, 1, 67, 100
6, 21599, Note_on_c, 1, 67, 0
6, 21599, Note_on_c, 1, 64, 0
6, 21599, Note_on_c, 1, 60, 0
6, 21600, Note_on_c, 1, 55, 100
6, 21600, Note_on_c, 1, 58, 100
6, 21600, Note_on_c, 1, 62, 100
6, 22079, Note_on_c, 1, 62, 0
6, 22079, Note_on_c, 1, 58, 0
6, 22079, Note_on_c, 1, 55, 0
6, 22080, Note_on_c, 1, 53, 100
6, 22080, Note_on_c, 1, 58, 100
6, 22080, Note_on_c, 1, 62, 100
6, 22559, Note_on_c, 1, 62, 0
6, 22559, Note_on_c, 1, 58, 0
6, 22559, Note_on_c, 1, 53, 0
6, 22560, Note_on_c, 1, 57, 100
6, 22560, Note_on_c, 1, 53, 100
6, 22560, Note_on_c, 1, 62, 100
6, 23039, Note_on_c, 1, 62, 0
6, 23039, Note_on_c, 1, 53, 0
6, 23039, Note_on_c, 1, 57, 0
6, 23040, Note_on_c, 1, 55, 100
6, 23040, Note_on_c, 1, 58, 100
6, 23040, Note_on_c, 1, 62, 100
6, 23519, Note_on_c, 1, 62, 0
6, 23519, Note_on_c, 1, 58, 0
6, 23519, Note_on_c, 1, 55, 0
6, 23520, Note_on_c, 1, 53, 100
6, 23520, Note_on_c, 1, 57, 100
6, 23520, Note_on_c, 1, 62, 100
6, 23999, Note_on_c, 1, 62, 0
6, 23999, Note_on_c, 1, 57, 0
6, 23999, Note_on_c, 1, 53, 0
6, 24000, Note_on_c, 1, 55, 100
6, 24000, Note_on_c, 1, 58, 100
6, 24000, Note_on_c, 1, 62, 100
6, 24479, Note_on_c, 1, 62, 0
6, 24479, Note_on_c, 1, 58, 0
6, 24479, Note_on_c, 1, 55, 0
6, 24480, Note_on_c, 1, 55, 100
6, 24480, Note_on_c, 1, 58, 100
6, 24480, Note_on_c, 1, 62, 100
6, 24719, Note_on_c, 1, 62, 0
6, 24719, Note_on_c, 1, 58, 0
6, 24719, Note_on_c, 1, 55, 0
6, 24720, Note_on_c, 1, 53, 100
6, 24720, Note_on_c, 1, 58, 100
6, 24720, Note_on_c, 1, 62, 100
6, 24959, Note_on_c, 1, 62, 0
6, 24959, Note_on_c, 1, 58, 0
6, 24959, Note_on_c, 1, 53, 0
6, 24960, Note_on_c, 1, 52, 100
6, 24960, Note_on_c, 1, 55, 100
6, 24960, Note_on_c, 1, 60, 100
6, 25439, Note_on_c, 1, 60, 0
6, 25439, Note_on_c, 1, 55, 0
6, 25439, Note_on_c, 1, 52, 0
6, 25440, Note_on_c, 1, 55, 100
6, 25440, Note_on_c, 1, 58, 100
6, 25440, Note_on_c, 1, 62, 100
6, 25679, Note_on_c, 1, 62, 0
6, 25679, Note_on_c, 1, 58, 0
6, 25679, Note_on_c, 1, 55, 0
6, 25680, Note_on_c, 1, 53, 100
6, 25680, Note_on_c, 1, 58, 100
6, 25680, Note_on_c, 1, 62, 100
6, 25919, Note_on_c, 1, 62, 0
6, 25919, Note_on_c, 1, 58, 0
6, 25919, Note_on_c, 1, 53, 0
6, 25920, Note_on_c, 1, 64, 100
6, 25920, Note_on_c, 1, 60, 100
6, 25920, Note_on_c, 1, 67, 100
6, 26399, Note_on_c, 1, 67, 0
6, 26399, Note_on_c, 1, 60, 0
6, 26399, Note_on_c, 1, 64, 0
6, 27840, Note_on_c, 1, 60, 105
6, 27840, Note_on_c, 1, 65, 105
6, 27840, Note_on_c, 1, 69, 105
6, 28079, Note_on_c, 1, 69, 0
6, 28079, Note_on_c, 1, 65, 0
6, 28079, Note_on_c, 1, 60, 0
6, 28080, Note_on_c, 1, 57, 110
6, 28080, Note_on_c, 1, 60, 110
6, 28080, Note_on_c, 1, 64, 110
6, 28319, Note_on_c, 1, 64, 0
6, 28319, Note_on_c, 1, 60, 0
6, 28319, Note_on_c, 1, 57, 0
6, 28320, Note_on_c, 1, 58, 104
6, 28320, Note_on_c, 1, 62, 104
6, 28320, Note_on_c, 1, 65, 104
6, 28559, Note_on_c, 1, 65, 0
6, 28559, Note_on_c, 1, 62, 0
6, 28559, Note_on_c, 1, 58, 0
6, 28560, Note_on_c, 1, 60, 110
6, 28560, Note_on_c, 1, 64, 110
6, 28560, Note_on_c, 1, 67, 110
6, 28799, Note_on_c, 1, 67, 0
6, 28799, Note_on_c, 1, 64, 0
6, 28799, Note_on_c, 1, 60, 0
6, 28800, Note_on_c, 1, 60, 106
6, 28800, Note_on_c, 1, 65, 106
6, 28800, Note_on_c, 1, 69, 106
6, 29039, Note_on_c, 1, 69, 0
6, 29039, Note_on_c, 1, 65, 0
6, 29039, Note_on_c, 1, 60, 0
6, 29040, Note_on_c, 1, 58, 105
6, 29040, Note_on_c, 1, 62, 105
6, 29040, Note_on_c, 1, 65, 105
6, 29279, Note_on_c, 1, 65, 0
6, 29279, Note_on_c, 1, 62, 0
6, 29279, Note_on_c, 1, 58, 0
6, 29280, Note_on_c, 1, 60, 104
6, 29280, Note_on_c, 1, 64, 104
6, 29280, Note_on_c, 1, 67, 104
6, 29759, Note_on_c, 1, 67, 0
6, 29759, Note_on_c, 1, 64, 0
6, 29759, Note_on_c, 1, 60, 0
6, 29760, Note_on_c, 1, 58, 106
6, 29760, Note_on_c, 1, 62, 106
6, 29760, Note_on_c, 1, 67, 100
6, 30239, Note_on_c, 1, 67, 0
6, 30239, Note_on_c, 1, 62, 0
6, 30239, Note_on_c, 1, 58, 0
6, 30240, Note_on_c, 1, 58, 106
6, 30240, Note_on_c, 1, 62, 106
6, 30240, Note_on_c, 1, 65, 106
6, 30719, Note_on_c, 1, 65, 0
6, 30719, Note_on_c, 1, 62, 0
6, 30719, Note_on_c, 1, 58, 0
6, 30720, Note_on_c, 1, 60, 106
6, 30720, Note_on_c, 1, 65, 106
6, 30720, Note_on_c, 1, 69, 106
6, 30959, Note_on_c, 1, 69, 0
6, 30959, Note_on_c, 1, 65, 0
6, 30959, Note_on_c, 1, 60, 0
6, 30960, Note_on_c, 1, 58, 106
6, 30960, Note_on_c, 1, 62, 106
6, 30960, Note_on_c, 1, 65, 106
6, 31199, Note_on_c, 1, 65, 0
6, 31199, Note_on_c, 1, 62, 0
6, 31199, Note_on_c, 1, 58, 0
6, 31200, Note_on_c, 1, 60, 106
6, 31200, Note_on_c, 1, 64, 106
6, 31200, Note_on_c, 1, 67, 106
6, 31679, Note_on_c, 1, 67, 0
6, 31679, Note_on_c, 1, 64, 0
6, 31679, Note_on_c, 1, 60, 0
6, 31680, Note_on_c, 1, 60, 106
6, 31680, Note_on_c, 1, 65, 106
6, 31680, Note_on_c, 1, 69, 106
6, 31919, Note_on_c, 1, 69, 0
6, 31919, Note_on_c, 1, 65, 0
6, 31919, Note_on_c, 1, 60, 0
6, 31920, Note_on_c, 1, 57, 106
6, 31920, Note_on_c, 1, 60, 106
6, 31920, Note_on_c, 1, 64, 106
6, 32159, Note_on_c, 1, 64, 0
6, 32159, Note_on_c, 1, 60, 0
6, 32159, Note_on_c, 1, 57, 0
6, 32160, Note_on_c, 1, 58, 106
6, 32160, Note_on_c, 1, 62, 106
6, 32160, Note_on_c, 1, 65, 106
6, 32399, Note_on_c, 1, 65, 0
6, 32399, Note_on_c, 1, 62, 0
6, 32399, Note_on_c, 1, 58, 0
6, 32400, Note_on_c, 1, 67, 106
6, 32400, Note_on_c, 1, 64, 106
6, 32400, Note_on_c, 1, 60, 106
6, 32639, Note_on_c, 1, 60, 0
6, 32639, Note_on_c, 1, 64, 0
6, 32639, Note_on_c, 1, 67, 0
6, 32640, Note_on_c, 1, 69, 106
6, 32640, Note_on_c, 1, 60, 106
6, 32640, Note_on_c, 1, 65, 106
6, 32640, Control_c, 1, 7, 99
6, 32655, Control_c, 1, 7, 98
6, 32670, Control_c, 1, 7, 97
6, 32685, Control_c, 1, 7, 96
6, 32700, Control_c, 1, 7, 95
6, 32715, Control_c, 1, 7, 94
6, 32727, Control_c, 1, 7, 93
6, 32742, Control_c, 1, 7, 92
6, 32757, Control_c, 1, 7, 91
6, 32772, Control_c, 1, 7, 90
6, 32787, Control_c, 1, 7, 89
6, 32800, Control_c, 1, 7, 88
6, 32815, Control_c, 1, 7, 87
6, 32830, Control_c, 1, 7, 86
6, 32845, Control_c, 1, 7, 85
6, 32860, Control_c, 1, 7, 84
6, 32875, Control_c, 1, 7, 83
6, 32879, Note_on_c, 1, 65, 0
6, 32879, Note_on_c, 1, 60, 0
6, 32879, Note_on_c, 1, 69, 0
6, 32880, Note_on_c, 1, 58, 106
6, 32880, Note_on_c, 1, 62, 106
6, 32880, Note_on_c, 1, 65, 106
6, 32887, Control_c, 1, 7, 82
6, 32902, Control_c, 1, 7, 81
6, 32917, Control_c, 1, 7, 80
6, 32932, Control_c, 1, 7, 79
6, 32947, Control_c, 1, 7, 78
6, 32960, Control_c, 1, 7, 77
6, 32975, Control_c, 1, 7, 76
6, 32990, Control_c, 1, 7, 75
6, 33005, Control_c, 1, 7, 74
6, 33020, Control_c, 1, 7, 73
6, 33035, Control_c, 1, 7, 72
6, 33047, Control_c, 1, 7, 71
6, 33062, Control_c, 1, 7, 70
6, 33077, Control_c, 1, 7, 69
6, 33092, Control_c, 1, 7, 68
6, 33107, Control_c, 1, 7, 67
6, 33119, Note_on_c, 1, 65, 0
6, 33119, Note_on_c, 1, 62, 0
6, 33119, Note_on_c, 1, 58, 0
6, 33120, Note_on_c, 1, 60, 106
6, 33120, Note_on_c, 1, 64, 106
6, 33120, Note_on_c, 1, 67, 106
6, 33120, Control_c, 1, 7, 66
6, 33135, Control_c, 1, 7, 65
6, 33150, Control_c, 1, 7, 64
6, 33165, Control_c, 1, 7, 63
6, 33180, Control_c, 1, 7, 62
6, 33195, Control_c, 1, 7, 61
6, 33207, Control_c, 1, 7, 60
6, 33222, Control_c, 1, 7, 59
6, 33237, Control_c, 1, 7, 58
6, 33252, Control_c, 1, 7, 57
6, 33267, Control_c, 1, 7, 56
6, 33280, Control_c, 1, 7, 55
6, 33295, Control_c, 1, 7, 54
6, 33310, Control_c, 1, 7, 53
6, 33325, Control_c, 1, 7, 52
6, 33340, Control_c, 1, 7, 51
6, 33355, Control_c, 1, 7, 50
6, 33367, Control_c, 1, 7, 49
6, 33382, Control_c, 1, 7, 48
6, 33397, Control_c, 1, 7, 47
6, 33412, Control_c, 1, 7, 46
6, 33427, Control_c, 1, 7, 45
6, 33440, Control_c, 1, 7, 44
6, 33455, Control_c, 1, 7, 43
6, 33470, Control_c, 1, 7, 42
6, 33485, Control_c, 1, 7, 41
6, 33500, Control_c, 1, 7, 40
6, 33515, Control_c, 1, 7, 39
6, 33527, Control_c, 1, 7, 38
6, 33542, Control_c, 1, 7, 37
6, 33557, Control_c, 1, 7, 36
6, 33572, Control_c, 1, 7, 35
6, 33587, Control_c, 1, 7, 34
6, 33599, Note_on_c, 1, 67, 0
6, 33599, Note_on_c, 1, 64, 0
6, 33599, Note_on_c, 1, 60, 0
6, 33600, Note_on_c, 1, 55, 106
6, 33600, Note_on_c, 1, 58, 106
6, 33600, Note_on_c, 1, 62, 106
6, 33600, Control_c, 1, 7, 33
6, 33615, Control_c, 1, 7, 32
6, 33630, Control_c, 1, 7, 31
6, 33645, Control_c, 1, 7, 30
6, 33660, Control_c, 1, 7, 29
6, 33675, Control_c, 1, 7, 28
6, 33687, Control_c, 1, 7, 27
6, 33702, Control_c, 1, 7, 26
6, 33717, Control_c, 1, 7, 25
6, 33732, Control_c, 1, 7, 24
6, 33747, Control_c, 1, 7, 23
6, 33760, Control_c, 1, 7, 22
6, 33775, Control_c, 1, 7, 21
6, 33790, Control_c, 1, 7, 20
6, 33805, Control_c, 1, 7, 19
6, 33820, Control_c, 1, 7, 18
6, 33835, Control_c, 1, 7, 17
6, 33847, Control_c, 1, 7, 16
6, 33862, Control_c, 1, 7, 15
6, 33877, Control_c, 1, 7, 14
6, 33892, Control_c, 1, 7, 13
6, 33907, Control_c, 1, 7, 12
6, 33920, Control_c, 1, 7, 11
6, 33935, Control_c, 1, 7, 10
6, 33950, Control_c, 1, 7, 9
6, 33965, Control_c, 1, 7, 8
6, 33980, Control_c, 1, 7, 7
6, 33995, Control_c, 1, 7, 6
6, 34007, Control_c, 1, 7, 5
6, 34022, Control_c, 1, 7, 4
6, 34037, Control_c, 1, 7, 3
6, 34052, Control_c, 1, 7, 2
6, 34067, Control_c, 1, 7, 1
6, 34079, Note_on_c, 1, 62, 0
6, 34079, Note_on_c, 1, 58, 0
6, 34079, Note_on_c, 1, 55, 0
6, 34080, Control_c, 1, 7, 0
6, 34080, End_track
7, 0, Start_track
7, 0, MIDI_port, 0
7, 0, Title_t, "Guitar"
7, 0, Program_c, 2, 26
7, 0, Control_c, 2, 7, 90
7, 0, Control_c, 2, 94, 100
7, 0, Control_c, 2, 93, 70
7, 0, Control_c, 2, 91, 100
7, 480, Control_c, 2, 1, 0
7, 1440, Pitch_bend_c, 2, 8192
7, 1560, Note_on_c, 2, 67, 100
7, 1619, Pitch_bend_c, 2, 8320
7, 1621, Pitch_bend_c, 2, 8448
7, 1623, Pitch_bend_c, 2, 8576
7, 1625, Pitch_bend_c, 2, 8704
7, 1627, Pitch_bend_c, 2, 8832
7, 1629, Pitch_bend_c, 2, 8960
7, 1631, Pitch_bend_c, 2, 9088
7, 1633, Pitch_bend_c, 2, 9216
7, 1635, Pitch_bend_c, 2, 9344
7, 1637, Pitch_bend_c, 2, 9472
7, 1639, Pitch_bend_c, 2, 9600
7, 1641, Pitch_bend_c, 2, 9728
7, 1643, Pitch_bend_c, 2, 9856
7, 1645, Pitch_bend_c, 2, 9984
7, 1647, Pitch_bend_c, 2, 10112
7, 1649, Pitch_bend_c, 2, 10368
7, 1651, Pitch_bend_c, 2, 10496
7, 1653, Pitch_bend_c, 2, 10624
7, 1655, Pitch_bend_c, 2, 10752
7, 1657, Pitch_bend_c, 2, 10880
7, 1659, Pitch_bend_c, 2, 11008
7, 1661, Pitch_bend_c, 2, 11136
7, 1663, Pitch_bend_c, 2, 11264
7, 1665, Pitch_bend_c, 2, 11392
7, 1667, Pitch_bend_c, 2, 11520
7, 1669, Pitch_bend_c, 2, 11648
7, 1671, Pitch_bend_c, 2, 11776
7, 1673, Pitch_bend_c, 2, 11904
7, 1675, Pitch_bend_c, 2, 12032
7, 1677, Pitch_bend_c, 2, 12160
7, 1679, Pitch_bend_c, 2, 12416
7, 1681, Pitch_bend_c, 2, 12544
7, 1683, Pitch_bend_c, 2, 12672
7, 1685, Pitch_bend_c, 2, 12800
7, 1687, Pitch_bend_c, 2, 12928
7, 1689, Pitch_bend_c, 2, 13056
7, 1691, Pitch_bend_c, 2, 13184
7, 1693, Pitch_bend_c, 2, 13312
7, 1695, Pitch_bend_c, 2, 13440
7, 1697, Pitch_bend_c, 2, 13568
7, 1699, Pitch_bend_c, 2, 13696
7, 1701, Pitch_bend_c, 2, 13824
7, 1703, Pitch_bend_c, 2, 13952
7, 1705, Pitch_bend_c, 2, 14080
7, 1707, Pitch_bend_c, 2, 14208
7, 1709, Pitch_bend_c, 2, 14464
7, 1711, Pitch_bend_c, 2, 14592
7, 1713, Pitch_bend_c, 2, 14720
7, 1715, Pitch_bend_c, 2, 14848
7, 1717, Pitch_bend_c, 2, 14976
7, 1719, Pitch_bend_c, 2, 15104
7, 1721, Pitch_bend_c, 2, 15232
7, 1723, Pitch_bend_c, 2, 15360
7, 1725, Pitch_bend_c, 2, 15488
7, 1727, Pitch_bend_c, 2, 15616
7, 1729, Pitch_bend_c, 2, 15744
7, 1731, Pitch_bend_c, 2, 15872
7, 1733, Pitch_bend_c, 2, 16000
7, 1735, Pitch_bend_c, 2, 16128
7, 1737, Pitch_bend_c, 2, 16383
7, 1919, Note_on_c, 2, 67, 0
7, 1920, Pitch_bend_c, 2, 8192
7, 2160, Note_on_c, 2, 81, 88
7, 2160, Pitch_bend_c, 2, 4224
7, 2162, Pitch_bend_c, 2, 4608
7, 2164, Pitch_bend_c, 2, 4992
7, 2166, Pitch_bend_c, 2, 5376
7, 2168, Pitch_bend_c, 2, 5760
7, 2170, Pitch_bend_c, 2, 6144
7, 2172, Pitch_bend_c, 2, 6528
7, 2174, Pitch_bend_c, 2, 6912
7, 2176, Pitch_bend_c, 2, 7296
7, 2178, Pitch_bend_c, 2, 7680
7, 2180, Pitch_bend_c, 2, 8192
7, 2218, Pitch_bend_c, 2, 4224
7, 2219, Note_on_c, 2, 81, 0
7, 2220, Note_on_c, 2, 81, 88
7, 2220, Pitch_bend_c, 2, 4480
7, 2222, Pitch_bend_c, 2, 4736
7, 2224, Pitch_bend_c, 2, 4992
7, 2226, Pitch_bend_c, 2, 5248
7, 2228, Pitch_bend_c, 2, 5504
7, 2230, Pitch_bend_c, 2, 5760
7, 2232, Pitch_bend_c, 2, 6016
7, 2234, Pitch_bend_c, 2, 6272
7, 2236, Pitch_bend_c, 2, 6528
7, 2238, Pitch_bend_c, 2, 6784
7, 2240, Pitch_bend_c, 2, 7040
7, 2242, Pitch_bend_c, 2, 7296
7, 2244, Pitch_bend_c, 2, 7552
7, 2246, Pitch_bend_c, 2, 7808
7, 2248, Pitch_bend_c, 2, 8192
7, 2279, Note_on_c, 2, 81, 0
7, 2280, Note_on_c, 2, 81, 88
7, 2309, Note_on_c, 2, 81, 0
7, 2310, Note_on_c, 2, 79, 63
7, 2339, Note_on_c, 2, 79, 0
7, 2340, Note_on_c, 2, 77, 88
7, 2399, Note_on_c, 2, 77, 0
7, 2400, Note_on_c, 2, 77, 74
7, 2400, Pitch_bend_c, 2, 4224
7, 2400, Control_c, 2, 1, 1
7, 2402, Pitch_bend_c, 2, 4352
7, 2402, Control_c, 2, 1, 5
7, 2404, Pitch_bend_c, 2, 4608
7, 2404, Control_c, 2, 1, 10
7, 2406, Pitch_bend_c, 2, 4864
7, 2406, Control_c, 2, 1, 15
7, 2408, Pitch_bend_c, 2, 5120
7, 2408, Control_c, 2, 1, 20
7, 2410, Pitch_bend_c, 2, 5376
7, 2410, Control_c, 2, 1, 25
7, 2412, Pitch_bend_c, 2, 5504
7, 2412, Control_c, 2, 1, 30
7, 2414, Pitch_bend_c, 2, 5760
7, 2414, Control_c, 2, 1, 34
7, 2416, Pitch_bend_c, 2, 6016
7, 2416, Control_c, 2, 1, 39
7, 2418, Pitch_bend_c, 2, 6272
7, 2418, Control_c, 2, 1, 44
7, 2420, Pitch_bend_c, 2, 6528
7, 2420, Control_c, 2, 1, 49
7, 2422, Pitch_bend_c, 2, 6784
7, 2422, Control_c, 2, 1, 54
7, 2424, Pitch_bend_c, 2, 6912
7, 2424, Control_c, 2, 1, 59
7, 2426, Pitch_bend_c, 2, 7168
7, 2426, Control_c, 2, 1, 64
7, 2428, Pitch_bend_c, 2, 7424
7, 2428, Control_c, 2, 1, 68
7, 2430, Pitch_bend_c, 2, 7680
7, 2430, Control_c, 2, 1, 73
7, 2432, Pitch_bend_c, 2, 7936
7, 2432, Control_c, 2, 1, 78
7, 2434, Pitch_bend_c, 2, 8192
7, 2434, Control_c, 2, 1, 83
7, 2436, Control_c, 2, 1, 88
7, 2438, Control_c, 2, 1, 93
7, 2440, Control_c, 2, 1, 97
7, 2442, Control_c, 2, 1, 102
7, 2444, Control_c, 2, 1, 107
7, 2446, Control_c, 2, 1, 112
7, 2448, Control_c, 2, 1, 117
7, 2450, Control_c, 2, 1, 122
7, 2452, Control_c, 2, 1, 127
7, 2639, Note_on_c, 2, 77, 0
7, 3120, Control_c, 2, 1, 0
7, 4320, Note_on_c, 2, 53, 100
7, 4339, Note_on_c, 2, 53, 0
7, 4340, Note_on_c, 2, 55, 100
7, 4359, Note_on_c, 2, 55, 0
7, 4360, Note_on_c, 2, 52, 100
7, 4379, Note_on_c, 2, 52, 0
7, 4380, Note_on_c, 2, 50, 100
7, 4659, Note_on_c, 2, 50, 0
7, 6120, Note_on_c, 2, 60, 100
7, 6162, Pitch_bend_c, 2, 8192
7, 6164, Pitch_bend_c, 2, 8320
7, 6166, Pitch_bend_c, 2, 8576
7, 6168, Pitch_bend_c, 2, 8704
7, 6170, Pitch_bend_c, 2, 8960
7, 6172, Pitch_bend_c, 2, 9216
7, 6174, Pitch_bend_c, 2, 9344
7, 6176, Pitch_bend_c, 2, 9600
7, 6178, Pitch_bend_c, 2, 9856
7, 6180, Pitch_bend_c, 2, 9984
7, 6182, Pitch_bend_c, 2, 10240
7, 6184, Pitch_bend_c, 2, 10496
7, 6186, Pitch_bend_c, 2, 10624
7, 6188, Pitch_bend_c, 2, 10880
7, 6190, Pitch_bend_c, 2, 11008
7, 6192, Pitch_bend_c, 2, 11264
7, 6194, Pitch_bend_c, 2, 11520
7, 6196, Pitch_bend_c, 2, 11648
7, 6198, Pitch_bend_c, 2, 11904
7, 6200, Pitch_bend_c, 2, 12160
7, 6202, Pitch_bend_c, 2, 12288
7, 6204, Pitch_bend_c, 2, 12544
7, 6206, Pitch_bend_c, 2, 12800
7, 6208, Pitch_bend_c, 2, 12928
7, 6210, Pitch_bend_c, 2, 13184
7, 6212, Pitch_bend_c, 2, 13440
7, 6214, Pitch_bend_c, 2, 13568
7, 6216, Pitch_bend_c, 2, 13824
7, 6218, Pitch_bend_c, 2, 13952
7, 6220, Pitch_bend_c, 2, 14208
7, 6222, Pitch_bend_c, 2, 14464
7, 6224, Pitch_bend_c, 2, 14592
7, 6226, Pitch_bend_c, 2, 14848
7, 6228, Pitch_bend_c, 2, 15104
7, 6230, Pitch_bend_c, 2, 15232
7, 6232, Pitch_bend_c, 2, 15488
7, 6234, Pitch_bend_c, 2, 15744
7, 6236, Pitch_bend_c, 2, 15872
7, 6238, Pitch_bend_c, 2, 16128
7, 6240, Pitch_bend_c, 2, 16383
7, 6599, Note_on_c, 2, 60, 0
7, 6720, Pitch_bend_c, 2, 8192
7, 7080, Note_on_c, 2, 60, 100
7, 7109, Note_on_c, 2, 60, 0
7, 7110, Note_on_c, 2, 57, 100
7, 7139, Note_on_c, 2, 57, 0
7, 7140, Note_on_c, 2, 60, 100
7, 7174, Pitch_bend_c, 2, 8320
7, 7176, Pitch_bend_c, 2, 8576
7, 7178, Pitch_bend_c, 2, 8832
7, 7180, Pitch_bend_c, 2, 9216
7, 7182, Pitch_bend_c, 2, 9472
7, 7184, Pitch_bend_c, 2, 9728
7, 7186, Pitch_bend_c, 2, 10112
7, 7188, Pitch_bend_c, 2, 10368
7, 7190, Pitch_bend_c, 2, 10624
7, 7192, Pitch_bend_c, 2, 11008
7, 7194, Pitch_bend_c, 2, 11264
7, 7196, Pitch_bend_c, 2, 11520
7, 7198, Pitch_bend_c, 2, 11904
7, 7200, Pitch_bend_c, 2, 12160
7, 7202, Pitch_bend_c, 2, 12416
7, 7204, Pitch_bend_c, 2, 12800
7, 7206, Pitch_bend_c, 2, 13056
7, 7208, Pitch_bend_c, 2, 13312
7, 7210, Pitch_bend_c, 2, 13696
7, 7212, Pitch_bend_c, 2, 13952
7, 7214, Pitch_bend_c, 2, 14208
7, 7216, Pitch_bend_c, 2, 14592
7, 7218, Pitch_bend_c, 2, 14848
7, 7220, Pitch_bend_c, 2, 15104
7, 7222, Pitch_bend_c, 2, 15488
7, 7224, Pitch_bend_c, 2, 15744
7, 7226, Pitch_bend_c, 2, 16000
7, 7228, Pitch_bend_c, 2, 16383
7, 7559, Note_on_c, 2, 60, 0
7, 15358, Pitch_bend_c, 2, 8192
7, 15720, Note_on_c, 2, 69, 113
7, 15786, Pitch_bend_c, 2, 8192
7, 15788, Pitch_bend_c, 2, 8064
7, 15790, Pitch_bend_c, 2, 7936
7, 15792, Pitch_bend_c, 2, 7808
7, 15794, Pitch_bend_c, 2, 7680
7, 15796, Pitch_bend_c, 2, 7552
7, 15798, Pitch_bend_c, 2, 7296
7, 15800, Pitch_bend_c, 2, 7168
7, 15802, Pitch_bend_c, 2, 7040
7, 15804, Pitch_bend_c, 2, 6912
7, 15806, Pitch_bend_c, 2, 6784
7, 15808, Pitch_bend_c, 2, 6528
7, 15810, Pitch_bend_c, 2, 6400
7, 15812, Pitch_bend_c, 2, 6272
7, 15814, Pitch_bend_c, 2, 6144
7, 15816, Pitch_bend_c, 2, 6016
7, 15818, Pitch_bend_c, 2, 5760
7, 15820, Pitch_bend_c, 2, 5632
7, 15822, Pitch_bend_c, 2, 5504
7, 15824, Pitch_bend_c, 2, 5376
7, 15826, Pitch_bend_c, 2, 5248
7, 15828, Pitch_bend_c, 2, 5120
7, 15830, Pitch_bend_c, 2, 4864
7, 15832, Pitch_bend_c, 2, 4736
7, 15834, Pitch_bend_c, 2, 4608
7, 15836, Pitch_bend_c, 2, 4480
7, 15838, Pitch_bend_c, 2, 4352
7, 15840, Pitch_bend_c, 2, 4096
7, 15842, Pitch_bend_c, 2, 3968
7, 15844, Pitch_bend_c, 2, 3840
7, 15846, Pitch_bend_c, 2, 3712
7, 15848, Pitch_bend_c, 2, 3584
7, 15850, Pitch_bend_c, 2, 3328
7, 15852, Pitch_bend_c, 2, 3200
7, 15854, Pitch_bend_c, 2, 3072
7, 15856, Pitch_bend_c, 2, 2944
7, 15858, Pitch_bend_c, 2, 2816
7, 15860, Pitch_bend_c, 2, 2688
7, 15862, Pitch_bend_c, 2, 2432
7, 15864, Pitch_bend_c, 2, 2304
7, 15866, Pitch_bend_c, 2, 2176
7, 15868, Pitch_bend_c, 2, 2048
7, 15870, Pitch_bend_c, 2, 1920
7, 15872, Pitch_bend_c, 2, 1664
7, 15874, Pitch_bend_c, 2, 1536
7, 15876, Pitch_bend_c, 2, 1408
7, 15878, Pitch_bend_c, 2, 1280
7, 15880, Pitch_bend_c, 2, 1152
7, 15882, Pitch_bend_c, 2, 896
7, 15884, Pitch_bend_c, 2, 768
7, 15886, Pitch_bend_c, 2, 640
7, 15888, Pitch_bend_c, 2, 512
7, 15890, Pitch_bend_c, 2, 384
7, 15892, Pitch_bend_c, 2, 128
7, 16079, Note_on_c, 2, 69, 0
7, 16080, Pitch_bend_c, 2, 8192
7, 16080, End_track
8, 0, Start_track
8, 0, MIDI_port, 0
8, 0, Title_t, "Sqaure"
8, 0, Program_c, 3, 80
8, 0, Control_c, 3, 7, 90
8, 0, Control_c, 3, 91, 70
8, 0, Control_c, 3, 93, 50
8, 0, Control_c, 3, 94, 0
8, 3240, Note_on_c, 3, 72, 81
8, 3269, Note_on_c, 3, 72, 0
8, 3270, Note_on_c, 3, 74, 78
8, 3299, Note_on_c, 3, 74, 0
8, 3300, Note_on_c, 3, 77, 78
8, 3359, Note_on_c, 3, 77, 0
8, 3360, Note_on_c, 3, 76, 75
8, 3360, Note_on_c, 3, 79, 75
8, 3360, Pitch_bend_c, 3, 128
8, 3362, Pitch_bend_c, 3, 256
8, 3364, Pitch_bend_c, 3, 512
8, 3366, Pitch_bend_c, 3, 768
8, 3368, Pitch_bend_c, 3, 1024
8, 3370, Pitch_bend_c, 3, 1280
8, 3372, Pitch_bend_c, 3, 1536
8, 3374, Pitch_bend_c, 3, 1664
8, 3376, Pitch_bend_c, 3, 1920
8, 3378, Pitch_bend_c, 3, 2176
8, 3380, Pitch_bend_c, 3, 2432
8, 3382, Pitch_bend_c, 3, 2688
8, 3384, Pitch_bend_c, 3, 2944
8, 3386, Pitch_bend_c, 3, 3200
8, 3388, Pitch_bend_c, 3, 3328
8, 3390, Pitch_bend_c, 3, 3584
8, 3392, Pitch_bend_c, 3, 3840
8, 3394, Pitch_bend_c, 3, 4096
8, 3396, Pitch_bend_c, 3, 4352
8, 3398, Pitch_bend_c, 3, 4608
8, 3400, Pitch_bend_c, 3, 4864
8, 3402, Pitch_bend_c, 3, 4992
8, 3404, Pitch_bend_c, 3, 5248
8, 3406, Pitch_bend_c, 3, 5504
8, 3408, Pitch_bend_c, 3, 5760
8, 3410, Pitch_bend_c, 3, 6016
8, 3412, Pitch_bend_c, 3, 6272
8, 3414, Pitch_bend_c, 3, 6528
8, 3416, Pitch_bend_c, 3, 6656
8, 3418, Pitch_bend_c, 3, 6912
8, 3420, Pitch_bend_c, 3, 7168
8, 3422, Pitch_bend_c, 3, 7424
8, 3424, Pitch_bend_c, 3, 7680
8, 3426, Pitch_bend_c, 3, 7936
8, 3428, Pitch_bend_c, 3, 8192
8, 3599, Note_on_c, 3, 79, 0
8, 3599, Note_on_c, 3, 76, 0
8, 5160, Note_on_c, 3, 72, 81
8, 5189, Note_on_c, 3, 72, 0
8, 5190, Note_on_c, 3, 74, 78
8, 5219, Note_on_c, 3, 74, 0
8, 5220, Note_on_c, 3, 77, 78
8, 5279, Note_on_c, 3, 77, 0
8, 5280, Note_on_c, 3, 76, 75
8, 5280, Note_on_c, 3, 79, 75
8, 5280, Pitch_bend_c, 3, 128
8, 5282, Pitch_bend_c, 3, 256
8, 5284, Pitch_bend_c, 3, 512
8, 5286, Pitch_bend_c, 3, 768
8, 5288, Pitch_bend_c, 3, 1024
8, 5290, Pitch_bend_c, 3, 1280
8, 5292, Pitch_bend_c, 3, 1536
8, 5294, Pitch_bend_c, 3, 1664
8, 5296, Pitch_bend_c, 3, 1920
8, 5298, Pitch_bend_c, 3, 2176
8, 5300, Pitch_bend_c, 3, 2432
8, 5302, Pitch_bend_c, 3, 2688
8, 5304, Pitch_bend_c, 3, 2944
8, 5306, Pitch_bend_c, 3, 3200
8, 5308, Pitch_bend_c, 3, 3328
8, 5310, Pitch_bend_c, 3, 3584
8, 5312, Pitch_bend_c, 3, 3840
8, 5314, Pitch_bend_c, 3, 4096
8, 5316, Pitch_bend_c, 3, 4352
8, 5318, Pitch_bend_c, 3, 4608
8, 5320, Pitch_bend_c, 3, 4864
8, 5322, Pitch_bend_c, 3, 4992
8, 5324, Pitch_bend_c, 3, 5248
8, 5326, Pitch_bend_c, 3, 5504
8, 5328, Pitch_bend_c, 3, 5760
8, 5330, Pitch_bend_c, 3, 6016
8, 5332, Pitch_bend_c, 3, 6272
8, 5334, Pitch_bend_c, 3, 6528
8, 5336, Pitch_bend_c, 3, 6656
8, 5338, Pitch_bend_c, 3, 6912
8, 5340, Pitch_bend_c, 3, 7168
8, 5342, Pitch_bend_c, 3, 7424
8, 5344, Pitch_bend_c, 3, 7680
8, 5346, Pitch_bend_c, 3, 7936
8, 5348, Pitch_bend_c, 3, 8192
8, 5519, Note_on_c, 3, 79, 0
8, 5519, Note_on_c, 3, 76, 0
8, 5519, End_track
9, 0, Start_track
9, 0, MIDI_port, 0
9, 0, Title_t, "Bass"
9, 0, Program_c, 4, 35
9, 0, Control_c, 4, 7, 100
9, 0, Control_c, 4, 10, 64
9, 0, Control_c, 4, 91, 40
9, 0, Control_c, 4, 93, 10
9, 7860, Note_on_c, 4, 36, 100
9, 7919, Note_on_c, 4, 36, 0
9, 7920, Note_on_c, 4, 38, 100
9, 8039, Note_on_c, 4, 38, 0
9, 8040, Note_on_c, 4, 40, 100
9, 8159, Note_on_c, 4, 40, 0
9, 8160, Note_on_c, 4, 41, 100
9, 8339, Note_on_c, 4, 41, 0
9, 8340, Note_on_c, 4, 33, 100
9, 8399, Note_on_c, 4, 33, 0
9, 8400, Note_on_c, 4, 34, 100
9, 8639, Note_on_c, 4, 34, 0
9, 8640, Note_on_c, 4, 36, 100
9, 8819, Note_on_c, 4, 36, 0
9, 8820, Note_on_c, 4, 36, 100
9, 8879, Note_on_c, 4, 36, 0
9, 8880, Note_on_c, 4, 38, 100
9, 8999, Note_on_c, 4, 38, 0
9, 9000, Note_on_c, 4, 40, 100
9, 9119, Note_on_c, 4, 40, 0
9, 9120, Note_on_c, 4, 41, 100
9, 9299, Note_on_c, 4, 41, 0
9, 9300, Note_on_c, 4, 41, 100
9, 9359, Note_on_c, 4, 41, 0
9, 9360, Note_on_c, 4, 33, 100
9, 9599, Note_on_c, 4, 33, 0
9, 9600, Note_on_c, 4, 34, 100
9, 9779, Note_on_c, 4, 34, 0
9, 9780, Note_on_c, 4, 34, 100
9, 9839, Note_on_c, 4, 34, 0
9, 9840, Note_on_c, 4, 36, 100
9, 10079, Note_on_c, 4, 36, 0
9, 10080, Note_on_c, 4, 41, 100
9, 10259, Note_on_c, 4, 41, 0
9, 10260, Note_on_c, 4, 33, 100
9, 10319, Note_on_c, 4, 33, 0
9, 10320, Note_on_c, 4, 34, 100
9, 10439, Note_on_c, 4, 34, 0
9, 10440, Note_on_c, 4, 38, 100
9, 10559, Note_on_c, 4, 38, 0
9, 10560, Note_on_c, 4, 36, 100
9, 10739, Note_on_c, 4, 36, 0
9, 10740, Note_on_c, 4, 36, 100
9, 10799, Note_on_c, 4, 36, 0
9, 10800, Note_on_c, 4, 36, 100
9, 11039, Note_on_c, 4, 36, 0
9, 11040, Note_on_c, 4, 31, 100
9, 11219, Note_on_c, 4, 31, 0
9, 11220, Note_on_c, 4, 31, 100
9, 11279, Note_on_c, 4, 31, 0
9, 11280, Note_on_c, 4, 31, 100
9, 11399, Note_on_c, 4, 31, 0
9, 11400, Note_on_c, 4, 33, 100
9, 11519, Note_on_c, 4, 33, 0
9, 11520, Note_on_c, 4, 34, 100
9, 11699, Note_on_c, 4, 34, 0
9, 11700, Note_on_c, 4, 34, 100
9, 11759, Note_on_c, 4, 34, 0
9, 11760, Note_on_c, 4, 34, 100
9, 11879, Note_on_c, 4, 34, 0
9, 12000, Note_on_c, 4, 41, 100
9, 12179, Note_on_c, 4, 41, 0
9, 12180, Note_on_c, 4, 41, 100
9, 12209, Note_on_c, 4, 41, 0
9, 12210, Note_on_c, 4, 36, 100
9, 12239, Note_on_c, 4, 36, 0
9, 12240, Note_on_c, 4, 41, 100
9, 12479, Note_on_c, 4, 41, 0
9, 12480, Note_on_c, 4, 43, 100
9, 12719, Note_on_c, 4, 43, 0
9, 12720, Note_on_c, 4, 43, 100
9, 12749, Note_on_c, 4, 43, 0
9, 12750, Note_on_c, 4, 45, 100
9, 12779, Note_on_c, 4, 45, 0
9, 12780, Note_on_c, 4, 43, 100
9, 12809, Note_on_c, 4, 43, 0
9, 12810, Note_on_c, 4, 41, 100
9, 12839, Note_on_c, 4, 41, 0
9, 12840, Note_on_c, 4, 38, 100
9, 12869, Note_on_c, 4, 38, 0
9, 12870, Note_on_c, 4, 36, 100
9, 12899, Note_on_c, 4, 36, 0
9, 12900, Note_on_c, 4, 34, 100
9, 12929, Note_on_c, 4, 34, 0
9, 12930, Note_on_c, 4, 33, 100
9, 12959, Note_on_c, 4, 33, 0
9, 12960, Note_on_c, 4, 38, 108
9, 13169, Note_on_c, 4, 38, 0
9, 13170, Note_on_c, 4, 33, 108
9, 13199, Note_on_c, 4, 33, 0
9, 13200, Note_on_c, 4, 38, 104
9, 13229, Note_on_c, 4, 38, 0
9, 13260, Note_on_c, 4, 38, 107
9, 13379, Note_on_c, 4, 38, 0
9, 13380, Note_on_c, 4, 33, 107
9, 13439, Note_on_c, 4, 33, 0
9, 13440, Note_on_c, 4, 31, 107
9, 13619, Note_on_c, 4, 31, 0
9, 13620, Note_on_c, 4, 31, 107
9, 13679, Note_on_c, 4, 31, 0
9, 13680, Note_on_c, 4, 31, 107
9, 13859, Note_on_c, 4, 31, 0
9, 13860, Note_on_c, 4, 38, 107
9, 13919, Note_on_c, 4, 38, 0
9, 13920, Note_on_c, 4, 36, 107
9, 14099, Note_on_c, 4, 36, 0
9, 14100, Note_on_c, 4, 36, 107
9, 14129, Note_on_c, 4, 36, 0
9, 14130, Note_on_c, 4, 31, 107
9, 14159, Note_on_c, 4, 31, 0
9, 14160, Note_on_c, 4, 36, 107
9, 14219, Note_on_c, 4, 36, 0
9, 14220, Note_on_c, 4, 36, 107
9, 14339, Note_on_c, 4, 36, 0
9, 14340, Note_on_c, 4, 36, 107
9, 14369, Note_on_c, 4, 36, 0
9, 14370, Note_on_c, 4, 34, 107
9, 14399, Note_on_c, 4, 34, 0
9, 14400, Note_on_c, 4, 33, 107
9, 14579, Note_on_c, 4, 33, 0
9, 14580, Note_on_c, 4, 33, 107
9, 14639, Note_on_c, 4, 33, 0
9, 14640, Note_on_c, 4, 34, 107
9, 14879, Note_on_c, 4, 34, 0
9, 14880, Note_on_c, 4, 38, 107
9, 15059, Note_on_c, 4, 38, 0
9, 15090, Note_on_c, 4, 33, 107
9, 15119, Note_on_c, 4, 33, 0
9, 15120, Note_on_c, 4, 38, 107
9, 15179, Note_on_c, 4, 38, 0
9, 15180, Note_on_c, 4, 38, 107
9, 15299, Note_on_c, 4, 38, 0
9, 15300, Note_on_c, 4, 33, 107
9, 15359, Note_on_c, 4, 33, 0
9, 15360, Note_on_c, 4, 31, 107
9, 15539, Note_on_c, 4, 31, 0
9, 15540, Note_on_c, 4, 31, 107
9, 15599, Note_on_c, 4, 31, 0
9, 15600, Note_on_c, 4, 31, 107
9, 15779, Note_on_c, 4, 31, 0
9, 15780, Note_on_c, 4, 31, 107
9, 15809, Note_on_c, 4, 31, 0
9, 15810, Note_on_c, 4, 38, 107
9, 15839, Note_on_c, 4, 38, 0
9, 15840, Note_on_c, 4, 36, 107
9, 16019, Note_on_c, 4, 36, 0
9, 16050, Note_on_c, 4, 31, 107
9, 16079, Note_on_c, 4, 31, 0
9, 16080, Note_on_c, 4, 36, 107
9, 16139, Note_on_c, 4, 36, 0
9, 16140, Note_on_c, 4, 36, 107
9, 16259, Note_on_c, 4, 36, 0
9, 16260, Note_on_c, 4, 36, 107
9, 16289, Note_on_c, 4, 36, 0
9, 16290, Note_on_c, 4, 34, 107
9, 16319, Note_on_c, 4, 34, 0
9, 16320, Note_on_c, 4, 33, 107
9, 16499, Note_on_c, 4, 33, 0
9, 16500, Note_on_c, 4, 33, 107
9, 16559, Note_on_c, 4, 33, 0
9, 16560, Note_on_c, 4, 34, 107
9, 16739, Note_on_c, 4, 34, 0
9, 16740, Note_on_c, 4, 34, 107
9, 16769, Note_on_c, 4, 34, 0
9, 16770, Note_on_c, 4, 33, 107
9, 16799, Note_on_c, 4, 33, 0
9, 16800, Note_on_c, 4, 31, 107
9, 16979, Note_on_c, 4, 31, 0
9, 16980, Note_on_c, 4, 31, 107
9, 17039, Note_on_c, 4, 31, 0
9, 17040, Note_on_c, 4, 31, 107
9, 17159, Note_on_c, 4, 31, 0
9, 17160, Note_on_c, 4, 38, 107
9, 17279, Note_on_c, 4, 38, 0
9, 17280, Note_on_c, 4, 36, 107
9, 17459, Note_on_c, 4, 36, 0
9, 17460, Note_on_c, 4, 36, 107
9, 17519, Note_on_c, 4, 36, 0
9, 17520, Note_on_c, 4, 36, 107
9, 17639, Note_on_c, 4, 36, 0
9, 17700, Note_on_c, 4, 40, 107
9, 17729, Note_on_c, 4, 40, 0
9, 17730, Note_on_c, 4, 41, 107
9, 17759, Note_on_c, 4, 41, 0
9, 17760, Note_on_c, 4, 43, 100
9, 17939, Note_on_c, 4, 43, 0
9, 17970, Note_on_c, 4, 38, 100
9, 17999, Note_on_c, 4, 38, 0
9, 18000, Note_on_c, 4, 43, 100
9, 18029, Note_on_c, 4, 43, 0
9, 18060, Note_on_c, 4, 43, 100
9, 18179, Note_on_c, 4, 43, 0
9, 18180, Note_on_c, 4, 38, 100
9, 18239, Note_on_c, 4, 38, 0
9, 18240, Note_on_c, 4, 36, 100
9, 18419, Note_on_c, 4, 36, 0
9, 18420, Note_on_c, 4, 36, 100
9, 18479, Note_on_c, 4, 36, 0
9, 18480, Note_on_c, 4, 38, 100
9, 18599, Note_on_c, 4, 38, 0
9, 18600, Note_on_c, 4, 40, 100
9, 18719, Note_on_c, 4, 40, 0
9, 18720, Note_on_c, 4, 41, 100
9, 18899, Note_on_c, 4, 41, 0
9, 18900, Note_on_c, 4, 33, 100
9, 18959, Note_on_c, 4, 33, 0
9, 18960, Note_on_c, 4, 34, 100
9, 19079, Note_on_c, 4, 34, 0
9, 19080, Note_on_c, 4, 38, 100
9, 19199, Note_on_c, 4, 38, 0
9, 19200, Note_on_c, 4, 36, 100
9, 19379, Note_on_c, 4, 36, 0
9, 19380, Note_on_c, 4, 36, 100
9, 19439, Note_on_c, 4, 36, 0
9, 19440, Note_on_c, 4, 38, 100
9, 19559, Note_on_c, 4, 38, 0
9, 19560, Note_on_c, 4, 40, 100
9, 19679, Note_on_c, 4, 40, 0
9, 19680, Note_on_c, 4, 41, 100
9, 19859, Note_on_c, 4, 41, 0
9, 19860, Note_on_c, 4, 41, 100
9, 19919, Note_on_c, 4, 41, 0
9, 19920, Note_on_c, 4, 33, 100
9, 20099, Note_on_c, 4, 33, 0
9, 20100, Note_on_c, 4, 33, 100
9, 20159, Note_on_c, 4, 33, 0
9, 20160, Note_on_c, 4, 34, 100
9, 20339, Note_on_c, 4, 34, 0
9, 20340, Note_on_c, 4, 34, 100
9, 20369, Note_on_c, 4, 34, 0
9, 20370, Note_on_c, 4, 38, 100
9, 20399, Note_on_c, 4, 38, 0
9, 20400, Note_on_c, 4, 36, 100
9, 20489, Note_on_c, 4, 36, 0
9, 20490, Note_on_c, 4, 36, 100
9, 20519, Note_on_c, 4, 36, 0
9, 20520, Note_on_c, 4, 43, 100
9, 20609, Note_on_c, 4, 43, 0
9, 20610, Note_on_c, 4, 43, 100
9, 20639, Note_on_c, 4, 43, 0
9, 20640, Note_on_c, 4, 41, 100
9, 20819, Note_on_c, 4, 41, 0
9, 20820, Note_on_c, 4, 33, 100
9, 20879, Note_on_c, 4, 33, 0
9, 20880, Note_on_c, 4, 34, 100
9, 20999, Note_on_c, 4, 34, 0
9, 21000, Note_on_c, 4, 38, 100
9, 21119, Note_on_c, 4, 38, 0
9, 21120, Note_on_c, 4, 36, 100
9, 21299, Note_on_c, 4, 36, 0
9, 21300, Note_on_c, 4, 36, 100
9, 21359, Note_on_c, 4, 36, 0
9, 21360, Note_on_c, 4, 36, 100
9, 21539, Note_on_c, 4, 36, 0
9, 21540, Note_on_c, 4, 34, 100
9, 21569, Note_on_c, 4, 34, 0
9, 21570, Note_on_c, 4, 33, 100
9, 21599, Note_on_c, 4, 33, 0
9, 21600, Note_on_c, 4, 31, 100
9, 21779, Note_on_c, 4, 31, 0
9, 21780, Note_on_c, 4, 31, 100
9, 21839, Note_on_c, 4, 31, 0
9, 21840, Note_on_c, 4, 31, 100
9, 21959, Note_on_c, 4, 31, 0
9, 21960, Note_on_c, 4, 33, 100
9, 22079, Note_on_c, 4, 33, 0
9, 22080, Note_on_c, 4, 34, 100
9, 22259, Note_on_c, 4, 34, 0
9, 22260, Note_on_c, 4, 34, 100
9, 22319, Note_on_c, 4, 34, 0
9, 22320, Note_on_c, 4, 34, 100
9, 22529, Note_on_c, 4, 34, 0
9, 22530, Note_on_c, 4, 36, 100
9, 22559, Note_on_c, 4, 36, 0
9, 22560, Note_on_c, 4, 38, 100
9, 22769, Note_on_c, 4, 38, 0
9, 22770, Note_on_c, 4, 33, 100
9, 22799, Note_on_c, 4, 33, 0
9, 22800, Note_on_c, 4, 38, 100
9, 22829, Note_on_c, 4, 38, 0
9, 22860, Note_on_c, 4, 38, 100
9, 22979, Note_on_c, 4, 38, 0
9, 22980, Note_on_c, 4, 33, 100
9, 23039, Note_on_c, 4, 33, 0
9, 23040, Note_on_c, 4, 31, 100
9, 23219, Note_on_c, 4, 31, 0
9, 23220, Note_on_c, 4, 31, 100
9, 23279, Note_on_c, 4, 31, 0
9, 23280, Note_on_c, 4, 31, 100
9, 23459, Note_on_c, 4, 31, 0
9, 23460, Note_on_c, 4, 36, 100
9, 23489, Note_on_c, 4, 36, 0
9, 23490, Note_on_c, 4, 38, 100
9, 23519, Note_on_c, 4, 38, 0
9, 23520, Note_on_c, 4, 38, 100
9, 23729, Note_on_c, 4, 38, 0
9, 23730, Note_on_c, 4, 33, 100
9, 23759, Note_on_c, 4, 33, 0
9, 23760, Note_on_c, 4, 38, 100
9, 23789, Note_on_c, 4, 38, 0
9, 23820, Note_on_c, 4, 38, 100
9, 23909, Note_on_c, 4, 38, 0
9, 23940, Note_on_c, 4, 38, 100
9, 23969, Note_on_c, 4, 38, 0
9, 23970, Note_on_c, 4, 45, 100
9, 23999, Note_on_c, 4, 45, 0
9, 24000, Note_on_c, 4, 43, 100
9, 24209, Note_on_c, 4, 43, 0
9, 24210, Note_on_c, 4, 38, 100
9, 24239, Note_on_c, 4, 38, 0
9, 24240, Note_on_c, 4, 43, 100
9, 24419, Note_on_c, 4, 43, 0
9, 24420, Note_on_c, 4, 33, 100
9, 24479, Note_on_c, 4, 33, 0
9, 24480, Note_on_c, 4, 31, 100
9, 24659, Note_on_c, 4, 31, 0
9, 24660, Note_on_c, 4, 33, 100
9, 24719, Note_on_c, 4, 33, 0
9, 24720, Note_on_c, 4, 34, 100
9, 24959, Note_on_c, 4, 34, 0
9, 24960, Note_on_c, 4, 36, 100
9, 25139, Note_on_c, 4, 36, 0
9, 25170, Note_on_c, 4, 31, 100
9, 25199, Note_on_c, 4, 31, 0
9, 25200, Note_on_c, 4, 36, 100
9, 25229, Note_on_c, 4, 36, 0
9, 25260, Note_on_c, 4, 36, 100
9, 25379, Note_on_c, 4, 36, 0
9, 25380, Note_on_c, 4, 34, 108
9, 25409, Note_on_c, 4, 34, 0
9, 25410, Note_on_c, 4, 33, 108
9, 25439, Note_on_c, 4, 33, 0
9, 25440, Note_on_c, 4, 31, 100
9, 25619, Note_on_c, 4, 31, 0
9, 25620, Note_on_c, 4, 33, 100
9, 25679, Note_on_c, 4, 33, 0
9, 25680, Note_on_c, 4, 34, 100
9, 25799, Note_on_c, 4, 34, 0
9, 25800, Note_on_c, 4, 38, 100
9, 25919, Note_on_c, 4, 38, 0
9, 25920, Note_on_c, 4, 36, 100
9, 26099, Note_on_c, 4, 36, 0
9, 26355, Note_on_c, 4, 36, 100
9, 26370, Note_on_c, 4, 38, 100
9, 26384, Note_on_c, 4, 36, 0
9, 26399, Note_on_c, 4, 38, 0
9, 26400, Note_on_c, 4, 36, 100
9, 26429, Note_on_c, 4, 36, 0
9, 27840, Note_on_c, 4, 41, 117
9, 28019, Note_on_c, 4, 41, 0
9, 28020, Note_on_c, 4, 41, 117
9, 28079, Note_on_c, 4, 41, 0
9, 28080, Note_on_c, 4, 33, 117
9, 28259, Note_on_c, 4, 33, 0
9, 28260, Note_on_c, 4, 33, 117
9, 28319, Note_on_c, 4, 33, 0
9, 28320, Note_on_c, 4, 34, 117
9, 28499, Note_on_c, 4, 34, 0
9, 28500, Note_on_c, 4, 34, 117
9, 28559, Note_on_c, 4, 34, 0
9, 28560, Note_on_c, 4, 36, 117
9, 28649, Note_on_c, 4, 36, 0
9, 28650, Note_on_c, 4, 36, 117
9, 28679, Note_on_c, 4, 36, 0
9, 28680, Note_on_c, 4, 43, 117
9, 28799, Note_on_c, 4, 43, 0
9, 28800, Note_on_c, 4, 41, 117
9, 28979, Note_on_c, 4, 41, 0
9, 28980, Note_on_c, 4, 33, 117
9, 29039, Note_on_c, 4, 33, 0
9, 29040, Note_on_c, 4, 34, 117
9, 29159, Note_on_c, 4, 34, 0
9, 29160, Note_on_c, 4, 38, 117
9, 29279, Note_on_c, 4, 38, 0
9, 29280, Note_on_c, 4, 36, 117
9, 29489, Note_on_c, 4, 36, 0
9, 29490, Note_on_c, 4, 31, 117
9, 29519, Note_on_c, 4, 31, 0
9, 29520, Note_on_c, 4, 36, 117
9, 29564, Note_on_c, 4, 36, 0
9, 29580, Note_on_c, 4, 36, 117
9, 29699, Note_on_c, 4, 36, 0
9, 29700, Note_on_c, 4, 33, 117
9, 29759, Note_on_c, 4, 33, 0
9, 29760, Note_on_c, 4, 31, 117
9, 29939, Note_on_c, 4, 31, 0
9, 29940, Note_on_c, 4, 31, 117
9, 29999, Note_on_c, 4, 31, 0
9, 30000, Note_on_c, 4, 31, 117
9, 30119, Note_on_c, 4, 31, 0
9, 30120, Note_on_c, 4, 33, 117
9, 30239, Note_on_c, 4, 33, 0
9, 30240, Note_on_c, 4, 34, 117
9, 30419, Note_on_c, 4, 34, 0
9, 30420, Note_on_c, 4, 34, 117
9, 30479, Note_on_c, 4, 34, 0
9, 30480, Note_on_c, 4, 34, 117
9, 30659, Note_on_c, 4, 34, 0
9, 30660, Note_on_c, 4, 36, 117
9, 30689, Note_on_c, 4, 36, 0
9, 30690, Note_on_c, 4, 38, 117
9, 30719, Note_on_c, 4, 38, 0
9, 30720, Note_on_c, 4, 41, 117
9, 30899, Note_on_c, 4, 41, 0
9, 30930, Note_on_c, 4, 33, 117
9, 30959, Note_on_c, 4, 33, 0
9, 30960, Note_on_c, 4, 34, 117
9, 31019, Note_on_c, 4, 34, 0
9, 31020, Note_on_c, 4, 34, 117
9, 31139, Note_on_c, 4, 34, 0
9, 31140, Note_on_c, 4, 38, 117
9, 31199, Note_on_c, 4, 38, 0
9, 31200, Note_on_c, 4, 36, 117
9, 31379, Note_on_c, 4, 36, 0
9, 31380, Note_on_c, 4, 36, 117
9, 31439, Note_on_c, 4, 36, 0
9, 31440, Note_on_c, 4, 38, 117
9, 31559, Note_on_c, 4, 38, 0
9, 31560, Note_on_c, 4, 40, 117
9, 31679, Note_on_c, 4, 40, 0
9, 31680, Note_on_c, 4, 41, 117
9, 31859, Note_on_c, 4, 41, 0
9, 31860, Note_on_c, 4, 36, 117
9, 31889, Note_on_c, 4, 36, 0
9, 31890, Note_on_c, 4, 34, 117
9, 31919, Note_on_c, 4, 34, 0
9, 31920, Note_on_c, 4, 33, 117
9, 32099, Note_on_c, 4, 33, 0
9, 32100, Note_on_c, 4, 33, 117
9, 32159, Note_on_c, 4, 33, 0
9, 32160, Note_on_c, 4, 34, 117
9, 32279, Note_on_c, 4, 34, 0
9, 32280, Note_on_c, 4, 38, 117
9, 32399, Note_on_c, 4, 38, 0
9, 32400, Note_on_c, 4, 36, 117
9, 32519, Note_on_c, 4, 36, 0
9, 32520, Note_on_c, 4, 43, 117
9, 32639, Note_on_c, 4, 43, 0
9, 32640, Note_on_c, 4, 41, 117
9, 32640, Control_c, 4, 7, 99
9, 32655, Control_c, 4, 7, 98
9, 32670, Control_c, 4, 7, 97
9, 32685, Control_c, 4, 7, 96
9, 32700, Control_c, 4, 7, 95
9, 32715, Control_c, 4, 7, 94
9, 32727, Control_c, 4, 7, 93
9, 32742, Control_c, 4, 7, 92
9, 32757, Control_c, 4, 7, 91
9, 32772, Control_c, 4, 7, 90
9, 32787, Control_c, 4, 7, 89
9, 32800, Control_c, 4, 7, 88
9, 32815, Control_c, 4, 7, 87
9, 32830, Control_c, 4, 7, 86
9, 32834, Note_on_c, 4, 41, 0
9, 32845, Control_c, 4, 7, 85
9, 32850, Note_on_c, 4, 33, 117
9, 32860, Control_c, 4, 7, 84
9, 32875, Control_c, 4, 7, 83
9, 32879, Note_on_c, 4, 33, 0
9, 32880, Note_on_c, 4, 34, 117
9, 32887, Control_c, 4, 7, 82
9, 32902, Control_c, 4, 7, 81
9, 32909, Note_on_c, 4, 34, 0
9, 32917, Control_c, 4, 7, 80
9, 32932, Control_c, 4, 7, 79
9, 32940, Note_on_c, 4, 34, 117
9, 32947, Control_c, 4, 7, 78
9, 32960, Control_c, 4, 7, 77
9, 32975, Control_c, 4, 7, 76
9, 32990, Control_c, 4, 7, 75
9, 33005, Control_c, 4, 7, 74
9, 33020, Control_c, 4, 7, 73
9, 33035, Control_c, 4, 7, 72
9, 33047, Control_c, 4, 7, 71
9, 33059, Note_on_c, 4, 34, 0
9, 33060, Note_on_c, 4, 38, 117
9, 33062, Control_c, 4, 7, 70
9, 33077, Control_c, 4, 7, 69
9, 33092, Control_c, 4, 7, 68
9, 33107, Control_c, 4, 7, 67
9, 33119, Note_on_c, 4, 38, 0
9, 33120, Note_on_c, 4, 36, 117
9, 33120, Control_c, 4, 7, 66
9, 33135, Control_c, 4, 7, 65
9, 33150, Control_c, 4, 7, 64
9, 33165, Control_c, 4, 7, 63
9, 33180, Control_c, 4, 7, 62
9, 33195, Control_c, 4, 7, 61
9, 33207, Control_c, 4, 7, 60
9, 33222, Control_c, 4, 7, 59
9, 33237, Control_c, 4, 7, 58
9, 33252, Control_c, 4, 7, 57
9, 33267, Control_c, 4, 7, 56
9, 33280, Control_c, 4, 7, 55
9, 33295, Control_c, 4, 7, 54
9, 33310, Control_c, 4, 7, 53
9, 33325, Control_c, 4, 7, 52
9, 33329, Note_on_c, 4, 36, 0
9, 33330, Note_on_c, 4, 31, 117
9, 33340, Control_c, 4, 7, 51
9, 33355, Control_c, 4, 7, 50
9, 33359, Note_on_c, 4, 31, 0
9, 33360, Note_on_c, 4, 36, 117
9, 33367, Control_c, 4, 7, 49
9, 33382, Control_c, 4, 7, 48
9, 33397, Control_c, 4, 7, 47
9, 33412, Control_c, 4, 7, 46
9, 33427, Control_c, 4, 7, 45
9, 33440, Control_c, 4, 7, 44
9, 33455, Control_c, 4, 7, 43
9, 33470, Control_c, 4, 7, 42
9, 33485, Control_c, 4, 7, 41
9, 33500, Control_c, 4, 7, 40
9, 33515, Control_c, 4, 7, 39
9, 33527, Control_c, 4, 7, 38
9, 33539, Note_on_c, 4, 36, 0
9, 33540, Note_on_c, 4, 33, 117
9, 33542, Control_c, 4, 7, 37
9, 33557, Control_c, 4, 7, 36
9, 33572, Control_c, 4, 7, 35
9, 33587, Control_c, 4, 7, 34
9, 33599, Note_on_c, 4, 33, 0
9, 33600, Note_on_c, 4, 31, 117
9, 33600, Control_c, 4, 7, 33
9, 33615, Control_c, 4, 7, 32
9, 33630, Control_c, 4, 7, 31
9, 33645, Control_c, 4, 7, 30
9, 33660, Control_c, 4, 7, 29
9, 33675, Control_c, 4, 7, 28
9, 33687, Control_c, 4, 7, 27
9, 33702, Control_c, 4, 7, 26
9, 33717, Control_c, 4, 7, 25
9, 33732, Control_c, 4, 7, 24
9, 33747, Control_c, 4, 7, 23
9, 33760, Control_c, 4, 7, 22
9, 33775, Control_c, 4, 7, 21
9, 33779, Note_on_c, 4, 31, 0
9, 33780, Note_on_c, 4, 31, 117
9, 33790, Control_c, 4, 7, 20
9, 33805, Control_c, 4, 7, 19
9, 33820, Control_c, 4, 7, 18
9, 33835, Control_c, 4, 7, 17
9, 33839, Note_on_c, 4, 31, 0
9, 33840, Note_on_c, 4, 31, 117
9, 33847, Control_c, 4, 7, 16
9, 33862, Control_c, 4, 7, 15
9, 33877, Control_c, 4, 7, 14
9, 33892, Control_c, 4, 7, 13
9, 33907, Control_c, 4, 7, 12
9, 33920, Control_c, 4, 7, 11
9, 33935, Control_c, 4, 7, 10
9, 33950, Control_c, 4, 7, 9
9, 33965, Control_c, 4, 7, 8
9, 33980, Control_c, 4, 7, 7
9, 33995, Control_c, 4, 7, 6
9, 34007, Control_c, 4, 7, 5
9, 34022, Control_c, 4, 7, 4
9, 34037, Control_c, 4, 7, 3
9, 34052, Control_c, 4, 7, 2
9, 34067, Control_c, 4, 7, 1
9, 34079, Note_on_c, 4, 31, 0
9, 34080, Control_c, 4, 7, 0
9, 34080, End_track
10, 0, Start_track
10, 0, MIDI_port, 0
10, 0, Title_t, "String"
10, 0, Program_c, 5, 48
10, 0, Control_c, 5, 10, 97
10, 0, Control_c, 5, 93, 20
10, 0, Control_c, 5, 91, 50
10, 6240, Note_on_c, 5, 55, 100
10, 6240, Note_on_c, 5, 58, 100
10, 6240, Note_on_c, 5, 62, 100
10, 6240, Control_c, 5, 7, 15
10, 6252, Control_c, 5, 7, 16
10, 6262, Control_c, 5, 7, 17
10, 6272, Control_c, 5, 7, 18
10, 6284, Control_c, 5, 7, 19
10, 6294, Control_c, 5, 7, 20
10, 6304, Control_c, 5, 7, 21
10, 6316, Control_c, 5, 7, 22
10, 6326, Control_c, 5, 7, 23
10, 6336, Control_c, 5, 7, 24
10, 6346, Control_c, 5, 7, 25
10, 6358, Control_c, 5, 7, 26
10, 6368, Control_c, 5, 7, 27
10, 6378, Control_c, 5, 7, 28
10, 6390, Control_c, 5, 7, 29
10, 6400, Control_c, 5, 7, 30
10, 6410, Control_c, 5, 7, 31
10, 6420, Control_c, 5, 7, 32
10, 6432, Control_c, 5, 7, 33
10, 6442, Control_c, 5, 7, 34
10, 6452, Control_c, 5, 7, 35
10, 6464, Control_c, 5, 7, 36
10, 6474, Control_c, 5, 7, 37
10, 6484, Control_c, 5, 7, 38
10, 6496, Control_c, 5, 7, 39
10, 6506, Control_c, 5, 7, 40
10, 6516, Control_c, 5, 7, 41
10, 6526, Control_c, 5, 7, 42
10, 6538, Control_c, 5, 7, 43
10, 6548, Control_c, 5, 7, 44
10, 6558, Control_c, 5, 7, 45
10, 6570, Control_c, 5, 7, 46
10, 6580, Control_c, 5, 7, 47
10, 6590, Control_c, 5, 7, 48
10, 6600, Control_c, 5, 7, 49
10, 6719, Note_on_c, 5, 62, 0
10, 6719, Note_on_c, 5, 58, 0
10, 6719, Note_on_c, 5, 55, 0
10, 6720, Note_on_c, 5, 55, 100
10, 6720, Note_on_c, 5, 60, 100
10, 6720, Note_on_c, 5, 64, 100
10, 7199, Note_on_c, 5, 64, 0
10, 7199, Note_on_c, 5, 60, 0
10, 7199, Note_on_c, 5, 55, 0
10, 7200, Note_on_c, 5, 58, 100
10, 7200, Note_on_c, 5, 62, 100
10, 7200, Note_on_c, 5, 65, 100
10, 7679, Note_on_c, 5, 65, 0
10, 7679, Note_on_c, 5, 62, 0
10, 7679, Note_on_c, 5, 58, 0
10, 7680, Note_on_c, 5, 60, 100
10, 7680, Note_on_c, 5, 64, 100
10, 7680, Note_on_c, 5, 67, 100
10, 8159, Note_on_c, 5, 67, 0
10, 8159, Note_on_c, 5, 64, 0
10, 8159, Note_on_c, 5, 60, 0
10, 8160, Note_on_c, 5, 65, 100
10, 8160, Note_on_c, 5, 77, 100
10, 8279, Note_on_c, 5, 77, 0
10, 8279, Note_on_c, 5, 65, 0
10, 8280, Note_on_c, 5, 72, 100
10, 8280, Note_on_c, 5, 84, 100
10, 8880, Control_c, 5, 7, 49
10, 8888, Control_c, 5, 7, 48
10, 8894, Control_c, 5, 7, 47
10, 8902, Control_c, 5, 7, 46
10, 8908, Control_c, 5, 7, 45
10, 8916, Control_c, 5, 7, 44
10, 8922, Control_c, 5, 7, 43
10, 8928, Control_c, 5, 7, 42
10, 8936, Control_c, 5, 7, 41
10, 8942, Control_c, 5, 7, 40
10, 8950, Control_c, 5, 7, 39
10, 8956, Control_c, 5, 7, 38
10, 8964, Control_c, 5, 7, 37
10, 8970, Control_c, 5, 7, 36
10, 8976, Control_c, 5, 7, 35
10, 8984, Control_c, 5, 7, 34
10, 8990, Control_c, 5, 7, 33
10, 8998, Control_c, 5, 7, 32
10, 9004, Control_c, 5, 7, 31
10, 9012, Control_c, 5, 7, 30
10, 9018, Control_c, 5, 7, 29
10, 9024, Control_c, 5, 7, 28
10, 9032, Control_c, 5, 7, 27
10, 9038, Control_c, 5, 7, 26
10, 9046, Control_c, 5, 7, 25
10, 9052, Control_c, 5, 7, 24
10, 9060, Control_c, 5, 7, 23
10, 9066, Control_c, 5, 7, 22
10, 9072, Control_c, 5, 7, 21
10, 9080, Control_c, 5, 7, 20
10, 9086, Control_c, 5, 7, 19
10, 9094, Control_c, 5, 7, 18
10, 9100, Control_c, 5, 7, 17
10, 9108, Control_c, 5, 7, 16
10, 9114, Control_c, 5, 7, 15
10, 9119, Note_on_c, 5, 84, 0
10, 9119, Note_on_c, 5, 72, 0
10, 9120, Control_c, 5, 7, 14
10, 9242, Control_c, 5, 7, 49
10, 10080, Note_on_c, 5, 65, 100
10, 10080, Note_on_c, 5, 77, 100
10, 10199, Note_on_c, 5, 77, 0
10, 10199, Note_on_c, 5, 65, 0
10, 10200, Note_on_c, 5, 72, 100
10, 10200, Note_on_c, 5, 84, 100
10, 10802, Control_c, 5, 7, 49
10, 10810, Control_c, 5, 7, 48
10, 10818, Control_c, 5, 7, 47
10, 10824, Control_c, 5, 7, 46
10, 10832, Control_c, 5, 7, 45
10, 10840, Control_c, 5, 7, 44
10, 10846, Control_c, 5, 7, 43
10, 10854, Control_c, 5, 7, 42
10, 10860, Control_c, 5, 7, 41
10, 10868, Control_c, 5, 7, 40
10, 10876, Control_c, 5, 7, 39
10, 10882, Control_c, 5, 7, 38
10, 10890, Control_c, 5, 7, 37
10, 10896, Control_c, 5, 7, 36
10, 10904, Control_c, 5, 7, 35
10, 10912, Control_c, 5, 7, 34
10, 10918, Control_c, 5, 7, 33
10, 10926, Control_c, 5, 7, 32
10, 10932, Control_c, 5, 7, 31
10, 10940, Control_c, 5, 7, 30
10, 10948, Control_c, 5, 7, 29
10, 10954, Control_c, 5, 7, 28
10, 10962, Control_c, 5, 7, 27
10, 10968, Control_c, 5, 7, 26
10, 10976, Control_c, 5, 7, 25
10, 10984, Control_c, 5, 7, 24
10, 10990, Control_c, 5, 7, 23
10, 10998, Control_c, 5, 7, 22
10, 11004, Control_c, 5, 7, 21
10, 11012, Control_c, 5, 7, 20
10, 11020, Control_c, 5, 7, 19
10, 11026, Control_c, 5, 7, 18
10, 11034, Control_c, 5, 7, 17
10, 11039, Note_on_c, 5, 84, 0
10, 11039, Note_on_c, 5, 72, 0
10, 11040, Note_on_c, 5, 70, 100
10, 11040, Note_on_c, 5, 74, 100
10, 11040, Note_on_c, 5, 79, 100
10, 11040, Control_c, 5, 7, 49
10, 11519, Note_on_c, 5, 79, 0
10, 11519, Note_on_c, 5, 74, 0
10, 11519, Note_on_c, 5, 70, 0
10, 11520, Note_on_c, 5, 72, 100
10, 11520, Note_on_c, 5, 77, 100
10, 11520, Note_on_c, 5, 70, 100
10, 11520, Note_on_c, 5, 74, 100
10, 11760, Control_c, 5, 7, 49
10, 11766, Control_c, 5, 7, 48
10, 11770, Control_c, 5, 7, 47
10, 11776, Control_c, 5, 7, 46
10, 11780, Control_c, 5, 7, 45
10, 11786, Control_c, 5, 7, 44
10, 11790, Control_c, 5, 7, 43
10, 11794, Control_c, 5, 7, 42
10, 11800, Control_c, 5, 7, 41
10, 11804, Control_c, 5, 7, 40
10, 11810, Control_c, 5, 7, 39
10, 11814, Control_c, 5, 7, 38
10, 11818, Control_c, 5, 7, 37
10, 11824, Control_c, 5, 7, 36
10, 11828, Control_c, 5, 7, 35
10, 11834, Control_c, 5, 7, 34
10, 11838, Control_c, 5, 7, 33
10, 11842, Control_c, 5, 7, 32
10, 11848, Control_c, 5, 7, 31
10, 11852, Control_c, 5, 7, 30
10, 11858, Control_c, 5, 7, 29
10, 11862, Control_c, 5, 7, 28
10, 11868, Control_c, 5, 7, 27
10, 11872, Control_c, 5, 7, 26
10, 11876, Control_c, 5, 7, 25
10, 11882, Control_c, 5, 7, 24
10, 11886, Control_c, 5, 7, 23
10, 11892, Control_c, 5, 7, 22
10, 11896, Control_c, 5, 7, 21
10, 11900, Control_c, 5, 7, 20
10, 11906, Control_c, 5, 7, 19
10, 11910, Control_c, 5, 7, 18
10, 11916, Control_c, 5, 7, 17
10, 11920, Control_c, 5, 7, 16
10, 11924, Control_c, 5, 7, 15
10, 11930, Control_c, 5, 7, 14
10, 11934, Control_c, 5, 7, 13
10, 11939, Note_on_c, 5, 74, 0
10, 11939, Note_on_c, 5, 72, 0
10, 11939, Note_on_c, 5, 77, 0
10, 11939, Note_on_c, 5, 70, 0
10, 11940, Control_c, 5, 7, 12
10, 11944, Control_c, 5, 7, 11
10, 11948, Control_c, 5, 7, 10
10, 11998, Control_c, 5, 7, 51
10, 16800, Note_on_c, 5, 62, 100
10, 16800, Note_on_c, 5, 65, 100
10, 16800, Note_on_c, 5, 70, 100
10, 16800, Control_c, 5, 7, 15
10, 16804, Control_c, 5, 7, 16
10, 16808, Control_c, 5, 7, 17
10, 16812, Control_c, 5, 7, 18
10, 16816, Control_c, 5, 7, 19
10, 16818, Control_c, 5, 7, 20
10, 16822, Control_c, 5, 7, 21
10, 16826, Control_c, 5, 7, 22
10, 16830, Control_c, 5, 7, 23
10, 16834, Control_c, 5, 7, 24
10, 16836, Control_c, 5, 7, 25
10, 16840, Control_c, 5, 7, 26
10, 16844, Control_c, 5, 7, 27
10, 16848, Control_c, 5, 7, 28
10, 16850, Control_c, 5, 7, 29
10, 16854, Control_c, 5, 7, 30
10, 16858, Control_c, 5, 7, 31
10, 16862, Control_c, 5, 7, 32
10, 16866, Control_c, 5, 7, 33
10, 16868, Control_c, 5, 7, 34
10, 16872, Control_c, 5, 7, 35
10, 16876, Control_c, 5, 7, 36
10, 16880, Control_c, 5, 7, 37
10, 16882, Control_c, 5, 7, 38
10, 16886, Control_c, 5, 7, 39
10, 16890, Control_c, 5, 7, 40
10, 16894, Control_c, 5, 7, 41
10, 16898, Control_c, 5, 7, 42
10, 16900, Control_c, 5, 7, 43
10, 16904, Control_c, 5, 7, 44
10, 16908, Control_c, 5, 7, 45
10, 16912, Control_c, 5, 7, 46
10, 16914, Control_c, 5, 7, 47
10, 16918, Control_c, 5, 7, 48
10, 16922, Control_c, 5, 7, 49
10, 16926, Control_c, 5, 7, 50
10, 16930, Control_c, 5, 7, 51
10, 16932, Control_c, 5, 7, 52
10, 16936, Control_c, 5, 7, 53
10, 16940, Control_c, 5, 7, 54
10, 16944, Control_c, 5, 7, 55
10, 16946, Control_c, 5, 7, 56
10, 16950, Control_c, 5, 7, 57
10, 16954, Control_c, 5, 7, 58
10, 16958, Control_c, 5, 7, 59
10, 16962, Control_c, 5, 7, 60
10, 16964, Control_c, 5, 7, 61
10, 16968, Control_c, 5, 7, 62
10, 16972, Control_c, 5, 7, 63
10, 16976, Control_c, 5, 7, 64
10, 16978, Control_c, 5, 7, 65
10, 16982, Control_c, 5, 7, 66
10, 16986, Control_c, 5, 7, 67
10, 16990, Control_c, 5, 7, 68
10, 16994, Control_c, 5, 7, 69
10, 16996, Control_c, 5, 7, 70
10, 17000, Control_c, 5, 7, 71
10, 17004, Control_c, 5, 7, 72
10, 17008, Control_c, 5, 7, 73
10, 17010, Control_c, 5, 7, 74
10, 17014, Control_c, 5, 7, 75
10, 17018, Control_c, 5, 7, 76
10, 17022, Control_c, 5, 7, 77
10, 17026, Control_c, 5, 7, 78
10, 17028, Control_c, 5, 7, 79
10, 17032, Control_c, 5, 7, 80
10, 17036, Control_c, 5, 7, 81
10, 17040, Control_c, 5, 7, 82
10, 17042, Control_c, 5, 7, 83
10, 17279, Note_on_c, 5, 70, 0
10, 17279, Note_on_c, 5, 65, 0
10, 17279, Note_on_c, 5, 62, 0
10, 17280, Note_on_c, 5, 64, 100
10, 17280, Note_on_c, 5, 67, 100
10, 17280, Note_on_c, 5, 72, 100
10, 17759, Note_on_c, 5, 72, 0
10, 17759, Note_on_c, 5, 67, 0
10, 17759, Note_on_c, 5, 64, 0
10, 17760, Note_on_c, 5, 74, 100
10, 17760, Note_on_c, 5, 65, 100
10, 17760, Note_on_c, 5, 70, 100
10, 18239, Note_on_c, 5, 70, 0
10, 18239, Note_on_c, 5, 65, 0
10, 18239, Note_on_c, 5, 74, 0
10, 18240, Note_on_c, 5, 67, 100
10, 18240, Note_on_c, 5, 72, 100
10, 18240, Note_on_c, 5, 76, 100
10, 18719, Note_on_c, 5, 76, 0
10, 18719, Note_on_c, 5, 72, 0
10, 18719, Note_on_c, 5, 67, 0
10, 18720, Note_on_c, 5, 69, 100
10, 18720, Note_on_c, 5, 72, 100
10, 18720, Note_on_c, 5, 77, 100
10, 19199, Note_on_c, 5, 77, 0
10, 19199, Note_on_c, 5, 72, 0
10, 19199, Note_on_c, 5, 69, 0
10, 27840, Note_on_c, 5, 81, 81
10, 27840, Note_on_c, 5, 69, 81
10, 28319, Note_on_c, 5, 69, 0
10, 28319, Note_on_c, 5, 81, 0
10, 28320, Note_on_c, 5, 70, 81
10, 28320, Note_on_c, 5, 82, 81
10, 28559, Note_on_c, 5, 82, 0
10, 28559, Note_on_c, 5, 70, 0
10, 28560, Note_on_c, 5, 69, 78
10, 28560, Note_on_c, 5, 81, 78
10, 28799, Note_on_c, 5, 81, 0
10, 28799, Note_on_c, 5, 69, 0
10, 28800, Note_on_c, 5, 69, 78
10, 28800, Note_on_c, 5, 81, 78
10, 29039, Note_on_c, 5, 81, 0
10, 29039, Note_on_c, 5, 69, 0
10, 29040, Note_on_c, 5, 65, 78
10, 29040, Note_on_c, 5, 77, 78
10, 29279, Note_on_c, 5, 77, 0
10, 29279, Note_on_c, 5, 65, 0
10, 29280, Note_on_c, 5, 72, 80
10, 29280, Note_on_c, 5, 84, 80
10, 29759, Note_on_c, 5, 84, 0
10, 29759, Note_on_c, 5, 72, 0
10, 29760, Note_on_c, 5, 70, 80
10, 29760, Note_on_c, 5, 82, 80
10, 30239, Note_on_c, 5, 82, 0
10, 30239, Note_on_c, 5, 70, 0
10, 30240, Note_on_c, 5, 65, 79
10, 30240, Note_on_c, 5, 77, 79
10, 30719, Note_on_c, 5, 77, 0
10, 30719, Note_on_c, 5, 65, 0
10, 30720, Note_on_c, 5, 69, 80
10, 30720, Note_on_c, 5, 81, 80
10, 31199, Note_on_c, 5, 81, 0
10, 31199, Note_on_c, 5, 69, 0
10, 31200, Note_on_c, 5, 67, 80
10, 31200, Note_on_c, 5, 79, 80
10, 31679, Note_on_c, 5, 79, 0
10, 31679, Note_on_c, 5, 67, 0
10, 31680, Note_on_c, 5, 69, 82
10, 31680, Note_on_c, 5, 81, 82
10, 32159, Note_on_c, 5, 81, 0
10, 32159, Note_on_c, 5, 69, 0
10, 32160, Note_on_c, 5, 70, 82
10, 32160, Note_on_c, 5, 82, 82
10, 32399, Note_on_c, 5, 82, 0
10, 32399, Note_on_c, 5, 70, 0
10, 32400, Note_on_c, 5, 72, 84
10, 32400, Note_on_c, 5, 84, 84
10, 32639, Note_on_c, 5, 84, 0
10, 32639, Note_on_c, 5, 72, 0
10, 32640, Note_on_c, 5, 65, 82
10, 32640, Note_on_c, 5, 77, 82
10, 32643, Control_c, 5, 7, 99
10, 32660, Control_c, 5, 7, 98
10, 32673, Control_c, 5, 7, 97
10, 32690, Control_c, 5, 7, 96
10, 32703, Control_c, 5, 7, 95
10, 32716, Control_c, 5, 7, 94
10, 32733, Control_c, 5, 7, 93
10, 32746, Control_c, 5, 7, 92
10, 32760, Control_c, 5, 7, 91
10, 32776, Control_c, 5, 7, 90
10, 32790, Control_c, 5, 7, 89
10, 32803, Control_c, 5, 7, 88
10, 32820, Control_c, 5, 7, 87
10, 32833, Control_c, 5, 7, 86
10, 32846, Control_c, 5, 7, 85
10, 32863, Control_c, 5, 7, 84
10, 32876, Control_c, 5, 7, 83
10, 32893, Control_c, 5, 7, 82
10, 32906, Control_c, 5, 7, 81
10, 32920, Control_c, 5, 7, 80
10, 32936, Control_c, 5, 7, 79
10, 32950, Control_c, 5, 7, 78
10, 32963, Control_c, 5, 7, 77
10, 32980, Control_c, 5, 7, 76
10, 32993, Control_c, 5, 7, 75
10, 33006, Control_c, 5, 7, 74
10, 33023, Control_c, 5, 7, 73
10, 33036, Control_c, 5, 7, 72
10, 33050, Control_c, 5, 7, 71
10, 33066, Control_c, 5, 7, 70
10, 33080, Control_c, 5, 7, 69
10, 33093, Control_c, 5, 7, 68
10, 33110, Control_c, 5, 7, 67
10, 33119, Note_on_c, 5, 77, 0
10, 33119, Note_on_c, 5, 65, 0
10, 33120, Note_on_c, 5, 72, 82
10, 33120, Note_on_c, 5, 84, 82
10, 33123, Control_c, 5, 7, 66
10, 33140, Control_c, 5, 7, 65
10, 33153, Control_c, 5, 7, 64
10, 33166, Control_c, 5, 7, 63
10, 33183, Control_c, 5, 7, 62
10, 33196, Control_c, 5, 7, 61
10, 33210, Control_c, 5, 7, 60
10, 33226, Control_c, 5, 7, 59
10, 33240, Control_c, 5, 7, 58
10, 33253, Control_c, 5, 7, 57
10, 33270, Control_c, 5, 7, 56
10, 33283, Control_c, 5, 7, 55
10, 33296, Control_c, 5, 7, 54
10, 33313, Control_c, 5, 7, 53
10, 33326, Control_c, 5, 7, 52
10, 33340, Control_c, 5, 7, 51
10, 33356, Control_c, 5, 7, 50
10, 33370, Control_c, 5, 7, 49
10, 33386, Control_c, 5, 7, 48
10, 33400, Control_c, 5, 7, 47
10, 33413, Control_c, 5, 7, 46
10, 33430, Control_c, 5, 7, 45
10, 33443, Control_c, 5, 7, 44
10, 33456, Control_c, 5, 7, 43
10, 33473, Control_c, 5, 7, 42
10, 33486, Control_c, 5, 7, 41
10, 33500, Control_c, 5, 7, 40
10, 33516, Control_c, 5, 7, 39
10, 33530, Control_c, 5, 7, 38
10, 33543, Control_c, 5, 7, 37
10, 33560, Control_c, 5, 7, 36
10, 33573, Control_c, 5, 7, 35
10, 33586, Control_c, 5, 7, 34
10, 33599, Note_on_c, 5, 84, 0
10, 33599, Note_on_c, 5, 72, 0
10, 33600, Note_on_c, 5, 70, 82
10, 33600, Note_on_c, 5, 82, 82
10, 33603, Control_c, 5, 7, 33
10, 33616, Control_c, 5, 7, 32
10, 33633, Control_c, 5, 7, 31
10, 33646, Control_c, 5, 7, 30
10, 33660, Control_c, 5, 7, 29
10, 33676, Control_c, 5, 7, 28
10, 33690, Control_c, 5, 7, 27
10, 33703, Control_c, 5, 7, 26
10, 33720, Control_c, 5, 7, 25
10, 33733, Control_c, 5, 7, 24
10, 33746, Control_c, 5, 7, 23
10, 33763, Control_c, 5, 7, 22
10, 33776, Control_c, 5, 7, 21
10, 33790, Control_c, 5, 7, 20
10, 33806, Control_c, 5, 7, 19
10, 33820, Control_c, 5, 7, 18
10, 33833, Control_c, 5, 7, 17
10, 33850, Control_c, 5, 7, 16
10, 33863, Control_c, 5, 7, 15
10, 33880, Control_c, 5, 7, 14
10, 33893, Control_c, 5, 7, 13
10, 33906, Control_c, 5, 7, 12
10, 33923, Control_c, 5, 7, 11
10, 33936, Control_c, 5, 7, 10
10, 33950, Control_c, 5, 7, 9
10, 33966, Control_c, 5, 7, 8
10, 33980, Control_c, 5, 7, 7
10, 33993, Control_c, 5, 7, 6
10, 34010, Control_c, 5, 7, 5
10, 34023, Control_c, 5, 7, 4
10, 34036, Control_c, 5, 7, 3
10, 34053, Control_c, 5, 7, 2
10, 34066, Control_c, 5, 7, 1
10, 34079, Note_on_c, 5, 82, 0
10, 34079, Note_on_c, 5, 70, 0
10, 34080, Control_c, 5, 7, 0
10, 34080, End_track
11, 0, Start_track
11, 0, MIDI_port, 0
11, 0, Title_t, "B-Vocal"
11, 0, Program_c, 6, 53
11, 0, Control_c, 6, 93, 40
11, 0, Control_c, 6, 91, 70
11, 12960, Note_on_c, 6, 62, 84
11, 12960, Note_on_c, 6, 65, 84
11, 12960, Note_on_c, 6, 69, 84
11, 13439, Note_on_c, 6, 69, 0
11, 13439, Note_on_c, 6, 65, 0
11, 13439, Note_on_c, 6, 62, 0
11, 13440, Note_on_c, 6, 58, 100
11, 13440, Note_on_c, 6, 62, 100
11, 13440, Note_on_c, 6, 67, 100
11, 13919, Note_on_c, 6, 67, 0
11, 13919, Note_on_c, 6, 62, 0
11, 13919, Note_on_c, 6, 58, 0
11, 13920, Note_on_c, 6, 60, 100
11, 13920, Note_on_c, 6, 64, 100
11, 13920, Note_on_c, 6, 67, 100
11, 14639, Note_on_c, 6, 67, 0
11, 14639, Note_on_c, 6, 64, 0
11, 14639, Note_on_c, 6, 60, 0
11, 14640, Note_on_c, 6, 58, 100
11, 14640, Note_on_c, 6, 62, 100
11, 14640, Note_on_c, 6, 65, 100
11, 14879, Note_on_c, 6, 65, 0
11, 14879, Note_on_c, 6, 62, 0
11, 14879, Note_on_c, 6, 58, 0
11, 14880, Note_on_c, 6, 62, 100
11, 14880, Note_on_c, 6, 65, 100
11, 14880, Note_on_c, 6, 69, 100
11, 15359, Note_on_c, 6, 69, 0
11, 15359, Note_on_c, 6, 65, 0
11, 15359, Note_on_c, 6, 62, 0
11, 15360, Note_on_c, 6, 58, 100
11, 15360, Note_on_c, 6, 62, 100
11, 15360, Note_on_c, 6, 67, 100
11, 15839, Note_on_c, 6, 67, 0
11, 15839, Note_on_c, 6, 62, 0
11, 15839, Note_on_c, 6, 58, 0
11, 15840, Note_on_c, 6, 60, 100
11, 15840, Note_on_c, 6, 64, 100
11, 15840, Note_on_c, 6, 67, 100
11, 16319, Note_on_c, 6, 67, 0
11, 16319, Note_on_c, 6, 64, 0
11, 16319, Note_on_c, 6, 60, 0
11, 16320, Note_on_c, 6, 57, 100
11, 16320, Note_on_c, 6, 60, 100
11, 16320, Note_on_c, 6, 64, 100
11, 16559, Note_on_c, 6, 64, 0
11, 16559, Note_on_c, 6, 60, 0
11, 16559, Note_on_c, 6, 57, 0
11, 16560, Note_on_c, 6, 58, 100
11, 16560, Note_on_c, 6, 62, 100
11, 16560, Note_on_c, 6, 65, 100
11, 16799, Note_on_c, 6, 65, 0
11, 16799, Note_on_c, 6, 62, 0
11, 16799, Note_on_c, 6, 58, 0
11, 18615, Note_on_c, 6, 60, 113
11, 18615, Note_on_c, 6, 64, 113
11, 18615, Note_on_c, 6, 70, 113
11, 18719, Note_on_c, 6, 70, 0
11, 18719, Note_on_c, 6, 64, 0
11, 18719, Note_on_c, 6, 60, 0
11, 18720, Note_on_c, 6, 60, 113
11, 18720, Note_on_c, 6, 65, 113
11, 18720, Note_on_c, 6, 69, 113
11, 18839, Note_on_c, 6, 69, 0
11, 18839, Note_on_c, 6, 65, 0
11, 18839, Note_on_c, 6, 60, 0
11, 18840, Note_on_c, 6, 57, 113
11, 18840, Note_on_c, 6, 60, 113
11, 18840, Note_on_c, 6, 65, 113
11, 18899, Note_on_c, 6, 65, 0
11, 18899, Note_on_c, 6, 60, 0
11, 18899, Note_on_c, 6, 57, 0
11, 18900, Note_on_c, 6, 57, 113
11, 18900, Note_on_c, 6, 60, 113
11, 18900, Note_on_c, 6, 65, 113
11, 18959, Note_on_c, 6, 65, 0
11, 18959, Note_on_c, 6, 60, 0
11, 18959, Note_on_c, 6, 57, 0
11, 18960, Note_on_c, 6, 53, 113
11, 18960, Note_on_c, 6, 58, 113
11, 18960, Note_on_c, 6, 62, 113
11, 19139, Note_on_c, 6, 62, 0
11, 19139, Note_on_c, 6, 58, 0
11, 19139, Note_on_c, 6, 53, 0
11, 19140, Note_on_c, 6, 62, 113
11, 19140, Note_on_c, 6, 65, 113
11, 19140, Note_on_c, 6, 69, 113
11, 19199, Note_on_c, 6, 69, 0
11, 19199, Note_on_c, 6, 65, 0
11, 19199, Note_on_c, 6, 62, 0
11, 19200, Note_on_c, 6, 60, 113
11, 19200, Note_on_c, 6, 64, 113
11, 19200, Note_on_c, 6, 67, 113
11, 19289, Note_on_c, 6, 67, 0
11, 19289, Note_on_c, 6, 64, 0
11, 19289, Note_on_c, 6, 60, 0
11, 19290, Note_on_c, 6, 60, 113
11, 19290, Note_on_c, 6, 64, 113
11, 19290, Note_on_c, 6, 69, 113
11, 19319, Note_on_c, 6, 69, 0
11, 19319, Note_on_c, 6, 64, 0
11, 19319, Note_on_c, 6, 60, 0
11, 19620, Note_on_c, 6, 60, 113
11, 19620, Note_on_c, 6, 64, 113
11, 19620, Note_on_c, 6, 70, 113
11, 19679, Note_on_c, 6, 70, 0
11, 19679, Note_on_c, 6, 64, 0
11, 19679, Note_on_c, 6, 60, 0
11, 19680, Note_on_c, 6, 60, 113
11, 19680, Note_on_c, 6, 65, 113
11, 19680, Note_on_c, 6, 69, 113
11, 19769, Note_on_c, 6, 69, 0
11, 19769, Note_on_c, 6, 65, 0
11, 19769, Note_on_c, 6, 60, 0
11, 19770, Note_on_c, 6, 57, 113
11, 19770, Note_on_c, 6, 60, 113
11, 19770, Note_on_c, 6, 65, 113
11, 19799, Note_on_c, 6, 65, 0
11, 19799, Note_on_c, 6, 60, 0
11, 19799, Note_on_c, 6, 57, 0
11, 19800, Note_on_c, 6, 57, 113
11, 19800, Note_on_c, 6, 60, 113
11, 19800, Note_on_c, 6, 65, 113
11, 19859, Note_on_c, 6, 65, 0
11, 19859, Note_on_c, 6, 60, 0
11, 19859, Note_on_c, 6, 57, 0
11, 19860, Note_on_c, 6, 64, 113
11, 19860, Note_on_c, 6, 69, 113
11, 19860, Note_on_c, 6, 72, 113
11, 19919, Note_on_c, 6, 72, 0
11, 19919, Note_on_c, 6, 69, 0
11, 19919, Note_on_c, 6, 64, 0
11, 19920, Note_on_c, 6, 64, 113
11, 19920, Note_on_c, 6, 72, 113
11, 19920, Note_on_c, 6, 69, 113
11, 20039, Note_on_c, 6, 69, 0
11, 20039, Note_on_c, 6, 72, 0
11, 20039, Note_on_c, 6, 64, 0
11, 20100, Note_on_c, 6, 57, 113
11, 20100, Note_on_c, 6, 60, 113
11, 20100, Note_on_c, 6, 64, 113
11, 20159, Note_on_c, 6, 64, 0
11, 20159, Note_on_c, 6, 60, 0
11, 20159, Note_on_c, 6, 57, 0
11, 20160, Note_on_c, 6, 53, 113
11, 20160, Note_on_c, 6, 58, 113
11, 20160, Note_on_c, 6, 62, 113
11, 20324, Note_on_c, 6, 62, 0
11, 20324, Note_on_c, 6, 58, 0
11, 20324, Note_on_c, 6, 53, 0
11, 20520, Note_on_c, 6, 60, 113
11, 20520, Note_on_c, 6, 64, 113
11, 20520, Note_on_c, 6, 70, 113
11, 20609, Note_on_c, 6, 70, 0
11, 20609, Note_on_c, 6, 64, 0
11, 20609, Note_on_c, 6, 60, 0
11, 20610, Note_on_c, 6, 60, 113
11, 20610, Note_on_c, 6, 65, 113
11, 20610, Note_on_c, 6, 69, 113
11, 20699, Note_on_c, 6, 69, 0
11, 20699, Note_on_c, 6, 65, 0
11, 20699, Note_on_c, 6, 60, 0
11, 20700, Note_on_c, 6, 57, 113
11, 20700, Note_on_c, 6, 60, 113
11, 20700, Note_on_c, 6, 65, 113
11, 20729, Note_on_c, 6, 65, 0
11, 20729, Note_on_c, 6, 60, 0
11, 20729, Note_on_c, 6, 57, 0
11, 20730, Note_on_c, 6, 57, 113
11, 20730, Note_on_c, 6, 60, 113
11, 20730, Note_on_c, 6, 65, 113
11, 20819, Note_on_c, 6, 65, 0
11, 20819, Note_on_c, 6, 60, 0
11, 20819, Note_on_c, 6, 57, 0
11, 20820, Note_on_c, 6, 57, 113
11, 20820, Note_on_c, 6, 60, 113
11, 20820, Note_on_c, 6, 65, 113
11, 20879, Note_on_c, 6, 65, 0
11, 20879, Note_on_c, 6, 60, 0
11, 20879, Note_on_c, 6, 57, 0
11, 20880, Note_on_c, 6, 53, 113
11, 20880, Note_on_c, 6, 58, 113
11, 20880, Note_on_c, 6, 62, 113
11, 20969, Note_on_c, 6, 62, 0
11, 20969, Note_on_c, 6, 58, 0
11, 20969, Note_on_c, 6, 53, 0
11, 20970, Note_on_c, 6, 69, 113
11, 20970, Note_on_c, 6, 65, 113
11, 20970, Note_on_c, 6, 62, 113
11, 21059, Note_on_c, 6, 62, 0
11, 21059, Note_on_c, 6, 65, 0
11, 21059, Note_on_c, 6, 69, 0
11, 21060, Note_on_c, 6, 60, 113
11, 21060, Note_on_c, 6, 64, 113
11, 21060, Note_on_c, 6, 67, 113
11, 21179, Note_on_c, 6, 67, 0
11, 21179, Note_on_c, 6, 64, 0
11, 21179, Note_on_c, 6, 60, 0
11, 21450, Note_on_c, 6, 60, 113
11, 21450, Note_on_c, 6, 64, 113
11, 21450, Note_on_c, 6, 67, 113
11, 21479, Note_on_c, 6, 67, 0
11, 21479, Note_on_c, 6, 64, 0
11, 21479, Note_on_c, 6, 60, 0
11, 21480, Note_on_c, 6, 60, 113
11, 21480, Note_on_c, 6, 64, 113
11, 21480, Note_on_c, 6, 67, 113
11, 21539, Note_on_c, 6, 67, 0
11, 21539, Note_on_c, 6, 64, 0
11, 21539, Note_on_c, 6, 60, 0
11, 21540, Note_on_c, 6, 64, 113
11, 21540, Note_on_c, 6, 60, 113
11, 21540, Note_on_c, 6, 69, 113
11, 21599, Note_on_c, 6, 69, 0
11, 21599, Note_on_c, 6, 60, 0
11, 21599, Note_on_c, 6, 64, 0
11, 21600, Note_on_c, 6, 62, 113
11, 21600, Note_on_c, 6, 65, 113
11, 21600, Note_on_c, 6, 70, 113
11, 21659, Note_on_c, 6, 70, 0
11, 21659, Note_on_c, 6, 65, 0
11, 21659, Note_on_c, 6, 62, 0
11, 21660, Note_on_c, 6, 62, 113
11, 21660, Note_on_c, 6, 65, 113
11, 21660, Note_on_c, 6, 69, 113
11, 21689, Note_on_c, 6, 69, 0
11, 21689, Note_on_c, 6, 65, 0
11, 21689, Note_on_c, 6, 62, 0
11, 21690, Note_on_c, 6, 55, 113
11, 21690, Note_on_c, 6, 58, 113
11, 21690, Note_on_c, 6, 62, 113
11, 21779, Note_on_c, 6, 62, 0
11, 21779, Note_on_c, 6, 58, 0
11, 21779, Note_on_c, 6, 55, 0
11, 21960, Note_on_c, 6, 55, 113
11, 21960, Note_on_c, 6, 58, 113
11, 21960, Note_on_c, 6, 62, 113
11, 22019, Note_on_c, 6, 62, 0
11, 22019, Note_on_c, 6, 58, 0
11, 22019, Note_on_c, 6, 55, 0
11, 22020, Note_on_c, 6, 58, 113
11, 22020, Note_on_c, 6, 62, 113
11, 22020, Note_on_c, 6, 65, 113
11, 22379, Note_on_c, 6, 65, 0
11, 22379, Note_on_c, 6, 62, 0
11, 22379, Note_on_c, 6, 58, 0
11, 22379, End_track
12, 0, Start_track
12, 0, MIDI_port, 0
12, 0, Title_t, "Bel-Chime"
12, 0, Program_c, 7, 88
12, 0, Control_c, 7, 7, 100
12, 0, Control_c, 7, 91, 70
12, 0, Control_c, 7, 93, 20
12, 8760, Note_on_c, 7, 76, 100
12, 8760, Note_on_c, 7, 64, 100
12, 8879, Note_on_c, 7, 64, 0
12, 8879, Note_on_c, 7, 76, 0
12, 8880, Note_on_c, 7, 77, 100
12, 8880, Note_on_c, 7, 65, 100
12, 8999, Note_on_c, 7, 65, 0
12, 8999, Note_on_c, 7, 77, 0
12, 9000, Note_on_c, 7, 79, 100
12, 9000, Note_on_c, 7, 67, 100
12, 9119, Note_on_c, 7, 67, 0
12, 9119, Note_on_c, 7, 79, 0
12, 9120, Note_on_c, 7, 81, 100
12, 9120, Note_on_c, 7, 69, 100
12, 9329, Note_on_c, 7, 69, 0
12, 9329, Note_on_c, 7, 81, 0
12, 9660, Note_on_c, 7, 60, 100
12, 9660, Note_on_c, 7, 72, 100
12, 9719, Note_on_c, 7, 72, 0
12, 9719, Note_on_c, 7, 60, 0
12, 9720, Note_on_c, 7, 77, 100
12, 9720, Note_on_c, 7, 65, 100
12, 9779, Note_on_c, 7, 65, 0
12, 9779, Note_on_c, 7, 77, 0
12, 9780, Note_on_c, 7, 82, 100
12, 9780, Note_on_c, 7, 70, 100
12, 9839, Note_on_c, 7, 70, 0
12, 9839, Note_on_c, 7, 82, 0
12, 9840, Note_on_c, 7, 81, 100
12, 9840, Note_on_c, 7, 69, 100
12, 9959, Note_on_c, 7, 69, 0
12, 9959, Note_on_c, 7, 81, 0
12, 9960, Note_on_c, 7, 79, 100
12, 9960, Note_on_c, 7, 67, 100
12, 10079, Note_on_c, 7, 67, 0
12, 10079, Note_on_c, 7, 79, 0
12, 10080, Note_on_c, 7, 77, 100
12, 10080, Note_on_c, 7, 65, 100
12, 10289, Note_on_c, 7, 65, 0
12, 10289, Note_on_c, 7, 77, 0
12, 10680, Note_on_c, 7, 64, 100
12, 10680, Note_on_c, 7, 76, 100
12, 10799, Note_on_c, 7, 76, 0
12, 10799, Note_on_c, 7, 64, 0
12, 10800, Note_on_c, 7, 65, 100
12, 10800, Note_on_c, 7, 77, 100
12, 10919, Note_on_c, 7, 77, 0
12, 10919, Note_on_c, 7, 65, 0
12, 10920, Note_on_c, 7, 67, 100
12, 10920, Note_on_c, 7, 79, 100
12, 11039, Note_on_c, 7, 79, 0
12, 11039, Note_on_c, 7, 67, 0
12, 19320, Note_on_c, 7, 76, 100
12, 19320, Note_on_c, 7, 64, 100
12, 19439, Note_on_c, 7, 64, 0
12, 19439, Note_on_c, 7, 76, 0
12, 19440, Note_on_c, 7, 77, 100
12, 19440, Note_on_c, 7, 65, 100
12, 19559, Note_on_c, 7, 65, 0
12, 19559, Note_on_c, 7, 77, 0
12, 19560, Note_on_c, 7, 79, 100
12, 19560, Note_on_c, 7, 67, 100
12, 19679, Note_on_c, 7, 67, 0
12, 19679, Note_on_c, 7, 79, 0
12, 19680, Note_on_c, 7, 81, 100
12, 19680, Note_on_c, 7, 69, 100
12, 20039, Note_on_c, 7, 69, 0
12, 20039, Note_on_c, 7, 81, 0
12, 20220, Note_on_c, 7, 58, 100
12, 20220, Note_on_c, 7, 70, 100
12, 20279, Note_on_c, 7, 70, 0
12, 20279, Note_on_c, 7, 58, 0
12, 20280, Note_on_c, 7, 62, 100
12, 20280, Note_on_c, 7, 74, 100
12, 20339, Note_on_c, 7, 74, 0
12, 20339, Note_on_c, 7, 62, 0
12, 20340, Note_on_c, 7, 82, 100
12, 20340, Note_on_c, 7, 70, 100
12, 20399, Note_on_c, 7, 70, 0
12, 20399, Note_on_c, 7, 82, 0
12, 20400, Note_on_c, 7, 69, 100
12, 20400, Note_on_c, 7, 81, 100
12, 20519, Note_on_c, 7, 81, 0
12, 20519, Note_on_c, 7, 69, 0
12, 20520, Note_on_c, 7, 67, 100
12, 20520, Note_on_c, 7, 79, 100
12, 20639, Note_on_c, 7, 79, 0
12, 20639, Note_on_c, 7, 67, 0
12, 20640, Note_on_c, 7, 77, 100
12, 20640, Note_on_c, 7, 65, 100
12, 20879, Note_on_c, 7, 65, 0
12, 20879, Note_on_c, 7, 77, 0
12, 21240, Note_on_c, 7, 76, 100
12, 21240, Note_on_c, 7, 64, 100
12, 21359, Note_on_c, 7, 64, 0
12, 21359, Note_on_c, 7, 76, 0
12, 21360, Note_on_c, 7, 65, 100
12, 21360, Note_on_c, 7, 77, 100
12, 21479, Note_on_c, 7, 77, 0
12, 21479, Note_on_c, 7, 65, 0
12, 21480, Note_on_c, 7, 67, 100
12, 21480, Note_on_c, 7, 79, 100
12, 21599, Note_on_c, 7, 79, 0
12, 21599, Note_on_c, 7, 67, 0
12, 21600, Note_on_c, 7, 74, 100
12, 21600, Note_on_c, 7, 62, 100
12, 21839, Note_on_c, 7, 62, 0
12, 21839, Note_on_c, 7, 74, 0
12, 28380, Note_on_c, 7, 58, 100
12, 28380, Note_on_c, 7, 70, 100
12, 28439, Note_on_c, 7, 70, 0
12, 28439, Note_on_c, 7, 58, 0
12, 28440, Note_on_c, 7, 65, 100
12, 28440, Note_on_c, 7, 77, 100
12, 28499, Note_on_c, 7, 77, 0
12, 28499, Note_on_c, 7, 65, 0
12, 28500, Note_on_c, 7, 70, 100
12, 28500, Note_on_c, 7, 82, 100
12, 28559, Note_on_c, 7, 82, 0
12, 28559, Note_on_c, 7, 70, 0
12, 28560, Note_on_c, 7, 69, 100
12, 28560, Note_on_c, 7, 81, 100
12, 28679, Note_on_c, 7, 81, 0
12, 28679, Note_on_c, 7, 69, 0
12, 28680, Note_on_c, 7, 67, 100
12, 28680, Note_on_c, 7, 79, 100
12, 28799, Note_on_c, 7, 79, 0
12, 28799, Note_on_c, 7, 67, 0
12, 29400, Note_on_c, 7, 64, 100
12, 29400, Note_on_c, 7, 76, 100
12, 29519, Note_on_c, 7, 76, 0
12, 29519, Note_on_c, 7, 64, 0
12, 29520, Note_on_c, 7, 65, 100
12, 29520, Note_on_c, 7, 77, 100
12, 29639, Note_on_c, 7, 77, 0
12, 29639, Note_on_c, 7, 65, 0
12, 29640, Note_on_c, 7, 67, 100
12, 29640, Note_on_c, 7, 79, 100
12, 29759, Note_on_c, 7, 79, 0
12, 29759, Note_on_c, 7, 67, 0
12, 29760, Note_on_c, 7, 62, 100
12, 29760, Note_on_c, 7, 74, 100
12, 30119, Note_on_c, 7, 74, 0
12, 30119, Note_on_c, 7, 62, 0
12, 31320, Note_on_c, 7, 64, 100
12, 31320, Note_on_c, 7, 76, 100
12, 31439, Note_on_c, 7, 76, 0
12, 31439, Note_on_c, 7, 64, 0
12, 31440, Note_on_c, 7, 65, 100
12, 31440, Note_on_c, 7, 77, 100
12, 31559, Note_on_c, 7, 77, 0
12, 31559, Note_on_c, 7, 65, 0
12, 31560, Note_on_c, 7, 79, 100
12, 31560, Note_on_c, 7, 67, 100
12, 31679, Note_on_c, 7, 67, 0
12, 31679, Note_on_c, 7, 79, 0
12, 31680, Note_on_c, 7, 69, 100
12, 31680, Note_on_c, 7, 81, 100
12, 32159, Note_on_c, 7, 81, 0
12, 32159, Note_on_c, 7, 69, 0
12, 32220, Note_on_c, 7, 70, 100
12, 32220, Note_on_c, 7, 58, 100
12, 32279, Note_on_c, 7, 58, 0
12, 32279, Note_on_c, 7, 70, 0
12, 32280, Note_on_c, 7, 65, 100
12, 32280, Note_on_c, 7, 77, 100
12, 32339, Note_on_c, 7, 77, 0
12, 32339, Note_on_c, 7, 65, 0
12, 32340, Note_on_c, 7, 70, 100
12, 32340, Note_on_c, 7, 82, 100
12, 32399, Note_on_c, 7, 82, 0
12, 32399, Note_on_c, 7, 70, 0
12, 32400, Note_on_c, 7, 69, 100
12, 32400, Note_on_c, 7, 81, 100
12, 32519, Note_on_c, 7, 81, 0
12, 32519, Note_on_c, 7, 69, 0
12, 32520, Note_on_c, 7, 67, 100
12, 32520, Note_on_c, 7, 79, 100
12, 32639, Note_on_c, 7, 79, 0
12, 32639, Note_on_c, 7, 67, 0
12, 32640, Note_on_c, 7, 65, 100
12, 32640, Note_on_c, 7, 77, 100
12, 32642, Control_c, 7, 7, 99
12, 32657, Control_c, 7, 7, 98
12, 32672, Control_c, 7, 7, 97
12, 32687, Control_c, 7, 7, 96
12, 32702, Control_c, 7, 7, 95
12, 32717, Control_c, 7, 7, 94
12, 32730, Control_c, 7, 7, 93
12, 32745, Control_c, 7, 7, 92
12, 32760, Control_c, 7, 7, 91
12, 32775, Control_c, 7, 7, 90
12, 32790, Control_c, 7, 7, 89
12, 32802, Control_c, 7, 7, 88
12, 32817, Control_c, 7, 7, 87
12, 32832, Control_c, 7, 7, 86
12, 32847, Control_c, 7, 7, 85
12, 32862, Control_c, 7, 7, 84
12, 32875, Control_c, 7, 7, 83
12, 32890, Control_c, 7, 7, 82
12, 32905, Control_c, 7, 7, 81
12, 32920, Control_c, 7, 7, 80
12, 32935, Control_c, 7, 7, 79
12, 32947, Control_c, 7, 7, 78
12, 32962, Control_c, 7, 7, 77
12, 32977, Control_c, 7, 7, 76
12, 32992, Control_c, 7, 7, 75
12, 32999, Note_on_c, 7, 77, 0
12, 32999, Note_on_c, 7, 65, 0
12, 33007, Control_c, 7, 7, 74
12, 33022, Control_c, 7, 7, 73
12, 33035, Control_c, 7, 7, 72
12, 33050, Control_c, 7, 7, 71
12, 33065, Control_c, 7, 7, 70
12, 33080, Control_c, 7, 7, 69
12, 33095, Control_c, 7, 7, 68
12, 33107, Control_c, 7, 7, 67
12, 33122, Control_c, 7, 7, 66
12, 33137, Control_c, 7, 7, 65
12, 33152, Control_c, 7, 7, 64
12, 33167, Control_c, 7, 7, 63
12, 33180, Control_c, 7, 7, 62
12, 33195, Control_c, 7, 7, 61
12, 33210, Control_c, 7, 7, 60
12, 33225, Control_c, 7, 7, 59
12, 33240, Note_on_c, 7, 64, 100
12, 33240, Note_on_c, 7, 76, 100
12, 33240, Control_c, 7, 7, 58
12, 33252, Control_c, 7, 7, 57
12, 33267, Control_c, 7, 7, 56
12, 33282, Control_c, 7, 7, 55
12, 33297, Control_c, 7, 7, 54
12, 33312, Control_c, 7, 7, 53
12, 33325, Control_c, 7, 7, 52
12, 33340, Control_c, 7, 7, 51
12, 33355, Control_c, 7, 7, 50
12, 33359, Note_on_c, 7, 76, 0
12, 33359, Note_on_c, 7, 64, 0
12, 33360, Note_on_c, 7, 65, 100
12, 33360, Note_on_c, 7, 77, 100
12, 33370, Control_c, 7, 7, 49
12, 33385, Control_c, 7, 7, 48
12, 33400, Control_c, 7, 7, 47
12, 33412, Control_c, 7, 7, 46
12, 33427, Control_c, 7, 7, 45
12, 33442, Control_c, 7, 7, 44
12, 33457, Control_c, 7, 7, 43
12, 33472, Control_c, 7, 7, 42
12, 33479, Note_on_c, 7, 77, 0
12, 33479, Note_on_c, 7, 65, 0
12, 33480, Note_on_c, 7, 67, 100
12, 33480, Note_on_c, 7, 79, 100
12, 33485, Control_c, 7, 7, 41
12, 33500, Control_c, 7, 7, 40
12, 33515, Control_c, 7, 7, 39
12, 33530, Control_c, 7, 7, 38
12, 33545, Control_c, 7, 7, 37
12, 33557, Control_c, 7, 7, 36
12, 33572, Control_c, 7, 7, 35
12, 33587, Control_c, 7, 7, 34
12, 33599, Note_on_c, 7, 79, 0
12, 33599, Note_on_c, 7, 67, 0
12, 33600, Note_on_c, 7, 62, 100
12, 33600, Note_on_c, 7, 74, 100
12, 33602, Control_c, 7, 7, 33
12, 33617, Control_c, 7, 7, 32
12, 33630, Control_c, 7, 7, 31
12, 33645, Control_c, 7, 7, 30
12, 33660, Control_c, 7, 7, 29
12, 33675, Control_c, 7, 7, 28
12, 33690, Control_c, 7, 7, 27
12, 33702, Control_c, 7, 7, 26
12, 33717, Control_c, 7, 7, 25
12, 33732, Control_c, 7, 7, 24
12, 33747, Control_c, 7, 7, 23
12, 33762, Control_c, 7, 7, 22
12, 33777, Control_c, 7, 7, 21
12, 33790, Control_c, 7, 7, 20
12, 33805, Control_c, 7, 7, 19
12, 33820, Control_c, 7, 7, 18
12, 33835, Control_c, 7, 7, 17
12, 33850, Control_c, 7, 7, 16
12, 33862, Control_c, 7, 7, 15
12, 33877, Control_c, 7, 7, 14
12, 33892, Control_c, 7, 7, 13
12, 33907, Control_c, 7, 7, 12
12, 33922, Control_c, 7, 7, 11
12, 33935, Control_c, 7, 7, 10
12, 33950, Control_c, 7, 7, 9
12, 33959, Note_on_c, 7, 74, 0
12, 33959, Note_on_c, 7, 62, 0
12, 33965, Control_c, 7, 7, 8
12, 33980, Control_c, 7, 7, 7
12, 33995, Control_c, 7, 7, 6
12, 34007, Control_c, 7, 7, 5
12, 34022, Control_c, 7, 7, 4
12, 34037, Control_c, 7, 7, 3
12, 34052, Control_c, 7, 7, 2
12, 34067, Control_c, 7, 7, 1
12, 34080, Control_c, 7, 7, 0
12, 34080, End_track
13, 0, Start_track
13, 0, MIDI_port, 0
13, 0, Title_t, "Dist.Guit"
13, 0, Program_c, 8, 30
13, 0, Control_c, 8, 7, 100
13, 0, Control_c, 8, 93, 70
13, 0, Control_c, 8, 91, 100
13, 482, Pitch_bend_c, 8, 8192
13, 12270, Note_on_c, 8, 67, 80
13, 12389, Note_on_c, 8, 67, 0
13, 12390, Note_on_c, 8, 69, 80
13, 12404, Note_on_c, 8, 69, 0
13, 12405, Note_on_c, 8, 67, 80
13, 12419, Note_on_c, 8, 67, 0
13, 12420, Note_on_c, 8, 65, 80
13, 12539, Note_on_c, 8, 65, 0
13, 12540, Note_on_c, 8, 67, 80
13, 12944, Note_on_c, 8, 67, 0
13, 13800, Note_on_c, 8, 65, 87
13, 13889, Note_on_c, 8, 65, 0
13, 13890, Note_on_c, 8, 67, 87
13, 13905, Note_on_c, 8, 65, 75
13, 13909, Note_on_c, 8, 67, 0
13, 13920, Note_on_c, 8, 64, 85
13, 13924, Note_on_c, 8, 65, 0
13, 14279, Note_on_c, 8, 64, 0
13, 14745, Note_on_c, 8, 60, 79
13, 14759, Note_on_c, 8, 60, 0
13, 14760, Note_on_c, 8, 62, 100
13, 14789, Note_on_c, 8, 62, 0
13, 14790, Note_on_c, 8, 65, 89
13, 14812, Control_c, 8, 1, 0
13, 14814, Control_c, 8, 1, 11
13, 14816, Control_c, 8, 1, 23
13, 14818, Control_c, 8, 1, 34
13, 14819, Note_on_c, 8, 65, 0
13, 14820, Note_on_c, 8, 65, 91
13, 14820, Control_c, 8, 1, 46
13, 14822, Control_c, 8, 1, 57
13, 14824, Control_c, 8, 1, 69
13, 14826, Control_c, 8, 1, 80
13, 14828, Control_c, 8, 1, 92
13, 14830, Control_c, 8, 1, 103
13, 14832, Control_c, 8, 1, 115
13, 14834, Control_c, 8, 1, 127
13, 14962, Control_c, 8, 1, 0
13, 14969, Note_on_c, 8, 65, 0
13, 14970, Note_on_c, 8, 62, 100
13, 14984, Note_on_c, 8, 62, 0
13, 14985, Note_on_c, 8, 60, 100
13, 14999, Note_on_c, 8, 60, 0
13, 15000, Note_on_c, 8, 62, 100
13, 15044, Note_on_c, 8, 62, 0
13, 15045, Note_on_c, 8, 60, 87
13, 15059, Note_on_c, 8, 60, 0
13, 15060, Note_on_c, 8, 57, 79
13, 15074, Note_on_c, 8, 57, 0
13, 16185, Note_on_c, 8, 67, 91
13, 16199, Note_on_c, 8, 67, 0
13, 16200, Note_on_c, 8, 69, 93
13, 16229, Note_on_c, 8, 69, 0
13, 16230, Note_on_c, 8, 69, 86
13, 16260, Note_on_c, 8, 74, 84
13, 16289, Note_on_c, 8, 74, 0
13, 16289, Note_on_c, 8, 69, 0
13, 16290, Note_on_c, 8, 69, 85
13, 16319, Note_on_c, 8, 69, 0
13, 16320, Note_on_c, 8, 74, 77
13, 16386, Control_c, 8, 1, 0
13, 16388, Control_c, 8, 1, 1
13, 16390, Control_c, 8, 1, 4
13, 16392, Control_c, 8, 1, 6
13, 16394, Control_c, 8, 1, 9
13, 16396, Control_c, 8, 1, 12
13, 16398, Control_c, 8, 1, 14
13, 16400, Control_c, 8, 1, 17
13, 16402, Control_c, 8, 1, 19
13, 16404, Control_c, 8, 1, 22
13, 16406, Control_c, 8, 1, 25
13, 16408, Control_c, 8, 1, 27
13, 16410, Control_c, 8, 1, 30
13, 16412, Control_c, 8, 1, 32
13, 16414, Control_c, 8, 1, 35
13, 16416, Control_c, 8, 1, 38
13, 16418, Control_c, 8, 1, 40
13, 16420, Control_c, 8, 1, 43
13, 16422, Control_c, 8, 1, 46
13, 16424, Control_c, 8, 1, 48
13, 16426, Control_c, 8, 1, 51
13, 16428, Control_c, 8, 1, 53
13, 16430, Control_c, 8, 1, 56
13, 16432, Control_c, 8, 1, 59
13, 16434, Control_c, 8, 1, 61
13, 16436, Control_c, 8, 1, 64
13, 16438, Control_c, 8, 1, 66
13, 16440, Control_c, 8, 1, 69
13, 16442, Control_c, 8, 1, 72
13, 16444, Control_c, 8, 1, 74
13, 16446, Control_c, 8, 1, 77
13, 16448, Control_c, 8, 1, 79
13, 16450, Control_c, 8, 1, 82
13, 16452, Control_c, 8, 1, 85
13, 16454, Control_c, 8, 1, 87
13, 16456, Control_c, 8, 1, 90
13, 16458, Control_c, 8, 1, 93
13, 16460, Control_c, 8, 1, 95
13, 16462, Control_c, 8, 1, 98
13, 16464, Control_c, 8, 1, 100
13, 16466, Control_c, 8, 1, 103
13, 16468, Control_c, 8, 1, 106
13, 16470, Control_c, 8, 1, 108
13, 16472, Control_c, 8, 1, 111
13, 16474, Control_c, 8, 1, 113
13, 16476, Control_c, 8, 1, 116
13, 16478, Control_c, 8, 1, 119
13, 16480, Control_c, 8, 1, 121
13, 16482, Control_c, 8, 1, 124
13, 16484, Control_c, 8, 1, 127
13, 16679, Note_on_c, 8, 74, 0
13, 16680, Control_c, 8, 1, 0
13, 18720, Note_on_c, 8, 53, 100
13, 18959, Note_on_c, 8, 53, 0
13, 18960, Note_on_c, 8, 46, 100
13, 19199, Note_on_c, 8, 46, 0
13, 19200, Note_on_c, 8, 48, 100
13, 19679, Note_on_c, 8, 48, 0
13, 19680, Note_on_c, 8, 53, 100
13, 19919, Note_on_c, 8, 53, 0
13, 19920, Note_on_c, 8, 45, 100
13, 20159, Note_on_c, 8, 45, 0
13, 20160, Note_on_c, 8, 46, 100
13, 20399, Note_on_c, 8, 46, 0
13, 20400, Note_on_c, 8, 48, 100
13, 20639, Note_on_c, 8, 48, 0
13, 20640, Note_on_c, 8, 53, 100
13, 20879, Note_on_c, 8, 53, 0
13, 20880, Note_on_c, 8, 46, 100
13, 21119, Note_on_c, 8, 46, 0
13, 21120, Note_on_c, 8, 48, 100
13, 21599, Note_on_c, 8, 48, 0
13, 21600, Note_on_c, 8, 43, 100
13, 22019, Note_on_c, 8, 43, 0
13, 22020, Note_on_c, 8, 45, 100
13, 22079, Note_on_c, 8, 45, 0
13, 22080, Note_on_c, 8, 46, 100
13, 22499, Note_on_c, 8, 46, 0
13, 22552, Control_c, 8, 74, 63
13, 22560, Note_on_c, 8, 69, 100
13, 22560, Control_c, 8, 1, 1
13, 22562, Control_c, 8, 1, 5
13, 22564, Control_c, 8, 1, 10
13, 22566, Control_c, 8, 1, 15
13, 22568, Control_c, 8, 1, 19
13, 22570, Control_c, 8, 1, 24
13, 22572, Control_c, 8, 1, 29
13, 22574, Control_c, 8, 1, 33
13, 22576, Control_c, 8, 1, 38
13, 22578, Control_c, 8, 1, 43
13, 22580, Control_c, 8, 1, 47
13, 22582, Control_c, 8, 1, 52
13, 22584, Control_c, 8, 1, 57
13, 22586, Control_c, 8, 1, 61
13, 22588, Control_c, 8, 1, 66
13, 22590, Control_c, 8, 1, 71
13, 22592, Control_c, 8, 1, 75
13, 22594, Control_c, 8, 1, 80
13, 22596, Control_c, 8, 1, 85
13, 22598, Control_c, 8, 1, 89
13, 22600, Control_c, 8, 1, 94
13, 22602, Control_c, 8, 1, 99
13, 22604, Control_c, 8, 1, 103
13, 22606, Control_c, 8, 1, 108
13, 22608, Control_c, 8, 1, 113
13, 22610, Control_c, 8, 1, 117
13, 22612, Control_c, 8, 1, 122
13, 22614, Control_c, 8, 1, 127
13, 22616, Control_c, 8, 1, 0
13, 22618, Control_c, 8, 1, 3
13, 22620, Control_c, 8, 1, 7
13, 22622, Control_c, 8, 1, 11
13, 22624, Control_c, 8, 1, 15
13, 22626, Control_c, 8, 1, 19
13, 22628, Control_c, 8, 1, 23
13, 22630, Control_c, 8, 1, 27
13, 22632, Control_c, 8, 1, 31
13, 22634, Control_c, 8, 1, 35
13, 22636, Control_c, 8, 1, 39
13, 22638, Control_c, 8, 1, 43
13, 22640, Control_c, 8, 1, 47
13, 22642, Control_c, 8, 1, 51
13, 22644, Control_c, 8, 1, 55
13, 22646, Control_c, 8, 1, 59
13, 22648, Control_c, 8, 1, 63
13, 22650, Control_c, 8, 1, 67
13, 22652, Control_c, 8, 1, 71
13, 22654, Control_c, 8, 1, 75
13, 22656, Control_c, 8, 1, 79
13, 22658, Control_c, 8, 1, 83
13, 22660, Control_c, 8, 1, 87
13, 22662, Control_c, 8, 1, 91
13, 22664, Control_c, 8, 1, 95
13, 22666, Control_c, 8, 1, 99
13, 22668, Control_c, 8, 1, 103
13, 22670, Control_c, 8, 1, 107
13, 22672, Control_c, 8, 1, 111
13, 22674, Control_c, 8, 1, 115
13, 22676, Control_c, 8, 1, 119
13, 22678, Control_c, 8, 1, 123
13, 22680, Control_c, 8, 1, 0
13, 22682, Control_c, 8, 1, 3
13, 22684, Control_c, 8, 1, 7
13, 22686, Control_c, 8, 1, 12
13, 22688, Control_c, 8, 1, 16
13, 22690, Control_c, 8, 1, 21
13, 22692, Control_c, 8, 1, 25
13, 22694, Control_c, 8, 1, 29
13, 22696, Control_c, 8, 1, 34
13, 22698, Control_c, 8, 1, 38
13, 22700, Control_c, 8, 1, 43
13, 22702, Control_c, 8, 1, 47
13, 22704, Control_c, 8, 1, 51
13, 22706, Control_c, 8, 1, 56
13, 22708, Control_c, 8, 1, 60
13, 22710, Control_c, 8, 1, 65
13, 22712, Control_c, 8, 1, 69
13, 22714, Control_c, 8, 1, 74
13, 22716, Control_c, 8, 1, 78
13, 22718, Control_c, 8, 1, 82
13, 22720, Control_c, 8, 1, 87
13, 22722, Control_c, 8, 1, 91
13, 22724, Control_c, 8, 1, 96
13, 22726, Control_c, 8, 1, 100
13, 22728, Control_c, 8, 1, 104
13, 22730, Control_c, 8, 1, 109
13, 22732, Control_c, 8, 1, 113
13, 22734, Control_c, 8, 1, 118
13, 22736, Control_c, 8, 1, 122
13, 22738, Control_c, 8, 1, 127
13, 22740, Control_c, 8, 1, 0
13, 22742, Control_c, 8, 1, 4
13, 22744, Control_c, 8, 1, 8
13, 22746, Control_c, 8, 1, 12
13, 22748, Control_c, 8, 1, 16
13, 22750, Control_c, 8, 1, 21
13, 22752, Control_c, 8, 1, 25
13, 22754, Control_c, 8, 1, 29
13, 22756, Control_c, 8, 1, 33
13, 22758, Control_c, 8, 1, 38
13, 22760, Control_c, 8, 1, 42
13, 22762, Control_c, 8, 1, 46
13, 22764, Control_c, 8, 1, 50
13, 22766, Control_c, 8, 1, 55
13, 22768, Control_c, 8, 1, 59
13, 22770, Control_c, 8, 1, 63
13, 22772, Control_c, 8, 1, 67
13, 22774, Control_c, 8, 1, 71
13, 22776, Control_c, 8, 1, 76
13, 22778, Control_c, 8, 1, 80
13, 22780, Control_c, 8, 1, 84
13, 22782, Control_c, 8, 1, 88
13, 22784, Control_c, 8, 1, 93
13, 22786, Control_c, 8, 1, 97
13, 22788, Control_c, 8, 1, 101
13, 22790, Control_c, 8, 1, 105
13, 22792, Control_c, 8, 1, 110
13, 22794, Control_c, 8, 1, 114
13, 22796, Control_c, 8, 1, 118
13, 22798, Control_c, 8, 1, 122
13, 22799, Note_on_c, 8, 69, 0
13, 22800, Note_on_c, 8, 69, 100
13, 22800, Control_c, 8, 1, 0
13, 22829, Note_on_c, 8, 69, 0
13, 22830, Note_on_c, 8, 67, 100
13, 22844, Note_on_c, 8, 67, 0
13, 22845, Note_on_c, 8, 65, 100
13, 22859, Note_on_c, 8, 65, 0
13, 22860, Note_on_c, 8, 62, 100
13, 22949, Note_on_c, 8, 62, 0
13, 22980, Note_on_c, 8, 67, 100
13, 23009, Note_on_c, 8, 67, 0
13, 23010, Note_on_c, 8, 65, 100
13, 23039, Note_on_c, 8, 65, 0
13, 23040, Note_on_c, 8, 67, 100
13, 23040, Control_c, 8, 1, 0
13, 23042, Control_c, 8, 1, 5
13, 23044, Control_c, 8, 1, 12
13, 23046, Control_c, 8, 1, 19
13, 23048, Control_c, 8, 1, 25
13, 23050, Control_c, 8, 1, 32
13, 23052, Control_c, 8, 1, 39
13, 23054, Control_c, 8, 1, 46
13, 23056, Control_c, 8, 1, 52
13, 23058, Control_c, 8, 1, 59
13, 23060, Control_c, 8, 1, 66
13, 23062, Control_c, 8, 1, 73
13, 23064, Control_c, 8, 1, 79
13, 23066, Control_c, 8, 1, 86
13, 23068, Control_c, 8, 1, 93
13, 23070, Control_c, 8, 1, 100
13, 23072, Control_c, 8, 1, 106
13, 23074, Control_c, 8, 1, 113
13, 23076, Control_c, 8, 1, 120
13, 23078, Control_c, 8, 1, 127
13, 23082, Control_c, 8, 1, 0
13, 23129, Note_on_c, 8, 67, 0
13, 23130, Note_on_c, 8, 65, 100
13, 23159, Note_on_c, 8, 65, 0
13, 23160, Note_on_c, 8, 67, 100
13, 23324, Note_on_c, 8, 67, 0
13, 23430, Note_on_c, 8, 69, 100
13, 23459, Note_on_c, 8, 69, 0
13, 23460, Note_on_c, 8, 72, 100
13, 23489, Note_on_c, 8, 72, 0
13, 23490, Note_on_c, 8, 74, 100
13, 23519, Note_on_c, 8, 74, 0
13, 23520, Note_on_c, 8, 74, 100
13, 23572, Control_c, 8, 1, 0
13, 23574, Control_c, 8, 1, 0
13, 23576, Control_c, 8, 1, 1
13, 23578, Control_c, 8, 1, 4
13, 23580, Control_c, 8, 1, 7
13, 23582, Control_c, 8, 1, 9
13, 23584, Control_c, 8, 1, 12
13, 23586, Control_c, 8, 1, 15
13, 23588, Control_c, 8, 1, 18
13, 23590, Control_c, 8, 1, 21
13, 23592, Control_c, 8, 1, 23
13, 23594, Control_c, 8, 1, 26
13, 23596, Control_c, 8, 1, 29
13, 23598, Control_c, 8, 1, 32
13, 23600, Control_c, 8, 1, 35
13, 23602, Control_c, 8, 1, 37
13, 23604, Control_c, 8, 1, 40
13, 23606, Control_c, 8, 1, 43
13, 23608, Control_c, 8, 1, 46
13, 23610, Control_c, 8, 1, 48
13, 23612, Control_c, 8, 1, 51
13, 23614, Control_c, 8, 1, 54
13, 23616, Control_c, 8, 1, 57
13, 23618, Control_c, 8, 1, 60
13, 23620, Control_c, 8, 1, 62
13, 23622, Control_c, 8, 1, 65
13, 23624, Control_c, 8, 1, 68
13, 23626, Control_c, 8, 1, 71
13, 23628, Control_c, 8, 1, 74
13, 23630, Control_c, 8, 1, 76
13, 23632, Control_c, 8, 1, 79
13, 23634, Control_c, 8, 1, 82
13, 23636, Control_c, 8, 1, 85
13, 23638, Control_c, 8, 1, 87
13, 23640, Control_c, 8, 1, 90
13, 23642, Control_c, 8, 1, 93
13, 23644, Control_c, 8, 1, 96
13, 23646, Control_c, 8, 1, 99
13, 23648, Control_c, 8, 1, 101
13, 23650, Control_c, 8, 1, 104
13, 23652, Control_c, 8, 1, 107
13, 23654, Control_c, 8, 1, 110
13, 23656, Control_c, 8, 1, 113
13, 23658, Control_c, 8, 1, 115
13, 23660, Control_c, 8, 1, 118
13, 23662, Control_c, 8, 1, 121
13, 23664, Control_c, 8, 1, 124
13, 23666, Control_c, 8, 1, 127
13, 23674, Control_c, 8, 1, 0
13, 23719, Note_on_c, 8, 74, 0
13, 23720, Note_on_c, 8, 72, 100
13, 23739, Note_on_c, 8, 72, 0
13, 23740, Note_on_c, 8, 69, 100
13, 23759, Note_on_c, 8, 69, 0
13, 23760, Note_on_c, 8, 77, 100
13, 23789, Note_on_c, 8, 77, 0
13, 23790, Note_on_c, 8, 74, 100
13, 23960, Note_on_c, 8, 72, 100
13, 23969, Note_on_c, 8, 74, 0
13, 23979, Note_on_c, 8, 72, 0
13, 23980, Note_on_c, 8, 69, 100
13, 23999, Note_on_c, 8, 69, 0
13, 24000, Note_on_c, 8, 79, 100
13, 24000, Control_c, 8, 1, 0
13, 24002, Control_c, 8, 1, 1
13, 24004, Control_c, 8, 1, 4
13, 24006, Control_c, 8, 1, 8
13, 24008, Control_c, 8, 1, 11
13, 24010, Control_c, 8, 1, 15
13, 24012, Control_c, 8, 1, 18
13, 24014, Control_c, 8, 1, 22
13, 24016, Control_c, 8, 1, 25
13, 24018, Control_c, 8, 1, 28
13, 24020, Control_c, 8, 1, 32
13, 24022, Control_c, 8, 1, 35
13, 24024, Control_c, 8, 1, 39
13, 24026, Control_c, 8, 1, 42
13, 24028, Control_c, 8, 1, 46
13, 24030, Control_c, 8, 1, 49
13, 24032, Control_c, 8, 1, 52
13, 24034, Control_c, 8, 1, 56
13, 24036, Control_c, 8, 1, 59
13, 24038, Control_c, 8, 1, 63
13, 24040, Control_c, 8, 1, 66
13, 24042, Control_c, 8, 1, 70
13, 24044, Control_c, 8, 1, 73
13, 24046, Control_c, 8, 1, 76
13, 24048, Control_c, 8, 1, 80
13, 24050, Control_c, 8, 1, 83
13, 24052, Control_c, 8, 1, 87
13, 24054, Control_c, 8, 1, 90
13, 24056, Control_c, 8, 1, 94
13, 24058, Control_c, 8, 1, 97
13, 24060, Control_c, 8, 1, 100
13, 24062, Control_c, 8, 1, 104
13, 24064, Control_c, 8, 1, 107
13, 24066, Control_c, 8, 1, 111
13, 24068, Control_c, 8, 1, 114
13, 24070, Control_c, 8, 1, 118
13, 24072, Control_c, 8, 1, 121
13, 24074, Control_c, 8, 1, 125
13, 24079, Note_on_c, 8, 79, 0
13, 24080, Note_on_c, 8, 77, 100
13, 24082, Control_c, 8, 1, 0
13, 24099, Note_on_c, 8, 77, 0
13, 24100, Note_on_c, 8, 74, 100
13, 24119, Note_on_c, 8, 74, 0
13, 24120, Note_on_c, 8, 74, 100
13, 24199, Note_on_c, 8, 74, 0
13, 24200, Note_on_c, 8, 69, 100
13, 24219, Note_on_c, 8, 69, 0
13, 24220, Note_on_c, 8, 67, 100
13, 24239, Note_on_c, 8, 67, 0
13, 24240, Note_on_c, 8, 67, 100
13, 24329, Note_on_c, 8, 67, 0
13, 24330, Note_on_c, 8, 65, 100
13, 24344, Note_on_c, 8, 65, 0
13, 24345, Note_on_c, 8, 62, 100
13, 24359, Note_on_c, 8, 62, 0
13, 24360, Note_on_c, 8, 62, 100
13, 24360, Control_c, 8, 1, 0
13, 24362, Control_c, 8, 1, 5
13, 24364, Control_c, 8, 1, 13
13, 24366, Control_c, 8, 1, 20
13, 24368, Control_c, 8, 1, 28
13, 24370, Control_c, 8, 1, 35
13, 24372, Control_c, 8, 1, 43
13, 24374, Control_c, 8, 1, 50
13, 24376, Control_c, 8, 1, 58
13, 24378, Control_c, 8, 1, 65
13, 24380, Control_c, 8, 1, 73
13, 24382, Control_c, 8, 1, 80
13, 24384, Control_c, 8, 1, 88
13, 24386, Control_c, 8, 1, 95
13, 24388, Control_c, 8, 1, 103
13, 24390, Control_c, 8, 1, 110
13, 24392, Control_c, 8, 1, 118
13, 24398, Control_c, 8, 1, 0
13, 24449, Note_on_c, 8, 62, 0
13, 24480, Note_on_c, 8, 43, 100
13, 24659, Note_on_c, 8, 43, 0
13, 24660, Note_on_c, 8, 45, 100
13, 24719, Note_on_c, 8, 45, 0
13, 24720, Note_on_c, 8, 46, 100
13, 24959, Note_on_c, 8, 46, 0
13, 24960, Note_on_c, 8, 48, 100
13, 25439, Note_on_c, 8, 48, 0
13, 25440, Note_on_c, 8, 43, 100
13, 25619, Note_on_c, 8, 43, 0
13, 25620, Note_on_c, 8, 45, 100
13, 25679, Note_on_c, 8, 45, 0
13, 25680, Note_on_c, 8, 46, 100
13, 25799, Note_on_c, 8, 46, 0
13, 25800, Note_on_c, 8, 50, 100
13, 25919, Note_on_c, 8, 50, 0
13, 25920, Note_on_c, 8, 48, 100
13, 26399, Note_on_c, 8, 48, 0
13, 27840, Note_on_c, 8, 65, 100
13, 27840, Note_on_c, 8, 53, 100
13, 28079, Note_on_c, 8, 53, 0
13, 28079, Note_on_c, 8, 65, 0
13, 28080, Note_on_c, 8, 45, 100
13, 28080, Note_on_c, 8, 57, 100
13, 28319, Note_on_c, 8, 57, 0
13, 28319, Note_on_c, 8, 45, 0
13, 28320, Note_on_c, 8, 46, 100
13, 28320, Note_on_c, 8, 58, 100
13, 28559, Note_on_c, 8, 58, 0
13, 28559, Note_on_c, 8, 46, 0
13, 28560, Note_on_c, 8, 48, 100
13, 28560, Note_on_c, 8, 60, 100
13, 28799, Note_on_c, 8, 60, 0
13, 28799, Note_on_c, 8, 48, 0
13, 28800, Note_on_c, 8, 65, 100
13, 28800, Note_on_c, 8, 53, 100
13, 29039, Note_on_c, 8, 53, 0
13, 29039, Note_on_c, 8, 65, 0
13, 29040, Note_on_c, 8, 46, 100
13, 29040, Note_on_c, 8, 58, 100
13, 29279, Note_on_c, 8, 58, 0
13, 29279, Note_on_c, 8, 46, 0
13, 29280, Note_on_c, 8, 48, 100
13, 29280, Note_on_c, 8, 60, 100
13, 29759, Note_on_c, 8, 60, 0
13, 29759, Note_on_c, 8, 48, 0
13, 29760, Note_on_c, 8, 43, 100
13, 29760, Note_on_c, 8, 55, 100
13, 30119, Note_on_c, 8, 55, 0
13, 30119, Note_on_c, 8, 43, 0
13, 30120, Note_on_c, 8, 45, 100
13, 30120, Note_on_c, 8, 57, 100
13, 30239, Note_on_c, 8, 57, 0
13, 30239, Note_on_c, 8, 45, 0
13, 30240, Note_on_c, 8, 46, 100
13, 30240, Note_on_c, 8, 58, 100
13, 30719, Note_on_c, 8, 58, 0
13, 30719, Note_on_c, 8, 46, 0
13, 30720, Note_on_c, 8, 53, 100
13, 30720, Note_on_c, 8, 65, 100
13, 30959, Note_on_c, 8, 65, 0
13, 30959, Note_on_c, 8, 53, 0
13, 30960, Note_on_c, 8, 46, 100
13, 30960, Note_on_c, 8, 58, 100
13, 31199, Note_on_c, 8, 58, 0
13, 31199, Note_on_c, 8, 46, 0
13, 31200, Note_on_c, 8, 48, 100
13, 31200, Note_on_c, 8, 60, 100
13, 31439, Note_on_c, 8, 60, 0
13, 31439, Note_on_c, 8, 48, 0
13, 31440, Note_on_c, 8, 62, 100
13, 31440, Note_on_c, 8, 50, 100
13, 31559, Note_on_c, 8, 50, 0
13, 31559, Note_on_c, 8, 62, 0
13, 31560, Note_on_c, 8, 52, 100
13, 31560, Note_on_c, 8, 64, 100
13, 31679, Note_on_c, 8, 64, 0
13, 31679, Note_on_c, 8, 52, 0
13, 31680, Note_on_c, 8, 53, 100
13, 31680, Note_on_c, 8, 65, 100
13, 31919, Note_on_c, 8, 65, 0
13, 31919, Note_on_c, 8, 53, 0
13, 31920, Note_on_c, 8, 57, 100
13, 31920, Note_on_c, 8, 45, 100
13, 32159, Note_on_c, 8, 45, 0
13, 32159, Note_on_c, 8, 57, 0
13, 32160, Note_on_c, 8, 46, 100
13, 32160, Note_on_c, 8, 58, 100
13, 32399, Note_on_c, 8, 58, 0
13, 32399, Note_on_c, 8, 46, 0
13, 32400, Note_on_c, 8, 48, 100
13, 32400, Note_on_c, 8, 60, 100
13, 32639, Note_on_c, 8, 60, 0
13, 32639, Note_on_c, 8, 48, 0
13, 32640, Note_on_c, 8, 53, 100
13, 32640, Note_on_c, 8, 65, 100
13, 32640, Control_c, 8, 7, 99
13, 32657, Control_c, 8, 7, 98
13, 32670, Control_c, 8, 7, 97
13, 32687, Control_c, 8, 7, 96
13, 32700, Control_c, 8, 7, 95
13, 32713, Control_c, 8, 7, 94
13, 32730, Control_c, 8, 7, 93
13, 32743, Control_c, 8, 7, 92
13, 32757, Control_c, 8, 7, 91
13, 32773, Control_c, 8, 7, 90
13, 32787, Control_c, 8, 7, 89
13, 32800, Control_c, 8, 7, 88
13, 32817, Control_c, 8, 7, 87
13, 32830, Control_c, 8, 7, 86
13, 32847, Control_c, 8, 7, 85
13, 32860, Control_c, 8, 7, 84
13, 32873, Control_c, 8, 7, 83
13, 32879, Note_on_c, 8, 65, 0
13, 32879, Note_on_c, 8, 53, 0
13, 32880, Note_on_c, 8, 46, 100
13, 32880, Note_on_c, 8, 58, 100
13, 32890, Control_c, 8, 7, 82
13, 32903, Control_c, 8, 7, 81
13, 32917, Control_c, 8, 7, 80
13, 32933, Control_c, 8, 7, 79
13, 32947, Control_c, 8, 7, 78
13, 32960, Control_c, 8, 7, 77
13, 32977, Control_c, 8, 7, 76
13, 32990, Control_c, 8, 7, 75
13, 33007, Control_c, 8, 7, 74
13, 33020, Control_c, 8, 7, 73
13, 33033, Control_c, 8, 7, 72
13, 33050, Control_c, 8, 7, 71
13, 33063, Control_c, 8, 7, 70
13, 33077, Control_c, 8, 7, 69
13, 33093, Control_c, 8, 7, 68
13, 33107, Control_c, 8, 7, 67
13, 33119, Note_on_c, 8, 58, 0
13, 33119, Note_on_c, 8, 46, 0
13, 33120, Note_on_c, 8, 48, 100
13, 33120, Note_on_c, 8, 60, 100
13, 33120, Control_c, 8, 7, 66
13, 33137, Control_c, 8, 7, 65
13, 33150, Control_c, 8, 7, 64
13, 33167, Control_c, 8, 7, 63
13, 33180, Control_c, 8, 7, 62
13, 33193, Control_c, 8, 7, 61
13, 33210, Control_c, 8, 7, 60
13, 33223, Control_c, 8, 7, 59
13, 33237, Control_c, 8, 7, 58
13, 33253, Control_c, 8, 7, 57
13, 33267, Control_c, 8, 7, 56
13, 33280, Control_c, 8, 7, 55
13, 33297, Control_c, 8, 7, 54
13, 33310, Control_c, 8, 7, 53
13, 33327, Control_c, 8, 7, 52
13, 33340, Control_c, 8, 7, 51
13, 33353, Control_c, 8, 7, 50
13, 33370, Control_c, 8, 7, 49
13, 33383, Control_c, 8, 7, 48
13, 33397, Control_c, 8, 7, 47
13, 33413, Control_c, 8, 7, 46
13, 33427, Control_c, 8, 7, 45
13, 33440, Control_c, 8, 7, 44
13, 33457, Control_c, 8, 7, 43
13, 33470, Control_c, 8, 7, 42
13, 33487, Control_c, 8, 7, 41
13, 33500, Control_c, 8, 7, 40
13, 33513, Control_c, 8, 7, 39
13, 33530, Control_c, 8, 7, 38
13, 33543, Control_c, 8, 7, 37
13, 33557, Control_c, 8, 7, 36
13, 33573, Control_c, 8, 7, 35
13, 33587, Control_c, 8, 7, 34
13, 33599, Note_on_c, 8, 60, 0
13, 33599, Note_on_c, 8, 48, 0
13, 33600, Note_on_c, 8, 43, 100
13, 33600, Note_on_c, 8, 55, 100
13, 33600, Control_c, 8, 7, 33
13, 33617, Control_c, 8, 7, 32
13, 33630, Control_c, 8, 7, 31
13, 33647, Control_c, 8, 7, 30
13, 33660, Control_c, 8, 7, 29
13, 33673, Control_c, 8, 7, 28
13, 33690, Control_c, 8, 7, 27
13, 33703, Control_c, 8, 7, 26
13, 33717, Control_c, 8, 7, 25
13, 33733, Control_c, 8, 7, 24
13, 33747, Control_c, 8, 7, 23
13, 33760, Control_c, 8, 7, 22
13, 33777, Control_c, 8, 7, 21
13, 33790, Control_c, 8, 7, 20
13, 33807, Control_c, 8, 7, 19
13, 33820, Control_c, 8, 7, 18
13, 33833, Control_c, 8, 7, 17
13, 33850, Control_c, 8, 7, 16
13, 33863, Control_c, 8, 7, 15
13, 33877, Control_c, 8, 7, 14
13, 33893, Control_c, 8, 7, 13
13, 33907, Control_c, 8, 7, 12
13, 33920, Control_c, 8, 7, 11
13, 33937, Control_c, 8, 7, 10
13, 33950, Control_c, 8, 7, 9
13, 33959, Note_on_c, 8, 55, 0
13, 33959, Note_on_c, 8, 43, 0
13, 33960, Note_on_c, 8, 45, 100
13, 33960, Note_on_c, 8, 57, 100
13, 33967, Control_c, 8, 7, 8
13, 33980, Control_c, 8, 7, 7
13, 33993, Control_c, 8, 7, 6
13, 34010, Control_c, 8, 7, 5
13, 34023, Control_c, 8, 7, 4
13, 34037, Control_c, 8, 7, 3
13, 34053, Control_c, 8, 7, 2
13, 34067, Control_c, 8, 7, 1
13, 34079, Note_on_c, 8, 57, 0
13, 34079, Note_on_c, 8, 45, 0
13, 34080, Control_c, 8, 7, 0
13, 34080, End_track
14, 0, Start_track
14, 0, MIDI_port, 0
14, 0, Title_t, "Drum"
14, 0, Program_c, 9, 40
14, 0, Control_c, 9, 7, 100
14, 0, Control_c, 9, 91, 110
14, 0, Control_c, 9, 93, 0
14, 480, Note_on_c, 9, 51, 100
14, 480, Note_on_c, 9, 35, 78
14, 494, Note_on_c, 9, 35, 0
14, 494, Note_on_c, 9, 51, 0
14, 600, Note_on_c, 9, 51, 100
14, 614, Note_on_c, 9, 51, 0
14, 660, Note_on_c, 9, 35, 79
14, 674, Note_on_c, 9, 35, 0
14, 720, Note_on_c, 9, 51, 100
14, 720, Note_on_c, 9, 35, 80
14, 734, Note_on_c, 9, 35, 0
14, 734, Note_on_c, 9, 51, 0
14, 780, Note_on_c, 9, 38, 77
14, 794, Note_on_c, 9, 38, 0
14, 840, Note_on_c, 9, 40, 79
14, 854, Note_on_c, 9, 40, 0
14, 960, Note_on_c, 9, 35, 77
14, 960, Note_on_c, 9, 51, 77
14, 974, Note_on_c, 9, 51, 0
14, 974, Note_on_c, 9, 35, 0
14, 1080, Note_on_c, 9, 51, 77
14, 1094, Note_on_c, 9, 51, 0
14, 1140, Note_on_c, 9, 35, 77
14, 1154, Note_on_c, 9, 35, 0
14, 1200, Note_on_c, 9, 35, 77
14, 1200, Note_on_c, 9, 51, 77
14, 1214, Note_on_c, 9, 51, 0
14, 1214, Note_on_c, 9, 35, 0
14, 1260, Note_on_c, 9, 38, 77
14, 1274, Note_on_c, 9, 38, 0
14, 1320, Note_on_c, 9, 40, 77
14, 1334, Note_on_c, 9, 40, 0
14, 1440, Note_on_c, 9, 51, 100
14, 1440, Note_on_c, 9, 35, 78
14, 1454, Note_on_c, 9, 35, 0
14, 1454, Note_on_c, 9, 51, 0
14, 1560, Note_on_c, 9, 51, 100
14, 1574, Note_on_c, 9, 51, 0
14, 1620, Note_on_c, 9, 35, 79
14, 1634, Note_on_c, 9, 35, 0
14, 1680, Note_on_c, 9, 51, 100
14, 1680, Note_on_c, 9, 35, 80
14, 1694, Note_on_c, 9, 35, 0
14, 1694, Note_on_c, 9, 51, 0
14, 1740, Note_on_c, 9, 38, 77
14, 1754, Note_on_c, 9, 38, 0
14, 1800, Note_on_c, 9, 40, 79
14, 1814, Note_on_c, 9, 40, 0
14, 1920, Note_on_c, 9, 35, 77
14, 1920, Note_on_c, 9, 51, 77
14, 1934, Note_on_c, 9, 51, 0
14, 1934, Note_on_c, 9, 35, 0
14, 2040, Note_on_c, 9, 51, 77
14, 2054, Note_on_c, 9, 51, 0
14, 2100, Note_on_c, 9, 35, 77
14, 2114, Note_on_c, 9, 35, 0
14, 2160, Note_on_c, 9, 35, 77
14, 2160, Note_on_c, 9, 51, 77
14, 2174, Note_on_c, 9, 51, 0
14, 2174, Note_on_c, 9, 35, 0
14, 2190, Note_on_c, 9, 39, 77
14, 2204, Note_on_c, 9, 39, 0
14, 2220, Note_on_c, 9, 38, 77
14, 2234, Note_on_c, 9, 38, 0
14, 2280, Note_on_c, 9, 40, 77
14, 2294, Note_on_c, 9, 40, 0
14, 2400, Note_on_c, 9, 51, 100
14, 2400, Note_on_c, 9, 35, 78
14, 2414, Note_on_c, 9, 35, 0
14, 2414, Note_on_c, 9, 51, 0
14, 2520, Note_on_c, 9, 51, 100
14, 2534, Note_on_c, 9, 51, 0
14, 2580, Note_on_c, 9, 35, 79
14, 2594, Note_on_c, 9, 35, 0
14, 2640, Note_on_c, 9, 51, 100
14, 2640, Note_on_c, 9, 35, 80
14, 2654, Note_on_c, 9, 35, 0
14, 2654, Note_on_c, 9, 51, 0
14, 2700, Note_on_c, 9, 38, 77
14, 2714, Note_on_c, 9, 38, 0
14, 2760, Note_on_c, 9, 40, 79
14, 2774, Note_on_c, 9, 40, 0
14, 2880, Note_on_c, 9, 35, 77
14, 2880, Note_on_c, 9, 51, 77
14, 2894, Note_on_c, 9, 51, 0
14, 2894, Note_on_c, 9, 35, 0
14, 3000, Note_on_c, 9, 51, 77
14, 3014, Note_on_c, 9, 51, 0
14, 3060, Note_on_c, 9, 35, 77
14, 3074, Note_on_c, 9, 35, 0
14, 3120, Note_on_c, 9, 35, 77
14, 3120, Note_on_c, 9, 51, 77
14, 3134, Note_on_c, 9, 51, 0
14, 3134, Note_on_c, 9, 35, 0
14, 3180, Note_on_c, 9, 38, 77
14, 3194, Note_on_c, 9, 38, 0
14, 3240, Note_on_c, 9, 40, 77
14, 3254, Note_on_c, 9, 40, 0
14, 3360, Note_on_c, 9, 51, 100
14, 3360, Note_on_c, 9, 35, 78
14, 3374, Note_on_c, 9, 35, 0
14, 3374, Note_on_c, 9, 51, 0
14, 3480, Note_on_c, 9, 51, 100
14, 3494, Note_on_c, 9, 51, 0
14, 3540, Note_on_c, 9, 35, 79
14, 3554, Note_on_c, 9, 35, 0
14, 3600, Note_on_c, 9, 51, 100
14, 3600, Note_on_c, 9, 35, 80
14, 3614, Note_on_c, 9, 35, 0
14, 3614, Note_on_c, 9, 51, 0
14, 3660, Note_on_c, 9, 38, 77
14, 3674, Note_on_c, 9, 38, 0
14, 3720, Note_on_c, 9, 40, 79
14, 3734, Note_on_c, 9, 40, 0
14, 3840, Note_on_c, 9, 35, 77
14, 3840, Note_on_c, 9, 51, 77
14, 3854, Note_on_c, 9, 51, 0
14, 3854, Note_on_c, 9, 35, 0
14, 3960, Note_on_c, 9, 51, 77
14, 3974, Note_on_c, 9, 51, 0
14, 4020, Note_on_c, 9, 35, 77
14, 4034, Note_on_c, 9, 35, 0
14, 4080, Note_on_c, 9, 35, 77
14, 4080, Note_on_c, 9, 51, 77
14, 4094, Note_on_c, 9, 51, 0
14, 4094, Note_on_c, 9, 35, 0
14, 4140, Note_on_c, 9, 38, 77
14, 4154, Note_on_c, 9, 38, 0
14, 4200, Note_on_c, 9, 40, 77
14, 4214, Note_on_c, 9, 40, 0
14, 4320, Note_on_c, 9, 51, 100
14, 4320, Note_on_c, 9, 35, 78
14, 4334, Note_on_c, 9, 35, 0
14, 4334, Note_on_c, 9, 51, 0
14, 4440, Note_on_c, 9, 51, 100
14, 4454, Note_on_c, 9, 51, 0
14, 4500, Note_on_c, 9, 35, 79
14, 4514, Note_on_c, 9, 35, 0
14, 4560, Note_on_c, 9, 51, 100
14, 4560, Note_on_c, 9, 35, 80
14, 4574, Note_on_c, 9, 35, 0
14, 4574, Note_on_c, 9, 51, 0
14, 4620, Note_on_c, 9, 38, 77
14, 4634, Note_on_c, 9, 38, 0
14, 4680, Note_on_c, 9, 40, 79
14, 4694, Note_on_c, 9, 40, 0
14, 4800, Note_on_c, 9, 35, 77
14, 4800, Note_on_c, 9, 51, 77
14, 4814, Note_on_c, 9, 51, 0
14, 4814, Note_on_c, 9, 35, 0
14, 4920, Note_on_c, 9, 51, 77
14, 4934, Note_on_c, 9, 51, 0
14, 4980, Note_on_c, 9, 35, 77
14, 4994, Note_on_c, 9, 35, 0
14, 5040, Note_on_c, 9, 35, 77
14, 5040, Note_on_c, 9, 51, 77
14, 5054, Note_on_c, 9, 51, 0
14, 5054, Note_on_c, 9, 35, 0
14, 5100, Note_on_c, 9, 38, 77
14, 5114, Note_on_c, 9, 38, 0
14, 5160, Note_on_c, 9, 40, 77
14, 5174, Note_on_c, 9, 40, 0
14, 5280, Note_on_c, 9, 51, 100
14, 5280, Note_on_c, 9, 35, 78
14, 5294, Note_on_c, 9, 35, 0
14, 5294, Note_on_c, 9, 51, 0
14, 5400, Note_on_c, 9, 51, 100
14, 5414, Note_on_c, 9, 51, 0
14, 5460, Note_on_c, 9, 35, 79
14, 5474, Note_on_c, 9, 35, 0
14, 5520, Note_on_c, 9, 51, 100
14, 5520, Note_on_c, 9, 35, 80
14, 5534, Note_on_c, 9, 35, 0
14, 5534, Note_on_c, 9, 51, 0
14, 5580, Note_on_c, 9, 38, 77
14, 5594, Note_on_c, 9, 38, 0
14, 5640, Note_on_c, 9, 40, 79
14, 5654, Note_on_c, 9, 40, 0
14, 5760, Note_on_c, 9, 35, 77
14, 5760, Note_on_c, 9, 51, 77
14, 5774, Note_on_c, 9, 51, 0
14, 5774, Note_on_c, 9, 35, 0
14, 5880, Note_on_c, 9, 51, 77
14, 5894, Note_on_c, 9, 51, 0
14, 5940, Note_on_c, 9, 35, 77
14, 5954, Note_on_c, 9, 35, 0
14, 6000, Note_on_c, 9, 35, 77
14, 6000, Note_on_c, 9, 51, 77
14, 6014, Note_on_c, 9, 51, 0
14, 6014, Note_on_c, 9, 35, 0
14, 6030, Note_on_c, 9, 39, 77
14, 6044, Note_on_c, 9, 39, 0
14, 6060, Note_on_c, 9, 38, 77
14, 6074, Note_on_c, 9, 38, 0
14, 6120, Note_on_c, 9, 40, 77
14, 6134, Note_on_c, 9, 40, 0
14, 6240, Note_on_c, 9, 51, 100
14, 6240, Note_on_c, 9, 35, 78
14, 6254, Note_on_c, 9, 35, 0
14, 6254, Note_on_c, 9, 51, 0
14, 6360, Note_on_c, 9, 51, 100
14, 6374, Note_on_c, 9, 51, 0
14, 6420, Note_on_c, 9, 35, 79
14, 6434, Note_on_c, 9, 35, 0
14, 6480, Note_on_c, 9, 51, 100
14, 6480, Note_on_c, 9, 35, 80
14, 6494, Note_on_c, 9, 35, 0
14, 6494, Note_on_c, 9, 51, 0
14, 6540, Note_on_c, 9, 38, 77
14, 6554, Note_on_c, 9, 38, 0
14, 6600, Note_on_c, 9, 40, 79
14, 6614, Note_on_c, 9, 40, 0
14, 6720, Note_on_c, 9, 35, 77
14, 6720, Note_on_c, 9, 51, 77
14, 6734, Note_on_c, 9, 51, 0
14, 6734, Note_on_c, 9, 35, 0
14, 6840, Note_on_c, 9, 51, 77
14, 6854, Note_on_c, 9, 51, 0
14, 6900, Note_on_c, 9, 35, 77
14, 6914, Note_on_c, 9, 35, 0
14, 6960, Note_on_c, 9, 35, 77
14, 6960, Note_on_c, 9, 51, 77
14, 6974, Note_on_c, 9, 51, 0
14, 6974, Note_on_c, 9, 35, 0
14, 7020, Note_on_c, 9, 38, 77
14, 7034, Note_on_c, 9, 38, 0
14, 7080, Note_on_c, 9, 40, 77
14, 7094, Note_on_c, 9, 40, 0
14, 7200, Note_on_c, 9, 51, 100
14, 7200, Note_on_c, 9, 35, 78
14, 7214, Note_on_c, 9, 35, 0
14, 7214, Note_on_c, 9, 51, 0
14, 7320, Note_on_c, 9, 51, 100
14, 7334, Note_on_c, 9, 51, 0
14, 7380, Note_on_c, 9, 35, 79
14, 7394, Note_on_c, 9, 35, 0
14, 7440, Note_on_c, 9, 51, 100
14, 7440, Note_on_c, 9, 35, 80
14, 7454, Note_on_c, 9, 35, 0
14, 7454, Note_on_c, 9, 51, 0
14, 7500, Note_on_c, 9, 38, 77
14, 7514, Note_on_c, 9, 38, 0
14, 7560, Note_on_c, 9, 40, 79
14, 7574, Note_on_c, 9, 40, 0
14, 7680, Note_on_c, 9, 35, 77
14, 7680, Note_on_c, 9, 51, 77
14, 7694, Note_on_c, 9, 51, 0
14, 7694, Note_on_c, 9, 35, 0
14, 7800, Note_on_c, 9, 51, 77
14, 7814, Note_on_c, 9, 51, 0
14, 7860, Note_on_c, 9, 35, 77
14, 7874, Note_on_c, 9, 35, 0
14, 7920, Note_on_c, 9, 35, 77
14, 7920, Note_on_c, 9, 51, 77
14, 7934, Note_on_c, 9, 51, 0
14, 7934, Note_on_c, 9, 35, 0
14, 7950, Note_on_c, 9, 39, 77
14, 7964, Note_on_c, 9, 39, 0
14, 7980, Note_on_c, 9, 38, 77
14, 7994, Note_on_c, 9, 38, 0
14, 8040, Note_on_c, 9, 40, 77
14, 8054, Note_on_c, 9, 40, 0
14, 8160, Note_on_c, 9, 51, 100
14, 8160, Note_on_c, 9, 35, 78
14, 8174, Note_on_c, 9, 35, 0
14, 8174, Note_on_c, 9, 51, 0
14, 8280, Note_on_c, 9, 54, 100
14, 8280, Note_on_c, 9, 51, 100
14, 8294, Note_on_c, 9, 51, 0
14, 8294, Note_on_c, 9, 54, 0
14, 8340, Note_on_c, 9, 35, 79
14, 8354, Note_on_c, 9, 35, 0
14, 8400, Note_on_c, 9, 51, 100
14, 8400, Note_on_c, 9, 35, 80
14, 8414, Note_on_c, 9, 35, 0
14, 8414, Note_on_c, 9, 51, 0
14, 8460, Note_on_c, 9, 38, 77
14, 8474, Note_on_c, 9, 38, 0
14, 8520, Note_on_c, 9, 54, 100
14, 8520, Note_on_c, 9, 40, 79
14, 8534, Note_on_c, 9, 40, 0
14, 8534, Note_on_c, 9, 54, 0
14, 8640, Note_on_c, 9, 35, 77
14, 8640, Note_on_c, 9, 51, 77
14, 8654, Note_on_c, 9, 51, 0
14, 8654, Note_on_c, 9, 35, 0
14, 8760, Note_on_c, 9, 54, 100
14, 8760, Note_on_c, 9, 51, 77
14, 8774, Note_on_c, 9, 51, 0
14, 8774, Note_on_c, 9, 54, 0
14, 8820, Note_on_c, 9, 35, 77
14, 8834, Note_on_c, 9, 35, 0
14, 8880, Note_on_c, 9, 35, 77
14, 8880, Note_on_c, 9, 51, 77
14, 8894, Note_on_c, 9, 51, 0
14, 8894, Note_on_c, 9, 35, 0
14, 8940, Note_on_c, 9, 38, 77
14, 8954, Note_on_c, 9, 38, 0
14, 9000, Note_on_c, 9, 54, 100
14, 9000, Note_on_c, 9, 40, 77
14, 9014, Note_on_c, 9, 40, 0
14, 9014, Note_on_c, 9, 54, 0
14, 9120, Note_on_c, 9, 51, 100
14, 9120, Note_on_c, 9, 35, 78
14, 9134, Note_on_c, 9, 35, 0
14, 9134, Note_on_c, 9, 51, 0
14, 9240, Note_on_c, 9, 54, 100
14, 9240, Note_on_c, 9, 51, 100
14, 9254, Note_on_c, 9, 51, 0
14, 9254, Note_on_c, 9, 54, 0
14, 9300, Note_on_c, 9, 35, 79
14, 9314, Note_on_c, 9, 35, 0
14, 9360, Note_on_c, 9, 51, 100
14, 9360, Note_on_c, 9, 35, 80
14, 9374, Note_on_c, 9, 35, 0
14, 9374, Note_on_c, 9, 51, 0
14, 9420, Note_on_c, 9, 38, 77
14, 9434, Note_on_c, 9, 38, 0
14, 9480, Note_on_c, 9, 54, 100
14, 9480, Note_on_c, 9, 40, 79
14, 9494, Note_on_c, 9, 40, 0
14, 9494, Note_on_c, 9, 54, 0
14, 9600, Note_on_c, 9, 35, 77
14, 9600, Note_on_c, 9, 51, 77
14, 9614, Note_on_c, 9, 51, 0
14, 9614, Note_on_c, 9, 35, 0
14, 9720, Note_on_c, 9, 54, 100
14, 9720, Note_on_c, 9, 51, 77
14, 9734, Note_on_c, 9, 51, 0
14, 9734, Note_on_c, 9, 54, 0
14, 9780, Note_on_c, 9, 35, 77
14, 9794, Note_on_c, 9, 35, 0
14, 9840, Note_on_c, 9, 35, 77
14, 9840, Note_on_c, 9, 51, 77
14, 9854, Note_on_c, 9, 51, 0
14, 9854, Note_on_c, 9, 35, 0
14, 9870, Note_on_c, 9, 39, 77
14, 9884, Note_on_c, 9, 39, 0
14, 9900, Note_on_c, 9, 38, 77
14, 9914, Note_on_c, 9, 38, 0
14, 9960, Note_on_c, 9, 54, 100
14, 9960, Note_on_c, 9, 40, 77
14, 9974, Note_on_c, 9, 40, 0
14, 9974, Note_on_c, 9, 54, 0
14, 10080, Note_on_c, 9, 51, 100
14, 10080, Note_on_c, 9, 35, 78
14, 10094, Note_on_c, 9, 35, 0
14, 10094, Note_on_c, 9, 51, 0
14, 10200, Note_on_c, 9, 54, 100
14, 10200, Note_on_c, 9, 51, 100
14, 10214, Note_on_c, 9, 51, 0
14, 10214, Note_on_c, 9, 54, 0
14, 10260, Note_on_c, 9, 35, 79
14, 10274, Note_on_c, 9, 35, 0
14, 10320, Note_on_c, 9, 51, 100
14, 10320, Note_on_c, 9, 35, 80
14, 10334, Note_on_c, 9, 35, 0
14, 10334, Note_on_c, 9, 51, 0
14, 10380, Note_on_c, 9, 38, 77
14, 10394, Note_on_c, 9, 38, 0
14, 10440, Note_on_c, 9, 54, 100
14, 10440, Note_on_c, 9, 40, 79
14, 10454, Note_on_c, 9, 40, 0
14, 10454, Note_on_c, 9, 54, 0
14, 10560, Note_on_c, 9, 35, 77
14, 10560, Note_on_c, 9, 51, 77
14, 10574, Note_on_c, 9, 51, 0
14, 10574, Note_on_c, 9, 35, 0
14, 10680, Note_on_c, 9, 54, 100
14, 10680, Note_on_c, 9, 51, 77
14, 10694, Note_on_c, 9, 51, 0
14, 10694, Note_on_c, 9, 54, 0
14, 10740, Note_on_c, 9, 35, 77
14, 10754, Note_on_c, 9, 35, 0
14, 10800, Note_on_c, 9, 35, 77
14, 10800, Note_on_c, 9, 51, 77
14, 10814, Note_on_c, 9, 51, 0
14, 10814, Note_on_c, 9, 35, 0
14, 10860, Note_on_c, 9, 38, 77
14, 10874, Note_on_c, 9, 38, 0
14, 10920, Note_on_c, 9, 54, 100
14, 10920, Note_on_c, 9, 40, 77
14, 10934, Note_on_c, 9, 40, 0
14, 10934, Note_on_c, 9, 54, 0
14, 11040, Note_on_c, 9, 51, 100
14, 11040, Note_on_c, 9, 35, 78
14, 11054, Note_on_c, 9, 35, 0
14, 11054, Note_on_c, 9, 51, 0
14, 11160, Note_on_c, 9, 54, 100
14, 11160, Note_on_c, 9, 51, 100
14, 11174, Note_on_c, 9, 51, 0
14, 11174, Note_on_c, 9, 54, 0
14, 11220, Note_on_c, 9, 35, 79
14, 11234, Note_on_c, 9, 35, 0
14, 11280, Note_on_c, 9, 51, 100
14, 11280, Note_on_c, 9, 35, 80
14, 11294, Note_on_c, 9, 35, 0
14, 11294, Note_on_c, 9, 51, 0
14, 11340, Note_on_c, 9, 38, 77
14, 11354, Note_on_c, 9, 38, 0
14, 11400, Note_on_c, 9, 54, 100
14, 11400, Note_on_c, 9, 40, 79
14, 11414, Note_on_c, 9, 40, 0
14, 11414, Note_on_c, 9, 54, 0
14, 11520, Note_on_c, 9, 35, 77
14, 11520, Note_on_c, 9, 51, 77
14, 11534, Note_on_c, 9, 51, 0
14, 11534, Note_on_c, 9, 35, 0
14, 11640, Note_on_c, 9, 54, 100
14, 11640, Note_on_c, 9, 51, 77
14, 11654, Note_on_c, 9, 51, 0
14, 11654, Note_on_c, 9, 54, 0
14, 11700, Note_on_c, 9, 35, 81
14, 11714, Note_on_c, 9, 35, 0
14, 11760, Note_on_c, 9, 35, 75
14, 11774, Note_on_c, 9, 35, 0
14, 12000, Note_on_c, 9, 51, 100
14, 12000, Note_on_c, 9, 35, 100
14, 12014, Note_on_c, 9, 35, 0
14, 12014, Note_on_c, 9, 51, 0
14, 12120, Note_on_c, 9, 38, 100
14, 12120, Note_on_c, 9, 51, 100
14, 12134, Note_on_c, 9, 51, 0
14, 12134, Note_on_c, 9, 38, 0
14, 12180, Note_on_c, 9, 35, 100
14, 12194, Note_on_c, 9, 35, 0
14, 12240, Note_on_c, 9, 51, 100
14, 12240, Note_on_c, 9, 35, 100
14, 12254, Note_on_c, 9, 35, 0
14, 12254, Note_on_c, 9, 51, 0
14, 12300, Note_on_c, 9, 38, 100
14, 12314, Note_on_c, 9, 38, 0
14, 12360, Note_on_c, 9, 40, 100
14, 12374, Note_on_c, 9, 40, 0
14, 12480, Note_on_c, 9, 35, 100
14, 12494, Note_on_c, 9, 35, 0
14, 12600, Note_on_c, 9, 38, 100
14, 12614, Note_on_c, 9, 38, 0
14, 12660, Note_on_c, 9, 35, 100
14, 12674, Note_on_c, 9, 35, 0
14, 12720, Note_on_c, 9, 35, 100
14, 12734, Note_on_c, 9, 35, 0
14, 12840, Note_on_c, 9, 38, 100
14, 12854, Note_on_c, 9, 38, 0
14, 12870, Program_c, 9, 16
14, 12960, Note_on_c, 9, 49, 100
14, 12960, Note_on_c, 9, 35, 100
14, 12974, Note_on_c, 9, 35, 0
14, 12974, Note_on_c, 9, 49, 0
14, 13020, Note_on_c, 9, 42, 100
14, 13034, Note_on_c, 9, 42, 0
14, 13080, Note_on_c, 9, 42, 100
14, 13080, Note_on_c, 9, 38, 58
14, 13094, Note_on_c, 9, 38, 0
14, 13094, Note_on_c, 9, 42, 0
14, 13140, Note_on_c, 9, 42, 100
14, 13140, Note_on_c, 9, 35, 100
14, 13154, Note_on_c, 9, 35, 0
14, 13154, Note_on_c, 9, 42, 0
14, 13200, Note_on_c, 9, 42, 100
14, 13200, Note_on_c, 9, 35, 100
14, 13214, Note_on_c, 9, 35, 0
14, 13214, Note_on_c, 9, 42, 0
14, 13260, Note_on_c, 9, 42, 100
14, 13274, Note_on_c, 9, 42, 0
14, 13320, Note_on_c, 9, 42, 100
14, 13320, Note_on_c, 9, 38, 60
14, 13334, Note_on_c, 9, 38, 0
14, 13334, Note_on_c, 9, 42, 0
14, 13380, Note_on_c, 9, 46, 83
14, 13394, Note_on_c, 9, 46, 0
14, 13440, Note_on_c, 9, 35, 78
14, 13440, Note_on_c, 9, 42, 78
14, 13454, Note_on_c, 9, 42, 0
14, 13454, Note_on_c, 9, 35, 0
14, 13500, Note_on_c, 9, 42, 78
14, 13514, Note_on_c, 9, 42, 0
14, 13530, Note_on_c, 9, 42, 76
14, 13544, Note_on_c, 9, 42, 0
14, 13560, Note_on_c, 9, 38, 75
14, 13560, Note_on_c, 9, 42, 75
14, 13574, Note_on_c, 9, 42, 0
14, 13574, Note_on_c, 9, 38, 0
14, 13620, Note_on_c, 9, 42, 73
14, 13620, Note_on_c, 9, 35, 73
14, 13634, Note_on_c, 9, 35, 0
14, 13634, Note_on_c, 9, 42, 0
14, 13680, Note_on_c, 9, 42, 77
14, 13680, Note_on_c, 9, 35, 77
14, 13694, Note_on_c, 9, 35, 0
14, 13694, Note_on_c, 9, 42, 0
14, 13740, Note_on_c, 9, 42, 78
14, 13754, Note_on_c, 9, 42, 0
14, 13800, Note_on_c, 9, 38, 77
14, 13800, Note_on_c, 9, 42, 77
14, 13814, Note_on_c, 9, 42, 0
14, 13814, Note_on_c, 9, 38, 0
14, 13860, Note_on_c, 9, 42, 78
14, 13874, Note_on_c, 9, 42, 0
14, 13920, Note_on_c, 9, 35, 76
14, 13920, Note_on_c, 9, 42, 76
14, 13934, Note_on_c, 9, 42, 0
14, 13934, Note_on_c, 9, 35, 0
14, 13980, Note_on_c, 9, 42, 77
14, 13994, Note_on_c, 9, 42, 0
14, 14040, Note_on_c, 9, 42, 77
14, 14040, Note_on_c, 9, 38, 77
14, 14054, Note_on_c, 9, 38, 0
14, 14054, Note_on_c, 9, 42, 0
14, 14100, Note_on_c, 9, 42, 77
14, 14100, Note_on_c, 9, 35, 77
14, 14114, Note_on_c, 9, 35, 0
14, 14114, Note_on_c, 9, 42, 0
14, 14160, Note_on_c, 9, 42, 80
14, 14160, Note_on_c, 9, 35, 80
14, 14174, Note_on_c, 9, 35, 0
14, 14174, Note_on_c, 9, 42, 0
14, 14220, Note_on_c, 9, 42, 80
14, 14234, Note_on_c, 9, 42, 0
14, 14280, Note_on_c, 9, 42, 76
14, 14280, Note_on_c, 9, 38, 76
14, 14294, Note_on_c, 9, 38, 0
14, 14294, Note_on_c, 9, 42, 0
14, 14340, Note_on_c, 9, 46, 75
14, 14354, Note_on_c, 9, 46, 0
14, 14400, Note_on_c, 9, 35, 77
14, 14400, Note_on_c, 9, 42, 77
14, 14414, Note_on_c, 9, 42, 0
14, 14414, Note_on_c, 9, 35, 0
14, 14460, Note_on_c, 9, 42, 73
14, 14474, Note_on_c, 9, 42, 0
14, 14490, Note_on_c, 9, 42, 73
14, 14504, Note_on_c, 9, 42, 0
14, 14520, Note_on_c, 9, 38, 72
14, 14520, Note_on_c, 9, 42, 72
14, 14534, Note_on_c, 9, 42, 0
14, 14534, Note_on_c, 9, 38, 0
14, 14580, Note_on_c, 9, 35, 71
14, 14580, Note_on_c, 9, 42, 71
14, 14594, Note_on_c, 9, 42, 0
14, 14594, Note_on_c, 9, 35, 0
14, 14640, Note_on_c, 9, 35, 72
14, 14640, Note_on_c, 9, 42, 72
14, 14654, Note_on_c, 9, 42, 0
14, 14654, Note_on_c, 9, 35, 0
14, 14700, Note_on_c, 9, 42, 75
14, 14714, Note_on_c, 9, 42, 0
14, 14745, Note_on_c, 9, 35, 78
14, 14759, Note_on_c, 9, 35, 0
14, 14760, Note_on_c, 9, 38, 79
14, 14760, Note_on_c, 9, 42, 79
14, 14774, Note_on_c, 9, 42, 0
14, 14774, Note_on_c, 9, 38, 0
14, 14820, Note_on_c, 9, 42, 79
14, 14834, Note_on_c, 9, 42, 0
14, 14880, Note_on_c, 9, 35, 79
14, 14880, Note_on_c, 9, 42, 79
14, 14894, Note_on_c, 9, 42, 0
14, 14894, Note_on_c, 9, 35, 0
14, 14940, Note_on_c, 9, 42, 79
14, 14954, Note_on_c, 9, 42, 0
14, 15000, Note_on_c, 9, 38, 79
14, 15000, Note_on_c, 9, 42, 79
14, 15014, Note_on_c, 9, 42, 0
14, 15014, Note_on_c, 9, 38, 0
14, 15060, Note_on_c, 9, 35, 79
14, 15060, Note_on_c, 9, 42, 79
14, 15074, Note_on_c, 9, 42, 0
14, 15074, Note_on_c, 9, 35, 0
14, 15120, Note_on_c, 9, 35, 79
14, 15120, Note_on_c, 9, 42, 79
14, 15134, Note_on_c, 9, 42, 0
14, 15134, Note_on_c, 9, 35, 0
14, 15180, Note_on_c, 9, 42, 79
14, 15194, Note_on_c, 9, 42, 0
14, 15240, Note_on_c, 9, 38, 79
14, 15240, Note_on_c, 9, 42, 79
14, 15254, Note_on_c, 9, 42, 0
14, 15254, Note_on_c, 9, 38, 0
14, 15300, Note_on_c, 9, 46, 79
14, 15314, Note_on_c, 9, 46, 0
14, 15360, Note_on_c, 9, 35, 79
14, 15360, Note_on_c, 9, 42, 79
14, 15374, Note_on_c, 9, 42, 0
14, 15374, Note_on_c, 9, 35, 0
14, 15420, Note_on_c, 9, 42, 79
14, 15434, Note_on_c, 9, 42, 0
14, 15480, Note_on_c, 9, 38, 79
14, 15480, Note_on_c, 9, 42, 79
14, 15494, Note_on_c, 9, 42, 0
14, 15494, Note_on_c, 9, 38, 0
14, 15540, Note_on_c, 9, 35, 79
14, 15540, Note_on_c, 9, 42, 79
14, 15554, Note_on_c, 9, 42, 0
14, 15554, Note_on_c, 9, 35, 0
14, 15600, Note_on_c, 9, 35, 79
14, 15600, Note_on_c, 9, 42, 79
14, 15614, Note_on_c, 9, 42, 0
14, 15614, Note_on_c, 9, 35, 0
14, 15660, Note_on_c, 9, 42, 79
14, 15674, Note_on_c, 9, 42, 0
14, 15720, Note_on_c, 9, 38, 79
14, 15720, Note_on_c, 9, 42, 79
14, 15734, Note_on_c, 9, 42, 0
14, 15734, Note_on_c, 9, 38, 0
14, 15780, Note_on_c, 9, 42, 79
14, 15794, Note_on_c, 9, 42, 0
14, 15840, Note_on_c, 9, 35, 79
14, 15840, Note_on_c, 9, 42, 79
14, 15854, Note_on_c, 9, 42, 0
14, 15854, Note_on_c, 9, 35, 0
14, 15900, Note_on_c, 9, 42, 79
14, 15914, Note_on_c, 9, 42, 0
14, 15960, Note_on_c, 9, 38, 79
14, 15960, Note_on_c, 9, 42, 79
14, 15974, Note_on_c, 9, 42, 0
14, 15974, Note_on_c, 9, 38, 0
14, 16020, Note_on_c, 9, 35, 79
14, 16020, Note_on_c, 9, 42, 79
14, 16034, Note_on_c, 9, 42, 0
14, 16034, Note_on_c, 9, 35, 0
14, 16050, Note_on_c, 9, 42, 79
14, 16064, Note_on_c, 9, 42, 0
14, 16080, Note_on_c, 9, 35, 79
14, 16080, Note_on_c, 9, 42, 79
14, 16094, Note_on_c, 9, 42, 0
14, 16094, Note_on_c, 9, 35, 0
14, 16140, Note_on_c, 9, 42, 79
14, 16154, Note_on_c, 9, 42, 0
14, 16200, Note_on_c, 9, 38, 79
14, 16200, Note_on_c, 9, 42, 79
14, 16214, Note_on_c, 9, 42, 0
14, 16214, Note_on_c, 9, 38, 0
14, 16260, Note_on_c, 9, 46, 100
14, 16274, Note_on_c, 9, 46, 0
14, 16320, Note_on_c, 9, 35, 79
14, 16320, Note_on_c, 9, 35, 79
14, 16320, Note_on_c, 9, 42, 79
14, 16334, Note_on_c, 9, 42, 0
14, 16334, Note_on_c, 9, 35, 0
14, 16334, Note_on_c, 9, 35, 0
14, 16380, Note_on_c, 9, 42, 79
14, 16394, Note_on_c, 9, 42, 0
14, 16440, Note_on_c, 9, 38, 79
14, 16440, Note_on_c, 9, 38, 79
14, 16440, Note_on_c, 9, 42, 79
14, 16454, Note_on_c, 9, 42, 0
14, 16454, Note_on_c, 9, 38, 0
14, 16454, Note_on_c, 9, 38, 0
14, 16500, Note_on_c, 9, 35, 79
14, 16500, Note_on_c, 9, 35, 79
14, 16500, Note_on_c, 9, 42, 79
14, 16514, Note_on_c, 9, 42, 0
14, 16514, Note_on_c, 9, 35, 0
14, 16514, Note_on_c, 9, 35, 0
14, 16530, Note_on_c, 9, 42, 79
14, 16544, Note_on_c, 9, 42, 0
14, 16560, Note_on_c, 9, 35, 79
14, 16560, Note_on_c, 9, 35, 79
14, 16560, Note_on_c, 9, 42, 79
14, 16574, Note_on_c, 9, 42, 0
14, 16574, Note_on_c, 9, 35, 0
14, 16574, Note_on_c, 9, 35, 0
14, 16620, Note_on_c, 9, 42, 79
14, 16634, Note_on_c, 9, 42, 0
14, 16680, Note_on_c, 9, 38, 79
14, 16680, Note_on_c, 9, 38, 79
14, 16680, Note_on_c, 9, 42, 79
14, 16694, Note_on_c, 9, 42, 0
14, 16694, Note_on_c, 9, 38, 0
14, 16694, Note_on_c, 9, 38, 0
14, 16740, Note_on_c, 9, 45, 79
14, 16754, Note_on_c, 9, 45, 0
14, 16770, Note_on_c, 9, 43, 79
14, 16784, Note_on_c, 9, 43, 0
14, 16800, Note_on_c, 9, 49, 79
14, 16800, Note_on_c, 9, 35, 79
14, 16814, Note_on_c, 9, 35, 0
14, 16814, Note_on_c, 9, 49, 0
14, 16830, Note_on_c, 9, 51, 79
14, 16844, Note_on_c, 9, 51, 0
14, 16860, Note_on_c, 9, 59, 79
14, 16874, Note_on_c, 9, 59, 0
14, 16890, Note_on_c, 9, 51, 79
14, 16904, Note_on_c, 9, 51, 0
14, 16920, Note_on_c, 9, 38, 79
14, 16920, Note_on_c, 9, 59, 79
14, 16934, Note_on_c, 9, 59, 0
14, 16934, Note_on_c, 9, 38, 0
14, 16950, Note_on_c, 9, 51, 79
14, 16964, Note_on_c, 9, 51, 0
14, 16980, Note_on_c, 9, 35, 79
14, 16980, Note_on_c, 9, 59, 79
14, 16994, Note_on_c, 9, 59, 0
14, 16994, Note_on_c, 9, 35, 0
14, 17010, Note_on_c, 9, 51, 79
14, 17024, Note_on_c, 9, 51, 0
14, 17040, Note_on_c, 9, 35, 79
14, 17040, Note_on_c, 9, 59, 79
14, 17054, Note_on_c, 9, 59, 0
14, 17054, Note_on_c, 9, 35, 0
14, 17070, Note_on_c, 9, 51, 79
14, 17084, Note_on_c, 9, 51, 0
14, 17100, Note_on_c, 9, 59, 79
14, 17114, Note_on_c, 9, 59, 0
14, 17130, Note_on_c, 9, 51, 79
14, 17144, Note_on_c, 9, 51, 0
14, 17160, Note_on_c, 9, 38, 79
14, 17160, Note_on_c, 9, 59, 79
14, 17174, Note_on_c, 9, 59, 0
14, 17174, Note_on_c, 9, 38, 0
14, 17190, Note_on_c, 9, 51, 79
14, 17204, Note_on_c, 9, 51, 0
14, 17220, Note_on_c, 9, 59, 79
14, 17234, Note_on_c, 9, 59, 0
14, 17250, Note_on_c, 9, 51, 79
14, 17264, Note_on_c, 9, 51, 0
14, 17280, Note_on_c, 9, 35, 79
14, 17280, Note_on_c, 9, 59, 79
14, 17294, Note_on_c, 9, 59, 0
14, 17294, Note_on_c, 9, 35, 0
14, 17310, Note_on_c, 9, 51, 79
14, 17324, Note_on_c, 9, 51, 0
14, 17340, Note_on_c, 9, 59, 79
14, 17354, Note_on_c, 9, 59, 0
14, 17370, Note_on_c, 9, 51, 79
14, 17384, Note_on_c, 9, 51, 0
14, 17400, Note_on_c, 9, 38, 79
14, 17400, Note_on_c, 9, 59, 79
14, 17414, Note_on_c, 9, 59, 0
14, 17414, Note_on_c, 9, 38, 0
14, 17430, Note_on_c, 9, 51, 79
14, 17444, Note_on_c, 9, 51, 0
14, 17460, Note_on_c, 9, 35, 79
14, 17460, Note_on_c, 9, 59, 79
14, 17474, Note_on_c, 9, 59, 0
14, 17474, Note_on_c, 9, 35, 0
14, 17490, Note_on_c, 9, 51, 79
14, 17504, Note_on_c, 9, 51, 0
14, 17520, Note_on_c, 9, 35, 79
14, 17520, Note_on_c, 9, 59, 79
14, 17534, Note_on_c, 9, 59, 0
14, 17534, Note_on_c, 9, 35, 0
14, 17550, Note_on_c, 9, 51, 79
14, 17564, Note_on_c, 9, 51, 0
14, 17580, Note_on_c, 9, 59, 79
14, 17594, Note_on_c, 9, 59, 0
14, 17610, Note_on_c, 9, 51, 79
14, 17624, Note_on_c, 9, 51, 0
14, 17640, Note_on_c, 9, 38, 79
14, 17640, Note_on_c, 9, 59, 79
14, 17654, Note_on_c, 9, 59, 0
14, 17654, Note_on_c, 9, 38, 0
14, 17670, Note_on_c, 9, 51, 79
14, 17684, Note_on_c, 9, 51, 0
14, 17700, Note_on_c, 9, 59, 79
14, 17714, Note_on_c, 9, 59, 0
14, 17730, Note_on_c, 9, 51, 79
14, 17744, Note_on_c, 9, 51, 0
14, 17760, Note_on_c, 9, 35, 79
14, 17760, Note_on_c, 9, 59, 79
14, 17774, Note_on_c, 9, 59, 0
14, 17774, Note_on_c, 9, 35, 0
14, 17790, Note_on_c, 9, 51, 79
14, 17804, Note_on_c, 9, 51, 0
14, 17820, Note_on_c, 9, 59, 79
14, 17834, Note_on_c, 9, 59, 0
14, 17850, Note_on_c, 9, 51, 79
14, 17864, Note_on_c, 9, 51, 0
14, 17880, Note_on_c, 9, 38, 79
14, 17880, Note_on_c, 9, 59, 79
14, 17894, Note_on_c, 9, 59, 0
14, 17894, Note_on_c, 9, 38, 0
14, 17910, Note_on_c, 9, 51, 79
14, 17924, Note_on_c, 9, 51, 0
14, 17940, Note_on_c, 9, 35, 79
14, 17940, Note_on_c, 9, 59, 79
14, 17954, Note_on_c, 9, 59, 0
14, 17954, Note_on_c, 9, 35, 0
14, 17970, Note_on_c, 9, 51, 79
14, 17984, Note_on_c, 9, 51, 0
14, 18000, Note_on_c, 9, 35, 79
14, 18000, Note_on_c, 9, 59, 79
14, 18014, Note_on_c, 9, 59, 0
14, 18014, Note_on_c, 9, 35, 0
14, 18030, Note_on_c, 9, 51, 79
14, 18044, Note_on_c, 9, 51, 0
14, 18060, Note_on_c, 9, 59, 79
14, 18074, Note_on_c, 9, 59, 0
14, 18090, Note_on_c, 9, 51, 79
14, 18104, Note_on_c, 9, 51, 0
14, 18120, Note_on_c, 9, 38, 79
14, 18120, Note_on_c, 9, 59, 79
14, 18134, Note_on_c, 9, 59, 0
14, 18134, Note_on_c, 9, 38, 0
14, 18150, Note_on_c, 9, 51, 79
14, 18164, Note_on_c, 9, 51, 0
14, 18180, Note_on_c, 9, 59, 79
14, 18194, Note_on_c, 9, 59, 0
14, 18210, Note_on_c, 9, 51, 79
14, 18224, Note_on_c, 9, 51, 0
14, 18240, Note_on_c, 9, 35, 79
14, 18240, Note_on_c, 9, 49, 79
14, 18254, Note_on_c, 9, 49, 0
14, 18254, Note_on_c, 9, 35, 0
14, 18300, Note_on_c, 9, 42, 79
14, 18314, Note_on_c, 9, 42, 0
14, 18360, Note_on_c, 9, 38, 79
14, 18360, Note_on_c, 9, 42, 79
14, 18374, Note_on_c, 9, 42, 0
14, 18374, Note_on_c, 9, 38, 0
14, 18420, Note_on_c, 9, 35, 79
14, 18420, Note_on_c, 9, 42, 79
14, 18434, Note_on_c, 9, 42, 0
14, 18434, Note_on_c, 9, 35, 0
14, 18480, Note_on_c, 9, 35, 79
14, 18494, Note_on_c, 9, 35, 0
14, 18510, Note_on_c, 9, 45, 98
14, 18524, Note_on_c, 9, 45, 0
14, 18540, Note_on_c, 9, 43, 98
14, 18554, Note_on_c, 9, 43, 0
14, 18570, Note_on_c, 9, 41, 95
14, 18584, Note_on_c, 9, 41, 0
14, 18600, Note_on_c, 9, 35, 79
14, 18600, Note_on_c, 9, 57, 79
14, 18600, Note_on_c, 9, 38, 79
14, 18614, Note_on_c, 9, 38, 0
14, 18614, Note_on_c, 9, 57, 0
14, 18614, Note_on_c, 9, 35, 0
14, 18660, Note_on_c, 9, 42, 79
14, 18674, Note_on_c, 9, 42, 0
14, 18690, Note_on_c, 9, 38, 79
14, 18704, Note_on_c, 9, 38, 0
14, 18720, Note_on_c, 9, 35, 79
14, 18720, Note_on_c, 9, 49, 79
14, 18734, Note_on_c, 9, 49, 0
14, 18734, Note_on_c, 9, 35, 0
14, 18780, Note_on_c, 9, 54, 83
14, 18780, Note_on_c, 9, 42, 83
14, 18794, Note_on_c, 9, 42, 0
14, 18794, Note_on_c, 9, 54, 0
14, 18810, Note_on_c, 9, 54, 83
14, 18824, Note_on_c, 9, 54, 0
14, 18840, Note_on_c, 9, 54, 83
14, 18840, Note_on_c, 9, 38, 83
14, 18840, Note_on_c, 9, 42, 83
14, 18854, Note_on_c, 9, 42, 0
14, 18854, Note_on_c, 9, 38, 0
14, 18854, Note_on_c, 9, 54, 0
14, 18900, Note_on_c, 9, 35, 78
14, 18900, Note_on_c, 9, 42, 78
14, 18914, Note_on_c, 9, 42, 0
14, 18914, Note_on_c, 9, 35, 0
14, 18960, Note_on_c, 9, 35, 80
14, 18960, Note_on_c, 9, 42, 80
14, 18974, Note_on_c, 9, 42, 0
14, 18974, Note_on_c, 9, 35, 0
14, 19020, Note_on_c, 9, 54, 80
14, 19020, Note_on_c, 9, 42, 80
14, 19034, Note_on_c, 9, 42, 0
14, 19034, Note_on_c, 9, 54, 0
14, 19050, Note_on_c, 9, 54, 79
14, 19064, Note_on_c, 9, 54, 0
14, 19080, Note_on_c, 9, 54, 78
14, 19080, Note_on_c, 9, 42, 78
14, 19080, Note_on_c, 9, 38, 78
14, 19094, Note_on_c, 9, 38, 0
14, 19094, Note_on_c, 9, 42, 0
14, 19094, Note_on_c, 9, 54, 0
14, 19140, Note_on_c, 9, 42, 85
14, 19154, Note_on_c, 9, 42, 0
14, 19200, Note_on_c, 9, 35, 86
14, 19200, Note_on_c, 9, 42, 86
14, 19214, Note_on_c, 9, 42, 0
14, 19214, Note_on_c, 9, 35, 0
14, 19260, Note_on_c, 9, 54, 86
14, 19260, Note_on_c, 9, 42, 86
14, 19274, Note_on_c, 9, 42, 0
14, 19274, Note_on_c, 9, 54, 0
14, 19290, Note_on_c, 9, 54, 85
14, 19304, Note_on_c, 9, 54, 0
14, 19320, Note_on_c, 9, 38, 85
14, 19320, Note_on_c, 9, 54, 85
14, 19320, Note_on_c, 9, 42, 85
14, 19334, Note_on_c, 9, 42, 0
14, 19334, Note_on_c, 9, 54, 0
14, 19334, Note_on_c, 9, 38, 0
14, 19380, Note_on_c, 9, 35, 87
14, 19380, Note_on_c, 9, 42, 87
14, 19394, Note_on_c, 9, 42, 0
14, 19394, Note_on_c, 9, 35, 0
14, 19440, Note_on_c, 9, 35, 88
14, 19440, Note_on_c, 9, 42, 88
14, 19454, Note_on_c, 9, 42, 0
14, 19454, Note_on_c, 9, 35, 0
14, 19500, Note_on_c, 9, 54, 86
14, 19500, Note_on_c, 9, 42, 86
14, 19514, Note_on_c, 9, 42, 0
14, 19514, Note_on_c, 9, 54, 0
14, 19530, Note_on_c, 9, 54, 85
14, 19544, Note_on_c, 9, 54, 0
14, 19560, Note_on_c, 9, 54, 86
14, 19560, Note_on_c, 9, 42, 86
14, 19560, Note_on_c, 9, 38, 86
14, 19574, Note_on_c, 9, 38, 0
14, 19574, Note_on_c, 9, 42, 0
14, 19574, Note_on_c, 9, 54, 0
14, 19620, Note_on_c, 9, 46, 89
14, 19634, Note_on_c, 9, 46, 0
14, 19680, Note_on_c, 9, 35, 84
14, 19680, Note_on_c, 9, 42, 84
14, 19694, Note_on_c, 9, 42, 0
14, 19694, Note_on_c, 9, 35, 0
14, 19740, Note_on_c, 9, 54, 87
14, 19740, Note_on_c, 9, 42, 87
14, 19754, Note_on_c, 9, 42, 0
14, 19754, Note_on_c, 9, 54, 0
14, 19770, Note_on_c, 9, 54, 87
14, 19784, Note_on_c, 9, 54, 0
14, 19800, Note_on_c, 9, 54, 86
14, 19800, Note_on_c, 9, 42, 86
14, 19800, Note_on_c, 9, 38, 86
14, 19814, Note_on_c, 9, 38, 0
14, 19814, Note_on_c, 9, 42, 0
14, 19814, Note_on_c, 9, 54, 0
14, 19860, Note_on_c, 9, 42, 85
14, 19860, Note_on_c, 9, 35, 85
14, 19874, Note_on_c, 9, 35, 0
14, 19874, Note_on_c, 9, 42, 0
14, 19920, Note_on_c, 9, 42, 85
14, 19920, Note_on_c, 9, 35, 85
14, 19934, Note_on_c, 9, 35, 0
14, 19934, Note_on_c, 9, 42, 0
14, 19980, Note_on_c, 9, 54, 86
14, 19980, Note_on_c, 9, 42, 86
14, 19994, Note_on_c, 9, 42, 0
14, 19994, Note_on_c, 9, 54, 0
14, 20010, Note_on_c, 9, 54, 87
14, 20024, Note_on_c, 9, 54, 0
14, 20040, Note_on_c, 9, 54, 87
14, 20040, Note_on_c, 9, 42, 87
14, 20040, Note_on_c, 9, 38, 87
14, 20054, Note_on_c, 9, 38, 0
14, 20054, Note_on_c, 9, 42, 0
14, 20054, Note_on_c, 9, 54, 0
14, 20100, Note_on_c, 9, 42, 88
14, 20114, Note_on_c, 9, 42, 0
14, 20160, Note_on_c, 9, 35, 83
14, 20160, Note_on_c, 9, 42, 83
14, 20174, Note_on_c, 9, 42, 0
14, 20174, Note_on_c, 9, 35, 0
14, 20220, Note_on_c, 9, 42, 84
14, 20220, Note_on_c, 9, 54, 84
14, 20234, Note_on_c, 9, 54, 0
14, 20234, Note_on_c, 9, 42, 0
14, 20250, Note_on_c, 9, 54, 84
14, 20264, Note_on_c, 9, 54, 0
14, 20280, Note_on_c, 9, 38, 85
14, 20280, Note_on_c, 9, 42, 85
14, 20280, Note_on_c, 9, 54, 85
14, 20294, Note_on_c, 9, 54, 0
14, 20294, Note_on_c, 9, 42, 0
14, 20294, Note_on_c, 9, 38, 0
14, 20340, Note_on_c, 9, 35, 88
14, 20340, Note_on_c, 9, 42, 88
14, 20354, Note_on_c, 9, 42, 0
14, 20354, Note_on_c, 9, 35, 0
14, 20400, Note_on_c, 9, 35, 83
14, 20400, Note_on_c, 9, 42, 83
14, 20414, Note_on_c, 9, 42, 0
14, 20414, Note_on_c, 9, 35, 0
14, 20460, Note_on_c, 9, 42, 85
14, 20460, Note_on_c, 9, 54, 85
14, 20474, Note_on_c, 9, 54, 0
14, 20474, Note_on_c, 9, 42, 0
14, 20490, Note_on_c, 9, 54, 84
14, 20504, Note_on_c, 9, 54, 0
14, 20520, Note_on_c, 9, 35, 84
14, 20520, Note_on_c, 9, 49, 84
14, 20520, Note_on_c, 9, 38, 84
14, 20520, Note_on_c, 9, 42, 84
14, 20520, Note_on_c, 9, 54, 84
14, 20534, Note_on_c, 9, 54, 0
14, 20534, Note_on_c, 9, 38, 0
14, 20534, Note_on_c, 9, 35, 0
14, 20534, Note_on_c, 9, 49, 0
14, 20534, Note_on_c, 9, 42, 0
14, 20580, Note_on_c, 9, 35, 96
14, 20580, Note_on_c, 9, 38, 96
14, 20594, Note_on_c, 9, 38, 0
14, 20594, Note_on_c, 9, 35, 0
14, 20640, Note_on_c, 9, 42, 84
14, 20640, Note_on_c, 9, 35, 84
14, 20640, Note_on_c, 9, 57, 84
14, 20654, Note_on_c, 9, 57, 0
14, 20654, Note_on_c, 9, 35, 0
14, 20654, Note_on_c, 9, 42, 0
14, 20700, Note_on_c, 9, 54, 86
14, 20700, Note_on_c, 9, 42, 86
14, 20714, Note_on_c, 9, 42, 0
14, 20714, Note_on_c, 9, 54, 0
14, 20730, Note_on_c, 9, 54, 86
14, 20744, Note_on_c, 9, 54, 0
14, 20760, Note_on_c, 9, 54, 86
14, 20760, Note_on_c, 9, 38, 86
14, 20760, Note_on_c, 9, 42, 86
14, 20774, Note_on_c, 9, 42, 0
14, 20774, Note_on_c, 9, 38, 0
14, 20774, Note_on_c, 9, 54, 0
14, 20820, Note_on_c, 9, 42, 86
14, 20820, Note_on_c, 9, 35, 86
14, 20834, Note_on_c, 9, 35, 0
14, 20834, Note_on_c, 9, 42, 0
14, 20880, Note_on_c, 9, 42, 86
14, 20880, Note_on_c, 9, 35, 86
14, 20894, Note_on_c, 9, 35, 0
14, 20894, Note_on_c, 9, 42, 0
14, 20940, Note_on_c, 9, 54, 88
14, 20940, Note_on_c, 9, 42, 88
14, 20954, Note_on_c, 9, 42, 0
14, 20954, Note_on_c, 9, 54, 0
14, 20970, Note_on_c, 9, 54, 89
14, 20984, Note_on_c, 9, 54, 0
14, 21000, Note_on_c, 9, 54, 88
14, 21000, Note_on_c, 9, 38, 88
14, 21000, Note_on_c, 9, 42, 88
14, 21014, Note_on_c, 9, 42, 0
14, 21014, Note_on_c, 9, 38, 0
14, 21014, Note_on_c, 9, 54, 0
14, 21060, Note_on_c, 9, 46, 85
14, 21074, Note_on_c, 9, 46, 0
14, 21120, Note_on_c, 9, 35, 86
14, 21120, Note_on_c, 9, 42, 86
14, 21134, Note_on_c, 9, 42, 0
14, 21134, Note_on_c, 9, 35, 0
14, 21180, Note_on_c, 9, 54, 90
14, 21180, Note_on_c, 9, 42, 90
14, 21194, Note_on_c, 9, 42, 0
14, 21194, Note_on_c, 9, 54, 0
14, 21210, Note_on_c, 9, 54, 91
14, 21224, Note_on_c, 9, 54, 0
14, 21240, Note_on_c, 9, 54, 91
14, 21240, Note_on_c, 9, 38, 91
14, 21240, Note_on_c, 9, 42, 91
14, 21254, Note_on_c, 9, 42, 0
14, 21254, Note_on_c, 9, 38, 0
14, 21254, Note_on_c, 9, 54, 0
14, 21300, Note_on_c, 9, 35, 88
14, 21300, Note_on_c, 9, 42, 88
14, 21314, Note_on_c, 9, 42, 0
14, 21314, Note_on_c, 9, 35, 0
14, 21360, Note_on_c, 9, 35, 88
14, 21360, Note_on_c, 9, 42, 88
14, 21374, Note_on_c, 9, 42, 0
14, 21374, Note_on_c, 9, 35, 0
14, 21420, Note_on_c, 9, 54, 86
14, 21420, Note_on_c, 9, 42, 86
14, 21434, Note_on_c, 9, 42, 0
14, 21434, Note_on_c, 9, 54, 0
14, 21450, Note_on_c, 9, 54, 86
14, 21464, Note_on_c, 9, 54, 0
14, 21480, Note_on_c, 9, 54, 86
14, 21480, Note_on_c, 9, 38, 86
14, 21480, Note_on_c, 9, 42, 86
14, 21494, Note_on_c, 9, 42, 0
14, 21494, Note_on_c, 9, 38, 0
14, 21494, Note_on_c, 9, 54, 0
14, 21540, Note_on_c, 9, 42, 88
14, 21554, Note_on_c, 9, 42, 0
14, 21600, Note_on_c, 9, 35, 90
14, 21600, Note_on_c, 9, 42, 90
14, 21614, Note_on_c, 9, 42, 0
14, 21614, Note_on_c, 9, 35, 0
14, 21660, Note_on_c, 9, 42, 90
14, 21660, Note_on_c, 9, 54, 90
14, 21674, Note_on_c, 9, 54, 0
14, 21674, Note_on_c, 9, 42, 0
14, 21690, Note_on_c, 9, 54, 90
14, 21704, Note_on_c, 9, 54, 0
14, 21720, Note_on_c, 9, 38, 91
14, 21720, Note_on_c, 9, 42, 91
14, 21720, Note_on_c, 9, 54, 91
14, 21734, Note_on_c, 9, 54, 0
14, 21734, Note_on_c, 9, 42, 0
14, 21734, Note_on_c, 9, 38, 0
14, 21780, Note_on_c, 9, 35, 90
14, 21780, Note_on_c, 9, 42, 90
14, 21794, Note_on_c, 9, 42, 0
14, 21794, Note_on_c, 9, 35, 0
14, 21840, Note_on_c, 9, 35, 87
14, 21840, Note_on_c, 9, 42, 87
14, 21854, Note_on_c, 9, 42, 0
14, 21854, Note_on_c, 9, 35, 0
14, 21900, Note_on_c, 9, 42, 86
14, 21900, Note_on_c, 9, 54, 86
14, 21914, Note_on_c, 9, 54, 0
14, 21914, Note_on_c, 9, 42, 0
14, 21930, Note_on_c, 9, 54, 87
14, 21944, Note_on_c, 9, 54, 0
14, 21960, Note_on_c, 9, 38, 88
14, 21960, Note_on_c, 9, 42, 88
14, 21960, Note_on_c, 9, 54, 88
14, 21974, Note_on_c, 9, 54, 0
14, 21974, Note_on_c, 9, 42, 0
14, 21974, Note_on_c, 9, 38, 0
14, 22020, Note_on_c, 9, 46, 90
14, 22034, Note_on_c, 9, 46, 0
14, 22080, Note_on_c, 9, 35, 87
14, 22080, Note_on_c, 9, 42, 87
14, 22094, Note_on_c, 9, 42, 0
14, 22094, Note_on_c, 9, 35, 0
14, 22140, Note_on_c, 9, 54, 89
14, 22140, Note_on_c, 9, 42, 89
14, 22154, Note_on_c, 9, 42, 0
14, 22154, Note_on_c, 9, 54, 0
14, 22170, Note_on_c, 9, 54, 89
14, 22184, Note_on_c, 9, 54, 0
14, 22200, Note_on_c, 9, 54, 89
14, 22200, Note_on_c, 9, 38, 89
14, 22200, Note_on_c, 9, 42, 89
14, 22214, Note_on_c, 9, 42, 0
14, 22214, Note_on_c, 9, 38, 0
14, 22214, Note_on_c, 9, 54, 0
14, 22260, Note_on_c, 9, 35, 91
14, 22260, Note_on_c, 9, 42, 91
14, 22274, Note_on_c, 9, 42, 0
14, 22274, Note_on_c, 9, 35, 0
14, 22320, Note_on_c, 9, 35, 91
14, 22320, Note_on_c, 9, 42, 91
14, 22334, Note_on_c, 9, 42, 0
14, 22334, Note_on_c, 9, 35, 0
14, 22380, Note_on_c, 9, 47, 100
14, 22380, Note_on_c, 9, 54, 90
14, 22380, Note_on_c, 9, 42, 90
14, 22394, Note_on_c, 9, 42, 0
14, 22394, Note_on_c, 9, 54, 0
14, 22394, Note_on_c, 9, 47, 0
14, 22410, Note_on_c, 9, 45, 100
14, 22410, Note_on_c, 9, 54, 90
14, 22424, Note_on_c, 9, 54, 0
14, 22424, Note_on_c, 9, 45, 0
14, 22440, Note_on_c, 9, 35, 100
14, 22440, Note_on_c, 9, 54, 89
14, 22454, Note_on_c, 9, 54, 0
14, 22454, Note_on_c, 9, 35, 0
14, 22470, Note_on_c, 9, 45, 100
14, 22484, Note_on_c, 9, 45, 0
14, 22500, Note_on_c, 9, 43, 100
14, 22514, Note_on_c, 9, 43, 0
14, 22530, Note_on_c, 9, 38, 100
14, 22544, Note_on_c, 9, 38, 0
14, 22560, Note_on_c, 9, 35, 100
14, 22560, Note_on_c, 9, 49, 100
14, 22574, Note_on_c, 9, 49, 0
14, 22574, Note_on_c, 9, 35, 0
14, 22620, Note_on_c, 9, 54, 87
14, 22620, Note_on_c, 9, 42, 87
14, 22634, Note_on_c, 9, 42, 0
14, 22634, Note_on_c, 9, 54, 0
14, 22650, Note_on_c, 9, 54, 88
14, 22664, Note_on_c, 9, 54, 0
14, 22680, Note_on_c, 9, 54, 90
14, 22680, Note_on_c, 9, 42, 90
14, 22680, Note_on_c, 9, 38, 90
14, 22694, Note_on_c, 9, 38, 0
14, 22694, Note_on_c, 9, 42, 0
14, 22694, Note_on_c, 9, 54, 0
14, 22740, Note_on_c, 9, 35, 91
14, 22740, Note_on_c, 9, 42, 91
14, 22754, Note_on_c, 9, 42, 0
14, 22754, Note_on_c, 9, 35, 0
14, 22800, Note_on_c, 9, 35, 91
14, 22800, Note_on_c, 9, 42, 91
14, 22814, Note_on_c, 9, 42, 0
14, 22814, Note_on_c, 9, 35, 0
14, 22860, Note_on_c, 9, 54, 91
14, 22860, Note_on_c, 9, 42, 91
14, 22874, Note_on_c, 9, 42, 0
14, 22874, Note_on_c, 9, 54, 0
14, 22890, Note_on_c, 9, 54, 91
14, 22904, Note_on_c, 9, 54, 0
14, 22920, Note_on_c, 9, 54, 90
14, 22920, Note_on_c, 9, 38, 90
14, 22920, Note_on_c, 9, 42, 90
14, 22934, Note_on_c, 9, 42, 0
14, 22934, Note_on_c, 9, 38, 0
14, 22934, Note_on_c, 9, 54, 0
14, 22980, Note_on_c, 9, 46, 89
14, 22994, Note_on_c, 9, 46, 0
14, 23040, Note_on_c, 9, 35, 91
14, 23040, Note_on_c, 9, 42, 91
14, 23054, Note_on_c, 9, 42, 0
14, 23054, Note_on_c, 9, 35, 0
14, 23100, Note_on_c, 9, 54, 91
14, 23100, Note_on_c, 9, 42, 91
14, 23114, Note_on_c, 9, 42, 0
14, 23114, Note_on_c, 9, 54, 0
14, 23130, Note_on_c, 9, 54, 91
14, 23144, Note_on_c, 9, 54, 0
14, 23160, Note_on_c, 9, 38, 100
14, 23160, Note_on_c, 9, 54, 91
14, 23160, Note_on_c, 9, 42, 91
14, 23174, Note_on_c, 9, 42, 0
14, 23174, Note_on_c, 9, 54, 0
14, 23174, Note_on_c, 9, 38, 0
14, 23220, Note_on_c, 9, 42, 91
14, 23220, Note_on_c, 9, 35, 91
14, 23234, Note_on_c, 9, 35, 0
14, 23234, Note_on_c, 9, 42, 0
14, 23280, Note_on_c, 9, 42, 89
14, 23280, Note_on_c, 9, 35, 89
14, 23294, Note_on_c, 9, 35, 0
14, 23294, Note_on_c, 9, 42, 0
14, 23340, Note_on_c, 9, 54, 91
14, 23340, Note_on_c, 9, 42, 91
14, 23354, Note_on_c, 9, 42, 0
14, 23354, Note_on_c, 9, 54, 0
14, 23370, Note_on_c, 9, 54, 92
14, 23384, Note_on_c, 9, 54, 0
14, 23400, Note_on_c, 9, 38, 90
14, 23400, Note_on_c, 9, 54, 90
14, 23400, Note_on_c, 9, 42, 90
14, 23414, Note_on_c, 9, 42, 0
14, 23414, Note_on_c, 9, 54, 0
14, 23414, Note_on_c, 9, 38, 0
14, 23460, Note_on_c, 9, 35, 91
14, 23460, Note_on_c, 9, 42, 91
14, 23474, Note_on_c, 9, 42, 0
14, 23474, Note_on_c, 9, 35, 0
14, 23490, Note_on_c, 9, 35, 92
14, 23504, Note_on_c, 9, 35, 0
14, 23520, Note_on_c, 9, 57, 93
14, 23520, Note_on_c, 9, 35, 93
14, 23534, Note_on_c, 9, 35, 0
14, 23534, Note_on_c, 9, 57, 0
14, 23580, Note_on_c, 9, 54, 93
14, 23580, Note_on_c, 9, 42, 93
14, 23594, Note_on_c, 9, 42, 0
14, 23594, Note_on_c, 9, 54, 0
14, 23610, Note_on_c, 9, 54, 93
14, 23610, Note_on_c, 9, 35, 93
14, 23624, Note_on_c, 9, 35, 0
14, 23624, Note_on_c, 9, 54, 0
14, 23640, Note_on_c, 9, 54, 92
14, 23640, Note_on_c, 9, 38, 92
14, 23640, Note_on_c, 9, 49, 92
14, 23654, Note_on_c, 9, 49, 0
14, 23654, Note_on_c, 9, 38, 0
14, 23654, Note_on_c, 9, 54, 0
14, 23700, Note_on_c, 9, 35, 92
14, 23700, Note_on_c, 9, 42, 92
14, 23714, Note_on_c, 9, 42, 0
14, 23714, Note_on_c, 9, 35, 0
14, 23760, Note_on_c, 9, 42, 91
14, 23760, Note_on_c, 9, 35, 91
14, 23774, Note_on_c, 9, 35, 0
14, 23774, Note_on_c, 9, 42, 0
14, 23820, Note_on_c, 9, 54, 86
14, 23820, Note_on_c, 9, 42, 86
14, 23834, Note_on_c, 9, 42, 0
14, 23834, Note_on_c, 9, 54, 0
14, 23850, Note_on_c, 9, 54, 87
14, 23864, Note_on_c, 9, 54, 0
14, 23880, Note_on_c, 9, 42, 93
14, 23880, Note_on_c, 9, 38, 93
14, 23880, Note_on_c, 9, 54, 93
14, 23894, Note_on_c, 9, 54, 0
14, 23894, Note_on_c, 9, 38, 0
14, 23894, Note_on_c, 9, 42, 0
14, 23940, Note_on_c, 9, 46, 91
14, 23954, Note_on_c, 9, 46, 0
14, 24000, Note_on_c, 9, 35, 88
14, 24014, Note_on_c, 9, 35, 0
14, 24060, Note_on_c, 9, 54, 86
14, 24074, Note_on_c, 9, 54, 0
14, 24090, Note_on_c, 9, 54, 85
14, 24104, Note_on_c, 9, 54, 0
14, 24120, Note_on_c, 9, 38, 86
14, 24120, Note_on_c, 9, 54, 86
14, 24134, Note_on_c, 9, 54, 0
14, 24134, Note_on_c, 9, 38, 0
14, 24180, Note_on_c, 9, 35, 89
14, 24194, Note_on_c, 9, 35, 0
14, 24240, Note_on_c, 9, 38, 95
14, 24240, Note_on_c, 9, 35, 95
14, 24254, Note_on_c, 9, 35, 0
14, 24254, Note_on_c, 9, 38, 0
14, 24300, Note_on_c, 9, 41, 100
14, 24300, Note_on_c, 9, 54, 67
14, 24314, Note_on_c, 9, 54, 0
14, 24314, Note_on_c, 9, 41, 0
14, 24330, Note_on_c, 9, 38, 72
14, 24330, Note_on_c, 9, 54, 72
14, 24344, Note_on_c, 9, 54, 0
14, 24344, Note_on_c, 9, 38, 0
14, 24360, Note_on_c, 9, 57, 90
14, 24360, Note_on_c, 9, 38, 90
14, 24360, Note_on_c, 9, 54, 90
14, 24374, Note_on_c, 9, 54, 0
14, 24374, Note_on_c, 9, 38, 0
14, 24374, Note_on_c, 9, 57, 0
14, 24390, Note_on_c, 9, 43, 100
14, 24404, Note_on_c, 9, 43, 0
14, 24450, Note_on_c, 9, 38, 100
14, 24464, Note_on_c, 9, 38, 0
14, 24480, Note_on_c, 9, 35, 93
14, 24480, Note_on_c, 9, 49, 93
14, 24494, Note_on_c, 9, 49, 0
14, 24494, Note_on_c, 9, 35, 0
14, 24600, Note_on_c, 9, 38, 96
14, 24614, Note_on_c, 9, 38, 0
14, 24660, Note_on_c, 9, 57, 95
14, 24660, Note_on_c, 9, 35, 95
14, 24674, Note_on_c, 9, 35, 0
14, 24674, Note_on_c, 9, 57, 0
14, 24720, Note_on_c, 9, 49, 95
14, 24720, Note_on_c, 9, 35, 95
14, 24734, Note_on_c, 9, 35, 0
14, 24734, Note_on_c, 9, 49, 0
14, 24840, Note_on_c, 9, 38, 96
14, 24854, Note_on_c, 9, 38, 0
14, 24960, Note_on_c, 9, 35, 100
14, 24960, Note_on_c, 9, 49, 100
14, 24974, Note_on_c, 9, 49, 0
14, 24974, Note_on_c, 9, 35, 0
14, 25020, Note_on_c, 9, 54, 93
14, 25020, Note_on_c, 9, 42, 93
14, 25034, Note_on_c, 9, 42, 0
14, 25034, Note_on_c, 9, 54, 0
14, 25050, Note_on_c, 9, 54, 94
14, 25064, Note_on_c, 9, 54, 0
14, 25080, Note_on_c, 9, 54, 97
14, 25080, Note_on_c, 9, 38, 97
14, 25080, Note_on_c, 9, 42, 97
14, 25094, Note_on_c, 9, 42, 0
14, 25094, Note_on_c, 9, 38, 0
14, 25094, Note_on_c, 9, 54, 0
14, 25140, Note_on_c, 9, 35, 100
14, 25140, Note_on_c, 9, 42, 100
14, 25154, Note_on_c, 9, 42, 0
14, 25154, Note_on_c, 9, 35, 0
14, 25200, Note_on_c, 9, 35, 100
14, 25200, Note_on_c, 9, 42, 100
14, 25214, Note_on_c, 9, 42, 0
14, 25214, Note_on_c, 9, 35, 0
14, 25260, Note_on_c, 9, 54, 92
14, 25260, Note_on_c, 9, 42, 92
14, 25274, Note_on_c, 9, 42, 0
14, 25274, Note_on_c, 9, 54, 0
14, 25290, Note_on_c, 9, 54, 94
14, 25304, Note_on_c, 9, 54, 0
14, 25320, Note_on_c, 9, 54, 96
14, 25320, Note_on_c, 9, 38, 96
14, 25320, Note_on_c, 9, 42, 96
14, 25334, Note_on_c, 9, 42, 0
14, 25334, Note_on_c, 9, 38, 0
14, 25334, Note_on_c, 9, 54, 0
14, 25380, Note_on_c, 9, 42, 100
14, 25394, Note_on_c, 9, 42, 0
14, 25440, Note_on_c, 9, 35, 100
14, 25440, Note_on_c, 9, 49, 100
14, 25454, Note_on_c, 9, 49, 0
14, 25454, Note_on_c, 9, 35, 0
14, 25530, Note_on_c, 9, 38, 85
14, 25544, Note_on_c, 9, 38, 0
14, 25560, Note_on_c, 9, 38, 96
14, 25574, Note_on_c, 9, 38, 0
14, 25590, Note_on_c, 9, 38, 100
14, 25604, Note_on_c, 9, 38, 0
14, 25620, Note_on_c, 9, 57, 100
14, 25620, Note_on_c, 9, 35, 100
14, 25634, Note_on_c, 9, 35, 0
14, 25634, Note_on_c, 9, 57, 0
14, 25680, Note_on_c, 9, 49, 100
14, 25680, Note_on_c, 9, 35, 100
14, 25694, Note_on_c, 9, 35, 0
14, 25694, Note_on_c, 9, 49, 0
14, 25740, Note_on_c, 9, 54, 100
14, 25754, Note_on_c, 9, 54, 0
14, 25770, Note_on_c, 9, 54, 100
14, 25770, Note_on_c, 9, 35, 100
14, 25784, Note_on_c, 9, 35, 0
14, 25784, Note_on_c, 9, 54, 0
14, 25785, Note_on_c, 9, 35, 100
14, 25799, Note_on_c, 9, 35, 0
14, 25800, Note_on_c, 9, 54, 100
14, 25800, Note_on_c, 9, 57, 100
14, 25800, Note_on_c, 9, 35, 100
14, 25800, Note_on_c, 9, 38, 100
14, 25814, Note_on_c, 9, 38, 0
14, 25814, Note_on_c, 9, 54, 0
14, 25814, Note_on_c, 9, 57, 0
14, 25814, Note_on_c, 9, 35, 0
14, 25920, Note_on_c, 9, 42, 100
14, 25920, Note_on_c, 9, 35, 100
14, 25920, Note_on_c, 9, 49, 100
14, 25934, Note_on_c, 9, 49, 0
14, 25934, Note_on_c, 9, 35, 0
14, 25934, Note_on_c, 9, 42, 0
14, 25980, Note_on_c, 9, 54, 100
14, 25980, Note_on_c, 9, 42, 100
14, 25994, Note_on_c, 9, 42, 0
14, 25994, Note_on_c, 9, 54, 0
14, 26010, Note_on_c, 9, 54, 100
14, 26024, Note_on_c, 9, 54, 0
14, 26040, Note_on_c, 9, 54, 100
14, 26040, Note_on_c, 9, 42, 100
14, 26040, Note_on_c, 9, 38, 100
14, 26054, Note_on_c, 9, 38, 0
14, 26054, Note_on_c, 9, 42, 0
14, 26054, Note_on_c, 9, 54, 0
14, 26100, Note_on_c, 9, 42, 100
14, 26100, Note_on_c, 9, 35, 100
14, 26114, Note_on_c, 9, 35, 0
14, 26114, Note_on_c, 9, 42, 0
14, 26160, Note_on_c, 9, 42, 100
14, 26160, Note_on_c, 9, 35, 100
14, 26174, Note_on_c, 9, 35, 0
14, 26174, Note_on_c, 9, 42, 0
14, 26220, Note_on_c, 9, 54, 100
14, 26220, Note_on_c, 9, 42, 100
14, 26234, Note_on_c, 9, 42, 0
14, 26234, Note_on_c, 9, 54, 0
14, 26250, Note_on_c, 9, 54, 100
14, 26264, Note_on_c, 9, 54, 0
14, 26280, Note_on_c, 9, 54, 100
14, 26280, Note_on_c, 9, 42, 100
14, 26280, Note_on_c, 9, 38, 100
14, 26294, Note_on_c, 9, 38, 0
14, 26294, Note_on_c, 9, 42, 0
14, 26294, Note_on_c, 9, 54, 0
14, 26340, Note_on_c, 9, 46, 100
14, 26354, Note_on_c, 9, 46, 0
14, 26400, Note_on_c, 9, 35, 81
14, 26400, Note_on_c, 9, 49, 81
14, 26414, Note_on_c, 9, 49, 0
14, 26414, Note_on_c, 9, 35, 0
14, 26685, Note_on_c, 9, 43, 60
14, 26699, Note_on_c, 9, 43, 0
14, 26700, Note_on_c, 9, 43, 61
14, 26714, Note_on_c, 9, 43, 0
14, 26715, Note_on_c, 9, 43, 62
14, 26729, Note_on_c, 9, 43, 0
14, 26730, Note_on_c, 9, 41, 65
14, 26744, Note_on_c, 9, 41, 0
14, 26745, Note_on_c, 9, 41, 68
14, 26759, Note_on_c, 9, 41, 0
14, 26760, Note_on_c, 9, 41, 71
14, 26774, Note_on_c, 9, 41, 0
14, 26775, Note_on_c, 9, 41, 76
14, 26789, Note_on_c, 9, 41, 0
14, 26790, Note_on_c, 9, 45, 81
14, 26790, Note_on_c, 9, 41, 76
14, 26804, Note_on_c, 9, 41, 0
14, 26804, Note_on_c, 9, 45, 0
14, 26805, Note_on_c, 9, 38, 88
14, 26819, Note_on_c, 9, 38, 0
14, 26835, Note_on_c, 9, 35, 81
14, 26835, Note_on_c, 9, 38, 100
14, 26849, Note_on_c, 9, 38, 0
14, 26849, Note_on_c, 9, 35, 0
14, 26880, Note_on_c, 9, 49, 97
14, 26880, Note_on_c, 9, 42, 97
14, 26880, Note_on_c, 9, 35, 97
14, 26894, Note_on_c, 9, 35, 0
14, 26894, Note_on_c, 9, 42, 0
14, 26894, Note_on_c, 9, 49, 0
14, 26940, Note_on_c, 9, 42, 97
14, 26954, Note_on_c, 9, 42, 0
14, 27000, Note_on_c, 9, 42, 97
14, 27000, Note_on_c, 9, 38, 97
14, 27014, Note_on_c, 9, 38, 0
14, 27014, Note_on_c, 9, 42, 0
14, 27060, Note_on_c, 9, 35, 93
14, 27060, Note_on_c, 9, 42, 93
14, 27074, Note_on_c, 9, 42, 0
14, 27074, Note_on_c, 9, 35, 0
14, 27120, Note_on_c, 9, 35, 94
14, 27120, Note_on_c, 9, 42, 94
14, 27134, Note_on_c, 9, 42, 0
14, 27134, Note_on_c, 9, 35, 0
14, 27180, Note_on_c, 9, 42, 95
14, 27194, Note_on_c, 9, 42, 0
14, 27240, Note_on_c, 9, 42, 96
14, 27240, Note_on_c, 9, 38, 96
14, 27254, Note_on_c, 9, 38, 0
14, 27254, Note_on_c, 9, 42, 0
14, 27300, Note_on_c, 9, 46, 99
14, 27314, Note_on_c, 9, 46, 0
14, 27360, Note_on_c, 9, 38, 99
14, 27360, Note_on_c, 9, 35, 99
14, 27374, Note_on_c, 9, 35, 0
14, 27374, Note_on_c, 9, 38, 0
14, 27630, Note_on_c, 9, 38, 105
14, 27644, Note_on_c, 9, 38, 0
14, 27690, Note_on_c, 9, 43, 100
14, 27704, Note_on_c, 9, 43, 0
14, 27750, Note_on_c, 9, 43, 102
14, 27764, Note_on_c, 9, 43, 0
14, 27780, Note_on_c, 9, 43, 102
14, 27794, Note_on_c, 9, 43, 0
14, 27810, Note_on_c, 9, 41, 102
14, 27824, Note_on_c, 9, 41, 0
14, 27840, Note_on_c, 9, 42, 98
14, 27840, Note_on_c, 9, 35, 98
14, 27840, Note_on_c, 9, 49, 98
14, 27854, Note_on_c, 9, 49, 0
14, 27854, Note_on_c, 9, 35, 0
14, 27854, Note_on_c, 9, 42, 0
14, 27900, Note_on_c, 9, 54, 100
14, 27900, Note_on_c, 9, 42, 99
14, 27914, Note_on_c, 9, 42, 0
14, 27914, Note_on_c, 9, 54, 0
14, 27930, Note_on_c, 9, 54, 100
14, 27944, Note_on_c, 9, 54, 0
14, 27960, Note_on_c, 9, 54, 100
14, 27960, Note_on_c, 9, 38, 106
14, 27960, Note_on_c, 9, 42, 103
14, 27974, Note_on_c, 9, 42, 0
14, 27974, Note_on_c, 9, 38, 0
14, 27974, Note_on_c, 9, 54, 0
14, 28020, Note_on_c, 9, 35, 106
14, 28020, Note_on_c, 9, 42, 99
14, 28034, Note_on_c, 9, 42, 0
14, 28034, Note_on_c, 9, 35, 0
14, 28080, Note_on_c, 9, 35, 106
14, 28080, Note_on_c, 9, 42, 103
14, 28094, Note_on_c, 9, 42, 0
14, 28094, Note_on_c, 9, 35, 0
14, 28140, Note_on_c, 9, 54, 100
14, 28140, Note_on_c, 9, 42, 106
14, 28154, Note_on_c, 9, 42, 0
14, 28154, Note_on_c, 9, 54, 0
14, 28200, Note_on_c, 9, 54, 100
14, 28200, Note_on_c, 9, 38, 106
14, 28200, Note_on_c, 9, 42, 102
14, 28214, Note_on_c, 9, 42, 0
14, 28214, Note_on_c, 9, 38, 0
14, 28214, Note_on_c, 9, 54, 0
14, 28260, Note_on_c, 9, 42, 106
14, 28274, Note_on_c, 9, 42, 0
14, 28320, Note_on_c, 9, 35, 100
14, 28320, Note_on_c, 9, 42, 100
14, 28334, Note_on_c, 9, 42, 0
14, 28334, Note_on_c, 9, 35, 0
14, 28380, Note_on_c, 9, 54, 100
14, 28380, Note_on_c, 9, 42, 100
14, 28394, Note_on_c, 9, 42, 0
14, 28394, Note_on_c, 9, 54, 0
14, 28410, Note_on_c, 9, 54, 100
14, 28424, Note_on_c, 9, 54, 0
14, 28440, Note_on_c, 9, 54, 100
14, 28440, Note_on_c, 9, 38, 100
14, 28440, Note_on_c, 9, 42, 100
14, 28454, Note_on_c, 9, 42, 0
14, 28454, Note_on_c, 9, 38, 0
14, 28454, Note_on_c, 9, 54, 0
14, 28500, Note_on_c, 9, 35, 100
14, 28500, Note_on_c, 9, 42, 100
14, 28514, Note_on_c, 9, 42, 0
14, 28514, Note_on_c, 9, 35, 0
14, 28560, Note_on_c, 9, 35, 100
14, 28560, Note_on_c, 9, 42, 100
14, 28574, Note_on_c, 9, 42, 0
14, 28574, Note_on_c, 9, 35, 0
14, 28620, Note_on_c, 9, 54, 100
14, 28620, Note_on_c, 9, 42, 100
14, 28634, Note_on_c, 9, 42, 0
14, 28634, Note_on_c, 9, 54, 0
14, 28650, Note_on_c, 9, 35, 100
14, 28664, Note_on_c, 9, 35, 0
14, 28680, Note_on_c, 9, 54, 100
14, 28680, Note_on_c, 9, 57, 100
14, 28680, Note_on_c, 9, 38, 100
14, 28680, Note_on_c, 9, 42, 100
14, 28694, Note_on_c, 9, 42, 0
14, 28694, Note_on_c, 9, 54, 0
14, 28694, Note_on_c, 9, 57, 0
14, 28694, Note_on_c, 9, 38, 0
14, 28740, Note_on_c, 9, 42, 100
14, 28754, Note_on_c, 9, 42, 0
14, 28800, Note_on_c, 9, 35, 100
14, 28800, Note_on_c, 9, 49, 100
14, 28814, Note_on_c, 9, 49, 0
14, 28814, Note_on_c, 9, 35, 0
14, 28860, Note_on_c, 9, 54, 100
14, 28860, Note_on_c, 9, 42, 100
14, 28874, Note_on_c, 9, 42, 0
14, 28874, Note_on_c, 9, 54, 0
14, 28890, Note_on_c, 9, 54, 100
14, 28904, Note_on_c, 9, 54, 0
14, 28920, Note_on_c, 9, 54, 100
14, 28920, Note_on_c, 9, 38, 100
14, 28920, Note_on_c, 9, 42, 100
14, 28934, Note_on_c, 9, 42, 0
14, 28934, Note_on_c, 9, 38, 0
14, 28934, Note_on_c, 9, 54, 0
14, 28980, Note_on_c, 9, 35, 100
14, 28980, Note_on_c, 9, 42, 100
14, 28994, Note_on_c, 9, 42, 0
14, 28994, Note_on_c, 9, 35, 0
14, 29040, Note_on_c, 9, 35, 100
14, 29040, Note_on_c, 9, 42, 100
14, 29054, Note_on_c, 9, 42, 0
14, 29054, Note_on_c, 9, 35, 0
14, 29100, Note_on_c, 9, 54, 100
14, 29100, Note_on_c, 9, 42, 100
14, 29114, Note_on_c, 9, 42, 0
14, 29114, Note_on_c, 9, 54, 0
14, 29160, Note_on_c, 9, 54, 100
14, 29160, Note_on_c, 9, 38, 100
14, 29160, Note_on_c, 9, 42, 100
14, 29174, Note_on_c, 9, 42, 0
14, 29174, Note_on_c, 9, 38, 0
14, 29174, Note_on_c, 9, 54, 0
14, 29220, Note_on_c, 9, 46, 100
14, 29234, Note_on_c, 9, 46, 0
14, 29280, Note_on_c, 9, 35, 100
14, 29280, Note_on_c, 9, 42, 100
14, 29294, Note_on_c, 9, 42, 0
14, 29294, Note_on_c, 9, 35, 0
14, 29340, Note_on_c, 9, 54, 100
14, 29340, Note_on_c, 9, 42, 100
14, 29354, Note_on_c, 9, 42, 0
14, 29354, Note_on_c, 9, 54, 0
14, 29370, Note_on_c, 9, 54, 100
14, 29384, Note_on_c, 9, 54, 0
14, 29400, Note_on_c, 9, 54, 100
14, 29400, Note_on_c, 9, 38, 100
14, 29400, Note_on_c, 9, 42, 100
14, 29414, Note_on_c, 9, 42, 0
14, 29414, Note_on_c, 9, 38, 0
14, 29414, Note_on_c, 9, 54, 0
14, 29460, Note_on_c, 9, 35, 100
14, 29460, Note_on_c, 9, 42, 100
14, 29474, Note_on_c, 9, 42, 0
14, 29474, Note_on_c, 9, 35, 0
14, 29520, Note_on_c, 9, 35, 100
14, 29520, Note_on_c, 9, 42, 100
14, 29534, Note_on_c, 9, 42, 0
14, 29534, Note_on_c, 9, 35, 0
14, 29580, Note_on_c, 9, 54, 100
14, 29580, Note_on_c, 9, 42, 100
14, 29594, Note_on_c, 9, 42, 0
14, 29594, Note_on_c, 9, 54, 0
14, 29640, Note_on_c, 9, 54, 100
14, 29640, Note_on_c, 9, 38, 100
14, 29640, Note_on_c, 9, 42, 100
14, 29654, Note_on_c, 9, 42, 0
14, 29654, Note_on_c, 9, 38, 0
14, 29654, Note_on_c, 9, 54, 0
14, 29700, Note_on_c, 9, 42, 100
14, 29714, Note_on_c, 9, 42, 0
14, 29760, Note_on_c, 9, 35, 100
14, 29760, Note_on_c, 9, 42, 100
14, 29774, Note_on_c, 9, 42, 0
14, 29774, Note_on_c, 9, 35, 0
14, 29820, Note_on_c, 9, 54, 100
14, 29820, Note_on_c, 9, 42, 100
14, 29834, Note_on_c, 9, 42, 0
14, 29834, Note_on_c, 9, 54, 0
14, 29850, Note_on_c, 9, 54, 100
14, 29864, Note_on_c, 9, 54, 0
14, 29880, Note_on_c, 9, 54, 100
14, 29880, Note_on_c, 9, 38, 100
14, 29880, Note_on_c, 9, 42, 100
14, 29894, Note_on_c, 9, 42, 0
14, 29894, Note_on_c, 9, 38, 0
14, 29894, Note_on_c, 9, 54, 0
14, 29940, Note_on_c, 9, 35, 100
14, 29940, Note_on_c, 9, 42, 100
14, 29954, Note_on_c, 9, 42, 0
14, 29954, Note_on_c, 9, 35, 0
14, 30000, Note_on_c, 9, 35, 100
14, 30000, Note_on_c, 9, 42, 100
14, 30014, Note_on_c, 9, 42, 0
14, 30014, Note_on_c, 9, 35, 0
14, 30060, Note_on_c, 9, 54, 100
14, 30060, Note_on_c, 9, 42, 100
14, 30074, Note_on_c, 9, 42, 0
14, 30074, Note_on_c, 9, 54, 0
14, 30120, Note_on_c, 9, 54, 100
14, 30120, Note_on_c, 9, 35, 100
14, 30120, Note_on_c, 9, 57, 100
14, 30120, Note_on_c, 9, 38, 100
14, 30120, Note_on_c, 9, 42, 100
14, 30134, Note_on_c, 9, 42, 0
14, 30134, Note_on_c, 9, 57, 0
14, 30134, Note_on_c, 9, 54, 0
14, 30134, Note_on_c, 9, 35, 0
14, 30134, Note_on_c, 9, 38, 0
14, 30180, Note_on_c, 9, 42, 100
14, 30194, Note_on_c, 9, 42, 0
14, 30240, Note_on_c, 9, 35, 100
14, 30240, Note_on_c, 9, 49, 100
14, 30254, Note_on_c, 9, 49, 0
14, 30254, Note_on_c, 9, 35, 0
14, 30300, Note_on_c, 9, 54, 100
14, 30300, Note_on_c, 9, 42, 100
14, 30314, Note_on_c, 9, 42, 0
14, 30314, Note_on_c, 9, 54, 0
14, 30330, Note_on_c, 9, 54, 100
14, 30344, Note_on_c, 9, 54, 0
14, 30360, Note_on_c, 9, 54, 100
14, 30360, Note_on_c, 9, 38, 100
14, 30360, Note_on_c, 9, 42, 100
14, 30374, Note_on_c, 9, 42, 0
14, 30374, Note_on_c, 9, 38, 0
14, 30374, Note_on_c, 9, 54, 0
14, 30420, Note_on_c, 9, 35, 100
14, 30420, Note_on_c, 9, 42, 100
14, 30434, Note_on_c, 9, 42, 0
14, 30434, Note_on_c, 9, 35, 0
14, 30480, Note_on_c, 9, 45, 100
14, 30480, Note_on_c, 9, 35, 100
14, 30494, Note_on_c, 9, 35, 0
14, 30494, Note_on_c, 9, 45, 0
14, 30510, Note_on_c, 9, 45, 100
14, 30524, Note_on_c, 9, 45, 0
14, 30540, Note_on_c, 9, 54, 100
14, 30540, Note_on_c, 9, 43, 100
14, 30554, Note_on_c, 9, 43, 0
14, 30554, Note_on_c, 9, 54, 0
14, 30600, Note_on_c, 9, 54, 100
14, 30600, Note_on_c, 9, 38, 100
14, 30600, Note_on_c, 9, 57, 100
14, 30600, Note_on_c, 9, 35, 100
14, 30614, Note_on_c, 9, 35, 0
14, 30614, Note_on_c, 9, 54, 0
14, 30614, Note_on_c, 9, 38, 0
14, 30614, Note_on_c, 9, 57, 0
14, 30630, Note_on_c, 9, 49, 100
14, 30630, Note_on_c, 9, 35, 100
14, 30644, Note_on_c, 9, 35, 0
14, 30644, Note_on_c, 9, 49, 0
14, 30660, Note_on_c, 9, 38, 100
14, 30674, Note_on_c, 9, 38, 0
14, 30720, Note_on_c, 9, 35, 100
14, 30720, Note_on_c, 9, 49, 100
14, 30734, Note_on_c, 9, 49, 0
14, 30734, Note_on_c, 9, 35, 0
14, 30780, Note_on_c, 9, 54, 100
14, 30780, Note_on_c, 9, 42, 100
14, 30794, Note_on_c, 9, 42, 0
14, 30794, Note_on_c, 9, 54, 0
14, 30810, Note_on_c, 9, 54, 100
14, 30824, Note_on_c, 9, 54, 0
14, 30840, Note_on_c, 9, 54, 100
14, 30840, Note_on_c, 9, 38, 100
14, 30840, Note_on_c, 9, 42, 100
14, 30854, Note_on_c, 9, 42, 0
14, 30854, Note_on_c, 9, 38, 0
14, 30854, Note_on_c, 9, 54, 0
14, 30900, Note_on_c, 9, 42, 100
14, 30900, Note_on_c, 9, 35, 100
14, 30914, Note_on_c, 9, 35, 0
14, 30914, Note_on_c, 9, 42, 0
14, 30960, Note_on_c, 9, 42, 100
14, 30960, Note_on_c, 9, 35, 100
14, 30974, Note_on_c, 9, 35, 0
14, 30974, Note_on_c, 9, 42, 0
14, 31020, Note_on_c, 9, 54, 100
14, 31020, Note_on_c, 9, 42, 100
14, 31034, Note_on_c, 9, 42, 0
14, 31034, Note_on_c, 9, 54, 0
14, 31080, Note_on_c, 9, 54, 100
14, 31080, Note_on_c, 9, 38, 100
14, 31080, Note_on_c, 9, 42, 100
14, 31094, Note_on_c, 9, 42, 0
14, 31094, Note_on_c, 9, 38, 0
14, 31094, Note_on_c, 9, 54, 0
14, 31140, Note_on_c, 9, 42, 100
14, 31154, Note_on_c, 9, 42, 0
14, 31200, Note_on_c, 9, 35, 100
14, 31200, Note_on_c, 9, 42, 100
14, 31214, Note_on_c, 9, 42, 0
14, 31214, Note_on_c, 9, 35, 0
14, 31260, Note_on_c, 9, 54, 100
14, 31260, Note_on_c, 9, 42, 100
14, 31274, Note_on_c, 9, 42, 0
14, 31274, Note_on_c, 9, 54, 0
14, 31290, Note_on_c, 9, 54, 100
14, 31304, Note_on_c, 9, 54, 0
14, 31320, Note_on_c, 9, 54, 100
14, 31320, Note_on_c, 9, 38, 100
14, 31320, Note_on_c, 9, 42, 100
14, 31334, Note_on_c, 9, 42, 0
14, 31334, Note_on_c, 9, 38, 0
14, 31334, Note_on_c, 9, 54, 0
14, 31380, Note_on_c, 9, 35, 100
14, 31380, Note_on_c, 9, 42, 100
14, 31394, Note_on_c, 9, 42, 0
14, 31394, Note_on_c, 9, 35, 0
14, 31440, Note_on_c, 9, 35, 100
14, 31440, Note_on_c, 9, 42, 100
14, 31454, Note_on_c, 9, 42, 0
14, 31454, Note_on_c, 9, 35, 0
14, 31500, Note_on_c, 9, 54, 100
14, 31500, Note_on_c, 9, 42, 100
14, 31514, Note_on_c, 9, 42, 0
14, 31514, Note_on_c, 9, 54, 0
14, 31560, Note_on_c, 9, 54, 100
14, 31560, Note_on_c, 9, 38, 100
14, 31560, Note_on_c, 9, 42, 100
14, 31574, Note_on_c, 9, 42, 0
14, 31574, Note_on_c, 9, 38, 0
14, 31574, Note_on_c, 9, 54, 0
14, 31620, Note_on_c, 9, 42, 100
14, 31620, Note_on_c, 9, 41, 100
14, 31634, Note_on_c, 9, 41, 0
14, 31634, Note_on_c, 9, 42, 0
14, 31680, Note_on_c, 9, 35, 100
14, 31680, Note_on_c, 9, 49, 100
14, 31694, Note_on_c, 9, 49, 0
14, 31694, Note_on_c, 9, 35, 0
14, 31740, Note_on_c, 9, 54, 100
14, 31740, Note_on_c, 9, 42, 100
14, 31754, Note_on_c, 9, 42, 0
14, 31754, Note_on_c, 9, 54, 0
14, 31770, Note_on_c, 9, 54, 100
14, 31770, Note_on_c, 9, 35, 100
14, 31784, Note_on_c, 9, 35, 0
14, 31784, Note_on_c, 9, 54, 0
14, 31800, Note_on_c, 9, 54, 100
14, 31800, Note_on_c, 9, 57, 100
14, 31800, Note_on_c, 9, 38, 100
14, 31800, Note_on_c, 9, 42, 100
14, 31814, Note_on_c, 9, 42, 0
14, 31814, Note_on_c, 9, 54, 0
14, 31814, Note_on_c, 9, 57, 0
14, 31814, Note_on_c, 9, 38, 0
14, 31860, Note_on_c, 9, 42, 100
14, 31860, Note_on_c, 9, 35, 100
14, 31874, Note_on_c, 9, 35, 0
14, 31874, Note_on_c, 9, 42, 0
14, 31920, Note_on_c, 9, 42, 100
14, 31920, Note_on_c, 9, 35, 100
14, 31934, Note_on_c, 9, 35, 0
14, 31934, Note_on_c, 9, 42, 0
14, 31980, Note_on_c, 9, 54, 100
14, 31980, Note_on_c, 9, 42, 100
14, 31994, Note_on_c, 9, 42, 0
14, 31994, Note_on_c, 9, 54, 0
14, 32040, Note_on_c, 9, 54, 100
14, 32040, Note_on_c, 9, 42, 100
14, 32040, Note_on_c, 9, 38, 100
14, 32054, Note_on_c, 9, 38, 0
14, 32054, Note_on_c, 9, 42, 0
14, 32054, Note_on_c, 9, 54, 0
14, 32100, Note_on_c, 9, 42, 100
14, 32114, Note_on_c, 9, 42, 0
14, 32160, Note_on_c, 9, 35, 100
14, 32160, Note_on_c, 9, 42, 100
14, 32174, Note_on_c, 9, 42, 0
14, 32174, Note_on_c, 9, 35, 0
14, 32220, Note_on_c, 9, 54, 100
14, 32220, Note_on_c, 9, 42, 100
14, 32234, Note_on_c, 9, 42, 0
14, 32234, Note_on_c, 9, 54, 0
14, 32250, Note_on_c, 9, 54, 100
14, 32264, Note_on_c, 9, 54, 0
14, 32280, Note_on_c, 9, 54, 100
14, 32280, Note_on_c, 9, 38, 100
14, 32280, Note_on_c, 9, 42, 100
14, 32294, Note_on_c, 9, 42, 0
14, 32294, Note_on_c, 9, 38, 0
14, 32294, Note_on_c, 9, 54, 0
14, 32340, Note_on_c, 9, 35, 100
14, 32340, Note_on_c, 9, 42, 100
14, 32354, Note_on_c, 9, 42, 0
14, 32354, Note_on_c, 9, 35, 0
14, 32400, Note_on_c, 9, 35, 100
14, 32400, Note_on_c, 9, 42, 100
14, 32414, Note_on_c, 9, 42, 0
14, 32414, Note_on_c, 9, 35, 0
14, 32460, Note_on_c, 9, 54, 100
14, 32460, Note_on_c, 9, 42, 100
14, 32474, Note_on_c, 9, 42, 0
14, 32474, Note_on_c, 9, 54, 0
14, 32520, Note_on_c, 9, 54, 100
14, 32520, Note_on_c, 9, 38, 100
14, 32520, Note_on_c, 9, 42, 100
14, 32534, Note_on_c, 9, 42, 0
14, 32534, Note_on_c, 9, 38, 0
14, 32534, Note_on_c, 9, 54, 0
14, 32580, Note_on_c, 9, 42, 100
14, 32594, Note_on_c, 9, 42, 0
14, 32610, Note_on_c, 9, 35, 100
14, 32624, Note_on_c, 9, 35, 0
14, 32640, Note_on_c, 9, 35, 100
14, 32640, Note_on_c, 9, 49, 100
14, 32642, Control_c, 9, 7, 98
14, 32654, Note_on_c, 9, 49, 0
14, 32654, Note_on_c, 9, 35, 0
14, 32659, Control_c, 9, 7, 97
14, 32672, Control_c, 9, 7, 96
14, 32689, Control_c, 9, 7, 95
14, 32700, Note_on_c, 9, 54, 100
14, 32700, Note_on_c, 9, 42, 100
14, 32702, Control_c, 9, 7, 94
14, 32714, Note_on_c, 9, 42, 0
14, 32714, Note_on_c, 9, 54, 0
14, 32716, Control_c, 9, 7, 93
14, 32730, Note_on_c, 9, 54, 100
14, 32732, Control_c, 9, 7, 92
14, 32744, Note_on_c, 9, 54, 0
14, 32746, Control_c, 9, 7, 91
14, 32760, Note_on_c, 9, 54, 100
14, 32760, Note_on_c, 9, 38, 100
14, 32760, Note_on_c, 9, 42, 100
14, 32762, Control_c, 9, 7, 90
14, 32774, Note_on_c, 9, 42, 0
14, 32774, Note_on_c, 9, 38, 0
14, 32774, Note_on_c, 9, 54, 0
14, 32776, Control_c, 9, 7, 89
14, 32789, Control_c, 9, 7, 88
14, 32806, Control_c, 9, 7, 87
14, 32819, Control_c, 9, 7, 86
14, 32820, Note_on_c, 9, 35, 100
14, 32820, Note_on_c, 9, 42, 100
14, 32834, Note_on_c, 9, 42, 0
14, 32834, Note_on_c, 9, 35, 0
14, 32836, Control_c, 9, 7, 85
14, 32849, Control_c, 9, 7, 84
14, 32862, Control_c, 9, 7, 83
14, 32879, Control_c, 9, 7, 82
14, 32880, Note_on_c, 9, 35, 100
14, 32880, Note_on_c, 9, 42, 100
14, 32892, Control_c, 9, 7, 81
14, 32894, Note_on_c, 9, 42, 0
14, 32894, Note_on_c, 9, 35, 0
14, 32909, Control_c, 9, 7, 80
14, 32922, Control_c, 9, 7, 79
14, 32936, Control_c, 9, 7, 78
14, 32940, Note_on_c, 9, 54, 100
14, 32940, Note_on_c, 9, 42, 100
14, 32952, Control_c, 9, 7, 77
14, 32954, Note_on_c, 9, 42, 0
14, 32954, Note_on_c, 9, 54, 0
14, 32966, Control_c, 9, 7, 76
14, 32982, Control_c, 9, 7, 75
14, 32996, Control_c, 9, 7, 74
14, 33000, Note_on_c, 9, 54, 100
14, 33000, Note_on_c, 9, 38, 100
14, 33000, Note_on_c, 9, 42, 100
14, 33009, Control_c, 9, 7, 73
14, 33014, Note_on_c, 9, 42, 0
14, 33014, Note_on_c, 9, 38, 0
14, 33014, Note_on_c, 9, 54, 0
14, 33026, Control_c, 9, 7, 72
14, 33039, Control_c, 9, 7, 71
14, 33056, Control_c, 9, 7, 70
14, 33060, Note_on_c, 9, 42, 100
14, 33069, Control_c, 9, 7, 69
14, 33074, Note_on_c, 9, 42, 0
14, 33082, Control_c, 9, 7, 68
14, 33099, Control_c, 9, 7, 67
14, 33112, Control_c, 9, 7, 66
14, 33120, Note_on_c, 9, 35, 100
14, 33120, Note_on_c, 9, 42, 100
14, 33129, Control_c, 9, 7, 65
14, 33134, Note_on_c, 9, 42, 0
14, 33134, Note_on_c, 9, 35, 0
14, 33142, Control_c, 9, 7, 64
14, 33156, Control_c, 9, 7, 63
14, 33172, Control_c, 9, 7, 62
14, 33180, Note_on_c, 9, 54, 100
14, 33180, Note_on_c, 9, 42, 100
14, 33186, Control_c, 9, 7, 61
14, 33194, Note_on_c, 9, 42, 0
14, 33194, Note_on_c, 9, 54, 0
14, 33202, Control_c, 9, 7, 60
14, 33210, Note_on_c, 9, 54, 100
14, 33216, Control_c, 9, 7, 59
14, 33224, Note_on_c, 9, 54, 0
14, 33229, Control_c, 9, 7, 58
14, 33240, Note_on_c, 9, 54, 100
14, 33240, Note_on_c, 9, 38, 100
14, 33240, Note_on_c, 9, 42, 100
14, 33246, Control_c, 9, 7, 57
14, 33254, Note_on_c, 9, 42, 0
14, 33254, Note_on_c, 9, 38, 0
14, 33254, Note_on_c, 9, 54, 0
14, 33259, Control_c, 9, 7, 56
14, 33276, Control_c, 9, 7, 55
14, 33289, Control_c, 9, 7, 54
14, 33300, Note_on_c, 9, 35, 100
14, 33300, Note_on_c, 9, 42, 100
14, 33302, Control_c, 9, 7, 53
14, 33314, Note_on_c, 9, 42, 0
14, 33314, Note_on_c, 9, 35, 0
14, 33319, Control_c, 9, 7, 52
14, 33332, Control_c, 9, 7, 51
14, 33349, Control_c, 9, 7, 50
14, 33360, Note_on_c, 9, 35, 100
14, 33360, Note_on_c, 9, 42, 100
14, 33362, Control_c, 9, 7, 49
14, 33374, Note_on_c, 9, 42, 0
14, 33374, Note_on_c, 9, 35, 0
14, 33376, Control_c, 9, 7, 48
14, 33392, Control_c, 9, 7, 47
14, 33406, Control_c, 9, 7, 46
14, 33420, Note_on_c, 9, 54, 100
14, 33420, Note_on_c, 9, 42, 100
14, 33422, Control_c, 9, 7, 45
14, 33434, Note_on_c, 9, 42, 0
14, 33434, Note_on_c, 9, 54, 0
14, 33436, Control_c, 9, 7, 44
14, 33449, Control_c, 9, 7, 43
14, 33466, Control_c, 9, 7, 42
14, 33479, Control_c, 9, 7, 41
14, 33480, Note_on_c, 9, 54, 100
14, 33480, Note_on_c, 9, 38, 100
14, 33480, Note_on_c, 9, 42, 100
14, 33494, Note_on_c, 9, 42, 0
14, 33494, Note_on_c, 9, 38, 0
14, 33494, Note_on_c, 9, 54, 0
14, 33496, Control_c, 9, 7, 40
14, 33509, Control_c, 9, 7, 39
14, 33522, Control_c, 9, 7, 38
14, 33539, Control_c, 9, 7, 37
14, 33540, Note_on_c, 9, 42, 100
14, 33552, Control_c, 9, 7, 36
14, 33554, Note_on_c, 9, 42, 0
14, 33569, Control_c, 9, 7, 35
14, 33582, Control_c, 9, 7, 34
14, 33596, Control_c, 9, 7, 33
14, 33600, Note_on_c, 9, 35, 100
14, 33600, Note_on_c, 9, 57, 100
14, 33612, Control_c, 9, 7, 32
14, 33614, Note_on_c, 9, 57, 0
14, 33614, Note_on_c, 9, 35, 0
14, 33626, Control_c, 9, 7, 31
14, 33642, Control_c, 9, 7, 30
14, 33656, Control_c, 9, 7, 29
14, 33660, Note_on_c, 9, 54, 100
14, 33660, Note_on_c, 9, 42, 100
14, 33669, Control_c, 9, 7, 28
14, 33674, Note_on_c, 9, 42, 0
14, 33674, Note_on_c, 9, 54, 0
14, 33686, Control_c, 9, 7, 27
14, 33690, Note_on_c, 9, 54, 100
14, 33699, Control_c, 9, 7, 26
14, 33704, Note_on_c, 9, 54, 0
14, 33716, Control_c, 9, 7, 25
14, 33720, Note_on_c, 9, 54, 100
14, 33720, Note_on_c, 9, 38, 100
14, 33720, Note_on_c, 9, 42, 100
14, 33729, Control_c, 9, 7, 24
14, 33734, Note_on_c, 9, 42, 0
14, 33734, Note_on_c, 9, 38, 0
14, 33734, Note_on_c, 9, 54, 0
14, 33742, Control_c, 9, 7, 23
14, 33759, Control_c, 9, 7, 22
14, 33772, Control_c, 9, 7, 21
14, 33780, Note_on_c, 9, 42, 100
14, 33780, Note_on_c, 9, 35, 100
14, 33789, Control_c, 9, 7, 20
14, 33794, Note_on_c, 9, 35, 0
14, 33794, Note_on_c, 9, 42, 0
14, 33802, Control_c, 9, 7, 19
14, 33816, Control_c, 9, 7, 18
14, 33832, Control_c, 9, 7, 17
14, 33840, Note_on_c, 9, 42, 100
14, 33840, Note_on_c, 9, 35, 100
14, 33846, Control_c, 9, 7, 16
14, 33854, Note_on_c, 9, 35, 0
14, 33854, Note_on_c, 9, 42, 0
14, 33862, Control_c, 9, 7, 15
14, 33876, Control_c, 9, 7, 14
14, 33889, Control_c, 9, 7, 13
14, 33900, Note_on_c, 9, 54, 100
14, 33900, Note_on_c, 9, 42, 100
14, 33906, Control_c, 9, 7, 12
14, 33914, Note_on_c, 9, 42, 0
14, 33914, Note_on_c, 9, 54, 0
14, 33919, Control_c, 9, 7, 11
14, 33936, Control_c, 9, 7, 10
14, 33949, Control_c, 9, 7, 9
14, 33960, Note_on_c, 9, 54, 100
14, 33960, Note_on_c, 9, 38, 100
14, 33960, Note_on_c, 9, 42, 100
14, 33962, Control_c, 9, 7, 8
14, 33974, Note_on_c, 9, 42, 0
14, 33974, Note_on_c, 9, 38, 0
14, 33974, Note_on_c, 9, 54, 0
14, 33979, Control_c, 9, 7, 7
14, 33992, Control_c, 9, 7, 6
14, 34009, Control_c, 9, 7, 5
14, 34020, Note_on_c, 9, 42, 100
14, 34022, Control_c, 9, 7, 4
14, 34034, Note_on_c, 9, 42, 0
14, 34036, Control_c, 9, 7, 3
14, 34052, Control_c, 9, 7, 2
14, 34066, Control_c, 9, 7, 1
14, 34079, Control_c, 9, 7, 0
14, 34079, End_track
15, 0, Start_track
15, 0, MIDI_port, 0
15, 0, Title_t, "Rev-Cymbal"
15, 0, Program_c, 10, 119
15, 0, Control_c, 10, 91, 117
15, 0, Control_c, 10, 93, 0
15, 12735, Note_on_c, 10, 80, 100
15, 12959, Note_on_c, 10, 80, 0
15, 22440, Note_on_c, 10, 76, 100
15, 22559, Note_on_c, 10, 76, 0
15, 22559, End_track
16, 0, Start_track
16, 0, MIDI_port, 0
16, 0, Title_t, "TaikoDrum"
16, 0, Program_c, 11, 116
16, 0, Control_c, 11, 7, 100
16, 0, Control_c, 11, 93, 0
16, 0, Control_c, 11, 91, 0
16, 480, Note_on_c, 11, 29, 67
16, 494, Note_on_c, 11, 29, 0
16, 660, Note_on_c, 11, 29, 69
16, 674, Note_on_c, 11, 29, 0
16, 720, Note_on_c, 11, 29, 67
16, 734, Note_on_c, 11, 29, 0
16, 960, Note_on_c, 11, 29, 69
16, 974, Note_on_c, 11, 29, 0
16, 1140, Note_on_c, 11, 29, 69
16, 1154, Note_on_c, 11, 29, 0
16, 1200, Note_on_c, 11, 29, 69
16, 1214, Note_on_c, 11, 29, 0
16, 1440, Note_on_c, 11, 29, 69
16, 1454, Note_on_c, 11, 29, 0
16, 1620, Note_on_c, 11, 29, 69
16, 1634, Note_on_c, 11, 29, 0
16, 1680, Note_on_c, 11, 29, 69
16, 1694, Note_on_c, 11, 29, 0
16, 1920, Note_on_c, 11, 29, 69
16, 1934, Note_on_c, 11, 29, 0
16, 2100, Note_on_c, 11, 29, 69
16, 2114, Note_on_c, 11, 29, 0
16, 2160, Note_on_c, 11, 29, 69
16, 2174, Note_on_c, 11, 29, 0
16, 2400, Note_on_c, 11, 29, 69
16, 2414, Note_on_c, 11, 29, 0
16, 2580, Note_on_c, 11, 29, 69
16, 2594, Note_on_c, 11, 29, 0
16, 2640, Note_on_c, 11, 29, 69
16, 2654, Note_on_c, 11, 29, 0
16, 2880, Note_on_c, 11, 29, 69
16, 2894, Note_on_c, 11, 29, 0
16, 3060, Note_on_c, 11, 29, 69
16, 3074, Note_on_c, 11, 29, 0
16, 3120, Note_on_c, 11, 29, 69
16, 3134, Note_on_c, 11, 29, 0
16, 3360, Note_on_c, 11, 29, 69
16, 3374, Note_on_c, 11, 29, 0
16, 3540, Note_on_c, 11, 29, 69
16, 3554, Note_on_c, 11, 29, 0
16, 3600, Note_on_c, 11, 29, 69
16, 3614, Note_on_c, 11, 29, 0
16, 3840, Note_on_c, 11, 29, 69
16, 3854, Note_on_c, 11, 29, 0
16, 4020, Note_on_c, 11, 29, 69
16, 4034, Note_on_c, 11, 29, 0
16, 4080, Note_on_c, 11, 29, 69
16, 4094, Note_on_c, 11, 29, 0
16, 4320, Note_on_c, 11, 29, 69
16, 4334, Note_on_c, 11, 29, 0
16, 4500, Note_on_c, 11, 29, 69
16, 4514, Note_on_c, 11, 29, 0
16, 4560, Note_on_c, 11, 29, 69
16, 4574, Note_on_c, 11, 29, 0
16, 4800, Note_on_c, 11, 29, 69
16, 4814, Note_on_c, 11, 29, 0
16, 4980, Note_on_c, 11, 29, 69
16, 4994, Note_on_c, 11, 29, 0
16, 5040, Note_on_c, 11, 29, 69
16, 5054, Note_on_c, 11, 29, 0
16, 5280, Note_on_c, 11, 29, 69
16, 5294, Note_on_c, 11, 29, 0
16, 5460, Note_on_c, 11, 29, 69
16, 5474, Note_on_c, 11, 29, 0
16, 5520, Note_on_c, 11, 29, 69
16, 5534, Note_on_c, 11, 29, 0
16, 5760, Note_on_c, 11, 29, 69
16, 5774, Note_on_c, 11, 29, 0
16, 5940, Note_on_c, 11, 29, 69
16, 5954, Note_on_c, 11, 29, 0
16, 6000, Note_on_c, 11, 29, 69
16, 6014, Note_on_c, 11, 29, 0
16, 6240, Note_on_c, 11, 29, 69
16, 6254, Note_on_c, 11, 29, 0
16, 6420, Note_on_c, 11, 29, 69
16, 6434, Note_on_c, 11, 29, 0
16, 6480, Note_on_c, 11, 29, 69
16, 6494, Note_on_c, 11, 29, 0
16, 6720, Note_on_c, 11, 29, 69
16, 6734, Note_on_c, 11, 29, 0
16, 6900, Note_on_c, 11, 29, 69
16, 6914, Note_on_c, 11, 29, 0
16, 6960, Note_on_c, 11, 29, 69
16, 6974, Note_on_c, 11, 29, 0
16, 7200, Note_on_c, 11, 29, 69
16, 7214, Note_on_c, 11, 29, 0
16, 7380, Note_on_c, 11, 29, 69
16, 7394, Note_on_c, 11, 29, 0
16, 7440, Note_on_c, 11, 29, 69
16, 7454, Note_on_c, 11, 29, 0
16, 7680, Note_on_c, 11, 29, 69
16, 7694, Note_on_c, 11, 29, 0
16, 7860, Note_on_c, 11, 29, 69
16, 7874, Note_on_c, 11, 29, 0
16, 7920, Note_on_c, 11, 29, 69
16, 7934, Note_on_c, 11, 29, 0
16, 8160, Note_on_c, 11, 29, 69
16, 8174, Note_on_c, 11, 29, 0
16, 8340, Note_on_c, 11, 29, 69
16, 8354, Note_on_c, 11, 29, 0
16, 8400, Note_on_c, 11, 29, 69
16, 8414, Note_on_c, 11, 29, 0
16, 8640, Note_on_c, 11, 29, 69
16, 8654, Note_on_c, 11, 29, 0
16, 8820, Note_on_c, 11, 29, 69
16, 8834, Note_on_c, 11, 29, 0
16, 8880, Note_on_c, 11, 29, 69
16, 8894, Note_on_c, 11, 29, 0
16, 9120, Note_on_c, 11, 29, 69
16, 9134, Note_on_c, 11, 29, 0
16, 9300, Note_on_c, 11, 29, 69
16, 9314, Note_on_c, 11, 29, 0
16, 9360, Note_on_c, 11, 29, 69
16, 9374, Note_on_c, 11, 29, 0
16, 9600, Note_on_c, 11, 29, 69
16, 9614, Note_on_c, 11, 29, 0
16, 9780, Note_on_c, 11, 29, 69
16, 9794, Note_on_c, 11, 29, 0
16, 9840, Note_on_c, 11, 29, 69
16, 9854, Note_on_c, 11, 29, 0
16, 10080, Note_on_c, 11, 29, 69
16, 10094, Note_on_c, 11, 29, 0
16, 10260, Note_on_c, 11, 29, 69
16, 10274, Note_on_c, 11, 29, 0
16, 10320, Note_on_c, 11, 29, 69
16, 10334, Note_on_c, 11, 29, 0
16, 10560, Note_on_c, 11, 29, 69
16, 10574, Note_on_c, 11, 29, 0
16, 10740, Note_on_c, 11, 29, 69
16, 10754, Note_on_c, 11, 29, 0
16, 10800, Note_on_c, 11, 29, 69
16, 10814, Note_on_c, 11, 29, 0
16, 11040, Note_on_c, 11, 29, 69
16, 11054, Note_on_c, 11, 29, 0
16, 11220, Note_on_c, 11, 29, 69
16, 11234, Note_on_c, 11, 29, 0
16, 11280, Note_on_c, 11, 29, 69
16, 11294, Note_on_c, 11, 29, 0
16, 11520, Note_on_c, 11, 29, 69
16, 11534, Note_on_c, 11, 29, 0
16, 11700, Note_on_c, 11, 29, 69
16, 11714, Note_on_c, 11, 29, 0
16, 11760, Note_on_c, 11, 29, 69
16, 11774, Note_on_c, 11, 29, 0
16, 12000, Note_on_c, 11, 29, 69
16, 12014, Note_on_c, 11, 29, 0
16, 12180, Note_on_c, 11, 29, 69
16, 12194, Note_on_c, 11, 29, 0
16, 12240, Note_on_c, 11, 29, 69
16, 12254, Note_on_c, 11, 29, 0
16, 12480, Note_on_c, 11, 29, 69
16, 12494, Note_on_c, 11, 29, 0
16, 12660, Note_on_c, 11, 29, 69
16, 12674, Note_on_c, 11, 29, 0
16, 12720, Note_on_c, 11, 29, 69
16, 12734, Note_on_c, 11, 29, 0
16, 12960, Note_on_c, 11, 29, 81
16, 12974, Note_on_c, 11, 29, 0
16, 13140, Note_on_c, 11, 29, 81
16, 13154, Note_on_c, 11, 29, 0
16, 13200, Note_on_c, 11, 29, 77
16, 13214, Note_on_c, 11, 29, 0
16, 13440, Note_on_c, 11, 29, 79
16, 13454, Note_on_c, 11, 29, 0
16, 13620, Note_on_c, 11, 29, 79
16, 13634, Note_on_c, 11, 29, 0
16, 13680, Note_on_c, 11, 29, 79
16, 13694, Note_on_c, 11, 29, 0
16, 13920, Note_on_c, 11, 29, 79
16, 13934, Note_on_c, 11, 29, 0
16, 14100, Note_on_c, 11, 29, 79
16, 14114, Note_on_c, 11, 29, 0
16, 14160, Note_on_c, 11, 29, 79
16, 14174, Note_on_c, 11, 29, 0
16, 14400, Note_on_c, 11, 29, 79
16, 14414, Note_on_c, 11, 29, 0
16, 14580, Note_on_c, 11, 29, 79
16, 14594, Note_on_c, 11, 29, 0
16, 14640, Note_on_c, 11, 29, 79
16, 14654, Note_on_c, 11, 29, 0
16, 14880, Note_on_c, 11, 29, 79
16, 14894, Note_on_c, 11, 29, 0
16, 15060, Note_on_c, 11, 29, 79
16, 15074, Note_on_c, 11, 29, 0
16, 15120, Note_on_c, 11, 29, 79
16, 15134, Note_on_c, 11, 29, 0
16, 15360, Note_on_c, 11, 29, 79
16, 15374, Note_on_c, 11, 29, 0
16, 15540, Note_on_c, 11, 29, 79
16, 15554, Note_on_c, 11, 29, 0
16, 15600, Note_on_c, 11, 29, 79
16, 15614, Note_on_c, 11, 29, 0
16, 15840, Note_on_c, 11, 29, 79
16, 15854, Note_on_c, 11, 29, 0
16, 16020, Note_on_c, 11, 29, 79
16, 16034, Note_on_c, 11, 29, 0
16, 16080, Note_on_c, 11, 29, 79
16, 16094, Note_on_c, 11, 29, 0
16, 16320, Note_on_c, 11, 29, 79
16, 16334, Note_on_c, 11, 29, 0
16, 16500, Note_on_c, 11, 29, 79
16, 16514, Note_on_c, 11, 29, 0
16, 16560, Note_on_c, 11, 29, 79
16, 16574, Note_on_c, 11, 29, 0
16, 16800, Note_on_c, 11, 29, 79
16, 16814, Note_on_c, 11, 29, 0
16, 16980, Note_on_c, 11, 29, 79
16, 16994, Note_on_c, 11, 29, 0
16, 17040, Note_on_c, 11, 29, 79
16, 17054, Note_on_c, 11, 29, 0
16, 17280, Note_on_c, 11, 29, 79
16, 17294, Note_on_c, 11, 29, 0
16, 17460, Note_on_c, 11, 29, 79
16, 17474, Note_on_c, 11, 29, 0
16, 17520, Note_on_c, 11, 29, 79
16, 17534, Note_on_c, 11, 29, 0
16, 17760, Note_on_c, 11, 29, 79
16, 17774, Note_on_c, 11, 29, 0
16, 17940, Note_on_c, 11, 29, 79
16, 17954, Note_on_c, 11, 29, 0
16, 18000, Note_on_c, 11, 29, 79
16, 18014, Note_on_c, 11, 29, 0
16, 18240, Note_on_c, 11, 29, 79
16, 18254, Note_on_c, 11, 29, 0
16, 18420, Note_on_c, 11, 29, 79
16, 18434, Note_on_c, 11, 29, 0
16, 18480, Note_on_c, 11, 29, 79
16, 18494, Note_on_c, 11, 29, 0
16, 18600, Note_on_c, 11, 29, 79
16, 18614, Note_on_c, 11, 29, 0
16, 18720, Note_on_c, 11, 29, 79
16, 18734, Note_on_c, 11, 29, 0
16, 18900, Note_on_c, 11, 29, 79
16, 18914, Note_on_c, 11, 29, 0
16, 18960, Note_on_c, 11, 29, 79
16, 18974, Note_on_c, 11, 29, 0
16, 19200, Note_on_c, 11, 29, 77
16, 19214, Note_on_c, 11, 29, 0
16, 19380, Note_on_c, 11, 29, 74
16, 19394, Note_on_c, 11, 29, 0
16, 19440, Note_on_c, 11, 29, 76
16, 19454, Note_on_c, 11, 29, 0
16, 19680, Note_on_c, 11, 29, 81
16, 19694, Note_on_c, 11, 29, 0
16, 19860, Note_on_c, 11, 29, 82
16, 19874, Note_on_c, 11, 29, 0
16, 19920, Note_on_c, 11, 29, 80
16, 19934, Note_on_c, 11, 29, 0
16, 20160, Note_on_c, 11, 29, 88
16, 20174, Note_on_c, 11, 29, 0
16, 20340, Note_on_c, 11, 29, 86
16, 20354, Note_on_c, 11, 29, 0
16, 20400, Note_on_c, 11, 29, 87
16, 20414, Note_on_c, 11, 29, 0
16, 20640, Note_on_c, 11, 29, 86
16, 20654, Note_on_c, 11, 29, 0
16, 20820, Note_on_c, 11, 29, 86
16, 20834, Note_on_c, 11, 29, 0
16, 20880, Note_on_c, 11, 29, 86
16, 20894, Note_on_c, 11, 29, 0
16, 21120, Note_on_c, 11, 29, 86
16, 21134, Note_on_c, 11, 29, 0
16, 21300, Note_on_c, 11, 29, 81
16, 21314, Note_on_c, 11, 29, 0
16, 21360, Note_on_c, 11, 29, 83
16, 21374, Note_on_c, 11, 29, 0
16, 21600, Note_on_c, 11, 29, 80
16, 21614, Note_on_c, 11, 29, 0
16, 21780, Note_on_c, 11, 29, 81
16, 21794, Note_on_c, 11, 29, 0
16, 21840, Note_on_c, 11, 29, 82
16, 21854, Note_on_c, 11, 29, 0
16, 22080, Note_on_c, 11, 29, 80
16, 22094, Note_on_c, 11, 29, 0
16, 22260, Note_on_c, 11, 29, 80
16, 22274, Note_on_c, 11, 29, 0
16, 22320, Note_on_c, 11, 29, 79
16, 22334, Note_on_c, 11, 29, 0
16, 22560, Note_on_c, 11, 29, 80
16, 22574, Note_on_c, 11, 29, 0
16, 22740, Note_on_c, 11, 29, 76
16, 22754, Note_on_c, 11, 29, 0
16, 22800, Note_on_c, 11, 29, 75
16, 22814, Note_on_c, 11, 29, 0
16, 23040, Note_on_c, 11, 29, 79
16, 23054, Note_on_c, 11, 29, 0
16, 23220, Note_on_c, 11, 29, 79
16, 23234, Note_on_c, 11, 29, 0
16, 23280, Note_on_c, 11, 29, 81
16, 23294, Note_on_c, 11, 29, 0
16, 23520, Note_on_c, 11, 29, 78
16, 23534, Note_on_c, 11, 29, 0
16, 23700, Note_on_c, 11, 29, 78
16, 23714, Note_on_c, 11, 29, 0
16, 23760, Note_on_c, 11, 29, 78
16, 23774, Note_on_c, 11, 29, 0
16, 24000, Note_on_c, 11, 29, 79
16, 24014, Note_on_c, 11, 29, 0
16, 24180, Note_on_c, 11, 29, 79
16, 24194, Note_on_c, 11, 29, 0
16, 24240, Note_on_c, 11, 29, 77
16, 24254, Note_on_c, 11, 29, 0
16, 24480, Note_on_c, 11, 29, 80
16, 24494, Note_on_c, 11, 29, 0
16, 24660, Note_on_c, 11, 29, 82
16, 24674, Note_on_c, 11, 29, 0
16, 24720, Note_on_c, 11, 29, 82
16, 24734, Note_on_c, 11, 29, 0
16, 24960, Note_on_c, 11, 29, 82
16, 24974, Note_on_c, 11, 29, 0
16, 25140, Note_on_c, 11, 29, 85
16, 25154, Note_on_c, 11, 29, 0
16, 25200, Note_on_c, 11, 29, 85
16, 25214, Note_on_c, 11, 29, 0
16, 25440, Note_on_c, 11, 29, 80
16, 25454, Note_on_c, 11, 29, 0
16, 25620, Note_on_c, 11, 29, 86
16, 25634, Note_on_c, 11, 29, 0
16, 25680, Note_on_c, 11, 29, 86
16, 25694, Note_on_c, 11, 29, 0
16, 25920, Note_on_c, 11, 29, 79
16, 25934, Note_on_c, 11, 29, 0
16, 26100, Note_on_c, 11, 29, 76
16, 26114, Note_on_c, 11, 29, 0
16, 26160, Note_on_c, 11, 29, 85
16, 26174, Note_on_c, 11, 29, 0
16, 26400, Note_on_c, 11, 29, 100
16, 26414, Note_on_c, 11, 29, 0
16, 26880, Note_on_c, 11, 29, 80
16, 26894, Note_on_c, 11, 29, 0
16, 27060, Note_on_c, 11, 29, 84
16, 27074, Note_on_c, 11, 29, 0
16, 27120, Note_on_c, 11, 29, 85
16, 27134, Note_on_c, 11, 29, 0
16, 27360, Note_on_c, 11, 29, 77
16, 27374, Note_on_c, 11, 29, 0
16, 27840, Note_on_c, 11, 29, 100
16, 27854, Note_on_c, 11, 29, 0
16, 28020, Note_on_c, 11, 29, 100
16, 28034, Note_on_c, 11, 29, 0
16, 28080, Note_on_c, 11, 29, 100
16, 28094, Note_on_c, 11, 29, 0
16, 28320, Note_on_c, 11, 29, 100
16, 28334, Note_on_c, 11, 29, 0
16, 28500, Note_on_c, 11, 29, 100
16, 28514, Note_on_c, 11, 29, 0
16, 28560, Note_on_c, 11, 29, 100
16, 28574, Note_on_c, 11, 29, 0
16, 28800, Note_on_c, 11, 29, 100
16, 28814, Note_on_c, 11, 29, 0
16, 28980, Note_on_c, 11, 29, 100
16, 28994, Note_on_c, 11, 29, 0
16, 29040, Note_on_c, 11, 29, 100
16, 29054, Note_on_c, 11, 29, 0
16, 29280, Note_on_c, 11, 29, 100
16, 29294, Note_on_c, 11, 29, 0
16, 29460, Note_on_c, 11, 29, 100
16, 29474, Note_on_c, 11, 29, 0
16, 29520, Note_on_c, 11, 29, 100
16, 29534, Note_on_c, 11, 29, 0
16, 29760, Note_on_c, 11, 29, 100
16, 29774, Note_on_c, 11, 29, 0
16, 29940, Note_on_c, 11, 29, 100
16, 29954, Note_on_c, 11, 29, 0
16, 30000, Note_on_c, 11, 29, 100
16, 30014, Note_on_c, 11, 29, 0
16, 30120, Note_on_c, 11, 29, 100
16, 30134, Note_on_c, 11, 29, 0
16, 30240, Note_on_c, 11, 29, 100
16, 30254, Note_on_c, 11, 29, 0
16, 30420, Note_on_c, 11, 29, 100
16, 30434, Note_on_c, 11, 29, 0
16, 30480, Note_on_c, 11, 29, 100
16, 30494, Note_on_c, 11, 29, 0
16, 30720, Note_on_c, 11, 29, 100
16, 30734, Note_on_c, 11, 29, 0
16, 30900, Note_on_c, 11, 29, 100
16, 30914, Note_on_c, 11, 29, 0
16, 30960, Note_on_c, 11, 29, 100
16, 30974, Note_on_c, 11, 29, 0
16, 31200, Note_on_c, 11, 29, 100
16, 31214, Note_on_c, 11, 29, 0
16, 31380, Note_on_c, 11, 29, 100
16, 31394, Note_on_c, 11, 29, 0
16, 31440, Note_on_c, 11, 29, 100
16, 31454, Note_on_c, 11, 29, 0
16, 31680, Note_on_c, 11, 29, 100
16, 31694, Note_on_c, 11, 29, 0
16, 31860, Note_on_c, 11, 29, 100
16, 31874, Note_on_c, 11, 29, 0
16, 31920, Note_on_c, 11, 29, 100
16, 31934, Note_on_c, 11, 29, 0
16, 32160, Note_on_c, 11, 29, 100
16, 32174, Note_on_c, 11, 29, 0
16, 32340, Note_on_c, 11, 29, 100
16, 32354, Note_on_c, 11, 29, 0
16, 32400, Note_on_c, 11, 29, 100
16, 32414, Note_on_c, 11, 29, 0
16, 32640, Note_on_c, 11, 29, 100
16, 32640, Control_c, 11, 7, 100
16, 32654, Note_on_c, 11, 29, 0
16, 32656, Control_c, 11, 7, 99
16, 32670, Control_c, 11, 7, 98
16, 32683, Control_c, 11, 7, 97
16, 32700, Control_c, 11, 7, 96
16, 32713, Control_c, 11, 7, 95
16, 32726, Control_c, 11, 7, 94
16, 32743, Control_c, 11, 7, 93
16, 32756, Control_c, 11, 7, 92
16, 32770, Control_c, 11, 7, 91
16, 32786, Control_c, 11, 7, 90
16, 32800, Control_c, 11, 7, 89
16, 32813, Control_c, 11, 7, 88
16, 32820, Note_on_c, 11, 29, 100
16, 32830, Control_c, 11, 7, 87
16, 32834, Note_on_c, 11, 29, 0
16, 32843, Control_c, 11, 7, 86
16, 32856, Control_c, 11, 7, 85
16, 32873, Control_c, 11, 7, 84
16, 32880, Note_on_c, 11, 29, 100
16, 32886, Control_c, 11, 7, 83
16, 32894, Note_on_c, 11, 29, 0
16, 32900, Control_c, 11, 7, 82
16, 32916, Control_c, 11, 7, 81
16, 32930, Control_c, 11, 7, 80
16, 32943, Control_c, 11, 7, 79
16, 32960, Control_c, 11, 7, 78
16, 32973, Control_c, 11, 7, 77
16, 32986, Control_c, 11, 7, 76
16, 33000, Control_c, 11, 7, 75
16, 33016, Control_c, 11, 7, 74
16, 33030, Control_c, 11, 7, 73
16, 33043, Control_c, 11, 7, 72
16, 33060, Control_c, 11, 7, 71
16, 33073, Control_c, 11, 7, 70
16, 33086, Control_c, 11, 7, 69
16, 33103, Control_c, 11, 7, 68
16, 33116, Control_c, 11, 7, 67
16, 33120, Note_on_c, 11, 29, 100
16, 33130, Control_c, 11, 7, 66
16, 33134, Note_on_c, 11, 29, 0
16, 33146, Control_c, 11, 7, 65
16, 33160, Control_c, 11, 7, 64
16, 33173, Control_c, 11, 7, 63
16, 33190, Control_c, 11, 7, 62
16, 33203, Control_c, 11, 7, 61
16, 33216, Control_c, 11, 7, 60
16, 33233, Control_c, 11, 7, 59
16, 33246, Control_c, 11, 7, 58
16, 33260, Control_c, 11, 7, 57
16, 33276, Control_c, 11, 7, 56
16, 33290, Control_c, 11, 7, 55
16, 33300, Note_on_c, 11, 29, 100
16, 33303, Control_c, 11, 7, 54
16, 33314, Note_on_c, 11, 29, 0
16, 33320, Control_c, 11, 7, 53
16, 33333, Control_c, 11, 7, 52
16, 33346, Control_c, 11, 7, 51
16, 33360, Note_on_c, 11, 29, 100
16, 33360, Control_c, 11, 7, 50
16, 33374, Note_on_c, 11, 29, 0
16, 33376, Control_c, 11, 7, 49
16, 33390, Control_c, 11, 7, 48
16, 33403, Control_c, 11, 7, 47
16, 33420, Control_c, 11, 7, 46
16, 33433, Control_c, 11, 7, 45
16, 33446, Control_c, 11, 7, 44
16, 33463, Control_c, 11, 7, 43
16, 33476, Control_c, 11, 7, 42
16, 33490, Control_c, 11, 7, 41
16, 33506, Control_c, 11, 7, 40
16, 33520, Control_c, 11, 7, 39
16, 33533, Control_c, 11, 7, 38
16, 33550, Control_c, 11, 7, 37
16, 33563, Control_c, 11, 7, 36
16, 33576, Control_c, 11, 7, 35
16, 33593, Control_c, 11, 7, 34
16, 33600, Note_on_c, 11, 29, 100
16, 33606, Control_c, 11, 7, 33
16, 33614, Note_on_c, 11, 29, 0
16, 33620, Control_c, 11, 7, 32
16, 33636, Control_c, 11, 7, 31
16, 33650, Control_c, 11, 7, 30
16, 33663, Control_c, 11, 7, 29
16, 33680, Control_c, 11, 7, 28
16, 33693, Control_c, 11, 7, 27
16, 33706, Control_c, 11, 7, 26
16, 33720, Control_c, 11, 7, 25
16, 33736, Control_c, 11, 7, 24
16, 33750, Control_c, 11, 7, 23
16, 33763, Control_c, 11, 7, 22
16, 33780, Note_on_c, 11, 29, 100
16, 33780, Control_c, 11, 7, 21
16, 33793, Control_c, 11, 7, 20
16, 33794, Note_on_c, 11, 29, 0
16, 33806, Control_c, 11, 7, 19
16, 33823, Control_c, 11, 7, 18
16, 33836, Control_c, 11, 7, 17
16, 33840, Note_on_c, 11, 29, 100
16, 33850, Control_c, 11, 7, 16
16, 33854, Note_on_c, 11, 29, 0
16, 33866, Control_c, 11, 7, 15
16, 33880, Control_c, 11, 7, 14
16, 33893, Control_c, 11, 7, 13
16, 33910, Control_c, 11, 7, 12
16, 33923, Control_c, 11, 7, 11
16, 33936, Control_c, 11, 7, 10
16, 33953, Control_c, 11, 7, 9
16, 33966, Control_c, 11, 7, 8
16, 33980, Control_c, 11, 7, 7
16, 33996, Control_c, 11, 7, 6
16, 34010, Control_c, 11, 7, 5
16, 34023, Control_c, 11, 7, 4
16, 34040, Control_c, 11, 7, 3
16, 34053, Control_c, 11, 7, 2
16, 34066, Control_c, 11, 7, 1
16, 34080, Control_c, 11, 7, 0
16, 34080, End_track
17, 0, Start_track
17, 0, MIDI_port, 0
17, 0, Title_t, "B-Vocal 2"
17, 0, Program_c, 12, 52
17, 0, Control_c, 12, 7, 100
17, 0, Control_c, 12, 93, 30
17, 0, Control_c, 12, 91, 90
17, 17640, Note_on_c, 12, 84, 110
17, 17640, Note_on_c, 12, 72, 110
17, 17699, Note_on_c, 12, 72, 0
17, 17699, Note_on_c, 12, 84, 0
17, 17700, Note_on_c, 12, 84, 108
17, 17700, Note_on_c, 12, 72, 108
17, 17759, Note_on_c, 12, 72, 0
17, 17759, Note_on_c, 12, 84, 0
17, 17760, Note_on_c, 12, 72, 111
17, 17760, Note_on_c, 12, 84, 111
17, 17760, Note_on_c, 12, 82, 111
17, 17760, Note_on_c, 12, 77, 111
17, 17999, Note_on_c, 12, 77, 0
17, 17999, Note_on_c, 12, 72, 0
17, 17999, Note_on_c, 12, 84, 0
17, 17999, Note_on_c, 12, 82, 0
17, 18000, Note_on_c, 12, 70, 117
17, 18000, Note_on_c, 12, 77, 117
17, 18000, Note_on_c, 12, 82, 117
17, 18089, Note_on_c, 12, 82, 0
17, 18089, Note_on_c, 12, 77, 0
17, 18089, Note_on_c, 12, 70, 0
17, 25320, Note_on_c, 12, 84, 110
17, 25320, Note_on_c, 12, 72, 110
17, 25379, Note_on_c, 12, 72, 0
17, 25379, Note_on_c, 12, 84, 0
17, 25380, Note_on_c, 12, 84, 108
17, 25380, Note_on_c, 12, 72, 108
17, 25439, Note_on_c, 12, 72, 0
17, 25439, Note_on_c, 12, 84, 0
17, 25440, Note_on_c, 12, 72, 111
17, 25440, Note_on_c, 12, 84, 111
17, 25440, Note_on_c, 12, 82, 111
17, 25440, Note_on_c, 12, 77, 111
17, 25679, Note_on_c, 12, 77, 0
17, 25679, Note_on_c, 12, 72, 0
17, 25679, Note_on_c, 12, 84, 0
17, 25679, Note_on_c, 12, 82, 0
17, 25680, Note_on_c, 12, 70, 117
17, 25680, Note_on_c, 12, 77, 117
17, 25680, Note_on_c, 12, 82, 117
17, 25769, Note_on_c, 12, 82, 0
17, 25769, Note_on_c, 12, 77, 0
17, 25769, Note_on_c, 12, 70, 0
17, 26760, Note_on_c, 12, 60, 116
17, 26760, Note_on_c, 12, 64, 116
17, 26760, Note_on_c, 12, 70, 116
17, 26849, Note_on_c, 12, 70, 0
17, 26849, Note_on_c, 12, 64, 0
17, 26849, Note_on_c, 12, 60, 0
17, 26850, Note_on_c, 12, 60, 117
17, 26850, Note_on_c, 12, 65, 117
17, 26850, Note_on_c, 12, 69, 117
17, 26939, Note_on_c, 12, 69, 0
17, 26939, Note_on_c, 12, 65, 0
17, 26939, Note_on_c, 12, 60, 0
17, 26940, Note_on_c, 12, 57, 117
17, 26940, Note_on_c, 12, 60, 117
17, 26940, Note_on_c, 12, 65, 117
17, 26999, Note_on_c, 12, 65, 0
17, 26999, Note_on_c, 12, 60, 0
17, 26999, Note_on_c, 12, 57, 0
17, 27000, Note_on_c, 12, 57, 117
17, 27000, Note_on_c, 12, 60, 117
17, 27000, Note_on_c, 12, 65, 117
17, 27059, Note_on_c, 12, 65, 0
17, 27059, Note_on_c, 12, 60, 0
17, 27059, Note_on_c, 12, 57, 0
17, 27060, Note_on_c, 12, 53, 117
17, 27060, Note_on_c, 12, 58, 117
17, 27060, Note_on_c, 12, 62, 117
17, 27179, Note_on_c, 12, 62, 0
17, 27179, Note_on_c, 12, 58, 0
17, 27179, Note_on_c, 12, 53, 0
17, 27180, Note_on_c, 12, 58, 118
17, 27180, Note_on_c, 12, 62, 118
17, 27180, Note_on_c, 12, 69, 118
17, 27299, Note_on_c, 12, 69, 0
17, 27299, Note_on_c, 12, 62, 0
17, 27299, Note_on_c, 12, 58, 0
17, 27300, Note_on_c, 12, 60, 119
17, 27300, Note_on_c, 12, 64, 119
17, 27300, Note_on_c, 12, 67, 119
17, 27375, Note_on_c, 12, 69, 120
17, 27389, Note_on_c, 12, 69, 0
17, 27389, Note_on_c, 12, 60, 0
17, 27389, Note_on_c, 12, 64, 0
17, 27389, Note_on_c, 12, 67, 0
17, 27780, Note_on_c, 12, 60, 115
17, 27780, Note_on_c, 12, 64, 115
17, 27780, Note_on_c, 12, 70, 115
17, 27839, Note_on_c, 12, 70, 0
17, 27839, Note_on_c, 12, 64, 0
17, 27839, Note_on_c, 12, 60, 0
17, 27840, Note_on_c, 12, 60, 118
17, 27840, Note_on_c, 12, 65, 118
17, 27840, Note_on_c, 12, 69, 118
17, 27929, Note_on_c, 12, 69, 0
17, 27929, Note_on_c, 12, 65, 0
17, 27929, Note_on_c, 12, 60, 0
17, 27930, Note_on_c, 12, 57, 115
17, 27930, Note_on_c, 12, 60, 115
17, 27930, Note_on_c, 12, 65, 115
17, 27959, Note_on_c, 12, 65, 0
17, 27959, Note_on_c, 12, 60, 0
17, 27959, Note_on_c, 12, 57, 0
17, 27960, Note_on_c, 12, 57, 113
17, 27960, Note_on_c, 12, 60, 113
17, 27960, Note_on_c, 12, 65, 113
17, 28019, Note_on_c, 12, 65, 0
17, 28019, Note_on_c, 12, 60, 0
17, 28019, Note_on_c, 12, 57, 0
17, 28020, Note_on_c, 12, 64, 113
17, 28020, Note_on_c, 12, 69, 113
17, 28020, Note_on_c, 12, 72, 113
17, 28079, Note_on_c, 12, 72, 0
17, 28079, Note_on_c, 12, 69, 0
17, 28079, Note_on_c, 12, 64, 0
17, 28080, Note_on_c, 12, 64, 113
17, 28080, Note_on_c, 12, 69, 113
17, 28080, Note_on_c, 12, 72, 113
17, 28229, Note_on_c, 12, 72, 0
17, 28229, Note_on_c, 12, 69, 0
17, 28229, Note_on_c, 12, 64, 0
17, 28260, Note_on_c, 12, 57, 118
17, 28260, Note_on_c, 12, 60, 118
17, 28260, Note_on_c, 12, 64, 118
17, 28319, Note_on_c, 12, 64, 0
17, 28319, Note_on_c, 12, 60, 0
17, 28319, Note_on_c, 12, 57, 0
17, 28320, Note_on_c, 12, 53, 120
17, 28320, Note_on_c, 12, 58, 120
17, 28320, Note_on_c, 12, 62, 120
17, 28439, Note_on_c, 12, 62, 0
17, 28439, Note_on_c, 12, 58, 0
17, 28439, Note_on_c, 12, 53, 0
17, 28740, Note_on_c, 12, 60, 121
17, 28740, Note_on_c, 12, 64, 121
17, 28740, Note_on_c, 12, 70, 121
17, 28799, Note_on_c, 12, 70, 0
17, 28799, Note_on_c, 12, 64, 0
17, 28799, Note_on_c, 12, 60, 0
17, 28800, Note_on_c, 12, 60, 121
17, 28800, Note_on_c, 12, 65, 121
17, 28800, Note_on_c, 12, 69, 121
17, 28889, Note_on_c, 12, 69, 0
17, 28889, Note_on_c, 12, 65, 0
17, 28889, Note_on_c, 12, 60, 0
17, 28890, Note_on_c, 12, 57, 118
17, 28890, Note_on_c, 12, 60, 118
17, 28890, Note_on_c, 12, 65, 118
17, 28919, Note_on_c, 12, 65, 0
17, 28919, Note_on_c, 12, 60, 0
17, 28919, Note_on_c, 12, 57, 0
17, 28920, Note_on_c, 12, 57, 117
17, 28920, Note_on_c, 12, 60, 117
17, 28920, Note_on_c, 12, 65, 117
17, 28979, Note_on_c, 12, 65, 0
17, 28979, Note_on_c, 12, 60, 0
17, 28979, Note_on_c, 12, 57, 0
17, 28980, Note_on_c, 12, 57, 118
17, 28980, Note_on_c, 12, 60, 118
17, 28980, Note_on_c, 12, 65, 118
17, 29039, Note_on_c, 12, 65, 0
17, 29039, Note_on_c, 12, 60, 0
17, 29039, Note_on_c, 12, 57, 0
17, 29040, Note_on_c, 12, 53, 124
17, 29040, Note_on_c, 12, 58, 124
17, 29040, Note_on_c, 12, 62, 124
17, 29129, Note_on_c, 12, 62, 0
17, 29129, Note_on_c, 12, 58, 0
17, 29129, Note_on_c, 12, 53, 0
17, 29130, Note_on_c, 12, 58, 118
17, 29130, Note_on_c, 12, 62, 118
17, 29130, Note_on_c, 12, 69, 118
17, 29219, Note_on_c, 12, 69, 0
17, 29219, Note_on_c, 12, 62, 0
17, 29219, Note_on_c, 12, 58, 0
17, 29220, Note_on_c, 12, 60, 118
17, 29220, Note_on_c, 12, 64, 118
17, 29220, Note_on_c, 12, 67, 118
17, 29309, Note_on_c, 12, 67, 0
17, 29310, Note_on_c, 12, 69, 121
17, 29339, Note_on_c, 12, 69, 0
17, 29339, Note_on_c, 12, 64, 0
17, 29339, Note_on_c, 12, 60, 0
17, 29610, Note_on_c, 12, 60, 123
17, 29610, Note_on_c, 12, 64, 123
17, 29610, Note_on_c, 12, 67, 123
17, 29639, Note_on_c, 12, 67, 0
17, 29639, Note_on_c, 12, 64, 0
17, 29639, Note_on_c, 12, 60, 0
17, 29640, Note_on_c, 12, 60, 124
17, 29640, Note_on_c, 12, 64, 124
17, 29640, Note_on_c, 12, 67, 124
17, 29699, Note_on_c, 12, 67, 0
17, 29700, Note_on_c, 12, 69, 123
17, 29744, Note_on_c, 12, 69, 0
17, 29744, Note_on_c, 12, 64, 0
17, 29744, Note_on_c, 12, 60, 0
17, 29745, Note_on_c, 12, 70, 123
17, 29760, Note_on_c, 12, 62, 122
17, 29760, Note_on_c, 12, 67, 122
17, 29834, Note_on_c, 12, 70, 0
17, 29835, Note_on_c, 12, 69, 120
17, 29864, Note_on_c, 12, 69, 0
17, 29864, Note_on_c, 12, 67, 0
17, 29864, Note_on_c, 12, 62, 0
17, 29865, Note_on_c, 12, 58, 121
17, 29865, Note_on_c, 12, 62, 121
17, 29865, Note_on_c, 12, 65, 121
17, 29999, Note_on_c, 12, 65, 0
17, 29999, Note_on_c, 12, 62, 0
17, 29999, Note_on_c, 12, 58, 0
17, 30120, Note_on_c, 12, 58, 125
17, 30120, Note_on_c, 12, 62, 125
17, 30120, Note_on_c, 12, 65, 125
17, 30179, Note_on_c, 12, 65, 0
17, 30179, Note_on_c, 12, 62, 0
17, 30179, Note_on_c, 12, 58, 0
17, 30180, Note_on_c, 12, 58, 127
17, 30180, Note_on_c, 12, 62, 127
17, 30180, Note_on_c, 12, 65, 127
17, 30479, Note_on_c, 12, 65, 0
17, 30479, Note_on_c, 12, 62, 0
17, 30479, Note_on_c, 12, 58, 0
17, 30480, Note_on_c, 12, 62, 124
17, 30480, Note_on_c, 12, 65, 124
17, 30480, Note_on_c, 12, 70, 124
17, 30599, Note_on_c, 12, 70, 0
17, 30599, Note_on_c, 12, 65, 0
17, 30599, Note_on_c, 12, 62, 0
17, 30600, Note_on_c, 12, 65, 125
17, 30600, Note_on_c, 12, 69, 125
17, 30600, Note_on_c, 12, 72, 125
17, 30659, Note_on_c, 12, 72, 0
17, 30659, Note_on_c, 12, 69, 0
17, 30659, Note_on_c, 12, 65, 0
17, 30660, Note_on_c, 12, 65, 127
17, 30660, Note_on_c, 12, 69, 127
17, 30660, Note_on_c, 12, 72, 127
17, 30779, Note_on_c, 12, 72, 0
17, 30779, Note_on_c, 12, 69, 0
17, 30779, Note_on_c, 12, 65, 0
17, 30780, Note_on_c, 12, 60, 127
17, 30780, Note_on_c, 12, 65, 127
17, 30780, Note_on_c, 12, 69, 127
17, 30839, Note_on_c, 12, 69, 0
17, 30839, Note_on_c, 12, 65, 0
17, 30839, Note_on_c, 12, 60, 0
17, 30840, Note_on_c, 12, 60, 127
17, 30840, Note_on_c, 12, 65, 127
17, 30840, Note_on_c, 12, 69, 127
17, 30899, Note_on_c, 12, 69, 0
17, 30899, Note_on_c, 12, 65, 0
17, 30899, Note_on_c, 12, 60, 0
17, 30900, Note_on_c, 12, 58, 125
17, 30900, Note_on_c, 12, 62, 125
17, 30900, Note_on_c, 12, 65, 125
17, 31019, Note_on_c, 12, 65, 0
17, 31019, Note_on_c, 12, 62, 0
17, 31019, Note_on_c, 12, 58, 0
17, 31020, Note_on_c, 12, 58, 124
17, 31020, Note_on_c, 12, 62, 124
17, 31020, Note_on_c, 12, 69, 124
17, 31139, Note_on_c, 12, 69, 0
17, 31139, Note_on_c, 12, 62, 0
17, 31139, Note_on_c, 12, 58, 0
17, 31140, Note_on_c, 12, 60, 127
17, 31140, Note_on_c, 12, 64, 127
17, 31140, Note_on_c, 12, 67, 127
17, 31244, Note_on_c, 12, 67, 0
17, 31245, Note_on_c, 12, 69, 124
17, 31259, Note_on_c, 12, 69, 0
17, 31259, Note_on_c, 12, 64, 0
17, 31259, Note_on_c, 12, 60, 0
17, 31560, Note_on_c, 12, 64, 123
17, 31560, Note_on_c, 12, 67, 123
17, 31560, Note_on_c, 12, 70, 123
17, 31619, Note_on_c, 12, 70, 0
17, 31619, Note_on_c, 12, 67, 0
17, 31619, Note_on_c, 12, 64, 0
17, 31620, Note_on_c, 12, 60, 125
17, 31620, Note_on_c, 12, 65, 125
17, 31620, Note_on_c, 12, 69, 125
17, 31739, Note_on_c, 12, 69, 0
17, 31739, Note_on_c, 12, 65, 0
17, 31739, Note_on_c, 12, 60, 0
17, 31740, Note_on_c, 12, 57, 125
17, 31740, Note_on_c, 12, 60, 125
17, 31740, Note_on_c, 12, 65, 125
17, 31769, Note_on_c, 12, 65, 0
17, 31769, Note_on_c, 12, 60, 0
17, 31769, Note_on_c, 12, 57, 0
17, 31770, Note_on_c, 12, 57, 126
17, 31770, Note_on_c, 12, 60, 126
17, 31770, Note_on_c, 12, 65, 126
17, 31859, Note_on_c, 12, 65, 0
17, 31859, Note_on_c, 12, 60, 0
17, 31859, Note_on_c, 12, 57, 0
17, 31860, Note_on_c, 12, 64, 126
17, 31860, Note_on_c, 12, 69, 126
17, 31860, Note_on_c, 12, 72, 126
17, 31919, Note_on_c, 12, 72, 0
17, 31919, Note_on_c, 12, 69, 0
17, 31919, Note_on_c, 12, 64, 0
17, 31920, Note_on_c, 12, 64, 127
17, 31920, Note_on_c, 12, 69, 127
17, 31920, Note_on_c, 12, 72, 127
17, 32039, Note_on_c, 12, 72, 0
17, 32039, Note_on_c, 12, 69, 0
17, 32039, Note_on_c, 12, 64, 0
17, 32100, Note_on_c, 12, 57, 126
17, 32100, Note_on_c, 12, 60, 126
17, 32100, Note_on_c, 12, 65, 126
17, 32159, Note_on_c, 12, 65, 0
17, 32159, Note_on_c, 12, 60, 0
17, 32159, Note_on_c, 12, 57, 0
17, 32160, Note_on_c, 12, 62, 126
17, 32160, Note_on_c, 12, 65, 126
17, 32160, Note_on_c, 12, 58, 126
17, 32339, Note_on_c, 12, 58, 0
17, 32339, Note_on_c, 12, 65, 0
17, 32339, Note_on_c, 12, 62, 0
17, 32580, Note_on_c, 12, 64, 124
17, 32580, Note_on_c, 12, 60, 124
17, 32580, Note_on_c, 12, 70, 124
17, 32639, Note_on_c, 12, 70, 0
17, 32639, Note_on_c, 12, 60, 0
17, 32639, Note_on_c, 12, 64, 0
17, 32640, Note_on_c, 12, 60, 123
17, 32640, Note_on_c, 12, 65, 123
17, 32640, Note_on_c, 12, 69, 123
17, 32640, Control_c, 12, 7, 99
17, 32655, Control_c, 12, 7, 98
17, 32670, Control_c, 12, 7, 97
17, 32685, Control_c, 12, 7, 96
17, 32699, Note_on_c, 12, 69, 0
17, 32699, Note_on_c, 12, 65, 0
17, 32699, Note_on_c, 12, 60, 0
17, 32700, Note_on_c, 12, 57, 124
17, 32700, Note_on_c, 12, 60, 124
17, 32700, Note_on_c, 12, 65, 124
17, 32700, Control_c, 12, 7, 95
17, 32715, Control_c, 12, 7, 94
17, 32727, Control_c, 12, 7, 93
17, 32729, Note_on_c, 12, 65, 0
17, 32729, Note_on_c, 12, 60, 0
17, 32729, Note_on_c, 12, 57, 0
17, 32730, Note_on_c, 12, 57, 124
17, 32730, Note_on_c, 12, 60, 124
17, 32730, Note_on_c, 12, 65, 124
17, 32742, Control_c, 12, 7, 92
17, 32757, Control_c, 12, 7, 91
17, 32759, Note_on_c, 12, 65, 0
17, 32759, Note_on_c, 12, 60, 0
17, 32759, Note_on_c, 12, 57, 0
17, 32760, Note_on_c, 12, 57, 124
17, 32760, Note_on_c, 12, 60, 124
17, 32760, Note_on_c, 12, 65, 124
17, 32772, Control_c, 12, 7, 90
17, 32787, Control_c, 12, 7, 89
17, 32800, Control_c, 12, 7, 88
17, 32815, Control_c, 12, 7, 87
17, 32819, Note_on_c, 12, 65, 0
17, 32819, Note_on_c, 12, 60, 0
17, 32819, Note_on_c, 12, 57, 0
17, 32820, Note_on_c, 12, 57, 125
17, 32820, Note_on_c, 12, 60, 125
17, 32820, Note_on_c, 12, 65, 125
17, 32830, Control_c, 12, 7, 86
17, 32845, Control_c, 12, 7, 85
17, 32860, Control_c, 12, 7, 84
17, 32875, Control_c, 12, 7, 83
17, 32879, Note_on_c, 12, 65, 0
17, 32879, Note_on_c, 12, 60, 0
17, 32879, Note_on_c, 12, 57, 0
17, 32880, Note_on_c, 12, 53, 127
17, 32880, Note_on_c, 12, 57, 127
17, 32880, Note_on_c, 12, 62, 127
17, 32887, Control_c, 12, 7, 82
17, 32902, Control_c, 12, 7, 81
17, 32917, Control_c, 12, 7, 80
17, 32932, Control_c, 12, 7, 79
17, 32947, Control_c, 12, 7, 78
17, 32954, Note_on_c, 12, 62, 0
17, 32954, Note_on_c, 12, 57, 0
17, 32954, Note_on_c, 12, 53, 0
17, 32955, Note_on_c, 12, 60, 127
17, 32955, Note_on_c, 12, 65, 127
17, 32955, Note_on_c, 12, 69, 127
17, 32960, Control_c, 12, 7, 77
17, 32975, Control_c, 12, 7, 76
17, 32990, Control_c, 12, 7, 75
17, 33005, Control_c, 12, 7, 74
17, 33020, Control_c, 12, 7, 73
17, 33035, Control_c, 12, 7, 72
17, 33044, Note_on_c, 12, 69, 0
17, 33044, Note_on_c, 12, 65, 0
17, 33044, Note_on_c, 12, 60, 0
17, 33045, Note_on_c, 12, 60, 126
17, 33045, Note_on_c, 12, 64, 126
17, 33045, Note_on_c, 12, 67, 126
17, 33047, Control_c, 12, 7, 71
17, 33062, Control_c, 12, 7, 70
17, 33077, Control_c, 12, 7, 69
17, 33092, Control_c, 12, 7, 68
17, 33107, Control_c, 12, 7, 67
17, 33120, Control_c, 12, 7, 66
17, 33135, Control_c, 12, 7, 65
17, 33149, Note_on_c, 12, 67, 0
17, 33149, Note_on_c, 12, 64, 0
17, 33149, Note_on_c, 12, 60, 0
17, 33150, Control_c, 12, 7, 64
17, 33165, Control_c, 12, 7, 63
17, 33180, Control_c, 12, 7, 62
17, 33195, Control_c, 12, 7, 61
17, 33207, Control_c, 12, 7, 60
17, 33222, Control_c, 12, 7, 59
17, 33237, Control_c, 12, 7, 58
17, 33252, Control_c, 12, 7, 57
17, 33267, Control_c, 12, 7, 56
17, 33280, Control_c, 12, 7, 55
17, 33295, Control_c, 12, 7, 54
17, 33310, Control_c, 12, 7, 53
17, 33325, Control_c, 12, 7, 52
17, 33340, Control_c, 12, 7, 51
17, 33355, Control_c, 12, 7, 50
17, 33367, Control_c, 12, 7, 49
17, 33382, Control_c, 12, 7, 48
17, 33397, Control_c, 12, 7, 47
17, 33412, Control_c, 12, 7, 46
17, 33427, Control_c, 12, 7, 45
17, 33440, Control_c, 12, 7, 44
17, 33450, Note_on_c, 12, 60, 124
17, 33450, Note_on_c, 12, 64, 124
17, 33450, Note_on_c, 12, 67, 124
17, 33455, Control_c, 12, 7, 43
17, 33470, Control_c, 12, 7, 42
17, 33479, Note_on_c, 12, 67, 0
17, 33479, Note_on_c, 12, 64, 0
17, 33479, Note_on_c, 12, 60, 0
17, 33480, Note_on_c, 12, 60, 124
17, 33480, Note_on_c, 12, 64, 124
17, 33480, Note_on_c, 12, 67, 124
17, 33485, Control_c, 12, 7, 41
17, 33500, Control_c, 12, 7, 40
17, 33515, Control_c, 12, 7, 39
17, 33527, Control_c, 12, 7, 38
17, 33539, Note_on_c, 12, 67, 0
17, 33539, Note_on_c, 12, 64, 0
17, 33539, Note_on_c, 12, 60, 0
17, 33540, Note_on_c, 12, 60, 127
17, 33540, Note_on_c, 12, 64, 127
17, 33540, Note_on_c, 12, 69, 127
17, 33542, Control_c, 12, 7, 37
17, 33557, Control_c, 12, 7, 36
17, 33572, Control_c, 12, 7, 35
17, 33587, Control_c, 12, 7, 34
17, 33599, Note_on_c, 12, 69, 0
17, 33599, Note_on_c, 12, 64, 0
17, 33599, Note_on_c, 12, 60, 0
17, 33600, Note_on_c, 12, 62, 127
17, 33600, Note_on_c, 12, 65, 127
17, 33600, Note_on_c, 12, 70, 127
17, 33600, Control_c, 12, 7, 33
17, 33615, Control_c, 12, 7, 32
17, 33629, Note_on_c, 12, 70, 0
17, 33630, Note_on_c, 12, 69, 127
17, 33630, Control_c, 12, 7, 31
17, 33645, Control_c, 12, 7, 30
17, 33660, Control_c, 12, 7, 29
17, 33675, Control_c, 12, 7, 28
17, 33687, Control_c, 12, 7, 27
17, 33689, Note_on_c, 12, 69, 0
17, 33689, Note_on_c, 12, 65, 0
17, 33689, Note_on_c, 12, 62, 0
17, 33690, Note_on_c, 12, 58, 127
17, 33690, Note_on_c, 12, 62, 127
17, 33690, Note_on_c, 12, 65, 127
17, 33702, Control_c, 12, 7, 26
17, 33717, Control_c, 12, 7, 25
17, 33732, Control_c, 12, 7, 24
17, 33747, Control_c, 12, 7, 23
17, 33760, Control_c, 12, 7, 22
17, 33775, Control_c, 12, 7, 21
17, 33790, Control_c, 12, 7, 20
17, 33805, Control_c, 12, 7, 19
17, 33820, Control_c, 12, 7, 18
17, 33835, Control_c, 12, 7, 17
17, 33847, Control_c, 12, 7, 16
17, 33862, Control_c, 12, 7, 15
17, 33877, Control_c, 12, 7, 14
17, 33892, Control_c, 12, 7, 13
17, 33907, Control_c, 12, 7, 12
17, 33920, Control_c, 12, 7, 11
17, 33935, Control_c, 12, 7, 10
17, 33950, Control_c, 12, 7, 9
17, 33959, Note_on_c, 12, 65, 0
17, 33959, Note_on_c, 12, 62, 0
17, 33959, Note_on_c, 12, 58, 0
17, 33965, Control_c, 12, 7, 8
17, 33980, Control_c, 12, 7, 7
17, 33995, Control_c, 12, 7, 6
17, 34007, Control_c, 12, 7, 5
17, 34022, Control_c, 12, 7, 4
17, 34037, Control_c, 12, 7, 3
17, 34052, Control_c, 12, 7, 2
17, 34067, Control_c, 12, 7, 1
17, 34080, Control_c, 12, 7, 0
17, 34080, End_track
0, 0, End_of_file
