0, 0, Header, 1, 31, 240
1, 0, Start_track
1, 0, Time_signature, 4, 2, 24, 8
1, 0, Tempo, 566038
1, 0, Marker_t, "This Masquerade"
1, 1920, Marker_t, "This sequence was made in less"
1, 5760, Marker_t, "than 5 minutes using a NORTON"
1, 13440, Marker_t, "MUSIC USER STYLE DISK and/or"
1, 21120, Marker_t, "a NORTON MUSIC FAKE DISK with"
1, 28800, Marker_t, "Band-In-A-Box.  For a FREE"
1, 36480, Marker_t, "catalog contact:NORTON MUSIC,"
1, 44160, Marker_t, "Box13149, Ft. Pierce, FL 34979"
1, 51840, Marker_t, "USA Fax/Voicemail 561-467-2420"
1, 59520, Marker_t, "E-Mail, NotesNortn@aol.com."
1, 67200, Marker_t, "Please distribute this sequence"
1, 74880, Marker_t, "freely but keep this message"
1, 82560, Marker_t, "attached. Thank you."
1, 82560, End_track
2, 0, Start_track
2, 0, Title_t, "Soft karaoke"
2, 0, Text_t, "@KMIDI KARAOKE FILE"
2, 0, End_track
3, 0, Start_track
3, 0, Title_t, "Words"
3, 0, Text_t, "@LENGL"
3, 0, Text_t, "@TThis Masquerade-(George Benson)"
3, 0, Text_t, "@TLeon Russell"
3, 6018, Text_t, "\\Are"
3, 6122, Text_t, " we"
3, 6240, Text_t, " re"
3, 6372, Text_t, "al"
3, 6612, Text_t, "ly"
3, 6854, Text_t, " hap"
3, 7332, Text_t, "py"
3, 7510, Text_t, "/With"
3, 7692, Text_t, " this"
3, 7912, Text_t, " lonely"
3, 8046, Text_t, " game"
3, 8294, Text_t, " we"
3, 8522, Text_t, " play"
3, 10102, Text_t, "/Looking"
3, 10212, Text_t, " for"
3, 10324, Text_t, " wo"
3, 10468, Text_t, "rds"
3, 11172, Text_t, " to"
3, 11522, Text_t, " say"
3, 13556, Text_t, "/Search"
3, 13690, Text_t, "ing"
3, 13794, Text_t, " but"
3, 13920, Text_t, " not"
3, 14054, Text_t, " fi"
3, 14292, Text_t, "nd"
3, 14528, Text_t, "ing"
3, 15014, Text_t, "/Un"
3, 15176, Text_t, "der"
3, 15372, Text_t, "stand"
3, 15596, Text_t, "ing"
3, 15728, Text_t, " any"
3, 15964, Text_t, "wa"
3, 16214, Text_t, "y"
3, 17160, Text_t, "/We're"
3, 17294, Text_t, " lost"
3, 17888, Text_t, " in"
3, 18014, Text_t, " this"
3, 18132, Text_t, " mas"
3, 18162, Text_t, "qu"
3, 18370, Text_t, "er"
3, 18974, Text_t, "a"
3, 19098, Text_t, "de"
3, 21372, Text_t, "/Both"
3, 21484, Text_t, " a"
3, 21610, Text_t, "fraid"
3, 21838, Text_t, " to"
3, 21978, Text_t, " say"
3, 22202, Text_t, "/We're"
3, 22450, Text_t, " just"
3, 22700, Text_t, " too"
3, 22928, Text_t, " far"
3, 23170, Text_t, " a"
3, 23420, Text_t, "way"
3, 25084, Text_t, "/From"
3, 25202, Text_t, " be"
3, 25318, Text_t, "ing"
3, 25442, Text_t, " close"
3, 25678, Text_t, " to"
3, 25818, Text_t, "geth"
3, 26050, Text_t, "er"
3, 26400, Text_t, "/From"
3, 26642, Text_t, " the"
3, 26784, Text_t, " start"
3, 28676, Text_t, "/We"
3, 28802, Text_t, " tried"
3, 29050, Text_t, " to"
3, 29178, Text_t, " talk"
3, 29408, Text_t, " it"
3, 29650, Text_t, " o"
3, 29892, Text_t, "ver"
3, 30376, Text_t, "/But"
3, 30554, Text_t, " the"
3, 30730, Text_t, " words"
3, 31088, Text_t, " got"
3, 31254, Text_t, " in"
3, 31422, Text_t, " the"
3, 31578, Text_t, " way"
3, 32408, Text_t, "/We're"
3, 32536, Text_t, " lost"
3, 33366, Text_t, " in"
3, 33502, Text_t, "side"
3, 34326, Text_t, "/This"
3, 34568, Text_t, " lone"
3, 34808, Text_t, "ly"
3, 34934, Text_t, " game"
3, 35164, Text_t, " we"
3, 35410, Text_t, " play"
3, 36728, Text_t, "/Thoughts"
3, 36844, Text_t, " of"
3, 36972, Text_t, " leav"
3, 37112, Text_t, "ing"
3, 37332, Text_t, " dis"
3, 37578, Text_t, "ap"
3, 37812, Text_t, "pear"
3, 38048, Text_t, "/Each"
3, 38238, Text_t, " ti"
3, 38408, Text_t, "me"
3, 38650, Text_t, " I"
3, 38782, Text_t, " see"
3, 39006, Text_t, " your"
3, 39246, Text_t, " eyes"
3, 40690, Text_t, "/no"
3, 40810, Text_t, " mat"
3, 40924, Text_t, "ter"
3, 41044, Text_t, " how"
3, 41184, Text_t, " hard"
3, 41892, Text_t, " I"
3, 42244, Text_t, " try"
3, 44286, Text_t, "/to"
3, 44404, Text_t, " un"
3, 44524, Text_t, "der"
3, 44654, Text_t, "stand"
3, 44790, Text_t, " the"
3, 45010, Text_t, " rea"
3, 45248, Text_t, "son"
3, 45594, Text_t, "/Why"
3, 45838, Text_t, " we"
3, 46090, Text_t, " car"
3, 46312, Text_t, "ry"
3, 46454, Text_t, " on"
3, 46690, Text_t, " this"
3, 46940, Text_t, " way"
3, 47884, Text_t, "/We're"
3, 48008, Text_t, " lost"
3, 48608, Text_t, " in"
3, 48718, Text_t, " a"
3, 48844, Text_t, " ma"
3, 48860, Text_t, "s"
3, 49088, Text_t, "qu"
3, 49684, Text_t, "er"
3, 49820, Text_t, "ade"
3, 52098, Text_t, "/Are"
3, 52202, Text_t, " we"
3, 52320, Text_t, " re"
3, 52452, Text_t, "al"
3, 52692, Text_t, "ly"
3, 52934, Text_t, " hap"
3, 53412, Text_t, "py"
3, 53590, Text_t, "/With"
3, 53772, Text_t, " this"
3, 53992, Text_t, " lonely"
3, 54126, Text_t, " game"
3, 54374, Text_t, " we"
3, 54602, Text_t, " play"
3, 56182, Text_t, "/Looking"
3, 56292, Text_t, " for"
3, 56404, Text_t, " wo"
3, 56548, Text_t, "rds"
3, 57252, Text_t, " to"
3, 57602, Text_t, " say"
3, 59636, Text_t, "/Search"
3, 59770, Text_t, "ing"
3, 59874, Text_t, " but"
3, 60000, Text_t, " not"
3, 60134, Text_t, " fi"
3, 60372, Text_t, "nd"
3, 60608, Text_t, "ing"
3, 61094, Text_t, "/Un"
3, 61256, Text_t, "der"
3, 61452, Text_t, "stand"
3, 61676, Text_t, "ing"
3, 61808, Text_t, " any"
3, 62044, Text_t, "wa"
3, 62294, Text_t, "y"
3, 63240, Text_t, "/We're"
3, 63374, Text_t, " lost"
3, 63968, Text_t, " in"
3, 64094, Text_t, " this"
3, 64212, Text_t, " mas"
3, 64242, Text_t, "qu"
3, 64450, Text_t, "er"
3, 65054, Text_t, "a"
3, 65178, Text_t, "de"
3, 67452, Text_t, "/Both"
3, 67564, Text_t, " a"
3, 67690, Text_t, "fraid"
3, 67918, Text_t, " to"
3, 68058, Text_t, " say"
3, 68282, Text_t, "/We're"
3, 68530, Text_t, " just"
3, 68780, Text_t, " too"
3, 69008, Text_t, " far"
3, 69250, Text_t, " a"
3, 69500, Text_t, "way"
3, 71164, Text_t, "/From"
3, 71282, Text_t, " be"
3, 71398, Text_t, "ing"
3, 71522, Text_t, " close"
3, 71758, Text_t, " to"
3, 71898, Text_t, "geth"
3, 72130, Text_t, "er"
3, 72480, Text_t, "/From"
3, 72722, Text_t, " the"
3, 72864, Text_t, " start"
3, 74756, Text_t, "/We"
3, 74882, Text_t, " tried"
3, 75130, Text_t, " to"
3, 75258, Text_t, " talk"
3, 75488, Text_t, " it"
3, 75730, Text_t, " o"
3, 75972, Text_t, "ver"
3, 76456, Text_t, "/But"
3, 76634, Text_t, " the"
3, 76810, Text_t, " words"
3, 77168, Text_t, " got"
3, 77334, Text_t, " in"
3, 77502, Text_t, " the"
3, 77658, Text_t, " way"
3, 78488, Text_t, "/We're"
3, 78616, Text_t, " lost"
3, 79446, Text_t, " in"
3, 79582, Text_t, "side"
3, 80406, Text_t, "/This"
3, 80648, Text_t, " lone"
3, 80888, Text_t, "ly"
3, 81014, Text_t, " game"
3, 81244, Text_t, " we"
3, 81490, Text_t, " play"
3, 82808, Text_t, "/Thoughts"
3, 82924, Text_t, " of"
3, 83052, Text_t, " leav"
3, 83192, Text_t, "ing"
3, 83412, Text_t, " dis"
3, 83658, Text_t, "ap"
3, 83892, Text_t, "pear"
3, 84128, Text_t, "/Each"
3, 84318, Text_t, " ti"
3, 84488, Text_t, "me"
3, 84730, Text_t, " I"
3, 84862, Text_t, " see"
3, 85086, Text_t, " your"
3, 85326, Text_t, " eyes"
3, 86770, Text_t, "/no"
3, 86890, Text_t, " mat"
3, 87004, Text_t, "ter"
3, 87124, Text_t, " how"
3, 87264, Text_t, " hard"
3, 87972, Text_t, " I"
3, 88324, Text_t, " try"
3, 90366, Text_t, "/to"
3, 90484, Text_t, " un"
3, 90604, Text_t, "der"
3, 90734, Text_t, "stand"
3, 90870, Text_t, " the"
3, 91090, Text_t, " rea"
3, 91328, Text_t, "son"
3, 91674, Text_t, "/Why"
3, 91918, Text_t, " we"
3, 92170, Text_t, " car"
3, 92392, Text_t, "ry"
3, 92534, Text_t, " on"
3, 92770, Text_t, " this"
3, 93020, Text_t, " way"
3, 93964, Text_t, "/We're"
3, 94088, Text_t, " lost"
3, 94688, Text_t, " in"
3, 94798, Text_t, " a"
3, 94924, Text_t, " ma"
3, 94940, Text_t, "s"
3, 95168, Text_t, "qu"
3, 95764, Text_t, "er"
3, 95900, Text_t, "ade"
3, 98046, Text_t, "/Are"
3, 98164, Text_t, " we"
3, 98284, Text_t, " re"
3, 98414, Text_t, "al"
3, 98550, Text_t, "ly"
3, 98770, Text_t, " hap"
3, 99008, Text_t, "py"
3, 99354, Text_t, "/With"
3, 99598, Text_t, " this"
3, 99850, Text_t, " lone"
3, 100072, Text_t, "ly"
3, 100214, Text_t, " game"
3, 100450, Text_t, " we"
3, 100700, Text_t, " play?"
3, 100700, End_track
4, 0, Start_track
4, 0, Title_t, "This Masquerade"
4, 1, Pitch_bend_c, 0, 8192
4, 1, End_track
5, 0, Start_track
5, 0, Title_t, "G.MIDI Acou Bass"
5, 0, Program_c, 1, 32
5, 0, Control_c, 1, 7, 100
5, 1, Pitch_bend_c, 1, 8192
5, 1920, Note_on_c, 1, 37, 115
5, 2150, Note_off_c, 1, 37, 64
5, 2160, Note_on_c, 1, 44, 115
5, 2274, Note_off_c, 1, 44, 64
5, 2280, Note_on_c, 1, 32, 115
5, 2394, Note_off_c, 1, 32, 64
5, 2400, Note_on_c, 1, 32, 115
5, 2514, Note_off_c, 1, 32, 64
5, 2520, Note_on_c, 1, 44, 115
5, 2750, Note_off_c, 1, 44, 64
5, 2760, Note_on_c, 1, 32, 115
5, 2880, Note_off_c, 1, 32, 64
5, 3000, Note_on_c, 1, 48, 125
5, 3230, Note_off_c, 1, 48, 64
5, 3240, Note_on_c, 1, 31, 115
5, 3354, Note_off_c, 1, 31, 64
5, 3360, Note_on_c, 1, 34, 115
5, 3474, Note_off_c, 1, 34, 64
5, 3480, Note_on_c, 1, 48, 125
5, 3710, Note_off_c, 1, 48, 64
5, 3720, Note_on_c, 1, 31, 115
5, 3834, Note_off_c, 1, 31, 64
5, 3840, Note_on_c, 1, 41, 115
5, 4070, Note_off_c, 1, 41, 64
5, 4080, Note_on_c, 1, 48, 115
5, 4194, Note_off_c, 1, 48, 64
5, 4200, Note_on_c, 1, 36, 115
5, 4314, Note_off_c, 1, 36, 64
5, 4320, Note_on_c, 1, 36, 115
5, 4434, Note_off_c, 1, 36, 64
5, 4440, Note_on_c, 1, 48, 115
5, 4670, Note_off_c, 1, 48, 64
5, 4680, Note_on_c, 1, 36, 115
5, 4800, Note_off_c, 1, 36, 64
5, 4800, Note_on_c, 1, 41, 127
5, 4900, Note_off_c, 1, 41, 64
5, 4920, Note_on_c, 1, 41, 115
5, 5266, Note_off_c, 1, 41, 64
5, 5280, Note_on_c, 1, 36, 115
5, 5504, Note_off_c, 1, 36, 64
5, 5520, Note_on_c, 1, 41, 125
5, 5634, Note_off_c, 1, 41, 64
5, 5640, Note_on_c, 1, 36, 115
5, 5754, Note_off_c, 1, 36, 64
5, 6120, Note_on_c, 1, 36, 115
5, 6234, Note_off_c, 1, 36, 64
5, 6240, Note_on_c, 1, 36, 115
5, 6470, Note_off_c, 1, 36, 64
5, 6480, Note_on_c, 1, 39, 119
5, 6710, Note_off_c, 1, 39, 64
5, 6720, Note_on_c, 1, 41, 115
5, 6950, Note_off_c, 1, 41, 64
5, 6960, Note_on_c, 1, 48, 125
5, 7074, Note_off_c, 1, 48, 64
5, 7080, Note_on_c, 1, 36, 115
5, 7424, Note_off_c, 1, 36, 64
5, 7440, Note_on_c, 1, 41, 125
5, 7554, Note_off_c, 1, 41, 64
5, 7560, Note_on_c, 1, 36, 115
5, 7674, Note_off_c, 1, 36, 64
5, 7680, Note_on_c, 1, 41, 115
5, 7910, Note_off_c, 1, 41, 64
5, 7920, Note_on_c, 1, 48, 115
5, 8034, Note_off_c, 1, 48, 64
5, 8040, Note_on_c, 1, 36, 115
5, 8154, Note_off_c, 1, 36, 64
5, 8160, Note_on_c, 1, 36, 115
5, 8274, Note_off_c, 1, 36, 64
5, 8280, Note_on_c, 1, 48, 115
5, 8510, Note_off_c, 1, 48, 64
5, 8520, Note_on_c, 1, 36, 115
5, 8640, Note_off_c, 1, 36, 64
5, 8640, Note_on_c, 1, 34, 115
5, 8754, Note_off_c, 1, 34, 64
5, 8760, Note_on_c, 1, 41, 125
5, 8874, Note_off_c, 1, 41, 64
5, 8880, Note_on_c, 1, 41, 125
5, 8994, Note_off_c, 1, 41, 64
5, 9000, Note_on_c, 1, 29, 115
5, 9344, Note_off_c, 1, 29, 64
5, 9360, Note_on_c, 1, 34, 125
5, 9474, Note_off_c, 1, 34, 64
5, 9480, Note_on_c, 1, 29, 115
5, 9594, Note_off_c, 1, 29, 64
5, 9960, Note_on_c, 1, 36, 115
5, 10074, Note_off_c, 1, 36, 64
5, 10080, Note_on_c, 1, 36, 115
5, 10310, Note_off_c, 1, 36, 64
5, 10320, Note_on_c, 1, 39, 119
5, 10550, Note_off_c, 1, 39, 64
5, 10560, Note_on_c, 1, 37, 115
5, 10790, Note_off_c, 1, 37, 64
5, 10800, Note_on_c, 1, 44, 125
5, 10914, Note_off_c, 1, 44, 64
5, 10920, Note_on_c, 1, 32, 115
5, 11264, Note_off_c, 1, 32, 64
5, 11280, Note_on_c, 1, 37, 125
5, 11394, Note_off_c, 1, 37, 64
5, 11400, Note_on_c, 1, 32, 115
5, 11514, Note_off_c, 1, 32, 64
5, 11880, Note_on_c, 1, 38, 115
5, 11994, Note_off_c, 1, 38, 64
5, 12000, Note_on_c, 1, 38, 115
5, 12230, Note_off_c, 1, 38, 64
5, 12240, Note_on_c, 1, 41, 119
5, 12470, Note_off_c, 1, 41, 64
5, 12480, Note_on_c, 1, 36, 115
5, 12594, Note_off_c, 1, 36, 64
5, 12600, Note_on_c, 1, 43, 125
5, 12714, Note_off_c, 1, 43, 64
5, 12720, Note_on_c, 1, 43, 125
5, 12834, Note_off_c, 1, 43, 64
5, 12840, Note_on_c, 1, 31, 115
5, 13184, Note_off_c, 1, 31, 64
5, 13200, Note_on_c, 1, 36, 125
5, 13314, Note_off_c, 1, 36, 64
5, 13320, Note_on_c, 1, 31, 115
5, 13434, Note_off_c, 1, 31, 64
5, 13440, Note_on_c, 1, 41, 115
5, 13670, Note_off_c, 1, 41, 64
5, 13680, Note_on_c, 1, 48, 115
5, 13794, Note_off_c, 1, 48, 64
5, 13800, Note_on_c, 1, 36, 115
5, 13914, Note_off_c, 1, 36, 64
5, 13920, Note_on_c, 1, 36, 115
5, 14034, Note_off_c, 1, 36, 64
5, 14040, Note_on_c, 1, 48, 115
5, 14270, Note_off_c, 1, 48, 64
5, 14280, Note_on_c, 1, 36, 115
5, 14400, Note_off_c, 1, 36, 64
5, 14400, Note_on_c, 1, 41, 115
5, 14514, Note_off_c, 1, 41, 64
5, 14520, Note_on_c, 1, 48, 125
5, 14634, Note_off_c, 1, 48, 64
5, 14640, Note_on_c, 1, 48, 125
5, 14754, Note_off_c, 1, 48, 64
5, 14760, Note_on_c, 1, 36, 115
5, 15104, Note_off_c, 1, 36, 64
5, 15120, Note_on_c, 1, 41, 125
5, 15234, Note_off_c, 1, 41, 64
5, 15240, Note_on_c, 1, 36, 115
5, 15354, Note_off_c, 1, 36, 64
5, 15720, Note_on_c, 1, 36, 115
5, 15834, Note_off_c, 1, 36, 64
5, 15840, Note_on_c, 1, 36, 115
5, 16070, Note_off_c, 1, 36, 64
5, 16080, Note_on_c, 1, 39, 119
5, 16310, Note_off_c, 1, 39, 64
5, 16320, Note_on_c, 1, 34, 115
5, 16550, Note_off_c, 1, 34, 64
5, 16560, Note_on_c, 1, 41, 115
5, 16674, Note_off_c, 1, 41, 64
5, 16680, Note_on_c, 1, 29, 115
5, 16794, Note_off_c, 1, 29, 64
5, 16800, Note_on_c, 1, 29, 115
5, 16914, Note_off_c, 1, 29, 64
5, 16920, Note_on_c, 1, 41, 115
5, 17150, Note_off_c, 1, 41, 64
5, 17160, Note_on_c, 1, 29, 115
5, 17280, Note_off_c, 1, 29, 64
5, 17280, Note_on_c, 1, 37, 115
5, 17510, Note_off_c, 1, 37, 64
5, 17520, Note_on_c, 1, 44, 125
5, 17634, Note_off_c, 1, 44, 64
5, 17640, Note_on_c, 1, 32, 115
5, 17984, Note_off_c, 1, 32, 64
5, 18000, Note_on_c, 1, 37, 125
5, 18114, Note_off_c, 1, 37, 64
5, 18120, Note_on_c, 1, 32, 115
5, 18234, Note_off_c, 1, 32, 64
5, 18240, Note_on_c, 1, 36, 115
5, 18470, Note_off_c, 1, 36, 64
5, 18480, Note_on_c, 1, 43, 125
5, 18594, Note_off_c, 1, 43, 64
5, 18600, Note_on_c, 1, 31, 115
5, 18944, Note_off_c, 1, 31, 64
5, 18960, Note_on_c, 1, 36, 125
5, 19074, Note_off_c, 1, 36, 64
5, 19080, Note_on_c, 1, 31, 115
5, 19194, Note_off_c, 1, 31, 64
5, 19560, Note_on_c, 1, 36, 115
5, 19674, Note_off_c, 1, 36, 64
5, 19680, Note_on_c, 1, 36, 115
5, 19910, Note_off_c, 1, 36, 64
5, 19920, Note_on_c, 1, 39, 119
5, 20150, Note_off_c, 1, 39, 64
5, 20160, Note_on_c, 1, 41, 115
5, 20390, Note_off_c, 1, 41, 64
5, 20400, Note_on_c, 1, 48, 125
5, 20514, Note_off_c, 1, 48, 64
5, 20520, Note_on_c, 1, 36, 115
5, 20640, Note_off_c, 1, 36, 64
5, 20640, Note_on_c, 1, 35, 115
5, 20864, Note_off_c, 1, 35, 64
5, 20880, Note_on_c, 1, 33, 115
5, 21110, Note_off_c, 1, 33, 64
5, 21120, Note_on_c, 1, 39, 115
5, 21350, Note_off_c, 1, 39, 64
5, 21360, Note_on_c, 1, 46, 125
5, 21474, Note_off_c, 1, 46, 64
5, 21480, Note_on_c, 1, 34, 115
5, 21824, Note_off_c, 1, 34, 64
5, 21840, Note_on_c, 1, 49, 125
5, 21954, Note_off_c, 1, 49, 64
5, 21960, Note_on_c, 1, 51, 125
5, 22074, Note_off_c, 1, 51, 64
5, 22200, Note_on_c, 1, 44, 115
5, 22314, Note_off_c, 1, 44, 64
5, 22320, Note_on_c, 1, 44, 115
5, 22434, Note_off_c, 1, 44, 64
5, 22440, Note_on_c, 1, 39, 115
5, 22784, Note_off_c, 1, 39, 64
5, 22800, Note_on_c, 1, 54, 125
5, 22914, Note_off_c, 1, 54, 64
5, 22920, Note_on_c, 1, 44, 115
5, 23034, Note_off_c, 1, 44, 64
5, 23040, Note_on_c, 1, 37, 115
5, 23270, Note_off_c, 1, 37, 64
5, 23280, Note_on_c, 1, 44, 125
5, 23394, Note_off_c, 1, 44, 64
5, 23400, Note_on_c, 1, 32, 115
5, 23744, Note_off_c, 1, 32, 64
5, 23760, Note_on_c, 1, 48, 125
5, 23874, Note_off_c, 1, 48, 64
5, 23880, Note_on_c, 1, 49, 125
5, 23994, Note_off_c, 1, 49, 64
5, 24120, Note_on_c, 1, 34, 115
5, 24234, Note_off_c, 1, 34, 64
5, 24240, Note_on_c, 1, 34, 115
5, 24354, Note_off_c, 1, 34, 64
5, 24360, Note_on_c, 1, 29, 115
5, 24704, Note_off_c, 1, 29, 64
5, 24720, Note_on_c, 1, 44, 125
5, 24834, Note_off_c, 1, 44, 64
5, 24840, Note_on_c, 1, 34, 115
5, 24954, Note_off_c, 1, 34, 64
5, 24960, Note_on_c, 1, 39, 115
5, 25190, Note_off_c, 1, 39, 64
5, 25200, Note_on_c, 1, 46, 125
5, 25314, Note_off_c, 1, 46, 64
5, 25320, Note_on_c, 1, 34, 115
5, 25664, Note_off_c, 1, 34, 64
5, 25680, Note_on_c, 1, 49, 125
5, 25794, Note_off_c, 1, 49, 64
5, 25800, Note_on_c, 1, 51, 125
5, 25914, Note_off_c, 1, 51, 64
5, 26040, Note_on_c, 1, 44, 115
5, 26154, Note_off_c, 1, 44, 64
5, 26160, Note_on_c, 1, 44, 115
5, 26274, Note_off_c, 1, 44, 64
5, 26280, Note_on_c, 1, 39, 115
5, 26624, Note_off_c, 1, 39, 64
5, 26640, Note_on_c, 1, 54, 125
5, 26754, Note_off_c, 1, 54, 64
5, 26760, Note_on_c, 1, 44, 115
5, 26874, Note_off_c, 1, 44, 64
5, 26880, Note_on_c, 1, 37, 115
5, 27110, Note_off_c, 1, 37, 64
5, 27120, Note_on_c, 1, 44, 125
5, 27234, Note_off_c, 1, 44, 64
5, 27240, Note_on_c, 1, 32, 115
5, 27584, Note_off_c, 1, 32, 64
5, 27600, Note_on_c, 1, 48, 125
5, 27714, Note_off_c, 1, 48, 64
5, 27720, Note_on_c, 1, 49, 125
5, 27834, Note_off_c, 1, 49, 64
5, 27960, Note_on_c, 1, 37, 115
5, 28074, Note_off_c, 1, 37, 64
5, 28080, Note_on_c, 1, 37, 115
5, 28194, Note_off_c, 1, 37, 64
5, 28200, Note_on_c, 1, 32, 115
5, 28544, Note_off_c, 1, 32, 64
5, 28560, Note_on_c, 1, 48, 125
5, 28674, Note_off_c, 1, 48, 64
5, 28680, Note_on_c, 1, 37, 115
5, 28794, Note_off_c, 1, 37, 64
5, 28800, Note_on_c, 1, 38, 115
5, 29030, Note_off_c, 1, 38, 64
5, 29040, Note_on_c, 1, 45, 125
5, 29154, Note_off_c, 1, 45, 64
5, 29160, Note_on_c, 1, 33, 115
5, 29504, Note_off_c, 1, 33, 64
5, 29520, Note_on_c, 1, 48, 125
5, 29634, Note_off_c, 1, 48, 64
5, 29640, Note_on_c, 1, 50, 125
5, 29754, Note_off_c, 1, 50, 64
5, 29880, Note_on_c, 1, 43, 115
5, 29994, Note_off_c, 1, 43, 64
5, 30000, Note_on_c, 1, 43, 115
5, 30114, Note_off_c, 1, 43, 64
5, 30120, Note_on_c, 1, 38, 115
5, 30464, Note_off_c, 1, 38, 64
5, 30480, Note_on_c, 1, 53, 125
5, 30594, Note_off_c, 1, 53, 64
5, 30600, Note_on_c, 1, 43, 115
5, 30714, Note_off_c, 1, 43, 64
5, 30720, Note_on_c, 1, 36, 115
5, 30950, Note_off_c, 1, 36, 64
5, 30960, Note_on_c, 1, 43, 125
5, 31074, Note_off_c, 1, 43, 64
5, 31080, Note_on_c, 1, 31, 115
5, 31424, Note_off_c, 1, 31, 64
5, 31440, Note_on_c, 1, 47, 125
5, 31554, Note_off_c, 1, 47, 64
5, 31560, Note_on_c, 1, 48, 125
5, 31674, Note_off_c, 1, 48, 64
5, 31800, Note_on_c, 1, 36, 115
5, 31914, Note_off_c, 1, 36, 64
5, 31920, Note_on_c, 1, 36, 115
5, 32034, Note_off_c, 1, 36, 64
5, 32040, Note_on_c, 1, 31, 115
5, 32384, Note_off_c, 1, 31, 64
5, 32400, Note_on_c, 1, 47, 125
5, 32514, Note_off_c, 1, 47, 64
5, 32520, Note_on_c, 1, 36, 115
5, 32634, Note_off_c, 1, 36, 64
5, 32640, Note_on_c, 1, 34, 115
5, 32870, Note_off_c, 1, 34, 64
5, 32880, Note_on_c, 1, 46, 125
5, 32994, Note_off_c, 1, 46, 64
5, 33000, Note_on_c, 1, 34, 115
5, 33344, Note_off_c, 1, 34, 64
5, 33360, Note_on_c, 1, 50, 125
5, 33474, Note_off_c, 1, 50, 64
5, 33480, Note_on_c, 1, 46, 125
5, 33594, Note_off_c, 1, 46, 64
5, 33720, Note_on_c, 1, 35, 115
5, 33834, Note_off_c, 1, 35, 64
5, 33840, Note_on_c, 1, 35, 115
5, 33954, Note_off_c, 1, 35, 64
5, 33960, Note_on_c, 1, 38, 115
5, 34304, Note_off_c, 1, 38, 64
5, 34320, Note_on_c, 1, 53, 125
5, 34434, Note_off_c, 1, 53, 64
5, 34440, Note_on_c, 1, 35, 115
5, 34554, Note_off_c, 1, 35, 64
5, 34560, Note_on_c, 1, 36, 115
5, 34790, Note_off_c, 1, 36, 64
5, 34800, Note_on_c, 1, 50, 125
5, 34914, Note_off_c, 1, 50, 64
5, 34920, Note_on_c, 1, 38, 115
5, 35264, Note_off_c, 1, 38, 64
5, 35280, Note_on_c, 1, 53, 125
5, 35394, Note_off_c, 1, 53, 64
5, 35400, Note_on_c, 1, 48, 125
5, 35514, Note_off_c, 1, 48, 64
5, 35640, Note_on_c, 1, 36, 115
5, 35754, Note_off_c, 1, 36, 64
5, 35760, Note_on_c, 1, 36, 115
5, 35874, Note_off_c, 1, 36, 64
5, 35880, Note_on_c, 1, 31, 115
5, 36224, Note_off_c, 1, 31, 64
5, 36240, Note_on_c, 1, 46, 125
5, 36354, Note_off_c, 1, 46, 64
5, 36360, Note_on_c, 1, 36, 115
5, 36474, Note_off_c, 1, 36, 64
5, 36480, Note_on_c, 1, 41, 115
5, 36710, Note_off_c, 1, 41, 64
5, 36720, Note_on_c, 1, 48, 125
5, 36834, Note_off_c, 1, 48, 64
5, 36840, Note_on_c, 1, 36, 115
5, 37184, Note_off_c, 1, 36, 64
5, 37200, Note_on_c, 1, 41, 125
5, 37314, Note_off_c, 1, 41, 64
5, 37320, Note_on_c, 1, 36, 115
5, 37434, Note_off_c, 1, 36, 64
5, 37560, Note_on_c, 1, 53, 125
5, 37790, Note_off_c, 1, 53, 64
5, 37800, Note_on_c, 1, 36, 115
5, 37914, Note_off_c, 1, 36, 64
5, 37920, Note_on_c, 1, 39, 115
5, 38034, Note_off_c, 1, 39, 64
5, 38040, Note_on_c, 1, 53, 125
5, 38270, Note_off_c, 1, 53, 64
5, 38280, Note_on_c, 1, 36, 115
5, 38394, Note_off_c, 1, 36, 64
5, 38400, Note_on_c, 1, 41, 115
5, 38630, Note_off_c, 1, 41, 64
5, 38640, Note_on_c, 1, 48, 125
5, 38754, Note_off_c, 1, 48, 64
5, 38760, Note_on_c, 1, 36, 115
5, 39104, Note_off_c, 1, 36, 64
5, 39120, Note_on_c, 1, 41, 125
5, 39234, Note_off_c, 1, 41, 64
5, 39240, Note_on_c, 1, 36, 115
5, 39354, Note_off_c, 1, 36, 64
5, 39360, Note_on_c, 1, 34, 115
5, 39590, Note_off_c, 1, 34, 64
5, 39600, Note_on_c, 1, 41, 115
5, 39714, Note_off_c, 1, 41, 64
5, 39720, Note_on_c, 1, 29, 115
5, 39834, Note_off_c, 1, 29, 64
5, 39840, Note_on_c, 1, 29, 115
5, 39954, Note_off_c, 1, 29, 64
5, 39960, Note_on_c, 1, 41, 115
5, 40190, Note_off_c, 1, 41, 64
5, 40200, Note_on_c, 1, 29, 115
5, 40320, Note_off_c, 1, 29, 64
5, 40680, Note_on_c, 1, 36, 115
5, 40794, Note_off_c, 1, 36, 64
5, 40800, Note_on_c, 1, 36, 115
5, 41030, Note_off_c, 1, 36, 64
5, 41040, Note_on_c, 1, 39, 119
5, 41270, Note_off_c, 1, 39, 64
5, 41280, Note_on_c, 1, 37, 115
5, 41394, Note_off_c, 1, 37, 64
5, 41400, Note_on_c, 1, 44, 125
5, 41514, Note_off_c, 1, 44, 64
5, 41520, Note_on_c, 1, 44, 125
5, 41634, Note_off_c, 1, 44, 64
5, 41640, Note_on_c, 1, 32, 115
5, 41984, Note_off_c, 1, 32, 64
5, 42000, Note_on_c, 1, 37, 125
5, 42114, Note_off_c, 1, 37, 64
5, 42120, Note_on_c, 1, 32, 115
5, 42234, Note_off_c, 1, 32, 64
5, 42240, Note_on_c, 1, 43, 115
5, 42470, Note_off_c, 1, 43, 64
5, 42480, Note_on_c, 1, 50, 125
5, 42594, Note_off_c, 1, 50, 64
5, 42600, Note_on_c, 1, 38, 115
5, 42944, Note_off_c, 1, 38, 64
5, 42960, Note_on_c, 1, 43, 125
5, 43074, Note_off_c, 1, 43, 64
5, 43080, Note_on_c, 1, 38, 115
5, 43194, Note_off_c, 1, 38, 64
5, 43200, Note_on_c, 1, 36, 115
5, 43430, Note_off_c, 1, 36, 64
5, 43440, Note_on_c, 1, 43, 115
5, 43554, Note_off_c, 1, 43, 64
5, 43560, Note_on_c, 1, 31, 115
5, 43674, Note_off_c, 1, 31, 64
5, 43680, Note_on_c, 1, 31, 115
5, 43794, Note_off_c, 1, 31, 64
5, 43800, Note_on_c, 1, 43, 115
5, 44030, Note_off_c, 1, 43, 64
5, 44040, Note_on_c, 1, 31, 115
5, 44160, Note_off_c, 1, 31, 64
5, 44160, Note_on_c, 1, 41, 115
5, 44390, Note_off_c, 1, 41, 64
5, 44400, Note_on_c, 1, 48, 125
5, 44514, Note_off_c, 1, 48, 64
5, 44520, Note_on_c, 1, 36, 115
5, 44864, Note_off_c, 1, 36, 64
5, 44880, Note_on_c, 1, 41, 125
5, 44994, Note_off_c, 1, 41, 64
5, 45000, Note_on_c, 1, 36, 115
5, 45114, Note_off_c, 1, 36, 64
5, 45120, Note_on_c, 1, 41, 115
5, 45350, Note_off_c, 1, 41, 64
5, 45360, Note_on_c, 1, 48, 125
5, 45474, Note_off_c, 1, 48, 64
5, 45480, Note_on_c, 1, 36, 115
5, 45824, Note_off_c, 1, 36, 64
5, 45840, Note_on_c, 1, 41, 125
5, 45954, Note_off_c, 1, 41, 64
5, 45960, Note_on_c, 1, 36, 115
5, 46074, Note_off_c, 1, 36, 64
5, 46080, Note_on_c, 1, 41, 115
5, 46310, Note_off_c, 1, 41, 64
5, 46320, Note_on_c, 1, 48, 115
5, 46434, Note_off_c, 1, 48, 64
5, 46440, Note_on_c, 1, 36, 115
5, 46554, Note_off_c, 1, 36, 64
5, 46560, Note_on_c, 1, 36, 115
5, 46674, Note_off_c, 1, 36, 64
5, 46680, Note_on_c, 1, 48, 115
5, 46910, Note_off_c, 1, 48, 64
5, 46920, Note_on_c, 1, 36, 115
5, 47040, Note_off_c, 1, 36, 64
5, 47160, Note_on_c, 1, 46, 125
5, 47390, Note_off_c, 1, 46, 64
5, 47400, Note_on_c, 1, 29, 115
5, 47514, Note_off_c, 1, 29, 64
5, 47520, Note_on_c, 1, 32, 115
5, 47634, Note_off_c, 1, 32, 64
5, 47640, Note_on_c, 1, 46, 125
5, 47870, Note_off_c, 1, 46, 64
5, 47880, Note_on_c, 1, 29, 115
5, 47994, Note_off_c, 1, 29, 64
5, 48360, Note_on_c, 1, 32, 115
5, 48474, Note_off_c, 1, 32, 64
5, 48480, Note_on_c, 1, 32, 115
5, 48710, Note_off_c, 1, 32, 64
5, 48720, Note_on_c, 1, 35, 119
5, 48950, Note_off_c, 1, 35, 64
5, 49320, Note_on_c, 1, 31, 115
5, 49434, Note_off_c, 1, 31, 64
5, 49440, Note_on_c, 1, 34, 115
5, 49670, Note_off_c, 1, 34, 64
5, 49680, Note_on_c, 1, 36, 115
5, 49910, Note_off_c, 1, 36, 64
5, 49920, Note_on_c, 1, 41, 115
5, 50150, Note_off_c, 1, 41, 64
5, 50160, Note_on_c, 1, 48, 115
5, 50274, Note_off_c, 1, 48, 64
5, 50280, Note_on_c, 1, 36, 115
5, 50394, Note_off_c, 1, 36, 64
5, 50400, Note_on_c, 1, 36, 115
5, 50514, Note_off_c, 1, 36, 64
5, 50520, Note_on_c, 1, 48, 115
5, 50750, Note_off_c, 1, 48, 64
5, 50760, Note_on_c, 1, 36, 115
5, 50880, Note_off_c, 1, 36, 64
5, 50880, Note_on_c, 1, 41, 127
5, 50980, Note_off_c, 1, 41, 64
5, 51000, Note_on_c, 1, 41, 115
5, 51346, Note_off_c, 1, 41, 64
5, 51360, Note_on_c, 1, 41, 115
5, 51590, Note_off_c, 1, 41, 64
5, 51600, Note_on_c, 1, 48, 125
5, 51714, Note_off_c, 1, 48, 64
5, 51720, Note_on_c, 1, 36, 115
5, 51840, Note_off_c, 1, 36, 64
5, 52200, Note_on_c, 1, 36, 115
5, 52314, Note_off_c, 1, 36, 64
5, 52320, Note_on_c, 1, 36, 115
5, 52550, Note_off_c, 1, 36, 64
5, 52560, Note_on_c, 1, 39, 119
5, 52790, Note_off_c, 1, 39, 64
5, 52800, Note_on_c, 1, 41, 115
5, 53030, Note_off_c, 1, 41, 64
5, 53040, Note_on_c, 1, 48, 125
5, 53154, Note_off_c, 1, 48, 64
5, 53160, Note_on_c, 1, 36, 115
5, 53504, Note_off_c, 1, 36, 64
5, 53520, Note_on_c, 1, 41, 125
5, 53634, Note_off_c, 1, 41, 64
5, 53640, Note_on_c, 1, 36, 115
5, 53754, Note_off_c, 1, 36, 64
5, 54120, Note_on_c, 1, 36, 115
5, 54234, Note_off_c, 1, 36, 64
5, 54240, Note_on_c, 1, 36, 115
5, 54470, Note_off_c, 1, 36, 64
5, 54480, Note_on_c, 1, 39, 119
5, 54710, Note_off_c, 1, 39, 64
5, 54720, Note_on_c, 1, 34, 115
5, 54950, Note_off_c, 1, 34, 64
5, 54960, Note_on_c, 1, 41, 115
5, 55074, Note_off_c, 1, 41, 64
5, 55080, Note_on_c, 1, 29, 115
5, 55194, Note_off_c, 1, 29, 64
5, 55200, Note_on_c, 1, 29, 115
5, 55314, Note_off_c, 1, 29, 64
5, 55320, Note_on_c, 1, 41, 115
5, 55550, Note_off_c, 1, 41, 64
5, 55560, Note_on_c, 1, 29, 115
5, 55680, Note_off_c, 1, 29, 64
5, 55680, Note_on_c, 1, 41, 115
5, 55910, Note_off_c, 1, 41, 64
5, 55920, Note_on_c, 1, 48, 125
5, 56034, Note_off_c, 1, 48, 64
5, 56040, Note_on_c, 1, 36, 115
5, 56384, Note_off_c, 1, 36, 64
5, 56400, Note_on_c, 1, 41, 125
5, 56514, Note_off_c, 1, 41, 64
5, 56520, Note_on_c, 1, 36, 115
5, 56634, Note_off_c, 1, 36, 64
5, 56640, Note_on_c, 1, 37, 115
5, 56870, Note_off_c, 1, 37, 64
5, 56880, Note_on_c, 1, 44, 115
5, 56994, Note_off_c, 1, 44, 64
5, 57000, Note_on_c, 1, 32, 115
5, 57114, Note_off_c, 1, 32, 64
5, 57120, Note_on_c, 1, 32, 115
5, 57234, Note_off_c, 1, 32, 64
5, 57240, Note_on_c, 1, 44, 115
5, 57470, Note_off_c, 1, 44, 64
5, 57480, Note_on_c, 1, 32, 115
5, 57600, Note_off_c, 1, 32, 64
5, 57960, Note_on_c, 1, 38, 115
5, 58074, Note_off_c, 1, 38, 64
5, 58080, Note_on_c, 1, 38, 115
5, 58310, Note_off_c, 1, 38, 64
5, 58320, Note_on_c, 1, 41, 119
5, 58550, Note_off_c, 1, 41, 64
5, 58560, Note_on_c, 1, 36, 115
5, 58790, Note_off_c, 1, 36, 64
5, 58800, Note_on_c, 1, 43, 125
5, 58914, Note_off_c, 1, 43, 64
5, 58920, Note_on_c, 1, 31, 115
5, 59264, Note_off_c, 1, 31, 64
5, 59280, Note_on_c, 1, 36, 125
5, 59394, Note_off_c, 1, 36, 64
5, 59400, Note_on_c, 1, 31, 115
5, 59514, Note_off_c, 1, 31, 64
5, 59520, Note_on_c, 1, 41, 115
5, 59750, Note_off_c, 1, 41, 64
5, 59760, Note_on_c, 1, 48, 115
5, 59874, Note_off_c, 1, 48, 64
5, 59880, Note_on_c, 1, 36, 115
5, 59994, Note_off_c, 1, 36, 64
5, 60000, Note_on_c, 1, 36, 115
5, 60114, Note_off_c, 1, 36, 64
5, 60120, Note_on_c, 1, 48, 115
5, 60350, Note_off_c, 1, 48, 64
5, 60360, Note_on_c, 1, 36, 115
5, 60480, Note_off_c, 1, 36, 64
5, 60480, Note_on_c, 1, 41, 115
5, 60710, Note_off_c, 1, 41, 64
5, 60720, Note_on_c, 1, 48, 125
5, 60834, Note_off_c, 1, 48, 64
5, 60840, Note_on_c, 1, 36, 115
5, 61184, Note_off_c, 1, 36, 64
5, 61200, Note_on_c, 1, 41, 125
5, 61314, Note_off_c, 1, 41, 64
5, 61320, Note_on_c, 1, 36, 115
5, 61434, Note_off_c, 1, 36, 64
5, 61800, Note_on_c, 1, 36, 115
5, 61914, Note_off_c, 1, 36, 64
5, 61920, Note_on_c, 1, 36, 115
5, 62150, Note_off_c, 1, 36, 64
5, 62160, Note_on_c, 1, 39, 119
5, 62390, Note_off_c, 1, 39, 64
5, 62760, Note_on_c, 1, 29, 115
5, 62874, Note_off_c, 1, 29, 64
5, 62880, Note_on_c, 1, 32, 115
5, 63110, Note_off_c, 1, 32, 64
5, 63120, Note_on_c, 1, 34, 115
5, 63350, Note_off_c, 1, 34, 64
5, 63720, Note_on_c, 1, 32, 115
5, 63834, Note_off_c, 1, 32, 64
5, 63840, Note_on_c, 1, 32, 115
5, 64070, Note_off_c, 1, 32, 64
5, 64080, Note_on_c, 1, 35, 119
5, 64310, Note_off_c, 1, 35, 64
5, 64320, Note_on_c, 1, 36, 115
5, 64550, Note_off_c, 1, 36, 64
5, 64560, Note_on_c, 1, 43, 125
5, 64674, Note_off_c, 1, 43, 64
5, 64680, Note_on_c, 1, 31, 115
5, 65024, Note_off_c, 1, 31, 64
5, 65040, Note_on_c, 1, 36, 125
5, 65154, Note_off_c, 1, 36, 64
5, 65160, Note_on_c, 1, 31, 115
5, 65274, Note_off_c, 1, 31, 64
5, 65280, Note_on_c, 1, 41, 115
5, 65510, Note_off_c, 1, 41, 64
5, 65520, Note_on_c, 1, 48, 125
5, 65634, Note_off_c, 1, 48, 64
5, 65640, Note_on_c, 1, 36, 115
5, 65984, Note_off_c, 1, 36, 64
5, 66000, Note_on_c, 1, 41, 125
5, 66114, Note_off_c, 1, 41, 64
5, 66120, Note_on_c, 1, 36, 115
5, 66234, Note_off_c, 1, 36, 64
5, 66240, Note_on_c, 1, 41, 115
5, 66470, Note_off_c, 1, 41, 64
5, 66480, Note_on_c, 1, 48, 125
5, 66594, Note_off_c, 1, 48, 64
5, 66600, Note_on_c, 1, 36, 115
5, 66720, Note_off_c, 1, 36, 64
5, 66720, Note_on_c, 1, 40, 115
5, 66950, Note_off_c, 1, 40, 64
5, 66960, Note_on_c, 1, 33, 125
5, 67074, Note_off_c, 1, 33, 64
5, 67080, Note_on_c, 1, 28, 115
5, 67194, Note_off_c, 1, 28, 64
5, 67200, Note_on_c, 1, 39, 115
5, 67430, Note_off_c, 1, 39, 64
5, 67440, Note_on_c, 1, 46, 125
5, 67554, Note_off_c, 1, 46, 64
5, 67560, Note_on_c, 1, 34, 115
5, 67904, Note_off_c, 1, 34, 64
5, 67920, Note_on_c, 1, 49, 125
5, 68034, Note_off_c, 1, 49, 64
5, 68040, Note_on_c, 1, 51, 125
5, 68154, Note_off_c, 1, 51, 64
5, 68280, Note_on_c, 1, 44, 115
5, 68394, Note_off_c, 1, 44, 64
5, 68400, Note_on_c, 1, 44, 115
5, 68514, Note_off_c, 1, 44, 64
5, 68520, Note_on_c, 1, 39, 115
5, 68864, Note_off_c, 1, 39, 64
5, 68880, Note_on_c, 1, 54, 125
5, 68994, Note_off_c, 1, 54, 64
5, 69000, Note_on_c, 1, 44, 115
5, 69114, Note_off_c, 1, 44, 64
5, 69120, Note_on_c, 1, 37, 115
5, 69350, Note_off_c, 1, 37, 64
5, 69360, Note_on_c, 1, 44, 125
5, 69474, Note_off_c, 1, 44, 64
5, 69480, Note_on_c, 1, 32, 115
5, 69824, Note_off_c, 1, 32, 64
5, 69840, Note_on_c, 1, 48, 125
5, 69954, Note_off_c, 1, 48, 64
5, 69960, Note_on_c, 1, 49, 125
5, 70074, Note_off_c, 1, 49, 64
5, 70200, Note_on_c, 1, 34, 115
5, 70314, Note_off_c, 1, 34, 64
5, 70320, Note_on_c, 1, 34, 115
5, 70434, Note_off_c, 1, 34, 64
5, 70440, Note_on_c, 1, 29, 115
5, 70784, Note_off_c, 1, 29, 64
5, 70800, Note_on_c, 1, 44, 125
5, 70914, Note_off_c, 1, 44, 64
5, 70920, Note_on_c, 1, 34, 115
5, 71034, Note_off_c, 1, 34, 64
5, 71040, Note_on_c, 1, 39, 115
5, 71270, Note_off_c, 1, 39, 64
5, 71280, Note_on_c, 1, 46, 125
5, 71394, Note_off_c, 1, 46, 64
5, 71400, Note_on_c, 1, 34, 115
5, 71744, Note_off_c, 1, 34, 64
5, 71760, Note_on_c, 1, 49, 125
5, 71874, Note_off_c, 1, 49, 64
5, 71880, Note_on_c, 1, 51, 125
5, 71994, Note_off_c, 1, 51, 64
5, 72120, Note_on_c, 1, 44, 115
5, 72234, Note_off_c, 1, 44, 64
5, 72240, Note_on_c, 1, 44, 115
5, 72354, Note_off_c, 1, 44, 64
5, 72360, Note_on_c, 1, 39, 115
5, 72704, Note_off_c, 1, 39, 64
5, 72720, Note_on_c, 1, 54, 125
5, 72834, Note_off_c, 1, 54, 64
5, 72840, Note_on_c, 1, 44, 115
5, 72954, Note_off_c, 1, 44, 64
5, 72960, Note_on_c, 1, 37, 115
5, 73190, Note_off_c, 1, 37, 64
5, 73200, Note_on_c, 1, 44, 125
5, 73314, Note_off_c, 1, 44, 64
5, 73320, Note_on_c, 1, 32, 115
5, 73664, Note_off_c, 1, 32, 64
5, 73680, Note_on_c, 1, 48, 125
5, 73794, Note_off_c, 1, 48, 64
5, 73800, Note_on_c, 1, 49, 125
5, 73914, Note_off_c, 1, 49, 64
5, 74040, Note_on_c, 1, 37, 115
5, 74154, Note_off_c, 1, 37, 64
5, 74160, Note_on_c, 1, 37, 115
5, 74274, Note_off_c, 1, 37, 64
5, 74280, Note_on_c, 1, 32, 115
5, 74624, Note_off_c, 1, 32, 64
5, 74640, Note_on_c, 1, 48, 125
5, 74754, Note_off_c, 1, 48, 64
5, 74760, Note_on_c, 1, 37, 115
5, 74874, Note_off_c, 1, 37, 64
5, 74880, Note_on_c, 1, 38, 115
5, 75110, Note_off_c, 1, 38, 64
5, 75120, Note_on_c, 1, 45, 125
5, 75234, Note_off_c, 1, 45, 64
5, 75240, Note_on_c, 1, 33, 115
5, 75584, Note_off_c, 1, 33, 64
5, 75600, Note_on_c, 1, 48, 125
5, 75714, Note_off_c, 1, 48, 64
5, 75720, Note_on_c, 1, 50, 125
5, 75834, Note_off_c, 1, 50, 64
5, 75960, Note_on_c, 1, 43, 115
5, 76074, Note_off_c, 1, 43, 64
5, 76080, Note_on_c, 1, 43, 115
5, 76194, Note_off_c, 1, 43, 64
5, 76200, Note_on_c, 1, 38, 115
5, 76544, Note_off_c, 1, 38, 64
5, 76560, Note_on_c, 1, 53, 125
5, 76674, Note_off_c, 1, 53, 64
5, 76680, Note_on_c, 1, 43, 115
5, 76794, Note_off_c, 1, 43, 64
5, 76800, Note_on_c, 1, 36, 115
5, 77030, Note_off_c, 1, 36, 64
5, 77040, Note_on_c, 1, 43, 125
5, 77154, Note_off_c, 1, 43, 64
5, 77160, Note_on_c, 1, 31, 115
5, 77504, Note_off_c, 1, 31, 64
5, 77520, Note_on_c, 1, 47, 125
5, 77634, Note_off_c, 1, 47, 64
5, 77640, Note_on_c, 1, 48, 125
5, 77754, Note_off_c, 1, 48, 64
5, 77880, Note_on_c, 1, 36, 115
5, 77994, Note_off_c, 1, 36, 64
5, 78000, Note_on_c, 1, 36, 115
5, 78114, Note_off_c, 1, 36, 64
5, 78120, Note_on_c, 1, 31, 115
5, 78464, Note_off_c, 1, 31, 64
5, 78480, Note_on_c, 1, 47, 125
5, 78594, Note_off_c, 1, 47, 64
5, 78600, Note_on_c, 1, 36, 115
5, 78714, Note_off_c, 1, 36, 64
5, 78720, Note_on_c, 1, 34, 115
5, 78950, Note_off_c, 1, 34, 64
5, 78960, Note_on_c, 1, 46, 125
5, 79074, Note_off_c, 1, 46, 64
5, 79080, Note_on_c, 1, 34, 115
5, 79424, Note_off_c, 1, 34, 64
5, 79440, Note_on_c, 1, 50, 125
5, 79554, Note_off_c, 1, 50, 64
5, 79560, Note_on_c, 1, 46, 125
5, 79674, Note_off_c, 1, 46, 64
5, 79800, Note_on_c, 1, 35, 115
5, 79914, Note_off_c, 1, 35, 64
5, 79920, Note_on_c, 1, 35, 115
5, 80034, Note_off_c, 1, 35, 64
5, 80040, Note_on_c, 1, 38, 115
5, 80384, Note_off_c, 1, 38, 64
5, 80400, Note_on_c, 1, 53, 125
5, 80514, Note_off_c, 1, 53, 64
5, 80520, Note_on_c, 1, 35, 115
5, 80634, Note_off_c, 1, 35, 64
5, 80640, Note_on_c, 1, 36, 115
5, 80870, Note_off_c, 1, 36, 64
5, 80880, Note_on_c, 1, 50, 125
5, 80994, Note_off_c, 1, 50, 64
5, 81000, Note_on_c, 1, 38, 115
5, 81344, Note_off_c, 1, 38, 64
5, 81360, Note_on_c, 1, 53, 125
5, 81474, Note_off_c, 1, 53, 64
5, 81480, Note_on_c, 1, 48, 125
5, 81594, Note_off_c, 1, 48, 64
5, 81720, Note_on_c, 1, 36, 115
5, 81834, Note_off_c, 1, 36, 64
5, 81840, Note_on_c, 1, 36, 115
5, 81954, Note_off_c, 1, 36, 64
5, 81960, Note_on_c, 1, 31, 115
5, 82304, Note_off_c, 1, 31, 64
5, 82320, Note_on_c, 1, 46, 125
5, 82434, Note_off_c, 1, 46, 64
5, 82440, Note_on_c, 1, 36, 115
5, 82554, Note_off_c, 1, 36, 64
5, 82560, Note_on_c, 1, 41, 115
5, 82790, Note_off_c, 1, 41, 64
5, 82800, Note_on_c, 1, 48, 115
5, 82914, Note_off_c, 1, 48, 64
5, 82920, Note_on_c, 1, 36, 115
5, 83034, Note_off_c, 1, 36, 64
5, 83040, Note_on_c, 1, 36, 115
5, 83154, Note_off_c, 1, 36, 64
5, 83160, Note_on_c, 1, 48, 115
5, 83390, Note_off_c, 1, 48, 64
5, 83400, Note_on_c, 1, 36, 115
5, 83520, Note_off_c, 1, 36, 64
5, 83640, Note_on_c, 1, 53, 125
5, 83870, Note_off_c, 1, 53, 64
5, 83880, Note_on_c, 1, 36, 115
5, 83994, Note_off_c, 1, 36, 64
5, 84000, Note_on_c, 1, 39, 115
5, 84114, Note_off_c, 1, 39, 64
5, 84120, Note_on_c, 1, 53, 125
5, 84350, Note_off_c, 1, 53, 64
5, 84360, Note_on_c, 1, 36, 115
5, 84474, Note_off_c, 1, 36, 64
5, 84480, Note_on_c, 1, 41, 115
5, 84710, Note_off_c, 1, 41, 64
5, 84720, Note_on_c, 1, 48, 125
5, 84834, Note_off_c, 1, 48, 64
5, 84840, Note_on_c, 1, 36, 115
5, 85184, Note_off_c, 1, 36, 64
5, 85200, Note_on_c, 1, 41, 125
5, 85314, Note_off_c, 1, 41, 64
5, 85320, Note_on_c, 1, 36, 115
5, 85434, Note_off_c, 1, 36, 64
5, 85440, Note_on_c, 1, 34, 115
5, 85670, Note_off_c, 1, 34, 64
5, 85680, Note_on_c, 1, 41, 115
5, 85794, Note_off_c, 1, 41, 64
5, 85800, Note_on_c, 1, 29, 115
5, 85914, Note_off_c, 1, 29, 64
5, 85920, Note_on_c, 1, 29, 115
5, 86034, Note_off_c, 1, 29, 64
5, 86040, Note_on_c, 1, 41, 115
5, 86270, Note_off_c, 1, 41, 64
5, 86280, Note_on_c, 1, 29, 115
5, 86400, Note_off_c, 1, 29, 64
5, 86400, Note_on_c, 1, 41, 115
5, 86630, Note_off_c, 1, 41, 64
5, 86640, Note_on_c, 1, 48, 125
5, 86754, Note_off_c, 1, 48, 64
5, 86760, Note_on_c, 1, 36, 115
5, 87104, Note_off_c, 1, 36, 64
5, 87120, Note_on_c, 1, 41, 125
5, 87234, Note_off_c, 1, 41, 64
5, 87240, Note_on_c, 1, 36, 115
5, 87354, Note_off_c, 1, 36, 64
5, 87360, Note_on_c, 1, 37, 115
5, 87590, Note_off_c, 1, 37, 64
5, 87600, Note_on_c, 1, 44, 125
5, 87714, Note_off_c, 1, 44, 64
5, 87720, Note_on_c, 1, 32, 115
5, 88064, Note_off_c, 1, 32, 64
5, 88080, Note_on_c, 1, 37, 125
5, 88194, Note_off_c, 1, 37, 64
5, 88200, Note_on_c, 1, 32, 115
5, 88314, Note_off_c, 1, 32, 64
5, 88320, Note_on_c, 1, 43, 115
5, 88550, Note_off_c, 1, 43, 64
5, 88560, Note_on_c, 1, 50, 125
5, 88674, Note_off_c, 1, 50, 64
5, 88680, Note_on_c, 1, 38, 115
5, 89024, Note_off_c, 1, 38, 64
5, 89040, Note_on_c, 1, 43, 125
5, 89154, Note_off_c, 1, 43, 64
5, 89160, Note_on_c, 1, 38, 115
5, 89274, Note_off_c, 1, 38, 64
5, 89280, Note_on_c, 1, 36, 115
5, 89510, Note_off_c, 1, 36, 64
5, 89520, Note_on_c, 1, 43, 125
5, 89634, Note_off_c, 1, 43, 64
5, 89640, Note_on_c, 1, 31, 115
5, 89984, Note_off_c, 1, 31, 64
5, 90000, Note_on_c, 1, 36, 125
5, 90114, Note_off_c, 1, 36, 64
5, 90120, Note_on_c, 1, 31, 115
5, 90234, Note_off_c, 1, 31, 64
5, 90240, Note_on_c, 1, 41, 115
5, 90470, Note_off_c, 1, 41, 64
5, 90480, Note_on_c, 1, 48, 125
5, 90594, Note_off_c, 1, 48, 64
5, 90600, Note_on_c, 1, 36, 115
5, 90944, Note_off_c, 1, 36, 64
5, 90960, Note_on_c, 1, 41, 125
5, 91074, Note_off_c, 1, 41, 64
5, 91080, Note_on_c, 1, 36, 115
5, 91194, Note_off_c, 1, 36, 64
5, 91200, Note_on_c, 1, 41, 115
5, 91314, Note_off_c, 1, 41, 64
5, 91320, Note_on_c, 1, 48, 125
5, 91434, Note_off_c, 1, 48, 64
5, 91440, Note_on_c, 1, 48, 125
5, 91554, Note_off_c, 1, 48, 64
5, 91560, Note_on_c, 1, 36, 115
5, 91904, Note_off_c, 1, 36, 64
5, 91920, Note_on_c, 1, 41, 125
5, 92034, Note_off_c, 1, 41, 64
5, 92040, Note_on_c, 1, 36, 115
5, 92154, Note_off_c, 1, 36, 64
5, 92520, Note_on_c, 1, 36, 115
5, 92634, Note_off_c, 1, 36, 64
5, 92640, Note_on_c, 1, 36, 115
5, 92870, Note_off_c, 1, 36, 64
5, 92880, Note_on_c, 1, 39, 119
5, 93110, Note_off_c, 1, 39, 64
5, 93120, Note_on_c, 1, 34, 115
5, 93350, Note_off_c, 1, 34, 64
5, 93360, Note_on_c, 1, 41, 115
5, 93474, Note_off_c, 1, 41, 64
5, 93480, Note_on_c, 1, 29, 115
5, 93594, Note_off_c, 1, 29, 64
5, 93600, Note_on_c, 1, 29, 115
5, 93714, Note_off_c, 1, 29, 64
5, 93720, Note_on_c, 1, 41, 115
5, 93950, Note_off_c, 1, 41, 64
5, 93960, Note_on_c, 1, 29, 115
5, 94080, Note_off_c, 1, 29, 64
5, 94080, Note_on_c, 1, 37, 115
5, 94310, Note_off_c, 1, 37, 64
5, 94320, Note_on_c, 1, 44, 125
5, 94434, Note_off_c, 1, 44, 64
5, 94440, Note_on_c, 1, 32, 115
5, 94784, Note_off_c, 1, 32, 64
5, 94800, Note_on_c, 1, 37, 125
5, 94914, Note_off_c, 1, 37, 64
5, 94920, Note_on_c, 1, 32, 115
5, 95034, Note_off_c, 1, 32, 64
5, 95160, Note_on_c, 1, 48, 125
5, 95390, Note_off_c, 1, 48, 64
5, 95400, Note_on_c, 1, 31, 115
5, 95514, Note_off_c, 1, 31, 64
5, 95520, Note_on_c, 1, 34, 115
5, 95634, Note_off_c, 1, 34, 64
5, 95640, Note_on_c, 1, 48, 125
5, 95870, Note_off_c, 1, 48, 64
5, 95880, Note_on_c, 1, 31, 115
5, 95994, Note_off_c, 1, 31, 64
5, 96000, Note_on_c, 1, 41, 115
5, 96230, Note_off_c, 1, 41, 64
5, 96240, Note_on_c, 1, 48, 125
5, 96354, Note_off_c, 1, 48, 64
5, 96360, Note_on_c, 1, 36, 115
5, 96704, Note_off_c, 1, 36, 64
5, 96720, Note_on_c, 1, 41, 125
5, 96834, Note_off_c, 1, 41, 64
5, 96840, Note_on_c, 1, 36, 115
5, 96954, Note_off_c, 1, 36, 64
5, 96960, Note_on_c, 1, 41, 127
5, 97060, Note_off_c, 1, 41, 64
5, 97080, Note_on_c, 1, 48, 125
5, 97310, Note_off_c, 1, 48, 64
5, 97320, Note_on_c, 1, 36, 115
5, 97440, Note_off_c, 1, 36, 64
5, 97440, Note_on_c, 1, 41, 115
5, 97670, Note_off_c, 1, 41, 64
5, 97680, Note_on_c, 1, 48, 125
5, 97794, Note_off_c, 1, 48, 64
5, 97800, Note_on_c, 1, 36, 115
5, 97920, Note_off_c, 1, 36, 64
5, 97920, Note_on_c, 1, 41, 115
5, 98150, Note_off_c, 1, 41, 64
5, 98160, Note_on_c, 1, 48, 125
5, 98274, Note_off_c, 1, 48, 64
5, 98280, Note_on_c, 1, 36, 115
5, 98624, Note_off_c, 1, 36, 64
5, 98640, Note_on_c, 1, 41, 125
5, 98754, Note_off_c, 1, 41, 64
5, 98760, Note_on_c, 1, 36, 115
5, 98874, Note_off_c, 1, 36, 64
5, 98880, Note_on_c, 1, 41, 115
5, 99110, Note_off_c, 1, 41, 64
5, 99120, Note_on_c, 1, 48, 125
5, 99234, Note_off_c, 1, 48, 64
5, 99240, Note_on_c, 1, 36, 115
5, 99584, Note_off_c, 1, 36, 64
5, 99600, Note_on_c, 1, 41, 125
5, 99714, Note_off_c, 1, 41, 64
5, 99720, Note_on_c, 1, 36, 115
5, 99834, Note_off_c, 1, 36, 64
5, 99840, Note_on_c, 1, 41, 115
5, 100070, Note_off_c, 1, 41, 64
5, 100080, Note_on_c, 1, 48, 125
5, 100194, Note_off_c, 1, 48, 64
5, 100200, Note_on_c, 1, 36, 115
5, 100544, Note_off_c, 1, 36, 64
5, 100560, Note_on_c, 1, 41, 125
5, 100674, Note_off_c, 1, 41, 64
5, 100680, Note_on_c, 1, 36, 115
5, 100794, Note_off_c, 1, 36, 64
5, 100800, Note_on_c, 1, 34, 115
5, 101030, Note_off_c, 1, 34, 64
5, 101040, Note_on_c, 1, 41, 125
5, 101154, Note_off_c, 1, 41, 64
5, 101160, Note_on_c, 1, 29, 115
5, 101504, Note_off_c, 1, 29, 64
5, 101520, Note_on_c, 1, 34, 125
5, 101634, Note_off_c, 1, 34, 64
5, 101640, Note_on_c, 1, 29, 115
5, 101754, Note_off_c, 1, 29, 64
5, 101760, Note_on_c, 1, 41, 115
5, 101990, Note_off_c, 1, 41, 64
5, 102000, Note_on_c, 1, 48, 125
5, 102114, Note_off_c, 1, 48, 64
5, 102120, Note_on_c, 1, 36, 115
5, 102464, Note_off_c, 1, 36, 64
5, 102480, Note_on_c, 1, 41, 125
5, 102594, Note_off_c, 1, 41, 64
5, 102600, Note_on_c, 1, 36, 115
5, 102714, Note_off_c, 1, 36, 64
5, 102720, Note_on_c, 1, 41, 115
5, 102834, Note_off_c, 1, 41, 64
5, 102960, Note_on_c, 1, 41, 125
5, 103050, Note_off_c, 1, 41, 64
5, 103080, Note_on_c, 1, 41, 125
5, 103170, Note_off_c, 1, 41, 64
5, 103200, Note_on_c, 1, 41, 125
5, 103290, Note_off_c, 1, 41, 64
5, 103290, End_track
6, 0, Start_track
6, 0, Title_t, "G.MIDI Drums"
6, 0, Control_c, 9, 7, 100
6, 0, Note_on_c, 9, 37, 84
6, 1, Pitch_bend_c, 9, 8192
6, 240, Note_off_c, 9, 37, 64
6, 480, Note_on_c, 9, 37, 84
6, 720, Note_off_c, 9, 37, 64
6, 960, Note_on_c, 9, 37, 64
6, 1200, Note_off_c, 9, 37, 64
6, 1200, Note_on_c, 9, 37, 84
6, 1440, Note_off_c, 9, 37, 64
6, 1440, Note_on_c, 9, 37, 64
6, 1680, Note_off_c, 9, 37, 64
6, 1680, Note_on_c, 9, 37, 84
6, 1920, Note_off_c, 9, 37, 64
6, 1920, Note_on_c, 9, 56, 90
6, 1920, Note_on_c, 9, 62, 80
6, 1920, Note_on_c, 9, 69, 127
6, 1970, Note_off_c, 9, 69, 64
6, 1970, Note_off_c, 9, 62, 64
6, 1970, Note_off_c, 9, 56, 64
6, 2040, Note_on_c, 9, 63, 90
6, 2090, Note_off_c, 9, 63, 64
6, 2160, Note_on_c, 9, 56, 90
6, 2160, Note_on_c, 9, 62, 100
6, 2160, Note_on_c, 9, 69, 127
6, 2210, Note_off_c, 9, 69, 64
6, 2210, Note_off_c, 9, 62, 64
6, 2210, Note_off_c, 9, 56, 64
6, 2280, Note_on_c, 9, 63, 100
6, 2280, Note_on_c, 9, 69, 100
6, 2330, Note_off_c, 9, 69, 64
6, 2330, Note_off_c, 9, 63, 64
6, 2400, Note_on_c, 9, 56, 90
6, 2400, Note_on_c, 9, 63, 90
6, 2400, Note_on_c, 9, 69, 127
6, 2450, Note_off_c, 9, 69, 64
6, 2450, Note_off_c, 9, 63, 64
6, 2450, Note_off_c, 9, 56, 64
6, 2520, Note_on_c, 9, 62, 100
6, 2570, Note_off_c, 9, 62, 64
6, 2640, Note_on_c, 9, 56, 90
6, 2640, Note_on_c, 9, 63, 115
6, 2640, Note_on_c, 9, 69, 127
6, 2690, Note_off_c, 9, 69, 64
6, 2690, Note_off_c, 9, 63, 64
6, 2690, Note_off_c, 9, 56, 64
6, 2760, Note_on_c, 9, 63, 90
6, 2760, Note_on_c, 9, 69, 100
6, 2810, Note_off_c, 9, 69, 64
6, 2810, Note_off_c, 9, 63, 64
6, 2880, Note_on_c, 9, 56, 90
6, 2880, Note_on_c, 9, 62, 80
6, 2880, Note_on_c, 9, 69, 127
6, 2930, Note_off_c, 9, 69, 64
6, 2930, Note_off_c, 9, 62, 64
6, 2930, Note_off_c, 9, 56, 64
6, 3000, Note_on_c, 9, 63, 90
6, 3050, Note_off_c, 9, 63, 64
6, 3120, Note_on_c, 9, 56, 90
6, 3120, Note_on_c, 9, 63, 108
6, 3120, Note_on_c, 9, 69, 127
6, 3170, Note_off_c, 9, 69, 64
6, 3170, Note_off_c, 9, 63, 64
6, 3170, Note_off_c, 9, 56, 64
6, 3240, Note_on_c, 9, 63, 100
6, 3240, Note_on_c, 9, 69, 100
6, 3290, Note_off_c, 9, 69, 64
6, 3290, Note_off_c, 9, 63, 64
6, 3360, Note_on_c, 9, 56, 90
6, 3360, Note_on_c, 9, 63, 90
6, 3360, Note_on_c, 9, 69, 127
6, 3410, Note_off_c, 9, 69, 64
6, 3410, Note_off_c, 9, 63, 64
6, 3410, Note_off_c, 9, 56, 64
6, 3480, Note_on_c, 9, 62, 100
6, 3530, Note_off_c, 9, 62, 64
6, 3600, Note_on_c, 9, 56, 90
6, 3600, Note_on_c, 9, 63, 115
6, 3600, Note_on_c, 9, 69, 127
6, 3650, Note_off_c, 9, 69, 64
6, 3650, Note_off_c, 9, 63, 64
6, 3650, Note_off_c, 9, 56, 64
6, 3720, Note_on_c, 9, 63, 90
6, 3720, Note_on_c, 9, 69, 100
6, 3770, Note_off_c, 9, 69, 64
6, 3770, Note_off_c, 9, 63, 64
6, 3840, Note_on_c, 9, 56, 90
6, 3840, Note_on_c, 9, 62, 80
6, 3840, Note_on_c, 9, 69, 127
6, 3890, Note_off_c, 9, 69, 64
6, 3890, Note_off_c, 9, 62, 64
6, 3890, Note_off_c, 9, 56, 64
6, 3960, Note_on_c, 9, 62, 90
6, 4010, Note_off_c, 9, 62, 64
6, 4080, Note_on_c, 9, 56, 90
6, 4080, Note_on_c, 9, 62, 100
6, 4080, Note_on_c, 9, 69, 127
6, 4130, Note_off_c, 9, 69, 64
6, 4130, Note_off_c, 9, 62, 64
6, 4130, Note_off_c, 9, 56, 64
6, 4200, Note_on_c, 9, 63, 100
6, 4200, Note_on_c, 9, 69, 100
6, 4250, Note_off_c, 9, 69, 64
6, 4250, Note_off_c, 9, 63, 64
6, 4320, Note_on_c, 9, 56, 90
6, 4320, Note_on_c, 9, 63, 90
6, 4320, Note_on_c, 9, 69, 127
6, 4370, Note_off_c, 9, 69, 64
6, 4370, Note_off_c, 9, 63, 64
6, 4370, Note_off_c, 9, 56, 64
6, 4440, Note_on_c, 9, 62, 100
6, 4490, Note_off_c, 9, 62, 64
6, 4560, Note_on_c, 9, 56, 90
6, 4560, Note_on_c, 9, 63, 115
6, 4560, Note_on_c, 9, 69, 127
6, 4610, Note_off_c, 9, 69, 64
6, 4610, Note_off_c, 9, 63, 64
6, 4610, Note_off_c, 9, 56, 64
6, 4680, Note_on_c, 9, 63, 90
6, 4680, Note_on_c, 9, 69, 100
6, 4730, Note_off_c, 9, 69, 64
6, 4730, Note_off_c, 9, 63, 64
6, 4800, Note_on_c, 9, 56, 90
6, 4800, Note_on_c, 9, 62, 80
6, 4800, Note_on_c, 9, 69, 127
6, 4850, Note_off_c, 9, 69, 64
6, 4850, Note_off_c, 9, 62, 64
6, 4850, Note_off_c, 9, 56, 64
6, 4920, Note_on_c, 9, 42, 110
6, 4920, Note_on_c, 9, 62, 90
6, 4970, Note_off_c, 9, 62, 64
6, 4970, Note_off_c, 9, 42, 64
6, 5040, Note_on_c, 9, 56, 90
6, 5040, Note_on_c, 9, 62, 100
6, 5040, Note_on_c, 9, 69, 127
6, 5090, Note_off_c, 9, 69, 64
6, 5090, Note_off_c, 9, 62, 64
6, 5090, Note_off_c, 9, 56, 64
6, 5100, Note_on_c, 9, 63, 60
6, 5150, Note_off_c, 9, 63, 64
6, 5160, Note_on_c, 9, 63, 100
6, 5160, Note_on_c, 9, 69, 100
6, 5210, Note_off_c, 9, 69, 64
6, 5210, Note_off_c, 9, 63, 64
6, 5220, Note_on_c, 9, 63, 60
6, 5270, Note_off_c, 9, 63, 64
6, 5280, Note_on_c, 9, 56, 90
6, 5280, Note_on_c, 9, 63, 90
6, 5280, Note_on_c, 9, 69, 127
6, 5330, Note_off_c, 9, 69, 64
6, 5330, Note_off_c, 9, 63, 64
6, 5330, Note_off_c, 9, 56, 64
6, 5340, Note_on_c, 9, 63, 115
6, 5340, Note_on_c, 9, 65, 70
6, 5390, Note_off_c, 9, 65, 64
6, 5390, Note_off_c, 9, 63, 64
6, 5400, Note_on_c, 9, 63, 90
6, 5450, Note_off_c, 9, 63, 64
6, 5460, Note_on_c, 9, 62, 127
6, 5510, Note_off_c, 9, 62, 64
6, 5520, Note_on_c, 9, 56, 90
6, 5520, Note_on_c, 9, 63, 115
6, 5520, Note_on_c, 9, 69, 127
6, 5570, Note_off_c, 9, 69, 64
6, 5570, Note_off_c, 9, 63, 64
6, 5570, Note_off_c, 9, 56, 64
6, 5580, Note_on_c, 9, 63, 115
6, 5630, Note_off_c, 9, 63, 64
6, 5640, Note_on_c, 9, 56, 70
6, 5640, Note_on_c, 9, 63, 100
6, 5640, Note_on_c, 9, 65, 80
6, 5640, Note_on_c, 9, 69, 100
6, 5690, Note_off_c, 9, 69, 64
6, 5690, Note_off_c, 9, 65, 64
6, 5690, Note_off_c, 9, 63, 64
6, 5690, Note_off_c, 9, 56, 64
6, 5700, Note_on_c, 9, 63, 90
6, 5700, Note_on_c, 9, 65, 70
6, 5750, Note_off_c, 9, 65, 64
6, 5750, Note_off_c, 9, 63, 64
6, 5760, Note_on_c, 9, 56, 90
6, 5760, Note_on_c, 9, 62, 80
6, 5760, Note_on_c, 9, 69, 127
6, 5810, Note_off_c, 9, 69, 64
6, 5810, Note_off_c, 9, 62, 64
6, 5810, Note_off_c, 9, 56, 64
6, 5880, Note_on_c, 9, 63, 90
6, 5930, Note_off_c, 9, 63, 64
6, 6000, Note_on_c, 9, 56, 90
6, 6000, Note_on_c, 9, 62, 100
6, 6000, Note_on_c, 9, 69, 127
6, 6050, Note_off_c, 9, 69, 64
6, 6050, Note_off_c, 9, 62, 64
6, 6050, Note_off_c, 9, 56, 64
6, 6120, Note_on_c, 9, 63, 100
6, 6120, Note_on_c, 9, 69, 100
6, 6170, Note_off_c, 9, 69, 64
6, 6170, Note_off_c, 9, 63, 64
6, 6240, Note_on_c, 9, 56, 90
6, 6240, Note_on_c, 9, 63, 90
6, 6240, Note_on_c, 9, 69, 127
6, 6290, Note_off_c, 9, 69, 64
6, 6290, Note_off_c, 9, 63, 64
6, 6290, Note_off_c, 9, 56, 64
6, 6360, Note_on_c, 9, 62, 100
6, 6410, Note_off_c, 9, 62, 64
6, 6480, Note_on_c, 9, 56, 90
6, 6480, Note_on_c, 9, 63, 115
6, 6480, Note_on_c, 9, 69, 127
6, 6530, Note_off_c, 9, 69, 64
6, 6530, Note_off_c, 9, 63, 64
6, 6530, Note_off_c, 9, 56, 64
6, 6600, Note_on_c, 9, 56, 70
6, 6600, Note_on_c, 9, 63, 90
6, 6600, Note_on_c, 9, 69, 100
6, 6650, Note_off_c, 9, 69, 64
6, 6650, Note_off_c, 9, 63, 64
6, 6650, Note_off_c, 9, 56, 64
6, 6720, Note_on_c, 9, 56, 90
6, 6720, Note_on_c, 9, 62, 80
6, 6720, Note_on_c, 9, 69, 127
6, 6770, Note_off_c, 9, 69, 64
6, 6770, Note_off_c, 9, 62, 64
6, 6770, Note_off_c, 9, 56, 64
6, 6840, Note_on_c, 9, 63, 90
6, 6890, Note_off_c, 9, 63, 64
6, 6960, Note_on_c, 9, 56, 90
6, 6960, Note_on_c, 9, 62, 100
6, 6960, Note_on_c, 9, 69, 127
6, 7010, Note_off_c, 9, 69, 64
6, 7010, Note_off_c, 9, 62, 64
6, 7010, Note_off_c, 9, 56, 64
6, 7080, Note_on_c, 9, 63, 100
6, 7080, Note_on_c, 9, 69, 100
6, 7130, Note_off_c, 9, 69, 64
6, 7130, Note_off_c, 9, 63, 64
6, 7200, Note_on_c, 9, 56, 90
6, 7200, Note_on_c, 9, 63, 90
6, 7200, Note_on_c, 9, 69, 127
6, 7250, Note_off_c, 9, 69, 64
6, 7250, Note_off_c, 9, 63, 64
6, 7250, Note_off_c, 9, 56, 64
6, 7320, Note_on_c, 9, 62, 100
6, 7370, Note_off_c, 9, 62, 64
6, 7380, Note_on_c, 9, 62, 80
6, 7430, Note_off_c, 9, 62, 64
6, 7440, Note_on_c, 9, 56, 90
6, 7440, Note_on_c, 9, 63, 115
6, 7440, Note_on_c, 9, 69, 127
6, 7490, Note_off_c, 9, 69, 64
6, 7490, Note_off_c, 9, 63, 64
6, 7490, Note_off_c, 9, 56, 64
6, 7560, Note_on_c, 9, 56, 70
6, 7560, Note_on_c, 9, 63, 90
6, 7560, Note_on_c, 9, 69, 100
6, 7610, Note_off_c, 9, 69, 64
6, 7610, Note_off_c, 9, 63, 64
6, 7610, Note_off_c, 9, 56, 64
6, 7680, Note_on_c, 9, 56, 90
6, 7680, Note_on_c, 9, 62, 80
6, 7680, Note_on_c, 9, 69, 127
6, 7730, Note_off_c, 9, 69, 64
6, 7730, Note_off_c, 9, 62, 64
6, 7730, Note_off_c, 9, 56, 64
6, 7800, Note_on_c, 9, 62, 90
6, 7850, Note_off_c, 9, 62, 64
6, 7920, Note_on_c, 9, 56, 90
6, 7920, Note_on_c, 9, 62, 100
6, 7920, Note_on_c, 9, 69, 127
6, 7970, Note_off_c, 9, 69, 64
6, 7970, Note_off_c, 9, 62, 64
6, 7970, Note_off_c, 9, 56, 64
6, 8040, Note_on_c, 9, 63, 100
6, 8040, Note_on_c, 9, 69, 100
6, 8090, Note_off_c, 9, 69, 64
6, 8090, Note_off_c, 9, 63, 64
6, 8160, Note_on_c, 9, 56, 90
6, 8160, Note_on_c, 9, 63, 90
6, 8160, Note_on_c, 9, 69, 127
6, 8210, Note_off_c, 9, 69, 64
6, 8210, Note_off_c, 9, 63, 64
6, 8210, Note_off_c, 9, 56, 64
6, 8280, Note_on_c, 9, 62, 100
6, 8330, Note_off_c, 9, 62, 64
6, 8400, Note_on_c, 9, 56, 90
6, 8400, Note_on_c, 9, 63, 115
6, 8400, Note_on_c, 9, 69, 127
6, 8450, Note_off_c, 9, 69, 64
6, 8450, Note_off_c, 9, 63, 64
6, 8450, Note_off_c, 9, 56, 64
6, 8520, Note_on_c, 9, 63, 90
6, 8520, Note_on_c, 9, 69, 100
6, 8570, Note_off_c, 9, 69, 64
6, 8570, Note_off_c, 9, 63, 64
6, 8640, Note_on_c, 9, 56, 90
6, 8640, Note_on_c, 9, 62, 80
6, 8640, Note_on_c, 9, 69, 127
6, 8690, Note_off_c, 9, 69, 64
6, 8690, Note_off_c, 9, 62, 64
6, 8690, Note_off_c, 9, 56, 64
6, 8760, Note_on_c, 9, 62, 90
6, 8760, Note_on_c, 9, 65, 60
6, 8810, Note_off_c, 9, 65, 64
6, 8810, Note_off_c, 9, 62, 64
6, 8880, Note_on_c, 9, 56, 90
6, 8880, Note_on_c, 9, 62, 100
6, 8880, Note_on_c, 9, 69, 127
6, 8930, Note_off_c, 9, 69, 64
6, 8930, Note_off_c, 9, 62, 64
6, 8930, Note_off_c, 9, 56, 64
6, 9000, Note_on_c, 9, 63, 100
6, 9000, Note_on_c, 9, 69, 100
6, 9050, Note_off_c, 9, 69, 64
6, 9050, Note_off_c, 9, 63, 64
6, 9060, Note_on_c, 9, 63, 60
6, 9060, Note_on_c, 9, 65, 60
6, 9110, Note_off_c, 9, 65, 64
6, 9110, Note_off_c, 9, 63, 64
6, 9120, Note_on_c, 9, 56, 90
6, 9120, Note_on_c, 9, 63, 90
6, 9120, Note_on_c, 9, 69, 127
6, 9170, Note_off_c, 9, 69, 64
6, 9170, Note_off_c, 9, 63, 64
6, 9170, Note_off_c, 9, 56, 64
6, 9240, Note_on_c, 9, 63, 90
6, 9290, Note_off_c, 9, 63, 64
6, 9360, Note_on_c, 9, 56, 90
6, 9360, Note_on_c, 9, 63, 115
6, 9360, Note_on_c, 9, 69, 127
6, 9410, Note_off_c, 9, 69, 64
6, 9410, Note_off_c, 9, 63, 64
6, 9410, Note_off_c, 9, 56, 64
6, 9480, Note_on_c, 9, 56, 70
6, 9480, Note_on_c, 9, 63, 90
6, 9480, Note_on_c, 9, 69, 100
6, 9530, Note_off_c, 9, 69, 64
6, 9530, Note_off_c, 9, 63, 64
6, 9530, Note_off_c, 9, 56, 64
6, 9600, Note_on_c, 9, 56, 90
6, 9600, Note_on_c, 9, 62, 80
6, 9600, Note_on_c, 9, 69, 127
6, 9650, Note_off_c, 9, 69, 64
6, 9650, Note_off_c, 9, 62, 64
6, 9650, Note_off_c, 9, 56, 64
6, 9720, Note_on_c, 9, 63, 90
6, 9770, Note_off_c, 9, 63, 64
6, 9840, Note_on_c, 9, 56, 90
6, 9840, Note_on_c, 9, 62, 100
6, 9840, Note_on_c, 9, 69, 127
6, 9890, Note_off_c, 9, 69, 64
6, 9890, Note_off_c, 9, 62, 64
6, 9890, Note_off_c, 9, 56, 64
6, 9960, Note_on_c, 9, 63, 100
6, 9960, Note_on_c, 9, 69, 100
6, 10010, Note_off_c, 9, 69, 64
6, 10010, Note_off_c, 9, 63, 64
6, 10080, Note_on_c, 9, 56, 90
6, 10080, Note_on_c, 9, 63, 90
6, 10080, Note_on_c, 9, 69, 127
6, 10130, Note_off_c, 9, 69, 64
6, 10130, Note_off_c, 9, 63, 64
6, 10130, Note_off_c, 9, 56, 64
6, 10200, Note_on_c, 9, 63, 90
6, 10250, Note_off_c, 9, 63, 64
6, 10320, Note_on_c, 9, 56, 90
6, 10320, Note_on_c, 9, 63, 115
6, 10320, Note_on_c, 9, 69, 127
6, 10370, Note_off_c, 9, 69, 64
6, 10370, Note_off_c, 9, 63, 64
6, 10370, Note_off_c, 9, 56, 64
6, 10440, Note_on_c, 9, 63, 90
6, 10440, Note_on_c, 9, 69, 100
6, 10490, Note_off_c, 9, 69, 64
6, 10490, Note_off_c, 9, 63, 64
6, 10560, Note_on_c, 9, 56, 90
6, 10560, Note_on_c, 9, 62, 80
6, 10560, Note_on_c, 9, 69, 127
6, 10610, Note_off_c, 9, 69, 64
6, 10610, Note_off_c, 9, 62, 64
6, 10610, Note_off_c, 9, 56, 64
6, 10680, Note_on_c, 9, 63, 90
6, 10730, Note_off_c, 9, 63, 64
6, 10800, Note_on_c, 9, 56, 90
6, 10800, Note_on_c, 9, 63, 108
6, 10800, Note_on_c, 9, 69, 127
6, 10850, Note_off_c, 9, 69, 64
6, 10850, Note_off_c, 9, 63, 64
6, 10850, Note_off_c, 9, 56, 64
6, 10920, Note_on_c, 9, 63, 100
6, 10920, Note_on_c, 9, 69, 100
6, 10970, Note_off_c, 9, 69, 64
6, 10970, Note_off_c, 9, 63, 64
6, 11040, Note_on_c, 9, 56, 90
6, 11040, Note_on_c, 9, 63, 90
6, 11040, Note_on_c, 9, 69, 127
6, 11090, Note_off_c, 9, 69, 64
6, 11090, Note_off_c, 9, 63, 64
6, 11090, Note_off_c, 9, 56, 64
6, 11160, Note_on_c, 9, 63, 90
6, 11210, Note_off_c, 9, 63, 64
6, 11280, Note_on_c, 9, 56, 90
6, 11280, Note_on_c, 9, 63, 115
6, 11280, Note_on_c, 9, 69, 127
6, 11330, Note_off_c, 9, 69, 64
6, 11330, Note_off_c, 9, 63, 64
6, 11330, Note_off_c, 9, 56, 64
6, 11400, Note_on_c, 9, 56, 70
6, 11400, Note_on_c, 9, 63, 90
6, 11400, Note_on_c, 9, 69, 100
6, 11450, Note_off_c, 9, 69, 64
6, 11450, Note_off_c, 9, 63, 64
6, 11450, Note_off_c, 9, 56, 64
6, 11520, Note_on_c, 9, 56, 90
6, 11520, Note_on_c, 9, 62, 80
6, 11520, Note_on_c, 9, 69, 127
6, 11570, Note_off_c, 9, 69, 64
6, 11570, Note_off_c, 9, 62, 64
6, 11570, Note_off_c, 9, 56, 64
6, 11640, Note_on_c, 9, 62, 90
6, 11690, Note_off_c, 9, 62, 64
6, 11760, Note_on_c, 9, 56, 90
6, 11760, Note_on_c, 9, 62, 100
6, 11760, Note_on_c, 9, 69, 127
6, 11810, Note_off_c, 9, 69, 64
6, 11810, Note_off_c, 9, 62, 64
6, 11810, Note_off_c, 9, 56, 64
6, 11880, Note_on_c, 9, 63, 100
6, 11880, Note_on_c, 9, 69, 100
6, 11930, Note_off_c, 9, 69, 64
6, 11930, Note_off_c, 9, 63, 64
6, 12000, Note_on_c, 9, 56, 90
6, 12000, Note_on_c, 9, 63, 90
6, 12000, Note_on_c, 9, 69, 127
6, 12050, Note_off_c, 9, 69, 64
6, 12050, Note_off_c, 9, 63, 64
6, 12050, Note_off_c, 9, 56, 64
6, 12120, Note_on_c, 9, 63, 90
6, 12170, Note_off_c, 9, 63, 64
6, 12240, Note_on_c, 9, 56, 90
6, 12240, Note_on_c, 9, 63, 115
6, 12240, Note_on_c, 9, 69, 127
6, 12290, Note_off_c, 9, 69, 64
6, 12290, Note_off_c, 9, 63, 64
6, 12290, Note_off_c, 9, 56, 64
6, 12360, Note_on_c, 9, 63, 90
6, 12360, Note_on_c, 9, 69, 100
6, 12410, Note_off_c, 9, 69, 64
6, 12410, Note_off_c, 9, 63, 64
6, 12480, Note_on_c, 9, 56, 90
6, 12480, Note_on_c, 9, 62, 80
6, 12480, Note_on_c, 9, 69, 127
6, 12530, Note_off_c, 9, 69, 64
6, 12530, Note_off_c, 9, 62, 64
6, 12530, Note_off_c, 9, 56, 64
6, 12600, Note_on_c, 9, 63, 90
6, 12650, Note_off_c, 9, 63, 64
6, 12720, Note_on_c, 9, 56, 90
6, 12720, Note_on_c, 9, 62, 100
6, 12720, Note_on_c, 9, 69, 127
6, 12770, Note_off_c, 9, 69, 64
6, 12770, Note_off_c, 9, 62, 64
6, 12770, Note_off_c, 9, 56, 64
6, 12780, Note_on_c, 9, 63, 60
6, 12830, Note_off_c, 9, 63, 64
6, 12840, Note_on_c, 9, 63, 100
6, 12840, Note_on_c, 9, 69, 100
6, 12890, Note_off_c, 9, 69, 64
6, 12890, Note_off_c, 9, 63, 64
6, 12900, Note_on_c, 9, 63, 60
6, 12950, Note_off_c, 9, 63, 64
6, 12960, Note_on_c, 9, 56, 90
6, 12960, Note_on_c, 9, 63, 90
6, 12960, Note_on_c, 9, 69, 127
6, 13010, Note_off_c, 9, 69, 64
6, 13010, Note_off_c, 9, 63, 64
6, 13010, Note_off_c, 9, 56, 64
6, 13020, Note_on_c, 9, 63, 115
6, 13020, Note_on_c, 9, 65, 70
6, 13070, Note_off_c, 9, 65, 64
6, 13070, Note_off_c, 9, 63, 64
6, 13080, Note_on_c, 9, 62, 100
6, 13130, Note_off_c, 9, 62, 64
6, 13140, Note_on_c, 9, 62, 127
6, 13190, Note_off_c, 9, 62, 64
6, 13200, Note_on_c, 9, 56, 90
6, 13200, Note_on_c, 9, 63, 115
6, 13200, Note_on_c, 9, 69, 127
6, 13250, Note_off_c, 9, 69, 64
6, 13250, Note_off_c, 9, 63, 64
6, 13250, Note_off_c, 9, 56, 64
6, 13260, Note_on_c, 9, 63, 115
6, 13310, Note_off_c, 9, 63, 64
6, 13320, Note_on_c, 9, 56, 70
6, 13320, Note_on_c, 9, 63, 100
6, 13320, Note_on_c, 9, 65, 80
6, 13320, Note_on_c, 9, 69, 100
6, 13370, Note_off_c, 9, 69, 64
6, 13370, Note_off_c, 9, 65, 64
6, 13370, Note_off_c, 9, 63, 64
6, 13370, Note_off_c, 9, 56, 64
6, 13380, Note_on_c, 9, 63, 90
6, 13380, Note_on_c, 9, 65, 70
6, 13430, Note_off_c, 9, 65, 64
6, 13430, Note_off_c, 9, 63, 64
6, 13440, Note_on_c, 9, 56, 90
6, 13440, Note_on_c, 9, 62, 80
6, 13440, Note_on_c, 9, 69, 127
6, 13490, Note_off_c, 9, 69, 64
6, 13490, Note_off_c, 9, 62, 64
6, 13490, Note_off_c, 9, 56, 64
6, 13560, Note_on_c, 9, 62, 90
6, 13610, Note_off_c, 9, 62, 64
6, 13680, Note_on_c, 9, 56, 90
6, 13680, Note_on_c, 9, 62, 100
6, 13680, Note_on_c, 9, 69, 127
6, 13730, Note_off_c, 9, 69, 64
6, 13730, Note_off_c, 9, 62, 64
6, 13730, Note_off_c, 9, 56, 64
6, 13800, Note_on_c, 9, 63, 100
6, 13800, Note_on_c, 9, 69, 100
6, 13850, Note_off_c, 9, 69, 64
6, 13850, Note_off_c, 9, 63, 64
6, 13920, Note_on_c, 9, 56, 90
6, 13920, Note_on_c, 9, 63, 90
6, 13920, Note_on_c, 9, 69, 127
6, 13970, Note_off_c, 9, 69, 64
6, 13970, Note_off_c, 9, 63, 64
6, 13970, Note_off_c, 9, 56, 64
6, 14040, Note_on_c, 9, 62, 100
6, 14090, Note_off_c, 9, 62, 64
6, 14160, Note_on_c, 9, 56, 90
6, 14160, Note_on_c, 9, 63, 115
6, 14160, Note_on_c, 9, 69, 127
6, 14210, Note_off_c, 9, 69, 64
6, 14210, Note_off_c, 9, 63, 64
6, 14210, Note_off_c, 9, 56, 64
6, 14280, Note_on_c, 9, 63, 90
6, 14280, Note_on_c, 9, 69, 100
6, 14330, Note_off_c, 9, 69, 64
6, 14330, Note_off_c, 9, 63, 64
6, 14400, Note_on_c, 9, 56, 90
6, 14400, Note_on_c, 9, 62, 80
6, 14400, Note_on_c, 9, 69, 127
6, 14450, Note_off_c, 9, 69, 64
6, 14450, Note_off_c, 9, 62, 64
6, 14450, Note_off_c, 9, 56, 64
6, 14520, Note_on_c, 9, 62, 90
6, 14570, Note_off_c, 9, 62, 64
6, 14640, Note_on_c, 9, 56, 90
6, 14640, Note_on_c, 9, 62, 100
6, 14640, Note_on_c, 9, 69, 127
6, 14690, Note_off_c, 9, 69, 64
6, 14690, Note_off_c, 9, 62, 64
6, 14690, Note_off_c, 9, 56, 64
6, 14760, Note_on_c, 9, 63, 100
6, 14760, Note_on_c, 9, 69, 100
6, 14810, Note_off_c, 9, 69, 64
6, 14810, Note_off_c, 9, 63, 64
6, 14880, Note_on_c, 9, 56, 90
6, 14880, Note_on_c, 9, 63, 90
6, 14880, Note_on_c, 9, 69, 127
6, 14930, Note_off_c, 9, 69, 64
6, 14930, Note_off_c, 9, 63, 64
6, 14930, Note_off_c, 9, 56, 64
6, 15000, Note_on_c, 9, 62, 100
6, 15050, Note_off_c, 9, 62, 64
6, 15120, Note_on_c, 9, 56, 90
6, 15120, Note_on_c, 9, 63, 115
6, 15120, Note_on_c, 9, 69, 127
6, 15170, Note_off_c, 9, 69, 64
6, 15170, Note_off_c, 9, 63, 64
6, 15170, Note_off_c, 9, 56, 64
6, 15240, Note_on_c, 9, 63, 90
6, 15240, Note_on_c, 9, 69, 100
6, 15290, Note_off_c, 9, 69, 64
6, 15290, Note_off_c, 9, 63, 64
6, 15360, Note_on_c, 9, 56, 90
6, 15360, Note_on_c, 9, 62, 80
6, 15360, Note_on_c, 9, 69, 127
6, 15410, Note_off_c, 9, 69, 64
6, 15410, Note_off_c, 9, 62, 64
6, 15410, Note_off_c, 9, 56, 64
6, 15480, Note_on_c, 9, 62, 90
6, 15530, Note_off_c, 9, 62, 64
6, 15600, Note_on_c, 9, 56, 90
6, 15600, Note_on_c, 9, 62, 100
6, 15600, Note_on_c, 9, 69, 127
6, 15650, Note_off_c, 9, 69, 64
6, 15650, Note_off_c, 9, 62, 64
6, 15650, Note_off_c, 9, 56, 64
6, 15720, Note_on_c, 9, 63, 100
6, 15720, Note_on_c, 9, 69, 100
6, 15770, Note_off_c, 9, 69, 64
6, 15770, Note_off_c, 9, 63, 64
6, 15840, Note_on_c, 9, 56, 90
6, 15840, Note_on_c, 9, 63, 90
6, 15840, Note_on_c, 9, 69, 127
6, 15890, Note_off_c, 9, 69, 64
6, 15890, Note_off_c, 9, 63, 64
6, 15890, Note_off_c, 9, 56, 64
6, 15960, Note_on_c, 9, 62, 100
6, 16010, Note_off_c, 9, 62, 64
6, 16080, Note_on_c, 9, 56, 90
6, 16080, Note_on_c, 9, 63, 115
6, 16080, Note_on_c, 9, 69, 127
6, 16130, Note_off_c, 9, 69, 64
6, 16130, Note_off_c, 9, 63, 64
6, 16130, Note_off_c, 9, 56, 64
6, 16200, Note_on_c, 9, 63, 90
6, 16200, Note_on_c, 9, 69, 100
6, 16250, Note_off_c, 9, 69, 64
6, 16250, Note_off_c, 9, 63, 64
6, 16320, Note_on_c, 9, 56, 90
6, 16320, Note_on_c, 9, 62, 80
6, 16320, Note_on_c, 9, 69, 127
6, 16370, Note_off_c, 9, 69, 64
6, 16370, Note_off_c, 9, 62, 64
6, 16370, Note_off_c, 9, 56, 64
6, 16440, Note_on_c, 9, 63, 90
6, 16440, Note_on_c, 9, 65, 60
6, 16490, Note_off_c, 9, 65, 64
6, 16490, Note_off_c, 9, 63, 64
6, 16560, Note_on_c, 9, 56, 90
6, 16560, Note_on_c, 9, 62, 100
6, 16560, Note_on_c, 9, 69, 127
6, 16610, Note_off_c, 9, 69, 64
6, 16610, Note_off_c, 9, 62, 64
6, 16610, Note_off_c, 9, 56, 64
6, 16620, Note_on_c, 9, 63, 60
6, 16670, Note_off_c, 9, 63, 64
6, 16680, Note_on_c, 9, 63, 100
6, 16680, Note_on_c, 9, 69, 100
6, 16730, Note_off_c, 9, 69, 64
6, 16730, Note_off_c, 9, 63, 64
6, 16740, Note_on_c, 9, 63, 60
6, 16740, Note_on_c, 9, 65, 60
6, 16790, Note_off_c, 9, 65, 64
6, 16790, Note_off_c, 9, 63, 64
6, 16800, Note_on_c, 9, 56, 90
6, 16800, Note_on_c, 9, 63, 90
6, 16800, Note_on_c, 9, 69, 127
6, 16850, Note_off_c, 9, 69, 64
6, 16850, Note_off_c, 9, 63, 64
6, 16850, Note_off_c, 9, 56, 64
6, 16920, Note_on_c, 9, 62, 100
6, 16970, Note_off_c, 9, 62, 64
6, 17040, Note_on_c, 9, 56, 90
6, 17040, Note_on_c, 9, 63, 115
6, 17040, Note_on_c, 9, 69, 127
6, 17090, Note_off_c, 9, 69, 64
6, 17090, Note_off_c, 9, 63, 64
6, 17090, Note_off_c, 9, 56, 64
6, 17160, Note_on_c, 9, 56, 70
6, 17160, Note_on_c, 9, 63, 90
6, 17160, Note_on_c, 9, 69, 100
6, 17210, Note_off_c, 9, 69, 64
6, 17210, Note_off_c, 9, 63, 64
6, 17210, Note_off_c, 9, 56, 64
6, 17280, Note_on_c, 9, 56, 90
6, 17280, Note_on_c, 9, 62, 80
6, 17280, Note_on_c, 9, 69, 127
6, 17330, Note_off_c, 9, 69, 64
6, 17330, Note_off_c, 9, 62, 64
6, 17330, Note_off_c, 9, 56, 64
6, 17400, Note_on_c, 9, 63, 90
6, 17450, Note_off_c, 9, 63, 64
6, 17520, Note_on_c, 9, 56, 90
6, 17520, Note_on_c, 9, 62, 100
6, 17520, Note_on_c, 9, 69, 127
6, 17570, Note_off_c, 9, 69, 64
6, 17570, Note_off_c, 9, 62, 64
6, 17570, Note_off_c, 9, 56, 64
6, 17640, Note_on_c, 9, 63, 100
6, 17640, Note_on_c, 9, 69, 100
6, 17690, Note_off_c, 9, 69, 64
6, 17690, Note_off_c, 9, 63, 64
6, 17760, Note_on_c, 9, 56, 90
6, 17760, Note_on_c, 9, 63, 90
6, 17760, Note_on_c, 9, 69, 127
6, 17810, Note_off_c, 9, 69, 64
6, 17810, Note_off_c, 9, 63, 64
6, 17810, Note_off_c, 9, 56, 64
6, 17880, Note_on_c, 9, 62, 100
6, 17930, Note_off_c, 9, 62, 64
6, 18000, Note_on_c, 9, 56, 90
6, 18000, Note_on_c, 9, 63, 115
6, 18000, Note_on_c, 9, 69, 127
6, 18050, Note_off_c, 9, 69, 64
6, 18050, Note_off_c, 9, 63, 64
6, 18050, Note_off_c, 9, 56, 64
6, 18120, Note_on_c, 9, 56, 70
6, 18120, Note_on_c, 9, 63, 90
6, 18120, Note_on_c, 9, 69, 100
6, 18170, Note_off_c, 9, 69, 64
6, 18170, Note_off_c, 9, 63, 64
6, 18170, Note_off_c, 9, 56, 64
6, 18240, Note_on_c, 9, 56, 90
6, 18240, Note_on_c, 9, 62, 80
6, 18240, Note_on_c, 9, 69, 127
6, 18290, Note_off_c, 9, 69, 64
6, 18290, Note_off_c, 9, 62, 64
6, 18290, Note_off_c, 9, 56, 64
6, 18360, Note_on_c, 9, 62, 90
6, 18410, Note_off_c, 9, 62, 64
6, 18480, Note_on_c, 9, 56, 90
6, 18480, Note_on_c, 9, 62, 100
6, 18480, Note_on_c, 9, 69, 127
6, 18530, Note_off_c, 9, 69, 64
6, 18530, Note_off_c, 9, 62, 64
6, 18530, Note_off_c, 9, 56, 64
6, 18600, Note_on_c, 9, 63, 100
6, 18600, Note_on_c, 9, 69, 100
6, 18650, Note_off_c, 9, 69, 64
6, 18650, Note_off_c, 9, 63, 64
6, 18720, Note_on_c, 9, 56, 90
6, 18720, Note_on_c, 9, 63, 90
6, 18720, Note_on_c, 9, 69, 127
6, 18770, Note_off_c, 9, 69, 64
6, 18770, Note_off_c, 9, 63, 64
6, 18770, Note_off_c, 9, 56, 64
6, 18840, Note_on_c, 9, 62, 100
6, 18890, Note_off_c, 9, 62, 64
6, 18900, Note_on_c, 9, 62, 80
6, 18950, Note_off_c, 9, 62, 64
6, 18960, Note_on_c, 9, 56, 90
6, 18960, Note_on_c, 9, 63, 115
6, 18960, Note_on_c, 9, 69, 127
6, 19010, Note_off_c, 9, 69, 64
6, 19010, Note_off_c, 9, 63, 64
6, 19010, Note_off_c, 9, 56, 64
6, 19080, Note_on_c, 9, 63, 90
6, 19080, Note_on_c, 9, 69, 100
6, 19130, Note_off_c, 9, 69, 64
6, 19130, Note_off_c, 9, 63, 64
6, 19200, Note_on_c, 9, 56, 90
6, 19200, Note_on_c, 9, 62, 80
6, 19200, Note_on_c, 9, 69, 127
6, 19250, Note_off_c, 9, 69, 64
6, 19250, Note_off_c, 9, 62, 64
6, 19250, Note_off_c, 9, 56, 64
6, 19320, Note_on_c, 9, 62, 90
6, 19370, Note_off_c, 9, 62, 64
6, 19440, Note_on_c, 9, 56, 90
6, 19440, Note_on_c, 9, 63, 108
6, 19440, Note_on_c, 9, 69, 127
6, 19490, Note_off_c, 9, 69, 64
6, 19490, Note_off_c, 9, 63, 64
6, 19490, Note_off_c, 9, 56, 64
6, 19560, Note_on_c, 9, 63, 100
6, 19560, Note_on_c, 9, 69, 100
6, 19610, Note_off_c, 9, 69, 64
6, 19610, Note_off_c, 9, 63, 64
6, 19680, Note_on_c, 9, 56, 90
6, 19680, Note_on_c, 9, 63, 90
6, 19680, Note_on_c, 9, 69, 127
6, 19730, Note_off_c, 9, 69, 64
6, 19730, Note_off_c, 9, 63, 64
6, 19730, Note_off_c, 9, 56, 64
6, 19800, Note_on_c, 9, 62, 100
6, 19850, Note_off_c, 9, 62, 64
6, 19920, Note_on_c, 9, 56, 90
6, 19920, Note_on_c, 9, 63, 115
6, 19920, Note_on_c, 9, 69, 127
6, 19970, Note_off_c, 9, 69, 64
6, 19970, Note_off_c, 9, 63, 64
6, 19970, Note_off_c, 9, 56, 64
6, 20040, Note_on_c, 9, 56, 70
6, 20040, Note_on_c, 9, 63, 90
6, 20040, Note_on_c, 9, 69, 100
6, 20090, Note_off_c, 9, 69, 64
6, 20090, Note_off_c, 9, 63, 64
6, 20090, Note_off_c, 9, 56, 64
6, 20160, Note_on_c, 9, 42, 115
6, 20160, Note_on_c, 9, 56, 127
6, 20160, Note_on_c, 9, 62, 80
6, 20210, Note_off_c, 9, 62, 64
6, 20210, Note_off_c, 9, 56, 64
6, 20210, Note_off_c, 9, 42, 64
6, 20220, Note_on_c, 9, 56, 115
6, 20270, Note_off_c, 9, 56, 64
6, 20280, Note_on_c, 9, 42, 100
6, 20280, Note_on_c, 9, 56, 100
6, 20280, Note_on_c, 9, 62, 90
6, 20330, Note_off_c, 9, 62, 64
6, 20330, Note_off_c, 9, 56, 64
6, 20330, Note_off_c, 9, 42, 64
6, 20340, Note_on_c, 9, 56, 90
6, 20390, Note_off_c, 9, 56, 64
6, 20400, Note_on_c, 9, 42, 90
6, 20400, Note_on_c, 9, 56, 100
6, 20400, Note_on_c, 9, 62, 100
6, 20450, Note_off_c, 9, 62, 64
6, 20450, Note_off_c, 9, 56, 64
6, 20450, Note_off_c, 9, 42, 64
6, 20520, Note_on_c, 9, 42, 115
6, 20520, Note_on_c, 9, 63, 100
6, 20520, Note_on_c, 9, 65, 90
6, 20570, Note_off_c, 9, 65, 64
6, 20570, Note_off_c, 9, 63, 64
6, 20570, Note_off_c, 9, 42, 64
6, 20580, Note_on_c, 9, 63, 60
6, 20580, Note_on_c, 9, 65, 100
6, 20630, Note_off_c, 9, 65, 64
6, 20630, Note_off_c, 9, 63, 64
6, 20640, Note_on_c, 9, 42, 100
6, 20640, Note_on_c, 9, 56, 90
6, 20640, Note_on_c, 9, 63, 90
6, 20690, Note_off_c, 9, 63, 64
6, 20690, Note_off_c, 9, 56, 64
6, 20690, Note_off_c, 9, 42, 64
6, 20760, Note_on_c, 9, 42, 90
6, 20760, Note_on_c, 9, 63, 90
6, 20810, Note_off_c, 9, 63, 64
6, 20810, Note_off_c, 9, 42, 64
6, 20820, Note_on_c, 9, 62, 127
6, 20870, Note_off_c, 9, 62, 64
6, 20880, Note_on_c, 9, 42, 115
6, 20880, Note_on_c, 9, 56, 127
6, 20880, Note_on_c, 9, 63, 115
6, 20930, Note_off_c, 9, 63, 64
6, 20930, Note_off_c, 9, 56, 64
6, 20930, Note_off_c, 9, 42, 64
6, 20940, Note_on_c, 9, 56, 115
6, 20990, Note_off_c, 9, 56, 64
6, 21000, Note_on_c, 9, 42, 100
6, 21000, Note_on_c, 9, 63, 90
6, 21050, Note_off_c, 9, 63, 64
6, 21050, Note_off_c, 9, 42, 64
6, 21060, Note_on_c, 9, 56, 100
6, 21110, Note_off_c, 9, 56, 64
6, 21120, Note_on_c, 9, 42, 115
6, 21120, Note_on_c, 9, 56, 90
6, 21120, Note_on_c, 9, 62, 80
6, 21170, Note_off_c, 9, 62, 64
6, 21170, Note_off_c, 9, 56, 64
6, 21170, Note_off_c, 9, 42, 64
6, 21240, Note_on_c, 9, 42, 100
6, 21240, Note_on_c, 9, 62, 90
6, 21290, Note_off_c, 9, 62, 64
6, 21290, Note_off_c, 9, 42, 64
6, 21360, Note_on_c, 9, 42, 90
6, 21360, Note_on_c, 9, 56, 90
6, 21360, Note_on_c, 9, 63, 108
6, 21410, Note_off_c, 9, 63, 64
6, 21410, Note_off_c, 9, 56, 64
6, 21410, Note_off_c, 9, 42, 64
6, 21480, Note_on_c, 9, 42, 115
6, 21480, Note_on_c, 9, 63, 100
6, 21530, Note_off_c, 9, 63, 64
6, 21530, Note_off_c, 9, 42, 64
6, 21600, Note_on_c, 9, 42, 100
6, 21600, Note_on_c, 9, 56, 90
6, 21600, Note_on_c, 9, 63, 90
6, 21650, Note_off_c, 9, 63, 64
6, 21650, Note_off_c, 9, 56, 64
6, 21650, Note_off_c, 9, 42, 64
6, 21720, Note_on_c, 9, 42, 90
6, 21720, Note_on_c, 9, 62, 100
6, 21770, Note_off_c, 9, 62, 64
6, 21770, Note_off_c, 9, 42, 64
6, 21840, Note_on_c, 9, 42, 115
6, 21840, Note_on_c, 9, 56, 90
6, 21840, Note_on_c, 9, 63, 115
6, 21890, Note_off_c, 9, 63, 64
6, 21890, Note_off_c, 9, 56, 64
6, 21890, Note_off_c, 9, 42, 64
6, 21960, Note_on_c, 9, 42, 100
6, 21960, Note_on_c, 9, 63, 90
6, 22010, Note_off_c, 9, 63, 64
6, 22010, Note_off_c, 9, 42, 64
6, 22080, Note_on_c, 9, 42, 115
6, 22080, Note_on_c, 9, 56, 90
6, 22080, Note_on_c, 9, 62, 80
6, 22130, Note_off_c, 9, 62, 64
6, 22130, Note_off_c, 9, 56, 64
6, 22130, Note_off_c, 9, 42, 64
6, 22200, Note_on_c, 9, 42, 100
6, 22200, Note_on_c, 9, 63, 90
6, 22250, Note_off_c, 9, 63, 64
6, 22250, Note_off_c, 9, 42, 64
6, 22320, Note_on_c, 9, 42, 90
6, 22320, Note_on_c, 9, 56, 90
6, 22320, Note_on_c, 9, 62, 100
6, 22370, Note_off_c, 9, 62, 64
6, 22370, Note_off_c, 9, 56, 64
6, 22370, Note_off_c, 9, 42, 64
6, 22440, Note_on_c, 9, 42, 115
6, 22440, Note_on_c, 9, 63, 100
6, 22490, Note_off_c, 9, 63, 64
6, 22490, Note_off_c, 9, 42, 64
6, 22560, Note_on_c, 9, 42, 100
6, 22560, Note_on_c, 9, 56, 90
6, 22560, Note_on_c, 9, 63, 90
6, 22610, Note_off_c, 9, 63, 64
6, 22610, Note_off_c, 9, 56, 64
6, 22610, Note_off_c, 9, 42, 64
6, 22680, Note_on_c, 9, 42, 90
6, 22680, Note_on_c, 9, 62, 100
6, 22730, Note_off_c, 9, 62, 64
6, 22730, Note_off_c, 9, 42, 64
6, 22800, Note_on_c, 9, 42, 115
6, 22800, Note_on_c, 9, 56, 90
6, 22800, Note_on_c, 9, 63, 115
6, 22850, Note_off_c, 9, 63, 64
6, 22850, Note_off_c, 9, 56, 64
6, 22850, Note_off_c, 9, 42, 64
6, 22920, Note_on_c, 9, 42, 100
6, 22920, Note_on_c, 9, 63, 90
6, 22970, Note_off_c, 9, 63, 64
6, 22970, Note_off_c, 9, 42, 64
6, 23040, Note_on_c, 9, 42, 115
6, 23040, Note_on_c, 9, 56, 90
6, 23040, Note_on_c, 9, 62, 80
6, 23090, Note_off_c, 9, 62, 64
6, 23090, Note_off_c, 9, 56, 64
6, 23090, Note_off_c, 9, 42, 64
6, 23160, Note_on_c, 9, 42, 100
6, 23160, Note_on_c, 9, 62, 90
6, 23210, Note_off_c, 9, 62, 64
6, 23210, Note_off_c, 9, 42, 64
6, 23280, Note_on_c, 9, 42, 90
6, 23280, Note_on_c, 9, 56, 90
6, 23280, Note_on_c, 9, 62, 100
6, 23330, Note_off_c, 9, 62, 64
6, 23330, Note_off_c, 9, 56, 64
6, 23330, Note_off_c, 9, 42, 64
6, 23400, Note_on_c, 9, 42, 115
6, 23400, Note_on_c, 9, 63, 100
6, 23450, Note_off_c, 9, 63, 64
6, 23450, Note_off_c, 9, 42, 64
6, 23520, Note_on_c, 9, 42, 100
6, 23520, Note_on_c, 9, 56, 90
6, 23520, Note_on_c, 9, 63, 90
6, 23570, Note_off_c, 9, 63, 64
6, 23570, Note_off_c, 9, 56, 64
6, 23570, Note_off_c, 9, 42, 64
6, 23640, Note_on_c, 9, 42, 90
6, 23640, Note_on_c, 9, 62, 100
6, 23690, Note_off_c, 9, 62, 64
6, 23690, Note_off_c, 9, 42, 64
6, 23760, Note_on_c, 9, 42, 115
6, 23760, Note_on_c, 9, 56, 90
6, 23760, Note_on_c, 9, 63, 115
6, 23810, Note_off_c, 9, 63, 64
6, 23810, Note_off_c, 9, 56, 64
6, 23810, Note_off_c, 9, 42, 64
6, 23880, Note_on_c, 9, 42, 100
6, 23880, Note_on_c, 9, 56, 70
6, 23880, Note_on_c, 9, 63, 90
6, 23930, Note_off_c, 9, 63, 64
6, 23930, Note_off_c, 9, 56, 64
6, 23930, Note_off_c, 9, 42, 64
6, 24000, Note_on_c, 9, 42, 115
6, 24000, Note_on_c, 9, 56, 90
6, 24000, Note_on_c, 9, 62, 80
6, 24050, Note_off_c, 9, 62, 64
6, 24050, Note_off_c, 9, 56, 64
6, 24050, Note_off_c, 9, 42, 64
6, 24120, Note_on_c, 9, 42, 100
6, 24120, Note_on_c, 9, 62, 90
6, 24120, Note_on_c, 9, 65, 60
6, 24170, Note_off_c, 9, 65, 64
6, 24170, Note_off_c, 9, 62, 64
6, 24170, Note_off_c, 9, 42, 64
6, 24240, Note_on_c, 9, 42, 90
6, 24240, Note_on_c, 9, 56, 90
6, 24240, Note_on_c, 9, 63, 108
6, 24290, Note_off_c, 9, 63, 64
6, 24290, Note_off_c, 9, 56, 64
6, 24290, Note_off_c, 9, 42, 64
6, 24300, Note_on_c, 9, 63, 60
6, 24350, Note_off_c, 9, 63, 64
6, 24360, Note_on_c, 9, 42, 115
6, 24360, Note_on_c, 9, 63, 100
6, 24410, Note_off_c, 9, 63, 64
6, 24410, Note_off_c, 9, 42, 64
6, 24420, Note_on_c, 9, 63, 60
6, 24420, Note_on_c, 9, 65, 60
6, 24470, Note_off_c, 9, 65, 64
6, 24470, Note_off_c, 9, 63, 64
6, 24480, Note_on_c, 9, 42, 100
6, 24480, Note_on_c, 9, 56, 90
6, 24480, Note_on_c, 9, 63, 90
6, 24530, Note_off_c, 9, 63, 64
6, 24530, Note_off_c, 9, 56, 64
6, 24530, Note_off_c, 9, 42, 64
6, 24600, Note_on_c, 9, 42, 90
6, 24600, Note_on_c, 9, 62, 100
6, 24650, Note_off_c, 9, 62, 64
6, 24650, Note_off_c, 9, 42, 64
6, 24720, Note_on_c, 9, 42, 115
6, 24720, Note_on_c, 9, 56, 90
6, 24720, Note_on_c, 9, 63, 115
6, 24770, Note_off_c, 9, 63, 64
6, 24770, Note_off_c, 9, 56, 64
6, 24770, Note_off_c, 9, 42, 64
6, 24840, Note_on_c, 9, 42, 100
6, 24840, Note_on_c, 9, 56, 70
6, 24840, Note_on_c, 9, 63, 90
6, 24890, Note_off_c, 9, 63, 64
6, 24890, Note_off_c, 9, 56, 64
6, 24890, Note_off_c, 9, 42, 64
6, 24960, Note_on_c, 9, 42, 115
6, 24960, Note_on_c, 9, 56, 90
6, 24960, Note_on_c, 9, 62, 80
6, 25010, Note_off_c, 9, 62, 64
6, 25010, Note_off_c, 9, 56, 64
6, 25010, Note_off_c, 9, 42, 64
6, 25080, Note_on_c, 9, 42, 100
6, 25080, Note_on_c, 9, 62, 90
6, 25130, Note_off_c, 9, 62, 64
6, 25130, Note_off_c, 9, 42, 64
6, 25200, Note_on_c, 9, 42, 90
6, 25200, Note_on_c, 9, 56, 90
6, 25200, Note_on_c, 9, 62, 100
6, 25250, Note_off_c, 9, 62, 64
6, 25250, Note_off_c, 9, 56, 64
6, 25250, Note_off_c, 9, 42, 64
6, 25320, Note_on_c, 9, 42, 115
6, 25320, Note_on_c, 9, 63, 100
6, 25370, Note_off_c, 9, 63, 64
6, 25370, Note_off_c, 9, 42, 64
6, 25440, Note_on_c, 9, 42, 100
6, 25440, Note_on_c, 9, 56, 90
6, 25440, Note_on_c, 9, 63, 90
6, 25490, Note_off_c, 9, 63, 64
6, 25490, Note_off_c, 9, 56, 64
6, 25490, Note_off_c, 9, 42, 64
6, 25560, Note_on_c, 9, 42, 90
6, 25560, Note_on_c, 9, 62, 100
6, 25610, Note_off_c, 9, 62, 64
6, 25610, Note_off_c, 9, 42, 64
6, 25680, Note_on_c, 9, 42, 115
6, 25680, Note_on_c, 9, 56, 90
6, 25680, Note_on_c, 9, 63, 115
6, 25730, Note_off_c, 9, 63, 64
6, 25730, Note_off_c, 9, 56, 64
6, 25730, Note_off_c, 9, 42, 64
6, 25800, Note_on_c, 9, 42, 100
6, 25800, Note_on_c, 9, 63, 90
6, 25850, Note_off_c, 9, 63, 64
6, 25850, Note_off_c, 9, 42, 64
6, 25920, Note_on_c, 9, 42, 115
6, 25920, Note_on_c, 9, 56, 90
6, 25920, Note_on_c, 9, 62, 80
6, 25970, Note_off_c, 9, 62, 64
6, 25970, Note_off_c, 9, 56, 64
6, 25970, Note_off_c, 9, 42, 64
6, 26040, Note_on_c, 9, 42, 100
6, 26040, Note_on_c, 9, 62, 90
6, 26090, Note_off_c, 9, 62, 64
6, 26090, Note_off_c, 9, 42, 64
6, 26160, Note_on_c, 9, 42, 90
6, 26160, Note_on_c, 9, 56, 90
6, 26160, Note_on_c, 9, 62, 100
6, 26210, Note_off_c, 9, 62, 64
6, 26210, Note_off_c, 9, 56, 64
6, 26210, Note_off_c, 9, 42, 64
6, 26280, Note_on_c, 9, 42, 115
6, 26280, Note_on_c, 9, 63, 100
6, 26330, Note_off_c, 9, 63, 64
6, 26330, Note_off_c, 9, 42, 64
6, 26400, Note_on_c, 9, 42, 100
6, 26400, Note_on_c, 9, 56, 90
6, 26400, Note_on_c, 9, 63, 90
6, 26450, Note_off_c, 9, 63, 64
6, 26450, Note_off_c, 9, 56, 64
6, 26450, Note_off_c, 9, 42, 64
6, 26520, Note_on_c, 9, 42, 90
6, 26520, Note_on_c, 9, 62, 100
6, 26570, Note_off_c, 9, 62, 64
6, 26570, Note_off_c, 9, 42, 64
6, 26640, Note_on_c, 9, 42, 115
6, 26640, Note_on_c, 9, 56, 90
6, 26640, Note_on_c, 9, 63, 115
6, 26690, Note_off_c, 9, 63, 64
6, 26690, Note_off_c, 9, 56, 64
6, 26690, Note_off_c, 9, 42, 64
6, 26760, Note_on_c, 9, 42, 100
6, 26760, Note_on_c, 9, 63, 90
6, 26810, Note_off_c, 9, 63, 64
6, 26810, Note_off_c, 9, 42, 64
6, 26880, Note_on_c, 9, 42, 115
6, 26880, Note_on_c, 9, 56, 90
6, 26880, Note_on_c, 9, 62, 80
6, 26930, Note_off_c, 9, 62, 64
6, 26930, Note_off_c, 9, 56, 64
6, 26930, Note_off_c, 9, 42, 64
6, 27000, Note_on_c, 9, 42, 100
6, 27000, Note_on_c, 9, 62, 90
6, 27050, Note_off_c, 9, 62, 64
6, 27050, Note_off_c, 9, 42, 64
6, 27120, Note_on_c, 9, 42, 90
6, 27120, Note_on_c, 9, 56, 90
6, 27120, Note_on_c, 9, 62, 100
6, 27170, Note_off_c, 9, 62, 64
6, 27170, Note_off_c, 9, 56, 64
6, 27170, Note_off_c, 9, 42, 64
6, 27240, Note_on_c, 9, 42, 115
6, 27240, Note_on_c, 9, 63, 100
6, 27290, Note_off_c, 9, 63, 64
6, 27290, Note_off_c, 9, 42, 64
6, 27360, Note_on_c, 9, 42, 100
6, 27360, Note_on_c, 9, 56, 90
6, 27360, Note_on_c, 9, 63, 90
6, 27410, Note_off_c, 9, 63, 64
6, 27410, Note_off_c, 9, 56, 64
6, 27410, Note_off_c, 9, 42, 64
6, 27480, Note_on_c, 9, 42, 90
6, 27480, Note_on_c, 9, 62, 100
6, 27530, Note_off_c, 9, 62, 64
6, 27530, Note_off_c, 9, 42, 64
6, 27600, Note_on_c, 9, 42, 115
6, 27600, Note_on_c, 9, 56, 90
6, 27600, Note_on_c, 9, 63, 115
6, 27650, Note_off_c, 9, 63, 64
6, 27650, Note_off_c, 9, 56, 64
6, 27650, Note_off_c, 9, 42, 64
6, 27720, Note_on_c, 9, 42, 100
6, 27720, Note_on_c, 9, 63, 90
6, 27770, Note_off_c, 9, 63, 64
6, 27770, Note_off_c, 9, 42, 64
6, 27840, Note_on_c, 9, 42, 115
6, 27840, Note_on_c, 9, 56, 90
6, 27840, Note_on_c, 9, 62, 80
6, 27890, Note_off_c, 9, 62, 64
6, 27890, Note_off_c, 9, 56, 64
6, 27890, Note_off_c, 9, 42, 64
6, 27960, Note_on_c, 9, 42, 100
6, 27960, Note_on_c, 9, 63, 90
6, 28010, Note_off_c, 9, 63, 64
6, 28010, Note_off_c, 9, 42, 64
6, 28080, Note_on_c, 9, 42, 90
6, 28080, Note_on_c, 9, 56, 90
6, 28080, Note_on_c, 9, 62, 127
6, 28130, Note_off_c, 9, 62, 64
6, 28130, Note_off_c, 9, 56, 64
6, 28130, Note_off_c, 9, 42, 64
6, 28140, Note_on_c, 9, 62, 115
6, 28190, Note_off_c, 9, 62, 64
6, 28200, Note_on_c, 9, 42, 115
6, 28200, Note_on_c, 9, 62, 100
6, 28250, Note_off_c, 9, 62, 64
6, 28250, Note_off_c, 9, 42, 64
6, 28260, Note_on_c, 9, 63, 90
6, 28310, Note_off_c, 9, 63, 64
6, 28320, Note_on_c, 9, 42, 100
6, 28320, Note_on_c, 9, 56, 90
6, 28320, Note_on_c, 9, 63, 90
6, 28370, Note_off_c, 9, 63, 64
6, 28370, Note_off_c, 9, 56, 64
6, 28370, Note_off_c, 9, 42, 64
6, 28440, Note_on_c, 9, 42, 90
6, 28440, Note_on_c, 9, 62, 100
6, 28490, Note_off_c, 9, 62, 64
6, 28490, Note_off_c, 9, 42, 64
6, 28560, Note_on_c, 9, 42, 115
6, 28560, Note_on_c, 9, 56, 90
6, 28560, Note_on_c, 9, 63, 127
6, 28610, Note_off_c, 9, 63, 64
6, 28610, Note_off_c, 9, 56, 64
6, 28610, Note_off_c, 9, 42, 64
6, 28620, Note_on_c, 9, 63, 115
6, 28670, Note_off_c, 9, 63, 64
6, 28680, Note_on_c, 9, 42, 100
6, 28680, Note_on_c, 9, 56, 70
6, 28680, Note_on_c, 9, 63, 100
6, 28730, Note_off_c, 9, 63, 64
6, 28730, Note_off_c, 9, 56, 64
6, 28730, Note_off_c, 9, 42, 64
6, 28740, Note_on_c, 9, 63, 90
6, 28790, Note_off_c, 9, 63, 64
6, 28800, Note_on_c, 9, 42, 115
6, 28800, Note_on_c, 9, 56, 90
6, 28800, Note_on_c, 9, 62, 80
6, 28850, Note_off_c, 9, 62, 64
6, 28850, Note_off_c, 9, 56, 64
6, 28850, Note_off_c, 9, 42, 64
6, 28920, Note_on_c, 9, 42, 100
6, 28920, Note_on_c, 9, 63, 90
6, 28970, Note_off_c, 9, 63, 64
6, 28970, Note_off_c, 9, 42, 64
6, 29040, Note_on_c, 9, 42, 90
6, 29040, Note_on_c, 9, 56, 90
6, 29040, Note_on_c, 9, 62, 100
6, 29090, Note_off_c, 9, 62, 64
6, 29090, Note_off_c, 9, 56, 64
6, 29090, Note_off_c, 9, 42, 64
6, 29160, Note_on_c, 9, 42, 115
6, 29160, Note_on_c, 9, 63, 100
6, 29210, Note_off_c, 9, 63, 64
6, 29210, Note_off_c, 9, 42, 64
6, 29280, Note_on_c, 9, 42, 100
6, 29280, Note_on_c, 9, 56, 90
6, 29280, Note_on_c, 9, 63, 90
6, 29330, Note_off_c, 9, 63, 64
6, 29330, Note_off_c, 9, 56, 64
6, 29330, Note_off_c, 9, 42, 64
6, 29400, Note_on_c, 9, 42, 90
6, 29400, Note_on_c, 9, 63, 90
6, 29450, Note_off_c, 9, 63, 64
6, 29450, Note_off_c, 9, 42, 64
6, 29520, Note_on_c, 9, 42, 115
6, 29520, Note_on_c, 9, 56, 90
6, 29520, Note_on_c, 9, 63, 115
6, 29570, Note_off_c, 9, 63, 64
6, 29570, Note_off_c, 9, 56, 64
6, 29570, Note_off_c, 9, 42, 64
6, 29640, Note_on_c, 9, 42, 100
6, 29640, Note_on_c, 9, 56, 70
6, 29640, Note_on_c, 9, 63, 90
6, 29690, Note_off_c, 9, 63, 64
6, 29690, Note_off_c, 9, 56, 64
6, 29690, Note_off_c, 9, 42, 64
6, 29760, Note_on_c, 9, 42, 115
6, 29760, Note_on_c, 9, 56, 90
6, 29760, Note_on_c, 9, 62, 80
6, 29810, Note_off_c, 9, 62, 64
6, 29810, Note_off_c, 9, 56, 64
6, 29810, Note_off_c, 9, 42, 64
6, 29880, Note_on_c, 9, 42, 100
6, 29880, Note_on_c, 9, 62, 90
6, 29930, Note_off_c, 9, 62, 64
6, 29930, Note_off_c, 9, 42, 64
6, 30000, Note_on_c, 9, 42, 90
6, 30000, Note_on_c, 9, 56, 90
6, 30000, Note_on_c, 9, 62, 100
6, 30050, Note_off_c, 9, 62, 64
6, 30050, Note_off_c, 9, 56, 64
6, 30050, Note_off_c, 9, 42, 64
6, 30120, Note_on_c, 9, 42, 115
6, 30120, Note_on_c, 9, 63, 100
6, 30170, Note_off_c, 9, 63, 64
6, 30170, Note_off_c, 9, 42, 64
6, 30240, Note_on_c, 9, 42, 100
6, 30240, Note_on_c, 9, 56, 90
6, 30240, Note_on_c, 9, 63, 90
6, 30290, Note_off_c, 9, 63, 64
6, 30290, Note_off_c, 9, 56, 64
6, 30290, Note_off_c, 9, 42, 64
6, 30360, Note_on_c, 9, 42, 90
6, 30360, Note_on_c, 9, 63, 90
6, 30410, Note_off_c, 9, 63, 64
6, 30410, Note_off_c, 9, 42, 64
6, 30480, Note_on_c, 9, 42, 115
6, 30480, Note_on_c, 9, 56, 90
6, 30480, Note_on_c, 9, 63, 115
6, 30530, Note_off_c, 9, 63, 64
6, 30530, Note_off_c, 9, 56, 64
6, 30530, Note_off_c, 9, 42, 64
6, 30600, Note_on_c, 9, 42, 100
6, 30600, Note_on_c, 9, 63, 90
6, 30650, Note_off_c, 9, 63, 64
6, 30650, Note_off_c, 9, 42, 64
6, 30720, Note_on_c, 9, 42, 115
6, 30720, Note_on_c, 9, 56, 90
6, 30720, Note_on_c, 9, 62, 80
6, 30770, Note_off_c, 9, 62, 64
6, 30770, Note_off_c, 9, 56, 64
6, 30770, Note_off_c, 9, 42, 64
6, 30840, Note_on_c, 9, 42, 100
6, 30840, Note_on_c, 9, 63, 90
6, 30890, Note_off_c, 9, 63, 64
6, 30890, Note_off_c, 9, 42, 64
6, 30960, Note_on_c, 9, 42, 90
6, 30960, Note_on_c, 9, 56, 90
6, 30960, Note_on_c, 9, 63, 108
6, 31010, Note_off_c, 9, 63, 64
6, 31010, Note_off_c, 9, 56, 64
6, 31010, Note_off_c, 9, 42, 64
6, 31080, Note_on_c, 9, 42, 115
6, 31080, Note_on_c, 9, 63, 100
6, 31130, Note_off_c, 9, 63, 64
6, 31130, Note_off_c, 9, 42, 64
6, 31200, Note_on_c, 9, 42, 100
6, 31200, Note_on_c, 9, 56, 90
6, 31200, Note_on_c, 9, 63, 90
6, 31250, Note_off_c, 9, 63, 64
6, 31250, Note_off_c, 9, 56, 64
6, 31250, Note_off_c, 9, 42, 64
6, 31320, Note_on_c, 9, 42, 90
6, 31320, Note_on_c, 9, 63, 90
6, 31370, Note_off_c, 9, 63, 64
6, 31370, Note_off_c, 9, 42, 64
6, 31380, Note_on_c, 9, 63, 70
6, 31430, Note_off_c, 9, 63, 64
6, 31440, Note_on_c, 9, 42, 115
6, 31440, Note_on_c, 9, 56, 90
6, 31440, Note_on_c, 9, 63, 115
6, 31490, Note_off_c, 9, 63, 64
6, 31490, Note_off_c, 9, 56, 64
6, 31490, Note_off_c, 9, 42, 64
6, 31560, Note_on_c, 9, 42, 100
6, 31560, Note_on_c, 9, 63, 90
6, 31610, Note_off_c, 9, 63, 64
6, 31610, Note_off_c, 9, 42, 64
6, 31680, Note_on_c, 9, 42, 115
6, 31680, Note_on_c, 9, 56, 90
6, 31680, Note_on_c, 9, 62, 80
6, 31730, Note_off_c, 9, 62, 64
6, 31730, Note_off_c, 9, 56, 64
6, 31730, Note_off_c, 9, 42, 64
6, 31800, Note_on_c, 9, 42, 100
6, 31800, Note_on_c, 9, 62, 90
6, 31850, Note_off_c, 9, 62, 64
6, 31850, Note_off_c, 9, 42, 64
6, 31920, Note_on_c, 9, 42, 127
6, 31920, Note_on_c, 9, 56, 90
6, 31920, Note_on_c, 9, 63, 108
6, 31970, Note_off_c, 9, 63, 64
6, 31970, Note_off_c, 9, 56, 64
6, 31970, Note_off_c, 9, 42, 64
6, 31980, Note_on_c, 9, 42, 115
6, 31980, Note_on_c, 9, 63, 60
6, 32030, Note_off_c, 9, 63, 64
6, 32030, Note_off_c, 9, 42, 64
6, 32040, Note_on_c, 9, 42, 100
6, 32040, Note_on_c, 9, 63, 100
6, 32090, Note_off_c, 9, 63, 64
6, 32090, Note_off_c, 9, 42, 64
6, 32100, Note_on_c, 9, 42, 90
6, 32100, Note_on_c, 9, 63, 60
6, 32150, Note_off_c, 9, 63, 64
6, 32150, Note_off_c, 9, 42, 64
6, 32160, Note_on_c, 9, 42, 115
6, 32160, Note_on_c, 9, 56, 90
6, 32160, Note_on_c, 9, 63, 90
6, 32210, Note_off_c, 9, 63, 64
6, 32210, Note_off_c, 9, 56, 64
6, 32210, Note_off_c, 9, 42, 64
6, 32280, Note_on_c, 9, 42, 90
6, 32280, Note_on_c, 9, 62, 100
6, 32330, Note_off_c, 9, 62, 64
6, 32330, Note_off_c, 9, 42, 64
6, 32400, Note_on_c, 9, 42, 115
6, 32400, Note_on_c, 9, 56, 90
6, 32400, Note_on_c, 9, 63, 115
6, 32450, Note_off_c, 9, 63, 64
6, 32450, Note_off_c, 9, 56, 64
6, 32450, Note_off_c, 9, 42, 64
6, 32520, Note_on_c, 9, 42, 100
6, 32520, Note_on_c, 9, 56, 70
6, 32520, Note_on_c, 9, 63, 90
6, 32570, Note_off_c, 9, 63, 64
6, 32570, Note_off_c, 9, 56, 64
6, 32570, Note_off_c, 9, 42, 64
6, 32640, Note_on_c, 9, 42, 115
6, 32640, Note_on_c, 9, 56, 90
6, 32640, Note_on_c, 9, 62, 80
6, 32690, Note_off_c, 9, 62, 64
6, 32690, Note_off_c, 9, 56, 64
6, 32690, Note_off_c, 9, 42, 64
6, 32760, Note_on_c, 9, 42, 100
6, 32760, Note_on_c, 9, 62, 90
6, 32810, Note_off_c, 9, 62, 64
6, 32810, Note_off_c, 9, 42, 64
6, 32880, Note_on_c, 9, 42, 90
6, 32880, Note_on_c, 9, 56, 90
6, 32880, Note_on_c, 9, 62, 100
6, 32930, Note_off_c, 9, 62, 64
6, 32930, Note_off_c, 9, 56, 64
6, 32930, Note_off_c, 9, 42, 64
6, 33000, Note_on_c, 9, 42, 115
6, 33000, Note_on_c, 9, 63, 100
6, 33050, Note_off_c, 9, 63, 64
6, 33050, Note_off_c, 9, 42, 64
6, 33120, Note_on_c, 9, 42, 100
6, 33120, Note_on_c, 9, 56, 90
6, 33120, Note_on_c, 9, 63, 90
6, 33170, Note_off_c, 9, 63, 64
6, 33170, Note_off_c, 9, 56, 64
6, 33170, Note_off_c, 9, 42, 64
6, 33240, Note_on_c, 9, 42, 90
6, 33240, Note_on_c, 9, 63, 90
6, 33290, Note_off_c, 9, 63, 64
6, 33290, Note_off_c, 9, 42, 64
6, 33360, Note_on_c, 9, 42, 115
6, 33360, Note_on_c, 9, 56, 90
6, 33360, Note_on_c, 9, 63, 115
6, 33410, Note_off_c, 9, 63, 64
6, 33410, Note_off_c, 9, 56, 64
6, 33410, Note_off_c, 9, 42, 64
6, 33480, Note_on_c, 9, 42, 100
6, 33480, Note_on_c, 9, 63, 90
6, 33530, Note_off_c, 9, 63, 64
6, 33530, Note_off_c, 9, 42, 64
6, 33600, Note_on_c, 9, 42, 115
6, 33600, Note_on_c, 9, 56, 90
6, 33600, Note_on_c, 9, 62, 80
6, 33650, Note_off_c, 9, 62, 64
6, 33650, Note_off_c, 9, 56, 64
6, 33650, Note_off_c, 9, 42, 64
6, 33720, Note_on_c, 9, 42, 100
6, 33720, Note_on_c, 9, 63, 90
6, 33770, Note_off_c, 9, 63, 64
6, 33770, Note_off_c, 9, 42, 64
6, 33840, Note_on_c, 9, 42, 90
6, 33840, Note_on_c, 9, 56, 90
6, 33840, Note_on_c, 9, 62, 100
6, 33890, Note_off_c, 9, 62, 64
6, 33890, Note_off_c, 9, 56, 64
6, 33890, Note_off_c, 9, 42, 64
6, 33960, Note_on_c, 9, 42, 115
6, 33960, Note_on_c, 9, 63, 100
6, 34010, Note_off_c, 9, 63, 64
6, 34010, Note_off_c, 9, 42, 64
6, 34080, Note_on_c, 9, 42, 100
6, 34080, Note_on_c, 9, 56, 90
6, 34080, Note_on_c, 9, 63, 90
6, 34130, Note_off_c, 9, 63, 64
6, 34130, Note_off_c, 9, 56, 64
6, 34130, Note_off_c, 9, 42, 64
6, 34200, Note_on_c, 9, 42, 90
6, 34200, Note_on_c, 9, 63, 90
6, 34250, Note_off_c, 9, 63, 64
6, 34250, Note_off_c, 9, 42, 64
6, 34320, Note_on_c, 9, 42, 115
6, 34320, Note_on_c, 9, 56, 90
6, 34320, Note_on_c, 9, 63, 115
6, 34370, Note_off_c, 9, 63, 64
6, 34370, Note_off_c, 9, 56, 64
6, 34370, Note_off_c, 9, 42, 64
6, 34440, Note_on_c, 9, 42, 100
6, 34440, Note_on_c, 9, 63, 90
6, 34490, Note_off_c, 9, 63, 64
6, 34490, Note_off_c, 9, 42, 64
6, 34560, Note_on_c, 9, 42, 115
6, 34560, Note_on_c, 9, 56, 90
6, 34560, Note_on_c, 9, 62, 80
6, 34610, Note_off_c, 9, 62, 64
6, 34610, Note_off_c, 9, 56, 64
6, 34610, Note_off_c, 9, 42, 64
6, 34680, Note_on_c, 9, 42, 100
6, 34680, Note_on_c, 9, 62, 90
6, 34730, Note_off_c, 9, 62, 64
6, 34730, Note_off_c, 9, 42, 64
6, 34800, Note_on_c, 9, 42, 90
6, 34800, Note_on_c, 9, 56, 90
6, 34800, Note_on_c, 9, 62, 100
6, 34850, Note_off_c, 9, 62, 64
6, 34850, Note_off_c, 9, 56, 64
6, 34850, Note_off_c, 9, 42, 64
6, 34920, Note_on_c, 9, 42, 115
6, 34920, Note_on_c, 9, 63, 100
6, 34970, Note_off_c, 9, 63, 64
6, 34970, Note_off_c, 9, 42, 64
6, 35040, Note_on_c, 9, 42, 100
6, 35040, Note_on_c, 9, 56, 90
6, 35040, Note_on_c, 9, 63, 90
6, 35090, Note_off_c, 9, 63, 64
6, 35090, Note_off_c, 9, 56, 64
6, 35090, Note_off_c, 9, 42, 64
6, 35160, Note_on_c, 9, 42, 90
6, 35160, Note_on_c, 9, 62, 100
6, 35210, Note_off_c, 9, 62, 64
6, 35210, Note_off_c, 9, 42, 64
6, 35280, Note_on_c, 9, 42, 115
6, 35280, Note_on_c, 9, 56, 90
6, 35280, Note_on_c, 9, 63, 115
6, 35330, Note_off_c, 9, 63, 64
6, 35330, Note_off_c, 9, 56, 64
6, 35330, Note_off_c, 9, 42, 64
6, 35400, Note_on_c, 9, 42, 100
6, 35400, Note_on_c, 9, 56, 70
6, 35400, Note_on_c, 9, 63, 90
6, 35450, Note_off_c, 9, 63, 64
6, 35450, Note_off_c, 9, 56, 64
6, 35450, Note_off_c, 9, 42, 64
6, 35520, Note_on_c, 9, 42, 115
6, 35520, Note_on_c, 9, 56, 90
6, 35520, Note_on_c, 9, 62, 80
6, 35570, Note_off_c, 9, 62, 64
6, 35570, Note_off_c, 9, 56, 64
6, 35570, Note_off_c, 9, 42, 64
6, 35640, Note_on_c, 9, 42, 100
6, 35640, Note_on_c, 9, 62, 90
6, 35690, Note_off_c, 9, 62, 64
6, 35690, Note_off_c, 9, 42, 64
6, 35760, Note_on_c, 9, 42, 90
6, 35760, Note_on_c, 9, 56, 90
6, 35760, Note_on_c, 9, 63, 108
6, 35810, Note_off_c, 9, 63, 64
6, 35810, Note_off_c, 9, 56, 64
6, 35810, Note_off_c, 9, 42, 64
6, 35820, Note_on_c, 9, 63, 60
6, 35870, Note_off_c, 9, 63, 64
6, 35880, Note_on_c, 9, 42, 115
6, 35880, Note_on_c, 9, 63, 100
6, 35930, Note_off_c, 9, 63, 64
6, 35930, Note_off_c, 9, 42, 64
6, 36000, Note_on_c, 9, 42, 100
6, 36000, Note_on_c, 9, 56, 90
6, 36000, Note_on_c, 9, 63, 90
6, 36050, Note_off_c, 9, 63, 64
6, 36050, Note_off_c, 9, 56, 64
6, 36050, Note_off_c, 9, 42, 64
6, 36060, Note_on_c, 9, 63, 115
6, 36060, Note_on_c, 9, 65, 70
6, 36110, Note_off_c, 9, 65, 64
6, 36110, Note_off_c, 9, 63, 64
6, 36120, Note_on_c, 9, 42, 90
6, 36120, Note_on_c, 9, 63, 90
6, 36170, Note_off_c, 9, 63, 64
6, 36170, Note_off_c, 9, 42, 64
6, 36180, Note_on_c, 9, 62, 127
6, 36230, Note_off_c, 9, 62, 64
6, 36240, Note_on_c, 9, 42, 115
6, 36240, Note_on_c, 9, 56, 90
6, 36240, Note_on_c, 9, 63, 115
6, 36290, Note_off_c, 9, 63, 64
6, 36290, Note_off_c, 9, 56, 64
6, 36290, Note_off_c, 9, 42, 64
6, 36300, Note_on_c, 9, 63, 115
6, 36350, Note_off_c, 9, 63, 64
6, 36360, Note_on_c, 9, 42, 100
6, 36360, Note_on_c, 9, 56, 70
6, 36360, Note_on_c, 9, 63, 100
6, 36360, Note_on_c, 9, 65, 80
6, 36410, Note_off_c, 9, 65, 64
6, 36410, Note_off_c, 9, 63, 64
6, 36410, Note_off_c, 9, 56, 64
6, 36410, Note_off_c, 9, 42, 64
6, 36420, Note_on_c, 9, 63, 90
6, 36420, Note_on_c, 9, 65, 70
6, 36470, Note_off_c, 9, 65, 64
6, 36470, Note_off_c, 9, 63, 64
6, 36480, Note_on_c, 9, 56, 90
6, 36480, Note_on_c, 9, 62, 80
6, 36480, Note_on_c, 9, 69, 127
6, 36530, Note_off_c, 9, 69, 64
6, 36530, Note_off_c, 9, 62, 64
6, 36530, Note_off_c, 9, 56, 64
6, 36600, Note_on_c, 9, 63, 90
6, 36650, Note_off_c, 9, 63, 64
6, 36720, Note_on_c, 9, 56, 90
6, 36720, Note_on_c, 9, 63, 108
6, 36720, Note_on_c, 9, 69, 127
6, 36770, Note_off_c, 9, 69, 64
6, 36770, Note_off_c, 9, 63, 64
6, 36770, Note_off_c, 9, 56, 64
6, 36840, Note_on_c, 9, 63, 100
6, 36840, Note_on_c, 9, 69, 100
6, 36890, Note_off_c, 9, 69, 64
6, 36890, Note_off_c, 9, 63, 64
6, 36960, Note_on_c, 9, 56, 90
6, 36960, Note_on_c, 9, 63, 90
6, 36960, Note_on_c, 9, 69, 127
6, 37010, Note_off_c, 9, 69, 64
6, 37010, Note_off_c, 9, 63, 64
6, 37010, Note_off_c, 9, 56, 64
6, 37080, Note_on_c, 9, 63, 90
6, 37130, Note_off_c, 9, 63, 64
6, 37200, Note_on_c, 9, 56, 90
6, 37200, Note_on_c, 9, 63, 115
6, 37200, Note_on_c, 9, 69, 127
6, 37250, Note_off_c, 9, 69, 64
6, 37250, Note_off_c, 9, 63, 64
6, 37250, Note_off_c, 9, 56, 64
6, 37320, Note_on_c, 9, 63, 90
6, 37320, Note_on_c, 9, 69, 100
6, 37370, Note_off_c, 9, 69, 64
6, 37370, Note_off_c, 9, 63, 64
6, 37440, Note_on_c, 9, 56, 90
6, 37440, Note_on_c, 9, 62, 80
6, 37440, Note_on_c, 9, 69, 127
6, 37490, Note_off_c, 9, 69, 64
6, 37490, Note_off_c, 9, 62, 64
6, 37490, Note_off_c, 9, 56, 64
6, 37560, Note_on_c, 9, 62, 90
6, 37610, Note_off_c, 9, 62, 64
6, 37680, Note_on_c, 9, 56, 90
6, 37680, Note_on_c, 9, 62, 100
6, 37680, Note_on_c, 9, 69, 127
6, 37730, Note_off_c, 9, 69, 64
6, 37730, Note_off_c, 9, 62, 64
6, 37730, Note_off_c, 9, 56, 64
6, 37800, Note_on_c, 9, 63, 100
6, 37800, Note_on_c, 9, 69, 100
6, 37850, Note_off_c, 9, 69, 64
6, 37850, Note_off_c, 9, 63, 64
6, 37920, Note_on_c, 9, 56, 90
6, 37920, Note_on_c, 9, 63, 90
6, 37920, Note_on_c, 9, 69, 127
6, 37970, Note_off_c, 9, 69, 64
6, 37970, Note_off_c, 9, 63, 64
6, 37970, Note_off_c, 9, 56, 64
6, 38040, Note_on_c, 9, 63, 90
6, 38090, Note_off_c, 9, 63, 64
6, 38160, Note_on_c, 9, 56, 90
6, 38160, Note_on_c, 9, 63, 115
6, 38160, Note_on_c, 9, 69, 127
6, 38210, Note_off_c, 9, 69, 64
6, 38210, Note_off_c, 9, 63, 64
6, 38210, Note_off_c, 9, 56, 64
6, 38280, Note_on_c, 9, 63, 90
6, 38280, Note_on_c, 9, 69, 100
6, 38330, Note_off_c, 9, 69, 64
6, 38330, Note_off_c, 9, 63, 64
6, 38400, Note_on_c, 9, 56, 90
6, 38400, Note_on_c, 9, 62, 80
6, 38400, Note_on_c, 9, 69, 127
6, 38450, Note_off_c, 9, 69, 64
6, 38450, Note_off_c, 9, 62, 64
6, 38450, Note_off_c, 9, 56, 64
6, 38520, Note_on_c, 9, 63, 90
6, 38570, Note_off_c, 9, 63, 64
6, 38640, Note_on_c, 9, 56, 90
6, 38640, Note_on_c, 9, 63, 108
6, 38640, Note_on_c, 9, 69, 127
6, 38690, Note_off_c, 9, 69, 64
6, 38690, Note_off_c, 9, 63, 64
6, 38690, Note_off_c, 9, 56, 64
6, 38760, Note_on_c, 9, 63, 100
6, 38760, Note_on_c, 9, 69, 100
6, 38810, Note_off_c, 9, 69, 64
6, 38810, Note_off_c, 9, 63, 64
6, 38880, Note_on_c, 9, 56, 90
6, 38880, Note_on_c, 9, 63, 90
6, 38880, Note_on_c, 9, 69, 127
6, 38930, Note_off_c, 9, 69, 64
6, 38930, Note_off_c, 9, 63, 64
6, 38930, Note_off_c, 9, 56, 64
6, 39000, Note_on_c, 9, 63, 90
6, 39050, Note_off_c, 9, 63, 64
6, 39120, Note_on_c, 9, 56, 90
6, 39120, Note_on_c, 9, 63, 115
6, 39120, Note_on_c, 9, 69, 127
6, 39170, Note_off_c, 9, 69, 64
6, 39170, Note_off_c, 9, 63, 64
6, 39170, Note_off_c, 9, 56, 64
6, 39240, Note_on_c, 9, 63, 90
6, 39240, Note_on_c, 9, 69, 100
6, 39290, Note_off_c, 9, 69, 64
6, 39290, Note_off_c, 9, 63, 64
6, 39360, Note_on_c, 9, 56, 90
6, 39360, Note_on_c, 9, 62, 80
6, 39360, Note_on_c, 9, 69, 127
6, 39410, Note_off_c, 9, 69, 64
6, 39410, Note_off_c, 9, 62, 64
6, 39410, Note_off_c, 9, 56, 64
6, 39480, Note_on_c, 9, 62, 90
6, 39530, Note_off_c, 9, 62, 64
6, 39600, Note_on_c, 9, 56, 90
6, 39600, Note_on_c, 9, 62, 100
6, 39600, Note_on_c, 9, 69, 127
6, 39650, Note_off_c, 9, 69, 64
6, 39650, Note_off_c, 9, 62, 64
6, 39650, Note_off_c, 9, 56, 64
6, 39660, Note_on_c, 9, 63, 60
6, 39710, Note_off_c, 9, 63, 64
6, 39720, Note_on_c, 9, 63, 100
6, 39720, Note_on_c, 9, 69, 100
6, 39770, Note_off_c, 9, 69, 64
6, 39770, Note_off_c, 9, 63, 64
6, 39840, Note_on_c, 9, 56, 90
6, 39840, Note_on_c, 9, 63, 90
6, 39840, Note_on_c, 9, 69, 127
6, 39890, Note_off_c, 9, 69, 64
6, 39890, Note_off_c, 9, 63, 64
6, 39890, Note_off_c, 9, 56, 64
6, 39960, Note_on_c, 9, 63, 90
6, 40010, Note_off_c, 9, 63, 64
6, 40080, Note_on_c, 9, 56, 90
6, 40080, Note_on_c, 9, 63, 115
6, 40080, Note_on_c, 9, 69, 127
6, 40130, Note_off_c, 9, 69, 64
6, 40130, Note_off_c, 9, 63, 64
6, 40130, Note_off_c, 9, 56, 64
6, 40140, Note_on_c, 9, 69, 115
6, 40190, Note_off_c, 9, 69, 64
6, 40200, Note_on_c, 9, 56, 70
6, 40200, Note_on_c, 9, 63, 90
6, 40200, Note_on_c, 9, 69, 100
6, 40250, Note_off_c, 9, 69, 64
6, 40250, Note_off_c, 9, 63, 64
6, 40250, Note_off_c, 9, 56, 64
6, 40260, Note_on_c, 9, 69, 90
6, 40310, Note_off_c, 9, 69, 64
6, 40320, Note_on_c, 9, 56, 90
6, 40320, Note_on_c, 9, 62, 80
6, 40320, Note_on_c, 9, 69, 127
6, 40370, Note_off_c, 9, 69, 64
6, 40370, Note_off_c, 9, 62, 64
6, 40370, Note_off_c, 9, 56, 64
6, 40440, Note_on_c, 9, 63, 90
6, 40490, Note_off_c, 9, 63, 64
6, 40560, Note_on_c, 9, 56, 90
6, 40560, Note_on_c, 9, 62, 100
6, 40560, Note_on_c, 9, 69, 127
6, 40610, Note_off_c, 9, 69, 64
6, 40610, Note_off_c, 9, 62, 64
6, 40610, Note_off_c, 9, 56, 64
6, 40680, Note_on_c, 9, 63, 100
6, 40680, Note_on_c, 9, 69, 100
6, 40730, Note_off_c, 9, 69, 64
6, 40730, Note_off_c, 9, 63, 64
6, 40800, Note_on_c, 9, 56, 90
6, 40800, Note_on_c, 9, 63, 90
6, 40800, Note_on_c, 9, 69, 127
6, 40850, Note_off_c, 9, 69, 64
6, 40850, Note_off_c, 9, 63, 64
6, 40850, Note_off_c, 9, 56, 64
6, 40920, Note_on_c, 9, 62, 100
6, 40970, Note_off_c, 9, 62, 64
6, 41040, Note_on_c, 9, 56, 90
6, 41040, Note_on_c, 9, 63, 115
6, 41040, Note_on_c, 9, 69, 127
6, 41090, Note_off_c, 9, 69, 64
6, 41090, Note_off_c, 9, 63, 64
6, 41090, Note_off_c, 9, 56, 64
6, 41160, Note_on_c, 9, 63, 90
6, 41160, Note_on_c, 9, 69, 100
6, 41210, Note_off_c, 9, 69, 64
6, 41210, Note_off_c, 9, 63, 64
6, 41280, Note_on_c, 9, 56, 90
6, 41280, Note_on_c, 9, 62, 80
6, 41280, Note_on_c, 9, 69, 127
6, 41330, Note_off_c, 9, 69, 64
6, 41330, Note_off_c, 9, 62, 64
6, 41330, Note_off_c, 9, 56, 64
6, 41400, Note_on_c, 9, 62, 90
6, 41450, Note_off_c, 9, 62, 64
6, 41520, Note_on_c, 9, 56, 90
6, 41520, Note_on_c, 9, 62, 100
6, 41520, Note_on_c, 9, 69, 127
6, 41570, Note_off_c, 9, 69, 64
6, 41570, Note_off_c, 9, 62, 64
6, 41570, Note_off_c, 9, 56, 64
6, 41640, Note_on_c, 9, 63, 100
6, 41640, Note_on_c, 9, 69, 100
6, 41690, Note_off_c, 9, 69, 64
6, 41690, Note_off_c, 9, 63, 64
6, 41760, Note_on_c, 9, 56, 90
6, 41760, Note_on_c, 9, 63, 90
6, 41760, Note_on_c, 9, 69, 127
6, 41810, Note_off_c, 9, 69, 64
6, 41810, Note_off_c, 9, 63, 64
6, 41810, Note_off_c, 9, 56, 64
6, 41880, Note_on_c, 9, 62, 100
6, 41930, Note_off_c, 9, 62, 64
6, 42000, Note_on_c, 9, 56, 90
6, 42000, Note_on_c, 9, 63, 115
6, 42000, Note_on_c, 9, 69, 127
6, 42050, Note_off_c, 9, 69, 64
6, 42050, Note_off_c, 9, 63, 64
6, 42050, Note_off_c, 9, 56, 64
6, 42120, Note_on_c, 9, 56, 70
6, 42120, Note_on_c, 9, 63, 90
6, 42120, Note_on_c, 9, 69, 100
6, 42170, Note_off_c, 9, 69, 64
6, 42170, Note_off_c, 9, 63, 64
6, 42170, Note_off_c, 9, 56, 64
6, 42240, Note_on_c, 9, 56, 90
6, 42240, Note_on_c, 9, 62, 80
6, 42240, Note_on_c, 9, 69, 127
6, 42290, Note_off_c, 9, 69, 64
6, 42290, Note_off_c, 9, 62, 64
6, 42290, Note_off_c, 9, 56, 64
6, 42360, Note_on_c, 9, 62, 90
6, 42410, Note_off_c, 9, 62, 64
6, 42480, Note_on_c, 9, 56, 90
6, 42480, Note_on_c, 9, 62, 100
6, 42480, Note_on_c, 9, 69, 127
6, 42530, Note_off_c, 9, 69, 64
6, 42530, Note_off_c, 9, 62, 64
6, 42530, Note_off_c, 9, 56, 64
6, 42600, Note_on_c, 9, 63, 100
6, 42600, Note_on_c, 9, 69, 100
6, 42650, Note_off_c, 9, 69, 64
6, 42650, Note_off_c, 9, 63, 64
6, 42720, Note_on_c, 9, 56, 90
6, 42720, Note_on_c, 9, 63, 90
6, 42720, Note_on_c, 9, 69, 127
6, 42770, Note_off_c, 9, 69, 64
6, 42770, Note_off_c, 9, 63, 64
6, 42770, Note_off_c, 9, 56, 64
6, 42840, Note_on_c, 9, 62, 100
6, 42890, Note_off_c, 9, 62, 64
6, 42960, Note_on_c, 9, 56, 90
6, 42960, Note_on_c, 9, 63, 115
6, 42960, Note_on_c, 9, 69, 127
6, 43010, Note_off_c, 9, 69, 64
6, 43010, Note_off_c, 9, 63, 64
6, 43010, Note_off_c, 9, 56, 64
6, 43080, Note_on_c, 9, 56, 70
6, 43080, Note_on_c, 9, 63, 90
6, 43080, Note_on_c, 9, 69, 100
6, 43130, Note_off_c, 9, 69, 64
6, 43130, Note_off_c, 9, 63, 64
6, 43130, Note_off_c, 9, 56, 64
6, 43200, Note_on_c, 9, 56, 90
6, 43200, Note_on_c, 9, 62, 80
6, 43200, Note_on_c, 9, 69, 127
6, 43250, Note_off_c, 9, 69, 64
6, 43250, Note_off_c, 9, 62, 64
6, 43250, Note_off_c, 9, 56, 64
6, 43320, Note_on_c, 9, 62, 90
6, 43370, Note_off_c, 9, 62, 64
6, 43440, Note_on_c, 9, 56, 90
6, 43440, Note_on_c, 9, 62, 127
6, 43440, Note_on_c, 9, 69, 127
6, 43490, Note_off_c, 9, 69, 64
6, 43490, Note_off_c, 9, 62, 64
6, 43490, Note_off_c, 9, 56, 64
6, 43500, Note_on_c, 9, 62, 115
6, 43550, Note_off_c, 9, 62, 64
6, 43560, Note_on_c, 9, 62, 90
6, 43560, Note_on_c, 9, 69, 100
6, 43610, Note_off_c, 9, 69, 64
6, 43610, Note_off_c, 9, 62, 64
6, 43620, Note_on_c, 9, 63, 90
6, 43670, Note_off_c, 9, 63, 64
6, 43680, Note_on_c, 9, 56, 90
6, 43680, Note_on_c, 9, 63, 90
6, 43680, Note_on_c, 9, 69, 127
6, 43730, Note_off_c, 9, 69, 64
6, 43730, Note_off_c, 9, 63, 64
6, 43730, Note_off_c, 9, 56, 64
6, 43800, Note_on_c, 9, 62, 100
6, 43850, Note_off_c, 9, 62, 64
6, 43920, Note_on_c, 9, 56, 90
6, 43920, Note_on_c, 9, 63, 126
6, 43920, Note_on_c, 9, 69, 127
6, 43970, Note_off_c, 9, 69, 64
6, 43970, Note_off_c, 9, 63, 64
6, 43970, Note_off_c, 9, 56, 64
6, 43980, Note_on_c, 9, 63, 115
6, 44030, Note_off_c, 9, 63, 64
6, 44040, Note_on_c, 9, 56, 70
6, 44040, Note_on_c, 9, 63, 100
6, 44040, Note_on_c, 9, 69, 100
6, 44090, Note_off_c, 9, 69, 64
6, 44090, Note_off_c, 9, 63, 64
6, 44090, Note_off_c, 9, 56, 64
6, 44100, Note_on_c, 9, 63, 90
6, 44150, Note_off_c, 9, 63, 64
6, 44160, Note_on_c, 9, 56, 90
6, 44160, Note_on_c, 9, 62, 80
6, 44160, Note_on_c, 9, 69, 127
6, 44210, Note_off_c, 9, 69, 64
6, 44210, Note_off_c, 9, 62, 64
6, 44210, Note_off_c, 9, 56, 64
6, 44280, Note_on_c, 9, 63, 90
6, 44330, Note_off_c, 9, 63, 64
6, 44400, Note_on_c, 9, 56, 90
6, 44400, Note_on_c, 9, 63, 108
6, 44400, Note_on_c, 9, 69, 127
6, 44450, Note_off_c, 9, 69, 64
6, 44450, Note_off_c, 9, 63, 64
6, 44450, Note_off_c, 9, 56, 64
6, 44520, Note_on_c, 9, 63, 100
6, 44520, Note_on_c, 9, 69, 100
6, 44570, Note_off_c, 9, 69, 64
6, 44570, Note_off_c, 9, 63, 64
6, 44640, Note_on_c, 9, 56, 90
6, 44640, Note_on_c, 9, 63, 90
6, 44640, Note_on_c, 9, 69, 127
6, 44690, Note_off_c, 9, 69, 64
6, 44690, Note_off_c, 9, 63, 64
6, 44690, Note_off_c, 9, 56, 64
6, 44760, Note_on_c, 9, 62, 100
6, 44810, Note_off_c, 9, 62, 64
6, 44880, Note_on_c, 9, 56, 90
6, 44880, Note_on_c, 9, 63, 115
6, 44880, Note_on_c, 9, 69, 127
6, 44930, Note_off_c, 9, 69, 64
6, 44930, Note_off_c, 9, 63, 64
6, 44930, Note_off_c, 9, 56, 64
6, 45000, Note_on_c, 9, 56, 70
6, 45000, Note_on_c, 9, 63, 90
6, 45000, Note_on_c, 9, 69, 100
6, 45050, Note_off_c, 9, 69, 64
6, 45050, Note_off_c, 9, 63, 64
6, 45050, Note_off_c, 9, 56, 64
6, 45120, Note_on_c, 9, 56, 90
6, 45120, Note_on_c, 9, 62, 80
6, 45120, Note_on_c, 9, 69, 127
6, 45170, Note_off_c, 9, 69, 64
6, 45170, Note_off_c, 9, 62, 64
6, 45170, Note_off_c, 9, 56, 64
6, 45240, Note_on_c, 9, 63, 90
6, 45290, Note_off_c, 9, 63, 64
6, 45360, Note_on_c, 9, 56, 90
6, 45360, Note_on_c, 9, 63, 108
6, 45360, Note_on_c, 9, 69, 127
6, 45410, Note_off_c, 9, 69, 64
6, 45410, Note_off_c, 9, 63, 64
6, 45410, Note_off_c, 9, 56, 64
6, 45480, Note_on_c, 9, 63, 100
6, 45480, Note_on_c, 9, 69, 100
6, 45530, Note_off_c, 9, 69, 64
6, 45530, Note_off_c, 9, 63, 64
6, 45600, Note_on_c, 9, 56, 90
6, 45600, Note_on_c, 9, 63, 90
6, 45600, Note_on_c, 9, 69, 127
6, 45650, Note_off_c, 9, 69, 64
6, 45650, Note_off_c, 9, 63, 64
6, 45650, Note_off_c, 9, 56, 64
6, 45720, Note_on_c, 9, 62, 100
6, 45770, Note_off_c, 9, 62, 64
6, 45780, Note_on_c, 9, 62, 80
6, 45830, Note_off_c, 9, 62, 64
6, 45840, Note_on_c, 9, 56, 90
6, 45840, Note_on_c, 9, 63, 115
6, 45840, Note_on_c, 9, 69, 127
6, 45890, Note_off_c, 9, 69, 64
6, 45890, Note_off_c, 9, 63, 64
6, 45890, Note_off_c, 9, 56, 64
6, 45960, Note_on_c, 9, 63, 90
6, 45960, Note_on_c, 9, 69, 100
6, 46010, Note_off_c, 9, 69, 64
6, 46010, Note_off_c, 9, 63, 64
6, 46080, Note_on_c, 9, 56, 90
6, 46080, Note_on_c, 9, 62, 80
6, 46080, Note_on_c, 9, 69, 127
6, 46130, Note_off_c, 9, 69, 64
6, 46130, Note_off_c, 9, 62, 64
6, 46130, Note_off_c, 9, 56, 64
6, 46200, Note_on_c, 9, 62, 90
6, 46250, Note_off_c, 9, 62, 64
6, 46320, Note_on_c, 9, 56, 90
6, 46320, Note_on_c, 9, 63, 108
6, 46320, Note_on_c, 9, 69, 127
6, 46370, Note_off_c, 9, 69, 64
6, 46370, Note_off_c, 9, 63, 64
6, 46370, Note_off_c, 9, 56, 64
6, 46440, Note_on_c, 9, 63, 100
6, 46440, Note_on_c, 9, 69, 100
6, 46490, Note_off_c, 9, 69, 64
6, 46490, Note_off_c, 9, 63, 64
6, 46560, Note_on_c, 9, 56, 90
6, 46560, Note_on_c, 9, 63, 90
6, 46560, Note_on_c, 9, 69, 127
6, 46610, Note_off_c, 9, 69, 64
6, 46610, Note_off_c, 9, 63, 64
6, 46610, Note_off_c, 9, 56, 64
6, 46680, Note_on_c, 9, 62, 100
6, 46730, Note_off_c, 9, 62, 64
6, 46800, Note_on_c, 9, 56, 90
6, 46800, Note_on_c, 9, 63, 115
6, 46800, Note_on_c, 9, 69, 127
6, 46850, Note_off_c, 9, 69, 64
6, 46850, Note_off_c, 9, 63, 64
6, 46850, Note_off_c, 9, 56, 64
6, 46920, Note_on_c, 9, 63, 90
6, 46920, Note_on_c, 9, 69, 100
6, 46970, Note_off_c, 9, 69, 64
6, 46970, Note_off_c, 9, 63, 64
6, 47040, Note_on_c, 9, 56, 90
6, 47040, Note_on_c, 9, 62, 80
6, 47040, Note_on_c, 9, 69, 127
6, 47090, Note_off_c, 9, 69, 64
6, 47090, Note_off_c, 9, 62, 64
6, 47090, Note_off_c, 9, 56, 64
6, 47160, Note_on_c, 9, 62, 90
6, 47160, Note_on_c, 9, 65, 70
6, 47210, Note_off_c, 9, 65, 64
6, 47210, Note_off_c, 9, 62, 64
6, 47280, Note_on_c, 9, 56, 90
6, 47280, Note_on_c, 9, 62, 100
6, 47280, Note_on_c, 9, 69, 127
6, 47330, Note_off_c, 9, 69, 64
6, 47330, Note_off_c, 9, 62, 64
6, 47330, Note_off_c, 9, 56, 64
6, 47340, Note_on_c, 9, 65, 50
6, 47390, Note_off_c, 9, 65, 64
6, 47400, Note_on_c, 9, 63, 100
6, 47400, Note_on_c, 9, 65, 60
6, 47400, Note_on_c, 9, 69, 100
6, 47450, Note_off_c, 9, 69, 64
6, 47450, Note_off_c, 9, 65, 64
6, 47450, Note_off_c, 9, 63, 64
6, 47460, Note_on_c, 9, 63, 60
6, 47510, Note_off_c, 9, 63, 64
6, 47520, Note_on_c, 9, 56, 90
6, 47520, Note_on_c, 9, 63, 90
6, 47520, Note_on_c, 9, 69, 127
6, 47570, Note_off_c, 9, 69, 64
6, 47570, Note_off_c, 9, 63, 64
6, 47570, Note_off_c, 9, 56, 64
6, 47640, Note_on_c, 9, 62, 100
6, 47690, Note_off_c, 9, 62, 64
6, 47760, Note_on_c, 9, 56, 90
6, 47760, Note_on_c, 9, 63, 115
6, 47760, Note_on_c, 9, 69, 127
6, 47810, Note_off_c, 9, 69, 64
6, 47810, Note_off_c, 9, 63, 64
6, 47810, Note_off_c, 9, 56, 64
6, 47880, Note_on_c, 9, 56, 70
6, 47880, Note_on_c, 9, 63, 90
6, 47880, Note_on_c, 9, 65, 60
6, 47880, Note_on_c, 9, 69, 100
6, 47930, Note_off_c, 9, 69, 64
6, 47930, Note_off_c, 9, 65, 64
6, 47930, Note_off_c, 9, 63, 64
6, 47930, Note_off_c, 9, 56, 64
6, 48000, Note_on_c, 9, 56, 90
6, 48000, Note_on_c, 9, 62, 80
6, 48000, Note_on_c, 9, 69, 127
6, 48050, Note_off_c, 9, 69, 64
6, 48050, Note_off_c, 9, 62, 64
6, 48050, Note_off_c, 9, 56, 64
6, 48120, Note_on_c, 9, 63, 90
6, 48170, Note_off_c, 9, 63, 64
6, 48240, Note_on_c, 9, 56, 90
6, 48240, Note_on_c, 9, 63, 108
6, 48240, Note_on_c, 9, 69, 127
6, 48290, Note_off_c, 9, 69, 64
6, 48290, Note_off_c, 9, 63, 64
6, 48290, Note_off_c, 9, 56, 64
6, 48360, Note_on_c, 9, 63, 100
6, 48360, Note_on_c, 9, 69, 100
6, 48410, Note_off_c, 9, 69, 64
6, 48410, Note_off_c, 9, 63, 64
6, 48480, Note_on_c, 9, 56, 90
6, 48480, Note_on_c, 9, 63, 90
6, 48480, Note_on_c, 9, 69, 127
6, 48530, Note_off_c, 9, 69, 64
6, 48530, Note_off_c, 9, 63, 64
6, 48530, Note_off_c, 9, 56, 64
6, 48600, Note_on_c, 9, 62, 100
6, 48650, Note_off_c, 9, 62, 64
6, 48720, Note_on_c, 9, 56, 90
6, 48720, Note_on_c, 9, 63, 115
6, 48720, Note_on_c, 9, 69, 127
6, 48770, Note_off_c, 9, 69, 64
6, 48770, Note_off_c, 9, 63, 64
6, 48770, Note_off_c, 9, 56, 64
6, 48840, Note_on_c, 9, 63, 90
6, 48840, Note_on_c, 9, 69, 100
6, 48890, Note_off_c, 9, 69, 64
6, 48890, Note_off_c, 9, 63, 64
6, 48960, Note_on_c, 9, 56, 90
6, 48960, Note_on_c, 9, 62, 80
6, 48960, Note_on_c, 9, 69, 127
6, 49010, Note_off_c, 9, 69, 64
6, 49010, Note_off_c, 9, 62, 64
6, 49010, Note_off_c, 9, 56, 64
6, 49080, Note_on_c, 9, 62, 90
6, 49130, Note_off_c, 9, 62, 64
6, 49200, Note_on_c, 9, 56, 90
6, 49200, Note_on_c, 9, 62, 100
6, 49200, Note_on_c, 9, 69, 127
6, 49250, Note_off_c, 9, 69, 64
6, 49250, Note_off_c, 9, 62, 64
6, 49250, Note_off_c, 9, 56, 64
6, 49320, Note_on_c, 9, 63, 100
6, 49320, Note_on_c, 9, 69, 100
6, 49370, Note_off_c, 9, 69, 64
6, 49370, Note_off_c, 9, 63, 64
6, 49440, Note_on_c, 9, 56, 90
6, 49440, Note_on_c, 9, 63, 90
6, 49440, Note_on_c, 9, 69, 127
6, 49490, Note_off_c, 9, 69, 64
6, 49490, Note_off_c, 9, 63, 64
6, 49490, Note_off_c, 9, 56, 64
6, 49560, Note_on_c, 9, 63, 90
6, 49610, Note_off_c, 9, 63, 64
6, 49680, Note_on_c, 9, 56, 90
6, 49680, Note_on_c, 9, 63, 115
6, 49680, Note_on_c, 9, 69, 127
6, 49730, Note_off_c, 9, 69, 64
6, 49730, Note_off_c, 9, 63, 64
6, 49730, Note_off_c, 9, 56, 64
6, 49800, Note_on_c, 9, 56, 70
6, 49800, Note_on_c, 9, 63, 90
6, 49800, Note_on_c, 9, 69, 100
6, 49850, Note_off_c, 9, 69, 64
6, 49850, Note_off_c, 9, 63, 64
6, 49850, Note_off_c, 9, 56, 64
6, 49920, Note_on_c, 9, 56, 90
6, 49920, Note_on_c, 9, 62, 80
6, 49920, Note_on_c, 9, 69, 127
6, 49970, Note_off_c, 9, 69, 64
6, 49970, Note_off_c, 9, 62, 64
6, 49970, Note_off_c, 9, 56, 64
6, 50040, Note_on_c, 9, 62, 90
6, 50090, Note_off_c, 9, 62, 64
6, 50160, Note_on_c, 9, 56, 90
6, 50160, Note_on_c, 9, 62, 100
6, 50160, Note_on_c, 9, 69, 127
6, 50210, Note_off_c, 9, 69, 64
6, 50210, Note_off_c, 9, 62, 64
6, 50210, Note_off_c, 9, 56, 64
6, 50280, Note_on_c, 9, 63, 100
6, 50280, Note_on_c, 9, 69, 100
6, 50330, Note_off_c, 9, 69, 64
6, 50330, Note_off_c, 9, 63, 64
6, 50400, Note_on_c, 9, 56, 90
6, 50400, Note_on_c, 9, 63, 90
6, 50400, Note_on_c, 9, 69, 127
6, 50450, Note_off_c, 9, 69, 64
6, 50450, Note_off_c, 9, 63, 64
6, 50450, Note_off_c, 9, 56, 64
6, 50520, Note_on_c, 9, 62, 100
6, 50570, Note_off_c, 9, 62, 64
6, 50640, Note_on_c, 9, 56, 90
6, 50640, Note_on_c, 9, 63, 115
6, 50640, Note_on_c, 9, 69, 127
6, 50690, Note_off_c, 9, 69, 64
6, 50690, Note_off_c, 9, 63, 64
6, 50690, Note_off_c, 9, 56, 64
6, 50760, Note_on_c, 9, 63, 90
6, 50760, Note_on_c, 9, 69, 100
6, 50810, Note_off_c, 9, 69, 64
6, 50810, Note_off_c, 9, 63, 64
6, 50880, Note_on_c, 9, 56, 115
6, 50880, Note_on_c, 9, 62, 80
6, 50880, Note_on_c, 9, 69, 127
6, 50930, Note_off_c, 9, 69, 64
6, 50930, Note_off_c, 9, 62, 64
6, 50930, Note_off_c, 9, 56, 64
6, 51000, Note_on_c, 9, 42, 110
6, 51000, Note_on_c, 9, 62, 90
6, 51050, Note_off_c, 9, 62, 64
6, 51050, Note_off_c, 9, 42, 64
6, 51120, Note_on_c, 9, 56, 127
6, 51120, Note_on_c, 9, 62, 100
6, 51120, Note_on_c, 9, 69, 127
6, 51170, Note_off_c, 9, 69, 64
6, 51170, Note_off_c, 9, 62, 64
6, 51170, Note_off_c, 9, 56, 64
6, 51180, Note_on_c, 9, 56, 115
6, 51230, Note_off_c, 9, 56, 64
6, 51240, Note_on_c, 9, 56, 100
6, 51240, Note_on_c, 9, 63, 100
6, 51240, Note_on_c, 9, 69, 100
6, 51290, Note_off_c, 9, 69, 64
6, 51290, Note_off_c, 9, 63, 64
6, 51290, Note_off_c, 9, 56, 64
6, 51300, Note_on_c, 9, 56, 90
6, 51300, Note_on_c, 9, 63, 60
6, 51350, Note_off_c, 9, 63, 64
6, 51350, Note_off_c, 9, 56, 64
6, 51360, Note_on_c, 9, 56, 127
6, 51360, Note_on_c, 9, 63, 90
6, 51360, Note_on_c, 9, 69, 127
6, 51410, Note_off_c, 9, 69, 64
6, 51410, Note_off_c, 9, 63, 64
6, 51410, Note_off_c, 9, 56, 64
6, 51480, Note_on_c, 9, 56, 115
6, 51480, Note_on_c, 9, 62, 100
6, 51530, Note_off_c, 9, 62, 64
6, 51530, Note_off_c, 9, 56, 64
6, 51600, Note_on_c, 9, 63, 115
6, 51600, Note_on_c, 9, 69, 127
6, 51650, Note_off_c, 9, 69, 64
6, 51650, Note_off_c, 9, 63, 64
6, 51720, Note_on_c, 9, 56, 127
6, 51720, Note_on_c, 9, 63, 90
6, 51720, Note_on_c, 9, 69, 100
6, 51770, Note_off_c, 9, 69, 64
6, 51770, Note_off_c, 9, 63, 64
6, 51770, Note_off_c, 9, 56, 64
6, 51840, Note_on_c, 9, 56, 90
6, 51840, Note_on_c, 9, 62, 80
6, 51840, Note_on_c, 9, 69, 127
6, 51890, Note_off_c, 9, 69, 64
6, 51890, Note_off_c, 9, 62, 64
6, 51890, Note_off_c, 9, 56, 64
6, 51960, Note_on_c, 9, 62, 90
6, 52010, Note_off_c, 9, 62, 64
6, 52080, Note_on_c, 9, 56, 90
6, 52080, Note_on_c, 9, 62, 100
6, 52080, Note_on_c, 9, 69, 127
6, 52130, Note_off_c, 9, 69, 64
6, 52130, Note_off_c, 9, 62, 64
6, 52130, Note_off_c, 9, 56, 64
6, 52200, Note_on_c, 9, 63, 100
6, 52200, Note_on_c, 9, 69, 100
6, 52250, Note_off_c, 9, 69, 64
6, 52250, Note_off_c, 9, 63, 64
6, 52320, Note_on_c, 9, 56, 90
6, 52320, Note_on_c, 9, 63, 90
6, 52320, Note_on_c, 9, 69, 127
6, 52370, Note_off_c, 9, 69, 64
6, 52370, Note_off_c, 9, 63, 64
6, 52370, Note_off_c, 9, 56, 64
6, 52440, Note_on_c, 9, 62, 100
6, 52490, Note_off_c, 9, 62, 64
6, 52560, Note_on_c, 9, 56, 90
6, 52560, Note_on_c, 9, 63, 115
6, 52560, Note_on_c, 9, 69, 127
6, 52610, Note_off_c, 9, 69, 64
6, 52610, Note_off_c, 9, 63, 64
6, 52610, Note_off_c, 9, 56, 64
6, 52680, Note_on_c, 9, 56, 70
6, 52680, Note_on_c, 9, 63, 90
6, 52680, Note_on_c, 9, 69, 100
6, 52730, Note_off_c, 9, 69, 64
6, 52730, Note_off_c, 9, 63, 64
6, 52730, Note_off_c, 9, 56, 64
6, 52800, Note_on_c, 9, 56, 90
6, 52800, Note_on_c, 9, 62, 80
6, 52800, Note_on_c, 9, 69, 127
6, 52850, Note_off_c, 9, 69, 64
6, 52850, Note_off_c, 9, 62, 64
6, 52850, Note_off_c, 9, 56, 64
6, 52920, Note_on_c, 9, 62, 90
6, 52970, Note_off_c, 9, 62, 64
6, 53040, Note_on_c, 9, 56, 90
6, 53040, Note_on_c, 9, 62, 100
6, 53040, Note_on_c, 9, 69, 127
6, 53090, Note_off_c, 9, 69, 64
6, 53090, Note_off_c, 9, 62, 64
6, 53090, Note_off_c, 9, 56, 64
6, 53160, Note_on_c, 9, 63, 100
6, 53160, Note_on_c, 9, 69, 100
6, 53210, Note_off_c, 9, 69, 64
6, 53210, Note_off_c, 9, 63, 64
6, 53280, Note_on_c, 9, 56, 90
6, 53280, Note_on_c, 9, 63, 90
6, 53280, Note_on_c, 9, 69, 127
6, 53330, Note_off_c, 9, 69, 64
6, 53330, Note_off_c, 9, 63, 64
6, 53330, Note_off_c, 9, 56, 64
6, 53400, Note_on_c, 9, 62, 100
6, 53450, Note_off_c, 9, 62, 64
6, 53460, Note_on_c, 9, 62, 80
6, 53510, Note_off_c, 9, 62, 64
6, 53520, Note_on_c, 9, 56, 90
6, 53520, Note_on_c, 9, 63, 115
6, 53520, Note_on_c, 9, 69, 127
6, 53570, Note_off_c, 9, 69, 64
6, 53570, Note_off_c, 9, 63, 64
6, 53570, Note_off_c, 9, 56, 64
6, 53640, Note_on_c, 9, 63, 90
6, 53640, Note_on_c, 9, 69, 100
6, 53690, Note_off_c, 9, 69, 64
6, 53690, Note_off_c, 9, 63, 64
6, 53760, Note_on_c, 9, 56, 90
6, 53760, Note_on_c, 9, 62, 80
6, 53760, Note_on_c, 9, 69, 127
6, 53810, Note_off_c, 9, 69, 64
6, 53810, Note_off_c, 9, 62, 64
6, 53810, Note_off_c, 9, 56, 64
6, 53880, Note_on_c, 9, 62, 90
6, 53930, Note_off_c, 9, 62, 64
6, 54000, Note_on_c, 9, 56, 90
6, 54000, Note_on_c, 9, 63, 108
6, 54000, Note_on_c, 9, 69, 127
6, 54050, Note_off_c, 9, 69, 64
6, 54050, Note_off_c, 9, 63, 64
6, 54050, Note_off_c, 9, 56, 64
6, 54120, Note_on_c, 9, 63, 100
6, 54120, Note_on_c, 9, 69, 100
6, 54170, Note_off_c, 9, 69, 64
6, 54170, Note_off_c, 9, 63, 64
6, 54240, Note_on_c, 9, 56, 90
6, 54240, Note_on_c, 9, 63, 90
6, 54240, Note_on_c, 9, 69, 127
6, 54290, Note_off_c, 9, 69, 64
6, 54290, Note_off_c, 9, 63, 64
6, 54290, Note_off_c, 9, 56, 64
6, 54360, Note_on_c, 9, 62, 100
6, 54410, Note_off_c, 9, 62, 64
6, 54480, Note_on_c, 9, 56, 90
6, 54480, Note_on_c, 9, 63, 115
6, 54480, Note_on_c, 9, 69, 127
6, 54530, Note_off_c, 9, 69, 64
6, 54530, Note_off_c, 9, 63, 64
6, 54530, Note_off_c, 9, 56, 64
6, 54600, Note_on_c, 9, 63, 90
6, 54600, Note_on_c, 9, 69, 100
6, 54650, Note_off_c, 9, 69, 64
6, 54650, Note_off_c, 9, 63, 64
6, 54720, Note_on_c, 9, 56, 90
6, 54720, Note_on_c, 9, 62, 80
6, 54720, Note_on_c, 9, 69, 127
6, 54770, Note_off_c, 9, 69, 64
6, 54770, Note_off_c, 9, 62, 64
6, 54770, Note_off_c, 9, 56, 64
6, 54840, Note_on_c, 9, 62, 90
6, 54840, Note_on_c, 9, 65, 60
6, 54890, Note_off_c, 9, 65, 64
6, 54890, Note_off_c, 9, 62, 64
6, 54960, Note_on_c, 9, 56, 90
6, 54960, Note_on_c, 9, 62, 100
6, 54960, Note_on_c, 9, 69, 127
6, 55010, Note_off_c, 9, 69, 64
6, 55010, Note_off_c, 9, 62, 64
6, 55010, Note_off_c, 9, 56, 64
6, 55020, Note_on_c, 9, 63, 60
6, 55070, Note_off_c, 9, 63, 64
6, 55080, Note_on_c, 9, 63, 100
6, 55080, Note_on_c, 9, 69, 100
6, 55130, Note_off_c, 9, 69, 64
6, 55130, Note_off_c, 9, 63, 64
6, 55140, Note_on_c, 9, 63, 60
6, 55140, Note_on_c, 9, 65, 60
6, 55190, Note_off_c, 9, 65, 64
6, 55190, Note_off_c, 9, 63, 64
6, 55200, Note_on_c, 9, 56, 90
6, 55200, Note_on_c, 9, 63, 90
6, 55200, Note_on_c, 9, 69, 127
6, 55250, Note_off_c, 9, 69, 64
6, 55250, Note_off_c, 9, 63, 64
6, 55250, Note_off_c, 9, 56, 64
6, 55320, Note_on_c, 9, 63, 90
6, 55370, Note_off_c, 9, 63, 64
6, 55440, Note_on_c, 9, 56, 90
6, 55440, Note_on_c, 9, 63, 115
6, 55440, Note_on_c, 9, 69, 127
6, 55490, Note_off_c, 9, 69, 64
6, 55490, Note_off_c, 9, 63, 64
6, 55490, Note_off_c, 9, 56, 64
6, 55560, Note_on_c, 9, 56, 70
6, 55560, Note_on_c, 9, 63, 90
6, 55560, Note_on_c, 9, 69, 100
6, 55610, Note_off_c, 9, 69, 64
6, 55610, Note_off_c, 9, 63, 64
6, 55610, Note_off_c, 9, 56, 64
6, 55680, Note_on_c, 9, 56, 90
6, 55680, Note_on_c, 9, 62, 80
6, 55680, Note_on_c, 9, 69, 127
6, 55730, Note_off_c, 9, 69, 64
6, 55730, Note_off_c, 9, 62, 64
6, 55730, Note_off_c, 9, 56, 64
6, 55800, Note_on_c, 9, 63, 90
6, 55850, Note_off_c, 9, 63, 64
6, 55920, Note_on_c, 9, 56, 90
6, 55920, Note_on_c, 9, 62, 100
6, 55920, Note_on_c, 9, 69, 127
6, 55970, Note_off_c, 9, 69, 64
6, 55970, Note_off_c, 9, 62, 64
6, 55970, Note_off_c, 9, 56, 64
6, 56040, Note_on_c, 9, 63, 100
6, 56040, Note_on_c, 9, 69, 100
6, 56090, Note_off_c, 9, 69, 64
6, 56090, Note_off_c, 9, 63, 64
6, 56160, Note_on_c, 9, 56, 90
6, 56160, Note_on_c, 9, 63, 90
6, 56160, Note_on_c, 9, 69, 127
6, 56210, Note_off_c, 9, 69, 64
6, 56210, Note_off_c, 9, 63, 64
6, 56210, Note_off_c, 9, 56, 64
6, 56280, Note_on_c, 9, 62, 100
6, 56330, Note_off_c, 9, 62, 64
6, 56400, Note_on_c, 9, 56, 90
6, 56400, Note_on_c, 9, 63, 115
6, 56400, Note_on_c, 9, 69, 127
6, 56450, Note_off_c, 9, 69, 64
6, 56450, Note_off_c, 9, 63, 64
6, 56450, Note_off_c, 9, 56, 64
6, 56520, Note_on_c, 9, 63, 90
6, 56520, Note_on_c, 9, 69, 100
6, 56570, Note_off_c, 9, 69, 64
6, 56570, Note_off_c, 9, 63, 64
6, 56640, Note_on_c, 9, 56, 90
6, 56640, Note_on_c, 9, 62, 80
6, 56640, Note_on_c, 9, 69, 127
6, 56690, Note_off_c, 9, 69, 64
6, 56690, Note_off_c, 9, 62, 64
6, 56690, Note_off_c, 9, 56, 64
6, 56760, Note_on_c, 9, 62, 90
6, 56810, Note_off_c, 9, 62, 64
6, 56880, Note_on_c, 9, 56, 90
6, 56880, Note_on_c, 9, 62, 100
6, 56880, Note_on_c, 9, 69, 127
6, 56930, Note_off_c, 9, 69, 64
6, 56930, Note_off_c, 9, 62, 64
6, 56930, Note_off_c, 9, 56, 64
6, 57000, Note_on_c, 9, 63, 100
6, 57000, Note_on_c, 9, 69, 100
6, 57050, Note_off_c, 9, 69, 64
6, 57050, Note_off_c, 9, 63, 64
6, 57120, Note_on_c, 9, 56, 90
6, 57120, Note_on_c, 9, 63, 90
6, 57120, Note_on_c, 9, 69, 127
6, 57170, Note_off_c, 9, 69, 64
6, 57170, Note_off_c, 9, 63, 64
6, 57170, Note_off_c, 9, 56, 64
6, 57240, Note_on_c, 9, 62, 100
6, 57290, Note_off_c, 9, 62, 64
6, 57360, Note_on_c, 9, 56, 90
6, 57360, Note_on_c, 9, 63, 115
6, 57360, Note_on_c, 9, 69, 127
6, 57410, Note_off_c, 9, 69, 64
6, 57410, Note_off_c, 9, 63, 64
6, 57410, Note_off_c, 9, 56, 64
6, 57480, Note_on_c, 9, 56, 70
6, 57480, Note_on_c, 9, 63, 90
6, 57480, Note_on_c, 9, 69, 100
6, 57530, Note_off_c, 9, 69, 64
6, 57530, Note_off_c, 9, 63, 64
6, 57530, Note_off_c, 9, 56, 64
6, 57600, Note_on_c, 9, 56, 90
6, 57600, Note_on_c, 9, 62, 80
6, 57600, Note_on_c, 9, 69, 127
6, 57650, Note_off_c, 9, 69, 64
6, 57650, Note_off_c, 9, 62, 64
6, 57650, Note_off_c, 9, 56, 64
6, 57720, Note_on_c, 9, 62, 90
6, 57770, Note_off_c, 9, 62, 64
6, 57840, Note_on_c, 9, 56, 90
6, 57840, Note_on_c, 9, 62, 100
6, 57840, Note_on_c, 9, 69, 127
6, 57890, Note_off_c, 9, 69, 64
6, 57890, Note_off_c, 9, 62, 64
6, 57890, Note_off_c, 9, 56, 64
6, 57960, Note_on_c, 9, 63, 100
6, 57960, Note_on_c, 9, 69, 100
6, 58010, Note_off_c, 9, 69, 64
6, 58010, Note_off_c, 9, 63, 64
6, 58080, Note_on_c, 9, 56, 90
6, 58080, Note_on_c, 9, 63, 90
6, 58080, Note_on_c, 9, 69, 127
6, 58130, Note_off_c, 9, 69, 64
6, 58130, Note_off_c, 9, 63, 64
6, 58130, Note_off_c, 9, 56, 64
6, 58200, Note_on_c, 9, 62, 100
6, 58250, Note_off_c, 9, 62, 64
6, 58320, Note_on_c, 9, 56, 90
6, 58320, Note_on_c, 9, 63, 115
6, 58320, Note_on_c, 9, 69, 127
6, 58370, Note_off_c, 9, 69, 64
6, 58370, Note_off_c, 9, 63, 64
6, 58370, Note_off_c, 9, 56, 64
6, 58440, Note_on_c, 9, 63, 90
6, 58440, Note_on_c, 9, 69, 100
6, 58490, Note_off_c, 9, 69, 64
6, 58490, Note_off_c, 9, 63, 64
6, 58560, Note_on_c, 9, 56, 90
6, 58560, Note_on_c, 9, 62, 80
6, 58560, Note_on_c, 9, 65, 90
6, 58560, Note_on_c, 9, 69, 127
6, 58610, Note_off_c, 9, 69, 64
6, 58610, Note_off_c, 9, 65, 64
6, 58610, Note_off_c, 9, 62, 64
6, 58610, Note_off_c, 9, 56, 64
6, 58620, Note_on_c, 9, 65, 60
6, 58670, Note_off_c, 9, 65, 64
6, 58680, Note_on_c, 9, 63, 90
6, 58730, Note_off_c, 9, 63, 64
6, 58740, Note_on_c, 9, 65, 70
6, 58790, Note_off_c, 9, 65, 64
6, 58800, Note_on_c, 9, 56, 90
6, 58800, Note_on_c, 9, 62, 100
6, 58800, Note_on_c, 9, 69, 127
6, 58850, Note_off_c, 9, 69, 64
6, 58850, Note_off_c, 9, 62, 64
6, 58850, Note_off_c, 9, 56, 64
6, 58860, Note_on_c, 9, 65, 80
6, 58910, Note_off_c, 9, 65, 64
6, 58920, Note_on_c, 9, 63, 100
6, 58920, Note_on_c, 9, 69, 100
6, 58970, Note_off_c, 9, 69, 64
6, 58970, Note_off_c, 9, 63, 64
6, 58980, Note_on_c, 9, 65, 90
6, 59030, Note_off_c, 9, 65, 64
6, 59040, Note_on_c, 9, 56, 90
6, 59040, Note_on_c, 9, 63, 90
6, 59040, Note_on_c, 9, 69, 127
6, 59090, Note_off_c, 9, 69, 64
6, 59090, Note_off_c, 9, 63, 64
6, 59090, Note_off_c, 9, 56, 64
6, 59100, Note_on_c, 9, 65, 60
6, 59150, Note_off_c, 9, 65, 64
6, 59160, Note_on_c, 9, 63, 90
6, 59160, Note_on_c, 9, 65, 80
6, 59210, Note_off_c, 9, 65, 64
6, 59210, Note_off_c, 9, 63, 64
6, 59220, Note_on_c, 9, 65, 70
6, 59270, Note_off_c, 9, 65, 64
6, 59280, Note_on_c, 9, 56, 90
6, 59280, Note_on_c, 9, 63, 115
6, 59280, Note_on_c, 9, 65, 80
6, 59280, Note_on_c, 9, 69, 127
6, 59330, Note_off_c, 9, 69, 64
6, 59330, Note_off_c, 9, 65, 64
6, 59330, Note_off_c, 9, 63, 64
6, 59330, Note_off_c, 9, 56, 64
6, 59400, Note_on_c, 9, 56, 70
6, 59400, Note_on_c, 9, 63, 90
6, 59400, Note_on_c, 9, 65, 90
6, 59400, Note_on_c, 9, 69, 100
6, 59450, Note_off_c, 9, 69, 64
6, 59450, Note_off_c, 9, 65, 64
6, 59450, Note_off_c, 9, 63, 64
6, 59450, Note_off_c, 9, 56, 64
6, 59520, Note_on_c, 9, 56, 90
6, 59520, Note_on_c, 9, 62, 80
6, 59520, Note_on_c, 9, 69, 127
6, 59570, Note_off_c, 9, 69, 64
6, 59570, Note_off_c, 9, 62, 64
6, 59570, Note_off_c, 9, 56, 64
6, 59640, Note_on_c, 9, 62, 90
6, 59690, Note_off_c, 9, 62, 64
6, 59760, Note_on_c, 9, 56, 90
6, 59760, Note_on_c, 9, 62, 100
6, 59760, Note_on_c, 9, 69, 127
6, 59810, Note_off_c, 9, 69, 64
6, 59810, Note_off_c, 9, 62, 64
6, 59810, Note_off_c, 9, 56, 64
6, 59880, Note_on_c, 9, 63, 100
6, 59880, Note_on_c, 9, 69, 100
6, 59930, Note_off_c, 9, 69, 64
6, 59930, Note_off_c, 9, 63, 64
6, 60000, Note_on_c, 9, 56, 90
6, 60000, Note_on_c, 9, 63, 90
6, 60000, Note_on_c, 9, 69, 127
6, 60050, Note_off_c, 9, 69, 64
6, 60050, Note_off_c, 9, 63, 64
6, 60050, Note_off_c, 9, 56, 64
6, 60120, Note_on_c, 9, 62, 100
6, 60170, Note_off_c, 9, 62, 64
6, 60240, Note_on_c, 9, 56, 90
6, 60240, Note_on_c, 9, 63, 115
6, 60240, Note_on_c, 9, 69, 127
6, 60290, Note_off_c, 9, 69, 64
6, 60290, Note_off_c, 9, 63, 64
6, 60290, Note_off_c, 9, 56, 64
6, 60360, Note_on_c, 9, 56, 70
6, 60360, Note_on_c, 9, 63, 90
6, 60360, Note_on_c, 9, 69, 100
6, 60410, Note_off_c, 9, 69, 64
6, 60410, Note_off_c, 9, 63, 64
6, 60410, Note_off_c, 9, 56, 64
6, 60480, Note_on_c, 9, 56, 90
6, 60480, Note_on_c, 9, 62, 80
6, 60480, Note_on_c, 9, 69, 127
6, 60530, Note_off_c, 9, 69, 64
6, 60530, Note_off_c, 9, 62, 64
6, 60530, Note_off_c, 9, 56, 64
6, 60600, Note_on_c, 9, 63, 90
6, 60650, Note_off_c, 9, 63, 64
6, 60720, Note_on_c, 9, 56, 90
6, 60720, Note_on_c, 9, 62, 100
6, 60720, Note_on_c, 9, 69, 127
6, 60770, Note_off_c, 9, 69, 64
6, 60770, Note_off_c, 9, 62, 64
6, 60770, Note_off_c, 9, 56, 64
6, 60840, Note_on_c, 9, 63, 100
6, 60840, Note_on_c, 9, 69, 100
6, 60890, Note_off_c, 9, 69, 64
6, 60890, Note_off_c, 9, 63, 64
6, 60960, Note_on_c, 9, 56, 90
6, 60960, Note_on_c, 9, 63, 90
6, 60960, Note_on_c, 9, 69, 127
6, 61010, Note_off_c, 9, 69, 64
6, 61010, Note_off_c, 9, 63, 64
6, 61010, Note_off_c, 9, 56, 64
6, 61080, Note_on_c, 9, 62, 100
6, 61130, Note_off_c, 9, 62, 64
6, 61140, Note_on_c, 9, 62, 80
6, 61190, Note_off_c, 9, 62, 64
6, 61200, Note_on_c, 9, 56, 90
6, 61200, Note_on_c, 9, 63, 115
6, 61200, Note_on_c, 9, 69, 127
6, 61250, Note_off_c, 9, 69, 64
6, 61250, Note_off_c, 9, 63, 64
6, 61250, Note_off_c, 9, 56, 64
6, 61320, Note_on_c, 9, 63, 90
6, 61320, Note_on_c, 9, 69, 100
6, 61370, Note_off_c, 9, 69, 64
6, 61370, Note_off_c, 9, 63, 64
6, 61440, Note_on_c, 9, 56, 90
6, 61440, Note_on_c, 9, 62, 80
6, 61440, Note_on_c, 9, 69, 127
6, 61490, Note_off_c, 9, 69, 64
6, 61490, Note_off_c, 9, 62, 64
6, 61490, Note_off_c, 9, 56, 64
6, 61560, Note_on_c, 9, 62, 90
6, 61610, Note_off_c, 9, 62, 64
6, 61680, Note_on_c, 9, 56, 90
6, 61680, Note_on_c, 9, 63, 108
6, 61680, Note_on_c, 9, 69, 127
6, 61730, Note_off_c, 9, 69, 64
6, 61730, Note_off_c, 9, 63, 64
6, 61730, Note_off_c, 9, 56, 64
6, 61800, Note_on_c, 9, 63, 100
6, 61800, Note_on_c, 9, 69, 100
6, 61850, Note_off_c, 9, 69, 64
6, 61850, Note_off_c, 9, 63, 64
6, 61920, Note_on_c, 9, 56, 90
6, 61920, Note_on_c, 9, 63, 90
6, 61920, Note_on_c, 9, 69, 127
6, 61970, Note_off_c, 9, 69, 64
6, 61970, Note_off_c, 9, 63, 64
6, 61970, Note_off_c, 9, 56, 64
6, 62040, Note_on_c, 9, 62, 100
6, 62090, Note_off_c, 9, 62, 64
6, 62160, Note_on_c, 9, 56, 90
6, 62160, Note_on_c, 9, 63, 115
6, 62160, Note_on_c, 9, 69, 127
6, 62210, Note_off_c, 9, 69, 64
6, 62210, Note_off_c, 9, 63, 64
6, 62210, Note_off_c, 9, 56, 64
6, 62280, Note_on_c, 9, 63, 90
6, 62280, Note_on_c, 9, 69, 100
6, 62330, Note_off_c, 9, 69, 64
6, 62330, Note_off_c, 9, 63, 64
6, 62400, Note_on_c, 9, 56, 90
6, 62400, Note_on_c, 9, 62, 80
6, 62400, Note_on_c, 9, 69, 127
6, 62450, Note_off_c, 9, 69, 64
6, 62450, Note_off_c, 9, 62, 64
6, 62450, Note_off_c, 9, 56, 64
6, 62520, Note_on_c, 9, 62, 90
6, 62570, Note_off_c, 9, 62, 64
6, 62640, Note_on_c, 9, 56, 90
6, 62640, Note_on_c, 9, 63, 108
6, 62640, Note_on_c, 9, 69, 127
6, 62690, Note_off_c, 9, 69, 64
6, 62690, Note_off_c, 9, 63, 64
6, 62690, Note_off_c, 9, 56, 64
6, 62760, Note_on_c, 9, 63, 100
6, 62760, Note_on_c, 9, 69, 100
6, 62810, Note_off_c, 9, 69, 64
6, 62810, Note_off_c, 9, 63, 64
6, 62880, Note_on_c, 9, 56, 90
6, 62880, Note_on_c, 9, 63, 90
6, 62880, Note_on_c, 9, 69, 127
6, 62930, Note_off_c, 9, 69, 64
6, 62930, Note_off_c, 9, 63, 64
6, 62930, Note_off_c, 9, 56, 64
6, 63000, Note_on_c, 9, 62, 100
6, 63050, Note_off_c, 9, 62, 64
6, 63120, Note_on_c, 9, 56, 90
6, 63120, Note_on_c, 9, 63, 115
6, 63120, Note_on_c, 9, 69, 127
6, 63170, Note_off_c, 9, 69, 64
6, 63170, Note_off_c, 9, 63, 64
6, 63170, Note_off_c, 9, 56, 64
6, 63180, Note_on_c, 9, 69, 115
6, 63230, Note_off_c, 9, 69, 64
6, 63240, Note_on_c, 9, 56, 70
6, 63240, Note_on_c, 9, 63, 90
6, 63240, Note_on_c, 9, 69, 100
6, 63290, Note_off_c, 9, 69, 64
6, 63290, Note_off_c, 9, 63, 64
6, 63290, Note_off_c, 9, 56, 64
6, 63300, Note_on_c, 9, 69, 90
6, 63350, Note_off_c, 9, 69, 64
6, 63360, Note_on_c, 9, 56, 90
6, 63360, Note_on_c, 9, 62, 80
6, 63360, Note_on_c, 9, 69, 127
6, 63410, Note_off_c, 9, 69, 64
6, 63410, Note_off_c, 9, 62, 64
6, 63410, Note_off_c, 9, 56, 64
6, 63480, Note_on_c, 9, 62, 90
6, 63530, Note_off_c, 9, 62, 64
6, 63600, Note_on_c, 9, 56, 90
6, 63600, Note_on_c, 9, 63, 108
6, 63600, Note_on_c, 9, 69, 127
6, 63650, Note_off_c, 9, 69, 64
6, 63650, Note_off_c, 9, 63, 64
6, 63650, Note_off_c, 9, 56, 64
6, 63720, Note_on_c, 9, 63, 100
6, 63720, Note_on_c, 9, 69, 100
6, 63770, Note_off_c, 9, 69, 64
6, 63770, Note_off_c, 9, 63, 64
6, 63840, Note_on_c, 9, 56, 90
6, 63840, Note_on_c, 9, 63, 90
6, 63840, Note_on_c, 9, 69, 127
6, 63890, Note_off_c, 9, 69, 64
6, 63890, Note_off_c, 9, 63, 64
6, 63890, Note_off_c, 9, 56, 64
6, 63960, Note_on_c, 9, 62, 100
6, 64010, Note_off_c, 9, 62, 64
6, 64080, Note_on_c, 9, 56, 90
6, 64080, Note_on_c, 9, 63, 115
6, 64080, Note_on_c, 9, 69, 127
6, 64130, Note_off_c, 9, 69, 64
6, 64130, Note_off_c, 9, 63, 64
6, 64130, Note_off_c, 9, 56, 64
6, 64200, Note_on_c, 9, 56, 70
6, 64200, Note_on_c, 9, 63, 90
6, 64200, Note_on_c, 9, 69, 100
6, 64250, Note_off_c, 9, 69, 64
6, 64250, Note_off_c, 9, 63, 64
6, 64250, Note_off_c, 9, 56, 64
6, 64320, Note_on_c, 9, 56, 90
6, 64320, Note_on_c, 9, 62, 80
6, 64320, Note_on_c, 9, 69, 127
6, 64370, Note_off_c, 9, 69, 64
6, 64370, Note_off_c, 9, 62, 64
6, 64370, Note_off_c, 9, 56, 64
6, 64440, Note_on_c, 9, 62, 90
6, 64490, Note_off_c, 9, 62, 64
6, 64560, Note_on_c, 9, 56, 90
6, 64560, Note_on_c, 9, 62, 100
6, 64560, Note_on_c, 9, 69, 127
6, 64610, Note_off_c, 9, 69, 64
6, 64610, Note_off_c, 9, 62, 64
6, 64610, Note_off_c, 9, 56, 64
6, 64680, Note_on_c, 9, 63, 100
6, 64680, Note_on_c, 9, 69, 100
6, 64730, Note_off_c, 9, 69, 64
6, 64730, Note_off_c, 9, 63, 64
6, 64800, Note_on_c, 9, 56, 90
6, 64800, Note_on_c, 9, 63, 90
6, 64800, Note_on_c, 9, 69, 127
6, 64850, Note_off_c, 9, 69, 64
6, 64850, Note_off_c, 9, 63, 64
6, 64850, Note_off_c, 9, 56, 64
6, 64920, Note_on_c, 9, 63, 90
6, 64970, Note_off_c, 9, 63, 64
6, 65040, Note_on_c, 9, 56, 90
6, 65040, Note_on_c, 9, 63, 115
6, 65040, Note_on_c, 9, 69, 127
6, 65090, Note_off_c, 9, 69, 64
6, 65090, Note_off_c, 9, 63, 64
6, 65090, Note_off_c, 9, 56, 64
6, 65160, Note_on_c, 9, 56, 70
6, 65160, Note_on_c, 9, 63, 90
6, 65160, Note_on_c, 9, 69, 100
6, 65210, Note_off_c, 9, 69, 64
6, 65210, Note_off_c, 9, 63, 64
6, 65210, Note_off_c, 9, 56, 64
6, 65280, Note_on_c, 9, 56, 90
6, 65280, Note_on_c, 9, 62, 80
6, 65280, Note_on_c, 9, 69, 127
6, 65330, Note_off_c, 9, 69, 64
6, 65330, Note_off_c, 9, 62, 64
6, 65330, Note_off_c, 9, 56, 64
6, 65400, Note_on_c, 9, 62, 90
6, 65450, Note_off_c, 9, 62, 64
6, 65520, Note_on_c, 9, 56, 90
6, 65520, Note_on_c, 9, 63, 108
6, 65520, Note_on_c, 9, 69, 127
6, 65570, Note_off_c, 9, 69, 64
6, 65570, Note_off_c, 9, 63, 64
6, 65570, Note_off_c, 9, 56, 64
6, 65640, Note_on_c, 9, 63, 100
6, 65640, Note_on_c, 9, 69, 100
6, 65690, Note_off_c, 9, 69, 64
6, 65690, Note_off_c, 9, 63, 64
6, 65760, Note_on_c, 9, 56, 90
6, 65760, Note_on_c, 9, 63, 90
6, 65760, Note_on_c, 9, 69, 127
6, 65810, Note_off_c, 9, 69, 64
6, 65810, Note_off_c, 9, 63, 64
6, 65810, Note_off_c, 9, 56, 64
6, 65880, Note_on_c, 9, 62, 100
6, 65930, Note_off_c, 9, 62, 64
6, 66000, Note_on_c, 9, 56, 90
6, 66000, Note_on_c, 9, 63, 115
6, 66000, Note_on_c, 9, 69, 127
6, 66050, Note_off_c, 9, 69, 64
6, 66050, Note_off_c, 9, 63, 64
6, 66050, Note_off_c, 9, 56, 64
6, 66120, Note_on_c, 9, 63, 90
6, 66120, Note_on_c, 9, 69, 100
6, 66170, Note_off_c, 9, 69, 64
6, 66170, Note_off_c, 9, 63, 64
6, 66240, Note_on_c, 9, 56, 115
6, 66240, Note_on_c, 9, 62, 80
6, 66240, Note_on_c, 9, 69, 127
6, 66290, Note_off_c, 9, 69, 64
6, 66290, Note_off_c, 9, 62, 64
6, 66290, Note_off_c, 9, 56, 64
6, 66360, Note_on_c, 9, 63, 90
6, 66410, Note_off_c, 9, 63, 64
6, 66480, Note_on_c, 9, 56, 127
6, 66480, Note_on_c, 9, 62, 100
6, 66480, Note_on_c, 9, 69, 127
6, 66530, Note_off_c, 9, 69, 64
6, 66530, Note_off_c, 9, 62, 64
6, 66530, Note_off_c, 9, 56, 64
6, 66540, Note_on_c, 9, 56, 115
6, 66590, Note_off_c, 9, 56, 64
6, 66600, Note_on_c, 9, 56, 100
6, 66600, Note_on_c, 9, 63, 100
6, 66600, Note_on_c, 9, 69, 100
6, 66650, Note_off_c, 9, 69, 64
6, 66650, Note_off_c, 9, 63, 64
6, 66650, Note_off_c, 9, 56, 64
6, 66660, Note_on_c, 9, 56, 90
6, 66710, Note_off_c, 9, 56, 64
6, 66720, Note_on_c, 9, 56, 127
6, 66720, Note_on_c, 9, 63, 90
6, 66720, Note_on_c, 9, 69, 127
6, 66770, Note_off_c, 9, 69, 64
6, 66770, Note_off_c, 9, 63, 64
6, 66770, Note_off_c, 9, 56, 64
6, 66840, Note_on_c, 9, 56, 115
6, 66840, Note_on_c, 9, 62, 100
6, 66890, Note_off_c, 9, 62, 64
6, 66890, Note_off_c, 9, 56, 64
6, 66960, Note_on_c, 9, 63, 115
6, 66960, Note_on_c, 9, 69, 127
6, 67010, Note_off_c, 9, 69, 64
6, 67010, Note_off_c, 9, 63, 64
6, 67080, Note_on_c, 9, 56, 127
6, 67080, Note_on_c, 9, 63, 90
6, 67080, Note_on_c, 9, 69, 100
6, 67130, Note_off_c, 9, 69, 64
6, 67130, Note_off_c, 9, 63, 64
6, 67130, Note_off_c, 9, 56, 64
6, 67200, Note_on_c, 9, 42, 115
6, 67200, Note_on_c, 9, 56, 90
6, 67200, Note_on_c, 9, 62, 80
6, 67250, Note_off_c, 9, 62, 64
6, 67250, Note_off_c, 9, 56, 64
6, 67250, Note_off_c, 9, 42, 64
6, 67320, Note_on_c, 9, 42, 100
6, 67320, Note_on_c, 9, 62, 90
6, 67370, Note_off_c, 9, 62, 64
6, 67370, Note_off_c, 9, 42, 64
6, 67440, Note_on_c, 9, 42, 90
6, 67440, Note_on_c, 9, 56, 90
6, 67440, Note_on_c, 9, 62, 100
6, 67490, Note_off_c, 9, 62, 64
6, 67490, Note_off_c, 9, 56, 64
6, 67490, Note_off_c, 9, 42, 64
6, 67560, Note_on_c, 9, 42, 115
6, 67560, Note_on_c, 9, 63, 100
6, 67610, Note_off_c, 9, 63, 64
6, 67610, Note_off_c, 9, 42, 64
6, 67680, Note_on_c, 9, 42, 100
6, 67680, Note_on_c, 9, 56, 90
6, 67680, Note_on_c, 9, 63, 90
6, 67730, Note_off_c, 9, 63, 64
6, 67730, Note_off_c, 9, 56, 64
6, 67730, Note_off_c, 9, 42, 64
6, 67800, Note_on_c, 9, 42, 90
6, 67800, Note_on_c, 9, 62, 100
6, 67850, Note_off_c, 9, 62, 64
6, 67850, Note_off_c, 9, 42, 64
6, 67920, Note_on_c, 9, 42, 115
6, 67920, Note_on_c, 9, 56, 90
6, 67920, Note_on_c, 9, 63, 115
6, 67970, Note_off_c, 9, 63, 64
6, 67970, Note_off_c, 9, 56, 64
6, 67970, Note_off_c, 9, 42, 64
6, 68040, Note_on_c, 9, 42, 100
6, 68040, Note_on_c, 9, 63, 90
6, 68090, Note_off_c, 9, 63, 64
6, 68090, Note_off_c, 9, 42, 64
6, 68160, Note_on_c, 9, 42, 115
6, 68160, Note_on_c, 9, 56, 90
6, 68160, Note_on_c, 9, 62, 80
6, 68210, Note_off_c, 9, 62, 64
6, 68210, Note_off_c, 9, 56, 64
6, 68210, Note_off_c, 9, 42, 64
6, 68280, Note_on_c, 9, 42, 100
6, 68280, Note_on_c, 9, 62, 90
6, 68330, Note_off_c, 9, 62, 64
6, 68330, Note_off_c, 9, 42, 64
6, 68400, Note_on_c, 9, 42, 90
6, 68400, Note_on_c, 9, 56, 90
6, 68400, Note_on_c, 9, 62, 100
6, 68450, Note_off_c, 9, 62, 64
6, 68450, Note_off_c, 9, 56, 64
6, 68450, Note_off_c, 9, 42, 64
6, 68520, Note_on_c, 9, 42, 115
6, 68520, Note_on_c, 9, 63, 100
6, 68570, Note_off_c, 9, 63, 64
6, 68570, Note_off_c, 9, 42, 64
6, 68640, Note_on_c, 9, 42, 100
6, 68640, Note_on_c, 9, 56, 90
6, 68640, Note_on_c, 9, 63, 90
6, 68690, Note_off_c, 9, 63, 64
6, 68690, Note_off_c, 9, 56, 64
6, 68690, Note_off_c, 9, 42, 64
6, 68760, Note_on_c, 9, 42, 90
6, 68760, Note_on_c, 9, 62, 100
6, 68810, Note_off_c, 9, 62, 64
6, 68810, Note_off_c, 9, 42, 64
6, 68880, Note_on_c, 9, 42, 115
6, 68880, Note_on_c, 9, 56, 90
6, 68880, Note_on_c, 9, 63, 115
6, 68930, Note_off_c, 9, 63, 64
6, 68930, Note_off_c, 9, 56, 64
6, 68930, Note_off_c, 9, 42, 64
6, 69000, Note_on_c, 9, 42, 100
6, 69000, Note_on_c, 9, 63, 90
6, 69050, Note_off_c, 9, 63, 64
6, 69050, Note_off_c, 9, 42, 64
6, 69120, Note_on_c, 9, 42, 115
6, 69120, Note_on_c, 9, 56, 90
6, 69120, Note_on_c, 9, 62, 80
6, 69170, Note_off_c, 9, 62, 64
6, 69170, Note_off_c, 9, 56, 64
6, 69170, Note_off_c, 9, 42, 64
6, 69240, Note_on_c, 9, 42, 100
6, 69240, Note_on_c, 9, 62, 90
6, 69290, Note_off_c, 9, 62, 64
6, 69290, Note_off_c, 9, 42, 64
6, 69360, Note_on_c, 9, 42, 90
6, 69360, Note_on_c, 9, 56, 90
6, 69360, Note_on_c, 9, 62, 100
6, 69410, Note_off_c, 9, 62, 64
6, 69410, Note_off_c, 9, 56, 64
6, 69410, Note_off_c, 9, 42, 64
6, 69480, Note_on_c, 9, 42, 115
6, 69480, Note_on_c, 9, 63, 100
6, 69530, Note_off_c, 9, 63, 64
6, 69530, Note_off_c, 9, 42, 64
6, 69600, Note_on_c, 9, 42, 100
6, 69600, Note_on_c, 9, 56, 90
6, 69600, Note_on_c, 9, 63, 90
6, 69650, Note_off_c, 9, 63, 64
6, 69650, Note_off_c, 9, 56, 64
6, 69650, Note_off_c, 9, 42, 64
6, 69720, Note_on_c, 9, 42, 90
6, 69720, Note_on_c, 9, 62, 100
6, 69770, Note_off_c, 9, 62, 64
6, 69770, Note_off_c, 9, 42, 64
6, 69840, Note_on_c, 9, 42, 115
6, 69840, Note_on_c, 9, 56, 90
6, 69840, Note_on_c, 9, 63, 115
6, 69890, Note_off_c, 9, 63, 64
6, 69890, Note_off_c, 9, 56, 64
6, 69890, Note_off_c, 9, 42, 64
6, 69960, Note_on_c, 9, 42, 100
6, 69960, Note_on_c, 9, 63, 90
6, 70010, Note_off_c, 9, 63, 64
6, 70010, Note_off_c, 9, 42, 64
6, 70080, Note_on_c, 9, 42, 115
6, 70080, Note_on_c, 9, 56, 90
6, 70080, Note_on_c, 9, 62, 80
6, 70130, Note_off_c, 9, 62, 64
6, 70130, Note_off_c, 9, 56, 64
6, 70130, Note_off_c, 9, 42, 64
6, 70200, Note_on_c, 9, 42, 100
6, 70200, Note_on_c, 9, 63, 90
6, 70200, Note_on_c, 9, 65, 60
6, 70250, Note_off_c, 9, 65, 64
6, 70250, Note_off_c, 9, 63, 64
6, 70250, Note_off_c, 9, 42, 64
6, 70320, Note_on_c, 9, 42, 90
6, 70320, Note_on_c, 9, 56, 90
6, 70320, Note_on_c, 9, 62, 100
6, 70370, Note_off_c, 9, 62, 64
6, 70370, Note_off_c, 9, 56, 64
6, 70370, Note_off_c, 9, 42, 64
6, 70380, Note_on_c, 9, 63, 60
6, 70380, Note_on_c, 9, 65, 60
6, 70430, Note_off_c, 9, 65, 64
6, 70430, Note_off_c, 9, 63, 64
6, 70440, Note_on_c, 9, 42, 115
6, 70440, Note_on_c, 9, 63, 100
6, 70440, Note_on_c, 9, 65, 70
6, 70490, Note_off_c, 9, 65, 64
6, 70490, Note_off_c, 9, 63, 64
6, 70490, Note_off_c, 9, 42, 64
6, 70500, Note_on_c, 9, 63, 60
6, 70550, Note_off_c, 9, 63, 64
6, 70560, Note_on_c, 9, 42, 100
6, 70560, Note_on_c, 9, 56, 90
6, 70560, Note_on_c, 9, 63, 90
6, 70610, Note_off_c, 9, 63, 64
6, 70610, Note_off_c, 9, 56, 64
6, 70610, Note_off_c, 9, 42, 64
6, 70680, Note_on_c, 9, 42, 90
6, 70680, Note_on_c, 9, 63, 90
6, 70730, Note_off_c, 9, 63, 64
6, 70730, Note_off_c, 9, 42, 64
6, 70800, Note_on_c, 9, 42, 115
6, 70800, Note_on_c, 9, 56, 90
6, 70800, Note_on_c, 9, 63, 115
6, 70850, Note_off_c, 9, 63, 64
6, 70850, Note_off_c, 9, 56, 64
6, 70850, Note_off_c, 9, 42, 64
6, 70920, Note_on_c, 9, 42, 100
6, 70920, Note_on_c, 9, 56, 70
6, 70920, Note_on_c, 9, 63, 90
6, 70920, Note_on_c, 9, 65, 70
6, 70970, Note_off_c, 9, 65, 64
6, 70970, Note_off_c, 9, 63, 64
6, 70970, Note_off_c, 9, 56, 64
6, 70970, Note_off_c, 9, 42, 64
6, 71040, Note_on_c, 9, 42, 115
6, 71040, Note_on_c, 9, 56, 90
6, 71040, Note_on_c, 9, 62, 80
6, 71090, Note_off_c, 9, 62, 64
6, 71090, Note_off_c, 9, 56, 64
6, 71090, Note_off_c, 9, 42, 64
6, 71160, Note_on_c, 9, 42, 100
6, 71160, Note_on_c, 9, 62, 90
6, 71210, Note_off_c, 9, 62, 64
6, 71210, Note_off_c, 9, 42, 64
6, 71280, Note_on_c, 9, 42, 90
6, 71280, Note_on_c, 9, 56, 90
6, 71280, Note_on_c, 9, 62, 100
6, 71330, Note_off_c, 9, 62, 64
6, 71330, Note_off_c, 9, 56, 64
6, 71330, Note_off_c, 9, 42, 64
6, 71400, Note_on_c, 9, 42, 115
6, 71400, Note_on_c, 9, 63, 100
6, 71450, Note_off_c, 9, 63, 64
6, 71450, Note_off_c, 9, 42, 64
6, 71520, Note_on_c, 9, 42, 100
6, 71520, Note_on_c, 9, 56, 90
6, 71520, Note_on_c, 9, 63, 90
6, 71570, Note_off_c, 9, 63, 64
6, 71570, Note_off_c, 9, 56, 64
6, 71570, Note_off_c, 9, 42, 64
6, 71640, Note_on_c, 9, 42, 90
6, 71640, Note_on_c, 9, 62, 100
6, 71690, Note_off_c, 9, 62, 64
6, 71690, Note_off_c, 9, 42, 64
6, 71760, Note_on_c, 9, 42, 115
6, 71760, Note_on_c, 9, 56, 90
6, 71760, Note_on_c, 9, 63, 115
6, 71810, Note_off_c, 9, 63, 64
6, 71810, Note_off_c, 9, 56, 64
6, 71810, Note_off_c, 9, 42, 64
6, 71880, Note_on_c, 9, 42, 100
6, 71880, Note_on_c, 9, 56, 70
6, 71880, Note_on_c, 9, 63, 90
6, 71930, Note_off_c, 9, 63, 64
6, 71930, Note_off_c, 9, 56, 64
6, 71930, Note_off_c, 9, 42, 64
6, 72000, Note_on_c, 9, 42, 115
6, 72000, Note_on_c, 9, 56, 90
6, 72000, Note_on_c, 9, 62, 80
6, 72050, Note_off_c, 9, 62, 64
6, 72050, Note_off_c, 9, 56, 64
6, 72050, Note_off_c, 9, 42, 64
6, 72120, Note_on_c, 9, 42, 100
6, 72120, Note_on_c, 9, 62, 90
6, 72170, Note_off_c, 9, 62, 64
6, 72170, Note_off_c, 9, 42, 64
6, 72240, Note_on_c, 9, 42, 90
6, 72240, Note_on_c, 9, 56, 90
6, 72240, Note_on_c, 9, 62, 100
6, 72290, Note_off_c, 9, 62, 64
6, 72290, Note_off_c, 9, 56, 64
6, 72290, Note_off_c, 9, 42, 64
6, 72360, Note_on_c, 9, 42, 115
6, 72360, Note_on_c, 9, 63, 100
6, 72410, Note_off_c, 9, 63, 64
6, 72410, Note_off_c, 9, 42, 64
6, 72480, Note_on_c, 9, 42, 100
6, 72480, Note_on_c, 9, 56, 90
6, 72480, Note_on_c, 9, 63, 90
6, 72530, Note_off_c, 9, 63, 64
6, 72530, Note_off_c, 9, 56, 64
6, 72530, Note_off_c, 9, 42, 64
6, 72600, Note_on_c, 9, 42, 90
6, 72600, Note_on_c, 9, 63, 90
6, 72650, Note_off_c, 9, 63, 64
6, 72650, Note_off_c, 9, 42, 64
6, 72720, Note_on_c, 9, 42, 115
6, 72720, Note_on_c, 9, 56, 90
6, 72720, Note_on_c, 9, 63, 115
6, 72770, Note_off_c, 9, 63, 64
6, 72770, Note_off_c, 9, 56, 64
6, 72770, Note_off_c, 9, 42, 64
6, 72840, Note_on_c, 9, 42, 100
6, 72840, Note_on_c, 9, 63, 90
6, 72890, Note_off_c, 9, 63, 64
6, 72890, Note_off_c, 9, 42, 64
6, 72960, Note_on_c, 9, 42, 115
6, 72960, Note_on_c, 9, 56, 90
6, 72960, Note_on_c, 9, 62, 80
6, 73010, Note_off_c, 9, 62, 64
6, 73010, Note_off_c, 9, 56, 64
6, 73010, Note_off_c, 9, 42, 64
6, 73080, Note_on_c, 9, 42, 100
6, 73080, Note_on_c, 9, 63, 90
6, 73130, Note_off_c, 9, 63, 64
6, 73130, Note_off_c, 9, 42, 64
6, 73200, Note_on_c, 9, 42, 90
6, 73200, Note_on_c, 9, 56, 90
6, 73200, Note_on_c, 9, 62, 100
6, 73250, Note_off_c, 9, 62, 64
6, 73250, Note_off_c, 9, 56, 64
6, 73250, Note_off_c, 9, 42, 64
6, 73320, Note_on_c, 9, 42, 115
6, 73320, Note_on_c, 9, 63, 100
6, 73370, Note_off_c, 9, 63, 64
6, 73370, Note_off_c, 9, 42, 64
6, 73440, Note_on_c, 9, 42, 100
6, 73440, Note_on_c, 9, 56, 90
6, 73440, Note_on_c, 9, 63, 90
6, 73490, Note_off_c, 9, 63, 64
6, 73490, Note_off_c, 9, 56, 64
6, 73490, Note_off_c, 9, 42, 64
6, 73560, Note_on_c, 9, 42, 90
6, 73560, Note_on_c, 9, 63, 90
6, 73610, Note_off_c, 9, 63, 64
6, 73610, Note_off_c, 9, 42, 64
6, 73680, Note_on_c, 9, 42, 115
6, 73680, Note_on_c, 9, 56, 90
6, 73680, Note_on_c, 9, 63, 115
6, 73730, Note_off_c, 9, 63, 64
6, 73730, Note_off_c, 9, 56, 64
6, 73730, Note_off_c, 9, 42, 64
6, 73800, Note_on_c, 9, 42, 100
6, 73800, Note_on_c, 9, 56, 70
6, 73800, Note_on_c, 9, 63, 90
6, 73850, Note_off_c, 9, 63, 64
6, 73850, Note_off_c, 9, 56, 64
6, 73850, Note_off_c, 9, 42, 64
6, 73920, Note_on_c, 9, 42, 115
6, 73920, Note_on_c, 9, 56, 90
6, 73920, Note_on_c, 9, 62, 80
6, 73970, Note_off_c, 9, 62, 64
6, 73970, Note_off_c, 9, 56, 64
6, 73970, Note_off_c, 9, 42, 64
6, 74040, Note_on_c, 9, 42, 100
6, 74040, Note_on_c, 9, 62, 90
6, 74090, Note_off_c, 9, 62, 64
6, 74090, Note_off_c, 9, 42, 64
6, 74160, Note_on_c, 9, 42, 90
6, 74160, Note_on_c, 9, 56, 127
6, 74160, Note_on_c, 9, 62, 100
6, 74210, Note_off_c, 9, 62, 64
6, 74210, Note_off_c, 9, 56, 64
6, 74210, Note_off_c, 9, 42, 64
6, 74220, Note_on_c, 9, 56, 115
6, 74220, Note_on_c, 9, 63, 60
6, 74270, Note_off_c, 9, 63, 64
6, 74270, Note_off_c, 9, 56, 64
6, 74280, Note_on_c, 9, 42, 115
6, 74280, Note_on_c, 9, 56, 100
6, 74280, Note_on_c, 9, 63, 100
6, 74330, Note_off_c, 9, 63, 64
6, 74330, Note_off_c, 9, 56, 64
6, 74330, Note_off_c, 9, 42, 64
6, 74340, Note_on_c, 9, 56, 90
6, 74340, Note_on_c, 9, 63, 60
6, 74390, Note_off_c, 9, 63, 64
6, 74390, Note_off_c, 9, 56, 64
6, 74400, Note_on_c, 9, 42, 100
6, 74400, Note_on_c, 9, 56, 127
6, 74400, Note_on_c, 9, 63, 90
6, 74450, Note_off_c, 9, 63, 64
6, 74450, Note_off_c, 9, 56, 64
6, 74450, Note_off_c, 9, 42, 64
6, 74520, Note_on_c, 9, 42, 90
6, 74520, Note_on_c, 9, 56, 115
6, 74520, Note_on_c, 9, 62, 100
6, 74570, Note_off_c, 9, 62, 64
6, 74570, Note_off_c, 9, 56, 64
6, 74570, Note_off_c, 9, 42, 64
6, 74640, Note_on_c, 9, 42, 115
6, 74640, Note_on_c, 9, 56, 100
6, 74640, Note_on_c, 9, 63, 115
6, 74690, Note_off_c, 9, 63, 64
6, 74690, Note_off_c, 9, 56, 64
6, 74690, Note_off_c, 9, 42, 64
6, 74700, Note_on_c, 9, 56, 115
6, 74750, Note_off_c, 9, 56, 64
6, 74760, Note_on_c, 9, 42, 100
6, 74760, Note_on_c, 9, 63, 90
6, 74810, Note_off_c, 9, 63, 64
6, 74810, Note_off_c, 9, 42, 64
6, 74820, Note_on_c, 9, 56, 127
6, 74870, Note_off_c, 9, 56, 64
6, 74880, Note_on_c, 9, 42, 115
6, 74880, Note_on_c, 9, 56, 90
6, 74880, Note_on_c, 9, 62, 80
6, 74930, Note_off_c, 9, 62, 64
6, 74930, Note_off_c, 9, 56, 64
6, 74930, Note_off_c, 9, 42, 64
6, 75000, Note_on_c, 9, 42, 100
6, 75000, Note_on_c, 9, 62, 90
6, 75050, Note_off_c, 9, 62, 64
6, 75050, Note_off_c, 9, 42, 64
6, 75120, Note_on_c, 9, 42, 90
6, 75120, Note_on_c, 9, 56, 90
6, 75120, Note_on_c, 9, 62, 100
6, 75170, Note_off_c, 9, 62, 64
6, 75170, Note_off_c, 9, 56, 64
6, 75170, Note_off_c, 9, 42, 64
6, 75240, Note_on_c, 9, 42, 115
6, 75240, Note_on_c, 9, 63, 100
6, 75290, Note_off_c, 9, 63, 64
6, 75290, Note_off_c, 9, 42, 64
6, 75360, Note_on_c, 9, 42, 100
6, 75360, Note_on_c, 9, 56, 90
6, 75360, Note_on_c, 9, 63, 90
6, 75410, Note_off_c, 9, 63, 64
6, 75410, Note_off_c, 9, 56, 64
6, 75410, Note_off_c, 9, 42, 64
6, 75480, Note_on_c, 9, 42, 90
6, 75480, Note_on_c, 9, 62, 100
6, 75530, Note_off_c, 9, 62, 64
6, 75530, Note_off_c, 9, 42, 64
6, 75600, Note_on_c, 9, 42, 115
6, 75600, Note_on_c, 9, 56, 90
6, 75600, Note_on_c, 9, 63, 115
6, 75650, Note_off_c, 9, 63, 64
6, 75650, Note_off_c, 9, 56, 64
6, 75650, Note_off_c, 9, 42, 64
6, 75720, Note_on_c, 9, 42, 100
6, 75720, Note_on_c, 9, 63, 90
6, 75770, Note_off_c, 9, 63, 64
6, 75770, Note_off_c, 9, 42, 64
6, 75840, Note_on_c, 9, 42, 115
6, 75840, Note_on_c, 9, 56, 90
6, 75840, Note_on_c, 9, 62, 80
6, 75890, Note_off_c, 9, 62, 64
6, 75890, Note_off_c, 9, 56, 64
6, 75890, Note_off_c, 9, 42, 64
6, 75960, Note_on_c, 9, 42, 100
6, 75960, Note_on_c, 9, 62, 90
6, 76010, Note_off_c, 9, 62, 64
6, 76010, Note_off_c, 9, 42, 64
6, 76080, Note_on_c, 9, 42, 90
6, 76080, Note_on_c, 9, 56, 90
6, 76080, Note_on_c, 9, 62, 100
6, 76130, Note_off_c, 9, 62, 64
6, 76130, Note_off_c, 9, 56, 64
6, 76130, Note_off_c, 9, 42, 64
6, 76200, Note_on_c, 9, 42, 115
6, 76200, Note_on_c, 9, 63, 100
6, 76250, Note_off_c, 9, 63, 64
6, 76250, Note_off_c, 9, 42, 64
6, 76320, Note_on_c, 9, 42, 100
6, 76320, Note_on_c, 9, 56, 90
6, 76320, Note_on_c, 9, 63, 90
6, 76370, Note_off_c, 9, 63, 64
6, 76370, Note_off_c, 9, 56, 64
6, 76370, Note_off_c, 9, 42, 64
6, 76440, Note_on_c, 9, 42, 90
6, 76440, Note_on_c, 9, 62, 100
6, 76490, Note_off_c, 9, 62, 64
6, 76490, Note_off_c, 9, 42, 64
6, 76560, Note_on_c, 9, 42, 115
6, 76560, Note_on_c, 9, 56, 90
6, 76560, Note_on_c, 9, 63, 115
6, 76610, Note_off_c, 9, 63, 64
6, 76610, Note_off_c, 9, 56, 64
6, 76610, Note_off_c, 9, 42, 64
6, 76680, Note_on_c, 9, 42, 100
6, 76680, Note_on_c, 9, 56, 70
6, 76680, Note_on_c, 9, 63, 90
6, 76730, Note_off_c, 9, 63, 64
6, 76730, Note_off_c, 9, 56, 64
6, 76730, Note_off_c, 9, 42, 64
6, 76800, Note_on_c, 9, 42, 115
6, 76800, Note_on_c, 9, 56, 90
6, 76800, Note_on_c, 9, 62, 80
6, 76850, Note_off_c, 9, 62, 64
6, 76850, Note_off_c, 9, 56, 64
6, 76850, Note_off_c, 9, 42, 64
6, 76920, Note_on_c, 9, 42, 100
6, 76920, Note_on_c, 9, 62, 90
6, 76970, Note_off_c, 9, 62, 64
6, 76970, Note_off_c, 9, 42, 64
6, 77040, Note_on_c, 9, 42, 90
6, 77040, Note_on_c, 9, 56, 90
6, 77040, Note_on_c, 9, 63, 108
6, 77090, Note_off_c, 9, 63, 64
6, 77090, Note_off_c, 9, 56, 64
6, 77090, Note_off_c, 9, 42, 64
6, 77160, Note_on_c, 9, 42, 115
6, 77160, Note_on_c, 9, 63, 100
6, 77210, Note_off_c, 9, 63, 64
6, 77210, Note_off_c, 9, 42, 64
6, 77280, Note_on_c, 9, 42, 100
6, 77280, Note_on_c, 9, 56, 90
6, 77280, Note_on_c, 9, 63, 90
6, 77330, Note_off_c, 9, 63, 64
6, 77330, Note_off_c, 9, 56, 64
6, 77330, Note_off_c, 9, 42, 64
6, 77400, Note_on_c, 9, 42, 90
6, 77400, Note_on_c, 9, 62, 100
6, 77450, Note_off_c, 9, 62, 64
6, 77450, Note_off_c, 9, 42, 64
6, 77520, Note_on_c, 9, 42, 115
6, 77520, Note_on_c, 9, 56, 90
6, 77520, Note_on_c, 9, 63, 115
6, 77570, Note_off_c, 9, 63, 64
6, 77570, Note_off_c, 9, 56, 64
6, 77570, Note_off_c, 9, 42, 64
6, 77640, Note_on_c, 9, 42, 100
6, 77640, Note_on_c, 9, 63, 90
6, 77690, Note_off_c, 9, 63, 64
6, 77690, Note_off_c, 9, 42, 64
6, 77760, Note_on_c, 9, 42, 115
6, 77760, Note_on_c, 9, 56, 90
6, 77760, Note_on_c, 9, 62, 80
6, 77810, Note_off_c, 9, 62, 64
6, 77810, Note_off_c, 9, 56, 64
6, 77810, Note_off_c, 9, 42, 64
6, 77880, Note_on_c, 9, 42, 100
6, 77880, Note_on_c, 9, 62, 90
6, 77930, Note_off_c, 9, 62, 64
6, 77930, Note_off_c, 9, 42, 64
6, 78000, Note_on_c, 9, 42, 90
6, 78000, Note_on_c, 9, 56, 90
6, 78000, Note_on_c, 9, 62, 100
6, 78050, Note_off_c, 9, 62, 64
6, 78050, Note_off_c, 9, 56, 64
6, 78050, Note_off_c, 9, 42, 64
6, 78120, Note_on_c, 9, 42, 115
6, 78120, Note_on_c, 9, 63, 100
6, 78170, Note_off_c, 9, 63, 64
6, 78170, Note_off_c, 9, 42, 64
6, 78240, Note_on_c, 9, 42, 100
6, 78240, Note_on_c, 9, 56, 90
6, 78240, Note_on_c, 9, 63, 90
6, 78290, Note_off_c, 9, 63, 64
6, 78290, Note_off_c, 9, 56, 64
6, 78290, Note_off_c, 9, 42, 64
6, 78360, Note_on_c, 9, 42, 90
6, 78360, Note_on_c, 9, 62, 100
6, 78410, Note_off_c, 9, 62, 64
6, 78410, Note_off_c, 9, 42, 64
6, 78480, Note_on_c, 9, 42, 115
6, 78480, Note_on_c, 9, 56, 90
6, 78480, Note_on_c, 9, 63, 115
6, 78530, Note_off_c, 9, 63, 64
6, 78530, Note_off_c, 9, 56, 64
6, 78530, Note_off_c, 9, 42, 64
6, 78600, Note_on_c, 9, 42, 100
6, 78600, Note_on_c, 9, 63, 90
6, 78650, Note_off_c, 9, 63, 64
6, 78650, Note_off_c, 9, 42, 64
6, 78720, Note_on_c, 9, 42, 115
6, 78720, Note_on_c, 9, 56, 90
6, 78720, Note_on_c, 9, 62, 80
6, 78770, Note_off_c, 9, 62, 64
6, 78770, Note_off_c, 9, 56, 64
6, 78770, Note_off_c, 9, 42, 64
6, 78840, Note_on_c, 9, 42, 100
6, 78840, Note_on_c, 9, 62, 90
6, 78890, Note_off_c, 9, 62, 64
6, 78890, Note_off_c, 9, 42, 64
6, 78960, Note_on_c, 9, 42, 90
6, 78960, Note_on_c, 9, 56, 90
6, 78960, Note_on_c, 9, 63, 108
6, 79010, Note_off_c, 9, 63, 64
6, 79010, Note_off_c, 9, 56, 64
6, 79010, Note_off_c, 9, 42, 64
6, 79080, Note_on_c, 9, 42, 115
6, 79080, Note_on_c, 9, 63, 100
6, 79130, Note_off_c, 9, 63, 64
6, 79130, Note_off_c, 9, 42, 64
6, 79200, Note_on_c, 9, 42, 100
6, 79200, Note_on_c, 9, 56, 90
6, 79200, Note_on_c, 9, 63, 90
6, 79250, Note_off_c, 9, 63, 64
6, 79250, Note_off_c, 9, 56, 64
6, 79250, Note_off_c, 9, 42, 64
6, 79320, Note_on_c, 9, 42, 90
6, 79320, Note_on_c, 9, 62, 100
6, 79370, Note_off_c, 9, 62, 64
6, 79370, Note_off_c, 9, 42, 64
6, 79440, Note_on_c, 9, 42, 115
6, 79440, Note_on_c, 9, 56, 90
6, 79440, Note_on_c, 9, 63, 115
6, 79490, Note_off_c, 9, 63, 64
6, 79490, Note_off_c, 9, 56, 64
6, 79490, Note_off_c, 9, 42, 64
6, 79560, Note_on_c, 9, 42, 100
6, 79560, Note_on_c, 9, 63, 90
6, 79610, Note_off_c, 9, 63, 64
6, 79610, Note_off_c, 9, 42, 64
6, 79680, Note_on_c, 9, 42, 115
6, 79680, Note_on_c, 9, 56, 90
6, 79680, Note_on_c, 9, 62, 80
6, 79730, Note_off_c, 9, 62, 64
6, 79730, Note_off_c, 9, 56, 64
6, 79730, Note_off_c, 9, 42, 64
6, 79800, Note_on_c, 9, 42, 100
6, 79800, Note_on_c, 9, 62, 90
6, 79850, Note_off_c, 9, 62, 64
6, 79850, Note_off_c, 9, 42, 64
6, 79920, Note_on_c, 9, 42, 90
6, 79920, Note_on_c, 9, 56, 90
6, 79920, Note_on_c, 9, 63, 108
6, 79970, Note_off_c, 9, 63, 64
6, 79970, Note_off_c, 9, 56, 64
6, 79970, Note_off_c, 9, 42, 64
6, 80040, Note_on_c, 9, 42, 115
6, 80040, Note_on_c, 9, 63, 100
6, 80090, Note_off_c, 9, 63, 64
6, 80090, Note_off_c, 9, 42, 64
6, 80160, Note_on_c, 9, 42, 100
6, 80160, Note_on_c, 9, 56, 90
6, 80160, Note_on_c, 9, 63, 90
6, 80210, Note_off_c, 9, 63, 64
6, 80210, Note_off_c, 9, 56, 64
6, 80210, Note_off_c, 9, 42, 64
6, 80280, Note_on_c, 9, 42, 90
6, 80280, Note_on_c, 9, 63, 90
6, 80330, Note_off_c, 9, 63, 64
6, 80330, Note_off_c, 9, 42, 64
6, 80400, Note_on_c, 9, 42, 115
6, 80400, Note_on_c, 9, 56, 90
6, 80400, Note_on_c, 9, 63, 115
6, 80450, Note_off_c, 9, 63, 64
6, 80450, Note_off_c, 9, 56, 64
6, 80450, Note_off_c, 9, 42, 64
6, 80520, Note_on_c, 9, 42, 100
6, 80520, Note_on_c, 9, 63, 90
6, 80570, Note_off_c, 9, 63, 64
6, 80570, Note_off_c, 9, 42, 64
6, 80640, Note_on_c, 9, 42, 115
6, 80640, Note_on_c, 9, 56, 90
6, 80640, Note_on_c, 9, 62, 80
6, 80690, Note_off_c, 9, 62, 64
6, 80690, Note_off_c, 9, 56, 64
6, 80690, Note_off_c, 9, 42, 64
6, 80760, Note_on_c, 9, 42, 100
6, 80760, Note_on_c, 9, 62, 90
6, 80810, Note_off_c, 9, 62, 64
6, 80810, Note_off_c, 9, 42, 64
6, 80880, Note_on_c, 9, 42, 90
6, 80880, Note_on_c, 9, 56, 90
6, 80880, Note_on_c, 9, 62, 100
6, 80930, Note_off_c, 9, 62, 64
6, 80930, Note_off_c, 9, 56, 64
6, 80930, Note_off_c, 9, 42, 64
6, 81000, Note_on_c, 9, 42, 115
6, 81000, Note_on_c, 9, 63, 100
6, 81050, Note_off_c, 9, 63, 64
6, 81050, Note_off_c, 9, 42, 64
6, 81120, Note_on_c, 9, 42, 100
6, 81120, Note_on_c, 9, 56, 90
6, 81120, Note_on_c, 9, 63, 90
6, 81170, Note_off_c, 9, 63, 64
6, 81170, Note_off_c, 9, 56, 64
6, 81170, Note_off_c, 9, 42, 64
6, 81240, Note_on_c, 9, 42, 90
6, 81240, Note_on_c, 9, 62, 100
6, 81290, Note_off_c, 9, 62, 64
6, 81290, Note_off_c, 9, 42, 64
6, 81360, Note_on_c, 9, 42, 115
6, 81360, Note_on_c, 9, 56, 90
6, 81360, Note_on_c, 9, 63, 115
6, 81410, Note_off_c, 9, 63, 64
6, 81410, Note_off_c, 9, 56, 64
6, 81410, Note_off_c, 9, 42, 64
6, 81480, Note_on_c, 9, 42, 100
6, 81480, Note_on_c, 9, 63, 90
6, 81530, Note_off_c, 9, 63, 64
6, 81530, Note_off_c, 9, 42, 64
6, 81600, Note_on_c, 9, 42, 115
6, 81600, Note_on_c, 9, 56, 90
6, 81600, Note_on_c, 9, 62, 80
6, 81650, Note_off_c, 9, 62, 64
6, 81650, Note_off_c, 9, 56, 64
6, 81650, Note_off_c, 9, 42, 64
6, 81720, Note_on_c, 9, 42, 100
6, 81720, Note_on_c, 9, 62, 90
6, 81770, Note_off_c, 9, 62, 64
6, 81770, Note_off_c, 9, 42, 64
6, 81840, Note_on_c, 9, 42, 90
6, 81840, Note_on_c, 9, 56, 127
6, 81840, Note_on_c, 9, 62, 100
6, 81890, Note_off_c, 9, 62, 64
6, 81890, Note_off_c, 9, 56, 64
6, 81890, Note_off_c, 9, 42, 64
6, 81900, Note_on_c, 9, 56, 115
6, 81950, Note_off_c, 9, 56, 64
6, 81960, Note_on_c, 9, 42, 115
6, 81960, Note_on_c, 9, 56, 100
6, 81960, Note_on_c, 9, 63, 100
6, 82010, Note_off_c, 9, 63, 64
6, 82010, Note_off_c, 9, 56, 64
6, 82010, Note_off_c, 9, 42, 64
6, 82020, Note_on_c, 9, 56, 90
6, 82020, Note_on_c, 9, 63, 60
6, 82070, Note_off_c, 9, 63, 64
6, 82070, Note_off_c, 9, 56, 64
6, 82080, Note_on_c, 9, 42, 100
6, 82080, Note_on_c, 9, 56, 127
6, 82080, Note_on_c, 9, 63, 90
6, 82130, Note_off_c, 9, 63, 64
6, 82130, Note_off_c, 9, 56, 64
6, 82130, Note_off_c, 9, 42, 64
6, 82200, Note_on_c, 9, 42, 90
6, 82200, Note_on_c, 9, 62, 100
6, 82250, Note_off_c, 9, 62, 64
6, 82250, Note_off_c, 9, 42, 64
6, 82260, Note_on_c, 9, 65, 90
6, 82310, Note_off_c, 9, 65, 64
6, 82320, Note_on_c, 9, 42, 115
6, 82320, Note_on_c, 9, 56, 90
6, 82320, Note_on_c, 9, 63, 115
6, 82320, Note_on_c, 9, 65, 80
6, 82370, Note_off_c, 9, 65, 64
6, 82370, Note_off_c, 9, 63, 64
6, 82370, Note_off_c, 9, 56, 64
6, 82370, Note_off_c, 9, 42, 64
6, 82380, Note_on_c, 9, 65, 60
6, 82430, Note_off_c, 9, 65, 64
6, 82440, Note_on_c, 9, 42, 100
6, 82440, Note_on_c, 9, 56, 70
6, 82440, Note_on_c, 9, 63, 90
6, 82440, Note_on_c, 9, 65, 70
6, 82490, Note_off_c, 9, 65, 64
6, 82490, Note_off_c, 9, 63, 64
6, 82490, Note_off_c, 9, 56, 64
6, 82490, Note_off_c, 9, 42, 64
6, 82500, Note_on_c, 9, 65, 50
6, 82550, Note_off_c, 9, 65, 64
6, 82560, Note_on_c, 9, 56, 90
6, 82560, Note_on_c, 9, 62, 80
6, 82560, Note_on_c, 9, 69, 127
6, 82610, Note_off_c, 9, 69, 64
6, 82610, Note_off_c, 9, 62, 64
6, 82610, Note_off_c, 9, 56, 64
6, 82680, Note_on_c, 9, 62, 90
6, 82730, Note_off_c, 9, 62, 64
6, 82800, Note_on_c, 9, 56, 90
6, 82800, Note_on_c, 9, 62, 100
6, 82800, Note_on_c, 9, 69, 127
6, 82850, Note_off_c, 9, 69, 64
6, 82850, Note_off_c, 9, 62, 64
6, 82850, Note_off_c, 9, 56, 64
6, 82920, Note_on_c, 9, 63, 100
6, 82920, Note_on_c, 9, 69, 100
6, 82970, Note_off_c, 9, 69, 64
6, 82970, Note_off_c, 9, 63, 64
6, 83040, Note_on_c, 9, 56, 90
6, 83040, Note_on_c, 9, 63, 90
6, 83040, Note_on_c, 9, 69, 127
6, 83090, Note_off_c, 9, 69, 64
6, 83090, Note_off_c, 9, 63, 64
6, 83090, Note_off_c, 9, 56, 64
6, 83160, Note_on_c, 9, 62, 100
6, 83210, Note_off_c, 9, 62, 64
6, 83280, Note_on_c, 9, 56, 90
6, 83280, Note_on_c, 9, 63, 115
6, 83280, Note_on_c, 9, 69, 127
6, 83330, Note_off_c, 9, 69, 64
6, 83330, Note_off_c, 9, 63, 64
6, 83330, Note_off_c, 9, 56, 64
6, 83400, Note_on_c, 9, 56, 70
6, 83400, Note_on_c, 9, 63, 90
6, 83400, Note_on_c, 9, 69, 100
6, 83450, Note_off_c, 9, 69, 64
6, 83450, Note_off_c, 9, 63, 64
6, 83450, Note_off_c, 9, 56, 64
6, 83520, Note_on_c, 9, 56, 90
6, 83520, Note_on_c, 9, 62, 80
6, 83520, Note_on_c, 9, 69, 127
6, 83570, Note_off_c, 9, 69, 64
6, 83570, Note_off_c, 9, 62, 64
6, 83570, Note_off_c, 9, 56, 64
6, 83640, Note_on_c, 9, 62, 90
6, 83690, Note_off_c, 9, 62, 64
6, 83760, Note_on_c, 9, 56, 90
6, 83760, Note_on_c, 9, 62, 100
6, 83760, Note_on_c, 9, 69, 127
6, 83810, Note_off_c, 9, 69, 64
6, 83810, Note_off_c, 9, 62, 64
6, 83810, Note_off_c, 9, 56, 64
6, 83880, Note_on_c, 9, 63, 100
6, 83880, Note_on_c, 9, 69, 100
6, 83930, Note_off_c, 9, 69, 64
6, 83930, Note_off_c, 9, 63, 64
6, 84000, Note_on_c, 9, 56, 90
6, 84000, Note_on_c, 9, 63, 90
6, 84000, Note_on_c, 9, 69, 127
6, 84050, Note_off_c, 9, 69, 64
6, 84050, Note_off_c, 9, 63, 64
6, 84050, Note_off_c, 9, 56, 64
6, 84120, Note_on_c, 9, 62, 100
6, 84170, Note_off_c, 9, 62, 64
6, 84240, Note_on_c, 9, 56, 90
6, 84240, Note_on_c, 9, 63, 115
6, 84240, Note_on_c, 9, 69, 127
6, 84290, Note_off_c, 9, 69, 64
6, 84290, Note_off_c, 9, 63, 64
6, 84290, Note_off_c, 9, 56, 64
6, 84360, Note_on_c, 9, 56, 70
6, 84360, Note_on_c, 9, 63, 90
6, 84360, Note_on_c, 9, 69, 100
6, 84410, Note_off_c, 9, 69, 64
6, 84410, Note_off_c, 9, 63, 64
6, 84410, Note_off_c, 9, 56, 64
6, 84480, Note_on_c, 9, 56, 90
6, 84480, Note_on_c, 9, 62, 80
6, 84480, Note_on_c, 9, 69, 127
6, 84530, Note_off_c, 9, 69, 64
6, 84530, Note_off_c, 9, 62, 64
6, 84530, Note_off_c, 9, 56, 64
6, 84600, Note_on_c, 9, 62, 90
6, 84650, Note_off_c, 9, 62, 64
6, 84720, Note_on_c, 9, 56, 90
6, 84720, Note_on_c, 9, 63, 108
6, 84720, Note_on_c, 9, 69, 127
6, 84770, Note_off_c, 9, 69, 64
6, 84770, Note_off_c, 9, 63, 64
6, 84770, Note_off_c, 9, 56, 64
6, 84840, Note_on_c, 9, 63, 100
6, 84840, Note_on_c, 9, 69, 100
6, 84890, Note_off_c, 9, 69, 64
6, 84890, Note_off_c, 9, 63, 64
6, 84960, Note_on_c, 9, 56, 90
6, 84960, Note_on_c, 9, 63, 90
6, 84960, Note_on_c, 9, 69, 127
6, 85010, Note_off_c, 9, 69, 64
6, 85010, Note_off_c, 9, 63, 64
6, 85010, Note_off_c, 9, 56, 64
6, 85080, Note_on_c, 9, 62, 100
6, 85130, Note_off_c, 9, 62, 64
6, 85200, Note_on_c, 9, 56, 90
6, 85200, Note_on_c, 9, 63, 115
6, 85200, Note_on_c, 9, 69, 127
6, 85250, Note_off_c, 9, 69, 64
6, 85250, Note_off_c, 9, 63, 64
6, 85250, Note_off_c, 9, 56, 64
6, 85320, Note_on_c, 9, 63, 90
6, 85320, Note_on_c, 9, 69, 100
6, 85370, Note_off_c, 9, 69, 64
6, 85370, Note_off_c, 9, 63, 64
6, 85440, Note_on_c, 9, 56, 90
6, 85440, Note_on_c, 9, 62, 80
6, 85440, Note_on_c, 9, 69, 127
6, 85490, Note_off_c, 9, 69, 64
6, 85490, Note_off_c, 9, 62, 64
6, 85490, Note_off_c, 9, 56, 64
6, 85560, Note_on_c, 9, 62, 90
6, 85610, Note_off_c, 9, 62, 64
6, 85680, Note_on_c, 9, 56, 90
6, 85680, Note_on_c, 9, 62, 100
6, 85680, Note_on_c, 9, 69, 127
6, 85730, Note_off_c, 9, 69, 64
6, 85730, Note_off_c, 9, 62, 64
6, 85730, Note_off_c, 9, 56, 64
6, 85740, Note_on_c, 9, 69, 115
6, 85790, Note_off_c, 9, 69, 64
6, 85800, Note_on_c, 9, 63, 100
6, 85800, Note_on_c, 9, 69, 100
6, 85850, Note_off_c, 9, 69, 64
6, 85850, Note_off_c, 9, 63, 64
6, 85860, Note_on_c, 9, 63, 60
6, 85860, Note_on_c, 9, 69, 90
6, 85910, Note_off_c, 9, 69, 64
6, 85910, Note_off_c, 9, 63, 64
6, 85920, Note_on_c, 9, 56, 90
6, 85920, Note_on_c, 9, 63, 90
6, 85920, Note_on_c, 9, 69, 127
6, 85970, Note_off_c, 9, 69, 64
6, 85970, Note_off_c, 9, 63, 64
6, 85970, Note_off_c, 9, 56, 64
6, 86040, Note_on_c, 9, 62, 100
6, 86090, Note_off_c, 9, 62, 64
6, 86160, Note_on_c, 9, 56, 90
6, 86160, Note_on_c, 9, 63, 115
6, 86160, Note_on_c, 9, 69, 127
6, 86210, Note_off_c, 9, 69, 64
6, 86210, Note_off_c, 9, 63, 64
6, 86210, Note_off_c, 9, 56, 64
6, 86280, Note_on_c, 9, 56, 70
6, 86280, Note_on_c, 9, 63, 90
6, 86280, Note_on_c, 9, 69, 100
6, 86330, Note_off_c, 9, 69, 64
6, 86330, Note_off_c, 9, 63, 64
6, 86330, Note_off_c, 9, 56, 64
6, 86400, Note_on_c, 9, 56, 90
6, 86400, Note_on_c, 9, 62, 80
6, 86400, Note_on_c, 9, 69, 127
6, 86450, Note_off_c, 9, 69, 64
6, 86450, Note_off_c, 9, 62, 64
6, 86450, Note_off_c, 9, 56, 64
6, 86520, Note_on_c, 9, 62, 90
6, 86570, Note_off_c, 9, 62, 64
6, 86640, Note_on_c, 9, 56, 90
6, 86640, Note_on_c, 9, 63, 108
6, 86640, Note_on_c, 9, 69, 127
6, 86690, Note_off_c, 9, 69, 64
6, 86690, Note_off_c, 9, 63, 64
6, 86690, Note_off_c, 9, 56, 64
6, 86760, Note_on_c, 9, 63, 100
6, 86760, Note_on_c, 9, 69, 100
6, 86810, Note_off_c, 9, 69, 64
6, 86810, Note_off_c, 9, 63, 64
6, 86880, Note_on_c, 9, 56, 90
6, 86880, Note_on_c, 9, 63, 90
6, 86880, Note_on_c, 9, 69, 127
6, 86930, Note_off_c, 9, 69, 64
6, 86930, Note_off_c, 9, 63, 64
6, 86930, Note_off_c, 9, 56, 64
6, 87000, Note_on_c, 9, 62, 100
6, 87050, Note_off_c, 9, 62, 64
6, 87120, Note_on_c, 9, 56, 90
6, 87120, Note_on_c, 9, 63, 115
6, 87120, Note_on_c, 9, 69, 127
6, 87170, Note_off_c, 9, 69, 64
6, 87170, Note_off_c, 9, 63, 64
6, 87170, Note_off_c, 9, 56, 64
6, 87240, Note_on_c, 9, 63, 90
6, 87240, Note_on_c, 9, 69, 100
6, 87290, Note_off_c, 9, 69, 64
6, 87290, Note_off_c, 9, 63, 64
6, 87360, Note_on_c, 9, 56, 90
6, 87360, Note_on_c, 9, 62, 80
6, 87360, Note_on_c, 9, 69, 127
6, 87410, Note_off_c, 9, 69, 64
6, 87410, Note_off_c, 9, 62, 64
6, 87410, Note_off_c, 9, 56, 64
6, 87480, Note_on_c, 9, 62, 90
6, 87530, Note_off_c, 9, 62, 64
6, 87600, Note_on_c, 9, 56, 90
6, 87600, Note_on_c, 9, 62, 100
6, 87600, Note_on_c, 9, 69, 127
6, 87650, Note_off_c, 9, 69, 64
6, 87650, Note_off_c, 9, 62, 64
6, 87650, Note_off_c, 9, 56, 64
6, 87720, Note_on_c, 9, 63, 100
6, 87720, Note_on_c, 9, 69, 100
6, 87770, Note_off_c, 9, 69, 64
6, 87770, Note_off_c, 9, 63, 64
6, 87840, Note_on_c, 9, 56, 90
6, 87840, Note_on_c, 9, 63, 90
6, 87840, Note_on_c, 9, 69, 127
6, 87890, Note_off_c, 9, 69, 64
6, 87890, Note_off_c, 9, 63, 64
6, 87890, Note_off_c, 9, 56, 64
6, 87960, Note_on_c, 9, 62, 100
6, 88010, Note_off_c, 9, 62, 64
6, 88020, Note_on_c, 9, 62, 80
6, 88070, Note_off_c, 9, 62, 64
6, 88080, Note_on_c, 9, 56, 90
6, 88080, Note_on_c, 9, 63, 115
6, 88080, Note_on_c, 9, 69, 127
6, 88130, Note_off_c, 9, 69, 64
6, 88130, Note_off_c, 9, 63, 64
6, 88130, Note_off_c, 9, 56, 64
6, 88200, Note_on_c, 9, 56, 70
6, 88200, Note_on_c, 9, 63, 90
6, 88200, Note_on_c, 9, 69, 100
6, 88250, Note_off_c, 9, 69, 64
6, 88250, Note_off_c, 9, 63, 64
6, 88250, Note_off_c, 9, 56, 64
6, 88320, Note_on_c, 9, 56, 90
6, 88320, Note_on_c, 9, 62, 80
6, 88320, Note_on_c, 9, 69, 127
6, 88370, Note_off_c, 9, 69, 64
6, 88370, Note_off_c, 9, 62, 64
6, 88370, Note_off_c, 9, 56, 64
6, 88440, Note_on_c, 9, 62, 90
6, 88490, Note_off_c, 9, 62, 64
6, 88560, Note_on_c, 9, 56, 90
6, 88560, Note_on_c, 9, 63, 108
6, 88560, Note_on_c, 9, 69, 127
6, 88610, Note_off_c, 9, 69, 64
6, 88610, Note_off_c, 9, 63, 64
6, 88610, Note_off_c, 9, 56, 64
6, 88680, Note_on_c, 9, 63, 100
6, 88680, Note_on_c, 9, 69, 100
6, 88730, Note_off_c, 9, 69, 64
6, 88730, Note_off_c, 9, 63, 64
6, 88800, Note_on_c, 9, 56, 90
6, 88800, Note_on_c, 9, 63, 90
6, 88800, Note_on_c, 9, 69, 127
6, 88850, Note_off_c, 9, 69, 64
6, 88850, Note_off_c, 9, 63, 64
6, 88850, Note_off_c, 9, 56, 64
6, 88920, Note_on_c, 9, 62, 100
6, 88970, Note_off_c, 9, 62, 64
6, 88980, Note_on_c, 9, 63, 70
6, 89030, Note_off_c, 9, 63, 64
6, 89040, Note_on_c, 9, 56, 90
6, 89040, Note_on_c, 9, 63, 115
6, 89040, Note_on_c, 9, 69, 127
6, 89090, Note_off_c, 9, 69, 64
6, 89090, Note_off_c, 9, 63, 64
6, 89090, Note_off_c, 9, 56, 64
6, 89160, Note_on_c, 9, 63, 90
6, 89160, Note_on_c, 9, 69, 100
6, 89210, Note_off_c, 9, 69, 64
6, 89210, Note_off_c, 9, 63, 64
6, 89280, Note_on_c, 9, 56, 90
6, 89280, Note_on_c, 9, 62, 80
6, 89280, Note_on_c, 9, 65, 90
6, 89280, Note_on_c, 9, 69, 127
6, 89330, Note_off_c, 9, 69, 64
6, 89330, Note_off_c, 9, 65, 64
6, 89330, Note_off_c, 9, 62, 64
6, 89330, Note_off_c, 9, 56, 64
6, 89340, Note_on_c, 9, 65, 60
6, 89390, Note_off_c, 9, 65, 64
6, 89400, Note_on_c, 9, 62, 90
6, 89450, Note_off_c, 9, 62, 64
6, 89460, Note_on_c, 9, 65, 70
6, 89510, Note_off_c, 9, 65, 64
6, 89520, Note_on_c, 9, 56, 90
6, 89520, Note_on_c, 9, 62, 100
6, 89520, Note_on_c, 9, 69, 127
6, 89570, Note_off_c, 9, 69, 64
6, 89570, Note_off_c, 9, 62, 64
6, 89570, Note_off_c, 9, 56, 64
6, 89580, Note_on_c, 9, 65, 80
6, 89630, Note_off_c, 9, 65, 64
6, 89640, Note_on_c, 9, 63, 100
6, 89640, Note_on_c, 9, 69, 100
6, 89690, Note_off_c, 9, 69, 64
6, 89690, Note_off_c, 9, 63, 64
6, 89700, Note_on_c, 9, 63, 60
6, 89700, Note_on_c, 9, 65, 90
6, 89750, Note_off_c, 9, 65, 64
6, 89750, Note_off_c, 9, 63, 64
6, 89760, Note_on_c, 9, 56, 90
6, 89760, Note_on_c, 9, 63, 90
6, 89760, Note_on_c, 9, 69, 127
6, 89810, Note_off_c, 9, 69, 64
6, 89810, Note_off_c, 9, 63, 64
6, 89810, Note_off_c, 9, 56, 64
6, 89820, Note_on_c, 9, 65, 60
6, 89870, Note_off_c, 9, 65, 64
6, 89880, Note_on_c, 9, 62, 100
6, 89880, Note_on_c, 9, 65, 80
6, 89930, Note_off_c, 9, 65, 64
6, 89930, Note_off_c, 9, 62, 64
6, 89940, Note_on_c, 9, 65, 70
6, 89990, Note_off_c, 9, 65, 64
6, 90000, Note_on_c, 9, 56, 90
6, 90000, Note_on_c, 9, 63, 115
6, 90000, Note_on_c, 9, 65, 80
6, 90000, Note_on_c, 9, 69, 127
6, 90050, Note_off_c, 9, 69, 64
6, 90050, Note_off_c, 9, 65, 64
6, 90050, Note_off_c, 9, 63, 64
6, 90050, Note_off_c, 9, 56, 64
6, 90120, Note_on_c, 9, 56, 70
6, 90120, Note_on_c, 9, 63, 90
6, 90120, Note_on_c, 9, 65, 90
6, 90120, Note_on_c, 9, 69, 100
6, 90170, Note_off_c, 9, 69, 64
6, 90170, Note_off_c, 9, 65, 64
6, 90170, Note_off_c, 9, 63, 64
6, 90170, Note_off_c, 9, 56, 64
6, 90240, Note_on_c, 9, 56, 90
6, 90240, Note_on_c, 9, 62, 80
6, 90240, Note_on_c, 9, 69, 127
6, 90290, Note_off_c, 9, 69, 64
6, 90290, Note_off_c, 9, 62, 64
6, 90290, Note_off_c, 9, 56, 64
6, 90360, Note_on_c, 9, 62, 90
6, 90410, Note_off_c, 9, 62, 64
6, 90480, Note_on_c, 9, 56, 90
6, 90480, Note_on_c, 9, 62, 100
6, 90480, Note_on_c, 9, 69, 127
6, 90530, Note_off_c, 9, 69, 64
6, 90530, Note_off_c, 9, 62, 64
6, 90530, Note_off_c, 9, 56, 64
6, 90600, Note_on_c, 9, 63, 100
6, 90600, Note_on_c, 9, 69, 100
6, 90650, Note_off_c, 9, 69, 64
6, 90650, Note_off_c, 9, 63, 64
6, 90720, Note_on_c, 9, 56, 90
6, 90720, Note_on_c, 9, 63, 90
6, 90720, Note_on_c, 9, 69, 127
6, 90770, Note_off_c, 9, 69, 64
6, 90770, Note_off_c, 9, 63, 64
6, 90770, Note_off_c, 9, 56, 64
6, 90840, Note_on_c, 9, 62, 100
6, 90890, Note_off_c, 9, 62, 64
6, 90960, Note_on_c, 9, 56, 90
6, 90960, Note_on_c, 9, 63, 115
6, 90960, Note_on_c, 9, 69, 127
6, 91010, Note_off_c, 9, 69, 64
6, 91010, Note_off_c, 9, 63, 64
6, 91010, Note_off_c, 9, 56, 64
6, 91080, Note_on_c, 9, 63, 90
6, 91080, Note_on_c, 9, 69, 100
6, 91130, Note_off_c, 9, 69, 64
6, 91130, Note_off_c, 9, 63, 64
6, 91200, Note_on_c, 9, 56, 90
6, 91200, Note_on_c, 9, 62, 80
6, 91200, Note_on_c, 9, 69, 127
6, 91250, Note_off_c, 9, 69, 64
6, 91250, Note_off_c, 9, 62, 64
6, 91250, Note_off_c, 9, 56, 64
6, 91320, Note_on_c, 9, 62, 90
6, 91370, Note_off_c, 9, 62, 64
6, 91440, Note_on_c, 9, 56, 90
6, 91440, Note_on_c, 9, 63, 108
6, 91440, Note_on_c, 9, 69, 127
6, 91490, Note_off_c, 9, 69, 64
6, 91490, Note_off_c, 9, 63, 64
6, 91490, Note_off_c, 9, 56, 64
6, 91560, Note_on_c, 9, 63, 100
6, 91560, Note_on_c, 9, 69, 100
6, 91610, Note_off_c, 9, 69, 64
6, 91610, Note_off_c, 9, 63, 64
6, 91680, Note_on_c, 9, 56, 90
6, 91680, Note_on_c, 9, 63, 90
6, 91680, Note_on_c, 9, 69, 127
6, 91730, Note_off_c, 9, 69, 64
6, 91730, Note_off_c, 9, 63, 64
6, 91730, Note_off_c, 9, 56, 64
6, 91800, Note_on_c, 9, 62, 100
6, 91850, Note_off_c, 9, 62, 64
6, 91860, Note_on_c, 9, 62, 80
6, 91910, Note_off_c, 9, 62, 64
6, 91920, Note_on_c, 9, 56, 90
6, 91920, Note_on_c, 9, 63, 115
6, 91920, Note_on_c, 9, 69, 127
6, 91970, Note_off_c, 9, 69, 64
6, 91970, Note_off_c, 9, 63, 64
6, 91970, Note_off_c, 9, 56, 64
6, 92040, Note_on_c, 9, 56, 70
6, 92040, Note_on_c, 9, 63, 90
6, 92040, Note_on_c, 9, 69, 100
6, 92090, Note_off_c, 9, 69, 64
6, 92090, Note_off_c, 9, 63, 64
6, 92090, Note_off_c, 9, 56, 64
6, 92160, Note_on_c, 9, 56, 90
6, 92160, Note_on_c, 9, 62, 80
6, 92160, Note_on_c, 9, 69, 127
6, 92210, Note_off_c, 9, 69, 64
6, 92210, Note_off_c, 9, 62, 64
6, 92210, Note_off_c, 9, 56, 64
6, 92280, Note_on_c, 9, 63, 90
6, 92330, Note_off_c, 9, 63, 64
6, 92400, Note_on_c, 9, 56, 90
6, 92400, Note_on_c, 9, 62, 100
6, 92400, Note_on_c, 9, 69, 127
6, 92450, Note_off_c, 9, 69, 64
6, 92450, Note_off_c, 9, 62, 64
6, 92450, Note_off_c, 9, 56, 64
6, 92520, Note_on_c, 9, 63, 100
6, 92520, Note_on_c, 9, 69, 100
6, 92570, Note_off_c, 9, 69, 64
6, 92570, Note_off_c, 9, 63, 64
6, 92640, Note_on_c, 9, 56, 90
6, 92640, Note_on_c, 9, 63, 90
6, 92640, Note_on_c, 9, 69, 127
6, 92690, Note_off_c, 9, 69, 64
6, 92690, Note_off_c, 9, 63, 64
6, 92690, Note_off_c, 9, 56, 64
6, 92760, Note_on_c, 9, 62, 100
6, 92810, Note_off_c, 9, 62, 64
6, 92880, Note_on_c, 9, 56, 90
6, 92880, Note_on_c, 9, 63, 115
6, 92880, Note_on_c, 9, 69, 127
6, 92930, Note_off_c, 9, 69, 64
6, 92930, Note_off_c, 9, 63, 64
6, 92930, Note_off_c, 9, 56, 64
6, 93000, Note_on_c, 9, 63, 90
6, 93000, Note_on_c, 9, 69, 100
6, 93050, Note_off_c, 9, 69, 64
6, 93050, Note_off_c, 9, 63, 64
6, 93120, Note_on_c, 9, 56, 90
6, 93120, Note_on_c, 9, 62, 80
6, 93120, Note_on_c, 9, 69, 127
6, 93170, Note_off_c, 9, 69, 64
6, 93170, Note_off_c, 9, 62, 64
6, 93170, Note_off_c, 9, 56, 64
6, 93240, Note_on_c, 9, 62, 90
6, 93290, Note_off_c, 9, 62, 64
6, 93360, Note_on_c, 9, 56, 90
6, 93360, Note_on_c, 9, 62, 100
6, 93360, Note_on_c, 9, 69, 127
6, 93410, Note_off_c, 9, 69, 64
6, 93410, Note_off_c, 9, 62, 64
6, 93410, Note_off_c, 9, 56, 64
6, 93480, Note_on_c, 9, 63, 100
6, 93480, Note_on_c, 9, 69, 100
6, 93530, Note_off_c, 9, 69, 64
6, 93530, Note_off_c, 9, 63, 64
6, 93600, Note_on_c, 9, 56, 90
6, 93600, Note_on_c, 9, 63, 90
6, 93600, Note_on_c, 9, 69, 127
6, 93650, Note_off_c, 9, 69, 64
6, 93650, Note_off_c, 9, 63, 64
6, 93650, Note_off_c, 9, 56, 64
6, 93720, Note_on_c, 9, 62, 100
6, 93770, Note_off_c, 9, 62, 64
6, 93840, Note_on_c, 9, 56, 90
6, 93840, Note_on_c, 9, 63, 115
6, 93840, Note_on_c, 9, 69, 127
6, 93890, Note_off_c, 9, 69, 64
6, 93890, Note_off_c, 9, 63, 64
6, 93890, Note_off_c, 9, 56, 64
6, 93960, Note_on_c, 9, 56, 70
6, 93960, Note_on_c, 9, 63, 90
6, 93960, Note_on_c, 9, 69, 100
6, 94010, Note_off_c, 9, 69, 64
6, 94010, Note_off_c, 9, 63, 64
6, 94010, Note_off_c, 9, 56, 64
6, 94080, Note_on_c, 9, 56, 90
6, 94080, Note_on_c, 9, 62, 80
6, 94080, Note_on_c, 9, 69, 127
6, 94130, Note_off_c, 9, 69, 64
6, 94130, Note_off_c, 9, 62, 64
6, 94130, Note_off_c, 9, 56, 64
6, 94200, Note_on_c, 9, 62, 90
6, 94250, Note_off_c, 9, 62, 64
6, 94320, Note_on_c, 9, 56, 90
6, 94320, Note_on_c, 9, 62, 100
6, 94320, Note_on_c, 9, 69, 127
6, 94370, Note_off_c, 9, 69, 64
6, 94370, Note_off_c, 9, 62, 64
6, 94370, Note_off_c, 9, 56, 64
6, 94440, Note_on_c, 9, 63, 100
6, 94440, Note_on_c, 9, 69, 100
6, 94490, Note_off_c, 9, 69, 64
6, 94490, Note_off_c, 9, 63, 64
6, 94560, Note_on_c, 9, 56, 90
6, 94560, Note_on_c, 9, 63, 90
6, 94560, Note_on_c, 9, 69, 127
6, 94610, Note_off_c, 9, 69, 64
6, 94610, Note_off_c, 9, 63, 64
6, 94610, Note_off_c, 9, 56, 64
6, 94680, Note_on_c, 9, 62, 100
6, 94730, Note_off_c, 9, 62, 64
6, 94800, Note_on_c, 9, 56, 90
6, 94800, Note_on_c, 9, 63, 115
6, 94800, Note_on_c, 9, 69, 127
6, 94850, Note_off_c, 9, 69, 64
6, 94850, Note_off_c, 9, 63, 64
6, 94850, Note_off_c, 9, 56, 64
6, 94920, Note_on_c, 9, 63, 90
6, 94920, Note_on_c, 9, 69, 100
6, 94970, Note_off_c, 9, 69, 64
6, 94970, Note_off_c, 9, 63, 64
6, 95040, Note_on_c, 9, 56, 90
6, 95040, Note_on_c, 9, 62, 80
6, 95040, Note_on_c, 9, 69, 127
6, 95090, Note_off_c, 9, 69, 64
6, 95090, Note_off_c, 9, 62, 64
6, 95090, Note_off_c, 9, 56, 64
6, 95160, Note_on_c, 9, 62, 90
6, 95210, Note_off_c, 9, 62, 64
6, 95280, Note_on_c, 9, 56, 90
6, 95280, Note_on_c, 9, 63, 108
6, 95280, Note_on_c, 9, 69, 127
6, 95330, Note_off_c, 9, 69, 64
6, 95330, Note_off_c, 9, 63, 64
6, 95330, Note_off_c, 9, 56, 64
6, 95400, Note_on_c, 9, 63, 100
6, 95400, Note_on_c, 9, 69, 100
6, 95450, Note_off_c, 9, 69, 64
6, 95450, Note_off_c, 9, 63, 64
6, 95520, Note_on_c, 9, 56, 90
6, 95520, Note_on_c, 9, 63, 90
6, 95520, Note_on_c, 9, 69, 127
6, 95570, Note_off_c, 9, 69, 64
6, 95570, Note_off_c, 9, 63, 64
6, 95570, Note_off_c, 9, 56, 64
6, 95640, Note_on_c, 9, 63, 90
6, 95690, Note_off_c, 9, 63, 64
6, 95760, Note_on_c, 9, 56, 90
6, 95760, Note_on_c, 9, 63, 115
6, 95760, Note_on_c, 9, 69, 127
6, 95810, Note_off_c, 9, 69, 64
6, 95810, Note_off_c, 9, 63, 64
6, 95810, Note_off_c, 9, 56, 64
6, 95880, Note_on_c, 9, 63, 90
6, 95880, Note_on_c, 9, 69, 100
6, 95930, Note_off_c, 9, 69, 64
6, 95930, Note_off_c, 9, 63, 64
6, 96000, Note_on_c, 9, 56, 90
6, 96000, Note_on_c, 9, 62, 80
6, 96000, Note_on_c, 9, 69, 127
6, 96050, Note_off_c, 9, 69, 64
6, 96050, Note_off_c, 9, 62, 64
6, 96050, Note_off_c, 9, 56, 64
6, 96120, Note_on_c, 9, 62, 90
6, 96170, Note_off_c, 9, 62, 64
6, 96240, Note_on_c, 9, 56, 90
6, 96240, Note_on_c, 9, 62, 100
6, 96240, Note_on_c, 9, 69, 127
6, 96290, Note_off_c, 9, 69, 64
6, 96290, Note_off_c, 9, 62, 64
6, 96290, Note_off_c, 9, 56, 64
6, 96360, Note_on_c, 9, 63, 100
6, 96360, Note_on_c, 9, 69, 100
6, 96410, Note_off_c, 9, 69, 64
6, 96410, Note_off_c, 9, 63, 64
6, 96480, Note_on_c, 9, 56, 90
6, 96480, Note_on_c, 9, 63, 90
6, 96480, Note_on_c, 9, 69, 127
6, 96530, Note_off_c, 9, 69, 64
6, 96530, Note_off_c, 9, 63, 64
6, 96530, Note_off_c, 9, 56, 64
6, 96600, Note_on_c, 9, 62, 100
6, 96650, Note_off_c, 9, 62, 64
6, 96720, Note_on_c, 9, 56, 90
6, 96720, Note_on_c, 9, 63, 115
6, 96720, Note_on_c, 9, 69, 127
6, 96770, Note_off_c, 9, 69, 64
6, 96770, Note_off_c, 9, 63, 64
6, 96770, Note_off_c, 9, 56, 64
6, 96840, Note_on_c, 9, 63, 90
6, 96840, Note_on_c, 9, 69, 100
6, 96890, Note_off_c, 9, 69, 64
6, 96890, Note_off_c, 9, 63, 64
6, 96960, Note_on_c, 9, 56, 90
6, 96960, Note_on_c, 9, 62, 80
6, 96960, Note_on_c, 9, 69, 127
6, 97010, Note_off_c, 9, 69, 64
6, 97010, Note_off_c, 9, 62, 64
6, 97010, Note_off_c, 9, 56, 64
6, 97080, Note_on_c, 9, 42, 110
6, 97080, Note_on_c, 9, 62, 90
6, 97130, Note_off_c, 9, 62, 64
6, 97130, Note_off_c, 9, 42, 64
6, 97200, Note_on_c, 9, 56, 90
6, 97200, Note_on_c, 9, 62, 100
6, 97200, Note_on_c, 9, 69, 127
6, 97250, Note_off_c, 9, 69, 64
6, 97250, Note_off_c, 9, 62, 64
6, 97250, Note_off_c, 9, 56, 64
6, 97260, Note_on_c, 9, 63, 60
6, 97310, Note_off_c, 9, 63, 64
6, 97320, Note_on_c, 9, 63, 100
6, 97320, Note_on_c, 9, 69, 100
6, 97370, Note_off_c, 9, 69, 64
6, 97370, Note_off_c, 9, 63, 64
6, 97380, Note_on_c, 9, 63, 60
6, 97430, Note_off_c, 9, 63, 64
6, 97440, Note_on_c, 9, 56, 90
6, 97440, Note_on_c, 9, 63, 90
6, 97440, Note_on_c, 9, 69, 127
6, 97490, Note_off_c, 9, 69, 64
6, 97490, Note_off_c, 9, 63, 64
6, 97490, Note_off_c, 9, 56, 64
6, 97500, Note_on_c, 9, 63, 115
6, 97500, Note_on_c, 9, 65, 70
6, 97550, Note_off_c, 9, 65, 64
6, 97550, Note_off_c, 9, 63, 64
6, 97560, Note_on_c, 9, 62, 100
6, 97610, Note_off_c, 9, 62, 64
6, 97620, Note_on_c, 9, 62, 127
6, 97670, Note_off_c, 9, 62, 64
6, 97680, Note_on_c, 9, 56, 90
6, 97680, Note_on_c, 9, 63, 115
6, 97680, Note_on_c, 9, 69, 127
6, 97730, Note_off_c, 9, 69, 64
6, 97730, Note_off_c, 9, 63, 64
6, 97730, Note_off_c, 9, 56, 64
6, 97740, Note_on_c, 9, 63, 115
6, 97790, Note_off_c, 9, 63, 64
6, 97800, Note_on_c, 9, 56, 70
6, 97800, Note_on_c, 9, 63, 100
6, 97800, Note_on_c, 9, 65, 80
6, 97800, Note_on_c, 9, 69, 100
6, 97850, Note_off_c, 9, 69, 64
6, 97850, Note_off_c, 9, 65, 64
6, 97850, Note_off_c, 9, 63, 64
6, 97850, Note_off_c, 9, 56, 64
6, 97860, Note_on_c, 9, 63, 90
6, 97860, Note_on_c, 9, 65, 70
6, 97910, Note_off_c, 9, 65, 64
6, 97910, Note_off_c, 9, 63, 64
6, 97920, Note_on_c, 9, 56, 90
6, 97920, Note_on_c, 9, 62, 80
6, 97920, Note_on_c, 9, 69, 127
6, 97970, Note_off_c, 9, 69, 64
6, 97970, Note_off_c, 9, 62, 64
6, 97970, Note_off_c, 9, 56, 64
6, 98040, Note_on_c, 9, 62, 90
6, 98090, Note_off_c, 9, 62, 64
6, 98160, Note_on_c, 9, 56, 90
6, 98160, Note_on_c, 9, 62, 100
6, 98160, Note_on_c, 9, 69, 127
6, 98210, Note_off_c, 9, 69, 64
6, 98210, Note_off_c, 9, 62, 64
6, 98210, Note_off_c, 9, 56, 64
6, 98280, Note_on_c, 9, 63, 100
6, 98280, Note_on_c, 9, 69, 100
6, 98330, Note_off_c, 9, 69, 64
6, 98330, Note_off_c, 9, 63, 64
6, 98400, Note_on_c, 9, 56, 90
6, 98400, Note_on_c, 9, 63, 90
6, 98400, Note_on_c, 9, 69, 127
6, 98450, Note_off_c, 9, 69, 64
6, 98450, Note_off_c, 9, 63, 64
6, 98450, Note_off_c, 9, 56, 64
6, 98520, Note_on_c, 9, 62, 100
6, 98570, Note_off_c, 9, 62, 64
6, 98640, Note_on_c, 9, 56, 90
6, 98640, Note_on_c, 9, 63, 115
6, 98640, Note_on_c, 9, 69, 127
6, 98690, Note_off_c, 9, 69, 64
6, 98690, Note_off_c, 9, 63, 64
6, 98690, Note_off_c, 9, 56, 64
6, 98760, Note_on_c, 9, 63, 90
6, 98760, Note_on_c, 9, 69, 100
6, 98810, Note_off_c, 9, 69, 64
6, 98810, Note_off_c, 9, 63, 64
6, 98880, Note_on_c, 9, 56, 90
6, 98880, Note_on_c, 9, 62, 80
6, 98880, Note_on_c, 9, 69, 127
6, 98930, Note_off_c, 9, 69, 64
6, 98930, Note_off_c, 9, 62, 64
6, 98930, Note_off_c, 9, 56, 64
6, 99000, Note_on_c, 9, 62, 90
6, 99050, Note_off_c, 9, 62, 64
6, 99120, Note_on_c, 9, 56, 90
6, 99120, Note_on_c, 9, 62, 100
6, 99120, Note_on_c, 9, 69, 127
6, 99170, Note_off_c, 9, 69, 64
6, 99170, Note_off_c, 9, 62, 64
6, 99170, Note_off_c, 9, 56, 64
6, 99240, Note_on_c, 9, 63, 100
6, 99240, Note_on_c, 9, 69, 100
6, 99290, Note_off_c, 9, 69, 64
6, 99290, Note_off_c, 9, 63, 64
6, 99360, Note_on_c, 9, 56, 90
6, 99360, Note_on_c, 9, 63, 90
6, 99360, Note_on_c, 9, 69, 127
6, 99410, Note_off_c, 9, 69, 64
6, 99410, Note_off_c, 9, 63, 64
6, 99410, Note_off_c, 9, 56, 64
6, 99480, Note_on_c, 9, 62, 100
6, 99530, Note_off_c, 9, 62, 64
6, 99600, Note_on_c, 9, 56, 90
6, 99600, Note_on_c, 9, 63, 115
6, 99600, Note_on_c, 9, 69, 127
6, 99650, Note_off_c, 9, 69, 64
6, 99650, Note_off_c, 9, 63, 64
6, 99650, Note_off_c, 9, 56, 64
6, 99720, Note_on_c, 9, 63, 90
6, 99720, Note_on_c, 9, 69, 100
6, 99770, Note_off_c, 9, 69, 64
6, 99770, Note_off_c, 9, 63, 64
6, 99840, Note_on_c, 9, 56, 90
6, 99840, Note_on_c, 9, 62, 80
6, 99840, Note_on_c, 9, 69, 127
6, 99890, Note_off_c, 9, 69, 64
6, 99890, Note_off_c, 9, 62, 64
6, 99890, Note_off_c, 9, 56, 64
6, 99960, Note_on_c, 9, 62, 90
6, 100010, Note_off_c, 9, 62, 64
6, 100080, Note_on_c, 9, 56, 90
6, 100080, Note_on_c, 9, 62, 100
6, 100080, Note_on_c, 9, 69, 127
6, 100130, Note_off_c, 9, 69, 64
6, 100130, Note_off_c, 9, 62, 64
6, 100130, Note_off_c, 9, 56, 64
6, 100200, Note_on_c, 9, 63, 100
6, 100200, Note_on_c, 9, 69, 100
6, 100250, Note_off_c, 9, 69, 64
6, 100250, Note_off_c, 9, 63, 64
6, 100320, Note_on_c, 9, 56, 90
6, 100320, Note_on_c, 9, 63, 90
6, 100320, Note_on_c, 9, 69, 127
6, 100370, Note_off_c, 9, 69, 64
6, 100370, Note_off_c, 9, 63, 64
6, 100370, Note_off_c, 9, 56, 64
6, 100440, Note_on_c, 9, 62, 100
6, 100490, Note_off_c, 9, 62, 64
6, 100560, Note_on_c, 9, 56, 90
6, 100560, Note_on_c, 9, 63, 115
6, 100560, Note_on_c, 9, 69, 127
6, 100610, Note_off_c, 9, 69, 64
6, 100610, Note_off_c, 9, 63, 64
6, 100610, Note_off_c, 9, 56, 64
6, 100680, Note_on_c, 9, 63, 90
6, 100680, Note_on_c, 9, 69, 100
6, 100730, Note_off_c, 9, 69, 64
6, 100730, Note_off_c, 9, 63, 64
6, 100800, Note_on_c, 9, 56, 90
6, 100800, Note_on_c, 9, 62, 80
6, 100800, Note_on_c, 9, 69, 127
6, 100850, Note_off_c, 9, 69, 64
6, 100850, Note_off_c, 9, 62, 64
6, 100850, Note_off_c, 9, 56, 64
6, 100920, Note_on_c, 9, 62, 90
6, 100970, Note_off_c, 9, 62, 64
6, 101040, Note_on_c, 9, 56, 90
6, 101040, Note_on_c, 9, 63, 108
6, 101040, Note_on_c, 9, 69, 127
6, 101090, Note_off_c, 9, 69, 64
6, 101090, Note_off_c, 9, 63, 64
6, 101090, Note_off_c, 9, 56, 64
6, 101160, Note_on_c, 9, 63, 100
6, 101160, Note_on_c, 9, 69, 100
6, 101210, Note_off_c, 9, 69, 64
6, 101210, Note_off_c, 9, 63, 64
6, 101280, Note_on_c, 9, 56, 90
6, 101280, Note_on_c, 9, 63, 90
6, 101280, Note_on_c, 9, 69, 127
6, 101330, Note_off_c, 9, 69, 64
6, 101330, Note_off_c, 9, 63, 64
6, 101330, Note_off_c, 9, 56, 64
6, 101400, Note_on_c, 9, 62, 100
6, 101450, Note_off_c, 9, 62, 64
6, 101460, Note_on_c, 9, 62, 80
6, 101510, Note_off_c, 9, 62, 64
6, 101520, Note_on_c, 9, 56, 90
6, 101520, Note_on_c, 9, 63, 115
6, 101520, Note_on_c, 9, 69, 127
6, 101570, Note_off_c, 9, 69, 64
6, 101570, Note_off_c, 9, 63, 64
6, 101570, Note_off_c, 9, 56, 64
6, 101640, Note_on_c, 9, 63, 90
6, 101640, Note_on_c, 9, 69, 100
6, 101690, Note_off_c, 9, 69, 64
6, 101690, Note_off_c, 9, 63, 64
6, 101760, Note_on_c, 9, 42, 115
6, 101760, Note_on_c, 9, 56, 90
6, 101760, Note_on_c, 9, 62, 80
6, 101760, Note_on_c, 9, 69, 100
6, 101810, Note_off_c, 9, 69, 64
6, 101810, Note_off_c, 9, 62, 64
6, 101810, Note_off_c, 9, 56, 64
6, 101810, Note_off_c, 9, 42, 64
6, 101880, Note_on_c, 9, 42, 100
6, 101880, Note_on_c, 9, 62, 90
6, 101880, Note_on_c, 9, 65, 70
6, 101930, Note_off_c, 9, 65, 64
6, 101930, Note_off_c, 9, 62, 64
6, 101930, Note_off_c, 9, 42, 64
6, 102000, Note_on_c, 9, 42, 90
6, 102000, Note_on_c, 9, 56, 127
6, 102000, Note_on_c, 9, 62, 100
6, 102000, Note_on_c, 9, 69, 115
6, 102050, Note_off_c, 9, 69, 64
6, 102050, Note_off_c, 9, 62, 64
6, 102050, Note_off_c, 9, 56, 64
6, 102050, Note_off_c, 9, 42, 64
6, 102060, Note_on_c, 9, 56, 115
6, 102060, Note_on_c, 9, 65, 50
6, 102110, Note_off_c, 9, 65, 64
6, 102110, Note_off_c, 9, 56, 64
6, 102120, Note_on_c, 9, 42, 115
6, 102120, Note_on_c, 9, 56, 100
6, 102120, Note_on_c, 9, 63, 100
6, 102120, Note_on_c, 9, 65, 60
6, 102120, Note_on_c, 9, 69, 90
6, 102170, Note_off_c, 9, 69, 64
6, 102170, Note_off_c, 9, 65, 64
6, 102170, Note_off_c, 9, 63, 64
6, 102170, Note_off_c, 9, 56, 64
6, 102170, Note_off_c, 9, 42, 64
6, 102180, Note_on_c, 9, 56, 90
6, 102180, Note_on_c, 9, 63, 60
6, 102230, Note_off_c, 9, 63, 64
6, 102230, Note_off_c, 9, 56, 64
6, 102240, Note_on_c, 9, 42, 100
6, 102240, Note_on_c, 9, 56, 100
6, 102240, Note_on_c, 9, 63, 90
6, 102240, Note_on_c, 9, 69, 115
6, 102290, Note_off_c, 9, 69, 64
6, 102290, Note_off_c, 9, 63, 64
6, 102290, Note_off_c, 9, 56, 64
6, 102290, Note_off_c, 9, 42, 64
6, 102360, Note_on_c, 9, 42, 90
6, 102360, Note_on_c, 9, 56, 115
6, 102360, Note_on_c, 9, 63, 90
6, 102410, Note_off_c, 9, 63, 64
6, 102410, Note_off_c, 9, 56, 64
6, 102410, Note_off_c, 9, 42, 64
6, 102480, Note_on_c, 9, 42, 115
6, 102480, Note_on_c, 9, 56, 100
6, 102480, Note_on_c, 9, 63, 115
6, 102480, Note_on_c, 9, 69, 127
6, 102530, Note_off_c, 9, 69, 64
6, 102530, Note_off_c, 9, 63, 64
6, 102530, Note_off_c, 9, 56, 64
6, 102530, Note_off_c, 9, 42, 64
6, 102600, Note_on_c, 9, 42, 100
6, 102600, Note_on_c, 9, 56, 115
6, 102600, Note_on_c, 9, 63, 90
6, 102600, Note_on_c, 9, 65, 60
6, 102600, Note_on_c, 9, 69, 100
6, 102650, Note_off_c, 9, 69, 64
6, 102650, Note_off_c, 9, 65, 64
6, 102650, Note_off_c, 9, 63, 64
6, 102650, Note_off_c, 9, 56, 64
6, 102650, Note_off_c, 9, 42, 64
6, 102720, Note_on_c, 9, 42, 127
6, 102720, Note_on_c, 9, 56, 127
6, 102720, Note_on_c, 9, 62, 127
6, 102720, Note_on_c, 9, 65, 90
6, 102720, Note_on_c, 9, 69, 127
6, 102770, Note_off_c, 9, 69, 64
6, 102770, Note_off_c, 9, 65, 64
6, 102770, Note_off_c, 9, 62, 64
6, 102770, Note_off_c, 9, 56, 64
6, 102770, Note_off_c, 9, 42, 64
6, 102780, Note_on_c, 9, 56, 115
6, 102830, Note_off_c, 9, 56, 64
6, 102840, Note_on_c, 9, 42, 115
6, 102840, Note_on_c, 9, 56, 100
6, 102890, Note_off_c, 9, 56, 64
6, 102890, Note_off_c, 9, 42, 64
6, 102900, Note_on_c, 9, 56, 90
6, 102950, Note_off_c, 9, 56, 64
6, 102960, Note_on_c, 9, 42, 127
6, 102960, Note_on_c, 9, 56, 115
6, 102960, Note_on_c, 9, 63, 127
6, 102960, Note_on_c, 9, 62, 127
6, 102960, Note_on_c, 9, 65, 100
6, 102960, Note_on_c, 9, 69, 127
6, 103010, Note_off_c, 9, 69, 64
6, 103010, Note_off_c, 9, 65, 64
6, 103010, Note_off_c, 9, 62, 64
6, 103010, Note_off_c, 9, 63, 64
6, 103010, Note_off_c, 9, 56, 64
6, 103010, Note_off_c, 9, 42, 64
6, 103080, Note_on_c, 9, 42, 127
6, 103080, Note_on_c, 9, 56, 115
6, 103080, Note_on_c, 9, 63, 100
6, 103080, Note_on_c, 9, 62, 100
6, 103080, Note_on_c, 9, 65, 90
6, 103080, Note_on_c, 9, 69, 115
6, 103130, Note_off_c, 9, 69, 64
6, 103130, Note_off_c, 9, 65, 64
6, 103130, Note_off_c, 9, 62, 64
6, 103130, Note_off_c, 9, 63, 64
6, 103130, Note_off_c, 9, 56, 64
6, 103130, Note_off_c, 9, 42, 64
6, 103200, Note_on_c, 9, 42, 127
6, 103200, Note_on_c, 9, 56, 115
6, 103200, Note_on_c, 9, 63, 127
6, 103200, Note_on_c, 9, 62, 127
6, 103200, Note_on_c, 9, 65, 100
6, 103200, Note_on_c, 9, 69, 127
6, 103250, Note_off_c, 9, 69, 64
6, 103250, Note_off_c, 9, 65, 64
6, 103250, Note_off_c, 9, 62, 64
6, 103250, Note_off_c, 9, 63, 64
6, 103250, Note_off_c, 9, 56, 64
6, 103250, Note_off_c, 9, 42, 64
6, 103250, End_track
7, 0, Start_track
7, 0, Title_t, "G.MIDI Acou Grand Piano"
7, 0, Program_c, 2, 0
7, 0, Control_c, 2, 7, 90
7, 1, Pitch_bend_c, 2, 8192
7, 1920, Note_on_c, 2, 59, 65
7, 1920, Note_on_c, 2, 63, 65
7, 1920, Note_on_c, 2, 53, 65
7, 1920, Note_on_c, 2, 68, 65
7, 2040, Note_on_c, 2, 49, 70
7, 2064, Note_off_c, 2, 68, 64
7, 2064, Note_off_c, 2, 53, 64
7, 2064, Note_off_c, 2, 63, 64
7, 2064, Note_off_c, 2, 59, 64
7, 2160, Note_on_c, 2, 59, 75
7, 2160, Note_on_c, 2, 63, 75
7, 2160, Note_on_c, 2, 53, 75
7, 2160, Note_on_c, 2, 68, 75
7, 2270, Note_off_c, 2, 49, 64
7, 2280, Note_on_c, 2, 49, 70
7, 2376, Note_off_c, 2, 68, 64
7, 2376, Note_off_c, 2, 53, 64
7, 2376, Note_off_c, 2, 63, 64
7, 2376, Note_off_c, 2, 59, 64
7, 2510, Note_off_c, 2, 49, 64
7, 2520, Note_on_c, 2, 49, 70
7, 2520, Note_on_c, 2, 59, 65
7, 2520, Note_on_c, 2, 63, 65
7, 2520, Note_on_c, 2, 53, 65
7, 2520, Note_on_c, 2, 68, 65
7, 2664, Note_off_c, 2, 68, 64
7, 2664, Note_off_c, 2, 53, 64
7, 2664, Note_off_c, 2, 63, 64
7, 2664, Note_off_c, 2, 59, 64
7, 2750, Note_off_c, 2, 49, 64
7, 2760, Note_on_c, 2, 68, 75
7, 2760, Note_on_c, 2, 59, 75
7, 2760, Note_on_c, 2, 63, 75
7, 2760, Note_on_c, 2, 65, 75
7, 2760, Note_on_c, 2, 49, 70
7, 2880, Note_off_c, 2, 49, 64
7, 2880, Note_off_c, 2, 65, 64
7, 2880, Note_off_c, 2, 63, 64
7, 2880, Note_off_c, 2, 59, 64
7, 2880, Note_off_c, 2, 68, 64
7, 2880, Note_on_c, 2, 58, 65
7, 2880, Note_on_c, 2, 60, 65
7, 2880, Note_on_c, 2, 52, 65
7, 2880, Note_on_c, 2, 56, 65
7, 3024, Note_off_c, 2, 56, 64
7, 3024, Note_off_c, 2, 52, 64
7, 3024, Note_off_c, 2, 60, 64
7, 3024, Note_off_c, 2, 58, 64
7, 3120, Note_on_c, 2, 58, 75
7, 3120, Note_on_c, 2, 60, 75
7, 3120, Note_on_c, 2, 52, 75
7, 3120, Note_on_c, 2, 56, 75
7, 3336, Note_off_c, 2, 56, 64
7, 3336, Note_off_c, 2, 52, 64
7, 3336, Note_off_c, 2, 60, 64
7, 3336, Note_off_c, 2, 58, 64
7, 3480, Note_on_c, 2, 58, 65
7, 3480, Note_on_c, 2, 60, 65
7, 3480, Note_on_c, 2, 52, 65
7, 3480, Note_on_c, 2, 56, 65
7, 3624, Note_off_c, 2, 56, 64
7, 3624, Note_off_c, 2, 52, 64
7, 3624, Note_off_c, 2, 60, 64
7, 3624, Note_off_c, 2, 58, 64
7, 3720, Note_on_c, 2, 68, 75
7, 3720, Note_on_c, 2, 58, 75
7, 3720, Note_on_c, 2, 60, 75
7, 3720, Note_on_c, 2, 64, 75
7, 3840, Note_off_c, 2, 64, 64
7, 3840, Note_off_c, 2, 60, 64
7, 3840, Note_off_c, 2, 58, 64
7, 3840, Note_off_c, 2, 68, 64
7, 3840, Note_on_c, 2, 65, 65
7, 3840, Note_on_c, 2, 63, 65
7, 3840, Note_on_c, 2, 60, 65
7, 3840, Note_on_c, 2, 68, 65
7, 3984, Note_off_c, 2, 68, 64
7, 3984, Note_off_c, 2, 60, 64
7, 3984, Note_off_c, 2, 63, 64
7, 3984, Note_off_c, 2, 65, 64
7, 4080, Note_on_c, 2, 65, 75
7, 4080, Note_on_c, 2, 63, 75
7, 4080, Note_on_c, 2, 60, 75
7, 4080, Note_on_c, 2, 68, 75
7, 4296, Note_off_c, 2, 68, 64
7, 4296, Note_off_c, 2, 60, 64
7, 4296, Note_off_c, 2, 63, 64
7, 4296, Note_off_c, 2, 65, 64
7, 4440, Note_on_c, 2, 65, 65
7, 4440, Note_on_c, 2, 63, 65
7, 4440, Note_on_c, 2, 60, 65
7, 4440, Note_on_c, 2, 68, 65
7, 4584, Note_off_c, 2, 68, 64
7, 4584, Note_off_c, 2, 60, 64
7, 4584, Note_off_c, 2, 63, 64
7, 4584, Note_off_c, 2, 65, 64
7, 4680, Note_on_c, 2, 60, 75
7, 4680, Note_on_c, 2, 56, 75
7, 4680, Note_on_c, 2, 65, 75
7, 4680, Note_on_c, 2, 51, 75
7, 4800, Note_off_c, 2, 51, 64
7, 4800, Note_off_c, 2, 65, 64
7, 4800, Note_off_c, 2, 56, 64
7, 4800, Note_off_c, 2, 60, 64
7, 4800, Note_on_c, 2, 51, 75
7, 4800, Note_on_c, 2, 53, 75
7, 4800, Note_on_c, 2, 56, 75
7, 4800, Note_on_c, 2, 60, 75
7, 4900, Note_off_c, 2, 60, 64
7, 4900, Note_off_c, 2, 56, 64
7, 4900, Note_off_c, 2, 53, 64
7, 4900, Note_off_c, 2, 51, 64
7, 5760, Note_on_c, 2, 65, 65
7, 5760, Note_on_c, 2, 63, 65
7, 5760, Note_on_c, 2, 60, 65
7, 5760, Note_on_c, 2, 68, 65
7, 5904, Note_off_c, 2, 68, 64
7, 5904, Note_off_c, 2, 60, 64
7, 5904, Note_off_c, 2, 63, 64
7, 5904, Note_off_c, 2, 65, 64
7, 6000, Note_on_c, 2, 65, 75
7, 6000, Note_on_c, 2, 63, 75
7, 6000, Note_on_c, 2, 60, 75
7, 6000, Note_on_c, 2, 68, 75
7, 6216, Note_off_c, 2, 68, 64
7, 6216, Note_off_c, 2, 60, 64
7, 6216, Note_off_c, 2, 63, 64
7, 6216, Note_off_c, 2, 65, 64
7, 6360, Note_on_c, 2, 65, 65
7, 6360, Note_on_c, 2, 63, 65
7, 6360, Note_on_c, 2, 60, 65
7, 6360, Note_on_c, 2, 68, 65
7, 6504, Note_off_c, 2, 68, 64
7, 6504, Note_off_c, 2, 60, 64
7, 6504, Note_off_c, 2, 63, 64
7, 6504, Note_off_c, 2, 65, 64
7, 6600, Note_on_c, 2, 60, 75
7, 6600, Note_on_c, 2, 56, 75
7, 6600, Note_on_c, 2, 65, 75
7, 6600, Note_on_c, 2, 51, 75
7, 6720, Note_off_c, 2, 51, 64
7, 6720, Note_off_c, 2, 65, 64
7, 6720, Note_off_c, 2, 56, 64
7, 6720, Note_off_c, 2, 60, 64
7, 6720, Note_on_c, 2, 65, 75
7, 6720, Note_on_c, 2, 64, 75
7, 6720, Note_on_c, 2, 60, 75
7, 6720, Note_on_c, 2, 68, 75
7, 6888, Note_off_c, 2, 68, 64
7, 6888, Note_off_c, 2, 60, 64
7, 6888, Note_off_c, 2, 64, 64
7, 6888, Note_off_c, 2, 65, 64
7, 7080, Note_on_c, 2, 65, 65
7, 7080, Note_on_c, 2, 64, 65
7, 7080, Note_on_c, 2, 60, 65
7, 7080, Note_on_c, 2, 68, 65
7, 7296, Note_off_c, 2, 68, 64
7, 7296, Note_off_c, 2, 60, 64
7, 7296, Note_off_c, 2, 64, 64
7, 7296, Note_off_c, 2, 65, 64
7, 7440, Note_on_c, 2, 65, 75
7, 7440, Note_on_c, 2, 64, 75
7, 7440, Note_on_c, 2, 60, 75
7, 7440, Note_on_c, 2, 68, 75
7, 7584, Note_off_c, 2, 68, 64
7, 7584, Note_off_c, 2, 60, 64
7, 7584, Note_off_c, 2, 64, 64
7, 7584, Note_off_c, 2, 65, 64
7, 7680, Note_on_c, 2, 51, 65
7, 7680, Note_on_c, 2, 53, 65
7, 7680, Note_on_c, 2, 56, 65
7, 7680, Note_on_c, 2, 60, 65
7, 7824, Note_off_c, 2, 60, 64
7, 7824, Note_off_c, 2, 56, 64
7, 7824, Note_off_c, 2, 53, 64
7, 7824, Note_off_c, 2, 51, 64
7, 7920, Note_on_c, 2, 51, 75
7, 7920, Note_on_c, 2, 53, 75
7, 7920, Note_on_c, 2, 56, 75
7, 7920, Note_on_c, 2, 60, 75
7, 8136, Note_off_c, 2, 60, 64
7, 8136, Note_off_c, 2, 56, 64
7, 8136, Note_off_c, 2, 53, 64
7, 8136, Note_off_c, 2, 51, 64
7, 8280, Note_on_c, 2, 51, 65
7, 8280, Note_on_c, 2, 53, 65
7, 8280, Note_on_c, 2, 56, 65
7, 8280, Note_on_c, 2, 60, 65
7, 8424, Note_off_c, 2, 60, 64
7, 8424, Note_off_c, 2, 56, 64
7, 8424, Note_off_c, 2, 53, 64
7, 8424, Note_off_c, 2, 51, 64
7, 8520, Note_on_c, 2, 68, 75
7, 8520, Note_on_c, 2, 60, 75
7, 8520, Note_on_c, 2, 63, 75
7, 8520, Note_on_c, 2, 65, 75
7, 8640, Note_off_c, 2, 65, 64
7, 8640, Note_off_c, 2, 63, 64
7, 8640, Note_off_c, 2, 60, 64
7, 8640, Note_off_c, 2, 68, 64
7, 8640, Note_on_c, 2, 68, 65
7, 8640, Note_on_c, 2, 65, 65
7, 8640, Note_on_c, 2, 62, 65
7, 8640, Note_on_c, 2, 72, 65
7, 8808, Note_off_c, 2, 72, 64
7, 8808, Note_off_c, 2, 62, 64
7, 8808, Note_off_c, 2, 65, 64
7, 8808, Note_off_c, 2, 68, 64
7, 9000, Note_on_c, 2, 68, 55
7, 9000, Note_on_c, 2, 65, 55
7, 9000, Note_on_c, 2, 62, 55
7, 9000, Note_on_c, 2, 72, 55
7, 9216, Note_off_c, 2, 72, 64
7, 9216, Note_off_c, 2, 62, 64
7, 9216, Note_off_c, 2, 65, 64
7, 9216, Note_off_c, 2, 68, 64
7, 9240, Note_on_c, 2, 50, 80
7, 9276, Note_off_c, 2, 50, 64
7, 9300, Note_on_c, 2, 53, 80
7, 9336, Note_off_c, 2, 53, 64
7, 9360, Note_on_c, 2, 68, 65
7, 9360, Note_on_c, 2, 65, 65
7, 9360, Note_on_c, 2, 62, 65
7, 9360, Note_on_c, 2, 72, 65
7, 9480, Note_on_c, 2, 46, 80
7, 9504, Note_off_c, 2, 72, 64
7, 9504, Note_off_c, 2, 62, 64
7, 9504, Note_off_c, 2, 65, 64
7, 9504, Note_off_c, 2, 68, 64
7, 9552, Note_off_c, 2, 46, 64
7, 9600, Note_on_c, 2, 65, 65
7, 9600, Note_on_c, 2, 63, 65
7, 9600, Note_on_c, 2, 60, 65
7, 9600, Note_on_c, 2, 68, 65
7, 9744, Note_off_c, 2, 68, 64
7, 9744, Note_off_c, 2, 60, 64
7, 9744, Note_off_c, 2, 63, 64
7, 9744, Note_off_c, 2, 65, 64
7, 9840, Note_on_c, 2, 65, 75
7, 9840, Note_on_c, 2, 63, 75
7, 9840, Note_on_c, 2, 60, 75
7, 9840, Note_on_c, 2, 68, 75
7, 10056, Note_off_c, 2, 68, 64
7, 10056, Note_off_c, 2, 60, 64
7, 10056, Note_off_c, 2, 63, 64
7, 10056, Note_off_c, 2, 65, 64
7, 10200, Note_on_c, 2, 65, 65
7, 10200, Note_on_c, 2, 63, 65
7, 10200, Note_on_c, 2, 60, 65
7, 10200, Note_on_c, 2, 68, 65
7, 10344, Note_off_c, 2, 68, 64
7, 10344, Note_off_c, 2, 60, 64
7, 10344, Note_off_c, 2, 63, 64
7, 10344, Note_off_c, 2, 65, 64
7, 10440, Note_on_c, 2, 72, 75
7, 10440, Note_on_c, 2, 56, 75
7, 10440, Note_on_c, 2, 65, 75
7, 10440, Note_on_c, 2, 63, 75
7, 10560, Note_off_c, 2, 63, 64
7, 10560, Note_off_c, 2, 65, 64
7, 10560, Note_off_c, 2, 56, 64
7, 10560, Note_off_c, 2, 72, 64
7, 10560, Note_on_c, 2, 59, 65
7, 10560, Note_on_c, 2, 75, 65
7, 10560, Note_on_c, 2, 65, 65
7, 10560, Note_on_c, 2, 68, 65
7, 10704, Note_off_c, 2, 68, 64
7, 10704, Note_off_c, 2, 65, 64
7, 10704, Note_off_c, 2, 75, 64
7, 10704, Note_off_c, 2, 59, 64
7, 10800, Note_on_c, 2, 59, 75
7, 10800, Note_on_c, 2, 75, 75
7, 10800, Note_on_c, 2, 65, 75
7, 10800, Note_on_c, 2, 68, 75
7, 11016, Note_off_c, 2, 68, 64
7, 11016, Note_off_c, 2, 65, 64
7, 11016, Note_off_c, 2, 75, 64
7, 11016, Note_off_c, 2, 59, 64
7, 11160, Note_on_c, 2, 59, 65
7, 11160, Note_on_c, 2, 75, 65
7, 11160, Note_on_c, 2, 65, 65
7, 11160, Note_on_c, 2, 68, 65
7, 11304, Note_off_c, 2, 68, 64
7, 11304, Note_off_c, 2, 65, 64
7, 11304, Note_off_c, 2, 75, 64
7, 11304, Note_off_c, 2, 59, 64
7, 11400, Note_on_c, 2, 68, 75
7, 11400, Note_on_c, 2, 59, 75
7, 11400, Note_on_c, 2, 63, 75
7, 11400, Note_on_c, 2, 65, 75
7, 11520, Note_off_c, 2, 65, 64
7, 11520, Note_off_c, 2, 63, 64
7, 11520, Note_off_c, 2, 59, 64
7, 11520, Note_off_c, 2, 68, 64
7, 11520, Note_on_c, 2, 65, 65
7, 11520, Note_on_c, 2, 62, 65
7, 11520, Note_on_c, 2, 58, 65
7, 11520, Note_on_c, 2, 67, 65
7, 11664, Note_off_c, 2, 67, 64
7, 11664, Note_off_c, 2, 58, 64
7, 11664, Note_off_c, 2, 62, 64
7, 11664, Note_off_c, 2, 65, 64
7, 11760, Note_on_c, 2, 65, 75
7, 11760, Note_on_c, 2, 62, 75
7, 11760, Note_on_c, 2, 58, 75
7, 11760, Note_on_c, 2, 67, 75
7, 11976, Note_off_c, 2, 67, 64
7, 11976, Note_off_c, 2, 58, 64
7, 11976, Note_off_c, 2, 62, 64
7, 11976, Note_off_c, 2, 65, 64
7, 12120, Note_on_c, 2, 65, 65
7, 12120, Note_on_c, 2, 62, 65
7, 12120, Note_on_c, 2, 58, 65
7, 12120, Note_on_c, 2, 67, 65
7, 12264, Note_off_c, 2, 67, 64
7, 12264, Note_off_c, 2, 58, 64
7, 12264, Note_off_c, 2, 62, 64
7, 12264, Note_off_c, 2, 65, 64
7, 12360, Note_on_c, 2, 62, 75
7, 12360, Note_on_c, 2, 58, 75
7, 12360, Note_on_c, 2, 67, 75
7, 12360, Note_on_c, 2, 65, 75
7, 12480, Note_off_c, 2, 65, 64
7, 12480, Note_off_c, 2, 67, 64
7, 12480, Note_off_c, 2, 58, 64
7, 12480, Note_off_c, 2, 62, 64
7, 12480, Note_on_c, 2, 64, 75
7, 12480, Note_on_c, 2, 60, 75
7, 12480, Note_on_c, 2, 58, 75
7, 12480, Note_on_c, 2, 68, 75
7, 12648, Note_off_c, 2, 68, 64
7, 12648, Note_off_c, 2, 58, 64
7, 12648, Note_off_c, 2, 60, 64
7, 12648, Note_off_c, 2, 64, 64
7, 12840, Note_on_c, 2, 64, 65
7, 12840, Note_on_c, 2, 60, 65
7, 12840, Note_on_c, 2, 58, 65
7, 12840, Note_on_c, 2, 68, 65
7, 13056, Note_off_c, 2, 68, 64
7, 13056, Note_off_c, 2, 58, 64
7, 13056, Note_off_c, 2, 60, 64
7, 13056, Note_off_c, 2, 64, 64
7, 13200, Note_on_c, 2, 64, 75
7, 13200, Note_on_c, 2, 60, 75
7, 13200, Note_on_c, 2, 58, 75
7, 13200, Note_on_c, 2, 68, 75
7, 13344, Note_off_c, 2, 68, 64
7, 13344, Note_off_c, 2, 58, 64
7, 13344, Note_off_c, 2, 60, 64
7, 13344, Note_off_c, 2, 64, 64
7, 13440, Note_on_c, 2, 65, 65
7, 13440, Note_on_c, 2, 63, 65
7, 13440, Note_on_c, 2, 60, 65
7, 13440, Note_on_c, 2, 68, 65
7, 13584, Note_off_c, 2, 68, 64
7, 13584, Note_off_c, 2, 60, 64
7, 13584, Note_off_c, 2, 63, 64
7, 13584, Note_off_c, 2, 65, 64
7, 13680, Note_on_c, 2, 65, 75
7, 13680, Note_on_c, 2, 63, 75
7, 13680, Note_on_c, 2, 60, 75
7, 13680, Note_on_c, 2, 68, 75
7, 13896, Note_off_c, 2, 68, 64
7, 13896, Note_off_c, 2, 60, 64
7, 13896, Note_off_c, 2, 63, 64
7, 13896, Note_off_c, 2, 65, 64
7, 14040, Note_on_c, 2, 65, 65
7, 14040, Note_on_c, 2, 63, 65
7, 14040, Note_on_c, 2, 60, 65
7, 14040, Note_on_c, 2, 68, 65
7, 14184, Note_off_c, 2, 68, 64
7, 14184, Note_off_c, 2, 60, 64
7, 14184, Note_off_c, 2, 63, 64
7, 14184, Note_off_c, 2, 65, 64
7, 14280, Note_on_c, 2, 60, 75
7, 14280, Note_on_c, 2, 56, 75
7, 14280, Note_on_c, 2, 65, 75
7, 14280, Note_on_c, 2, 63, 75
7, 14400, Note_off_c, 2, 63, 64
7, 14400, Note_off_c, 2, 65, 64
7, 14400, Note_off_c, 2, 56, 64
7, 14400, Note_off_c, 2, 60, 64
7, 14400, Note_on_c, 2, 65, 75
7, 14400, Note_on_c, 2, 64, 75
7, 14400, Note_on_c, 2, 60, 75
7, 14400, Note_on_c, 2, 68, 75
7, 14568, Note_off_c, 2, 68, 64
7, 14568, Note_off_c, 2, 60, 64
7, 14568, Note_off_c, 2, 64, 64
7, 14568, Note_off_c, 2, 65, 64
7, 14760, Note_on_c, 2, 65, 65
7, 14760, Note_on_c, 2, 64, 65
7, 14760, Note_on_c, 2, 60, 65
7, 14760, Note_on_c, 2, 68, 65
7, 14976, Note_off_c, 2, 68, 64
7, 14976, Note_off_c, 2, 60, 64
7, 14976, Note_off_c, 2, 64, 64
7, 14976, Note_off_c, 2, 65, 64
7, 15120, Note_on_c, 2, 65, 75
7, 15120, Note_on_c, 2, 64, 75
7, 15120, Note_on_c, 2, 60, 75
7, 15120, Note_on_c, 2, 68, 75
7, 15264, Note_off_c, 2, 68, 64
7, 15264, Note_off_c, 2, 60, 64
7, 15264, Note_off_c, 2, 64, 64
7, 15264, Note_off_c, 2, 65, 64
7, 15360, Note_on_c, 2, 63, 65
7, 15360, Note_on_c, 2, 65, 65
7, 15360, Note_on_c, 2, 56, 65
7, 15360, Note_on_c, 2, 72, 65
7, 15480, Note_on_c, 2, 41, 70
7, 15504, Note_off_c, 2, 72, 64
7, 15504, Note_off_c, 2, 56, 64
7, 15504, Note_off_c, 2, 65, 64
7, 15504, Note_off_c, 2, 63, 64
7, 15600, Note_on_c, 2, 63, 75
7, 15600, Note_on_c, 2, 65, 75
7, 15600, Note_on_c, 2, 56, 75
7, 15600, Note_on_c, 2, 72, 75
7, 15710, Note_off_c, 2, 41, 64
7, 15720, Note_on_c, 2, 41, 70
7, 15816, Note_off_c, 2, 72, 64
7, 15816, Note_off_c, 2, 56, 64
7, 15816, Note_off_c, 2, 65, 64
7, 15816, Note_off_c, 2, 63, 64
7, 15950, Note_off_c, 2, 41, 64
7, 15960, Note_on_c, 2, 41, 70
7, 15960, Note_on_c, 2, 63, 65
7, 15960, Note_on_c, 2, 65, 65
7, 15960, Note_on_c, 2, 56, 65
7, 15960, Note_on_c, 2, 72, 65
7, 16104, Note_off_c, 2, 72, 64
7, 16104, Note_off_c, 2, 56, 64
7, 16104, Note_off_c, 2, 65, 64
7, 16104, Note_off_c, 2, 63, 64
7, 16190, Note_off_c, 2, 41, 64
7, 16200, Note_on_c, 2, 68, 75
7, 16200, Note_on_c, 2, 60, 75
7, 16200, Note_on_c, 2, 63, 75
7, 16200, Note_on_c, 2, 65, 75
7, 16200, Note_on_c, 2, 41, 70
7, 16320, Note_off_c, 2, 41, 64
7, 16320, Note_off_c, 2, 65, 64
7, 16320, Note_off_c, 2, 63, 64
7, 16320, Note_off_c, 2, 60, 64
7, 16320, Note_off_c, 2, 68, 64
7, 16320, Note_on_c, 2, 62, 75
7, 16320, Note_on_c, 2, 60, 75
7, 16320, Note_on_c, 2, 56, 75
7, 16320, Note_on_c, 2, 65, 75
7, 16488, Note_off_c, 2, 65, 64
7, 16488, Note_off_c, 2, 56, 64
7, 16488, Note_off_c, 2, 60, 64
7, 16488, Note_off_c, 2, 62, 64
7, 16680, Note_on_c, 2, 62, 65
7, 16680, Note_on_c, 2, 60, 65
7, 16680, Note_on_c, 2, 56, 65
7, 16680, Note_on_c, 2, 65, 65
7, 16896, Note_off_c, 2, 65, 64
7, 16896, Note_off_c, 2, 56, 64
7, 16896, Note_off_c, 2, 60, 64
7, 16896, Note_off_c, 2, 62, 64
7, 17040, Note_on_c, 2, 62, 75
7, 17040, Note_on_c, 2, 60, 75
7, 17040, Note_on_c, 2, 56, 75
7, 17040, Note_on_c, 2, 65, 75
7, 17184, Note_off_c, 2, 65, 64
7, 17184, Note_off_c, 2, 56, 64
7, 17184, Note_off_c, 2, 60, 64
7, 17184, Note_off_c, 2, 62, 64
7, 17280, Note_on_c, 2, 65, 65
7, 17280, Note_on_c, 2, 63, 65
7, 17280, Note_on_c, 2, 59, 65
7, 17280, Note_on_c, 2, 68, 65
7, 17424, Note_off_c, 2, 68, 64
7, 17424, Note_off_c, 2, 59, 64
7, 17424, Note_off_c, 2, 63, 64
7, 17424, Note_off_c, 2, 65, 64
7, 17520, Note_on_c, 2, 65, 75
7, 17520, Note_on_c, 2, 63, 75
7, 17520, Note_on_c, 2, 59, 75
7, 17520, Note_on_c, 2, 68, 75
7, 17736, Note_off_c, 2, 68, 64
7, 17736, Note_off_c, 2, 59, 64
7, 17736, Note_off_c, 2, 63, 64
7, 17736, Note_off_c, 2, 65, 64
7, 17880, Note_on_c, 2, 65, 65
7, 17880, Note_on_c, 2, 63, 65
7, 17880, Note_on_c, 2, 59, 65
7, 17880, Note_on_c, 2, 68, 65
7, 18024, Note_off_c, 2, 68, 64
7, 18024, Note_off_c, 2, 59, 64
7, 18024, Note_off_c, 2, 63, 64
7, 18024, Note_off_c, 2, 65, 64
7, 18120, Note_on_c, 2, 68, 75
7, 18120, Note_on_c, 2, 53, 75
7, 18120, Note_on_c, 2, 63, 75
7, 18120, Note_on_c, 2, 59, 75
7, 18240, Note_off_c, 2, 59, 64
7, 18240, Note_off_c, 2, 63, 64
7, 18240, Note_off_c, 2, 53, 64
7, 18240, Note_off_c, 2, 68, 64
7, 18240, Note_on_c, 2, 48, 70
7, 18240, Note_on_c, 2, 64, 75
7, 18240, Note_on_c, 2, 60, 75
7, 18240, Note_on_c, 2, 58, 75
7, 18240, Note_on_c, 2, 68, 75
7, 18350, Note_off_c, 2, 48, 64
7, 18360, Note_on_c, 2, 52, 70
7, 18408, Note_off_c, 2, 68, 64
7, 18408, Note_off_c, 2, 58, 64
7, 18408, Note_off_c, 2, 60, 64
7, 18408, Note_off_c, 2, 64, 64
7, 18590, Note_off_c, 2, 52, 64
7, 18600, Note_on_c, 2, 56, 70
7, 18600, Note_on_c, 2, 64, 65
7, 18600, Note_on_c, 2, 60, 65
7, 18600, Note_on_c, 2, 58, 65
7, 18600, Note_on_c, 2, 68, 65
7, 18816, Note_off_c, 2, 68, 64
7, 18816, Note_off_c, 2, 58, 64
7, 18816, Note_off_c, 2, 60, 64
7, 18816, Note_off_c, 2, 64, 64
7, 18830, Note_off_c, 2, 56, 64
7, 18840, Note_on_c, 2, 58, 70
7, 18960, Note_on_c, 2, 64, 75
7, 18960, Note_on_c, 2, 60, 75
7, 18960, Note_on_c, 2, 58, 75
7, 18960, Note_on_c, 2, 68, 75
7, 19070, Note_off_c, 2, 58, 64
7, 19104, Note_off_c, 2, 68, 64
7, 19104, Note_off_c, 2, 58, 64
7, 19104, Note_off_c, 2, 60, 64
7, 19104, Note_off_c, 2, 64, 64
7, 19200, Note_on_c, 2, 65, 65
7, 19200, Note_on_c, 2, 63, 65
7, 19200, Note_on_c, 2, 60, 65
7, 19200, Note_on_c, 2, 68, 65
7, 19344, Note_off_c, 2, 68, 64
7, 19344, Note_off_c, 2, 60, 64
7, 19344, Note_off_c, 2, 63, 64
7, 19344, Note_off_c, 2, 65, 64
7, 19440, Note_on_c, 2, 65, 75
7, 19440, Note_on_c, 2, 63, 75
7, 19440, Note_on_c, 2, 60, 75
7, 19440, Note_on_c, 2, 68, 75
7, 19656, Note_off_c, 2, 68, 64
7, 19656, Note_off_c, 2, 60, 64
7, 19656, Note_off_c, 2, 63, 64
7, 19656, Note_off_c, 2, 65, 64
7, 19800, Note_on_c, 2, 65, 65
7, 19800, Note_on_c, 2, 63, 65
7, 19800, Note_on_c, 2, 60, 65
7, 19800, Note_on_c, 2, 68, 65
7, 19944, Note_off_c, 2, 68, 64
7, 19944, Note_off_c, 2, 60, 64
7, 19944, Note_off_c, 2, 63, 64
7, 19944, Note_off_c, 2, 65, 64
7, 20040, Note_on_c, 2, 60, 75
7, 20040, Note_on_c, 2, 56, 75
7, 20040, Note_on_c, 2, 53, 75
7, 20040, Note_on_c, 2, 51, 75
7, 20160, Note_off_c, 2, 51, 64
7, 20160, Note_off_c, 2, 53, 64
7, 20160, Note_off_c, 2, 56, 64
7, 20160, Note_off_c, 2, 60, 64
7, 20160, Note_on_c, 2, 51, 75
7, 20160, Note_on_c, 2, 65, 75
7, 20160, Note_on_c, 2, 56, 75
7, 20160, Note_on_c, 2, 60, 75
7, 20328, Note_off_c, 2, 60, 64
7, 20328, Note_off_c, 2, 56, 64
7, 20328, Note_off_c, 2, 65, 64
7, 20328, Note_off_c, 2, 51, 64
7, 20520, Note_on_c, 2, 51, 65
7, 20520, Note_on_c, 2, 65, 65
7, 20520, Note_on_c, 2, 56, 65
7, 20520, Note_on_c, 2, 60, 65
7, 20640, Note_off_c, 2, 60, 64
7, 20640, Note_off_c, 2, 56, 64
7, 20640, Note_off_c, 2, 65, 64
7, 20640, Note_off_c, 2, 51, 64
7, 20640, Note_on_c, 2, 62, 65
7, 20640, Note_on_c, 2, 64, 65
7, 20640, Note_on_c, 2, 55, 65
7, 20640, Note_on_c, 2, 71, 65
7, 20736, Note_off_c, 2, 71, 64
7, 20736, Note_off_c, 2, 55, 64
7, 20736, Note_off_c, 2, 64, 64
7, 20736, Note_off_c, 2, 62, 64
7, 20880, Note_on_c, 2, 55, 75
7, 20880, Note_on_c, 2, 69, 75
7, 20880, Note_on_c, 2, 61, 75
7, 20880, Note_on_c, 2, 64, 75
7, 21024, Note_off_c, 2, 64, 64
7, 21024, Note_off_c, 2, 61, 64
7, 21024, Note_off_c, 2, 69, 64
7, 21024, Note_off_c, 2, 55, 64
7, 21120, Note_on_c, 2, 70, 70
7, 21120, Note_on_c, 2, 54, 70
7, 21120, Note_on_c, 2, 65, 70
7, 21120, Note_on_c, 2, 61, 70
7, 21120, Note_on_c, 2, 51, 80
7, 21234, Note_off_c, 2, 51, 64
7, 21240, Note_on_c, 2, 51, 80
7, 21470, Note_off_c, 2, 51, 64
7, 21480, Note_on_c, 2, 51, 80
7, 21710, Note_off_c, 2, 51, 64
7, 21720, Note_on_c, 2, 51, 80
7, 21950, Note_off_c, 2, 51, 64
7, 21960, Note_on_c, 2, 51, 80
7, 22080, Note_off_c, 2, 51, 64
7, 22080, Note_off_c, 2, 61, 64
7, 22080, Note_off_c, 2, 65, 64
7, 22080, Note_off_c, 2, 54, 64
7, 22080, Note_off_c, 2, 70, 64
7, 22080, Note_on_c, 2, 63, 70
7, 22080, Note_on_c, 2, 60, 70
7, 22080, Note_on_c, 2, 58, 70
7, 22080, Note_on_c, 2, 54, 70
7, 22080, Note_on_c, 2, 44, 80
7, 22194, Note_off_c, 2, 44, 64
7, 22200, Note_on_c, 2, 44, 80
7, 22430, Note_off_c, 2, 44, 64
7, 22440, Note_on_c, 2, 44, 80
7, 22670, Note_off_c, 2, 44, 64
7, 22680, Note_on_c, 2, 44, 80
7, 22910, Note_off_c, 2, 44, 64
7, 22920, Note_on_c, 2, 44, 80
7, 23040, Note_off_c, 2, 44, 64
7, 23040, Note_off_c, 2, 54, 64
7, 23040, Note_off_c, 2, 58, 64
7, 23040, Note_off_c, 2, 60, 64
7, 23040, Note_off_c, 2, 63, 64
7, 23040, Note_on_c, 2, 68, 70
7, 23040, Note_on_c, 2, 53, 70
7, 23040, Note_on_c, 2, 63, 70
7, 23040, Note_on_c, 2, 60, 70
7, 23040, Note_on_c, 2, 49, 80
7, 23154, Note_off_c, 2, 49, 64
7, 23160, Note_on_c, 2, 49, 80
7, 23390, Note_off_c, 2, 49, 64
7, 23400, Note_on_c, 2, 49, 80
7, 23630, Note_off_c, 2, 49, 64
7, 23640, Note_on_c, 2, 49, 80
7, 23870, Note_off_c, 2, 49, 64
7, 23880, Note_on_c, 2, 49, 80
7, 24000, Note_off_c, 2, 49, 64
7, 24000, Note_off_c, 2, 60, 64
7, 24000, Note_off_c, 2, 63, 64
7, 24000, Note_off_c, 2, 53, 64
7, 24000, Note_off_c, 2, 68, 64
7, 24000, Note_on_c, 2, 65, 70
7, 24000, Note_on_c, 2, 62, 70
7, 24000, Note_on_c, 2, 70, 70
7, 24000, Note_on_c, 2, 56, 70
7, 24000, Note_on_c, 2, 46, 80
7, 24114, Note_off_c, 2, 46, 64
7, 24120, Note_on_c, 2, 46, 80
7, 24350, Note_off_c, 2, 46, 64
7, 24360, Note_on_c, 2, 46, 80
7, 24590, Note_off_c, 2, 46, 64
7, 24600, Note_on_c, 2, 46, 80
7, 24830, Note_off_c, 2, 46, 64
7, 24840, Note_on_c, 2, 46, 80
7, 24960, Note_off_c, 2, 46, 64
7, 24960, Note_off_c, 2, 56, 64
7, 24960, Note_off_c, 2, 70, 64
7, 24960, Note_off_c, 2, 62, 64
7, 24960, Note_off_c, 2, 65, 64
7, 24960, Note_on_c, 2, 58, 70
7, 24960, Note_on_c, 2, 54, 70
7, 24960, Note_on_c, 2, 63, 70
7, 24960, Note_on_c, 2, 61, 70
7, 24960, Note_on_c, 2, 51, 80
7, 25074, Note_off_c, 2, 51, 64
7, 25080, Note_on_c, 2, 51, 80
7, 25310, Note_off_c, 2, 51, 64
7, 25320, Note_on_c, 2, 51, 80
7, 25550, Note_off_c, 2, 51, 64
7, 25560, Note_on_c, 2, 51, 80
7, 25790, Note_off_c, 2, 51, 64
7, 25800, Note_on_c, 2, 51, 80
7, 25920, Note_off_c, 2, 51, 64
7, 25920, Note_off_c, 2, 61, 64
7, 25920, Note_off_c, 2, 63, 64
7, 25920, Note_off_c, 2, 54, 64
7, 25920, Note_off_c, 2, 58, 64
7, 25920, Note_on_c, 2, 63, 70
7, 25920, Note_on_c, 2, 60, 70
7, 25920, Note_on_c, 2, 70, 70
7, 25920, Note_on_c, 2, 54, 70
7, 25920, Note_on_c, 2, 44, 80
7, 26034, Note_off_c, 2, 44, 64
7, 26040, Note_on_c, 2, 44, 80
7, 26270, Note_off_c, 2, 44, 64
7, 26280, Note_on_c, 2, 44, 80
7, 26510, Note_off_c, 2, 44, 64
7, 26520, Note_on_c, 2, 44, 80
7, 26750, Note_off_c, 2, 44, 64
7, 26760, Note_on_c, 2, 44, 80
7, 26880, Note_off_c, 2, 44, 64
7, 26880, Note_off_c, 2, 54, 64
7, 26880, Note_off_c, 2, 70, 64
7, 26880, Note_off_c, 2, 60, 64
7, 26880, Note_off_c, 2, 63, 64
7, 26880, Note_on_c, 2, 56, 70
7, 26880, Note_on_c, 2, 53, 70
7, 26880, Note_on_c, 2, 63, 70
7, 26880, Note_on_c, 2, 60, 70
7, 26880, Note_on_c, 2, 49, 80
7, 26994, Note_off_c, 2, 49, 64
7, 27000, Note_on_c, 2, 49, 80
7, 27230, Note_off_c, 2, 49, 64
7, 27240, Note_on_c, 2, 49, 80
7, 27470, Note_off_c, 2, 49, 64
7, 27480, Note_on_c, 2, 49, 80
7, 27710, Note_off_c, 2, 49, 64
7, 27720, Note_on_c, 2, 49, 80
7, 27950, Note_off_c, 2, 49, 64
7, 27960, Note_on_c, 2, 49, 80
7, 28190, Note_off_c, 2, 49, 64
7, 28200, Note_on_c, 2, 49, 80
7, 28430, Note_off_c, 2, 49, 64
7, 28440, Note_on_c, 2, 49, 80
7, 28670, Note_off_c, 2, 49, 64
7, 28680, Note_on_c, 2, 49, 80
7, 28794, Note_off_c, 2, 49, 64
7, 28800, Note_off_c, 2, 60, 64
7, 28800, Note_off_c, 2, 63, 64
7, 28800, Note_off_c, 2, 53, 64
7, 28800, Note_off_c, 2, 56, 64
7, 28800, Note_on_c, 2, 69, 70
7, 28800, Note_on_c, 2, 53, 70
7, 28800, Note_on_c, 2, 64, 70
7, 28800, Note_on_c, 2, 60, 70
7, 28800, Note_on_c, 2, 50, 80
7, 28914, Note_off_c, 2, 50, 64
7, 28920, Note_on_c, 2, 50, 80
7, 29150, Note_off_c, 2, 50, 64
7, 29160, Note_on_c, 2, 50, 80
7, 29390, Note_off_c, 2, 50, 64
7, 29400, Note_on_c, 2, 50, 80
7, 29630, Note_off_c, 2, 50, 64
7, 29640, Note_on_c, 2, 50, 80
7, 29760, Note_off_c, 2, 50, 64
7, 29760, Note_off_c, 2, 60, 64
7, 29760, Note_off_c, 2, 64, 64
7, 29760, Note_off_c, 2, 53, 64
7, 29760, Note_off_c, 2, 69, 64
7, 29760, Note_on_c, 2, 63, 70
7, 29760, Note_on_c, 2, 59, 70
7, 29760, Note_on_c, 2, 55, 70
7, 29760, Note_on_c, 2, 53, 70
7, 29760, Note_on_c, 2, 43, 80
7, 29874, Note_off_c, 2, 43, 64
7, 29880, Note_on_c, 2, 43, 80
7, 30110, Note_off_c, 2, 43, 64
7, 30120, Note_on_c, 2, 43, 80
7, 30350, Note_off_c, 2, 43, 64
7, 30360, Note_on_c, 2, 43, 80
7, 30590, Note_off_c, 2, 43, 64
7, 30600, Note_on_c, 2, 43, 80
7, 30720, Note_off_c, 2, 43, 64
7, 30720, Note_off_c, 2, 53, 64
7, 30720, Note_off_c, 2, 55, 64
7, 30720, Note_off_c, 2, 59, 64
7, 30720, Note_off_c, 2, 63, 64
7, 30720, Note_on_c, 2, 55, 70
7, 30720, Note_on_c, 2, 52, 70
7, 30720, Note_on_c, 2, 62, 70
7, 30720, Note_on_c, 2, 59, 70
7, 30720, Note_on_c, 2, 48, 80
7, 30834, Note_off_c, 2, 48, 64
7, 30840, Note_on_c, 2, 48, 80
7, 31070, Note_off_c, 2, 48, 64
7, 31080, Note_on_c, 2, 48, 80
7, 31310, Note_off_c, 2, 48, 64
7, 31320, Note_on_c, 2, 48, 80
7, 31550, Note_off_c, 2, 48, 64
7, 31560, Note_on_c, 2, 48, 80
7, 31790, Note_off_c, 2, 48, 64
7, 31800, Note_on_c, 2, 48, 80
7, 32030, Note_off_c, 2, 48, 64
7, 32040, Note_on_c, 2, 48, 80
7, 32270, Note_off_c, 2, 48, 64
7, 32280, Note_on_c, 2, 48, 80
7, 32510, Note_off_c, 2, 48, 64
7, 32520, Note_on_c, 2, 48, 80
7, 32634, Note_off_c, 2, 48, 64
7, 32640, Note_off_c, 2, 59, 64
7, 32640, Note_off_c, 2, 62, 64
7, 32640, Note_off_c, 2, 52, 64
7, 32640, Note_off_c, 2, 55, 64
7, 32640, Note_on_c, 2, 58, 70
7, 32640, Note_on_c, 2, 55, 70
7, 32640, Note_on_c, 2, 65, 70
7, 32640, Note_on_c, 2, 62, 70
7, 32640, Note_on_c, 2, 46, 80
7, 32754, Note_off_c, 2, 46, 64
7, 32760, Note_on_c, 2, 46, 80
7, 32990, Note_off_c, 2, 46, 64
7, 33000, Note_on_c, 2, 46, 80
7, 33230, Note_off_c, 2, 46, 64
7, 33240, Note_on_c, 2, 46, 80
7, 33470, Note_off_c, 2, 46, 64
7, 33480, Note_on_c, 2, 46, 80
7, 33600, Note_off_c, 2, 46, 64
7, 33600, Note_off_c, 2, 62, 64
7, 33600, Note_off_c, 2, 65, 64
7, 33600, Note_off_c, 2, 55, 64
7, 33600, Note_off_c, 2, 58, 64
7, 33600, Note_on_c, 2, 62, 70
7, 33600, Note_on_c, 2, 59, 70
7, 33600, Note_on_c, 2, 55, 70
7, 33600, Note_on_c, 2, 53, 70
7, 33600, Note_on_c, 2, 35, 80
7, 33714, Note_off_c, 2, 35, 64
7, 33720, Note_on_c, 2, 35, 80
7, 33950, Note_off_c, 2, 35, 64
7, 33960, Note_on_c, 2, 35, 80
7, 34190, Note_off_c, 2, 35, 64
7, 34200, Note_on_c, 2, 35, 80
7, 34430, Note_off_c, 2, 35, 64
7, 34440, Note_on_c, 2, 35, 80
7, 34560, Note_off_c, 2, 35, 64
7, 34560, Note_off_c, 2, 53, 64
7, 34560, Note_off_c, 2, 55, 64
7, 34560, Note_off_c, 2, 59, 64
7, 34560, Note_off_c, 2, 62, 64
7, 34560, Note_on_c, 2, 62, 70
7, 34560, Note_on_c, 2, 58, 70
7, 34560, Note_on_c, 2, 67, 70
7, 34560, Note_on_c, 2, 53, 70
7, 34560, Note_on_c, 2, 36, 80
7, 34674, Note_off_c, 2, 36, 64
7, 34680, Note_on_c, 2, 36, 80
7, 34910, Note_off_c, 2, 36, 64
7, 34920, Note_on_c, 2, 36, 80
7, 35150, Note_off_c, 2, 36, 64
7, 35160, Note_on_c, 2, 36, 80
7, 35390, Note_off_c, 2, 36, 64
7, 35400, Note_on_c, 2, 36, 80
7, 35520, Note_off_c, 2, 36, 64
7, 35520, Note_off_c, 2, 53, 64
7, 35520, Note_off_c, 2, 67, 64
7, 35520, Note_off_c, 2, 58, 64
7, 35520, Note_off_c, 2, 62, 64
7, 35520, Note_on_c, 2, 68, 70
7, 35520, Note_on_c, 2, 52, 70
7, 35520, Note_on_c, 2, 60, 70
7, 35520, Note_on_c, 2, 58, 70
7, 35520, Note_on_c, 2, 48, 80
7, 35634, Note_off_c, 2, 48, 64
7, 35640, Note_on_c, 2, 48, 80
7, 35870, Note_off_c, 2, 48, 64
7, 35880, Note_on_c, 2, 48, 80
7, 36110, Note_off_c, 2, 48, 64
7, 36120, Note_on_c, 2, 48, 80
7, 36350, Note_off_c, 2, 48, 64
7, 36360, Note_on_c, 2, 48, 80
7, 36480, Note_off_c, 2, 48, 64
7, 36480, Note_off_c, 2, 58, 64
7, 36480, Note_off_c, 2, 60, 64
7, 36480, Note_off_c, 2, 52, 64
7, 36480, Note_off_c, 2, 68, 64
7, 36480, Note_on_c, 2, 65, 65
7, 36480, Note_on_c, 2, 63, 65
7, 36480, Note_on_c, 2, 60, 65
7, 36480, Note_on_c, 2, 68, 65
7, 36600, Note_on_c, 2, 41, 90
7, 36624, Note_off_c, 2, 68, 64
7, 36624, Note_off_c, 2, 60, 64
7, 36624, Note_off_c, 2, 63, 64
7, 36624, Note_off_c, 2, 65, 64
7, 36720, Note_on_c, 2, 65, 75
7, 36720, Note_on_c, 2, 63, 75
7, 36720, Note_on_c, 2, 60, 75
7, 36720, Note_on_c, 2, 68, 75
7, 36744, Note_off_c, 2, 41, 64
7, 36936, Note_off_c, 2, 68, 64
7, 36936, Note_off_c, 2, 60, 64
7, 36936, Note_off_c, 2, 63, 64
7, 36936, Note_off_c, 2, 65, 64
7, 37080, Note_on_c, 2, 65, 65
7, 37080, Note_on_c, 2, 63, 65
7, 37080, Note_on_c, 2, 60, 65
7, 37080, Note_on_c, 2, 68, 65
7, 37224, Note_off_c, 2, 68, 64
7, 37224, Note_off_c, 2, 60, 64
7, 37224, Note_off_c, 2, 63, 64
7, 37224, Note_off_c, 2, 65, 64
7, 37320, Note_on_c, 2, 60, 75
7, 37320, Note_on_c, 2, 56, 75
7, 37320, Note_on_c, 2, 65, 75
7, 37320, Note_on_c, 2, 51, 75
7, 37440, Note_off_c, 2, 51, 64
7, 37440, Note_off_c, 2, 65, 64
7, 37440, Note_off_c, 2, 56, 64
7, 37440, Note_off_c, 2, 60, 64
7, 37440, Note_on_c, 2, 41, 70
7, 37440, Note_on_c, 2, 65, 75
7, 37440, Note_on_c, 2, 64, 75
7, 37440, Note_on_c, 2, 60, 75
7, 37440, Note_on_c, 2, 68, 75
7, 37550, Note_off_c, 2, 41, 64
7, 37560, Note_on_c, 2, 52, 70
7, 37608, Note_off_c, 2, 68, 64
7, 37608, Note_off_c, 2, 60, 64
7, 37608, Note_off_c, 2, 64, 64
7, 37608, Note_off_c, 2, 65, 64
7, 37790, Note_off_c, 2, 52, 64
7, 37800, Note_on_c, 2, 53, 70
7, 37800, Note_on_c, 2, 65, 65
7, 37800, Note_on_c, 2, 64, 65
7, 37800, Note_on_c, 2, 60, 65
7, 37800, Note_on_c, 2, 68, 65
7, 38016, Note_off_c, 2, 68, 64
7, 38016, Note_off_c, 2, 60, 64
7, 38016, Note_off_c, 2, 64, 64
7, 38016, Note_off_c, 2, 65, 64
7, 38030, Note_off_c, 2, 53, 64
7, 38040, Note_on_c, 2, 56, 70
7, 38160, Note_on_c, 2, 65, 75
7, 38160, Note_on_c, 2, 64, 75
7, 38160, Note_on_c, 2, 60, 75
7, 38160, Note_on_c, 2, 68, 75
7, 38270, Note_off_c, 2, 56, 64
7, 38304, Note_off_c, 2, 68, 64
7, 38304, Note_off_c, 2, 60, 64
7, 38304, Note_off_c, 2, 64, 64
7, 38304, Note_off_c, 2, 65, 64
7, 38400, Note_on_c, 2, 65, 65
7, 38400, Note_on_c, 2, 63, 65
7, 38400, Note_on_c, 2, 60, 65
7, 38400, Note_on_c, 2, 68, 65
7, 38544, Note_off_c, 2, 68, 64
7, 38544, Note_off_c, 2, 60, 64
7, 38544, Note_off_c, 2, 63, 64
7, 38544, Note_off_c, 2, 65, 64
7, 38640, Note_on_c, 2, 65, 75
7, 38640, Note_on_c, 2, 63, 75
7, 38640, Note_on_c, 2, 60, 75
7, 38640, Note_on_c, 2, 68, 75
7, 38856, Note_off_c, 2, 68, 64
7, 38856, Note_off_c, 2, 60, 64
7, 38856, Note_off_c, 2, 63, 64
7, 38856, Note_off_c, 2, 65, 64
7, 39000, Note_on_c, 2, 65, 65
7, 39000, Note_on_c, 2, 63, 65
7, 39000, Note_on_c, 2, 60, 65
7, 39000, Note_on_c, 2, 68, 65
7, 39144, Note_off_c, 2, 68, 64
7, 39144, Note_off_c, 2, 60, 64
7, 39144, Note_off_c, 2, 63, 64
7, 39144, Note_off_c, 2, 65, 64
7, 39240, Note_on_c, 2, 60, 75
7, 39240, Note_on_c, 2, 56, 75
7, 39240, Note_on_c, 2, 65, 75
7, 39240, Note_on_c, 2, 51, 75
7, 39360, Note_off_c, 2, 51, 64
7, 39360, Note_off_c, 2, 65, 64
7, 39360, Note_off_c, 2, 56, 64
7, 39360, Note_off_c, 2, 60, 64
7, 39360, Note_on_c, 2, 68, 75
7, 39360, Note_on_c, 2, 65, 75
7, 39360, Note_on_c, 2, 62, 75
7, 39360, Note_on_c, 2, 72, 75
7, 39528, Note_off_c, 2, 72, 64
7, 39528, Note_off_c, 2, 62, 64
7, 39528, Note_off_c, 2, 65, 64
7, 39528, Note_off_c, 2, 68, 64
7, 39720, Note_on_c, 2, 68, 65
7, 39720, Note_on_c, 2, 65, 65
7, 39720, Note_on_c, 2, 62, 65
7, 39720, Note_on_c, 2, 72, 65
7, 39936, Note_off_c, 2, 72, 64
7, 39936, Note_off_c, 2, 62, 64
7, 39936, Note_off_c, 2, 65, 64
7, 39936, Note_off_c, 2, 68, 64
7, 40080, Note_on_c, 2, 68, 75
7, 40080, Note_on_c, 2, 65, 75
7, 40080, Note_on_c, 2, 62, 75
7, 40080, Note_on_c, 2, 72, 75
7, 40224, Note_off_c, 2, 72, 64
7, 40224, Note_off_c, 2, 62, 64
7, 40224, Note_off_c, 2, 65, 64
7, 40224, Note_off_c, 2, 68, 64
7, 40320, Note_on_c, 2, 65, 65
7, 40320, Note_on_c, 2, 63, 65
7, 40320, Note_on_c, 2, 60, 65
7, 40320, Note_on_c, 2, 68, 65
7, 40464, Note_off_c, 2, 68, 64
7, 40464, Note_off_c, 2, 60, 64
7, 40464, Note_off_c, 2, 63, 64
7, 40464, Note_off_c, 2, 65, 64
7, 40560, Note_on_c, 2, 65, 75
7, 40560, Note_on_c, 2, 63, 75
7, 40560, Note_on_c, 2, 60, 75
7, 40560, Note_on_c, 2, 68, 75
7, 40776, Note_off_c, 2, 68, 64
7, 40776, Note_off_c, 2, 60, 64
7, 40776, Note_off_c, 2, 63, 64
7, 40776, Note_off_c, 2, 65, 64
7, 40920, Note_on_c, 2, 65, 65
7, 40920, Note_on_c, 2, 63, 65
7, 40920, Note_on_c, 2, 60, 65
7, 40920, Note_on_c, 2, 68, 65
7, 41064, Note_off_c, 2, 68, 64
7, 41064, Note_off_c, 2, 60, 64
7, 41064, Note_off_c, 2, 63, 64
7, 41064, Note_off_c, 2, 65, 64
7, 41160, Note_on_c, 2, 60, 75
7, 41160, Note_on_c, 2, 56, 75
7, 41160, Note_on_c, 2, 65, 75
7, 41160, Note_on_c, 2, 63, 75
7, 41280, Note_off_c, 2, 63, 64
7, 41280, Note_off_c, 2, 65, 64
7, 41280, Note_off_c, 2, 56, 64
7, 41280, Note_off_c, 2, 60, 64
7, 41280, Note_on_c, 2, 59, 65
7, 41280, Note_on_c, 2, 63, 65
7, 41280, Note_on_c, 2, 53, 65
7, 41280, Note_on_c, 2, 56, 65
7, 41424, Note_off_c, 2, 56, 64
7, 41424, Note_off_c, 2, 53, 64
7, 41424, Note_off_c, 2, 63, 64
7, 41424, Note_off_c, 2, 59, 64
7, 41520, Note_on_c, 2, 59, 75
7, 41520, Note_on_c, 2, 63, 75
7, 41520, Note_on_c, 2, 53, 75
7, 41520, Note_on_c, 2, 56, 75
7, 41736, Note_off_c, 2, 56, 64
7, 41736, Note_off_c, 2, 53, 64
7, 41736, Note_off_c, 2, 63, 64
7, 41736, Note_off_c, 2, 59, 64
7, 41880, Note_on_c, 2, 59, 65
7, 41880, Note_on_c, 2, 63, 65
7, 41880, Note_on_c, 2, 53, 65
7, 41880, Note_on_c, 2, 56, 65
7, 42024, Note_off_c, 2, 56, 64
7, 42024, Note_off_c, 2, 53, 64
7, 42024, Note_off_c, 2, 63, 64
7, 42024, Note_off_c, 2, 59, 64
7, 42120, Note_on_c, 2, 68, 75
7, 42120, Note_on_c, 2, 59, 75
7, 42120, Note_on_c, 2, 63, 75
7, 42120, Note_on_c, 2, 65, 75
7, 42240, Note_off_c, 2, 65, 64
7, 42240, Note_off_c, 2, 63, 64
7, 42240, Note_off_c, 2, 59, 64
7, 42240, Note_off_c, 2, 68, 64
7, 42240, Note_on_c, 2, 53, 65
7, 42240, Note_on_c, 2, 67, 65
7, 42240, Note_on_c, 2, 58, 65
7, 42240, Note_on_c, 2, 62, 65
7, 42360, Note_on_c, 2, 43, 70
7, 42384, Note_off_c, 2, 62, 64
7, 42384, Note_off_c, 2, 58, 64
7, 42384, Note_off_c, 2, 67, 64
7, 42384, Note_off_c, 2, 53, 64
7, 42480, Note_on_c, 2, 53, 75
7, 42480, Note_on_c, 2, 67, 75
7, 42480, Note_on_c, 2, 58, 75
7, 42480, Note_on_c, 2, 62, 75
7, 42590, Note_off_c, 2, 43, 64
7, 42600, Note_on_c, 2, 43, 70
7, 42696, Note_off_c, 2, 62, 64
7, 42696, Note_off_c, 2, 58, 64
7, 42696, Note_off_c, 2, 67, 64
7, 42696, Note_off_c, 2, 53, 64
7, 42830, Note_off_c, 2, 43, 64
7, 42840, Note_on_c, 2, 43, 70
7, 42840, Note_on_c, 2, 53, 65
7, 42840, Note_on_c, 2, 67, 65
7, 42840, Note_on_c, 2, 58, 65
7, 42840, Note_on_c, 2, 62, 65
7, 42984, Note_off_c, 2, 62, 64
7, 42984, Note_off_c, 2, 58, 64
7, 42984, Note_off_c, 2, 67, 64
7, 42984, Note_off_c, 2, 53, 64
7, 43070, Note_off_c, 2, 43, 64
7, 43080, Note_on_c, 2, 67, 75
7, 43080, Note_on_c, 2, 58, 75
7, 43080, Note_on_c, 2, 62, 75
7, 43080, Note_on_c, 2, 65, 75
7, 43080, Note_on_c, 2, 43, 70
7, 43200, Note_off_c, 2, 43, 64
7, 43200, Note_off_c, 2, 65, 64
7, 43200, Note_off_c, 2, 62, 64
7, 43200, Note_off_c, 2, 58, 64
7, 43200, Note_off_c, 2, 67, 64
7, 43200, Note_on_c, 2, 64, 75
7, 43200, Note_on_c, 2, 60, 75
7, 43200, Note_on_c, 2, 58, 75
7, 43200, Note_on_c, 2, 68, 75
7, 43368, Note_off_c, 2, 68, 64
7, 43368, Note_off_c, 2, 58, 64
7, 43368, Note_off_c, 2, 60, 64
7, 43368, Note_off_c, 2, 64, 64
7, 43560, Note_on_c, 2, 64, 65
7, 43560, Note_on_c, 2, 60, 65
7, 43560, Note_on_c, 2, 58, 65
7, 43560, Note_on_c, 2, 68, 65
7, 43776, Note_off_c, 2, 68, 64
7, 43776, Note_off_c, 2, 58, 64
7, 43776, Note_off_c, 2, 60, 64
7, 43776, Note_off_c, 2, 64, 64
7, 43920, Note_on_c, 2, 64, 75
7, 43920, Note_on_c, 2, 60, 75
7, 43920, Note_on_c, 2, 58, 75
7, 43920, Note_on_c, 2, 68, 75
7, 44064, Note_off_c, 2, 68, 64
7, 44064, Note_off_c, 2, 58, 64
7, 44064, Note_off_c, 2, 60, 64
7, 44064, Note_off_c, 2, 64, 64
7, 44160, Note_on_c, 2, 51, 65
7, 44160, Note_on_c, 2, 53, 65
7, 44160, Note_on_c, 2, 56, 65
7, 44160, Note_on_c, 2, 60, 65
7, 44304, Note_off_c, 2, 60, 64
7, 44304, Note_off_c, 2, 56, 64
7, 44304, Note_off_c, 2, 53, 64
7, 44304, Note_off_c, 2, 51, 64
7, 44400, Note_on_c, 2, 51, 75
7, 44400, Note_on_c, 2, 53, 75
7, 44400, Note_on_c, 2, 56, 75
7, 44400, Note_on_c, 2, 60, 75
7, 44616, Note_off_c, 2, 60, 64
7, 44616, Note_off_c, 2, 56, 64
7, 44616, Note_off_c, 2, 53, 64
7, 44616, Note_off_c, 2, 51, 64
7, 44760, Note_on_c, 2, 51, 65
7, 44760, Note_on_c, 2, 53, 65
7, 44760, Note_on_c, 2, 56, 65
7, 44760, Note_on_c, 2, 60, 65
7, 44904, Note_off_c, 2, 60, 64
7, 44904, Note_off_c, 2, 56, 64
7, 44904, Note_off_c, 2, 53, 64
7, 44904, Note_off_c, 2, 51, 64
7, 45000, Note_on_c, 2, 68, 75
7, 45000, Note_on_c, 2, 60, 75
7, 45000, Note_on_c, 2, 63, 75
7, 45000, Note_on_c, 2, 65, 75
7, 45120, Note_off_c, 2, 65, 64
7, 45120, Note_off_c, 2, 63, 64
7, 45120, Note_off_c, 2, 60, 64
7, 45120, Note_off_c, 2, 68, 64
7, 45120, Note_on_c, 2, 52, 75
7, 45120, Note_on_c, 2, 65, 75
7, 45120, Note_on_c, 2, 56, 75
7, 45120, Note_on_c, 2, 60, 75
7, 45288, Note_off_c, 2, 60, 64
7, 45288, Note_off_c, 2, 56, 64
7, 45288, Note_off_c, 2, 65, 64
7, 45288, Note_off_c, 2, 52, 64
7, 45480, Note_on_c, 2, 52, 65
7, 45480, Note_on_c, 2, 65, 65
7, 45480, Note_on_c, 2, 56, 65
7, 45480, Note_on_c, 2, 60, 65
7, 45696, Note_off_c, 2, 60, 64
7, 45696, Note_off_c, 2, 56, 64
7, 45696, Note_off_c, 2, 65, 64
7, 45696, Note_off_c, 2, 52, 64
7, 45840, Note_on_c, 2, 52, 75
7, 45840, Note_on_c, 2, 65, 75
7, 45840, Note_on_c, 2, 56, 75
7, 45840, Note_on_c, 2, 60, 75
7, 45984, Note_off_c, 2, 60, 64
7, 45984, Note_off_c, 2, 56, 64
7, 45984, Note_off_c, 2, 65, 64
7, 45984, Note_off_c, 2, 52, 64
7, 46080, Note_on_c, 2, 65, 65
7, 46080, Note_on_c, 2, 63, 65
7, 46080, Note_on_c, 2, 60, 65
7, 46080, Note_on_c, 2, 68, 65
7, 46224, Note_off_c, 2, 68, 64
7, 46224, Note_off_c, 2, 60, 64
7, 46224, Note_off_c, 2, 63, 64
7, 46224, Note_off_c, 2, 65, 64
7, 46320, Note_on_c, 2, 65, 75
7, 46320, Note_on_c, 2, 63, 75
7, 46320, Note_on_c, 2, 60, 75
7, 46320, Note_on_c, 2, 68, 75
7, 46536, Note_off_c, 2, 68, 64
7, 46536, Note_off_c, 2, 60, 64
7, 46536, Note_off_c, 2, 63, 64
7, 46536, Note_off_c, 2, 65, 64
7, 46680, Note_on_c, 2, 65, 65
7, 46680, Note_on_c, 2, 63, 65
7, 46680, Note_on_c, 2, 60, 65
7, 46680, Note_on_c, 2, 68, 65
7, 46824, Note_off_c, 2, 68, 64
7, 46824, Note_off_c, 2, 60, 64
7, 46824, Note_off_c, 2, 63, 64
7, 46824, Note_off_c, 2, 65, 64
7, 46920, Note_on_c, 2, 60, 75
7, 46920, Note_on_c, 2, 56, 75
7, 46920, Note_on_c, 2, 65, 75
7, 46920, Note_on_c, 2, 51, 75
7, 47040, Note_off_c, 2, 51, 64
7, 47040, Note_off_c, 2, 65, 64
7, 47040, Note_off_c, 2, 56, 64
7, 47040, Note_off_c, 2, 60, 64
7, 47040, Note_on_c, 2, 68, 75
7, 47040, Note_on_c, 2, 65, 75
7, 47040, Note_on_c, 2, 62, 75
7, 47040, Note_on_c, 2, 72, 75
7, 47208, Note_off_c, 2, 72, 64
7, 47208, Note_off_c, 2, 62, 64
7, 47208, Note_off_c, 2, 65, 64
7, 47208, Note_off_c, 2, 68, 64
7, 47400, Note_on_c, 2, 68, 65
7, 47400, Note_on_c, 2, 65, 65
7, 47400, Note_on_c, 2, 62, 65
7, 47400, Note_on_c, 2, 72, 65
7, 47616, Note_off_c, 2, 72, 64
7, 47616, Note_off_c, 2, 62, 64
7, 47616, Note_off_c, 2, 65, 64
7, 47616, Note_off_c, 2, 68, 64
7, 47760, Note_on_c, 2, 68, 75
7, 47760, Note_on_c, 2, 65, 75
7, 47760, Note_on_c, 2, 62, 75
7, 47760, Note_on_c, 2, 72, 75
7, 47904, Note_off_c, 2, 72, 64
7, 47904, Note_off_c, 2, 62, 64
7, 47904, Note_off_c, 2, 65, 64
7, 47904, Note_off_c, 2, 68, 64
7, 48000, Note_on_c, 2, 65, 65
7, 48000, Note_on_c, 2, 63, 65
7, 48000, Note_on_c, 2, 59, 65
7, 48000, Note_on_c, 2, 68, 65
7, 48120, Note_on_c, 2, 49, 90
7, 48144, Note_off_c, 2, 68, 64
7, 48144, Note_off_c, 2, 59, 64
7, 48144, Note_off_c, 2, 63, 64
7, 48144, Note_off_c, 2, 65, 64
7, 48240, Note_on_c, 2, 65, 75
7, 48240, Note_on_c, 2, 63, 75
7, 48240, Note_on_c, 2, 59, 75
7, 48240, Note_on_c, 2, 68, 75
7, 48264, Note_off_c, 2, 49, 64
7, 48456, Note_off_c, 2, 68, 64
7, 48456, Note_off_c, 2, 59, 64
7, 48456, Note_off_c, 2, 63, 64
7, 48456, Note_off_c, 2, 65, 64
7, 48600, Note_on_c, 2, 65, 65
7, 48600, Note_on_c, 2, 63, 65
7, 48600, Note_on_c, 2, 59, 65
7, 48600, Note_on_c, 2, 68, 65
7, 48744, Note_off_c, 2, 68, 64
7, 48744, Note_off_c, 2, 59, 64
7, 48744, Note_off_c, 2, 63, 64
7, 48744, Note_off_c, 2, 65, 64
7, 48840, Note_on_c, 2, 68, 75
7, 48840, Note_on_c, 2, 53, 75
7, 48840, Note_on_c, 2, 63, 75
7, 48840, Note_on_c, 2, 59, 75
7, 48960, Note_off_c, 2, 59, 64
7, 48960, Note_off_c, 2, 63, 64
7, 48960, Note_off_c, 2, 53, 64
7, 48960, Note_off_c, 2, 68, 64
7, 48960, Note_on_c, 2, 58, 65
7, 48960, Note_on_c, 2, 60, 65
7, 48960, Note_on_c, 2, 52, 65
7, 48960, Note_on_c, 2, 68, 65
7, 49104, Note_off_c, 2, 68, 64
7, 49104, Note_off_c, 2, 52, 64
7, 49104, Note_off_c, 2, 60, 64
7, 49104, Note_off_c, 2, 58, 64
7, 49200, Note_on_c, 2, 58, 75
7, 49200, Note_on_c, 2, 60, 75
7, 49200, Note_on_c, 2, 52, 75
7, 49200, Note_on_c, 2, 68, 75
7, 49416, Note_off_c, 2, 68, 64
7, 49416, Note_off_c, 2, 52, 64
7, 49416, Note_off_c, 2, 60, 64
7, 49416, Note_off_c, 2, 58, 64
7, 49560, Note_on_c, 2, 58, 65
7, 49560, Note_on_c, 2, 60, 65
7, 49560, Note_on_c, 2, 52, 65
7, 49560, Note_on_c, 2, 68, 65
7, 49704, Note_off_c, 2, 68, 64
7, 49704, Note_off_c, 2, 52, 64
7, 49704, Note_off_c, 2, 60, 64
7, 49704, Note_off_c, 2, 58, 64
7, 49800, Note_on_c, 2, 68, 75
7, 49800, Note_on_c, 2, 58, 75
7, 49800, Note_on_c, 2, 60, 75
7, 49800, Note_on_c, 2, 64, 75
7, 49920, Note_off_c, 2, 64, 64
7, 49920, Note_off_c, 2, 60, 64
7, 49920, Note_off_c, 2, 58, 64
7, 49920, Note_off_c, 2, 68, 64
7, 49920, Note_on_c, 2, 51, 65
7, 49920, Note_on_c, 2, 53, 65
7, 49920, Note_on_c, 2, 56, 65
7, 49920, Note_on_c, 2, 60, 65
7, 50064, Note_off_c, 2, 60, 64
7, 50064, Note_off_c, 2, 56, 64
7, 50064, Note_off_c, 2, 53, 64
7, 50064, Note_off_c, 2, 51, 64
7, 50160, Note_on_c, 2, 51, 75
7, 50160, Note_on_c, 2, 53, 75
7, 50160, Note_on_c, 2, 56, 75
7, 50160, Note_on_c, 2, 60, 75
7, 50376, Note_off_c, 2, 60, 64
7, 50376, Note_off_c, 2, 56, 64
7, 50376, Note_off_c, 2, 53, 64
7, 50376, Note_off_c, 2, 51, 64
7, 50520, Note_on_c, 2, 51, 65
7, 50520, Note_on_c, 2, 53, 65
7, 50520, Note_on_c, 2, 56, 65
7, 50520, Note_on_c, 2, 60, 65
7, 50664, Note_off_c, 2, 60, 64
7, 50664, Note_off_c, 2, 56, 64
7, 50664, Note_off_c, 2, 53, 64
7, 50664, Note_off_c, 2, 51, 64
7, 50760, Note_on_c, 2, 68, 75
7, 50760, Note_on_c, 2, 60, 75
7, 50760, Note_on_c, 2, 63, 75
7, 50760, Note_on_c, 2, 65, 75
7, 50880, Note_off_c, 2, 65, 64
7, 50880, Note_off_c, 2, 63, 64
7, 50880, Note_off_c, 2, 60, 64
7, 50880, Note_off_c, 2, 68, 64
7, 50880, Note_on_c, 2, 51, 75
7, 50880, Note_on_c, 2, 53, 75
7, 50880, Note_on_c, 2, 56, 75
7, 50880, Note_on_c, 2, 60, 75
7, 50980, Note_off_c, 2, 60, 64
7, 50980, Note_off_c, 2, 56, 64
7, 50980, Note_off_c, 2, 53, 64
7, 50980, Note_off_c, 2, 51, 64
7, 51840, Note_on_c, 2, 65, 65
7, 51840, Note_on_c, 2, 63, 65
7, 51840, Note_on_c, 2, 60, 65
7, 51840, Note_on_c, 2, 68, 65
7, 51984, Note_off_c, 2, 68, 64
7, 51984, Note_off_c, 2, 60, 64
7, 51984, Note_off_c, 2, 63, 64
7, 51984, Note_off_c, 2, 65, 64
7, 52080, Note_on_c, 2, 65, 75
7, 52080, Note_on_c, 2, 63, 75
7, 52080, Note_on_c, 2, 60, 75
7, 52080, Note_on_c, 2, 68, 75
7, 52296, Note_off_c, 2, 68, 64
7, 52296, Note_off_c, 2, 60, 64
7, 52296, Note_off_c, 2, 63, 64
7, 52296, Note_off_c, 2, 65, 64
7, 52440, Note_on_c, 2, 65, 65
7, 52440, Note_on_c, 2, 63, 65
7, 52440, Note_on_c, 2, 60, 65
7, 52440, Note_on_c, 2, 68, 65
7, 52584, Note_off_c, 2, 68, 64
7, 52584, Note_off_c, 2, 60, 64
7, 52584, Note_off_c, 2, 63, 64
7, 52584, Note_off_c, 2, 65, 64
7, 52680, Note_on_c, 2, 60, 75
7, 52680, Note_on_c, 2, 56, 75
7, 52680, Note_on_c, 2, 65, 75
7, 52680, Note_on_c, 2, 51, 75
7, 52800, Note_off_c, 2, 51, 64
7, 52800, Note_off_c, 2, 65, 64
7, 52800, Note_off_c, 2, 56, 64
7, 52800, Note_off_c, 2, 60, 64
7, 52800, Note_on_c, 2, 41, 70
7, 52800, Note_on_c, 2, 65, 75
7, 52800, Note_on_c, 2, 64, 75
7, 52800, Note_on_c, 2, 60, 75
7, 52800, Note_on_c, 2, 68, 75
7, 52910, Note_off_c, 2, 41, 64
7, 52920, Note_on_c, 2, 52, 70
7, 52968, Note_off_c, 2, 68, 64
7, 52968, Note_off_c, 2, 60, 64
7, 52968, Note_off_c, 2, 64, 64
7, 52968, Note_off_c, 2, 65, 64
7, 53150, Note_off_c, 2, 52, 64
7, 53160, Note_on_c, 2, 53, 70
7, 53160, Note_on_c, 2, 65, 65
7, 53160, Note_on_c, 2, 64, 65
7, 53160, Note_on_c, 2, 60, 65
7, 53160, Note_on_c, 2, 68, 65
7, 53376, Note_off_c, 2, 68, 64
7, 53376, Note_off_c, 2, 60, 64
7, 53376, Note_off_c, 2, 64, 64
7, 53376, Note_off_c, 2, 65, 64
7, 53390, Note_off_c, 2, 53, 64
7, 53400, Note_on_c, 2, 56, 70
7, 53520, Note_on_c, 2, 65, 75
7, 53520, Note_on_c, 2, 64, 75
7, 53520, Note_on_c, 2, 60, 75
7, 53520, Note_on_c, 2, 68, 75
7, 53630, Note_off_c, 2, 56, 64
7, 53664, Note_off_c, 2, 68, 64
7, 53664, Note_off_c, 2, 60, 64
7, 53664, Note_off_c, 2, 64, 64
7, 53664, Note_off_c, 2, 65, 64
7, 53760, Note_on_c, 2, 65, 65
7, 53760, Note_on_c, 2, 63, 65
7, 53760, Note_on_c, 2, 60, 65
7, 53760, Note_on_c, 2, 68, 65
7, 53904, Note_off_c, 2, 68, 64
7, 53904, Note_off_c, 2, 60, 64
7, 53904, Note_off_c, 2, 63, 64
7, 53904, Note_off_c, 2, 65, 64
7, 54000, Note_on_c, 2, 65, 75
7, 54000, Note_on_c, 2, 63, 75
7, 54000, Note_on_c, 2, 60, 75
7, 54000, Note_on_c, 2, 68, 75
7, 54216, Note_off_c, 2, 68, 64
7, 54216, Note_off_c, 2, 60, 64
7, 54216, Note_off_c, 2, 63, 64
7, 54216, Note_off_c, 2, 65, 64
7, 54360, Note_on_c, 2, 65, 65
7, 54360, Note_on_c, 2, 63, 65
7, 54360, Note_on_c, 2, 60, 65
7, 54360, Note_on_c, 2, 68, 65
7, 54504, Note_off_c, 2, 68, 64
7, 54504, Note_off_c, 2, 60, 64
7, 54504, Note_off_c, 2, 63, 64
7, 54504, Note_off_c, 2, 65, 64
7, 54600, Note_on_c, 2, 60, 75
7, 54600, Note_on_c, 2, 56, 75
7, 54600, Note_on_c, 2, 53, 75
7, 54600, Note_on_c, 2, 51, 75
7, 54720, Note_off_c, 2, 51, 64
7, 54720, Note_off_c, 2, 53, 64
7, 54720, Note_off_c, 2, 56, 64
7, 54720, Note_off_c, 2, 60, 64
7, 54720, Note_on_c, 2, 56, 75
7, 54720, Note_on_c, 2, 60, 75
7, 54720, Note_on_c, 2, 62, 75
7, 54720, Note_on_c, 2, 65, 75
7, 54888, Note_off_c, 2, 65, 64
7, 54888, Note_off_c, 2, 62, 64
7, 54888, Note_off_c, 2, 60, 64
7, 54888, Note_off_c, 2, 56, 64
7, 55080, Note_on_c, 2, 56, 65
7, 55080, Note_on_c, 2, 60, 65
7, 55080, Note_on_c, 2, 62, 65
7, 55080, Note_on_c, 2, 65, 65
7, 55296, Note_off_c, 2, 65, 64
7, 55296, Note_off_c, 2, 62, 64
7, 55296, Note_off_c, 2, 60, 64
7, 55296, Note_off_c, 2, 56, 64
7, 55440, Note_on_c, 2, 56, 75
7, 55440, Note_on_c, 2, 60, 75
7, 55440, Note_on_c, 2, 62, 75
7, 55440, Note_on_c, 2, 65, 75
7, 55584, Note_off_c, 2, 65, 64
7, 55584, Note_off_c, 2, 62, 64
7, 55584, Note_off_c, 2, 60, 64
7, 55584, Note_off_c, 2, 56, 64
7, 55680, Note_on_c, 2, 63, 65
7, 55680, Note_on_c, 2, 65, 65
7, 55680, Note_on_c, 2, 56, 65
7, 55680, Note_on_c, 2, 72, 65
7, 55800, Note_on_c, 2, 41, 70
7, 55824, Note_off_c, 2, 72, 64
7, 55824, Note_off_c, 2, 56, 64
7, 55824, Note_off_c, 2, 65, 64
7, 55824, Note_off_c, 2, 63, 64
7, 55920, Note_on_c, 2, 63, 75
7, 55920, Note_on_c, 2, 65, 75
7, 55920, Note_on_c, 2, 56, 75
7, 55920, Note_on_c, 2, 72, 75
7, 56030, Note_off_c, 2, 41, 64
7, 56040, Note_on_c, 2, 41, 70
7, 56136, Note_off_c, 2, 72, 64
7, 56136, Note_off_c, 2, 56, 64
7, 56136, Note_off_c, 2, 65, 64
7, 56136, Note_off_c, 2, 63, 64
7, 56270, Note_off_c, 2, 41, 64
7, 56280, Note_on_c, 2, 41, 70
7, 56280, Note_on_c, 2, 63, 65
7, 56280, Note_on_c, 2, 65, 65
7, 56280, Note_on_c, 2, 56, 65
7, 56280, Note_on_c, 2, 72, 65
7, 56424, Note_off_c, 2, 72, 64
7, 56424, Note_off_c, 2, 56, 64
7, 56424, Note_off_c, 2, 65, 64
7, 56424, Note_off_c, 2, 63, 64
7, 56510, Note_off_c, 2, 41, 64
7, 56520, Note_on_c, 2, 68, 75
7, 56520, Note_on_c, 2, 60, 75
7, 56520, Note_on_c, 2, 63, 75
7, 56520, Note_on_c, 2, 65, 75
7, 56520, Note_on_c, 2, 41, 70
7, 56640, Note_off_c, 2, 41, 64
7, 56640, Note_off_c, 2, 65, 64
7, 56640, Note_off_c, 2, 63, 64
7, 56640, Note_off_c, 2, 60, 64
7, 56640, Note_off_c, 2, 68, 64
7, 56640, Note_on_c, 2, 59, 65
7, 56640, Note_on_c, 2, 75, 65
7, 56640, Note_on_c, 2, 65, 65
7, 56640, Note_on_c, 2, 68, 65
7, 56784, Note_off_c, 2, 68, 64
7, 56784, Note_off_c, 2, 65, 64
7, 56784, Note_off_c, 2, 75, 64
7, 56784, Note_off_c, 2, 59, 64
7, 56880, Note_on_c, 2, 59, 75
7, 56880, Note_on_c, 2, 75, 75
7, 56880, Note_on_c, 2, 65, 75
7, 56880, Note_on_c, 2, 68, 75
7, 57096, Note_off_c, 2, 68, 64
7, 57096, Note_off_c, 2, 65, 64
7, 57096, Note_off_c, 2, 75, 64
7, 57096, Note_off_c, 2, 59, 64
7, 57240, Note_on_c, 2, 59, 65
7, 57240, Note_on_c, 2, 75, 65
7, 57240, Note_on_c, 2, 65, 65
7, 57240, Note_on_c, 2, 68, 65
7, 57384, Note_off_c, 2, 68, 64
7, 57384, Note_off_c, 2, 65, 64
7, 57384, Note_off_c, 2, 75, 64
7, 57384, Note_off_c, 2, 59, 64
7, 57480, Note_on_c, 2, 68, 75
7, 57480, Note_on_c, 2, 59, 75
7, 57480, Note_on_c, 2, 63, 75
7, 57480, Note_on_c, 2, 65, 75
7, 57600, Note_off_c, 2, 65, 64
7, 57600, Note_off_c, 2, 63, 64
7, 57600, Note_off_c, 2, 59, 64
7, 57600, Note_off_c, 2, 68, 64
7, 57600, Note_on_c, 2, 65, 65
7, 57600, Note_on_c, 2, 62, 65
7, 57600, Note_on_c, 2, 58, 65
7, 57600, Note_on_c, 2, 67, 65
7, 57720, Note_on_c, 2, 43, 90
7, 57744, Note_off_c, 2, 67, 64
7, 57744, Note_off_c, 2, 58, 64
7, 57744, Note_off_c, 2, 62, 64
7, 57744, Note_off_c, 2, 65, 64
7, 57840, Note_on_c, 2, 65, 75
7, 57840, Note_on_c, 2, 62, 75
7, 57840, Note_on_c, 2, 58, 75
7, 57840, Note_on_c, 2, 67, 75
7, 57864, Note_off_c, 2, 43, 64
7, 58056, Note_off_c, 2, 67, 64
7, 58056, Note_off_c, 2, 58, 64
7, 58056, Note_off_c, 2, 62, 64
7, 58056, Note_off_c, 2, 65, 64
7, 58200, Note_on_c, 2, 65, 65
7, 58200, Note_on_c, 2, 62, 65
7, 58200, Note_on_c, 2, 58, 65
7, 58200, Note_on_c, 2, 67, 65
7, 58344, Note_off_c, 2, 67, 64
7, 58344, Note_off_c, 2, 58, 64
7, 58344, Note_off_c, 2, 62, 64
7, 58344, Note_off_c, 2, 65, 64
7, 58440, Note_on_c, 2, 62, 75
7, 58440, Note_on_c, 2, 58, 75
7, 58440, Note_on_c, 2, 67, 75
7, 58440, Note_on_c, 2, 65, 75
7, 58560, Note_off_c, 2, 65, 64
7, 58560, Note_off_c, 2, 67, 64
7, 58560, Note_off_c, 2, 58, 64
7, 58560, Note_off_c, 2, 62, 64
7, 58560, Note_on_c, 2, 58, 75
7, 58560, Note_on_c, 2, 72, 75
7, 58560, Note_on_c, 2, 64, 75
7, 58560, Note_on_c, 2, 68, 75
7, 58728, Note_off_c, 2, 68, 64
7, 58728, Note_off_c, 2, 64, 64
7, 58728, Note_off_c, 2, 72, 64
7, 58728, Note_off_c, 2, 58, 64
7, 58920, Note_on_c, 2, 58, 65
7, 58920, Note_on_c, 2, 72, 65
7, 58920, Note_on_c, 2, 64, 65
7, 58920, Note_on_c, 2, 68, 65
7, 59136, Note_off_c, 2, 68, 64
7, 59136, Note_off_c, 2, 64, 64
7, 59136, Note_off_c, 2, 72, 64
7, 59136, Note_off_c, 2, 58, 64
7, 59280, Note_on_c, 2, 58, 75
7, 59280, Note_on_c, 2, 72, 75
7, 59280, Note_on_c, 2, 64, 75
7, 59280, Note_on_c, 2, 68, 75
7, 59424, Note_off_c, 2, 68, 64
7, 59424, Note_off_c, 2, 64, 64
7, 59424, Note_off_c, 2, 72, 64
7, 59424, Note_off_c, 2, 58, 64
7, 59520, Note_on_c, 2, 63, 65
7, 59520, Note_on_c, 2, 65, 65
7, 59520, Note_on_c, 2, 56, 65
7, 59520, Note_on_c, 2, 60, 65
7, 59664, Note_off_c, 2, 60, 64
7, 59664, Note_off_c, 2, 56, 64
7, 59664, Note_off_c, 2, 65, 64
7, 59664, Note_off_c, 2, 63, 64
7, 59760, Note_on_c, 2, 63, 75
7, 59760, Note_on_c, 2, 65, 75
7, 59760, Note_on_c, 2, 56, 75
7, 59760, Note_on_c, 2, 60, 75
7, 59976, Note_off_c, 2, 60, 64
7, 59976, Note_off_c, 2, 56, 64
7, 59976, Note_off_c, 2, 65, 64
7, 59976, Note_off_c, 2, 63, 64
7, 60120, Note_on_c, 2, 63, 65
7, 60120, Note_on_c, 2, 65, 65
7, 60120, Note_on_c, 2, 56, 65
7, 60120, Note_on_c, 2, 60, 65
7, 60264, Note_off_c, 2, 60, 64
7, 60264, Note_off_c, 2, 56, 64
7, 60264, Note_off_c, 2, 65, 64
7, 60264, Note_off_c, 2, 63, 64
7, 60360, Note_on_c, 2, 68, 75
7, 60360, Note_on_c, 2, 60, 75
7, 60360, Note_on_c, 2, 63, 75
7, 60360, Note_on_c, 2, 65, 75
7, 60480, Note_off_c, 2, 65, 64
7, 60480, Note_off_c, 2, 63, 64
7, 60480, Note_off_c, 2, 60, 64
7, 60480, Note_off_c, 2, 68, 64
7, 60480, Note_on_c, 2, 65, 75
7, 60480, Note_on_c, 2, 64, 75
7, 60480, Note_on_c, 2, 60, 75
7, 60480, Note_on_c, 2, 68, 75
7, 60648, Note_off_c, 2, 68, 64
7, 60648, Note_off_c, 2, 60, 64
7, 60648, Note_off_c, 2, 64, 64
7, 60648, Note_off_c, 2, 65, 64
7, 60840, Note_on_c, 2, 65, 65
7, 60840, Note_on_c, 2, 64, 65
7, 60840, Note_on_c, 2, 60, 65
7, 60840, Note_on_c, 2, 68, 65
7, 61056, Note_off_c, 2, 68, 64
7, 61056, Note_off_c, 2, 60, 64
7, 61056, Note_off_c, 2, 64, 64
7, 61056, Note_off_c, 2, 65, 64
7, 61200, Note_on_c, 2, 65, 75
7, 61200, Note_on_c, 2, 64, 75
7, 61200, Note_on_c, 2, 60, 75
7, 61200, Note_on_c, 2, 68, 75
7, 61344, Note_off_c, 2, 68, 64
7, 61344, Note_off_c, 2, 60, 64
7, 61344, Note_off_c, 2, 64, 64
7, 61344, Note_off_c, 2, 65, 64
7, 61440, Note_on_c, 2, 65, 65
7, 61440, Note_on_c, 2, 63, 65
7, 61440, Note_on_c, 2, 60, 65
7, 61440, Note_on_c, 2, 68, 65
7, 61584, Note_off_c, 2, 68, 64
7, 61584, Note_off_c, 2, 60, 64
7, 61584, Note_off_c, 2, 63, 64
7, 61584, Note_off_c, 2, 65, 64
7, 61680, Note_on_c, 2, 65, 75
7, 61680, Note_on_c, 2, 63, 75
7, 61680, Note_on_c, 2, 60, 75
7, 61680, Note_on_c, 2, 68, 75
7, 61896, Note_off_c, 2, 68, 64
7, 61896, Note_off_c, 2, 60, 64
7, 61896, Note_off_c, 2, 63, 64
7, 61896, Note_off_c, 2, 65, 64
7, 62040, Note_on_c, 2, 65, 65
7, 62040, Note_on_c, 2, 63, 65
7, 62040, Note_on_c, 2, 60, 65
7, 62040, Note_on_c, 2, 68, 65
7, 62184, Note_off_c, 2, 68, 64
7, 62184, Note_off_c, 2, 60, 64
7, 62184, Note_off_c, 2, 63, 64
7, 62184, Note_off_c, 2, 65, 64
7, 62280, Note_on_c, 2, 60, 75
7, 62280, Note_on_c, 2, 56, 75
7, 62280, Note_on_c, 2, 65, 75
7, 62280, Note_on_c, 2, 63, 75
7, 62400, Note_off_c, 2, 63, 64
7, 62400, Note_off_c, 2, 65, 64
7, 62400, Note_off_c, 2, 56, 64
7, 62400, Note_off_c, 2, 60, 64
7, 62400, Note_on_c, 2, 62, 75
7, 62400, Note_on_c, 2, 60, 75
7, 62400, Note_on_c, 2, 56, 75
7, 62400, Note_on_c, 2, 65, 75
7, 62568, Note_off_c, 2, 65, 64
7, 62568, Note_off_c, 2, 56, 64
7, 62568, Note_off_c, 2, 60, 64
7, 62568, Note_off_c, 2, 62, 64
7, 62760, Note_on_c, 2, 62, 65
7, 62760, Note_on_c, 2, 60, 65
7, 62760, Note_on_c, 2, 56, 65
7, 62760, Note_on_c, 2, 65, 65
7, 62976, Note_off_c, 2, 65, 64
7, 62976, Note_off_c, 2, 56, 64
7, 62976, Note_off_c, 2, 60, 64
7, 62976, Note_off_c, 2, 62, 64
7, 63120, Note_on_c, 2, 62, 75
7, 63120, Note_on_c, 2, 60, 75
7, 63120, Note_on_c, 2, 56, 75
7, 63120, Note_on_c, 2, 65, 75
7, 63264, Note_off_c, 2, 65, 64
7, 63264, Note_off_c, 2, 56, 64
7, 63264, Note_off_c, 2, 60, 64
7, 63264, Note_off_c, 2, 62, 64
7, 63360, Note_on_c, 2, 59, 65
7, 63360, Note_on_c, 2, 75, 65
7, 63360, Note_on_c, 2, 65, 65
7, 63360, Note_on_c, 2, 68, 65
7, 63504, Note_off_c, 2, 68, 64
7, 63504, Note_off_c, 2, 65, 64
7, 63504, Note_off_c, 2, 75, 64
7, 63504, Note_off_c, 2, 59, 64
7, 63600, Note_on_c, 2, 59, 75
7, 63600, Note_on_c, 2, 75, 75
7, 63600, Note_on_c, 2, 65, 75
7, 63600, Note_on_c, 2, 68, 75
7, 63816, Note_off_c, 2, 68, 64
7, 63816, Note_off_c, 2, 65, 64
7, 63816, Note_off_c, 2, 75, 64
7, 63816, Note_off_c, 2, 59, 64
7, 63960, Note_on_c, 2, 59, 65
7, 63960, Note_on_c, 2, 75, 65
7, 63960, Note_on_c, 2, 65, 65
7, 63960, Note_on_c, 2, 68, 65
7, 64104, Note_off_c, 2, 68, 64
7, 64104, Note_off_c, 2, 65, 64
7, 64104, Note_off_c, 2, 75, 64
7, 64104, Note_off_c, 2, 59, 64
7, 64200, Note_on_c, 2, 68, 75
7, 64200, Note_on_c, 2, 59, 75
7, 64200, Note_on_c, 2, 63, 75
7, 64200, Note_on_c, 2, 65, 75
7, 64320, Note_off_c, 2, 65, 64
7, 64320, Note_off_c, 2, 63, 64
7, 64320, Note_off_c, 2, 59, 64
7, 64320, Note_off_c, 2, 68, 64
7, 64320, Note_on_c, 2, 58, 75
7, 64320, Note_on_c, 2, 60, 75
7, 64320, Note_on_c, 2, 64, 75
7, 64320, Note_on_c, 2, 68, 75
7, 64488, Note_off_c, 2, 68, 64
7, 64488, Note_off_c, 2, 64, 64
7, 64488, Note_off_c, 2, 60, 64
7, 64488, Note_off_c, 2, 58, 64
7, 64680, Note_on_c, 2, 58, 65
7, 64680, Note_on_c, 2, 60, 65
7, 64680, Note_on_c, 2, 64, 65
7, 64680, Note_on_c, 2, 68, 65
7, 64896, Note_off_c, 2, 68, 64
7, 64896, Note_off_c, 2, 64, 64
7, 64896, Note_off_c, 2, 60, 64
7, 64896, Note_off_c, 2, 58, 64
7, 65040, Note_on_c, 2, 58, 75
7, 65040, Note_on_c, 2, 60, 75
7, 65040, Note_on_c, 2, 64, 75
7, 65040, Note_on_c, 2, 68, 75
7, 65184, Note_off_c, 2, 68, 64
7, 65184, Note_off_c, 2, 64, 64
7, 65184, Note_off_c, 2, 60, 64
7, 65184, Note_off_c, 2, 58, 64
7, 65280, Note_on_c, 2, 63, 65
7, 65280, Note_on_c, 2, 65, 65
7, 65280, Note_on_c, 2, 56, 65
7, 65280, Note_on_c, 2, 60, 65
7, 65424, Note_off_c, 2, 60, 64
7, 65424, Note_off_c, 2, 56, 64
7, 65424, Note_off_c, 2, 65, 64
7, 65424, Note_off_c, 2, 63, 64
7, 65520, Note_on_c, 2, 63, 75
7, 65520, Note_on_c, 2, 65, 75
7, 65520, Note_on_c, 2, 56, 75
7, 65520, Note_on_c, 2, 60, 75
7, 65736, Note_off_c, 2, 60, 64
7, 65736, Note_off_c, 2, 56, 64
7, 65736, Note_off_c, 2, 65, 64
7, 65736, Note_off_c, 2, 63, 64
7, 65880, Note_on_c, 2, 63, 65
7, 65880, Note_on_c, 2, 65, 65
7, 65880, Note_on_c, 2, 56, 65
7, 65880, Note_on_c, 2, 60, 65
7, 66024, Note_off_c, 2, 60, 64
7, 66024, Note_off_c, 2, 56, 64
7, 66024, Note_off_c, 2, 65, 64
7, 66024, Note_off_c, 2, 63, 64
7, 66120, Note_on_c, 2, 68, 75
7, 66120, Note_on_c, 2, 60, 75
7, 66120, Note_on_c, 2, 63, 75
7, 66120, Note_on_c, 2, 65, 75
7, 66240, Note_off_c, 2, 65, 64
7, 66240, Note_off_c, 2, 63, 64
7, 66240, Note_off_c, 2, 60, 64
7, 66240, Note_off_c, 2, 68, 64
7, 66240, Note_on_c, 2, 63, 75
7, 66240, Note_on_c, 2, 65, 75
7, 66240, Note_on_c, 2, 56, 75
7, 66240, Note_on_c, 2, 72, 75
7, 66408, Note_off_c, 2, 72, 64
7, 66408, Note_off_c, 2, 56, 64
7, 66408, Note_off_c, 2, 65, 64
7, 66408, Note_off_c, 2, 63, 64
7, 66600, Note_on_c, 2, 63, 65
7, 66600, Note_on_c, 2, 65, 65
7, 66600, Note_on_c, 2, 56, 65
7, 66600, Note_on_c, 2, 72, 65
7, 66720, Note_off_c, 2, 72, 64
7, 66720, Note_off_c, 2, 56, 64
7, 66720, Note_off_c, 2, 65, 64
7, 66720, Note_off_c, 2, 63, 64
7, 66720, Note_on_c, 2, 62, 65
7, 66720, Note_on_c, 2, 64, 65
7, 66720, Note_on_c, 2, 55, 65
7, 66720, Note_on_c, 2, 71, 65
7, 66816, Note_off_c, 2, 71, 64
7, 66816, Note_off_c, 2, 55, 64
7, 66816, Note_off_c, 2, 64, 64
7, 66816, Note_off_c, 2, 62, 64
7, 66960, Note_on_c, 2, 55, 75
7, 66960, Note_on_c, 2, 69, 75
7, 66960, Note_on_c, 2, 61, 75
7, 66960, Note_on_c, 2, 64, 75
7, 67104, Note_off_c, 2, 64, 64
7, 67104, Note_off_c, 2, 61, 64
7, 67104, Note_off_c, 2, 69, 64
7, 67104, Note_off_c, 2, 55, 64
7, 67200, Note_on_c, 2, 70, 70
7, 67200, Note_on_c, 2, 54, 70
7, 67200, Note_on_c, 2, 65, 70
7, 67200, Note_on_c, 2, 61, 70
7, 67200, Note_on_c, 2, 51, 80
7, 67314, Note_off_c, 2, 51, 64
7, 67320, Note_on_c, 2, 51, 80
7, 67550, Note_off_c, 2, 51, 64
7, 67560, Note_on_c, 2, 51, 80
7, 67790, Note_off_c, 2, 51, 64
7, 67800, Note_on_c, 2, 51, 80
7, 68030, Note_off_c, 2, 51, 64
7, 68040, Note_on_c, 2, 51, 80
7, 68160, Note_off_c, 2, 51, 64
7, 68160, Note_off_c, 2, 61, 64
7, 68160, Note_off_c, 2, 65, 64
7, 68160, Note_off_c, 2, 54, 64
7, 68160, Note_off_c, 2, 70, 64
7, 68160, Note_on_c, 2, 63, 70
7, 68160, Note_on_c, 2, 60, 70
7, 68160, Note_on_c, 2, 58, 70
7, 68160, Note_on_c, 2, 54, 70
7, 68160, Note_on_c, 2, 44, 80
7, 68274, Note_off_c, 2, 44, 64
7, 68280, Note_on_c, 2, 44, 80
7, 68510, Note_off_c, 2, 44, 64
7, 68520, Note_on_c, 2, 44, 80
7, 68750, Note_off_c, 2, 44, 64
7, 68760, Note_on_c, 2, 44, 80
7, 68990, Note_off_c, 2, 44, 64
7, 69000, Note_on_c, 2, 44, 80
7, 69120, Note_off_c, 2, 44, 64
7, 69120, Note_off_c, 2, 54, 64
7, 69120, Note_off_c, 2, 58, 64
7, 69120, Note_off_c, 2, 60, 64
7, 69120, Note_off_c, 2, 63, 64
7, 69120, Note_on_c, 2, 68, 70
7, 69120, Note_on_c, 2, 53, 70
7, 69120, Note_on_c, 2, 63, 70
7, 69120, Note_on_c, 2, 60, 70
7, 69120, Note_on_c, 2, 49, 80
7, 69234, Note_off_c, 2, 49, 64
7, 69240, Note_on_c, 2, 49, 80
7, 69470, Note_off_c, 2, 49, 64
7, 69480, Note_on_c, 2, 49, 80
7, 69710, Note_off_c, 2, 49, 64
7, 69720, Note_on_c, 2, 49, 80
7, 69950, Note_off_c, 2, 49, 64
7, 69960, Note_on_c, 2, 49, 80
7, 70080, Note_off_c, 2, 49, 64
7, 70080, Note_off_c, 2, 60, 64
7, 70080, Note_off_c, 2, 63, 64
7, 70080, Note_off_c, 2, 53, 64
7, 70080, Note_off_c, 2, 68, 64
7, 70080, Note_on_c, 2, 65, 70
7, 70080, Note_on_c, 2, 62, 70
7, 70080, Note_on_c, 2, 58, 70
7, 70080, Note_on_c, 2, 56, 70
7, 70080, Note_on_c, 2, 46, 80
7, 70194, Note_off_c, 2, 46, 64
7, 70200, Note_on_c, 2, 46, 80
7, 70430, Note_off_c, 2, 46, 64
7, 70440, Note_on_c, 2, 46, 80
7, 70670, Note_off_c, 2, 46, 64
7, 70680, Note_on_c, 2, 46, 80
7, 70910, Note_off_c, 2, 46, 64
7, 70920, Note_on_c, 2, 46, 80
7, 71040, Note_off_c, 2, 46, 64
7, 71040, Note_off_c, 2, 56, 64
7, 71040, Note_off_c, 2, 58, 64
7, 71040, Note_off_c, 2, 62, 64
7, 71040, Note_off_c, 2, 65, 64
7, 71040, Note_on_c, 2, 70, 70
7, 71040, Note_on_c, 2, 54, 70
7, 71040, Note_on_c, 2, 63, 70
7, 71040, Note_on_c, 2, 61, 70
7, 71040, Note_on_c, 2, 51, 80
7, 71154, Note_off_c, 2, 51, 64
7, 71160, Note_on_c, 2, 51, 80
7, 71390, Note_off_c, 2, 51, 64
7, 71400, Note_on_c, 2, 51, 80
7, 71630, Note_off_c, 2, 51, 64
7, 71640, Note_on_c, 2, 51, 80
7, 71870, Note_off_c, 2, 51, 64
7, 71880, Note_on_c, 2, 51, 80
7, 72000, Note_off_c, 2, 51, 64
7, 72000, Note_off_c, 2, 61, 64
7, 72000, Note_off_c, 2, 63, 64
7, 72000, Note_off_c, 2, 54, 64
7, 72000, Note_off_c, 2, 70, 64
7, 72000, Note_on_c, 2, 63, 70
7, 72000, Note_on_c, 2, 60, 70
7, 72000, Note_on_c, 2, 70, 70
7, 72000, Note_on_c, 2, 54, 70
7, 72000, Note_on_c, 2, 44, 80
7, 72114, Note_off_c, 2, 44, 64
7, 72120, Note_on_c, 2, 44, 80
7, 72350, Note_off_c, 2, 44, 64
7, 72360, Note_on_c, 2, 44, 80
7, 72590, Note_off_c, 2, 44, 64
7, 72600, Note_on_c, 2, 44, 80
7, 72830, Note_off_c, 2, 44, 64
7, 72840, Note_on_c, 2, 44, 80
7, 72960, Note_off_c, 2, 44, 64
7, 72960, Note_off_c, 2, 54, 64
7, 72960, Note_off_c, 2, 70, 64
7, 72960, Note_off_c, 2, 60, 64
7, 72960, Note_off_c, 2, 63, 64
7, 72960, Note_on_c, 2, 68, 70
7, 72960, Note_on_c, 2, 53, 70
7, 72960, Note_on_c, 2, 63, 70
7, 72960, Note_on_c, 2, 60, 70
7, 72960, Note_on_c, 2, 49, 80
7, 73074, Note_off_c, 2, 49, 64
7, 73080, Note_on_c, 2, 49, 80
7, 73310, Note_off_c, 2, 49, 64
7, 73320, Note_on_c, 2, 49, 80
7, 73550, Note_off_c, 2, 49, 64
7, 73560, Note_on_c, 2, 49, 80
7, 73790, Note_off_c, 2, 49, 64
7, 73800, Note_on_c, 2, 49, 80
7, 74030, Note_off_c, 2, 49, 64
7, 74040, Note_on_c, 2, 49, 80
7, 74270, Note_off_c, 2, 49, 64
7, 74280, Note_on_c, 2, 49, 80
7, 74510, Note_off_c, 2, 49, 64
7, 74520, Note_on_c, 2, 49, 80
7, 74750, Note_off_c, 2, 49, 64
7, 74760, Note_on_c, 2, 49, 80
7, 74874, Note_off_c, 2, 49, 64
7, 74880, Note_off_c, 2, 60, 64
7, 74880, Note_off_c, 2, 63, 64
7, 74880, Note_off_c, 2, 53, 64
7, 74880, Note_off_c, 2, 68, 64
7, 74880, Note_on_c, 2, 69, 70
7, 74880, Note_on_c, 2, 53, 70
7, 74880, Note_on_c, 2, 64, 70
7, 74880, Note_on_c, 2, 60, 70
7, 74880, Note_on_c, 2, 50, 80
7, 74994, Note_off_c, 2, 50, 64
7, 75000, Note_on_c, 2, 50, 80
7, 75230, Note_off_c, 2, 50, 64
7, 75240, Note_on_c, 2, 50, 80
7, 75470, Note_off_c, 2, 50, 64
7, 75480, Note_on_c, 2, 50, 80
7, 75710, Note_off_c, 2, 50, 64
7, 75720, Note_on_c, 2, 50, 80
7, 75840, Note_off_c, 2, 50, 64
7, 75840, Note_off_c, 2, 60, 64
7, 75840, Note_off_c, 2, 64, 64
7, 75840, Note_off_c, 2, 53, 64
7, 75840, Note_off_c, 2, 69, 64
7, 75840, Note_on_c, 2, 63, 70
7, 75840, Note_on_c, 2, 59, 70
7, 75840, Note_on_c, 2, 67, 70
7, 75840, Note_on_c, 2, 53, 70
7, 75840, Note_on_c, 2, 43, 80
7, 75954, Note_off_c, 2, 43, 64
7, 75960, Note_on_c, 2, 43, 80
7, 76190, Note_off_c, 2, 43, 64
7, 76200, Note_on_c, 2, 43, 80
7, 76430, Note_off_c, 2, 43, 64
7, 76440, Note_on_c, 2, 43, 80
7, 76670, Note_off_c, 2, 43, 64
7, 76680, Note_on_c, 2, 43, 80
7, 76800, Note_off_c, 2, 43, 64
7, 76800, Note_off_c, 2, 53, 64
7, 76800, Note_off_c, 2, 67, 64
7, 76800, Note_off_c, 2, 59, 64
7, 76800, Note_off_c, 2, 63, 64
7, 76800, Note_on_c, 2, 67, 70
7, 76800, Note_on_c, 2, 52, 70
7, 76800, Note_on_c, 2, 62, 70
7, 76800, Note_on_c, 2, 59, 70
7, 76800, Note_on_c, 2, 48, 80
7, 76914, Note_off_c, 2, 48, 64
7, 76920, Note_on_c, 2, 48, 80
7, 77150, Note_off_c, 2, 48, 64
7, 77160, Note_on_c, 2, 48, 80
7, 77390, Note_off_c, 2, 48, 64
7, 77400, Note_on_c, 2, 48, 80
7, 77630, Note_off_c, 2, 48, 64
7, 77640, Note_on_c, 2, 48, 80
7, 77870, Note_off_c, 2, 48, 64
7, 77880, Note_on_c, 2, 48, 80
7, 78110, Note_off_c, 2, 48, 64
7, 78120, Note_on_c, 2, 48, 80
7, 78350, Note_off_c, 2, 48, 64
7, 78360, Note_on_c, 2, 48, 80
7, 78590, Note_off_c, 2, 48, 64
7, 78600, Note_on_c, 2, 48, 80
7, 78714, Note_off_c, 2, 48, 64
7, 78720, Note_off_c, 2, 59, 64
7, 78720, Note_off_c, 2, 62, 64
7, 78720, Note_off_c, 2, 52, 64
7, 78720, Note_off_c, 2, 67, 64
7, 78720, Note_on_c, 2, 70, 70
7, 78720, Note_on_c, 2, 55, 70
7, 78720, Note_on_c, 2, 65, 70
7, 78720, Note_on_c, 2, 62, 70
7, 78720, Note_on_c, 2, 46, 80
7, 78834, Note_off_c, 2, 46, 64
7, 78840, Note_on_c, 2, 46, 80
7, 79070, Note_off_c, 2, 46, 64
7, 79080, Note_on_c, 2, 46, 80
7, 79310, Note_off_c, 2, 46, 64
7, 79320, Note_on_c, 2, 46, 80
7, 79550, Note_off_c, 2, 46, 64
7, 79560, Note_on_c, 2, 46, 80
7, 79680, Note_off_c, 2, 46, 64
7, 79680, Note_off_c, 2, 62, 64
7, 79680, Note_off_c, 2, 65, 64
7, 79680, Note_off_c, 2, 55, 64
7, 79680, Note_off_c, 2, 70, 64
7, 79680, Note_on_c, 2, 62, 70
7, 79680, Note_on_c, 2, 59, 70
7, 79680, Note_on_c, 2, 67, 70
7, 79680, Note_on_c, 2, 53, 70
7, 79680, Note_on_c, 2, 35, 80
7, 79794, Note_off_c, 2, 35, 64
7, 79800, Note_on_c, 2, 35, 80
7, 80030, Note_off_c, 2, 35, 64
7, 80040, Note_on_c, 2, 35, 80
7, 80270, Note_off_c, 2, 35, 64
7, 80280, Note_on_c, 2, 35, 80
7, 80510, Note_off_c, 2, 35, 64
7, 80520, Note_on_c, 2, 35, 80
7, 80640, Note_off_c, 2, 35, 64
7, 80640, Note_off_c, 2, 53, 64
7, 80640, Note_off_c, 2, 67, 64
7, 80640, Note_off_c, 2, 59, 64
7, 80640, Note_off_c, 2, 62, 64
7, 80640, Note_on_c, 2, 62, 70
7, 80640, Note_on_c, 2, 58, 70
7, 80640, Note_on_c, 2, 67, 70
7, 80640, Note_on_c, 2, 53, 70
7, 80640, Note_on_c, 2, 36, 80
7, 80754, Note_off_c, 2, 36, 64
7, 80760, Note_on_c, 2, 36, 80
7, 80990, Note_off_c, 2, 36, 64
7, 81000, Note_on_c, 2, 36, 80
7, 81230, Note_off_c, 2, 36, 64
7, 81240, Note_on_c, 2, 36, 80
7, 81470, Note_off_c, 2, 36, 64
7, 81480, Note_on_c, 2, 36, 80
7, 81600, Note_off_c, 2, 36, 64
7, 81600, Note_off_c, 2, 53, 64
7, 81600, Note_off_c, 2, 67, 64
7, 81600, Note_off_c, 2, 58, 64
7, 81600, Note_off_c, 2, 62, 64
7, 81600, Note_on_c, 2, 56, 70
7, 81600, Note_on_c, 2, 52, 70
7, 81600, Note_on_c, 2, 60, 70
7, 81600, Note_on_c, 2, 58, 70
7, 81600, Note_on_c, 2, 48, 80
7, 81714, Note_off_c, 2, 48, 64
7, 81720, Note_on_c, 2, 48, 80
7, 81950, Note_off_c, 2, 48, 64
7, 81960, Note_on_c, 2, 48, 80
7, 82190, Note_off_c, 2, 48, 64
7, 82200, Note_on_c, 2, 48, 80
7, 82430, Note_off_c, 2, 48, 64
7, 82440, Note_on_c, 2, 48, 80
7, 82560, Note_off_c, 2, 48, 64
7, 82560, Note_off_c, 2, 58, 64
7, 82560, Note_off_c, 2, 60, 64
7, 82560, Note_off_c, 2, 52, 64
7, 82560, Note_off_c, 2, 56, 64
7, 82560, Note_on_c, 2, 65, 65
7, 82560, Note_on_c, 2, 63, 65
7, 82560, Note_on_c, 2, 60, 65
7, 82560, Note_on_c, 2, 68, 65
7, 82680, Note_on_c, 2, 41, 90
7, 82704, Note_off_c, 2, 68, 64
7, 82704, Note_off_c, 2, 60, 64
7, 82704, Note_off_c, 2, 63, 64
7, 82704, Note_off_c, 2, 65, 64
7, 82800, Note_on_c, 2, 65, 75
7, 82800, Note_on_c, 2, 63, 75
7, 82800, Note_on_c, 2, 60, 75
7, 82800, Note_on_c, 2, 68, 75
7, 82824, Note_off_c, 2, 41, 64
7, 83016, Note_off_c, 2, 68, 64
7, 83016, Note_off_c, 2, 60, 64
7, 83016, Note_off_c, 2, 63, 64
7, 83016, Note_off_c, 2, 65, 64
7, 83160, Note_on_c, 2, 65, 65
7, 83160, Note_on_c, 2, 63, 65
7, 83160, Note_on_c, 2, 60, 65
7, 83160, Note_on_c, 2, 68, 65
7, 83304, Note_off_c, 2, 68, 64
7, 83304, Note_off_c, 2, 60, 64
7, 83304, Note_off_c, 2, 63, 64
7, 83304, Note_off_c, 2, 65, 64
7, 83400, Note_on_c, 2, 60, 75
7, 83400, Note_on_c, 2, 56, 75
7, 83400, Note_on_c, 2, 65, 75
7, 83400, Note_on_c, 2, 51, 75
7, 83520, Note_off_c, 2, 51, 64
7, 83520, Note_off_c, 2, 65, 64
7, 83520, Note_off_c, 2, 56, 64
7, 83520, Note_off_c, 2, 60, 64
7, 83520, Note_on_c, 2, 41, 70
7, 83520, Note_on_c, 2, 65, 75
7, 83520, Note_on_c, 2, 64, 75
7, 83520, Note_on_c, 2, 60, 75
7, 83520, Note_on_c, 2, 68, 75
7, 83630, Note_off_c, 2, 41, 64
7, 83640, Note_on_c, 2, 52, 70
7, 83688, Note_off_c, 2, 68, 64
7, 83688, Note_off_c, 2, 60, 64
7, 83688, Note_off_c, 2, 64, 64
7, 83688, Note_off_c, 2, 65, 64
7, 83870, Note_off_c, 2, 52, 64
7, 83880, Note_on_c, 2, 53, 70
7, 83880, Note_on_c, 2, 65, 65
7, 83880, Note_on_c, 2, 64, 65
7, 83880, Note_on_c, 2, 60, 65
7, 83880, Note_on_c, 2, 68, 65
7, 84096, Note_off_c, 2, 68, 64
7, 84096, Note_off_c, 2, 60, 64
7, 84096, Note_off_c, 2, 64, 64
7, 84096, Note_off_c, 2, 65, 64
7, 84110, Note_off_c, 2, 53, 64
7, 84120, Note_on_c, 2, 56, 70
7, 84240, Note_on_c, 2, 65, 75
7, 84240, Note_on_c, 2, 64, 75
7, 84240, Note_on_c, 2, 60, 75
7, 84240, Note_on_c, 2, 68, 75
7, 84350, Note_off_c, 2, 56, 64
7, 84384, Note_off_c, 2, 68, 64
7, 84384, Note_off_c, 2, 60, 64
7, 84384, Note_off_c, 2, 64, 64
7, 84384, Note_off_c, 2, 65, 64
7, 84480, Note_on_c, 2, 51, 65
7, 84480, Note_on_c, 2, 65, 65
7, 84480, Note_on_c, 2, 56, 65
7, 84480, Note_on_c, 2, 60, 65
7, 84624, Note_off_c, 2, 60, 64
7, 84624, Note_off_c, 2, 56, 64
7, 84624, Note_off_c, 2, 65, 64
7, 84624, Note_off_c, 2, 51, 64
7, 84720, Note_on_c, 2, 51, 75
7, 84720, Note_on_c, 2, 65, 75
7, 84720, Note_on_c, 2, 56, 75
7, 84720, Note_on_c, 2, 60, 75
7, 84936, Note_off_c, 2, 60, 64
7, 84936, Note_off_c, 2, 56, 64
7, 84936, Note_off_c, 2, 65, 64
7, 84936, Note_off_c, 2, 51, 64
7, 85080, Note_on_c, 2, 51, 65
7, 85080, Note_on_c, 2, 65, 65
7, 85080, Note_on_c, 2, 56, 65
7, 85080, Note_on_c, 2, 60, 65
7, 85224, Note_off_c, 2, 60, 64
7, 85224, Note_off_c, 2, 56, 64
7, 85224, Note_off_c, 2, 65, 64
7, 85224, Note_off_c, 2, 51, 64
7, 85320, Note_on_c, 2, 68, 75
7, 85320, Note_on_c, 2, 60, 75
7, 85320, Note_on_c, 2, 63, 75
7, 85320, Note_on_c, 2, 65, 75
7, 85440, Note_off_c, 2, 65, 64
7, 85440, Note_off_c, 2, 63, 64
7, 85440, Note_off_c, 2, 60, 64
7, 85440, Note_off_c, 2, 68, 64
7, 85440, Note_on_c, 2, 68, 75
7, 85440, Note_on_c, 2, 65, 75
7, 85440, Note_on_c, 2, 62, 75
7, 85440, Note_on_c, 2, 72, 75
7, 85608, Note_off_c, 2, 72, 64
7, 85608, Note_off_c, 2, 62, 64
7, 85608, Note_off_c, 2, 65, 64
7, 85608, Note_off_c, 2, 68, 64
7, 85800, Note_on_c, 2, 68, 65
7, 85800, Note_on_c, 2, 65, 65
7, 85800, Note_on_c, 2, 62, 65
7, 85800, Note_on_c, 2, 72, 65
7, 86016, Note_off_c, 2, 72, 64
7, 86016, Note_off_c, 2, 62, 64
7, 86016, Note_off_c, 2, 65, 64
7, 86016, Note_off_c, 2, 68, 64
7, 86160, Note_on_c, 2, 68, 75
7, 86160, Note_on_c, 2, 65, 75
7, 86160, Note_on_c, 2, 62, 75
7, 86160, Note_on_c, 2, 72, 75
7, 86304, Note_off_c, 2, 72, 64
7, 86304, Note_off_c, 2, 62, 64
7, 86304, Note_off_c, 2, 65, 64
7, 86304, Note_off_c, 2, 68, 64
7, 86400, Note_on_c, 2, 63, 65
7, 86400, Note_on_c, 2, 65, 65
7, 86400, Note_on_c, 2, 56, 65
7, 86400, Note_on_c, 2, 72, 65
7, 86520, Note_on_c, 2, 41, 70
7, 86544, Note_off_c, 2, 72, 64
7, 86544, Note_off_c, 2, 56, 64
7, 86544, Note_off_c, 2, 65, 64
7, 86544, Note_off_c, 2, 63, 64
7, 86640, Note_on_c, 2, 63, 75
7, 86640, Note_on_c, 2, 65, 75
7, 86640, Note_on_c, 2, 56, 75
7, 86640, Note_on_c, 2, 72, 75
7, 86750, Note_off_c, 2, 41, 64
7, 86760, Note_on_c, 2, 41, 70
7, 86856, Note_off_c, 2, 72, 64
7, 86856, Note_off_c, 2, 56, 64
7, 86856, Note_off_c, 2, 65, 64
7, 86856, Note_off_c, 2, 63, 64
7, 86990, Note_off_c, 2, 41, 64
7, 87000, Note_on_c, 2, 41, 70
7, 87000, Note_on_c, 2, 63, 65
7, 87000, Note_on_c, 2, 65, 65
7, 87000, Note_on_c, 2, 56, 65
7, 87000, Note_on_c, 2, 72, 65
7, 87144, Note_off_c, 2, 72, 64
7, 87144, Note_off_c, 2, 56, 64
7, 87144, Note_off_c, 2, 65, 64
7, 87144, Note_off_c, 2, 63, 64
7, 87230, Note_off_c, 2, 41, 64
7, 87240, Note_on_c, 2, 68, 75
7, 87240, Note_on_c, 2, 60, 75
7, 87240, Note_on_c, 2, 63, 75
7, 87240, Note_on_c, 2, 65, 75
7, 87240, Note_on_c, 2, 41, 70
7, 87360, Note_off_c, 2, 41, 64
7, 87360, Note_off_c, 2, 65, 64
7, 87360, Note_off_c, 2, 63, 64
7, 87360, Note_off_c, 2, 60, 64
7, 87360, Note_off_c, 2, 68, 64
7, 87360, Note_on_c, 2, 65, 65
7, 87360, Note_on_c, 2, 63, 65
7, 87360, Note_on_c, 2, 59, 65
7, 87360, Note_on_c, 2, 68, 65
7, 87528, Note_off_c, 2, 68, 64
7, 87528, Note_off_c, 2, 59, 64
7, 87528, Note_off_c, 2, 63, 64
7, 87528, Note_off_c, 2, 65, 64
7, 87720, Note_on_c, 2, 65, 55
7, 87720, Note_on_c, 2, 63, 55
7, 87720, Note_on_c, 2, 59, 55
7, 87720, Note_on_c, 2, 68, 55
7, 87936, Note_off_c, 2, 68, 64
7, 87936, Note_off_c, 2, 59, 64
7, 87936, Note_off_c, 2, 63, 64
7, 87936, Note_off_c, 2, 65, 64
7, 87960, Note_on_c, 2, 53, 80
7, 87996, Note_off_c, 2, 53, 64
7, 88020, Note_on_c, 2, 56, 80
7, 88056, Note_off_c, 2, 56, 64
7, 88080, Note_on_c, 2, 65, 65
7, 88080, Note_on_c, 2, 63, 65
7, 88080, Note_on_c, 2, 59, 65
7, 88080, Note_on_c, 2, 68, 65
7, 88200, Note_on_c, 2, 49, 80
7, 88224, Note_off_c, 2, 68, 64
7, 88224, Note_off_c, 2, 59, 64
7, 88224, Note_off_c, 2, 63, 64
7, 88224, Note_off_c, 2, 65, 64
7, 88272, Note_off_c, 2, 49, 64
7, 88320, Note_on_c, 2, 70, 65
7, 88320, Note_on_c, 2, 67, 65
7, 88320, Note_on_c, 2, 65, 65
7, 88320, Note_on_c, 2, 74, 65
7, 88464, Note_off_c, 2, 74, 64
7, 88464, Note_off_c, 2, 65, 64
7, 88464, Note_off_c, 2, 67, 64
7, 88464, Note_off_c, 2, 70, 64
7, 88560, Note_on_c, 2, 70, 75
7, 88560, Note_on_c, 2, 67, 75
7, 88560, Note_on_c, 2, 65, 75
7, 88560, Note_on_c, 2, 74, 75
7, 88776, Note_off_c, 2, 74, 64
7, 88776, Note_off_c, 2, 65, 64
7, 88776, Note_off_c, 2, 67, 64
7, 88776, Note_off_c, 2, 70, 64
7, 88920, Note_on_c, 2, 70, 65
7, 88920, Note_on_c, 2, 67, 65
7, 88920, Note_on_c, 2, 65, 65
7, 88920, Note_on_c, 2, 74, 65
7, 89064, Note_off_c, 2, 74, 64
7, 89064, Note_off_c, 2, 65, 64
7, 89064, Note_off_c, 2, 67, 64
7, 89064, Note_off_c, 2, 70, 64
7, 89160, Note_on_c, 2, 62, 75
7, 89160, Note_on_c, 2, 58, 75
7, 89160, Note_on_c, 2, 67, 75
7, 89160, Note_on_c, 2, 65, 75
7, 89280, Note_off_c, 2, 65, 64
7, 89280, Note_off_c, 2, 67, 64
7, 89280, Note_off_c, 2, 58, 64
7, 89280, Note_off_c, 2, 62, 64
7, 89280, Note_on_c, 2, 64, 75
7, 89280, Note_on_c, 2, 60, 75
7, 89280, Note_on_c, 2, 58, 75
7, 89280, Note_on_c, 2, 68, 75
7, 89448, Note_off_c, 2, 68, 64
7, 89448, Note_off_c, 2, 58, 64
7, 89448, Note_off_c, 2, 60, 64
7, 89448, Note_off_c, 2, 64, 64
7, 89640, Note_on_c, 2, 64, 65
7, 89640, Note_on_c, 2, 60, 65
7, 89640, Note_on_c, 2, 58, 65
7, 89640, Note_on_c, 2, 68, 65
7, 89856, Note_off_c, 2, 68, 64
7, 89856, Note_off_c, 2, 58, 64
7, 89856, Note_off_c, 2, 60, 64
7, 89856, Note_off_c, 2, 64, 64
7, 90000, Note_on_c, 2, 64, 75
7, 90000, Note_on_c, 2, 60, 75
7, 90000, Note_on_c, 2, 58, 75
7, 90000, Note_on_c, 2, 68, 75
7, 90144, Note_off_c, 2, 68, 64
7, 90144, Note_off_c, 2, 58, 64
7, 90144, Note_off_c, 2, 60, 64
7, 90144, Note_off_c, 2, 64, 64
7, 90240, Note_on_c, 2, 63, 65
7, 90240, Note_on_c, 2, 65, 65
7, 90240, Note_on_c, 2, 56, 65
7, 90240, Note_on_c, 2, 72, 65
7, 90360, Note_on_c, 2, 41, 70
7, 90384, Note_off_c, 2, 72, 64
7, 90384, Note_off_c, 2, 56, 64
7, 90384, Note_off_c, 2, 65, 64
7, 90384, Note_off_c, 2, 63, 64
7, 90480, Note_on_c, 2, 63, 75
7, 90480, Note_on_c, 2, 65, 75
7, 90480, Note_on_c, 2, 56, 75
7, 90480, Note_on_c, 2, 72, 75
7, 90590, Note_off_c, 2, 41, 64
7, 90600, Note_on_c, 2, 41, 70
7, 90696, Note_off_c, 2, 72, 64
7, 90696, Note_off_c, 2, 56, 64
7, 90696, Note_off_c, 2, 65, 64
7, 90696, Note_off_c, 2, 63, 64
7, 90830, Note_off_c, 2, 41, 64
7, 90840, Note_on_c, 2, 41, 70
7, 90840, Note_on_c, 2, 63, 65
7, 90840, Note_on_c, 2, 65, 65
7, 90840, Note_on_c, 2, 56, 65
7, 90840, Note_on_c, 2, 72, 65
7, 90984, Note_off_c, 2, 72, 64
7, 90984, Note_off_c, 2, 56, 64
7, 90984, Note_off_c, 2, 65, 64
7, 90984, Note_off_c, 2, 63, 64
7, 91070, Note_off_c, 2, 41, 64
7, 91080, Note_on_c, 2, 68, 75
7, 91080, Note_on_c, 2, 60, 75
7, 91080, Note_on_c, 2, 63, 75
7, 91080, Note_on_c, 2, 65, 75
7, 91080, Note_on_c, 2, 41, 70
7, 91200, Note_off_c, 2, 41, 64
7, 91200, Note_off_c, 2, 65, 64
7, 91200, Note_off_c, 2, 63, 64
7, 91200, Note_off_c, 2, 60, 64
7, 91200, Note_off_c, 2, 68, 64
7, 91200, Note_on_c, 2, 41, 70
7, 91200, Note_on_c, 2, 65, 75
7, 91200, Note_on_c, 2, 64, 75
7, 91200, Note_on_c, 2, 60, 75
7, 91200, Note_on_c, 2, 68, 75
7, 91310, Note_off_c, 2, 41, 64
7, 91320, Note_on_c, 2, 52, 70
7, 91368, Note_off_c, 2, 68, 64
7, 91368, Note_off_c, 2, 60, 64
7, 91368, Note_off_c, 2, 64, 64
7, 91368, Note_off_c, 2, 65, 64
7, 91550, Note_off_c, 2, 52, 64
7, 91560, Note_on_c, 2, 53, 70
7, 91560, Note_on_c, 2, 65, 65
7, 91560, Note_on_c, 2, 64, 65
7, 91560, Note_on_c, 2, 60, 65
7, 91560, Note_on_c, 2, 68, 65
7, 91776, Note_off_c, 2, 68, 64
7, 91776, Note_off_c, 2, 60, 64
7, 91776, Note_off_c, 2, 64, 64
7, 91776, Note_off_c, 2, 65, 64
7, 91790, Note_off_c, 2, 53, 64
7, 91800, Note_on_c, 2, 56, 70
7, 91920, Note_on_c, 2, 65, 75
7, 91920, Note_on_c, 2, 64, 75
7, 91920, Note_on_c, 2, 60, 75
7, 91920, Note_on_c, 2, 68, 75
7, 92030, Note_off_c, 2, 56, 64
7, 92064, Note_off_c, 2, 68, 64
7, 92064, Note_off_c, 2, 60, 64
7, 92064, Note_off_c, 2, 64, 64
7, 92064, Note_off_c, 2, 65, 64
7, 92160, Note_on_c, 2, 63, 65
7, 92160, Note_on_c, 2, 65, 65
7, 92160, Note_on_c, 2, 56, 65
7, 92160, Note_on_c, 2, 72, 65
7, 92280, Note_on_c, 2, 41, 70
7, 92304, Note_off_c, 2, 72, 64
7, 92304, Note_off_c, 2, 56, 64
7, 92304, Note_off_c, 2, 65, 64
7, 92304, Note_off_c, 2, 63, 64
7, 92400, Note_on_c, 2, 63, 75
7, 92400, Note_on_c, 2, 65, 75
7, 92400, Note_on_c, 2, 56, 75
7, 92400, Note_on_c, 2, 72, 75
7, 92510, Note_off_c, 2, 41, 64
7, 92520, Note_on_c, 2, 41, 70
7, 92616, Note_off_c, 2, 72, 64
7, 92616, Note_off_c, 2, 56, 64
7, 92616, Note_off_c, 2, 65, 64
7, 92616, Note_off_c, 2, 63, 64
7, 92750, Note_off_c, 2, 41, 64
7, 92760, Note_on_c, 2, 41, 70
7, 92760, Note_on_c, 2, 63, 65
7, 92760, Note_on_c, 2, 65, 65
7, 92760, Note_on_c, 2, 56, 65
7, 92760, Note_on_c, 2, 72, 65
7, 92904, Note_off_c, 2, 72, 64
7, 92904, Note_off_c, 2, 56, 64
7, 92904, Note_off_c, 2, 65, 64
7, 92904, Note_off_c, 2, 63, 64
7, 92990, Note_off_c, 2, 41, 64
7, 93000, Note_on_c, 2, 68, 75
7, 93000, Note_on_c, 2, 60, 75
7, 93000, Note_on_c, 2, 63, 75
7, 93000, Note_on_c, 2, 65, 75
7, 93000, Note_on_c, 2, 41, 70
7, 93120, Note_off_c, 2, 41, 64
7, 93120, Note_off_c, 2, 65, 64
7, 93120, Note_off_c, 2, 63, 64
7, 93120, Note_off_c, 2, 60, 64
7, 93120, Note_off_c, 2, 68, 64
7, 93120, Note_on_c, 2, 68, 75
7, 93120, Note_on_c, 2, 65, 75
7, 93120, Note_on_c, 2, 62, 75
7, 93120, Note_on_c, 2, 72, 75
7, 93288, Note_off_c, 2, 72, 64
7, 93288, Note_off_c, 2, 62, 64
7, 93288, Note_off_c, 2, 65, 64
7, 93288, Note_off_c, 2, 68, 64
7, 93480, Note_on_c, 2, 68, 65
7, 93480, Note_on_c, 2, 65, 65
7, 93480, Note_on_c, 2, 62, 65
7, 93480, Note_on_c, 2, 72, 65
7, 93696, Note_off_c, 2, 72, 64
7, 93696, Note_off_c, 2, 62, 64
7, 93696, Note_off_c, 2, 65, 64
7, 93696, Note_off_c, 2, 68, 64
7, 93840, Note_on_c, 2, 68, 75
7, 93840, Note_on_c, 2, 65, 75
7, 93840, Note_on_c, 2, 62, 75
7, 93840, Note_on_c, 2, 72, 75
7, 93984, Note_off_c, 2, 72, 64
7, 93984, Note_off_c, 2, 62, 64
7, 93984, Note_off_c, 2, 65, 64
7, 93984, Note_off_c, 2, 68, 64
7, 94080, Note_on_c, 2, 59, 65
7, 94080, Note_on_c, 2, 63, 65
7, 94080, Note_on_c, 2, 53, 65
7, 94080, Note_on_c, 2, 68, 65
7, 94224, Note_off_c, 2, 68, 64
7, 94224, Note_off_c, 2, 53, 64
7, 94224, Note_off_c, 2, 63, 64
7, 94224, Note_off_c, 2, 59, 64
7, 94320, Note_on_c, 2, 59, 75
7, 94320, Note_on_c, 2, 63, 75
7, 94320, Note_on_c, 2, 53, 75
7, 94320, Note_on_c, 2, 68, 75
7, 94536, Note_off_c, 2, 68, 64
7, 94536, Note_off_c, 2, 53, 64
7, 94536, Note_off_c, 2, 63, 64
7, 94536, Note_off_c, 2, 59, 64
7, 94680, Note_on_c, 2, 59, 65
7, 94680, Note_on_c, 2, 63, 65
7, 94680, Note_on_c, 2, 53, 65
7, 94680, Note_on_c, 2, 68, 65
7, 94824, Note_off_c, 2, 68, 64
7, 94824, Note_off_c, 2, 53, 64
7, 94824, Note_off_c, 2, 63, 64
7, 94824, Note_off_c, 2, 59, 64
7, 94920, Note_on_c, 2, 68, 75
7, 94920, Note_on_c, 2, 59, 75
7, 94920, Note_on_c, 2, 63, 75
7, 94920, Note_on_c, 2, 65, 75
7, 95040, Note_off_c, 2, 65, 64
7, 95040, Note_off_c, 2, 63, 64
7, 95040, Note_off_c, 2, 59, 64
7, 95040, Note_off_c, 2, 68, 64
7, 95040, Note_on_c, 2, 58, 75
7, 95040, Note_on_c, 2, 60, 75
7, 95040, Note_on_c, 2, 52, 75
7, 95040, Note_on_c, 2, 68, 75
7, 95208, Note_off_c, 2, 68, 64
7, 95208, Note_off_c, 2, 52, 64
7, 95208, Note_off_c, 2, 60, 64
7, 95208, Note_off_c, 2, 58, 64
7, 95400, Note_on_c, 2, 58, 65
7, 95400, Note_on_c, 2, 60, 65
7, 95400, Note_on_c, 2, 52, 65
7, 95400, Note_on_c, 2, 68, 65
7, 95616, Note_off_c, 2, 68, 64
7, 95616, Note_off_c, 2, 52, 64
7, 95616, Note_off_c, 2, 60, 64
7, 95616, Note_off_c, 2, 58, 64
7, 95760, Note_on_c, 2, 58, 75
7, 95760, Note_on_c, 2, 60, 75
7, 95760, Note_on_c, 2, 52, 75
7, 95760, Note_on_c, 2, 68, 75
7, 95904, Note_off_c, 2, 68, 64
7, 95904, Note_off_c, 2, 52, 64
7, 95904, Note_off_c, 2, 60, 64
7, 95904, Note_off_c, 2, 58, 64
7, 96000, Note_on_c, 2, 65, 65
7, 96000, Note_on_c, 2, 63, 65
7, 96000, Note_on_c, 2, 60, 65
7, 96000, Note_on_c, 2, 68, 65
7, 96120, Note_on_c, 2, 41, 90
7, 96144, Note_off_c, 2, 68, 64
7, 96144, Note_off_c, 2, 60, 64
7, 96144, Note_off_c, 2, 63, 64
7, 96144, Note_off_c, 2, 65, 64
7, 96240, Note_on_c, 2, 65, 75
7, 96240, Note_on_c, 2, 63, 75
7, 96240, Note_on_c, 2, 60, 75
7, 96240, Note_on_c, 2, 68, 75
7, 96264, Note_off_c, 2, 41, 64
7, 96456, Note_off_c, 2, 68, 64
7, 96456, Note_off_c, 2, 60, 64
7, 96456, Note_off_c, 2, 63, 64
7, 96456, Note_off_c, 2, 65, 64
7, 96600, Note_on_c, 2, 65, 65
7, 96600, Note_on_c, 2, 63, 65
7, 96600, Note_on_c, 2, 60, 65
7, 96600, Note_on_c, 2, 68, 65
7, 96744, Note_off_c, 2, 68, 64
7, 96744, Note_off_c, 2, 60, 64
7, 96744, Note_off_c, 2, 63, 64
7, 96744, Note_off_c, 2, 65, 64
7, 96840, Note_on_c, 2, 60, 75
7, 96840, Note_on_c, 2, 56, 75
7, 96840, Note_on_c, 2, 65, 75
7, 96840, Note_on_c, 2, 51, 75
7, 96960, Note_off_c, 2, 51, 64
7, 96960, Note_off_c, 2, 65, 64
7, 96960, Note_off_c, 2, 56, 64
7, 96960, Note_off_c, 2, 60, 64
7, 96960, Note_on_c, 2, 51, 75
7, 96960, Note_on_c, 2, 53, 75
7, 96960, Note_on_c, 2, 56, 75
7, 96960, Note_on_c, 2, 60, 75
7, 97060, Note_off_c, 2, 60, 64
7, 97060, Note_off_c, 2, 56, 64
7, 97060, Note_off_c, 2, 53, 64
7, 97060, Note_off_c, 2, 51, 64
7, 97920, Note_on_c, 2, 65, 65
7, 97920, Note_on_c, 2, 63, 65
7, 97920, Note_on_c, 2, 60, 65
7, 97920, Note_on_c, 2, 68, 65
7, 98064, Note_off_c, 2, 68, 64
7, 98064, Note_off_c, 2, 60, 64
7, 98064, Note_off_c, 2, 63, 64
7, 98064, Note_off_c, 2, 65, 64
7, 98160, Note_on_c, 2, 65, 75
7, 98160, Note_on_c, 2, 63, 75
7, 98160, Note_on_c, 2, 60, 75
7, 98160, Note_on_c, 2, 68, 75
7, 98376, Note_off_c, 2, 68, 64
7, 98376, Note_off_c, 2, 60, 64
7, 98376, Note_off_c, 2, 63, 64
7, 98376, Note_off_c, 2, 65, 64
7, 98520, Note_on_c, 2, 65, 65
7, 98520, Note_on_c, 2, 63, 65
7, 98520, Note_on_c, 2, 60, 65
7, 98520, Note_on_c, 2, 68, 65
7, 98664, Note_off_c, 2, 68, 64
7, 98664, Note_off_c, 2, 60, 64
7, 98664, Note_off_c, 2, 63, 64
7, 98664, Note_off_c, 2, 65, 64
7, 98760, Note_on_c, 2, 60, 75
7, 98760, Note_on_c, 2, 56, 75
7, 98760, Note_on_c, 2, 65, 75
7, 98760, Note_on_c, 2, 51, 75
7, 98880, Note_off_c, 2, 51, 64
7, 98880, Note_off_c, 2, 65, 64
7, 98880, Note_off_c, 2, 56, 64
7, 98880, Note_off_c, 2, 60, 64
7, 98880, Note_on_c, 2, 52, 75
7, 98880, Note_on_c, 2, 53, 75
7, 98880, Note_on_c, 2, 56, 75
7, 98880, Note_on_c, 2, 60, 75
7, 99048, Note_off_c, 2, 60, 64
7, 99048, Note_off_c, 2, 56, 64
7, 99048, Note_off_c, 2, 53, 64
7, 99048, Note_off_c, 2, 52, 64
7, 99240, Note_on_c, 2, 52, 65
7, 99240, Note_on_c, 2, 53, 65
7, 99240, Note_on_c, 2, 56, 65
7, 99240, Note_on_c, 2, 60, 65
7, 99456, Note_off_c, 2, 60, 64
7, 99456, Note_off_c, 2, 56, 64
7, 99456, Note_off_c, 2, 53, 64
7, 99456, Note_off_c, 2, 52, 64
7, 99600, Note_on_c, 2, 52, 75
7, 99600, Note_on_c, 2, 53, 75
7, 99600, Note_on_c, 2, 56, 75
7, 99600, Note_on_c, 2, 60, 75
7, 99744, Note_off_c, 2, 60, 64
7, 99744, Note_off_c, 2, 56, 64
7, 99744, Note_off_c, 2, 53, 64
7, 99744, Note_off_c, 2, 52, 64
7, 99840, Note_on_c, 2, 51, 65
7, 99840, Note_on_c, 2, 65, 65
7, 99840, Note_on_c, 2, 56, 65
7, 99840, Note_on_c, 2, 60, 65
7, 99960, Note_on_c, 2, 41, 70
7, 99984, Note_off_c, 2, 60, 64
7, 99984, Note_off_c, 2, 56, 64
7, 99984, Note_off_c, 2, 65, 64
7, 99984, Note_off_c, 2, 51, 64
7, 100080, Note_on_c, 2, 51, 75
7, 100080, Note_on_c, 2, 65, 75
7, 100080, Note_on_c, 2, 56, 75
7, 100080, Note_on_c, 2, 60, 75
7, 100190, Note_off_c, 2, 41, 64
7, 100200, Note_on_c, 2, 41, 70
7, 100296, Note_off_c, 2, 60, 64
7, 100296, Note_off_c, 2, 56, 64
7, 100296, Note_off_c, 2, 65, 64
7, 100296, Note_off_c, 2, 51, 64
7, 100430, Note_off_c, 2, 41, 64
7, 100440, Note_on_c, 2, 41, 70
7, 100440, Note_on_c, 2, 51, 65
7, 100440, Note_on_c, 2, 65, 65
7, 100440, Note_on_c, 2, 56, 65
7, 100440, Note_on_c, 2, 60, 65
7, 100584, Note_off_c, 2, 60, 64
7, 100584, Note_off_c, 2, 56, 64
7, 100584, Note_off_c, 2, 65, 64
7, 100584, Note_off_c, 2, 51, 64
7, 100670, Note_off_c, 2, 41, 64
7, 100680, Note_on_c, 2, 68, 75
7, 100680, Note_on_c, 2, 60, 75
7, 100680, Note_on_c, 2, 63, 75
7, 100680, Note_on_c, 2, 65, 75
7, 100680, Note_on_c, 2, 41, 70
7, 100800, Note_off_c, 2, 41, 64
7, 100800, Note_off_c, 2, 65, 64
7, 100800, Note_off_c, 2, 63, 64
7, 100800, Note_off_c, 2, 60, 64
7, 100800, Note_off_c, 2, 68, 64
7, 100800, Note_on_c, 2, 62, 75
7, 100800, Note_on_c, 2, 60, 75
7, 100800, Note_on_c, 2, 56, 75
7, 100800, Note_on_c, 2, 65, 75
7, 100968, Note_off_c, 2, 65, 64
7, 100968, Note_off_c, 2, 56, 64
7, 100968, Note_off_c, 2, 60, 64
7, 100968, Note_off_c, 2, 62, 64
7, 101160, Note_on_c, 2, 62, 65
7, 101160, Note_on_c, 2, 60, 65
7, 101160, Note_on_c, 2, 56, 65
7, 101160, Note_on_c, 2, 65, 65
7, 101376, Note_off_c, 2, 65, 64
7, 101376, Note_off_c, 2, 56, 64
7, 101376, Note_off_c, 2, 60, 64
7, 101376, Note_off_c, 2, 62, 64
7, 101520, Note_on_c, 2, 62, 75
7, 101520, Note_on_c, 2, 60, 75
7, 101520, Note_on_c, 2, 56, 75
7, 101520, Note_on_c, 2, 65, 75
7, 101664, Note_off_c, 2, 65, 64
7, 101664, Note_off_c, 2, 56, 64
7, 101664, Note_off_c, 2, 60, 64
7, 101664, Note_off_c, 2, 62, 64
7, 101760, Note_on_c, 2, 68, 86
7, 101760, Note_on_c, 2, 60, 86
7, 101760, Note_on_c, 2, 63, 86
7, 101760, Note_on_c, 2, 65, 86
7, 102794, Note_off_c, 2, 65, 64
7, 102794, Note_off_c, 2, 63, 64
7, 102794, Note_off_c, 2, 60, 64
7, 102794, Note_off_c, 2, 68, 64
7, 102960, Note_on_c, 2, 63, 88
7, 102960, Note_on_c, 2, 65, 88
7, 102960, Note_on_c, 2, 56, 88
7, 102960, Note_on_c, 2, 72, 88
7, 103024, Note_off_c, 2, 72, 64
7, 103024, Note_off_c, 2, 56, 64
7, 103024, Note_off_c, 2, 65, 64
7, 103024, Note_off_c, 2, 63, 64
7, 103080, Note_on_c, 2, 63, 86
7, 103080, Note_on_c, 2, 65, 86
7, 103080, Note_on_c, 2, 56, 86
7, 103080, Note_on_c, 2, 72, 86
7, 103140, Note_off_c, 2, 72, 64
7, 103140, Note_off_c, 2, 56, 64
7, 103140, Note_off_c, 2, 65, 64
7, 103140, Note_off_c, 2, 63, 64
7, 103200, Note_on_c, 2, 63, 99
7, 103200, Note_on_c, 2, 65, 99
7, 103200, Note_on_c, 2, 56, 99
7, 103200, Note_on_c, 2, 72, 99
7, 103266, Note_off_c, 2, 72, 64
7, 103266, Note_off_c, 2, 56, 64
7, 103266, Note_off_c, 2, 65, 64
7, 103266, Note_off_c, 2, 63, 64
7, 103680, Control_c, 2, 64, 0
7, 103680, End_track
8, 0, Start_track
8, 0, Title_t, "G.MIDI Aco Steel Guitar"
8, 0, Program_c, 3, 25
8, 0, Control_c, 3, 7, 90
8, 1, Pitch_bend_c, 3, 8192
8, 1920, Note_on_c, 3, 63, 50
8, 2040, Note_on_c, 3, 65, 51
8, 2280, Note_on_c, 3, 68, 53
8, 2520, Note_on_c, 3, 71, 56
8, 2760, Note_on_c, 3, 77, 58
8, 2880, Note_off_c, 3, 77, 64
8, 2880, Note_off_c, 3, 71, 64
8, 2880, Note_off_c, 3, 68, 64
8, 2880, Note_off_c, 3, 65, 64
8, 2880, Note_off_c, 3, 63, 64
8, 2880, Note_on_c, 3, 60, 50
8, 3000, Note_on_c, 3, 64, 51
8, 3240, Note_on_c, 3, 68, 53
8, 3480, Note_on_c, 3, 70, 56
8, 3720, Note_on_c, 3, 76, 58
8, 3840, Note_off_c, 3, 76, 64
8, 3840, Note_off_c, 3, 70, 64
8, 3840, Note_off_c, 3, 68, 64
8, 3840, Note_off_c, 3, 64, 64
8, 3840, Note_off_c, 3, 60, 64
8, 3840, Note_on_c, 3, 65, 50
8, 3960, Note_on_c, 3, 68, 51
8, 4200, Note_on_c, 3, 72, 53
8, 4440, Note_on_c, 3, 75, 56
8, 4680, Note_on_c, 3, 80, 58
8, 4800, Note_off_c, 3, 80, 64
8, 4800, Note_off_c, 3, 75, 64
8, 4800, Note_off_c, 3, 72, 64
8, 4800, Note_off_c, 3, 68, 64
8, 4800, Note_off_c, 3, 65, 64
8, 4800, Note_on_c, 3, 65, 65
8, 4900, Note_off_c, 3, 65, 64
8, 4920, Note_on_c, 3, 65, 80
8, 5600, Note_off_c, 3, 65, 64
8, 5760, Note_on_c, 3, 65, 50
8, 5880, Note_on_c, 3, 68, 51
8, 6120, Note_on_c, 3, 72, 53
8, 6360, Note_on_c, 3, 75, 56
8, 6600, Note_on_c, 3, 80, 58
8, 6720, Note_off_c, 3, 80, 64
8, 6720, Note_off_c, 3, 75, 64
8, 6720, Note_off_c, 3, 72, 64
8, 6720, Note_off_c, 3, 68, 64
8, 6720, Note_off_c, 3, 65, 64
8, 6720, Note_on_c, 3, 65, 50
8, 6840, Note_on_c, 3, 68, 51
8, 7080, Note_on_c, 3, 72, 53
8, 7320, Note_on_c, 3, 76, 56
8, 7560, Note_on_c, 3, 80, 58
8, 7680, Note_off_c, 3, 80, 64
8, 7680, Note_off_c, 3, 76, 64
8, 7680, Note_off_c, 3, 72, 64
8, 7680, Note_off_c, 3, 68, 64
8, 7680, Note_off_c, 3, 65, 64
8, 7680, Note_on_c, 3, 65, 50
8, 7800, Note_on_c, 3, 68, 51
8, 8040, Note_on_c, 3, 72, 53
8, 8280, Note_on_c, 3, 75, 56
8, 8520, Note_on_c, 3, 80, 58
8, 8640, Note_off_c, 3, 80, 64
8, 8640, Note_off_c, 3, 75, 64
8, 8640, Note_off_c, 3, 72, 64
8, 8640, Note_off_c, 3, 68, 64
8, 8640, Note_off_c, 3, 65, 64
8, 8640, Note_on_c, 3, 60, 50
8, 8760, Note_on_c, 3, 62, 51
8, 9000, Note_on_c, 3, 65, 53
8, 9240, Note_on_c, 3, 68, 56
8, 9480, Note_on_c, 3, 74, 58
8, 9600, Note_off_c, 3, 74, 64
8, 9600, Note_off_c, 3, 68, 64
8, 9600, Note_off_c, 3, 65, 64
8, 9600, Note_off_c, 3, 62, 64
8, 9600, Note_off_c, 3, 60, 64
8, 9600, Note_on_c, 3, 65, 50
8, 9720, Note_on_c, 3, 68, 51
8, 9960, Note_on_c, 3, 72, 53
8, 10200, Note_on_c, 3, 75, 56
8, 10440, Note_on_c, 3, 80, 58
8, 10560, Note_off_c, 3, 80, 64
8, 10560, Note_off_c, 3, 75, 64
8, 10560, Note_off_c, 3, 72, 64
8, 10560, Note_off_c, 3, 68, 64
8, 10560, Note_off_c, 3, 65, 64
8, 10560, Note_on_c, 3, 63, 50
8, 10680, Note_on_c, 3, 65, 51
8, 10920, Note_on_c, 3, 68, 53
8, 11160, Note_on_c, 3, 71, 56
8, 11400, Note_on_c, 3, 77, 58
8, 11520, Note_off_c, 3, 77, 64
8, 11520, Note_off_c, 3, 71, 64
8, 11520, Note_off_c, 3, 68, 64
8, 11520, Note_off_c, 3, 65, 64
8, 11520, Note_off_c, 3, 63, 64
8, 11520, Note_on_c, 3, 55, 50
8, 11640, Note_on_c, 3, 58, 51
8, 11880, Note_on_c, 3, 62, 53
8, 12120, Note_on_c, 3, 65, 56
8, 12360, Note_on_c, 3, 70, 58
8, 12480, Note_off_c, 3, 70, 64
8, 12480, Note_off_c, 3, 65, 64
8, 12480, Note_off_c, 3, 62, 64
8, 12480, Note_off_c, 3, 58, 64
8, 12480, Note_off_c, 3, 55, 64
8, 12480, Note_on_c, 3, 60, 50
8, 12600, Note_on_c, 3, 64, 51
8, 12840, Note_on_c, 3, 68, 53
8, 13080, Note_on_c, 3, 70, 56
8, 13320, Note_on_c, 3, 76, 58
8, 13440, Note_off_c, 3, 76, 64
8, 13440, Note_off_c, 3, 70, 64
8, 13440, Note_off_c, 3, 68, 64
8, 13440, Note_off_c, 3, 64, 64
8, 13440, Note_off_c, 3, 60, 64
8, 13440, Note_on_c, 3, 65, 50
8, 13560, Note_on_c, 3, 68, 51
8, 13800, Note_on_c, 3, 72, 53
8, 14040, Note_on_c, 3, 75, 56
8, 14280, Note_on_c, 3, 80, 58
8, 14400, Note_off_c, 3, 80, 64
8, 14400, Note_off_c, 3, 75, 64
8, 14400, Note_off_c, 3, 72, 64
8, 14400, Note_off_c, 3, 68, 64
8, 14400, Note_off_c, 3, 65, 64
8, 14400, Note_on_c, 3, 65, 50
8, 14520, Note_on_c, 3, 68, 51
8, 14760, Note_on_c, 3, 72, 53
8, 15000, Note_on_c, 3, 76, 56
8, 15240, Note_on_c, 3, 80, 58
8, 15360, Note_off_c, 3, 80, 64
8, 15360, Note_off_c, 3, 76, 64
8, 15360, Note_off_c, 3, 72, 64
8, 15360, Note_off_c, 3, 68, 64
8, 15360, Note_off_c, 3, 65, 64
8, 15360, Note_on_c, 3, 65, 50
8, 15480, Note_on_c, 3, 68, 51
8, 15720, Note_on_c, 3, 72, 53
8, 15960, Note_on_c, 3, 75, 56
8, 16200, Note_on_c, 3, 80, 58
8, 16320, Note_off_c, 3, 80, 64
8, 16320, Note_off_c, 3, 75, 64
8, 16320, Note_off_c, 3, 72, 64
8, 16320, Note_off_c, 3, 68, 64
8, 16320, Note_off_c, 3, 65, 64
8, 16320, Note_on_c, 3, 60, 50
8, 16440, Note_on_c, 3, 62, 51
8, 16680, Note_on_c, 3, 65, 53
8, 16920, Note_on_c, 3, 68, 56
8, 17160, Note_on_c, 3, 74, 58
8, 17280, Note_off_c, 3, 74, 64
8, 17280, Note_off_c, 3, 68, 64
8, 17280, Note_off_c, 3, 65, 64
8, 17280, Note_off_c, 3, 62, 64
8, 17280, Note_off_c, 3, 60, 64
8, 17280, Note_on_c, 3, 63, 50
8, 17400, Note_on_c, 3, 65, 51
8, 17640, Note_on_c, 3, 68, 53
8, 17880, Note_on_c, 3, 71, 56
8, 18120, Note_on_c, 3, 77, 58
8, 18240, Note_off_c, 3, 77, 64
8, 18240, Note_off_c, 3, 71, 64
8, 18240, Note_off_c, 3, 68, 64
8, 18240, Note_off_c, 3, 65, 64
8, 18240, Note_off_c, 3, 63, 64
8, 18240, Note_on_c, 3, 60, 50
8, 18360, Note_on_c, 3, 64, 51
8, 18600, Note_on_c, 3, 68, 53
8, 18840, Note_on_c, 3, 70, 56
8, 19080, Note_on_c, 3, 76, 58
8, 19200, Note_off_c, 3, 76, 64
8, 19200, Note_off_c, 3, 70, 64
8, 19200, Note_off_c, 3, 68, 64
8, 19200, Note_off_c, 3, 64, 64
8, 19200, Note_off_c, 3, 60, 64
8, 19200, Note_on_c, 3, 65, 50
8, 19320, Note_on_c, 3, 68, 51
8, 19560, Note_on_c, 3, 72, 53
8, 19800, Note_on_c, 3, 75, 56
8, 20040, Note_on_c, 3, 80, 58
8, 20160, Note_off_c, 3, 80, 64
8, 20160, Note_off_c, 3, 75, 64
8, 20160, Note_off_c, 3, 72, 64
8, 20160, Note_off_c, 3, 68, 64
8, 20160, Note_off_c, 3, 65, 64
8, 20160, Note_on_c, 3, 65, 50
8, 20280, Note_on_c, 3, 68, 51
8, 20520, Note_on_c, 3, 72, 53
8, 20640, Note_off_c, 3, 72, 64
8, 20640, Note_off_c, 3, 68, 64
8, 20640, Note_off_c, 3, 65, 64
8, 20640, Note_on_c, 3, 64, 50
8, 20760, Note_on_c, 3, 67, 51
8, 20880, Note_off_c, 3, 67, 64
8, 20880, Note_off_c, 3, 64, 64
8, 20880, Note_on_c, 3, 57, 50
8, 21000, Note_on_c, 3, 61, 51
8, 21120, Note_off_c, 3, 61, 64
8, 21120, Note_off_c, 3, 57, 64
8, 21120, Note_on_c, 3, 51, 60
8, 21180, Note_off_c, 3, 51, 64
8, 21240, Note_on_c, 3, 54, 60
8, 21300, Note_off_c, 3, 54, 64
8, 21360, Note_on_c, 3, 58, 60
8, 21420, Note_off_c, 3, 58, 64
8, 21480, Note_on_c, 3, 61, 60
8, 21540, Note_off_c, 3, 61, 64
8, 21600, Note_on_c, 3, 66, 60
8, 21660, Note_off_c, 3, 66, 64
8, 21720, Note_on_c, 3, 70, 60
8, 21780, Note_off_c, 3, 70, 64
8, 21840, Note_on_c, 3, 73, 60
8, 21900, Note_off_c, 3, 73, 64
8, 21960, Note_on_c, 3, 65, 60
8, 22020, Note_off_c, 3, 65, 64
8, 22080, Note_on_c, 3, 44, 60
8, 22140, Note_off_c, 3, 44, 64
8, 22200, Note_on_c, 3, 48, 60
8, 22260, Note_off_c, 3, 48, 64
8, 22320, Note_on_c, 3, 51, 60
8, 22380, Note_off_c, 3, 51, 64
8, 22440, Note_on_c, 3, 54, 60
8, 22500, Note_off_c, 3, 54, 64
8, 22560, Note_on_c, 3, 60, 60
8, 22620, Note_off_c, 3, 60, 64
8, 22680, Note_on_c, 3, 63, 60
8, 22740, Note_off_c, 3, 63, 64
8, 22800, Note_on_c, 3, 66, 60
8, 22860, Note_off_c, 3, 66, 64
8, 22920, Note_on_c, 3, 58, 60
8, 22980, Note_off_c, 3, 58, 64
8, 23040, Note_on_c, 3, 49, 60
8, 23100, Note_off_c, 3, 49, 64
8, 23160, Note_on_c, 3, 53, 60
8, 23220, Note_off_c, 3, 53, 64
8, 23280, Note_on_c, 3, 56, 60
8, 23340, Note_off_c, 3, 56, 64
8, 23400, Note_on_c, 3, 60, 60
8, 23460, Note_off_c, 3, 60, 64
8, 23520, Note_on_c, 3, 65, 60
8, 23580, Note_off_c, 3, 65, 64
8, 23640, Note_on_c, 3, 68, 60
8, 23700, Note_off_c, 3, 68, 64
8, 23760, Note_on_c, 3, 72, 60
8, 23820, Note_off_c, 3, 72, 64
8, 23880, Note_on_c, 3, 61, 60
8, 23940, Note_off_c, 3, 61, 64
8, 24000, Note_on_c, 3, 46, 60
8, 24060, Note_off_c, 3, 46, 64
8, 24120, Note_on_c, 3, 50, 60
8, 24180, Note_off_c, 3, 50, 64
8, 24240, Note_on_c, 3, 53, 60
8, 24300, Note_off_c, 3, 53, 64
8, 24360, Note_on_c, 3, 56, 60
8, 24420, Note_off_c, 3, 56, 64
8, 24480, Note_on_c, 3, 62, 60
8, 24540, Note_off_c, 3, 62, 64
8, 24600, Note_on_c, 3, 65, 60
8, 24660, Note_off_c, 3, 65, 64
8, 24720, Note_on_c, 3, 68, 60
8, 24780, Note_off_c, 3, 68, 64
8, 24840, Note_on_c, 3, 58, 60
8, 24900, Note_off_c, 3, 58, 64
8, 24960, Note_on_c, 3, 51, 60
8, 25020, Note_off_c, 3, 51, 64
8, 25080, Note_on_c, 3, 54, 60
8, 25140, Note_off_c, 3, 54, 64
8, 25200, Note_on_c, 3, 58, 60
8, 25260, Note_off_c, 3, 58, 64
8, 25320, Note_on_c, 3, 61, 60
8, 25380, Note_off_c, 3, 61, 64
8, 25440, Note_on_c, 3, 66, 60
8, 25500, Note_off_c, 3, 66, 64
8, 25560, Note_on_c, 3, 70, 60
8, 25620, Note_off_c, 3, 70, 64
8, 25680, Note_on_c, 3, 73, 60
8, 25740, Note_off_c, 3, 73, 64
8, 25800, Note_on_c, 3, 63, 60
8, 25860, Note_off_c, 3, 63, 64
8, 25920, Note_on_c, 3, 44, 60
8, 25980, Note_off_c, 3, 44, 64
8, 26040, Note_on_c, 3, 48, 60
8, 26100, Note_off_c, 3, 48, 64
8, 26160, Note_on_c, 3, 51, 60
8, 26220, Note_off_c, 3, 51, 64
8, 26280, Note_on_c, 3, 54, 60
8, 26340, Note_off_c, 3, 54, 64
8, 26400, Note_on_c, 3, 60, 60
8, 26460, Note_off_c, 3, 60, 64
8, 26520, Note_on_c, 3, 63, 60
8, 26580, Note_off_c, 3, 63, 64
8, 26640, Note_on_c, 3, 66, 60
8, 26700, Note_off_c, 3, 66, 64
8, 26760, Note_on_c, 3, 58, 60
8, 26820, Note_off_c, 3, 58, 64
8, 26880, Note_on_c, 3, 49, 60
8, 26940, Note_off_c, 3, 49, 64
8, 27000, Note_on_c, 3, 53, 60
8, 27060, Note_off_c, 3, 53, 64
8, 27120, Note_on_c, 3, 56, 60
8, 27180, Note_off_c, 3, 56, 64
8, 27240, Note_on_c, 3, 60, 60
8, 27300, Note_off_c, 3, 60, 64
8, 27360, Note_on_c, 3, 65, 60
8, 27420, Note_off_c, 3, 65, 64
8, 27480, Note_on_c, 3, 68, 60
8, 27540, Note_off_c, 3, 68, 64
8, 27600, Note_on_c, 3, 72, 60
8, 27660, Note_off_c, 3, 72, 64
8, 27720, Note_on_c, 3, 61, 60
8, 27780, Note_off_c, 3, 61, 64
8, 27840, Note_on_c, 3, 49, 60
8, 27900, Note_off_c, 3, 49, 64
8, 27960, Note_on_c, 3, 53, 60
8, 28020, Note_off_c, 3, 53, 64
8, 28080, Note_on_c, 3, 56, 60
8, 28140, Note_off_c, 3, 56, 64
8, 28200, Note_on_c, 3, 60, 60
8, 28260, Note_off_c, 3, 60, 64
8, 28320, Note_on_c, 3, 65, 60
8, 28380, Note_off_c, 3, 65, 64
8, 28440, Note_on_c, 3, 68, 60
8, 28500, Note_off_c, 3, 68, 64
8, 28560, Note_on_c, 3, 72, 60
8, 28620, Note_off_c, 3, 72, 64
8, 28680, Note_on_c, 3, 61, 60
8, 28740, Note_off_c, 3, 61, 64
8, 28800, Note_on_c, 3, 50, 60
8, 28860, Note_off_c, 3, 50, 64
8, 28920, Note_on_c, 3, 53, 60
8, 28980, Note_off_c, 3, 53, 64
8, 29040, Note_on_c, 3, 57, 60
8, 29100, Note_off_c, 3, 57, 64
8, 29160, Note_on_c, 3, 60, 60
8, 29220, Note_off_c, 3, 60, 64
8, 29280, Note_on_c, 3, 65, 60
8, 29340, Note_off_c, 3, 65, 64
8, 29400, Note_on_c, 3, 69, 60
8, 29460, Note_off_c, 3, 69, 64
8, 29520, Note_on_c, 3, 72, 60
8, 29580, Note_off_c, 3, 72, 64
8, 29640, Note_on_c, 3, 64, 60
8, 29700, Note_off_c, 3, 64, 64
8, 29760, Note_on_c, 3, 43, 60
8, 29820, Note_off_c, 3, 43, 64
8, 29880, Note_on_c, 3, 47, 60
8, 29940, Note_off_c, 3, 47, 64
8, 30000, Note_on_c, 3, 51, 60
8, 30060, Note_off_c, 3, 51, 64
8, 30120, Note_on_c, 3, 53, 60
8, 30180, Note_off_c, 3, 53, 64
8, 30240, Note_on_c, 3, 59, 60
8, 30300, Note_off_c, 3, 59, 64
8, 30360, Note_on_c, 3, 63, 60
8, 30420, Note_off_c, 3, 63, 64
8, 30480, Note_on_c, 3, 65, 60
8, 30540, Note_off_c, 3, 65, 64
8, 30600, Note_on_c, 3, 55, 60
8, 30660, Note_off_c, 3, 55, 64
8, 30720, Note_on_c, 3, 48, 60
8, 30780, Note_off_c, 3, 48, 64
8, 30840, Note_on_c, 3, 52, 60
8, 30900, Note_off_c, 3, 52, 64
8, 30960, Note_on_c, 3, 55, 60
8, 31020, Note_off_c, 3, 55, 64
8, 31080, Note_on_c, 3, 59, 60
8, 31140, Note_off_c, 3, 59, 64
8, 31200, Note_on_c, 3, 64, 60
8, 31260, Note_off_c, 3, 64, 64
8, 31320, Note_on_c, 3, 67, 60
8, 31380, Note_off_c, 3, 67, 64
8, 31440, Note_on_c, 3, 71, 60
8, 31500, Note_off_c, 3, 71, 64
8, 31560, Note_on_c, 3, 60, 60
8, 31620, Note_off_c, 3, 60, 64
8, 31680, Note_on_c, 3, 48, 60
8, 31740, Note_off_c, 3, 48, 64
8, 31800, Note_on_c, 3, 52, 60
8, 31860, Note_off_c, 3, 52, 64
8, 31920, Note_on_c, 3, 55, 60
8, 31980, Note_off_c, 3, 55, 64
8, 32040, Note_on_c, 3, 59, 60
8, 32100, Note_off_c, 3, 59, 64
8, 32160, Note_on_c, 3, 64, 60
8, 32220, Note_off_c, 3, 64, 64
8, 32280, Note_on_c, 3, 67, 60
8, 32340, Note_off_c, 3, 67, 64
8, 32400, Note_on_c, 3, 71, 60
8, 32460, Note_off_c, 3, 71, 64
8, 32520, Note_on_c, 3, 60, 60
8, 32580, Note_off_c, 3, 60, 64
8, 32640, Note_on_c, 3, 46, 60
8, 32700, Note_off_c, 3, 46, 64
8, 32760, Note_on_c, 3, 55, 60
8, 32820, Note_off_c, 3, 55, 64
8, 32880, Note_on_c, 3, 58, 60
8, 32940, Note_off_c, 3, 58, 64
8, 33000, Note_on_c, 3, 62, 60
8, 33060, Note_off_c, 3, 62, 64
8, 33120, Note_on_c, 3, 67, 60
8, 33180, Note_off_c, 3, 67, 64
8, 33240, Note_on_c, 3, 70, 60
8, 33300, Note_off_c, 3, 70, 64
8, 33360, Note_on_c, 3, 74, 60
8, 33420, Note_off_c, 3, 74, 64
8, 33480, Note_on_c, 3, 63, 60
8, 33540, Note_off_c, 3, 63, 64
8, 33600, Note_on_c, 3, 35, 60
8, 33660, Note_off_c, 3, 35, 64
8, 33720, Note_on_c, 3, 47, 60
8, 33780, Note_off_c, 3, 47, 64
8, 33840, Note_on_c, 3, 50, 60
8, 33900, Note_off_c, 3, 50, 64
8, 33960, Note_on_c, 3, 53, 60
8, 34020, Note_off_c, 3, 53, 64
8, 34080, Note_on_c, 3, 59, 60
8, 34140, Note_off_c, 3, 59, 64
8, 34200, Note_on_c, 3, 62, 60
8, 34260, Note_off_c, 3, 62, 64
8, 34320, Note_on_c, 3, 65, 60
8, 34380, Note_off_c, 3, 65, 64
8, 34440, Note_on_c, 3, 55, 60
8, 34500, Note_off_c, 3, 55, 64
8, 34560, Note_on_c, 3, 36, 60
8, 34620, Note_off_c, 3, 36, 64
8, 34680, Note_on_c, 3, 46, 60
8, 34740, Note_off_c, 3, 46, 64
8, 34800, Note_on_c, 3, 50, 60
8, 34860, Note_off_c, 3, 50, 64
8, 34920, Note_on_c, 3, 53, 60
8, 34980, Note_off_c, 3, 53, 64
8, 35040, Note_on_c, 3, 58, 60
8, 35100, Note_off_c, 3, 58, 64
8, 35160, Note_on_c, 3, 62, 60
8, 35220, Note_off_c, 3, 62, 64
8, 35280, Note_on_c, 3, 65, 60
8, 35340, Note_off_c, 3, 65, 64
8, 35400, Note_on_c, 3, 55, 60
8, 35460, Note_off_c, 3, 55, 64
8, 35520, Note_on_c, 3, 48, 60
8, 35580, Note_off_c, 3, 48, 64
8, 35640, Note_on_c, 3, 52, 60
8, 35700, Note_off_c, 3, 52, 64
8, 35760, Note_on_c, 3, 56, 60
8, 35820, Note_off_c, 3, 56, 64
8, 35880, Note_on_c, 3, 58, 60
8, 35940, Note_off_c, 3, 58, 64
8, 36000, Note_on_c, 3, 64, 60
8, 36060, Note_off_c, 3, 64, 64
8, 36120, Note_on_c, 3, 68, 60
8, 36180, Note_off_c, 3, 68, 64
8, 36240, Note_on_c, 3, 70, 60
8, 36300, Note_off_c, 3, 70, 64
8, 36360, Note_on_c, 3, 60, 60
8, 36420, Note_off_c, 3, 60, 64
8, 36480, Note_on_c, 3, 65, 50
8, 36600, Note_on_c, 3, 68, 51
8, 36840, Note_on_c, 3, 72, 53
8, 37080, Note_on_c, 3, 75, 56
8, 37320, Note_on_c, 3, 80, 58
8, 37440, Note_off_c, 3, 80, 64
8, 37440, Note_off_c, 3, 75, 64
8, 37440, Note_off_c, 3, 72, 64
8, 37440, Note_off_c, 3, 68, 64
8, 37440, Note_off_c, 3, 65, 64
8, 37440, Note_on_c, 3, 65, 50
8, 37560, Note_on_c, 3, 68, 51
8, 37800, Note_on_c, 3, 72, 53
8, 38040, Note_on_c, 3, 76, 56
8, 38280, Note_on_c, 3, 80, 58
8, 38400, Note_off_c, 3, 80, 64
8, 38400, Note_off_c, 3, 76, 64
8, 38400, Note_off_c, 3, 72, 64
8, 38400, Note_off_c, 3, 68, 64
8, 38400, Note_off_c, 3, 65, 64
8, 38400, Note_on_c, 3, 65, 50
8, 38520, Note_on_c, 3, 68, 51
8, 38760, Note_on_c, 3, 72, 53
8, 39000, Note_on_c, 3, 75, 56
8, 39240, Note_on_c, 3, 80, 58
8, 39360, Note_off_c, 3, 80, 64
8, 39360, Note_off_c, 3, 75, 64
8, 39360, Note_off_c, 3, 72, 64
8, 39360, Note_off_c, 3, 68, 64
8, 39360, Note_off_c, 3, 65, 64
8, 39360, Note_on_c, 3, 60, 50
8, 39480, Note_on_c, 3, 62, 51
8, 39720, Note_on_c, 3, 65, 53
8, 39960, Note_on_c, 3, 68, 56
8, 40200, Note_on_c, 3, 74, 58
8, 40320, Note_off_c, 3, 74, 64
8, 40320, Note_off_c, 3, 68, 64
8, 40320, Note_off_c, 3, 65, 64
8, 40320, Note_off_c, 3, 62, 64
8, 40320, Note_off_c, 3, 60, 64
8, 40320, Note_on_c, 3, 65, 50
8, 40440, Note_on_c, 3, 68, 51
8, 40680, Note_on_c, 3, 72, 53
8, 40920, Note_on_c, 3, 75, 56
8, 41160, Note_on_c, 3, 80, 58
8, 41280, Note_off_c, 3, 80, 64
8, 41280, Note_off_c, 3, 75, 64
8, 41280, Note_off_c, 3, 72, 64
8, 41280, Note_off_c, 3, 68, 64
8, 41280, Note_off_c, 3, 65, 64
8, 41280, Note_on_c, 3, 63, 50
8, 41400, Note_on_c, 3, 65, 51
8, 41640, Note_on_c, 3, 68, 53
8, 41880, Note_on_c, 3, 71, 56
8, 42120, Note_on_c, 3, 77, 58
8, 42240, Note_off_c, 3, 77, 64
8, 42240, Note_off_c, 3, 71, 64
8, 42240, Note_off_c, 3, 68, 64
8, 42240, Note_off_c, 3, 65, 64
8, 42240, Note_off_c, 3, 63, 64
8, 42240, Note_on_c, 3, 55, 50
8, 42360, Note_on_c, 3, 58, 51
8, 42600, Note_on_c, 3, 62, 53
8, 42840, Note_on_c, 3, 65, 56
8, 43080, Note_on_c, 3, 70, 58
8, 43200, Note_off_c, 3, 70, 64
8, 43200, Note_off_c, 3, 65, 64
8, 43200, Note_off_c, 3, 62, 64
8, 43200, Note_off_c, 3, 58, 64
8, 43200, Note_off_c, 3, 55, 64
8, 43200, Note_on_c, 3, 60, 50
8, 43320, Note_on_c, 3, 64, 51
8, 43560, Note_on_c, 3, 68, 53
8, 43800, Note_on_c, 3, 70, 56
8, 44040, Note_on_c, 3, 76, 58
8, 44160, Note_off_c, 3, 76, 64
8, 44160, Note_off_c, 3, 70, 64
8, 44160, Note_off_c, 3, 68, 64
8, 44160, Note_off_c, 3, 64, 64
8, 44160, Note_off_c, 3, 60, 64
8, 44160, Note_on_c, 3, 65, 50
8, 44280, Note_on_c, 3, 68, 51
8, 44520, Note_on_c, 3, 72, 53
8, 44760, Note_on_c, 3, 75, 56
8, 45000, Note_on_c, 3, 80, 58
8, 45120, Note_off_c, 3, 80, 64
8, 45120, Note_off_c, 3, 75, 64
8, 45120, Note_off_c, 3, 72, 64
8, 45120, Note_off_c, 3, 68, 64
8, 45120, Note_off_c, 3, 65, 64
8, 45120, Note_on_c, 3, 65, 50
8, 45240, Note_on_c, 3, 68, 51
8, 45480, Note_on_c, 3, 72, 53
8, 45720, Note_on_c, 3, 76, 56
8, 45960, Note_on_c, 3, 80, 58
8, 46080, Note_off_c, 3, 80, 64
8, 46080, Note_off_c, 3, 76, 64
8, 46080, Note_off_c, 3, 72, 64
8, 46080, Note_off_c, 3, 68, 64
8, 46080, Note_off_c, 3, 65, 64
8, 46080, Note_on_c, 3, 65, 50
8, 46200, Note_on_c, 3, 68, 51
8, 46440, Note_on_c, 3, 72, 53
8, 46680, Note_on_c, 3, 75, 56
8, 46920, Note_on_c, 3, 80, 58
8, 47040, Note_off_c, 3, 80, 64
8, 47040, Note_off_c, 3, 75, 64
8, 47040, Note_off_c, 3, 72, 64
8, 47040, Note_off_c, 3, 68, 64
8, 47040, Note_off_c, 3, 65, 64
8, 47040, Note_on_c, 3, 60, 50
8, 47160, Note_on_c, 3, 62, 51
8, 47400, Note_on_c, 3, 65, 53
8, 47640, Note_on_c, 3, 68, 56
8, 47880, Note_on_c, 3, 74, 58
8, 48000, Note_off_c, 3, 74, 64
8, 48000, Note_off_c, 3, 68, 64
8, 48000, Note_off_c, 3, 65, 64
8, 48000, Note_off_c, 3, 62, 64
8, 48000, Note_off_c, 3, 60, 64
8, 48000, Note_on_c, 3, 63, 50
8, 48120, Note_on_c, 3, 65, 51
8, 48360, Note_on_c, 3, 68, 53
8, 48600, Note_on_c, 3, 71, 56
8, 48840, Note_on_c, 3, 77, 58
8, 48960, Note_off_c, 3, 77, 64
8, 48960, Note_off_c, 3, 71, 64
8, 48960, Note_off_c, 3, 68, 64
8, 48960, Note_off_c, 3, 65, 64
8, 48960, Note_off_c, 3, 63, 64
8, 48960, Note_on_c, 3, 60, 50
8, 49080, Note_on_c, 3, 64, 51
8, 49320, Note_on_c, 3, 68, 53
8, 49560, Note_on_c, 3, 70, 56
8, 49800, Note_on_c, 3, 76, 58
8, 49920, Note_off_c, 3, 76, 64
8, 49920, Note_off_c, 3, 70, 64
8, 49920, Note_off_c, 3, 68, 64
8, 49920, Note_off_c, 3, 64, 64
8, 49920, Note_off_c, 3, 60, 64
8, 49920, Note_on_c, 3, 65, 50
8, 50040, Note_on_c, 3, 68, 51
8, 50280, Note_on_c, 3, 72, 53
8, 50520, Note_on_c, 3, 75, 56
8, 50760, Note_on_c, 3, 80, 58
8, 50880, Note_off_c, 3, 80, 64
8, 50880, Note_off_c, 3, 75, 64
8, 50880, Note_off_c, 3, 72, 64
8, 50880, Note_off_c, 3, 68, 64
8, 50880, Note_off_c, 3, 65, 64
8, 50880, Note_on_c, 3, 65, 65
8, 50980, Note_off_c, 3, 65, 64
8, 51000, Note_on_c, 3, 65, 80
8, 51680, Note_off_c, 3, 65, 64
8, 51840, Note_on_c, 3, 65, 50
8, 51960, Note_on_c, 3, 68, 51
8, 52200, Note_on_c, 3, 72, 53
8, 52440, Note_on_c, 3, 75, 56
8, 52680, Note_on_c, 3, 80, 58
8, 52800, Note_off_c, 3, 80, 64
8, 52800, Note_off_c, 3, 75, 64
8, 52800, Note_off_c, 3, 72, 64
8, 52800, Note_off_c, 3, 68, 64
8, 52800, Note_off_c, 3, 65, 64
8, 52800, Note_on_c, 3, 65, 50
8, 52920, Note_on_c, 3, 68, 51
8, 53160, Note_on_c, 3, 72, 53
8, 53400, Note_on_c, 3, 76, 56
8, 53640, Note_on_c, 3, 80, 58
8, 53760, Note_off_c, 3, 80, 64
8, 53760, Note_off_c, 3, 76, 64
8, 53760, Note_off_c, 3, 72, 64
8, 53760, Note_off_c, 3, 68, 64
8, 53760, Note_off_c, 3, 65, 64
8, 53760, Note_on_c, 3, 65, 50
8, 53880, Note_on_c, 3, 68, 51
8, 54120, Note_on_c, 3, 72, 53
8, 54360, Note_on_c, 3, 75, 56
8, 54600, Note_on_c, 3, 80, 58
8, 54720, Note_off_c, 3, 80, 64
8, 54720, Note_off_c, 3, 75, 64
8, 54720, Note_off_c, 3, 72, 64
8, 54720, Note_off_c, 3, 68, 64
8, 54720, Note_off_c, 3, 65, 64
8, 54720, Note_on_c, 3, 60, 50
8, 54840, Note_on_c, 3, 62, 51
8, 55080, Note_on_c, 3, 65, 53
8, 55320, Note_on_c, 3, 68, 56
8, 55560, Note_on_c, 3, 74, 58
8, 55680, Note_off_c, 3, 74, 64
8, 55680, Note_off_c, 3, 68, 64
8, 55680, Note_off_c, 3, 65, 64
8, 55680, Note_off_c, 3, 62, 64
8, 55680, Note_off_c, 3, 60, 64
8, 55680, Note_on_c, 3, 65, 50
8, 55800, Note_on_c, 3, 68, 51
8, 56040, Note_on_c, 3, 72, 53
8, 56280, Note_on_c, 3, 75, 56
8, 56520, Note_on_c, 3, 80, 58
8, 56640, Note_off_c, 3, 80, 64
8, 56640, Note_off_c, 3, 75, 64
8, 56640, Note_off_c, 3, 72, 64
8, 56640, Note_off_c, 3, 68, 64
8, 56640, Note_off_c, 3, 65, 64
8, 56640, Note_on_c, 3, 63, 50
8, 56760, Note_on_c, 3, 65, 51
8, 57000, Note_on_c, 3, 68, 53
8, 57240, Note_on_c, 3, 71, 56
8, 57480, Note_on_c, 3, 77, 58
8, 57600, Note_off_c, 3, 77, 64
8, 57600, Note_off_c, 3, 71, 64
8, 57600, Note_off_c, 3, 68, 64
8, 57600, Note_off_c, 3, 65, 64
8, 57600, Note_off_c, 3, 63, 64
8, 57600, Note_on_c, 3, 55, 50
8, 57720, Note_on_c, 3, 58, 51
8, 57960, Note_on_c, 3, 62, 53
8, 58200, Note_on_c, 3, 65, 56
8, 58440, Note_on_c, 3, 70, 58
8, 58560, Note_off_c, 3, 70, 64
8, 58560, Note_off_c, 3, 65, 64
8, 58560, Note_off_c, 3, 62, 64
8, 58560, Note_off_c, 3, 58, 64
8, 58560, Note_off_c, 3, 55, 64
8, 58560, Note_on_c, 3, 60, 50
8, 58680, Note_on_c, 3, 64, 51
8, 58920, Note_on_c, 3, 68, 53
8, 59160, Note_on_c, 3, 70, 56
8, 59400, Note_on_c, 3, 76, 58
8, 59520, Note_off_c, 3, 76, 64
8, 59520, Note_off_c, 3, 70, 64
8, 59520, Note_off_c, 3, 68, 64
8, 59520, Note_off_c, 3, 64, 64
8, 59520, Note_off_c, 3, 60, 64
8, 59520, Note_on_c, 3, 65, 50
8, 59640, Note_on_c, 3, 68, 51
8, 59880, Note_on_c, 3, 72, 53
8, 60120, Note_on_c, 3, 75, 56
8, 60360, Note_on_c, 3, 80, 58
8, 60480, Note_off_c, 3, 80, 64
8, 60480, Note_off_c, 3, 75, 64
8, 60480, Note_off_c, 3, 72, 64
8, 60480, Note_off_c, 3, 68, 64
8, 60480, Note_off_c, 3, 65, 64
8, 60480, Note_on_c, 3, 65, 50
8, 60600, Note_on_c, 3, 68, 51
8, 60840, Note_on_c, 3, 72, 53
8, 61080, Note_on_c, 3, 76, 56
8, 61320, Note_on_c, 3, 80, 58
8, 61440, Note_off_c, 3, 80, 64
8, 61440, Note_off_c, 3, 76, 64
8, 61440, Note_off_c, 3, 72, 64
8, 61440, Note_off_c, 3, 68, 64
8, 61440, Note_off_c, 3, 65, 64
8, 61440, Note_on_c, 3, 65, 50
8, 61560, Note_on_c, 3, 68, 51
8, 61800, Note_on_c, 3, 72, 53
8, 62040, Note_on_c, 3, 75, 56
8, 62280, Note_on_c, 3, 80, 58
8, 62400, Note_off_c, 3, 80, 64
8, 62400, Note_off_c, 3, 75, 64
8, 62400, Note_off_c, 3, 72, 64
8, 62400, Note_off_c, 3, 68, 64
8, 62400, Note_off_c, 3, 65, 64
8, 62400, Note_on_c, 3, 60, 50
8, 62520, Note_on_c, 3, 62, 51
8, 62760, Note_on_c, 3, 65, 53
8, 63000, Note_on_c, 3, 68, 56
8, 63240, Note_on_c, 3, 74, 58
8, 63360, Note_off_c, 3, 74, 64
8, 63360, Note_off_c, 3, 68, 64
8, 63360, Note_off_c, 3, 65, 64
8, 63360, Note_off_c, 3, 62, 64
8, 63360, Note_off_c, 3, 60, 64
8, 63360, Note_on_c, 3, 63, 50
8, 63480, Note_on_c, 3, 65, 51
8, 63720, Note_on_c, 3, 68, 53
8, 63960, Note_on_c, 3, 71, 56
8, 64200, Note_on_c, 3, 77, 58
8, 64320, Note_off_c, 3, 77, 64
8, 64320, Note_off_c, 3, 71, 64
8, 64320, Note_off_c, 3, 68, 64
8, 64320, Note_off_c, 3, 65, 64
8, 64320, Note_off_c, 3, 63, 64
8, 64320, Note_on_c, 3, 60, 50
8, 64440, Note_on_c, 3, 64, 51
8, 64680, Note_on_c, 3, 68, 53
8, 64920, Note_on_c, 3, 70, 56
8, 65160, Note_on_c, 3, 76, 58
8, 65280, Note_off_c, 3, 76, 64
8, 65280, Note_off_c, 3, 70, 64
8, 65280, Note_off_c, 3, 68, 64
8, 65280, Note_off_c, 3, 64, 64
8, 65280, Note_off_c, 3, 60, 64
8, 65280, Note_on_c, 3, 65, 50
8, 65400, Note_on_c, 3, 68, 51
8, 65640, Note_on_c, 3, 72, 53
8, 65880, Note_on_c, 3, 75, 56
8, 66120, Note_on_c, 3, 80, 58
8, 66240, Note_off_c, 3, 80, 64
8, 66240, Note_off_c, 3, 75, 64
8, 66240, Note_off_c, 3, 72, 64
8, 66240, Note_off_c, 3, 68, 64
8, 66240, Note_off_c, 3, 65, 64
8, 66240, Note_on_c, 3, 65, 50
8, 66360, Note_on_c, 3, 68, 51
8, 66600, Note_on_c, 3, 72, 53
8, 66720, Note_off_c, 3, 72, 64
8, 66720, Note_off_c, 3, 68, 64
8, 66720, Note_off_c, 3, 65, 64
8, 66720, Note_on_c, 3, 64, 50
8, 66840, Note_on_c, 3, 67, 51
8, 66960, Note_off_c, 3, 67, 64
8, 66960, Note_off_c, 3, 64, 64
8, 66960, Note_on_c, 3, 57, 50
8, 67080, Note_on_c, 3, 61, 51
8, 67200, Note_off_c, 3, 61, 64
8, 67200, Note_off_c, 3, 57, 64
8, 67200, Note_on_c, 3, 51, 60
8, 67260, Note_off_c, 3, 51, 64
8, 67320, Note_on_c, 3, 54, 60
8, 67380, Note_off_c, 3, 54, 64
8, 67440, Note_on_c, 3, 58, 60
8, 67500, Note_off_c, 3, 58, 64
8, 67560, Note_on_c, 3, 61, 60
8, 67620, Note_off_c, 3, 61, 64
8, 67680, Note_on_c, 3, 66, 60
8, 67740, Note_off_c, 3, 66, 64
8, 67800, Note_on_c, 3, 70, 60
8, 67860, Note_off_c, 3, 70, 64
8, 67920, Note_on_c, 3, 73, 60
8, 67980, Note_off_c, 3, 73, 64
8, 68040, Note_on_c, 3, 65, 60
8, 68100, Note_off_c, 3, 65, 64
8, 68160, Note_on_c, 3, 44, 60
8, 68220, Note_off_c, 3, 44, 64
8, 68280, Note_on_c, 3, 48, 60
8, 68340, Note_off_c, 3, 48, 64
8, 68400, Note_on_c, 3, 51, 60
8, 68460, Note_off_c, 3, 51, 64
8, 68520, Note_on_c, 3, 54, 60
8, 68580, Note_off_c, 3, 54, 64
8, 68640, Note_on_c, 3, 60, 60
8, 68700, Note_off_c, 3, 60, 64
8, 68760, Note_on_c, 3, 63, 60
8, 68820, Note_off_c, 3, 63, 64
8, 68880, Note_on_c, 3, 66, 60
8, 68940, Note_off_c, 3, 66, 64
8, 69000, Note_on_c, 3, 58, 60
8, 69060, Note_off_c, 3, 58, 64
8, 69120, Note_on_c, 3, 49, 60
8, 69180, Note_off_c, 3, 49, 64
8, 69240, Note_on_c, 3, 53, 60
8, 69300, Note_off_c, 3, 53, 64
8, 69360, Note_on_c, 3, 56, 60
8, 69420, Note_off_c, 3, 56, 64
8, 69480, Note_on_c, 3, 60, 60
8, 69540, Note_off_c, 3, 60, 64
8, 69600, Note_on_c, 3, 65, 60
8, 69660, Note_off_c, 3, 65, 64
8, 69720, Note_on_c, 3, 68, 60
8, 69780, Note_off_c, 3, 68, 64
8, 69840, Note_on_c, 3, 72, 60
8, 69900, Note_off_c, 3, 72, 64
8, 69960, Note_on_c, 3, 61, 60
8, 70020, Note_off_c, 3, 61, 64
8, 70080, Note_on_c, 3, 46, 60
8, 70140, Note_off_c, 3, 46, 64
8, 70200, Note_on_c, 3, 50, 60
8, 70260, Note_off_c, 3, 50, 64
8, 70320, Note_on_c, 3, 53, 60
8, 70380, Note_off_c, 3, 53, 64
8, 70440, Note_on_c, 3, 56, 60
8, 70500, Note_off_c, 3, 56, 64
8, 70560, Note_on_c, 3, 62, 60
8, 70620, Note_off_c, 3, 62, 64
8, 70680, Note_on_c, 3, 65, 60
8, 70740, Note_off_c, 3, 65, 64
8, 70800, Note_on_c, 3, 68, 60
8, 70860, Note_off_c, 3, 68, 64
8, 70920, Note_on_c, 3, 58, 60
8, 70980, Note_off_c, 3, 58, 64
8, 71040, Note_on_c, 3, 51, 60
8, 71100, Note_off_c, 3, 51, 64
8, 71160, Note_on_c, 3, 54, 60
8, 71220, Note_off_c, 3, 54, 64
8, 71280, Note_on_c, 3, 58, 60
8, 71340, Note_off_c, 3, 58, 64
8, 71400, Note_on_c, 3, 61, 60
8, 71460, Note_off_c, 3, 61, 64
8, 71520, Note_on_c, 3, 66, 60
8, 71580, Note_off_c, 3, 66, 64
8, 71640, Note_on_c, 3, 70, 60
8, 71700, Note_off_c, 3, 70, 64
8, 71760, Note_on_c, 3, 73, 60
8, 71820, Note_off_c, 3, 73, 64
8, 71880, Note_on_c, 3, 63, 60
8, 71940, Note_off_c, 3, 63, 64
8, 72000, Note_on_c, 3, 44, 60
8, 72060, Note_off_c, 3, 44, 64
8, 72120, Note_on_c, 3, 48, 60
8, 72180, Note_off_c, 3, 48, 64
8, 72240, Note_on_c, 3, 51, 60
8, 72300, Note_off_c, 3, 51, 64
8, 72360, Note_on_c, 3, 54, 60
8, 72420, Note_off_c, 3, 54, 64
8, 72480, Note_on_c, 3, 60, 60
8, 72540, Note_off_c, 3, 60, 64
8, 72600, Note_on_c, 3, 63, 60
8, 72660, Note_off_c, 3, 63, 64
8, 72720, Note_on_c, 3, 66, 60
8, 72780, Note_off_c, 3, 66, 64
8, 72840, Note_on_c, 3, 58, 60
8, 72900, Note_off_c, 3, 58, 64
8, 72960, Note_on_c, 3, 49, 60
8, 73020, Note_off_c, 3, 49, 64
8, 73080, Note_on_c, 3, 53, 60
8, 73140, Note_off_c, 3, 53, 64
8, 73200, Note_on_c, 3, 56, 60
8, 73260, Note_off_c, 3, 56, 64
8, 73320, Note_on_c, 3, 60, 60
8, 73380, Note_off_c, 3, 60, 64
8, 73440, Note_on_c, 3, 65, 60
8, 73500, Note_off_c, 3, 65, 64
8, 73560, Note_on_c, 3, 68, 60
8, 73620, Note_off_c, 3, 68, 64
8, 73680, Note_on_c, 3, 72, 60
8, 73740, Note_off_c, 3, 72, 64
8, 73800, Note_on_c, 3, 61, 60
8, 73860, Note_off_c, 3, 61, 64
8, 73920, Note_on_c, 3, 49, 60
8, 73980, Note_off_c, 3, 49, 64
8, 74040, Note_on_c, 3, 53, 60
8, 74100, Note_off_c, 3, 53, 64
8, 74160, Note_on_c, 3, 56, 60
8, 74220, Note_off_c, 3, 56, 64
8, 74280, Note_on_c, 3, 60, 60
8, 74340, Note_off_c, 3, 60, 64
8, 74400, Note_on_c, 3, 65, 60
8, 74460, Note_off_c, 3, 65, 64
8, 74520, Note_on_c, 3, 68, 60
8, 74580, Note_off_c, 3, 68, 64
8, 74640, Note_on_c, 3, 72, 60
8, 74700, Note_off_c, 3, 72, 64
8, 74760, Note_on_c, 3, 61, 60
8, 74820, Note_off_c, 3, 61, 64
8, 74880, Note_on_c, 3, 50, 60
8, 74940, Note_off_c, 3, 50, 64
8, 75000, Note_on_c, 3, 53, 60
8, 75060, Note_off_c, 3, 53, 64
8, 75120, Note_on_c, 3, 57, 60
8, 75180, Note_off_c, 3, 57, 64
8, 75240, Note_on_c, 3, 60, 60
8, 75300, Note_off_c, 3, 60, 64
8, 75360, Note_on_c, 3, 65, 60
8, 75420, Note_off_c, 3, 65, 64
8, 75480, Note_on_c, 3, 69, 60
8, 75540, Note_off_c, 3, 69, 64
8, 75600, Note_on_c, 3, 72, 60
8, 75660, Note_off_c, 3, 72, 64
8, 75720, Note_on_c, 3, 64, 60
8, 75780, Note_off_c, 3, 64, 64
8, 75840, Note_on_c, 3, 43, 60
8, 75900, Note_off_c, 3, 43, 64
8, 75960, Note_on_c, 3, 47, 60
8, 76020, Note_off_c, 3, 47, 64
8, 76080, Note_on_c, 3, 51, 60
8, 76140, Note_off_c, 3, 51, 64
8, 76200, Note_on_c, 3, 53, 60
8, 76260, Note_off_c, 3, 53, 64
8, 76320, Note_on_c, 3, 59, 60
8, 76380, Note_off_c, 3, 59, 64
8, 76440, Note_on_c, 3, 63, 60
8, 76500, Note_off_c, 3, 63, 64
8, 76560, Note_on_c, 3, 65, 60
8, 76620, Note_off_c, 3, 65, 64
8, 76680, Note_on_c, 3, 55, 60
8, 76740, Note_off_c, 3, 55, 64
8, 76800, Note_on_c, 3, 48, 60
8, 76860, Note_off_c, 3, 48, 64
8, 76920, Note_on_c, 3, 52, 60
8, 76980, Note_off_c, 3, 52, 64
8, 77040, Note_on_c, 3, 55, 60
8, 77100, Note_off_c, 3, 55, 64
8, 77160, Note_on_c, 3, 59, 60
8, 77220, Note_off_c, 3, 59, 64
8, 77280, Note_on_c, 3, 64, 60
8, 77340, Note_off_c, 3, 64, 64
8, 77400, Note_on_c, 3, 67, 60
8, 77460, Note_off_c, 3, 67, 64
8, 77520, Note_on_c, 3, 71, 60
8, 77580, Note_off_c, 3, 71, 64
8, 77640, Note_on_c, 3, 60, 60
8, 77700, Note_off_c, 3, 60, 64
8, 77760, Note_on_c, 3, 48, 60
8, 77820, Note_off_c, 3, 48, 64
8, 77880, Note_on_c, 3, 52, 60
8, 77940, Note_off_c, 3, 52, 64
8, 78000, Note_on_c, 3, 55, 60
8, 78060, Note_off_c, 3, 55, 64
8, 78120, Note_on_c, 3, 59, 60
8, 78180, Note_off_c, 3, 59, 64
8, 78240, Note_on_c, 3, 64, 60
8, 78300, Note_off_c, 3, 64, 64
8, 78360, Note_on_c, 3, 67, 60
8, 78420, Note_off_c, 3, 67, 64
8, 78480, Note_on_c, 3, 71, 60
8, 78540, Note_off_c, 3, 71, 64
8, 78600, Note_on_c, 3, 60, 60
8, 78660, Note_off_c, 3, 60, 64
8, 78720, Note_on_c, 3, 46, 60
8, 78780, Note_off_c, 3, 46, 64
8, 78840, Note_on_c, 3, 55, 60
8, 78900, Note_off_c, 3, 55, 64
8, 78960, Note_on_c, 3, 58, 60
8, 79020, Note_off_c, 3, 58, 64
8, 79080, Note_on_c, 3, 62, 60
8, 79140, Note_off_c, 3, 62, 64
8, 79200, Note_on_c, 3, 67, 60
8, 79260, Note_off_c, 3, 67, 64
8, 79320, Note_on_c, 3, 70, 60
8, 79380, Note_off_c, 3, 70, 64
8, 79440, Note_on_c, 3, 74, 60
8, 79500, Note_off_c, 3, 74, 64
8, 79560, Note_on_c, 3, 63, 60
8, 79620, Note_off_c, 3, 63, 64
8, 79680, Note_on_c, 3, 35, 60
8, 79740, Note_off_c, 3, 35, 64
8, 79800, Note_on_c, 3, 47, 60
8, 79860, Note_off_c, 3, 47, 64
8, 79920, Note_on_c, 3, 50, 60
8, 79980, Note_off_c, 3, 50, 64
8, 80040, Note_on_c, 3, 53, 60
8, 80100, Note_off_c, 3, 53, 64
8, 80160, Note_on_c, 3, 59, 60
8, 80220, Note_off_c, 3, 59, 64
8, 80280, Note_on_c, 3, 62, 60
8, 80340, Note_off_c, 3, 62, 64
8, 80400, Note_on_c, 3, 65, 60
8, 80460, Note_off_c, 3, 65, 64
8, 80520, Note_on_c, 3, 55, 60
8, 80580, Note_off_c, 3, 55, 64
8, 80640, Note_on_c, 3, 36, 60
8, 80700, Note_off_c, 3, 36, 64
8, 80760, Note_on_c, 3, 46, 60
8, 80820, Note_off_c, 3, 46, 64
8, 80880, Note_on_c, 3, 50, 60
8, 80940, Note_off_c, 3, 50, 64
8, 81000, Note_on_c, 3, 53, 60
8, 81060, Note_off_c, 3, 53, 64
8, 81120, Note_on_c, 3, 58, 60
8, 81180, Note_off_c, 3, 58, 64
8, 81240, Note_on_c, 3, 62, 60
8, 81300, Note_off_c, 3, 62, 64
8, 81360, Note_on_c, 3, 65, 60
8, 81420, Note_off_c, 3, 65, 64
8, 81480, Note_on_c, 3, 55, 60
8, 81540, Note_off_c, 3, 55, 64
8, 81600, Note_on_c, 3, 48, 60
8, 81660, Note_off_c, 3, 48, 64
8, 81720, Note_on_c, 3, 52, 60
8, 81780, Note_off_c, 3, 52, 64
8, 81840, Note_on_c, 3, 56, 60
8, 81900, Note_off_c, 3, 56, 64
8, 81960, Note_on_c, 3, 58, 60
8, 82020, Note_off_c, 3, 58, 64
8, 82080, Note_on_c, 3, 64, 60
8, 82140, Note_off_c, 3, 64, 64
8, 82200, Note_on_c, 3, 68, 60
8, 82260, Note_off_c, 3, 68, 64
8, 82320, Note_on_c, 3, 70, 60
8, 82380, Note_off_c, 3, 70, 64
8, 82440, Note_on_c, 3, 60, 60
8, 82500, Note_off_c, 3, 60, 64
8, 82560, Note_on_c, 3, 65, 50
8, 82680, Note_on_c, 3, 68, 51
8, 82920, Note_on_c, 3, 72, 53
8, 83160, Note_on_c, 3, 75, 56
8, 83400, Note_on_c, 3, 80, 58
8, 83520, Note_off_c, 3, 80, 64
8, 83520, Note_off_c, 3, 75, 64
8, 83520, Note_off_c, 3, 72, 64
8, 83520, Note_off_c, 3, 68, 64
8, 83520, Note_off_c, 3, 65, 64
8, 83520, Note_on_c, 3, 65, 50
8, 83640, Note_on_c, 3, 68, 51
8, 83880, Note_on_c, 3, 72, 53
8, 84120, Note_on_c, 3, 76, 56
8, 84360, Note_on_c, 3, 80, 58
8, 84480, Note_off_c, 3, 80, 64
8, 84480, Note_off_c, 3, 76, 64
8, 84480, Note_off_c, 3, 72, 64
8, 84480, Note_off_c, 3, 68, 64
8, 84480, Note_off_c, 3, 65, 64
8, 84480, Note_on_c, 3, 65, 50
8, 84600, Note_on_c, 3, 68, 51
8, 84840, Note_on_c, 3, 72, 53
8, 85080, Note_on_c, 3, 75, 56
8, 85320, Note_on_c, 3, 80, 58
8, 85440, Note_off_c, 3, 80, 64
8, 85440, Note_off_c, 3, 75, 64
8, 85440, Note_off_c, 3, 72, 64
8, 85440, Note_off_c, 3, 68, 64
8, 85440, Note_off_c, 3, 65, 64
8, 85440, Note_on_c, 3, 60, 50
8, 85560, Note_on_c, 3, 62, 51
8, 85800, Note_on_c, 3, 65, 53
8, 86040, Note_on_c, 3, 68, 56
8, 86280, Note_on_c, 3, 74, 58
8, 86400, Note_off_c, 3, 74, 64
8, 86400, Note_off_c, 3, 68, 64
8, 86400, Note_off_c, 3, 65, 64
8, 86400, Note_off_c, 3, 62, 64
8, 86400, Note_off_c, 3, 60, 64
8, 86400, Note_on_c, 3, 65, 50
8, 86520, Note_on_c, 3, 68, 51
8, 86760, Note_on_c, 3, 72, 53
8, 87000, Note_on_c, 3, 75, 56
8, 87240, Note_on_c, 3, 80, 58
8, 87360, Note_off_c, 3, 80, 64
8, 87360, Note_off_c, 3, 75, 64
8, 87360, Note_off_c, 3, 72, 64
8, 87360, Note_off_c, 3, 68, 64
8, 87360, Note_off_c, 3, 65, 64
8, 87360, Note_on_c, 3, 63, 50
8, 87480, Note_on_c, 3, 65, 51
8, 87720, Note_on_c, 3, 68, 53
8, 87960, Note_on_c, 3, 71, 56
8, 88200, Note_on_c, 3, 77, 58
8, 88320, Note_off_c, 3, 77, 64
8, 88320, Note_off_c, 3, 71, 64
8, 88320, Note_off_c, 3, 68, 64
8, 88320, Note_off_c, 3, 65, 64
8, 88320, Note_off_c, 3, 63, 64
8, 88320, Note_on_c, 3, 55, 50
8, 88440, Note_on_c, 3, 58, 51
8, 88680, Note_on_c, 3, 62, 53
8, 88920, Note_on_c, 3, 65, 56
8, 89160, Note_on_c, 3, 70, 58
8, 89280, Note_off_c, 3, 70, 64
8, 89280, Note_off_c, 3, 65, 64
8, 89280, Note_off_c, 3, 62, 64
8, 89280, Note_off_c, 3, 58, 64
8, 89280, Note_off_c, 3, 55, 64
8, 89280, Note_on_c, 3, 60, 50
8, 89400, Note_on_c, 3, 64, 51
8, 89640, Note_on_c, 3, 68, 53
8, 89880, Note_on_c, 3, 70, 56
8, 90120, Note_on_c, 3, 76, 58
8, 90240, Note_off_c, 3, 76, 64
8, 90240, Note_off_c, 3, 70, 64
8, 90240, Note_off_c, 3, 68, 64
8, 90240, Note_off_c, 3, 64, 64
8, 90240, Note_off_c, 3, 60, 64
8, 90240, Note_on_c, 3, 65, 50
8, 90360, Note_on_c, 3, 68, 51
8, 90600, Note_on_c, 3, 72, 53
8, 90840, Note_on_c, 3, 75, 56
8, 91080, Note_on_c, 3, 80, 58
8, 91200, Note_off_c, 3, 80, 64
8, 91200, Note_off_c, 3, 75, 64
8, 91200, Note_off_c, 3, 72, 64
8, 91200, Note_off_c, 3, 68, 64
8, 91200, Note_off_c, 3, 65, 64
8, 91200, Note_on_c, 3, 65, 50
8, 91320, Note_on_c, 3, 68, 51
8, 91560, Note_on_c, 3, 72, 53
8, 91800, Note_on_c, 3, 76, 56
8, 92040, Note_on_c, 3, 80, 58
8, 92160, Note_off_c, 3, 80, 64
8, 92160, Note_off_c, 3, 76, 64
8, 92160, Note_off_c, 3, 72, 64
8, 92160, Note_off_c, 3, 68, 64
8, 92160, Note_off_c, 3, 65, 64
8, 92160, Note_on_c, 3, 65, 50
8, 92280, Note_on_c, 3, 68, 51
8, 92520, Note_on_c, 3, 72, 53
8, 92760, Note_on_c, 3, 75, 56
8, 93000, Note_on_c, 3, 80, 58
8, 93120, Note_off_c, 3, 80, 64
8, 93120, Note_off_c, 3, 75, 64
8, 93120, Note_off_c, 3, 72, 64
8, 93120, Note_off_c, 3, 68, 64
8, 93120, Note_off_c, 3, 65, 64
8, 93120, Note_on_c, 3, 60, 50
8, 93240, Note_on_c, 3, 62, 51
8, 93480, Note_on_c, 3, 65, 53
8, 93720, Note_on_c, 3, 68, 56
8, 93960, Note_on_c, 3, 74, 58
8, 94080, Note_off_c, 3, 74, 64
8, 94080, Note_off_c, 3, 68, 64
8, 94080, Note_off_c, 3, 65, 64
8, 94080, Note_off_c, 3, 62, 64
8, 94080, Note_off_c, 3, 60, 64
8, 94080, Note_on_c, 3, 63, 50
8, 94200, Note_on_c, 3, 65, 51
8, 94440, Note_on_c, 3, 68, 53
8, 94680, Note_on_c, 3, 71, 56
8, 94920, Note_on_c, 3, 77, 58
8, 95040, Note_off_c, 3, 77, 64
8, 95040, Note_off_c, 3, 71, 64
8, 95040, Note_off_c, 3, 68, 64
8, 95040, Note_off_c, 3, 65, 64
8, 95040, Note_off_c, 3, 63, 64
8, 95040, Note_on_c, 3, 60, 50
8, 95160, Note_on_c, 3, 64, 51
8, 95400, Note_on_c, 3, 68, 53
8, 95640, Note_on_c, 3, 70, 56
8, 95880, Note_on_c, 3, 76, 58
8, 96000, Note_off_c, 3, 76, 64
8, 96000, Note_off_c, 3, 70, 64
8, 96000, Note_off_c, 3, 68, 64
8, 96000, Note_off_c, 3, 64, 64
8, 96000, Note_off_c, 3, 60, 64
8, 96000, Note_on_c, 3, 65, 50
8, 96120, Note_on_c, 3, 68, 51
8, 96360, Note_on_c, 3, 72, 53
8, 96600, Note_on_c, 3, 75, 56
8, 96840, Note_on_c, 3, 80, 58
8, 96960, Note_off_c, 3, 80, 64
8, 96960, Note_off_c, 3, 75, 64
8, 96960, Note_off_c, 3, 72, 64
8, 96960, Note_off_c, 3, 68, 64
8, 96960, Note_off_c, 3, 65, 64
8, 96960, Note_on_c, 3, 65, 65
8, 97060, Note_off_c, 3, 65, 64
8, 97080, Note_on_c, 3, 65, 80
8, 97760, Note_off_c, 3, 65, 64
8, 97920, Note_on_c, 3, 65, 50
8, 98040, Note_on_c, 3, 68, 51
8, 98280, Note_on_c, 3, 72, 53
8, 98520, Note_on_c, 3, 75, 56
8, 98760, Note_on_c, 3, 80, 58
8, 98880, Note_off_c, 3, 80, 64
8, 98880, Note_off_c, 3, 75, 64
8, 98880, Note_off_c, 3, 72, 64
8, 98880, Note_off_c, 3, 68, 64
8, 98880, Note_off_c, 3, 65, 64
8, 98880, Note_on_c, 3, 65, 50
8, 99000, Note_on_c, 3, 68, 51
8, 99240, Note_on_c, 3, 72, 53
8, 99480, Note_on_c, 3, 76, 56
8, 99720, Note_on_c, 3, 80, 58
8, 99840, Note_off_c, 3, 80, 64
8, 99840, Note_off_c, 3, 76, 64
8, 99840, Note_off_c, 3, 72, 64
8, 99840, Note_off_c, 3, 68, 64
8, 99840, Note_off_c, 3, 65, 64
8, 99840, Note_on_c, 3, 65, 50
8, 99960, Note_on_c, 3, 68, 51
8, 100200, Note_on_c, 3, 72, 53
8, 100440, Note_on_c, 3, 75, 56
8, 100680, Note_on_c, 3, 80, 58
8, 100800, Note_off_c, 3, 80, 64
8, 100800, Note_off_c, 3, 75, 64
8, 100800, Note_off_c, 3, 72, 64
8, 100800, Note_off_c, 3, 68, 64
8, 100800, Note_off_c, 3, 65, 64
8, 100800, Note_on_c, 3, 60, 50
8, 100920, Note_on_c, 3, 62, 51
8, 101160, Note_on_c, 3, 65, 53
8, 101400, Note_on_c, 3, 68, 56
8, 101640, Note_on_c, 3, 74, 58
8, 101760, Note_off_c, 3, 74, 64
8, 101760, Note_off_c, 3, 68, 64
8, 101760, Note_off_c, 3, 65, 64
8, 101760, Note_off_c, 3, 62, 64
8, 101760, Note_off_c, 3, 60, 64
8, 101760, Note_on_c, 3, 53, 60
8, 101820, Note_off_c, 3, 53, 64
8, 101880, Note_on_c, 3, 56, 60
8, 101940, Note_off_c, 3, 56, 64
8, 102000, Note_on_c, 3, 60, 60
8, 102060, Note_off_c, 3, 60, 64
8, 102120, Note_on_c, 3, 63, 60
8, 102180, Note_off_c, 3, 63, 64
8, 102240, Note_on_c, 3, 68, 60
8, 102300, Note_off_c, 3, 68, 64
8, 102360, Note_on_c, 3, 72, 60
8, 102420, Note_off_c, 3, 72, 64
8, 102480, Note_on_c, 3, 75, 60
8, 102540, Note_off_c, 3, 75, 64
8, 102600, Note_on_c, 3, 65, 60
8, 102660, Note_off_c, 3, 65, 64
8, 102720, Note_on_c, 3, 65, 60
8, 102720, Note_on_c, 3, 72, 60
8, 102840, Note_off_c, 3, 72, 64
8, 102840, Note_off_c, 3, 65, 64
8, 102960, Note_on_c, 3, 72, 60
8, 102960, Note_on_c, 3, 65, 60
8, 103020, Note_off_c, 3, 65, 64
8, 103020, Note_off_c, 3, 72, 64
8, 103080, Note_on_c, 3, 72, 60
8, 103080, Note_on_c, 3, 65, 60
8, 103140, Note_off_c, 3, 65, 64
8, 103140, Note_off_c, 3, 72, 64
8, 103200, Note_on_c, 3, 72, 60
8, 103200, Note_on_c, 3, 65, 60
8, 103260, Note_off_c, 3, 65, 64
8, 103260, Note_off_c, 3, 72, 64
8, 103680, Control_c, 3, 64, 0
8, 103680, End_track
9, 0, Start_track
9, 0, Title_t, "G.MIDI Vibraphone"
9, 0, Program_c, 4, 11
9, 0, Control_c, 4, 7, 90
9, 1, Pitch_bend_c, 4, 8192
9, 21120, Note_on_c, 4, 65, 57
9, 21240, Note_on_c, 4, 66, 58
9, 21480, Note_on_c, 4, 70, 60
9, 21720, Note_on_c, 4, 73, 63
9, 21960, Note_on_c, 4, 78, 65
9, 22080, Note_off_c, 4, 78, 64
9, 22080, Note_off_c, 4, 73, 64
9, 22080, Note_off_c, 4, 70, 64
9, 22080, Note_off_c, 4, 66, 64
9, 22080, Note_off_c, 4, 65, 64
9, 22080, Note_on_c, 4, 58, 57
9, 22200, Note_on_c, 4, 60, 58
9, 22440, Note_on_c, 4, 63, 60
9, 22680, Note_on_c, 4, 66, 63
9, 22920, Note_on_c, 4, 72, 65
9, 23040, Note_off_c, 4, 72, 64
9, 23040, Note_off_c, 4, 66, 64
9, 23040, Note_off_c, 4, 63, 64
9, 23040, Note_off_c, 4, 60, 64
9, 23040, Note_off_c, 4, 58, 64
9, 23040, Note_on_c, 4, 61, 57
9, 23160, Note_on_c, 4, 65, 58
9, 23400, Note_on_c, 4, 68, 60
9, 23640, Note_on_c, 4, 72, 63
9, 23880, Note_on_c, 4, 77, 65
9, 24000, Note_off_c, 4, 77, 64
9, 24000, Note_off_c, 4, 72, 64
9, 24000, Note_off_c, 4, 68, 64
9, 24000, Note_off_c, 4, 65, 64
9, 24000, Note_off_c, 4, 61, 64
9, 24000, Note_on_c, 4, 58, 57
9, 24120, Note_on_c, 4, 62, 58
9, 24360, Note_on_c, 4, 65, 60
9, 24600, Note_on_c, 4, 68, 63
9, 24840, Note_on_c, 4, 74, 65
9, 24960, Note_off_c, 4, 74, 64
9, 24960, Note_off_c, 4, 68, 64
9, 24960, Note_off_c, 4, 65, 64
9, 24960, Note_off_c, 4, 62, 64
9, 24960, Note_off_c, 4, 58, 64
9, 24960, Note_on_c, 4, 63, 57
9, 25080, Note_on_c, 4, 66, 58
9, 25320, Note_on_c, 4, 70, 60
9, 25560, Note_on_c, 4, 73, 63
9, 25800, Note_on_c, 4, 78, 65
9, 25920, Note_off_c, 4, 78, 64
9, 25920, Note_off_c, 4, 73, 64
9, 25920, Note_off_c, 4, 70, 64
9, 25920, Note_off_c, 4, 66, 64
9, 25920, Note_off_c, 4, 63, 64
9, 25920, Note_on_c, 4, 58, 57
9, 26040, Note_on_c, 4, 60, 58
9, 26280, Note_on_c, 4, 63, 60
9, 26520, Note_on_c, 4, 66, 63
9, 26760, Note_on_c, 4, 72, 65
9, 26880, Note_off_c, 4, 72, 64
9, 26880, Note_off_c, 4, 66, 64
9, 26880, Note_off_c, 4, 63, 64
9, 26880, Note_off_c, 4, 60, 64
9, 26880, Note_off_c, 4, 58, 64
9, 26880, Note_on_c, 4, 61, 57
9, 27000, Note_on_c, 4, 65, 58
9, 27240, Note_on_c, 4, 68, 60
9, 27480, Note_on_c, 4, 72, 63
9, 27720, Note_on_c, 4, 77, 65
9, 27960, Note_on_c, 4, 80, 68
9, 28200, Note_on_c, 4, 84, 70
9, 28364, Note_off_c, 4, 80, 64
9, 28440, Note_off_c, 4, 72, 64
9, 28440, Note_on_c, 4, 80, 73
9, 28560, Note_on_c, 4, 75, 74
9, 28800, Note_off_c, 4, 75, 64
9, 28800, Note_off_c, 4, 80, 64
9, 28800, Note_off_c, 4, 84, 64
9, 28800, Note_off_c, 4, 61, 64
9, 28800, Note_off_c, 4, 65, 64
9, 28800, Note_off_c, 4, 68, 64
9, 28800, Note_off_c, 4, 77, 64
9, 28800, Note_on_c, 4, 64, 57
9, 28920, Note_on_c, 4, 65, 58
9, 29160, Note_on_c, 4, 69, 60
9, 29400, Note_on_c, 4, 72, 63
9, 29640, Note_on_c, 4, 77, 65
9, 29760, Note_off_c, 4, 77, 64
9, 29760, Note_off_c, 4, 72, 64
9, 29760, Note_off_c, 4, 69, 64
9, 29760, Note_off_c, 4, 65, 64
9, 29760, Note_off_c, 4, 64, 64
9, 29760, Note_on_c, 4, 55, 57
9, 29880, Note_on_c, 4, 59, 58
9, 30120, Note_on_c, 4, 63, 60
9, 30360, Note_on_c, 4, 65, 63
9, 30600, Note_on_c, 4, 71, 65
9, 30720, Note_off_c, 4, 71, 64
9, 30720, Note_off_c, 4, 65, 64
9, 30720, Note_off_c, 4, 63, 64
9, 30720, Note_off_c, 4, 59, 64
9, 30720, Note_off_c, 4, 55, 64
9, 30720, Note_on_c, 4, 60, 57
9, 30840, Note_on_c, 4, 64, 58
9, 31080, Note_on_c, 4, 67, 60
9, 31320, Note_on_c, 4, 71, 63
9, 31560, Note_on_c, 4, 76, 65
9, 31800, Note_on_c, 4, 79, 68
9, 32040, Note_on_c, 4, 83, 70
9, 32204, Note_off_c, 4, 79, 64
9, 32280, Note_off_c, 4, 71, 64
9, 32280, Note_on_c, 4, 79, 73
9, 32400, Note_on_c, 4, 74, 74
9, 32640, Note_off_c, 4, 74, 64
9, 32640, Note_off_c, 4, 79, 64
9, 32640, Note_off_c, 4, 83, 64
9, 32640, Note_off_c, 4, 60, 64
9, 32640, Note_off_c, 4, 64, 64
9, 32640, Note_off_c, 4, 67, 64
9, 32640, Note_off_c, 4, 76, 64
9, 32640, Note_on_c, 4, 63, 57
9, 32760, Note_on_c, 4, 67, 58
9, 33000, Note_on_c, 4, 70, 60
9, 33240, Note_on_c, 4, 74, 63
9, 33480, Note_on_c, 4, 79, 65
9, 33600, Note_off_c, 4, 79, 64
9, 33600, Note_off_c, 4, 74, 64
9, 33600, Note_off_c, 4, 70, 64
9, 33600, Note_off_c, 4, 67, 64
9, 33600, Note_off_c, 4, 63, 64
9, 33600, Note_on_c, 4, 55, 57
9, 33720, Note_on_c, 4, 59, 58
9, 33960, Note_on_c, 4, 62, 60
9, 34200, Note_on_c, 4, 65, 63
9, 34440, Note_on_c, 4, 71, 65
9, 34560, Note_off_c, 4, 71, 64
9, 34560, Note_off_c, 4, 65, 64
9, 34560, Note_off_c, 4, 62, 64
9, 34560, Note_off_c, 4, 59, 64
9, 34560, Note_off_c, 4, 55, 64
9, 34560, Note_on_c, 4, 55, 57
9, 34680, Note_on_c, 4, 58, 58
9, 34920, Note_on_c, 4, 62, 60
9, 35160, Note_on_c, 4, 65, 63
9, 35400, Note_on_c, 4, 70, 65
9, 35520, Note_off_c, 4, 70, 64
9, 35520, Note_off_c, 4, 65, 64
9, 35520, Note_off_c, 4, 62, 64
9, 35520, Note_off_c, 4, 58, 64
9, 35520, Note_off_c, 4, 55, 64
9, 35520, Note_on_c, 4, 60, 57
9, 35640, Note_on_c, 4, 64, 58
9, 35880, Note_on_c, 4, 68, 60
9, 36120, Note_on_c, 4, 70, 63
9, 36360, Note_on_c, 4, 76, 65
9, 36480, Note_off_c, 4, 76, 64
9, 36480, Note_off_c, 4, 70, 64
9, 36480, Note_off_c, 4, 68, 64
9, 36480, Note_off_c, 4, 64, 64
9, 36480, Note_off_c, 4, 60, 64
9, 67200, Note_on_c, 4, 65, 57
9, 67320, Note_on_c, 4, 66, 58
9, 67560, Note_on_c, 4, 70, 60
9, 67800, Note_on_c, 4, 73, 63
9, 68040, Note_on_c, 4, 78, 65
9, 68160, Note_off_c, 4, 78, 64
9, 68160, Note_off_c, 4, 73, 64
9, 68160, Note_off_c, 4, 70, 64
9, 68160, Note_off_c, 4, 66, 64
9, 68160, Note_off_c, 4, 65, 64
9, 68160, Note_on_c, 4, 58, 57
9, 68280, Note_on_c, 4, 60, 58
9, 68520, Note_on_c, 4, 63, 60
9, 68760, Note_on_c, 4, 66, 63
9, 69000, Note_on_c, 4, 72, 65
9, 69120, Note_off_c, 4, 72, 64
9, 69120, Note_off_c, 4, 66, 64
9, 69120, Note_off_c, 4, 63, 64
9, 69120, Note_off_c, 4, 60, 64
9, 69120, Note_off_c, 4, 58, 64
9, 69120, Note_on_c, 4, 61, 57
9, 69240, Note_on_c, 4, 65, 58
9, 69480, Note_on_c, 4, 68, 60
9, 69720, Note_on_c, 4, 72, 63
9, 69960, Note_on_c, 4, 77, 65
9, 70080, Note_off_c, 4, 77, 64
9, 70080, Note_off_c, 4, 72, 64
9, 70080, Note_off_c, 4, 68, 64
9, 70080, Note_off_c, 4, 65, 64
9, 70080, Note_off_c, 4, 61, 64
9, 70080, Note_on_c, 4, 58, 57
9, 70200, Note_on_c, 4, 62, 58
9, 70440, Note_on_c, 4, 65, 60
9, 70680, Note_on_c, 4, 68, 63
9, 70920, Note_on_c, 4, 74, 65
9, 71040, Note_off_c, 4, 74, 64
9, 71040, Note_off_c, 4, 68, 64
9, 71040, Note_off_c, 4, 65, 64
9, 71040, Note_off_c, 4, 62, 64
9, 71040, Note_off_c, 4, 58, 64
9, 71040, Note_on_c, 4, 63, 57
9, 71160, Note_on_c, 4, 66, 58
9, 71400, Note_on_c, 4, 70, 60
9, 71640, Note_on_c, 4, 73, 63
9, 71880, Note_on_c, 4, 78, 65
9, 72000, Note_off_c, 4, 78, 64
9, 72000, Note_off_c, 4, 73, 64
9, 72000, Note_off_c, 4, 70, 64
9, 72000, Note_off_c, 4, 66, 64
9, 72000, Note_off_c, 4, 63, 64
9, 72000, Note_on_c, 4, 58, 57
9, 72120, Note_on_c, 4, 60, 58
9, 72360, Note_on_c, 4, 63, 60
9, 72600, Note_on_c, 4, 66, 63
9, 72840, Note_on_c, 4, 72, 65
9, 72960, Note_off_c, 4, 72, 64
9, 72960, Note_off_c, 4, 66, 64
9, 72960, Note_off_c, 4, 63, 64
9, 72960, Note_off_c, 4, 60, 64
9, 72960, Note_off_c, 4, 58, 64
9, 72960, Note_on_c, 4, 61, 57
9, 73080, Note_on_c, 4, 65, 58
9, 73320, Note_on_c, 4, 68, 60
9, 73560, Note_on_c, 4, 72, 63
9, 73800, Note_on_c, 4, 77, 65
9, 74040, Note_on_c, 4, 80, 68
9, 74280, Note_on_c, 4, 84, 70
9, 74444, Note_off_c, 4, 80, 64
9, 74520, Note_off_c, 4, 72, 64
9, 74520, Note_on_c, 4, 80, 73
9, 74640, Note_on_c, 4, 75, 74
9, 74880, Note_off_c, 4, 75, 64
9, 74880, Note_off_c, 4, 80, 64
9, 74880, Note_off_c, 4, 84, 64
9, 74880, Note_off_c, 4, 61, 64
9, 74880, Note_off_c, 4, 65, 64
9, 74880, Note_off_c, 4, 68, 64
9, 74880, Note_off_c, 4, 77, 64
9, 74880, Note_on_c, 4, 64, 57
9, 75000, Note_on_c, 4, 65, 58
9, 75240, Note_on_c, 4, 69, 60
9, 75480, Note_on_c, 4, 72, 63
9, 75720, Note_on_c, 4, 77, 65
9, 75840, Note_off_c, 4, 77, 64
9, 75840, Note_off_c, 4, 72, 64
9, 75840, Note_off_c, 4, 69, 64
9, 75840, Note_off_c, 4, 65, 64
9, 75840, Note_off_c, 4, 64, 64
9, 75840, Note_on_c, 4, 55, 57
9, 75960, Note_on_c, 4, 59, 58
9, 76200, Note_on_c, 4, 63, 60
9, 76440, Note_on_c, 4, 65, 63
9, 76680, Note_on_c, 4, 71, 65
9, 76800, Note_off_c, 4, 71, 64
9, 76800, Note_off_c, 4, 65, 64
9, 76800, Note_off_c, 4, 63, 64
9, 76800, Note_off_c, 4, 59, 64
9, 76800, Note_off_c, 4, 55, 64
9, 76800, Note_on_c, 4, 60, 57
9, 76920, Note_on_c, 4, 64, 58
9, 77160, Note_on_c, 4, 67, 60
9, 77400, Note_on_c, 4, 71, 63
9, 77640, Note_on_c, 4, 76, 65
9, 77880, Note_on_c, 4, 79, 68
9, 78120, Note_on_c, 4, 83, 70
9, 78284, Note_off_c, 4, 79, 64
9, 78360, Note_off_c, 4, 71, 64
9, 78360, Note_on_c, 4, 79, 73
9, 78480, Note_on_c, 4, 74, 74
9, 78720, Note_off_c, 4, 74, 64
9, 78720, Note_off_c, 4, 79, 64
9, 78720, Note_off_c, 4, 83, 64
9, 78720, Note_off_c, 4, 60, 64
9, 78720, Note_off_c, 4, 64, 64
9, 78720, Note_off_c, 4, 67, 64
9, 78720, Note_off_c, 4, 76, 64
9, 78720, Note_on_c, 4, 63, 57
9, 78840, Note_on_c, 4, 67, 58
9, 79080, Note_on_c, 4, 70, 60
9, 79320, Note_on_c, 4, 74, 63
9, 79560, Note_on_c, 4, 79, 65
9, 79680, Note_off_c, 4, 79, 64
9, 79680, Note_off_c, 4, 74, 64
9, 79680, Note_off_c, 4, 70, 64
9, 79680, Note_off_c, 4, 67, 64
9, 79680, Note_off_c, 4, 63, 64
9, 79680, Note_on_c, 4, 55, 57
9, 79800, Note_on_c, 4, 59, 58
9, 80040, Note_on_c, 4, 62, 60
9, 80280, Note_on_c, 4, 65, 63
9, 80520, Note_on_c, 4, 71, 65
9, 80640, Note_off_c, 4, 71, 64
9, 80640, Note_off_c, 4, 65, 64
9, 80640, Note_off_c, 4, 62, 64
9, 80640, Note_off_c, 4, 59, 64
9, 80640, Note_off_c, 4, 55, 64
9, 80640, Note_on_c, 4, 55, 57
9, 80760, Note_on_c, 4, 58, 58
9, 81000, Note_on_c, 4, 62, 60
9, 81240, Note_on_c, 4, 65, 63
9, 81480, Note_on_c, 4, 70, 65
9, 81600, Note_off_c, 4, 70, 64
9, 81600, Note_off_c, 4, 65, 64
9, 81600, Note_off_c, 4, 62, 64
9, 81600, Note_off_c, 4, 58, 64
9, 81600, Note_off_c, 4, 55, 64
9, 81600, Note_on_c, 4, 60, 57
9, 81720, Note_on_c, 4, 64, 58
9, 81960, Note_on_c, 4, 68, 60
9, 82200, Note_on_c, 4, 70, 63
9, 82440, Note_on_c, 4, 76, 65
9, 82560, Note_off_c, 4, 76, 64
9, 82560, Note_off_c, 4, 70, 64
9, 82560, Note_off_c, 4, 68, 64
9, 82560, Note_off_c, 4, 64, 64
9, 82560, Note_off_c, 4, 60, 64
9, 101760, Note_on_c, 4, 65, 50
9, 101880, Note_on_c, 4, 68, 51
9, 102120, Note_on_c, 4, 72, 55
9, 102360, Note_on_c, 4, 75, 59
9, 102600, Note_on_c, 4, 80, 63
9, 102700, Note_off_c, 4, 65, 64
9, 102702, Note_off_c, 4, 68, 64
9, 102708, Note_off_c, 4, 72, 64
9, 102712, Note_off_c, 4, 75, 64
9, 102716, Note_off_c, 4, 80, 64
9, 102720, Note_on_c, 4, 84, 68
9, 102720, Note_on_c, 4, 65, 68
9, 102720, Note_on_c, 4, 72, 68
9, 102720, Note_on_c, 4, 87, 68
9, 102720, Note_on_c, 4, 68, 68
9, 102720, Note_on_c, 4, 75, 68
9, 102840, Note_off_c, 4, 75, 64
9, 102840, Note_off_c, 4, 68, 64
9, 102840, Note_off_c, 4, 87, 64
9, 102840, Note_off_c, 4, 72, 64
9, 102840, Note_off_c, 4, 65, 64
9, 102840, Note_off_c, 4, 84, 64
9, 102960, Note_on_c, 4, 68, 72
9, 102960, Note_on_c, 4, 65, 72
9, 102960, Note_on_c, 4, 84, 72
9, 102960, Note_on_c, 4, 75, 72
9, 102960, Note_on_c, 4, 87, 72
9, 102960, Note_on_c, 4, 72, 72
9, 103020, Note_off_c, 4, 72, 64
9, 103020, Note_off_c, 4, 87, 64
9, 103020, Note_off_c, 4, 75, 64
9, 103020, Note_off_c, 4, 84, 64
9, 103020, Note_off_c, 4, 65, 64
9, 103020, Note_off_c, 4, 68, 64
9, 103080, Note_on_c, 4, 75, 74
9, 103080, Note_on_c, 4, 87, 74
9, 103080, Note_on_c, 4, 68, 74
9, 103080, Note_on_c, 4, 65, 74
9, 103080, Note_on_c, 4, 72, 74
9, 103080, Note_on_c, 4, 84, 74
9, 103140, Note_off_c, 4, 84, 64
9, 103140, Note_off_c, 4, 72, 64
9, 103140, Note_off_c, 4, 65, 64
9, 103140, Note_off_c, 4, 68, 64
9, 103140, Note_off_c, 4, 87, 64
9, 103140, Note_off_c, 4, 75, 64
9, 103200, Note_on_c, 4, 87, 76
9, 103200, Note_on_c, 4, 84, 76
9, 103200, Note_on_c, 4, 65, 76
9, 103200, Note_on_c, 4, 75, 76
9, 103200, Note_on_c, 4, 68, 76
9, 103200, Note_on_c, 4, 72, 76
9, 103260, Note_off_c, 4, 72, 64
9, 103260, Note_off_c, 4, 68, 64
9, 103260, Note_off_c, 4, 75, 64
9, 103260, Note_off_c, 4, 65, 64
9, 103260, Note_off_c, 4, 84, 64
9, 103260, Note_off_c, 4, 87, 64
9, 103680, Control_c, 4, 64, 0
9, 103680, End_track
10, 0, Start_track
10, 0, Title_t, "Melody (Acou Grand Piano)"
10, 0, Program_c, 5, 0
10, 0, Control_c, 5, 7, 110
10, 1, Pitch_bend_c, 5, 8192
10, 6018, Note_on_c, 5, 65, 105
10, 6122, Note_on_c, 5, 67, 100
10, 6134, Note_off_c, 5, 65, 64
10, 6240, Note_on_c, 5, 68, 89
10, 6258, Note_off_c, 5, 67, 64
10, 6372, Note_on_c, 5, 70, 95
10, 6392, Note_off_c, 5, 68, 64
10, 6600, Note_off_c, 5, 70, 64
10, 6612, Note_on_c, 5, 72, 100
10, 6848, Note_off_c, 5, 72, 64
10, 6854, Note_on_c, 5, 79, 100
10, 7332, Note_on_c, 5, 77, 102
10, 7350, Note_off_c, 5, 79, 64
10, 7510, Note_on_c, 5, 72, 102
10, 7512, Note_off_c, 5, 77, 64
10, 7692, Note_on_c, 5, 68, 100
10, 7710, Note_off_c, 5, 72, 64
10, 7912, Note_on_c, 5, 70, 80
10, 7926, Note_off_c, 5, 68, 64
10, 7996, Note_off_c, 5, 70, 64
10, 8046, Note_on_c, 5, 72, 80
10, 8276, Note_off_c, 5, 72, 64
10, 8294, Note_on_c, 5, 68, 98
10, 8516, Note_off_c, 5, 68, 64
10, 8522, Note_on_c, 5, 65, 105
10, 9544, Note_off_c, 5, 65, 64
10, 10102, Note_on_c, 5, 68, 116
10, 10206, Note_off_c, 5, 68, 64
10, 10212, Note_on_c, 5, 67, 82
10, 10324, Note_on_c, 5, 68, 64
10, 10344, Note_off_c, 5, 67, 64
10, 10468, Note_on_c, 5, 75, 82
10, 10488, Note_off_c, 5, 68, 64
10, 11082, Note_off_c, 5, 75, 64
10, 11172, Note_on_c, 5, 77, 91
10, 11522, Note_on_c, 5, 72, 93
10, 11534, Note_off_c, 5, 77, 64
10, 13004, Note_off_c, 5, 72, 64
10, 13556, Note_on_c, 5, 72, 100
10, 13672, Note_off_c, 5, 72, 64
10, 13690, Note_on_c, 5, 65, 98
10, 13794, Note_on_c, 5, 67, 95
10, 13800, Note_off_c, 5, 65, 64
10, 13920, Note_on_c, 5, 68, 74
10, 13942, Note_off_c, 5, 67, 64
10, 14054, Note_on_c, 5, 70, 98
10, 14072, Note_off_c, 5, 68, 64
10, 14292, Note_on_c, 5, 72, 89
10, 14294, Note_off_c, 5, 70, 64
10, 14528, Note_off_c, 5, 72, 64
10, 14528, Note_on_c, 5, 79, 85
10, 15014, Note_on_c, 5, 77, 95
10, 15028, Note_off_c, 5, 79, 64
10, 15176, Note_on_c, 5, 72, 85
10, 15180, Note_off_c, 5, 77, 64
10, 15372, Note_on_c, 5, 68, 91
10, 15388, Note_off_c, 5, 72, 64
10, 15584, Note_off_c, 5, 68, 64
10, 15596, Note_on_c, 5, 70, 76
10, 15698, Note_off_c, 5, 70, 64
10, 15728, Note_on_c, 5, 72, 100
10, 15952, Note_off_c, 5, 72, 64
10, 15964, Note_on_c, 5, 68, 93
10, 16164, Note_off_c, 5, 68, 64
10, 16214, Note_on_c, 5, 77, 91
10, 17020, Note_off_c, 5, 77, 64
10, 17160, Note_on_c, 5, 65, 93
10, 17268, Note_off_c, 5, 65, 64
10, 17294, Note_on_c, 5, 68, 98
10, 17862, Note_off_c, 5, 68, 64
10, 17888, Note_on_c, 5, 70, 82
10, 17970, Note_off_c, 5, 70, 64
10, 18014, Note_on_c, 5, 68, 66
10, 18070, Note_off_c, 5, 68, 64
10, 18132, Note_on_c, 5, 70, 76
10, 18162, Note_off_c, 5, 70, 64
10, 18162, Note_on_c, 5, 71, 100
10, 18288, Note_off_c, 5, 71, 64
10, 18370, Note_on_c, 5, 70, 93
10, 18968, Note_off_c, 5, 70, 64
10, 18974, Note_on_c, 5, 68, 87
10, 19098, Note_on_c, 5, 65, 98
10, 19102, Note_off_c, 5, 68, 64
10, 20550, Note_off_c, 5, 65, 64
10, 21372, Note_on_c, 5, 73, 85
10, 21454, Note_off_c, 5, 73, 64
10, 21484, Note_on_c, 5, 75, 82
10, 21572, Note_off_c, 5, 75, 64
10, 21610, Note_on_c, 5, 77, 87
10, 21806, Note_off_c, 5, 77, 64
10, 21838, Note_on_c, 5, 78, 102
10, 21918, Note_off_c, 5, 78, 64
10, 21978, Note_on_c, 5, 77, 87
10, 22100, Note_off_c, 5, 77, 64
10, 22202, Note_on_c, 5, 75, 100
10, 22442, Note_off_c, 5, 75, 64
10, 22450, Note_on_c, 5, 73, 102
10, 22646, Note_off_c, 5, 73, 64
10, 22700, Note_on_c, 5, 75, 85
10, 22884, Note_off_c, 5, 75, 64
10, 22928, Note_on_c, 5, 77, 93
10, 23170, Note_on_c, 5, 68, 89
10, 23172, Note_off_c, 5, 77, 64
10, 23338, Note_off_c, 5, 68, 64
10, 23420, Note_on_c, 5, 68, 93
10, 24846, Note_off_c, 5, 68, 64
10, 25084, Note_on_c, 5, 68, 85
10, 25160, Note_off_c, 5, 68, 64
10, 25202, Note_on_c, 5, 73, 80
10, 25272, Note_off_c, 5, 73, 64
10, 25318, Note_on_c, 5, 75, 82
10, 25390, Note_off_c, 5, 75, 64
10, 25442, Note_on_c, 5, 77, 89
10, 25630, Note_off_c, 5, 77, 64
10, 25678, Note_on_c, 5, 78, 95
10, 25742, Note_off_c, 5, 78, 64
10, 25818, Note_on_c, 5, 77, 85
10, 25912, Note_off_c, 5, 77, 64
10, 26050, Note_on_c, 5, 75, 98
10, 26382, Note_off_c, 5, 75, 64
10, 26400, Note_on_c, 5, 73, 102
10, 26520, Note_off_c, 5, 73, 64
10, 26642, Note_on_c, 5, 80, 102
10, 26784, Note_on_c, 5, 77, 95
10, 26788, Note_off_c, 5, 80, 64
10, 28274, Note_off_c, 5, 77, 64
10, 28676, Note_on_c, 5, 77, 78
10, 28802, Note_off_c, 5, 77, 64
10, 28802, Note_on_c, 5, 74, 102
10, 29016, Note_off_c, 5, 74, 64
10, 29050, Note_on_c, 5, 76, 85
10, 29124, Note_off_c, 5, 76, 64
10, 29178, Note_on_c, 5, 77, 87
10, 29406, Note_off_c, 5, 77, 64
10, 29408, Note_on_c, 5, 79, 89
10, 29650, Note_on_c, 5, 80, 100
10, 29654, Note_off_c, 5, 79, 64
10, 29868, Note_off_c, 5, 80, 64
10, 29892, Note_on_c, 5, 79, 85
10, 30306, Note_off_c, 5, 79, 64
10, 30376, Note_on_c, 5, 79, 98
10, 30488, Note_off_c, 5, 79, 64
10, 30554, Note_on_c, 5, 79, 87
10, 30664, Note_off_c, 5, 79, 64
10, 30730, Note_on_c, 5, 79, 85
10, 30982, Note_off_c, 5, 79, 64
10, 31088, Note_on_c, 5, 67, 95
10, 31202, Note_off_c, 5, 67, 64
10, 31254, Note_on_c, 5, 67, 102
10, 31370, Note_off_c, 5, 67, 64
10, 31422, Note_on_c, 5, 67, 91
10, 31534, Note_off_c, 5, 67, 64
10, 31578, Note_on_c, 5, 67, 78
10, 32336, Note_off_c, 5, 67, 64
10, 32408, Note_on_c, 5, 67, 100
10, 32534, Note_off_c, 5, 67, 64
10, 32536, Note_on_c, 5, 70, 105
10, 33360, Note_off_c, 5, 70, 64
10, 33366, Note_on_c, 5, 67, 85
10, 33476, Note_off_c, 5, 67, 64
10, 33502, Note_on_c, 5, 71, 100
10, 34314, Note_off_c, 5, 71, 64
10, 34326, Note_on_c, 5, 67, 110
10, 34464, Note_off_c, 5, 67, 64
10, 34568, Note_on_c, 5, 72, 102
10, 34800, Note_off_c, 5, 72, 64
10, 34808, Note_on_c, 5, 74, 91
10, 34884, Note_off_c, 5, 74, 64
10, 34934, Note_on_c, 5, 70, 95
10, 35126, Note_off_c, 5, 70, 64
10, 35164, Note_on_c, 5, 72, 107
10, 35392, Note_off_c, 5, 72, 64
10, 35410, Note_on_c, 5, 67, 102
10, 36314, Note_off_c, 5, 67, 64
10, 36728, Note_on_c, 5, 65, 80
10, 36844, Note_on_c, 5, 67, 85
10, 36864, Note_off_c, 5, 65, 64
10, 36972, Note_on_c, 5, 68, 91
10, 36988, Note_off_c, 5, 67, 64
10, 37112, Note_on_c, 5, 70, 95
10, 37132, Note_off_c, 5, 68, 64
10, 37328, Note_off_c, 5, 70, 64
10, 37332, Note_on_c, 5, 72, 68
10, 37576, Note_off_c, 5, 72, 64
10, 37578, Note_on_c, 5, 79, 85
10, 37812, Note_on_c, 5, 77, 89
10, 37824, Note_off_c, 5, 79, 64
10, 38048, Note_on_c, 5, 72, 89
10, 38054, Note_off_c, 5, 77, 64
10, 38238, Note_on_c, 5, 70, 102
10, 38252, Note_off_c, 5, 72, 64
10, 38402, Note_off_c, 5, 70, 64
10, 38408, Note_on_c, 5, 68, 98
10, 38650, Note_on_c, 5, 70, 80
10, 38666, Note_off_c, 5, 68, 64
10, 38730, Note_off_c, 5, 70, 64
10, 38782, Note_on_c, 5, 72, 93
10, 38982, Note_off_c, 5, 72, 64
10, 39006, Note_on_c, 5, 68, 72
10, 39244, Note_off_c, 5, 68, 64
10, 39246, Note_on_c, 5, 65, 91
10, 40322, Note_off_c, 5, 65, 64
10, 40690, Note_on_c, 5, 65, 78
10, 40796, Note_off_c, 5, 65, 64
10, 40810, Note_on_c, 5, 68, 113
10, 40916, Note_off_c, 5, 68, 64
10, 40924, Note_on_c, 5, 67, 100
10, 41010, Note_off_c, 5, 67, 64
10, 41044, Note_on_c, 5, 68, 105
10, 41108, Note_off_c, 5, 68, 64
10, 41184, Note_on_c, 5, 75, 87
10, 41888, Note_off_c, 5, 75, 64
10, 41892, Note_on_c, 5, 77, 85
10, 42238, Note_off_c, 5, 77, 64
10, 42244, Note_on_c, 5, 72, 98
10, 43526, Note_off_c, 5, 72, 64
10, 44286, Note_on_c, 5, 65, 72
10, 44340, Note_off_c, 5, 65, 64
10, 44404, Note_on_c, 5, 65, 85
10, 44518, Note_off_c, 5, 65, 64
10, 44524, Note_on_c, 5, 67, 100
10, 44606, Note_off_c, 5, 67, 64
10, 44654, Note_on_c, 5, 68, 100
10, 44776, Note_off_c, 5, 68, 64
10, 44790, Note_on_c, 5, 70, 102
10, 44998, Note_off_c, 5, 70, 64
10, 45010, Note_on_c, 5, 72, 98
10, 45242, Note_off_c, 5, 72, 64
10, 45248, Note_on_c, 5, 79, 87
10, 45594, Note_on_c, 5, 77, 98
10, 45600, Note_off_c, 5, 79, 64
10, 45832, Note_off_c, 5, 77, 64
10, 45838, Note_on_c, 5, 72, 98
10, 46090, Note_on_c, 5, 68, 100
10, 46114, Note_off_c, 5, 72, 64
10, 46312, Note_on_c, 5, 70, 93
10, 46332, Note_off_c, 5, 68, 64
10, 46444, Note_off_c, 5, 70, 64
10, 46454, Note_on_c, 5, 72, 102
10, 46686, Note_off_c, 5, 72, 64
10, 46690, Note_on_c, 5, 68, 102
10, 46928, Note_off_c, 5, 68, 64
10, 46940, Note_on_c, 5, 77, 102
10, 47748, Note_off_c, 5, 77, 64
10, 47884, Note_on_c, 5, 65, 105
10, 47968, Note_off_c, 5, 65, 64
10, 48008, Note_on_c, 5, 68, 105
10, 48588, Note_off_c, 5, 68, 64
10, 48608, Note_on_c, 5, 70, 102
10, 48694, Note_off_c, 5, 70, 64
10, 48718, Note_on_c, 5, 68, 85
10, 48782, Note_off_c, 5, 68, 64
10, 48844, Note_on_c, 5, 70, 82
10, 48860, Note_on_c, 5, 71, 98
10, 48884, Note_off_c, 5, 70, 64
10, 48990, Note_off_c, 5, 71, 64
10, 49088, Note_on_c, 5, 70, 102
10, 49664, Note_off_c, 5, 70, 64
10, 49684, Note_on_c, 5, 68, 100
10, 49806, Note_off_c, 5, 68, 64
10, 49820, Note_on_c, 5, 65, 91
10, 51590, Note_off_c, 5, 65, 64
10, 52098, Note_on_c, 5, 65, 105
10, 52202, Note_on_c, 5, 67, 100
10, 52214, Note_off_c, 5, 65, 64
10, 52320, Note_on_c, 5, 68, 89
10, 52338, Note_off_c, 5, 67, 64
10, 52452, Note_on_c, 5, 70, 95
10, 52472, Note_off_c, 5, 68, 64
10, 52680, Note_off_c, 5, 70, 64
10, 52692, Note_on_c, 5, 72, 100
10, 52928, Note_off_c, 5, 72, 64
10, 52934, Note_on_c, 5, 79, 100
10, 53412, Note_on_c, 5, 77, 102
10, 53430, Note_off_c, 5, 79, 64
10, 53590, Note_on_c, 5, 72, 102
10, 53592, Note_off_c, 5, 77, 64
10, 53772, Note_on_c, 5, 68, 100
10, 53790, Note_off_c, 5, 72, 64
10, 53992, Note_on_c, 5, 70, 80
10, 54006, Note_off_c, 5, 68, 64
10, 54076, Note_off_c, 5, 70, 64
10, 54126, Note_on_c, 5, 72, 80
10, 54356, Note_off_c, 5, 72, 64
10, 54374, Note_on_c, 5, 68, 98
10, 54596, Note_off_c, 5, 68, 64
10, 54602, Note_on_c, 5, 65, 105
10, 55624, Note_off_c, 5, 65, 64
10, 56182, Note_on_c, 5, 68, 116
10, 56286, Note_off_c, 5, 68, 64
10, 56292, Note_on_c, 5, 67, 82
10, 56404, Note_on_c, 5, 68, 64
10, 56424, Note_off_c, 5, 67, 64
10, 56548, Note_on_c, 5, 75, 82
10, 56568, Note_off_c, 5, 68, 64
10, 57162, Note_off_c, 5, 75, 64
10, 57252, Note_on_c, 5, 77, 91
10, 57602, Note_on_c, 5, 72, 93
10, 57614, Note_off_c, 5, 77, 64
10, 59084, Note_off_c, 5, 72, 64
10, 59636, Note_on_c, 5, 72, 100
10, 59752, Note_off_c, 5, 72, 64
10, 59770, Note_on_c, 5, 65, 98
10, 59874, Note_on_c, 5, 67, 95
10, 59880, Note_off_c, 5, 65, 64
10, 60000, Note_on_c, 5, 68, 74
10, 60022, Note_off_c, 5, 67, 64
10, 60134, Note_on_c, 5, 70, 98
10, 60152, Note_off_c, 5, 68, 64
10, 60372, Note_on_c, 5, 72, 89
10, 60374, Note_off_c, 5, 70, 64
10, 60608, Note_off_c, 5, 72, 64
10, 60608, Note_on_c, 5, 79, 85
10, 61094, Note_on_c, 5, 77, 95
10, 61108, Note_off_c, 5, 79, 64
10, 61256, Note_on_c, 5, 72, 85
10, 61260, Note_off_c, 5, 77, 64
10, 61452, Note_on_c, 5, 68, 91
10, 61468, Note_off_c, 5, 72, 64
10, 61664, Note_off_c, 5, 68, 64
10, 61676, Note_on_c, 5, 70, 76
10, 61778, Note_off_c, 5, 70, 64
10, 61808, Note_on_c, 5, 72, 100
10, 62032, Note_off_c, 5, 72, 64
10, 62044, Note_on_c, 5, 68, 93
10, 62244, Note_off_c, 5, 68, 64
10, 62294, Note_on_c, 5, 77, 91
10, 63100, Note_off_c, 5, 77, 64
10, 63240, Note_on_c, 5, 65, 93
10, 63348, Note_off_c, 5, 65, 64
10, 63374, Note_on_c, 5, 68, 98
10, 63942, Note_off_c, 5, 68, 64
10, 63968, Note_on_c, 5, 70, 82
10, 64050, Note_off_c, 5, 70, 64
10, 64094, Note_on_c, 5, 68, 66
10, 64150, Note_off_c, 5, 68, 64
10, 64212, Note_on_c, 5, 70, 76
10, 64242, Note_off_c, 5, 70, 64
10, 64242, Note_on_c, 5, 71, 100
10, 64368, Note_off_c, 5, 71, 64
10, 64450, Note_on_c, 5, 70, 93
10, 65048, Note_off_c, 5, 70, 64
10, 65054, Note_on_c, 5, 68, 87
10, 65178, Note_on_c, 5, 65, 98
10, 65182, Note_off_c, 5, 68, 64
10, 66630, Note_off_c, 5, 65, 64
10, 67452, Note_on_c, 5, 73, 85
10, 67534, Note_off_c, 5, 73, 64
10, 67564, Note_on_c, 5, 75, 82
10, 67652, Note_off_c, 5, 75, 64
10, 67690, Note_on_c, 5, 77, 87
10, 67886, Note_off_c, 5, 77, 64
10, 67918, Note_on_c, 5, 78, 102
10, 67998, Note_off_c, 5, 78, 64
10, 68058, Note_on_c, 5, 77, 87
10, 68180, Note_off_c, 5, 77, 64
10, 68282, Note_on_c, 5, 75, 100
10, 68522, Note_off_c, 5, 75, 64
10, 68530, Note_on_c, 5, 73, 102
10, 68726, Note_off_c, 5, 73, 64
10, 68780, Note_on_c, 5, 75, 85
10, 68964, Note_off_c, 5, 75, 64
10, 69008, Note_on_c, 5, 77, 93
10, 69250, Note_on_c, 5, 68, 89
10, 69252, Note_off_c, 5, 77, 64
10, 69418, Note_off_c, 5, 68, 64
10, 69500, Note_on_c, 5, 68, 93
10, 70926, Note_off_c, 5, 68, 64
10, 71164, Note_on_c, 5, 68, 85
10, 71240, Note_off_c, 5, 68, 64
10, 71282, Note_on_c, 5, 73, 80
10, 71352, Note_off_c, 5, 73, 64
10, 71398, Note_on_c, 5, 75, 82
10, 71470, Note_off_c, 5, 75, 64
10, 71522, Note_on_c, 5, 77, 89
10, 71710, Note_off_c, 5, 77, 64
10, 71758, Note_on_c, 5, 78, 95
10, 71822, Note_off_c, 5, 78, 64
10, 71898, Note_on_c, 5, 77, 85
10, 71992, Note_off_c, 5, 77, 64
10, 72130, Note_on_c, 5, 75, 98
10, 72462, Note_off_c, 5, 75, 64
10, 72480, Note_on_c, 5, 73, 102
10, 72600, Note_off_c, 5, 73, 64
10, 72722, Note_on_c, 5, 80, 102
10, 72864, Note_on_c, 5, 77, 95
10, 72868, Note_off_c, 5, 80, 64
10, 74354, Note_off_c, 5, 77, 64
10, 74756, Note_on_c, 5, 77, 78
10, 74882, Note_off_c, 5, 77, 64
10, 74882, Note_on_c, 5, 74, 102
10, 75096, Note_off_c, 5, 74, 64
10, 75130, Note_on_c, 5, 76, 85
10, 75204, Note_off_c, 5, 76, 64
10, 75258, Note_on_c, 5, 77, 87
10, 75486, Note_off_c, 5, 77, 64
10, 75488, Note_on_c, 5, 79, 89
10, 75730, Note_on_c, 5, 80, 100
10, 75734, Note_off_c, 5, 79, 64
10, 75948, Note_off_c, 5, 80, 64
10, 75972, Note_on_c, 5, 79, 85
10, 76386, Note_off_c, 5, 79, 64
10, 76456, Note_on_c, 5, 79, 98
10, 76568, Note_off_c, 5, 79, 64
10, 76634, Note_on_c, 5, 79, 87
10, 76744, Note_off_c, 5, 79, 64
10, 76810, Note_on_c, 5, 79, 85
10, 77062, Note_off_c, 5, 79, 64
10, 77168, Note_on_c, 5, 67, 95
10, 77282, Note_off_c, 5, 67, 64
10, 77334, Note_on_c, 5, 67, 102
10, 77450, Note_off_c, 5, 67, 64
10, 77502, Note_on_c, 5, 67, 91
10, 77614, Note_off_c, 5, 67, 64
10, 77658, Note_on_c, 5, 67, 78
10, 78416, Note_off_c, 5, 67, 64
10, 78488, Note_on_c, 5, 67, 100
10, 78614, Note_off_c, 5, 67, 64
10, 78616, Note_on_c, 5, 70, 105
10, 79440, Note_off_c, 5, 70, 64
10, 79446, Note_on_c, 5, 67, 85
10, 79556, Note_off_c, 5, 67, 64
10, 79582, Note_on_c, 5, 71, 100
10, 80394, Note_off_c, 5, 71, 64
10, 80406, Note_on_c, 5, 67, 110
10, 80544, Note_off_c, 5, 67, 64
10, 80648, Note_on_c, 5, 72, 102
10, 80880, Note_off_c, 5, 72, 64
10, 80888, Note_on_c, 5, 74, 91
10, 80964, Note_off_c, 5, 74, 64
10, 81014, Note_on_c, 5, 70, 95
10, 81206, Note_off_c, 5, 70, 64
10, 81244, Note_on_c, 5, 72, 107
10, 81472, Note_off_c, 5, 72, 64
10, 81490, Note_on_c, 5, 67, 102
10, 82394, Note_off_c, 5, 67, 64
10, 82808, Note_on_c, 5, 65, 80
10, 82924, Note_on_c, 5, 67, 85
10, 82944, Note_off_c, 5, 65, 64
10, 83052, Note_on_c, 5, 68, 91
10, 83068, Note_off_c, 5, 67, 64
10, 83192, Note_on_c, 5, 70, 95
10, 83212, Note_off_c, 5, 68, 64
10, 83408, Note_off_c, 5, 70, 64
10, 83412, Note_on_c, 5, 72, 68
10, 83656, Note_off_c, 5, 72, 64
10, 83658, Note_on_c, 5, 79, 85
10, 83892, Note_on_c, 5, 77, 89
10, 83904, Note_off_c, 5, 79, 64
10, 84128, Note_on_c, 5, 72, 89
10, 84134, Note_off_c, 5, 77, 64
10, 84318, Note_on_c, 5, 70, 102
10, 84332, Note_off_c, 5, 72, 64
10, 84482, Note_off_c, 5, 70, 64
10, 84488, Note_on_c, 5, 68, 98
10, 84730, Note_on_c, 5, 70, 80
10, 84746, Note_off_c, 5, 68, 64
10, 84810, Note_off_c, 5, 70, 64
10, 84862, Note_on_c, 5, 72, 93
10, 85062, Note_off_c, 5, 72, 64
10, 85086, Note_on_c, 5, 68, 72
10, 85324, Note_off_c, 5, 68, 64
10, 85326, Note_on_c, 5, 65, 91
10, 86402, Note_off_c, 5, 65, 64
10, 86770, Note_on_c, 5, 65, 78
10, 86876, Note_off_c, 5, 65, 64
10, 86890, Note_on_c, 5, 68, 113
10, 86996, Note_off_c, 5, 68, 64
10, 87004, Note_on_c, 5, 67, 100
10, 87090, Note_off_c, 5, 67, 64
10, 87124, Note_on_c, 5, 68, 105
10, 87188, Note_off_c, 5, 68, 64
10, 87264, Note_on_c, 5, 75, 87
10, 87968, Note_off_c, 5, 75, 64
10, 87972, Note_on_c, 5, 77, 85
10, 88318, Note_off_c, 5, 77, 64
10, 88324, Note_on_c, 5, 72, 98
10, 89606, Note_off_c, 5, 72, 64
10, 90366, Note_on_c, 5, 65, 72
10, 90420, Note_off_c, 5, 65, 64
10, 90484, Note_on_c, 5, 65, 85
10, 90598, Note_off_c, 5, 65, 64
10, 90604, Note_on_c, 5, 67, 100
10, 90686, Note_off_c, 5, 67, 64
10, 90734, Note_on_c, 5, 68, 100
10, 90856, Note_off_c, 5, 68, 64
10, 90870, Note_on_c, 5, 70, 102
10, 91078, Note_off_c, 5, 70, 64
10, 91090, Note_on_c, 5, 72, 98
10, 91322, Note_off_c, 5, 72, 64
10, 91328, Note_on_c, 5, 79, 87
10, 91674, Note_on_c, 5, 77, 98
10, 91680, Note_off_c, 5, 79, 64
10, 91912, Note_off_c, 5, 77, 64
10, 91918, Note_on_c, 5, 72, 98
10, 92170, Note_on_c, 5, 68, 100
10, 92194, Note_off_c, 5, 72, 64
10, 92392, Note_on_c, 5, 70, 93
10, 92412, Note_off_c, 5, 68, 64
10, 92524, Note_off_c, 5, 70, 64
10, 92534, Note_on_c, 5, 72, 102
10, 92766, Note_off_c, 5, 72, 64
10, 92770, Note_on_c, 5, 68, 102
10, 93008, Note_off_c, 5, 68, 64
10, 93020, Note_on_c, 5, 77, 102
10, 93828, Note_off_c, 5, 77, 64
10, 93964, Note_on_c, 5, 65, 105
10, 94048, Note_off_c, 5, 65, 64
10, 94088, Note_on_c, 5, 68, 105
10, 94668, Note_off_c, 5, 68, 64
10, 94688, Note_on_c, 5, 70, 102
10, 94774, Note_off_c, 5, 70, 64
10, 94798, Note_on_c, 5, 68, 85
10, 94862, Note_off_c, 5, 68, 64
10, 94924, Note_on_c, 5, 70, 82
10, 94940, Note_on_c, 5, 71, 98
10, 94964, Note_off_c, 5, 70, 64
10, 95070, Note_off_c, 5, 71, 64
10, 95168, Note_on_c, 5, 70, 102
10, 95744, Note_off_c, 5, 70, 64
10, 95764, Note_on_c, 5, 68, 100
10, 95886, Note_off_c, 5, 68, 64
10, 95900, Note_on_c, 5, 65, 91
10, 97670, Note_off_c, 5, 65, 64
10, 98046, Note_on_c, 5, 65, 72
10, 98100, Note_off_c, 5, 65, 64
10, 98164, Note_on_c, 5, 65, 85
10, 98278, Note_off_c, 5, 65, 64
10, 98284, Note_on_c, 5, 67, 100
10, 98366, Note_off_c, 5, 67, 64
10, 98414, Note_on_c, 5, 68, 100
10, 98536, Note_off_c, 5, 68, 64
10, 98550, Note_on_c, 5, 70, 102
10, 98758, Note_off_c, 5, 70, 64
10, 98770, Note_on_c, 5, 72, 98
10, 99002, Note_off_c, 5, 72, 64
10, 99008, Note_on_c, 5, 79, 87
10, 99354, Note_on_c, 5, 77, 98
10, 99360, Note_off_c, 5, 79, 64
10, 99592, Note_off_c, 5, 77, 64
10, 99598, Note_on_c, 5, 72, 98
10, 99850, Note_on_c, 5, 68, 100
10, 99874, Note_off_c, 5, 72, 64
10, 100072, Note_on_c, 5, 70, 93
10, 100092, Note_off_c, 5, 68, 64
10, 100204, Note_off_c, 5, 70, 64
10, 100214, Note_on_c, 5, 72, 102
10, 100446, Note_off_c, 5, 72, 64
10, 100450, Note_on_c, 5, 80, 102
10, 100688, Note_off_c, 5, 80, 64
10, 100700, Note_on_c, 5, 77, 102
10, 102468, Note_off_c, 5, 77, 64
10, 102468, End_track
11, 0, Start_track
11, 0, Title_t, "Melody (Acou Grand Piano)"
11, 0, Program_c, 5, 0
11, 1, Pitch_bend_c, 5, 8192
11, 6018, Note_on_c, 5, 41, 105
11, 6122, Note_on_c, 5, 43, 100
11, 6134, Note_off_c, 5, 41, 64
11, 6240, Note_on_c, 5, 44, 89
11, 6258, Note_off_c, 5, 43, 64
11, 6372, Note_on_c, 5, 46, 95
11, 6392, Note_off_c, 5, 44, 64
11, 6600, Note_off_c, 5, 46, 64
11, 6612, Note_on_c, 5, 48, 100
11, 6848, Note_off_c, 5, 48, 64
11, 6854, Note_on_c, 5, 55, 100
11, 7332, Note_on_c, 5, 53, 102
11, 7350, Note_off_c, 5, 55, 64
11, 7510, Note_on_c, 5, 48, 102
11, 7512, Note_off_c, 5, 53, 64
11, 7692, Note_on_c, 5, 44, 100
11, 7710, Note_off_c, 5, 48, 64
11, 7912, Note_on_c, 5, 46, 80
11, 7926, Note_off_c, 5, 44, 64
11, 7996, Note_off_c, 5, 46, 64
11, 8046, Note_on_c, 5, 48, 80
11, 8276, Note_off_c, 5, 48, 64
11, 8294, Note_on_c, 5, 44, 98
11, 8516, Note_off_c, 5, 44, 64
11, 8522, Note_on_c, 5, 41, 105
11, 9544, Note_off_c, 5, 41, 64
11, 10102, Note_on_c, 5, 44, 116
11, 10206, Note_off_c, 5, 44, 64
11, 10212, Note_on_c, 5, 43, 82
11, 10324, Note_on_c, 5, 44, 64
11, 10344, Note_off_c, 5, 43, 64
11, 10468, Note_on_c, 5, 51, 82
11, 10488, Note_off_c, 5, 44, 64
11, 11082, Note_off_c, 5, 51, 64
11, 11172, Note_on_c, 5, 53, 91
11, 11522, Note_on_c, 5, 48, 93
11, 11534, Note_off_c, 5, 53, 64
11, 13004, Note_off_c, 5, 48, 64
11, 13556, Note_on_c, 5, 48, 100
11, 13672, Note_off_c, 5, 48, 64
11, 13690, Note_on_c, 5, 41, 98
11, 13794, Note_on_c, 5, 43, 95
11, 13800, Note_off_c, 5, 41, 64
11, 13920, Note_on_c, 5, 44, 74
11, 13942, Note_off_c, 5, 43, 64
11, 14054, Note_on_c, 5, 46, 98
11, 14072, Note_off_c, 5, 44, 64
11, 14292, Note_on_c, 5, 48, 89
11, 14294, Note_off_c, 5, 46, 64
11, 14528, Note_off_c, 5, 48, 64
11, 14528, Note_on_c, 5, 55, 85
11, 15014, Note_on_c, 5, 53, 95
11, 15028, Note_off_c, 5, 55, 64
11, 15176, Note_on_c, 5, 48, 85
11, 15180, Note_off_c, 5, 53, 64
11, 15372, Note_on_c, 5, 44, 91
11, 15388, Note_off_c, 5, 48, 64
11, 15584, Note_off_c, 5, 44, 64
11, 15596, Note_on_c, 5, 46, 76
11, 15698, Note_off_c, 5, 46, 64
11, 15728, Note_on_c, 5, 48, 100
11, 15952, Note_off_c, 5, 48, 64
11, 15964, Note_on_c, 5, 44, 93
11, 16164, Note_off_c, 5, 44, 64
11, 16214, Note_on_c, 5, 53, 91
11, 17020, Note_off_c, 5, 53, 64
11, 17160, Note_on_c, 5, 41, 93
11, 17268, Note_off_c, 5, 41, 64
11, 17294, Note_on_c, 5, 44, 98
11, 17862, Note_off_c, 5, 44, 64
11, 17888, Note_on_c, 5, 46, 82
11, 17970, Note_off_c, 5, 46, 64
11, 18014, Note_on_c, 5, 44, 66
11, 18070, Note_off_c, 5, 44, 64
11, 18132, Note_on_c, 5, 46, 76
11, 18162, Note_off_c, 5, 46, 64
11, 18162, Note_on_c, 5, 47, 100
11, 18288, Note_off_c, 5, 47, 64
11, 18370, Note_on_c, 5, 46, 93
11, 18968, Note_off_c, 5, 46, 64
11, 18974, Note_on_c, 5, 44, 87
11, 19098, Note_on_c, 5, 41, 98
11, 19102, Note_off_c, 5, 44, 64
11, 20550, Note_off_c, 5, 41, 64
11, 21372, Note_on_c, 5, 49, 85
11, 21454, Note_off_c, 5, 49, 64
11, 21484, Note_on_c, 5, 51, 82
11, 21572, Note_off_c, 5, 51, 64
11, 21610, Note_on_c, 5, 53, 87
11, 21806, Note_off_c, 5, 53, 64
11, 21838, Note_on_c, 5, 54, 102
11, 21918, Note_off_c, 5, 54, 64
11, 21978, Note_on_c, 5, 53, 87
11, 22100, Note_off_c, 5, 53, 64
11, 22202, Note_on_c, 5, 51, 100
11, 22442, Note_off_c, 5, 51, 64
11, 22450, Note_on_c, 5, 49, 102
11, 22646, Note_off_c, 5, 49, 64
11, 22700, Note_on_c, 5, 51, 85
11, 22884, Note_off_c, 5, 51, 64
11, 22928, Note_on_c, 5, 53, 93
11, 23170, Note_on_c, 5, 44, 89
11, 23172, Note_off_c, 5, 53, 64
11, 23338, Note_off_c, 5, 44, 64
11, 23420, Note_on_c, 5, 44, 93
11, 24846, Note_off_c, 5, 44, 64
11, 25084, Note_on_c, 5, 44, 85
11, 25160, Note_off_c, 5, 44, 64
11, 25202, Note_on_c, 5, 49, 80
11, 25272, Note_off_c, 5, 49, 64
11, 25318, Note_on_c, 5, 51, 82
11, 25390, Note_off_c, 5, 51, 64
11, 25442, Note_on_c, 5, 53, 89
11, 25630, Note_off_c, 5, 53, 64
11, 25678, Note_on_c, 5, 54, 95
11, 25742, Note_off_c, 5, 54, 64
11, 25818, Note_on_c, 5, 53, 85
11, 25912, Note_off_c, 5, 53, 64
11, 26050, Note_on_c, 5, 51, 98
11, 26382, Note_off_c, 5, 51, 64
11, 26400, Note_on_c, 5, 49, 102
11, 26520, Note_off_c, 5, 49, 64
11, 26642, Note_on_c, 5, 56, 102
11, 26784, Note_on_c, 5, 53, 95
11, 26788, Note_off_c, 5, 56, 64
11, 28274, Note_off_c, 5, 53, 64
11, 28676, Note_on_c, 5, 53, 78
11, 28802, Note_off_c, 5, 53, 64
11, 28802, Note_on_c, 5, 50, 102
11, 29016, Note_off_c, 5, 50, 64
11, 29050, Note_on_c, 5, 52, 85
11, 29124, Note_off_c, 5, 52, 64
11, 29178, Note_on_c, 5, 53, 87
11, 29406, Note_off_c, 5, 53, 64
11, 29408, Note_on_c, 5, 55, 89
11, 29650, Note_on_c, 5, 56, 100
11, 29654, Note_off_c, 5, 55, 64
11, 29868, Note_off_c, 5, 56, 64
11, 29892, Note_on_c, 5, 55, 85
11, 30306, Note_off_c, 5, 55, 64
11, 30376, Note_on_c, 5, 55, 98
11, 30488, Note_off_c, 5, 55, 64
11, 30554, Note_on_c, 5, 55, 87
11, 30664, Note_off_c, 5, 55, 64
11, 30730, Note_on_c, 5, 55, 85
11, 30982, Note_off_c, 5, 55, 64
11, 31088, Note_on_c, 5, 43, 95
11, 31202, Note_off_c, 5, 43, 64
11, 31254, Note_on_c, 5, 43, 102
11, 31370, Note_off_c, 5, 43, 64
11, 31422, Note_on_c, 5, 43, 91
11, 31534, Note_off_c, 5, 43, 64
11, 31578, Note_on_c, 5, 43, 78
11, 32336, Note_off_c, 5, 43, 64
11, 32408, Note_on_c, 5, 43, 100
11, 32534, Note_off_c, 5, 43, 64
11, 32536, Note_on_c, 5, 46, 105
11, 33360, Note_off_c, 5, 46, 64
11, 33366, Note_on_c, 5, 43, 85
11, 33476, Note_off_c, 5, 43, 64
11, 33502, Note_on_c, 5, 47, 100
11, 34314, Note_off_c, 5, 47, 64
11, 34326, Note_on_c, 5, 43, 110
11, 34464, Note_off_c, 5, 43, 64
11, 34568, Note_on_c, 5, 48, 102
11, 34800, Note_off_c, 5, 48, 64
11, 34808, Note_on_c, 5, 50, 91
11, 34884, Note_off_c, 5, 50, 64
11, 34934, Note_on_c, 5, 46, 95
11, 35126, Note_off_c, 5, 46, 64
11, 35164, Note_on_c, 5, 48, 107
11, 35392, Note_off_c, 5, 48, 64
11, 35410, Note_on_c, 5, 43, 102
11, 36314, Note_off_c, 5, 43, 64
11, 36728, Note_on_c, 5, 41, 80
11, 36844, Note_on_c, 5, 43, 85
11, 36864, Note_off_c, 5, 41, 64
11, 36972, Note_on_c, 5, 44, 91
11, 36988, Note_off_c, 5, 43, 64
11, 37112, Note_on_c, 5, 46, 95
11, 37132, Note_off_c, 5, 44, 64
11, 37328, Note_off_c, 5, 46, 64
11, 37332, Note_on_c, 5, 48, 68
11, 37576, Note_off_c, 5, 48, 64
11, 37578, Note_on_c, 5, 55, 85
11, 37812, Note_on_c, 5, 53, 89
11, 37824, Note_off_c, 5, 55, 64
11, 38048, Note_on_c, 5, 48, 89
11, 38054, Note_off_c, 5, 53, 64
11, 38238, Note_on_c, 5, 46, 102
11, 38252, Note_off_c, 5, 48, 64
11, 38402, Note_off_c, 5, 46, 64
11, 38408, Note_on_c, 5, 44, 98
11, 38650, Note_on_c, 5, 46, 80
11, 38666, Note_off_c, 5, 44, 64
11, 38730, Note_off_c, 5, 46, 64
11, 38782, Note_on_c, 5, 48, 93
11, 38982, Note_off_c, 5, 48, 64
11, 39006, Note_on_c, 5, 44, 72
11, 39244, Note_off_c, 5, 44, 64
11, 39246, Note_on_c, 5, 41, 91
11, 40322, Note_off_c, 5, 41, 64
11, 40690, Note_on_c, 5, 41, 78
11, 40796, Note_off_c, 5, 41, 64
11, 40810, Note_on_c, 5, 44, 113
11, 40916, Note_off_c, 5, 44, 64
11, 40924, Note_on_c, 5, 43, 100
11, 41010, Note_off_c, 5, 43, 64
11, 41044, Note_on_c, 5, 44, 105
11, 41108, Note_off_c, 5, 44, 64
11, 41184, Note_on_c, 5, 51, 87
11, 41888, Note_off_c, 5, 51, 64
11, 41892, Note_on_c, 5, 53, 85
11, 42238, Note_off_c, 5, 53, 64
11, 42244, Note_on_c, 5, 48, 98
11, 43526, Note_off_c, 5, 48, 64
11, 44286, Note_on_c, 5, 41, 72
11, 44340, Note_off_c, 5, 41, 64
11, 44404, Note_on_c, 5, 41, 85
11, 44518, Note_off_c, 5, 41, 64
11, 44524, Note_on_c, 5, 43, 100
11, 44606, Note_off_c, 5, 43, 64
11, 44654, Note_on_c, 5, 44, 100
11, 44776, Note_off_c, 5, 44, 64
11, 44790, Note_on_c, 5, 46, 102
11, 44998, Note_off_c, 5, 46, 64
11, 45010, Note_on_c, 5, 48, 98
11, 45242, Note_off_c, 5, 48, 64
11, 45248, Note_on_c, 5, 55, 87
11, 45594, Note_on_c, 5, 53, 98
11, 45600, Note_off_c, 5, 55, 64
11, 45832, Note_off_c, 5, 53, 64
11, 45838, Note_on_c, 5, 48, 98
11, 46090, Note_on_c, 5, 44, 100
11, 46114, Note_off_c, 5, 48, 64
11, 46312, Note_on_c, 5, 46, 93
11, 46332, Note_off_c, 5, 44, 64
11, 46444, Note_off_c, 5, 46, 64
11, 46454, Note_on_c, 5, 48, 102
11, 46686, Note_off_c, 5, 48, 64
11, 46690, Note_on_c, 5, 44, 102
11, 46928, Note_off_c, 5, 44, 64
11, 46940, Note_on_c, 5, 53, 102
11, 47748, Note_off_c, 5, 53, 64
11, 47884, Note_on_c, 5, 41, 105
11, 47968, Note_off_c, 5, 41, 64
11, 48008, Note_on_c, 5, 44, 105
11, 48588, Note_off_c, 5, 44, 64
11, 48608, Note_on_c, 5, 46, 102
11, 48694, Note_off_c, 5, 46, 64
11, 48718, Note_on_c, 5, 44, 85
11, 48782, Note_off_c, 5, 44, 64
11, 48844, Note_on_c, 5, 46, 82
11, 48860, Note_on_c, 5, 47, 98
11, 48884, Note_off_c, 5, 46, 64
11, 48990, Note_off_c, 5, 47, 64
11, 49088, Note_on_c, 5, 46, 102
11, 49664, Note_off_c, 5, 46, 64
11, 49684, Note_on_c, 5, 44, 100
11, 49806, Note_off_c, 5, 44, 64
11, 49820, Note_on_c, 5, 41, 91
11, 51590, Note_off_c, 5, 41, 64
11, 52098, Note_on_c, 5, 41, 105
11, 52202, Note_on_c, 5, 43, 100
11, 52214, Note_off_c, 5, 41, 64
11, 52320, Note_on_c, 5, 44, 89
11, 52338, Note_off_c, 5, 43, 64
11, 52452, Note_on_c, 5, 46, 95
11, 52472, Note_off_c, 5, 44, 64
11, 52680, Note_off_c, 5, 46, 64
11, 52692, Note_on_c, 5, 48, 100
11, 52928, Note_off_c, 5, 48, 64
11, 52934, Note_on_c, 5, 55, 100
11, 53412, Note_on_c, 5, 53, 102
11, 53430, Note_off_c, 5, 55, 64
11, 53590, Note_on_c, 5, 48, 102
11, 53592, Note_off_c, 5, 53, 64
11, 53772, Note_on_c, 5, 44, 100
11, 53790, Note_off_c, 5, 48, 64
11, 53992, Note_on_c, 5, 46, 80
11, 54006, Note_off_c, 5, 44, 64
11, 54076, Note_off_c, 5, 46, 64
11, 54126, Note_on_c, 5, 48, 80
11, 54356, Note_off_c, 5, 48, 64
11, 54374, Note_on_c, 5, 44, 98
11, 54596, Note_off_c, 5, 44, 64
11, 54602, Note_on_c, 5, 41, 105
11, 55624, Note_off_c, 5, 41, 64
11, 56182, Note_on_c, 5, 44, 116
11, 56286, Note_off_c, 5, 44, 64
11, 56292, Note_on_c, 5, 43, 82
11, 56404, Note_on_c, 5, 44, 64
11, 56424, Note_off_c, 5, 43, 64
11, 56548, Note_on_c, 5, 51, 82
11, 56568, Note_off_c, 5, 44, 64
11, 57162, Note_off_c, 5, 51, 64
11, 57252, Note_on_c, 5, 53, 91
11, 57602, Note_on_c, 5, 48, 93
11, 57614, Note_off_c, 5, 53, 64
11, 59084, Note_off_c, 5, 48, 64
11, 59636, Note_on_c, 5, 48, 100
11, 59752, Note_off_c, 5, 48, 64
11, 59770, Note_on_c, 5, 41, 98
11, 59874, Note_on_c, 5, 43, 95
11, 59880, Note_off_c, 5, 41, 64
11, 60000, Note_on_c, 5, 44, 74
11, 60022, Note_off_c, 5, 43, 64
11, 60134, Note_on_c, 5, 46, 98
11, 60152, Note_off_c, 5, 44, 64
11, 60372, Note_on_c, 5, 48, 89
11, 60374, Note_off_c, 5, 46, 64
11, 60608, Note_off_c, 5, 48, 64
11, 60608, Note_on_c, 5, 55, 85
11, 61094, Note_on_c, 5, 53, 95
11, 61108, Note_off_c, 5, 55, 64
11, 61256, Note_on_c, 5, 48, 85
11, 61260, Note_off_c, 5, 53, 64
11, 61452, Note_on_c, 5, 44, 91
11, 61468, Note_off_c, 5, 48, 64
11, 61664, Note_off_c, 5, 44, 64
11, 61676, Note_on_c, 5, 46, 76
11, 61778, Note_off_c, 5, 46, 64
11, 61808, Note_on_c, 5, 48, 100
11, 62032, Note_off_c, 5, 48, 64
11, 62044, Note_on_c, 5, 44, 93
11, 62244, Note_off_c, 5, 44, 64
11, 62294, Note_on_c, 5, 53, 91
11, 63100, Note_off_c, 5, 53, 64
11, 63240, Note_on_c, 5, 41, 93
11, 63348, Note_off_c, 5, 41, 64
11, 63374, Note_on_c, 5, 44, 98
11, 63942, Note_off_c, 5, 44, 64
11, 63968, Note_on_c, 5, 46, 82
11, 64050, Note_off_c, 5, 46, 64
11, 64094, Note_on_c, 5, 44, 66
11, 64150, Note_off_c, 5, 44, 64
11, 64212, Note_on_c, 5, 46, 76
11, 64242, Note_off_c, 5, 46, 64
11, 64242, Note_on_c, 5, 47, 100
11, 64368, Note_off_c, 5, 47, 64
11, 64450, Note_on_c, 5, 46, 93
11, 65048, Note_off_c, 5, 46, 64
11, 65054, Note_on_c, 5, 44, 87
11, 65178, Note_on_c, 5, 41, 98
11, 65182, Note_off_c, 5, 44, 64
11, 66630, Note_off_c, 5, 41, 64
11, 67452, Note_on_c, 5, 49, 85
11, 67534, Note_off_c, 5, 49, 64
11, 67564, Note_on_c, 5, 51, 82
11, 67652, Note_off_c, 5, 51, 64
11, 67690, Note_on_c, 5, 53, 87
11, 67886, Note_off_c, 5, 53, 64
11, 67918, Note_on_c, 5, 54, 102
11, 67998, Note_off_c, 5, 54, 64
11, 68058, Note_on_c, 5, 53, 87
11, 68180, Note_off_c, 5, 53, 64
11, 68282, Note_on_c, 5, 51, 100
11, 68522, Note_off_c, 5, 51, 64
11, 68530, Note_on_c, 5, 49, 102
11, 68726, Note_off_c, 5, 49, 64
11, 68780, Note_on_c, 5, 51, 85
11, 68964, Note_off_c, 5, 51, 64
11, 69008, Note_on_c, 5, 53, 93
11, 69250, Note_on_c, 5, 44, 89
11, 69252, Note_off_c, 5, 53, 64
11, 69418, Note_off_c, 5, 44, 64
11, 69500, Note_on_c, 5, 44, 93
11, 70926, Note_off_c, 5, 44, 64
11, 71164, Note_on_c, 5, 44, 85
11, 71240, Note_off_c, 5, 44, 64
11, 71282, Note_on_c, 5, 49, 80
11, 71352, Note_off_c, 5, 49, 64
11, 71398, Note_on_c, 5, 51, 82
11, 71470, Note_off_c, 5, 51, 64
11, 71522, Note_on_c, 5, 53, 89
11, 71710, Note_off_c, 5, 53, 64
11, 71758, Note_on_c, 5, 54, 95
11, 71822, Note_off_c, 5, 54, 64
11, 71898, Note_on_c, 5, 53, 85
11, 71992, Note_off_c, 5, 53, 64
11, 72130, Note_on_c, 5, 51, 98
11, 72462, Note_off_c, 5, 51, 64
11, 72480, Note_on_c, 5, 49, 102
11, 72600, Note_off_c, 5, 49, 64
11, 72722, Note_on_c, 5, 56, 102
11, 72864, Note_on_c, 5, 53, 95
11, 72868, Note_off_c, 5, 56, 64
11, 74354, Note_off_c, 5, 53, 64
11, 74756, Note_on_c, 5, 53, 78
11, 74882, Note_off_c, 5, 53, 64
11, 74882, Note_on_c, 5, 50, 102
11, 75096, Note_off_c, 5, 50, 64
11, 75130, Note_on_c, 5, 52, 85
11, 75204, Note_off_c, 5, 52, 64
11, 75258, Note_on_c, 5, 53, 87
11, 75486, Note_off_c, 5, 53, 64
11, 75488, Note_on_c, 5, 55, 89
11, 75730, Note_on_c, 5, 56, 100
11, 75734, Note_off_c, 5, 55, 64
11, 75948, Note_off_c, 5, 56, 64
11, 75972, Note_on_c, 5, 55, 85
11, 76386, Note_off_c, 5, 55, 64
11, 76456, Note_on_c, 5, 55, 98
11, 76568, Note_off_c, 5, 55, 64
11, 76634, Note_on_c, 5, 55, 87
11, 76744, Note_off_c, 5, 55, 64
11, 76810, Note_on_c, 5, 55, 85
11, 77062, Note_off_c, 5, 55, 64
11, 77168, Note_on_c, 5, 43, 95
11, 77282, Note_off_c, 5, 43, 64
11, 77334, Note_on_c, 5, 43, 102
11, 77450, Note_off_c, 5, 43, 64
11, 77502, Note_on_c, 5, 43, 91
11, 77614, Note_off_c, 5, 43, 64
11, 77658, Note_on_c, 5, 43, 78
11, 78416, Note_off_c, 5, 43, 64
11, 78488, Note_on_c, 5, 43, 100
11, 78614, Note_off_c, 5, 43, 64
11, 78616, Note_on_c, 5, 46, 105
11, 79440, Note_off_c, 5, 46, 64
11, 79446, Note_on_c, 5, 43, 85
11, 79556, Note_off_c, 5, 43, 64
11, 79582, Note_on_c, 5, 47, 100
11, 80394, Note_off_c, 5, 47, 64
11, 80406, Note_on_c, 5, 43, 110
11, 80544, Note_off_c, 5, 43, 64
11, 80648, Note_on_c, 5, 48, 102
11, 80880, Note_off_c, 5, 48, 64
11, 80888, Note_on_c, 5, 50, 91
11, 80964, Note_off_c, 5, 50, 64
11, 81014, Note_on_c, 5, 46, 95
11, 81206, Note_off_c, 5, 46, 64
11, 81244, Note_on_c, 5, 48, 107
11, 81472, Note_off_c, 5, 48, 64
11, 81490, Note_on_c, 5, 43, 102
11, 82394, Note_off_c, 5, 43, 64
11, 82808, Note_on_c, 5, 41, 80
11, 82924, Note_on_c, 5, 43, 85
11, 82944, Note_off_c, 5, 41, 64
11, 83052, Note_on_c, 5, 44, 91
11, 83068, Note_off_c, 5, 43, 64
11, 83192, Note_on_c, 5, 46, 95
11, 83212, Note_off_c, 5, 44, 64
11, 83408, Note_off_c, 5, 46, 64
11, 83412, Note_on_c, 5, 48, 68
11, 83656, Note_off_c, 5, 48, 64
11, 83658, Note_on_c, 5, 55, 85
11, 83892, Note_on_c, 5, 53, 89
11, 83904, Note_off_c, 5, 55, 64
11, 84128, Note_on_c, 5, 48, 89
11, 84134, Note_off_c, 5, 53, 64
11, 84318, Note_on_c, 5, 46, 102
11, 84332, Note_off_c, 5, 48, 64
11, 84482, Note_off_c, 5, 46, 64
11, 84488, Note_on_c, 5, 44, 98
11, 84730, Note_on_c, 5, 46, 80
11, 84746, Note_off_c, 5, 44, 64
11, 84810, Note_off_c, 5, 46, 64
11, 84862, Note_on_c, 5, 48, 93
11, 85062, Note_off_c, 5, 48, 64
11, 85086, Note_on_c, 5, 44, 72
11, 85324, Note_off_c, 5, 44, 64
11, 85326, Note_on_c, 5, 41, 91
11, 86402, Note_off_c, 5, 41, 64
11, 86770, Note_on_c, 5, 41, 78
11, 86876, Note_off_c, 5, 41, 64
11, 86890, Note_on_c, 5, 44, 113
11, 86996, Note_off_c, 5, 44, 64
11, 87004, Note_on_c, 5, 43, 100
11, 87090, Note_off_c, 5, 43, 64
11, 87124, Note_on_c, 5, 44, 105
11, 87188, Note_off_c, 5, 44, 64
11, 87264, Note_on_c, 5, 51, 87
11, 87968, Note_off_c, 5, 51, 64
11, 87972, Note_on_c, 5, 53, 85
11, 88318, Note_off_c, 5, 53, 64
11, 88324, Note_on_c, 5, 48, 98
11, 89606, Note_off_c, 5, 48, 64
11, 90366, Note_on_c, 5, 41, 72
11, 90420, Note_off_c, 5, 41, 64
11, 90484, Note_on_c, 5, 41, 85
11, 90598, Note_off_c, 5, 41, 64
11, 90604, Note_on_c, 5, 43, 100
11, 90686, Note_off_c, 5, 43, 64
11, 90734, Note_on_c, 5, 44, 100
11, 90856, Note_off_c, 5, 44, 64
11, 90870, Note_on_c, 5, 46, 102
11, 91078, Note_off_c, 5, 46, 64
11, 91090, Note_on_c, 5, 48, 98
11, 91322, Note_off_c, 5, 48, 64
11, 91328, Note_on_c, 5, 55, 87
11, 91674, Note_on_c, 5, 53, 98
11, 91680, Note_off_c, 5, 55, 64
11, 91912, Note_off_c, 5, 53, 64
11, 91918, Note_on_c, 5, 48, 98
11, 92170, Note_on_c, 5, 44, 100
11, 92194, Note_off_c, 5, 48, 64
11, 92392, Note_on_c, 5, 46, 93
11, 92412, Note_off_c, 5, 44, 64
11, 92524, Note_off_c, 5, 46, 64
11, 92534, Note_on_c, 5, 48, 102
11, 92766, Note_off_c, 5, 48, 64
11, 92770, Note_on_c, 5, 44, 102
11, 93008, Note_off_c, 5, 44, 64
11, 93020, Note_on_c, 5, 53, 102
11, 93828, Note_off_c, 5, 53, 64
11, 93964, Note_on_c, 5, 41, 105
11, 94048, Note_off_c, 5, 41, 64
11, 94088, Note_on_c, 5, 44, 105
11, 94668, Note_off_c, 5, 44, 64
11, 94688, Note_on_c, 5, 46, 102
11, 94774, Note_off_c, 5, 46, 64
11, 94798, Note_on_c, 5, 44, 85
11, 94862, Note_off_c, 5, 44, 64
11, 94924, Note_on_c, 5, 46, 82
11, 94940, Note_on_c, 5, 47, 98
11, 94964, Note_off_c, 5, 46, 64
11, 95070, Note_off_c, 5, 47, 64
11, 95168, Note_on_c, 5, 46, 102
11, 95744, Note_off_c, 5, 46, 64
11, 95764, Note_on_c, 5, 44, 100
11, 95886, Note_off_c, 5, 44, 64
11, 95900, Note_on_c, 5, 41, 91
11, 97670, Note_off_c, 5, 41, 64
11, 98046, Note_on_c, 5, 41, 72
11, 98100, Note_off_c, 5, 41, 64
11, 98164, Note_on_c, 5, 41, 85
11, 98278, Note_off_c, 5, 41, 64
11, 98284, Note_on_c, 5, 43, 100
11, 98366, Note_off_c, 5, 43, 64
11, 98414, Note_on_c, 5, 44, 100
11, 98536, Note_off_c, 5, 44, 64
11, 98550, Note_on_c, 5, 46, 102
11, 98758, Note_off_c, 5, 46, 64
11, 98770, Note_on_c, 5, 48, 98
11, 99002, Note_off_c, 5, 48, 64
11, 99008, Note_on_c, 5, 55, 87
11, 99354, Note_on_c, 5, 53, 98
11, 99360, Note_off_c, 5, 55, 64
11, 99592, Note_off_c, 5, 53, 64
11, 99598, Note_on_c, 5, 48, 98
11, 99850, Note_on_c, 5, 44, 100
11, 99874, Note_off_c, 5, 48, 64
11, 100072, Note_on_c, 5, 46, 93
11, 100092, Note_off_c, 5, 44, 64
11, 100204, Note_off_c, 5, 46, 64
11, 100214, Note_on_c, 5, 48, 102
11, 100446, Note_off_c, 5, 48, 64
11, 100450, Note_on_c, 5, 56, 102
11, 100688, Note_off_c, 5, 56, 64
11, 100700, Note_on_c, 5, 53, 102
11, 102468, Note_off_c, 5, 53, 64
11, 102468, End_track
12, 0, Start_track
12, 0, Title_t, "******* PLEASE READ *******"
12, 1, Pitch_bend_c, 0, 8192
12, 1, End_track
13, 0, Start_track
13, 0, Title_t, "Everything but the melody of"
13, 1, Pitch_bend_c, 0, 8192
13, 1, End_track
14, 0, Start_track
14, 0, Title_t, "this sequence was made in less"
14, 1, Pitch_bend_c, 0, 8192
14, 1, End_track
15, 0, Start_track
15, 0, Title_t, "than 5 minutes using a NORTON"
15, 1, Pitch_bend_c, 0, 8192
15, 1, End_track
16, 0, Start_track
16, 0, Title_t, "MUSIC USER STYLE DISK ( #3"
16, 1, Pitch_bend_c, 0, 8192
16, 1, End_track
17, 0, Start_track
17, 0, Title_t, "JAZZ CHA CHA Style) "
17, 1, Pitch_bend_c, 0, 8192
17, 1, End_track
18, 0, Start_track
18, 0, Title_t, "and Band-In-A-Box.  For a"
18, 1, Pitch_bend_c, 0, 8192
18, 1, End_track
19, 0, Start_track
19, 0, Title_t, "FREE catalog contact:"
19, 1, Pitch_bend_c, 0, 8192
19, 1, End_track
20, 0, Start_track
20, 0, Title_t, "NORTON MUSIC'S FUNWARE"
20, 1, Pitch_bend_c, 0, 8192
20, 1, End_track
21, 0, Start_track
21, 0, Title_t, "Box13149, Ft. Pierce, FL 34979"
21, 1, Pitch_bend_c, 0, 8192
21, 1, End_track
22, 0, Start_track
22, 0, Title_t, "USA Fax/Voicemail 561-467-2420"
22, 1, Pitch_bend_c, 0, 8192
22, 1, End_track
23, 0, Start_track
23, 0, Title_t, "E-Mail, NotesNortn@aol.com."
23, 1, Pitch_bend_c, 0, 8192
23, 1, End_track
24, 0, Start_track
24, 1, Pitch_bend_c, 0, 8192
24, 1, End_track
25, 0, Start_track
25, 0, Title_t, "No notes were either added or"
25, 1, Pitch_bend_c, 0, 8192
25, 1, End_track
26, 0, Start_track
26, 0, Title_t, "subtracted after this was"
26, 1, Pitch_bend_c, 0, 8192
26, 1, End_track
27, 0, Start_track
27, 0, Title_t, "exported from B_Box"
27, 1, Pitch_bend_c, 0, 8192
27, 1, End_track
28, 0, Start_track
28, 1, Pitch_bend_c, 0, 8192
28, 1, End_track
29, 0, Start_track
29, 0, Title_t, "Distribute this sequence"
29, 1, Pitch_bend_c, 0, 8192
29, 1, End_track
30, 0, Start_track
30, 0, Title_t, "freely but keep this message"
30, 1, Pitch_bend_c, 0, 8192
30, 1, End_track
31, 0, Start_track
31, 0, Title_t, "attached. Thank you."
31, 1, Pitch_bend_c, 0, 8192
31, 1, End_track
0, 0, End_of_file
