0, 0, Header, 1, 9, 120
1, 0, Start_track
1, 0, Title_t, "THIS SONG HAS NO TITLE"
1, 0, Time_signature, 2, 2, 24, 8
1, 0, Tempo, 288461
1, 0, Key_signature, 7, "major"
1, 0, End_track
2, 0, Start_track
2, 0, Title_t, "Acoustic Grand Piano"
2, 0, Program_c, 0, 0
2, 0, Control_c, 0, 7, 70
2, 0, Control_c, 0, 10, 64
2, 0, Control_c, 0, 11, 127
2, 0, Control_c, 0, 91, 40
2, 0, Control_c, 0, 93, 88
2, 0, Pitch_bend_c, 0, 8192
2, 960, Note_on_c, 0, 78, 45
2, 960, Note_on_c, 0, 54, 7
2, 960, Note_on_c, 0, 70, 44
2, 960, Note_on_c, 0, 73, 37
2, 960, Note_on_c, 0, 66, 27
2, 965, Control_c, 0, 64, 127
2, 1019, Note_off_c, 0, 54, 2
2, 1019, Note_off_c, 0, 70, 50
2, 1019, Note_off_c, 0, 73, 49
2, 1019, Note_off_c, 0, 66, 26
2, 1079, Note_off_c, 0, 78, 49
2, 1080, Note_on_c, 0, 54, 13
2, 1080, Note_on_c, 0, 73, 45
2, 1139, Note_off_c, 0, 54, 2
2, 1139, Note_off_c, 0, 73, 45
2, 1140, Note_on_c, 0, 78, 44
2, 1200, Note_on_c, 0, 54, 18
2, 1259, Note_off_c, 0, 78, 33
2, 1259, Note_off_c, 0, 54, 18
2, 1260, Note_on_c, 0, 73, 49
2, 1319, Note_off_c, 0, 73, 42
2, 1320, Note_on_c, 0, 54, 20
2, 1320, Note_on_c, 0, 70, 50
2, 1379, Note_off_c, 0, 54, 21
2, 1379, Note_off_c, 0, 70, 41
2, 1380, Note_on_c, 0, 66, 50
2, 1439, Note_off_c, 0, 66, 35
2, 1440, Note_on_c, 0, 54, 20
2, 1440, Note_on_c, 0, 82, 75
2, 1440, Note_on_c, 0, 70, 47
2, 1440, Note_on_c, 0, 66, 38
2, 1440, Note_on_c, 0, 73, 47
2, 1499, Note_off_c, 0, 54, 24
2, 1499, Note_off_c, 0, 82, 64
2, 1499, Note_off_c, 0, 70, 48
2, 1499, Note_off_c, 0, 66, 50
2, 1499, Note_off_c, 0, 73, 54
2, 1560, Note_on_c, 0, 73, 49
2, 1560, Note_on_c, 0, 54, 23
2, 1619, Note_off_c, 0, 73, 41
2, 1619, Note_off_c, 0, 54, 23
2, 1620, Note_on_c, 0, 78, 49
2, 1620, Note_on_c, 0, 70, 50
2, 1679, Note_off_c, 0, 70, 72
2, 1680, Note_on_c, 0, 54, 32
2, 1739, Note_off_c, 0, 78, 17
2, 1739, Note_off_c, 0, 54, 34
2, 1740, Note_on_c, 0, 73, 52
2, 1799, Note_off_c, 0, 73, 42
2, 1800, Note_on_c, 0, 54, 35
2, 1800, Note_on_c, 0, 70, 43
2, 1859, Note_off_c, 0, 54, 35
2, 1859, Note_off_c, 0, 70, 42
2, 1860, Note_on_c, 0, 66, 46
2, 1918, Control_c, 0, 64, 0
2, 1919, Note_off_c, 0, 66, 68
2, 1920, Note_on_c, 0, 82, 58
2, 1920, Note_on_c, 0, 54, 42
2, 1920, Note_on_c, 0, 73, 64
2, 1920, Note_on_c, 0, 70, 60
2, 1920, Note_on_c, 0, 66, 45
2, 1925, Control_c, 0, 64, 127
2, 1979, Note_off_c, 0, 54, 44
2, 1979, Note_off_c, 0, 73, 68
2, 1979, Note_off_c, 0, 70, 84
2, 1979, Note_off_c, 0, 66, 60
2, 2039, Note_off_c, 0, 82, 76
2, 2040, Note_on_c, 0, 54, 41
2, 2040, Note_on_c, 0, 73, 84
2, 2099, Note_off_c, 0, 54, 50
2, 2099, Note_off_c, 0, 73, 54
2, 2100, Note_on_c, 0, 78, 68
2, 2100, Note_on_c, 0, 70, 54
2, 2159, Note_off_c, 0, 78, 56
2, 2159, Note_off_c, 0, 70, 72
2, 2160, Note_on_c, 0, 54, 54
2, 2219, Note_off_c, 0, 54, 56
2, 2220, Note_on_c, 0, 73, 76
2, 2279, Note_off_c, 0, 73, 56
2, 2280, Note_on_c, 0, 54, 72
2, 2280, Note_on_c, 0, 70, 60
2, 2339, Note_off_c, 0, 54, 54
2, 2339, Note_off_c, 0, 70, 76
2, 2340, Note_on_c, 0, 66, 56
2, 2398, Control_c, 0, 64, 0
2, 2399, Note_off_c, 0, 66, 80
2, 2400, Note_on_c, 0, 54, 80
2, 2400, Note_on_c, 0, 82, 60
2, 2400, Note_on_c, 0, 70, 68
2, 2400, Note_on_c, 0, 66, 52
2, 2400, Note_on_c, 0, 73, 68
2, 2405, Control_c, 0, 64, 127
2, 2459, Note_off_c, 0, 54, 64
2, 2459, Note_off_c, 0, 70, 100
2, 2459, Note_off_c, 0, 66, 88
2, 2459, Note_off_c, 0, 73, 84
2, 2519, Note_off_c, 0, 82, 46
2, 2520, Note_on_c, 0, 78, 60
2, 2520, Note_on_c, 0, 54, 76
2, 2579, Note_off_c, 0, 78, 64
2, 2579, Note_off_c, 0, 54, 88
2, 2580, Note_on_c, 0, 73, 88
2, 2638, Control_c, 0, 64, 0
2, 2639, Note_off_c, 0, 73, 40
2, 2640, Note_on_c, 0, 53, 88
2, 2645, Control_c, 0, 64, 127
2, 2759, Note_off_c, 0, 53, 84
2, 2760, Note_on_c, 0, 70, 72
2, 2760, Note_on_c, 0, 53, 100
2, 2760, Note_on_c, 0, 77, 76
2, 2760, Note_on_c, 0, 80, 68
2, 2760, Note_on_c, 0, 73, 50
2, 2878, Control_c, 0, 64, 0
2, 2879, Note_off_c, 0, 70, 96
2, 2879, Note_off_c, 0, 53, 84
2, 2879, Note_off_c, 0, 77, 52
2, 2879, Note_off_c, 0, 80, 38
2, 2879, Note_off_c, 0, 73, 10
2, 2880, Note_on_c, 0, 78, 58
2, 2880, Note_on_c, 0, 75, 64
2, 2880, Note_on_c, 0, 70, 47
2, 2880, Note_on_c, 0, 51, 72
2, 2885, Control_c, 0, 64, 127
2, 2999, Note_off_c, 0, 78, 84
2, 2999, Note_off_c, 0, 75, 68
2, 2999, Note_off_c, 0, 70, 54
2, 2999, Note_off_c, 0, 51, 60
2, 3000, Note_on_c, 0, 63, 49
2, 3000, Note_on_c, 0, 51, 42
2, 3119, Note_off_c, 0, 51, 39
2, 3120, Note_on_c, 0, 51, 35
2, 3239, Note_off_c, 0, 63, 50
2, 3239, Note_off_c, 0, 51, 39
2, 3240, Note_on_c, 0, 51, 36
2, 3240, Note_on_c, 0, 63, 37
2, 3358, Control_c, 0, 64, 0
2, 3359, Note_off_c, 0, 51, 38
2, 3360, Note_on_c, 0, 51, 48
2, 3360, Note_on_c, 0, 70, 44
2, 3360, Note_on_c, 0, 75, 52
2, 3360, Note_on_c, 0, 78, 54
2, 3365, Control_c, 0, 64, 127
2, 3479, Note_off_c, 0, 63, 38
2, 3479, Note_off_c, 0, 51, 54
2, 3479, Note_off_c, 0, 70, 43
2, 3479, Note_off_c, 0, 75, 48
2, 3479, Note_off_c, 0, 78, 48
2, 3480, Note_on_c, 0, 63, 34
2, 3480, Note_on_c, 0, 51, 60
2, 3480, Note_on_c, 0, 75, 47
2, 3539, Note_off_c, 0, 51, 58
2, 3539, Note_off_c, 0, 75, 58
2, 3540, Note_on_c, 0, 75, 58
2, 3599, Note_off_c, 0, 63, 60
2, 3599, Note_off_c, 0, 75, 52
2, 3600, Note_on_c, 0, 49, 54
2, 3659, Note_off_c, 0, 49, 52
2, 3660, Note_on_c, 0, 75, 52
2, 3660, Note_on_c, 0, 61, 68
2, 3718, Control_c, 0, 64, 0
2, 3719, Note_off_c, 0, 75, 64
2, 3720, Note_on_c, 0, 70, 60
2, 3720, Note_on_c, 0, 49, 50
2, 3779, Note_off_c, 0, 70, 50
2, 3779, Note_off_c, 0, 49, 45
2, 3780, Note_on_c, 0, 66, 64
2, 3839, Note_off_c, 0, 61, 56
2, 3839, Note_off_c, 0, 66, 48
2, 3840, Note_on_c, 0, 66, 58
2, 3840, Note_on_c, 0, 47, 88
2, 3840, Note_on_c, 0, 71, 58
2, 3845, Control_c, 0, 64, 127
2, 3899, Note_off_c, 0, 66, 96
2, 3899, Note_off_c, 0, 47, 38
2, 3899, Note_off_c, 0, 71, 88
2, 3900, Note_on_c, 0, 75, 52
2, 3959, Note_off_c, 0, 75, 38
2, 3960, Note_on_c, 0, 71, 56
2, 3960, Note_on_c, 0, 59, 18
2, 3960, Note_on_c, 0, 47, 43
2, 4019, Note_off_c, 0, 71, 58
2, 4019, Note_off_c, 0, 47, 34
2, 4079, Note_off_c, 0, 59, 64
2, 4080, Note_on_c, 0, 47, 56
2, 4139, Note_off_c, 0, 47, 45
2, 4200, Note_on_c, 0, 71, 48
2, 4200, Note_on_c, 0, 66, 46
2, 4200, Note_on_c, 0, 75, 47
2, 4200, Note_on_c, 0, 59, 60
2, 4200, Note_on_c, 0, 47, 60
2, 4259, Note_off_c, 0, 47, 50
2, 4318, Control_c, 0, 64, 0
2, 4319, Note_off_c, 0, 71, 64
2, 4319, Note_off_c, 0, 66, 52
2, 4319, Note_off_c, 0, 75, 68
2, 4319, Note_off_c, 0, 59, 60
2, 4320, Note_on_c, 0, 42, 56
2, 4320, Note_on_c, 0, 66, 68
2, 4325, Control_c, 0, 64, 127
2, 4379, Note_off_c, 0, 42, 39
2, 4379, Note_off_c, 0, 66, 58
2, 4380, Note_on_c, 0, 70, 50
2, 4439, Note_off_c, 0, 70, 84
2, 4440, Note_on_c, 0, 42, 47
2, 4440, Note_on_c, 0, 54, 46
2, 4499, Note_off_c, 0, 42, 40
2, 4499, Note_off_c, 0, 54, 44
2, 4500, Note_on_c, 0, 78, 76
2, 4560, Note_on_c, 0, 42, 45
2, 4619, Note_off_c, 0, 78, 49
2, 4619, Note_off_c, 0, 42, 48
2, 4620, Note_on_c, 0, 73, 52
2, 4679, Note_off_c, 0, 73, 60
2, 4680, Note_on_c, 0, 54, 58
2, 4680, Note_on_c, 0, 70, 56
2, 4680, Note_on_c, 0, 42, 56
2, 4739, Note_off_c, 0, 54, 76
2, 4739, Note_off_c, 0, 70, 54
2, 4739, Note_off_c, 0, 42, 34
2, 4740, Note_on_c, 0, 66, 60
2, 4798, Control_c, 0, 64, 0
2, 4799, Note_off_c, 0, 66, 58
2, 4800, Note_on_c, 0, 73, 68
2, 4800, Note_on_c, 0, 66, 47
2, 4805, Control_c, 0, 64, 127
2, 4859, Note_off_c, 0, 73, 56
2, 4859, Note_off_c, 0, 66, 104
2, 4860, Note_on_c, 0, 71, 40
2, 4860, Note_on_c, 0, 75, 47
2, 4860, Note_on_c, 0, 78, 60
2, 4919, Note_off_c, 0, 71, 58
2, 4919, Note_off_c, 0, 75, 64
2, 4919, Note_off_c, 0, 78, 50
2, 4920, Note_on_c, 0, 75, 47
2, 4920, Note_on_c, 0, 61, 58
2, 4979, Note_off_c, 0, 75, 72
2, 4980, Note_on_c, 0, 78, 47
2, 5039, Note_off_c, 0, 61, 60
2, 5099, Note_off_c, 0, 78, 16
2, 5100, Note_on_c, 0, 75, 39
2, 5159, Note_off_c, 0, 75, 54
2, 5160, Note_on_c, 0, 71, 33
2, 5160, Note_on_c, 0, 61, 52
2, 5160, Note_on_c, 0, 75, 49
2, 5219, Note_off_c, 0, 71, 56
2, 5219, Note_off_c, 0, 75, 52
2, 5220, Note_on_c, 0, 66, 47
2, 5278, Control_c, 0, 64, 0
2, 5279, Note_off_c, 0, 61, 68
2, 5279, Note_off_c, 0, 66, 72
2, 5280, Note_on_c, 0, 78, 56
2, 5280, Note_on_c, 0, 66, 47
2, 5280, Note_on_c, 0, 73, 76
2, 5285, Control_c, 0, 64, 127
2, 5339, Note_off_c, 0, 78, 39
2, 5339, Note_off_c, 0, 66, 104
2, 5339, Note_off_c, 0, 73, 64
2, 5340, Note_on_c, 0, 70, 40
2, 5399, Note_off_c, 0, 70, 58
2, 5400, Note_on_c, 0, 73, 47
2, 5400, Note_on_c, 0, 61, 56
2, 5459, Note_off_c, 0, 73, 72
2, 5460, Note_on_c, 0, 78, 47
2, 5519, Note_off_c, 0, 61, 84
2, 5579, Note_off_c, 0, 78, 16
2, 5580, Note_on_c, 0, 73, 39
2, 5639, Note_off_c, 0, 73, 54
2, 5640, Note_on_c, 0, 78, 48
2, 5640, Note_on_c, 0, 70, 33
2, 5640, Note_on_c, 0, 61, 60
2, 5640, Note_on_c, 0, 49, 24
2, 5699, Note_off_c, 0, 78, 68
2, 5699, Note_off_c, 0, 70, 56
2, 5699, Note_off_c, 0, 61, 64
2, 5700, Note_on_c, 0, 66, 47
2, 5758, Control_c, 0, 64, 0
2, 5759, Note_off_c, 0, 66, 72
2, 5760, Note_on_c, 0, 77, 68
2, 5760, Note_on_c, 0, 66, 47
2, 5760, Note_on_c, 0, 73, 76
2, 5820, Note_on_c, 0, 70, 40
2, 5879, Note_off_c, 0, 49, 41
2, 5879, Note_off_c, 0, 77, 60
2, 5879, Note_off_c, 0, 66, 104
2, 5879, Note_off_c, 0, 73, 64
2, 5880, Note_on_c, 0, 49, 45
2, 5880, Note_on_c, 0, 61, 68
2, 5880, Note_on_c, 0, 73, 47
2, 5940, Note_on_c, 0, 78, 56
2, 5999, Note_off_c, 0, 70, 58
2, 5999, Note_off_c, 0, 49, 37
2, 5999, Note_off_c, 0, 61, 58
2, 5999, Note_off_c, 0, 73, 72
2, 6000, Note_on_c, 0, 51, 58
2, 6059, Note_off_c, 0, 78, 58
2, 6060, Note_on_c, 0, 73, 39
2, 6119, Note_off_c, 0, 51, 50
2, 6119, Note_off_c, 0, 73, 54
2, 6120, Note_on_c, 0, 61, 60
2, 6120, Note_on_c, 0, 80, 60
2, 6120, Note_on_c, 0, 53, 56
2, 6120, Note_on_c, 0, 70, 33
2, 6179, Note_off_c, 0, 70, 56
2, 6180, Note_on_c, 0, 66, 47
2, 6239, Note_off_c, 0, 61, 92
2, 6239, Note_off_c, 0, 80, 58
2, 6239, Note_off_c, 0, 53, 58
2, 6239, Note_off_c, 0, 66, 72
2, 6240, Note_on_c, 0, 82, 72
2, 6240, Note_on_c, 0, 66, 52
2, 6240, Note_on_c, 0, 54, 72
2, 6299, Note_off_c, 0, 66, 72
2, 6300, Note_on_c, 0, 78, 84
2, 6300, Note_on_c, 0, 82, 72
2, 6300, Note_on_c, 0, 73, 92
2, 6300, Note_on_c, 0, 70, 68
2, 6359, Note_off_c, 0, 82, 72
2, 6359, Note_off_c, 0, 54, 60
2, 6360, Note_on_c, 0, 54, 76
2, 6360, Note_on_c, 0, 73, 72
2, 6419, Note_off_c, 0, 73, 76
2, 6419, Note_off_c, 0, 70, 56
2, 6420, Note_on_c, 0, 66, 52
2, 6446, Note_off_c, 0, 82, 50
2, 6479, Note_off_c, 0, 78, 64
2, 6479, Note_off_c, 0, 54, 96
2, 6479, Note_off_c, 0, 73, 40
2, 6479, Note_off_c, 0, 66, 84
2, 6480, Note_on_c, 0, 53, 92
2, 6480, Note_on_c, 0, 66, 52
2, 6539, Note_off_c, 0, 66, 84
2, 6540, Note_on_c, 0, 77, 88
2, 6540, Note_on_c, 0, 80, 76
2, 6540, Note_on_c, 0, 73, 76
2, 6540, Note_on_c, 0, 70, 58
2, 6599, Note_off_c, 0, 53, 96
2, 6600, Note_on_c, 0, 53, 72
2, 6600, Note_on_c, 0, 73, 68
2, 6659, Note_off_c, 0, 73, 72
2, 6659, Note_off_c, 0, 70, 84
2, 6660, Note_on_c, 0, 66, 52
2, 6719, Note_off_c, 0, 77, 92
2, 6719, Note_off_c, 0, 80, 88
2, 6719, Note_off_c, 0, 53, 96
2, 6719, Note_off_c, 0, 73, 64
2, 6719, Note_off_c, 0, 66, 84
2, 6720, Note_on_c, 0, 78, 58
2, 6720, Note_on_c, 0, 75, 64
2, 6720, Note_on_c, 0, 70, 47
2, 6720, Note_on_c, 0, 51, 72
2, 6725, Control_c, 0, 64, 127
2, 6839, Note_off_c, 0, 78, 84
2, 6839, Note_off_c, 0, 75, 68
2, 6839, Note_off_c, 0, 70, 54
2, 6839, Note_off_c, 0, 51, 60
2, 6840, Note_on_c, 0, 63, 49
2, 6840, Note_on_c, 0, 51, 42
2, 6959, Note_off_c, 0, 51, 39
2, 6960, Note_on_c, 0, 51, 35
2, 7020, Note_on_c, 0, 75, 47
2, 7020, Note_on_c, 0, 78, 48
2, 7079, Note_off_c, 0, 63, 50
2, 7079, Note_off_c, 0, 51, 39
2, 7079, Note_off_c, 0, 75, 37
2, 7079, Note_off_c, 0, 78, 43
2, 7080, Note_on_c, 0, 51, 36
2, 7080, Note_on_c, 0, 63, 37
2, 7198, Control_c, 0, 64, 0
2, 7199, Note_off_c, 0, 51, 38
2, 7200, Note_on_c, 0, 51, 48
2, 7200, Note_on_c, 0, 70, 44
2, 7200, Note_on_c, 0, 75, 52
2, 7200, Note_on_c, 0, 78, 54
2, 7205, Control_c, 0, 64, 127
2, 7319, Note_off_c, 0, 63, 38
2, 7319, Note_off_c, 0, 51, 54
2, 7319, Note_off_c, 0, 70, 43
2, 7319, Note_off_c, 0, 75, 48
2, 7319, Note_off_c, 0, 78, 48
2, 7320, Note_on_c, 0, 63, 34
2, 7320, Note_on_c, 0, 51, 60
2, 7379, Note_off_c, 0, 51, 58
2, 7380, Note_on_c, 0, 75, 72
2, 7380, Note_on_c, 0, 78, 80
2, 7439, Note_off_c, 0, 63, 60
2, 7440, Note_on_c, 0, 49, 54
2, 7499, Note_off_c, 0, 75, 60
2, 7499, Note_off_c, 0, 78, 54
2, 7499, Note_off_c, 0, 49, 52
2, 7500, Note_on_c, 0, 61, 68
2, 7558, Control_c, 0, 64, 0
2, 7560, Note_on_c, 0, 70, 60
2, 7560, Note_on_c, 0, 49, 50
2, 7560, Note_on_c, 0, 73, 84
2, 7560, Note_on_c, 0, 77, 76
2, 7619, Note_off_c, 0, 70, 50
2, 7619, Note_off_c, 0, 49, 45
2, 7620, Note_on_c, 0, 66, 64
2, 7679, Note_off_c, 0, 61, 56
2, 7679, Note_off_c, 0, 73, 54
2, 7679, Note_off_c, 0, 77, 58
2, 7679, Note_off_c, 0, 66, 48
2, 7680, Note_on_c, 0, 66, 58
2, 7680, Note_on_c, 0, 47, 88
2, 7680, Note_on_c, 0, 75, 54
2, 7685, Control_c, 0, 64, 127
2, 7739, Note_off_c, 0, 66, 96
2, 7739, Note_off_c, 0, 47, 38
2, 7739, Note_off_c, 0, 75, 80
2, 7740, Note_on_c, 0, 71, 54
2, 7799, Note_off_c, 0, 71, 68
2, 7800, Note_on_c, 0, 66, 60
2, 7800, Note_on_c, 0, 59, 18
2, 7800, Note_on_c, 0, 47, 43
2, 7859, Note_off_c, 0, 66, 68
2, 7859, Note_off_c, 0, 47, 34
2, 7919, Note_off_c, 0, 59, 64
2, 7920, Note_on_c, 0, 47, 56
2, 7979, Note_off_c, 0, 47, 45
2, 8040, Note_on_c, 0, 71, 48
2, 8040, Note_on_c, 0, 66, 46
2, 8040, Note_on_c, 0, 75, 47
2, 8040, Note_on_c, 0, 59, 60
2, 8040, Note_on_c, 0, 47, 60
2, 8099, Note_off_c, 0, 47, 50
2, 8158, Control_c, 0, 64, 0
2, 8159, Note_off_c, 0, 71, 64
2, 8159, Note_off_c, 0, 66, 52
2, 8159, Note_off_c, 0, 75, 68
2, 8159, Note_off_c, 0, 59, 60
2, 8160, Note_on_c, 0, 42, 56
2, 8160, Note_on_c, 0, 66, 68
2, 8165, Control_c, 0, 64, 127
2, 8219, Note_off_c, 0, 42, 39
2, 8219, Note_off_c, 0, 66, 58
2, 8220, Note_on_c, 0, 70, 50
2, 8279, Note_off_c, 0, 70, 84
2, 8280, Note_on_c, 0, 42, 47
2, 8280, Note_on_c, 0, 54, 46
2, 8339, Note_off_c, 0, 42, 40
2, 8339, Note_off_c, 0, 54, 44
2, 8340, Note_on_c, 0, 78, 76
2, 8400, Note_on_c, 0, 42, 45
2, 8459, Note_off_c, 0, 78, 49
2, 8459, Note_off_c, 0, 42, 48
2, 8460, Note_on_c, 0, 73, 52
2, 8519, Note_off_c, 0, 73, 60
2, 8520, Note_on_c, 0, 54, 58
2, 8520, Note_on_c, 0, 70, 56
2, 8520, Note_on_c, 0, 42, 56
2, 8578, Control_c, 0, 64, 0
2, 8579, Note_off_c, 0, 54, 76
2, 8579, Note_off_c, 0, 70, 54
2, 8579, Note_off_c, 0, 42, 34
2, 8640, Note_on_c, 0, 63, 68
2, 8640, Note_on_c, 0, 59, 58
2, 8640, Note_on_c, 0, 73, 64
2, 8640, Note_on_c, 0, 71, 64
2, 8645, Control_c, 0, 64, 127
2, 8699, Note_off_c, 0, 63, 60
2, 8699, Note_off_c, 0, 59, 88
2, 8699, Note_off_c, 0, 73, 54
2, 8699, Note_off_c, 0, 71, 52
2, 8700, Note_on_c, 0, 66, 58
2, 8700, Note_on_c, 0, 75, 54
2, 8759, Note_off_c, 0, 66, 56
2, 8759, Note_off_c, 0, 75, 47
2, 8760, Note_on_c, 0, 59, 52
2, 8760, Note_on_c, 0, 71, 52
2, 8819, Note_off_c, 0, 59, 88
2, 8819, Note_off_c, 0, 71, 39
2, 8940, Note_on_c, 0, 71, 58
2, 8999, Note_off_c, 0, 71, 64
2, 9000, Note_on_c, 0, 75, 60
2, 9000, Note_on_c, 0, 78, 60
2, 9000, Note_on_c, 0, 59, 64
2, 9000, Note_on_c, 0, 66, 56
2, 9059, Note_off_c, 0, 75, 39
2, 9059, Note_off_c, 0, 78, 48
2, 9059, Note_off_c, 0, 59, 72
2, 9059, Note_off_c, 0, 66, 64
2, 9118, Control_c, 0, 64, 0
2, 9120, Note_on_c, 0, 73, 56
2, 9120, Note_on_c, 0, 63, 56
2, 9125, Control_c, 0, 64, 127
2, 9179, Note_off_c, 0, 73, 60
2, 9179, Note_off_c, 0, 63, 60
2, 9180, Note_on_c, 0, 66, 54
2, 9180, Note_on_c, 0, 75, 60
2, 9239, Note_off_c, 0, 66, 48
2, 9239, Note_off_c, 0, 75, 72
2, 9240, Note_on_c, 0, 71, 68
2, 9240, Note_on_c, 0, 59, 76
2, 9299, Note_off_c, 0, 71, 46
2, 9299, Note_off_c, 0, 59, 68
2, 9420, Note_on_c, 0, 71, 60
2, 9479, Note_off_c, 0, 71, 56
2, 9480, Note_on_c, 0, 59, 104
2, 9480, Note_on_c, 0, 70, 52
2, 9539, Note_off_c, 0, 59, 100
2, 9539, Note_off_c, 0, 70, 80
2, 9540, Note_on_c, 0, 68, 50
2, 9598, Control_c, 0, 64, 0
2, 9599, Note_off_c, 0, 68, 60
2, 9600, Note_on_c, 0, 62, 43
2, 9600, Note_on_c, 0, 70, 49
2, 9600, Note_on_c, 0, 80, 72
2, 9600, Note_on_c, 0, 50, 80
2, 9600, Note_on_c, 0, 58, 60
2, 9719, Note_off_c, 0, 62, 35
2, 9720, Note_on_c, 0, 62, 64
2, 9779, Note_off_c, 0, 70, 84
2, 9779, Note_off_c, 0, 80, 84
2, 9780, Note_on_c, 0, 70, 58
2, 9780, Note_on_c, 0, 78, 84
2, 9839, Note_off_c, 0, 62, 37
2, 9840, Note_on_c, 0, 62, 58
2, 9899, Note_off_c, 0, 50, 60
2, 9959, Note_off_c, 0, 58, 84
2, 9959, Note_off_c, 0, 70, 11
2, 9959, Note_off_c, 0, 78, 80
2, 9959, Note_off_c, 0, 62, 39
2, 9960, Note_on_c, 0, 50, 84
2, 9960, Note_on_c, 0, 70, 64
2, 9960, Note_on_c, 0, 77, 68
2, 9960, Note_on_c, 0, 62, 60
2, 10079, Note_off_c, 0, 50, 44
2, 10079, Note_off_c, 0, 62, 52
2, 10080, Note_on_c, 0, 51, 72
2, 10080, Note_on_c, 0, 75, 50
2, 10080, Note_on_c, 0, 63, 64
2, 10085, Control_c, 0, 64, 127
2, 10139, Note_off_c, 0, 70, 72
2, 10139, Note_off_c, 0, 77, 50
2, 10139, Note_off_c, 0, 63, 68
2, 10200, Note_on_c, 0, 63, 49
2, 10259, Note_off_c, 0, 63, 60
2, 10260, Note_on_c, 0, 66, 56
2, 10380, Note_on_c, 0, 63, 47
2, 10439, Note_off_c, 0, 75, 36
2, 10439, Note_off_c, 0, 66, 47
2, 10439, Note_off_c, 0, 63, 60
2, 10440, Note_on_c, 0, 66, 47
2, 10440, Note_on_c, 0, 63, 47
2, 10440, Note_on_c, 0, 75, 52
2, 10499, Note_off_c, 0, 66, 45
2, 10500, Note_on_c, 0, 70, 42
2, 10559, Note_off_c, 0, 51, 88
2, 10559, Note_off_c, 0, 63, 64
2, 10559, Note_off_c, 0, 75, 76
2, 10559, Note_off_c, 0, 70, 47
2, 10680, Note_on_c, 0, 63, 46
2, 10739, Note_off_c, 0, 63, 64
2, 10740, Note_on_c, 0, 75, 85
2, 10740, Note_on_c, 0, 66, 48
2, 10859, Note_off_c, 0, 75, 64
2, 10860, Note_on_c, 0, 77, 60
2, 10860, Note_on_c, 0, 73, 64
2, 10860, Note_on_c, 0, 68, 75
2, 10919, Note_off_c, 0, 66, 48
2, 10979, Note_off_c, 0, 77, 49
2, 10979, Note_off_c, 0, 73, 39
2, 10979, Note_off_c, 0, 68, 60
2, 10980, Note_on_c, 0, 70, 44
2, 11038, Control_c, 0, 64, 0
2, 11039, Note_off_c, 0, 70, 56
2, 11040, Note_on_c, 0, 78, 58
2, 11040, Note_on_c, 0, 70, 60
2, 11040, Note_on_c, 0, 51, 48
2, 11045, Control_c, 0, 64, 127
2, 11160, Note_on_c, 0, 63, 43
2, 11219, Note_off_c, 0, 70, 52
2, 11279, Note_off_c, 0, 63, 72
2, 11399, Note_off_c, 0, 78, 56
2, 11400, Note_on_c, 0, 63, 47
2, 11519, Note_off_c, 0, 63, 58
2, 11520, Note_on_c, 0, 66, 52
2, 11579, Note_off_c, 0, 66, 48
2, 11580, Note_on_c, 0, 70, 46
2, 11639, Note_off_c, 0, 70, 64
2, 11640, Note_on_c, 0, 63, 47
2, 11700, Note_on_c, 0, 70, 60
2, 11700, Note_on_c, 0, 78, 76
2, 11700, Note_on_c, 0, 70, 60
2, 11759, Note_off_c, 0, 63, 58
2, 11759, Note_off_c, 0, 70, 48
2, 11759, Note_off_c, 0, 70, 52
2, 11819, Note_off_c, 0, 78, 84
2, 11820, Note_on_c, 0, 77, 72
2, 11820, Note_on_c, 0, 70, 68
2, 11820, Note_on_c, 0, 68, 52
2, 11879, Note_off_c, 0, 68, 50
2, 11880, Note_on_c, 0, 63, 48
2, 11939, Note_off_c, 0, 51, 76
2, 11998, Control_c, 0, 64, 0
2, 11999, Note_off_c, 0, 77, 72
2, 11999, Note_off_c, 0, 70, 92
2, 11999, Note_off_c, 0, 63, 60
2, 12000, Note_on_c, 0, 75, 64
2, 12000, Note_on_c, 0, 66, 64
2, 12000, Note_on_c, 0, 78, 58
2, 12000, Note_on_c, 0, 75, 64
2, 12000, Note_on_c, 0, 70, 47
2, 12000, Note_on_c, 0, 51, 72
2, 12005, Control_c, 0, 64, 127
2, 12119, Note_off_c, 0, 75, 68
2, 12119, Note_off_c, 0, 66, 58
2, 12119, Note_off_c, 0, 78, 84
2, 12119, Note_off_c, 0, 75, 68
2, 12119, Note_off_c, 0, 70, 54
2, 12119, Note_off_c, 0, 51, 60
2, 12120, Note_on_c, 0, 63, 49
2, 12120, Note_on_c, 0, 51, 42
2, 12239, Note_off_c, 0, 63, 58
2, 12239, Note_off_c, 0, 51, 39
2, 12240, Note_on_c, 0, 63, 54
2, 12240, Note_on_c, 0, 51, 35
2, 12300, Note_on_c, 0, 70, 46
2, 12359, Note_off_c, 0, 63, 50
2, 12359, Note_off_c, 0, 51, 39
2, 12359, Note_off_c, 0, 70, 72
2, 12360, Note_on_c, 0, 66, 60
2, 12360, Note_on_c, 0, 51, 36
2, 12360, Note_on_c, 0, 63, 37
2, 12419, Note_off_c, 0, 66, 54
2, 12478, Control_c, 0, 64, 0
2, 12479, Note_off_c, 0, 51, 38
2, 12479, Note_off_c, 0, 63, 54
2, 12480, Note_on_c, 0, 51, 48
2, 12480, Note_on_c, 0, 70, 44
2, 12480, Note_on_c, 0, 75, 52
2, 12480, Note_on_c, 0, 78, 54
2, 12480, Note_on_c, 0, 63, 52
2, 12485, Control_c, 0, 64, 127
2, 12539, Note_off_c, 0, 70, 56
2, 12540, Note_on_c, 0, 70, 47
2, 12599, Note_off_c, 0, 51, 54
2, 12599, Note_off_c, 0, 75, 48
2, 12599, Note_off_c, 0, 78, 48
2, 12599, Note_off_c, 0, 63, 38
2, 12599, Note_off_c, 0, 70, 43
2, 12600, Note_on_c, 0, 66, 45
2, 12600, Note_on_c, 0, 63, 34
2, 12600, Note_on_c, 0, 51, 60
2, 12600, Note_on_c, 0, 75, 47
2, 12659, Note_off_c, 0, 66, 20
2, 12659, Note_off_c, 0, 51, 58
2, 12659, Note_off_c, 0, 75, 58
2, 12660, Note_on_c, 0, 75, 58
2, 12719, Note_off_c, 0, 63, 60
2, 12719, Note_off_c, 0, 75, 52
2, 12720, Note_on_c, 0, 49, 54
2, 12720, Note_on_c, 0, 63, 58
2, 12779, Note_off_c, 0, 49, 52
2, 12779, Note_off_c, 0, 63, 84
2, 12780, Note_on_c, 0, 75, 52
2, 12780, Note_on_c, 0, 61, 68
2, 12780, Note_on_c, 0, 66, 56
2, 12838, Control_c, 0, 64, 0
2, 12839, Note_off_c, 0, 75, 64
2, 12839, Note_off_c, 0, 66, 54
2, 12840, Note_on_c, 0, 70, 60
2, 12840, Note_on_c, 0, 49, 50
2, 12899, Note_off_c, 0, 70, 50
2, 12899, Note_off_c, 0, 49, 45
2, 12900, Note_on_c, 0, 66, 64
2, 12959, Note_off_c, 0, 61, 56
2, 12959, Note_off_c, 0, 66, 48
2, 12960, Note_on_c, 0, 66, 58
2, 12960, Note_on_c, 0, 47, 88
2, 12960, Note_on_c, 0, 71, 58
2, 12965, Control_c, 0, 64, 127
2, 13019, Note_off_c, 0, 66, 96
2, 13019, Note_off_c, 0, 47, 38
2, 13019, Note_off_c, 0, 71, 88
2, 13020, Note_on_c, 0, 78, 60
2, 13079, Note_off_c, 0, 78, 72
2, 13080, Note_on_c, 0, 75, 60
2, 13080, Note_on_c, 0, 71, 56
2, 13080, Note_on_c, 0, 59, 18
2, 13080, Note_on_c, 0, 47, 43
2, 13139, Note_off_c, 0, 75, 64
2, 13139, Note_off_c, 0, 71, 58
2, 13139, Note_off_c, 0, 47, 34
2, 13199, Note_off_c, 0, 59, 64
2, 13200, Note_on_c, 0, 71, 70
2, 13200, Note_on_c, 0, 47, 56
2, 13259, Note_off_c, 0, 71, 56
2, 13259, Note_off_c, 0, 47, 45
2, 13260, Note_on_c, 0, 78, 48
2, 13319, Note_off_c, 0, 78, 80
2, 13320, Note_on_c, 0, 71, 48
2, 13320, Note_on_c, 0, 66, 46
2, 13320, Note_on_c, 0, 75, 47
2, 13320, Note_on_c, 0, 59, 60
2, 13320, Note_on_c, 0, 47, 60
2, 13379, Note_off_c, 0, 71, 58
2, 13379, Note_off_c, 0, 47, 50
2, 13380, Note_on_c, 0, 71, 70
2, 13438, Control_c, 0, 64, 0
2, 13439, Note_off_c, 0, 66, 52
2, 13439, Note_off_c, 0, 75, 68
2, 13439, Note_off_c, 0, 59, 60
2, 13439, Note_off_c, 0, 71, 64
2, 13440, Note_on_c, 0, 42, 56
2, 13440, Note_on_c, 0, 66, 68
2, 13445, Control_c, 0, 64, 127
2, 13499, Note_off_c, 0, 42, 39
2, 13499, Note_off_c, 0, 66, 58
2, 13500, Note_on_c, 0, 70, 50
2, 13559, Note_off_c, 0, 70, 84
2, 13560, Note_on_c, 0, 42, 47
2, 13560, Note_on_c, 0, 54, 46
2, 13560, Note_on_c, 0, 73, 64
2, 13619, Note_off_c, 0, 42, 40
2, 13619, Note_off_c, 0, 54, 44
2, 13619, Note_off_c, 0, 73, 56
2, 13620, Note_on_c, 0, 78, 76
2, 13680, Note_on_c, 0, 42, 45
2, 13739, Note_off_c, 0, 78, 49
2, 13739, Note_off_c, 0, 42, 48
2, 13740, Note_on_c, 0, 73, 52
2, 13799, Note_off_c, 0, 73, 60
2, 13800, Note_on_c, 0, 54, 58
2, 13800, Note_on_c, 0, 70, 56
2, 13800, Note_on_c, 0, 42, 56
2, 13859, Note_off_c, 0, 54, 76
2, 13859, Note_off_c, 0, 70, 54
2, 13859, Note_off_c, 0, 42, 34
2, 13860, Note_on_c, 0, 66, 60
2, 13918, Control_c, 0, 64, 0
2, 13919, Note_off_c, 0, 66, 58
2, 13920, Note_on_c, 0, 66, 47
2, 13920, Note_on_c, 0, 75, 64
2, 13920, Note_on_c, 0, 78, 54
2, 13920, Note_on_c, 0, 83, 64
2, 13925, Control_c, 0, 64, 127
2, 13979, Note_off_c, 0, 66, 104
2, 13979, Note_off_c, 0, 78, 50
2, 13979, Note_off_c, 0, 83, 49
2, 13980, Note_on_c, 0, 71, 40
2, 14039, Note_off_c, 0, 71, 58
2, 14040, Note_on_c, 0, 61, 72
2, 14099, Note_off_c, 0, 75, 31
2, 14100, Note_on_c, 0, 78, 47
2, 14159, Note_off_c, 0, 61, 104
2, 14160, Note_on_c, 0, 83, 60
2, 14219, Note_off_c, 0, 78, 16
2, 14219, Note_off_c, 0, 83, 76
2, 14220, Note_on_c, 0, 87, 37
2, 14220, Note_on_c, 0, 75, 39
2, 14279, Note_off_c, 0, 87, 37
2, 14279, Note_off_c, 0, 75, 54
2, 14280, Note_on_c, 0, 61, 80
2, 14280, Note_on_c, 0, 83, 58
2, 14280, Note_on_c, 0, 71, 33
2, 14280, Note_on_c, 0, 75, 49
2, 14339, Note_off_c, 0, 83, 56
2, 14339, Note_off_c, 0, 71, 56
2, 14339, Note_off_c, 0, 75, 52
2, 14340, Note_on_c, 0, 66, 47
2, 14398, Control_c, 0, 64, 0
2, 14399, Note_off_c, 0, 61, 84
2, 14399, Note_off_c, 0, 66, 72
2, 14400, Note_on_c, 0, 78, 56
2, 14400, Note_on_c, 0, 66, 47
2, 14400, Note_on_c, 0, 73, 76
2, 14400, Note_on_c, 0, 82, 84
2, 14405, Control_c, 0, 64, 127
2, 14459, Note_off_c, 0, 78, 39
2, 14459, Note_off_c, 0, 66, 104
2, 14459, Note_off_c, 0, 73, 64
2, 14459, Note_off_c, 0, 82, 50
2, 14460, Note_on_c, 0, 70, 40
2, 14519, Note_off_c, 0, 70, 58
2, 14520, Note_on_c, 0, 61, 72
2, 14520, Note_on_c, 0, 73, 47
2, 14579, Note_off_c, 0, 73, 72
2, 14580, Note_on_c, 0, 78, 47
2, 14639, Note_off_c, 0, 61, 88
2, 14640, Note_on_c, 0, 82, 52
2, 14699, Note_off_c, 0, 78, 16
2, 14699, Note_off_c, 0, 82, 68
2, 14700, Note_on_c, 0, 85, 45
2, 14700, Note_on_c, 0, 73, 39
2, 14759, Note_off_c, 0, 85, 64
2, 14759, Note_off_c, 0, 73, 54
2, 14760, Note_on_c, 0, 61, 80
2, 14760, Note_on_c, 0, 82, 56
2, 14760, Note_on_c, 0, 78, 48
2, 14760, Note_on_c, 0, 70, 33
2, 14760, Note_on_c, 0, 49, 24
2, 14819, Note_off_c, 0, 82, 80
2, 14819, Note_off_c, 0, 78, 68
2, 14819, Note_off_c, 0, 70, 56
2, 14820, Note_on_c, 0, 66, 47
2, 14878, Control_c, 0, 64, 0
2, 14879, Note_off_c, 0, 61, 84
2, 14879, Note_off_c, 0, 66, 72
2, 14880, Note_on_c, 0, 77, 68
2, 14880, Note_on_c, 0, 66, 47
2, 14880, Note_on_c, 0, 73, 76
2, 14940, Note_on_c, 0, 70, 40
2, 14999, Note_off_c, 0, 49, 41
2, 14999, Note_off_c, 0, 77, 60
2, 14999, Note_off_c, 0, 66, 104
2, 14999, Note_off_c, 0, 73, 64
2, 15000, Note_on_c, 0, 49, 45
2, 15000, Note_on_c, 0, 61, 68
2, 15000, Note_on_c, 0, 73, 47
2, 15060, Note_on_c, 0, 78, 56
2, 15119, Note_off_c, 0, 70, 58
2, 15119, Note_off_c, 0, 49, 37
2, 15119, Note_off_c, 0, 61, 58
2, 15119, Note_off_c, 0, 73, 72
2, 15120, Note_on_c, 0, 51, 58
2, 15179, Note_off_c, 0, 78, 58
2, 15180, Note_on_c, 0, 73, 39
2, 15239, Note_off_c, 0, 51, 50
2, 15239, Note_off_c, 0, 73, 54
2, 15240, Note_on_c, 0, 61, 60
2, 15240, Note_on_c, 0, 80, 60
2, 15240, Note_on_c, 0, 53, 56
2, 15240, Note_on_c, 0, 70, 33
2, 15299, Note_off_c, 0, 70, 56
2, 15300, Note_on_c, 0, 66, 47
2, 15359, Note_off_c, 0, 61, 92
2, 15359, Note_off_c, 0, 80, 58
2, 15359, Note_off_c, 0, 53, 58
2, 15359, Note_off_c, 0, 66, 72
2, 15360, Note_on_c, 0, 82, 72
2, 15360, Note_on_c, 0, 66, 52
2, 15360, Note_on_c, 0, 54, 72
2, 15419, Note_off_c, 0, 66, 72
2, 15420, Note_on_c, 0, 78, 84
2, 15420, Note_on_c, 0, 82, 72
2, 15420, Note_on_c, 0, 73, 92
2, 15420, Note_on_c, 0, 70, 68
2, 15479, Note_off_c, 0, 82, 72
2, 15479, Note_off_c, 0, 54, 60
2, 15480, Note_on_c, 0, 54, 76
2, 15480, Note_on_c, 0, 73, 72
2, 15539, Note_off_c, 0, 73, 76
2, 15539, Note_off_c, 0, 70, 56
2, 15540, Note_on_c, 0, 66, 52
2, 15566, Note_off_c, 0, 82, 50
2, 15599, Note_off_c, 0, 78, 64
2, 15599, Note_off_c, 0, 54, 96
2, 15599, Note_off_c, 0, 73, 40
2, 15599, Note_off_c, 0, 66, 84
2, 15600, Note_on_c, 0, 53, 92
2, 15600, Note_on_c, 0, 66, 52
2, 15659, Note_off_c, 0, 66, 84
2, 15660, Note_on_c, 0, 77, 88
2, 15660, Note_on_c, 0, 80, 76
2, 15660, Note_on_c, 0, 73, 76
2, 15660, Note_on_c, 0, 70, 58
2, 15719, Note_off_c, 0, 53, 96
2, 15720, Note_on_c, 0, 53, 72
2, 15720, Note_on_c, 0, 73, 68
2, 15779, Note_off_c, 0, 73, 72
2, 15779, Note_off_c, 0, 70, 84
2, 15780, Note_on_c, 0, 66, 52
2, 15839, Note_off_c, 0, 77, 92
2, 15839, Note_off_c, 0, 80, 88
2, 15839, Note_off_c, 0, 53, 96
2, 15839, Note_off_c, 0, 73, 64
2, 15839, Note_off_c, 0, 66, 84
2, 15840, Note_on_c, 0, 78, 58
2, 15840, Note_on_c, 0, 75, 64
2, 15840, Note_on_c, 0, 70, 47
2, 15840, Note_on_c, 0, 51, 72
2, 15845, Control_c, 0, 64, 127
2, 15959, Note_off_c, 0, 78, 84
2, 15959, Note_off_c, 0, 75, 68
2, 15959, Note_off_c, 0, 70, 54
2, 15959, Note_off_c, 0, 51, 60
2, 15960, Note_on_c, 0, 63, 49
2, 15960, Note_on_c, 0, 51, 42
2, 16079, Note_off_c, 0, 51, 39
2, 16080, Note_on_c, 0, 51, 35
2, 16140, Note_on_c, 0, 75, 47
2, 16140, Note_on_c, 0, 78, 48
2, 16199, Note_off_c, 0, 63, 50
2, 16199, Note_off_c, 0, 51, 39
2, 16199, Note_off_c, 0, 75, 37
2, 16199, Note_off_c, 0, 78, 43
2, 16200, Note_on_c, 0, 51, 36
2, 16200, Note_on_c, 0, 63, 37
2, 16318, Control_c, 0, 64, 0
2, 16319, Note_off_c, 0, 51, 38
2, 16320, Note_on_c, 0, 51, 48
2, 16320, Note_on_c, 0, 70, 44
2, 16320, Note_on_c, 0, 75, 52
2, 16320, Note_on_c, 0, 78, 54
2, 16325, Control_c, 0, 64, 127
2, 16439, Note_off_c, 0, 63, 38
2, 16439, Note_off_c, 0, 51, 54
2, 16439, Note_off_c, 0, 70, 43
2, 16439, Note_off_c, 0, 75, 48
2, 16439, Note_off_c, 0, 78, 48
2, 16440, Note_on_c, 0, 63, 34
2, 16440, Note_on_c, 0, 51, 60
2, 16499, Note_off_c, 0, 51, 58
2, 16500, Note_on_c, 0, 75, 72
2, 16500, Note_on_c, 0, 78, 80
2, 16559, Note_off_c, 0, 63, 60
2, 16560, Note_on_c, 0, 49, 54
2, 16619, Note_off_c, 0, 75, 60
2, 16619, Note_off_c, 0, 78, 54
2, 16619, Note_off_c, 0, 49, 52
2, 16620, Note_on_c, 0, 61, 68
2, 16678, Control_c, 0, 64, 0
2, 16680, Note_on_c, 0, 70, 60
2, 16680, Note_on_c, 0, 49, 50
2, 16680, Note_on_c, 0, 73, 84
2, 16680, Note_on_c, 0, 77, 76
2, 16739, Note_off_c, 0, 70, 50
2, 16739, Note_off_c, 0, 49, 45
2, 16740, Note_on_c, 0, 66, 64
2, 16799, Note_off_c, 0, 61, 56
2, 16799, Note_off_c, 0, 73, 54
2, 16799, Note_off_c, 0, 77, 58
2, 16799, Note_off_c, 0, 66, 48
2, 16800, Note_on_c, 0, 66, 58
2, 16800, Note_on_c, 0, 47, 88
2, 16800, Note_on_c, 0, 75, 54
2, 16805, Control_c, 0, 64, 127
2, 16859, Note_off_c, 0, 66, 96
2, 16859, Note_off_c, 0, 47, 38
2, 16859, Note_off_c, 0, 75, 80
2, 16860, Note_on_c, 0, 71, 54
2, 16919, Note_off_c, 0, 71, 68
2, 16920, Note_on_c, 0, 66, 60
2, 16920, Note_on_c, 0, 59, 18
2, 16920, Note_on_c, 0, 47, 43
2, 16979, Note_off_c, 0, 66, 68
2, 16979, Note_off_c, 0, 47, 34
2, 17039, Note_off_c, 0, 59, 64
2, 17040, Note_on_c, 0, 47, 56
2, 17099, Note_off_c, 0, 47, 45
2, 17160, Note_on_c, 0, 71, 48
2, 17160, Note_on_c, 0, 66, 46
2, 17160, Note_on_c, 0, 75, 47
2, 17160, Note_on_c, 0, 59, 60
2, 17160, Note_on_c, 0, 47, 60
2, 17219, Note_off_c, 0, 47, 50
2, 17278, Control_c, 0, 64, 0
2, 17279, Note_off_c, 0, 71, 64
2, 17279, Note_off_c, 0, 66, 52
2, 17279, Note_off_c, 0, 75, 68
2, 17279, Note_off_c, 0, 59, 60
2, 17280, Note_on_c, 0, 42, 56
2, 17280, Note_on_c, 0, 66, 68
2, 17285, Control_c, 0, 64, 127
2, 17339, Note_off_c, 0, 42, 39
2, 17339, Note_off_c, 0, 66, 58
2, 17340, Note_on_c, 0, 70, 50
2, 17399, Note_off_c, 0, 70, 84
2, 17400, Note_on_c, 0, 42, 47
2, 17400, Note_on_c, 0, 54, 46
2, 17459, Note_off_c, 0, 42, 40
2, 17459, Note_off_c, 0, 54, 44
2, 17460, Note_on_c, 0, 78, 76
2, 17520, Note_on_c, 0, 42, 45
2, 17579, Note_off_c, 0, 78, 49
2, 17579, Note_off_c, 0, 42, 48
2, 17580, Note_on_c, 0, 73, 52
2, 17639, Note_off_c, 0, 73, 60
2, 17640, Note_on_c, 0, 54, 58
2, 17640, Note_on_c, 0, 70, 56
2, 17640, Note_on_c, 0, 42, 56
2, 17698, Control_c, 0, 64, 0
2, 17699, Note_off_c, 0, 54, 76
2, 17699, Note_off_c, 0, 70, 54
2, 17699, Note_off_c, 0, 42, 34
2, 17760, Note_on_c, 0, 63, 68
2, 17760, Note_on_c, 0, 73, 64
2, 17760, Note_on_c, 0, 71, 64
2, 17765, Control_c, 0, 64, 127
2, 17819, Note_off_c, 0, 63, 60
2, 17819, Note_off_c, 0, 73, 54
2, 17819, Note_off_c, 0, 71, 52
2, 17820, Note_on_c, 0, 66, 58
2, 17820, Note_on_c, 0, 75, 54
2, 17879, Note_off_c, 0, 66, 56
2, 17879, Note_off_c, 0, 75, 47
2, 17880, Note_on_c, 0, 59, 52
2, 17880, Note_on_c, 0, 71, 52
2, 17939, Note_off_c, 0, 59, 88
2, 17939, Note_off_c, 0, 71, 39
2, 18060, Note_on_c, 0, 71, 58
2, 18119, Note_off_c, 0, 71, 64
2, 18120, Note_on_c, 0, 75, 60
2, 18120, Note_on_c, 0, 78, 60
2, 18120, Note_on_c, 0, 59, 64
2, 18120, Note_on_c, 0, 66, 56
2, 18179, Note_off_c, 0, 75, 39
2, 18179, Note_off_c, 0, 78, 48
2, 18179, Note_off_c, 0, 59, 72
2, 18179, Note_off_c, 0, 66, 64
2, 18238, Control_c, 0, 64, 0
2, 18240, Note_on_c, 0, 73, 56
2, 18240, Note_on_c, 0, 63, 56
2, 18245, Control_c, 0, 64, 127
2, 18299, Note_off_c, 0, 73, 60
2, 18299, Note_off_c, 0, 63, 60
2, 18300, Note_on_c, 0, 66, 54
2, 18300, Note_on_c, 0, 75, 60
2, 18359, Note_off_c, 0, 66, 48
2, 18359, Note_off_c, 0, 75, 72
2, 18360, Note_on_c, 0, 71, 68
2, 18360, Note_on_c, 0, 59, 76
2, 18419, Note_off_c, 0, 71, 46
2, 18419, Note_off_c, 0, 59, 68
2, 18540, Note_on_c, 0, 71, 60
2, 18599, Note_off_c, 0, 71, 56
2, 18600, Note_on_c, 0, 59, 104
2, 18600, Note_on_c, 0, 70, 52
2, 18659, Note_off_c, 0, 59, 100
2, 18659, Note_off_c, 0, 70, 80
2, 18660, Note_on_c, 0, 68, 50
2, 18718, Control_c, 0, 64, 0
2, 18719, Note_off_c, 0, 68, 60
2, 18720, Note_on_c, 0, 62, 43
2, 18720, Note_on_c, 0, 70, 49
2, 18720, Note_on_c, 0, 80, 72
2, 18720, Note_on_c, 0, 50, 80
2, 18720, Note_on_c, 0, 58, 60
2, 18839, Note_off_c, 0, 62, 35
2, 18840, Note_on_c, 0, 62, 64
2, 18899, Note_off_c, 0, 70, 84
2, 18899, Note_off_c, 0, 80, 84
2, 18900, Note_on_c, 0, 70, 58
2, 18900, Note_on_c, 0, 78, 84
2, 18959, Note_off_c, 0, 62, 37
2, 18960, Note_on_c, 0, 62, 58
2, 19019, Note_off_c, 0, 50, 60
2, 19079, Note_off_c, 0, 58, 84
2, 19079, Note_off_c, 0, 70, 11
2, 19079, Note_off_c, 0, 78, 80
2, 19079, Note_off_c, 0, 62, 39
2, 19080, Note_on_c, 0, 50, 84
2, 19080, Note_on_c, 0, 70, 64
2, 19080, Note_on_c, 0, 77, 68
2, 19080, Note_on_c, 0, 62, 60
2, 19199, Note_off_c, 0, 50, 44
2, 19199, Note_off_c, 0, 62, 52
2, 19200, Note_on_c, 0, 51, 72
2, 19200, Note_on_c, 0, 75, 50
2, 19200, Note_on_c, 0, 63, 64
2, 19205, Control_c, 0, 64, 127
2, 19259, Note_off_c, 0, 70, 72
2, 19259, Note_off_c, 0, 77, 50
2, 19259, Note_off_c, 0, 63, 68
2, 19320, Note_on_c, 0, 63, 49
2, 19379, Note_off_c, 0, 63, 60
2, 19380, Note_on_c, 0, 66, 56
2, 19500, Note_on_c, 0, 63, 47
2, 19559, Note_off_c, 0, 75, 36
2, 19559, Note_off_c, 0, 66, 47
2, 19559, Note_off_c, 0, 63, 60
2, 19560, Note_on_c, 0, 66, 47
2, 19560, Note_on_c, 0, 63, 47
2, 19560, Note_on_c, 0, 75, 52
2, 19619, Note_off_c, 0, 66, 45
2, 19620, Note_on_c, 0, 70, 42
2, 19678, Control_c, 0, 64, 0
2, 19679, Note_off_c, 0, 63, 64
2, 19679, Note_off_c, 0, 75, 76
2, 19679, Note_off_c, 0, 70, 47
2, 19680, Note_on_c, 0, 63, 64
2, 19680, Note_on_c, 0, 70, 52
2, 19680, Note_on_c, 0, 75, 76
2, 19685, Control_c, 0, 64, 127
2, 19739, Note_off_c, 0, 63, 68
2, 19739, Note_off_c, 0, 70, 21
2, 19739, Note_off_c, 0, 75, 49
2, 19800, Note_on_c, 0, 63, 49
2, 19859, Note_off_c, 0, 63, 60
2, 19860, Note_on_c, 0, 66, 56
2, 19980, Note_on_c, 0, 63, 47
2, 20039, Note_off_c, 0, 66, 47
2, 20039, Note_off_c, 0, 63, 60
2, 20040, Note_on_c, 0, 66, 47
2, 20040, Note_on_c, 0, 63, 47
2, 20099, Note_off_c, 0, 66, 45
2, 20100, Note_on_c, 0, 70, 42
2, 20158, Control_c, 0, 64, 0
2, 20159, Note_off_c, 0, 51, 88
2, 20159, Note_off_c, 0, 63, 64
2, 20159, Note_off_c, 0, 70, 47
2, 20160, Note_on_c, 0, 51, 72
2, 20160, Note_on_c, 0, 63, 64
2, 20160, Note_on_c, 0, 70, 68
2, 20160, Note_on_c, 0, 75, 88
2, 20165, Control_c, 0, 64, 127
2, 20219, Note_off_c, 0, 63, 68
2, 20219, Note_off_c, 0, 70, 49
2, 20219, Note_off_c, 0, 75, 46
2, 20280, Note_on_c, 0, 63, 49
2, 20339, Note_off_c, 0, 63, 60
2, 20340, Note_on_c, 0, 66, 56
2, 20460, Note_on_c, 0, 63, 47
2, 20519, Note_off_c, 0, 66, 47
2, 20519, Note_off_c, 0, 63, 60
2, 20520, Note_on_c, 0, 75, 64
2, 20520, Note_on_c, 0, 66, 47
2, 20520, Note_on_c, 0, 63, 47
2, 20579, Note_off_c, 0, 75, 40
2, 20579, Note_off_c, 0, 66, 45
2, 20580, Note_on_c, 0, 70, 42
2, 20638, Control_c, 0, 64, 0
2, 20639, Note_off_c, 0, 63, 64
2, 20639, Note_off_c, 0, 70, 47
2, 20640, Note_on_c, 0, 63, 64
2, 20640, Note_on_c, 0, 75, 92
2, 20645, Control_c, 0, 64, 127
2, 20699, Note_off_c, 0, 63, 68
2, 20759, Note_off_c, 0, 75, 46
2, 20760, Note_on_c, 0, 63, 49
2, 20819, Note_off_c, 0, 63, 60
2, 20820, Note_on_c, 0, 66, 56
2, 20820, Note_on_c, 0, 75, 76
2, 20939, Note_off_c, 0, 75, 72
2, 20940, Note_on_c, 0, 63, 47
2, 20999, Note_off_c, 0, 66, 47
2, 20999, Note_off_c, 0, 63, 60
2, 21000, Note_on_c, 0, 66, 47
2, 21000, Note_on_c, 0, 63, 47
2, 21000, Note_on_c, 0, 73, 100
2, 21059, Note_off_c, 0, 66, 45
2, 21059, Note_off_c, 0, 73, 84
2, 21060, Note_on_c, 0, 70, 42
2, 21118, Control_c, 0, 64, 0
2, 21119, Note_off_c, 0, 51, 88
2, 21119, Note_off_c, 0, 63, 64
2, 21119, Note_off_c, 0, 70, 47
2, 21120, Note_on_c, 0, 71, 96
2, 21120, Note_on_c, 0, 59, 84
2, 21120, Note_on_c, 0, 47, 96
2, 21179, Note_off_c, 0, 71, 84
2, 21240, Note_on_c, 0, 75, 80
2, 21240, Note_on_c, 0, 78, 88
2, 21240, Note_on_c, 0, 83, 100
2, 21299, Note_off_c, 0, 75, 88
2, 21299, Note_off_c, 0, 78, 96
2, 21299, Note_off_c, 0, 83, 92
2, 21360, Note_on_c, 0, 71, 88
2, 21419, Note_off_c, 0, 71, 96
2, 21480, Note_on_c, 0, 83, 104
2, 21480, Note_on_c, 0, 75, 88
2, 21480, Note_on_c, 0, 78, 92
2, 21539, Note_off_c, 0, 83, 88
2, 21539, Note_off_c, 0, 75, 80
2, 21539, Note_off_c, 0, 78, 92
2, 21600, Note_on_c, 0, 71, 96
2, 21659, Note_off_c, 0, 71, 84
2, 21720, Note_on_c, 0, 78, 96
2, 21720, Note_on_c, 0, 75, 80
2, 21720, Note_on_c, 0, 83, 104
2, 21779, Note_off_c, 0, 78, 92
2, 21779, Note_off_c, 0, 75, 84
2, 21779, Note_off_c, 0, 83, 92
2, 21840, Note_on_c, 0, 71, 88
2, 21899, Note_off_c, 0, 71, 96
2, 21960, Note_on_c, 0, 75, 88
2, 21960, Note_on_c, 0, 83, 100
2, 21960, Note_on_c, 0, 78, 92
2, 22019, Note_off_c, 0, 75, 76
2, 22019, Note_off_c, 0, 83, 88
2, 22019, Note_off_c, 0, 78, 88
2, 22079, Note_off_c, 0, 59, 80
2, 22079, Note_off_c, 0, 47, 76
2, 22080, Note_on_c, 0, 68, 92
2, 22080, Note_on_c, 0, 64, 108
2, 22080, Note_on_c, 0, 52, 104
2, 22139, Note_off_c, 0, 68, 84
2, 22200, Note_on_c, 0, 83, 80
2, 22200, Note_on_c, 0, 80, 88
2, 22200, Note_on_c, 0, 76, 68
2, 22259, Note_off_c, 0, 83, 72
2, 22259, Note_off_c, 0, 80, 88
2, 22259, Note_off_c, 0, 76, 58
2, 22320, Note_on_c, 0, 68, 88
2, 22379, Note_off_c, 0, 68, 88
2, 22440, Note_on_c, 0, 83, 92
2, 22440, Note_on_c, 0, 80, 96
2, 22440, Note_on_c, 0, 76, 108
2, 22499, Note_off_c, 0, 83, 88
2, 22499, Note_off_c, 0, 80, 92
2, 22499, Note_off_c, 0, 76, 96
2, 22560, Note_on_c, 0, 68, 96
2, 22619, Note_off_c, 0, 68, 88
2, 22680, Note_on_c, 0, 80, 92
2, 22680, Note_on_c, 0, 76, 76
2, 22680, Note_on_c, 0, 83, 92
2, 22739, Note_off_c, 0, 80, 92
2, 22739, Note_off_c, 0, 76, 88
2, 22739, Note_off_c, 0, 83, 84
2, 22800, Note_on_c, 0, 68, 100
2, 22859, Note_off_c, 0, 68, 100
2, 22920, Note_on_c, 0, 83, 96
2, 22920, Note_on_c, 0, 76, 92
2, 22920, Note_on_c, 0, 80, 88
2, 22979, Note_off_c, 0, 83, 104
2, 22979, Note_off_c, 0, 76, 104
2, 22979, Note_off_c, 0, 80, 92
2, 23039, Note_off_c, 0, 64, 84
2, 23039, Note_off_c, 0, 52, 88
2, 23040, Note_on_c, 0, 57, 96
2, 23040, Note_on_c, 0, 69, 108
2, 23040, Note_on_c, 0, 45, 96
2, 23099, Note_off_c, 0, 69, 76
2, 23160, Note_on_c, 0, 81, 96
2, 23160, Note_on_c, 0, 76, 100
2, 23160, Note_on_c, 0, 73, 72
2, 23219, Note_off_c, 0, 81, 96
2, 23219, Note_off_c, 0, 76, 96
2, 23219, Note_off_c, 0, 73, 49
2, 23280, Note_on_c, 0, 69, 104
2, 23339, Note_off_c, 0, 69, 96
2, 23400, Note_on_c, 0, 81, 96
2, 23400, Note_on_c, 0, 76, 104
2, 23400, Note_on_c, 0, 73, 80
2, 23459, Note_off_c, 0, 81, 104
2, 23459, Note_off_c, 0, 76, 104
2, 23459, Note_off_c, 0, 73, 56
2, 23520, Note_on_c, 0, 69, 100
2, 23579, Note_off_c, 0, 69, 84
2, 23640, Note_on_c, 0, 81, 96
2, 23640, Note_on_c, 0, 76, 96
2, 23640, Note_on_c, 0, 73, 84
2, 23699, Note_off_c, 0, 81, 92
2, 23699, Note_off_c, 0, 76, 100
2, 23699, Note_off_c, 0, 73, 58
2, 23760, Note_on_c, 0, 69, 112
2, 23819, Note_off_c, 0, 69, 100
2, 23880, Note_on_c, 0, 76, 92
2, 23880, Note_on_c, 0, 81, 96
2, 23880, Note_on_c, 0, 73, 68
2, 23939, Note_off_c, 0, 76, 108
2, 23939, Note_off_c, 0, 81, 108
2, 23939, Note_off_c, 0, 73, 80
2, 23999, Note_off_c, 0, 57, 96
2, 23999, Note_off_c, 0, 45, 92
2, 24000, Note_on_c, 0, 66, 84
2, 24000, Note_on_c, 0, 62, 82
2, 24000, Note_on_c, 0, 50, 104
2, 24059, Note_off_c, 0, 66, 68
2, 24120, Note_on_c, 0, 74, 88
2, 24120, Note_on_c, 0, 69, 80
2, 24120, Note_on_c, 0, 78, 80
2, 24179, Note_off_c, 0, 74, 92
2, 24179, Note_off_c, 0, 69, 76
2, 24179, Note_off_c, 0, 78, 58
2, 24240, Note_on_c, 0, 66, 92
2, 24299, Note_off_c, 0, 66, 68
2, 24360, Note_on_c, 0, 69, 84
2, 24360, Note_on_c, 0, 74, 84
2, 24360, Note_on_c, 0, 78, 76
2, 24419, Note_off_c, 0, 69, 64
2, 24419, Note_off_c, 0, 74, 96
2, 24419, Note_off_c, 0, 78, 76
2, 24480, Note_on_c, 0, 66, 92
2, 24539, Note_off_c, 0, 66, 72
2, 24600, Note_on_c, 0, 69, 76
2, 24600, Note_on_c, 0, 74, 92
2, 24600, Note_on_c, 0, 78, 76
2, 24659, Note_off_c, 0, 69, 60
2, 24659, Note_off_c, 0, 74, 84
2, 24659, Note_off_c, 0, 78, 64
2, 24720, Note_on_c, 0, 66, 96
2, 24779, Note_off_c, 0, 66, 108
2, 24840, Note_on_c, 0, 69, 72
2, 24840, Note_on_c, 0, 74, 88
2, 24840, Note_on_c, 0, 78, 72
2, 24899, Note_off_c, 0, 69, 88
2, 24899, Note_off_c, 0, 74, 108
2, 24899, Note_off_c, 0, 78, 104
2, 24959, Note_off_c, 0, 62, 92
2, 24959, Note_off_c, 0, 50, 80
2, 24960, Note_on_c, 0, 71, 96
2, 24960, Note_on_c, 0, 47, 116
2, 24960, Note_on_c, 0, 59, 116
2, 25019, Note_off_c, 0, 71, 84
2, 25080, Note_on_c, 0, 75, 80
2, 25080, Note_on_c, 0, 78, 88
2, 25080, Note_on_c, 0, 83, 100
2, 25139, Note_off_c, 0, 75, 88
2, 25139, Note_off_c, 0, 78, 96
2, 25139, Note_off_c, 0, 83, 92
2, 25200, Note_on_c, 0, 71, 88
2, 25259, Note_off_c, 0, 71, 96
2, 25320, Note_on_c, 0, 83, 104
2, 25320, Note_on_c, 0, 75, 88
2, 25320, Note_on_c, 0, 78, 92
2, 25379, Note_off_c, 0, 83, 88
2, 25379, Note_off_c, 0, 75, 80
2, 25379, Note_off_c, 0, 78, 92
2, 25440, Note_on_c, 0, 71, 96
2, 25499, Note_off_c, 0, 71, 84
2, 25560, Note_on_c, 0, 78, 96
2, 25560, Note_on_c, 0, 75, 80
2, 25560, Note_on_c, 0, 83, 104
2, 25619, Note_off_c, 0, 78, 92
2, 25619, Note_off_c, 0, 75, 84
2, 25619, Note_off_c, 0, 83, 92
2, 25680, Note_on_c, 0, 71, 88
2, 25739, Note_off_c, 0, 71, 96
2, 25800, Note_on_c, 0, 75, 88
2, 25800, Note_on_c, 0, 83, 100
2, 25800, Note_on_c, 0, 78, 92
2, 25859, Note_off_c, 0, 75, 76
2, 25859, Note_off_c, 0, 83, 88
2, 25859, Note_off_c, 0, 78, 88
2, 25919, Note_off_c, 0, 47, 116
2, 25919, Note_off_c, 0, 59, 96
2, 25920, Note_on_c, 0, 40, 112
2, 25920, Note_on_c, 0, 64, 104
2, 25920, Note_on_c, 0, 52, 108
2, 25979, Note_off_c, 0, 64, 120
2, 26040, Note_on_c, 0, 71, 88
2, 26040, Note_on_c, 0, 76, 88
2, 26040, Note_on_c, 0, 80, 76
2, 26099, Note_off_c, 0, 71, 76
2, 26099, Note_off_c, 0, 76, 88
2, 26099, Note_off_c, 0, 80, 58
2, 26160, Note_on_c, 0, 64, 104
2, 26219, Note_off_c, 0, 64, 116
2, 26280, Note_on_c, 0, 71, 92
2, 26280, Note_on_c, 0, 76, 84
2, 26280, Note_on_c, 0, 80, 84
2, 26339, Note_off_c, 0, 71, 100
2, 26339, Note_off_c, 0, 76, 108
2, 26339, Note_off_c, 0, 80, 100
2, 26399, Note_off_c, 0, 40, 104
2, 26399, Note_off_c, 0, 52, 96
2, 26400, Note_on_c, 0, 69, 116
2, 26400, Note_on_c, 0, 45, 116
2, 26400, Note_on_c, 0, 57, 112
2, 26459, Note_off_c, 0, 69, 84
2, 26520, Note_on_c, 0, 81, 96
2, 26520, Note_on_c, 0, 76, 88
2, 26520, Note_on_c, 0, 73, 54
2, 26579, Note_off_c, 0, 81, 92
2, 26579, Note_off_c, 0, 76, 96
2, 26579, Note_off_c, 0, 73, 37
2, 26640, Note_on_c, 0, 69, 112
2, 26699, Note_off_c, 0, 69, 112
2, 26760, Note_on_c, 0, 81, 100
2, 26760, Note_on_c, 0, 76, 104
2, 26760, Note_on_c, 0, 73, 80
2, 26819, Note_off_c, 0, 81, 104
2, 26819, Note_off_c, 0, 76, 100
2, 26819, Note_off_c, 0, 73, 76
2, 26879, Note_off_c, 0, 45, 108
2, 26879, Note_off_c, 0, 57, 100
2, 26880, Note_on_c, 0, 50, 108
2, 26880, Note_on_c, 0, 38, 108
2, 26880, Note_on_c, 0, 62, 104
2, 26939, Note_off_c, 0, 62, 92
2, 27000, Note_on_c, 0, 69, 64
2, 27000, Note_on_c, 0, 74, 84
2, 27000, Note_on_c, 0, 78, 72
2, 27059, Note_off_c, 0, 69, 64
2, 27059, Note_off_c, 0, 74, 84
2, 27059, Note_off_c, 0, 78, 44
2, 27120, Note_on_c, 0, 62, 116
2, 27179, Note_off_c, 0, 62, 88
2, 27240, Note_on_c, 0, 69, 68
2, 27240, Note_on_c, 0, 74, 84
2, 27240, Note_on_c, 0, 78, 84
2, 27299, Note_off_c, 0, 69, 88
2, 27299, Note_off_c, 0, 74, 88
2, 27299, Note_off_c, 0, 78, 92
2, 27359, Note_off_c, 0, 50, 84
2, 27359, Note_off_c, 0, 38, 72
2, 27360, Note_on_c, 0, 55, 112
2, 27360, Note_on_c, 0, 43, 112
2, 27360, Note_on_c, 0, 67, 100
2, 27419, Note_off_c, 0, 67, 64
2, 27480, Note_on_c, 0, 71, 64
2, 27480, Note_on_c, 0, 79, 84
2, 27480, Note_on_c, 0, 74, 84
2, 27539, Note_off_c, 0, 71, 38
2, 27539, Note_off_c, 0, 79, 58
2, 27539, Note_off_c, 0, 74, 50
2, 27600, Note_on_c, 0, 67, 112
2, 27659, Note_off_c, 0, 67, 104
2, 27720, Note_on_c, 0, 71, 68
2, 27720, Note_on_c, 0, 74, 92
2, 27720, Note_on_c, 0, 79, 84
2, 27779, Note_off_c, 0, 71, 54
2, 27779, Note_off_c, 0, 74, 84
2, 27779, Note_off_c, 0, 79, 88
2, 27839, Note_off_c, 0, 55, 88
2, 27839, Note_off_c, 0, 43, 84
2, 27840, Note_on_c, 0, 56, 108
2, 27840, Note_on_c, 0, 44, 100
2, 27840, Note_on_c, 0, 68, 96
2, 27899, Note_off_c, 0, 68, 76
2, 27960, Note_on_c, 0, 80, 84
2, 27960, Note_on_c, 0, 72, 80
2, 27960, Note_on_c, 0, 75, 76
2, 28019, Note_off_c, 0, 80, 47
2, 28019, Note_off_c, 0, 72, 42
2, 28019, Note_off_c, 0, 75, 44
2, 28080, Note_on_c, 0, 68, 100
2, 28139, Note_off_c, 0, 68, 92
2, 28200, Note_on_c, 0, 72, 64
2, 28200, Note_on_c, 0, 80, 84
2, 28200, Note_on_c, 0, 75, 72
2, 28259, Note_off_c, 0, 44, 116
2, 28259, Note_off_c, 0, 72, 56
2, 28259, Note_off_c, 0, 80, 72
2, 28259, Note_off_c, 0, 75, 52
2, 28319, Note_off_c, 0, 56, 108
2, 28320, Note_on_c, 0, 83, 108
2, 28320, Note_on_c, 0, 78, 84
2, 28320, Note_on_c, 0, 75, 100
2, 28320, Note_on_c, 0, 37, 104
2, 28320, Note_on_c, 0, 49, 100
2, 28320, Note_on_c, 0, 61, 72
2, 28325, Control_c, 0, 64, 127
2, 28379, Note_off_c, 0, 61, 58
2, 28440, Note_on_c, 0, 73, 92
2, 28440, Note_on_c, 0, 61, 58
2, 28499, Note_off_c, 0, 73, 76
2, 28499, Note_off_c, 0, 61, 60
2, 28500, Note_on_c, 0, 78, 84
2, 28559, Note_off_c, 0, 83, 84
2, 28559, Note_off_c, 0, 78, 80
2, 28560, Note_on_c, 0, 61, 58
2, 28619, Note_off_c, 0, 78, 39
2, 28619, Note_off_c, 0, 49, 80
2, 28619, Note_off_c, 0, 37, 84
2, 28619, Note_off_c, 0, 75, 84
2, 28619, Note_off_c, 0, 61, 84
2, 28620, Note_on_c, 0, 73, 68
2, 28679, Note_off_c, 0, 73, 72
2, 28680, Note_on_c, 0, 83, 100
2, 28680, Note_on_c, 0, 78, 88
2, 28680, Note_on_c, 0, 75, 76
2, 28680, Note_on_c, 0, 37, 92
2, 28680, Note_on_c, 0, 49, 76
2, 28680, Note_on_c, 0, 61, 84
2, 28739, Note_off_c, 0, 83, 64
2, 28739, Note_off_c, 0, 78, 88
2, 28739, Note_off_c, 0, 61, 88
2, 28740, Note_on_c, 0, 73, 76
2, 28798, Control_c, 0, 64, 0
2, 28799, Note_off_c, 0, 73, 84
2, 28799, Note_off_c, 0, 75, 84
2, 28799, Note_off_c, 0, 49, 84
2, 28799, Note_off_c, 0, 37, 96
2, 28800, Note_on_c, 0, 82, 84
2, 28800, Note_on_c, 0, 78, 88
2, 28800, Note_on_c, 0, 73, 100
2, 28800, Note_on_c, 0, 61, 76
2, 28805, Control_c, 0, 64, 127
2, 28859, Note_off_c, 0, 61, 80
2, 28920, Note_on_c, 0, 73, 76
2, 28920, Note_on_c, 0, 37, 104
2, 28920, Note_on_c, 0, 49, 104
2, 28920, Note_on_c, 0, 61, 84
2, 28979, Note_off_c, 0, 73, 80
2, 28979, Note_off_c, 0, 61, 92
2, 28980, Note_on_c, 0, 78, 88
2, 29039, Note_off_c, 0, 49, 80
2, 29039, Note_off_c, 0, 37, 92
2, 29040, Note_on_c, 0, 61, 96
2, 29099, Note_off_c, 0, 78, 38
2, 29099, Note_off_c, 0, 82, 58
2, 29099, Note_off_c, 0, 61, 100
2, 29100, Note_on_c, 0, 73, 68
2, 29105, Note_off_c, 0, 78, 84
2, 29159, Note_off_c, 0, 73, 88
2, 29159, Note_off_c, 0, 73, 60
2, 29160, Note_on_c, 0, 82, 72
2, 29160, Note_on_c, 0, 78, 88
2, 29160, Note_on_c, 0, 70, 72
2, 29160, Note_on_c, 0, 37, 104
2, 29160, Note_on_c, 0, 49, 96
2, 29160, Note_on_c, 0, 73, 76
2, 29160, Note_on_c, 0, 61, 88
2, 29219, Note_off_c, 0, 70, 68
2, 29220, Note_on_c, 0, 73, 72
2, 29278, Control_c, 0, 64, 0
2, 29279, Note_off_c, 0, 61, 72
2, 29279, Note_off_c, 0, 78, 84
2, 29279, Note_off_c, 0, 82, 88
2, 29279, Note_off_c, 0, 73, 76
2, 29279, Note_off_c, 0, 73, 58
2, 29279, Note_off_c, 0, 37, 96
2, 29279, Note_off_c, 0, 49, 92
2, 29280, Note_on_c, 0, 71, 76
2, 29280, Note_on_c, 0, 80, 76
2, 29280, Note_on_c, 0, 83, 72
2, 29285, Control_c, 0, 64, 127
2, 29399, Note_off_c, 0, 83, 84
2, 29400, Note_on_c, 0, 37, 96
2, 29400, Note_on_c, 0, 49, 84
2, 29459, Note_off_c, 0, 80, 56
2, 29459, Note_off_c, 0, 71, 76
2, 29460, Note_on_c, 0, 82, 68
2, 29460, Note_on_c, 0, 78, 84
2, 29460, Note_on_c, 0, 71, 64
2, 29579, Note_off_c, 0, 71, 52
2, 29579, Note_off_c, 0, 82, 60
2, 29639, Note_off_c, 0, 78, 49
2, 29640, Note_on_c, 0, 80, 64
2, 29640, Note_on_c, 0, 77, 60
2, 29640, Note_on_c, 0, 71, 64
2, 29699, Note_off_c, 0, 71, 48
2, 29699, Note_off_c, 0, 80, 30
2, 29758, Control_c, 0, 64, 0
2, 29759, Note_off_c, 0, 77, 44
2, 29759, Note_off_c, 0, 49, 108
2, 29759, Note_off_c, 0, 37, 108
2, 29760, Note_on_c, 0, 70, 69
2, 29760, Note_on_c, 0, 54, 59
2, 29760, Note_on_c, 0, 42, 48
2, 29760, Note_on_c, 0, 78, 71
2, 29760, Note_on_c, 0, 78, 58
2, 29760, Note_on_c, 0, 54, 43
2, 29760, Note_on_c, 0, 70, 57
2, 29760, Note_on_c, 0, 73, 50
2, 29760, Note_on_c, 0, 66, 43
2, 29765, Control_c, 0, 64, 127
2, 29819, Note_off_c, 0, 78, 88
2, 29819, Note_off_c, 0, 54, 76
2, 29819, Note_off_c, 0, 42, 96
2, 29819, Note_off_c, 0, 70, 100
2, 29819, Note_off_c, 0, 54, 2
2, 29819, Note_off_c, 0, 70, 50
2, 29819, Note_off_c, 0, 73, 49
2, 29819, Note_off_c, 0, 66, 26
2, 29879, Note_off_c, 0, 78, 49
2, 29880, Note_on_c, 0, 54, 43
2, 29880, Note_on_c, 0, 73, 58
2, 29939, Note_off_c, 0, 54, 2
2, 29939, Note_off_c, 0, 73, 45
2, 29940, Note_on_c, 0, 78, 57
2, 30000, Note_on_c, 0, 54, 43
2, 30059, Note_off_c, 0, 78, 33
2, 30059, Note_off_c, 0, 54, 18
2, 30060, Note_on_c, 0, 73, 62
2, 30119, Note_off_c, 0, 73, 42
2, 30120, Note_on_c, 0, 54, 43
2, 30120, Note_on_c, 0, 70, 63
2, 30179, Note_off_c, 0, 54, 21
2, 30179, Note_off_c, 0, 70, 41
2, 30180, Note_on_c, 0, 66, 63
2, 30239, Note_off_c, 0, 66, 35
2, 30240, Note_on_c, 0, 54, 43
2, 30240, Note_on_c, 0, 82, 90
2, 30240, Note_on_c, 0, 70, 60
2, 30240, Note_on_c, 0, 66, 51
2, 30240, Note_on_c, 0, 73, 60
2, 30299, Note_off_c, 0, 54, 24
2, 30299, Note_off_c, 0, 82, 64
2, 30299, Note_off_c, 0, 70, 48
2, 30299, Note_off_c, 0, 66, 50
2, 30299, Note_off_c, 0, 73, 54
2, 30360, Note_on_c, 0, 73, 62
2, 30360, Note_on_c, 0, 54, 43
2, 30419, Note_off_c, 0, 73, 41
2, 30419, Note_off_c, 0, 54, 23
2, 30420, Note_on_c, 0, 78, 90
2, 30420, Note_on_c, 0, 70, 63
2, 30479, Note_off_c, 0, 70, 72
2, 30480, Note_on_c, 0, 54, 45
2, 30539, Note_off_c, 0, 78, 17
2, 30539, Note_off_c, 0, 54, 34
2, 30540, Note_on_c, 0, 73, 65
2, 30599, Note_off_c, 0, 73, 42
2, 30600, Note_on_c, 0, 54, 48
2, 30600, Note_on_c, 0, 70, 56
2, 30659, Note_off_c, 0, 54, 35
2, 30659, Note_off_c, 0, 70, 42
2, 30660, Note_on_c, 0, 66, 59
2, 30718, Control_c, 0, 64, 0
2, 30719, Note_off_c, 0, 66, 68
2, 30720, Note_on_c, 0, 82, 90
2, 30720, Note_on_c, 0, 54, 55
2, 30720, Note_on_c, 0, 73, 77
2, 30720, Note_on_c, 0, 70, 73
2, 30720, Note_on_c, 0, 66, 58
2, 30725, Control_c, 0, 64, 127
2, 30779, Note_off_c, 0, 54, 44
2, 30779, Note_off_c, 0, 73, 68
2, 30779, Note_off_c, 0, 70, 84
2, 30779, Note_off_c, 0, 66, 60
2, 30839, Note_off_c, 0, 82, 76
2, 30840, Note_on_c, 0, 54, 54
2, 30840, Note_on_c, 0, 73, 97
2, 30899, Note_off_c, 0, 54, 50
2, 30899, Note_off_c, 0, 73, 54
2, 30900, Note_on_c, 0, 78, 90
2, 30900, Note_on_c, 0, 70, 67
2, 30959, Note_off_c, 0, 78, 56
2, 30959, Note_off_c, 0, 70, 72
2, 30960, Note_on_c, 0, 54, 67
2, 31019, Note_off_c, 0, 54, 56
2, 31020, Note_on_c, 0, 73, 89
2, 31079, Note_off_c, 0, 73, 56
2, 31080, Note_on_c, 0, 54, 85
2, 31080, Note_on_c, 0, 70, 73
2, 31139, Note_off_c, 0, 54, 54
2, 31139, Note_off_c, 0, 70, 76
2, 31140, Note_on_c, 0, 66, 69
2, 31198, Control_c, 0, 64, 0
2, 31199, Note_off_c, 0, 66, 80
2, 31200, Note_on_c, 0, 54, 93
2, 31200, Note_on_c, 0, 82, 90
2, 31200, Note_on_c, 0, 70, 81
2, 31200, Note_on_c, 0, 66, 65
2, 31200, Note_on_c, 0, 73, 81
2, 31205, Control_c, 0, 64, 127
2, 31259, Note_off_c, 0, 54, 64
2, 31259, Note_off_c, 0, 70, 100
2, 31259, Note_off_c, 0, 66, 88
2, 31259, Note_off_c, 0, 73, 84
2, 31319, Note_off_c, 0, 82, 46
2, 31320, Note_on_c, 0, 78, 90
2, 31320, Note_on_c, 0, 54, 89
2, 31379, Note_off_c, 0, 78, 64
2, 31379, Note_off_c, 0, 54, 88
2, 31380, Note_on_c, 0, 73, 101
2, 31438, Control_c, 0, 64, 0
2, 31439, Note_off_c, 0, 73, 40
2, 31440, Note_on_c, 0, 82, 108
2, 31440, Note_on_c, 0, 53, 101
2, 31440, Note_on_c, 0, 109, 83
2, 31440, Note_on_c, 0, 94, 104
2, 31440, Note_on_c, 0, 85, 104
2, 31445, Control_c, 0, 64, 127
2, 31499, Note_off_c, 0, 85, 96
2, 31499, Note_off_c, 0, 94, 96
2, 31499, Note_off_c, 0, 109, 64
2, 31499, Note_off_c, 0, 82, 72
2, 31559, Note_off_c, 0, 53, 84
2, 31560, Note_on_c, 0, 92, 96
2, 31560, Note_on_c, 0, 107, 83
2, 31560, Note_on_c, 0, 80, 112
2, 31560, Note_on_c, 0, 53, 107
2, 31560, Note_on_c, 0, 77, 89
2, 31560, Note_on_c, 0, 73, 63
2, 31560, Note_on_c, 0, 83, 108
2, 31619, Note_off_c, 0, 83, 76
2, 31619, Note_off_c, 0, 92, 68
2, 31619, Note_off_c, 0, 107, 76
2, 31619, Note_off_c, 0, 80, 80
2, 31678, Control_c, 0, 64, 0
2, 31679, Note_off_c, 0, 53, 84
2, 31679, Note_off_c, 0, 77, 52
2, 31679, Note_off_c, 0, 73, 10
2, 31680, Note_on_c, 0, 90, 104
2, 31680, Note_on_c, 0, 75, 77
2, 31680, Note_on_c, 0, 70, 60
2, 31680, Note_on_c, 0, 51, 85
2, 31680, Note_on_c, 0, 78, 92
2, 31680, Note_on_c, 0, 106, 83
2, 31680, Note_on_c, 0, 82, 96
2, 31685, Control_c, 0, 64, 127
2, 31739, Note_off_c, 0, 90, 88
2, 31739, Note_off_c, 0, 78, 56
2, 31739, Note_off_c, 0, 82, 72
2, 31799, Note_off_c, 0, 75, 68
2, 31799, Note_off_c, 0, 70, 54
2, 31799, Note_off_c, 0, 51, 60
2, 31800, Note_on_c, 0, 63, 62
2, 31800, Note_on_c, 0, 51, 55
2, 31859, Note_off_c, 0, 106, 84
2, 31919, Note_off_c, 0, 51, 39
2, 31920, Note_on_c, 0, 51, 48
2, 32039, Note_off_c, 0, 63, 50
2, 32039, Note_off_c, 0, 51, 39
2, 32040, Note_on_c, 0, 51, 49
2, 32040, Note_on_c, 0, 63, 50
2, 32158, Control_c, 0, 64, 0
2, 32159, Note_off_c, 0, 51, 38
2, 32160, Note_on_c, 0, 51, 61
2, 32160, Note_on_c, 0, 70, 57
2, 32160, Note_on_c, 0, 75, 65
2, 32160, Note_on_c, 0, 78, 67
2, 32165, Control_c, 0, 64, 127
2, 32279, Note_off_c, 0, 63, 38
2, 32279, Note_off_c, 0, 51, 54
2, 32279, Note_off_c, 0, 70, 43
2, 32279, Note_off_c, 0, 75, 48
2, 32279, Note_off_c, 0, 78, 48
2, 32280, Note_on_c, 0, 63, 47
2, 32280, Note_on_c, 0, 51, 73
2, 32280, Note_on_c, 0, 75, 60
2, 32339, Note_off_c, 0, 51, 58
2, 32339, Note_off_c, 0, 75, 58
2, 32340, Note_on_c, 0, 75, 71
2, 32399, Note_off_c, 0, 63, 60
2, 32399, Note_off_c, 0, 75, 52
2, 32400, Note_on_c, 0, 49, 67
2, 32400, Note_on_c, 0, 94, 96
2, 32400, Note_on_c, 0, 90, 92
2, 32400, Note_on_c, 0, 87, 92
2, 32459, Note_off_c, 0, 87, 80
2, 32459, Note_off_c, 0, 49, 52
2, 32459, Note_off_c, 0, 94, 88
2, 32459, Note_off_c, 0, 90, 58
2, 32460, Note_on_c, 0, 75, 65
2, 32460, Note_on_c, 0, 61, 81
2, 32518, Control_c, 0, 64, 0
2, 32519, Note_off_c, 0, 75, 64
2, 32520, Note_on_c, 0, 85, 76
2, 32520, Note_on_c, 0, 70, 73
2, 32520, Note_on_c, 0, 49, 63
2, 32520, Note_on_c, 0, 92, 92
2, 32520, Note_on_c, 0, 89, 84
2, 32579, Note_off_c, 0, 85, 58
2, 32579, Note_off_c, 0, 92, 84
2, 32579, Note_off_c, 0, 70, 50
2, 32579, Note_off_c, 0, 49, 45
2, 32579, Note_off_c, 0, 89, 46
2, 32580, Note_on_c, 0, 66, 77
2, 32639, Note_off_c, 0, 61, 56
2, 32639, Note_off_c, 0, 66, 48
2, 32640, Note_on_c, 0, 83, 84
2, 32640, Note_on_c, 0, 66, 71
2, 32640, Note_on_c, 0, 47, 101
2, 32640, Note_on_c, 0, 71, 71
2, 32640, Note_on_c, 0, 90, 100
2, 32640, Note_on_c, 0, 87, 88
2, 32645, Control_c, 0, 64, 127
2, 32699, Note_off_c, 0, 83, 64
2, 32699, Note_off_c, 0, 66, 96
2, 32699, Note_off_c, 0, 47, 38
2, 32699, Note_off_c, 0, 71, 88
2, 32700, Note_on_c, 0, 75, 65
2, 32759, Note_off_c, 0, 75, 38
2, 32760, Note_on_c, 0, 71, 69
2, 32760, Note_on_c, 0, 59, 43
2, 32760, Note_on_c, 0, 47, 56
2, 32819, Note_off_c, 0, 71, 58
2, 32819, Note_off_c, 0, 47, 34
2, 32879, Note_off_c, 0, 90, 76
2, 32879, Note_off_c, 0, 59, 64
2, 32879, Note_off_c, 0, 87, 92
2, 32880, Note_on_c, 0, 47, 69
2, 32939, Note_off_c, 0, 47, 45
2, 33000, Note_on_c, 0, 71, 61
2, 33000, Note_on_c, 0, 66, 59
2, 33000, Note_on_c, 0, 75, 60
2, 33000, Note_on_c, 0, 59, 73
2, 33000, Note_on_c, 0, 47, 73
2, 33059, Note_off_c, 0, 47, 50
2, 33118, Control_c, 0, 64, 0
2, 33119, Note_off_c, 0, 71, 64
2, 33119, Note_off_c, 0, 66, 52
2, 33119, Note_off_c, 0, 75, 68
2, 33119, Note_off_c, 0, 59, 60
2, 33120, Note_on_c, 0, 42, 69
2, 33120, Note_on_c, 0, 66, 81
2, 33120, Note_on_c, 0, 82, 60
2, 33120, Note_on_c, 0, 85, 60
2, 33120, Note_on_c, 0, 78, 52
2, 33125, Control_c, 0, 64, 127
2, 33179, Note_off_c, 0, 42, 39
2, 33179, Note_off_c, 0, 66, 58
2, 33180, Note_on_c, 0, 70, 63
2, 33239, Note_off_c, 0, 70, 84
2, 33240, Note_on_c, 0, 42, 60
2, 33240, Note_on_c, 0, 54, 59
2, 33299, Note_off_c, 0, 42, 40
2, 33299, Note_off_c, 0, 54, 44
2, 33300, Note_on_c, 0, 78, 89
2, 33360, Note_on_c, 0, 42, 58
2, 33419, Note_off_c, 0, 78, 49
2, 33419, Note_off_c, 0, 42, 48
2, 33420, Note_on_c, 0, 73, 65
2, 33479, Note_off_c, 0, 73, 60
2, 33480, Note_on_c, 0, 54, 71
2, 33480, Note_on_c, 0, 70, 69
2, 33480, Note_on_c, 0, 42, 69
2, 33539, Note_off_c, 0, 54, 76
2, 33539, Note_off_c, 0, 70, 54
2, 33539, Note_off_c, 0, 42, 34
2, 33540, Note_on_c, 0, 66, 73
2, 33583, Note_off_c, 0, 78, 88
2, 33598, Control_c, 0, 64, 0
2, 33599, Note_off_c, 0, 85, 100
2, 33599, Note_off_c, 0, 82, 100
2, 33599, Note_off_c, 0, 66, 58
2, 33600, Note_on_c, 0, 73, 81
2, 33600, Note_on_c, 0, 66, 60
2, 33605, Control_c, 0, 64, 127
2, 33659, Note_off_c, 0, 73, 56
2, 33659, Note_off_c, 0, 66, 104
2, 33660, Note_on_c, 0, 71, 53
2, 33660, Note_on_c, 0, 75, 60
2, 33660, Note_on_c, 0, 78, 73
2, 33719, Note_off_c, 0, 71, 58
2, 33719, Note_off_c, 0, 75, 64
2, 33719, Note_off_c, 0, 78, 50
2, 33720, Note_on_c, 0, 75, 60
2, 33720, Note_on_c, 0, 61, 71
2, 33779, Note_off_c, 0, 75, 72
2, 33780, Note_on_c, 0, 78, 60
2, 33839, Note_off_c, 0, 61, 60
2, 33899, Note_off_c, 0, 78, 16
2, 33900, Note_on_c, 0, 75, 52
2, 33959, Note_off_c, 0, 75, 54
2, 33960, Note_on_c, 0, 71, 46
2, 33960, Note_on_c, 0, 61, 65
2, 33960, Note_on_c, 0, 75, 62
2, 34019, Note_off_c, 0, 71, 56
2, 34019, Note_off_c, 0, 75, 52
2, 34020, Note_on_c, 0, 66, 60
2, 34078, Control_c, 0, 64, 0
2, 34079, Note_off_c, 0, 61, 68
2, 34079, Note_off_c, 0, 66, 72
2, 34080, Note_on_c, 0, 78, 69
2, 34080, Note_on_c, 0, 66, 60
2, 34080, Note_on_c, 0, 73, 89
2, 34085, Control_c, 0, 64, 127
2, 34139, Note_off_c, 0, 78, 39
2, 34139, Note_off_c, 0, 66, 104
2, 34139, Note_off_c, 0, 73, 64
2, 34140, Note_on_c, 0, 70, 53
2, 34199, Note_off_c, 0, 70, 58
2, 34200, Note_on_c, 0, 73, 60
2, 34200, Note_on_c, 0, 61, 69
2, 34259, Note_off_c, 0, 73, 72
2, 34260, Note_on_c, 0, 78, 60
2, 34319, Note_off_c, 0, 61, 84
2, 34379, Note_off_c, 0, 78, 16
2, 34380, Note_on_c, 0, 73, 52
2, 34439, Note_off_c, 0, 73, 54
2, 34440, Note_on_c, 0, 78, 61
2, 34440, Note_on_c, 0, 70, 46
2, 34440, Note_on_c, 0, 61, 73
2, 34440, Note_on_c, 0, 49, 43
2, 34499, Note_off_c, 0, 78, 68
2, 34499, Note_off_c, 0, 70, 56
2, 34499, Note_off_c, 0, 61, 64
2, 34500, Note_on_c, 0, 66, 60
2, 34558, Control_c, 0, 64, 0
2, 34559, Note_off_c, 0, 66, 72
2, 34560, Note_on_c, 0, 77, 81
2, 34560, Note_on_c, 0, 66, 60
2, 34560, Note_on_c, 0, 73, 89
2, 34620, Note_on_c, 0, 70, 53
2, 34679, Note_off_c, 0, 49, 41
2, 34679, Note_off_c, 0, 77, 60
2, 34679, Note_off_c, 0, 66, 104
2, 34679, Note_off_c, 0, 73, 64
2, 34680, Note_on_c, 0, 49, 58
2, 34680, Note_on_c, 0, 61, 81
2, 34680, Note_on_c, 0, 73, 60
2, 34740, Note_on_c, 0, 78, 69
2, 34799, Note_off_c, 0, 70, 58
2, 34799, Note_off_c, 0, 49, 37
2, 34799, Note_off_c, 0, 61, 58
2, 34799, Note_off_c, 0, 73, 72
2, 34800, Note_on_c, 0, 51, 71
2, 34859, Note_off_c, 0, 78, 58
2, 34860, Note_on_c, 0, 73, 52
2, 34919, Note_off_c, 0, 51, 50
2, 34919, Note_off_c, 0, 73, 54
2, 34920, Note_on_c, 0, 61, 73
2, 34920, Note_on_c, 0, 80, 73
2, 34920, Note_on_c, 0, 53, 69
2, 34920, Note_on_c, 0, 70, 46
2, 34979, Note_off_c, 0, 70, 56
2, 34980, Note_on_c, 0, 66, 60
2, 35039, Note_off_c, 0, 61, 92
2, 35039, Note_off_c, 0, 80, 58
2, 35039, Note_off_c, 0, 53, 58
2, 35039, Note_off_c, 0, 66, 72
2, 35040, Note_on_c, 0, 82, 85
2, 35040, Note_on_c, 0, 66, 65
2, 35040, Note_on_c, 0, 54, 85
2, 35099, Note_off_c, 0, 66, 72
2, 35100, Note_on_c, 0, 78, 97
2, 35100, Note_on_c, 0, 82, 85
2, 35100, Note_on_c, 0, 73, 105
2, 35100, Note_on_c, 0, 70, 81
2, 35159, Note_off_c, 0, 82, 72
2, 35159, Note_off_c, 0, 54, 60
2, 35160, Note_on_c, 0, 54, 89
2, 35160, Note_on_c, 0, 73, 100
2, 35219, Note_off_c, 0, 73, 76
2, 35219, Note_off_c, 0, 70, 56
2, 35220, Note_on_c, 0, 66, 65
2, 35246, Note_off_c, 0, 82, 50
2, 35279, Note_off_c, 0, 78, 64
2, 35279, Note_off_c, 0, 54, 96
2, 35279, Note_off_c, 0, 73, 40
2, 35279, Note_off_c, 0, 66, 84
2, 35280, Note_on_c, 0, 53, 105
2, 35280, Note_on_c, 0, 66, 65
2, 35339, Note_off_c, 0, 66, 84
2, 35340, Note_on_c, 0, 77, 101
2, 35340, Note_on_c, 0, 80, 89
2, 35340, Note_on_c, 0, 73, 89
2, 35340, Note_on_c, 0, 70, 71
2, 35399, Note_off_c, 0, 53, 96
2, 35400, Note_on_c, 0, 53, 85
2, 35400, Note_on_c, 0, 73, 81
2, 35459, Note_off_c, 0, 73, 72
2, 35459, Note_off_c, 0, 70, 84
2, 35460, Note_on_c, 0, 66, 65
2, 35519, Note_off_c, 0, 77, 92
2, 35519, Note_off_c, 0, 80, 88
2, 35519, Note_off_c, 0, 53, 96
2, 35519, Note_off_c, 0, 73, 64
2, 35519, Note_off_c, 0, 66, 84
2, 35520, Note_on_c, 0, 78, 71
2, 35520, Note_on_c, 0, 75, 77
2, 35520, Note_on_c, 0, 70, 60
2, 35520, Note_on_c, 0, 51, 85
2, 35525, Control_c, 0, 64, 127
2, 35639, Note_off_c, 0, 78, 84
2, 35639, Note_off_c, 0, 75, 68
2, 35639, Note_off_c, 0, 70, 54
2, 35639, Note_off_c, 0, 51, 60
2, 35640, Note_on_c, 0, 63, 62
2, 35640, Note_on_c, 0, 51, 55
2, 35759, Note_off_c, 0, 51, 39
2, 35760, Note_on_c, 0, 51, 48
2, 35820, Note_on_c, 0, 75, 60
2, 35820, Note_on_c, 0, 78, 61
2, 35879, Note_off_c, 0, 63, 50
2, 35879, Note_off_c, 0, 51, 39
2, 35879, Note_off_c, 0, 75, 37
2, 35879, Note_off_c, 0, 78, 43
2, 35880, Note_on_c, 0, 51, 49
2, 35880, Note_on_c, 0, 63, 50
2, 35998, Control_c, 0, 64, 0
2, 35999, Note_off_c, 0, 51, 38
2, 36000, Note_on_c, 0, 51, 61
2, 36000, Note_on_c, 0, 75, 65
2, 36000, Note_on_c, 0, 78, 67
2, 36000, Note_on_c, 0, 66, 92
2, 36005, Control_c, 0, 64, 127
2, 36059, Note_off_c, 0, 66, 64
2, 36060, Note_on_c, 0, 70, 60
2, 36119, Note_off_c, 0, 63, 38
2, 36119, Note_off_c, 0, 51, 54
2, 36119, Note_off_c, 0, 70, 43
2, 36119, Note_off_c, 0, 78, 48
2, 36119, Note_off_c, 0, 75, 58
2, 36120, Note_on_c, 0, 75, 72
2, 36120, Note_on_c, 0, 63, 47
2, 36120, Note_on_c, 0, 51, 73
2, 36179, Note_off_c, 0, 75, 48
2, 36179, Note_off_c, 0, 51, 58
2, 36180, Note_on_c, 0, 75, 85
2, 36180, Note_on_c, 0, 78, 93
2, 36239, Note_off_c, 0, 63, 60
2, 36240, Note_on_c, 0, 49, 67
2, 36299, Note_off_c, 0, 75, 60
2, 36299, Note_off_c, 0, 78, 54
2, 36299, Note_off_c, 0, 49, 52
2, 36300, Note_on_c, 0, 61, 81
2, 36358, Control_c, 0, 64, 0
2, 36360, Note_on_c, 0, 70, 73
2, 36360, Note_on_c, 0, 49, 63
2, 36360, Note_on_c, 0, 73, 97
2, 36360, Note_on_c, 0, 77, 89
2, 36419, Note_off_c, 0, 70, 50
2, 36419, Note_off_c, 0, 49, 45
2, 36420, Note_on_c, 0, 66, 77
2, 36479, Note_off_c, 0, 61, 56
2, 36479, Note_off_c, 0, 73, 54
2, 36479, Note_off_c, 0, 77, 58
2, 36479, Note_off_c, 0, 66, 48
2, 36480, Note_on_c, 0, 66, 71
2, 36480, Note_on_c, 0, 47, 101
2, 36480, Note_on_c, 0, 75, 67
2, 36485, Control_c, 0, 64, 127
2, 36539, Note_off_c, 0, 66, 96
2, 36539, Note_off_c, 0, 47, 38
2, 36539, Note_off_c, 0, 75, 80
2, 36540, Note_on_c, 0, 71, 67
2, 36599, Note_off_c, 0, 71, 68
2, 36600, Note_on_c, 0, 66, 73
2, 36600, Note_on_c, 0, 59, 43
2, 36600, Note_on_c, 0, 47, 56
2, 36659, Note_off_c, 0, 66, 68
2, 36659, Note_off_c, 0, 47, 34
2, 36719, Note_off_c, 0, 59, 64
2, 36720, Note_on_c, 0, 47, 69
2, 36779, Note_off_c, 0, 47, 45
2, 36840, Note_on_c, 0, 71, 61
2, 36840, Note_on_c, 0, 66, 59
2, 36840, Note_on_c, 0, 75, 60
2, 36840, Note_on_c, 0, 59, 73
2, 36840, Note_on_c, 0, 47, 73
2, 36899, Note_off_c, 0, 47, 50
2, 36958, Control_c, 0, 64, 0
2, 36959, Note_off_c, 0, 71, 64
2, 36959, Note_off_c, 0, 66, 52
2, 36959, Note_off_c, 0, 75, 68
2, 36959, Note_off_c, 0, 59, 60
2, 36960, Note_on_c, 0, 42, 69
2, 36960, Note_on_c, 0, 66, 81
2, 36965, Control_c, 0, 64, 127
2, 37019, Note_off_c, 0, 42, 39
2, 37019, Note_off_c, 0, 66, 58
2, 37020, Note_on_c, 0, 70, 63
2, 37079, Note_off_c, 0, 70, 84
2, 37080, Note_on_c, 0, 42, 60
2, 37080, Note_on_c, 0, 54, 59
2, 37139, Note_off_c, 0, 42, 40
2, 37139, Note_off_c, 0, 54, 44
2, 37140, Note_on_c, 0, 78, 89
2, 37200, Note_on_c, 0, 42, 58
2, 37259, Note_off_c, 0, 78, 49
2, 37259, Note_off_c, 0, 42, 48
2, 37260, Note_on_c, 0, 73, 65
2, 37319, Note_off_c, 0, 73, 60
2, 37320, Note_on_c, 0, 54, 71
2, 37320, Note_on_c, 0, 70, 69
2, 37320, Note_on_c, 0, 42, 69
2, 37378, Control_c, 0, 64, 0
2, 37379, Note_off_c, 0, 54, 76
2, 37379, Note_off_c, 0, 70, 54
2, 37379, Note_off_c, 0, 42, 34
2, 37380, Note_on_c, 0, 66, 92
2, 37439, Note_off_c, 0, 66, 108
2, 37440, Note_on_c, 0, 63, 81
2, 37440, Note_on_c, 0, 71, 77
2, 37445, Control_c, 0, 64, 127
2, 37499, Note_off_c, 0, 63, 60
2, 37499, Note_off_c, 0, 71, 52
2, 37500, Note_on_c, 0, 59, 92
2, 37500, Note_on_c, 0, 75, 67
2, 37559, Note_off_c, 0, 75, 47
2, 37559, Note_off_c, 0, 59, 60
2, 37560, Note_on_c, 0, 63, 60
2, 37560, Note_on_c, 0, 59, 65
2, 37619, Note_off_c, 0, 63, 108
2, 37619, Note_off_c, 0, 59, 88
2, 37620, Note_on_c, 0, 66, 72
2, 37679, Note_off_c, 0, 66, 92
2, 37680, Note_on_c, 0, 59, 88
2, 37739, Note_off_c, 0, 59, 72
2, 37740, Note_on_c, 0, 63, 60
2, 37740, Note_on_c, 0, 71, 71
2, 37799, Note_off_c, 0, 63, 92
2, 37799, Note_off_c, 0, 71, 64
2, 37800, Note_on_c, 0, 75, 73
2, 37800, Note_on_c, 0, 78, 73
2, 37800, Note_on_c, 0, 59, 77
2, 37800, Note_on_c, 0, 66, 69
2, 37859, Note_off_c, 0, 75, 39
2, 37859, Note_off_c, 0, 78, 48
2, 37859, Note_off_c, 0, 59, 72
2, 37859, Note_off_c, 0, 66, 64
2, 37918, Control_c, 0, 64, 0
2, 37920, Note_on_c, 0, 73, 69
2, 37920, Note_on_c, 0, 63, 69
2, 37920, Note_on_c, 0, 47, 84
2, 37925, Control_c, 0, 64, 127
2, 37979, Note_off_c, 0, 73, 60
2, 37979, Note_off_c, 0, 63, 60
2, 37980, Note_on_c, 0, 66, 67
2, 37980, Note_on_c, 0, 75, 73
2, 38039, Note_off_c, 0, 66, 48
2, 38039, Note_off_c, 0, 75, 72
2, 38040, Note_on_c, 0, 71, 81
2, 38040, Note_on_c, 0, 59, 89
2, 38099, Note_off_c, 0, 71, 46
2, 38099, Note_off_c, 0, 59, 68
2, 38100, Note_on_c, 0, 66, 77
2, 38159, Note_off_c, 0, 66, 72
2, 38220, Note_on_c, 0, 71, 73
2, 38279, Note_off_c, 0, 47, 116
2, 38279, Note_off_c, 0, 71, 56
2, 38280, Note_on_c, 0, 59, 107
2, 38280, Note_on_c, 0, 70, 65
2, 38339, Note_off_c, 0, 59, 100
2, 38339, Note_off_c, 0, 70, 80
2, 38340, Note_on_c, 0, 68, 63
2, 38398, Control_c, 0, 64, 0
2, 38399, Note_off_c, 0, 68, 60
2, 38400, Note_on_c, 0, 62, 56
2, 38400, Note_on_c, 0, 70, 62
2, 38400, Note_on_c, 0, 80, 85
2, 38400, Note_on_c, 0, 50, 93
2, 38400, Note_on_c, 0, 58, 73
2, 38400, Note_on_c, 0, 83, 96
2, 38519, Note_off_c, 0, 62, 35
2, 38520, Note_on_c, 0, 62, 77
2, 38579, Note_off_c, 0, 83, 39
2, 38579, Note_off_c, 0, 70, 84
2, 38579, Note_off_c, 0, 80, 84
2, 38580, Note_on_c, 0, 70, 71
2, 38580, Note_on_c, 0, 78, 97
2, 38580, Note_on_c, 0, 82, 72
2, 38639, Note_off_c, 0, 62, 37
2, 38639, Note_off_c, 0, 82, 40
2, 38640, Note_on_c, 0, 62, 71
2, 38699, Note_off_c, 0, 50, 60
2, 38759, Note_off_c, 0, 58, 84
2, 38759, Note_off_c, 0, 70, 11
2, 38759, Note_off_c, 0, 78, 80
2, 38759, Note_off_c, 0, 62, 39
2, 38760, Note_on_c, 0, 80, 80
2, 38760, Note_on_c, 0, 50, 97
2, 38760, Note_on_c, 0, 70, 77
2, 38760, Note_on_c, 0, 77, 81
2, 38760, Note_on_c, 0, 62, 73
2, 38819, Note_off_c, 0, 80, 56
2, 38879, Note_off_c, 0, 50, 44
2, 38879, Note_off_c, 0, 62, 52
2, 38880, Note_on_c, 0, 51, 85
2, 38880, Note_on_c, 0, 75, 63
2, 38880, Note_on_c, 0, 78, 68
2, 38880, Note_on_c, 0, 63, 68
2, 38885, Control_c, 0, 64, 127
2, 38939, Note_off_c, 0, 78, 84
2, 38939, Note_off_c, 0, 70, 72
2, 38939, Note_off_c, 0, 77, 50
2, 38939, Note_off_c, 0, 63, 56
2, 38940, Note_on_c, 0, 70, 52
2, 38999, Note_off_c, 0, 70, 76
2, 39000, Note_on_c, 0, 66, 60
2, 39000, Note_on_c, 0, 63, 62
2, 39059, Note_off_c, 0, 66, 60
2, 39059, Note_off_c, 0, 63, 60
2, 39060, Note_on_c, 0, 66, 69
2, 39120, Note_on_c, 0, 63, 76
2, 39179, Note_off_c, 0, 63, 76
2, 39180, Note_on_c, 0, 63, 60
2, 39180, Note_on_c, 0, 70, 56
2, 39239, Note_off_c, 0, 70, 88
2, 39239, Note_off_c, 0, 75, 36
2, 39239, Note_off_c, 0, 63, 60
2, 39239, Note_off_c, 0, 66, 47
2, 39240, Note_on_c, 0, 66, 60
2, 39240, Note_on_c, 0, 66, 60
2, 39240, Note_on_c, 0, 63, 60
2, 39240, Note_on_c, 0, 75, 65
2, 39299, Note_off_c, 0, 66, 76
2, 39299, Note_off_c, 0, 66, 45
2, 39300, Note_on_c, 0, 70, 55
2, 39359, Note_off_c, 0, 51, 88
2, 39359, Note_off_c, 0, 63, 64
2, 39359, Note_off_c, 0, 75, 76
2, 39359, Note_off_c, 0, 70, 47
2, 39360, Note_on_c, 0, 63, 60
2, 39419, Note_off_c, 0, 63, 54
2, 39420, Note_on_c, 0, 70, 50
2, 39479, Note_off_c, 0, 70, 68
2, 39480, Note_on_c, 0, 66, 64
2, 39480, Note_on_c, 0, 63, 59
2, 39539, Note_off_c, 0, 66, 58
2, 39539, Note_off_c, 0, 63, 64
2, 39540, Note_on_c, 0, 75, 98
2, 39540, Note_on_c, 0, 66, 61
2, 39600, Note_on_c, 0, 63, 52
2, 39659, Note_off_c, 0, 75, 64
2, 39659, Note_off_c, 0, 63, 50
2, 39660, Note_on_c, 0, 77, 73
2, 39660, Note_on_c, 0, 73, 77
2, 39660, Note_on_c, 0, 70, 48
2, 39719, Note_off_c, 0, 70, 68
2, 39719, Note_off_c, 0, 66, 48
2, 39720, Note_on_c, 0, 66, 49
2, 39779, Note_off_c, 0, 66, 52
2, 39779, Note_off_c, 0, 77, 49
2, 39779, Note_off_c, 0, 73, 39
2, 39780, Note_on_c, 0, 70, 57
2, 39838, Control_c, 0, 64, 0
2, 39839, Note_off_c, 0, 70, 56
2, 39840, Note_on_c, 0, 78, 71
2, 39840, Note_on_c, 0, 70, 73
2, 39840, Note_on_c, 0, 51, 61
2, 39840, Note_on_c, 0, 63, 88
2, 39845, Control_c, 0, 64, 127
2, 39899, Note_off_c, 0, 70, 52
2, 39899, Note_off_c, 0, 63, 47
2, 39900, Note_on_c, 0, 66, 48
2, 39959, Note_off_c, 0, 66, 64
2, 39960, Note_on_c, 0, 63, 56
2, 39960, Note_on_c, 0, 70, 50
2, 40019, Note_off_c, 0, 70, 72
2, 40019, Note_off_c, 0, 63, 72
2, 40020, Note_on_c, 0, 63, 76
2, 40079, Note_off_c, 0, 63, 56
2, 40080, Note_on_c, 0, 66, 54
2, 40139, Note_off_c, 0, 66, 60
2, 40140, Note_on_c, 0, 70, 54
2, 40199, Note_off_c, 0, 70, 64
2, 40199, Note_off_c, 0, 78, 56
2, 40200, Note_on_c, 0, 63, 60
2, 40259, Note_off_c, 0, 63, 60
2, 40260, Note_on_c, 0, 66, 49
2, 40319, Note_off_c, 0, 66, 60
2, 40320, Note_on_c, 0, 66, 65
2, 40320, Note_on_c, 0, 70, 52
2, 40379, Note_off_c, 0, 66, 48
2, 40379, Note_off_c, 0, 70, 64
2, 40380, Note_on_c, 0, 70, 59
2, 40380, Note_on_c, 0, 63, 68
2, 40439, Note_off_c, 0, 70, 64
2, 40439, Note_off_c, 0, 63, 50
2, 40440, Note_on_c, 0, 63, 60
2, 40440, Note_on_c, 0, 66, 52
2, 40499, Note_off_c, 0, 63, 58
2, 40499, Note_off_c, 0, 66, 58
2, 40500, Note_on_c, 0, 78, 89
2, 40500, Note_on_c, 0, 70, 73
2, 40559, Note_off_c, 0, 70, 68
2, 40560, Note_on_c, 0, 63, 72
2, 40619, Note_off_c, 0, 78, 84
2, 40619, Note_off_c, 0, 63, 64
2, 40620, Note_on_c, 0, 77, 85
2, 40620, Note_on_c, 0, 68, 65
2, 40679, Note_off_c, 0, 68, 50
2, 40680, Note_on_c, 0, 63, 61
2, 40680, Note_on_c, 0, 70, 56
2, 40739, Note_off_c, 0, 51, 76
2, 40798, Control_c, 0, 64, 0
2, 40799, Note_off_c, 0, 77, 72
2, 40799, Note_off_c, 0, 70, 92
2, 40799, Note_off_c, 0, 63, 60
2, 40800, Note_on_c, 0, 75, 77
2, 40800, Note_on_c, 0, 66, 77
2, 40800, Note_on_c, 0, 78, 71
2, 40800, Note_on_c, 0, 75, 77
2, 40800, Note_on_c, 0, 70, 60
2, 40800, Note_on_c, 0, 51, 85
2, 40805, Control_c, 0, 64, 127
2, 40919, Note_off_c, 0, 75, 68
2, 40919, Note_off_c, 0, 66, 58
2, 40919, Note_off_c, 0, 78, 84
2, 40919, Note_off_c, 0, 75, 68
2, 40919, Note_off_c, 0, 70, 54
2, 40919, Note_off_c, 0, 51, 60
2, 40920, Note_on_c, 0, 63, 62
2, 40920, Note_on_c, 0, 51, 55
2, 41039, Note_off_c, 0, 63, 58
2, 41039, Note_off_c, 0, 51, 39
2, 41040, Note_on_c, 0, 63, 67
2, 41040, Note_on_c, 0, 51, 48
2, 41100, Note_on_c, 0, 70, 59
2, 41159, Note_off_c, 0, 63, 50
2, 41159, Note_off_c, 0, 51, 39
2, 41159, Note_off_c, 0, 70, 72
2, 41160, Note_on_c, 0, 66, 73
2, 41160, Note_on_c, 0, 51, 49
2, 41160, Note_on_c, 0, 63, 50
2, 41219, Note_off_c, 0, 66, 54
2, 41278, Control_c, 0, 64, 0
2, 41279, Note_off_c, 0, 51, 38
2, 41279, Note_off_c, 0, 63, 54
2, 41280, Note_on_c, 0, 51, 61
2, 41280, Note_on_c, 0, 70, 57
2, 41280, Note_on_c, 0, 75, 65
2, 41280, Note_on_c, 0, 78, 67
2, 41280, Note_on_c, 0, 63, 65
2, 41285, Control_c, 0, 64, 127
2, 41339, Note_off_c, 0, 70, 56
2, 41340, Note_on_c, 0, 70, 60
2, 41399, Note_off_c, 0, 51, 54
2, 41399, Note_off_c, 0, 75, 48
2, 41399, Note_off_c, 0, 78, 48
2, 41399, Note_off_c, 0, 63, 38
2, 41399, Note_off_c, 0, 70, 43
2, 41400, Note_on_c, 0, 66, 58
2, 41400, Note_on_c, 0, 63, 47
2, 41400, Note_on_c, 0, 51, 73
2, 41400, Note_on_c, 0, 75, 60
2, 41459, Note_off_c, 0, 66, 20
2, 41459, Note_off_c, 0, 51, 58
2, 41459, Note_off_c, 0, 75, 58
2, 41460, Note_on_c, 0, 75, 71
2, 41519, Note_off_c, 0, 63, 60
2, 41519, Note_off_c, 0, 75, 52
2, 41520, Note_on_c, 0, 49, 67
2, 41520, Note_on_c, 0, 63, 71
2, 41579, Note_off_c, 0, 49, 52
2, 41579, Note_off_c, 0, 63, 84
2, 41580, Note_on_c, 0, 75, 65
2, 41580, Note_on_c, 0, 61, 81
2, 41580, Note_on_c, 0, 66, 69
2, 41638, Control_c, 0, 64, 0
2, 41639, Note_off_c, 0, 75, 64
2, 41639, Note_off_c, 0, 66, 54
2, 41640, Note_on_c, 0, 70, 73
2, 41640, Note_on_c, 0, 49, 63
2, 41699, Note_off_c, 0, 70, 50
2, 41699, Note_off_c, 0, 49, 45
2, 41700, Note_on_c, 0, 66, 77
2, 41759, Note_off_c, 0, 61, 56
2, 41759, Note_off_c, 0, 66, 48
2, 41760, Note_on_c, 0, 66, 71
2, 41760, Note_on_c, 0, 47, 101
2, 41760, Note_on_c, 0, 71, 71
2, 41765, Control_c, 0, 64, 127
2, 41819, Note_off_c, 0, 66, 96
2, 41819, Note_off_c, 0, 47, 38
2, 41819, Note_off_c, 0, 71, 88
2, 41820, Note_on_c, 0, 78, 73
2, 41879, Note_off_c, 0, 78, 72
2, 41880, Note_on_c, 0, 75, 73
2, 41880, Note_on_c, 0, 71, 69
2, 41880, Note_on_c, 0, 59, 43
2, 41880, Note_on_c, 0, 47, 56
2, 41939, Note_off_c, 0, 75, 64
2, 41939, Note_off_c, 0, 71, 58
2, 41939, Note_off_c, 0, 47, 34
2, 41999, Note_off_c, 0, 59, 64
2, 42000, Note_on_c, 0, 71, 83
2, 42000, Note_on_c, 0, 47, 69
2, 42059, Note_off_c, 0, 71, 56
2, 42059, Note_off_c, 0, 47, 45
2, 42060, Note_on_c, 0, 78, 61
2, 42119, Note_off_c, 0, 78, 80
2, 42120, Note_on_c, 0, 71, 61
2, 42120, Note_on_c, 0, 66, 59
2, 42120, Note_on_c, 0, 75, 60
2, 42120, Note_on_c, 0, 59, 73
2, 42120, Note_on_c, 0, 47, 73
2, 42179, Note_off_c, 0, 71, 58
2, 42179, Note_off_c, 0, 47, 50
2, 42180, Note_on_c, 0, 71, 83
2, 42238, Control_c, 0, 64, 0
2, 42239, Note_off_c, 0, 66, 52
2, 42239, Note_off_c, 0, 75, 68
2, 42239, Note_off_c, 0, 59, 60
2, 42239, Note_off_c, 0, 71, 64
2, 42240, Note_on_c, 0, 42, 69
2, 42240, Note_on_c, 0, 66, 81
2, 42245, Control_c, 0, 64, 127
2, 42299, Note_off_c, 0, 42, 39
2, 42299, Note_off_c, 0, 66, 58
2, 42300, Note_on_c, 0, 70, 63
2, 42359, Note_off_c, 0, 70, 84
2, 42360, Note_on_c, 0, 42, 60
2, 42360, Note_on_c, 0, 54, 59
2, 42360, Note_on_c, 0, 73, 77
2, 42419, Note_off_c, 0, 42, 40
2, 42419, Note_off_c, 0, 54, 44
2, 42419, Note_off_c, 0, 73, 56
2, 42420, Note_on_c, 0, 78, 89
2, 42480, Note_on_c, 0, 42, 58
2, 42539, Note_off_c, 0, 78, 49
2, 42539, Note_off_c, 0, 42, 48
2, 42540, Note_on_c, 0, 73, 65
2, 42599, Note_off_c, 0, 73, 60
2, 42600, Note_on_c, 0, 54, 71
2, 42600, Note_on_c, 0, 70, 69
2, 42600, Note_on_c, 0, 42, 69
2, 42659, Note_off_c, 0, 54, 76
2, 42659, Note_off_c, 0, 70, 54
2, 42659, Note_off_c, 0, 42, 34
2, 42660, Note_on_c, 0, 66, 73
2, 42718, Control_c, 0, 64, 0
2, 42719, Note_off_c, 0, 66, 58
2, 42720, Note_on_c, 0, 87, 92
2, 42720, Note_on_c, 0, 66, 60
2, 42720, Note_on_c, 0, 75, 77
2, 42720, Note_on_c, 0, 78, 67
2, 42720, Note_on_c, 0, 83, 77
2, 42720, Note_on_c, 0, 90, 100
2, 42725, Control_c, 0, 64, 127
2, 42779, Note_off_c, 0, 66, 104
2, 42779, Note_off_c, 0, 78, 50
2, 42779, Note_off_c, 0, 83, 49
2, 42780, Note_on_c, 0, 71, 53
2, 42839, Note_off_c, 0, 71, 58
2, 42840, Note_on_c, 0, 61, 85
2, 42899, Note_off_c, 0, 75, 31
2, 42900, Note_on_c, 0, 78, 60
2, 42959, Note_off_c, 0, 61, 104
2, 42960, Note_on_c, 0, 83, 73
2, 43019, Note_off_c, 0, 90, 92
2, 43019, Note_off_c, 0, 87, 96
2, 43019, Note_off_c, 0, 78, 16
2, 43019, Note_off_c, 0, 83, 76
2, 43020, Note_on_c, 0, 87, 50
2, 43020, Note_on_c, 0, 75, 52
2, 43079, Note_off_c, 0, 75, 54
2, 43079, Note_off_c, 0, 87, 37
2, 43080, Note_on_c, 0, 90, 96
2, 43080, Note_on_c, 0, 87, 92
2, 43080, Note_on_c, 0, 61, 93
2, 43080, Note_on_c, 0, 83, 71
2, 43080, Note_on_c, 0, 71, 46
2, 43080, Note_on_c, 0, 75, 62
2, 43139, Note_off_c, 0, 83, 56
2, 43139, Note_off_c, 0, 71, 56
2, 43139, Note_off_c, 0, 75, 52
2, 43139, Note_off_c, 0, 87, 68
2, 43139, Note_off_c, 0, 90, 76
2, 43140, Note_on_c, 0, 66, 60
2, 43198, Control_c, 0, 64, 0
2, 43199, Note_off_c, 0, 61, 84
2, 43199, Note_off_c, 0, 66, 72
2, 43200, Note_on_c, 0, 78, 69
2, 43200, Note_on_c, 0, 66, 60
2, 43200, Note_on_c, 0, 73, 89
2, 43200, Note_on_c, 0, 82, 97
2, 43200, Note_on_c, 0, 85, 104
2, 43200, Note_on_c, 0, 90, 104
2, 43205, Control_c, 0, 64, 127
2, 43259, Note_off_c, 0, 78, 39
2, 43259, Note_off_c, 0, 66, 104
2, 43259, Note_off_c, 0, 73, 64
2, 43259, Note_off_c, 0, 82, 50
2, 43260, Note_on_c, 0, 70, 53
2, 43319, Note_off_c, 0, 70, 58
2, 43320, Note_on_c, 0, 61, 85
2, 43320, Note_on_c, 0, 73, 60
2, 43379, Note_off_c, 0, 73, 72
2, 43380, Note_on_c, 0, 78, 60
2, 43439, Note_off_c, 0, 61, 88
2, 43440, Note_on_c, 0, 82, 65
2, 43499, Note_off_c, 0, 85, 47
2, 43499, Note_off_c, 0, 78, 16
2, 43499, Note_off_c, 0, 82, 68
2, 43499, Note_off_c, 0, 90, 80
2, 43500, Note_on_c, 0, 85, 58
2, 43500, Note_on_c, 0, 73, 52
2, 43559, Note_off_c, 0, 73, 54
2, 43560, Note_on_c, 0, 90, 80
2, 43560, Note_on_c, 0, 85, 88
2, 43560, Note_on_c, 0, 61, 93
2, 43560, Note_on_c, 0, 82, 69
2, 43560, Note_on_c, 0, 78, 61
2, 43560, Note_on_c, 0, 70, 46
2, 43560, Note_on_c, 0, 49, 43
2, 43619, Note_off_c, 0, 85, 64
2, 43619, Note_off_c, 0, 82, 80
2, 43619, Note_off_c, 0, 78, 68
2, 43619, Note_off_c, 0, 70, 56
2, 43619, Note_off_c, 0, 90, 84
2, 43620, Note_on_c, 0, 66, 60
2, 43626, Note_off_c, 0, 85, 76
2, 43678, Control_c, 0, 64, 0
2, 43679, Note_off_c, 0, 61, 84
2, 43679, Note_off_c, 0, 66, 72
2, 43680, Note_on_c, 0, 77, 81
2, 43680, Note_on_c, 0, 66, 60
2, 43680, Note_on_c, 0, 73, 89
2, 43680, Note_on_c, 0, 80, 100
2, 43680, Note_on_c, 0, 89, 104
2, 43740, Note_on_c, 0, 70, 53
2, 43799, Note_off_c, 0, 49, 41
2, 43799, Note_off_c, 0, 77, 60
2, 43799, Note_off_c, 0, 66, 104
2, 43799, Note_off_c, 0, 73, 64
2, 43799, Note_off_c, 0, 80, 92
2, 43800, Note_on_c, 0, 49, 58
2, 43800, Note_on_c, 0, 61, 81
2, 43800, Note_on_c, 0, 73, 60
2, 43859, Note_off_c, 0, 89, 100
2, 43860, Note_on_c, 0, 90, 100
2, 43860, Note_on_c, 0, 82, 104
2, 43860, Note_on_c, 0, 78, 69
2, 43919, Note_off_c, 0, 70, 58
2, 43919, Note_off_c, 0, 49, 37
2, 43919, Note_off_c, 0, 61, 58
2, 43919, Note_off_c, 0, 73, 72
2, 43920, Note_on_c, 0, 51, 71
2, 43979, Note_off_c, 0, 78, 58
2, 43979, Note_off_c, 0, 82, 54
2, 43980, Note_on_c, 0, 73, 52
2, 44039, Note_off_c, 0, 90, 54
2, 44039, Note_off_c, 0, 51, 50
2, 44039, Note_off_c, 0, 73, 54
2, 44040, Note_on_c, 0, 92, 108
2, 44040, Note_on_c, 0, 83, 92
2, 44040, Note_on_c, 0, 61, 73
2, 44040, Note_on_c, 0, 80, 73
2, 44040, Note_on_c, 0, 53, 69
2, 44040, Note_on_c, 0, 70, 46
2, 44099, Note_off_c, 0, 83, 56
2, 44099, Note_off_c, 0, 70, 56
2, 44099, Note_off_c, 0, 92, 56
2, 44100, Note_on_c, 0, 66, 60
2, 44159, Note_off_c, 0, 61, 92
2, 44159, Note_off_c, 0, 80, 58
2, 44159, Note_off_c, 0, 53, 58
2, 44159, Note_off_c, 0, 66, 72
2, 44160, Note_on_c, 0, 82, 85
2, 44160, Note_on_c, 0, 66, 65
2, 44160, Note_on_c, 0, 54, 85
2, 44160, Note_on_c, 0, 90, 104
2, 44219, Note_off_c, 0, 66, 72
2, 44219, Note_off_c, 0, 82, 50
2, 44220, Note_on_c, 0, 78, 97
2, 44220, Note_on_c, 0, 82, 85
2, 44220, Note_on_c, 0, 73, 105
2, 44220, Note_on_c, 0, 70, 81
2, 44279, Note_off_c, 0, 54, 60
2, 44280, Note_on_c, 0, 54, 89
2, 44280, Note_on_c, 0, 73, 85
2, 44339, Note_off_c, 0, 73, 76
2, 44339, Note_off_c, 0, 70, 56
2, 44339, Note_off_c, 0, 90, 120
2, 44340, Note_on_c, 0, 66, 65
2, 44399, Note_off_c, 0, 82, 100
2, 44399, Note_off_c, 0, 78, 64
2, 44399, Note_off_c, 0, 54, 96
2, 44399, Note_off_c, 0, 73, 40
2, 44399, Note_off_c, 0, 66, 84
2, 44400, Note_on_c, 0, 53, 105
2, 44400, Note_on_c, 0, 66, 65
2, 44459, Note_off_c, 0, 66, 84
2, 44460, Note_on_c, 0, 77, 101
2, 44460, Note_on_c, 0, 80, 89
2, 44460, Note_on_c, 0, 73, 89
2, 44460, Note_on_c, 0, 70, 71
2, 44519, Note_off_c, 0, 53, 96
2, 44520, Note_on_c, 0, 53, 85
2, 44520, Note_on_c, 0, 73, 81
2, 44579, Note_off_c, 0, 73, 72
2, 44579, Note_off_c, 0, 70, 84
2, 44580, Note_on_c, 0, 66, 65
2, 44639, Note_off_c, 0, 77, 92
2, 44639, Note_off_c, 0, 80, 88
2, 44639, Note_off_c, 0, 53, 96
2, 44639, Note_off_c, 0, 73, 64
2, 44639, Note_off_c, 0, 66, 84
2, 44640, Note_on_c, 0, 78, 71
2, 44640, Note_on_c, 0, 75, 77
2, 44640, Note_on_c, 0, 70, 60
2, 44640, Note_on_c, 0, 51, 85
2, 44645, Control_c, 0, 64, 127
2, 44759, Note_off_c, 0, 78, 84
2, 44759, Note_off_c, 0, 75, 68
2, 44759, Note_off_c, 0, 70, 54
2, 44759, Note_off_c, 0, 51, 60
2, 44760, Note_on_c, 0, 63, 62
2, 44760, Note_on_c, 0, 51, 55
2, 44879, Note_off_c, 0, 51, 39
2, 44880, Note_on_c, 0, 51, 48
2, 44940, Note_on_c, 0, 75, 60
2, 44940, Note_on_c, 0, 78, 61
2, 44999, Note_off_c, 0, 63, 50
2, 44999, Note_off_c, 0, 51, 39
2, 44999, Note_off_c, 0, 75, 37
2, 44999, Note_off_c, 0, 78, 43
2, 45000, Note_on_c, 0, 51, 49
2, 45000, Note_on_c, 0, 63, 50
2, 45118, Control_c, 0, 64, 0
2, 45119, Note_off_c, 0, 51, 38
2, 45120, Note_on_c, 0, 51, 61
2, 45120, Note_on_c, 0, 70, 57
2, 45120, Note_on_c, 0, 75, 65
2, 45120, Note_on_c, 0, 78, 67
2, 45125, Control_c, 0, 64, 127
2, 45239, Note_off_c, 0, 63, 38
2, 45239, Note_off_c, 0, 51, 54
2, 45239, Note_off_c, 0, 70, 43
2, 45239, Note_off_c, 0, 75, 48
2, 45239, Note_off_c, 0, 78, 48
2, 45240, Note_on_c, 0, 63, 47
2, 45240, Note_on_c, 0, 51, 73
2, 45299, Note_off_c, 0, 51, 58
2, 45300, Note_on_c, 0, 75, 85
2, 45300, Note_on_c, 0, 78, 93
2, 45359, Note_off_c, 0, 63, 60
2, 45360, Note_on_c, 0, 82, 84
2, 45360, Note_on_c, 0, 49, 67
2, 45419, Note_off_c, 0, 75, 60
2, 45419, Note_off_c, 0, 78, 54
2, 45419, Note_off_c, 0, 49, 52
2, 45419, Note_off_c, 0, 82, 80
2, 45420, Note_on_c, 0, 61, 81
2, 45478, Control_c, 0, 64, 0
2, 45480, Note_on_c, 0, 80, 80
2, 45480, Note_on_c, 0, 70, 73
2, 45480, Note_on_c, 0, 49, 63
2, 45480, Note_on_c, 0, 73, 97
2, 45480, Note_on_c, 0, 77, 89
2, 45539, Note_off_c, 0, 70, 50
2, 45539, Note_off_c, 0, 49, 45
2, 45539, Note_off_c, 0, 80, 44
2, 45540, Note_on_c, 0, 66, 77
2, 45599, Note_off_c, 0, 61, 56
2, 45599, Note_off_c, 0, 73, 54
2, 45599, Note_off_c, 0, 77, 58
2, 45599, Note_off_c, 0, 66, 48
2, 45600, Note_on_c, 0, 66, 71
2, 45600, Note_on_c, 0, 47, 101
2, 45600, Note_on_c, 0, 75, 67
2, 45600, Note_on_c, 0, 78, 88
2, 45605, Control_c, 0, 64, 127
2, 45659, Note_off_c, 0, 66, 96
2, 45659, Note_off_c, 0, 47, 38
2, 45659, Note_off_c, 0, 75, 80
2, 45659, Note_off_c, 0, 78, 48
2, 45660, Note_on_c, 0, 71, 67
2, 45719, Note_off_c, 0, 71, 68
2, 45720, Note_on_c, 0, 66, 73
2, 45720, Note_on_c, 0, 59, 43
2, 45720, Note_on_c, 0, 47, 56
2, 45779, Note_off_c, 0, 66, 68
2, 45779, Note_off_c, 0, 47, 34
2, 45839, Note_off_c, 0, 59, 64
2, 45840, Note_on_c, 0, 47, 69
2, 45840, Note_on_c, 0, 63, 72
2, 45899, Note_off_c, 0, 63, 80
2, 45899, Note_off_c, 0, 47, 45
2, 45900, Note_on_c, 0, 66, 60
2, 45959, Note_off_c, 0, 66, 88
2, 45960, Note_on_c, 0, 71, 61
2, 45960, Note_on_c, 0, 66, 59
2, 45960, Note_on_c, 0, 75, 60
2, 45960, Note_on_c, 0, 59, 73
2, 45960, Note_on_c, 0, 47, 73
2, 46019, Note_off_c, 0, 47, 50
2, 46078, Control_c, 0, 64, 0
2, 46079, Note_off_c, 0, 71, 64
2, 46079, Note_off_c, 0, 66, 52
2, 46079, Note_off_c, 0, 75, 68
2, 46079, Note_off_c, 0, 59, 60
2, 46080, Note_on_c, 0, 42, 69
2, 46080, Note_on_c, 0, 66, 81
2, 46085, Control_c, 0, 64, 127
2, 46139, Note_off_c, 0, 42, 39
2, 46139, Note_off_c, 0, 66, 58
2, 46140, Note_on_c, 0, 70, 63
2, 46199, Note_off_c, 0, 70, 84
2, 46200, Note_on_c, 0, 66, 75
2, 46200, Note_on_c, 0, 42, 60
2, 46200, Note_on_c, 0, 54, 59
2, 46259, Note_off_c, 0, 66, 44
2, 46259, Note_off_c, 0, 42, 40
2, 46259, Note_off_c, 0, 54, 44
2, 46260, Note_on_c, 0, 78, 89
2, 46320, Note_on_c, 0, 42, 58
2, 46379, Note_off_c, 0, 78, 49
2, 46379, Note_off_c, 0, 42, 48
2, 46380, Note_on_c, 0, 73, 65
2, 46439, Note_off_c, 0, 73, 60
2, 46440, Note_on_c, 0, 54, 71
2, 46440, Note_on_c, 0, 70, 69
2, 46440, Note_on_c, 0, 42, 69
2, 46498, Control_c, 0, 64, 0
2, 46499, Note_off_c, 0, 54, 76
2, 46499, Note_off_c, 0, 70, 54
2, 46499, Note_off_c, 0, 42, 34
2, 46560, Note_on_c, 0, 63, 81
2, 46560, Note_on_c, 0, 73, 77
2, 46560, Note_on_c, 0, 71, 77
2, 46560, Note_on_c, 0, 59, 100
2, 46565, Control_c, 0, 64, 127
2, 46619, Note_off_c, 0, 73, 54
2, 46619, Note_off_c, 0, 71, 52
2, 46619, Note_off_c, 0, 59, 64
2, 46619, Note_off_c, 0, 63, 92
2, 46620, Note_on_c, 0, 63, 56
2, 46620, Note_on_c, 0, 66, 71
2, 46620, Note_on_c, 0, 75, 67
2, 46679, Note_off_c, 0, 63, 60
2, 46679, Note_off_c, 0, 75, 47
2, 46679, Note_off_c, 0, 66, 58
2, 46680, Note_on_c, 0, 66, 56
2, 46680, Note_on_c, 0, 71, 65
2, 46680, Note_on_c, 0, 47, 54
2, 46739, Note_off_c, 0, 66, 56
2, 46739, Note_off_c, 0, 71, 39
2, 46740, Note_on_c, 0, 63, 56
2, 46799, Note_off_c, 0, 47, 41
2, 46799, Note_off_c, 0, 63, 76
2, 46800, Note_on_c, 0, 59, 100
2, 46859, Note_off_c, 0, 59, 68
2, 46860, Note_on_c, 0, 63, 64
2, 46860, Note_on_c, 0, 71, 71
2, 46919, Note_off_c, 0, 63, 96
2, 46919, Note_off_c, 0, 71, 64
2, 46920, Note_on_c, 0, 47, 49
2, 46920, Note_on_c, 0, 75, 73
2, 46920, Note_on_c, 0, 78, 73
2, 46920, Note_on_c, 0, 66, 48
2, 46979, Note_off_c, 0, 66, 56
2, 46979, Note_off_c, 0, 75, 39
2, 46979, Note_off_c, 0, 78, 48
2, 46980, Note_on_c, 0, 63, 54
2, 47038, Control_c, 0, 64, 0
2, 47039, Note_off_c, 0, 63, 88
2, 47040, Note_on_c, 0, 59, 100
2, 47040, Note_on_c, 0, 73, 69
2, 47045, Control_c, 0, 64, 127
2, 47099, Note_off_c, 0, 73, 60
2, 47099, Note_off_c, 0, 59, 64
2, 47100, Note_on_c, 0, 63, 54
2, 47100, Note_on_c, 0, 75, 73
2, 47159, Note_off_c, 0, 47, 45
2, 47159, Note_off_c, 0, 63, 100
2, 47159, Note_off_c, 0, 75, 72
2, 47160, Note_on_c, 0, 47, 60
2, 47160, Note_on_c, 0, 66, 60
2, 47160, Note_on_c, 0, 71, 81
2, 47219, Note_off_c, 0, 47, 48
2, 47219, Note_off_c, 0, 66, 72
2, 47219, Note_off_c, 0, 71, 46
2, 47220, Note_on_c, 0, 63, 64
2, 47279, Note_off_c, 0, 63, 92
2, 47280, Note_on_c, 0, 59, 96
2, 47339, Note_off_c, 0, 59, 68
2, 47340, Note_on_c, 0, 63, 60
2, 47340, Note_on_c, 0, 71, 73
2, 47399, Note_off_c, 0, 63, 96
2, 47399, Note_off_c, 0, 71, 56
2, 47400, Note_on_c, 0, 66, 60
2, 47400, Note_on_c, 0, 59, 107
2, 47400, Note_on_c, 0, 70, 65
2, 47400, Note_on_c, 0, 47, 64
2, 47459, Note_off_c, 0, 47, 88
2, 47459, Note_off_c, 0, 66, 100
2, 47459, Note_off_c, 0, 59, 100
2, 47459, Note_off_c, 0, 70, 80
2, 47460, Note_on_c, 0, 68, 63
2, 47518, Control_c, 0, 64, 0
2, 47519, Note_off_c, 0, 68, 60
2, 47520, Note_on_c, 0, 62, 56
2, 47520, Note_on_c, 0, 70, 62
2, 47520, Note_on_c, 0, 80, 85
2, 47520, Note_on_c, 0, 50, 93
2, 47520, Note_on_c, 0, 58, 73
2, 47639, Note_off_c, 0, 62, 35
2, 47640, Note_on_c, 0, 62, 77
2, 47699, Note_off_c, 0, 70, 84
2, 47699, Note_off_c, 0, 80, 84
2, 47700, Note_on_c, 0, 70, 71
2, 47700, Note_on_c, 0, 78, 97
2, 47759, Note_off_c, 0, 62, 37
2, 47760, Note_on_c, 0, 62, 71
2, 47819, Note_off_c, 0, 50, 60
2, 47879, Note_off_c, 0, 58, 84
2, 47879, Note_off_c, 0, 70, 11
2, 47879, Note_off_c, 0, 78, 80
2, 47879, Note_off_c, 0, 62, 39
2, 47880, Note_on_c, 0, 50, 97
2, 47880, Note_on_c, 0, 70, 77
2, 47880, Note_on_c, 0, 77, 81
2, 47880, Note_on_c, 0, 62, 73
2, 47999, Note_off_c, 0, 50, 44
2, 47999, Note_off_c, 0, 62, 52
2, 47999, Note_off_c, 0, 70, 72
2, 47999, Note_off_c, 0, 77, 50
2, 48000, Note_on_c, 0, 51, 85
2, 48000, Note_on_c, 0, 75, 63
2, 48000, Note_on_c, 0, 63, 77
2, 48005, Control_c, 0, 64, 127
2, 48059, Note_off_c, 0, 63, 68
2, 48120, Note_on_c, 0, 63, 62
2, 48179, Note_off_c, 0, 63, 60
2, 48180, Note_on_c, 0, 66, 69
2, 48300, Note_on_c, 0, 63, 60
2, 48359, Note_off_c, 0, 75, 36
2, 48359, Note_off_c, 0, 66, 47
2, 48359, Note_off_c, 0, 63, 60
2, 48360, Note_on_c, 0, 66, 60
2, 48360, Note_on_c, 0, 63, 60
2, 48419, Note_off_c, 0, 66, 45
2, 48420, Note_on_c, 0, 70, 55
2, 48478, Control_c, 0, 64, 0
2, 48479, Note_off_c, 0, 63, 64
2, 48479, Note_off_c, 0, 70, 47
2, 48480, Note_on_c, 0, 63, 77
2, 48480, Note_on_c, 0, 70, 65
2, 48485, Control_c, 0, 64, 127
2, 48539, Note_off_c, 0, 63, 68
2, 48539, Note_off_c, 0, 70, 21
2, 48600, Note_on_c, 0, 63, 62
2, 48659, Note_off_c, 0, 63, 60
2, 48660, Note_on_c, 0, 66, 69
2, 48780, Note_on_c, 0, 63, 60
2, 48839, Note_off_c, 0, 66, 47
2, 48839, Note_off_c, 0, 63, 60
2, 48840, Note_on_c, 0, 66, 60
2, 48840, Note_on_c, 0, 63, 60
2, 48899, Note_off_c, 0, 66, 45
2, 48900, Note_on_c, 0, 70, 55
2, 48958, Control_c, 0, 64, 0
2, 48959, Note_off_c, 0, 51, 88
2, 48959, Note_off_c, 0, 63, 64
2, 48959, Note_off_c, 0, 70, 47
2, 48960, Note_on_c, 0, 51, 85
2, 48960, Note_on_c, 0, 63, 77
2, 48960, Note_on_c, 0, 70, 81
2, 48965, Control_c, 0, 64, 127
2, 49019, Note_off_c, 0, 63, 68
2, 49019, Note_off_c, 0, 70, 49
2, 49080, Note_on_c, 0, 63, 62
2, 49139, Note_off_c, 0, 63, 60
2, 49140, Note_on_c, 0, 66, 69
2, 49260, Note_on_c, 0, 63, 60
2, 49319, Note_off_c, 0, 66, 47
2, 49319, Note_off_c, 0, 63, 60
2, 49320, Note_on_c, 0, 66, 60
2, 49320, Note_on_c, 0, 63, 60
2, 49379, Note_off_c, 0, 66, 45
2, 49380, Note_on_c, 0, 70, 55
2, 49438, Control_c, 0, 64, 0
2, 49439, Note_off_c, 0, 63, 64
2, 49439, Note_off_c, 0, 70, 47
2, 49440, Note_on_c, 0, 63, 77
2, 49445, Control_c, 0, 64, 127
2, 49499, Note_off_c, 0, 63, 68
2, 49560, Note_on_c, 0, 63, 49
2, 49619, Note_off_c, 0, 63, 60
2, 49620, Note_on_c, 0, 66, 56
2, 49740, Note_on_c, 0, 63, 47
2, 49799, Note_off_c, 0, 66, 47
2, 49799, Note_off_c, 0, 63, 60
2, 49800, Note_on_c, 0, 66, 47
2, 49800, Note_on_c, 0, 63, 47
2, 49800, Note_on_c, 0, 73, 100
2, 49859, Note_off_c, 0, 66, 45
2, 49859, Note_off_c, 0, 73, 84
2, 49860, Note_on_c, 0, 70, 42
2, 49918, Control_c, 0, 64, 0
2, 49919, Note_off_c, 0, 51, 88
2, 49919, Note_off_c, 0, 63, 64
2, 49919, Note_off_c, 0, 70, 47
2, 49920, Note_on_c, 0, 71, 96
2, 49920, Note_on_c, 0, 59, 84
2, 49920, Note_on_c, 0, 47, 96
2, 49979, Note_off_c, 0, 71, 84
2, 50040, Note_on_c, 0, 75, 80
2, 50040, Note_on_c, 0, 78, 88
2, 50040, Note_on_c, 0, 83, 100
2, 50099, Note_off_c, 0, 75, 88
2, 50099, Note_off_c, 0, 78, 96
2, 50099, Note_off_c, 0, 83, 92
2, 50160, Note_on_c, 0, 71, 88
2, 50219, Note_off_c, 0, 71, 96
2, 50280, Note_on_c, 0, 83, 104
2, 50280, Note_on_c, 0, 75, 88
2, 50280, Note_on_c, 0, 78, 92
2, 50339, Note_off_c, 0, 83, 88
2, 50339, Note_off_c, 0, 75, 80
2, 50339, Note_off_c, 0, 78, 92
2, 50400, Note_on_c, 0, 71, 96
2, 50459, Note_off_c, 0, 71, 84
2, 50520, Note_on_c, 0, 78, 96
2, 50520, Note_on_c, 0, 75, 80
2, 50520, Note_on_c, 0, 83, 104
2, 50579, Note_off_c, 0, 78, 92
2, 50579, Note_off_c, 0, 75, 84
2, 50579, Note_off_c, 0, 83, 92
2, 50640, Note_on_c, 0, 71, 88
2, 50699, Note_off_c, 0, 71, 96
2, 50760, Note_on_c, 0, 75, 88
2, 50760, Note_on_c, 0, 83, 100
2, 50760, Note_on_c, 0, 78, 92
2, 50819, Note_off_c, 0, 75, 76
2, 50819, Note_off_c, 0, 83, 88
2, 50819, Note_off_c, 0, 78, 88
2, 50879, Note_off_c, 0, 59, 80
2, 50879, Note_off_c, 0, 47, 76
2, 50880, Note_on_c, 0, 68, 92
2, 50880, Note_on_c, 0, 64, 108
2, 50880, Note_on_c, 0, 52, 104
2, 50939, Note_off_c, 0, 68, 84
2, 51000, Note_on_c, 0, 83, 80
2, 51000, Note_on_c, 0, 80, 88
2, 51000, Note_on_c, 0, 76, 68
2, 51059, Note_off_c, 0, 83, 72
2, 51059, Note_off_c, 0, 80, 88
2, 51059, Note_off_c, 0, 76, 58
2, 51120, Note_on_c, 0, 68, 88
2, 51179, Note_off_c, 0, 68, 88
2, 51240, Note_on_c, 0, 83, 92
2, 51240, Note_on_c, 0, 80, 96
2, 51240, Note_on_c, 0, 76, 108
2, 51299, Note_off_c, 0, 83, 88
2, 51299, Note_off_c, 0, 80, 92
2, 51299, Note_off_c, 0, 76, 96
2, 51360, Note_on_c, 0, 68, 96
2, 51419, Note_off_c, 0, 68, 88
2, 51480, Note_on_c, 0, 80, 92
2, 51480, Note_on_c, 0, 76, 76
2, 51480, Note_on_c, 0, 83, 92
2, 51539, Note_off_c, 0, 80, 92
2, 51539, Note_off_c, 0, 76, 88
2, 51539, Note_off_c, 0, 83, 84
2, 51600, Note_on_c, 0, 68, 100
2, 51659, Note_off_c, 0, 68, 100
2, 51720, Note_on_c, 0, 83, 96
2, 51720, Note_on_c, 0, 76, 92
2, 51720, Note_on_c, 0, 80, 88
2, 51779, Note_off_c, 0, 83, 104
2, 51779, Note_off_c, 0, 76, 104
2, 51779, Note_off_c, 0, 80, 92
2, 51839, Note_off_c, 0, 64, 84
2, 51839, Note_off_c, 0, 52, 88
2, 51840, Note_on_c, 0, 57, 96
2, 51840, Note_on_c, 0, 69, 108
2, 51840, Note_on_c, 0, 45, 96
2, 51899, Note_off_c, 0, 69, 76
2, 51960, Note_on_c, 0, 81, 96
2, 51960, Note_on_c, 0, 76, 100
2, 51960, Note_on_c, 0, 73, 72
2, 52019, Note_off_c, 0, 81, 96
2, 52019, Note_off_c, 0, 76, 96
2, 52019, Note_off_c, 0, 73, 49
2, 52080, Note_on_c, 0, 69, 104
2, 52139, Note_off_c, 0, 69, 96
2, 52200, Note_on_c, 0, 81, 96
2, 52200, Note_on_c, 0, 76, 104
2, 52200, Note_on_c, 0, 73, 80
2, 52259, Note_off_c, 0, 81, 104
2, 52259, Note_off_c, 0, 76, 104
2, 52259, Note_off_c, 0, 73, 56
2, 52320, Note_on_c, 0, 69, 100
2, 52379, Note_off_c, 0, 69, 84
2, 52440, Note_on_c, 0, 81, 96
2, 52440, Note_on_c, 0, 76, 96
2, 52440, Note_on_c, 0, 73, 84
2, 52499, Note_off_c, 0, 81, 92
2, 52499, Note_off_c, 0, 76, 100
2, 52499, Note_off_c, 0, 73, 58
2, 52560, Note_on_c, 0, 69, 112
2, 52619, Note_off_c, 0, 69, 100
2, 52680, Note_on_c, 0, 76, 92
2, 52680, Note_on_c, 0, 81, 96
2, 52680, Note_on_c, 0, 73, 68
2, 52739, Note_off_c, 0, 76, 108
2, 52739, Note_off_c, 0, 81, 108
2, 52739, Note_off_c, 0, 73, 80
2, 52799, Note_off_c, 0, 57, 96
2, 52799, Note_off_c, 0, 45, 92
2, 52800, Note_on_c, 0, 66, 84
2, 52800, Note_on_c, 0, 62, 82
2, 52800, Note_on_c, 0, 50, 104
2, 52859, Note_off_c, 0, 66, 68
2, 52920, Note_on_c, 0, 74, 88
2, 52920, Note_on_c, 0, 69, 80
2, 52920, Note_on_c, 0, 78, 80
2, 52979, Note_off_c, 0, 74, 92
2, 52979, Note_off_c, 0, 69, 76
2, 52979, Note_off_c, 0, 78, 58
2, 53040, Note_on_c, 0, 66, 92
2, 53099, Note_off_c, 0, 66, 68
2, 53160, Note_on_c, 0, 69, 84
2, 53160, Note_on_c, 0, 74, 84
2, 53160, Note_on_c, 0, 78, 76
2, 53219, Note_off_c, 0, 69, 64
2, 53219, Note_off_c, 0, 74, 96
2, 53219, Note_off_c, 0, 78, 76
2, 53280, Note_on_c, 0, 66, 92
2, 53339, Note_off_c, 0, 66, 72
2, 53400, Note_on_c, 0, 69, 76
2, 53400, Note_on_c, 0, 74, 92
2, 53400, Note_on_c, 0, 78, 76
2, 53459, Note_off_c, 0, 69, 60
2, 53459, Note_off_c, 0, 74, 84
2, 53459, Note_off_c, 0, 78, 64
2, 53520, Note_on_c, 0, 66, 96
2, 53579, Note_off_c, 0, 66, 108
2, 53640, Note_on_c, 0, 69, 72
2, 53640, Note_on_c, 0, 74, 88
2, 53640, Note_on_c, 0, 78, 72
2, 53699, Note_off_c, 0, 69, 88
2, 53699, Note_off_c, 0, 74, 108
2, 53699, Note_off_c, 0, 78, 104
2, 53759, Note_off_c, 0, 62, 92
2, 53759, Note_off_c, 0, 50, 80
2, 53760, Note_on_c, 0, 71, 96
2, 53760, Note_on_c, 0, 47, 116
2, 53760, Note_on_c, 0, 59, 116
2, 53819, Note_off_c, 0, 71, 84
2, 53880, Note_on_c, 0, 75, 80
2, 53880, Note_on_c, 0, 78, 88
2, 53880, Note_on_c, 0, 83, 100
2, 53939, Note_off_c, 0, 75, 88
2, 53939, Note_off_c, 0, 78, 96
2, 53939, Note_off_c, 0, 83, 92
2, 54000, Note_on_c, 0, 71, 88
2, 54059, Note_off_c, 0, 71, 96
2, 54120, Note_on_c, 0, 83, 104
2, 54120, Note_on_c, 0, 75, 88
2, 54120, Note_on_c, 0, 78, 92
2, 54179, Note_off_c, 0, 83, 88
2, 54179, Note_off_c, 0, 75, 80
2, 54179, Note_off_c, 0, 78, 92
2, 54240, Note_on_c, 0, 71, 96
2, 54299, Note_off_c, 0, 71, 84
2, 54360, Note_on_c, 0, 78, 96
2, 54360, Note_on_c, 0, 75, 80
2, 54360, Note_on_c, 0, 83, 104
2, 54419, Note_off_c, 0, 78, 92
2, 54419, Note_off_c, 0, 75, 84
2, 54419, Note_off_c, 0, 83, 92
2, 54480, Note_on_c, 0, 71, 88
2, 54539, Note_off_c, 0, 71, 96
2, 54600, Note_on_c, 0, 75, 88
2, 54600, Note_on_c, 0, 83, 100
2, 54600, Note_on_c, 0, 78, 92
2, 54659, Note_off_c, 0, 75, 76
2, 54659, Note_off_c, 0, 83, 88
2, 54659, Note_off_c, 0, 78, 88
2, 54719, Note_off_c, 0, 47, 116
2, 54719, Note_off_c, 0, 59, 96
2, 54720, Note_on_c, 0, 40, 112
2, 54720, Note_on_c, 0, 64, 104
2, 54720, Note_on_c, 0, 52, 108
2, 54779, Note_off_c, 0, 64, 120
2, 54840, Note_on_c, 0, 71, 88
2, 54840, Note_on_c, 0, 76, 88
2, 54840, Note_on_c, 0, 80, 76
2, 54899, Note_off_c, 0, 71, 76
2, 54899, Note_off_c, 0, 76, 88
2, 54899, Note_off_c, 0, 80, 58
2, 54960, Note_on_c, 0, 64, 104
2, 55019, Note_off_c, 0, 64, 116
2, 55080, Note_on_c, 0, 71, 92
2, 55080, Note_on_c, 0, 76, 84
2, 55080, Note_on_c, 0, 80, 84
2, 55139, Note_off_c, 0, 71, 100
2, 55139, Note_off_c, 0, 76, 108
2, 55139, Note_off_c, 0, 80, 100
2, 55199, Note_off_c, 0, 40, 104
2, 55199, Note_off_c, 0, 52, 96
2, 55200, Note_on_c, 0, 69, 116
2, 55200, Note_on_c, 0, 45, 116
2, 55200, Note_on_c, 0, 57, 112
2, 55259, Note_off_c, 0, 69, 84
2, 55320, Note_on_c, 0, 81, 96
2, 55320, Note_on_c, 0, 76, 88
2, 55320, Note_on_c, 0, 73, 54
2, 55379, Note_off_c, 0, 81, 92
2, 55379, Note_off_c, 0, 76, 96
2, 55379, Note_off_c, 0, 73, 37
2, 55440, Note_on_c, 0, 69, 112
2, 55499, Note_off_c, 0, 69, 112
2, 55560, Note_on_c, 0, 81, 100
2, 55560, Note_on_c, 0, 76, 104
2, 55560, Note_on_c, 0, 73, 80
2, 55619, Note_off_c, 0, 81, 104
2, 55619, Note_off_c, 0, 76, 100
2, 55619, Note_off_c, 0, 73, 76
2, 55679, Note_off_c, 0, 45, 108
2, 55679, Note_off_c, 0, 57, 100
2, 55680, Note_on_c, 0, 50, 108
2, 55680, Note_on_c, 0, 38, 108
2, 55680, Note_on_c, 0, 62, 104
2, 55739, Note_off_c, 0, 62, 92
2, 55800, Note_on_c, 0, 69, 64
2, 55800, Note_on_c, 0, 74, 84
2, 55800, Note_on_c, 0, 78, 72
2, 55859, Note_off_c, 0, 69, 64
2, 55859, Note_off_c, 0, 74, 84
2, 55859, Note_off_c, 0, 78, 44
2, 55920, Note_on_c, 0, 62, 116
2, 55979, Note_off_c, 0, 62, 88
2, 56040, Note_on_c, 0, 69, 68
2, 56040, Note_on_c, 0, 74, 84
2, 56040, Note_on_c, 0, 78, 84
2, 56099, Note_off_c, 0, 69, 88
2, 56099, Note_off_c, 0, 74, 88
2, 56099, Note_off_c, 0, 78, 92
2, 56159, Note_off_c, 0, 50, 84
2, 56159, Note_off_c, 0, 38, 72
2, 56160, Note_on_c, 0, 55, 112
2, 56160, Note_on_c, 0, 43, 112
2, 56160, Note_on_c, 0, 67, 100
2, 56219, Note_off_c, 0, 67, 64
2, 56280, Note_on_c, 0, 71, 64
2, 56280, Note_on_c, 0, 79, 84
2, 56280, Note_on_c, 0, 74, 84
2, 56339, Note_off_c, 0, 71, 38
2, 56339, Note_off_c, 0, 79, 58
2, 56339, Note_off_c, 0, 74, 50
2, 56400, Note_on_c, 0, 67, 112
2, 56459, Note_off_c, 0, 67, 104
2, 56520, Note_on_c, 0, 71, 68
2, 56520, Note_on_c, 0, 74, 92
2, 56520, Note_on_c, 0, 79, 84
2, 56579, Note_off_c, 0, 71, 54
2, 56579, Note_off_c, 0, 74, 84
2, 56579, Note_off_c, 0, 79, 88
2, 56639, Note_off_c, 0, 55, 88
2, 56639, Note_off_c, 0, 43, 84
2, 56640, Note_on_c, 0, 56, 108
2, 56640, Note_on_c, 0, 44, 100
2, 56640, Note_on_c, 0, 68, 96
2, 56699, Note_off_c, 0, 68, 76
2, 56760, Note_on_c, 0, 80, 84
2, 56760, Note_on_c, 0, 72, 80
2, 56760, Note_on_c, 0, 75, 76
2, 56819, Note_off_c, 0, 80, 47
2, 56819, Note_off_c, 0, 72, 42
2, 56819, Note_off_c, 0, 75, 44
2, 56880, Note_on_c, 0, 68, 100
2, 56939, Note_off_c, 0, 68, 92
2, 57000, Note_on_c, 0, 72, 64
2, 57000, Note_on_c, 0, 80, 84
2, 57000, Note_on_c, 0, 75, 72
2, 57059, Note_off_c, 0, 44, 116
2, 57059, Note_off_c, 0, 72, 56
2, 57059, Note_off_c, 0, 80, 72
2, 57059, Note_off_c, 0, 75, 52
2, 57119, Note_off_c, 0, 56, 108
2, 57120, Note_on_c, 0, 83, 108
2, 57120, Note_on_c, 0, 78, 84
2, 57120, Note_on_c, 0, 75, 100
2, 57120, Note_on_c, 0, 37, 104
2, 57120, Note_on_c, 0, 49, 100
2, 57120, Note_on_c, 0, 61, 72
2, 57125, Control_c, 0, 64, 127
2, 57179, Note_off_c, 0, 61, 58
2, 57240, Note_on_c, 0, 73, 92
2, 57240, Note_on_c, 0, 61, 58
2, 57299, Note_off_c, 0, 73, 76
2, 57299, Note_off_c, 0, 61, 60
2, 57300, Note_on_c, 0, 78, 84
2, 57359, Note_off_c, 0, 83, 84
2, 57359, Note_off_c, 0, 78, 80
2, 57360, Note_on_c, 0, 61, 58
2, 57419, Note_off_c, 0, 75, 84
2, 57419, Note_off_c, 0, 37, 84
2, 57419, Note_off_c, 0, 49, 80
2, 57419, Note_off_c, 0, 78, 39
2, 57419, Note_off_c, 0, 61, 84
2, 57420, Note_on_c, 0, 73, 68
2, 57479, Note_off_c, 0, 73, 72
2, 57480, Note_on_c, 0, 83, 100
2, 57480, Note_on_c, 0, 78, 88
2, 57480, Note_on_c, 0, 75, 76
2, 57480, Note_on_c, 0, 37, 92
2, 57480, Note_on_c, 0, 49, 76
2, 57480, Note_on_c, 0, 61, 84
2, 57539, Note_off_c, 0, 83, 64
2, 57539, Note_off_c, 0, 78, 88
2, 57539, Note_off_c, 0, 61, 88
2, 57540, Note_on_c, 0, 73, 76
2, 57598, Control_c, 0, 64, 0
2, 57599, Note_off_c, 0, 75, 84
2, 57599, Note_off_c, 0, 37, 96
2, 57599, Note_off_c, 0, 49, 84
2, 57599, Note_off_c, 0, 73, 84
2, 57600, Note_on_c, 0, 82, 84
2, 57600, Note_on_c, 0, 78, 88
2, 57600, Note_on_c, 0, 73, 100
2, 57600, Note_on_c, 0, 61, 76
2, 57605, Control_c, 0, 64, 127
2, 57659, Note_off_c, 0, 61, 80
2, 57720, Note_on_c, 0, 73, 76
2, 57720, Note_on_c, 0, 37, 104
2, 57720, Note_on_c, 0, 49, 104
2, 57720, Note_on_c, 0, 61, 84
2, 57779, Note_off_c, 0, 73, 80
2, 57779, Note_off_c, 0, 61, 92
2, 57780, Note_on_c, 0, 78, 88
2, 57839, Note_off_c, 0, 37, 92
2, 57839, Note_off_c, 0, 49, 80
2, 57840, Note_on_c, 0, 61, 96
2, 57899, Note_off_c, 0, 82, 58
2, 57899, Note_off_c, 0, 78, 38
2, 57899, Note_off_c, 0, 61, 100
2, 57900, Note_on_c, 0, 73, 68
2, 57905, Note_off_c, 0, 78, 84
2, 57959, Note_off_c, 0, 73, 88
2, 57959, Note_off_c, 0, 73, 60
2, 57960, Note_on_c, 0, 82, 72
2, 57960, Note_on_c, 0, 78, 88
2, 57960, Note_on_c, 0, 70, 72
2, 57960, Note_on_c, 0, 37, 104
2, 57960, Note_on_c, 0, 49, 96
2, 57960, Note_on_c, 0, 73, 76
2, 57960, Note_on_c, 0, 61, 88
2, 58019, Note_off_c, 0, 70, 68
2, 58020, Note_on_c, 0, 73, 72
2, 58078, Control_c, 0, 64, 0
2, 58079, Note_off_c, 0, 82, 88
2, 58079, Note_off_c, 0, 78, 84
2, 58079, Note_off_c, 0, 37, 96
2, 58079, Note_off_c, 0, 49, 92
2, 58079, Note_off_c, 0, 73, 76
2, 58079, Note_off_c, 0, 61, 72
2, 58079, Note_off_c, 0, 73, 58
2, 58080, Note_on_c, 0, 71, 76
2, 58080, Note_on_c, 0, 80, 76
2, 58080, Note_on_c, 0, 83, 72
2, 58085, Control_c, 0, 64, 127
2, 58199, Note_off_c, 0, 83, 84
2, 58200, Note_on_c, 0, 37, 96
2, 58200, Note_on_c, 0, 49, 84
2, 58259, Note_off_c, 0, 71, 76
2, 58259, Note_off_c, 0, 80, 56
2, 58260, Note_on_c, 0, 82, 68
2, 58260, Note_on_c, 0, 78, 84
2, 58260, Note_on_c, 0, 71, 64
2, 58379, Note_off_c, 0, 82, 60
2, 58379, Note_off_c, 0, 71, 52
2, 58439, Note_off_c, 0, 78, 49
2, 58440, Note_on_c, 0, 80, 64
2, 58440, Note_on_c, 0, 77, 60
2, 58440, Note_on_c, 0, 71, 64
2, 58499, Note_off_c, 0, 80, 30
2, 58499, Note_off_c, 0, 71, 48
2, 58558, Control_c, 0, 64, 0
2, 58559, Note_off_c, 0, 37, 108
2, 58559, Note_off_c, 0, 49, 108
2, 58559, Note_off_c, 0, 77, 44
2, 58560, Note_on_c, 0, 70, 56
2, 58560, Note_on_c, 0, 54, 46
2, 58560, Note_on_c, 0, 42, 35
2, 58560, Note_on_c, 0, 78, 58
2, 60479, Note_off_c, 0, 70, 100
2, 60479, Note_off_c, 0, 54, 76
2, 60479, Note_off_c, 0, 42, 96
2, 60479, Note_off_c, 0, 78, 88
2, 60480, End_track
3, 0, Start_track
3, 0, Title_t, "Flute"
3, 0, Program_c, 1, 73
3, 0, Control_c, 1, 7, 64
3, 0, Control_c, 1, 10, 71
3, 0, Control_c, 1, 11, 127
3, 0, Control_c, 1, 91, 92
3, 0, Control_c, 1, 93, 72
3, 0, Pitch_bend_c, 1, 8192
3, 11760, Note_on_c, 1, 66, 64
3, 11760, Note_on_c, 1, 70, 60
3, 11879, Note_off_c, 1, 70, 92
3, 11879, Note_off_c, 1, 66, 58
3, 11880, Note_on_c, 1, 68, 72
3, 11880, Note_on_c, 1, 65, 56
3, 11999, Note_off_c, 1, 68, 84
3, 11999, Note_off_c, 1, 65, 80
3, 12000, Note_on_c, 1, 66, 58
3, 12000, Note_on_c, 1, 63, 60
3, 12659, Note_off_c, 1, 66, 44
3, 12659, Note_off_c, 1, 63, 49
3, 12720, Note_on_c, 1, 66, 54
3, 12720, Note_on_c, 1, 63, 49
3, 12839, Note_off_c, 1, 66, 38
3, 12839, Note_off_c, 1, 63, 49
3, 12840, Note_on_c, 1, 61, 49
3, 12840, Note_on_c, 1, 65, 47
3, 12959, Note_off_c, 1, 61, 46
3, 12959, Note_off_c, 1, 65, 58
3, 12960, Note_on_c, 1, 63, 56
3, 12960, Note_on_c, 1, 59, 46
3, 13439, Note_off_c, 1, 59, 68
3, 13439, Note_off_c, 1, 63, 92
3, 13440, Note_on_c, 1, 58, 52
3, 13440, Note_on_c, 1, 61, 76
3, 13917, Note_on_c, 1, 63, 58
3, 13918, Note_on_c, 1, 59, 68
3, 13919, Note_off_c, 1, 58, 100
3, 13919, Note_off_c, 1, 61, 104
3, 14377, Note_off_c, 1, 63, 54
3, 14397, Note_off_c, 1, 59, 48
3, 14400, Note_on_c, 1, 61, 68
3, 14400, Note_on_c, 1, 58, 47
3, 14819, Note_off_c, 1, 61, 88
3, 14819, Note_off_c, 1, 58, 58
3, 14880, Note_on_c, 1, 56, 64
3, 15059, Note_off_c, 1, 56, 54
3, 15060, Note_on_c, 1, 58, 76
3, 15239, Note_off_c, 1, 58, 92
3, 15240, Note_on_c, 1, 59, 80
3, 15359, Note_off_c, 1, 59, 56
3, 15360, Note_on_c, 1, 58, 80
3, 15599, Note_off_c, 1, 58, 80
3, 15600, Note_on_c, 1, 56, 72
3, 15839, Note_off_c, 1, 56, 88
3, 15840, Note_on_c, 1, 54, 72
3, 15840, Note_on_c, 1, 51, 89
3, 16199, Note_off_c, 1, 54, 100
3, 17219, Note_off_c, 1, 51, 68
3, 17280, Note_on_c, 1, 49, 96
3, 17759, Note_off_c, 1, 49, 92
3, 17760, Note_on_c, 1, 59, 76
3, 17760, Note_on_c, 1, 63, 54
3, 18719, Note_off_c, 1, 59, 96
3, 18719, Note_off_c, 1, 63, 100
3, 18720, Note_on_c, 1, 58, 88
3, 18720, Note_on_c, 1, 63, 72
3, 18899, Note_off_c, 1, 63, 92
3, 18899, Note_off_c, 1, 58, 46
3, 18900, Note_on_c, 1, 60, 76
3, 18900, Note_on_c, 1, 63, 60
3, 19079, Note_off_c, 1, 63, 92
3, 19080, Note_on_c, 1, 65, 60
3, 19199, Note_off_c, 1, 60, 72
3, 19199, Note_off_c, 1, 65, 60
3, 19200, Note_on_c, 1, 63, 58
3, 19200, Note_on_c, 1, 66, 64
3, 21119, Note_off_c, 1, 63, 88
3, 21119, Note_off_c, 1, 66, 88
3, 28320, Note_on_c, 1, 71, 108
3, 28320, Note_on_c, 1, 66, 68
3, 28799, Note_off_c, 1, 66, 44
3, 28799, Note_off_c, 1, 71, 48
3, 28800, Note_on_c, 1, 66, 37
3, 28800, Note_on_c, 1, 70, 96
3, 29279, Note_off_c, 1, 70, 72
3, 29279, Note_off_c, 1, 66, 60
3, 29280, Note_on_c, 1, 68, 92
3, 29280, Note_on_c, 1, 65, 52
3, 29459, Note_off_c, 1, 68, 56
3, 29459, Note_off_c, 1, 65, 44
3, 29460, Note_on_c, 1, 66, 92
3, 29460, Note_on_c, 1, 63, 50
3, 29639, Note_off_c, 1, 63, 48
3, 29639, Note_off_c, 1, 66, 92
3, 29640, Note_on_c, 1, 61, 50
3, 29640, Note_on_c, 1, 65, 84
3, 29759, Note_off_c, 1, 61, 49
3, 29759, Note_off_c, 1, 65, 76
3, 29760, Note_on_c, 1, 61, 58
3, 29760, Note_on_c, 1, 66, 80
3, 31199, Note_off_c, 1, 66, 47
3, 31199, Note_off_c, 1, 61, 108
3, 57120, Note_on_c, 1, 71, 108
3, 57120, Note_on_c, 1, 66, 68
3, 57599, Note_off_c, 1, 71, 48
3, 57599, Note_off_c, 1, 66, 44
3, 57600, Note_on_c, 1, 66, 37
3, 57600, Note_on_c, 1, 70, 96
3, 58079, Note_off_c, 1, 66, 60
3, 58079, Note_off_c, 1, 70, 72
3, 58080, Note_on_c, 1, 68, 92
3, 58080, Note_on_c, 1, 65, 52
3, 58259, Note_off_c, 1, 68, 56
3, 58259, Note_off_c, 1, 65, 44
3, 58260, Note_on_c, 1, 66, 92
3, 58260, Note_on_c, 1, 63, 50
3, 58439, Note_off_c, 1, 66, 92
3, 58439, Note_off_c, 1, 63, 48
3, 58440, Note_on_c, 1, 61, 50
3, 58440, Note_on_c, 1, 65, 84
3, 58559, Note_off_c, 1, 61, 49
3, 58559, Note_off_c, 1, 65, 76
3, 58560, Note_on_c, 1, 61, 58
3, 58560, Note_on_c, 1, 66, 80
3, 59999, Note_off_c, 1, 61, 108
3, 59999, Note_off_c, 1, 66, 47
3, 60000, End_track
4, 0, Start_track
4, 0, Title_t, "Harmonica"
4, 0, Program_c, 2, 22
4, 0, Control_c, 2, 7, 48
4, 0, Control_c, 2, 10, 64
4, 0, Control_c, 2, 11, 127
4, 0, Control_c, 2, 91, 50
4, 0, Control_c, 2, 93, 64
4, 0, Pitch_bend_c, 2, 8192
4, 21240, Note_on_c, 2, 78, 92
4, 21240, Note_on_c, 2, 83, 116
4, 21299, Note_off_c, 2, 78, 96
4, 21299, Note_off_c, 2, 83, 96
4, 21480, Note_on_c, 2, 83, 108
4, 21480, Note_on_c, 2, 78, 88
4, 21539, Note_off_c, 2, 78, 92
4, 21539, Note_off_c, 2, 83, 96
4, 21720, Note_on_c, 2, 83, 112
4, 21720, Note_on_c, 2, 78, 92
4, 21779, Note_off_c, 2, 78, 100
4, 21779, Note_off_c, 2, 83, 92
4, 21960, Note_on_c, 2, 83, 116
4, 21960, Note_on_c, 2, 78, 100
4, 22019, Note_off_c, 2, 78, 108
4, 22019, Note_off_c, 2, 83, 96
4, 22200, Note_on_c, 2, 80, 100
4, 22200, Note_on_c, 2, 76, 104
4, 22259, Note_off_c, 2, 76, 104
4, 22259, Note_off_c, 2, 80, 80
4, 22440, Note_on_c, 2, 76, 116
4, 22440, Note_on_c, 2, 80, 100
4, 22499, Note_off_c, 2, 76, 100
4, 22499, Note_off_c, 2, 80, 92
4, 22680, Note_on_c, 2, 80, 96
4, 22680, Note_on_c, 2, 76, 104
4, 22739, Note_off_c, 2, 76, 104
4, 22739, Note_off_c, 2, 80, 84
4, 22920, Note_on_c, 2, 80, 96
4, 22920, Note_on_c, 2, 76, 104
4, 22979, Note_off_c, 2, 76, 104
4, 22979, Note_off_c, 2, 80, 100
4, 23160, Note_on_c, 2, 81, 116
4, 23160, Note_on_c, 2, 76, 104
4, 23219, Note_off_c, 2, 76, 88
4, 23219, Note_off_c, 2, 81, 84
4, 23400, Note_on_c, 2, 76, 104
4, 23400, Note_on_c, 2, 81, 116
4, 23459, Note_off_c, 2, 76, 96
4, 23459, Note_off_c, 2, 81, 96
4, 23640, Note_on_c, 2, 81, 112
4, 23640, Note_on_c, 2, 76, 112
4, 23699, Note_off_c, 2, 76, 84
4, 23699, Note_off_c, 2, 81, 92
4, 23880, Note_on_c, 2, 81, 108
4, 23880, Note_on_c, 2, 76, 112
4, 23939, Note_off_c, 2, 76, 104
4, 23939, Note_off_c, 2, 81, 96
4, 24120, Note_on_c, 2, 74, 104
4, 24120, Note_on_c, 2, 78, 100
4, 24179, Note_off_c, 2, 74, 84
4, 24179, Note_off_c, 2, 78, 84
4, 24360, Note_on_c, 2, 74, 112
4, 24360, Note_on_c, 2, 78, 92
4, 24419, Note_off_c, 2, 74, 100
4, 24419, Note_off_c, 2, 78, 96
4, 24600, Note_on_c, 2, 74, 100
4, 24600, Note_on_c, 2, 78, 96
4, 24659, Note_off_c, 2, 74, 92
4, 24659, Note_off_c, 2, 78, 96
4, 24840, Note_on_c, 2, 78, 96
4, 24840, Note_on_c, 2, 74, 112
4, 24899, Note_off_c, 2, 74, 68
4, 24899, Note_off_c, 2, 78, 92
4, 25080, Note_on_c, 2, 78, 92
4, 25080, Note_on_c, 2, 83, 112
4, 25139, Note_off_c, 2, 78, 96
4, 25139, Note_off_c, 2, 83, 96
4, 25320, Note_on_c, 2, 83, 116
4, 25320, Note_on_c, 2, 78, 104
4, 25379, Note_off_c, 2, 78, 88
4, 25379, Note_off_c, 2, 83, 100
4, 25560, Note_on_c, 2, 83, 112
4, 25560, Note_on_c, 2, 78, 92
4, 25619, Note_off_c, 2, 78, 84
4, 25619, Note_off_c, 2, 83, 100
4, 25800, Note_on_c, 2, 83, 112
4, 25800, Note_on_c, 2, 78, 92
4, 25859, Note_off_c, 2, 78, 84
4, 25859, Note_off_c, 2, 83, 96
4, 26040, Note_on_c, 2, 80, 100
4, 26040, Note_on_c, 2, 76, 112
4, 26099, Note_off_c, 2, 76, 100
4, 26099, Note_off_c, 2, 80, 88
4, 26280, Note_on_c, 2, 80, 100
4, 26280, Note_on_c, 2, 76, 108
4, 26339, Note_off_c, 2, 76, 92
4, 26339, Note_off_c, 2, 80, 92
4, 26520, Note_on_c, 2, 81, 112
4, 26520, Note_on_c, 2, 76, 112
4, 26579, Note_off_c, 2, 76, 92
4, 26579, Note_off_c, 2, 81, 96
4, 26760, Note_on_c, 2, 81, 108
4, 26760, Note_on_c, 2, 76, 116
4, 26819, Note_off_c, 2, 76, 100
4, 26819, Note_off_c, 2, 81, 92
4, 27000, Note_on_c, 2, 78, 100
4, 27000, Note_on_c, 2, 74, 108
4, 27059, Note_off_c, 2, 74, 80
4, 27059, Note_off_c, 2, 78, 88
4, 27240, Note_on_c, 2, 78, 96
4, 27240, Note_on_c, 2, 74, 108
4, 27299, Note_off_c, 2, 74, 84
4, 27299, Note_off_c, 2, 78, 92
4, 27480, Note_on_c, 2, 74, 92
4, 27480, Note_on_c, 2, 79, 112
4, 27539, Note_off_c, 2, 74, 96
4, 27539, Note_off_c, 2, 79, 96
4, 27720, Note_on_c, 2, 79, 112
4, 27720, Note_on_c, 2, 74, 108
4, 27779, Note_off_c, 2, 74, 96
4, 27779, Note_off_c, 2, 79, 92
4, 27960, Note_on_c, 2, 80, 100
4, 27960, Note_on_c, 2, 75, 100
4, 28019, Note_off_c, 2, 75, 92
4, 28019, Note_off_c, 2, 80, 104
4, 28200, Note_on_c, 2, 80, 104
4, 28200, Note_on_c, 2, 75, 96
4, 28259, Note_off_c, 2, 75, 84
4, 28259, Note_off_c, 2, 80, 96
4, 28320, Note_on_c, 2, 75, 96
4, 28619, Note_off_c, 2, 75, 76
4, 28680, Note_on_c, 2, 75, 84
4, 28799, Note_off_c, 2, 75, 80
4, 28800, Note_on_c, 2, 73, 108
4, 29099, Note_off_c, 2, 73, 88
4, 29160, Note_on_c, 2, 73, 88
4, 29279, Note_off_c, 2, 73, 88
4, 29280, Note_on_c, 2, 71, 104
4, 29459, Note_off_c, 2, 71, 96
4, 29460, Note_on_c, 2, 71, 100
4, 29639, Note_off_c, 2, 71, 88
4, 29640, Note_on_c, 2, 71, 88
4, 29759, Note_off_c, 2, 71, 64
4, 29760, Note_on_c, 2, 70, 68
4, 30899, Note_off_c, 2, 70, 68
4, 50040, Note_on_c, 2, 78, 92
4, 50040, Note_on_c, 2, 83, 116
4, 50099, Note_off_c, 2, 78, 96
4, 50099, Note_off_c, 2, 83, 96
4, 50280, Note_on_c, 2, 83, 108
4, 50280, Note_on_c, 2, 78, 88
4, 50339, Note_off_c, 2, 83, 96
4, 50339, Note_off_c, 2, 78, 92
4, 50520, Note_on_c, 2, 83, 112
4, 50520, Note_on_c, 2, 78, 92
4, 50579, Note_off_c, 2, 83, 92
4, 50579, Note_off_c, 2, 78, 100
4, 50760, Note_on_c, 2, 83, 116
4, 50760, Note_on_c, 2, 78, 100
4, 50819, Note_off_c, 2, 83, 96
4, 50819, Note_off_c, 2, 78, 108
4, 51000, Note_on_c, 2, 80, 100
4, 51000, Note_on_c, 2, 76, 104
4, 51059, Note_off_c, 2, 80, 80
4, 51059, Note_off_c, 2, 76, 104
4, 51240, Note_on_c, 2, 76, 116
4, 51240, Note_on_c, 2, 80, 100
4, 51299, Note_off_c, 2, 76, 100
4, 51299, Note_off_c, 2, 80, 92
4, 51480, Note_on_c, 2, 80, 96
4, 51480, Note_on_c, 2, 76, 104
4, 51539, Note_off_c, 2, 80, 84
4, 51539, Note_off_c, 2, 76, 104
4, 51720, Note_on_c, 2, 80, 96
4, 51720, Note_on_c, 2, 76, 104
4, 51779, Note_off_c, 2, 80, 100
4, 51779, Note_off_c, 2, 76, 104
4, 51960, Note_on_c, 2, 81, 116
4, 51960, Note_on_c, 2, 76, 104
4, 52019, Note_off_c, 2, 81, 84
4, 52019, Note_off_c, 2, 76, 88
4, 52200, Note_on_c, 2, 76, 104
4, 52200, Note_on_c, 2, 81, 116
4, 52259, Note_off_c, 2, 76, 96
4, 52259, Note_off_c, 2, 81, 96
4, 52440, Note_on_c, 2, 81, 112
4, 52440, Note_on_c, 2, 76, 112
4, 52499, Note_off_c, 2, 81, 92
4, 52499, Note_off_c, 2, 76, 84
4, 52680, Note_on_c, 2, 81, 108
4, 52680, Note_on_c, 2, 76, 112
4, 52739, Note_off_c, 2, 81, 96
4, 52739, Note_off_c, 2, 76, 104
4, 52920, Note_on_c, 2, 74, 104
4, 52920, Note_on_c, 2, 78, 100
4, 52979, Note_off_c, 2, 74, 84
4, 52979, Note_off_c, 2, 78, 84
4, 53160, Note_on_c, 2, 74, 112
4, 53160, Note_on_c, 2, 78, 92
4, 53219, Note_off_c, 2, 74, 100
4, 53219, Note_off_c, 2, 78, 96
4, 53400, Note_on_c, 2, 74, 100
4, 53400, Note_on_c, 2, 78, 96
4, 53459, Note_off_c, 2, 74, 92
4, 53459, Note_off_c, 2, 78, 96
4, 53640, Note_on_c, 2, 78, 96
4, 53640, Note_on_c, 2, 74, 112
4, 53699, Note_off_c, 2, 78, 92
4, 53699, Note_off_c, 2, 74, 68
4, 53880, Note_on_c, 2, 78, 92
4, 53880, Note_on_c, 2, 83, 112
4, 53939, Note_off_c, 2, 78, 96
4, 53939, Note_off_c, 2, 83, 96
4, 54120, Note_on_c, 2, 83, 116
4, 54120, Note_on_c, 2, 78, 104
4, 54179, Note_off_c, 2, 83, 100
4, 54179, Note_off_c, 2, 78, 88
4, 54360, Note_on_c, 2, 83, 112
4, 54360, Note_on_c, 2, 78, 92
4, 54419, Note_off_c, 2, 83, 100
4, 54419, Note_off_c, 2, 78, 84
4, 54600, Note_on_c, 2, 83, 112
4, 54600, Note_on_c, 2, 78, 92
4, 54659, Note_off_c, 2, 83, 96
4, 54659, Note_off_c, 2, 78, 84
4, 54840, Note_on_c, 2, 80, 100
4, 54840, Note_on_c, 2, 76, 112
4, 54899, Note_off_c, 2, 80, 88
4, 54899, Note_off_c, 2, 76, 100
4, 55080, Note_on_c, 2, 80, 100
4, 55080, Note_on_c, 2, 76, 108
4, 55139, Note_off_c, 2, 80, 92
4, 55139, Note_off_c, 2, 76, 92
4, 55320, Note_on_c, 2, 81, 112
4, 55320, Note_on_c, 2, 76, 112
4, 55379, Note_off_c, 2, 81, 96
4, 55379, Note_off_c, 2, 76, 92
4, 55560, Note_on_c, 2, 81, 108
4, 55560, Note_on_c, 2, 76, 116
4, 55619, Note_off_c, 2, 81, 92
4, 55619, Note_off_c, 2, 76, 100
4, 55800, Note_on_c, 2, 78, 100
4, 55800, Note_on_c, 2, 74, 108
4, 55859, Note_off_c, 2, 78, 88
4, 55859, Note_off_c, 2, 74, 80
4, 56040, Note_on_c, 2, 78, 96
4, 56040, Note_on_c, 2, 74, 108
4, 56099, Note_off_c, 2, 78, 92
4, 56099, Note_off_c, 2, 74, 84
4, 56280, Note_on_c, 2, 74, 92
4, 56280, Note_on_c, 2, 79, 112
4, 56339, Note_off_c, 2, 74, 96
4, 56339, Note_off_c, 2, 79, 96
4, 56520, Note_on_c, 2, 79, 112
4, 56520, Note_on_c, 2, 74, 108
4, 56579, Note_off_c, 2, 79, 92
4, 56579, Note_off_c, 2, 74, 96
4, 56760, Note_on_c, 2, 80, 100
4, 56760, Note_on_c, 2, 75, 100
4, 56819, Note_off_c, 2, 80, 104
4, 56819, Note_off_c, 2, 75, 92
4, 57000, Note_on_c, 2, 80, 104
4, 57000, Note_on_c, 2, 75, 96
4, 57059, Note_off_c, 2, 80, 96
4, 57059, Note_off_c, 2, 75, 84
4, 57120, Note_on_c, 2, 83, 104
4, 57120, Note_on_c, 2, 75, 96
4, 57120, Note_on_c, 2, 78, 88
4, 57419, Note_off_c, 2, 75, 76
4, 57419, Note_off_c, 2, 83, 92
4, 57419, Note_off_c, 2, 78, 76
4, 57480, Note_on_c, 2, 78, 84
4, 57480, Note_on_c, 2, 75, 84
4, 57480, Note_on_c, 2, 83, 92
4, 57599, Note_off_c, 2, 78, 80
4, 57599, Note_off_c, 2, 75, 80
4, 57599, Note_off_c, 2, 83, 127
4, 57600, Note_on_c, 2, 78, 100
4, 57600, Note_on_c, 2, 73, 108
4, 57600, Note_on_c, 2, 82, 80
4, 57899, Note_off_c, 2, 73, 88
4, 57899, Note_off_c, 2, 82, 100
4, 57899, Note_off_c, 2, 78, 88
4, 57960, Note_on_c, 2, 78, 84
4, 57960, Note_on_c, 2, 73, 88
4, 57960, Note_on_c, 2, 82, 68
4, 58079, Note_off_c, 2, 73, 88
4, 58079, Note_off_c, 2, 82, 56
4, 58079, Note_off_c, 2, 78, 76
4, 58080, Note_on_c, 2, 71, 104
4, 58080, Note_on_c, 2, 80, 76
4, 58080, Note_on_c, 2, 77, 84
4, 58259, Note_off_c, 2, 71, 96
4, 58259, Note_off_c, 2, 80, 76
4, 58259, Note_off_c, 2, 77, 52
4, 58260, Note_on_c, 2, 71, 100
4, 58260, Note_on_c, 2, 78, 80
4, 58260, Note_on_c, 2, 75, 92
4, 58439, Note_off_c, 2, 78, 80
4, 58439, Note_off_c, 2, 71, 88
4, 58439, Note_off_c, 2, 75, 76
4, 58440, Note_on_c, 2, 77, 72
4, 58440, Note_on_c, 2, 71, 88
4, 58440, Note_on_c, 2, 73, 68
4, 58559, Note_off_c, 2, 73, 68
4, 58559, Note_off_c, 2, 77, 49
4, 58559, Note_off_c, 2, 71, 64
4, 58560, Note_on_c, 2, 70, 68
4, 58560, Note_on_c, 2, 78, 58
4, 58560, Note_on_c, 2, 73, 80
4, 59699, Note_off_c, 2, 70, 68
4, 59999, Note_off_c, 2, 73, 104
4, 59999, Note_off_c, 2, 78, 76
4, 60000, End_track
5, 0, Start_track
5, 0, Title_t, "Reed Organ"
5, 0, Program_c, 3, 20
5, 0, Control_c, 3, 7, 66
5, 0, Control_c, 3, 10, 51
5, 0, Control_c, 3, 11, 127
5, 0, Control_c, 3, 91, 60
5, 0, Control_c, 3, 93, 108
5, 3120, Note_on_c, 3, 70, 88
5, 3179, Note_off_c, 3, 70, 60
5, 3240, Note_on_c, 3, 70, 60
5, 3299, Note_off_c, 3, 70, 84
5, 3300, Note_on_c, 3, 70, 88
5, 3539, Note_off_c, 3, 70, 72
5, 3600, Note_on_c, 3, 68, 76
5, 3659, Note_off_c, 3, 68, 45
5, 3720, Note_on_c, 3, 66, 80
5, 3779, Note_off_c, 3, 66, 58
5, 3840, Note_on_c, 3, 65, 76
5, 4019, Note_off_c, 3, 65, 42
5, 4080, Note_on_c, 3, 63, 72
5, 4199, Note_off_c, 3, 63, 54
5, 4200, Note_on_c, 3, 61, 72
5, 4259, Note_off_c, 3, 61, 84
5, 4260, Note_on_c, 3, 61, 88
5, 4739, Note_off_c, 3, 61, 104
5, 4920, Note_on_c, 3, 75, 84
5, 4979, Note_off_c, 3, 75, 96
5, 4980, Note_on_c, 3, 75, 76
5, 5039, Note_off_c, 3, 75, 104
5, 5040, Note_on_c, 3, 75, 84
5, 5219, Note_off_c, 3, 75, 88
5, 5220, Note_on_c, 3, 73, 92
5, 5399, Note_off_c, 3, 73, 84
5, 5460, Note_on_c, 3, 71, 100
5, 5639, Note_off_c, 3, 71, 88
5, 5640, Note_on_c, 3, 70, 92
5, 5699, Note_off_c, 3, 70, 100
5, 5760, Note_on_c, 3, 68, 92
5, 5879, Note_off_c, 3, 68, 96
5, 5940, Note_on_c, 3, 66, 104
5, 6059, Note_off_c, 3, 66, 100
5, 6120, Note_on_c, 3, 68, 108
5, 6179, Note_off_c, 3, 68, 92
5, 6240, Note_on_c, 3, 70, 104
5, 6419, Note_off_c, 3, 70, 112
5, 6720, Note_on_c, 3, 70, 96
5, 6779, Note_off_c, 3, 70, 92
5, 6840, Note_on_c, 3, 70, 92
5, 6899, Note_off_c, 3, 70, 100
5, 6960, Note_on_c, 3, 70, 96
5, 7019, Note_off_c, 3, 70, 92
5, 7080, Note_on_c, 3, 70, 88
5, 7139, Note_off_c, 3, 70, 108
5, 7140, Note_on_c, 3, 70, 96
5, 7319, Note_off_c, 3, 70, 64
5, 7320, Note_on_c, 3, 68, 100
5, 7379, Note_off_c, 3, 68, 84
5, 7440, Note_on_c, 3, 66, 100
5, 7559, Note_off_c, 3, 66, 92
5, 7560, Note_on_c, 3, 65, 96
5, 7619, Note_off_c, 3, 65, 100
5, 7680, Note_on_c, 3, 65, 76
5, 7859, Note_off_c, 3, 65, 42
5, 7920, Note_on_c, 3, 63, 72
5, 8039, Note_off_c, 3, 63, 54
5, 8040, Note_on_c, 3, 61, 72
5, 8099, Note_off_c, 3, 61, 84
5, 8100, Note_on_c, 3, 61, 88
5, 8579, Note_off_c, 3, 61, 104
5, 8760, Note_on_c, 3, 75, 64
5, 8819, Note_off_c, 3, 75, 72
5, 8820, Note_on_c, 3, 75, 84
5, 8879, Note_off_c, 3, 75, 104
5, 8880, Note_on_c, 3, 75, 96
5, 8939, Note_off_c, 3, 75, 64
5, 9000, Note_on_c, 3, 75, 84
5, 9059, Note_off_c, 3, 75, 104
5, 9060, Note_on_c, 3, 75, 100
5, 9179, Note_off_c, 3, 75, 92
5, 9180, Note_on_c, 3, 73, 88
5, 9299, Note_off_c, 3, 73, 54
5, 9360, Note_on_c, 3, 71, 112
5, 9419, Note_off_c, 3, 71, 84
5, 9480, Note_on_c, 3, 70, 92
5, 9539, Note_off_c, 3, 70, 54
5, 9600, Note_on_c, 3, 77, 92
5, 9719, Note_off_c, 3, 77, 88
5, 9780, Note_on_c, 3, 75, 100
5, 9899, Note_off_c, 3, 75, 96
5, 9960, Note_on_c, 3, 74, 112
5, 10019, Note_off_c, 3, 74, 84
5, 10080, Note_on_c, 3, 75, 100
5, 10559, Note_off_c, 3, 75, 96
5, 12120, Note_on_c, 3, 70, 76
5, 12179, Note_off_c, 3, 70, 104
5, 12180, Note_on_c, 3, 70, 80
5, 12239, Note_off_c, 3, 70, 112
5, 12240, Note_on_c, 3, 70, 108
5, 12359, Note_off_c, 3, 70, 72
5, 12420, Note_on_c, 3, 70, 80
5, 12599, Note_off_c, 3, 70, 64
5, 12600, Note_on_c, 3, 68, 88
5, 12659, Note_off_c, 3, 68, 64
5, 12720, Note_on_c, 3, 66, 96
5, 12779, Note_off_c, 3, 66, 84
5, 12840, Note_on_c, 3, 65, 80
5, 12899, Note_off_c, 3, 65, 76
5, 12960, Note_on_c, 3, 65, 96
5, 13079, Note_off_c, 3, 65, 84
5, 13140, Note_on_c, 3, 63, 100
5, 13259, Note_off_c, 3, 63, 96
5, 13320, Note_on_c, 3, 59, 96
5, 13379, Note_off_c, 3, 59, 104
5, 13380, Note_on_c, 3, 61, 96
5, 13619, Note_off_c, 3, 61, 100
5, 14040, Note_on_c, 3, 75, 100
5, 14099, Note_off_c, 3, 75, 104
5, 14160, Note_on_c, 3, 75, 104
5, 14339, Note_off_c, 3, 75, 84
5, 14340, Note_on_c, 3, 73, 88
5, 14519, Note_off_c, 3, 73, 72
5, 14520, Note_on_c, 3, 71, 100
5, 14699, Note_off_c, 3, 71, 64
5, 14760, Note_on_c, 3, 70, 76
5, 14819, Note_off_c, 3, 70, 56
5, 14880, Note_on_c, 3, 68, 100
5, 14999, Note_off_c, 3, 68, 104
5, 15060, Note_on_c, 3, 66, 88
5, 15179, Note_off_c, 3, 66, 96
5, 15240, Note_on_c, 3, 68, 108
5, 15299, Note_off_c, 3, 68, 80
5, 15360, Note_on_c, 3, 70, 104
5, 15599, Note_off_c, 3, 70, 112
5, 15960, Note_on_c, 3, 70, 88
5, 16019, Note_off_c, 3, 70, 104
5, 16080, Note_on_c, 3, 70, 104
5, 16139, Note_off_c, 3, 70, 92
5, 16200, Note_on_c, 3, 70, 68
5, 16259, Note_off_c, 3, 70, 100
5, 16260, Note_on_c, 3, 70, 92
5, 16379, Note_off_c, 3, 70, 56
5, 16380, Note_on_c, 3, 68, 100
5, 16619, Note_off_c, 3, 68, 72
5, 16680, Note_on_c, 3, 65, 96
5, 16739, Note_off_c, 3, 65, 92
5, 16800, Note_on_c, 3, 63, 100
5, 16979, Note_off_c, 3, 63, 96
5, 17040, Note_on_c, 3, 63, 104
5, 17099, Note_off_c, 3, 63, 100
5, 17160, Note_on_c, 3, 59, 100
5, 17219, Note_off_c, 3, 59, 84
5, 17220, Note_on_c, 3, 61, 96
5, 17579, Note_off_c, 3, 61, 112
5, 17760, Note_on_c, 3, 75, 96
5, 17879, Note_off_c, 3, 75, 100
5, 17940, Note_on_c, 3, 75, 96
5, 18059, Note_off_c, 3, 75, 84
5, 18120, Note_on_c, 3, 75, 96
5, 18179, Note_off_c, 3, 75, 68
5, 18240, Note_on_c, 3, 75, 96
5, 18419, Note_off_c, 3, 75, 68
5, 18420, Note_on_c, 3, 73, 104
5, 18599, Note_off_c, 3, 73, 88
5, 18600, Note_on_c, 3, 71, 100
5, 18719, Note_off_c, 3, 71, 104
5, 18720, Note_on_c, 3, 77, 100
5, 18899, Note_off_c, 3, 77, 54
5, 18900, Note_on_c, 3, 75, 100
5, 19019, Note_off_c, 3, 75, 88
5, 19020, Note_on_c, 3, 74, 92
5, 19079, Note_off_c, 3, 74, 88
5, 19080, Note_on_c, 3, 75, 96
5, 19499, Note_off_c, 3, 75, 116
5, 21240, Note_on_c, 3, 75, 96
5, 21299, Note_off_c, 3, 75, 104
5, 21300, Note_on_c, 3, 75, 92
5, 21359, Note_off_c, 3, 75, 92
5, 21420, Note_on_c, 3, 75, 100
5, 21479, Note_off_c, 3, 75, 76
5, 21600, Note_on_c, 3, 78, 108
5, 21719, Note_off_c, 3, 78, 104
5, 21780, Note_on_c, 3, 75, 96
5, 21899, Note_off_c, 3, 75, 60
5, 21960, Note_on_c, 3, 73, 108
5, 22019, Note_off_c, 3, 73, 92
5, 22080, Note_on_c, 3, 74, 112
5, 22199, Note_off_c, 3, 74, 92
5, 22260, Note_on_c, 3, 73, 104
5, 22379, Note_off_c, 3, 73, 96
5, 22440, Note_on_c, 3, 71, 108
5, 22499, Note_off_c, 3, 71, 100
5, 22560, Note_on_c, 3, 74, 108
5, 22799, Note_off_c, 3, 74, 104
5, 23160, Note_on_c, 3, 73, 100
5, 23219, Note_off_c, 3, 73, 100
5, 23220, Note_on_c, 3, 73, 96
5, 23279, Note_off_c, 3, 73, 76
5, 23340, Note_on_c, 3, 73, 100
5, 23459, Note_off_c, 3, 73, 76
5, 23520, Note_on_c, 3, 76, 108
5, 23639, Note_off_c, 3, 76, 104
5, 23700, Note_on_c, 3, 73, 100
5, 23819, Note_off_c, 3, 73, 92
5, 23880, Note_on_c, 3, 69, 100
5, 23939, Note_off_c, 3, 69, 92
5, 24000, Note_on_c, 3, 72, 104
5, 24119, Note_off_c, 3, 72, 108
5, 24180, Note_on_c, 3, 71, 108
5, 24299, Note_off_c, 3, 71, 92
5, 24360, Note_on_c, 3, 69, 104
5, 24419, Note_off_c, 3, 69, 96
5, 24480, Note_on_c, 3, 72, 108
5, 24659, Note_off_c, 3, 72, 112
5, 25080, Note_on_c, 3, 75, 104
5, 25139, Note_off_c, 3, 75, 112
5, 25200, Note_on_c, 3, 75, 104
5, 25259, Note_off_c, 3, 75, 112
5, 25320, Note_on_c, 3, 75, 104
5, 25379, Note_off_c, 3, 75, 112
5, 25440, Note_on_c, 3, 77, 104
5, 25499, Note_off_c, 3, 77, 29
5, 25500, Note_on_c, 3, 78, 108
5, 25559, Note_off_c, 3, 78, 92
5, 25620, Note_on_c, 3, 73, 108
5, 25679, Note_off_c, 3, 73, 84
5, 25740, Note_on_c, 3, 71, 104
5, 25919, Note_off_c, 3, 71, 104
5, 25920, Note_on_c, 3, 74, 112
5, 26039, Note_off_c, 3, 74, 112
5, 26100, Note_on_c, 3, 73, 100
5, 26219, Note_off_c, 3, 73, 88
5, 26280, Note_on_c, 3, 71, 108
5, 26339, Note_off_c, 3, 71, 104
5, 26400, Note_on_c, 3, 73, 92
5, 26459, Note_off_c, 3, 73, 100
5, 26580, Note_on_c, 3, 71, 112
5, 26699, Note_off_c, 3, 71, 100
5, 26760, Note_on_c, 3, 69, 100
5, 26819, Note_off_c, 3, 69, 104
5, 26880, Note_on_c, 3, 72, 112
5, 26999, Note_off_c, 3, 72, 100
5, 27060, Note_on_c, 3, 71, 116
5, 27179, Note_off_c, 3, 71, 100
5, 27240, Note_on_c, 3, 69, 112
5, 27299, Note_off_c, 3, 69, 96
5, 27360, Note_on_c, 3, 71, 112
5, 27479, Note_off_c, 3, 71, 92
5, 27540, Note_on_c, 3, 69, 108
5, 27659, Note_off_c, 3, 69, 108
5, 27720, Note_on_c, 3, 67, 120
5, 27779, Note_off_c, 3, 67, 108
5, 27840, Note_on_c, 3, 72, 108
5, 28019, Note_off_c, 3, 72, 96
5, 28020, Note_on_c, 3, 73, 108
5, 28139, Note_off_c, 3, 73, 92
5, 28200, Note_on_c, 3, 75, 112
5, 28259, Note_off_c, 3, 75, 96
5, 28320, Note_on_c, 3, 75, 116
5, 28799, Note_off_c, 3, 75, 88
5, 28800, Note_on_c, 3, 73, 104
5, 29219, Note_off_c, 3, 73, 92
5, 29280, Note_on_c, 3, 71, 104
5, 29399, Note_off_c, 3, 71, 96
5, 29460, Note_on_c, 3, 70, 96
5, 29579, Note_off_c, 3, 70, 80
5, 29640, Note_on_c, 3, 68, 104
5, 29699, Note_off_c, 3, 68, 60
5, 29760, Note_on_c, 3, 70, 88
5, 30719, Note_off_c, 3, 70, 96
5, 31800, Note_on_c, 3, 70, 100
5, 31859, Note_off_c, 3, 70, 88
5, 31920, Note_on_c, 3, 70, 92
5, 31979, Note_off_c, 3, 70, 96
5, 32040, Note_on_c, 3, 70, 84
5, 32099, Note_off_c, 3, 70, 92
5, 32100, Note_on_c, 3, 70, 92
5, 32279, Note_off_c, 3, 70, 68
5, 32280, Note_on_c, 3, 68, 88
5, 32339, Note_off_c, 3, 68, 72
5, 32400, Note_on_c, 3, 66, 100
5, 32459, Note_off_c, 3, 66, 84
5, 32520, Note_on_c, 3, 65, 92
5, 32579, Note_off_c, 3, 65, 88
5, 32640, Note_on_c, 3, 65, 112
5, 32759, Note_off_c, 3, 65, 92
5, 32820, Note_on_c, 3, 63, 108
5, 32879, Note_off_c, 3, 63, 92
5, 33000, Note_on_c, 3, 59, 104
5, 33059, Note_off_c, 3, 59, 50
5, 33060, Note_on_c, 3, 61, 96
5, 33359, Note_off_c, 3, 61, 108
5, 33480, Note_on_c, 3, 73, 100
5, 33539, Note_off_c, 3, 73, 92
5, 33540, Note_on_c, 3, 73, 96
5, 33599, Note_off_c, 3, 73, 92
5, 33600, Note_on_c, 3, 75, 100
5, 33719, Note_off_c, 3, 75, 84
5, 33780, Note_on_c, 3, 75, 104
5, 33899, Note_off_c, 3, 75, 64
5, 33960, Note_on_c, 3, 73, 100
5, 34019, Note_off_c, 3, 73, 100
5, 34080, Note_on_c, 3, 73, 104
5, 34139, Note_off_c, 3, 73, 96
5, 34200, Note_on_c, 3, 71, 108
5, 34259, Note_off_c, 3, 71, 88
5, 34320, Note_on_c, 3, 71, 108
5, 34379, Note_off_c, 3, 71, 80
5, 34440, Note_on_c, 3, 70, 96
5, 34499, Note_off_c, 3, 70, 58
5, 34560, Note_on_c, 3, 68, 100
5, 34679, Note_off_c, 3, 68, 108
5, 34740, Note_on_c, 3, 68, 104
5, 34799, Note_off_c, 3, 68, 100
5, 34860, Note_on_c, 3, 68, 84
5, 34919, Note_off_c, 3, 68, 96
5, 34920, Note_on_c, 3, 70, 88
5, 35099, Note_off_c, 3, 70, 100
5, 35640, Note_on_c, 3, 70, 76
5, 35699, Note_off_c, 3, 70, 100
5, 35760, Note_on_c, 3, 70, 100
5, 35819, Note_off_c, 3, 70, 88
5, 35880, Note_on_c, 3, 70, 84
5, 35939, Note_off_c, 3, 70, 96
5, 35940, Note_on_c, 3, 70, 100
5, 36059, Note_off_c, 3, 70, 92
5, 36120, Note_on_c, 3, 68, 104
5, 36299, Note_off_c, 3, 68, 76
5, 36360, Note_on_c, 3, 66, 100
5, 36419, Note_off_c, 3, 66, 52
5, 36480, Note_on_c, 3, 65, 112
5, 36599, Note_off_c, 3, 65, 68
5, 36660, Note_on_c, 3, 63, 108
5, 36779, Note_off_c, 3, 63, 96
5, 36840, Note_on_c, 3, 59, 112
5, 36899, Note_off_c, 3, 59, 104
5, 36900, Note_on_c, 3, 61, 100
5, 37139, Note_off_c, 3, 61, 88
5, 37440, Note_on_c, 3, 75, 108
5, 37559, Note_off_c, 3, 75, 84
5, 37620, Note_on_c, 3, 75, 108
5, 37679, Note_off_c, 3, 75, 88
5, 37740, Note_on_c, 3, 75, 108
5, 37799, Note_off_c, 3, 75, 104
5, 37800, Note_on_c, 3, 75, 96
5, 37859, Note_off_c, 3, 75, 104
5, 37860, Note_on_c, 3, 73, 112
5, 37979, Note_off_c, 3, 73, 112
5, 38280, Note_on_c, 3, 75, 108
5, 38339, Note_off_c, 3, 75, 76
5, 38400, Note_on_c, 3, 77, 112
5, 38579, Note_off_c, 3, 77, 52
5, 38580, Note_on_c, 3, 75, 108
5, 38699, Note_off_c, 3, 75, 84
5, 38700, Note_on_c, 3, 74, 116
5, 38759, Note_off_c, 3, 74, 38
5, 38760, Note_on_c, 3, 75, 100
5, 39119, Note_off_c, 3, 75, 96
5, 40740, Note_on_c, 3, 73, 96
5, 40799, Note_off_c, 3, 73, 84
5, 40800, Note_on_c, 3, 75, 96
5, 40979, Note_off_c, 3, 75, 96
5, 40980, Note_on_c, 3, 75, 104
5, 41099, Note_off_c, 3, 75, 96
5, 41160, Note_on_c, 3, 75, 92
5, 41219, Note_off_c, 3, 75, 92
5, 41220, Note_on_c, 3, 75, 88
5, 41279, Note_off_c, 3, 75, 108
5, 41340, Note_on_c, 3, 73, 100
5, 41579, Note_off_c, 3, 73, 108
5, 41640, Note_on_c, 3, 73, 104
5, 41699, Note_off_c, 3, 73, 88
5, 41760, Note_on_c, 3, 73, 100
5, 41879, Note_off_c, 3, 73, 96
5, 41940, Note_on_c, 3, 71, 116
5, 41999, Note_off_c, 3, 71, 92
5, 42060, Note_on_c, 3, 71, 108
5, 42119, Note_off_c, 3, 71, 72
5, 42120, Note_on_c, 3, 70, 96
5, 42359, Note_off_c, 3, 70, 116
5, 42840, Note_on_c, 3, 75, 96
5, 42899, Note_off_c, 3, 75, 108
5, 42900, Note_on_c, 3, 75, 100
5, 42959, Note_off_c, 3, 75, 100
5, 43020, Note_on_c, 3, 75, 100
5, 43079, Note_off_c, 3, 75, 100
5, 43140, Note_on_c, 3, 75, 108
5, 43319, Note_off_c, 3, 75, 80
5, 43320, Note_on_c, 3, 73, 100
5, 43379, Note_off_c, 3, 73, 84
5, 43560, Note_on_c, 3, 73, 96
5, 43619, Note_off_c, 3, 73, 96
5, 43680, Note_on_c, 3, 73, 100
5, 43799, Note_off_c, 3, 73, 92
5, 43860, Note_on_c, 3, 73, 92
5, 43979, Note_off_c, 3, 73, 92
5, 43980, Note_on_c, 3, 71, 96
5, 44039, Note_off_c, 3, 71, 54
5, 44040, Note_on_c, 3, 70, 108
5, 44339, Note_off_c, 3, 70, 100
5, 44580, Note_on_c, 3, 78, 112
5, 44759, Note_off_c, 3, 78, 88
5, 44880, Note_on_c, 3, 78, 104
5, 44999, Note_off_c, 3, 78, 96
5, 45000, Note_on_c, 3, 77, 92
5, 45059, Note_off_c, 3, 77, 92
5, 45060, Note_on_c, 3, 77, 100
5, 45179, Note_off_c, 3, 77, 92
5, 45180, Note_on_c, 3, 75, 104
5, 45359, Note_off_c, 3, 75, 100
5, 45360, Note_on_c, 3, 75, 112
5, 45419, Note_off_c, 3, 75, 76
5, 45480, Note_on_c, 3, 73, 100
5, 45539, Note_off_c, 3, 73, 76
5, 45600, Note_on_c, 3, 75, 112
5, 45719, Note_off_c, 3, 75, 92
5, 45780, Note_on_c, 3, 75, 108
5, 45839, Note_off_c, 3, 75, 84
5, 45900, Note_on_c, 3, 68, 92
5, 45959, Note_off_c, 3, 68, 84
5, 45960, Note_on_c, 3, 70, 100
5, 46199, Note_off_c, 3, 70, 108
5, 46440, Note_on_c, 3, 70, 100
5, 46499, Note_off_c, 3, 70, 104
5, 46500, Note_on_c, 3, 70, 92
5, 46559, Note_off_c, 3, 70, 80
5, 46560, Note_on_c, 3, 75, 108
5, 46739, Note_off_c, 3, 75, 92
5, 46800, Note_on_c, 3, 75, 104
5, 46859, Note_off_c, 3, 75, 84
5, 46920, Note_on_c, 3, 75, 100
5, 46979, Note_off_c, 3, 75, 68
5, 46980, Note_on_c, 3, 75, 84
5, 47099, Note_off_c, 3, 75, 68
5, 47160, Note_on_c, 3, 73, 100
5, 47279, Note_off_c, 3, 73, 88
5, 47400, Note_on_c, 3, 71, 108
5, 47459, Note_off_c, 3, 71, 88
5, 47520, Note_on_c, 3, 77, 92
5, 47639, Note_off_c, 3, 77, 88
5, 47700, Note_on_c, 3, 75, 104
5, 47819, Note_off_c, 3, 75, 96
5, 47820, Note_on_c, 3, 74, 100
5, 47879, Note_off_c, 3, 74, 84
5, 47880, Note_on_c, 3, 75, 96
5, 48239, Note_off_c, 3, 75, 76
5, 50040, Note_on_c, 3, 75, 96
5, 50099, Note_off_c, 3, 75, 104
5, 50100, Note_on_c, 3, 75, 92
5, 50159, Note_off_c, 3, 75, 92
5, 50220, Note_on_c, 3, 75, 100
5, 50279, Note_off_c, 3, 75, 76
5, 50400, Note_on_c, 3, 78, 108
5, 50519, Note_off_c, 3, 78, 104
5, 50580, Note_on_c, 3, 75, 96
5, 50699, Note_off_c, 3, 75, 60
5, 50760, Note_on_c, 3, 73, 108
5, 50819, Note_off_c, 3, 73, 92
5, 50880, Note_on_c, 3, 74, 112
5, 50999, Note_off_c, 3, 74, 92
5, 51060, Note_on_c, 3, 73, 104
5, 51179, Note_off_c, 3, 73, 96
5, 51240, Note_on_c, 3, 71, 108
5, 51299, Note_off_c, 3, 71, 100
5, 51360, Note_on_c, 3, 74, 108
5, 51599, Note_off_c, 3, 74, 104
5, 51960, Note_on_c, 3, 73, 100
5, 52019, Note_off_c, 3, 73, 100
5, 52020, Note_on_c, 3, 73, 96
5, 52079, Note_off_c, 3, 73, 76
5, 52140, Note_on_c, 3, 73, 100
5, 52259, Note_off_c, 3, 73, 76
5, 52320, Note_on_c, 3, 76, 108
5, 52439, Note_off_c, 3, 76, 104
5, 52500, Note_on_c, 3, 73, 100
5, 52619, Note_off_c, 3, 73, 92
5, 52680, Note_on_c, 3, 69, 100
5, 52739, Note_off_c, 3, 69, 92
5, 52800, Note_on_c, 3, 72, 104
5, 52919, Note_off_c, 3, 72, 108
5, 52980, Note_on_c, 3, 71, 108
5, 53099, Note_off_c, 3, 71, 92
5, 53160, Note_on_c, 3, 69, 104
5, 53219, Note_off_c, 3, 69, 96
5, 53280, Note_on_c, 3, 72, 108
5, 53459, Note_off_c, 3, 72, 112
5, 53880, Note_on_c, 3, 75, 104
5, 53939, Note_off_c, 3, 75, 112
5, 54000, Note_on_c, 3, 75, 104
5, 54059, Note_off_c, 3, 75, 112
5, 54120, Note_on_c, 3, 75, 104
5, 54179, Note_off_c, 3, 75, 112
5, 54240, Note_on_c, 3, 77, 104
5, 54299, Note_off_c, 3, 77, 29
5, 54300, Note_on_c, 3, 78, 108
5, 54359, Note_off_c, 3, 78, 92
5, 54420, Note_on_c, 3, 73, 108
5, 54479, Note_off_c, 3, 73, 84
5, 54540, Note_on_c, 3, 71, 104
5, 54719, Note_off_c, 3, 71, 104
5, 54720, Note_on_c, 3, 74, 112
5, 54839, Note_off_c, 3, 74, 112
5, 54900, Note_on_c, 3, 73, 100
5, 55019, Note_off_c, 3, 73, 88
5, 55080, Note_on_c, 3, 71, 108
5, 55139, Note_off_c, 3, 71, 104
5, 55200, Note_on_c, 3, 73, 92
5, 55259, Note_off_c, 3, 73, 100
5, 55380, Note_on_c, 3, 71, 112
5, 55499, Note_off_c, 3, 71, 100
5, 55560, Note_on_c, 3, 69, 100
5, 55619, Note_off_c, 3, 69, 104
5, 55680, Note_on_c, 3, 72, 112
5, 55799, Note_off_c, 3, 72, 100
5, 55860, Note_on_c, 3, 71, 116
5, 55979, Note_off_c, 3, 71, 100
5, 56040, Note_on_c, 3, 69, 112
5, 56099, Note_off_c, 3, 69, 96
5, 56160, Note_on_c, 3, 71, 112
5, 56279, Note_off_c, 3, 71, 92
5, 56340, Note_on_c, 3, 69, 108
5, 56459, Note_off_c, 3, 69, 108
5, 56520, Note_on_c, 3, 67, 120
5, 56579, Note_off_c, 3, 67, 108
5, 56640, Note_on_c, 3, 72, 108
5, 56819, Note_off_c, 3, 72, 96
5, 56820, Note_on_c, 3, 73, 108
5, 56939, Note_off_c, 3, 73, 92
5, 57000, Note_on_c, 3, 75, 112
5, 57059, Note_off_c, 3, 75, 96
5, 57120, Note_on_c, 3, 75, 116
5, 57599, Note_off_c, 3, 75, 88
5, 57600, Note_on_c, 3, 73, 104
5, 58019, Note_off_c, 3, 73, 92
5, 58080, Note_on_c, 3, 71, 104
5, 58199, Note_off_c, 3, 71, 96
5, 58260, Note_on_c, 3, 70, 96
5, 58379, Note_off_c, 3, 70, 80
5, 58440, Note_on_c, 3, 68, 104
5, 58499, Note_off_c, 3, 68, 60
5, 58560, Note_on_c, 3, 70, 88
5, 59519, Note_off_c, 3, 70, 96
5, 59520, End_track
6, 0, Start_track
6, 0, Title_t, "Acoustic Bass"
6, 0, Program_c, 4, 32
6, 0, Control_c, 4, 7, 56
6, 0, Control_c, 4, 10, 64
6, 0, Control_c, 4, 11, 127
6, 0, Control_c, 4, 91, 68
6, 0, Control_c, 4, 93, 56
6, 0, Pitch_bend_c, 4, 8192
6, 21120, Note_on_c, 4, 47, 88
6, 22079, Note_off_c, 4, 47, 76
6, 22080, Note_on_c, 4, 40, 96
6, 23039, Note_off_c, 4, 40, 92
6, 23040, Note_on_c, 4, 45, 76
6, 23999, Note_off_c, 4, 45, 96
6, 24000, Note_on_c, 4, 38, 96
6, 24959, Note_off_c, 4, 38, 92
6, 24960, Note_on_c, 4, 47, 96
6, 25919, Note_off_c, 4, 47, 84
6, 25920, Note_on_c, 4, 40, 96
6, 26399, Note_off_c, 4, 40, 88
6, 26400, Note_on_c, 4, 45, 88
6, 26879, Note_off_c, 4, 45, 92
6, 26880, Note_on_c, 4, 38, 96
6, 27359, Note_off_c, 4, 38, 88
6, 27360, Note_on_c, 4, 43, 92
6, 27839, Note_off_c, 4, 43, 108
6, 27840, Note_on_c, 4, 44, 88
6, 28319, Note_off_c, 4, 44, 100
6, 28320, Note_on_c, 4, 49, 54
6, 28320, Note_on_c, 4, 37, 80
6, 29279, Note_off_c, 4, 37, 92
6, 29279, Note_off_c, 4, 49, 32
6, 29280, Note_on_c, 4, 37, 92
6, 29280, Note_on_c, 4, 49, 60
6, 29759, Note_off_c, 4, 49, 49
6, 29759, Note_off_c, 4, 37, 48
6, 29760, Note_on_c, 4, 42, 68
6, 29760, Note_on_c, 4, 54, 80
6, 31439, Note_off_c, 4, 54, 108
6, 31439, Note_off_c, 4, 42, 96
6, 49920, Note_on_c, 4, 47, 88
6, 50879, Note_off_c, 4, 47, 76
6, 50880, Note_on_c, 4, 40, 96
6, 51839, Note_off_c, 4, 40, 92
6, 51840, Note_on_c, 4, 45, 76
6, 52799, Note_off_c, 4, 45, 96
6, 52800, Note_on_c, 4, 38, 96
6, 53759, Note_off_c, 4, 38, 92
6, 53760, Note_on_c, 4, 47, 96
6, 54719, Note_off_c, 4, 47, 84
6, 54720, Note_on_c, 4, 40, 96
6, 55199, Note_off_c, 4, 40, 88
6, 55200, Note_on_c, 4, 45, 88
6, 55679, Note_off_c, 4, 45, 92
6, 55680, Note_on_c, 4, 38, 96
6, 56159, Note_off_c, 4, 38, 88
6, 56160, Note_on_c, 4, 43, 92
6, 56639, Note_off_c, 4, 43, 108
6, 56640, Note_on_c, 4, 44, 88
6, 57119, Note_off_c, 4, 44, 100
6, 57120, End_track
7, 0, Start_track
7, 0, Title_t, "String Ensemble 1"
7, 0, Program_c, 5, 48
7, 0, Control_c, 5, 7, 62
7, 0, Control_c, 5, 10, 35
7, 0, Control_c, 5, 11, 127
7, 0, Control_c, 5, 91, 34
7, 0, Control_c, 5, 93, 58
7, 0, Pitch_bend_c, 5, 8192
7, 21120, Note_on_c, 5, 59, 104
7, 21120, Note_on_c, 5, 71, 104
7, 21959, Note_off_c, 5, 59, 104
7, 21959, Note_off_c, 5, 71, 104
7, 22080, Note_on_c, 5, 52, 84
7, 22080, Note_on_c, 5, 64, 84
7, 22919, Note_off_c, 5, 52, 108
7, 22919, Note_off_c, 5, 64, 108
7, 23040, Note_on_c, 5, 57, 76
7, 23040, Note_on_c, 5, 69, 76
7, 23879, Note_off_c, 5, 57, 88
7, 23879, Note_off_c, 5, 69, 88
7, 24000, Note_on_c, 5, 50, 92
7, 24000, Note_on_c, 5, 62, 92
7, 24839, Note_off_c, 5, 50, 96
7, 24839, Note_off_c, 5, 62, 96
7, 24960, Note_on_c, 5, 59, 76
7, 24960, Note_on_c, 5, 71, 76
7, 25799, Note_off_c, 5, 59, 100
7, 25799, Note_off_c, 5, 71, 100
7, 25920, Note_on_c, 5, 52, 80
7, 25920, Note_on_c, 5, 64, 80
7, 26279, Note_off_c, 5, 52, 92
7, 26279, Note_off_c, 5, 64, 92
7, 26400, Note_on_c, 5, 57, 72
7, 26400, Note_on_c, 5, 69, 72
7, 26759, Note_off_c, 5, 57, 108
7, 26759, Note_off_c, 5, 69, 108
7, 26880, Note_on_c, 5, 50, 92
7, 26880, Note_on_c, 5, 62, 92
7, 27239, Note_off_c, 5, 50, 88
7, 27239, Note_off_c, 5, 62, 88
7, 27360, Note_on_c, 5, 55, 56
7, 27360, Note_on_c, 5, 67, 56
7, 27719, Note_off_c, 5, 55, 56
7, 27719, Note_off_c, 5, 67, 56
7, 27840, Note_on_c, 5, 56, 76
7, 27840, Note_on_c, 5, 68, 76
7, 28259, Note_off_c, 5, 56, 49
7, 28259, Note_off_c, 5, 68, 49
7, 38880, Note_on_c, 5, 70, 50
7, 38880, Note_on_c, 5, 63, 47
7, 40739, Note_off_c, 5, 63, 76
7, 40739, Note_off_c, 5, 70, 96
7, 40800, Note_on_c, 5, 75, 100
7, 40800, Note_on_c, 5, 70, 108
7, 41519, Note_off_c, 5, 75, 76
7, 41520, Note_on_c, 5, 73, 104
7, 41759, Note_off_c, 5, 70, 100
7, 41759, Note_off_c, 5, 73, 92
7, 41760, Note_on_c, 5, 66, 112
7, 41760, Note_on_c, 5, 71, 108
7, 42239, Note_off_c, 5, 66, 100
7, 42239, Note_off_c, 5, 71, 84
7, 42240, Note_on_c, 5, 73, 104
7, 42240, Note_on_c, 5, 66, 108
7, 42719, Note_off_c, 5, 66, 96
7, 42719, Note_off_c, 5, 73, 104
7, 42720, Note_on_c, 5, 73, 96
7, 42720, Note_on_c, 5, 66, 96
7, 43559, Note_off_c, 5, 66, 40
7, 43559, Note_off_c, 5, 73, 88
7, 43560, Note_on_c, 5, 66, 54
7, 43620, Note_on_c, 5, 71, 116
7, 43679, Note_off_c, 5, 66, 84
7, 43680, Note_on_c, 5, 65, 100
7, 43859, Note_off_c, 5, 65, 58
7, 43860, Note_on_c, 5, 66, 104
7, 43979, Note_off_c, 5, 66, 112
7, 43980, Note_on_c, 5, 68, 104
7, 44159, Note_off_c, 5, 68, 96
7, 44159, Note_off_c, 5, 71, 36
7, 44160, Note_on_c, 5, 70, 108
7, 44160, Note_on_c, 5, 66, 108
7, 44399, Note_off_c, 5, 66, 92
7, 44399, Note_off_c, 5, 70, 88
7, 44400, Note_on_c, 5, 68, 104
7, 44400, Note_on_c, 5, 65, 116
7, 44639, Note_off_c, 5, 65, 92
7, 44639, Note_off_c, 5, 68, 92
7, 44640, Note_on_c, 5, 66, 108
7, 44640, Note_on_c, 5, 63, 116
7, 45359, Note_off_c, 5, 63, 96
7, 45360, Note_on_c, 5, 61, 112
7, 45539, Note_off_c, 5, 66, 104
7, 45599, Note_off_c, 5, 61, 96
7, 45600, Note_on_c, 5, 63, 108
7, 45600, Note_on_c, 5, 71, 120
7, 46079, Note_off_c, 5, 63, 104
7, 46079, Note_off_c, 5, 71, 72
7, 46080, Note_on_c, 5, 70, 108
7, 46080, Note_on_c, 5, 61, 108
7, 46559, Note_off_c, 5, 70, 88
7, 46559, Note_off_c, 5, 61, 108
7, 46560, Note_on_c, 5, 59, 112
7, 46560, Note_on_c, 5, 66, 96
7, 46979, Note_off_c, 5, 66, 96
7, 46979, Note_off_c, 5, 59, 108
7, 47040, Note_on_c, 5, 66, 100
7, 47040, Note_on_c, 5, 59, 104
7, 47459, Note_off_c, 5, 59, 100
7, 47519, Note_off_c, 5, 66, 92
7, 47520, Note_on_c, 5, 61, 108
7, 47520, Note_on_c, 5, 68, 112
7, 47939, Note_off_c, 5, 68, 108
7, 47940, Note_on_c, 5, 70, 100
7, 47999, Note_off_c, 5, 61, 92
7, 48000, Note_on_c, 5, 63, 104
7, 49439, Note_off_c, 5, 63, 104
7, 49439, Note_off_c, 5, 70, 96
7, 49920, Note_on_c, 5, 59, 104
7, 49920, Note_on_c, 5, 71, 104
7, 50759, Note_off_c, 5, 59, 104
7, 50759, Note_off_c, 5, 71, 104
7, 50880, Note_on_c, 5, 52, 84
7, 50880, Note_on_c, 5, 64, 84
7, 51719, Note_off_c, 5, 52, 108
7, 51719, Note_off_c, 5, 64, 108
7, 51840, Note_on_c, 5, 57, 76
7, 51840, Note_on_c, 5, 69, 76
7, 52679, Note_off_c, 5, 57, 88
7, 52679, Note_off_c, 5, 69, 88
7, 52800, Note_on_c, 5, 50, 92
7, 52800, Note_on_c, 5, 62, 92
7, 53639, Note_off_c, 5, 50, 96
7, 53639, Note_off_c, 5, 62, 96
7, 53760, Note_on_c, 5, 59, 76
7, 53760, Note_on_c, 5, 71, 76
7, 54599, Note_off_c, 5, 59, 100
7, 54599, Note_off_c, 5, 71, 100
7, 54720, Note_on_c, 5, 52, 80
7, 54720, Note_on_c, 5, 64, 80
7, 55079, Note_off_c, 5, 52, 92
7, 55079, Note_off_c, 5, 64, 92
7, 55200, Note_on_c, 5, 57, 72
7, 55200, Note_on_c, 5, 69, 72
7, 55559, Note_off_c, 5, 57, 108
7, 55559, Note_off_c, 5, 69, 108
7, 55680, Note_on_c, 5, 50, 92
7, 55680, Note_on_c, 5, 62, 92
7, 56039, Note_off_c, 5, 50, 88
7, 56039, Note_off_c, 5, 62, 88
7, 56160, Note_on_c, 5, 55, 56
7, 56160, Note_on_c, 5, 67, 56
7, 56519, Note_off_c, 5, 55, 56
7, 56519, Note_off_c, 5, 67, 56
7, 56640, Note_on_c, 5, 56, 76
7, 56640, Note_on_c, 5, 68, 76
7, 57059, Note_off_c, 5, 56, 49
7, 57059, Note_off_c, 5, 68, 49
7, 57120, Note_on_c, 5, 71, 108
7, 57567, Note_off_c, 5, 61, 108
7, 57599, Note_off_c, 5, 71, 64
7, 57600, Note_on_c, 5, 70, 108
7, 57600, Note_on_c, 5, 61, 104
7, 58079, Note_off_c, 5, 61, 100
7, 58079, Note_off_c, 5, 70, 92
7, 58080, Note_on_c, 5, 68, 116
7, 58080, Note_on_c, 5, 61, 88
7, 58259, Note_off_c, 5, 68, 96
7, 58260, Note_on_c, 5, 66, 112
7, 58439, Note_off_c, 5, 66, 96
7, 58440, Note_on_c, 5, 65, 104
7, 58559, Note_off_c, 5, 61, 92
7, 58559, Note_off_c, 5, 65, 72
7, 58560, Note_on_c, 5, 54, 68
7, 58560, Note_on_c, 5, 66, 104
7, 59519, Note_off_c, 5, 66, 14
7, 59519, Note_off_c, 5, 54, 64
7, 59520, End_track
8, 0, Start_track
8, 0, Title_t, "String Ensemble 1"
8, 0, Program_c, 6, 48
8, 0, Control_c, 6, 7, 42
8, 0, Control_c, 6, 10, 64
8, 0, Control_c, 6, 11, 127
8, 0, Control_c, 6, 91, 40
8, 0, Control_c, 6, 93, 86
8, 0, Pitch_bend_c, 6, 8192
8, 31680, Note_on_c, 6, 63, 92
8, 31680, Note_on_c, 6, 75, 54
8, 31680, Note_on_c, 6, 66, 100
8, 31680, Note_on_c, 6, 70, 76
8, 32579, Note_off_c, 6, 70, 84
8, 32579, Note_off_c, 6, 66, 64
8, 32579, Note_off_c, 6, 75, 92
8, 32579, Note_off_c, 6, 63, 100
8, 32640, Note_on_c, 6, 71, 108
8, 32640, Note_on_c, 6, 66, 56
8, 32640, Note_on_c, 6, 75, 76
8, 32640, Note_on_c, 6, 59, 104
8, 33059, Note_off_c, 6, 66, 52
8, 33119, Note_off_c, 6, 71, 80
8, 33119, Note_off_c, 6, 59, 96
8, 33119, Note_off_c, 6, 75, 72
8, 33120, Note_on_c, 6, 70, 92
8, 33120, Note_on_c, 6, 66, 58
8, 33120, Note_on_c, 6, 58, 100
8, 33120, Note_on_c, 6, 73, 96
8, 33539, Note_off_c, 6, 73, 80
8, 33539, Note_off_c, 6, 58, 96
8, 33539, Note_off_c, 6, 66, 92
8, 33599, Note_off_c, 6, 70, 92
8, 33600, Note_on_c, 6, 71, 88
8, 33600, Note_on_c, 6, 66, 58
8, 33600, Note_on_c, 6, 75, 68
8, 34019, Note_off_c, 6, 75, 100
8, 34019, Note_off_c, 6, 71, 100
8, 34080, Note_on_c, 6, 70, 80
8, 34080, Note_on_c, 6, 73, 84
8, 34499, Note_off_c, 6, 66, 64
8, 34499, Note_off_c, 6, 73, 96
8, 34499, Note_off_c, 6, 70, 100
8, 34560, Note_on_c, 6, 71, 116
8, 34560, Note_on_c, 6, 65, 116
8, 34560, Note_on_c, 6, 61, 108
8, 34679, Note_off_c, 6, 71, 92
8, 34739, Note_off_c, 6, 61, 76
8, 34739, Note_off_c, 6, 65, 28
8, 34740, Note_on_c, 6, 63, 100
8, 34740, Note_on_c, 6, 71, 100
8, 34740, Note_on_c, 6, 66, 108
8, 34859, Note_off_c, 6, 71, 100
8, 34919, Note_off_c, 6, 63, 72
8, 34919, Note_off_c, 6, 66, 100
8, 34920, Note_on_c, 6, 65, 108
8, 34920, Note_on_c, 6, 71, 104
8, 34920, Note_on_c, 6, 68, 116
8, 35039, Note_off_c, 6, 68, 88
8, 35039, Note_off_c, 6, 71, 64
8, 35039, Note_off_c, 6, 65, 116
8, 35040, Note_on_c, 6, 66, 104
8, 35040, Note_on_c, 6, 70, 104
8, 35279, Note_off_c, 6, 66, 60
8, 35279, Note_off_c, 6, 70, 108
8, 35280, Note_on_c, 6, 68, 100
8, 35280, Note_on_c, 6, 65, 108
8, 35519, Note_off_c, 6, 65, 120
8, 35519, Note_off_c, 6, 68, 104
8, 35520, Note_on_c, 6, 78, 96
8, 35520, Note_on_c, 6, 75, 54
8, 35520, Note_on_c, 6, 66, 100
8, 35520, Note_on_c, 6, 70, 76
8, 36179, Note_off_c, 6, 78, 100
8, 36240, Note_on_c, 6, 78, 112
8, 36359, Note_off_c, 6, 78, 100
8, 36360, Note_on_c, 6, 77, 112
8, 36419, Note_off_c, 6, 75, 92
8, 36419, Note_off_c, 6, 66, 64
8, 36419, Note_off_c, 6, 70, 84
8, 36479, Note_off_c, 6, 77, 92
8, 36480, Note_on_c, 6, 75, 104
8, 36480, Note_on_c, 6, 71, 108
8, 36480, Note_on_c, 6, 66, 56
8, 36899, Note_off_c, 6, 66, 52
8, 36959, Note_off_c, 6, 71, 80
8, 36959, Note_off_c, 6, 75, 72
8, 36960, Note_on_c, 6, 73, 100
8, 36960, Note_on_c, 6, 70, 92
8, 36960, Note_on_c, 6, 66, 58
8, 37379, Note_off_c, 6, 66, 92
8, 37439, Note_off_c, 6, 73, 100
8, 37439, Note_off_c, 6, 70, 92
8, 37440, Note_on_c, 6, 71, 88
8, 37440, Note_on_c, 6, 66, 58
8, 37440, Note_on_c, 6, 75, 68
8, 38399, Note_off_c, 6, 75, 100
8, 38399, Note_off_c, 6, 71, 100
8, 38399, Note_off_c, 6, 66, 64
8, 38400, Note_on_c, 6, 58, 108
8, 38400, Note_on_c, 6, 68, 112
8, 38400, Note_on_c, 6, 65, 100
8, 38400, Note_on_c, 6, 77, 92
8, 38879, Note_off_c, 6, 58, 108
8, 38879, Note_off_c, 6, 68, 104
8, 38879, Note_off_c, 6, 65, 120
8, 38879, Note_off_c, 6, 77, 92
8, 38880, Note_on_c, 6, 63, 48
8, 38880, Note_on_c, 6, 66, 58
8, 38880, Note_on_c, 6, 70, 50
8, 38880, Note_on_c, 6, 78, 104
8, 39479, Note_off_c, 6, 63, 112
8, 39539, Note_off_c, 6, 78, 84
8, 39540, Note_on_c, 6, 63, 108
8, 39540, Note_on_c, 6, 75, 92
8, 39659, Note_off_c, 6, 63, 50
8, 39659, Note_off_c, 6, 75, 56
8, 39660, Note_on_c, 6, 61, 112
8, 39660, Note_on_c, 6, 77, 80
8, 39780, Note_on_c, 6, 58, 100
8, 39839, Note_off_c, 6, 77, 72
8, 39839, Note_off_c, 6, 61, 92
8, 40439, Note_off_c, 6, 66, 76
8, 40439, Note_off_c, 6, 70, 84
8, 40739, Note_off_c, 6, 58, 84
8, 40800, Note_on_c, 6, 75, 54
8, 40800, Note_on_c, 6, 66, 100
8, 40800, Note_on_c, 6, 70, 76
8, 41699, Note_off_c, 6, 75, 92
8, 41699, Note_off_c, 6, 66, 64
8, 41699, Note_off_c, 6, 70, 84
8, 41760, Note_on_c, 6, 71, 108
8, 41760, Note_on_c, 6, 66, 56
8, 41760, Note_on_c, 6, 75, 76
8, 42179, Note_off_c, 6, 66, 52
8, 42239, Note_off_c, 6, 71, 80
8, 42239, Note_off_c, 6, 75, 72
8, 42240, Note_on_c, 6, 70, 92
8, 42240, Note_on_c, 6, 66, 58
8, 42240, Note_on_c, 6, 73, 96
8, 42659, Note_off_c, 6, 66, 92
8, 42659, Note_off_c, 6, 73, 80
8, 42719, Note_off_c, 6, 70, 92
8, 42720, Note_on_c, 6, 71, 88
8, 42720, Note_on_c, 6, 66, 58
8, 42720, Note_on_c, 6, 75, 68
8, 43139, Note_off_c, 6, 71, 100
8, 43139, Note_off_c, 6, 75, 100
8, 43200, Note_on_c, 6, 70, 80
8, 43200, Note_on_c, 6, 73, 84
8, 43619, Note_off_c, 6, 66, 64
8, 43619, Note_off_c, 6, 70, 100
8, 43619, Note_off_c, 6, 73, 96
8, 43680, Note_on_c, 6, 71, 116
8, 43680, Note_on_c, 6, 65, 116
8, 43680, Note_on_c, 6, 61, 108
8, 43799, Note_off_c, 6, 71, 92
8, 43859, Note_off_c, 6, 65, 28
8, 43859, Note_off_c, 6, 61, 76
8, 43860, Note_on_c, 6, 63, 100
8, 43860, Note_on_c, 6, 71, 100
8, 43860, Note_on_c, 6, 66, 108
8, 43979, Note_off_c, 6, 71, 100
8, 44039, Note_off_c, 6, 63, 72
8, 44039, Note_off_c, 6, 66, 100
8, 44040, Note_on_c, 6, 65, 108
8, 44040, Note_on_c, 6, 71, 104
8, 44040, Note_on_c, 6, 68, 116
8, 44159, Note_off_c, 6, 65, 116
8, 44159, Note_off_c, 6, 71, 64
8, 44159, Note_off_c, 6, 68, 88
8, 44160, Note_on_c, 6, 66, 104
8, 44160, Note_on_c, 6, 70, 104
8, 44399, Note_off_c, 6, 66, 60
8, 44399, Note_off_c, 6, 70, 108
8, 44400, Note_on_c, 6, 68, 100
8, 44400, Note_on_c, 6, 65, 108
8, 44639, Note_off_c, 6, 68, 104
8, 44639, Note_off_c, 6, 65, 120
8, 44640, Note_on_c, 6, 75, 54
8, 44640, Note_on_c, 6, 66, 100
8, 44640, Note_on_c, 6, 70, 76
8, 45539, Note_off_c, 6, 75, 92
8, 45539, Note_off_c, 6, 66, 64
8, 45539, Note_off_c, 6, 70, 84
8, 45600, Note_on_c, 6, 75, 104
8, 45600, Note_on_c, 6, 71, 108
8, 45600, Note_on_c, 6, 66, 56
8, 46019, Note_off_c, 6, 66, 52
8, 46079, Note_off_c, 6, 75, 72
8, 46079, Note_off_c, 6, 71, 80
8, 46080, Note_on_c, 6, 73, 100
8, 46080, Note_on_c, 6, 70, 92
8, 46080, Note_on_c, 6, 66, 58
8, 46499, Note_off_c, 6, 66, 92
8, 46559, Note_off_c, 6, 73, 100
8, 46559, Note_off_c, 6, 70, 92
8, 46560, Note_on_c, 6, 71, 88
8, 46560, Note_on_c, 6, 66, 58
8, 46560, Note_on_c, 6, 75, 68
8, 47519, Note_off_c, 6, 71, 100
8, 47519, Note_off_c, 6, 66, 64
8, 47519, Note_off_c, 6, 75, 100
8, 47520, Note_on_c, 6, 70, 108
8, 47520, Note_on_c, 6, 68, 112
8, 47520, Note_on_c, 6, 65, 100
8, 47999, Note_off_c, 6, 70, 108
8, 47999, Note_off_c, 6, 68, 104
8, 47999, Note_off_c, 6, 65, 120
8, 48000, Note_on_c, 6, 63, 48
8, 48000, Note_on_c, 6, 66, 58
8, 48000, Note_on_c, 6, 70, 50
8, 49559, Note_off_c, 6, 63, 112
8, 49559, Note_off_c, 6, 66, 76
8, 49559, Note_off_c, 6, 70, 84
8, 49680, End_track
9, 0, Start_track
9, 0, Title_t, "Drum"
9, 0, Program_c, 9, 0
9, 0, Control_c, 9, 7, 0
9, 0, Control_c, 9, 10, 64
9, 0, Control_c, 9, 11, 127
9, 0, Control_c, 9, 91, 0
9, 0, Control_c, 9, 93, 0
9, 0, Note_on_c, 9, 36, 68
9, 29, Note_off_c, 9, 36, 64
9, 240, Note_on_c, 9, 36, 60
9, 269, Note_off_c, 9, 36, 56
9, 480, Note_on_c, 9, 36, 68
9, 509, Note_off_c, 9, 36, 64
9, 600, Note_on_c, 9, 36, 68
9, 629, Note_off_c, 9, 36, 52
9, 720, Note_on_c, 9, 36, 60
9, 749, Note_off_c, 9, 36, 56
9, 840, Note_on_c, 9, 36, 60
9, 869, Note_off_c, 9, 36, 72
9, 960, End_track
0, 0, End_of_file
