0, 0, Header, 1, 14, 96
1, 0, Start_track
1, 0, MIDI_port, 0
1, 0, System_exclusive, 5, 126, 127, 9, 1, 247
1, 0, MIDI_port, 0
1, 0, Time_signature, 4, 2, 24, 8
1, 0, Key_signature, -1, "major"
1, 0, Tempo, 600000
1, 0, End_track
2, 0, Start_track
2, 0, MIDI_port, 0
2, 0, Title_t, "Soft Karaoke"
2, 0, Text_t, "@KMIDI KARAOKE FILE"
2, 0, End_track
3, 0, Start_track
3, 0, MIDI_port, 0
3, 0, Title_t, "Words"
3, 0, Text_t, "@LENGL"
3, 0, Text_t, "@TTo Know You is to Love You"
3, 0, Text_t, "@TBB King"
3, 96, Text_t, "\\                         "
3, 96, Text_t, " (Intro) "
3, 2206, Text_t, "\\To "
3, 2248, Text_t, "know "
3, 2336, Text_t, "you "
3, 2928, Text_t, "is "
3, 2978, Text_t, "to "
3, 3025, Text_t, "love "
3, 3084, Text_t, "you, "
3, 3696, Text_t, "/but "
3, 3746, Text_t, "to "
3, 3794, Text_t, "know "
3, 3840, Text_t, "me "
3, 4172, Text_t, "is "
3, 4223, Text_t, "not "
3, 4319, Text_t, "that "
3, 4367, Text_t, "way, "
3, 4506, Text_t, "it "
3, 4560, Text_t, "seems. "
3, 5231, Text_t, "\\'Cause "
3, 5279, Text_t, "you "
3, 5326, Text_t, "made "
3, 5389, Text_t, "me "
3, 6003, Text_t, "so "
3, 6072, Text_t, "hap"
3, 6167, Text_t, "py "
3, 6765, Text_t, "/that "
3, 6807, Text_t, "my "
3, 6864, Text_t, "love "
3, 7054, Text_t, "for "
3, 7104, Text_t, "you "
3, 7345, Text_t, "grows "
3, 7530, Text_t, "end"
3, 7580, Text_t, "less"
3, 7629, Text_t, "ly. "
3, 8351, Text_t, "\\When "
3, 8374, Text_t, "I'm "
3, 8445, Text_t, "down "
3, 8593, Text_t, "and "
3, 8643, Text_t, "feel"
3, 8737, Text_t, "in' "
3, 8785, Text_t, "sad, "
3, 8975, Text_t, "/you "
3, 9024, Text_t, "al"
3, 9073, Text_t, "ways "
3, 9169, Text_t, "com"
3, 9310, Text_t, "fort "
3, 9353, Text_t, "me. "
3, 9838, Text_t, "\\When "
3, 9885, Text_t, "I'm "
3, 9934, Text_t, "down "
3, 10124, Text_t, "and "
3, 10173, Text_t, "feel"
3, 10272, Text_t, "in' "
3, 10320, Text_t, "sad, "
3, 10509, Text_t, "/you "
3, 10557, Text_t, "al"
3, 10606, Text_t, "ways "
3, 10701, Text_t, "com"
3, 10848, Text_t, "fort "
3, 10886, Text_t, "me-"
3, 11113, Text_t, "e. "
3, 11377, Text_t, "\\Ba"
3, 11424, Text_t, "by, "
3, 11471, Text_t, "to "
3, 11519, Text_t, "know "
3, 11624, Text_t, "you "
3, 12140, Text_t, "is "
3, 12189, Text_t, "to "
3, 12235, Text_t, "love "
3, 12320, Text_t, "you, "
3, 12960, Text_t, "/your "
3, 13057, Text_t, "smile, "
3, 13560, Text_t, "when "
3, 13580, Text_t, "I "
3, 13627, Text_t, "see "
3, 13725, Text_t, "your "
3, 13820, Text_t, "face. "
3, 14445, Text_t, "\\'Cause "
3, 14494, Text_t, "there "
3, 14540, Text_t, "is "
3, 14592, Text_t, "no "
3, 14639, Text_t, "one "
3, 15212, Text_t, "on "
3, 15262, Text_t, "this "
3, 15312, Text_t, "earth, "
3, 15979, Text_t, "/ba"
3, 16026, Text_t, "by, "
3, 16072, Text_t, "could "
3, 16128, Text_t, "ev"
3, 16161, Text_t, "er, "
3, 16552, Text_t, "ev"
3, 16605, Text_t, "er "
3, 16653, Text_t, "take "
3, 16798, Text_t, "your "
3, 16849, Text_t, "place. "
3, 17088, Text_t, "\\                         "
3, 17088, Text_t, " (Break) "
3, 23659, Text_t, "\\When "
3, 23708, Text_t, "I'm "
3, 23800, Text_t, "down "
3, 23949, Text_t, "and "
3, 23999, Text_t, "feel"
3, 24093, Text_t, "in' "
3, 24143, Text_t, "sad, "
3, 24331, Text_t, "/you "
3, 24382, Text_t, "al"
3, 24431, Text_t, "ways "
3, 24524, Text_t, "com"
3, 24666, Text_t, "fort "
3, 24715, Text_t, "me. "
3, 25196, Text_t, "\\When "
3, 25244, Text_t, "I'm "
3, 25297, Text_t, "down "
3, 25487, Text_t, "and "
3, 25535, Text_t, "feel"
3, 25632, Text_t, "in' "
3, 25682, Text_t, "sad, "
3, 25873, Text_t, "/you "
3, 25922, Text_t, "al"
3, 25971, Text_t, "ways "
3, 26108, Text_t, "com"
3, 26243, Text_t, "fort "
3, 26284, Text_t, "me. "
3, 26444, Text_t, "\\Oh, "
3, 26733, Text_t, "woh, "
3, 26829, Text_t, "to "
3, 26880, Text_t, "know "
3, 26925, Text_t, "you "
3, 27502, Text_t, "is "
3, 27547, Text_t, "to "
3, 27593, Text_t, "love "
3, 27671, Text_t, "you, "
3, 28265, Text_t, "/is "
3, 28313, Text_t, "to "
3, 28363, Text_t, "see "
3, 28460, Text_t, "you "
3, 28699, Text_t, "be"
3, 28722, Text_t, "in' "
3, 28771, Text_t, "free "
3, 29039, Text_t, "as "
3, 29082, Text_t, "the "
3, 29133, Text_t, "wind. "
3, 29807, Text_t, "\\'Cause "
3, 29855, Text_t, "the "
3, 29905, Text_t, "pow"
3, 29977, Text_t, "er "
3, 30573, Text_t, "of "
3, 30622, Text_t, "your "
3, 30666, Text_t, "lov"
3, 30728, Text_t, "in' "
3, 31342, Text_t, "/is "
3, 31392, Text_t, "too "
3, 31489, Text_t, "strong "
3, 31772, Text_t, "to "
3, 31826, Text_t, "hold "
3, 32160, Text_t, "with"
3, 32213, Text_t, "in. "
3, 32880, Text_t, "\\To "
3, 32955, Text_t, "know "
3, 33031, Text_t, "you "
3, 33642, Text_t, "is "
3, 33690, Text_t, "to "
3, 33741, Text_t, "love "
3, 33812, Text_t, "you, "
3, 34412, Text_t, "/to "
3, 34477, Text_t, "see "
3, 34548, Text_t, "you "
3, 34974, Text_t, "blow"
3, 35015, Text_t, "in' "
3, 35080, Text_t, "free "
3, 35234, Text_t, "in "
3, 35257, Text_t, "the "
3, 35287, Text_t, "breeze. "
3, 35997, Text_t, "\\The "
3, 36042, Text_t, "pow"
3, 36145, Text_t, "er "
3, 36714, Text_t, "of "
3, 36780, Text_t, "your "
3, 36854, Text_t, "lov"
3, 36915, Text_t, "in', "
3, 37095, Text_t, "/I "
3, 37135, Text_t, "nev"
3, 37161, Text_t, "er "
3, 37198, Text_t, "found "
3, 37240, Text_t, "a "
3, 37271, Text_t, "wom"
3, 37301, Text_t, "an "
3, 37340, Text_t, "like "
3, 37388, Text_t, "you "
3, 37679, Text_t, "/that "
3, 37738, Text_t, "could "
3, 37776, Text_t, "be "
3, 37813, Text_t, "my "
3, 37852, Text_t, "lov"
3, 37884, Text_t, "er "
3, 37961, Text_t, "and "
3, 38253, Text_t, "my "
3, 38301, Text_t, "best "
3, 38349, Text_t, "friend. "
3, 38349, End_track
4, 0, Start_track
4, 0, MIDI_port, 0
4, 98, Program_c, 0, 4
4, 99, Control_c, 0, 7, 100
4, 99, Control_c, 0, 10, 64
4, 99, Control_c, 0, 11, 127
4, 100, Control_c, 0, 91, 60
4, 100, Control_c, 0, 93, 64
4, 624, Note_on_c, 0, 57, 117
4, 625, Control_c, 0, 1, 0
4, 625, Pitch_bend_c, 0, 8192
4, 671, Note_on_c, 0, 57, 0
4, 673, Note_on_c, 0, 60, 109
4, 720, Note_on_c, 0, 60, 0
4, 721, Note_on_c, 0, 37, 108
4, 721, Note_on_c, 0, 61, 114
4, 767, Note_on_c, 0, 62, 87
4, 768, Note_on_c, 0, 61, 0
4, 768, Note_on_c, 0, 37, 0
4, 769, Note_on_c, 0, 38, 95
4, 863, Note_on_c, 0, 50, 76
4, 871, Note_on_c, 0, 62, 0
4, 911, Note_on_c, 0, 71, 103
4, 911, Note_on_c, 0, 67, 97
4, 911, Note_on_c, 0, 62, 99
4, 930, Note_on_c, 0, 62, 0
4, 930, Note_on_c, 0, 67, 0
4, 931, Note_on_c, 0, 71, 0
4, 959, Note_on_c, 0, 62, 99
4, 959, Note_on_c, 0, 65, 105
4, 959, Note_on_c, 0, 69, 97
4, 976, Note_on_c, 0, 50, 0
4, 999, Note_on_c, 0, 65, 0
4, 999, Note_on_c, 0, 62, 0
4, 1001, Note_on_c, 0, 69, 0
4, 1007, Note_on_c, 0, 50, 73
4, 1056, Note_on_c, 0, 67, 109
4, 1056, Note_on_c, 0, 71, 120
4, 1056, Note_on_c, 0, 62, 122
4, 1073, Note_on_c, 0, 67, 0
4, 1074, Note_on_c, 0, 62, 0
4, 1077, Note_on_c, 0, 71, 0
4, 1103, Note_on_c, 0, 62, 95
4, 1104, Note_on_c, 0, 69, 97
4, 1104, Note_on_c, 0, 65, 97
4, 1111, Note_on_c, 0, 50, 0
4, 1153, Note_on_c, 0, 69, 0
4, 1153, Note_on_c, 0, 65, 0
4, 1155, Note_on_c, 0, 62, 0
4, 1199, Note_on_c, 0, 67, 101
4, 1199, Note_on_c, 0, 62, 109
4, 1199, Note_on_c, 0, 71, 112
4, 1216, Note_on_c, 0, 62, 0
4, 1218, Note_on_c, 0, 67, 0
4, 1220, Note_on_c, 0, 71, 0
4, 1249, Note_on_c, 0, 62, 90
4, 1249, Note_on_c, 0, 69, 99
4, 1249, Note_on_c, 0, 65, 101
4, 1346, Note_on_c, 0, 69, 0
4, 1348, Note_on_c, 0, 65, 0
4, 1351, Note_on_c, 0, 62, 0
4, 1371, Note_on_c, 0, 38, 0
4, 1391, Note_on_c, 0, 60, 117
4, 1430, Note_on_c, 0, 53, 82
4, 1435, Note_on_c, 0, 54, 82
4, 1438, Note_on_c, 0, 53, 0
4, 1439, Note_on_c, 0, 43, 95
4, 1441, Note_on_c, 0, 55, 117
4, 1443, Note_on_c, 0, 54, 0
4, 1483, Note_on_c, 0, 55, 0
4, 1487, Note_on_c, 0, 43, 0
4, 1487, Note_on_c, 0, 41, 86
4, 1487, Note_on_c, 0, 53, 85
4, 1528, Note_on_c, 0, 60, 0
4, 1534, Note_on_c, 0, 53, 0
4, 1534, Note_on_c, 0, 41, 0
4, 1535, Note_on_c, 0, 50, 109
4, 1584, Note_on_c, 0, 38, 99
4, 1679, Note_on_c, 0, 71, 99
4, 1679, Note_on_c, 0, 67, 93
4, 1679, Note_on_c, 0, 62, 105
4, 1692, Note_on_c, 0, 67, 0
4, 1693, Note_on_c, 0, 62, 0
4, 1694, Note_on_c, 0, 71, 0
4, 1727, Note_on_c, 0, 65, 115
4, 1727, Note_on_c, 0, 62, 117
4, 1727, Note_on_c, 0, 69, 107
4, 1737, Note_on_c, 0, 50, 0
4, 1772, Note_on_c, 0, 62, 0
4, 1774, Note_on_c, 0, 65, 0
4, 1775, Note_on_c, 0, 69, 0
4, 1775, Note_on_c, 0, 50, 75
4, 1824, Note_on_c, 0, 67, 112
4, 1825, Note_on_c, 0, 62, 107
4, 1825, Note_on_c, 0, 71, 117
4, 1841, Note_on_c, 0, 71, 0
4, 1841, Note_on_c, 0, 67, 0
4, 1841, Note_on_c, 0, 62, 0
4, 1872, Note_on_c, 0, 69, 103
4, 1872, Note_on_c, 0, 62, 101
4, 1872, Note_on_c, 0, 65, 103
4, 1888, Note_on_c, 0, 50, 0
4, 1932, Note_on_c, 0, 62, 0
4, 1934, Note_on_c, 0, 69, 0
4, 1935, Note_on_c, 0, 65, 0
4, 1969, Note_on_c, 0, 62, 112
4, 1969, Note_on_c, 0, 67, 115
4, 1969, Note_on_c, 0, 71, 117
4, 1984, Note_on_c, 0, 62, 0
4, 1985, Note_on_c, 0, 67, 0
4, 1986, Note_on_c, 0, 71, 0
4, 2016, Note_on_c, 0, 69, 101
4, 2017, Note_on_c, 0, 65, 101
4, 2063, Note_on_c, 0, 50, 82
4, 2112, Note_on_c, 0, 38, 0
4, 2118, Note_on_c, 0, 69, 0
4, 2119, Note_on_c, 0, 65, 0
4, 2151, Note_on_c, 0, 50, 0
4, 2159, Note_on_c, 0, 57, 120
4, 2206, Note_on_c, 0, 57, 0
4, 2208, Note_on_c, 0, 60, 117
4, 2255, Note_on_c, 0, 60, 0
4, 2256, Note_on_c, 0, 62, 109
4, 2305, Note_on_c, 0, 38, 74
4, 2399, Note_on_c, 0, 50, 68
4, 2408, Note_on_c, 0, 62, 0
4, 2448, Note_on_c, 0, 71, 112
4, 2448, Note_on_c, 0, 67, 112
4, 2449, Note_on_c, 0, 62, 105
4, 2463, Note_on_c, 0, 67, 0
4, 2465, Note_on_c, 0, 71, 0
4, 2466, Note_on_c, 0, 62, 0
4, 2495, Note_on_c, 0, 65, 92
4, 2495, Note_on_c, 0, 69, 90
4, 2495, Note_on_c, 0, 62, 87
4, 2504, Note_on_c, 0, 50, 0
4, 2542, Note_on_c, 0, 62, 0
4, 2543, Note_on_c, 0, 65, 0
4, 2544, Note_on_c, 0, 69, 0
4, 2544, Note_on_c, 0, 50, 63
4, 2591, Note_on_c, 0, 62, 112
4, 2591, Note_on_c, 0, 71, 120
4, 2591, Note_on_c, 0, 67, 109
4, 2614, Note_on_c, 0, 67, 0
4, 2614, Note_on_c, 0, 62, 0
4, 2615, Note_on_c, 0, 71, 0
4, 2639, Note_on_c, 0, 69, 93
4, 2639, Note_on_c, 0, 62, 92
4, 2639, Note_on_c, 0, 65, 99
4, 2660, Note_on_c, 0, 50, 0
4, 2692, Note_on_c, 0, 62, 0
4, 2692, Note_on_c, 0, 65, 0
4, 2693, Note_on_c, 0, 69, 0
4, 2735, Note_on_c, 0, 67, 105
4, 2735, Note_on_c, 0, 71, 112
4, 2735, Note_on_c, 0, 62, 109
4, 2750, Note_on_c, 0, 67, 0
4, 2751, Note_on_c, 0, 62, 0
4, 2752, Note_on_c, 0, 71, 0
4, 2783, Note_on_c, 0, 69, 101
4, 2783, Note_on_c, 0, 62, 101
4, 2783, Note_on_c, 0, 65, 105
4, 2880, Note_on_c, 0, 38, 0
4, 2880, Note_on_c, 0, 50, 107
4, 2891, Note_on_c, 0, 50, 0
4, 2927, Note_on_c, 0, 65, 0
4, 2927, Note_on_c, 0, 62, 0
4, 2927, Note_on_c, 0, 41, 112
4, 2929, Note_on_c, 0, 69, 0
4, 2974, Note_on_c, 0, 41, 0
4, 2975, Note_on_c, 0, 43, 105
4, 3022, Note_on_c, 0, 43, 0
4, 3023, Note_on_c, 0, 44, 99
4, 3070, Note_on_c, 0, 44, 0
4, 3071, Note_on_c, 0, 45, 90
4, 3167, Note_on_c, 0, 61, 69
4, 3167, Note_on_c, 0, 57, 80
4, 3167, Note_on_c, 0, 64, 79
4, 3178, Note_on_c, 0, 61, 0
4, 3182, Note_on_c, 0, 57, 0
4, 3183, Note_on_c, 0, 64, 0
4, 3215, Note_on_c, 0, 62, 120
4, 3215, Note_on_c, 0, 57, 107
4, 3215, Note_on_c, 0, 65, 109
4, 3227, Note_on_c, 0, 57, 0
4, 3229, Note_on_c, 0, 62, 0
4, 3230, Note_on_c, 0, 65, 0
4, 3263, Note_on_c, 0, 57, 109
4, 3263, Note_on_c, 0, 61, 105
4, 3263, Note_on_c, 0, 64, 101
4, 3312, Note_on_c, 0, 52, 58
4, 3332, Note_on_c, 0, 57, 0
4, 3334, Note_on_c, 0, 61, 0
4, 3336, Note_on_c, 0, 64, 0
4, 3359, Note_on_c, 0, 62, 120
4, 3360, Note_on_c, 0, 57, 103
4, 3360, Note_on_c, 0, 65, 107
4, 3375, Note_on_c, 0, 57, 0
4, 3378, Note_on_c, 0, 62, 0
4, 3379, Note_on_c, 0, 65, 0
4, 3407, Note_on_c, 0, 64, 95
4, 3407, Note_on_c, 0, 61, 102
4, 3407, Note_on_c, 0, 57, 93
4, 3414, Note_on_c, 0, 45, 0
4, 3416, Note_on_c, 0, 52, 0
4, 3455, Note_on_c, 0, 45, 93
4, 3484, Note_on_c, 0, 57, 0
4, 3486, Note_on_c, 0, 61, 0
4, 3488, Note_on_c, 0, 64, 0
4, 3503, Note_on_c, 0, 65, 92
4, 3503, Note_on_c, 0, 62, 103
4, 3503, Note_on_c, 0, 57, 97
4, 3530, Note_on_c, 0, 57, 0
4, 3530, Note_on_c, 0, 65, 0
4, 3531, Note_on_c, 0, 62, 0
4, 3551, Note_on_c, 0, 64, 103
4, 3551, Note_on_c, 0, 57, 101
4, 3551, Note_on_c, 0, 61, 105
4, 3599, Note_on_c, 0, 52, 93
4, 3616, Note_on_c, 0, 57, 0
4, 3624, Note_on_c, 0, 61, 0
4, 3629, Note_on_c, 0, 64, 0
4, 3647, Note_on_c, 0, 64, 76
4, 3647, Note_on_c, 0, 61, 67
4, 3647, Note_on_c, 0, 57, 99
4, 3679, Note_on_c, 0, 52, 0
4, 3695, Note_on_c, 0, 52, 57
4, 3718, Note_on_c, 0, 61, 0
4, 3720, Note_on_c, 0, 57, 0
4, 3723, Note_on_c, 0, 64, 0
4, 3749, Note_on_c, 0, 52, 0
4, 3793, Note_on_c, 0, 52, 85
4, 3801, Note_on_c, 0, 45, 0
4, 3806, Note_on_c, 0, 52, 0
4, 3840, Note_on_c, 0, 43, 99
4, 3935, Note_on_c, 0, 62, 75
4, 3935, Note_on_c, 0, 58, 61
4, 3935, Note_on_c, 0, 55, 68
4, 3943, Note_on_c, 0, 58, 0
4, 3944, Note_on_c, 0, 55, 0
4, 3946, Note_on_c, 0, 62, 0
4, 3981, Note_on_c, 0, 43, 0
4, 3983, Note_on_c, 0, 60, 115
4, 3983, Note_on_c, 0, 64, 117
4, 3983, Note_on_c, 0, 55, 112
4, 4003, Note_on_c, 0, 55, 0
4, 4005, Note_on_c, 0, 64, 0
4, 4007, Note_on_c, 0, 60, 0
4, 4031, Note_on_c, 0, 62, 105
4, 4031, Note_on_c, 0, 58, 102
4, 4031, Note_on_c, 0, 55, 99
4, 4079, Note_on_c, 0, 43, 92
4, 4093, Note_on_c, 0, 55, 0
4, 4093, Note_on_c, 0, 58, 0
4, 4095, Note_on_c, 0, 62, 0
4, 4127, Note_on_c, 0, 64, 115
4, 4127, Note_on_c, 0, 60, 112
4, 4127, Note_on_c, 0, 55, 107
4, 4142, Note_on_c, 0, 55, 0
4, 4144, Note_on_c, 0, 60, 0
4, 4147, Note_on_c, 0, 64, 0
4, 4175, Note_on_c, 0, 55, 112
4, 4175, Note_on_c, 0, 58, 105
4, 4175, Note_on_c, 0, 62, 109
4, 4188, Note_on_c, 0, 43, 0
4, 4223, Note_on_c, 0, 43, 86
4, 4253, Note_on_c, 0, 55, 0
4, 4257, Note_on_c, 0, 62, 0
4, 4257, Note_on_c, 0, 58, 0
4, 4271, Note_on_c, 0, 60, 120
4, 4271, Note_on_c, 0, 55, 115
4, 4271, Note_on_c, 0, 64, 120
4, 4302, Note_on_c, 0, 64, 0
4, 4304, Note_on_c, 0, 55, 0
4, 4305, Note_on_c, 0, 60, 0
4, 4320, Note_on_c, 0, 55, 97
4, 4320, Note_on_c, 0, 62, 105
4, 4320, Note_on_c, 0, 58, 99
4, 4399, Note_on_c, 0, 55, 0
4, 4462, Note_on_c, 0, 43, 0
4, 4463, Note_on_c, 0, 50, 69
4, 4463, Note_on_c, 0, 55, 81
4, 4468, Note_on_c, 0, 50, 0
4, 4473, Note_on_c, 0, 58, 0
4, 4479, Note_on_c, 0, 62, 0
4, 4484, Note_on_c, 0, 55, 0
4, 4511, Note_on_c, 0, 55, 83
4, 4511, Note_on_c, 0, 58, 79
4, 4511, Note_on_c, 0, 62, 92
4, 4537, Note_on_c, 0, 55, 0
4, 4559, Note_on_c, 0, 55, 86
4, 4586, Note_on_c, 0, 55, 0
4, 4587, Note_on_c, 0, 58, 0
4, 4589, Note_on_c, 0, 62, 0
4, 4607, Note_on_c, 0, 38, 101
4, 4656, Note_on_c, 0, 62, 52
4, 4663, Note_on_c, 0, 62, 0
4, 4701, Note_on_c, 0, 38, 0
4, 4703, Note_on_c, 0, 62, 103
4, 4703, Note_on_c, 0, 68, 105
4, 4704, Note_on_c, 0, 50, 83
4, 4704, Note_on_c, 0, 65, 93
4, 4719, Note_on_c, 0, 50, 0
4, 4723, Note_on_c, 0, 68, 0
4, 4727, Note_on_c, 0, 69, 86
4, 4734, Note_on_c, 0, 62, 0
4, 4739, Note_on_c, 0, 65, 0
4, 4745, Note_on_c, 0, 69, 0
4, 4751, Note_on_c, 0, 71, 101
4, 4751, Note_on_c, 0, 62, 120
4, 4751, Note_on_c, 0, 67, 103
4, 4778, Note_on_c, 0, 62, 0
4, 4783, Note_on_c, 0, 71, 0
4, 4784, Note_on_c, 0, 67, 0
4, 4799, Note_on_c, 0, 62, 80
4, 4799, Note_on_c, 0, 69, 75
4, 4799, Note_on_c, 0, 65, 82
4, 4847, Note_on_c, 0, 38, 105
4, 4854, Note_on_c, 0, 62, 0
4, 4858, Note_on_c, 0, 69, 0
4, 4859, Note_on_c, 0, 65, 0
4, 4895, Note_on_c, 0, 71, 122
4, 4895, Note_on_c, 0, 67, 120
4, 4895, Note_on_c, 0, 62, 117
4, 4917, Note_on_c, 0, 62, 0
4, 4917, Note_on_c, 0, 71, 0
4, 4918, Note_on_c, 0, 67, 0
4, 4933, Note_on_c, 0, 38, 0
4, 4943, Note_on_c, 0, 65, 103
4, 4943, Note_on_c, 0, 69, 103
4, 4943, Note_on_c, 0, 62, 97
4, 5018, Note_on_c, 0, 62, 0
4, 5022, Note_on_c, 0, 65, 0
4, 5025, Note_on_c, 0, 69, 0
4, 5039, Note_on_c, 0, 71, 97
4, 5039, Note_on_c, 0, 67, 101
4, 5039, Note_on_c, 0, 62, 107
4, 5058, Note_on_c, 0, 62, 0
4, 5058, Note_on_c, 0, 67, 0
4, 5059, Note_on_c, 0, 71, 0
4, 5087, Note_on_c, 0, 62, 105
4, 5087, Note_on_c, 0, 69, 107
4, 5087, Note_on_c, 0, 65, 103
4, 5135, Note_on_c, 0, 38, 101
4, 5224, Note_on_c, 0, 38, 0
4, 5231, Note_on_c, 0, 50, 105
4, 5254, Note_on_c, 0, 62, 0
4, 5255, Note_on_c, 0, 65, 0
4, 5256, Note_on_c, 0, 69, 0
4, 5279, Note_on_c, 0, 69, 76
4, 5279, Note_on_c, 0, 62, 80
4, 5279, Note_on_c, 0, 65, 79
4, 5287, Note_on_c, 0, 69, 0
4, 5289, Note_on_c, 0, 65, 0
4, 5290, Note_on_c, 0, 62, 0
4, 5290, Note_on_c, 0, 50, 0
4, 5327, Note_on_c, 0, 50, 90
4, 5340, Note_on_c, 0, 50, 0
4, 5375, Note_on_c, 0, 38, 122
4, 5471, Note_on_c, 0, 65, 69
4, 5471, Note_on_c, 0, 62, 78
4, 5471, Note_on_c, 0, 69, 73
4, 5483, Note_on_c, 0, 65, 0
4, 5485, Note_on_c, 0, 69, 0
4, 5486, Note_on_c, 0, 62, 0
4, 5509, Note_on_c, 0, 38, 0
4, 5519, Note_on_c, 0, 62, 115
4, 5519, Note_on_c, 0, 50, 75
4, 5519, Note_on_c, 0, 67, 115
4, 5519, Note_on_c, 0, 71, 120
4, 5526, Note_on_c, 0, 50, 0
4, 5542, Note_on_c, 0, 67, 0
4, 5544, Note_on_c, 0, 62, 0
4, 5544, Note_on_c, 0, 71, 0
4, 5567, Note_on_c, 0, 65, 89
4, 5567, Note_on_c, 0, 69, 92
4, 5567, Note_on_c, 0, 62, 85
4, 5615, Note_on_c, 0, 38, 97
4, 5626, Note_on_c, 0, 62, 0
4, 5627, Note_on_c, 0, 65, 0
4, 5627, Note_on_c, 0, 69, 0
4, 5663, Note_on_c, 0, 67, 109
4, 5663, Note_on_c, 0, 62, 109
4, 5663, Note_on_c, 0, 71, 117
4, 5686, Note_on_c, 0, 71, 0
4, 5686, Note_on_c, 0, 62, 0
4, 5686, Note_on_c, 0, 67, 0
4, 5701, Note_on_c, 0, 38, 0
4, 5711, Note_on_c, 0, 62, 105
4, 5711, Note_on_c, 0, 50, 68
4, 5711, Note_on_c, 0, 69, 107
4, 5711, Note_on_c, 0, 65, 103
4, 5722, Note_on_c, 0, 50, 0
4, 5759, Note_on_c, 0, 38, 86
4, 5770, Note_on_c, 0, 38, 0
4, 5785, Note_on_c, 0, 62, 0
4, 5790, Note_on_c, 0, 65, 0
4, 5791, Note_on_c, 0, 69, 0
4, 5807, Note_on_c, 0, 62, 112
4, 5807, Note_on_c, 0, 67, 112
4, 5807, Note_on_c, 0, 71, 112
4, 5836, Note_on_c, 0, 67, 0
4, 5837, Note_on_c, 0, 71, 0
4, 5838, Note_on_c, 0, 62, 0
4, 5855, Note_on_c, 0, 62, 95
4, 5855, Note_on_c, 0, 69, 95
4, 5855, Note_on_c, 0, 65, 101
4, 5903, Note_on_c, 0, 38, 105
4, 5991, Note_on_c, 0, 38, 0
4, 6095, Note_on_c, 0, 44, 99
4, 6130, Note_on_c, 0, 69, 0
4, 6133, Note_on_c, 0, 44, 0
4, 6142, Note_on_c, 0, 65, 0
4, 6142, Note_on_c, 0, 62, 0
4, 6145, Note_on_c, 0, 45, 117
4, 6240, Note_on_c, 0, 64, 92
4, 6240, Note_on_c, 0, 61, 90
4, 6240, Note_on_c, 0, 57, 97
4, 6256, Note_on_c, 0, 61, 0
4, 6257, Note_on_c, 0, 57, 0
4, 6259, Note_on_c, 0, 64, 0
4, 6269, Note_on_c, 0, 45, 0
4, 6287, Note_on_c, 0, 57, 117
4, 6287, Note_on_c, 0, 65, 115
4, 6287, Note_on_c, 0, 62, 117
4, 6315, Note_on_c, 0, 65, 0
4, 6317, Note_on_c, 0, 57, 0
4, 6318, Note_on_c, 0, 62, 0
4, 6335, Note_on_c, 0, 61, 65
4, 6335, Note_on_c, 0, 64, 71
4, 6335, Note_on_c, 0, 57, 61
4, 6383, Note_on_c, 0, 45, 101
4, 6389, Note_on_c, 0, 64, 0
4, 6389, Note_on_c, 0, 61, 0
4, 6390, Note_on_c, 0, 57, 0
4, 6431, Note_on_c, 0, 65, 117
4, 6431, Note_on_c, 0, 57, 103
4, 6431, Note_on_c, 0, 62, 117
4, 6435, Note_on_c, 0, 45, 0
4, 6460, Note_on_c, 0, 57, 0
4, 6461, Note_on_c, 0, 65, 0
4, 6461, Note_on_c, 0, 62, 0
4, 6479, Note_on_c, 0, 64, 99
4, 6479, Note_on_c, 0, 61, 96
4, 6479, Note_on_c, 0, 57, 89
4, 6557, Note_on_c, 0, 61, 0
4, 6558, Note_on_c, 0, 57, 0
4, 6559, Note_on_c, 0, 64, 0
4, 6575, Note_on_c, 0, 65, 101
4, 6575, Note_on_c, 0, 62, 115
4, 6575, Note_on_c, 0, 57, 97
4, 6575, Note_on_c, 0, 45, 87
4, 6598, Note_on_c, 0, 57, 0
4, 6602, Note_on_c, 0, 65, 0
4, 6602, Note_on_c, 0, 62, 0
4, 6624, Note_on_c, 0, 57, 97
4, 6625, Note_on_c, 0, 64, 107
4, 6625, Note_on_c, 0, 61, 108
4, 6718, Note_on_c, 0, 57, 0
4, 6750, Note_on_c, 0, 45, 0
4, 6767, Note_on_c, 0, 57, 45
4, 6767, Note_on_c, 0, 45, 79
4, 6775, Note_on_c, 0, 61, 0
4, 6776, Note_on_c, 0, 64, 0
4, 6777, Note_on_c, 0, 57, 0
4, 6816, Note_on_c, 0, 64, 80
4, 6816, Note_on_c, 0, 61, 72
4, 6816, Note_on_c, 0, 57, 86
4, 6826, Note_on_c, 0, 61, 0
4, 6828, Note_on_c, 0, 45, 0
4, 6828, Note_on_c, 0, 64, 0
4, 6829, Note_on_c, 0, 57, 0
4, 6863, Note_on_c, 0, 45, 65
4, 6877, Note_on_c, 0, 45, 0
4, 6911, Note_on_c, 0, 43, 85
4, 6961, Note_on_c, 0, 55, 82
4, 6968, Note_on_c, 0, 55, 0
4, 7009, Note_on_c, 0, 58, 62
4, 7009, Note_on_c, 0, 55, 74
4, 7009, Note_on_c, 0, 62, 75
4, 7015, Note_on_c, 0, 58, 0
4, 7017, Note_on_c, 0, 62, 0
4, 7019, Note_on_c, 0, 55, 0
4, 7055, Note_on_c, 0, 55, 115
4, 7055, Note_on_c, 0, 64, 117
4, 7055, Note_on_c, 0, 60, 115
4, 7056, Note_on_c, 0, 43, 0
4, 7076, Note_on_c, 0, 55, 0
4, 7076, Note_on_c, 0, 64, 0
4, 7078, Note_on_c, 0, 60, 0
4, 7103, Note_on_c, 0, 62, 101
4, 7103, Note_on_c, 0, 55, 99
4, 7103, Note_on_c, 0, 58, 96
4, 7151, Note_on_c, 0, 43, 68
4, 7175, Note_on_c, 0, 55, 0
4, 7177, Note_on_c, 0, 58, 0
4, 7178, Note_on_c, 0, 62, 0
4, 7199, Note_on_c, 0, 64, 120
4, 7199, Note_on_c, 0, 55, 112
4, 7199, Note_on_c, 0, 60, 115
4, 7211, Note_on_c, 0, 60, 0
4, 7213, Note_on_c, 0, 55, 0
4, 7216, Note_on_c, 0, 64, 0
4, 7247, Note_on_c, 0, 58, 114
4, 7247, Note_on_c, 0, 55, 99
4, 7247, Note_on_c, 0, 62, 120
4, 7251, Note_on_c, 0, 43, 0
4, 7327, Note_on_c, 0, 55, 0
4, 7330, Note_on_c, 0, 58, 0
4, 7330, Note_on_c, 0, 62, 0
4, 7345, Note_on_c, 0, 60, 120
4, 7345, Note_on_c, 0, 64, 112
4, 7345, Note_on_c, 0, 55, 103
4, 7357, Note_on_c, 0, 55, 0
4, 7357, Note_on_c, 0, 60, 0
4, 7358, Note_on_c, 0, 64, 0
4, 7392, Note_on_c, 0, 55, 105
4, 7393, Note_on_c, 0, 58, 108
4, 7393, Note_on_c, 0, 62, 117
4, 7489, Note_on_c, 0, 43, 80
4, 7496, Note_on_c, 0, 55, 0
4, 7535, Note_on_c, 0, 55, 59
4, 7550, Note_on_c, 0, 58, 0
4, 7554, Note_on_c, 0, 62, 0
4, 7561, Note_on_c, 0, 55, 0
4, 7569, Note_on_c, 0, 43, 0
4, 7583, Note_on_c, 0, 58, 52
4, 7583, Note_on_c, 0, 55, 55
4, 7583, Note_on_c, 0, 62, 63
4, 7595, Note_on_c, 0, 58, 0
4, 7598, Note_on_c, 0, 55, 0
4, 7600, Note_on_c, 0, 62, 0
4, 7681, Note_on_c, 0, 38, 90
4, 7772, Note_on_c, 0, 38, 0
4, 7777, Note_on_c, 0, 69, 73
4, 7777, Note_on_c, 0, 65, 68
4, 7777, Note_on_c, 0, 62, 70
4, 7785, Note_on_c, 0, 62, 0
4, 7785, Note_on_c, 0, 65, 0
4, 7786, Note_on_c, 0, 69, 0
4, 7823, Note_on_c, 0, 71, 112
4, 7823, Note_on_c, 0, 67, 112
4, 7823, Note_on_c, 0, 62, 115
4, 7834, Note_on_c, 0, 62, 0
4, 7834, Note_on_c, 0, 67, 0
4, 7835, Note_on_c, 0, 71, 0
4, 7871, Note_on_c, 0, 65, 117
4, 7871, Note_on_c, 0, 62, 109
4, 7871, Note_on_c, 0, 69, 117
4, 7919, Note_on_c, 0, 38, 86
4, 7946, Note_on_c, 0, 62, 0
4, 7948, Note_on_c, 0, 69, 0
4, 7949, Note_on_c, 0, 65, 0
4, 7967, Note_on_c, 0, 67, 86
4, 7967, Note_on_c, 0, 71, 85
4, 7968, Note_on_c, 0, 62, 81
4, 7976, Note_on_c, 0, 62, 0
4, 7976, Note_on_c, 0, 67, 0
4, 7977, Note_on_c, 0, 71, 0
4, 8015, Note_on_c, 0, 65, 122
4, 8015, Note_on_c, 0, 62, 122
4, 8015, Note_on_c, 0, 69, 122
4, 8064, Note_on_c, 0, 50, 80
4, 8066, Note_on_c, 0, 38, 0
4, 8070, Note_on_c, 0, 50, 0
4, 8087, Note_on_c, 0, 62, 0
4, 8091, Note_on_c, 0, 65, 0
4, 8091, Note_on_c, 0, 69, 0
4, 8111, Note_on_c, 0, 67, 99
4, 8111, Note_on_c, 0, 71, 103
4, 8111, Note_on_c, 0, 62, 101
4, 8121, Note_on_c, 0, 62, 0
4, 8121, Note_on_c, 0, 67, 0
4, 8122, Note_on_c, 0, 71, 0
4, 8159, Note_on_c, 0, 62, 115
4, 8159, Note_on_c, 0, 65, 115
4, 8159, Note_on_c, 0, 69, 109
4, 8207, Note_on_c, 0, 38, 103
4, 8218, Note_on_c, 0, 62, 0
4, 8224, Note_on_c, 0, 69, 0
4, 8230, Note_on_c, 0, 65, 0
4, 8255, Note_on_c, 0, 71, 115
4, 8255, Note_on_c, 0, 62, 109
4, 8255, Note_on_c, 0, 67, 109
4, 8267, Note_on_c, 0, 62, 0
4, 8269, Note_on_c, 0, 67, 0
4, 8270, Note_on_c, 0, 71, 0
4, 8303, Note_on_c, 0, 69, 117
4, 8303, Note_on_c, 0, 62, 112
4, 8303, Note_on_c, 0, 65, 122
4, 8351, Note_on_c, 0, 50, 93
4, 8398, Note_on_c, 0, 38, 0
4, 8402, Note_on_c, 0, 50, 0
4, 8405, Note_on_c, 0, 62, 0
4, 8406, Note_on_c, 0, 69, 0
4, 8408, Note_on_c, 0, 65, 0
4, 8449, Note_on_c, 0, 55, 109
4, 8449, Note_on_c, 0, 65, 87
4, 8449, Note_on_c, 0, 58, 96
4, 8449, Note_on_c, 0, 62, 95
4, 8516, Note_on_c, 0, 65, 0
4, 8518, Note_on_c, 0, 58, 0
4, 8519, Note_on_c, 0, 55, 0
4, 8519, Note_on_c, 0, 62, 0
4, 8543, Note_on_c, 0, 65, 81
4, 8543, Note_on_c, 0, 43, 75
4, 8543, Note_on_c, 0, 55, 92
4, 8543, Note_on_c, 0, 62, 85
4, 8543, Note_on_c, 0, 58, 84
4, 8559, Note_on_c, 0, 55, 0
4, 8591, Note_on_c, 0, 50, 79
4, 8591, Note_on_c, 0, 55, 86
4, 8592, Note_on_c, 0, 43, 0
4, 8603, Note_on_c, 0, 65, 0
4, 8604, Note_on_c, 0, 58, 0
4, 8612, Note_on_c, 0, 62, 0
4, 8614, Note_on_c, 0, 55, 0
4, 8639, Note_on_c, 0, 58, 92
4, 8639, Note_on_c, 0, 62, 97
4, 8639, Note_on_c, 0, 65, 97
4, 8639, Note_on_c, 0, 55, 99
4, 8660, Note_on_c, 0, 50, 0
4, 8663, Note_on_c, 0, 55, 0
4, 8687, Note_on_c, 0, 43, 83
4, 8687, Note_on_c, 0, 55, 67
4, 8692, Note_on_c, 0, 65, 0
4, 8696, Note_on_c, 0, 62, 0
4, 8699, Note_on_c, 0, 58, 0
4, 8702, Note_on_c, 0, 55, 0
4, 8737, Note_on_c, 0, 58, 94
4, 8737, Note_on_c, 0, 65, 92
4, 8737, Note_on_c, 0, 62, 103
4, 8737, Note_on_c, 0, 55, 83
4, 8751, Note_on_c, 0, 55, 0
4, 8780, Note_on_c, 0, 43, 0
4, 8784, Note_on_c, 0, 50, 75
4, 8785, Note_on_c, 0, 55, 75
4, 8799, Note_on_c, 0, 50, 0
4, 8804, Note_on_c, 0, 58, 0
4, 8804, Note_on_c, 0, 55, 0
4, 8805, Note_on_c, 0, 65, 0
4, 8807, Note_on_c, 0, 62, 0
4, 8831, Note_on_c, 0, 62, 89
4, 8832, Note_on_c, 0, 57, 76
4, 8832, Note_on_c, 0, 65, 79
4, 8833, Note_on_c, 0, 50, 80
4, 8851, Note_on_c, 0, 57, 0
4, 8879, Note_on_c, 0, 57, 68
4, 8888, Note_on_c, 0, 65, 0
4, 8891, Note_on_c, 0, 62, 0
4, 8893, Note_on_c, 0, 57, 0
4, 8927, Note_on_c, 0, 57, 99
4, 8927, Note_on_c, 0, 65, 97
4, 8927, Note_on_c, 0, 62, 109
4, 8933, Note_on_c, 0, 50, 0
4, 8944, Note_on_c, 0, 57, 0
4, 8975, Note_on_c, 0, 50, 76
4, 8976, Note_on_c, 0, 57, 68
4, 8990, Note_on_c, 0, 65, 0
4, 8990, Note_on_c, 0, 62, 0
4, 8995, Note_on_c, 0, 57, 0
4, 9023, Note_on_c, 0, 65, 97
4, 9023, Note_on_c, 0, 57, 71
4, 9024, Note_on_c, 0, 62, 80
4, 9049, Note_on_c, 0, 62, 0
4, 9049, Note_on_c, 0, 57, 0
4, 9057, Note_on_c, 0, 65, 0
4, 9061, Note_on_c, 0, 50, 0
4, 9071, Note_on_c, 0, 57, 112
4, 9071, Note_on_c, 0, 65, 92
4, 9071, Note_on_c, 0, 62, 101
4, 9119, Note_on_c, 0, 50, 101
4, 9150, Note_on_c, 0, 57, 0
4, 9152, Note_on_c, 0, 65, 0
4, 9155, Note_on_c, 0, 62, 0
4, 9168, Note_on_c, 0, 62, 101
4, 9168, Note_on_c, 0, 65, 82
4, 9169, Note_on_c, 0, 57, 90
4, 9190, Note_on_c, 0, 50, 0
4, 9196, Note_on_c, 0, 62, 0
4, 9203, Note_on_c, 0, 65, 0
4, 9215, Note_on_c, 0, 65, 68
4, 9215, Note_on_c, 0, 46, 94
4, 9216, Note_on_c, 0, 57, 0
4, 9216, Note_on_c, 0, 58, 77
4, 9217, Note_on_c, 0, 62, 83
4, 9238, Note_on_c, 0, 58, 0
4, 9239, Note_on_c, 0, 62, 0
4, 9239, Note_on_c, 0, 65, 0
4, 9263, Note_on_c, 0, 65, 92
4, 9263, Note_on_c, 0, 62, 99
4, 9263, Note_on_c, 0, 57, 99
4, 9263, Note_on_c, 0, 58, 102
4, 9264, Note_on_c, 0, 46, 0
4, 9287, Note_on_c, 0, 57, 0
4, 9311, Note_on_c, 0, 46, 92
4, 9313, Note_on_c, 0, 57, 75
4, 9340, Note_on_c, 0, 57, 0
4, 9341, Note_on_c, 0, 58, 0
4, 9344, Note_on_c, 0, 65, 0
4, 9351, Note_on_c, 0, 62, 0
4, 9357, Note_on_c, 0, 46, 0
4, 9360, Note_on_c, 0, 62, 107
4, 9360, Note_on_c, 0, 58, 105
4, 9360, Note_on_c, 0, 57, 112
4, 9360, Note_on_c, 0, 65, 103
4, 9406, Note_on_c, 0, 57, 0
4, 9423, Note_on_c, 0, 58, 0
4, 9456, Note_on_c, 0, 57, 85
4, 9471, Note_on_c, 0, 65, 0
4, 9474, Note_on_c, 0, 62, 0
4, 9475, Note_on_c, 0, 57, 0
4, 9503, Note_on_c, 0, 62, 99
4, 9503, Note_on_c, 0, 58, 105
4, 9503, Note_on_c, 0, 65, 97
4, 9503, Note_on_c, 0, 46, 99
4, 9503, Note_on_c, 0, 57, 101
4, 9520, Note_on_c, 0, 46, 0
4, 9522, Note_on_c, 0, 57, 0
4, 9551, Note_on_c, 0, 46, 67
4, 9553, Note_on_c, 0, 57, 79
4, 9564, Note_on_c, 0, 46, 0
4, 9570, Note_on_c, 0, 58, 0
4, 9579, Note_on_c, 0, 62, 0
4, 9579, Note_on_c, 0, 65, 0
4, 9581, Note_on_c, 0, 57, 0
4, 9599, Note_on_c, 0, 65, 57
4, 9599, Note_on_c, 0, 50, 87
4, 9599, Note_on_c, 0, 62, 60
4, 9599, Note_on_c, 0, 57, 26
4, 9616, Note_on_c, 0, 62, 0
4, 9623, Note_on_c, 0, 57, 0
4, 9623, Note_on_c, 0, 62, 78
4, 9629, Note_on_c, 0, 65, 0
4, 9632, Note_on_c, 0, 50, 0
4, 9645, Note_on_c, 0, 62, 0
4, 9647, Note_on_c, 0, 57, 120
4, 9647, Note_on_c, 0, 65, 112
4, 9647, Note_on_c, 0, 62, 117
4, 9647, Note_on_c, 0, 50, 90
4, 9676, Note_on_c, 0, 57, 0
4, 9680, Note_on_c, 0, 65, 0
4, 9688, Note_on_c, 0, 62, 0
4, 9695, Note_on_c, 0, 57, 68
4, 9695, Note_on_c, 0, 65, 52
4, 9695, Note_on_c, 0, 62, 48
4, 9706, Note_on_c, 0, 50, 0
4, 9727, Note_on_c, 0, 57, 0
4, 9729, Note_on_c, 0, 65, 0
4, 9732, Note_on_c, 0, 62, 0
4, 9745, Note_on_c, 0, 50, 101
4, 9745, Note_on_c, 0, 65, 107
4, 9745, Note_on_c, 0, 57, 117
4, 9745, Note_on_c, 0, 62, 122
4, 9780, Note_on_c, 0, 57, 0
4, 9819, Note_on_c, 0, 50, 0
4, 9839, Note_on_c, 0, 50, 81
4, 9839, Note_on_c, 0, 57, 83
4, 9847, Note_on_c, 0, 62, 0
4, 9848, Note_on_c, 0, 65, 0
4, 9856, Note_on_c, 0, 57, 0
4, 9887, Note_on_c, 0, 65, 109
4, 9887, Note_on_c, 0, 57, 109
4, 9887, Note_on_c, 0, 62, 120
4, 9905, Note_on_c, 0, 50, 0
4, 9913, Note_on_c, 0, 57, 0
4, 9935, Note_on_c, 0, 50, 92
4, 9937, Note_on_c, 0, 57, 81
4, 9945, Note_on_c, 0, 62, 0
4, 9968, Note_on_c, 0, 57, 0
4, 9973, Note_on_c, 0, 65, 0
4, 9983, Note_on_c, 0, 50, 0
4, 9984, Note_on_c, 0, 55, 75
4, 9984, Note_on_c, 0, 62, 73
4, 9984, Note_on_c, 0, 58, 66
4, 9985, Note_on_c, 0, 43, 86
4, 9985, Note_on_c, 0, 65, 59
4, 9994, Note_on_c, 0, 65, 0
4, 9995, Note_on_c, 0, 58, 0
4, 9998, Note_on_c, 0, 62, 0
4, 9999, Note_on_c, 0, 55, 0
4, 10003, Note_on_c, 0, 43, 0
4, 10031, Note_on_c, 0, 62, 99
4, 10031, Note_on_c, 0, 55, 117
4, 10031, Note_on_c, 0, 65, 85
4, 10031, Note_on_c, 0, 58, 99
4, 10055, Note_on_c, 0, 55, 0
4, 10079, Note_on_c, 0, 43, 69
4, 10081, Note_on_c, 0, 55, 90
4, 10111, Note_on_c, 0, 55, 0
4, 10115, Note_on_c, 0, 65, 0
4, 10117, Note_on_c, 0, 58, 0
4, 10118, Note_on_c, 0, 62, 0
4, 10127, Note_on_c, 0, 58, 102
4, 10127, Note_on_c, 0, 55, 120
4, 10127, Note_on_c, 0, 65, 95
4, 10127, Note_on_c, 0, 62, 99
4, 10130, Note_on_c, 0, 43, 0
4, 10157, Note_on_c, 0, 55, 0
4, 10175, Note_on_c, 0, 43, 69
4, 10177, Note_on_c, 0, 55, 75
4, 10187, Note_on_c, 0, 43, 0
4, 10199, Note_on_c, 0, 55, 0
4, 10200, Note_on_c, 0, 65, 0
4, 10201, Note_on_c, 0, 58, 0
4, 10203, Note_on_c, 0, 62, 0
4, 10223, Note_on_c, 0, 55, 70
4, 10223, Note_on_c, 0, 65, 65
4, 10223, Note_on_c, 0, 58, 63
4, 10223, Note_on_c, 0, 62, 70
4, 10237, Note_on_c, 0, 58, 0
4, 10238, Note_on_c, 0, 55, 0
4, 10239, Note_on_c, 0, 65, 0
4, 10240, Note_on_c, 0, 62, 0
4, 10271, Note_on_c, 0, 62, 99
4, 10271, Note_on_c, 0, 55, 109
4, 10271, Note_on_c, 0, 58, 99
4, 10271, Note_on_c, 0, 65, 86
4, 10272, Note_on_c, 0, 43, 81
4, 10288, Note_on_c, 0, 43, 0
4, 10296, Note_on_c, 0, 55, 0
4, 10319, Note_on_c, 0, 43, 69
4, 10319, Note_on_c, 0, 55, 87
4, 10342, Note_on_c, 0, 55, 0
4, 10344, Note_on_c, 0, 43, 0
4, 10346, Note_on_c, 0, 58, 0
4, 10347, Note_on_c, 0, 65, 0
4, 10350, Note_on_c, 0, 62, 0
4, 10367, Note_on_c, 0, 57, 74
4, 10367, Note_on_c, 0, 50, 90
4, 10368, Note_on_c, 0, 65, 75
4, 10369, Note_on_c, 0, 62, 81
4, 10395, Note_on_c, 0, 62, 0
4, 10396, Note_on_c, 0, 50, 0
4, 10397, Note_on_c, 0, 65, 0
4, 10397, Note_on_c, 0, 57, 0
4, 10415, Note_on_c, 0, 57, 107
4, 10415, Note_on_c, 0, 65, 99
4, 10415, Note_on_c, 0, 50, 93
4, 10415, Note_on_c, 0, 62, 105
4, 10442, Note_on_c, 0, 57, 0
4, 10446, Note_on_c, 0, 65, 0
4, 10451, Note_on_c, 0, 62, 0
4, 10464, Note_on_c, 0, 65, 61
4, 10464, Note_on_c, 0, 57, 70
4, 10464, Note_on_c, 0, 62, 68
4, 10478, Note_on_c, 0, 50, 0
4, 10490, Note_on_c, 0, 57, 0
4, 10493, Note_on_c, 0, 65, 0
4, 10495, Note_on_c, 0, 62, 0
4, 10511, Note_on_c, 0, 50, 105
4, 10511, Note_on_c, 0, 62, 122
4, 10511, Note_on_c, 0, 57, 120
4, 10511, Note_on_c, 0, 65, 117
4, 10537, Note_on_c, 0, 57, 0
4, 10583, Note_on_c, 0, 57, 62
4, 10585, Note_on_c, 0, 50, 0
4, 10607, Note_on_c, 0, 50, 93
4, 10625, Note_on_c, 0, 65, 0
4, 10626, Note_on_c, 0, 62, 0
4, 10629, Note_on_c, 0, 57, 0
4, 10655, Note_on_c, 0, 62, 120
4, 10655, Note_on_c, 0, 65, 107
4, 10655, Note_on_c, 0, 57, 115
4, 10667, Note_on_c, 0, 50, 0
4, 10680, Note_on_c, 0, 57, 0
4, 10703, Note_on_c, 0, 50, 92
4, 10705, Note_on_c, 0, 62, 0
4, 10705, Note_on_c, 0, 57, 75
4, 10709, Note_on_c, 0, 57, 0
4, 10730, Note_on_c, 0, 50, 0
4, 10737, Note_on_c, 0, 65, 0
4, 10751, Note_on_c, 0, 62, 64
4, 10751, Note_on_c, 0, 58, 60
4, 10751, Note_on_c, 0, 65, 45
4, 10753, Note_on_c, 0, 47, 56
4, 10758, Note_on_c, 0, 47, 0
4, 10763, Note_on_c, 0, 65, 0
4, 10763, Note_on_c, 0, 62, 0
4, 10764, Note_on_c, 0, 58, 0
4, 10799, Note_on_c, 0, 62, 95
4, 10799, Note_on_c, 0, 65, 93
4, 10799, Note_on_c, 0, 57, 107
4, 10799, Note_on_c, 0, 46, 96
4, 10799, Note_on_c, 0, 58, 96
4, 10822, Note_on_c, 0, 57, 0
4, 10849, Note_on_c, 0, 57, 40
4, 10861, Note_on_c, 0, 46, 0
4, 10865, Note_on_c, 0, 58, 0
4, 10865, Note_on_c, 0, 65, 0
4, 10869, Note_on_c, 0, 62, 0
4, 10869, Note_on_c, 0, 57, 0
4, 10895, Note_on_c, 0, 65, 101
4, 10895, Note_on_c, 0, 62, 101
4, 10895, Note_on_c, 0, 58, 102
4, 10895, Note_on_c, 0, 46, 60
4, 10895, Note_on_c, 0, 57, 109
4, 10902, Note_on_c, 0, 46, 0
4, 10919, Note_on_c, 0, 46, 29
4, 10932, Note_on_c, 0, 57, 0
4, 10954, Note_on_c, 0, 58, 0
4, 10981, Note_on_c, 0, 46, 0
4, 10991, Note_on_c, 0, 46, 102
4, 10992, Note_on_c, 0, 57, 69
4, 11002, Note_on_c, 0, 65, 0
4, 11004, Note_on_c, 0, 62, 0
4, 11005, Note_on_c, 0, 57, 0
4, 11039, Note_on_c, 0, 57, 97
4, 11039, Note_on_c, 0, 58, 105
4, 11039, Note_on_c, 0, 65, 99
4, 11039, Note_on_c, 0, 62, 99
4, 11053, Note_on_c, 0, 46, 0
4, 11058, Note_on_c, 0, 57, 0
4, 11087, Note_on_c, 0, 46, 105
4, 11089, Note_on_c, 0, 57, 60
4, 11098, Note_on_c, 0, 58, 0
4, 11107, Note_on_c, 0, 46, 0
4, 11111, Note_on_c, 0, 62, 0
4, 11115, Note_on_c, 0, 65, 0
4, 11116, Note_on_c, 0, 57, 0
4, 11135, Note_on_c, 0, 45, 83
4, 11135, Note_on_c, 0, 61, 90
4, 11135, Note_on_c, 0, 64, 83
4, 11136, Note_on_c, 0, 57, 53
4, 11144, Note_on_c, 0, 57, 0
4, 11144, Note_on_c, 0, 61, 0
4, 11146, Note_on_c, 0, 64, 0
4, 11148, Note_on_c, 0, 45, 0
4, 11183, Note_on_c, 0, 64, 103
4, 11183, Note_on_c, 0, 61, 114
4, 11183, Note_on_c, 0, 45, 101
4, 11183, Note_on_c, 0, 57, 112
4, 11203, Note_on_c, 0, 57, 0
4, 11203, Note_on_c, 0, 45, 0
4, 11203, Note_on_c, 0, 61, 0
4, 11205, Note_on_c, 0, 64, 0
4, 11231, Note_on_c, 0, 62, 120
4, 11232, Note_on_c, 0, 45, 103
4, 11232, Note_on_c, 0, 65, 115
4, 11232, Note_on_c, 0, 57, 112
4, 11258, Note_on_c, 0, 45, 0
4, 11265, Note_on_c, 0, 57, 0
4, 11268, Note_on_c, 0, 65, 0
4, 11270, Note_on_c, 0, 62, 0
4, 11281, Note_on_c, 0, 57, 109
4, 11281, Note_on_c, 0, 64, 122
4, 11281, Note_on_c, 0, 61, 122
4, 11281, Note_on_c, 0, 45, 112
4, 11520, Note_on_c, 0, 45, 0
4, 11520, Note_on_c, 0, 57, 0
4, 11520, Note_on_c, 0, 64, 0
4, 11520, Note_on_c, 0, 61, 0
4, 11520, Note_on_c, 0, 50, 95
4, 11521, Note_on_c, 0, 62, 85
4, 11521, Note_on_c, 0, 69, 87
4, 11521, Note_on_c, 0, 65, 81
4, 11545, Note_on_c, 0, 62, 0
4, 11563, Note_on_c, 0, 69, 0
4, 11567, Note_on_c, 0, 62, 56
4, 11569, Note_on_c, 0, 57, 65
4, 11570, Note_on_c, 0, 65, 0
4, 11578, Note_on_c, 0, 62, 0
4, 11609, Note_on_c, 0, 57, 0
4, 11615, Note_on_c, 0, 65, 109
4, 11615, Note_on_c, 0, 62, 107
4, 11616, Note_on_c, 0, 69, 97
4, 11629, Note_on_c, 0, 62, 0
4, 11641, Note_on_c, 0, 65, 0
4, 11644, Note_on_c, 0, 69, 0
4, 11651, Note_on_c, 0, 50, 0
4, 11663, Note_on_c, 0, 67, 99
4, 11663, Note_on_c, 0, 62, 89
4, 11663, Note_on_c, 0, 71, 107
4, 11663, Note_on_c, 0, 57, 81
4, 11670, Note_on_c, 0, 57, 0
4, 11688, Note_on_c, 0, 67, 0
4, 11688, Note_on_c, 0, 62, 0
4, 11689, Note_on_c, 0, 71, 0
4, 11712, Note_on_c, 0, 69, 92
4, 11712, Note_on_c, 0, 65, 95
4, 11712, Note_on_c, 0, 62, 95
4, 11759, Note_on_c, 0, 50, 112
4, 11760, Note_on_c, 0, 62, 0
4, 11764, Note_on_c, 0, 65, 0
4, 11765, Note_on_c, 0, 69, 0
4, 11807, Note_on_c, 0, 62, 107
4, 11807, Note_on_c, 0, 67, 109
4, 11807, Note_on_c, 0, 71, 115
4, 11821, Note_on_c, 0, 62, 0
4, 11825, Note_on_c, 0, 67, 0
4, 11826, Note_on_c, 0, 71, 0
4, 11853, Note_on_c, 0, 50, 0
4, 11855, Note_on_c, 0, 62, 107
4, 11855, Note_on_c, 0, 69, 107
4, 11855, Note_on_c, 0, 65, 105
4, 11903, Note_on_c, 0, 50, 86
4, 11915, Note_on_c, 0, 62, 0
4, 11931, Note_on_c, 0, 69, 0
4, 11931, Note_on_c, 0, 65, 0
4, 11952, Note_on_c, 0, 67, 97
4, 11952, Note_on_c, 0, 62, 109
4, 11952, Note_on_c, 0, 71, 103
4, 11967, Note_on_c, 0, 62, 0
4, 11967, Note_on_c, 0, 67, 0
4, 11968, Note_on_c, 0, 71, 0
4, 11999, Note_on_c, 0, 69, 107
4, 11999, Note_on_c, 0, 65, 105
4, 11999, Note_on_c, 0, 62, 105
4, 12010, Note_on_c, 0, 50, 0
4, 12047, Note_on_c, 0, 57, 90
4, 12051, Note_on_c, 0, 69, 0
4, 12051, Note_on_c, 0, 62, 0
4, 12054, Note_on_c, 0, 65, 0
4, 12095, Note_on_c, 0, 62, 81
4, 12095, Note_on_c, 0, 65, 78
4, 12095, Note_on_c, 0, 69, 80
4, 12128, Note_on_c, 0, 57, 0
4, 12143, Note_on_c, 0, 50, 90
4, 12144, Note_on_c, 0, 62, 0
4, 12149, Note_on_c, 0, 69, 0
4, 12150, Note_on_c, 0, 65, 0
4, 12191, Note_on_c, 0, 62, 76
4, 12191, Note_on_c, 0, 65, 76
4, 12191, Note_on_c, 0, 69, 71
4, 12205, Note_on_c, 0, 50, 0
4, 12239, Note_on_c, 0, 50, 75
4, 12247, Note_on_c, 0, 69, 0
4, 12249, Note_on_c, 0, 65, 0
4, 12252, Note_on_c, 0, 62, 0
4, 12253, Note_on_c, 0, 50, 0
4, 12287, Note_on_c, 0, 57, 41
4, 12287, Note_on_c, 0, 61, 41
4, 12289, Note_on_c, 0, 45, 44
4, 12291, Note_on_c, 0, 61, 0
4, 12291, Note_on_c, 0, 57, 0
4, 12293, Note_on_c, 0, 45, 0
4, 12383, Note_on_c, 0, 64, 95
4, 12383, Note_on_c, 0, 61, 90
4, 12383, Note_on_c, 0, 57, 99
4, 12383, Note_on_c, 0, 45, 99
4, 12392, Note_on_c, 0, 45, 0
4, 12392, Note_on_c, 0, 57, 0
4, 12392, Note_on_c, 0, 61, 0
4, 12393, Note_on_c, 0, 64, 0
4, 12431, Note_on_c, 0, 57, 101
4, 12431, Note_on_c, 0, 62, 112
4, 12431, Note_on_c, 0, 65, 105
4, 12431, Note_on_c, 0, 45, 112
4, 12444, Note_on_c, 0, 57, 0
4, 12446, Note_on_c, 0, 62, 0
4, 12446, Note_on_c, 0, 65, 0
4, 12479, Note_on_c, 0, 64, 101
4, 12479, Note_on_c, 0, 57, 103
4, 12479, Note_on_c, 0, 61, 108
4, 12521, Note_on_c, 0, 45, 0
4, 12528, Note_on_c, 0, 52, 99
4, 12541, Note_on_c, 0, 52, 0
4, 12541, Note_on_c, 0, 57, 0
4, 12543, Note_on_c, 0, 61, 0
4, 12544, Note_on_c, 0, 64, 0
4, 12575, Note_on_c, 0, 62, 97
4, 12575, Note_on_c, 0, 57, 101
4, 12575, Note_on_c, 0, 65, 97
4, 12589, Note_on_c, 0, 57, 0
4, 12590, Note_on_c, 0, 65, 0
4, 12590, Note_on_c, 0, 62, 0
4, 12623, Note_on_c, 0, 64, 103
4, 12623, Note_on_c, 0, 57, 92
4, 12623, Note_on_c, 0, 61, 111
4, 12671, Note_on_c, 0, 45, 85
4, 12689, Note_on_c, 0, 57, 0
4, 12695, Note_on_c, 0, 61, 0
4, 12702, Note_on_c, 0, 64, 0
4, 12719, Note_on_c, 0, 62, 105
4, 12719, Note_on_c, 0, 57, 92
4, 12733, Note_on_c, 0, 57, 0
4, 12736, Note_on_c, 0, 62, 0
4, 12767, Note_on_c, 0, 64, 97
4, 12767, Note_on_c, 0, 61, 102
4, 12767, Note_on_c, 0, 57, 86
4, 12778, Note_on_c, 0, 45, 0
4, 12815, Note_on_c, 0, 45, 97
4, 12833, Note_on_c, 0, 57, 0
4, 12840, Note_on_c, 0, 64, 0
4, 12841, Note_on_c, 0, 61, 0
4, 12863, Note_on_c, 0, 61, 73
4, 12863, Note_on_c, 0, 57, 85
4, 12863, Note_on_c, 0, 64, 74
4, 12911, Note_on_c, 0, 52, 112
4, 12917, Note_on_c, 0, 57, 0
4, 12924, Note_on_c, 0, 64, 0
4, 12926, Note_on_c, 0, 61, 0
4, 12959, Note_on_c, 0, 61, 66
4, 12959, Note_on_c, 0, 64, 81
4, 12959, Note_on_c, 0, 57, 67
4, 12966, Note_on_c, 0, 57, 0
4, 12967, Note_on_c, 0, 61, 0
4, 12972, Note_on_c, 0, 64, 0
4, 13007, Note_on_c, 0, 57, 101
4, 13007, Note_on_c, 0, 64, 95
4, 13007, Note_on_c, 0, 61, 99
4, 13008, Note_on_c, 0, 45, 0
4, 13008, Note_on_c, 0, 52, 0
4, 13037, Note_on_c, 0, 64, 0
4, 13039, Note_on_c, 0, 61, 0
4, 13040, Note_on_c, 0, 57, 0
4, 13055, Note_on_c, 0, 62, 75
4, 13055, Note_on_c, 0, 58, 67
4, 13055, Note_on_c, 0, 55, 57
4, 13055, Note_on_c, 0, 43, 92
4, 13065, Note_on_c, 0, 55, 0
4, 13066, Note_on_c, 0, 58, 0
4, 13071, Note_on_c, 0, 62, 0
4, 13103, Note_on_c, 0, 50, 95
4, 13109, Note_on_c, 0, 43, 0
4, 13151, Note_on_c, 0, 62, 112
4, 13151, Note_on_c, 0, 58, 99
4, 13151, Note_on_c, 0, 55, 109
4, 13164, Note_on_c, 0, 50, 0
4, 13168, Note_on_c, 0, 58, 0
4, 13171, Note_on_c, 0, 55, 0
4, 13174, Note_on_c, 0, 62, 0
4, 13199, Note_on_c, 0, 60, 109
4, 13199, Note_on_c, 0, 55, 107
4, 13199, Note_on_c, 0, 64, 112
4, 13223, Note_on_c, 0, 64, 0
4, 13224, Note_on_c, 0, 55, 0
4, 13226, Note_on_c, 0, 60, 0
4, 13247, Note_on_c, 0, 58, 96
4, 13247, Note_on_c, 0, 55, 103
4, 13247, Note_on_c, 0, 62, 103
4, 13295, Note_on_c, 0, 43, 103
4, 13302, Note_on_c, 0, 58, 0
4, 13303, Note_on_c, 0, 62, 0
4, 13305, Note_on_c, 0, 55, 0
4, 13343, Note_on_c, 0, 55, 112
4, 13343, Note_on_c, 0, 60, 90
4, 13343, Note_on_c, 0, 64, 107
4, 13367, Note_on_c, 0, 55, 0
4, 13372, Note_on_c, 0, 64, 0
4, 13377, Note_on_c, 0, 60, 0
4, 13390, Note_on_c, 0, 43, 0
4, 13391, Note_on_c, 0, 62, 103
4, 13391, Note_on_c, 0, 55, 89
4, 13391, Note_on_c, 0, 58, 94
4, 13439, Note_on_c, 0, 43, 55
4, 13444, Note_on_c, 0, 43, 0
4, 13463, Note_on_c, 0, 55, 0
4, 13466, Note_on_c, 0, 58, 0
4, 13466, Note_on_c, 0, 62, 0
4, 13487, Note_on_c, 0, 60, 107
4, 13487, Note_on_c, 0, 55, 103
4, 13487, Note_on_c, 0, 64, 107
4, 13513, Note_on_c, 0, 55, 0
4, 13517, Note_on_c, 0, 64, 0
4, 13520, Note_on_c, 0, 60, 0
4, 13535, Note_on_c, 0, 58, 96
4, 13535, Note_on_c, 0, 62, 105
4, 13535, Note_on_c, 0, 55, 97
4, 13583, Note_on_c, 0, 43, 112
4, 13608, Note_on_c, 0, 55, 0
4, 13609, Note_on_c, 0, 58, 0
4, 13613, Note_on_c, 0, 62, 0
4, 13631, Note_on_c, 0, 55, 73
4, 13631, Note_on_c, 0, 58, 77
4, 13631, Note_on_c, 0, 62, 93
4, 13670, Note_on_c, 0, 43, 0
4, 13679, Note_on_c, 0, 50, 89
4, 13689, Note_on_c, 0, 55, 0
4, 13695, Note_on_c, 0, 62, 0
4, 13695, Note_on_c, 0, 58, 0
4, 13701, Note_on_c, 0, 50, 0
4, 13727, Note_on_c, 0, 62, 83
4, 13727, Note_on_c, 0, 58, 77
4, 13727, Note_on_c, 0, 55, 75
4, 13755, Note_on_c, 0, 55, 0
4, 13759, Note_on_c, 0, 58, 0
4, 13760, Note_on_c, 0, 62, 0
4, 13775, Note_on_c, 0, 62, 85
4, 13775, Note_on_c, 0, 55, 81
4, 13775, Note_on_c, 0, 58, 74
4, 13807, Note_on_c, 0, 55, 0
4, 13810, Note_on_c, 0, 58, 0
4, 13820, Note_on_c, 0, 62, 0
4, 13825, Note_on_c, 0, 50, 105
4, 13871, Note_on_c, 0, 62, 56
4, 13871, Note_on_c, 0, 69, 61
4, 13871, Note_on_c, 0, 65, 68
4, 13881, Note_on_c, 0, 62, 0
4, 13882, Note_on_c, 0, 69, 0
4, 13883, Note_on_c, 0, 65, 0
4, 13915, Note_on_c, 0, 50, 0
4, 13919, Note_on_c, 0, 69, 109
4, 13919, Note_on_c, 0, 62, 112
4, 13919, Note_on_c, 0, 65, 115
4, 13948, Note_on_c, 0, 65, 0
4, 13949, Note_on_c, 0, 62, 0
4, 13952, Note_on_c, 0, 69, 0
4, 13967, Note_on_c, 0, 71, 117
4, 13967, Note_on_c, 0, 62, 101
4, 13967, Note_on_c, 0, 67, 101
4, 13994, Note_on_c, 0, 62, 0
4, 13995, Note_on_c, 0, 71, 0
4, 13998, Note_on_c, 0, 67, 0
4, 14015, Note_on_c, 0, 62, 81
4, 14015, Note_on_c, 0, 69, 90
4, 14015, Note_on_c, 0, 65, 101
4, 14063, Note_on_c, 0, 50, 82
4, 14063, Note_on_c, 0, 57, 76
4, 14085, Note_on_c, 0, 62, 0
4, 14092, Note_on_c, 0, 69, 0
4, 14092, Note_on_c, 0, 65, 0
4, 14111, Note_on_c, 0, 67, 107
4, 14111, Note_on_c, 0, 71, 105
4, 14111, Note_on_c, 0, 62, 117
4, 14115, Note_on_c, 0, 57, 0
4, 14136, Note_on_c, 0, 62, 0
4, 14141, Note_on_c, 0, 71, 0
4, 14144, Note_on_c, 0, 67, 0
4, 14149, Note_on_c, 0, 50, 0
4, 14159, Note_on_c, 0, 69, 93
4, 14159, Note_on_c, 0, 65, 103
4, 14159, Note_on_c, 0, 62, 90
4, 14207, Note_on_c, 0, 50, 107
4, 14225, Note_on_c, 0, 62, 0
4, 14227, Note_on_c, 0, 69, 0
4, 14232, Note_on_c, 0, 65, 0
4, 14253, Note_on_c, 0, 50, 0
4, 14255, Note_on_c, 0, 71, 109
4, 14255, Note_on_c, 0, 67, 105
4, 14256, Note_on_c, 0, 62, 92
4, 14267, Note_on_c, 0, 71, 0
4, 14268, Note_on_c, 0, 62, 0
4, 14268, Note_on_c, 0, 67, 0
4, 14303, Note_on_c, 0, 65, 105
4, 14303, Note_on_c, 0, 69, 105
4, 14303, Note_on_c, 0, 62, 99
4, 14351, Note_on_c, 0, 50, 105
4, 14373, Note_on_c, 0, 62, 0
4, 14386, Note_on_c, 0, 65, 0
4, 14387, Note_on_c, 0, 69, 0
4, 14399, Note_on_c, 0, 65, 60
4, 14399, Note_on_c, 0, 62, 56
4, 14399, Note_on_c, 0, 69, 61
4, 14410, Note_on_c, 0, 62, 0
4, 14411, Note_on_c, 0, 65, 0
4, 14412, Note_on_c, 0, 69, 0
4, 14442, Note_on_c, 0, 50, 0
4, 14447, Note_on_c, 0, 57, 80
4, 14447, Note_on_c, 0, 65, 78
4, 14447, Note_on_c, 0, 69, 75
4, 14447, Note_on_c, 0, 62, 65
4, 14454, Note_on_c, 0, 57, 0
4, 14456, Note_on_c, 0, 62, 0
4, 14459, Note_on_c, 0, 65, 0
4, 14462, Note_on_c, 0, 69, 0
4, 14495, Note_on_c, 0, 62, 107
4, 14495, Note_on_c, 0, 65, 105
4, 14495, Note_on_c, 0, 69, 101
4, 14522, Note_on_c, 0, 62, 0
4, 14524, Note_on_c, 0, 65, 0
4, 14527, Note_on_c, 0, 69, 0
4, 14543, Note_on_c, 0, 50, 109
4, 14591, Note_on_c, 0, 65, 49
4, 14592, Note_on_c, 0, 69, 43
4, 14592, Note_on_c, 0, 62, 39
4, 14593, Note_on_c, 0, 50, 0
4, 14600, Note_on_c, 0, 62, 0
4, 14600, Note_on_c, 0, 69, 0
4, 14602, Note_on_c, 0, 65, 0
4, 14639, Note_on_c, 0, 69, 75
4, 14639, Note_on_c, 0, 65, 72
4, 14639, Note_on_c, 0, 62, 63
4, 14639, Note_on_c, 0, 50, 99
4, 14646, Note_on_c, 0, 62, 0
4, 14649, Note_on_c, 0, 69, 0
4, 14649, Note_on_c, 0, 65, 0
4, 14687, Note_on_c, 0, 65, 115
4, 14687, Note_on_c, 0, 62, 120
4, 14687, Note_on_c, 0, 69, 109
4, 14698, Note_on_c, 0, 50, 0
4, 14706, Note_on_c, 0, 62, 0
4, 14707, Note_on_c, 0, 65, 0
4, 14713, Note_on_c, 0, 69, 0
4, 14735, Note_on_c, 0, 71, 115
4, 14735, Note_on_c, 0, 67, 107
4, 14735, Note_on_c, 0, 62, 101
4, 14752, Note_on_c, 0, 62, 0
4, 14754, Note_on_c, 0, 71, 0
4, 14755, Note_on_c, 0, 67, 0
4, 14783, Note_on_c, 0, 69, 107
4, 14783, Note_on_c, 0, 65, 99
4, 14783, Note_on_c, 0, 62, 97
4, 14831, Note_on_c, 0, 50, 101
4, 14831, Note_on_c, 0, 57, 86
4, 14842, Note_on_c, 0, 62, 0
4, 14846, Note_on_c, 0, 69, 0
4, 14850, Note_on_c, 0, 65, 0
4, 14876, Note_on_c, 0, 57, 0
4, 14879, Note_on_c, 0, 67, 97
4, 14879, Note_on_c, 0, 62, 97
4, 14879, Note_on_c, 0, 71, 109
4, 14896, Note_on_c, 0, 62, 0
4, 14897, Note_on_c, 0, 71, 0
4, 14898, Note_on_c, 0, 67, 0
4, 14927, Note_on_c, 0, 69, 107
4, 14927, Note_on_c, 0, 65, 101
4, 14927, Note_on_c, 0, 62, 103
4, 14977, Note_on_c, 0, 57, 83
4, 14982, Note_on_c, 0, 50, 0
4, 14992, Note_on_c, 0, 57, 0
4, 14994, Note_on_c, 0, 62, 0
4, 14998, Note_on_c, 0, 65, 0
4, 15000, Note_on_c, 0, 69, 0
4, 15024, Note_on_c, 0, 71, 107
4, 15025, Note_on_c, 0, 67, 99
4, 15025, Note_on_c, 0, 62, 105
4, 15033, Note_on_c, 0, 71, 0
4, 15042, Note_on_c, 0, 62, 0
4, 15044, Note_on_c, 0, 67, 0
4, 15071, Note_on_c, 0, 62, 107
4, 15071, Note_on_c, 0, 69, 105
4, 15071, Note_on_c, 0, 65, 99
4, 15119, Note_on_c, 0, 57, 92
4, 15119, Note_on_c, 0, 50, 95
4, 15161, Note_on_c, 0, 65, 0
4, 15167, Note_on_c, 0, 65, 47
4, 15178, Note_on_c, 0, 57, 0
4, 15215, Note_on_c, 0, 57, 99
4, 15228, Note_on_c, 0, 62, 0
4, 15229, Note_on_c, 0, 65, 0
4, 15231, Note_on_c, 0, 69, 0
4, 15263, Note_on_c, 0, 57, 0
4, 15263, Note_on_c, 0, 62, 103
4, 15263, Note_on_c, 0, 65, 101
4, 15263, Note_on_c, 0, 69, 97
4, 15285, Note_on_c, 0, 62, 0
4, 15311, Note_on_c, 0, 57, 79
4, 15311, Note_on_c, 0, 62, 71
4, 15315, Note_on_c, 0, 50, 0
4, 15321, Note_on_c, 0, 57, 0
4, 15322, Note_on_c, 0, 69, 0
4, 15322, Note_on_c, 0, 65, 0
4, 15328, Note_on_c, 0, 62, 0
4, 15359, Note_on_c, 0, 57, 75
4, 15359, Note_on_c, 0, 64, 75
4, 15359, Note_on_c, 0, 61, 62
4, 15359, Note_on_c, 0, 45, 54
4, 15368, Note_on_c, 0, 61, 0
4, 15372, Note_on_c, 0, 57, 0
4, 15373, Note_on_c, 0, 64, 0
4, 15395, Note_on_c, 0, 45, 0
4, 15407, Note_on_c, 0, 52, 86
4, 15457, Note_on_c, 0, 64, 112
4, 15457, Note_on_c, 0, 57, 99
4, 15457, Note_on_c, 0, 61, 108
4, 15463, Note_on_c, 0, 52, 0
4, 15469, Note_on_c, 0, 61, 0
4, 15470, Note_on_c, 0, 57, 0
4, 15471, Note_on_c, 0, 64, 0
4, 15503, Note_on_c, 0, 45, 50
4, 15503, Note_on_c, 0, 65, 109
4, 15503, Note_on_c, 0, 57, 103
4, 15503, Note_on_c, 0, 62, 115
4, 15507, Note_on_c, 0, 45, 0
4, 15517, Note_on_c, 0, 57, 0
4, 15519, Note_on_c, 0, 62, 0
4, 15520, Note_on_c, 0, 65, 0
4, 15551, Note_on_c, 0, 64, 103
4, 15551, Note_on_c, 0, 57, 109
4, 15551, Note_on_c, 0, 61, 114
4, 15599, Note_on_c, 0, 45, 101
4, 15605, Note_on_c, 0, 57, 0
4, 15607, Note_on_c, 0, 61, 0
4, 15608, Note_on_c, 0, 64, 0
4, 15647, Note_on_c, 0, 57, 101
4, 15647, Note_on_c, 0, 65, 107
4, 15647, Note_on_c, 0, 62, 105
4, 15653, Note_on_c, 0, 45, 0
4, 15659, Note_on_c, 0, 57, 0
4, 15660, Note_on_c, 0, 62, 0
4, 15663, Note_on_c, 0, 65, 0
4, 15695, Note_on_c, 0, 57, 105
4, 15695, Note_on_c, 0, 61, 108
4, 15695, Note_on_c, 0, 64, 87
4, 15745, Note_on_c, 0, 45, 97
4, 15759, Note_on_c, 0, 45, 0
4, 15772, Note_on_c, 0, 57, 0
4, 15775, Note_on_c, 0, 64, 0
4, 15776, Note_on_c, 0, 61, 0
4, 15791, Note_on_c, 0, 62, 117
4, 15791, Note_on_c, 0, 65, 115
4, 15791, Note_on_c, 0, 57, 107
4, 15805, Note_on_c, 0, 62, 0
4, 15807, Note_on_c, 0, 57, 0
4, 15810, Note_on_c, 0, 65, 0
4, 15839, Note_on_c, 0, 57, 103
4, 15839, Note_on_c, 0, 64, 109
4, 15839, Note_on_c, 0, 61, 111
4, 15887, Note_on_c, 0, 45, 99
4, 15907, Note_on_c, 0, 61, 0
4, 15909, Note_on_c, 0, 57, 0
4, 15909, Note_on_c, 0, 64, 0
4, 15935, Note_on_c, 0, 64, 61
4, 15935, Note_on_c, 0, 57, 55
4, 15935, Note_on_c, 0, 61, 68
4, 15958, Note_on_c, 0, 61, 0
4, 15969, Note_on_c, 0, 45, 0
4, 15983, Note_on_c, 0, 52, 92
4, 15984, Note_on_c, 0, 57, 0
4, 15992, Note_on_c, 0, 52, 0
4, 15996, Note_on_c, 0, 64, 0
4, 16031, Note_on_c, 0, 61, 94
4, 16031, Note_on_c, 0, 57, 89
4, 16031, Note_on_c, 0, 64, 87
4, 16071, Note_on_c, 0, 57, 0
4, 16072, Note_on_c, 0, 61, 0
4, 16075, Note_on_c, 0, 64, 0
4, 16079, Note_on_c, 0, 44, 111
4, 16116, Note_on_c, 0, 44, 0
4, 16127, Note_on_c, 0, 43, 97
4, 16175, Note_on_c, 0, 58, 63
4, 16175, Note_on_c, 0, 62, 76
4, 16175, Note_on_c, 0, 55, 78
4, 16185, Note_on_c, 0, 58, 0
4, 16186, Note_on_c, 0, 55, 0
4, 16186, Note_on_c, 0, 62, 0
4, 16223, Note_on_c, 0, 58, 94
4, 16223, Note_on_c, 0, 62, 105
4, 16223, Note_on_c, 0, 55, 101
4, 16248, Note_on_c, 0, 58, 0
4, 16250, Note_on_c, 0, 55, 0
4, 16250, Note_on_c, 0, 62, 0
4, 16269, Note_on_c, 0, 43, 0
4, 16271, Note_on_c, 0, 55, 89
4, 16271, Note_on_c, 0, 50, 75
4, 16271, Note_on_c, 0, 60, 87
4, 16271, Note_on_c, 0, 64, 101
4, 16280, Note_on_c, 0, 50, 0
4, 16295, Note_on_c, 0, 55, 0
4, 16298, Note_on_c, 0, 64, 0
4, 16300, Note_on_c, 0, 60, 0
4, 16319, Note_on_c, 0, 62, 107
4, 16319, Note_on_c, 0, 58, 96
4, 16319, Note_on_c, 0, 55, 95
4, 16367, Note_on_c, 0, 43, 92
4, 16382, Note_on_c, 0, 58, 0
4, 16384, Note_on_c, 0, 55, 0
4, 16385, Note_on_c, 0, 62, 0
4, 16416, Note_on_c, 0, 64, 112
4, 16416, Note_on_c, 0, 55, 103
4, 16416, Note_on_c, 0, 60, 115
4, 16435, Note_on_c, 0, 60, 0
4, 16435, Note_on_c, 0, 64, 0
4, 16436, Note_on_c, 0, 55, 0
4, 16463, Note_on_c, 0, 43, 0
4, 16465, Note_on_c, 0, 62, 107
4, 16465, Note_on_c, 0, 58, 102
4, 16465, Note_on_c, 0, 55, 109
4, 16513, Note_on_c, 0, 43, 43
4, 16516, Note_on_c, 0, 43, 0
4, 16535, Note_on_c, 0, 58, 0
4, 16537, Note_on_c, 0, 55, 0
4, 16538, Note_on_c, 0, 62, 0
4, 16559, Note_on_c, 0, 55, 101
4, 16559, Note_on_c, 0, 60, 99
4, 16559, Note_on_c, 0, 64, 105
4, 16583, Note_on_c, 0, 64, 0
4, 16585, Note_on_c, 0, 60, 0
4, 16585, Note_on_c, 0, 55, 0
4, 16608, Note_on_c, 0, 62, 107
4, 16608, Note_on_c, 0, 55, 101
4, 16608, Note_on_c, 0, 58, 102
4, 16655, Note_on_c, 0, 43, 89
4, 16739, Note_on_c, 0, 43, 0
4, 16751, Note_on_c, 0, 50, 95
4, 16751, Note_on_c, 0, 43, 34
4, 16752, Note_on_c, 0, 55, 0
4, 16755, Note_on_c, 0, 62, 0
4, 16755, Note_on_c, 0, 58, 0
4, 16795, Note_on_c, 0, 50, 0
4, 16799, Note_on_c, 0, 62, 107
4, 16799, Note_on_c, 0, 55, 101
4, 16799, Note_on_c, 0, 58, 102
4, 16843, Note_on_c, 0, 43, 0
4, 16847, Note_on_c, 0, 50, 81
4, 16851, Note_on_c, 0, 55, 0
4, 16856, Note_on_c, 0, 50, 0
4, 16859, Note_on_c, 0, 58, 0
4, 16869, Note_on_c, 0, 62, 0
4, 16895, Note_on_c, 0, 50, 95
4, 16943, Note_on_c, 0, 69, 63
4, 16943, Note_on_c, 0, 65, 57
4, 16945, Note_on_c, 0, 62, 43
4, 16950, Note_on_c, 0, 62, 0
4, 16950, Note_on_c, 0, 65, 0
4, 16950, Note_on_c, 0, 69, 0
4, 16991, Note_on_c, 0, 62, 107
4, 16991, Note_on_c, 0, 69, 107
4, 16991, Note_on_c, 0, 65, 109
4, 17001, Note_on_c, 0, 50, 0
4, 17004, Note_on_c, 0, 62, 0
4, 17006, Note_on_c, 0, 65, 0
4, 17008, Note_on_c, 0, 69, 0
4, 17039, Note_on_c, 0, 67, 89
4, 17039, Note_on_c, 0, 62, 95
4, 17041, Note_on_c, 0, 71, 62
4, 17046, Note_on_c, 0, 71, 0
4, 17049, Note_on_c, 0, 62, 0
4, 17051, Note_on_c, 0, 67, 0
4, 17087, Note_on_c, 0, 65, 112
4, 17087, Note_on_c, 0, 62, 103
4, 17087, Note_on_c, 0, 69, 115
4, 17135, Note_on_c, 0, 50, 92
4, 17144, Note_on_c, 0, 62, 0
4, 17149, Note_on_c, 0, 65, 0
4, 17149, Note_on_c, 0, 69, 0
4, 17183, Note_on_c, 0, 67, 107
4, 17183, Note_on_c, 0, 71, 109
4, 17183, Note_on_c, 0, 62, 101
4, 17194, Note_on_c, 0, 50, 0
4, 17196, Note_on_c, 0, 62, 0
4, 17197, Note_on_c, 0, 71, 0
4, 17198, Note_on_c, 0, 67, 0
4, 17231, Note_on_c, 0, 62, 107
4, 17231, Note_on_c, 0, 69, 115
4, 17231, Note_on_c, 0, 65, 115
4, 17279, Note_on_c, 0, 50, 99
4, 17298, Note_on_c, 0, 62, 0
4, 17305, Note_on_c, 0, 69, 0
4, 17307, Note_on_c, 0, 65, 0
4, 17327, Note_on_c, 0, 67, 97
4, 17327, Note_on_c, 0, 71, 103
4, 17327, Note_on_c, 0, 62, 101
4, 17337, Note_on_c, 0, 62, 0
4, 17337, Note_on_c, 0, 71, 0
4, 17337, Note_on_c, 0, 67, 0
4, 17375, Note_on_c, 0, 69, 103
4, 17375, Note_on_c, 0, 65, 99
4, 17375, Note_on_c, 0, 62, 107
4, 17384, Note_on_c, 0, 50, 0
4, 17423, Note_on_c, 0, 57, 95
4, 17423, Note_on_c, 0, 50, 90
4, 17437, Note_on_c, 0, 62, 0
4, 17442, Note_on_c, 0, 69, 0
4, 17442, Note_on_c, 0, 65, 0
4, 17471, Note_on_c, 0, 69, 61
4, 17471, Note_on_c, 0, 65, 47
4, 17471, Note_on_c, 0, 62, 58
4, 17475, Note_on_c, 0, 57, 0
4, 17477, Note_on_c, 0, 65, 0
4, 17480, Note_on_c, 0, 62, 0
4, 17483, Note_on_c, 0, 69, 0
4, 17515, Note_on_c, 0, 50, 0
4, 17519, Note_on_c, 0, 69, 103
4, 17519, Note_on_c, 0, 65, 107
4, 17519, Note_on_c, 0, 62, 115
4, 17567, Note_on_c, 0, 50, 97
4, 17567, Note_on_c, 0, 57, 101
4, 17588, Note_on_c, 0, 62, 0
4, 17597, Note_on_c, 0, 65, 0
4, 17598, Note_on_c, 0, 69, 0
4, 17610, Note_on_c, 0, 57, 0
4, 17611, Note_on_c, 0, 50, 0
4, 17665, Note_on_c, 0, 69, 92
4, 17665, Note_on_c, 0, 50, 97
4, 17665, Note_on_c, 0, 62, 103
4, 17665, Note_on_c, 0, 65, 95
4, 17708, Note_on_c, 0, 65, 0
4, 17709, Note_on_c, 0, 62, 0
4, 17710, Note_on_c, 0, 69, 0
4, 17759, Note_on_c, 0, 65, 97
4, 17759, Note_on_c, 0, 69, 99
4, 17759, Note_on_c, 0, 62, 103
4, 17777, Note_on_c, 0, 62, 0
4, 17777, Note_on_c, 0, 65, 0
4, 17782, Note_on_c, 0, 69, 0
4, 17806, Note_on_c, 0, 50, 0
4, 17807, Note_on_c, 0, 67, 90
4, 17807, Note_on_c, 0, 71, 99
4, 17807, Note_on_c, 0, 62, 95
4, 17818, Note_on_c, 0, 62, 0
4, 17818, Note_on_c, 0, 71, 0
4, 17820, Note_on_c, 0, 67, 0
4, 17855, Note_on_c, 0, 69, 99
4, 17855, Note_on_c, 0, 65, 101
4, 17855, Note_on_c, 0, 62, 105
4, 17903, Note_on_c, 0, 50, 109
4, 17907, Note_on_c, 0, 62, 0
4, 17910, Note_on_c, 0, 69, 0
4, 17910, Note_on_c, 0, 65, 0
4, 17951, Note_on_c, 0, 67, 89
4, 17951, Note_on_c, 0, 71, 101
4, 17951, Note_on_c, 0, 62, 101
4, 17960, Note_on_c, 0, 62, 0
4, 17960, Note_on_c, 0, 67, 0
4, 17963, Note_on_c, 0, 71, 0
4, 17997, Note_on_c, 0, 50, 0
4, 17999, Note_on_c, 0, 65, 103
4, 17999, Note_on_c, 0, 69, 105
4, 17999, Note_on_c, 0, 62, 109
4, 18060, Note_on_c, 0, 62, 0
4, 18065, Note_on_c, 0, 69, 0
4, 18065, Note_on_c, 0, 65, 0
4, 18095, Note_on_c, 0, 71, 105
4, 18095, Note_on_c, 0, 67, 90
4, 18095, Note_on_c, 0, 62, 97
4, 18106, Note_on_c, 0, 67, 0
4, 18107, Note_on_c, 0, 62, 0
4, 18108, Note_on_c, 0, 71, 0
4, 18143, Note_on_c, 0, 62, 112
4, 18143, Note_on_c, 0, 69, 120
4, 18143, Note_on_c, 0, 65, 115
4, 18191, Note_on_c, 0, 50, 105
4, 18214, Note_on_c, 0, 62, 0
4, 18215, Note_on_c, 0, 65, 0
4, 18216, Note_on_c, 0, 69, 0
4, 18239, Note_on_c, 0, 65, 75
4, 18239, Note_on_c, 0, 62, 73
4, 18239, Note_on_c, 0, 69, 80
4, 18287, Note_on_c, 0, 50, 0
4, 18287, Note_on_c, 0, 57, 71
4, 18295, Note_on_c, 0, 57, 0
4, 18299, Note_on_c, 0, 62, 0
4, 18303, Note_on_c, 0, 65, 0
4, 18304, Note_on_c, 0, 69, 0
4, 18335, Note_on_c, 0, 62, 89
4, 18335, Note_on_c, 0, 65, 92
4, 18335, Note_on_c, 0, 69, 95
4, 18376, Note_on_c, 0, 65, 0
4, 18376, Note_on_c, 0, 62, 0
4, 18379, Note_on_c, 0, 69, 0
4, 18383, Note_on_c, 0, 43, 97
4, 18398, Note_on_c, 0, 43, 0
4, 18407, Note_on_c, 0, 44, 61
4, 18414, Note_on_c, 0, 44, 0
4, 18433, Note_on_c, 0, 45, 117
4, 18479, Note_on_c, 0, 64, 79
4, 18479, Note_on_c, 0, 61, 72
4, 18479, Note_on_c, 0, 57, 81
4, 18487, Note_on_c, 0, 57, 0
4, 18487, Note_on_c, 0, 61, 0
4, 18487, Note_on_c, 0, 64, 0
4, 18527, Note_on_c, 0, 61, 105
4, 18527, Note_on_c, 0, 64, 105
4, 18527, Note_on_c, 0, 57, 105
4, 18551, Note_on_c, 0, 57, 0
4, 18553, Note_on_c, 0, 61, 0
4, 18556, Note_on_c, 0, 64, 0
4, 18560, Note_on_c, 0, 45, 0
4, 18575, Note_on_c, 0, 52, 72
4, 18575, Note_on_c, 0, 65, 109
4, 18575, Note_on_c, 0, 57, 103
4, 18575, Note_on_c, 0, 62, 112
4, 18586, Note_on_c, 0, 52, 0
4, 18595, Note_on_c, 0, 57, 0
4, 18598, Note_on_c, 0, 65, 0
4, 18599, Note_on_c, 0, 62, 0
4, 18623, Note_on_c, 0, 57, 109
4, 18623, Note_on_c, 0, 64, 107
4, 18623, Note_on_c, 0, 61, 111
4, 18671, Note_on_c, 0, 45, 97
4, 18685, Note_on_c, 0, 61, 0
4, 18685, Note_on_c, 0, 57, 0
4, 18688, Note_on_c, 0, 64, 0
4, 18719, Note_on_c, 0, 62, 103
4, 18719, Note_on_c, 0, 57, 90
4, 18719, Note_on_c, 0, 65, 97
4, 18732, Note_on_c, 0, 57, 0
4, 18733, Note_on_c, 0, 65, 0
4, 18735, Note_on_c, 0, 62, 0
4, 18735, Note_on_c, 0, 45, 0
4, 18767, Note_on_c, 0, 61, 108
4, 18767, Note_on_c, 0, 57, 107
4, 18767, Note_on_c, 0, 64, 105
4, 18837, Note_on_c, 0, 57, 0
4, 18837, Note_on_c, 0, 61, 0
4, 18839, Note_on_c, 0, 64, 0
4, 18864, Note_on_c, 0, 65, 107
4, 18864, Note_on_c, 0, 62, 117
4, 18864, Note_on_c, 0, 57, 101
4, 18875, Note_on_c, 0, 57, 0
4, 18878, Note_on_c, 0, 62, 0
4, 18878, Note_on_c, 0, 65, 0
4, 18912, Note_on_c, 0, 57, 101
4, 18912, Note_on_c, 0, 64, 105
4, 18913, Note_on_c, 0, 61, 102
4, 18985, Note_on_c, 0, 57, 0
4, 18986, Note_on_c, 0, 61, 0
4, 18988, Note_on_c, 0, 64, 0
4, 19008, Note_on_c, 0, 61, 105
4, 19008, Note_on_c, 0, 64, 103
4, 19009, Note_on_c, 0, 57, 93
4, 19103, Note_on_c, 0, 45, 122
4, 19132, Note_on_c, 0, 57, 0
4, 19132, Note_on_c, 0, 61, 0
4, 19135, Note_on_c, 0, 64, 0
4, 19144, Note_on_c, 0, 45, 0
4, 19151, Note_on_c, 0, 44, 114
4, 19184, Note_on_c, 0, 44, 0
4, 19199, Note_on_c, 0, 43, 117
4, 19247, Note_on_c, 0, 62, 54
4, 19254, Note_on_c, 0, 62, 0
4, 19297, Note_on_c, 0, 58, 86
4, 19297, Note_on_c, 0, 55, 90
4, 19297, Note_on_c, 0, 62, 103
4, 19310, Note_on_c, 0, 58, 0
4, 19312, Note_on_c, 0, 55, 0
4, 19317, Note_on_c, 0, 62, 0
4, 19341, Note_on_c, 0, 43, 0
4, 19345, Note_on_c, 0, 64, 109
4, 19345, Note_on_c, 0, 55, 105
4, 19345, Note_on_c, 0, 60, 107
4, 19360, Note_on_c, 0, 55, 0
4, 19365, Note_on_c, 0, 64, 0
4, 19366, Note_on_c, 0, 60, 0
4, 19392, Note_on_c, 0, 62, 105
4, 19392, Note_on_c, 0, 55, 101
4, 19392, Note_on_c, 0, 58, 102
4, 19439, Note_on_c, 0, 43, 109
4, 19451, Note_on_c, 0, 55, 0
4, 19454, Note_on_c, 0, 58, 0
4, 19455, Note_on_c, 0, 62, 0
4, 19488, Note_on_c, 0, 43, 0
4, 19488, Note_on_c, 0, 55, 103
4, 19488, Note_on_c, 0, 60, 99
4, 19488, Note_on_c, 0, 64, 112
4, 19505, Note_on_c, 0, 60, 0
4, 19505, Note_on_c, 0, 55, 0
4, 19506, Note_on_c, 0, 64, 0
4, 19535, Note_on_c, 0, 58, 108
4, 19535, Note_on_c, 0, 62, 107
4, 19535, Note_on_c, 0, 55, 105
4, 19604, Note_on_c, 0, 55, 0
4, 19606, Note_on_c, 0, 62, 0
4, 19608, Note_on_c, 0, 58, 0
4, 19631, Note_on_c, 0, 60, 107
4, 19631, Note_on_c, 0, 64, 107
4, 19631, Note_on_c, 0, 55, 103
4, 19650, Note_on_c, 0, 64, 0
4, 19651, Note_on_c, 0, 55, 0
4, 19651, Note_on_c, 0, 60, 0
4, 19679, Note_on_c, 0, 62, 107
4, 19679, Note_on_c, 0, 58, 99
4, 19679, Note_on_c, 0, 55, 93
4, 19727, Note_on_c, 0, 43, 95
4, 19748, Note_on_c, 0, 58, 0
4, 19750, Note_on_c, 0, 55, 0
4, 19752, Note_on_c, 0, 62, 0
4, 19775, Note_on_c, 0, 62, 103
4, 19775, Note_on_c, 0, 58, 94
4, 19775, Note_on_c, 0, 55, 97
4, 19788, Note_on_c, 0, 43, 0
4, 19847, Note_on_c, 0, 55, 0
4, 19851, Note_on_c, 0, 58, 0
4, 19852, Note_on_c, 0, 62, 0
4, 19871, Note_on_c, 0, 55, 107
4, 19871, Note_on_c, 0, 62, 105
4, 19871, Note_on_c, 0, 58, 94
4, 19911, Note_on_c, 0, 58, 0
4, 19911, Note_on_c, 0, 55, 0
4, 19917, Note_on_c, 0, 62, 0
4, 19919, Note_on_c, 0, 45, 109
4, 19943, Note_on_c, 0, 48, 93
4, 19947, Note_on_c, 0, 45, 0
4, 19960, Note_on_c, 0, 48, 0
4, 19968, Note_on_c, 0, 50, 117
4, 20016, Note_on_c, 0, 65, 78
4, 20016, Note_on_c, 0, 62, 71
4, 20023, Note_on_c, 0, 65, 0
4, 20024, Note_on_c, 0, 62, 0
4, 20064, Note_on_c, 0, 62, 112
4, 20064, Note_on_c, 0, 69, 107
4, 20064, Note_on_c, 0, 65, 109
4, 20079, Note_on_c, 0, 62, 0
4, 20080, Note_on_c, 0, 65, 0
4, 20080, Note_on_c, 0, 69, 0
4, 20086, Note_on_c, 0, 50, 0
4, 20111, Note_on_c, 0, 71, 109
4, 20111, Note_on_c, 0, 67, 103
4, 20111, Note_on_c, 0, 62, 107
4, 20137, Note_on_c, 0, 62, 0
4, 20139, Note_on_c, 0, 71, 0
4, 20142, Note_on_c, 0, 67, 0
4, 20159, Note_on_c, 0, 62, 83
4, 20159, Note_on_c, 0, 65, 89
4, 20159, Note_on_c, 0, 69, 82
4, 20207, Note_on_c, 0, 50, 117
4, 20210, Note_on_c, 0, 62, 0
4, 20216, Note_on_c, 0, 65, 0
4, 20221, Note_on_c, 0, 69, 0
4, 20255, Note_on_c, 0, 57, 72
4, 20298, Note_on_c, 0, 57, 0
4, 20298, Note_on_c, 0, 68, 102
4, 20303, Note_on_c, 0, 72, 122
4, 20303, Note_on_c, 0, 60, 105
4, 20305, Note_on_c, 0, 69, 73
4, 20309, Note_on_c, 0, 68, 0
4, 20355, Note_on_c, 0, 69, 0
4, 20396, Note_on_c, 0, 50, 0
4, 20397, Note_on_c, 0, 60, 0
4, 20399, Note_on_c, 0, 68, 70
4, 20399, Note_on_c, 0, 57, 86
4, 20410, Note_on_c, 0, 57, 0
4, 20421, Note_on_c, 0, 72, 0
4, 20423, Note_on_c, 0, 69, 72
4, 20433, Note_on_c, 0, 69, 0
4, 20435, Note_on_c, 0, 67, 83
4, 20443, Note_on_c, 0, 67, 0
4, 20446, Note_on_c, 0, 68, 0
4, 20447, Note_on_c, 0, 65, 95
4, 20447, Note_on_c, 0, 72, 112
4, 20495, Note_on_c, 0, 50, 112
4, 20495, Note_on_c, 0, 62, 95
4, 20508, Note_on_c, 0, 62, 0
4, 20518, Note_on_c, 0, 65, 0
4, 20530, Note_on_c, 0, 72, 0
4, 20540, Note_on_c, 0, 83, 115
4, 20543, Note_on_c, 0, 83, 0
4, 20543, Note_on_c, 0, 84, 117
4, 20543, Note_on_c, 0, 57, 95
4, 20543, Note_on_c, 0, 80, 118
4, 20561, Note_on_c, 0, 80, 0
4, 20567, Note_on_c, 0, 81, 90
4, 20600, Note_on_c, 0, 81, 0
4, 20604, Note_on_c, 0, 81, 56
4, 20617, Note_on_c, 0, 80, 66
4, 20619, Note_on_c, 0, 81, 0
4, 20625, Note_on_c, 0, 84, 0
4, 20626, Note_on_c, 0, 57, 0
4, 20628, Note_on_c, 0, 79, 75
4, 20630, Note_on_c, 0, 80, 0
4, 20638, Note_on_c, 0, 79, 0
4, 20640, Note_on_c, 0, 84, 105
4, 20641, Note_on_c, 0, 77, 97
4, 20687, Note_on_c, 0, 74, 72
4, 20688, Note_on_c, 0, 50, 0
4, 20692, Note_on_c, 0, 77, 0
4, 20734, Note_on_c, 0, 74, 0
4, 20735, Note_on_c, 0, 84, 0
4, 20735, Note_on_c, 0, 50, 107
4, 20783, Note_on_c, 0, 65, 59
4, 20783, Note_on_c, 0, 62, 60
4, 20783, Note_on_c, 0, 69, 60
4, 20785, Note_on_c, 0, 57, 80
4, 20788, Note_on_c, 0, 69, 0
4, 20789, Note_on_c, 0, 62, 0
4, 20789, Note_on_c, 0, 65, 0
4, 20791, Note_on_c, 0, 50, 0
4, 20793, Note_on_c, 0, 57, 0
4, 20831, Note_on_c, 0, 62, 112
4, 20831, Note_on_c, 0, 69, 105
4, 20831, Note_on_c, 0, 65, 101
4, 20840, Note_on_c, 0, 65, 0
4, 20843, Note_on_c, 0, 69, 0
4, 20843, Note_on_c, 0, 62, 0
4, 20879, Note_on_c, 0, 62, 103
4, 20879, Note_on_c, 0, 71, 112
4, 20879, Note_on_c, 0, 67, 109
4, 20890, Note_on_c, 0, 62, 0
4, 20891, Note_on_c, 0, 67, 0
4, 20891, Note_on_c, 0, 71, 0
4, 20927, Note_on_c, 0, 62, 105
4, 20927, Note_on_c, 0, 69, 112
4, 20927, Note_on_c, 0, 65, 107
4, 20975, Note_on_c, 0, 50, 105
4, 20975, Note_on_c, 0, 57, 101
4, 20979, Note_on_c, 0, 69, 0
4, 20980, Note_on_c, 0, 62, 0
4, 20981, Note_on_c, 0, 65, 0
4, 21023, Note_on_c, 0, 71, 101
4, 21023, Note_on_c, 0, 62, 97
4, 21023, Note_on_c, 0, 67, 93
4, 21027, Note_on_c, 0, 57, 0
4, 21030, Note_on_c, 0, 71, 0
4, 21032, Note_on_c, 0, 67, 0
4, 21032, Note_on_c, 0, 62, 0
4, 21046, Note_on_c, 0, 50, 0
4, 21071, Note_on_c, 0, 62, 120
4, 21071, Note_on_c, 0, 65, 109
4, 21071, Note_on_c, 0, 69, 112
4, 21083, Note_on_c, 0, 62, 0
4, 21137, Note_on_c, 0, 69, 0
4, 21138, Note_on_c, 0, 65, 0
4, 21167, Note_on_c, 0, 62, 75
4, 21167, Note_on_c, 0, 71, 87
4, 21167, Note_on_c, 0, 67, 83
4, 21174, Note_on_c, 0, 71, 0
4, 21175, Note_on_c, 0, 62, 0
4, 21177, Note_on_c, 0, 67, 0
4, 21215, Note_on_c, 0, 62, 105
4, 21215, Note_on_c, 0, 65, 109
4, 21215, Note_on_c, 0, 69, 112
4, 21263, Note_on_c, 0, 50, 95
4, 21263, Note_on_c, 0, 57, 92
4, 21289, Note_on_c, 0, 62, 0
4, 21294, Note_on_c, 0, 65, 0
4, 21296, Note_on_c, 0, 69, 0
4, 21311, Note_on_c, 0, 62, 63
4, 21311, Note_on_c, 0, 65, 56
4, 21311, Note_on_c, 0, 69, 56
4, 21318, Note_on_c, 0, 57, 0
4, 21360, Note_on_c, 0, 62, 0
4, 21360, Note_on_c, 0, 57, 93
4, 21365, Note_on_c, 0, 65, 0
4, 21366, Note_on_c, 0, 69, 0
4, 21370, Note_on_c, 0, 50, 0
4, 21373, Note_on_c, 0, 57, 0
4, 21407, Note_on_c, 0, 69, 115
4, 21407, Note_on_c, 0, 62, 112
4, 21407, Note_on_c, 0, 65, 115
4, 21455, Note_on_c, 0, 50, 65
4, 21455, Note_on_c, 0, 57, 79
4, 21461, Note_on_c, 0, 57, 0
4, 21461, Note_on_c, 0, 50, 0
4, 21480, Note_on_c, 0, 69, 0
4, 21480, Note_on_c, 0, 62, 0
4, 21484, Note_on_c, 0, 65, 0
4, 21505, Note_on_c, 0, 45, 112
4, 21551, Note_on_c, 0, 61, 63
4, 21551, Note_on_c, 0, 64, 76
4, 21551, Note_on_c, 0, 57, 78
4, 21557, Note_on_c, 0, 61, 0
4, 21559, Note_on_c, 0, 64, 0
4, 21560, Note_on_c, 0, 57, 0
4, 21599, Note_on_c, 0, 64, 112
4, 21599, Note_on_c, 0, 57, 107
4, 21599, Note_on_c, 0, 61, 114
4, 21603, Note_on_c, 0, 45, 0
4, 21617, Note_on_c, 0, 61, 0
4, 21621, Note_on_c, 0, 57, 0
4, 21621, Note_on_c, 0, 64, 0
4, 21647, Note_on_c, 0, 65, 101
4, 21647, Note_on_c, 0, 57, 95
4, 21647, Note_on_c, 0, 62, 99
4, 21659, Note_on_c, 0, 57, 0
4, 21660, Note_on_c, 0, 62, 0
4, 21660, Note_on_c, 0, 65, 0
4, 21695, Note_on_c, 0, 57, 105
4, 21695, Note_on_c, 0, 61, 111
4, 21695, Note_on_c, 0, 64, 103
4, 21745, Note_on_c, 0, 45, 93
4, 21745, Note_on_c, 0, 52, 90
4, 21754, Note_on_c, 0, 52, 0
4, 21756, Note_on_c, 0, 57, 0
4, 21758, Note_on_c, 0, 45, 0
4, 21758, Note_on_c, 0, 64, 0
4, 21759, Note_on_c, 0, 61, 0
4, 21791, Note_on_c, 0, 57, 90
4, 21791, Note_on_c, 0, 62, 89
4, 21791, Note_on_c, 0, 65, 95
4, 21806, Note_on_c, 0, 57, 0
4, 21807, Note_on_c, 0, 62, 0
4, 21808, Note_on_c, 0, 65, 0
4, 21839, Note_on_c, 0, 61, 111
4, 21839, Note_on_c, 0, 57, 109
4, 21839, Note_on_c, 0, 64, 109
4, 21913, Note_on_c, 0, 57, 0
4, 21918, Note_on_c, 0, 61, 0
4, 21919, Note_on_c, 0, 64, 0
4, 21936, Note_on_c, 0, 62, 92
4, 21937, Note_on_c, 0, 65, 89
4, 21937, Note_on_c, 0, 57, 87
4, 21948, Note_on_c, 0, 57, 0
4, 21950, Note_on_c, 0, 65, 0
4, 21951, Note_on_c, 0, 62, 0
4, 21983, Note_on_c, 0, 64, 105
4, 21983, Note_on_c, 0, 57, 105
4, 21984, Note_on_c, 0, 61, 114
4, 22031, Note_on_c, 0, 45, 101
4, 22061, Note_on_c, 0, 57, 0
4, 22063, Note_on_c, 0, 64, 0
4, 22063, Note_on_c, 0, 61, 0
4, 22079, Note_on_c, 0, 57, 87
4, 22079, Note_on_c, 0, 61, 96
4, 22079, Note_on_c, 0, 64, 101
4, 22121, Note_on_c, 0, 45, 0
4, 22127, Note_on_c, 0, 52, 92
4, 22136, Note_on_c, 0, 52, 0
4, 22152, Note_on_c, 0, 57, 0
4, 22153, Note_on_c, 0, 61, 0
4, 22155, Note_on_c, 0, 64, 0
4, 22175, Note_on_c, 0, 64, 117
4, 22175, Note_on_c, 0, 57, 95
4, 22175, Note_on_c, 0, 61, 114
4, 22220, Note_on_c, 0, 61, 0
4, 22221, Note_on_c, 0, 57, 0
4, 22223, Note_on_c, 0, 44, 118
4, 22226, Note_on_c, 0, 64, 0
4, 22253, Note_on_c, 0, 44, 0
4, 22271, Note_on_c, 0, 43, 105
4, 22319, Note_on_c, 0, 55, 73
4, 22319, Note_on_c, 0, 62, 81
4, 22319, Note_on_c, 0, 58, 62
4, 22325, Note_on_c, 0, 58, 0
4, 22327, Note_on_c, 0, 55, 0
4, 22329, Note_on_c, 0, 62, 0
4, 22367, Note_on_c, 0, 58, 102
4, 22367, Note_on_c, 0, 62, 117
4, 22367, Note_on_c, 0, 55, 109
4, 22395, Note_on_c, 0, 58, 0
4, 22396, Note_on_c, 0, 55, 0
4, 22399, Note_on_c, 0, 62, 0
4, 22416, Note_on_c, 0, 60, 89
4, 22416, Note_on_c, 0, 55, 83
4, 22416, Note_on_c, 0, 64, 95
4, 22421, Note_on_c, 0, 43, 0
4, 22430, Note_on_c, 0, 55, 0
4, 22432, Note_on_c, 0, 60, 0
4, 22432, Note_on_c, 0, 64, 0
4, 22463, Note_on_c, 0, 58, 94
4, 22463, Note_on_c, 0, 55, 101
4, 22463, Note_on_c, 0, 62, 105
4, 22482, Note_on_c, 0, 58, 0
4, 22511, Note_on_c, 0, 43, 97
4, 22526, Note_on_c, 0, 43, 0
4, 22530, Note_on_c, 0, 55, 0
4, 22535, Note_on_c, 0, 62, 0
4, 22561, Note_on_c, 0, 64, 107
4, 22561, Note_on_c, 0, 55, 105
4, 22561, Note_on_c, 0, 60, 105
4, 22573, Note_on_c, 0, 55, 0
4, 22574, Note_on_c, 0, 64, 0
4, 22575, Note_on_c, 0, 60, 0
4, 22608, Note_on_c, 0, 58, 111
4, 22608, Note_on_c, 0, 55, 112
4, 22608, Note_on_c, 0, 62, 115
4, 22656, Note_on_c, 0, 43, 54
4, 22661, Note_on_c, 0, 43, 0
4, 22674, Note_on_c, 0, 55, 0
4, 22679, Note_on_c, 0, 58, 0
4, 22681, Note_on_c, 0, 62, 0
4, 22703, Note_on_c, 0, 60, 90
4, 22703, Note_on_c, 0, 64, 92
4, 22703, Note_on_c, 0, 55, 76
4, 22713, Note_on_c, 0, 55, 0
4, 22713, Note_on_c, 0, 64, 0
4, 22715, Note_on_c, 0, 60, 0
4, 22751, Note_on_c, 0, 62, 117
4, 22751, Note_on_c, 0, 55, 105
4, 22751, Note_on_c, 0, 58, 111
4, 22799, Note_on_c, 0, 43, 83
4, 22815, Note_on_c, 0, 55, 0
4, 22821, Note_on_c, 0, 58, 0
4, 22824, Note_on_c, 0, 62, 0
4, 22847, Note_on_c, 0, 58, 67
4, 22847, Note_on_c, 0, 55, 54
4, 22847, Note_on_c, 0, 62, 61
4, 22890, Note_on_c, 0, 43, 0
4, 22895, Note_on_c, 0, 50, 75
4, 22898, Note_on_c, 0, 55, 0
4, 22903, Note_on_c, 0, 58, 0
4, 22904, Note_on_c, 0, 62, 0
4, 22905, Note_on_c, 0, 50, 0
4, 22943, Note_on_c, 0, 58, 84
4, 22943, Note_on_c, 0, 62, 99
4, 22943, Note_on_c, 0, 55, 87
4, 22955, Note_on_c, 0, 55, 0
4, 22980, Note_on_c, 0, 58, 0
4, 22981, Note_on_c, 0, 62, 0
4, 22991, Note_on_c, 0, 62, 81
4, 22991, Note_on_c, 0, 58, 79
4, 23017, Note_on_c, 0, 58, 0
4, 23025, Note_on_c, 0, 62, 0
4, 23039, Note_on_c, 0, 50, 78
4, 23088, Note_on_c, 0, 69, 56
4, 23089, Note_on_c, 0, 65, 52
4, 23096, Note_on_c, 0, 65, 0
4, 23097, Note_on_c, 0, 69, 0
4, 23099, Note_on_c, 0, 50, 0
4, 23137, Note_on_c, 0, 65, 99
4, 23137, Note_on_c, 0, 69, 103
4, 23137, Note_on_c, 0, 62, 101
4, 23137, Note_on_c, 0, 50, 65
4, 23145, Note_on_c, 0, 50, 0
4, 23155, Note_on_c, 0, 62, 0
4, 23155, Note_on_c, 0, 65, 0
4, 23160, Note_on_c, 0, 69, 0
4, 23183, Note_on_c, 0, 53, 95
4, 23183, Note_on_c, 0, 67, 95
4, 23183, Note_on_c, 0, 71, 101
4, 23184, Note_on_c, 0, 62, 97
4, 23195, Note_on_c, 0, 53, 0
4, 23199, Note_on_c, 0, 62, 0
4, 23201, Note_on_c, 0, 71, 0
4, 23201, Note_on_c, 0, 67, 0
4, 23232, Note_on_c, 0, 69, 103
4, 23232, Note_on_c, 0, 65, 101
4, 23232, Note_on_c, 0, 62, 103
4, 23279, Note_on_c, 0, 50, 93
4, 23288, Note_on_c, 0, 62, 0
4, 23292, Note_on_c, 0, 50, 0
4, 23294, Note_on_c, 0, 69, 0
4, 23296, Note_on_c, 0, 65, 0
4, 23328, Note_on_c, 0, 71, 99
4, 23329, Note_on_c, 0, 67, 89
4, 23329, Note_on_c, 0, 62, 105
4, 23341, Note_on_c, 0, 62, 0
4, 23342, Note_on_c, 0, 71, 0
4, 23345, Note_on_c, 0, 67, 0
4, 23376, Note_on_c, 0, 65, 107
4, 23376, Note_on_c, 0, 69, 105
4, 23376, Note_on_c, 0, 62, 112
4, 23446, Note_on_c, 0, 62, 0
4, 23453, Note_on_c, 0, 65, 0
4, 23456, Note_on_c, 0, 69, 0
4, 23471, Note_on_c, 0, 71, 79
4, 23471, Note_on_c, 0, 57, 87
4, 23471, Note_on_c, 0, 67, 81
4, 23471, Note_on_c, 0, 62, 90
4, 23471, Note_on_c, 0, 50, 89
4, 23482, Note_on_c, 0, 67, 0
4, 23484, Note_on_c, 0, 62, 0
4, 23484, Note_on_c, 0, 71, 0
4, 23519, Note_on_c, 0, 62, 105
4, 23519, Note_on_c, 0, 65, 109
4, 23519, Note_on_c, 0, 69, 105
4, 23526, Note_on_c, 0, 57, 0
4, 23567, Note_on_c, 0, 57, 78
4, 23569, Note_on_c, 0, 50, 0
4, 23576, Note_on_c, 0, 57, 0
4, 23581, Note_on_c, 0, 62, 0
4, 23589, Note_on_c, 0, 69, 0
4, 23593, Note_on_c, 0, 65, 0
4, 23615, Note_on_c, 0, 62, 92
4, 23615, Note_on_c, 0, 67, 89
4, 23615, Note_on_c, 0, 71, 92
4, 23627, Note_on_c, 0, 71, 0
4, 23628, Note_on_c, 0, 67, 0
4, 23628, Note_on_c, 0, 62, 0
4, 23663, Note_on_c, 0, 62, 101
4, 23663, Note_on_c, 0, 65, 112
4, 23663, Note_on_c, 0, 69, 109
4, 23744, Note_on_c, 0, 62, 0
4, 23747, Note_on_c, 0, 69, 0
4, 23748, Note_on_c, 0, 65, 0
4, 23807, Note_on_c, 0, 55, 81
4, 23807, Note_on_c, 0, 62, 85
4, 23807, Note_on_c, 0, 65, 80
4, 23807, Note_on_c, 0, 50, 75
4, 23807, Note_on_c, 0, 58, 84
4, 23807, Note_on_c, 0, 43, 75
4, 23886, Note_on_c, 0, 58, 0
4, 23888, Note_on_c, 0, 65, 0
4, 23888, Note_on_c, 0, 55, 0
4, 23889, Note_on_c, 0, 62, 0
4, 23903, Note_on_c, 0, 58, 99
4, 23903, Note_on_c, 0, 62, 95
4, 23903, Note_on_c, 0, 55, 101
4, 23903, Note_on_c, 0, 65, 85
4, 23938, Note_on_c, 0, 50, 0
4, 23940, Note_on_c, 0, 55, 0
4, 23953, Note_on_c, 0, 55, 74
4, 23977, Note_on_c, 0, 58, 0
4, 23998, Note_on_c, 0, 65, 0
4, 23999, Note_on_c, 0, 58, 41
4, 23999, Note_on_c, 0, 50, 67
4, 24015, Note_on_c, 0, 55, 0
4, 24025, Note_on_c, 0, 58, 0
4, 24031, Note_on_c, 0, 62, 0
4, 24047, Note_on_c, 0, 58, 96
4, 24047, Note_on_c, 0, 65, 99
4, 24047, Note_on_c, 0, 62, 99
4, 24047, Note_on_c, 0, 55, 101
4, 24074, Note_on_c, 0, 55, 0
4, 24075, Note_on_c, 0, 50, 0
4, 24076, Note_on_c, 0, 43, 0
4, 24095, Note_on_c, 0, 43, 83
4, 24097, Note_on_c, 0, 55, 72
4, 24115, Note_on_c, 0, 58, 0
4, 24120, Note_on_c, 0, 55, 0
4, 24125, Note_on_c, 0, 62, 0
4, 24125, Note_on_c, 0, 65, 0
4, 24143, Note_on_c, 0, 55, 58
4, 24143, Note_on_c, 0, 62, 70
4, 24143, Note_on_c, 0, 58, 69
4, 24143, Note_on_c, 0, 65, 65
4, 24153, Note_on_c, 0, 43, 0
4, 24155, Note_on_c, 0, 55, 0
4, 24161, Note_on_c, 0, 58, 0
4, 24169, Note_on_c, 0, 65, 0
4, 24172, Note_on_c, 0, 62, 0
4, 24191, Note_on_c, 0, 62, 61
4, 24191, Note_on_c, 0, 57, 50
4, 24191, Note_on_c, 0, 50, 74
4, 24197, Note_on_c, 0, 57, 0
4, 24201, Note_on_c, 0, 62, 0
4, 24204, Note_on_c, 0, 50, 0
4, 24239, Note_on_c, 0, 65, 75
4, 24239, Note_on_c, 0, 50, 80
4, 24239, Note_on_c, 0, 69, 57
4, 24243, Note_on_c, 0, 69, 0
4, 24246, Note_on_c, 0, 65, 0
4, 24250, Note_on_c, 0, 50, 0
4, 24287, Note_on_c, 0, 50, 74
4, 24287, Note_on_c, 0, 69, 107
4, 24287, Note_on_c, 0, 62, 112
4, 24287, Note_on_c, 0, 65, 112
4, 24296, Note_on_c, 0, 50, 0
4, 24309, Note_on_c, 0, 62, 0
4, 24335, Note_on_c, 0, 62, 64
4, 24335, Note_on_c, 0, 50, 89
4, 24336, Note_on_c, 0, 69, 0
4, 24339, Note_on_c, 0, 65, 0
4, 24347, Note_on_c, 0, 62, 0
4, 24383, Note_on_c, 0, 65, 75
4, 24383, Note_on_c, 0, 57, 78
4, 24383, Note_on_c, 0, 62, 79
4, 24392, Note_on_c, 0, 57, 0
4, 24392, Note_on_c, 0, 65, 0
4, 24393, Note_on_c, 0, 50, 0
4, 24393, Note_on_c, 0, 62, 0
4, 24431, Note_on_c, 0, 65, 103
4, 24431, Note_on_c, 0, 62, 117
4, 24431, Note_on_c, 0, 57, 107
4, 24455, Note_on_c, 0, 57, 0
4, 24479, Note_on_c, 0, 50, 85
4, 24479, Note_on_c, 0, 57, 75
4, 24502, Note_on_c, 0, 62, 0
4, 24503, Note_on_c, 0, 57, 0
4, 24504, Note_on_c, 0, 65, 0
4, 24527, Note_on_c, 0, 57, 70
4, 24527, Note_on_c, 0, 62, 64
4, 24527, Note_on_c, 0, 65, 61
4, 24536, Note_on_c, 0, 50, 0
4, 24540, Note_on_c, 0, 62, 0
4, 24544, Note_on_c, 0, 57, 0
4, 24547, Note_on_c, 0, 65, 0
4, 24575, Note_on_c, 0, 46, 96
4, 24575, Note_on_c, 0, 62, 97
4, 24575, Note_on_c, 0, 58, 96
4, 24575, Note_on_c, 0, 57, 103
4, 24575, Note_on_c, 0, 65, 95
4, 24634, Note_on_c, 0, 57, 0
4, 24636, Note_on_c, 0, 65, 0
4, 24637, Note_on_c, 0, 62, 0
4, 24638, Note_on_c, 0, 58, 0
4, 24671, Note_on_c, 0, 62, 101
4, 24671, Note_on_c, 0, 57, 103
4, 24671, Note_on_c, 0, 58, 99
4, 24671, Note_on_c, 0, 65, 99
4, 24672, Note_on_c, 0, 46, 0
4, 24693, Note_on_c, 0, 57, 0
4, 24719, Note_on_c, 0, 46, 80
4, 24719, Note_on_c, 0, 57, 61
4, 24726, Note_on_c, 0, 58, 0
4, 24738, Note_on_c, 0, 65, 0
4, 24739, Note_on_c, 0, 62, 0
4, 24740, Note_on_c, 0, 57, 0
4, 24745, Note_on_c, 0, 58, 43
4, 24759, Note_on_c, 0, 58, 0
4, 24770, Note_on_c, 0, 46, 0
4, 24815, Note_on_c, 0, 46, 94
4, 24815, Note_on_c, 0, 58, 105
4, 24815, Note_on_c, 0, 65, 95
4, 24815, Note_on_c, 0, 62, 97
4, 24815, Note_on_c, 0, 57, 107
4, 24835, Note_on_c, 0, 57, 0
4, 24863, Note_on_c, 0, 57, 65
4, 24876, Note_on_c, 0, 58, 0
4, 24879, Note_on_c, 0, 46, 0
4, 24888, Note_on_c, 0, 62, 0
4, 24888, Note_on_c, 0, 57, 0
4, 24892, Note_on_c, 0, 65, 0
4, 24911, Note_on_c, 0, 62, 59
4, 24911, Note_on_c, 0, 65, 51
4, 24911, Note_on_c, 0, 46, 84
4, 24912, Note_on_c, 0, 58, 49
4, 24920, Note_on_c, 0, 58, 0
4, 24928, Note_on_c, 0, 46, 0
4, 24929, Note_on_c, 0, 65, 0
4, 24934, Note_on_c, 0, 62, 0
4, 24959, Note_on_c, 0, 57, 75
4, 24959, Note_on_c, 0, 62, 75
4, 24959, Note_on_c, 0, 65, 68
4, 24959, Note_on_c, 0, 50, 75
4, 24969, Note_on_c, 0, 65, 0
4, 24969, Note_on_c, 0, 57, 0
4, 24970, Note_on_c, 0, 62, 0
4, 24975, Note_on_c, 0, 50, 0
4, 25007, Note_on_c, 0, 57, 80
4, 25007, Note_on_c, 0, 62, 79
4, 25007, Note_on_c, 0, 65, 75
4, 25007, Note_on_c, 0, 50, 97
4, 25014, Note_on_c, 0, 65, 0
4, 25015, Note_on_c, 0, 57, 0
4, 25015, Note_on_c, 0, 62, 0
4, 25055, Note_on_c, 0, 57, 112
4, 25055, Note_on_c, 0, 62, 115
4, 25055, Note_on_c, 0, 65, 109
4, 25071, Note_on_c, 0, 50, 0
4, 25079, Note_on_c, 0, 57, 0
4, 25103, Note_on_c, 0, 50, 95
4, 25103, Note_on_c, 0, 57, 82
4, 25119, Note_on_c, 0, 62, 0
4, 25124, Note_on_c, 0, 65, 0
4, 25126, Note_on_c, 0, 57, 0
4, 25151, Note_on_c, 0, 65, 82
4, 25151, Note_on_c, 0, 62, 89
4, 25151, Note_on_c, 0, 57, 89
4, 25163, Note_on_c, 0, 62, 0
4, 25164, Note_on_c, 0, 57, 0
4, 25165, Note_on_c, 0, 65, 0
4, 25165, Note_on_c, 0, 50, 0
4, 25199, Note_on_c, 0, 50, 99
4, 25199, Note_on_c, 0, 62, 115
4, 25199, Note_on_c, 0, 57, 115
4, 25199, Note_on_c, 0, 65, 101
4, 25223, Note_on_c, 0, 57, 0
4, 25247, Note_on_c, 0, 57, 83
4, 25267, Note_on_c, 0, 50, 0
4, 25274, Note_on_c, 0, 57, 0
4, 25295, Note_on_c, 0, 57, 50
4, 25295, Note_on_c, 0, 50, 86
4, 25313, Note_on_c, 0, 57, 0
4, 25318, Note_on_c, 0, 62, 0
4, 25323, Note_on_c, 0, 65, 0
4, 25340, Note_on_c, 0, 50, 0
4, 25343, Note_on_c, 0, 43, 86
4, 25343, Note_on_c, 0, 62, 86
4, 25343, Note_on_c, 0, 55, 103
4, 25343, Note_on_c, 0, 58, 84
4, 25343, Note_on_c, 0, 65, 68
4, 25387, Note_on_c, 0, 55, 0
4, 25391, Note_on_c, 0, 50, 81
4, 25392, Note_on_c, 0, 65, 0
4, 25393, Note_on_c, 0, 58, 0
4, 25394, Note_on_c, 0, 62, 0
4, 25439, Note_on_c, 0, 55, 109
4, 25439, Note_on_c, 0, 58, 94
4, 25439, Note_on_c, 0, 62, 95
4, 25439, Note_on_c, 0, 65, 95
4, 25449, Note_on_c, 0, 55, 0
4, 25450, Note_on_c, 0, 50, 0
4, 25455, Note_on_c, 0, 43, 0
4, 25487, Note_on_c, 0, 50, 74
4, 25489, Note_on_c, 0, 55, 63
4, 25505, Note_on_c, 0, 58, 0
4, 25508, Note_on_c, 0, 55, 0
4, 25510, Note_on_c, 0, 50, 0
4, 25510, Note_on_c, 0, 65, 0
4, 25513, Note_on_c, 0, 62, 0
4, 25535, Note_on_c, 0, 58, 38
4, 25536, Note_on_c, 0, 62, 57
4, 25536, Note_on_c, 0, 65, 44
4, 25544, Note_on_c, 0, 65, 0
4, 25544, Note_on_c, 0, 62, 0
4, 25545, Note_on_c, 0, 58, 0
4, 25583, Note_on_c, 0, 62, 97
4, 25583, Note_on_c, 0, 55, 120
4, 25583, Note_on_c, 0, 58, 99
4, 25583, Note_on_c, 0, 65, 97
4, 25583, Note_on_c, 0, 43, 87
4, 25609, Note_on_c, 0, 55, 0
4, 25633, Note_on_c, 0, 55, 67
4, 25655, Note_on_c, 0, 55, 0
4, 25659, Note_on_c, 0, 58, 0
4, 25662, Note_on_c, 0, 62, 0
4, 25663, Note_on_c, 0, 65, 0
4, 25672, Note_on_c, 0, 43, 0
4, 25679, Note_on_c, 0, 58, 59
4, 25679, Note_on_c, 0, 62, 50
4, 25679, Note_on_c, 0, 55, 42
4, 25679, Note_on_c, 0, 50, 69
4, 25679, Note_on_c, 0, 65, 43
4, 25687, Note_on_c, 0, 55, 0
4, 25696, Note_on_c, 0, 65, 0
4, 25699, Note_on_c, 0, 58, 0
4, 25713, Note_on_c, 0, 62, 0
4, 25723, Note_on_c, 0, 50, 0
4, 25727, Note_on_c, 0, 57, 29
4, 25727, Note_on_c, 0, 62, 55
4, 25736, Note_on_c, 0, 57, 0
4, 25739, Note_on_c, 0, 62, 0
4, 25775, Note_on_c, 0, 62, 85
4, 25775, Note_on_c, 0, 50, 81
4, 25775, Note_on_c, 0, 57, 90
4, 25775, Note_on_c, 0, 65, 79
4, 25784, Note_on_c, 0, 65, 0
4, 25784, Note_on_c, 0, 57, 0
4, 25785, Note_on_c, 0, 62, 0
4, 25789, Note_on_c, 0, 50, 0
4, 25823, Note_on_c, 0, 62, 117
4, 25823, Note_on_c, 0, 50, 93
4, 25823, Note_on_c, 0, 57, 112
4, 25823, Note_on_c, 0, 65, 103
4, 25836, Note_on_c, 0, 57, 0
4, 25871, Note_on_c, 0, 57, 71
4, 25884, Note_on_c, 0, 62, 0
4, 25895, Note_on_c, 0, 57, 0
4, 25898, Note_on_c, 0, 65, 0
4, 25920, Note_on_c, 0, 62, 63
4, 25921, Note_on_c, 0, 65, 59
4, 25921, Note_on_c, 0, 57, 49
4, 25929, Note_on_c, 0, 65, 0
4, 25930, Note_on_c, 0, 57, 0
4, 25932, Note_on_c, 0, 62, 0
4, 25932, Note_on_c, 0, 50, 0
4, 25967, Note_on_c, 0, 50, 105
4, 25967, Note_on_c, 0, 57, 109
4, 25967, Note_on_c, 0, 62, 103
4, 25967, Note_on_c, 0, 65, 101
4, 25990, Note_on_c, 0, 57, 0
4, 26016, Note_on_c, 0, 57, 80
4, 26028, Note_on_c, 0, 50, 0
4, 26033, Note_on_c, 0, 62, 0
4, 26035, Note_on_c, 0, 57, 0
4, 26036, Note_on_c, 0, 65, 0
4, 26063, Note_on_c, 0, 50, 79
4, 26063, Note_on_c, 0, 65, 59
4, 26063, Note_on_c, 0, 57, 65
4, 26063, Note_on_c, 0, 62, 67
4, 26076, Note_on_c, 0, 62, 0
4, 26078, Note_on_c, 0, 65, 0
4, 26080, Note_on_c, 0, 57, 0
4, 26091, Note_on_c, 0, 50, 0
4, 26111, Note_on_c, 0, 62, 90
4, 26111, Note_on_c, 0, 58, 84
4, 26111, Note_on_c, 0, 65, 85
4, 26112, Note_on_c, 0, 57, 82
4, 26112, Note_on_c, 0, 46, 94
4, 26149, Note_on_c, 0, 46, 0
4, 26159, Note_on_c, 0, 46, 45
4, 26170, Note_on_c, 0, 65, 0
4, 26170, Note_on_c, 0, 57, 0
4, 26173, Note_on_c, 0, 62, 0
4, 26173, Note_on_c, 0, 58, 0
4, 26207, Note_on_c, 0, 62, 101
4, 26207, Note_on_c, 0, 57, 105
4, 26207, Note_on_c, 0, 58, 96
4, 26207, Note_on_c, 0, 65, 97
4, 26220, Note_on_c, 0, 46, 0
4, 26230, Note_on_c, 0, 57, 0
4, 26249, Note_on_c, 0, 58, 0
4, 26255, Note_on_c, 0, 46, 88
4, 26256, Note_on_c, 0, 57, 62
4, 26273, Note_on_c, 0, 65, 0
4, 26273, Note_on_c, 0, 62, 0
4, 26278, Note_on_c, 0, 57, 0
4, 26303, Note_on_c, 0, 58, 34
4, 26303, Note_on_c, 0, 62, 48
4, 26308, Note_on_c, 0, 58, 0
4, 26309, Note_on_c, 0, 46, 0
4, 26312, Note_on_c, 0, 62, 0
4, 26351, Note_on_c, 0, 65, 92
4, 26351, Note_on_c, 0, 57, 92
4, 26351, Note_on_c, 0, 58, 94
4, 26351, Note_on_c, 0, 62, 90
4, 26351, Note_on_c, 0, 46, 99
4, 26371, Note_on_c, 0, 57, 0
4, 26414, Note_on_c, 0, 46, 0
4, 26447, Note_on_c, 0, 46, 61
4, 26449, Note_on_c, 0, 57, 55
4, 26461, Note_on_c, 0, 58, 0
4, 26463, Note_on_c, 0, 57, 0
4, 26465, Note_on_c, 0, 62, 0
4, 26465, Note_on_c, 0, 65, 0
4, 26467, Note_on_c, 0, 46, 0
4, 26495, Note_on_c, 0, 45, 73
4, 26495, Note_on_c, 0, 61, 60
4, 26502, Note_on_c, 0, 61, 0
4, 26505, Note_on_c, 0, 45, 0
4, 26543, Note_on_c, 0, 61, 72
4, 26543, Note_on_c, 0, 64, 90
4, 26543, Note_on_c, 0, 57, 69
4, 26543, Note_on_c, 0, 45, 105
4, 26548, Note_on_c, 0, 61, 0
4, 26550, Note_on_c, 0, 57, 0
4, 26554, Note_on_c, 0, 64, 0
4, 26563, Note_on_c, 0, 45, 0
4, 26569, Note_on_c, 0, 45, 41
4, 26582, Note_on_c, 0, 45, 0
4, 26591, Note_on_c, 0, 65, 99
4, 26591, Note_on_c, 0, 62, 103
4, 26591, Note_on_c, 0, 57, 99
4, 26622, Note_on_c, 0, 57, 0
4, 26626, Note_on_c, 0, 65, 0
4, 26629, Note_on_c, 0, 62, 0
4, 26639, Note_on_c, 0, 61, 114
4, 26639, Note_on_c, 0, 64, 105
4, 26639, Note_on_c, 0, 45, 107
4, 26639, Note_on_c, 0, 57, 103
4, 26712, Note_on_c, 0, 45, 0
4, 26736, Note_on_c, 0, 45, 92
4, 26754, Note_on_c, 0, 57, 0
4, 26754, Note_on_c, 0, 64, 0
4, 26756, Note_on_c, 0, 61, 0
4, 26783, Note_on_c, 0, 57, 68
4, 26783, Note_on_c, 0, 61, 68
4, 26783, Note_on_c, 0, 64, 75
4, 26796, Note_on_c, 0, 57, 0
4, 26811, Note_on_c, 0, 61, 0
4, 26820, Note_on_c, 0, 64, 0
4, 26828, Note_on_c, 0, 45, 0
4, 26831, Note_on_c, 0, 50, 52
4, 26842, Note_on_c, 0, 50, 0
4, 26879, Note_on_c, 0, 62, 62
4, 26879, Note_on_c, 0, 69, 61
4, 26879, Note_on_c, 0, 65, 50
4, 26885, Note_on_c, 0, 65, 0
4, 26888, Note_on_c, 0, 69, 0
4, 26889, Note_on_c, 0, 62, 0
4, 26927, Note_on_c, 0, 50, 101
4, 26975, Note_on_c, 0, 69, 79
4, 26975, Note_on_c, 0, 65, 75
4, 26975, Note_on_c, 0, 62, 78
4, 26983, Note_on_c, 0, 65, 0
4, 26984, Note_on_c, 0, 62, 0
4, 26984, Note_on_c, 0, 69, 0
4, 27018, Note_on_c, 0, 50, 0
4, 27023, Note_on_c, 0, 57, 73
4, 27023, Note_on_c, 0, 67, 103
4, 27023, Note_on_c, 0, 71, 109
4, 27023, Note_on_c, 0, 62, 99
4, 27031, Note_on_c, 0, 62, 0
4, 27031, Note_on_c, 0, 57, 0
4, 27034, Note_on_c, 0, 67, 0
4, 27036, Note_on_c, 0, 71, 0
4, 27071, Note_on_c, 0, 62, 109
4, 27071, Note_on_c, 0, 65, 105
4, 27071, Note_on_c, 0, 69, 105
4, 27119, Note_on_c, 0, 50, 97
4, 27119, Note_on_c, 0, 57, 90
4, 27126, Note_on_c, 0, 62, 0
4, 27132, Note_on_c, 0, 65, 0
4, 27132, Note_on_c, 0, 69, 0
4, 27168, Note_on_c, 0, 57, 0
4, 27168, Note_on_c, 0, 62, 105
4, 27168, Note_on_c, 0, 67, 92
4, 27168, Note_on_c, 0, 71, 103
4, 27178, Note_on_c, 0, 62, 0
4, 27179, Note_on_c, 0, 71, 0
4, 27179, Note_on_c, 0, 67, 0
4, 27204, Note_on_c, 0, 50, 0
4, 27216, Note_on_c, 0, 65, 103
4, 27216, Note_on_c, 0, 62, 112
4, 27216, Note_on_c, 0, 69, 107
4, 27263, Note_on_c, 0, 50, 90
4, 27281, Note_on_c, 0, 62, 0
4, 27292, Note_on_c, 0, 69, 0
4, 27293, Note_on_c, 0, 65, 0
4, 27312, Note_on_c, 0, 67, 92
4, 27313, Note_on_c, 0, 62, 79
4, 27313, Note_on_c, 0, 71, 95
4, 27323, Note_on_c, 0, 62, 0
4, 27323, Note_on_c, 0, 67, 0
4, 27325, Note_on_c, 0, 71, 0
4, 27356, Note_on_c, 0, 50, 0
4, 27359, Note_on_c, 0, 62, 97
4, 27359, Note_on_c, 0, 65, 92
4, 27360, Note_on_c, 0, 69, 85
4, 27361, Note_on_c, 0, 71, 71
4, 27365, Note_on_c, 0, 71, 0
4, 27407, Note_on_c, 0, 57, 79
4, 27407, Note_on_c, 0, 50, 85
4, 27421, Note_on_c, 0, 62, 0
4, 27431, Note_on_c, 0, 65, 0
4, 27432, Note_on_c, 0, 69, 0
4, 27457, Note_on_c, 0, 65, 66
4, 27457, Note_on_c, 0, 69, 65
4, 27457, Note_on_c, 0, 62, 64
4, 27461, Note_on_c, 0, 57, 0
4, 27501, Note_on_c, 0, 62, 0
4, 27503, Note_on_c, 0, 50, 0
4, 27503, Note_on_c, 0, 57, 99
4, 27507, Note_on_c, 0, 69, 0
4, 27509, Note_on_c, 0, 65, 0
4, 27551, Note_on_c, 0, 62, 105
4, 27551, Note_on_c, 0, 65, 109
4, 27551, Note_on_c, 0, 69, 112
4, 27573, Note_on_c, 0, 62, 0
4, 27599, Note_on_c, 0, 50, 87
4, 27599, Note_on_c, 0, 62, 79
4, 27602, Note_on_c, 0, 57, 0
4, 27608, Note_on_c, 0, 65, 0
4, 27610, Note_on_c, 0, 69, 0
4, 27614, Note_on_c, 0, 62, 0
4, 27615, Note_on_c, 0, 50, 0
4, 27647, Note_on_c, 0, 61, 73
4, 27647, Note_on_c, 0, 64, 75
4, 27647, Note_on_c, 0, 57, 80
4, 27648, Note_on_c, 0, 45, 61
4, 27656, Note_on_c, 0, 45, 0
4, 27662, Note_on_c, 0, 61, 0
4, 27667, Note_on_c, 0, 57, 0
4, 27673, Note_on_c, 0, 64, 0
4, 27695, Note_on_c, 0, 45, 97
4, 27743, Note_on_c, 0, 61, 108
4, 27743, Note_on_c, 0, 64, 101
4, 27743, Note_on_c, 0, 57, 97
4, 27750, Note_on_c, 0, 45, 0
4, 27753, Note_on_c, 0, 61, 0
4, 27757, Note_on_c, 0, 57, 0
4, 27759, Note_on_c, 0, 64, 0
4, 27791, Note_on_c, 0, 57, 99
4, 27791, Note_on_c, 0, 62, 117
4, 27791, Note_on_c, 0, 52, 63
4, 27791, Note_on_c, 0, 65, 109
4, 27799, Note_on_c, 0, 52, 0
4, 27816, Note_on_c, 0, 57, 0
4, 27818, Note_on_c, 0, 65, 0
4, 27820, Note_on_c, 0, 62, 0
4, 27839, Note_on_c, 0, 57, 99
4, 27839, Note_on_c, 0, 64, 101
4, 27839, Note_on_c, 0, 61, 105
4, 27887, Note_on_c, 0, 45, 95
4, 27901, Note_on_c, 0, 57, 0
4, 27902, Note_on_c, 0, 61, 0
4, 27906, Note_on_c, 0, 64, 0
4, 27930, Note_on_c, 0, 45, 0
4, 27935, Note_on_c, 0, 62, 97
4, 27935, Note_on_c, 0, 65, 93
4, 27935, Note_on_c, 0, 57, 87
4, 27946, Note_on_c, 0, 57, 0
4, 27947, Note_on_c, 0, 65, 0
4, 27947, Note_on_c, 0, 62, 0
4, 27983, Note_on_c, 0, 61, 108
4, 27983, Note_on_c, 0, 64, 103
4, 27983, Note_on_c, 0, 57, 93
4, 28031, Note_on_c, 0, 45, 56
4, 28036, Note_on_c, 0, 45, 0
4, 28047, Note_on_c, 0, 57, 0
4, 28049, Note_on_c, 0, 61, 0
4, 28051, Note_on_c, 0, 64, 0
4, 28079, Note_on_c, 0, 57, 86
4, 28079, Note_on_c, 0, 65, 95
4, 28079, Note_on_c, 0, 62, 93
4, 28088, Note_on_c, 0, 57, 0
4, 28089, Note_on_c, 0, 62, 0
4, 28090, Note_on_c, 0, 65, 0
4, 28127, Note_on_c, 0, 57, 87
4, 28127, Note_on_c, 0, 61, 102
4, 28127, Note_on_c, 0, 64, 95
4, 28175, Note_on_c, 0, 45, 90
4, 28191, Note_on_c, 0, 57, 0
4, 28197, Note_on_c, 0, 61, 0
4, 28197, Note_on_c, 0, 64, 0
4, 28223, Note_on_c, 0, 57, 99
4, 28223, Note_on_c, 0, 64, 93
4, 28223, Note_on_c, 0, 61, 108
4, 28267, Note_on_c, 0, 45, 0
4, 28268, Note_on_c, 0, 52, 64
4, 28275, Note_on_c, 0, 52, 0
4, 28291, Note_on_c, 0, 57, 0
4, 28294, Note_on_c, 0, 61, 0
4, 28298, Note_on_c, 0, 64, 0
4, 28313, Note_on_c, 0, 61, 79
4, 28314, Note_on_c, 0, 64, 87
4, 28314, Note_on_c, 0, 57, 75
4, 28337, Note_on_c, 0, 57, 0
4, 28338, Note_on_c, 0, 61, 0
4, 28345, Note_on_c, 0, 64, 0
4, 28362, Note_on_c, 0, 44, 111
4, 28381, Note_on_c, 0, 44, 0
4, 28415, Note_on_c, 0, 43, 101
4, 28462, Note_on_c, 0, 55, 65
4, 28462, Note_on_c, 0, 62, 76
4, 28462, Note_on_c, 0, 58, 59
4, 28467, Note_on_c, 0, 58, 0
4, 28469, Note_on_c, 0, 55, 0
4, 28470, Note_on_c, 0, 62, 0
4, 28508, Note_on_c, 0, 62, 101
4, 28508, Note_on_c, 0, 58, 94
4, 28509, Note_on_c, 0, 55, 103
4, 28511, Note_on_c, 0, 43, 0
4, 28519, Note_on_c, 0, 58, 0
4, 28521, Note_on_c, 0, 55, 0
4, 28523, Note_on_c, 0, 62, 0
4, 28552, Note_on_c, 0, 50, 95
4, 28553, Note_on_c, 0, 55, 101
4, 28553, Note_on_c, 0, 60, 97
4, 28553, Note_on_c, 0, 64, 105
4, 28563, Note_on_c, 0, 50, 0
4, 28565, Note_on_c, 0, 55, 0
4, 28567, Note_on_c, 0, 60, 0
4, 28570, Note_on_c, 0, 64, 0
4, 28604, Note_on_c, 0, 58, 96
4, 28605, Note_on_c, 0, 55, 103
4, 28605, Note_on_c, 0, 62, 101
4, 28651, Note_on_c, 0, 43, 97
4, 28660, Note_on_c, 0, 55, 0
4, 28662, Note_on_c, 0, 58, 0
4, 28662, Note_on_c, 0, 62, 0
4, 28698, Note_on_c, 0, 60, 86
4, 28698, Note_on_c, 0, 64, 99
4, 28699, Note_on_c, 0, 55, 97
4, 28701, Note_on_c, 0, 43, 0
4, 28710, Note_on_c, 0, 55, 0
4, 28712, Note_on_c, 0, 60, 0
4, 28715, Note_on_c, 0, 64, 0
4, 28744, Note_on_c, 0, 43, 85
4, 28747, Note_on_c, 0, 55, 97
4, 28747, Note_on_c, 0, 62, 99
4, 28747, Note_on_c, 0, 58, 94
4, 28816, Note_on_c, 0, 55, 0
4, 28816, Note_on_c, 0, 43, 0
4, 28819, Note_on_c, 0, 58, 0
4, 28820, Note_on_c, 0, 62, 0
4, 28841, Note_on_c, 0, 43, 76
4, 28845, Note_on_c, 0, 64, 101
4, 28845, Note_on_c, 0, 60, 95
4, 28846, Note_on_c, 0, 55, 90
4, 28855, Note_on_c, 0, 60, 0
4, 28855, Note_on_c, 0, 43, 0
4, 28856, Note_on_c, 0, 55, 0
4, 28857, Note_on_c, 0, 64, 0
4, 28894, Note_on_c, 0, 55, 92
4, 28894, Note_on_c, 0, 58, 99
4, 28894, Note_on_c, 0, 62, 103
4, 28939, Note_on_c, 0, 43, 97
4, 28963, Note_on_c, 0, 55, 0
4, 28966, Note_on_c, 0, 58, 0
4, 28968, Note_on_c, 0, 62, 0
4, 28990, Note_on_c, 0, 62, 78
4, 28990, Note_on_c, 0, 55, 71
4, 28990, Note_on_c, 0, 58, 62
4, 29007, Note_on_c, 0, 43, 0
4, 29036, Note_on_c, 0, 43, 90
4, 29048, Note_on_c, 0, 55, 0
4, 29052, Note_on_c, 0, 62, 0
4, 29055, Note_on_c, 0, 58, 0
4, 29082, Note_on_c, 0, 62, 99
4, 29083, Note_on_c, 0, 55, 92
4, 29083, Note_on_c, 0, 58, 92
4, 29112, Note_on_c, 0, 43, 0
4, 29120, Note_on_c, 0, 58, 0
4, 29120, Note_on_c, 0, 55, 0
4, 29123, Note_on_c, 0, 62, 0
4, 29132, Note_on_c, 0, 62, 81
4, 29133, Note_on_c, 0, 55, 51
4, 29133, Note_on_c, 0, 58, 68
4, 29163, Note_on_c, 0, 55, 0
4, 29169, Note_on_c, 0, 58, 0
4, 29177, Note_on_c, 0, 62, 0
4, 29183, Note_on_c, 0, 50, 97
4, 29224, Note_on_c, 0, 69, 47
4, 29225, Note_on_c, 0, 65, 37
4, 29232, Note_on_c, 0, 65, 0
4, 29232, Note_on_c, 0, 50, 0
4, 29233, Note_on_c, 0, 69, 0
4, 29235, Note_on_c, 0, 57, 61
4, 29249, Note_on_c, 0, 57, 0
4, 29280, Note_on_c, 0, 69, 99
4, 29280, Note_on_c, 0, 62, 97
4, 29280, Note_on_c, 0, 65, 99
4, 29292, Note_on_c, 0, 65, 0
4, 29293, Note_on_c, 0, 62, 0
4, 29294, Note_on_c, 0, 69, 0
4, 29326, Note_on_c, 0, 67, 109
4, 29326, Note_on_c, 0, 71, 112
4, 29327, Note_on_c, 0, 62, 105
4, 29351, Note_on_c, 0, 62, 0
4, 29354, Note_on_c, 0, 71, 0
4, 29358, Note_on_c, 0, 67, 0
4, 29376, Note_on_c, 0, 69, 70
4, 29376, Note_on_c, 0, 62, 68
4, 29376, Note_on_c, 0, 65, 74
4, 29421, Note_on_c, 0, 50, 89
4, 29421, Note_on_c, 0, 57, 92
4, 29425, Note_on_c, 0, 62, 0
4, 29435, Note_on_c, 0, 69, 0
4, 29435, Note_on_c, 0, 65, 0
4, 29468, Note_on_c, 0, 71, 99
4, 29468, Note_on_c, 0, 67, 93
4, 29469, Note_on_c, 0, 62, 97
4, 29477, Note_on_c, 0, 57, 0
4, 29494, Note_on_c, 0, 62, 0
4, 29507, Note_on_c, 0, 71, 0
4, 29508, Note_on_c, 0, 67, 0
4, 29517, Note_on_c, 0, 50, 0
4, 29519, Note_on_c, 0, 69, 86
4, 29519, Note_on_c, 0, 57, 70
4, 29520, Note_on_c, 0, 62, 97
4, 29521, Note_on_c, 0, 65, 95
4, 29531, Note_on_c, 0, 57, 0
4, 29545, Note_on_c, 0, 62, 0
4, 29556, Note_on_c, 0, 65, 0
4, 29563, Note_on_c, 0, 69, 0
4, 29568, Note_on_c, 0, 57, 68
4, 29569, Note_on_c, 0, 50, 95
4, 29573, Note_on_c, 0, 57, 0
4, 29579, Note_on_c, 0, 50, 0
4, 29614, Note_on_c, 0, 80, 122
4, 29615, Note_on_c, 0, 84, 122
4, 29616, Note_on_c, 0, 57, 103
4, 29616, Note_on_c, 0, 50, 76
4, 29617, Note_on_c, 0, 81, 99
4, 29620, Note_on_c, 0, 80, 0
4, 29693, Note_on_c, 0, 81, 0
4, 29701, Note_on_c, 0, 60, 69
4, 29703, Note_on_c, 0, 50, 0
4, 29703, Note_on_c, 0, 57, 0
4, 29711, Note_on_c, 0, 60, 0
4, 29713, Note_on_c, 0, 83, 39
4, 29720, Note_on_c, 0, 81, 51
4, 29731, Note_on_c, 0, 80, 62
4, 29732, Note_on_c, 0, 83, 0
4, 29738, Note_on_c, 0, 84, 0
4, 29740, Note_on_c, 0, 81, 0
4, 29740, Note_on_c, 0, 79, 75
4, 29743, Note_on_c, 0, 80, 0
4, 29751, Note_on_c, 0, 79, 0
4, 29759, Note_on_c, 0, 84, 105
4, 29759, Note_on_c, 0, 77, 103
4, 29799, Note_on_c, 0, 84, 0
4, 29807, Note_on_c, 0, 57, 69
4, 29807, Note_on_c, 0, 74, 109
4, 29807, Note_on_c, 0, 50, 105
4, 29810, Note_on_c, 0, 77, 0
4, 29814, Note_on_c, 0, 57, 0
4, 29837, Note_on_c, 0, 74, 0
4, 29855, Note_on_c, 0, 77, 117
4, 29855, Note_on_c, 0, 72, 101
4, 29895, Note_on_c, 0, 50, 0
4, 29899, Note_on_c, 0, 72, 0
4, 29903, Note_on_c, 0, 69, 82
4, 29903, Note_on_c, 0, 74, 79
4, 29904, Note_on_c, 0, 77, 0
4, 29940, Note_on_c, 0, 74, 0
4, 29948, Note_on_c, 0, 69, 0
4, 29951, Note_on_c, 0, 50, 97
4, 29997, Note_on_c, 0, 50, 0
4, 29999, Note_on_c, 0, 69, 75
4, 30000, Note_on_c, 0, 65, 64
4, 30001, Note_on_c, 0, 62, 47
4, 30001, Note_on_c, 0, 57, 57
4, 30005, Note_on_c, 0, 62, 0
4, 30005, Note_on_c, 0, 65, 0
4, 30006, Note_on_c, 0, 69, 0
4, 30008, Note_on_c, 0, 57, 0
4, 30047, Note_on_c, 0, 69, 103
4, 30047, Note_on_c, 0, 65, 101
4, 30047, Note_on_c, 0, 62, 107
4, 30057, Note_on_c, 0, 69, 0
4, 30058, Note_on_c, 0, 65, 0
4, 30059, Note_on_c, 0, 62, 0
4, 30095, Note_on_c, 0, 67, 101
4, 30095, Note_on_c, 0, 62, 103
4, 30095, Note_on_c, 0, 71, 109
4, 30095, Note_on_c, 0, 50, 83
4, 30104, Note_on_c, 0, 50, 0
4, 30112, Note_on_c, 0, 62, 0
4, 30116, Note_on_c, 0, 71, 0
4, 30116, Note_on_c, 0, 67, 0
4, 30143, Note_on_c, 0, 69, 103
4, 30143, Note_on_c, 0, 65, 95
4, 30143, Note_on_c, 0, 62, 93
4, 30191, Note_on_c, 0, 50, 95
4, 30191, Note_on_c, 0, 57, 85
4, 30197, Note_on_c, 0, 62, 0
4, 30199, Note_on_c, 0, 57, 0
4, 30202, Note_on_c, 0, 69, 0
4, 30202, Note_on_c, 0, 65, 0
4, 30203, Note_on_c, 0, 50, 0
4, 30239, Note_on_c, 0, 71, 105
4, 30239, Note_on_c, 0, 67, 92
4, 30239, Note_on_c, 0, 62, 109
4, 30258, Note_on_c, 0, 62, 0
4, 30263, Note_on_c, 0, 71, 0
4, 30266, Note_on_c, 0, 67, 0
4, 30287, Note_on_c, 0, 62, 86
4, 30287, Note_on_c, 0, 65, 89
4, 30287, Note_on_c, 0, 69, 93
4, 30335, Note_on_c, 0, 50, 57
4, 30342, Note_on_c, 0, 50, 0
4, 30356, Note_on_c, 0, 62, 0
4, 30364, Note_on_c, 0, 65, 0
4, 30372, Note_on_c, 0, 69, 0
4, 30383, Note_on_c, 0, 67, 82
4, 30383, Note_on_c, 0, 62, 93
4, 30383, Note_on_c, 0, 71, 89
4, 30397, Note_on_c, 0, 62, 0
4, 30399, Note_on_c, 0, 71, 0
4, 30399, Note_on_c, 0, 67, 0
4, 30431, Note_on_c, 0, 69, 99
4, 30431, Note_on_c, 0, 62, 97
4, 30431, Note_on_c, 0, 65, 105
4, 30479, Note_on_c, 0, 50, 99
4, 30499, Note_on_c, 0, 62, 0
4, 30504, Note_on_c, 0, 65, 0
4, 30506, Note_on_c, 0, 69, 0
4, 30527, Note_on_c, 0, 65, 56
4, 30527, Note_on_c, 0, 62, 63
4, 30527, Note_on_c, 0, 69, 51
4, 30575, Note_on_c, 0, 57, 89
4, 30576, Note_on_c, 0, 50, 0
4, 30577, Note_on_c, 0, 62, 0
4, 30585, Note_on_c, 0, 69, 0
4, 30586, Note_on_c, 0, 65, 0
4, 30623, Note_on_c, 0, 69, 93
4, 30623, Note_on_c, 0, 62, 105
4, 30623, Note_on_c, 0, 65, 101
4, 30644, Note_on_c, 0, 62, 0
4, 30667, Note_on_c, 0, 57, 0
4, 30671, Note_on_c, 0, 50, 76
4, 30673, Note_on_c, 0, 62, 73
4, 30683, Note_on_c, 0, 50, 0
4, 30683, Note_on_c, 0, 65, 0
4, 30683, Note_on_c, 0, 69, 0
4, 30688, Note_on_c, 0, 62, 0
4, 30721, Note_on_c, 0, 61, 65
4, 30721, Note_on_c, 0, 57, 81
4, 30721, Note_on_c, 0, 64, 71
4, 30721, Note_on_c, 0, 45, 59
4, 30727, Note_on_c, 0, 45, 0
4, 30728, Note_on_c, 0, 61, 0
4, 30729, Note_on_c, 0, 64, 0
4, 30733, Note_on_c, 0, 57, 0
4, 30769, Note_on_c, 0, 52, 71
4, 30769, Note_on_c, 0, 45, 76
4, 30777, Note_on_c, 0, 52, 0
4, 30784, Note_on_c, 0, 45, 0
4, 30816, Note_on_c, 0, 64, 93
4, 30816, Note_on_c, 0, 57, 101
4, 30816, Note_on_c, 0, 61, 102
4, 30830, Note_on_c, 0, 61, 0
4, 30830, Note_on_c, 0, 57, 0
4, 30833, Note_on_c, 0, 64, 0
4, 30864, Note_on_c, 0, 62, 105
4, 30865, Note_on_c, 0, 65, 105
4, 30865, Note_on_c, 0, 57, 107
4, 30883, Note_on_c, 0, 57, 0
4, 30886, Note_on_c, 0, 65, 0
4, 30888, Note_on_c, 0, 62, 0
4, 30912, Note_on_c, 0, 61, 92
4, 30912, Note_on_c, 0, 64, 95
4, 30912, Note_on_c, 0, 57, 93
4, 30959, Note_on_c, 0, 45, 92
4, 30959, Note_on_c, 0, 52, 93
4, 30963, Note_on_c, 0, 61, 0
4, 30966, Note_on_c, 0, 57, 0
4, 30970, Note_on_c, 0, 64, 0
4, 31005, Note_on_c, 0, 52, 0
4, 31007, Note_on_c, 0, 57, 90
4, 31007, Note_on_c, 0, 65, 90
4, 31007, Note_on_c, 0, 62, 80
4, 31017, Note_on_c, 0, 62, 0
4, 31017, Note_on_c, 0, 57, 0
4, 31019, Note_on_c, 0, 65, 0
4, 31043, Note_on_c, 0, 45, 0
4, 31055, Note_on_c, 0, 57, 95
4, 31055, Note_on_c, 0, 64, 95
4, 31055, Note_on_c, 0, 61, 96
4, 31104, Note_on_c, 0, 52, 63
4, 31112, Note_on_c, 0, 52, 0
4, 31119, Note_on_c, 0, 57, 0
4, 31123, Note_on_c, 0, 61, 0
4, 31123, Note_on_c, 0, 64, 0
4, 31151, Note_on_c, 0, 65, 93
4, 31151, Note_on_c, 0, 62, 93
4, 31151, Note_on_c, 0, 57, 101
4, 31165, Note_on_c, 0, 62, 0
4, 31167, Note_on_c, 0, 57, 0
4, 31167, Note_on_c, 0, 65, 0
4, 31201, Note_on_c, 0, 57, 101
4, 31201, Note_on_c, 0, 61, 99
4, 31201, Note_on_c, 0, 64, 93
4, 31247, Note_on_c, 0, 45, 87
4, 31247, Note_on_c, 0, 52, 95
4, 31273, Note_on_c, 0, 57, 0
4, 31274, Note_on_c, 0, 64, 0
4, 31279, Note_on_c, 0, 61, 0
4, 31296, Note_on_c, 0, 64, 82
4, 31296, Note_on_c, 0, 61, 80
4, 31296, Note_on_c, 0, 57, 79
4, 31308, Note_on_c, 0, 52, 0
4, 31343, Note_on_c, 0, 57, 0
4, 31343, Note_on_c, 0, 52, 90
4, 31344, Note_on_c, 0, 45, 0
4, 31350, Note_on_c, 0, 64, 0
4, 31351, Note_on_c, 0, 61, 0
4, 31374, Note_on_c, 0, 52, 0
4, 31391, Note_on_c, 0, 61, 99
4, 31391, Note_on_c, 0, 57, 87
4, 31391, Note_on_c, 0, 64, 99
4, 31431, Note_on_c, 0, 61, 0
4, 31437, Note_on_c, 0, 64, 0
4, 31437, Note_on_c, 0, 57, 0
4, 31439, Note_on_c, 0, 44, 114
4, 31467, Note_on_c, 0, 44, 0
4, 31487, Note_on_c, 0, 55, 83
4, 31487, Note_on_c, 0, 58, 69
4, 31487, Note_on_c, 0, 43, 68
4, 31487, Note_on_c, 0, 62, 79
4, 31497, Note_on_c, 0, 58, 0
4, 31498, Note_on_c, 0, 55, 0
4, 31501, Note_on_c, 0, 62, 0
4, 31507, Note_on_c, 0, 43, 0
4, 31513, Note_on_c, 0, 43, 57
4, 31572, Note_on_c, 0, 43, 0
4, 31584, Note_on_c, 0, 55, 95
4, 31584, Note_on_c, 0, 58, 90
4, 31584, Note_on_c, 0, 62, 101
4, 31597, Note_on_c, 0, 58, 0
4, 31599, Note_on_c, 0, 55, 0
4, 31600, Note_on_c, 0, 62, 0
4, 31631, Note_on_c, 0, 50, 52
4, 31632, Note_on_c, 0, 64, 107
4, 31632, Note_on_c, 0, 60, 101
4, 31632, Note_on_c, 0, 55, 103
4, 31634, Note_on_c, 0, 50, 0
4, 31649, Note_on_c, 0, 55, 0
4, 31651, Note_on_c, 0, 64, 0
4, 31654, Note_on_c, 0, 60, 0
4, 31680, Note_on_c, 0, 62, 103
4, 31680, Note_on_c, 0, 58, 96
4, 31681, Note_on_c, 0, 55, 92
4, 31727, Note_on_c, 0, 43, 93
4, 31729, Note_on_c, 0, 48, 48
4, 31732, Note_on_c, 0, 48, 0
4, 31733, Note_on_c, 0, 55, 0
4, 31739, Note_on_c, 0, 62, 0
4, 31739, Note_on_c, 0, 58, 0
4, 31775, Note_on_c, 0, 60, 78
4, 31775, Note_on_c, 0, 55, 82
4, 31775, Note_on_c, 0, 64, 89
4, 31785, Note_on_c, 0, 55, 0
4, 31785, Note_on_c, 0, 60, 0
4, 31787, Note_on_c, 0, 64, 0
4, 31789, Note_on_c, 0, 43, 0
4, 31823, Note_on_c, 0, 62, 107
4, 31823, Note_on_c, 0, 58, 102
4, 31823, Note_on_c, 0, 55, 87
4, 31871, Note_on_c, 0, 43, 76
4, 31886, Note_on_c, 0, 55, 0
4, 31888, Note_on_c, 0, 43, 0
4, 31891, Note_on_c, 0, 58, 0
4, 31891, Note_on_c, 0, 62, 0
4, 31919, Note_on_c, 0, 60, 86
4, 31919, Note_on_c, 0, 64, 105
4, 31919, Note_on_c, 0, 55, 101
4, 31932, Note_on_c, 0, 55, 0
4, 31932, Note_on_c, 0, 60, 0
4, 31934, Note_on_c, 0, 64, 0
4, 31967, Note_on_c, 0, 58, 105
4, 31967, Note_on_c, 0, 62, 103
4, 31967, Note_on_c, 0, 55, 99
4, 32015, Note_on_c, 0, 43, 92
4, 32025, Note_on_c, 0, 55, 0
4, 32031, Note_on_c, 0, 58, 0
4, 32038, Note_on_c, 0, 62, 0
4, 32063, Note_on_c, 0, 55, 60
4, 32063, Note_on_c, 0, 58, 52
4, 32063, Note_on_c, 0, 62, 63
4, 32105, Note_on_c, 0, 43, 0
4, 32111, Note_on_c, 0, 50, 85
4, 32117, Note_on_c, 0, 55, 0
4, 32121, Note_on_c, 0, 50, 0
4, 32124, Note_on_c, 0, 58, 0
4, 32125, Note_on_c, 0, 62, 0
4, 32159, Note_on_c, 0, 62, 95
4, 32159, Note_on_c, 0, 55, 99
4, 32159, Note_on_c, 0, 58, 90
4, 32194, Note_on_c, 0, 55, 0
4, 32204, Note_on_c, 0, 58, 0
4, 32207, Note_on_c, 0, 50, 75
4, 32207, Note_on_c, 0, 43, 67
4, 32213, Note_on_c, 0, 43, 0
4, 32216, Note_on_c, 0, 62, 0
4, 32217, Note_on_c, 0, 50, 0
4, 32255, Note_on_c, 0, 69, 65
4, 32255, Note_on_c, 0, 65, 65
4, 32255, Note_on_c, 0, 62, 72
4, 32263, Note_on_c, 0, 62, 0
4, 32264, Note_on_c, 0, 65, 0
4, 32265, Note_on_c, 0, 69, 0
4, 32303, Note_on_c, 0, 50, 95
4, 32351, Note_on_c, 0, 65, 73
4, 32351, Note_on_c, 0, 62, 82
4, 32351, Note_on_c, 0, 69, 78
4, 32357, Note_on_c, 0, 50, 0
4, 32361, Note_on_c, 0, 62, 0
4, 32362, Note_on_c, 0, 65, 0
4, 32364, Note_on_c, 0, 69, 0
4, 32399, Note_on_c, 0, 57, 95
4, 32399, Note_on_c, 0, 50, 72
4, 32404, Note_on_c, 0, 50, 0
4, 32409, Note_on_c, 0, 57, 0
4, 32447, Note_on_c, 0, 72, 122
4, 32447, Note_on_c, 0, 68, 122
4, 32473, Note_on_c, 0, 69, 59
4, 32474, Note_on_c, 0, 68, 0
4, 32493, Note_on_c, 0, 72, 0
4, 32495, Note_on_c, 0, 69, 0
4, 32495, Note_on_c, 0, 57, 76
4, 32495, Note_on_c, 0, 50, 79
4, 32502, Note_on_c, 0, 50, 0
4, 32503, Note_on_c, 0, 57, 0
4, 32519, Note_on_c, 0, 69, 117
4, 32519, Note_on_c, 0, 72, 107
4, 32540, Note_on_c, 0, 72, 0
4, 32540, Note_on_c, 0, 69, 0
4, 32545, Note_on_c, 0, 57, 75
4, 32551, Note_on_c, 0, 57, 0
4, 32567, Note_on_c, 0, 68, 108
4, 32568, Note_on_c, 0, 72, 109
4, 32581, Note_on_c, 0, 68, 0
4, 32591, Note_on_c, 0, 68, 37
4, 32591, Note_on_c, 0, 69, 87
4, 32594, Note_on_c, 0, 68, 0
4, 32606, Note_on_c, 0, 72, 0
4, 32614, Note_on_c, 0, 69, 0
4, 32639, Note_on_c, 0, 69, 115
4, 32639, Note_on_c, 0, 72, 107
4, 32680, Note_on_c, 0, 72, 0
4, 32684, Note_on_c, 0, 69, 0
4, 32687, Note_on_c, 0, 57, 107
4, 32687, Note_on_c, 0, 50, 95
4, 32694, Note_on_c, 0, 50, 0
4, 32696, Note_on_c, 0, 57, 0
4, 32711, Note_on_c, 0, 68, 122
4, 32711, Note_on_c, 0, 72, 120
4, 32726, Note_on_c, 0, 68, 0
4, 32727, Note_on_c, 0, 72, 0
4, 32735, Note_on_c, 0, 57, 48
4, 32743, Note_on_c, 0, 57, 0
4, 32759, Note_on_c, 0, 72, 109
4, 32760, Note_on_c, 0, 68, 122
4, 32781, Note_on_c, 0, 68, 0
4, 32785, Note_on_c, 0, 67, 73
4, 32807, Note_on_c, 0, 67, 0
4, 32808, Note_on_c, 0, 72, 0
4, 32809, Note_on_c, 0, 65, 81
4, 32822, Note_on_c, 0, 65, 0
4, 32832, Note_on_c, 0, 67, 115
4, 32832, Note_on_c, 0, 72, 120
4, 32868, Note_on_c, 0, 72, 0
4, 32872, Note_on_c, 0, 67, 0
4, 32881, Note_on_c, 0, 65, 103
4, 32881, Note_on_c, 0, 72, 109
4, 32916, Note_on_c, 0, 72, 0
4, 32920, Note_on_c, 0, 65, 0
4, 32927, Note_on_c, 0, 72, 68
4, 32928, Note_on_c, 0, 62, 115
4, 32929, Note_on_c, 0, 50, 99
4, 32972, Note_on_c, 0, 62, 0
4, 32973, Note_on_c, 0, 50, 0
4, 32976, Note_on_c, 0, 57, 85
4, 32976, Note_on_c, 0, 65, 95
4, 32987, Note_on_c, 0, 57, 0
4, 33021, Note_on_c, 0, 72, 0
4, 33023, Note_on_c, 0, 65, 0
4, 33023, Note_on_c, 0, 62, 79
4, 33025, Note_on_c, 0, 50, 97
4, 33034, Note_on_c, 0, 62, 0
4, 33066, Note_on_c, 0, 50, 0
4, 33071, Note_on_c, 0, 57, 68
4, 33075, Note_on_c, 0, 57, 0
4, 33119, Note_on_c, 0, 69, 107
4, 33119, Note_on_c, 0, 62, 101
4, 33120, Note_on_c, 0, 65, 101
4, 33129, Note_on_c, 0, 65, 0
4, 33130, Note_on_c, 0, 62, 0
4, 33133, Note_on_c, 0, 69, 0
4, 33167, Note_on_c, 0, 50, 95
4, 33167, Note_on_c, 0, 67, 90
4, 33167, Note_on_c, 0, 71, 105
4, 33167, Note_on_c, 0, 62, 83
4, 33178, Note_on_c, 0, 62, 0
4, 33180, Note_on_c, 0, 67, 0
4, 33182, Note_on_c, 0, 71, 0
4, 33215, Note_on_c, 0, 50, 0
4, 33215, Note_on_c, 0, 62, 99
4, 33215, Note_on_c, 0, 69, 101
4, 33215, Note_on_c, 0, 65, 99
4, 33263, Note_on_c, 0, 57, 63
4, 33268, Note_on_c, 0, 57, 0
4, 33270, Note_on_c, 0, 62, 0
4, 33282, Note_on_c, 0, 65, 0
4, 33282, Note_on_c, 0, 69, 0
4, 33311, Note_on_c, 0, 62, 80
4, 33311, Note_on_c, 0, 67, 82
4, 33311, Note_on_c, 0, 71, 83
4, 33320, Note_on_c, 0, 71, 0
4, 33320, Note_on_c, 0, 62, 0
4, 33322, Note_on_c, 0, 67, 0
4, 33359, Note_on_c, 0, 57, 83
4, 33359, Note_on_c, 0, 62, 103
4, 33359, Note_on_c, 0, 65, 103
4, 33359, Note_on_c, 0, 50, 80
4, 33359, Note_on_c, 0, 69, 101
4, 33400, Note_on_c, 0, 57, 0
4, 33418, Note_on_c, 0, 50, 0
4, 33423, Note_on_c, 0, 62, 0
4, 33429, Note_on_c, 0, 69, 0
4, 33430, Note_on_c, 0, 65, 0
4, 33455, Note_on_c, 0, 71, 83
4, 33455, Note_on_c, 0, 67, 75
4, 33456, Note_on_c, 0, 62, 61
4, 33461, Note_on_c, 0, 71, 0
4, 33462, Note_on_c, 0, 62, 0
4, 33465, Note_on_c, 0, 67, 0
4, 33503, Note_on_c, 0, 62, 90
4, 33503, Note_on_c, 0, 69, 95
4, 33503, Note_on_c, 0, 65, 101
4, 33551, Note_on_c, 0, 50, 92
4, 33555, Note_on_c, 0, 62, 0
4, 33562, Note_on_c, 0, 65, 0
4, 33563, Note_on_c, 0, 69, 0
4, 33599, Note_on_c, 0, 62, 78
4, 33599, Note_on_c, 0, 65, 75
4, 33599, Note_on_c, 0, 69, 78
4, 33618, Note_on_c, 0, 50, 0
4, 33646, Note_on_c, 0, 62, 0
4, 33647, Note_on_c, 0, 57, 74
4, 33650, Note_on_c, 0, 65, 0
4, 33650, Note_on_c, 0, 69, 0
4, 33660, Note_on_c, 0, 57, 0
4, 33695, Note_on_c, 0, 62, 105
4, 33695, Note_on_c, 0, 65, 92
4, 33695, Note_on_c, 0, 69, 95
4, 33714, Note_on_c, 0, 62, 0
4, 33743, Note_on_c, 0, 57, 70
4, 33743, Note_on_c, 0, 50, 57
4, 33743, Note_on_c, 0, 62, 66
4, 33749, Note_on_c, 0, 50, 0
4, 33749, Note_on_c, 0, 57, 0
4, 33755, Note_on_c, 0, 69, 0
4, 33757, Note_on_c, 0, 65, 0
4, 33758, Note_on_c, 0, 62, 0
4, 33791, Note_on_c, 0, 57, 81
4, 33791, Note_on_c, 0, 61, 68
4, 33791, Note_on_c, 0, 45, 70
4, 33791, Note_on_c, 0, 64, 79
4, 33800, Note_on_c, 0, 61, 0
4, 33803, Note_on_c, 0, 57, 0
4, 33804, Note_on_c, 0, 45, 0
4, 33804, Note_on_c, 0, 64, 0
4, 33839, Note_on_c, 0, 52, 76
4, 33847, Note_on_c, 0, 52, 0
4, 33888, Note_on_c, 0, 61, 86
4, 33888, Note_on_c, 0, 57, 93
4, 33888, Note_on_c, 0, 64, 92
4, 33894, Note_on_c, 0, 61, 0
4, 33896, Note_on_c, 0, 64, 0
4, 33896, Note_on_c, 0, 57, 0
4, 33935, Note_on_c, 0, 62, 107
4, 33935, Note_on_c, 0, 65, 107
4, 33935, Note_on_c, 0, 57, 101
4, 33946, Note_on_c, 0, 57, 0
4, 33950, Note_on_c, 0, 62, 0
4, 33952, Note_on_c, 0, 65, 0
4, 33983, Note_on_c, 0, 61, 105
4, 33983, Note_on_c, 0, 57, 93
4, 33983, Note_on_c, 0, 64, 103
4, 34031, Note_on_c, 0, 45, 92
4, 34041, Note_on_c, 0, 57, 0
4, 34045, Note_on_c, 0, 61, 0
4, 34045, Note_on_c, 0, 64, 0
4, 34079, Note_on_c, 0, 65, 93
4, 34079, Note_on_c, 0, 62, 93
4, 34079, Note_on_c, 0, 57, 90
4, 34083, Note_on_c, 0, 45, 0
4, 34090, Note_on_c, 0, 65, 0
4, 34090, Note_on_c, 0, 57, 0
4, 34091, Note_on_c, 0, 62, 0
4, 34127, Note_on_c, 0, 57, 90
4, 34127, Note_on_c, 0, 61, 114
4, 34127, Note_on_c, 0, 64, 105
4, 34127, Note_on_c, 0, 52, 90
4, 34127, Note_on_c, 0, 45, 92
4, 34183, Note_on_c, 0, 52, 0
4, 34192, Note_on_c, 0, 57, 0
4, 34194, Note_on_c, 0, 61, 0
4, 34194, Note_on_c, 0, 64, 0
4, 34211, Note_on_c, 0, 45, 0
4, 34223, Note_on_c, 0, 57, 83
4, 34223, Note_on_c, 0, 65, 95
4, 34223, Note_on_c, 0, 62, 99
4, 34234, Note_on_c, 0, 57, 0
4, 34235, Note_on_c, 0, 62, 0
4, 34236, Note_on_c, 0, 65, 0
4, 34271, Note_on_c, 0, 61, 111
4, 34271, Note_on_c, 0, 57, 92
4, 34271, Note_on_c, 0, 64, 101
4, 34319, Note_on_c, 0, 45, 79
4, 34334, Note_on_c, 0, 57, 0
4, 34337, Note_on_c, 0, 61, 0
4, 34344, Note_on_c, 0, 64, 0
4, 34367, Note_on_c, 0, 64, 80
4, 34367, Note_on_c, 0, 61, 74
4, 34368, Note_on_c, 0, 57, 75
4, 34395, Note_on_c, 0, 45, 0
4, 34415, Note_on_c, 0, 45, 92
4, 34415, Note_on_c, 0, 52, 93
4, 34417, Note_on_c, 0, 57, 0
4, 34421, Note_on_c, 0, 64, 0
4, 34421, Note_on_c, 0, 61, 0
4, 34462, Note_on_c, 0, 52, 0
4, 34463, Note_on_c, 0, 64, 103
4, 34463, Note_on_c, 0, 61, 114
4, 34463, Note_on_c, 0, 57, 107
4, 34491, Note_on_c, 0, 57, 0
4, 34499, Note_on_c, 0, 45, 0
4, 34511, Note_on_c, 0, 57, 66
4, 34511, Note_on_c, 0, 52, 75
4, 34523, Note_on_c, 0, 52, 0
4, 34531, Note_on_c, 0, 57, 0
4, 34531, Note_on_c, 0, 64, 0
4, 34535, Note_on_c, 0, 61, 0
4, 34559, Note_on_c, 0, 55, 63
4, 34559, Note_on_c, 0, 62, 69
4, 34559, Note_on_c, 0, 58, 60
4, 34559, Note_on_c, 0, 43, 75
4, 34568, Note_on_c, 0, 62, 0
4, 34568, Note_on_c, 0, 55, 0
4, 34570, Note_on_c, 0, 58, 0
4, 34607, Note_on_c, 0, 50, 78
4, 34609, Note_on_c, 0, 43, 0
4, 34615, Note_on_c, 0, 50, 0
4, 34655, Note_on_c, 0, 58, 102
4, 34655, Note_on_c, 0, 55, 105
4, 34655, Note_on_c, 0, 62, 112
4, 34667, Note_on_c, 0, 58, 0
4, 34669, Note_on_c, 0, 55, 0
4, 34672, Note_on_c, 0, 62, 0
4, 34703, Note_on_c, 0, 64, 103
4, 34703, Note_on_c, 0, 60, 99
4, 34703, Note_on_c, 0, 55, 89
4, 34714, Note_on_c, 0, 55, 0
4, 34716, Note_on_c, 0, 64, 0
4, 34717, Note_on_c, 0, 60, 0
4, 34751, Note_on_c, 0, 55, 107
4, 34751, Note_on_c, 0, 62, 105
4, 34751, Note_on_c, 0, 58, 108
4, 34799, Note_on_c, 0, 43, 86
4, 34809, Note_on_c, 0, 58, 0
4, 34813, Note_on_c, 0, 55, 0
4, 34818, Note_on_c, 0, 62, 0
4, 34847, Note_on_c, 0, 60, 78
4, 34847, Note_on_c, 0, 64, 92
4, 34847, Note_on_c, 0, 55, 85
4, 34851, Note_on_c, 0, 43, 0
4, 34856, Note_on_c, 0, 60, 0
4, 34857, Note_on_c, 0, 64, 0
4, 34857, Note_on_c, 0, 55, 0
4, 34895, Note_on_c, 0, 62, 109
4, 34895, Note_on_c, 0, 55, 105
4, 34895, Note_on_c, 0, 58, 105
4, 34962, Note_on_c, 0, 55, 0
4, 34966, Note_on_c, 0, 58, 0
4, 34967, Note_on_c, 0, 62, 0
4, 34991, Note_on_c, 0, 60, 74
4, 34991, Note_on_c, 0, 55, 68
4, 34991, Note_on_c, 0, 43, 82
4, 34991, Note_on_c, 0, 64, 76
4, 35000, Note_on_c, 0, 55, 0
4, 35001, Note_on_c, 0, 60, 0
4, 35002, Note_on_c, 0, 64, 0
4, 35039, Note_on_c, 0, 55, 99
4, 35039, Note_on_c, 0, 58, 94
4, 35039, Note_on_c, 0, 62, 103
4, 35062, Note_on_c, 0, 43, 0
4, 35087, Note_on_c, 0, 50, 79
4, 35105, Note_on_c, 0, 55, 0
4, 35107, Note_on_c, 0, 58, 0
4, 35112, Note_on_c, 0, 62, 0
4, 35135, Note_on_c, 0, 62, 85
4, 35135, Note_on_c, 0, 55, 63
4, 35135, Note_on_c, 0, 58, 73
4, 35179, Note_on_c, 0, 50, 0
4, 35183, Note_on_c, 0, 43, 87
4, 35198, Note_on_c, 0, 55, 0
4, 35203, Note_on_c, 0, 58, 0
4, 35206, Note_on_c, 0, 62, 0
4, 35231, Note_on_c, 0, 55, 103
4, 35231, Note_on_c, 0, 62, 99
4, 35231, Note_on_c, 0, 58, 84
4, 35271, Note_on_c, 0, 43, 0
4, 35279, Note_on_c, 0, 50, 75
4, 35281, Note_on_c, 0, 55, 0
4, 35285, Note_on_c, 0, 58, 0
4, 35288, Note_on_c, 0, 50, 0
4, 35294, Note_on_c, 0, 62, 0
4, 35327, Note_on_c, 0, 69, 55
4, 35327, Note_on_c, 0, 50, 74
4, 35333, Note_on_c, 0, 69, 0
4, 35334, Note_on_c, 0, 50, 0
4, 35375, Note_on_c, 0, 50, 97
4, 35423, Note_on_c, 0, 62, 93
4, 35423, Note_on_c, 0, 69, 97
4, 35423, Note_on_c, 0, 65, 92
4, 35431, Note_on_c, 0, 65, 0
4, 35431, Note_on_c, 0, 62, 0
4, 35432, Note_on_c, 0, 69, 0
4, 35432, Note_on_c, 0, 50, 0
4, 35471, Note_on_c, 0, 71, 103
4, 35471, Note_on_c, 0, 62, 99
4, 35471, Note_on_c, 0, 57, 72
4, 35471, Note_on_c, 0, 67, 90
4, 35478, Note_on_c, 0, 57, 0
4, 35483, Note_on_c, 0, 62, 0
4, 35485, Note_on_c, 0, 67, 0
4, 35488, Note_on_c, 0, 71, 0
4, 35519, Note_on_c, 0, 62, 95
4, 35519, Note_on_c, 0, 65, 93
4, 35519, Note_on_c, 0, 69, 89
4, 35543, Note_on_c, 0, 62, 0
4, 35553, Note_on_c, 0, 65, 0
4, 35562, Note_on_c, 0, 69, 0
4, 35567, Note_on_c, 0, 57, 107
4, 35567, Note_on_c, 0, 50, 109
4, 35615, Note_on_c, 0, 84, 122
4, 35615, Note_on_c, 0, 80, 122
4, 35618, Note_on_c, 0, 57, 0
4, 35632, Note_on_c, 0, 50, 0
4, 35659, Note_on_c, 0, 80, 0
4, 35661, Note_on_c, 0, 84, 0
4, 35663, Note_on_c, 0, 57, 107
4, 35663, Note_on_c, 0, 81, 80
4, 35672, Note_on_c, 0, 57, 0
4, 35677, Note_on_c, 0, 81, 0
4, 35689, Note_on_c, 0, 84, 107
4, 35689, Note_on_c, 0, 81, 117
4, 35707, Note_on_c, 0, 81, 0
4, 35707, Note_on_c, 0, 84, 0
4, 35736, Note_on_c, 0, 84, 90
4, 35737, Note_on_c, 0, 80, 108
4, 35746, Note_on_c, 0, 84, 0
4, 35755, Note_on_c, 0, 80, 0
4, 35761, Note_on_c, 0, 84, 57
4, 35761, Note_on_c, 0, 79, 82
4, 35767, Note_on_c, 0, 84, 0
4, 35775, Note_on_c, 0, 79, 0
4, 35784, Note_on_c, 0, 77, 97
4, 35785, Note_on_c, 0, 84, 48
4, 35790, Note_on_c, 0, 84, 0
4, 35795, Note_on_c, 0, 77, 0
4, 35807, Note_on_c, 0, 79, 122
4, 35807, Note_on_c, 0, 84, 107
4, 35835, Note_on_c, 0, 84, 0
4, 35835, Note_on_c, 0, 79, 0
4, 35857, Note_on_c, 0, 77, 55
4, 35857, Note_on_c, 0, 79, 122
4, 35857, Note_on_c, 0, 57, 105
4, 35857, Note_on_c, 0, 84, 122
4, 35857, Note_on_c, 0, 50, 109
4, 35859, Note_on_c, 0, 77, 0
4, 35905, Note_on_c, 0, 77, 93
4, 35906, Note_on_c, 0, 79, 0
4, 35912, Note_on_c, 0, 84, 0
4, 35912, Note_on_c, 0, 57, 0
4, 35913, Note_on_c, 0, 50, 0
4, 35928, Note_on_c, 0, 77, 0
4, 35929, Note_on_c, 0, 74, 99
4, 35941, Note_on_c, 0, 74, 0
4, 35953, Note_on_c, 0, 77, 115
4, 35953, Note_on_c, 0, 72, 122
4, 35985, Note_on_c, 0, 72, 0
4, 35985, Note_on_c, 0, 77, 0
4, 36001, Note_on_c, 0, 57, 75
4, 36001, Note_on_c, 0, 77, 122
4, 36001, Note_on_c, 0, 72, 120
4, 36001, Note_on_c, 0, 50, 79
4, 36007, Note_on_c, 0, 50, 0
4, 36007, Note_on_c, 0, 57, 0
4, 36034, Note_on_c, 0, 77, 0
4, 36036, Note_on_c, 0, 72, 0
4, 36048, Note_on_c, 0, 69, 95
4, 36049, Note_on_c, 0, 74, 120
4, 36082, Note_on_c, 0, 74, 0
4, 36088, Note_on_c, 0, 69, 0
4, 36096, Note_on_c, 0, 50, 99
4, 36096, Note_on_c, 0, 57, 103
4, 36131, Note_on_c, 0, 57, 0
4, 36143, Note_on_c, 0, 69, 73
4, 36143, Note_on_c, 0, 62, 73
4, 36143, Note_on_c, 0, 65, 73
4, 36145, Note_on_c, 0, 57, 60
4, 36149, Note_on_c, 0, 50, 0
4, 36150, Note_on_c, 0, 57, 0
4, 36150, Note_on_c, 0, 62, 0
4, 36151, Note_on_c, 0, 69, 0
4, 36151, Note_on_c, 0, 65, 0
4, 36191, Note_on_c, 0, 69, 95
4, 36191, Note_on_c, 0, 65, 97
4, 36191, Note_on_c, 0, 62, 105
4, 36204, Note_on_c, 0, 62, 0
4, 36204, Note_on_c, 0, 65, 0
4, 36208, Note_on_c, 0, 69, 0
4, 36239, Note_on_c, 0, 67, 93
4, 36239, Note_on_c, 0, 71, 101
4, 36240, Note_on_c, 0, 62, 78
4, 36248, Note_on_c, 0, 62, 0
4, 36249, Note_on_c, 0, 67, 0
4, 36250, Note_on_c, 0, 71, 0
4, 36287, Note_on_c, 0, 62, 92
4, 36287, Note_on_c, 0, 69, 93
4, 36287, Note_on_c, 0, 65, 97
4, 36335, Note_on_c, 0, 57, 93
4, 36335, Note_on_c, 0, 50, 89
4, 36340, Note_on_c, 0, 62, 0
4, 36343, Note_on_c, 0, 69, 0
4, 36344, Note_on_c, 0, 57, 0
4, 36345, Note_on_c, 0, 65, 0
4, 36345, Note_on_c, 0, 50, 0
4, 36383, Note_on_c, 0, 71, 105
4, 36383, Note_on_c, 0, 62, 103
4, 36383, Note_on_c, 0, 67, 95
4, 36400, Note_on_c, 0, 67, 0
4, 36400, Note_on_c, 0, 62, 0
4, 36403, Note_on_c, 0, 71, 0
4, 36431, Note_on_c, 0, 69, 99
4, 36431, Note_on_c, 0, 62, 95
4, 36431, Note_on_c, 0, 65, 103
4, 36479, Note_on_c, 0, 57, 73
4, 36479, Note_on_c, 0, 50, 87
4, 36497, Note_on_c, 0, 62, 0
4, 36504, Note_on_c, 0, 69, 0
4, 36506, Note_on_c, 0, 65, 0
4, 36520, Note_on_c, 0, 57, 0
4, 36527, Note_on_c, 0, 62, 93
4, 36527, Note_on_c, 0, 67, 83
4, 36527, Note_on_c, 0, 71, 90
4, 36538, Note_on_c, 0, 62, 0
4, 36540, Note_on_c, 0, 67, 0
4, 36541, Note_on_c, 0, 50, 0
4, 36542, Note_on_c, 0, 71, 0
4, 36575, Note_on_c, 0, 69, 117
4, 36576, Note_on_c, 0, 62, 122
4, 36576, Note_on_c, 0, 65, 115
4, 36623, Note_on_c, 0, 50, 85
4, 36623, Note_on_c, 0, 57, 80
4, 36634, Note_on_c, 0, 50, 0
4, 36635, Note_on_c, 0, 57, 0
4, 36647, Note_on_c, 0, 62, 0
4, 36649, Note_on_c, 0, 57, 20
4, 36649, Note_on_c, 0, 50, 36
4, 36652, Note_on_c, 0, 65, 0
4, 36655, Note_on_c, 0, 69, 0
4, 36662, Note_on_c, 0, 57, 0
4, 36663, Note_on_c, 0, 50, 0
4, 36672, Note_on_c, 0, 69, 55
4, 36672, Note_on_c, 0, 65, 55
4, 36673, Note_on_c, 0, 62, 57
4, 36719, Note_on_c, 0, 57, 83
4, 36719, Note_on_c, 0, 50, 89
4, 36727, Note_on_c, 0, 62, 0
4, 36735, Note_on_c, 0, 65, 0
4, 36736, Note_on_c, 0, 69, 0
4, 36767, Note_on_c, 0, 62, 97
4, 36767, Note_on_c, 0, 69, 95
4, 36767, Note_on_c, 0, 65, 92
4, 36771, Note_on_c, 0, 57, 0
4, 36795, Note_on_c, 0, 62, 0
4, 36815, Note_on_c, 0, 57, 68
4, 36816, Note_on_c, 0, 62, 83
4, 36820, Note_on_c, 0, 50, 0
4, 36824, Note_on_c, 0, 57, 0
4, 36828, Note_on_c, 0, 69, 0
4, 36830, Note_on_c, 0, 65, 0
4, 36833, Note_on_c, 0, 62, 0
4, 36863, Note_on_c, 0, 45, 66
4, 36863, Note_on_c, 0, 61, 67
4, 36863, Note_on_c, 0, 64, 71
4, 36863, Note_on_c, 0, 57, 74
4, 36876, Note_on_c, 0, 61, 0
4, 36876, Note_on_c, 0, 45, 0
4, 36878, Note_on_c, 0, 57, 0
4, 36879, Note_on_c, 0, 64, 0
4, 36911, Note_on_c, 0, 52, 80
4, 36924, Note_on_c, 0, 52, 0
4, 36959, Note_on_c, 0, 64, 99
4, 36959, Note_on_c, 0, 61, 111
4, 36959, Note_on_c, 0, 57, 93
4, 36970, Note_on_c, 0, 57, 0
4, 36970, Note_on_c, 0, 61, 0
4, 36971, Note_on_c, 0, 64, 0
4, 37007, Note_on_c, 0, 57, 70
4, 37007, Note_on_c, 0, 59, 78
4, 37007, Note_on_c, 0, 65, 103
4, 37007, Note_on_c, 0, 62, 97
4, 37013, Note_on_c, 0, 59, 0
4, 37025, Note_on_c, 0, 57, 0
4, 37028, Note_on_c, 0, 65, 0
4, 37033, Note_on_c, 0, 62, 0
4, 37055, Note_on_c, 0, 64, 97
4, 37055, Note_on_c, 0, 61, 96
4, 37055, Note_on_c, 0, 57, 97
4, 37103, Note_on_c, 0, 52, 68
4, 37103, Note_on_c, 0, 45, 87
4, 37112, Note_on_c, 0, 52, 0
4, 37114, Note_on_c, 0, 57, 0
4, 37118, Note_on_c, 0, 64, 0
4, 37119, Note_on_c, 0, 61, 0
4, 37151, Note_on_c, 0, 62, 92
4, 37151, Note_on_c, 0, 65, 85
4, 37151, Note_on_c, 0, 57, 85
4, 37162, Note_on_c, 0, 45, 0
4, 37166, Note_on_c, 0, 57, 0
4, 37167, Note_on_c, 0, 65, 0
4, 37168, Note_on_c, 0, 62, 0
4, 37199, Note_on_c, 0, 57, 93
4, 37199, Note_on_c, 0, 64, 105
4, 37199, Note_on_c, 0, 61, 118
4, 37273, Note_on_c, 0, 57, 0
4, 37275, Note_on_c, 0, 61, 0
4, 37277, Note_on_c, 0, 64, 0
4, 37295, Note_on_c, 0, 65, 76
4, 37295, Note_on_c, 0, 62, 82
4, 37295, Note_on_c, 0, 57, 61
4, 37305, Note_on_c, 0, 57, 0
4, 37308, Note_on_c, 0, 62, 0
4, 37308, Note_on_c, 0, 65, 0
4, 37343, Note_on_c, 0, 61, 102
4, 37343, Note_on_c, 0, 57, 87
4, 37343, Note_on_c, 0, 64, 99
4, 37391, Note_on_c, 0, 45, 85
4, 37414, Note_on_c, 0, 57, 0
4, 37419, Note_on_c, 0, 61, 0
4, 37421, Note_on_c, 0, 64, 0
4, 37439, Note_on_c, 0, 61, 76
4, 37439, Note_on_c, 0, 64, 81
4, 37439, Note_on_c, 0, 57, 75
4, 37485, Note_on_c, 0, 45, 0
4, 37488, Note_on_c, 0, 52, 75
4, 37497, Note_on_c, 0, 52, 0
4, 37505, Note_on_c, 0, 57, 0
4, 37512, Note_on_c, 0, 64, 0
4, 37512, Note_on_c, 0, 61, 0
4, 37536, Note_on_c, 0, 46, 62
4, 37536, Note_on_c, 0, 64, 109
4, 37536, Note_on_c, 0, 61, 102
4, 37537, Note_on_c, 0, 57, 103
4, 37541, Note_on_c, 0, 46, 0
4, 37583, Note_on_c, 0, 44, 118
4, 37584, Note_on_c, 0, 57, 0
4, 37588, Note_on_c, 0, 64, 0
4, 37589, Note_on_c, 0, 61, 0
4, 37605, Note_on_c, 0, 44, 0
4, 37631, Note_on_c, 0, 58, 72
4, 37631, Note_on_c, 0, 55, 89
4, 37631, Note_on_c, 0, 62, 86
4, 37632, Note_on_c, 0, 43, 75
4, 37642, Note_on_c, 0, 58, 0
4, 37645, Note_on_c, 0, 55, 0
4, 37648, Note_on_c, 0, 62, 0
4, 37656, Note_on_c, 0, 43, 0
4, 37657, Note_on_c, 0, 43, 78
4, 37717, Note_on_c, 0, 43, 0
4, 37729, Note_on_c, 0, 55, 85
4, 37729, Note_on_c, 0, 58, 79
4, 37729, Note_on_c, 0, 62, 92
4, 37737, Note_on_c, 0, 58, 0
4, 37737, Note_on_c, 0, 55, 0
4, 37738, Note_on_c, 0, 62, 0
4, 37775, Note_on_c, 0, 60, 89
4, 37775, Note_on_c, 0, 64, 92
4, 37775, Note_on_c, 0, 55, 105
4, 37787, Note_on_c, 0, 55, 0
4, 37788, Note_on_c, 0, 60, 0
4, 37790, Note_on_c, 0, 64, 0
4, 37823, Note_on_c, 0, 58, 90
4, 37823, Note_on_c, 0, 55, 87
4, 37823, Note_on_c, 0, 62, 103
4, 37873, Note_on_c, 0, 43, 89
4, 37878, Note_on_c, 0, 55, 0
4, 37881, Note_on_c, 0, 58, 0
4, 37883, Note_on_c, 0, 43, 0
4, 37888, Note_on_c, 0, 62, 0
4, 37919, Note_on_c, 0, 64, 95
4, 37919, Note_on_c, 0, 55, 89
4, 37919, Note_on_c, 0, 60, 87
4, 37928, Note_on_c, 0, 60, 0
4, 37929, Note_on_c, 0, 55, 0
4, 37930, Note_on_c, 0, 64, 0
4, 37967, Note_on_c, 0, 62, 112
4, 37967, Note_on_c, 0, 58, 105
4, 37967, Note_on_c, 0, 55, 101
4, 38015, Note_on_c, 0, 43, 85
4, 38026, Note_on_c, 0, 43, 0
4, 38029, Note_on_c, 0, 55, 0
4, 38032, Note_on_c, 0, 58, 0
4, 38034, Note_on_c, 0, 62, 0
4, 38063, Note_on_c, 0, 64, 89
4, 38063, Note_on_c, 0, 55, 90
4, 38063, Note_on_c, 0, 60, 85
4, 38071, Note_on_c, 0, 55, 0
4, 38072, Note_on_c, 0, 60, 0
4, 38072, Note_on_c, 0, 64, 0
4, 38111, Note_on_c, 0, 55, 107
4, 38111, Note_on_c, 0, 62, 105
4, 38111, Note_on_c, 0, 58, 105
4, 38159, Note_on_c, 0, 43, 69
4, 38166, Note_on_c, 0, 43, 0
4, 38181, Note_on_c, 0, 55, 0
4, 38186, Note_on_c, 0, 58, 0
4, 38193, Note_on_c, 0, 62, 0
4, 38207, Note_on_c, 0, 58, 57
4, 38207, Note_on_c, 0, 62, 59
4, 38207, Note_on_c, 0, 55, 56
4, 38250, Note_on_c, 0, 55, 0
4, 38255, Note_on_c, 0, 43, 85
4, 38257, Note_on_c, 0, 58, 0
4, 38263, Note_on_c, 0, 62, 0
4, 38303, Note_on_c, 0, 58, 96
4, 38303, Note_on_c, 0, 55, 103
4, 38303, Note_on_c, 0, 62, 105
4, 38325, Note_on_c, 0, 43, 0
4, 38343, Note_on_c, 0, 55, 0
4, 38346, Note_on_c, 0, 58, 0
4, 38351, Note_on_c, 0, 50, 75
4, 38353, Note_on_c, 0, 62, 0
4, 38362, Note_on_c, 0, 50, 0
4, 38399, Note_on_c, 0, 62, 78
4, 38399, Note_on_c, 0, 65, 71
4, 38400, Note_on_c, 0, 69, 69
4, 38408, Note_on_c, 0, 65, 0
4, 38408, Note_on_c, 0, 62, 0
4, 38409, Note_on_c, 0, 69, 0
4, 38447, Note_on_c, 0, 50, 97
4, 38492, Note_on_c, 0, 50, 0
4, 38495, Note_on_c, 0, 62, 80
4, 38495, Note_on_c, 0, 69, 92
4, 38495, Note_on_c, 0, 65, 80
4, 38503, Note_on_c, 0, 65, 0
4, 38503, Note_on_c, 0, 62, 0
4, 38504, Note_on_c, 0, 69, 0
4, 38543, Note_on_c, 0, 50, 109
4, 38543, Note_on_c, 0, 71, 93
4, 38543, Note_on_c, 0, 67, 86
4, 38543, Note_on_c, 0, 62, 92
4, 38551, Note_on_c, 0, 62, 0
4, 38551, Note_on_c, 0, 67, 0
4, 38553, Note_on_c, 0, 71, 0
4, 38555, Note_on_c, 0, 50, 0
4, 38591, Note_on_c, 0, 62, 107
4, 38591, Note_on_c, 0, 69, 103
4, 38591, Note_on_c, 0, 65, 103
4, 38639, Note_on_c, 0, 50, 115
4, 38643, Note_on_c, 0, 62, 0
4, 38649, Note_on_c, 0, 65, 0
4, 38650, Note_on_c, 0, 69, 0
4, 38687, Note_on_c, 0, 62, 95
4, 38687, Note_on_c, 0, 67, 92
4, 38687, Note_on_c, 0, 71, 97
4, 38695, Note_on_c, 0, 50, 0
4, 38698, Note_on_c, 0, 62, 0
4, 38698, Note_on_c, 0, 67, 0
4, 38700, Note_on_c, 0, 71, 0
4, 38735, Note_on_c, 0, 65, 105
4, 38735, Note_on_c, 0, 69, 105
4, 38735, Note_on_c, 0, 62, 107
4, 38757, Note_on_c, 0, 62, 0
4, 38766, Note_on_c, 0, 65, 0
4, 38775, Note_on_c, 0, 69, 0
4, 38783, Note_on_c, 0, 50, 112
4, 38783, Note_on_c, 0, 57, 105
4, 38808, Note_on_c, 0, 80, 114
4, 38809, Note_on_c, 0, 84, 115
4, 38823, Note_on_c, 0, 80, 0
4, 38828, Note_on_c, 0, 57, 0
4, 38832, Note_on_c, 0, 81, 80
4, 38847, Note_on_c, 0, 84, 0
4, 38849, Note_on_c, 0, 81, 0
4, 38849, Note_on_c, 0, 50, 0
4, 38856, Note_on_c, 0, 84, 63
4, 38857, Note_on_c, 0, 80, 88
4, 38870, Note_on_c, 0, 84, 0
4, 38878, Note_on_c, 0, 80, 0
4, 38880, Note_on_c, 0, 79, 85
4, 38881, Note_on_c, 0, 84, 34
4, 38889, Note_on_c, 0, 84, 0
4, 38893, Note_on_c, 0, 79, 0
4, 38904, Note_on_c, 0, 77, 83
4, 38904, Note_on_c, 0, 79, 80
4, 38914, Note_on_c, 0, 79, 0
4, 38916, Note_on_c, 0, 77, 0
4, 38928, Note_on_c, 0, 84, 109
4, 38929, Note_on_c, 0, 57, 58
4, 38929, Note_on_c, 0, 79, 117
4, 38929, Note_on_c, 0, 50, 56
4, 38932, Note_on_c, 0, 50, 0
4, 38932, Note_on_c, 0, 57, 0
4, 38955, Note_on_c, 0, 84, 0
4, 38959, Note_on_c, 0, 79, 0
4, 38976, Note_on_c, 0, 84, 120
4, 38976, Note_on_c, 0, 79, 112
4, 38977, Note_on_c, 0, 57, 66
4, 38977, Note_on_c, 0, 50, 74
4, 38983, Note_on_c, 0, 50, 0
4, 38983, Note_on_c, 0, 57, 0
4, 39009, Note_on_c, 0, 84, 0
4, 39023, Note_on_c, 0, 77, 79
4, 39025, Note_on_c, 0, 57, 79
4, 39025, Note_on_c, 0, 50, 70
4, 39027, Note_on_c, 0, 79, 0
4, 39031, Note_on_c, 0, 57, 0
4, 39032, Note_on_c, 0, 50, 0
4, 39046, Note_on_c, 0, 77, 0
4, 39048, Note_on_c, 0, 74, 82
4, 39061, Note_on_c, 0, 74, 0
4, 39071, Note_on_c, 0, 77, 105
4, 39071, Note_on_c, 0, 72, 107
4, 39108, Note_on_c, 0, 72, 0
4, 39111, Note_on_c, 0, 77, 0
4, 39119, Note_on_c, 0, 69, 105
4, 39120, Note_on_c, 0, 74, 107
4, 39162, Note_on_c, 0, 74, 0
4, 39166, Note_on_c, 0, 69, 0
4, 39167, Note_on_c, 0, 57, 95
4, 39167, Note_on_c, 0, 50, 99
4, 39196, Note_on_c, 0, 57, 0
4, 39215, Note_on_c, 0, 69, 50
4, 39215, Note_on_c, 0, 65, 59
4, 39222, Note_on_c, 0, 69, 0
4, 39223, Note_on_c, 0, 50, 0
4, 39225, Note_on_c, 0, 65, 0
4, 39263, Note_on_c, 0, 62, 95
4, 39263, Note_on_c, 0, 65, 93
4, 39263, Note_on_c, 0, 69, 90
4, 39274, Note_on_c, 0, 65, 0
4, 39275, Note_on_c, 0, 69, 0
4, 39275, Note_on_c, 0, 62, 0
4, 39311, Note_on_c, 0, 62, 97
4, 39311, Note_on_c, 0, 67, 109
4, 39311, Note_on_c, 0, 71, 115
4, 39320, Note_on_c, 0, 62, 0
4, 39322, Note_on_c, 0, 71, 0
4, 39322, Note_on_c, 0, 67, 0
4, 39360, Note_on_c, 0, 62, 99
4, 39361, Note_on_c, 0, 65, 105
4, 39361, Note_on_c, 0, 69, 105
4, 39405, Note_on_c, 0, 62, 0
4, 39407, Note_on_c, 0, 69, 0
4, 39407, Note_on_c, 0, 50, 81
4, 39407, Note_on_c, 0, 57, 99
4, 39409, Note_on_c, 0, 65, 0
4, 39412, Note_on_c, 0, 50, 0
4, 39415, Note_on_c, 0, 57, 0
4, 39455, Note_on_c, 0, 71, 99
4, 39455, Note_on_c, 0, 67, 85
4, 39455, Note_on_c, 0, 62, 92
4, 39463, Note_on_c, 0, 62, 0
4, 39467, Note_on_c, 0, 67, 0
4, 39467, Note_on_c, 0, 71, 0
4, 39503, Note_on_c, 0, 62, 105
4, 39503, Note_on_c, 0, 65, 103
4, 39503, Note_on_c, 0, 69, 103
4, 39551, Note_on_c, 0, 50, 79
4, 39551, Note_on_c, 0, 57, 83
4, 39559, Note_on_c, 0, 57, 0
4, 39560, Note_on_c, 0, 50, 0
4, 39565, Note_on_c, 0, 62, 0
4, 39571, Note_on_c, 0, 69, 0
4, 39573, Note_on_c, 0, 65, 0
4, 39599, Note_on_c, 0, 67, 75
4, 39599, Note_on_c, 0, 71, 79
4, 39599, Note_on_c, 0, 62, 82
4, 39608, Note_on_c, 0, 62, 0
4, 39608, Note_on_c, 0, 71, 0
4, 39609, Note_on_c, 0, 67, 0
4, 39647, Note_on_c, 0, 62, 115
4, 39647, Note_on_c, 0, 65, 107
4, 39647, Note_on_c, 0, 69, 95
4, 39695, Note_on_c, 0, 50, 92
4, 39695, Note_on_c, 0, 57, 92
4, 39703, Note_on_c, 0, 62, 0
4, 39709, Note_on_c, 0, 69, 0
4, 39711, Note_on_c, 0, 65, 0
4, 39742, Note_on_c, 0, 57, 0
4, 39743, Note_on_c, 0, 69, 83
4, 39743, Note_on_c, 0, 62, 85
4, 39743, Note_on_c, 0, 65, 86
4, 39789, Note_on_c, 0, 50, 0
4, 39791, Note_on_c, 0, 57, 89
4, 39792, Note_on_c, 0, 62, 0
4, 39796, Note_on_c, 0, 65, 0
4, 39798, Note_on_c, 0, 69, 0
4, 39801, Note_on_c, 0, 57, 0
4, 39839, Note_on_c, 0, 65, 109
4, 39839, Note_on_c, 0, 69, 101
4, 39839, Note_on_c, 0, 62, 109
4, 39873, Note_on_c, 0, 62, 0
4, 39873, Note_on_c, 0, 65, 0
4, 39877, Note_on_c, 0, 69, 0
4, 39887, Note_on_c, 0, 62, 68
4, 39887, Note_on_c, 0, 57, 37
4, 39887, Note_on_c, 0, 65, 79
4, 39887, Note_on_c, 0, 50, 52
4, 39887, Note_on_c, 0, 69, 75
4, 39890, Note_on_c, 0, 57, 0
4, 39895, Note_on_c, 0, 50, 0
4, 39902, Note_on_c, 0, 69, 0
4, 39907, Note_on_c, 0, 65, 0
4, 39910, Note_on_c, 0, 62, 0
4, 39935, Note_on_c, 0, 64, 80
4, 39935, Note_on_c, 0, 45, 83
4, 39935, Note_on_c, 0, 61, 77
4, 39935, Note_on_c, 0, 57, 87
4, 39954, Note_on_c, 0, 57, 0
4, 39954, Note_on_c, 0, 61, 0
4, 39954, Note_on_c, 0, 64, 0
4, 39973, Note_on_c, 0, 45, 0
4, 39983, Note_on_c, 0, 52, 83
4, 39995, Note_on_c, 0, 52, 0
4, 40031, Note_on_c, 0, 61, 99
4, 40031, Note_on_c, 0, 57, 97
4, 40031, Note_on_c, 0, 64, 87
4, 40047, Note_on_c, 0, 61, 0
4, 40048, Note_on_c, 0, 64, 0
4, 40051, Note_on_c, 0, 57, 0
4, 40079, Note_on_c, 0, 62, 97
4, 40079, Note_on_c, 0, 57, 93
4, 40079, Note_on_c, 0, 65, 99
4, 40100, Note_on_c, 0, 57, 0
4, 40102, Note_on_c, 0, 65, 0
4, 40103, Note_on_c, 0, 62, 0
4, 40127, Note_on_c, 0, 64, 103
4, 40127, Note_on_c, 0, 57, 103
4, 40127, Note_on_c, 0, 61, 105
4, 40175, Note_on_c, 0, 45, 71
4, 40175, Note_on_c, 0, 52, 83
4, 40181, Note_on_c, 0, 45, 0
4, 40184, Note_on_c, 0, 52, 0
4, 40195, Note_on_c, 0, 57, 0
4, 40199, Note_on_c, 0, 61, 0
4, 40201, Note_on_c, 0, 64, 0
4, 40223, Note_on_c, 0, 65, 93
4, 40223, Note_on_c, 0, 62, 99
4, 40223, Note_on_c, 0, 57, 89
4, 40232, Note_on_c, 0, 57, 0
4, 40234, Note_on_c, 0, 62, 0
4, 40235, Note_on_c, 0, 65, 0
4, 40271, Note_on_c, 0, 57, 95
4, 40271, Note_on_c, 0, 64, 95
4, 40271, Note_on_c, 0, 61, 99
4, 40319, Note_on_c, 0, 45, 75
4, 40330, Note_on_c, 0, 45, 0
4, 40336, Note_on_c, 0, 57, 0
4, 40340, Note_on_c, 0, 61, 0
4, 40345, Note_on_c, 0, 64, 0
4, 40367, Note_on_c, 0, 62, 97
4, 40367, Note_on_c, 0, 57, 85
4, 40367, Note_on_c, 0, 65, 93
4, 40377, Note_on_c, 0, 57, 0
4, 40377, Note_on_c, 0, 62, 0
4, 40379, Note_on_c, 0, 65, 0
4, 40417, Note_on_c, 0, 57, 101
4, 40417, Note_on_c, 0, 61, 105
4, 40417, Note_on_c, 0, 64, 105
4, 40463, Note_on_c, 0, 52, 87
4, 40463, Note_on_c, 0, 45, 86
4, 40485, Note_on_c, 0, 57, 0
4, 40489, Note_on_c, 0, 61, 0
4, 40489, Note_on_c, 0, 64, 0
4, 40511, Note_on_c, 0, 52, 0
4, 40511, Note_on_c, 0, 57, 79
4, 40511, Note_on_c, 0, 61, 77
4, 40511, Note_on_c, 0, 64, 85
4, 40523, Note_on_c, 0, 45, 0
4, 40559, Note_on_c, 0, 52, 99
4, 40559, Note_on_c, 0, 45, 90
4, 40563, Note_on_c, 0, 57, 0
4, 40566, Note_on_c, 0, 64, 0
4, 40566, Note_on_c, 0, 61, 0
4, 40599, Note_on_c, 0, 52, 0
4, 40607, Note_on_c, 0, 61, 108
4, 40607, Note_on_c, 0, 57, 109
4, 40607, Note_on_c, 0, 64, 103
4, 40616, Note_on_c, 0, 45, 0
4, 40653, Note_on_c, 0, 61, 0
4, 40655, Note_on_c, 0, 57, 0
4, 40655, Note_on_c, 0, 44, 114
4, 40657, Note_on_c, 0, 64, 0
4, 40672, Note_on_c, 0, 44, 0
4, 40703, Note_on_c, 0, 62, 86
4, 40703, Note_on_c, 0, 55, 86
4, 40703, Note_on_c, 0, 58, 70
4, 40703, Note_on_c, 0, 43, 92
4, 40713, Note_on_c, 0, 58, 0
4, 40716, Note_on_c, 0, 62, 0
4, 40716, Note_on_c, 0, 55, 0
4, 40728, Note_on_c, 0, 43, 0
4, 40729, Note_on_c, 0, 43, 60
4, 40792, Note_on_c, 0, 43, 0
4, 40799, Note_on_c, 0, 62, 97
4, 40800, Note_on_c, 0, 55, 103
4, 40800, Note_on_c, 0, 58, 86
4, 40813, Note_on_c, 0, 58, 0
4, 40816, Note_on_c, 0, 55, 0
4, 40817, Note_on_c, 0, 62, 0
4, 40847, Note_on_c, 0, 60, 93
4, 40847, Note_on_c, 0, 55, 92
4, 40847, Note_on_c, 0, 64, 101
4, 40870, Note_on_c, 0, 55, 0
4, 40871, Note_on_c, 0, 64, 0
4, 40874, Note_on_c, 0, 60, 0
4, 40895, Note_on_c, 0, 55, 97
4, 40895, Note_on_c, 0, 62, 99
4, 40895, Note_on_c, 0, 58, 86
4, 40943, Note_on_c, 0, 43, 90
4, 40943, Note_on_c, 0, 50, 87
4, 40953, Note_on_c, 0, 50, 0
4, 40957, Note_on_c, 0, 55, 0
4, 40957, Note_on_c, 0, 43, 0
4, 40961, Note_on_c, 0, 58, 0
4, 40963, Note_on_c, 0, 62, 0
4, 40991, Note_on_c, 0, 60, 74
4, 40991, Note_on_c, 0, 64, 90
4, 40992, Note_on_c, 0, 55, 87
4, 41002, Note_on_c, 0, 55, 0
4, 41004, Note_on_c, 0, 64, 0
4, 41004, Note_on_c, 0, 60, 0
4, 41039, Note_on_c, 0, 55, 101
4, 41039, Note_on_c, 0, 58, 96
4, 41039, Note_on_c, 0, 62, 105
4, 41108, Note_on_c, 0, 55, 0
4, 41114, Note_on_c, 0, 58, 0
4, 41119, Note_on_c, 0, 62, 0
4, 41135, Note_on_c, 0, 64, 73
4, 41135, Note_on_c, 0, 55, 63
4, 41135, Note_on_c, 0, 60, 75
4, 41144, Note_on_c, 0, 60, 0
4, 41144, Note_on_c, 0, 55, 0
4, 41146, Note_on_c, 0, 64, 0
4, 41183, Note_on_c, 0, 62, 103
4, 41183, Note_on_c, 0, 58, 94
4, 41183, Note_on_c, 0, 55, 97
4, 41231, Note_on_c, 0, 43, 74
4, 41231, Note_on_c, 0, 50, 60
4, 41239, Note_on_c, 0, 50, 0
4, 41248, Note_on_c, 0, 43, 0
4, 41257, Note_on_c, 0, 55, 0
4, 41262, Note_on_c, 0, 62, 0
4, 41263, Note_on_c, 0, 58, 0
4, 41279, Note_on_c, 0, 58, 70
4, 41279, Note_on_c, 0, 62, 79
4, 41279, Note_on_c, 0, 55, 67
4, 41327, Note_on_c, 0, 43, 83
4, 41327, Note_on_c, 0, 50, 90
4, 41336, Note_on_c, 0, 55, 0
4, 41340, Note_on_c, 0, 58, 0
4, 41343, Note_on_c, 0, 62, 0
4, 41373, Note_on_c, 0, 50, 0
4, 41375, Note_on_c, 0, 55, 107
4, 41375, Note_on_c, 0, 58, 92
4, 41375, Note_on_c, 0, 62, 97
4, 41413, Note_on_c, 0, 55, 0
4, 41419, Note_on_c, 0, 43, 0
4, 41419, Note_on_c, 0, 58, 0
4, 41423, Note_on_c, 0, 50, 60
4, 41425, Note_on_c, 0, 62, 0
4, 41435, Note_on_c, 0, 50, 0
4, 41471, Note_on_c, 0, 62, 59
4, 41471, Note_on_c, 0, 65, 56
4, 41471, Note_on_c, 0, 69, 53
4, 41519, Note_on_c, 0, 50, 80
4, 41539, Note_on_c, 0, 62, 0
4, 41543, Note_on_c, 0, 65, 0
4, 41548, Note_on_c, 0, 69, 0
4, 41567, Note_on_c, 0, 65, 87
4, 41567, Note_on_c, 0, 69, 86
4, 41567, Note_on_c, 0, 62, 82
4, 41580, Note_on_c, 0, 62, 0
4, 41580, Note_on_c, 0, 65, 0
4, 41583, Note_on_c, 0, 69, 0
4, 41606, Note_on_c, 0, 50, 0
4, 41610, Note_on_c, 0, 71, 95
4, 41610, Note_on_c, 0, 67, 95
4, 41612, Note_on_c, 0, 62, 86
4, 41620, Note_on_c, 0, 62, 0
4, 41622, Note_on_c, 0, 67, 0
4, 41623, Note_on_c, 0, 71, 0
4, 41662, Note_on_c, 0, 65, 103
4, 41662, Note_on_c, 0, 62, 105
4, 41662, Note_on_c, 0, 69, 103
4, 41707, Note_on_c, 0, 50, 99
4, 41749, Note_on_c, 0, 65, 0
4, 41750, Note_on_c, 0, 62, 0
4, 41750, Note_on_c, 0, 69, 0
4, 41754, Note_on_c, 0, 71, 55
4, 41757, Note_on_c, 0, 67, 78
4, 41758, Note_on_c, 0, 62, 79
4, 41769, Note_on_c, 0, 62, 0
4, 41774, Note_on_c, 0, 67, 0
4, 41774, Note_on_c, 0, 71, 0
4, 41776, Note_on_c, 0, 50, 0
4, 41805, Note_on_c, 0, 62, 105
4, 41805, Note_on_c, 0, 69, 101
4, 41805, Note_on_c, 0, 65, 99
4, 41854, Note_on_c, 0, 50, 82
4, 41872, Note_on_c, 0, 62, 0
4, 41877, Note_on_c, 0, 69, 0
4, 41883, Note_on_c, 0, 65, 0
4, 41890, Note_on_c, 0, 50, 0
4, 41903, Note_on_c, 0, 71, 83
4, 41903, Note_on_c, 0, 67, 72
4, 41905, Note_on_c, 0, 62, 75
4, 41913, Note_on_c, 0, 62, 0
4, 41917, Note_on_c, 0, 67, 0
4, 41917, Note_on_c, 0, 71, 0
4, 41950, Note_on_c, 0, 69, 103
4, 41950, Note_on_c, 0, 62, 107
4, 41950, Note_on_c, 0, 65, 103
4, 41999, Note_on_c, 0, 50, 95
4, 41999, Note_on_c, 0, 57, 99
4, 42016, Note_on_c, 0, 62, 0
4, 42021, Note_on_c, 0, 69, 0
4, 42027, Note_on_c, 0, 65, 0
4, 42047, Note_on_c, 0, 57, 0
4, 42048, Note_on_c, 0, 62, 95
4, 42048, Note_on_c, 0, 69, 82
4, 42048, Note_on_c, 0, 65, 81
4, 42081, Note_on_c, 0, 50, 0
4, 42094, Note_on_c, 0, 62, 0
4, 42097, Note_on_c, 0, 57, 55
4, 42099, Note_on_c, 0, 57, 0
4, 42103, Note_on_c, 0, 69, 0
4, 42105, Note_on_c, 0, 65, 0
4, 42143, Note_on_c, 0, 62, 109
4, 42143, Note_on_c, 0, 69, 97
4, 42143, Note_on_c, 0, 65, 101
4, 42191, Note_on_c, 0, 57, 71
4, 42198, Note_on_c, 0, 57, 0
4, 42199, Note_on_c, 0, 62, 0
4, 42211, Note_on_c, 0, 65, 0
4, 42211, Note_on_c, 0, 69, 0
4, 42239, Note_on_c, 0, 50, 101
4, 42239, Note_on_c, 0, 65, 99
4, 42239, Note_on_c, 0, 62, 95
4, 42239, Note_on_c, 0, 69, 95
4, 42239, Note_on_c, 0, 57, 101
4, 42618, Note_on_c, 0, 62, 0
4, 42620, Note_on_c, 0, 65, 0
4, 42622, Note_on_c, 0, 57, 0
4, 42624, Note_on_c, 0, 69, 0
4, 42625, Note_on_c, 0, 50, 0
4, 42625, End_track
5, 0, Start_track
5, 0, MIDI_port, 0
5, 103, Program_c, 1, 35
5, 104, Control_c, 1, 7, 105
5, 104, Control_c, 1, 11, 127
5, 104, Control_c, 1, 10, 64
5, 105, Control_c, 1, 91, 25
5, 105, Control_c, 1, 93, 20
5, 1969, Note_on_c, 1, 33, 92
5, 1970, Control_c, 1, 1, 0
5, 1970, Pitch_bend_c, 1, 8192
5, 2007, Note_on_c, 1, 33, 0
5, 2017, Note_on_c, 1, 36, 102
5, 2056, Note_on_c, 1, 36, 0
5, 2066, Note_on_c, 1, 38, 102
5, 2112, Note_on_c, 1, 38, 0
5, 2113, Note_on_c, 1, 41, 101
5, 2157, Note_on_c, 1, 41, 0
5, 2161, Note_on_c, 1, 38, 102
5, 2202, Note_on_c, 1, 38, 0
5, 2209, Note_on_c, 1, 36, 99
5, 2254, Note_on_c, 1, 36, 0
5, 2255, Note_on_c, 1, 33, 98
5, 2304, Note_on_c, 1, 33, 0
5, 2304, Note_on_c, 1, 38, 100
5, 2346, Note_on_c, 1, 38, 0
5, 2353, Note_on_c, 1, 38, 98
5, 2399, Note_on_c, 1, 36, 93
5, 2402, Note_on_c, 1, 38, 0
5, 2445, Note_on_c, 1, 36, 0
5, 2449, Note_on_c, 1, 38, 102
5, 2521, Note_on_c, 1, 38, 0
5, 2542, Note_on_c, 1, 38, 97
5, 2591, Note_on_c, 1, 36, 93
5, 2595, Note_on_c, 1, 38, 0
5, 2634, Note_on_c, 1, 36, 0
5, 2641, Note_on_c, 1, 38, 100
5, 2730, Note_on_c, 1, 38, 0
5, 2734, Note_on_c, 1, 36, 92
5, 2780, Note_on_c, 1, 36, 0
5, 2784, Note_on_c, 1, 41, 102
5, 2870, Note_on_c, 1, 41, 0
5, 2878, Note_on_c, 1, 38, 98
5, 2939, Note_on_c, 1, 38, 0
5, 2974, Note_on_c, 1, 43, 99
5, 3023, Note_on_c, 1, 44, 96
5, 3028, Note_on_c, 1, 43, 0
5, 3071, Note_on_c, 1, 45, 100
5, 3076, Note_on_c, 1, 44, 0
5, 3110, Note_on_c, 1, 45, 0
5, 3121, Note_on_c, 1, 45, 96
5, 3168, Note_on_c, 1, 45, 0
5, 3168, Note_on_c, 1, 43, 95
5, 3208, Note_on_c, 1, 43, 0
5, 3216, Note_on_c, 1, 45, 100
5, 3297, Note_on_c, 1, 45, 0
5, 3311, Note_on_c, 1, 45, 97
5, 3357, Note_on_c, 1, 45, 0
5, 3359, Note_on_c, 1, 43, 91
5, 3402, Note_on_c, 1, 43, 0
5, 3409, Note_on_c, 1, 45, 101
5, 3495, Note_on_c, 1, 45, 0
5, 3504, Note_on_c, 1, 43, 87
5, 3538, Note_on_c, 1, 43, 0
5, 3551, Note_on_c, 1, 48, 101
5, 3641, Note_on_c, 1, 48, 0
5, 3647, Note_on_c, 1, 45, 102
5, 3719, Note_on_c, 1, 45, 0
5, 3745, Note_on_c, 1, 44, 101
5, 3816, Note_on_c, 1, 44, 0
5, 3817, Note_on_c, 1, 43, 95
5, 3827, Note_on_c, 1, 43, 0
5, 3839, Note_on_c, 1, 43, 104
5, 3879, Note_on_c, 1, 43, 0
5, 3886, Note_on_c, 1, 43, 88
5, 3935, Note_on_c, 1, 43, 0
5, 3935, Note_on_c, 1, 41, 97
5, 3982, Note_on_c, 1, 41, 0
5, 3984, Note_on_c, 1, 43, 101
5, 4061, Note_on_c, 1, 43, 0
5, 4080, Note_on_c, 1, 43, 96
5, 4126, Note_on_c, 1, 43, 0
5, 4129, Note_on_c, 1, 41, 93
5, 4167, Note_on_c, 1, 41, 0
5, 4178, Note_on_c, 1, 43, 102
5, 4265, Note_on_c, 1, 43, 0
5, 4271, Note_on_c, 1, 41, 93
5, 4301, Note_on_c, 1, 41, 0
5, 4318, Note_on_c, 1, 46, 99
5, 4409, Note_on_c, 1, 46, 0
5, 4417, Note_on_c, 1, 43, 99
5, 4499, Note_on_c, 1, 43, 0
5, 4512, Note_on_c, 1, 43, 101
5, 4559, Note_on_c, 1, 43, 0
5, 4560, Note_on_c, 1, 41, 99
5, 4602, Note_on_c, 1, 41, 0
5, 4608, Note_on_c, 1, 38, 102
5, 4639, Note_on_c, 1, 38, 0
5, 4655, Note_on_c, 1, 38, 94
5, 4664, Note_on_c, 1, 38, 0
5, 4679, Note_on_c, 1, 38, 102
5, 4690, Note_on_c, 1, 38, 0
5, 4705, Note_on_c, 1, 33, 102
5, 4748, Note_on_c, 1, 33, 0
5, 4753, Note_on_c, 1, 36, 102
5, 4794, Note_on_c, 1, 36, 0
5, 4801, Note_on_c, 1, 38, 102
5, 4827, Note_on_c, 1, 38, 0
5, 4846, Note_on_c, 1, 38, 99
5, 4859, Note_on_c, 1, 38, 0
5, 4870, Note_on_c, 1, 38, 101
5, 4885, Note_on_c, 1, 38, 0
5, 4894, Note_on_c, 1, 33, 101
5, 4940, Note_on_c, 1, 33, 0
5, 4943, Note_on_c, 1, 36, 102
5, 4980, Note_on_c, 1, 36, 0
5, 4991, Note_on_c, 1, 38, 96
5, 5003, Note_on_c, 1, 38, 0
5, 5016, Note_on_c, 1, 38, 97
5, 5026, Note_on_c, 1, 38, 0
5, 5039, Note_on_c, 1, 38, 93
5, 5046, Note_on_c, 1, 38, 0
5, 5061, Note_on_c, 1, 38, 98
5, 5074, Note_on_c, 1, 38, 0
5, 5089, Note_on_c, 1, 33, 98
5, 5132, Note_on_c, 1, 33, 0
5, 5135, Note_on_c, 1, 36, 100
5, 5174, Note_on_c, 1, 36, 0
5, 5183, Note_on_c, 1, 38, 101
5, 5215, Note_on_c, 1, 38, 0
5, 5230, Note_on_c, 1, 38, 97
5, 5243, Note_on_c, 1, 38, 0
5, 5254, Note_on_c, 1, 38, 101
5, 5269, Note_on_c, 1, 38, 0
5, 5278, Note_on_c, 1, 33, 103
5, 5321, Note_on_c, 1, 33, 0
5, 5325, Note_on_c, 1, 36, 101
5, 5364, Note_on_c, 1, 36, 0
5, 5375, Note_on_c, 1, 38, 96
5, 5405, Note_on_c, 1, 38, 0
5, 5423, Note_on_c, 1, 38, 97
5, 5466, Note_on_c, 1, 38, 0
5, 5470, Note_on_c, 1, 36, 94
5, 5515, Note_on_c, 1, 36, 0
5, 5519, Note_on_c, 1, 38, 98
5, 5597, Note_on_c, 1, 38, 0
5, 5615, Note_on_c, 1, 38, 97
5, 5658, Note_on_c, 1, 38, 0
5, 5662, Note_on_c, 1, 36, 95
5, 5708, Note_on_c, 1, 36, 0
5, 5712, Note_on_c, 1, 38, 98
5, 5805, Note_on_c, 1, 38, 0
5, 5807, Note_on_c, 1, 36, 91
5, 5846, Note_on_c, 1, 36, 0
5, 5855, Note_on_c, 1, 41, 98
5, 5941, Note_on_c, 1, 41, 0
5, 5951, Note_on_c, 1, 38, 98
5, 6025, Note_on_c, 1, 38, 0
5, 6047, Note_on_c, 1, 43, 101
5, 6094, Note_on_c, 1, 44, 93
5, 6097, Note_on_c, 1, 43, 0
5, 6143, Note_on_c, 1, 45, 97
5, 6144, Note_on_c, 1, 44, 0
5, 6178, Note_on_c, 1, 45, 0
5, 6192, Note_on_c, 1, 45, 97
5, 6238, Note_on_c, 1, 45, 0
5, 6239, Note_on_c, 1, 43, 93
5, 6279, Note_on_c, 1, 43, 0
5, 6287, Note_on_c, 1, 45, 96
5, 6368, Note_on_c, 1, 45, 0
5, 6382, Note_on_c, 1, 45, 95
5, 6430, Note_on_c, 1, 45, 0
5, 6430, Note_on_c, 1, 43, 91
5, 6478, Note_on_c, 1, 43, 0
5, 6481, Note_on_c, 1, 45, 97
5, 6569, Note_on_c, 1, 45, 0
5, 6574, Note_on_c, 1, 43, 91
5, 6609, Note_on_c, 1, 43, 0
5, 6622, Note_on_c, 1, 48, 98
5, 6712, Note_on_c, 1, 48, 0
5, 6718, Note_on_c, 1, 45, 95
5, 6803, Note_on_c, 1, 45, 0
5, 6815, Note_on_c, 1, 45, 98
5, 6864, Note_on_c, 1, 44, 90
5, 6868, Note_on_c, 1, 45, 0
5, 6910, Note_on_c, 1, 43, 98
5, 6916, Note_on_c, 1, 44, 0
5, 6944, Note_on_c, 1, 43, 0
5, 6958, Note_on_c, 1, 43, 94
5, 7007, Note_on_c, 1, 43, 0
5, 7007, Note_on_c, 1, 41, 93
5, 7053, Note_on_c, 1, 41, 0
5, 7054, Note_on_c, 1, 43, 97
5, 7135, Note_on_c, 1, 43, 0
5, 7149, Note_on_c, 1, 43, 93
5, 7197, Note_on_c, 1, 41, 94
5, 7198, Note_on_c, 1, 43, 0
5, 7247, Note_on_c, 1, 41, 0
5, 7248, Note_on_c, 1, 43, 96
5, 7340, Note_on_c, 1, 43, 0
5, 7342, Note_on_c, 1, 41, 96
5, 7384, Note_on_c, 1, 41, 0
5, 7390, Note_on_c, 1, 46, 92
5, 7484, Note_on_c, 1, 46, 0
5, 7486, Note_on_c, 1, 43, 97
5, 7546, Note_on_c, 1, 43, 0
5, 7581, Note_on_c, 1, 43, 93
5, 7629, Note_on_c, 1, 41, 99
5, 7633, Note_on_c, 1, 43, 0
5, 7678, Note_on_c, 1, 38, 98
5, 7679, Note_on_c, 1, 41, 0
5, 7706, Note_on_c, 1, 38, 0
5, 7726, Note_on_c, 1, 38, 95
5, 7774, Note_on_c, 1, 36, 94
5, 7778, Note_on_c, 1, 38, 0
5, 7821, Note_on_c, 1, 36, 0
5, 7823, Note_on_c, 1, 38, 98
5, 7899, Note_on_c, 1, 38, 0
5, 7919, Note_on_c, 1, 38, 95
5, 7966, Note_on_c, 1, 36, 94
5, 7969, Note_on_c, 1, 38, 0
5, 8014, Note_on_c, 1, 36, 0
5, 8015, Note_on_c, 1, 38, 97
5, 8110, Note_on_c, 1, 38, 0
5, 8110, Note_on_c, 1, 36, 92
5, 8157, Note_on_c, 1, 41, 98
5, 8158, Note_on_c, 1, 36, 0
5, 8255, Note_on_c, 1, 38, 98
5, 8260, Note_on_c, 1, 41, 0
5, 8328, Note_on_c, 1, 38, 0
5, 8350, Note_on_c, 1, 41, 95
5, 8428, Note_on_c, 1, 41, 0
5, 8448, Note_on_c, 1, 43, 102
5, 8521, Note_on_c, 1, 43, 0
5, 8591, Note_on_c, 1, 43, 95
5, 8627, Note_on_c, 1, 43, 0
5, 8639, Note_on_c, 1, 43, 100
5, 8680, Note_on_c, 1, 43, 0
5, 8687, Note_on_c, 1, 43, 101
5, 8730, Note_on_c, 1, 43, 0
5, 8735, Note_on_c, 1, 41, 99
5, 8782, Note_on_c, 1, 40, 97
5, 8783, Note_on_c, 1, 41, 0
5, 8830, Note_on_c, 1, 38, 100
5, 8835, Note_on_c, 1, 40, 0
5, 8870, Note_on_c, 1, 38, 0
5, 8879, Note_on_c, 1, 38, 99
5, 8926, Note_on_c, 1, 38, 0
5, 8975, Note_on_c, 1, 36, 98
5, 9021, Note_on_c, 1, 36, 0
5, 9023, Note_on_c, 1, 38, 100
5, 9064, Note_on_c, 1, 38, 0
5, 9073, Note_on_c, 1, 38, 101
5, 9106, Note_on_c, 1, 38, 0
5, 9118, Note_on_c, 1, 36, 102
5, 9167, Note_on_c, 1, 35, 97
5, 9170, Note_on_c, 1, 36, 0
5, 9215, Note_on_c, 1, 34, 99
5, 9220, Note_on_c, 1, 35, 0
5, 9255, Note_on_c, 1, 34, 0
5, 9265, Note_on_c, 1, 34, 95
5, 9306, Note_on_c, 1, 34, 0
5, 9385, Note_on_c, 1, 34, 106
5, 9394, Note_on_c, 1, 34, 0
5, 9407, Note_on_c, 1, 34, 98
5, 9446, Note_on_c, 1, 34, 0
5, 9454, Note_on_c, 1, 34, 98
5, 9482, Note_on_c, 1, 34, 0
5, 9502, Note_on_c, 1, 34, 101
5, 9548, Note_on_c, 1, 34, 0
5, 9551, Note_on_c, 1, 36, 103
5, 9589, Note_on_c, 1, 36, 0
5, 9600, Note_on_c, 1, 38, 100
5, 9638, Note_on_c, 1, 38, 0
5, 9648, Note_on_c, 1, 38, 104
5, 9708, Note_on_c, 1, 38, 0
5, 9766, Note_on_c, 1, 38, 114
5, 9774, Note_on_c, 1, 38, 0
5, 9789, Note_on_c, 1, 38, 97
5, 9832, Note_on_c, 1, 38, 0
5, 9838, Note_on_c, 1, 38, 102
5, 9882, Note_on_c, 1, 38, 0
5, 9887, Note_on_c, 1, 38, 103
5, 9921, Note_on_c, 1, 38, 0
5, 9958, Note_on_c, 1, 41, 95
5, 9969, Note_on_c, 1, 41, 0
5, 9983, Note_on_c, 1, 43, 97
5, 10021, Note_on_c, 1, 43, 0
5, 10032, Note_on_c, 1, 43, 102
5, 10076, Note_on_c, 1, 43, 0
5, 10175, Note_on_c, 1, 43, 96
5, 10213, Note_on_c, 1, 43, 0
5, 10223, Note_on_c, 1, 43, 99
5, 10264, Note_on_c, 1, 43, 0
5, 10271, Note_on_c, 1, 43, 102
5, 10318, Note_on_c, 1, 43, 0
5, 10319, Note_on_c, 1, 41, 95
5, 10364, Note_on_c, 1, 41, 0
5, 10367, Note_on_c, 1, 38, 101
5, 10410, Note_on_c, 1, 38, 0
5, 10417, Note_on_c, 1, 38, 104
5, 10462, Note_on_c, 1, 38, 0
5, 10535, Note_on_c, 1, 36, 96
5, 10558, Note_on_c, 1, 38, 102
5, 10561, Note_on_c, 1, 36, 0
5, 10595, Note_on_c, 1, 38, 0
5, 10606, Note_on_c, 1, 38, 105
5, 10652, Note_on_c, 1, 38, 0
5, 10654, Note_on_c, 1, 36, 101
5, 10701, Note_on_c, 1, 36, 0
5, 10702, Note_on_c, 1, 35, 98
5, 10750, Note_on_c, 1, 34, 101
5, 10752, Note_on_c, 1, 35, 0
5, 10797, Note_on_c, 1, 34, 0
5, 10799, Note_on_c, 1, 34, 96
5, 10863, Note_on_c, 1, 34, 0
5, 10922, Note_on_c, 1, 34, 101
5, 10934, Note_on_c, 1, 34, 0
5, 10945, Note_on_c, 1, 34, 104
5, 10981, Note_on_c, 1, 34, 0
5, 10991, Note_on_c, 1, 34, 102
5, 11037, Note_on_c, 1, 34, 0
5, 11039, Note_on_c, 1, 38, 105
5, 11081, Note_on_c, 1, 38, 0
5, 11087, Note_on_c, 1, 34, 100
5, 11128, Note_on_c, 1, 34, 0
5, 11136, Note_on_c, 1, 33, 100
5, 11174, Note_on_c, 1, 33, 0
5, 11183, Note_on_c, 1, 33, 99
5, 11221, Note_on_c, 1, 33, 0
5, 11233, Note_on_c, 1, 33, 105
5, 11312, Note_on_c, 1, 33, 0
5, 11326, Note_on_c, 1, 33, 97
5, 11367, Note_on_c, 1, 33, 0
5, 11375, Note_on_c, 1, 33, 95
5, 11424, Note_on_c, 1, 38, 105
5, 11431, Note_on_c, 1, 33, 0
5, 11468, Note_on_c, 1, 38, 0
5, 11470, Note_on_c, 1, 41, 103
5, 11514, Note_on_c, 1, 41, 0
5, 11520, Note_on_c, 1, 38, 100
5, 11554, Note_on_c, 1, 38, 0
5, 11566, Note_on_c, 1, 38, 101
5, 11609, Note_on_c, 1, 38, 0
5, 11614, Note_on_c, 1, 36, 95
5, 11651, Note_on_c, 1, 36, 0
5, 11663, Note_on_c, 1, 38, 104
5, 11743, Note_on_c, 1, 38, 0
5, 11759, Note_on_c, 1, 38, 99
5, 11800, Note_on_c, 1, 38, 0
5, 11807, Note_on_c, 1, 36, 94
5, 11842, Note_on_c, 1, 36, 0
5, 11855, Note_on_c, 1, 38, 102
5, 11944, Note_on_c, 1, 38, 0
5, 11952, Note_on_c, 1, 36, 90
5, 11982, Note_on_c, 1, 36, 0
5, 12001, Note_on_c, 1, 41, 96
5, 12095, Note_on_c, 1, 41, 0
5, 12097, Note_on_c, 1, 38, 97
5, 12150, Note_on_c, 1, 38, 0
5, 12192, Note_on_c, 1, 43, 100
5, 12239, Note_on_c, 1, 44, 92
5, 12240, Note_on_c, 1, 43, 0
5, 12286, Note_on_c, 1, 45, 98
5, 12290, Note_on_c, 1, 44, 0
5, 12322, Note_on_c, 1, 45, 0
5, 12335, Note_on_c, 1, 45, 96
5, 12379, Note_on_c, 1, 45, 0
5, 12383, Note_on_c, 1, 43, 93
5, 12426, Note_on_c, 1, 43, 0
5, 12431, Note_on_c, 1, 45, 96
5, 12507, Note_on_c, 1, 45, 0
5, 12527, Note_on_c, 1, 45, 95
5, 12573, Note_on_c, 1, 45, 0
5, 12575, Note_on_c, 1, 43, 93
5, 12618, Note_on_c, 1, 43, 0
5, 12624, Note_on_c, 1, 45, 96
5, 12719, Note_on_c, 1, 43, 93
5, 12720, Note_on_c, 1, 45, 0
5, 12742, Note_on_c, 1, 43, 0
5, 12767, Note_on_c, 1, 48, 97
5, 12861, Note_on_c, 1, 48, 0
5, 12863, Note_on_c, 1, 45, 97
5, 12927, Note_on_c, 1, 45, 0
5, 12958, Note_on_c, 1, 45, 97
5, 13003, Note_on_c, 1, 45, 0
5, 13005, Note_on_c, 1, 44, 92
5, 13054, Note_on_c, 1, 44, 0
5, 13055, Note_on_c, 1, 43, 101
5, 13084, Note_on_c, 1, 43, 0
5, 13103, Note_on_c, 1, 43, 98
5, 13149, Note_on_c, 1, 43, 0
5, 13153, Note_on_c, 1, 41, 89
5, 13188, Note_on_c, 1, 41, 0
5, 13201, Note_on_c, 1, 43, 98
5, 13295, Note_on_c, 1, 41, 95
5, 13297, Note_on_c, 1, 43, 0
5, 13325, Note_on_c, 1, 41, 0
5, 13343, Note_on_c, 1, 41, 96
5, 13376, Note_on_c, 1, 41, 0
5, 13391, Note_on_c, 1, 43, 98
5, 13489, Note_on_c, 1, 41, 92
5, 13490, Note_on_c, 1, 43, 0
5, 13519, Note_on_c, 1, 41, 0
5, 13537, Note_on_c, 1, 46, 92
5, 13629, Note_on_c, 1, 46, 0
5, 13633, Note_on_c, 1, 43, 97
5, 13707, Note_on_c, 1, 43, 0
5, 13726, Note_on_c, 1, 43, 100
5, 13769, Note_on_c, 1, 43, 0
5, 13774, Note_on_c, 1, 41, 96
5, 13823, Note_on_c, 1, 38, 96
5, 13824, Note_on_c, 1, 41, 0
5, 13854, Note_on_c, 1, 38, 0
5, 13870, Note_on_c, 1, 38, 97
5, 13916, Note_on_c, 1, 38, 0
5, 13918, Note_on_c, 1, 36, 92
5, 13956, Note_on_c, 1, 36, 0
5, 13966, Note_on_c, 1, 38, 99
5, 14052, Note_on_c, 1, 38, 0
5, 14061, Note_on_c, 1, 38, 93
5, 14110, Note_on_c, 1, 36, 94
5, 14112, Note_on_c, 1, 38, 0
5, 14146, Note_on_c, 1, 36, 0
5, 14159, Note_on_c, 1, 38, 101
5, 14254, Note_on_c, 1, 38, 0
5, 14254, Note_on_c, 1, 36, 94
5, 14285, Note_on_c, 1, 36, 0
5, 14303, Note_on_c, 1, 41, 100
5, 14385, Note_on_c, 1, 41, 0
5, 14399, Note_on_c, 1, 33, 96
5, 14440, Note_on_c, 1, 33, 0
5, 14448, Note_on_c, 1, 36, 102
5, 14494, Note_on_c, 1, 38, 102
5, 14497, Note_on_c, 1, 36, 0
5, 14543, Note_on_c, 1, 41, 102
5, 14545, Note_on_c, 1, 38, 0
5, 14583, Note_on_c, 1, 41, 0
5, 14593, Note_on_c, 1, 38, 102
5, 14622, Note_on_c, 1, 38, 0
5, 14640, Note_on_c, 1, 38, 100
5, 14687, Note_on_c, 1, 36, 94
5, 14689, Note_on_c, 1, 38, 0
5, 14736, Note_on_c, 1, 38, 100
5, 14740, Note_on_c, 1, 36, 0
5, 14795, Note_on_c, 1, 38, 0
5, 14830, Note_on_c, 1, 38, 98
5, 14878, Note_on_c, 1, 36, 95
5, 14880, Note_on_c, 1, 38, 0
5, 14924, Note_on_c, 1, 36, 0
5, 14927, Note_on_c, 1, 38, 102
5, 15008, Note_on_c, 1, 38, 0
5, 15023, Note_on_c, 1, 36, 92
5, 15061, Note_on_c, 1, 36, 0
5, 15071, Note_on_c, 1, 41, 99
5, 15162, Note_on_c, 1, 41, 0
5, 15168, Note_on_c, 1, 38, 97
5, 15231, Note_on_c, 1, 38, 0
5, 15264, Note_on_c, 1, 43, 100
5, 15311, Note_on_c, 1, 44, 82
5, 15316, Note_on_c, 1, 43, 0
5, 15358, Note_on_c, 1, 44, 0
5, 15358, Note_on_c, 1, 45, 98
5, 15390, Note_on_c, 1, 45, 0
5, 15407, Note_on_c, 1, 45, 95
5, 15453, Note_on_c, 1, 45, 0
5, 15455, Note_on_c, 1, 43, 96
5, 15500, Note_on_c, 1, 43, 0
5, 15503, Note_on_c, 1, 45, 97
5, 15580, Note_on_c, 1, 45, 0
5, 15597, Note_on_c, 1, 45, 99
5, 15646, Note_on_c, 1, 43, 91
5, 15648, Note_on_c, 1, 45, 0
5, 15692, Note_on_c, 1, 43, 0
5, 15696, Note_on_c, 1, 45, 98
5, 15786, Note_on_c, 1, 45, 0
5, 15791, Note_on_c, 1, 43, 92
5, 15818, Note_on_c, 1, 43, 0
5, 15838, Note_on_c, 1, 48, 97
5, 15930, Note_on_c, 1, 48, 0
5, 15935, Note_on_c, 1, 45, 98
5, 16006, Note_on_c, 1, 45, 0
5, 16031, Note_on_c, 1, 45, 100
5, 16079, Note_on_c, 1, 44, 94
5, 16086, Note_on_c, 1, 45, 0
5, 16127, Note_on_c, 1, 43, 97
5, 16131, Note_on_c, 1, 44, 0
5, 16150, Note_on_c, 1, 43, 0
5, 16177, Note_on_c, 1, 43, 101
5, 16224, Note_on_c, 1, 41, 95
5, 16228, Note_on_c, 1, 43, 0
5, 16273, Note_on_c, 1, 43, 102
5, 16279, Note_on_c, 1, 41, 0
5, 16348, Note_on_c, 1, 43, 0
5, 16366, Note_on_c, 1, 43, 98
5, 16414, Note_on_c, 1, 43, 0
5, 16414, Note_on_c, 1, 41, 96
5, 16454, Note_on_c, 1, 41, 0
5, 16463, Note_on_c, 1, 43, 101
5, 16555, Note_on_c, 1, 43, 0
5, 16559, Note_on_c, 1, 41, 94
5, 16588, Note_on_c, 1, 41, 0
5, 16607, Note_on_c, 1, 46, 97
5, 16692, Note_on_c, 1, 46, 0
5, 16702, Note_on_c, 1, 43, 99
5, 16767, Note_on_c, 1, 43, 0
5, 16798, Note_on_c, 1, 43, 101
5, 16840, Note_on_c, 1, 43, 0
5, 16845, Note_on_c, 1, 41, 98
5, 16893, Note_on_c, 1, 41, 0
5, 16893, Note_on_c, 1, 38, 97
5, 16921, Note_on_c, 1, 38, 0
5, 16942, Note_on_c, 1, 38, 97
5, 16990, Note_on_c, 1, 36, 97
5, 16991, Note_on_c, 1, 38, 0
5, 17034, Note_on_c, 1, 36, 0
5, 17039, Note_on_c, 1, 38, 102
5, 17117, Note_on_c, 1, 38, 0
5, 17135, Note_on_c, 1, 38, 97
5, 17183, Note_on_c, 1, 36, 96
5, 17185, Note_on_c, 1, 38, 0
5, 17218, Note_on_c, 1, 36, 0
5, 17230, Note_on_c, 1, 38, 102
5, 17325, Note_on_c, 1, 38, 0
5, 17327, Note_on_c, 1, 36, 93
5, 17349, Note_on_c, 1, 36, 0
5, 17373, Note_on_c, 1, 41, 102
5, 17460, Note_on_c, 1, 41, 0
5, 17469, Note_on_c, 1, 38, 100
5, 17527, Note_on_c, 1, 38, 0
5, 17566, Note_on_c, 1, 33, 96
5, 17613, Note_on_c, 1, 33, 0
5, 17613, Note_on_c, 1, 36, 100
5, 17652, Note_on_c, 1, 36, 0
5, 17664, Note_on_c, 1, 38, 99
5, 17687, Note_on_c, 1, 38, 0
5, 17711, Note_on_c, 1, 38, 99
5, 17752, Note_on_c, 1, 38, 0
5, 17760, Note_on_c, 1, 36, 92
5, 17806, Note_on_c, 1, 36, 0
5, 17807, Note_on_c, 1, 38, 103
5, 17880, Note_on_c, 1, 38, 0
5, 17903, Note_on_c, 1, 38, 98
5, 17948, Note_on_c, 1, 38, 0
5, 17953, Note_on_c, 1, 36, 96
5, 17991, Note_on_c, 1, 36, 0
5, 18000, Note_on_c, 1, 38, 99
5, 18088, Note_on_c, 1, 38, 0
5, 18095, Note_on_c, 1, 36, 92
5, 18126, Note_on_c, 1, 36, 0
5, 18143, Note_on_c, 1, 41, 97
5, 18233, Note_on_c, 1, 41, 0
5, 18239, Note_on_c, 1, 38, 97
5, 18305, Note_on_c, 1, 38, 0
5, 18335, Note_on_c, 1, 43, 103
5, 18379, Note_on_c, 1, 43, 0
5, 18382, Note_on_c, 1, 44, 92
5, 18430, Note_on_c, 1, 45, 97
5, 18436, Note_on_c, 1, 44, 0
5, 18455, Note_on_c, 1, 45, 0
5, 18481, Note_on_c, 1, 45, 96
5, 18524, Note_on_c, 1, 45, 0
5, 18528, Note_on_c, 1, 43, 95
5, 18571, Note_on_c, 1, 43, 0
5, 18575, Note_on_c, 1, 45, 96
5, 18651, Note_on_c, 1, 45, 0
5, 18670, Note_on_c, 1, 45, 95
5, 18717, Note_on_c, 1, 45, 0
5, 18718, Note_on_c, 1, 43, 94
5, 18761, Note_on_c, 1, 43, 0
5, 18768, Note_on_c, 1, 45, 96
5, 18863, Note_on_c, 1, 45, 0
5, 18864, Note_on_c, 1, 43, 93
5, 18901, Note_on_c, 1, 43, 0
5, 18913, Note_on_c, 1, 48, 97
5, 19002, Note_on_c, 1, 48, 0
5, 19007, Note_on_c, 1, 45, 97
5, 19066, Note_on_c, 1, 45, 0
5, 19102, Note_on_c, 1, 45, 98
5, 19148, Note_on_c, 1, 45, 0
5, 19151, Note_on_c, 1, 44, 92
5, 19194, Note_on_c, 1, 44, 0
5, 19198, Note_on_c, 1, 43, 96
5, 19223, Note_on_c, 1, 43, 0
5, 19247, Note_on_c, 1, 43, 97
5, 19294, Note_on_c, 1, 43, 0
5, 19295, Note_on_c, 1, 41, 94
5, 19336, Note_on_c, 1, 41, 0
5, 19344, Note_on_c, 1, 43, 97
5, 19420, Note_on_c, 1, 43, 0
5, 19438, Note_on_c, 1, 43, 97
5, 19486, Note_on_c, 1, 43, 0
5, 19487, Note_on_c, 1, 41, 96
5, 19530, Note_on_c, 1, 41, 0
5, 19535, Note_on_c, 1, 43, 99
5, 19631, Note_on_c, 1, 41, 94
5, 19632, Note_on_c, 1, 43, 0
5, 19668, Note_on_c, 1, 41, 0
5, 19677, Note_on_c, 1, 46, 93
5, 19773, Note_on_c, 1, 46, 0
5, 19774, Note_on_c, 1, 43, 97
5, 19838, Note_on_c, 1, 43, 0
5, 19870, Note_on_c, 1, 43, 97
5, 19917, Note_on_c, 1, 43, 0
5, 19918, Note_on_c, 1, 41, 94
5, 19965, Note_on_c, 1, 38, 95
5, 19966, Note_on_c, 1, 41, 0
5, 19984, Note_on_c, 1, 38, 0
5, 20013, Note_on_c, 1, 38, 94
5, 20062, Note_on_c, 1, 36, 91
5, 20068, Note_on_c, 1, 38, 0
5, 20100, Note_on_c, 1, 36, 0
5, 20111, Note_on_c, 1, 38, 102
5, 20191, Note_on_c, 1, 38, 0
5, 20206, Note_on_c, 1, 38, 94
5, 20254, Note_on_c, 1, 36, 92
5, 20258, Note_on_c, 1, 38, 0
5, 20291, Note_on_c, 1, 36, 0
5, 20303, Note_on_c, 1, 38, 105
5, 20397, Note_on_c, 1, 38, 0
5, 20399, Note_on_c, 1, 36, 89
5, 20423, Note_on_c, 1, 36, 0
5, 20446, Note_on_c, 1, 41, 102
5, 20542, Note_on_c, 1, 41, 0
5, 20542, Note_on_c, 1, 38, 97
5, 20594, Note_on_c, 1, 38, 0
5, 20638, Note_on_c, 1, 33, 98
5, 20686, Note_on_c, 1, 36, 98
5, 20691, Note_on_c, 1, 33, 0
5, 20735, Note_on_c, 1, 38, 100
5, 20742, Note_on_c, 1, 36, 0
5, 20756, Note_on_c, 1, 38, 0
5, 20782, Note_on_c, 1, 38, 100
5, 20829, Note_on_c, 1, 38, 0
5, 20831, Note_on_c, 1, 36, 94
5, 20877, Note_on_c, 1, 36, 0
5, 20878, Note_on_c, 1, 38, 101
5, 20957, Note_on_c, 1, 38, 0
5, 20973, Note_on_c, 1, 38, 97
5, 21023, Note_on_c, 1, 38, 0
5, 21023, Note_on_c, 1, 36, 90
5, 21061, Note_on_c, 1, 36, 0
5, 21070, Note_on_c, 1, 38, 100
5, 21162, Note_on_c, 1, 38, 0
5, 21166, Note_on_c, 1, 36, 93
5, 21204, Note_on_c, 1, 36, 0
5, 21214, Note_on_c, 1, 41, 100
5, 21303, Note_on_c, 1, 41, 0
5, 21310, Note_on_c, 1, 38, 98
5, 21370, Note_on_c, 1, 38, 0
5, 21406, Note_on_c, 1, 43, 100
5, 21453, Note_on_c, 1, 44, 94
5, 21456, Note_on_c, 1, 43, 0
5, 21502, Note_on_c, 1, 45, 97
5, 21509, Note_on_c, 1, 44, 0
5, 21525, Note_on_c, 1, 45, 0
5, 21552, Note_on_c, 1, 45, 98
5, 21600, Note_on_c, 1, 45, 0
5, 21601, Note_on_c, 1, 43, 93
5, 21642, Note_on_c, 1, 43, 0
5, 21647, Note_on_c, 1, 45, 97
5, 21725, Note_on_c, 1, 45, 0
5, 21742, Note_on_c, 1, 45, 96
5, 21791, Note_on_c, 1, 43, 90
5, 21792, Note_on_c, 1, 45, 0
5, 21828, Note_on_c, 1, 43, 0
5, 21839, Note_on_c, 1, 45, 97
5, 21935, Note_on_c, 1, 43, 86
5, 21937, Note_on_c, 1, 45, 0
5, 21968, Note_on_c, 1, 43, 0
5, 21983, Note_on_c, 1, 48, 97
5, 22075, Note_on_c, 1, 48, 0
5, 22079, Note_on_c, 1, 45, 97
5, 22137, Note_on_c, 1, 45, 0
5, 22175, Note_on_c, 1, 45, 102
5, 22225, Note_on_c, 1, 44, 91
5, 22233, Note_on_c, 1, 45, 0
5, 22271, Note_on_c, 1, 43, 98
5, 22275, Note_on_c, 1, 44, 0
5, 22295, Note_on_c, 1, 43, 0
5, 22319, Note_on_c, 1, 43, 96
5, 22367, Note_on_c, 1, 41, 94
5, 22368, Note_on_c, 1, 43, 0
5, 22408, Note_on_c, 1, 41, 0
5, 22416, Note_on_c, 1, 43, 99
5, 22495, Note_on_c, 1, 43, 0
5, 22512, Note_on_c, 1, 43, 94
5, 22557, Note_on_c, 1, 43, 0
5, 22561, Note_on_c, 1, 41, 90
5, 22587, Note_on_c, 1, 41, 0
5, 22608, Note_on_c, 1, 43, 99
5, 22705, Note_on_c, 1, 43, 0
5, 22705, Note_on_c, 1, 41, 91
5, 22724, Note_on_c, 1, 41, 0
5, 22752, Note_on_c, 1, 46, 97
5, 22846, Note_on_c, 1, 43, 97
5, 22854, Note_on_c, 1, 46, 0
5, 22902, Note_on_c, 1, 43, 0
5, 22942, Note_on_c, 1, 43, 102
5, 22989, Note_on_c, 1, 43, 0
5, 22991, Note_on_c, 1, 41, 97
5, 23026, Note_on_c, 1, 41, 0
5, 23040, Note_on_c, 1, 38, 100
5, 23069, Note_on_c, 1, 38, 0
5, 23085, Note_on_c, 1, 38, 104
5, 23133, Note_on_c, 1, 36, 98
5, 23139, Note_on_c, 1, 38, 0
5, 23182, Note_on_c, 1, 33, 96
5, 23185, Note_on_c, 1, 36, 0
5, 23230, Note_on_c, 1, 38, 100
5, 23232, Note_on_c, 1, 33, 0
5, 23270, Note_on_c, 1, 38, 0
5, 23279, Note_on_c, 1, 38, 97
5, 23295, Note_on_c, 1, 38, 0
5, 23303, Note_on_c, 1, 38, 98
5, 23328, Note_on_c, 1, 36, 102
5, 23330, Note_on_c, 1, 38, 0
5, 23373, Note_on_c, 1, 36, 0
5, 23374, Note_on_c, 1, 33, 99
5, 23416, Note_on_c, 1, 33, 0
5, 23423, Note_on_c, 1, 38, 98
5, 23457, Note_on_c, 1, 38, 0
5, 23471, Note_on_c, 1, 38, 98
5, 23517, Note_on_c, 1, 38, 0
5, 23518, Note_on_c, 1, 36, 95
5, 23566, Note_on_c, 1, 33, 94
5, 23568, Note_on_c, 1, 36, 0
5, 23616, Note_on_c, 1, 38, 98
5, 23623, Note_on_c, 1, 33, 0
5, 23653, Note_on_c, 1, 38, 0
5, 23663, Note_on_c, 1, 38, 101
5, 23709, Note_on_c, 1, 38, 0
5, 23711, Note_on_c, 1, 36, 98
5, 23757, Note_on_c, 1, 36, 0
5, 23758, Note_on_c, 1, 33, 97
5, 23794, Note_on_c, 1, 33, 0
5, 23808, Note_on_c, 1, 31, 97
5, 23886, Note_on_c, 1, 31, 0
5, 23902, Note_on_c, 1, 31, 100
5, 23976, Note_on_c, 1, 31, 0
5, 23976, Note_on_c, 1, 38, 98
5, 23999, Note_on_c, 1, 43, 105
5, 24006, Note_on_c, 1, 38, 0
5, 24030, Note_on_c, 1, 43, 0
5, 24046, Note_on_c, 1, 43, 99
5, 24076, Note_on_c, 1, 43, 0
5, 24094, Note_on_c, 1, 43, 102
5, 24143, Note_on_c, 1, 41, 102
5, 24145, Note_on_c, 1, 43, 0
5, 24190, Note_on_c, 1, 41, 0
5, 24191, Note_on_c, 1, 38, 97
5, 24226, Note_on_c, 1, 38, 0
5, 24239, Note_on_c, 1, 38, 97
5, 24274, Note_on_c, 1, 38, 0
5, 24288, Note_on_c, 1, 38, 101
5, 24339, Note_on_c, 1, 38, 0
5, 24359, Note_on_c, 1, 36, 95
5, 24385, Note_on_c, 1, 36, 0
5, 24385, Note_on_c, 1, 38, 102
5, 24412, Note_on_c, 1, 38, 0
5, 24431, Note_on_c, 1, 38, 105
5, 24472, Note_on_c, 1, 38, 0
5, 24479, Note_on_c, 1, 36, 102
5, 24527, Note_on_c, 1, 35, 101
5, 24528, Note_on_c, 1, 36, 0
5, 24565, Note_on_c, 1, 35, 0
5, 24575, Note_on_c, 1, 34, 97
5, 24614, Note_on_c, 1, 34, 0
5, 24623, Note_on_c, 1, 34, 100
5, 24675, Note_on_c, 1, 34, 0
5, 24741, Note_on_c, 1, 34, 95
5, 24756, Note_on_c, 1, 34, 0
5, 24765, Note_on_c, 1, 34, 99
5, 24806, Note_on_c, 1, 34, 0
5, 24814, Note_on_c, 1, 34, 102
5, 24855, Note_on_c, 1, 34, 0
5, 24862, Note_on_c, 1, 36, 104
5, 24911, Note_on_c, 1, 36, 0
5, 24911, Note_on_c, 1, 34, 100
5, 24957, Note_on_c, 1, 34, 0
5, 24960, Note_on_c, 1, 38, 102
5, 24997, Note_on_c, 1, 38, 0
5, 25007, Note_on_c, 1, 38, 102
5, 25047, Note_on_c, 1, 38, 0
5, 25055, Note_on_c, 1, 38, 100
5, 25108, Note_on_c, 1, 38, 0
5, 25151, Note_on_c, 1, 38, 98
5, 25190, Note_on_c, 1, 38, 0
5, 25199, Note_on_c, 1, 38, 102
5, 25247, Note_on_c, 1, 41, 102
5, 25250, Note_on_c, 1, 38, 0
5, 25295, Note_on_c, 1, 42, 102
5, 25297, Note_on_c, 1, 41, 0
5, 25343, Note_on_c, 1, 42, 0
5, 25344, Note_on_c, 1, 43, 102
5, 25379, Note_on_c, 1, 43, 0
5, 25390, Note_on_c, 1, 43, 102
5, 25435, Note_on_c, 1, 43, 0
5, 25439, Note_on_c, 1, 43, 98
5, 25470, Note_on_c, 1, 43, 0
5, 25486, Note_on_c, 1, 41, 102
5, 25532, Note_on_c, 1, 41, 0
5, 25535, Note_on_c, 1, 43, 102
5, 25576, Note_on_c, 1, 43, 0
5, 25583, Note_on_c, 1, 43, 101
5, 25621, Note_on_c, 1, 43, 0
5, 25631, Note_on_c, 1, 43, 107
5, 25679, Note_on_c, 1, 41, 98
5, 25685, Note_on_c, 1, 43, 0
5, 25725, Note_on_c, 1, 41, 0
5, 25728, Note_on_c, 1, 38, 99
5, 25765, Note_on_c, 1, 38, 0
5, 25775, Note_on_c, 1, 38, 102
5, 25813, Note_on_c, 1, 38, 0
5, 25823, Note_on_c, 1, 38, 102
5, 25871, Note_on_c, 1, 36, 98
5, 25874, Note_on_c, 1, 38, 0
5, 25914, Note_on_c, 1, 36, 0
5, 25918, Note_on_c, 1, 38, 102
5, 25960, Note_on_c, 1, 38, 0
5, 25967, Note_on_c, 1, 38, 101
5, 26000, Note_on_c, 1, 38, 0
5, 26014, Note_on_c, 1, 38, 107
5, 26048, Note_on_c, 1, 38, 0
5, 26061, Note_on_c, 1, 36, 102
5, 26082, Note_on_c, 1, 36, 0
5, 26085, Note_on_c, 1, 35, 103
5, 26109, Note_on_c, 1, 34, 101
5, 26111, Note_on_c, 1, 35, 0
5, 26153, Note_on_c, 1, 34, 0
5, 26158, Note_on_c, 1, 34, 104
5, 26202, Note_on_c, 1, 34, 0
5, 26208, Note_on_c, 1, 34, 112
5, 26300, Note_on_c, 1, 34, 0
5, 26303, Note_on_c, 1, 34, 100
5, 26341, Note_on_c, 1, 34, 0
5, 26350, Note_on_c, 1, 34, 95
5, 26391, Note_on_c, 1, 34, 0
5, 26398, Note_on_c, 1, 34, 98
5, 26438, Note_on_c, 1, 34, 0
5, 26447, Note_on_c, 1, 34, 98
5, 26495, Note_on_c, 1, 33, 98
5, 26501, Note_on_c, 1, 34, 0
5, 26537, Note_on_c, 1, 33, 0
5, 26543, Note_on_c, 1, 33, 93
5, 26588, Note_on_c, 1, 33, 0
5, 26593, Note_on_c, 1, 33, 96
5, 26634, Note_on_c, 1, 33, 0
5, 26641, Note_on_c, 1, 33, 95
5, 26680, Note_on_c, 1, 33, 0
5, 26687, Note_on_c, 1, 33, 102
5, 26722, Note_on_c, 1, 33, 0
5, 26734, Note_on_c, 1, 33, 102
5, 26773, Note_on_c, 1, 33, 0
5, 26782, Note_on_c, 1, 33, 103
5, 26819, Note_on_c, 1, 33, 0
5, 26830, Note_on_c, 1, 33, 106
5, 26870, Note_on_c, 1, 33, 0
5, 26880, Note_on_c, 1, 38, 102
5, 26899, Note_on_c, 1, 38, 0
5, 26927, Note_on_c, 1, 38, 100
5, 26975, Note_on_c, 1, 36, 96
5, 26977, Note_on_c, 1, 38, 0
5, 27009, Note_on_c, 1, 36, 0
5, 27023, Note_on_c, 1, 38, 102
5, 27104, Note_on_c, 1, 38, 0
5, 27118, Note_on_c, 1, 38, 96
5, 27168, Note_on_c, 1, 36, 95
5, 27169, Note_on_c, 1, 38, 0
5, 27201, Note_on_c, 1, 36, 0
5, 27215, Note_on_c, 1, 38, 102
5, 27311, Note_on_c, 1, 36, 95
5, 27313, Note_on_c, 1, 38, 0
5, 27347, Note_on_c, 1, 36, 0
5, 27359, Note_on_c, 1, 41, 102
5, 27445, Note_on_c, 1, 41, 0
5, 27454, Note_on_c, 1, 38, 101
5, 27519, Note_on_c, 1, 38, 0
5, 27551, Note_on_c, 1, 43, 102
5, 27598, Note_on_c, 1, 44, 94
5, 27599, Note_on_c, 1, 43, 0
5, 27646, Note_on_c, 1, 45, 99
5, 27655, Note_on_c, 1, 44, 0
5, 27674, Note_on_c, 1, 45, 0
5, 27697, Note_on_c, 1, 45, 100
5, 27741, Note_on_c, 1, 45, 0
5, 27743, Note_on_c, 1, 43, 95
5, 27777, Note_on_c, 1, 43, 0
5, 27791, Note_on_c, 1, 45, 102
5, 27864, Note_on_c, 1, 45, 0
5, 27886, Note_on_c, 1, 45, 97
5, 27931, Note_on_c, 1, 45, 0
5, 27934, Note_on_c, 1, 43, 96
5, 27970, Note_on_c, 1, 43, 0
5, 27982, Note_on_c, 1, 45, 101
5, 28079, Note_on_c, 1, 43, 92
5, 28082, Note_on_c, 1, 45, 0
5, 28109, Note_on_c, 1, 43, 0
5, 28126, Note_on_c, 1, 48, 99
5, 28207, Note_on_c, 1, 48, 0
5, 28222, Note_on_c, 1, 45, 98
5, 28318, Note_on_c, 1, 44, 94
5, 28326, Note_on_c, 1, 45, 0
5, 28349, Note_on_c, 1, 44, 0
5, 28366, Note_on_c, 1, 44, 95
5, 28414, Note_on_c, 1, 44, 0
5, 28415, Note_on_c, 1, 43, 99
5, 28442, Note_on_c, 1, 43, 0
5, 28462, Note_on_c, 1, 43, 98
5, 28502, Note_on_c, 1, 43, 0
5, 28511, Note_on_c, 1, 41, 94
5, 28540, Note_on_c, 1, 41, 0
5, 28559, Note_on_c, 1, 43, 104
5, 28638, Note_on_c, 1, 43, 0
5, 28655, Note_on_c, 1, 43, 98
5, 28703, Note_on_c, 1, 43, 0
5, 28704, Note_on_c, 1, 41, 97
5, 28736, Note_on_c, 1, 41, 0
5, 28751, Note_on_c, 1, 43, 101
5, 28848, Note_on_c, 1, 41, 94
5, 28849, Note_on_c, 1, 43, 0
5, 28870, Note_on_c, 1, 41, 0
5, 28894, Note_on_c, 1, 46, 98
5, 28985, Note_on_c, 1, 46, 0
5, 28990, Note_on_c, 1, 43, 99
5, 29062, Note_on_c, 1, 43, 0
5, 29085, Note_on_c, 1, 43, 104
5, 29134, Note_on_c, 1, 41, 102
5, 29141, Note_on_c, 1, 43, 0
5, 29175, Note_on_c, 1, 41, 0
5, 29184, Note_on_c, 1, 38, 106
5, 29217, Note_on_c, 1, 38, 0
5, 29231, Note_on_c, 1, 38, 102
5, 29243, Note_on_c, 1, 38, 0
5, 29254, Note_on_c, 1, 38, 98
5, 29275, Note_on_c, 1, 38, 0
5, 29278, Note_on_c, 1, 33, 102
5, 29326, Note_on_c, 1, 36, 102
5, 29328, Note_on_c, 1, 33, 0
5, 29374, Note_on_c, 1, 38, 100
5, 29376, Note_on_c, 1, 36, 0
5, 29412, Note_on_c, 1, 38, 0
5, 29422, Note_on_c, 1, 38, 106
5, 29434, Note_on_c, 1, 38, 0
5, 29445, Note_on_c, 1, 38, 95
5, 29466, Note_on_c, 1, 38, 0
5, 29469, Note_on_c, 1, 33, 101
5, 29518, Note_on_c, 1, 36, 100
5, 29523, Note_on_c, 1, 33, 0
5, 29567, Note_on_c, 1, 38, 102
5, 29575, Note_on_c, 1, 36, 0
5, 29599, Note_on_c, 1, 38, 0
5, 29615, Note_on_c, 1, 38, 104
5, 29627, Note_on_c, 1, 38, 0
5, 29639, Note_on_c, 1, 38, 98
5, 29662, Note_on_c, 1, 38, 0
5, 29662, Note_on_c, 1, 33, 104
5, 29710, Note_on_c, 1, 36, 101
5, 29715, Note_on_c, 1, 33, 0
5, 29758, Note_on_c, 1, 41, 106
5, 29762, Note_on_c, 1, 36, 0
5, 29775, Note_on_c, 1, 41, 0
5, 29807, Note_on_c, 1, 38, 102
5, 29853, Note_on_c, 1, 38, 0
5, 29857, Note_on_c, 1, 41, 96
5, 29903, Note_on_c, 1, 36, 101
5, 29904, Note_on_c, 1, 41, 0
5, 29940, Note_on_c, 1, 36, 0
5, 29952, Note_on_c, 1, 38, 107
5, 29986, Note_on_c, 1, 38, 0
5, 30000, Note_on_c, 1, 38, 102
5, 30047, Note_on_c, 1, 38, 0
5, 30047, Note_on_c, 1, 36, 96
5, 30087, Note_on_c, 1, 36, 0
5, 30095, Note_on_c, 1, 38, 106
5, 30176, Note_on_c, 1, 38, 0
5, 30191, Note_on_c, 1, 38, 100
5, 30230, Note_on_c, 1, 38, 0
5, 30241, Note_on_c, 1, 36, 94
5, 30277, Note_on_c, 1, 36, 0
5, 30287, Note_on_c, 1, 38, 105
5, 30383, Note_on_c, 1, 36, 92
5, 30389, Note_on_c, 1, 38, 0
5, 30415, Note_on_c, 1, 36, 0
5, 30431, Note_on_c, 1, 41, 102
5, 30528, Note_on_c, 1, 41, 0
5, 30529, Note_on_c, 1, 38, 102
5, 30596, Note_on_c, 1, 38, 0
5, 30623, Note_on_c, 1, 43, 103
5, 30670, Note_on_c, 1, 43, 0
5, 30670, Note_on_c, 1, 44, 97
5, 30718, Note_on_c, 1, 45, 101
5, 30730, Note_on_c, 1, 44, 0
5, 30753, Note_on_c, 1, 45, 0
5, 30767, Note_on_c, 1, 45, 99
5, 30816, Note_on_c, 1, 45, 0
5, 30816, Note_on_c, 1, 43, 93
5, 30852, Note_on_c, 1, 43, 0
5, 30863, Note_on_c, 1, 45, 100
5, 30941, Note_on_c, 1, 45, 0
5, 30959, Note_on_c, 1, 45, 96
5, 31008, Note_on_c, 1, 43, 93
5, 31014, Note_on_c, 1, 45, 0
5, 31043, Note_on_c, 1, 43, 0
5, 31056, Note_on_c, 1, 45, 101
5, 31136, Note_on_c, 1, 45, 0
5, 31152, Note_on_c, 1, 43, 91
5, 31181, Note_on_c, 1, 43, 0
5, 31200, Note_on_c, 1, 48, 101
5, 31291, Note_on_c, 1, 48, 0
5, 31296, Note_on_c, 1, 45, 100
5, 31355, Note_on_c, 1, 45, 0
5, 31390, Note_on_c, 1, 45, 100
5, 31439, Note_on_c, 1, 44, 94
5, 31441, Note_on_c, 1, 45, 0
5, 31487, Note_on_c, 1, 43, 98
5, 31489, Note_on_c, 1, 44, 0
5, 31519, Note_on_c, 1, 43, 0
5, 31536, Note_on_c, 1, 43, 97
5, 31585, Note_on_c, 1, 43, 0
5, 31585, Note_on_c, 1, 41, 93
5, 31619, Note_on_c, 1, 41, 0
5, 31633, Note_on_c, 1, 43, 105
5, 31707, Note_on_c, 1, 43, 0
5, 31728, Note_on_c, 1, 43, 99
5, 31773, Note_on_c, 1, 43, 0
5, 31776, Note_on_c, 1, 41, 95
5, 31811, Note_on_c, 1, 41, 0
5, 31823, Note_on_c, 1, 43, 102
5, 31917, Note_on_c, 1, 43, 0
5, 31918, Note_on_c, 1, 41, 93
5, 31957, Note_on_c, 1, 41, 0
5, 31967, Note_on_c, 1, 46, 98
5, 32060, Note_on_c, 1, 46, 0
5, 32063, Note_on_c, 1, 43, 96
5, 32096, Note_on_c, 1, 43, 0
5, 32111, Note_on_c, 1, 43, 98
5, 32159, Note_on_c, 1, 41, 97
5, 32162, Note_on_c, 1, 43, 0
5, 32186, Note_on_c, 1, 41, 0
5, 32207, Note_on_c, 1, 41, 102
5, 32250, Note_on_c, 1, 41, 0
5, 32256, Note_on_c, 1, 38, 98
5, 32288, Note_on_c, 1, 38, 0
5, 32304, Note_on_c, 1, 38, 102
5, 32350, Note_on_c, 1, 38, 0
5, 32353, Note_on_c, 1, 33, 97
5, 32423, Note_on_c, 1, 36, 98
5, 32426, Note_on_c, 1, 33, 0
5, 32447, Note_on_c, 1, 38, 98
5, 32455, Note_on_c, 1, 36, 0
5, 32480, Note_on_c, 1, 38, 0
5, 32495, Note_on_c, 1, 38, 102
5, 32539, Note_on_c, 1, 38, 0
5, 32543, Note_on_c, 1, 33, 94
5, 32591, Note_on_c, 1, 36, 101
5, 32597, Note_on_c, 1, 33, 0
5, 32634, Note_on_c, 1, 36, 0
5, 32638, Note_on_c, 1, 38, 97
5, 32675, Note_on_c, 1, 38, 0
5, 32687, Note_on_c, 1, 38, 102
5, 32731, Note_on_c, 1, 38, 0
5, 32735, Note_on_c, 1, 33, 96
5, 32807, Note_on_c, 1, 36, 100
5, 32812, Note_on_c, 1, 33, 0
5, 32831, Note_on_c, 1, 38, 101
5, 32832, Note_on_c, 1, 36, 0
5, 32862, Note_on_c, 1, 38, 0
5, 32879, Note_on_c, 1, 38, 102
5, 32924, Note_on_c, 1, 38, 0
5, 32926, Note_on_c, 1, 33, 93
5, 32974, Note_on_c, 1, 36, 101
5, 32976, Note_on_c, 1, 33, 0
5, 33018, Note_on_c, 1, 36, 0
5, 33024, Note_on_c, 1, 38, 100
5, 33050, Note_on_c, 1, 38, 0
5, 33072, Note_on_c, 1, 38, 102
5, 33116, Note_on_c, 1, 38, 0
5, 33120, Note_on_c, 1, 36, 95
5, 33160, Note_on_c, 1, 36, 0
5, 33169, Note_on_c, 1, 38, 105
5, 33241, Note_on_c, 1, 38, 0
5, 33263, Note_on_c, 1, 38, 99
5, 33310, Note_on_c, 1, 38, 0
5, 33311, Note_on_c, 1, 36, 93
5, 33345, Note_on_c, 1, 36, 0
5, 33358, Note_on_c, 1, 38, 99
5, 33448, Note_on_c, 1, 38, 0
5, 33453, Note_on_c, 1, 36, 85
5, 33484, Note_on_c, 1, 36, 0
5, 33502, Note_on_c, 1, 41, 102
5, 33599, Note_on_c, 1, 41, 0
5, 33599, Note_on_c, 1, 38, 98
5, 33665, Note_on_c, 1, 38, 0
5, 33694, Note_on_c, 1, 43, 104
5, 33743, Note_on_c, 1, 43, 0
5, 33743, Note_on_c, 1, 44, 95
5, 33791, Note_on_c, 1, 45, 98
5, 33800, Note_on_c, 1, 44, 0
5, 33819, Note_on_c, 1, 45, 0
5, 33839, Note_on_c, 1, 45, 99
5, 33886, Note_on_c, 1, 45, 0
5, 33887, Note_on_c, 1, 43, 93
5, 33924, Note_on_c, 1, 43, 0
5, 33935, Note_on_c, 1, 45, 102
5, 34015, Note_on_c, 1, 45, 0
5, 34030, Note_on_c, 1, 45, 96
5, 34079, Note_on_c, 1, 45, 0
5, 34079, Note_on_c, 1, 43, 92
5, 34119, Note_on_c, 1, 43, 0
5, 34128, Note_on_c, 1, 45, 100
5, 34223, Note_on_c, 1, 43, 92
5, 34226, Note_on_c, 1, 45, 0
5, 34252, Note_on_c, 1, 43, 0
5, 34271, Note_on_c, 1, 48, 100
5, 34359, Note_on_c, 1, 48, 0
5, 34366, Note_on_c, 1, 45, 96
5, 34425, Note_on_c, 1, 45, 0
5, 34464, Note_on_c, 1, 45, 104
5, 34511, Note_on_c, 1, 44, 92
5, 34517, Note_on_c, 1, 45, 0
5, 34558, Note_on_c, 1, 43, 95
5, 34561, Note_on_c, 1, 44, 0
5, 34584, Note_on_c, 1, 43, 0
5, 34607, Note_on_c, 1, 43, 97
5, 34653, Note_on_c, 1, 43, 0
5, 34655, Note_on_c, 1, 41, 92
5, 34686, Note_on_c, 1, 41, 0
5, 34703, Note_on_c, 1, 43, 101
5, 34785, Note_on_c, 1, 43, 0
5, 34800, Note_on_c, 1, 43, 95
5, 34847, Note_on_c, 1, 43, 0
5, 34848, Note_on_c, 1, 41, 92
5, 34876, Note_on_c, 1, 41, 0
5, 34895, Note_on_c, 1, 43, 102
5, 34992, Note_on_c, 1, 41, 89
5, 34993, Note_on_c, 1, 43, 0
5, 35017, Note_on_c, 1, 41, 0
5, 35039, Note_on_c, 1, 46, 101
5, 35131, Note_on_c, 1, 46, 0
5, 35134, Note_on_c, 1, 43, 97
5, 35199, Note_on_c, 1, 43, 0
5, 35230, Note_on_c, 1, 43, 102
5, 35277, Note_on_c, 1, 43, 0
5, 35278, Note_on_c, 1, 41, 97
5, 35325, Note_on_c, 1, 41, 0
5, 35329, Note_on_c, 1, 38, 101
5, 35355, Note_on_c, 1, 38, 0
5, 35376, Note_on_c, 1, 38, 101
5, 35423, Note_on_c, 1, 36, 96
5, 35427, Note_on_c, 1, 38, 0
5, 35460, Note_on_c, 1, 36, 0
5, 35473, Note_on_c, 1, 38, 104
5, 35546, Note_on_c, 1, 38, 0
5, 35567, Note_on_c, 1, 38, 100
5, 35614, Note_on_c, 1, 38, 0
5, 35615, Note_on_c, 1, 33, 92
5, 35663, Note_on_c, 1, 36, 99
5, 35667, Note_on_c, 1, 33, 0
5, 35700, Note_on_c, 1, 36, 0
5, 35711, Note_on_c, 1, 38, 99
5, 35746, Note_on_c, 1, 38, 0
5, 35759, Note_on_c, 1, 38, 98
5, 35807, Note_on_c, 1, 38, 0
5, 35808, Note_on_c, 1, 36, 95
5, 35854, Note_on_c, 1, 36, 0
5, 35856, Note_on_c, 1, 38, 100
5, 35896, Note_on_c, 1, 38, 0
5, 35903, Note_on_c, 1, 41, 98
5, 35943, Note_on_c, 1, 41, 0
5, 35951, Note_on_c, 1, 38, 96
5, 35998, Note_on_c, 1, 38, 0
5, 35998, Note_on_c, 1, 36, 94
5, 36046, Note_on_c, 1, 38, 101
5, 36053, Note_on_c, 1, 36, 0
5, 36088, Note_on_c, 1, 38, 0
5, 36096, Note_on_c, 1, 38, 103
5, 36124, Note_on_c, 1, 38, 0
5, 36143, Note_on_c, 1, 38, 98
5, 36190, Note_on_c, 1, 36, 94
5, 36191, Note_on_c, 1, 38, 0
5, 36228, Note_on_c, 1, 36, 0
5, 36238, Note_on_c, 1, 38, 105
5, 36323, Note_on_c, 1, 38, 0
5, 36335, Note_on_c, 1, 38, 98
5, 36383, Note_on_c, 1, 38, 0
5, 36384, Note_on_c, 1, 36, 91
5, 36428, Note_on_c, 1, 36, 0
5, 36432, Note_on_c, 1, 38, 102
5, 36512, Note_on_c, 1, 38, 0
5, 36525, Note_on_c, 1, 36, 91
5, 36562, Note_on_c, 1, 36, 0
5, 36574, Note_on_c, 1, 41, 100
5, 36671, Note_on_c, 1, 41, 0
5, 36671, Note_on_c, 1, 38, 95
5, 36733, Note_on_c, 1, 38, 0
5, 36766, Note_on_c, 1, 43, 103
5, 36813, Note_on_c, 1, 43, 0
5, 36814, Note_on_c, 1, 44, 94
5, 36861, Note_on_c, 1, 45, 98
5, 36872, Note_on_c, 1, 44, 0
5, 36891, Note_on_c, 1, 45, 0
5, 36910, Note_on_c, 1, 45, 97
5, 36958, Note_on_c, 1, 43, 93
5, 36962, Note_on_c, 1, 45, 0
5, 37006, Note_on_c, 1, 45, 96
5, 37007, Note_on_c, 1, 43, 0
5, 37084, Note_on_c, 1, 45, 0
5, 37103, Note_on_c, 1, 45, 95
5, 37151, Note_on_c, 1, 43, 93
5, 37152, Note_on_c, 1, 45, 0
5, 37192, Note_on_c, 1, 43, 0
5, 37199, Note_on_c, 1, 45, 97
5, 37295, Note_on_c, 1, 43, 91
5, 37297, Note_on_c, 1, 45, 0
5, 37324, Note_on_c, 1, 43, 0
5, 37342, Note_on_c, 1, 48, 98
5, 37438, Note_on_c, 1, 45, 93
5, 37445, Note_on_c, 1, 48, 0
5, 37497, Note_on_c, 1, 45, 0
5, 37534, Note_on_c, 1, 45, 98
5, 37582, Note_on_c, 1, 44, 90
5, 37591, Note_on_c, 1, 45, 0
5, 37629, Note_on_c, 1, 44, 0
5, 37630, Note_on_c, 1, 43, 94
5, 37666, Note_on_c, 1, 43, 0
5, 37679, Note_on_c, 1, 43, 96
5, 37727, Note_on_c, 1, 41, 95
5, 37731, Note_on_c, 1, 43, 0
5, 37764, Note_on_c, 1, 41, 0
5, 37775, Note_on_c, 1, 43, 99
5, 37853, Note_on_c, 1, 43, 0
5, 37870, Note_on_c, 1, 43, 97
5, 37918, Note_on_c, 1, 43, 0
5, 37919, Note_on_c, 1, 41, 94
5, 37955, Note_on_c, 1, 41, 0
5, 37967, Note_on_c, 1, 43, 99
5, 38063, Note_on_c, 1, 41, 86
5, 38064, Note_on_c, 1, 43, 0
5, 38092, Note_on_c, 1, 41, 0
5, 38110, Note_on_c, 1, 46, 97
5, 38207, Note_on_c, 1, 43, 96
5, 38211, Note_on_c, 1, 46, 0
5, 38262, Note_on_c, 1, 43, 0
5, 38301, Note_on_c, 1, 43, 100
5, 38350, Note_on_c, 1, 41, 93
5, 38355, Note_on_c, 1, 43, 0
5, 38400, Note_on_c, 1, 38, 99
5, 38404, Note_on_c, 1, 41, 0
5, 38433, Note_on_c, 1, 38, 0
5, 38448, Note_on_c, 1, 38, 102
5, 38495, Note_on_c, 1, 36, 94
5, 38498, Note_on_c, 1, 38, 0
5, 38532, Note_on_c, 1, 36, 0
5, 38544, Note_on_c, 1, 38, 102
5, 38616, Note_on_c, 1, 38, 0
5, 38639, Note_on_c, 1, 38, 98
5, 38681, Note_on_c, 1, 38, 0
5, 38687, Note_on_c, 1, 36, 92
5, 38723, Note_on_c, 1, 36, 0
5, 38737, Note_on_c, 1, 38, 102
5, 38819, Note_on_c, 1, 38, 0
5, 38831, Note_on_c, 1, 36, 90
5, 38868, Note_on_c, 1, 36, 0
5, 38881, Note_on_c, 1, 41, 101
5, 38953, Note_on_c, 1, 41, 0
5, 38975, Note_on_c, 1, 33, 91
5, 39025, Note_on_c, 1, 36, 98
5, 39029, Note_on_c, 1, 33, 0
5, 39071, Note_on_c, 1, 36, 0
5, 39071, Note_on_c, 1, 38, 100
5, 39121, Note_on_c, 1, 41, 102
5, 39125, Note_on_c, 1, 38, 0
5, 39168, Note_on_c, 1, 41, 0
5, 39168, Note_on_c, 1, 38, 107
5, 39197, Note_on_c, 1, 38, 0
5, 39215, Note_on_c, 1, 38, 102
5, 39258, Note_on_c, 1, 38, 0
5, 39262, Note_on_c, 1, 36, 95
5, 39302, Note_on_c, 1, 36, 0
5, 39312, Note_on_c, 1, 38, 103
5, 39383, Note_on_c, 1, 38, 0
5, 39407, Note_on_c, 1, 38, 101
5, 39449, Note_on_c, 1, 38, 0
5, 39454, Note_on_c, 1, 36, 94
5, 39488, Note_on_c, 1, 36, 0
5, 39503, Note_on_c, 1, 38, 102
5, 39596, Note_on_c, 1, 38, 0
5, 39598, Note_on_c, 1, 36, 92
5, 39629, Note_on_c, 1, 36, 0
5, 39647, Note_on_c, 1, 41, 99
5, 39738, Note_on_c, 1, 41, 0
5, 39742, Note_on_c, 1, 38, 98
5, 39810, Note_on_c, 1, 38, 0
5, 39839, Note_on_c, 1, 43, 104
5, 39882, Note_on_c, 1, 43, 0
5, 39886, Note_on_c, 1, 44, 95
5, 39933, Note_on_c, 1, 45, 96
5, 39941, Note_on_c, 1, 44, 0
5, 39964, Note_on_c, 1, 45, 0
5, 39982, Note_on_c, 1, 45, 98
5, 40025, Note_on_c, 1, 45, 0
5, 40030, Note_on_c, 1, 43, 91
5, 40066, Note_on_c, 1, 43, 0
5, 40079, Note_on_c, 1, 45, 97
5, 40154, Note_on_c, 1, 45, 0
5, 40174, Note_on_c, 1, 45, 92
5, 40220, Note_on_c, 1, 45, 0
5, 40222, Note_on_c, 1, 43, 91
5, 40255, Note_on_c, 1, 43, 0
5, 40270, Note_on_c, 1, 45, 97
5, 40366, Note_on_c, 1, 45, 0
5, 40367, Note_on_c, 1, 43, 90
5, 40394, Note_on_c, 1, 43, 0
5, 40415, Note_on_c, 1, 48, 98
5, 40501, Note_on_c, 1, 48, 0
5, 40511, Note_on_c, 1, 45, 98
5, 40574, Note_on_c, 1, 45, 0
5, 40608, Note_on_c, 1, 45, 99
5, 40655, Note_on_c, 1, 45, 0
5, 40655, Note_on_c, 1, 44, 93
5, 40698, Note_on_c, 1, 44, 0
5, 40702, Note_on_c, 1, 43, 96
5, 40730, Note_on_c, 1, 43, 0
5, 40751, Note_on_c, 1, 43, 96
5, 40795, Note_on_c, 1, 43, 0
5, 40799, Note_on_c, 1, 41, 91
5, 40830, Note_on_c, 1, 41, 0
5, 40847, Note_on_c, 1, 43, 98
5, 40921, Note_on_c, 1, 43, 0
5, 40941, Note_on_c, 1, 43, 92
5, 40990, Note_on_c, 1, 41, 92
5, 40993, Note_on_c, 1, 43, 0
5, 41012, Note_on_c, 1, 41, 0
5, 41037, Note_on_c, 1, 43, 97
5, 41134, Note_on_c, 1, 41, 91
5, 41136, Note_on_c, 1, 43, 0
5, 41153, Note_on_c, 1, 41, 0
5, 41181, Note_on_c, 1, 46, 100
5, 41270, Note_on_c, 1, 46, 0
5, 41278, Note_on_c, 1, 43, 99
5, 41363, Note_on_c, 1, 43, 0
5, 41375, Note_on_c, 1, 41, 98
5, 41440, Note_on_c, 1, 41, 0
5, 41472, Note_on_c, 1, 38, 97
5, 41497, Note_on_c, 1, 38, 0
5, 41518, Note_on_c, 1, 38, 100
5, 41561, Note_on_c, 1, 38, 0
5, 41566, Note_on_c, 1, 36, 98
5, 41602, Note_on_c, 1, 36, 0
5, 41614, Note_on_c, 1, 38, 103
5, 41675, Note_on_c, 1, 38, 0
5, 41708, Note_on_c, 1, 33, 91
5, 41758, Note_on_c, 1, 36, 100
5, 41763, Note_on_c, 1, 33, 0
5, 41794, Note_on_c, 1, 36, 0
5, 41805, Note_on_c, 1, 41, 98
5, 41833, Note_on_c, 1, 36, 98
5, 41841, Note_on_c, 1, 41, 0
5, 41846, Note_on_c, 1, 36, 0
5, 41852, Note_on_c, 1, 38, 102
5, 41900, Note_on_c, 1, 38, 0
5, 41901, Note_on_c, 1, 33, 97
5, 41945, Note_on_c, 1, 33, 0
5, 41950, Note_on_c, 1, 36, 102
5, 41988, Note_on_c, 1, 36, 0
5, 41997, Note_on_c, 1, 38, 104
5, 42040, Note_on_c, 1, 38, 0
5, 42046, Note_on_c, 1, 41, 104
5, 42083, Note_on_c, 1, 41, 0
5, 42094, Note_on_c, 1, 38, 101
5, 42135, Note_on_c, 1, 38, 0
5, 42143, Note_on_c, 1, 36, 99
5, 42190, Note_on_c, 1, 36, 0
5, 42191, Note_on_c, 1, 33, 95
5, 42224, Note_on_c, 1, 33, 0
5, 42239, Note_on_c, 1, 38, 102
5, 42626, Note_on_c, 1, 38, 0
5, 42626, End_track
6, 0, Start_track
6, 0, MIDI_port, 0
6, 108, Program_c, 2, 26
6, 109, Control_c, 2, 7, 100
6, 109, Control_c, 2, 10, 88
6, 109, Control_c, 2, 11, 127
6, 110, Control_c, 2, 93, 30
6, 110, Control_c, 2, 91, 68
6, 864, Pitch_bend_c, 2, 8192
6, 864, Note_on_c, 2, 74, 103
6, 865, Control_c, 2, 1, 0
6, 865, Pitch_bend_c, 2, 8576
6, 882, Pitch_bend_c, 2, 8448
6, 888, Pitch_bend_c, 2, 8320
6, 900, Pitch_bend_c, 2, 8256
6, 908, Pitch_bend_c, 2, 8192
6, 913, Pitch_bend_c, 2, 8256
6, 936, Pitch_bend_c, 2, 8384
6, 971, Pitch_bend_c, 2, 8512
6, 981, Pitch_bend_c, 2, 8416
6, 1005, Pitch_bend_c, 2, 8320
6, 1012, Pitch_bend_c, 2, 8448
6, 1017, Pitch_bend_c, 2, 8672
6, 1022, Pitch_bend_c, 2, 8544
6, 1027, Pitch_bend_c, 2, 8384
6, 1050, Pitch_bend_c, 2, 8448
6, 1116, Pitch_bend_c, 2, 8192
6, 1117, Note_on_c, 2, 74, 0
6, 1117, Pitch_bend_c, 2, 8416
6, 1296, Pitch_bend_c, 2, 8192
6, 1298, Pitch_bend_c, 2, 8032
6, 1298, Note_on_c, 2, 67, 100
6, 1310, Pitch_bend_c, 2, 7872
6, 1318, Pitch_bend_c, 2, 8480
6, 1323, Pitch_bend_c, 2, 9728
6, 1328, Pitch_bend_c, 2, 10624
6, 1333, Pitch_bend_c, 2, 10944
6, 1338, Pitch_bend_c, 2, 10496
6, 1343, Pitch_bend_c, 2, 9152
6, 1348, Pitch_bend_c, 2, 8032
6, 1353, Pitch_bend_c, 2, 7744
6, 1366, Pitch_bend_c, 2, 7392
6, 1367, Note_on_c, 2, 67, 0
6, 1370, Pitch_bend_c, 2, 8192
6, 1371, Note_on_c, 2, 65, 85
6, 1371, Pitch_bend_c, 2, 7872
6, 1372, Pitch_bend_c, 2, 7744
6, 1374, Pitch_bend_c, 2, 7712
6, 1393, Note_on_c, 2, 65, 0
6, 1440, Pitch_bend_c, 2, 8192
6, 1441, Note_on_c, 2, 65, 95
6, 1442, Pitch_bend_c, 2, 7904
6, 1448, Pitch_bend_c, 2, 7968
6, 1452, Pitch_bend_c, 2, 7744
6, 1463, Pitch_bend_c, 2, 7872
6, 1470, Pitch_bend_c, 2, 8032
6, 1473, Pitch_bend_c, 2, 8192
6, 1475, Pitch_bend_c, 2, 8416
6, 1480, Pitch_bend_c, 2, 8832
6, 1485, Pitch_bend_c, 2, 9216
6, 1490, Pitch_bend_c, 2, 9600
6, 1495, Pitch_bend_c, 2, 9888
6, 1500, Pitch_bend_c, 2, 10048
6, 1514, Pitch_bend_c, 2, 9664
6, 1519, Pitch_bend_c, 2, 8768
6, 1524, Pitch_bend_c, 2, 8128
6, 1529, Pitch_bend_c, 2, 7968
6, 1535, Pitch_bend_c, 2, 7936
6, 1538, Note_on_c, 2, 65, 0
6, 1542, Pitch_bend_c, 2, 8192
6, 1543, Pitch_bend_c, 2, 8096
6, 1543, Note_on_c, 2, 62, 53
6, 1544, Pitch_bend_c, 2, 8192
6, 1545, Pitch_bend_c, 2, 8512
6, 1548, Pitch_bend_c, 2, 8448
6, 1561, Pitch_bend_c, 2, 8512
6, 1566, Pitch_bend_c, 2, 8448
6, 1571, Pitch_bend_c, 2, 8256
6, 1576, Pitch_bend_c, 2, 8320
6, 1581, Pitch_bend_c, 2, 8384
6, 1592, Pitch_bend_c, 2, 8288
6, 1605, Pitch_bend_c, 2, 8320
6, 1609, Pitch_bend_c, 2, 8480
6, 1615, Pitch_bend_c, 2, 8576
6, 1622, Pitch_bend_c, 2, 8480
6, 1627, Note_on_c, 2, 62, 0
6, 1627, Pitch_bend_c, 2, 8160
6, 1635, Pitch_bend_c, 2, 8192
6, 1636, Note_on_c, 2, 65, 38
6, 1637, Pitch_bend_c, 2, 7968
6, 1639, Pitch_bend_c, 2, 7776
6, 1650, Pitch_bend_c, 2, 7744
6, 1668, Pitch_bend_c, 2, 7712
6, 1673, Pitch_bend_c, 2, 7808
6, 1678, Pitch_bend_c, 2, 7936
6, 1708, Pitch_bend_c, 2, 7872
6, 1713, Pitch_bend_c, 2, 7808
6, 1715, Note_on_c, 2, 65, 0
6, 2448, Pitch_bend_c, 2, 8192
6, 2449, Pitch_bend_c, 2, 8768
6, 2449, Note_on_c, 2, 74, 83
6, 2454, Pitch_bend_c, 2, 8672
6, 2464, Pitch_bend_c, 2, 8576
6, 2480, Pitch_bend_c, 2, 8512
6, 2485, Pitch_bend_c, 2, 8384
6, 2489, Pitch_bend_c, 2, 8256
6, 2493, Pitch_bend_c, 2, 8192
6, 2503, Pitch_bend_c, 2, 8256
6, 2508, Pitch_bend_c, 2, 8416
6, 2513, Pitch_bend_c, 2, 8576
6, 2523, Pitch_bend_c, 2, 8448
6, 2528, Pitch_bend_c, 2, 8576
6, 2538, Pitch_bend_c, 2, 8448
6, 2543, Pitch_bend_c, 2, 8320
6, 2568, Pitch_bend_c, 2, 8256
6, 2579, Pitch_bend_c, 2, 8384
6, 2594, Pitch_bend_c, 2, 8288
6, 2609, Pitch_bend_c, 2, 8384
6, 2617, Pitch_bend_c, 2, 8256
6, 2619, Pitch_bend_c, 2, 8192
6, 2632, Pitch_bend_c, 2, 8256
6, 2640, Pitch_bend_c, 2, 8192
6, 2656, Pitch_bend_c, 2, 8256
6, 2666, Pitch_bend_c, 2, 8192
6, 2673, Pitch_bend_c, 2, 8256
6, 2681, Pitch_bend_c, 2, 8320
6, 2686, Note_on_c, 2, 74, 0
6, 2732, Pitch_bend_c, 2, 8192
6, 2733, Note_on_c, 2, 77, 72
6, 2734, Pitch_bend_c, 2, 8640
6, 2748, Pitch_bend_c, 2, 8224
6, 2749, Note_on_c, 2, 77, 0
6, 2781, Pitch_bend_c, 2, 8192
6, 2781, Note_on_c, 2, 77, 81
6, 2782, Pitch_bend_c, 2, 8640
6, 2797, Pitch_bend_c, 2, 8320
6, 2800, Note_on_c, 2, 77, 0
6, 2800, Pitch_bend_c, 2, 8192
6, 2830, Note_on_c, 2, 74, 72
6, 2842, Pitch_bend_c, 2, 8512
6, 2846, Note_on_c, 2, 74, 0
6, 2846, Pitch_bend_c, 2, 8672
6, 2878, Pitch_bend_c, 2, 8192
6, 2879, Note_on_c, 2, 74, 73
6, 2880, Pitch_bend_c, 2, 8704
6, 2889, Pitch_bend_c, 2, 8640
6, 2902, Pitch_bend_c, 2, 8768
6, 2917, Pitch_bend_c, 2, 8672
6, 2922, Pitch_bend_c, 2, 8576
6, 2928, Pitch_bend_c, 2, 8672
6, 2933, Pitch_bend_c, 2, 8832
6, 2937, Pitch_bend_c, 2, 8768
6, 2943, Pitch_bend_c, 2, 8672
6, 2948, Pitch_bend_c, 2, 8576
6, 2955, Pitch_bend_c, 2, 8800
6, 2961, Pitch_bend_c, 2, 8832
6, 2966, Pitch_bend_c, 2, 8672
6, 2971, Pitch_bend_c, 2, 8544
6, 2978, Pitch_bend_c, 2, 8640
6, 2984, Pitch_bend_c, 2, 8544
6, 2989, Pitch_bend_c, 2, 8416
6, 3001, Pitch_bend_c, 2, 8512
6, 3021, Pitch_bend_c, 2, 8576
6, 3032, Pitch_bend_c, 2, 8448
6, 3034, Note_on_c, 2, 74, 0
6, 3169, Pitch_bend_c, 2, 8192
6, 3170, Note_on_c, 2, 69, 69
6, 3171, Pitch_bend_c, 2, 8512
6, 3188, Pitch_bend_c, 2, 8448
6, 3192, Note_on_c, 2, 69, 0
6, 3192, Pitch_bend_c, 2, 8544
6, 3216, Note_on_c, 2, 69, 79
6, 3216, Pitch_bend_c, 2, 8192
6, 3227, Pitch_bend_c, 2, 8544
6, 3234, Pitch_bend_c, 2, 8448
6, 3239, Note_on_c, 2, 69, 0
6, 3239, Pitch_bend_c, 2, 8576
6, 3263, Pitch_bend_c, 2, 8192
6, 3263, Note_on_c, 2, 71, 84
6, 3287, Pitch_bend_c, 2, 11232
6, 3292, Pitch_bend_c, 2, 11872
6, 3296, Pitch_bend_c, 2, 12256
6, 3306, Note_on_c, 2, 71, 0
6, 3310, Pitch_bend_c, 2, 8192
6, 3311, Note_on_c, 2, 74, 89
6, 3312, Pitch_bend_c, 2, 8448
6, 3313, Pitch_bend_c, 2, 8384
6, 3329, Pitch_bend_c, 2, 8192
6, 3331, Pitch_bend_c, 2, 8416
6, 3332, Note_on_c, 2, 74, 0
6, 3356, Pitch_bend_c, 2, 8192
6, 3357, Note_on_c, 2, 75, 89
6, 3367, Pitch_bend_c, 2, 8224
6, 3374, Pitch_bend_c, 2, 8800
6, 3379, Pitch_bend_c, 2, 11168
6, 3384, Pitch_bend_c, 2, 11680
6, 3389, Pitch_bend_c, 2, 12032
6, 3400, Note_on_c, 2, 75, 0
6, 3400, Pitch_bend_c, 2, 11904
6, 3408, Pitch_bend_c, 2, 8192
6, 3409, Note_on_c, 2, 72, 69
6, 3409, Pitch_bend_c, 2, 8480
6, 3422, Pitch_bend_c, 2, 8416
6, 3430, Pitch_bend_c, 2, 8160
6, 3432, Note_on_c, 2, 72, 0
6, 3456, Pitch_bend_c, 2, 8448
6, 3456, Note_on_c, 2, 69, 65
6, 3469, Pitch_bend_c, 2, 8512
6, 3482, Pitch_bend_c, 2, 8576
6, 3487, Pitch_bend_c, 2, 8832
6, 3492, Pitch_bend_c, 2, 9024
6, 3497, Pitch_bend_c, 2, 8992
6, 3503, Pitch_bend_c, 2, 8640
6, 3509, Pitch_bend_c, 2, 8416
6, 3514, Pitch_bend_c, 2, 8544
6, 3521, Pitch_bend_c, 2, 8672
6, 3526, Pitch_bend_c, 2, 8896
6, 3534, Pitch_bend_c, 2, 8672
6, 3539, Pitch_bend_c, 2, 8512
6, 3544, Pitch_bend_c, 2, 8672
6, 3549, Pitch_bend_c, 2, 9024
6, 3552, Note_on_c, 2, 69, 0
6, 3554, Pitch_bend_c, 2, 8192
6, 3555, Note_on_c, 2, 69, 61
6, 3556, Pitch_bend_c, 2, 8544
6, 3557, Pitch_bend_c, 2, 8480
6, 3561, Pitch_bend_c, 2, 8416
6, 3573, Pitch_bend_c, 2, 8480
6, 3581, Pitch_bend_c, 2, 8416
6, 3586, Pitch_bend_c, 2, 8352
6, 3616, Note_on_c, 2, 69, 0
6, 3616, Pitch_bend_c, 2, 8384
6, 3697, Pitch_bend_c, 2, 8192
6, 3698, Note_on_c, 2, 69, 69
6, 3699, Pitch_bend_c, 2, 8576
6, 3708, Pitch_bend_c, 2, 8512
6, 3711, Note_on_c, 2, 69, 0
6, 3711, Pitch_bend_c, 2, 8544
6, 3744, Pitch_bend_c, 2, 8192
6, 3745, Note_on_c, 2, 74, 80
6, 3746, Pitch_bend_c, 2, 8416
6, 3764, Pitch_bend_c, 2, 8288
6, 3767, Note_on_c, 2, 74, 0
6, 3767, Pitch_bend_c, 2, 8384
6, 3791, Pitch_bend_c, 2, 8192
6, 3792, Note_on_c, 2, 69, 87
6, 3794, Pitch_bend_c, 2, 8736
6, 3804, Pitch_bend_c, 2, 8800
6, 3809, Pitch_bend_c, 2, 8864
6, 3822, Pitch_bend_c, 2, 8960
6, 3827, Pitch_bend_c, 2, 9120
6, 3832, Pitch_bend_c, 2, 9344
6, 3838, Pitch_bend_c, 2, 9568
6, 3843, Pitch_bend_c, 2, 9856
6, 3848, Pitch_bend_c, 2, 10112
6, 3853, Pitch_bend_c, 2, 10336
6, 3858, Pitch_bend_c, 2, 10528
6, 3863, Pitch_bend_c, 2, 10720
6, 3868, Pitch_bend_c, 2, 10944
6, 3873, Pitch_bend_c, 2, 11200
6, 3876, Pitch_bend_c, 2, 11520
6, 3878, Pitch_bend_c, 2, 11648
6, 3881, Pitch_bend_c, 2, 11776
6, 3884, Pitch_bend_c, 2, 11904
6, 3886, Pitch_bend_c, 2, 12032
6, 3887, Pitch_bend_c, 2, 12288
6, 3888, Pitch_bend_c, 2, 12416
6, 3890, Pitch_bend_c, 2, 12544
6, 3905, Pitch_bend_c, 2, 12288
6, 3906, Pitch_bend_c, 2, 12032
6, 3907, Pitch_bend_c, 2, 11904
6, 3908, Pitch_bend_c, 2, 11776
6, 3910, Pitch_bend_c, 2, 11648
6, 3912, Pitch_bend_c, 2, 11520
6, 3919, Pitch_bend_c, 2, 10848
6, 3924, Pitch_bend_c, 2, 9600
6, 3929, Pitch_bend_c, 2, 8736
6, 3934, Pitch_bend_c, 2, 8576
6, 3938, Note_on_c, 2, 69, 0
6, 3938, Pitch_bend_c, 2, 9024
6, 3942, Pitch_bend_c, 2, 8192
6, 3944, Note_on_c, 2, 67, 82
6, 3959, Pitch_bend_c, 2, 8256
6, 3964, Pitch_bend_c, 2, 9184
6, 3969, Pitch_bend_c, 2, 10368
6, 3974, Pitch_bend_c, 2, 11264
6, 3979, Pitch_bend_c, 2, 11808
6, 3984, Pitch_bend_c, 2, 12160
6, 3986, Note_on_c, 2, 67, 0
6, 4028, Note_on_c, 2, 65, 92
6, 4028, Pitch_bend_c, 2, 8192
6, 4029, Pitch_bend_c, 2, 8480
6, 4054, Pitch_bend_c, 2, 8416
6, 4070, Pitch_bend_c, 2, 8320
6, 4072, Note_on_c, 2, 65, 0
6, 4072, Pitch_bend_c, 2, 8416
6, 4077, Pitch_bend_c, 2, 8192
6, 4078, Note_on_c, 2, 64, 73
6, 4087, Pitch_bend_c, 2, 8352
6, 4094, Pitch_bend_c, 2, 8288
6, 4099, Pitch_bend_c, 2, 8352
6, 4114, Pitch_bend_c, 2, 8576
6, 4117, Note_on_c, 2, 64, 0
6, 4123, Pitch_bend_c, 2, 8192
6, 4124, Note_on_c, 2, 62, 77
6, 4124, Pitch_bend_c, 2, 8960
6, 4125, Pitch_bend_c, 2, 8192
6, 4139, Pitch_bend_c, 2, 8224
6, 4142, Pitch_bend_c, 2, 8192
6, 4157, Pitch_bend_c, 2, 8224
6, 4163, Pitch_bend_c, 2, 8320
6, 4168, Pitch_bend_c, 2, 8416
6, 4170, Note_on_c, 2, 62, 0
6, 4176, Pitch_bend_c, 2, 8480
6, 4176, Note_on_c, 2, 62, 77
6, 4181, Pitch_bend_c, 2, 8384
6, 4186, Pitch_bend_c, 2, 8320
6, 4201, Pitch_bend_c, 2, 8192
6, 4219, Pitch_bend_c, 2, 8384
6, 4224, Pitch_bend_c, 2, 8576
6, 4232, Pitch_bend_c, 2, 8512
6, 4239, Pitch_bend_c, 2, 8064
6, 4242, Note_on_c, 2, 62, 0
6, 4269, Pitch_bend_c, 2, 8192
6, 4270, Pitch_bend_c, 2, 8512
6, 4270, Note_on_c, 2, 67, 92
6, 4271, Pitch_bend_c, 2, 8640
6, 4275, Pitch_bend_c, 2, 8736
6, 4280, Pitch_bend_c, 2, 8640
6, 4288, Pitch_bend_c, 2, 8736
6, 4293, Pitch_bend_c, 2, 9728
6, 4298, Pitch_bend_c, 2, 10944
6, 4303, Pitch_bend_c, 2, 11712
6, 4308, Pitch_bend_c, 2, 11936
6, 4313, Pitch_bend_c, 2, 11456
6, 4319, Note_on_c, 2, 67, 0
6, 4319, Pitch_bend_c, 2, 11872
6, 4324, Pitch_bend_c, 2, 8192
6, 4325, Note_on_c, 2, 65, 82
6, 4325, Pitch_bend_c, 2, 8960
6, 4327, Pitch_bend_c, 2, 8224
6, 4333, Pitch_bend_c, 2, 8416
6, 4338, Pitch_bend_c, 2, 8896
6, 4343, Pitch_bend_c, 2, 9024
6, 4347, Note_on_c, 2, 65, 0
6, 4348, Note_on_c, 2, 62, 56
6, 4358, Pitch_bend_c, 2, 8320
6, 4363, Pitch_bend_c, 2, 8192
6, 4386, Pitch_bend_c, 2, 8128
6, 4420, Pitch_bend_c, 2, 8096
6, 4424, Pitch_bend_c, 2, 8032
6, 4434, Note_on_c, 2, 62, 0
6, 4509, Pitch_bend_c, 2, 8192
6, 4510, Pitch_bend_c, 2, 7488
6, 4510, Note_on_c, 2, 69, 83
6, 4512, Pitch_bend_c, 2, 7232
6, 4521, Pitch_bend_c, 2, 7136
6, 4526, Pitch_bend_c, 2, 4704
6, 4531, Pitch_bend_c, 2, 1824
6, 4536, Pitch_bend_c, 2, 1440
6, 4541, Pitch_bend_c, 2, 896
6, 4546, Pitch_bend_c, 2, 640
6, 4551, Pitch_bend_c, 2, 288
6, 4556, Note_on_c, 2, 69, 0
6, 4560, Pitch_bend_c, 2, 8192
6, 4561, Pitch_bend_c, 2, 8224
6, 4561, Note_on_c, 2, 62, 56
6, 4566, Pitch_bend_c, 2, 8192
6, 4571, Note_on_c, 2, 62, 0
6, 4605, Note_on_c, 2, 65, 82
6, 4605, Pitch_bend_c, 2, 8576
6, 4606, Pitch_bend_c, 2, 8288
6, 4607, Pitch_bend_c, 2, 8192
6, 4608, Pitch_bend_c, 2, 8288
6, 4613, Pitch_bend_c, 2, 8352
6, 4618, Pitch_bend_c, 2, 8416
6, 4625, Pitch_bend_c, 2, 8480
6, 4638, Pitch_bend_c, 2, 8416
6, 4656, Pitch_bend_c, 2, 8544
6, 4662, Pitch_bend_c, 2, 8800
6, 4672, Pitch_bend_c, 2, 8544
6, 4677, Pitch_bend_c, 2, 8320
6, 4687, Pitch_bend_c, 2, 8448
6, 4692, Pitch_bend_c, 2, 8640
6, 4704, Pitch_bend_c, 2, 8512
6, 4712, Pitch_bend_c, 2, 8448
6, 4717, Pitch_bend_c, 2, 8640
6, 4722, Pitch_bend_c, 2, 8768
6, 4727, Pitch_bend_c, 2, 8608
6, 4732, Pitch_bend_c, 2, 8448
6, 4740, Pitch_bend_c, 2, 8544
6, 4745, Pitch_bend_c, 2, 8672
6, 4753, Pitch_bend_c, 2, 8608
6, 4758, Pitch_bend_c, 2, 8544
6, 4765, Note_on_c, 2, 65, 0
6, 4765, Pitch_bend_c, 2, 8608
6, 4894, Pitch_bend_c, 2, 8192
6, 4895, Note_on_c, 2, 74, 70
6, 4896, Pitch_bend_c, 2, 8512
6, 4903, Note_on_c, 2, 74, 0
6, 4903, Pitch_bend_c, 2, 8576
6, 4941, Pitch_bend_c, 2, 8192
6, 4942, Note_on_c, 2, 74, 86
6, 4942, Pitch_bend_c, 2, 8672
6, 4943, Pitch_bend_c, 2, 8576
6, 4955, Pitch_bend_c, 2, 8512
6, 4960, Pitch_bend_c, 2, 8416
6, 4966, Pitch_bend_c, 2, 8320
6, 4973, Pitch_bend_c, 2, 8416
6, 4986, Pitch_bend_c, 2, 8320
6, 5013, Pitch_bend_c, 2, 8192
6, 5042, Pitch_bend_c, 2, 8288
6, 5047, Pitch_bend_c, 2, 8192
6, 5057, Pitch_bend_c, 2, 8288
6, 5067, Pitch_bend_c, 2, 8320
6, 5072, Pitch_bend_c, 2, 8192
6, 5083, Note_on_c, 2, 74, 0
6, 5088, Note_on_c, 2, 74, 84
6, 5119, Note_on_c, 2, 74, 0
6, 5279, Note_on_c, 2, 74, 90
6, 5289, Pitch_bend_c, 2, 8288
6, 5326, Note_on_c, 2, 74, 0
6, 5326, Pitch_bend_c, 2, 8192
6, 5330, Note_on_c, 2, 74, 82
6, 5331, Pitch_bend_c, 2, 8320
6, 5342, Pitch_bend_c, 2, 8256
6, 5345, Pitch_bend_c, 2, 8192
6, 5348, Pitch_bend_c, 2, 8064
6, 5350, Note_on_c, 2, 74, 0
6, 5470, Pitch_bend_c, 2, 8192
6, 5471, Note_on_c, 2, 69, 89
6, 5471, Pitch_bend_c, 2, 8512
6, 5481, Pitch_bend_c, 2, 8448
6, 5489, Pitch_bend_c, 2, 8384
6, 5517, Pitch_bend_c, 2, 8320
6, 5519, Note_on_c, 2, 69, 0
6, 5520, Note_on_c, 2, 71, 65
6, 5533, Pitch_bend_c, 2, 8384
6, 5541, Pitch_bend_c, 2, 8288
6, 5542, Note_on_c, 2, 71, 0
6, 5572, Pitch_bend_c, 2, 8192
6, 5573, Note_on_c, 2, 74, 87
6, 5573, Pitch_bend_c, 2, 8256
6, 5587, Pitch_bend_c, 2, 8192
6, 5595, Pitch_bend_c, 2, 8256
6, 5600, Pitch_bend_c, 2, 8320
6, 5636, Pitch_bend_c, 2, 8416
6, 5641, Pitch_bend_c, 2, 8512
6, 5648, Pitch_bend_c, 2, 8384
6, 5654, Pitch_bend_c, 2, 8256
6, 5659, Pitch_bend_c, 2, 8448
6, 5664, Pitch_bend_c, 2, 8672
6, 5673, Pitch_bend_c, 2, 8512
6, 5679, Pitch_bend_c, 2, 8320
6, 5686, Pitch_bend_c, 2, 8416
6, 5718, Pitch_bend_c, 2, 8256
6, 5720, Pitch_bend_c, 2, 8192
6, 5730, Pitch_bend_c, 2, 7840
6, 5732, Note_on_c, 2, 74, 0
6, 5856, Pitch_bend_c, 2, 8192
6, 5857, Note_on_c, 2, 76, 88
6, 5857, Pitch_bend_c, 2, 8384
6, 5870, Pitch_bend_c, 2, 8480
6, 5875, Pitch_bend_c, 2, 8576
6, 5880, Pitch_bend_c, 2, 8672
6, 5885, Pitch_bend_c, 2, 8800
6, 5890, Pitch_bend_c, 2, 9056
6, 5895, Pitch_bend_c, 2, 9248
6, 5901, Pitch_bend_c, 2, 9472
6, 5906, Pitch_bend_c, 2, 9760
6, 5911, Pitch_bend_c, 2, 10208
6, 5916, Pitch_bend_c, 2, 10624
6, 5921, Pitch_bend_c, 2, 11104
6, 5926, Pitch_bend_c, 2, 11488
6, 5931, Pitch_bend_c, 2, 11648
6, 5939, Pitch_bend_c, 2, 11488
6, 5944, Pitch_bend_c, 2, 10624
6, 5946, Note_on_c, 2, 76, 0
6, 5953, Pitch_bend_c, 2, 8192
6, 5954, Note_on_c, 2, 74, 83
6, 5955, Pitch_bend_c, 2, 8896
6, 5977, Pitch_bend_c, 2, 8800
6, 5987, Note_on_c, 2, 74, 0
6, 6000, Pitch_bend_c, 2, 8192
6, 6000, Note_on_c, 2, 72, 68
6, 6001, Pitch_bend_c, 2, 8608
6, 6016, Note_on_c, 2, 72, 0
6, 6016, Note_on_c, 2, 69, 63
6, 6016, Pitch_bend_c, 2, 8672
6, 6017, Pitch_bend_c, 2, 8736
6, 6018, Pitch_bend_c, 2, 8800
6, 6045, Pitch_bend_c, 2, 8736
6, 6050, Pitch_bend_c, 2, 8672
6, 6056, Pitch_bend_c, 2, 8608
6, 6057, Note_on_c, 2, 69, 0
6, 6057, Pitch_bend_c, 2, 8704
6, 6237, Pitch_bend_c, 2, 8192
6, 6238, Note_on_c, 2, 71, 82
6, 6253, Pitch_bend_c, 2, 9248
6, 6258, Pitch_bend_c, 2, 12032
6, 6263, Pitch_bend_c, 2, 13376
6, 6268, Pitch_bend_c, 2, 14560
6, 6273, Pitch_bend_c, 2, 14720
6, 6278, Pitch_bend_c, 2, 14016
6, 6283, Pitch_bend_c, 2, 10688
6, 6288, Note_on_c, 2, 71, 0
6, 6288, Pitch_bend_c, 2, 8192
6, 6290, Note_on_c, 2, 74, 76
6, 6302, Pitch_bend_c, 2, 8288
6, 6305, Note_on_c, 2, 74, 0
6, 6305, Pitch_bend_c, 2, 8640
6, 6331, Pitch_bend_c, 2, 8192
6, 6332, Note_on_c, 2, 74, 90
6, 6333, Pitch_bend_c, 2, 8416
6, 6344, Note_on_c, 2, 74, 0
6, 6344, Note_on_c, 2, 76, 76
6, 6370, Note_on_c, 2, 76, 0
6, 6370, Pitch_bend_c, 2, 8384
6, 6384, Note_on_c, 2, 73, 90
6, 6384, Pitch_bend_c, 2, 8192
6, 6394, Pitch_bend_c, 2, 8576
6, 6405, Pitch_bend_c, 2, 8384
6, 6407, Note_on_c, 2, 73, 0
6, 6432, Pitch_bend_c, 2, 8192
6, 6433, Note_on_c, 2, 69, 73
6, 6434, Pitch_bend_c, 2, 8544
6, 6448, Pitch_bend_c, 2, 8480
6, 6454, Pitch_bend_c, 2, 8544
6, 6458, Pitch_bend_c, 2, 8672
6, 6466, Pitch_bend_c, 2, 8608
6, 6471, Pitch_bend_c, 2, 8512
6, 6477, Pitch_bend_c, 2, 8576
6, 6482, Pitch_bend_c, 2, 8640
6, 6488, Note_on_c, 2, 69, 0
6, 6488, Pitch_bend_c, 2, 8544
6, 6527, Pitch_bend_c, 2, 8192
6, 6528, Note_on_c, 2, 69, 87
6, 6528, Pitch_bend_c, 2, 8480
6, 6530, Pitch_bend_c, 2, 8544
6, 6573, Note_on_c, 2, 69, 0
6, 6573, Pitch_bend_c, 2, 8576
6, 6620, Pitch_bend_c, 2, 8192
6, 6621, Note_on_c, 2, 67, 89
6, 6622, Pitch_bend_c, 2, 9728
6, 6623, Pitch_bend_c, 2, 9664
6, 6628, Pitch_bend_c, 2, 10304
6, 6633, Pitch_bend_c, 2, 11424
6, 6639, Pitch_bend_c, 2, 12288
6, 6644, Pitch_bend_c, 2, 13056
6, 6649, Pitch_bend_c, 2, 13728
6, 6654, Pitch_bend_c, 2, 14080
6, 6659, Pitch_bend_c, 2, 14240
6, 6672, Pitch_bend_c, 2, 14016
6, 6677, Pitch_bend_c, 2, 11104
6, 6682, Pitch_bend_c, 2, 10176
6, 6687, Pitch_bend_c, 2, 9408
6, 6692, Pitch_bend_c, 2, 8992
6, 6697, Pitch_bend_c, 2, 8736
6, 6702, Pitch_bend_c, 2, 8704
6, 6717, Pitch_bend_c, 2, 8672
6, 6733, Pitch_bend_c, 2, 8608
6, 6753, Pitch_bend_c, 2, 8512
6, 6761, Pitch_bend_c, 2, 8448
6, 6763, Note_on_c, 2, 67, 0
6, 6763, Pitch_bend_c, 2, 8192
6, 6764, Note_on_c, 2, 69, 82
6, 6765, Pitch_bend_c, 2, 8672
6, 6766, Pitch_bend_c, 2, 8640
6, 6777, Pitch_bend_c, 2, 8576
6, 6800, Pitch_bend_c, 2, 8544
6, 6810, Pitch_bend_c, 2, 8608
6, 6812, Note_on_c, 2, 69, 0
6, 6815, Pitch_bend_c, 2, 8192
6, 6816, Note_on_c, 2, 69, 87
6, 6817, Pitch_bend_c, 2, 8640
6, 6826, Pitch_bend_c, 2, 8704
6, 6833, Pitch_bend_c, 2, 8640
6, 6851, Pitch_bend_c, 2, 8576
6, 6856, Pitch_bend_c, 2, 8512
6, 6862, Pitch_bend_c, 2, 8224
6, 6864, Note_on_c, 2, 69, 0
6, 6864, Pitch_bend_c, 2, 8544
6, 6909, Pitch_bend_c, 2, 8192
6, 6911, Note_on_c, 2, 69, 84
6, 6912, Pitch_bend_c, 2, 8704
6, 6918, Pitch_bend_c, 2, 8768
6, 6933, Pitch_bend_c, 2, 8704
6, 6959, Pitch_bend_c, 2, 8864
6, 6964, Pitch_bend_c, 2, 9152
6, 6969, Pitch_bend_c, 2, 9632
6, 6974, Pitch_bend_c, 2, 10336
6, 6979, Pitch_bend_c, 2, 11136
6, 6984, Pitch_bend_c, 2, 11680
6, 6995, Pitch_bend_c, 2, 11488
6, 7000, Pitch_bend_c, 2, 10368
6, 7002, Note_on_c, 2, 69, 0
6, 7008, Note_on_c, 2, 67, 90
6, 7008, Pitch_bend_c, 2, 8768
6, 7010, Pitch_bend_c, 2, 8928
6, 7012, Pitch_bend_c, 2, 9120
6, 7020, Pitch_bend_c, 2, 8992
6, 7025, Pitch_bend_c, 2, 8864
6, 7035, Pitch_bend_c, 2, 8960
6, 7042, Pitch_bend_c, 2, 9056
6, 7048, Pitch_bend_c, 2, 8800
6, 7049, Note_on_c, 2, 67, 0
6, 7052, Pitch_bend_c, 2, 8192
6, 7054, Pitch_bend_c, 2, 8384
6, 7054, Note_on_c, 2, 64, 70
6, 7055, Pitch_bend_c, 2, 8448
6, 7070, Pitch_bend_c, 2, 8352
6, 7072, Pitch_bend_c, 2, 8192
6, 7075, Note_on_c, 2, 64, 0
6, 7075, Pitch_bend_c, 2, 8128
6, 7103, Pitch_bend_c, 2, 8192
6, 7104, Note_on_c, 2, 62, 84
6, 7104, Pitch_bend_c, 2, 9152
6, 7105, Pitch_bend_c, 2, 8768
6, 7119, Pitch_bend_c, 2, 8672
6, 7124, Pitch_bend_c, 2, 8992
6, 7131, Pitch_bend_c, 2, 8960
6, 7136, Pitch_bend_c, 2, 8576
6, 7142, Pitch_bend_c, 2, 8384
6, 7152, Pitch_bend_c, 2, 8512
6, 7162, Pitch_bend_c, 2, 8448
6, 7168, Pitch_bend_c, 2, 8384
6, 7172, Pitch_bend_c, 2, 8544
6, 7178, Pitch_bend_c, 2, 9216
6, 7183, Pitch_bend_c, 2, 9856
6, 7188, Pitch_bend_c, 2, 9760
6, 7193, Pitch_bend_c, 2, 9344
6, 7198, Pitch_bend_c, 2, 8736
6, 7200, Note_on_c, 2, 62, 0
6, 7201, Pitch_bend_c, 2, 8192
6, 7202, Note_on_c, 2, 58, 70
6, 7202, Pitch_bend_c, 2, 8288
6, 7203, Pitch_bend_c, 2, 8352
6, 7212, Pitch_bend_c, 2, 8288
6, 7227, Pitch_bend_c, 2, 8032
6, 7229, Note_on_c, 2, 58, 0
6, 7340, Pitch_bend_c, 2, 8192
6, 7344, Pitch_bend_c, 2, 8672
6, 7344, Note_on_c, 2, 74, 75
6, 7345, Pitch_bend_c, 2, 8576
6, 7352, Pitch_bend_c, 2, 8512
6, 7384, Note_on_c, 2, 74, 0
6, 7384, Pitch_bend_c, 2, 8640
6, 7411, Pitch_bend_c, 2, 8192
6, 7413, Note_on_c, 2, 69, 84
6, 7414, Pitch_bend_c, 2, 8864
6, 7426, Pitch_bend_c, 2, 8800
6, 7437, Pitch_bend_c, 2, 9216
6, 7442, Pitch_bend_c, 2, 9920
6, 7447, Pitch_bend_c, 2, 10560
6, 7452, Pitch_bend_c, 2, 10976
6, 7457, Pitch_bend_c, 2, 11104
6, 7464, Pitch_bend_c, 2, 10880
6, 7470, Pitch_bend_c, 2, 9984
6, 7474, Pitch_bend_c, 2, 8672
6, 7475, Note_on_c, 2, 69, 0
6, 7482, Pitch_bend_c, 2, 8192
6, 7510, Note_on_c, 2, 67, 83
6, 7511, Pitch_bend_c, 2, 8672
6, 7512, Pitch_bend_c, 2, 8736
6, 7539, Pitch_bend_c, 2, 8672
6, 7547, Pitch_bend_c, 2, 8544
6, 7562, Pitch_bend_c, 2, 8640
6, 7563, Note_on_c, 2, 67, 0
6, 7583, Pitch_bend_c, 2, 8704
6, 7583, Note_on_c, 2, 65, 90
6, 7608, Pitch_bend_c, 2, 8640
6, 7609, Pitch_bend_c, 2, 8192
6, 7609, Note_on_c, 2, 62, 67
6, 7614, Note_on_c, 2, 65, 0
6, 7618, Pitch_bend_c, 2, 8576
6, 7625, Pitch_bend_c, 2, 8512
6, 7650, Pitch_bend_c, 2, 8576
6, 7661, Pitch_bend_c, 2, 8480
6, 7665, Pitch_bend_c, 2, 8832
6, 7670, Pitch_bend_c, 2, 8960
6, 7676, Pitch_bend_c, 2, 8768
6, 7680, Note_on_c, 2, 62, 0
6, 7682, Pitch_bend_c, 2, 8192
6, 7683, Note_on_c, 2, 62, 72
6, 7684, Pitch_bend_c, 2, 8832
6, 7686, Pitch_bend_c, 2, 8608
6, 7698, Pitch_bend_c, 2, 8512
6, 7719, Pitch_bend_c, 2, 8448
6, 7724, Pitch_bend_c, 2, 8384
6, 7729, Pitch_bend_c, 2, 8448
6, 7734, Pitch_bend_c, 2, 8512
6, 7744, Pitch_bend_c, 2, 8416
6, 7749, Pitch_bend_c, 2, 8352
6, 7762, Pitch_bend_c, 2, 8160
6, 7763, Note_on_c, 2, 62, 0
6, 7820, Pitch_bend_c, 2, 8192
6, 7868, Note_on_c, 2, 60, 78
6, 7868, Pitch_bend_c, 2, 8480
6, 7872, Pitch_bend_c, 2, 8544
6, 7880, Pitch_bend_c, 2, 8480
6, 7893, Pitch_bend_c, 2, 8416
6, 7900, Pitch_bend_c, 2, 8352
6, 7912, Note_on_c, 2, 60, 0
6, 7912, Pitch_bend_c, 2, 8416
6, 7916, Pitch_bend_c, 2, 8192
6, 7917, Pitch_bend_c, 2, 8704
6, 7917, Note_on_c, 2, 62, 67
6, 7918, Pitch_bend_c, 2, 8320
6, 7926, Pitch_bend_c, 2, 8192
6, 7928, Pitch_bend_c, 2, 7872
6, 7930, Note_on_c, 2, 62, 0
6, 7965, Pitch_bend_c, 2, 8192
6, 7966, Note_on_c, 2, 65, 92
6, 7967, Pitch_bend_c, 2, 9216
6, 7968, Pitch_bend_c, 2, 8608
6, 7977, Pitch_bend_c, 2, 8672
6, 7982, Pitch_bend_c, 2, 8800
6, 7987, Pitch_bend_c, 2, 9024
6, 7992, Pitch_bend_c, 2, 9408
6, 7998, Pitch_bend_c, 2, 9920
6, 8003, Pitch_bend_c, 2, 10624
6, 8008, Pitch_bend_c, 2, 11264
6, 8013, Pitch_bend_c, 2, 11488
6, 8020, Pitch_bend_c, 2, 11104
6, 8026, Pitch_bend_c, 2, 9920
6, 8031, Pitch_bend_c, 2, 8864
6, 8036, Pitch_bend_c, 2, 8640
6, 8043, Pitch_bend_c, 2, 8512
6, 8048, Pitch_bend_c, 2, 8448
6, 8054, Pitch_bend_c, 2, 8768
6, 8058, Note_on_c, 2, 62, 72
6, 8058, Pitch_bend_c, 2, 8192
6, 8061, Note_on_c, 2, 65, 0
6, 8069, Pitch_bend_c, 2, 8736
6, 8079, Pitch_bend_c, 2, 8608
6, 8084, Pitch_bend_c, 2, 8448
6, 8095, Pitch_bend_c, 2, 8384
6, 8107, Pitch_bend_c, 2, 8320
6, 8112, Pitch_bend_c, 2, 8256
6, 8122, Pitch_bend_c, 2, 8352
6, 8145, Pitch_bend_c, 2, 8384
6, 8150, Pitch_bend_c, 2, 8448
6, 8161, Pitch_bend_c, 2, 8384
6, 8173, Pitch_bend_c, 2, 8448
6, 8181, Pitch_bend_c, 2, 8352
6, 8186, Pitch_bend_c, 2, 8288
6, 8234, Note_on_c, 2, 62, 0
6, 8234, Pitch_bend_c, 2, 8192
6, 8448, Note_on_c, 2, 75, 90
6, 8448, Pitch_bend_c, 2, 4448
6, 8454, Pitch_bend_c, 2, 4352
6, 8470, Pitch_bend_c, 2, 4256
6, 8482, Pitch_bend_c, 2, 4192
6, 8495, Pitch_bend_c, 2, 4256
6, 8508, Pitch_bend_c, 2, 4000
6, 8509, Note_on_c, 2, 75, 0
6, 8637, Pitch_bend_c, 2, 8192
6, 8638, Note_on_c, 2, 67, 90
6, 8638, Pitch_bend_c, 2, 8800
6, 8639, Pitch_bend_c, 2, 8672
6, 8662, Pitch_bend_c, 2, 8576
6, 8667, Pitch_bend_c, 2, 8480
6, 8675, Pitch_bend_c, 2, 8288
6, 8677, Pitch_bend_c, 2, 8192
6, 8679, Note_on_c, 2, 67, 0
6, 8679, Pitch_bend_c, 2, 8480
6, 8687, Pitch_bend_c, 2, 8192
6, 8688, Note_on_c, 2, 65, 92
6, 8688, Pitch_bend_c, 2, 8704
6, 8709, Pitch_bend_c, 2, 8640
6, 8715, Pitch_bend_c, 2, 8416
6, 8716, Note_on_c, 2, 65, 0
6, 8735, Pitch_bend_c, 2, 8192
6, 8737, Note_on_c, 2, 62, 94
6, 8738, Pitch_bend_c, 2, 8576
6, 8784, Note_on_c, 2, 62, 0
6, 8790, Pitch_bend_c, 2, 8192
6, 8792, Note_on_c, 2, 60, 67
6, 8792, Pitch_bend_c, 2, 8480
6, 8793, Pitch_bend_c, 2, 8512
6, 8807, Pitch_bend_c, 2, 8416
6, 8809, Pitch_bend_c, 2, 8192
6, 8811, Note_on_c, 2, 60, 0
6, 8811, Pitch_bend_c, 2, 8512
6, 8921, Pitch_bend_c, 2, 8192
6, 8978, Note_on_c, 2, 65, 95
6, 8979, Pitch_bend_c, 2, 8768
6, 8991, Pitch_bend_c, 2, 8896
6, 8996, Pitch_bend_c, 2, 9088
6, 9003, Pitch_bend_c, 2, 9152
6, 9009, Pitch_bend_c, 2, 9056
6, 9014, Pitch_bend_c, 2, 8864
6, 9019, Pitch_bend_c, 2, 8448
6, 9024, Note_on_c, 2, 65, 0
6, 9024, Pitch_bend_c, 2, 8928
6, 9026, Pitch_bend_c, 2, 8192
6, 9027, Note_on_c, 2, 62, 72
6, 9028, Pitch_bend_c, 2, 8736
6, 9032, Pitch_bend_c, 2, 8800
6, 9037, Pitch_bend_c, 2, 8928
6, 9042, Pitch_bend_c, 2, 8992
6, 9047, Pitch_bend_c, 2, 8736
6, 9052, Note_on_c, 2, 62, 0
6, 9052, Pitch_bend_c, 2, 8960
6, 9073, Pitch_bend_c, 2, 8192
6, 9075, Pitch_bend_c, 2, 8384
6, 9075, Note_on_c, 2, 62, 70
6, 9077, Pitch_bend_c, 2, 8480
6, 9092, Pitch_bend_c, 2, 8384
6, 9097, Note_on_c, 2, 62, 0
6, 9097, Pitch_bend_c, 2, 8512
6, 9119, Pitch_bend_c, 2, 8192
6, 9120, Pitch_bend_c, 2, 8512
6, 9120, Note_on_c, 2, 62, 84
6, 9143, Pitch_bend_c, 2, 8448
6, 9156, Pitch_bend_c, 2, 8512
6, 9160, Note_on_c, 2, 62, 0
6, 9167, Pitch_bend_c, 2, 8192
6, 9168, Note_on_c, 2, 60, 77
6, 9168, Pitch_bend_c, 2, 8544
6, 9184, Pitch_bend_c, 2, 8448
6, 9189, Pitch_bend_c, 2, 8352
6, 9193, Note_on_c, 2, 60, 0
6, 9193, Pitch_bend_c, 2, 8512
6, 9312, Note_on_c, 2, 67, 87
6, 9312, Pitch_bend_c, 2, 8192
6, 9313, Pitch_bend_c, 2, 8672
6, 9320, Pitch_bend_c, 2, 8736
6, 9325, Pitch_bend_c, 2, 8576
6, 9330, Pitch_bend_c, 2, 8320
6, 9334, Note_on_c, 2, 67, 0
6, 9334, Pitch_bend_c, 2, 8640
6, 9359, Pitch_bend_c, 2, 8192
6, 9360, Note_on_c, 2, 67, 84
6, 9383, Pitch_bend_c, 2, 8768
6, 9388, Pitch_bend_c, 2, 11200
6, 9393, Pitch_bend_c, 2, 12096
6, 9398, Pitch_bend_c, 2, 13248
6, 9403, Pitch_bend_c, 2, 13056
6, 9408, Pitch_bend_c, 2, 10016
6, 9413, Pitch_bend_c, 2, 9120
6, 9418, Pitch_bend_c, 2, 8448
6, 9426, Pitch_bend_c, 2, 8288
6, 9427, Note_on_c, 2, 67, 0
6, 9433, Pitch_bend_c, 2, 8192
6, 9436, Note_on_c, 2, 65, 92
6, 9437, Pitch_bend_c, 2, 8576
6, 9439, Pitch_bend_c, 2, 8640
6, 9444, Pitch_bend_c, 2, 8544
6, 9449, Pitch_bend_c, 2, 8480
6, 9454, Pitch_bend_c, 2, 8352
6, 9459, Note_on_c, 2, 65, 0
6, 9459, Pitch_bend_c, 2, 8512
6, 9461, Pitch_bend_c, 2, 8192
6, 9462, Pitch_bend_c, 2, 8608
6, 9462, Note_on_c, 2, 62, 74
6, 9467, Pitch_bend_c, 2, 8512
6, 9474, Pitch_bend_c, 2, 8448
6, 9492, Pitch_bend_c, 2, 8384
6, 9497, Pitch_bend_c, 2, 8288
6, 9517, Pitch_bend_c, 2, 8352
6, 9522, Note_on_c, 2, 62, 0
6, 9522, Pitch_bend_c, 2, 8320
6, 9695, Pitch_bend_c, 2, 8192
6, 9695, Note_on_c, 2, 67, 87
6, 9696, Pitch_bend_c, 2, 8576
6, 9713, Pitch_bend_c, 2, 8448
6, 9715, Note_on_c, 2, 67, 0
6, 9742, Pitch_bend_c, 2, 8192
6, 9744, Note_on_c, 2, 65, 92
6, 9744, Pitch_bend_c, 2, 8672
6, 9746, Pitch_bend_c, 2, 8736
6, 9753, Pitch_bend_c, 2, 8928
6, 9759, Pitch_bend_c, 2, 9280
6, 9763, Pitch_bend_c, 2, 9696
6, 9769, Pitch_bend_c, 2, 10016
6, 9774, Pitch_bend_c, 2, 10112
6, 9779, Pitch_bend_c, 2, 10272
6, 9786, Note_on_c, 2, 65, 0
6, 9794, Pitch_bend_c, 2, 8192
6, 9795, Note_on_c, 2, 62, 56
6, 9796, Pitch_bend_c, 2, 9024
6, 9797, Pitch_bend_c, 2, 8480
6, 9809, Pitch_bend_c, 2, 8384
6, 9816, Pitch_bend_c, 2, 8448
6, 9827, Pitch_bend_c, 2, 8320
6, 9837, Pitch_bend_c, 2, 8512
6, 9842, Pitch_bend_c, 2, 8672
6, 9847, Pitch_bend_c, 2, 8576
6, 9853, Pitch_bend_c, 2, 8448
6, 9857, Pitch_bend_c, 2, 8384
6, 9862, Pitch_bend_c, 2, 8320
6, 9868, Pitch_bend_c, 2, 8256
6, 9875, Pitch_bend_c, 2, 8352
6, 9880, Note_on_c, 2, 62, 0
6, 9884, Pitch_bend_c, 2, 8192
6, 9885, Note_on_c, 2, 65, 87
6, 9885, Pitch_bend_c, 2, 8384
6, 9888, Pitch_bend_c, 2, 8480
6, 9895, Pitch_bend_c, 2, 8544
6, 9911, Pitch_bend_c, 2, 8416
6, 9913, Note_on_c, 2, 65, 0
6, 10077, Pitch_bend_c, 2, 8192
6, 10078, Note_on_c, 2, 67, 92
6, 10081, Pitch_bend_c, 2, 8352
6, 10082, Pitch_bend_c, 2, 8416
6, 10090, Pitch_bend_c, 2, 8480
6, 10095, Pitch_bend_c, 2, 8416
6, 10100, Pitch_bend_c, 2, 8352
6, 10103, Pitch_bend_c, 2, 8192
6, 10104, Note_on_c, 2, 67, 0
6, 10104, Pitch_bend_c, 2, 8448
6, 10130, Pitch_bend_c, 2, 8192
6, 10131, Note_on_c, 2, 65, 72
6, 10131, Pitch_bend_c, 2, 8320
6, 10145, Pitch_bend_c, 2, 8352
6, 10149, Note_on_c, 2, 65, 0
6, 10149, Pitch_bend_c, 2, 8416
6, 10176, Pitch_bend_c, 2, 8192
6, 10177, Note_on_c, 2, 67, 91
6, 10177, Pitch_bend_c, 2, 8480
6, 10196, Pitch_bend_c, 2, 8608
6, 10204, Pitch_bend_c, 2, 288
6, 10222, Note_on_c, 2, 67, 0
6, 10222, Pitch_bend_c, 2, 8192
6, 10222, Note_on_c, 2, 62, 68
6, 10232, Pitch_bend_c, 2, 8448
6, 10239, Note_on_c, 2, 62, 0
6, 10268, Pitch_bend_c, 2, 8192
6, 10270, Note_on_c, 2, 62, 84
6, 10270, Pitch_bend_c, 2, 8768
6, 10276, Pitch_bend_c, 2, 8576
6, 10281, Pitch_bend_c, 2, 8960
6, 10286, Pitch_bend_c, 2, 9280
6, 10291, Pitch_bend_c, 2, 8896
6, 10296, Pitch_bend_c, 2, 8480
6, 10304, Pitch_bend_c, 2, 8576
6, 10310, Pitch_bend_c, 2, 9024
6, 10315, Pitch_bend_c, 2, 9184
6, 10318, Note_on_c, 2, 62, 0
6, 10324, Pitch_bend_c, 2, 8192
6, 10325, Pitch_bend_c, 2, 8448
6, 10325, Note_on_c, 2, 60, 57
6, 10341, Pitch_bend_c, 2, 8384
6, 10345, Pitch_bend_c, 2, 8320
6, 10346, Note_on_c, 2, 60, 0
6, 10510, Pitch_bend_c, 2, 8192
6, 10511, Pitch_bend_c, 2, 8992
6, 10511, Note_on_c, 2, 72, 86
6, 10516, Pitch_bend_c, 2, 8800
6, 10521, Pitch_bend_c, 2, 8672
6, 10526, Pitch_bend_c, 2, 8416
6, 10528, Note_on_c, 2, 72, 0
6, 10556, Pitch_bend_c, 2, 8192
6, 10558, Note_on_c, 2, 67, 87
6, 10559, Pitch_bend_c, 2, 8704
6, 10560, Pitch_bend_c, 2, 8480
6, 10572, Pitch_bend_c, 2, 8608
6, 10577, Pitch_bend_c, 2, 8768
6, 10582, Pitch_bend_c, 2, 512
6, 10587, Pitch_bend_c, 2, 384
6, 10592, Pitch_bend_c, 2, 288
6, 10600, Pitch_bend_c, 2, 352
6, 10605, Pitch_bend_c, 2, 448
6, 10610, Note_on_c, 2, 67, 0
6, 10611, Pitch_bend_c, 2, 8192
6, 10611, Note_on_c, 2, 62, 60
6, 10612, Pitch_bend_c, 2, 8448
6, 10624, Note_on_c, 2, 62, 0
6, 10624, Pitch_bend_c, 2, 8480
6, 10653, Pitch_bend_c, 2, 8192
6, 10654, Pitch_bend_c, 2, 8704
6, 10654, Note_on_c, 2, 62, 86
6, 10675, Pitch_bend_c, 2, 8608
6, 10680, Pitch_bend_c, 2, 8448
6, 10688, Pitch_bend_c, 2, 8352
6, 10692, Pitch_bend_c, 2, 8416
6, 10697, Pitch_bend_c, 2, 8544
6, 10702, Note_on_c, 2, 62, 0
6, 10707, Pitch_bend_c, 2, 8192
6, 10709, Note_on_c, 2, 60, 72
6, 10709, Pitch_bend_c, 2, 8800
6, 10710, Pitch_bend_c, 2, 8672
6, 10711, Pitch_bend_c, 2, 8576
6, 10721, Pitch_bend_c, 2, 8512
6, 10729, Note_on_c, 2, 60, 0
6, 10729, Pitch_bend_c, 2, 8544
6, 10845, Note_on_c, 2, 67, 87
6, 10845, Pitch_bend_c, 2, 8192
6, 10846, Pitch_bend_c, 2, 8352
6, 10847, Pitch_bend_c, 2, 8416
6, 10861, Pitch_bend_c, 2, 8352
6, 10867, Pitch_bend_c, 2, 8192
6, 10869, Pitch_bend_c, 2, 8096
6, 10870, Note_on_c, 2, 67, 0
6, 10896, Note_on_c, 2, 67, 92
6, 10896, Pitch_bend_c, 2, 8192
6, 10897, Pitch_bend_c, 2, 8448
6, 10898, Pitch_bend_c, 2, 8352
6, 10899, Pitch_bend_c, 2, 8480
6, 10907, Pitch_bend_c, 2, 8352
6, 10912, Pitch_bend_c, 2, 8224
6, 10914, Pitch_bend_c, 2, 8192
6, 10917, Pitch_bend_c, 2, 8256
6, 10921, Note_on_c, 2, 67, 0
6, 10921, Pitch_bend_c, 2, 8320
6, 10948, Pitch_bend_c, 2, 8192
6, 10950, Note_on_c, 2, 65, 87
6, 10950, Pitch_bend_c, 2, 8544
6, 10962, Pitch_bend_c, 2, 8480
6, 10971, Pitch_bend_c, 2, 8416
6, 10988, Pitch_bend_c, 2, 8352
6, 10996, Note_on_c, 2, 62, 63
6, 10996, Pitch_bend_c, 2, 8192
6, 11000, Note_on_c, 2, 65, 0
6, 11011, Pitch_bend_c, 2, 8384
6, 11013, Note_on_c, 2, 62, 0
6, 11041, Pitch_bend_c, 2, 8192
6, 11042, Note_on_c, 2, 65, 86
6, 11042, Pitch_bend_c, 2, 8544
6, 11043, Pitch_bend_c, 2, 8192
6, 11045, Pitch_bend_c, 2, 7904
6, 11049, Pitch_bend_c, 2, 8064
6, 11051, Pitch_bend_c, 2, 8192
6, 11054, Pitch_bend_c, 2, 8320
6, 11064, Pitch_bend_c, 2, 8352
6, 11084, Pitch_bend_c, 2, 8288
6, 11088, Note_on_c, 2, 65, 0
6, 11088, Pitch_bend_c, 2, 8320
6, 11089, Pitch_bend_c, 2, 8192
6, 11090, Note_on_c, 2, 62, 56
6, 11091, Pitch_bend_c, 2, 8320
6, 11100, Pitch_bend_c, 2, 8128
6, 11101, Note_on_c, 2, 62, 0
6, 11182, Pitch_bend_c, 2, 8192
6, 11183, Note_on_c, 2, 69, 89
6, 11183, Pitch_bend_c, 2, 8480
6, 11204, Pitch_bend_c, 2, 8416
6, 11209, Note_on_c, 2, 69, 0
6, 11209, Pitch_bend_c, 2, 7744
6, 11232, Pitch_bend_c, 2, 8192
6, 11233, Note_on_c, 2, 69, 86
6, 11234, Pitch_bend_c, 2, 8416
6, 11235, Pitch_bend_c, 2, 8480
6, 11254, Pitch_bend_c, 2, 8416
6, 11259, Pitch_bend_c, 2, 8352
6, 11262, Note_on_c, 2, 69, 0
6, 11262, Pitch_bend_c, 2, 8448
6, 11286, Pitch_bend_c, 2, 8192
6, 11287, Note_on_c, 2, 73, 80
6, 11290, Pitch_bend_c, 2, 8608
6, 11305, Pitch_bend_c, 2, 8512
6, 11310, Pitch_bend_c, 2, 8448
6, 11314, Pitch_bend_c, 2, 8192
6, 11317, Note_on_c, 2, 73, 0
6, 11333, Note_on_c, 2, 69, 87
6, 11334, Pitch_bend_c, 2, 8480
6, 11352, Pitch_bend_c, 2, 8416
6, 11357, Note_on_c, 2, 69, 0
6, 11357, Pitch_bend_c, 2, 8192
6, 11378, Note_on_c, 2, 69, 82
6, 11379, Pitch_bend_c, 2, 8640
6, 11383, Pitch_bend_c, 2, 8576
6, 11393, Pitch_bend_c, 2, 8480
6, 11398, Note_on_c, 2, 69, 0
6, 11398, Pitch_bend_c, 2, 8608
6, 11426, Pitch_bend_c, 2, 8192
6, 11428, Note_on_c, 2, 73, 84
6, 11446, Pitch_bend_c, 2, 8864
6, 11451, Pitch_bend_c, 2, 8672
6, 11456, Pitch_bend_c, 2, 8800
6, 11461, Pitch_bend_c, 2, 9152
6, 11466, Pitch_bend_c, 2, 9792
6, 11471, Pitch_bend_c, 2, 10592
6, 11476, Pitch_bend_c, 2, 11744
6, 11481, Pitch_bend_c, 2, 13120
6, 11487, Pitch_bend_c, 2, 14304
6, 11491, Pitch_bend_c, 2, 15008
6, 11496, Pitch_bend_c, 2, 15232
6, 11502, Pitch_bend_c, 2, 15008
6, 11507, Pitch_bend_c, 2, 11296
6, 11512, Note_on_c, 2, 73, 0
6, 11519, Pitch_bend_c, 2, 8192
6, 11520, Note_on_c, 2, 74, 89
6, 11520, Pitch_bend_c, 2, 8704
6, 11521, Pitch_bend_c, 2, 8640
6, 11528, Pitch_bend_c, 2, 8704
6, 11537, Pitch_bend_c, 2, 8640
6, 11553, Pitch_bend_c, 2, 8544
6, 11558, Pitch_bend_c, 2, 8192
6, 11560, Note_on_c, 2, 74, 0
6, 11810, Note_on_c, 2, 78, 90
6, 11810, Pitch_bend_c, 2, 4576
6, 11832, Pitch_bend_c, 2, 4768
6, 11836, Note_on_c, 2, 78, 0
6, 11836, Note_on_c, 2, 74, 46
6, 11837, Pitch_bend_c, 2, 8448
6, 11865, Pitch_bend_c, 2, 8192
6, 11866, Note_on_c, 2, 74, 0
6, 11866, Pitch_bend_c, 2, 8512
6, 11884, Pitch_bend_c, 2, 8192
6, 11885, Note_on_c, 2, 72, 69
6, 11886, Pitch_bend_c, 2, 8480
6, 11893, Pitch_bend_c, 2, 8544
6, 11896, Note_on_c, 2, 72, 0
6, 11905, Pitch_bend_c, 2, 8192
6, 11906, Note_on_c, 2, 74, 87
6, 11907, Pitch_bend_c, 2, 8288
6, 11908, Pitch_bend_c, 2, 8448
6, 11909, Pitch_bend_c, 2, 8544
6, 11917, Pitch_bend_c, 2, 8448
6, 11938, Note_on_c, 2, 69, 62
6, 11945, Pitch_bend_c, 2, 8192
6, 11946, Note_on_c, 2, 74, 0
6, 11949, Pitch_bend_c, 2, 8736
6, 11955, Note_on_c, 2, 69, 0
6, 11957, Pitch_bend_c, 2, 8672
6, 11962, Pitch_bend_c, 2, 8512
6, 11965, Pitch_bend_c, 2, 8704
6, 12189, Pitch_bend_c, 2, 8192
6, 12190, Note_on_c, 2, 69, 85
6, 12192, Pitch_bend_c, 2, 8544
6, 12213, Pitch_bend_c, 2, 8288
6, 12217, Note_on_c, 2, 69, 0
6, 12217, Pitch_bend_c, 2, 8512
6, 12236, Pitch_bend_c, 2, 8192
6, 12237, Note_on_c, 2, 74, 84
6, 12257, Pitch_bend_c, 2, 8576
6, 12263, Pitch_bend_c, 2, 8384
6, 12264, Note_on_c, 2, 74, 0
6, 12283, Pitch_bend_c, 2, 8192
6, 12284, Note_on_c, 2, 69, 86
6, 12284, Pitch_bend_c, 2, 8608
6, 12294, Pitch_bend_c, 2, 8704
6, 12305, Pitch_bend_c, 2, 8800
6, 12310, Pitch_bend_c, 2, 9408
6, 12315, Pitch_bend_c, 2, 10688
6, 12320, Pitch_bend_c, 2, 11968
6, 12325, Pitch_bend_c, 2, 12768
6, 12330, Pitch_bend_c, 2, 13024
6, 12332, Note_on_c, 2, 69, 0
6, 12476, Pitch_bend_c, 2, 8192
6, 12477, Note_on_c, 2, 73, 85
6, 12477, Pitch_bend_c, 2, 8448
6, 12487, Pitch_bend_c, 2, 8384
6, 12495, Pitch_bend_c, 2, 8288
6, 12502, Note_on_c, 2, 73, 0
6, 12502, Pitch_bend_c, 2, 8416
6, 12524, Pitch_bend_c, 2, 8192
6, 12525, Note_on_c, 2, 74, 84
6, 12526, Pitch_bend_c, 2, 8512
6, 12541, Pitch_bend_c, 2, 8416
6, 12548, Pitch_bend_c, 2, 8192
6, 12549, Note_on_c, 2, 74, 0
6, 12573, Note_on_c, 2, 74, 85
6, 12574, Pitch_bend_c, 2, 8576
6, 12575, Pitch_bend_c, 2, 8512
6, 12578, Pitch_bend_c, 2, 8448
6, 12579, Pitch_bend_c, 2, 8704
6, 12580, Pitch_bend_c, 2, 9088
6, 12582, Pitch_bend_c, 2, 9472
6, 12583, Pitch_bend_c, 2, 9856
6, 12585, Pitch_bend_c, 2, 10240
6, 12586, Pitch_bend_c, 2, 10752
6, 12588, Pitch_bend_c, 2, 11008
6, 12590, Pitch_bend_c, 2, 11264
6, 12591, Pitch_bend_c, 2, 11648
6, 12592, Pitch_bend_c, 2, 12032
6, 12593, Pitch_bend_c, 2, 12544
6, 12594, Pitch_bend_c, 2, 13056
6, 12595, Pitch_bend_c, 2, 13440
6, 12596, Pitch_bend_c, 2, 14080
6, 12598, Pitch_bend_c, 2, 14336
6, 12599, Pitch_bend_c, 2, 14848
6, 12600, Pitch_bend_c, 2, 15232
6, 12601, Pitch_bend_c, 2, 15616
6, 12602, Pitch_bend_c, 2, 16383
6, 12618, Note_on_c, 2, 74, 0
6, 12624, Pitch_bend_c, 2, 8192
6, 12625, Note_on_c, 2, 69, 69
6, 12625, Pitch_bend_c, 2, 8640
6, 12627, Pitch_bend_c, 2, 8576
6, 12632, Pitch_bend_c, 2, 8512
6, 12637, Pitch_bend_c, 2, 8448
6, 12642, Pitch_bend_c, 2, 8352
6, 12648, Pitch_bend_c, 2, 8288
6, 12678, Pitch_bend_c, 2, 8224
6, 12680, Pitch_bend_c, 2, 8192
6, 12685, Pitch_bend_c, 2, 8224
6, 12694, Pitch_bend_c, 2, 8288
6, 12706, Pitch_bend_c, 2, 8224
6, 12713, Pitch_bend_c, 2, 8288
6, 12721, Pitch_bend_c, 2, 8256
6, 12722, Pitch_bend_c, 2, 8192
6, 12723, Note_on_c, 2, 71, 78
6, 12724, Pitch_bend_c, 2, 8384
6, 12725, Note_on_c, 2, 69, 0
6, 12729, Pitch_bend_c, 2, 8128
6, 12739, Pitch_bend_c, 2, 8192
6, 12749, Pitch_bend_c, 2, 8160
6, 12754, Pitch_bend_c, 2, 8192
6, 12757, Note_on_c, 2, 71, 0
6, 12757, Pitch_bend_c, 2, 8384
6, 12863, Pitch_bend_c, 2, 8192
6, 12909, Pitch_bend_c, 2, 8544
6, 12909, Note_on_c, 2, 71, 87
6, 12922, Pitch_bend_c, 2, 8608
6, 12938, Pitch_bend_c, 2, 8672
6, 12943, Pitch_bend_c, 2, 8832
6, 12948, Pitch_bend_c, 2, 8992
6, 12953, Pitch_bend_c, 2, 9216
6, 12958, Pitch_bend_c, 2, 9504
6, 12963, Pitch_bend_c, 2, 9888
6, 12968, Pitch_bend_c, 2, 10368
6, 12973, Pitch_bend_c, 2, 11040
6, 12978, Pitch_bend_c, 2, 11808
6, 12983, Pitch_bend_c, 2, 12416
6, 12988, Pitch_bend_c, 2, 12608
6, 12993, Pitch_bend_c, 2, 12448
6, 12999, Pitch_bend_c, 2, 9952
6, 13003, Note_on_c, 2, 71, 0
6, 13003, Pitch_bend_c, 2, 8576
6, 13003, Note_on_c, 2, 74, 66
6, 13005, Pitch_bend_c, 2, 8192
6, 13026, Note_on_c, 2, 74, 0
6, 13043, Pitch_bend_c, 2, 8256
6, 13053, Pitch_bend_c, 2, 8192
6, 13056, Note_on_c, 2, 71, 94
6, 13080, Note_on_c, 2, 71, 0
6, 13080, Note_on_c, 2, 69, 87
6, 13098, Note_on_c, 2, 69, 0
6, 13106, Note_on_c, 2, 67, 70
6, 13107, Pitch_bend_c, 2, 8480
6, 13121, Pitch_bend_c, 2, 8416
6, 13127, Pitch_bend_c, 2, 8192
6, 13128, Note_on_c, 2, 67, 0
6, 13152, Pitch_bend_c, 2, 8384
6, 13152, Note_on_c, 2, 67, 69
6, 13160, Pitch_bend_c, 2, 8352
6, 13170, Pitch_bend_c, 2, 8416
6, 13178, Pitch_bend_c, 2, 8352
6, 13183, Pitch_bend_c, 2, 8288
6, 13191, Pitch_bend_c, 2, 8224
6, 13193, Pitch_bend_c, 2, 8192
6, 13198, Pitch_bend_c, 2, 8160
6, 13206, Pitch_bend_c, 2, 8192
6, 13211, Pitch_bend_c, 2, 8224
6, 13224, Pitch_bend_c, 2, 8192
6, 13227, Note_on_c, 2, 67, 0
6, 13227, Pitch_bend_c, 2, 8224
6, 13245, Pitch_bend_c, 2, 8192
6, 13245, Note_on_c, 2, 67, 92
6, 13247, Pitch_bend_c, 2, 8672
6, 13263, Pitch_bend_c, 2, 8832
6, 13268, Pitch_bend_c, 2, 9024
6, 13279, Pitch_bend_c, 2, 224
6, 13281, Pitch_bend_c, 2, 0
6, 13289, Pitch_bend_c, 2, 160
6, 13294, Pitch_bend_c, 2, 256
6, 13297, Note_on_c, 2, 67, 0
6, 13297, Note_on_c, 2, 62, 61
6, 13297, Pitch_bend_c, 2, 8192
6, 13306, Pitch_bend_c, 2, 8352
6, 13312, Note_on_c, 2, 62, 0
6, 13342, Pitch_bend_c, 2, 8192
6, 13343, Note_on_c, 2, 62, 54
6, 13345, Pitch_bend_c, 2, 8704
6, 13346, Pitch_bend_c, 2, 8320
6, 13347, Pitch_bend_c, 2, 8384
6, 13366, Pitch_bend_c, 2, 8320
6, 13370, Pitch_bend_c, 2, 8256
6, 13391, Pitch_bend_c, 2, 8352
6, 13395, Pitch_bend_c, 2, 8288
6, 13401, Pitch_bend_c, 2, 8192
6, 13411, Pitch_bend_c, 2, 8288
6, 13416, Pitch_bend_c, 2, 8384
6, 13421, Pitch_bend_c, 2, 8320
6, 13437, Pitch_bend_c, 2, 8384
6, 13440, Pitch_bend_c, 2, 8192
6, 13444, Pitch_bend_c, 2, 8224
6, 13447, Pitch_bend_c, 2, 8192
6, 13460, Note_on_c, 2, 62, 0
6, 13486, Note_on_c, 2, 67, 90
6, 13487, Pitch_bend_c, 2, 9024
6, 13495, Pitch_bend_c, 2, 9280
6, 13500, Pitch_bend_c, 2, 9664
6, 13506, Pitch_bend_c, 2, 10528
6, 13511, Pitch_bend_c, 2, 11776
6, 13516, Pitch_bend_c, 2, 12704
6, 13530, Note_on_c, 2, 67, 0
6, 13535, Pitch_bend_c, 2, 8192
6, 13536, Pitch_bend_c, 2, 8608
6, 13536, Note_on_c, 2, 65, 81
6, 13537, Pitch_bend_c, 2, 8672
6, 13547, Pitch_bend_c, 2, 8608
6, 13552, Pitch_bend_c, 2, 8352
6, 13554, Note_on_c, 2, 65, 0
6, 13556, Pitch_bend_c, 2, 8192
6, 13557, Note_on_c, 2, 62, 57
6, 13558, Pitch_bend_c, 2, 9088
6, 13559, Pitch_bend_c, 2, 8544
6, 13563, Pitch_bend_c, 2, 8480
6, 13568, Pitch_bend_c, 2, 8416
6, 13572, Pitch_bend_c, 2, 8352
6, 13578, Pitch_bend_c, 2, 8288
6, 13583, Pitch_bend_c, 2, 8192
6, 13585, Note_on_c, 2, 62, 0
6, 13726, Note_on_c, 2, 67, 88
6, 13726, Pitch_bend_c, 2, 8384
6, 13727, Pitch_bend_c, 2, 8320
6, 13728, Pitch_bend_c, 2, 8448
6, 13740, Pitch_bend_c, 2, 8576
6, 13745, Pitch_bend_c, 2, 8896
6, 13750, Pitch_bend_c, 2, 192
6, 13760, Pitch_bend_c, 2, 160
6, 13770, Pitch_bend_c, 2, 224
6, 13776, Note_on_c, 2, 67, 0
6, 13776, Pitch_bend_c, 2, 8192
6, 13776, Note_on_c, 2, 62, 61
6, 13783, Pitch_bend_c, 2, 8256
6, 13785, Note_on_c, 2, 62, 0
6, 13820, Pitch_bend_c, 2, 8192
6, 13822, Note_on_c, 2, 62, 78
6, 13822, Pitch_bend_c, 2, 8320
6, 13823, Pitch_bend_c, 2, 8384
6, 13840, Pitch_bend_c, 2, 8320
6, 13844, Pitch_bend_c, 2, 8224
6, 13847, Pitch_bend_c, 2, 8192
6, 13908, Pitch_bend_c, 2, 8256
6, 13934, Pitch_bend_c, 2, 8192
6, 13936, Note_on_c, 2, 62, 0
6, 13936, Pitch_bend_c, 2, 8256
6, 14587, Pitch_bend_c, 2, 8192
6, 14588, Note_on_c, 2, 74, 87
6, 14589, Pitch_bend_c, 2, 8576
6, 14591, Pitch_bend_c, 2, 8544
6, 14592, Pitch_bend_c, 2, 8672
6, 14600, Pitch_bend_c, 2, 8544
6, 14607, Pitch_bend_c, 2, 8448
6, 14612, Pitch_bend_c, 2, 8192
6, 14615, Note_on_c, 2, 74, 0
6, 14833, Note_on_c, 2, 67, 93
6, 14833, Pitch_bend_c, 2, 8448
6, 14840, Pitch_bend_c, 2, 8544
6, 14848, Pitch_bend_c, 2, 8512
6, 14858, Pitch_bend_c, 2, 8992
6, 14863, Pitch_bend_c, 2, 10112
6, 14868, Pitch_bend_c, 2, 11456
6, 14872, Pitch_bend_c, 2, 12288
6, 14876, Note_on_c, 2, 67, 0
6, 14881, Pitch_bend_c, 2, 8192
6, 14883, Note_on_c, 2, 67, 84
6, 14883, Pitch_bend_c, 2, 10208
6, 14890, Pitch_bend_c, 2, 9536
6, 14895, Pitch_bend_c, 2, 8832
6, 14900, Pitch_bend_c, 2, 8640
6, 14903, Note_on_c, 2, 67, 0
6, 14905, Pitch_bend_c, 2, 8192
6, 14906, Pitch_bend_c, 2, 8544
6, 14906, Note_on_c, 2, 65, 79
6, 14909, Pitch_bend_c, 2, 8384
6, 14917, Pitch_bend_c, 2, 8320
6, 14923, Note_on_c, 2, 65, 0
6, 14923, Pitch_bend_c, 2, 8096
6, 14928, Pitch_bend_c, 2, 8192
6, 14929, Pitch_bend_c, 2, 8256
6, 14929, Note_on_c, 2, 62, 60
6, 14930, Pitch_bend_c, 2, 8320
6, 14931, Pitch_bend_c, 2, 8384
6, 14942, Pitch_bend_c, 2, 8320
6, 14947, Pitch_bend_c, 2, 8256
6, 14957, Pitch_bend_c, 2, 8320
6, 14964, Pitch_bend_c, 2, 8256
6, 14982, Pitch_bend_c, 2, 8192
6, 14992, Pitch_bend_c, 2, 8256
6, 15000, Note_on_c, 2, 62, 0
6, 15000, Pitch_bend_c, 2, 8192
6, 15212, Note_on_c, 2, 81, 84
6, 15214, Pitch_bend_c, 2, 9184
6, 15225, Pitch_bend_c, 2, 9056
6, 15232, Note_on_c, 2, 81, 0
6, 15232, Pitch_bend_c, 2, 9248
6, 15260, Pitch_bend_c, 2, 8192
6, 15261, Note_on_c, 2, 67, 83
6, 15263, Pitch_bend_c, 2, 8320
6, 15279, Pitch_bend_c, 2, 8384
6, 15294, Pitch_bend_c, 2, 8320
6, 15305, Note_on_c, 2, 67, 0
6, 15309, Pitch_bend_c, 2, 8192
6, 15310, Note_on_c, 2, 67, 84
6, 15311, Pitch_bend_c, 2, 8672
6, 15312, Pitch_bend_c, 2, 8640
6, 15318, Pitch_bend_c, 2, 8704
6, 15322, Pitch_bend_c, 2, 8832
6, 15328, Pitch_bend_c, 2, 9184
6, 15334, Pitch_bend_c, 2, 9696
6, 15338, Pitch_bend_c, 2, 10496
6, 15344, Pitch_bend_c, 2, 11360
6, 15349, Pitch_bend_c, 2, 12480
6, 15354, Pitch_bend_c, 2, 13728
6, 15359, Pitch_bend_c, 2, 14400
6, 15364, Note_on_c, 2, 67, 0
6, 15364, Pitch_bend_c, 2, 14592
6, 15452, Pitch_bend_c, 2, 8192
6, 15454, Note_on_c, 2, 69, 72
6, 15462, Pitch_bend_c, 2, 8224
6, 15465, Pitch_bend_c, 2, 8192
6, 15470, Pitch_bend_c, 2, 8000
6, 15472, Note_on_c, 2, 69, 0
6, 15501, Pitch_bend_c, 2, 8192
6, 15502, Pitch_bend_c, 2, 8512
6, 15502, Note_on_c, 2, 72, 82
6, 15503, Pitch_bend_c, 2, 8608
6, 15514, Pitch_bend_c, 2, 8512
6, 15520, Note_on_c, 2, 72, 0
6, 15520, Pitch_bend_c, 2, 8544
6, 15547, Pitch_bend_c, 2, 8192
6, 15548, Note_on_c, 2, 72, 81
6, 15550, Pitch_bend_c, 2, 8544
6, 15558, Pitch_bend_c, 2, 8480
6, 15563, Note_on_c, 2, 72, 0
6, 15563, Pitch_bend_c, 2, 8288
6, 15563, Note_on_c, 2, 74, 81
6, 15565, Pitch_bend_c, 2, 8384
6, 15579, Note_on_c, 2, 74, 0
6, 15579, Note_on_c, 2, 71, 69
6, 15579, Pitch_bend_c, 2, 11808
6, 15580, Pitch_bend_c, 2, 12192
6, 15581, Pitch_bend_c, 2, 12512
6, 15598, Note_on_c, 2, 71, 0
6, 15598, Pitch_bend_c, 2, 8192
6, 15599, Note_on_c, 2, 69, 60
6, 15608, Pitch_bend_c, 2, 8352
6, 15613, Note_on_c, 2, 69, 0
6, 15613, Pitch_bend_c, 2, 8096
6, 15647, Pitch_bend_c, 2, 8192
6, 15647, Note_on_c, 2, 69, 81
6, 15648, Pitch_bend_c, 2, 8320
6, 15666, Pitch_bend_c, 2, 8192
6, 15671, Pitch_bend_c, 2, 8128
6, 15678, Pitch_bend_c, 2, 8192
6, 15683, Pitch_bend_c, 2, 8352
6, 15688, Pitch_bend_c, 2, 8288
6, 15689, Note_on_c, 2, 69, 0
6, 15695, Pitch_bend_c, 2, 8192
6, 15696, Pitch_bend_c, 2, 8480
6, 15696, Note_on_c, 2, 67, 69
6, 15707, Pitch_bend_c, 2, 8416
6, 15712, Pitch_bend_c, 2, 8224
6, 15714, Note_on_c, 2, 67, 0
6, 15747, Pitch_bend_c, 2, 8192
6, 15749, Note_on_c, 2, 66, 16
6, 15751, Note_on_c, 2, 66, 0
6, 15792, Note_on_c, 2, 67, 87
6, 15792, Pitch_bend_c, 2, 8544
6, 15793, Pitch_bend_c, 2, 8480
6, 15808, Pitch_bend_c, 2, 8512
6, 15812, Pitch_bend_c, 2, 8960
6, 15817, Pitch_bend_c, 2, 9888
6, 15823, Pitch_bend_c, 2, 11200
6, 15827, Pitch_bend_c, 2, 12416
6, 15832, Pitch_bend_c, 2, 13024
6, 15838, Note_on_c, 2, 67, 0
6, 15838, Pitch_bend_c, 2, 13440
6, 15895, Pitch_bend_c, 2, 8192
6, 15896, Note_on_c, 2, 69, 85
6, 15897, Pitch_bend_c, 2, 8320
6, 15898, Pitch_bend_c, 2, 8768
6, 15904, Pitch_bend_c, 2, 8704
6, 15910, Pitch_bend_c, 2, 8640
6, 15915, Pitch_bend_c, 2, 8576
6, 15927, Pitch_bend_c, 2, 8640
6, 15940, Pitch_bend_c, 2, 8480
6, 15945, Pitch_bend_c, 2, 8192
6, 15946, Note_on_c, 2, 69, 0
6, 15981, Note_on_c, 2, 69, 89
6, 15982, Pitch_bend_c, 2, 8672
6, 15996, Pitch_bend_c, 2, 8608
6, 16001, Pitch_bend_c, 2, 8416
6, 16002, Note_on_c, 2, 69, 0
6, 16027, Pitch_bend_c, 2, 8192
6, 16029, Note_on_c, 2, 69, 87
6, 16029, Pitch_bend_c, 2, 8640
6, 16030, Pitch_bend_c, 2, 8576
6, 16041, Pitch_bend_c, 2, 8512
6, 16074, Pitch_bend_c, 2, 8192
6, 16075, Note_on_c, 2, 74, 90
6, 16076, Note_on_c, 2, 69, 0
6, 16076, Pitch_bend_c, 2, 8640
6, 16080, Pitch_bend_c, 2, 8544
6, 16085, Pitch_bend_c, 2, 8416
6, 16089, Note_on_c, 2, 74, 0
6, 16089, Pitch_bend_c, 2, 8256
6, 16122, Pitch_bend_c, 2, 8192
6, 16123, Note_on_c, 2, 69, 88
6, 16124, Pitch_bend_c, 2, 8512
6, 16125, Pitch_bend_c, 2, 8672
6, 16129, Pitch_bend_c, 2, 8704
6, 16134, Pitch_bend_c, 2, 8768
6, 16139, Pitch_bend_c, 2, 9728
6, 16144, Pitch_bend_c, 2, 11392
6, 16150, Pitch_bend_c, 2, 12640
6, 16155, Pitch_bend_c, 2, 13152
6, 16160, Pitch_bend_c, 2, 13024
6, 16165, Pitch_bend_c, 2, 12416
6, 16169, Pitch_bend_c, 2, 10048
6, 16170, Note_on_c, 2, 69, 0
6, 16174, Pitch_bend_c, 2, 8192
6, 16175, Pitch_bend_c, 2, 8256
6, 16175, Note_on_c, 2, 69, 89
6, 16176, Pitch_bend_c, 2, 8192
6, 16208, Pitch_bend_c, 2, 7616
6, 16209, Pitch_bend_c, 2, 8192
6, 16210, Note_on_c, 2, 69, 0
6, 16222, Note_on_c, 2, 67, 90
6, 16222, Pitch_bend_c, 2, 8288
6, 16224, Pitch_bend_c, 2, 8192
6, 16233, Pitch_bend_c, 2, 8224
6, 16245, Pitch_bend_c, 2, 8192
6, 16256, Pitch_bend_c, 2, 8224
6, 16270, Pitch_bend_c, 2, 8192
6, 16271, Note_on_c, 2, 69, 89
6, 16271, Pitch_bend_c, 2, 8416
6, 16272, Pitch_bend_c, 2, 8480
6, 16273, Pitch_bend_c, 2, 8448
6, 16275, Note_on_c, 2, 67, 0
6, 16276, Pitch_bend_c, 2, 8096
6, 16284, Pitch_bend_c, 2, 8160
6, 16287, Pitch_bend_c, 2, 8192
6, 16288, Note_on_c, 2, 69, 0
6, 16288, Pitch_bend_c, 2, 8448
6, 16296, Pitch_bend_c, 2, 8192
6, 16302, Pitch_bend_c, 2, 7680
6, 16304, Pitch_bend_c, 2, 8224
6, 16319, Pitch_bend_c, 2, 8192
6, 16320, Note_on_c, 2, 67, 81
6, 16325, Pitch_bend_c, 2, 8256
6, 16345, Pitch_bend_c, 2, 8192
6, 16349, Note_on_c, 2, 67, 0
6, 16349, Pitch_bend_c, 2, 8288
6, 16368, Note_on_c, 2, 65, 81
6, 16368, Pitch_bend_c, 2, 8192
6, 16369, Pitch_bend_c, 2, 8096
6, 16370, Pitch_bend_c, 2, 8192
6, 16372, Pitch_bend_c, 2, 8256
6, 16402, Pitch_bend_c, 2, 8448
6, 16408, Pitch_bend_c, 2, 8640
6, 16412, Pitch_bend_c, 2, 8416
6, 16414, Note_on_c, 2, 65, 0
6, 16414, Note_on_c, 2, 62, 60
6, 16414, Pitch_bend_c, 2, 8320
6, 16415, Pitch_bend_c, 2, 8256
6, 16428, Pitch_bend_c, 2, 8192
6, 16451, Pitch_bend_c, 2, 8256
6, 16455, Note_on_c, 2, 62, 0
6, 16464, Pitch_bend_c, 2, 8192
6, 16465, Note_on_c, 2, 60, 76
6, 16465, Pitch_bend_c, 2, 8256
6, 16471, Pitch_bend_c, 2, 8320
6, 16480, Pitch_bend_c, 2, 8256
6, 16486, Pitch_bend_c, 2, 8192
6, 16490, Note_on_c, 2, 60, 0
6, 16490, Pitch_bend_c, 2, 8288
6, 16513, Pitch_bend_c, 2, 8192
6, 16564, Pitch_bend_c, 2, 8160
6, 16564, Note_on_c, 2, 74, 83
6, 16566, Pitch_bend_c, 2, 8192
6, 16567, Pitch_bend_c, 2, 8288
6, 16568, Pitch_bend_c, 2, 8416
6, 16576, Pitch_bend_c, 2, 8512
6, 16641, Note_on_c, 2, 74, 0
6, 16653, Pitch_bend_c, 2, 8192
6, 16654, Note_on_c, 2, 72, 83
6, 16654, Pitch_bend_c, 2, 8608
6, 16656, Pitch_bend_c, 2, 8672
6, 16662, Pitch_bend_c, 2, 8800
6, 16666, Pitch_bend_c, 2, 8896
6, 16672, Pitch_bend_c, 2, 9120
6, 16677, Note_on_c, 2, 72, 0
6, 16677, Pitch_bend_c, 2, 8416
6, 16677, Note_on_c, 2, 69, 47
6, 16678, Pitch_bend_c, 2, 8576
6, 16692, Pitch_bend_c, 2, 8640
6, 16700, Pitch_bend_c, 2, 8544
6, 16703, Note_on_c, 2, 67, 76
6, 16703, Pitch_bend_c, 2, 8192
6, 16705, Note_on_c, 2, 69, 0
6, 16736, Pitch_bend_c, 2, 8032
6, 16749, Pitch_bend_c, 2, 8160
6, 16752, Pitch_bend_c, 2, 8192
6, 16759, Pitch_bend_c, 2, 8096
6, 16769, Pitch_bend_c, 2, 8192
6, 16774, Pitch_bend_c, 2, 8256
6, 16779, Pitch_bend_c, 2, 8160
6, 16784, Pitch_bend_c, 2, 8032
6, 16794, Note_on_c, 2, 67, 0
6, 16848, Pitch_bend_c, 2, 8192
6, 16849, Note_on_c, 2, 67, 90
6, 16849, Pitch_bend_c, 2, 8320
6, 16870, Pitch_bend_c, 2, 8448
6, 16872, Note_on_c, 2, 67, 0
6, 16875, Pitch_bend_c, 2, 8192
6, 16875, Note_on_c, 2, 65, 80
6, 16877, Pitch_bend_c, 2, 8576
6, 16902, Pitch_bend_c, 2, 8512
6, 16907, Pitch_bend_c, 2, 8416
6, 16919, Pitch_bend_c, 2, 8544
6, 16924, Pitch_bend_c, 2, 8704
6, 16932, Pitch_bend_c, 2, 8768
6, 16936, Pitch_bend_c, 2, 8832
6, 16942, Pitch_bend_c, 2, 8992
6, 16948, Pitch_bend_c, 2, 9120
6, 16953, Pitch_bend_c, 2, 9280
6, 16958, Pitch_bend_c, 2, 9440
6, 16965, Pitch_bend_c, 2, 9536
6, 16970, Pitch_bend_c, 2, 9664
6, 17008, Pitch_bend_c, 2, 9600
6, 17013, Pitch_bend_c, 2, 9536
6, 17026, Pitch_bend_c, 2, 9440
6, 17032, Pitch_bend_c, 2, 9280
6, 17036, Pitch_bend_c, 2, 9056
6, 17041, Pitch_bend_c, 2, 8928
6, 17047, Pitch_bend_c, 2, 8768
6, 17052, Pitch_bend_c, 2, 8640
6, 17057, Pitch_bend_c, 2, 8544
6, 17064, Pitch_bend_c, 2, 8480
6, 17069, Pitch_bend_c, 2, 8384
6, 17074, Pitch_bend_c, 2, 8288
6, 17079, Pitch_bend_c, 2, 8224
6, 17085, Pitch_bend_c, 2, 8192
6, 17095, Pitch_bend_c, 2, 8256
6, 17096, Note_on_c, 2, 65, 0
6, 17416, Pitch_bend_c, 2, 8192
6, 17417, Note_on_c, 2, 69, 82
6, 17417, Pitch_bend_c, 2, 8480
6, 17443, Pitch_bend_c, 2, 8320
6, 17446, Note_on_c, 2, 69, 0
6, 17446, Pitch_bend_c, 2, 8512
6, 17663, Pitch_bend_c, 2, 8128
6, 17664, Note_on_c, 2, 76, 102
6, 17669, Pitch_bend_c, 2, 8320
6, 17674, Pitch_bend_c, 2, 11680
6, 17679, Pitch_bend_c, 2, 12032
6, 17684, Pitch_bend_c, 2, 12320
6, 17686, Note_on_c, 2, 76, 0
6, 17713, Pitch_bend_c, 2, 8192
6, 17714, Note_on_c, 2, 74, 101
6, 17715, Pitch_bend_c, 2, 8576
6, 17717, Pitch_bend_c, 2, 8672
6, 17722, Pitch_bend_c, 2, 8576
6, 17727, Pitch_bend_c, 2, 8512
6, 17765, Pitch_bend_c, 2, 8416
6, 17773, Pitch_bend_c, 2, 8320
6, 17796, Pitch_bend_c, 2, 8256
6, 17803, Pitch_bend_c, 2, 8192
6, 17808, Pitch_bend_c, 2, 8096
6, 17810, Note_on_c, 2, 74, 0
6, 18091, Pitch_bend_c, 2, 8192
6, 18093, Note_on_c, 2, 77, 104
6, 18093, Pitch_bend_c, 2, 8544
6, 18094, Pitch_bend_c, 2, 8416
6, 18107, Pitch_bend_c, 2, 8288
6, 18112, Pitch_bend_c, 2, 8992
6, 18117, Pitch_bend_c, 2, 11840
6, 18122, Pitch_bend_c, 2, 12288
6, 18128, Pitch_bend_c, 2, 13120
6, 18133, Pitch_bend_c, 2, 13632
6, 18137, Pitch_bend_c, 2, 13984
6, 18150, Pitch_bend_c, 2, 14144
6, 18162, Note_on_c, 2, 77, 0
6, 18162, Pitch_bend_c, 2, 14080
6, 18166, Pitch_bend_c, 2, 8192
6, 18168, Note_on_c, 2, 77, 98
6, 18168, Pitch_bend_c, 2, 8416
6, 18171, Pitch_bend_c, 2, 8544
6, 18189, Pitch_bend_c, 2, 8320
6, 18199, Pitch_bend_c, 2, 8416
6, 18209, Note_on_c, 2, 77, 0
6, 18235, Pitch_bend_c, 2, 8192
6, 18236, Note_on_c, 2, 74, 104
6, 18236, Pitch_bend_c, 2, 8160
6, 18241, Pitch_bend_c, 2, 8192
6, 18243, Pitch_bend_c, 2, 8160
6, 18249, Pitch_bend_c, 2, 8192
6, 18259, Pitch_bend_c, 2, 8160
6, 18261, Pitch_bend_c, 2, 8192
6, 18269, Pitch_bend_c, 2, 8256
6, 18274, Pitch_bend_c, 2, 8192
6, 18280, Note_on_c, 2, 74, 0
6, 18283, Pitch_bend_c, 2, 8480
6, 18283, Note_on_c, 2, 69, 92
6, 18293, Pitch_bend_c, 2, 8448
6, 18298, Pitch_bend_c, 2, 8224
6, 18300, Pitch_bend_c, 2, 8512
6, 18301, Note_on_c, 2, 69, 0
6, 18475, Pitch_bend_c, 2, 8192
6, 18476, Pitch_bend_c, 2, 8384
6, 18476, Note_on_c, 2, 69, 94
6, 18483, Pitch_bend_c, 2, 8448
6, 18501, Pitch_bend_c, 2, 8256
6, 18504, Note_on_c, 2, 69, 0
6, 18504, Pitch_bend_c, 2, 8480
6, 18525, Pitch_bend_c, 2, 8192
6, 18527, Note_on_c, 2, 72, 98
6, 18528, Pitch_bend_c, 2, 8512
6, 18542, Pitch_bend_c, 2, 8320
6, 18548, Pitch_bend_c, 2, 8992
6, 18552, Pitch_bend_c, 2, 12000
6, 18558, Pitch_bend_c, 2, 12640
6, 18572, Note_on_c, 2, 72, 0
6, 18572, Pitch_bend_c, 2, 7776
6, 18577, Note_on_c, 2, 74, 106
6, 18577, Pitch_bend_c, 2, 8192
6, 18593, Note_on_c, 2, 74, 0
6, 18622, Pitch_bend_c, 2, 12160
6, 18624, Note_on_c, 2, 74, 98
6, 18624, Pitch_bend_c, 2, 12288
6, 18626, Pitch_bend_c, 2, 12416
6, 18628, Pitch_bend_c, 2, 12800
6, 18630, Pitch_bend_c, 2, 12928
6, 18631, Pitch_bend_c, 2, 13312
6, 18634, Pitch_bend_c, 2, 13568
6, 18635, Pitch_bend_c, 2, 13696
6, 18636, Pitch_bend_c, 2, 13952
6, 18637, Pitch_bend_c, 2, 14208
6, 18638, Pitch_bend_c, 2, 14464
6, 18639, Pitch_bend_c, 2, 14720
6, 18640, Pitch_bend_c, 2, 14976
6, 18642, Pitch_bend_c, 2, 15360
6, 18643, Pitch_bend_c, 2, 15488
6, 18645, Pitch_bend_c, 2, 15616
6, 18646, Pitch_bend_c, 2, 15872
6, 18647, Pitch_bend_c, 2, 16000
6, 18650, Pitch_bend_c, 2, 16256
6, 18651, Pitch_bend_c, 2, 16383
6, 18652, Pitch_bend_c, 2, 15744
6, 18654, Pitch_bend_c, 2, 15488
6, 18655, Pitch_bend_c, 2, 15232
6, 18658, Pitch_bend_c, 2, 14720
6, 18659, Pitch_bend_c, 2, 14464
6, 18660, Pitch_bend_c, 2, 14336
6, 18661, Pitch_bend_c, 2, 14080
6, 18662, Pitch_bend_c, 2, 13568
6, 18663, Pitch_bend_c, 2, 13440
6, 18664, Pitch_bend_c, 2, 12928
6, 18666, Pitch_bend_c, 2, 12416
6, 18667, Pitch_bend_c, 2, 12032
6, 18668, Pitch_bend_c, 2, 11648
6, 18669, Note_on_c, 2, 74, 0
6, 18669, Pitch_bend_c, 2, 11392
6, 18670, Pitch_bend_c, 2, 10624
6, 18677, Pitch_bend_c, 2, 8192
6, 18678, Note_on_c, 2, 69, 86
6, 18680, Pitch_bend_c, 2, 8160
6, 18686, Pitch_bend_c, 2, 8288
6, 18691, Pitch_bend_c, 2, 8352
6, 18699, Note_on_c, 2, 69, 0
6, 18718, Pitch_bend_c, 2, 8192
6, 18720, Note_on_c, 2, 72, 97
6, 18720, Pitch_bend_c, 2, 8704
6, 18722, Pitch_bend_c, 2, 8800
6, 18725, Pitch_bend_c, 2, 8896
6, 18730, Pitch_bend_c, 2, 8832
6, 18735, Pitch_bend_c, 2, 8640
6, 18745, Pitch_bend_c, 2, 9536
6, 18751, Pitch_bend_c, 2, 10944
6, 18756, Pitch_bend_c, 2, 11616
6, 18761, Pitch_bend_c, 2, 11264
6, 18765, Note_on_c, 2, 72, 0
6, 18765, Pitch_bend_c, 2, 11424
6, 18767, Pitch_bend_c, 2, 8192
6, 18768, Note_on_c, 2, 74, 97
6, 18769, Pitch_bend_c, 2, 8448
6, 18808, Note_on_c, 2, 74, 0
6, 18808, Pitch_bend_c, 2, 8512
6, 18811, Pitch_bend_c, 2, 8192
6, 18815, Note_on_c, 2, 74, 103
6, 18816, Pitch_bend_c, 2, 8320
6, 18817, Pitch_bend_c, 2, 8416
6, 18830, Pitch_bend_c, 2, 8320
6, 18853, Pitch_bend_c, 2, 8416
6, 18855, Note_on_c, 2, 74, 0
6, 18857, Pitch_bend_c, 2, 8192
6, 18858, Note_on_c, 2, 72, 91
6, 18860, Pitch_bend_c, 2, 8512
6, 18866, Pitch_bend_c, 2, 8608
6, 18889, Pitch_bend_c, 2, 8448
6, 18894, Pitch_bend_c, 2, 8256
6, 18898, Pitch_bend_c, 2, 8192
6, 18904, Pitch_bend_c, 2, 8096
6, 18909, Pitch_bend_c, 2, 7936
6, 18910, Note_on_c, 2, 72, 0
6, 18911, Pitch_bend_c, 2, 8480
6, 18911, Note_on_c, 2, 72, 94
6, 18912, Pitch_bend_c, 2, 8288
6, 18918, Pitch_bend_c, 2, 8192
6, 18936, Pitch_bend_c, 2, 8320
6, 18941, Pitch_bend_c, 2, 8608
6, 18946, Pitch_bend_c, 2, 8736
6, 18956, Pitch_bend_c, 2, 8704
6, 18957, Note_on_c, 2, 72, 0
6, 18960, Pitch_bend_c, 2, 8192
6, 18961, Note_on_c, 2, 69, 97
6, 18963, Pitch_bend_c, 2, 8608
6, 18964, Pitch_bend_c, 2, 8800
6, 18975, Pitch_bend_c, 2, 8704
6, 18985, Pitch_bend_c, 2, 8672
6, 18998, Pitch_bend_c, 2, 8576
6, 19005, Pitch_bend_c, 2, 8640
6, 19014, Pitch_bend_c, 2, 8576
6, 19019, Pitch_bend_c, 2, 8736
6, 19024, Pitch_bend_c, 2, 8960
6, 19029, Pitch_bend_c, 2, 8800
6, 19034, Pitch_bend_c, 2, 8416
6, 19039, Pitch_bend_c, 2, 8256
6, 19049, Pitch_bend_c, 2, 8480
6, 19050, Note_on_c, 2, 69, 0
6, 19053, Pitch_bend_c, 2, 8192
6, 19054, Note_on_c, 2, 69, 104
6, 19056, Pitch_bend_c, 2, 8928
6, 19059, Pitch_bend_c, 2, 8832
6, 19061, Pitch_bend_c, 2, 8416
6, 19064, Pitch_bend_c, 2, 8480
6, 19066, Pitch_bend_c, 2, 8352
6, 19068, Pitch_bend_c, 2, 8192
6, 19071, Pitch_bend_c, 2, 8096
6, 19072, Note_on_c, 2, 69, 0
6, 19074, Pitch_bend_c, 2, 8288
6, 19079, Pitch_bend_c, 2, 8544
6, 19090, Pitch_bend_c, 2, 8256
6, 19092, Pitch_bend_c, 2, 8192
6, 19102, Pitch_bend_c, 2, 8608
6, 19102, Note_on_c, 2, 69, 102
6, 19103, Pitch_bend_c, 2, 8320
6, 19105, Pitch_bend_c, 2, 8384
6, 19114, Pitch_bend_c, 2, 8576
6, 19119, Pitch_bend_c, 2, 8512
6, 19137, Pitch_bend_c, 2, 8448
6, 19147, Pitch_bend_c, 2, 8704
6, 19152, Pitch_bend_c, 2, 9312
6, 19157, Pitch_bend_c, 2, 10464
6, 19162, Pitch_bend_c, 2, 12000
6, 19168, Pitch_bend_c, 2, 13408
6, 19170, Note_on_c, 2, 69, 0
6, 19201, Pitch_bend_c, 2, 8192
6, 19203, Note_on_c, 2, 69, 102
6, 19204, Pitch_bend_c, 2, 9056
6, 19206, Pitch_bend_c, 2, 8992
6, 19219, Pitch_bend_c, 2, 11552
6, 19224, Pitch_bend_c, 2, 12384
6, 19229, Pitch_bend_c, 2, 13728
6, 19234, Pitch_bend_c, 2, 14336
6, 19235, Note_on_c, 2, 69, 0
6, 19300, Pitch_bend_c, 2, 8192
6, 19301, Note_on_c, 2, 69, 97
6, 19304, Pitch_bend_c, 2, 8416
6, 19312, Pitch_bend_c, 2, 8576
6, 19316, Pitch_bend_c, 2, 11520
6, 19322, Pitch_bend_c, 2, 12384
6, 19327, Pitch_bend_c, 2, 13696
6, 19332, Pitch_bend_c, 2, 14272
6, 19335, Note_on_c, 2, 69, 0
6, 19392, Pitch_bend_c, 2, 8192
6, 19393, Pitch_bend_c, 2, 8096
6, 19393, Note_on_c, 2, 69, 98
6, 19394, Pitch_bend_c, 2, 8192
6, 19396, Pitch_bend_c, 2, 8224
6, 19401, Pitch_bend_c, 2, 8800
6, 19406, Pitch_bend_c, 2, 12032
6, 19411, Pitch_bend_c, 2, 12448
6, 19416, Pitch_bend_c, 2, 12992
6, 19426, Pitch_bend_c, 2, 9856
6, 19428, Pitch_bend_c, 2, 8192
6, 19431, Note_on_c, 2, 69, 0
6, 19441, Pitch_bend_c, 2, 9632
6, 19441, Note_on_c, 2, 67, 96
6, 19447, Pitch_bend_c, 2, 9568
6, 19451, Pitch_bend_c, 2, 9376
6, 19462, Pitch_bend_c, 2, 9216
6, 19467, Pitch_bend_c, 2, 9088
6, 19472, Pitch_bend_c, 2, 8960
6, 19477, Pitch_bend_c, 2, 8800
6, 19482, Note_on_c, 2, 67, 0
6, 19482, Pitch_bend_c, 2, 8544
6, 19485, Pitch_bend_c, 2, 8192
6, 19486, Note_on_c, 2, 65, 92
6, 19487, Pitch_bend_c, 2, 8064
6, 19506, Pitch_bend_c, 2, 8096
6, 19514, Pitch_bend_c, 2, 8192
6, 19528, Note_on_c, 2, 65, 0
6, 19536, Pitch_bend_c, 2, 8320
6, 19536, Note_on_c, 2, 62, 104
6, 19549, Pitch_bend_c, 2, 8192
6, 19556, Pitch_bend_c, 2, 8128
6, 19561, Pitch_bend_c, 2, 8032
6, 19568, Note_on_c, 2, 62, 0
6, 19568, Pitch_bend_c, 2, 8160
6, 19584, Note_on_c, 2, 61, 93
6, 19584, Pitch_bend_c, 2, 12128
6, 19594, Pitch_bend_c, 2, 12064
6, 19602, Pitch_bend_c, 2, 12000
6, 19607, Pitch_bend_c, 2, 11936
6, 19621, Pitch_bend_c, 2, 12000
6, 19628, Note_on_c, 2, 61, 0
6, 19629, Pitch_bend_c, 2, 8192
6, 19629, Note_on_c, 2, 65, 98
6, 19646, Pitch_bend_c, 2, 8128
6, 19647, Note_on_c, 2, 65, 0
6, 19673, Pitch_bend_c, 2, 8192
6, 19674, Note_on_c, 2, 67, 102
6, 19680, Pitch_bend_c, 2, 8256
6, 19688, Pitch_bend_c, 2, 8192
6, 19691, Note_on_c, 2, 67, 0
6, 19691, Pitch_bend_c, 2, 8224
6, 19716, Pitch_bend_c, 2, 8192
6, 19717, Note_on_c, 2, 68, 102
6, 19718, Pitch_bend_c, 2, 6944
6, 19720, Pitch_bend_c, 2, 7488
6, 19725, Pitch_bend_c, 2, 8576
6, 19731, Pitch_bend_c, 2, 9376
6, 19736, Pitch_bend_c, 2, 9472
6, 19741, Pitch_bend_c, 2, 6656
6, 19748, Note_on_c, 2, 68, 0
6, 19748, Pitch_bend_c, 2, 8000
6, 19749, Note_on_c, 2, 65, 85
6, 19751, Pitch_bend_c, 2, 8096
6, 19754, Pitch_bend_c, 2, 8192
6, 19756, Pitch_bend_c, 2, 8288
6, 19761, Pitch_bend_c, 2, 8384
6, 19767, Pitch_bend_c, 2, 8288
6, 19770, Pitch_bend_c, 2, 8192
6, 19770, Note_on_c, 2, 62, 90
6, 19771, Note_on_c, 2, 65, 0
6, 19785, Pitch_bend_c, 2, 8096
6, 19791, Pitch_bend_c, 2, 8160
6, 19795, Pitch_bend_c, 2, 8192
6, 19798, Pitch_bend_c, 2, 8256
6, 19803, Pitch_bend_c, 2, 8352
6, 19808, Pitch_bend_c, 2, 8160
6, 19813, Pitch_bend_c, 2, 8000
6, 19825, Pitch_bend_c, 2, 8192
6, 19825, Note_on_c, 2, 65, 93
6, 19829, Note_on_c, 2, 62, 0
6, 19833, Pitch_bend_c, 2, 8000
6, 19839, Note_on_c, 2, 65, 0
6, 19839, Pitch_bend_c, 2, 7808
6, 19873, Pitch_bend_c, 2, 8192
6, 19874, Note_on_c, 2, 67, 102
6, 19875, Pitch_bend_c, 2, 8128
6, 19876, Pitch_bend_c, 2, 8192
6, 19882, Pitch_bend_c, 2, 8256
6, 19890, Pitch_bend_c, 2, 8320
6, 19897, Pitch_bend_c, 2, 8192
6, 19904, Pitch_bend_c, 2, 8288
6, 19915, Pitch_bend_c, 2, 8000
6, 19916, Note_on_c, 2, 67, 0
6, 19916, Pitch_bend_c, 2, 8192
6, 19921, Pitch_bend_c, 2, 7712
6, 19921, Note_on_c, 2, 62, 36
6, 19924, Pitch_bend_c, 2, 8032
6, 19930, Note_on_c, 2, 62, 0
6, 19968, Pitch_bend_c, 2, 8704
6, 19968, Note_on_c, 2, 65, 107
6, 19975, Pitch_bend_c, 2, 8384
6, 19983, Pitch_bend_c, 2, 8320
6, 19990, Pitch_bend_c, 2, 8448
6, 19995, Pitch_bend_c, 2, 8736
6, 20000, Pitch_bend_c, 2, 8992
6, 20006, Pitch_bend_c, 2, 9280
6, 20011, Pitch_bend_c, 2, 9504
6, 20016, Pitch_bend_c, 2, 9600
6, 20026, Pitch_bend_c, 2, 9440
6, 20028, Note_on_c, 2, 65, 0
6, 20028, Pitch_bend_c, 2, 9568
6, 20064, Pitch_bend_c, 2, 8192
6, 20065, Note_on_c, 2, 62, 107
6, 20068, Pitch_bend_c, 2, 8128
6, 20077, Pitch_bend_c, 2, 8160
6, 20080, Pitch_bend_c, 2, 8192
6, 20088, Pitch_bend_c, 2, 8160
6, 20093, Pitch_bend_c, 2, 8064
6, 20098, Pitch_bend_c, 2, 8032
6, 20103, Pitch_bend_c, 2, 7776
6, 20105, Note_on_c, 2, 62, 0
6, 20155, Pitch_bend_c, 2, 8192
6, 20157, Note_on_c, 2, 62, 103
6, 20158, Pitch_bend_c, 2, 9216
6, 20159, Pitch_bend_c, 2, 8832
6, 20168, Pitch_bend_c, 2, 8576
6, 20174, Pitch_bend_c, 2, 8192
6, 20178, Pitch_bend_c, 2, 8032
6, 20186, Pitch_bend_c, 2, 8128
6, 20194, Pitch_bend_c, 2, 8064
6, 20199, Pitch_bend_c, 2, 7936
6, 20204, Pitch_bend_c, 2, 8192
6, 20210, Pitch_bend_c, 2, 8704
6, 20214, Pitch_bend_c, 2, 8896
6, 20222, Pitch_bend_c, 2, 8832
6, 20235, Pitch_bend_c, 2, 8704
6, 20240, Pitch_bend_c, 2, 8384
6, 20245, Pitch_bend_c, 2, 8192
6, 20251, Pitch_bend_c, 2, 8000
6, 20254, Note_on_c, 2, 62, 0
6, 20254, Pitch_bend_c, 2, 8192
6, 20255, Pitch_bend_c, 2, 8320
6, 20255, Note_on_c, 2, 65, 106
6, 20280, Pitch_bend_c, 2, 8224
6, 20287, Pitch_bend_c, 2, 8192
6, 20289, Pitch_bend_c, 2, 8128
6, 20293, Note_on_c, 2, 65, 0
6, 20293, Pitch_bend_c, 2, 8288
6, 20307, Pitch_bend_c, 2, 8192
6, 20309, Pitch_bend_c, 2, 8512
6, 20309, Note_on_c, 2, 67, 104
6, 20311, Pitch_bend_c, 2, 8448
6, 20314, Pitch_bend_c, 2, 8320
6, 20324, Pitch_bend_c, 2, 8864
6, 20330, Pitch_bend_c, 2, 10080
6, 20335, Pitch_bend_c, 2, 12864
6, 20340, Pitch_bend_c, 2, 13824
6, 20345, Pitch_bend_c, 2, 14848
6, 20350, Pitch_bend_c, 2, 15168
6, 20351, Note_on_c, 2, 67, 0
6, 20352, Pitch_bend_c, 2, 8192
6, 20397, Pitch_bend_c, 2, 8992
6, 20397, Note_on_c, 2, 69, 104
6, 20398, Pitch_bend_c, 2, 8736
6, 20401, Pitch_bend_c, 2, 8576
6, 20407, Pitch_bend_c, 2, 8640
6, 20414, Pitch_bend_c, 2, 8544
6, 20419, Pitch_bend_c, 2, 8224
6, 20427, Pitch_bend_c, 2, 8192
6, 20432, Pitch_bend_c, 2, 8352
6, 20437, Pitch_bend_c, 2, 8384
6, 20442, Pitch_bend_c, 2, 8224
6, 20444, Pitch_bend_c, 2, 8192
6, 20457, Pitch_bend_c, 2, 8064
6, 20458, Note_on_c, 2, 69, 0
6, 20482, Pitch_bend_c, 2, 8192
6, 20485, Pitch_bend_c, 2, 9376
6, 20486, Pitch_bend_c, 2, 9152
6, 20487, Pitch_bend_c, 2, 8768
6, 20492, Pitch_bend_c, 2, 8640
6, 20494, Note_on_c, 2, 69, 103
6, 20505, Note_on_c, 2, 69, 0
6, 20507, Pitch_bend_c, 2, 8480
6, 20512, Pitch_bend_c, 2, 7968
6, 20538, Pitch_bend_c, 2, 8192
6, 20541, Pitch_bend_c, 2, 8896
6, 20541, Note_on_c, 2, 72, 104
6, 20545, Pitch_bend_c, 2, 8736
6, 20555, Pitch_bend_c, 2, 8704
6, 20565, Pitch_bend_c, 2, 8608
6, 20570, Pitch_bend_c, 2, 8480
6, 20576, Pitch_bend_c, 2, 8320
6, 20581, Pitch_bend_c, 2, 8512
6, 20586, Pitch_bend_c, 2, 8992
6, 20591, Pitch_bend_c, 2, 9632
6, 20595, Pitch_bend_c, 2, 10592
6, 20601, Pitch_bend_c, 2, 11744
6, 20606, Pitch_bend_c, 2, 12800
6, 20612, Pitch_bend_c, 2, 13280
6, 20629, Note_on_c, 2, 72, 0
6, 20635, Note_on_c, 2, 73, 104
6, 20637, Pitch_bend_c, 2, 12928
6, 20642, Pitch_bend_c, 2, 12864
6, 20673, Pitch_bend_c, 2, 12768
6, 20678, Pitch_bend_c, 2, 12608
6, 20682, Note_on_c, 2, 73, 0
6, 20682, Pitch_bend_c, 2, 12800
6, 20732, Pitch_bend_c, 2, 8192
6, 20733, Note_on_c, 2, 74, 103
6, 20735, Pitch_bend_c, 2, 8672
6, 20736, Pitch_bend_c, 2, 8768
6, 20737, Pitch_bend_c, 2, 8672
6, 20742, Pitch_bend_c, 2, 8576
6, 20747, Pitch_bend_c, 2, 8512
6, 20752, Pitch_bend_c, 2, 8416
6, 20760, Pitch_bend_c, 2, 8544
6, 20773, Pitch_bend_c, 2, 8448
6, 20778, Pitch_bend_c, 2, 8544
6, 20783, Pitch_bend_c, 2, 8672
6, 20798, Pitch_bend_c, 2, 8768
6, 20803, Pitch_bend_c, 2, 8896
6, 20830, Note_on_c, 2, 74, 0
6, 20833, Pitch_bend_c, 2, 8192
6, 20835, Note_on_c, 2, 74, 104
6, 20837, Pitch_bend_c, 2, 8832
6, 20838, Pitch_bend_c, 2, 8768
6, 20851, Pitch_bend_c, 2, 8672
6, 20857, Pitch_bend_c, 2, 8448
6, 20859, Pitch_bend_c, 2, 8192
6, 20861, Note_on_c, 2, 74, 0
6, 20861, Pitch_bend_c, 2, 8704
6, 20975, Note_on_c, 2, 79, 104
6, 20975, Pitch_bend_c, 2, 4288
6, 20996, Pitch_bend_c, 2, 4416
6, 21001, Pitch_bend_c, 2, 4736
6, 21007, Pitch_bend_c, 2, 5312
6, 21011, Pitch_bend_c, 2, 6240
6, 21016, Pitch_bend_c, 2, 7040
6, 21022, Pitch_bend_c, 2, 7424
6, 21032, Pitch_bend_c, 2, 7584
6, 21034, Note_on_c, 2, 79, 0
6, 21073, Pitch_bend_c, 2, 8192
6, 21075, Note_on_c, 2, 77, 102
6, 21084, Pitch_bend_c, 2, 8416
6, 21089, Pitch_bend_c, 2, 9152
6, 21095, Pitch_bend_c, 2, 9696
6, 21105, Pitch_bend_c, 2, 9088
6, 21111, Pitch_bend_c, 2, 8416
6, 21115, Pitch_bend_c, 2, 8480
6, 21120, Pitch_bend_c, 2, 8800
6, 21126, Pitch_bend_c, 2, 8928
6, 21133, Pitch_bend_c, 2, 8576
6, 21138, Pitch_bend_c, 2, 8192
6, 21143, Pitch_bend_c, 2, 8096
6, 21158, Note_on_c, 2, 77, 0
6, 21158, Pitch_bend_c, 2, 8320
6, 21166, Pitch_bend_c, 2, 8192
6, 21167, Note_on_c, 2, 74, 94
6, 21168, Pitch_bend_c, 2, 8288
6, 21183, Pitch_bend_c, 2, 8192
6, 21192, Note_on_c, 2, 74, 0
6, 21192, Pitch_bend_c, 2, 8288
6, 21214, Pitch_bend_c, 2, 8192
6, 21215, Pitch_bend_c, 2, 8512
6, 21215, Note_on_c, 2, 74, 94
6, 21220, Pitch_bend_c, 2, 8416
6, 21235, Pitch_bend_c, 2, 8320
6, 21243, Pitch_bend_c, 2, 8256
6, 21246, Pitch_bend_c, 2, 8192
6, 21248, Pitch_bend_c, 2, 8096
6, 21253, Pitch_bend_c, 2, 7936
6, 21261, Pitch_bend_c, 2, 8032
6, 21265, Pitch_bend_c, 2, 8192
6, 21271, Pitch_bend_c, 2, 8320
6, 21274, Pitch_bend_c, 2, 8192
6, 21276, Pitch_bend_c, 2, 8064
6, 21281, Pitch_bend_c, 2, 7840
6, 21284, Note_on_c, 2, 74, 0
6, 21289, Pitch_bend_c, 2, 8000
6, 21294, Pitch_bend_c, 2, 8160
6, 21296, Pitch_bend_c, 2, 8192
6, 21315, Note_on_c, 2, 74, 104
6, 21316, Pitch_bend_c, 2, 8576
6, 21318, Pitch_bend_c, 2, 8448
6, 21321, Pitch_bend_c, 2, 8384
6, 21326, Pitch_bend_c, 2, 8448
6, 21331, Pitch_bend_c, 2, 8672
6, 21339, Pitch_bend_c, 2, 8800
6, 21344, Pitch_bend_c, 2, 8704
6, 21349, Pitch_bend_c, 2, 8640
6, 21361, Pitch_bend_c, 2, 8704
6, 21366, Pitch_bend_c, 2, 8800
6, 21387, Pitch_bend_c, 2, 8576
6, 21392, Pitch_bend_c, 2, 8416
6, 21406, Note_on_c, 2, 74, 0
6, 21406, Pitch_bend_c, 2, 8512
6, 21408, Pitch_bend_c, 2, 8192
6, 21410, Note_on_c, 2, 69, 100
6, 21411, Pitch_bend_c, 2, 8416
6, 21412, Pitch_bend_c, 2, 8608
6, 21417, Pitch_bend_c, 2, 8576
6, 21422, Pitch_bend_c, 2, 8480
6, 21430, Pitch_bend_c, 2, 8288
6, 21438, Pitch_bend_c, 2, 7968
6, 21440, Note_on_c, 2, 69, 0
6, 21504, Pitch_bend_c, 2, 8512
6, 21504, Note_on_c, 2, 74, 102
6, 21519, Pitch_bend_c, 2, 8416
6, 21531, Pitch_bend_c, 2, 8544
6, 21532, Note_on_c, 2, 74, 0
6, 21547, Pitch_bend_c, 2, 8192
6, 21548, Note_on_c, 2, 69, 97
6, 21549, Pitch_bend_c, 2, 8608
6, 21558, Pitch_bend_c, 2, 8672
6, 21563, Pitch_bend_c, 2, 8608
6, 21568, Pitch_bend_c, 2, 8480
6, 21572, Note_on_c, 2, 69, 0
6, 21572, Pitch_bend_c, 2, 8640
6, 21600, Pitch_bend_c, 2, 8192
6, 21601, Note_on_c, 2, 71, 98
6, 21602, Pitch_bend_c, 2, 8352
6, 21603, Pitch_bend_c, 2, 8416
6, 21616, Pitch_bend_c, 2, 8512
6, 21621, Pitch_bend_c, 2, 8576
6, 21626, Pitch_bend_c, 2, 8896
6, 21631, Pitch_bend_c, 2, 9696
6, 21636, Pitch_bend_c, 2, 11072
6, 21641, Pitch_bend_c, 2, 12608
6, 21646, Pitch_bend_c, 2, 13792
6, 21651, Pitch_bend_c, 2, 14240
6, 21656, Note_on_c, 2, 71, 0
6, 21695, Pitch_bend_c, 2, 8192
6, 21697, Note_on_c, 2, 69, 99
6, 21700, Pitch_bend_c, 2, 8640
6, 21701, Pitch_bend_c, 2, 8544
6, 21702, Pitch_bend_c, 2, 8480
6, 21707, Pitch_bend_c, 2, 8544
6, 21715, Pitch_bend_c, 2, 8352
6, 21720, Pitch_bend_c, 2, 8192
6, 21728, Pitch_bend_c, 2, 8320
6, 21735, Pitch_bend_c, 2, 8416
6, 21740, Pitch_bend_c, 2, 8192
6, 21753, Pitch_bend_c, 2, 8480
6, 21759, Pitch_bend_c, 2, 8416
6, 21764, Pitch_bend_c, 2, 8320
6, 21769, Pitch_bend_c, 2, 8128
6, 21772, Note_on_c, 2, 69, 0
6, 21772, Pitch_bend_c, 2, 8352
6, 21789, Pitch_bend_c, 2, 8192
6, 21790, Note_on_c, 2, 67, 100
6, 21800, Pitch_bend_c, 2, 8128
6, 21805, Pitch_bend_c, 2, 8000
6, 21808, Note_on_c, 2, 67, 0
6, 21808, Pitch_bend_c, 2, 8192
6, 21836, Note_on_c, 2, 69, 95
6, 21837, Pitch_bend_c, 2, 8096
6, 21855, Pitch_bend_c, 2, 8000
6, 21859, Pitch_bend_c, 2, 8064
6, 21860, Note_on_c, 2, 69, 0
6, 21886, Pitch_bend_c, 2, 8192
6, 21887, Pitch_bend_c, 2, 8352
6, 21887, Note_on_c, 2, 72, 98
6, 21900, Pitch_bend_c, 2, 8288
6, 21905, Pitch_bend_c, 2, 7936
6, 21906, Note_on_c, 2, 72, 0
6, 21933, Pitch_bend_c, 2, 8192
6, 21934, Pitch_bend_c, 2, 8608
6, 21934, Note_on_c, 2, 72, 104
6, 21936, Pitch_bend_c, 2, 8672
6, 21940, Pitch_bend_c, 2, 8736
6, 21945, Pitch_bend_c, 2, 9120
6, 21950, Pitch_bend_c, 2, 11840
6, 21954, Pitch_bend_c, 2, 12640
6, 21960, Pitch_bend_c, 2, 14048
6, 21965, Pitch_bend_c, 2, 14720
6, 21977, Pitch_bend_c, 2, 14656
6, 21982, Pitch_bend_c, 2, 11808
6, 21987, Pitch_bend_c, 2, 8896
6, 21992, Pitch_bend_c, 2, 8352
6, 21998, Pitch_bend_c, 2, 8096
6, 22006, Pitch_bend_c, 2, 8128
6, 22018, Pitch_bend_c, 2, 8192
6, 22026, Note_on_c, 2, 72, 0
6, 22026, Pitch_bend_c, 2, 8032
6, 22030, Pitch_bend_c, 2, 8192
6, 22031, Note_on_c, 2, 69, 98
6, 22032, Pitch_bend_c, 2, 8288
6, 22036, Pitch_bend_c, 2, 8320
6, 22041, Pitch_bend_c, 2, 8128
6, 22046, Pitch_bend_c, 2, 7872
6, 22054, Pitch_bend_c, 2, 7936
6, 22059, Pitch_bend_c, 2, 8000
6, 22066, Pitch_bend_c, 2, 8192
6, 22071, Pitch_bend_c, 2, 8416
6, 22076, Pitch_bend_c, 2, 8384
6, 22081, Pitch_bend_c, 2, 8128
6, 22087, Pitch_bend_c, 2, 7968
6, 22092, Pitch_bend_c, 2, 8032
6, 22100, Pitch_bend_c, 2, 8000
6, 22104, Pitch_bend_c, 2, 7776
6, 22110, Pitch_bend_c, 2, 7744
6, 22115, Pitch_bend_c, 2, 8064
6, 22118, Pitch_bend_c, 2, 8192
6, 22124, Note_on_c, 2, 71, 96
6, 22125, Pitch_bend_c, 2, 8320
6, 22126, Pitch_bend_c, 2, 8256
6, 22128, Note_on_c, 2, 69, 0
6, 22132, Pitch_bend_c, 2, 8192
6, 22137, Pitch_bend_c, 2, 8288
6, 22142, Pitch_bend_c, 2, 8672
6, 22147, Pitch_bend_c, 2, 9472
6, 22152, Pitch_bend_c, 2, 10784
6, 22157, Pitch_bend_c, 2, 11968
6, 22163, Pitch_bend_c, 2, 12384
6, 22173, Note_on_c, 2, 71, 0
6, 22173, Pitch_bend_c, 2, 8192
6, 22174, Note_on_c, 2, 74, 90
6, 22175, Pitch_bend_c, 2, 8704
6, 22202, Note_on_c, 2, 74, 0
6, 22202, Pitch_bend_c, 2, 8832
6, 22224, Note_on_c, 2, 69, 97
6, 22224, Pitch_bend_c, 2, 8192
6, 22225, Pitch_bend_c, 2, 8416
6, 22237, Pitch_bend_c, 2, 8448
6, 22242, Pitch_bend_c, 2, 8640
6, 22247, Pitch_bend_c, 2, 8928
6, 22252, Pitch_bend_c, 2, 9280
6, 22257, Pitch_bend_c, 2, 9728
6, 22263, Pitch_bend_c, 2, 10272
6, 22268, Pitch_bend_c, 2, 10816
6, 22273, Pitch_bend_c, 2, 11296
6, 22278, Pitch_bend_c, 2, 11680
6, 22283, Pitch_bend_c, 2, 12096
6, 22288, Pitch_bend_c, 2, 12512
6, 22294, Pitch_bend_c, 2, 12928
6, 22298, Pitch_bend_c, 2, 13280
6, 22304, Pitch_bend_c, 2, 13568
6, 22308, Pitch_bend_c, 2, 13760
6, 22313, Pitch_bend_c, 2, 13952
6, 22319, Pitch_bend_c, 2, 14144
6, 22324, Pitch_bend_c, 2, 14336
6, 22328, Pitch_bend_c, 2, 14656
6, 22334, Pitch_bend_c, 2, 14944
6, 22339, Pitch_bend_c, 2, 15200
6, 22344, Pitch_bend_c, 2, 15296
6, 22351, Note_on_c, 2, 69, 0
6, 22366, Pitch_bend_c, 2, 10272
6, 22367, Note_on_c, 2, 68, 100
6, 22374, Pitch_bend_c, 2, 10304
6, 22379, Pitch_bend_c, 2, 10112
6, 22384, Pitch_bend_c, 2, 7360
6, 22390, Pitch_bend_c, 2, 6528
6, 22394, Pitch_bend_c, 2, 5088
6, 22400, Pitch_bend_c, 2, 4320
6, 22405, Pitch_bend_c, 2, 4160
6, 22411, Note_on_c, 2, 68, 0
6, 22416, Pitch_bend_c, 2, 8192
6, 22417, Note_on_c, 2, 65, 85
6, 22417, Pitch_bend_c, 2, 8352
6, 22418, Pitch_bend_c, 2, 8256
6, 22425, Pitch_bend_c, 2, 8192
6, 22435, Pitch_bend_c, 2, 8128
6, 22438, Note_on_c, 2, 65, 0
6, 22438, Pitch_bend_c, 2, 8192
6, 22465, Note_on_c, 2, 67, 101
6, 22467, Pitch_bend_c, 2, 8096
6, 22470, Pitch_bend_c, 2, 8192
6, 22475, Pitch_bend_c, 2, 8256
6, 22483, Pitch_bend_c, 2, 8448
6, 22488, Pitch_bend_c, 2, 0
6, 22503, Pitch_bend_c, 2, 96
6, 22512, Note_on_c, 2, 67, 0
6, 22512, Note_on_c, 2, 62, 57
6, 22512, Pitch_bend_c, 2, 8192
6, 22520, Pitch_bend_c, 2, 8000
6, 22535, Pitch_bend_c, 2, 7936
6, 22540, Note_on_c, 2, 62, 0
6, 22540, Pitch_bend_c, 2, 7872
6, 22559, Note_on_c, 2, 65, 106
6, 22559, Pitch_bend_c, 2, 8192
6, 22591, Pitch_bend_c, 2, 8128
6, 22596, Pitch_bend_c, 2, 7872
6, 22597, Note_on_c, 2, 65, 0
6, 22597, Pitch_bend_c, 2, 8192
6, 22609, Note_on_c, 2, 67, 92
6, 22609, Pitch_bend_c, 2, 8640
6, 22610, Pitch_bend_c, 2, 8192
6, 22614, Pitch_bend_c, 2, 8160
6, 22621, Pitch_bend_c, 2, 8096
6, 22631, Pitch_bend_c, 2, 7584
6, 22632, Note_on_c, 2, 67, 0
6, 22658, Pitch_bend_c, 2, 8192
6, 22659, Note_on_c, 2, 68, 97
6, 22659, Pitch_bend_c, 2, 8736
6, 22661, Pitch_bend_c, 2, 8896
6, 22664, Pitch_bend_c, 2, 9312
6, 22669, Pitch_bend_c, 2, 9600
6, 22677, Pitch_bend_c, 2, 9376
6, 22681, Pitch_bend_c, 2, 6464
6, 22687, Pitch_bend_c, 2, 5344
6, 22692, Pitch_bend_c, 2, 4416
6, 22698, Note_on_c, 2, 68, 0
6, 22705, Pitch_bend_c, 2, 8192
6, 22707, Note_on_c, 2, 65, 65
6, 22710, Pitch_bend_c, 2, 8256
6, 22725, Note_on_c, 2, 65, 0
6, 22751, Note_on_c, 2, 67, 103
6, 22751, Pitch_bend_c, 2, 8192
6, 22755, Pitch_bend_c, 2, 8256
6, 22764, Pitch_bend_c, 2, 8352
6, 22772, Pitch_bend_c, 2, 8288
6, 22777, Pitch_bend_c, 2, 8384
6, 22782, Pitch_bend_c, 2, 8480
6, 22792, Pitch_bend_c, 2, 8416
6, 22796, Note_on_c, 2, 67, 0
6, 22796, Pitch_bend_c, 2, 8448
6, 22801, Pitch_bend_c, 2, 8192
6, 22802, Pitch_bend_c, 2, 8896
6, 22802, Note_on_c, 2, 65, 106
6, 22803, Pitch_bend_c, 2, 8288
6, 22818, Pitch_bend_c, 2, 8352
6, 22828, Pitch_bend_c, 2, 8288
6, 22833, Pitch_bend_c, 2, 8192
6, 22846, Pitch_bend_c, 2, 8320
6, 22850, Pitch_bend_c, 2, 8544
6, 22863, Pitch_bend_c, 2, 8256
6, 22866, Pitch_bend_c, 2, 8192
6, 22876, Pitch_bend_c, 2, 8224
6, 22880, Pitch_bend_c, 2, 8192
6, 22890, Pitch_bend_c, 2, 8224
6, 22892, Note_on_c, 2, 65, 0
6, 22896, Pitch_bend_c, 2, 8192
6, 22898, Note_on_c, 2, 67, 103
6, 22920, Note_on_c, 2, 67, 0
6, 22944, Note_on_c, 2, 67, 102
6, 22945, Pitch_bend_c, 2, 8032
6, 22946, Pitch_bend_c, 2, 8160
6, 22949, Pitch_bend_c, 2, 8192
6, 22952, Pitch_bend_c, 2, 8416
6, 22957, Pitch_bend_c, 2, 11456
6, 22961, Pitch_bend_c, 2, 12128
6, 22967, Pitch_bend_c, 2, 12992
6, 22977, Pitch_bend_c, 2, 10368
6, 22982, Pitch_bend_c, 2, 9408
6, 22986, Pitch_bend_c, 2, 8640
6, 22992, Pitch_bend_c, 2, 8512
6, 22993, Note_on_c, 2, 67, 0
6, 22997, Note_on_c, 2, 65, 78
6, 22997, Pitch_bend_c, 2, 8768
6, 22999, Pitch_bend_c, 2, 8416
6, 23007, Pitch_bend_c, 2, 8480
6, 23015, Pitch_bend_c, 2, 8416
6, 23017, Note_on_c, 2, 65, 0
6, 23044, Pitch_bend_c, 2, 8192
6, 23045, Note_on_c, 2, 65, 106
6, 23053, Pitch_bend_c, 2, 8288
6, 23058, Pitch_bend_c, 2, 8768
6, 23063, Pitch_bend_c, 2, 9408
6, 23068, Pitch_bend_c, 2, 9920
6, 23073, Pitch_bend_c, 2, 10272
6, 23078, Pitch_bend_c, 2, 10432
6, 23083, Pitch_bend_c, 2, 10592
6, 23091, Pitch_bend_c, 2, 10624
6, 23101, Pitch_bend_c, 2, 10464
6, 23106, Pitch_bend_c, 2, 9696
6, 23112, Pitch_bend_c, 2, 8896
6, 23117, Pitch_bend_c, 2, 8544
6, 23124, Pitch_bend_c, 2, 8416
6, 23129, Pitch_bend_c, 2, 8288
6, 23134, Pitch_bend_c, 2, 8512
6, 23135, Note_on_c, 2, 65, 0
6, 23138, Pitch_bend_c, 2, 8192
6, 23140, Note_on_c, 2, 62, 88
6, 23141, Pitch_bend_c, 2, 8096
6, 23142, Pitch_bend_c, 2, 8160
6, 23158, Pitch_bend_c, 2, 8064
6, 23165, Pitch_bend_c, 2, 8000
6, 23170, Pitch_bend_c, 2, 8064
6, 23178, Pitch_bend_c, 2, 8032
6, 23183, Pitch_bend_c, 2, 7904
6, 23194, Pitch_bend_c, 2, 7936
6, 23199, Pitch_bend_c, 2, 8128
6, 23201, Pitch_bend_c, 2, 8192
6, 23203, Pitch_bend_c, 2, 8160
6, 23209, Pitch_bend_c, 2, 7968
6, 23219, Pitch_bend_c, 2, 7936
6, 23224, Pitch_bend_c, 2, 8064
6, 23229, Pitch_bend_c, 2, 8224
6, 23234, Pitch_bend_c, 2, 8192
6, 23239, Pitch_bend_c, 2, 8000
6, 23244, Pitch_bend_c, 2, 7904
6, 23252, Pitch_bend_c, 2, 8128
6, 23257, Pitch_bend_c, 2, 8384
6, 23264, Pitch_bend_c, 2, 8128
6, 23270, Pitch_bend_c, 2, 7872
6, 23278, Pitch_bend_c, 2, 8000
6, 23283, Pitch_bend_c, 2, 8192
6, 23290, Pitch_bend_c, 2, 8032
6, 23295, Pitch_bend_c, 2, 7840
6, 23312, Pitch_bend_c, 2, 7904
6, 23318, Note_on_c, 2, 62, 0
6, 23378, Pitch_bend_c, 2, 9984
6, 23379, Note_on_c, 2, 68, 99
6, 23391, Pitch_bend_c, 2, 9856
6, 23396, Pitch_bend_c, 2, 7104
6, 23401, Pitch_bend_c, 2, 6368
6, 23406, Pitch_bend_c, 2, 5088
6, 23411, Note_on_c, 2, 68, 0
6, 23411, Pitch_bend_c, 2, 6848
6, 23419, Pitch_bend_c, 2, 8192
6, 23420, Note_on_c, 2, 65, 81
6, 23420, Pitch_bend_c, 2, 8288
6, 23422, Pitch_bend_c, 2, 8096
6, 23436, Note_on_c, 2, 65, 0
6, 23520, Pitch_bend_c, 2, 8192
6, 23521, Note_on_c, 2, 65, 106
6, 23521, Pitch_bend_c, 2, 8672
6, 23522, Pitch_bend_c, 2, 8224
6, 23524, Pitch_bend_c, 2, 8192
6, 23530, Pitch_bend_c, 2, 8160
6, 23536, Pitch_bend_c, 2, 8064
6, 23555, Pitch_bend_c, 2, 8128
6, 23558, Pitch_bend_c, 2, 8000
6, 23561, Note_on_c, 2, 65, 0
6, 23561, Pitch_bend_c, 2, 8096
6, 23564, Pitch_bend_c, 2, 8192
6, 23565, Pitch_bend_c, 2, 8832
6, 23565, Note_on_c, 2, 62, 107
6, 23566, Pitch_bend_c, 2, 8320
6, 23567, Pitch_bend_c, 2, 8192
6, 23568, Pitch_bend_c, 2, 8096
6, 23572, Pitch_bend_c, 2, 8160
6, 23574, Pitch_bend_c, 2, 8256
6, 23582, Pitch_bend_c, 2, 8064
6, 23583, Note_on_c, 2, 62, 0
6, 23583, Pitch_bend_c, 2, 12032
6, 23583, Note_on_c, 2, 59, 91
6, 23584, Pitch_bend_c, 2, 12000
6, 23586, Pitch_bend_c, 2, 11904
6, 23592, Pitch_bend_c, 2, 12000
6, 23599, Note_on_c, 2, 59, 0
6, 23599, Note_on_c, 2, 55, 62
6, 23599, Pitch_bend_c, 2, 8192
6, 23602, Pitch_bend_c, 2, 8352
6, 23606, Pitch_bend_c, 2, 8288
6, 23609, Pitch_bend_c, 2, 8224
6, 23610, Pitch_bend_c, 2, 8192
6, 23614, Pitch_bend_c, 2, 8160
6, 23616, Pitch_bend_c, 2, 8096
6, 23621, Note_on_c, 2, 55, 0
6, 23621, Note_on_c, 2, 57, 76
6, 23621, Pitch_bend_c, 2, 8160
6, 23626, Pitch_bend_c, 2, 8192
6, 23629, Pitch_bend_c, 2, 8224
6, 23631, Pitch_bend_c, 2, 8192
6, 23639, Pitch_bend_c, 2, 8128
6, 23661, Pitch_bend_c, 2, 8064
6, 23686, Pitch_bend_c, 2, 8128
6, 23695, Pitch_bend_c, 2, 8192
6, 23698, Pitch_bend_c, 2, 8128
6, 23707, Pitch_bend_c, 2, 8064
6, 23709, Pitch_bend_c, 2, 8000
6, 23713, Pitch_bend_c, 2, 7936
6, 23718, Pitch_bend_c, 2, 8032
6, 23722, Pitch_bend_c, 2, 8096
6, 23732, Pitch_bend_c, 2, 8160
6, 23737, Pitch_bend_c, 2, 8096
6, 23745, Pitch_bend_c, 2, 7616
6, 23746, Note_on_c, 2, 57, 0
6, 26736, Pitch_bend_c, 2, 8192
6, 26784, Pitch_bend_c, 2, 8608
6, 26784, Note_on_c, 2, 72, 88
6, 26792, Pitch_bend_c, 2, 8640
6, 26805, Pitch_bend_c, 2, 8544
6, 26815, Pitch_bend_c, 2, 8480
6, 26840, Pitch_bend_c, 2, 8640
6, 26845, Pitch_bend_c, 2, 9056
6, 26850, Pitch_bend_c, 2, 9536
6, 26855, Pitch_bend_c, 2, 10304
6, 26861, Pitch_bend_c, 2, 11488
6, 26866, Pitch_bend_c, 2, 12640
6, 26871, Pitch_bend_c, 2, 13088
6, 26878, Pitch_bend_c, 2, 10624
6, 26881, Note_on_c, 2, 72, 0
6, 26881, Pitch_bend_c, 2, 12960
6, 26884, Pitch_bend_c, 2, 8192
6, 26886, Note_on_c, 2, 74, 89
6, 26887, Pitch_bend_c, 2, 9024
6, 26888, Pitch_bend_c, 2, 8928
6, 26899, Pitch_bend_c, 2, 8832
6, 26909, Pitch_bend_c, 2, 8768
6, 26921, Pitch_bend_c, 2, 8672
6, 26927, Pitch_bend_c, 2, 8288
6, 26928, Note_on_c, 2, 74, 0
6, 27030, Pitch_bend_c, 2, 8192
6, 27165, Note_on_c, 2, 67, 88
6, 27169, Pitch_bend_c, 2, 8160
6, 27174, Pitch_bend_c, 2, 8064
6, 27184, Pitch_bend_c, 2, 8160
6, 27187, Pitch_bend_c, 2, 8192
6, 27194, Pitch_bend_c, 2, 8224
6, 27208, Note_on_c, 2, 67, 0
6, 27213, Pitch_bend_c, 2, 8192
6, 27215, Pitch_bend_c, 2, 8608
6, 27215, Note_on_c, 2, 65, 92
6, 27223, Pitch_bend_c, 2, 8544
6, 27233, Pitch_bend_c, 2, 8480
6, 27241, Pitch_bend_c, 2, 8416
6, 27249, Pitch_bend_c, 2, 8352
6, 27259, Note_on_c, 2, 62, 82
6, 27259, Pitch_bend_c, 2, 8192
6, 27261, Note_on_c, 2, 65, 0
6, 27261, Pitch_bend_c, 2, 8160
6, 27272, Pitch_bend_c, 2, 8096
6, 27280, Pitch_bend_c, 2, 8032
6, 27285, Pitch_bend_c, 2, 7936
6, 27297, Pitch_bend_c, 2, 7872
6, 27310, Pitch_bend_c, 2, 7904
6, 27317, Pitch_bend_c, 2, 7840
6, 27319, Note_on_c, 2, 62, 0
6, 27648, Pitch_bend_c, 2, 8288
6, 27648, Note_on_c, 2, 69, 86
6, 27655, Pitch_bend_c, 2, 8352
6, 27671, Pitch_bend_c, 2, 8288
6, 27683, Pitch_bend_c, 2, 8224
6, 27701, Pitch_bend_c, 2, 8192
6, 27704, Pitch_bend_c, 2, 8224
6, 27714, Pitch_bend_c, 2, 8192
6, 27719, Pitch_bend_c, 2, 8128
6, 27724, Pitch_bend_c, 2, 8032
6, 27727, Pitch_bend_c, 2, 8192
6, 27728, Note_on_c, 2, 69, 0
6, 27741, Note_on_c, 2, 72, 84
6, 27742, Pitch_bend_c, 2, 8512
6, 27743, Pitch_bend_c, 2, 8448
6, 27746, Pitch_bend_c, 2, 8192
6, 27754, Pitch_bend_c, 2, 8256
6, 27759, Pitch_bend_c, 2, 8512
6, 27764, Pitch_bend_c, 2, 11392
6, 27770, Pitch_bend_c, 2, 12128
6, 27775, Pitch_bend_c, 2, 13248
6, 27780, Note_on_c, 2, 72, 0
6, 27780, Pitch_bend_c, 2, 13472
6, 27793, Pitch_bend_c, 2, 8192
6, 27794, Note_on_c, 2, 74, 88
6, 27795, Pitch_bend_c, 2, 8768
6, 27796, Pitch_bend_c, 2, 8672
6, 27818, Pitch_bend_c, 2, 9184
6, 27823, Pitch_bend_c, 2, 9984
6, 27828, Pitch_bend_c, 2, 10816
6, 27832, Pitch_bend_c, 2, 11872
6, 27838, Pitch_bend_c, 2, 13440
6, 27844, Pitch_bend_c, 2, 15104
6, 27848, Pitch_bend_c, 2, 16288
6, 27851, Note_on_c, 2, 74, 0
6, 27928, Pitch_bend_c, 2, 8192
6, 27930, Note_on_c, 2, 74, 89
6, 27933, Pitch_bend_c, 2, 8768
6, 27954, Pitch_bend_c, 2, 8704
6, 27960, Note_on_c, 2, 74, 0
6, 27961, Note_on_c, 2, 72, 90
6, 27969, Pitch_bend_c, 2, 8640
6, 27974, Pitch_bend_c, 2, 8672
6, 27976, Note_on_c, 2, 72, 0
6, 27978, Pitch_bend_c, 2, 8288
6, 27978, Note_on_c, 2, 69, 88
6, 28002, Pitch_bend_c, 2, 8192
6, 28004, Pitch_bend_c, 2, 8128
6, 28006, Note_on_c, 2, 69, 0
6, 28006, Note_on_c, 2, 67, 88
6, 28006, Pitch_bend_c, 2, 8192
6, 28010, Pitch_bend_c, 2, 8224
6, 28017, Pitch_bend_c, 2, 8288
6, 28023, Note_on_c, 2, 67, 0
6, 28023, Pitch_bend_c, 2, 8448
6, 28025, Pitch_bend_c, 2, 8192
6, 28026, Pitch_bend_c, 2, 8256
6, 28026, Note_on_c, 2, 69, 80
6, 28039, Pitch_bend_c, 2, 8192
6, 28047, Pitch_bend_c, 2, 8288
6, 28057, Pitch_bend_c, 2, 8192
6, 28072, Pitch_bend_c, 2, 8512
6, 28077, Pitch_bend_c, 2, 8800
6, 28092, Pitch_bend_c, 2, 8864
6, 28097, Pitch_bend_c, 2, 9088
6, 28103, Pitch_bend_c, 2, 9280
6, 28110, Pitch_bend_c, 2, 9120
6, 28112, Note_on_c, 2, 69, 0
6, 28118, Pitch_bend_c, 2, 8192
6, 28119, Note_on_c, 2, 67, 90
6, 28120, Pitch_bend_c, 2, 8320
6, 28121, Pitch_bend_c, 2, 8256
6, 28122, Pitch_bend_c, 2, 8192
6, 28147, Note_on_c, 2, 67, 0
6, 28169, Note_on_c, 2, 69, 88
6, 28169, Pitch_bend_c, 2, 8320
6, 28187, Pitch_bend_c, 2, 8224
6, 28189, Pitch_bend_c, 2, 8192
6, 28192, Pitch_bend_c, 2, 8160
6, 28196, Pitch_bend_c, 2, 7968
6, 28200, Pitch_bend_c, 2, 8192
6, 28201, Note_on_c, 2, 69, 0
6, 28268, Note_on_c, 2, 69, 86
6, 28270, Pitch_bend_c, 2, 8288
6, 28271, Pitch_bend_c, 2, 8384
6, 28272, Pitch_bend_c, 2, 8288
6, 28285, Pitch_bend_c, 2, 8192
6, 28290, Pitch_bend_c, 2, 7968
6, 28291, Note_on_c, 2, 69, 0
6, 28315, Pitch_bend_c, 2, 8192
6, 28318, Note_on_c, 2, 69, 89
6, 28319, Pitch_bend_c, 2, 8896
6, 28320, Pitch_bend_c, 2, 8864
6, 28321, Pitch_bend_c, 2, 8256
6, 28329, Pitch_bend_c, 2, 8192
6, 28339, Pitch_bend_c, 2, 8480
6, 28344, Pitch_bend_c, 2, 8864
6, 28349, Pitch_bend_c, 2, 9376
6, 28355, Pitch_bend_c, 2, 10208
6, 28360, Pitch_bend_c, 2, 11168
6, 28365, Pitch_bend_c, 2, 12096
6, 28370, Pitch_bend_c, 2, 13024
6, 28375, Pitch_bend_c, 2, 13760
6, 28380, Pitch_bend_c, 2, 14272
6, 28385, Pitch_bend_c, 2, 14496
6, 28392, Note_on_c, 2, 69, 0
6, 28413, Pitch_bend_c, 2, 8192
6, 28414, Pitch_bend_c, 2, 8320
6, 28414, Note_on_c, 2, 69, 88
6, 28416, Pitch_bend_c, 2, 8192
6, 28424, Pitch_bend_c, 2, 8128
6, 28432, Pitch_bend_c, 2, 8032
6, 28443, Pitch_bend_c, 2, 7968
6, 28450, Pitch_bend_c, 2, 7616
6, 28452, Note_on_c, 2, 69, 0
6, 28461, Pitch_bend_c, 2, 8192
6, 28462, Pitch_bend_c, 2, 8032
6, 28462, Note_on_c, 2, 67, 91
6, 28463, Pitch_bend_c, 2, 7968
6, 28464, Pitch_bend_c, 2, 8064
6, 28475, Pitch_bend_c, 2, 8192
6, 28484, Pitch_bend_c, 2, 8384
6, 28489, Pitch_bend_c, 2, 8256
6, 28492, Pitch_bend_c, 2, 8192
6, 28495, Pitch_bend_c, 2, 8160
6, 28502, Pitch_bend_c, 2, 8128
6, 28507, Pitch_bend_c, 2, 8192
6, 28513, Pitch_bend_c, 2, 8256
6, 28518, Pitch_bend_c, 2, 8192
6, 28523, Pitch_bend_c, 2, 8096
6, 28536, Pitch_bend_c, 2, 8192
6, 28541, Pitch_bend_c, 2, 8256
6, 28544, Pitch_bend_c, 2, 8192
6, 28546, Pitch_bend_c, 2, 8160
6, 28551, Pitch_bend_c, 2, 8032
6, 28559, Pitch_bend_c, 2, 8128
6, 28561, Pitch_bend_c, 2, 8192
6, 28569, Pitch_bend_c, 2, 8128
6, 28574, Pitch_bend_c, 2, 7904
6, 28576, Note_on_c, 2, 67, 0
6, 28576, Pitch_bend_c, 2, 8192
6, 28648, Pitch_bend_c, 2, 8288
6, 28648, Note_on_c, 2, 65, 91
6, 28661, Pitch_bend_c, 2, 8224
6, 28672, Pitch_bend_c, 2, 8192
6, 28689, Pitch_bend_c, 2, 8000
6, 28698, Note_on_c, 2, 65, 0
6, 28700, Pitch_bend_c, 2, 8192
6, 28701, Note_on_c, 2, 64, 89
6, 28701, Pitch_bend_c, 2, 8128
6, 28702, Pitch_bend_c, 2, 8192
6, 28717, Note_on_c, 2, 64, 0
6, 28722, Note_on_c, 2, 62, 89
6, 28722, Pitch_bend_c, 2, 8576
6, 28723, Pitch_bend_c, 2, 8224
6, 28724, Pitch_bend_c, 2, 8128
6, 28745, Pitch_bend_c, 2, 7936
6, 28746, Note_on_c, 2, 62, 0
6, 28747, Pitch_bend_c, 2, 8192
6, 28749, Pitch_bend_c, 2, 7968
6, 28749, Note_on_c, 2, 60, 76
6, 28750, Pitch_bend_c, 2, 7872
6, 28760, Note_on_c, 2, 60, 0
6, 28760, Pitch_bend_c, 2, 7968
6, 28768, Pitch_bend_c, 2, 8192
6, 28769, Note_on_c, 2, 58, 52
6, 28770, Pitch_bend_c, 2, 8352
6, 28789, Pitch_bend_c, 2, 8288
6, 28791, Note_on_c, 2, 58, 0
6, 28793, Pitch_bend_c, 2, 8192
6, 28794, Note_on_c, 2, 62, 87
6, 28804, Pitch_bend_c, 2, 8128
6, 28809, Pitch_bend_c, 2, 8064
6, 28824, Pitch_bend_c, 2, 8000
6, 28830, Pitch_bend_c, 2, 7904
6, 28840, Pitch_bend_c, 2, 7840
6, 28855, Pitch_bend_c, 2, 7776
6, 28890, Note_on_c, 2, 62, 0
6, 28891, Pitch_bend_c, 2, 8192
6, 28892, Pitch_bend_c, 2, 8320
6, 28892, Note_on_c, 2, 65, 90
6, 28894, Pitch_bend_c, 2, 8192
6, 28900, Pitch_bend_c, 2, 8256
6, 28911, Pitch_bend_c, 2, 8192
6, 28928, Pitch_bend_c, 2, 8160
6, 28944, Note_on_c, 2, 65, 0
6, 28944, Note_on_c, 2, 67, 89
6, 28944, Pitch_bend_c, 2, 8032
6, 28963, Pitch_bend_c, 2, 7712
6, 28966, Note_on_c, 2, 67, 0
6, 29084, Pitch_bend_c, 2, 8192
6, 29086, Pitch_bend_c, 2, 8928
6, 29086, Note_on_c, 2, 74, 89
6, 29087, Pitch_bend_c, 2, 8704
6, 29102, Pitch_bend_c, 2, 8800
6, 29117, Pitch_bend_c, 2, 8512
6, 29140, Pitch_bend_c, 2, 8800
6, 29145, Pitch_bend_c, 2, 8896
6, 29153, Pitch_bend_c, 2, 8832
6, 29158, Pitch_bend_c, 2, 8704
6, 29175, Note_on_c, 2, 74, 0
6, 29175, Pitch_bend_c, 2, 8928
6, 29371, Pitch_bend_c, 2, 8192
6, 29471, Note_on_c, 2, 65, 92
6, 29472, Pitch_bend_c, 2, 8288
6, 29484, Pitch_bend_c, 2, 8224
6, 29487, Pitch_bend_c, 2, 8192
6, 29489, Pitch_bend_c, 2, 8224
6, 29494, Pitch_bend_c, 2, 8192
6, 29502, Pitch_bend_c, 2, 8160
6, 29507, Pitch_bend_c, 2, 8192
6, 29510, Pitch_bend_c, 2, 8128
6, 29516, Note_on_c, 2, 65, 0
6, 29516, Pitch_bend_c, 2, 8192
6, 29518, Note_on_c, 2, 62, 52
6, 29519, Pitch_bend_c, 2, 8000
6, 29520, Pitch_bend_c, 2, 8064
6, 29528, Note_on_c, 2, 62, 0
6, 30860, Pitch_bend_c, 2, 8192
6, 30861, Note_on_c, 2, 72, 84
6, 30862, Pitch_bend_c, 2, 8672
6, 30863, Pitch_bend_c, 2, 8352
6, 30872, Pitch_bend_c, 2, 8288
6, 30882, Note_on_c, 2, 72, 0
6, 30882, Pitch_bend_c, 2, 8448
6, 30911, Pitch_bend_c, 2, 8192
6, 30912, Note_on_c, 2, 74, 89
6, 30922, Pitch_bend_c, 2, 8704
6, 30927, Pitch_bend_c, 2, 8640
6, 30932, Pitch_bend_c, 2, 8896
6, 30937, Pitch_bend_c, 2, 9728
6, 30942, Pitch_bend_c, 2, 10432
6, 30947, Pitch_bend_c, 2, 10784
6, 30952, Pitch_bend_c, 2, 10976
6, 30958, Pitch_bend_c, 2, 11360
6, 30963, Pitch_bend_c, 2, 12000
6, 30968, Pitch_bend_c, 2, 12832
6, 30973, Pitch_bend_c, 2, 13504
6, 30978, Pitch_bend_c, 2, 14176
6, 30983, Pitch_bend_c, 2, 14688
6, 30988, Pitch_bend_c, 2, 14880
6, 30998, Pitch_bend_c, 2, 14784
6, 31008, Note_on_c, 2, 74, 0
6, 31013, Pitch_bend_c, 2, 8192
6, 31014, Pitch_bend_c, 2, 9792
6, 31014, Note_on_c, 2, 74, 80
6, 31015, Pitch_bend_c, 2, 9664
6, 31016, Pitch_bend_c, 2, 9568
6, 31021, Pitch_bend_c, 2, 9312
6, 31026, Pitch_bend_c, 2, 8960
6, 31031, Pitch_bend_c, 2, 8704
6, 31037, Pitch_bend_c, 2, 8512
6, 31038, Note_on_c, 2, 74, 0
6, 31041, Pitch_bend_c, 2, 8192
6, 31041, Note_on_c, 2, 72, 81
6, 31042, Pitch_bend_c, 2, 8288
6, 31057, Pitch_bend_c, 2, 8352
6, 31060, Note_on_c, 2, 72, 0
6, 31060, Note_on_c, 2, 69, 77
6, 31060, Pitch_bend_c, 2, 8192
6, 31062, Pitch_bend_c, 2, 8224
6, 31065, Pitch_bend_c, 2, 8288
6, 31070, Pitch_bend_c, 2, 8384
6, 31078, Pitch_bend_c, 2, 8256
6, 31082, Note_on_c, 2, 69, 0
6, 31087, Pitch_bend_c, 2, 8192
6, 31088, Note_on_c, 2, 67, 46
6, 31089, Pitch_bend_c, 2, 8000
6, 31095, Note_on_c, 2, 67, 0
6, 31095, Pitch_bend_c, 2, 8192
6, 31104, Note_on_c, 2, 69, 76
6, 31104, Pitch_bend_c, 2, 7872
6, 31116, Pitch_bend_c, 2, 7744
6, 31120, Pitch_bend_c, 2, 7616
6, 31131, Pitch_bend_c, 2, 7744
6, 31136, Pitch_bend_c, 2, 7968
6, 31141, Pitch_bend_c, 2, 8064
6, 31146, Pitch_bend_c, 2, 7904
6, 31151, Pitch_bend_c, 2, 7712
6, 31192, Pitch_bend_c, 2, 7776
6, 31193, Note_on_c, 2, 69, 0
6, 31196, Pitch_bend_c, 2, 8192
6, 31197, Note_on_c, 2, 69, 72
6, 31198, Pitch_bend_c, 2, 7808
6, 31199, Pitch_bend_c, 2, 7744
6, 31209, Pitch_bend_c, 2, 7680
6, 31214, Pitch_bend_c, 2, 7776
6, 31234, Note_on_c, 2, 69, 0
6, 31246, Pitch_bend_c, 2, 8192
6, 31248, Pitch_bend_c, 2, 8288
6, 31248, Note_on_c, 2, 72, 83
6, 31249, Pitch_bend_c, 2, 8224
6, 31250, Pitch_bend_c, 2, 8192
6, 31251, Pitch_bend_c, 2, 8256
6, 31255, Pitch_bend_c, 2, 8192
6, 31278, Note_on_c, 2, 72, 0
6, 31342, Note_on_c, 2, 69, 85
6, 31344, Pitch_bend_c, 2, 8384
6, 31345, Pitch_bend_c, 2, 8320
6, 31346, Pitch_bend_c, 2, 8256
6, 31352, Pitch_bend_c, 2, 8192
6, 31365, Pitch_bend_c, 2, 8064
6, 31366, Note_on_c, 2, 69, 0
6, 31391, Pitch_bend_c, 2, 8192
6, 31392, Pitch_bend_c, 2, 8256
6, 31392, Note_on_c, 2, 71, 85
6, 31415, Pitch_bend_c, 2, 8192
6, 31421, Pitch_bend_c, 2, 8096
6, 31425, Pitch_bend_c, 2, 8000
6, 31438, Pitch_bend_c, 2, 8032
6, 31441, Note_on_c, 2, 71, 0
6, 31441, Pitch_bend_c, 2, 7968
6, 31442, Pitch_bend_c, 2, 8192
6, 31443, Note_on_c, 2, 74, 89
6, 31444, Pitch_bend_c, 2, 8416
6, 31446, Pitch_bend_c, 2, 8544
6, 31461, Pitch_bend_c, 2, 8416
6, 31464, Note_on_c, 2, 74, 0
6, 31489, Pitch_bend_c, 2, 8192
6, 31490, Note_on_c, 2, 69, 87
6, 31491, Pitch_bend_c, 2, 8448
6, 31492, Pitch_bend_c, 2, 8512
6, 31493, Pitch_bend_c, 2, 8576
6, 31496, Pitch_bend_c, 2, 8704
6, 31501, Pitch_bend_c, 2, 9120
6, 31505, Pitch_bend_c, 2, 9952
6, 31510, Pitch_bend_c, 2, 11040
6, 31516, Pitch_bend_c, 2, 12064
6, 31521, Pitch_bend_c, 2, 12608
6, 31527, Pitch_bend_c, 2, 12160
6, 31528, Note_on_c, 2, 69, 0
6, 31536, Pitch_bend_c, 2, 8192
6, 31538, Note_on_c, 2, 69, 86
6, 31538, Pitch_bend_c, 2, 8128
6, 31540, Pitch_bend_c, 2, 8256
6, 31555, Pitch_bend_c, 2, 8224
6, 31560, Pitch_bend_c, 2, 8192
6, 31570, Pitch_bend_c, 2, 8000
6, 31574, Note_on_c, 2, 69, 0
6, 31574, Pitch_bend_c, 2, 8192
6, 31589, Note_on_c, 2, 67, 89
6, 31590, Pitch_bend_c, 2, 7904
6, 31591, Pitch_bend_c, 2, 7744
6, 31595, Pitch_bend_c, 2, 8032
6, 31598, Pitch_bend_c, 2, 8192
6, 31600, Pitch_bend_c, 2, 8224
6, 31612, Note_on_c, 2, 67, 0
6, 31612, Pitch_bend_c, 2, 8192
6, 31723, Note_on_c, 2, 64, 95
6, 31724, Pitch_bend_c, 2, 8320
6, 31725, Pitch_bend_c, 2, 8192
6, 31738, Pitch_bend_c, 2, 8160
6, 31744, Pitch_bend_c, 2, 7840
6, 31749, Note_on_c, 2, 64, 0
6, 31749, Pitch_bend_c, 2, 7040
6, 31772, Pitch_bend_c, 2, 8192
6, 31774, Note_on_c, 2, 62, 97
6, 31774, Pitch_bend_c, 2, 8224
6, 31785, Pitch_bend_c, 2, 8192
6, 31792, Pitch_bend_c, 2, 8160
6, 31797, Pitch_bend_c, 2, 7872
6, 31800, Note_on_c, 2, 62, 0
6, 31800, Pitch_bend_c, 2, 8192
6, 31822, Note_on_c, 2, 58, 96
6, 31833, Pitch_bend_c, 2, 7968
6, 31838, Pitch_bend_c, 2, 7904
6, 31843, Pitch_bend_c, 2, 8032
6, 31856, Pitch_bend_c, 2, 7968
6, 31867, Pitch_bend_c, 2, 7872
6, 31872, Pitch_bend_c, 2, 8192
6, 31875, Pitch_bend_c, 2, 7904
6, 31880, Pitch_bend_c, 2, 8160
6, 31886, Pitch_bend_c, 2, 7968
6, 31891, Pitch_bend_c, 2, 7808
6, 31904, Note_on_c, 2, 58, 0
6, 31920, Pitch_bend_c, 2, 8192
6, 31921, Note_on_c, 2, 67, 89
6, 31923, Pitch_bend_c, 2, 8064
6, 31924, Pitch_bend_c, 2, 8224
6, 31928, Pitch_bend_c, 2, 8352
6, 31933, Pitch_bend_c, 2, 8864
6, 31938, Pitch_bend_c, 2, 9632
6, 31943, Pitch_bend_c, 2, 10240
6, 31948, Pitch_bend_c, 2, 10496
6, 31958, Pitch_bend_c, 2, 9824
6, 31963, Pitch_bend_c, 2, 8704
6, 31964, Note_on_c, 2, 67, 0
6, 31967, Pitch_bend_c, 2, 8192
6, 31968, Pitch_bend_c, 2, 8640
6, 31968, Note_on_c, 2, 62, 78
6, 31969, Pitch_bend_c, 2, 8320
6, 31970, Pitch_bend_c, 2, 8224
6, 31973, Pitch_bend_c, 2, 8192
6, 31981, Pitch_bend_c, 2, 8160
6, 31983, Pitch_bend_c, 2, 8192
6, 31988, Pitch_bend_c, 2, 8256
6, 31993, Pitch_bend_c, 2, 8288
6, 31998, Pitch_bend_c, 2, 8192
6, 32007, Pitch_bend_c, 2, 8352
6, 32012, Pitch_bend_c, 2, 8704
6, 32016, Pitch_bend_c, 2, 8832
6, 32022, Pitch_bend_c, 2, 8544
6, 32027, Pitch_bend_c, 2, 8288
6, 32037, Pitch_bend_c, 2, 8384
6, 32044, Pitch_bend_c, 2, 8416
6, 32052, Pitch_bend_c, 2, 8320
6, 32057, Pitch_bend_c, 2, 8192
6, 32061, Note_on_c, 2, 62, 0
6, 32061, Pitch_bend_c, 2, 8384
6, 32104, Pitch_bend_c, 2, 8192
6, 32105, Note_on_c, 2, 65, 74
6, 32118, Note_on_c, 2, 65, 0
6, 32118, Pitch_bend_c, 2, 8288
6, 32152, Pitch_bend_c, 2, 8192
6, 32153, Note_on_c, 2, 67, 89
6, 32153, Pitch_bend_c, 2, 8224
6, 32154, Pitch_bend_c, 2, 8320
6, 32167, Pitch_bend_c, 2, 8480
6, 32172, Pitch_bend_c, 2, 8416
6, 32176, Pitch_bend_c, 2, 8192
6, 32176, Note_on_c, 2, 69, 93
6, 32184, Note_on_c, 2, 67, 0
6, 32192, Pitch_bend_c, 2, 8576
6, 32198, Note_on_c, 2, 69, 0
6, 32830, Pitch_bend_c, 2, 8192
6, 32877, Note_on_c, 2, 74, 77
6, 32878, Pitch_bend_c, 2, 9152
6, 32890, Pitch_bend_c, 2, 9024
6, 32900, Pitch_bend_c, 2, 8928
6, 32905, Pitch_bend_c, 2, 8832
6, 32910, Pitch_bend_c, 2, 8704
6, 32915, Pitch_bend_c, 2, 8576
6, 32918, Note_on_c, 2, 74, 0
6, 32918, Pitch_bend_c, 2, 8800
6, 32926, Pitch_bend_c, 2, 8192
6, 32928, Note_on_c, 2, 72, 84
6, 32928, Pitch_bend_c, 2, 8832
6, 32929, Pitch_bend_c, 2, 8736
6, 32931, Pitch_bend_c, 2, 8800
6, 32934, Pitch_bend_c, 2, 8864
6, 32939, Pitch_bend_c, 2, 8800
6, 32944, Pitch_bend_c, 2, 8672
6, 32954, Pitch_bend_c, 2, 8608
6, 32959, Pitch_bend_c, 2, 8512
6, 32967, Note_on_c, 2, 72, 0
6, 32967, Pitch_bend_c, 2, 8640
6, 32974, Pitch_bend_c, 2, 8192
6, 32976, Note_on_c, 2, 69, 83
6, 32977, Pitch_bend_c, 2, 8800
6, 32978, Pitch_bend_c, 2, 8736
6, 32989, Pitch_bend_c, 2, 8608
6, 32994, Pitch_bend_c, 2, 8416
6, 32998, Note_on_c, 2, 69, 0
6, 32998, Pitch_bend_c, 2, 8704
6, 35140, Pitch_bend_c, 2, 8192
6, 35184, Note_on_c, 2, 67, 91
6, 35184, Pitch_bend_c, 2, 8320
6, 35185, Pitch_bend_c, 2, 8192
6, 35193, Pitch_bend_c, 2, 8320
6, 35199, Pitch_bend_c, 2, 8736
6, 35203, Pitch_bend_c, 2, 9536
6, 35208, Pitch_bend_c, 2, 10432
6, 35214, Pitch_bend_c, 2, 11104
6, 35218, Pitch_bend_c, 2, 11264
6, 35226, Pitch_bend_c, 2, 10880
6, 35229, Note_on_c, 2, 67, 0
6, 35229, Pitch_bend_c, 2, 11232
6, 35233, Pitch_bend_c, 2, 8192
6, 35234, Note_on_c, 2, 67, 75
6, 35250, Pitch_bend_c, 2, 8224
6, 35253, Pitch_bend_c, 2, 8192
6, 35254, Note_on_c, 2, 67, 0
6, 35257, Pitch_bend_c, 2, 8736
6, 35257, Note_on_c, 2, 62, 76
6, 35258, Pitch_bend_c, 2, 8384
6, 35259, Pitch_bend_c, 2, 8256
6, 35270, Pitch_bend_c, 2, 8192
6, 35274, Pitch_bend_c, 2, 8096
6, 35285, Pitch_bend_c, 2, 8032
6, 35292, Pitch_bend_c, 2, 7968
6, 35297, Pitch_bend_c, 2, 8032
6, 35302, Pitch_bend_c, 2, 8128
6, 35308, Pitch_bend_c, 2, 8032
6, 35312, Pitch_bend_c, 2, 7936
6, 35318, Pitch_bend_c, 2, 7904
6, 35325, Pitch_bend_c, 2, 7744
6, 35326, Note_on_c, 2, 62, 0
6, 38879, Pitch_bend_c, 2, 8192
6, 38880, Note_on_c, 2, 69, 97
6, 38880, Pitch_bend_c, 2, 8448
6, 38900, Pitch_bend_c, 2, 8352
6, 38905, Pitch_bend_c, 2, 7808
6, 38906, Note_on_c, 2, 69, 0
6, 38925, Pitch_bend_c, 2, 8192
6, 38926, Note_on_c, 2, 74, 101
6, 38926, Pitch_bend_c, 2, 8960
6, 38932, Pitch_bend_c, 2, 8832
6, 38937, Pitch_bend_c, 2, 8768
6, 38954, Note_on_c, 2, 74, 0
6, 38958, Pitch_bend_c, 2, 8640
6, 38960, Pitch_bend_c, 2, 8800
6, 39163, Pitch_bend_c, 2, 4384
6, 39165, Note_on_c, 2, 80, 104
6, 39173, Pitch_bend_c, 2, 4544
6, 39178, Pitch_bend_c, 2, 4992
6, 39183, Pitch_bend_c, 2, 6016
6, 39188, Pitch_bend_c, 2, 7456
6, 39191, Pitch_bend_c, 2, 8192
6, 39193, Pitch_bend_c, 2, 8896
6, 39198, Pitch_bend_c, 2, 10240
6, 39203, Pitch_bend_c, 2, 11136
6, 39208, Pitch_bend_c, 2, 11520
6, 39213, Note_on_c, 2, 80, 0
6, 39453, Pitch_bend_c, 2, 8192
6, 39455, Note_on_c, 2, 80, 100
6, 39456, Pitch_bend_c, 2, 10976
6, 39457, Pitch_bend_c, 2, 11104
6, 39466, Pitch_bend_c, 2, 10976
6, 39472, Pitch_bend_c, 2, 10848
6, 39476, Pitch_bend_c, 2, 8480
6, 39481, Pitch_bend_c, 2, 7808
6, 39486, Pitch_bend_c, 2, 6368
6, 39491, Pitch_bend_c, 2, 5344
6, 39497, Pitch_bend_c, 2, 4896
6, 39502, Pitch_bend_c, 2, 4672
6, 39514, Note_on_c, 2, 80, 0
6, 39514, Pitch_bend_c, 2, 5056
6, 39535, Pitch_bend_c, 2, 8192
6, 39535, Note_on_c, 2, 77, 96
6, 39536, Pitch_bend_c, 2, 8640
6, 39550, Note_on_c, 2, 77, 0
6, 39555, Pitch_bend_c, 2, 8192
6, 39556, Note_on_c, 2, 74, 94
6, 39558, Pitch_bend_c, 2, 8160
6, 39571, Pitch_bend_c, 2, 8064
6, 39576, Pitch_bend_c, 2, 7936
6, 39591, Pitch_bend_c, 2, 8192
6, 39596, Pitch_bend_c, 2, 8288
6, 39599, Pitch_bend_c, 2, 8192
6, 39601, Pitch_bend_c, 2, 8064
6, 39606, Pitch_bend_c, 2, 7840
6, 39614, Pitch_bend_c, 2, 7904
6, 39632, Pitch_bend_c, 2, 7936
6, 39637, Pitch_bend_c, 2, 8160
6, 39640, Note_on_c, 2, 74, 0
6, 39646, Pitch_bend_c, 2, 8192
6, 39647, Pitch_bend_c, 2, 8928
6, 39647, Note_on_c, 2, 77, 104
6, 39648, Pitch_bend_c, 2, 8736
6, 39673, Pitch_bend_c, 2, 8640
6, 39680, Note_on_c, 2, 77, 0
6, 39680, Pitch_bend_c, 2, 8800
6, 39837, Pitch_bend_c, 2, 8448
6, 39838, Note_on_c, 2, 74, 103
6, 39839, Pitch_bend_c, 2, 8640
6, 39852, Pitch_bend_c, 2, 8704
6, 39864, Pitch_bend_c, 2, 8640
6, 39869, Note_on_c, 2, 74, 0
6, 39869, Pitch_bend_c, 2, 8672
6, 39936, Pitch_bend_c, 2, 8416
6, 39936, Note_on_c, 2, 69, 99
6, 39941, Pitch_bend_c, 2, 8352
6, 39945, Pitch_bend_c, 2, 8288
6, 39953, Pitch_bend_c, 2, 8224
6, 39955, Pitch_bend_c, 2, 8192
6, 39958, Pitch_bend_c, 2, 8096
6, 39959, Note_on_c, 2, 69, 0
6, 39978, Pitch_bend_c, 2, 8192
6, 39979, Note_on_c, 2, 72, 94
6, 39980, Pitch_bend_c, 2, 8608
6, 39996, Pitch_bend_c, 2, 8512
6, 40001, Pitch_bend_c, 2, 8288
6, 40004, Pitch_bend_c, 2, 8192
6, 40007, Note_on_c, 2, 72, 0
6, 40025, Note_on_c, 2, 72, 97
6, 40026, Pitch_bend_c, 2, 8320
6, 40027, Pitch_bend_c, 2, 8256
6, 40033, Pitch_bend_c, 2, 8192
6, 40043, Pitch_bend_c, 2, 9120
6, 40049, Pitch_bend_c, 2, 11744
6, 40054, Pitch_bend_c, 2, 12224
6, 40059, Pitch_bend_c, 2, 12384
6, 40064, Pitch_bend_c, 2, 9792
6, 40069, Pitch_bend_c, 2, 7264
6, 40071, Note_on_c, 2, 72, 0
6, 40079, Pitch_bend_c, 2, 8192
6, 40080, Note_on_c, 2, 74, 97
6, 40081, Pitch_bend_c, 2, 8832
6, 40082, Pitch_bend_c, 2, 8768
6, 40092, Pitch_bend_c, 2, 8832
6, 40105, Pitch_bend_c, 2, 8928
6, 40118, Pitch_bend_c, 2, 9056
6, 40128, Note_on_c, 2, 69, 95
6, 40128, Pitch_bend_c, 2, 8192
6, 40134, Note_on_c, 2, 74, 0
6, 40136, Pitch_bend_c, 2, 8480
6, 40157, Pitch_bend_c, 2, 8384
6, 40162, Pitch_bend_c, 2, 8320
6, 40172, Pitch_bend_c, 2, 8512
6, 40176, Pitch_bend_c, 2, 8704
6, 40182, Pitch_bend_c, 2, 8480
6, 40187, Pitch_bend_c, 2, 8096
6, 40192, Pitch_bend_c, 2, 8064
6, 40198, Pitch_bend_c, 2, 8192
6, 40209, Note_on_c, 2, 69, 0
6, 40228, Pitch_bend_c, 2, 8928
6, 40228, Note_on_c, 2, 72, 104
6, 40230, Pitch_bend_c, 2, 8192
6, 40238, Pitch_bend_c, 2, 8448
6, 40243, Pitch_bend_c, 2, 9504
6, 40248, Pitch_bend_c, 2, 11200
6, 40253, Pitch_bend_c, 2, 12672
6, 40258, Pitch_bend_c, 2, 13568
6, 40263, Pitch_bend_c, 2, 14016
6, 40269, Pitch_bend_c, 2, 14240
6, 40273, Pitch_bend_c, 2, 14496
6, 40279, Pitch_bend_c, 2, 14560
6, 40315, Pitch_bend_c, 2, 14464
6, 40317, Pitch_bend_c, 2, 13952
6, 40323, Pitch_bend_c, 2, 10656
6, 40328, Pitch_bend_c, 2, 9632
6, 40333, Pitch_bend_c, 2, 8608
6, 40343, Pitch_bend_c, 2, 8032
6, 40358, Pitch_bend_c, 2, 8256
6, 40359, Note_on_c, 2, 72, 0
6, 40367, Pitch_bend_c, 2, 8192
6, 40368, Note_on_c, 2, 69, 93
6, 40369, Pitch_bend_c, 2, 8320
6, 40389, Pitch_bend_c, 2, 8256
6, 40404, Pitch_bend_c, 2, 8064
6, 40407, Note_on_c, 2, 69, 0
6, 40407, Pitch_bend_c, 2, 8288
6, 40409, Pitch_bend_c, 2, 8192
6, 40410, Note_on_c, 2, 69, 102
6, 40425, Pitch_bend_c, 2, 8288
6, 40443, Pitch_bend_c, 2, 8128
6, 40447, Note_on_c, 2, 69, 0
6, 40447, Pitch_bend_c, 2, 8320
6, 40456, Pitch_bend_c, 2, 8192
6, 40457, Note_on_c, 2, 67, 79
6, 40458, Pitch_bend_c, 2, 7808
6, 40466, Pitch_bend_c, 2, 7744
6, 40476, Pitch_bend_c, 2, 7520
6, 40479, Note_on_c, 2, 67, 0
6, 40479, Pitch_bend_c, 2, 7776
6, 40577, Pitch_bend_c, 2, 8192
6, 40578, Note_on_c, 2, 69, 87
6, 40579, Pitch_bend_c, 2, 8448
6, 40586, Pitch_bend_c, 2, 8384
6, 40591, Pitch_bend_c, 2, 8224
6, 40595, Note_on_c, 2, 69, 0
6, 40595, Pitch_bend_c, 2, 8416
6, 40609, Pitch_bend_c, 2, 8192
6, 40611, Note_on_c, 2, 72, 104
6, 40613, Pitch_bend_c, 2, 8288
6, 40614, Pitch_bend_c, 2, 8352
6, 40621, Pitch_bend_c, 2, 8480
6, 40626, Pitch_bend_c, 2, 8544
6, 40634, Pitch_bend_c, 2, 8608
6, 40636, Note_on_c, 2, 72, 0
6, 40637, Note_on_c, 2, 69, 57
6, 40638, Pitch_bend_c, 2, 8192
6, 40639, Pitch_bend_c, 2, 8160
6, 40642, Pitch_bend_c, 2, 8192
6, 40645, Pitch_bend_c, 2, 8224
6, 40649, Pitch_bend_c, 2, 8288
6, 40655, Pitch_bend_c, 2, 8352
6, 40660, Pitch_bend_c, 2, 8512
6, 40664, Note_on_c, 2, 69, 0
6, 40665, Pitch_bend_c, 2, 8192
6, 40666, Pitch_bend_c, 2, 8000
6, 40666, Note_on_c, 2, 66, 76
6, 40671, Pitch_bend_c, 2, 8064
6, 40681, Pitch_bend_c, 2, 7936
6, 40684, Note_on_c, 2, 66, 0
6, 40684, Pitch_bend_c, 2, 8032
6, 40754, Pitch_bend_c, 2, 5440
6, 40755, Note_on_c, 2, 70, 104
6, 40758, Pitch_bend_c, 2, 5376
6, 40760, Pitch_bend_c, 2, 5152
6, 40765, Pitch_bend_c, 2, 5536
6, 40770, Pitch_bend_c, 2, 6656
6, 40776, Pitch_bend_c, 2, 8032
6, 40785, Note_on_c, 2, 70, 0
6, 40827, Pitch_bend_c, 2, 8192
6, 40829, Note_on_c, 2, 67, 103
6, 40830, Pitch_bend_c, 2, 8064
6, 40831, Pitch_bend_c, 2, 8416
6, 40832, Pitch_bend_c, 2, 8864
6, 40837, Pitch_bend_c, 2, 8704
6, 40842, Pitch_bend_c, 2, 8288
6, 40850, Pitch_bend_c, 2, 8224
6, 40855, Pitch_bend_c, 2, 8192
6, 40860, Pitch_bend_c, 2, 8160
6, 40865, Pitch_bend_c, 2, 8032
6, 40870, Pitch_bend_c, 2, 7808
6, 40871, Note_on_c, 2, 67, 0
6, 40896, Pitch_bend_c, 2, 8192
6, 40898, Pitch_bend_c, 2, 7712
6, 40898, Note_on_c, 2, 65, 103
6, 40899, Pitch_bend_c, 2, 7808
6, 40903, Pitch_bend_c, 2, 7872
6, 40928, Pitch_bend_c, 2, 7904
6, 40936, Pitch_bend_c, 2, 8032
6, 40937, Note_on_c, 2, 65, 0
6, 40938, Pitch_bend_c, 2, 8192
6, 40940, Note_on_c, 2, 62, 79
6, 40944, Pitch_bend_c, 2, 7936
6, 40955, Pitch_bend_c, 2, 7872
6, 40960, Pitch_bend_c, 2, 7808
6, 40963, Note_on_c, 2, 62, 0
6, 40992, Pitch_bend_c, 2, 8192
6, 40994, Note_on_c, 2, 62, 108
6, 40995, Pitch_bend_c, 2, 7872
6, 40996, Pitch_bend_c, 2, 7840
6, 41011, Pitch_bend_c, 2, 7872
6, 41023, Pitch_bend_c, 2, 7712
6, 41037, Note_on_c, 2, 62, 0
6, 41038, Pitch_bend_c, 2, 8192
6, 41039, Pitch_bend_c, 2, 7968
6, 41039, Note_on_c, 2, 60, 80
6, 41040, Pitch_bend_c, 2, 8032
6, 41046, Pitch_bend_c, 2, 7968
6, 41065, Pitch_bend_c, 2, 8032
6, 41067, Note_on_c, 2, 60, 0
6, 41088, Pitch_bend_c, 2, 8192
6, 41134, Note_on_c, 2, 65, 99
6, 41154, Pitch_bend_c, 2, 8128
6, 41157, Note_on_c, 2, 65, 0
6, 41157, Pitch_bend_c, 2, 8192
6, 41182, Note_on_c, 2, 67, 106
6, 41183, Pitch_bend_c, 2, 8032
6, 41184, Pitch_bend_c, 2, 8160
6, 41187, Pitch_bend_c, 2, 8192
6, 41202, Pitch_bend_c, 2, 8096
6, 41204, Note_on_c, 2, 67, 0
6, 41204, Pitch_bend_c, 2, 8192
6, 41230, Note_on_c, 2, 67, 103
6, 41232, Pitch_bend_c, 2, 8672
6, 41238, Pitch_bend_c, 2, 9536
6, 41243, Pitch_bend_c, 2, 12768
6, 41248, Pitch_bend_c, 2, 13440
6, 41253, Pitch_bend_c, 2, 13888
6, 41258, Pitch_bend_c, 2, 9472
6, 41260, Note_on_c, 2, 67, 0
6, 41261, Note_on_c, 2, 67, 92
6, 41261, Pitch_bend_c, 2, 8192
6, 41262, Pitch_bend_c, 2, 8640
6, 41263, Pitch_bend_c, 2, 8704
6, 41269, Pitch_bend_c, 2, 544
6, 41273, Pitch_bend_c, 2, 320
6, 41279, Note_on_c, 2, 67, 0
6, 41279, Pitch_bend_c, 2, 8192
6, 41279, Note_on_c, 2, 65, 74
6, 41279, Note_on_c, 2, 62, 69
6, 41293, Note_on_c, 2, 65, 0
6, 41301, Pitch_bend_c, 2, 7680
6, 41304, Note_on_c, 2, 62, 0
6, 41373, Pitch_bend_c, 2, 8192
6, 41375, Note_on_c, 2, 67, 104
6, 41375, Pitch_bend_c, 2, 8512
6, 41396, Pitch_bend_c, 2, 8736
6, 41401, Pitch_bend_c, 2, 9088
6, 41406, Pitch_bend_c, 2, 9504
6, 41411, Pitch_bend_c, 2, 9856
6, 41416, Pitch_bend_c, 2, 10112
6, 41421, Pitch_bend_c, 2, 10272
6, 41426, Pitch_bend_c, 2, 10400
6, 41431, Pitch_bend_c, 2, 10624
6, 41436, Pitch_bend_c, 2, 11104
6, 41441, Pitch_bend_c, 2, 11904
6, 41447, Pitch_bend_c, 2, 12992
6, 41452, Pitch_bend_c, 2, 14016
6, 41457, Pitch_bend_c, 2, 14528
6, 41462, Pitch_bend_c, 2, 14240
6, 41465, Pitch_bend_c, 2, 14368
6, 41466, Note_on_c, 2, 67, 0
6, 41471, Pitch_bend_c, 2, 8192
6, 41472, Note_on_c, 2, 65, 107
6, 41473, Pitch_bend_c, 2, 8928
6, 41474, Pitch_bend_c, 2, 8480
6, 41475, Pitch_bend_c, 2, 8608
6, 41476, Pitch_bend_c, 2, 8768
6, 41480, Pitch_bend_c, 2, 8672
6, 41489, Pitch_bend_c, 2, 8576
6, 41494, Pitch_bend_c, 2, 8416
6, 41499, Note_on_c, 2, 65, 0
6, 41499, Pitch_bend_c, 2, 8192
6, 41616, Note_on_c, 2, 68, 99
6, 41616, Pitch_bend_c, 2, 8160
6, 41617, Pitch_bend_c, 2, 8192
6, 41621, Pitch_bend_c, 2, 8160
6, 41624, Pitch_bend_c, 2, 8192
6, 41626, Pitch_bend_c, 2, 12160
6, 41651, Pitch_bend_c, 2, 12096
6, 41659, Pitch_bend_c, 2, 12192
6, 41664, Note_on_c, 2, 68, 0
6, 41664, Pitch_bend_c, 2, 8192
6, 41664, Note_on_c, 2, 72, 101
6, 41696, Note_on_c, 2, 72, 0
6, 41759, Note_on_c, 2, 74, 104
6, 41760, Pitch_bend_c, 2, 9536
6, 41761, Pitch_bend_c, 2, 8832
6, 41772, Pitch_bend_c, 2, 8704
6, 41779, Pitch_bend_c, 2, 8576
6, 41789, Pitch_bend_c, 2, 8672
6, 41794, Pitch_bend_c, 2, 8800
6, 41799, Pitch_bend_c, 2, 8928
6, 41807, Pitch_bend_c, 2, 9024
6, 41825, Pitch_bend_c, 2, 8928
6, 41833, Pitch_bend_c, 2, 8832
6, 41836, Note_on_c, 2, 74, 0
6, 41836, Pitch_bend_c, 2, 8960
6, 41856, Pitch_bend_c, 2, 8192
6, 41858, Note_on_c, 2, 74, 104
6, 41858, Pitch_bend_c, 2, 9088
6, 41860, Pitch_bend_c, 2, 8928
6, 41870, Pitch_bend_c, 2, 8768
6, 41875, Pitch_bend_c, 2, 8576
6, 41888, Pitch_bend_c, 2, 8672
6, 41898, Pitch_bend_c, 2, 8544
6, 41903, Pitch_bend_c, 2, 8672
6, 41909, Pitch_bend_c, 2, 8960
6, 41919, Pitch_bend_c, 2, 8672
6, 41924, Pitch_bend_c, 2, 8512
6, 41950, Note_on_c, 2, 74, 0
6, 41955, Pitch_bend_c, 2, 8192
6, 41956, Note_on_c, 2, 69, 98
6, 41959, Pitch_bend_c, 2, 8320
6, 41960, Pitch_bend_c, 2, 8384
6, 41961, Pitch_bend_c, 2, 8320
6, 41976, Pitch_bend_c, 2, 8224
6, 41978, Pitch_bend_c, 2, 8192
6, 41984, Pitch_bend_c, 2, 8000
6, 41985, Note_on_c, 2, 69, 0
6, 42140, Note_on_c, 2, 86, 125
6, 42140, Pitch_bend_c, 2, 9472
6, 42153, Pitch_bend_c, 2, 9312
6, 42166, Pitch_bend_c, 2, 9152
6, 42172, Pitch_bend_c, 2, 8544
6, 42174, Note_on_c, 2, 86, 0
6, 42235, Pitch_bend_c, 2, 8192
6, 42236, Pitch_bend_c, 2, 9152
6, 42236, Note_on_c, 2, 86, 114
6, 42254, Pitch_bend_c, 2, 8960
6, 42277, Pitch_bend_c, 2, 8800
6, 42290, Pitch_bend_c, 2, 8960
6, 42308, Pitch_bend_c, 2, 8800
6, 42320, Pitch_bend_c, 2, 8960
6, 42333, Pitch_bend_c, 2, 8800
6, 42341, Pitch_bend_c, 2, 8960
6, 42563, Pitch_bend_c, 2, 8800
6, 42571, Pitch_bend_c, 2, 8960
6, 42574, Note_on_c, 2, 86, 0
6, 42574, Pitch_bend_c, 2, 8192
6, 42574, End_track
7, 0, Start_track
7, 0, MIDI_port, 0
7, 113, Program_c, 3, 82
7, 114, Control_c, 3, 11, 127
7, 114, Control_c, 3, 10, 64
7, 114, Control_c, 3, 7, 100
7, 115, Control_c, 3, 91, 60
7, 115, Control_c, 3, 93, 10
7, 2206, Note_on_c, 3, 74, 95
7, 2207, Control_c, 3, 1, 0
7, 2207, Pitch_bend_c, 3, 8192
7, 2224, Note_on_c, 3, 74, 0
7, 2248, Note_on_c, 3, 74, 91
7, 2263, Note_on_c, 3, 77, 87
7, 2272, Note_on_c, 3, 74, 0
7, 2336, Note_on_c, 3, 77, 0
7, 2336, Note_on_c, 3, 74, 81
7, 2510, Note_on_c, 3, 74, 0
7, 2518, Note_on_c, 3, 72, 76
7, 2540, Note_on_c, 3, 69, 68
7, 2549, Note_on_c, 3, 72, 0
7, 2563, Note_on_c, 3, 67, 66
7, 2566, Note_on_c, 3, 69, 0
7, 2591, Note_on_c, 3, 67, 0
7, 2591, Note_on_c, 3, 65, 60
7, 2683, Note_on_c, 3, 65, 0
7, 2928, Note_on_c, 3, 67, 94
7, 2969, Note_on_c, 3, 67, 0
7, 2978, Note_on_c, 3, 69, 91
7, 3013, Note_on_c, 3, 69, 0
7, 3025, Note_on_c, 3, 72, 91
7, 3072, Note_on_c, 3, 72, 0
7, 3084, Note_on_c, 3, 69, 76
7, 3340, Note_on_c, 3, 69, 0
7, 3696, Note_on_c, 3, 62, 92
7, 3746, Note_on_c, 3, 62, 0
7, 3746, Note_on_c, 3, 65, 84
7, 3790, Note_on_c, 3, 65, 0
7, 3794, Note_on_c, 3, 69, 72
7, 3818, Note_on_c, 3, 69, 0
7, 3840, Note_on_c, 3, 67, 88
7, 3911, Note_on_c, 3, 67, 0
7, 3911, Note_on_c, 3, 65, 72
7, 3933, Note_on_c, 3, 62, 65
7, 3938, Note_on_c, 3, 65, 0
7, 4082, Note_on_c, 3, 62, 0
7, 4172, Note_on_c, 3, 62, 90
7, 4206, Note_on_c, 3, 62, 0
7, 4223, Note_on_c, 3, 65, 87
7, 4313, Note_on_c, 3, 65, 0
7, 4319, Note_on_c, 3, 67, 75
7, 4356, Note_on_c, 3, 67, 0
7, 4367, Note_on_c, 3, 65, 84
7, 4492, Note_on_c, 3, 65, 0
7, 4506, Note_on_c, 3, 67, 84
7, 4554, Note_on_c, 3, 67, 0
7, 4560, Note_on_c, 3, 65, 68
7, 4760, Note_on_c, 3, 65, 0
7, 5231, Note_on_c, 3, 72, 96
7, 5279, Note_on_c, 3, 74, 85
7, 5287, Note_on_c, 3, 72, 0
7, 5321, Note_on_c, 3, 74, 0
7, 5326, Note_on_c, 3, 77, 87
7, 5383, Note_on_c, 3, 77, 0
7, 5389, Note_on_c, 3, 74, 86
7, 5583, Note_on_c, 3, 74, 0
7, 5594, Note_on_c, 3, 72, 72
7, 5614, Note_on_c, 3, 69, 68
7, 5620, Note_on_c, 3, 72, 0
7, 5638, Note_on_c, 3, 67, 66
7, 5641, Note_on_c, 3, 69, 0
7, 5662, Note_on_c, 3, 67, 0
7, 5667, Note_on_c, 3, 65, 63
7, 5755, Note_on_c, 3, 65, 0
7, 6003, Note_on_c, 3, 69, 90
7, 6052, Note_on_c, 3, 69, 0
7, 6072, Note_on_c, 3, 69, 87
7, 6092, Note_on_c, 3, 72, 82
7, 6104, Note_on_c, 3, 69, 0
7, 6167, Note_on_c, 3, 69, 69
7, 6168, Note_on_c, 3, 72, 0
7, 6465, Note_on_c, 3, 69, 0
7, 6765, Note_on_c, 3, 65, 97
7, 6807, Note_on_c, 3, 67, 81
7, 6810, Note_on_c, 3, 65, 0
7, 6830, Note_on_c, 3, 67, 0
7, 6864, Note_on_c, 3, 69, 90
7, 6908, Note_on_c, 3, 69, 0
7, 6912, Note_on_c, 3, 67, 85
7, 6978, Note_on_c, 3, 65, 73
7, 6979, Note_on_c, 3, 67, 0
7, 7006, Note_on_c, 3, 62, 85
7, 7010, Note_on_c, 3, 65, 0
7, 7041, Note_on_c, 3, 62, 0
7, 7054, Note_on_c, 3, 62, 74
7, 7096, Note_on_c, 3, 62, 0
7, 7104, Note_on_c, 3, 62, 72
7, 7228, Note_on_c, 3, 62, 0
7, 7345, Note_on_c, 3, 65, 87
7, 7526, Note_on_c, 3, 65, 0
7, 7530, Note_on_c, 3, 67, 81
7, 7571, Note_on_c, 3, 67, 0
7, 7580, Note_on_c, 3, 67, 77
7, 7629, Note_on_c, 3, 65, 69
7, 7630, Note_on_c, 3, 67, 0
7, 7877, Note_on_c, 3, 65, 0
7, 8351, Note_on_c, 3, 74, 95
7, 8363, Note_on_c, 3, 74, 0
7, 8374, Note_on_c, 3, 74, 98
7, 8428, Note_on_c, 3, 74, 0
7, 8445, Note_on_c, 3, 70, 95
7, 8479, Pitch_bend_c, 3, 8543
7, 8481, Pitch_bend_c, 3, 8777
7, 8484, Pitch_bend_c, 3, 9128
7, 8486, Pitch_bend_c, 3, 9596
7, 8489, Pitch_bend_c, 3, 10181
7, 8491, Pitch_bend_c, 3, 11117
7, 8494, Pitch_bend_c, 3, 12053
7, 8496, Pitch_bend_c, 3, 12872
7, 8498, Note_on_c, 3, 70, 0
7, 8499, Pitch_bend_c, 3, 13574
7, 8502, Pitch_bend_c, 3, 14042
7, 8504, Pitch_bend_c, 3, 14393
7, 8509, Pitch_bend_c, 3, 13691
7, 8512, Pitch_bend_c, 3, 11585
7, 8514, Pitch_bend_c, 3, 9011
7, 8517, Pitch_bend_c, 3, 8192
7, 8593, Note_on_c, 3, 72, 90
7, 8606, Note_on_c, 3, 72, 0
7, 8643, Note_on_c, 3, 74, 96
7, 8719, Note_on_c, 3, 74, 0
7, 8737, Note_on_c, 3, 74, 95
7, 8765, Note_on_c, 3, 74, 0
7, 8785, Note_on_c, 3, 70, 79
7, 8828, Note_on_c, 3, 70, 0
7, 8833, Note_on_c, 3, 69, 58
7, 8897, Note_on_c, 3, 69, 0
7, 8975, Note_on_c, 3, 74, 92
7, 9002, Note_on_c, 3, 74, 0
7, 9024, Note_on_c, 3, 77, 93
7, 9071, Note_on_c, 3, 77, 0
7, 9073, Note_on_c, 3, 79, 93
7, 9120, Note_on_c, 3, 77, 81
7, 9121, Note_on_c, 3, 79, 0
7, 9140, Note_on_c, 3, 77, 0
7, 9169, Note_on_c, 3, 81, 87
7, 9214, Note_on_c, 3, 79, 87
7, 9228, Note_on_c, 3, 81, 0
7, 9264, Note_on_c, 3, 77, 91
7, 9272, Note_on_c, 3, 79, 0
7, 9310, Note_on_c, 3, 74, 85
7, 9314, Note_on_c, 3, 77, 0
7, 9332, Note_on_c, 3, 74, 0
7, 9353, Note_on_c, 3, 72, 75
7, 9361, Note_on_c, 3, 74, 87
7, 9368, Note_on_c, 3, 72, 0
7, 9560, Note_on_c, 3, 74, 0
7, 9838, Note_on_c, 3, 74, 93
7, 9870, Note_on_c, 3, 74, 0
7, 9885, Note_on_c, 3, 74, 83
7, 9926, Note_on_c, 3, 74, 0
7, 9934, Note_on_c, 3, 70, 77
7, 9983, Note_on_c, 3, 67, 74
7, 9986, Note_on_c, 3, 70, 0
7, 10030, Note_on_c, 3, 67, 0
7, 10124, Note_on_c, 3, 72, 95
7, 10168, Note_on_c, 3, 72, 0
7, 10173, Note_on_c, 3, 74, 88
7, 10255, Note_on_c, 3, 74, 0
7, 10272, Note_on_c, 3, 74, 99
7, 10307, Note_on_c, 3, 74, 0
7, 10320, Note_on_c, 3, 70, 91
7, 10365, Note_on_c, 3, 69, 77
7, 10371, Note_on_c, 3, 70, 0
7, 10415, Note_on_c, 3, 69, 0
7, 10509, Note_on_c, 3, 74, 98
7, 10543, Note_on_c, 3, 74, 0
7, 10557, Note_on_c, 3, 77, 88
7, 10606, Note_on_c, 3, 79, 79
7, 10612, Note_on_c, 3, 77, 0
7, 10653, Note_on_c, 3, 77, 72
7, 10660, Note_on_c, 3, 79, 0
7, 10673, Note_on_c, 3, 77, 0
7, 10701, Note_on_c, 3, 81, 95
7, 10748, Note_on_c, 3, 79, 80
7, 10758, Note_on_c, 3, 81, 0
7, 10797, Note_on_c, 3, 77, 80
7, 10800, Note_on_c, 3, 79, 0
7, 10844, Note_on_c, 3, 77, 0
7, 10848, Note_on_c, 3, 74, 79
7, 10877, Note_on_c, 3, 74, 0
7, 10886, Note_on_c, 3, 72, 73
7, 10897, Note_on_c, 3, 74, 88
7, 10906, Note_on_c, 3, 72, 0
7, 11112, Note_on_c, 3, 74, 0
7, 11113, Note_on_c, 3, 77, 91
7, 11134, Note_on_c, 3, 74, 87
7, 11140, Note_on_c, 3, 77, 0
7, 11155, Note_on_c, 3, 72, 78
7, 11167, Note_on_c, 3, 74, 0
7, 11183, Note_on_c, 3, 69, 80
7, 11188, Note_on_c, 3, 72, 0
7, 11209, Note_on_c, 3, 69, 0
7, 11213, Note_on_c, 3, 67, 87
7, 11238, Note_on_c, 3, 64, 94
7, 11241, Note_on_c, 3, 67, 0
7, 11377, Note_on_c, 3, 81, 93
7, 11416, Note_on_c, 3, 64, 0
7, 11424, Note_on_c, 3, 79, 84
7, 11437, Note_on_c, 3, 81, 0
7, 11471, Note_on_c, 3, 77, 87
7, 11480, Note_on_c, 3, 79, 0
7, 11511, Note_on_c, 3, 77, 0
7, 11519, Note_on_c, 3, 81, 93
7, 11557, Note_on_c, 3, 79, 84
7, 11570, Note_on_c, 3, 81, 0
7, 11593, Note_on_c, 3, 77, 74
7, 11609, Note_on_c, 3, 79, 0
7, 11624, Note_on_c, 3, 72, 79
7, 11625, Note_on_c, 3, 77, 0
7, 11646, Note_on_c, 3, 74, 74
7, 11655, Note_on_c, 3, 72, 0
7, 11804, Note_on_c, 3, 74, 0
7, 12140, Note_on_c, 3, 67, 92
7, 12176, Note_on_c, 3, 67, 0
7, 12189, Note_on_c, 3, 69, 86
7, 12216, Note_on_c, 3, 69, 0
7, 12235, Note_on_c, 3, 69, 82
7, 12250, Note_on_c, 3, 72, 80
7, 12260, Note_on_c, 3, 69, 0
7, 12307, Note_on_c, 3, 72, 0
7, 12320, Note_on_c, 3, 69, 86
7, 12565, Note_on_c, 3, 69, 0
7, 12960, Note_on_c, 3, 69, 91
7, 13031, Note_on_c, 3, 69, 0
7, 13057, Note_on_c, 3, 69, 81
7, 13080, Note_on_c, 3, 67, 76
7, 13088, Note_on_c, 3, 69, 0
7, 13168, Note_on_c, 3, 67, 0
7, 13181, Note_on_c, 3, 67, 80
7, 13201, Note_on_c, 3, 65, 70
7, 13207, Note_on_c, 3, 67, 0
7, 13227, Note_on_c, 3, 62, 67
7, 13231, Note_on_c, 3, 65, 0
7, 13410, Note_on_c, 3, 62, 0
7, 13560, Note_on_c, 3, 62, 72
7, 13574, Note_on_c, 3, 62, 0
7, 13580, Note_on_c, 3, 62, 73
7, 13624, Note_on_c, 3, 62, 0
7, 13627, Note_on_c, 3, 65, 95
7, 13719, Note_on_c, 3, 65, 0
7, 13725, Note_on_c, 3, 67, 88
7, 13819, Note_on_c, 3, 67, 0
7, 13820, Note_on_c, 3, 65, 82
7, 13970, Note_on_c, 3, 65, 0
7, 14445, Note_on_c, 3, 69, 96
7, 14474, Note_on_c, 3, 69, 0
7, 14494, Note_on_c, 3, 72, 88
7, 14540, Note_on_c, 3, 74, 86
7, 14553, Note_on_c, 3, 72, 0
7, 14576, Note_on_c, 3, 74, 0
7, 14592, Note_on_c, 3, 77, 87
7, 14634, Note_on_c, 3, 77, 0
7, 14639, Note_on_c, 3, 74, 82
7, 14916, Note_on_c, 3, 74, 0
7, 15212, Note_on_c, 3, 65, 92
7, 15260, Note_on_c, 3, 65, 0
7, 15262, Note_on_c, 3, 67, 88
7, 15303, Note_on_c, 3, 67, 0
7, 15312, Note_on_c, 3, 69, 86
7, 15664, Note_on_c, 3, 69, 0
7, 15979, Note_on_c, 3, 72, 96
7, 16026, Note_on_c, 3, 74, 89
7, 16027, Note_on_c, 3, 72, 0
7, 16060, Note_on_c, 3, 74, 0
7, 16072, Note_on_c, 3, 74, 88
7, 16103, Note_on_c, 3, 72, 84
7, 16104, Note_on_c, 3, 74, 0
7, 16128, Note_on_c, 3, 74, 85
7, 16134, Note_on_c, 3, 72, 0
7, 16161, Note_on_c, 3, 70, 78
7, 16164, Note_on_c, 3, 74, 0
7, 16192, Note_on_c, 3, 67, 69
7, 16208, Note_on_c, 3, 70, 0
7, 16228, Note_on_c, 3, 69, 76
7, 16232, Note_on_c, 3, 67, 0
7, 16262, Note_on_c, 3, 67, 79
7, 16270, Note_on_c, 3, 69, 0
7, 16388, Note_on_c, 3, 67, 0
7, 16391, Note_on_c, 3, 65, 79
7, 16412, Note_on_c, 3, 62, 79
7, 16415, Note_on_c, 3, 65, 0
7, 16515, Note_on_c, 3, 62, 0
7, 16552, Note_on_c, 3, 67, 88
7, 16594, Note_on_c, 3, 67, 0
7, 16605, Note_on_c, 3, 67, 73
7, 16642, Note_on_c, 3, 67, 0
7, 16653, Note_on_c, 3, 67, 84
7, 16784, Note_on_c, 3, 67, 0
7, 16798, Note_on_c, 3, 67, 84
7, 16840, Note_on_c, 3, 67, 0
7, 16849, Note_on_c, 3, 65, 75
7, 17093, Note_on_c, 3, 65, 0
7, 23659, Note_on_c, 3, 74, 94
7, 23696, Note_on_c, 3, 74, 0
7, 23708, Note_on_c, 3, 74, 88
7, 23767, Note_on_c, 3, 74, 0
7, 23800, Note_on_c, 3, 70, 92
7, 23832, Pitch_bend_c, 3, 8309
7, 23834, Pitch_bend_c, 3, 8777
7, 23837, Pitch_bend_c, 3, 9128
7, 23840, Pitch_bend_c, 3, 9479
7, 23842, Pitch_bend_c, 3, 9830
7, 23845, Pitch_bend_c, 3, 10298
7, 23847, Pitch_bend_c, 3, 10766
7, 23850, Pitch_bend_c, 3, 11000
7, 23852, Pitch_bend_c, 3, 11234
7, 23858, Note_on_c, 3, 70, 0
7, 23860, Pitch_bend_c, 3, 10298
7, 23862, Pitch_bend_c, 3, 8426
7, 23865, Pitch_bend_c, 3, 8192
7, 23949, Note_on_c, 3, 72, 96
7, 23982, Note_on_c, 3, 72, 0
7, 23999, Note_on_c, 3, 74, 93
7, 24077, Note_on_c, 3, 74, 0
7, 24093, Note_on_c, 3, 74, 86
7, 24119, Note_on_c, 3, 74, 0
7, 24143, Note_on_c, 3, 70, 82
7, 24193, Note_on_c, 3, 69, 74
7, 24194, Note_on_c, 3, 70, 0
7, 24290, Note_on_c, 3, 69, 0
7, 24331, Note_on_c, 3, 74, 88
7, 24371, Note_on_c, 3, 74, 0
7, 24382, Note_on_c, 3, 77, 93
7, 24424, Note_on_c, 3, 77, 0
7, 24431, Note_on_c, 3, 79, 95
7, 24478, Note_on_c, 3, 77, 72
7, 24483, Note_on_c, 3, 79, 0
7, 24496, Note_on_c, 3, 77, 0
7, 24524, Note_on_c, 3, 81, 94
7, 24572, Note_on_c, 3, 79, 86
7, 24586, Note_on_c, 3, 81, 0
7, 24619, Note_on_c, 3, 77, 77
7, 24627, Note_on_c, 3, 79, 0
7, 24666, Note_on_c, 3, 74, 80
7, 24677, Note_on_c, 3, 77, 0
7, 24700, Note_on_c, 3, 74, 0
7, 24715, Note_on_c, 3, 72, 97
7, 24722, Note_on_c, 3, 74, 82
7, 24732, Note_on_c, 3, 72, 0
7, 24935, Note_on_c, 3, 74, 0
7, 25196, Note_on_c, 3, 74, 100
7, 25224, Note_on_c, 3, 74, 0
7, 25244, Note_on_c, 3, 74, 99
7, 25297, Note_on_c, 3, 70, 95
7, 25299, Note_on_c, 3, 74, 0
7, 25347, Note_on_c, 3, 67, 82
7, 25356, Note_on_c, 3, 70, 0
7, 25404, Note_on_c, 3, 67, 0
7, 25487, Note_on_c, 3, 72, 95
7, 25529, Note_on_c, 3, 72, 0
7, 25535, Note_on_c, 3, 74, 87
7, 25616, Note_on_c, 3, 74, 0
7, 25632, Note_on_c, 3, 74, 92
7, 25681, Note_on_c, 3, 74, 0
7, 25682, Note_on_c, 3, 70, 77
7, 25728, Note_on_c, 3, 69, 71
7, 25737, Note_on_c, 3, 70, 0
7, 25784, Note_on_c, 3, 69, 0
7, 25873, Note_on_c, 3, 74, 89
7, 25904, Note_on_c, 3, 74, 0
7, 25922, Note_on_c, 3, 77, 94
7, 25971, Note_on_c, 3, 79, 83
7, 25978, Note_on_c, 3, 77, 0
7, 26012, Note_on_c, 3, 79, 0
7, 26017, Note_on_c, 3, 77, 97
7, 26053, Note_on_c, 3, 77, 0
7, 26108, Note_on_c, 3, 81, 95
7, 26143, Note_on_c, 3, 79, 92
7, 26152, Note_on_c, 3, 81, 0
7, 26174, Note_on_c, 3, 79, 0
7, 26189, Note_on_c, 3, 77, 87
7, 26212, Note_on_c, 3, 74, 85
7, 26218, Note_on_c, 3, 77, 0
7, 26236, Note_on_c, 3, 74, 0
7, 26243, Note_on_c, 3, 74, 85
7, 26279, Note_on_c, 3, 74, 0
7, 26284, Note_on_c, 3, 72, 72
7, 26293, Note_on_c, 3, 74, 83
7, 26306, Note_on_c, 3, 72, 0
7, 26404, Note_on_c, 3, 74, 0
7, 26444, Note_on_c, 3, 81, 93
7, 26485, Note_on_c, 3, 81, 0
7, 26491, Note_on_c, 3, 79, 97
7, 26563, Note_on_c, 3, 77, 74
7, 26567, Note_on_c, 3, 79, 0
7, 26586, Note_on_c, 3, 74, 90
7, 26592, Note_on_c, 3, 77, 0
7, 26684, Note_on_c, 3, 74, 0
7, 26733, Note_on_c, 3, 77, 96
7, 26756, Note_on_c, 3, 79, 85
7, 26762, Note_on_c, 3, 77, 0
7, 26783, Note_on_c, 3, 81, 95
7, 26791, Note_on_c, 3, 79, 0
7, 26815, Note_on_c, 3, 81, 0
7, 26829, Note_on_c, 3, 81, 92
7, 26869, Note_on_c, 3, 81, 0
7, 26880, Note_on_c, 3, 81, 97
7, 26925, Note_on_c, 3, 79, 75
7, 26935, Note_on_c, 3, 81, 0
7, 26943, Note_on_c, 3, 77, 71
7, 26957, Note_on_c, 3, 79, 0
7, 26973, Note_on_c, 3, 74, 71
7, 26976, Note_on_c, 3, 77, 0
7, 27125, Note_on_c, 3, 74, 0
7, 27502, Note_on_c, 3, 77, 98
7, 27547, Note_on_c, 3, 79, 91
7, 27553, Note_on_c, 3, 77, 0
7, 27578, Note_on_c, 3, 79, 0
7, 27593, Note_on_c, 3, 79, 90
7, 27600, Note_on_c, 3, 81, 93
7, 27609, Note_on_c, 3, 79, 0
7, 27668, Note_on_c, 3, 81, 0
7, 27671, Note_on_c, 3, 79, 79
7, 27735, Note_on_c, 3, 79, 0
7, 27739, Note_on_c, 3, 74, 74
7, 27788, Note_on_c, 3, 72, 70
7, 27793, Note_on_c, 3, 74, 0
7, 27836, Note_on_c, 3, 69, 66
7, 27845, Note_on_c, 3, 72, 0
7, 28020, Note_on_c, 3, 69, 0
7, 28265, Note_on_c, 3, 74, 82
7, 28291, Note_on_c, 3, 74, 0
7, 28313, Note_on_c, 3, 74, 94
7, 28351, Note_on_c, 3, 74, 0
7, 28363, Note_on_c, 3, 79, 86
7, 28384, Note_on_c, 3, 77, 80
7, 28388, Note_on_c, 3, 79, 0
7, 28409, Note_on_c, 3, 74, 82
7, 28419, Note_on_c, 3, 77, 0
7, 28450, Note_on_c, 3, 74, 0
7, 28460, Note_on_c, 3, 74, 80
7, 28608, Note_on_c, 3, 74, 0
7, 28699, Note_on_c, 3, 67, 85
7, 28722, Note_on_c, 3, 69, 73
7, 28729, Note_on_c, 3, 67, 0
7, 28762, Note_on_c, 3, 69, 0
7, 28771, Note_on_c, 3, 67, 75
7, 28794, Note_on_c, 3, 65, 73
7, 28800, Note_on_c, 3, 67, 0
7, 28910, Note_on_c, 3, 65, 0
7, 29039, Note_on_c, 3, 67, 72
7, 29080, Note_on_c, 3, 67, 0
7, 29082, Note_on_c, 3, 67, 82
7, 29133, Note_on_c, 3, 65, 84
7, 29134, Note_on_c, 3, 67, 0
7, 29367, Note_on_c, 3, 65, 0
7, 29807, Note_on_c, 3, 77, 94
7, 29855, Note_on_c, 3, 79, 89
7, 29863, Note_on_c, 3, 77, 0
7, 29893, Note_on_c, 3, 79, 0
7, 29905, Note_on_c, 3, 81, 88
7, 29974, Note_on_c, 3, 81, 0
7, 29977, Note_on_c, 3, 79, 87
7, 30019, Note_on_c, 3, 79, 0
7, 30023, Note_on_c, 3, 77, 87
7, 30044, Note_on_c, 3, 74, 87
7, 30045, Note_on_c, 3, 77, 0
7, 30233, Note_on_c, 3, 74, 0
7, 30573, Note_on_c, 3, 67, 92
7, 30622, Note_on_c, 3, 69, 89
7, 30629, Note_on_c, 3, 67, 0
7, 30652, Note_on_c, 3, 69, 0
7, 30666, Note_on_c, 3, 69, 83
7, 30680, Note_on_c, 3, 72, 81
7, 30695, Note_on_c, 3, 69, 0
7, 30728, Note_on_c, 3, 69, 77
7, 30732, Note_on_c, 3, 72, 0
7, 30969, Note_on_c, 3, 69, 0
7, 31342, Note_on_c, 3, 77, 95
7, 31384, Note_on_c, 3, 77, 0
7, 31392, Note_on_c, 3, 79, 89
7, 31398, Note_on_c, 3, 81, 89
7, 31410, Note_on_c, 3, 79, 0
7, 31478, Note_on_c, 3, 81, 0
7, 31489, Note_on_c, 3, 79, 86
7, 31522, Note_on_c, 3, 77, 85
7, 31528, Note_on_c, 3, 79, 0
7, 31555, Note_on_c, 3, 74, 84
7, 31560, Note_on_c, 3, 77, 0
7, 31771, Note_on_c, 3, 74, 0
7, 31772, Note_on_c, 3, 74, 89
7, 31826, Note_on_c, 3, 77, 95
7, 31832, Note_on_c, 3, 74, 0
7, 32135, Note_on_c, 3, 77, 0
7, 32160, Note_on_c, 3, 79, 88
7, 32213, Note_on_c, 3, 79, 0
7, 32213, Note_on_c, 3, 77, 74
7, 32491, Note_on_c, 3, 77, 0
7, 32880, Note_on_c, 3, 81, 99
7, 32945, Note_on_c, 3, 81, 0
7, 32955, Note_on_c, 3, 81, 93
7, 33021, Note_on_c, 3, 81, 0
7, 33031, Note_on_c, 3, 81, 91
7, 33066, Note_on_c, 3, 79, 90
7, 33078, Note_on_c, 3, 81, 0
7, 33098, Note_on_c, 3, 77, 84
7, 33107, Note_on_c, 3, 79, 0
7, 33142, Note_on_c, 3, 74, 82
7, 33143, Note_on_c, 3, 77, 0
7, 33366, Note_on_c, 3, 74, 0
7, 33642, Note_on_c, 3, 69, 92
7, 33680, Note_on_c, 3, 69, 0
7, 33690, Note_on_c, 3, 69, 91
7, 33730, Note_on_c, 3, 69, 0
7, 33741, Note_on_c, 3, 72, 89
7, 33798, Note_on_c, 3, 72, 0
7, 33812, Note_on_c, 3, 69, 79
7, 34031, Note_on_c, 3, 69, 0
7, 34412, Note_on_c, 3, 77, 91
7, 34464, Note_on_c, 3, 77, 0
7, 34477, Note_on_c, 3, 81, 87
7, 34533, Note_on_c, 3, 81, 0
7, 34548, Note_on_c, 3, 79, 86
7, 34618, Note_on_c, 3, 79, 0
7, 34624, Note_on_c, 3, 77, 80
7, 34648, Note_on_c, 3, 74, 84
7, 34656, Note_on_c, 3, 77, 0
7, 34821, Note_on_c, 3, 74, 0
7, 34974, Note_on_c, 3, 67, 90
7, 35007, Note_on_c, 3, 67, 0
7, 35015, Note_on_c, 3, 67, 85
7, 35072, Note_on_c, 3, 67, 0
7, 35080, Note_on_c, 3, 65, 84
7, 35210, Note_on_c, 3, 65, 0
7, 35234, Note_on_c, 3, 67, 98
7, 35248, Note_on_c, 3, 67, 0
7, 35257, Note_on_c, 3, 67, 90
7, 35287, Note_on_c, 3, 65, 81
7, 35289, Note_on_c, 3, 67, 0
7, 35566, Note_on_c, 3, 65, 0
7, 35997, Note_on_c, 3, 74, 96
7, 36028, Note_on_c, 3, 74, 0
7, 36042, Note_on_c, 3, 74, 95
7, 36094, Note_on_c, 3, 77, 83
7, 36102, Note_on_c, 3, 74, 0
7, 36145, Note_on_c, 3, 74, 81
7, 36149, Note_on_c, 3, 77, 0
7, 36374, Note_on_c, 3, 74, 0
7, 36714, Note_on_c, 3, 67, 95
7, 36767, Note_on_c, 3, 67, 0
7, 36780, Note_on_c, 3, 69, 91
7, 36842, Note_on_c, 3, 69, 0
7, 36854, Note_on_c, 3, 72, 81
7, 36912, Note_on_c, 3, 72, 0
7, 36915, Note_on_c, 3, 69, 76
7, 37064, Note_on_c, 3, 69, 0
7, 37095, Note_on_c, 3, 77, 94
7, 37127, Note_on_c, 3, 77, 0
7, 37135, Note_on_c, 3, 79, 89
7, 37158, Note_on_c, 3, 79, 0
7, 37161, Note_on_c, 3, 77, 85
7, 37198, Note_on_c, 3, 81, 83
7, 37202, Note_on_c, 3, 77, 0
7, 37237, Note_on_c, 3, 81, 0
7, 37240, Note_on_c, 3, 77, 89
7, 37268, Note_on_c, 3, 77, 0
7, 37271, Note_on_c, 3, 79, 84
7, 37301, Note_on_c, 3, 77, 90
7, 37307, Note_on_c, 3, 79, 0
7, 37332, Note_on_c, 3, 77, 0
7, 37340, Note_on_c, 3, 74, 83
7, 37373, Note_on_c, 3, 74, 0
7, 37388, Note_on_c, 3, 74, 73
7, 37552, Note_on_c, 3, 74, 0
7, 37679, Note_on_c, 3, 67, 97
7, 37711, Note_on_c, 3, 67, 0
7, 37738, Note_on_c, 3, 67, 85
7, 37767, Note_on_c, 3, 67, 0
7, 37776, Note_on_c, 3, 69, 83
7, 37813, Note_on_c, 3, 65, 86
7, 37816, Note_on_c, 3, 69, 0
7, 37848, Note_on_c, 3, 65, 0
7, 37852, Note_on_c, 3, 67, 89
7, 37884, Note_on_c, 3, 65, 81
7, 37888, Note_on_c, 3, 67, 0
7, 37928, Note_on_c, 3, 65, 0
7, 37961, Note_on_c, 3, 62, 76
7, 38099, Note_on_c, 3, 62, 0
7, 38253, Note_on_c, 3, 67, 95
7, 38300, Note_on_c, 3, 67, 0
7, 38301, Note_on_c, 3, 67, 94
7, 38348, Note_on_c, 3, 67, 0
7, 38349, Note_on_c, 3, 65, 91
7, 38596, Note_on_c, 3, 65, 0
7, 38596, End_track
8, 0, Start_track
8, 0, MIDI_port, 0
8, 118, Program_c, 5, 26
8, 119, Control_c, 5, 7, 80
8, 119, Control_c, 5, 10, 127
8, 119, Control_c, 5, 11, 127
8, 120, Control_c, 5, 91, 60
8, 120, Control_c, 5, 93, 20
8, 5517, Note_on_c, 5, 67, 78
8, 5518, Note_on_c, 5, 71, 67
8, 5518, Pitch_bend_c, 5, 8192
8, 5518, Control_c, 5, 1, 0
8, 5531, Note_on_c, 5, 71, 0
8, 5533, Note_on_c, 5, 67, 0
8, 5568, Note_on_c, 5, 65, 80
8, 5569, Note_on_c, 5, 69, 62
8, 5648, Note_on_c, 5, 69, 0
8, 5648, Note_on_c, 5, 65, 0
8, 5662, Note_on_c, 5, 67, 69
8, 5662, Note_on_c, 5, 71, 65
8, 5670, Note_on_c, 5, 67, 0
8, 5673, Note_on_c, 5, 71, 0
8, 5713, Note_on_c, 5, 65, 78
8, 5715, Note_on_c, 5, 69, 53
8, 5783, Note_on_c, 5, 69, 0
8, 5797, Note_on_c, 5, 65, 0
8, 5807, Note_on_c, 5, 71, 62
8, 5807, Note_on_c, 5, 67, 72
8, 5821, Note_on_c, 5, 67, 0
8, 5824, Note_on_c, 5, 71, 0
8, 5857, Note_on_c, 5, 65, 75
8, 5857, Note_on_c, 5, 69, 57
8, 6037, Note_on_c, 5, 65, 0
8, 6039, Note_on_c, 5, 69, 0
8, 6047, Note_on_c, 5, 65, 74
8, 6048, Note_on_c, 5, 69, 64
8, 6055, Note_on_c, 5, 69, 0
8, 6057, Note_on_c, 5, 65, 0
8, 6289, Note_on_c, 5, 62, 73
8, 6290, Note_on_c, 5, 65, 61
8, 6299, Note_on_c, 5, 65, 0
8, 6302, Note_on_c, 5, 62, 0
8, 6337, Note_on_c, 5, 61, 71
8, 6339, Note_on_c, 5, 64, 50
8, 6397, Note_on_c, 5, 64, 0
8, 6400, Note_on_c, 5, 61, 0
8, 6434, Note_on_c, 5, 62, 70
8, 6434, Note_on_c, 5, 65, 66
8, 6443, Note_on_c, 5, 65, 0
8, 6445, Note_on_c, 5, 62, 0
8, 6481, Note_on_c, 5, 61, 76
8, 6481, Note_on_c, 5, 64, 65
8, 6549, Note_on_c, 5, 64, 0
8, 6551, Note_on_c, 5, 61, 0
8, 6574, Note_on_c, 5, 62, 69
8, 6575, Note_on_c, 5, 65, 63
8, 6585, Note_on_c, 5, 65, 0
8, 6585, Note_on_c, 5, 62, 0
8, 6624, Note_on_c, 5, 61, 74
8, 6624, Note_on_c, 5, 64, 59
8, 6810, Note_on_c, 5, 64, 0
8, 6812, Note_on_c, 5, 61, 0
8, 6817, Note_on_c, 5, 64, 59
8, 6818, Note_on_c, 5, 61, 59
8, 6829, Note_on_c, 5, 64, 0
8, 6830, Note_on_c, 5, 61, 0
8, 7053, Note_on_c, 5, 64, 66
8, 7054, Note_on_c, 5, 60, 63
8, 7062, Note_on_c, 5, 60, 0
8, 7064, Note_on_c, 5, 64, 0
8, 7104, Note_on_c, 5, 62, 62
8, 7104, Note_on_c, 5, 58, 75
8, 7188, Note_on_c, 5, 58, 0
8, 7194, Note_on_c, 5, 62, 0
8, 7199, Note_on_c, 5, 60, 66
8, 7200, Note_on_c, 5, 64, 63
8, 7205, Note_on_c, 5, 60, 0
8, 7208, Note_on_c, 5, 64, 0
8, 7248, Note_on_c, 5, 62, 62
8, 7249, Note_on_c, 5, 58, 70
8, 7330, Note_on_c, 5, 58, 0
8, 7332, Note_on_c, 5, 62, 0
8, 7342, Note_on_c, 5, 60, 61
8, 7342, Note_on_c, 5, 64, 60
8, 7349, Note_on_c, 5, 60, 0
8, 7354, Note_on_c, 5, 64, 0
8, 7392, Note_on_c, 5, 58, 72
8, 7392, Note_on_c, 5, 62, 61
8, 7574, Note_on_c, 5, 62, 0
8, 7575, Note_on_c, 5, 58, 0
8, 7583, Note_on_c, 5, 58, 70
8, 7583, Note_on_c, 5, 62, 65
8, 7595, Note_on_c, 5, 58, 0
8, 7596, Note_on_c, 5, 62, 0
8, 7823, Note_on_c, 5, 67, 69
8, 7823, Note_on_c, 5, 71, 62
8, 7832, Note_on_c, 5, 67, 0
8, 7833, Note_on_c, 5, 71, 0
8, 7873, Note_on_c, 5, 65, 77
8, 7874, Note_on_c, 5, 69, 61
8, 7952, Note_on_c, 5, 69, 0
8, 7953, Note_on_c, 5, 65, 0
8, 7965, Note_on_c, 5, 67, 66
8, 7965, Note_on_c, 5, 71, 68
8, 7974, Note_on_c, 5, 67, 0
8, 7977, Note_on_c, 5, 71, 0
8, 8016, Note_on_c, 5, 69, 62
8, 8016, Note_on_c, 5, 65, 78
8, 8100, Note_on_c, 5, 65, 0
8, 8102, Note_on_c, 5, 69, 0
8, 8110, Note_on_c, 5, 71, 63
8, 8111, Note_on_c, 5, 67, 59
8, 8119, Note_on_c, 5, 67, 0
8, 8123, Note_on_c, 5, 71, 0
8, 8159, Note_on_c, 5, 69, 67
8, 8160, Note_on_c, 5, 65, 80
8, 8283, Note_on_c, 5, 69, 0
8, 8292, Note_on_c, 5, 65, 0
8, 8351, Note_on_c, 5, 69, 57
8, 8351, Note_on_c, 5, 65, 76
8, 8365, Note_on_c, 5, 69, 0
8, 8368, Note_on_c, 5, 65, 0
8, 8542, Note_on_c, 5, 58, 61
8, 8543, Note_on_c, 5, 62, 75
8, 8545, Note_on_c, 5, 67, 74
8, 8639, Note_on_c, 5, 55, 41
8, 8642, Note_on_c, 5, 58, 0
8, 8735, Note_on_c, 5, 62, 0
8, 8736, Note_on_c, 5, 67, 0
8, 8737, Note_on_c, 5, 62, 72
8, 8738, Note_on_c, 5, 58, 57
8, 8738, Note_on_c, 5, 67, 68
8, 8749, Note_on_c, 5, 58, 0
8, 8750, Note_on_c, 5, 67, 0
8, 8752, Note_on_c, 5, 55, 0
8, 8754, Note_on_c, 5, 62, 0
8, 8879, Note_on_c, 5, 57, 42
8, 8881, Note_on_c, 5, 62, 45
8, 8925, Note_on_c, 5, 62, 0
8, 8926, Note_on_c, 5, 57, 0
8, 8927, Note_on_c, 5, 57, 59
8, 8928, Note_on_c, 5, 62, 69
8, 8929, Note_on_c, 5, 65, 72
8, 9068, Note_on_c, 5, 57, 0
8, 9115, Note_on_c, 5, 65, 0
8, 9117, Note_on_c, 5, 62, 0
8, 9118, Note_on_c, 5, 62, 67
8, 9120, Note_on_c, 5, 65, 68
8, 9167, Note_on_c, 5, 62, 0
8, 9168, Note_on_c, 5, 62, 55
8, 9177, Note_on_c, 5, 62, 0
8, 9177, Note_on_c, 5, 65, 0
8, 9262, Note_on_c, 5, 55, 40
8, 9264, Note_on_c, 5, 58, 48
8, 9265, Note_on_c, 5, 62, 45
8, 9309, Note_on_c, 5, 62, 0
8, 9310, Note_on_c, 5, 58, 0
8, 9311, Note_on_c, 5, 58, 69
8, 9312, Note_on_c, 5, 62, 81
8, 9313, Note_on_c, 5, 67, 74
8, 9401, Note_on_c, 5, 58, 0
8, 9403, Note_on_c, 5, 62, 0
8, 9501, Note_on_c, 5, 67, 0
8, 9504, Note_on_c, 5, 67, 75
8, 9505, Note_on_c, 5, 58, 70
8, 9506, Note_on_c, 5, 62, 79
8, 9516, Note_on_c, 5, 58, 0
8, 9521, Note_on_c, 5, 55, 0
8, 9522, Note_on_c, 5, 62, 0
8, 9523, Note_on_c, 5, 67, 0
8, 9645, Note_on_c, 5, 57, 51
8, 9647, Note_on_c, 5, 62, 57
8, 9694, Note_on_c, 5, 62, 0
8, 9695, Note_on_c, 5, 62, 68
8, 9697, Note_on_c, 5, 65, 74
8, 9788, Note_on_c, 5, 62, 0
8, 9838, Note_on_c, 5, 65, 0
8, 9839, Note_on_c, 5, 65, 69
8, 9840, Note_on_c, 5, 62, 59
8, 9844, Note_on_c, 5, 69, 48
8, 9882, Note_on_c, 5, 69, 0
8, 9886, Note_on_c, 5, 62, 0
8, 9886, Note_on_c, 5, 65, 0
8, 9887, Note_on_c, 5, 65, 72
8, 9887, Note_on_c, 5, 62, 66
8, 9889, Note_on_c, 5, 69, 71
8, 9932, Note_on_c, 5, 62, 0
8, 9934, Note_on_c, 5, 65, 0
8, 9935, Note_on_c, 5, 69, 0
8, 9935, Note_on_c, 5, 65, 66
8, 9936, Note_on_c, 5, 69, 55
8, 9940, Note_on_c, 5, 57, 0
8, 9941, Note_on_c, 5, 69, 0
8, 9946, Note_on_c, 5, 65, 0
8, 10030, Note_on_c, 5, 55, 43
8, 10031, Note_on_c, 5, 58, 57
8, 10033, Note_on_c, 5, 62, 48
8, 10077, Note_on_c, 5, 62, 0
8, 10077, Note_on_c, 5, 58, 0
8, 10079, Note_on_c, 5, 62, 81
8, 10079, Note_on_c, 5, 58, 72
8, 10080, Note_on_c, 5, 67, 79
8, 10172, Note_on_c, 5, 58, 0
8, 10173, Note_on_c, 5, 62, 0
8, 10174, Note_on_c, 5, 67, 0
8, 10175, Note_on_c, 5, 62, 67
8, 10175, Note_on_c, 5, 67, 68
8, 10222, Note_on_c, 5, 67, 0
8, 10223, Note_on_c, 5, 62, 0
8, 10223, Note_on_c, 5, 67, 78
8, 10224, Note_on_c, 5, 62, 74
8, 10270, Note_on_c, 5, 62, 0
8, 10271, Note_on_c, 5, 62, 85
8, 10272, Note_on_c, 5, 67, 0
8, 10273, Note_on_c, 5, 67, 82
8, 10274, Note_on_c, 5, 58, 73
8, 10282, Note_on_c, 5, 58, 0
8, 10287, Note_on_c, 5, 67, 0
8, 10288, Note_on_c, 5, 62, 0
8, 10291, Note_on_c, 5, 55, 0
8, 10369, Note_on_c, 5, 65, 44
8, 10369, Note_on_c, 5, 62, 40
8, 10412, Note_on_c, 5, 62, 0
8, 10414, Note_on_c, 5, 65, 0
8, 10414, Note_on_c, 5, 57, 43
8, 10415, Note_on_c, 5, 62, 61
8, 10459, Note_on_c, 5, 62, 0
8, 10462, Note_on_c, 5, 62, 50
8, 10463, Note_on_c, 5, 65, 69
8, 10464, Note_on_c, 5, 69, 63
8, 10557, Note_on_c, 5, 62, 0
8, 10606, Note_on_c, 5, 65, 0
8, 10606, Note_on_c, 5, 62, 53
8, 10653, Note_on_c, 5, 62, 0
8, 10653, Note_on_c, 5, 69, 0
8, 10654, Note_on_c, 5, 62, 72
8, 10654, Note_on_c, 5, 65, 82
8, 10655, Note_on_c, 5, 69, 84
8, 10703, Note_on_c, 5, 65, 0
8, 10703, Note_on_c, 5, 62, 0
8, 10704, Note_on_c, 5, 65, 71
8, 10708, Note_on_c, 5, 69, 0
8, 10709, Note_on_c, 5, 65, 0
8, 10712, Note_on_c, 5, 57, 0
8, 10751, Note_on_c, 5, 62, 56
8, 10752, Note_on_c, 5, 65, 75
8, 10754, Note_on_c, 5, 70, 54
8, 10844, Note_on_c, 5, 62, 0
8, 10845, Note_on_c, 5, 65, 0
8, 10846, Note_on_c, 5, 70, 0
8, 10846, Note_on_c, 5, 62, 62
8, 10847, Note_on_c, 5, 70, 84
8, 10847, Note_on_c, 5, 65, 82
8, 10944, Note_on_c, 5, 65, 0
8, 10945, Note_on_c, 5, 70, 0
8, 10945, Note_on_c, 5, 65, 71
8, 10946, Note_on_c, 5, 70, 71
8, 10989, Note_on_c, 5, 65, 0
8, 10992, Note_on_c, 5, 65, 61
8, 10993, Note_on_c, 5, 70, 0
8, 11038, Note_on_c, 5, 62, 0
8, 11039, Note_on_c, 5, 65, 0
8, 11039, Note_on_c, 5, 62, 78
8, 11040, Note_on_c, 5, 65, 83
8, 11041, Note_on_c, 5, 70, 84
8, 11088, Note_on_c, 5, 65, 0
8, 11089, Note_on_c, 5, 65, 79
8, 11091, Note_on_c, 5, 70, 0
8, 11094, Note_on_c, 5, 65, 0
8, 11097, Note_on_c, 5, 62, 0
8, 11137, Note_on_c, 5, 61, 62
8, 11137, Note_on_c, 5, 64, 67
8, 11182, Note_on_c, 5, 64, 0
8, 11184, Note_on_c, 5, 64, 71
8, 11186, Note_on_c, 5, 69, 67
8, 11227, Note_on_c, 5, 61, 0
8, 11232, Note_on_c, 5, 69, 0
8, 11232, Note_on_c, 5, 64, 0
8, 11233, Note_on_c, 5, 64, 77
8, 11233, Note_on_c, 5, 61, 65
8, 11233, Note_on_c, 5, 69, 62
8, 11278, Note_on_c, 5, 61, 0
8, 11279, Note_on_c, 5, 69, 0
8, 11279, Note_on_c, 5, 57, 40
8, 11280, Note_on_c, 5, 64, 0
8, 11280, Note_on_c, 5, 61, 79
8, 11281, Note_on_c, 5, 64, 83
8, 11282, Note_on_c, 5, 69, 76
8, 11328, Note_on_c, 5, 69, 0
8, 11328, Note_on_c, 5, 61, 0
8, 11329, Note_on_c, 5, 64, 0
8, 11329, Note_on_c, 5, 61, 81
8, 11330, Note_on_c, 5, 64, 84
8, 11330, Note_on_c, 5, 69, 82
8, 11375, Note_on_c, 5, 69, 0
8, 11376, Note_on_c, 5, 64, 0
8, 11376, Note_on_c, 5, 61, 0
8, 11377, Note_on_c, 5, 61, 84
8, 11377, Note_on_c, 5, 69, 85
8, 11378, Note_on_c, 5, 64, 83
8, 11424, Note_on_c, 5, 61, 0
8, 11425, Note_on_c, 5, 64, 0
8, 11425, Note_on_c, 5, 61, 83
8, 11426, Note_on_c, 5, 69, 0
8, 11426, Note_on_c, 5, 64, 83
8, 11427, Note_on_c, 5, 69, 84
8, 11470, Note_on_c, 5, 69, 0
8, 11470, Note_on_c, 5, 64, 0
8, 11470, Note_on_c, 5, 61, 0
8, 11472, Note_on_c, 5, 61, 83
8, 11473, Note_on_c, 5, 64, 84
8, 11475, Note_on_c, 5, 69, 73
8, 11516, Note_on_c, 5, 69, 0
8, 11523, Note_on_c, 5, 61, 0
8, 11524, Note_on_c, 5, 64, 0
8, 11528, Note_on_c, 5, 57, 0
8, 11661, Note_on_c, 5, 67, 67
8, 11661, Note_on_c, 5, 71, 66
8, 11672, Note_on_c, 5, 71, 0
8, 11672, Note_on_c, 5, 67, 0
8, 11712, Note_on_c, 5, 69, 68
8, 11713, Note_on_c, 5, 65, 69
8, 11794, Note_on_c, 5, 65, 0
8, 11794, Note_on_c, 5, 69, 0
8, 11807, Note_on_c, 5, 67, 63
8, 11807, Note_on_c, 5, 71, 67
8, 11817, Note_on_c, 5, 67, 0
8, 11821, Note_on_c, 5, 71, 0
8, 11855, Note_on_c, 5, 65, 72
8, 11856, Note_on_c, 5, 69, 65
8, 11940, Note_on_c, 5, 69, 0
8, 11940, Note_on_c, 5, 65, 0
8, 11950, Note_on_c, 5, 67, 65
8, 11950, Note_on_c, 5, 71, 66
8, 11960, Note_on_c, 5, 67, 0
8, 11962, Note_on_c, 5, 71, 0
8, 11999, Note_on_c, 5, 69, 65
8, 12000, Note_on_c, 5, 65, 70
8, 12181, Note_on_c, 5, 65, 0
8, 12183, Note_on_c, 5, 69, 0
8, 12191, Note_on_c, 5, 64, 63
8, 12191, Note_on_c, 5, 69, 63
8, 12193, Note_on_c, 5, 69, 0
8, 12193, Note_on_c, 5, 64, 0
8, 12430, Note_on_c, 5, 65, 65
8, 12431, Note_on_c, 5, 62, 60
8, 12438, Note_on_c, 5, 62, 0
8, 12441, Note_on_c, 5, 65, 0
8, 12479, Note_on_c, 5, 64, 67
8, 12481, Note_on_c, 5, 61, 57
8, 12552, Note_on_c, 5, 61, 0
8, 12566, Note_on_c, 5, 64, 0
8, 12575, Note_on_c, 5, 65, 55
8, 12575, Note_on_c, 5, 62, 55
8, 12577, Note_on_c, 5, 65, 0
8, 12584, Note_on_c, 5, 62, 0
8, 12625, Note_on_c, 5, 61, 68
8, 12627, Note_on_c, 5, 64, 62
8, 12694, Note_on_c, 5, 64, 0
8, 12695, Note_on_c, 5, 61, 0
8, 12719, Note_on_c, 5, 62, 48
8, 12719, Note_on_c, 5, 65, 67
8, 12725, Note_on_c, 5, 62, 0
8, 12726, Note_on_c, 5, 65, 0
8, 12767, Note_on_c, 5, 61, 67
8, 12770, Note_on_c, 5, 64, 63
8, 12891, Note_on_c, 5, 61, 0
8, 12950, Note_on_c, 5, 64, 0
8, 12958, Note_on_c, 5, 64, 65
8, 12959, Note_on_c, 5, 61, 62
8, 12969, Note_on_c, 5, 61, 0
8, 12969, Note_on_c, 5, 64, 0
8, 13199, Note_on_c, 5, 63, 57
8, 13200, Note_on_c, 5, 60, 65
8, 13201, Note_on_c, 5, 63, 0
8, 13203, Note_on_c, 5, 60, 0
8, 13248, Note_on_c, 5, 62, 59
8, 13249, Note_on_c, 5, 58, 75
8, 13333, Note_on_c, 5, 58, 0
8, 13335, Note_on_c, 5, 62, 0
8, 13344, Note_on_c, 5, 60, 72
8, 13344, Note_on_c, 5, 64, 61
8, 13355, Note_on_c, 5, 60, 0
8, 13357, Note_on_c, 5, 64, 0
8, 13392, Note_on_c, 5, 62, 62
8, 13394, Note_on_c, 5, 58, 69
8, 13479, Note_on_c, 5, 58, 0
8, 13481, Note_on_c, 5, 62, 0
8, 13488, Note_on_c, 5, 63, 60
8, 13489, Note_on_c, 5, 60, 63
8, 13490, Note_on_c, 5, 63, 0
8, 13499, Note_on_c, 5, 60, 0
8, 13536, Note_on_c, 5, 62, 61
8, 13537, Note_on_c, 5, 58, 75
8, 13668, Note_on_c, 5, 62, 0
8, 13679, Note_on_c, 5, 58, 0
8, 13726, Note_on_c, 5, 58, 63
8, 13727, Note_on_c, 5, 62, 63
8, 13738, Note_on_c, 5, 58, 0
8, 13741, Note_on_c, 5, 62, 0
8, 13966, Note_on_c, 5, 71, 65
8, 13967, Note_on_c, 5, 67, 69
8, 13978, Note_on_c, 5, 67, 0
8, 13978, Note_on_c, 5, 71, 0
8, 14016, Note_on_c, 5, 65, 76
8, 14019, Note_on_c, 5, 69, 64
8, 14089, Note_on_c, 5, 69, 0
8, 14095, Note_on_c, 5, 65, 0
8, 14109, Note_on_c, 5, 71, 67
8, 14110, Note_on_c, 5, 67, 71
8, 14122, Note_on_c, 5, 67, 0
8, 14123, Note_on_c, 5, 71, 0
8, 14160, Note_on_c, 5, 69, 64
8, 14161, Note_on_c, 5, 65, 75
8, 14246, Note_on_c, 5, 65, 0
8, 14248, Note_on_c, 5, 69, 0
8, 14255, Note_on_c, 5, 67, 62
8, 14255, Note_on_c, 5, 71, 65
8, 14265, Note_on_c, 5, 71, 0
8, 14265, Note_on_c, 5, 67, 0
8, 14304, Note_on_c, 5, 69, 65
8, 14305, Note_on_c, 5, 65, 77
8, 14438, Note_on_c, 5, 65, 0
8, 14485, Note_on_c, 5, 69, 0
8, 14495, Note_on_c, 5, 69, 64
8, 14495, Note_on_c, 5, 65, 69
8, 14512, Note_on_c, 5, 65, 0
8, 14512, Note_on_c, 5, 69, 0
8, 14735, Note_on_c, 5, 71, 68
8, 14735, Note_on_c, 5, 67, 65
8, 14743, Note_on_c, 5, 67, 0
8, 14745, Note_on_c, 5, 71, 0
8, 14784, Note_on_c, 5, 65, 75
8, 14785, Note_on_c, 5, 69, 67
8, 14871, Note_on_c, 5, 69, 0
8, 14871, Note_on_c, 5, 65, 0
8, 14879, Note_on_c, 5, 71, 69
8, 14880, Note_on_c, 5, 67, 68
8, 14891, Note_on_c, 5, 67, 0
8, 14892, Note_on_c, 5, 71, 0
8, 14929, Note_on_c, 5, 65, 76
8, 14929, Note_on_c, 5, 69, 70
8, 15009, Note_on_c, 5, 65, 0
8, 15012, Note_on_c, 5, 69, 0
8, 15022, Note_on_c, 5, 71, 68
8, 15022, Note_on_c, 5, 67, 65
8, 15033, Note_on_c, 5, 71, 0
8, 15037, Note_on_c, 5, 67, 0
8, 15071, Note_on_c, 5, 69, 69
8, 15071, Note_on_c, 5, 65, 72
8, 15163, Note_on_c, 5, 65, 0
8, 15164, Note_on_c, 5, 69, 0
8, 15501, Note_on_c, 5, 65, 65
8, 15502, Note_on_c, 5, 62, 65
8, 15510, Note_on_c, 5, 62, 0
8, 15513, Note_on_c, 5, 65, 0
8, 15551, Note_on_c, 5, 64, 62
8, 15551, Note_on_c, 5, 61, 72
8, 15616, Note_on_c, 5, 61, 0
8, 15622, Note_on_c, 5, 64, 0
8, 15647, Note_on_c, 5, 65, 66
8, 15647, Note_on_c, 5, 62, 67
8, 15654, Note_on_c, 5, 62, 0
8, 15658, Note_on_c, 5, 65, 0
8, 15697, Note_on_c, 5, 64, 63
8, 15697, Note_on_c, 5, 61, 75
8, 15772, Note_on_c, 5, 64, 0
8, 15774, Note_on_c, 5, 61, 0
8, 15791, Note_on_c, 5, 65, 66
8, 15791, Note_on_c, 5, 62, 63
8, 15803, Note_on_c, 5, 62, 0
8, 15804, Note_on_c, 5, 65, 0
8, 15839, Note_on_c, 5, 64, 57
8, 15840, Note_on_c, 5, 61, 72
8, 16031, Note_on_c, 5, 61, 0
8, 16033, Note_on_c, 5, 64, 0
8, 16270, Note_on_c, 5, 64, 59
8, 16270, Note_on_c, 5, 60, 73
8, 16280, Note_on_c, 5, 60, 0
8, 16281, Note_on_c, 5, 64, 0
8, 16319, Note_on_c, 5, 62, 60
8, 16320, Note_on_c, 5, 58, 75
8, 16407, Note_on_c, 5, 62, 0
8, 16408, Note_on_c, 5, 58, 0
8, 16415, Note_on_c, 5, 60, 69
8, 16415, Note_on_c, 5, 64, 62
8, 16422, Note_on_c, 5, 60, 0
8, 16426, Note_on_c, 5, 64, 0
8, 16465, Note_on_c, 5, 62, 62
8, 16466, Note_on_c, 5, 58, 74
8, 16552, Note_on_c, 5, 58, 0
8, 16552, Note_on_c, 5, 62, 0
8, 16560, Note_on_c, 5, 64, 63
8, 16561, Note_on_c, 5, 59, 65
8, 16564, Note_on_c, 5, 59, 0
8, 16570, Note_on_c, 5, 64, 0
8, 16609, Note_on_c, 5, 58, 75
8, 16610, Note_on_c, 5, 62, 63
8, 16788, Note_on_c, 5, 58, 0
8, 16793, Note_on_c, 5, 62, 0
8, 17038, Note_on_c, 5, 71, 61
8, 17038, Note_on_c, 5, 67, 70
8, 17049, Note_on_c, 5, 67, 0
8, 17050, Note_on_c, 5, 71, 0
8, 17089, Note_on_c, 5, 65, 74
8, 17089, Note_on_c, 5, 69, 65
8, 17171, Note_on_c, 5, 69, 0
8, 17172, Note_on_c, 5, 65, 0
8, 17182, Note_on_c, 5, 71, 67
8, 17182, Note_on_c, 5, 67, 66
8, 17194, Note_on_c, 5, 67, 0
8, 17196, Note_on_c, 5, 71, 0
8, 17233, Note_on_c, 5, 65, 74
8, 17233, Note_on_c, 5, 69, 63
8, 17319, Note_on_c, 5, 65, 0
8, 17321, Note_on_c, 5, 69, 0
8, 17328, Note_on_c, 5, 71, 67
8, 17328, Note_on_c, 5, 67, 58
8, 17333, Note_on_c, 5, 67, 0
8, 17339, Note_on_c, 5, 71, 0
8, 17376, Note_on_c, 5, 69, 60
8, 17377, Note_on_c, 5, 65, 77
8, 17530, Note_on_c, 5, 69, 0
8, 17541, Note_on_c, 5, 65, 0
8, 17806, Note_on_c, 5, 71, 62
8, 17807, Note_on_c, 5, 67, 56
8, 17827, Note_on_c, 5, 71, 0
8, 17828, Note_on_c, 5, 67, 0
8, 17857, Note_on_c, 5, 69, 68
8, 17858, Note_on_c, 5, 65, 72
8, 17943, Note_on_c, 5, 65, 0
8, 17943, Note_on_c, 5, 69, 0
8, 17951, Note_on_c, 5, 71, 67
8, 17951, Note_on_c, 5, 67, 64
8, 17959, Note_on_c, 5, 67, 0
8, 17960, Note_on_c, 5, 71, 0
8, 18000, Note_on_c, 5, 65, 71
8, 18002, Note_on_c, 5, 69, 69
8, 18082, Note_on_c, 5, 65, 0
8, 18083, Note_on_c, 5, 69, 0
8, 18093, Note_on_c, 5, 71, 67
8, 18094, Note_on_c, 5, 67, 63
8, 18103, Note_on_c, 5, 67, 0
8, 18106, Note_on_c, 5, 71, 0
8, 18143, Note_on_c, 5, 69, 69
8, 18143, Note_on_c, 5, 65, 75
8, 18280, Note_on_c, 5, 69, 0
8, 18281, Note_on_c, 5, 65, 0
8, 18575, Note_on_c, 5, 65, 61
8, 18576, Note_on_c, 5, 61, 54
8, 18578, Note_on_c, 5, 61, 0
8, 18582, Note_on_c, 5, 65, 0
8, 18625, Note_on_c, 5, 64, 64
8, 18625, Note_on_c, 5, 61, 73
8, 18696, Note_on_c, 5, 64, 0
8, 18699, Note_on_c, 5, 61, 0
8, 18717, Note_on_c, 5, 62, 69
8, 18717, Note_on_c, 5, 65, 67
8, 18734, Note_on_c, 5, 62, 0
8, 18737, Note_on_c, 5, 65, 0
8, 18767, Note_on_c, 5, 64, 65
8, 18768, Note_on_c, 5, 61, 71
8, 18854, Note_on_c, 5, 61, 0
8, 18855, Note_on_c, 5, 64, 0
8, 18862, Note_on_c, 5, 65, 63
8, 18864, Note_on_c, 5, 62, 57
8, 18877, Note_on_c, 5, 62, 0
8, 18880, Note_on_c, 5, 65, 0
8, 18913, Note_on_c, 5, 64, 66
8, 18914, Note_on_c, 5, 61, 69
8, 19091, Note_on_c, 5, 64, 0
8, 19093, Note_on_c, 5, 61, 0
8, 19102, Note_on_c, 5, 64, 66
8, 19103, Note_on_c, 5, 61, 59
8, 19107, Note_on_c, 5, 61, 0
8, 19111, Note_on_c, 5, 64, 0
8, 19344, Note_on_c, 5, 60, 58
8, 19345, Note_on_c, 5, 64, 47
8, 19351, Note_on_c, 5, 64, 0
8, 19351, Note_on_c, 5, 60, 0
8, 19395, Note_on_c, 5, 58, 72
8, 19395, Note_on_c, 5, 62, 55
8, 19475, Note_on_c, 5, 62, 0
8, 19476, Note_on_c, 5, 58, 0
8, 19487, Note_on_c, 5, 64, 64
8, 19487, Note_on_c, 5, 60, 65
8, 19495, Note_on_c, 5, 60, 0
8, 19500, Note_on_c, 5, 64, 0
8, 19536, Note_on_c, 5, 58, 72
8, 19538, Note_on_c, 5, 62, 47
8, 19620, Note_on_c, 5, 62, 0
8, 19622, Note_on_c, 5, 58, 0
8, 19631, Note_on_c, 5, 64, 61
8, 19631, Note_on_c, 5, 60, 61
8, 19640, Note_on_c, 5, 60, 0
8, 19640, Note_on_c, 5, 64, 0
8, 19679, Note_on_c, 5, 62, 60
8, 19679, Note_on_c, 5, 58, 66
8, 19808, Note_on_c, 5, 58, 0
8, 19821, Note_on_c, 5, 55, 52
8, 19863, Note_on_c, 5, 62, 0
8, 19867, Note_on_c, 5, 55, 0
8, 19871, Note_on_c, 5, 62, 63
8, 19871, Note_on_c, 5, 58, 68
8, 19884, Note_on_c, 5, 58, 0
8, 19888, Note_on_c, 5, 62, 0
8, 20110, Note_on_c, 5, 71, 67
8, 20110, Note_on_c, 5, 67, 69
8, 20121, Note_on_c, 5, 71, 0
8, 20123, Note_on_c, 5, 67, 0
8, 20159, Note_on_c, 5, 65, 76
8, 20160, Note_on_c, 5, 69, 67
8, 20241, Note_on_c, 5, 65, 0
8, 20243, Note_on_c, 5, 69, 0
8, 20253, Note_on_c, 5, 71, 65
8, 20254, Note_on_c, 5, 67, 66
8, 20259, Note_on_c, 5, 67, 0
8, 20261, Note_on_c, 5, 71, 0
8, 20305, Note_on_c, 5, 69, 67
8, 20305, Note_on_c, 5, 65, 77
8, 20382, Note_on_c, 5, 65, 0
8, 20382, Note_on_c, 5, 69, 0
8, 20397, Note_on_c, 5, 71, 69
8, 20397, Note_on_c, 5, 67, 65
8, 20403, Note_on_c, 5, 67, 0
8, 20407, Note_on_c, 5, 71, 0
8, 20446, Note_on_c, 5, 69, 65
8, 20446, Note_on_c, 5, 65, 74
8, 20585, Note_on_c, 5, 65, 0
8, 20589, Note_on_c, 5, 62, 40
8, 20598, Note_on_c, 5, 69, 0
8, 20610, Note_on_c, 5, 62, 0
8, 20638, Note_on_c, 5, 65, 66
8, 20638, Note_on_c, 5, 69, 67
8, 20650, Note_on_c, 5, 65, 0
8, 20651, Note_on_c, 5, 69, 0
8, 20691, Note_on_c, 5, 62, 40
8, 20708, Note_on_c, 5, 62, 0
8, 20878, Note_on_c, 5, 67, 70
8, 20878, Note_on_c, 5, 71, 69
8, 20886, Note_on_c, 5, 71, 0
8, 20886, Note_on_c, 5, 67, 0
8, 20927, Note_on_c, 5, 65, 76
8, 20927, Note_on_c, 5, 69, 70
8, 21011, Note_on_c, 5, 65, 0
8, 21012, Note_on_c, 5, 69, 0
8, 21022, Note_on_c, 5, 67, 68
8, 21022, Note_on_c, 5, 71, 66
8, 21030, Note_on_c, 5, 67, 0
8, 21032, Note_on_c, 5, 71, 0
8, 21071, Note_on_c, 5, 69, 66
8, 21071, Note_on_c, 5, 65, 76
8, 21154, Note_on_c, 5, 65, 0
8, 21157, Note_on_c, 5, 69, 0
8, 21166, Note_on_c, 5, 67, 56
8, 21166, Note_on_c, 5, 71, 61
8, 21173, Note_on_c, 5, 67, 0
8, 21176, Note_on_c, 5, 71, 0
8, 21215, Note_on_c, 5, 65, 75
8, 21215, Note_on_c, 5, 69, 67
8, 21331, Note_on_c, 5, 69, 0
8, 21331, Note_on_c, 5, 65, 0
8, 21359, Note_on_c, 5, 60, 45
8, 21377, Note_on_c, 5, 60, 0
8, 21380, Note_on_c, 5, 62, 49
8, 21406, Note_on_c, 5, 65, 66
8, 21406, Note_on_c, 5, 69, 70
8, 21408, Note_on_c, 5, 62, 0
8, 21425, Note_on_c, 5, 69, 0
8, 21425, Note_on_c, 5, 65, 0
8, 21646, Note_on_c, 5, 65, 66
8, 21646, Note_on_c, 5, 62, 70
8, 21658, Note_on_c, 5, 65, 0
8, 21662, Note_on_c, 5, 62, 0
8, 21694, Note_on_c, 5, 64, 68
8, 21695, Note_on_c, 5, 61, 64
8, 21756, Note_on_c, 5, 61, 0
8, 21756, Note_on_c, 5, 64, 0
8, 21793, Note_on_c, 5, 62, 50
8, 21793, Note_on_c, 5, 65, 63
8, 21804, Note_on_c, 5, 62, 0
8, 21806, Note_on_c, 5, 65, 0
8, 21839, Note_on_c, 5, 64, 66
8, 21840, Note_on_c, 5, 61, 71
8, 21915, Note_on_c, 5, 61, 0
8, 21915, Note_on_c, 5, 64, 0
8, 21933, Note_on_c, 5, 65, 67
8, 21934, Note_on_c, 5, 62, 62
8, 21943, Note_on_c, 5, 62, 0
8, 21946, Note_on_c, 5, 65, 0
8, 21982, Note_on_c, 5, 64, 61
8, 21983, Note_on_c, 5, 61, 66
8, 22172, Note_on_c, 5, 61, 0
8, 22173, Note_on_c, 5, 64, 0
8, 22176, Note_on_c, 5, 64, 64
8, 22176, Note_on_c, 5, 61, 64
8, 22194, Note_on_c, 5, 61, 0
8, 22195, Note_on_c, 5, 64, 0
8, 22415, Note_on_c, 5, 60, 63
8, 22416, Note_on_c, 5, 64, 69
8, 22423, Note_on_c, 5, 60, 0
8, 22424, Note_on_c, 5, 64, 0
8, 22465, Note_on_c, 5, 58, 70
8, 22465, Note_on_c, 5, 62, 52
8, 22551, Note_on_c, 5, 62, 0
8, 22553, Note_on_c, 5, 58, 0
8, 22559, Note_on_c, 5, 64, 60
8, 22560, Note_on_c, 5, 60, 62
8, 22568, Note_on_c, 5, 60, 0
8, 22571, Note_on_c, 5, 64, 0
8, 22609, Note_on_c, 5, 58, 73
8, 22610, Note_on_c, 5, 62, 68
8, 22693, Note_on_c, 5, 62, 0
8, 22693, Note_on_c, 5, 58, 0
8, 22703, Note_on_c, 5, 59, 54
8, 22703, Note_on_c, 5, 64, 65
8, 22705, Note_on_c, 5, 59, 0
8, 22713, Note_on_c, 5, 64, 0
8, 22751, Note_on_c, 5, 58, 72
8, 22755, Note_on_c, 5, 62, 67
8, 22880, Note_on_c, 5, 62, 0
8, 22886, Note_on_c, 5, 58, 0
8, 22940, Note_on_c, 5, 62, 40
8, 22945, Note_on_c, 5, 58, 62
8, 22979, Note_on_c, 5, 58, 0
8, 22991, Note_on_c, 5, 55, 55
8, 22994, Note_on_c, 5, 55, 0
8, 22995, Note_on_c, 5, 62, 0
8, 23182, Note_on_c, 5, 67, 73
8, 23183, Note_on_c, 5, 71, 64
8, 23198, Note_on_c, 5, 71, 0
8, 23199, Note_on_c, 5, 67, 0
8, 23231, Note_on_c, 5, 65, 72
8, 23231, Note_on_c, 5, 69, 69
8, 23312, Note_on_c, 5, 65, 0
8, 23313, Note_on_c, 5, 69, 0
8, 23326, Note_on_c, 5, 71, 66
8, 23326, Note_on_c, 5, 67, 70
8, 23336, Note_on_c, 5, 71, 0
8, 23337, Note_on_c, 5, 67, 0
8, 23375, Note_on_c, 5, 69, 70
8, 23375, Note_on_c, 5, 65, 70
8, 23455, Note_on_c, 5, 65, 0
8, 23457, Note_on_c, 5, 69, 0
8, 23469, Note_on_c, 5, 71, 66
8, 23469, Note_on_c, 5, 67, 62
8, 23474, Note_on_c, 5, 67, 0
8, 23480, Note_on_c, 5, 71, 0
8, 23518, Note_on_c, 5, 69, 66
8, 23518, Note_on_c, 5, 65, 73
8, 23683, Note_on_c, 5, 65, 0
8, 23685, Note_on_c, 5, 69, 0
8, 23900, Note_on_c, 5, 55, 67
8, 23902, Note_on_c, 5, 58, 77
8, 23907, Note_on_c, 5, 62, 79
8, 23909, Note_on_c, 5, 67, 73
8, 23995, Note_on_c, 5, 67, 0
8, 23999, Note_on_c, 5, 62, 0
8, 24004, Note_on_c, 5, 58, 0
8, 24012, Note_on_c, 5, 55, 0
8, 24044, Note_on_c, 5, 55, 52
8, 24045, Note_on_c, 5, 58, 74
8, 24046, Note_on_c, 5, 62, 80
8, 24047, Note_on_c, 5, 67, 75
8, 24092, Note_on_c, 5, 67, 0
8, 24094, Note_on_c, 5, 62, 0
8, 24094, Note_on_c, 5, 67, 84
8, 24095, Note_on_c, 5, 62, 82
8, 24107, Note_on_c, 5, 58, 0
8, 24110, Note_on_c, 5, 55, 0
8, 24111, Note_on_c, 5, 62, 0
8, 24114, Note_on_c, 5, 67, 0
8, 24238, Note_on_c, 5, 62, 71
8, 24239, Note_on_c, 5, 65, 75
8, 24254, Note_on_c, 5, 65, 0
8, 24254, Note_on_c, 5, 62, 0
8, 24287, Note_on_c, 5, 62, 77
8, 24289, Note_on_c, 5, 65, 73
8, 24380, Note_on_c, 5, 65, 0
8, 24380, Note_on_c, 5, 62, 0
8, 24383, Note_on_c, 5, 62, 72
8, 24383, Note_on_c, 5, 65, 56
8, 24402, Note_on_c, 5, 65, 0
8, 24408, Note_on_c, 5, 62, 0
8, 24527, Note_on_c, 5, 65, 79
8, 24527, Note_on_c, 5, 62, 76
8, 24541, Note_on_c, 5, 62, 0
8, 24541, Note_on_c, 5, 65, 0
8, 24622, Note_on_c, 5, 67, 72
8, 24623, Note_on_c, 5, 62, 67
8, 24625, Note_on_c, 5, 58, 50
8, 24665, Note_on_c, 5, 58, 0
8, 24668, Note_on_c, 5, 62, 0
8, 24668, Note_on_c, 5, 55, 47
8, 24669, Note_on_c, 5, 67, 0
8, 24669, Note_on_c, 5, 58, 74
8, 24670, Note_on_c, 5, 62, 81
8, 24671, Note_on_c, 5, 67, 77
8, 24766, Note_on_c, 5, 58, 0
8, 24770, Note_on_c, 5, 67, 0
8, 24814, Note_on_c, 5, 67, 70
8, 24815, Note_on_c, 5, 62, 0
8, 24816, Note_on_c, 5, 62, 65
8, 24862, Note_on_c, 5, 62, 0
8, 24863, Note_on_c, 5, 67, 0
8, 24863, Note_on_c, 5, 58, 70
8, 24863, Note_on_c, 5, 62, 81
8, 24864, Note_on_c, 5, 67, 78
8, 24873, Note_on_c, 5, 58, 0
8, 24877, Note_on_c, 5, 67, 0
8, 24878, Note_on_c, 5, 62, 0
8, 24880, Note_on_c, 5, 55, 0
8, 25007, Note_on_c, 5, 65, 61
8, 25009, Note_on_c, 5, 62, 49
8, 25052, Note_on_c, 5, 62, 0
8, 25054, Note_on_c, 5, 65, 0
8, 25054, Note_on_c, 5, 62, 68
8, 25055, Note_on_c, 5, 65, 76
8, 25057, Note_on_c, 5, 68, 42
8, 25072, Note_on_c, 5, 68, 0
8, 25150, Note_on_c, 5, 62, 0
8, 25199, Note_on_c, 5, 57, 48
8, 25246, Note_on_c, 5, 65, 0
8, 25247, Note_on_c, 5, 62, 76
8, 25248, Note_on_c, 5, 65, 80
8, 25250, Note_on_c, 5, 68, 49
8, 25269, Note_on_c, 5, 68, 0
8, 25293, Note_on_c, 5, 65, 0
8, 25295, Note_on_c, 5, 62, 0
8, 25296, Note_on_c, 5, 57, 0
8, 25390, Note_on_c, 5, 67, 72
8, 25391, Note_on_c, 5, 62, 70
8, 25393, Note_on_c, 5, 58, 56
8, 25394, Note_on_c, 5, 55, 40
8, 25437, Note_on_c, 5, 58, 0
8, 25438, Note_on_c, 5, 62, 0
8, 25439, Note_on_c, 5, 58, 70
8, 25439, Note_on_c, 5, 62, 82
8, 25440, Note_on_c, 5, 67, 0
8, 25441, Note_on_c, 5, 67, 72
8, 25535, Note_on_c, 5, 58, 0
8, 25536, Note_on_c, 5, 62, 0
8, 25536, Note_on_c, 5, 58, 69
8, 25537, Note_on_c, 5, 67, 0
8, 25537, Note_on_c, 5, 62, 73
8, 25538, Note_on_c, 5, 67, 70
8, 25583, Note_on_c, 5, 67, 0
8, 25585, Note_on_c, 5, 67, 78
8, 25589, Note_on_c, 5, 58, 0
8, 25631, Note_on_c, 5, 62, 0
8, 25632, Note_on_c, 5, 67, 0
8, 25632, Note_on_c, 5, 62, 83
8, 25633, Note_on_c, 5, 67, 84
8, 25634, Note_on_c, 5, 58, 72
8, 25643, Note_on_c, 5, 58, 0
8, 25645, Note_on_c, 5, 67, 0
8, 25647, Note_on_c, 5, 55, 0
8, 25649, Note_on_c, 5, 62, 0
8, 25773, Note_on_c, 5, 57, 42
8, 25774, Note_on_c, 5, 62, 52
8, 25822, Note_on_c, 5, 62, 0
8, 25823, Note_on_c, 5, 65, 79
8, 25823, Note_on_c, 5, 62, 72
8, 25920, Note_on_c, 5, 57, 0
8, 25922, Note_on_c, 5, 62, 0
8, 25968, Note_on_c, 5, 62, 54
8, 26016, Note_on_c, 5, 62, 0
8, 26016, Note_on_c, 5, 65, 0
8, 26017, Note_on_c, 5, 62, 75
8, 26017, Note_on_c, 5, 65, 77
8, 26020, Note_on_c, 5, 68, 53
8, 26025, Note_on_c, 5, 68, 0
8, 26068, Note_on_c, 5, 62, 0
8, 26070, Note_on_c, 5, 65, 0
8, 26113, Note_on_c, 5, 58, 42
8, 26114, Note_on_c, 5, 62, 62
8, 26205, Note_on_c, 5, 62, 0
8, 26207, Note_on_c, 5, 62, 76
8, 26208, Note_on_c, 5, 65, 81
8, 26209, Note_on_c, 5, 70, 80
8, 26300, Note_on_c, 5, 62, 0
8, 26302, Note_on_c, 5, 65, 0
8, 26304, Note_on_c, 5, 70, 0
8, 26304, Note_on_c, 5, 65, 65
8, 26305, Note_on_c, 5, 70, 57
8, 26305, Note_on_c, 5, 62, 57
8, 26349, Note_on_c, 5, 70, 0
8, 26351, Note_on_c, 5, 70, 75
8, 26352, Note_on_c, 5, 65, 0
8, 26353, Note_on_c, 5, 65, 69
8, 26399, Note_on_c, 5, 65, 0
8, 26399, Note_on_c, 5, 62, 0
8, 26400, Note_on_c, 5, 70, 0
8, 26400, Note_on_c, 5, 65, 82
8, 26400, Note_on_c, 5, 62, 80
8, 26402, Note_on_c, 5, 70, 83
8, 26449, Note_on_c, 5, 65, 0
8, 26450, Note_on_c, 5, 58, 0
8, 26450, Note_on_c, 5, 62, 0
8, 26450, Note_on_c, 5, 70, 0
8, 26497, Note_on_c, 5, 61, 40
8, 26543, Note_on_c, 5, 64, 73
8, 26544, Note_on_c, 5, 69, 67
8, 26586, Note_on_c, 5, 61, 0
8, 26588, Note_on_c, 5, 69, 0
8, 26590, Note_on_c, 5, 64, 0
8, 26590, Note_on_c, 5, 61, 71
8, 26591, Note_on_c, 5, 64, 80
8, 26592, Note_on_c, 5, 69, 82
8, 26637, Note_on_c, 5, 69, 0
8, 26637, Note_on_c, 5, 61, 0
8, 26638, Note_on_c, 5, 64, 0
8, 26638, Note_on_c, 5, 61, 68
8, 26639, Note_on_c, 5, 64, 82
8, 26641, Note_on_c, 5, 69, 83
8, 26685, Note_on_c, 5, 69, 0
8, 26686, Note_on_c, 5, 64, 0
8, 26686, Note_on_c, 5, 61, 0
8, 26687, Note_on_c, 5, 61, 75
8, 26687, Note_on_c, 5, 69, 73
8, 26688, Note_on_c, 5, 64, 82
8, 26735, Note_on_c, 5, 64, 0
8, 26736, Note_on_c, 5, 69, 0
8, 26736, Note_on_c, 5, 64, 83
8, 26737, Note_on_c, 5, 69, 83
8, 26783, Note_on_c, 5, 69, 0
8, 26783, Note_on_c, 5, 64, 0
8, 26784, Note_on_c, 5, 64, 82
8, 26785, Note_on_c, 5, 69, 84
8, 26830, Note_on_c, 5, 61, 0
8, 26831, Note_on_c, 5, 64, 0
8, 26831, Note_on_c, 5, 61, 82
8, 26832, Note_on_c, 5, 69, 0
8, 26832, Note_on_c, 5, 64, 83
8, 26833, Note_on_c, 5, 69, 85
8, 26878, Note_on_c, 5, 69, 0
8, 26880, Note_on_c, 5, 64, 0
8, 26882, Note_on_c, 5, 61, 0
8, 27023, Note_on_c, 5, 71, 69
8, 27023, Note_on_c, 5, 67, 59
8, 27033, Note_on_c, 5, 67, 0
8, 27034, Note_on_c, 5, 71, 0
8, 27073, Note_on_c, 5, 65, 68
8, 27073, Note_on_c, 5, 69, 63
8, 27151, Note_on_c, 5, 65, 0
8, 27152, Note_on_c, 5, 69, 0
8, 27166, Note_on_c, 5, 71, 66
8, 27166, Note_on_c, 5, 67, 67
8, 27177, Note_on_c, 5, 71, 0
8, 27179, Note_on_c, 5, 67, 0
8, 27214, Note_on_c, 5, 65, 65
8, 27214, Note_on_c, 5, 69, 67
8, 27298, Note_on_c, 5, 65, 0
8, 27299, Note_on_c, 5, 69, 0
8, 27309, Note_on_c, 5, 71, 57
8, 27309, Note_on_c, 5, 67, 54
8, 27320, Note_on_c, 5, 67, 0
8, 27321, Note_on_c, 5, 71, 0
8, 27357, Note_on_c, 5, 65, 70
8, 27358, Note_on_c, 5, 69, 68
8, 27459, Note_on_c, 5, 69, 0
8, 27462, Note_on_c, 5, 65, 0
8, 27790, Note_on_c, 5, 62, 59
8, 27790, Note_on_c, 5, 65, 62
8, 27801, Note_on_c, 5, 65, 0
8, 27802, Note_on_c, 5, 62, 0
8, 27840, Note_on_c, 5, 61, 62
8, 27840, Note_on_c, 5, 64, 69
8, 27906, Note_on_c, 5, 64, 0
8, 27906, Note_on_c, 5, 61, 0
8, 27935, Note_on_c, 5, 62, 57
8, 27935, Note_on_c, 5, 65, 52
8, 27939, Note_on_c, 5, 62, 0
8, 27941, Note_on_c, 5, 65, 0
8, 27983, Note_on_c, 5, 64, 62
8, 27984, Note_on_c, 5, 61, 67
8, 28050, Note_on_c, 5, 61, 0
8, 28052, Note_on_c, 5, 64, 0
8, 28078, Note_on_c, 5, 65, 59
8, 28078, Note_on_c, 5, 62, 59
8, 28086, Note_on_c, 5, 62, 0
8, 28086, Note_on_c, 5, 65, 0
8, 28127, Note_on_c, 5, 61, 65
8, 28128, Note_on_c, 5, 64, 68
8, 28217, Note_on_c, 5, 61, 0
8, 28218, Note_on_c, 5, 64, 0
8, 28559, Note_on_c, 5, 60, 67
8, 28559, Note_on_c, 5, 64, 63
8, 28566, Note_on_c, 5, 60, 0
8, 28567, Note_on_c, 5, 64, 0
8, 28607, Note_on_c, 5, 62, 63
8, 28608, Note_on_c, 5, 58, 66
8, 28692, Note_on_c, 5, 58, 0
8, 28692, Note_on_c, 5, 62, 0
8, 28702, Note_on_c, 5, 64, 57
8, 28702, Note_on_c, 5, 60, 59
8, 28706, Note_on_c, 5, 60, 0
8, 28711, Note_on_c, 5, 64, 0
8, 28750, Note_on_c, 5, 58, 65
8, 28750, Note_on_c, 5, 62, 63
8, 28836, Note_on_c, 5, 62, 0
8, 28836, Note_on_c, 5, 58, 0
8, 28846, Note_on_c, 5, 60, 62
8, 28847, Note_on_c, 5, 64, 55
8, 28853, Note_on_c, 5, 60, 0
8, 28858, Note_on_c, 5, 64, 0
8, 28895, Note_on_c, 5, 62, 62
8, 28895, Note_on_c, 5, 58, 67
8, 29003, Note_on_c, 5, 58, 0
8, 29008, Note_on_c, 5, 62, 0
8, 29327, Note_on_c, 5, 67, 58
8, 29328, Note_on_c, 5, 71, 67
8, 29334, Note_on_c, 5, 67, 0
8, 29336, Note_on_c, 5, 71, 0
8, 29376, Note_on_c, 5, 69, 62
8, 29376, Note_on_c, 5, 65, 68
8, 29459, Note_on_c, 5, 65, 0
8, 29460, Note_on_c, 5, 69, 0
8, 29470, Note_on_c, 5, 67, 66
8, 29470, Note_on_c, 5, 71, 64
8, 29481, Note_on_c, 5, 71, 0
8, 29483, Note_on_c, 5, 67, 0
8, 29520, Note_on_c, 5, 65, 72
8, 29521, Note_on_c, 5, 69, 63
8, 29601, Note_on_c, 5, 69, 0
8, 29601, Note_on_c, 5, 65, 0
8, 29614, Note_on_c, 5, 67, 69
8, 29615, Note_on_c, 5, 71, 65
8, 29625, Note_on_c, 5, 71, 0
8, 29625, Note_on_c, 5, 67, 0
8, 29662, Note_on_c, 5, 65, 72
8, 29663, Note_on_c, 5, 69, 63
8, 29752, Note_on_c, 5, 69, 0
8, 29756, Note_on_c, 5, 65, 0
8, 30094, Note_on_c, 5, 71, 63
8, 30094, Note_on_c, 5, 67, 59
8, 30100, Note_on_c, 5, 67, 0
8, 30102, Note_on_c, 5, 71, 0
8, 30143, Note_on_c, 5, 65, 72
8, 30144, Note_on_c, 5, 69, 63
8, 30226, Note_on_c, 5, 69, 0
8, 30229, Note_on_c, 5, 65, 0
8, 30237, Note_on_c, 5, 67, 72
8, 30238, Note_on_c, 5, 71, 63
8, 30254, Note_on_c, 5, 71, 0
8, 30254, Note_on_c, 5, 67, 0
8, 30286, Note_on_c, 5, 65, 68
8, 30286, Note_on_c, 5, 69, 64
8, 30375, Note_on_c, 5, 65, 0
8, 30376, Note_on_c, 5, 69, 0
8, 30383, Note_on_c, 5, 71, 63
8, 30383, Note_on_c, 5, 67, 67
8, 30396, Note_on_c, 5, 67, 0
8, 30396, Note_on_c, 5, 71, 0
8, 30433, Note_on_c, 5, 65, 76
8, 30433, Note_on_c, 5, 69, 66
8, 30519, Note_on_c, 5, 65, 0
8, 30522, Note_on_c, 5, 69, 0
8, 30864, Note_on_c, 5, 62, 66
8, 30864, Note_on_c, 5, 65, 61
8, 30875, Note_on_c, 5, 65, 0
8, 30875, Note_on_c, 5, 62, 0
8, 30913, Note_on_c, 5, 61, 71
8, 30913, Note_on_c, 5, 64, 62
8, 30961, Note_on_c, 5, 64, 0
8, 30978, Note_on_c, 5, 61, 0
8, 31009, Note_on_c, 5, 62, 65
8, 31009, Note_on_c, 5, 65, 61
8, 31017, Note_on_c, 5, 62, 0
8, 31020, Note_on_c, 5, 65, 0
8, 31058, Note_on_c, 5, 64, 61
8, 31058, Note_on_c, 5, 61, 70
8, 31116, Note_on_c, 5, 64, 0
8, 31135, Note_on_c, 5, 61, 0
8, 31151, Note_on_c, 5, 62, 68
8, 31151, Note_on_c, 5, 65, 63
8, 31165, Note_on_c, 5, 62, 0
8, 31166, Note_on_c, 5, 65, 0
8, 31201, Note_on_c, 5, 61, 72
8, 31201, Note_on_c, 5, 64, 59
8, 31290, Note_on_c, 5, 61, 0
8, 31310, Note_on_c, 5, 64, 0
8, 31631, Note_on_c, 5, 60, 40
8, 31632, Note_on_c, 5, 64, 54
8, 31638, Note_on_c, 5, 64, 0
8, 31644, Note_on_c, 5, 60, 0
8, 31678, Note_on_c, 5, 62, 57
8, 31679, Note_on_c, 5, 58, 74
8, 31765, Note_on_c, 5, 58, 0
8, 31769, Note_on_c, 5, 62, 0
8, 31776, Note_on_c, 5, 64, 61
8, 31776, Note_on_c, 5, 60, 67
8, 31788, Note_on_c, 5, 60, 0
8, 31789, Note_on_c, 5, 64, 0
8, 31823, Note_on_c, 5, 58, 72
8, 31823, Note_on_c, 5, 62, 63
8, 31905, Note_on_c, 5, 62, 0
8, 31914, Note_on_c, 5, 58, 0
8, 31921, Note_on_c, 5, 60, 63
8, 31921, Note_on_c, 5, 64, 61
8, 31930, Note_on_c, 5, 60, 0
8, 31933, Note_on_c, 5, 64, 0
8, 31967, Note_on_c, 5, 62, 61
8, 31968, Note_on_c, 5, 58, 73
8, 32063, Note_on_c, 5, 58, 0
8, 32068, Note_on_c, 5, 62, 0
8, 32399, Note_on_c, 5, 71, 70
8, 32399, Note_on_c, 5, 67, 67
8, 32414, Note_on_c, 5, 71, 0
8, 32417, Note_on_c, 5, 67, 0
8, 32448, Note_on_c, 5, 69, 61
8, 32448, Note_on_c, 5, 65, 69
8, 32532, Note_on_c, 5, 65, 0
8, 32534, Note_on_c, 5, 69, 0
8, 32542, Note_on_c, 5, 67, 72
8, 32543, Note_on_c, 5, 71, 68
8, 32553, Note_on_c, 5, 67, 0
8, 32554, Note_on_c, 5, 71, 0
8, 32591, Note_on_c, 5, 69, 63
8, 32593, Note_on_c, 5, 65, 72
8, 32673, Note_on_c, 5, 65, 0
8, 32674, Note_on_c, 5, 69, 0
8, 32686, Note_on_c, 5, 67, 73
8, 32686, Note_on_c, 5, 71, 63
8, 32697, Note_on_c, 5, 67, 0
8, 32700, Note_on_c, 5, 71, 0
8, 32735, Note_on_c, 5, 65, 72
8, 32735, Note_on_c, 5, 69, 61
8, 32815, Note_on_c, 5, 65, 0
8, 32817, Note_on_c, 5, 69, 0
8, 33165, Note_on_c, 5, 67, 78
8, 33166, Note_on_c, 5, 71, 67
8, 33179, Note_on_c, 5, 71, 0
8, 33181, Note_on_c, 5, 67, 0
8, 33216, Note_on_c, 5, 65, 80
8, 33217, Note_on_c, 5, 69, 62
8, 33296, Note_on_c, 5, 69, 0
8, 33296, Note_on_c, 5, 65, 0
8, 33310, Note_on_c, 5, 71, 65
8, 33310, Note_on_c, 5, 67, 69
8, 33318, Note_on_c, 5, 67, 0
8, 33321, Note_on_c, 5, 71, 0
8, 33361, Note_on_c, 5, 65, 78
8, 33363, Note_on_c, 5, 69, 53
8, 33431, Note_on_c, 5, 69, 0
8, 33445, Note_on_c, 5, 65, 0
8, 33455, Note_on_c, 5, 67, 72
8, 33455, Note_on_c, 5, 71, 62
8, 33469, Note_on_c, 5, 67, 0
8, 33472, Note_on_c, 5, 71, 0
8, 33505, Note_on_c, 5, 69, 57
8, 33505, Note_on_c, 5, 65, 75
8, 33685, Note_on_c, 5, 65, 0
8, 33687, Note_on_c, 5, 69, 0
8, 33695, Note_on_c, 5, 65, 74
8, 33696, Note_on_c, 5, 69, 64
8, 33703, Note_on_c, 5, 69, 0
8, 33705, Note_on_c, 5, 65, 0
8, 33937, Note_on_c, 5, 62, 73
8, 33938, Note_on_c, 5, 65, 61
8, 33947, Note_on_c, 5, 65, 0
8, 33950, Note_on_c, 5, 62, 0
8, 33985, Note_on_c, 5, 61, 71
8, 33987, Note_on_c, 5, 64, 50
8, 34045, Note_on_c, 5, 64, 0
8, 34048, Note_on_c, 5, 61, 0
8, 34082, Note_on_c, 5, 65, 66
8, 34082, Note_on_c, 5, 62, 70
8, 34091, Note_on_c, 5, 65, 0
8, 34093, Note_on_c, 5, 62, 0
8, 34129, Note_on_c, 5, 64, 65
8, 34129, Note_on_c, 5, 61, 76
8, 34197, Note_on_c, 5, 64, 0
8, 34199, Note_on_c, 5, 61, 0
8, 34222, Note_on_c, 5, 62, 69
8, 34223, Note_on_c, 5, 65, 63
8, 34233, Note_on_c, 5, 65, 0
8, 34233, Note_on_c, 5, 62, 0
8, 34272, Note_on_c, 5, 64, 59
8, 34272, Note_on_c, 5, 61, 74
8, 34458, Note_on_c, 5, 64, 0
8, 34460, Note_on_c, 5, 61, 0
8, 34465, Note_on_c, 5, 64, 59
8, 34466, Note_on_c, 5, 61, 59
8, 34477, Note_on_c, 5, 64, 0
8, 34478, Note_on_c, 5, 61, 0
8, 34701, Note_on_c, 5, 64, 66
8, 34702, Note_on_c, 5, 60, 63
8, 34710, Note_on_c, 5, 60, 0
8, 34712, Note_on_c, 5, 64, 0
8, 34752, Note_on_c, 5, 62, 62
8, 34752, Note_on_c, 5, 58, 75
8, 34836, Note_on_c, 5, 58, 0
8, 34842, Note_on_c, 5, 62, 0
8, 34847, Note_on_c, 5, 60, 66
8, 34848, Note_on_c, 5, 64, 63
8, 34853, Note_on_c, 5, 60, 0
8, 34856, Note_on_c, 5, 64, 0
8, 34896, Note_on_c, 5, 62, 62
8, 34897, Note_on_c, 5, 58, 70
8, 34978, Note_on_c, 5, 58, 0
8, 34980, Note_on_c, 5, 62, 0
8, 34990, Note_on_c, 5, 60, 61
8, 34990, Note_on_c, 5, 64, 60
8, 34997, Note_on_c, 5, 60, 0
8, 35002, Note_on_c, 5, 64, 0
8, 35040, Note_on_c, 5, 62, 61
8, 35040, Note_on_c, 5, 58, 72
8, 35222, Note_on_c, 5, 62, 0
8, 35223, Note_on_c, 5, 58, 0
8, 35231, Note_on_c, 5, 58, 70
8, 35231, Note_on_c, 5, 62, 65
8, 35243, Note_on_c, 5, 58, 0
8, 35244, Note_on_c, 5, 62, 0
8, 35471, Note_on_c, 5, 67, 69
8, 35471, Note_on_c, 5, 71, 62
8, 35480, Note_on_c, 5, 67, 0
8, 35481, Note_on_c, 5, 71, 0
8, 35521, Note_on_c, 5, 65, 77
8, 35522, Note_on_c, 5, 69, 61
8, 35600, Note_on_c, 5, 69, 0
8, 35601, Note_on_c, 5, 65, 0
8, 35613, Note_on_c, 5, 71, 68
8, 35613, Note_on_c, 5, 67, 66
8, 35622, Note_on_c, 5, 67, 0
8, 35625, Note_on_c, 5, 71, 0
8, 35664, Note_on_c, 5, 65, 78
8, 35664, Note_on_c, 5, 69, 62
8, 35748, Note_on_c, 5, 65, 0
8, 35750, Note_on_c, 5, 69, 0
8, 35758, Note_on_c, 5, 71, 63
8, 35759, Note_on_c, 5, 67, 59
8, 35767, Note_on_c, 5, 67, 0
8, 35771, Note_on_c, 5, 71, 0
8, 35807, Note_on_c, 5, 69, 67
8, 35808, Note_on_c, 5, 65, 80
8, 35931, Note_on_c, 5, 69, 0
8, 35940, Note_on_c, 5, 65, 0
8, 35999, Note_on_c, 5, 69, 57
8, 35999, Note_on_c, 5, 65, 76
8, 36013, Note_on_c, 5, 69, 0
8, 36016, Note_on_c, 5, 65, 0
8, 36238, Note_on_c, 5, 71, 62
8, 36239, Note_on_c, 5, 67, 56
8, 36259, Note_on_c, 5, 71, 0
8, 36260, Note_on_c, 5, 67, 0
8, 36289, Note_on_c, 5, 69, 68
8, 36290, Note_on_c, 5, 65, 72
8, 36375, Note_on_c, 5, 65, 0
8, 36375, Note_on_c, 5, 69, 0
8, 36383, Note_on_c, 5, 67, 64
8, 36383, Note_on_c, 5, 71, 67
8, 36391, Note_on_c, 5, 67, 0
8, 36392, Note_on_c, 5, 71, 0
8, 36432, Note_on_c, 5, 65, 71
8, 36434, Note_on_c, 5, 69, 69
8, 36514, Note_on_c, 5, 65, 0
8, 36515, Note_on_c, 5, 69, 0
8, 36525, Note_on_c, 5, 71, 67
8, 36526, Note_on_c, 5, 67, 63
8, 36535, Note_on_c, 5, 67, 0
8, 36538, Note_on_c, 5, 71, 0
8, 36575, Note_on_c, 5, 69, 69
8, 36575, Note_on_c, 5, 65, 75
8, 36712, Note_on_c, 5, 69, 0
8, 36713, Note_on_c, 5, 65, 0
8, 37007, Note_on_c, 5, 65, 61
8, 37008, Note_on_c, 5, 61, 54
8, 37010, Note_on_c, 5, 61, 0
8, 37014, Note_on_c, 5, 65, 0
8, 37057, Note_on_c, 5, 61, 73
8, 37057, Note_on_c, 5, 64, 64
8, 37128, Note_on_c, 5, 64, 0
8, 37131, Note_on_c, 5, 61, 0
8, 37149, Note_on_c, 5, 62, 69
8, 37149, Note_on_c, 5, 65, 67
8, 37166, Note_on_c, 5, 62, 0
8, 37169, Note_on_c, 5, 65, 0
8, 37199, Note_on_c, 5, 64, 65
8, 37200, Note_on_c, 5, 61, 71
8, 37286, Note_on_c, 5, 61, 0
8, 37287, Note_on_c, 5, 64, 0
8, 37294, Note_on_c, 5, 65, 63
8, 37296, Note_on_c, 5, 62, 57
8, 37309, Note_on_c, 5, 62, 0
8, 37312, Note_on_c, 5, 65, 0
8, 37345, Note_on_c, 5, 64, 66
8, 37346, Note_on_c, 5, 61, 69
8, 37523, Note_on_c, 5, 64, 0
8, 37525, Note_on_c, 5, 61, 0
8, 37534, Note_on_c, 5, 64, 66
8, 37535, Note_on_c, 5, 61, 59
8, 37539, Note_on_c, 5, 61, 0
8, 37543, Note_on_c, 5, 64, 0
8, 37776, Note_on_c, 5, 60, 58
8, 37777, Note_on_c, 5, 64, 47
8, 37783, Note_on_c, 5, 64, 0
8, 37783, Note_on_c, 5, 60, 0
8, 37827, Note_on_c, 5, 58, 72
8, 37827, Note_on_c, 5, 62, 55
8, 37907, Note_on_c, 5, 62, 0
8, 37908, Note_on_c, 5, 58, 0
8, 37919, Note_on_c, 5, 60, 65
8, 37919, Note_on_c, 5, 64, 64
8, 37927, Note_on_c, 5, 60, 0
8, 37932, Note_on_c, 5, 64, 0
8, 37968, Note_on_c, 5, 58, 72
8, 37970, Note_on_c, 5, 62, 47
8, 38052, Note_on_c, 5, 62, 0
8, 38054, Note_on_c, 5, 58, 0
8, 38063, Note_on_c, 5, 64, 61
8, 38063, Note_on_c, 5, 60, 61
8, 38072, Note_on_c, 5, 60, 0
8, 38072, Note_on_c, 5, 64, 0
8, 38111, Note_on_c, 5, 62, 60
8, 38111, Note_on_c, 5, 58, 66
8, 38240, Note_on_c, 5, 58, 0
8, 38253, Note_on_c, 5, 55, 52
8, 38295, Note_on_c, 5, 62, 0
8, 38299, Note_on_c, 5, 55, 0
8, 38303, Note_on_c, 5, 58, 68
8, 38303, Note_on_c, 5, 62, 63
8, 38316, Note_on_c, 5, 58, 0
8, 38320, Note_on_c, 5, 62, 0
8, 38542, Note_on_c, 5, 67, 69
8, 38542, Note_on_c, 5, 71, 67
8, 38553, Note_on_c, 5, 71, 0
8, 38555, Note_on_c, 5, 67, 0
8, 38591, Note_on_c, 5, 65, 76
8, 38592, Note_on_c, 5, 69, 67
8, 38673, Note_on_c, 5, 65, 0
8, 38675, Note_on_c, 5, 69, 0
8, 38685, Note_on_c, 5, 71, 65
8, 38686, Note_on_c, 5, 67, 66
8, 38691, Note_on_c, 5, 67, 0
8, 38693, Note_on_c, 5, 71, 0
8, 38737, Note_on_c, 5, 65, 77
8, 38737, Note_on_c, 5, 69, 67
8, 38814, Note_on_c, 5, 69, 0
8, 38814, Note_on_c, 5, 65, 0
8, 38829, Note_on_c, 5, 67, 65
8, 38829, Note_on_c, 5, 71, 69
8, 38835, Note_on_c, 5, 67, 0
8, 38839, Note_on_c, 5, 71, 0
8, 38878, Note_on_c, 5, 65, 74
8, 38878, Note_on_c, 5, 69, 65
8, 39017, Note_on_c, 5, 65, 0
8, 39021, Note_on_c, 5, 62, 40
8, 39030, Note_on_c, 5, 69, 0
8, 39042, Note_on_c, 5, 62, 0
8, 39070, Note_on_c, 5, 69, 67
8, 39070, Note_on_c, 5, 65, 66
8, 39082, Note_on_c, 5, 65, 0
8, 39083, Note_on_c, 5, 69, 0
8, 39123, Note_on_c, 5, 62, 40
8, 39140, Note_on_c, 5, 62, 0
8, 39310, Note_on_c, 5, 67, 70
8, 39310, Note_on_c, 5, 71, 69
8, 39318, Note_on_c, 5, 71, 0
8, 39318, Note_on_c, 5, 67, 0
8, 39359, Note_on_c, 5, 69, 70
8, 39359, Note_on_c, 5, 65, 76
8, 39443, Note_on_c, 5, 65, 0
8, 39444, Note_on_c, 5, 69, 0
8, 39454, Note_on_c, 5, 67, 68
8, 39454, Note_on_c, 5, 71, 66
8, 39462, Note_on_c, 5, 67, 0
8, 39464, Note_on_c, 5, 71, 0
8, 39503, Note_on_c, 5, 65, 76
8, 39503, Note_on_c, 5, 69, 66
8, 39586, Note_on_c, 5, 65, 0
8, 39589, Note_on_c, 5, 69, 0
8, 39598, Note_on_c, 5, 67, 56
8, 39598, Note_on_c, 5, 71, 61
8, 39605, Note_on_c, 5, 67, 0
8, 39608, Note_on_c, 5, 71, 0
8, 39647, Note_on_c, 5, 65, 75
8, 39647, Note_on_c, 5, 69, 67
8, 39763, Note_on_c, 5, 69, 0
8, 39763, Note_on_c, 5, 65, 0
8, 39791, Note_on_c, 5, 60, 45
8, 39809, Note_on_c, 5, 60, 0
8, 39812, Note_on_c, 5, 62, 49
8, 39838, Note_on_c, 5, 69, 70
8, 39838, Note_on_c, 5, 65, 66
8, 39840, Note_on_c, 5, 62, 0
8, 39857, Note_on_c, 5, 65, 0
8, 39857, Note_on_c, 5, 69, 0
8, 40078, Note_on_c, 5, 65, 66
8, 40078, Note_on_c, 5, 62, 70
8, 40090, Note_on_c, 5, 65, 0
8, 40094, Note_on_c, 5, 62, 0
8, 40126, Note_on_c, 5, 64, 68
8, 40127, Note_on_c, 5, 61, 64
8, 40188, Note_on_c, 5, 61, 0
8, 40188, Note_on_c, 5, 64, 0
8, 40225, Note_on_c, 5, 65, 63
8, 40225, Note_on_c, 5, 62, 50
8, 40236, Note_on_c, 5, 62, 0
8, 40238, Note_on_c, 5, 65, 0
8, 40271, Note_on_c, 5, 64, 66
8, 40272, Note_on_c, 5, 61, 71
8, 40347, Note_on_c, 5, 61, 0
8, 40347, Note_on_c, 5, 64, 0
8, 40365, Note_on_c, 5, 65, 67
8, 40366, Note_on_c, 5, 62, 62
8, 40375, Note_on_c, 5, 62, 0
8, 40378, Note_on_c, 5, 65, 0
8, 40414, Note_on_c, 5, 64, 61
8, 40415, Note_on_c, 5, 61, 66
8, 40604, Note_on_c, 5, 61, 0
8, 40605, Note_on_c, 5, 64, 0
8, 40608, Note_on_c, 5, 61, 64
8, 40608, Note_on_c, 5, 64, 64
8, 40626, Note_on_c, 5, 61, 0
8, 40627, Note_on_c, 5, 64, 0
8, 40847, Note_on_c, 5, 60, 63
8, 40848, Note_on_c, 5, 64, 69
8, 40855, Note_on_c, 5, 60, 0
8, 40856, Note_on_c, 5, 64, 0
8, 40897, Note_on_c, 5, 58, 70
8, 40897, Note_on_c, 5, 62, 52
8, 40983, Note_on_c, 5, 62, 0
8, 40985, Note_on_c, 5, 58, 0
8, 40991, Note_on_c, 5, 64, 60
8, 40992, Note_on_c, 5, 60, 62
8, 41000, Note_on_c, 5, 60, 0
8, 41003, Note_on_c, 5, 64, 0
8, 41041, Note_on_c, 5, 58, 73
8, 41042, Note_on_c, 5, 62, 68
8, 41125, Note_on_c, 5, 62, 0
8, 41125, Note_on_c, 5, 58, 0
8, 41135, Note_on_c, 5, 59, 54
8, 41135, Note_on_c, 5, 64, 65
8, 41137, Note_on_c, 5, 59, 0
8, 41145, Note_on_c, 5, 64, 0
8, 41183, Note_on_c, 5, 58, 72
8, 41187, Note_on_c, 5, 62, 67
8, 41312, Note_on_c, 5, 62, 0
8, 41318, Note_on_c, 5, 58, 0
8, 41372, Note_on_c, 5, 62, 40
8, 41377, Note_on_c, 5, 58, 62
8, 41411, Note_on_c, 5, 58, 0
8, 41423, Note_on_c, 5, 55, 55
8, 41426, Note_on_c, 5, 55, 0
8, 41427, Note_on_c, 5, 62, 0
8, 41614, Note_on_c, 5, 67, 73
8, 41615, Note_on_c, 5, 71, 64
8, 41630, Note_on_c, 5, 71, 0
8, 41631, Note_on_c, 5, 67, 0
8, 41663, Note_on_c, 5, 69, 69
8, 41663, Note_on_c, 5, 65, 72
8, 41744, Note_on_c, 5, 65, 0
8, 41745, Note_on_c, 5, 69, 0
8, 41758, Note_on_c, 5, 67, 70
8, 41758, Note_on_c, 5, 71, 66
8, 41768, Note_on_c, 5, 71, 0
8, 41769, Note_on_c, 5, 67, 0
8, 41807, Note_on_c, 5, 65, 70
8, 41807, Note_on_c, 5, 69, 70
8, 41887, Note_on_c, 5, 65, 0
8, 41889, Note_on_c, 5, 69, 0
8, 41901, Note_on_c, 5, 67, 62
8, 41901, Note_on_c, 5, 71, 66
8, 41906, Note_on_c, 5, 67, 0
8, 41912, Note_on_c, 5, 71, 0
8, 41950, Note_on_c, 5, 69, 66
8, 41950, Note_on_c, 5, 65, 73
8, 42115, Note_on_c, 5, 65, 0
8, 42117, Note_on_c, 5, 69, 0
8, 42117, End_track
9, 0, Start_track
9, 0, MIDI_port, 0
9, 123, Program_c, 6, 56
9, 124, Control_c, 6, 11, 127
9, 124, Control_c, 6, 10, 99
9, 124, Control_c, 6, 7, 95
9, 125, Control_c, 6, 93, 20
9, 125, Control_c, 6, 91, 60
9, 7680, Note_on_c, 6, 62, 77
9, 7681, Pitch_bend_c, 6, 8192
9, 7681, Control_c, 6, 1, 0
9, 7862, Note_on_c, 6, 62, 0
9, 7870, Note_on_c, 6, 60, 79
9, 7918, Note_on_c, 6, 62, 83
9, 7922, Note_on_c, 6, 60, 0
9, 7940, Note_on_c, 6, 62, 0
9, 8062, Note_on_c, 6, 62, 87
9, 8247, Note_on_c, 6, 62, 0
9, 8253, Note_on_c, 6, 65, 82
9, 8303, Note_on_c, 6, 62, 76
9, 8308, Note_on_c, 6, 65, 0
9, 8325, Note_on_c, 6, 62, 0
9, 9024, Note_on_c, 6, 62, 86
9, 9049, Note_on_c, 6, 65, 87
9, 9050, Note_on_c, 6, 62, 0
9, 9063, Note_on_c, 6, 65, 0
9, 9097, Note_on_c, 6, 62, 79
9, 9116, Note_on_c, 6, 62, 0
9, 9119, Note_on_c, 6, 67, 85
9, 9166, Note_on_c, 6, 67, 0
9, 9166, Note_on_c, 6, 65, 84
9, 9182, Note_on_c, 6, 65, 0
9, 9790, Note_on_c, 6, 62, 87
9, 9815, Note_on_c, 6, 65, 80
9, 9817, Note_on_c, 6, 62, 0
9, 9831, Note_on_c, 6, 65, 0
9, 9863, Note_on_c, 6, 62, 71
9, 9885, Note_on_c, 6, 67, 84
9, 9887, Note_on_c, 6, 62, 0
9, 9934, Note_on_c, 6, 69, 86
9, 9940, Note_on_c, 6, 67, 0
9, 9946, Note_on_c, 6, 69, 0
9, 10558, Note_on_c, 6, 74, 93
9, 10577, Note_on_c, 6, 74, 0
9, 10582, Note_on_c, 6, 77, 87
9, 10602, Note_on_c, 6, 77, 0
9, 10632, Note_on_c, 6, 74, 70
9, 10651, Note_on_c, 6, 74, 0
9, 10655, Note_on_c, 6, 79, 93
9, 10702, Note_on_c, 6, 77, 93
9, 10704, Note_on_c, 6, 79, 0
9, 10714, Note_on_c, 6, 77, 0
9, 10750, Note_on_c, 6, 70, 78
9, 11135, Note_on_c, 6, 69, 72
9, 11140, Note_on_c, 6, 70, 0
9, 11461, Note_on_c, 6, 69, 0
9, 13824, Note_on_c, 6, 62, 93
9, 14011, Note_on_c, 6, 62, 0
9, 14013, Note_on_c, 6, 60, 78
9, 14062, Note_on_c, 6, 62, 89
9, 14064, Note_on_c, 6, 60, 0
9, 14079, Note_on_c, 6, 62, 0
9, 14206, Note_on_c, 6, 62, 80
9, 14399, Note_on_c, 6, 65, 93
9, 14403, Note_on_c, 6, 62, 0
9, 14446, Note_on_c, 6, 65, 0
9, 14446, Note_on_c, 6, 62, 94
9, 14463, Note_on_c, 6, 62, 0
9, 14879, Note_on_c, 6, 74, 84
9, 14889, Note_on_c, 6, 74, 0
9, 14905, Note_on_c, 6, 74, 82
9, 14915, Note_on_c, 6, 74, 0
9, 14929, Note_on_c, 6, 74, 73
9, 14939, Note_on_c, 6, 74, 0
9, 14953, Note_on_c, 6, 74, 70
9, 14963, Note_on_c, 6, 74, 0
9, 14977, Note_on_c, 6, 74, 86
9, 14988, Note_on_c, 6, 74, 0
9, 15647, Note_on_c, 6, 81, 84
9, 15656, Note_on_c, 6, 81, 0
9, 15672, Note_on_c, 6, 81, 69
9, 15683, Note_on_c, 6, 81, 0
9, 15695, Note_on_c, 6, 81, 69
9, 15707, Note_on_c, 6, 81, 0
9, 15720, Note_on_c, 6, 81, 68
9, 15728, Note_on_c, 6, 81, 0
9, 15744, Note_on_c, 6, 81, 86
9, 15757, Note_on_c, 6, 81, 0
9, 16415, Note_on_c, 6, 79, 80
9, 16425, Note_on_c, 6, 79, 0
9, 16439, Note_on_c, 6, 79, 67
9, 16449, Note_on_c, 6, 79, 0
9, 16464, Note_on_c, 6, 79, 72
9, 16472, Note_on_c, 6, 79, 0
9, 16487, Note_on_c, 6, 79, 73
9, 16496, Note_on_c, 6, 79, 0
9, 16511, Note_on_c, 6, 79, 85
9, 16522, Note_on_c, 6, 79, 0
9, 16895, Note_on_c, 6, 74, 101
9, 17086, Note_on_c, 6, 72, 77
9, 17087, Note_on_c, 6, 74, 0
9, 17131, Note_on_c, 6, 72, 0
9, 17133, Note_on_c, 6, 74, 85
9, 17154, Note_on_c, 6, 74, 0
9, 17278, Note_on_c, 6, 74, 83
9, 17472, Note_on_c, 6, 77, 79
9, 17482, Note_on_c, 6, 74, 0
9, 17518, Note_on_c, 6, 77, 0
9, 17519, Note_on_c, 6, 74, 79
9, 17540, Note_on_c, 6, 74, 0
9, 24382, Note_on_c, 6, 74, 97
9, 24405, Note_on_c, 6, 74, 0
9, 24406, Note_on_c, 6, 77, 79
9, 24424, Note_on_c, 6, 77, 0
9, 24454, Note_on_c, 6, 74, 80
9, 24476, Note_on_c, 6, 74, 0
9, 24477, Note_on_c, 6, 79, 91
9, 24526, Note_on_c, 6, 81, 84
9, 24530, Note_on_c, 6, 79, 0
9, 24543, Note_on_c, 6, 81, 0
9, 25150, Note_on_c, 6, 74, 94
9, 25173, Note_on_c, 6, 77, 79
9, 25175, Note_on_c, 6, 74, 0
9, 25190, Note_on_c, 6, 77, 0
9, 25223, Note_on_c, 6, 74, 90
9, 25245, Note_on_c, 6, 79, 83
9, 25249, Note_on_c, 6, 74, 0
9, 25293, Note_on_c, 6, 81, 79
9, 25295, Note_on_c, 6, 79, 0
9, 25314, Note_on_c, 6, 81, 0
9, 25919, Note_on_c, 6, 74, 94
9, 25940, Note_on_c, 6, 74, 0
9, 25942, Note_on_c, 6, 77, 79
9, 25961, Note_on_c, 6, 77, 0
9, 25991, Note_on_c, 6, 74, 87
9, 26014, Note_on_c, 6, 79, 86
9, 26016, Note_on_c, 6, 74, 0
9, 26061, Note_on_c, 6, 77, 89
9, 26064, Note_on_c, 6, 79, 0
9, 26078, Note_on_c, 6, 77, 0
9, 26112, Note_on_c, 6, 70, 83
9, 26495, Note_on_c, 6, 70, 0
9, 26495, Note_on_c, 6, 69, 72
9, 26818, Note_on_c, 6, 69, 0
9, 29184, Note_on_c, 6, 62, 94
9, 29362, Note_on_c, 6, 62, 0
9, 29373, Note_on_c, 6, 60, 101
9, 29422, Note_on_c, 6, 62, 87
9, 29423, Note_on_c, 6, 60, 0
9, 29439, Note_on_c, 6, 62, 0
9, 29566, Note_on_c, 6, 62, 94
9, 29754, Note_on_c, 6, 62, 0
9, 29758, Note_on_c, 6, 65, 83
9, 29807, Note_on_c, 6, 62, 91
9, 29808, Note_on_c, 6, 65, 0
9, 29824, Note_on_c, 6, 62, 0
9, 29999, Note_on_c, 6, 74, 87
9, 30013, Note_on_c, 6, 74, 0
9, 30046, Note_on_c, 6, 77, 90
9, 30132, Note_on_c, 6, 77, 0
9, 30144, Note_on_c, 6, 74, 74
9, 30160, Note_on_c, 6, 74, 0
9, 30169, Note_on_c, 6, 74, 76
9, 30183, Note_on_c, 6, 74, 0
9, 30215, Note_on_c, 6, 74, 94
9, 30235, Note_on_c, 6, 74, 0
9, 30238, Note_on_c, 6, 72, 79
9, 30285, Note_on_c, 6, 72, 0
9, 30285, Note_on_c, 6, 74, 85
9, 30303, Note_on_c, 6, 74, 0
9, 30382, Note_on_c, 6, 74, 87
9, 30397, Note_on_c, 6, 74, 0
9, 30430, Note_on_c, 6, 77, 89
9, 30524, Note_on_c, 6, 77, 0
9, 30526, Note_on_c, 6, 74, 78
9, 30542, Note_on_c, 6, 74, 0
9, 30551, Note_on_c, 6, 74, 78
9, 30566, Note_on_c, 6, 74, 0
9, 30599, Note_on_c, 6, 74, 93
9, 30620, Note_on_c, 6, 74, 0
9, 30622, Note_on_c, 6, 72, 79
9, 30670, Note_on_c, 6, 72, 0
9, 30671, Note_on_c, 6, 74, 89
9, 30688, Note_on_c, 6, 74, 0
9, 30766, Note_on_c, 6, 69, 79
9, 30779, Note_on_c, 6, 69, 0
9, 30815, Note_on_c, 6, 69, 86
9, 30881, Note_on_c, 6, 69, 0
9, 30912, Note_on_c, 6, 69, 79
9, 30935, Note_on_c, 6, 68, 55
9, 30941, Note_on_c, 6, 69, 0
9, 30959, Note_on_c, 6, 69, 77
9, 30962, Note_on_c, 6, 68, 0
9, 30982, Note_on_c, 6, 69, 0
9, 31150, Note_on_c, 6, 69, 75
9, 31165, Note_on_c, 6, 69, 0
9, 31198, Note_on_c, 6, 69, 84
9, 31276, Note_on_c, 6, 69, 0
9, 31294, Note_on_c, 6, 69, 79
9, 31320, Note_on_c, 6, 68, 66
9, 31328, Note_on_c, 6, 69, 0
9, 31343, Note_on_c, 6, 69, 85
9, 31345, Note_on_c, 6, 68, 0
9, 31363, Note_on_c, 6, 69, 0
9, 31535, Note_on_c, 6, 67, 78
9, 31549, Note_on_c, 6, 67, 0
9, 31583, Note_on_c, 6, 67, 85
9, 31660, Note_on_c, 6, 67, 0
9, 31679, Note_on_c, 6, 67, 78
9, 31703, Note_on_c, 6, 66, 66
9, 31712, Note_on_c, 6, 67, 0
9, 31726, Note_on_c, 6, 67, 77
9, 31727, Note_on_c, 6, 66, 0
9, 31747, Note_on_c, 6, 67, 0
9, 31918, Note_on_c, 6, 67, 75
9, 31932, Note_on_c, 6, 67, 0
9, 31966, Note_on_c, 6, 67, 80
9, 32037, Note_on_c, 6, 67, 0
9, 32063, Note_on_c, 6, 67, 82
9, 32086, Note_on_c, 6, 66, 70
9, 32091, Note_on_c, 6, 67, 0
9, 32110, Note_on_c, 6, 66, 0
9, 32110, Note_on_c, 6, 67, 79
9, 32136, Note_on_c, 6, 67, 0
9, 32303, Note_on_c, 6, 74, 79
9, 32313, Note_on_c, 6, 74, 0
9, 32351, Note_on_c, 6, 77, 93
9, 32437, Note_on_c, 6, 77, 0
9, 32447, Note_on_c, 6, 74, 72
9, 32463, Note_on_c, 6, 74, 0
9, 32474, Note_on_c, 6, 74, 73
9, 32485, Note_on_c, 6, 74, 0
9, 32521, Note_on_c, 6, 74, 85
9, 32538, Note_on_c, 6, 74, 0
9, 32541, Note_on_c, 6, 72, 67
9, 32590, Note_on_c, 6, 74, 83
9, 32595, Note_on_c, 6, 72, 0
9, 32604, Note_on_c, 6, 74, 0
9, 32686, Note_on_c, 6, 74, 82
9, 32699, Note_on_c, 6, 74, 0
9, 32735, Note_on_c, 6, 77, 101
9, 32823, Note_on_c, 6, 77, 0
9, 32832, Note_on_c, 6, 74, 78
9, 32845, Note_on_c, 6, 74, 0
9, 32857, Note_on_c, 6, 74, 70
9, 32871, Note_on_c, 6, 74, 0
9, 32902, Note_on_c, 6, 74, 87
9, 32925, Note_on_c, 6, 72, 70
9, 32928, Note_on_c, 6, 74, 0
9, 32972, Note_on_c, 6, 72, 0
9, 32974, Note_on_c, 6, 74, 89
9, 32987, Note_on_c, 6, 74, 0
9, 33071, Note_on_c, 6, 74, 83
9, 33085, Note_on_c, 6, 74, 0
9, 33119, Note_on_c, 6, 77, 90
9, 33208, Note_on_c, 6, 77, 0
9, 33217, Note_on_c, 6, 74, 72
9, 33229, Note_on_c, 6, 74, 0
9, 33240, Note_on_c, 6, 74, 76
9, 33254, Note_on_c, 6, 74, 0
9, 33288, Note_on_c, 6, 74, 79
9, 33308, Note_on_c, 6, 74, 0
9, 33309, Note_on_c, 6, 72, 72
9, 33358, Note_on_c, 6, 72, 0
9, 33359, Note_on_c, 6, 74, 82
9, 33373, Note_on_c, 6, 74, 0
9, 33455, Note_on_c, 6, 74, 90
9, 33474, Note_on_c, 6, 74, 0
9, 33503, Note_on_c, 6, 77, 89
9, 33559, Note_on_c, 6, 77, 0
9, 33600, Note_on_c, 6, 74, 80
9, 33614, Note_on_c, 6, 74, 0
9, 33623, Note_on_c, 6, 74, 78
9, 33641, Note_on_c, 6, 74, 0
9, 33672, Note_on_c, 6, 74, 73
9, 33696, Note_on_c, 6, 72, 67
9, 33698, Note_on_c, 6, 74, 0
9, 33736, Note_on_c, 6, 72, 0
9, 33743, Note_on_c, 6, 74, 83
9, 33759, Note_on_c, 6, 74, 0
9, 33839, Note_on_c, 6, 81, 80
9, 33851, Note_on_c, 6, 81, 0
9, 33887, Note_on_c, 6, 81, 87
9, 33954, Note_on_c, 6, 81, 0
9, 33983, Note_on_c, 6, 81, 82
9, 34008, Note_on_c, 6, 80, 70
9, 34016, Note_on_c, 6, 81, 0
9, 34031, Note_on_c, 6, 81, 83
9, 34034, Note_on_c, 6, 80, 0
9, 34050, Note_on_c, 6, 81, 0
9, 34222, Note_on_c, 6, 81, 86
9, 34241, Note_on_c, 6, 81, 0
9, 34271, Note_on_c, 6, 81, 91
9, 34350, Note_on_c, 6, 81, 0
9, 34367, Note_on_c, 6, 81, 84
9, 34390, Note_on_c, 6, 80, 70
9, 34393, Note_on_c, 6, 81, 0
9, 34414, Note_on_c, 6, 81, 79
9, 34417, Note_on_c, 6, 80, 0
9, 34436, Note_on_c, 6, 81, 0
9, 34605, Note_on_c, 6, 79, 84
9, 34622, Note_on_c, 6, 79, 0
9, 34654, Note_on_c, 6, 79, 87
9, 34727, Note_on_c, 6, 79, 0
9, 34749, Note_on_c, 6, 79, 80
9, 34774, Note_on_c, 6, 78, 67
9, 34782, Note_on_c, 6, 79, 0
9, 34799, Note_on_c, 6, 79, 79
9, 34806, Note_on_c, 6, 78, 0
9, 34819, Note_on_c, 6, 79, 0
9, 34990, Note_on_c, 6, 79, 89
9, 35006, Note_on_c, 6, 79, 0
9, 35039, Note_on_c, 6, 79, 85
9, 35120, Note_on_c, 6, 79, 0
9, 35136, Note_on_c, 6, 79, 80
9, 35159, Note_on_c, 6, 79, 0
9, 35159, Note_on_c, 6, 78, 66
9, 35182, Note_on_c, 6, 79, 80
9, 35186, Note_on_c, 6, 78, 0
9, 35202, Note_on_c, 6, 79, 0
9, 35374, Note_on_c, 6, 74, 82
9, 35388, Note_on_c, 6, 74, 0
9, 35423, Note_on_c, 6, 77, 85
9, 35499, Note_on_c, 6, 77, 0
9, 35521, Note_on_c, 6, 74, 80
9, 35533, Note_on_c, 6, 74, 0
9, 35545, Note_on_c, 6, 74, 75
9, 35560, Note_on_c, 6, 74, 0
9, 35591, Note_on_c, 6, 74, 86
9, 35614, Note_on_c, 6, 74, 0
9, 35615, Note_on_c, 6, 72, 75
9, 35661, Note_on_c, 6, 72, 0
9, 35663, Note_on_c, 6, 74, 87
9, 35676, Note_on_c, 6, 74, 0
9, 35759, Note_on_c, 6, 74, 90
9, 35775, Note_on_c, 6, 74, 0
9, 35807, Note_on_c, 6, 77, 86
9, 35870, Note_on_c, 6, 77, 0
9, 35903, Note_on_c, 6, 74, 78
9, 35918, Note_on_c, 6, 74, 0
9, 35928, Note_on_c, 6, 74, 75
9, 35944, Note_on_c, 6, 74, 0
9, 35975, Note_on_c, 6, 74, 89
9, 36000, Note_on_c, 6, 74, 0
9, 36000, Note_on_c, 6, 72, 74
9, 36043, Note_on_c, 6, 72, 0
9, 36047, Note_on_c, 6, 74, 90
9, 36062, Note_on_c, 6, 74, 0
9, 36143, Note_on_c, 6, 74, 83
9, 36157, Note_on_c, 6, 74, 0
9, 36191, Note_on_c, 6, 77, 90
9, 36280, Note_on_c, 6, 77, 0
9, 36289, Note_on_c, 6, 74, 72
9, 36301, Note_on_c, 6, 74, 0
9, 36312, Note_on_c, 6, 74, 76
9, 36326, Note_on_c, 6, 74, 0
9, 36360, Note_on_c, 6, 74, 79
9, 36380, Note_on_c, 6, 74, 0
9, 36381, Note_on_c, 6, 72, 72
9, 36430, Note_on_c, 6, 72, 0
9, 36431, Note_on_c, 6, 74, 82
9, 36445, Note_on_c, 6, 74, 0
9, 36527, Note_on_c, 6, 74, 90
9, 36546, Note_on_c, 6, 74, 0
9, 36575, Note_on_c, 6, 77, 89
9, 36631, Note_on_c, 6, 77, 0
9, 36672, Note_on_c, 6, 74, 80
9, 36686, Note_on_c, 6, 74, 0
9, 36695, Note_on_c, 6, 74, 78
9, 36713, Note_on_c, 6, 74, 0
9, 36744, Note_on_c, 6, 74, 73
9, 36768, Note_on_c, 6, 72, 67
9, 36770, Note_on_c, 6, 74, 0
9, 36808, Note_on_c, 6, 72, 0
9, 36815, Note_on_c, 6, 74, 83
9, 36831, Note_on_c, 6, 74, 0
9, 36911, Note_on_c, 6, 81, 80
9, 36923, Note_on_c, 6, 81, 0
9, 36959, Note_on_c, 6, 81, 87
9, 37026, Note_on_c, 6, 81, 0
9, 37055, Note_on_c, 6, 81, 82
9, 37080, Note_on_c, 6, 80, 70
9, 37088, Note_on_c, 6, 81, 0
9, 37103, Note_on_c, 6, 81, 83
9, 37106, Note_on_c, 6, 80, 0
9, 37122, Note_on_c, 6, 81, 0
9, 37294, Note_on_c, 6, 81, 86
9, 37313, Note_on_c, 6, 81, 0
9, 37343, Note_on_c, 6, 81, 91
9, 37422, Note_on_c, 6, 81, 0
9, 37439, Note_on_c, 6, 81, 84
9, 37462, Note_on_c, 6, 80, 70
9, 37465, Note_on_c, 6, 81, 0
9, 37486, Note_on_c, 6, 81, 79
9, 37489, Note_on_c, 6, 80, 0
9, 37508, Note_on_c, 6, 81, 0
9, 37677, Note_on_c, 6, 79, 84
9, 37694, Note_on_c, 6, 79, 0
9, 37726, Note_on_c, 6, 79, 87
9, 37799, Note_on_c, 6, 79, 0
9, 37821, Note_on_c, 6, 79, 80
9, 37846, Note_on_c, 6, 78, 67
9, 37854, Note_on_c, 6, 79, 0
9, 37871, Note_on_c, 6, 79, 79
9, 37878, Note_on_c, 6, 78, 0
9, 37891, Note_on_c, 6, 79, 0
9, 38062, Note_on_c, 6, 79, 89
9, 38078, Note_on_c, 6, 79, 0
9, 38111, Note_on_c, 6, 79, 85
9, 38192, Note_on_c, 6, 79, 0
9, 38208, Note_on_c, 6, 79, 80
9, 38231, Note_on_c, 6, 79, 0
9, 38231, Note_on_c, 6, 78, 66
9, 38254, Note_on_c, 6, 79, 80
9, 38258, Note_on_c, 6, 78, 0
9, 38274, Note_on_c, 6, 79, 0
9, 38446, Note_on_c, 6, 69, 99
9, 38477, Note_on_c, 6, 69, 0
9, 38542, Note_on_c, 6, 72, 99
9, 38580, Note_on_c, 6, 72, 0
9, 38639, Note_on_c, 6, 74, 96
9, 38682, Note_on_c, 6, 74, 0
9, 38733, Note_on_c, 6, 77, 101
9, 38777, Note_on_c, 6, 77, 0
9, 38830, Note_on_c, 6, 79, 107
9, 38872, Note_on_c, 6, 79, 0
9, 38926, Note_on_c, 6, 81, 103
9, 38971, Note_on_c, 6, 81, 0
9, 39022, Note_on_c, 6, 84, 105
9, 39067, Note_on_c, 6, 84, 0
9, 39118, Note_on_c, 6, 86, 111
9, 39535, Note_on_c, 6, 86, 0
9, 41518, Note_on_c, 6, 69, 99
9, 41549, Note_on_c, 6, 69, 0
9, 41614, Note_on_c, 6, 72, 99
9, 41652, Note_on_c, 6, 72, 0
9, 41711, Note_on_c, 6, 74, 96
9, 41754, Note_on_c, 6, 74, 0
9, 41805, Note_on_c, 6, 77, 101
9, 41849, Note_on_c, 6, 77, 0
9, 41902, Note_on_c, 6, 79, 107
9, 41944, Note_on_c, 6, 79, 0
9, 41998, Note_on_c, 6, 81, 103
9, 42043, Note_on_c, 6, 81, 0
9, 42094, Note_on_c, 6, 84, 105
9, 42139, Note_on_c, 6, 84, 0
9, 42190, Note_on_c, 6, 86, 111
9, 42607, Note_on_c, 6, 86, 0
9, 42607, End_track
10, 0, Start_track
10, 0, MIDI_port, 0
10, 128, Program_c, 7, 65
10, 129, Control_c, 7, 7, 90
10, 129, Control_c, 7, 11, 127
10, 129, Control_c, 7, 10, 79
10, 130, Control_c, 7, 93, 10
10, 130, Control_c, 7, 91, 55
10, 7681, Note_on_c, 7, 62, 83
10, 7682, Control_c, 7, 1, 0
10, 7682, Pitch_bend_c, 7, 8192
10, 7860, Note_on_c, 7, 62, 0
10, 7869, Note_on_c, 7, 60, 80
10, 7918, Note_on_c, 7, 62, 79
10, 7927, Note_on_c, 7, 60, 0
10, 7938, Note_on_c, 7, 62, 0
10, 8062, Note_on_c, 7, 62, 84
10, 8253, Note_on_c, 7, 62, 0
10, 8254, Note_on_c, 7, 65, 84
10, 8302, Note_on_c, 7, 62, 78
10, 8306, Note_on_c, 7, 65, 0
10, 8325, Note_on_c, 7, 62, 0
10, 8640, Note_on_c, 7, 53, 78
10, 8685, Note_on_c, 7, 53, 0
10, 8686, Note_on_c, 7, 55, 80
10, 8708, Note_on_c, 7, 55, 0
10, 9023, Note_on_c, 7, 62, 86
10, 9046, Note_on_c, 7, 62, 0
10, 9047, Note_on_c, 7, 65, 88
10, 9064, Note_on_c, 7, 65, 0
10, 9095, Note_on_c, 7, 62, 70
10, 9116, Note_on_c, 7, 62, 0
10, 9118, Note_on_c, 7, 67, 81
10, 9166, Note_on_c, 7, 65, 84
10, 9170, Note_on_c, 7, 67, 0
10, 9183, Note_on_c, 7, 65, 0
10, 9213, Note_on_c, 7, 58, 74
10, 9255, Note_on_c, 7, 58, 0
10, 9261, Note_on_c, 7, 58, 61
10, 9278, Note_on_c, 7, 58, 0
10, 9790, Note_on_c, 7, 62, 87
10, 9814, Note_on_c, 7, 62, 0
10, 9815, Note_on_c, 7, 65, 80
10, 9834, Note_on_c, 7, 65, 0
10, 9863, Note_on_c, 7, 62, 83
10, 9887, Note_on_c, 7, 67, 83
10, 9888, Note_on_c, 7, 62, 0
10, 9934, Note_on_c, 7, 69, 80
10, 9937, Note_on_c, 7, 67, 0
10, 9947, Note_on_c, 7, 69, 0
10, 10559, Note_on_c, 7, 62, 90
10, 10583, Note_on_c, 7, 62, 0
10, 10583, Note_on_c, 7, 65, 84
10, 10601, Note_on_c, 7, 65, 0
10, 10631, Note_on_c, 7, 62, 85
10, 10653, Note_on_c, 7, 62, 0
10, 10654, Note_on_c, 7, 67, 91
10, 10701, Note_on_c, 7, 67, 0
10, 10702, Note_on_c, 7, 65, 83
10, 10720, Note_on_c, 7, 65, 0
10, 10752, Note_on_c, 7, 62, 87
10, 11134, Note_on_c, 7, 61, 71
10, 11138, Note_on_c, 7, 62, 0
10, 11473, Note_on_c, 7, 61, 0
10, 13824, Note_on_c, 7, 62, 92
10, 14010, Note_on_c, 7, 62, 0
10, 14013, Note_on_c, 7, 60, 81
10, 14061, Note_on_c, 7, 62, 86
10, 14067, Note_on_c, 7, 60, 0
10, 14077, Note_on_c, 7, 62, 0
10, 14206, Note_on_c, 7, 62, 91
10, 14398, Note_on_c, 7, 65, 88
10, 14400, Note_on_c, 7, 62, 0
10, 14448, Note_on_c, 7, 62, 80
10, 14454, Note_on_c, 7, 65, 0
10, 14469, Note_on_c, 7, 62, 0
10, 14879, Note_on_c, 7, 69, 90
10, 14888, Note_on_c, 7, 69, 0
10, 14906, Note_on_c, 7, 69, 88
10, 14915, Note_on_c, 7, 69, 0
10, 14930, Note_on_c, 7, 69, 86
10, 14939, Note_on_c, 7, 69, 0
10, 14953, Note_on_c, 7, 69, 80
10, 14961, Note_on_c, 7, 69, 0
10, 14977, Note_on_c, 7, 69, 95
10, 14987, Note_on_c, 7, 69, 0
10, 15647, Note_on_c, 7, 76, 95
10, 15657, Note_on_c, 7, 76, 0
10, 15672, Note_on_c, 7, 76, 81
10, 15683, Note_on_c, 7, 76, 0
10, 15695, Note_on_c, 7, 76, 78
10, 15706, Note_on_c, 7, 76, 0
10, 15720, Note_on_c, 7, 76, 77
10, 15728, Note_on_c, 7, 76, 0
10, 15744, Note_on_c, 7, 76, 90
10, 15755, Note_on_c, 7, 76, 0
10, 16415, Note_on_c, 7, 74, 92
10, 16424, Note_on_c, 7, 74, 0
10, 16439, Note_on_c, 7, 74, 83
10, 16449, Note_on_c, 7, 74, 0
10, 16463, Note_on_c, 7, 74, 73
10, 16472, Note_on_c, 7, 74, 0
10, 16488, Note_on_c, 7, 74, 74
10, 16495, Note_on_c, 7, 74, 0
10, 16511, Note_on_c, 7, 74, 94
10, 16521, Note_on_c, 7, 74, 0
10, 16895, Note_on_c, 7, 62, 94
10, 17087, Note_on_c, 7, 60, 84
10, 17088, Note_on_c, 7, 62, 0
10, 17133, Note_on_c, 7, 60, 0
10, 17134, Note_on_c, 7, 62, 87
10, 17152, Note_on_c, 7, 62, 0
10, 17279, Note_on_c, 7, 62, 92
10, 17470, Note_on_c, 7, 65, 83
10, 17476, Note_on_c, 7, 62, 0
10, 17516, Note_on_c, 7, 65, 0
10, 17516, Note_on_c, 7, 62, 90
10, 17534, Note_on_c, 7, 62, 0
10, 24382, Note_on_c, 7, 62, 104
10, 24407, Note_on_c, 7, 65, 97
10, 24409, Note_on_c, 7, 62, 0
10, 24426, Note_on_c, 7, 65, 0
10, 24455, Note_on_c, 7, 62, 95
10, 24476, Note_on_c, 7, 62, 0
10, 24477, Note_on_c, 7, 67, 91
10, 24525, Note_on_c, 7, 69, 85
10, 24532, Note_on_c, 7, 67, 0
10, 24545, Note_on_c, 7, 69, 0
10, 25151, Note_on_c, 7, 62, 102
10, 25175, Note_on_c, 7, 62, 0
10, 25175, Note_on_c, 7, 65, 90
10, 25194, Note_on_c, 7, 65, 0
10, 25222, Note_on_c, 7, 62, 92
10, 25243, Note_on_c, 7, 62, 0
10, 25244, Note_on_c, 7, 67, 90
10, 25293, Note_on_c, 7, 69, 88
10, 25299, Note_on_c, 7, 67, 0
10, 25314, Note_on_c, 7, 69, 0
10, 25918, Note_on_c, 7, 62, 84
10, 25940, Note_on_c, 7, 65, 90
10, 25946, Note_on_c, 7, 62, 0
10, 25969, Note_on_c, 7, 65, 0
10, 25989, Note_on_c, 7, 62, 76
10, 26013, Note_on_c, 7, 67, 87
10, 26014, Note_on_c, 7, 62, 0
10, 26062, Note_on_c, 7, 65, 83
10, 26067, Note_on_c, 7, 67, 0
10, 26079, Note_on_c, 7, 65, 0
10, 26110, Note_on_c, 7, 70, 99
10, 26494, Note_on_c, 7, 70, 0
10, 26495, Note_on_c, 7, 69, 79
10, 26849, Note_on_c, 7, 69, 0
10, 29184, Note_on_c, 7, 62, 98
10, 29369, Note_on_c, 7, 62, 0
10, 29374, Note_on_c, 7, 60, 80
10, 29421, Note_on_c, 7, 62, 84
10, 29422, Note_on_c, 7, 60, 0
10, 29438, Note_on_c, 7, 62, 0
10, 29566, Note_on_c, 7, 62, 88
10, 29759, Note_on_c, 7, 65, 78
10, 29760, Note_on_c, 7, 62, 0
10, 29807, Note_on_c, 7, 62, 81
10, 29809, Note_on_c, 7, 65, 0
10, 29823, Note_on_c, 7, 62, 0
10, 29998, Note_on_c, 7, 62, 86
10, 30009, Note_on_c, 7, 62, 0
10, 30046, Note_on_c, 7, 65, 97
10, 30139, Note_on_c, 7, 65, 0
10, 30142, Note_on_c, 7, 62, 73
10, 30158, Note_on_c, 7, 62, 0
10, 30167, Note_on_c, 7, 62, 68
10, 30180, Note_on_c, 7, 62, 0
10, 30214, Note_on_c, 7, 62, 91
10, 30236, Note_on_c, 7, 60, 70
10, 30240, Note_on_c, 7, 62, 0
10, 30285, Note_on_c, 7, 62, 85
10, 30292, Note_on_c, 7, 60, 0
10, 30300, Note_on_c, 7, 62, 0
10, 30382, Note_on_c, 7, 62, 90
10, 30396, Note_on_c, 7, 62, 0
10, 30430, Note_on_c, 7, 65, 91
10, 30521, Note_on_c, 7, 65, 0
10, 30528, Note_on_c, 7, 62, 85
10, 30541, Note_on_c, 7, 62, 0
10, 30552, Note_on_c, 7, 62, 80
10, 30567, Note_on_c, 7, 62, 0
10, 30598, Note_on_c, 7, 62, 91
10, 30620, Note_on_c, 7, 62, 0
10, 30622, Note_on_c, 7, 60, 73
10, 30668, Note_on_c, 7, 60, 0
10, 30671, Note_on_c, 7, 62, 92
10, 30687, Note_on_c, 7, 62, 0
10, 30766, Note_on_c, 7, 64, 80
10, 30766, Note_on_c, 7, 61, 71
10, 30778, Note_on_c, 7, 61, 0
10, 30779, Note_on_c, 7, 64, 0
10, 30814, Note_on_c, 7, 61, 85
10, 30814, Note_on_c, 7, 64, 86
10, 30889, Note_on_c, 7, 61, 0
10, 30891, Note_on_c, 7, 64, 0
10, 30910, Note_on_c, 7, 61, 84
10, 30910, Note_on_c, 7, 64, 84
10, 30933, Note_on_c, 7, 63, 67
10, 30934, Note_on_c, 7, 60, 73
10, 30938, Note_on_c, 7, 64, 0
10, 30938, Note_on_c, 7, 61, 0
10, 30959, Note_on_c, 7, 61, 67
10, 30959, Note_on_c, 7, 64, 80
10, 30963, Note_on_c, 7, 60, 0
10, 30967, Note_on_c, 7, 63, 0
10, 30975, Note_on_c, 7, 61, 0
10, 30977, Note_on_c, 7, 64, 0
10, 31151, Note_on_c, 7, 61, 79
10, 31151, Note_on_c, 7, 64, 84
10, 31163, Note_on_c, 7, 61, 0
10, 31166, Note_on_c, 7, 64, 0
10, 31199, Note_on_c, 7, 64, 91
10, 31199, Note_on_c, 7, 61, 91
10, 31266, Note_on_c, 7, 61, 0
10, 31268, Note_on_c, 7, 64, 0
10, 31294, Note_on_c, 7, 64, 80
10, 31294, Note_on_c, 7, 61, 82
10, 31318, Note_on_c, 7, 60, 66
10, 31319, Note_on_c, 7, 63, 67
10, 31324, Note_on_c, 7, 61, 0
10, 31324, Note_on_c, 7, 64, 0
10, 31342, Note_on_c, 7, 61, 74
10, 31343, Note_on_c, 7, 64, 80
10, 31346, Note_on_c, 7, 63, 0
10, 31349, Note_on_c, 7, 60, 0
10, 31363, Note_on_c, 7, 61, 0
10, 31363, Note_on_c, 7, 64, 0
10, 31534, Note_on_c, 7, 58, 81
10, 31534, Note_on_c, 7, 62, 86
10, 31546, Note_on_c, 7, 58, 0
10, 31548, Note_on_c, 7, 62, 0
10, 31582, Note_on_c, 7, 62, 87
10, 31583, Note_on_c, 7, 58, 85
10, 31657, Note_on_c, 7, 58, 0
10, 31657, Note_on_c, 7, 62, 0
10, 31679, Note_on_c, 7, 58, 85
10, 31679, Note_on_c, 7, 62, 83
10, 31702, Note_on_c, 7, 61, 67
10, 31703, Note_on_c, 7, 57, 73
10, 31704, Note_on_c, 7, 62, 0
10, 31709, Note_on_c, 7, 58, 0
10, 31726, Note_on_c, 7, 58, 75
10, 31727, Note_on_c, 7, 57, 0
10, 31727, Note_on_c, 7, 62, 85
10, 31731, Note_on_c, 7, 61, 0
10, 31747, Note_on_c, 7, 62, 0
10, 31750, Note_on_c, 7, 58, 0
10, 31918, Note_on_c, 7, 58, 81
10, 31918, Note_on_c, 7, 62, 80
10, 31930, Note_on_c, 7, 62, 0
10, 31930, Note_on_c, 7, 58, 0
10, 31967, Note_on_c, 7, 62, 88
10, 31967, Note_on_c, 7, 58, 85
10, 32034, Note_on_c, 7, 58, 0
10, 32034, Note_on_c, 7, 62, 0
10, 32061, Note_on_c, 7, 58, 84
10, 32061, Note_on_c, 7, 62, 84
10, 32081, Note_on_c, 7, 62, 0
10, 32085, Note_on_c, 7, 61, 67
10, 32086, Note_on_c, 7, 57, 68
10, 32091, Note_on_c, 7, 58, 0
10, 32107, Note_on_c, 7, 57, 0
10, 32108, Note_on_c, 7, 58, 62
10, 32109, Note_on_c, 7, 62, 80
10, 32110, Note_on_c, 7, 61, 0
10, 32134, Note_on_c, 7, 62, 0
10, 32136, Note_on_c, 7, 58, 0
10, 32302, Note_on_c, 7, 62, 85
10, 32317, Note_on_c, 7, 62, 0
10, 32350, Note_on_c, 7, 65, 98
10, 32434, Note_on_c, 7, 65, 0
10, 32449, Note_on_c, 7, 62, 75
10, 32461, Note_on_c, 7, 62, 0
10, 32471, Note_on_c, 7, 62, 80
10, 32484, Note_on_c, 7, 62, 0
10, 32518, Note_on_c, 7, 62, 90
10, 32540, Note_on_c, 7, 60, 73
10, 32544, Note_on_c, 7, 62, 0
10, 32589, Note_on_c, 7, 62, 92
10, 32591, Note_on_c, 7, 60, 0
10, 32605, Note_on_c, 7, 62, 0
10, 32686, Note_on_c, 7, 62, 87
10, 32698, Note_on_c, 7, 62, 0
10, 32735, Note_on_c, 7, 65, 81
10, 32804, Note_on_c, 7, 65, 0
10, 32831, Note_on_c, 7, 62, 80
10, 32842, Note_on_c, 7, 62, 0
10, 32855, Note_on_c, 7, 62, 78
10, 32871, Note_on_c, 7, 62, 0
10, 32902, Note_on_c, 7, 62, 86
10, 32925, Note_on_c, 7, 60, 73
10, 32928, Note_on_c, 7, 62, 0
10, 32974, Note_on_c, 7, 62, 83
10, 32977, Note_on_c, 7, 60, 0
10, 32989, Note_on_c, 7, 62, 0
10, 33070, Note_on_c, 7, 62, 94
10, 33084, Note_on_c, 7, 62, 0
10, 33118, Note_on_c, 7, 65, 94
10, 33210, Note_on_c, 7, 65, 0
10, 33215, Note_on_c, 7, 62, 83
10, 33231, Note_on_c, 7, 62, 0
10, 33238, Note_on_c, 7, 62, 65
10, 33255, Note_on_c, 7, 62, 0
10, 33287, Note_on_c, 7, 62, 86
10, 33310, Note_on_c, 7, 60, 80
10, 33315, Note_on_c, 7, 62, 0
10, 33358, Note_on_c, 7, 62, 88
10, 33359, Note_on_c, 7, 60, 0
10, 33373, Note_on_c, 7, 62, 0
10, 33454, Note_on_c, 7, 62, 83
10, 33468, Note_on_c, 7, 62, 0
10, 33503, Note_on_c, 7, 65, 90
10, 33599, Note_on_c, 7, 65, 0
10, 33599, Note_on_c, 7, 62, 80
10, 33613, Note_on_c, 7, 62, 0
10, 33624, Note_on_c, 7, 62, 68
10, 33640, Note_on_c, 7, 62, 0
10, 33670, Note_on_c, 7, 62, 92
10, 33694, Note_on_c, 7, 60, 75
10, 33698, Note_on_c, 7, 62, 0
10, 33742, Note_on_c, 7, 62, 86
10, 33743, Note_on_c, 7, 60, 0
10, 33760, Note_on_c, 7, 62, 0
10, 33839, Note_on_c, 7, 61, 81
10, 33839, Note_on_c, 7, 64, 85
10, 33851, Note_on_c, 7, 61, 0
10, 33854, Note_on_c, 7, 64, 0
10, 33887, Note_on_c, 7, 61, 89
10, 33887, Note_on_c, 7, 64, 90
10, 33958, Note_on_c, 7, 61, 0
10, 33962, Note_on_c, 7, 64, 0
10, 33983, Note_on_c, 7, 64, 81
10, 33983, Note_on_c, 7, 61, 81
10, 34007, Note_on_c, 7, 63, 72
10, 34007, Note_on_c, 7, 60, 66
10, 34012, Note_on_c, 7, 64, 0
10, 34013, Note_on_c, 7, 61, 0
10, 34031, Note_on_c, 7, 60, 0
10, 34031, Note_on_c, 7, 61, 68
10, 34031, Note_on_c, 7, 64, 80
10, 34035, Note_on_c, 7, 63, 0
10, 34050, Note_on_c, 7, 64, 0
10, 34050, Note_on_c, 7, 61, 0
10, 34221, Note_on_c, 7, 61, 71
10, 34221, Note_on_c, 7, 64, 81
10, 34230, Note_on_c, 7, 61, 0
10, 34235, Note_on_c, 7, 64, 0
10, 34271, Note_on_c, 7, 61, 89
10, 34271, Note_on_c, 7, 64, 88
10, 34353, Note_on_c, 7, 64, 0
10, 34353, Note_on_c, 7, 61, 0
10, 34367, Note_on_c, 7, 61, 75
10, 34367, Note_on_c, 7, 64, 80
10, 34391, Note_on_c, 7, 63, 72
10, 34391, Note_on_c, 7, 60, 68
10, 34397, Note_on_c, 7, 64, 0
10, 34398, Note_on_c, 7, 61, 0
10, 34415, Note_on_c, 7, 64, 76
10, 34415, Note_on_c, 7, 61, 61
10, 34416, Note_on_c, 7, 63, 0
10, 34432, Note_on_c, 7, 61, 0
10, 34433, Note_on_c, 7, 64, 0
10, 34434, Note_on_c, 7, 60, 0
10, 34605, Note_on_c, 7, 62, 80
10, 34605, Note_on_c, 7, 58, 81
10, 34619, Note_on_c, 7, 58, 0
10, 34619, Note_on_c, 7, 62, 0
10, 34654, Note_on_c, 7, 62, 94
10, 34654, Note_on_c, 7, 58, 91
10, 34732, Note_on_c, 7, 58, 0
10, 34732, Note_on_c, 7, 62, 0
10, 34750, Note_on_c, 7, 58, 79
10, 34750, Note_on_c, 7, 62, 73
10, 34774, Note_on_c, 7, 62, 0
10, 34774, Note_on_c, 7, 57, 68
10, 34774, Note_on_c, 7, 61, 62
10, 34781, Note_on_c, 7, 58, 0
10, 34795, Note_on_c, 7, 57, 0
10, 34797, Note_on_c, 7, 58, 73
10, 34797, Note_on_c, 7, 62, 76
10, 34801, Note_on_c, 7, 61, 0
10, 34816, Note_on_c, 7, 62, 0
10, 34817, Note_on_c, 7, 58, 0
10, 34990, Note_on_c, 7, 62, 85
10, 34990, Note_on_c, 7, 58, 81
10, 35002, Note_on_c, 7, 58, 0
10, 35003, Note_on_c, 7, 62, 0
10, 35039, Note_on_c, 7, 58, 91
10, 35039, Note_on_c, 7, 62, 92
10, 35115, Note_on_c, 7, 62, 0
10, 35115, Note_on_c, 7, 58, 0
10, 35135, Note_on_c, 7, 62, 80
10, 35135, Note_on_c, 7, 58, 79
10, 35159, Note_on_c, 7, 61, 61
10, 35159, Note_on_c, 7, 57, 69
10, 35160, Note_on_c, 7, 62, 0
10, 35164, Note_on_c, 7, 58, 0
10, 35179, Note_on_c, 7, 57, 0
10, 35182, Note_on_c, 7, 62, 80
10, 35182, Note_on_c, 7, 58, 73
10, 35184, Note_on_c, 7, 61, 0
10, 35203, Note_on_c, 7, 62, 0
10, 35205, Note_on_c, 7, 58, 0
10, 35373, Note_on_c, 7, 62, 90
10, 35387, Note_on_c, 7, 62, 0
10, 35421, Note_on_c, 7, 65, 97
10, 35514, Note_on_c, 7, 65, 0
10, 35519, Note_on_c, 7, 62, 75
10, 35530, Note_on_c, 7, 62, 0
10, 35542, Note_on_c, 7, 62, 78
10, 35558, Note_on_c, 7, 62, 0
10, 35590, Note_on_c, 7, 62, 92
10, 35613, Note_on_c, 7, 60, 75
10, 35622, Note_on_c, 7, 62, 0
10, 35662, Note_on_c, 7, 62, 87
10, 35668, Note_on_c, 7, 60, 0
10, 35676, Note_on_c, 7, 62, 0
10, 35758, Note_on_c, 7, 62, 95
10, 35774, Note_on_c, 7, 62, 0
10, 35807, Note_on_c, 7, 65, 100
10, 35891, Note_on_c, 7, 65, 0
10, 35903, Note_on_c, 7, 62, 87
10, 35940, Note_on_c, 7, 62, 0
10, 35975, Note_on_c, 7, 62, 91
10, 35998, Note_on_c, 7, 60, 76
10, 35999, Note_on_c, 7, 62, 0
10, 36044, Note_on_c, 7, 60, 0
10, 36045, Note_on_c, 7, 62, 86
10, 36064, Note_on_c, 7, 62, 0
10, 36142, Note_on_c, 7, 62, 94
10, 36156, Note_on_c, 7, 62, 0
10, 36190, Note_on_c, 7, 65, 94
10, 36282, Note_on_c, 7, 65, 0
10, 36287, Note_on_c, 7, 62, 83
10, 36303, Note_on_c, 7, 62, 0
10, 36310, Note_on_c, 7, 62, 65
10, 36327, Note_on_c, 7, 62, 0
10, 36359, Note_on_c, 7, 62, 86
10, 36382, Note_on_c, 7, 60, 80
10, 36387, Note_on_c, 7, 62, 0
10, 36430, Note_on_c, 7, 62, 88
10, 36431, Note_on_c, 7, 60, 0
10, 36445, Note_on_c, 7, 62, 0
10, 36526, Note_on_c, 7, 62, 83
10, 36540, Note_on_c, 7, 62, 0
10, 36575, Note_on_c, 7, 65, 90
10, 36671, Note_on_c, 7, 65, 0
10, 36671, Note_on_c, 7, 62, 80
10, 36685, Note_on_c, 7, 62, 0
10, 36696, Note_on_c, 7, 62, 68
10, 36712, Note_on_c, 7, 62, 0
10, 36742, Note_on_c, 7, 62, 92
10, 36766, Note_on_c, 7, 60, 75
10, 36770, Note_on_c, 7, 62, 0
10, 36814, Note_on_c, 7, 62, 86
10, 36815, Note_on_c, 7, 60, 0
10, 36832, Note_on_c, 7, 62, 0
10, 36911, Note_on_c, 7, 61, 81
10, 36911, Note_on_c, 7, 64, 85
10, 36923, Note_on_c, 7, 61, 0
10, 36926, Note_on_c, 7, 64, 0
10, 36959, Note_on_c, 7, 64, 90
10, 36959, Note_on_c, 7, 61, 89
10, 37030, Note_on_c, 7, 61, 0
10, 37034, Note_on_c, 7, 64, 0
10, 37055, Note_on_c, 7, 64, 81
10, 37055, Note_on_c, 7, 61, 81
10, 37079, Note_on_c, 7, 63, 72
10, 37079, Note_on_c, 7, 60, 66
10, 37084, Note_on_c, 7, 64, 0
10, 37085, Note_on_c, 7, 61, 0
10, 37103, Note_on_c, 7, 60, 0
10, 37103, Note_on_c, 7, 61, 68
10, 37103, Note_on_c, 7, 64, 80
10, 37107, Note_on_c, 7, 63, 0
10, 37122, Note_on_c, 7, 64, 0
10, 37122, Note_on_c, 7, 61, 0
10, 37293, Note_on_c, 7, 61, 71
10, 37293, Note_on_c, 7, 64, 81
10, 37302, Note_on_c, 7, 61, 0
10, 37307, Note_on_c, 7, 64, 0
10, 37343, Note_on_c, 7, 64, 88
10, 37343, Note_on_c, 7, 61, 89
10, 37425, Note_on_c, 7, 61, 0
10, 37425, Note_on_c, 7, 64, 0
10, 37439, Note_on_c, 7, 64, 80
10, 37439, Note_on_c, 7, 61, 75
10, 37463, Note_on_c, 7, 60, 68
10, 37463, Note_on_c, 7, 63, 72
10, 37469, Note_on_c, 7, 64, 0
10, 37470, Note_on_c, 7, 61, 0
10, 37487, Note_on_c, 7, 64, 76
10, 37487, Note_on_c, 7, 61, 61
10, 37488, Note_on_c, 7, 63, 0
10, 37504, Note_on_c, 7, 61, 0
10, 37505, Note_on_c, 7, 64, 0
10, 37506, Note_on_c, 7, 60, 0
10, 37677, Note_on_c, 7, 62, 80
10, 37677, Note_on_c, 7, 58, 81
10, 37691, Note_on_c, 7, 58, 0
10, 37691, Note_on_c, 7, 62, 0
10, 37726, Note_on_c, 7, 62, 94
10, 37726, Note_on_c, 7, 58, 91
10, 37804, Note_on_c, 7, 58, 0
10, 37804, Note_on_c, 7, 62, 0
10, 37822, Note_on_c, 7, 62, 73
10, 37822, Note_on_c, 7, 58, 79
10, 37846, Note_on_c, 7, 62, 0
10, 37846, Note_on_c, 7, 57, 68
10, 37846, Note_on_c, 7, 61, 62
10, 37853, Note_on_c, 7, 58, 0
10, 37867, Note_on_c, 7, 57, 0
10, 37869, Note_on_c, 7, 62, 76
10, 37869, Note_on_c, 7, 58, 73
10, 37873, Note_on_c, 7, 61, 0
10, 37888, Note_on_c, 7, 62, 0
10, 37889, Note_on_c, 7, 58, 0
10, 38062, Note_on_c, 7, 58, 81
10, 38062, Note_on_c, 7, 62, 85
10, 38074, Note_on_c, 7, 58, 0
10, 38075, Note_on_c, 7, 62, 0
10, 38111, Note_on_c, 7, 58, 91
10, 38111, Note_on_c, 7, 62, 92
10, 38187, Note_on_c, 7, 62, 0
10, 38187, Note_on_c, 7, 58, 0
10, 38207, Note_on_c, 7, 58, 79
10, 38207, Note_on_c, 7, 62, 80
10, 38231, Note_on_c, 7, 57, 69
10, 38231, Note_on_c, 7, 61, 61
10, 38232, Note_on_c, 7, 62, 0
10, 38236, Note_on_c, 7, 58, 0
10, 38251, Note_on_c, 7, 57, 0
10, 38254, Note_on_c, 7, 58, 73
10, 38254, Note_on_c, 7, 62, 80
10, 38256, Note_on_c, 7, 61, 0
10, 38275, Note_on_c, 7, 62, 0
10, 38277, Note_on_c, 7, 58, 0
10, 38446, Note_on_c, 7, 57, 106
10, 38483, Note_on_c, 7, 57, 0
10, 38542, Note_on_c, 7, 60, 104
10, 38574, Note_on_c, 7, 60, 0
10, 38638, Note_on_c, 7, 62, 112
10, 38677, Note_on_c, 7, 62, 0
10, 38735, Note_on_c, 7, 65, 102
10, 38777, Note_on_c, 7, 65, 0
10, 38829, Note_on_c, 7, 67, 108
10, 38870, Note_on_c, 7, 67, 0
10, 38926, Note_on_c, 7, 69, 114
10, 38967, Note_on_c, 7, 69, 0
10, 39022, Note_on_c, 7, 72, 117
10, 39063, Note_on_c, 7, 72, 0
10, 39119, Note_on_c, 7, 74, 125
10, 39548, Note_on_c, 7, 74, 0
10, 41518, Note_on_c, 7, 57, 106
10, 41555, Note_on_c, 7, 57, 0
10, 41614, Note_on_c, 7, 60, 104
10, 41646, Note_on_c, 7, 60, 0
10, 41710, Note_on_c, 7, 62, 112
10, 41749, Note_on_c, 7, 62, 0
10, 41807, Note_on_c, 7, 65, 102
10, 41849, Note_on_c, 7, 65, 0
10, 41901, Note_on_c, 7, 67, 108
10, 41942, Note_on_c, 7, 67, 0
10, 41998, Note_on_c, 7, 69, 114
10, 42039, Note_on_c, 7, 69, 0
10, 42094, Note_on_c, 7, 72, 117
10, 42135, Note_on_c, 7, 72, 0
10, 42191, Note_on_c, 7, 74, 125
10, 42620, Note_on_c, 7, 74, 0
10, 42620, End_track
11, 0, Start_track
11, 0, MIDI_port, 0
11, 133, Program_c, 8, 57
11, 134, Control_c, 8, 7, 95
11, 134, Control_c, 8, 11, 127
11, 134, Control_c, 8, 10, 49
11, 135, Control_c, 8, 93, 10
11, 135, Control_c, 8, 91, 60
11, 7681, Note_on_c, 8, 50, 73
11, 7682, Control_c, 8, 1, 0
11, 7682, Pitch_bend_c, 8, 8192
11, 7858, Note_on_c, 8, 50, 0
11, 7871, Note_on_c, 8, 48, 84
11, 7916, Note_on_c, 8, 50, 73
11, 7917, Note_on_c, 8, 48, 0
11, 7938, Note_on_c, 8, 50, 0
11, 8062, Note_on_c, 8, 50, 77
11, 8249, Note_on_c, 8, 50, 0
11, 8253, Note_on_c, 8, 53, 76
11, 8302, Note_on_c, 8, 50, 77
11, 8305, Note_on_c, 8, 53, 0
11, 8325, Note_on_c, 8, 50, 0
11, 8640, Note_on_c, 8, 53, 88
11, 8682, Note_on_c, 8, 53, 0
11, 8688, Note_on_c, 8, 55, 70
11, 8704, Note_on_c, 8, 55, 0
11, 9023, Note_on_c, 8, 50, 90
11, 9046, Note_on_c, 8, 50, 0
11, 9047, Note_on_c, 8, 53, 80
11, 9064, Note_on_c, 8, 53, 0
11, 9094, Note_on_c, 8, 50, 73
11, 9115, Note_on_c, 8, 50, 0
11, 9117, Note_on_c, 8, 55, 86
11, 9167, Note_on_c, 8, 53, 86
11, 9175, Note_on_c, 8, 55, 0
11, 9181, Note_on_c, 8, 53, 0
11, 9217, Note_on_c, 8, 46, 72
11, 9259, Note_on_c, 8, 46, 0
11, 9265, Note_on_c, 8, 46, 61
11, 9281, Note_on_c, 8, 46, 0
11, 9406, Note_on_c, 8, 46, 63
11, 9445, Note_on_c, 8, 46, 0
11, 9453, Note_on_c, 8, 46, 64
11, 9478, Note_on_c, 8, 46, 0
11, 9790, Note_on_c, 8, 50, 78
11, 9815, Note_on_c, 8, 53, 77
11, 9818, Note_on_c, 8, 50, 0
11, 9842, Note_on_c, 8, 53, 0
11, 9862, Note_on_c, 8, 50, 72
11, 9885, Note_on_c, 8, 55, 84
11, 9888, Note_on_c, 8, 50, 0
11, 9933, Note_on_c, 8, 57, 73
11, 9938, Note_on_c, 8, 55, 0
11, 9954, Note_on_c, 8, 57, 0
11, 9982, Note_on_c, 8, 43, 80
11, 10022, Note_on_c, 8, 43, 0
11, 10030, Note_on_c, 8, 43, 73
11, 10051, Note_on_c, 8, 43, 0
11, 10174, Note_on_c, 8, 43, 84
11, 10214, Note_on_c, 8, 43, 0
11, 10221, Note_on_c, 8, 43, 76
11, 10245, Note_on_c, 8, 43, 0
11, 10558, Note_on_c, 8, 50, 78
11, 10582, Note_on_c, 8, 53, 70
11, 10586, Note_on_c, 8, 50, 0
11, 10605, Note_on_c, 8, 53, 0
11, 10630, Note_on_c, 8, 50, 79
11, 10654, Note_on_c, 8, 55, 80
11, 10658, Note_on_c, 8, 50, 0
11, 10701, Note_on_c, 8, 53, 77
11, 10706, Note_on_c, 8, 55, 0
11, 10723, Note_on_c, 8, 53, 0
11, 10749, Note_on_c, 8, 53, 80
11, 11134, Note_on_c, 8, 55, 79
11, 11140, Note_on_c, 8, 53, 0
11, 11433, Note_on_c, 8, 55, 0
11, 13825, Note_on_c, 8, 50, 87
11, 14007, Note_on_c, 8, 50, 0
11, 14013, Note_on_c, 8, 48, 78
11, 14062, Note_on_c, 8, 50, 78
11, 14069, Note_on_c, 8, 48, 0
11, 14082, Note_on_c, 8, 50, 0
11, 14206, Note_on_c, 8, 50, 86
11, 14398, Note_on_c, 8, 53, 78
11, 14400, Note_on_c, 8, 50, 0
11, 14447, Note_on_c, 8, 50, 77
11, 14450, Note_on_c, 8, 53, 0
11, 14466, Note_on_c, 8, 50, 0
11, 14879, Note_on_c, 8, 65, 98
11, 14891, Note_on_c, 8, 65, 0
11, 14905, Note_on_c, 8, 65, 95
11, 14917, Note_on_c, 8, 65, 0
11, 14930, Note_on_c, 8, 65, 98
11, 14938, Note_on_c, 8, 65, 0
11, 14953, Note_on_c, 8, 65, 83
11, 14960, Note_on_c, 8, 65, 0
11, 14977, Note_on_c, 8, 65, 94
11, 14991, Note_on_c, 8, 65, 0
11, 15648, Note_on_c, 8, 73, 91
11, 15658, Note_on_c, 8, 73, 0
11, 15673, Note_on_c, 8, 73, 78
11, 15682, Note_on_c, 8, 73, 0
11, 15695, Note_on_c, 8, 73, 78
11, 15705, Note_on_c, 8, 73, 0
11, 15720, Note_on_c, 8, 73, 79
11, 15728, Note_on_c, 8, 73, 0
11, 15743, Note_on_c, 8, 73, 82
11, 15757, Note_on_c, 8, 73, 0
11, 16414, Note_on_c, 8, 70, 97
11, 16425, Note_on_c, 8, 70, 0
11, 16439, Note_on_c, 8, 70, 84
11, 16448, Note_on_c, 8, 70, 0
11, 16463, Note_on_c, 8, 70, 85
11, 16474, Note_on_c, 8, 70, 0
11, 16488, Note_on_c, 8, 70, 79
11, 16496, Note_on_c, 8, 70, 0
11, 16510, Note_on_c, 8, 70, 79
11, 16523, Note_on_c, 8, 70, 0
11, 16895, Note_on_c, 8, 50, 94
11, 17086, Note_on_c, 8, 48, 80
11, 17090, Note_on_c, 8, 50, 0
11, 17133, Note_on_c, 8, 50, 86
11, 17135, Note_on_c, 8, 48, 0
11, 17156, Note_on_c, 8, 50, 0
11, 17278, Note_on_c, 8, 50, 92
11, 17463, Note_on_c, 8, 50, 0
11, 17468, Note_on_c, 8, 53, 92
11, 17518, Note_on_c, 8, 50, 84
11, 17524, Note_on_c, 8, 53, 0
11, 17542, Note_on_c, 8, 50, 0
11, 24381, Note_on_c, 8, 50, 90
11, 24406, Note_on_c, 8, 53, 86
11, 24411, Note_on_c, 8, 50, 0
11, 24429, Note_on_c, 8, 53, 0
11, 24454, Note_on_c, 8, 50, 85
11, 24477, Note_on_c, 8, 55, 86
11, 24480, Note_on_c, 8, 50, 0
11, 24525, Note_on_c, 8, 57, 86
11, 24531, Note_on_c, 8, 55, 0
11, 24545, Note_on_c, 8, 57, 0
11, 25149, Note_on_c, 8, 50, 90
11, 25174, Note_on_c, 8, 53, 80
11, 25177, Note_on_c, 8, 50, 0
11, 25198, Note_on_c, 8, 53, 0
11, 25222, Note_on_c, 8, 50, 80
11, 25245, Note_on_c, 8, 50, 0
11, 25245, Note_on_c, 8, 55, 81
11, 25293, Note_on_c, 8, 57, 84
11, 25301, Note_on_c, 8, 55, 0
11, 25314, Note_on_c, 8, 57, 0
11, 25917, Note_on_c, 8, 50, 83
11, 25942, Note_on_c, 8, 53, 84
11, 25946, Note_on_c, 8, 50, 0
11, 25965, Note_on_c, 8, 53, 0
11, 25990, Note_on_c, 8, 50, 81
11, 26013, Note_on_c, 8, 50, 0
11, 26014, Note_on_c, 8, 55, 90
11, 26062, Note_on_c, 8, 53, 84
11, 26067, Note_on_c, 8, 55, 0
11, 26079, Note_on_c, 8, 53, 0
11, 26111, Note_on_c, 8, 58, 104
11, 26496, Note_on_c, 8, 57, 83
11, 26497, Note_on_c, 8, 58, 0
11, 26843, Note_on_c, 8, 57, 0
11, 29184, Note_on_c, 8, 50, 92
11, 29370, Note_on_c, 8, 50, 0
11, 29375, Note_on_c, 8, 48, 84
11, 29421, Note_on_c, 8, 50, 81
11, 29422, Note_on_c, 8, 48, 0
11, 29439, Note_on_c, 8, 50, 0
11, 29566, Note_on_c, 8, 50, 92
11, 29758, Note_on_c, 8, 53, 80
11, 29761, Note_on_c, 8, 50, 0
11, 29807, Note_on_c, 8, 50, 80
11, 29811, Note_on_c, 8, 53, 0
11, 29821, Note_on_c, 8, 50, 0
11, 30001, Note_on_c, 8, 50, 80
11, 30013, Note_on_c, 8, 50, 0
11, 30047, Note_on_c, 8, 53, 91
11, 30137, Note_on_c, 8, 53, 0
11, 30141, Note_on_c, 8, 50, 75
11, 30160, Note_on_c, 8, 50, 0
11, 30167, Note_on_c, 8, 50, 75
11, 30184, Note_on_c, 8, 50, 0
11, 30214, Note_on_c, 8, 50, 84
11, 30238, Note_on_c, 8, 48, 80
11, 30244, Note_on_c, 8, 50, 0
11, 30286, Note_on_c, 8, 50, 79
11, 30289, Note_on_c, 8, 48, 0
11, 30300, Note_on_c, 8, 50, 0
11, 30383, Note_on_c, 8, 50, 80
11, 30397, Note_on_c, 8, 50, 0
11, 30430, Note_on_c, 8, 53, 91
11, 30526, Note_on_c, 8, 53, 0
11, 30527, Note_on_c, 8, 50, 74
11, 30544, Note_on_c, 8, 50, 0
11, 30553, Note_on_c, 8, 50, 68
11, 30570, Note_on_c, 8, 50, 0
11, 30599, Note_on_c, 8, 50, 78
11, 30621, Note_on_c, 8, 48, 80
11, 30623, Note_on_c, 8, 50, 0
11, 30670, Note_on_c, 8, 50, 84
11, 30673, Note_on_c, 8, 48, 0
11, 30688, Note_on_c, 8, 50, 0
11, 30766, Note_on_c, 8, 55, 88
11, 30779, Note_on_c, 8, 55, 0
11, 30815, Note_on_c, 8, 55, 94
11, 30887, Note_on_c, 8, 55, 0
11, 30911, Note_on_c, 8, 55, 88
11, 30934, Note_on_c, 8, 54, 72
11, 30939, Note_on_c, 8, 55, 0
11, 30957, Note_on_c, 8, 55, 84
11, 30958, Note_on_c, 8, 54, 0
11, 30979, Note_on_c, 8, 55, 0
11, 31150, Note_on_c, 8, 55, 83
11, 31161, Note_on_c, 8, 55, 0
11, 31199, Note_on_c, 8, 55, 91
11, 31273, Note_on_c, 8, 55, 0
11, 31294, Note_on_c, 8, 55, 84
11, 31318, Note_on_c, 8, 54, 68
11, 31323, Note_on_c, 8, 55, 0
11, 31341, Note_on_c, 8, 54, 0
11, 31341, Note_on_c, 8, 55, 78
11, 31363, Note_on_c, 8, 55, 0
11, 31533, Note_on_c, 8, 53, 85
11, 31546, Note_on_c, 8, 53, 0
11, 31583, Note_on_c, 8, 53, 94
11, 31654, Note_on_c, 8, 53, 0
11, 31678, Note_on_c, 8, 53, 80
11, 31701, Note_on_c, 8, 52, 69
11, 31703, Note_on_c, 8, 53, 0
11, 31725, Note_on_c, 8, 53, 80
11, 31726, Note_on_c, 8, 52, 0
11, 31747, Note_on_c, 8, 53, 0
11, 31917, Note_on_c, 8, 53, 83
11, 31929, Note_on_c, 8, 53, 0
11, 31966, Note_on_c, 8, 53, 92
11, 32041, Note_on_c, 8, 53, 0
11, 32062, Note_on_c, 8, 53, 81
11, 32085, Note_on_c, 8, 52, 70
11, 32088, Note_on_c, 8, 53, 0
11, 32106, Note_on_c, 8, 52, 0
11, 32109, Note_on_c, 8, 53, 78
11, 32128, Note_on_c, 8, 53, 0
11, 32301, Note_on_c, 8, 50, 84
11, 32316, Note_on_c, 8, 50, 0
11, 32349, Note_on_c, 8, 53, 95
11, 32436, Note_on_c, 8, 53, 0
11, 32446, Note_on_c, 8, 50, 73
11, 32460, Note_on_c, 8, 50, 0
11, 32470, Note_on_c, 8, 50, 75
11, 32484, Note_on_c, 8, 50, 0
11, 32518, Note_on_c, 8, 50, 90
11, 32541, Note_on_c, 8, 48, 77
11, 32543, Note_on_c, 8, 50, 0
11, 32590, Note_on_c, 8, 50, 80
11, 32594, Note_on_c, 8, 48, 0
11, 32605, Note_on_c, 8, 50, 0
11, 32686, Note_on_c, 8, 50, 83
11, 32702, Note_on_c, 8, 50, 0
11, 32734, Note_on_c, 8, 53, 84
11, 32800, Note_on_c, 8, 53, 0
11, 32831, Note_on_c, 8, 50, 84
11, 32843, Note_on_c, 8, 50, 0
11, 32856, Note_on_c, 8, 50, 73
11, 32873, Note_on_c, 8, 50, 0
11, 32903, Note_on_c, 8, 50, 81
11, 32926, Note_on_c, 8, 48, 80
11, 32930, Note_on_c, 8, 50, 0
11, 32975, Note_on_c, 8, 50, 86
11, 32978, Note_on_c, 8, 48, 0
11, 32990, Note_on_c, 8, 50, 0
11, 33071, Note_on_c, 8, 50, 77
11, 33083, Note_on_c, 8, 50, 0
11, 33119, Note_on_c, 8, 53, 91
11, 33191, Note_on_c, 8, 53, 0
11, 33214, Note_on_c, 8, 50, 78
11, 33229, Note_on_c, 8, 50, 0
11, 33238, Note_on_c, 8, 50, 64
11, 33254, Note_on_c, 8, 50, 0
11, 33287, Note_on_c, 8, 50, 83
11, 33307, Note_on_c, 8, 50, 0
11, 33310, Note_on_c, 8, 48, 73
11, 33358, Note_on_c, 8, 50, 80
11, 33361, Note_on_c, 8, 48, 0
11, 33373, Note_on_c, 8, 50, 0
11, 33455, Note_on_c, 8, 50, 80
11, 33468, Note_on_c, 8, 50, 0
11, 33503, Note_on_c, 8, 53, 84
11, 33583, Note_on_c, 8, 53, 0
11, 33598, Note_on_c, 8, 50, 74
11, 33613, Note_on_c, 8, 50, 0
11, 33623, Note_on_c, 8, 50, 66
11, 33638, Note_on_c, 8, 50, 0
11, 33669, Note_on_c, 8, 50, 80
11, 33692, Note_on_c, 8, 50, 0
11, 33693, Note_on_c, 8, 48, 78
11, 33742, Note_on_c, 8, 50, 80
11, 33743, Note_on_c, 8, 48, 0
11, 33759, Note_on_c, 8, 50, 0
11, 33838, Note_on_c, 8, 55, 83
11, 33850, Note_on_c, 8, 55, 0
11, 33887, Note_on_c, 8, 55, 88
11, 33958, Note_on_c, 8, 55, 0
11, 33983, Note_on_c, 8, 55, 83
11, 34009, Note_on_c, 8, 54, 67
11, 34019, Note_on_c, 8, 55, 0
11, 34031, Note_on_c, 8, 55, 84
11, 34033, Note_on_c, 8, 54, 0
11, 34053, Note_on_c, 8, 55, 0
11, 34222, Note_on_c, 8, 55, 80
11, 34235, Note_on_c, 8, 55, 0
11, 34270, Note_on_c, 8, 55, 85
11, 34350, Note_on_c, 8, 55, 0
11, 34366, Note_on_c, 8, 55, 80
11, 34390, Note_on_c, 8, 54, 70
11, 34397, Note_on_c, 8, 55, 0
11, 34413, Note_on_c, 8, 55, 80
11, 34415, Note_on_c, 8, 54, 0
11, 34438, Note_on_c, 8, 55, 0
11, 34606, Note_on_c, 8, 53, 86
11, 34621, Note_on_c, 8, 53, 0
11, 34653, Note_on_c, 8, 53, 84
11, 34728, Note_on_c, 8, 53, 0
11, 34749, Note_on_c, 8, 53, 80
11, 34772, Note_on_c, 8, 52, 70
11, 34776, Note_on_c, 8, 53, 0
11, 34796, Note_on_c, 8, 53, 77
11, 34800, Note_on_c, 8, 52, 0
11, 34815, Note_on_c, 8, 53, 0
11, 34989, Note_on_c, 8, 53, 80
11, 34999, Note_on_c, 8, 53, 0
11, 35037, Note_on_c, 8, 53, 92
11, 35118, Note_on_c, 8, 53, 0
11, 35135, Note_on_c, 8, 53, 80
11, 35159, Note_on_c, 8, 52, 70
11, 35164, Note_on_c, 8, 53, 0
11, 35182, Note_on_c, 8, 53, 76
11, 35184, Note_on_c, 8, 52, 0
11, 35201, Note_on_c, 8, 53, 0
11, 35373, Note_on_c, 8, 50, 81
11, 35387, Note_on_c, 8, 50, 0
11, 35421, Note_on_c, 8, 53, 84
11, 35491, Note_on_c, 8, 53, 0
11, 35518, Note_on_c, 8, 50, 84
11, 35532, Note_on_c, 8, 50, 0
11, 35542, Note_on_c, 8, 50, 70
11, 35560, Note_on_c, 8, 50, 0
11, 35591, Note_on_c, 8, 50, 81
11, 35614, Note_on_c, 8, 48, 76
11, 35616, Note_on_c, 8, 50, 0
11, 35662, Note_on_c, 8, 50, 80
11, 35664, Note_on_c, 8, 48, 0
11, 35679, Note_on_c, 8, 50, 0
11, 35758, Note_on_c, 8, 50, 85
11, 35774, Note_on_c, 8, 50, 0
11, 35806, Note_on_c, 8, 53, 87
11, 35889, Note_on_c, 8, 53, 0
11, 35902, Note_on_c, 8, 50, 80
11, 35916, Note_on_c, 8, 50, 0
11, 35927, Note_on_c, 8, 50, 73
11, 35943, Note_on_c, 8, 50, 0
11, 35974, Note_on_c, 8, 50, 88
11, 35998, Note_on_c, 8, 48, 80
11, 36002, Note_on_c, 8, 50, 0
11, 36047, Note_on_c, 8, 50, 85
11, 36054, Note_on_c, 8, 48, 0
11, 36062, Note_on_c, 8, 50, 0
11, 36143, Note_on_c, 8, 50, 77
11, 36155, Note_on_c, 8, 50, 0
11, 36191, Note_on_c, 8, 53, 91
11, 36263, Note_on_c, 8, 53, 0
11, 36286, Note_on_c, 8, 50, 78
11, 36301, Note_on_c, 8, 50, 0
11, 36310, Note_on_c, 8, 50, 64
11, 36326, Note_on_c, 8, 50, 0
11, 36359, Note_on_c, 8, 50, 83
11, 36379, Note_on_c, 8, 50, 0
11, 36382, Note_on_c, 8, 48, 73
11, 36430, Note_on_c, 8, 50, 80
11, 36433, Note_on_c, 8, 48, 0
11, 36445, Note_on_c, 8, 50, 0
11, 36527, Note_on_c, 8, 50, 80
11, 36540, Note_on_c, 8, 50, 0
11, 36575, Note_on_c, 8, 53, 84
11, 36655, Note_on_c, 8, 53, 0
11, 36670, Note_on_c, 8, 50, 74
11, 36685, Note_on_c, 8, 50, 0
11, 36695, Note_on_c, 8, 50, 66
11, 36710, Note_on_c, 8, 50, 0
11, 36741, Note_on_c, 8, 50, 80
11, 36764, Note_on_c, 8, 50, 0
11, 36765, Note_on_c, 8, 48, 78
11, 36814, Note_on_c, 8, 50, 80
11, 36815, Note_on_c, 8, 48, 0
11, 36831, Note_on_c, 8, 50, 0
11, 36910, Note_on_c, 8, 55, 83
11, 36922, Note_on_c, 8, 55, 0
11, 36959, Note_on_c, 8, 55, 88
11, 37030, Note_on_c, 8, 55, 0
11, 37055, Note_on_c, 8, 55, 83
11, 37081, Note_on_c, 8, 54, 67
11, 37091, Note_on_c, 8, 55, 0
11, 37103, Note_on_c, 8, 55, 84
11, 37105, Note_on_c, 8, 54, 0
11, 37125, Note_on_c, 8, 55, 0
11, 37294, Note_on_c, 8, 55, 80
11, 37307, Note_on_c, 8, 55, 0
11, 37342, Note_on_c, 8, 55, 85
11, 37422, Note_on_c, 8, 55, 0
11, 37438, Note_on_c, 8, 55, 80
11, 37462, Note_on_c, 8, 54, 70
11, 37469, Note_on_c, 8, 55, 0
11, 37485, Note_on_c, 8, 55, 80
11, 37487, Note_on_c, 8, 54, 0
11, 37510, Note_on_c, 8, 55, 0
11, 37678, Note_on_c, 8, 53, 86
11, 37693, Note_on_c, 8, 53, 0
11, 37725, Note_on_c, 8, 53, 84
11, 37800, Note_on_c, 8, 53, 0
11, 37821, Note_on_c, 8, 53, 80
11, 37844, Note_on_c, 8, 52, 70
11, 37848, Note_on_c, 8, 53, 0
11, 37868, Note_on_c, 8, 53, 77
11, 37872, Note_on_c, 8, 52, 0
11, 37887, Note_on_c, 8, 53, 0
11, 38061, Note_on_c, 8, 53, 80
11, 38071, Note_on_c, 8, 53, 0
11, 38109, Note_on_c, 8, 53, 92
11, 38190, Note_on_c, 8, 53, 0
11, 38207, Note_on_c, 8, 53, 80
11, 38231, Note_on_c, 8, 52, 70
11, 38236, Note_on_c, 8, 53, 0
11, 38254, Note_on_c, 8, 53, 76
11, 38256, Note_on_c, 8, 52, 0
11, 38273, Note_on_c, 8, 53, 0
11, 38446, Note_on_c, 8, 45, 84
11, 38486, Note_on_c, 8, 45, 0
11, 38541, Note_on_c, 8, 48, 91
11, 38587, Note_on_c, 8, 48, 0
11, 38636, Note_on_c, 8, 50, 95
11, 38677, Note_on_c, 8, 50, 0
11, 38733, Note_on_c, 8, 53, 94
11, 38775, Note_on_c, 8, 53, 0
11, 38828, Note_on_c, 8, 55, 100
11, 38875, Note_on_c, 8, 55, 0
11, 38925, Note_on_c, 8, 57, 98
11, 38977, Note_on_c, 8, 57, 0
11, 39020, Note_on_c, 8, 60, 100
11, 39076, Note_on_c, 8, 60, 0
11, 39118, Note_on_c, 8, 62, 100
11, 39559, Note_on_c, 8, 62, 0
11, 41518, Note_on_c, 8, 45, 84
11, 41558, Note_on_c, 8, 45, 0
11, 41613, Note_on_c, 8, 48, 91
11, 41659, Note_on_c, 8, 48, 0
11, 41708, Note_on_c, 8, 50, 95
11, 41749, Note_on_c, 8, 50, 0
11, 41805, Note_on_c, 8, 53, 94
11, 41847, Note_on_c, 8, 53, 0
11, 41900, Note_on_c, 8, 55, 100
11, 41947, Note_on_c, 8, 55, 0
11, 41997, Note_on_c, 8, 57, 98
11, 42049, Note_on_c, 8, 57, 0
11, 42092, Note_on_c, 8, 60, 100
11, 42148, Note_on_c, 8, 60, 0
11, 42190, Note_on_c, 8, 62, 100
11, 42631, Note_on_c, 8, 62, 0
11, 42631, End_track
12, 0, Start_track
12, 0, MIDI_port, 0
12, 139, Control_c, 9, 11, 127
12, 139, Control_c, 9, 7, 105
12, 140, Control_c, 9, 93, 0
12, 140, Control_c, 9, 91, 57
12, 720, Note_on_c, 9, 35, 94
12, 721, Note_on_c, 9, 35, 0
12, 721, Pitch_bend_c, 9, 8192
12, 721, Control_c, 9, 1, 0
12, 769, Note_on_c, 9, 35, 99
12, 770, Note_on_c, 9, 35, 0
12, 863, Note_on_c, 9, 62, 100
12, 864, Note_on_c, 9, 62, 0
12, 864, Pitch_bend_c, 9, 8192
12, 864, Note_on_c, 9, 42, 90
12, 864, Control_c, 9, 1, 0
12, 865, Note_on_c, 9, 42, 0
12, 913, Note_on_c, 9, 35, 84
12, 914, Note_on_c, 9, 35, 0
12, 962, Note_on_c, 9, 35, 97
12, 963, Note_on_c, 9, 35, 0
12, 1007, Note_on_c, 9, 63, 59
12, 1008, Note_on_c, 9, 63, 0
12, 1054, Note_on_c, 9, 64, 89
12, 1055, Note_on_c, 9, 64, 0
12, 1056, Note_on_c, 9, 42, 90
12, 1057, Note_on_c, 9, 42, 0
12, 1103, Note_on_c, 9, 64, 86
12, 1104, Note_on_c, 9, 64, 0
12, 1105, Note_on_c, 9, 35, 84
12, 1106, Note_on_c, 9, 35, 0
12, 1153, Note_on_c, 9, 35, 94
12, 1154, Note_on_c, 9, 35, 0
12, 1201, Note_on_c, 9, 63, 50
12, 1202, Note_on_c, 9, 63, 0
12, 1247, Note_on_c, 9, 42, 94
12, 1248, Note_on_c, 9, 42, 0
12, 1249, Note_on_c, 9, 62, 90
12, 1250, Note_on_c, 9, 62, 0
12, 1296, Note_on_c, 9, 35, 79
12, 1297, Note_on_c, 9, 35, 0
12, 1344, Note_on_c, 9, 35, 93
12, 1345, Note_on_c, 9, 35, 0
12, 1438, Note_on_c, 9, 42, 97
12, 1439, Note_on_c, 9, 42, 0
12, 1440, Note_on_c, 9, 64, 78
12, 1441, Note_on_c, 9, 64, 0
12, 1486, Note_on_c, 9, 64, 83
12, 1487, Note_on_c, 9, 64, 0
12, 1487, Note_on_c, 9, 35, 82
12, 1488, Note_on_c, 9, 35, 0
12, 1537, Note_on_c, 9, 35, 94
12, 1538, Note_on_c, 9, 35, 0
12, 1631, Note_on_c, 9, 62, 90
12, 1631, Note_on_c, 9, 42, 90
12, 1632, Note_on_c, 9, 42, 0
12, 1632, Note_on_c, 9, 62, 0
12, 1679, Note_on_c, 9, 35, 79
12, 1680, Note_on_c, 9, 35, 0
12, 1729, Note_on_c, 9, 35, 93
12, 1730, Note_on_c, 9, 35, 0
12, 1774, Note_on_c, 9, 63, 48
12, 1775, Note_on_c, 9, 63, 0
12, 1822, Note_on_c, 9, 64, 80
12, 1823, Note_on_c, 9, 64, 0
12, 1823, Note_on_c, 9, 42, 93
12, 1824, Note_on_c, 9, 42, 0
12, 1870, Note_on_c, 9, 64, 90
12, 1871, Note_on_c, 9, 64, 0
12, 1872, Note_on_c, 9, 35, 88
12, 1873, Note_on_c, 9, 35, 0
12, 1921, Note_on_c, 9, 35, 95
12, 1922, Note_on_c, 9, 35, 0
12, 2015, Note_on_c, 9, 42, 86
12, 2016, Note_on_c, 9, 42, 0
12, 2017, Note_on_c, 9, 62, 88
12, 2018, Note_on_c, 9, 62, 0
12, 2064, Note_on_c, 9, 35, 84
12, 2065, Note_on_c, 9, 35, 0
12, 2113, Note_on_c, 9, 35, 95
12, 2114, Note_on_c, 9, 35, 0
12, 2160, Note_on_c, 9, 63, 39
12, 2161, Note_on_c, 9, 63, 0
12, 2207, Note_on_c, 9, 64, 83
12, 2207, Note_on_c, 9, 42, 94
12, 2208, Note_on_c, 9, 42, 0
12, 2208, Note_on_c, 9, 64, 0
12, 2256, Note_on_c, 9, 64, 90
12, 2257, Note_on_c, 9, 64, 0
12, 2257, Note_on_c, 9, 35, 92
12, 2258, Note_on_c, 9, 35, 0
12, 2305, Note_on_c, 9, 35, 97
12, 2306, Note_on_c, 9, 35, 0
12, 2400, Note_on_c, 9, 62, 91
12, 2401, Note_on_c, 9, 62, 0
12, 2401, Note_on_c, 9, 42, 94
12, 2402, Note_on_c, 9, 42, 0
12, 2447, Note_on_c, 9, 35, 88
12, 2448, Note_on_c, 9, 35, 0
12, 2496, Note_on_c, 9, 35, 94
12, 2497, Note_on_c, 9, 35, 0
12, 2543, Note_on_c, 9, 63, 56
12, 2544, Note_on_c, 9, 63, 0
12, 2590, Note_on_c, 9, 42, 90
12, 2590, Note_on_c, 9, 64, 78
12, 2591, Note_on_c, 9, 64, 0
12, 2591, Note_on_c, 9, 42, 0
12, 2639, Note_on_c, 9, 64, 89
12, 2639, Note_on_c, 9, 35, 89
12, 2640, Note_on_c, 9, 35, 0
12, 2640, Note_on_c, 9, 64, 0
12, 2688, Note_on_c, 9, 35, 101
12, 2689, Note_on_c, 9, 35, 0
12, 2735, Note_on_c, 9, 63, 52
12, 2736, Note_on_c, 9, 63, 0
12, 2782, Note_on_c, 9, 42, 89
12, 2783, Note_on_c, 9, 42, 0
12, 2783, Note_on_c, 9, 62, 108
12, 2784, Note_on_c, 9, 62, 0
12, 2833, Note_on_c, 9, 35, 94
12, 2834, Note_on_c, 9, 35, 0
12, 2880, Note_on_c, 9, 35, 94
12, 2881, Note_on_c, 9, 35, 0
12, 2974, Note_on_c, 9, 42, 94
12, 2975, Note_on_c, 9, 42, 0
12, 2975, Note_on_c, 9, 64, 81
12, 2976, Note_on_c, 9, 64, 0
12, 3024, Note_on_c, 9, 35, 90
12, 3025, Note_on_c, 9, 35, 0
12, 3025, Note_on_c, 9, 64, 83
12, 3026, Note_on_c, 9, 64, 0
12, 3073, Note_on_c, 9, 35, 101
12, 3074, Note_on_c, 9, 35, 0
12, 3167, Note_on_c, 9, 42, 87
12, 3168, Note_on_c, 9, 42, 0
12, 3168, Note_on_c, 9, 62, 100
12, 3169, Note_on_c, 9, 62, 0
12, 3215, Note_on_c, 9, 35, 94
12, 3216, Note_on_c, 9, 35, 0
12, 3264, Note_on_c, 9, 35, 98
12, 3265, Note_on_c, 9, 35, 0
12, 3310, Note_on_c, 9, 63, 70
12, 3311, Note_on_c, 9, 63, 0
12, 3358, Note_on_c, 9, 64, 83
12, 3359, Note_on_c, 9, 64, 0
12, 3359, Note_on_c, 9, 42, 93
12, 3360, Note_on_c, 9, 42, 0
12, 3407, Note_on_c, 9, 35, 94
12, 3407, Note_on_c, 9, 64, 88
12, 3408, Note_on_c, 9, 64, 0
12, 3408, Note_on_c, 9, 35, 0
12, 3455, Note_on_c, 9, 35, 97
12, 3456, Note_on_c, 9, 35, 0
12, 3502, Note_on_c, 9, 63, 54
12, 3503, Note_on_c, 9, 63, 0
12, 3550, Note_on_c, 9, 62, 102
12, 3550, Note_on_c, 9, 42, 80
12, 3551, Note_on_c, 9, 42, 0
12, 3551, Note_on_c, 9, 62, 0
12, 3600, Note_on_c, 9, 35, 94
12, 3601, Note_on_c, 9, 35, 0
12, 3648, Note_on_c, 9, 35, 97
12, 3649, Note_on_c, 9, 35, 0
12, 3743, Note_on_c, 9, 64, 81
12, 3743, Note_on_c, 9, 42, 93
12, 3744, Note_on_c, 9, 42, 0
12, 3744, Note_on_c, 9, 64, 0
12, 3791, Note_on_c, 9, 64, 87
12, 3791, Note_on_c, 9, 35, 94
12, 3792, Note_on_c, 9, 35, 0
12, 3792, Note_on_c, 9, 64, 0
12, 3840, Note_on_c, 9, 35, 98
12, 3841, Note_on_c, 9, 35, 0
12, 3888, Note_on_c, 9, 63, 62
12, 3889, Note_on_c, 9, 63, 0
12, 3934, Note_on_c, 9, 42, 84
12, 3935, Note_on_c, 9, 42, 0
12, 3936, Note_on_c, 9, 62, 97
12, 3937, Note_on_c, 9, 62, 0
12, 3983, Note_on_c, 9, 35, 98
12, 3984, Note_on_c, 9, 35, 0
12, 4031, Note_on_c, 9, 35, 99
12, 4032, Note_on_c, 9, 35, 0
12, 4077, Note_on_c, 9, 63, 63
12, 4078, Note_on_c, 9, 63, 0
12, 4126, Note_on_c, 9, 64, 82
12, 4127, Note_on_c, 9, 64, 0
12, 4128, Note_on_c, 9, 42, 80
12, 4129, Note_on_c, 9, 42, 0
12, 4175, Note_on_c, 9, 64, 88
12, 4175, Note_on_c, 9, 35, 98
12, 4176, Note_on_c, 9, 35, 0
12, 4176, Note_on_c, 9, 64, 0
12, 4223, Note_on_c, 9, 35, 101
12, 4224, Note_on_c, 9, 35, 0
12, 4272, Note_on_c, 9, 63, 53
12, 4273, Note_on_c, 9, 63, 0
12, 4318, Note_on_c, 9, 42, 90
12, 4319, Note_on_c, 9, 42, 0
12, 4319, Note_on_c, 9, 62, 102
12, 4320, Note_on_c, 9, 62, 0
12, 4367, Note_on_c, 9, 35, 95
12, 4368, Note_on_c, 9, 35, 0
12, 4415, Note_on_c, 9, 35, 100
12, 4416, Note_on_c, 9, 35, 0
12, 4463, Note_on_c, 9, 63, 42
12, 4464, Note_on_c, 9, 63, 0
12, 4510, Note_on_c, 9, 42, 87
12, 4511, Note_on_c, 9, 42, 0
12, 4511, Note_on_c, 9, 64, 78
12, 4512, Note_on_c, 9, 64, 0
12, 4558, Note_on_c, 9, 35, 98
12, 4559, Note_on_c, 9, 35, 0
12, 4559, Note_on_c, 9, 64, 90
12, 4560, Note_on_c, 9, 64, 0
12, 4607, Note_on_c, 9, 35, 102
12, 4608, Note_on_c, 9, 35, 0
12, 4702, Note_on_c, 9, 42, 84
12, 4703, Note_on_c, 9, 42, 0
12, 4703, Note_on_c, 9, 62, 97
12, 4704, Note_on_c, 9, 62, 0
12, 4751, Note_on_c, 9, 35, 104
12, 4752, Note_on_c, 9, 35, 0
12, 4800, Note_on_c, 9, 35, 98
12, 4801, Note_on_c, 9, 35, 0
12, 4847, Note_on_c, 9, 63, 66
12, 4848, Note_on_c, 9, 63, 0
12, 4895, Note_on_c, 9, 64, 78
12, 4895, Note_on_c, 9, 42, 79
12, 4896, Note_on_c, 9, 42, 0
12, 4896, Note_on_c, 9, 64, 0
12, 4943, Note_on_c, 9, 64, 90
12, 4943, Note_on_c, 9, 35, 98
12, 4944, Note_on_c, 9, 35, 0
12, 4944, Note_on_c, 9, 64, 0
12, 4991, Note_on_c, 9, 35, 106
12, 4992, Note_on_c, 9, 35, 0
12, 5038, Note_on_c, 9, 63, 61
12, 5039, Note_on_c, 9, 63, 0
12, 5087, Note_on_c, 9, 42, 86
12, 5087, Note_on_c, 9, 62, 102
12, 5088, Note_on_c, 9, 62, 0
12, 5088, Note_on_c, 9, 42, 0
12, 5134, Note_on_c, 9, 35, 95
12, 5135, Note_on_c, 9, 35, 0
12, 5183, Note_on_c, 9, 35, 100
12, 5184, Note_on_c, 9, 35, 0
12, 5231, Note_on_c, 9, 63, 59
12, 5232, Note_on_c, 9, 63, 0
12, 5278, Note_on_c, 9, 64, 80
12, 5279, Note_on_c, 9, 64, 0
12, 5279, Note_on_c, 9, 42, 87
12, 5280, Note_on_c, 9, 42, 0
12, 5327, Note_on_c, 9, 35, 94
12, 5327, Note_on_c, 9, 64, 83
12, 5328, Note_on_c, 9, 64, 0
12, 5328, Note_on_c, 9, 35, 0
12, 5376, Note_on_c, 9, 35, 102
12, 5377, Note_on_c, 9, 35, 0
12, 5422, Note_on_c, 9, 63, 83
12, 5423, Note_on_c, 9, 63, 0
12, 5471, Note_on_c, 9, 62, 89
12, 5472, Note_on_c, 9, 62, 0
12, 5472, Note_on_c, 9, 42, 86
12, 5473, Note_on_c, 9, 42, 0
12, 5521, Note_on_c, 9, 35, 100
12, 5522, Note_on_c, 9, 35, 0
12, 5569, Note_on_c, 9, 35, 102
12, 5570, Note_on_c, 9, 35, 0
12, 5615, Note_on_c, 9, 63, 66
12, 5616, Note_on_c, 9, 63, 0
12, 5664, Note_on_c, 9, 64, 77
12, 5665, Note_on_c, 9, 64, 0
12, 5665, Note_on_c, 9, 42, 86
12, 5666, Note_on_c, 9, 42, 0
12, 5712, Note_on_c, 9, 35, 95
12, 5712, Note_on_c, 9, 64, 83
12, 5713, Note_on_c, 9, 64, 0
12, 5713, Note_on_c, 9, 35, 0
12, 5761, Note_on_c, 9, 35, 106
12, 5762, Note_on_c, 9, 35, 0
12, 5809, Note_on_c, 9, 63, 70
12, 5810, Note_on_c, 9, 63, 0
12, 5855, Note_on_c, 9, 42, 87
12, 5856, Note_on_c, 9, 42, 0
12, 5857, Note_on_c, 9, 62, 90
12, 5858, Note_on_c, 9, 62, 0
12, 5904, Note_on_c, 9, 35, 93
12, 5905, Note_on_c, 9, 35, 0
12, 5952, Note_on_c, 9, 35, 102
12, 5953, Note_on_c, 9, 35, 0
12, 5999, Note_on_c, 9, 63, 56
12, 6000, Note_on_c, 9, 63, 0
12, 6047, Note_on_c, 9, 64, 83
12, 6047, Note_on_c, 9, 42, 84
12, 6048, Note_on_c, 9, 42, 0
12, 6048, Note_on_c, 9, 64, 0
12, 6095, Note_on_c, 9, 35, 94
12, 6095, Note_on_c, 9, 64, 90
12, 6096, Note_on_c, 9, 64, 0
12, 6096, Note_on_c, 9, 35, 0
12, 6144, Note_on_c, 9, 35, 105
12, 6145, Note_on_c, 9, 35, 0
12, 6239, Note_on_c, 9, 42, 80
12, 6240, Note_on_c, 9, 42, 0
12, 6240, Note_on_c, 9, 62, 87
12, 6241, Note_on_c, 9, 62, 0
12, 6287, Note_on_c, 9, 35, 95
12, 6288, Note_on_c, 9, 35, 0
12, 6337, Note_on_c, 9, 35, 104
12, 6338, Note_on_c, 9, 35, 0
12, 6430, Note_on_c, 9, 42, 84
12, 6431, Note_on_c, 9, 42, 0
12, 6431, Note_on_c, 9, 64, 79
12, 6432, Note_on_c, 9, 64, 0
12, 6478, Note_on_c, 9, 35, 99
12, 6479, Note_on_c, 9, 35, 0
12, 6479, Note_on_c, 9, 64, 90
12, 6480, Note_on_c, 9, 64, 0
12, 6527, Note_on_c, 9, 35, 101
12, 6528, Note_on_c, 9, 35, 0
12, 6575, Note_on_c, 9, 63, 47
12, 6576, Note_on_c, 9, 63, 0
12, 6622, Note_on_c, 9, 42, 83
12, 6623, Note_on_c, 9, 42, 0
12, 6623, Note_on_c, 9, 62, 104
12, 6624, Note_on_c, 9, 62, 0
12, 6671, Note_on_c, 9, 35, 100
12, 6672, Note_on_c, 9, 35, 0
12, 6719, Note_on_c, 9, 35, 104
12, 6720, Note_on_c, 9, 35, 0
12, 6766, Note_on_c, 9, 63, 61
12, 6767, Note_on_c, 9, 63, 0
12, 6813, Note_on_c, 9, 64, 80
12, 6814, Note_on_c, 9, 64, 0
12, 6814, Note_on_c, 9, 42, 89
12, 6815, Note_on_c, 9, 42, 0
12, 6862, Note_on_c, 9, 64, 93
12, 6862, Note_on_c, 9, 35, 99
12, 6863, Note_on_c, 9, 35, 0
12, 6863, Note_on_c, 9, 64, 0
12, 6911, Note_on_c, 9, 35, 98
12, 6912, Note_on_c, 9, 35, 0
12, 6959, Note_on_c, 9, 63, 59
12, 6960, Note_on_c, 9, 63, 0
12, 7006, Note_on_c, 9, 42, 86
12, 7007, Note_on_c, 9, 42, 0
12, 7007, Note_on_c, 9, 62, 98
12, 7008, Note_on_c, 9, 62, 0
12, 7054, Note_on_c, 9, 35, 93
12, 7055, Note_on_c, 9, 35, 0
12, 7102, Note_on_c, 9, 35, 100
12, 7103, Note_on_c, 9, 35, 0
12, 7198, Note_on_c, 9, 64, 78
12, 7199, Note_on_c, 9, 64, 0
12, 7199, Note_on_c, 9, 42, 80
12, 7200, Note_on_c, 9, 42, 0
12, 7246, Note_on_c, 9, 35, 99
12, 7247, Note_on_c, 9, 35, 0
12, 7247, Note_on_c, 9, 64, 90
12, 7248, Note_on_c, 9, 64, 0
12, 7294, Note_on_c, 9, 35, 101
12, 7295, Note_on_c, 9, 35, 0
12, 7389, Note_on_c, 9, 42, 82
12, 7390, Note_on_c, 9, 42, 0
12, 7390, Note_on_c, 9, 62, 91
12, 7391, Note_on_c, 9, 62, 0
12, 7439, Note_on_c, 9, 35, 94
12, 7440, Note_on_c, 9, 35, 0
12, 7487, Note_on_c, 9, 35, 99
12, 7488, Note_on_c, 9, 35, 0
12, 7536, Note_on_c, 9, 63, 51
12, 7537, Note_on_c, 9, 63, 0
12, 7582, Note_on_c, 9, 42, 80
12, 7583, Note_on_c, 9, 42, 0
12, 7583, Note_on_c, 9, 64, 83
12, 7584, Note_on_c, 9, 64, 0
12, 7631, Note_on_c, 9, 35, 91
12, 7631, Note_on_c, 9, 64, 90
12, 7632, Note_on_c, 9, 64, 0
12, 7632, Note_on_c, 9, 35, 0
12, 7680, Note_on_c, 9, 35, 99
12, 7681, Note_on_c, 9, 35, 0
12, 7728, Note_on_c, 9, 63, 46
12, 7729, Note_on_c, 9, 63, 0
12, 7775, Note_on_c, 9, 62, 96
12, 7775, Note_on_c, 9, 42, 79
12, 7776, Note_on_c, 9, 42, 0
12, 7776, Note_on_c, 9, 62, 0
12, 7822, Note_on_c, 9, 35, 100
12, 7823, Note_on_c, 9, 35, 0
12, 7871, Note_on_c, 9, 35, 100
12, 7872, Note_on_c, 9, 35, 0
12, 7967, Note_on_c, 9, 42, 82
12, 7967, Note_on_c, 9, 64, 78
12, 7968, Note_on_c, 9, 64, 0
12, 7968, Note_on_c, 9, 42, 0
12, 8014, Note_on_c, 9, 35, 94
12, 8015, Note_on_c, 9, 35, 0
12, 8017, Note_on_c, 9, 64, 90
12, 8018, Note_on_c, 9, 64, 0
12, 8063, Note_on_c, 9, 35, 101
12, 8064, Note_on_c, 9, 35, 0
12, 8110, Note_on_c, 9, 45, 61
12, 8111, Note_on_c, 9, 45, 0
12, 8111, Note_on_c, 9, 63, 68
12, 8111, Note_on_c, 9, 38, 62
12, 8112, Note_on_c, 9, 38, 0
12, 8112, Note_on_c, 9, 63, 0
12, 8158, Note_on_c, 9, 45, 67
12, 8159, Note_on_c, 9, 45, 0
12, 8159, Note_on_c, 9, 38, 68
12, 8160, Note_on_c, 9, 38, 0
12, 8160, Note_on_c, 9, 62, 101
12, 8161, Note_on_c, 9, 62, 0
12, 8206, Note_on_c, 9, 38, 78
12, 8206, Note_on_c, 9, 45, 80
12, 8207, Note_on_c, 9, 45, 0
12, 8207, Note_on_c, 9, 38, 0
12, 8255, Note_on_c, 9, 38, 97
12, 8255, Note_on_c, 9, 45, 95
12, 8256, Note_on_c, 9, 45, 0
12, 8256, Note_on_c, 9, 38, 0
12, 8302, Note_on_c, 9, 63, 68
12, 8302, Note_on_c, 9, 45, 95
12, 8303, Note_on_c, 9, 45, 0
12, 8303, Note_on_c, 9, 63, 0
12, 8303, Note_on_c, 9, 38, 100
12, 8304, Note_on_c, 9, 38, 0
12, 8350, Note_on_c, 9, 38, 110
12, 8350, Note_on_c, 9, 64, 84
12, 8351, Note_on_c, 9, 64, 0
12, 8351, Note_on_c, 9, 38, 0
12, 8374, Note_on_c, 9, 38, 100
12, 8375, Note_on_c, 9, 38, 0
12, 8397, Note_on_c, 9, 38, 104
12, 8398, Note_on_c, 9, 38, 0
12, 8398, Note_on_c, 9, 64, 95
12, 8399, Note_on_c, 9, 64, 0
12, 8420, Note_on_c, 9, 38, 121
12, 8421, Note_on_c, 9, 38, 0
12, 8448, Note_on_c, 9, 49, 90
12, 8448, Note_on_c, 9, 35, 105
12, 8449, Note_on_c, 9, 35, 0
12, 8449, Note_on_c, 9, 49, 0
12, 8495, Note_on_c, 9, 42, 87
12, 8496, Note_on_c, 9, 42, 0
12, 8497, Note_on_c, 9, 35, 97
12, 8498, Note_on_c, 9, 35, 0
12, 8543, Note_on_c, 9, 62, 102
12, 8544, Note_on_c, 9, 62, 0
12, 8545, Note_on_c, 9, 43, 100
12, 8545, Note_on_c, 9, 45, 102
12, 8546, Note_on_c, 9, 45, 0
12, 8546, Note_on_c, 9, 43, 0
12, 8592, Note_on_c, 9, 42, 74
12, 8593, Note_on_c, 9, 42, 0
12, 8641, Note_on_c, 9, 35, 101
12, 8641, Note_on_c, 9, 42, 79
12, 8642, Note_on_c, 9, 42, 0
12, 8642, Note_on_c, 9, 35, 0
12, 8688, Note_on_c, 9, 42, 84
12, 8689, Note_on_c, 9, 42, 0
12, 8689, Note_on_c, 9, 35, 102
12, 8689, Note_on_c, 9, 63, 68
12, 8690, Note_on_c, 9, 63, 0
12, 8690, Note_on_c, 9, 35, 0
12, 8736, Note_on_c, 9, 64, 83
12, 8737, Note_on_c, 9, 64, 0
12, 8737, Note_on_c, 9, 43, 100
12, 8737, Note_on_c, 9, 45, 101
12, 8738, Note_on_c, 9, 45, 0
12, 8738, Note_on_c, 9, 43, 0
12, 8783, Note_on_c, 9, 42, 70
12, 8784, Note_on_c, 9, 42, 0
12, 8784, Note_on_c, 9, 64, 95
12, 8785, Note_on_c, 9, 64, 0
12, 8830, Note_on_c, 9, 42, 75
12, 8831, Note_on_c, 9, 42, 0
12, 8831, Note_on_c, 9, 35, 94
12, 8832, Note_on_c, 9, 35, 0
12, 8879, Note_on_c, 9, 42, 73
12, 8880, Note_on_c, 9, 42, 0
12, 8880, Note_on_c, 9, 35, 105
12, 8881, Note_on_c, 9, 35, 0
12, 8881, Note_on_c, 9, 63, 58
12, 8882, Note_on_c, 9, 63, 0
12, 8927, Note_on_c, 9, 62, 102
12, 8928, Note_on_c, 9, 62, 0
12, 8928, Note_on_c, 9, 43, 102
12, 8928, Note_on_c, 9, 45, 102
12, 8929, Note_on_c, 9, 45, 0
12, 8929, Note_on_c, 9, 43, 0
12, 8975, Note_on_c, 9, 42, 70
12, 8976, Note_on_c, 9, 42, 0
12, 9022, Note_on_c, 9, 42, 74
12, 9023, Note_on_c, 9, 42, 0
12, 9023, Note_on_c, 9, 35, 94
12, 9024, Note_on_c, 9, 35, 0
12, 9071, Note_on_c, 9, 42, 78
12, 9071, Note_on_c, 9, 63, 51
12, 9072, Note_on_c, 9, 63, 0
12, 9072, Note_on_c, 9, 42, 0
12, 9072, Note_on_c, 9, 35, 94
12, 9073, Note_on_c, 9, 35, 0
12, 9119, Note_on_c, 9, 64, 74
12, 9120, Note_on_c, 9, 64, 0
12, 9121, Note_on_c, 9, 43, 101
12, 9121, Note_on_c, 9, 45, 102
12, 9122, Note_on_c, 9, 45, 0
12, 9122, Note_on_c, 9, 43, 0
12, 9167, Note_on_c, 9, 64, 89
12, 9167, Note_on_c, 9, 42, 72
12, 9168, Note_on_c, 9, 42, 0
12, 9168, Note_on_c, 9, 64, 0
12, 9214, Note_on_c, 9, 35, 98
12, 9214, Note_on_c, 9, 42, 66
12, 9215, Note_on_c, 9, 42, 0
12, 9215, Note_on_c, 9, 35, 0
12, 9262, Note_on_c, 9, 42, 73
12, 9263, Note_on_c, 9, 42, 0
12, 9263, Note_on_c, 9, 35, 97
12, 9264, Note_on_c, 9, 35, 0
12, 9311, Note_on_c, 9, 62, 95
12, 9312, Note_on_c, 9, 62, 0
12, 9312, Note_on_c, 9, 43, 101
12, 9312, Note_on_c, 9, 45, 102
12, 9313, Note_on_c, 9, 45, 0
12, 9313, Note_on_c, 9, 43, 0
12, 9358, Note_on_c, 9, 42, 73
12, 9359, Note_on_c, 9, 42, 0
12, 9406, Note_on_c, 9, 35, 100
12, 9407, Note_on_c, 9, 35, 0
12, 9407, Note_on_c, 9, 42, 71
12, 9408, Note_on_c, 9, 42, 0
12, 9454, Note_on_c, 9, 42, 73
12, 9455, Note_on_c, 9, 42, 0
12, 9455, Note_on_c, 9, 35, 97
12, 9455, Note_on_c, 9, 63, 60
12, 9456, Note_on_c, 9, 63, 0
12, 9456, Note_on_c, 9, 35, 0
12, 9502, Note_on_c, 9, 43, 100
12, 9502, Note_on_c, 9, 45, 104
12, 9503, Note_on_c, 9, 45, 0
12, 9503, Note_on_c, 9, 43, 0
12, 9503, Note_on_c, 9, 64, 80
12, 9504, Note_on_c, 9, 64, 0
12, 9550, Note_on_c, 9, 64, 91
12, 9551, Note_on_c, 9, 64, 0
12, 9551, Note_on_c, 9, 42, 73
12, 9552, Note_on_c, 9, 42, 0
12, 9598, Note_on_c, 9, 35, 108
12, 9599, Note_on_c, 9, 35, 0
12, 9599, Note_on_c, 9, 42, 68
12, 9600, Note_on_c, 9, 42, 0
12, 9646, Note_on_c, 9, 42, 67
12, 9646, Note_on_c, 9, 63, 59
12, 9647, Note_on_c, 9, 63, 0
12, 9647, Note_on_c, 9, 42, 0
12, 9647, Note_on_c, 9, 35, 102
12, 9648, Note_on_c, 9, 35, 0
12, 9695, Note_on_c, 9, 62, 96
12, 9695, Note_on_c, 9, 45, 101
12, 9695, Note_on_c, 9, 43, 100
12, 9696, Note_on_c, 9, 43, 0
12, 9696, Note_on_c, 9, 45, 0
12, 9696, Note_on_c, 9, 62, 0
12, 9742, Note_on_c, 9, 42, 73
12, 9743, Note_on_c, 9, 42, 0
12, 9790, Note_on_c, 9, 42, 70
12, 9791, Note_on_c, 9, 42, 0
12, 9791, Note_on_c, 9, 35, 104
12, 9792, Note_on_c, 9, 35, 0
12, 9838, Note_on_c, 9, 42, 73
12, 9839, Note_on_c, 9, 42, 0
12, 9839, Note_on_c, 9, 35, 97
12, 9840, Note_on_c, 9, 35, 0
12, 9887, Note_on_c, 9, 45, 102
12, 9887, Note_on_c, 9, 64, 73
12, 9887, Note_on_c, 9, 43, 104
12, 9888, Note_on_c, 9, 43, 0
12, 9888, Note_on_c, 9, 64, 0
12, 9888, Note_on_c, 9, 45, 0
12, 9934, Note_on_c, 9, 42, 72
12, 9934, Note_on_c, 9, 64, 87
12, 9935, Note_on_c, 9, 64, 0
12, 9935, Note_on_c, 9, 42, 0
12, 9982, Note_on_c, 9, 42, 76
12, 9983, Note_on_c, 9, 42, 0
12, 9983, Note_on_c, 9, 35, 109
12, 9984, Note_on_c, 9, 35, 0
12, 10030, Note_on_c, 9, 42, 75
12, 10031, Note_on_c, 9, 42, 0
12, 10031, Note_on_c, 9, 63, 46
12, 10032, Note_on_c, 9, 63, 0
12, 10032, Note_on_c, 9, 35, 98
12, 10033, Note_on_c, 9, 35, 0
12, 10079, Note_on_c, 9, 62, 96
12, 10080, Note_on_c, 9, 62, 0
12, 10081, Note_on_c, 9, 43, 101
12, 10081, Note_on_c, 9, 45, 101
12, 10082, Note_on_c, 9, 45, 0
12, 10082, Note_on_c, 9, 43, 0
12, 10126, Note_on_c, 9, 42, 78
12, 10127, Note_on_c, 9, 42, 0
12, 10174, Note_on_c, 9, 42, 60
12, 10174, Note_on_c, 9, 35, 97
12, 10175, Note_on_c, 9, 35, 0
12, 10175, Note_on_c, 9, 42, 0
12, 10222, Note_on_c, 9, 42, 76
12, 10222, Note_on_c, 9, 63, 52
12, 10223, Note_on_c, 9, 63, 0
12, 10223, Note_on_c, 9, 42, 0
12, 10223, Note_on_c, 9, 35, 100
12, 10224, Note_on_c, 9, 35, 0
12, 10270, Note_on_c, 9, 64, 88
12, 10271, Note_on_c, 9, 64, 0
12, 10271, Note_on_c, 9, 43, 104
12, 10271, Note_on_c, 9, 45, 104
12, 10272, Note_on_c, 9, 45, 0
12, 10272, Note_on_c, 9, 43, 0
12, 10318, Note_on_c, 9, 64, 90
12, 10318, Note_on_c, 9, 42, 72
12, 10319, Note_on_c, 9, 42, 0
12, 10319, Note_on_c, 9, 64, 0
12, 10366, Note_on_c, 9, 42, 50
12, 10367, Note_on_c, 9, 42, 0
12, 10367, Note_on_c, 9, 35, 106
12, 10368, Note_on_c, 9, 35, 0
12, 10414, Note_on_c, 9, 42, 75
12, 10415, Note_on_c, 9, 42, 0
12, 10416, Note_on_c, 9, 35, 105
12, 10417, Note_on_c, 9, 35, 0
12, 10464, Note_on_c, 9, 62, 101
12, 10465, Note_on_c, 9, 62, 0
12, 10465, Note_on_c, 9, 43, 101
12, 10465, Note_on_c, 9, 45, 98
12, 10466, Note_on_c, 9, 45, 0
12, 10466, Note_on_c, 9, 43, 0
12, 10510, Note_on_c, 9, 42, 73
12, 10511, Note_on_c, 9, 42, 0
12, 10558, Note_on_c, 9, 42, 68
12, 10559, Note_on_c, 9, 42, 0
12, 10559, Note_on_c, 9, 35, 106
12, 10560, Note_on_c, 9, 35, 0
12, 10606, Note_on_c, 9, 63, 65
12, 10607, Note_on_c, 9, 63, 0
12, 10607, Note_on_c, 9, 42, 73
12, 10608, Note_on_c, 9, 42, 0
12, 10609, Note_on_c, 9, 35, 102
12, 10610, Note_on_c, 9, 35, 0
12, 10654, Note_on_c, 9, 43, 99
12, 10655, Note_on_c, 9, 43, 0
12, 10655, Note_on_c, 9, 64, 85
12, 10655, Note_on_c, 9, 45, 99
12, 10656, Note_on_c, 9, 45, 0
12, 10656, Note_on_c, 9, 64, 0
12, 10702, Note_on_c, 9, 42, 69
12, 10703, Note_on_c, 9, 42, 0
12, 10703, Note_on_c, 9, 64, 93
12, 10704, Note_on_c, 9, 64, 0
12, 10750, Note_on_c, 9, 42, 62
12, 10751, Note_on_c, 9, 42, 0
12, 10753, Note_on_c, 9, 35, 106
12, 10754, Note_on_c, 9, 35, 0
12, 10798, Note_on_c, 9, 42, 68
12, 10799, Note_on_c, 9, 42, 0
12, 10801, Note_on_c, 9, 35, 99
12, 10802, Note_on_c, 9, 35, 0
12, 10847, Note_on_c, 9, 43, 102
12, 10847, Note_on_c, 9, 45, 102
12, 10848, Note_on_c, 9, 45, 0
12, 10848, Note_on_c, 9, 43, 0
12, 10849, Note_on_c, 9, 62, 97
12, 10850, Note_on_c, 9, 62, 0
12, 10895, Note_on_c, 9, 42, 68
12, 10896, Note_on_c, 9, 42, 0
12, 10943, Note_on_c, 9, 35, 102
12, 10943, Note_on_c, 9, 42, 64
12, 10944, Note_on_c, 9, 42, 0
12, 10944, Note_on_c, 9, 35, 0
12, 10991, Note_on_c, 9, 63, 59
12, 10992, Note_on_c, 9, 63, 0
12, 10992, Note_on_c, 9, 35, 105
12, 10993, Note_on_c, 9, 35, 0
12, 10993, Note_on_c, 9, 42, 74
12, 10994, Note_on_c, 9, 42, 0
12, 11039, Note_on_c, 9, 45, 104
12, 11039, Note_on_c, 9, 64, 83
12, 11039, Note_on_c, 9, 43, 106
12, 11040, Note_on_c, 9, 43, 0
12, 11040, Note_on_c, 9, 64, 0
12, 11040, Note_on_c, 9, 45, 0
12, 11086, Note_on_c, 9, 42, 65
12, 11087, Note_on_c, 9, 42, 0
12, 11088, Note_on_c, 9, 64, 89
12, 11089, Note_on_c, 9, 64, 0
12, 11135, Note_on_c, 9, 42, 73
12, 11136, Note_on_c, 9, 42, 0
12, 11138, Note_on_c, 9, 35, 118
12, 11139, Note_on_c, 9, 35, 0
12, 11183, Note_on_c, 9, 63, 46
12, 11184, Note_on_c, 9, 63, 0
12, 11185, Note_on_c, 9, 45, 104
12, 11186, Note_on_c, 9, 45, 0
12, 11186, Note_on_c, 9, 38, 98
12, 11187, Note_on_c, 9, 38, 0
12, 11233, Note_on_c, 9, 62, 98
12, 11234, Note_on_c, 9, 62, 0
12, 11234, Note_on_c, 9, 38, 121
12, 11234, Note_on_c, 9, 45, 121
12, 11235, Note_on_c, 9, 45, 0
12, 11235, Note_on_c, 9, 38, 0
12, 11281, Note_on_c, 9, 38, 105
12, 11282, Note_on_c, 9, 38, 0
12, 11304, Note_on_c, 9, 38, 95
12, 11305, Note_on_c, 9, 38, 0
12, 11329, Note_on_c, 9, 38, 102
12, 11330, Note_on_c, 9, 38, 0
12, 11353, Note_on_c, 9, 38, 93
12, 11354, Note_on_c, 9, 38, 0
12, 11375, Note_on_c, 9, 63, 63
12, 11376, Note_on_c, 9, 63, 0
12, 11377, Note_on_c, 9, 38, 110
12, 11378, Note_on_c, 9, 38, 0
12, 11399, Note_on_c, 9, 38, 101
12, 11400, Note_on_c, 9, 38, 0
12, 11420, Note_on_c, 9, 38, 112
12, 11421, Note_on_c, 9, 38, 0
12, 11426, Note_on_c, 9, 38, 105
12, 11427, Note_on_c, 9, 38, 0
12, 11470, Note_on_c, 9, 64, 87
12, 11471, Note_on_c, 9, 64, 0
12, 11472, Note_on_c, 9, 38, 116
12, 11473, Note_on_c, 9, 38, 0
12, 11520, Note_on_c, 9, 49, 96
12, 11520, Note_on_c, 9, 35, 102
12, 11521, Note_on_c, 9, 35, 0
12, 11521, Note_on_c, 9, 49, 0
12, 11566, Note_on_c, 9, 35, 101
12, 11567, Note_on_c, 9, 35, 0
12, 11569, Note_on_c, 9, 42, 90
12, 11570, Note_on_c, 9, 42, 0
12, 11614, Note_on_c, 9, 43, 97
12, 11614, Note_on_c, 9, 45, 100
12, 11615, Note_on_c, 9, 45, 0
12, 11615, Note_on_c, 9, 43, 0
12, 11615, Note_on_c, 9, 62, 91
12, 11616, Note_on_c, 9, 62, 0
12, 11663, Note_on_c, 9, 42, 61
12, 11664, Note_on_c, 9, 42, 0
12, 11711, Note_on_c, 9, 35, 105
12, 11712, Note_on_c, 9, 35, 0
12, 11712, Note_on_c, 9, 42, 73
12, 11713, Note_on_c, 9, 42, 0
12, 11759, Note_on_c, 9, 35, 104
12, 11759, Note_on_c, 9, 63, 51
12, 11760, Note_on_c, 9, 63, 0
12, 11760, Note_on_c, 9, 35, 0
12, 11760, Note_on_c, 9, 42, 80
12, 11761, Note_on_c, 9, 42, 0
12, 11806, Note_on_c, 9, 45, 102
12, 11806, Note_on_c, 9, 43, 104
12, 11807, Note_on_c, 9, 43, 0
12, 11807, Note_on_c, 9, 45, 0
12, 11807, Note_on_c, 9, 64, 82
12, 11808, Note_on_c, 9, 64, 0
12, 11855, Note_on_c, 9, 42, 71
12, 11856, Note_on_c, 9, 42, 0
12, 11856, Note_on_c, 9, 64, 88
12, 11857, Note_on_c, 9, 64, 0
12, 11903, Note_on_c, 9, 42, 71
12, 11904, Note_on_c, 9, 42, 0
12, 11904, Note_on_c, 9, 35, 109
12, 11905, Note_on_c, 9, 35, 0
12, 11951, Note_on_c, 9, 35, 100
12, 11951, Note_on_c, 9, 42, 73
12, 11952, Note_on_c, 9, 42, 0
12, 11952, Note_on_c, 9, 35, 0
12, 11952, Note_on_c, 9, 63, 51
12, 11953, Note_on_c, 9, 63, 0
12, 11999, Note_on_c, 9, 43, 94
12, 11999, Note_on_c, 9, 45, 100
12, 11999, Note_on_c, 9, 62, 90
12, 12000, Note_on_c, 9, 62, 0
12, 12000, Note_on_c, 9, 45, 0
12, 12000, Note_on_c, 9, 43, 0
12, 12047, Note_on_c, 9, 42, 66
12, 12048, Note_on_c, 9, 42, 0
12, 12094, Note_on_c, 9, 42, 66
12, 12095, Note_on_c, 9, 42, 0
12, 12095, Note_on_c, 9, 35, 104
12, 12096, Note_on_c, 9, 35, 0
12, 12142, Note_on_c, 9, 42, 72
12, 12143, Note_on_c, 9, 42, 0
12, 12143, Note_on_c, 9, 63, 64
12, 12143, Note_on_c, 9, 35, 102
12, 12144, Note_on_c, 9, 35, 0
12, 12144, Note_on_c, 9, 63, 0
12, 12190, Note_on_c, 9, 64, 82
12, 12191, Note_on_c, 9, 64, 0
12, 12191, Note_on_c, 9, 43, 106
12, 12191, Note_on_c, 9, 45, 101
12, 12192, Note_on_c, 9, 45, 0
12, 12192, Note_on_c, 9, 43, 0
12, 12238, Note_on_c, 9, 42, 62
12, 12238, Note_on_c, 9, 64, 84
12, 12239, Note_on_c, 9, 64, 0
12, 12239, Note_on_c, 9, 42, 0
12, 12286, Note_on_c, 9, 42, 68
12, 12287, Note_on_c, 9, 42, 0
12, 12287, Note_on_c, 9, 35, 111
12, 12288, Note_on_c, 9, 35, 0
12, 12334, Note_on_c, 9, 42, 73
12, 12335, Note_on_c, 9, 42, 0
12, 12336, Note_on_c, 9, 35, 94
12, 12337, Note_on_c, 9, 35, 0
12, 12383, Note_on_c, 9, 43, 105
12, 12383, Note_on_c, 9, 62, 96
12, 12383, Note_on_c, 9, 45, 105
12, 12384, Note_on_c, 9, 45, 0
12, 12384, Note_on_c, 9, 62, 0
12, 12384, Note_on_c, 9, 43, 0
12, 12430, Note_on_c, 9, 42, 68
12, 12431, Note_on_c, 9, 42, 0
12, 12478, Note_on_c, 9, 42, 70
12, 12478, Note_on_c, 9, 35, 112
12, 12479, Note_on_c, 9, 35, 0
12, 12479, Note_on_c, 9, 42, 0
12, 12526, Note_on_c, 9, 63, 60
12, 12527, Note_on_c, 9, 63, 0
12, 12527, Note_on_c, 9, 35, 97
12, 12527, Note_on_c, 9, 42, 78
12, 12528, Note_on_c, 9, 42, 0
12, 12528, Note_on_c, 9, 35, 0
12, 12574, Note_on_c, 9, 64, 82
12, 12575, Note_on_c, 9, 64, 0
12, 12575, Note_on_c, 9, 43, 104
12, 12575, Note_on_c, 9, 45, 104
12, 12576, Note_on_c, 9, 45, 0
12, 12576, Note_on_c, 9, 43, 0
12, 12622, Note_on_c, 9, 42, 69
12, 12623, Note_on_c, 9, 42, 0
12, 12623, Note_on_c, 9, 64, 93
12, 12624, Note_on_c, 9, 64, 0
12, 12670, Note_on_c, 9, 42, 70
12, 12671, Note_on_c, 9, 42, 0
12, 12671, Note_on_c, 9, 35, 102
12, 12672, Note_on_c, 9, 35, 0
12, 12718, Note_on_c, 9, 42, 73
12, 12719, Note_on_c, 9, 42, 0
12, 12719, Note_on_c, 9, 35, 99
12, 12720, Note_on_c, 9, 35, 0
12, 12766, Note_on_c, 9, 62, 96
12, 12766, Note_on_c, 9, 43, 102
12, 12766, Note_on_c, 9, 45, 97
12, 12767, Note_on_c, 9, 45, 0
12, 12767, Note_on_c, 9, 43, 0
12, 12767, Note_on_c, 9, 62, 0
12, 12814, Note_on_c, 9, 42, 67
12, 12815, Note_on_c, 9, 42, 0
12, 12862, Note_on_c, 9, 35, 100
12, 12863, Note_on_c, 9, 35, 0
12, 12863, Note_on_c, 9, 42, 66
12, 12864, Note_on_c, 9, 42, 0
12, 12910, Note_on_c, 9, 42, 69
12, 12911, Note_on_c, 9, 42, 0
12, 12911, Note_on_c, 9, 64, 51
12, 12911, Note_on_c, 9, 35, 100
12, 12912, Note_on_c, 9, 35, 0
12, 12912, Note_on_c, 9, 64, 0
12, 12958, Note_on_c, 9, 43, 104
12, 12958, Note_on_c, 9, 45, 105
12, 12959, Note_on_c, 9, 45, 0
12, 12959, Note_on_c, 9, 43, 0
12, 12959, Note_on_c, 9, 64, 82
12, 12960, Note_on_c, 9, 64, 0
12, 13006, Note_on_c, 9, 42, 68
12, 13007, Note_on_c, 9, 42, 0
12, 13007, Note_on_c, 9, 64, 93
12, 13008, Note_on_c, 9, 64, 0
12, 13054, Note_on_c, 9, 42, 73
12, 13054, Note_on_c, 9, 35, 102
12, 13055, Note_on_c, 9, 35, 0
12, 13055, Note_on_c, 9, 42, 0
12, 13102, Note_on_c, 9, 42, 71
12, 13103, Note_on_c, 9, 42, 0
12, 13103, Note_on_c, 9, 35, 97
12, 13104, Note_on_c, 9, 35, 0
12, 13151, Note_on_c, 9, 43, 105
12, 13151, Note_on_c, 9, 45, 100
12, 13151, Note_on_c, 9, 62, 98
12, 13152, Note_on_c, 9, 62, 0
12, 13152, Note_on_c, 9, 45, 0
12, 13152, Note_on_c, 9, 43, 0
12, 13198, Note_on_c, 9, 42, 68
12, 13199, Note_on_c, 9, 42, 0
12, 13246, Note_on_c, 9, 42, 69
12, 13246, Note_on_c, 9, 35, 102
12, 13247, Note_on_c, 9, 35, 0
12, 13247, Note_on_c, 9, 42, 0
12, 13294, Note_on_c, 9, 42, 73
12, 13295, Note_on_c, 9, 42, 0
12, 13296, Note_on_c, 9, 35, 95
12, 13297, Note_on_c, 9, 35, 0
12, 13297, Note_on_c, 9, 64, 50
12, 13298, Note_on_c, 9, 64, 0
12, 13344, Note_on_c, 9, 43, 100
12, 13344, Note_on_c, 9, 45, 101
12, 13345, Note_on_c, 9, 45, 0
12, 13345, Note_on_c, 9, 43, 0
12, 13345, Note_on_c, 9, 64, 83
12, 13346, Note_on_c, 9, 64, 0
12, 13390, Note_on_c, 9, 42, 73
12, 13391, Note_on_c, 9, 42, 0
12, 13393, Note_on_c, 9, 64, 89
12, 13394, Note_on_c, 9, 64, 0
12, 13438, Note_on_c, 9, 42, 72
12, 13439, Note_on_c, 9, 42, 0
12, 13439, Note_on_c, 9, 35, 99
12, 13440, Note_on_c, 9, 35, 0
12, 13486, Note_on_c, 9, 42, 73
12, 13487, Note_on_c, 9, 42, 0
12, 13487, Note_on_c, 9, 35, 102
12, 13488, Note_on_c, 9, 35, 0
12, 13489, Note_on_c, 9, 63, 50
12, 13490, Note_on_c, 9, 63, 0
12, 13534, Note_on_c, 9, 43, 99
12, 13534, Note_on_c, 9, 45, 102
12, 13535, Note_on_c, 9, 45, 0
12, 13535, Note_on_c, 9, 43, 0
12, 13535, Note_on_c, 9, 62, 96
12, 13536, Note_on_c, 9, 62, 0
12, 13581, Note_on_c, 9, 42, 68
12, 13582, Note_on_c, 9, 42, 0
12, 13630, Note_on_c, 9, 42, 68
12, 13631, Note_on_c, 9, 42, 0
12, 13631, Note_on_c, 9, 35, 100
12, 13632, Note_on_c, 9, 35, 0
12, 13677, Note_on_c, 9, 63, 53
12, 13678, Note_on_c, 9, 63, 0
12, 13679, Note_on_c, 9, 35, 108
12, 13679, Note_on_c, 9, 42, 71
12, 13680, Note_on_c, 9, 42, 0
12, 13680, Note_on_c, 9, 35, 0
12, 13726, Note_on_c, 9, 64, 89
12, 13727, Note_on_c, 9, 64, 0
12, 13727, Note_on_c, 9, 43, 105
12, 13727, Note_on_c, 9, 45, 109
12, 13728, Note_on_c, 9, 45, 0
12, 13728, Note_on_c, 9, 43, 0
12, 13774, Note_on_c, 9, 42, 71
12, 13775, Note_on_c, 9, 42, 0
12, 13775, Note_on_c, 9, 64, 90
12, 13776, Note_on_c, 9, 64, 0
12, 13822, Note_on_c, 9, 42, 76
12, 13823, Note_on_c, 9, 42, 0
12, 13824, Note_on_c, 9, 35, 109
12, 13825, Note_on_c, 9, 35, 0
12, 13870, Note_on_c, 9, 42, 71
12, 13871, Note_on_c, 9, 42, 0
12, 13871, Note_on_c, 9, 35, 94
12, 13872, Note_on_c, 9, 35, 0
12, 13919, Note_on_c, 9, 62, 95
12, 13920, Note_on_c, 9, 62, 0
12, 13921, Note_on_c, 9, 43, 105
12, 13921, Note_on_c, 9, 45, 101
12, 13922, Note_on_c, 9, 45, 0
12, 13922, Note_on_c, 9, 43, 0
12, 13966, Note_on_c, 9, 42, 65
12, 13967, Note_on_c, 9, 42, 0
12, 14014, Note_on_c, 9, 42, 74
12, 14015, Note_on_c, 9, 42, 0
12, 14017, Note_on_c, 9, 35, 104
12, 14018, Note_on_c, 9, 35, 0
12, 14063, Note_on_c, 9, 42, 77
12, 14064, Note_on_c, 9, 42, 0
12, 14065, Note_on_c, 9, 35, 102
12, 14066, Note_on_c, 9, 35, 0
12, 14113, Note_on_c, 9, 43, 106
12, 14113, Note_on_c, 9, 64, 83
12, 14113, Note_on_c, 9, 45, 108
12, 14114, Note_on_c, 9, 45, 0
12, 14114, Note_on_c, 9, 64, 0
12, 14114, Note_on_c, 9, 43, 0
12, 14159, Note_on_c, 9, 42, 69
12, 14160, Note_on_c, 9, 42, 0
12, 14160, Note_on_c, 9, 64, 90
12, 14161, Note_on_c, 9, 64, 0
12, 14207, Note_on_c, 9, 42, 75
12, 14207, Note_on_c, 9, 35, 108
12, 14208, Note_on_c, 9, 35, 0
12, 14208, Note_on_c, 9, 42, 0
12, 14255, Note_on_c, 9, 38, 102
12, 14255, Note_on_c, 9, 42, 51
12, 14255, Note_on_c, 9, 45, 105
12, 14256, Note_on_c, 9, 45, 0
12, 14256, Note_on_c, 9, 42, 0
12, 14256, Note_on_c, 9, 38, 0
12, 14303, Note_on_c, 9, 45, 121
12, 14303, Note_on_c, 9, 38, 121
12, 14304, Note_on_c, 9, 38, 0
12, 14304, Note_on_c, 9, 45, 0
12, 14304, Note_on_c, 9, 62, 98
12, 14305, Note_on_c, 9, 62, 0
12, 14351, Note_on_c, 9, 38, 101
12, 14352, Note_on_c, 9, 38, 0
12, 14378, Note_on_c, 9, 38, 67
12, 14379, Note_on_c, 9, 38, 0
12, 14400, Note_on_c, 9, 38, 107
12, 14401, Note_on_c, 9, 38, 0
12, 14425, Note_on_c, 9, 38, 90
12, 14426, Note_on_c, 9, 38, 0
12, 14448, Note_on_c, 9, 64, 62
12, 14448, Note_on_c, 9, 38, 120
12, 14449, Note_on_c, 9, 38, 0
12, 14449, Note_on_c, 9, 64, 0
12, 14471, Note_on_c, 9, 38, 120
12, 14472, Note_on_c, 9, 38, 0
12, 14495, Note_on_c, 9, 45, 101
12, 14495, Note_on_c, 9, 64, 86
12, 14496, Note_on_c, 9, 64, 0
12, 14496, Note_on_c, 9, 45, 0
12, 14519, Note_on_c, 9, 45, 101
12, 14520, Note_on_c, 9, 45, 0
12, 14543, Note_on_c, 9, 64, 91
12, 14544, Note_on_c, 9, 64, 0
12, 14544, Note_on_c, 9, 38, 120
12, 14545, Note_on_c, 9, 38, 0
12, 14567, Note_on_c, 9, 38, 114
12, 14568, Note_on_c, 9, 38, 0
12, 14591, Note_on_c, 9, 35, 97
12, 14591, Note_on_c, 9, 49, 77
12, 14592, Note_on_c, 9, 49, 0
12, 14592, Note_on_c, 9, 35, 0
12, 14639, Note_on_c, 9, 42, 78
12, 14639, Note_on_c, 9, 35, 97
12, 14640, Note_on_c, 9, 35, 0
12, 14640, Note_on_c, 9, 42, 0
12, 14687, Note_on_c, 9, 45, 106
12, 14687, Note_on_c, 9, 62, 94
12, 14687, Note_on_c, 9, 43, 104
12, 14688, Note_on_c, 9, 43, 0
12, 14688, Note_on_c, 9, 62, 0
12, 14688, Note_on_c, 9, 45, 0
12, 14735, Note_on_c, 9, 42, 66
12, 14736, Note_on_c, 9, 42, 0
12, 14782, Note_on_c, 9, 42, 68
12, 14783, Note_on_c, 9, 42, 0
12, 14783, Note_on_c, 9, 35, 91
12, 14784, Note_on_c, 9, 35, 0
12, 14831, Note_on_c, 9, 42, 76
12, 14831, Note_on_c, 9, 35, 102
12, 14832, Note_on_c, 9, 35, 0
12, 14832, Note_on_c, 9, 42, 0
12, 14878, Note_on_c, 9, 64, 78
12, 14879, Note_on_c, 9, 64, 0
12, 14879, Note_on_c, 9, 45, 99
12, 14879, Note_on_c, 9, 43, 101
12, 14880, Note_on_c, 9, 43, 0
12, 14880, Note_on_c, 9, 45, 0
12, 14927, Note_on_c, 9, 42, 63
12, 14927, Note_on_c, 9, 64, 85
12, 14928, Note_on_c, 9, 64, 0
12, 14928, Note_on_c, 9, 42, 0
12, 14975, Note_on_c, 9, 42, 68
12, 14976, Note_on_c, 9, 42, 0
12, 14977, Note_on_c, 9, 35, 104
12, 14978, Note_on_c, 9, 35, 0
12, 15022, Note_on_c, 9, 63, 56
12, 15023, Note_on_c, 9, 63, 0
12, 15023, Note_on_c, 9, 42, 70
12, 15024, Note_on_c, 9, 42, 0
12, 15024, Note_on_c, 9, 35, 97
12, 15025, Note_on_c, 9, 35, 0
12, 15071, Note_on_c, 9, 62, 93
12, 15072, Note_on_c, 9, 62, 0
12, 15073, Note_on_c, 9, 43, 106
12, 15073, Note_on_c, 9, 45, 105
12, 15074, Note_on_c, 9, 45, 0
12, 15074, Note_on_c, 9, 43, 0
12, 15119, Note_on_c, 9, 42, 62
12, 15120, Note_on_c, 9, 42, 0
12, 15167, Note_on_c, 9, 35, 97
12, 15168, Note_on_c, 9, 35, 0
12, 15168, Note_on_c, 9, 42, 66
12, 15169, Note_on_c, 9, 42, 0
12, 15215, Note_on_c, 9, 42, 76
12, 15216, Note_on_c, 9, 42, 0
12, 15217, Note_on_c, 9, 35, 94
12, 15218, Note_on_c, 9, 35, 0
12, 15263, Note_on_c, 9, 64, 75
12, 15263, Note_on_c, 9, 45, 102
12, 15264, Note_on_c, 9, 45, 0
12, 15264, Note_on_c, 9, 64, 0
12, 15264, Note_on_c, 9, 43, 102
12, 15265, Note_on_c, 9, 43, 0
12, 15311, Note_on_c, 9, 42, 68
12, 15311, Note_on_c, 9, 64, 90
12, 15312, Note_on_c, 9, 64, 0
12, 15312, Note_on_c, 9, 42, 0
12, 15359, Note_on_c, 9, 42, 70
12, 15359, Note_on_c, 9, 35, 104
12, 15360, Note_on_c, 9, 35, 0
12, 15360, Note_on_c, 9, 42, 0
12, 15407, Note_on_c, 9, 35, 99
12, 15407, Note_on_c, 9, 42, 74
12, 15408, Note_on_c, 9, 42, 0
12, 15408, Note_on_c, 9, 35, 0
12, 15455, Note_on_c, 9, 43, 104
12, 15455, Note_on_c, 9, 45, 99
12, 15456, Note_on_c, 9, 45, 0
12, 15456, Note_on_c, 9, 43, 0
12, 15457, Note_on_c, 9, 62, 96
12, 15458, Note_on_c, 9, 62, 0
12, 15502, Note_on_c, 9, 42, 73
12, 15503, Note_on_c, 9, 42, 0
12, 15551, Note_on_c, 9, 35, 99
12, 15551, Note_on_c, 9, 42, 70
12, 15552, Note_on_c, 9, 42, 0
12, 15552, Note_on_c, 9, 35, 0
12, 15599, Note_on_c, 9, 42, 70
12, 15599, Note_on_c, 9, 35, 99
12, 15600, Note_on_c, 9, 35, 0
12, 15600, Note_on_c, 9, 42, 0
12, 15647, Note_on_c, 9, 43, 105
12, 15647, Note_on_c, 9, 45, 106
12, 15647, Note_on_c, 9, 64, 78
12, 15648, Note_on_c, 9, 64, 0
12, 15648, Note_on_c, 9, 45, 0
12, 15648, Note_on_c, 9, 43, 0
12, 15694, Note_on_c, 9, 42, 76
12, 15695, Note_on_c, 9, 42, 0
12, 15695, Note_on_c, 9, 64, 93
12, 15696, Note_on_c, 9, 64, 0
12, 15742, Note_on_c, 9, 42, 73
12, 15743, Note_on_c, 9, 42, 0
12, 15743, Note_on_c, 9, 35, 100
12, 15744, Note_on_c, 9, 35, 0
12, 15790, Note_on_c, 9, 42, 74
12, 15791, Note_on_c, 9, 42, 0
12, 15792, Note_on_c, 9, 35, 99
12, 15793, Note_on_c, 9, 35, 0
12, 15838, Note_on_c, 9, 43, 106
12, 15839, Note_on_c, 9, 43, 0
12, 15839, Note_on_c, 9, 45, 105
12, 15840, Note_on_c, 9, 45, 0
12, 15840, Note_on_c, 9, 62, 91
12, 15841, Note_on_c, 9, 62, 0
12, 15887, Note_on_c, 9, 42, 69
12, 15888, Note_on_c, 9, 42, 0
12, 15935, Note_on_c, 9, 42, 71
12, 15935, Note_on_c, 9, 35, 104
12, 15936, Note_on_c, 9, 35, 0
12, 15936, Note_on_c, 9, 42, 0
12, 15982, Note_on_c, 9, 63, 57
12, 15983, Note_on_c, 9, 63, 0
12, 15983, Note_on_c, 9, 42, 73
12, 15984, Note_on_c, 9, 42, 0
12, 15984, Note_on_c, 9, 35, 101
12, 15985, Note_on_c, 9, 35, 0
12, 16030, Note_on_c, 9, 64, 90
12, 16031, Note_on_c, 9, 64, 0
12, 16031, Note_on_c, 9, 43, 105
12, 16031, Note_on_c, 9, 45, 102
12, 16032, Note_on_c, 9, 45, 0
12, 16032, Note_on_c, 9, 43, 0
12, 16078, Note_on_c, 9, 42, 67
12, 16079, Note_on_c, 9, 42, 0
12, 16080, Note_on_c, 9, 64, 87
12, 16081, Note_on_c, 9, 64, 0
12, 16127, Note_on_c, 9, 42, 69
12, 16128, Note_on_c, 9, 42, 0
12, 16130, Note_on_c, 9, 35, 101
12, 16131, Note_on_c, 9, 35, 0
12, 16175, Note_on_c, 9, 42, 73
12, 16176, Note_on_c, 9, 42, 0
12, 16177, Note_on_c, 9, 63, 50
12, 16177, Note_on_c, 9, 35, 105
12, 16178, Note_on_c, 9, 35, 0
12, 16178, Note_on_c, 9, 63, 0
12, 16224, Note_on_c, 9, 43, 100
12, 16224, Note_on_c, 9, 45, 102
12, 16225, Note_on_c, 9, 45, 0
12, 16225, Note_on_c, 9, 43, 0
12, 16225, Note_on_c, 9, 62, 97
12, 16226, Note_on_c, 9, 62, 0
12, 16270, Note_on_c, 9, 42, 65
12, 16271, Note_on_c, 9, 42, 0
12, 16319, Note_on_c, 9, 42, 70
12, 16320, Note_on_c, 9, 42, 0
12, 16320, Note_on_c, 9, 35, 105
12, 16321, Note_on_c, 9, 35, 0
12, 16366, Note_on_c, 9, 42, 66
12, 16367, Note_on_c, 9, 42, 0
12, 16369, Note_on_c, 9, 35, 97
12, 16370, Note_on_c, 9, 35, 0
12, 16415, Note_on_c, 9, 45, 104
12, 16415, Note_on_c, 9, 43, 102
12, 16416, Note_on_c, 9, 43, 0
12, 16416, Note_on_c, 9, 45, 0
12, 16416, Note_on_c, 9, 64, 87
12, 16417, Note_on_c, 9, 64, 0
12, 16463, Note_on_c, 9, 42, 63
12, 16463, Note_on_c, 9, 64, 90
12, 16464, Note_on_c, 9, 64, 0
12, 16464, Note_on_c, 9, 42, 0
12, 16510, Note_on_c, 9, 42, 70
12, 16511, Note_on_c, 9, 42, 0
12, 16511, Note_on_c, 9, 35, 105
12, 16512, Note_on_c, 9, 35, 0
12, 16559, Note_on_c, 9, 63, 65
12, 16559, Note_on_c, 9, 35, 101
12, 16559, Note_on_c, 9, 42, 72
12, 16560, Note_on_c, 9, 42, 0
12, 16560, Note_on_c, 9, 35, 0
12, 16560, Note_on_c, 9, 63, 0
12, 16606, Note_on_c, 9, 45, 95
12, 16606, Note_on_c, 9, 43, 102
12, 16607, Note_on_c, 9, 43, 0
12, 16607, Note_on_c, 9, 45, 0
12, 16607, Note_on_c, 9, 62, 98
12, 16608, Note_on_c, 9, 62, 0
12, 16654, Note_on_c, 9, 42, 70
12, 16655, Note_on_c, 9, 42, 0
12, 16702, Note_on_c, 9, 42, 73
12, 16703, Note_on_c, 9, 42, 0
12, 16704, Note_on_c, 9, 35, 104
12, 16705, Note_on_c, 9, 35, 0
12, 16750, Note_on_c, 9, 42, 76
12, 16751, Note_on_c, 9, 42, 0
12, 16751, Note_on_c, 9, 35, 99
12, 16751, Note_on_c, 9, 63, 61
12, 16752, Note_on_c, 9, 63, 0
12, 16752, Note_on_c, 9, 35, 0
12, 16798, Note_on_c, 9, 64, 83
12, 16799, Note_on_c, 9, 64, 0
12, 16799, Note_on_c, 9, 43, 105
12, 16799, Note_on_c, 9, 45, 106
12, 16800, Note_on_c, 9, 45, 0
12, 16800, Note_on_c, 9, 43, 0
12, 16846, Note_on_c, 9, 42, 73
12, 16847, Note_on_c, 9, 42, 0
12, 16847, Note_on_c, 9, 64, 88
12, 16848, Note_on_c, 9, 64, 0
12, 16895, Note_on_c, 9, 42, 73
12, 16895, Note_on_c, 9, 35, 100
12, 16896, Note_on_c, 9, 35, 0
12, 16896, Note_on_c, 9, 42, 0
12, 16942, Note_on_c, 9, 42, 74
12, 16943, Note_on_c, 9, 42, 0
12, 16943, Note_on_c, 9, 35, 100
12, 16943, Note_on_c, 9, 63, 63
12, 16944, Note_on_c, 9, 63, 0
12, 16944, Note_on_c, 9, 35, 0
12, 16991, Note_on_c, 9, 43, 102
12, 16991, Note_on_c, 9, 45, 102
12, 16992, Note_on_c, 9, 45, 0
12, 16992, Note_on_c, 9, 43, 0
12, 16992, Note_on_c, 9, 62, 95
12, 16993, Note_on_c, 9, 62, 0
12, 17038, Note_on_c, 9, 42, 63
12, 17039, Note_on_c, 9, 42, 0
12, 17086, Note_on_c, 9, 35, 101
12, 17087, Note_on_c, 9, 35, 0
12, 17087, Note_on_c, 9, 42, 68
12, 17088, Note_on_c, 9, 42, 0
12, 17134, Note_on_c, 9, 42, 72
12, 17135, Note_on_c, 9, 42, 0
12, 17135, Note_on_c, 9, 63, 58
12, 17136, Note_on_c, 9, 63, 0
12, 17137, Note_on_c, 9, 35, 104
12, 17138, Note_on_c, 9, 35, 0
12, 17183, Note_on_c, 9, 45, 102
12, 17183, Note_on_c, 9, 64, 90
12, 17183, Note_on_c, 9, 43, 99
12, 17184, Note_on_c, 9, 43, 0
12, 17184, Note_on_c, 9, 64, 0
12, 17184, Note_on_c, 9, 45, 0
12, 17231, Note_on_c, 9, 64, 91
12, 17231, Note_on_c, 9, 42, 70
12, 17232, Note_on_c, 9, 42, 0
12, 17232, Note_on_c, 9, 64, 0
12, 17278, Note_on_c, 9, 42, 65
12, 17279, Note_on_c, 9, 42, 0
12, 17279, Note_on_c, 9, 35, 105
12, 17280, Note_on_c, 9, 35, 0
12, 17327, Note_on_c, 9, 35, 112
12, 17327, Note_on_c, 9, 63, 65
12, 17327, Note_on_c, 9, 42, 60
12, 17328, Note_on_c, 9, 42, 0
12, 17328, Note_on_c, 9, 63, 0
12, 17328, Note_on_c, 9, 35, 0
12, 17374, Note_on_c, 9, 42, 67
12, 17375, Note_on_c, 9, 42, 0
12, 17375, Note_on_c, 9, 45, 112
12, 17375, Note_on_c, 9, 38, 114
12, 17375, Note_on_c, 9, 62, 95
12, 17376, Note_on_c, 9, 62, 0
12, 17376, Note_on_c, 9, 38, 0
12, 17376, Note_on_c, 9, 45, 0
12, 17421, Note_on_c, 9, 38, 89
12, 17422, Note_on_c, 9, 38, 0
12, 17446, Note_on_c, 9, 38, 81
12, 17447, Note_on_c, 9, 38, 0
12, 17470, Note_on_c, 9, 38, 104
12, 17471, Note_on_c, 9, 38, 0
12, 17494, Note_on_c, 9, 38, 86
12, 17495, Note_on_c, 9, 38, 0
12, 17518, Note_on_c, 9, 38, 108
12, 17519, Note_on_c, 9, 38, 0
12, 17542, Note_on_c, 9, 38, 104
12, 17543, Note_on_c, 9, 38, 0
12, 17566, Note_on_c, 9, 38, 121
12, 17566, Note_on_c, 9, 64, 80
12, 17567, Note_on_c, 9, 64, 0
12, 17567, Note_on_c, 9, 38, 0
12, 17613, Note_on_c, 9, 64, 90
12, 17614, Note_on_c, 9, 64, 0
12, 17615, Note_on_c, 9, 38, 121
12, 17616, Note_on_c, 9, 38, 0
12, 17662, Note_on_c, 9, 49, 87
12, 17663, Note_on_c, 9, 49, 0
12, 17663, Note_on_c, 9, 35, 99
12, 17664, Note_on_c, 9, 35, 0
12, 17710, Note_on_c, 9, 42, 73
12, 17710, Note_on_c, 9, 63, 66
12, 17711, Note_on_c, 9, 63, 0
12, 17711, Note_on_c, 9, 42, 0
12, 17711, Note_on_c, 9, 35, 97
12, 17712, Note_on_c, 9, 35, 0
12, 17758, Note_on_c, 9, 62, 91
12, 17759, Note_on_c, 9, 62, 0
12, 17759, Note_on_c, 9, 43, 102
12, 17759, Note_on_c, 9, 45, 101
12, 17760, Note_on_c, 9, 45, 0
12, 17760, Note_on_c, 9, 43, 0
12, 17807, Note_on_c, 9, 42, 69
12, 17808, Note_on_c, 9, 42, 0
12, 17831, Note_on_c, 9, 42, 43
12, 17832, Note_on_c, 9, 42, 0
12, 17854, Note_on_c, 9, 35, 99
12, 17855, Note_on_c, 9, 35, 0
12, 17856, Note_on_c, 9, 42, 76
12, 17857, Note_on_c, 9, 42, 0
12, 17902, Note_on_c, 9, 35, 99
12, 17903, Note_on_c, 9, 35, 0
12, 17903, Note_on_c, 9, 42, 70
12, 17904, Note_on_c, 9, 42, 0
12, 17949, Note_on_c, 9, 43, 104
12, 17949, Note_on_c, 9, 45, 106
12, 17949, Note_on_c, 9, 64, 74
12, 17950, Note_on_c, 9, 64, 0
12, 17950, Note_on_c, 9, 45, 0
12, 17950, Note_on_c, 9, 43, 0
12, 17997, Note_on_c, 9, 64, 87
12, 17998, Note_on_c, 9, 64, 0
12, 17999, Note_on_c, 9, 42, 72
12, 18000, Note_on_c, 9, 42, 0
12, 18022, Note_on_c, 9, 42, 42
12, 18023, Note_on_c, 9, 42, 0
12, 18046, Note_on_c, 9, 42, 66
12, 18047, Note_on_c, 9, 42, 0
12, 18047, Note_on_c, 9, 35, 102
12, 18048, Note_on_c, 9, 35, 0
12, 18093, Note_on_c, 9, 63, 65
12, 18094, Note_on_c, 9, 63, 0
12, 18095, Note_on_c, 9, 35, 98
12, 18095, Note_on_c, 9, 42, 77
12, 18096, Note_on_c, 9, 42, 0
12, 18096, Note_on_c, 9, 35, 0
12, 18142, Note_on_c, 9, 62, 91
12, 18142, Note_on_c, 9, 45, 102
12, 18142, Note_on_c, 9, 43, 99
12, 18143, Note_on_c, 9, 43, 0
12, 18143, Note_on_c, 9, 45, 0
12, 18143, Note_on_c, 9, 62, 0
12, 18190, Note_on_c, 9, 42, 69
12, 18191, Note_on_c, 9, 42, 0
12, 18214, Note_on_c, 9, 42, 42
12, 18215, Note_on_c, 9, 42, 0
12, 18238, Note_on_c, 9, 35, 100
12, 18239, Note_on_c, 9, 35, 0
12, 18239, Note_on_c, 9, 42, 72
12, 18240, Note_on_c, 9, 42, 0
12, 18287, Note_on_c, 9, 42, 79
12, 18288, Note_on_c, 9, 42, 0
12, 18289, Note_on_c, 9, 35, 100
12, 18290, Note_on_c, 9, 35, 0
12, 18334, Note_on_c, 9, 64, 84
12, 18335, Note_on_c, 9, 64, 0
12, 18336, Note_on_c, 9, 45, 100
12, 18336, Note_on_c, 9, 43, 98
12, 18337, Note_on_c, 9, 43, 0
12, 18337, Note_on_c, 9, 45, 0
12, 18383, Note_on_c, 9, 64, 91
12, 18384, Note_on_c, 9, 64, 0
12, 18384, Note_on_c, 9, 42, 70
12, 18385, Note_on_c, 9, 42, 0
12, 18407, Note_on_c, 9, 42, 36
12, 18408, Note_on_c, 9, 42, 0
12, 18432, Note_on_c, 9, 42, 72
12, 18432, Note_on_c, 9, 35, 101
12, 18433, Note_on_c, 9, 35, 0
12, 18433, Note_on_c, 9, 42, 0
12, 18480, Note_on_c, 9, 42, 79
12, 18480, Note_on_c, 9, 35, 105
12, 18481, Note_on_c, 9, 35, 0
12, 18481, Note_on_c, 9, 42, 0
12, 18527, Note_on_c, 9, 43, 104
12, 18527, Note_on_c, 9, 62, 90
12, 18527, Note_on_c, 9, 45, 100
12, 18528, Note_on_c, 9, 45, 0
12, 18528, Note_on_c, 9, 62, 0
12, 18528, Note_on_c, 9, 43, 0
12, 18575, Note_on_c, 9, 42, 70
12, 18576, Note_on_c, 9, 42, 0
12, 18599, Note_on_c, 9, 42, 37
12, 18600, Note_on_c, 9, 42, 0
12, 18621, Note_on_c, 9, 35, 98
12, 18622, Note_on_c, 9, 35, 0
12, 18623, Note_on_c, 9, 42, 70
12, 18624, Note_on_c, 9, 42, 0
12, 18671, Note_on_c, 9, 35, 102
12, 18671, Note_on_c, 9, 42, 79
12, 18672, Note_on_c, 9, 42, 0
12, 18672, Note_on_c, 9, 35, 0
12, 18718, Note_on_c, 9, 62, 71
12, 18719, Note_on_c, 9, 62, 0
12, 18719, Note_on_c, 9, 43, 102
12, 18719, Note_on_c, 9, 45, 99
12, 18720, Note_on_c, 9, 45, 0
12, 18720, Note_on_c, 9, 43, 0
12, 18767, Note_on_c, 9, 62, 83
12, 18767, Note_on_c, 9, 42, 70
12, 18768, Note_on_c, 9, 42, 0
12, 18768, Note_on_c, 9, 62, 0
12, 18791, Note_on_c, 9, 42, 38
12, 18792, Note_on_c, 9, 42, 0
12, 18814, Note_on_c, 9, 42, 46
12, 18815, Note_on_c, 9, 42, 0
12, 18816, Note_on_c, 9, 35, 106
12, 18817, Note_on_c, 9, 35, 0
12, 18863, Note_on_c, 9, 35, 98
12, 18864, Note_on_c, 9, 35, 0
12, 18864, Note_on_c, 9, 42, 75
12, 18865, Note_on_c, 9, 42, 0
12, 18910, Note_on_c, 9, 43, 100
12, 18910, Note_on_c, 9, 45, 102
12, 18911, Note_on_c, 9, 45, 0
12, 18911, Note_on_c, 9, 43, 0
12, 18911, Note_on_c, 9, 62, 97
12, 18912, Note_on_c, 9, 62, 0
12, 18959, Note_on_c, 9, 42, 62
12, 18960, Note_on_c, 9, 42, 0
12, 18982, Note_on_c, 9, 42, 38
12, 18983, Note_on_c, 9, 42, 0
12, 19005, Note_on_c, 9, 42, 66
12, 19006, Note_on_c, 9, 42, 0
12, 19006, Note_on_c, 9, 35, 102
12, 19007, Note_on_c, 9, 35, 0
12, 19054, Note_on_c, 9, 45, 101
12, 19054, Note_on_c, 9, 43, 102
12, 19055, Note_on_c, 9, 43, 0
12, 19055, Note_on_c, 9, 45, 0
12, 19103, Note_on_c, 9, 43, 111
12, 19103, Note_on_c, 9, 64, 83
12, 19103, Note_on_c, 9, 45, 114
12, 19104, Note_on_c, 9, 45, 0
12, 19104, Note_on_c, 9, 64, 0
12, 19104, Note_on_c, 9, 43, 0
12, 19151, Note_on_c, 9, 64, 89
12, 19151, Note_on_c, 9, 42, 73
12, 19152, Note_on_c, 9, 42, 0
12, 19152, Note_on_c, 9, 64, 0
12, 19199, Note_on_c, 9, 42, 74
12, 19200, Note_on_c, 9, 42, 0
12, 19202, Note_on_c, 9, 35, 112
12, 19203, Note_on_c, 9, 35, 0
12, 19248, Note_on_c, 9, 42, 79
12, 19248, Note_on_c, 9, 63, 66
12, 19249, Note_on_c, 9, 63, 0
12, 19249, Note_on_c, 9, 42, 0
12, 19249, Note_on_c, 9, 35, 97
12, 19250, Note_on_c, 9, 35, 0
12, 19296, Note_on_c, 9, 62, 104
12, 19297, Note_on_c, 9, 62, 0
12, 19297, Note_on_c, 9, 43, 97
12, 19297, Note_on_c, 9, 45, 97
12, 19298, Note_on_c, 9, 45, 0
12, 19298, Note_on_c, 9, 43, 0
12, 19343, Note_on_c, 9, 42, 70
12, 19344, Note_on_c, 9, 42, 0
12, 19368, Note_on_c, 9, 42, 37
12, 19369, Note_on_c, 9, 42, 0
12, 19392, Note_on_c, 9, 42, 64
12, 19393, Note_on_c, 9, 42, 0
12, 19393, Note_on_c, 9, 35, 98
12, 19394, Note_on_c, 9, 35, 0
12, 19439, Note_on_c, 9, 35, 98
12, 19439, Note_on_c, 9, 42, 77
12, 19440, Note_on_c, 9, 42, 0
12, 19440, Note_on_c, 9, 35, 0
12, 19486, Note_on_c, 9, 64, 83
12, 19487, Note_on_c, 9, 64, 0
12, 19487, Note_on_c, 9, 45, 101
12, 19487, Note_on_c, 9, 43, 106
12, 19488, Note_on_c, 9, 43, 0
12, 19488, Note_on_c, 9, 45, 0
12, 19534, Note_on_c, 9, 64, 91
12, 19535, Note_on_c, 9, 64, 0
12, 19535, Note_on_c, 9, 42, 68
12, 19536, Note_on_c, 9, 42, 0
12, 19559, Note_on_c, 9, 42, 36
12, 19560, Note_on_c, 9, 42, 0
12, 19582, Note_on_c, 9, 35, 94
12, 19583, Note_on_c, 9, 35, 0
12, 19583, Note_on_c, 9, 42, 78
12, 19584, Note_on_c, 9, 42, 0
12, 19630, Note_on_c, 9, 35, 101
12, 19631, Note_on_c, 9, 35, 0
12, 19631, Note_on_c, 9, 63, 43
12, 19632, Note_on_c, 9, 63, 0
12, 19632, Note_on_c, 9, 42, 79
12, 19633, Note_on_c, 9, 42, 0
12, 19678, Note_on_c, 9, 45, 105
12, 19679, Note_on_c, 9, 45, 0
12, 19679, Note_on_c, 9, 43, 104
12, 19679, Note_on_c, 9, 62, 90
12, 19680, Note_on_c, 9, 62, 0
12, 19680, Note_on_c, 9, 43, 0
12, 19725, Note_on_c, 9, 42, 63
12, 19726, Note_on_c, 9, 42, 0
12, 19774, Note_on_c, 9, 35, 105
12, 19775, Note_on_c, 9, 35, 0
12, 19823, Note_on_c, 9, 45, 97
12, 19823, Note_on_c, 9, 38, 95
12, 19824, Note_on_c, 9, 38, 0
12, 19824, Note_on_c, 9, 45, 0
12, 19870, Note_on_c, 9, 64, 83
12, 19871, Note_on_c, 9, 64, 0
12, 19871, Note_on_c, 9, 38, 116
12, 19872, Note_on_c, 9, 38, 0
12, 19872, Note_on_c, 9, 45, 120
12, 19873, Note_on_c, 9, 45, 0
12, 19918, Note_on_c, 9, 64, 91
12, 19919, Note_on_c, 9, 64, 0
12, 19920, Note_on_c, 9, 42, 72
12, 19921, Note_on_c, 9, 42, 0
12, 19967, Note_on_c, 9, 42, 62
12, 19968, Note_on_c, 9, 42, 0
12, 19968, Note_on_c, 9, 35, 100
12, 19969, Note_on_c, 9, 35, 0
12, 20014, Note_on_c, 9, 42, 72
12, 20015, Note_on_c, 9, 42, 0
12, 20015, Note_on_c, 9, 63, 54
12, 20016, Note_on_c, 9, 63, 0
12, 20017, Note_on_c, 9, 35, 95
12, 20018, Note_on_c, 9, 35, 0
12, 20063, Note_on_c, 9, 62, 94
12, 20064, Note_on_c, 9, 62, 0
12, 20065, Note_on_c, 9, 45, 105
12, 20065, Note_on_c, 9, 43, 106
12, 20066, Note_on_c, 9, 43, 0
12, 20066, Note_on_c, 9, 45, 0
12, 20111, Note_on_c, 9, 42, 65
12, 20112, Note_on_c, 9, 42, 0
12, 20135, Note_on_c, 9, 42, 37
12, 20136, Note_on_c, 9, 42, 0
12, 20159, Note_on_c, 9, 35, 98
12, 20159, Note_on_c, 9, 42, 60
12, 20160, Note_on_c, 9, 42, 0
12, 20160, Note_on_c, 9, 35, 0
12, 20205, Note_on_c, 9, 63, 64
12, 20206, Note_on_c, 9, 63, 0
12, 20206, Note_on_c, 9, 42, 75
12, 20207, Note_on_c, 9, 42, 0
12, 20207, Note_on_c, 9, 35, 101
12, 20208, Note_on_c, 9, 35, 0
12, 20254, Note_on_c, 9, 64, 89
12, 20255, Note_on_c, 9, 64, 0
12, 20255, Note_on_c, 9, 45, 105
12, 20255, Note_on_c, 9, 43, 105
12, 20256, Note_on_c, 9, 43, 0
12, 20256, Note_on_c, 9, 45, 0
12, 20303, Note_on_c, 9, 42, 62
12, 20303, Note_on_c, 9, 64, 90
12, 20304, Note_on_c, 9, 64, 0
12, 20304, Note_on_c, 9, 42, 0
12, 20327, Note_on_c, 9, 42, 38
12, 20328, Note_on_c, 9, 42, 0
12, 20350, Note_on_c, 9, 35, 94
12, 20351, Note_on_c, 9, 35, 0
12, 20351, Note_on_c, 9, 42, 72
12, 20352, Note_on_c, 9, 42, 0
12, 20398, Note_on_c, 9, 35, 106
12, 20399, Note_on_c, 9, 35, 0
12, 20399, Note_on_c, 9, 42, 78
12, 20400, Note_on_c, 9, 42, 0
12, 20447, Note_on_c, 9, 45, 111
12, 20447, Note_on_c, 9, 38, 108
12, 20447, Note_on_c, 9, 62, 94
12, 20448, Note_on_c, 9, 62, 0
12, 20448, Note_on_c, 9, 38, 0
12, 20448, Note_on_c, 9, 45, 0
12, 20495, Note_on_c, 9, 38, 102
12, 20496, Note_on_c, 9, 38, 0
12, 20518, Note_on_c, 9, 38, 90
12, 20519, Note_on_c, 9, 38, 0
12, 20542, Note_on_c, 9, 38, 104
12, 20543, Note_on_c, 9, 38, 0
12, 20569, Note_on_c, 9, 38, 77
12, 20570, Note_on_c, 9, 38, 0
12, 20591, Note_on_c, 9, 38, 90
12, 20592, Note_on_c, 9, 38, 0
12, 20615, Note_on_c, 9, 38, 90
12, 20616, Note_on_c, 9, 38, 0
12, 20638, Note_on_c, 9, 64, 82
12, 20639, Note_on_c, 9, 64, 0
12, 20639, Note_on_c, 9, 38, 116
12, 20640, Note_on_c, 9, 38, 0
12, 20662, Note_on_c, 9, 45, 96
12, 20663, Note_on_c, 9, 45, 0
12, 20686, Note_on_c, 9, 43, 76
12, 20687, Note_on_c, 9, 43, 0
12, 20687, Note_on_c, 9, 64, 85
12, 20688, Note_on_c, 9, 64, 0
12, 20712, Note_on_c, 9, 38, 112
12, 20713, Note_on_c, 9, 38, 0
12, 20733, Note_on_c, 9, 49, 86
12, 20734, Note_on_c, 9, 49, 0
12, 20735, Note_on_c, 9, 35, 101
12, 20736, Note_on_c, 9, 35, 0
12, 20782, Note_on_c, 9, 42, 74
12, 20783, Note_on_c, 9, 42, 0
12, 20783, Note_on_c, 9, 35, 97
12, 20784, Note_on_c, 9, 35, 0
12, 20830, Note_on_c, 9, 43, 105
12, 20830, Note_on_c, 9, 45, 105
12, 20831, Note_on_c, 9, 45, 0
12, 20831, Note_on_c, 9, 43, 0
12, 20832, Note_on_c, 9, 62, 91
12, 20833, Note_on_c, 9, 62, 0
12, 20879, Note_on_c, 9, 42, 75
12, 20880, Note_on_c, 9, 42, 0
12, 20902, Note_on_c, 9, 42, 37
12, 20903, Note_on_c, 9, 42, 0
12, 20926, Note_on_c, 9, 42, 78
12, 20927, Note_on_c, 9, 42, 0
12, 20927, Note_on_c, 9, 35, 105
12, 20928, Note_on_c, 9, 35, 0
12, 20973, Note_on_c, 9, 45, 94
12, 20974, Note_on_c, 9, 45, 0
12, 20974, Note_on_c, 9, 63, 59
12, 20974, Note_on_c, 9, 38, 89
12, 20974, Note_on_c, 9, 42, 75
12, 20975, Note_on_c, 9, 42, 0
12, 20975, Note_on_c, 9, 38, 0
12, 20975, Note_on_c, 9, 63, 0
12, 21022, Note_on_c, 9, 38, 105
12, 21022, Note_on_c, 9, 45, 105
12, 21022, Note_on_c, 9, 64, 83
12, 21023, Note_on_c, 9, 64, 0
12, 21023, Note_on_c, 9, 45, 0
12, 21023, Note_on_c, 9, 38, 0
12, 21070, Note_on_c, 9, 42, 72
12, 21071, Note_on_c, 9, 42, 0
12, 21071, Note_on_c, 9, 64, 91
12, 21072, Note_on_c, 9, 64, 0
12, 21095, Note_on_c, 9, 42, 37
12, 21096, Note_on_c, 9, 42, 0
12, 21119, Note_on_c, 9, 42, 73
12, 21120, Note_on_c, 9, 42, 0
12, 21120, Note_on_c, 9, 35, 105
12, 21121, Note_on_c, 9, 35, 0
12, 21166, Note_on_c, 9, 42, 77
12, 21167, Note_on_c, 9, 42, 0
12, 21167, Note_on_c, 9, 35, 94
12, 21168, Note_on_c, 9, 35, 0
12, 21169, Note_on_c, 9, 63, 39
12, 21170, Note_on_c, 9, 63, 0
12, 21215, Note_on_c, 9, 45, 100
12, 21215, Note_on_c, 9, 62, 96
12, 21215, Note_on_c, 9, 43, 105
12, 21216, Note_on_c, 9, 43, 0
12, 21216, Note_on_c, 9, 62, 0
12, 21216, Note_on_c, 9, 45, 0
12, 21263, Note_on_c, 9, 42, 66
12, 21264, Note_on_c, 9, 42, 0
12, 21287, Note_on_c, 9, 42, 38
12, 21288, Note_on_c, 9, 42, 0
12, 21311, Note_on_c, 9, 42, 72
12, 21311, Note_on_c, 9, 35, 84
12, 21312, Note_on_c, 9, 35, 0
12, 21312, Note_on_c, 9, 42, 0
12, 21358, Note_on_c, 9, 63, 49
12, 21358, Note_on_c, 9, 42, 74
12, 21359, Note_on_c, 9, 42, 0
12, 21359, Note_on_c, 9, 63, 0
12, 21359, Note_on_c, 9, 35, 86
12, 21360, Note_on_c, 9, 35, 0
12, 21406, Note_on_c, 9, 64, 88
12, 21407, Note_on_c, 9, 64, 0
12, 21407, Note_on_c, 9, 43, 100
12, 21407, Note_on_c, 9, 45, 104
12, 21408, Note_on_c, 9, 45, 0
12, 21408, Note_on_c, 9, 43, 0
12, 21454, Note_on_c, 9, 64, 90
12, 21455, Note_on_c, 9, 64, 0
12, 21455, Note_on_c, 9, 42, 69
12, 21456, Note_on_c, 9, 42, 0
12, 21479, Note_on_c, 9, 42, 37
12, 21480, Note_on_c, 9, 42, 0
12, 21502, Note_on_c, 9, 42, 71
12, 21503, Note_on_c, 9, 42, 0
12, 21503, Note_on_c, 9, 35, 88
12, 21504, Note_on_c, 9, 35, 0
12, 21550, Note_on_c, 9, 42, 77
12, 21550, Note_on_c, 9, 63, 66
12, 21551, Note_on_c, 9, 63, 0
12, 21551, Note_on_c, 9, 42, 0
12, 21553, Note_on_c, 9, 35, 95
12, 21554, Note_on_c, 9, 35, 0
12, 21599, Note_on_c, 9, 62, 101
12, 21600, Note_on_c, 9, 62, 0
12, 21601, Note_on_c, 9, 43, 104
12, 21601, Note_on_c, 9, 45, 99
12, 21602, Note_on_c, 9, 45, 0
12, 21602, Note_on_c, 9, 43, 0
12, 21647, Note_on_c, 9, 42, 75
12, 21648, Note_on_c, 9, 42, 0
12, 21671, Note_on_c, 9, 42, 35
12, 21672, Note_on_c, 9, 42, 0
12, 21694, Note_on_c, 9, 42, 63
12, 21695, Note_on_c, 9, 42, 0
12, 21695, Note_on_c, 9, 35, 89
12, 21696, Note_on_c, 9, 35, 0
12, 21742, Note_on_c, 9, 42, 75
12, 21742, Note_on_c, 9, 63, 47
12, 21743, Note_on_c, 9, 63, 0
12, 21743, Note_on_c, 9, 42, 0
12, 21744, Note_on_c, 9, 35, 94
12, 21745, Note_on_c, 9, 35, 0
12, 21790, Note_on_c, 9, 64, 80
12, 21791, Note_on_c, 9, 64, 0
12, 21791, Note_on_c, 9, 45, 101
12, 21791, Note_on_c, 9, 43, 99
12, 21792, Note_on_c, 9, 43, 0
12, 21792, Note_on_c, 9, 45, 0
12, 21839, Note_on_c, 9, 42, 73
12, 21839, Note_on_c, 9, 64, 91
12, 21840, Note_on_c, 9, 64, 0
12, 21840, Note_on_c, 9, 42, 0
12, 21862, Note_on_c, 9, 42, 38
12, 21863, Note_on_c, 9, 42, 0
12, 21886, Note_on_c, 9, 42, 66
12, 21887, Note_on_c, 9, 42, 0
12, 21887, Note_on_c, 9, 35, 92
12, 21888, Note_on_c, 9, 35, 0
12, 21934, Note_on_c, 9, 35, 97
12, 21934, Note_on_c, 9, 42, 76
12, 21935, Note_on_c, 9, 42, 0
12, 21935, Note_on_c, 9, 35, 0
12, 21936, Note_on_c, 9, 63, 54
12, 21937, Note_on_c, 9, 63, 0
12, 21982, Note_on_c, 9, 62, 95
12, 21982, Note_on_c, 9, 45, 100
12, 21982, Note_on_c, 9, 43, 97
12, 21983, Note_on_c, 9, 43, 0
12, 21983, Note_on_c, 9, 45, 0
12, 21983, Note_on_c, 9, 62, 0
12, 22031, Note_on_c, 9, 42, 70
12, 22032, Note_on_c, 9, 42, 0
12, 22054, Note_on_c, 9, 42, 37
12, 22055, Note_on_c, 9, 42, 0
12, 22077, Note_on_c, 9, 42, 59
12, 22078, Note_on_c, 9, 42, 0
12, 22078, Note_on_c, 9, 35, 91
12, 22079, Note_on_c, 9, 35, 0
12, 22126, Note_on_c, 9, 42, 75
12, 22126, Note_on_c, 9, 63, 55
12, 22127, Note_on_c, 9, 63, 0
12, 22127, Note_on_c, 9, 42, 0
12, 22127, Note_on_c, 9, 35, 98
12, 22128, Note_on_c, 9, 35, 0
12, 22174, Note_on_c, 9, 43, 104
12, 22174, Note_on_c, 9, 45, 104
12, 22174, Note_on_c, 9, 64, 83
12, 22175, Note_on_c, 9, 64, 0
12, 22175, Note_on_c, 9, 45, 0
12, 22175, Note_on_c, 9, 43, 0
12, 22222, Note_on_c, 9, 42, 68
12, 22222, Note_on_c, 9, 64, 88
12, 22223, Note_on_c, 9, 64, 0
12, 22223, Note_on_c, 9, 42, 0
12, 22246, Note_on_c, 9, 42, 38
12, 22247, Note_on_c, 9, 42, 0
12, 22269, Note_on_c, 9, 42, 58
12, 22270, Note_on_c, 9, 42, 0
12, 22271, Note_on_c, 9, 35, 99
12, 22272, Note_on_c, 9, 35, 0
12, 22318, Note_on_c, 9, 42, 73
12, 22319, Note_on_c, 9, 42, 0
12, 22319, Note_on_c, 9, 63, 59
12, 22319, Note_on_c, 9, 35, 100
12, 22320, Note_on_c, 9, 35, 0
12, 22320, Note_on_c, 9, 63, 0
12, 22367, Note_on_c, 9, 43, 104
12, 22367, Note_on_c, 9, 45, 101
12, 22367, Note_on_c, 9, 62, 90
12, 22368, Note_on_c, 9, 62, 0
12, 22368, Note_on_c, 9, 45, 0
12, 22368, Note_on_c, 9, 43, 0
12, 22417, Note_on_c, 9, 42, 68
12, 22418, Note_on_c, 9, 42, 0
12, 22439, Note_on_c, 9, 42, 37
12, 22440, Note_on_c, 9, 42, 0
12, 22463, Note_on_c, 9, 42, 62
12, 22463, Note_on_c, 9, 35, 94
12, 22464, Note_on_c, 9, 35, 0
12, 22464, Note_on_c, 9, 42, 0
12, 22510, Note_on_c, 9, 35, 99
12, 22511, Note_on_c, 9, 35, 0
12, 22511, Note_on_c, 9, 42, 73
12, 22512, Note_on_c, 9, 42, 0
12, 22512, Note_on_c, 9, 63, 41
12, 22513, Note_on_c, 9, 63, 0
12, 22559, Note_on_c, 9, 43, 101
12, 22559, Note_on_c, 9, 45, 100
12, 22559, Note_on_c, 9, 64, 84
12, 22560, Note_on_c, 9, 64, 0
12, 22560, Note_on_c, 9, 45, 0
12, 22560, Note_on_c, 9, 43, 0
12, 22607, Note_on_c, 9, 42, 69
12, 22607, Note_on_c, 9, 64, 88
12, 22608, Note_on_c, 9, 64, 0
12, 22608, Note_on_c, 9, 42, 0
12, 22631, Note_on_c, 9, 42, 37
12, 22632, Note_on_c, 9, 42, 0
12, 22655, Note_on_c, 9, 42, 60
12, 22655, Note_on_c, 9, 35, 95
12, 22656, Note_on_c, 9, 35, 0
12, 22656, Note_on_c, 9, 42, 0
12, 22703, Note_on_c, 9, 42, 78
12, 22704, Note_on_c, 9, 42, 0
12, 22704, Note_on_c, 9, 35, 106
12, 22704, Note_on_c, 9, 63, 63
12, 22705, Note_on_c, 9, 63, 0
12, 22705, Note_on_c, 9, 35, 0
12, 22751, Note_on_c, 9, 43, 106
12, 22751, Note_on_c, 9, 62, 94
12, 22751, Note_on_c, 9, 45, 104
12, 22752, Note_on_c, 9, 45, 0
12, 22752, Note_on_c, 9, 62, 0
12, 22752, Note_on_c, 9, 43, 0
12, 22799, Note_on_c, 9, 42, 70
12, 22800, Note_on_c, 9, 42, 0
12, 22823, Note_on_c, 9, 42, 36
12, 22824, Note_on_c, 9, 42, 0
12, 22846, Note_on_c, 9, 35, 92
12, 22846, Note_on_c, 9, 42, 55
12, 22847, Note_on_c, 9, 42, 0
12, 22847, Note_on_c, 9, 35, 0
12, 22894, Note_on_c, 9, 63, 63
12, 22895, Note_on_c, 9, 63, 0
12, 22895, Note_on_c, 9, 42, 79
12, 22895, Note_on_c, 9, 35, 106
12, 22896, Note_on_c, 9, 35, 0
12, 22896, Note_on_c, 9, 42, 0
12, 22942, Note_on_c, 9, 64, 83
12, 22943, Note_on_c, 9, 64, 0
12, 22943, Note_on_c, 9, 45, 106
12, 22943, Note_on_c, 9, 43, 106
12, 22944, Note_on_c, 9, 43, 0
12, 22944, Note_on_c, 9, 45, 0
12, 22990, Note_on_c, 9, 42, 71
12, 22991, Note_on_c, 9, 42, 0
12, 22991, Note_on_c, 9, 64, 88
12, 22992, Note_on_c, 9, 64, 0
12, 23014, Note_on_c, 9, 42, 38
12, 23015, Note_on_c, 9, 42, 0
12, 23037, Note_on_c, 9, 42, 68
12, 23038, Note_on_c, 9, 42, 0
12, 23040, Note_on_c, 9, 35, 106
12, 23041, Note_on_c, 9, 35, 0
12, 23085, Note_on_c, 9, 42, 66
12, 23086, Note_on_c, 9, 42, 0
12, 23087, Note_on_c, 9, 35, 97
12, 23088, Note_on_c, 9, 35, 0
12, 23135, Note_on_c, 9, 43, 105
12, 23135, Note_on_c, 9, 62, 100
12, 23136, Note_on_c, 9, 62, 0
12, 23136, Note_on_c, 9, 43, 0
12, 23136, Note_on_c, 9, 45, 98
12, 23137, Note_on_c, 9, 45, 0
12, 23184, Note_on_c, 9, 42, 76
12, 23185, Note_on_c, 9, 42, 0
12, 23208, Note_on_c, 9, 42, 37
12, 23209, Note_on_c, 9, 42, 0
12, 23232, Note_on_c, 9, 35, 87
12, 23232, Note_on_c, 9, 42, 76
12, 23233, Note_on_c, 9, 42, 0
12, 23233, Note_on_c, 9, 35, 0
12, 23278, Note_on_c, 9, 42, 79
12, 23279, Note_on_c, 9, 42, 0
12, 23280, Note_on_c, 9, 35, 99
12, 23281, Note_on_c, 9, 35, 0
12, 23326, Note_on_c, 9, 64, 84
12, 23327, Note_on_c, 9, 64, 0
12, 23329, Note_on_c, 9, 45, 97
12, 23329, Note_on_c, 9, 43, 106
12, 23330, Note_on_c, 9, 43, 0
12, 23330, Note_on_c, 9, 45, 0
12, 23375, Note_on_c, 9, 42, 70
12, 23375, Note_on_c, 9, 64, 84
12, 23376, Note_on_c, 9, 64, 0
12, 23376, Note_on_c, 9, 42, 0
12, 23399, Note_on_c, 9, 42, 38
12, 23400, Note_on_c, 9, 42, 0
12, 23423, Note_on_c, 9, 42, 72
12, 23423, Note_on_c, 9, 35, 105
12, 23424, Note_on_c, 9, 35, 0
12, 23424, Note_on_c, 9, 42, 0
12, 23471, Note_on_c, 9, 45, 108
12, 23471, Note_on_c, 9, 38, 106
12, 23471, Note_on_c, 9, 63, 54
12, 23472, Note_on_c, 9, 63, 0
12, 23472, Note_on_c, 9, 38, 0
12, 23472, Note_on_c, 9, 45, 0
12, 23518, Note_on_c, 9, 38, 101
12, 23519, Note_on_c, 9, 38, 0
12, 23519, Note_on_c, 9, 62, 91
12, 23520, Note_on_c, 9, 62, 0
12, 23541, Note_on_c, 9, 38, 78
12, 23542, Note_on_c, 9, 38, 0
12, 23565, Note_on_c, 9, 38, 89
12, 23566, Note_on_c, 9, 38, 0
12, 23590, Note_on_c, 9, 38, 81
12, 23591, Note_on_c, 9, 38, 0
12, 23614, Note_on_c, 9, 38, 104
12, 23615, Note_on_c, 9, 38, 0
12, 23638, Note_on_c, 9, 38, 86
12, 23639, Note_on_c, 9, 38, 0
12, 23662, Note_on_c, 9, 63, 47
12, 23662, Note_on_c, 9, 38, 108
12, 23663, Note_on_c, 9, 38, 0
12, 23663, Note_on_c, 9, 63, 0
12, 23686, Note_on_c, 9, 38, 104
12, 23687, Note_on_c, 9, 38, 0
12, 23710, Note_on_c, 9, 38, 121
12, 23710, Note_on_c, 9, 64, 75
12, 23711, Note_on_c, 9, 64, 0
12, 23711, Note_on_c, 9, 38, 0
12, 23735, Note_on_c, 9, 38, 120
12, 23736, Note_on_c, 9, 38, 0
12, 23757, Note_on_c, 9, 64, 90
12, 23758, Note_on_c, 9, 64, 0
12, 23759, Note_on_c, 9, 45, 104
12, 23760, Note_on_c, 9, 45, 0
12, 23782, Note_on_c, 9, 45, 80
12, 23783, Note_on_c, 9, 45, 0
12, 23806, Note_on_c, 9, 49, 80
12, 23807, Note_on_c, 9, 49, 0
12, 23807, Note_on_c, 9, 35, 93
12, 23808, Note_on_c, 9, 35, 0
12, 23854, Note_on_c, 9, 42, 79
12, 23854, Note_on_c, 9, 63, 61
12, 23855, Note_on_c, 9, 63, 0
12, 23855, Note_on_c, 9, 42, 0
12, 23855, Note_on_c, 9, 35, 95
12, 23856, Note_on_c, 9, 35, 0
12, 23903, Note_on_c, 9, 43, 101
12, 23903, Note_on_c, 9, 62, 91
12, 23903, Note_on_c, 9, 45, 104
12, 23904, Note_on_c, 9, 45, 0
12, 23904, Note_on_c, 9, 62, 0
12, 23904, Note_on_c, 9, 43, 0
12, 23951, Note_on_c, 9, 42, 66
12, 23952, Note_on_c, 9, 42, 0
12, 23976, Note_on_c, 9, 42, 41
12, 23977, Note_on_c, 9, 42, 0
12, 23998, Note_on_c, 9, 35, 89
12, 23999, Note_on_c, 9, 35, 0
12, 23999, Note_on_c, 9, 42, 63
12, 24000, Note_on_c, 9, 42, 0
12, 24046, Note_on_c, 9, 42, 77
12, 24046, Note_on_c, 9, 63, 51
12, 24046, Note_on_c, 9, 35, 94
12, 24047, Note_on_c, 9, 35, 0
12, 24047, Note_on_c, 9, 63, 0
12, 24047, Note_on_c, 9, 42, 0
12, 24094, Note_on_c, 9, 45, 102
12, 24095, Note_on_c, 9, 45, 0
12, 24095, Note_on_c, 9, 43, 101
12, 24095, Note_on_c, 9, 64, 74
12, 24096, Note_on_c, 9, 64, 0
12, 24096, Note_on_c, 9, 43, 0
12, 24143, Note_on_c, 9, 64, 90
12, 24143, Note_on_c, 9, 42, 63
12, 24144, Note_on_c, 9, 42, 0
12, 24144, Note_on_c, 9, 64, 0
12, 24167, Note_on_c, 9, 42, 40
12, 24168, Note_on_c, 9, 42, 0
12, 24191, Note_on_c, 9, 35, 95
12, 24191, Note_on_c, 9, 42, 73
12, 24192, Note_on_c, 9, 42, 0
12, 24192, Note_on_c, 9, 35, 0
12, 24238, Note_on_c, 9, 42, 74
12, 24239, Note_on_c, 9, 42, 0
12, 24239, Note_on_c, 9, 35, 100
12, 24240, Note_on_c, 9, 35, 0
12, 24287, Note_on_c, 9, 62, 97
12, 24287, Note_on_c, 9, 45, 108
12, 24287, Note_on_c, 9, 43, 106
12, 24288, Note_on_c, 9, 43, 0
12, 24288, Note_on_c, 9, 45, 0
12, 24288, Note_on_c, 9, 62, 0
12, 24335, Note_on_c, 9, 42, 73
12, 24336, Note_on_c, 9, 42, 0
12, 24359, Note_on_c, 9, 42, 39
12, 24360, Note_on_c, 9, 42, 0
12, 24382, Note_on_c, 9, 35, 102
12, 24383, Note_on_c, 9, 35, 0
12, 24383, Note_on_c, 9, 42, 76
12, 24384, Note_on_c, 9, 42, 0
12, 24429, Note_on_c, 9, 45, 94
12, 24430, Note_on_c, 9, 45, 0
12, 24430, Note_on_c, 9, 38, 90
12, 24430, Note_on_c, 9, 63, 60
12, 24431, Note_on_c, 9, 63, 0
12, 24431, Note_on_c, 9, 38, 0
12, 24478, Note_on_c, 9, 64, 90
12, 24478, Note_on_c, 9, 38, 108
12, 24478, Note_on_c, 9, 45, 109
12, 24479, Note_on_c, 9, 45, 0
12, 24479, Note_on_c, 9, 38, 0
12, 24479, Note_on_c, 9, 64, 0
12, 24527, Note_on_c, 9, 64, 97
12, 24528, Note_on_c, 9, 64, 0
12, 24529, Note_on_c, 9, 42, 76
12, 24530, Note_on_c, 9, 42, 0
12, 24575, Note_on_c, 9, 42, 68
12, 24575, Note_on_c, 9, 35, 89
12, 24576, Note_on_c, 9, 35, 0
12, 24576, Note_on_c, 9, 42, 0
12, 24622, Note_on_c, 9, 42, 79
12, 24623, Note_on_c, 9, 42, 0
12, 24623, Note_on_c, 9, 35, 88
12, 24624, Note_on_c, 9, 35, 0
12, 24625, Note_on_c, 9, 63, 59
12, 24626, Note_on_c, 9, 63, 0
12, 24671, Note_on_c, 9, 62, 98
12, 24672, Note_on_c, 9, 62, 0
12, 24672, Note_on_c, 9, 45, 104
12, 24672, Note_on_c, 9, 43, 105
12, 24673, Note_on_c, 9, 43, 0
12, 24673, Note_on_c, 9, 45, 0
12, 24718, Note_on_c, 9, 42, 73
12, 24719, Note_on_c, 9, 42, 0
12, 24743, Note_on_c, 9, 42, 38
12, 24744, Note_on_c, 9, 42, 0
12, 24767, Note_on_c, 9, 42, 71
12, 24768, Note_on_c, 9, 42, 0
12, 24770, Note_on_c, 9, 35, 87
12, 24771, Note_on_c, 9, 35, 0
12, 24814, Note_on_c, 9, 42, 75
12, 24815, Note_on_c, 9, 42, 0
12, 24816, Note_on_c, 9, 35, 97
12, 24817, Note_on_c, 9, 35, 0
12, 24817, Note_on_c, 9, 63, 55
12, 24818, Note_on_c, 9, 63, 0
12, 24863, Note_on_c, 9, 64, 87
12, 24864, Note_on_c, 9, 64, 0
12, 24864, Note_on_c, 9, 45, 104
12, 24864, Note_on_c, 9, 43, 104
12, 24865, Note_on_c, 9, 43, 0
12, 24865, Note_on_c, 9, 45, 0
12, 24911, Note_on_c, 9, 42, 73
12, 24912, Note_on_c, 9, 42, 0
12, 24912, Note_on_c, 9, 64, 91
12, 24913, Note_on_c, 9, 64, 0
12, 24935, Note_on_c, 9, 42, 37
12, 24936, Note_on_c, 9, 42, 0
12, 24959, Note_on_c, 9, 35, 104
12, 24959, Note_on_c, 9, 42, 75
12, 24960, Note_on_c, 9, 42, 0
12, 24960, Note_on_c, 9, 35, 0
12, 25007, Note_on_c, 9, 42, 77
12, 25007, Note_on_c, 9, 35, 106
12, 25008, Note_on_c, 9, 35, 0
12, 25008, Note_on_c, 9, 42, 0
12, 25008, Note_on_c, 9, 63, 63
12, 25009, Note_on_c, 9, 63, 0
12, 25055, Note_on_c, 9, 45, 108
12, 25055, Note_on_c, 9, 62, 88
12, 25055, Note_on_c, 9, 38, 111
12, 25056, Note_on_c, 9, 38, 0
12, 25056, Note_on_c, 9, 62, 0
12, 25056, Note_on_c, 9, 45, 0
12, 25103, Note_on_c, 9, 38, 98
12, 25104, Note_on_c, 9, 38, 0
12, 25126, Note_on_c, 9, 38, 91
12, 25127, Note_on_c, 9, 38, 0
12, 25151, Note_on_c, 9, 38, 97
12, 25152, Note_on_c, 9, 38, 0
12, 25175, Note_on_c, 9, 38, 98
12, 25176, Note_on_c, 9, 38, 0
12, 25201, Note_on_c, 9, 38, 95
12, 25202, Note_on_c, 9, 38, 0
12, 25224, Note_on_c, 9, 38, 86
12, 25225, Note_on_c, 9, 38, 0
12, 25246, Note_on_c, 9, 64, 84
12, 25247, Note_on_c, 9, 64, 0
12, 25249, Note_on_c, 9, 45, 112
12, 25250, Note_on_c, 9, 45, 0
12, 25272, Note_on_c, 9, 45, 93
12, 25273, Note_on_c, 9, 45, 0
12, 25295, Note_on_c, 9, 64, 90
12, 25296, Note_on_c, 9, 64, 0
12, 25297, Note_on_c, 9, 38, 105
12, 25298, Note_on_c, 9, 38, 0
12, 25320, Note_on_c, 9, 38, 100
12, 25321, Note_on_c, 9, 38, 0
12, 25343, Note_on_c, 9, 49, 86
12, 25343, Note_on_c, 9, 35, 102
12, 25344, Note_on_c, 9, 35, 0
12, 25344, Note_on_c, 9, 49, 0
12, 25391, Note_on_c, 9, 35, 98
12, 25391, Note_on_c, 9, 42, 83
12, 25392, Note_on_c, 9, 42, 0
12, 25392, Note_on_c, 9, 35, 0
12, 25438, Note_on_c, 9, 62, 90
12, 25439, Note_on_c, 9, 62, 0
12, 25439, Note_on_c, 9, 43, 98
12, 25439, Note_on_c, 9, 45, 100
12, 25440, Note_on_c, 9, 45, 0
12, 25440, Note_on_c, 9, 43, 0
12, 25489, Note_on_c, 9, 42, 66
12, 25490, Note_on_c, 9, 42, 0
12, 25512, Note_on_c, 9, 42, 41
12, 25513, Note_on_c, 9, 42, 0
12, 25534, Note_on_c, 9, 35, 97
12, 25535, Note_on_c, 9, 35, 0
12, 25536, Note_on_c, 9, 42, 69
12, 25537, Note_on_c, 9, 42, 0
12, 25582, Note_on_c, 9, 35, 97
12, 25583, Note_on_c, 9, 35, 0
12, 25583, Note_on_c, 9, 42, 73
12, 25583, Note_on_c, 9, 63, 64
12, 25584, Note_on_c, 9, 63, 0
12, 25584, Note_on_c, 9, 42, 0
12, 25630, Note_on_c, 9, 64, 86
12, 25630, Note_on_c, 9, 43, 104
12, 25631, Note_on_c, 9, 43, 0
12, 25631, Note_on_c, 9, 64, 0
12, 25631, Note_on_c, 9, 45, 99
12, 25632, Note_on_c, 9, 45, 0
12, 25679, Note_on_c, 9, 42, 70
12, 25679, Note_on_c, 9, 64, 90
12, 25680, Note_on_c, 9, 64, 0
12, 25680, Note_on_c, 9, 42, 0
12, 25726, Note_on_c, 9, 42, 73
12, 25727, Note_on_c, 9, 42, 0
12, 25727, Note_on_c, 9, 35, 100
12, 25728, Note_on_c, 9, 35, 0
12, 25774, Note_on_c, 9, 42, 75
12, 25775, Note_on_c, 9, 42, 0
12, 25775, Note_on_c, 9, 35, 99
12, 25776, Note_on_c, 9, 35, 0
12, 25823, Note_on_c, 9, 45, 101
12, 25823, Note_on_c, 9, 62, 89
12, 25823, Note_on_c, 9, 43, 101
12, 25824, Note_on_c, 9, 43, 0
12, 25824, Note_on_c, 9, 62, 0
12, 25824, Note_on_c, 9, 45, 0
12, 25871, Note_on_c, 9, 42, 62
12, 25872, Note_on_c, 9, 42, 0
12, 25895, Note_on_c, 9, 42, 38
12, 25896, Note_on_c, 9, 42, 0
12, 25919, Note_on_c, 9, 35, 94
12, 25919, Note_on_c, 9, 42, 66
12, 25920, Note_on_c, 9, 42, 0
12, 25920, Note_on_c, 9, 35, 0
12, 25967, Note_on_c, 9, 63, 57
12, 25967, Note_on_c, 9, 42, 74
12, 25968, Note_on_c, 9, 42, 0
12, 25968, Note_on_c, 9, 63, 0
12, 25968, Note_on_c, 9, 35, 99
12, 25969, Note_on_c, 9, 35, 0
12, 26015, Note_on_c, 9, 64, 90
12, 26016, Note_on_c, 9, 64, 0
12, 26016, Note_on_c, 9, 45, 105
12, 26016, Note_on_c, 9, 43, 106
12, 26017, Note_on_c, 9, 43, 0
12, 26017, Note_on_c, 9, 45, 0
12, 26062, Note_on_c, 9, 64, 98
12, 26063, Note_on_c, 9, 64, 0
12, 26063, Note_on_c, 9, 42, 71
12, 26064, Note_on_c, 9, 42, 0
12, 26087, Note_on_c, 9, 42, 38
12, 26088, Note_on_c, 9, 42, 0
12, 26111, Note_on_c, 9, 42, 68
12, 26111, Note_on_c, 9, 35, 97
12, 26112, Note_on_c, 9, 35, 0
12, 26112, Note_on_c, 9, 42, 0
12, 26159, Note_on_c, 9, 42, 73
12, 26159, Note_on_c, 9, 35, 95
12, 26160, Note_on_c, 9, 35, 0
12, 26160, Note_on_c, 9, 42, 0
12, 26206, Note_on_c, 9, 62, 97
12, 26207, Note_on_c, 9, 62, 0
12, 26207, Note_on_c, 9, 45, 104
12, 26207, Note_on_c, 9, 43, 104
12, 26208, Note_on_c, 9, 43, 0
12, 26208, Note_on_c, 9, 45, 0
12, 26257, Note_on_c, 9, 42, 72
12, 26258, Note_on_c, 9, 42, 0
12, 26280, Note_on_c, 9, 42, 38
12, 26281, Note_on_c, 9, 42, 0
12, 26303, Note_on_c, 9, 42, 68
12, 26304, Note_on_c, 9, 42, 0
12, 26304, Note_on_c, 9, 35, 98
12, 26305, Note_on_c, 9, 35, 0
12, 26351, Note_on_c, 9, 42, 74
12, 26352, Note_on_c, 9, 42, 0
12, 26354, Note_on_c, 9, 35, 100
12, 26355, Note_on_c, 9, 35, 0
12, 26399, Note_on_c, 9, 64, 83
12, 26400, Note_on_c, 9, 64, 0
12, 26400, Note_on_c, 9, 43, 106
12, 26400, Note_on_c, 9, 45, 106
12, 26401, Note_on_c, 9, 45, 0
12, 26401, Note_on_c, 9, 43, 0
12, 26446, Note_on_c, 9, 42, 72
12, 26446, Note_on_c, 9, 64, 89
12, 26447, Note_on_c, 9, 64, 0
12, 26447, Note_on_c, 9, 42, 0
12, 26470, Note_on_c, 9, 42, 72
12, 26471, Note_on_c, 9, 42, 0
12, 26494, Note_on_c, 9, 42, 73
12, 26495, Note_on_c, 9, 42, 0
12, 26496, Note_on_c, 9, 43, 73
12, 26496, Note_on_c, 9, 45, 79
12, 26497, Note_on_c, 9, 45, 0
12, 26497, Note_on_c, 9, 43, 0
12, 26543, Note_on_c, 9, 63, 47
12, 26543, Note_on_c, 9, 45, 87
12, 26543, Note_on_c, 9, 43, 84
12, 26544, Note_on_c, 9, 43, 0
12, 26544, Note_on_c, 9, 45, 0
12, 26544, Note_on_c, 9, 63, 0
12, 26590, Note_on_c, 9, 62, 112
12, 26591, Note_on_c, 9, 62, 0
12, 26591, Note_on_c, 9, 45, 95
12, 26591, Note_on_c, 9, 43, 94
12, 26592, Note_on_c, 9, 43, 0
12, 26592, Note_on_c, 9, 45, 0
12, 26639, Note_on_c, 9, 45, 116
12, 26639, Note_on_c, 9, 43, 112
12, 26640, Note_on_c, 9, 43, 0
12, 26640, Note_on_c, 9, 45, 0
12, 26687, Note_on_c, 9, 38, 105
12, 26688, Note_on_c, 9, 38, 0
12, 26711, Note_on_c, 9, 38, 108
12, 26712, Note_on_c, 9, 38, 0
12, 26735, Note_on_c, 9, 38, 102
12, 26736, Note_on_c, 9, 38, 0
12, 26736, Note_on_c, 9, 63, 56
12, 26737, Note_on_c, 9, 63, 0
12, 26761, Note_on_c, 9, 38, 105
12, 26762, Note_on_c, 9, 38, 0
12, 26783, Note_on_c, 9, 64, 83
12, 26784, Note_on_c, 9, 64, 0
12, 26785, Note_on_c, 9, 38, 107
12, 26786, Note_on_c, 9, 38, 0
12, 26807, Note_on_c, 9, 38, 105
12, 26808, Note_on_c, 9, 38, 0
12, 26831, Note_on_c, 9, 64, 97
12, 26832, Note_on_c, 9, 64, 0
12, 26832, Note_on_c, 9, 45, 120
12, 26833, Note_on_c, 9, 45, 0
12, 26855, Note_on_c, 9, 38, 101
12, 26856, Note_on_c, 9, 38, 0
12, 26878, Note_on_c, 9, 49, 93
12, 26879, Note_on_c, 9, 49, 0
12, 26879, Note_on_c, 9, 35, 100
12, 26880, Note_on_c, 9, 35, 0
12, 26926, Note_on_c, 9, 42, 74
12, 26927, Note_on_c, 9, 42, 0
12, 26927, Note_on_c, 9, 35, 100
12, 26928, Note_on_c, 9, 35, 0
12, 26975, Note_on_c, 9, 62, 87
12, 26975, Note_on_c, 9, 43, 99
12, 26975, Note_on_c, 9, 45, 101
12, 26976, Note_on_c, 9, 45, 0
12, 26976, Note_on_c, 9, 43, 0
12, 26976, Note_on_c, 9, 62, 0
12, 27025, Note_on_c, 9, 42, 80
12, 27026, Note_on_c, 9, 42, 0
12, 27049, Note_on_c, 9, 42, 39
12, 27050, Note_on_c, 9, 42, 0
12, 27071, Note_on_c, 9, 35, 94
12, 27072, Note_on_c, 9, 35, 0
12, 27073, Note_on_c, 9, 42, 70
12, 27074, Note_on_c, 9, 42, 0
12, 27119, Note_on_c, 9, 42, 73
12, 27120, Note_on_c, 9, 42, 0
12, 27120, Note_on_c, 9, 35, 97
12, 27121, Note_on_c, 9, 35, 0
12, 27121, Note_on_c, 9, 63, 49
12, 27122, Note_on_c, 9, 63, 0
12, 27166, Note_on_c, 9, 45, 102
12, 27167, Note_on_c, 9, 45, 0
12, 27167, Note_on_c, 9, 64, 83
12, 27167, Note_on_c, 9, 43, 97
12, 27168, Note_on_c, 9, 43, 0
12, 27168, Note_on_c, 9, 64, 0
12, 27215, Note_on_c, 9, 64, 96
12, 27216, Note_on_c, 9, 64, 0
12, 27217, Note_on_c, 9, 42, 69
12, 27218, Note_on_c, 9, 42, 0
12, 27240, Note_on_c, 9, 42, 37
12, 27241, Note_on_c, 9, 42, 0
12, 27262, Note_on_c, 9, 35, 89
12, 27263, Note_on_c, 9, 35, 0
12, 27263, Note_on_c, 9, 42, 65
12, 27264, Note_on_c, 9, 42, 0
12, 27311, Note_on_c, 9, 42, 76
12, 27311, Note_on_c, 9, 35, 94
12, 27312, Note_on_c, 9, 35, 0
12, 27312, Note_on_c, 9, 42, 0
12, 27358, Note_on_c, 9, 62, 90
12, 27358, Note_on_c, 9, 43, 99
12, 27358, Note_on_c, 9, 45, 101
12, 27359, Note_on_c, 9, 45, 0
12, 27359, Note_on_c, 9, 43, 0
12, 27359, Note_on_c, 9, 62, 0
12, 27409, Note_on_c, 9, 42, 79
12, 27410, Note_on_c, 9, 42, 0
12, 27431, Note_on_c, 9, 42, 39
12, 27432, Note_on_c, 9, 42, 0
12, 27455, Note_on_c, 9, 35, 93
12, 27455, Note_on_c, 9, 42, 64
12, 27456, Note_on_c, 9, 42, 0
12, 27456, Note_on_c, 9, 35, 0
12, 27502, Note_on_c, 9, 35, 97
12, 27503, Note_on_c, 9, 35, 0
12, 27504, Note_on_c, 9, 42, 73
12, 27505, Note_on_c, 9, 42, 0
12, 27550, Note_on_c, 9, 64, 81
12, 27550, Note_on_c, 9, 43, 99
12, 27550, Note_on_c, 9, 45, 101
12, 27551, Note_on_c, 9, 45, 0
12, 27551, Note_on_c, 9, 43, 0
12, 27551, Note_on_c, 9, 64, 0
12, 27598, Note_on_c, 9, 42, 73
12, 27599, Note_on_c, 9, 42, 0
12, 27599, Note_on_c, 9, 64, 90
12, 27600, Note_on_c, 9, 64, 0
12, 27622, Note_on_c, 9, 42, 36
12, 27623, Note_on_c, 9, 42, 0
12, 27646, Note_on_c, 9, 42, 71
12, 27647, Note_on_c, 9, 42, 0
12, 27649, Note_on_c, 9, 35, 89
12, 27650, Note_on_c, 9, 35, 0
12, 27693, Note_on_c, 9, 42, 73
12, 27694, Note_on_c, 9, 42, 0
12, 27695, Note_on_c, 9, 63, 58
12, 27695, Note_on_c, 9, 35, 95
12, 27696, Note_on_c, 9, 35, 0
12, 27696, Note_on_c, 9, 63, 0
12, 27742, Note_on_c, 9, 62, 95
12, 27743, Note_on_c, 9, 62, 0
12, 27743, Note_on_c, 9, 43, 104
12, 27743, Note_on_c, 9, 45, 102
12, 27744, Note_on_c, 9, 45, 0
12, 27744, Note_on_c, 9, 43, 0
12, 27790, Note_on_c, 9, 42, 73
12, 27791, Note_on_c, 9, 42, 0
12, 27814, Note_on_c, 9, 42, 37
12, 27815, Note_on_c, 9, 42, 0
12, 27837, Note_on_c, 9, 42, 71
12, 27838, Note_on_c, 9, 42, 0
12, 27839, Note_on_c, 9, 35, 95
12, 27840, Note_on_c, 9, 35, 0
12, 27886, Note_on_c, 9, 42, 76
12, 27886, Note_on_c, 9, 35, 99
12, 27887, Note_on_c, 9, 35, 0
12, 27887, Note_on_c, 9, 42, 0
12, 27889, Note_on_c, 9, 63, 61
12, 27890, Note_on_c, 9, 63, 0
12, 27934, Note_on_c, 9, 43, 94
12, 27934, Note_on_c, 9, 45, 99
12, 27935, Note_on_c, 9, 45, 0
12, 27935, Note_on_c, 9, 43, 0
12, 27935, Note_on_c, 9, 64, 86
12, 27936, Note_on_c, 9, 64, 0
12, 27981, Note_on_c, 9, 42, 66
12, 27982, Note_on_c, 9, 42, 0
12, 27983, Note_on_c, 9, 64, 101
12, 27984, Note_on_c, 9, 64, 0
12, 28007, Note_on_c, 9, 42, 38
12, 28008, Note_on_c, 9, 42, 0
12, 28030, Note_on_c, 9, 42, 77
12, 28031, Note_on_c, 9, 42, 0
12, 28031, Note_on_c, 9, 35, 99
12, 28032, Note_on_c, 9, 35, 0
12, 28077, Note_on_c, 9, 45, 105
12, 28077, Note_on_c, 9, 43, 102
12, 28078, Note_on_c, 9, 43, 0
12, 28078, Note_on_c, 9, 45, 0
12, 28079, Note_on_c, 9, 63, 54
12, 28080, Note_on_c, 9, 63, 0
12, 28124, Note_on_c, 9, 43, 106
12, 28124, Note_on_c, 9, 45, 108
12, 28125, Note_on_c, 9, 45, 0
12, 28125, Note_on_c, 9, 43, 0
12, 28126, Note_on_c, 9, 62, 102
12, 28127, Note_on_c, 9, 62, 0
12, 28174, Note_on_c, 9, 42, 69
12, 28175, Note_on_c, 9, 42, 0
12, 28175, Note_on_c, 9, 35, 104
12, 28176, Note_on_c, 9, 35, 0
12, 28221, Note_on_c, 9, 45, 105
12, 28222, Note_on_c, 9, 45, 0
12, 28222, Note_on_c, 9, 43, 102
12, 28223, Note_on_c, 9, 43, 0
12, 28270, Note_on_c, 9, 63, 55
12, 28271, Note_on_c, 9, 63, 0
12, 28271, Note_on_c, 9, 43, 109
12, 28271, Note_on_c, 9, 45, 114
12, 28272, Note_on_c, 9, 45, 0
12, 28272, Note_on_c, 9, 43, 0
12, 28319, Note_on_c, 9, 64, 83
12, 28319, Note_on_c, 9, 38, 104
12, 28320, Note_on_c, 9, 38, 0
12, 28320, Note_on_c, 9, 64, 0
12, 28343, Note_on_c, 9, 38, 98
12, 28344, Note_on_c, 9, 38, 0
12, 28366, Note_on_c, 9, 64, 105
12, 28367, Note_on_c, 9, 64, 0
12, 28367, Note_on_c, 9, 38, 116
12, 28368, Note_on_c, 9, 38, 0
12, 28392, Note_on_c, 9, 38, 116
12, 28393, Note_on_c, 9, 38, 0
12, 28414, Note_on_c, 9, 49, 93
12, 28415, Note_on_c, 9, 49, 0
12, 28415, Note_on_c, 9, 35, 102
12, 28416, Note_on_c, 9, 35, 0
12, 28463, Note_on_c, 9, 35, 100
12, 28463, Note_on_c, 9, 42, 70
12, 28464, Note_on_c, 9, 42, 0
12, 28464, Note_on_c, 9, 35, 0
12, 28511, Note_on_c, 9, 45, 111
12, 28511, Note_on_c, 9, 62, 100
12, 28511, Note_on_c, 9, 43, 104
12, 28512, Note_on_c, 9, 43, 0
12, 28512, Note_on_c, 9, 62, 0
12, 28512, Note_on_c, 9, 45, 0
12, 28559, Note_on_c, 9, 42, 75
12, 28560, Note_on_c, 9, 42, 0
12, 28583, Note_on_c, 9, 42, 40
12, 28584, Note_on_c, 9, 42, 0
12, 28607, Note_on_c, 9, 42, 70
12, 28607, Note_on_c, 9, 35, 99
12, 28608, Note_on_c, 9, 35, 0
12, 28608, Note_on_c, 9, 42, 0
12, 28654, Note_on_c, 9, 42, 78
12, 28655, Note_on_c, 9, 42, 0
12, 28655, Note_on_c, 9, 35, 98
12, 28655, Note_on_c, 9, 63, 59
12, 28656, Note_on_c, 9, 63, 0
12, 28656, Note_on_c, 9, 35, 0
12, 28702, Note_on_c, 9, 64, 89
12, 28702, Note_on_c, 9, 45, 102
12, 28702, Note_on_c, 9, 43, 102
12, 28703, Note_on_c, 9, 43, 0
12, 28703, Note_on_c, 9, 45, 0
12, 28703, Note_on_c, 9, 64, 0
12, 28751, Note_on_c, 9, 42, 68
12, 28751, Note_on_c, 9, 64, 86
12, 28752, Note_on_c, 9, 64, 0
12, 28752, Note_on_c, 9, 42, 0
12, 28774, Note_on_c, 9, 42, 38
12, 28775, Note_on_c, 9, 42, 0
12, 28799, Note_on_c, 9, 35, 98
12, 28799, Note_on_c, 9, 42, 68
12, 28800, Note_on_c, 9, 42, 0
12, 28800, Note_on_c, 9, 35, 0
12, 28846, Note_on_c, 9, 42, 79
12, 28847, Note_on_c, 9, 42, 0
12, 28847, Note_on_c, 9, 35, 100
12, 28848, Note_on_c, 9, 35, 0
12, 28849, Note_on_c, 9, 63, 50
12, 28850, Note_on_c, 9, 63, 0
12, 28895, Note_on_c, 9, 43, 100
12, 28895, Note_on_c, 9, 45, 101
12, 28896, Note_on_c, 9, 45, 0
12, 28896, Note_on_c, 9, 43, 0
12, 28897, Note_on_c, 9, 62, 90
12, 28898, Note_on_c, 9, 62, 0
12, 28942, Note_on_c, 9, 42, 79
12, 28943, Note_on_c, 9, 42, 0
12, 28966, Note_on_c, 9, 42, 37
12, 28967, Note_on_c, 9, 42, 0
12, 28991, Note_on_c, 9, 35, 99
12, 28991, Note_on_c, 9, 42, 71
12, 28992, Note_on_c, 9, 42, 0
12, 28992, Note_on_c, 9, 35, 0
12, 29039, Note_on_c, 9, 42, 83
12, 29040, Note_on_c, 9, 42, 0
12, 29040, Note_on_c, 9, 35, 102
12, 29041, Note_on_c, 9, 35, 0
12, 29087, Note_on_c, 9, 43, 105
12, 29087, Note_on_c, 9, 45, 105
12, 29088, Note_on_c, 9, 45, 0
12, 29088, Note_on_c, 9, 43, 0
12, 29088, Note_on_c, 9, 64, 78
12, 29089, Note_on_c, 9, 64, 0
12, 29134, Note_on_c, 9, 64, 83
12, 29135, Note_on_c, 9, 64, 0
12, 29135, Note_on_c, 9, 42, 79
12, 29136, Note_on_c, 9, 42, 0
12, 29158, Note_on_c, 9, 42, 38
12, 29159, Note_on_c, 9, 42, 0
12, 29183, Note_on_c, 9, 35, 89
12, 29184, Note_on_c, 9, 35, 0
12, 29185, Note_on_c, 9, 42, 79
12, 29186, Note_on_c, 9, 42, 0
12, 29231, Note_on_c, 9, 42, 76
12, 29231, Note_on_c, 9, 35, 100
12, 29232, Note_on_c, 9, 35, 0
12, 29232, Note_on_c, 9, 42, 0
12, 29279, Note_on_c, 9, 43, 98
12, 29279, Note_on_c, 9, 62, 90
12, 29279, Note_on_c, 9, 45, 100
12, 29280, Note_on_c, 9, 45, 0
12, 29280, Note_on_c, 9, 62, 0
12, 29280, Note_on_c, 9, 43, 0
12, 29327, Note_on_c, 9, 42, 70
12, 29328, Note_on_c, 9, 42, 0
12, 29350, Note_on_c, 9, 42, 39
12, 29351, Note_on_c, 9, 42, 0
12, 29374, Note_on_c, 9, 42, 66
12, 29375, Note_on_c, 9, 42, 0
12, 29375, Note_on_c, 9, 35, 97
12, 29376, Note_on_c, 9, 35, 0
12, 29421, Note_on_c, 9, 42, 85
12, 29422, Note_on_c, 9, 42, 0
12, 29422, Note_on_c, 9, 63, 48
12, 29423, Note_on_c, 9, 63, 0
12, 29423, Note_on_c, 9, 35, 98
12, 29424, Note_on_c, 9, 35, 0
12, 29470, Note_on_c, 9, 64, 80
12, 29471, Note_on_c, 9, 64, 0
12, 29471, Note_on_c, 9, 43, 100
12, 29471, Note_on_c, 9, 45, 100
12, 29472, Note_on_c, 9, 45, 0
12, 29472, Note_on_c, 9, 43, 0
12, 29518, Note_on_c, 9, 42, 73
12, 29518, Note_on_c, 9, 64, 90
12, 29519, Note_on_c, 9, 64, 0
12, 29519, Note_on_c, 9, 42, 0
12, 29542, Note_on_c, 9, 42, 39
12, 29543, Note_on_c, 9, 42, 0
12, 29565, Note_on_c, 9, 42, 67
12, 29566, Note_on_c, 9, 42, 0
12, 29567, Note_on_c, 9, 35, 102
12, 29568, Note_on_c, 9, 35, 0
12, 29614, Note_on_c, 9, 42, 70
12, 29615, Note_on_c, 9, 42, 0
12, 29615, Note_on_c, 9, 35, 100
12, 29616, Note_on_c, 9, 35, 0
12, 29662, Note_on_c, 9, 43, 104
12, 29662, Note_on_c, 9, 45, 104
12, 29663, Note_on_c, 9, 45, 0
12, 29663, Note_on_c, 9, 43, 0
12, 29665, Note_on_c, 9, 62, 88
12, 29666, Note_on_c, 9, 62, 0
12, 29711, Note_on_c, 9, 42, 70
12, 29712, Note_on_c, 9, 42, 0
12, 29734, Note_on_c, 9, 42, 38
12, 29735, Note_on_c, 9, 42, 0
12, 29759, Note_on_c, 9, 35, 100
12, 29759, Note_on_c, 9, 42, 73
12, 29760, Note_on_c, 9, 42, 0
12, 29760, Note_on_c, 9, 35, 0
12, 29807, Note_on_c, 9, 42, 74
12, 29808, Note_on_c, 9, 42, 0
12, 29808, Note_on_c, 9, 63, 39
12, 29809, Note_on_c, 9, 63, 0
12, 29809, Note_on_c, 9, 35, 100
12, 29810, Note_on_c, 9, 35, 0
12, 29855, Note_on_c, 9, 64, 83
12, 29856, Note_on_c, 9, 64, 0
12, 29856, Note_on_c, 9, 43, 98
12, 29856, Note_on_c, 9, 45, 98
12, 29857, Note_on_c, 9, 45, 0
12, 29857, Note_on_c, 9, 43, 0
12, 29903, Note_on_c, 9, 42, 73
12, 29904, Note_on_c, 9, 42, 0
12, 29904, Note_on_c, 9, 64, 90
12, 29905, Note_on_c, 9, 64, 0
12, 29927, Note_on_c, 9, 42, 39
12, 29928, Note_on_c, 9, 42, 0
12, 29951, Note_on_c, 9, 35, 95
12, 29951, Note_on_c, 9, 42, 68
12, 29952, Note_on_c, 9, 42, 0
12, 29952, Note_on_c, 9, 35, 0
12, 29998, Note_on_c, 9, 42, 73
12, 29999, Note_on_c, 9, 42, 0
12, 29999, Note_on_c, 9, 35, 98
12, 30000, Note_on_c, 9, 35, 0
12, 30046, Note_on_c, 9, 45, 95
12, 30047, Note_on_c, 9, 45, 0
12, 30047, Note_on_c, 9, 43, 93
12, 30048, Note_on_c, 9, 43, 0
12, 30048, Note_on_c, 9, 62, 91
12, 30049, Note_on_c, 9, 62, 0
12, 30095, Note_on_c, 9, 42, 63
12, 30096, Note_on_c, 9, 42, 0
12, 30119, Note_on_c, 9, 42, 36
12, 30120, Note_on_c, 9, 42, 0
12, 30143, Note_on_c, 9, 42, 68
12, 30143, Note_on_c, 9, 35, 98
12, 30144, Note_on_c, 9, 35, 0
12, 30144, Note_on_c, 9, 42, 0
12, 30190, Note_on_c, 9, 42, 79
12, 30190, Note_on_c, 9, 35, 94
12, 30191, Note_on_c, 9, 35, 0
12, 30191, Note_on_c, 9, 42, 0
12, 30191, Note_on_c, 9, 63, 56
12, 30192, Note_on_c, 9, 63, 0
12, 30238, Note_on_c, 9, 45, 99
12, 30238, Note_on_c, 9, 64, 78
12, 30238, Note_on_c, 9, 43, 100
12, 30239, Note_on_c, 9, 43, 0
12, 30239, Note_on_c, 9, 64, 0
12, 30239, Note_on_c, 9, 45, 0
12, 30286, Note_on_c, 9, 42, 67
12, 30287, Note_on_c, 9, 42, 0
12, 30287, Note_on_c, 9, 64, 89
12, 30288, Note_on_c, 9, 64, 0
12, 30310, Note_on_c, 9, 42, 36
12, 30311, Note_on_c, 9, 42, 0
12, 30335, Note_on_c, 9, 42, 65
12, 30335, Note_on_c, 9, 35, 98
12, 30336, Note_on_c, 9, 35, 0
12, 30336, Note_on_c, 9, 42, 0
12, 30382, Note_on_c, 9, 42, 74
12, 30383, Note_on_c, 9, 42, 0
12, 30383, Note_on_c, 9, 63, 52
12, 30383, Note_on_c, 9, 35, 97
12, 30384, Note_on_c, 9, 35, 0
12, 30384, Note_on_c, 9, 63, 0
12, 30431, Note_on_c, 9, 45, 99
12, 30431, Note_on_c, 9, 43, 102
12, 30431, Note_on_c, 9, 62, 108
12, 30432, Note_on_c, 9, 62, 0
12, 30432, Note_on_c, 9, 43, 0
12, 30432, Note_on_c, 9, 45, 0
12, 30479, Note_on_c, 9, 42, 73
12, 30480, Note_on_c, 9, 42, 0
12, 30503, Note_on_c, 9, 42, 35
12, 30504, Note_on_c, 9, 42, 0
12, 30526, Note_on_c, 9, 42, 65
12, 30527, Note_on_c, 9, 42, 0
12, 30527, Note_on_c, 9, 35, 97
12, 30528, Note_on_c, 9, 35, 0
12, 30574, Note_on_c, 9, 42, 79
12, 30575, Note_on_c, 9, 42, 0
12, 30577, Note_on_c, 9, 35, 99
12, 30578, Note_on_c, 9, 35, 0
12, 30623, Note_on_c, 9, 64, 81
12, 30624, Note_on_c, 9, 64, 0
12, 30624, Note_on_c, 9, 45, 97
12, 30624, Note_on_c, 9, 43, 102
12, 30625, Note_on_c, 9, 43, 0
12, 30625, Note_on_c, 9, 45, 0
12, 30671, Note_on_c, 9, 42, 74
12, 30672, Note_on_c, 9, 42, 0
12, 30673, Note_on_c, 9, 64, 83
12, 30674, Note_on_c, 9, 64, 0
12, 30695, Note_on_c, 9, 42, 37
12, 30696, Note_on_c, 9, 42, 0
12, 30718, Note_on_c, 9, 42, 63
12, 30719, Note_on_c, 9, 42, 0
12, 30719, Note_on_c, 9, 35, 100
12, 30720, Note_on_c, 9, 35, 0
12, 30766, Note_on_c, 9, 42, 73
12, 30767, Note_on_c, 9, 42, 0
12, 30769, Note_on_c, 9, 35, 97
12, 30770, Note_on_c, 9, 35, 0
12, 30815, Note_on_c, 9, 43, 101
12, 30815, Note_on_c, 9, 45, 97
12, 30816, Note_on_c, 9, 45, 0
12, 30816, Note_on_c, 9, 43, 0
12, 30816, Note_on_c, 9, 62, 100
12, 30817, Note_on_c, 9, 62, 0
12, 30863, Note_on_c, 9, 42, 70
12, 30864, Note_on_c, 9, 42, 0
12, 30886, Note_on_c, 9, 42, 37
12, 30887, Note_on_c, 9, 42, 0
12, 30911, Note_on_c, 9, 42, 63
12, 30912, Note_on_c, 9, 42, 0
12, 30913, Note_on_c, 9, 35, 104
12, 30914, Note_on_c, 9, 35, 0
12, 30958, Note_on_c, 9, 42, 73
12, 30958, Note_on_c, 9, 63, 70
12, 30959, Note_on_c, 9, 63, 0
12, 30959, Note_on_c, 9, 42, 0
12, 30961, Note_on_c, 9, 35, 94
12, 30962, Note_on_c, 9, 35, 0
12, 31006, Note_on_c, 9, 64, 83
12, 31007, Note_on_c, 9, 64, 0
12, 31009, Note_on_c, 9, 43, 102
12, 31009, Note_on_c, 9, 45, 97
12, 31010, Note_on_c, 9, 45, 0
12, 31010, Note_on_c, 9, 43, 0
12, 31054, Note_on_c, 9, 42, 70
12, 31055, Note_on_c, 9, 42, 0
12, 31055, Note_on_c, 9, 64, 88
12, 31056, Note_on_c, 9, 64, 0
12, 31078, Note_on_c, 9, 42, 38
12, 31079, Note_on_c, 9, 42, 0
12, 31103, Note_on_c, 9, 42, 62
12, 31104, Note_on_c, 9, 42, 0
12, 31104, Note_on_c, 9, 35, 106
12, 31105, Note_on_c, 9, 35, 0
12, 31150, Note_on_c, 9, 63, 54
12, 31150, Note_on_c, 9, 42, 79
12, 31151, Note_on_c, 9, 42, 0
12, 31151, Note_on_c, 9, 63, 0
12, 31153, Note_on_c, 9, 35, 100
12, 31154, Note_on_c, 9, 35, 0
12, 31198, Note_on_c, 9, 62, 102
12, 31199, Note_on_c, 9, 62, 0
12, 31199, Note_on_c, 9, 45, 100
12, 31199, Note_on_c, 9, 43, 105
12, 31200, Note_on_c, 9, 43, 0
12, 31200, Note_on_c, 9, 45, 0
12, 31247, Note_on_c, 9, 42, 78
12, 31248, Note_on_c, 9, 42, 0
12, 31271, Note_on_c, 9, 42, 37
12, 31272, Note_on_c, 9, 42, 0
12, 31295, Note_on_c, 9, 42, 62
12, 31295, Note_on_c, 9, 35, 101
12, 31296, Note_on_c, 9, 35, 0
12, 31296, Note_on_c, 9, 42, 0
12, 31343, Note_on_c, 9, 42, 73
12, 31344, Note_on_c, 9, 42, 0
12, 31345, Note_on_c, 9, 35, 101
12, 31346, Note_on_c, 9, 35, 0
12, 31391, Note_on_c, 9, 45, 98
12, 31391, Note_on_c, 9, 43, 98
12, 31391, Note_on_c, 9, 64, 81
12, 31392, Note_on_c, 9, 64, 0
12, 31392, Note_on_c, 9, 43, 0
12, 31392, Note_on_c, 9, 45, 0
12, 31439, Note_on_c, 9, 42, 69
12, 31439, Note_on_c, 9, 64, 87
12, 31440, Note_on_c, 9, 64, 0
12, 31440, Note_on_c, 9, 42, 0
12, 31462, Note_on_c, 9, 42, 39
12, 31463, Note_on_c, 9, 42, 0
12, 31486, Note_on_c, 9, 42, 70
12, 31487, Note_on_c, 9, 42, 0
12, 31488, Note_on_c, 9, 35, 94
12, 31489, Note_on_c, 9, 35, 0
12, 31534, Note_on_c, 9, 42, 73
12, 31535, Note_on_c, 9, 42, 0
12, 31536, Note_on_c, 9, 63, 62
12, 31537, Note_on_c, 9, 63, 0
12, 31537, Note_on_c, 9, 35, 101
12, 31538, Note_on_c, 9, 35, 0
12, 31584, Note_on_c, 9, 62, 97
12, 31584, Note_on_c, 9, 45, 99
12, 31584, Note_on_c, 9, 43, 100
12, 31585, Note_on_c, 9, 43, 0
12, 31585, Note_on_c, 9, 45, 0
12, 31585, Note_on_c, 9, 62, 0
12, 31630, Note_on_c, 9, 42, 68
12, 31631, Note_on_c, 9, 42, 0
12, 31654, Note_on_c, 9, 42, 39
12, 31655, Note_on_c, 9, 42, 0
12, 31677, Note_on_c, 9, 42, 62
12, 31678, Note_on_c, 9, 42, 0
12, 31679, Note_on_c, 9, 35, 104
12, 31680, Note_on_c, 9, 35, 0
12, 31725, Note_on_c, 9, 63, 63
12, 31726, Note_on_c, 9, 63, 0
12, 31726, Note_on_c, 9, 42, 77
12, 31727, Note_on_c, 9, 42, 0
12, 31728, Note_on_c, 9, 35, 98
12, 31729, Note_on_c, 9, 35, 0
12, 31774, Note_on_c, 9, 43, 101
12, 31774, Note_on_c, 9, 45, 102
12, 31774, Note_on_c, 9, 64, 82
12, 31775, Note_on_c, 9, 64, 0
12, 31775, Note_on_c, 9, 45, 0
12, 31775, Note_on_c, 9, 43, 0
12, 31823, Note_on_c, 9, 42, 73
12, 31823, Note_on_c, 9, 64, 88
12, 31824, Note_on_c, 9, 64, 0
12, 31824, Note_on_c, 9, 42, 0
12, 31847, Note_on_c, 9, 42, 39
12, 31848, Note_on_c, 9, 42, 0
12, 31871, Note_on_c, 9, 42, 66
12, 31871, Note_on_c, 9, 35, 100
12, 31872, Note_on_c, 9, 35, 0
12, 31872, Note_on_c, 9, 42, 0
12, 31918, Note_on_c, 9, 42, 80
12, 31919, Note_on_c, 9, 42, 0
12, 31919, Note_on_c, 9, 35, 97
12, 31920, Note_on_c, 9, 35, 0
12, 31920, Note_on_c, 9, 63, 53
12, 31921, Note_on_c, 9, 63, 0
12, 31966, Note_on_c, 9, 43, 98
12, 31966, Note_on_c, 9, 45, 94
12, 31967, Note_on_c, 9, 45, 0
12, 31967, Note_on_c, 9, 43, 0
12, 31967, Note_on_c, 9, 62, 102
12, 31968, Note_on_c, 9, 62, 0
12, 32015, Note_on_c, 9, 42, 79
12, 32016, Note_on_c, 9, 42, 0
12, 32038, Note_on_c, 9, 42, 38
12, 32039, Note_on_c, 9, 42, 0
12, 32061, Note_on_c, 9, 42, 51
12, 32062, Note_on_c, 9, 42, 0
12, 32062, Note_on_c, 9, 35, 101
12, 32063, Note_on_c, 9, 35, 0
12, 32109, Note_on_c, 9, 42, 70
12, 32110, Note_on_c, 9, 42, 0
12, 32111, Note_on_c, 9, 35, 98
12, 32111, Note_on_c, 9, 63, 42
12, 32112, Note_on_c, 9, 63, 0
12, 32112, Note_on_c, 9, 35, 0
12, 32159, Note_on_c, 9, 64, 78
12, 32159, Note_on_c, 9, 43, 94
12, 32159, Note_on_c, 9, 45, 97
12, 32160, Note_on_c, 9, 45, 0
12, 32160, Note_on_c, 9, 43, 0
12, 32160, Note_on_c, 9, 64, 0
12, 32207, Note_on_c, 9, 64, 90
12, 32207, Note_on_c, 9, 42, 82
12, 32208, Note_on_c, 9, 42, 0
12, 32208, Note_on_c, 9, 64, 0
12, 32231, Note_on_c, 9, 42, 40
12, 32232, Note_on_c, 9, 42, 0
12, 32255, Note_on_c, 9, 42, 72
12, 32255, Note_on_c, 9, 35, 99
12, 32256, Note_on_c, 9, 35, 0
12, 32256, Note_on_c, 9, 42, 0
12, 32303, Note_on_c, 9, 42, 74
12, 32304, Note_on_c, 9, 42, 0
12, 32304, Note_on_c, 9, 35, 98
12, 32305, Note_on_c, 9, 35, 0
12, 32351, Note_on_c, 9, 62, 97
12, 32351, Note_on_c, 9, 43, 95
12, 32351, Note_on_c, 9, 45, 98
12, 32352, Note_on_c, 9, 45, 0
12, 32352, Note_on_c, 9, 43, 0
12, 32352, Note_on_c, 9, 62, 0
12, 32399, Note_on_c, 9, 42, 69
12, 32400, Note_on_c, 9, 42, 0
12, 32423, Note_on_c, 9, 42, 37
12, 32424, Note_on_c, 9, 42, 0
12, 32447, Note_on_c, 9, 42, 71
12, 32448, Note_on_c, 9, 42, 0
12, 32448, Note_on_c, 9, 35, 100
12, 32449, Note_on_c, 9, 35, 0
12, 32494, Note_on_c, 9, 42, 79
12, 32495, Note_on_c, 9, 42, 0
12, 32495, Note_on_c, 9, 63, 66
12, 32496, Note_on_c, 9, 63, 0
12, 32497, Note_on_c, 9, 35, 101
12, 32498, Note_on_c, 9, 35, 0
12, 32543, Note_on_c, 9, 64, 78
12, 32544, Note_on_c, 9, 64, 0
12, 32545, Note_on_c, 9, 43, 102
12, 32545, Note_on_c, 9, 45, 101
12, 32546, Note_on_c, 9, 45, 0
12, 32546, Note_on_c, 9, 43, 0
12, 32591, Note_on_c, 9, 64, 90
12, 32592, Note_on_c, 9, 64, 0
12, 32592, Note_on_c, 9, 42, 73
12, 32593, Note_on_c, 9, 42, 0
12, 32617, Note_on_c, 9, 42, 39
12, 32618, Note_on_c, 9, 42, 0
12, 32641, Note_on_c, 9, 35, 108
12, 32641, Note_on_c, 9, 42, 68
12, 32642, Note_on_c, 9, 42, 0
12, 32642, Note_on_c, 9, 35, 0
12, 32686, Note_on_c, 9, 63, 61
12, 32687, Note_on_c, 9, 63, 0
12, 32687, Note_on_c, 9, 43, 104
12, 32687, Note_on_c, 9, 45, 105
12, 32688, Note_on_c, 9, 45, 0
12, 32688, Note_on_c, 9, 43, 0
12, 32735, Note_on_c, 9, 45, 112
12, 32735, Note_on_c, 9, 43, 111
12, 32735, Note_on_c, 9, 62, 102
12, 32736, Note_on_c, 9, 62, 0
12, 32736, Note_on_c, 9, 43, 0
12, 32736, Note_on_c, 9, 45, 0
12, 32783, Note_on_c, 9, 38, 97
12, 32784, Note_on_c, 9, 38, 0
12, 32808, Note_on_c, 9, 38, 100
12, 32809, Note_on_c, 9, 38, 0
12, 32833, Note_on_c, 9, 38, 100
12, 32834, Note_on_c, 9, 38, 0
12, 32857, Note_on_c, 9, 38, 94
12, 32858, Note_on_c, 9, 38, 0
12, 32879, Note_on_c, 9, 63, 59
12, 32880, Note_on_c, 9, 63, 0
12, 32882, Note_on_c, 9, 38, 98
12, 32883, Note_on_c, 9, 38, 0
12, 32905, Note_on_c, 9, 38, 112
12, 32906, Note_on_c, 9, 38, 0
12, 32926, Note_on_c, 9, 64, 80
12, 32927, Note_on_c, 9, 64, 0
12, 32930, Note_on_c, 9, 45, 116
12, 32931, Note_on_c, 9, 45, 0
12, 32955, Note_on_c, 9, 38, 98
12, 32956, Note_on_c, 9, 38, 0
12, 32975, Note_on_c, 9, 64, 83
12, 32976, Note_on_c, 9, 64, 0
12, 32979, Note_on_c, 9, 38, 98
12, 32980, Note_on_c, 9, 38, 0
12, 33004, Note_on_c, 9, 38, 107
12, 33005, Note_on_c, 9, 38, 0
12, 33023, Note_on_c, 9, 49, 90
12, 33024, Note_on_c, 9, 49, 0
12, 33024, Note_on_c, 9, 35, 104
12, 33025, Note_on_c, 9, 35, 0
12, 33070, Note_on_c, 9, 63, 83
12, 33071, Note_on_c, 9, 63, 0
12, 33071, Note_on_c, 9, 35, 97
12, 33071, Note_on_c, 9, 42, 77
12, 33072, Note_on_c, 9, 42, 0
12, 33072, Note_on_c, 9, 35, 0
12, 33119, Note_on_c, 9, 62, 89
12, 33119, Note_on_c, 9, 45, 100
12, 33119, Note_on_c, 9, 43, 100
12, 33120, Note_on_c, 9, 43, 0
12, 33120, Note_on_c, 9, 45, 0
12, 33120, Note_on_c, 9, 62, 0
12, 33167, Note_on_c, 9, 42, 76
12, 33168, Note_on_c, 9, 42, 0
12, 33191, Note_on_c, 9, 42, 37
12, 33192, Note_on_c, 9, 42, 0
12, 33216, Note_on_c, 9, 42, 73
12, 33216, Note_on_c, 9, 35, 106
12, 33217, Note_on_c, 9, 35, 0
12, 33217, Note_on_c, 9, 42, 0
12, 33262, Note_on_c, 9, 42, 76
12, 33263, Note_on_c, 9, 42, 0
12, 33263, Note_on_c, 9, 63, 66
12, 33264, Note_on_c, 9, 63, 0
12, 33264, Note_on_c, 9, 35, 98
12, 33265, Note_on_c, 9, 35, 0
12, 33311, Note_on_c, 9, 45, 95
12, 33311, Note_on_c, 9, 43, 97
12, 33312, Note_on_c, 9, 43, 0
12, 33312, Note_on_c, 9, 45, 0
12, 33312, Note_on_c, 9, 64, 77
12, 33313, Note_on_c, 9, 64, 0
12, 33359, Note_on_c, 9, 42, 75
12, 33360, Note_on_c, 9, 42, 0
12, 33360, Note_on_c, 9, 64, 83
12, 33361, Note_on_c, 9, 64, 0
12, 33383, Note_on_c, 9, 42, 39
12, 33384, Note_on_c, 9, 42, 0
12, 33407, Note_on_c, 9, 42, 73
12, 33407, Note_on_c, 9, 35, 100
12, 33408, Note_on_c, 9, 35, 0
12, 33408, Note_on_c, 9, 42, 0
12, 33454, Note_on_c, 9, 42, 74
12, 33455, Note_on_c, 9, 42, 0
12, 33455, Note_on_c, 9, 35, 99
12, 33456, Note_on_c, 9, 35, 0
12, 33457, Note_on_c, 9, 63, 70
12, 33458, Note_on_c, 9, 63, 0
12, 33502, Note_on_c, 9, 43, 102
12, 33502, Note_on_c, 9, 45, 102
12, 33503, Note_on_c, 9, 45, 0
12, 33503, Note_on_c, 9, 43, 0
12, 33505, Note_on_c, 9, 62, 90
12, 33506, Note_on_c, 9, 62, 0
12, 33551, Note_on_c, 9, 42, 58
12, 33552, Note_on_c, 9, 42, 0
12, 33575, Note_on_c, 9, 42, 37
12, 33576, Note_on_c, 9, 42, 0
12, 33598, Note_on_c, 9, 42, 72
12, 33598, Note_on_c, 9, 35, 99
12, 33599, Note_on_c, 9, 35, 0
12, 33599, Note_on_c, 9, 42, 0
12, 33646, Note_on_c, 9, 42, 76
12, 33646, Note_on_c, 9, 35, 101
12, 33647, Note_on_c, 9, 35, 0
12, 33647, Note_on_c, 9, 42, 0
12, 33647, Note_on_c, 9, 63, 56
12, 33648, Note_on_c, 9, 63, 0
12, 33695, Note_on_c, 9, 64, 83
12, 33695, Note_on_c, 9, 43, 97
12, 33695, Note_on_c, 9, 45, 101
12, 33696, Note_on_c, 9, 45, 0
12, 33696, Note_on_c, 9, 43, 0
12, 33696, Note_on_c, 9, 64, 0
12, 33742, Note_on_c, 9, 42, 75
12, 33743, Note_on_c, 9, 42, 0
12, 33743, Note_on_c, 9, 64, 90
12, 33744, Note_on_c, 9, 64, 0
12, 33766, Note_on_c, 9, 42, 37
12, 33767, Note_on_c, 9, 42, 0
12, 33790, Note_on_c, 9, 42, 74
12, 33791, Note_on_c, 9, 42, 0
12, 33791, Note_on_c, 9, 35, 105
12, 33792, Note_on_c, 9, 35, 0
12, 33838, Note_on_c, 9, 42, 78
12, 33839, Note_on_c, 9, 42, 0
12, 33840, Note_on_c, 9, 35, 97
12, 33841, Note_on_c, 9, 35, 0
12, 33887, Note_on_c, 9, 45, 97
12, 33887, Note_on_c, 9, 43, 97
12, 33888, Note_on_c, 9, 43, 0
12, 33888, Note_on_c, 9, 45, 0
12, 33888, Note_on_c, 9, 62, 87
12, 33889, Note_on_c, 9, 62, 0
12, 33935, Note_on_c, 9, 42, 73
12, 33936, Note_on_c, 9, 42, 0
12, 33959, Note_on_c, 9, 42, 40
12, 33960, Note_on_c, 9, 42, 0
12, 33983, Note_on_c, 9, 35, 104
12, 33983, Note_on_c, 9, 42, 73
12, 33984, Note_on_c, 9, 42, 0
12, 33984, Note_on_c, 9, 35, 0
12, 34031, Note_on_c, 9, 42, 82
12, 34031, Note_on_c, 9, 35, 94
12, 34032, Note_on_c, 9, 35, 0
12, 34032, Note_on_c, 9, 42, 0
12, 34079, Note_on_c, 9, 43, 102
12, 34079, Note_on_c, 9, 64, 79
12, 34079, Note_on_c, 9, 45, 94
12, 34080, Note_on_c, 9, 45, 0
12, 34080, Note_on_c, 9, 64, 0
12, 34080, Note_on_c, 9, 43, 0
12, 34126, Note_on_c, 9, 42, 73
12, 34127, Note_on_c, 9, 42, 0
12, 34127, Note_on_c, 9, 64, 90
12, 34128, Note_on_c, 9, 64, 0
12, 34150, Note_on_c, 9, 42, 38
12, 34151, Note_on_c, 9, 42, 0
12, 34174, Note_on_c, 9, 35, 101
12, 34175, Note_on_c, 9, 35, 0
12, 34175, Note_on_c, 9, 42, 70
12, 34176, Note_on_c, 9, 42, 0
12, 34223, Note_on_c, 9, 35, 94
12, 34223, Note_on_c, 9, 42, 79
12, 34223, Note_on_c, 9, 63, 47
12, 34224, Note_on_c, 9, 63, 0
12, 34224, Note_on_c, 9, 42, 0
12, 34224, Note_on_c, 9, 35, 0
12, 34271, Note_on_c, 9, 45, 97
12, 34271, Note_on_c, 9, 43, 98
12, 34271, Note_on_c, 9, 62, 104
12, 34272, Note_on_c, 9, 62, 0
12, 34272, Note_on_c, 9, 43, 0
12, 34272, Note_on_c, 9, 45, 0
12, 34318, Note_on_c, 9, 42, 69
12, 34319, Note_on_c, 9, 42, 0
12, 34342, Note_on_c, 9, 42, 40
12, 34343, Note_on_c, 9, 42, 0
12, 34367, Note_on_c, 9, 42, 73
12, 34367, Note_on_c, 9, 35, 98
12, 34368, Note_on_c, 9, 35, 0
12, 34368, Note_on_c, 9, 42, 0
12, 34414, Note_on_c, 9, 42, 76
12, 34414, Note_on_c, 9, 63, 61
12, 34415, Note_on_c, 9, 63, 0
12, 34415, Note_on_c, 9, 42, 0
12, 34415, Note_on_c, 9, 35, 100
12, 34416, Note_on_c, 9, 35, 0
12, 34461, Note_on_c, 9, 64, 80
12, 34462, Note_on_c, 9, 64, 0
12, 34462, Note_on_c, 9, 43, 91
12, 34462, Note_on_c, 9, 45, 94
12, 34463, Note_on_c, 9, 45, 0
12, 34463, Note_on_c, 9, 43, 0
12, 34510, Note_on_c, 9, 64, 93
12, 34510, Note_on_c, 9, 42, 66
12, 34511, Note_on_c, 9, 42, 0
12, 34511, Note_on_c, 9, 64, 0
12, 34535, Note_on_c, 9, 42, 38
12, 34536, Note_on_c, 9, 42, 0
12, 34557, Note_on_c, 9, 42, 68
12, 34558, Note_on_c, 9, 42, 0
12, 34559, Note_on_c, 9, 35, 100
12, 34560, Note_on_c, 9, 35, 0
12, 34605, Note_on_c, 9, 42, 75
12, 34606, Note_on_c, 9, 42, 0
12, 34606, Note_on_c, 9, 35, 99
12, 34607, Note_on_c, 9, 35, 0
12, 34607, Note_on_c, 9, 63, 59
12, 34608, Note_on_c, 9, 63, 0
12, 34654, Note_on_c, 9, 43, 94
12, 34654, Note_on_c, 9, 45, 98
12, 34655, Note_on_c, 9, 45, 0
12, 34655, Note_on_c, 9, 43, 0
12, 34655, Note_on_c, 9, 62, 98
12, 34656, Note_on_c, 9, 62, 0
12, 34702, Note_on_c, 9, 42, 82
12, 34703, Note_on_c, 9, 42, 0
12, 34726, Note_on_c, 9, 42, 39
12, 34727, Note_on_c, 9, 42, 0
12, 34750, Note_on_c, 9, 35, 100
12, 34751, Note_on_c, 9, 35, 0
12, 34751, Note_on_c, 9, 42, 73
12, 34752, Note_on_c, 9, 42, 0
12, 34798, Note_on_c, 9, 35, 99
12, 34799, Note_on_c, 9, 35, 0
12, 34799, Note_on_c, 9, 42, 76
12, 34800, Note_on_c, 9, 42, 0
12, 34846, Note_on_c, 9, 45, 98
12, 34846, Note_on_c, 9, 43, 101
12, 34846, Note_on_c, 9, 64, 78
12, 34847, Note_on_c, 9, 64, 0
12, 34847, Note_on_c, 9, 43, 0
12, 34847, Note_on_c, 9, 45, 0
12, 34893, Note_on_c, 9, 42, 79
12, 34894, Note_on_c, 9, 42, 0
12, 34895, Note_on_c, 9, 64, 90
12, 34896, Note_on_c, 9, 64, 0
12, 34918, Note_on_c, 9, 42, 36
12, 34919, Note_on_c, 9, 42, 0
12, 34942, Note_on_c, 9, 42, 70
12, 34943, Note_on_c, 9, 42, 0
12, 34943, Note_on_c, 9, 35, 101
12, 34944, Note_on_c, 9, 35, 0
12, 34991, Note_on_c, 9, 42, 76
12, 34991, Note_on_c, 9, 35, 95
12, 34992, Note_on_c, 9, 35, 0
12, 34992, Note_on_c, 9, 42, 0
12, 35038, Note_on_c, 9, 45, 97
12, 35038, Note_on_c, 9, 62, 91
12, 35038, Note_on_c, 9, 43, 94
12, 35039, Note_on_c, 9, 43, 0
12, 35039, Note_on_c, 9, 62, 0
12, 35039, Note_on_c, 9, 45, 0
12, 35087, Note_on_c, 9, 42, 75
12, 35088, Note_on_c, 9, 42, 0
12, 35111, Note_on_c, 9, 42, 36
12, 35112, Note_on_c, 9, 42, 0
12, 35135, Note_on_c, 9, 35, 101
12, 35135, Note_on_c, 9, 42, 71
12, 35136, Note_on_c, 9, 42, 0
12, 35136, Note_on_c, 9, 35, 0
12, 35183, Note_on_c, 9, 35, 98
12, 35183, Note_on_c, 9, 42, 79
12, 35184, Note_on_c, 9, 42, 0
12, 35184, Note_on_c, 9, 35, 0
12, 35184, Note_on_c, 9, 63, 51
12, 35185, Note_on_c, 9, 63, 0
12, 35229, Note_on_c, 9, 45, 99
12, 35230, Note_on_c, 9, 45, 0
12, 35230, Note_on_c, 9, 43, 95
12, 35231, Note_on_c, 9, 43, 0
12, 35231, Note_on_c, 9, 64, 83
12, 35232, Note_on_c, 9, 64, 0
12, 35278, Note_on_c, 9, 42, 73
12, 35279, Note_on_c, 9, 42, 0
12, 35279, Note_on_c, 9, 64, 90
12, 35280, Note_on_c, 9, 64, 0
12, 35302, Note_on_c, 9, 42, 36
12, 35303, Note_on_c, 9, 42, 0
12, 35326, Note_on_c, 9, 42, 74
12, 35326, Note_on_c, 9, 35, 99
12, 35327, Note_on_c, 9, 35, 0
12, 35327, Note_on_c, 9, 42, 0
12, 35374, Note_on_c, 9, 35, 99
12, 35375, Note_on_c, 9, 35, 0
12, 35375, Note_on_c, 9, 42, 76
12, 35376, Note_on_c, 9, 42, 0
12, 35376, Note_on_c, 9, 63, 46
12, 35377, Note_on_c, 9, 63, 0
12, 35422, Note_on_c, 9, 45, 95
12, 35422, Note_on_c, 9, 43, 94
12, 35423, Note_on_c, 9, 43, 0
12, 35423, Note_on_c, 9, 45, 0
12, 35423, Note_on_c, 9, 62, 96
12, 35424, Note_on_c, 9, 62, 0
12, 35470, Note_on_c, 9, 42, 79
12, 35471, Note_on_c, 9, 42, 0
12, 35494, Note_on_c, 9, 42, 37
12, 35495, Note_on_c, 9, 42, 0
12, 35519, Note_on_c, 9, 42, 71
12, 35519, Note_on_c, 9, 35, 102
12, 35520, Note_on_c, 9, 35, 0
12, 35520, Note_on_c, 9, 42, 0
12, 35567, Note_on_c, 9, 42, 79
12, 35568, Note_on_c, 9, 42, 0
12, 35569, Note_on_c, 9, 35, 108
12, 35570, Note_on_c, 9, 35, 0
12, 35615, Note_on_c, 9, 64, 78
12, 35616, Note_on_c, 9, 64, 0
12, 35616, Note_on_c, 9, 43, 94
12, 35616, Note_on_c, 9, 45, 98
12, 35617, Note_on_c, 9, 45, 0
12, 35617, Note_on_c, 9, 43, 0
12, 35663, Note_on_c, 9, 42, 72
12, 35664, Note_on_c, 9, 42, 0
12, 35665, Note_on_c, 9, 64, 90
12, 35666, Note_on_c, 9, 64, 0
12, 35687, Note_on_c, 9, 42, 38
12, 35688, Note_on_c, 9, 42, 0
12, 35712, Note_on_c, 9, 42, 69
12, 35713, Note_on_c, 9, 42, 0
12, 35714, Note_on_c, 9, 35, 101
12, 35715, Note_on_c, 9, 35, 0
12, 35758, Note_on_c, 9, 43, 98
12, 35758, Note_on_c, 9, 45, 102
12, 35759, Note_on_c, 9, 45, 0
12, 35759, Note_on_c, 9, 43, 0
12, 35759, Note_on_c, 9, 63, 68
12, 35760, Note_on_c, 9, 63, 0
12, 35807, Note_on_c, 9, 45, 109
12, 35807, Note_on_c, 9, 43, 106
12, 35808, Note_on_c, 9, 43, 0
12, 35808, Note_on_c, 9, 45, 0
12, 35808, Note_on_c, 9, 62, 101
12, 35809, Note_on_c, 9, 62, 0
12, 35856, Note_on_c, 9, 38, 105
12, 35857, Note_on_c, 9, 38, 0
12, 35879, Note_on_c, 9, 38, 93
12, 35880, Note_on_c, 9, 38, 0
12, 35903, Note_on_c, 9, 38, 107
12, 35904, Note_on_c, 9, 38, 0
12, 35927, Note_on_c, 9, 38, 102
12, 35928, Note_on_c, 9, 38, 0
12, 35950, Note_on_c, 9, 63, 68
12, 35951, Note_on_c, 9, 63, 0
12, 35952, Note_on_c, 9, 38, 116
12, 35953, Note_on_c, 9, 38, 0
12, 35975, Note_on_c, 9, 38, 116
12, 35976, Note_on_c, 9, 38, 0
12, 35998, Note_on_c, 9, 64, 84
12, 35999, Note_on_c, 9, 64, 0
12, 36000, Note_on_c, 9, 45, 121
12, 36001, Note_on_c, 9, 45, 0
12, 36023, Note_on_c, 9, 38, 90
12, 36024, Note_on_c, 9, 38, 0
12, 36046, Note_on_c, 9, 64, 95
12, 36047, Note_on_c, 9, 64, 0
12, 36047, Note_on_c, 9, 38, 118
12, 36048, Note_on_c, 9, 38, 0
12, 36072, Note_on_c, 9, 38, 114
12, 36073, Note_on_c, 9, 38, 0
12, 36094, Note_on_c, 9, 49, 91
12, 36095, Note_on_c, 9, 49, 0
12, 36095, Note_on_c, 9, 35, 102
12, 36096, Note_on_c, 9, 35, 0
12, 36142, Note_on_c, 9, 42, 74
12, 36143, Note_on_c, 9, 42, 0
12, 36143, Note_on_c, 9, 35, 97
12, 36144, Note_on_c, 9, 35, 0
12, 36191, Note_on_c, 9, 45, 100
12, 36191, Note_on_c, 9, 62, 102
12, 36191, Note_on_c, 9, 43, 101
12, 36192, Note_on_c, 9, 43, 0
12, 36192, Note_on_c, 9, 62, 0
12, 36192, Note_on_c, 9, 45, 0
12, 36240, Note_on_c, 9, 42, 74
12, 36241, Note_on_c, 9, 42, 0
12, 36264, Note_on_c, 9, 42, 39
12, 36265, Note_on_c, 9, 42, 0
12, 36287, Note_on_c, 9, 35, 97
12, 36288, Note_on_c, 9, 35, 0
12, 36288, Note_on_c, 9, 42, 72
12, 36289, Note_on_c, 9, 42, 0
12, 36335, Note_on_c, 9, 42, 74
12, 36335, Note_on_c, 9, 35, 99
12, 36336, Note_on_c, 9, 35, 0
12, 36336, Note_on_c, 9, 42, 0
12, 36337, Note_on_c, 9, 63, 68
12, 36338, Note_on_c, 9, 63, 0
12, 36383, Note_on_c, 9, 45, 98
12, 36383, Note_on_c, 9, 43, 98
12, 36384, Note_on_c, 9, 43, 0
12, 36384, Note_on_c, 9, 45, 0
12, 36384, Note_on_c, 9, 64, 83
12, 36385, Note_on_c, 9, 64, 0
12, 36431, Note_on_c, 9, 42, 68
12, 36432, Note_on_c, 9, 42, 0
12, 36432, Note_on_c, 9, 64, 95
12, 36433, Note_on_c, 9, 64, 0
12, 36455, Note_on_c, 9, 42, 38
12, 36456, Note_on_c, 9, 42, 0
12, 36480, Note_on_c, 9, 42, 72
12, 36481, Note_on_c, 9, 42, 0
12, 36481, Note_on_c, 9, 35, 97
12, 36482, Note_on_c, 9, 35, 0
12, 36527, Note_on_c, 9, 42, 75
12, 36528, Note_on_c, 9, 42, 0
12, 36528, Note_on_c, 9, 35, 97
12, 36529, Note_on_c, 9, 35, 0
12, 36529, Note_on_c, 9, 63, 58
12, 36530, Note_on_c, 9, 63, 0
12, 36575, Note_on_c, 9, 62, 102
12, 36575, Note_on_c, 9, 45, 99
12, 36575, Note_on_c, 9, 43, 98
12, 36576, Note_on_c, 9, 43, 0
12, 36576, Note_on_c, 9, 45, 0
12, 36576, Note_on_c, 9, 62, 0
12, 36622, Note_on_c, 9, 42, 74
12, 36623, Note_on_c, 9, 42, 0
12, 36646, Note_on_c, 9, 42, 38
12, 36647, Note_on_c, 9, 42, 0
12, 36671, Note_on_c, 9, 42, 70
12, 36671, Note_on_c, 9, 35, 98
12, 36672, Note_on_c, 9, 35, 0
12, 36672, Note_on_c, 9, 42, 0
12, 36719, Note_on_c, 9, 42, 73
12, 36719, Note_on_c, 9, 35, 106
12, 36719, Note_on_c, 9, 63, 51
12, 36720, Note_on_c, 9, 63, 0
12, 36720, Note_on_c, 9, 35, 0
12, 36720, Note_on_c, 9, 42, 0
12, 36766, Note_on_c, 9, 43, 102
12, 36766, Note_on_c, 9, 45, 104
12, 36767, Note_on_c, 9, 45, 0
12, 36767, Note_on_c, 9, 43, 0
12, 36767, Note_on_c, 9, 64, 74
12, 36768, Note_on_c, 9, 64, 0
12, 36814, Note_on_c, 9, 42, 82
12, 36815, Note_on_c, 9, 42, 0
12, 36815, Note_on_c, 9, 64, 89
12, 36816, Note_on_c, 9, 64, 0
12, 36839, Note_on_c, 9, 42, 38
12, 36840, Note_on_c, 9, 42, 0
12, 36863, Note_on_c, 9, 42, 47
12, 36864, Note_on_c, 9, 42, 0
12, 36864, Note_on_c, 9, 35, 102
12, 36865, Note_on_c, 9, 35, 0
12, 36909, Note_on_c, 9, 35, 100
12, 36910, Note_on_c, 9, 35, 0
12, 36912, Note_on_c, 9, 42, 72
12, 36913, Note_on_c, 9, 42, 0
12, 36958, Note_on_c, 9, 45, 99
12, 36958, Note_on_c, 9, 43, 95
12, 36959, Note_on_c, 9, 43, 0
12, 36959, Note_on_c, 9, 45, 0
12, 36959, Note_on_c, 9, 62, 95
12, 36960, Note_on_c, 9, 62, 0
12, 37005, Note_on_c, 9, 42, 73
12, 37006, Note_on_c, 9, 42, 0
12, 37030, Note_on_c, 9, 42, 39
12, 37031, Note_on_c, 9, 42, 0
12, 37054, Note_on_c, 9, 42, 68
12, 37055, Note_on_c, 9, 42, 0
12, 37055, Note_on_c, 9, 35, 100
12, 37056, Note_on_c, 9, 35, 0
12, 37102, Note_on_c, 9, 42, 82
12, 37103, Note_on_c, 9, 42, 0
12, 37103, Note_on_c, 9, 63, 60
12, 37104, Note_on_c, 9, 63, 0
12, 37104, Note_on_c, 9, 35, 98
12, 37105, Note_on_c, 9, 35, 0
12, 37151, Note_on_c, 9, 64, 80
12, 37151, Note_on_c, 9, 45, 100
12, 37151, Note_on_c, 9, 43, 102
12, 37152, Note_on_c, 9, 43, 0
12, 37152, Note_on_c, 9, 45, 0
12, 37152, Note_on_c, 9, 64, 0
12, 37198, Note_on_c, 9, 64, 91
12, 37199, Note_on_c, 9, 64, 0
12, 37201, Note_on_c, 9, 42, 69
12, 37202, Note_on_c, 9, 42, 0
12, 37225, Note_on_c, 9, 42, 37
12, 37226, Note_on_c, 9, 42, 0
12, 37247, Note_on_c, 9, 35, 97
12, 37248, Note_on_c, 9, 35, 0
12, 37249, Note_on_c, 9, 42, 63
12, 37250, Note_on_c, 9, 42, 0
12, 37294, Note_on_c, 9, 63, 59
12, 37295, Note_on_c, 9, 63, 0
12, 37295, Note_on_c, 9, 42, 79
12, 37296, Note_on_c, 9, 42, 0
12, 37296, Note_on_c, 9, 35, 98
12, 37297, Note_on_c, 9, 35, 0
12, 37343, Note_on_c, 9, 45, 99
12, 37343, Note_on_c, 9, 62, 96
12, 37343, Note_on_c, 9, 43, 101
12, 37344, Note_on_c, 9, 43, 0
12, 37344, Note_on_c, 9, 62, 0
12, 37344, Note_on_c, 9, 45, 0
12, 37391, Note_on_c, 9, 42, 70
12, 37392, Note_on_c, 9, 42, 0
12, 37415, Note_on_c, 9, 42, 37
12, 37416, Note_on_c, 9, 42, 0
12, 37438, Note_on_c, 9, 35, 97
12, 37439, Note_on_c, 9, 35, 0
12, 37440, Note_on_c, 9, 42, 73
12, 37441, Note_on_c, 9, 42, 0
12, 37487, Note_on_c, 9, 35, 105
12, 37487, Note_on_c, 9, 42, 79
12, 37488, Note_on_c, 9, 42, 0
12, 37488, Note_on_c, 9, 35, 0
12, 37534, Note_on_c, 9, 45, 99
12, 37534, Note_on_c, 9, 43, 102
12, 37535, Note_on_c, 9, 43, 0
12, 37535, Note_on_c, 9, 45, 0
12, 37535, Note_on_c, 9, 64, 73
12, 37536, Note_on_c, 9, 64, 0
12, 37582, Note_on_c, 9, 64, 87
12, 37583, Note_on_c, 9, 64, 0
12, 37583, Note_on_c, 9, 42, 71
12, 37584, Note_on_c, 9, 42, 0
12, 37606, Note_on_c, 9, 42, 36
12, 37607, Note_on_c, 9, 42, 0
12, 37631, Note_on_c, 9, 42, 73
12, 37632, Note_on_c, 9, 42, 0
12, 37633, Note_on_c, 9, 35, 97
12, 37634, Note_on_c, 9, 35, 0
12, 37678, Note_on_c, 9, 42, 70
12, 37679, Note_on_c, 9, 42, 0
12, 37679, Note_on_c, 9, 63, 46
12, 37680, Note_on_c, 9, 63, 0
12, 37681, Note_on_c, 9, 35, 104
12, 37682, Note_on_c, 9, 35, 0
12, 37727, Note_on_c, 9, 62, 96
12, 37727, Note_on_c, 9, 43, 97
12, 37727, Note_on_c, 9, 45, 100
12, 37728, Note_on_c, 9, 45, 0
12, 37728, Note_on_c, 9, 43, 0
12, 37728, Note_on_c, 9, 62, 0
12, 37777, Note_on_c, 9, 42, 71
12, 37778, Note_on_c, 9, 42, 0
12, 37801, Note_on_c, 9, 42, 66
12, 37802, Note_on_c, 9, 42, 0
12, 37822, Note_on_c, 9, 35, 86
12, 37823, Note_on_c, 9, 35, 0
12, 37823, Note_on_c, 9, 42, 42
12, 37824, Note_on_c, 9, 42, 0
12, 37870, Note_on_c, 9, 63, 52
12, 37871, Note_on_c, 9, 63, 0
12, 37871, Note_on_c, 9, 42, 70
12, 37871, Note_on_c, 9, 35, 98
12, 37872, Note_on_c, 9, 35, 0
12, 37872, Note_on_c, 9, 42, 0
12, 37917, Note_on_c, 9, 45, 97
12, 37918, Note_on_c, 9, 45, 0
12, 37918, Note_on_c, 9, 43, 94
12, 37918, Note_on_c, 9, 64, 88
12, 37919, Note_on_c, 9, 64, 0
12, 37919, Note_on_c, 9, 43, 0
12, 37966, Note_on_c, 9, 42, 82
12, 37966, Note_on_c, 9, 64, 90
12, 37967, Note_on_c, 9, 64, 0
12, 37967, Note_on_c, 9, 42, 0
12, 37990, Note_on_c, 9, 42, 39
12, 37991, Note_on_c, 9, 42, 0
12, 38015, Note_on_c, 9, 42, 73
12, 38015, Note_on_c, 9, 35, 94
12, 38016, Note_on_c, 9, 35, 0
12, 38016, Note_on_c, 9, 42, 0
12, 38062, Note_on_c, 9, 42, 79
12, 38063, Note_on_c, 9, 42, 0
12, 38064, Note_on_c, 9, 35, 102
12, 38065, Note_on_c, 9, 35, 0
12, 38110, Note_on_c, 9, 45, 100
12, 38110, Note_on_c, 9, 43, 100
12, 38111, Note_on_c, 9, 43, 0
12, 38111, Note_on_c, 9, 45, 0
12, 38112, Note_on_c, 9, 62, 101
12, 38113, Note_on_c, 9, 62, 0
12, 38159, Note_on_c, 9, 42, 74
12, 38160, Note_on_c, 9, 42, 0
12, 38183, Note_on_c, 9, 42, 36
12, 38184, Note_on_c, 9, 42, 0
12, 38206, Note_on_c, 9, 35, 99
12, 38207, Note_on_c, 9, 35, 0
12, 38207, Note_on_c, 9, 42, 66
12, 38208, Note_on_c, 9, 42, 0
12, 38254, Note_on_c, 9, 42, 78
12, 38254, Note_on_c, 9, 63, 65
12, 38254, Note_on_c, 9, 35, 105
12, 38255, Note_on_c, 9, 35, 0
12, 38255, Note_on_c, 9, 63, 0
12, 38255, Note_on_c, 9, 42, 0
12, 38302, Note_on_c, 9, 43, 95
12, 38302, Note_on_c, 9, 45, 98
12, 38303, Note_on_c, 9, 45, 0
12, 38303, Note_on_c, 9, 43, 0
12, 38303, Note_on_c, 9, 64, 85
12, 38304, Note_on_c, 9, 64, 0
12, 38349, Note_on_c, 9, 42, 70
12, 38350, Note_on_c, 9, 42, 0
12, 38351, Note_on_c, 9, 64, 93
12, 38352, Note_on_c, 9, 64, 0
12, 38373, Note_on_c, 9, 42, 39
12, 38374, Note_on_c, 9, 42, 0
12, 38397, Note_on_c, 9, 42, 70
12, 38398, Note_on_c, 9, 42, 0
12, 38398, Note_on_c, 9, 35, 98
12, 38399, Note_on_c, 9, 35, 0
12, 38445, Note_on_c, 9, 42, 73
12, 38446, Note_on_c, 9, 42, 0
12, 38446, Note_on_c, 9, 35, 104
12, 38447, Note_on_c, 9, 35, 0
12, 38493, Note_on_c, 9, 45, 97
12, 38494, Note_on_c, 9, 45, 0
12, 38494, Note_on_c, 9, 43, 91
12, 38495, Note_on_c, 9, 43, 0
12, 38497, Note_on_c, 9, 62, 97
12, 38498, Note_on_c, 9, 62, 0
12, 38542, Note_on_c, 9, 42, 68
12, 38543, Note_on_c, 9, 42, 0
12, 38565, Note_on_c, 9, 42, 37
12, 38566, Note_on_c, 9, 42, 0
12, 38590, Note_on_c, 9, 42, 66
12, 38591, Note_on_c, 9, 42, 0
12, 38591, Note_on_c, 9, 35, 100
12, 38592, Note_on_c, 9, 35, 0
12, 38638, Note_on_c, 9, 42, 73
12, 38639, Note_on_c, 9, 42, 0
12, 38639, Note_on_c, 9, 63, 59
12, 38640, Note_on_c, 9, 63, 0
12, 38640, Note_on_c, 9, 35, 101
12, 38641, Note_on_c, 9, 35, 0
12, 38687, Note_on_c, 9, 64, 83
12, 38687, Note_on_c, 9, 43, 98
12, 38687, Note_on_c, 9, 45, 99
12, 38688, Note_on_c, 9, 45, 0
12, 38688, Note_on_c, 9, 43, 0
12, 38688, Note_on_c, 9, 64, 0
12, 38735, Note_on_c, 9, 42, 68
12, 38736, Note_on_c, 9, 42, 0
12, 38736, Note_on_c, 9, 64, 89
12, 38737, Note_on_c, 9, 64, 0
12, 38758, Note_on_c, 9, 42, 37
12, 38759, Note_on_c, 9, 42, 0
12, 38783, Note_on_c, 9, 42, 76
12, 38783, Note_on_c, 9, 35, 105
12, 38784, Note_on_c, 9, 35, 0
12, 38784, Note_on_c, 9, 42, 0
12, 38831, Note_on_c, 9, 63, 46
12, 38831, Note_on_c, 9, 35, 99
12, 38832, Note_on_c, 9, 35, 0
12, 38832, Note_on_c, 9, 63, 0
12, 38832, Note_on_c, 9, 42, 72
12, 38833, Note_on_c, 9, 42, 0
12, 38880, Note_on_c, 9, 45, 99
12, 38880, Note_on_c, 9, 43, 97
12, 38881, Note_on_c, 9, 43, 0
12, 38881, Note_on_c, 9, 45, 0
12, 38881, Note_on_c, 9, 62, 98
12, 38882, Note_on_c, 9, 62, 0
12, 38926, Note_on_c, 9, 42, 68
12, 38927, Note_on_c, 9, 42, 0
12, 38949, Note_on_c, 9, 42, 37
12, 38950, Note_on_c, 9, 42, 0
12, 38975, Note_on_c, 9, 35, 100
12, 38975, Note_on_c, 9, 42, 79
12, 38976, Note_on_c, 9, 42, 0
12, 38976, Note_on_c, 9, 35, 0
12, 39023, Note_on_c, 9, 42, 83
12, 39023, Note_on_c, 9, 35, 104
12, 39023, Note_on_c, 9, 63, 63
12, 39024, Note_on_c, 9, 63, 0
12, 39024, Note_on_c, 9, 35, 0
12, 39024, Note_on_c, 9, 42, 0
12, 39071, Note_on_c, 9, 43, 99
12, 39071, Note_on_c, 9, 45, 97
12, 39072, Note_on_c, 9, 45, 0
12, 39072, Note_on_c, 9, 43, 0
12, 39118, Note_on_c, 9, 42, 76
12, 39118, Note_on_c, 9, 64, 87
12, 39119, Note_on_c, 9, 64, 0
12, 39119, Note_on_c, 9, 42, 0
12, 39166, Note_on_c, 9, 49, 83
12, 39167, Note_on_c, 9, 49, 0
12, 39169, Note_on_c, 9, 35, 98
12, 39170, Note_on_c, 9, 35, 0
12, 39214, Note_on_c, 9, 42, 78
12, 39215, Note_on_c, 9, 42, 0
12, 39217, Note_on_c, 9, 35, 101
12, 39218, Note_on_c, 9, 35, 0
12, 39263, Note_on_c, 9, 62, 91
12, 39263, Note_on_c, 9, 45, 97
12, 39263, Note_on_c, 9, 43, 99
12, 39264, Note_on_c, 9, 43, 0
12, 39264, Note_on_c, 9, 45, 0
12, 39264, Note_on_c, 9, 62, 0
12, 39311, Note_on_c, 9, 42, 71
12, 39312, Note_on_c, 9, 42, 0
12, 39335, Note_on_c, 9, 42, 36
12, 39336, Note_on_c, 9, 42, 0
12, 39357, Note_on_c, 9, 35, 98
12, 39358, Note_on_c, 9, 35, 0
12, 39359, Note_on_c, 9, 42, 73
12, 39360, Note_on_c, 9, 42, 0
12, 39406, Note_on_c, 9, 42, 79
12, 39407, Note_on_c, 9, 42, 0
12, 39407, Note_on_c, 9, 35, 100
12, 39407, Note_on_c, 9, 63, 51
12, 39408, Note_on_c, 9, 63, 0
12, 39408, Note_on_c, 9, 35, 0
12, 39455, Note_on_c, 9, 64, 82
12, 39455, Note_on_c, 9, 45, 94
12, 39455, Note_on_c, 9, 43, 92
12, 39456, Note_on_c, 9, 43, 0
12, 39456, Note_on_c, 9, 45, 0
12, 39456, Note_on_c, 9, 64, 0
12, 39501, Note_on_c, 9, 42, 69
12, 39502, Note_on_c, 9, 42, 0
12, 39504, Note_on_c, 9, 64, 88
12, 39505, Note_on_c, 9, 64, 0
12, 39550, Note_on_c, 9, 49, 82
12, 39551, Note_on_c, 9, 49, 0
12, 39551, Note_on_c, 9, 35, 108
12, 39552, Note_on_c, 9, 35, 0
12, 39598, Note_on_c, 9, 42, 70
12, 39599, Note_on_c, 9, 42, 0
12, 39600, Note_on_c, 9, 63, 51
12, 39601, Note_on_c, 9, 63, 0
12, 39601, Note_on_c, 9, 35, 99
12, 39602, Note_on_c, 9, 35, 0
12, 39647, Note_on_c, 9, 62, 90
12, 39647, Note_on_c, 9, 45, 94
12, 39647, Note_on_c, 9, 43, 100
12, 39648, Note_on_c, 9, 43, 0
12, 39648, Note_on_c, 9, 45, 0
12, 39648, Note_on_c, 9, 62, 0
12, 39696, Note_on_c, 9, 42, 73
12, 39697, Note_on_c, 9, 42, 0
12, 39719, Note_on_c, 9, 42, 36
12, 39720, Note_on_c, 9, 42, 0
12, 39743, Note_on_c, 9, 35, 108
12, 39743, Note_on_c, 9, 42, 71
12, 39744, Note_on_c, 9, 42, 0
12, 39744, Note_on_c, 9, 35, 0
12, 39790, Note_on_c, 9, 42, 74
12, 39791, Note_on_c, 9, 42, 0
12, 39791, Note_on_c, 9, 63, 64
12, 39791, Note_on_c, 9, 35, 105
12, 39792, Note_on_c, 9, 35, 0
12, 39792, Note_on_c, 9, 63, 0
12, 39838, Note_on_c, 9, 45, 98
12, 39838, Note_on_c, 9, 43, 99
12, 39838, Note_on_c, 9, 64, 82
12, 39839, Note_on_c, 9, 64, 0
12, 39839, Note_on_c, 9, 43, 0
12, 39839, Note_on_c, 9, 45, 0
12, 39886, Note_on_c, 9, 64, 84
12, 39886, Note_on_c, 9, 42, 66
12, 39887, Note_on_c, 9, 42, 0
12, 39887, Note_on_c, 9, 64, 0
12, 39933, Note_on_c, 9, 49, 80
12, 39934, Note_on_c, 9, 49, 0
12, 39934, Note_on_c, 9, 35, 102
12, 39935, Note_on_c, 9, 35, 0
12, 39981, Note_on_c, 9, 42, 70
12, 39982, Note_on_c, 9, 42, 0
12, 39982, Note_on_c, 9, 35, 99
12, 39983, Note_on_c, 9, 35, 0
12, 40030, Note_on_c, 9, 45, 100
12, 40030, Note_on_c, 9, 43, 100
12, 40031, Note_on_c, 9, 43, 0
12, 40031, Note_on_c, 9, 45, 0
12, 40031, Note_on_c, 9, 62, 96
12, 40032, Note_on_c, 9, 62, 0
12, 40078, Note_on_c, 9, 42, 75
12, 40079, Note_on_c, 9, 42, 0
12, 40102, Note_on_c, 9, 42, 37
12, 40103, Note_on_c, 9, 42, 0
12, 40126, Note_on_c, 9, 35, 102
12, 40126, Note_on_c, 9, 42, 74
12, 40127, Note_on_c, 9, 42, 0
12, 40127, Note_on_c, 9, 35, 0
12, 40174, Note_on_c, 9, 63, 60
12, 40174, Note_on_c, 9, 42, 77
12, 40175, Note_on_c, 9, 42, 0
12, 40175, Note_on_c, 9, 63, 0
12, 40175, Note_on_c, 9, 35, 100
12, 40176, Note_on_c, 9, 35, 0
12, 40222, Note_on_c, 9, 64, 82
12, 40223, Note_on_c, 9, 64, 0
12, 40223, Note_on_c, 9, 45, 99
12, 40223, Note_on_c, 9, 43, 99
12, 40224, Note_on_c, 9, 43, 0
12, 40224, Note_on_c, 9, 45, 0
12, 40271, Note_on_c, 9, 64, 93
12, 40271, Note_on_c, 9, 42, 69
12, 40272, Note_on_c, 9, 42, 0
12, 40272, Note_on_c, 9, 64, 0
12, 40318, Note_on_c, 9, 35, 102
12, 40318, Note_on_c, 9, 49, 79
12, 40319, Note_on_c, 9, 49, 0
12, 40319, Note_on_c, 9, 35, 0
12, 40366, Note_on_c, 9, 35, 100
12, 40366, Note_on_c, 9, 42, 70
12, 40367, Note_on_c, 9, 42, 0
12, 40367, Note_on_c, 9, 35, 0
12, 40413, Note_on_c, 9, 45, 100
12, 40413, Note_on_c, 9, 43, 100
12, 40414, Note_on_c, 9, 43, 0
12, 40414, Note_on_c, 9, 45, 0
12, 40414, Note_on_c, 9, 62, 96
12, 40415, Note_on_c, 9, 62, 0
12, 40462, Note_on_c, 9, 42, 68
12, 40463, Note_on_c, 9, 42, 0
12, 40486, Note_on_c, 9, 42, 35
12, 40487, Note_on_c, 9, 42, 0
12, 40509, Note_on_c, 9, 35, 102
12, 40510, Note_on_c, 9, 35, 0
12, 40510, Note_on_c, 9, 42, 72
12, 40511, Note_on_c, 9, 42, 0
12, 40558, Note_on_c, 9, 42, 78
12, 40558, Note_on_c, 9, 35, 104
12, 40559, Note_on_c, 9, 35, 0
12, 40559, Note_on_c, 9, 42, 0
12, 40559, Note_on_c, 9, 64, 51
12, 40560, Note_on_c, 9, 64, 0
12, 40606, Note_on_c, 9, 43, 94
12, 40606, Note_on_c, 9, 45, 97
12, 40607, Note_on_c, 9, 45, 0
12, 40607, Note_on_c, 9, 43, 0
12, 40607, Note_on_c, 9, 64, 82
12, 40608, Note_on_c, 9, 64, 0
12, 40655, Note_on_c, 9, 64, 93
12, 40655, Note_on_c, 9, 42, 92
12, 40656, Note_on_c, 9, 42, 0
12, 40656, Note_on_c, 9, 64, 0
12, 40703, Note_on_c, 9, 49, 59
12, 40704, Note_on_c, 9, 49, 0
12, 40705, Note_on_c, 9, 35, 102
12, 40706, Note_on_c, 9, 35, 0
12, 40751, Note_on_c, 9, 42, 77
12, 40752, Note_on_c, 9, 42, 0
12, 40752, Note_on_c, 9, 35, 101
12, 40753, Note_on_c, 9, 35, 0
12, 40799, Note_on_c, 9, 45, 98
12, 40799, Note_on_c, 9, 62, 98
12, 40799, Note_on_c, 9, 43, 99
12, 40800, Note_on_c, 9, 43, 0
12, 40800, Note_on_c, 9, 62, 0
12, 40800, Note_on_c, 9, 45, 0
12, 40847, Note_on_c, 9, 42, 74
12, 40848, Note_on_c, 9, 42, 0
12, 40870, Note_on_c, 9, 42, 35
12, 40871, Note_on_c, 9, 42, 0
12, 40894, Note_on_c, 9, 35, 95
12, 40895, Note_on_c, 9, 35, 0
12, 40895, Note_on_c, 9, 42, 70
12, 40896, Note_on_c, 9, 42, 0
12, 40942, Note_on_c, 9, 42, 73
12, 40943, Note_on_c, 9, 42, 0
12, 40943, Note_on_c, 9, 35, 98
12, 40944, Note_on_c, 9, 35, 0
12, 40945, Note_on_c, 9, 64, 50
12, 40946, Note_on_c, 9, 64, 0
12, 40990, Note_on_c, 9, 43, 100
12, 40990, Note_on_c, 9, 45, 97
12, 40991, Note_on_c, 9, 45, 0
12, 40991, Note_on_c, 9, 43, 0
12, 40993, Note_on_c, 9, 64, 83
12, 40994, Note_on_c, 9, 64, 0
12, 41038, Note_on_c, 9, 42, 71
12, 41039, Note_on_c, 9, 42, 0
12, 41041, Note_on_c, 9, 64, 89
12, 41042, Note_on_c, 9, 64, 0
12, 41062, Note_on_c, 9, 42, 38
12, 41063, Note_on_c, 9, 42, 0
12, 41086, Note_on_c, 9, 42, 69
12, 41086, Note_on_c, 9, 35, 104
12, 41087, Note_on_c, 9, 35, 0
12, 41087, Note_on_c, 9, 42, 0
12, 41133, Note_on_c, 9, 42, 74
12, 41134, Note_on_c, 9, 42, 0
12, 41135, Note_on_c, 9, 35, 95
12, 41136, Note_on_c, 9, 35, 0
12, 41137, Note_on_c, 9, 63, 50
12, 41138, Note_on_c, 9, 63, 0
12, 41182, Note_on_c, 9, 43, 94
12, 41182, Note_on_c, 9, 45, 95
12, 41183, Note_on_c, 9, 45, 0
12, 41183, Note_on_c, 9, 43, 0
12, 41183, Note_on_c, 9, 62, 96
12, 41184, Note_on_c, 9, 62, 0
12, 41230, Note_on_c, 9, 42, 70
12, 41231, Note_on_c, 9, 42, 0
12, 41254, Note_on_c, 9, 42, 38
12, 41255, Note_on_c, 9, 42, 0
12, 41278, Note_on_c, 9, 42, 74
12, 41278, Note_on_c, 9, 35, 100
12, 41279, Note_on_c, 9, 35, 0
12, 41279, Note_on_c, 9, 42, 0
12, 41325, Note_on_c, 9, 42, 79
12, 41325, Note_on_c, 9, 63, 53
12, 41326, Note_on_c, 9, 63, 0
12, 41326, Note_on_c, 9, 42, 0
12, 41326, Note_on_c, 9, 35, 99
12, 41327, Note_on_c, 9, 35, 0
12, 41374, Note_on_c, 9, 64, 89
12, 41374, Note_on_c, 9, 45, 95
12, 41374, Note_on_c, 9, 43, 100
12, 41375, Note_on_c, 9, 43, 0
12, 41375, Note_on_c, 9, 45, 0
12, 41375, Note_on_c, 9, 64, 0
12, 41422, Note_on_c, 9, 42, 67
12, 41423, Note_on_c, 9, 42, 0
12, 41423, Note_on_c, 9, 64, 90
12, 41424, Note_on_c, 9, 64, 0
12, 41470, Note_on_c, 9, 49, 89
12, 41470, Note_on_c, 9, 35, 101
12, 41471, Note_on_c, 9, 35, 0
12, 41471, Note_on_c, 9, 49, 0
12, 41518, Note_on_c, 9, 42, 75
12, 41519, Note_on_c, 9, 42, 0
12, 41519, Note_on_c, 9, 35, 100
12, 41520, Note_on_c, 9, 35, 0
12, 41566, Note_on_c, 9, 43, 102
12, 41566, Note_on_c, 9, 45, 100
12, 41567, Note_on_c, 9, 45, 0
12, 41567, Note_on_c, 9, 43, 0
12, 41567, Note_on_c, 9, 62, 95
12, 41568, Note_on_c, 9, 62, 0
12, 41614, Note_on_c, 9, 42, 80
12, 41615, Note_on_c, 9, 42, 0
12, 41638, Note_on_c, 9, 42, 37
12, 41639, Note_on_c, 9, 42, 0
12, 41663, Note_on_c, 9, 35, 106
12, 41663, Note_on_c, 9, 42, 71
12, 41664, Note_on_c, 9, 42, 0
12, 41664, Note_on_c, 9, 35, 0
12, 41710, Note_on_c, 9, 42, 79
12, 41711, Note_on_c, 9, 42, 0
12, 41711, Note_on_c, 9, 35, 100
12, 41712, Note_on_c, 9, 35, 0
12, 41758, Note_on_c, 9, 43, 94
12, 41758, Note_on_c, 9, 45, 94
12, 41759, Note_on_c, 9, 45, 0
12, 41759, Note_on_c, 9, 43, 0
12, 41761, Note_on_c, 9, 64, 83
12, 41762, Note_on_c, 9, 64, 0
12, 41807, Note_on_c, 9, 42, 79
12, 41808, Note_on_c, 9, 42, 0
12, 41808, Note_on_c, 9, 64, 90
12, 41809, Note_on_c, 9, 64, 0
12, 41831, Note_on_c, 9, 42, 38
12, 41832, Note_on_c, 9, 42, 0
12, 41854, Note_on_c, 9, 35, 95
12, 41855, Note_on_c, 9, 35, 0
12, 41855, Note_on_c, 9, 42, 67
12, 41856, Note_on_c, 9, 42, 0
12, 41901, Note_on_c, 9, 35, 100
12, 41902, Note_on_c, 9, 35, 0
12, 41903, Note_on_c, 9, 42, 80
12, 41904, Note_on_c, 9, 42, 0
12, 41949, Note_on_c, 9, 43, 100
12, 41949, Note_on_c, 9, 45, 99
12, 41950, Note_on_c, 9, 45, 0
12, 41950, Note_on_c, 9, 43, 0
12, 41952, Note_on_c, 9, 62, 98
12, 41953, Note_on_c, 9, 62, 0
12, 41999, Note_on_c, 9, 42, 71
12, 42000, Note_on_c, 9, 42, 0
12, 42023, Note_on_c, 9, 42, 67
12, 42024, Note_on_c, 9, 42, 0
12, 42046, Note_on_c, 9, 35, 97
12, 42046, Note_on_c, 9, 42, 69
12, 42047, Note_on_c, 9, 42, 0
12, 42047, Note_on_c, 9, 35, 0
12, 42094, Note_on_c, 9, 42, 80
12, 42094, Note_on_c, 9, 35, 99
12, 42095, Note_on_c, 9, 35, 0
12, 42095, Note_on_c, 9, 42, 0
12, 42096, Note_on_c, 9, 64, 62
12, 42097, Note_on_c, 9, 64, 0
12, 42142, Note_on_c, 9, 43, 100
12, 42142, Note_on_c, 9, 45, 98
12, 42143, Note_on_c, 9, 45, 0
12, 42143, Note_on_c, 9, 43, 0
12, 42143, Note_on_c, 9, 64, 86
12, 42144, Note_on_c, 9, 64, 0
12, 42190, Note_on_c, 9, 42, 73
12, 42191, Note_on_c, 9, 42, 0
12, 42191, Note_on_c, 9, 64, 91
12, 42192, Note_on_c, 9, 64, 0
12, 42213, Note_on_c, 9, 42, 68
12, 42214, Note_on_c, 9, 42, 0
12, 42238, Note_on_c, 9, 46, 73
12, 42239, Note_on_c, 9, 46, 0
12, 42239, Note_on_c, 9, 35, 108
12, 42240, Note_on_c, 9, 35, 0
12, 42601, Note_on_c, 9, 47, 84
12, 42602, Note_on_c, 9, 47, 0
12, 42612, Note_on_c, 9, 45, 91
12, 42613, Note_on_c, 9, 45, 0
12, 42620, Note_on_c, 9, 43, 101
12, 42621, Note_on_c, 9, 43, 0
12, 42621, Note_on_c, 9, 42, 73
12, 42622, Note_on_c, 9, 42, 0
12, 42625, Note_on_c, 9, 35, 94
12, 42626, Note_on_c, 9, 35, 0
12, 42626, End_track
13, 0, Start_track
13, 0, MIDI_port, 0
13, 143, Program_c, 10, 29
13, 144, Control_c, 10, 11, 127
13, 144, Control_c, 10, 7, 80
13, 144, Control_c, 10, 10, 8
13, 145, Control_c, 10, 91, 60
13, 145, Control_c, 10, 93, 40
13, 12188, Note_on_c, 10, 48, 103
13, 12189, Control_c, 10, 1, 0
13, 12189, Pitch_bend_c, 10, 8192
13, 12236, Note_on_c, 10, 43, 71
13, 12238, Note_on_c, 10, 48, 0
13, 12278, Note_on_c, 10, 43, 0
13, 12283, Note_on_c, 10, 45, 72
13, 12626, Note_on_c, 10, 45, 0
13, 12906, Note_on_c, 10, 45, 72
13, 12948, Note_on_c, 10, 45, 0
13, 12956, Note_on_c, 10, 45, 77
13, 13000, Note_on_c, 10, 45, 0
13, 13002, Note_on_c, 10, 43, 86
13, 13339, Note_on_c, 10, 43, 0
13, 13622, Note_on_c, 10, 43, 68
13, 13674, Note_on_c, 10, 43, 0
13, 13674, Note_on_c, 10, 48, 81
13, 13724, Note_on_c, 10, 49, 69
13, 13729, Note_on_c, 10, 48, 0
13, 13772, Note_on_c, 10, 50, 75
13, 13774, Note_on_c, 10, 49, 0
13, 14151, Note_on_c, 10, 50, 0
13, 14155, Note_on_c, 10, 55, 79
13, 14180, Note_on_c, 10, 57, 86
13, 14186, Note_on_c, 10, 55, 0
13, 14209, Note_on_c, 10, 50, 80
13, 14213, Note_on_c, 10, 57, 0
13, 14240, Note_on_c, 10, 50, 0
13, 14254, Note_on_c, 10, 50, 74
13, 14280, Note_on_c, 10, 50, 0
13, 14298, Note_on_c, 10, 50, 77
13, 14554, Note_on_c, 10, 50, 0
13, 15165, Note_on_c, 10, 50, 98
13, 15263, Note_on_c, 10, 53, 82
13, 15269, Note_on_c, 10, 50, 0
13, 15311, Note_on_c, 10, 50, 69
13, 15315, Note_on_c, 10, 53, 0
13, 15331, Note_on_c, 10, 50, 0
13, 15356, Pitch_bend_c, 10, 6670
13, 15359, Pitch_bend_c, 10, 4915
13, 15361, Pitch_bend_c, 10, 3160
13, 15363, Pitch_bend_c, 10, 1873
13, 15364, Note_on_c, 10, 57, 84
13, 15366, Pitch_bend_c, 10, 1054
13, 15368, Pitch_bend_c, 10, 820
13, 15374, Pitch_bend_c, 10, 1171
13, 15376, Pitch_bend_c, 10, 1522
13, 15379, Pitch_bend_c, 10, 1990
13, 15381, Pitch_bend_c, 10, 2458
13, 15384, Pitch_bend_c, 10, 3043
13, 15386, Pitch_bend_c, 10, 3511
13, 15389, Pitch_bend_c, 10, 4096
13, 15391, Pitch_bend_c, 10, 4798
13, 15394, Pitch_bend_c, 10, 5383
13, 15397, Pitch_bend_c, 10, 6085
13, 15399, Pitch_bend_c, 10, 6553
13, 15402, Pitch_bend_c, 10, 7021
13, 15404, Pitch_bend_c, 10, 7255
13, 15407, Pitch_bend_c, 10, 7723
13, 15409, Pitch_bend_c, 10, 8192
13, 15755, Note_on_c, 10, 57, 0
13, 15967, Pitch_bend_c, 10, 7957
13, 15969, Pitch_bend_c, 10, 7372
13, 15972, Pitch_bend_c, 10, 7021
13, 15975, Pitch_bend_c, 10, 6553
13, 15977, Pitch_bend_c, 10, 6085
13, 15980, Pitch_bend_c, 10, 5617
13, 15981, Note_on_c, 10, 57, 85
13, 15982, Pitch_bend_c, 10, 5266
13, 15985, Pitch_bend_c, 10, 5032
13, 15987, Pitch_bend_c, 10, 4798
13, 16000, Pitch_bend_c, 10, 5032
13, 16002, Pitch_bend_c, 10, 5383
13, 16005, Pitch_bend_c, 10, 5617
13, 16008, Pitch_bend_c, 10, 6085
13, 16010, Pitch_bend_c, 10, 6436
13, 16013, Pitch_bend_c, 10, 6787
13, 16015, Pitch_bend_c, 10, 7138
13, 16018, Pitch_bend_c, 10, 7372
13, 16020, Pitch_bend_c, 10, 7840
13, 16023, Pitch_bend_c, 10, 8192
13, 16042, Note_on_c, 10, 57, 0
13, 16051, Pitch_bend_c, 10, 7255
13, 16054, Pitch_bend_c, 10, 6670
13, 16056, Pitch_bend_c, 10, 6085
13, 16057, Note_on_c, 10, 57, 79
13, 16059, Pitch_bend_c, 10, 5851
13, 16060, Pitch_bend_c, 10, 5617
13, 16069, Pitch_bend_c, 10, 5851
13, 16071, Pitch_bend_c, 10, 6202
13, 16074, Pitch_bend_c, 10, 6553
13, 16076, Pitch_bend_c, 10, 6904
13, 16079, Pitch_bend_c, 10, 7138
13, 16081, Pitch_bend_c, 10, 7489
13, 16084, Pitch_bend_c, 10, 7723
13, 16087, Pitch_bend_c, 10, 8074
13, 16089, Pitch_bend_c, 10, 8192
13, 16121, Note_on_c, 10, 57, 0
13, 16130, Note_on_c, 10, 55, 82
13, 16416, Note_on_c, 10, 55, 0
13, 16894, Note_on_c, 10, 50, 81
13, 17088, Note_on_c, 10, 48, 74
13, 17090, Note_on_c, 10, 50, 0
13, 17133, Note_on_c, 10, 48, 0
13, 17133, Note_on_c, 10, 50, 71
13, 17162, Note_on_c, 10, 50, 0
13, 17178, Note_on_c, 10, 53, 80
13, 17231, Note_on_c, 10, 50, 67
13, 17237, Note_on_c, 10, 53, 0
13, 17254, Note_on_c, 10, 50, 0
13, 26539, Note_on_c, 10, 55, 101
13, 26591, Note_on_c, 10, 57, 91
13, 26596, Note_on_c, 10, 55, 0
13, 26875, Note_on_c, 10, 50, 87
13, 26877, Note_on_c, 10, 57, 0
13, 27057, Note_on_c, 10, 50, 0
13, 27066, Note_on_c, 10, 50, 80
13, 27427, Note_on_c, 10, 50, 0
13, 27449, Note_on_c, 10, 50, 82
13, 27504, Note_on_c, 10, 48, 74
13, 27509, Note_on_c, 10, 50, 0
13, 27550, Note_on_c, 10, 43, 81
13, 27551, Note_on_c, 10, 48, 0
13, 27595, Note_on_c, 10, 44, 73
13, 27598, Note_on_c, 10, 43, 0
13, 27646, Note_on_c, 10, 45, 81
13, 27652, Note_on_c, 10, 44, 0
13, 27923, Note_on_c, 10, 45, 0
13, 28267, Note_on_c, 10, 45, 99
13, 28315, Note_on_c, 10, 44, 88
13, 28321, Note_on_c, 10, 45, 0
13, 28364, Note_on_c, 10, 44, 0
13, 28364, Note_on_c, 10, 43, 85
13, 28960, Note_on_c, 10, 43, 0
13, 29037, Note_on_c, 10, 55, 103
13, 29059, Note_on_c, 10, 57, 78
13, 29062, Note_on_c, 10, 55, 0
13, 29084, Note_on_c, 10, 55, 88
13, 29100, Note_on_c, 10, 57, 0
13, 29115, Note_on_c, 10, 53, 84
13, 29119, Note_on_c, 10, 55, 0
13, 29139, Note_on_c, 10, 50, 92
13, 29147, Note_on_c, 10, 53, 0
13, 29178, Note_on_c, 10, 50, 0
13, 29182, Note_on_c, 10, 50, 92
13, 29678, Note_on_c, 10, 50, 0
13, 29804, Note_on_c, 10, 57, 84
13, 29855, Note_on_c, 10, 57, 0
13, 29857, Note_on_c, 10, 60, 86
13, 29994, Note_on_c, 10, 60, 0
13, 29997, Note_on_c, 10, 62, 80
13, 30058, Note_on_c, 10, 62, 0
13, 30569, Note_on_c, 10, 60, 86
13, 30610, Note_on_c, 10, 60, 0
13, 30621, Note_on_c, 10, 60, 95
13, 30759, Note_on_c, 10, 60, 0
13, 30761, Note_on_c, 10, 57, 69
13, 30909, Note_on_c, 10, 57, 0
13, 31342, Note_on_c, 10, 57, 85
13, 31393, Note_on_c, 10, 57, 0
13, 31413, Note_on_c, 10, 56, 78
13, 31478, Note_on_c, 10, 56, 0
13, 31490, Note_on_c, 10, 55, 80
13, 31680, Note_on_c, 10, 55, 0
13, 31868, Note_on_c, 10, 55, 98
13, 31896, Note_on_c, 10, 53, 84
13, 31904, Note_on_c, 10, 55, 0
13, 31918, Note_on_c, 10, 55, 74
13, 31924, Note_on_c, 10, 53, 0
13, 31936, Note_on_c, 10, 55, 0
13, 31965, Note_on_c, 10, 53, 81
13, 32037, Note_on_c, 10, 53, 0
13, 32057, Note_on_c, 10, 55, 81
13, 32061, Note_on_c, 10, 57, 96
13, 32071, Note_on_c, 10, 55, 0
13, 32105, Note_on_c, 10, 62, 95
13, 32106, Note_on_c, 10, 57, 0
13, 32120, Note_on_c, 10, 62, 0
13, 32155, Note_on_c, 10, 53, 89
13, 32204, Note_on_c, 10, 50, 72
13, 32206, Note_on_c, 10, 53, 0
13, 32296, Note_on_c, 10, 50, 0
13, 32300, Note_on_c, 10, 50, 77
13, 32348, Note_on_c, 10, 50, 0
13, 32351, Note_on_c, 10, 50, 69
13, 32400, Note_on_c, 10, 50, 0
13, 32402, Note_on_c, 10, 50, 56
13, 32447, Note_on_c, 10, 50, 0
13, 32448, Note_on_c, 10, 50, 60
13, 32490, Note_on_c, 10, 50, 0
13, 32495, Note_on_c, 10, 50, 70
13, 32543, Note_on_c, 10, 50, 0
13, 32545, Note_on_c, 10, 50, 60
13, 32592, Note_on_c, 10, 50, 0
13, 32593, Note_on_c, 10, 50, 79
13, 32640, Note_on_c, 10, 50, 0
13, 32644, Note_on_c, 10, 50, 71
13, 32813, Note_on_c, 10, 50, 0
13, 32829, Note_on_c, 10, 55, 92
13, 32850, Note_on_c, 10, 57, 81
13, 32859, Note_on_c, 10, 55, 0
13, 32875, Note_on_c, 10, 60, 101
13, 32882, Note_on_c, 10, 57, 0
13, 32909, Note_on_c, 10, 60, 0
13, 32923, Note_on_c, 10, 60, 98
13, 32956, Note_on_c, 10, 60, 0
13, 32974, Note_on_c, 10, 60, 91
13, 32998, Note_on_c, 10, 60, 0
13, 33021, Note_on_c, 10, 60, 89
13, 33045, Note_on_c, 10, 62, 89
13, 33050, Note_on_c, 10, 60, 0
13, 33299, Note_on_c, 10, 62, 0
13, 33639, Note_on_c, 10, 60, 93
13, 33731, Pitch_bend_c, 10, 8426
13, 33736, Pitch_bend_c, 10, 8543
13, 33741, Pitch_bend_c, 10, 8777
13, 33745, Pitch_bend_c, 10, 8894
13, 33751, Pitch_bend_c, 10, 9128
13, 33758, Pitch_bend_c, 10, 9245
13, 33763, Pitch_bend_c, 10, 9479
13, 33766, Pitch_bend_c, 10, 9596
13, 33771, Pitch_bend_c, 10, 9830
13, 33774, Pitch_bend_c, 10, 10064
13, 33779, Pitch_bend_c, 10, 10181
13, 33784, Pitch_bend_c, 10, 10415
13, 33789, Pitch_bend_c, 10, 10649
13, 33794, Pitch_bend_c, 10, 10883
13, 33802, Pitch_bend_c, 10, 11000
13, 33804, Pitch_bend_c, 10, 11234
13, 33809, Pitch_bend_c, 10, 11351
13, 33817, Pitch_bend_c, 10, 11000
13, 33819, Pitch_bend_c, 10, 10415
13, 33822, Pitch_bend_c, 10, 9245
13, 33824, Pitch_bend_c, 10, 8192
13, 33836, Note_on_c, 10, 60, 0
13, 33836, Note_on_c, 10, 57, 74
13, 33984, Note_on_c, 10, 57, 0
13, 34606, Note_on_c, 10, 43, 73
13, 34650, Note_on_c, 10, 43, 0
13, 34654, Note_on_c, 10, 43, 79
13, 34746, Note_on_c, 10, 43, 0
13, 34753, Note_on_c, 10, 43, 71
13, 35000, Note_on_c, 10, 43, 0
13, 35133, Note_on_c, 10, 53, 79
13, 35166, Note_on_c, 10, 53, 0
13, 35180, Note_on_c, 10, 53, 86
13, 35230, Note_on_c, 10, 55, 85
13, 35234, Note_on_c, 10, 53, 0
13, 35267, Note_on_c, 10, 55, 0
13, 35279, Note_on_c, 10, 55, 91
13, 35321, Note_on_c, 10, 55, 0
13, 35326, Pitch_bend_c, 10, 2926
13, 35328, Note_on_c, 10, 60, 90
13, 35331, Pitch_bend_c, 10, 3160
13, 35334, Pitch_bend_c, 10, 3979
13, 35336, Pitch_bend_c, 10, 5032
13, 35339, Pitch_bend_c, 10, 6319
13, 35341, Pitch_bend_c, 10, 7957
13, 35344, Pitch_bend_c, 10, 8192
13, 35357, Note_on_c, 10, 60, 0
13, 35371, Note_on_c, 10, 62, 86
13, 35382, Note_on_c, 10, 62, 0
13, 35468, Note_on_c, 10, 60, 80
13, 35475, Note_on_c, 10, 60, 0
13, 35519, Note_on_c, 10, 60, 68
13, 35529, Note_on_c, 10, 62, 80
13, 35536, Note_on_c, 10, 60, 0
13, 35713, Note_on_c, 10, 62, 0
13, 35741, Pitch_bend_c, 10, 7957
13, 35744, Pitch_bend_c, 10, 7372
13, 35746, Pitch_bend_c, 10, 7021
13, 35749, Pitch_bend_c, 10, 6436
13, 35752, Pitch_bend_c, 10, 5968
13, 35754, Pitch_bend_c, 10, 5500
13, 35756, Pitch_bend_c, 10, 5149
13, 35756, Note_on_c, 10, 65, 93
13, 35759, Pitch_bend_c, 10, 4798
13, 35762, Pitch_bend_c, 10, 4564
13, 35764, Pitch_bend_c, 10, 4330
13, 35772, Pitch_bend_c, 10, 4564
13, 35775, Pitch_bend_c, 10, 4915
13, 35777, Pitch_bend_c, 10, 5266
13, 35780, Pitch_bend_c, 10, 5851
13, 35782, Pitch_bend_c, 10, 6319
13, 35785, Pitch_bend_c, 10, 6787
13, 35787, Pitch_bend_c, 10, 7021
13, 35792, Pitch_bend_c, 10, 7489
13, 35795, Pitch_bend_c, 10, 7723
13, 35797, Pitch_bend_c, 10, 8192
13, 35853, Note_on_c, 10, 65, 0
13, 35855, Note_on_c, 10, 62, 79
13, 35864, Note_on_c, 10, 62, 0
13, 35892, Pitch_bend_c, 10, 7723
13, 35894, Pitch_bend_c, 10, 7138
13, 35897, Pitch_bend_c, 10, 6670
13, 35899, Note_on_c, 10, 65, 93
13, 35899, Pitch_bend_c, 10, 6436
13, 35910, Pitch_bend_c, 10, 6553
13, 35912, Pitch_bend_c, 10, 6787
13, 35915, Pitch_bend_c, 10, 7138
13, 35917, Pitch_bend_c, 10, 7255
13, 35920, Pitch_bend_c, 10, 7489
13, 35922, Pitch_bend_c, 10, 7723
13, 35925, Pitch_bend_c, 10, 7957
13, 35927, Pitch_bend_c, 10, 8192
13, 35976, Note_on_c, 10, 65, 0
13, 35977, Note_on_c, 10, 62, 66
13, 35984, Note_on_c, 10, 62, 0
13, 35998, Note_on_c, 10, 65, 99
13, 36044, Note_on_c, 10, 62, 80
13, 36046, Note_on_c, 10, 65, 0
13, 36055, Note_on_c, 10, 62, 0
13, 36069, Pitch_bend_c, 10, 8074
13, 36072, Pitch_bend_c, 10, 7255
13, 36075, Pitch_bend_c, 10, 6436
13, 36077, Pitch_bend_c, 10, 5617
13, 36080, Pitch_bend_c, 10, 4798
13, 36082, Pitch_bend_c, 10, 4096
13, 36085, Pitch_bend_c, 10, 3394
13, 36088, Pitch_bend_c, 10, 2926
13, 36089, Note_on_c, 10, 68, 78
13, 36090, Pitch_bend_c, 10, 2575
13, 36093, Pitch_bend_c, 10, 2341
13, 36100, Pitch_bend_c, 10, 2458
13, 36103, Pitch_bend_c, 10, 2926
13, 36105, Pitch_bend_c, 10, 3277
13, 36108, Pitch_bend_c, 10, 3745
13, 36110, Pitch_bend_c, 10, 4213
13, 36113, Pitch_bend_c, 10, 4564
13, 36115, Pitch_bend_c, 10, 4915
13, 36118, Pitch_bend_c, 10, 5266
13, 36120, Pitch_bend_c, 10, 5734
13, 36123, Pitch_bend_c, 10, 6085
13, 36126, Pitch_bend_c, 10, 6436
13, 36128, Pitch_bend_c, 10, 6787
13, 36130, Pitch_bend_c, 10, 7021
13, 36133, Pitch_bend_c, 10, 7372
13, 36136, Pitch_bend_c, 10, 7489
13, 36138, Pitch_bend_c, 10, 7723
13, 36141, Pitch_bend_c, 10, 8074
13, 36144, Pitch_bend_c, 10, 8192
13, 36177, Note_on_c, 10, 68, 0
13, 36188, Note_on_c, 10, 67, 96
13, 36240, Note_on_c, 10, 65, 65
13, 36242, Note_on_c, 10, 67, 0
13, 36258, Note_on_c, 10, 65, 0
13, 36287, Note_on_c, 10, 62, 73
13, 36690, Note_on_c, 10, 62, 0
13, 36718, Note_on_c, 10, 67, 95
13, 36750, Pitch_bend_c, 10, 9128
13, 36753, Pitch_bend_c, 10, 9830
13, 36755, Pitch_bend_c, 10, 10415
13, 36758, Pitch_bend_c, 10, 10883
13, 36760, Pitch_bend_c, 10, 11351
13, 36763, Pitch_bend_c, 10, 11468
13, 36768, Pitch_bend_c, 10, 11351
13, 36770, Pitch_bend_c, 10, 10766
13, 36773, Pitch_bend_c, 10, 9830
13, 36776, Pitch_bend_c, 10, 8543
13, 36778, Pitch_bend_c, 10, 8192
13, 36791, Note_on_c, 10, 65, 75
13, 36800, Note_on_c, 10, 67, 0
13, 36815, Note_on_c, 10, 62, 73
13, 36818, Note_on_c, 10, 65, 0
13, 36856, Note_on_c, 10, 62, 0
13, 36860, Pitch_bend_c, 10, 4564
13, 36861, Note_on_c, 10, 61, 68
13, 36865, Pitch_bend_c, 10, 4330
13, 36875, Pitch_bend_c, 10, 4564
13, 36878, Pitch_bend_c, 10, 4798
13, 36880, Pitch_bend_c, 10, 5032
13, 36883, Pitch_bend_c, 10, 5266
13, 36886, Pitch_bend_c, 10, 5500
13, 36888, Pitch_bend_c, 10, 5851
13, 36891, Pitch_bend_c, 10, 6202
13, 36893, Pitch_bend_c, 10, 6553
13, 36896, Pitch_bend_c, 10, 6904
13, 36898, Pitch_bend_c, 10, 7021
13, 36901, Pitch_bend_c, 10, 7255
13, 36903, Pitch_bend_c, 10, 7489
13, 36906, Pitch_bend_c, 10, 7723
13, 36908, Pitch_bend_c, 10, 8192
13, 36946, Note_on_c, 10, 61, 0
13, 36949, Note_on_c, 10, 57, 62
13, 37131, Note_on_c, 10, 57, 0
13, 37483, Note_on_c, 10, 55, 84
13, 37496, Note_on_c, 10, 55, 0
13, 37533, Note_on_c, 10, 55, 78
13, 37536, Note_on_c, 10, 57, 96
13, 37544, Note_on_c, 10, 55, 0
13, 37585, Note_on_c, 10, 57, 0
13, 37586, Note_on_c, 10, 55, 74
13, 37824, Note_on_c, 10, 55, 0
13, 38059, Note_on_c, 10, 55, 86
13, 38083, Note_on_c, 10, 53, 71
13, 38091, Note_on_c, 10, 55, 0
13, 38112, Note_on_c, 10, 53, 0
13, 38133, Note_on_c, 10, 55, 78
13, 38151, Note_on_c, 10, 53, 65
13, 38163, Note_on_c, 10, 55, 0
13, 38178, Note_on_c, 10, 53, 0
13, 38203, Note_on_c, 10, 55, 88
13, 38231, Note_on_c, 10, 53, 65
13, 38236, Note_on_c, 10, 55, 0
13, 38254, Note_on_c, 10, 53, 0
13, 38276, Note_on_c, 10, 55, 84
13, 38299, Note_on_c, 10, 53, 74
13, 38307, Note_on_c, 10, 55, 0
13, 38328, Note_on_c, 10, 53, 0
13, 38348, Note_on_c, 10, 55, 88
13, 38366, Note_on_c, 10, 57, 71
13, 38368, Note_on_c, 10, 55, 0
13, 38390, Note_on_c, 10, 55, 76
13, 38404, Note_on_c, 10, 57, 0
13, 38414, Note_on_c, 10, 53, 66
13, 38422, Note_on_c, 10, 55, 0
13, 38437, Note_on_c, 10, 50, 69
13, 38443, Note_on_c, 10, 53, 0
13, 38480, Note_on_c, 10, 50, 0
13, 38488, Note_on_c, 10, 50, 70
13, 38632, Note_on_c, 10, 50, 0
13, 39166, Note_on_c, 10, 50, 99
13, 39787, Note_on_c, 10, 48, 105
13, 39802, Note_on_c, 10, 50, 0
13, 39835, Note_on_c, 10, 48, 0
13, 39836, Note_on_c, 10, 43, 98
13, 39880, Note_on_c, 10, 44, 61
13, 39888, Note_on_c, 10, 43, 0
13, 39912, Note_on_c, 10, 44, 0
13, 39925, Note_on_c, 10, 44, 79
13, 39946, Note_on_c, 10, 45, 86
13, 39952, Note_on_c, 10, 44, 0
13, 40224, Note_on_c, 10, 45, 0
13, 40224, Note_on_c, 10, 50, 95
13, 40248, Note_on_c, 10, 53, 81
13, 40251, Note_on_c, 10, 50, 0
13, 40274, Note_on_c, 10, 55, 79
13, 40281, Note_on_c, 10, 53, 0
13, 40294, Note_on_c, 10, 57, 84
13, 40297, Note_on_c, 10, 55, 0
13, 40311, Note_on_c, 10, 57, 0
13, 40556, Note_on_c, 10, 56, 68
13, 40561, Note_on_c, 10, 57, 71
13, 40570, Note_on_c, 10, 56, 0
13, 40631, Note_on_c, 10, 56, 68
13, 40633, Note_on_c, 10, 57, 0
13, 40697, Note_on_c, 10, 56, 0
13, 40698, Note_on_c, 10, 55, 77
13, 40926, Note_on_c, 10, 55, 0
13, 40940, Note_on_c, 10, 55, 88
13, 40964, Note_on_c, 10, 53, 82
13, 40970, Note_on_c, 10, 55, 0
13, 40989, Note_on_c, 10, 50, 74
13, 40990, Note_on_c, 10, 53, 0
13, 41007, Note_on_c, 10, 50, 0
13, 41033, Note_on_c, 10, 43, 67
13, 41178, Note_on_c, 10, 43, 0
13, 41514, Note_on_c, 10, 57, 98
13, 41567, Note_on_c, 10, 55, 96
13, 41572, Note_on_c, 10, 57, 0
13, 41590, Note_on_c, 10, 53, 74
13, 41598, Note_on_c, 10, 55, 0
13, 41612, Note_on_c, 10, 50, 80
13, 41619, Note_on_c, 10, 53, 0
13, 41652, Note_on_c, 10, 50, 0
13, 41659, Note_on_c, 10, 50, 86
13, 41695, Note_on_c, 10, 50, 0
13, 41711, Note_on_c, 10, 57, 99
13, 41758, Note_on_c, 10, 55, 89
13, 41764, Note_on_c, 10, 57, 0
13, 41783, Note_on_c, 10, 53, 75
13, 41792, Note_on_c, 10, 55, 0
13, 41800, Note_on_c, 10, 50, 75
13, 41809, Note_on_c, 10, 53, 0
13, 41850, Note_on_c, 10, 53, 96
13, 41860, Note_on_c, 10, 50, 0
13, 41886, Note_on_c, 10, 53, 0
13, 41901, Note_on_c, 10, 57, 99
13, 41948, Note_on_c, 10, 55, 89
13, 41952, Note_on_c, 10, 57, 0
13, 41974, Note_on_c, 10, 53, 80
13, 41984, Note_on_c, 10, 55, 0
13, 41991, Note_on_c, 10, 50, 76
13, 42000, Note_on_c, 10, 53, 0
13, 42032, Note_on_c, 10, 50, 0
13, 42041, Note_on_c, 10, 50, 92
13, 42077, Note_on_c, 10, 50, 0
13, 42091, Note_on_c, 10, 57, 98
13, 42140, Note_on_c, 10, 57, 0
13, 42140, Note_on_c, 10, 55, 96
13, 42162, Note_on_c, 10, 53, 81
13, 42170, Note_on_c, 10, 55, 0
13, 42186, Note_on_c, 10, 50, 93
13, 42192, Note_on_c, 10, 53, 0
13, 42234, Note_on_c, 10, 50, 0
13, 42236, Note_on_c, 10, 50, 92
13, 42621, Note_on_c, 10, 50, 0
13, 42621, End_track
14, 0, Start_track
14, 0, MIDI_port, 0
14, 148, Program_c, 11, 67
14, 149, Control_c, 11, 7, 85
14, 149, Control_c, 11, 10, 27
14, 149, Control_c, 11, 11, 127
14, 150, Control_c, 11, 91, 55
14, 150, Control_c, 11, 93, 10
14, 7679, Note_on_c, 11, 50, 85
14, 7680, Pitch_bend_c, 11, 8192
14, 7680, Control_c, 11, 1, 0
14, 7858, Note_on_c, 11, 50, 0
14, 7869, Note_on_c, 11, 48, 82
14, 7917, Note_on_c, 11, 50, 84
14, 7920, Note_on_c, 11, 48, 0
14, 7940, Note_on_c, 11, 50, 0
14, 8062, Note_on_c, 11, 50, 75
14, 8239, Note_on_c, 11, 50, 0
14, 8252, Note_on_c, 11, 53, 81
14, 8301, Note_on_c, 11, 50, 74
14, 8308, Note_on_c, 11, 53, 0
14, 8326, Note_on_c, 11, 50, 0
14, 8639, Note_on_c, 11, 41, 78
14, 8681, Note_on_c, 11, 41, 0
14, 8688, Note_on_c, 11, 43, 84
14, 8710, Note_on_c, 11, 43, 0
14, 9023, Note_on_c, 11, 50, 80
14, 9045, Note_on_c, 11, 50, 0
14, 9047, Note_on_c, 11, 53, 76
14, 9066, Note_on_c, 11, 53, 0
14, 9094, Note_on_c, 11, 50, 74
14, 9117, Note_on_c, 11, 50, 0
14, 9117, Note_on_c, 11, 55, 81
14, 9164, Note_on_c, 11, 53, 81
14, 9169, Note_on_c, 11, 55, 0
14, 9180, Note_on_c, 11, 53, 0
14, 9214, Note_on_c, 11, 46, 79
14, 9257, Note_on_c, 11, 46, 0
14, 9263, Note_on_c, 11, 46, 68
14, 9283, Note_on_c, 11, 46, 0
14, 9406, Note_on_c, 11, 46, 76
14, 9449, Note_on_c, 11, 46, 0
14, 9455, Note_on_c, 11, 46, 67
14, 9477, Note_on_c, 11, 46, 0
14, 9790, Note_on_c, 11, 50, 71
14, 9815, Note_on_c, 11, 50, 0
14, 9815, Note_on_c, 11, 53, 80
14, 9843, Note_on_c, 11, 53, 0
14, 9861, Note_on_c, 11, 50, 63
14, 9885, Note_on_c, 11, 55, 74
14, 9887, Note_on_c, 11, 50, 0
14, 9934, Note_on_c, 11, 57, 75
14, 9941, Note_on_c, 11, 55, 0
14, 9956, Note_on_c, 11, 57, 0
14, 9981, Note_on_c, 11, 43, 80
14, 10024, Note_on_c, 11, 43, 0
14, 10030, Note_on_c, 11, 43, 72
14, 10051, Note_on_c, 11, 43, 0
14, 10173, Note_on_c, 11, 43, 80
14, 10220, Note_on_c, 11, 43, 0
14, 10222, Note_on_c, 11, 43, 69
14, 10249, Note_on_c, 11, 43, 0
14, 10558, Note_on_c, 11, 50, 81
14, 10585, Note_on_c, 11, 53, 75
14, 10586, Note_on_c, 11, 50, 0
14, 10606, Note_on_c, 11, 53, 0
14, 10630, Note_on_c, 11, 50, 80
14, 10654, Note_on_c, 11, 55, 69
14, 10659, Note_on_c, 11, 50, 0
14, 10702, Note_on_c, 11, 53, 77
14, 10704, Note_on_c, 11, 55, 0
14, 10724, Note_on_c, 11, 53, 0
14, 10750, Note_on_c, 11, 46, 105
14, 11135, Note_on_c, 11, 45, 85
14, 11140, Note_on_c, 11, 46, 0
14, 11434, Note_on_c, 11, 45, 0
14, 13824, Note_on_c, 11, 50, 84
14, 14008, Note_on_c, 11, 50, 0
14, 14013, Note_on_c, 11, 48, 75
14, 14062, Note_on_c, 11, 50, 84
14, 14066, Note_on_c, 11, 48, 0
14, 14080, Note_on_c, 11, 50, 0
14, 14207, Note_on_c, 11, 50, 82
14, 14393, Note_on_c, 11, 50, 0
14, 14397, Note_on_c, 11, 53, 85
14, 14446, Note_on_c, 11, 50, 81
14, 14452, Note_on_c, 11, 53, 0
14, 14465, Note_on_c, 11, 50, 0
14, 14879, Note_on_c, 11, 38, 98
14, 14895, Note_on_c, 11, 38, 0
14, 14903, Note_on_c, 11, 38, 96
14, 14920, Note_on_c, 11, 38, 0
14, 14927, Note_on_c, 11, 38, 94
14, 14941, Note_on_c, 11, 38, 0
14, 14951, Note_on_c, 11, 38, 96
14, 14967, Note_on_c, 11, 38, 0
14, 14975, Note_on_c, 11, 38, 96
14, 14990, Note_on_c, 11, 38, 0
14, 15647, Note_on_c, 11, 45, 105
14, 15662, Note_on_c, 11, 45, 0
14, 15671, Note_on_c, 11, 45, 96
14, 15687, Note_on_c, 11, 45, 0
14, 15695, Note_on_c, 11, 45, 95
14, 15713, Note_on_c, 11, 45, 0
14, 15719, Note_on_c, 11, 45, 92
14, 15735, Note_on_c, 11, 45, 0
14, 15743, Note_on_c, 11, 45, 105
14, 15764, Note_on_c, 11, 45, 0
14, 16415, Note_on_c, 11, 43, 98
14, 16428, Note_on_c, 11, 43, 0
14, 16439, Note_on_c, 11, 43, 89
14, 16453, Note_on_c, 11, 43, 0
14, 16463, Note_on_c, 11, 43, 99
14, 16477, Note_on_c, 11, 43, 0
14, 16487, Note_on_c, 11, 43, 88
14, 16501, Note_on_c, 11, 43, 0
14, 16511, Note_on_c, 11, 43, 105
14, 16528, Note_on_c, 11, 43, 0
14, 16895, Note_on_c, 11, 50, 95
14, 17086, Note_on_c, 11, 48, 84
14, 17092, Note_on_c, 11, 50, 0
14, 17128, Note_on_c, 11, 48, 0
14, 17133, Note_on_c, 11, 50, 89
14, 17149, Note_on_c, 11, 50, 0
14, 17278, Note_on_c, 11, 50, 99
14, 17462, Note_on_c, 11, 50, 0
14, 17468, Note_on_c, 11, 53, 85
14, 17516, Note_on_c, 11, 50, 87
14, 17517, Note_on_c, 11, 53, 0
14, 17532, Note_on_c, 11, 50, 0
14, 23808, Note_on_c, 11, 43, 85
14, 23856, Note_on_c, 11, 43, 0
14, 23858, Note_on_c, 11, 43, 87
14, 23882, Note_on_c, 11, 43, 0
14, 23999, Note_on_c, 11, 43, 86
14, 24045, Note_on_c, 11, 43, 0
14, 24048, Note_on_c, 11, 43, 81
14, 24072, Note_on_c, 11, 43, 0
14, 24382, Note_on_c, 11, 50, 93
14, 24408, Note_on_c, 11, 53, 87
14, 24409, Note_on_c, 11, 50, 0
14, 24425, Note_on_c, 11, 53, 0
14, 24456, Note_on_c, 11, 50, 92
14, 24479, Note_on_c, 11, 50, 0
14, 24479, Note_on_c, 11, 55, 95
14, 24527, Note_on_c, 11, 57, 92
14, 24531, Note_on_c, 11, 55, 0
14, 24543, Note_on_c, 11, 57, 0
14, 24575, Note_on_c, 11, 46, 74
14, 24620, Note_on_c, 11, 46, 0
14, 24622, Note_on_c, 11, 46, 68
14, 24634, Note_on_c, 11, 46, 0
14, 24765, Note_on_c, 11, 46, 79
14, 24811, Note_on_c, 11, 46, 0
14, 24813, Note_on_c, 11, 46, 69
14, 24830, Note_on_c, 11, 46, 0
14, 25149, Note_on_c, 11, 50, 80
14, 25175, Note_on_c, 11, 53, 81
14, 25183, Note_on_c, 11, 50, 0
14, 25194, Note_on_c, 11, 53, 0
14, 25223, Note_on_c, 11, 50, 80
14, 25246, Note_on_c, 11, 55, 74
14, 25247, Note_on_c, 11, 50, 0
14, 25293, Note_on_c, 11, 57, 87
14, 25300, Note_on_c, 11, 55, 0
14, 25311, Note_on_c, 11, 57, 0
14, 25344, Note_on_c, 11, 43, 78
14, 25388, Note_on_c, 11, 43, 0
14, 25393, Note_on_c, 11, 43, 75
14, 25414, Note_on_c, 11, 43, 0
14, 25534, Note_on_c, 11, 43, 81
14, 25582, Note_on_c, 11, 43, 0
14, 25583, Note_on_c, 11, 43, 77
14, 25602, Note_on_c, 11, 43, 0
14, 25918, Note_on_c, 11, 50, 81
14, 25942, Note_on_c, 11, 53, 80
14, 25943, Note_on_c, 11, 50, 0
14, 25961, Note_on_c, 11, 53, 0
14, 25990, Note_on_c, 11, 50, 75
14, 26014, Note_on_c, 11, 55, 85
14, 26019, Note_on_c, 11, 50, 0
14, 26062, Note_on_c, 11, 53, 85
14, 26067, Note_on_c, 11, 55, 0
14, 26077, Note_on_c, 11, 53, 0
14, 26110, Note_on_c, 11, 46, 92
14, 26495, Note_on_c, 11, 45, 81
14, 26503, Note_on_c, 11, 46, 0
14, 26790, Note_on_c, 11, 45, 0
14, 29185, Note_on_c, 11, 50, 87
14, 29369, Note_on_c, 11, 50, 0
14, 29374, Note_on_c, 11, 48, 88
14, 29422, Note_on_c, 11, 48, 0
14, 29422, Note_on_c, 11, 50, 87
14, 29439, Note_on_c, 11, 50, 0
14, 29567, Note_on_c, 11, 50, 84
14, 29759, Note_on_c, 11, 53, 81
14, 29763, Note_on_c, 11, 50, 0
14, 29807, Note_on_c, 11, 50, 82
14, 29811, Note_on_c, 11, 53, 0
14, 29829, Note_on_c, 11, 50, 0
14, 29999, Note_on_c, 11, 50, 84
14, 30011, Note_on_c, 11, 50, 0
14, 30046, Note_on_c, 11, 53, 88
14, 30141, Note_on_c, 11, 53, 0
14, 30143, Note_on_c, 11, 50, 66
14, 30155, Note_on_c, 11, 50, 0
14, 30168, Note_on_c, 11, 50, 81
14, 30180, Note_on_c, 11, 50, 0
14, 30215, Note_on_c, 11, 50, 87
14, 30238, Note_on_c, 11, 50, 0
14, 30238, Note_on_c, 11, 48, 74
14, 30286, Note_on_c, 11, 50, 84
14, 30289, Note_on_c, 11, 48, 0
14, 30300, Note_on_c, 11, 50, 0
14, 30382, Note_on_c, 11, 50, 81
14, 30396, Note_on_c, 11, 50, 0
14, 30431, Note_on_c, 11, 53, 89
14, 30526, Note_on_c, 11, 50, 82
14, 30527, Note_on_c, 11, 53, 0
14, 30543, Note_on_c, 11, 50, 0
14, 30553, Note_on_c, 11, 50, 79
14, 30568, Note_on_c, 11, 50, 0
14, 30599, Note_on_c, 11, 50, 87
14, 30622, Note_on_c, 11, 48, 79
14, 30625, Note_on_c, 11, 50, 0
14, 30668, Note_on_c, 11, 48, 0
14, 30669, Note_on_c, 11, 50, 84
14, 30684, Note_on_c, 11, 50, 0
14, 30766, Note_on_c, 11, 45, 62
14, 30774, Note_on_c, 11, 45, 0
14, 30815, Note_on_c, 11, 45, 87
14, 30895, Note_on_c, 11, 45, 0
14, 30911, Note_on_c, 11, 45, 78
14, 30936, Note_on_c, 11, 44, 66
14, 30947, Note_on_c, 11, 45, 0
14, 30959, Note_on_c, 11, 45, 70
14, 30969, Note_on_c, 11, 44, 0
14, 30976, Note_on_c, 11, 45, 0
14, 31150, Note_on_c, 11, 45, 81
14, 31164, Note_on_c, 11, 45, 0
14, 31198, Note_on_c, 11, 45, 89
14, 31277, Note_on_c, 11, 45, 0
14, 31293, Note_on_c, 11, 45, 72
14, 31318, Note_on_c, 11, 44, 61
14, 31327, Note_on_c, 11, 45, 0
14, 31341, Note_on_c, 11, 45, 69
14, 31342, Note_on_c, 11, 44, 0
14, 31364, Note_on_c, 11, 45, 0
14, 31533, Note_on_c, 11, 43, 89
14, 31548, Note_on_c, 11, 43, 0
14, 31582, Note_on_c, 11, 43, 93
14, 31660, Note_on_c, 11, 43, 0
14, 31677, Note_on_c, 11, 43, 76
14, 31703, Note_on_c, 11, 42, 68
14, 31711, Note_on_c, 11, 43, 0
14, 31726, Note_on_c, 11, 43, 74
14, 31728, Note_on_c, 11, 42, 0
14, 31747, Note_on_c, 11, 43, 0
14, 31918, Note_on_c, 11, 43, 77
14, 31932, Note_on_c, 11, 43, 0
14, 31966, Note_on_c, 11, 43, 89
14, 32043, Note_on_c, 11, 43, 0
14, 32062, Note_on_c, 11, 43, 81
14, 32087, Note_on_c, 11, 42, 69
14, 32095, Note_on_c, 11, 43, 0
14, 32107, Note_on_c, 11, 42, 0
14, 32109, Note_on_c, 11, 43, 73
14, 32132, Note_on_c, 11, 43, 0
14, 32301, Note_on_c, 11, 50, 86
14, 32315, Note_on_c, 11, 50, 0
14, 32350, Note_on_c, 11, 53, 91
14, 32443, Note_on_c, 11, 53, 0
14, 32447, Note_on_c, 11, 50, 69
14, 32461, Note_on_c, 11, 50, 0
14, 32471, Note_on_c, 11, 50, 74
14, 32485, Note_on_c, 11, 50, 0
14, 32518, Note_on_c, 11, 50, 86
14, 32541, Note_on_c, 11, 48, 78
14, 32544, Note_on_c, 11, 50, 0
14, 32589, Note_on_c, 11, 50, 81
14, 32591, Note_on_c, 11, 48, 0
14, 32602, Note_on_c, 11, 50, 0
14, 32686, Note_on_c, 11, 50, 81
14, 32698, Note_on_c, 11, 50, 0
14, 32735, Note_on_c, 11, 53, 89
14, 32831, Note_on_c, 11, 50, 81
14, 32833, Note_on_c, 11, 53, 0
14, 32846, Note_on_c, 11, 50, 0
14, 32855, Note_on_c, 11, 50, 72
14, 32870, Note_on_c, 11, 50, 0
14, 32903, Note_on_c, 11, 50, 86
14, 32927, Note_on_c, 11, 48, 74
14, 32929, Note_on_c, 11, 50, 0
14, 32970, Note_on_c, 11, 48, 0
14, 32974, Note_on_c, 11, 50, 84
14, 32987, Note_on_c, 11, 50, 0
14, 33071, Note_on_c, 11, 50, 74
14, 33082, Note_on_c, 11, 50, 0
14, 33118, Note_on_c, 11, 53, 85
14, 33214, Note_on_c, 11, 53, 0
14, 33215, Note_on_c, 11, 50, 74
14, 33231, Note_on_c, 11, 50, 0
14, 33238, Note_on_c, 11, 50, 66
14, 33253, Note_on_c, 11, 50, 0
14, 33287, Note_on_c, 11, 50, 78
14, 33310, Note_on_c, 11, 48, 72
14, 33314, Note_on_c, 11, 50, 0
14, 33354, Note_on_c, 11, 48, 0
14, 33358, Note_on_c, 11, 50, 80
14, 33371, Note_on_c, 11, 50, 0
14, 33454, Note_on_c, 11, 50, 75
14, 33468, Note_on_c, 11, 50, 0
14, 33502, Note_on_c, 11, 53, 81
14, 33595, Note_on_c, 11, 53, 0
14, 33598, Note_on_c, 11, 50, 74
14, 33613, Note_on_c, 11, 50, 0
14, 33623, Note_on_c, 11, 50, 66
14, 33638, Note_on_c, 11, 50, 0
14, 33671, Note_on_c, 11, 50, 81
14, 33693, Note_on_c, 11, 48, 70
14, 33694, Note_on_c, 11, 50, 0
14, 33735, Note_on_c, 11, 48, 0
14, 33741, Note_on_c, 11, 50, 79
14, 33756, Note_on_c, 11, 50, 0
14, 33838, Note_on_c, 11, 45, 74
14, 33851, Note_on_c, 11, 45, 0
14, 33886, Note_on_c, 11, 45, 85
14, 33965, Note_on_c, 11, 45, 0
14, 33983, Note_on_c, 11, 45, 81
14, 34007, Note_on_c, 11, 44, 67
14, 34014, Note_on_c, 11, 45, 0
14, 34031, Note_on_c, 11, 45, 67
14, 34035, Note_on_c, 11, 44, 0
14, 34056, Note_on_c, 11, 45, 0
14, 34223, Note_on_c, 11, 45, 81
14, 34236, Note_on_c, 11, 45, 0
14, 34270, Note_on_c, 11, 45, 81
14, 34344, Note_on_c, 11, 45, 0
14, 34365, Note_on_c, 11, 45, 81
14, 34389, Note_on_c, 11, 44, 65
14, 34395, Note_on_c, 11, 45, 0
14, 34413, Note_on_c, 11, 45, 74
14, 34419, Note_on_c, 11, 44, 0
14, 34436, Note_on_c, 11, 45, 0
14, 34605, Note_on_c, 11, 43, 78
14, 34619, Note_on_c, 11, 43, 0
14, 34653, Note_on_c, 11, 43, 86
14, 34725, Note_on_c, 11, 43, 0
14, 34748, Note_on_c, 11, 43, 79
14, 34773, Note_on_c, 11, 42, 62
14, 34781, Note_on_c, 11, 43, 0
14, 34796, Note_on_c, 11, 43, 69
14, 34800, Note_on_c, 11, 42, 0
14, 34821, Note_on_c, 11, 43, 0
14, 34989, Note_on_c, 11, 43, 82
14, 35004, Note_on_c, 11, 43, 0
14, 35037, Note_on_c, 11, 43, 84
14, 35117, Note_on_c, 11, 43, 0
14, 35134, Note_on_c, 11, 43, 75
14, 35159, Note_on_c, 11, 42, 59
14, 35167, Note_on_c, 11, 43, 0
14, 35182, Note_on_c, 11, 43, 73
14, 35185, Note_on_c, 11, 42, 0
14, 35208, Note_on_c, 11, 43, 0
14, 35373, Note_on_c, 11, 50, 79
14, 35384, Note_on_c, 11, 50, 0
14, 35421, Note_on_c, 11, 53, 81
14, 35508, Note_on_c, 11, 53, 0
14, 35518, Note_on_c, 11, 50, 80
14, 35532, Note_on_c, 11, 50, 0
14, 35542, Note_on_c, 11, 50, 74
14, 35556, Note_on_c, 11, 50, 0
14, 35591, Note_on_c, 11, 50, 81
14, 35612, Note_on_c, 11, 50, 0
14, 35613, Note_on_c, 11, 48, 74
14, 35662, Note_on_c, 11, 50, 81
14, 35669, Note_on_c, 11, 48, 0
14, 35675, Note_on_c, 11, 50, 0
14, 35758, Note_on_c, 11, 50, 81
14, 35770, Note_on_c, 11, 50, 0
14, 35806, Note_on_c, 11, 53, 88
14, 35896, Note_on_c, 11, 53, 0
14, 35903, Note_on_c, 11, 50, 72
14, 35916, Note_on_c, 11, 50, 0
14, 35927, Note_on_c, 11, 50, 74
14, 35943, Note_on_c, 11, 50, 0
14, 35975, Note_on_c, 11, 50, 87
14, 35998, Note_on_c, 11, 50, 0
14, 35998, Note_on_c, 11, 48, 71
14, 36046, Note_on_c, 11, 50, 85
14, 36048, Note_on_c, 11, 48, 0
14, 36057, Note_on_c, 11, 50, 0
14, 36143, Note_on_c, 11, 50, 74
14, 36154, Note_on_c, 11, 50, 0
14, 36190, Note_on_c, 11, 53, 85
14, 36286, Note_on_c, 11, 53, 0
14, 36287, Note_on_c, 11, 50, 74
14, 36303, Note_on_c, 11, 50, 0
14, 36310, Note_on_c, 11, 50, 66
14, 36325, Note_on_c, 11, 50, 0
14, 36359, Note_on_c, 11, 50, 78
14, 36382, Note_on_c, 11, 48, 72
14, 36386, Note_on_c, 11, 50, 0
14, 36426, Note_on_c, 11, 48, 0
14, 36430, Note_on_c, 11, 50, 80
14, 36443, Note_on_c, 11, 50, 0
14, 36526, Note_on_c, 11, 50, 75
14, 36540, Note_on_c, 11, 50, 0
14, 36574, Note_on_c, 11, 53, 81
14, 36667, Note_on_c, 11, 53, 0
14, 36670, Note_on_c, 11, 50, 74
14, 36685, Note_on_c, 11, 50, 0
14, 36695, Note_on_c, 11, 50, 66
14, 36710, Note_on_c, 11, 50, 0
14, 36743, Note_on_c, 11, 50, 81
14, 36765, Note_on_c, 11, 48, 70
14, 36766, Note_on_c, 11, 50, 0
14, 36807, Note_on_c, 11, 48, 0
14, 36813, Note_on_c, 11, 50, 79
14, 36828, Note_on_c, 11, 50, 0
14, 36910, Note_on_c, 11, 45, 74
14, 36923, Note_on_c, 11, 45, 0
14, 36958, Note_on_c, 11, 45, 85
14, 37037, Note_on_c, 11, 45, 0
14, 37055, Note_on_c, 11, 45, 81
14, 37079, Note_on_c, 11, 44, 67
14, 37086, Note_on_c, 11, 45, 0
14, 37103, Note_on_c, 11, 45, 67
14, 37107, Note_on_c, 11, 44, 0
14, 37128, Note_on_c, 11, 45, 0
14, 37295, Note_on_c, 11, 45, 81
14, 37308, Note_on_c, 11, 45, 0
14, 37342, Note_on_c, 11, 45, 81
14, 37416, Note_on_c, 11, 45, 0
14, 37437, Note_on_c, 11, 45, 81
14, 37461, Note_on_c, 11, 44, 65
14, 37467, Note_on_c, 11, 45, 0
14, 37485, Note_on_c, 11, 45, 74
14, 37491, Note_on_c, 11, 44, 0
14, 37508, Note_on_c, 11, 45, 0
14, 37677, Note_on_c, 11, 43, 78
14, 37691, Note_on_c, 11, 43, 0
14, 37725, Note_on_c, 11, 43, 86
14, 37797, Note_on_c, 11, 43, 0
14, 37820, Note_on_c, 11, 43, 79
14, 37845, Note_on_c, 11, 42, 62
14, 37853, Note_on_c, 11, 43, 0
14, 37868, Note_on_c, 11, 43, 69
14, 37872, Note_on_c, 11, 42, 0
14, 37893, Note_on_c, 11, 43, 0
14, 38061, Note_on_c, 11, 43, 82
14, 38076, Note_on_c, 11, 43, 0
14, 38109, Note_on_c, 11, 43, 84
14, 38189, Note_on_c, 11, 43, 0
14, 38206, Note_on_c, 11, 43, 75
14, 38231, Note_on_c, 11, 42, 59
14, 38239, Note_on_c, 11, 43, 0
14, 38254, Note_on_c, 11, 43, 73
14, 38257, Note_on_c, 11, 42, 0
14, 38280, Note_on_c, 11, 43, 0
14, 38446, Note_on_c, 11, 45, 82
14, 38486, Note_on_c, 11, 45, 0
14, 38540, Note_on_c, 11, 48, 93
14, 38591, Note_on_c, 11, 48, 0
14, 38638, Note_on_c, 11, 50, 89
14, 38685, Note_on_c, 11, 50, 0
14, 38734, Note_on_c, 11, 53, 96
14, 38784, Note_on_c, 11, 53, 0
14, 38829, Note_on_c, 11, 55, 98
14, 38876, Note_on_c, 11, 55, 0
14, 38926, Note_on_c, 11, 57, 103
14, 38971, Note_on_c, 11, 57, 0
14, 39021, Note_on_c, 11, 60, 105
14, 39074, Note_on_c, 11, 60, 0
14, 39118, Note_on_c, 11, 62, 109
14, 39544, Note_on_c, 11, 62, 0
14, 41518, Note_on_c, 11, 45, 82
14, 41558, Note_on_c, 11, 45, 0
14, 41612, Note_on_c, 11, 48, 93
14, 41663, Note_on_c, 11, 48, 0
14, 41710, Note_on_c, 11, 50, 89
14, 41757, Note_on_c, 11, 50, 0
14, 41806, Note_on_c, 11, 53, 96
14, 41856, Note_on_c, 11, 53, 0
14, 41901, Note_on_c, 11, 55, 98
14, 41948, Note_on_c, 11, 55, 0
14, 41998, Note_on_c, 11, 57, 103
14, 42043, Note_on_c, 11, 57, 0
14, 42093, Note_on_c, 11, 60, 105
14, 42146, Note_on_c, 11, 60, 0
14, 42190, Note_on_c, 11, 62, 109
14, 42616, Note_on_c, 11, 62, 0
14, 42616, End_track
0, 0, End_of_file
