0, 0, Header, 1, 10, 96
1, 0, Start_track
1, 0, Title_t, "TO LOVE SOMEBODY                ;Barry Gibb / Robin Gibb"
1, 0, Copyright_t, "(C) 1994 Tune 1000 Corporation  ;1967, 1975 Gibb Bros. Music (BMI). Int'l Rights Secured."
1, 0, Time_signature, 4, 2, 24, 8
1, 0, Tempo, 652174
1, 0, Key_signature, 3, "major"
1, 0, Text_t, "Back Vocal"
1, 0, Lyric_t, "ALL rights reserved. Not for broadcast or "
1, 0, Lyric_t, "\015"
1, 0, Lyric_t, "transmission of any kind. "
1, 0, Lyric_t, "\015"
1, 0, Lyric_t, "DO NOT DUPLICATE. NOT FOR RENTAL. "
1, 0, Lyric_t, "\015"
1, 10370, Tempo, 666667
1, 20734, Tempo, 659341
1, 20952, Tempo, 652174
1, 23808, Tempo, 645161
1, 26304, Tempo, 1875000
1, 26880, Tempo, 1153846
1, 26880, End_track
2, 0, Start_track
2, 0, Program_c, 0, 5
2, 0, Control_c, 0, 7, 105
2, 0, Control_c, 0, 10, 80
2, 0, Control_c, 0, 11, 127
2, 0, Control_c, 0, 91, 50
2, 0, Control_c, 0, 93, 10
2, 0, Note_on_c, 0, 61, 87
2, 0, Note_on_c, 0, 57, 87
2, 0, Note_on_c, 0, 52, 76
2, 1, Control_c, 0, 1, 0
2, 1, Pitch_bend_c, 0, 8192
2, 180, Note_off_c, 0, 61, 64
2, 185, Note_off_c, 0, 57, 64
2, 186, Note_off_c, 0, 52, 64
2, 191, Note_on_c, 0, 50, 80
2, 192, Note_on_c, 0, 55, 79
2, 192, Note_on_c, 0, 59, 85
2, 363, Note_off_c, 0, 50, 64
2, 367, Note_off_c, 0, 55, 64
2, 373, Note_off_c, 0, 59, 64
2, 385, Note_on_c, 0, 50, 77
2, 385, Note_on_c, 0, 57, 88
2, 385, Note_on_c, 0, 54, 73
2, 468, Note_off_c, 0, 57, 64
2, 468, Note_off_c, 0, 50, 64
2, 471, Note_off_c, 0, 54, 64
2, 479, Note_on_c, 0, 52, 76
2, 479, Note_on_c, 0, 57, 84
2, 479, Note_on_c, 0, 61, 85
2, 750, Note_off_c, 0, 52, 64
2, 751, Note_off_c, 0, 61, 64
2, 751, Note_off_c, 0, 57, 64
2, 769, Note_on_c, 0, 61, 78
2, 769, Note_on_c, 0, 52, 69
2, 769, Note_on_c, 0, 57, 76
2, 1129, Note_off_c, 0, 52, 64
2, 1131, Note_off_c, 0, 57, 64
2, 1133, Note_off_c, 0, 61, 64
2, 1151, Note_on_c, 0, 61, 79
2, 1151, Note_on_c, 0, 57, 79
2, 1152, Note_on_c, 0, 52, 79
2, 1534, Note_off_c, 0, 57, 64
2, 1534, Note_off_c, 0, 61, 64
2, 1535, Note_off_c, 0, 52, 64
2, 1536, Note_on_c, 0, 57, 85
2, 1536, Note_on_c, 0, 52, 86
2, 1536, Note_on_c, 0, 61, 91
2, 1727, Note_off_c, 0, 61, 64
2, 1728, Note_on_c, 0, 59, 85
2, 1775, Note_on_c, 0, 61, 84
2, 1823, Note_off_c, 0, 59, 64
2, 1823, Note_on_c, 0, 64, 96
2, 1869, Note_off_c, 0, 57, 64
2, 1871, Note_on_c, 0, 57, 92
2, 1894, Note_off_c, 0, 61, 64
2, 1916, Note_off_c, 0, 57, 64
2, 1918, Note_off_c, 0, 52, 64
2, 1918, Note_off_c, 0, 64, 64
2, 1919, Note_on_c, 0, 54, 72
2, 1919, Note_on_c, 0, 59, 85
2, 1919, Note_on_c, 0, 62, 96
2, 2134, Note_off_c, 0, 62, 64
2, 2160, Note_on_c, 0, 62, 96
2, 2232, Note_on_c, 0, 64, 92
2, 2298, Note_off_c, 0, 54, 64
2, 2300, Note_off_c, 0, 64, 64
2, 2301, Note_off_c, 0, 59, 64
2, 2303, Note_off_c, 0, 62, 64
2, 2304, Note_on_c, 0, 66, 90
2, 2304, Note_on_c, 0, 57, 88
2, 2304, Note_on_c, 0, 62, 97
2, 2663, Note_off_c, 0, 62, 64
2, 2663, Note_off_c, 0, 66, 64
2, 2667, Note_off_c, 0, 57, 64
2, 2687, Note_on_c, 0, 61, 89
2, 2687, Note_on_c, 0, 57, 80
2, 2687, Note_on_c, 0, 64, 82
2, 2855, Note_off_c, 0, 61, 64
2, 2879, Note_on_c, 0, 61, 83
2, 2890, Note_off_c, 0, 64, 64
2, 2927, Note_on_c, 0, 64, 77
2, 3000, Note_off_c, 0, 57, 64
2, 3023, Note_on_c, 0, 57, 77
2, 3072, Note_on_c, 0, 62, 78
2, 3072, Note_on_c, 0, 55, 82
2, 3072, Note_on_c, 0, 59, 80
2, 3074, Note_off_c, 0, 57, 64
2, 3074, Note_off_c, 0, 61, 64
2, 3076, Note_off_c, 0, 64, 64
2, 3455, Note_off_c, 0, 62, 64
2, 3455, Note_off_c, 0, 59, 64
2, 3455, Note_off_c, 0, 55, 64
2, 3457, Note_on_c, 0, 61, 87
2, 3457, Note_on_c, 0, 64, 85
2, 3457, Note_on_c, 0, 57, 84
2, 3640, Note_off_c, 0, 61, 64
2, 3647, Note_on_c, 0, 59, 88
2, 3650, Note_off_c, 0, 64, 64
2, 3695, Note_on_c, 0, 61, 97
2, 3743, Note_on_c, 0, 64, 92
2, 3748, Note_off_c, 0, 57, 64
2, 3791, Note_on_c, 0, 57, 92
2, 3799, Note_off_c, 0, 59, 64
2, 3835, Note_off_c, 0, 61, 64
2, 3836, Note_off_c, 0, 64, 64
2, 3839, Note_off_c, 0, 57, 64
2, 3839, Note_on_c, 0, 56, 70
2, 3841, Note_on_c, 0, 59, 92
2, 3841, Note_on_c, 0, 52, 80
2, 4074, Note_off_c, 0, 59, 64
2, 4081, Note_on_c, 0, 59, 92
2, 4129, Note_on_c, 0, 64, 90
2, 4211, Note_off_c, 0, 59, 64
2, 4219, Note_off_c, 0, 64, 64
2, 4219, Note_off_c, 0, 52, 64
2, 4224, Note_on_c, 0, 54, 76
2, 4224, Note_on_c, 0, 57, 80
2, 4224, Note_on_c, 0, 62, 74
2, 4226, Note_off_c, 0, 56, 64
2, 4607, Note_off_c, 0, 54, 64
2, 4607, Note_off_c, 0, 57, 64
2, 4607, Note_off_c, 0, 62, 64
2, 4608, Note_on_c, 0, 61, 94
2, 4608, Note_on_c, 0, 52, 93
2, 4608, Note_on_c, 0, 57, 91
2, 4799, Note_off_c, 0, 57, 64
2, 4799, Note_off_c, 0, 61, 64
2, 4802, Note_on_c, 0, 57, 88
2, 4849, Note_on_c, 0, 59, 79
2, 4896, Note_off_c, 0, 59, 64
2, 4896, Note_on_c, 0, 61, 91
2, 4943, Note_off_c, 0, 61, 64
2, 4943, Note_off_c, 0, 57, 64
2, 4944, Note_on_c, 0, 57, 88
2, 4991, Note_off_c, 0, 57, 64
2, 4991, Note_off_c, 0, 52, 64
2, 4991, Note_on_c, 0, 59, 91
2, 4991, Note_on_c, 0, 54, 93
2, 4992, Note_on_c, 0, 62, 92
2, 5278, Note_on_c, 0, 64, 92
2, 5279, Note_off_c, 0, 62, 64
2, 5374, Note_off_c, 0, 59, 64
2, 5374, Note_off_c, 0, 54, 64
2, 5375, Note_off_c, 0, 64, 64
2, 5375, Note_on_c, 0, 62, 87
2, 5375, Note_on_c, 0, 57, 87
2, 5375, Note_on_c, 0, 66, 87
2, 5376, Note_on_c, 0, 54, 87
2, 5752, Note_off_c, 0, 57, 64
2, 5758, Note_off_c, 0, 62, 64
2, 5758, Note_off_c, 0, 66, 64
2, 5759, Note_off_c, 0, 54, 64
2, 5759, Note_on_c, 0, 57, 98
2, 5759, Note_on_c, 0, 61, 101
2, 5759, Note_on_c, 0, 52, 92
2, 5950, Note_off_c, 0, 61, 64
2, 5951, Note_on_c, 0, 61, 96
2, 5998, Note_on_c, 0, 64, 92
2, 6091, Note_off_c, 0, 57, 64
2, 6092, Note_on_c, 0, 57, 92
2, 6139, Note_off_c, 0, 57, 64
2, 6141, Note_off_c, 0, 64, 64
2, 6142, Note_off_c, 0, 61, 64
2, 6142, Note_off_c, 0, 52, 64
2, 6143, Note_on_c, 0, 59, 89
2, 6143, Note_on_c, 0, 50, 86
2, 6144, Note_on_c, 0, 55, 81
2, 6526, Note_off_c, 0, 50, 64
2, 6526, Note_off_c, 0, 59, 64
2, 6527, Note_off_c, 0, 55, 64
2, 6527, Note_on_c, 0, 52, 88
2, 6528, Note_on_c, 0, 57, 90
2, 6528, Note_on_c, 0, 61, 94
2, 6910, Note_off_c, 0, 52, 64
2, 6911, Note_off_c, 0, 61, 64
2, 6911, Note_off_c, 0, 57, 64
2, 6912, Note_on_c, 0, 52, 82
2, 6912, Note_on_c, 0, 59, 98
2, 6913, Note_on_c, 0, 56, 94
2, 7295, Note_off_c, 0, 59, 64
2, 7295, Note_off_c, 0, 52, 64
2, 7296, Note_off_c, 0, 56, 64
2, 7296, Note_on_c, 0, 54, 99
2, 7296, Note_on_c, 0, 57, 99
2, 7296, Note_on_c, 0, 62, 99
2, 7679, Note_off_c, 0, 62, 64
2, 7679, Note_off_c, 0, 57, 64
2, 7679, Note_off_c, 0, 54, 64
2, 7681, Note_on_c, 0, 61, 96
2, 7681, Note_on_c, 0, 57, 102
2, 7681, Note_on_c, 0, 52, 92
2, 8059, Note_off_c, 0, 52, 64
2, 8059, Note_off_c, 0, 57, 64
2, 8060, Note_off_c, 0, 61, 64
2, 8063, Note_on_c, 0, 56, 105
2, 8063, Note_on_c, 0, 59, 100
2, 8065, Note_on_c, 0, 52, 85
2, 8404, Note_off_c, 0, 59, 64
2, 8444, Note_off_c, 0, 52, 64
2, 8444, Note_off_c, 0, 56, 64
2, 8448, Note_on_c, 0, 54, 76
2, 8449, Note_on_c, 0, 62, 98
2, 8449, Note_on_c, 0, 57, 104
2, 8828, Note_off_c, 0, 57, 64
2, 8828, Note_off_c, 0, 62, 64
2, 8830, Note_off_c, 0, 54, 64
2, 8833, Note_on_c, 0, 57, 100
2, 8833, Note_on_c, 0, 61, 111
2, 8833, Note_on_c, 0, 52, 85
2, 9020, Note_off_c, 0, 52, 64
2, 9020, Note_off_c, 0, 61, 64
2, 9020, Note_off_c, 0, 57, 64
2, 9023, Note_on_c, 0, 57, 106
2, 9023, Note_on_c, 0, 61, 109
2, 9023, Note_on_c, 0, 52, 102
2, 9069, Note_off_c, 0, 52, 64
2, 9069, Note_off_c, 0, 61, 64
2, 9069, Note_off_c, 0, 57, 64
2, 10368, Note_on_c, 0, 61, 87
2, 10368, Note_on_c, 0, 57, 87
2, 10368, Note_on_c, 0, 52, 76
2, 10548, Note_off_c, 0, 61, 64
2, 10553, Note_off_c, 0, 57, 64
2, 10554, Note_off_c, 0, 52, 64
2, 10559, Note_on_c, 0, 50, 80
2, 10560, Note_on_c, 0, 55, 79
2, 10560, Note_on_c, 0, 59, 85
2, 10731, Note_off_c, 0, 50, 64
2, 10735, Note_off_c, 0, 55, 64
2, 10741, Note_off_c, 0, 59, 64
2, 10753, Note_on_c, 0, 50, 77
2, 10753, Note_on_c, 0, 57, 88
2, 10753, Note_on_c, 0, 54, 73
2, 10836, Note_off_c, 0, 57, 64
2, 10836, Note_off_c, 0, 50, 64
2, 10839, Note_off_c, 0, 54, 64
2, 10847, Note_on_c, 0, 52, 76
2, 10847, Note_on_c, 0, 57, 90
2, 10847, Note_on_c, 0, 61, 85
2, 11118, Note_off_c, 0, 52, 64
2, 11119, Note_off_c, 0, 61, 64
2, 11119, Note_off_c, 0, 57, 64
2, 11137, Note_on_c, 0, 61, 80
2, 11137, Note_on_c, 0, 52, 76
2, 11137, Note_on_c, 0, 57, 81
2, 11497, Note_off_c, 0, 52, 64
2, 11499, Note_off_c, 0, 57, 64
2, 11501, Note_off_c, 0, 61, 64
2, 11519, Note_on_c, 0, 61, 72
2, 11519, Note_on_c, 0, 57, 77
2, 11520, Note_on_c, 0, 52, 76
2, 11902, Note_off_c, 0, 57, 64
2, 11902, Note_off_c, 0, 61, 64
2, 11903, Note_off_c, 0, 52, 64
2, 11904, Note_on_c, 0, 52, 86
2, 11904, Note_on_c, 0, 57, 85
2, 11904, Note_on_c, 0, 61, 91
2, 12115, Note_off_c, 0, 61, 64
2, 12143, Note_on_c, 0, 61, 84
2, 12191, Note_on_c, 0, 64, 96
2, 12218, Note_off_c, 0, 61, 64
2, 12225, Note_off_c, 0, 57, 64
2, 12239, Note_on_c, 0, 57, 92
2, 12271, Note_off_c, 0, 64, 64
2, 12284, Note_off_c, 0, 57, 64
2, 12286, Note_off_c, 0, 52, 64
2, 12287, Note_on_c, 0, 54, 72
2, 12287, Note_on_c, 0, 59, 85
2, 12287, Note_on_c, 0, 62, 96
2, 12579, Note_on_c, 0, 64, 92
2, 12604, Note_off_c, 0, 62, 64
2, 12647, Note_off_c, 0, 64, 64
2, 12666, Note_off_c, 0, 54, 64
2, 12669, Note_off_c, 0, 59, 64
2, 12672, Note_on_c, 0, 66, 90
2, 12672, Note_on_c, 0, 57, 88
2, 12672, Note_on_c, 0, 62, 97
2, 13031, Note_off_c, 0, 62, 64
2, 13031, Note_off_c, 0, 66, 64
2, 13035, Note_off_c, 0, 57, 64
2, 13055, Note_on_c, 0, 61, 89
2, 13055, Note_on_c, 0, 57, 80
2, 13055, Note_on_c, 0, 64, 82
2, 13223, Note_off_c, 0, 61, 64
2, 13247, Note_on_c, 0, 61, 83
2, 13258, Note_off_c, 0, 64, 64
2, 13295, Note_on_c, 0, 64, 77
2, 13368, Note_off_c, 0, 57, 64
2, 13391, Note_on_c, 0, 57, 77
2, 13440, Note_on_c, 0, 62, 78
2, 13440, Note_on_c, 0, 55, 82
2, 13440, Note_on_c, 0, 59, 80
2, 13442, Note_off_c, 0, 57, 64
2, 13442, Note_off_c, 0, 61, 64
2, 13444, Note_off_c, 0, 64, 64
2, 13823, Note_off_c, 0, 62, 64
2, 13823, Note_off_c, 0, 59, 64
2, 13823, Note_off_c, 0, 55, 64
2, 13825, Note_on_c, 0, 61, 87
2, 13825, Note_on_c, 0, 64, 85
2, 13825, Note_on_c, 0, 57, 84
2, 14008, Note_off_c, 0, 61, 64
2, 14015, Note_on_c, 0, 59, 88
2, 14018, Note_off_c, 0, 64, 64
2, 14063, Note_on_c, 0, 61, 97
2, 14111, Note_on_c, 0, 64, 92
2, 14116, Note_off_c, 0, 57, 64
2, 14159, Note_on_c, 0, 57, 92
2, 14167, Note_off_c, 0, 59, 64
2, 14203, Note_off_c, 0, 61, 64
2, 14204, Note_off_c, 0, 64, 64
2, 14207, Note_off_c, 0, 57, 64
2, 14207, Note_on_c, 0, 56, 70
2, 14209, Note_on_c, 0, 59, 92
2, 14209, Note_on_c, 0, 52, 80
2, 14442, Note_off_c, 0, 59, 64
2, 14449, Note_on_c, 0, 59, 92
2, 14497, Note_on_c, 0, 64, 90
2, 14579, Note_off_c, 0, 59, 64
2, 14587, Note_off_c, 0, 64, 64
2, 14587, Note_off_c, 0, 52, 64
2, 14592, Note_on_c, 0, 54, 76
2, 14592, Note_on_c, 0, 57, 80
2, 14592, Note_on_c, 0, 62, 74
2, 14594, Note_off_c, 0, 56, 64
2, 14975, Note_off_c, 0, 54, 64
2, 14975, Note_off_c, 0, 57, 64
2, 14975, Note_off_c, 0, 62, 64
2, 14976, Note_on_c, 0, 61, 94
2, 14976, Note_on_c, 0, 52, 93
2, 14976, Note_on_c, 0, 57, 91
2, 15338, Note_off_c, 0, 61, 64
2, 15341, Note_off_c, 0, 57, 64
2, 15341, Note_off_c, 0, 52, 64
2, 15359, Note_on_c, 0, 54, 93
2, 15361, Note_on_c, 0, 62, 92
2, 15361, Note_on_c, 0, 59, 91
2, 15742, Note_off_c, 0, 54, 64
2, 15743, Note_off_c, 0, 62, 64
2, 15744, Note_off_c, 0, 59, 64
2, 15744, Note_on_c, 0, 54, 83
2, 15744, Note_on_c, 0, 57, 99
2, 15744, Note_on_c, 0, 62, 102
2, 16103, Note_off_c, 0, 54, 64
2, 16106, Note_off_c, 0, 57, 64
2, 16107, Note_off_c, 0, 62, 64
2, 16127, Note_on_c, 0, 57, 98
2, 16127, Note_on_c, 0, 61, 101
2, 16127, Note_on_c, 0, 52, 92
2, 16497, Note_off_c, 0, 61, 64
2, 16498, Note_off_c, 0, 52, 64
2, 16500, Note_off_c, 0, 57, 64
2, 16511, Note_on_c, 0, 59, 89
2, 16511, Note_on_c, 0, 50, 86
2, 16512, Note_on_c, 0, 55, 81
2, 16873, Note_off_c, 0, 59, 64
2, 16878, Note_off_c, 0, 55, 64
2, 16878, Note_off_c, 0, 50, 64
2, 16895, Note_on_c, 0, 52, 88
2, 16896, Note_on_c, 0, 57, 90
2, 16896, Note_on_c, 0, 61, 94
2, 17267, Note_off_c, 0, 57, 64
2, 17270, Note_off_c, 0, 61, 64
2, 17272, Note_off_c, 0, 52, 64
2, 17280, Note_on_c, 0, 52, 82
2, 17280, Note_on_c, 0, 59, 98
2, 17281, Note_on_c, 0, 56, 94
2, 17663, Note_off_c, 0, 59, 64
2, 17663, Note_off_c, 0, 52, 64
2, 17664, Note_off_c, 0, 56, 64
2, 17664, Note_on_c, 0, 54, 99
2, 17664, Note_on_c, 0, 57, 99
2, 17664, Note_on_c, 0, 62, 99
2, 18047, Note_off_c, 0, 62, 64
2, 18047, Note_off_c, 0, 57, 64
2, 18047, Note_off_c, 0, 54, 64
2, 18049, Note_on_c, 0, 52, 92
2, 18049, Note_on_c, 0, 57, 102
2, 18049, Note_on_c, 0, 61, 96
2, 18427, Note_off_c, 0, 57, 64
2, 18427, Note_off_c, 0, 52, 64
2, 18428, Note_off_c, 0, 61, 64
2, 18431, Note_on_c, 0, 56, 105
2, 18431, Note_on_c, 0, 59, 100
2, 18433, Note_on_c, 0, 52, 85
2, 18772, Note_off_c, 0, 59, 64
2, 18812, Note_off_c, 0, 52, 64
2, 18812, Note_off_c, 0, 56, 64
2, 18816, Note_on_c, 0, 54, 76
2, 18817, Note_on_c, 0, 62, 98
2, 18817, Note_on_c, 0, 57, 104
2, 19196, Note_off_c, 0, 57, 64
2, 19196, Note_off_c, 0, 62, 64
2, 19198, Note_off_c, 0, 54, 64
2, 19201, Note_on_c, 0, 57, 100
2, 19201, Note_on_c, 0, 61, 111
2, 19201, Note_on_c, 0, 52, 85
2, 19388, Note_off_c, 0, 52, 64
2, 19388, Note_off_c, 0, 61, 64
2, 19388, Note_off_c, 0, 57, 64
2, 19391, Note_on_c, 0, 57, 106
2, 19391, Note_on_c, 0, 61, 109
2, 19391, Note_on_c, 0, 52, 102
2, 19437, Note_off_c, 0, 52, 64
2, 19437, Note_off_c, 0, 61, 64
2, 19437, Note_off_c, 0, 57, 64
2, 20738, Note_on_c, 0, 68, 101
2, 20738, Note_on_c, 0, 59, 95
2, 20738, Note_on_c, 0, 64, 103
2, 20821, Note_off_c, 0, 59, 64
2, 20821, Note_off_c, 0, 68, 64
2, 20822, Note_off_c, 0, 64, 64
2, 20834, Note_on_c, 0, 59, 95
2, 20835, Note_on_c, 0, 68, 107
2, 20835, Note_on_c, 0, 64, 103
2, 20914, Note_off_c, 0, 64, 64
2, 20914, Note_off_c, 0, 68, 64
2, 20915, Note_off_c, 0, 59, 64
2, 20931, Note_on_c, 0, 59, 112
2, 20931, Note_on_c, 0, 68, 116
2, 20931, Note_on_c, 0, 64, 114
2, 21010, Note_off_c, 0, 64, 64
2, 21010, Note_off_c, 0, 68, 64
2, 21010, Note_off_c, 0, 59, 64
2, 21023, Note_on_c, 0, 68, 111
2, 21023, Note_on_c, 0, 64, 112
2, 21023, Note_on_c, 0, 59, 116
2, 21117, Note_off_c, 0, 68, 64
2, 21118, Note_off_c, 0, 64, 64
2, 21119, Note_off_c, 0, 59, 64
2, 21121, Note_on_c, 0, 61, 96
2, 21121, Note_on_c, 0, 57, 102
2, 21121, Note_on_c, 0, 52, 92
2, 21499, Note_off_c, 0, 52, 64
2, 21499, Note_off_c, 0, 57, 64
2, 21500, Note_off_c, 0, 61, 64
2, 21503, Note_on_c, 0, 56, 105
2, 21503, Note_on_c, 0, 59, 100
2, 21505, Note_on_c, 0, 52, 85
2, 21844, Note_off_c, 0, 59, 64
2, 21884, Note_off_c, 0, 52, 64
2, 21884, Note_off_c, 0, 56, 64
2, 21888, Note_on_c, 0, 54, 76
2, 21889, Note_on_c, 0, 62, 98
2, 21889, Note_on_c, 0, 57, 104
2, 22268, Note_off_c, 0, 57, 64
2, 22268, Note_off_c, 0, 62, 64
2, 22270, Note_off_c, 0, 54, 64
2, 22273, Note_on_c, 0, 57, 100
2, 22273, Note_on_c, 0, 61, 111
2, 22273, Note_on_c, 0, 52, 85
2, 22460, Note_off_c, 0, 52, 64
2, 22460, Note_off_c, 0, 61, 64
2, 22460, Note_off_c, 0, 57, 64
2, 22463, Note_on_c, 0, 57, 106
2, 22463, Note_on_c, 0, 61, 109
2, 22463, Note_on_c, 0, 52, 102
2, 22509, Note_off_c, 0, 52, 64
2, 22509, Note_off_c, 0, 61, 64
2, 22509, Note_off_c, 0, 57, 64
2, 23810, Note_on_c, 0, 68, 101
2, 23810, Note_on_c, 0, 59, 95
2, 23810, Note_on_c, 0, 64, 103
2, 23893, Note_off_c, 0, 59, 64
2, 23893, Note_off_c, 0, 68, 64
2, 23894, Note_off_c, 0, 64, 64
2, 23906, Note_on_c, 0, 59, 95
2, 23907, Note_on_c, 0, 68, 107
2, 23907, Note_on_c, 0, 64, 103
2, 23986, Note_off_c, 0, 64, 64
2, 23986, Note_off_c, 0, 68, 64
2, 23987, Note_off_c, 0, 59, 64
2, 24003, Note_on_c, 0, 59, 112
2, 24003, Note_on_c, 0, 68, 116
2, 24003, Note_on_c, 0, 64, 114
2, 24082, Note_off_c, 0, 64, 64
2, 24082, Note_off_c, 0, 68, 64
2, 24082, Note_off_c, 0, 59, 64
2, 24095, Note_on_c, 0, 68, 111
2, 24095, Note_on_c, 0, 64, 112
2, 24095, Note_on_c, 0, 59, 116
2, 24189, Note_off_c, 0, 68, 64
2, 24190, Note_off_c, 0, 64, 64
2, 24191, Note_off_c, 0, 59, 64
2, 24193, Note_on_c, 0, 61, 96
2, 24193, Note_on_c, 0, 57, 102
2, 24193, Note_on_c, 0, 52, 92
2, 24571, Note_off_c, 0, 52, 64
2, 24571, Note_off_c, 0, 57, 64
2, 24572, Note_off_c, 0, 61, 64
2, 24575, Note_on_c, 0, 56, 105
2, 24575, Note_on_c, 0, 59, 100
2, 24577, Note_on_c, 0, 52, 85
2, 24916, Note_off_c, 0, 59, 64
2, 24956, Note_off_c, 0, 52, 64
2, 24956, Note_off_c, 0, 56, 64
2, 24960, Note_on_c, 0, 54, 76
2, 24961, Note_on_c, 0, 62, 98
2, 24961, Note_on_c, 0, 57, 104
2, 25340, Note_off_c, 0, 57, 64
2, 25340, Note_off_c, 0, 62, 64
2, 25342, Note_off_c, 0, 54, 64
2, 25345, Note_on_c, 0, 57, 100
2, 25345, Note_on_c, 0, 61, 111
2, 25345, Note_on_c, 0, 52, 85
2, 25532, Note_off_c, 0, 52, 64
2, 25532, Note_off_c, 0, 61, 64
2, 25532, Note_off_c, 0, 57, 64
2, 25535, Note_on_c, 0, 57, 106
2, 25535, Note_on_c, 0, 61, 109
2, 25535, Note_on_c, 0, 52, 102
2, 25581, Note_off_c, 0, 52, 64
2, 25581, Note_off_c, 0, 61, 64
2, 25581, Note_off_c, 0, 57, 64
2, 26880, Note_on_c, 0, 61, 114
2, 26881, Note_on_c, 0, 64, 114
2, 26881, Note_on_c, 0, 57, 114
2, 26881, Note_on_c, 0, 52, 114
2, 27263, Note_off_c, 0, 61, 64
2, 27264, Note_off_c, 0, 64, 64
2, 27264, Note_off_c, 0, 57, 64
2, 27264, Note_off_c, 0, 52, 64
2, 27264, End_track
3, 0, Start_track
3, 0, Program_c, 1, 35
3, 0, Control_c, 1, 7, 105
3, 0, Control_c, 1, 10, 60
3, 0, Control_c, 1, 11, 127
3, 0, Control_c, 1, 91, 10
3, 0, Control_c, 1, 93, 0
3, 1, Note_on_c, 1, 33, 121
3, 2, Control_c, 1, 1, 0
3, 2, Pitch_bend_c, 1, 8192
3, 137, Note_off_c, 1, 33, 64
3, 143, Note_on_c, 1, 40, 104
3, 191, Note_on_c, 1, 31, 109
3, 195, Note_off_c, 1, 40, 64
3, 374, Note_off_c, 1, 31, 64
3, 383, Note_on_c, 1, 38, 114
3, 442, Note_off_c, 1, 38, 64
3, 479, Note_on_c, 1, 33, 119
3, 599, Note_off_c, 1, 33, 64
3, 623, Note_on_c, 1, 40, 101
3, 666, Note_off_c, 1, 40, 64
3, 673, Note_on_c, 1, 40, 104
3, 712, Note_off_c, 1, 40, 64
3, 720, Note_on_c, 1, 40, 115
3, 766, Note_off_c, 1, 40, 64
3, 769, Note_on_c, 1, 33, 114
3, 892, Note_off_c, 1, 33, 64
3, 911, Note_on_c, 1, 33, 103
3, 935, Note_off_c, 1, 33, 64
3, 961, Note_on_c, 1, 33, 110
3, 1053, Note_off_c, 1, 33, 64
3, 1057, Note_on_c, 1, 40, 104
3, 1093, Note_off_c, 1, 40, 64
3, 1103, Note_on_c, 1, 40, 116
3, 1145, Note_off_c, 1, 40, 64
3, 1152, Note_on_c, 1, 33, 104
3, 1434, Note_off_c, 1, 33, 64
3, 1441, Note_on_c, 1, 40, 111
3, 1534, Note_off_c, 1, 40, 64
3, 1536, Note_on_c, 1, 33, 112
3, 1706, Note_off_c, 1, 33, 64
3, 1728, Note_on_c, 1, 33, 114
3, 1741, Note_off_c, 1, 33, 64
3, 1775, Note_on_c, 1, 33, 112
3, 1866, Note_off_c, 1, 33, 64
3, 1873, Note_on_c, 1, 34, 101
3, 1911, Note_off_c, 1, 34, 64
3, 1920, Note_on_c, 1, 35, 104
3, 2092, Note_off_c, 1, 35, 64
3, 2112, Note_on_c, 1, 35, 111
3, 2124, Note_off_c, 1, 35, 64
3, 2160, Note_on_c, 1, 35, 115
3, 2255, Note_off_c, 1, 35, 64
3, 2257, Note_on_c, 1, 37, 119
3, 2298, Note_off_c, 1, 37, 64
3, 2304, Note_on_c, 1, 38, 103
3, 2456, Note_off_c, 1, 38, 64
3, 2473, Note_on_c, 1, 33, 99
3, 2487, Note_off_c, 1, 33, 64
3, 2496, Note_on_c, 1, 38, 108
3, 2516, Note_off_c, 1, 38, 64
3, 2544, Note_on_c, 1, 38, 108
3, 2634, Note_off_c, 1, 38, 64
3, 2639, Note_on_c, 1, 40, 112
3, 2683, Note_off_c, 1, 40, 64
3, 2688, Note_on_c, 1, 33, 99
3, 2853, Note_off_c, 1, 33, 64
3, 2880, Note_on_c, 1, 33, 81
3, 2896, Note_off_c, 1, 33, 64
3, 2928, Note_on_c, 1, 33, 118
3, 3012, Note_off_c, 1, 33, 64
3, 3022, Note_on_c, 1, 32, 94
3, 3070, Note_off_c, 1, 32, 64
3, 3072, Note_on_c, 1, 31, 118
3, 3221, Note_off_c, 1, 31, 64
3, 3264, Note_on_c, 1, 31, 111
3, 3277, Note_off_c, 1, 31, 64
3, 3312, Note_on_c, 1, 31, 114
3, 3399, Note_off_c, 1, 31, 64
3, 3407, Note_on_c, 1, 32, 113
3, 3447, Note_off_c, 1, 32, 64
3, 3456, Note_on_c, 1, 33, 108
3, 3620, Note_off_c, 1, 33, 64
3, 3648, Note_on_c, 1, 33, 104
3, 3666, Note_off_c, 1, 33, 64
3, 3696, Note_on_c, 1, 37, 106
3, 3757, Note_off_c, 1, 37, 64
3, 3767, Note_on_c, 1, 38, 102
3, 3782, Note_off_c, 1, 38, 64
3, 3791, Note_on_c, 1, 39, 92
3, 3822, Note_off_c, 1, 39, 64
3, 3840, Note_on_c, 1, 40, 104
3, 3995, Note_off_c, 1, 40, 64
3, 4007, Note_on_c, 1, 35, 90
3, 4019, Note_off_c, 1, 35, 64
3, 4031, Note_on_c, 1, 40, 105
3, 4041, Note_off_c, 1, 40, 64
3, 4079, Note_on_c, 1, 40, 118
3, 4201, Note_off_c, 1, 40, 64
3, 4224, Note_on_c, 1, 38, 115
3, 4383, Note_off_c, 1, 38, 64
3, 4391, Note_on_c, 1, 33, 92
3, 4404, Note_off_c, 1, 33, 64
3, 4415, Note_on_c, 1, 38, 111
3, 4426, Note_off_c, 1, 38, 64
3, 4463, Note_on_c, 1, 38, 118
3, 4549, Note_off_c, 1, 38, 64
3, 4559, Note_on_c, 1, 40, 111
3, 4599, Note_off_c, 1, 40, 64
3, 4608, Note_on_c, 1, 33, 104
3, 4784, Note_off_c, 1, 33, 64
3, 4800, Note_on_c, 1, 33, 109
3, 4810, Note_off_c, 1, 33, 64
3, 4848, Note_on_c, 1, 33, 116
3, 4937, Note_off_c, 1, 33, 64
3, 4943, Note_on_c, 1, 34, 101
3, 4986, Note_off_c, 1, 34, 64
3, 4992, Note_on_c, 1, 35, 101
3, 5132, Note_off_c, 1, 35, 64
3, 5159, Note_on_c, 1, 35, 104
3, 5168, Note_off_c, 1, 35, 64
3, 5184, Note_on_c, 1, 35, 104
3, 5198, Note_off_c, 1, 35, 64
3, 5232, Note_on_c, 1, 35, 115
3, 5319, Note_off_c, 1, 35, 64
3, 5328, Note_on_c, 1, 37, 113
3, 5367, Note_off_c, 1, 37, 64
3, 5376, Note_on_c, 1, 38, 102
3, 5528, Note_off_c, 1, 38, 64
3, 5543, Note_on_c, 1, 33, 92
3, 5555, Note_off_c, 1, 33, 64
3, 5568, Note_on_c, 1, 38, 107
3, 5581, Note_off_c, 1, 38, 64
3, 5616, Note_on_c, 1, 38, 112
3, 5703, Note_off_c, 1, 38, 64
3, 5711, Note_on_c, 1, 40, 104
3, 5756, Note_off_c, 1, 40, 64
3, 5760, Note_on_c, 1, 33, 100
3, 5926, Note_off_c, 1, 33, 64
3, 5952, Note_on_c, 1, 33, 112
3, 5964, Note_off_c, 1, 33, 64
3, 6000, Note_on_c, 1, 33, 119
3, 6087, Note_off_c, 1, 33, 64
3, 6096, Note_on_c, 1, 32, 97
3, 6130, Note_off_c, 1, 32, 64
3, 6144, Note_on_c, 1, 31, 121
3, 6287, Note_off_c, 1, 31, 64
3, 6311, Note_on_c, 1, 31, 121
3, 6322, Note_off_c, 1, 31, 64
3, 6336, Note_on_c, 1, 31, 115
3, 6351, Note_off_c, 1, 31, 64
3, 6383, Note_on_c, 1, 31, 121
3, 6464, Note_off_c, 1, 31, 64
3, 6480, Note_on_c, 1, 32, 121
3, 6513, Note_off_c, 1, 32, 64
3, 6528, Note_on_c, 1, 33, 121
3, 6697, Note_off_c, 1, 33, 64
3, 6720, Note_on_c, 1, 33, 116
3, 6740, Note_off_c, 1, 33, 64
3, 6767, Note_on_c, 1, 37, 121
3, 6822, Note_off_c, 1, 37, 64
3, 6839, Note_on_c, 1, 38, 107
3, 6855, Note_off_c, 1, 38, 64
3, 6863, Note_on_c, 1, 39, 121
3, 6898, Note_off_c, 1, 39, 64
3, 6912, Note_on_c, 1, 40, 111
3, 7065, Note_off_c, 1, 40, 64
3, 7079, Note_on_c, 1, 35, 101
3, 7090, Note_off_c, 1, 35, 64
3, 7103, Note_on_c, 1, 35, 119
3, 7118, Note_off_c, 1, 35, 64
3, 7152, Note_on_c, 1, 28, 114
3, 7247, Note_off_c, 1, 28, 64
3, 7248, Note_on_c, 1, 40, 112
3, 7291, Note_off_c, 1, 40, 64
3, 7296, Note_on_c, 1, 38, 102
3, 7313, Note_off_c, 1, 38, 64
3, 7344, Note_on_c, 1, 38, 115
3, 7461, Note_off_c, 1, 38, 64
3, 7488, Note_on_c, 1, 38, 121
3, 7502, Note_off_c, 1, 38, 64
3, 7511, Note_on_c, 1, 30, 121
3, 7538, Note_off_c, 1, 30, 64
3, 7559, Note_on_c, 1, 30, 121
3, 7568, Note_off_c, 1, 30, 64
3, 7584, Note_on_c, 1, 31, 121
3, 7621, Note_off_c, 1, 31, 64
3, 7631, Note_on_c, 1, 32, 121
3, 7668, Note_off_c, 1, 32, 64
3, 7679, Note_on_c, 1, 33, 121
3, 7773, Note_off_c, 1, 33, 64
3, 7777, Note_on_c, 1, 33, 121
3, 7840, Note_off_c, 1, 33, 64
3, 7849, Note_on_c, 1, 33, 121
3, 7859, Note_off_c, 1, 33, 64
3, 7872, Note_on_c, 1, 33, 121
3, 7919, Note_off_c, 1, 33, 64
3, 7920, Note_on_c, 1, 37, 108
3, 7967, Note_off_c, 1, 37, 64
3, 7968, Note_on_c, 1, 38, 121
3, 8005, Note_off_c, 1, 38, 64
3, 8015, Note_on_c, 1, 39, 121
3, 8049, Note_off_c, 1, 39, 64
3, 8064, Note_on_c, 1, 40, 121
3, 8111, Note_off_c, 1, 40, 64
3, 8111, Note_on_c, 1, 35, 116
3, 8147, Note_off_c, 1, 35, 64
3, 8160, Note_on_c, 1, 40, 121
3, 8303, Note_off_c, 1, 40, 64
3, 8304, Note_on_c, 1, 35, 98
3, 8351, Note_off_c, 1, 35, 64
3, 8353, Note_on_c, 1, 40, 121
3, 8393, Note_off_c, 1, 40, 64
3, 8399, Note_on_c, 1, 39, 121
3, 8440, Note_off_c, 1, 39, 64
3, 8448, Note_on_c, 1, 38, 121
3, 8497, Note_off_c, 1, 38, 64
3, 8497, Note_on_c, 1, 33, 121
3, 8526, Note_off_c, 1, 33, 64
3, 8544, Note_on_c, 1, 38, 121
3, 8640, Note_off_c, 1, 38, 64
3, 8663, Note_on_c, 1, 38, 121
3, 8673, Note_off_c, 1, 38, 64
3, 8687, Note_on_c, 1, 30, 121
3, 8718, Note_off_c, 1, 30, 64
3, 8735, Note_on_c, 1, 31, 121
3, 8770, Note_off_c, 1, 31, 64
3, 8784, Note_on_c, 1, 32, 121
3, 8818, Note_off_c, 1, 32, 64
3, 8832, Note_on_c, 1, 33, 121
3, 8903, Note_off_c, 1, 33, 64
3, 8903, Note_on_c, 1, 37, 121
3, 8937, Note_off_c, 1, 37, 64
3, 8951, Note_on_c, 1, 37, 121
3, 8974, Note_off_c, 1, 37, 64
3, 8976, Note_on_c, 1, 38, 118
3, 8999, Note_off_c, 1, 38, 64
3, 9000, Note_on_c, 1, 40, 111
3, 9023, Note_off_c, 1, 40, 64
3, 9025, Note_on_c, 1, 33, 121
3, 9064, Note_off_c, 1, 33, 64
3, 9216, Note_on_c, 1, 40, 121
3, 9333, Note_off_c, 1, 40, 64
3, 9360, Note_on_c, 1, 28, 121
3, 9378, Note_off_c, 1, 28, 64
3, 9408, Note_on_c, 1, 28, 121
3, 9571, Note_off_c, 1, 28, 64
3, 9601, Note_on_c, 1, 38, 116
3, 9709, Note_off_c, 1, 38, 64
3, 9744, Note_on_c, 1, 38, 104
3, 9757, Note_off_c, 1, 38, 64
3, 9792, Note_on_c, 1, 38, 118
3, 9954, Note_off_c, 1, 38, 64
3, 9984, Note_on_c, 1, 33, 115
3, 10088, Note_off_c, 1, 33, 64
3, 10128, Note_on_c, 1, 33, 111
3, 10142, Note_off_c, 1, 33, 64
3, 10176, Note_on_c, 1, 33, 121
3, 10314, Note_off_c, 1, 33, 64
3, 10369, Note_on_c, 1, 33, 121
3, 10505, Note_off_c, 1, 33, 64
3, 10511, Note_on_c, 1, 40, 104
3, 10558, Note_off_c, 1, 40, 64
3, 10559, Note_on_c, 1, 31, 109
3, 10742, Note_off_c, 1, 31, 64
3, 10752, Note_on_c, 1, 38, 114
3, 10811, Note_off_c, 1, 38, 64
3, 10848, Note_on_c, 1, 33, 119
3, 10968, Note_off_c, 1, 33, 64
3, 10991, Note_on_c, 1, 40, 101
3, 11034, Note_off_c, 1, 40, 64
3, 11041, Note_on_c, 1, 40, 104
3, 11080, Note_off_c, 1, 40, 64
3, 11088, Note_on_c, 1, 40, 115
3, 11134, Note_off_c, 1, 40, 64
3, 11137, Note_on_c, 1, 33, 114
3, 11260, Note_off_c, 1, 33, 64
3, 11280, Note_on_c, 1, 33, 103
3, 11304, Note_off_c, 1, 33, 64
3, 11329, Note_on_c, 1, 33, 110
3, 11421, Note_off_c, 1, 33, 64
3, 11425, Note_on_c, 1, 40, 104
3, 11461, Note_off_c, 1, 40, 64
3, 11471, Note_on_c, 1, 40, 116
3, 11513, Note_off_c, 1, 40, 64
3, 11520, Note_on_c, 1, 33, 104
3, 11802, Note_off_c, 1, 33, 64
3, 11809, Note_on_c, 1, 40, 111
3, 11902, Note_off_c, 1, 40, 64
3, 11905, Note_on_c, 1, 33, 112
3, 12075, Note_off_c, 1, 33, 64
3, 12096, Note_on_c, 1, 33, 114
3, 12109, Note_off_c, 1, 33, 64
3, 12144, Note_on_c, 1, 33, 112
3, 12235, Note_off_c, 1, 33, 64
3, 12241, Note_on_c, 1, 34, 101
3, 12279, Note_off_c, 1, 34, 64
3, 12289, Note_on_c, 1, 35, 104
3, 12461, Note_off_c, 1, 35, 64
3, 12480, Note_on_c, 1, 35, 111
3, 12492, Note_off_c, 1, 35, 64
3, 12528, Note_on_c, 1, 35, 115
3, 12623, Note_off_c, 1, 35, 64
3, 12625, Note_on_c, 1, 37, 119
3, 12666, Note_off_c, 1, 37, 64
3, 12672, Note_on_c, 1, 38, 103
3, 12824, Note_off_c, 1, 38, 64
3, 12841, Note_on_c, 1, 33, 99
3, 12855, Note_off_c, 1, 33, 64
3, 12864, Note_on_c, 1, 38, 108
3, 12884, Note_off_c, 1, 38, 64
3, 12912, Note_on_c, 1, 38, 108
3, 13002, Note_off_c, 1, 38, 64
3, 13008, Note_on_c, 1, 40, 112
3, 13052, Note_off_c, 1, 40, 64
3, 13056, Note_on_c, 1, 33, 99
3, 13221, Note_off_c, 1, 33, 64
3, 13247, Note_on_c, 1, 33, 81
3, 13263, Note_off_c, 1, 33, 64
3, 13296, Note_on_c, 1, 33, 118
3, 13380, Note_off_c, 1, 33, 64
3, 13392, Note_on_c, 1, 32, 94
3, 13440, Note_off_c, 1, 32, 64
3, 13440, Note_on_c, 1, 31, 118
3, 13589, Note_off_c, 1, 31, 64
3, 13632, Note_on_c, 1, 31, 111
3, 13645, Note_off_c, 1, 31, 64
3, 13680, Note_on_c, 1, 31, 114
3, 13767, Note_off_c, 1, 31, 64
3, 13775, Note_on_c, 1, 32, 113
3, 13815, Note_off_c, 1, 32, 64
3, 13824, Note_on_c, 1, 33, 108
3, 13988, Note_off_c, 1, 33, 64
3, 14016, Note_on_c, 1, 33, 104
3, 14034, Note_off_c, 1, 33, 64
3, 14064, Note_on_c, 1, 37, 106
3, 14125, Note_off_c, 1, 37, 64
3, 14135, Note_on_c, 1, 38, 102
3, 14150, Note_off_c, 1, 38, 64
3, 14159, Note_on_c, 1, 39, 92
3, 14190, Note_off_c, 1, 39, 64
3, 14208, Note_on_c, 1, 40, 104
3, 14363, Note_off_c, 1, 40, 64
3, 14375, Note_on_c, 1, 35, 90
3, 14387, Note_off_c, 1, 35, 64
3, 14399, Note_on_c, 1, 40, 105
3, 14409, Note_off_c, 1, 40, 64
3, 14447, Note_on_c, 1, 40, 118
3, 14569, Note_off_c, 1, 40, 64
3, 14592, Note_on_c, 1, 38, 115
3, 14751, Note_off_c, 1, 38, 64
3, 14759, Note_on_c, 1, 33, 92
3, 14772, Note_off_c, 1, 33, 64
3, 14784, Note_on_c, 1, 38, 111
3, 14795, Note_off_c, 1, 38, 64
3, 14831, Note_on_c, 1, 38, 118
3, 14917, Note_off_c, 1, 38, 64
3, 14928, Note_on_c, 1, 40, 111
3, 14968, Note_off_c, 1, 40, 64
3, 14976, Note_on_c, 1, 33, 104
3, 15152, Note_off_c, 1, 33, 64
3, 15168, Note_on_c, 1, 33, 109
3, 15178, Note_off_c, 1, 33, 64
3, 15216, Note_on_c, 1, 33, 116
3, 15305, Note_off_c, 1, 33, 64
3, 15311, Note_on_c, 1, 34, 101
3, 15354, Note_off_c, 1, 34, 64
3, 15360, Note_on_c, 1, 35, 101
3, 15500, Note_off_c, 1, 35, 64
3, 15527, Note_on_c, 1, 35, 104
3, 15536, Note_off_c, 1, 35, 64
3, 15552, Note_on_c, 1, 35, 104
3, 15566, Note_off_c, 1, 35, 64
3, 15600, Note_on_c, 1, 35, 115
3, 15687, Note_off_c, 1, 35, 64
3, 15695, Note_on_c, 1, 37, 113
3, 15734, Note_off_c, 1, 37, 64
3, 15744, Note_on_c, 1, 38, 102
3, 15896, Note_off_c, 1, 38, 64
3, 15911, Note_on_c, 1, 33, 92
3, 15923, Note_off_c, 1, 33, 64
3, 15936, Note_on_c, 1, 38, 107
3, 15949, Note_off_c, 1, 38, 64
3, 15984, Note_on_c, 1, 38, 112
3, 16071, Note_off_c, 1, 38, 64
3, 16079, Note_on_c, 1, 40, 104
3, 16124, Note_off_c, 1, 40, 64
3, 16128, Note_on_c, 1, 33, 100
3, 16294, Note_off_c, 1, 33, 64
3, 16320, Note_on_c, 1, 33, 112
3, 16332, Note_off_c, 1, 33, 64
3, 16368, Note_on_c, 1, 33, 119
3, 16455, Note_off_c, 1, 33, 64
3, 16464, Note_on_c, 1, 32, 97
3, 16498, Note_off_c, 1, 32, 64
3, 16512, Note_on_c, 1, 31, 121
3, 16655, Note_off_c, 1, 31, 64
3, 16679, Note_on_c, 1, 31, 121
3, 16690, Note_off_c, 1, 31, 64
3, 16703, Note_on_c, 1, 31, 115
3, 16718, Note_off_c, 1, 31, 64
3, 16751, Note_on_c, 1, 31, 121
3, 16832, Note_off_c, 1, 31, 64
3, 16848, Note_on_c, 1, 32, 121
3, 16881, Note_off_c, 1, 32, 64
3, 16896, Note_on_c, 1, 33, 121
3, 17065, Note_off_c, 1, 33, 64
3, 17088, Note_on_c, 1, 33, 116
3, 17108, Note_off_c, 1, 33, 64
3, 17136, Note_on_c, 1, 37, 121
3, 17191, Note_off_c, 1, 37, 64
3, 17207, Note_on_c, 1, 38, 107
3, 17223, Note_off_c, 1, 38, 64
3, 17231, Note_on_c, 1, 39, 121
3, 17266, Note_off_c, 1, 39, 64
3, 17280, Note_on_c, 1, 40, 111
3, 17433, Note_off_c, 1, 40, 64
3, 17447, Note_on_c, 1, 35, 101
3, 17458, Note_off_c, 1, 35, 64
3, 17471, Note_on_c, 1, 35, 119
3, 17486, Note_off_c, 1, 35, 64
3, 17520, Note_on_c, 1, 28, 114
3, 17615, Note_off_c, 1, 28, 64
3, 17616, Note_on_c, 1, 40, 112
3, 17659, Note_off_c, 1, 40, 64
3, 17664, Note_on_c, 1, 38, 102
3, 17681, Note_off_c, 1, 38, 64
3, 17712, Note_on_c, 1, 38, 115
3, 17829, Note_off_c, 1, 38, 64
3, 17856, Note_on_c, 1, 38, 121
3, 17870, Note_off_c, 1, 38, 64
3, 17879, Note_on_c, 1, 38, 121
3, 17897, Note_off_c, 1, 38, 64
3, 17904, Note_on_c, 1, 30, 121
3, 17938, Note_off_c, 1, 30, 64
3, 17952, Note_on_c, 1, 31, 121
3, 17989, Note_off_c, 1, 31, 64
3, 17999, Note_on_c, 1, 32, 121
3, 18036, Note_off_c, 1, 32, 64
3, 18048, Note_on_c, 1, 33, 121
3, 18142, Note_off_c, 1, 33, 64
3, 18145, Note_on_c, 1, 33, 121
3, 18208, Note_off_c, 1, 33, 64
3, 18217, Note_on_c, 1, 33, 121
3, 18227, Note_off_c, 1, 33, 64
3, 18240, Note_on_c, 1, 33, 121
3, 18287, Note_off_c, 1, 33, 64
3, 18288, Note_on_c, 1, 37, 108
3, 18335, Note_off_c, 1, 37, 64
3, 18336, Note_on_c, 1, 38, 121
3, 18373, Note_off_c, 1, 38, 64
3, 18383, Note_on_c, 1, 39, 121
3, 18417, Note_off_c, 1, 39, 64
3, 18432, Note_on_c, 1, 40, 121
3, 18479, Note_off_c, 1, 40, 64
3, 18479, Note_on_c, 1, 35, 116
3, 18515, Note_off_c, 1, 35, 64
3, 18528, Note_on_c, 1, 40, 121
3, 18671, Note_off_c, 1, 40, 64
3, 18672, Note_on_c, 1, 35, 98
3, 18713, Note_off_c, 1, 35, 64
3, 18721, Note_on_c, 1, 40, 121
3, 18761, Note_off_c, 1, 40, 64
3, 18767, Note_on_c, 1, 39, 121
3, 18808, Note_off_c, 1, 39, 64
3, 18816, Note_on_c, 1, 38, 121
3, 18864, Note_on_c, 1, 33, 121
3, 18865, Note_off_c, 1, 38, 64
3, 18893, Note_off_c, 1, 33, 64
3, 18912, Note_on_c, 1, 38, 121
3, 19008, Note_off_c, 1, 38, 64
3, 19031, Note_on_c, 1, 38, 121
3, 19041, Note_off_c, 1, 38, 64
3, 19056, Note_on_c, 1, 30, 121
3, 19087, Note_off_c, 1, 30, 64
3, 19104, Note_on_c, 1, 31, 121
3, 19139, Note_off_c, 1, 31, 64
3, 19152, Note_on_c, 1, 32, 121
3, 19186, Note_off_c, 1, 32, 64
3, 19200, Note_on_c, 1, 33, 121
3, 19271, Note_off_c, 1, 33, 64
3, 19271, Note_on_c, 1, 37, 121
3, 19294, Note_off_c, 1, 37, 64
3, 19296, Note_on_c, 1, 42, 121
3, 19319, Note_off_c, 1, 42, 64
3, 19319, Note_on_c, 1, 37, 121
3, 19342, Note_off_c, 1, 37, 64
3, 19344, Note_on_c, 1, 39, 118
3, 19368, Note_off_c, 1, 39, 64
3, 19368, Note_on_c, 1, 40, 105
3, 19391, Note_off_c, 1, 40, 64
3, 19393, Note_on_c, 1, 33, 121
3, 19432, Note_off_c, 1, 33, 64
3, 19584, Note_on_c, 1, 40, 121
3, 19701, Note_off_c, 1, 40, 64
3, 19728, Note_on_c, 1, 28, 121
3, 19746, Note_off_c, 1, 28, 64
3, 19776, Note_on_c, 1, 28, 121
3, 19939, Note_off_c, 1, 28, 64
3, 19969, Note_on_c, 1, 38, 116
3, 20077, Note_off_c, 1, 38, 64
3, 20112, Note_on_c, 1, 38, 104
3, 20125, Note_off_c, 1, 38, 64
3, 20160, Note_on_c, 1, 38, 118
3, 20322, Note_off_c, 1, 38, 64
3, 20352, Note_on_c, 1, 33, 115
3, 20456, Note_off_c, 1, 33, 64
3, 20496, Note_on_c, 1, 33, 111
3, 20510, Note_off_c, 1, 33, 64
3, 20544, Note_on_c, 1, 33, 121
3, 20682, Note_off_c, 1, 33, 64
3, 20737, Note_on_c, 1, 28, 121
3, 20774, Note_off_c, 1, 28, 64
3, 20785, Note_on_c, 1, 28, 121
3, 20821, Note_off_c, 1, 28, 64
3, 20833, Note_on_c, 1, 28, 121
3, 20869, Note_off_c, 1, 28, 64
3, 20881, Note_on_c, 1, 28, 121
3, 20917, Note_off_c, 1, 28, 64
3, 20929, Note_on_c, 1, 28, 121
3, 20972, Note_off_c, 1, 28, 64
3, 20977, Note_on_c, 1, 30, 121
3, 21016, Note_off_c, 1, 30, 64
3, 21025, Note_on_c, 1, 31, 121
3, 21066, Note_off_c, 1, 31, 64
3, 21073, Note_on_c, 1, 32, 119
3, 21115, Note_off_c, 1, 32, 64
3, 21120, Note_on_c, 1, 33, 121
3, 21214, Note_off_c, 1, 33, 64
3, 21217, Note_on_c, 1, 33, 121
3, 21280, Note_off_c, 1, 33, 64
3, 21289, Note_on_c, 1, 33, 121
3, 21299, Note_off_c, 1, 33, 64
3, 21312, Note_on_c, 1, 33, 121
3, 21359, Note_off_c, 1, 33, 64
3, 21360, Note_on_c, 1, 37, 108
3, 21401, Note_off_c, 1, 37, 64
3, 21408, Note_on_c, 1, 38, 121
3, 21441, Note_off_c, 1, 38, 64
3, 21455, Note_on_c, 1, 39, 121
3, 21487, Note_off_c, 1, 39, 64
3, 21504, Note_on_c, 1, 40, 121
3, 21551, Note_off_c, 1, 40, 64
3, 21551, Note_on_c, 1, 35, 116
3, 21587, Note_off_c, 1, 35, 64
3, 21600, Note_on_c, 1, 40, 121
3, 21743, Note_off_c, 1, 40, 64
3, 21744, Note_on_c, 1, 35, 98
3, 21781, Note_off_c, 1, 35, 64
3, 21793, Note_on_c, 1, 40, 121
3, 21833, Note_off_c, 1, 40, 64
3, 21839, Note_on_c, 1, 39, 121
3, 21880, Note_off_c, 1, 39, 64
3, 21888, Note_on_c, 1, 38, 121
3, 21936, Note_on_c, 1, 33, 121
3, 21937, Note_off_c, 1, 38, 64
3, 21965, Note_off_c, 1, 33, 64
3, 21984, Note_on_c, 1, 38, 121
3, 22080, Note_off_c, 1, 38, 64
3, 22103, Note_on_c, 1, 38, 121
3, 22113, Note_off_c, 1, 38, 64
3, 22127, Note_on_c, 1, 30, 121
3, 22158, Note_off_c, 1, 30, 64
3, 22175, Note_on_c, 1, 31, 121
3, 22210, Note_off_c, 1, 31, 64
3, 22224, Note_on_c, 1, 32, 121
3, 22258, Note_off_c, 1, 32, 64
3, 22272, Note_on_c, 1, 33, 121
3, 22343, Note_off_c, 1, 33, 64
3, 22343, Note_on_c, 1, 37, 121
3, 22366, Note_off_c, 1, 37, 64
3, 22368, Note_on_c, 1, 42, 121
3, 22391, Note_off_c, 1, 42, 64
3, 22391, Note_on_c, 1, 37, 121
3, 22414, Note_off_c, 1, 37, 64
3, 22416, Note_on_c, 1, 39, 118
3, 22440, Note_off_c, 1, 39, 64
3, 22440, Note_on_c, 1, 40, 105
3, 22463, Note_off_c, 1, 40, 64
3, 22465, Note_on_c, 1, 33, 121
3, 22504, Note_off_c, 1, 33, 64
3, 22656, Note_on_c, 1, 40, 121
3, 22773, Note_off_c, 1, 40, 64
3, 22800, Note_on_c, 1, 28, 121
3, 22816, Note_off_c, 1, 28, 64
3, 22848, Note_on_c, 1, 28, 121
3, 23011, Note_off_c, 1, 28, 64
3, 23041, Note_on_c, 1, 38, 116
3, 23149, Note_off_c, 1, 38, 64
3, 23184, Note_on_c, 1, 38, 104
3, 23200, Note_off_c, 1, 38, 64
3, 23232, Note_on_c, 1, 38, 118
3, 23394, Note_off_c, 1, 38, 64
3, 23424, Note_on_c, 1, 33, 115
3, 23528, Note_off_c, 1, 33, 64
3, 23568, Note_on_c, 1, 33, 111
3, 23584, Note_off_c, 1, 33, 64
3, 23616, Note_on_c, 1, 33, 121
3, 23754, Note_off_c, 1, 33, 64
3, 23809, Note_on_c, 1, 28, 121
3, 23846, Note_off_c, 1, 28, 64
3, 23857, Note_on_c, 1, 28, 121
3, 23893, Note_off_c, 1, 28, 64
3, 23905, Note_on_c, 1, 28, 121
3, 23941, Note_off_c, 1, 28, 64
3, 23953, Note_on_c, 1, 28, 121
3, 23989, Note_off_c, 1, 28, 64
3, 24001, Note_on_c, 1, 28, 121
3, 24044, Note_off_c, 1, 28, 64
3, 24049, Note_on_c, 1, 30, 121
3, 24088, Note_off_c, 1, 30, 64
3, 24097, Note_on_c, 1, 31, 121
3, 24138, Note_off_c, 1, 31, 64
3, 24145, Note_on_c, 1, 32, 119
3, 24187, Note_off_c, 1, 32, 64
3, 24192, Note_on_c, 1, 33, 121
3, 24286, Note_off_c, 1, 33, 64
3, 24289, Note_on_c, 1, 33, 121
3, 24352, Note_off_c, 1, 33, 64
3, 24359, Note_on_c, 1, 33, 121
3, 24369, Note_off_c, 1, 33, 64
3, 24384, Note_on_c, 1, 33, 121
3, 24431, Note_off_c, 1, 33, 64
3, 24432, Note_on_c, 1, 37, 108
3, 24479, Note_off_c, 1, 37, 64
3, 24480, Note_on_c, 1, 38, 121
3, 24517, Note_off_c, 1, 38, 64
3, 24527, Note_on_c, 1, 39, 121
3, 24561, Note_off_c, 1, 39, 64
3, 24576, Note_on_c, 1, 40, 121
3, 24623, Note_off_c, 1, 40, 64
3, 24623, Note_on_c, 1, 35, 116
3, 24659, Note_off_c, 1, 35, 64
3, 24672, Note_on_c, 1, 40, 121
3, 24815, Note_off_c, 1, 40, 64
3, 24816, Note_on_c, 1, 35, 98
3, 24857, Note_off_c, 1, 35, 64
3, 24864, Note_on_c, 1, 40, 121
3, 24911, Note_off_c, 1, 40, 64
3, 24912, Note_on_c, 1, 39, 121
3, 24953, Note_off_c, 1, 39, 64
3, 24960, Note_on_c, 1, 38, 121
3, 25007, Note_on_c, 1, 33, 121
3, 25009, Note_off_c, 1, 38, 64
3, 25036, Note_off_c, 1, 33, 64
3, 25056, Note_on_c, 1, 38, 121
3, 25152, Note_off_c, 1, 38, 64
3, 25175, Note_on_c, 1, 38, 121
3, 25185, Note_off_c, 1, 38, 64
3, 25199, Note_on_c, 1, 30, 121
3, 25230, Note_off_c, 1, 30, 64
3, 25247, Note_on_c, 1, 31, 121
3, 25282, Note_off_c, 1, 31, 64
3, 25296, Note_on_c, 1, 32, 121
3, 25330, Note_off_c, 1, 32, 64
3, 25344, Note_on_c, 1, 33, 121
3, 25487, Note_off_c, 1, 33, 64
3, 25488, Note_on_c, 1, 39, 118
3, 25512, Note_off_c, 1, 39, 64
3, 25512, Note_on_c, 1, 40, 105
3, 25535, Note_off_c, 1, 40, 64
3, 25537, Note_on_c, 1, 33, 121
3, 25576, Note_off_c, 1, 33, 64
3, 25728, Note_on_c, 1, 40, 121
3, 25845, Note_off_c, 1, 40, 64
3, 25872, Note_on_c, 1, 28, 121
3, 25890, Note_off_c, 1, 28, 64
3, 25920, Note_on_c, 1, 28, 121
3, 26083, Note_off_c, 1, 28, 64
3, 26113, Note_on_c, 1, 38, 116
3, 26221, Note_off_c, 1, 38, 64
3, 26256, Note_on_c, 1, 38, 104
3, 26269, Note_off_c, 1, 38, 64
3, 26304, Note_on_c, 1, 38, 108
3, 26663, Note_off_c, 1, 38, 64
3, 26880, Note_on_c, 1, 33, 121
3, 27263, Note_off_c, 1, 33, 64
3, 27263, End_track
4, 0, Start_track
4, 0, Program_c, 2, 26
4, 0, Control_c, 2, 7, 75
4, 0, Control_c, 2, 10, 50
4, 0, Control_c, 2, 11, 127
4, 0, Control_c, 2, 91, 50
4, 0, Control_c, 2, 93, 10
4, 1631, Note_on_c, 2, 69, 99
4, 1631, Note_on_c, 2, 64, 99
4, 1631, Note_on_c, 2, 61, 94
4, 1632, Control_c, 2, 1, 0
4, 1632, Pitch_bend_c, 2, 8192
4, 1653, Note_off_c, 2, 61, 64
4, 1655, Note_off_c, 2, 64, 64
4, 1655, Note_off_c, 2, 69, 64
4, 2013, Note_on_c, 2, 66, 91
4, 2015, Note_on_c, 2, 71, 92
4, 2015, Note_on_c, 2, 62, 93
4, 2033, Note_off_c, 2, 62, 64
4, 2033, Note_off_c, 2, 66, 64
4, 2035, Note_off_c, 2, 71, 64
4, 2399, Note_on_c, 2, 74, 97
4, 2399, Note_on_c, 2, 66, 94
4, 2399, Note_on_c, 2, 69, 100
4, 2419, Note_off_c, 2, 66, 64
4, 2420, Note_off_c, 2, 69, 64
4, 2422, Note_off_c, 2, 74, 64
4, 2904, Note_on_c, 2, 61, 62
4, 2929, Note_on_c, 2, 69, 81
4, 2950, Note_on_c, 2, 62, 77
4, 2951, Note_off_c, 2, 61, 64
4, 2976, Note_off_c, 2, 69, 64
4, 2977, Note_on_c, 2, 71, 89
4, 2999, Note_off_c, 2, 62, 64
4, 2999, Note_on_c, 2, 64, 87
4, 3024, Note_off_c, 2, 71, 64
4, 3024, Note_on_c, 2, 73, 56
4, 3070, Note_off_c, 2, 64, 64
4, 3071, Note_off_c, 2, 73, 64
4, 3167, Note_on_c, 2, 62, 105
4, 3167, Note_on_c, 2, 67, 105
4, 3167, Note_on_c, 2, 71, 105
4, 3188, Note_off_c, 2, 62, 64
4, 3190, Note_off_c, 2, 71, 64
4, 3190, Note_off_c, 2, 67, 64
4, 3934, Note_on_c, 2, 68, 86
4, 3936, Note_on_c, 2, 64, 97
4, 3936, Note_on_c, 2, 59, 81
4, 3953, Note_off_c, 2, 59, 64
4, 3957, Note_off_c, 2, 68, 64
4, 3958, Note_off_c, 2, 64, 64
4, 4079, Note_on_c, 2, 68, 100
4, 4080, Note_on_c, 2, 64, 107
4, 4080, Note_on_c, 2, 59, 104
4, 4097, Note_off_c, 2, 59, 64
4, 4097, Note_off_c, 2, 64, 64
4, 4097, Note_off_c, 2, 68, 64
4, 4367, Note_on_c, 2, 56, 74
4, 4367, Note_on_c, 2, 64, 105
4, 4391, Note_on_c, 2, 66, 75
4, 4392, Note_on_c, 2, 57, 55
4, 4393, Note_off_c, 2, 64, 64
4, 4397, Note_off_c, 2, 56, 64
4, 4606, Note_off_c, 2, 66, 64
4, 4607, Note_off_c, 2, 57, 64
4, 4703, Note_on_c, 2, 61, 91
4, 4703, Note_on_c, 2, 69, 92
4, 4703, Note_on_c, 2, 64, 90
4, 4724, Note_off_c, 2, 61, 64
4, 4726, Note_off_c, 2, 64, 64
4, 4728, Note_off_c, 2, 69, 64
4, 5472, Note_on_c, 2, 66, 97
4, 5472, Note_on_c, 2, 74, 97
4, 5473, Note_on_c, 2, 69, 97
4, 5491, Note_off_c, 2, 66, 64
4, 5493, Note_off_c, 2, 69, 64
4, 5493, Note_off_c, 2, 74, 64
4, 5997, Note_on_c, 2, 71, 88
4, 5999, Note_on_c, 2, 62, 91
4, 6022, Pitch_bend_c, 2, 10415
4, 6024, Pitch_bend_c, 2, 13340
4, 6025, Pitch_bend_c, 2, 15797
4, 6028, Pitch_bend_c, 2, 16383
4, 6143, Note_off_c, 2, 62, 64
4, 6143, Note_off_c, 2, 71, 64
4, 6149, Pitch_bend_c, 2, 14393
4, 6152, Pitch_bend_c, 2, 8192
4, 6242, Note_on_c, 2, 71, 98
4, 6242, Note_on_c, 2, 62, 96
4, 6242, Note_on_c, 2, 67, 92
4, 6255, Note_off_c, 2, 67, 64
4, 6256, Note_off_c, 2, 62, 64
4, 6259, Note_off_c, 2, 71, 64
4, 6624, Note_on_c, 2, 61, 90
4, 6624, Note_on_c, 2, 64, 99
4, 6624, Note_on_c, 2, 69, 97
4, 6641, Note_off_c, 2, 61, 64
4, 6643, Note_off_c, 2, 64, 64
4, 6646, Note_off_c, 2, 69, 64
4, 7005, Note_on_c, 2, 68, 86
4, 7006, Note_on_c, 2, 59, 93
4, 7006, Note_on_c, 2, 64, 96
4, 7024, Note_off_c, 2, 64, 64
4, 7024, Note_off_c, 2, 59, 64
4, 7024, Note_off_c, 2, 68, 64
4, 7341, Note_on_c, 2, 69, 103
4, 7341, Note_on_c, 2, 64, 93
4, 7368, Pitch_bend_c, 2, 9596
4, 7371, Pitch_bend_c, 2, 11702
4, 7373, Pitch_bend_c, 2, 13457
4, 7376, Pitch_bend_c, 2, 14744
4, 7379, Pitch_bend_c, 2, 15680
4, 7381, Pitch_bend_c, 2, 16148
4, 7387, Pitch_bend_c, 2, 15680
4, 7390, Pitch_bend_c, 2, 14627
4, 7391, Pitch_bend_c, 2, 12755
4, 7394, Pitch_bend_c, 2, 10649
4, 7396, Pitch_bend_c, 2, 8777
4, 7399, Pitch_bend_c, 2, 8192
4, 7580, Note_off_c, 2, 64, 64
4, 7583, Note_off_c, 2, 69, 64
4, 11379, Pitch_bend_c, 2, 5500
4, 11381, Pitch_bend_c, 2, 1288
4, 11383, Pitch_bend_c, 2, 0
4, 11425, Note_on_c, 2, 61, 124
4, 11441, Pitch_bend_c, 2, 352
4, 11445, Pitch_bend_c, 2, 2458
4, 11447, Pitch_bend_c, 2, 5266
4, 11450, Pitch_bend_c, 2, 8192
4, 11473, Note_on_c, 2, 66, 98
4, 11525, Pitch_bend_c, 2, 7138
4, 11526, Pitch_bend_c, 2, 5149
4, 11529, Pitch_bend_c, 2, 3394
4, 11531, Pitch_bend_c, 2, 1522
4, 11534, Pitch_bend_c, 2, 0
4, 11806, Note_off_c, 2, 61, 64
4, 11809, Note_off_c, 2, 66, 64
4, 11838, Pitch_bend_c, 2, 820
4, 11840, Pitch_bend_c, 2, 2575
4, 11843, Pitch_bend_c, 2, 4564
4, 11845, Pitch_bend_c, 2, 6787
4, 11848, Pitch_bend_c, 2, 8192
4, 11999, Note_on_c, 2, 69, 99
4, 11999, Note_on_c, 2, 64, 99
4, 11999, Note_on_c, 2, 61, 94
4, 12021, Note_off_c, 2, 61, 64
4, 12023, Note_off_c, 2, 64, 64
4, 12023, Note_off_c, 2, 69, 64
4, 12767, Note_on_c, 2, 74, 97
4, 12767, Note_on_c, 2, 66, 94
4, 12767, Note_on_c, 2, 69, 100
4, 12787, Note_off_c, 2, 66, 64
4, 12788, Note_off_c, 2, 69, 64
4, 12790, Note_off_c, 2, 74, 64
4, 13245, Note_on_c, 2, 61, 100
4, 13266, Note_off_c, 2, 61, 64
4, 13268, Note_on_c, 2, 62, 81
4, 13291, Note_on_c, 2, 71, 95
4, 13339, Note_off_c, 2, 62, 64
4, 13341, Note_on_c, 2, 61, 59
4, 13341, Note_on_c, 2, 69, 75
4, 13345, Note_off_c, 2, 71, 64
4, 13437, Note_off_c, 2, 61, 64
4, 13439, Note_off_c, 2, 69, 64
4, 13535, Note_on_c, 2, 71, 105
4, 13535, Note_on_c, 2, 62, 105
4, 13535, Note_on_c, 2, 67, 105
4, 13556, Note_off_c, 2, 62, 64
4, 13558, Note_off_c, 2, 67, 64
4, 13558, Note_off_c, 2, 71, 64
4, 14302, Note_on_c, 2, 68, 86
4, 14304, Note_on_c, 2, 64, 97
4, 14304, Note_on_c, 2, 59, 81
4, 14321, Note_off_c, 2, 59, 64
4, 14325, Note_off_c, 2, 68, 64
4, 14326, Note_off_c, 2, 64, 64
4, 14447, Note_on_c, 2, 68, 100
4, 14448, Note_on_c, 2, 64, 107
4, 14448, Note_on_c, 2, 59, 104
4, 14465, Note_off_c, 2, 59, 64
4, 14465, Note_off_c, 2, 64, 64
4, 14465, Note_off_c, 2, 68, 64
4, 14735, Note_on_c, 2, 56, 74
4, 14735, Note_on_c, 2, 64, 105
4, 14759, Note_on_c, 2, 66, 75
4, 14760, Note_on_c, 2, 57, 55
4, 14761, Note_off_c, 2, 64, 64
4, 14765, Note_off_c, 2, 56, 64
4, 14974, Note_off_c, 2, 66, 64
4, 14975, Note_off_c, 2, 57, 64
4, 15071, Note_on_c, 2, 69, 92
4, 15071, Note_on_c, 2, 61, 91
4, 15071, Note_on_c, 2, 64, 90
4, 15092, Note_off_c, 2, 61, 64
4, 15094, Note_off_c, 2, 64, 64
4, 15096, Note_off_c, 2, 69, 64
4, 15840, Note_on_c, 2, 74, 97
4, 15840, Note_on_c, 2, 66, 97
4, 15841, Note_on_c, 2, 69, 97
4, 15859, Note_off_c, 2, 66, 64
4, 15861, Note_off_c, 2, 69, 64
4, 15861, Note_off_c, 2, 74, 64
4, 16365, Note_on_c, 2, 71, 88
4, 16367, Note_on_c, 2, 62, 91
4, 16390, Pitch_bend_c, 2, 10415
4, 16392, Pitch_bend_c, 2, 13340
4, 16393, Pitch_bend_c, 2, 15797
4, 16396, Pitch_bend_c, 2, 16383
4, 16511, Note_off_c, 2, 62, 64
4, 16511, Note_off_c, 2, 71, 64
4, 16517, Pitch_bend_c, 2, 14393
4, 16520, Pitch_bend_c, 2, 8192
4, 16610, Note_on_c, 2, 71, 98
4, 16610, Note_on_c, 2, 62, 96
4, 16610, Note_on_c, 2, 67, 92
4, 16623, Note_off_c, 2, 67, 64
4, 16624, Note_off_c, 2, 62, 64
4, 16627, Note_off_c, 2, 71, 64
4, 16992, Note_on_c, 2, 61, 90
4, 16992, Note_on_c, 2, 64, 99
4, 16992, Note_on_c, 2, 69, 97
4, 17009, Note_off_c, 2, 61, 64
4, 17011, Note_off_c, 2, 64, 64
4, 17014, Note_off_c, 2, 69, 64
4, 17373, Note_on_c, 2, 68, 86
4, 17374, Note_on_c, 2, 59, 93
4, 17374, Note_on_c, 2, 64, 96
4, 17392, Note_off_c, 2, 64, 64
4, 17392, Note_off_c, 2, 59, 64
4, 17392, Note_off_c, 2, 68, 64
4, 17709, Note_on_c, 2, 69, 103
4, 17709, Note_on_c, 2, 64, 93
4, 17736, Pitch_bend_c, 2, 9596
4, 17739, Pitch_bend_c, 2, 11702
4, 17741, Pitch_bend_c, 2, 13457
4, 17744, Pitch_bend_c, 2, 14744
4, 17747, Pitch_bend_c, 2, 15680
4, 17749, Pitch_bend_c, 2, 16148
4, 17755, Pitch_bend_c, 2, 15680
4, 17758, Pitch_bend_c, 2, 14627
4, 17759, Pitch_bend_c, 2, 12755
4, 17762, Pitch_bend_c, 2, 10649
4, 17764, Pitch_bend_c, 2, 8777
4, 17767, Pitch_bend_c, 2, 8192
4, 17948, Note_off_c, 2, 64, 64
4, 17951, Note_off_c, 2, 69, 64
4, 17951, End_track
5, 0, Start_track
5, 0, Program_c, 3, 18
5, 0, Control_c, 3, 7, 100
5, 0, Control_c, 3, 10, 66
5, 0, Control_c, 3, 11, 127
5, 0, Control_c, 3, 91, 60
5, 0, Control_c, 3, 93, 0
5, 1439, Note_on_c, 3, 69, 123
5, 1440, Control_c, 3, 1, 0
5, 1440, Pitch_bend_c, 3, 8192
5, 1486, Note_off_c, 3, 69, 64
5, 1487, Note_on_c, 3, 71, 118
5, 1526, Note_off_c, 3, 71, 64
5, 1535, Note_on_c, 3, 73, 111
5, 1628, Note_off_c, 3, 73, 64
5, 2041, Note_on_c, 3, 71, 122
5, 2059, Note_off_c, 3, 71, 64
5, 2065, Note_on_c, 3, 71, 122
5, 2083, Note_off_c, 3, 71, 64
5, 2088, Note_on_c, 3, 73, 107
5, 2109, Note_off_c, 3, 73, 64
5, 2113, Note_on_c, 3, 71, 98
5, 2133, Note_off_c, 3, 71, 64
5, 2136, Note_on_c, 3, 73, 109
5, 2152, Note_off_c, 3, 73, 64
5, 2160, Note_on_c, 3, 74, 101
5, 2257, Note_off_c, 3, 74, 64
5, 2471, Note_on_c, 3, 69, 105
5, 2486, Note_off_c, 3, 69, 64
5, 2495, Note_on_c, 3, 78, 113
5, 2511, Note_off_c, 3, 78, 64
5, 2519, Note_on_c, 3, 78, 115
5, 2531, Note_off_c, 3, 78, 64
5, 2543, Note_on_c, 3, 78, 117
5, 2605, Note_off_c, 3, 78, 64
5, 2617, Note_on_c, 3, 78, 123
5, 2680, Note_off_c, 3, 78, 64
5, 2687, Note_on_c, 3, 76, 116
5, 2822, Note_off_c, 3, 76, 64
5, 3215, Note_on_c, 3, 78, 117
5, 3254, Note_off_c, 3, 78, 64
5, 3263, Note_on_c, 3, 78, 99
5, 3306, Note_off_c, 3, 78, 64
5, 3313, Note_on_c, 3, 78, 102
5, 3347, Note_off_c, 3, 78, 64
5, 3360, Note_on_c, 3, 78, 109
5, 3399, Note_off_c, 3, 78, 64
5, 3407, Note_on_c, 3, 74, 105
5, 3421, Note_off_c, 3, 74, 64
5, 3432, Note_on_c, 3, 76, 109
5, 3491, Note_off_c, 3, 76, 64
5, 3742, Note_on_c, 3, 73, 123
5, 3782, Note_off_c, 3, 73, 64
5, 3789, Note_on_c, 3, 73, 109
5, 3817, Note_off_c, 3, 73, 64
5, 3838, Note_on_c, 3, 73, 115
5, 3890, Note_on_c, 3, 71, 79
5, 3891, Note_off_c, 3, 73, 64
5, 3955, Note_off_c, 3, 71, 64
5, 4152, Note_on_c, 3, 73, 123
5, 4247, Note_off_c, 3, 73, 64
5, 4250, Note_on_c, 3, 71, 86
5, 4271, Note_off_c, 3, 71, 64
5, 4277, Note_on_c, 3, 69, 70
5, 4428, Note_off_c, 3, 69, 64
5, 4561, Note_on_c, 3, 69, 101
5, 4578, Note_off_c, 3, 69, 64
5, 4584, Note_on_c, 3, 71, 104
5, 4598, Note_off_c, 3, 71, 64
5, 4608, Note_on_c, 3, 73, 95
5, 4682, Note_off_c, 3, 73, 64
5, 5136, Note_on_c, 3, 71, 98
5, 5155, Note_off_c, 3, 71, 64
5, 5159, Note_on_c, 3, 73, 85
5, 5179, Note_off_c, 3, 73, 64
5, 5183, Note_on_c, 3, 71, 96
5, 5202, Note_off_c, 3, 71, 64
5, 5208, Note_on_c, 3, 73, 96
5, 5224, Note_off_c, 3, 73, 64
5, 5232, Note_on_c, 3, 74, 110
5, 5310, Note_off_c, 3, 74, 64
5, 5544, Note_on_c, 3, 69, 93
5, 5554, Note_off_c, 3, 69, 64
5, 5568, Note_on_c, 3, 78, 123
5, 5582, Note_off_c, 3, 78, 64
5, 5591, Note_on_c, 3, 78, 107
5, 5626, Note_off_c, 3, 78, 64
5, 5638, Note_on_c, 3, 76, 96
5, 5647, Note_off_c, 3, 76, 64
5, 5663, Note_on_c, 3, 78, 123
5, 5701, Note_off_c, 3, 78, 64
5, 5711, Note_on_c, 3, 76, 101
5, 5724, Note_off_c, 3, 76, 64
5, 5735, Note_on_c, 3, 78, 122
5, 5781, Note_off_c, 3, 78, 64
5, 5785, Note_on_c, 3, 76, 88
5, 5791, Note_off_c, 3, 76, 64
5, 5808, Note_on_c, 3, 76, 98
5, 5858, Note_off_c, 3, 76, 64
5, 6311, Note_on_c, 3, 69, 99
5, 6323, Note_off_c, 3, 69, 64
5, 6334, Note_on_c, 3, 78, 123
5, 6362, Note_off_c, 3, 78, 64
5, 6384, Note_on_c, 3, 78, 123
5, 6437, Note_off_c, 3, 78, 64
5, 6454, Note_on_c, 3, 78, 123
5, 6477, Note_off_c, 3, 78, 64
5, 6479, Note_on_c, 3, 74, 104
5, 6502, Note_off_c, 3, 74, 64
5, 6502, Note_on_c, 3, 76, 108
5, 6553, Note_off_c, 3, 76, 64
5, 6768, Note_on_c, 3, 73, 123
5, 6785, Note_off_c, 3, 73, 64
5, 6790, Note_on_c, 3, 71, 91
5, 6806, Note_off_c, 3, 71, 64
5, 6820, Note_on_c, 3, 73, 119
5, 6859, Note_off_c, 3, 73, 64
5, 6866, Note_on_c, 3, 73, 109
5, 6880, Note_off_c, 3, 73, 64
5, 6911, Note_on_c, 3, 73, 123
5, 6946, Note_off_c, 3, 73, 64
5, 6949, Note_on_c, 3, 71, 96
5, 7025, Note_off_c, 3, 71, 64
5, 7175, Note_on_c, 3, 73, 122
5, 7282, Note_off_c, 3, 73, 64
5, 7296, Note_on_c, 3, 71, 112
5, 7320, Note_on_c, 3, 69, 74
5, 7323, Note_off_c, 3, 71, 64
5, 7367, Note_off_c, 3, 69, 64
5, 7488, Note_on_c, 3, 78, 117
5, 7556, Note_off_c, 3, 78, 64
5, 7584, Note_on_c, 3, 73, 101
5, 7607, Note_on_c, 3, 71, 88
5, 7608, Note_off_c, 3, 73, 64
5, 7627, Note_on_c, 3, 69, 74
5, 7634, Note_off_c, 3, 71, 64
5, 7674, Note_off_c, 3, 69, 64
5, 7680, Note_on_c, 3, 73, 123
5, 7717, Note_off_c, 3, 73, 64
5, 7728, Note_on_c, 3, 73, 120
5, 7808, Note_off_c, 3, 73, 64
5, 7824, Note_on_c, 3, 73, 120
5, 7897, Note_off_c, 3, 73, 64
5, 7921, Note_on_c, 3, 74, 123
5, 7963, Note_off_c, 3, 74, 64
5, 7970, Note_on_c, 3, 73, 119
5, 7998, Note_off_c, 3, 73, 64
5, 8018, Note_on_c, 3, 73, 123
5, 8069, Note_off_c, 3, 73, 64
5, 8070, Note_on_c, 3, 71, 84
5, 8152, Note_off_c, 3, 71, 64
5, 8352, Note_on_c, 3, 73, 122
5, 8396, Note_off_c, 3, 73, 64
5, 8400, Note_on_c, 3, 76, 106
5, 8433, Note_off_c, 3, 76, 64
5, 8448, Note_on_c, 3, 78, 123
5, 8488, Note_off_c, 3, 78, 64
5, 8496, Note_on_c, 3, 78, 115
5, 8555, Note_off_c, 3, 78, 64
5, 8592, Note_on_c, 3, 78, 123
5, 8659, Note_off_c, 3, 78, 64
5, 8687, Note_on_c, 3, 78, 123
5, 8736, Note_on_c, 3, 76, 117
5, 8737, Note_off_c, 3, 78, 64
5, 8765, Note_off_c, 3, 76, 64
5, 8783, Note_on_c, 3, 76, 120
5, 8874, Note_off_c, 3, 76, 64
5, 9095, Note_on_c, 3, 64, 94
5, 9112, Note_off_c, 3, 64, 64
5, 9118, Note_on_c, 3, 73, 123
5, 9153, Note_off_c, 3, 73, 64
5, 9166, Note_on_c, 3, 73, 105
5, 9185, Note_off_c, 3, 73, 64
5, 9214, Note_on_c, 3, 73, 123
5, 9259, Note_off_c, 3, 73, 64
5, 9265, Note_on_c, 3, 71, 91
5, 9309, Note_off_c, 3, 71, 64
5, 9479, Note_on_c, 3, 64, 88
5, 9488, Note_off_c, 3, 64, 64
5, 9502, Note_on_c, 3, 71, 122
5, 9546, Note_off_c, 3, 71, 64
5, 9550, Note_on_c, 3, 73, 97
5, 9584, Note_off_c, 3, 73, 64
5, 9597, Note_on_c, 3, 71, 118
5, 9648, Note_on_c, 3, 69, 79
5, 9651, Note_off_c, 3, 71, 64
5, 9685, Note_off_c, 3, 69, 64
5, 9864, Note_on_c, 3, 64, 64
5, 9870, Note_off_c, 3, 64, 64
5, 9889, Note_on_c, 3, 72, 123
5, 9912, Note_off_c, 3, 72, 64
5, 9912, Note_on_c, 3, 71, 101
5, 9940, Note_off_c, 3, 71, 64
5, 9941, Note_on_c, 3, 69, 78
5, 9955, Note_off_c, 3, 69, 64
5, 9987, Note_on_c, 3, 69, 109
5, 10029, Note_off_c, 3, 69, 64
5, 10031, Note_on_c, 3, 69, 76
5, 10107, Note_off_c, 3, 69, 64
5, 11806, Note_on_c, 3, 69, 120
5, 11855, Note_off_c, 3, 69, 64
5, 11856, Note_on_c, 3, 71, 111
5, 11887, Note_off_c, 3, 71, 64
5, 11903, Note_on_c, 3, 73, 112
5, 12046, Note_off_c, 3, 73, 64
5, 12409, Note_on_c, 3, 64, 98
5, 12426, Note_off_c, 3, 64, 64
5, 12432, Note_on_c, 3, 71, 119
5, 12451, Note_off_c, 3, 71, 64
5, 12454, Note_on_c, 3, 73, 115
5, 12474, Note_off_c, 3, 73, 64
5, 12482, Note_on_c, 3, 71, 115
5, 12525, Note_off_c, 3, 71, 64
5, 12526, Note_on_c, 3, 73, 123
5, 12549, Note_off_c, 3, 73, 64
5, 12552, Note_on_c, 3, 74, 113
5, 12647, Note_off_c, 3, 74, 64
5, 12816, Note_on_c, 3, 78, 121
5, 12858, Note_off_c, 3, 78, 64
5, 12864, Note_on_c, 3, 78, 112
5, 12903, Note_off_c, 3, 78, 64
5, 12911, Note_on_c, 3, 78, 122
5, 12934, Note_off_c, 3, 78, 64
5, 12959, Note_on_c, 3, 78, 117
5, 13027, Note_off_c, 3, 78, 64
5, 13031, Note_on_c, 3, 74, 112
5, 13044, Note_off_c, 3, 74, 64
5, 13055, Note_on_c, 3, 76, 123
5, 13174, Note_off_c, 3, 76, 64
5, 13515, Note_on_c, 3, 69, 122
5, 13534, Note_off_c, 3, 69, 64
5, 13539, Note_on_c, 3, 78, 123
5, 13556, Note_off_c, 3, 78, 64
5, 13564, Note_on_c, 3, 78, 107
5, 13578, Note_off_c, 3, 78, 64
5, 13587, Note_on_c, 3, 78, 121
5, 13600, Note_off_c, 3, 78, 64
5, 13610, Note_on_c, 3, 78, 111
5, 13624, Note_off_c, 3, 78, 64
5, 13633, Note_on_c, 3, 78, 123
5, 13671, Note_off_c, 3, 78, 64
5, 13683, Note_on_c, 3, 78, 123
5, 13776, Note_on_c, 3, 76, 123
5, 13778, Note_off_c, 3, 78, 64
5, 13889, Note_off_c, 3, 76, 64
5, 14135, Note_on_c, 3, 71, 97
5, 14154, Note_off_c, 3, 71, 64
5, 14159, Note_on_c, 3, 73, 123
5, 14184, Note_on_c, 3, 71, 62
5, 14185, Note_off_c, 3, 73, 64
5, 14207, Note_off_c, 3, 71, 64
5, 14208, Note_on_c, 3, 73, 123
5, 14253, Note_on_c, 3, 71, 90
5, 14255, Note_off_c, 3, 73, 64
5, 14315, Note_off_c, 3, 71, 64
5, 14453, Note_on_c, 3, 73, 123
5, 14509, Note_off_c, 3, 73, 64
5, 14515, Note_on_c, 3, 73, 122
5, 14561, Note_off_c, 3, 73, 64
5, 14570, Note_on_c, 3, 71, 116
5, 14628, Note_off_c, 3, 71, 64
5, 14628, Note_on_c, 3, 69, 97
5, 14690, Note_off_c, 3, 69, 64
5, 14926, Note_on_c, 3, 69, 123
5, 14951, Note_on_c, 3, 66, 103
5, 14957, Note_off_c, 3, 69, 64
5, 14976, Note_on_c, 3, 69, 121
5, 14979, Note_off_c, 3, 66, 64
5, 15063, Note_off_c, 3, 69, 64
5, 15410, Note_on_c, 3, 71, 105
5, 15429, Note_off_c, 3, 71, 64
5, 15434, Note_on_c, 3, 71, 108
5, 15455, Note_off_c, 3, 71, 64
5, 15457, Note_on_c, 3, 71, 112
5, 15473, Note_off_c, 3, 71, 64
5, 15479, Note_on_c, 3, 71, 116
5, 15500, Note_on_c, 3, 73, 120
5, 15501, Note_off_c, 3, 71, 64
5, 15523, Note_off_c, 3, 73, 64
5, 15525, Note_on_c, 3, 74, 123
5, 15614, Note_off_c, 3, 74, 64
5, 15892, Note_on_c, 3, 78, 111
5, 15910, Note_off_c, 3, 78, 64
5, 15934, Note_on_c, 3, 78, 123
5, 15958, Note_off_c, 3, 78, 64
5, 15959, Note_on_c, 3, 76, 77
5, 15983, Note_on_c, 3, 78, 103
5, 15984, Note_off_c, 3, 76, 64
5, 16008, Note_off_c, 3, 78, 64
5, 16008, Note_on_c, 3, 76, 86
5, 16014, Note_off_c, 3, 76, 64
5, 16032, Note_on_c, 3, 78, 123
5, 16077, Note_off_c, 3, 78, 64
5, 16081, Note_on_c, 3, 76, 86
5, 16087, Note_off_c, 3, 76, 64
5, 16104, Note_on_c, 3, 78, 123
5, 16174, Note_off_c, 3, 78, 64
5, 16176, Note_on_c, 3, 76, 86
5, 16247, Note_off_c, 3, 76, 64
5, 16682, Note_on_c, 3, 69, 93
5, 16700, Note_off_c, 3, 69, 64
5, 16703, Note_on_c, 3, 78, 115
5, 16733, Note_off_c, 3, 78, 64
5, 16750, Note_on_c, 3, 78, 123
5, 16807, Note_off_c, 3, 78, 64
5, 16824, Note_on_c, 3, 78, 123
5, 16847, Note_off_c, 3, 78, 64
5, 16848, Note_on_c, 3, 74, 108
5, 16866, Note_off_c, 3, 74, 64
5, 16872, Note_on_c, 3, 76, 119
5, 16914, Note_off_c, 3, 76, 64
5, 17133, Note_on_c, 3, 73, 123
5, 17159, Note_off_c, 3, 73, 64
5, 17159, Note_on_c, 3, 71, 98
5, 17183, Note_off_c, 3, 71, 64
5, 17184, Note_on_c, 3, 73, 119
5, 17216, Note_off_c, 3, 73, 64
5, 17233, Note_on_c, 3, 73, 111
5, 17252, Note_off_c, 3, 73, 64
5, 17279, Note_on_c, 3, 73, 123
5, 17327, Note_off_c, 3, 73, 64
5, 17331, Note_on_c, 3, 71, 83
5, 17375, Note_off_c, 3, 71, 64
5, 17519, Note_on_c, 3, 73, 123
5, 17656, Note_off_c, 3, 73, 64
5, 17664, Note_on_c, 3, 71, 123
5, 17688, Note_on_c, 3, 69, 86
5, 17691, Note_off_c, 3, 71, 64
5, 17733, Note_off_c, 3, 69, 64
5, 17856, Note_on_c, 3, 78, 123
5, 17916, Note_off_c, 3, 78, 64
5, 17952, Note_on_c, 3, 73, 123
5, 17975, Note_on_c, 3, 71, 123
5, 17976, Note_off_c, 3, 73, 64
5, 17999, Note_off_c, 3, 71, 64
5, 18000, Note_on_c, 3, 69, 88
5, 18055, Note_off_c, 3, 69, 64
5, 18055, Note_on_c, 3, 73, 123
5, 18095, Note_off_c, 3, 73, 64
5, 18100, Note_on_c, 3, 73, 123
5, 18159, Note_off_c, 3, 73, 64
5, 18195, Note_on_c, 3, 73, 123
5, 18267, Note_off_c, 3, 73, 64
5, 18287, Note_on_c, 3, 74, 123
5, 18334, Note_off_c, 3, 74, 64
5, 18335, Note_on_c, 3, 73, 123
5, 18358, Note_off_c, 3, 73, 64
5, 18382, Note_on_c, 3, 73, 123
5, 18431, Note_off_c, 3, 73, 64
5, 18432, Note_on_c, 3, 71, 107
5, 18503, Note_off_c, 3, 71, 64
5, 18718, Note_on_c, 3, 73, 123
5, 18760, Note_off_c, 3, 73, 64
5, 18767, Note_on_c, 3, 76, 118
5, 18800, Note_off_c, 3, 76, 64
5, 18813, Note_on_c, 3, 78, 123
5, 18858, Note_off_c, 3, 78, 64
5, 18863, Note_on_c, 3, 78, 123
5, 18920, Note_off_c, 3, 78, 64
5, 18961, Note_on_c, 3, 78, 123
5, 19026, Note_off_c, 3, 78, 64
5, 19056, Note_on_c, 3, 78, 123
5, 19097, Note_off_c, 3, 78, 64
5, 19103, Note_on_c, 3, 76, 99
5, 19123, Note_off_c, 3, 76, 64
5, 19150, Note_on_c, 3, 76, 123
5, 19200, Note_on_c, 3, 73, 96
5, 19203, Note_off_c, 3, 76, 64
5, 19271, Note_off_c, 3, 73, 64
5, 19463, Note_on_c, 3, 64, 110
5, 19482, Note_off_c, 3, 64, 64
5, 19487, Note_on_c, 3, 73, 123
5, 19529, Note_off_c, 3, 73, 64
5, 19534, Note_on_c, 3, 73, 117
5, 19555, Note_off_c, 3, 73, 64
5, 19583, Note_on_c, 3, 73, 123
5, 19629, Note_off_c, 3, 73, 64
5, 19632, Note_on_c, 3, 71, 99
5, 19674, Note_off_c, 3, 71, 64
5, 19849, Note_on_c, 3, 64, 97
5, 19870, Note_off_c, 3, 64, 64
5, 19872, Note_on_c, 3, 71, 123
5, 19917, Note_off_c, 3, 71, 64
5, 19919, Note_on_c, 3, 73, 111
5, 19942, Note_off_c, 3, 73, 64
5, 19967, Note_on_c, 3, 71, 123
5, 20013, Note_off_c, 3, 71, 64
5, 20015, Note_on_c, 3, 69, 80
5, 20050, Note_off_c, 3, 69, 64
5, 20234, Note_on_c, 3, 66, 91
5, 20242, Note_off_c, 3, 66, 64
5, 20255, Note_on_c, 3, 72, 123
5, 20302, Note_on_c, 3, 69, 97
5, 20308, Note_off_c, 3, 72, 64
5, 20321, Note_off_c, 3, 69, 64
5, 20353, Note_on_c, 3, 66, 102
5, 20400, Note_off_c, 3, 66, 64
5, 20402, Note_on_c, 3, 69, 84
5, 20452, Note_off_c, 3, 69, 64
5, 20734, Note_on_c, 3, 78, 123
5, 20963, Note_off_c, 3, 78, 64
5, 20976, Note_on_c, 3, 76, 122
5, 21112, Note_off_c, 3, 76, 64
5, 21120, Note_on_c, 3, 73, 123
5, 21164, Note_off_c, 3, 73, 64
5, 21170, Note_on_c, 3, 73, 123
5, 21227, Note_off_c, 3, 73, 64
5, 21267, Note_on_c, 3, 73, 123
5, 21334, Note_off_c, 3, 73, 64
5, 21361, Note_on_c, 3, 74, 123
5, 21409, Note_off_c, 3, 74, 64
5, 21410, Note_on_c, 3, 73, 123
5, 21432, Note_off_c, 3, 73, 64
5, 21454, Note_on_c, 3, 73, 123
5, 21502, Note_on_c, 3, 71, 90
5, 21503, Note_off_c, 3, 73, 64
5, 21563, Note_off_c, 3, 71, 64
5, 21792, Note_on_c, 3, 73, 123
5, 21839, Note_on_c, 3, 76, 109
5, 21841, Note_off_c, 3, 73, 64
5, 21866, Note_off_c, 3, 76, 64
5, 21888, Note_on_c, 3, 78, 123
5, 21929, Note_off_c, 3, 78, 64
5, 21936, Note_on_c, 3, 78, 123
5, 21995, Note_off_c, 3, 78, 64
5, 22031, Note_on_c, 3, 78, 123
5, 22106, Note_off_c, 3, 78, 64
5, 22123, Note_on_c, 3, 78, 123
5, 22170, Note_off_c, 3, 78, 64
5, 22173, Note_on_c, 3, 76, 102
5, 22193, Note_off_c, 3, 76, 64
5, 22223, Note_on_c, 3, 76, 123
5, 22267, Note_on_c, 3, 73, 103
5, 22272, Note_off_c, 3, 76, 64
5, 22285, Note_on_c, 3, 71, 88
5, 22291, Note_off_c, 3, 73, 64
5, 22309, Note_on_c, 3, 69, 98
5, 22310, Note_off_c, 3, 71, 64
5, 22356, Note_off_c, 3, 69, 64
5, 22535, Note_on_c, 3, 64, 95
5, 22556, Note_off_c, 3, 64, 64
5, 22558, Note_on_c, 3, 73, 123
5, 22599, Note_off_c, 3, 73, 64
5, 22606, Note_on_c, 3, 73, 115
5, 22622, Note_off_c, 3, 73, 64
5, 22654, Note_on_c, 3, 73, 123
5, 22704, Note_off_c, 3, 73, 64
5, 22705, Note_on_c, 3, 71, 89
5, 22751, Note_off_c, 3, 71, 64
5, 22916, Note_on_c, 3, 64, 88
5, 22925, Note_off_c, 3, 64, 64
5, 22942, Note_on_c, 3, 71, 123
5, 22987, Note_off_c, 3, 71, 64
5, 22989, Note_on_c, 3, 73, 109
5, 23010, Note_off_c, 3, 73, 64
5, 23038, Note_on_c, 3, 71, 118
5, 23084, Note_on_c, 3, 69, 72
5, 23087, Note_off_c, 3, 71, 64
5, 23127, Note_off_c, 3, 69, 64
5, 23302, Note_on_c, 3, 66, 79
5, 23315, Note_off_c, 3, 66, 64
5, 23327, Note_on_c, 3, 72, 123
5, 23377, Note_on_c, 3, 69, 96
5, 23379, Note_off_c, 3, 72, 64
5, 23402, Note_off_c, 3, 69, 64
5, 23428, Note_on_c, 3, 66, 96
5, 23480, Note_on_c, 3, 69, 77
5, 23483, Note_off_c, 3, 66, 64
5, 23536, Note_off_c, 3, 69, 64
5, 23808, Note_on_c, 3, 78, 123
5, 23934, Note_off_c, 3, 78, 64
5, 23950, Note_on_c, 3, 76, 123
5, 24142, Note_off_c, 3, 76, 64
5, 24191, Note_on_c, 3, 73, 123
5, 24232, Note_off_c, 3, 73, 64
5, 24239, Note_on_c, 3, 73, 123
5, 24299, Note_off_c, 3, 73, 64
5, 24336, Note_on_c, 3, 73, 123
5, 24410, Note_off_c, 3, 73, 64
5, 24432, Note_on_c, 3, 74, 123
5, 24476, Note_off_c, 3, 74, 64
5, 24480, Note_on_c, 3, 73, 123
5, 24504, Note_off_c, 3, 73, 64
5, 24526, Note_on_c, 3, 73, 123
5, 24572, Note_off_c, 3, 73, 64
5, 24575, Note_on_c, 3, 71, 112
5, 24647, Note_off_c, 3, 71, 64
5, 24863, Note_on_c, 3, 73, 123
5, 24910, Note_off_c, 3, 73, 64
5, 24910, Note_on_c, 3, 76, 123
5, 24947, Note_off_c, 3, 76, 64
5, 24958, Note_on_c, 3, 78, 123
5, 24995, Note_off_c, 3, 78, 64
5, 25006, Note_on_c, 3, 78, 123
5, 25077, Note_off_c, 3, 78, 64
5, 25102, Note_on_c, 3, 78, 123
5, 25173, Note_off_c, 3, 78, 64
5, 25201, Note_on_c, 3, 78, 123
5, 25248, Note_on_c, 3, 76, 108
5, 25251, Note_off_c, 3, 78, 64
5, 25261, Note_off_c, 3, 76, 64
5, 25291, Note_on_c, 3, 76, 123
5, 25334, Note_off_c, 3, 76, 64
5, 25340, Note_on_c, 3, 73, 109
5, 25364, Note_off_c, 3, 73, 64
5, 25364, Note_on_c, 3, 71, 104
5, 25393, Note_off_c, 3, 71, 64
5, 25393, Note_on_c, 3, 69, 98
5, 25435, Note_off_c, 3, 69, 64
5, 25607, Note_on_c, 3, 64, 115
5, 25628, Note_off_c, 3, 64, 64
5, 25631, Note_on_c, 3, 73, 119
5, 25674, Note_off_c, 3, 73, 64
5, 25678, Note_on_c, 3, 73, 113
5, 25693, Note_off_c, 3, 73, 64
5, 25728, Note_on_c, 3, 73, 123
5, 25774, Note_off_c, 3, 73, 64
5, 25778, Note_on_c, 3, 71, 102
5, 25834, Note_off_c, 3, 71, 64
5, 25992, Note_on_c, 3, 64, 97
5, 25999, Note_off_c, 3, 64, 64
5, 26015, Note_on_c, 3, 71, 123
5, 26058, Note_off_c, 3, 71, 64
5, 26063, Note_on_c, 3, 73, 109
5, 26077, Note_off_c, 3, 73, 64
5, 26112, Note_on_c, 3, 71, 123
5, 26158, Note_off_c, 3, 71, 64
5, 26166, Note_on_c, 3, 69, 83
5, 26203, Note_off_c, 3, 69, 64
5, 26376, Note_on_c, 3, 66, 111
5, 26393, Note_off_c, 3, 66, 64
5, 26402, Note_on_c, 3, 72, 123
5, 26424, Note_on_c, 3, 71, 99
5, 26427, Note_off_c, 3, 72, 64
5, 26448, Note_off_c, 3, 71, 64
5, 26448, Note_on_c, 3, 69, 92
5, 26495, Note_off_c, 3, 69, 64
5, 26496, Note_on_c, 3, 71, 104
5, 26592, Note_off_c, 3, 71, 64
5, 26592, Note_on_c, 3, 69, 82
5, 26687, Note_off_c, 3, 69, 64
5, 26760, Note_on_c, 3, 68, 104
5, 26760, Pitch_bend_c, 3, 8320
5, 26764, Pitch_bend_c, 3, 8448
5, 26768, Pitch_bend_c, 3, 8576
5, 26772, Pitch_bend_c, 3, 8704
5, 26776, Pitch_bend_c, 3, 8832
5, 26780, Pitch_bend_c, 3, 8960
5, 26784, Pitch_bend_c, 3, 9088
5, 26788, Pitch_bend_c, 3, 9216
5, 26792, Pitch_bend_c, 3, 9344
5, 26796, Pitch_bend_c, 3, 9472
5, 26800, Pitch_bend_c, 3, 9600
5, 26804, Pitch_bend_c, 3, 9728
5, 26808, Pitch_bend_c, 3, 9856
5, 26812, Pitch_bend_c, 3, 9984
5, 26816, Pitch_bend_c, 3, 10112
5, 26820, Pitch_bend_c, 3, 10240
5, 26824, Pitch_bend_c, 3, 10368
5, 26828, Pitch_bend_c, 3, 10496
5, 26832, Pitch_bend_c, 3, 10624
5, 26836, Pitch_bend_c, 3, 10752
5, 26840, Pitch_bend_c, 3, 10880
5, 26844, Pitch_bend_c, 3, 11008
5, 26848, Pitch_bend_c, 3, 11136
5, 26852, Pitch_bend_c, 3, 11264
5, 26856, Pitch_bend_c, 3, 11392
5, 26860, Pitch_bend_c, 3, 11520
5, 26864, Pitch_bend_c, 3, 11648
5, 26868, Pitch_bend_c, 3, 11776
5, 26872, Pitch_bend_c, 3, 11904
5, 26876, Pitch_bend_c, 3, 12160
5, 27258, Note_off_c, 3, 68, 64
5, 27263, Pitch_bend_c, 3, 8192
5, 27263, End_track
6, 0, Start_track
6, 0, Program_c, 4, 73
6, 0, Control_c, 4, 7, 85
6, 0, Control_c, 4, 10, 55
6, 0, Control_c, 4, 11, 127
6, 0, Control_c, 4, 91, 60
6, 0, Control_c, 4, 93, 0
6, 7678, Note_on_c, 4, 64, 114
6, 7678, Note_on_c, 4, 69, 106
6, 7678, Note_on_c, 4, 61, 117
6, 7679, Control_c, 4, 1, 0
6, 7679, Pitch_bend_c, 4, 8192
6, 7725, Note_off_c, 4, 61, 64
6, 7725, Note_off_c, 4, 69, 64
6, 7725, Note_off_c, 4, 64, 64
6, 7726, Note_on_c, 4, 64, 87
6, 7726, Note_on_c, 4, 69, 97
6, 7726, Note_on_c, 4, 61, 101
6, 7821, Note_off_c, 4, 61, 64
6, 7821, Note_off_c, 4, 69, 64
6, 7821, Note_off_c, 4, 64, 64
6, 7822, Note_on_c, 4, 61, 116
6, 7822, Note_on_c, 4, 64, 109
6, 7822, Note_on_c, 4, 69, 100
6, 7917, Note_off_c, 4, 69, 64
6, 7918, Note_off_c, 4, 64, 64
6, 7918, Note_off_c, 4, 61, 64
6, 7918, Note_on_c, 4, 69, 92
6, 7918, Note_on_c, 4, 62, 110
6, 7918, Note_on_c, 4, 66, 117
6, 7965, Note_off_c, 4, 69, 64
6, 7966, Note_off_c, 4, 66, 64
6, 7966, Note_off_c, 4, 62, 64
6, 7966, Note_on_c, 4, 61, 101
6, 7966, Note_on_c, 4, 64, 98
6, 7966, Note_on_c, 4, 69, 93
6, 8013, Note_off_c, 4, 69, 64
6, 8013, Note_off_c, 4, 64, 64
6, 8013, Note_off_c, 4, 61, 64
6, 8014, Note_on_c, 4, 64, 109
6, 8014, Note_on_c, 4, 69, 117
6, 8014, Note_on_c, 4, 61, 113
6, 8062, Note_off_c, 4, 61, 64
6, 8062, Note_off_c, 4, 69, 64
6, 8062, Note_on_c, 4, 68, 74
6, 8062, Note_on_c, 4, 59, 80
6, 8254, Note_off_c, 4, 59, 64
6, 8254, Note_off_c, 4, 68, 64
6, 8254, Note_off_c, 4, 64, 64
6, 8446, Note_on_c, 4, 69, 110
6, 8446, Note_on_c, 4, 62, 112
6, 8446, Note_on_c, 4, 66, 113
6, 8493, Note_off_c, 4, 66, 64
6, 8493, Note_off_c, 4, 62, 64
6, 8493, Note_off_c, 4, 69, 64
6, 8494, Note_on_c, 4, 62, 93
6, 8494, Note_on_c, 4, 66, 99
6, 8494, Note_on_c, 4, 69, 95
6, 8589, Note_off_c, 4, 69, 64
6, 8589, Note_off_c, 4, 66, 64
6, 8589, Note_off_c, 4, 62, 64
6, 8590, Note_on_c, 4, 69, 96
6, 8590, Note_on_c, 4, 62, 109
6, 8590, Note_on_c, 4, 66, 101
6, 8685, Note_off_c, 4, 66, 64
6, 8685, Note_off_c, 4, 62, 64
6, 8685, Note_off_c, 4, 69, 64
6, 8686, Note_on_c, 4, 66, 105
6, 8686, Note_on_c, 4, 69, 93
6, 8686, Note_on_c, 4, 62, 109
6, 8733, Note_off_c, 4, 62, 64
6, 8733, Note_off_c, 4, 69, 64
6, 8734, Note_off_c, 4, 66, 64
6, 8734, Note_on_c, 4, 62, 110
6, 8734, Note_on_c, 4, 64, 89
6, 8734, Note_on_c, 4, 69, 73
6, 8781, Note_off_c, 4, 69, 64
6, 8781, Note_off_c, 4, 64, 64
6, 8782, Note_off_c, 4, 62, 64
6, 8782, Note_on_c, 4, 69, 109
6, 8782, Note_on_c, 4, 64, 114
6, 8782, Note_on_c, 4, 61, 113
6, 8806, Note_off_c, 4, 61, 64
6, 8806, Note_off_c, 4, 64, 64
6, 8806, Note_off_c, 4, 69, 64
6, 8806, Note_on_c, 4, 66, 89
6, 8806, Note_on_c, 4, 59, 90
6, 8806, Note_on_c, 4, 62, 89
6, 8830, Note_off_c, 4, 62, 64
6, 8830, Note_off_c, 4, 59, 64
6, 8830, Note_off_c, 4, 66, 64
6, 8830, Note_on_c, 4, 57, 80
6, 8830, Note_on_c, 4, 64, 79
6, 8830, Note_on_c, 4, 61, 79
6, 8950, Note_off_c, 4, 61, 64
6, 8950, Note_off_c, 4, 64, 64
6, 8950, Note_off_c, 4, 57, 64
6, 9094, Note_on_c, 4, 64, 92
6, 9094, Note_on_c, 4, 52, 92
6, 9117, Note_off_c, 4, 64, 64
6, 9118, Note_off_c, 4, 52, 64
6, 9118, Note_on_c, 4, 69, 116
6, 9118, Note_on_c, 4, 64, 98
6, 9118, Note_on_c, 4, 61, 107
6, 9165, Note_off_c, 4, 61, 64
6, 9165, Note_off_c, 4, 64, 64
6, 9165, Note_off_c, 4, 69, 64
6, 9166, Note_on_c, 4, 64, 80
6, 9166, Note_on_c, 4, 61, 101
6, 9166, Note_on_c, 4, 69, 102
6, 9213, Note_off_c, 4, 69, 64
6, 9213, Note_off_c, 4, 61, 64
6, 9213, Note_off_c, 4, 64, 64
6, 9214, Note_on_c, 4, 69, 114
6, 9214, Note_on_c, 4, 64, 112
6, 9214, Note_on_c, 4, 61, 116
6, 9262, Note_off_c, 4, 61, 64
6, 9262, Note_off_c, 4, 64, 64
6, 9262, Note_off_c, 4, 69, 64
6, 9262, Note_on_c, 4, 59, 84
6, 9262, Note_on_c, 4, 62, 80
6, 9262, Note_on_c, 4, 68, 72
6, 9346, Note_off_c, 4, 68, 64
6, 9346, Note_off_c, 4, 62, 64
6, 9346, Note_off_c, 4, 59, 64
6, 9478, Note_on_c, 4, 61, 92
6, 9478, Note_on_c, 4, 64, 80
6, 9478, Note_on_c, 4, 57, 87
6, 9502, Note_off_c, 4, 57, 64
6, 9502, Note_off_c, 4, 64, 64
6, 9502, Note_off_c, 4, 61, 64
6, 9502, Note_on_c, 4, 68, 103
6, 9502, Note_on_c, 4, 62, 103
6, 9502, Note_on_c, 4, 59, 98
6, 9550, Note_off_c, 4, 59, 64
6, 9550, Note_off_c, 4, 62, 64
6, 9550, Note_off_c, 4, 68, 64
6, 9550, Note_on_c, 4, 64, 85
6, 9550, Note_on_c, 4, 61, 101
6, 9550, Note_on_c, 4, 69, 92
6, 9597, Note_off_c, 4, 64, 64
6, 9598, Note_off_c, 4, 69, 64
6, 9598, Note_off_c, 4, 61, 64
6, 9598, Note_on_c, 4, 59, 102
6, 9598, Note_on_c, 4, 66, 93
6, 9598, Note_on_c, 4, 64, 95
6, 9645, Note_off_c, 4, 66, 64
6, 9646, Note_off_c, 4, 64, 64
6, 9646, Note_off_c, 4, 59, 64
6, 9646, Note_on_c, 4, 66, 80
6, 9646, Note_on_c, 4, 62, 80
6, 9646, Note_on_c, 4, 57, 80
6, 9754, Note_off_c, 4, 57, 64
6, 9754, Note_off_c, 4, 62, 64
6, 9754, Note_off_c, 4, 66, 64
6, 9862, Note_on_c, 4, 66, 93
6, 9862, Note_on_c, 4, 54, 96
6, 9885, Note_off_c, 4, 66, 64
6, 9886, Note_off_c, 4, 54, 64
6, 9886, Note_on_c, 4, 62, 112
6, 9886, Note_on_c, 4, 66, 105
6, 9886, Note_on_c, 4, 60, 99
6, 9933, Note_off_c, 4, 66, 64
6, 9933, Note_off_c, 4, 62, 64
6, 9934, Note_off_c, 4, 60, 64
6, 9934, Note_on_c, 4, 62, 93
6, 9934, Note_on_c, 4, 66, 105
6, 9934, Note_on_c, 4, 57, 102
6, 9981, Note_off_c, 4, 57, 64
6, 9981, Note_off_c, 4, 62, 64
6, 9982, Note_off_c, 4, 66, 64
6, 9982, Note_on_c, 4, 57, 113
6, 9982, Note_on_c, 4, 64, 113
6, 9982, Note_on_c, 4, 62, 113
6, 10029, Note_off_c, 4, 64, 64
6, 10029, Note_off_c, 4, 57, 64
6, 10030, Note_off_c, 4, 62, 64
6, 10030, Note_on_c, 4, 61, 91
6, 10030, Note_on_c, 4, 64, 80
6, 10030, Note_on_c, 4, 57, 98
6, 10138, Note_off_c, 4, 57, 64
6, 10138, Note_off_c, 4, 64, 64
6, 10138, Note_off_c, 4, 61, 64
6, 18046, Note_on_c, 4, 64, 114
6, 18046, Note_on_c, 4, 69, 106
6, 18046, Note_on_c, 4, 61, 117
6, 18093, Note_off_c, 4, 61, 64
6, 18093, Note_off_c, 4, 69, 64
6, 18093, Note_off_c, 4, 64, 64
6, 18094, Note_on_c, 4, 64, 87
6, 18094, Note_on_c, 4, 69, 97
6, 18094, Note_on_c, 4, 61, 101
6, 18189, Note_off_c, 4, 61, 64
6, 18189, Note_off_c, 4, 69, 64
6, 18189, Note_off_c, 4, 64, 64
6, 18190, Note_on_c, 4, 61, 116
6, 18190, Note_on_c, 4, 64, 109
6, 18190, Note_on_c, 4, 69, 100
6, 18285, Note_off_c, 4, 69, 64
6, 18286, Note_off_c, 4, 64, 64
6, 18286, Note_off_c, 4, 61, 64
6, 18286, Note_on_c, 4, 69, 92
6, 18286, Note_on_c, 4, 62, 110
6, 18286, Note_on_c, 4, 66, 117
6, 18333, Note_off_c, 4, 69, 64
6, 18334, Note_off_c, 4, 66, 64
6, 18334, Note_off_c, 4, 62, 64
6, 18334, Note_on_c, 4, 61, 101
6, 18334, Note_on_c, 4, 64, 98
6, 18334, Note_on_c, 4, 69, 93
6, 18381, Note_off_c, 4, 69, 64
6, 18381, Note_off_c, 4, 64, 64
6, 18381, Note_off_c, 4, 61, 64
6, 18382, Note_on_c, 4, 64, 109
6, 18382, Note_on_c, 4, 69, 117
6, 18382, Note_on_c, 4, 61, 113
6, 18430, Note_off_c, 4, 61, 64
6, 18430, Note_off_c, 4, 69, 64
6, 18430, Note_on_c, 4, 68, 74
6, 18430, Note_on_c, 4, 59, 80
6, 18562, Note_off_c, 4, 59, 64
6, 18562, Note_off_c, 4, 68, 64
6, 18562, Note_off_c, 4, 64, 64
6, 18814, Note_on_c, 4, 69, 110
6, 18814, Note_on_c, 4, 62, 112
6, 18814, Note_on_c, 4, 66, 113
6, 18861, Note_off_c, 4, 66, 64
6, 18861, Note_off_c, 4, 62, 64
6, 18861, Note_off_c, 4, 69, 64
6, 18862, Note_on_c, 4, 62, 93
6, 18862, Note_on_c, 4, 66, 99
6, 18862, Note_on_c, 4, 69, 95
6, 18957, Note_off_c, 4, 69, 64
6, 18957, Note_off_c, 4, 66, 64
6, 18957, Note_off_c, 4, 62, 64
6, 18958, Note_on_c, 4, 69, 96
6, 18958, Note_on_c, 4, 62, 109
6, 18958, Note_on_c, 4, 66, 101
6, 19053, Note_off_c, 4, 66, 64
6, 19053, Note_off_c, 4, 62, 64
6, 19053, Note_off_c, 4, 69, 64
6, 19054, Note_on_c, 4, 66, 105
6, 19054, Note_on_c, 4, 69, 93
6, 19054, Note_on_c, 4, 62, 109
6, 19101, Note_off_c, 4, 62, 64
6, 19101, Note_off_c, 4, 69, 64
6, 19102, Note_off_c, 4, 66, 64
6, 19102, Note_on_c, 4, 62, 110
6, 19102, Note_on_c, 4, 64, 89
6, 19102, Note_on_c, 4, 69, 73
6, 19149, Note_off_c, 4, 69, 64
6, 19149, Note_off_c, 4, 64, 64
6, 19150, Note_off_c, 4, 62, 64
6, 19150, Note_on_c, 4, 69, 109
6, 19150, Note_on_c, 4, 64, 114
6, 19150, Note_on_c, 4, 61, 113
6, 19174, Note_off_c, 4, 61, 64
6, 19174, Note_off_c, 4, 64, 64
6, 19174, Note_off_c, 4, 69, 64
6, 19174, Note_on_c, 4, 66, 89
6, 19174, Note_on_c, 4, 59, 90
6, 19174, Note_on_c, 4, 62, 89
6, 19198, Note_off_c, 4, 62, 64
6, 19198, Note_off_c, 4, 59, 64
6, 19198, Note_off_c, 4, 66, 64
6, 19198, Note_on_c, 4, 57, 80
6, 19198, Note_on_c, 4, 64, 79
6, 19198, Note_on_c, 4, 61, 79
6, 19294, Note_off_c, 4, 61, 64
6, 19294, Note_off_c, 4, 64, 64
6, 19294, Note_off_c, 4, 57, 64
6, 19462, Note_on_c, 4, 64, 92
6, 19462, Note_on_c, 4, 52, 92
6, 19485, Note_off_c, 4, 64, 64
6, 19486, Note_off_c, 4, 52, 64
6, 19486, Note_on_c, 4, 69, 116
6, 19486, Note_on_c, 4, 64, 98
6, 19486, Note_on_c, 4, 61, 107
6, 19533, Note_off_c, 4, 61, 64
6, 19533, Note_off_c, 4, 64, 64
6, 19533, Note_off_c, 4, 69, 64
6, 19534, Note_on_c, 4, 64, 80
6, 19534, Note_on_c, 4, 61, 101
6, 19534, Note_on_c, 4, 69, 102
6, 19581, Note_off_c, 4, 69, 64
6, 19581, Note_off_c, 4, 61, 64
6, 19581, Note_off_c, 4, 64, 64
6, 19582, Note_on_c, 4, 69, 114
6, 19582, Note_on_c, 4, 64, 112
6, 19582, Note_on_c, 4, 61, 116
6, 19630, Note_off_c, 4, 61, 64
6, 19630, Note_off_c, 4, 64, 64
6, 19630, Note_off_c, 4, 69, 64
6, 19630, Note_on_c, 4, 59, 84
6, 19630, Note_on_c, 4, 62, 80
6, 19630, Note_on_c, 4, 68, 72
6, 19702, Note_off_c, 4, 68, 64
6, 19702, Note_off_c, 4, 62, 64
6, 19702, Note_off_c, 4, 59, 64
6, 19846, Note_on_c, 4, 61, 92
6, 19846, Note_on_c, 4, 64, 80
6, 19846, Note_on_c, 4, 57, 87
6, 19870, Note_off_c, 4, 57, 64
6, 19870, Note_off_c, 4, 64, 64
6, 19870, Note_off_c, 4, 61, 64
6, 19870, Note_on_c, 4, 68, 103
6, 19870, Note_on_c, 4, 62, 103
6, 19870, Note_on_c, 4, 59, 98
6, 19918, Note_off_c, 4, 59, 64
6, 19918, Note_off_c, 4, 62, 64
6, 19918, Note_off_c, 4, 68, 64
6, 19918, Note_on_c, 4, 64, 85
6, 19918, Note_on_c, 4, 61, 101
6, 19918, Note_on_c, 4, 69, 92
6, 19965, Note_off_c, 4, 64, 64
6, 19966, Note_off_c, 4, 69, 64
6, 19966, Note_off_c, 4, 61, 64
6, 19966, Note_on_c, 4, 59, 102
6, 19966, Note_on_c, 4, 66, 93
6, 19966, Note_on_c, 4, 64, 95
6, 20013, Note_off_c, 4, 66, 64
6, 20014, Note_off_c, 4, 64, 64
6, 20014, Note_off_c, 4, 59, 64
6, 20014, Note_on_c, 4, 66, 80
6, 20014, Note_on_c, 4, 62, 80
6, 20014, Note_on_c, 4, 57, 80
6, 20110, Note_off_c, 4, 57, 64
6, 20110, Note_off_c, 4, 62, 64
6, 20110, Note_off_c, 4, 66, 64
6, 20230, Note_on_c, 4, 66, 93
6, 20230, Note_on_c, 4, 54, 96
6, 20253, Note_off_c, 4, 66, 64
6, 20254, Note_off_c, 4, 54, 64
6, 20254, Note_on_c, 4, 62, 112
6, 20254, Note_on_c, 4, 66, 105
6, 20254, Note_on_c, 4, 60, 99
6, 20301, Note_off_c, 4, 66, 64
6, 20301, Note_off_c, 4, 62, 64
6, 20302, Note_off_c, 4, 60, 64
6, 20302, Note_on_c, 4, 62, 93
6, 20302, Note_on_c, 4, 66, 105
6, 20302, Note_on_c, 4, 57, 102
6, 20349, Note_off_c, 4, 57, 64
6, 20349, Note_off_c, 4, 62, 64
6, 20350, Note_off_c, 4, 66, 64
6, 20350, Note_on_c, 4, 57, 113
6, 20350, Note_on_c, 4, 64, 113
6, 20350, Note_on_c, 4, 62, 113
6, 20397, Note_off_c, 4, 64, 64
6, 20397, Note_off_c, 4, 57, 64
6, 20398, Note_off_c, 4, 62, 64
6, 20398, Note_on_c, 4, 61, 91
6, 20398, Note_on_c, 4, 64, 80
6, 20398, Note_on_c, 4, 57, 98
6, 20482, Note_off_c, 4, 57, 64
6, 20482, Note_off_c, 4, 64, 64
6, 20482, Note_off_c, 4, 61, 64
6, 21118, Note_on_c, 4, 64, 114
6, 21118, Note_on_c, 4, 69, 106
6, 21118, Note_on_c, 4, 61, 117
6, 21165, Note_off_c, 4, 61, 64
6, 21165, Note_off_c, 4, 69, 64
6, 21165, Note_off_c, 4, 64, 64
6, 21166, Note_on_c, 4, 64, 87
6, 21166, Note_on_c, 4, 69, 97
6, 21166, Note_on_c, 4, 61, 101
6, 21261, Note_off_c, 4, 61, 64
6, 21261, Note_off_c, 4, 69, 64
6, 21261, Note_off_c, 4, 64, 64
6, 21262, Note_on_c, 4, 61, 116
6, 21262, Note_on_c, 4, 64, 109
6, 21262, Note_on_c, 4, 69, 100
6, 21357, Note_off_c, 4, 69, 64
6, 21358, Note_off_c, 4, 64, 64
6, 21358, Note_off_c, 4, 61, 64
6, 21358, Note_on_c, 4, 69, 92
6, 21358, Note_on_c, 4, 62, 110
6, 21358, Note_on_c, 4, 66, 117
6, 21405, Note_off_c, 4, 69, 64
6, 21406, Note_off_c, 4, 66, 64
6, 21406, Note_off_c, 4, 62, 64
6, 21406, Note_on_c, 4, 61, 101
6, 21406, Note_on_c, 4, 64, 98
6, 21406, Note_on_c, 4, 69, 93
6, 21453, Note_off_c, 4, 69, 64
6, 21453, Note_off_c, 4, 64, 64
6, 21453, Note_off_c, 4, 61, 64
6, 21454, Note_on_c, 4, 64, 109
6, 21454, Note_on_c, 4, 69, 117
6, 21454, Note_on_c, 4, 61, 113
6, 21502, Note_off_c, 4, 61, 64
6, 21502, Note_off_c, 4, 69, 64
6, 21502, Note_on_c, 4, 68, 74
6, 21502, Note_on_c, 4, 59, 80
6, 21598, Note_off_c, 4, 59, 64
6, 21598, Note_off_c, 4, 68, 64
6, 21598, Note_off_c, 4, 64, 64
6, 21886, Note_on_c, 4, 69, 110
6, 21886, Note_on_c, 4, 62, 112
6, 21886, Note_on_c, 4, 66, 113
6, 21933, Note_off_c, 4, 66, 64
6, 21933, Note_off_c, 4, 62, 64
6, 21933, Note_off_c, 4, 69, 64
6, 21934, Note_on_c, 4, 62, 93
6, 21934, Note_on_c, 4, 66, 99
6, 21934, Note_on_c, 4, 69, 95
6, 22029, Note_off_c, 4, 69, 64
6, 22029, Note_off_c, 4, 66, 64
6, 22029, Note_off_c, 4, 62, 64
6, 22030, Note_on_c, 4, 69, 96
6, 22030, Note_on_c, 4, 62, 109
6, 22030, Note_on_c, 4, 66, 101
6, 22125, Note_off_c, 4, 66, 64
6, 22125, Note_off_c, 4, 62, 64
6, 22125, Note_off_c, 4, 69, 64
6, 22126, Note_on_c, 4, 66, 105
6, 22126, Note_on_c, 4, 69, 93
6, 22126, Note_on_c, 4, 62, 109
6, 22173, Note_off_c, 4, 62, 64
6, 22173, Note_off_c, 4, 69, 64
6, 22174, Note_off_c, 4, 66, 64
6, 22174, Note_on_c, 4, 62, 110
6, 22174, Note_on_c, 4, 64, 89
6, 22174, Note_on_c, 4, 69, 73
6, 22221, Note_off_c, 4, 69, 64
6, 22221, Note_off_c, 4, 64, 64
6, 22222, Note_off_c, 4, 62, 64
6, 22222, Note_on_c, 4, 69, 109
6, 22222, Note_on_c, 4, 64, 114
6, 22222, Note_on_c, 4, 61, 113
6, 22246, Note_off_c, 4, 61, 64
6, 22246, Note_off_c, 4, 64, 64
6, 22246, Note_off_c, 4, 69, 64
6, 22246, Note_on_c, 4, 66, 89
6, 22246, Note_on_c, 4, 59, 90
6, 22246, Note_on_c, 4, 62, 89
6, 22270, Note_off_c, 4, 62, 64
6, 22270, Note_off_c, 4, 59, 64
6, 22270, Note_off_c, 4, 66, 64
6, 22270, Note_on_c, 4, 57, 80
6, 22270, Note_on_c, 4, 64, 79
6, 22270, Note_on_c, 4, 61, 79
6, 22354, Note_off_c, 4, 61, 64
6, 22354, Note_off_c, 4, 64, 64
6, 22354, Note_off_c, 4, 57, 64
6, 22534, Note_on_c, 4, 64, 92
6, 22534, Note_on_c, 4, 52, 92
6, 22557, Note_off_c, 4, 64, 64
6, 22558, Note_off_c, 4, 52, 64
6, 22558, Note_on_c, 4, 69, 116
6, 22558, Note_on_c, 4, 64, 98
6, 22558, Note_on_c, 4, 61, 107
6, 22605, Note_off_c, 4, 61, 64
6, 22605, Note_off_c, 4, 64, 64
6, 22605, Note_off_c, 4, 69, 64
6, 22606, Note_on_c, 4, 64, 80
6, 22606, Note_on_c, 4, 61, 101
6, 22606, Note_on_c, 4, 69, 102
6, 22653, Note_off_c, 4, 69, 64
6, 22653, Note_off_c, 4, 61, 64
6, 22653, Note_off_c, 4, 64, 64
6, 22654, Note_on_c, 4, 69, 114
6, 22654, Note_on_c, 4, 64, 112
6, 22654, Note_on_c, 4, 61, 116
6, 22702, Note_off_c, 4, 61, 64
6, 22702, Note_off_c, 4, 64, 64
6, 22702, Note_off_c, 4, 69, 64
6, 22702, Note_on_c, 4, 59, 84
6, 22702, Note_on_c, 4, 62, 80
6, 22702, Note_on_c, 4, 68, 72
6, 22774, Note_off_c, 4, 68, 64
6, 22774, Note_off_c, 4, 62, 64
6, 22774, Note_off_c, 4, 59, 64
6, 22918, Note_on_c, 4, 61, 92
6, 22918, Note_on_c, 4, 64, 80
6, 22918, Note_on_c, 4, 57, 87
6, 22942, Note_off_c, 4, 57, 64
6, 22942, Note_off_c, 4, 64, 64
6, 22942, Note_off_c, 4, 61, 64
6, 22942, Note_on_c, 4, 68, 103
6, 22942, Note_on_c, 4, 62, 103
6, 22942, Note_on_c, 4, 59, 98
6, 22990, Note_off_c, 4, 59, 64
6, 22990, Note_off_c, 4, 62, 64
6, 22990, Note_off_c, 4, 68, 64
6, 22990, Note_on_c, 4, 64, 85
6, 22990, Note_on_c, 4, 61, 101
6, 22990, Note_on_c, 4, 69, 92
6, 23037, Note_off_c, 4, 64, 64
6, 23038, Note_off_c, 4, 69, 64
6, 23038, Note_off_c, 4, 61, 64
6, 23038, Note_on_c, 4, 59, 102
6, 23038, Note_on_c, 4, 66, 93
6, 23038, Note_on_c, 4, 64, 95
6, 23085, Note_off_c, 4, 66, 64
6, 23086, Note_off_c, 4, 64, 64
6, 23086, Note_off_c, 4, 59, 64
6, 23086, Note_on_c, 4, 66, 80
6, 23086, Note_on_c, 4, 62, 80
6, 23086, Note_on_c, 4, 57, 80
6, 23182, Note_off_c, 4, 57, 64
6, 23182, Note_off_c, 4, 62, 64
6, 23182, Note_off_c, 4, 66, 64
6, 23302, Note_on_c, 4, 66, 93
6, 23302, Note_on_c, 4, 54, 96
6, 23325, Note_off_c, 4, 66, 64
6, 23326, Note_off_c, 4, 54, 64
6, 23326, Note_on_c, 4, 62, 112
6, 23326, Note_on_c, 4, 66, 105
6, 23326, Note_on_c, 4, 60, 99
6, 23373, Note_off_c, 4, 66, 64
6, 23373, Note_off_c, 4, 62, 64
6, 23374, Note_off_c, 4, 60, 64
6, 23374, Note_on_c, 4, 62, 93
6, 23374, Note_on_c, 4, 66, 105
6, 23374, Note_on_c, 4, 57, 102
6, 23421, Note_off_c, 4, 57, 64
6, 23421, Note_off_c, 4, 62, 64
6, 23422, Note_off_c, 4, 66, 64
6, 23422, Note_on_c, 4, 57, 113
6, 23422, Note_on_c, 4, 64, 113
6, 23422, Note_on_c, 4, 62, 113
6, 23469, Note_off_c, 4, 64, 64
6, 23469, Note_off_c, 4, 57, 64
6, 23470, Note_off_c, 4, 62, 64
6, 23470, Note_on_c, 4, 61, 91
6, 23470, Note_on_c, 4, 64, 80
6, 23470, Note_on_c, 4, 57, 98
6, 23566, Note_off_c, 4, 57, 64
6, 23566, Note_off_c, 4, 64, 64
6, 23566, Note_off_c, 4, 61, 64
6, 24190, Note_on_c, 4, 64, 114
6, 24190, Note_on_c, 4, 69, 106
6, 24190, Note_on_c, 4, 61, 117
6, 24237, Note_off_c, 4, 61, 64
6, 24237, Note_off_c, 4, 69, 64
6, 24237, Note_off_c, 4, 64, 64
6, 24238, Note_on_c, 4, 64, 87
6, 24238, Note_on_c, 4, 69, 97
6, 24238, Note_on_c, 4, 61, 101
6, 24333, Note_off_c, 4, 61, 64
6, 24333, Note_off_c, 4, 69, 64
6, 24333, Note_off_c, 4, 64, 64
6, 24334, Note_on_c, 4, 61, 116
6, 24334, Note_on_c, 4, 64, 109
6, 24334, Note_on_c, 4, 69, 100
6, 24429, Note_off_c, 4, 69, 64
6, 24430, Note_off_c, 4, 64, 64
6, 24430, Note_off_c, 4, 61, 64
6, 24430, Note_on_c, 4, 69, 92
6, 24430, Note_on_c, 4, 62, 110
6, 24430, Note_on_c, 4, 66, 117
6, 24477, Note_off_c, 4, 69, 64
6, 24478, Note_off_c, 4, 66, 64
6, 24478, Note_off_c, 4, 62, 64
6, 24478, Note_on_c, 4, 61, 101
6, 24478, Note_on_c, 4, 64, 98
6, 24478, Note_on_c, 4, 69, 93
6, 24525, Note_off_c, 4, 69, 64
6, 24525, Note_off_c, 4, 64, 64
6, 24525, Note_off_c, 4, 61, 64
6, 24526, Note_on_c, 4, 64, 109
6, 24526, Note_on_c, 4, 69, 117
6, 24526, Note_on_c, 4, 61, 113
6, 24574, Note_off_c, 4, 61, 64
6, 24574, Note_off_c, 4, 69, 64
6, 24574, Note_on_c, 4, 68, 74
6, 24574, Note_on_c, 4, 59, 80
6, 24670, Note_off_c, 4, 59, 64
6, 24670, Note_off_c, 4, 68, 64
6, 24670, Note_off_c, 4, 64, 64
6, 24958, Note_on_c, 4, 69, 110
6, 24958, Note_on_c, 4, 62, 112
6, 24958, Note_on_c, 4, 66, 113
6, 25005, Note_off_c, 4, 66, 64
6, 25005, Note_off_c, 4, 62, 64
6, 25005, Note_off_c, 4, 69, 64
6, 25006, Note_on_c, 4, 62, 93
6, 25006, Note_on_c, 4, 66, 99
6, 25006, Note_on_c, 4, 69, 95
6, 25101, Note_off_c, 4, 69, 64
6, 25101, Note_off_c, 4, 66, 64
6, 25101, Note_off_c, 4, 62, 64
6, 25102, Note_on_c, 4, 69, 96
6, 25102, Note_on_c, 4, 62, 109
6, 25102, Note_on_c, 4, 66, 101
6, 25197, Note_off_c, 4, 66, 64
6, 25197, Note_off_c, 4, 62, 64
6, 25197, Note_off_c, 4, 69, 64
6, 25198, Note_on_c, 4, 66, 105
6, 25198, Note_on_c, 4, 69, 93
6, 25198, Note_on_c, 4, 62, 109
6, 25245, Note_off_c, 4, 62, 64
6, 25245, Note_off_c, 4, 69, 64
6, 25246, Note_off_c, 4, 66, 64
6, 25246, Note_on_c, 4, 62, 110
6, 25246, Note_on_c, 4, 64, 89
6, 25246, Note_on_c, 4, 69, 73
6, 25293, Note_off_c, 4, 69, 64
6, 25293, Note_off_c, 4, 64, 64
6, 25294, Note_off_c, 4, 62, 64
6, 25294, Note_on_c, 4, 69, 109
6, 25294, Note_on_c, 4, 64, 114
6, 25294, Note_on_c, 4, 61, 113
6, 25318, Note_off_c, 4, 61, 64
6, 25318, Note_off_c, 4, 64, 64
6, 25318, Note_off_c, 4, 69, 64
6, 25318, Note_on_c, 4, 66, 89
6, 25318, Note_on_c, 4, 59, 90
6, 25318, Note_on_c, 4, 62, 89
6, 25342, Note_off_c, 4, 62, 64
6, 25342, Note_off_c, 4, 59, 64
6, 25342, Note_off_c, 4, 66, 64
6, 25342, Note_on_c, 4, 57, 80
6, 25342, Note_on_c, 4, 64, 79
6, 25342, Note_on_c, 4, 61, 79
6, 25438, Note_off_c, 4, 61, 64
6, 25438, Note_off_c, 4, 64, 64
6, 25438, Note_off_c, 4, 57, 64
6, 25606, Note_on_c, 4, 64, 92
6, 25606, Note_on_c, 4, 52, 92
6, 25629, Note_off_c, 4, 64, 64
6, 25630, Note_off_c, 4, 52, 64
6, 25630, Note_on_c, 4, 69, 116
6, 25630, Note_on_c, 4, 64, 98
6, 25630, Note_on_c, 4, 61, 107
6, 25677, Note_off_c, 4, 61, 64
6, 25677, Note_off_c, 4, 64, 64
6, 25677, Note_off_c, 4, 69, 64
6, 25678, Note_on_c, 4, 64, 80
6, 25678, Note_on_c, 4, 61, 101
6, 25678, Note_on_c, 4, 69, 102
6, 25725, Note_off_c, 4, 69, 64
6, 25725, Note_off_c, 4, 61, 64
6, 25725, Note_off_c, 4, 64, 64
6, 25726, Note_on_c, 4, 69, 114
6, 25726, Note_on_c, 4, 64, 112
6, 25726, Note_on_c, 4, 61, 116
6, 25774, Note_off_c, 4, 61, 64
6, 25774, Note_off_c, 4, 64, 64
6, 25774, Note_off_c, 4, 69, 64
6, 25774, Note_on_c, 4, 59, 84
6, 25774, Note_on_c, 4, 62, 80
6, 25774, Note_on_c, 4, 68, 72
6, 25846, Note_off_c, 4, 68, 64
6, 25846, Note_off_c, 4, 62, 64
6, 25846, Note_off_c, 4, 59, 64
6, 25990, Note_on_c, 4, 61, 92
6, 25990, Note_on_c, 4, 64, 80
6, 25990, Note_on_c, 4, 57, 87
6, 26014, Note_off_c, 4, 57, 64
6, 26014, Note_off_c, 4, 64, 64
6, 26014, Note_off_c, 4, 61, 64
6, 26014, Note_on_c, 4, 68, 103
6, 26014, Note_on_c, 4, 62, 103
6, 26014, Note_on_c, 4, 59, 98
6, 26062, Note_off_c, 4, 59, 64
6, 26062, Note_off_c, 4, 62, 64
6, 26062, Note_off_c, 4, 68, 64
6, 26062, Note_on_c, 4, 64, 85
6, 26062, Note_on_c, 4, 61, 101
6, 26062, Note_on_c, 4, 69, 92
6, 26109, Note_off_c, 4, 64, 64
6, 26110, Note_off_c, 4, 69, 64
6, 26110, Note_off_c, 4, 61, 64
6, 26110, Note_on_c, 4, 59, 102
6, 26110, Note_on_c, 4, 66, 93
6, 26110, Note_on_c, 4, 64, 95
6, 26157, Note_off_c, 4, 66, 64
6, 26158, Note_off_c, 4, 64, 64
6, 26158, Note_off_c, 4, 59, 64
6, 26158, Note_on_c, 4, 62, 80
6, 26158, Note_on_c, 4, 57, 80
6, 26158, Note_on_c, 4, 66, 80
6, 26254, Note_off_c, 4, 66, 64
6, 26254, Note_off_c, 4, 57, 64
6, 26254, Note_off_c, 4, 62, 64
6, 26398, Note_on_c, 4, 60, 99
6, 26398, Note_on_c, 4, 66, 105
6, 26398, Note_on_c, 4, 62, 112
6, 26422, Note_off_c, 4, 60, 64
6, 26422, Note_on_c, 4, 59, 99
6, 26445, Note_off_c, 4, 62, 64
6, 26445, Note_off_c, 4, 66, 64
6, 26446, Note_off_c, 4, 59, 64
6, 26446, Note_on_c, 4, 62, 93
6, 26446, Note_on_c, 4, 66, 105
6, 26446, Note_on_c, 4, 57, 102
6, 26493, Note_off_c, 4, 57, 64
6, 26493, Note_off_c, 4, 66, 64
6, 26493, Note_off_c, 4, 62, 64
6, 26494, Note_on_c, 4, 57, 105
6, 26494, Note_on_c, 4, 66, 105
6, 26494, Note_on_c, 4, 62, 105
6, 26686, Note_off_c, 4, 62, 64
6, 26686, Note_off_c, 4, 66, 64
6, 26686, Note_off_c, 4, 57, 64
6, 26758, Note_on_c, 4, 56, 98
6, 26758, Note_on_c, 4, 60, 98
6, 26758, Note_on_c, 4, 63, 98
6, 26758, Pitch_bend_c, 4, 8320
6, 26762, Pitch_bend_c, 4, 8448
6, 26766, Pitch_bend_c, 4, 8576
6, 26770, Pitch_bend_c, 4, 8704
6, 26774, Pitch_bend_c, 4, 8832
6, 26778, Pitch_bend_c, 4, 8960
6, 26782, Pitch_bend_c, 4, 9088
6, 26786, Pitch_bend_c, 4, 9216
6, 26790, Pitch_bend_c, 4, 9344
6, 26794, Pitch_bend_c, 4, 9472
6, 26798, Pitch_bend_c, 4, 9600
6, 26802, Pitch_bend_c, 4, 9728
6, 26806, Pitch_bend_c, 4, 9856
6, 26810, Pitch_bend_c, 4, 9984
6, 26814, Pitch_bend_c, 4, 10112
6, 26818, Pitch_bend_c, 4, 10368
6, 26822, Pitch_bend_c, 4, 10496
6, 26826, Pitch_bend_c, 4, 10624
6, 26830, Pitch_bend_c, 4, 10752
6, 26834, Pitch_bend_c, 4, 10880
6, 26838, Pitch_bend_c, 4, 11008
6, 26842, Pitch_bend_c, 4, 11136
6, 26846, Pitch_bend_c, 4, 11264
6, 26850, Pitch_bend_c, 4, 11392
6, 26854, Pitch_bend_c, 4, 11520
6, 26858, Pitch_bend_c, 4, 11648
6, 26862, Pitch_bend_c, 4, 11776
6, 26866, Pitch_bend_c, 4, 11904
6, 26870, Pitch_bend_c, 4, 12032
6, 26874, Pitch_bend_c, 4, 12160
6, 26878, Pitch_bend_c, 4, 12416
6, 27256, Note_off_c, 4, 60, 64
6, 27256, Pitch_bend_c, 4, 8192
6, 27257, Note_off_c, 4, 63, 64
6, 27257, Note_off_c, 4, 56, 64
6, 27257, End_track
7, 0, Start_track
7, 0, Program_c, 5, 29
7, 0, Control_c, 5, 7, 105
7, 0, Control_c, 5, 10, 85
7, 0, Control_c, 5, 11, 127
7, 0, Control_c, 5, 91, 55
7, 0, Control_c, 5, 93, 20
7, 20833, Note_on_c, 5, 78, 116
7, 20833, Pitch_bend_c, 5, 0
7, 20834, Control_c, 5, 1, 0
7, 20847, Pitch_bend_c, 5, 235
7, 20849, Pitch_bend_c, 5, 1756
7, 20851, Pitch_bend_c, 5, 3394
7, 20854, Pitch_bend_c, 5, 5149
7, 20856, Pitch_bend_c, 5, 6670
7, 20859, Pitch_bend_c, 5, 8074
7, 20861, Pitch_bend_c, 5, 8192
7, 20916, Note_off_c, 5, 78, 64
7, 20920, Pitch_bend_c, 5, 7021
7, 20923, Pitch_bend_c, 5, 4915
7, 20926, Pitch_bend_c, 5, 2575
7, 20927, Note_on_c, 5, 78, 101
7, 20928, Pitch_bend_c, 5, 0
7, 20941, Pitch_bend_c, 5, 703
7, 20944, Pitch_bend_c, 5, 2341
7, 20946, Pitch_bend_c, 5, 4096
7, 20948, Pitch_bend_c, 5, 5851
7, 20950, Pitch_bend_c, 5, 7372
7, 20953, Pitch_bend_c, 5, 8192
7, 21014, Pitch_bend_c, 5, 7840
7, 21016, Note_off_c, 5, 78, 64
7, 21016, Pitch_bend_c, 5, 6553
7, 21018, Pitch_bend_c, 5, 4915
7, 21022, Pitch_bend_c, 5, 3277
7, 21023, Pitch_bend_c, 5, 1639
7, 21024, Pitch_bend_c, 5, 352
7, 21024, Note_on_c, 5, 78, 99
7, 21028, Pitch_bend_c, 5, 0
7, 21038, Pitch_bend_c, 5, 937
7, 21040, Pitch_bend_c, 5, 2809
7, 21042, Pitch_bend_c, 5, 5266
7, 21044, Pitch_bend_c, 5, 8192
7, 21111, Note_off_c, 5, 78, 64
7, 21112, Pitch_bend_c, 5, 7606
7, 21114, Pitch_bend_c, 5, 4915
7, 21117, Pitch_bend_c, 5, 2458
7, 21119, Pitch_bend_c, 5, 469
7, 21120, Note_on_c, 5, 76, 101
7, 21120, Pitch_bend_c, 5, 0
7, 21125, Pitch_bend_c, 5, 820
7, 21128, Pitch_bend_c, 5, 5851
7, 21130, Pitch_bend_c, 5, 8192
7, 21486, Note_off_c, 5, 76, 64
7, 21504, Note_on_c, 5, 71, 97
7, 21504, Note_on_c, 5, 68, 98
7, 21548, Note_off_c, 5, 71, 64
7, 21549, Note_off_c, 5, 68, 64
7, 21549, Note_on_c, 5, 73, 88
7, 21553, Note_on_c, 5, 69, 95
7, 21590, Note_off_c, 5, 69, 64
7, 21590, Note_off_c, 5, 73, 64
7, 21598, Note_on_c, 5, 74, 94
7, 21599, Note_on_c, 5, 71, 91
7, 21641, Note_off_c, 5, 71, 64
7, 21643, Note_off_c, 5, 74, 64
7, 21647, Note_on_c, 5, 73, 78
7, 21647, Note_on_c, 5, 69, 60
7, 21663, Note_off_c, 5, 69, 64
7, 21663, Note_off_c, 5, 73, 64
7, 21664, Note_on_c, 5, 71, 81
7, 21664, Note_on_c, 5, 74, 63
7, 21680, Note_off_c, 5, 74, 64
7, 21680, Note_off_c, 5, 71, 64
7, 21680, Note_on_c, 5, 69, 63
7, 21680, Note_on_c, 5, 73, 81
7, 21695, Note_on_c, 5, 68, 107
7, 21696, Note_off_c, 5, 73, 64
7, 21696, Note_off_c, 5, 69, 64
7, 21696, Note_on_c, 5, 71, 91
7, 21737, Note_off_c, 5, 68, 64
7, 21740, Note_off_c, 5, 71, 64
7, 21740, Note_on_c, 5, 69, 82
7, 21744, Note_on_c, 5, 66, 88
7, 21781, Note_off_c, 5, 69, 64
7, 21782, Note_off_c, 5, 66, 64
7, 21789, Note_on_c, 5, 71, 95
7, 21790, Note_on_c, 5, 68, 101
7, 21814, Note_off_c, 5, 71, 64
7, 21814, Note_on_c, 5, 73, 77
7, 21824, Note_off_c, 5, 68, 64
7, 21840, Note_off_c, 5, 73, 64
7, 21840, Note_on_c, 5, 71, 84
7, 21885, Note_off_c, 5, 71, 64
7, 21888, Note_on_c, 5, 81, 87
7, 21888, Note_on_c, 5, 69, 85
7, 21888, Note_on_c, 5, 66, 96
7, 22195, Note_off_c, 5, 66, 64
7, 22195, Note_off_c, 5, 69, 64
7, 22199, Note_off_c, 5, 81, 64
7, 23664, Note_on_c, 5, 76, 101
7, 23687, Note_on_c, 5, 78, 101
7, 23690, Note_off_c, 5, 76, 64
7, 23712, Note_on_c, 5, 81, 101
7, 23713, Note_off_c, 5, 78, 64
7, 23757, Note_on_c, 5, 83, 103
7, 23759, Note_off_c, 5, 81, 64
7, 23804, Note_off_c, 5, 83, 64
7, 23810, Note_on_c, 5, 85, 120
7, 23905, Note_off_c, 5, 85, 64
7, 23906, Note_on_c, 5, 85, 124
7, 24001, Note_off_c, 5, 85, 64
7, 24002, Note_on_c, 5, 85, 124
7, 24097, Note_off_c, 5, 85, 64
7, 24098, Note_on_c, 5, 83, 114
7, 24118, Note_on_c, 5, 85, 84
7, 24120, Note_off_c, 5, 83, 64
7, 24141, Note_off_c, 5, 85, 64
7, 24144, Note_on_c, 5, 83, 99
7, 24187, Note_on_c, 5, 81, 99
7, 24191, Note_off_c, 5, 83, 64
7, 24455, Note_off_c, 5, 81, 64
7, 24576, Note_on_c, 5, 59, 96
7, 24621, Note_off_c, 5, 59, 64
7, 24621, Note_on_c, 5, 61, 96
7, 24669, Note_off_c, 5, 61, 64
7, 24669, Note_on_c, 5, 62, 91
7, 24718, Note_off_c, 5, 62, 64
7, 24719, Note_on_c, 5, 61, 86
7, 24735, Note_off_c, 5, 61, 64
7, 24735, Note_on_c, 5, 62, 70
7, 24751, Note_off_c, 5, 62, 64
7, 24752, Note_on_c, 5, 61, 74
7, 24767, Note_on_c, 5, 59, 86
7, 24768, Note_off_c, 5, 61, 64
7, 24816, Note_on_c, 5, 61, 90
7, 24820, Note_off_c, 5, 59, 64
7, 24860, Note_off_c, 5, 61, 64
7, 24866, Note_on_c, 5, 59, 88
7, 24883, Note_off_c, 5, 59, 64
7, 24883, Note_on_c, 5, 61, 84
7, 24907, Note_off_c, 5, 61, 64
7, 24911, Note_on_c, 5, 59, 85
7, 24959, Note_on_c, 5, 57, 88
7, 24960, Note_off_c, 5, 59, 64
7, 25212, Note_off_c, 5, 57, 64
7, 25212, End_track
8, 0, Start_track
8, 0, Program_c, 6, 48
8, 0, Control_c, 6, 7, 105
8, 0, Control_c, 6, 10, 75
8, 0, Control_c, 6, 11, 127
8, 0, Control_c, 6, 91, 60
8, 0, Control_c, 6, 93, 0
8, 0, Note_on_c, 6, 64, 83
8, 0, Note_on_c, 6, 52, 85
8, 1, Control_c, 6, 1, 0
8, 1, Pitch_bend_c, 6, 8192
8, 44, Note_off_c, 6, 52, 64
8, 47, Note_off_c, 6, 64, 64
8, 47, Note_on_c, 6, 54, 75
8, 47, Note_on_c, 6, 66, 77
8, 95, Note_on_c, 6, 69, 95
8, 95, Note_on_c, 6, 57, 81
8, 97, Note_off_c, 6, 54, 64
8, 98, Note_off_c, 6, 66, 64
8, 142, Note_off_c, 6, 57, 64
8, 143, Note_on_c, 6, 54, 78
8, 143, Note_on_c, 6, 66, 71
8, 145, Note_off_c, 6, 69, 64
8, 190, Note_off_c, 6, 54, 64
8, 191, Note_on_c, 6, 59, 81
8, 192, Note_on_c, 6, 71, 84
8, 195, Note_off_c, 6, 66, 64
8, 239, Note_off_c, 6, 59, 64
8, 239, Note_on_c, 6, 57, 81
8, 239, Note_on_c, 6, 69, 84
8, 244, Note_off_c, 6, 71, 64
8, 281, Note_off_c, 6, 57, 64
8, 286, Note_off_c, 6, 69, 64
8, 286, Note_on_c, 6, 54, 72
8, 287, Note_on_c, 6, 66, 78
8, 329, Note_off_c, 6, 66, 64
8, 335, Note_on_c, 6, 62, 81
8, 335, Note_on_c, 6, 50, 87
8, 336, Note_off_c, 6, 54, 64
8, 383, Note_off_c, 6, 62, 64
8, 383, Note_on_c, 6, 54, 76
8, 383, Note_on_c, 6, 66, 82
8, 386, Note_off_c, 6, 50, 64
8, 479, Note_on_c, 6, 52, 88
8, 479, Note_on_c, 6, 64, 81
8, 482, Note_off_c, 6, 66, 64
8, 484, Note_off_c, 6, 54, 64
8, 766, Note_off_c, 6, 52, 64
8, 767, Note_on_c, 6, 45, 79
8, 769, Note_on_c, 6, 57, 75
8, 770, Note_off_c, 6, 64, 64
8, 1056, Note_off_c, 6, 57, 64
8, 1057, Note_on_c, 6, 64, 59
8, 1057, Note_on_c, 6, 52, 59
8, 1059, Note_off_c, 6, 45, 64
8, 1148, Note_off_c, 6, 52, 64
8, 1153, Note_on_c, 6, 57, 60
8, 1153, Note_on_c, 6, 45, 60
8, 1154, Note_off_c, 6, 64, 64
8, 1536, Note_off_c, 6, 45, 64
8, 1536, Note_off_c, 6, 57, 64
8, 2977, Note_on_c, 6, 61, 84
8, 2997, Note_off_c, 6, 61, 64
8, 3001, Note_on_c, 6, 59, 78
8, 3018, Note_off_c, 6, 59, 64
8, 3024, Note_on_c, 6, 57, 78
8, 3071, Note_off_c, 6, 57, 64
8, 3072, Note_on_c, 6, 55, 71
8, 3455, Note_off_c, 6, 55, 64
8, 3455, Note_on_c, 6, 57, 73
8, 3838, Note_off_c, 6, 57, 64
8, 3839, Note_on_c, 6, 64, 60
8, 4223, Note_on_c, 6, 62, 65
8, 4225, Note_off_c, 6, 64, 64
8, 4607, Note_on_c, 6, 57, 67
8, 4608, Note_off_c, 6, 62, 64
8, 4608, Note_on_c, 6, 69, 55
8, 4608, Note_on_c, 6, 64, 55
8, 4608, Note_on_c, 6, 73, 42
8, 4782, Note_off_c, 6, 57, 64
8, 4799, Note_on_c, 6, 57, 71
8, 4847, Note_on_c, 6, 59, 70
8, 4849, Note_off_c, 6, 57, 64
8, 4894, Note_off_c, 6, 59, 64
8, 4895, Note_on_c, 6, 61, 67
8, 4943, Note_off_c, 6, 61, 64
8, 4943, Note_on_c, 6, 57, 72
8, 4990, Note_on_c, 6, 74, 49
8, 4990, Note_on_c, 6, 66, 52
8, 4991, Note_off_c, 6, 57, 64
8, 4991, Note_off_c, 6, 69, 64
8, 4991, Note_off_c, 6, 73, 64
8, 4991, Note_on_c, 6, 59, 68
8, 4992, Note_on_c, 6, 71, 58
8, 4993, Note_off_c, 6, 64, 64
8, 5373, Note_off_c, 6, 74, 64
8, 5373, Note_off_c, 6, 66, 64
8, 5374, Note_on_c, 6, 74, 64
8, 5374, Note_on_c, 6, 66, 49
8, 5374, Note_on_c, 6, 69, 45
8, 5375, Note_off_c, 6, 71, 64
8, 5375, Note_on_c, 6, 62, 62
8, 5377, Note_off_c, 6, 59, 64
8, 5756, Note_off_c, 6, 69, 64
8, 5756, Note_off_c, 6, 62, 64
8, 5757, Note_off_c, 6, 74, 64
8, 5757, Note_off_c, 6, 66, 64
8, 5759, Note_on_c, 6, 64, 65
8, 5759, Note_on_c, 6, 69, 57
8, 5759, Note_on_c, 6, 73, 56
8, 5760, Note_on_c, 6, 57, 65
8, 5950, Note_off_c, 6, 64, 64
8, 5951, Note_on_c, 6, 66, 59
8, 5999, Note_on_c, 6, 64, 74
8, 6000, Note_off_c, 6, 66, 64
8, 6070, Note_off_c, 6, 64, 64
8, 6071, Note_on_c, 6, 61, 63
8, 6095, Note_off_c, 6, 57, 64
8, 6096, Note_on_c, 6, 57, 70
8, 6097, Note_off_c, 6, 61, 64
8, 6142, Note_off_c, 6, 69, 64
8, 6143, Note_off_c, 6, 57, 64
8, 6144, Note_off_c, 6, 73, 64
8, 6144, Note_on_c, 6, 71, 56
8, 6144, Note_on_c, 6, 67, 61
8, 6144, Note_on_c, 6, 62, 52
8, 6145, Note_on_c, 6, 55, 70
8, 6517, Note_off_c, 6, 71, 64
8, 6526, Note_on_c, 6, 64, 58
8, 6526, Note_on_c, 6, 69, 51
8, 6527, Note_on_c, 6, 73, 51
8, 6528, Note_off_c, 6, 55, 64
8, 6528, Note_on_c, 6, 57, 62
8, 6531, Note_off_c, 6, 67, 64
8, 6531, Note_off_c, 6, 62, 64
8, 6909, Note_off_c, 6, 69, 64
8, 6910, Note_off_c, 6, 64, 64
8, 6910, Note_off_c, 6, 73, 64
8, 6910, Note_on_c, 6, 68, 61
8, 6911, Note_off_c, 6, 57, 64
8, 6911, Note_on_c, 6, 71, 65
8, 6912, Note_on_c, 6, 64, 66
8, 7293, Note_off_c, 6, 68, 64
8, 7294, Note_off_c, 6, 71, 64
8, 7295, Note_off_c, 6, 64, 64
8, 7295, Note_on_c, 6, 62, 70
8, 7295, Note_on_c, 6, 69, 67
8, 7296, Note_on_c, 6, 66, 66
8, 7677, Note_off_c, 6, 69, 64
8, 7678, Note_off_c, 6, 62, 64
8, 7679, Note_off_c, 6, 66, 64
8, 7680, Note_on_c, 6, 69, 67
8, 7680, Note_on_c, 6, 73, 51
8, 7680, Note_on_c, 6, 64, 53
8, 8060, Note_off_c, 6, 64, 64
8, 8060, Note_off_c, 6, 73, 64
8, 8060, Note_off_c, 6, 69, 64
8, 8062, Note_on_c, 6, 68, 56
8, 8062, Note_on_c, 6, 71, 66
8, 8064, Note_on_c, 6, 64, 63
8, 8445, Note_off_c, 6, 71, 64
8, 8445, Note_off_c, 6, 68, 64
8, 8446, Note_off_c, 6, 64, 64
8, 8447, Note_on_c, 6, 66, 52
8, 8447, Note_on_c, 6, 69, 64
8, 8447, Note_on_c, 6, 74, 52
8, 8828, Note_off_c, 6, 69, 64
8, 8831, Note_off_c, 6, 66, 64
8, 8831, Note_on_c, 6, 73, 56
8, 8831, Note_on_c, 6, 64, 65
8, 8831, Note_on_c, 6, 69, 71
8, 8832, Note_off_c, 6, 74, 64
8, 8832, Note_on_c, 6, 81, 58
8, 9023, Note_off_c, 6, 81, 64
8, 9027, Note_off_c, 6, 69, 64
8, 9027, Note_off_c, 6, 64, 64
8, 9027, Note_off_c, 6, 73, 64
8, 9216, Note_on_c, 6, 52, 70
8, 9360, Note_on_c, 6, 40, 75
8, 9362, Note_off_c, 6, 52, 64
8, 9407, Note_off_c, 6, 40, 64
8, 9408, Note_on_c, 6, 40, 75
8, 9599, Note_off_c, 6, 40, 64
8, 9600, Note_on_c, 6, 50, 67
8, 9979, Note_on_c, 6, 45, 61
8, 9979, Note_on_c, 6, 57, 59
8, 9989, Note_off_c, 6, 50, 64
8, 10362, Note_off_c, 6, 57, 64
8, 10364, Note_off_c, 6, 45, 64
8, 10368, Note_on_c, 6, 64, 83
8, 10368, Note_on_c, 6, 52, 85
8, 10412, Note_off_c, 6, 52, 64
8, 10415, Note_off_c, 6, 64, 64
8, 10415, Note_on_c, 6, 54, 75
8, 10415, Note_on_c, 6, 66, 77
8, 10463, Note_on_c, 6, 69, 95
8, 10463, Note_on_c, 6, 57, 81
8, 10465, Note_off_c, 6, 54, 64
8, 10466, Note_off_c, 6, 66, 64
8, 10510, Note_off_c, 6, 57, 64
8, 10511, Note_on_c, 6, 54, 78
8, 10511, Note_on_c, 6, 66, 71
8, 10513, Note_off_c, 6, 69, 64
8, 10558, Note_off_c, 6, 54, 64
8, 10559, Note_on_c, 6, 59, 81
8, 10560, Note_on_c, 6, 71, 84
8, 10563, Note_off_c, 6, 66, 64
8, 10607, Note_off_c, 6, 59, 64
8, 10607, Note_on_c, 6, 57, 81
8, 10607, Note_on_c, 6, 69, 84
8, 10612, Note_off_c, 6, 71, 64
8, 10649, Note_off_c, 6, 57, 64
8, 10654, Note_off_c, 6, 69, 64
8, 10654, Note_on_c, 6, 54, 72
8, 10655, Note_on_c, 6, 66, 78
8, 10697, Note_off_c, 6, 66, 64
8, 10703, Note_on_c, 6, 62, 81
8, 10703, Note_on_c, 6, 50, 87
8, 10704, Note_off_c, 6, 54, 64
8, 10751, Note_off_c, 6, 62, 64
8, 10751, Note_on_c, 6, 54, 76
8, 10751, Note_on_c, 6, 66, 82
8, 10754, Note_off_c, 6, 50, 64
8, 10847, Note_on_c, 6, 52, 88
8, 10847, Note_on_c, 6, 64, 81
8, 10850, Note_off_c, 6, 66, 64
8, 10852, Note_off_c, 6, 54, 64
8, 11134, Note_off_c, 6, 52, 64
8, 11135, Note_on_c, 6, 45, 79
8, 11137, Note_on_c, 6, 57, 75
8, 11138, Note_off_c, 6, 64, 64
8, 11424, Note_off_c, 6, 57, 64
8, 11425, Note_on_c, 6, 64, 59
8, 11425, Note_on_c, 6, 52, 59
8, 11427, Note_off_c, 6, 45, 64
8, 11516, Note_off_c, 6, 52, 64
8, 11521, Note_on_c, 6, 57, 60
8, 11521, Note_on_c, 6, 45, 60
8, 11522, Note_off_c, 6, 64, 64
8, 11904, Note_off_c, 6, 45, 64
8, 11904, Note_off_c, 6, 57, 64
8, 11904, Note_on_c, 6, 69, 63
8, 11904, Note_on_c, 6, 73, 58
8, 11904, Note_on_c, 6, 64, 52
8, 12286, Note_off_c, 6, 64, 64
8, 12287, Note_off_c, 6, 73, 64
8, 12287, Note_on_c, 6, 66, 58
8, 12287, Note_on_c, 6, 74, 58
8, 12287, Note_on_c, 6, 71, 58
8, 12290, Note_off_c, 6, 69, 64
8, 12667, Note_off_c, 6, 66, 64
8, 12668, Note_off_c, 6, 74, 64
8, 12668, Note_off_c, 6, 71, 64
8, 12671, Note_on_c, 6, 66, 62
8, 12671, Note_on_c, 6, 74, 62
8, 12671, Note_on_c, 6, 69, 62
8, 13051, Note_off_c, 6, 69, 64
8, 13054, Note_off_c, 6, 66, 64
8, 13055, Note_on_c, 6, 73, 66
8, 13055, Note_on_c, 6, 69, 56
8, 13056, Note_off_c, 6, 74, 64
8, 13057, Note_on_c, 6, 64, 51
8, 13199, Note_on_c, 6, 78, 72
8, 13223, Note_off_c, 6, 78, 64
8, 13223, Note_on_c, 6, 76, 69
8, 13247, Note_off_c, 6, 76, 64
8, 13247, Note_on_c, 6, 78, 65
8, 13271, Note_off_c, 6, 78, 64
8, 13271, Note_on_c, 6, 76, 76
8, 13294, Note_off_c, 6, 73, 64
8, 13295, Note_off_c, 6, 76, 64
8, 13296, Note_on_c, 6, 73, 66
8, 13438, Note_off_c, 6, 69, 64
8, 13439, Note_off_c, 6, 73, 64
8, 13440, Note_off_c, 6, 64, 64
8, 13440, Note_on_c, 6, 62, 63
8, 13440, Note_on_c, 6, 71, 61
8, 13440, Note_on_c, 6, 67, 55
8, 13822, Note_off_c, 6, 71, 64
8, 13822, Note_off_c, 6, 62, 64
8, 13823, Note_on_c, 6, 73, 52
8, 13823, Note_on_c, 6, 69, 60
8, 13823, Note_on_c, 6, 64, 61
8, 13825, Note_off_c, 6, 67, 64
8, 14206, Note_off_c, 6, 69, 64
8, 14207, Note_off_c, 6, 64, 64
8, 14207, Note_on_c, 6, 71, 61
8, 14207, Note_on_c, 6, 68, 60
8, 14208, Note_on_c, 6, 64, 62
8, 14209, Note_off_c, 6, 73, 64
8, 14590, Note_off_c, 6, 64, 64
8, 14590, Note_off_c, 6, 68, 64
8, 14591, Note_on_c, 6, 69, 71
8, 14591, Note_on_c, 6, 66, 56
8, 14592, Note_off_c, 6, 71, 64
8, 14592, Note_on_c, 6, 62, 64
8, 14976, Note_off_c, 6, 66, 64
8, 14976, Note_off_c, 6, 69, 64
8, 14976, Note_on_c, 6, 81, 55
8, 14976, Note_on_c, 6, 76, 55
8, 14976, Note_on_c, 6, 85, 42
8, 14977, Note_off_c, 6, 62, 64
8, 15167, Note_on_c, 6, 69, 71
8, 15215, Note_on_c, 6, 71, 70
8, 15217, Note_off_c, 6, 69, 64
8, 15262, Note_off_c, 6, 71, 64
8, 15263, Note_on_c, 6, 73, 67
8, 15311, Note_off_c, 6, 73, 64
8, 15311, Note_on_c, 6, 69, 72
8, 15358, Note_on_c, 6, 86, 49
8, 15358, Note_on_c, 6, 78, 52
8, 15359, Note_off_c, 6, 69, 64
8, 15359, Note_off_c, 6, 81, 64
8, 15359, Note_off_c, 6, 85, 64
8, 15359, Note_on_c, 6, 71, 68
8, 15360, Note_on_c, 6, 83, 58
8, 15361, Note_off_c, 6, 76, 64
8, 15741, Note_off_c, 6, 86, 64
8, 15741, Note_off_c, 6, 78, 64
8, 15742, Note_on_c, 6, 81, 45
8, 15742, Note_on_c, 6, 78, 49
8, 15743, Note_off_c, 6, 83, 64
8, 15743, Note_on_c, 6, 74, 62
8, 15744, Note_on_c, 6, 69, 45
8, 15745, Note_off_c, 6, 71, 64
8, 16124, Note_off_c, 6, 74, 64
8, 16124, Note_off_c, 6, 81, 64
8, 16125, Note_off_c, 6, 78, 64
8, 16126, Note_off_c, 6, 69, 64
8, 16127, Note_on_c, 6, 76, 65
8, 16127, Note_on_c, 6, 81, 57
8, 16128, Note_on_c, 6, 69, 65
8, 16272, Note_on_c, 6, 78, 78
8, 16293, Note_off_c, 6, 78, 64
8, 16294, Note_off_c, 6, 76, 64
8, 16296, Note_on_c, 6, 76, 73
8, 16316, Note_off_c, 6, 76, 64
8, 16320, Note_on_c, 6, 78, 72
8, 16342, Note_off_c, 6, 78, 64
8, 16346, Note_on_c, 6, 76, 73
8, 16369, Note_off_c, 6, 76, 64
8, 16369, Note_on_c, 6, 73, 71
8, 16391, Note_off_c, 6, 73, 64
8, 16391, Note_off_c, 6, 69, 64
8, 16395, Note_on_c, 6, 69, 75
8, 16439, Note_on_c, 6, 66, 86
8, 16442, Note_off_c, 6, 69, 64
8, 16457, Note_off_c, 6, 66, 64
8, 16463, Note_on_c, 6, 64, 78
8, 16487, Note_on_c, 6, 61, 73
8, 16488, Note_off_c, 6, 64, 64
8, 16510, Note_off_c, 6, 81, 64
8, 16512, Note_on_c, 6, 71, 52
8, 16512, Note_on_c, 6, 74, 61
8, 16513, Note_off_c, 6, 61, 64
8, 16513, Note_on_c, 6, 67, 70
8, 16894, Note_on_c, 6, 76, 58
8, 16895, Note_on_c, 6, 73, 51
8, 16896, Note_off_c, 6, 67, 64
8, 16896, Note_on_c, 6, 69, 62
8, 16899, Note_off_c, 6, 71, 64
8, 16899, Note_off_c, 6, 74, 64
8, 17088, Note_on_c, 6, 81, 51
8, 17278, Note_off_c, 6, 76, 64
8, 17278, Note_off_c, 6, 73, 64
8, 17278, Note_on_c, 6, 68, 61
8, 17279, Note_off_c, 6, 69, 64
8, 17279, Note_off_c, 6, 81, 64
8, 17279, Note_on_c, 6, 71, 65
8, 17280, Note_on_c, 6, 64, 66
8, 17661, Note_off_c, 6, 68, 64
8, 17662, Note_off_c, 6, 71, 64
8, 17663, Note_off_c, 6, 64, 64
8, 17663, Note_on_c, 6, 69, 67
8, 17663, Note_on_c, 6, 62, 70
8, 17664, Note_on_c, 6, 66, 66
8, 18045, Note_off_c, 6, 69, 64
8, 18046, Note_off_c, 6, 62, 64
8, 18047, Note_off_c, 6, 66, 64
8, 18048, Note_on_c, 6, 69, 67
8, 18048, Note_on_c, 6, 73, 51
8, 18048, Note_on_c, 6, 64, 53
8, 18428, Note_off_c, 6, 64, 64
8, 18428, Note_off_c, 6, 73, 64
8, 18428, Note_off_c, 6, 69, 64
8, 18430, Note_on_c, 6, 68, 56
8, 18430, Note_on_c, 6, 71, 66
8, 18432, Note_on_c, 6, 64, 63
8, 18813, Note_off_c, 6, 71, 64
8, 18813, Note_off_c, 6, 68, 64
8, 18814, Note_off_c, 6, 64, 64
8, 18815, Note_on_c, 6, 66, 52
8, 18815, Note_on_c, 6, 69, 64
8, 18815, Note_on_c, 6, 74, 52
8, 19196, Note_off_c, 6, 69, 64
8, 19199, Note_off_c, 6, 66, 64
8, 19199, Note_on_c, 6, 73, 56
8, 19199, Note_on_c, 6, 64, 65
8, 19199, Note_on_c, 6, 69, 71
8, 19200, Note_off_c, 6, 74, 64
8, 19200, Note_on_c, 6, 81, 58
8, 19391, Note_off_c, 6, 81, 64
8, 19395, Note_off_c, 6, 69, 64
8, 19395, Note_off_c, 6, 64, 64
8, 19395, Note_off_c, 6, 73, 64
8, 19584, Note_on_c, 6, 52, 70
8, 19728, Note_on_c, 6, 40, 75
8, 19730, Note_off_c, 6, 52, 64
8, 19775, Note_off_c, 6, 40, 64
8, 19776, Note_on_c, 6, 40, 75
8, 19967, Note_off_c, 6, 40, 64
8, 19968, Note_on_c, 6, 50, 67
8, 20347, Note_on_c, 6, 45, 61
8, 20347, Note_on_c, 6, 57, 59
8, 20357, Note_off_c, 6, 50, 64
8, 20734, Note_off_c, 6, 57, 64
8, 20736, Note_off_c, 6, 45, 64
8, 20736, Note_on_c, 6, 64, 71
8, 20736, Note_on_c, 6, 56, 65
8, 20736, Note_on_c, 6, 59, 73
8, 20759, Note_on_c, 6, 66, 70
8, 20779, Note_off_c, 6, 66, 64
8, 20783, Note_on_c, 6, 68, 90
8, 20802, Note_off_c, 6, 68, 64
8, 20807, Note_on_c, 6, 69, 93
8, 20824, Note_off_c, 6, 69, 64
8, 20833, Note_on_c, 6, 71, 100
8, 20853, Note_off_c, 6, 71, 64
8, 20857, Note_on_c, 6, 73, 94
8, 20875, Note_off_c, 6, 73, 64
8, 20881, Note_on_c, 6, 74, 85
8, 20898, Note_off_c, 6, 74, 64
8, 20905, Note_on_c, 6, 75, 86
8, 20920, Note_off_c, 6, 75, 64
8, 20929, Note_on_c, 6, 76, 85
8, 20946, Note_off_c, 6, 76, 64
8, 20953, Note_on_c, 6, 78, 83
8, 20968, Note_off_c, 6, 78, 64
8, 20977, Note_on_c, 6, 80, 86
8, 20990, Note_off_c, 6, 80, 64
8, 20999, Note_on_c, 6, 81, 85
8, 21015, Note_off_c, 6, 81, 64
8, 21023, Note_on_c, 6, 83, 88
8, 21037, Note_off_c, 6, 83, 64
8, 21047, Note_on_c, 6, 85, 89
8, 21062, Note_off_c, 6, 85, 64
8, 21071, Note_on_c, 6, 86, 93
8, 21087, Note_off_c, 6, 86, 64
8, 21095, Note_on_c, 6, 87, 112
8, 21108, Note_off_c, 6, 87, 64
8, 21119, Note_off_c, 6, 64, 64
8, 21119, Note_on_c, 6, 88, 90
8, 21120, Note_on_c, 6, 69, 53
8, 21120, Note_on_c, 6, 73, 67
8, 21120, Note_on_c, 6, 76, 51
8, 21121, Note_off_c, 6, 59, 64
8, 21121, Note_off_c, 6, 56, 64
8, 21498, Note_off_c, 6, 76, 64
8, 21500, Note_off_c, 6, 69, 64
8, 21500, Note_off_c, 6, 73, 64
8, 21502, Note_off_c, 6, 88, 64
8, 21502, Note_on_c, 6, 71, 56
8, 21503, Note_on_c, 6, 76, 66
8, 21504, Note_on_c, 6, 68, 63
8, 21504, Note_on_c, 6, 83, 96
8, 21698, Note_on_c, 6, 80, 84
8, 21703, Note_off_c, 6, 83, 64
8, 21883, Note_off_c, 6, 80, 64
8, 21885, Note_off_c, 6, 71, 64
8, 21886, Note_off_c, 6, 68, 64
8, 21886, Note_off_c, 6, 76, 64
8, 21887, Note_on_c, 6, 74, 52
8, 21887, Note_on_c, 6, 66, 52
8, 21887, Note_on_c, 6, 69, 64
8, 21891, Note_on_c, 6, 81, 69
8, 22080, Note_on_c, 6, 78, 70
8, 22082, Note_off_c, 6, 81, 64
8, 22268, Note_off_c, 6, 69, 64
8, 22271, Note_off_c, 6, 78, 64
8, 22271, Note_off_c, 6, 66, 64
8, 22271, Note_on_c, 6, 69, 65
8, 22271, Note_on_c, 6, 76, 56
8, 22272, Note_off_c, 6, 74, 64
8, 22272, Note_on_c, 6, 81, 58
8, 22368, Note_on_c, 6, 73, 71
8, 22439, Note_off_c, 6, 73, 64
8, 22440, Note_on_c, 6, 74, 71
8, 22463, Note_off_c, 6, 74, 64
8, 22464, Note_on_c, 6, 73, 71
8, 22486, Note_off_c, 6, 76, 64
8, 22486, Note_off_c, 6, 69, 64
8, 22487, Note_off_c, 6, 81, 64
8, 22487, Note_off_c, 6, 73, 64
8, 22656, Note_on_c, 6, 52, 70
8, 22798, Note_on_c, 6, 40, 75
8, 22802, Note_off_c, 6, 52, 64
8, 22845, Note_off_c, 6, 40, 64
8, 22846, Note_on_c, 6, 40, 75
8, 23037, Note_off_c, 6, 40, 64
8, 23040, Note_on_c, 6, 50, 67
8, 23422, Note_on_c, 6, 45, 61
8, 23422, Note_on_c, 6, 57, 59
8, 23429, Note_off_c, 6, 50, 64
8, 23808, Note_on_c, 6, 64, 71
8, 23808, Note_on_c, 6, 56, 65
8, 23808, Note_on_c, 6, 59, 73
8, 23809, Note_off_c, 6, 57, 64
8, 23811, Note_off_c, 6, 45, 64
8, 23831, Note_on_c, 6, 66, 70
8, 23851, Note_off_c, 6, 66, 64
8, 23855, Note_on_c, 6, 68, 90
8, 23874, Note_off_c, 6, 68, 64
8, 23879, Note_on_c, 6, 69, 93
8, 23896, Note_off_c, 6, 69, 64
8, 23905, Note_on_c, 6, 71, 100
8, 23925, Note_off_c, 6, 71, 64
8, 23929, Note_on_c, 6, 73, 94
8, 23947, Note_off_c, 6, 73, 64
8, 23953, Note_on_c, 6, 74, 85
8, 23970, Note_off_c, 6, 74, 64
8, 23977, Note_on_c, 6, 75, 86
8, 23992, Note_off_c, 6, 75, 64
8, 24001, Note_on_c, 6, 76, 85
8, 24018, Note_off_c, 6, 76, 64
8, 24025, Note_on_c, 6, 78, 83
8, 24040, Note_off_c, 6, 78, 64
8, 24049, Note_on_c, 6, 80, 86
8, 24062, Note_off_c, 6, 80, 64
8, 24071, Note_on_c, 6, 81, 85
8, 24087, Note_off_c, 6, 81, 64
8, 24095, Note_on_c, 6, 83, 88
8, 24109, Note_off_c, 6, 83, 64
8, 24119, Note_on_c, 6, 85, 89
8, 24134, Note_off_c, 6, 85, 64
8, 24143, Note_on_c, 6, 86, 93
8, 24159, Note_off_c, 6, 86, 64
8, 24167, Note_on_c, 6, 87, 112
8, 24180, Note_off_c, 6, 87, 64
8, 24191, Note_off_c, 6, 64, 64
8, 24191, Note_on_c, 6, 88, 90
8, 24192, Note_on_c, 6, 69, 53
8, 24192, Note_on_c, 6, 73, 67
8, 24192, Note_on_c, 6, 76, 51
8, 24193, Note_off_c, 6, 56, 64
8, 24193, Note_off_c, 6, 59, 64
8, 24572, Note_off_c, 6, 73, 64
8, 24572, Note_off_c, 6, 69, 64
8, 24572, Note_off_c, 6, 76, 64
8, 24574, Note_off_c, 6, 88, 64
8, 24574, Note_on_c, 6, 76, 66
8, 24574, Note_on_c, 6, 71, 56
8, 24576, Note_on_c, 6, 68, 63
8, 24576, Note_on_c, 6, 83, 75
8, 24957, Note_off_c, 6, 71, 64
8, 24957, Note_off_c, 6, 76, 64
8, 24958, Note_off_c, 6, 68, 64
8, 24959, Note_off_c, 6, 83, 64
8, 24959, Note_on_c, 6, 74, 52
8, 24959, Note_on_c, 6, 66, 52
8, 24959, Note_on_c, 6, 69, 64
8, 24960, Note_on_c, 6, 81, 69
8, 25340, Note_off_c, 6, 69, 64
8, 25343, Note_off_c, 6, 81, 64
8, 25343, Note_off_c, 6, 66, 64
8, 25343, Note_on_c, 6, 69, 65
8, 25343, Note_on_c, 6, 73, 71
8, 25343, Note_on_c, 6, 76, 56
8, 25344, Note_off_c, 6, 74, 64
8, 25440, Note_on_c, 6, 81, 74
8, 25535, Note_off_c, 6, 81, 64
8, 25539, Note_off_c, 6, 76, 64
8, 25539, Note_off_c, 6, 73, 64
8, 25539, Note_off_c, 6, 69, 64
8, 25728, Note_on_c, 6, 52, 70
8, 25870, Note_on_c, 6, 40, 75
8, 25874, Note_off_c, 6, 52, 64
8, 25917, Note_off_c, 6, 40, 64
8, 25918, Note_on_c, 6, 40, 75
8, 26109, Note_off_c, 6, 40, 64
8, 26112, Note_on_c, 6, 50, 67
8, 26495, Note_off_c, 6, 50, 64
8, 26880, Note_on_c, 6, 61, 127
8, 26880, Note_on_c, 6, 64, 127
8, 26880, Note_on_c, 6, 69, 127
8, 26882, Control_c, 6, 11, 0
8, 26940, Control_c, 6, 11, 27
8, 26944, Control_c, 6, 11, 28
8, 26948, Control_c, 6, 11, 30
8, 26952, Control_c, 6, 11, 31
8, 26956, Control_c, 6, 11, 32
8, 26960, Control_c, 6, 11, 33
8, 26964, Control_c, 6, 11, 34
8, 26968, Control_c, 6, 11, 36
8, 26972, Control_c, 6, 11, 37
8, 26976, Control_c, 6, 11, 38
8, 26980, Control_c, 6, 11, 39
8, 26984, Control_c, 6, 11, 40
8, 26988, Control_c, 6, 11, 42
8, 26992, Control_c, 6, 11, 43
8, 26996, Control_c, 6, 11, 44
8, 27000, Control_c, 6, 11, 45
8, 27004, Control_c, 6, 11, 47
8, 27008, Control_c, 6, 11, 48
8, 27012, Control_c, 6, 11, 49
8, 27016, Control_c, 6, 11, 50
8, 27020, Control_c, 6, 11, 51
8, 27024, Control_c, 6, 11, 53
8, 27028, Control_c, 6, 11, 54
8, 27032, Control_c, 6, 11, 55
8, 27036, Control_c, 6, 11, 56
8, 27040, Control_c, 6, 11, 57
8, 27044, Control_c, 6, 11, 59
8, 27048, Control_c, 6, 11, 60
8, 27052, Control_c, 6, 11, 61
8, 27056, Control_c, 6, 11, 62
8, 27060, Control_c, 6, 11, 64
8, 27064, Control_c, 6, 11, 65
8, 27068, Control_c, 6, 11, 66
8, 27072, Control_c, 6, 11, 67
8, 27076, Control_c, 6, 11, 68
8, 27080, Control_c, 6, 11, 70
8, 27084, Control_c, 6, 11, 71
8, 27088, Control_c, 6, 11, 72
8, 27092, Control_c, 6, 11, 73
8, 27096, Control_c, 6, 11, 74
8, 27100, Control_c, 6, 11, 76
8, 27104, Control_c, 6, 11, 77
8, 27108, Control_c, 6, 11, 78
8, 27112, Control_c, 6, 11, 79
8, 27116, Control_c, 6, 11, 80
8, 27120, Control_c, 6, 11, 82
8, 27124, Control_c, 6, 11, 83
8, 27128, Control_c, 6, 11, 84
8, 27132, Control_c, 6, 11, 85
8, 27136, Control_c, 6, 11, 87
8, 27140, Control_c, 6, 11, 88
8, 27144, Control_c, 6, 11, 89
8, 27148, Control_c, 6, 11, 90
8, 27152, Control_c, 6, 11, 91
8, 27156, Control_c, 6, 11, 93
8, 27160, Control_c, 6, 11, 94
8, 27164, Control_c, 6, 11, 95
8, 27168, Control_c, 6, 11, 96
8, 27172, Control_c, 6, 11, 97
8, 27176, Control_c, 6, 11, 99
8, 27180, Control_c, 6, 11, 100
8, 27184, Control_c, 6, 11, 101
8, 27188, Control_c, 6, 11, 102
8, 27192, Control_c, 6, 11, 103
8, 27196, Control_c, 6, 11, 105
8, 27200, Control_c, 6, 11, 106
8, 27204, Control_c, 6, 11, 107
8, 27208, Control_c, 6, 11, 108
8, 27212, Control_c, 6, 11, 110
8, 27216, Control_c, 6, 11, 111
8, 27220, Control_c, 6, 11, 112
8, 27224, Control_c, 6, 11, 113
8, 27228, Control_c, 6, 11, 114
8, 27232, Control_c, 6, 11, 116
8, 27236, Control_c, 6, 11, 117
8, 27240, Control_c, 6, 11, 118
8, 27244, Control_c, 6, 11, 119
8, 27248, Control_c, 6, 11, 120
8, 27252, Control_c, 6, 11, 122
8, 27256, Control_c, 6, 11, 123
8, 27260, Control_c, 6, 11, 124
8, 27262, Note_off_c, 6, 69, 64
8, 27262, Note_off_c, 6, 64, 64
8, 27262, Note_off_c, 6, 61, 64
8, 27264, Control_c, 6, 11, 125
8, 27268, Control_c, 6, 11, 127
8, 27268, End_track
9, 0, Start_track
9, 0, Program_c, 7, 60
9, 0, Control_c, 7, 7, 105
9, 0, Control_c, 7, 10, 50
9, 0, Control_c, 7, 11, 127
9, 0, Control_c, 7, 91, 60
9, 0, Control_c, 7, 93, 0
9, 7079, Note_on_c, 7, 69, 66
9, 7079, Note_on_c, 7, 66, 65
9, 7080, Control_c, 7, 1, 0
9, 7080, Pitch_bend_c, 7, 8192
9, 7100, Note_off_c, 7, 66, 64
9, 7100, Note_off_c, 7, 69, 64
9, 7104, Note_on_c, 7, 68, 55
9, 7104, Note_on_c, 7, 71, 65
9, 7303, Note_off_c, 7, 68, 64
9, 7306, Note_off_c, 7, 71, 64
9, 7463, Note_on_c, 7, 68, 83
9, 7463, Note_on_c, 7, 64, 68
9, 7485, Note_off_c, 7, 64, 64
9, 7488, Note_off_c, 7, 68, 64
9, 7488, Note_on_c, 7, 69, 67
9, 7490, Note_on_c, 7, 66, 57
9, 7679, Note_off_c, 7, 69, 64
9, 7680, Note_off_c, 7, 66, 64
9, 7680, Note_on_c, 7, 69, 63
9, 7680, Note_on_c, 7, 64, 60
9, 8060, Note_off_c, 7, 69, 64
9, 8063, Note_on_c, 7, 68, 62
9, 8238, Note_off_c, 7, 68, 64
9, 8254, Note_on_c, 7, 68, 59
9, 8268, Note_off_c, 7, 68, 64
9, 8275, Note_on_c, 7, 69, 70
9, 8343, Note_off_c, 7, 69, 64
9, 8344, Note_on_c, 7, 68, 56
9, 8344, Note_on_c, 7, 71, 65
9, 8351, Note_off_c, 7, 64, 64
9, 8441, Note_off_c, 7, 71, 64
9, 8444, Note_off_c, 7, 68, 64
9, 8446, Note_on_c, 7, 66, 62
9, 8446, Note_on_c, 7, 69, 65
9, 8825, Note_on_c, 7, 64, 51
9, 8828, Note_off_c, 7, 66, 64
9, 8927, Note_on_c, 7, 73, 63
9, 8930, Note_off_c, 7, 69, 64
9, 8947, Note_off_c, 7, 73, 64
9, 8950, Note_on_c, 7, 74, 58
9, 8952, Note_off_c, 7, 64, 64
9, 8975, Note_off_c, 7, 74, 64
9, 8977, Note_on_c, 7, 73, 79
9, 8997, Note_off_c, 7, 73, 64
9, 9001, Note_on_c, 7, 62, 62
9, 9003, Note_on_c, 7, 71, 71
9, 9025, Note_off_c, 7, 71, 64
9, 9025, Note_off_c, 7, 62, 64
9, 9025, Note_on_c, 7, 61, 62
9, 9027, Note_on_c, 7, 69, 70
9, 9071, Note_off_c, 7, 61, 64
9, 9072, Note_off_c, 7, 69, 64
9, 11904, Note_on_c, 7, 61, 55
9, 11904, Note_on_c, 7, 64, 64
9, 12283, Note_on_c, 7, 62, 68
9, 12284, Note_on_c, 7, 59, 52
9, 12285, Note_off_c, 7, 64, 64
9, 12286, Note_off_c, 7, 61, 64
9, 12666, Note_off_c, 7, 62, 64
9, 12667, Note_off_c, 7, 59, 64
9, 12667, Note_on_c, 7, 62, 66
9, 12668, Note_on_c, 7, 66, 51
9, 13051, Note_off_c, 7, 66, 64
9, 13054, Note_on_c, 7, 61, 59
9, 13058, Note_on_c, 7, 69, 62
9, 13059, Note_off_c, 7, 62, 64
9, 13293, Note_off_c, 7, 61, 64
9, 13295, Note_on_c, 7, 62, 69
9, 13344, Note_on_c, 7, 64, 72
9, 13345, Note_off_c, 7, 62, 64
9, 13439, Note_off_c, 7, 64, 64
9, 13439, Note_on_c, 7, 59, 58
9, 13439, Note_on_c, 7, 62, 57
9, 13441, Note_off_c, 7, 69, 64
9, 13822, Note_off_c, 7, 62, 64
9, 13822, Note_off_c, 7, 59, 64
9, 13822, Note_on_c, 7, 61, 66
9, 13823, Note_on_c, 7, 69, 61
9, 14056, Note_off_c, 7, 61, 64
9, 14062, Note_on_c, 7, 64, 63
9, 14206, Note_off_c, 7, 69, 64
9, 14207, Note_off_c, 7, 64, 64
9, 14208, Note_on_c, 7, 64, 44
9, 14208, Note_on_c, 7, 68, 43
9, 14582, Note_off_c, 7, 68, 64
9, 14590, Note_off_c, 7, 64, 64
9, 14592, Note_on_c, 7, 66, 43
9, 14592, Note_on_c, 7, 69, 44
9, 14969, Note_off_c, 7, 66, 64
9, 14974, Note_off_c, 7, 69, 64
9, 14974, Note_on_c, 7, 61, 46
9, 14975, Note_on_c, 7, 64, 51
9, 15358, Note_off_c, 7, 64, 64
9, 15358, Note_on_c, 7, 62, 48
9, 15360, Note_off_c, 7, 61, 64
9, 15360, Note_on_c, 7, 66, 45
9, 15739, Note_off_c, 7, 62, 64
9, 15743, Note_off_c, 7, 66, 64
9, 15744, Note_on_c, 7, 66, 40
9, 15744, Note_on_c, 7, 69, 50
9, 16122, Note_on_c, 7, 64, 44
9, 16125, Note_off_c, 7, 69, 64
9, 16126, Note_off_c, 7, 66, 64
9, 16128, Note_on_c, 7, 69, 53
9, 16505, Note_off_c, 7, 64, 64
9, 16509, Note_on_c, 7, 62, 38
9, 16509, Note_on_c, 7, 67, 50
9, 16511, Note_off_c, 7, 69, 64
9, 16894, Note_off_c, 7, 67, 64
9, 16895, Note_on_c, 7, 69, 40
9, 16895, Note_on_c, 7, 64, 38
9, 16898, Note_off_c, 7, 62, 64
9, 17276, Note_off_c, 7, 64, 64
9, 17278, Note_off_c, 7, 69, 64
9, 17278, Note_on_c, 7, 68, 46
9, 17278, Note_on_c, 7, 64, 45
9, 17445, Note_off_c, 7, 64, 64
9, 17445, Note_off_c, 7, 68, 64
9, 17447, Note_on_c, 7, 69, 66
9, 17447, Note_on_c, 7, 66, 65
9, 17468, Note_off_c, 7, 66, 64
9, 17468, Note_off_c, 7, 69, 64
9, 17472, Note_on_c, 7, 68, 55
9, 17472, Note_on_c, 7, 71, 65
9, 17671, Note_off_c, 7, 68, 64
9, 17674, Note_off_c, 7, 71, 64
9, 17831, Note_on_c, 7, 68, 83
9, 17831, Note_on_c, 7, 64, 68
9, 17853, Note_off_c, 7, 64, 64
9, 17856, Note_off_c, 7, 68, 64
9, 17856, Note_on_c, 7, 69, 67
9, 17858, Note_on_c, 7, 66, 57
9, 17950, Note_on_c, 7, 71, 65
9, 17951, Note_off_c, 7, 69, 64
9, 18045, Note_off_c, 7, 71, 64
9, 18048, Note_off_c, 7, 66, 64
9, 18048, Note_on_c, 7, 69, 67
9, 18048, Note_on_c, 7, 73, 60
9, 18432, Note_on_c, 7, 68, 53
9, 18432, Note_on_c, 7, 71, 60
9, 18434, Note_off_c, 7, 73, 64
9, 18435, Note_off_c, 7, 69, 64
9, 18621, Note_on_c, 7, 69, 65
9, 18623, Note_off_c, 7, 68, 64
9, 18718, Note_off_c, 7, 69, 64
9, 18718, Note_on_c, 7, 68, 59
9, 18813, Note_off_c, 7, 68, 64
9, 18816, Note_on_c, 7, 66, 64
9, 18816, Note_on_c, 7, 69, 66
9, 18819, Note_off_c, 7, 71, 64
9, 19194, Note_off_c, 7, 66, 64
9, 19196, Note_on_c, 7, 64, 60
9, 19388, Note_off_c, 7, 64, 64
9, 19388, Note_on_c, 7, 61, 58
9, 19448, Note_off_c, 7, 61, 64
9, 19452, Note_off_c, 7, 69, 64
9, 20740, Note_on_c, 7, 68, 65
9, 20741, Note_on_c, 7, 71, 69
9, 21117, Note_off_c, 7, 71, 64
9, 21120, Note_on_c, 7, 69, 66
9, 21120, Note_on_c, 7, 73, 67
9, 21123, Note_off_c, 7, 68, 64
9, 21501, Note_off_c, 7, 73, 64
9, 21504, Note_on_c, 7, 68, 55
9, 21507, Note_off_c, 7, 69, 64
9, 21507, Note_on_c, 7, 71, 60
9, 21687, Note_off_c, 7, 71, 64
9, 21696, Note_on_c, 7, 64, 65
9, 21885, Note_off_c, 7, 64, 64
9, 21887, Note_off_c, 7, 68, 64
9, 21888, Note_on_c, 7, 66, 52
9, 21888, Note_on_c, 7, 69, 69
9, 22269, Note_off_c, 7, 69, 64
9, 22271, Note_off_c, 7, 66, 64
9, 22271, Note_on_c, 7, 69, 70
9, 22271, Note_on_c, 7, 64, 56
9, 22366, Note_off_c, 7, 64, 64
9, 22368, Note_on_c, 7, 73, 83
9, 22439, Note_off_c, 7, 73, 64
9, 22439, Note_on_c, 7, 74, 89
9, 22465, Note_on_c, 7, 73, 73
9, 22466, Note_off_c, 7, 74, 64
9, 22486, Note_off_c, 7, 69, 64
9, 22488, Note_off_c, 7, 73, 64
9, 23812, Note_on_c, 7, 68, 65
9, 23813, Note_on_c, 7, 71, 69
9, 24189, Note_off_c, 7, 71, 64
9, 24192, Note_on_c, 7, 69, 66
9, 24192, Note_on_c, 7, 73, 67
9, 24195, Note_off_c, 7, 68, 64
9, 24573, Note_off_c, 7, 73, 64
9, 24576, Note_on_c, 7, 68, 55
9, 24579, Note_off_c, 7, 69, 64
9, 24579, Note_on_c, 7, 71, 60
9, 24759, Note_off_c, 7, 71, 64
9, 24768, Note_on_c, 7, 64, 65
9, 24957, Note_off_c, 7, 64, 64
9, 24959, Note_off_c, 7, 68, 64
9, 24960, Note_on_c, 7, 66, 52
9, 24960, Note_on_c, 7, 69, 69
9, 25341, Note_off_c, 7, 69, 64
9, 25343, Note_off_c, 7, 66, 64
9, 25343, Note_on_c, 7, 64, 56
9, 25343, Note_on_c, 7, 69, 70
9, 25438, Note_off_c, 7, 69, 64
9, 25443, Note_on_c, 7, 73, 93
9, 25465, Note_off_c, 7, 73, 64
9, 25466, Note_on_c, 7, 74, 76
9, 25489, Note_on_c, 7, 73, 65
9, 25492, Note_off_c, 7, 74, 64
9, 25510, Note_off_c, 7, 73, 64
9, 25510, Note_off_c, 7, 64, 64
9, 25512, Note_on_c, 7, 62, 71
9, 25514, Note_on_c, 7, 71, 76
9, 25537, Note_off_c, 7, 71, 64
9, 25537, Note_on_c, 7, 61, 68
9, 25537, Note_on_c, 7, 69, 72
9, 25539, Note_off_c, 7, 62, 64
9, 25567, Note_off_c, 7, 61, 64
9, 25574, Note_off_c, 7, 69, 64
9, 26880, Note_on_c, 7, 61, 111
9, 26880, Note_on_c, 7, 57, 111
9, 26882, Control_c, 7, 11, 0
9, 26892, Control_c, 7, 11, 34
9, 26896, Control_c, 7, 11, 35
9, 26900, Control_c, 7, 11, 36
9, 26904, Control_c, 7, 11, 37
9, 26908, Control_c, 7, 11, 38
9, 26912, Control_c, 7, 11, 39
9, 26916, Control_c, 7, 11, 40
9, 26920, Control_c, 7, 11, 41
9, 26924, Control_c, 7, 11, 42
9, 26928, Control_c, 7, 11, 43
9, 26932, Control_c, 7, 11, 44
9, 26936, Control_c, 7, 11, 45
9, 26940, Control_c, 7, 11, 46
9, 26948, Control_c, 7, 11, 47
9, 26952, Control_c, 7, 11, 48
9, 26956, Control_c, 7, 11, 49
9, 26960, Control_c, 7, 11, 50
9, 26964, Control_c, 7, 11, 51
9, 26968, Control_c, 7, 11, 52
9, 26972, Control_c, 7, 11, 53
9, 26976, Control_c, 7, 11, 54
9, 26980, Control_c, 7, 11, 55
9, 26984, Control_c, 7, 11, 56
9, 26988, Control_c, 7, 11, 57
9, 26992, Control_c, 7, 11, 58
9, 26996, Control_c, 7, 11, 59
9, 27004, Control_c, 7, 11, 60
9, 27008, Control_c, 7, 11, 61
9, 27012, Control_c, 7, 11, 62
9, 27016, Control_c, 7, 11, 63
9, 27020, Control_c, 7, 11, 64
9, 27024, Control_c, 7, 11, 65
9, 27028, Control_c, 7, 11, 66
9, 27032, Control_c, 7, 11, 67
9, 27036, Control_c, 7, 11, 68
9, 27040, Control_c, 7, 11, 69
9, 27044, Control_c, 7, 11, 70
9, 27048, Control_c, 7, 11, 71
9, 27052, Control_c, 7, 11, 72
9, 27056, Control_c, 7, 11, 73
9, 27064, Control_c, 7, 11, 74
9, 27068, Control_c, 7, 11, 75
9, 27072, Control_c, 7, 11, 76
9, 27076, Control_c, 7, 11, 77
9, 27080, Control_c, 7, 11, 78
9, 27084, Control_c, 7, 11, 79
9, 27088, Control_c, 7, 11, 80
9, 27092, Control_c, 7, 11, 81
9, 27096, Control_c, 7, 11, 82
9, 27100, Control_c, 7, 11, 83
9, 27104, Control_c, 7, 11, 84
9, 27108, Control_c, 7, 11, 85
9, 27112, Control_c, 7, 11, 86
9, 27120, Control_c, 7, 11, 87
9, 27124, Control_c, 7, 11, 88
9, 27128, Control_c, 7, 11, 89
9, 27132, Control_c, 7, 11, 90
9, 27136, Control_c, 7, 11, 91
9, 27140, Control_c, 7, 11, 92
9, 27144, Control_c, 7, 11, 93
9, 27148, Control_c, 7, 11, 94
9, 27152, Control_c, 7, 11, 95
9, 27156, Control_c, 7, 11, 96
9, 27160, Control_c, 7, 11, 97
9, 27164, Control_c, 7, 11, 98
9, 27168, Control_c, 7, 11, 99
9, 27172, Control_c, 7, 11, 100
9, 27180, Control_c, 7, 11, 101
9, 27184, Control_c, 7, 11, 102
9, 27188, Control_c, 7, 11, 103
9, 27192, Control_c, 7, 11, 104
9, 27196, Control_c, 7, 11, 105
9, 27200, Control_c, 7, 11, 106
9, 27204, Control_c, 7, 11, 107
9, 27208, Control_c, 7, 11, 108
9, 27212, Control_c, 7, 11, 109
9, 27216, Control_c, 7, 11, 110
9, 27220, Control_c, 7, 11, 111
9, 27224, Control_c, 7, 11, 112
9, 27228, Control_c, 7, 11, 113
9, 27236, Control_c, 7, 11, 114
9, 27240, Control_c, 7, 11, 115
9, 27244, Control_c, 7, 11, 116
9, 27248, Control_c, 7, 11, 117
9, 27252, Control_c, 7, 11, 118
9, 27256, Control_c, 7, 11, 119
9, 27260, Control_c, 7, 11, 120
9, 27263, Note_off_c, 7, 57, 64
9, 27263, Note_off_c, 7, 61, 64
9, 27264, Control_c, 7, 11, 121
9, 27268, Control_c, 7, 11, 122
9, 27272, Control_c, 7, 11, 123
9, 27276, Control_c, 7, 11, 124
9, 27280, Control_c, 7, 11, 125
9, 27284, Control_c, 7, 11, 126
9, 27288, Control_c, 7, 11, 127
9, 27288, End_track
10, 0, Start_track
10, 0, Program_c, 9, 0
10, 0, Control_c, 9, 7, 105
10, 0, Control_c, 9, 10, 64
10, 0, Control_c, 9, 11, 127
10, 0, Control_c, 9, 91, 45
10, 0, Control_c, 9, 93, 0
10, 2, Note_on_c, 9, 51, 84
10, 3, Control_c, 9, 1, 0
10, 3, Pitch_bend_c, 9, 8192
10, 8, Note_off_c, 9, 51, 64
10, 49, Note_on_c, 9, 51, 48
10, 55, Note_off_c, 9, 51, 64
10, 96, Note_on_c, 9, 51, 80
10, 102, Note_off_c, 9, 51, 64
10, 145, Note_on_c, 9, 51, 46
10, 151, Note_off_c, 9, 51, 64
10, 193, Note_on_c, 9, 51, 72
10, 199, Note_off_c, 9, 51, 64
10, 241, Note_on_c, 9, 51, 53
10, 247, Note_off_c, 9, 51, 64
10, 289, Note_on_c, 9, 51, 88
10, 295, Note_off_c, 9, 51, 64
10, 336, Note_on_c, 9, 51, 53
10, 342, Note_off_c, 9, 51, 64
10, 385, Note_on_c, 9, 51, 86
10, 391, Note_off_c, 9, 51, 64
10, 481, Note_on_c, 9, 51, 80
10, 487, Note_off_c, 9, 51, 64
10, 625, Note_on_c, 9, 36, 31
10, 631, Note_off_c, 9, 36, 64
10, 673, Note_on_c, 9, 36, 72
10, 679, Note_off_c, 9, 36, 64
10, 721, Note_on_c, 9, 36, 82
10, 727, Note_off_c, 9, 36, 64
10, 768, Note_on_c, 9, 36, 89
10, 774, Note_off_c, 9, 36, 64
10, 864, Note_on_c, 9, 42, 81
10, 870, Note_off_c, 9, 42, 64
10, 912, Note_on_c, 9, 36, 56
10, 918, Note_off_c, 9, 36, 64
10, 960, Note_on_c, 9, 36, 87
10, 966, Note_off_c, 9, 36, 64
10, 1056, Note_on_c, 9, 42, 92
10, 1062, Note_off_c, 9, 42, 64
10, 1152, Note_on_c, 9, 36, 85
10, 1158, Note_off_c, 9, 36, 64
10, 1248, Note_on_c, 9, 42, 90
10, 1254, Note_off_c, 9, 42, 64
10, 1295, Note_on_c, 9, 36, 56
10, 1301, Note_off_c, 9, 36, 64
10, 1344, Note_on_c, 9, 36, 82
10, 1350, Note_off_c, 9, 36, 64
10, 1440, Note_on_c, 9, 42, 94
10, 1446, Note_off_c, 9, 42, 64
10, 1536, Note_on_c, 9, 42, 84
10, 1536, Note_on_c, 9, 36, 89
10, 1542, Note_off_c, 9, 36, 64
10, 1542, Note_off_c, 9, 42, 64
10, 1632, Note_on_c, 9, 42, 109
10, 1632, Note_on_c, 9, 40, 89
10, 1638, Note_off_c, 9, 40, 64
10, 1638, Note_off_c, 9, 42, 64
10, 1681, Note_on_c, 9, 42, 53
10, 1687, Note_off_c, 9, 42, 64
10, 1728, Note_on_c, 9, 42, 87
10, 1728, Note_on_c, 9, 36, 75
10, 1734, Note_off_c, 9, 36, 64
10, 1734, Note_off_c, 9, 42, 64
10, 1775, Note_on_c, 9, 42, 55
10, 1776, Note_on_c, 9, 36, 74
10, 1781, Note_off_c, 9, 42, 64
10, 1782, Note_off_c, 9, 36, 64
10, 1824, Note_on_c, 9, 42, 109
10, 1824, Note_on_c, 9, 40, 89
10, 1830, Note_off_c, 9, 40, 64
10, 1830, Note_off_c, 9, 42, 64
10, 1871, Note_on_c, 9, 42, 50
10, 1877, Note_off_c, 9, 42, 64
10, 1919, Note_on_c, 9, 42, 87
10, 1920, Note_on_c, 9, 36, 72
10, 1925, Note_off_c, 9, 42, 64
10, 1926, Note_off_c, 9, 36, 64
10, 1967, Note_on_c, 9, 42, 41
10, 1973, Note_off_c, 9, 42, 64
10, 2016, Note_on_c, 9, 40, 86
10, 2016, Note_on_c, 9, 42, 115
10, 2022, Note_off_c, 9, 42, 64
10, 2022, Note_off_c, 9, 40, 64
10, 2063, Note_on_c, 9, 42, 49
10, 2069, Note_off_c, 9, 42, 64
10, 2112, Note_on_c, 9, 42, 106
10, 2112, Note_on_c, 9, 36, 64
10, 2118, Note_off_c, 9, 36, 64
10, 2118, Note_off_c, 9, 42, 64
10, 2160, Note_on_c, 9, 42, 53
10, 2160, Note_on_c, 9, 36, 64
10, 2166, Note_off_c, 9, 36, 64
10, 2166, Note_off_c, 9, 42, 64
10, 2207, Note_on_c, 9, 42, 118
10, 2207, Note_on_c, 9, 40, 83
10, 2213, Note_off_c, 9, 40, 64
10, 2213, Note_off_c, 9, 42, 64
10, 2256, Note_on_c, 9, 42, 48
10, 2262, Note_off_c, 9, 42, 64
10, 2304, Note_on_c, 9, 42, 89
10, 2304, Note_on_c, 9, 36, 82
10, 2310, Note_off_c, 9, 36, 64
10, 2310, Note_off_c, 9, 42, 64
10, 2352, Note_on_c, 9, 42, 47
10, 2358, Note_off_c, 9, 42, 64
10, 2399, Note_on_c, 9, 42, 115
10, 2399, Note_on_c, 9, 40, 87
10, 2405, Note_off_c, 9, 40, 64
10, 2405, Note_off_c, 9, 42, 64
10, 2448, Note_on_c, 9, 42, 46
10, 2454, Note_off_c, 9, 42, 64
10, 2495, Note_on_c, 9, 42, 112
10, 2496, Note_on_c, 9, 36, 82
10, 2501, Note_off_c, 9, 42, 64
10, 2502, Note_off_c, 9, 36, 64
10, 2544, Note_on_c, 9, 42, 46
10, 2544, Note_on_c, 9, 36, 76
10, 2550, Note_off_c, 9, 36, 64
10, 2550, Note_off_c, 9, 42, 64
10, 2591, Note_on_c, 9, 42, 115
10, 2591, Note_on_c, 9, 40, 88
10, 2597, Note_off_c, 9, 40, 64
10, 2597, Note_off_c, 9, 42, 64
10, 2639, Note_on_c, 9, 42, 45
10, 2640, Note_on_c, 9, 36, 81
10, 2645, Note_off_c, 9, 42, 64
10, 2646, Note_off_c, 9, 36, 64
10, 2687, Note_on_c, 9, 42, 89
10, 2688, Note_on_c, 9, 36, 76
10, 2693, Note_off_c, 9, 42, 64
10, 2694, Note_off_c, 9, 36, 64
10, 2735, Note_on_c, 9, 42, 41
10, 2741, Note_off_c, 9, 42, 64
10, 2783, Note_on_c, 9, 42, 109
10, 2783, Note_on_c, 9, 40, 85
10, 2789, Note_off_c, 9, 40, 64
10, 2789, Note_off_c, 9, 42, 64
10, 2832, Note_on_c, 9, 42, 44
10, 2838, Note_off_c, 9, 42, 64
10, 2880, Note_on_c, 9, 42, 94
10, 2880, Note_on_c, 9, 36, 73
10, 2886, Note_off_c, 9, 36, 64
10, 2886, Note_off_c, 9, 42, 64
10, 2928, Note_on_c, 9, 36, 70
10, 2929, Note_on_c, 9, 42, 50
10, 2934, Note_off_c, 9, 36, 64
10, 2935, Note_off_c, 9, 42, 64
10, 2976, Note_on_c, 9, 40, 89
10, 2977, Note_on_c, 9, 42, 101
10, 2982, Note_off_c, 9, 40, 64
10, 2983, Note_off_c, 9, 42, 64
10, 3023, Note_on_c, 9, 42, 52
10, 3029, Note_off_c, 9, 42, 64
10, 3072, Note_on_c, 9, 36, 74
10, 3073, Note_on_c, 9, 42, 86
10, 3078, Note_off_c, 9, 36, 64
10, 3079, Note_off_c, 9, 42, 64
10, 3119, Note_on_c, 9, 42, 43
10, 3125, Note_off_c, 9, 42, 64
10, 3169, Note_on_c, 9, 42, 108
10, 3169, Note_on_c, 9, 40, 89
10, 3175, Note_off_c, 9, 40, 64
10, 3175, Note_off_c, 9, 42, 64
10, 3217, Note_on_c, 9, 42, 39
10, 3223, Note_off_c, 9, 42, 64
10, 3264, Note_on_c, 9, 36, 74
10, 3265, Note_on_c, 9, 42, 97
10, 3270, Note_off_c, 9, 36, 64
10, 3271, Note_off_c, 9, 42, 64
10, 3312, Note_on_c, 9, 42, 42
10, 3312, Note_on_c, 9, 36, 69
10, 3318, Note_off_c, 9, 36, 64
10, 3318, Note_off_c, 9, 42, 64
10, 3360, Note_on_c, 9, 40, 89
10, 3360, Note_on_c, 9, 42, 101
10, 3366, Note_off_c, 9, 42, 64
10, 3366, Note_off_c, 9, 40, 64
10, 3408, Note_on_c, 9, 42, 28
10, 3414, Note_off_c, 9, 42, 64
10, 3456, Note_on_c, 9, 42, 91
10, 3456, Note_on_c, 9, 36, 79
10, 3462, Note_off_c, 9, 36, 64
10, 3462, Note_off_c, 9, 42, 64
10, 3504, Note_on_c, 9, 42, 52
10, 3510, Note_off_c, 9, 42, 64
10, 3552, Note_on_c, 9, 42, 109
10, 3552, Note_on_c, 9, 40, 82
10, 3558, Note_off_c, 9, 40, 64
10, 3558, Note_off_c, 9, 42, 64
10, 3601, Note_on_c, 9, 42, 66
10, 3607, Note_off_c, 9, 42, 64
10, 3624, Note_on_c, 9, 42, 37
10, 3630, Note_off_c, 9, 42, 64
10, 3649, Note_on_c, 9, 42, 86
10, 3649, Note_on_c, 9, 36, 83
10, 3655, Note_off_c, 9, 36, 64
10, 3655, Note_off_c, 9, 42, 64
10, 3696, Note_on_c, 9, 42, 40
10, 3697, Note_on_c, 9, 36, 80
10, 3702, Note_off_c, 9, 42, 64
10, 3703, Note_off_c, 9, 36, 64
10, 3744, Note_on_c, 9, 40, 89
10, 3744, Note_on_c, 9, 42, 109
10, 3750, Note_off_c, 9, 42, 64
10, 3750, Note_off_c, 9, 40, 64
10, 3792, Note_on_c, 9, 42, 44
10, 3798, Note_off_c, 9, 42, 64
10, 3840, Note_on_c, 9, 42, 87
10, 3840, Note_on_c, 9, 36, 79
10, 3846, Note_off_c, 9, 36, 64
10, 3846, Note_off_c, 9, 42, 64
10, 3889, Note_on_c, 9, 42, 60
10, 3895, Note_off_c, 9, 42, 64
10, 3936, Note_on_c, 9, 42, 103
10, 3936, Note_on_c, 9, 40, 84
10, 3942, Note_off_c, 9, 40, 64
10, 3942, Note_off_c, 9, 42, 64
10, 3985, Note_on_c, 9, 42, 88
10, 3991, Note_off_c, 9, 42, 64
10, 4009, Note_on_c, 9, 42, 57
10, 4015, Note_off_c, 9, 42, 64
10, 4031, Note_on_c, 9, 36, 73
10, 4033, Note_on_c, 9, 42, 84
10, 4037, Note_off_c, 9, 36, 64
10, 4039, Note_off_c, 9, 42, 64
10, 4081, Note_on_c, 9, 42, 46
10, 4087, Note_off_c, 9, 42, 64
10, 4127, Note_on_c, 9, 40, 89
10, 4128, Note_on_c, 9, 42, 109
10, 4133, Note_off_c, 9, 40, 64
10, 4134, Note_off_c, 9, 42, 64
10, 4177, Note_on_c, 9, 42, 37
10, 4183, Note_off_c, 9, 42, 64
10, 4224, Note_on_c, 9, 42, 87
10, 4224, Note_on_c, 9, 36, 84
10, 4230, Note_off_c, 9, 36, 64
10, 4230, Note_off_c, 9, 42, 64
10, 4271, Note_on_c, 9, 42, 49
10, 4277, Note_off_c, 9, 42, 64
10, 4319, Note_on_c, 9, 42, 115
10, 4319, Note_on_c, 9, 40, 88
10, 4325, Note_off_c, 9, 40, 64
10, 4325, Note_off_c, 9, 42, 64
10, 4367, Note_on_c, 9, 42, 66
10, 4373, Note_off_c, 9, 42, 64
10, 4415, Note_on_c, 9, 46, 83
10, 4415, Note_on_c, 9, 40, 92
10, 4421, Note_off_c, 9, 40, 64
10, 4421, Note_off_c, 9, 46, 64
10, 4486, Note_on_c, 9, 40, 51
10, 4492, Note_off_c, 9, 40, 64
10, 4510, Note_on_c, 9, 40, 100
10, 4516, Note_off_c, 9, 40, 64
10, 4608, Note_on_c, 9, 42, 91
10, 4608, Note_on_c, 9, 36, 81
10, 4614, Note_off_c, 9, 36, 64
10, 4614, Note_off_c, 9, 42, 64
10, 4655, Note_on_c, 9, 42, 44
10, 4661, Note_off_c, 9, 42, 64
10, 4703, Note_on_c, 9, 42, 103
10, 4703, Note_on_c, 9, 40, 82
10, 4709, Note_off_c, 9, 40, 64
10, 4709, Note_off_c, 9, 42, 64
10, 4753, Note_on_c, 9, 42, 44
10, 4759, Note_off_c, 9, 42, 64
10, 4800, Note_on_c, 9, 42, 98
10, 4800, Note_on_c, 9, 36, 77
10, 4806, Note_off_c, 9, 36, 64
10, 4806, Note_off_c, 9, 42, 64
10, 4848, Note_on_c, 9, 42, 43
10, 4848, Note_on_c, 9, 36, 83
10, 4854, Note_off_c, 9, 36, 64
10, 4854, Note_off_c, 9, 42, 64
10, 4896, Note_on_c, 9, 42, 98
10, 4897, Note_on_c, 9, 40, 80
10, 4902, Note_off_c, 9, 42, 64
10, 4903, Note_off_c, 9, 40, 64
10, 4920, Note_on_c, 9, 42, 52
10, 4926, Note_off_c, 9, 42, 64
10, 4944, Note_on_c, 9, 42, 73
10, 4950, Note_off_c, 9, 42, 64
10, 4992, Note_on_c, 9, 42, 89
10, 4992, Note_on_c, 9, 36, 79
10, 4998, Note_off_c, 9, 36, 64
10, 4998, Note_off_c, 9, 42, 64
10, 5040, Note_on_c, 9, 42, 44
10, 5046, Note_off_c, 9, 42, 64
10, 5088, Note_on_c, 9, 42, 104
10, 5089, Note_on_c, 9, 40, 84
10, 5094, Note_off_c, 9, 42, 64
10, 5095, Note_off_c, 9, 40, 64
10, 5137, Note_on_c, 9, 42, 50
10, 5143, Note_off_c, 9, 42, 64
10, 5184, Note_on_c, 9, 36, 67
10, 5185, Note_on_c, 9, 42, 98
10, 5190, Note_off_c, 9, 36, 64
10, 5191, Note_off_c, 9, 42, 64
10, 5232, Note_on_c, 9, 42, 44
10, 5233, Note_on_c, 9, 36, 71
10, 5238, Note_off_c, 9, 42, 64
10, 5239, Note_off_c, 9, 36, 64
10, 5279, Note_on_c, 9, 42, 98
10, 5279, Note_on_c, 9, 40, 82
10, 5285, Note_off_c, 9, 40, 64
10, 5285, Note_off_c, 9, 42, 64
10, 5328, Note_on_c, 9, 36, 70
10, 5329, Note_on_c, 9, 42, 43
10, 5334, Note_off_c, 9, 36, 64
10, 5335, Note_off_c, 9, 42, 64
10, 5376, Note_on_c, 9, 42, 90
10, 5376, Note_on_c, 9, 36, 75
10, 5382, Note_off_c, 9, 36, 64
10, 5382, Note_off_c, 9, 42, 64
10, 5424, Note_on_c, 9, 42, 51
10, 5430, Note_off_c, 9, 42, 64
10, 5472, Note_on_c, 9, 42, 98
10, 5473, Note_on_c, 9, 40, 79
10, 5478, Note_off_c, 9, 42, 64
10, 5479, Note_off_c, 9, 40, 64
10, 5519, Note_on_c, 9, 42, 47
10, 5525, Note_off_c, 9, 42, 64
10, 5568, Note_on_c, 9, 42, 109
10, 5568, Note_on_c, 9, 36, 73
10, 5574, Note_off_c, 9, 36, 64
10, 5574, Note_off_c, 9, 42, 64
10, 5616, Note_on_c, 9, 42, 47
10, 5616, Note_on_c, 9, 36, 75
10, 5622, Note_off_c, 9, 36, 64
10, 5622, Note_off_c, 9, 42, 64
10, 5663, Note_on_c, 9, 42, 109
10, 5663, Note_on_c, 9, 40, 77
10, 5669, Note_off_c, 9, 40, 64
10, 5669, Note_off_c, 9, 42, 64
10, 5711, Note_on_c, 9, 42, 49
10, 5717, Note_off_c, 9, 42, 64
10, 5760, Note_on_c, 9, 42, 91
10, 5760, Note_on_c, 9, 36, 82
10, 5766, Note_off_c, 9, 36, 64
10, 5766, Note_off_c, 9, 42, 64
10, 5807, Note_on_c, 9, 42, 57
10, 5813, Note_off_c, 9, 42, 64
10, 5855, Note_on_c, 9, 42, 96
10, 5857, Note_on_c, 9, 40, 82
10, 5861, Note_off_c, 9, 42, 64
10, 5863, Note_off_c, 9, 40, 64
10, 5903, Note_on_c, 9, 42, 37
10, 5909, Note_off_c, 9, 42, 64
10, 5951, Note_on_c, 9, 42, 98
10, 5952, Note_on_c, 9, 36, 75
10, 5957, Note_off_c, 9, 42, 64
10, 5958, Note_off_c, 9, 36, 64
10, 6000, Note_on_c, 9, 36, 78
10, 6001, Note_on_c, 9, 42, 43
10, 6006, Note_off_c, 9, 36, 64
10, 6007, Note_off_c, 9, 42, 64
10, 6047, Note_on_c, 9, 42, 100
10, 6047, Note_on_c, 9, 40, 90
10, 6053, Note_off_c, 9, 40, 64
10, 6053, Note_off_c, 9, 42, 64
10, 6095, Note_on_c, 9, 42, 43
10, 6101, Note_off_c, 9, 42, 64
10, 6144, Note_on_c, 9, 42, 92
10, 6144, Note_on_c, 9, 36, 84
10, 6150, Note_off_c, 9, 36, 64
10, 6150, Note_off_c, 9, 42, 64
10, 6191, Note_on_c, 9, 42, 39
10, 6197, Note_off_c, 9, 42, 64
10, 6239, Note_on_c, 9, 42, 98
10, 6239, Note_on_c, 9, 40, 87
10, 6245, Note_off_c, 9, 40, 64
10, 6245, Note_off_c, 9, 42, 64
10, 6287, Note_on_c, 9, 42, 42
10, 6293, Note_off_c, 9, 42, 64
10, 6336, Note_on_c, 9, 36, 77
10, 6336, Note_on_c, 9, 42, 96
10, 6342, Note_off_c, 9, 42, 64
10, 6342, Note_off_c, 9, 36, 64
10, 6384, Note_on_c, 9, 36, 84
10, 6384, Note_on_c, 9, 42, 39
10, 6390, Note_off_c, 9, 42, 64
10, 6390, Note_off_c, 9, 36, 64
10, 6431, Note_on_c, 9, 42, 100
10, 6431, Note_on_c, 9, 40, 90
10, 6437, Note_off_c, 9, 40, 64
10, 6437, Note_off_c, 9, 42, 64
10, 6479, Note_on_c, 9, 42, 47
10, 6480, Note_on_c, 9, 36, 62
10, 6485, Note_off_c, 9, 42, 64
10, 6486, Note_off_c, 9, 36, 64
10, 6528, Note_on_c, 9, 42, 91
10, 6528, Note_on_c, 9, 36, 82
10, 6534, Note_off_c, 9, 36, 64
10, 6534, Note_off_c, 9, 42, 64
10, 6575, Note_on_c, 9, 42, 41
10, 6581, Note_off_c, 9, 42, 64
10, 6623, Note_on_c, 9, 42, 100
10, 6624, Note_on_c, 9, 40, 89
10, 6629, Note_off_c, 9, 42, 64
10, 6630, Note_off_c, 9, 40, 64
10, 6673, Note_on_c, 9, 42, 48
10, 6679, Note_off_c, 9, 42, 64
10, 6720, Note_on_c, 9, 36, 82
10, 6721, Note_on_c, 9, 42, 100
10, 6726, Note_off_c, 9, 36, 64
10, 6727, Note_off_c, 9, 42, 64
10, 6767, Note_on_c, 9, 42, 46
10, 6767, Note_on_c, 9, 36, 81
10, 6773, Note_off_c, 9, 36, 64
10, 6773, Note_off_c, 9, 42, 64
10, 6815, Note_on_c, 9, 42, 98
10, 6815, Note_on_c, 9, 40, 83
10, 6821, Note_off_c, 9, 40, 64
10, 6821, Note_off_c, 9, 42, 64
10, 6863, Note_on_c, 9, 42, 44
10, 6869, Note_off_c, 9, 42, 64
10, 6912, Note_on_c, 9, 42, 89
10, 6912, Note_on_c, 9, 36, 79
10, 6918, Note_off_c, 9, 36, 64
10, 6918, Note_off_c, 9, 42, 64
10, 6959, Note_on_c, 9, 42, 50
10, 6965, Note_off_c, 9, 42, 64
10, 7008, Note_on_c, 9, 42, 103
10, 7009, Note_on_c, 9, 40, 86
10, 7014, Note_off_c, 9, 42, 64
10, 7015, Note_off_c, 9, 40, 64
10, 7055, Note_on_c, 9, 42, 38
10, 7061, Note_off_c, 9, 42, 64
10, 7103, Note_on_c, 9, 42, 106
10, 7103, Note_on_c, 9, 36, 84
10, 7109, Note_off_c, 9, 36, 64
10, 7109, Note_off_c, 9, 42, 64
10, 7151, Note_on_c, 9, 42, 48
10, 7151, Note_on_c, 9, 36, 79
10, 7157, Note_off_c, 9, 36, 64
10, 7157, Note_off_c, 9, 42, 64
10, 7199, Note_on_c, 9, 42, 112
10, 7199, Note_on_c, 9, 40, 86
10, 7205, Note_off_c, 9, 40, 64
10, 7205, Note_off_c, 9, 42, 64
10, 7248, Note_on_c, 9, 42, 54
10, 7248, Note_on_c, 9, 36, 65
10, 7254, Note_off_c, 9, 36, 64
10, 7254, Note_off_c, 9, 42, 64
10, 7295, Note_on_c, 9, 46, 53
10, 7296, Note_on_c, 9, 36, 84
10, 7301, Note_off_c, 9, 46, 64
10, 7302, Note_off_c, 9, 36, 64
10, 7343, Note_on_c, 9, 46, 64
10, 7344, Note_on_c, 9, 36, 84
10, 7349, Note_off_c, 9, 46, 64
10, 7350, Note_off_c, 9, 36, 64
10, 7391, Note_on_c, 9, 46, 80
10, 7392, Note_on_c, 9, 40, 103
10, 7397, Note_off_c, 9, 46, 64
10, 7398, Note_off_c, 9, 40, 64
10, 7439, Note_on_c, 9, 46, 120
10, 7441, Note_on_c, 9, 36, 96
10, 7445, Note_off_c, 9, 46, 64
10, 7447, Note_off_c, 9, 36, 64
10, 7484, Note_on_c, 9, 40, 101
10, 7487, Note_off_c, 9, 40, 64
10, 7488, Note_on_c, 9, 40, 125
10, 7494, Note_off_c, 9, 40, 64
10, 7559, Note_on_c, 9, 48, 111
10, 7565, Note_off_c, 9, 48, 64
10, 7583, Note_on_c, 9, 45, 91
10, 7589, Note_off_c, 9, 45, 64
10, 7631, Note_on_c, 9, 41, 71
10, 7637, Note_off_c, 9, 41, 64
10, 7679, Note_on_c, 9, 49, 88
10, 7680, Note_on_c, 9, 36, 115
10, 7685, Note_off_c, 9, 49, 64
10, 7686, Note_off_c, 9, 36, 64
10, 7728, Note_on_c, 9, 51, 52
10, 7734, Note_off_c, 9, 51, 64
10, 7776, Note_on_c, 9, 51, 109
10, 7777, Note_on_c, 9, 40, 101
10, 7777, Note_on_c, 9, 54, 123
10, 7778, Control_c, 9, 1, 0
10, 7778, Pitch_bend_c, 9, 8192
10, 7782, Note_off_c, 9, 51, 64
10, 7783, Note_off_c, 9, 40, 64
10, 7783, Note_off_c, 9, 54, 64
10, 7825, Note_on_c, 9, 51, 57
10, 7831, Note_off_c, 9, 51, 64
10, 7871, Note_on_c, 9, 51, 78
10, 7872, Note_on_c, 9, 36, 111
10, 7877, Note_off_c, 9, 51, 64
10, 7878, Note_off_c, 9, 36, 64
10, 7920, Note_on_c, 9, 36, 103
10, 7921, Note_on_c, 9, 51, 63
10, 7926, Note_off_c, 9, 36, 64
10, 7927, Note_off_c, 9, 51, 64
10, 7967, Note_on_c, 9, 54, 124
10, 7968, Note_on_c, 9, 51, 109
10, 7968, Note_on_c, 9, 40, 104
10, 7973, Note_off_c, 9, 54, 64
10, 7974, Note_off_c, 9, 40, 64
10, 7974, Note_off_c, 9, 51, 64
10, 8017, Note_on_c, 9, 51, 58
10, 8023, Note_off_c, 9, 51, 64
10, 8063, Note_on_c, 9, 51, 81
10, 8063, Note_on_c, 9, 36, 107
10, 8069, Note_off_c, 9, 36, 64
10, 8069, Note_off_c, 9, 51, 64
10, 8111, Note_on_c, 9, 36, 107
10, 8113, Note_on_c, 9, 51, 55
10, 8117, Note_off_c, 9, 36, 64
10, 8119, Note_off_c, 9, 51, 64
10, 8159, Note_on_c, 9, 51, 88
10, 8159, Note_on_c, 9, 54, 123
10, 8160, Note_on_c, 9, 40, 115
10, 8165, Note_off_c, 9, 51, 64
10, 8165, Note_off_c, 9, 54, 64
10, 8166, Note_off_c, 9, 40, 64
10, 8208, Note_on_c, 9, 51, 53
10, 8214, Note_off_c, 9, 51, 64
10, 8255, Note_on_c, 9, 36, 99
10, 8256, Note_on_c, 9, 51, 92
10, 8261, Note_off_c, 9, 36, 64
10, 8262, Note_off_c, 9, 51, 64
10, 8303, Note_on_c, 9, 36, 107
10, 8304, Note_on_c, 9, 51, 55
10, 8309, Note_off_c, 9, 36, 64
10, 8310, Note_off_c, 9, 51, 64
10, 8352, Note_on_c, 9, 40, 111
10, 8353, Note_on_c, 9, 51, 96
10, 8353, Note_on_c, 9, 54, 124
10, 8358, Note_off_c, 9, 40, 64
10, 8359, Note_off_c, 9, 51, 64
10, 8359, Note_off_c, 9, 54, 64
10, 8399, Note_on_c, 9, 46, 55
10, 8405, Note_off_c, 9, 46, 64
10, 8447, Note_on_c, 9, 51, 88
10, 8448, Note_on_c, 9, 44, 55
10, 8448, Note_on_c, 9, 36, 100
10, 8453, Note_off_c, 9, 51, 64
10, 8454, Note_off_c, 9, 36, 64
10, 8454, Note_off_c, 9, 44, 64
10, 8496, Note_on_c, 9, 51, 42
10, 8497, Note_on_c, 9, 36, 94
10, 8502, Note_off_c, 9, 51, 64
10, 8503, Note_off_c, 9, 36, 64
10, 8543, Note_on_c, 9, 40, 104
10, 8544, Note_on_c, 9, 51, 100
10, 8545, Note_on_c, 9, 54, 120
10, 8549, Note_off_c, 9, 40, 64
10, 8550, Note_off_c, 9, 51, 64
10, 8551, Note_off_c, 9, 54, 64
10, 8592, Note_on_c, 9, 51, 52
10, 8598, Note_off_c, 9, 51, 64
10, 8639, Note_on_c, 9, 51, 88
10, 8639, Note_on_c, 9, 36, 115
10, 8645, Note_off_c, 9, 36, 64
10, 8645, Note_off_c, 9, 51, 64
10, 8687, Note_on_c, 9, 36, 104
10, 8688, Note_on_c, 9, 51, 57
10, 8693, Note_off_c, 9, 36, 64
10, 8694, Note_off_c, 9, 51, 64
10, 8735, Note_on_c, 9, 40, 113
10, 8735, Note_on_c, 9, 54, 124
10, 8736, Note_on_c, 9, 51, 100
10, 8741, Note_off_c, 9, 40, 64
10, 8741, Note_off_c, 9, 54, 64
10, 8742, Note_off_c, 9, 51, 64
10, 8784, Note_on_c, 9, 51, 49
10, 8790, Note_off_c, 9, 51, 64
10, 8831, Note_on_c, 9, 51, 100
10, 8832, Note_on_c, 9, 36, 111
10, 8837, Note_off_c, 9, 51, 64
10, 8838, Note_off_c, 9, 36, 64
10, 8876, Note_on_c, 9, 48, 90
10, 8879, Note_off_c, 9, 48, 64
10, 8880, Note_on_c, 9, 48, 119
10, 8886, Note_off_c, 9, 48, 64
10, 8951, Note_on_c, 9, 45, 65
10, 8957, Note_off_c, 9, 45, 64
10, 8976, Note_on_c, 9, 45, 86
10, 8982, Note_off_c, 9, 45, 64
10, 8999, Note_on_c, 9, 41, 105
10, 9005, Note_off_c, 9, 41, 64
10, 9024, Note_on_c, 9, 41, 126
10, 9030, Note_off_c, 9, 41, 64
10, 9216, Note_on_c, 9, 36, 90
10, 9222, Note_off_c, 9, 36, 64
10, 9313, Note_on_c, 9, 42, 92
10, 9319, Note_off_c, 9, 42, 64
10, 9359, Note_on_c, 9, 36, 76
10, 9365, Note_off_c, 9, 36, 64
10, 9407, Note_on_c, 9, 36, 88
10, 9413, Note_off_c, 9, 36, 64
10, 9503, Note_on_c, 9, 42, 98
10, 9509, Note_off_c, 9, 42, 64
10, 9600, Note_on_c, 9, 36, 96
10, 9606, Note_off_c, 9, 36, 64
10, 9697, Note_on_c, 9, 42, 96
10, 9703, Note_off_c, 9, 42, 64
10, 9743, Note_on_c, 9, 36, 80
10, 9749, Note_off_c, 9, 36, 64
10, 9792, Note_on_c, 9, 36, 91
10, 9798, Note_off_c, 9, 36, 64
10, 9888, Note_on_c, 9, 42, 92
10, 9894, Note_off_c, 9, 42, 64
10, 9984, Note_on_c, 9, 36, 88
10, 9990, Note_off_c, 9, 36, 64
10, 10081, Note_on_c, 9, 42, 96
10, 10087, Note_off_c, 9, 42, 64
10, 10127, Note_on_c, 9, 36, 76
10, 10133, Note_off_c, 9, 36, 64
10, 10176, Note_on_c, 9, 36, 91
10, 10182, Note_off_c, 9, 36, 64
10, 10273, Note_on_c, 9, 42, 92
10, 10279, Note_off_c, 9, 42, 64
10, 10370, Note_on_c, 9, 51, 84
10, 10376, Note_off_c, 9, 51, 64
10, 10417, Note_on_c, 9, 51, 48
10, 10423, Note_off_c, 9, 51, 64
10, 10464, Note_on_c, 9, 51, 80
10, 10470, Note_off_c, 9, 51, 64
10, 10513, Note_on_c, 9, 51, 46
10, 10519, Note_off_c, 9, 51, 64
10, 10561, Note_on_c, 9, 51, 72
10, 10567, Note_off_c, 9, 51, 64
10, 10609, Note_on_c, 9, 51, 53
10, 10615, Note_off_c, 9, 51, 64
10, 10657, Note_on_c, 9, 51, 88
10, 10663, Note_off_c, 9, 51, 64
10, 10704, Note_on_c, 9, 51, 53
10, 10710, Note_off_c, 9, 51, 64
10, 10753, Note_on_c, 9, 51, 86
10, 10759, Note_off_c, 9, 51, 64
10, 10849, Note_on_c, 9, 51, 80
10, 10855, Note_off_c, 9, 51, 64
10, 10993, Note_on_c, 9, 36, 31
10, 10999, Note_off_c, 9, 36, 64
10, 11040, Note_on_c, 9, 36, 72
10, 11046, Note_off_c, 9, 36, 64
10, 11089, Note_on_c, 9, 36, 82
10, 11095, Note_off_c, 9, 36, 64
10, 11136, Note_on_c, 9, 36, 89
10, 11142, Note_off_c, 9, 36, 64
10, 11232, Note_on_c, 9, 42, 90
10, 11238, Note_off_c, 9, 42, 64
10, 11280, Note_on_c, 9, 36, 56
10, 11286, Note_off_c, 9, 36, 64
10, 11328, Note_on_c, 9, 36, 87
10, 11334, Note_off_c, 9, 36, 64
10, 11424, Note_on_c, 9, 42, 92
10, 11430, Note_off_c, 9, 42, 64
10, 11520, Note_on_c, 9, 36, 85
10, 11526, Note_off_c, 9, 36, 64
10, 11616, Note_on_c, 9, 42, 90
10, 11622, Note_off_c, 9, 42, 64
10, 11663, Note_on_c, 9, 36, 56
10, 11669, Note_off_c, 9, 36, 64
10, 11712, Note_on_c, 9, 36, 82
10, 11718, Note_off_c, 9, 36, 64
10, 11808, Note_on_c, 9, 42, 94
10, 11814, Note_off_c, 9, 42, 64
10, 11904, Note_on_c, 9, 42, 90
10, 11904, Note_on_c, 9, 36, 89
10, 11910, Note_off_c, 9, 36, 64
10, 11910, Note_off_c, 9, 42, 64
10, 11999, Note_on_c, 9, 42, 109
10, 12001, Note_on_c, 9, 40, 89
10, 12005, Note_off_c, 9, 42, 64
10, 12007, Note_off_c, 9, 40, 64
10, 12049, Note_on_c, 9, 42, 53
10, 12055, Note_off_c, 9, 42, 64
10, 12095, Note_on_c, 9, 42, 103
10, 12096, Note_on_c, 9, 36, 75
10, 12101, Note_off_c, 9, 42, 64
10, 12102, Note_off_c, 9, 36, 64
10, 12144, Note_on_c, 9, 42, 55
10, 12144, Note_on_c, 9, 36, 74
10, 12150, Note_off_c, 9, 36, 64
10, 12150, Note_off_c, 9, 42, 64
10, 12191, Note_on_c, 9, 42, 109
10, 12191, Note_on_c, 9, 40, 89
10, 12197, Note_off_c, 9, 40, 64
10, 12197, Note_off_c, 9, 42, 64
10, 12239, Note_on_c, 9, 42, 50
10, 12245, Note_off_c, 9, 42, 64
10, 12288, Note_on_c, 9, 42, 93
10, 12288, Note_on_c, 9, 36, 72
10, 12294, Note_off_c, 9, 36, 64
10, 12294, Note_off_c, 9, 42, 64
10, 12335, Note_on_c, 9, 42, 41
10, 12341, Note_off_c, 9, 42, 64
10, 12382, Note_on_c, 9, 42, 115
10, 12384, Note_on_c, 9, 40, 86
10, 12388, Note_off_c, 9, 42, 64
10, 12390, Note_off_c, 9, 40, 64
10, 12431, Note_on_c, 9, 42, 49
10, 12437, Note_off_c, 9, 42, 64
10, 12480, Note_on_c, 9, 42, 106
10, 12480, Note_on_c, 9, 36, 64
10, 12486, Note_off_c, 9, 36, 64
10, 12486, Note_off_c, 9, 42, 64
10, 12528, Note_on_c, 9, 42, 53
10, 12528, Note_on_c, 9, 36, 64
10, 12534, Note_off_c, 9, 36, 64
10, 12534, Note_off_c, 9, 42, 64
10, 12575, Note_on_c, 9, 42, 118
10, 12575, Note_on_c, 9, 40, 83
10, 12581, Note_off_c, 9, 40, 64
10, 12581, Note_off_c, 9, 42, 64
10, 12625, Note_on_c, 9, 42, 48
10, 12631, Note_off_c, 9, 42, 64
10, 12672, Note_on_c, 9, 42, 90
10, 12672, Note_on_c, 9, 36, 82
10, 12678, Note_off_c, 9, 36, 64
10, 12678, Note_off_c, 9, 42, 64
10, 12720, Note_on_c, 9, 42, 47
10, 12726, Note_off_c, 9, 42, 64
10, 12767, Note_on_c, 9, 42, 115
10, 12767, Note_on_c, 9, 40, 87
10, 12773, Note_off_c, 9, 40, 64
10, 12773, Note_off_c, 9, 42, 64
10, 12816, Note_on_c, 9, 42, 46
10, 12822, Note_off_c, 9, 42, 64
10, 12864, Note_on_c, 9, 42, 112
10, 12864, Note_on_c, 9, 36, 82
10, 12870, Note_off_c, 9, 36, 64
10, 12870, Note_off_c, 9, 42, 64
10, 12912, Note_on_c, 9, 42, 46
10, 12912, Note_on_c, 9, 36, 76
10, 12918, Note_off_c, 9, 36, 64
10, 12918, Note_off_c, 9, 42, 64
10, 12959, Note_on_c, 9, 42, 115
10, 12959, Note_on_c, 9, 40, 88
10, 12965, Note_off_c, 9, 40, 64
10, 12965, Note_off_c, 9, 42, 64
10, 13007, Note_on_c, 9, 42, 45
10, 13008, Note_on_c, 9, 36, 81
10, 13013, Note_off_c, 9, 42, 64
10, 13014, Note_off_c, 9, 36, 64
10, 13056, Note_on_c, 9, 42, 90
10, 13056, Note_on_c, 9, 36, 76
10, 13062, Note_off_c, 9, 36, 64
10, 13062, Note_off_c, 9, 42, 64
10, 13103, Note_on_c, 9, 42, 41
10, 13109, Note_off_c, 9, 42, 64
10, 13151, Note_on_c, 9, 42, 109
10, 13151, Note_on_c, 9, 40, 85
10, 13157, Note_off_c, 9, 40, 64
10, 13157, Note_off_c, 9, 42, 64
10, 13200, Note_on_c, 9, 42, 44
10, 13206, Note_off_c, 9, 42, 64
10, 13248, Note_on_c, 9, 42, 112
10, 13248, Note_on_c, 9, 36, 73
10, 13254, Note_off_c, 9, 36, 64
10, 13254, Note_off_c, 9, 42, 64
10, 13296, Note_on_c, 9, 36, 70
10, 13297, Note_on_c, 9, 42, 50
10, 13302, Note_off_c, 9, 36, 64
10, 13303, Note_off_c, 9, 42, 64
10, 13343, Note_on_c, 9, 40, 89
10, 13345, Note_on_c, 9, 42, 112
10, 13349, Note_off_c, 9, 40, 64
10, 13351, Note_off_c, 9, 42, 64
10, 13391, Note_on_c, 9, 42, 52
10, 13397, Note_off_c, 9, 42, 64
10, 13440, Note_on_c, 9, 36, 74
10, 13441, Note_on_c, 9, 42, 89
10, 13446, Note_off_c, 9, 36, 64
10, 13447, Note_off_c, 9, 42, 64
10, 13487, Note_on_c, 9, 42, 43
10, 13493, Note_off_c, 9, 42, 64
10, 13537, Note_on_c, 9, 42, 118
10, 13537, Note_on_c, 9, 40, 89
10, 13543, Note_off_c, 9, 40, 64
10, 13543, Note_off_c, 9, 42, 64
10, 13585, Note_on_c, 9, 42, 39
10, 13591, Note_off_c, 9, 42, 64
10, 13632, Note_on_c, 9, 36, 74
10, 13633, Note_on_c, 9, 42, 109
10, 13638, Note_off_c, 9, 36, 64
10, 13639, Note_off_c, 9, 42, 64
10, 13680, Note_on_c, 9, 42, 42
10, 13681, Note_on_c, 9, 36, 69
10, 13686, Note_off_c, 9, 42, 64
10, 13687, Note_off_c, 9, 36, 64
10, 13727, Note_on_c, 9, 40, 89
10, 13728, Note_on_c, 9, 42, 115
10, 13733, Note_off_c, 9, 40, 64
10, 13734, Note_off_c, 9, 42, 64
10, 13776, Note_on_c, 9, 42, 28
10, 13782, Note_off_c, 9, 42, 64
10, 13824, Note_on_c, 9, 42, 91
10, 13824, Note_on_c, 9, 36, 79
10, 13830, Note_off_c, 9, 36, 64
10, 13830, Note_off_c, 9, 42, 64
10, 13872, Note_on_c, 9, 42, 52
10, 13878, Note_off_c, 9, 42, 64
10, 13920, Note_on_c, 9, 42, 109
10, 13921, Note_on_c, 9, 40, 82
10, 13926, Note_off_c, 9, 42, 64
10, 13927, Note_off_c, 9, 40, 64
10, 13969, Note_on_c, 9, 42, 66
10, 13975, Note_off_c, 9, 42, 64
10, 13992, Note_on_c, 9, 42, 26
10, 13998, Note_off_c, 9, 42, 64
10, 14016, Note_on_c, 9, 36, 83
10, 14017, Note_on_c, 9, 42, 86
10, 14022, Note_off_c, 9, 36, 64
10, 14023, Note_off_c, 9, 42, 64
10, 14064, Note_on_c, 9, 42, 40
10, 14065, Note_on_c, 9, 36, 80
10, 14070, Note_off_c, 9, 42, 64
10, 14071, Note_off_c, 9, 36, 64
10, 14111, Note_on_c, 9, 42, 109
10, 14111, Note_on_c, 9, 40, 89
10, 14117, Note_off_c, 9, 40, 64
10, 14117, Note_off_c, 9, 42, 64
10, 14160, Note_on_c, 9, 42, 44
10, 14166, Note_off_c, 9, 42, 64
10, 14208, Note_on_c, 9, 36, 79
10, 14208, Note_on_c, 9, 42, 91
10, 14214, Note_off_c, 9, 42, 64
10, 14214, Note_off_c, 9, 36, 64
10, 14257, Note_on_c, 9, 42, 60
10, 14263, Note_off_c, 9, 42, 64
10, 14303, Note_on_c, 9, 42, 103
10, 14303, Note_on_c, 9, 40, 84
10, 14309, Note_off_c, 9, 40, 64
10, 14309, Note_off_c, 9, 42, 64
10, 14353, Note_on_c, 9, 42, 88
10, 14359, Note_off_c, 9, 42, 64
10, 14377, Note_on_c, 9, 42, 25
10, 14383, Note_off_c, 9, 42, 64
10, 14400, Note_on_c, 9, 36, 73
10, 14401, Note_on_c, 9, 42, 84
10, 14406, Note_off_c, 9, 36, 64
10, 14407, Note_off_c, 9, 42, 64
10, 14449, Note_on_c, 9, 42, 46
10, 14455, Note_off_c, 9, 42, 64
10, 14495, Note_on_c, 9, 40, 89
10, 14496, Note_on_c, 9, 42, 109
10, 14501, Note_off_c, 9, 40, 64
10, 14502, Note_off_c, 9, 42, 64
10, 14545, Note_on_c, 9, 42, 91
10, 14551, Note_off_c, 9, 42, 64
10, 14592, Note_on_c, 9, 42, 88
10, 14592, Note_on_c, 9, 36, 84
10, 14598, Note_off_c, 9, 36, 64
10, 14598, Note_off_c, 9, 42, 64
10, 14639, Note_on_c, 9, 42, 49
10, 14645, Note_off_c, 9, 42, 64
10, 14687, Note_on_c, 9, 42, 115
10, 14687, Note_on_c, 9, 40, 88
10, 14693, Note_off_c, 9, 40, 64
10, 14693, Note_off_c, 9, 42, 64
10, 14735, Note_on_c, 9, 42, 66
10, 14741, Note_off_c, 9, 42, 64
10, 14783, Note_on_c, 9, 46, 83
10, 14783, Note_on_c, 9, 40, 92
10, 14789, Note_off_c, 9, 40, 64
10, 14789, Note_off_c, 9, 46, 64
10, 14854, Note_on_c, 9, 40, 51
10, 14860, Note_off_c, 9, 40, 64
10, 14878, Note_on_c, 9, 40, 100
10, 14884, Note_off_c, 9, 40, 64
10, 14976, Note_on_c, 9, 42, 90
10, 14976, Note_on_c, 9, 36, 81
10, 14982, Note_off_c, 9, 36, 64
10, 14982, Note_off_c, 9, 42, 64
10, 15023, Note_on_c, 9, 42, 44
10, 15029, Note_off_c, 9, 42, 64
10, 15072, Note_on_c, 9, 42, 103
10, 15072, Note_on_c, 9, 40, 82
10, 15078, Note_off_c, 9, 40, 64
10, 15078, Note_off_c, 9, 42, 64
10, 15121, Note_on_c, 9, 42, 44
10, 15127, Note_off_c, 9, 42, 64
10, 15168, Note_on_c, 9, 42, 98
10, 15168, Note_on_c, 9, 36, 77
10, 15174, Note_off_c, 9, 36, 64
10, 15174, Note_off_c, 9, 42, 64
10, 15216, Note_on_c, 9, 42, 43
10, 15216, Note_on_c, 9, 36, 83
10, 15222, Note_off_c, 9, 36, 64
10, 15222, Note_off_c, 9, 42, 64
10, 15263, Note_on_c, 9, 42, 98
10, 15265, Note_on_c, 9, 40, 80
10, 15269, Note_off_c, 9, 42, 64
10, 15271, Note_off_c, 9, 40, 64
10, 15288, Note_on_c, 9, 42, 54
10, 15294, Note_off_c, 9, 42, 64
10, 15313, Note_on_c, 9, 42, 36
10, 15319, Note_off_c, 9, 42, 64
10, 15360, Note_on_c, 9, 42, 81
10, 15360, Note_on_c, 9, 36, 79
10, 15366, Note_off_c, 9, 36, 64
10, 15366, Note_off_c, 9, 42, 64
10, 15408, Note_on_c, 9, 42, 44
10, 15414, Note_off_c, 9, 42, 64
10, 15456, Note_on_c, 9, 42, 94
10, 15457, Note_on_c, 9, 40, 84
10, 15462, Note_off_c, 9, 42, 64
10, 15463, Note_off_c, 9, 40, 64
10, 15505, Note_on_c, 9, 42, 50
10, 15511, Note_off_c, 9, 42, 64
10, 15552, Note_on_c, 9, 36, 67
10, 15553, Note_on_c, 9, 42, 98
10, 15558, Note_off_c, 9, 36, 64
10, 15559, Note_off_c, 9, 42, 64
10, 15600, Note_on_c, 9, 42, 44
10, 15601, Note_on_c, 9, 36, 71
10, 15606, Note_off_c, 9, 42, 64
10, 15607, Note_off_c, 9, 36, 64
10, 15647, Note_on_c, 9, 42, 98
10, 15647, Note_on_c, 9, 40, 82
10, 15653, Note_off_c, 9, 40, 64
10, 15653, Note_off_c, 9, 42, 64
10, 15696, Note_on_c, 9, 36, 70
10, 15697, Note_on_c, 9, 42, 43
10, 15702, Note_off_c, 9, 36, 64
10, 15703, Note_off_c, 9, 42, 64
10, 15744, Note_on_c, 9, 42, 92
10, 15744, Note_on_c, 9, 36, 75
10, 15750, Note_off_c, 9, 36, 64
10, 15750, Note_off_c, 9, 42, 64
10, 15792, Note_on_c, 9, 42, 51
10, 15798, Note_off_c, 9, 42, 64
10, 15839, Note_on_c, 9, 42, 98
10, 15841, Note_on_c, 9, 40, 79
10, 15845, Note_off_c, 9, 42, 64
10, 15847, Note_off_c, 9, 40, 64
10, 15887, Note_on_c, 9, 42, 47
10, 15893, Note_off_c, 9, 42, 64
10, 15936, Note_on_c, 9, 42, 109
10, 15936, Note_on_c, 9, 36, 73
10, 15942, Note_off_c, 9, 36, 64
10, 15942, Note_off_c, 9, 42, 64
10, 15984, Note_on_c, 9, 42, 47
10, 15984, Note_on_c, 9, 36, 75
10, 15990, Note_off_c, 9, 36, 64
10, 15990, Note_off_c, 9, 42, 64
10, 16031, Note_on_c, 9, 42, 109
10, 16031, Note_on_c, 9, 40, 77
10, 16037, Note_off_c, 9, 40, 64
10, 16037, Note_off_c, 9, 42, 64
10, 16079, Note_on_c, 9, 42, 49
10, 16085, Note_off_c, 9, 42, 64
10, 16128, Note_on_c, 9, 42, 90
10, 16128, Note_on_c, 9, 36, 82
10, 16134, Note_off_c, 9, 36, 64
10, 16134, Note_off_c, 9, 42, 64
10, 16175, Note_on_c, 9, 42, 57
10, 16181, Note_off_c, 9, 42, 64
10, 16223, Note_on_c, 9, 42, 96
10, 16225, Note_on_c, 9, 40, 82
10, 16229, Note_off_c, 9, 42, 64
10, 16231, Note_off_c, 9, 40, 64
10, 16271, Note_on_c, 9, 42, 37
10, 16277, Note_off_c, 9, 42, 64
10, 16320, Note_on_c, 9, 42, 78
10, 16320, Note_on_c, 9, 36, 75
10, 16326, Note_off_c, 9, 36, 64
10, 16326, Note_off_c, 9, 42, 64
10, 16368, Note_on_c, 9, 36, 78
10, 16369, Note_on_c, 9, 42, 43
10, 16374, Note_off_c, 9, 36, 64
10, 16375, Note_off_c, 9, 42, 64
10, 16415, Note_on_c, 9, 42, 100
10, 16415, Note_on_c, 9, 40, 90
10, 16421, Note_off_c, 9, 40, 64
10, 16421, Note_off_c, 9, 42, 64
10, 16463, Note_on_c, 9, 42, 43
10, 16469, Note_off_c, 9, 42, 64
10, 16512, Note_on_c, 9, 42, 93
10, 16512, Note_on_c, 9, 36, 84
10, 16518, Note_off_c, 9, 36, 64
10, 16518, Note_off_c, 9, 42, 64
10, 16559, Note_on_c, 9, 42, 39
10, 16565, Note_off_c, 9, 42, 64
10, 16607, Note_on_c, 9, 42, 98
10, 16607, Note_on_c, 9, 40, 87
10, 16613, Note_off_c, 9, 40, 64
10, 16613, Note_off_c, 9, 42, 64
10, 16655, Note_on_c, 9, 42, 42
10, 16661, Note_off_c, 9, 42, 64
10, 16704, Note_on_c, 9, 36, 77
10, 16704, Note_on_c, 9, 42, 96
10, 16710, Note_off_c, 9, 42, 64
10, 16710, Note_off_c, 9, 36, 64
10, 16751, Note_on_c, 9, 36, 84
10, 16752, Note_on_c, 9, 42, 39
10, 16757, Note_off_c, 9, 36, 64
10, 16758, Note_off_c, 9, 42, 64
10, 16799, Note_on_c, 9, 42, 100
10, 16800, Note_on_c, 9, 40, 90
10, 16805, Note_off_c, 9, 42, 64
10, 16806, Note_off_c, 9, 40, 64
10, 16848, Note_on_c, 9, 42, 47
10, 16848, Note_on_c, 9, 36, 62
10, 16854, Note_off_c, 9, 36, 64
10, 16854, Note_off_c, 9, 42, 64
10, 16896, Note_on_c, 9, 42, 91
10, 16896, Note_on_c, 9, 36, 82
10, 16902, Note_off_c, 9, 36, 64
10, 16902, Note_off_c, 9, 42, 64
10, 16943, Note_on_c, 9, 42, 41
10, 16949, Note_off_c, 9, 42, 64
10, 16991, Note_on_c, 9, 42, 100
10, 16992, Note_on_c, 9, 40, 89
10, 16997, Note_off_c, 9, 42, 64
10, 16998, Note_off_c, 9, 40, 64
10, 17041, Note_on_c, 9, 42, 48
10, 17047, Note_off_c, 9, 42, 64
10, 17088, Note_on_c, 9, 42, 100
10, 17088, Note_on_c, 9, 36, 82
10, 17094, Note_off_c, 9, 36, 64
10, 17094, Note_off_c, 9, 42, 64
10, 17135, Note_on_c, 9, 42, 46
10, 17135, Note_on_c, 9, 36, 81
10, 17141, Note_off_c, 9, 36, 64
10, 17141, Note_off_c, 9, 42, 64
10, 17183, Note_on_c, 9, 42, 98
10, 17183, Note_on_c, 9, 40, 83
10, 17189, Note_off_c, 9, 40, 64
10, 17189, Note_off_c, 9, 42, 64
10, 17231, Note_on_c, 9, 42, 44
10, 17237, Note_off_c, 9, 42, 64
10, 17280, Note_on_c, 9, 42, 90
10, 17280, Note_on_c, 9, 36, 79
10, 17286, Note_off_c, 9, 36, 64
10, 17286, Note_off_c, 9, 42, 64
10, 17327, Note_on_c, 9, 42, 50
10, 17333, Note_off_c, 9, 42, 64
10, 17376, Note_on_c, 9, 42, 103
10, 17377, Note_on_c, 9, 40, 86
10, 17382, Note_off_c, 9, 42, 64
10, 17383, Note_off_c, 9, 40, 64
10, 17423, Note_on_c, 9, 42, 38
10, 17429, Note_off_c, 9, 42, 64
10, 17471, Note_on_c, 9, 42, 106
10, 17471, Note_on_c, 9, 36, 84
10, 17477, Note_off_c, 9, 36, 64
10, 17477, Note_off_c, 9, 42, 64
10, 17519, Note_on_c, 9, 42, 48
10, 17519, Note_on_c, 9, 36, 79
10, 17525, Note_off_c, 9, 36, 64
10, 17525, Note_off_c, 9, 42, 64
10, 17567, Note_on_c, 9, 42, 112
10, 17567, Note_on_c, 9, 40, 86
10, 17573, Note_off_c, 9, 40, 64
10, 17573, Note_off_c, 9, 42, 64
10, 17616, Note_on_c, 9, 42, 54
10, 17616, Note_on_c, 9, 36, 65
10, 17622, Note_off_c, 9, 36, 64
10, 17622, Note_off_c, 9, 42, 64
10, 17663, Note_on_c, 9, 46, 53
10, 17664, Note_on_c, 9, 36, 84
10, 17669, Note_off_c, 9, 46, 64
10, 17670, Note_off_c, 9, 36, 64
10, 17711, Note_on_c, 9, 46, 64
10, 17712, Note_on_c, 9, 36, 84
10, 17717, Note_off_c, 9, 46, 64
10, 17718, Note_off_c, 9, 36, 64
10, 17759, Note_on_c, 9, 46, 80
10, 17760, Note_on_c, 9, 40, 103
10, 17765, Note_off_c, 9, 46, 64
10, 17766, Note_off_c, 9, 40, 64
10, 17807, Note_on_c, 9, 46, 96
10, 17809, Note_on_c, 9, 36, 96
10, 17813, Note_off_c, 9, 46, 64
10, 17815, Note_off_c, 9, 36, 64
10, 17856, Note_on_c, 9, 46, 110
10, 17856, Note_on_c, 9, 40, 125
10, 17862, Note_off_c, 9, 40, 64
10, 17862, Note_off_c, 9, 46, 64
10, 17904, Note_on_c, 9, 46, 120
10, 17910, Note_off_c, 9, 46, 64
10, 17927, Note_on_c, 9, 40, 76
10, 17933, Note_off_c, 9, 40, 64
10, 17952, Note_on_c, 9, 40, 126
10, 17958, Note_off_c, 9, 40, 64
10, 17976, Note_on_c, 9, 45, 126
10, 17982, Note_off_c, 9, 45, 64
10, 18000, Note_on_c, 9, 43, 126
10, 18006, Note_off_c, 9, 43, 64
10, 18048, Note_on_c, 9, 49, 88
10, 18048, Note_on_c, 9, 36, 115
10, 18054, Note_off_c, 9, 36, 64
10, 18054, Note_off_c, 9, 49, 64
10, 18096, Note_on_c, 9, 51, 52
10, 18102, Note_off_c, 9, 51, 64
10, 18144, Note_on_c, 9, 51, 109
10, 18145, Note_on_c, 9, 40, 101
10, 18145, Note_on_c, 9, 54, 123
10, 18150, Note_off_c, 9, 51, 64
10, 18151, Note_off_c, 9, 40, 64
10, 18151, Note_off_c, 9, 54, 64
10, 18193, Note_on_c, 9, 51, 57
10, 18199, Note_off_c, 9, 51, 64
10, 18216, Note_on_c, 9, 36, 75
10, 18222, Note_off_c, 9, 36, 64
10, 18239, Note_on_c, 9, 51, 78
10, 18239, Note_on_c, 9, 36, 111
10, 18245, Note_off_c, 9, 36, 64
10, 18245, Note_off_c, 9, 51, 64
10, 18288, Note_on_c, 9, 36, 103
10, 18289, Note_on_c, 9, 51, 63
10, 18294, Note_off_c, 9, 36, 64
10, 18295, Note_off_c, 9, 51, 64
10, 18335, Note_on_c, 9, 54, 124
10, 18336, Note_on_c, 9, 51, 109
10, 18336, Note_on_c, 9, 40, 104
10, 18341, Note_off_c, 9, 54, 64
10, 18342, Note_off_c, 9, 40, 64
10, 18342, Note_off_c, 9, 51, 64
10, 18384, Note_on_c, 9, 36, 67
10, 18385, Note_on_c, 9, 51, 58
10, 18390, Note_off_c, 9, 36, 64
10, 18391, Note_off_c, 9, 51, 64
10, 18431, Note_on_c, 9, 51, 81
10, 18432, Note_on_c, 9, 36, 107
10, 18437, Note_off_c, 9, 51, 64
10, 18438, Note_off_c, 9, 36, 64
10, 18479, Note_on_c, 9, 36, 107
10, 18481, Note_on_c, 9, 51, 55
10, 18485, Note_off_c, 9, 36, 64
10, 18487, Note_off_c, 9, 51, 64
10, 18527, Note_on_c, 9, 51, 88
10, 18527, Note_on_c, 9, 54, 123
10, 18528, Note_on_c, 9, 40, 115
10, 18533, Note_off_c, 9, 51, 64
10, 18533, Note_off_c, 9, 54, 64
10, 18534, Note_off_c, 9, 40, 64
10, 18576, Note_on_c, 9, 51, 53
10, 18582, Note_off_c, 9, 51, 64
10, 18624, Note_on_c, 9, 36, 99
10, 18624, Note_on_c, 9, 51, 92
10, 18630, Note_off_c, 9, 51, 64
10, 18630, Note_off_c, 9, 36, 64
10, 18671, Note_on_c, 9, 36, 107
10, 18672, Note_on_c, 9, 51, 55
10, 18677, Note_off_c, 9, 36, 64
10, 18678, Note_off_c, 9, 51, 64
10, 18720, Note_on_c, 9, 40, 111
10, 18721, Note_on_c, 9, 51, 96
10, 18721, Note_on_c, 9, 54, 124
10, 18726, Note_off_c, 9, 40, 64
10, 18727, Note_off_c, 9, 51, 64
10, 18727, Note_off_c, 9, 54, 64
10, 18767, Note_on_c, 9, 46, 80
10, 18773, Note_off_c, 9, 46, 64
10, 18815, Note_on_c, 9, 51, 88
10, 18816, Note_on_c, 9, 36, 100
10, 18816, Note_on_c, 9, 44, 55
10, 18821, Note_off_c, 9, 51, 64
10, 18822, Note_off_c, 9, 44, 64
10, 18822, Note_off_c, 9, 36, 64
10, 18864, Note_on_c, 9, 36, 94
10, 18864, Note_on_c, 9, 51, 42
10, 18870, Note_off_c, 9, 51, 64
10, 18870, Note_off_c, 9, 36, 64
10, 18911, Note_on_c, 9, 40, 104
10, 18912, Note_on_c, 9, 51, 100
10, 18913, Note_on_c, 9, 54, 120
10, 18917, Note_off_c, 9, 40, 64
10, 18918, Note_off_c, 9, 51, 64
10, 18919, Note_off_c, 9, 54, 64
10, 18960, Note_on_c, 9, 51, 52
10, 18966, Note_off_c, 9, 51, 64
10, 18984, Note_on_c, 9, 36, 76
10, 18990, Note_off_c, 9, 36, 64
10, 19007, Note_on_c, 9, 51, 88
10, 19007, Note_on_c, 9, 36, 115
10, 19013, Note_off_c, 9, 36, 64
10, 19013, Note_off_c, 9, 51, 64
10, 19056, Note_on_c, 9, 36, 104
10, 19056, Note_on_c, 9, 51, 57
10, 19062, Note_off_c, 9, 51, 64
10, 19062, Note_off_c, 9, 36, 64
10, 19103, Note_on_c, 9, 40, 113
10, 19103, Note_on_c, 9, 54, 124
10, 19104, Note_on_c, 9, 51, 100
10, 19109, Note_off_c, 9, 40, 64
10, 19109, Note_off_c, 9, 54, 64
10, 19110, Note_off_c, 9, 51, 64
10, 19152, Note_on_c, 9, 51, 49
10, 19152, Note_on_c, 9, 36, 65
10, 19158, Note_off_c, 9, 36, 64
10, 19158, Note_off_c, 9, 51, 64
10, 19199, Note_on_c, 9, 51, 100
10, 19200, Note_on_c, 9, 36, 111
10, 19205, Note_off_c, 9, 51, 64
10, 19206, Note_off_c, 9, 36, 64
10, 19244, Note_on_c, 9, 48, 90
10, 19247, Note_off_c, 9, 48, 64
10, 19248, Note_on_c, 9, 48, 119
10, 19254, Note_off_c, 9, 48, 64
10, 19319, Note_on_c, 9, 45, 65
10, 19325, Note_off_c, 9, 45, 64
10, 19344, Note_on_c, 9, 45, 86
10, 19350, Note_off_c, 9, 45, 64
10, 19367, Note_on_c, 9, 41, 105
10, 19373, Note_off_c, 9, 41, 64
10, 19392, Note_on_c, 9, 41, 126
10, 19398, Note_off_c, 9, 41, 64
10, 19584, Note_on_c, 9, 36, 85
10, 19590, Note_off_c, 9, 36, 64
10, 19681, Note_on_c, 9, 42, 91
10, 19687, Note_off_c, 9, 42, 64
10, 19727, Note_on_c, 9, 36, 76
10, 19733, Note_off_c, 9, 36, 64
10, 19775, Note_on_c, 9, 36, 88
10, 19781, Note_off_c, 9, 36, 64
10, 19871, Note_on_c, 9, 42, 96
10, 19877, Note_off_c, 9, 42, 64
10, 19968, Note_on_c, 9, 36, 96
10, 19974, Note_off_c, 9, 36, 64
10, 20065, Note_on_c, 9, 42, 96
10, 20071, Note_off_c, 9, 42, 64
10, 20111, Note_on_c, 9, 36, 80
10, 20117, Note_off_c, 9, 36, 64
10, 20160, Note_on_c, 9, 36, 90
10, 20166, Note_off_c, 9, 36, 64
10, 20256, Note_on_c, 9, 42, 92
10, 20262, Note_off_c, 9, 42, 64
10, 20353, Note_on_c, 9, 36, 88
10, 20359, Note_off_c, 9, 36, 64
10, 20449, Note_on_c, 9, 42, 96
10, 20455, Note_off_c, 9, 42, 64
10, 20495, Note_on_c, 9, 36, 76
10, 20501, Note_off_c, 9, 36, 64
10, 20544, Note_on_c, 9, 36, 91
10, 20550, Note_off_c, 9, 36, 64
10, 20615, Note_on_c, 9, 40, 104
10, 20621, Note_off_c, 9, 40, 64
10, 20640, Note_on_c, 9, 40, 123
10, 20646, Note_off_c, 9, 40, 64
10, 20688, Note_on_c, 9, 36, 76
10, 20694, Note_off_c, 9, 36, 64
10, 20736, Note_on_c, 9, 49, 103
10, 20736, Note_on_c, 9, 40, 111
10, 20736, Note_on_c, 9, 54, 124
10, 20742, Note_off_c, 9, 40, 64
10, 20742, Note_off_c, 9, 49, 64
10, 20742, Note_off_c, 9, 54, 64
10, 20759, Note_on_c, 9, 54, 70
10, 20765, Note_off_c, 9, 54, 64
10, 20783, Note_on_c, 9, 54, 61
10, 20784, Note_on_c, 9, 36, 76
10, 20789, Note_off_c, 9, 54, 64
10, 20790, Note_off_c, 9, 36, 64
10, 20832, Note_on_c, 9, 49, 90
10, 20832, Note_on_c, 9, 40, 111
10, 20833, Note_on_c, 9, 54, 124
10, 20838, Note_off_c, 9, 40, 64
10, 20838, Note_off_c, 9, 49, 64
10, 20839, Note_off_c, 9, 54, 64
10, 20857, Note_on_c, 9, 54, 69
10, 20863, Note_off_c, 9, 54, 64
10, 20879, Note_on_c, 9, 54, 77
10, 20880, Note_on_c, 9, 36, 76
10, 20885, Note_off_c, 9, 54, 64
10, 20886, Note_off_c, 9, 36, 64
10, 20928, Note_on_c, 9, 49, 92
10, 20928, Note_on_c, 9, 40, 121
10, 20928, Note_on_c, 9, 54, 124
10, 20934, Note_off_c, 9, 40, 64
10, 20934, Note_off_c, 9, 49, 64
10, 20934, Note_off_c, 9, 54, 64
10, 20975, Note_on_c, 9, 47, 89
10, 20976, Note_on_c, 9, 54, 72
10, 20981, Note_off_c, 9, 47, 64
10, 20982, Note_off_c, 9, 54, 64
10, 20999, Note_on_c, 9, 47, 104
10, 21005, Note_off_c, 9, 47, 64
10, 21024, Note_on_c, 9, 47, 114
10, 21025, Note_on_c, 9, 54, 124
10, 21030, Note_off_c, 9, 47, 64
10, 21031, Note_off_c, 9, 54, 64
10, 21048, Note_on_c, 9, 45, 121
10, 21049, Note_on_c, 9, 54, 73
10, 21054, Note_off_c, 9, 45, 64
10, 21055, Note_off_c, 9, 54, 64
10, 21072, Note_on_c, 9, 43, 125
10, 21078, Note_off_c, 9, 43, 64
10, 21096, Note_on_c, 9, 41, 126
10, 21097, Note_on_c, 9, 54, 123
10, 21102, Note_off_c, 9, 41, 64
10, 21103, Note_off_c, 9, 54, 64
10, 21120, Note_on_c, 9, 36, 115
10, 21120, Note_on_c, 9, 49, 99
10, 21126, Note_off_c, 9, 49, 64
10, 21126, Note_off_c, 9, 36, 64
10, 21168, Note_on_c, 9, 51, 52
10, 21174, Note_off_c, 9, 51, 64
10, 21216, Note_on_c, 9, 51, 109
10, 21217, Note_on_c, 9, 40, 101
10, 21217, Note_on_c, 9, 54, 123
10, 21222, Note_off_c, 9, 51, 64
10, 21223, Note_off_c, 9, 40, 64
10, 21223, Note_off_c, 9, 54, 64
10, 21265, Note_on_c, 9, 51, 57
10, 21271, Note_off_c, 9, 51, 64
10, 21311, Note_on_c, 9, 51, 78
10, 21311, Note_on_c, 9, 36, 111
10, 21317, Note_off_c, 9, 36, 64
10, 21317, Note_off_c, 9, 51, 64
10, 21360, Note_on_c, 9, 36, 103
10, 21361, Note_on_c, 9, 51, 63
10, 21366, Note_off_c, 9, 36, 64
10, 21367, Note_off_c, 9, 51, 64
10, 21407, Note_on_c, 9, 54, 124
10, 21408, Note_on_c, 9, 51, 109
10, 21408, Note_on_c, 9, 40, 104
10, 21413, Note_off_c, 9, 54, 64
10, 21414, Note_off_c, 9, 40, 64
10, 21414, Note_off_c, 9, 51, 64
10, 21457, Note_on_c, 9, 51, 58
10, 21463, Note_off_c, 9, 51, 64
10, 21503, Note_on_c, 9, 51, 81
10, 21503, Note_on_c, 9, 36, 107
10, 21509, Note_off_c, 9, 36, 64
10, 21509, Note_off_c, 9, 51, 64
10, 21551, Note_on_c, 9, 36, 107
10, 21553, Note_on_c, 9, 51, 55
10, 21557, Note_off_c, 9, 36, 64
10, 21559, Note_off_c, 9, 51, 64
10, 21599, Note_on_c, 9, 51, 88
10, 21599, Note_on_c, 9, 54, 123
10, 21600, Note_on_c, 9, 40, 115
10, 21605, Note_off_c, 9, 51, 64
10, 21605, Note_off_c, 9, 54, 64
10, 21606, Note_off_c, 9, 40, 64
10, 21648, Note_on_c, 9, 51, 53
10, 21654, Note_off_c, 9, 51, 64
10, 21695, Note_on_c, 9, 36, 99
10, 21696, Note_on_c, 9, 51, 92
10, 21701, Note_off_c, 9, 36, 64
10, 21702, Note_off_c, 9, 51, 64
10, 21743, Note_on_c, 9, 36, 107
10, 21744, Note_on_c, 9, 51, 55
10, 21749, Note_off_c, 9, 36, 64
10, 21750, Note_off_c, 9, 51, 64
10, 21792, Note_on_c, 9, 40, 111
10, 21793, Note_on_c, 9, 51, 96
10, 21793, Note_on_c, 9, 54, 124
10, 21798, Note_off_c, 9, 40, 64
10, 21799, Note_off_c, 9, 51, 64
10, 21799, Note_off_c, 9, 54, 64
10, 21839, Note_on_c, 9, 46, 84
10, 21845, Note_off_c, 9, 46, 64
10, 21887, Note_on_c, 9, 51, 88
10, 21888, Note_on_c, 9, 36, 100
10, 21888, Note_on_c, 9, 44, 55
10, 21893, Note_off_c, 9, 51, 64
10, 21894, Note_off_c, 9, 44, 64
10, 21894, Note_off_c, 9, 36, 64
10, 21936, Note_on_c, 9, 36, 94
10, 21936, Note_on_c, 9, 51, 42
10, 21942, Note_off_c, 9, 51, 64
10, 21942, Note_off_c, 9, 36, 64
10, 21983, Note_on_c, 9, 40, 104
10, 21984, Note_on_c, 9, 51, 100
10, 21985, Note_on_c, 9, 54, 120
10, 21989, Note_off_c, 9, 40, 64
10, 21990, Note_off_c, 9, 51, 64
10, 21991, Note_off_c, 9, 54, 64
10, 22032, Note_on_c, 9, 51, 52
10, 22038, Note_off_c, 9, 51, 64
10, 22079, Note_on_c, 9, 51, 88
10, 22079, Note_on_c, 9, 36, 115
10, 22085, Note_off_c, 9, 36, 64
10, 22085, Note_off_c, 9, 51, 64
10, 22127, Note_on_c, 9, 36, 104
10, 22128, Note_on_c, 9, 51, 57
10, 22133, Note_off_c, 9, 36, 64
10, 22134, Note_off_c, 9, 51, 64
10, 22175, Note_on_c, 9, 40, 113
10, 22175, Note_on_c, 9, 54, 124
10, 22176, Note_on_c, 9, 51, 100
10, 22181, Note_off_c, 9, 40, 64
10, 22181, Note_off_c, 9, 54, 64
10, 22182, Note_off_c, 9, 51, 64
10, 22224, Note_on_c, 9, 51, 49
10, 22230, Note_off_c, 9, 51, 64
10, 22272, Note_on_c, 9, 51, 100
10, 22272, Note_on_c, 9, 36, 111
10, 22278, Note_off_c, 9, 36, 64
10, 22278, Note_off_c, 9, 51, 64
10, 22316, Note_on_c, 9, 48, 90
10, 22319, Note_off_c, 9, 48, 64
10, 22320, Note_on_c, 9, 48, 119
10, 22326, Note_off_c, 9, 48, 64
10, 22439, Note_on_c, 9, 41, 67
10, 22445, Note_off_c, 9, 41, 64
10, 22464, Note_on_c, 9, 41, 126
10, 22470, Note_off_c, 9, 41, 64
10, 22656, Note_on_c, 9, 36, 103
10, 22662, Note_off_c, 9, 36, 64
10, 22753, Note_on_c, 9, 42, 91
10, 22759, Note_off_c, 9, 42, 64
10, 22799, Note_on_c, 9, 36, 76
10, 22805, Note_off_c, 9, 36, 64
10, 22847, Note_on_c, 9, 36, 101
10, 22853, Note_off_c, 9, 36, 64
10, 22944, Note_on_c, 9, 42, 98
10, 22950, Note_off_c, 9, 42, 64
10, 23040, Note_on_c, 9, 36, 96
10, 23046, Note_off_c, 9, 36, 64
10, 23137, Note_on_c, 9, 42, 96
10, 23143, Note_off_c, 9, 42, 64
10, 23183, Note_on_c, 9, 36, 80
10, 23189, Note_off_c, 9, 36, 64
10, 23232, Note_on_c, 9, 36, 103
10, 23238, Note_off_c, 9, 36, 64
10, 23328, Note_on_c, 9, 42, 92
10, 23334, Note_off_c, 9, 42, 64
10, 23424, Note_on_c, 9, 36, 88
10, 23430, Note_off_c, 9, 36, 64
10, 23521, Note_on_c, 9, 42, 96
10, 23527, Note_off_c, 9, 42, 64
10, 23567, Note_on_c, 9, 36, 76
10, 23573, Note_off_c, 9, 36, 64
10, 23616, Note_on_c, 9, 36, 107
10, 23622, Note_off_c, 9, 36, 64
10, 23706, Note_on_c, 9, 40, 76
10, 23711, Note_off_c, 9, 40, 64
10, 23712, Note_on_c, 9, 46, 86
10, 23712, Note_on_c, 9, 40, 123
10, 23718, Note_off_c, 9, 40, 64
10, 23718, Note_off_c, 9, 46, 64
10, 23760, Note_on_c, 9, 36, 76
10, 23766, Note_off_c, 9, 36, 64
10, 23808, Note_on_c, 9, 49, 103
10, 23808, Note_on_c, 9, 36, 109
10, 23808, Note_on_c, 9, 54, 124
10, 23814, Note_off_c, 9, 36, 64
10, 23814, Note_off_c, 9, 49, 64
10, 23814, Note_off_c, 9, 54, 64
10, 23831, Note_on_c, 9, 54, 70
10, 23837, Note_off_c, 9, 54, 64
10, 23855, Note_on_c, 9, 54, 61
10, 23861, Note_off_c, 9, 54, 64
10, 23904, Note_on_c, 9, 49, 95
10, 23904, Note_on_c, 9, 36, 109
10, 23905, Note_on_c, 9, 54, 124
10, 23910, Note_off_c, 9, 36, 64
10, 23910, Note_off_c, 9, 49, 64
10, 23911, Note_off_c, 9, 54, 64
10, 23929, Note_on_c, 9, 54, 69
10, 23935, Note_off_c, 9, 54, 64
10, 23951, Note_on_c, 9, 54, 77
10, 23953, Note_on_c, 9, 47, 107
10, 23957, Note_off_c, 9, 54, 64
10, 23959, Note_off_c, 9, 47, 64
10, 23977, Note_on_c, 9, 47, 111
10, 23983, Note_off_c, 9, 47, 64
10, 24000, Note_on_c, 9, 54, 124
10, 24001, Note_on_c, 9, 47, 126
10, 24006, Note_off_c, 9, 54, 64
10, 24007, Note_off_c, 9, 47, 64
10, 24025, Note_on_c, 9, 45, 117
10, 24031, Note_off_c, 9, 45, 64
10, 24048, Note_on_c, 9, 54, 72
10, 24049, Note_on_c, 9, 45, 117
10, 24054, Note_off_c, 9, 54, 64
10, 24055, Note_off_c, 9, 45, 64
10, 24073, Note_on_c, 9, 45, 119
10, 24079, Note_off_c, 9, 45, 64
10, 24097, Note_on_c, 9, 45, 126
10, 24097, Note_on_c, 9, 54, 124
10, 24103, Note_off_c, 9, 45, 64
10, 24103, Note_off_c, 9, 54, 64
10, 24121, Note_on_c, 9, 43, 124
10, 24121, Note_on_c, 9, 54, 73
10, 24127, Note_off_c, 9, 43, 64
10, 24127, Note_off_c, 9, 54, 64
10, 24145, Note_on_c, 9, 43, 118
10, 24151, Note_off_c, 9, 43, 64
10, 24169, Note_on_c, 9, 41, 126
10, 24169, Note_on_c, 9, 54, 123
10, 24175, Note_off_c, 9, 41, 64
10, 24175, Note_off_c, 9, 54, 64
10, 24192, Note_on_c, 9, 36, 115
10, 24192, Note_on_c, 9, 49, 99
10, 24198, Note_off_c, 9, 49, 64
10, 24198, Note_off_c, 9, 36, 64
10, 24240, Note_on_c, 9, 51, 52
10, 24246, Note_off_c, 9, 51, 64
10, 24288, Note_on_c, 9, 51, 109
10, 24289, Note_on_c, 9, 40, 101
10, 24289, Note_on_c, 9, 54, 123
10, 24294, Note_off_c, 9, 51, 64
10, 24295, Note_off_c, 9, 40, 64
10, 24295, Note_off_c, 9, 54, 64
10, 24337, Note_on_c, 9, 51, 57
10, 24343, Note_off_c, 9, 51, 64
10, 24383, Note_on_c, 9, 51, 78
10, 24383, Note_on_c, 9, 36, 111
10, 24389, Note_off_c, 9, 36, 64
10, 24389, Note_off_c, 9, 51, 64
10, 24432, Note_on_c, 9, 36, 103
10, 24433, Note_on_c, 9, 51, 63
10, 24438, Note_off_c, 9, 36, 64
10, 24439, Note_off_c, 9, 51, 64
10, 24479, Note_on_c, 9, 54, 124
10, 24480, Note_on_c, 9, 51, 109
10, 24480, Note_on_c, 9, 40, 104
10, 24485, Note_off_c, 9, 54, 64
10, 24486, Note_off_c, 9, 40, 64
10, 24486, Note_off_c, 9, 51, 64
10, 24529, Note_on_c, 9, 51, 58
10, 24535, Note_off_c, 9, 51, 64
10, 24575, Note_on_c, 9, 36, 107
10, 24575, Note_on_c, 9, 51, 81
10, 24581, Note_off_c, 9, 51, 64
10, 24581, Note_off_c, 9, 36, 64
10, 24623, Note_on_c, 9, 36, 107
10, 24625, Note_on_c, 9, 51, 55
10, 24629, Note_off_c, 9, 36, 64
10, 24631, Note_off_c, 9, 51, 64
10, 24671, Note_on_c, 9, 51, 88
10, 24671, Note_on_c, 9, 54, 123
10, 24672, Note_on_c, 9, 40, 115
10, 24677, Note_off_c, 9, 51, 64
10, 24677, Note_off_c, 9, 54, 64
10, 24678, Note_off_c, 9, 40, 64
10, 24720, Note_on_c, 9, 51, 53
10, 24726, Note_off_c, 9, 51, 64
10, 24768, Note_on_c, 9, 36, 99
10, 24768, Note_on_c, 9, 51, 92
10, 24774, Note_off_c, 9, 51, 64
10, 24774, Note_off_c, 9, 36, 64
10, 24816, Note_on_c, 9, 36, 107
10, 24816, Note_on_c, 9, 51, 55
10, 24822, Note_off_c, 9, 51, 64
10, 24822, Note_off_c, 9, 36, 64
10, 24864, Note_on_c, 9, 40, 111
10, 24865, Note_on_c, 9, 51, 96
10, 24865, Note_on_c, 9, 54, 124
10, 24870, Note_off_c, 9, 40, 64
10, 24871, Note_off_c, 9, 51, 64
10, 24871, Note_off_c, 9, 54, 64
10, 24911, Note_on_c, 9, 46, 73
10, 24917, Note_off_c, 9, 46, 64
10, 24960, Note_on_c, 9, 51, 88
10, 24960, Note_on_c, 9, 44, 55
10, 24960, Note_on_c, 9, 36, 100
10, 24966, Note_off_c, 9, 36, 64
10, 24966, Note_off_c, 9, 44, 64
10, 24966, Note_off_c, 9, 51, 64
10, 25008, Note_on_c, 9, 51, 42
10, 25009, Note_on_c, 9, 36, 94
10, 25014, Note_off_c, 9, 51, 64
10, 25015, Note_off_c, 9, 36, 64
10, 25055, Note_on_c, 9, 40, 104
10, 25056, Note_on_c, 9, 51, 100
10, 25057, Note_on_c, 9, 54, 120
10, 25061, Note_off_c, 9, 40, 64
10, 25062, Note_off_c, 9, 51, 64
10, 25063, Note_off_c, 9, 54, 64
10, 25104, Note_on_c, 9, 51, 52
10, 25110, Note_off_c, 9, 51, 64
10, 25151, Note_on_c, 9, 51, 88
10, 25151, Note_on_c, 9, 36, 115
10, 25157, Note_off_c, 9, 36, 64
10, 25157, Note_off_c, 9, 51, 64
10, 25199, Note_on_c, 9, 36, 104
10, 25200, Note_on_c, 9, 51, 57
10, 25205, Note_off_c, 9, 36, 64
10, 25206, Note_off_c, 9, 51, 64
10, 25247, Note_on_c, 9, 40, 113
10, 25247, Note_on_c, 9, 54, 124
10, 25248, Note_on_c, 9, 51, 100
10, 25253, Note_off_c, 9, 40, 64
10, 25253, Note_off_c, 9, 54, 64
10, 25254, Note_off_c, 9, 51, 64
10, 25296, Note_on_c, 9, 51, 49
10, 25302, Note_off_c, 9, 51, 64
10, 25343, Note_on_c, 9, 51, 100
10, 25344, Note_on_c, 9, 36, 111
10, 25349, Note_off_c, 9, 51, 64
10, 25350, Note_off_c, 9, 36, 64
10, 25388, Note_on_c, 9, 48, 90
10, 25391, Note_off_c, 9, 48, 64
10, 25392, Note_on_c, 9, 48, 119
10, 25398, Note_off_c, 9, 48, 64
10, 25463, Note_on_c, 9, 45, 65
10, 25469, Note_off_c, 9, 45, 64
10, 25488, Note_on_c, 9, 45, 86
10, 25494, Note_off_c, 9, 45, 64
10, 25511, Note_on_c, 9, 41, 105
10, 25517, Note_off_c, 9, 41, 64
10, 25536, Note_on_c, 9, 41, 126
10, 25542, Note_off_c, 9, 41, 64
10, 25728, Note_on_c, 9, 36, 85
10, 25734, Note_off_c, 9, 36, 64
10, 25825, Note_on_c, 9, 42, 92
10, 25831, Note_off_c, 9, 42, 64
10, 25871, Note_on_c, 9, 36, 76
10, 25877, Note_off_c, 9, 36, 64
10, 25919, Note_on_c, 9, 36, 97
10, 25925, Note_off_c, 9, 36, 64
10, 26015, Note_on_c, 9, 42, 95
10, 26021, Note_off_c, 9, 42, 64
10, 26112, Note_on_c, 9, 36, 92
10, 26118, Note_off_c, 9, 36, 64
10, 26209, Note_on_c, 9, 42, 96
10, 26215, Note_off_c, 9, 42, 64
10, 26255, Note_on_c, 9, 36, 76
10, 26261, Note_off_c, 9, 36, 64
10, 26304, Note_on_c, 9, 36, 92
10, 26310, Note_off_c, 9, 36, 64
10, 26880, Note_on_c, 9, 49, 87
10, 26880, Note_on_c, 9, 36, 109
10, 26886, Note_off_c, 9, 36, 64
10, 26886, Note_off_c, 9, 49, 64
10, 26886, End_track
0, 0, End_of_file
