0, 0, Header, 1, 7, 960
1, 0, Start_track
1, 0, Control_c, 0, 101, 0
1, 0, Control_c, 0, 100, 0
1, 0, Control_c, 0, 6, 12
1, 0, Control_c, 0, 38, 0
1, 0, Control_c, 1, 101, 0
1, 0, Control_c, 1, 100, 0
1, 0, Control_c, 1, 6, 12
1, 0, Control_c, 1, 38, 0
1, 0, Control_c, 2, 101, 0
1, 0, Control_c, 2, 100, 0
1, 0, Control_c, 2, 6, 12
1, 0, Control_c, 2, 38, 0
1, 0, Control_c, 3, 101, 0
1, 0, Control_c, 3, 100, 0
1, 0, Control_c, 3, 6, 12
1, 0, Control_c, 3, 38, 0
1, 0, Control_c, 4, 101, 0
1, 0, Control_c, 4, 100, 0
1, 0, Control_c, 4, 6, 12
1, 0, Control_c, 4, 38, 0
1, 0, Control_c, 5, 101, 0
1, 0, Control_c, 5, 100, 0
1, 0, Control_c, 5, 6, 12
1, 0, Control_c, 5, 38, 0
1, 0, Control_c, 6, 101, 0
1, 0, Control_c, 6, 100, 0
1, 0, Control_c, 6, 6, 12
1, 0, Control_c, 6, 38, 0
1, 0, Control_c, 7, 101, 0
1, 0, Control_c, 7, 100, 0
1, 0, Control_c, 7, 6, 12
1, 0, Control_c, 7, 38, 0
1, 0, Control_c, 8, 101, 0
1, 0, Control_c, 8, 100, 0
1, 0, Control_c, 8, 6, 12
1, 0, Control_c, 8, 38, 0
1, 0, Control_c, 9, 101, 0
1, 0, Control_c, 9, 100, 0
1, 0, Control_c, 9, 6, 12
1, 0, Control_c, 9, 38, 0
1, 0, Control_c, 10, 101, 0
1, 0, Control_c, 10, 100, 0
1, 0, Control_c, 10, 6, 12
1, 0, Control_c, 10, 38, 0
1, 0, Control_c, 11, 101, 0
1, 0, Control_c, 11, 100, 0
1, 0, Control_c, 11, 6, 12
1, 0, Control_c, 11, 38, 0
1, 0, Control_c, 12, 101, 0
1, 0, Control_c, 12, 100, 0
1, 0, Control_c, 12, 6, 12
1, 0, Control_c, 12, 38, 0
1, 0, Control_c, 13, 101, 0
1, 0, Control_c, 13, 100, 0
1, 0, Control_c, 13, 6, 12
1, 0, Control_c, 13, 38, 0
1, 0, Control_c, 14, 101, 0
1, 0, Control_c, 14, 100, 0
1, 0, Control_c, 14, 6, 12
1, 0, Control_c, 14, 38, 0
1, 0, Control_c, 15, 101, 0
1, 0, Control_c, 15, 100, 0
1, 0, Control_c, 15, 6, 12
1, 0, Control_c, 15, 38, 0
1, 0, Time_signature, 4, 2, 24, 8
1, 0, Tempo, 833333
1, 0, End_track
2, 0, Start_track
2, 0, Pitch_bend_c, 0, 8192
2, 0, Control_c, 0, 7, 119
2, 0, Control_c, 0, 10, 119
2, 0, Control_c, 0, 93, 0
2, 0, Control_c, 0, 91, 0
2, 0, Control_c, 0, 95, 0
2, 0, Control_c, 0, 92, 0
2, 0, Control_c, 0, 11, 127
2, 0, Program_c, 0, 24
2, 0, Control_c, 1, 7, 119
2, 0, Control_c, 1, 10, 119
2, 0, Control_c, 1, 93, 0
2, 0, Control_c, 1, 91, 0
2, 0, Control_c, 1, 95, 0
2, 0, Control_c, 1, 92, 0
2, 0, Control_c, 1, 11, 127
2, 0, Program_c, 1, 24
2, 0, Note_on_c, 1, 76, 47
2, 160, Pitch_bend_c, 1, 8192
2, 320, Pitch_bend_c, 1, 8320
2, 480, Pitch_bend_c, 1, 8192
2, 640, Pitch_bend_c, 1, 8320
2, 800, Pitch_bend_c, 1, 8192
2, 960, Pitch_bend_c, 1, 8320
2, 1120, Pitch_bend_c, 1, 8192
2, 1280, Pitch_bend_c, 1, 8320
2, 1440, Pitch_bend_c, 1, 8192
2, 1440, Pitch_bend_c, 1, 8320
2, 1440, Pitch_bend_c, 1, 8192
2, 1440, Note_off_c, 1, 76, 47
2, 1440, Note_on_c, 1, 76, 47
2, 1560, Pitch_bend_c, 1, 8064
2, 1680, Pitch_bend_c, 1, 7936
2, 1800, Pitch_bend_c, 1, 7680
2, 1920, Pitch_bend_c, 1, 7552
2, 1920, Pitch_bend_c, 1, 8192
2, 1920, Note_off_c, 1, 76, 47
2, 1920, Note_on_c, 1, 75, 47
2, 2080, Pitch_bend_c, 1, 8192
2, 2240, Pitch_bend_c, 1, 8320
2, 2400, Pitch_bend_c, 1, 8192
2, 2560, Pitch_bend_c, 1, 8320
2, 2720, Pitch_bend_c, 1, 8192
2, 2880, Pitch_bend_c, 1, 8320
2, 3040, Pitch_bend_c, 1, 8192
2, 3200, Pitch_bend_c, 1, 8320
2, 3360, Pitch_bend_c, 1, 8192
2, 3360, Pitch_bend_c, 1, 8320
2, 3360, Pitch_bend_c, 1, 8192
2, 3360, Note_off_c, 1, 75, 47
2, 3360, Note_on_c, 1, 75, 47
2, 3480, Pitch_bend_c, 1, 7936
2, 3600, Pitch_bend_c, 1, 7552
2, 3720, Pitch_bend_c, 1, 7168
2, 3840, Pitch_bend_c, 1, 6784
2, 3840, Pitch_bend_c, 1, 8192
2, 3840, Note_off_c, 1, 75, 47
2, 3840, Note_on_c, 1, 73, 47
2, 4000, Pitch_bend_c, 1, 8192
2, 4160, Pitch_bend_c, 1, 8320
2, 4320, Pitch_bend_c, 1, 8192
2, 4480, Pitch_bend_c, 1, 8320
2, 4640, Pitch_bend_c, 1, 8192
2, 4800, Pitch_bend_c, 1, 8320
2, 4960, Pitch_bend_c, 1, 8192
2, 5120, Pitch_bend_c, 1, 8320
2, 5160, Note_on_c, 1, 73, 47
2, 5280, Pitch_bend_c, 1, 8192
2, 5280, Pitch_bend_c, 1, 8320
2, 5280, Pitch_bend_c, 1, 8192
2, 5280, Note_off_c, 1, 73, 47
2, 5280, Note_off_c, 1, 73, 47
2, 5280, Note_on_c, 1, 71, 47
2, 5400, Pitch_bend_c, 1, 8192
2, 5520, Pitch_bend_c, 1, 8192
2, 5640, Pitch_bend_c, 1, 8192
2, 5760, Pitch_bend_c, 1, 8192
2, 5760, Pitch_bend_c, 1, 8192
2, 5760, Note_off_c, 1, 71, 47
2, 5760, Note_on_c, 1, 71, 47
2, 5920, Pitch_bend_c, 1, 8192
2, 6080, Pitch_bend_c, 1, 8320
2, 6240, Pitch_bend_c, 1, 8192
2, 6400, Pitch_bend_c, 1, 8320
2, 6560, Pitch_bend_c, 1, 8192
2, 6720, Pitch_bend_c, 1, 8320
2, 6720, Pitch_bend_c, 1, 8192
2, 6720, Note_off_c, 1, 71, 47
2, 6720, Note_on_c, 1, 69, 47
2, 6840, Pitch_bend_c, 1, 7936
2, 6960, Pitch_bend_c, 1, 7552
2, 6960, Pitch_bend_c, 1, 8192
2, 6960, Note_off_c, 1, 69, 47
2, 6960, Note_on_c, 0, 68, 47
2, 7200, Note_off_c, 0, 68, 47
2, 7200, Note_on_c, 0, 64, 47
2, 7680, Note_off_c, 0, 64, 47
2, 7680, Note_on_c, 1, 64, 47
2, 7840, Pitch_bend_c, 1, 8192
2, 8000, Pitch_bend_c, 1, 8320
2, 8160, Pitch_bend_c, 1, 8192
2, 8320, Pitch_bend_c, 1, 8320
2, 8480, Pitch_bend_c, 1, 8192
2, 8640, Pitch_bend_c, 1, 8320
2, 8800, Pitch_bend_c, 1, 8192
2, 8960, Pitch_bend_c, 1, 8320
2, 9120, Pitch_bend_c, 1, 8192
2, 9120, Pitch_bend_c, 1, 8320
2, 9120, Pitch_bend_c, 1, 8192
2, 9120, Note_off_c, 1, 64, 47
2, 9120, Note_on_c, 1, 64, 47
2, 9240, Pitch_bend_c, 1, 8064
2, 9360, Pitch_bend_c, 1, 7936
2, 9480, Pitch_bend_c, 1, 7680
2, 9600, Pitch_bend_c, 1, 7552
2, 9600, Pitch_bend_c, 1, 8192
2, 9600, Note_off_c, 1, 64, 47
2, 9600, Note_on_c, 1, 63, 47
2, 9760, Pitch_bend_c, 1, 8192
2, 9920, Pitch_bend_c, 1, 8320
2, 10080, Pitch_bend_c, 1, 8192
2, 10240, Pitch_bend_c, 1, 8320
2, 10400, Pitch_bend_c, 1, 8192
2, 10560, Pitch_bend_c, 1, 8320
2, 10720, Pitch_bend_c, 1, 8192
2, 10880, Pitch_bend_c, 1, 8320
2, 11040, Pitch_bend_c, 1, 8192
2, 11040, Pitch_bend_c, 1, 8320
2, 11040, Pitch_bend_c, 1, 8192
2, 11040, Note_off_c, 1, 63, 47
2, 11040, Note_on_c, 1, 63, 47
2, 11160, Pitch_bend_c, 1, 7936
2, 11280, Pitch_bend_c, 1, 7552
2, 11400, Pitch_bend_c, 1, 7168
2, 11520, Pitch_bend_c, 1, 6784
2, 11520, Pitch_bend_c, 1, 8192
2, 11520, Note_off_c, 1, 63, 47
2, 11520, Note_on_c, 1, 61, 47
2, 11680, Pitch_bend_c, 1, 8192
2, 11840, Pitch_bend_c, 1, 8320
2, 12000, Pitch_bend_c, 1, 8192
2, 12160, Pitch_bend_c, 1, 8320
2, 12320, Pitch_bend_c, 1, 8192
2, 12480, Pitch_bend_c, 1, 8320
2, 12640, Pitch_bend_c, 1, 8192
2, 12800, Pitch_bend_c, 1, 8320
2, 12960, Pitch_bend_c, 1, 8192
2, 12960, Pitch_bend_c, 1, 8320
2, 12960, Pitch_bend_c, 1, 8192
2, 12960, Note_off_c, 1, 61, 47
2, 12960, Note_on_c, 0, 61, 47
2, 13200, Note_off_c, 0, 61, 47
2, 13200, Note_on_c, 0, 59, 22
2, 13440, Note_off_c, 0, 59, 22
2, 13440, Note_on_c, 0, 59, 47
2, 14400, Note_off_c, 0, 59, 47
2, 14400, Note_on_c, 1, 61, 47
2, 14520, Pitch_bend_c, 1, 8448
2, 14640, Pitch_bend_c, 1, 8832
2, 14760, Pitch_bend_c, 1, 9216
2, 14880, Pitch_bend_c, 1, 9600
2, 14880, Pitch_bend_c, 1, 8192
2, 14880, Note_off_c, 1, 61, 47
2, 14880, Note_on_c, 0, 63, 47
2, 15360, Note_off_c, 0, 63, 47
2, 15360, Note_on_c, 1, 64, 47
2, 15520, Pitch_bend_c, 1, 8192
2, 15680, Pitch_bend_c, 1, 8320
2, 15840, Pitch_bend_c, 1, 8192
2, 16000, Pitch_bend_c, 1, 8320
2, 16160, Pitch_bend_c, 1, 8192
2, 16320, Pitch_bend_c, 1, 8320
2, 16480, Pitch_bend_c, 1, 8192
2, 16640, Pitch_bend_c, 1, 8320
2, 16800, Pitch_bend_c, 1, 8192
2, 16800, Pitch_bend_c, 1, 8320
2, 16800, Pitch_bend_c, 1, 8192
2, 16800, Note_off_c, 1, 64, 47
2, 16800, Note_on_c, 0, 64, 47
2, 17280, Note_off_c, 0, 64, 47
2, 17280, Note_on_c, 1, 63, 47
2, 17440, Pitch_bend_c, 1, 8192
2, 17600, Pitch_bend_c, 1, 8320
2, 17760, Pitch_bend_c, 1, 8192
2, 17920, Pitch_bend_c, 1, 8320
2, 18080, Pitch_bend_c, 1, 8192
2, 18240, Pitch_bend_c, 1, 8320
2, 18400, Pitch_bend_c, 1, 8192
2, 18560, Pitch_bend_c, 1, 8320
2, 18720, Pitch_bend_c, 1, 8192
2, 18720, Pitch_bend_c, 1, 8320
2, 18720, Pitch_bend_c, 1, 8192
2, 18720, Note_off_c, 1, 63, 47
2, 18720, Note_on_c, 1, 63, 47
2, 18840, Pitch_bend_c, 1, 7936
2, 18960, Pitch_bend_c, 1, 7552
2, 19080, Pitch_bend_c, 1, 7168
2, 19200, Pitch_bend_c, 1, 6784
2, 19200, Pitch_bend_c, 1, 8192
2, 19200, Note_off_c, 1, 63, 47
2, 19200, Note_on_c, 1, 61, 47
2, 19360, Pitch_bend_c, 1, 8192
2, 19520, Pitch_bend_c, 1, 8320
2, 19680, Pitch_bend_c, 1, 8192
2, 19840, Pitch_bend_c, 1, 8320
2, 20000, Pitch_bend_c, 1, 8192
2, 20160, Pitch_bend_c, 1, 8320
2, 20320, Pitch_bend_c, 1, 8192
2, 20480, Pitch_bend_c, 1, 8320
2, 20520, Note_on_c, 1, 61, 47
2, 20640, Pitch_bend_c, 1, 8192
2, 20640, Pitch_bend_c, 1, 8320
2, 20640, Pitch_bend_c, 1, 8192
2, 20640, Note_off_c, 1, 61, 47
2, 20640, Note_off_c, 1, 61, 47
2, 20640, Note_on_c, 1, 59, 47
2, 20760, Pitch_bend_c, 1, 8832
2, 20880, Pitch_bend_c, 1, 9600
2, 21000, Pitch_bend_c, 1, 10240
2, 21120, Pitch_bend_c, 1, 11008
2, 21120, Pitch_bend_c, 1, 8192
2, 21120, Note_off_c, 1, 59, 47
2, 21120, Note_on_c, 1, 63, 47
2, 21280, Pitch_bend_c, 1, 8192
2, 21440, Pitch_bend_c, 1, 8320
2, 21600, Pitch_bend_c, 1, 8192
2, 21760, Pitch_bend_c, 1, 8320
2, 21920, Pitch_bend_c, 1, 8192
2, 22080, Pitch_bend_c, 1, 8320
2, 22080, Pitch_bend_c, 1, 8192
2, 22080, Note_off_c, 1, 63, 47
2, 22080, Note_on_c, 0, 61, 47
2, 22560, Note_off_c, 0, 61, 47
2, 22560, Note_on_c, 0, 76, 47
2, 23040, Note_off_c, 0, 76, 47
2, 23040, Note_on_c, 1, 76, 47
2, 23200, Pitch_bend_c, 1, 8192
2, 23360, Pitch_bend_c, 1, 8320
2, 23520, Pitch_bend_c, 1, 8192
2, 23680, Pitch_bend_c, 1, 8320
2, 23840, Pitch_bend_c, 1, 8192
2, 24000, Pitch_bend_c, 1, 8320
2, 24160, Pitch_bend_c, 1, 8192
2, 24320, Pitch_bend_c, 1, 8320
2, 24480, Pitch_bend_c, 1, 8192
2, 24480, Pitch_bend_c, 1, 8320
2, 24480, Pitch_bend_c, 1, 8192
2, 24480, Note_off_c, 1, 76, 47
2, 24480, Note_on_c, 0, 76, 47
2, 24960, Note_off_c, 0, 76, 47
2, 24960, Note_on_c, 1, 75, 47
2, 25120, Pitch_bend_c, 1, 8192
2, 25280, Pitch_bend_c, 1, 8320
2, 25440, Pitch_bend_c, 1, 8192
2, 25600, Pitch_bend_c, 1, 8320
2, 25760, Pitch_bend_c, 1, 8192
2, 25920, Pitch_bend_c, 1, 8320
2, 26080, Pitch_bend_c, 1, 8192
2, 26240, Pitch_bend_c, 1, 8320
2, 26400, Pitch_bend_c, 1, 8192
2, 26400, Pitch_bend_c, 1, 8320
2, 26400, Pitch_bend_c, 1, 8192
2, 26400, Note_off_c, 1, 75, 47
2, 26400, Note_on_c, 1, 75, 47
2, 26520, Pitch_bend_c, 1, 7936
2, 26640, Pitch_bend_c, 1, 7552
2, 26760, Pitch_bend_c, 1, 7168
2, 26880, Pitch_bend_c, 1, 6784
2, 26880, Pitch_bend_c, 1, 8192
2, 26880, Note_off_c, 1, 75, 47
2, 26880, Note_on_c, 1, 73, 47
2, 27040, Pitch_bend_c, 1, 8192
2, 27200, Pitch_bend_c, 1, 8320
2, 27360, Pitch_bend_c, 1, 8192
2, 27520, Pitch_bend_c, 1, 8320
2, 27680, Pitch_bend_c, 1, 8192
2, 27840, Pitch_bend_c, 1, 8320
2, 28000, Pitch_bend_c, 1, 8192
2, 28160, Pitch_bend_c, 1, 8320
2, 28320, Pitch_bend_c, 1, 8192
2, 28320, Pitch_bend_c, 1, 8320
2, 28320, Pitch_bend_c, 1, 8192
2, 28320, Note_off_c, 1, 73, 47
2, 28320, Note_on_c, 1, 73, 47
2, 28440, Pitch_bend_c, 1, 7936
2, 28560, Pitch_bend_c, 1, 7552
2, 28680, Pitch_bend_c, 1, 7168
2, 28800, Pitch_bend_c, 1, 6784
2, 28800, Pitch_bend_c, 1, 8192
2, 28800, Note_off_c, 1, 73, 47
2, 28800, Note_on_c, 1, 71, 47
2, 28920, Pitch_bend_c, 1, 7936
2, 29040, Pitch_bend_c, 1, 7552
2, 29160, Pitch_bend_c, 1, 7168
2, 29280, Pitch_bend_c, 1, 6784
2, 29280, Pitch_bend_c, 1, 8192
2, 29280, Note_off_c, 1, 71, 47
2, 29280, Note_on_c, 0, 69, 47
2, 29760, Note_off_c, 0, 69, 47
2, 29760, Note_on_c, 1, 68, 47
2, 29880, Pitch_bend_c, 1, 8448
2, 30000, Pitch_bend_c, 1, 8832
2, 30000, Pitch_bend_c, 1, 8192
2, 30000, Note_off_c, 1, 68, 47
2, 30000, Note_on_c, 1, 69, 47
2, 30120, Pitch_bend_c, 1, 7936
2, 30240, Pitch_bend_c, 1, 7552
2, 30240, Pitch_bend_c, 1, 8192
2, 30240, Note_off_c, 1, 69, 47
2, 30240, Note_on_c, 0, 68, 47
2, 30720, Note_off_c, 0, 68, 47
2, 30720, Note_on_c, 1, 64, 47
2, 30880, Pitch_bend_c, 1, 8192
2, 31040, Pitch_bend_c, 1, 8320
2, 31200, Pitch_bend_c, 1, 8192
2, 31360, Pitch_bend_c, 1, 8320
2, 31520, Pitch_bend_c, 1, 8192
2, 31680, Pitch_bend_c, 1, 8320
2, 31840, Pitch_bend_c, 1, 8192
2, 32000, Pitch_bend_c, 1, 8320
2, 32160, Pitch_bend_c, 1, 8192
2, 32320, Pitch_bend_c, 1, 8320
2, 32480, Pitch_bend_c, 1, 8192
2, 32640, Pitch_bend_c, 1, 8320
2, 32640, Pitch_bend_c, 1, 8192
2, 32640, Note_off_c, 1, 64, 47
2, 36480, Note_on_c, 0, 64, 47
2, 36960, Note_off_c, 0, 64, 47
2, 36960, Note_on_c, 0, 68, 47
2, 37440, Note_off_c, 0, 68, 47
2, 37440, Note_on_c, 1, 68, 47
2, 37560, Pitch_bend_c, 1, 7936
2, 37680, Pitch_bend_c, 1, 7552
2, 37680, Pitch_bend_c, 1, 8192
2, 37680, Note_off_c, 1, 68, 47
2, 37680, Note_on_c, 0, 67, 47
2, 37920, Note_off_c, 0, 67, 47
2, 37920, Note_on_c, 0, 64, 47
2, 38400, Note_off_c, 0, 64, 47
2, 38400, Note_on_c, 1, 69, 47
2, 38560, Pitch_bend_c, 1, 8192
2, 38720, Pitch_bend_c, 1, 8320
2, 38880, Pitch_bend_c, 1, 8192
2, 39040, Pitch_bend_c, 1, 8320
2, 39200, Pitch_bend_c, 1, 8192
2, 39360, Pitch_bend_c, 1, 8320
2, 39520, Pitch_bend_c, 1, 8192
2, 39680, Pitch_bend_c, 1, 8320
2, 39840, Pitch_bend_c, 1, 8192
2, 39840, Pitch_bend_c, 1, 8320
2, 39840, Pitch_bend_c, 1, 8192
2, 39840, Note_off_c, 1, 69, 47
2, 39840, Note_on_c, 1, 69, 47
2, 39960, Pitch_bend_c, 1, 8064
2, 40080, Pitch_bend_c, 1, 7936
2, 40200, Pitch_bend_c, 1, 7680
2, 40320, Pitch_bend_c, 1, 7552
2, 40320, Pitch_bend_c, 1, 8192
2, 40320, Note_off_c, 1, 69, 47
2, 40320, Note_on_c, 1, 68, 47
2, 40480, Pitch_bend_c, 1, 8192
2, 40640, Pitch_bend_c, 1, 8320
2, 40800, Pitch_bend_c, 1, 8192
2, 40960, Pitch_bend_c, 1, 8320
2, 41120, Pitch_bend_c, 1, 8192
2, 41280, Pitch_bend_c, 1, 8320
2, 41440, Pitch_bend_c, 1, 8192
2, 41600, Pitch_bend_c, 1, 8320
2, 41760, Pitch_bend_c, 1, 8192
2, 41760, Pitch_bend_c, 1, 8320
2, 41760, Pitch_bend_c, 1, 8192
2, 41760, Note_off_c, 1, 68, 47
2, 41760, Note_on_c, 1, 68, 47
2, 41880, Pitch_bend_c, 1, 7936
2, 42000, Pitch_bend_c, 1, 7552
2, 42120, Pitch_bend_c, 1, 7168
2, 42240, Pitch_bend_c, 1, 6784
2, 42240, Pitch_bend_c, 1, 8192
2, 42240, Note_off_c, 1, 68, 47
2, 42240, Note_on_c, 1, 66, 47
2, 42400, Pitch_bend_c, 1, 8192
2, 42560, Pitch_bend_c, 1, 8320
2, 42720, Pitch_bend_c, 1, 8192
2, 42880, Pitch_bend_c, 1, 8320
2, 43040, Pitch_bend_c, 1, 8192
2, 43200, Pitch_bend_c, 1, 8320
2, 43360, Pitch_bend_c, 1, 8192
2, 43520, Pitch_bend_c, 1, 8320
2, 43680, Pitch_bend_c, 1, 8192
2, 43840, Pitch_bend_c, 1, 8320
2, 44000, Pitch_bend_c, 1, 8192
2, 44160, Pitch_bend_c, 1, 8320
2, 44160, Pitch_bend_c, 1, 8192
2, 44160, Note_off_c, 1, 66, 47
2, 48000, Note_on_c, 1, 59, 47
2, 48160, Pitch_bend_c, 1, 8192
2, 48320, Pitch_bend_c, 1, 8320
2, 48480, Pitch_bend_c, 1, 8192
2, 48640, Pitch_bend_c, 1, 8320
2, 48800, Pitch_bend_c, 1, 8192
2, 48960, Pitch_bend_c, 1, 8320
2, 49120, Pitch_bend_c, 1, 8192
2, 49280, Pitch_bend_c, 1, 8320
2, 49440, Pitch_bend_c, 1, 8192
2, 49600, Pitch_bend_c, 1, 8320
2, 49760, Pitch_bend_c, 1, 8192
2, 49920, Pitch_bend_c, 1, 8320
2, 49920, Pitch_bend_c, 1, 8192
2, 49920, Note_off_c, 1, 59, 47
2, 49920, Note_on_c, 1, 64, 47
2, 50080, Pitch_bend_c, 1, 8192
2, 50240, Pitch_bend_c, 1, 8320
2, 50400, Pitch_bend_c, 1, 8192
2, 50560, Pitch_bend_c, 1, 8320
2, 50720, Pitch_bend_c, 1, 8192
2, 50880, Pitch_bend_c, 1, 8320
2, 51040, Pitch_bend_c, 1, 8192
2, 51200, Pitch_bend_c, 1, 8320
2, 51360, Pitch_bend_c, 1, 8192
2, 51520, Pitch_bend_c, 1, 8320
2, 51680, Pitch_bend_c, 1, 8192
2, 51840, Pitch_bend_c, 1, 8320
2, 51840, Pitch_bend_c, 1, 8192
2, 51840, Note_off_c, 1, 64, 47
2, 54240, Note_on_c, 0, 64, 47
2, 54480, Note_off_c, 0, 64, 47
2, 54480, Note_on_c, 0, 64, 47
2, 55200, Note_off_c, 0, 64, 47
2, 55200, Note_on_c, 0, 64, 47
2, 55680, Note_off_c, 0, 64, 47
2, 55680, Note_on_c, 1, 71, 47
2, 55840, Pitch_bend_c, 1, 8192
2, 56000, Pitch_bend_c, 1, 8320
2, 56160, Pitch_bend_c, 1, 8192
2, 56320, Pitch_bend_c, 1, 8320
2, 56480, Pitch_bend_c, 1, 8192
2, 56640, Pitch_bend_c, 1, 8320
2, 56800, Pitch_bend_c, 1, 8192
2, 56960, Pitch_bend_c, 1, 8320
2, 57120, Pitch_bend_c, 1, 8192
2, 57280, Pitch_bend_c, 1, 8320
2, 57440, Pitch_bend_c, 1, 8192
2, 57600, Pitch_bend_c, 1, 8320
2, 57600, Pitch_bend_c, 1, 8192
2, 57600, Note_off_c, 1, 71, 47
2, 59040, Note_on_c, 0, 71, 47
2, 59520, Note_off_c, 0, 71, 47
2, 59520, Note_on_c, 0, 76, 47
2, 59760, Note_off_c, 0, 76, 47
2, 59760, Note_on_c, 1, 71, 47
2, 59920, Pitch_bend_c, 1, 8192
2, 60080, Pitch_bend_c, 1, 8320
2, 60240, Pitch_bend_c, 1, 8192
2, 60400, Pitch_bend_c, 1, 8320
2, 60560, Pitch_bend_c, 1, 8192
2, 60720, Pitch_bend_c, 1, 8320
2, 60880, Pitch_bend_c, 1, 8192
2, 61040, Pitch_bend_c, 1, 8320
2, 61200, Pitch_bend_c, 1, 8192
2, 61360, Pitch_bend_c, 1, 8320
2, 61440, Pitch_bend_c, 1, 8192
2, 61440, Pitch_bend_c, 1, 8320
2, 61440, Pitch_bend_c, 1, 8192
2, 61440, Note_off_c, 1, 71, 47
2, 61680, Note_on_c, 1, 69, 47
2, 62400, Note_off_c, 1, 69, 47
2, 67680, Note_on_c, 0, 64, 47
2, 68160, Note_off_c, 0, 64, 47
2, 68160, Note_on_c, 1, 68, 47
2, 68280, Pitch_bend_c, 1, 7936
2, 68400, Pitch_bend_c, 1, 7552
2, 68520, Pitch_bend_c, 1, 7168
2, 68640, Pitch_bend_c, 1, 6784
2, 68640, Pitch_bend_c, 1, 8192
2, 68640, Note_off_c, 1, 68, 47
2, 68640, Note_on_c, 0, 66, 47
2, 69120, Note_off_c, 0, 66, 47
2, 69120, Note_on_c, 1, 64, 47
2, 69280, Pitch_bend_c, 1, 8192
2, 69440, Pitch_bend_c, 1, 8320
2, 69600, Pitch_bend_c, 1, 8192
2, 69760, Pitch_bend_c, 1, 8320
2, 69920, Pitch_bend_c, 1, 8192
2, 70080, Pitch_bend_c, 1, 8320
2, 70240, Pitch_bend_c, 1, 8192
2, 70400, Pitch_bend_c, 1, 8320
2, 70560, Pitch_bend_c, 1, 8192
2, 70720, Pitch_bend_c, 1, 8320
2, 70880, Pitch_bend_c, 1, 8192
2, 71040, Pitch_bend_c, 1, 8320
2, 71040, Pitch_bend_c, 1, 8192
2, 71040, Note_off_c, 1, 64, 47
2, 75360, Note_on_c, 0, 66, 47
2, 75840, Note_off_c, 0, 66, 47
2, 75840, Note_on_c, 1, 71, 47
2, 76000, Pitch_bend_c, 1, 8192
2, 76160, Pitch_bend_c, 1, 8320
2, 76320, Pitch_bend_c, 1, 8192
2, 76480, Pitch_bend_c, 1, 8320
2, 76640, Pitch_bend_c, 1, 8192
2, 76800, Pitch_bend_c, 1, 8320
2, 76800, Pitch_bend_c, 1, 8192
2, 76800, Note_off_c, 1, 71, 47
2, 76800, Note_on_c, 1, 69, 47
2, 76960, Pitch_bend_c, 1, 8192
2, 77120, Pitch_bend_c, 1, 8320
2, 77280, Pitch_bend_c, 1, 8192
2, 77440, Pitch_bend_c, 1, 8320
2, 77600, Pitch_bend_c, 1, 8192
2, 77760, Pitch_bend_c, 1, 8320
2, 77920, Pitch_bend_c, 1, 8192
2, 78080, Pitch_bend_c, 1, 8320
2, 78240, Pitch_bend_c, 1, 8192
2, 78240, Pitch_bend_c, 1, 8320
2, 78240, Pitch_bend_c, 1, 8192
2, 78240, Note_off_c, 1, 69, 47
2, 78240, Note_on_c, 0, 69, 47
2, 78720, Note_off_c, 0, 69, 47
2, 78720, Note_on_c, 1, 71, 47
2, 78880, Pitch_bend_c, 1, 8192
2, 79040, Pitch_bend_c, 1, 8320
2, 79200, Pitch_bend_c, 1, 8192
2, 79360, Pitch_bend_c, 1, 8320
2, 79520, Pitch_bend_c, 1, 8192
2, 79680, Pitch_bend_c, 1, 8320
2, 79840, Pitch_bend_c, 1, 8192
2, 80000, Pitch_bend_c, 1, 8320
2, 80160, Pitch_bend_c, 1, 8192
2, 80160, Pitch_bend_c, 1, 8320
2, 80160, Pitch_bend_c, 1, 8192
2, 80160, Note_off_c, 1, 71, 47
2, 80160, Note_on_c, 1, 71, 47
2, 80280, Pitch_bend_c, 1, 7680
2, 80400, Pitch_bend_c, 1, 7168
2, 80520, Pitch_bend_c, 1, 6656
2, 80640, Pitch_bend_c, 1, 6144
2, 80640, Pitch_bend_c, 1, 8192
2, 80640, Note_off_c, 1, 71, 47
2, 80640, Note_on_c, 1, 68, 47
2, 80800, Pitch_bend_c, 1, 8192
2, 80960, Pitch_bend_c, 1, 8320
2, 81120, Pitch_bend_c, 1, 8192
2, 81120, Pitch_bend_c, 1, 8320
2, 81120, Pitch_bend_c, 1, 8192
2, 81120, Note_off_c, 1, 68, 47
2, 81120, Note_on_c, 1, 68, 47
2, 81280, Pitch_bend_c, 1, 8192
2, 81440, Pitch_bend_c, 1, 8320
2, 81600, Pitch_bend_c, 1, 8192
2, 81600, Pitch_bend_c, 1, 8320
2, 81600, Pitch_bend_c, 1, 8192
2, 81600, Note_off_c, 1, 68, 47
2, 81600, Note_on_c, 1, 68, 31
2, 81720, Pitch_bend_c, 1, 7552
2, 81840, Pitch_bend_c, 1, 6784
2, 81840, Pitch_bend_c, 1, 8192
2, 81840, Note_off_c, 1, 68, 31
2, 81840, Note_on_c, 0, 66, 47
2, 82080, Note_off_c, 0, 66, 47
2, 82080, Note_on_c, 0, 64, 47
2, 82560, Note_off_c, 0, 64, 47
2, 82560, Note_on_c, 1, 69, 47
2, 82720, Pitch_bend_c, 1, 8192
2, 82880, Pitch_bend_c, 1, 8320
2, 83040, Pitch_bend_c, 1, 8192
2, 83200, Pitch_bend_c, 1, 8320
2, 83360, Pitch_bend_c, 1, 8192
2, 83520, Pitch_bend_c, 1, 8320
2, 83680, Pitch_bend_c, 1, 8192
2, 83840, Pitch_bend_c, 1, 8320
2, 84000, Pitch_bend_c, 1, 8192
2, 84160, Pitch_bend_c, 1, 8320
2, 84320, Pitch_bend_c, 1, 8192
2, 84480, Pitch_bend_c, 1, 8320
2, 84480, Pitch_bend_c, 1, 8192
2, 84480, Note_off_c, 1, 69, 47
2, 84480, Note_on_c, 1, 69, 47
2, 84640, Pitch_bend_c, 1, 8192
2, 84800, Pitch_bend_c, 1, 8320
2, 84960, Pitch_bend_c, 1, 8192
2, 85120, Pitch_bend_c, 1, 8320
2, 85280, Pitch_bend_c, 1, 8192
2, 85440, Pitch_bend_c, 1, 8320
2, 85600, Pitch_bend_c, 1, 8192
2, 85760, Pitch_bend_c, 1, 8320
2, 85920, Pitch_bend_c, 1, 8192
2, 86080, Pitch_bend_c, 1, 8320
2, 86240, Pitch_bend_c, 1, 8192
2, 86400, Pitch_bend_c, 1, 8320
2, 86400, Pitch_bend_c, 1, 8192
2, 86400, Note_off_c, 1, 69, 47
2, 92160, Note_on_c, 1, 64, 47
2, 92320, Pitch_bend_c, 1, 8192
2, 92480, Pitch_bend_c, 1, 8320
2, 92640, Pitch_bend_c, 1, 8192
2, 92800, Pitch_bend_c, 1, 8320
2, 92960, Pitch_bend_c, 1, 8192
2, 93120, Pitch_bend_c, 1, 8320
2, 93280, Pitch_bend_c, 1, 8192
2, 93440, Pitch_bend_c, 1, 8320
2, 93600, Pitch_bend_c, 1, 8192
2, 93600, Pitch_bend_c, 1, 8320
2, 93600, Pitch_bend_c, 1, 8192
2, 93600, Note_off_c, 1, 64, 47
2, 93600, Note_on_c, 0, 64, 47
2, 94080, Note_off_c, 0, 64, 47
2, 94080, Note_on_c, 1, 63, 47
2, 94240, Pitch_bend_c, 1, 8192
2, 94400, Pitch_bend_c, 1, 8320
2, 94560, Pitch_bend_c, 1, 8192
2, 94720, Pitch_bend_c, 1, 8320
2, 94880, Pitch_bend_c, 1, 8192
2, 95040, Pitch_bend_c, 1, 8320
2, 95200, Pitch_bend_c, 1, 8192
2, 95360, Pitch_bend_c, 1, 8320
2, 95520, Pitch_bend_c, 1, 8192
2, 95520, Pitch_bend_c, 1, 8320
2, 95520, Pitch_bend_c, 1, 8192
2, 95520, Note_off_c, 1, 63, 47
2, 95520, Note_on_c, 1, 63, 47
2, 95640, Pitch_bend_c, 1, 7936
2, 95760, Pitch_bend_c, 1, 7552
2, 95880, Pitch_bend_c, 1, 7168
2, 96000, Pitch_bend_c, 1, 6784
2, 96000, Pitch_bend_c, 1, 8192
2, 96000, Note_off_c, 1, 63, 47
2, 96000, Note_on_c, 1, 61, 47
2, 96160, Pitch_bend_c, 1, 8192
2, 96320, Pitch_bend_c, 1, 8320
2, 96480, Pitch_bend_c, 1, 8192
2, 96640, Pitch_bend_c, 1, 8320
2, 96800, Pitch_bend_c, 1, 8192
2, 96960, Pitch_bend_c, 1, 8320
2, 97120, Pitch_bend_c, 1, 8192
2, 97280, Pitch_bend_c, 1, 8320
2, 97320, Note_on_c, 1, 61, 47
2, 97440, Pitch_bend_c, 1, 8192
2, 97440, Pitch_bend_c, 1, 8320
2, 97440, Pitch_bend_c, 1, 8192
2, 97440, Note_off_c, 1, 61, 47
2, 97440, Note_off_c, 1, 61, 47
2, 97440, Note_on_c, 1, 59, 47
2, 97560, Pitch_bend_c, 1, 8832
2, 97680, Pitch_bend_c, 1, 9600
2, 97800, Pitch_bend_c, 1, 10240
2, 97920, Pitch_bend_c, 1, 11008
2, 97920, Pitch_bend_c, 1, 8192
2, 97920, Note_off_c, 1, 59, 47
2, 97920, Note_on_c, 1, 63, 47
2, 98080, Pitch_bend_c, 1, 8192
2, 98240, Pitch_bend_c, 1, 8320
2, 98400, Pitch_bend_c, 1, 8192
2, 98560, Pitch_bend_c, 1, 8320
2, 98720, Pitch_bend_c, 1, 8192
2, 98880, Pitch_bend_c, 1, 8320
2, 98880, Pitch_bend_c, 1, 8192
2, 98880, Note_off_c, 1, 63, 47
2, 98880, Note_on_c, 0, 61, 47
2, 99360, Note_off_c, 0, 61, 47
2, 99360, Note_on_c, 0, 76, 47
2, 99840, Note_off_c, 0, 76, 47
2, 99840, Note_on_c, 1, 76, 47
2, 100000, Pitch_bend_c, 1, 8192
2, 100160, Pitch_bend_c, 1, 8320
2, 100320, Pitch_bend_c, 1, 8192
2, 100480, Pitch_bend_c, 1, 8320
2, 100640, Pitch_bend_c, 1, 8192
2, 100800, Pitch_bend_c, 1, 8320
2, 100960, Pitch_bend_c, 1, 8192
2, 101120, Pitch_bend_c, 1, 8320
2, 101280, Pitch_bend_c, 1, 8192
2, 101280, Pitch_bend_c, 1, 8320
2, 101280, Pitch_bend_c, 1, 8192
2, 101280, Note_off_c, 1, 76, 47
2, 101280, Note_on_c, 0, 76, 47
2, 101760, Note_off_c, 0, 76, 47
2, 101760, Note_on_c, 1, 75, 47
2, 101920, Pitch_bend_c, 1, 8192
2, 102080, Pitch_bend_c, 1, 8320
2, 102240, Pitch_bend_c, 1, 8192
2, 102400, Pitch_bend_c, 1, 8320
2, 102560, Pitch_bend_c, 1, 8192
2, 102720, Pitch_bend_c, 1, 8320
2, 102880, Pitch_bend_c, 1, 8192
2, 103040, Pitch_bend_c, 1, 8320
2, 103200, Pitch_bend_c, 1, 8192
2, 103200, Pitch_bend_c, 1, 8320
2, 103200, Pitch_bend_c, 1, 8192
2, 103200, Note_off_c, 1, 75, 47
2, 103200, Note_on_c, 1, 75, 47
2, 103320, Pitch_bend_c, 1, 7936
2, 103440, Pitch_bend_c, 1, 7552
2, 103560, Pitch_bend_c, 1, 7168
2, 103680, Pitch_bend_c, 1, 6784
2, 103680, Pitch_bend_c, 1, 8192
2, 103680, Note_off_c, 1, 75, 47
2, 103680, Note_on_c, 1, 73, 47
2, 103840, Pitch_bend_c, 1, 8192
2, 104000, Pitch_bend_c, 1, 8320
2, 104160, Pitch_bend_c, 1, 8192
2, 104320, Pitch_bend_c, 1, 8320
2, 104480, Pitch_bend_c, 1, 8192
2, 104640, Pitch_bend_c, 1, 8320
2, 104800, Pitch_bend_c, 1, 8192
2, 104960, Pitch_bend_c, 1, 8320
2, 105120, Pitch_bend_c, 1, 8192
2, 105120, Pitch_bend_c, 1, 8320
2, 105120, Pitch_bend_c, 1, 8192
2, 105120, Note_off_c, 1, 73, 47
2, 105120, Note_on_c, 1, 73, 47
2, 105240, Pitch_bend_c, 1, 7936
2, 105360, Pitch_bend_c, 1, 7552
2, 105480, Pitch_bend_c, 1, 7168
2, 105600, Pitch_bend_c, 1, 6784
2, 105600, Pitch_bend_c, 1, 8192
2, 105600, Note_off_c, 1, 73, 47
2, 105600, Note_on_c, 1, 71, 47
2, 105720, Pitch_bend_c, 1, 7936
2, 105840, Pitch_bend_c, 1, 7552
2, 105960, Pitch_bend_c, 1, 7168
2, 106080, Pitch_bend_c, 1, 6784
2, 106080, Pitch_bend_c, 1, 8192
2, 106080, Note_off_c, 1, 71, 47
2, 106080, Note_on_c, 0, 69, 47
2, 106560, Note_off_c, 0, 69, 47
2, 106560, Note_on_c, 1, 68, 47
2, 106680, Pitch_bend_c, 1, 8448
2, 106800, Pitch_bend_c, 1, 8832
2, 106800, Pitch_bend_c, 1, 8192
2, 106800, Note_off_c, 1, 68, 47
2, 106800, Note_on_c, 1, 69, 47
2, 106920, Pitch_bend_c, 1, 7936
2, 107040, Pitch_bend_c, 1, 7552
2, 107040, Pitch_bend_c, 1, 8192
2, 107040, Note_off_c, 1, 69, 47
2, 107040, Note_on_c, 0, 68, 47
2, 107520, Note_off_c, 0, 68, 47
2, 107520, Note_on_c, 1, 64, 47
2, 107680, Pitch_bend_c, 1, 8192
2, 107840, Pitch_bend_c, 1, 8320
2, 108000, Pitch_bend_c, 1, 8192
2, 108160, Pitch_bend_c, 1, 8320
2, 108320, Pitch_bend_c, 1, 8192
2, 108480, Pitch_bend_c, 1, 8320
2, 108640, Pitch_bend_c, 1, 8192
2, 108800, Pitch_bend_c, 1, 8320
2, 108960, Pitch_bend_c, 1, 8192
2, 108960, Pitch_bend_c, 1, 8320
2, 108960, Pitch_bend_c, 1, 8192
2, 108960, Note_off_c, 1, 64, 47
2, 108960, Note_on_c, 0, 64, 47
2, 109440, Note_off_c, 0, 64, 47
2, 109440, Note_on_c, 1, 63, 47
2, 109600, Pitch_bend_c, 1, 8192
2, 109760, Pitch_bend_c, 1, 8320
2, 109920, Pitch_bend_c, 1, 8192
2, 110080, Pitch_bend_c, 1, 8320
2, 110240, Pitch_bend_c, 1, 8192
2, 110400, Pitch_bend_c, 1, 8320
2, 110560, Pitch_bend_c, 1, 8192
2, 110720, Pitch_bend_c, 1, 8320
2, 110880, Pitch_bend_c, 1, 8192
2, 110880, Pitch_bend_c, 1, 8320
2, 110880, Pitch_bend_c, 1, 8192
2, 110880, Note_off_c, 1, 63, 47
2, 110880, Note_on_c, 1, 63, 47
2, 111000, Pitch_bend_c, 1, 7936
2, 111120, Pitch_bend_c, 1, 7552
2, 111240, Pitch_bend_c, 1, 7168
2, 111360, Pitch_bend_c, 1, 6784
2, 111360, Pitch_bend_c, 1, 8192
2, 111360, Note_off_c, 1, 63, 47
2, 111360, Note_on_c, 1, 61, 47
2, 111520, Pitch_bend_c, 1, 8192
2, 111680, Pitch_bend_c, 1, 8320
2, 111840, Pitch_bend_c, 1, 8192
2, 112000, Pitch_bend_c, 1, 8320
2, 112160, Pitch_bend_c, 1, 8192
2, 112320, Pitch_bend_c, 1, 8320
2, 112480, Pitch_bend_c, 1, 8192
2, 112640, Pitch_bend_c, 1, 8320
2, 112680, Note_on_c, 1, 61, 47
2, 112800, Pitch_bend_c, 1, 8192
2, 112800, Pitch_bend_c, 1, 8320
2, 112800, Pitch_bend_c, 1, 8192
2, 112800, Note_off_c, 1, 61, 47
2, 112800, Note_off_c, 1, 61, 47
2, 112800, Note_on_c, 1, 59, 47
2, 112920, Pitch_bend_c, 1, 8832
2, 113040, Pitch_bend_c, 1, 9600
2, 113160, Pitch_bend_c, 1, 10240
2, 113280, Pitch_bend_c, 1, 11008
2, 113280, Pitch_bend_c, 1, 8192
2, 113280, Note_off_c, 1, 59, 47
2, 113280, Note_on_c, 1, 63, 47
2, 113440, Pitch_bend_c, 1, 8192
2, 113600, Pitch_bend_c, 1, 8320
2, 113760, Pitch_bend_c, 1, 8192
2, 113920, Pitch_bend_c, 1, 8320
2, 114080, Pitch_bend_c, 1, 8192
2, 114240, Pitch_bend_c, 1, 8320
2, 114240, Pitch_bend_c, 1, 8192
2, 114240, Note_off_c, 1, 63, 47
2, 114240, Note_on_c, 0, 61, 47
2, 114720, Note_off_c, 0, 61, 47
2, 114720, Note_on_c, 0, 76, 47
2, 115200, Note_off_c, 0, 76, 47
2, 115200, Note_on_c, 1, 76, 47
2, 115360, Pitch_bend_c, 1, 8192
2, 115520, Pitch_bend_c, 1, 8320
2, 115680, Pitch_bend_c, 1, 8192
2, 115840, Pitch_bend_c, 1, 8320
2, 116000, Pitch_bend_c, 1, 8192
2, 116160, Pitch_bend_c, 1, 8320
2, 116320, Pitch_bend_c, 1, 8192
2, 116480, Pitch_bend_c, 1, 8320
2, 116640, Pitch_bend_c, 1, 8192
2, 116640, Pitch_bend_c, 1, 8320
2, 116640, Pitch_bend_c, 1, 8192
2, 116640, Note_off_c, 1, 76, 47
2, 116640, Note_on_c, 0, 76, 47
2, 117120, Note_off_c, 0, 76, 47
2, 117120, Note_on_c, 1, 75, 47
2, 117280, Pitch_bend_c, 1, 8192
2, 117440, Pitch_bend_c, 1, 8320
2, 117600, Pitch_bend_c, 1, 8192
2, 117760, Pitch_bend_c, 1, 8320
2, 117920, Pitch_bend_c, 1, 8192
2, 118080, Pitch_bend_c, 1, 8320
2, 118240, Pitch_bend_c, 1, 8192
2, 118400, Pitch_bend_c, 1, 8320
2, 118560, Pitch_bend_c, 1, 8192
2, 118560, Pitch_bend_c, 1, 8320
2, 118560, Pitch_bend_c, 1, 8192
2, 118560, Note_off_c, 1, 75, 47
2, 118560, Note_on_c, 1, 75, 47
2, 118680, Pitch_bend_c, 1, 7936
2, 118800, Pitch_bend_c, 1, 7552
2, 118920, Pitch_bend_c, 1, 7168
2, 119040, Pitch_bend_c, 1, 6784
2, 119040, Pitch_bend_c, 1, 8192
2, 119040, Note_off_c, 1, 75, 47
2, 119040, Note_on_c, 1, 73, 47
2, 119200, Pitch_bend_c, 1, 8192
2, 119360, Pitch_bend_c, 1, 8320
2, 119520, Pitch_bend_c, 1, 8192
2, 119680, Pitch_bend_c, 1, 8320
2, 119840, Pitch_bend_c, 1, 8192
2, 120000, Pitch_bend_c, 1, 8320
2, 120160, Pitch_bend_c, 1, 8192
2, 120320, Pitch_bend_c, 1, 8320
2, 120480, Pitch_bend_c, 1, 8192
2, 120480, Pitch_bend_c, 1, 8320
2, 120480, Pitch_bend_c, 1, 8192
2, 120480, Note_off_c, 1, 73, 47
2, 120480, Note_on_c, 1, 73, 47
2, 120600, Pitch_bend_c, 1, 7936
2, 120720, Pitch_bend_c, 1, 7552
2, 120840, Pitch_bend_c, 1, 7168
2, 120960, Pitch_bend_c, 1, 6784
2, 120960, Pitch_bend_c, 1, 8192
2, 120960, Note_off_c, 1, 73, 47
2, 120960, Note_on_c, 1, 71, 47
2, 121080, Pitch_bend_c, 1, 7936
2, 121200, Pitch_bend_c, 1, 7552
2, 121320, Pitch_bend_c, 1, 7168
2, 121440, Pitch_bend_c, 1, 6784
2, 121440, Pitch_bend_c, 1, 8192
2, 121440, Note_off_c, 1, 71, 47
2, 121440, Note_on_c, 0, 69, 47
2, 121920, Note_off_c, 0, 69, 47
2, 121920, Note_on_c, 1, 68, 47
2, 122040, Pitch_bend_c, 1, 8448
2, 122160, Pitch_bend_c, 1, 8832
2, 122160, Pitch_bend_c, 1, 8192
2, 122160, Note_off_c, 1, 68, 47
2, 122160, Note_on_c, 1, 69, 47
2, 122280, Pitch_bend_c, 1, 7936
2, 122400, Pitch_bend_c, 1, 7552
2, 122400, Pitch_bend_c, 1, 8192
2, 122400, Note_off_c, 1, 69, 47
2, 122400, Note_on_c, 0, 68, 47
2, 122880, Note_off_c, 0, 68, 47
2, 122880, Note_on_c, 1, 64, 47
2, 123040, Pitch_bend_c, 1, 8192
2, 123200, Pitch_bend_c, 1, 8320
2, 123360, Pitch_bend_c, 1, 8192
2, 123520, Pitch_bend_c, 1, 8320
2, 123680, Pitch_bend_c, 1, 8192
2, 123840, Pitch_bend_c, 1, 8320
2, 124000, Pitch_bend_c, 1, 8192
2, 124160, Pitch_bend_c, 1, 8320
2, 124320, Pitch_bend_c, 1, 8192
2, 124480, Pitch_bend_c, 1, 8320
2, 124640, Pitch_bend_c, 1, 8192
2, 124800, Pitch_bend_c, 1, 8320
2, 124800, Pitch_bend_c, 1, 8192
2, 124800, Note_off_c, 1, 64, 47
2, 125760, Note_on_c, 0, 71, 47
2, 126000, Note_off_c, 0, 71, 47
2, 126000, Note_on_c, 1, 73, 47
2, 126160, Pitch_bend_c, 1, 8192
2, 126320, Pitch_bend_c, 1, 8320
2, 126480, Pitch_bend_c, 1, 8192
2, 126640, Pitch_bend_c, 1, 8320
2, 126720, Pitch_bend_c, 1, 8192
2, 126720, Pitch_bend_c, 1, 8320
2, 126720, Pitch_bend_c, 1, 8192
2, 126720, Note_off_c, 1, 73, 47
2, 126720, Note_on_c, 1, 71, 47
2, 126880, Pitch_bend_c, 1, 8192
2, 127040, Pitch_bend_c, 1, 8320
2, 127200, Pitch_bend_c, 1, 8192
2, 127360, Pitch_bend_c, 1, 8320
2, 127520, Pitch_bend_c, 1, 8192
2, 127680, Pitch_bend_c, 1, 8320
2, 127680, Pitch_bend_c, 1, 8192
2, 127680, Note_off_c, 1, 71, 47
2, 127680, Note_on_c, 1, 68, 47
2, 127800, Pitch_bend_c, 1, 7552
2, 127920, Pitch_bend_c, 1, 6784
2, 127920, Pitch_bend_c, 1, 8192
2, 127920, Note_off_c, 1, 68, 47
2, 127920, Note_on_c, 0, 66, 47
2, 128160, Note_off_c, 0, 66, 47
2, 128160, Note_on_c, 0, 64, 47
2, 128640, Note_off_c, 0, 64, 47
2, 128640, Note_on_c, 1, 68, 47
2, 128800, Pitch_bend_c, 1, 8192
2, 128960, Pitch_bend_c, 1, 8320
2, 129120, Pitch_bend_c, 1, 8192
2, 129280, Pitch_bend_c, 1, 8320
2, 129440, Pitch_bend_c, 1, 8192
2, 129600, Pitch_bend_c, 1, 8320
2, 129760, Pitch_bend_c, 1, 8192
2, 129920, Pitch_bend_c, 1, 8320
2, 130080, Pitch_bend_c, 1, 8192
2, 130240, Pitch_bend_c, 1, 8320
2, 130400, Pitch_bend_c, 1, 8192
2, 130560, Pitch_bend_c, 1, 8320
2, 130560, Pitch_bend_c, 1, 8192
2, 130560, Note_off_c, 1, 68, 47
2, 131520, Note_on_c, 0, 73, 47
2, 132000, Note_off_c, 0, 73, 47
2, 132000, Note_on_c, 0, 73, 47
2, 132480, Note_off_c, 0, 73, 47
2, 132480, Note_on_c, 0, 71, 47
2, 132960, Note_off_c, 0, 71, 47
2, 132960, Note_on_c, 0, 71, 47
2, 133440, Note_off_c, 0, 71, 47
2, 133440, Note_on_c, 1, 73, 47
2, 133560, Pitch_bend_c, 1, 8704
2, 133680, Pitch_bend_c, 1, 9216
2, 133800, Pitch_bend_c, 1, 9728
2, 133920, Pitch_bend_c, 1, 10240
2, 133920, Pitch_bend_c, 1, 8192
2, 133920, Note_off_c, 1, 73, 47
2, 133920, Note_on_c, 0, 76, 47
2, 134400, Note_off_c, 0, 76, 47
2, 134400, Note_on_c, 1, 69, 47
2, 134560, Pitch_bend_c, 1, 8192
2, 134720, Pitch_bend_c, 1, 8320
2, 134880, Pitch_bend_c, 1, 8192
2, 135040, Pitch_bend_c, 1, 8320
2, 135200, Pitch_bend_c, 1, 8192
2, 135360, Pitch_bend_c, 1, 8320
2, 135520, Pitch_bend_c, 1, 8192
2, 135680, Pitch_bend_c, 1, 8320
2, 135840, Pitch_bend_c, 1, 8192
2, 135840, Pitch_bend_c, 1, 8320
2, 135840, Pitch_bend_c, 1, 8192
2, 135840, Note_off_c, 1, 69, 47
2, 136320, Note_on_c, 1, 71, 47
2, 136480, Pitch_bend_c, 1, 8192
2, 136640, Pitch_bend_c, 1, 8320
2, 136800, Pitch_bend_c, 1, 8192
2, 136960, Pitch_bend_c, 1, 8320
2, 137120, Pitch_bend_c, 1, 8192
2, 137280, Pitch_bend_c, 1, 8320
2, 137280, Pitch_bend_c, 1, 8192
2, 137280, Note_off_c, 1, 71, 47
2, 137280, Note_on_c, 1, 69, 47
2, 137400, Pitch_bend_c, 1, 8064
2, 137520, Pitch_bend_c, 1, 7936
2, 137640, Pitch_bend_c, 1, 7680
2, 137760, Pitch_bend_c, 1, 7552
2, 137760, Pitch_bend_c, 1, 8192
2, 137760, Note_off_c, 1, 69, 47
2, 137760, Note_on_c, 0, 68, 47
2, 138000, Note_off_c, 0, 68, 47
2, 138000, Note_on_c, 1, 64, 47
2, 138160, Pitch_bend_c, 1, 8192
2, 138240, Pitch_bend_c, 1, 8320
2, 138240, Pitch_bend_c, 1, 8192
2, 138240, Note_off_c, 1, 64, 47
2, 138240, Note_on_c, 1, 64, 31
2, 138400, Pitch_bend_c, 1, 8192
2, 138560, Pitch_bend_c, 1, 8320
2, 138720, Pitch_bend_c, 1, 8192
2, 138880, Pitch_bend_c, 1, 8320
2, 139040, Pitch_bend_c, 1, 8192
2, 139200, Pitch_bend_c, 1, 8320
2, 139200, Pitch_bend_c, 1, 8192
2, 139200, Note_off_c, 1, 64, 31
2, 139200, Note_on_c, 1, 69, 47
2, 139360, Pitch_bend_c, 1, 8192
2, 139520, Pitch_bend_c, 1, 8320
2, 139680, Pitch_bend_c, 1, 8192
2, 139680, Pitch_bend_c, 1, 8320
2, 139680, Pitch_bend_c, 1, 8192
2, 139680, Note_off_c, 1, 69, 47
2, 139680, Note_on_c, 1, 69, 47
2, 139840, Pitch_bend_c, 1, 8192
2, 140000, Pitch_bend_c, 1, 8320
2, 140160, Pitch_bend_c, 1, 8192
2, 140160, Pitch_bend_c, 1, 8320
2, 140160, Pitch_bend_c, 1, 8192
2, 140160, Note_off_c, 1, 69, 47
2, 140160, Note_on_c, 1, 71, 47
2, 140320, Pitch_bend_c, 1, 8192
2, 140480, Pitch_bend_c, 1, 8320
2, 140640, Pitch_bend_c, 1, 8192
2, 140800, Pitch_bend_c, 1, 8320
2, 140960, Pitch_bend_c, 1, 8192
2, 141120, Pitch_bend_c, 1, 8320
2, 141120, Pitch_bend_c, 1, 8192
2, 141120, Note_off_c, 1, 71, 47
2, 141120, Note_on_c, 0, 73, 47
2, 142080, Note_off_c, 0, 73, 47
2, 142080, Note_on_c, 0, 71, 47
2, 143040, Note_off_c, 0, 71, 47
2, 143040, Note_on_c, 1, 71, 31
2, 143160, Pitch_bend_c, 1, 7040
2, 143280, Pitch_bend_c, 1, 5760
2, 143400, Pitch_bend_c, 1, 4608
2, 143520, Pitch_bend_c, 1, 3328
2, 143520, Pitch_bend_c, 1, 8192
2, 143520, Note_off_c, 1, 71, 31
2, 143520, Note_on_c, 0, 64, 47
2, 144000, Note_off_c, 0, 64, 47
2, 144000, Note_on_c, 0, 64, 47
2, 144240, Note_off_c, 0, 64, 47
2, 144240, Note_on_c, 0, 64, 47
2, 144480, Note_off_c, 0, 64, 47
2, 144480, Note_on_c, 0, 64, 47
2, 145920, Note_off_c, 0, 64, 47
2, 146880, Note_on_c, 1, 69, 47
2, 147000, Pitch_bend_c, 1, 8064
2, 147120, Pitch_bend_c, 1, 7936
2, 147240, Pitch_bend_c, 1, 7680
2, 147360, Pitch_bend_c, 1, 7552
2, 147360, Pitch_bend_c, 1, 8192
2, 147360, Note_off_c, 1, 69, 47
2, 147360, Note_on_c, 1, 68, 47
2, 147480, Pitch_bend_c, 1, 8704
2, 147600, Pitch_bend_c, 1, 9216
2, 147720, Pitch_bend_c, 1, 9728
2, 147840, Pitch_bend_c, 1, 10240
2, 147840, Pitch_bend_c, 1, 8192
2, 147840, Note_off_c, 1, 68, 47
2, 147840, Note_on_c, 1, 71, 47
2, 148000, Pitch_bend_c, 1, 8192
2, 148160, Pitch_bend_c, 1, 8320
2, 148320, Pitch_bend_c, 1, 8192
2, 148480, Pitch_bend_c, 1, 8320
2, 148640, Pitch_bend_c, 1, 8192
2, 148800, Pitch_bend_c, 1, 8320
2, 148800, Pitch_bend_c, 1, 8192
2, 148800, Note_off_c, 1, 71, 47
2, 148800, Note_on_c, 1, 69, 47
2, 148920, Pitch_bend_c, 1, 7936
2, 149040, Pitch_bend_c, 1, 7552
2, 149040, Pitch_bend_c, 1, 8192
2, 149040, Note_off_c, 1, 69, 47
2, 149040, Note_on_c, 0, 68, 47
2, 149280, Note_off_c, 0, 68, 47
2, 149280, Note_on_c, 0, 66, 47
2, 149760, Note_off_c, 0, 66, 47
2, 149760, Note_on_c, 1, 64, 47
2, 149920, Pitch_bend_c, 1, 8192
2, 150080, Pitch_bend_c, 1, 8320
2, 150240, Pitch_bend_c, 1, 8192
2, 150400, Pitch_bend_c, 1, 8320
2, 150560, Pitch_bend_c, 1, 8192
2, 150720, Pitch_bend_c, 1, 8320
2, 150880, Pitch_bend_c, 1, 8192
2, 151040, Pitch_bend_c, 1, 8320
2, 151200, Pitch_bend_c, 1, 8192
2, 151200, Pitch_bend_c, 1, 8320
2, 151200, Pitch_bend_c, 1, 8192
2, 151200, Note_off_c, 1, 64, 47
2, 151200, Note_on_c, 0, 71, 47
2, 151440, Note_off_c, 0, 71, 47
2, 151440, Note_on_c, 0, 76, 47
2, 151680, Note_off_c, 0, 76, 47
2, 151680, Note_on_c, 1, 76, 47
2, 151840, Pitch_bend_c, 1, 8192
2, 152000, Pitch_bend_c, 1, 8320
2, 152160, Pitch_bend_c, 1, 8192
2, 152320, Pitch_bend_c, 1, 8320
2, 152480, Pitch_bend_c, 1, 8192
2, 152640, Pitch_bend_c, 1, 8320
2, 152800, Pitch_bend_c, 1, 8192
2, 152960, Pitch_bend_c, 1, 8320
2, 153120, Pitch_bend_c, 1, 8192
2, 153120, Pitch_bend_c, 1, 8320
2, 153120, Pitch_bend_c, 1, 8192
2, 153120, Note_off_c, 1, 76, 47
2, 153600, Note_on_c, 0, 64, 47
2, 155520, Note_off_c, 0, 64, 47
2, 155520, Note_on_c, 0, 66, 47
2, 157440, Note_off_c, 0, 66, 47
2, 157440, Note_on_c, 0, 68, 47
2, 159360, Note_off_c, 0, 68, 47
2, 167040, Note_on_c, 0, 66, 47
2, 167520, Note_off_c, 0, 66, 47
2, 167520, Note_on_c, 1, 71, 47
2, 167680, Pitch_bend_c, 1, 8192
2, 167840, Pitch_bend_c, 1, 8320
2, 168000, Pitch_bend_c, 1, 8192
2, 168000, Pitch_bend_c, 1, 8320
2, 168000, Pitch_bend_c, 1, 8192
2, 168000, Note_off_c, 1, 71, 47
2, 168000, Note_on_c, 1, 71, 47
2, 168160, Pitch_bend_c, 1, 8192
2, 168320, Pitch_bend_c, 1, 8320
2, 168480, Pitch_bend_c, 1, 8192
2, 168480, Pitch_bend_c, 1, 8320
2, 168480, Pitch_bend_c, 1, 8192
2, 168480, Note_off_c, 1, 71, 47
2, 168480, Note_on_c, 0, 66, 47
2, 168960, Note_off_c, 0, 66, 47
2, 168960, Note_on_c, 1, 69, 47
2, 169120, Pitch_bend_c, 1, 8192
2, 169280, Pitch_bend_c, 1, 8320
2, 169440, Pitch_bend_c, 1, 8192
2, 169600, Pitch_bend_c, 1, 8320
2, 169760, Pitch_bend_c, 1, 8192
2, 169920, Pitch_bend_c, 1, 8320
2, 170080, Pitch_bend_c, 1, 8192
2, 170240, Pitch_bend_c, 1, 8320
2, 170400, Pitch_bend_c, 1, 8192
2, 170560, Pitch_bend_c, 1, 8320
2, 170720, Pitch_bend_c, 1, 8192
2, 170880, Pitch_bend_c, 1, 8320
2, 170880, Pitch_bend_c, 1, 8192
2, 170880, Note_off_c, 1, 69, 47
2, 172800, Note_on_c, 1, 76, 47
2, 172960, Pitch_bend_c, 1, 8192
2, 173120, Pitch_bend_c, 1, 8320
2, 173280, Pitch_bend_c, 1, 8192
2, 173440, Pitch_bend_c, 1, 8320
2, 173600, Pitch_bend_c, 1, 8192
2, 173760, Pitch_bend_c, 1, 8320
2, 173920, Pitch_bend_c, 1, 8192
2, 174080, Pitch_bend_c, 1, 8320
2, 174240, Pitch_bend_c, 1, 8192
2, 174400, Pitch_bend_c, 1, 8320
2, 174560, Pitch_bend_c, 1, 8192
2, 174720, Pitch_bend_c, 1, 8320
2, 174720, Pitch_bend_c, 1, 8192
2, 174720, Note_off_c, 1, 76, 47
2, 176640, Note_on_c, 1, 73, 47
2, 176800, Pitch_bend_c, 1, 8192
2, 176960, Pitch_bend_c, 1, 8320
2, 177120, Pitch_bend_c, 1, 8192
2, 177280, Pitch_bend_c, 1, 8320
2, 177440, Pitch_bend_c, 1, 8192
2, 177600, Pitch_bend_c, 1, 8320
2, 177760, Pitch_bend_c, 1, 8192
2, 177920, Pitch_bend_c, 1, 8320
2, 178080, Pitch_bend_c, 1, 8192
2, 178240, Pitch_bend_c, 1, 8320
2, 178400, Pitch_bend_c, 1, 8192
2, 178560, Pitch_bend_c, 1, 8320
2, 178560, Pitch_bend_c, 1, 8192
2, 178560, Note_off_c, 1, 73, 47
2, 178560, Note_on_c, 1, 71, 47
2, 178720, Pitch_bend_c, 1, 8192
2, 178880, Pitch_bend_c, 1, 8320
2, 179040, Pitch_bend_c, 1, 8192
2, 179200, Pitch_bend_c, 1, 8320
2, 179360, Pitch_bend_c, 1, 8192
2, 179520, Pitch_bend_c, 1, 8320
2, 179520, Pitch_bend_c, 1, 8192
2, 179520, Note_off_c, 1, 71, 47
2, 179520, Note_on_c, 1, 69, 47
2, 179640, Pitch_bend_c, 1, 7936
2, 179760, Pitch_bend_c, 1, 7552
2, 179760, Pitch_bend_c, 1, 8192
2, 179760, Note_off_c, 1, 69, 47
2, 179760, Note_on_c, 0, 68, 47
2, 180000, Note_off_c, 0, 68, 47
2, 180000, Note_on_c, 0, 64, 47
2, 180480, Note_off_c, 0, 64, 47
2, 180480, Note_on_c, 1, 64, 47
2, 180640, Pitch_bend_c, 1, 8192
2, 180800, Pitch_bend_c, 1, 8320
2, 180960, Pitch_bend_c, 1, 8192
2, 181120, Pitch_bend_c, 1, 8320
2, 181280, Pitch_bend_c, 1, 8192
2, 181440, Pitch_bend_c, 1, 8320
2, 181600, Pitch_bend_c, 1, 8192
2, 181760, Pitch_bend_c, 1, 8320
2, 181920, Pitch_bend_c, 1, 8192
2, 182080, Pitch_bend_c, 1, 8320
2, 182240, Pitch_bend_c, 1, 8192
2, 182400, Pitch_bend_c, 1, 8320
2, 182400, Pitch_bend_c, 1, 8192
2, 182400, Note_off_c, 1, 64, 47
2, 184320, Note_on_c, 1, 64, 47
2, 184480, Pitch_bend_c, 1, 8192
2, 184640, Pitch_bend_c, 1, 8320
2, 184800, Pitch_bend_c, 1, 8192
2, 184960, Pitch_bend_c, 1, 8320
2, 185120, Pitch_bend_c, 1, 8192
2, 185280, Pitch_bend_c, 1, 8320
2, 185440, Pitch_bend_c, 1, 8192
2, 185600, Pitch_bend_c, 1, 8320
2, 185760, Pitch_bend_c, 1, 8192
2, 185760, Pitch_bend_c, 1, 8320
2, 185760, Pitch_bend_c, 1, 8192
2, 185760, Note_off_c, 1, 64, 47
2, 185760, Note_on_c, 0, 64, 47
2, 186240, Note_off_c, 0, 64, 47
2, 186240, Note_on_c, 1, 63, 47
2, 186400, Pitch_bend_c, 1, 8192
2, 186560, Pitch_bend_c, 1, 8320
2, 186720, Pitch_bend_c, 1, 8192
2, 186880, Pitch_bend_c, 1, 8320
2, 187040, Pitch_bend_c, 1, 8192
2, 187200, Pitch_bend_c, 1, 8320
2, 187360, Pitch_bend_c, 1, 8192
2, 187520, Pitch_bend_c, 1, 8320
2, 187680, Pitch_bend_c, 1, 8192
2, 187680, Pitch_bend_c, 1, 8320
2, 187680, Pitch_bend_c, 1, 8192
2, 187680, Note_off_c, 1, 63, 47
2, 187680, Note_on_c, 1, 63, 47
2, 187800, Pitch_bend_c, 1, 7936
2, 187920, Pitch_bend_c, 1, 7552
2, 188040, Pitch_bend_c, 1, 7168
2, 188160, Pitch_bend_c, 1, 6784
2, 188160, Pitch_bend_c, 1, 8192
2, 188160, Note_off_c, 1, 63, 47
2, 188160, Note_on_c, 1, 61, 47
2, 188320, Pitch_bend_c, 1, 8192
2, 188480, Pitch_bend_c, 1, 8320
2, 188640, Pitch_bend_c, 1, 8192
2, 188800, Pitch_bend_c, 1, 8320
2, 188960, Pitch_bend_c, 1, 8192
2, 189120, Pitch_bend_c, 1, 8320
2, 189280, Pitch_bend_c, 1, 8192
2, 189440, Pitch_bend_c, 1, 8320
2, 189480, Note_on_c, 1, 61, 47
2, 189600, Pitch_bend_c, 1, 8192
2, 189600, Pitch_bend_c, 1, 8320
2, 189600, Pitch_bend_c, 1, 8192
2, 189600, Note_off_c, 1, 61, 47
2, 189600, Note_off_c, 1, 61, 47
2, 189600, Note_on_c, 1, 59, 47
2, 189720, Pitch_bend_c, 1, 8832
2, 189840, Pitch_bend_c, 1, 9600
2, 189960, Pitch_bend_c, 1, 10240
2, 190080, Pitch_bend_c, 1, 11008
2, 190080, Pitch_bend_c, 1, 8192
2, 190080, Note_off_c, 1, 59, 47
2, 190080, Note_on_c, 1, 63, 47
2, 190240, Pitch_bend_c, 1, 8192
2, 190400, Pitch_bend_c, 1, 8320
2, 190560, Pitch_bend_c, 1, 8192
2, 190720, Pitch_bend_c, 1, 8320
2, 190880, Pitch_bend_c, 1, 8192
2, 191040, Pitch_bend_c, 1, 8320
2, 191040, Pitch_bend_c, 1, 8192
2, 191040, Note_off_c, 1, 63, 47
2, 191040, Note_on_c, 0, 61, 47
2, 191520, Note_off_c, 0, 61, 47
2, 191520, Note_on_c, 0, 76, 47
2, 192000, Note_off_c, 0, 76, 47
2, 192000, Note_on_c, 1, 76, 47
2, 192160, Pitch_bend_c, 1, 8192
2, 192320, Pitch_bend_c, 1, 8320
2, 192480, Pitch_bend_c, 1, 8192
2, 192640, Pitch_bend_c, 1, 8320
2, 192800, Pitch_bend_c, 1, 8192
2, 192960, Pitch_bend_c, 1, 8320
2, 193120, Pitch_bend_c, 1, 8192
2, 193280, Pitch_bend_c, 1, 8320
2, 193440, Pitch_bend_c, 1, 8192
2, 193440, Pitch_bend_c, 1, 8320
2, 193440, Pitch_bend_c, 1, 8192
2, 193440, Note_off_c, 1, 76, 47
2, 193440, Note_on_c, 0, 76, 47
2, 193920, Note_off_c, 0, 76, 47
2, 193920, Note_on_c, 1, 75, 47
2, 194080, Pitch_bend_c, 1, 8192
2, 194240, Pitch_bend_c, 1, 8320
2, 194400, Pitch_bend_c, 1, 8192
2, 194560, Pitch_bend_c, 1, 8320
2, 194720, Pitch_bend_c, 1, 8192
2, 194880, Pitch_bend_c, 1, 8320
2, 195040, Pitch_bend_c, 1, 8192
2, 195200, Pitch_bend_c, 1, 8320
2, 195360, Pitch_bend_c, 1, 8192
2, 195360, Pitch_bend_c, 1, 8320
2, 195360, Pitch_bend_c, 1, 8192
2, 195360, Note_off_c, 1, 75, 47
2, 195360, Note_on_c, 1, 75, 47
2, 195480, Pitch_bend_c, 1, 7936
2, 195600, Pitch_bend_c, 1, 7552
2, 195720, Pitch_bend_c, 1, 7168
2, 195840, Pitch_bend_c, 1, 6784
2, 195840, Pitch_bend_c, 1, 8192
2, 195840, Note_off_c, 1, 75, 47
2, 195840, Note_on_c, 1, 73, 47
2, 196000, Pitch_bend_c, 1, 8192
2, 196160, Pitch_bend_c, 1, 8320
2, 196320, Pitch_bend_c, 1, 8192
2, 196480, Pitch_bend_c, 1, 8320
2, 196640, Pitch_bend_c, 1, 8192
2, 196800, Pitch_bend_c, 1, 8320
2, 196960, Pitch_bend_c, 1, 8192
2, 197120, Pitch_bend_c, 1, 8320
2, 197280, Pitch_bend_c, 1, 8192
2, 197280, Pitch_bend_c, 1, 8320
2, 197280, Pitch_bend_c, 1, 8192
2, 197280, Note_off_c, 1, 73, 47
2, 197280, Note_on_c, 1, 73, 47
2, 197400, Pitch_bend_c, 1, 7936
2, 197520, Pitch_bend_c, 1, 7552
2, 197640, Pitch_bend_c, 1, 7168
2, 197760, Pitch_bend_c, 1, 6784
2, 197760, Pitch_bend_c, 1, 8192
2, 197760, Note_off_c, 1, 73, 47
2, 197760, Note_on_c, 1, 71, 47
2, 197880, Pitch_bend_c, 1, 7936
2, 198000, Pitch_bend_c, 1, 7552
2, 198120, Pitch_bend_c, 1, 7168
2, 198240, Pitch_bend_c, 1, 6784
2, 198240, Pitch_bend_c, 1, 8192
2, 198240, Note_off_c, 1, 71, 47
2, 198240, Note_on_c, 0, 69, 47
2, 198720, Note_off_c, 0, 69, 47
2, 198720, Note_on_c, 1, 68, 47
2, 198840, Pitch_bend_c, 1, 8448
2, 198960, Pitch_bend_c, 1, 8832
2, 198960, Pitch_bend_c, 1, 8192
2, 198960, Note_off_c, 1, 68, 47
2, 198960, Note_on_c, 1, 69, 47
2, 199080, Pitch_bend_c, 1, 7936
2, 199200, Pitch_bend_c, 1, 7552
2, 199200, Pitch_bend_c, 1, 8192
2, 199200, Note_off_c, 1, 69, 47
2, 199200, Note_on_c, 0, 68, 47
2, 199680, Note_off_c, 0, 68, 47
2, 199680, Note_on_c, 1, 64, 47
2, 199840, Pitch_bend_c, 1, 8192
2, 200000, Pitch_bend_c, 1, 8320
2, 200160, Pitch_bend_c, 1, 8192
2, 200320, Pitch_bend_c, 1, 8320
2, 200480, Pitch_bend_c, 1, 8192
2, 200640, Pitch_bend_c, 1, 8320
2, 200800, Pitch_bend_c, 1, 8192
2, 200960, Pitch_bend_c, 1, 8320
2, 201120, Pitch_bend_c, 1, 8192
2, 201120, Pitch_bend_c, 1, 8320
2, 201120, Pitch_bend_c, 1, 8192
2, 201120, Note_off_c, 1, 64, 47
2, 201120, Note_on_c, 0, 64, 47
2, 201600, Note_off_c, 0, 64, 47
2, 201600, Note_on_c, 1, 63, 47
2, 201760, Pitch_bend_c, 1, 8192
2, 201920, Pitch_bend_c, 1, 8320
2, 202080, Pitch_bend_c, 1, 8192
2, 202240, Pitch_bend_c, 1, 8320
2, 202400, Pitch_bend_c, 1, 8192
2, 202560, Pitch_bend_c, 1, 8320
2, 202720, Pitch_bend_c, 1, 8192
2, 202880, Pitch_bend_c, 1, 8320
2, 203040, Pitch_bend_c, 1, 8192
2, 203040, Pitch_bend_c, 1, 8320
2, 203040, Pitch_bend_c, 1, 8192
2, 203040, Note_off_c, 1, 63, 47
2, 203040, Note_on_c, 1, 63, 47
2, 203160, Pitch_bend_c, 1, 7936
2, 203280, Pitch_bend_c, 1, 7552
2, 203400, Pitch_bend_c, 1, 7168
2, 203520, Pitch_bend_c, 1, 6784
2, 203520, Pitch_bend_c, 1, 8192
2, 203520, Note_off_c, 1, 63, 47
2, 203520, Note_on_c, 1, 61, 47
2, 203680, Pitch_bend_c, 1, 8192
2, 203840, Pitch_bend_c, 1, 8320
2, 204000, Pitch_bend_c, 1, 8192
2, 204160, Pitch_bend_c, 1, 8320
2, 204320, Pitch_bend_c, 1, 8192
2, 204480, Pitch_bend_c, 1, 8320
2, 204640, Pitch_bend_c, 1, 8192
2, 204800, Pitch_bend_c, 1, 8320
2, 204840, Note_on_c, 1, 61, 47
2, 204960, Pitch_bend_c, 1, 8192
2, 204960, Pitch_bend_c, 1, 8320
2, 204960, Pitch_bend_c, 1, 8192
2, 204960, Note_off_c, 1, 61, 47
2, 204960, Note_off_c, 1, 61, 47
2, 204960, Note_on_c, 1, 59, 47
2, 205080, Pitch_bend_c, 1, 8832
2, 205200, Pitch_bend_c, 1, 9600
2, 205320, Pitch_bend_c, 1, 10240
2, 205440, Pitch_bend_c, 1, 11008
2, 205440, Pitch_bend_c, 1, 8192
2, 205440, Note_off_c, 1, 59, 47
2, 205440, Note_on_c, 1, 63, 47
2, 205600, Pitch_bend_c, 1, 8192
2, 205760, Pitch_bend_c, 1, 8320
2, 205920, Pitch_bend_c, 1, 8192
2, 206080, Pitch_bend_c, 1, 8320
2, 206240, Pitch_bend_c, 1, 8192
2, 206400, Pitch_bend_c, 1, 8320
2, 206400, Pitch_bend_c, 1, 8192
2, 206400, Note_off_c, 1, 63, 47
2, 206400, Note_on_c, 0, 61, 47
2, 206880, Note_off_c, 0, 61, 47
2, 206880, Note_on_c, 0, 76, 47
2, 207360, Note_off_c, 0, 76, 47
2, 207360, Note_on_c, 1, 76, 47
2, 207520, Pitch_bend_c, 1, 8192
2, 207680, Pitch_bend_c, 1, 8320
2, 207840, Pitch_bend_c, 1, 8192
2, 208000, Pitch_bend_c, 1, 8320
2, 208160, Pitch_bend_c, 1, 8192
2, 208320, Pitch_bend_c, 1, 8320
2, 208480, Pitch_bend_c, 1, 8192
2, 208640, Pitch_bend_c, 1, 8320
2, 208800, Pitch_bend_c, 1, 8192
2, 208800, Pitch_bend_c, 1, 8320
2, 208800, Pitch_bend_c, 1, 8192
2, 208800, Note_off_c, 1, 76, 47
2, 208800, Note_on_c, 0, 76, 47
2, 209280, Note_off_c, 0, 76, 47
2, 209280, Note_on_c, 1, 75, 47
2, 209440, Pitch_bend_c, 1, 8192
2, 209600, Pitch_bend_c, 1, 8320
2, 209760, Pitch_bend_c, 1, 8192
2, 209920, Pitch_bend_c, 1, 8320
2, 210080, Pitch_bend_c, 1, 8192
2, 210240, Pitch_bend_c, 1, 8320
2, 210400, Pitch_bend_c, 1, 8192
2, 210560, Pitch_bend_c, 1, 8320
2, 210720, Pitch_bend_c, 1, 8192
2, 210720, Pitch_bend_c, 1, 8320
2, 210720, Pitch_bend_c, 1, 8192
2, 210720, Note_off_c, 1, 75, 47
2, 210720, Note_on_c, 1, 75, 47
2, 210840, Pitch_bend_c, 1, 7936
2, 210960, Pitch_bend_c, 1, 7552
2, 211080, Pitch_bend_c, 1, 7168
2, 211200, Pitch_bend_c, 1, 6784
2, 211200, Pitch_bend_c, 1, 8192
2, 211200, Note_off_c, 1, 75, 47
2, 211200, Note_on_c, 1, 73, 47
2, 211360, Pitch_bend_c, 1, 8192
2, 211520, Pitch_bend_c, 1, 8320
2, 211680, Pitch_bend_c, 1, 8192
2, 211840, Pitch_bend_c, 1, 8320
2, 212000, Pitch_bend_c, 1, 8192
2, 212160, Pitch_bend_c, 1, 8320
2, 212320, Pitch_bend_c, 1, 8192
2, 212480, Pitch_bend_c, 1, 8320
2, 212640, Pitch_bend_c, 1, 8192
2, 212640, Pitch_bend_c, 1, 8320
2, 212640, Pitch_bend_c, 1, 8192
2, 212640, Note_off_c, 1, 73, 47
2, 212640, Note_on_c, 1, 73, 47
2, 212760, Pitch_bend_c, 1, 7936
2, 212880, Pitch_bend_c, 1, 7552
2, 213000, Pitch_bend_c, 1, 7168
2, 213120, Pitch_bend_c, 1, 6784
2, 213120, Pitch_bend_c, 1, 8192
2, 213120, Note_off_c, 1, 73, 47
2, 213120, Note_on_c, 1, 71, 47
2, 213240, Pitch_bend_c, 1, 7936
2, 213360, Pitch_bend_c, 1, 7552
2, 213480, Pitch_bend_c, 1, 7168
2, 213600, Pitch_bend_c, 1, 6784
2, 213600, Pitch_bend_c, 1, 8192
2, 213600, Note_off_c, 1, 71, 47
2, 213600, Note_on_c, 0, 69, 47
2, 214080, Note_off_c, 0, 69, 47
2, 214080, Note_on_c, 1, 68, 47
2, 214200, Pitch_bend_c, 1, 8448
2, 214320, Pitch_bend_c, 1, 8832
2, 214320, Pitch_bend_c, 1, 8192
2, 214320, Note_off_c, 1, 68, 47
2, 214320, Note_on_c, 1, 69, 47
2, 214440, Pitch_bend_c, 1, 7936
2, 214560, Pitch_bend_c, 1, 7552
2, 214560, Pitch_bend_c, 1, 8192
2, 214560, Note_off_c, 1, 69, 47
2, 214560, Note_on_c, 0, 68, 47
2, 215040, Note_off_c, 0, 68, 47
2, 215040, Note_on_c, 1, 64, 47
2, 215200, Pitch_bend_c, 1, 8192
2, 215360, Pitch_bend_c, 1, 8320
2, 215520, Pitch_bend_c, 1, 8192
2, 215680, Pitch_bend_c, 1, 8320
2, 215840, Pitch_bend_c, 1, 8192
2, 216000, Pitch_bend_c, 1, 8320
2, 216160, Pitch_bend_c, 1, 8192
2, 216320, Pitch_bend_c, 1, 8320
2, 216480, Pitch_bend_c, 1, 8192
2, 216480, Pitch_bend_c, 1, 8320
2, 216480, Pitch_bend_c, 1, 8192
2, 216480, Note_off_c, 1, 64, 47
2, 216480, Note_on_c, 0, 64, 47
2, 216960, Note_off_c, 0, 64, 47
2, 216960, Note_on_c, 1, 63, 47
2, 217120, Pitch_bend_c, 1, 8192
2, 217280, Pitch_bend_c, 1, 8320
2, 217440, Pitch_bend_c, 1, 8192
2, 217600, Pitch_bend_c, 1, 8320
2, 217760, Pitch_bend_c, 1, 8192
2, 217920, Pitch_bend_c, 1, 8320
2, 218080, Pitch_bend_c, 1, 8192
2, 218240, Pitch_bend_c, 1, 8320
2, 218400, Pitch_bend_c, 1, 8192
2, 218400, Pitch_bend_c, 1, 8320
2, 218400, Pitch_bend_c, 1, 8192
2, 218400, Note_off_c, 1, 63, 47
2, 218400, Note_on_c, 1, 63, 47
2, 218520, Pitch_bend_c, 1, 7936
2, 218640, Pitch_bend_c, 1, 7552
2, 218760, Pitch_bend_c, 1, 7168
2, 218880, Pitch_bend_c, 1, 6784
2, 218880, Pitch_bend_c, 1, 8192
2, 218880, Note_off_c, 1, 63, 47
2, 218880, Note_on_c, 1, 61, 47
2, 219040, Pitch_bend_c, 1, 8192
2, 219200, Pitch_bend_c, 1, 8320
2, 219360, Pitch_bend_c, 1, 8192
2, 219520, Pitch_bend_c, 1, 8320
2, 219680, Pitch_bend_c, 1, 8192
2, 219840, Pitch_bend_c, 1, 8320
2, 220000, Pitch_bend_c, 1, 8192
2, 220160, Pitch_bend_c, 1, 8320
2, 220200, Note_on_c, 1, 61, 47
2, 220320, Pitch_bend_c, 1, 8192
2, 220320, Pitch_bend_c, 1, 8320
2, 220320, Pitch_bend_c, 1, 8192
2, 220320, Note_off_c, 1, 61, 47
2, 220320, Note_off_c, 1, 61, 47
2, 220320, Note_on_c, 1, 59, 47
2, 220440, Pitch_bend_c, 1, 8832
2, 220560, Pitch_bend_c, 1, 9600
2, 220680, Pitch_bend_c, 1, 10240
2, 220800, Pitch_bend_c, 1, 11008
2, 220800, Pitch_bend_c, 1, 8192
2, 220800, Note_off_c, 1, 59, 47
2, 220800, Note_on_c, 1, 63, 47
2, 220960, Pitch_bend_c, 1, 8192
2, 221120, Pitch_bend_c, 1, 8320
2, 221280, Pitch_bend_c, 1, 8192
2, 221440, Pitch_bend_c, 1, 8320
2, 221600, Pitch_bend_c, 1, 8192
2, 221760, Pitch_bend_c, 1, 8320
2, 221760, Pitch_bend_c, 1, 8192
2, 221760, Note_off_c, 1, 63, 47
2, 221760, Note_on_c, 0, 61, 47
2, 222240, Note_off_c, 0, 61, 47
2, 222240, Note_on_c, 0, 76, 47
2, 222720, Note_off_c, 0, 76, 47
2, 222720, Note_on_c, 1, 76, 47
2, 222880, Pitch_bend_c, 1, 8192
2, 223040, Pitch_bend_c, 1, 8320
2, 223200, Pitch_bend_c, 1, 8192
2, 223360, Pitch_bend_c, 1, 8320
2, 223520, Pitch_bend_c, 1, 8192
2, 223680, Pitch_bend_c, 1, 8320
2, 223840, Pitch_bend_c, 1, 8192
2, 224000, Pitch_bend_c, 1, 8320
2, 224160, Pitch_bend_c, 1, 8192
2, 224160, Pitch_bend_c, 1, 8320
2, 224160, Pitch_bend_c, 1, 8192
2, 224160, Note_off_c, 1, 76, 47
2, 224160, Note_on_c, 0, 76, 47
2, 224640, Note_off_c, 0, 76, 47
2, 224640, Note_on_c, 1, 75, 47
2, 224800, Pitch_bend_c, 1, 8192
2, 224960, Pitch_bend_c, 1, 8320
2, 225120, Pitch_bend_c, 1, 8192
2, 225280, Pitch_bend_c, 1, 8320
2, 225440, Pitch_bend_c, 1, 8192
2, 225600, Pitch_bend_c, 1, 8320
2, 225760, Pitch_bend_c, 1, 8192
2, 225920, Pitch_bend_c, 1, 8320
2, 226080, Pitch_bend_c, 1, 8192
2, 226080, Pitch_bend_c, 1, 8320
2, 226080, Pitch_bend_c, 1, 8192
2, 226080, Note_off_c, 1, 75, 47
2, 226080, Note_on_c, 1, 75, 47
2, 226200, Pitch_bend_c, 1, 7936
2, 226320, Pitch_bend_c, 1, 7552
2, 226440, Pitch_bend_c, 1, 7168
2, 226560, Pitch_bend_c, 1, 6784
2, 226560, Pitch_bend_c, 1, 8192
2, 226560, Note_off_c, 1, 75, 47
2, 226560, Note_on_c, 1, 73, 47
2, 226720, Pitch_bend_c, 1, 8192
2, 226880, Pitch_bend_c, 1, 8320
2, 227040, Pitch_bend_c, 1, 8192
2, 227200, Pitch_bend_c, 1, 8320
2, 227360, Pitch_bend_c, 1, 8192
2, 227520, Pitch_bend_c, 1, 8320
2, 227680, Pitch_bend_c, 1, 8192
2, 227840, Pitch_bend_c, 1, 8320
2, 228000, Pitch_bend_c, 1, 8192
2, 228000, Pitch_bend_c, 1, 8320
2, 228000, Pitch_bend_c, 1, 8192
2, 228000, Note_off_c, 1, 73, 47
2, 228000, Note_on_c, 1, 73, 47
2, 228120, Pitch_bend_c, 1, 7936
2, 228240, Pitch_bend_c, 1, 7552
2, 228360, Pitch_bend_c, 1, 7168
2, 228480, Pitch_bend_c, 1, 6784
2, 228480, Pitch_bend_c, 1, 8192
2, 228480, Note_off_c, 1, 73, 47
2, 228480, Note_on_c, 1, 71, 47
2, 228600, Pitch_bend_c, 1, 7936
2, 228720, Pitch_bend_c, 1, 7552
2, 228840, Pitch_bend_c, 1, 7168
2, 228960, Pitch_bend_c, 1, 6784
2, 228960, Pitch_bend_c, 1, 8192
2, 228960, Note_off_c, 1, 71, 47
2, 228960, Note_on_c, 0, 69, 47
2, 229440, Note_off_c, 0, 69, 47
2, 229440, Note_on_c, 1, 68, 47
2, 229560, Pitch_bend_c, 1, 8448
2, 229680, Pitch_bend_c, 1, 8832
2, 229680, Pitch_bend_c, 1, 8192
2, 229680, Note_off_c, 1, 68, 47
2, 229680, Note_on_c, 1, 69, 47
2, 229800, Pitch_bend_c, 1, 7936
2, 229920, Pitch_bend_c, 1, 7552
2, 229920, Pitch_bend_c, 1, 8192
2, 229920, Note_off_c, 1, 69, 47
2, 229920, Note_on_c, 0, 68, 47
2, 230400, Note_off_c, 0, 68, 47
2, 230400, Note_on_c, 1, 64, 47
2, 230560, Pitch_bend_c, 1, 8192
2, 230720, Pitch_bend_c, 1, 8320
2, 230880, Pitch_bend_c, 1, 8192
2, 231040, Pitch_bend_c, 1, 8320
2, 231200, Pitch_bend_c, 1, 8192
2, 231360, Pitch_bend_c, 1, 8320
2, 231520, Pitch_bend_c, 1, 8192
2, 231680, Pitch_bend_c, 1, 8320
2, 231840, Pitch_bend_c, 1, 8192
2, 231840, Pitch_bend_c, 1, 8320
2, 231840, Pitch_bend_c, 1, 8192
2, 231840, Note_off_c, 1, 64, 47
2, 231840, Note_on_c, 0, 64, 47
2, 232320, Note_off_c, 0, 64, 47
2, 232320, Note_on_c, 1, 63, 47
2, 232480, Pitch_bend_c, 1, 8192
2, 232640, Pitch_bend_c, 1, 8320
2, 232800, Pitch_bend_c, 1, 8192
2, 232960, Pitch_bend_c, 1, 8320
2, 233120, Pitch_bend_c, 1, 8192
2, 233280, Pitch_bend_c, 1, 8320
2, 233440, Pitch_bend_c, 1, 8192
2, 233600, Pitch_bend_c, 1, 8320
2, 233760, Pitch_bend_c, 1, 8192
2, 233760, Pitch_bend_c, 1, 8320
2, 233760, Pitch_bend_c, 1, 8192
2, 233760, Note_off_c, 1, 63, 47
2, 233760, Note_on_c, 1, 63, 47
2, 233880, Pitch_bend_c, 1, 7936
2, 234000, Pitch_bend_c, 1, 7552
2, 234120, Pitch_bend_c, 1, 7168
2, 234240, Pitch_bend_c, 1, 6784
2, 234240, Pitch_bend_c, 1, 8192
2, 234240, Note_off_c, 1, 63, 47
2, 234240, Note_on_c, 1, 61, 47
2, 234400, Pitch_bend_c, 1, 8192
2, 234560, Pitch_bend_c, 1, 8320
2, 234720, Pitch_bend_c, 1, 8192
2, 234880, Pitch_bend_c, 1, 8320
2, 235040, Pitch_bend_c, 1, 8192
2, 235200, Pitch_bend_c, 1, 8320
2, 235360, Pitch_bend_c, 1, 8192
2, 235520, Pitch_bend_c, 1, 8320
2, 235560, Note_on_c, 1, 61, 47
2, 235680, Pitch_bend_c, 1, 8192
2, 235680, Pitch_bend_c, 1, 8320
2, 235680, Pitch_bend_c, 1, 8192
2, 235680, Note_off_c, 1, 61, 47
2, 235680, Note_off_c, 1, 61, 47
2, 235680, Note_on_c, 1, 59, 47
2, 235800, Pitch_bend_c, 1, 8832
2, 235920, Pitch_bend_c, 1, 9600
2, 236040, Pitch_bend_c, 1, 10240
2, 236160, Pitch_bend_c, 1, 11008
2, 236160, Pitch_bend_c, 1, 8192
2, 236160, Note_off_c, 1, 59, 47
2, 236160, Note_on_c, 1, 63, 47
2, 236320, Pitch_bend_c, 1, 8192
2, 236480, Pitch_bend_c, 1, 8320
2, 236640, Pitch_bend_c, 1, 8192
2, 236800, Pitch_bend_c, 1, 8320
2, 236960, Pitch_bend_c, 1, 8192
2, 237120, Pitch_bend_c, 1, 8320
2, 237120, Pitch_bend_c, 1, 8192
2, 237120, Note_off_c, 1, 63, 47
2, 237120, Note_on_c, 0, 61, 47
2, 237600, Note_off_c, 0, 61, 47
2, 237600, Note_on_c, 0, 76, 47
2, 238080, Note_off_c, 0, 76, 47
2, 238080, Note_on_c, 1, 76, 47
2, 238240, Pitch_bend_c, 1, 8192
2, 238400, Pitch_bend_c, 1, 8320
2, 238560, Pitch_bend_c, 1, 8192
2, 238720, Pitch_bend_c, 1, 8320
2, 238880, Pitch_bend_c, 1, 8192
2, 239040, Pitch_bend_c, 1, 8320
2, 239200, Pitch_bend_c, 1, 8192
2, 239360, Pitch_bend_c, 1, 8320
2, 239520, Pitch_bend_c, 1, 8192
2, 239520, Pitch_bend_c, 1, 8320
2, 239520, Pitch_bend_c, 1, 8192
2, 239520, Note_off_c, 1, 76, 47
2, 239520, Note_on_c, 0, 76, 47
2, 240000, Note_off_c, 0, 76, 47
2, 240000, Note_on_c, 1, 75, 47
2, 240160, Pitch_bend_c, 1, 8192
2, 240320, Pitch_bend_c, 1, 8320
2, 240480, Pitch_bend_c, 1, 8192
2, 240640, Pitch_bend_c, 1, 8320
2, 240800, Pitch_bend_c, 1, 8192
2, 240960, Pitch_bend_c, 1, 8320
2, 241120, Pitch_bend_c, 1, 8192
2, 241280, Pitch_bend_c, 1, 8320
2, 241440, Pitch_bend_c, 1, 8192
2, 241440, Pitch_bend_c, 1, 8320
2, 241440, Pitch_bend_c, 1, 8192
2, 241440, Note_off_c, 1, 75, 47
2, 241440, Note_on_c, 1, 75, 47
2, 241560, Pitch_bend_c, 1, 7936
2, 241680, Pitch_bend_c, 1, 7552
2, 241800, Pitch_bend_c, 1, 7168
2, 241920, Pitch_bend_c, 1, 6784
2, 241920, Pitch_bend_c, 1, 8192
2, 241920, Note_off_c, 1, 75, 47
2, 241920, Note_on_c, 1, 73, 47
2, 242080, Pitch_bend_c, 1, 8192
2, 242240, Pitch_bend_c, 1, 8320
2, 242400, Pitch_bend_c, 1, 8192
2, 242560, Pitch_bend_c, 1, 8320
2, 242720, Pitch_bend_c, 1, 8192
2, 242880, Pitch_bend_c, 1, 8320
2, 243040, Pitch_bend_c, 1, 8192
2, 243200, Pitch_bend_c, 1, 8320
2, 243360, Pitch_bend_c, 1, 8192
2, 243360, Pitch_bend_c, 1, 8320
2, 243360, Pitch_bend_c, 1, 8192
2, 243360, Note_off_c, 1, 73, 47
2, 243360, Note_on_c, 1, 73, 47
2, 243480, Pitch_bend_c, 1, 7936
2, 243600, Pitch_bend_c, 1, 7552
2, 243720, Pitch_bend_c, 1, 7168
2, 243840, Pitch_bend_c, 1, 6784
2, 243840, Pitch_bend_c, 1, 8192
2, 243840, Note_off_c, 1, 73, 47
2, 243840, Note_on_c, 1, 71, 47
2, 243960, Pitch_bend_c, 1, 7936
2, 244080, Pitch_bend_c, 1, 7552
2, 244200, Pitch_bend_c, 1, 7168
2, 244320, Pitch_bend_c, 1, 6784
2, 244320, Pitch_bend_c, 1, 8192
2, 244320, Note_off_c, 1, 71, 47
2, 244320, Note_on_c, 0, 69, 47
2, 244800, Note_off_c, 0, 69, 47
2, 244800, Note_on_c, 1, 68, 47
2, 244920, Pitch_bend_c, 1, 8448
2, 245040, Pitch_bend_c, 1, 8832
2, 245040, Pitch_bend_c, 1, 8192
2, 245040, Note_off_c, 1, 68, 47
2, 245040, Note_on_c, 1, 69, 47
2, 245160, Pitch_bend_c, 1, 7936
2, 245280, Pitch_bend_c, 1, 7552
2, 245280, Pitch_bend_c, 1, 8192
2, 245280, Note_off_c, 1, 69, 47
2, 245280, Note_on_c, 0, 68, 47
2, 245760, Note_off_c, 0, 68, 47
2, 245760, Note_on_c, 1, 64, 47
2, 245920, Pitch_bend_c, 1, 8192
2, 246080, Pitch_bend_c, 1, 8320
2, 246240, Pitch_bend_c, 1, 8192
2, 246400, Pitch_bend_c, 1, 8320
2, 246560, Pitch_bend_c, 1, 8192
2, 246720, Pitch_bend_c, 1, 8320
2, 246880, Pitch_bend_c, 1, 8192
2, 247040, Pitch_bend_c, 1, 8320
2, 247200, Pitch_bend_c, 1, 8192
2, 247200, Pitch_bend_c, 1, 8320
2, 247200, Pitch_bend_c, 1, 8192
2, 247200, Note_off_c, 1, 64, 47
2, 247200, Note_on_c, 0, 64, 47
2, 247680, Note_off_c, 0, 64, 47
2, 247680, Note_on_c, 1, 63, 47
2, 247840, Pitch_bend_c, 1, 8192
2, 248000, Pitch_bend_c, 1, 8320
2, 248160, Pitch_bend_c, 1, 8192
2, 248320, Pitch_bend_c, 1, 8320
2, 248480, Pitch_bend_c, 1, 8192
2, 248640, Pitch_bend_c, 1, 8320
2, 248800, Pitch_bend_c, 1, 8192
2, 248960, Pitch_bend_c, 1, 8320
2, 249120, Pitch_bend_c, 1, 8192
2, 249120, Pitch_bend_c, 1, 8320
2, 249120, Pitch_bend_c, 1, 8192
2, 249120, Note_off_c, 1, 63, 47
2, 249120, Note_on_c, 1, 63, 47
2, 249240, Pitch_bend_c, 1, 7936
2, 249360, Pitch_bend_c, 1, 7552
2, 249480, Pitch_bend_c, 1, 7168
2, 249600, Pitch_bend_c, 1, 6784
2, 249600, Pitch_bend_c, 1, 8192
2, 249600, Note_off_c, 1, 63, 47
2, 249600, Note_on_c, 1, 61, 47
2, 249760, Pitch_bend_c, 1, 8192
2, 249920, Pitch_bend_c, 1, 8320
2, 250080, Pitch_bend_c, 1, 8192
2, 250240, Pitch_bend_c, 1, 8320
2, 250400, Pitch_bend_c, 1, 8192
2, 250560, Pitch_bend_c, 1, 8320
2, 250720, Pitch_bend_c, 1, 8192
2, 250880, Pitch_bend_c, 1, 8320
2, 250920, Note_on_c, 1, 61, 47
2, 251040, Pitch_bend_c, 1, 8192
2, 251040, Pitch_bend_c, 1, 8320
2, 251040, Pitch_bend_c, 1, 8192
2, 251040, Note_off_c, 1, 61, 47
2, 251040, Note_off_c, 1, 61, 47
2, 251040, Note_on_c, 1, 59, 47
2, 251160, Pitch_bend_c, 1, 8832
2, 251280, Pitch_bend_c, 1, 9600
2, 251400, Pitch_bend_c, 1, 10240
2, 251520, Pitch_bend_c, 1, 11008
2, 251520, Pitch_bend_c, 1, 8192
2, 251520, Note_off_c, 1, 59, 47
2, 251520, Note_on_c, 1, 63, 47
2, 251680, Pitch_bend_c, 1, 8192
2, 251840, Pitch_bend_c, 1, 8320
2, 252000, Pitch_bend_c, 1, 8192
2, 252160, Pitch_bend_c, 1, 8320
2, 252320, Pitch_bend_c, 1, 8192
2, 252480, Pitch_bend_c, 1, 8320
2, 252480, Pitch_bend_c, 1, 8192
2, 252480, Note_off_c, 1, 63, 47
2, 252480, Note_on_c, 0, 61, 47
2, 252960, Note_off_c, 0, 61, 47
2, 252960, Note_on_c, 0, 76, 47
2, 253440, Note_off_c, 0, 76, 47
2, 253440, Note_on_c, 1, 76, 47
2, 253600, Pitch_bend_c, 1, 8192
2, 253760, Pitch_bend_c, 1, 8320
2, 253920, Pitch_bend_c, 1, 8192
2, 254080, Pitch_bend_c, 1, 8320
2, 254240, Pitch_bend_c, 1, 8192
2, 254400, Pitch_bend_c, 1, 8320
2, 254560, Pitch_bend_c, 1, 8192
2, 254720, Pitch_bend_c, 1, 8320
2, 254880, Pitch_bend_c, 1, 8192
2, 254880, Pitch_bend_c, 1, 8320
2, 254880, Pitch_bend_c, 1, 8192
2, 254880, Note_off_c, 1, 76, 47
2, 254880, Note_on_c, 0, 76, 47
2, 255360, Note_off_c, 0, 76, 47
2, 255360, Note_on_c, 1, 75, 47
2, 255520, Pitch_bend_c, 1, 8192
2, 255680, Pitch_bend_c, 1, 8320
2, 255840, Pitch_bend_c, 1, 8192
2, 256000, Pitch_bend_c, 1, 8320
2, 256160, Pitch_bend_c, 1, 8192
2, 256320, Pitch_bend_c, 1, 8320
2, 256480, Pitch_bend_c, 1, 8192
2, 256640, Pitch_bend_c, 1, 8320
2, 256800, Pitch_bend_c, 1, 8192
2, 256800, Pitch_bend_c, 1, 8320
2, 256800, Pitch_bend_c, 1, 8192
2, 256800, Note_off_c, 1, 75, 47
2, 256800, Note_on_c, 1, 75, 47
2, 256920, Pitch_bend_c, 1, 7936
2, 257040, Pitch_bend_c, 1, 7552
2, 257160, Pitch_bend_c, 1, 7168
2, 257280, Pitch_bend_c, 1, 6784
2, 257280, Pitch_bend_c, 1, 8192
2, 257280, Note_off_c, 1, 75, 47
2, 257280, Note_on_c, 1, 73, 47
2, 257440, Pitch_bend_c, 1, 8192
2, 257600, Pitch_bend_c, 1, 8320
2, 257760, Pitch_bend_c, 1, 8192
2, 257920, Pitch_bend_c, 1, 8320
2, 258080, Pitch_bend_c, 1, 8192
2, 258240, Pitch_bend_c, 1, 8320
2, 258400, Pitch_bend_c, 1, 8192
2, 258560, Pitch_bend_c, 1, 8320
2, 258720, Pitch_bend_c, 1, 8192
2, 258720, Pitch_bend_c, 1, 8320
2, 258720, Pitch_bend_c, 1, 8192
2, 258720, Note_off_c, 1, 73, 47
2, 258720, Note_on_c, 1, 73, 47
2, 258840, Pitch_bend_c, 1, 7936
2, 258960, Pitch_bend_c, 1, 7552
2, 259080, Pitch_bend_c, 1, 7168
2, 259200, Pitch_bend_c, 1, 6784
2, 259200, Pitch_bend_c, 1, 8192
2, 259200, Note_off_c, 1, 73, 47
2, 259200, Note_on_c, 1, 71, 47
2, 259320, Pitch_bend_c, 1, 7936
2, 259440, Pitch_bend_c, 1, 7552
2, 259560, Pitch_bend_c, 1, 7168
2, 259680, Pitch_bend_c, 1, 6784
2, 259680, Pitch_bend_c, 1, 8192
2, 259680, Note_off_c, 1, 71, 47
2, 259680, Note_on_c, 0, 69, 47
2, 260160, Note_off_c, 0, 69, 47
2, 260160, Note_on_c, 1, 68, 47
2, 260280, Pitch_bend_c, 1, 8448
2, 260400, Pitch_bend_c, 1, 8832
2, 260400, Pitch_bend_c, 1, 8192
2, 260400, Note_off_c, 1, 68, 47
2, 260400, Note_on_c, 1, 69, 47
2, 260520, Pitch_bend_c, 1, 7936
2, 260640, Pitch_bend_c, 1, 7552
2, 260640, Pitch_bend_c, 1, 8192
2, 260640, Note_off_c, 1, 69, 47
2, 260640, Note_on_c, 0, 68, 47
2, 261120, Note_off_c, 0, 68, 47
2, 261120, Note_on_c, 1, 64, 47
2, 261280, Pitch_bend_c, 1, 8192
2, 261440, Pitch_bend_c, 1, 8320
2, 261600, Pitch_bend_c, 1, 8192
2, 261760, Pitch_bend_c, 1, 8320
2, 261920, Pitch_bend_c, 1, 8192
2, 262080, Pitch_bend_c, 1, 8320
2, 262240, Pitch_bend_c, 1, 8192
2, 262400, Pitch_bend_c, 1, 8320
2, 262560, Pitch_bend_c, 1, 8192
2, 262560, Pitch_bend_c, 1, 8320
2, 262560, Pitch_bend_c, 1, 8192
2, 262560, Note_off_c, 1, 64, 47
2, 262560, Note_on_c, 0, 64, 47
2, 263040, Note_off_c, 0, 64, 47
2, 263040, Note_on_c, 1, 63, 47
2, 263200, Pitch_bend_c, 1, 8192
2, 263360, Pitch_bend_c, 1, 8320
2, 263520, Pitch_bend_c, 1, 8192
2, 263680, Pitch_bend_c, 1, 8320
2, 263840, Pitch_bend_c, 1, 8192
2, 264000, Pitch_bend_c, 1, 8320
2, 264160, Pitch_bend_c, 1, 8192
2, 264320, Pitch_bend_c, 1, 8320
2, 264480, Pitch_bend_c, 1, 8192
2, 264480, Pitch_bend_c, 1, 8320
2, 264480, Pitch_bend_c, 1, 8192
2, 264480, Note_off_c, 1, 63, 47
2, 264480, Note_on_c, 1, 63, 47
2, 264600, Pitch_bend_c, 1, 7936
2, 264720, Pitch_bend_c, 1, 7552
2, 264840, Pitch_bend_c, 1, 7168
2, 264960, Pitch_bend_c, 1, 6784
2, 264960, Pitch_bend_c, 1, 8192
2, 264960, Note_off_c, 1, 63, 47
2, 264960, Note_on_c, 1, 61, 47
2, 265120, Pitch_bend_c, 1, 8192
2, 265280, Pitch_bend_c, 1, 8320
2, 265440, Pitch_bend_c, 1, 8192
2, 265600, Pitch_bend_c, 1, 8320
2, 265760, Pitch_bend_c, 1, 8192
2, 265920, Pitch_bend_c, 1, 8320
2, 266080, Pitch_bend_c, 1, 8192
2, 266240, Pitch_bend_c, 1, 8320
2, 266280, Note_on_c, 1, 61, 47
2, 266400, Pitch_bend_c, 1, 8192
2, 266400, Pitch_bend_c, 1, 8320
2, 266400, Pitch_bend_c, 1, 8192
2, 266400, Note_off_c, 1, 61, 47
2, 266400, Note_off_c, 1, 61, 47
2, 266400, Note_on_c, 1, 59, 47
2, 266520, Pitch_bend_c, 1, 8832
2, 266640, Pitch_bend_c, 1, 9600
2, 266760, Pitch_bend_c, 1, 10240
2, 266880, Pitch_bend_c, 1, 11008
2, 266880, Pitch_bend_c, 1, 8192
2, 266880, Note_off_c, 1, 59, 47
2, 266880, Note_on_c, 1, 63, 47
2, 267040, Pitch_bend_c, 1, 8192
2, 267200, Pitch_bend_c, 1, 8320
2, 267360, Pitch_bend_c, 1, 8192
2, 267520, Pitch_bend_c, 1, 8320
2, 267680, Pitch_bend_c, 1, 8192
2, 267840, Pitch_bend_c, 1, 8320
2, 267840, Pitch_bend_c, 1, 8192
2, 267840, Note_off_c, 1, 63, 47
2, 267840, Note_on_c, 0, 61, 47
2, 268320, Note_off_c, 0, 61, 47
2, 268320, Note_on_c, 0, 76, 47
2, 268800, Note_off_c, 0, 76, 47
2, 268800, Note_on_c, 1, 76, 47
2, 268960, Pitch_bend_c, 1, 8192
2, 269120, Pitch_bend_c, 1, 8320
2, 269280, Pitch_bend_c, 1, 8192
2, 269440, Pitch_bend_c, 1, 8320
2, 269600, Pitch_bend_c, 1, 8192
2, 269760, Pitch_bend_c, 1, 8320
2, 269920, Pitch_bend_c, 1, 8192
2, 270080, Pitch_bend_c, 1, 8320
2, 270240, Pitch_bend_c, 1, 8192
2, 270240, Pitch_bend_c, 1, 8320
2, 270240, Pitch_bend_c, 1, 8192
2, 270240, Note_off_c, 1, 76, 47
2, 270240, Note_on_c, 0, 76, 47
2, 270720, Note_off_c, 0, 76, 47
2, 270720, Note_on_c, 1, 75, 47
2, 270880, Pitch_bend_c, 1, 8192
2, 271040, Pitch_bend_c, 1, 8320
2, 271200, Pitch_bend_c, 1, 8192
2, 271360, Pitch_bend_c, 1, 8320
2, 271520, Pitch_bend_c, 1, 8192
2, 271680, Pitch_bend_c, 1, 8320
2, 271840, Pitch_bend_c, 1, 8192
2, 272000, Pitch_bend_c, 1, 8320
2, 272160, Pitch_bend_c, 1, 8192
2, 272160, Pitch_bend_c, 1, 8320
2, 272160, Pitch_bend_c, 1, 8192
2, 272160, Note_off_c, 1, 75, 47
2, 272160, Note_on_c, 1, 75, 47
2, 272280, Pitch_bend_c, 1, 7936
2, 272400, Pitch_bend_c, 1, 7552
2, 272520, Pitch_bend_c, 1, 7168
2, 272640, Pitch_bend_c, 1, 6784
2, 272640, Pitch_bend_c, 1, 8192
2, 272640, Note_off_c, 1, 75, 47
2, 272640, Note_on_c, 1, 73, 47
2, 272800, Pitch_bend_c, 1, 8192
2, 272960, Pitch_bend_c, 1, 8320
2, 273120, Pitch_bend_c, 1, 8192
2, 273280, Pitch_bend_c, 1, 8320
2, 273440, Pitch_bend_c, 1, 8192
2, 273600, Pitch_bend_c, 1, 8320
2, 273760, Pitch_bend_c, 1, 8192
2, 273920, Pitch_bend_c, 1, 8320
2, 274080, Pitch_bend_c, 1, 8192
2, 274080, Pitch_bend_c, 1, 8320
2, 274080, Pitch_bend_c, 1, 8192
2, 274080, Note_off_c, 1, 73, 47
2, 274080, Note_on_c, 1, 73, 47
2, 274200, Pitch_bend_c, 1, 7936
2, 274320, Pitch_bend_c, 1, 7552
2, 274440, Pitch_bend_c, 1, 7168
2, 274560, Pitch_bend_c, 1, 6784
2, 274560, Pitch_bend_c, 1, 8192
2, 274560, Note_off_c, 1, 73, 47
2, 274560, Note_on_c, 1, 71, 47
2, 274680, Pitch_bend_c, 1, 7936
2, 274800, Pitch_bend_c, 1, 7552
2, 274920, Pitch_bend_c, 1, 7168
2, 275040, Pitch_bend_c, 1, 6784
2, 275040, Pitch_bend_c, 1, 8192
2, 275040, Note_off_c, 1, 71, 47
2, 275040, Note_on_c, 0, 69, 47
2, 275520, Note_off_c, 0, 69, 47
2, 275520, Note_on_c, 1, 68, 47
2, 275640, Pitch_bend_c, 1, 8448
2, 275760, Pitch_bend_c, 1, 8832
2, 275760, Pitch_bend_c, 1, 8192
2, 275760, Note_off_c, 1, 68, 47
2, 275760, Note_on_c, 1, 69, 47
2, 275880, Pitch_bend_c, 1, 7936
2, 276000, Pitch_bend_c, 1, 7552
2, 276000, Pitch_bend_c, 1, 8192
2, 276000, Note_off_c, 1, 69, 47
2, 276000, Note_on_c, 0, 68, 47
2, 276480, Note_off_c, 0, 68, 47
2, 276480, Note_on_c, 1, 64, 47
2, 276640, Pitch_bend_c, 1, 8192
2, 276800, Pitch_bend_c, 1, 8320
2, 276960, Pitch_bend_c, 1, 8192
2, 277120, Pitch_bend_c, 1, 8320
2, 277280, Pitch_bend_c, 1, 8192
2, 277440, Pitch_bend_c, 1, 8320
2, 277600, Pitch_bend_c, 1, 8192
2, 277760, Pitch_bend_c, 1, 8320
2, 277920, Pitch_bend_c, 1, 8192
2, 277920, Pitch_bend_c, 1, 8320
2, 277920, Pitch_bend_c, 1, 8192
2, 277920, Note_off_c, 1, 64, 47
2, 277920, Note_on_c, 0, 64, 47
2, 278400, Note_off_c, 0, 64, 47
2, 278400, Note_on_c, 1, 63, 47
2, 278560, Pitch_bend_c, 1, 8192
2, 278720, Pitch_bend_c, 1, 8320
2, 278880, Pitch_bend_c, 1, 8192
2, 279040, Pitch_bend_c, 1, 8320
2, 279200, Pitch_bend_c, 1, 8192
2, 279360, Pitch_bend_c, 1, 8320
2, 279520, Pitch_bend_c, 1, 8192
2, 279680, Pitch_bend_c, 1, 8320
2, 279840, Pitch_bend_c, 1, 8192
2, 279840, Pitch_bend_c, 1, 8320
2, 279840, Pitch_bend_c, 1, 8192
2, 279840, Note_off_c, 1, 63, 47
2, 279840, Note_on_c, 1, 63, 47
2, 279960, Pitch_bend_c, 1, 7936
2, 280080, Pitch_bend_c, 1, 7552
2, 280200, Pitch_bend_c, 1, 7168
2, 280320, Pitch_bend_c, 1, 6784
2, 280320, Pitch_bend_c, 1, 8192
2, 280320, Note_off_c, 1, 63, 47
2, 280320, Note_on_c, 1, 61, 47
2, 280480, Pitch_bend_c, 1, 8192
2, 280640, Pitch_bend_c, 1, 8320
2, 280800, Pitch_bend_c, 1, 8192
2, 280960, Pitch_bend_c, 1, 8320
2, 281120, Pitch_bend_c, 1, 8192
2, 281280, Pitch_bend_c, 1, 8320
2, 281440, Pitch_bend_c, 1, 8192
2, 281600, Pitch_bend_c, 1, 8320
2, 281640, Note_on_c, 1, 61, 47
2, 281760, Pitch_bend_c, 1, 8192
2, 281760, Pitch_bend_c, 1, 8320
2, 281760, Pitch_bend_c, 1, 8192
2, 281760, Note_off_c, 1, 61, 47
2, 281760, Note_off_c, 1, 61, 47
2, 281760, Note_on_c, 1, 59, 47
2, 281880, Pitch_bend_c, 1, 8832
2, 282000, Pitch_bend_c, 1, 9600
2, 282120, Pitch_bend_c, 1, 10240
2, 282240, Pitch_bend_c, 1, 11008
2, 282240, Pitch_bend_c, 1, 8192
2, 282240, Note_off_c, 1, 59, 47
2, 282240, Note_on_c, 1, 63, 47
2, 282400, Pitch_bend_c, 1, 8192
2, 282560, Pitch_bend_c, 1, 8320
2, 282720, Pitch_bend_c, 1, 8192
2, 282880, Pitch_bend_c, 1, 8320
2, 283040, Pitch_bend_c, 1, 8192
2, 283200, Pitch_bend_c, 1, 8320
2, 283200, Pitch_bend_c, 1, 8192
2, 283200, Note_off_c, 1, 63, 47
2, 283200, Note_on_c, 0, 61, 47
2, 283680, Note_off_c, 0, 61, 47
2, 283680, Note_on_c, 0, 76, 47
2, 284160, Note_off_c, 0, 76, 47
2, 284160, Note_on_c, 1, 76, 47
2, 284320, Pitch_bend_c, 1, 8192
2, 284480, Pitch_bend_c, 1, 8320
2, 284640, Pitch_bend_c, 1, 8192
2, 284800, Pitch_bend_c, 1, 8320
2, 284960, Pitch_bend_c, 1, 8192
2, 285120, Pitch_bend_c, 1, 8320
2, 285280, Pitch_bend_c, 1, 8192
2, 285440, Pitch_bend_c, 1, 8320
2, 285600, Pitch_bend_c, 1, 8192
2, 285600, Pitch_bend_c, 1, 8320
2, 285600, Pitch_bend_c, 1, 8192
2, 285600, Note_off_c, 1, 76, 47
2, 285600, Note_on_c, 0, 76, 47
2, 286080, Note_off_c, 0, 76, 47
2, 286080, Note_on_c, 1, 75, 47
2, 286240, Pitch_bend_c, 1, 8192
2, 286400, Pitch_bend_c, 1, 8320
2, 286560, Pitch_bend_c, 1, 8192
2, 286720, Pitch_bend_c, 1, 8320
2, 286880, Pitch_bend_c, 1, 8192
2, 287040, Pitch_bend_c, 1, 8320
2, 287200, Pitch_bend_c, 1, 8192
2, 287360, Pitch_bend_c, 1, 8320
2, 287520, Pitch_bend_c, 1, 8192
2, 287520, Pitch_bend_c, 1, 8320
2, 287520, Pitch_bend_c, 1, 8192
2, 287520, Note_off_c, 1, 75, 47
2, 287520, Note_on_c, 1, 75, 47
2, 287640, Pitch_bend_c, 1, 7936
2, 287760, Pitch_bend_c, 1, 7552
2, 287880, Pitch_bend_c, 1, 7168
2, 288000, Pitch_bend_c, 1, 6784
2, 288000, Pitch_bend_c, 1, 8192
2, 288000, Note_off_c, 1, 75, 47
2, 288000, Note_on_c, 1, 73, 47
2, 288160, Pitch_bend_c, 1, 8192
2, 288320, Pitch_bend_c, 1, 8320
2, 288480, Pitch_bend_c, 1, 8192
2, 288640, Pitch_bend_c, 1, 8320
2, 288800, Pitch_bend_c, 1, 8192
2, 288960, Pitch_bend_c, 1, 8320
2, 289120, Pitch_bend_c, 1, 8192
2, 289280, Pitch_bend_c, 1, 8320
2, 289440, Pitch_bend_c, 1, 8192
2, 289440, Pitch_bend_c, 1, 8320
2, 289440, Pitch_bend_c, 1, 8192
2, 289440, Note_off_c, 1, 73, 47
2, 289440, Note_on_c, 1, 73, 47
2, 289560, Pitch_bend_c, 1, 7936
2, 289680, Pitch_bend_c, 1, 7552
2, 289800, Pitch_bend_c, 1, 7168
2, 289920, Pitch_bend_c, 1, 6784
2, 289920, Pitch_bend_c, 1, 8192
2, 289920, Note_off_c, 1, 73, 47
2, 289920, Note_on_c, 1, 71, 47
2, 290040, Pitch_bend_c, 1, 7936
2, 290160, Pitch_bend_c, 1, 7552
2, 290280, Pitch_bend_c, 1, 7168
2, 290400, Pitch_bend_c, 1, 6784
2, 290400, Pitch_bend_c, 1, 8192
2, 290400, Note_off_c, 1, 71, 47
2, 290400, Note_on_c, 0, 69, 47
2, 290880, Note_off_c, 0, 69, 47
2, 290880, Note_on_c, 1, 68, 47
2, 291000, Pitch_bend_c, 1, 8448
2, 291120, Pitch_bend_c, 1, 8832
2, 291120, Pitch_bend_c, 1, 8192
2, 291120, Note_off_c, 1, 68, 47
2, 291120, Note_on_c, 1, 69, 47
2, 291240, Pitch_bend_c, 1, 7936
2, 291360, Pitch_bend_c, 1, 7552
2, 291360, Pitch_bend_c, 1, 8192
2, 291360, Note_off_c, 1, 69, 47
2, 291360, Note_on_c, 0, 68, 47
2, 291840, Note_off_c, 0, 68, 47
2, 291840, Note_on_c, 1, 64, 47
2, 292000, Pitch_bend_c, 1, 8192
2, 292160, Pitch_bend_c, 1, 8320
2, 292320, Pitch_bend_c, 1, 8192
2, 292480, Pitch_bend_c, 1, 8320
2, 292640, Pitch_bend_c, 1, 8192
2, 292800, Pitch_bend_c, 1, 8320
2, 292960, Pitch_bend_c, 1, 8192
2, 293120, Pitch_bend_c, 1, 8320
2, 293280, Pitch_bend_c, 1, 8192
2, 293280, Pitch_bend_c, 1, 8320
2, 293280, Pitch_bend_c, 1, 8192
2, 293280, Note_off_c, 1, 64, 47
2, 293280, Note_on_c, 0, 64, 47
2, 293760, Note_off_c, 0, 64, 47
2, 293760, Note_on_c, 1, 63, 47
2, 293920, Pitch_bend_c, 1, 8192
2, 294080, Pitch_bend_c, 1, 8320
2, 294240, Pitch_bend_c, 1, 8192
2, 294400, Pitch_bend_c, 1, 8320
2, 294560, Pitch_bend_c, 1, 8192
2, 294720, Pitch_bend_c, 1, 8320
2, 294880, Pitch_bend_c, 1, 8192
2, 295040, Pitch_bend_c, 1, 8320
2, 295200, Pitch_bend_c, 1, 8192
2, 295200, Pitch_bend_c, 1, 8320
2, 295200, Pitch_bend_c, 1, 8192
2, 295200, Note_off_c, 1, 63, 47
2, 295200, Note_on_c, 1, 63, 47
2, 295320, Pitch_bend_c, 1, 7936
2, 295440, Pitch_bend_c, 1, 7552
2, 295560, Pitch_bend_c, 1, 7168
2, 295680, Pitch_bend_c, 1, 6784
2, 295680, Pitch_bend_c, 1, 8192
2, 295680, Note_off_c, 1, 63, 47
2, 295680, Note_on_c, 1, 61, 47
2, 295840, Pitch_bend_c, 1, 8192
2, 296000, Pitch_bend_c, 1, 8320
2, 296160, Pitch_bend_c, 1, 8192
2, 296320, Pitch_bend_c, 1, 8320
2, 296480, Pitch_bend_c, 1, 8192
2, 296640, Pitch_bend_c, 1, 8320
2, 296800, Pitch_bend_c, 1, 8192
2, 296960, Pitch_bend_c, 1, 8320
2, 297000, Note_on_c, 1, 61, 47
2, 297120, Pitch_bend_c, 1, 8192
2, 297120, Pitch_bend_c, 1, 8320
2, 297120, Pitch_bend_c, 1, 8192
2, 297120, Note_off_c, 1, 61, 47
2, 297120, Note_off_c, 1, 61, 47
2, 297120, Note_on_c, 1, 59, 47
2, 297240, Pitch_bend_c, 1, 8832
2, 297360, Pitch_bend_c, 1, 9600
2, 297480, Pitch_bend_c, 1, 10240
2, 297600, Pitch_bend_c, 1, 11008
2, 297600, Pitch_bend_c, 1, 8192
2, 297600, Note_off_c, 1, 59, 47
2, 297600, Note_on_c, 1, 63, 47
2, 297760, Pitch_bend_c, 1, 8192
2, 297920, Pitch_bend_c, 1, 8320
2, 298080, Pitch_bend_c, 1, 8192
2, 298240, Pitch_bend_c, 1, 8320
2, 298400, Pitch_bend_c, 1, 8192
2, 298560, Pitch_bend_c, 1, 8320
2, 298560, Pitch_bend_c, 1, 8192
2, 298560, Note_off_c, 1, 63, 47
2, 298560, Note_on_c, 0, 61, 47
2, 299040, Note_off_c, 0, 61, 47
2, 299040, Note_on_c, 0, 76, 47
2, 299520, Note_off_c, 0, 76, 47
2, 299520, Note_on_c, 1, 76, 47
2, 299680, Pitch_bend_c, 1, 8192
2, 299840, Pitch_bend_c, 1, 8320
2, 300000, Pitch_bend_c, 1, 8192
2, 300160, Pitch_bend_c, 1, 8320
2, 300320, Pitch_bend_c, 1, 8192
2, 300480, Pitch_bend_c, 1, 8320
2, 300640, Pitch_bend_c, 1, 8192
2, 300800, Pitch_bend_c, 1, 8320
2, 300960, Pitch_bend_c, 1, 8192
2, 300960, Pitch_bend_c, 1, 8320
2, 300960, Pitch_bend_c, 1, 8192
2, 300960, Note_off_c, 1, 76, 47
2, 300960, Note_on_c, 0, 76, 47
2, 301440, Note_off_c, 0, 76, 47
2, 301440, Note_on_c, 1, 75, 47
2, 301600, Pitch_bend_c, 1, 8192
2, 301760, Pitch_bend_c, 1, 8320
2, 301920, Pitch_bend_c, 1, 8192
2, 302080, Pitch_bend_c, 1, 8320
2, 302240, Pitch_bend_c, 1, 8192
2, 302400, Pitch_bend_c, 1, 8320
2, 302560, Pitch_bend_c, 1, 8192
2, 302720, Pitch_bend_c, 1, 8320
2, 302880, Pitch_bend_c, 1, 8192
2, 302880, Pitch_bend_c, 1, 8320
2, 302880, Pitch_bend_c, 1, 8192
2, 302880, Note_off_c, 1, 75, 47
2, 302880, Note_on_c, 1, 75, 47
2, 303000, Pitch_bend_c, 1, 7936
2, 303120, Pitch_bend_c, 1, 7552
2, 303240, Pitch_bend_c, 1, 7168
2, 303360, Pitch_bend_c, 1, 6784
2, 303360, Pitch_bend_c, 1, 8192
2, 303360, Note_off_c, 1, 75, 47
2, 303360, Note_on_c, 1, 73, 47
2, 303520, Pitch_bend_c, 1, 8192
2, 303680, Pitch_bend_c, 1, 8320
2, 303840, Pitch_bend_c, 1, 8192
2, 304000, Pitch_bend_c, 1, 8320
2, 304160, Pitch_bend_c, 1, 8192
2, 304320, Pitch_bend_c, 1, 8320
2, 304480, Pitch_bend_c, 1, 8192
2, 304640, Pitch_bend_c, 1, 8320
2, 304800, Pitch_bend_c, 1, 8192
2, 304800, Pitch_bend_c, 1, 8320
2, 304800, Pitch_bend_c, 1, 8192
2, 304800, Note_off_c, 1, 73, 47
2, 304800, Note_on_c, 1, 73, 47
2, 304920, Pitch_bend_c, 1, 7936
2, 305040, Pitch_bend_c, 1, 7552
2, 305160, Pitch_bend_c, 1, 7168
2, 305280, Pitch_bend_c, 1, 6784
2, 305280, Pitch_bend_c, 1, 8192
2, 305280, Note_off_c, 1, 73, 47
2, 305280, Note_on_c, 1, 71, 47
2, 305400, Pitch_bend_c, 1, 7936
2, 305520, Pitch_bend_c, 1, 7552
2, 305640, Pitch_bend_c, 1, 7168
2, 305760, Pitch_bend_c, 1, 6784
2, 305760, Pitch_bend_c, 1, 8192
2, 305760, Note_off_c, 1, 71, 47
2, 305760, Note_on_c, 0, 69, 47
2, 306240, Note_off_c, 0, 69, 47
2, 306240, Note_on_c, 1, 68, 47
2, 306360, Pitch_bend_c, 1, 8448
2, 306480, Pitch_bend_c, 1, 8832
2, 306480, Pitch_bend_c, 1, 8192
2, 306480, Note_off_c, 1, 68, 47
2, 306480, Note_on_c, 1, 69, 47
2, 306600, Pitch_bend_c, 1, 7936
2, 306720, Pitch_bend_c, 1, 7552
2, 306720, Pitch_bend_c, 1, 8192
2, 306720, Note_off_c, 1, 69, 47
2, 306720, Note_on_c, 0, 68, 47
2, 307200, Note_off_c, 0, 68, 47
2, 307200, Note_on_c, 1, 64, 47
2, 307360, Pitch_bend_c, 1, 8192
2, 307520, Pitch_bend_c, 1, 8320
2, 307680, Pitch_bend_c, 1, 8192
2, 307840, Pitch_bend_c, 1, 8320
2, 308000, Pitch_bend_c, 1, 8192
2, 308160, Pitch_bend_c, 1, 8320
2, 308320, Pitch_bend_c, 1, 8192
2, 308480, Pitch_bend_c, 1, 8320
2, 308640, Pitch_bend_c, 1, 8192
2, 308640, Pitch_bend_c, 1, 8320
2, 308640, Pitch_bend_c, 1, 8192
2, 308640, Note_off_c, 1, 64, 47
2, 308640, Note_on_c, 0, 64, 47
2, 309120, Note_off_c, 0, 64, 47
2, 309120, Note_on_c, 1, 63, 47
2, 309280, Pitch_bend_c, 1, 8192
2, 309440, Pitch_bend_c, 1, 8320
2, 309600, Pitch_bend_c, 1, 8192
2, 309760, Pitch_bend_c, 1, 8320
2, 309920, Pitch_bend_c, 1, 8192
2, 310080, Pitch_bend_c, 1, 8320
2, 310240, Pitch_bend_c, 1, 8192
2, 310400, Pitch_bend_c, 1, 8320
2, 310560, Pitch_bend_c, 1, 8192
2, 310560, Pitch_bend_c, 1, 8320
2, 310560, Pitch_bend_c, 1, 8192
2, 310560, Note_off_c, 1, 63, 47
2, 310560, Note_on_c, 1, 63, 47
2, 310680, Pitch_bend_c, 1, 7936
2, 310800, Pitch_bend_c, 1, 7552
2, 310920, Pitch_bend_c, 1, 7168
2, 311040, Pitch_bend_c, 1, 6784
2, 311040, Pitch_bend_c, 1, 8192
2, 311040, Note_off_c, 1, 63, 47
2, 311040, Note_on_c, 1, 61, 47
2, 311200, Pitch_bend_c, 1, 8192
2, 311360, Pitch_bend_c, 1, 8320
2, 311520, Pitch_bend_c, 1, 8192
2, 311680, Pitch_bend_c, 1, 8320
2, 311840, Pitch_bend_c, 1, 8192
2, 312000, Pitch_bend_c, 1, 8320
2, 312160, Pitch_bend_c, 1, 8192
2, 312320, Pitch_bend_c, 1, 8320
2, 312360, Note_on_c, 1, 61, 47
2, 312480, Pitch_bend_c, 1, 8192
2, 312480, Pitch_bend_c, 1, 8320
2, 312480, Pitch_bend_c, 1, 8192
2, 312480, Note_off_c, 1, 61, 47
2, 312480, Note_off_c, 1, 61, 47
2, 312480, Note_on_c, 1, 59, 47
2, 312600, Pitch_bend_c, 1, 8832
2, 312720, Pitch_bend_c, 1, 9600
2, 312840, Pitch_bend_c, 1, 10240
2, 312960, Pitch_bend_c, 1, 11008
2, 312960, Pitch_bend_c, 1, 8192
2, 312960, Note_off_c, 1, 59, 47
2, 312960, Note_on_c, 1, 63, 47
2, 313120, Pitch_bend_c, 1, 8192
2, 313280, Pitch_bend_c, 1, 8320
2, 313440, Pitch_bend_c, 1, 8192
2, 313600, Pitch_bend_c, 1, 8320
2, 313760, Pitch_bend_c, 1, 8192
2, 313920, Pitch_bend_c, 1, 8320
2, 313920, Pitch_bend_c, 1, 8192
2, 313920, Note_off_c, 1, 63, 47
2, 313920, Note_on_c, 0, 61, 47
2, 314400, Note_off_c, 0, 61, 47
2, 314400, Note_on_c, 0, 76, 47
2, 314880, Note_off_c, 0, 76, 47
2, 314880, Note_on_c, 1, 76, 47
2, 315040, Pitch_bend_c, 1, 8192
2, 315200, Pitch_bend_c, 1, 8320
2, 315360, Pitch_bend_c, 1, 8192
2, 315520, Pitch_bend_c, 1, 8320
2, 315680, Pitch_bend_c, 1, 8192
2, 315840, Pitch_bend_c, 1, 8320
2, 316000, Pitch_bend_c, 1, 8192
2, 316160, Pitch_bend_c, 1, 8320
2, 316320, Pitch_bend_c, 1, 8192
2, 316320, Pitch_bend_c, 1, 8320
2, 316320, Pitch_bend_c, 1, 8192
2, 316320, Note_off_c, 1, 76, 47
2, 316320, Note_on_c, 0, 76, 47
2, 316800, Note_off_c, 0, 76, 47
2, 316800, Note_on_c, 1, 75, 47
2, 316960, Pitch_bend_c, 1, 8192
2, 317120, Pitch_bend_c, 1, 8320
2, 317280, Pitch_bend_c, 1, 8192
2, 317440, Pitch_bend_c, 1, 8320
2, 317600, Pitch_bend_c, 1, 8192
2, 317760, Pitch_bend_c, 1, 8320
2, 317920, Pitch_bend_c, 1, 8192
2, 318080, Pitch_bend_c, 1, 8320
2, 318240, Pitch_bend_c, 1, 8192
2, 318240, Pitch_bend_c, 1, 8320
2, 318240, Pitch_bend_c, 1, 8192
2, 318240, Note_off_c, 1, 75, 47
2, 318240, Note_on_c, 1, 75, 47
2, 318360, Pitch_bend_c, 1, 7936
2, 318480, Pitch_bend_c, 1, 7552
2, 318600, Pitch_bend_c, 1, 7168
2, 318720, Pitch_bend_c, 1, 6784
2, 318720, Pitch_bend_c, 1, 8192
2, 318720, Note_off_c, 1, 75, 47
2, 318720, Note_on_c, 1, 73, 47
2, 318880, Pitch_bend_c, 1, 8192
2, 319040, Pitch_bend_c, 1, 8320
2, 319200, Pitch_bend_c, 1, 8192
2, 319360, Pitch_bend_c, 1, 8320
2, 319520, Pitch_bend_c, 1, 8192
2, 319680, Pitch_bend_c, 1, 8320
2, 319840, Pitch_bend_c, 1, 8192
2, 320000, Pitch_bend_c, 1, 8320
2, 320160, Pitch_bend_c, 1, 8192
2, 320160, Pitch_bend_c, 1, 8320
2, 320160, Pitch_bend_c, 1, 8192
2, 320160, Note_off_c, 1, 73, 47
2, 320160, Note_on_c, 1, 73, 47
2, 320280, Pitch_bend_c, 1, 7936
2, 320400, Pitch_bend_c, 1, 7552
2, 320520, Pitch_bend_c, 1, 7168
2, 320640, Pitch_bend_c, 1, 6784
2, 320640, Pitch_bend_c, 1, 8192
2, 320640, Note_off_c, 1, 73, 47
2, 320640, Note_on_c, 1, 71, 47
2, 320760, Pitch_bend_c, 1, 7936
2, 320880, Pitch_bend_c, 1, 7552
2, 321000, Pitch_bend_c, 1, 7168
2, 321120, Pitch_bend_c, 1, 6784
2, 321120, Pitch_bend_c, 1, 8192
2, 321120, Note_off_c, 1, 71, 47
2, 321120, Note_on_c, 0, 69, 47
2, 321600, Note_off_c, 0, 69, 47
2, 321600, Note_on_c, 1, 68, 47
2, 321720, Pitch_bend_c, 1, 8448
2, 321840, Pitch_bend_c, 1, 8832
2, 321840, Pitch_bend_c, 1, 8192
2, 321840, Note_off_c, 1, 68, 47
2, 321840, Note_on_c, 1, 69, 47
2, 321960, Pitch_bend_c, 1, 7936
2, 322080, Pitch_bend_c, 1, 7552
2, 322080, Pitch_bend_c, 1, 8192
2, 322080, Note_off_c, 1, 69, 47
2, 322080, Note_on_c, 0, 68, 47
2, 322560, Note_off_c, 0, 68, 47
2, 322560, Note_on_c, 1, 64, 47
2, 322720, Pitch_bend_c, 1, 8192
2, 322880, Pitch_bend_c, 1, 8320
2, 323040, Pitch_bend_c, 1, 8192
2, 323200, Pitch_bend_c, 1, 8320
2, 323360, Pitch_bend_c, 1, 8192
2, 323520, Pitch_bend_c, 1, 8320
2, 323680, Pitch_bend_c, 1, 8192
2, 323840, Pitch_bend_c, 1, 8320
2, 324000, Pitch_bend_c, 1, 8192
2, 324000, Pitch_bend_c, 1, 8320
2, 324000, Pitch_bend_c, 1, 8192
2, 324000, Note_off_c, 1, 64, 47
2, 324000, Note_on_c, 0, 64, 47
2, 324480, Note_off_c, 0, 64, 47
2, 324480, Note_on_c, 1, 63, 47
2, 324640, Pitch_bend_c, 1, 8192
2, 324800, Pitch_bend_c, 1, 8320
2, 324960, Pitch_bend_c, 1, 8192
2, 325120, Pitch_bend_c, 1, 8320
2, 325280, Pitch_bend_c, 1, 8192
2, 325440, Pitch_bend_c, 1, 8320
2, 325600, Pitch_bend_c, 1, 8192
2, 325760, Pitch_bend_c, 1, 8320
2, 325920, Pitch_bend_c, 1, 8192
2, 325920, Pitch_bend_c, 1, 8320
2, 325920, Pitch_bend_c, 1, 8192
2, 325920, Note_off_c, 1, 63, 47
2, 325920, Note_on_c, 1, 63, 47
2, 326040, Pitch_bend_c, 1, 7936
2, 326160, Pitch_bend_c, 1, 7552
2, 326280, Pitch_bend_c, 1, 7168
2, 326400, Pitch_bend_c, 1, 6784
2, 326400, Pitch_bend_c, 1, 8192
2, 326400, Note_off_c, 1, 63, 47
2, 326400, Note_on_c, 1, 61, 31
2, 326560, Pitch_bend_c, 1, 8192
2, 326720, Pitch_bend_c, 1, 8320
2, 326880, Pitch_bend_c, 1, 8192
2, 327040, Pitch_bend_c, 1, 8320
2, 327200, Pitch_bend_c, 1, 8192
2, 327360, Pitch_bend_c, 1, 8320
2, 327520, Pitch_bend_c, 1, 8192
2, 327680, Pitch_bend_c, 1, 8320
2, 327720, Note_on_c, 1, 61, 31
2, 327840, Pitch_bend_c, 1, 8192
2, 327840, Pitch_bend_c, 1, 8320
2, 327840, Pitch_bend_c, 1, 8192
2, 327840, Note_off_c, 1, 61, 31
2, 327840, Note_off_c, 1, 61, 31
2, 327840, Note_on_c, 1, 59, 31
2, 327960, Pitch_bend_c, 1, 8832
2, 328080, Pitch_bend_c, 1, 9600
2, 328200, Pitch_bend_c, 1, 10240
2, 328320, Pitch_bend_c, 1, 11008
2, 328320, Pitch_bend_c, 1, 8192
2, 328320, Note_off_c, 1, 59, 31
2, 328320, Note_on_c, 1, 63, 31
2, 328480, Pitch_bend_c, 1, 8192
2, 328640, Pitch_bend_c, 1, 8320
2, 328800, Pitch_bend_c, 1, 8192
2, 328960, Pitch_bend_c, 1, 8320
2, 329120, Pitch_bend_c, 1, 8192
2, 329280, Pitch_bend_c, 1, 8320
2, 329280, Pitch_bend_c, 1, 8192
2, 329280, Note_off_c, 1, 63, 31
2, 329280, Note_on_c, 0, 61, 31
2, 329760, Note_off_c, 0, 61, 31
2, 329760, Note_on_c, 0, 76, 31
2, 330240, Note_off_c, 0, 76, 31
2, 330240, Note_on_c, 1, 76, 15
2, 330400, Pitch_bend_c, 1, 8192
2, 330560, Pitch_bend_c, 1, 8320
2, 330720, Pitch_bend_c, 1, 8192
2, 330880, Pitch_bend_c, 1, 8320
2, 331040, Pitch_bend_c, 1, 8192
2, 331200, Pitch_bend_c, 1, 8320
2, 331360, Pitch_bend_c, 1, 8192
2, 331520, Pitch_bend_c, 1, 8320
2, 331680, Pitch_bend_c, 1, 8192
2, 331680, Pitch_bend_c, 1, 8320
2, 331680, Pitch_bend_c, 1, 8192
2, 331680, Note_off_c, 1, 76, 15
2, 331680, Note_on_c, 0, 76, 15
2, 332160, Note_off_c, 0, 76, 15
2, 332160, Note_on_c, 1, 75, 15
2, 332320, Pitch_bend_c, 1, 8192
2, 332480, Pitch_bend_c, 1, 8320
2, 332640, Pitch_bend_c, 1, 8192
2, 332800, Pitch_bend_c, 1, 8320
2, 332960, Pitch_bend_c, 1, 8192
2, 333120, Pitch_bend_c, 1, 8320
2, 333280, Pitch_bend_c, 1, 8192
2, 333440, Pitch_bend_c, 1, 8320
2, 333600, Pitch_bend_c, 1, 8192
2, 333600, Pitch_bend_c, 1, 8320
2, 333600, Pitch_bend_c, 1, 8192
2, 333600, Note_off_c, 1, 75, 15
2, 333600, Note_on_c, 1, 75, 15
2, 334080, Note_off_c, 1, 75, 15
2, 334080, End_track
3, 0, Start_track
3, 0, Pitch_bend_c, 2, 8192
3, 0, Control_c, 2, 7, 95
3, 0, Control_c, 2, 10, 39
3, 0, Control_c, 2, 93, 0
3, 0, Control_c, 2, 91, 0
3, 0, Control_c, 2, 95, 0
3, 0, Control_c, 2, 92, 0
3, 0, Control_c, 2, 11, 127
3, 0, Program_c, 2, 27
3, 0, Control_c, 3, 7, 95
3, 0, Control_c, 3, 10, 39
3, 0, Control_c, 3, 93, 0
3, 0, Control_c, 3, 91, 0
3, 0, Control_c, 3, 95, 0
3, 0, Control_c, 3, 92, 0
3, 0, Control_c, 3, 11, 127
3, 0, Program_c, 3, 27
3, 0, Note_on_c, 2, 45, 63
3, 480, Note_off_c, 2, 45, 63
3, 480, Note_on_c, 2, 52, 63
3, 960, Note_off_c, 2, 52, 63
3, 960, Note_on_c, 2, 57, 63
3, 1440, Note_off_c, 2, 57, 63
3, 1440, Note_on_c, 2, 52, 63
3, 1920, Note_off_c, 2, 52, 63
3, 1920, Note_on_c, 2, 44, 63
3, 2400, Note_off_c, 2, 44, 63
3, 2400, Note_on_c, 2, 47, 63
3, 2880, Note_off_c, 2, 47, 63
3, 2880, Note_on_c, 2, 52, 63
3, 3360, Note_off_c, 2, 52, 63
3, 3360, Note_on_c, 2, 44, 63
3, 3840, Note_off_c, 2, 44, 63
3, 3840, Note_on_c, 2, 42, 63
3, 4320, Note_off_c, 2, 42, 63
3, 4320, Note_on_c, 2, 49, 63
3, 4800, Note_off_c, 2, 49, 63
3, 4800, Note_on_c, 2, 52, 63
3, 5280, Note_off_c, 2, 52, 63
3, 5280, Note_on_c, 2, 42, 63
3, 5760, Note_off_c, 2, 42, 63
3, 5760, Note_on_c, 2, 47, 63
3, 6240, Note_off_c, 2, 47, 63
3, 6240, Note_on_c, 2, 54, 63
3, 6720, Note_off_c, 2, 54, 63
3, 6720, Note_on_c, 2, 59, 63
3, 7200, Note_off_c, 2, 59, 63
3, 7200, Note_on_c, 2, 54, 63
3, 7680, Note_off_c, 2, 54, 63
3, 7680, Note_on_c, 2, 45, 63
3, 8160, Note_off_c, 2, 45, 63
3, 8160, Note_on_c, 2, 52, 63
3, 8640, Note_off_c, 2, 52, 63
3, 8640, Note_on_c, 2, 57, 63
3, 9120, Note_off_c, 2, 57, 63
3, 9120, Note_on_c, 2, 52, 63
3, 9600, Note_off_c, 2, 52, 63
3, 9600, Note_on_c, 2, 44, 63
3, 10080, Note_off_c, 2, 44, 63
3, 10080, Note_on_c, 2, 47, 63
3, 10560, Note_off_c, 2, 47, 63
3, 10560, Note_on_c, 2, 52, 63
3, 11040, Note_off_c, 2, 52, 63
3, 11040, Note_on_c, 2, 44, 63
3, 11520, Note_off_c, 2, 44, 63
3, 11520, Note_on_c, 2, 42, 63
3, 12000, Note_off_c, 2, 42, 63
3, 12000, Note_on_c, 2, 49, 63
3, 12480, Note_off_c, 2, 49, 63
3, 12480, Note_on_c, 2, 52, 63
3, 12960, Note_off_c, 2, 52, 63
3, 12960, Note_on_c, 2, 42, 63
3, 13440, Note_off_c, 2, 42, 63
3, 13440, Note_on_c, 2, 40, 63
3, 13920, Note_off_c, 2, 40, 63
3, 13920, Note_on_c, 2, 47, 63
3, 14400, Note_off_c, 2, 47, 63
3, 14400, Note_on_c, 2, 42, 63
3, 14880, Note_off_c, 2, 42, 63
3, 14880, Note_on_c, 2, 44, 63
3, 15360, Note_off_c, 2, 44, 63
3, 15360, Note_on_c, 2, 45, 63
3, 15840, Note_off_c, 2, 45, 63
3, 15840, Note_on_c, 2, 52, 63
3, 16320, Note_off_c, 2, 52, 63
3, 16320, Note_on_c, 2, 57, 63
3, 16800, Note_off_c, 2, 57, 63
3, 16800, Note_on_c, 2, 52, 63
3, 17280, Note_off_c, 2, 52, 63
3, 17280, Note_on_c, 2, 44, 63
3, 17760, Note_off_c, 2, 44, 63
3, 17760, Note_on_c, 2, 47, 63
3, 18240, Note_off_c, 2, 47, 63
3, 18240, Note_on_c, 2, 52, 63
3, 18720, Note_off_c, 2, 52, 63
3, 18720, Note_on_c, 2, 44, 63
3, 19200, Note_off_c, 2, 44, 63
3, 19200, Note_on_c, 2, 42, 63
3, 19680, Note_off_c, 2, 42, 63
3, 19680, Note_on_c, 2, 49, 63
3, 20160, Note_off_c, 2, 49, 63
3, 20160, Note_on_c, 2, 52, 63
3, 20640, Note_off_c, 2, 52, 63
3, 20640, Note_on_c, 2, 42, 63
3, 21120, Note_off_c, 2, 42, 63
3, 21120, Note_on_c, 2, 47, 63
3, 21600, Note_off_c, 2, 47, 63
3, 21600, Note_on_c, 2, 54, 63
3, 22080, Note_off_c, 2, 54, 63
3, 22080, Note_on_c, 2, 59, 63
3, 22560, Note_off_c, 2, 59, 63
3, 22560, Note_on_c, 2, 54, 63
3, 23040, Note_off_c, 2, 54, 63
3, 23040, Note_on_c, 2, 45, 63
3, 23520, Note_off_c, 2, 45, 63
3, 23520, Note_on_c, 2, 52, 63
3, 24000, Note_off_c, 2, 52, 63
3, 24000, Note_on_c, 2, 57, 63
3, 24480, Note_off_c, 2, 57, 63
3, 24480, Note_on_c, 2, 52, 63
3, 24960, Note_off_c, 2, 52, 63
3, 24960, Note_on_c, 2, 44, 63
3, 25440, Note_off_c, 2, 44, 63
3, 25440, Note_on_c, 2, 47, 63
3, 25920, Note_off_c, 2, 47, 63
3, 25920, Note_on_c, 2, 52, 63
3, 26400, Note_off_c, 2, 52, 63
3, 26400, Note_on_c, 2, 44, 63
3, 26880, Note_off_c, 2, 44, 63
3, 26880, Note_on_c, 2, 42, 63
3, 27360, Note_off_c, 2, 42, 63
3, 27360, Note_on_c, 2, 49, 63
3, 27840, Note_off_c, 2, 49, 63
3, 27840, Note_on_c, 2, 52, 63
3, 28320, Note_off_c, 2, 52, 63
3, 28320, Note_on_c, 2, 42, 63
3, 28800, Note_off_c, 2, 42, 63
3, 28800, Note_on_c, 2, 40, 63
3, 29280, Note_off_c, 2, 40, 63
3, 29280, Note_on_c, 2, 47, 63
3, 29760, Note_off_c, 2, 47, 63
3, 29760, Note_on_c, 2, 52, 63
3, 30240, Note_off_c, 2, 52, 63
3, 30240, Note_on_c, 2, 47, 63
3, 30720, Note_off_c, 2, 47, 63
3, 30720, Note_on_c, 2, 45, 63
3, 31200, Note_off_c, 2, 45, 63
3, 31200, Note_on_c, 2, 52, 63
3, 31680, Note_off_c, 2, 52, 63
3, 31680, Note_on_c, 2, 57, 63
3, 32160, Note_off_c, 2, 57, 63
3, 32160, Note_on_c, 2, 52, 63
3, 32640, Note_off_c, 2, 52, 63
3, 32640, Note_on_c, 2, 44, 63
3, 33120, Note_off_c, 2, 44, 63
3, 33120, Note_on_c, 2, 47, 63
3, 33600, Note_off_c, 2, 47, 63
3, 33600, Note_on_c, 2, 52, 63
3, 34080, Note_off_c, 2, 52, 63
3, 34080, Note_on_c, 2, 44, 63
3, 34560, Note_off_c, 2, 44, 63
3, 34560, Note_on_c, 2, 42, 63
3, 35040, Note_off_c, 2, 42, 63
3, 35040, Note_on_c, 2, 49, 63
3, 35520, Note_off_c, 2, 49, 63
3, 35520, Note_on_c, 2, 52, 63
3, 36000, Note_off_c, 2, 52, 63
3, 36000, Note_on_c, 2, 42, 63
3, 36480, Note_off_c, 2, 42, 63
3, 36480, Note_on_c, 2, 40, 63
3, 36960, Note_off_c, 2, 40, 63
3, 36960, Note_on_c, 2, 47, 63
3, 37440, Note_off_c, 2, 47, 63
3, 37440, Note_on_c, 2, 52, 63
3, 37920, Note_off_c, 2, 52, 63
3, 37920, Note_on_c, 2, 40, 63
3, 38400, Note_off_c, 2, 40, 63
3, 38400, Note_on_c, 2, 45, 63
3, 38880, Note_off_c, 2, 45, 63
3, 38880, Note_on_c, 2, 52, 63
3, 39360, Note_off_c, 2, 52, 63
3, 39360, Note_on_c, 2, 57, 63
3, 39840, Note_off_c, 2, 57, 63
3, 39840, Note_on_c, 2, 52, 63
3, 40320, Note_off_c, 2, 52, 63
3, 40320, Note_on_c, 2, 44, 63
3, 40800, Note_off_c, 2, 44, 63
3, 40800, Note_on_c, 2, 47, 63
3, 41280, Note_off_c, 2, 47, 63
3, 41280, Note_on_c, 2, 52, 63
3, 41760, Note_off_c, 2, 52, 63
3, 41760, Note_on_c, 2, 44, 63
3, 42240, Note_off_c, 2, 44, 63
3, 42240, Note_on_c, 2, 42, 63
3, 42720, Note_off_c, 2, 42, 63
3, 42720, Note_on_c, 2, 49, 63
3, 43200, Note_off_c, 2, 49, 63
3, 43200, Note_on_c, 2, 52, 63
3, 43680, Note_off_c, 2, 52, 63
3, 43680, Note_on_c, 2, 49, 63
3, 44160, Note_off_c, 2, 49, 63
3, 44160, Note_on_c, 2, 47, 63
3, 44640, Note_off_c, 2, 47, 63
3, 44640, Note_on_c, 2, 54, 63
3, 45120, Note_off_c, 2, 54, 63
3, 45120, Note_on_c, 2, 59, 63
3, 45600, Note_off_c, 2, 59, 63
3, 45600, Note_on_c, 2, 54, 63
3, 46080, Note_off_c, 2, 54, 63
3, 46080, Note_on_c, 2, 45, 63
3, 46560, Note_off_c, 2, 45, 63
3, 46560, Note_on_c, 2, 52, 63
3, 47040, Note_off_c, 2, 52, 63
3, 47040, Note_on_c, 2, 57, 63
3, 47520, Note_off_c, 2, 57, 63
3, 47520, Note_on_c, 2, 52, 63
3, 48000, Note_off_c, 2, 52, 63
3, 48000, Note_on_c, 2, 47, 63
3, 48480, Note_off_c, 2, 47, 63
3, 48480, Note_on_c, 2, 54, 63
3, 48960, Note_off_c, 2, 54, 63
3, 48960, Note_on_c, 2, 59, 63
3, 49440, Note_off_c, 2, 59, 63
3, 49440, Note_on_c, 2, 54, 63
3, 49920, Note_off_c, 2, 54, 63
3, 49920, Note_on_c, 2, 40, 63
3, 50400, Note_off_c, 2, 40, 63
3, 50400, Note_on_c, 2, 47, 63
3, 50880, Note_off_c, 2, 47, 63
3, 50880, Note_on_c, 2, 56, 63
3, 51360, Note_off_c, 2, 56, 63
3, 51360, Note_on_c, 2, 52, 63
3, 51840, Note_off_c, 2, 52, 63
3, 51840, Note_on_c, 2, 45, 63
3, 52320, Note_off_c, 2, 45, 63
3, 52320, Note_on_c, 2, 52, 63
3, 52800, Note_off_c, 2, 52, 63
3, 52800, Note_on_c, 2, 57, 63
3, 53280, Note_off_c, 2, 57, 63
3, 53280, Note_on_c, 2, 52, 63
3, 53760, Note_off_c, 2, 52, 63
3, 53760, Note_on_c, 2, 45, 63
3, 54240, Note_off_c, 2, 45, 63
3, 54240, Note_on_c, 2, 52, 63
3, 54720, Note_off_c, 2, 52, 63
3, 54720, Note_on_c, 2, 57, 63
3, 55200, Note_off_c, 2, 57, 63
3, 55200, Note_on_c, 2, 52, 63
3, 55680, Note_off_c, 2, 52, 63
3, 55680, Note_on_c, 2, 47, 63
3, 56160, Note_off_c, 2, 47, 63
3, 56160, Note_on_c, 2, 54, 63
3, 56640, Note_off_c, 2, 54, 63
3, 56640, Note_on_c, 2, 59, 63
3, 57120, Note_off_c, 2, 59, 63
3, 57120, Note_on_c, 2, 54, 63
3, 57600, Note_off_c, 2, 54, 63
3, 57600, Note_on_c, 2, 40, 63
3, 58080, Note_off_c, 2, 40, 63
3, 58080, Note_on_c, 2, 47, 63
3, 58560, Note_off_c, 2, 47, 63
3, 58560, Note_on_c, 2, 52, 63
3, 59040, Note_off_c, 2, 52, 63
3, 59040, Note_on_c, 2, 47, 63
3, 59520, Note_off_c, 2, 47, 63
3, 59520, Note_on_c, 2, 40, 63
3, 60480, Note_off_c, 2, 40, 63
3, 60480, Note_on_c, 2, 42, 63
3, 60960, Note_off_c, 2, 42, 63
3, 60960, Note_on_c, 2, 44, 63
3, 61440, Note_off_c, 2, 44, 63
3, 61440, Note_on_c, 2, 45, 63
3, 61920, Note_off_c, 2, 45, 63
3, 61920, Note_on_c, 2, 52, 63
3, 62400, Note_off_c, 2, 52, 63
3, 62400, Note_on_c, 2, 57, 63
3, 62880, Note_off_c, 2, 57, 63
3, 62880, Note_on_c, 2, 52, 63
3, 63360, Note_off_c, 2, 52, 63
3, 63360, Note_on_c, 2, 44, 63
3, 63840, Note_off_c, 2, 44, 63
3, 63840, Note_on_c, 2, 47, 63
3, 64320, Note_off_c, 2, 47, 63
3, 64320, Note_on_c, 2, 52, 63
3, 64800, Note_off_c, 2, 52, 63
3, 64800, Note_on_c, 2, 44, 63
3, 65280, Note_off_c, 2, 44, 63
3, 65280, Note_on_c, 2, 42, 63
3, 65760, Note_off_c, 2, 42, 63
3, 65760, Note_on_c, 2, 49, 63
3, 66240, Note_off_c, 2, 49, 63
3, 66240, Note_on_c, 2, 52, 63
3, 66720, Note_off_c, 2, 52, 63
3, 66720, Note_on_c, 2, 42, 63
3, 67200, Note_off_c, 2, 42, 63
3, 67200, Note_on_c, 2, 40, 63
3, 67680, Note_off_c, 2, 40, 63
3, 67680, Note_on_c, 2, 47, 63
3, 68160, Note_off_c, 2, 47, 63
3, 68160, Note_on_c, 2, 52, 63
3, 68640, Note_off_c, 2, 52, 63
3, 68640, Note_on_c, 2, 40, 63
3, 69120, Note_off_c, 2, 40, 63
3, 69120, Note_on_c, 2, 45, 63
3, 69600, Note_off_c, 2, 45, 63
3, 69600, Note_on_c, 2, 52, 63
3, 70080, Note_off_c, 2, 52, 63
3, 70080, Note_on_c, 2, 57, 63
3, 70560, Note_off_c, 2, 57, 63
3, 70560, Note_on_c, 2, 52, 63
3, 71040, Note_off_c, 2, 52, 63
3, 71040, Note_on_c, 2, 44, 63
3, 71520, Note_off_c, 2, 44, 63
3, 71520, Note_on_c, 2, 47, 63
3, 72000, Note_off_c, 2, 47, 63
3, 72000, Note_on_c, 2, 52, 63
3, 72480, Note_off_c, 2, 52, 63
3, 72480, Note_on_c, 2, 44, 63
3, 72960, Note_off_c, 2, 44, 63
3, 72960, Note_on_c, 2, 42, 63
3, 73440, Note_off_c, 2, 42, 63
3, 73440, Note_on_c, 2, 49, 63
3, 73920, Note_off_c, 2, 49, 63
3, 73920, Note_on_c, 2, 52, 63
3, 74400, Note_off_c, 2, 52, 63
3, 74400, Note_on_c, 2, 49, 63
3, 74880, Note_off_c, 2, 49, 63
3, 74880, Note_on_c, 2, 47, 63
3, 75360, Note_off_c, 2, 47, 63
3, 75360, Note_on_c, 2, 54, 63
3, 75840, Note_off_c, 2, 54, 63
3, 75840, Note_on_c, 2, 59, 63
3, 76320, Note_off_c, 2, 59, 63
3, 76320, Note_on_c, 2, 54, 63
3, 76800, Note_off_c, 2, 54, 63
3, 76800, Note_on_c, 2, 45, 63
3, 77280, Note_off_c, 2, 45, 63
3, 77280, Note_on_c, 2, 52, 63
3, 77760, Note_off_c, 2, 52, 63
3, 77760, Note_on_c, 2, 57, 63
3, 78240, Note_off_c, 2, 57, 63
3, 78240, Note_on_c, 2, 52, 63
3, 78720, Note_off_c, 2, 52, 63
3, 78720, Note_on_c, 2, 47, 63
3, 79200, Note_off_c, 2, 47, 63
3, 79200, Note_on_c, 2, 54, 63
3, 79680, Note_off_c, 2, 54, 63
3, 79680, Note_on_c, 2, 59, 63
3, 80160, Note_off_c, 2, 59, 63
3, 80160, Note_on_c, 2, 54, 63
3, 80640, Note_off_c, 2, 54, 63
3, 80640, Note_on_c, 2, 40, 63
3, 81120, Note_off_c, 2, 40, 63
3, 81120, Note_on_c, 2, 47, 63
3, 81600, Note_off_c, 2, 47, 63
3, 81600, Note_on_c, 2, 56, 63
3, 82080, Note_off_c, 2, 56, 63
3, 82080, Note_on_c, 2, 52, 63
3, 82560, Note_off_c, 2, 52, 63
3, 82560, Note_on_c, 2, 45, 63
3, 83040, Note_off_c, 2, 45, 63
3, 83040, Note_on_c, 2, 52, 63
3, 83520, Note_off_c, 2, 52, 63
3, 83520, Note_on_c, 2, 57, 63
3, 84000, Note_off_c, 2, 57, 63
3, 84000, Note_on_c, 2, 52, 63
3, 84480, Note_off_c, 2, 52, 63
3, 84480, Note_on_c, 2, 45, 63
3, 84960, Note_off_c, 2, 45, 63
3, 84960, Note_on_c, 2, 52, 63
3, 85440, Note_off_c, 2, 52, 63
3, 85440, Note_on_c, 2, 57, 63
3, 85920, Note_off_c, 2, 57, 63
3, 85920, Note_on_c, 2, 52, 63
3, 86400, Note_off_c, 2, 52, 63
3, 86400, Note_on_c, 2, 47, 63
3, 86880, Note_off_c, 2, 47, 63
3, 86880, Note_on_c, 2, 54, 63
3, 87360, Note_off_c, 2, 54, 63
3, 87360, Note_on_c, 2, 59, 63
3, 87840, Note_off_c, 2, 59, 63
3, 87840, Note_on_c, 2, 54, 63
3, 88320, Note_off_c, 2, 54, 63
3, 88320, Note_on_c, 2, 40, 63
3, 88800, Note_off_c, 2, 40, 63
3, 88800, Note_on_c, 2, 47, 63
3, 89280, Note_off_c, 2, 47, 63
3, 89280, Note_on_c, 2, 52, 63
3, 89760, Note_off_c, 2, 52, 63
3, 89760, Note_on_c, 2, 47, 63
3, 90240, Note_off_c, 2, 47, 63
3, 90240, Note_on_c, 2, 40, 63
3, 91200, Note_off_c, 2, 40, 63
3, 91200, Note_on_c, 2, 42, 63
3, 91680, Note_off_c, 2, 42, 63
3, 91680, Note_on_c, 2, 44, 63
3, 92160, Note_off_c, 2, 44, 63
3, 92160, Note_on_c, 2, 45, 63
3, 92640, Note_off_c, 2, 45, 63
3, 92640, Note_on_c, 2, 52, 63
3, 93120, Note_off_c, 2, 52, 63
3, 93120, Note_on_c, 2, 57, 63
3, 93600, Note_off_c, 2, 57, 63
3, 93600, Note_on_c, 2, 52, 63
3, 94080, Note_off_c, 2, 52, 63
3, 94080, Note_on_c, 2, 44, 63
3, 94560, Note_off_c, 2, 44, 63
3, 94560, Note_on_c, 2, 47, 63
3, 95040, Note_off_c, 2, 47, 63
3, 95040, Note_on_c, 2, 52, 63
3, 95520, Note_off_c, 2, 52, 63
3, 95520, Note_on_c, 2, 44, 63
3, 96000, Note_off_c, 2, 44, 63
3, 96000, Note_on_c, 2, 42, 63
3, 96480, Note_off_c, 2, 42, 63
3, 96480, Note_on_c, 2, 49, 63
3, 96960, Note_off_c, 2, 49, 63
3, 96960, Note_on_c, 2, 52, 63
3, 97440, Note_off_c, 2, 52, 63
3, 97440, Note_on_c, 2, 42, 63
3, 97920, Note_off_c, 2, 42, 63
3, 97920, Note_on_c, 2, 47, 63
3, 98400, Note_off_c, 2, 47, 63
3, 98400, Note_on_c, 2, 54, 63
3, 98880, Note_off_c, 2, 54, 63
3, 98880, Note_on_c, 2, 59, 63
3, 99360, Note_off_c, 2, 59, 63
3, 99360, Note_on_c, 2, 54, 63
3, 99840, Note_off_c, 2, 54, 63
3, 99840, Note_on_c, 2, 45, 63
3, 100320, Note_off_c, 2, 45, 63
3, 100320, Note_on_c, 2, 52, 63
3, 100800, Note_off_c, 2, 52, 63
3, 100800, Note_on_c, 2, 57, 63
3, 101280, Note_off_c, 2, 57, 63
3, 101280, Note_on_c, 2, 52, 63
3, 101760, Note_off_c, 2, 52, 63
3, 101760, Note_on_c, 2, 44, 63
3, 102240, Note_off_c, 2, 44, 63
3, 102240, Note_on_c, 2, 47, 63
3, 102720, Note_off_c, 2, 47, 63
3, 102720, Note_on_c, 2, 52, 63
3, 103200, Note_off_c, 2, 52, 63
3, 103200, Note_on_c, 2, 44, 63
3, 103680, Note_off_c, 2, 44, 63
3, 103680, Note_on_c, 2, 42, 63
3, 104160, Note_off_c, 2, 42, 63
3, 104160, Note_on_c, 2, 49, 63
3, 104640, Note_off_c, 2, 49, 63
3, 104640, Note_on_c, 2, 52, 63
3, 105120, Note_off_c, 2, 52, 63
3, 105120, Note_on_c, 2, 42, 63
3, 105600, Note_off_c, 2, 42, 63
3, 105600, Note_on_c, 2, 40, 63
3, 106080, Note_off_c, 2, 40, 63
3, 106080, Note_on_c, 2, 47, 63
3, 106560, Note_off_c, 2, 47, 63
3, 106560, Note_on_c, 2, 42, 63
3, 107040, Note_off_c, 2, 42, 63
3, 107040, Note_on_c, 2, 44, 63
3, 107520, Note_off_c, 2, 44, 63
3, 107520, Note_on_c, 2, 45, 63
3, 108000, Note_off_c, 2, 45, 63
3, 108000, Note_on_c, 2, 52, 63
3, 108480, Note_off_c, 2, 52, 63
3, 108480, Note_on_c, 2, 57, 63
3, 108960, Note_off_c, 2, 57, 63
3, 108960, Note_on_c, 2, 52, 63
3, 109440, Note_off_c, 2, 52, 63
3, 109440, Note_on_c, 2, 44, 63
3, 109920, Note_off_c, 2, 44, 63
3, 109920, Note_on_c, 2, 47, 63
3, 110400, Note_off_c, 2, 47, 63
3, 110400, Note_on_c, 2, 52, 63
3, 110880, Note_off_c, 2, 52, 63
3, 110880, Note_on_c, 2, 44, 63
3, 111360, Note_off_c, 2, 44, 63
3, 111360, Note_on_c, 2, 42, 63
3, 111840, Note_off_c, 2, 42, 63
3, 111840, Note_on_c, 2, 49, 63
3, 112320, Note_off_c, 2, 49, 63
3, 112320, Note_on_c, 2, 52, 63
3, 112800, Note_off_c, 2, 52, 63
3, 112800, Note_on_c, 2, 42, 63
3, 113280, Note_off_c, 2, 42, 63
3, 113280, Note_on_c, 2, 47, 63
3, 113760, Note_off_c, 2, 47, 63
3, 113760, Note_on_c, 2, 54, 63
3, 114240, Note_off_c, 2, 54, 63
3, 114240, Note_on_c, 2, 59, 63
3, 114720, Note_off_c, 2, 59, 63
3, 114720, Note_on_c, 2, 54, 63
3, 115200, Note_off_c, 2, 54, 63
3, 115200, Note_on_c, 2, 45, 63
3, 115680, Note_off_c, 2, 45, 63
3, 115680, Note_on_c, 2, 52, 63
3, 116160, Note_off_c, 2, 52, 63
3, 116160, Note_on_c, 2, 57, 63
3, 116640, Note_off_c, 2, 57, 63
3, 116640, Note_on_c, 2, 52, 63
3, 117120, Note_off_c, 2, 52, 63
3, 117120, Note_on_c, 2, 44, 63
3, 117600, Note_off_c, 2, 44, 63
3, 117600, Note_on_c, 2, 47, 63
3, 118080, Note_off_c, 2, 47, 63
3, 118080, Note_on_c, 2, 52, 63
3, 118560, Note_off_c, 2, 52, 63
3, 118560, Note_on_c, 2, 44, 63
3, 119040, Note_off_c, 2, 44, 63
3, 119040, Note_on_c, 2, 42, 63
3, 119520, Note_off_c, 2, 42, 63
3, 119520, Note_on_c, 2, 49, 63
3, 120000, Note_off_c, 2, 49, 63
3, 120000, Note_on_c, 2, 52, 63
3, 120480, Note_off_c, 2, 52, 63
3, 120480, Note_on_c, 2, 42, 63
3, 120960, Note_off_c, 2, 42, 63
3, 120960, Note_on_c, 2, 40, 63
3, 121440, Note_off_c, 2, 40, 63
3, 121440, Note_on_c, 2, 47, 63
3, 121920, Note_off_c, 2, 47, 63
3, 121920, Note_on_c, 2, 52, 63
3, 122400, Note_off_c, 2, 52, 63
3, 122400, Note_on_c, 2, 47, 63
3, 122880, Note_off_c, 2, 47, 63
3, 122880, Note_on_c, 2, 45, 63
3, 123360, Note_off_c, 2, 45, 63
3, 123360, Note_on_c, 2, 52, 63
3, 123840, Note_off_c, 2, 52, 63
3, 123840, Note_on_c, 2, 57, 63
3, 124320, Note_off_c, 2, 57, 63
3, 124320, Note_on_c, 2, 52, 63
3, 124800, Note_off_c, 2, 52, 63
3, 124800, Note_on_c, 2, 44, 63
3, 125280, Note_off_c, 2, 44, 63
3, 125280, Note_on_c, 2, 47, 63
3, 125760, Note_off_c, 2, 47, 63
3, 125760, Note_on_c, 2, 52, 63
3, 126240, Note_off_c, 2, 52, 63
3, 126240, Note_on_c, 2, 44, 63
3, 126720, Note_off_c, 2, 44, 63
3, 126720, Note_on_c, 2, 42, 63
3, 127200, Note_off_c, 2, 42, 63
3, 127200, Note_on_c, 2, 49, 63
3, 127680, Note_off_c, 2, 49, 63
3, 127680, Note_on_c, 2, 52, 63
3, 128160, Note_off_c, 2, 52, 63
3, 128160, Note_on_c, 2, 42, 63
3, 128640, Note_off_c, 2, 42, 63
3, 128640, Note_on_c, 2, 40, 63
3, 129120, Note_off_c, 2, 40, 63
3, 129120, Note_on_c, 2, 47, 63
3, 129600, Note_off_c, 2, 47, 63
3, 129600, Note_on_c, 2, 52, 63
3, 130080, Note_off_c, 2, 52, 63
3, 130080, Note_on_c, 2, 40, 63
3, 130560, Note_off_c, 2, 40, 63
3, 130560, Note_on_c, 2, 45, 63
3, 131040, Note_off_c, 2, 45, 63
3, 131040, Note_on_c, 2, 52, 63
3, 131520, Note_off_c, 2, 52, 63
3, 131520, Note_on_c, 2, 57, 63
3, 132000, Note_off_c, 2, 57, 63
3, 132000, Note_on_c, 2, 52, 63
3, 132480, Note_off_c, 2, 52, 63
3, 132480, Note_on_c, 2, 44, 63
3, 132960, Note_off_c, 2, 44, 63
3, 132960, Note_on_c, 2, 47, 63
3, 133440, Note_off_c, 2, 47, 63
3, 133440, Note_on_c, 2, 52, 63
3, 133920, Note_off_c, 2, 52, 63
3, 133920, Note_on_c, 2, 44, 63
3, 134400, Note_off_c, 2, 44, 63
3, 134400, Note_on_c, 2, 42, 63
3, 134880, Note_off_c, 2, 42, 63
3, 134880, Note_on_c, 2, 49, 63
3, 135360, Note_off_c, 2, 49, 63
3, 135360, Note_on_c, 2, 52, 63
3, 135840, Note_off_c, 2, 52, 63
3, 135840, Note_on_c, 2, 49, 63
3, 136320, Note_off_c, 2, 49, 63
3, 136320, Note_on_c, 2, 47, 63
3, 136800, Note_off_c, 2, 47, 63
3, 136800, Note_on_c, 2, 54, 63
3, 137280, Note_off_c, 2, 54, 63
3, 137280, Note_on_c, 2, 59, 63
3, 137760, Note_off_c, 2, 59, 63
3, 137760, Note_on_c, 2, 54, 63
3, 138240, Note_off_c, 2, 54, 63
3, 138240, Note_on_c, 2, 45, 63
3, 138720, Note_off_c, 2, 45, 63
3, 138720, Note_on_c, 2, 52, 63
3, 139200, Note_off_c, 2, 52, 63
3, 139200, Note_on_c, 2, 57, 63
3, 139680, Note_off_c, 2, 57, 63
3, 139680, Note_on_c, 2, 52, 63
3, 140160, Note_off_c, 2, 52, 63
3, 140160, Note_on_c, 2, 47, 63
3, 140640, Note_off_c, 2, 47, 63
3, 140640, Note_on_c, 2, 54, 63
3, 141120, Note_off_c, 2, 54, 63
3, 141120, Note_on_c, 2, 59, 63
3, 141600, Note_off_c, 2, 59, 63
3, 141600, Note_on_c, 2, 54, 63
3, 142080, Note_off_c, 2, 54, 63
3, 142080, Note_on_c, 2, 40, 63
3, 142560, Note_off_c, 2, 40, 63
3, 142560, Note_on_c, 2, 47, 63
3, 143040, Note_off_c, 2, 47, 63
3, 143040, Note_on_c, 2, 56, 63
3, 143520, Note_off_c, 2, 56, 63
3, 143520, Note_on_c, 2, 52, 63
3, 144000, Note_off_c, 2, 52, 63
3, 144000, Note_on_c, 2, 45, 63
3, 144480, Note_off_c, 2, 45, 63
3, 144480, Note_on_c, 2, 52, 63
3, 144960, Note_off_c, 2, 52, 63
3, 144960, Note_on_c, 2, 57, 63
3, 145440, Note_off_c, 2, 57, 63
3, 145440, Note_on_c, 2, 52, 63
3, 145920, Note_off_c, 2, 52, 63
3, 145920, Note_on_c, 2, 45, 63
3, 146400, Note_off_c, 2, 45, 63
3, 146400, Note_on_c, 2, 52, 63
3, 146880, Note_off_c, 2, 52, 63
3, 146880, Note_on_c, 2, 57, 63
3, 147360, Note_off_c, 2, 57, 63
3, 147360, Note_on_c, 2, 52, 63
3, 147840, Note_off_c, 2, 52, 63
3, 147840, Note_on_c, 2, 47, 63
3, 148320, Note_off_c, 2, 47, 63
3, 148320, Note_on_c, 2, 54, 63
3, 148800, Note_off_c, 2, 54, 63
3, 148800, Note_on_c, 2, 59, 63
3, 149280, Note_off_c, 2, 59, 63
3, 149280, Note_on_c, 2, 54, 63
3, 149760, Note_off_c, 2, 54, 63
3, 149760, Note_on_c, 2, 40, 63
3, 150240, Note_off_c, 2, 40, 63
3, 150240, Note_on_c, 2, 47, 63
3, 150720, Note_off_c, 2, 47, 63
3, 150720, Note_on_c, 2, 52, 63
3, 151200, Note_off_c, 2, 52, 63
3, 151200, Note_on_c, 2, 47, 63
3, 151680, Note_off_c, 2, 47, 63
3, 151680, Note_on_c, 2, 40, 63
3, 152640, Note_off_c, 2, 40, 63
3, 152640, Note_on_c, 2, 42, 63
3, 153120, Note_off_c, 2, 42, 63
3, 153120, Note_on_c, 2, 44, 63
3, 153600, Note_off_c, 2, 44, 63
3, 153600, Note_on_c, 2, 45, 63
3, 154080, Note_off_c, 2, 45, 63
3, 154080, Note_on_c, 2, 52, 63
3, 154560, Note_off_c, 2, 52, 63
3, 154560, Note_on_c, 2, 57, 63
3, 155040, Note_off_c, 2, 57, 63
3, 155040, Note_on_c, 2, 52, 63
3, 155520, Note_off_c, 2, 52, 63
3, 155520, Note_on_c, 2, 44, 63
3, 156000, Note_off_c, 2, 44, 63
3, 156000, Note_on_c, 2, 47, 63
3, 156480, Note_off_c, 2, 47, 63
3, 156480, Note_on_c, 2, 52, 63
3, 156960, Note_off_c, 2, 52, 63
3, 156960, Note_on_c, 2, 44, 63
3, 157440, Note_off_c, 2, 44, 63
3, 157440, Note_on_c, 2, 42, 63
3, 157920, Note_off_c, 2, 42, 63
3, 157920, Note_on_c, 2, 49, 63
3, 158400, Note_off_c, 2, 49, 63
3, 158400, Note_on_c, 2, 52, 63
3, 158880, Note_off_c, 2, 52, 63
3, 158880, Note_on_c, 2, 42, 63
3, 159360, Note_off_c, 2, 42, 63
3, 159360, Note_on_c, 2, 40, 63
3, 159840, Note_off_c, 2, 40, 63
3, 159840, Note_on_c, 2, 47, 63
3, 160320, Note_off_c, 2, 47, 63
3, 160320, Note_on_c, 2, 52, 63
3, 160800, Note_off_c, 2, 52, 63
3, 160800, Note_on_c, 2, 40, 63
3, 161280, Note_off_c, 2, 40, 63
3, 161280, Note_on_c, 2, 45, 63
3, 161760, Note_off_c, 2, 45, 63
3, 161760, Note_on_c, 2, 52, 63
3, 162240, Note_off_c, 2, 52, 63
3, 162240, Note_on_c, 2, 57, 63
3, 162720, Note_off_c, 2, 57, 63
3, 162720, Note_on_c, 2, 52, 63
3, 163200, Note_off_c, 2, 52, 63
3, 163200, Note_on_c, 2, 44, 63
3, 163680, Note_off_c, 2, 44, 63
3, 163680, Note_on_c, 2, 47, 63
3, 164160, Note_off_c, 2, 47, 63
3, 164160, Note_on_c, 2, 52, 63
3, 164640, Note_off_c, 2, 52, 63
3, 164640, Note_on_c, 2, 44, 63
3, 165120, Note_off_c, 2, 44, 63
3, 165120, Note_on_c, 2, 42, 63
3, 165600, Note_off_c, 2, 42, 63
3, 165600, Note_on_c, 2, 49, 63
3, 166080, Note_off_c, 2, 49, 63
3, 166080, Note_on_c, 2, 52, 63
3, 166560, Note_off_c, 2, 52, 63
3, 166560, Note_on_c, 2, 49, 63
3, 167040, Note_off_c, 2, 49, 63
3, 167040, Note_on_c, 2, 47, 63
3, 167520, Note_off_c, 2, 47, 63
3, 167520, Note_on_c, 2, 54, 63
3, 168000, Note_off_c, 2, 54, 63
3, 168000, Note_on_c, 2, 59, 63
3, 168480, Note_off_c, 2, 59, 63
3, 168480, Note_on_c, 2, 54, 63
3, 168960, Note_off_c, 2, 54, 63
3, 168960, Note_on_c, 2, 45, 63
3, 169440, Note_off_c, 2, 45, 63
3, 169440, Note_on_c, 2, 52, 63
3, 169920, Note_off_c, 2, 52, 63
3, 169920, Note_on_c, 2, 57, 63
3, 170400, Note_off_c, 2, 57, 63
3, 170400, Note_on_c, 2, 52, 63
3, 170880, Note_off_c, 2, 52, 63
3, 170880, Note_on_c, 2, 47, 63
3, 171360, Note_off_c, 2, 47, 63
3, 171360, Note_on_c, 2, 54, 63
3, 171840, Note_off_c, 2, 54, 63
3, 171840, Note_on_c, 2, 59, 63
3, 172320, Note_off_c, 2, 59, 63
3, 172320, Note_on_c, 2, 54, 63
3, 172800, Note_off_c, 2, 54, 63
3, 172800, Note_on_c, 2, 40, 63
3, 173280, Note_off_c, 2, 40, 63
3, 173280, Note_on_c, 2, 47, 63
3, 173760, Note_off_c, 2, 47, 63
3, 173760, Note_on_c, 2, 56, 63
3, 174240, Note_off_c, 2, 56, 63
3, 174240, Note_on_c, 2, 52, 63
3, 174720, Note_off_c, 2, 52, 63
3, 174720, Note_on_c, 2, 45, 63
3, 175200, Note_off_c, 2, 45, 63
3, 175200, Note_on_c, 2, 52, 63
3, 175680, Note_off_c, 2, 52, 63
3, 175680, Note_on_c, 2, 57, 63
3, 176160, Note_off_c, 2, 57, 63
3, 176160, Note_on_c, 2, 52, 63
3, 176640, Note_off_c, 2, 52, 63
3, 176640, Note_on_c, 2, 45, 63
3, 177120, Note_off_c, 2, 45, 63
3, 177120, Note_on_c, 2, 52, 63
3, 177600, Note_off_c, 2, 52, 63
3, 177600, Note_on_c, 2, 57, 63
3, 178080, Note_off_c, 2, 57, 63
3, 178080, Note_on_c, 2, 52, 63
3, 178560, Note_off_c, 2, 52, 63
3, 178560, Note_on_c, 2, 47, 63
3, 179040, Note_off_c, 2, 47, 63
3, 179040, Note_on_c, 2, 54, 63
3, 179520, Note_off_c, 2, 54, 63
3, 179520, Note_on_c, 2, 59, 63
3, 180000, Note_off_c, 2, 59, 63
3, 180000, Note_on_c, 2, 54, 63
3, 180480, Note_off_c, 2, 54, 63
3, 180480, Note_on_c, 2, 40, 63
3, 180960, Note_off_c, 2, 40, 63
3, 180960, Note_on_c, 2, 47, 63
3, 181440, Note_off_c, 2, 47, 63
3, 181440, Note_on_c, 2, 52, 63
3, 181920, Note_off_c, 2, 52, 63
3, 181920, Note_on_c, 2, 47, 63
3, 182400, Note_off_c, 2, 47, 63
3, 182400, Note_on_c, 2, 40, 63
3, 183360, Note_off_c, 2, 40, 63
3, 183360, Note_on_c, 2, 42, 63
3, 183840, Note_off_c, 2, 42, 63
3, 183840, Note_on_c, 2, 44, 63
3, 184320, Note_off_c, 2, 44, 63
3, 184320, Note_on_c, 2, 45, 63
3, 184800, Note_off_c, 2, 45, 63
3, 184800, Note_on_c, 2, 52, 63
3, 185280, Note_off_c, 2, 52, 63
3, 185280, Note_on_c, 2, 57, 63
3, 185760, Note_off_c, 2, 57, 63
3, 185760, Note_on_c, 2, 52, 63
3, 186240, Note_off_c, 2, 52, 63
3, 186240, Note_on_c, 2, 44, 63
3, 186720, Note_off_c, 2, 44, 63
3, 186720, Note_on_c, 2, 47, 63
3, 187200, Note_off_c, 2, 47, 63
3, 187200, Note_on_c, 2, 52, 63
3, 187680, Note_off_c, 2, 52, 63
3, 187680, Note_on_c, 2, 44, 63
3, 188160, Note_off_c, 2, 44, 63
3, 188160, Note_on_c, 2, 42, 63
3, 188640, Note_off_c, 2, 42, 63
3, 188640, Note_on_c, 2, 49, 63
3, 189120, Note_off_c, 2, 49, 63
3, 189120, Note_on_c, 2, 52, 63
3, 189600, Note_off_c, 2, 52, 63
3, 189600, Note_on_c, 2, 42, 63
3, 190080, Note_off_c, 2, 42, 63
3, 190080, Note_on_c, 2, 47, 63
3, 190560, Note_off_c, 2, 47, 63
3, 190560, Note_on_c, 2, 54, 63
3, 191040, Note_off_c, 2, 54, 63
3, 191040, Note_on_c, 2, 59, 63
3, 191520, Note_off_c, 2, 59, 63
3, 191520, Note_on_c, 2, 54, 63
3, 192000, Note_off_c, 2, 54, 63
3, 192000, Note_on_c, 2, 45, 63
3, 192480, Note_off_c, 2, 45, 63
3, 192480, Note_on_c, 2, 52, 63
3, 192960, Note_off_c, 2, 52, 63
3, 192960, Note_on_c, 2, 57, 63
3, 193440, Note_off_c, 2, 57, 63
3, 193440, Note_on_c, 2, 52, 63
3, 193920, Note_off_c, 2, 52, 63
3, 193920, Note_on_c, 2, 44, 63
3, 194400, Note_off_c, 2, 44, 63
3, 194400, Note_on_c, 2, 47, 63
3, 194880, Note_off_c, 2, 47, 63
3, 194880, Note_on_c, 2, 52, 63
3, 195360, Note_off_c, 2, 52, 63
3, 195360, Note_on_c, 2, 44, 63
3, 195840, Note_off_c, 2, 44, 63
3, 195840, Note_on_c, 2, 42, 63
3, 196320, Note_off_c, 2, 42, 63
3, 196320, Note_on_c, 2, 49, 63
3, 196800, Note_off_c, 2, 49, 63
3, 196800, Note_on_c, 2, 52, 63
3, 197280, Note_off_c, 2, 52, 63
3, 197280, Note_on_c, 2, 42, 63
3, 197760, Note_off_c, 2, 42, 63
3, 197760, Note_on_c, 2, 40, 63
3, 198240, Note_off_c, 2, 40, 63
3, 198240, Note_on_c, 2, 47, 63
3, 198720, Note_off_c, 2, 47, 63
3, 198720, Note_on_c, 2, 42, 63
3, 199200, Note_off_c, 2, 42, 63
3, 199200, Note_on_c, 2, 44, 63
3, 199680, Note_off_c, 2, 44, 63
3, 199680, Note_on_c, 2, 45, 63
3, 200160, Note_off_c, 2, 45, 63
3, 200160, Note_on_c, 2, 52, 63
3, 200640, Note_off_c, 2, 52, 63
3, 200640, Note_on_c, 2, 57, 63
3, 201120, Note_off_c, 2, 57, 63
3, 201120, Note_on_c, 2, 52, 63
3, 201600, Note_off_c, 2, 52, 63
3, 201600, Note_on_c, 2, 44, 63
3, 202080, Note_off_c, 2, 44, 63
3, 202080, Note_on_c, 2, 47, 63
3, 202560, Note_off_c, 2, 47, 63
3, 202560, Note_on_c, 2, 52, 63
3, 203040, Note_off_c, 2, 52, 63
3, 203040, Note_on_c, 2, 44, 63
3, 203520, Note_off_c, 2, 44, 63
3, 203520, Note_on_c, 2, 42, 63
3, 204000, Note_off_c, 2, 42, 63
3, 204000, Note_on_c, 2, 49, 63
3, 204480, Note_off_c, 2, 49, 63
3, 204480, Note_on_c, 2, 52, 63
3, 204960, Note_off_c, 2, 52, 63
3, 204960, Note_on_c, 2, 42, 63
3, 205440, Note_off_c, 2, 42, 63
3, 205440, Note_on_c, 2, 47, 63
3, 205920, Note_off_c, 2, 47, 63
3, 205920, Note_on_c, 2, 54, 63
3, 206400, Note_off_c, 2, 54, 63
3, 206400, Note_on_c, 2, 59, 63
3, 206880, Note_off_c, 2, 59, 63
3, 206880, Note_on_c, 2, 54, 63
3, 207360, Note_off_c, 2, 54, 63
3, 207360, Note_on_c, 2, 45, 63
3, 207840, Note_off_c, 2, 45, 63
3, 207840, Note_on_c, 2, 52, 63
3, 208320, Note_off_c, 2, 52, 63
3, 208320, Note_on_c, 2, 57, 63
3, 208800, Note_off_c, 2, 57, 63
3, 208800, Note_on_c, 2, 52, 63
3, 209280, Note_off_c, 2, 52, 63
3, 209280, Note_on_c, 2, 44, 63
3, 209760, Note_off_c, 2, 44, 63
3, 209760, Note_on_c, 2, 47, 63
3, 210240, Note_off_c, 2, 47, 63
3, 210240, Note_on_c, 2, 52, 63
3, 210720, Note_off_c, 2, 52, 63
3, 210720, Note_on_c, 2, 44, 63
3, 211200, Note_off_c, 2, 44, 63
3, 211200, Note_on_c, 2, 42, 63
3, 211680, Note_off_c, 2, 42, 63
3, 211680, Note_on_c, 2, 49, 63
3, 212160, Note_off_c, 2, 49, 63
3, 212160, Note_on_c, 2, 52, 63
3, 212640, Note_off_c, 2, 52, 63
3, 212640, Note_on_c, 2, 42, 63
3, 213120, Note_off_c, 2, 42, 63
3, 213120, Note_on_c, 2, 40, 63
3, 213600, Note_off_c, 2, 40, 63
3, 213600, Note_on_c, 2, 47, 63
3, 214080, Note_off_c, 2, 47, 63
3, 214080, Note_on_c, 2, 42, 63
3, 214560, Note_off_c, 2, 42, 63
3, 214560, Note_on_c, 2, 44, 63
3, 215040, Note_off_c, 2, 44, 63
3, 215040, Note_on_c, 2, 45, 63
3, 215520, Note_off_c, 2, 45, 63
3, 215520, Note_on_c, 2, 52, 63
3, 216000, Note_off_c, 2, 52, 63
3, 216000, Note_on_c, 2, 57, 63
3, 216480, Note_off_c, 2, 57, 63
3, 216480, Note_on_c, 2, 52, 63
3, 216960, Note_off_c, 2, 52, 63
3, 216960, Note_on_c, 2, 44, 63
3, 217440, Note_off_c, 2, 44, 63
3, 217440, Note_on_c, 2, 47, 63
3, 217920, Note_off_c, 2, 47, 63
3, 217920, Note_on_c, 2, 52, 63
3, 218400, Note_off_c, 2, 52, 63
3, 218400, Note_on_c, 2, 44, 63
3, 218880, Note_off_c, 2, 44, 63
3, 218880, Note_on_c, 2, 42, 63
3, 219360, Note_off_c, 2, 42, 63
3, 219360, Note_on_c, 2, 49, 63
3, 219840, Note_off_c, 2, 49, 63
3, 219840, Note_on_c, 2, 52, 63
3, 220320, Note_off_c, 2, 52, 63
3, 220320, Note_on_c, 2, 42, 63
3, 220800, Note_off_c, 2, 42, 63
3, 220800, Note_on_c, 2, 47, 63
3, 221280, Note_off_c, 2, 47, 63
3, 221280, Note_on_c, 2, 54, 63
3, 221760, Note_off_c, 2, 54, 63
3, 221760, Note_on_c, 2, 59, 63
3, 222240, Note_off_c, 2, 59, 63
3, 222240, Note_on_c, 2, 54, 63
3, 222720, Note_off_c, 2, 54, 63
3, 222720, Note_on_c, 2, 45, 63
3, 223200, Note_off_c, 2, 45, 63
3, 223200, Note_on_c, 2, 52, 63
3, 223680, Note_off_c, 2, 52, 63
3, 223680, Note_on_c, 2, 57, 63
3, 224160, Note_off_c, 2, 57, 63
3, 224160, Note_on_c, 2, 52, 63
3, 224640, Note_off_c, 2, 52, 63
3, 224640, Note_on_c, 2, 44, 63
3, 225120, Note_off_c, 2, 44, 63
3, 225120, Note_on_c, 2, 47, 63
3, 225600, Note_off_c, 2, 47, 63
3, 225600, Note_on_c, 2, 52, 63
3, 226080, Note_off_c, 2, 52, 63
3, 226080, Note_on_c, 2, 44, 63
3, 226560, Note_off_c, 2, 44, 63
3, 226560, Note_on_c, 2, 42, 63
3, 227040, Note_off_c, 2, 42, 63
3, 227040, Note_on_c, 2, 49, 63
3, 227520, Note_off_c, 2, 49, 63
3, 227520, Note_on_c, 2, 52, 63
3, 228000, Note_off_c, 2, 52, 63
3, 228000, Note_on_c, 2, 42, 63
3, 228480, Note_off_c, 2, 42, 63
3, 228480, Note_on_c, 2, 40, 63
3, 228960, Note_off_c, 2, 40, 63
3, 228960, Note_on_c, 2, 47, 63
3, 229440, Note_off_c, 2, 47, 63
3, 229440, Note_on_c, 2, 52, 63
3, 229920, Note_off_c, 2, 52, 63
3, 229920, Note_on_c, 2, 47, 63
3, 230400, Note_off_c, 2, 47, 63
3, 230400, Note_on_c, 2, 45, 63
3, 230880, Note_off_c, 2, 45, 63
3, 230880, Note_on_c, 2, 52, 63
3, 231360, Note_off_c, 2, 52, 63
3, 231360, Note_on_c, 2, 57, 63
3, 231840, Note_off_c, 2, 57, 63
3, 231840, Note_on_c, 2, 52, 63
3, 232320, Note_off_c, 2, 52, 63
3, 232320, Note_on_c, 2, 44, 63
3, 232800, Note_off_c, 2, 44, 63
3, 232800, Note_on_c, 2, 47, 63
3, 233280, Note_off_c, 2, 47, 63
3, 233280, Note_on_c, 2, 52, 63
3, 233760, Note_off_c, 2, 52, 63
3, 233760, Note_on_c, 2, 44, 63
3, 234240, Note_off_c, 2, 44, 63
3, 234240, Note_on_c, 2, 42, 63
3, 234720, Note_off_c, 2, 42, 63
3, 234720, Note_on_c, 2, 49, 63
3, 235200, Note_off_c, 2, 49, 63
3, 235200, Note_on_c, 2, 52, 63
3, 235680, Note_off_c, 2, 52, 63
3, 235680, Note_on_c, 2, 42, 63
3, 236160, Note_off_c, 2, 42, 63
3, 236160, Note_on_c, 2, 47, 63
3, 236640, Note_off_c, 2, 47, 63
3, 236640, Note_on_c, 2, 54, 63
3, 237120, Note_off_c, 2, 54, 63
3, 237120, Note_on_c, 2, 59, 63
3, 237600, Note_off_c, 2, 59, 63
3, 237600, Note_on_c, 2, 54, 63
3, 238080, Note_off_c, 2, 54, 63
3, 238080, Note_on_c, 2, 45, 63
3, 238560, Note_off_c, 2, 45, 63
3, 238560, Note_on_c, 2, 52, 63
3, 239040, Note_off_c, 2, 52, 63
3, 239040, Note_on_c, 2, 57, 63
3, 239520, Note_off_c, 2, 57, 63
3, 239520, Note_on_c, 2, 52, 63
3, 240000, Note_off_c, 2, 52, 63
3, 240000, Note_on_c, 2, 44, 63
3, 240480, Note_off_c, 2, 44, 63
3, 240480, Note_on_c, 2, 47, 63
3, 240960, Note_off_c, 2, 47, 63
3, 240960, Note_on_c, 2, 52, 63
3, 241440, Note_off_c, 2, 52, 63
3, 241440, Note_on_c, 2, 44, 63
3, 241920, Note_off_c, 2, 44, 63
3, 241920, Note_on_c, 2, 42, 63
3, 242400, Note_off_c, 2, 42, 63
3, 242400, Note_on_c, 2, 49, 63
3, 242880, Note_off_c, 2, 49, 63
3, 242880, Note_on_c, 2, 52, 63
3, 243360, Note_off_c, 2, 52, 63
3, 243360, Note_on_c, 2, 42, 63
3, 243840, Note_off_c, 2, 42, 63
3, 243840, Note_on_c, 2, 40, 63
3, 244320, Note_off_c, 2, 40, 63
3, 244320, Note_on_c, 2, 47, 63
3, 244800, Note_off_c, 2, 47, 63
3, 244800, Note_on_c, 2, 42, 63
3, 245280, Note_off_c, 2, 42, 63
3, 245280, Note_on_c, 2, 44, 63
3, 245760, Note_off_c, 2, 44, 63
3, 245760, Note_on_c, 2, 45, 63
3, 246240, Note_off_c, 2, 45, 63
3, 246240, Note_on_c, 2, 52, 63
3, 246720, Note_off_c, 2, 52, 63
3, 246720, Note_on_c, 2, 57, 63
3, 247200, Note_off_c, 2, 57, 63
3, 247200, Note_on_c, 2, 52, 63
3, 247680, Note_off_c, 2, 52, 63
3, 247680, Note_on_c, 2, 44, 63
3, 248160, Note_off_c, 2, 44, 63
3, 248160, Note_on_c, 2, 47, 63
3, 248640, Note_off_c, 2, 47, 63
3, 248640, Note_on_c, 2, 52, 63
3, 249120, Note_off_c, 2, 52, 63
3, 249120, Note_on_c, 2, 44, 63
3, 249600, Note_off_c, 2, 44, 63
3, 249600, Note_on_c, 2, 42, 63
3, 250080, Note_off_c, 2, 42, 63
3, 250080, Note_on_c, 2, 49, 63
3, 250560, Note_off_c, 2, 49, 63
3, 250560, Note_on_c, 2, 52, 63
3, 251040, Note_off_c, 2, 52, 63
3, 251040, Note_on_c, 2, 42, 63
3, 251520, Note_off_c, 2, 42, 63
3, 251520, Note_on_c, 2, 47, 63
3, 252000, Note_off_c, 2, 47, 63
3, 252000, Note_on_c, 2, 54, 63
3, 252480, Note_off_c, 2, 54, 63
3, 252480, Note_on_c, 2, 59, 63
3, 252960, Note_off_c, 2, 59, 63
3, 252960, Note_on_c, 2, 54, 63
3, 253440, Note_off_c, 2, 54, 63
3, 253440, Note_on_c, 2, 45, 63
3, 253920, Note_off_c, 2, 45, 63
3, 253920, Note_on_c, 2, 52, 63
3, 254400, Note_off_c, 2, 52, 63
3, 254400, Note_on_c, 2, 57, 63
3, 254880, Note_off_c, 2, 57, 63
3, 254880, Note_on_c, 2, 52, 63
3, 255360, Note_off_c, 2, 52, 63
3, 255360, Note_on_c, 2, 44, 63
3, 255840, Note_off_c, 2, 44, 63
3, 255840, Note_on_c, 2, 47, 63
3, 256320, Note_off_c, 2, 47, 63
3, 256320, Note_on_c, 2, 52, 63
3, 256800, Note_off_c, 2, 52, 63
3, 256800, Note_on_c, 2, 44, 63
3, 257280, Note_off_c, 2, 44, 63
3, 257280, Note_on_c, 2, 42, 63
3, 257760, Note_off_c, 2, 42, 63
3, 257760, Note_on_c, 2, 49, 63
3, 258240, Note_off_c, 2, 49, 63
3, 258240, Note_on_c, 2, 52, 63
3, 258720, Note_off_c, 2, 52, 63
3, 258720, Note_on_c, 2, 42, 63
3, 259200, Note_off_c, 2, 42, 63
3, 259200, Note_on_c, 2, 40, 63
3, 259680, Note_off_c, 2, 40, 63
3, 259680, Note_on_c, 2, 47, 63
3, 260160, Note_off_c, 2, 47, 63
3, 260160, Note_on_c, 2, 42, 63
3, 260640, Note_off_c, 2, 42, 63
3, 260640, Note_on_c, 2, 44, 63
3, 261120, Note_off_c, 2, 44, 63
3, 261120, Note_on_c, 2, 45, 63
3, 261600, Note_off_c, 2, 45, 63
3, 261600, Note_on_c, 2, 52, 63
3, 262080, Note_off_c, 2, 52, 63
3, 262080, Note_on_c, 2, 57, 63
3, 262560, Note_off_c, 2, 57, 63
3, 262560, Note_on_c, 2, 52, 63
3, 263040, Note_off_c, 2, 52, 63
3, 263040, Note_on_c, 2, 44, 63
3, 263520, Note_off_c, 2, 44, 63
3, 263520, Note_on_c, 2, 47, 63
3, 264000, Note_off_c, 2, 47, 63
3, 264000, Note_on_c, 2, 52, 63
3, 264480, Note_off_c, 2, 52, 63
3, 264480, Note_on_c, 2, 44, 63
3, 264960, Note_off_c, 2, 44, 63
3, 264960, Note_on_c, 2, 42, 63
3, 265440, Note_off_c, 2, 42, 63
3, 265440, Note_on_c, 2, 49, 63
3, 265920, Note_off_c, 2, 49, 63
3, 265920, Note_on_c, 2, 52, 63
3, 266400, Note_off_c, 2, 52, 63
3, 266400, Note_on_c, 2, 42, 63
3, 266880, Note_off_c, 2, 42, 63
3, 266880, Note_on_c, 2, 47, 63
3, 267360, Note_off_c, 2, 47, 63
3, 267360, Note_on_c, 2, 54, 63
3, 267840, Note_off_c, 2, 54, 63
3, 267840, Note_on_c, 2, 59, 63
3, 268320, Note_off_c, 2, 59, 63
3, 268320, Note_on_c, 2, 54, 63
3, 268800, Note_off_c, 2, 54, 63
3, 268800, Note_on_c, 2, 45, 63
3, 269280, Note_off_c, 2, 45, 63
3, 269280, Note_on_c, 2, 52, 63
3, 269760, Note_off_c, 2, 52, 63
3, 269760, Note_on_c, 2, 57, 63
3, 270240, Note_off_c, 2, 57, 63
3, 270240, Note_on_c, 2, 52, 63
3, 270720, Note_off_c, 2, 52, 63
3, 270720, Note_on_c, 2, 44, 63
3, 271200, Note_off_c, 2, 44, 63
3, 271200, Note_on_c, 2, 47, 63
3, 271680, Note_off_c, 2, 47, 63
3, 271680, Note_on_c, 2, 52, 63
3, 272160, Note_off_c, 2, 52, 63
3, 272160, Note_on_c, 2, 44, 63
3, 272640, Note_off_c, 2, 44, 63
3, 272640, Note_on_c, 2, 42, 63
3, 273120, Note_off_c, 2, 42, 63
3, 273120, Note_on_c, 2, 49, 63
3, 273600, Note_off_c, 2, 49, 63
3, 273600, Note_on_c, 2, 52, 63
3, 274080, Note_off_c, 2, 52, 63
3, 274080, Note_on_c, 2, 42, 63
3, 274560, Note_off_c, 2, 42, 63
3, 274560, Note_on_c, 2, 40, 63
3, 275040, Note_off_c, 2, 40, 63
3, 275040, Note_on_c, 2, 47, 63
3, 275520, Note_off_c, 2, 47, 63
3, 275520, Note_on_c, 2, 42, 63
3, 276000, Note_off_c, 2, 42, 63
3, 276000, Note_on_c, 2, 44, 63
3, 276480, Note_off_c, 2, 44, 63
3, 276480, Note_on_c, 2, 45, 63
3, 276960, Note_off_c, 2, 45, 63
3, 276960, Note_on_c, 2, 52, 63
3, 277440, Note_off_c, 2, 52, 63
3, 277440, Note_on_c, 2, 57, 63
3, 277920, Note_off_c, 2, 57, 63
3, 277920, Note_on_c, 2, 52, 63
3, 278400, Note_off_c, 2, 52, 63
3, 278400, Note_on_c, 2, 44, 63
3, 278880, Note_off_c, 2, 44, 63
3, 278880, Note_on_c, 2, 47, 63
3, 279360, Note_off_c, 2, 47, 63
3, 279360, Note_on_c, 2, 52, 63
3, 279840, Note_off_c, 2, 52, 63
3, 279840, Note_on_c, 2, 44, 63
3, 280320, Note_off_c, 2, 44, 63
3, 280320, Note_on_c, 2, 42, 63
3, 280800, Note_off_c, 2, 42, 63
3, 280800, Note_on_c, 2, 49, 63
3, 281280, Note_off_c, 2, 49, 63
3, 281280, Note_on_c, 2, 52, 63
3, 281760, Note_off_c, 2, 52, 63
3, 281760, Note_on_c, 2, 42, 63
3, 282240, Note_off_c, 2, 42, 63
3, 282240, Note_on_c, 2, 47, 63
3, 282720, Note_off_c, 2, 47, 63
3, 282720, Note_on_c, 2, 54, 63
3, 283200, Note_off_c, 2, 54, 63
3, 283200, Note_on_c, 2, 59, 63
3, 283680, Note_off_c, 2, 59, 63
3, 283680, Note_on_c, 2, 54, 63
3, 284160, Note_off_c, 2, 54, 63
3, 284160, Note_on_c, 2, 45, 63
3, 284640, Note_off_c, 2, 45, 63
3, 284640, Note_on_c, 2, 52, 63
3, 285120, Note_off_c, 2, 52, 63
3, 285120, Note_on_c, 2, 57, 63
3, 285600, Note_off_c, 2, 57, 63
3, 285600, Note_on_c, 2, 52, 63
3, 286080, Note_off_c, 2, 52, 63
3, 286080, Note_on_c, 2, 44, 63
3, 286560, Note_off_c, 2, 44, 63
3, 286560, Note_on_c, 2, 47, 63
3, 287040, Note_off_c, 2, 47, 63
3, 287040, Note_on_c, 2, 52, 63
3, 287520, Note_off_c, 2, 52, 63
3, 287520, Note_on_c, 2, 44, 63
3, 288000, Note_off_c, 2, 44, 63
3, 288000, Note_on_c, 2, 42, 63
3, 288480, Note_off_c, 2, 42, 63
3, 288480, Note_on_c, 2, 49, 63
3, 288960, Note_off_c, 2, 49, 63
3, 288960, Note_on_c, 2, 52, 63
3, 289440, Note_off_c, 2, 52, 63
3, 289440, Note_on_c, 2, 42, 63
3, 289920, Note_off_c, 2, 42, 63
3, 289920, Note_on_c, 2, 40, 63
3, 290400, Note_off_c, 2, 40, 63
3, 290400, Note_on_c, 2, 47, 63
3, 290880, Note_off_c, 2, 47, 63
3, 290880, Note_on_c, 2, 42, 63
3, 291360, Note_off_c, 2, 42, 63
3, 291360, Note_on_c, 2, 44, 63
3, 291840, Note_off_c, 2, 44, 63
3, 291840, Note_on_c, 2, 45, 63
3, 292320, Note_off_c, 2, 45, 63
3, 292320, Note_on_c, 2, 52, 63
3, 292800, Note_off_c, 2, 52, 63
3, 292800, Note_on_c, 2, 57, 63
3, 293280, Note_off_c, 2, 57, 63
3, 293280, Note_on_c, 2, 52, 63
3, 293760, Note_off_c, 2, 52, 63
3, 293760, Note_on_c, 2, 44, 63
3, 294240, Note_off_c, 2, 44, 63
3, 294240, Note_on_c, 2, 47, 63
3, 294720, Note_off_c, 2, 47, 63
3, 294720, Note_on_c, 2, 52, 63
3, 295200, Note_off_c, 2, 52, 63
3, 295200, Note_on_c, 2, 44, 63
3, 295680, Note_off_c, 2, 44, 63
3, 295680, Note_on_c, 2, 42, 63
3, 296160, Note_off_c, 2, 42, 63
3, 296160, Note_on_c, 2, 49, 63
3, 296640, Note_off_c, 2, 49, 63
3, 296640, Note_on_c, 2, 52, 63
3, 297120, Note_off_c, 2, 52, 63
3, 297120, Note_on_c, 2, 42, 63
3, 297600, Note_off_c, 2, 42, 63
3, 297600, Note_on_c, 2, 47, 63
3, 298080, Note_off_c, 2, 47, 63
3, 298080, Note_on_c, 2, 54, 63
3, 298560, Note_off_c, 2, 54, 63
3, 298560, Note_on_c, 2, 59, 63
3, 299040, Note_off_c, 2, 59, 63
3, 299040, Note_on_c, 2, 54, 63
3, 299520, Note_off_c, 2, 54, 63
3, 299520, Note_on_c, 2, 45, 63
3, 300000, Note_off_c, 2, 45, 63
3, 300000, Note_on_c, 2, 52, 63
3, 300480, Note_off_c, 2, 52, 63
3, 300480, Note_on_c, 2, 57, 63
3, 300960, Note_off_c, 2, 57, 63
3, 300960, Note_on_c, 2, 52, 63
3, 301440, Note_off_c, 2, 52, 63
3, 301440, Note_on_c, 2, 44, 63
3, 301920, Note_off_c, 2, 44, 63
3, 301920, Note_on_c, 2, 47, 63
3, 302400, Note_off_c, 2, 47, 63
3, 302400, Note_on_c, 2, 52, 63
3, 302880, Note_off_c, 2, 52, 63
3, 302880, Note_on_c, 2, 44, 63
3, 303360, Note_off_c, 2, 44, 63
3, 303360, Note_on_c, 2, 42, 63
3, 303840, Note_off_c, 2, 42, 63
3, 303840, Note_on_c, 2, 49, 63
3, 304320, Note_off_c, 2, 49, 63
3, 304320, Note_on_c, 2, 52, 63
3, 304800, Note_off_c, 2, 52, 63
3, 304800, Note_on_c, 2, 42, 63
3, 305280, Note_off_c, 2, 42, 63
3, 305280, Note_on_c, 2, 40, 63
3, 305760, Note_off_c, 2, 40, 63
3, 305760, Note_on_c, 2, 47, 63
3, 306240, Note_off_c, 2, 47, 63
3, 306240, Note_on_c, 2, 42, 63
3, 306720, Note_off_c, 2, 42, 63
3, 306720, Note_on_c, 2, 44, 63
3, 307200, Note_off_c, 2, 44, 63
3, 307200, Note_on_c, 2, 45, 63
3, 307680, Note_off_c, 2, 45, 63
3, 307680, Note_on_c, 2, 52, 63
3, 308160, Note_off_c, 2, 52, 63
3, 308160, Note_on_c, 2, 57, 63
3, 308640, Note_off_c, 2, 57, 63
3, 308640, Note_on_c, 2, 52, 63
3, 309120, Note_off_c, 2, 52, 63
3, 309120, Note_on_c, 2, 44, 63
3, 309600, Note_off_c, 2, 44, 63
3, 309600, Note_on_c, 2, 47, 63
3, 310080, Note_off_c, 2, 47, 63
3, 310080, Note_on_c, 2, 52, 63
3, 310560, Note_off_c, 2, 52, 63
3, 310560, Note_on_c, 2, 44, 63
3, 311040, Note_off_c, 2, 44, 63
3, 311040, Note_on_c, 2, 42, 63
3, 311520, Note_off_c, 2, 42, 63
3, 311520, Note_on_c, 2, 49, 63
3, 312000, Note_off_c, 2, 49, 63
3, 312000, Note_on_c, 2, 52, 63
3, 312480, Note_off_c, 2, 52, 63
3, 312480, Note_on_c, 2, 42, 63
3, 312960, Note_off_c, 2, 42, 63
3, 312960, Note_on_c, 2, 47, 63
3, 313440, Note_off_c, 2, 47, 63
3, 313440, Note_on_c, 2, 54, 63
3, 313920, Note_off_c, 2, 54, 63
3, 313920, Note_on_c, 2, 59, 63
3, 314400, Note_off_c, 2, 59, 63
3, 314400, Note_on_c, 2, 54, 63
3, 314880, Note_off_c, 2, 54, 63
3, 314880, Note_on_c, 2, 45, 63
3, 315360, Note_off_c, 2, 45, 63
3, 315360, Note_on_c, 2, 52, 63
3, 315840, Note_off_c, 2, 52, 63
3, 315840, Note_on_c, 2, 57, 63
3, 316320, Note_off_c, 2, 57, 63
3, 316320, Note_on_c, 2, 52, 63
3, 316800, Note_off_c, 2, 52, 63
3, 316800, Note_on_c, 2, 44, 63
3, 317280, Note_off_c, 2, 44, 63
3, 317280, Note_on_c, 2, 47, 63
3, 317760, Note_off_c, 2, 47, 63
3, 317760, Note_on_c, 2, 52, 63
3, 318240, Note_off_c, 2, 52, 63
3, 318240, Note_on_c, 2, 44, 63
3, 318720, Note_off_c, 2, 44, 63
3, 318720, Note_on_c, 2, 42, 63
3, 319200, Note_off_c, 2, 42, 63
3, 319200, Note_on_c, 2, 49, 63
3, 319680, Note_off_c, 2, 49, 63
3, 319680, Note_on_c, 2, 52, 63
3, 320160, Note_off_c, 2, 52, 63
3, 320160, Note_on_c, 2, 42, 63
3, 320640, Note_off_c, 2, 42, 63
3, 320640, Note_on_c, 2, 40, 63
3, 321120, Note_off_c, 2, 40, 63
3, 321120, Note_on_c, 2, 47, 63
3, 321600, Note_off_c, 2, 47, 63
3, 321600, Note_on_c, 2, 42, 63
3, 322080, Note_off_c, 2, 42, 63
3, 322080, Note_on_c, 2, 44, 63
3, 322560, Note_off_c, 2, 44, 63
3, 322560, Note_on_c, 2, 45, 47
3, 323040, Note_off_c, 2, 45, 47
3, 323040, Note_on_c, 2, 52, 47
3, 323520, Note_off_c, 2, 52, 47
3, 323520, Note_on_c, 2, 57, 47
3, 324000, Note_off_c, 2, 57, 47
3, 324000, Note_on_c, 2, 52, 47
3, 324480, Note_off_c, 2, 52, 47
3, 324480, Note_on_c, 2, 44, 47
3, 324960, Note_off_c, 2, 44, 47
3, 324960, Note_on_c, 2, 47, 47
3, 325440, Note_off_c, 2, 47, 47
3, 325440, Note_on_c, 2, 52, 47
3, 325920, Note_off_c, 2, 52, 47
3, 325920, Note_on_c, 2, 44, 47
3, 326400, Note_off_c, 2, 44, 47
3, 326400, Note_on_c, 2, 42, 31
3, 326880, Note_off_c, 2, 42, 31
3, 326880, Note_on_c, 2, 49, 31
3, 327360, Note_off_c, 2, 49, 31
3, 327360, Note_on_c, 2, 52, 31
3, 327840, Note_off_c, 2, 52, 31
3, 327840, Note_on_c, 2, 42, 31
3, 328320, Note_off_c, 2, 42, 31
3, 328320, Note_on_c, 2, 47, 31
3, 328800, Note_off_c, 2, 47, 31
3, 328800, Note_on_c, 2, 54, 31
3, 329280, Note_off_c, 2, 54, 31
3, 329280, Note_on_c, 2, 59, 31
3, 329760, Note_off_c, 2, 59, 31
3, 329760, Note_on_c, 2, 54, 31
3, 330240, Note_off_c, 2, 54, 31
3, 330240, Note_on_c, 2, 45, 15
3, 330720, Note_off_c, 2, 45, 15
3, 330720, Note_on_c, 2, 52, 15
3, 331200, Note_off_c, 2, 52, 15
3, 331200, Note_on_c, 2, 57, 15
3, 331680, Note_off_c, 2, 57, 15
3, 331680, Note_on_c, 2, 52, 15
3, 332160, Note_off_c, 2, 52, 15
3, 332160, Note_on_c, 2, 44, 15
3, 332640, Note_off_c, 2, 44, 15
3, 332640, Note_on_c, 2, 47, 15
3, 333120, Note_off_c, 2, 47, 15
3, 333120, Note_on_c, 2, 52, 15
3, 333600, Note_off_c, 2, 52, 15
3, 333600, Note_on_c, 2, 44, 15
3, 334080, Note_off_c, 2, 44, 15
3, 334080, End_track
4, 0, Start_track
4, 0, Pitch_bend_c, 8, 8192
4, 0, Control_c, 8, 7, 87
4, 0, Control_c, 8, 10, 39
4, 0, Control_c, 8, 93, 0
4, 0, Control_c, 8, 91, 0
4, 0, Control_c, 8, 95, 0
4, 0, Control_c, 8, 92, 0
4, 0, Control_c, 8, 11, 127
4, 0, Program_c, 8, 24
4, 0, Control_c, 10, 7, 87
4, 0, Control_c, 10, 10, 39
4, 0, Control_c, 10, 93, 0
4, 0, Control_c, 10, 91, 0
4, 0, Control_c, 10, 95, 0
4, 0, Control_c, 10, 92, 0
4, 0, Control_c, 10, 11, 127
4, 0, Program_c, 10, 24
4, 0, Note_on_c, 8, 45, 63
4, 480, Note_off_c, 8, 45, 63
4, 480, Note_on_c, 8, 52, 63
4, 960, Note_off_c, 8, 52, 63
4, 960, Note_on_c, 8, 57, 63
4, 1440, Note_off_c, 8, 57, 63
4, 1440, Note_on_c, 8, 52, 63
4, 1920, Note_off_c, 8, 52, 63
4, 1920, Note_on_c, 8, 44, 63
4, 2400, Note_off_c, 8, 44, 63
4, 2400, Note_on_c, 8, 47, 63
4, 2880, Note_off_c, 8, 47, 63
4, 2880, Note_on_c, 8, 52, 63
4, 3360, Note_off_c, 8, 52, 63
4, 3360, Note_on_c, 8, 44, 63
4, 3840, Note_off_c, 8, 44, 63
4, 3840, Note_on_c, 8, 42, 63
4, 4320, Note_off_c, 8, 42, 63
4, 4320, Note_on_c, 8, 49, 63
4, 4800, Note_off_c, 8, 49, 63
4, 4800, Note_on_c, 8, 52, 63
4, 5280, Note_off_c, 8, 52, 63
4, 5280, Note_on_c, 8, 42, 63
4, 5760, Note_off_c, 8, 42, 63
4, 5760, Note_on_c, 8, 47, 63
4, 6240, Note_off_c, 8, 47, 63
4, 6240, Note_on_c, 8, 54, 63
4, 6720, Note_off_c, 8, 54, 63
4, 6720, Note_on_c, 8, 59, 63
4, 7200, Note_off_c, 8, 59, 63
4, 7200, Note_on_c, 8, 54, 63
4, 7680, Note_off_c, 8, 54, 63
4, 7680, Note_on_c, 8, 45, 63
4, 8160, Note_off_c, 8, 45, 63
4, 8160, Note_on_c, 8, 52, 63
4, 8640, Note_off_c, 8, 52, 63
4, 8640, Note_on_c, 8, 57, 63
4, 9120, Note_off_c, 8, 57, 63
4, 9120, Note_on_c, 8, 52, 63
4, 9600, Note_off_c, 8, 52, 63
4, 9600, Note_on_c, 8, 44, 63
4, 10080, Note_off_c, 8, 44, 63
4, 10080, Note_on_c, 8, 47, 63
4, 10560, Note_off_c, 8, 47, 63
4, 10560, Note_on_c, 8, 52, 63
4, 11040, Note_off_c, 8, 52, 63
4, 11040, Note_on_c, 8, 44, 63
4, 11520, Note_off_c, 8, 44, 63
4, 11520, Note_on_c, 8, 42, 63
4, 12000, Note_off_c, 8, 42, 63
4, 12000, Note_on_c, 8, 49, 63
4, 12480, Note_off_c, 8, 49, 63
4, 12480, Note_on_c, 8, 52, 63
4, 12960, Note_off_c, 8, 52, 63
4, 12960, Note_on_c, 8, 42, 63
4, 13440, Note_off_c, 8, 42, 63
4, 13440, Note_on_c, 8, 40, 63
4, 13920, Note_off_c, 8, 40, 63
4, 13920, Note_on_c, 8, 47, 63
4, 14400, Note_off_c, 8, 47, 63
4, 14400, Note_on_c, 8, 42, 63
4, 14880, Note_off_c, 8, 42, 63
4, 14880, Note_on_c, 8, 44, 63
4, 15360, Note_off_c, 8, 44, 63
4, 15360, Note_on_c, 8, 45, 63
4, 15840, Note_off_c, 8, 45, 63
4, 15840, Note_on_c, 8, 52, 63
4, 16320, Note_off_c, 8, 52, 63
4, 16320, Note_on_c, 8, 57, 63
4, 16800, Note_off_c, 8, 57, 63
4, 16800, Note_on_c, 8, 52, 63
4, 17280, Note_off_c, 8, 52, 63
4, 17280, Note_on_c, 8, 44, 63
4, 17760, Note_off_c, 8, 44, 63
4, 17760, Note_on_c, 8, 47, 63
4, 18240, Note_off_c, 8, 47, 63
4, 18240, Note_on_c, 8, 52, 63
4, 18720, Note_off_c, 8, 52, 63
4, 18720, Note_on_c, 8, 44, 63
4, 19200, Note_off_c, 8, 44, 63
4, 19200, Note_on_c, 8, 42, 63
4, 19680, Note_off_c, 8, 42, 63
4, 19680, Note_on_c, 8, 49, 63
4, 20160, Note_off_c, 8, 49, 63
4, 20160, Note_on_c, 8, 52, 63
4, 20640, Note_off_c, 8, 52, 63
4, 20640, Note_on_c, 8, 42, 63
4, 21120, Note_off_c, 8, 42, 63
4, 21120, Note_on_c, 8, 47, 63
4, 21600, Note_off_c, 8, 47, 63
4, 21600, Note_on_c, 8, 54, 63
4, 22080, Note_off_c, 8, 54, 63
4, 22080, Note_on_c, 8, 59, 63
4, 22560, Note_off_c, 8, 59, 63
4, 22560, Note_on_c, 8, 54, 63
4, 23040, Note_off_c, 8, 54, 63
4, 23040, Note_on_c, 8, 45, 63
4, 23520, Note_off_c, 8, 45, 63
4, 23520, Note_on_c, 8, 52, 63
4, 24000, Note_off_c, 8, 52, 63
4, 24000, Note_on_c, 8, 57, 63
4, 24480, Note_off_c, 8, 57, 63
4, 24480, Note_on_c, 8, 52, 63
4, 24960, Note_off_c, 8, 52, 63
4, 24960, Note_on_c, 8, 44, 63
4, 25440, Note_off_c, 8, 44, 63
4, 25440, Note_on_c, 8, 47, 63
4, 25920, Note_off_c, 8, 47, 63
4, 25920, Note_on_c, 8, 52, 63
4, 26400, Note_off_c, 8, 52, 63
4, 26400, Note_on_c, 8, 44, 63
4, 26880, Note_off_c, 8, 44, 63
4, 26880, Note_on_c, 8, 42, 63
4, 27360, Note_off_c, 8, 42, 63
4, 27360, Note_on_c, 8, 49, 63
4, 27840, Note_off_c, 8, 49, 63
4, 27840, Note_on_c, 8, 52, 63
4, 28320, Note_off_c, 8, 52, 63
4, 28320, Note_on_c, 8, 42, 63
4, 28800, Note_off_c, 8, 42, 63
4, 28800, Note_on_c, 8, 40, 63
4, 29280, Note_off_c, 8, 40, 63
4, 29280, Note_on_c, 8, 47, 63
4, 29760, Note_off_c, 8, 47, 63
4, 29760, Note_on_c, 8, 52, 63
4, 30240, Note_off_c, 8, 52, 63
4, 30240, Note_on_c, 8, 47, 63
4, 30720, Note_off_c, 8, 47, 63
4, 30720, Note_on_c, 8, 45, 63
4, 31200, Note_off_c, 8, 45, 63
4, 31200, Note_on_c, 8, 52, 63
4, 31680, Note_off_c, 8, 52, 63
4, 31680, Note_on_c, 8, 57, 63
4, 32160, Note_off_c, 8, 57, 63
4, 32160, Note_on_c, 8, 52, 63
4, 32640, Note_off_c, 8, 52, 63
4, 32640, Note_on_c, 8, 44, 63
4, 33120, Note_off_c, 8, 44, 63
4, 33120, Note_on_c, 8, 47, 63
4, 33600, Note_off_c, 8, 47, 63
4, 33600, Note_on_c, 8, 52, 63
4, 34080, Note_off_c, 8, 52, 63
4, 34080, Note_on_c, 8, 44, 63
4, 34560, Note_off_c, 8, 44, 63
4, 34560, Note_on_c, 8, 42, 63
4, 35040, Note_off_c, 8, 42, 63
4, 35040, Note_on_c, 8, 49, 63
4, 35520, Note_off_c, 8, 49, 63
4, 35520, Note_on_c, 8, 52, 63
4, 36000, Note_off_c, 8, 52, 63
4, 36000, Note_on_c, 8, 42, 63
4, 36480, Note_off_c, 8, 42, 63
4, 36480, Note_on_c, 8, 40, 63
4, 36960, Note_off_c, 8, 40, 63
4, 36960, Note_on_c, 8, 47, 63
4, 37440, Note_off_c, 8, 47, 63
4, 37440, Note_on_c, 8, 52, 63
4, 37920, Note_off_c, 8, 52, 63
4, 37920, Note_on_c, 8, 40, 63
4, 38400, Note_off_c, 8, 40, 63
4, 38400, Note_on_c, 8, 45, 63
4, 38880, Note_off_c, 8, 45, 63
4, 38880, Note_on_c, 8, 52, 63
4, 39360, Note_off_c, 8, 52, 63
4, 39360, Note_on_c, 8, 57, 63
4, 39840, Note_off_c, 8, 57, 63
4, 39840, Note_on_c, 8, 52, 63
4, 40320, Note_off_c, 8, 52, 63
4, 40320, Note_on_c, 8, 44, 63
4, 40800, Note_off_c, 8, 44, 63
4, 40800, Note_on_c, 8, 47, 63
4, 41280, Note_off_c, 8, 47, 63
4, 41280, Note_on_c, 8, 52, 63
4, 41760, Note_off_c, 8, 52, 63
4, 41760, Note_on_c, 8, 44, 63
4, 42240, Note_off_c, 8, 44, 63
4, 42240, Note_on_c, 8, 42, 63
4, 42720, Note_off_c, 8, 42, 63
4, 42720, Note_on_c, 8, 49, 63
4, 43200, Note_off_c, 8, 49, 63
4, 43200, Note_on_c, 8, 52, 63
4, 43680, Note_off_c, 8, 52, 63
4, 43680, Note_on_c, 8, 49, 63
4, 44160, Note_off_c, 8, 49, 63
4, 44160, Note_on_c, 8, 47, 63
4, 44640, Note_off_c, 8, 47, 63
4, 44640, Note_on_c, 8, 54, 63
4, 45120, Note_off_c, 8, 54, 63
4, 45120, Note_on_c, 8, 59, 63
4, 45600, Note_off_c, 8, 59, 63
4, 45600, Note_on_c, 8, 54, 63
4, 46080, Note_off_c, 8, 54, 63
4, 46080, Note_on_c, 8, 45, 63
4, 46560, Note_off_c, 8, 45, 63
4, 46560, Note_on_c, 8, 52, 63
4, 47040, Note_off_c, 8, 52, 63
4, 47040, Note_on_c, 8, 57, 63
4, 47520, Note_off_c, 8, 57, 63
4, 47520, Note_on_c, 8, 52, 63
4, 48000, Note_off_c, 8, 52, 63
4, 48000, Note_on_c, 8, 47, 63
4, 48480, Note_off_c, 8, 47, 63
4, 48480, Note_on_c, 8, 54, 63
4, 48960, Note_off_c, 8, 54, 63
4, 48960, Note_on_c, 8, 59, 63
4, 49440, Note_off_c, 8, 59, 63
4, 49440, Note_on_c, 8, 54, 63
4, 49920, Note_off_c, 8, 54, 63
4, 49920, Note_on_c, 8, 40, 63
4, 50400, Note_off_c, 8, 40, 63
4, 50400, Note_on_c, 8, 47, 63
4, 50880, Note_off_c, 8, 47, 63
4, 50880, Note_on_c, 8, 56, 63
4, 51360, Note_off_c, 8, 56, 63
4, 51360, Note_on_c, 8, 52, 63
4, 51840, Note_off_c, 8, 52, 63
4, 51840, Note_on_c, 8, 45, 63
4, 52320, Note_off_c, 8, 45, 63
4, 52320, Note_on_c, 8, 52, 63
4, 52800, Note_off_c, 8, 52, 63
4, 52800, Note_on_c, 8, 57, 63
4, 53280, Note_off_c, 8, 57, 63
4, 53280, Note_on_c, 8, 52, 63
4, 53760, Note_off_c, 8, 52, 63
4, 53760, Note_on_c, 8, 45, 63
4, 54240, Note_off_c, 8, 45, 63
4, 54240, Note_on_c, 8, 52, 63
4, 54720, Note_off_c, 8, 52, 63
4, 54720, Note_on_c, 8, 57, 63
4, 55200, Note_off_c, 8, 57, 63
4, 55200, Note_on_c, 8, 52, 63
4, 55680, Note_off_c, 8, 52, 63
4, 55680, Note_on_c, 8, 47, 63
4, 56160, Note_off_c, 8, 47, 63
4, 56160, Note_on_c, 8, 54, 63
4, 56640, Note_off_c, 8, 54, 63
4, 56640, Note_on_c, 8, 59, 63
4, 57120, Note_off_c, 8, 59, 63
4, 57120, Note_on_c, 8, 54, 63
4, 57600, Note_off_c, 8, 54, 63
4, 57600, Note_on_c, 8, 40, 63
4, 58080, Note_off_c, 8, 40, 63
4, 58080, Note_on_c, 8, 47, 63
4, 58560, Note_off_c, 8, 47, 63
4, 58560, Note_on_c, 8, 52, 63
4, 59040, Note_off_c, 8, 52, 63
4, 59040, Note_on_c, 8, 47, 63
4, 59520, Note_off_c, 8, 47, 63
4, 59520, Note_on_c, 8, 40, 63
4, 60480, Note_off_c, 8, 40, 63
4, 60480, Note_on_c, 8, 42, 63
4, 60960, Note_off_c, 8, 42, 63
4, 60960, Note_on_c, 8, 44, 63
4, 61440, Note_off_c, 8, 44, 63
4, 61440, Note_on_c, 8, 45, 63
4, 61920, Note_off_c, 8, 45, 63
4, 61920, Note_on_c, 8, 52, 63
4, 62400, Note_off_c, 8, 52, 63
4, 62400, Note_on_c, 8, 57, 63
4, 62880, Note_off_c, 8, 57, 63
4, 62880, Note_on_c, 8, 52, 63
4, 63360, Note_off_c, 8, 52, 63
4, 63360, Note_on_c, 8, 44, 63
4, 63840, Note_off_c, 8, 44, 63
4, 63840, Note_on_c, 8, 47, 63
4, 64320, Note_off_c, 8, 47, 63
4, 64320, Note_on_c, 8, 52, 63
4, 64800, Note_off_c, 8, 52, 63
4, 64800, Note_on_c, 8, 44, 63
4, 65280, Note_off_c, 8, 44, 63
4, 65280, Note_on_c, 8, 42, 63
4, 65760, Note_off_c, 8, 42, 63
4, 65760, Note_on_c, 8, 49, 63
4, 66240, Note_off_c, 8, 49, 63
4, 66240, Note_on_c, 8, 52, 63
4, 66720, Note_off_c, 8, 52, 63
4, 66720, Note_on_c, 8, 42, 63
4, 67200, Note_off_c, 8, 42, 63
4, 67200, Note_on_c, 8, 40, 63
4, 67680, Note_off_c, 8, 40, 63
4, 67680, Note_on_c, 8, 47, 63
4, 68160, Note_off_c, 8, 47, 63
4, 68160, Note_on_c, 8, 52, 63
4, 68640, Note_off_c, 8, 52, 63
4, 68640, Note_on_c, 8, 40, 63
4, 69120, Note_off_c, 8, 40, 63
4, 69120, Note_on_c, 8, 45, 63
4, 69600, Note_off_c, 8, 45, 63
4, 69600, Note_on_c, 8, 52, 63
4, 70080, Note_off_c, 8, 52, 63
4, 70080, Note_on_c, 8, 57, 63
4, 70560, Note_off_c, 8, 57, 63
4, 70560, Note_on_c, 8, 52, 63
4, 71040, Note_off_c, 8, 52, 63
4, 71040, Note_on_c, 8, 44, 63
4, 71520, Note_off_c, 8, 44, 63
4, 71520, Note_on_c, 8, 47, 63
4, 72000, Note_off_c, 8, 47, 63
4, 72000, Note_on_c, 8, 52, 63
4, 72480, Note_off_c, 8, 52, 63
4, 72480, Note_on_c, 8, 44, 63
4, 72960, Note_off_c, 8, 44, 63
4, 72960, Note_on_c, 8, 42, 63
4, 73440, Note_off_c, 8, 42, 63
4, 73440, Note_on_c, 8, 49, 63
4, 73920, Note_off_c, 8, 49, 63
4, 73920, Note_on_c, 8, 52, 63
4, 74400, Note_off_c, 8, 52, 63
4, 74400, Note_on_c, 8, 49, 63
4, 74880, Note_off_c, 8, 49, 63
4, 74880, Note_on_c, 8, 47, 63
4, 75360, Note_off_c, 8, 47, 63
4, 75360, Note_on_c, 8, 54, 63
4, 75840, Note_off_c, 8, 54, 63
4, 75840, Note_on_c, 8, 59, 63
4, 76320, Note_off_c, 8, 59, 63
4, 76320, Note_on_c, 8, 54, 63
4, 76800, Note_off_c, 8, 54, 63
4, 76800, Note_on_c, 8, 45, 63
4, 77280, Note_off_c, 8, 45, 63
4, 77280, Note_on_c, 8, 52, 63
4, 77760, Note_off_c, 8, 52, 63
4, 77760, Note_on_c, 8, 57, 63
4, 78240, Note_off_c, 8, 57, 63
4, 78240, Note_on_c, 8, 52, 63
4, 78720, Note_off_c, 8, 52, 63
4, 78720, Note_on_c, 8, 47, 63
4, 79200, Note_off_c, 8, 47, 63
4, 79200, Note_on_c, 8, 54, 63
4, 79680, Note_off_c, 8, 54, 63
4, 79680, Note_on_c, 8, 59, 63
4, 80160, Note_off_c, 8, 59, 63
4, 80160, Note_on_c, 8, 54, 63
4, 80640, Note_off_c, 8, 54, 63
4, 80640, Note_on_c, 8, 40, 63
4, 81120, Note_off_c, 8, 40, 63
4, 81120, Note_on_c, 8, 47, 63
4, 81600, Note_off_c, 8, 47, 63
4, 81600, Note_on_c, 8, 56, 63
4, 82080, Note_off_c, 8, 56, 63
4, 82080, Note_on_c, 8, 52, 63
4, 82560, Note_off_c, 8, 52, 63
4, 82560, Note_on_c, 8, 45, 63
4, 83040, Note_off_c, 8, 45, 63
4, 83040, Note_on_c, 8, 52, 63
4, 83520, Note_off_c, 8, 52, 63
4, 83520, Note_on_c, 8, 57, 63
4, 84000, Note_off_c, 8, 57, 63
4, 84000, Note_on_c, 8, 52, 63
4, 84480, Note_off_c, 8, 52, 63
4, 84480, Note_on_c, 8, 45, 63
4, 84960, Note_off_c, 8, 45, 63
4, 84960, Note_on_c, 8, 52, 63
4, 85440, Note_off_c, 8, 52, 63
4, 85440, Note_on_c, 8, 57, 63
4, 85920, Note_off_c, 8, 57, 63
4, 85920, Note_on_c, 8, 52, 63
4, 86400, Note_off_c, 8, 52, 63
4, 86400, Note_on_c, 8, 47, 63
4, 86880, Note_off_c, 8, 47, 63
4, 86880, Note_on_c, 8, 54, 63
4, 87360, Note_off_c, 8, 54, 63
4, 87360, Note_on_c, 8, 59, 63
4, 87840, Note_off_c, 8, 59, 63
4, 87840, Note_on_c, 8, 54, 63
4, 88320, Note_off_c, 8, 54, 63
4, 88320, Note_on_c, 8, 40, 63
4, 88800, Note_off_c, 8, 40, 63
4, 88800, Note_on_c, 8, 47, 63
4, 89280, Note_off_c, 8, 47, 63
4, 89280, Note_on_c, 8, 52, 63
4, 89760, Note_off_c, 8, 52, 63
4, 89760, Note_on_c, 8, 47, 63
4, 90240, Note_off_c, 8, 47, 63
4, 90240, Note_on_c, 8, 40, 63
4, 91200, Note_off_c, 8, 40, 63
4, 91200, Note_on_c, 8, 42, 63
4, 91680, Note_off_c, 8, 42, 63
4, 91680, Note_on_c, 8, 44, 63
4, 92160, Note_off_c, 8, 44, 63
4, 92160, Note_on_c, 8, 45, 63
4, 92640, Note_off_c, 8, 45, 63
4, 92640, Note_on_c, 8, 52, 63
4, 93120, Note_off_c, 8, 52, 63
4, 93120, Note_on_c, 8, 57, 63
4, 93600, Note_off_c, 8, 57, 63
4, 93600, Note_on_c, 8, 52, 63
4, 94080, Note_off_c, 8, 52, 63
4, 94080, Note_on_c, 8, 44, 63
4, 94560, Note_off_c, 8, 44, 63
4, 94560, Note_on_c, 8, 47, 63
4, 95040, Note_off_c, 8, 47, 63
4, 95040, Note_on_c, 8, 52, 63
4, 95520, Note_off_c, 8, 52, 63
4, 95520, Note_on_c, 8, 44, 63
4, 96000, Note_off_c, 8, 44, 63
4, 96000, Note_on_c, 8, 42, 63
4, 96480, Note_off_c, 8, 42, 63
4, 96480, Note_on_c, 8, 49, 63
4, 96960, Note_off_c, 8, 49, 63
4, 96960, Note_on_c, 8, 52, 63
4, 97440, Note_off_c, 8, 52, 63
4, 97440, Note_on_c, 8, 42, 63
4, 97920, Note_off_c, 8, 42, 63
4, 97920, Note_on_c, 8, 47, 63
4, 98400, Note_off_c, 8, 47, 63
4, 98400, Note_on_c, 8, 54, 63
4, 98880, Note_off_c, 8, 54, 63
4, 98880, Note_on_c, 8, 59, 63
4, 99360, Note_off_c, 8, 59, 63
4, 99360, Note_on_c, 8, 54, 63
4, 99840, Note_off_c, 8, 54, 63
4, 99840, Note_on_c, 8, 45, 63
4, 100320, Note_off_c, 8, 45, 63
4, 100320, Note_on_c, 8, 52, 63
4, 100800, Note_off_c, 8, 52, 63
4, 100800, Note_on_c, 8, 57, 63
4, 101280, Note_off_c, 8, 57, 63
4, 101280, Note_on_c, 8, 52, 63
4, 101760, Note_off_c, 8, 52, 63
4, 101760, Note_on_c, 8, 44, 63
4, 102240, Note_off_c, 8, 44, 63
4, 102240, Note_on_c, 8, 47, 63
4, 102720, Note_off_c, 8, 47, 63
4, 102720, Note_on_c, 8, 52, 63
4, 103200, Note_off_c, 8, 52, 63
4, 103200, Note_on_c, 8, 44, 63
4, 103680, Note_off_c, 8, 44, 63
4, 103680, Note_on_c, 8, 42, 63
4, 104160, Note_off_c, 8, 42, 63
4, 104160, Note_on_c, 8, 49, 63
4, 104640, Note_off_c, 8, 49, 63
4, 104640, Note_on_c, 8, 52, 63
4, 105120, Note_off_c, 8, 52, 63
4, 105120, Note_on_c, 8, 42, 63
4, 105600, Note_off_c, 8, 42, 63
4, 105600, Note_on_c, 8, 40, 63
4, 106080, Note_off_c, 8, 40, 63
4, 106080, Note_on_c, 8, 47, 63
4, 106560, Note_off_c, 8, 47, 63
4, 106560, Note_on_c, 8, 42, 63
4, 107040, Note_off_c, 8, 42, 63
4, 107040, Note_on_c, 8, 44, 63
4, 107520, Note_off_c, 8, 44, 63
4, 107520, Note_on_c, 8, 45, 63
4, 108000, Note_off_c, 8, 45, 63
4, 108000, Note_on_c, 8, 52, 63
4, 108480, Note_off_c, 8, 52, 63
4, 108480, Note_on_c, 8, 57, 63
4, 108960, Note_off_c, 8, 57, 63
4, 108960, Note_on_c, 8, 52, 63
4, 109440, Note_off_c, 8, 52, 63
4, 109440, Note_on_c, 8, 44, 63
4, 109920, Note_off_c, 8, 44, 63
4, 109920, Note_on_c, 8, 47, 63
4, 110400, Note_off_c, 8, 47, 63
4, 110400, Note_on_c, 8, 52, 63
4, 110880, Note_off_c, 8, 52, 63
4, 110880, Note_on_c, 8, 44, 63
4, 111360, Note_off_c, 8, 44, 63
4, 111360, Note_on_c, 8, 42, 63
4, 111840, Note_off_c, 8, 42, 63
4, 111840, Note_on_c, 8, 49, 63
4, 112320, Note_off_c, 8, 49, 63
4, 112320, Note_on_c, 8, 52, 63
4, 112800, Note_off_c, 8, 52, 63
4, 112800, Note_on_c, 8, 42, 63
4, 113280, Note_off_c, 8, 42, 63
4, 113280, Note_on_c, 8, 47, 63
4, 113760, Note_off_c, 8, 47, 63
4, 113760, Note_on_c, 8, 54, 63
4, 114240, Note_off_c, 8, 54, 63
4, 114240, Note_on_c, 8, 59, 63
4, 114720, Note_off_c, 8, 59, 63
4, 114720, Note_on_c, 8, 54, 63
4, 115200, Note_off_c, 8, 54, 63
4, 115200, Note_on_c, 8, 45, 63
4, 115680, Note_off_c, 8, 45, 63
4, 115680, Note_on_c, 8, 52, 63
4, 116160, Note_off_c, 8, 52, 63
4, 116160, Note_on_c, 8, 57, 63
4, 116640, Note_off_c, 8, 57, 63
4, 116640, Note_on_c, 8, 52, 63
4, 117120, Note_off_c, 8, 52, 63
4, 117120, Note_on_c, 8, 44, 63
4, 117600, Note_off_c, 8, 44, 63
4, 117600, Note_on_c, 8, 47, 63
4, 118080, Note_off_c, 8, 47, 63
4, 118080, Note_on_c, 8, 52, 63
4, 118560, Note_off_c, 8, 52, 63
4, 118560, Note_on_c, 8, 44, 63
4, 119040, Note_off_c, 8, 44, 63
4, 119040, Note_on_c, 8, 42, 63
4, 119520, Note_off_c, 8, 42, 63
4, 119520, Note_on_c, 8, 49, 63
4, 120000, Note_off_c, 8, 49, 63
4, 120000, Note_on_c, 8, 52, 63
4, 120480, Note_off_c, 8, 52, 63
4, 120480, Note_on_c, 8, 42, 63
4, 120960, Note_off_c, 8, 42, 63
4, 120960, Note_on_c, 8, 40, 63
4, 121440, Note_off_c, 8, 40, 63
4, 121440, Note_on_c, 8, 47, 63
4, 121920, Note_off_c, 8, 47, 63
4, 121920, Note_on_c, 8, 42, 63
4, 122400, Note_off_c, 8, 42, 63
4, 122400, Note_on_c, 8, 44, 63
4, 122880, Note_off_c, 8, 44, 63
4, 122880, Note_on_c, 8, 45, 63
4, 123360, Note_off_c, 8, 45, 63
4, 123360, Note_on_c, 8, 52, 63
4, 123840, Note_off_c, 8, 52, 63
4, 123840, Note_on_c, 8, 57, 63
4, 124320, Note_off_c, 8, 57, 63
4, 124320, Note_on_c, 8, 52, 63
4, 124800, Note_off_c, 8, 52, 63
4, 124800, Note_on_c, 8, 44, 63
4, 125280, Note_off_c, 8, 44, 63
4, 125280, Note_on_c, 8, 47, 63
4, 125760, Note_off_c, 8, 47, 63
4, 125760, Note_on_c, 8, 52, 63
4, 126240, Note_off_c, 8, 52, 63
4, 126240, Note_on_c, 8, 44, 63
4, 126720, Note_off_c, 8, 44, 63
4, 126720, Note_on_c, 8, 42, 63
4, 127200, Note_off_c, 8, 42, 63
4, 127200, Note_on_c, 8, 49, 63
4, 127680, Note_off_c, 8, 49, 63
4, 127680, Note_on_c, 8, 52, 63
4, 128160, Note_off_c, 8, 52, 63
4, 128160, Note_on_c, 8, 42, 63
4, 128640, Note_off_c, 8, 42, 63
4, 128640, Note_on_c, 8, 40, 63
4, 129120, Note_off_c, 8, 40, 63
4, 129120, Note_on_c, 8, 47, 63
4, 129600, Note_off_c, 8, 47, 63
4, 129600, Note_on_c, 8, 52, 63
4, 130080, Note_off_c, 8, 52, 63
4, 130080, Note_on_c, 8, 40, 63
4, 130560, Note_off_c, 8, 40, 63
4, 130560, Note_on_c, 8, 45, 63
4, 131040, Note_off_c, 8, 45, 63
4, 131040, Note_on_c, 8, 52, 63
4, 131520, Note_off_c, 8, 52, 63
4, 131520, Note_on_c, 8, 57, 63
4, 132000, Note_off_c, 8, 57, 63
4, 132000, Note_on_c, 8, 52, 63
4, 132480, Note_off_c, 8, 52, 63
4, 132480, Note_on_c, 8, 44, 63
4, 132960, Note_off_c, 8, 44, 63
4, 132960, Note_on_c, 8, 47, 63
4, 133440, Note_off_c, 8, 47, 63
4, 133440, Note_on_c, 8, 52, 63
4, 133920, Note_off_c, 8, 52, 63
4, 133920, Note_on_c, 8, 44, 63
4, 134400, Note_off_c, 8, 44, 63
4, 134400, Note_on_c, 8, 42, 63
4, 134880, Note_off_c, 8, 42, 63
4, 134880, Note_on_c, 8, 49, 63
4, 135360, Note_off_c, 8, 49, 63
4, 135360, Note_on_c, 8, 52, 63
4, 135840, Note_off_c, 8, 52, 63
4, 135840, Note_on_c, 8, 49, 63
4, 136320, Note_off_c, 8, 49, 63
4, 136320, Note_on_c, 8, 47, 63
4, 136800, Note_off_c, 8, 47, 63
4, 136800, Note_on_c, 8, 54, 63
4, 137280, Note_off_c, 8, 54, 63
4, 137280, Note_on_c, 8, 59, 63
4, 137760, Note_off_c, 8, 59, 63
4, 137760, Note_on_c, 8, 54, 63
4, 138240, Note_off_c, 8, 54, 63
4, 138240, Note_on_c, 8, 45, 63
4, 138720, Note_off_c, 8, 45, 63
4, 138720, Note_on_c, 8, 52, 63
4, 139200, Note_off_c, 8, 52, 63
4, 139200, Note_on_c, 8, 57, 63
4, 139680, Note_off_c, 8, 57, 63
4, 139680, Note_on_c, 8, 52, 63
4, 140160, Note_off_c, 8, 52, 63
4, 140160, Note_on_c, 8, 47, 63
4, 140640, Note_off_c, 8, 47, 63
4, 140640, Note_on_c, 8, 54, 63
4, 141120, Note_off_c, 8, 54, 63
4, 141120, Note_on_c, 8, 59, 63
4, 141600, Note_off_c, 8, 59, 63
4, 141600, Note_on_c, 8, 54, 63
4, 142080, Note_off_c, 8, 54, 63
4, 142080, Note_on_c, 8, 40, 63
4, 142560, Note_off_c, 8, 40, 63
4, 142560, Note_on_c, 8, 47, 63
4, 143040, Note_off_c, 8, 47, 63
4, 143040, Note_on_c, 8, 56, 63
4, 143520, Note_off_c, 8, 56, 63
4, 143520, Note_on_c, 8, 52, 63
4, 144000, Note_off_c, 8, 52, 63
4, 144000, Note_on_c, 8, 45, 63
4, 144480, Note_off_c, 8, 45, 63
4, 144480, Note_on_c, 8, 52, 63
4, 144960, Note_off_c, 8, 52, 63
4, 144960, Note_on_c, 8, 57, 63
4, 145440, Note_off_c, 8, 57, 63
4, 145440, Note_on_c, 8, 52, 63
4, 145920, Note_off_c, 8, 52, 63
4, 145920, Note_on_c, 8, 45, 63
4, 146400, Note_off_c, 8, 45, 63
4, 146400, Note_on_c, 8, 52, 63
4, 146880, Note_off_c, 8, 52, 63
4, 146880, Note_on_c, 8, 57, 63
4, 147360, Note_off_c, 8, 57, 63
4, 147360, Note_on_c, 8, 52, 63
4, 147840, Note_off_c, 8, 52, 63
4, 147840, Note_on_c, 8, 47, 63
4, 148320, Note_off_c, 8, 47, 63
4, 148320, Note_on_c, 8, 54, 63
4, 148800, Note_off_c, 8, 54, 63
4, 148800, Note_on_c, 8, 59, 63
4, 149280, Note_off_c, 8, 59, 63
4, 149280, Note_on_c, 8, 54, 63
4, 149760, Note_off_c, 8, 54, 63
4, 149760, Note_on_c, 8, 40, 63
4, 150240, Note_off_c, 8, 40, 63
4, 150240, Note_on_c, 8, 47, 63
4, 150720, Note_off_c, 8, 47, 63
4, 150720, Note_on_c, 8, 52, 63
4, 151200, Note_off_c, 8, 52, 63
4, 151200, Note_on_c, 8, 47, 63
4, 151680, Note_off_c, 8, 47, 63
4, 151680, Note_on_c, 8, 40, 63
4, 152640, Note_off_c, 8, 40, 63
4, 152640, Note_on_c, 8, 42, 63
4, 153120, Note_off_c, 8, 42, 63
4, 153120, Note_on_c, 8, 44, 63
4, 153600, Note_off_c, 8, 44, 63
4, 153600, Note_on_c, 8, 45, 63
4, 154080, Note_off_c, 8, 45, 63
4, 154080, Note_on_c, 8, 52, 63
4, 154560, Note_off_c, 8, 52, 63
4, 154560, Note_on_c, 8, 57, 63
4, 155040, Note_off_c, 8, 57, 63
4, 155040, Note_on_c, 8, 52, 63
4, 155520, Note_off_c, 8, 52, 63
4, 155520, Note_on_c, 8, 44, 63
4, 156000, Note_off_c, 8, 44, 63
4, 156000, Note_on_c, 8, 47, 63
4, 156480, Note_off_c, 8, 47, 63
4, 156480, Note_on_c, 8, 52, 63
4, 156960, Note_off_c, 8, 52, 63
4, 156960, Note_on_c, 8, 44, 63
4, 157440, Note_off_c, 8, 44, 63
4, 157440, Note_on_c, 8, 42, 63
4, 157920, Note_off_c, 8, 42, 63
4, 157920, Note_on_c, 8, 49, 63
4, 158400, Note_off_c, 8, 49, 63
4, 158400, Note_on_c, 8, 52, 63
4, 158880, Note_off_c, 8, 52, 63
4, 158880, Note_on_c, 8, 42, 63
4, 159360, Note_off_c, 8, 42, 63
4, 159360, Note_on_c, 8, 40, 63
4, 159840, Note_off_c, 8, 40, 63
4, 159840, Note_on_c, 8, 47, 63
4, 160320, Note_off_c, 8, 47, 63
4, 160320, Note_on_c, 8, 52, 63
4, 160800, Note_off_c, 8, 52, 63
4, 160800, Note_on_c, 8, 40, 63
4, 161280, Note_off_c, 8, 40, 63
4, 161280, Note_on_c, 8, 45, 63
4, 161760, Note_off_c, 8, 45, 63
4, 161760, Note_on_c, 8, 52, 63
4, 162240, Note_off_c, 8, 52, 63
4, 162240, Note_on_c, 8, 57, 63
4, 162720, Note_off_c, 8, 57, 63
4, 162720, Note_on_c, 8, 52, 63
4, 163200, Note_off_c, 8, 52, 63
4, 163200, Note_on_c, 8, 44, 63
4, 163680, Note_off_c, 8, 44, 63
4, 163680, Note_on_c, 8, 47, 63
4, 164160, Note_off_c, 8, 47, 63
4, 164160, Note_on_c, 8, 52, 63
4, 164640, Note_off_c, 8, 52, 63
4, 164640, Note_on_c, 8, 44, 63
4, 165120, Note_off_c, 8, 44, 63
4, 165120, Note_on_c, 8, 42, 63
4, 165600, Note_off_c, 8, 42, 63
4, 165600, Note_on_c, 8, 49, 63
4, 166080, Note_off_c, 8, 49, 63
4, 166080, Note_on_c, 8, 52, 63
4, 166560, Note_off_c, 8, 52, 63
4, 166560, Note_on_c, 8, 49, 63
4, 167040, Note_off_c, 8, 49, 63
4, 167040, Note_on_c, 8, 47, 63
4, 167520, Note_off_c, 8, 47, 63
4, 167520, Note_on_c, 8, 54, 63
4, 168000, Note_off_c, 8, 54, 63
4, 168000, Note_on_c, 8, 59, 63
4, 168480, Note_off_c, 8, 59, 63
4, 168480, Note_on_c, 8, 54, 63
4, 168960, Note_off_c, 8, 54, 63
4, 168960, Note_on_c, 8, 45, 63
4, 169440, Note_off_c, 8, 45, 63
4, 169440, Note_on_c, 8, 52, 63
4, 169920, Note_off_c, 8, 52, 63
4, 169920, Note_on_c, 8, 57, 63
4, 170400, Note_off_c, 8, 57, 63
4, 170400, Note_on_c, 8, 52, 63
4, 170880, Note_off_c, 8, 52, 63
4, 170880, Note_on_c, 8, 47, 63
4, 171360, Note_off_c, 8, 47, 63
4, 171360, Note_on_c, 8, 54, 63
4, 171840, Note_off_c, 8, 54, 63
4, 171840, Note_on_c, 8, 59, 63
4, 172320, Note_off_c, 8, 59, 63
4, 172320, Note_on_c, 8, 54, 63
4, 172800, Note_off_c, 8, 54, 63
4, 172800, Note_on_c, 8, 40, 63
4, 173280, Note_off_c, 8, 40, 63
4, 173280, Note_on_c, 8, 47, 63
4, 173760, Note_off_c, 8, 47, 63
4, 173760, Note_on_c, 8, 56, 63
4, 174240, Note_off_c, 8, 56, 63
4, 174240, Note_on_c, 8, 52, 63
4, 174720, Note_off_c, 8, 52, 63
4, 174720, Note_on_c, 8, 45, 63
4, 175200, Note_off_c, 8, 45, 63
4, 175200, Note_on_c, 8, 52, 63
4, 175680, Note_off_c, 8, 52, 63
4, 175680, Note_on_c, 8, 57, 63
4, 176160, Note_off_c, 8, 57, 63
4, 176160, Note_on_c, 8, 52, 63
4, 176640, Note_off_c, 8, 52, 63
4, 176640, Note_on_c, 8, 45, 63
4, 177120, Note_off_c, 8, 45, 63
4, 177120, Note_on_c, 8, 52, 63
4, 177600, Note_off_c, 8, 52, 63
4, 177600, Note_on_c, 8, 57, 63
4, 178080, Note_off_c, 8, 57, 63
4, 178080, Note_on_c, 8, 52, 63
4, 178560, Note_off_c, 8, 52, 63
4, 178560, Note_on_c, 8, 47, 63
4, 179040, Note_off_c, 8, 47, 63
4, 179040, Note_on_c, 8, 54, 63
4, 179520, Note_off_c, 8, 54, 63
4, 179520, Note_on_c, 8, 59, 63
4, 180000, Note_off_c, 8, 59, 63
4, 180000, Note_on_c, 8, 54, 63
4, 180480, Note_off_c, 8, 54, 63
4, 180480, Note_on_c, 8, 40, 63
4, 180960, Note_off_c, 8, 40, 63
4, 180960, Note_on_c, 8, 47, 63
4, 181440, Note_off_c, 8, 47, 63
4, 181440, Note_on_c, 8, 52, 63
4, 181920, Note_off_c, 8, 52, 63
4, 181920, Note_on_c, 8, 47, 63
4, 182400, Note_off_c, 8, 47, 63
4, 182400, Note_on_c, 8, 40, 63
4, 183360, Note_off_c, 8, 40, 63
4, 183360, Note_on_c, 8, 42, 63
4, 183840, Note_off_c, 8, 42, 63
4, 183840, Note_on_c, 8, 44, 63
4, 184320, Note_off_c, 8, 44, 63
4, 184320, Note_on_c, 8, 45, 63
4, 184800, Note_off_c, 8, 45, 63
4, 184800, Note_on_c, 8, 52, 63
4, 185280, Note_off_c, 8, 52, 63
4, 185280, Note_on_c, 8, 57, 63
4, 185760, Note_off_c, 8, 57, 63
4, 185760, Note_on_c, 8, 52, 63
4, 186240, Note_off_c, 8, 52, 63
4, 186240, Note_on_c, 8, 44, 63
4, 186720, Note_off_c, 8, 44, 63
4, 186720, Note_on_c, 8, 47, 63
4, 187200, Note_off_c, 8, 47, 63
4, 187200, Note_on_c, 8, 52, 63
4, 187680, Note_off_c, 8, 52, 63
4, 187680, Note_on_c, 8, 44, 63
4, 188160, Note_off_c, 8, 44, 63
4, 188160, Note_on_c, 8, 42, 63
4, 188640, Note_off_c, 8, 42, 63
4, 188640, Note_on_c, 8, 49, 63
4, 189120, Note_off_c, 8, 49, 63
4, 189120, Note_on_c, 8, 52, 63
4, 189600, Note_off_c, 8, 52, 63
4, 189600, Note_on_c, 8, 42, 63
4, 190080, Note_off_c, 8, 42, 63
4, 190080, Note_on_c, 8, 47, 63
4, 190560, Note_off_c, 8, 47, 63
4, 190560, Note_on_c, 8, 54, 63
4, 191040, Note_off_c, 8, 54, 63
4, 191040, Note_on_c, 8, 59, 63
4, 191520, Note_off_c, 8, 59, 63
4, 191520, Note_on_c, 8, 54, 63
4, 192000, Note_off_c, 8, 54, 63
4, 192000, Note_on_c, 8, 45, 63
4, 192480, Note_off_c, 8, 45, 63
4, 192480, Note_on_c, 8, 52, 63
4, 192960, Note_off_c, 8, 52, 63
4, 192960, Note_on_c, 8, 57, 63
4, 193440, Note_off_c, 8, 57, 63
4, 193440, Note_on_c, 8, 52, 63
4, 193920, Note_off_c, 8, 52, 63
4, 193920, Note_on_c, 8, 44, 63
4, 194400, Note_off_c, 8, 44, 63
4, 194400, Note_on_c, 8, 47, 63
4, 194880, Note_off_c, 8, 47, 63
4, 194880, Note_on_c, 8, 52, 63
4, 195360, Note_off_c, 8, 52, 63
4, 195360, Note_on_c, 8, 44, 63
4, 195840, Note_off_c, 8, 44, 63
4, 195840, Note_on_c, 8, 42, 63
4, 196320, Note_off_c, 8, 42, 63
4, 196320, Note_on_c, 8, 49, 63
4, 196800, Note_off_c, 8, 49, 63
4, 196800, Note_on_c, 8, 52, 63
4, 197280, Note_off_c, 8, 52, 63
4, 197280, Note_on_c, 8, 42, 63
4, 197760, Note_off_c, 8, 42, 63
4, 197760, Note_on_c, 8, 40, 63
4, 198240, Note_off_c, 8, 40, 63
4, 198240, Note_on_c, 8, 47, 63
4, 198720, Note_off_c, 8, 47, 63
4, 198720, Note_on_c, 8, 42, 63
4, 199200, Note_off_c, 8, 42, 63
4, 199200, Note_on_c, 8, 44, 63
4, 199680, Note_off_c, 8, 44, 63
4, 199680, Note_on_c, 8, 45, 63
4, 200160, Note_off_c, 8, 45, 63
4, 200160, Note_on_c, 8, 52, 63
4, 200640, Note_off_c, 8, 52, 63
4, 200640, Note_on_c, 8, 57, 63
4, 201120, Note_off_c, 8, 57, 63
4, 201120, Note_on_c, 8, 52, 63
4, 201600, Note_off_c, 8, 52, 63
4, 201600, Note_on_c, 8, 44, 63
4, 202080, Note_off_c, 8, 44, 63
4, 202080, Note_on_c, 8, 47, 63
4, 202560, Note_off_c, 8, 47, 63
4, 202560, Note_on_c, 8, 52, 63
4, 203040, Note_off_c, 8, 52, 63
4, 203040, Note_on_c, 8, 44, 63
4, 203520, Note_off_c, 8, 44, 63
4, 203520, Note_on_c, 8, 42, 63
4, 204000, Note_off_c, 8, 42, 63
4, 204000, Note_on_c, 8, 49, 63
4, 204480, Note_off_c, 8, 49, 63
4, 204480, Note_on_c, 8, 52, 63
4, 204960, Note_off_c, 8, 52, 63
4, 204960, Note_on_c, 8, 42, 63
4, 205440, Note_off_c, 8, 42, 63
4, 205440, Note_on_c, 8, 47, 63
4, 205920, Note_off_c, 8, 47, 63
4, 205920, Note_on_c, 8, 54, 63
4, 206400, Note_off_c, 8, 54, 63
4, 206400, Note_on_c, 8, 59, 63
4, 206880, Note_off_c, 8, 59, 63
4, 206880, Note_on_c, 8, 54, 63
4, 207360, Note_off_c, 8, 54, 63
4, 207360, Note_on_c, 8, 45, 63
4, 207840, Note_off_c, 8, 45, 63
4, 207840, Note_on_c, 8, 52, 63
4, 208320, Note_off_c, 8, 52, 63
4, 208320, Note_on_c, 8, 57, 63
4, 208800, Note_off_c, 8, 57, 63
4, 208800, Note_on_c, 8, 52, 63
4, 209280, Note_off_c, 8, 52, 63
4, 209280, Note_on_c, 8, 44, 63
4, 209760, Note_off_c, 8, 44, 63
4, 209760, Note_on_c, 8, 47, 63
4, 210240, Note_off_c, 8, 47, 63
4, 210240, Note_on_c, 8, 52, 63
4, 210720, Note_off_c, 8, 52, 63
4, 210720, Note_on_c, 8, 44, 63
4, 211200, Note_off_c, 8, 44, 63
4, 211200, Note_on_c, 8, 42, 63
4, 211680, Note_off_c, 8, 42, 63
4, 211680, Note_on_c, 8, 49, 63
4, 212160, Note_off_c, 8, 49, 63
4, 212160, Note_on_c, 8, 52, 63
4, 212640, Note_off_c, 8, 52, 63
4, 212640, Note_on_c, 8, 42, 63
4, 213120, Note_off_c, 8, 42, 63
4, 213120, Note_on_c, 8, 40, 63
4, 213600, Note_off_c, 8, 40, 63
4, 213600, Note_on_c, 8, 47, 63
4, 214080, Note_off_c, 8, 47, 63
4, 214080, Note_on_c, 8, 42, 63
4, 214560, Note_off_c, 8, 42, 63
4, 214560, Note_on_c, 8, 44, 63
4, 215040, Note_off_c, 8, 44, 63
4, 215040, Note_on_c, 8, 45, 63
4, 215520, Note_off_c, 8, 45, 63
4, 215520, Note_on_c, 8, 52, 63
4, 216000, Note_off_c, 8, 52, 63
4, 216000, Note_on_c, 8, 57, 63
4, 216480, Note_off_c, 8, 57, 63
4, 216480, Note_on_c, 8, 52, 63
4, 216960, Note_off_c, 8, 52, 63
4, 216960, Note_on_c, 8, 44, 63
4, 217440, Note_off_c, 8, 44, 63
4, 217440, Note_on_c, 8, 47, 63
4, 217920, Note_off_c, 8, 47, 63
4, 217920, Note_on_c, 8, 52, 63
4, 218400, Note_off_c, 8, 52, 63
4, 218400, Note_on_c, 8, 44, 63
4, 218880, Note_off_c, 8, 44, 63
4, 218880, Note_on_c, 8, 42, 63
4, 219360, Note_off_c, 8, 42, 63
4, 219360, Note_on_c, 8, 49, 63
4, 219840, Note_off_c, 8, 49, 63
4, 219840, Note_on_c, 8, 52, 63
4, 220320, Note_off_c, 8, 52, 63
4, 220320, Note_on_c, 8, 42, 63
4, 220800, Note_off_c, 8, 42, 63
4, 220800, Note_on_c, 8, 47, 63
4, 221280, Note_off_c, 8, 47, 63
4, 221280, Note_on_c, 8, 54, 63
4, 221760, Note_off_c, 8, 54, 63
4, 221760, Note_on_c, 8, 59, 63
4, 222240, Note_off_c, 8, 59, 63
4, 222240, Note_on_c, 8, 54, 63
4, 222720, Note_off_c, 8, 54, 63
4, 222720, Note_on_c, 8, 45, 63
4, 223200, Note_off_c, 8, 45, 63
4, 223200, Note_on_c, 8, 52, 63
4, 223680, Note_off_c, 8, 52, 63
4, 223680, Note_on_c, 8, 57, 63
4, 224160, Note_off_c, 8, 57, 63
4, 224160, Note_on_c, 8, 52, 63
4, 224640, Note_off_c, 8, 52, 63
4, 224640, Note_on_c, 8, 44, 63
4, 225120, Note_off_c, 8, 44, 63
4, 225120, Note_on_c, 8, 47, 63
4, 225600, Note_off_c, 8, 47, 63
4, 225600, Note_on_c, 8, 52, 63
4, 226080, Note_off_c, 8, 52, 63
4, 226080, Note_on_c, 8, 44, 63
4, 226560, Note_off_c, 8, 44, 63
4, 226560, Note_on_c, 8, 42, 63
4, 227040, Note_off_c, 8, 42, 63
4, 227040, Note_on_c, 8, 49, 63
4, 227520, Note_off_c, 8, 49, 63
4, 227520, Note_on_c, 8, 52, 63
4, 228000, Note_off_c, 8, 52, 63
4, 228000, Note_on_c, 8, 42, 63
4, 228480, Note_off_c, 8, 42, 63
4, 228480, Note_on_c, 8, 40, 63
4, 228960, Note_off_c, 8, 40, 63
4, 228960, Note_on_c, 8, 47, 63
4, 229440, Note_off_c, 8, 47, 63
4, 229440, Note_on_c, 8, 52, 63
4, 229920, Note_off_c, 8, 52, 63
4, 229920, Note_on_c, 8, 47, 63
4, 230400, Note_off_c, 8, 47, 63
4, 230400, Note_on_c, 8, 45, 63
4, 230880, Note_off_c, 8, 45, 63
4, 230880, Note_on_c, 8, 52, 63
4, 231360, Note_off_c, 8, 52, 63
4, 231360, Note_on_c, 8, 57, 63
4, 231840, Note_off_c, 8, 57, 63
4, 231840, Note_on_c, 8, 52, 63
4, 232320, Note_off_c, 8, 52, 63
4, 232320, Note_on_c, 8, 44, 63
4, 232800, Note_off_c, 8, 44, 63
4, 232800, Note_on_c, 8, 47, 63
4, 233280, Note_off_c, 8, 47, 63
4, 233280, Note_on_c, 8, 52, 63
4, 233760, Note_off_c, 8, 52, 63
4, 233760, Note_on_c, 8, 44, 63
4, 234240, Note_off_c, 8, 44, 63
4, 234240, Note_on_c, 8, 42, 63
4, 234720, Note_off_c, 8, 42, 63
4, 234720, Note_on_c, 8, 49, 63
4, 235200, Note_off_c, 8, 49, 63
4, 235200, Note_on_c, 8, 52, 63
4, 235680, Note_off_c, 8, 52, 63
4, 235680, Note_on_c, 8, 42, 63
4, 236160, Note_off_c, 8, 42, 63
4, 236160, Note_on_c, 8, 47, 63
4, 236640, Note_off_c, 8, 47, 63
4, 236640, Note_on_c, 8, 54, 63
4, 237120, Note_off_c, 8, 54, 63
4, 237120, Note_on_c, 8, 59, 63
4, 237600, Note_off_c, 8, 59, 63
4, 237600, Note_on_c, 8, 54, 63
4, 238080, Note_off_c, 8, 54, 63
4, 238080, Note_on_c, 8, 45, 63
4, 238560, Note_off_c, 8, 45, 63
4, 238560, Note_on_c, 8, 52, 63
4, 239040, Note_off_c, 8, 52, 63
4, 239040, Note_on_c, 8, 57, 63
4, 239520, Note_off_c, 8, 57, 63
4, 239520, Note_on_c, 8, 52, 63
4, 240000, Note_off_c, 8, 52, 63
4, 240000, Note_on_c, 8, 44, 63
4, 240480, Note_off_c, 8, 44, 63
4, 240480, Note_on_c, 8, 47, 63
4, 240960, Note_off_c, 8, 47, 63
4, 240960, Note_on_c, 8, 52, 63
4, 241440, Note_off_c, 8, 52, 63
4, 241440, Note_on_c, 8, 44, 63
4, 241920, Note_off_c, 8, 44, 63
4, 241920, Note_on_c, 8, 42, 63
4, 242400, Note_off_c, 8, 42, 63
4, 242400, Note_on_c, 8, 49, 63
4, 242880, Note_off_c, 8, 49, 63
4, 242880, Note_on_c, 8, 52, 63
4, 243360, Note_off_c, 8, 52, 63
4, 243360, Note_on_c, 8, 42, 63
4, 243840, Note_off_c, 8, 42, 63
4, 243840, Note_on_c, 8, 40, 63
4, 244320, Note_off_c, 8, 40, 63
4, 244320, Note_on_c, 8, 47, 63
4, 244800, Note_off_c, 8, 47, 63
4, 244800, Note_on_c, 8, 42, 63
4, 245280, Note_off_c, 8, 42, 63
4, 245280, Note_on_c, 8, 44, 63
4, 245760, Note_off_c, 8, 44, 63
4, 245760, Note_on_c, 8, 45, 63
4, 246240, Note_off_c, 8, 45, 63
4, 246240, Note_on_c, 8, 52, 63
4, 246720, Note_off_c, 8, 52, 63
4, 246720, Note_on_c, 8, 57, 63
4, 247200, Note_off_c, 8, 57, 63
4, 247200, Note_on_c, 8, 52, 63
4, 247680, Note_off_c, 8, 52, 63
4, 247680, Note_on_c, 8, 44, 63
4, 248160, Note_off_c, 8, 44, 63
4, 248160, Note_on_c, 8, 47, 63
4, 248640, Note_off_c, 8, 47, 63
4, 248640, Note_on_c, 8, 52, 63
4, 249120, Note_off_c, 8, 52, 63
4, 249120, Note_on_c, 8, 44, 63
4, 249600, Note_off_c, 8, 44, 63
4, 249600, Note_on_c, 8, 42, 63
4, 250080, Note_off_c, 8, 42, 63
4, 250080, Note_on_c, 8, 49, 63
4, 250560, Note_off_c, 8, 49, 63
4, 250560, Note_on_c, 8, 52, 63
4, 251040, Note_off_c, 8, 52, 63
4, 251040, Note_on_c, 8, 42, 63
4, 251520, Note_off_c, 8, 42, 63
4, 251520, Note_on_c, 8, 47, 63
4, 252000, Note_off_c, 8, 47, 63
4, 252000, Note_on_c, 8, 54, 63
4, 252480, Note_off_c, 8, 54, 63
4, 252480, Note_on_c, 8, 59, 63
4, 252960, Note_off_c, 8, 59, 63
4, 252960, Note_on_c, 8, 54, 63
4, 253440, Note_off_c, 8, 54, 63
4, 253440, Note_on_c, 8, 45, 63
4, 253920, Note_off_c, 8, 45, 63
4, 253920, Note_on_c, 8, 52, 63
4, 254400, Note_off_c, 8, 52, 63
4, 254400, Note_on_c, 8, 57, 63
4, 254880, Note_off_c, 8, 57, 63
4, 254880, Note_on_c, 8, 52, 63
4, 255360, Note_off_c, 8, 52, 63
4, 255360, Note_on_c, 8, 44, 63
4, 255840, Note_off_c, 8, 44, 63
4, 255840, Note_on_c, 8, 47, 63
4, 256320, Note_off_c, 8, 47, 63
4, 256320, Note_on_c, 8, 52, 63
4, 256800, Note_off_c, 8, 52, 63
4, 256800, Note_on_c, 8, 44, 63
4, 257280, Note_off_c, 8, 44, 63
4, 257280, Note_on_c, 8, 42, 63
4, 257760, Note_off_c, 8, 42, 63
4, 257760, Note_on_c, 8, 49, 63
4, 258240, Note_off_c, 8, 49, 63
4, 258240, Note_on_c, 8, 52, 63
4, 258720, Note_off_c, 8, 52, 63
4, 258720, Note_on_c, 8, 42, 63
4, 259200, Note_off_c, 8, 42, 63
4, 259200, Note_on_c, 8, 40, 63
4, 259680, Note_off_c, 8, 40, 63
4, 259680, Note_on_c, 8, 47, 63
4, 260160, Note_off_c, 8, 47, 63
4, 260160, Note_on_c, 8, 42, 63
4, 260640, Note_off_c, 8, 42, 63
4, 260640, Note_on_c, 8, 44, 63
4, 261120, Note_off_c, 8, 44, 63
4, 261120, Note_on_c, 8, 45, 63
4, 261600, Note_off_c, 8, 45, 63
4, 261600, Note_on_c, 8, 52, 63
4, 262080, Note_off_c, 8, 52, 63
4, 262080, Note_on_c, 8, 57, 63
4, 262560, Note_off_c, 8, 57, 63
4, 262560, Note_on_c, 8, 52, 63
4, 263040, Note_off_c, 8, 52, 63
4, 263040, Note_on_c, 8, 44, 63
4, 263520, Note_off_c, 8, 44, 63
4, 263520, Note_on_c, 8, 47, 63
4, 264000, Note_off_c, 8, 47, 63
4, 264000, Note_on_c, 8, 52, 63
4, 264480, Note_off_c, 8, 52, 63
4, 264480, Note_on_c, 8, 44, 63
4, 264960, Note_off_c, 8, 44, 63
4, 264960, Note_on_c, 8, 42, 63
4, 265440, Note_off_c, 8, 42, 63
4, 265440, Note_on_c, 8, 49, 63
4, 265920, Note_off_c, 8, 49, 63
4, 265920, Note_on_c, 8, 52, 63
4, 266400, Note_off_c, 8, 52, 63
4, 266400, Note_on_c, 8, 42, 63
4, 266880, Note_off_c, 8, 42, 63
4, 266880, Note_on_c, 8, 47, 63
4, 267360, Note_off_c, 8, 47, 63
4, 267360, Note_on_c, 8, 54, 63
4, 267840, Note_off_c, 8, 54, 63
4, 267840, Note_on_c, 8, 59, 63
4, 268320, Note_off_c, 8, 59, 63
4, 268320, Note_on_c, 8, 54, 63
4, 268800, Note_off_c, 8, 54, 63
4, 268800, Note_on_c, 8, 45, 63
4, 269280, Note_off_c, 8, 45, 63
4, 269280, Note_on_c, 8, 52, 63
4, 269760, Note_off_c, 8, 52, 63
4, 269760, Note_on_c, 8, 57, 63
4, 270240, Note_off_c, 8, 57, 63
4, 270240, Note_on_c, 8, 52, 63
4, 270720, Note_off_c, 8, 52, 63
4, 270720, Note_on_c, 8, 44, 63
4, 271200, Note_off_c, 8, 44, 63
4, 271200, Note_on_c, 8, 47, 63
4, 271680, Note_off_c, 8, 47, 63
4, 271680, Note_on_c, 8, 52, 63
4, 272160, Note_off_c, 8, 52, 63
4, 272160, Note_on_c, 8, 44, 63
4, 272640, Note_off_c, 8, 44, 63
4, 272640, Note_on_c, 8, 42, 63
4, 273120, Note_off_c, 8, 42, 63
4, 273120, Note_on_c, 8, 49, 63
4, 273600, Note_off_c, 8, 49, 63
4, 273600, Note_on_c, 8, 52, 63
4, 274080, Note_off_c, 8, 52, 63
4, 274080, Note_on_c, 8, 42, 63
4, 274560, Note_off_c, 8, 42, 63
4, 274560, Note_on_c, 8, 40, 63
4, 275040, Note_off_c, 8, 40, 63
4, 275040, Note_on_c, 8, 47, 63
4, 275520, Note_off_c, 8, 47, 63
4, 275520, Note_on_c, 8, 42, 63
4, 276000, Note_off_c, 8, 42, 63
4, 276000, Note_on_c, 8, 44, 63
4, 276480, Note_off_c, 8, 44, 63
4, 276480, Note_on_c, 8, 45, 63
4, 276960, Note_off_c, 8, 45, 63
4, 276960, Note_on_c, 8, 52, 63
4, 277440, Note_off_c, 8, 52, 63
4, 277440, Note_on_c, 8, 57, 63
4, 277920, Note_off_c, 8, 57, 63
4, 277920, Note_on_c, 8, 52, 63
4, 278400, Note_off_c, 8, 52, 63
4, 278400, Note_on_c, 8, 44, 63
4, 278880, Note_off_c, 8, 44, 63
4, 278880, Note_on_c, 8, 47, 63
4, 279360, Note_off_c, 8, 47, 63
4, 279360, Note_on_c, 8, 52, 63
4, 279840, Note_off_c, 8, 52, 63
4, 279840, Note_on_c, 8, 44, 63
4, 280320, Note_off_c, 8, 44, 63
4, 280320, Note_on_c, 8, 42, 63
4, 280800, Note_off_c, 8, 42, 63
4, 280800, Note_on_c, 8, 49, 63
4, 281280, Note_off_c, 8, 49, 63
4, 281280, Note_on_c, 8, 52, 63
4, 281760, Note_off_c, 8, 52, 63
4, 281760, Note_on_c, 8, 42, 63
4, 282240, Note_off_c, 8, 42, 63
4, 282240, Note_on_c, 8, 47, 63
4, 282720, Note_off_c, 8, 47, 63
4, 282720, Note_on_c, 8, 54, 63
4, 283200, Note_off_c, 8, 54, 63
4, 283200, Note_on_c, 8, 59, 63
4, 283680, Note_off_c, 8, 59, 63
4, 283680, Note_on_c, 8, 54, 63
4, 284160, Note_off_c, 8, 54, 63
4, 284160, Note_on_c, 8, 45, 63
4, 284640, Note_off_c, 8, 45, 63
4, 284640, Note_on_c, 8, 52, 63
4, 285120, Note_off_c, 8, 52, 63
4, 285120, Note_on_c, 8, 57, 63
4, 285600, Note_off_c, 8, 57, 63
4, 285600, Note_on_c, 8, 52, 63
4, 286080, Note_off_c, 8, 52, 63
4, 286080, Note_on_c, 8, 44, 63
4, 286560, Note_off_c, 8, 44, 63
4, 286560, Note_on_c, 8, 47, 63
4, 287040, Note_off_c, 8, 47, 63
4, 287040, Note_on_c, 8, 52, 63
4, 287520, Note_off_c, 8, 52, 63
4, 287520, Note_on_c, 8, 44, 63
4, 288000, Note_off_c, 8, 44, 63
4, 288000, Note_on_c, 8, 42, 63
4, 288480, Note_off_c, 8, 42, 63
4, 288480, Note_on_c, 8, 49, 63
4, 288960, Note_off_c, 8, 49, 63
4, 288960, Note_on_c, 8, 52, 63
4, 289440, Note_off_c, 8, 52, 63
4, 289440, Note_on_c, 8, 42, 63
4, 289920, Note_off_c, 8, 42, 63
4, 289920, Note_on_c, 8, 40, 63
4, 290400, Note_off_c, 8, 40, 63
4, 290400, Note_on_c, 8, 47, 63
4, 290880, Note_off_c, 8, 47, 63
4, 290880, Note_on_c, 8, 42, 63
4, 291360, Note_off_c, 8, 42, 63
4, 291360, Note_on_c, 8, 44, 63
4, 291840, Note_off_c, 8, 44, 63
4, 291840, Note_on_c, 8, 45, 63
4, 292320, Note_off_c, 8, 45, 63
4, 292320, Note_on_c, 8, 52, 63
4, 292800, Note_off_c, 8, 52, 63
4, 292800, Note_on_c, 8, 57, 63
4, 293280, Note_off_c, 8, 57, 63
4, 293280, Note_on_c, 8, 52, 63
4, 293760, Note_off_c, 8, 52, 63
4, 293760, Note_on_c, 8, 44, 63
4, 294240, Note_off_c, 8, 44, 63
4, 294240, Note_on_c, 8, 47, 63
4, 294720, Note_off_c, 8, 47, 63
4, 294720, Note_on_c, 8, 52, 63
4, 295200, Note_off_c, 8, 52, 63
4, 295200, Note_on_c, 8, 44, 63
4, 295680, Note_off_c, 8, 44, 63
4, 295680, Note_on_c, 8, 42, 63
4, 296160, Note_off_c, 8, 42, 63
4, 296160, Note_on_c, 8, 49, 63
4, 296640, Note_off_c, 8, 49, 63
4, 296640, Note_on_c, 8, 52, 63
4, 297120, Note_off_c, 8, 52, 63
4, 297120, Note_on_c, 8, 42, 63
4, 297600, Note_off_c, 8, 42, 63
4, 297600, Note_on_c, 8, 47, 63
4, 298080, Note_off_c, 8, 47, 63
4, 298080, Note_on_c, 8, 54, 63
4, 298560, Note_off_c, 8, 54, 63
4, 298560, Note_on_c, 8, 59, 63
4, 299040, Note_off_c, 8, 59, 63
4, 299040, Note_on_c, 8, 54, 63
4, 299520, Note_off_c, 8, 54, 63
4, 299520, Note_on_c, 8, 45, 63
4, 300000, Note_off_c, 8, 45, 63
4, 300000, Note_on_c, 8, 52, 63
4, 300480, Note_off_c, 8, 52, 63
4, 300480, Note_on_c, 8, 57, 63
4, 300960, Note_off_c, 8, 57, 63
4, 300960, Note_on_c, 8, 52, 63
4, 301440, Note_off_c, 8, 52, 63
4, 301440, Note_on_c, 8, 44, 63
4, 301920, Note_off_c, 8, 44, 63
4, 301920, Note_on_c, 8, 47, 63
4, 302400, Note_off_c, 8, 47, 63
4, 302400, Note_on_c, 8, 52, 63
4, 302880, Note_off_c, 8, 52, 63
4, 302880, Note_on_c, 8, 44, 63
4, 303360, Note_off_c, 8, 44, 63
4, 303360, Note_on_c, 8, 42, 63
4, 303840, Note_off_c, 8, 42, 63
4, 303840, Note_on_c, 8, 49, 63
4, 304320, Note_off_c, 8, 49, 63
4, 304320, Note_on_c, 8, 52, 63
4, 304800, Note_off_c, 8, 52, 63
4, 304800, Note_on_c, 8, 42, 63
4, 305280, Note_off_c, 8, 42, 63
4, 305280, Note_on_c, 8, 40, 63
4, 305760, Note_off_c, 8, 40, 63
4, 305760, Note_on_c, 8, 47, 63
4, 306240, Note_off_c, 8, 47, 63
4, 306240, Note_on_c, 8, 42, 63
4, 306720, Note_off_c, 8, 42, 63
4, 306720, Note_on_c, 8, 44, 63
4, 307200, Note_off_c, 8, 44, 63
4, 307200, Note_on_c, 8, 45, 63
4, 307680, Note_off_c, 8, 45, 63
4, 307680, Note_on_c, 8, 52, 63
4, 308160, Note_off_c, 8, 52, 63
4, 308160, Note_on_c, 8, 57, 63
4, 308640, Note_off_c, 8, 57, 63
4, 308640, Note_on_c, 8, 52, 63
4, 309120, Note_off_c, 8, 52, 63
4, 309120, Note_on_c, 8, 44, 63
4, 309600, Note_off_c, 8, 44, 63
4, 309600, Note_on_c, 8, 47, 63
4, 310080, Note_off_c, 8, 47, 63
4, 310080, Note_on_c, 8, 52, 63
4, 310560, Note_off_c, 8, 52, 63
4, 310560, Note_on_c, 8, 44, 63
4, 311040, Note_off_c, 8, 44, 63
4, 311040, Note_on_c, 8, 42, 63
4, 311520, Note_off_c, 8, 42, 63
4, 311520, Note_on_c, 8, 49, 63
4, 312000, Note_off_c, 8, 49, 63
4, 312000, Note_on_c, 8, 52, 63
4, 312480, Note_off_c, 8, 52, 63
4, 312480, Note_on_c, 8, 42, 63
4, 312960, Note_off_c, 8, 42, 63
4, 312960, Note_on_c, 8, 47, 63
4, 313440, Note_off_c, 8, 47, 63
4, 313440, Note_on_c, 8, 54, 63
4, 313920, Note_off_c, 8, 54, 63
4, 313920, Note_on_c, 8, 59, 63
4, 314400, Note_off_c, 8, 59, 63
4, 314400, Note_on_c, 8, 54, 63
4, 314880, Note_off_c, 8, 54, 63
4, 314880, Note_on_c, 8, 45, 63
4, 315360, Note_off_c, 8, 45, 63
4, 315360, Note_on_c, 8, 52, 63
4, 315840, Note_off_c, 8, 52, 63
4, 315840, Note_on_c, 8, 57, 63
4, 316320, Note_off_c, 8, 57, 63
4, 316320, Note_on_c, 8, 52, 63
4, 316800, Note_off_c, 8, 52, 63
4, 316800, Note_on_c, 8, 44, 63
4, 317280, Note_off_c, 8, 44, 63
4, 317280, Note_on_c, 8, 47, 63
4, 317760, Note_off_c, 8, 47, 63
4, 317760, Note_on_c, 8, 52, 63
4, 318240, Note_off_c, 8, 52, 63
4, 318240, Note_on_c, 8, 44, 63
4, 318720, Note_off_c, 8, 44, 63
4, 318720, Note_on_c, 8, 42, 63
4, 319200, Note_off_c, 8, 42, 63
4, 319200, Note_on_c, 8, 49, 63
4, 319680, Note_off_c, 8, 49, 63
4, 319680, Note_on_c, 8, 52, 63
4, 320160, Note_off_c, 8, 52, 63
4, 320160, Note_on_c, 8, 42, 63
4, 320640, Note_off_c, 8, 42, 63
4, 320640, Note_on_c, 8, 40, 63
4, 321120, Note_off_c, 8, 40, 63
4, 321120, Note_on_c, 8, 47, 63
4, 321600, Note_off_c, 8, 47, 63
4, 321600, Note_on_c, 8, 42, 63
4, 322080, Note_off_c, 8, 42, 63
4, 322080, Note_on_c, 8, 44, 63
4, 322560, Note_off_c, 8, 44, 63
4, 322560, Note_on_c, 8, 45, 47
4, 323040, Note_off_c, 8, 45, 47
4, 323040, Note_on_c, 8, 52, 47
4, 323520, Note_off_c, 8, 52, 47
4, 323520, Note_on_c, 8, 57, 47
4, 324000, Note_off_c, 8, 57, 47
4, 324000, Note_on_c, 8, 52, 47
4, 324480, Note_off_c, 8, 52, 47
4, 324480, Note_on_c, 8, 44, 47
4, 324960, Note_off_c, 8, 44, 47
4, 324960, Note_on_c, 8, 47, 47
4, 325440, Note_off_c, 8, 47, 47
4, 325440, Note_on_c, 8, 52, 47
4, 325920, Note_off_c, 8, 52, 47
4, 325920, Note_on_c, 8, 44, 47
4, 326400, Note_off_c, 8, 44, 47
4, 326400, Note_on_c, 8, 42, 31
4, 326880, Note_off_c, 8, 42, 31
4, 326880, Note_on_c, 8, 49, 31
4, 327360, Note_off_c, 8, 49, 31
4, 327360, Note_on_c, 8, 52, 31
4, 327840, Note_off_c, 8, 52, 31
4, 327840, Note_on_c, 8, 42, 31
4, 328320, Note_off_c, 8, 42, 31
4, 328320, Note_on_c, 8, 47, 31
4, 328800, Note_off_c, 8, 47, 31
4, 328800, Note_on_c, 8, 54, 31
4, 329280, Note_off_c, 8, 54, 31
4, 329280, Note_on_c, 8, 59, 31
4, 329760, Note_off_c, 8, 59, 31
4, 329760, Note_on_c, 8, 54, 31
4, 330240, Note_off_c, 8, 54, 31
4, 330240, Note_on_c, 8, 45, 15
4, 330720, Note_off_c, 8, 45, 15
4, 330720, Note_on_c, 8, 52, 15
4, 331200, Note_off_c, 8, 52, 15
4, 331200, Note_on_c, 8, 57, 15
4, 331680, Note_off_c, 8, 57, 15
4, 331680, Note_on_c, 8, 52, 15
4, 332160, Note_off_c, 8, 52, 15
4, 332160, Note_on_c, 8, 44, 15
4, 332640, Note_off_c, 8, 44, 15
4, 332640, Note_on_c, 8, 47, 15
4, 333120, Note_off_c, 8, 47, 15
4, 333120, Note_on_c, 8, 52, 15
4, 333600, Note_off_c, 8, 52, 15
4, 333600, Note_on_c, 8, 44, 15
4, 334080, Note_off_c, 8, 44, 15
4, 334080, End_track
5, 0, Start_track
5, 0, Pitch_bend_c, 11, 8192
5, 0, Control_c, 11, 7, 87
5, 0, Control_c, 11, 10, 47
5, 0, Control_c, 11, 93, 0
5, 0, Control_c, 11, 91, 0
5, 0, Control_c, 11, 95, 0
5, 0, Control_c, 11, 92, 0
5, 0, Control_c, 11, 11, 127
5, 0, Program_c, 11, 27
5, 0, Control_c, 12, 7, 87
5, 0, Control_c, 12, 10, 47
5, 0, Control_c, 12, 93, 0
5, 0, Control_c, 12, 91, 0
5, 0, Control_c, 12, 95, 0
5, 0, Control_c, 12, 92, 0
5, 0, Control_c, 12, 11, 127
5, 0, Program_c, 12, 27
5, 241440, Note_on_c, 11, 52, 79
5, 241800, Note_on_c, 12, 54, 79
5, 241920, Note_off_c, 11, 52, 79
5, 241920, Note_off_c, 12, 54, 79
5, 241920, Note_on_c, 12, 56, 79
5, 242400, Note_off_c, 12, 56, 79
5, 242400, Note_on_c, 11, 59, 79
5, 242880, Note_off_c, 11, 59, 79
5, 242880, Note_on_c, 11, 59, 79
5, 243120, Note_off_c, 11, 59, 79
5, 243120, Note_on_c, 11, 61, 54
5, 243360, Note_off_c, 11, 61, 54
5, 243360, Note_on_c, 11, 64, 79
5, 243840, Note_off_c, 11, 64, 79
5, 243840, Pitch_bend_c, 12, 8192
5, 243840, Note_on_c, 12, 66, 79
5, 243861, Pitch_bend_c, 12, 8320
5, 243882, Pitch_bend_c, 12, 8448
5, 243903, Pitch_bend_c, 12, 8576
5, 243924, Pitch_bend_c, 12, 8704
5, 243945, Pitch_bend_c, 12, 8832
5, 243966, Pitch_bend_c, 12, 8960
5, 243987, Pitch_bend_c, 12, 9088
5, 244008, Pitch_bend_c, 12, 9216
5, 244029, Pitch_bend_c, 12, 9344
5, 244050, Pitch_bend_c, 12, 9472
5, 244071, Pitch_bend_c, 12, 9600
5, 244080, Pitch_bend_c, 12, 9600
5, 244320, Pitch_bend_c, 12, 9600
5, 244320, Pitch_bend_c, 12, 8192
5, 244320, Note_off_c, 12, 66, 79
5, 244320, Note_on_c, 11, 66, 79
5, 244800, Note_off_c, 11, 66, 79
5, 244800, Note_on_c, 12, 64, 79
5, 244960, Pitch_bend_c, 12, 8192
5, 245120, Pitch_bend_c, 12, 8320
5, 245280, Pitch_bend_c, 12, 8192
5, 245280, Pitch_bend_c, 12, 8320
5, 245280, Pitch_bend_c, 12, 8192
5, 245280, Note_off_c, 12, 64, 79
5, 245280, Note_on_c, 11, 61, 79
5, 245760, Note_off_c, 11, 61, 79
5, 246240, Pitch_bend_c, 12, 8192
5, 246240, Note_on_c, 12, 71, 79
5, 246261, Pitch_bend_c, 12, 8320
5, 246282, Pitch_bend_c, 12, 8448
5, 246303, Pitch_bend_c, 12, 8576
5, 246324, Pitch_bend_c, 12, 8704
5, 246345, Pitch_bend_c, 12, 8832
5, 246366, Pitch_bend_c, 12, 8960
5, 246387, Pitch_bend_c, 12, 9088
5, 246408, Pitch_bend_c, 12, 9216
5, 246429, Pitch_bend_c, 12, 9344
5, 246450, Pitch_bend_c, 12, 9472
5, 246471, Pitch_bend_c, 12, 9600
5, 246480, Pitch_bend_c, 12, 9600
5, 246720, Pitch_bend_c, 12, 9600
5, 246720, Pitch_bend_c, 12, 8192
5, 246720, Note_off_c, 12, 71, 79
5, 246720, Pitch_bend_c, 12, 8192
5, 246720, Note_on_c, 12, 71, 79
5, 246741, Pitch_bend_c, 12, 8320
5, 246762, Pitch_bend_c, 12, 8448
5, 246783, Pitch_bend_c, 12, 8576
5, 246804, Pitch_bend_c, 12, 8704
5, 246825, Pitch_bend_c, 12, 8832
5, 246846, Pitch_bend_c, 12, 8960
5, 246867, Pitch_bend_c, 12, 9088
5, 246888, Pitch_bend_c, 12, 9216
5, 246909, Pitch_bend_c, 12, 9344
5, 246930, Pitch_bend_c, 12, 9472
5, 246951, Pitch_bend_c, 12, 9600
5, 246960, Pitch_bend_c, 12, 9600
5, 247200, Pitch_bend_c, 12, 9600
5, 247200, Pitch_bend_c, 12, 8192
5, 247200, Note_off_c, 12, 71, 79
5, 247200, Pitch_bend_c, 12, 8192
5, 247200, Note_on_c, 12, 71, 79
5, 247221, Pitch_bend_c, 12, 8320
5, 247242, Pitch_bend_c, 12, 8448
5, 247263, Pitch_bend_c, 12, 8576
5, 247284, Pitch_bend_c, 12, 8704
5, 247305, Pitch_bend_c, 12, 8832
5, 247326, Pitch_bend_c, 12, 8960
5, 247347, Pitch_bend_c, 12, 9088
5, 247368, Pitch_bend_c, 12, 9216
5, 247389, Pitch_bend_c, 12, 9344
5, 247410, Pitch_bend_c, 12, 9472
5, 247431, Pitch_bend_c, 12, 9600
5, 247440, Pitch_bend_c, 12, 9600
5, 247680, Pitch_bend_c, 12, 9600
5, 247680, Pitch_bend_c, 12, 8192
5, 247680, Note_off_c, 12, 71, 79
5, 247680, Note_on_c, 12, 71, 79
5, 247840, Pitch_bend_c, 12, 8192
5, 248000, Pitch_bend_c, 12, 8320
5, 248160, Pitch_bend_c, 12, 8192
5, 248160, Pitch_bend_c, 12, 8320
5, 248160, Pitch_bend_c, 12, 8192
5, 248160, Note_off_c, 12, 71, 79
5, 248160, Note_on_c, 12, 71, 79
5, 248320, Pitch_bend_c, 12, 8192
5, 248480, Pitch_bend_c, 12, 8320
5, 248640, Pitch_bend_c, 12, 8192
5, 248640, Pitch_bend_c, 12, 8320
5, 248640, Pitch_bend_c, 12, 8192
5, 248640, Note_off_c, 12, 71, 79
5, 248640, Pitch_bend_c, 12, 8192
5, 248640, Note_on_c, 12, 66, 79
5, 248645, Pitch_bend_c, 12, 8320
5, 248650, Pitch_bend_c, 12, 8448
5, 248655, Pitch_bend_c, 12, 8576
5, 248660, Pitch_bend_c, 12, 8704
5, 248665, Pitch_bend_c, 12, 8832
5, 248670, Pitch_bend_c, 12, 8960
5, 248675, Pitch_bend_c, 12, 9088
5, 248680, Pitch_bend_c, 12, 9216
5, 248685, Pitch_bend_c, 12, 9344
5, 248690, Pitch_bend_c, 12, 9472
5, 248695, Pitch_bend_c, 12, 9600
5, 248700, Pitch_bend_c, 12, 9600
5, 248760, Pitch_bend_c, 12, 9600
5, 248765, Pitch_bend_c, 12, 9472
5, 248770, Pitch_bend_c, 12, 9344
5, 248775, Pitch_bend_c, 12, 9216
5, 248780, Pitch_bend_c, 12, 9088
5, 248785, Pitch_bend_c, 12, 8960
5, 248790, Pitch_bend_c, 12, 8832
5, 248795, Pitch_bend_c, 12, 8704
5, 248800, Pitch_bend_c, 12, 8576
5, 248805, Pitch_bend_c, 12, 8448
5, 248810, Pitch_bend_c, 12, 8320
5, 248815, Pitch_bend_c, 12, 8192
5, 248820, Pitch_bend_c, 12, 8192
5, 248880, Pitch_bend_c, 12, 8192
5, 248880, Pitch_bend_c, 12, 8192
5, 248880, Note_off_c, 12, 66, 79
5, 248880, Note_on_c, 11, 66, 63
5, 249120, Note_off_c, 11, 66, 63
5, 249120, Note_on_c, 12, 64, 79
5, 249280, Pitch_bend_c, 12, 8192
5, 249440, Pitch_bend_c, 12, 8320
5, 249600, Pitch_bend_c, 12, 8192
5, 249600, Pitch_bend_c, 12, 8320
5, 249600, Pitch_bend_c, 12, 8192
5, 249600, Note_off_c, 12, 64, 79
5, 249600, Note_on_c, 12, 66, 79
5, 249760, Pitch_bend_c, 12, 8192
5, 249920, Pitch_bend_c, 12, 8320
5, 250080, Pitch_bend_c, 12, 8192
5, 250240, Pitch_bend_c, 12, 8320
5, 250400, Pitch_bend_c, 12, 8192
5, 250560, Pitch_bend_c, 12, 8320
5, 250560, Pitch_bend_c, 12, 8192
5, 250560, Note_off_c, 12, 66, 79
5, 250560, Note_on_c, 11, 64, 79
5, 251040, Note_off_c, 11, 64, 79
5, 251040, Pitch_bend_c, 12, 8192
5, 251040, Note_on_c, 12, 66, 79
5, 251085, Pitch_bend_c, 12, 8320
5, 251130, Pitch_bend_c, 12, 8448
5, 251175, Pitch_bend_c, 12, 8576
5, 251220, Pitch_bend_c, 12, 8704
5, 251265, Pitch_bend_c, 12, 8832
5, 251310, Pitch_bend_c, 12, 8960
5, 251355, Pitch_bend_c, 12, 9088
5, 251400, Pitch_bend_c, 12, 9216
5, 251445, Pitch_bend_c, 12, 9344
5, 251490, Pitch_bend_c, 12, 9472
5, 251535, Pitch_bend_c, 12, 9600
5, 251580, Pitch_bend_c, 12, 9728
5, 251625, Pitch_bend_c, 12, 9856
5, 251670, Pitch_bend_c, 12, 9984
5, 251715, Pitch_bend_c, 12, 10112
5, 251760, Pitch_bend_c, 12, 10240
5, 251760, Pitch_bend_c, 12, 10240
5, 252480, Pitch_bend_c, 12, 10240
5, 252480, Pitch_bend_c, 12, 8192
5, 252480, Note_off_c, 12, 66, 79
5, 252480, Pitch_bend_c, 12, 9600
5, 252480, Note_on_c, 12, 66, 79
5, 252560, Pitch_bend_c, 12, 9600
5, 252567, Pitch_bend_c, 12, 9472
5, 252574, Pitch_bend_c, 12, 9344
5, 252581, Pitch_bend_c, 12, 9216
5, 252588, Pitch_bend_c, 12, 9088
5, 252595, Pitch_bend_c, 12, 8960
5, 252602, Pitch_bend_c, 12, 8832
5, 252609, Pitch_bend_c, 12, 8704
5, 252616, Pitch_bend_c, 12, 8576
5, 252623, Pitch_bend_c, 12, 8448
5, 252630, Pitch_bend_c, 12, 8320
5, 252637, Pitch_bend_c, 12, 8192
5, 252640, Pitch_bend_c, 12, 8192
5, 252720, Pitch_bend_c, 12, 8192
5, 252720, Pitch_bend_c, 12, 8192
5, 252720, Note_off_c, 12, 66, 79
5, 252720, Note_on_c, 11, 66, 63
5, 252960, Note_off_c, 11, 66, 63
5, 252960, Note_on_c, 12, 64, 79
5, 253120, Pitch_bend_c, 12, 8192
5, 253280, Pitch_bend_c, 12, 8320
5, 253440, Pitch_bend_c, 12, 8192
5, 253440, Pitch_bend_c, 12, 8320
5, 253440, Pitch_bend_c, 12, 8192
5, 253440, Note_off_c, 12, 64, 79
5, 253440, Note_on_c, 12, 64, 63
5, 253600, Pitch_bend_c, 12, 8192
5, 253760, Pitch_bend_c, 12, 8320
5, 253920, Pitch_bend_c, 12, 8192
5, 253920, Pitch_bend_c, 12, 8320
5, 253920, Pitch_bend_c, 12, 8192
5, 253920, Note_off_c, 12, 64, 63
5, 253920, Note_on_c, 11, 61, 79
5, 254400, Note_off_c, 11, 61, 79
5, 254400, Note_on_c, 11, 64, 79
5, 254880, Note_off_c, 11, 64, 79
5, 254880, Note_on_c, 11, 61, 79
5, 255360, Note_off_c, 11, 61, 79
5, 257760, Note_on_c, 11, 59, 79
5, 258000, Note_off_c, 11, 59, 79
5, 258000, Note_on_c, 11, 61, 79
5, 258240, Note_off_c, 11, 61, 79
5, 258240, Note_on_c, 12, 64, 79
5, 258400, Pitch_bend_c, 12, 8192
5, 258560, Pitch_bend_c, 12, 8320
5, 258720, Pitch_bend_c, 12, 8192
5, 258720, Pitch_bend_c, 12, 8320
5, 258720, Pitch_bend_c, 12, 8192
5, 258720, Note_off_c, 12, 64, 79
5, 258720, Note_on_c, 12, 64, 79
5, 258880, Pitch_bend_c, 12, 8192
5, 259040, Pitch_bend_c, 12, 8320
5, 259200, Pitch_bend_c, 12, 8192
5, 259200, Pitch_bend_c, 12, 8320
5, 259200, Pitch_bend_c, 12, 8192
5, 259200, Note_off_c, 12, 64, 79
5, 259200, Note_on_c, 11, 66, 79
5, 259440, Note_off_c, 11, 66, 79
5, 259440, Note_on_c, 11, 64, 79
5, 259680, Note_off_c, 11, 64, 79
5, 260160, Pitch_bend_c, 12, 8192
5, 260160, Note_on_c, 12, 66, 79
5, 260181, Pitch_bend_c, 12, 8320
5, 260202, Pitch_bend_c, 12, 8448
5, 260223, Pitch_bend_c, 12, 8576
5, 260244, Pitch_bend_c, 12, 8704
5, 260265, Pitch_bend_c, 12, 8832
5, 260286, Pitch_bend_c, 12, 8960
5, 260307, Pitch_bend_c, 12, 9088
5, 260328, Pitch_bend_c, 12, 9216
5, 260349, Pitch_bend_c, 12, 9344
5, 260370, Pitch_bend_c, 12, 9472
5, 260391, Pitch_bend_c, 12, 9600
5, 260400, Pitch_bend_c, 12, 9600
5, 260640, Pitch_bend_c, 12, 9600
5, 260640, Pitch_bend_c, 12, 8192
5, 260640, Note_off_c, 12, 66, 79
5, 260640, Note_on_c, 11, 71, 79
5, 261120, Note_off_c, 11, 71, 79
5, 261600, Pitch_bend_c, 12, 8192
5, 261600, Note_on_c, 12, 71, 79
5, 261621, Pitch_bend_c, 12, 8320
5, 261642, Pitch_bend_c, 12, 8448
5, 261663, Pitch_bend_c, 12, 8576
5, 261684, Pitch_bend_c, 12, 8704
5, 261705, Pitch_bend_c, 12, 8832
5, 261726, Pitch_bend_c, 12, 8960
5, 261747, Pitch_bend_c, 12, 9088
5, 261768, Pitch_bend_c, 12, 9216
5, 261789, Pitch_bend_c, 12, 9344
5, 261810, Pitch_bend_c, 12, 9472
5, 261831, Pitch_bend_c, 12, 9600
5, 261840, Pitch_bend_c, 12, 9600
5, 262080, Pitch_bend_c, 12, 9600
5, 262080, Pitch_bend_c, 12, 8192
5, 262080, Note_off_c, 12, 71, 79
5, 262080, Pitch_bend_c, 12, 8192
5, 262080, Note_on_c, 12, 71, 79
5, 262101, Pitch_bend_c, 12, 8320
5, 262122, Pitch_bend_c, 12, 8448
5, 262143, Pitch_bend_c, 12, 8576
5, 262164, Pitch_bend_c, 12, 8704
5, 262185, Pitch_bend_c, 12, 8832
5, 262206, Pitch_bend_c, 12, 8960
5, 262227, Pitch_bend_c, 12, 9088
5, 262248, Pitch_bend_c, 12, 9216
5, 262269, Pitch_bend_c, 12, 9344
5, 262290, Pitch_bend_c, 12, 9472
5, 262311, Pitch_bend_c, 12, 9600
5, 262320, Pitch_bend_c, 12, 9600
5, 262560, Pitch_bend_c, 12, 9600
5, 262560, Pitch_bend_c, 12, 8192
5, 262560, Note_off_c, 12, 71, 79
5, 262560, Pitch_bend_c, 12, 8192
5, 262560, Note_on_c, 12, 71, 79
5, 262581, Pitch_bend_c, 12, 8320
5, 262602, Pitch_bend_c, 12, 8448
5, 262623, Pitch_bend_c, 12, 8576
5, 262644, Pitch_bend_c, 12, 8704
5, 262665, Pitch_bend_c, 12, 8832
5, 262686, Pitch_bend_c, 12, 8960
5, 262707, Pitch_bend_c, 12, 9088
5, 262728, Pitch_bend_c, 12, 9216
5, 262749, Pitch_bend_c, 12, 9344
5, 262770, Pitch_bend_c, 12, 9472
5, 262791, Pitch_bend_c, 12, 9600
5, 262800, Pitch_bend_c, 12, 9600
5, 263040, Pitch_bend_c, 12, 9600
5, 263040, Pitch_bend_c, 12, 8192
5, 263040, Note_off_c, 12, 71, 79
5, 263040, Note_on_c, 12, 71, 79
5, 263200, Pitch_bend_c, 12, 8192
5, 263360, Pitch_bend_c, 12, 8320
5, 263520, Pitch_bend_c, 12, 8192
5, 263520, Pitch_bend_c, 12, 8320
5, 263520, Pitch_bend_c, 12, 8192
5, 263520, Note_off_c, 12, 71, 79
5, 263520, Note_on_c, 12, 71, 79
5, 263680, Pitch_bend_c, 12, 8192
5, 263840, Pitch_bend_c, 12, 8320
5, 264000, Pitch_bend_c, 12, 8192
5, 264000, Pitch_bend_c, 12, 8320
5, 264000, Pitch_bend_c, 12, 8192
5, 264000, Note_off_c, 12, 71, 79
5, 264000, Pitch_bend_c, 12, 8192
5, 264000, Note_on_c, 12, 66, 79
5, 264005, Pitch_bend_c, 12, 8320
5, 264010, Pitch_bend_c, 12, 8448
5, 264015, Pitch_bend_c, 12, 8576
5, 264020, Pitch_bend_c, 12, 8704
5, 264025, Pitch_bend_c, 12, 8832
5, 264030, Pitch_bend_c, 12, 8960
5, 264035, Pitch_bend_c, 12, 9088
5, 264040, Pitch_bend_c, 12, 9216
5, 264045, Pitch_bend_c, 12, 9344
5, 264050, Pitch_bend_c, 12, 9472
5, 264055, Pitch_bend_c, 12, 9600
5, 264060, Pitch_bend_c, 12, 9600
5, 264120, Pitch_bend_c, 12, 9600
5, 264125, Pitch_bend_c, 12, 9472
5, 264130, Pitch_bend_c, 12, 9344
5, 264135, Pitch_bend_c, 12, 9216
5, 264140, Pitch_bend_c, 12, 9088
5, 264145, Pitch_bend_c, 12, 8960
5, 264150, Pitch_bend_c, 12, 8832
5, 264155, Pitch_bend_c, 12, 8704
5, 264160, Pitch_bend_c, 12, 8576
5, 264165, Pitch_bend_c, 12, 8448
5, 264170, Pitch_bend_c, 12, 8320
5, 264175, Pitch_bend_c, 12, 8192
5, 264180, Pitch_bend_c, 12, 8192
5, 264240, Pitch_bend_c, 12, 8192
5, 264240, Pitch_bend_c, 12, 8192
5, 264240, Note_off_c, 12, 66, 79
5, 264240, Note_on_c, 11, 66, 63
5, 264480, Note_off_c, 11, 66, 63
5, 264480, Note_on_c, 12, 64, 79
5, 264640, Pitch_bend_c, 12, 8192
5, 264800, Pitch_bend_c, 12, 8320
5, 264960, Pitch_bend_c, 12, 8192
5, 264960, Pitch_bend_c, 12, 8320
5, 264960, Pitch_bend_c, 12, 8192
5, 264960, Note_off_c, 12, 64, 79
5, 264960, Note_on_c, 12, 66, 79
5, 265120, Pitch_bend_c, 12, 8192
5, 265280, Pitch_bend_c, 12, 8320
5, 265440, Pitch_bend_c, 12, 8192
5, 265600, Pitch_bend_c, 12, 8320
5, 265760, Pitch_bend_c, 12, 8192
5, 265920, Pitch_bend_c, 12, 8320
5, 265920, Pitch_bend_c, 12, 8192
5, 265920, Note_off_c, 12, 66, 79
5, 265920, Note_on_c, 11, 64, 79
5, 266400, Note_off_c, 11, 64, 79
5, 266400, Pitch_bend_c, 12, 8192
5, 266400, Note_on_c, 12, 66, 79
5, 266445, Pitch_bend_c, 12, 8320
5, 266490, Pitch_bend_c, 12, 8448
5, 266535, Pitch_bend_c, 12, 8576
5, 266580, Pitch_bend_c, 12, 8704
5, 266625, Pitch_bend_c, 12, 8832
5, 266670, Pitch_bend_c, 12, 8960
5, 266715, Pitch_bend_c, 12, 9088
5, 266760, Pitch_bend_c, 12, 9216
5, 266805, Pitch_bend_c, 12, 9344
5, 266850, Pitch_bend_c, 12, 9472
5, 266895, Pitch_bend_c, 12, 9600
5, 266940, Pitch_bend_c, 12, 9728
5, 266985, Pitch_bend_c, 12, 9856
5, 267030, Pitch_bend_c, 12, 9984
5, 267075, Pitch_bend_c, 12, 10112
5, 267120, Pitch_bend_c, 12, 10240
5, 267120, Pitch_bend_c, 12, 10240
5, 267840, Pitch_bend_c, 12, 10240
5, 267840, Pitch_bend_c, 12, 8192
5, 267840, Note_off_c, 12, 66, 79
5, 267840, Pitch_bend_c, 12, 9600
5, 267840, Note_on_c, 12, 66, 79
5, 267920, Pitch_bend_c, 12, 9600
5, 267927, Pitch_bend_c, 12, 9472
5, 267934, Pitch_bend_c, 12, 9344
5, 267941, Pitch_bend_c, 12, 9216
5, 267948, Pitch_bend_c, 12, 9088
5, 267955, Pitch_bend_c, 12, 8960
5, 267962, Pitch_bend_c, 12, 8832
5, 267969, Pitch_bend_c, 12, 8704
5, 267976, Pitch_bend_c, 12, 8576
5, 267983, Pitch_bend_c, 12, 8448
5, 267990, Pitch_bend_c, 12, 8320
5, 267997, Pitch_bend_c, 12, 8192
5, 268000, Pitch_bend_c, 12, 8192
5, 268080, Pitch_bend_c, 12, 8192
5, 268080, Pitch_bend_c, 12, 8192
5, 268080, Note_off_c, 12, 66, 79
5, 268080, Note_on_c, 11, 66, 63
5, 268320, Note_off_c, 11, 66, 63
5, 268320, Note_on_c, 12, 64, 79
5, 268480, Pitch_bend_c, 12, 8192
5, 268640, Pitch_bend_c, 12, 8320
5, 268800, Pitch_bend_c, 12, 8192
5, 268960, Pitch_bend_c, 12, 8320
5, 269120, Pitch_bend_c, 12, 8192
5, 269280, Pitch_bend_c, 12, 8320
5, 269280, Pitch_bend_c, 12, 8192
5, 269280, Note_off_c, 12, 64, 79
5, 269280, Note_on_c, 11, 61, 79
5, 269760, Note_off_c, 11, 61, 79
5, 269760, Note_on_c, 11, 64, 79
5, 270240, Note_off_c, 11, 64, 79
5, 270240, Note_on_c, 11, 66, 79
5, 270720, Note_off_c, 11, 66, 79
5, 271200, Pitch_bend_c, 12, 8192
5, 271200, Note_on_c, 12, 66, 79
5, 271221, Pitch_bend_c, 12, 8320
5, 271242, Pitch_bend_c, 12, 8448
5, 271263, Pitch_bend_c, 12, 8576
5, 271284, Pitch_bend_c, 12, 8704
5, 271305, Pitch_bend_c, 12, 8832
5, 271326, Pitch_bend_c, 12, 8960
5, 271347, Pitch_bend_c, 12, 9088
5, 271368, Pitch_bend_c, 12, 9216
5, 271389, Pitch_bend_c, 12, 9344
5, 271410, Pitch_bend_c, 12, 9472
5, 271431, Pitch_bend_c, 12, 9600
5, 271440, Pitch_bend_c, 12, 9600
5, 271680, Pitch_bend_c, 12, 9600
5, 271680, Pitch_bend_c, 12, 8192
5, 271680, Note_off_c, 12, 66, 79
5, 271680, Note_on_c, 12, 64, 79
5, 271840, Pitch_bend_c, 12, 8192
5, 272000, Pitch_bend_c, 12, 8320
5, 272160, Pitch_bend_c, 12, 8192
5, 272160, Pitch_bend_c, 12, 8320
5, 272160, Pitch_bend_c, 12, 8192
5, 272160, Note_off_c, 12, 64, 79
5, 272160, Note_on_c, 11, 61, 79
5, 272640, Note_off_c, 11, 61, 79
5, 273120, Pitch_bend_c, 12, 8192
5, 273120, Note_on_c, 12, 66, 79
5, 273141, Pitch_bend_c, 12, 8320
5, 273162, Pitch_bend_c, 12, 8448
5, 273183, Pitch_bend_c, 12, 8576
5, 273204, Pitch_bend_c, 12, 8704
5, 273225, Pitch_bend_c, 12, 8832
5, 273246, Pitch_bend_c, 12, 8960
5, 273267, Pitch_bend_c, 12, 9088
5, 273288, Pitch_bend_c, 12, 9216
5, 273309, Pitch_bend_c, 12, 9344
5, 273330, Pitch_bend_c, 12, 9472
5, 273351, Pitch_bend_c, 12, 9600
5, 273360, Pitch_bend_c, 12, 9600
5, 273600, Pitch_bend_c, 12, 9600
5, 273600, Pitch_bend_c, 12, 8192
5, 273600, Note_off_c, 12, 66, 79
5, 273600, Note_on_c, 11, 64, 79
5, 273840, Note_off_c, 11, 64, 79
5, 273840, Note_on_c, 11, 66, 79
5, 274080, Note_off_c, 11, 66, 79
5, 274560, Pitch_bend_c, 12, 8192
5, 274560, Note_on_c, 12, 66, 79
5, 274581, Pitch_bend_c, 12, 8320
5, 274602, Pitch_bend_c, 12, 8448
5, 274623, Pitch_bend_c, 12, 8576
5, 274644, Pitch_bend_c, 12, 8704
5, 274665, Pitch_bend_c, 12, 8832
5, 274686, Pitch_bend_c, 12, 8960
5, 274707, Pitch_bend_c, 12, 9088
5, 274728, Pitch_bend_c, 12, 9216
5, 274749, Pitch_bend_c, 12, 9344
5, 274770, Pitch_bend_c, 12, 9472
5, 274791, Pitch_bend_c, 12, 9600
5, 274800, Pitch_bend_c, 12, 9600
5, 275040, Pitch_bend_c, 12, 9600
5, 275040, Pitch_bend_c, 12, 8192
5, 275040, Note_off_c, 12, 66, 79
5, 275040, Pitch_bend_c, 12, 8192
5, 275040, Note_on_c, 12, 66, 79
5, 275061, Pitch_bend_c, 12, 8320
5, 275082, Pitch_bend_c, 12, 8448
5, 275103, Pitch_bend_c, 12, 8576
5, 275124, Pitch_bend_c, 12, 8704
5, 275145, Pitch_bend_c, 12, 8832
5, 275166, Pitch_bend_c, 12, 8960
5, 275187, Pitch_bend_c, 12, 9088
5, 275208, Pitch_bend_c, 12, 9216
5, 275229, Pitch_bend_c, 12, 9344
5, 275250, Pitch_bend_c, 12, 9472
5, 275271, Pitch_bend_c, 12, 9600
5, 275280, Pitch_bend_c, 12, 9600
5, 275520, Pitch_bend_c, 12, 9600
5, 275520, Pitch_bend_c, 12, 8192
5, 275520, Note_off_c, 12, 66, 79
5, 275520, Note_on_c, 12, 64, 79
5, 275680, Pitch_bend_c, 12, 8192
5, 275840, Pitch_bend_c, 12, 8320
5, 276000, Pitch_bend_c, 12, 8192
5, 276000, Pitch_bend_c, 12, 8320
5, 276000, Pitch_bend_c, 12, 8192
5, 276000, Note_off_c, 12, 64, 79
5, 276000, Note_on_c, 11, 66, 79
5, 276480, Note_off_c, 11, 66, 79
5, 276960, Pitch_bend_c, 12, 8192
5, 276960, Note_on_c, 12, 71, 79
5, 276970, Pitch_bend_c, 12, 8320
5, 276980, Pitch_bend_c, 12, 8448
5, 276990, Pitch_bend_c, 12, 8576
5, 277000, Pitch_bend_c, 12, 8704
5, 277010, Pitch_bend_c, 12, 8832
5, 277020, Pitch_bend_c, 12, 8960
5, 277030, Pitch_bend_c, 12, 9088
5, 277040, Pitch_bend_c, 12, 9216
5, 277050, Pitch_bend_c, 12, 9344
5, 277060, Pitch_bend_c, 12, 9472
5, 277070, Pitch_bend_c, 12, 9600
5, 277080, Pitch_bend_c, 12, 9600
5, 277200, Pitch_bend_c, 12, 9600
5, 277210, Pitch_bend_c, 12, 9472
5, 277220, Pitch_bend_c, 12, 9344
5, 277230, Pitch_bend_c, 12, 9216
5, 277240, Pitch_bend_c, 12, 9088
5, 277250, Pitch_bend_c, 12, 8960
5, 277260, Pitch_bend_c, 12, 8832
5, 277270, Pitch_bend_c, 12, 8704
5, 277280, Pitch_bend_c, 12, 8576
5, 277290, Pitch_bend_c, 12, 8448
5, 277300, Pitch_bend_c, 12, 8320
5, 277310, Pitch_bend_c, 12, 8192
5, 277320, Pitch_bend_c, 12, 8192
5, 277440, Pitch_bend_c, 12, 8192
5, 277440, Pitch_bend_c, 12, 8192
5, 277440, Note_off_c, 12, 71, 79
5, 277440, Pitch_bend_c, 12, 8192
5, 277440, Note_on_c, 12, 71, 63
5, 277450, Pitch_bend_c, 12, 8320
5, 277460, Pitch_bend_c, 12, 8448
5, 277470, Pitch_bend_c, 12, 8576
5, 277480, Pitch_bend_c, 12, 8704
5, 277490, Pitch_bend_c, 12, 8832
5, 277500, Pitch_bend_c, 12, 8960
5, 277510, Pitch_bend_c, 12, 9088
5, 277520, Pitch_bend_c, 12, 9216
5, 277530, Pitch_bend_c, 12, 9344
5, 277540, Pitch_bend_c, 12, 9472
5, 277550, Pitch_bend_c, 12, 9600
5, 277560, Pitch_bend_c, 12, 9600
5, 277680, Pitch_bend_c, 12, 9600
5, 277690, Pitch_bend_c, 12, 9472
5, 277700, Pitch_bend_c, 12, 9344
5, 277710, Pitch_bend_c, 12, 9216
5, 277720, Pitch_bend_c, 12, 9088
5, 277730, Pitch_bend_c, 12, 8960
5, 277740, Pitch_bend_c, 12, 8832
5, 277750, Pitch_bend_c, 12, 8704
5, 277760, Pitch_bend_c, 12, 8576
5, 277770, Pitch_bend_c, 12, 8448
5, 277780, Pitch_bend_c, 12, 8320
5, 277790, Pitch_bend_c, 12, 8192
5, 277800, Pitch_bend_c, 12, 8192
5, 277920, Pitch_bend_c, 12, 8192
5, 277920, Pitch_bend_c, 12, 8192
5, 277920, Note_off_c, 12, 71, 63
5, 277920, Pitch_bend_c, 12, 8192
5, 277920, Note_on_c, 12, 71, 63
5, 277941, Pitch_bend_c, 12, 8320
5, 277962, Pitch_bend_c, 12, 8448
5, 277983, Pitch_bend_c, 12, 8576
5, 278004, Pitch_bend_c, 12, 8704
5, 278025, Pitch_bend_c, 12, 8832
5, 278046, Pitch_bend_c, 12, 8960
5, 278067, Pitch_bend_c, 12, 9088
5, 278088, Pitch_bend_c, 12, 9216
5, 278109, Pitch_bend_c, 12, 9344
5, 278130, Pitch_bend_c, 12, 9472
5, 278151, Pitch_bend_c, 12, 9600
5, 278160, Pitch_bend_c, 12, 9600
5, 278400, Pitch_bend_c, 12, 9600
5, 278400, Pitch_bend_c, 12, 8192
5, 278400, Note_off_c, 12, 71, 63
5, 278400, Note_on_c, 12, 71, 79
5, 278560, Pitch_bend_c, 12, 8192
5, 278720, Pitch_bend_c, 12, 8320
5, 278880, Pitch_bend_c, 12, 8192
5, 278880, Pitch_bend_c, 12, 8320
5, 278880, Pitch_bend_c, 12, 8192
5, 278880, Note_off_c, 12, 71, 79
5, 278880, Note_on_c, 12, 71, 79
5, 279040, Pitch_bend_c, 12, 8192
5, 279200, Pitch_bend_c, 12, 8320
5, 279360, Pitch_bend_c, 12, 8192
5, 279360, Pitch_bend_c, 12, 8320
5, 279360, Pitch_bend_c, 12, 8192
5, 279360, Note_off_c, 12, 71, 79
5, 279360, Pitch_bend_c, 12, 8192
5, 279360, Note_on_c, 12, 66, 79
5, 279365, Pitch_bend_c, 12, 8320
5, 279370, Pitch_bend_c, 12, 8448
5, 279375, Pitch_bend_c, 12, 8576
5, 279380, Pitch_bend_c, 12, 8704
5, 279385, Pitch_bend_c, 12, 8832
5, 279390, Pitch_bend_c, 12, 8960
5, 279395, Pitch_bend_c, 12, 9088
5, 279400, Pitch_bend_c, 12, 9216
5, 279405, Pitch_bend_c, 12, 9344
5, 279410, Pitch_bend_c, 12, 9472
5, 279415, Pitch_bend_c, 12, 9600
5, 279420, Pitch_bend_c, 12, 9600
5, 279480, Pitch_bend_c, 12, 9600
5, 279485, Pitch_bend_c, 12, 9472
5, 279490, Pitch_bend_c, 12, 9344
5, 279495, Pitch_bend_c, 12, 9216
5, 279500, Pitch_bend_c, 12, 9088
5, 279505, Pitch_bend_c, 12, 8960
5, 279510, Pitch_bend_c, 12, 8832
5, 279515, Pitch_bend_c, 12, 8704
5, 279520, Pitch_bend_c, 12, 8576
5, 279525, Pitch_bend_c, 12, 8448
5, 279530, Pitch_bend_c, 12, 8320
5, 279535, Pitch_bend_c, 12, 8192
5, 279540, Pitch_bend_c, 12, 8192
5, 279600, Pitch_bend_c, 12, 8192
5, 279600, Pitch_bend_c, 12, 8192
5, 279600, Note_off_c, 12, 66, 79
5, 279600, Note_on_c, 11, 66, 63
5, 279840, Note_off_c, 11, 66, 63
5, 279840, Note_on_c, 11, 64, 79
5, 280320, Note_off_c, 11, 64, 79
5, 280320, Note_on_c, 12, 66, 79
5, 280480, Pitch_bend_c, 12, 8192
5, 280640, Pitch_bend_c, 12, 8320
5, 280800, Pitch_bend_c, 12, 8192
5, 280960, Pitch_bend_c, 12, 8320
5, 281120, Pitch_bend_c, 12, 8192
5, 281280, Pitch_bend_c, 12, 8320
5, 281280, Pitch_bend_c, 12, 8192
5, 281280, Note_off_c, 12, 66, 79
5, 281280, Note_on_c, 11, 64, 79
5, 281760, Note_off_c, 11, 64, 79
5, 281760, Pitch_bend_c, 12, 8192
5, 281760, Note_on_c, 12, 66, 79
5, 281805, Pitch_bend_c, 12, 8320
5, 281850, Pitch_bend_c, 12, 8448
5, 281895, Pitch_bend_c, 12, 8576
5, 281940, Pitch_bend_c, 12, 8704
5, 281985, Pitch_bend_c, 12, 8832
5, 282030, Pitch_bend_c, 12, 8960
5, 282075, Pitch_bend_c, 12, 9088
5, 282120, Pitch_bend_c, 12, 9216
5, 282165, Pitch_bend_c, 12, 9344
5, 282210, Pitch_bend_c, 12, 9472
5, 282255, Pitch_bend_c, 12, 9600
5, 282300, Pitch_bend_c, 12, 9728
5, 282345, Pitch_bend_c, 12, 9856
5, 282390, Pitch_bend_c, 12, 9984
5, 282435, Pitch_bend_c, 12, 10112
5, 282480, Pitch_bend_c, 12, 10240
5, 282480, Pitch_bend_c, 12, 10240
5, 283200, Pitch_bend_c, 12, 10240
5, 283200, Pitch_bend_c, 12, 8192
5, 283200, Note_off_c, 12, 66, 79
5, 283200, Pitch_bend_c, 12, 9600
5, 283200, Note_on_c, 12, 66, 79
5, 283280, Pitch_bend_c, 12, 9600
5, 283287, Pitch_bend_c, 12, 9472
5, 283294, Pitch_bend_c, 12, 9344
5, 283301, Pitch_bend_c, 12, 9216
5, 283308, Pitch_bend_c, 12, 9088
5, 283315, Pitch_bend_c, 12, 8960
5, 283322, Pitch_bend_c, 12, 8832
5, 283329, Pitch_bend_c, 12, 8704
5, 283336, Pitch_bend_c, 12, 8576
5, 283343, Pitch_bend_c, 12, 8448
5, 283350, Pitch_bend_c, 12, 8320
5, 283357, Pitch_bend_c, 12, 8192
5, 283360, Pitch_bend_c, 12, 8192
5, 283440, Pitch_bend_c, 12, 8192
5, 283440, Pitch_bend_c, 12, 8192
5, 283440, Note_off_c, 12, 66, 79
5, 283440, Note_on_c, 11, 66, 63
5, 283680, Note_off_c, 11, 66, 63
5, 283680, Note_on_c, 12, 64, 79
5, 283840, Pitch_bend_c, 12, 8192
5, 284000, Pitch_bend_c, 12, 8320
5, 284160, Pitch_bend_c, 12, 8192
5, 284320, Pitch_bend_c, 12, 8320
5, 284480, Pitch_bend_c, 12, 8192
5, 284640, Pitch_bend_c, 12, 8320
5, 284640, Pitch_bend_c, 12, 8192
5, 284640, Note_off_c, 12, 64, 79
5, 284640, Note_on_c, 11, 61, 79
5, 285120, Note_off_c, 11, 61, 79
5, 285600, Note_on_c, 11, 59, 79
5, 285840, Note_off_c, 11, 59, 79
5, 285840, Note_on_c, 11, 61, 54
5, 286080, Note_off_c, 11, 61, 54
5, 286080, Note_on_c, 12, 64, 79
5, 286240, Pitch_bend_c, 12, 8192
5, 286400, Pitch_bend_c, 12, 8320
5, 286560, Pitch_bend_c, 12, 8192
5, 286560, Pitch_bend_c, 12, 8320
5, 286560, Pitch_bend_c, 12, 8192
5, 286560, Note_off_c, 12, 64, 79
5, 286560, Note_on_c, 12, 64, 79
5, 286720, Pitch_bend_c, 12, 8192
5, 286880, Pitch_bend_c, 12, 8320
5, 287040, Pitch_bend_c, 12, 8192
5, 287040, Pitch_bend_c, 12, 8320
5, 287040, Pitch_bend_c, 12, 8192
5, 287040, Note_off_c, 12, 64, 79
5, 287040, Note_on_c, 12, 66, 79
5, 287160, Pitch_bend_c, 12, 8832
5, 287280, Pitch_bend_c, 12, 9600
5, 287280, Pitch_bend_c, 12, 8192
5, 287280, Note_off_c, 12, 66, 79
5, 287280, Note_on_c, 11, 68, 79
5, 287520, Note_off_c, 11, 68, 79
5, 287520, Note_on_c, 12, 71, 79
5, 287680, Pitch_bend_c, 12, 8192
5, 287840, Pitch_bend_c, 12, 8320
5, 288000, Pitch_bend_c, 12, 8192
5, 288000, Pitch_bend_c, 12, 8320
5, 288000, Pitch_bend_c, 12, 8192
5, 288000, Note_off_c, 12, 71, 79
5, 288000, Note_on_c, 12, 71, 63
5, 288160, Pitch_bend_c, 12, 8192
5, 288320, Pitch_bend_c, 12, 8320
5, 288480, Pitch_bend_c, 12, 8192
5, 288480, Pitch_bend_c, 12, 8320
5, 288480, Pitch_bend_c, 12, 8192
5, 288480, Note_off_c, 12, 71, 63
5, 288480, Note_on_c, 11, 73, 79
5, 288960, Note_off_c, 11, 73, 79
5, 288960, Note_on_c, 12, 76, 79
5, 289120, Pitch_bend_c, 12, 8192
5, 289280, Pitch_bend_c, 12, 8320
5, 289440, Pitch_bend_c, 12, 8192
5, 289440, Pitch_bend_c, 12, 8320
5, 289440, Pitch_bend_c, 12, 8192
5, 289440, Note_off_c, 12, 76, 79
5, 289440, Note_on_c, 12, 76, 79
5, 289600, Pitch_bend_c, 12, 8192
5, 289760, Pitch_bend_c, 12, 8320
5, 289920, Pitch_bend_c, 12, 8192
5, 289920, Pitch_bend_c, 12, 8320
5, 289920, Pitch_bend_c, 12, 8192
5, 289920, Note_off_c, 12, 76, 79
5, 289920, Pitch_bend_c, 12, 8192
5, 289920, Note_on_c, 12, 78, 79
5, 289941, Pitch_bend_c, 12, 8320
5, 289962, Pitch_bend_c, 12, 8448
5, 289983, Pitch_bend_c, 12, 8576
5, 290004, Pitch_bend_c, 12, 8704
5, 290025, Pitch_bend_c, 12, 8832
5, 290046, Pitch_bend_c, 12, 8960
5, 290067, Pitch_bend_c, 12, 9088
5, 290088, Pitch_bend_c, 12, 9216
5, 290109, Pitch_bend_c, 12, 9344
5, 290130, Pitch_bend_c, 12, 9472
5, 290151, Pitch_bend_c, 12, 9600
5, 290160, Pitch_bend_c, 12, 9600
5, 290400, Pitch_bend_c, 12, 9600
5, 290400, Pitch_bend_c, 12, 8192
5, 290400, Note_off_c, 12, 78, 79
5, 290400, Pitch_bend_c, 12, 8192
5, 290400, Note_on_c, 12, 78, 79
5, 290421, Pitch_bend_c, 12, 8320
5, 290442, Pitch_bend_c, 12, 8448
5, 290463, Pitch_bend_c, 12, 8576
5, 290484, Pitch_bend_c, 12, 8704
5, 290505, Pitch_bend_c, 12, 8832
5, 290526, Pitch_bend_c, 12, 8960
5, 290547, Pitch_bend_c, 12, 9088
5, 290568, Pitch_bend_c, 12, 9216
5, 290589, Pitch_bend_c, 12, 9344
5, 290610, Pitch_bend_c, 12, 9472
5, 290631, Pitch_bend_c, 12, 9600
5, 290640, Pitch_bend_c, 12, 9600
5, 290880, Pitch_bend_c, 12, 9600
5, 290880, Pitch_bend_c, 12, 8192
5, 290880, Note_off_c, 12, 78, 79
5, 290880, Pitch_bend_c, 12, 9600
5, 290880, Note_on_c, 12, 78, 79
5, 290960, Pitch_bend_c, 12, 9600
5, 290967, Pitch_bend_c, 12, 9472
5, 290974, Pitch_bend_c, 12, 9344
5, 290981, Pitch_bend_c, 12, 9216
5, 290988, Pitch_bend_c, 12, 9088
5, 290995, Pitch_bend_c, 12, 8960
5, 291002, Pitch_bend_c, 12, 8832
5, 291009, Pitch_bend_c, 12, 8704
5, 291016, Pitch_bend_c, 12, 8576
5, 291023, Pitch_bend_c, 12, 8448
5, 291030, Pitch_bend_c, 12, 8320
5, 291037, Pitch_bend_c, 12, 8192
5, 291040, Pitch_bend_c, 12, 8192
5, 291120, Pitch_bend_c, 12, 8192
5, 291120, Pitch_bend_c, 12, 8192
5, 291120, Note_off_c, 12, 78, 79
5, 291120, Note_on_c, 11, 78, 63
5, 291360, Note_off_c, 11, 78, 63
5, 291360, Note_on_c, 12, 76, 79
5, 291520, Pitch_bend_c, 12, 8192
5, 291680, Pitch_bend_c, 12, 8320
5, 291840, Pitch_bend_c, 12, 8192
5, 292000, Pitch_bend_c, 12, 8320
5, 292160, Pitch_bend_c, 12, 8192
5, 292320, Pitch_bend_c, 12, 8320
5, 292320, Pitch_bend_c, 12, 8192
5, 292320, Note_off_c, 12, 76, 79
5, 292320, Note_on_c, 12, 76, 79
5, 292480, Pitch_bend_c, 12, 8192
5, 292640, Pitch_bend_c, 12, 8320
5, 292800, Pitch_bend_c, 12, 8192
5, 292800, Pitch_bend_c, 12, 8320
5, 292800, Pitch_bend_c, 12, 8192
5, 292800, Note_off_c, 12, 76, 79
5, 292800, Note_on_c, 11, 73, 79
5, 293280, Note_off_c, 11, 73, 79
5, 293280, Note_on_c, 12, 76, 79
5, 293440, Pitch_bend_c, 12, 8192
5, 293600, Pitch_bend_c, 12, 8320
5, 293760, Pitch_bend_c, 12, 8192
5, 293760, Pitch_bend_c, 12, 8320
5, 293760, Pitch_bend_c, 12, 8192
5, 293760, Note_off_c, 12, 76, 79
5, 293760, Note_on_c, 12, 76, 63
5, 293920, Pitch_bend_c, 12, 8192
5, 294080, Pitch_bend_c, 12, 8320
5, 294240, Pitch_bend_c, 12, 8192
5, 294240, Pitch_bend_c, 12, 8320
5, 294240, Pitch_bend_c, 12, 8192
5, 294240, Note_off_c, 12, 76, 63
5, 294240, Note_on_c, 11, 78, 54
5, 294720, Note_off_c, 11, 78, 54
5, 295200, Pitch_bend_c, 12, 8192
5, 295200, Note_on_c, 12, 79, 79
5, 295243, Pitch_bend_c, 12, 8320
5, 295286, Pitch_bend_c, 12, 8448
5, 295329, Pitch_bend_c, 12, 8576
5, 295372, Pitch_bend_c, 12, 8704
5, 295415, Pitch_bend_c, 12, 8832
5, 295458, Pitch_bend_c, 12, 8960
5, 295501, Pitch_bend_c, 12, 9088
5, 295544, Pitch_bend_c, 12, 9216
5, 295587, Pitch_bend_c, 12, 9344
5, 295630, Pitch_bend_c, 12, 9472
5, 295673, Pitch_bend_c, 12, 9600
5, 295680, Pitch_bend_c, 12, 9600
5, 296160, Pitch_bend_c, 12, 9600
5, 296160, Pitch_bend_c, 12, 8192
5, 296160, Note_off_c, 12, 79, 79
5, 296160, Pitch_bend_c, 12, 8192
5, 296160, Note_on_c, 12, 78, 79
5, 296181, Pitch_bend_c, 12, 8320
5, 296202, Pitch_bend_c, 12, 8448
5, 296223, Pitch_bend_c, 12, 8576
5, 296244, Pitch_bend_c, 12, 8704
5, 296265, Pitch_bend_c, 12, 8832
5, 296286, Pitch_bend_c, 12, 8960
5, 296307, Pitch_bend_c, 12, 9088
5, 296328, Pitch_bend_c, 12, 9216
5, 296349, Pitch_bend_c, 12, 9344
5, 296370, Pitch_bend_c, 12, 9472
5, 296391, Pitch_bend_c, 12, 9600
5, 296400, Pitch_bend_c, 12, 9600
5, 296640, Pitch_bend_c, 12, 9600
5, 296640, Pitch_bend_c, 12, 8192
5, 296640, Note_off_c, 12, 78, 79
5, 296640, Note_on_c, 11, 76, 79
5, 297120, Note_off_c, 11, 76, 79
5, 297120, Note_on_c, 11, 76, 79
5, 297600, Note_off_c, 11, 76, 79
5, 297600, Note_on_c, 11, 71, 79
5, 298080, Note_off_c, 11, 71, 79
5, 298080, Note_on_c, 12, 76, 79
5, 298240, Pitch_bend_c, 12, 8192
5, 298400, Pitch_bend_c, 12, 8320
5, 298560, Pitch_bend_c, 12, 8192
5, 298560, Pitch_bend_c, 12, 8320
5, 298560, Pitch_bend_c, 12, 8192
5, 298560, Note_off_c, 12, 76, 79
5, 298560, Note_on_c, 12, 76, 79
5, 298720, Pitch_bend_c, 12, 8192
5, 298880, Pitch_bend_c, 12, 8320
5, 299040, Pitch_bend_c, 12, 8192
5, 299040, Pitch_bend_c, 12, 8320
5, 299040, Pitch_bend_c, 12, 8192
5, 299040, Note_off_c, 12, 76, 79
5, 299040, Note_on_c, 11, 73, 79
5, 299400, Note_on_c, 12, 71, 79
5, 299520, Note_off_c, 11, 73, 79
5, 299520, Note_off_c, 12, 71, 79
5, 299520, Note_on_c, 12, 73, 79
5, 299680, Pitch_bend_c, 12, 8192
5, 299840, Pitch_bend_c, 12, 8320
5, 300000, Pitch_bend_c, 12, 8192
5, 300160, Pitch_bend_c, 12, 8320
5, 300320, Pitch_bend_c, 12, 8192
5, 300480, Pitch_bend_c, 12, 8320
5, 300480, Pitch_bend_c, 12, 8192
5, 300480, Note_off_c, 12, 73, 79
5, 300480, Note_on_c, 12, 76, 79
5, 301440, Note_off_c, 12, 76, 79
5, 302880, Note_on_c, 11, 71, 79
5, 303120, Note_off_c, 11, 71, 79
5, 303120, Pitch_bend_c, 12, 9600
5, 303120, Note_on_c, 12, 66, 79
5, 303360, Pitch_bend_c, 12, 9600
5, 303381, Pitch_bend_c, 12, 9472
5, 303402, Pitch_bend_c, 12, 9344
5, 303423, Pitch_bend_c, 12, 9216
5, 303444, Pitch_bend_c, 12, 9088
5, 303465, Pitch_bend_c, 12, 8960
5, 303486, Pitch_bend_c, 12, 8832
5, 303507, Pitch_bend_c, 12, 8704
5, 303528, Pitch_bend_c, 12, 8576
5, 303549, Pitch_bend_c, 12, 8448
5, 303570, Pitch_bend_c, 12, 8320
5, 303591, Pitch_bend_c, 12, 8192
5, 303600, Pitch_bend_c, 12, 8192
5, 303840, Pitch_bend_c, 12, 8192
5, 303840, Pitch_bend_c, 12, 8192
5, 303840, Note_off_c, 12, 66, 79
5, 303840, Pitch_bend_c, 12, 8192
5, 303840, Note_on_c, 12, 66, 63
5, 303845, Pitch_bend_c, 12, 8320
5, 303850, Pitch_bend_c, 12, 8448
5, 303855, Pitch_bend_c, 12, 8576
5, 303860, Pitch_bend_c, 12, 8704
5, 303865, Pitch_bend_c, 12, 8832
5, 303870, Pitch_bend_c, 12, 8960
5, 303875, Pitch_bend_c, 12, 9088
5, 303880, Pitch_bend_c, 12, 9216
5, 303885, Pitch_bend_c, 12, 9344
5, 303890, Pitch_bend_c, 12, 9472
5, 303895, Pitch_bend_c, 12, 9600
5, 303900, Pitch_bend_c, 12, 9600
5, 303960, Pitch_bend_c, 12, 9600
5, 303965, Pitch_bend_c, 12, 9472
5, 303970, Pitch_bend_c, 12, 9344
5, 303975, Pitch_bend_c, 12, 9216
5, 303980, Pitch_bend_c, 12, 9088
5, 303985, Pitch_bend_c, 12, 8960
5, 303990, Pitch_bend_c, 12, 8832
5, 303995, Pitch_bend_c, 12, 8704
5, 304000, Pitch_bend_c, 12, 8576
5, 304005, Pitch_bend_c, 12, 8448
5, 304010, Pitch_bend_c, 12, 8320
5, 304015, Pitch_bend_c, 12, 8192
5, 304020, Pitch_bend_c, 12, 8192
5, 304080, Pitch_bend_c, 12, 8192
5, 304080, Pitch_bend_c, 12, 8192
5, 304080, Note_off_c, 12, 66, 63
5, 304080, Note_on_c, 11, 66, 63
5, 304320, Note_off_c, 11, 66, 63
5, 304320, Note_on_c, 11, 64, 79
5, 304560, Note_off_c, 11, 64, 79
5, 304560, Note_on_c, 11, 66, 79
5, 304800, Note_off_c, 11, 66, 79
5, 304800, Note_on_c, 11, 61, 79
5, 305040, Note_off_c, 11, 61, 79
5, 305040, Note_on_c, 11, 64, 79
5, 305280, Note_off_c, 11, 64, 79
5, 305280, Note_on_c, 11, 66, 79
5, 305520, Note_off_c, 11, 66, 79
5, 305520, Pitch_bend_c, 12, 9600
5, 305520, Note_on_c, 12, 66, 79
5, 305760, Pitch_bend_c, 12, 9600
5, 305760, Pitch_bend_c, 12, 8192
5, 305760, Note_off_c, 12, 66, 79
5, 305760, Note_on_c, 11, 71, 79
5, 306000, Note_off_c, 11, 71, 79
5, 306000, Pitch_bend_c, 12, 9600
5, 306000, Note_on_c, 12, 66, 79
5, 306080, Pitch_bend_c, 12, 9600
5, 306087, Pitch_bend_c, 12, 9472
5, 306094, Pitch_bend_c, 12, 9344
5, 306101, Pitch_bend_c, 12, 9216
5, 306108, Pitch_bend_c, 12, 9088
5, 306115, Pitch_bend_c, 12, 8960
5, 306122, Pitch_bend_c, 12, 8832
5, 306129, Pitch_bend_c, 12, 8704
5, 306136, Pitch_bend_c, 12, 8576
5, 306143, Pitch_bend_c, 12, 8448
5, 306150, Pitch_bend_c, 12, 8320
5, 306157, Pitch_bend_c, 12, 8192
5, 306160, Pitch_bend_c, 12, 8192
5, 306240, Pitch_bend_c, 12, 8192
5, 306240, Pitch_bend_c, 12, 8192
5, 306240, Note_off_c, 12, 66, 79
5, 306240, Note_on_c, 11, 66, 63
5, 306480, Note_off_c, 11, 66, 63
5, 306480, Note_on_c, 11, 64, 54
5, 306720, Note_off_c, 11, 64, 54
5, 306720, Note_on_c, 11, 61, 79
5, 307200, Note_off_c, 11, 61, 79
5, 307680, Pitch_bend_c, 12, 8192
5, 307680, Note_on_c, 12, 71, 79
5, 307701, Pitch_bend_c, 12, 8320
5, 307722, Pitch_bend_c, 12, 8448
5, 307743, Pitch_bend_c, 12, 8576
5, 307764, Pitch_bend_c, 12, 8704
5, 307785, Pitch_bend_c, 12, 8832
5, 307806, Pitch_bend_c, 12, 8960
5, 307827, Pitch_bend_c, 12, 9088
5, 307848, Pitch_bend_c, 12, 9216
5, 307869, Pitch_bend_c, 12, 9344
5, 307890, Pitch_bend_c, 12, 9472
5, 307911, Pitch_bend_c, 12, 9600
5, 307920, Pitch_bend_c, 12, 9600
5, 308160, Pitch_bend_c, 12, 9600
5, 308160, Pitch_bend_c, 12, 8192
5, 308160, Note_off_c, 12, 71, 79
5, 308160, Pitch_bend_c, 12, 8192
5, 308160, Note_on_c, 12, 71, 79
5, 308181, Pitch_bend_c, 12, 8320
5, 308202, Pitch_bend_c, 12, 8448
5, 308223, Pitch_bend_c, 12, 8576
5, 308244, Pitch_bend_c, 12, 8704
5, 308265, Pitch_bend_c, 12, 8832
5, 308286, Pitch_bend_c, 12, 8960
5, 308307, Pitch_bend_c, 12, 9088
5, 308328, Pitch_bend_c, 12, 9216
5, 308349, Pitch_bend_c, 12, 9344
5, 308370, Pitch_bend_c, 12, 9472
5, 308391, Pitch_bend_c, 12, 9600
5, 308400, Pitch_bend_c, 12, 9600
5, 308640, Pitch_bend_c, 12, 9600
5, 308640, Pitch_bend_c, 12, 8192
5, 308640, Note_off_c, 12, 71, 79
5, 308640, Pitch_bend_c, 12, 8192
5, 308640, Note_on_c, 12, 71, 79
5, 308661, Pitch_bend_c, 12, 8320
5, 308682, Pitch_bend_c, 12, 8448
5, 308703, Pitch_bend_c, 12, 8576
5, 308724, Pitch_bend_c, 12, 8704
5, 308745, Pitch_bend_c, 12, 8832
5, 308766, Pitch_bend_c, 12, 8960
5, 308787, Pitch_bend_c, 12, 9088
5, 308808, Pitch_bend_c, 12, 9216
5, 308829, Pitch_bend_c, 12, 9344
5, 308850, Pitch_bend_c, 12, 9472
5, 308871, Pitch_bend_c, 12, 9600
5, 308880, Pitch_bend_c, 12, 9600
5, 309120, Pitch_bend_c, 12, 9600
5, 309120, Pitch_bend_c, 12, 8192
5, 309120, Note_off_c, 12, 71, 79
5, 309120, Note_on_c, 12, 71, 79
5, 309280, Pitch_bend_c, 12, 8192
5, 309440, Pitch_bend_c, 12, 8320
5, 309600, Pitch_bend_c, 12, 8192
5, 309600, Pitch_bend_c, 12, 8320
5, 309600, Pitch_bend_c, 12, 8192
5, 309600, Note_off_c, 12, 71, 79
5, 309600, Note_on_c, 12, 71, 79
5, 309760, Pitch_bend_c, 12, 8192
5, 309920, Pitch_bend_c, 12, 8320
5, 310080, Pitch_bend_c, 12, 8192
5, 310080, Pitch_bend_c, 12, 8320
5, 310080, Pitch_bend_c, 12, 8192
5, 310080, Note_off_c, 12, 71, 79
5, 310080, Pitch_bend_c, 12, 8192
5, 310080, Note_on_c, 12, 66, 79
5, 310085, Pitch_bend_c, 12, 8320
5, 310090, Pitch_bend_c, 12, 8448
5, 310095, Pitch_bend_c, 12, 8576
5, 310100, Pitch_bend_c, 12, 8704
5, 310105, Pitch_bend_c, 12, 8832
5, 310110, Pitch_bend_c, 12, 8960
5, 310115, Pitch_bend_c, 12, 9088
5, 310120, Pitch_bend_c, 12, 9216
5, 310125, Pitch_bend_c, 12, 9344
5, 310130, Pitch_bend_c, 12, 9472
5, 310135, Pitch_bend_c, 12, 9600
5, 310140, Pitch_bend_c, 12, 9600
5, 310200, Pitch_bend_c, 12, 9600
5, 310205, Pitch_bend_c, 12, 9472
5, 310210, Pitch_bend_c, 12, 9344
5, 310215, Pitch_bend_c, 12, 9216
5, 310220, Pitch_bend_c, 12, 9088
5, 310225, Pitch_bend_c, 12, 8960
5, 310230, Pitch_bend_c, 12, 8832
5, 310235, Pitch_bend_c, 12, 8704
5, 310240, Pitch_bend_c, 12, 8576
5, 310245, Pitch_bend_c, 12, 8448
5, 310250, Pitch_bend_c, 12, 8320
5, 310255, Pitch_bend_c, 12, 8192
5, 310260, Pitch_bend_c, 12, 8192
5, 310320, Pitch_bend_c, 12, 8192
5, 310320, Pitch_bend_c, 12, 8192
5, 310320, Note_off_c, 12, 66, 79
5, 310320, Note_on_c, 11, 66, 63
5, 310560, Note_off_c, 11, 66, 63
5, 310560, Note_on_c, 12, 64, 79
5, 310720, Pitch_bend_c, 12, 8192
5, 310880, Pitch_bend_c, 12, 8320
5, 311040, Pitch_bend_c, 12, 8192
5, 311040, Pitch_bend_c, 12, 8320
5, 311040, Pitch_bend_c, 12, 8192
5, 311040, Note_off_c, 12, 64, 79
5, 311040, Note_on_c, 12, 66, 79
5, 311200, Pitch_bend_c, 12, 8192
5, 311360, Pitch_bend_c, 12, 8320
5, 311520, Pitch_bend_c, 12, 8192
5, 311680, Pitch_bend_c, 12, 8320
5, 311840, Pitch_bend_c, 12, 8192
5, 312000, Pitch_bend_c, 12, 8320
5, 312000, Pitch_bend_c, 12, 8192
5, 312000, Note_off_c, 12, 66, 79
5, 312480, Pitch_bend_c, 12, 8192
5, 312480, Note_on_c, 12, 66, 79
5, 312525, Pitch_bend_c, 12, 8320
5, 312570, Pitch_bend_c, 12, 8448
5, 312615, Pitch_bend_c, 12, 8576
5, 312660, Pitch_bend_c, 12, 8704
5, 312705, Pitch_bend_c, 12, 8832
5, 312750, Pitch_bend_c, 12, 8960
5, 312795, Pitch_bend_c, 12, 9088
5, 312840, Pitch_bend_c, 12, 9216
5, 312885, Pitch_bend_c, 12, 9344
5, 312930, Pitch_bend_c, 12, 9472
5, 312975, Pitch_bend_c, 12, 9600
5, 313020, Pitch_bend_c, 12, 9728
5, 313065, Pitch_bend_c, 12, 9856
5, 313110, Pitch_bend_c, 12, 9984
5, 313155, Pitch_bend_c, 12, 10112
5, 313200, Pitch_bend_c, 12, 10240
5, 313200, Pitch_bend_c, 12, 10240
5, 313920, Pitch_bend_c, 12, 10240
5, 313920, Pitch_bend_c, 12, 8192
5, 313920, Note_off_c, 12, 66, 79
5, 313920, Pitch_bend_c, 12, 8192
5, 313920, Note_on_c, 12, 66, 79
5, 313925, Pitch_bend_c, 12, 8320
5, 313930, Pitch_bend_c, 12, 8448
5, 313935, Pitch_bend_c, 12, 8576
5, 313940, Pitch_bend_c, 12, 8704
5, 313945, Pitch_bend_c, 12, 8832
5, 313950, Pitch_bend_c, 12, 8960
5, 313955, Pitch_bend_c, 12, 9088
5, 313960, Pitch_bend_c, 12, 9216
5, 313965, Pitch_bend_c, 12, 9344
5, 313970, Pitch_bend_c, 12, 9472
5, 313975, Pitch_bend_c, 12, 9600
5, 313980, Pitch_bend_c, 12, 9600
5, 314040, Pitch_bend_c, 12, 9600
5, 314045, Pitch_bend_c, 12, 9472
5, 314050, Pitch_bend_c, 12, 9344
5, 314055, Pitch_bend_c, 12, 9216
5, 314060, Pitch_bend_c, 12, 9088
5, 314065, Pitch_bend_c, 12, 8960
5, 314070, Pitch_bend_c, 12, 8832
5, 314075, Pitch_bend_c, 12, 8704
5, 314080, Pitch_bend_c, 12, 8576
5, 314085, Pitch_bend_c, 12, 8448
5, 314090, Pitch_bend_c, 12, 8320
5, 314095, Pitch_bend_c, 12, 8192
5, 314100, Pitch_bend_c, 12, 8192
5, 314160, Pitch_bend_c, 12, 8192
5, 314160, Pitch_bend_c, 12, 8192
5, 314160, Note_off_c, 12, 66, 79
5, 314160, Note_on_c, 11, 66, 63
5, 314400, Note_off_c, 11, 66, 63
5, 314400, Note_on_c, 12, 64, 79
5, 314560, Pitch_bend_c, 12, 8192
5, 314720, Pitch_bend_c, 12, 8320
5, 314880, Pitch_bend_c, 12, 8192
5, 315040, Pitch_bend_c, 12, 8320
5, 315200, Pitch_bend_c, 12, 8192
5, 315360, Pitch_bend_c, 12, 8320
5, 315360, Pitch_bend_c, 12, 8192
5, 315360, Note_off_c, 12, 64, 79
5, 315360, Note_on_c, 11, 61, 79
5, 315840, Note_off_c, 11, 61, 79
5, 315840, Note_on_c, 11, 64, 79
5, 316320, Note_off_c, 11, 64, 79
5, 316320, Note_on_c, 11, 61, 79
5, 316560, Note_off_c, 11, 61, 79
5, 316560, Note_on_c, 11, 59, 54
5, 316800, Note_off_c, 11, 59, 54
5, 316800, Note_on_c, 11, 64, 79
5, 317040, Note_off_c, 11, 64, 79
5, 317040, Note_on_c, 11, 61, 79
5, 317280, Note_off_c, 11, 61, 79
5, 317280, Note_on_c, 11, 64, 79
5, 317760, Note_off_c, 11, 64, 79
5, 317760, Note_on_c, 12, 64, 79
5, 317920, Pitch_bend_c, 12, 8192
5, 318080, Pitch_bend_c, 12, 8320
5, 318240, Pitch_bend_c, 12, 8192
5, 318240, Pitch_bend_c, 12, 8320
5, 318240, Pitch_bend_c, 12, 8192
5, 318240, Note_off_c, 12, 64, 79
5, 318240, Note_on_c, 11, 66, 79
5, 318720, Note_off_c, 11, 66, 79
5, 319200, Pitch_bend_c, 12, 8192
5, 319200, Note_on_c, 12, 66, 63
5, 319224, Pitch_bend_c, 12, 8320
5, 319248, Pitch_bend_c, 12, 8448
5, 319272, Pitch_bend_c, 12, 8576
5, 319296, Pitch_bend_c, 12, 8704
5, 319320, Pitch_bend_c, 12, 8832
5, 319320, Pitch_bend_c, 12, 8832
5, 319440, Pitch_bend_c, 12, 8832
5, 319440, Pitch_bend_c, 12, 8192
5, 319440, Note_off_c, 12, 66, 63
5, 319440, Note_on_c, 11, 66, 63
5, 319680, Note_off_c, 11, 66, 63
5, 319680, Note_on_c, 11, 64, 63
5, 319920, Note_off_c, 11, 64, 63
5, 319920, Note_on_c, 11, 61, 63
5, 320160, Note_off_c, 11, 61, 63
5, 320160, Note_on_c, 11, 71, 63
5, 320400, Note_off_c, 11, 71, 63
5, 320400, Pitch_bend_c, 12, 8192
5, 320400, Note_on_c, 12, 66, 63
5, 320410, Pitch_bend_c, 12, 8320
5, 320420, Pitch_bend_c, 12, 8448
5, 320430, Pitch_bend_c, 12, 8576
5, 320440, Pitch_bend_c, 12, 8704
5, 320450, Pitch_bend_c, 12, 8832
5, 320460, Pitch_bend_c, 12, 8960
5, 320470, Pitch_bend_c, 12, 9088
5, 320480, Pitch_bend_c, 12, 9216
5, 320490, Pitch_bend_c, 12, 9344
5, 320500, Pitch_bend_c, 12, 9472
5, 320510, Pitch_bend_c, 12, 9600
5, 320520, Pitch_bend_c, 12, 9600
5, 320640, Pitch_bend_c, 12, 9600
5, 320640, Pitch_bend_c, 12, 8192
5, 320640, Note_off_c, 12, 66, 63
5, 320880, Note_on_c, 11, 64, 63
5, 321120, Note_off_c, 11, 64, 63
5, 321120, Note_on_c, 11, 66, 63
5, 321360, Note_off_c, 11, 66, 63
5, 321360, Note_on_c, 11, 61, 63
5, 321600, Note_off_c, 11, 61, 63
5, 321600, Note_on_c, 12, 64, 63
5, 321760, Pitch_bend_c, 12, 8192
5, 321920, Pitch_bend_c, 12, 8320
5, 322080, Pitch_bend_c, 12, 8192
5, 322080, Pitch_bend_c, 12, 8320
5, 322080, Pitch_bend_c, 12, 8192
5, 322080, Note_off_c, 12, 64, 63
5, 322080, Note_on_c, 11, 61, 63
5, 322320, Note_off_c, 11, 61, 63
5, 322320, Note_on_c, 11, 59, 63
5, 322560, Note_off_c, 11, 59, 63
5, 323040, Pitch_bend_c, 12, 8192
5, 323040, Note_on_c, 12, 71, 47
5, 323061, Pitch_bend_c, 12, 8320
5, 323082, Pitch_bend_c, 12, 8448
5, 323103, Pitch_bend_c, 12, 8576
5, 323124, Pitch_bend_c, 12, 8704
5, 323145, Pitch_bend_c, 12, 8832
5, 323166, Pitch_bend_c, 12, 8960
5, 323187, Pitch_bend_c, 12, 9088
5, 323208, Pitch_bend_c, 12, 9216
5, 323229, Pitch_bend_c, 12, 9344
5, 323250, Pitch_bend_c, 12, 9472
5, 323271, Pitch_bend_c, 12, 9600
5, 323280, Pitch_bend_c, 12, 9600
5, 323520, Pitch_bend_c, 12, 9600
5, 323520, Pitch_bend_c, 12, 8192
5, 323520, Note_off_c, 12, 71, 47
5, 323520, Pitch_bend_c, 12, 8192
5, 323520, Note_on_c, 12, 71, 47
5, 323541, Pitch_bend_c, 12, 8320
5, 323562, Pitch_bend_c, 12, 8448
5, 323583, Pitch_bend_c, 12, 8576
5, 323604, Pitch_bend_c, 12, 8704
5, 323625, Pitch_bend_c, 12, 8832
5, 323646, Pitch_bend_c, 12, 8960
5, 323667, Pitch_bend_c, 12, 9088
5, 323688, Pitch_bend_c, 12, 9216
5, 323709, Pitch_bend_c, 12, 9344
5, 323730, Pitch_bend_c, 12, 9472
5, 323751, Pitch_bend_c, 12, 9600
5, 323760, Pitch_bend_c, 12, 9600
5, 324000, Pitch_bend_c, 12, 9600
5, 324000, Pitch_bend_c, 12, 8192
5, 324000, Note_off_c, 12, 71, 47
5, 324000, Pitch_bend_c, 12, 8192
5, 324000, Note_on_c, 12, 71, 47
5, 324021, Pitch_bend_c, 12, 8320
5, 324042, Pitch_bend_c, 12, 8448
5, 324063, Pitch_bend_c, 12, 8576
5, 324084, Pitch_bend_c, 12, 8704
5, 324105, Pitch_bend_c, 12, 8832
5, 324126, Pitch_bend_c, 12, 8960
5, 324147, Pitch_bend_c, 12, 9088
5, 324168, Pitch_bend_c, 12, 9216
5, 324189, Pitch_bend_c, 12, 9344
5, 324210, Pitch_bend_c, 12, 9472
5, 324231, Pitch_bend_c, 12, 9600
5, 324240, Pitch_bend_c, 12, 9600
5, 324480, Pitch_bend_c, 12, 9600
5, 324480, Pitch_bend_c, 12, 8192
5, 324480, Note_off_c, 12, 71, 47
5, 324480, Note_on_c, 12, 71, 47
5, 324640, Pitch_bend_c, 12, 8192
5, 324800, Pitch_bend_c, 12, 8320
5, 324960, Pitch_bend_c, 12, 8192
5, 324960, Pitch_bend_c, 12, 8320
5, 324960, Pitch_bend_c, 12, 8192
5, 324960, Note_off_c, 12, 71, 47
5, 324960, Note_on_c, 12, 71, 47
5, 325120, Pitch_bend_c, 12, 8192
5, 325280, Pitch_bend_c, 12, 8320
5, 325440, Pitch_bend_c, 12, 8192
5, 325440, Pitch_bend_c, 12, 8320
5, 325440, Pitch_bend_c, 12, 8192
5, 325440, Note_off_c, 12, 71, 47
5, 325440, Pitch_bend_c, 12, 8192
5, 325440, Note_on_c, 12, 66, 47
5, 325445, Pitch_bend_c, 12, 8320
5, 325450, Pitch_bend_c, 12, 8448
5, 325455, Pitch_bend_c, 12, 8576
5, 325460, Pitch_bend_c, 12, 8704
5, 325465, Pitch_bend_c, 12, 8832
5, 325470, Pitch_bend_c, 12, 8960
5, 325475, Pitch_bend_c, 12, 9088
5, 325480, Pitch_bend_c, 12, 9216
5, 325485, Pitch_bend_c, 12, 9344
5, 325490, Pitch_bend_c, 12, 9472
5, 325495, Pitch_bend_c, 12, 9600
5, 325500, Pitch_bend_c, 12, 9600
5, 325560, Pitch_bend_c, 12, 9600
5, 325565, Pitch_bend_c, 12, 9472
5, 325570, Pitch_bend_c, 12, 9344
5, 325575, Pitch_bend_c, 12, 9216
5, 325580, Pitch_bend_c, 12, 9088
5, 325585, Pitch_bend_c, 12, 8960
5, 325590, Pitch_bend_c, 12, 8832
5, 325595, Pitch_bend_c, 12, 8704
5, 325600, Pitch_bend_c, 12, 8576
5, 325605, Pitch_bend_c, 12, 8448
5, 325610, Pitch_bend_c, 12, 8320
5, 325615, Pitch_bend_c, 12, 8192
5, 325620, Pitch_bend_c, 12, 8192
5, 325680, Pitch_bend_c, 12, 8192
5, 325680, Pitch_bend_c, 12, 8192
5, 325680, Note_off_c, 12, 66, 47
5, 325680, Note_on_c, 11, 66, 31
5, 325920, Note_off_c, 11, 66, 31
5, 325920, Note_on_c, 12, 64, 47
5, 326080, Pitch_bend_c, 12, 8192
5, 326240, Pitch_bend_c, 12, 8320
5, 326400, Pitch_bend_c, 12, 8192
5, 326400, Pitch_bend_c, 12, 8320
5, 326400, Pitch_bend_c, 12, 8192
5, 326400, Note_off_c, 12, 64, 47
5, 326400, Note_on_c, 12, 66, 31
5, 326560, Pitch_bend_c, 12, 8192
5, 326720, Pitch_bend_c, 12, 8320
5, 326880, Pitch_bend_c, 12, 8192
5, 327040, Pitch_bend_c, 12, 8320
5, 327200, Pitch_bend_c, 12, 8192
5, 327360, Pitch_bend_c, 12, 8320
5, 327360, Pitch_bend_c, 12, 8192
5, 327360, Note_off_c, 12, 66, 31
5, 327360, Note_on_c, 11, 64, 31
5, 327840, Note_off_c, 11, 64, 31
5, 327840, Pitch_bend_c, 12, 8192
5, 327840, Note_on_c, 12, 66, 31
5, 327885, Pitch_bend_c, 12, 8320
5, 327930, Pitch_bend_c, 12, 8448
5, 327975, Pitch_bend_c, 12, 8576
5, 328020, Pitch_bend_c, 12, 8704
5, 328065, Pitch_bend_c, 12, 8832
5, 328110, Pitch_bend_c, 12, 8960
5, 328155, Pitch_bend_c, 12, 9088
5, 328200, Pitch_bend_c, 12, 9216
5, 328245, Pitch_bend_c, 12, 9344
5, 328290, Pitch_bend_c, 12, 9472
5, 328335, Pitch_bend_c, 12, 9600
5, 328380, Pitch_bend_c, 12, 9728
5, 328425, Pitch_bend_c, 12, 9856
5, 328470, Pitch_bend_c, 12, 9984
5, 328515, Pitch_bend_c, 12, 10112
5, 328560, Pitch_bend_c, 12, 10240
5, 328560, Pitch_bend_c, 12, 10240
5, 329280, Pitch_bend_c, 12, 10240
5, 329280, Pitch_bend_c, 12, 8192
5, 329280, Note_off_c, 12, 66, 31
5, 329280, Pitch_bend_c, 12, 8192
5, 329280, Note_on_c, 12, 66, 31
5, 329295, Pitch_bend_c, 12, 8320
5, 329310, Pitch_bend_c, 12, 8448
5, 329325, Pitch_bend_c, 12, 8576
5, 329340, Pitch_bend_c, 12, 8704
5, 329355, Pitch_bend_c, 12, 8832
5, 329370, Pitch_bend_c, 12, 8960
5, 329385, Pitch_bend_c, 12, 9088
5, 329400, Pitch_bend_c, 12, 9216
5, 329415, Pitch_bend_c, 12, 9344
5, 329430, Pitch_bend_c, 12, 9472
5, 329445, Pitch_bend_c, 12, 9600
5, 329460, Pitch_bend_c, 12, 9728
5, 329475, Pitch_bend_c, 12, 9856
5, 329490, Pitch_bend_c, 12, 9984
5, 329505, Pitch_bend_c, 12, 10112
5, 329520, Pitch_bend_c, 12, 10240
5, 329520, Pitch_bend_c, 12, 10240
5, 329760, Pitch_bend_c, 12, 10240
5, 329760, Pitch_bend_c, 12, 8192
5, 329760, Note_off_c, 12, 66, 31
5, 329760, Note_on_c, 12, 64, 31
5, 329920, Pitch_bend_c, 12, 8192
5, 330080, Pitch_bend_c, 12, 8320
5, 330240, Pitch_bend_c, 12, 8192
5, 330400, Pitch_bend_c, 12, 8320
5, 330560, Pitch_bend_c, 12, 8192
5, 330720, Pitch_bend_c, 12, 8320
5, 330720, Pitch_bend_c, 12, 8192
5, 330720, Note_off_c, 12, 64, 31
5, 330720, Note_on_c, 11, 66, 15
5, 331200, Note_off_c, 11, 66, 15
5, 331200, Note_on_c, 12, 64, 15
5, 331360, Pitch_bend_c, 12, 8192
5, 331520, Pitch_bend_c, 12, 8320
5, 331680, Pitch_bend_c, 12, 8192
5, 331680, Pitch_bend_c, 12, 8320
5, 331680, Pitch_bend_c, 12, 8192
5, 331680, Note_off_c, 12, 64, 15
5, 331680, Note_on_c, 12, 64, 15
5, 331840, Pitch_bend_c, 12, 8192
5, 332000, Pitch_bend_c, 12, 8320
5, 332160, Pitch_bend_c, 12, 8192
5, 332160, Pitch_bend_c, 12, 8320
5, 332160, Pitch_bend_c, 12, 8192
5, 332160, Note_off_c, 12, 64, 15
5, 332640, Note_on_c, 11, 59, 15
5, 332880, Note_off_c, 11, 59, 15
5, 332880, Note_on_c, 11, 61, 15
5, 333120, Note_off_c, 11, 61, 15
5, 333120, Note_on_c, 12, 64, 15
5, 333280, Pitch_bend_c, 12, 8192
5, 333440, Pitch_bend_c, 12, 8320
5, 333600, Pitch_bend_c, 12, 8192
5, 333600, Pitch_bend_c, 12, 8320
5, 333600, Pitch_bend_c, 12, 8192
5, 333600, Note_off_c, 12, 64, 15
5, 333600, Note_on_c, 11, 61, 15
5, 334080, Note_off_c, 11, 61, 15
5, 334080, End_track
6, 0, Start_track
6, 0, Pitch_bend_c, 6, 8192
6, 0, Control_c, 6, 7, 95
6, 0, Control_c, 6, 10, 87
6, 0, Control_c, 6, 93, 0
6, 0, Control_c, 6, 91, 0
6, 0, Control_c, 6, 95, 0
6, 0, Control_c, 6, 92, 0
6, 0, Control_c, 6, 11, 127
6, 0, Program_c, 6, 24
6, 0, Control_c, 7, 7, 95
6, 0, Control_c, 7, 10, 87
6, 0, Control_c, 7, 93, 0
6, 0, Control_c, 7, 91, 0
6, 0, Control_c, 7, 95, 0
6, 0, Control_c, 7, 92, 0
6, 0, Control_c, 7, 11, 127
6, 0, Program_c, 7, 24
6, 57600, Note_on_c, 6, 40, 63
6, 58080, Note_off_c, 6, 40, 63
6, 58080, Note_on_c, 6, 47, 63
6, 58560, Note_off_c, 6, 47, 63
6, 58560, Note_on_c, 6, 52, 63
6, 59040, Note_off_c, 6, 52, 63
6, 59040, Note_on_c, 6, 56, 63
6, 59280, Note_off_c, 6, 56, 63
6, 59280, Note_on_c, 6, 57, 38
6, 59520, Note_off_c, 6, 57, 38
6, 59520, Note_on_c, 6, 56, 63
6, 60960, Note_off_c, 6, 56, 63
6, 60960, Note_on_c, 6, 52, 63
6, 61440, Note_off_c, 6, 52, 63
6, 61440, End_track
7, 0, Start_track
7, 0, Pitch_bend_c, 4, 8192
7, 0, Control_c, 4, 7, 79
7, 0, Control_c, 4, 10, 63
7, 0, Control_c, 4, 93, 0
7, 0, Control_c, 4, 91, 0
7, 0, Control_c, 4, 95, 0
7, 0, Control_c, 4, 92, 0
7, 0, Control_c, 4, 11, 127
7, 0, Program_c, 4, 85
7, 0, Control_c, 5, 7, 79
7, 0, Control_c, 5, 10, 63
7, 0, Control_c, 5, 93, 0
7, 0, Control_c, 5, 91, 0
7, 0, Control_c, 5, 95, 0
7, 0, Control_c, 5, 92, 0
7, 0, Control_c, 5, 11, 127
7, 0, Program_c, 5, 85
7, 960, Note_on_c, 4, 53, 47
7, 1440, Note_off_c, 4, 53, 47
7, 1440, Note_on_c, 4, 59, 47
7, 1920, Note_off_c, 4, 59, 47
7, 1920, Note_on_c, 4, 55, 47
7, 3360, Note_off_c, 4, 55, 47
7, 3360, Note_on_c, 4, 55, 47
7, 3600, Note_off_c, 4, 55, 47
7, 3600, Note_on_c, 4, 52, 47
7, 3840, Note_off_c, 4, 52, 47
7, 3840, Note_on_c, 4, 53, 47
7, 5280, Note_off_c, 4, 53, 47
7, 5280, Note_on_c, 4, 52, 47
7, 5760, Note_off_c, 4, 52, 47
7, 5760, Note_on_c, 4, 57, 47
7, 6720, Note_off_c, 4, 57, 47
7, 6720, Note_on_c, 4, 55, 47
7, 7200, Note_off_c, 4, 55, 47
7, 7200, Note_on_c, 4, 52, 47
7, 8640, Note_off_c, 4, 52, 47
7, 14400, Note_on_c, 4, 53, 47
7, 14880, Note_off_c, 4, 53, 47
7, 14880, Note_on_c, 4, 55, 47
7, 15360, Note_off_c, 4, 55, 47
7, 15360, Note_on_c, 4, 57, 47
7, 16800, Note_off_c, 4, 57, 47
7, 16800, Note_on_c, 4, 59, 47
7, 17040, Note_off_c, 4, 59, 47
7, 17040, Note_on_c, 4, 55, 47
7, 18720, Note_off_c, 4, 55, 47
7, 18720, Note_on_c, 4, 55, 47
7, 18960, Note_off_c, 4, 55, 47
7, 18960, Note_on_c, 4, 52, 47
7, 19200, Note_off_c, 4, 52, 47
7, 19200, Note_on_c, 4, 53, 47
7, 20640, Note_off_c, 4, 53, 47
7, 20640, Note_on_c, 4, 52, 47
7, 21120, Note_off_c, 4, 52, 47
7, 21120, Note_on_c, 4, 59, 47
7, 22080, Note_off_c, 4, 59, 47
7, 22080, Note_on_c, 4, 53, 47
7, 22560, Note_off_c, 4, 53, 47
7, 22560, Note_on_c, 4, 52, 47
7, 24000, Note_off_c, 4, 52, 47
7, 31680, Note_on_c, 4, 60, 63
7, 32160, Note_off_c, 4, 60, 63
7, 32160, Note_on_c, 4, 60, 63
7, 32640, Note_off_c, 4, 60, 63
7, 32640, Note_on_c, 4, 59, 63
7, 33120, Note_off_c, 4, 59, 63
7, 33120, Note_on_c, 4, 57, 63
7, 33600, Note_off_c, 4, 57, 63
7, 33600, Note_on_c, 4, 55, 63
7, 34080, Note_off_c, 4, 55, 63
7, 34080, Note_on_c, 4, 52, 63
7, 34560, Note_off_c, 4, 52, 63
7, 34560, Note_on_c, 4, 53, 63
7, 35040, Note_off_c, 4, 53, 63
7, 35040, Note_on_c, 4, 53, 63
7, 35520, Note_off_c, 4, 53, 63
7, 35520, Note_on_c, 4, 52, 63
7, 36000, Note_off_c, 4, 52, 63
7, 36000, Note_on_c, 4, 55, 63
7, 37440, Note_off_c, 4, 55, 63
7, 39360, Note_on_c, 4, 60, 63
7, 39360, Note_on_c, 4, 57, 63
7, 39600, Note_off_c, 4, 60, 63
7, 39600, Note_off_c, 4, 57, 63
7, 39600, Note_on_c, 4, 60, 63
7, 39600, Note_on_c, 4, 57, 63
7, 40080, Note_off_c, 4, 60, 63
7, 40080, Note_off_c, 4, 57, 63
7, 40080, Note_on_c, 4, 59, 63
7, 40080, Note_on_c, 4, 55, 63
7, 40560, Note_off_c, 4, 59, 63
7, 40560, Note_off_c, 4, 55, 63
7, 40560, Note_on_c, 4, 59, 63
7, 40560, Note_on_c, 4, 55, 63
7, 41040, Note_off_c, 4, 59, 63
7, 41040, Note_off_c, 4, 55, 63
7, 41040, Note_on_c, 4, 60, 63
7, 41040, Note_on_c, 4, 57, 63
7, 41520, Note_off_c, 4, 60, 63
7, 41520, Note_off_c, 4, 57, 63
7, 41520, Note_on_c, 4, 64, 63
7, 41520, Note_on_c, 4, 59, 63
7, 42000, Note_off_c, 4, 64, 63
7, 42000, Note_off_c, 4, 59, 63
7, 42000, Note_on_c, 4, 57, 63
7, 42000, Note_on_c, 4, 53, 63
7, 42720, Note_off_c, 4, 57, 63
7, 42720, Note_off_c, 4, 53, 63
7, 42720, Note_on_c, 4, 57, 63
7, 42720, Note_on_c, 4, 53, 63
7, 45120, Note_off_c, 4, 57, 63
7, 45120, Note_off_c, 4, 53, 63
7, 47040, Note_on_c, 4, 57, 63
7, 47520, Note_off_c, 4, 57, 63
7, 47520, Note_on_c, 4, 57, 63
7, 48000, Note_off_c, 4, 57, 63
7, 48000, Note_on_c, 4, 59, 63
7, 48480, Note_off_c, 4, 59, 63
7, 48480, Note_on_c, 4, 59, 63
7, 48960, Note_off_c, 4, 59, 63
7, 48960, Note_on_c, 4, 59, 63
7, 49200, Note_off_c, 4, 59, 63
7, 49200, Note_on_c, 4, 57, 63
7, 49440, Note_off_c, 4, 57, 63
7, 49440, Note_on_c, 4, 57, 63
7, 49680, Note_off_c, 4, 57, 63
7, 49680, Note_on_c, 4, 55, 63
7, 50880, Note_off_c, 4, 55, 63
7, 50880, Note_on_c, 4, 57, 63
7, 51360, Note_off_c, 4, 57, 63
7, 51360, Note_on_c, 4, 59, 63
7, 51600, Note_off_c, 4, 59, 63
7, 51600, Note_on_c, 4, 57, 63
7, 52800, Note_off_c, 4, 57, 63
7, 54720, Note_on_c, 4, 60, 63
7, 54720, Note_on_c, 4, 57, 63
7, 55200, Note_off_c, 4, 60, 63
7, 55200, Note_off_c, 4, 57, 63
7, 55200, Note_on_c, 4, 59, 63
7, 55200, Note_on_c, 4, 55, 63
7, 55440, Note_off_c, 4, 59, 63
7, 55440, Note_off_c, 4, 55, 63
7, 55440, Note_on_c, 4, 57, 63
7, 55440, Note_on_c, 4, 53, 63
7, 55920, Note_off_c, 4, 57, 63
7, 55920, Note_off_c, 4, 53, 63
7, 55920, Note_on_c, 4, 57, 63
7, 55920, Note_on_c, 4, 53, 63
7, 56640, Note_off_c, 4, 57, 63
7, 56640, Note_off_c, 4, 53, 63
7, 56640, Note_on_c, 4, 59, 63
7, 56640, Note_on_c, 4, 55, 63
7, 56880, Note_off_c, 4, 59, 63
7, 56880, Note_off_c, 4, 55, 63
7, 56880, Note_on_c, 4, 57, 63
7, 56880, Note_on_c, 4, 53, 63
7, 57120, Note_off_c, 4, 57, 63
7, 57120, Note_off_c, 4, 53, 63
7, 57120, Note_on_c, 4, 55, 63
7, 57120, Note_on_c, 4, 52, 63
7, 57360, Note_off_c, 4, 55, 63
7, 57360, Note_off_c, 4, 52, 63
7, 57360, Note_on_c, 4, 55, 63
7, 57360, Note_on_c, 4, 52, 63
7, 59520, Note_off_c, 4, 55, 63
7, 59520, Note_off_c, 4, 52, 63
7, 62400, Note_on_c, 4, 60, 63
7, 62880, Note_off_c, 4, 60, 63
7, 62880, Note_on_c, 4, 60, 63
7, 63360, Note_off_c, 4, 60, 63
7, 63360, Note_on_c, 4, 59, 63
7, 63840, Note_off_c, 4, 59, 63
7, 63840, Note_on_c, 4, 59, 63
7, 64320, Note_off_c, 4, 59, 63
7, 64320, Note_on_c, 4, 55, 63
7, 64560, Note_off_c, 4, 55, 63
7, 64560, Note_on_c, 4, 53, 63
7, 64800, Note_off_c, 4, 53, 63
7, 64800, Note_on_c, 4, 52, 63
7, 65040, Note_off_c, 4, 52, 63
7, 65040, Note_on_c, 4, 53, 63
7, 65760, Note_off_c, 4, 53, 63
7, 65760, Note_on_c, 4, 55, 63
7, 67200, Note_off_c, 4, 55, 63
7, 70080, Note_on_c, 4, 60, 63
7, 70080, Note_on_c, 4, 57, 63
7, 70320, Note_off_c, 4, 60, 63
7, 70320, Note_off_c, 4, 57, 63
7, 70320, Note_on_c, 4, 60, 63
7, 70320, Note_on_c, 4, 57, 63
7, 70800, Note_off_c, 4, 60, 63
7, 70800, Note_off_c, 4, 57, 63
7, 70800, Note_on_c, 4, 59, 63
7, 70800, Note_on_c, 4, 55, 63
7, 71520, Note_off_c, 4, 59, 63
7, 71520, Note_off_c, 4, 55, 63
7, 71520, Note_on_c, 4, 59, 63
7, 71520, Note_on_c, 4, 55, 63
7, 72000, Note_off_c, 4, 59, 63
7, 72000, Note_off_c, 4, 55, 63
7, 72000, Note_on_c, 4, 60, 63
7, 72000, Note_on_c, 4, 57, 63
7, 72240, Note_off_c, 4, 60, 63
7, 72240, Note_off_c, 4, 57, 63
7, 72240, Note_on_c, 4, 64, 63
7, 72240, Note_on_c, 4, 59, 63
7, 72720, Note_off_c, 4, 64, 63
7, 72720, Note_off_c, 4, 59, 63
7, 72720, Note_on_c, 4, 57, 63
7, 72720, Note_on_c, 4, 53, 63
7, 74880, Note_off_c, 4, 57, 63
7, 74880, Note_off_c, 4, 53, 63
7, 77520, Note_on_c, 4, 52, 63
7, 77760, Note_off_c, 4, 52, 63
7, 77760, Note_on_c, 4, 53, 63
7, 78000, Note_off_c, 4, 53, 63
7, 78000, Note_on_c, 4, 57, 63
7, 78480, Note_off_c, 4, 57, 63
7, 78480, Note_on_c, 4, 57, 63
7, 78720, Note_off_c, 4, 57, 63
7, 78720, Note_on_c, 4, 59, 63
7, 80160, Note_off_c, 4, 59, 63
7, 80160, Note_on_c, 4, 57, 63
7, 80640, Note_off_c, 4, 57, 63
7, 80640, Note_on_c, 4, 55, 63
7, 81120, Note_off_c, 4, 55, 63
7, 81120, Note_on_c, 4, 57, 63
7, 81600, Note_off_c, 4, 57, 63
7, 81600, Note_on_c, 4, 59, 63
7, 82080, Note_off_c, 4, 59, 63
7, 82080, Note_on_c, 4, 57, 63
7, 83520, Note_off_c, 4, 57, 63
7, 85440, Note_on_c, 4, 60, 63
7, 85440, Note_on_c, 4, 57, 63
7, 85920, Note_off_c, 4, 60, 63
7, 85920, Note_off_c, 4, 57, 63
7, 85920, Note_on_c, 4, 59, 63
7, 85920, Note_on_c, 4, 55, 63
7, 86400, Note_off_c, 4, 59, 63
7, 86400, Note_off_c, 4, 55, 63
7, 86400, Note_on_c, 4, 57, 63
7, 86400, Note_on_c, 4, 53, 63
7, 86880, Note_off_c, 4, 57, 63
7, 86880, Note_off_c, 4, 53, 63
7, 86880, Note_on_c, 4, 57, 63
7, 86880, Note_on_c, 4, 53, 63
7, 87120, Note_off_c, 4, 57, 63
7, 87120, Note_off_c, 4, 53, 63
7, 87120, Note_on_c, 4, 59, 63
7, 87120, Note_on_c, 4, 55, 63
7, 87240, Note_off_c, 4, 59, 63
7, 87240, Note_off_c, 4, 55, 63
7, 87240, Note_on_c, 4, 57, 63
7, 87240, Note_on_c, 4, 53, 63
7, 87360, Note_off_c, 4, 57, 63
7, 87360, Note_off_c, 4, 53, 63
7, 87360, Note_on_c, 4, 55, 63
7, 87360, Note_on_c, 4, 52, 63
7, 87840, Note_off_c, 4, 55, 63
7, 87840, Note_off_c, 4, 52, 63
7, 87840, Note_on_c, 4, 55, 63
7, 87840, Note_on_c, 4, 52, 63
7, 88080, Note_off_c, 4, 55, 63
7, 88080, Note_off_c, 4, 52, 63
7, 88080, Note_on_c, 4, 55, 63
7, 88080, Note_on_c, 4, 52, 63
7, 90240, Note_off_c, 4, 55, 63
7, 90240, Note_off_c, 4, 52, 63
7, 91200, Note_on_c, 4, 53, 63
7, 91680, Note_off_c, 4, 53, 63
7, 91680, Note_on_c, 4, 59, 63
7, 91680, Note_on_c, 4, 55, 63
7, 92160, Note_off_c, 4, 59, 63
7, 92160, Note_off_c, 4, 55, 63
7, 92160, Note_on_c, 4, 60, 63
7, 92160, Note_on_c, 4, 57, 63
7, 93600, Note_off_c, 4, 60, 63
7, 93600, Note_off_c, 4, 57, 63
7, 93600, Note_on_c, 4, 60, 63
7, 93600, Note_on_c, 4, 57, 63
7, 94080, Note_off_c, 4, 60, 63
7, 94080, Note_off_c, 4, 57, 63
7, 94080, Note_on_c, 4, 59, 63
7, 94080, Note_on_c, 4, 55, 63
7, 95520, Note_off_c, 4, 59, 63
7, 95520, Note_off_c, 4, 55, 63
7, 95520, Note_on_c, 4, 59, 63
7, 95520, Note_on_c, 4, 55, 63
7, 95760, Note_off_c, 4, 59, 63
7, 95760, Note_off_c, 4, 55, 63
7, 95760, Note_on_c, 4, 57, 63
7, 95760, Note_on_c, 4, 52, 63
7, 96000, Note_off_c, 4, 57, 63
7, 96000, Note_off_c, 4, 52, 63
7, 96000, Note_on_c, 4, 57, 63
7, 96000, Note_on_c, 4, 53, 63
7, 97440, Note_off_c, 4, 57, 63
7, 97440, Note_off_c, 4, 53, 63
7, 97440, Note_on_c, 4, 55, 63
7, 97440, Note_on_c, 4, 52, 63
7, 97920, Note_off_c, 4, 55, 63
7, 97920, Note_off_c, 4, 52, 63
7, 97920, Note_on_c, 4, 57, 63
7, 98880, Note_off_c, 4, 57, 63
7, 98880, Note_on_c, 4, 55, 63
7, 99360, Note_off_c, 4, 55, 63
7, 99360, Note_on_c, 4, 57, 63
7, 99360, Note_on_c, 4, 52, 63
7, 100800, Note_off_c, 4, 57, 63
7, 100800, Note_off_c, 4, 52, 63
7, 106560, Note_on_c, 4, 57, 63
7, 106560, Note_on_c, 4, 53, 63
7, 107040, Note_off_c, 4, 57, 63
7, 107040, Note_off_c, 4, 53, 63
7, 107040, Note_on_c, 4, 59, 63
7, 107040, Note_on_c, 4, 55, 63
7, 107520, Note_off_c, 4, 59, 63
7, 107520, Note_off_c, 4, 55, 63
7, 107520, Note_on_c, 4, 60, 63
7, 107520, Note_on_c, 4, 57, 63
7, 108960, Note_off_c, 4, 60, 63
7, 108960, Note_off_c, 4, 57, 63
7, 108960, Note_on_c, 4, 64, 63
7, 108960, Note_on_c, 4, 59, 63
7, 109440, Note_off_c, 4, 64, 63
7, 109440, Note_off_c, 4, 59, 63
7, 109440, Note_on_c, 4, 59, 63
7, 109440, Note_on_c, 4, 55, 63
7, 110880, Note_off_c, 4, 59, 63
7, 110880, Note_off_c, 4, 55, 63
7, 110880, Note_on_c, 4, 59, 63
7, 110880, Note_on_c, 4, 55, 63
7, 111120, Note_off_c, 4, 59, 63
7, 111120, Note_off_c, 4, 55, 63
7, 111120, Note_on_c, 4, 57, 63
7, 111120, Note_on_c, 4, 52, 63
7, 111360, Note_off_c, 4, 57, 63
7, 111360, Note_off_c, 4, 52, 63
7, 111360, Note_on_c, 4, 57, 63
7, 111360, Note_on_c, 4, 53, 63
7, 112800, Note_off_c, 4, 57, 63
7, 112800, Note_off_c, 4, 53, 63
7, 112800, Note_on_c, 4, 55, 63
7, 112800, Note_on_c, 4, 52, 63
7, 113280, Note_off_c, 4, 55, 63
7, 113280, Note_off_c, 4, 52, 63
7, 113280, Note_on_c, 4, 57, 63
7, 114240, Note_off_c, 4, 57, 63
7, 114240, Note_on_c, 4, 57, 63
7, 114720, Note_off_c, 4, 57, 63
7, 114720, Note_on_c, 4, 57, 63
7, 114720, Note_on_c, 4, 52, 63
7, 116160, Note_off_c, 4, 57, 63
7, 116160, Note_off_c, 4, 52, 63
7, 123840, Note_on_c, 4, 60, 63
7, 124800, Note_off_c, 4, 60, 63
7, 124800, Note_on_c, 4, 59, 63
7, 125760, Note_off_c, 4, 59, 63
7, 125760, Note_on_c, 4, 55, 63
7, 126000, Note_off_c, 4, 55, 63
7, 126000, Note_on_c, 4, 53, 63
7, 126240, Note_off_c, 4, 53, 63
7, 126240, Note_on_c, 4, 52, 63
7, 126720, Note_off_c, 4, 52, 63
7, 126720, Note_on_c, 4, 53, 63
7, 127680, Note_off_c, 4, 53, 63
7, 127680, Note_on_c, 4, 52, 63
7, 128160, Note_off_c, 4, 52, 63
7, 128160, Note_on_c, 4, 55, 63
7, 129600, Note_off_c, 4, 55, 63
7, 131520, Note_on_c, 4, 57, 63
7, 132000, Note_off_c, 4, 57, 63
7, 132000, Note_on_c, 4, 57, 63
7, 132240, Note_off_c, 4, 57, 63
7, 132240, Note_on_c, 4, 55, 63
7, 132960, Note_off_c, 4, 55, 63
7, 132960, Note_on_c, 4, 55, 63
7, 133440, Note_off_c, 4, 55, 63
7, 133440, Note_on_c, 4, 57, 63
7, 133920, Note_off_c, 4, 57, 63
7, 133920, Note_on_c, 4, 59, 63
7, 134160, Note_off_c, 4, 59, 63
7, 134160, Note_on_c, 4, 55, 63
7, 135360, Note_off_c, 4, 55, 63
7, 138720, Note_on_c, 4, 57, 63
7, 139200, Note_off_c, 4, 57, 63
7, 139200, Note_on_c, 4, 57, 63
7, 139920, Note_off_c, 4, 57, 63
7, 139920, Note_on_c, 4, 59, 63
7, 141600, Note_off_c, 4, 59, 63
7, 141600, Note_on_c, 4, 57, 63
7, 142080, Note_off_c, 4, 57, 63
7, 142080, Note_on_c, 4, 55, 63
7, 143520, Note_off_c, 4, 55, 63
7, 143520, Note_on_c, 4, 57, 63
7, 145920, Note_off_c, 4, 57, 63
7, 146880, Note_on_c, 4, 57, 63
7, 147360, Note_off_c, 4, 57, 63
7, 147360, Note_on_c, 4, 55, 63
7, 147600, Note_off_c, 4, 55, 63
7, 147600, Note_on_c, 4, 53, 63
7, 148800, Note_off_c, 4, 53, 63
7, 148800, Note_on_c, 4, 53, 63
7, 149280, Note_off_c, 4, 53, 63
7, 149280, Note_on_c, 4, 50, 63
7, 149520, Note_off_c, 4, 50, 63
7, 149520, Note_on_c, 4, 52, 63
7, 151680, Note_off_c, 4, 52, 63
7, 154080, Note_on_c, 4, 60, 63
7, 154560, Note_off_c, 4, 60, 63
7, 154560, Note_on_c, 4, 60, 63
7, 155040, Note_off_c, 4, 60, 63
7, 155040, Note_on_c, 4, 60, 63
7, 155520, Note_off_c, 4, 60, 63
7, 155520, Note_on_c, 4, 59, 63
7, 156000, Note_off_c, 4, 59, 63
7, 156000, Note_on_c, 4, 57, 63
7, 156240, Note_off_c, 4, 57, 63
7, 156240, Note_on_c, 4, 55, 63
7, 156960, Note_off_c, 4, 55, 63
7, 156960, Note_on_c, 4, 52, 63
7, 157440, Note_off_c, 4, 52, 63
7, 157440, Note_on_c, 4, 53, 63
7, 158400, Note_off_c, 4, 53, 63
7, 158400, Note_on_c, 4, 52, 63
7, 158880, Note_off_c, 4, 52, 63
7, 158880, Note_on_c, 4, 55, 63
7, 160320, Note_off_c, 4, 55, 63
7, 162240, Note_on_c, 4, 60, 63
7, 162240, Note_on_c, 4, 57, 63
7, 162720, Note_off_c, 4, 60, 63
7, 162720, Note_off_c, 4, 57, 63
7, 162720, Note_on_c, 4, 60, 63
7, 162720, Note_on_c, 4, 57, 63
7, 163200, Note_off_c, 4, 60, 63
7, 163200, Note_off_c, 4, 57, 63
7, 163200, Note_on_c, 4, 59, 63
7, 163200, Note_on_c, 4, 55, 63
7, 163680, Note_off_c, 4, 59, 63
7, 163680, Note_off_c, 4, 55, 63
7, 163680, Note_on_c, 4, 59, 63
7, 163680, Note_on_c, 4, 55, 63
7, 164160, Note_off_c, 4, 59, 63
7, 164160, Note_off_c, 4, 55, 63
7, 164160, Note_on_c, 4, 60, 63
7, 164160, Note_on_c, 4, 57, 63
7, 164640, Note_off_c, 4, 60, 63
7, 164640, Note_off_c, 4, 57, 63
7, 164640, Note_on_c, 4, 64, 63
7, 164640, Note_on_c, 4, 59, 63
7, 164880, Note_off_c, 4, 64, 63
7, 164880, Note_off_c, 4, 59, 63
7, 164880, Note_on_c, 4, 57, 63
7, 164880, Note_on_c, 4, 53, 63
7, 167040, Note_off_c, 4, 57, 63
7, 167040, Note_off_c, 4, 53, 63
7, 169440, Note_on_c, 4, 57, 63
7, 169920, Note_off_c, 4, 57, 63
7, 169920, Note_on_c, 4, 57, 63
7, 170400, Note_off_c, 4, 57, 63
7, 170400, Note_on_c, 4, 57, 63
7, 170880, Note_off_c, 4, 57, 63
7, 170880, Note_on_c, 4, 59, 63
7, 171120, Note_off_c, 4, 59, 63
7, 171120, Note_on_c, 4, 59, 63
7, 171840, Note_off_c, 4, 59, 63
7, 171840, Note_on_c, 4, 62, 63
7, 171840, Note_on_c, 4, 59, 63
7, 172080, Note_off_c, 4, 62, 63
7, 172080, Note_off_c, 4, 59, 63
7, 172080, Note_on_c, 4, 60, 63
7, 172080, Note_on_c, 4, 57, 63
7, 172320, Note_off_c, 4, 60, 63
7, 172320, Note_off_c, 4, 57, 63
7, 172320, Note_on_c, 4, 59, 63
7, 172320, Note_on_c, 4, 55, 63
7, 173760, Note_off_c, 4, 59, 63
7, 173760, Note_off_c, 4, 55, 63
7, 173760, Note_on_c, 4, 59, 63
7, 173760, Note_on_c, 4, 55, 63
7, 174240, Note_off_c, 4, 59, 63
7, 174240, Note_off_c, 4, 55, 63
7, 174240, Note_on_c, 4, 60, 63
7, 174240, Note_on_c, 4, 57, 63
7, 174720, Note_off_c, 4, 60, 63
7, 174720, Note_off_c, 4, 57, 63
7, 177600, Note_on_c, 4, 60, 63
7, 177600, Note_on_c, 4, 57, 63
7, 177840, Note_off_c, 4, 60, 63
7, 177840, Note_off_c, 4, 57, 63
7, 177840, Note_on_c, 4, 59, 63
7, 177840, Note_on_c, 4, 55, 63
7, 178560, Note_off_c, 4, 59, 63
7, 178560, Note_off_c, 4, 55, 63
7, 178560, Note_on_c, 4, 57, 63
7, 178560, Note_on_c, 4, 53, 63
7, 179040, Note_off_c, 4, 57, 63
7, 179040, Note_off_c, 4, 53, 63
7, 179040, Note_on_c, 4, 57, 63
7, 179040, Note_on_c, 4, 53, 63
7, 179280, Note_off_c, 4, 57, 63
7, 179280, Note_off_c, 4, 53, 63
7, 179280, Note_on_c, 4, 59, 63
7, 179280, Note_on_c, 4, 55, 63
7, 180000, Note_off_c, 4, 59, 63
7, 180000, Note_off_c, 4, 55, 63
7, 180000, Note_on_c, 4, 55, 63
7, 180000, Note_on_c, 4, 52, 63
7, 180480, Note_off_c, 4, 55, 63
7, 180480, Note_off_c, 4, 52, 63
7, 180480, Note_on_c, 4, 55, 63
7, 180480, Note_on_c, 4, 52, 63
7, 182400, Note_off_c, 4, 55, 63
7, 182400, Note_off_c, 4, 52, 63
7, 183360, Note_on_c, 4, 53, 63
7, 183840, Note_off_c, 4, 53, 63
7, 183840, Note_on_c, 4, 59, 63
7, 183840, Note_on_c, 4, 55, 63
7, 184320, Note_off_c, 4, 59, 63
7, 184320, Note_off_c, 4, 55, 63
7, 184320, Note_on_c, 4, 60, 63
7, 184320, Note_on_c, 4, 57, 63
7, 185760, Note_off_c, 4, 60, 63
7, 185760, Note_off_c, 4, 57, 63
7, 185760, Note_on_c, 4, 60, 63
7, 185760, Note_on_c, 4, 57, 63
7, 186240, Note_off_c, 4, 60, 63
7, 186240, Note_off_c, 4, 57, 63
7, 186240, Note_on_c, 4, 59, 63
7, 186240, Note_on_c, 4, 55, 63
7, 187680, Note_off_c, 4, 59, 63
7, 187680, Note_off_c, 4, 55, 63
7, 187680, Note_on_c, 4, 59, 63
7, 187680, Note_on_c, 4, 55, 63
7, 187920, Note_off_c, 4, 59, 63
7, 187920, Note_off_c, 4, 55, 63
7, 187920, Note_on_c, 4, 57, 63
7, 187920, Note_on_c, 4, 52, 63
7, 188160, Note_off_c, 4, 57, 63
7, 188160, Note_off_c, 4, 52, 63
7, 188160, Note_on_c, 4, 57, 63
7, 188160, Note_on_c, 4, 53, 63
7, 189600, Note_off_c, 4, 57, 63
7, 189600, Note_off_c, 4, 53, 63
7, 189600, Note_on_c, 4, 55, 63
7, 189600, Note_on_c, 4, 52, 63
7, 190080, Note_off_c, 4, 55, 63
7, 190080, Note_off_c, 4, 52, 63
7, 190080, Note_on_c, 4, 57, 63
7, 191040, Note_off_c, 4, 57, 63
7, 191040, Note_on_c, 4, 55, 63
7, 191520, Note_off_c, 4, 55, 63
7, 191520, Note_on_c, 4, 57, 63
7, 191520, Note_on_c, 4, 52, 63
7, 192960, Note_off_c, 4, 57, 63
7, 192960, Note_off_c, 4, 52, 63
7, 198720, Note_on_c, 4, 57, 63
7, 198720, Note_on_c, 4, 53, 63
7, 199200, Note_off_c, 4, 57, 63
7, 199200, Note_off_c, 4, 53, 63
7, 199200, Note_on_c, 4, 59, 63
7, 199200, Note_on_c, 4, 55, 63
7, 199680, Note_off_c, 4, 59, 63
7, 199680, Note_off_c, 4, 55, 63
7, 199680, Note_on_c, 4, 60, 63
7, 199680, Note_on_c, 4, 57, 63
7, 201120, Note_off_c, 4, 60, 63
7, 201120, Note_off_c, 4, 57, 63
7, 201120, Note_on_c, 4, 64, 63
7, 201120, Note_on_c, 4, 59, 63
7, 201600, Note_off_c, 4, 64, 63
7, 201600, Note_off_c, 4, 59, 63
7, 201600, Note_on_c, 4, 59, 63
7, 201600, Note_on_c, 4, 55, 63
7, 203040, Note_off_c, 4, 59, 63
7, 203040, Note_off_c, 4, 55, 63
7, 203040, Note_on_c, 4, 59, 63
7, 203040, Note_on_c, 4, 55, 63
7, 203280, Note_off_c, 4, 59, 63
7, 203280, Note_off_c, 4, 55, 63
7, 203280, Note_on_c, 4, 57, 63
7, 203280, Note_on_c, 4, 52, 63
7, 203520, Note_off_c, 4, 57, 63
7, 203520, Note_off_c, 4, 52, 63
7, 203520, Note_on_c, 4, 57, 63
7, 203520, Note_on_c, 4, 53, 63
7, 204960, Note_off_c, 4, 57, 63
7, 204960, Note_off_c, 4, 53, 63
7, 204960, Note_on_c, 4, 55, 63
7, 204960, Note_on_c, 4, 52, 63
7, 205440, Note_off_c, 4, 55, 63
7, 205440, Note_off_c, 4, 52, 63
7, 205440, Note_on_c, 4, 57, 63
7, 206400, Note_off_c, 4, 57, 63
7, 206400, Note_on_c, 4, 57, 63
7, 206880, Note_off_c, 4, 57, 63
7, 206880, Note_on_c, 4, 57, 63
7, 206880, Note_on_c, 4, 52, 63
7, 208320, Note_off_c, 4, 57, 63
7, 208320, Note_off_c, 4, 52, 63
7, 214080, Note_on_c, 4, 57, 63
7, 214080, Note_on_c, 4, 53, 63
7, 214560, Note_off_c, 4, 57, 63
7, 214560, Note_off_c, 4, 53, 63
7, 214560, Note_on_c, 4, 59, 63
7, 214560, Note_on_c, 4, 55, 63
7, 215040, Note_off_c, 4, 59, 63
7, 215040, Note_off_c, 4, 55, 63
7, 215040, Note_on_c, 4, 60, 63
7, 215040, Note_on_c, 4, 57, 63
7, 216480, Note_off_c, 4, 60, 63
7, 216480, Note_off_c, 4, 57, 63
7, 216480, Note_on_c, 4, 64, 63
7, 216480, Note_on_c, 4, 59, 63
7, 216720, Note_off_c, 4, 64, 63
7, 216720, Note_off_c, 4, 59, 63
7, 216720, Note_on_c, 4, 59, 63
7, 216720, Note_on_c, 4, 55, 63
7, 218400, Note_off_c, 4, 59, 63
7, 218400, Note_off_c, 4, 55, 63
7, 218400, Note_on_c, 4, 60, 63
7, 218400, Note_on_c, 4, 55, 63
7, 218640, Note_off_c, 4, 60, 63
7, 218640, Note_off_c, 4, 55, 63
7, 218640, Note_on_c, 4, 55, 63
7, 218640, Note_on_c, 4, 52, 63
7, 218880, Note_off_c, 4, 55, 63
7, 218880, Note_off_c, 4, 52, 63
7, 218880, Note_on_c, 4, 57, 63
7, 218880, Note_on_c, 4, 53, 63
7, 220320, Note_off_c, 4, 57, 63
7, 220320, Note_off_c, 4, 53, 63
7, 220320, Note_on_c, 4, 55, 63
7, 220320, Note_on_c, 4, 52, 63
7, 220800, Note_off_c, 4, 55, 63
7, 220800, Note_off_c, 4, 52, 63
7, 220800, Note_on_c, 4, 57, 63
7, 221760, Note_off_c, 4, 57, 63
7, 221760, Note_on_c, 4, 57, 63
7, 222240, Note_off_c, 4, 57, 63
7, 222240, Note_on_c, 4, 57, 63
7, 222240, Note_on_c, 4, 52, 63
7, 222720, Note_off_c, 4, 57, 63
7, 223680, Note_off_c, 4, 52, 63
7, 229200, Note_on_c, 4, 52, 63
7, 229440, Note_off_c, 4, 52, 63
7, 229440, Note_on_c, 4, 57, 63
7, 229440, Note_on_c, 4, 53, 63
7, 229920, Note_off_c, 4, 57, 63
7, 229920, Note_off_c, 4, 53, 63
7, 229920, Note_on_c, 4, 59, 63
7, 229920, Note_on_c, 4, 55, 63
7, 230160, Note_off_c, 4, 59, 63
7, 230160, Note_off_c, 4, 55, 63
7, 230160, Note_on_c, 4, 60, 63
7, 230160, Note_on_c, 4, 57, 63
7, 231840, Note_off_c, 4, 60, 63
7, 231840, Note_off_c, 4, 57, 63
7, 231840, Note_on_c, 4, 64, 63
7, 231840, Note_on_c, 4, 59, 63
7, 232080, Note_off_c, 4, 64, 63
7, 232080, Note_off_c, 4, 59, 63
7, 232080, Note_on_c, 4, 59, 63
7, 232080, Note_on_c, 4, 55, 63
7, 233760, Note_off_c, 4, 59, 63
7, 233760, Note_off_c, 4, 55, 63
7, 233760, Note_on_c, 4, 64, 63
7, 233760, Note_on_c, 4, 55, 63
7, 234000, Note_off_c, 4, 64, 63
7, 234000, Note_off_c, 4, 55, 63
7, 234000, Note_on_c, 4, 57, 63
7, 234000, Note_on_c, 4, 52, 63
7, 234240, Note_off_c, 4, 57, 63
7, 234240, Note_off_c, 4, 52, 63
7, 234240, Note_on_c, 4, 57, 63
7, 234240, Note_on_c, 4, 53, 63
7, 235680, Note_off_c, 4, 57, 63
7, 235680, Note_off_c, 4, 53, 63
7, 235680, Note_on_c, 4, 55, 63
7, 235680, Note_on_c, 4, 52, 63
7, 236160, Note_off_c, 4, 55, 63
7, 236160, Note_off_c, 4, 52, 63
7, 236160, Note_on_c, 4, 57, 63
7, 237600, Note_off_c, 4, 57, 63
7, 237600, Note_on_c, 4, 55, 63
7, 237600, Note_on_c, 4, 52, 63
7, 239040, Note_off_c, 4, 55, 63
7, 239040, Note_off_c, 4, 52, 63
7, 244800, Note_on_c, 4, 53, 63
7, 245280, Note_off_c, 4, 53, 63
7, 245280, Note_on_c, 4, 55, 63
7, 245760, Note_off_c, 4, 55, 63
7, 245760, Note_on_c, 4, 57, 63
7, 247200, Note_off_c, 4, 57, 63
7, 247200, Note_on_c, 4, 59, 63
7, 247440, Note_off_c, 4, 59, 63
7, 247440, Note_on_c, 4, 55, 63
7, 249120, Note_off_c, 4, 55, 63
7, 249120, Note_on_c, 4, 55, 63
7, 249360, Note_off_c, 4, 55, 63
7, 249360, Note_on_c, 4, 52, 63
7, 249600, Note_off_c, 4, 52, 63
7, 249600, Note_on_c, 4, 53, 63
7, 251040, Note_off_c, 4, 53, 63
7, 251040, Note_on_c, 4, 52, 63
7, 251520, Note_off_c, 4, 52, 63
7, 251520, Note_on_c, 4, 57, 63
7, 252480, Note_off_c, 4, 57, 63
7, 252480, Note_on_c, 4, 53, 63
7, 252960, Note_off_c, 4, 53, 63
7, 252960, Note_on_c, 4, 52, 63
7, 254400, Note_off_c, 4, 52, 63
7, 260160, Note_on_c, 4, 57, 63
7, 260160, Note_on_c, 4, 53, 63
7, 260640, Note_off_c, 4, 57, 63
7, 260640, Note_off_c, 4, 53, 63
7, 260640, Note_on_c, 4, 59, 63
7, 260640, Note_on_c, 4, 55, 63
7, 261120, Note_off_c, 4, 59, 63
7, 261120, Note_off_c, 4, 55, 63
7, 261120, Note_on_c, 4, 60, 63
7, 261120, Note_on_c, 4, 57, 63
7, 262560, Note_off_c, 4, 60, 63
7, 262560, Note_off_c, 4, 57, 63
7, 262560, Note_on_c, 4, 64, 63
7, 262560, Note_on_c, 4, 59, 63
7, 262800, Note_off_c, 4, 64, 63
7, 262800, Note_off_c, 4, 59, 63
7, 262800, Note_on_c, 4, 59, 63
7, 262800, Note_on_c, 4, 55, 63
7, 264480, Note_off_c, 4, 59, 63
7, 264480, Note_off_c, 4, 55, 63
7, 264480, Note_on_c, 4, 64, 63
7, 264480, Note_on_c, 4, 55, 63
7, 264720, Note_off_c, 4, 55, 63
7, 264720, Note_on_c, 4, 52, 63
7, 264960, Note_off_c, 4, 64, 63
7, 264960, Note_off_c, 4, 52, 63
7, 264960, Note_on_c, 4, 57, 63
7, 264960, Note_on_c, 4, 53, 63
7, 266400, Note_off_c, 4, 57, 63
7, 266400, Note_off_c, 4, 53, 63
7, 266400, Note_on_c, 4, 55, 63
7, 266400, Note_on_c, 4, 52, 63
7, 266880, Note_off_c, 4, 55, 63
7, 266880, Note_off_c, 4, 52, 63
7, 266880, Note_on_c, 4, 57, 63
7, 267840, Note_off_c, 4, 57, 63
7, 267840, Note_on_c, 4, 55, 63
7, 268320, Note_off_c, 4, 55, 63
7, 268320, Note_on_c, 4, 57, 63
7, 268320, Note_on_c, 4, 52, 63
7, 269760, Note_off_c, 4, 57, 63
7, 269760, Note_off_c, 4, 52, 63
7, 269760, End_track
0, 0, End_of_file
