0, 0, Header, 0, 1, 96
1, 0, Start_track
1, 0, Title_t, "TOO MUCH                        ;Lee Rosenberg / Bernard Weinman"
1, 0, Copyright_t, "(C) 1994 Tune 1000 Corporation  ;Elvis Presley Music (BMI). Int'l Rights Secured."
1, 0, Time_signature, 4, 2, 24, 8
1, 0, Tempo, 508475
1, 0, Key_signature, -4, "major"
1, 0, System_exclusive, 5, 126, 127, 9, 1, 247
1, 0, Text_t, "Back Vocal"
1, 0, Lyric_t, "ALL rights reserved. Not for broadcast or "
1, 0, Lyric_t, "\015"
1, 0, Lyric_t, "transmission of any kind. "
1, 0, Lyric_t, "\015"
1, 0, Lyric_t, "DO NOT DUPLICATE. NOT FOR RENTAL. "
1, 0, Lyric_t, "\015"
1, 98, Program_c, 0, 0
1, 99, Control_c, 0, 7, 105
1, 99, Control_c, 0, 10, 75
1, 99, Control_c, 0, 11, 127
1, 100, Control_c, 0, 91, 40
1, 100, Control_c, 0, 93, 0
1, 103, Program_c, 1, 32
1, 104, Control_c, 1, 7, 105
1, 104, Control_c, 1, 10, 60
1, 104, Control_c, 1, 11, 127
1, 105, Control_c, 1, 91, 10
1, 105, Control_c, 1, 93, 0
1, 108, Program_c, 2, 28
1, 109, Control_c, 2, 7, 100
1, 109, Control_c, 2, 10, 46
1, 109, Control_c, 2, 11, 127
1, 110, Control_c, 2, 91, 35
1, 110, Control_c, 2, 93, 20
1, 113, Program_c, 3, 58
1, 114, Control_c, 3, 7, 100
1, 114, Control_c, 3, 10, 64
1, 114, Control_c, 3, 11, 127
1, 115, Control_c, 3, 91, 50
1, 115, Control_c, 3, 93, 0
1, 118, Program_c, 4, 73
1, 119, Control_c, 4, 7, 80
1, 119, Control_c, 4, 10, 51
1, 119, Control_c, 4, 11, 127
1, 120, Control_c, 4, 91, 49
1, 120, Control_c, 4, 93, 0
1, 123, Program_c, 5, 73
1, 124, Control_c, 5, 7, 100
1, 124, Control_c, 5, 10, 73
1, 124, Control_c, 5, 11, 127
1, 125, Control_c, 5, 91, 50
1, 125, Control_c, 5, 93, 0
1, 128, Program_c, 6, 67
1, 129, Control_c, 6, 7, 100
1, 129, Control_c, 6, 10, 35
1, 129, Control_c, 6, 11, 127
1, 130, Control_c, 6, 91, 40
1, 130, Control_c, 6, 93, 20
1, 134, Control_c, 9, 7, 105
1, 134, Control_c, 9, 11, 127
1, 135, Control_c, 9, 91, 45
1, 135, Control_c, 9, 93, 0
1, 384, Time_signature, 4, 2, 24, 8
1, 384, Note_on_c, 9, 46, 93
1, 384, Note_on_c, 9, 36, 87
1, 384, Note_on_c, 1, 39, 104
1, 384, Note_on_c, 0, 99, 101
1, 384, Note_on_c, 0, 87, 89
1, 385, Note_off_c, 9, 36, 64
1, 385, Note_off_c, 9, 46, 64
1, 385, Control_c, 9, 1, 0
1, 385, Pitch_bend_c, 9, 8192
1, 385, Control_c, 1, 1, 0
1, 385, Pitch_bend_c, 1, 8192
1, 385, Control_c, 0, 1, 0
1, 385, Pitch_bend_c, 0, 8192
1, 385, Note_on_c, 0, 39, 85
1, 385, Note_on_c, 0, 46, 77
1, 385, Note_on_c, 2, 51, 120
1, 386, Control_c, 2, 1, 0
1, 386, Pitch_bend_c, 2, 8192
1, 415, Note_off_c, 2, 51, 64
1, 421, Note_off_c, 0, 39, 64
1, 423, Note_off_c, 0, 46, 64
1, 423, Note_off_c, 0, 99, 64
1, 424, Note_off_c, 0, 87, 64
1, 442, Note_on_c, 0, 46, 57
1, 443, Note_on_c, 0, 39, 77
1, 447, Note_on_c, 2, 51, 109
1, 452, Note_on_c, 0, 99, 109
1, 453, Note_on_c, 0, 87, 87
1, 458, Note_off_c, 0, 46, 64
1, 460, Note_off_c, 0, 39, 64
1, 463, Note_off_c, 1, 39, 64
1, 470, Note_off_c, 0, 99, 64
1, 470, Note_off_c, 0, 87, 64
1, 470, Note_off_c, 2, 51, 64
1, 479, Note_on_c, 1, 43, 110
1, 479, Note_on_c, 0, 39, 83
1, 480, Note_on_c, 9, 40, 110
1, 481, Note_off_c, 9, 40, 64
1, 481, Note_on_c, 9, 46, 85
1, 481, Note_on_c, 0, 48, 97
1, 481, Note_on_c, 2, 60, 109
1, 482, Note_off_c, 9, 46, 64
1, 515, Note_off_c, 0, 39, 64
1, 520, Note_off_c, 2, 60, 64
1, 524, Note_off_c, 0, 48, 64
1, 539, Note_on_c, 0, 48, 75
1, 542, Note_on_c, 0, 39, 80
1, 543, Note_on_c, 2, 60, 104
1, 544, Note_on_c, 9, 36, 68
1, 545, Note_off_c, 9, 36, 64
1, 545, Note_on_c, 9, 46, 77
1, 546, Note_off_c, 9, 46, 64
1, 555, Note_off_c, 1, 43, 64
1, 560, Note_off_c, 0, 48, 64
1, 568, Note_off_c, 2, 60, 64
1, 569, Note_on_c, 0, 46, 63
1, 575, Note_on_c, 1, 46, 99
1, 576, Note_on_c, 9, 36, 100
1, 577, Note_off_c, 9, 36, 64
1, 577, Note_on_c, 9, 46, 97
1, 577, Note_on_c, 2, 58, 111
1, 578, Note_off_c, 9, 46, 64
1, 581, Note_on_c, 0, 99, 83
1, 581, Note_on_c, 0, 87, 83
1, 598, Note_off_c, 0, 39, 64
1, 601, Note_off_c, 0, 87, 64
1, 609, Note_off_c, 0, 99, 64
1, 609, Note_off_c, 0, 46, 64
1, 611, Note_off_c, 2, 58, 64
1, 638, Note_on_c, 0, 39, 88
1, 639, Note_on_c, 2, 58, 91
1, 640, Note_on_c, 0, 46, 56
1, 652, Note_off_c, 0, 46, 64
1, 655, Note_off_c, 0, 39, 64
1, 661, Note_off_c, 1, 46, 64
1, 661, Note_off_c, 2, 58, 64
1, 671, Note_on_c, 1, 48, 103
1, 671, Note_on_c, 0, 99, 81
1, 672, Note_on_c, 9, 40, 114
1, 673, Note_off_c, 9, 40, 64
1, 673, Note_on_c, 9, 46, 82
1, 673, Note_on_c, 0, 87, 76
1, 673, Note_on_c, 2, 60, 111
1, 674, Note_off_c, 9, 46, 64
1, 674, Note_on_c, 0, 39, 103
1, 674, Note_on_c, 0, 48, 105
1, 694, Note_off_c, 0, 87, 64
1, 694, Note_off_c, 0, 99, 64
1, 708, Note_off_c, 0, 39, 64
1, 710, Note_off_c, 0, 48, 64
1, 719, Note_off_c, 2, 60, 64
1, 731, Note_on_c, 0, 39, 91
1, 733, Note_on_c, 0, 48, 69
1, 736, Note_on_c, 9, 46, 77
1, 736, Note_on_c, 2, 58, 94
1, 737, Note_off_c, 9, 46, 64
1, 739, Note_on_c, 0, 99, 83
1, 739, Note_on_c, 0, 87, 85
1, 745, Note_off_c, 0, 48, 64
1, 745, Note_off_c, 0, 39, 64
1, 749, Note_off_c, 0, 99, 64
1, 749, Note_off_c, 0, 87, 64
1, 753, Note_off_c, 1, 48, 64
1, 762, Note_off_c, 2, 58, 64
1, 767, Note_on_c, 0, 44, 60
1, 768, Note_on_c, 9, 46, 97
1, 768, Note_on_c, 9, 36, 97
1, 768, Note_on_c, 1, 37, 110
1, 769, Note_off_c, 9, 36, 64
1, 769, Note_off_c, 9, 46, 64
1, 769, Note_on_c, 2, 49, 119
1, 771, Note_on_c, 0, 92, 94
1, 771, Note_on_c, 0, 85, 87
1, 771, Note_on_c, 0, 89, 101
1, 771, Note_on_c, 0, 37, 81
1, 779, Note_off_c, 0, 89, 64
1, 779, Note_off_c, 0, 85, 64
1, 779, Note_off_c, 0, 92, 64
1, 801, Note_on_c, 0, 92, 58
1, 801, Note_on_c, 0, 85, 54
1, 801, Note_off_c, 2, 49, 64
1, 802, Note_off_c, 0, 44, 64
1, 803, Note_on_c, 0, 89, 70
1, 809, Note_off_c, 0, 37, 64
1, 813, Note_off_c, 0, 89, 64
1, 813, Note_off_c, 0, 92, 64
1, 814, Note_off_c, 0, 85, 64
1, 829, Note_on_c, 0, 44, 76
1, 831, Note_on_c, 0, 37, 91
1, 832, Note_on_c, 0, 92, 76
1, 833, Note_on_c, 2, 49, 108
1, 834, Note_on_c, 0, 89, 78
1, 836, Note_on_c, 0, 85, 57
1, 841, Note_off_c, 0, 85, 64
1, 841, Note_off_c, 0, 92, 64
1, 841, Note_off_c, 0, 89, 64
1, 844, Note_off_c, 0, 37, 64
1, 846, Note_off_c, 0, 44, 64
1, 851, Note_off_c, 2, 49, 64
1, 855, Note_off_c, 1, 37, 64
1, 863, Note_on_c, 1, 41, 95
1, 864, Note_on_c, 9, 40, 115
1, 864, Note_on_c, 0, 37, 99
1, 864, Note_on_c, 0, 46, 105
1, 865, Note_off_c, 9, 40, 64
1, 865, Note_on_c, 9, 46, 78
1, 865, Note_on_c, 2, 58, 116
1, 866, Note_off_c, 9, 46, 64
1, 867, Note_on_c, 0, 85, 88
1, 867, Note_on_c, 0, 92, 95
1, 867, Note_on_c, 0, 89, 101
1, 879, Note_off_c, 0, 92, 64
1, 880, Note_off_c, 0, 85, 64
1, 880, Note_off_c, 0, 89, 64
1, 898, Note_off_c, 2, 58, 64
1, 899, Note_on_c, 0, 85, 72
1, 899, Note_on_c, 0, 92, 80
1, 901, Note_on_c, 0, 89, 94
1, 909, Note_off_c, 0, 89, 64
1, 910, Note_off_c, 0, 92, 64
1, 911, Note_off_c, 0, 37, 64
1, 912, Note_off_c, 0, 85, 64
1, 912, Note_off_c, 0, 46, 64
1, 926, Note_on_c, 0, 46, 69
1, 927, Note_on_c, 9, 46, 63
1, 927, Note_on_c, 2, 58, 104
1, 928, Note_off_c, 9, 46, 64
1, 928, Note_on_c, 0, 37, 88
1, 932, Note_on_c, 0, 85, 57
1, 932, Note_on_c, 0, 92, 63
1, 934, Note_on_c, 0, 89, 66
1, 939, Note_off_c, 0, 89, 64
1, 939, Note_off_c, 0, 92, 64
1, 941, Note_off_c, 1, 41, 64
1, 941, Note_off_c, 0, 85, 64
1, 946, Note_off_c, 0, 46, 64
1, 949, Note_off_c, 0, 37, 64
1, 954, Note_off_c, 2, 58, 64
1, 958, Note_on_c, 0, 44, 69
1, 959, Note_on_c, 9, 46, 99
1, 959, Note_on_c, 1, 44, 95
1, 960, Note_off_c, 9, 46, 64
1, 960, Note_on_c, 9, 36, 100
1, 961, Note_off_c, 9, 36, 64
1, 961, Note_on_c, 0, 92, 73
1, 961, Note_on_c, 2, 56, 112
1, 963, Note_on_c, 0, 85, 59
1, 963, Note_on_c, 0, 89, 79
1, 966, Note_on_c, 0, 37, 80
1, 972, Note_off_c, 0, 89, 64
1, 974, Note_off_c, 0, 85, 64
1, 974, Note_off_c, 0, 92, 64
1, 995, Note_on_c, 0, 85, 64
1, 995, Note_on_c, 0, 92, 66
1, 995, Note_on_c, 0, 89, 76
1, 997, Note_off_c, 2, 56, 64
1, 1003, Note_off_c, 0, 44, 64
1, 1003, Note_off_c, 0, 37, 64
1, 1005, Note_off_c, 0, 92, 64
1, 1005, Note_off_c, 0, 89, 64
1, 1008, Note_off_c, 0, 85, 64
1, 1023, Note_on_c, 2, 56, 102
1, 1025, Note_on_c, 0, 44, 71
1, 1027, Note_on_c, 0, 37, 84
1, 1028, Note_on_c, 0, 92, 75
1, 1028, Note_on_c, 0, 85, 68
1, 1031, Note_on_c, 0, 89, 76
1, 1036, Note_off_c, 0, 92, 64
1, 1037, Note_off_c, 0, 89, 64
1, 1038, Note_off_c, 0, 85, 64
1, 1040, Note_off_c, 1, 44, 64
1, 1042, Note_off_c, 0, 44, 64
1, 1046, Note_off_c, 0, 37, 64
1, 1048, Note_off_c, 2, 56, 64
1, 1055, Note_on_c, 1, 46, 97
1, 1056, Note_on_c, 9, 40, 114
1, 1056, Note_on_c, 2, 58, 111
1, 1057, Note_off_c, 9, 40, 64
1, 1057, Note_on_c, 9, 46, 82
1, 1057, Note_on_c, 0, 37, 94
1, 1057, Note_on_c, 0, 46, 97
1, 1058, Note_off_c, 9, 46, 64
1, 1063, Note_on_c, 0, 85, 91
1, 1063, Note_on_c, 0, 89, 103
1, 1063, Note_on_c, 0, 92, 103
1, 1075, Note_off_c, 0, 92, 64
1, 1076, Note_off_c, 0, 85, 64
1, 1076, Note_off_c, 0, 89, 64
1, 1081, Note_off_c, 0, 46, 64
1, 1095, Note_on_c, 0, 85, 73
1, 1095, Note_on_c, 0, 92, 82
1, 1095, Note_on_c, 0, 89, 95
1, 1104, Note_off_c, 2, 58, 64
1, 1105, Note_off_c, 0, 89, 64
1, 1105, Note_off_c, 0, 92, 64
1, 1105, Note_off_c, 0, 85, 64
1, 1109, Note_off_c, 0, 37, 64
1, 1118, Note_on_c, 0, 46, 54
1, 1119, Note_on_c, 2, 56, 107
1, 1120, Note_on_c, 9, 36, 68
1, 1120, Note_on_c, 0, 85, 68
1, 1120, Note_on_c, 0, 89, 68
1, 1121, Note_off_c, 9, 36, 64
1, 1121, Note_on_c, 9, 46, 84
1, 1122, Note_off_c, 9, 46, 64
1, 1123, Note_off_c, 0, 89, 64
1, 1123, Note_off_c, 0, 85, 64
1, 1125, Note_off_c, 0, 46, 64
1, 1125, Note_on_c, 0, 92, 68
1, 1127, Note_off_c, 1, 46, 64
1, 1128, Note_off_c, 0, 92, 64
1, 1142, Note_off_c, 2, 56, 64
1, 1152, Note_on_c, 9, 46, 97
1, 1152, Note_on_c, 9, 36, 102
1, 1152, Note_on_c, 1, 32, 113
1, 1152, Note_on_c, 0, 51, 97
1, 1152, Note_on_c, 0, 44, 87
1, 1153, Note_off_c, 9, 36, 64
1, 1153, Note_off_c, 9, 46, 64
1, 1153, Note_on_c, 2, 44, 123
1, 1160, Note_on_c, 0, 63, 94
1, 1160, Note_on_c, 0, 75, 88
1, 1162, Note_on_c, 0, 68, 95
1, 1162, Note_on_c, 0, 80, 85
1, 1180, Note_off_c, 2, 44, 64
1, 1192, Note_off_c, 0, 80, 64
1, 1195, Note_off_c, 0, 44, 64
1, 1197, Note_off_c, 0, 51, 64
1, 1203, Note_off_c, 0, 68, 64
1, 1208, Note_off_c, 0, 75, 64
1, 1209, Note_off_c, 0, 63, 64
1, 1212, Note_on_c, 0, 44, 75
1, 1214, Note_on_c, 0, 51, 75
1, 1217, Note_on_c, 2, 44, 104
1, 1231, Note_off_c, 0, 51, 64
1, 1233, Note_off_c, 1, 32, 64
1, 1235, Note_off_c, 0, 44, 64
1, 1239, Note_off_c, 2, 44, 64
1, 1247, Note_on_c, 1, 36, 100
1, 1248, Note_on_c, 9, 40, 112
1, 1248, Note_on_c, 0, 53, 100
1, 1249, Note_off_c, 9, 40, 64
1, 1249, Note_on_c, 9, 46, 81
1, 1249, Note_on_c, 2, 53, 110
1, 1250, Note_off_c, 9, 46, 64
1, 1251, Note_on_c, 0, 44, 105
1, 1284, Note_off_c, 2, 53, 64
1, 1291, Note_off_c, 0, 44, 64
1, 1296, Note_off_c, 0, 53, 64
1, 1310, Note_on_c, 0, 53, 80
1, 1310, Note_on_c, 0, 44, 83
1, 1311, Note_on_c, 9, 46, 73
1, 1311, Note_on_c, 2, 53, 102
1, 1312, Note_off_c, 9, 46, 64
1, 1312, Note_on_c, 0, 68, 107
1, 1312, Note_on_c, 0, 75, 94
1, 1312, Note_on_c, 0, 80, 99
1, 1317, Note_on_c, 0, 63, 99
1, 1323, Note_off_c, 1, 36, 64
1, 1329, Note_off_c, 0, 53, 64
1, 1331, Note_off_c, 0, 44, 64
1, 1332, Note_off_c, 0, 68, 64
1, 1334, Note_off_c, 0, 75, 64
1, 1337, Note_off_c, 0, 80, 64
1, 1339, Note_off_c, 0, 63, 64
1, 1339, Note_off_c, 2, 53, 64
1, 1343, Note_on_c, 9, 46, 99
1, 1343, Note_on_c, 1, 39, 105
1, 1343, Note_on_c, 0, 51, 91
1, 1344, Note_off_c, 9, 46, 64
1, 1344, Note_on_c, 9, 36, 102
1, 1344, Note_on_c, 0, 68, 63
1, 1344, Note_on_c, 0, 75, 63
1, 1344, Note_on_c, 0, 80, 63
1, 1345, Note_off_c, 9, 36, 64
1, 1345, Note_on_c, 2, 51, 118
1, 1347, Note_on_c, 0, 44, 81
1, 1375, Note_off_c, 0, 80, 64
1, 1375, Note_off_c, 0, 75, 64
1, 1375, Note_off_c, 0, 68, 64
1, 1377, Note_off_c, 2, 51, 64
1, 1385, Note_off_c, 0, 44, 64
1, 1387, Note_off_c, 0, 51, 64
1, 1405, Note_on_c, 0, 51, 71
1, 1407, Note_on_c, 2, 51, 102
1, 1408, Note_on_c, 9, 40, 104
1, 1408, Note_on_c, 0, 44, 77
1, 1409, Note_off_c, 9, 40, 64
1, 1415, Lyric_t, "\012"
1, 1415, Note_on_c, 0, 80, 94
1, 1415, Note_on_c, 0, 75, 99
1, 1416, Note_on_c, 0, 68, 101
1, 1416, Note_on_c, 0, 63, 82
1, 1419, Note_off_c, 1, 39, 64
1, 1423, Note_off_c, 0, 51, 64
1, 1425, Note_off_c, 0, 44, 64
1, 1430, Note_off_c, 2, 51, 64
1, 1431, Note_off_c, 0, 80, 64
1, 1433, Note_off_c, 0, 68, 64
1, 1435, Note_off_c, 0, 63, 64
1, 1435, Note_off_c, 0, 75, 64
1, 1439, Note_on_c, 1, 41, 101
1, 1439, Note_on_c, 0, 53, 102
1, 1439, Note_on_c, 0, 44, 85
1, 1439, Note_on_c, 2, 53, 118
1, 1440, Note_on_c, 9, 40, 117
1, 1440, Note_on_c, 9, 46, 93
1, 1441, Note_off_c, 9, 46, 64
1, 1441, Note_off_c, 9, 40, 64
1, 1472, Note_off_c, 0, 44, 64
1, 1473, Note_off_c, 0, 53, 64
1, 1482, Note_off_c, 2, 53, 64
1, 1490, Note_on_c, 0, 53, 68
1, 1495, Note_on_c, 0, 44, 59
1, 1503, Note_off_c, 0, 44, 64
1, 1504, Note_on_c, 2, 51, 107
1, 1506, Note_off_c, 0, 53, 64
1, 1519, Note_off_c, 1, 41, 64
1, 1524, Note_off_c, 2, 51, 64
1, 1534, Note_on_c, 0, 51, 117
1, 1534, Note_on_c, 0, 44, 105
1, 1535, Note_on_c, 1, 44, 113
1, 1535, Note_on_c, 2, 44, 123
1, 1536, Note_on_c, 9, 40, 110
1, 1536, Note_on_c, 9, 49, 86
1, 1536, Note_on_c, 9, 36, 102
1, 1537, Note_off_c, 9, 36, 64
1, 1537, Note_off_c, 9, 49, 64
1, 1537, Note_off_c, 9, 40, 64
1, 1540, Note_on_c, 0, 63, 94
1, 1540, Note_on_c, 0, 68, 117
1, 1540, Note_on_c, 0, 75, 105
1, 1540, Note_on_c, 0, 80, 99
1, 1563, Note_off_c, 0, 80, 64
1, 1565, Note_off_c, 0, 51, 64
1, 1566, Note_off_c, 0, 68, 64
1, 1567, Note_off_c, 0, 44, 64
1, 1575, Note_off_c, 0, 75, 64
1, 1577, Note_off_c, 0, 63, 64
1, 1587, Note_off_c, 1, 44, 64
1, 1588, Note_off_c, 2, 44, 64
1, 1602, Note_on_c, 9, 40, 55
1, 1603, Note_off_c, 9, 40, 64
1, 1613, Note_on_c, 9, 40, 67
1, 1614, Note_off_c, 9, 40, 64
1, 1632, Note_on_c, 9, 40, 88
1, 1633, Note_off_c, 9, 40, 64
1, 1695, Note_on_c, 9, 49, 78
1, 1695, Note_on_c, 1, 44, 110
1, 1695, Note_on_c, 0, 51, 120
1, 1695, Note_on_c, 0, 44, 111
1, 1696, Note_off_c, 9, 49, 64
1, 1696, Note_on_c, 9, 40, 116
1, 1696, Note_on_c, 9, 36, 102
1, 1696, Note_on_c, 2, 44, 126
1, 1697, Note_off_c, 9, 36, 64
1, 1697, Note_off_c, 9, 40, 64
1, 1739, Note_off_c, 2, 44, 64
1, 1740, Note_off_c, 0, 51, 64
1, 1742, Note_off_c, 1, 44, 64
1, 1746, Note_off_c, 0, 44, 64
1, 1792, Lyric_t, "Well, "
1, 1792, Note_on_c, 3, 72, 110
1, 1792, Note_on_c, 9, 40, 78
1, 1793, Control_c, 3, 1, 0
1, 1793, Pitch_bend_c, 3, 8192
1, 1793, Note_off_c, 9, 40, 64
1, 1824, Note_on_c, 9, 40, 112
1, 1825, Note_off_c, 9, 40, 64
1, 1825, Note_on_c, 1, 39, 107
1, 1897, Note_off_c, 1, 39, 64
1, 1906, Note_off_c, 3, 72, 64
1, 1918, Lyric_t, "hon"
1, 1918, Note_on_c, 3, 71, 104
1, 1920, Note_on_c, 9, 46, 93
1, 1920, Note_on_c, 9, 36, 102
1, 1920, Note_on_c, 1, 44, 114
1, 1920, Note_on_c, 0, 51, 83
1, 1921, Note_off_c, 9, 36, 64
1, 1921, Note_off_c, 9, 46, 64
1, 1921, Note_on_c, 0, 44, 81
1, 1921, Note_on_c, 2, 44, 123
1, 1948, Note_off_c, 2, 44, 64
1, 1967, Note_off_c, 0, 44, 64
1, 1967, Note_off_c, 0, 51, 64
1, 1972, Note_off_c, 3, 71, 64
1, 1982, Lyric_t, "ey, "
1, 1982, Note_on_c, 3, 72, 107
1, 1983, Note_on_c, 0, 51, 81
1, 1983, Note_on_c, 0, 44, 88
1, 1985, Note_on_c, 2, 44, 104
1, 1991, Note_off_c, 1, 44, 64
1, 2001, Note_off_c, 0, 51, 64
1, 2006, Note_off_c, 0, 44, 64
1, 2007, Note_off_c, 2, 44, 64
1, 2009, Note_off_c, 3, 72, 64
1, 2015, Note_on_c, 1, 41, 100
1, 2015, Note_on_c, 0, 44, 74
1, 2016, Note_on_c, 9, 40, 110
1, 2017, Note_off_c, 9, 40, 64
1, 2017, Note_on_c, 9, 46, 85
1, 2017, Note_on_c, 0, 53, 96
1, 2017, Note_on_c, 2, 53, 110
1, 2018, Note_off_c, 9, 46, 64
1, 2019, Lyric_t, "I "
1, 2019, Note_on_c, 3, 71, 96
1, 2052, Note_off_c, 2, 53, 64
1, 2056, Note_off_c, 0, 44, 64
1, 2061, Note_off_c, 0, 53, 64
1, 2066, Note_off_c, 3, 71, 64
1, 2076, Note_on_c, 3, 72, 104
1, 2079, Note_on_c, 2, 53, 102
1, 2080, Note_on_c, 0, 44, 91
1, 2080, Note_on_c, 0, 53, 86
1, 2092, Note_off_c, 1, 41, 64
1, 2097, Note_off_c, 0, 53, 64
1, 2101, Note_off_c, 0, 44, 64
1, 2103, Note_off_c, 3, 72, 64
1, 2107, Note_off_c, 2, 53, 64
1, 2112, Lyric_t, "love "
1, 2112, Note_on_c, 3, 68, 102
1, 2112, Note_on_c, 9, 36, 102
1, 2112, Note_on_c, 1, 39, 107
1, 2112, Note_on_c, 0, 51, 83
1, 2113, Note_off_c, 9, 36, 64
1, 2113, Note_on_c, 9, 46, 97
1, 2113, Note_on_c, 0, 44, 92
1, 2113, Note_on_c, 2, 51, 118
1, 2114, Note_off_c, 9, 46, 64
1, 2145, Note_off_c, 2, 51, 64
1, 2158, Note_off_c, 0, 44, 64
1, 2161, Note_off_c, 0, 51, 64
1, 2175, Note_on_c, 0, 51, 78
1, 2175, Note_on_c, 2, 51, 102
1, 2177, Note_on_c, 0, 44, 89
1, 2187, Note_off_c, 1, 39, 64
1, 2191, Note_off_c, 0, 44, 64
1, 2194, Note_off_c, 0, 51, 64
1, 2198, Note_off_c, 3, 68, 64
1, 2198, Note_off_c, 2, 51, 64
1, 2207, Note_on_c, 1, 41, 102
1, 2207, Note_on_c, 0, 53, 97
1, 2207, Note_on_c, 0, 44, 91
1, 2207, Note_on_c, 2, 53, 118
1, 2208, Note_on_c, 9, 40, 114
1, 2209, Note_off_c, 9, 40, 64
1, 2209, Note_on_c, 9, 46, 82
1, 2210, Lyric_t, "you "
1, 2210, Note_on_c, 3, 65, 100
1, 2210, Note_off_c, 9, 46, 64
1, 2250, Note_off_c, 0, 44, 64
1, 2250, Note_off_c, 2, 53, 64
1, 2253, Note_off_c, 0, 53, 64
1, 2256, Note_off_c, 3, 65, 64
1, 2271, Note_on_c, 0, 53, 88
1, 2271, Note_on_c, 0, 44, 89
1, 2272, Note_on_c, 6, 39, 113
1, 2272, Note_on_c, 9, 46, 77
1, 2272, Note_on_c, 2, 51, 107
1, 2273, Control_c, 6, 1, 0
1, 2273, Pitch_bend_c, 6, 8192
1, 2273, Note_off_c, 9, 46, 64
1, 2284, Note_off_c, 1, 41, 64
1, 2291, Note_off_c, 0, 44, 64
1, 2291, Note_off_c, 0, 53, 64
1, 2292, Note_off_c, 2, 51, 64
1, 2303, Note_on_c, 1, 44, 111
1, 2303, Note_on_c, 0, 51, 91
1, 2304, Note_on_c, 9, 46, 97
1, 2304, Note_on_c, 9, 36, 102
1, 2305, Note_off_c, 9, 36, 64
1, 2305, Note_off_c, 9, 46, 64
1, 2305, Note_on_c, 0, 44, 87
1, 2305, Note_on_c, 2, 44, 123
1, 2307, Note_off_c, 6, 39, 64
1, 2307, Note_on_c, 6, 32, 70
1, 2332, Note_off_c, 2, 44, 64
1, 2342, Note_off_c, 0, 44, 64
1, 2347, Note_off_c, 0, 51, 64
1, 2367, Note_on_c, 0, 51, 77
1, 2367, Note_on_c, 0, 44, 88
1, 2368, Lyric_t, "too "
1, 2368, Note_on_c, 3, 68, 108
1, 2368, Note_on_c, 4, 60, 58
1, 2368, Note_on_c, 4, 56, 58
1, 2368, Note_on_c, 4, 53, 58
1, 2369, Control_c, 4, 1, 0
1, 2369, Pitch_bend_c, 4, 8192
1, 2369, Note_on_c, 2, 44, 104
1, 2377, Note_off_c, 1, 44, 64
1, 2381, Note_off_c, 0, 44, 64
1, 2381, Note_off_c, 0, 51, 64
1, 2385, Note_off_c, 6, 32, 64
1, 2391, Note_off_c, 2, 44, 64
1, 2399, Note_on_c, 1, 41, 94
1, 2399, Note_on_c, 0, 53, 94
1, 2399, Note_on_c, 0, 44, 82
1, 2400, Note_on_c, 9, 40, 110
1, 2401, Note_off_c, 9, 40, 64
1, 2401, Note_on_c, 2, 53, 110
1, 2436, Note_off_c, 2, 53, 64
1, 2442, Note_off_c, 0, 44, 64
1, 2442, Note_off_c, 0, 53, 64
1, 2447, Note_off_c, 3, 68, 64
1, 2463, Note_off_c, 4, 56, 64
1, 2463, Note_off_c, 4, 60, 64
1, 2463, Note_on_c, 9, 46, 63
1, 2463, Note_on_c, 0, 53, 80
1, 2463, Note_on_c, 0, 44, 85
1, 2463, Note_on_c, 2, 53, 102
1, 2464, Lyric_t, "much. "
1, 2464, Lyric_t, "\015"
1, 2464, Note_on_c, 3, 72, 107
1, 2464, Note_off_c, 4, 53, 64
1, 2464, Note_on_c, 4, 63, 58
1, 2464, Note_on_c, 4, 60, 58
1, 2464, Note_on_c, 4, 56, 58
1, 2464, Note_off_c, 9, 46, 64
1, 2478, Note_off_c, 1, 41, 64
1, 2479, Note_off_c, 0, 44, 64
1, 2479, Note_off_c, 0, 53, 64
1, 2491, Note_off_c, 2, 53, 64
1, 2495, Note_on_c, 9, 46, 99
1, 2495, Note_on_c, 1, 39, 107
1, 2495, Note_on_c, 0, 51, 88
1, 2496, Note_off_c, 9, 46, 64
1, 2496, Note_on_c, 9, 36, 102
1, 2496, Note_on_c, 0, 44, 84
1, 2497, Note_off_c, 9, 36, 64
1, 2497, Note_on_c, 2, 51, 118
1, 2529, Note_off_c, 3, 72, 64
1, 2529, Note_off_c, 2, 51, 64
1, 2540, Note_off_c, 0, 44, 64
1, 2542, Note_off_c, 0, 51, 64
1, 2559, Note_on_c, 0, 51, 81
1, 2559, Note_on_c, 2, 51, 102
1, 2561, Note_on_c, 0, 44, 83
1, 2574, Note_off_c, 1, 39, 64
1, 2574, Note_off_c, 0, 44, 64
1, 2576, Note_off_c, 0, 51, 64
1, 2582, Note_off_c, 2, 51, 64
1, 2591, Note_on_c, 1, 36, 100
1, 2591, Note_on_c, 0, 44, 78
1, 2591, Note_on_c, 0, 53, 101
1, 2591, Note_on_c, 2, 53, 118
1, 2592, Note_off_c, 4, 56, 64
1, 2592, Note_off_c, 4, 60, 64
1, 2592, Note_off_c, 4, 63, 64
1, 2592, Note_on_c, 9, 40, 114
1, 2593, Note_off_c, 9, 40, 64
1, 2593, Note_on_c, 9, 46, 82
1, 2594, Note_off_c, 9, 46, 64
1, 2626, Note_off_c, 0, 44, 64
1, 2629, Note_off_c, 0, 53, 64
1, 2634, Note_off_c, 2, 53, 64
1, 2654, Lyric_t, "I "
1, 2654, Note_on_c, 3, 72, 110
1, 2655, Note_on_c, 0, 51, 82
1, 2655, Note_on_c, 0, 44, 97
1, 2656, Note_on_c, 2, 51, 107
1, 2669, Note_off_c, 1, 36, 64
1, 2671, Note_off_c, 0, 51, 64
1, 2676, Note_off_c, 2, 51, 64
1, 2681, Note_off_c, 0, 44, 64
1, 2687, Note_on_c, 1, 32, 110
1, 2687, Note_on_c, 0, 51, 103
1, 2687, Note_on_c, 0, 44, 58
1, 2688, Note_on_c, 9, 46, 93
1, 2688, Note_on_c, 9, 36, 102
1, 2689, Note_off_c, 9, 36, 64
1, 2689, Note_off_c, 9, 46, 64
1, 2689, Note_on_c, 2, 44, 123
1, 2690, Note_off_c, 3, 72, 64
1, 2694, Lyric_t, "need "
1, 2694, Note_on_c, 3, 71, 102
1, 2716, Note_off_c, 2, 44, 64
1, 2734, Note_off_c, 0, 44, 64
1, 2737, Note_off_c, 0, 51, 64
1, 2739, Note_off_c, 3, 71, 64
1, 2749, Note_on_c, 3, 72, 104
1, 2751, Note_on_c, 0, 51, 80
1, 2751, Note_on_c, 0, 44, 88
1, 2753, Note_on_c, 2, 44, 104
1, 2757, Note_off_c, 1, 32, 64
1, 2766, Note_off_c, 0, 51, 64
1, 2767, Note_off_c, 0, 44, 64
1, 2775, Note_off_c, 2, 44, 64
1, 2781, Note_off_c, 3, 72, 64
1, 2783, Note_on_c, 1, 36, 98
1, 2783, Note_on_c, 0, 53, 90
1, 2783, Note_on_c, 0, 44, 81
1, 2784, Note_on_c, 9, 40, 110
1, 2785, Note_off_c, 9, 40, 64
1, 2785, Note_on_c, 9, 46, 85
1, 2785, Note_on_c, 2, 53, 110
1, 2786, Note_off_c, 9, 46, 64
1, 2789, Lyric_t, "your "
1, 2789, Note_on_c, 3, 71, 105
1, 2820, Note_off_c, 2, 53, 64
1, 2824, Note_off_c, 0, 44, 64
1, 2829, Note_off_c, 0, 53, 64
1, 2832, Note_off_c, 3, 71, 64
1, 2843, Note_on_c, 3, 72, 104
1, 2847, Note_on_c, 0, 53, 80
1, 2847, Note_on_c, 0, 44, 91
1, 2847, Note_on_c, 2, 53, 102
1, 2860, Note_off_c, 1, 36, 64
1, 2862, Note_off_c, 0, 53, 64
1, 2864, Note_off_c, 0, 44, 64
1, 2870, Note_off_c, 3, 72, 64
1, 2875, Note_off_c, 2, 53, 64
1, 2879, Note_on_c, 1, 39, 99
1, 2879, Note_on_c, 0, 51, 89
1, 2880, Note_on_c, 9, 36, 102
1, 2880, Note_on_c, 0, 44, 75
1, 2881, Note_off_c, 9, 36, 64
1, 2881, Note_on_c, 9, 46, 97
1, 2881, Note_on_c, 2, 51, 118
1, 2882, Note_off_c, 9, 46, 64
1, 2883, Lyric_t, "lov"
1, 2883, Note_on_c, 3, 68, 104
1, 2913, Note_off_c, 2, 51, 64
1, 2922, Note_off_c, 0, 44, 64
1, 2924, Note_off_c, 0, 51, 64
1, 2943, Note_on_c, 2, 51, 102
1, 2944, Note_on_c, 0, 51, 80
1, 2944, Note_on_c, 0, 44, 78
1, 2957, Note_off_c, 0, 44, 64
1, 2957, Note_off_c, 0, 51, 64
1, 2960, Note_off_c, 1, 39, 64
1, 2963, Note_off_c, 3, 68, 64
1, 2966, Note_off_c, 2, 51, 64
1, 2975, Note_on_c, 1, 41, 97
1, 2975, Note_on_c, 0, 53, 90
1, 2975, Note_on_c, 0, 44, 85
1, 2975, Note_on_c, 2, 53, 118
1, 2976, Lyric_t, "in' "
1, 2976, Note_on_c, 3, 65, 100
1, 2976, Note_on_c, 9, 40, 114
1, 2977, Note_off_c, 9, 40, 64
1, 2977, Note_on_c, 9, 46, 82
1, 2978, Note_off_c, 9, 46, 64
1, 3013, Note_off_c, 0, 44, 64
1, 3016, Note_off_c, 0, 53, 64
1, 3018, Note_off_c, 2, 53, 64
1, 3036, Note_off_c, 3, 65, 64
1, 3036, Note_on_c, 6, 39, 101
1, 3039, Note_on_c, 0, 51, 79
1, 3039, Note_on_c, 0, 44, 89
1, 3040, Note_on_c, 3, 63, 92
1, 3040, Note_on_c, 2, 51, 107
1, 3056, Note_off_c, 1, 41, 64
1, 3056, Note_off_c, 0, 51, 64
1, 3058, Note_off_c, 0, 44, 64
1, 3060, Note_off_c, 2, 51, 64
1, 3067, Note_off_c, 6, 39, 64
1, 3071, Note_off_c, 3, 63, 64
1, 3071, Note_on_c, 1, 44, 99
1, 3071, Note_on_c, 0, 51, 68
1, 3071, Note_on_c, 0, 44, 71
1, 3072, Note_on_c, 9, 46, 97
1, 3072, Note_on_c, 9, 36, 102
1, 3073, Note_off_c, 9, 36, 64
1, 3073, Note_off_c, 9, 46, 64
1, 3073, Note_on_c, 2, 44, 123
1, 3074, Note_on_c, 6, 32, 93
1, 3100, Note_off_c, 2, 44, 64
1, 3106, Note_off_c, 0, 44, 64
1, 3113, Note_off_c, 0, 51, 64
1, 3133, Lyric_t, "too "
1, 3133, Note_on_c, 3, 68, 105
1, 3135, Note_on_c, 0, 51, 88
1, 3135, Note_on_c, 0, 44, 85
1, 3136, Note_on_c, 4, 56, 58
1, 3136, Note_on_c, 4, 60, 58
1, 3136, Note_on_c, 4, 53, 58
1, 3137, Note_on_c, 2, 44, 104
1, 3148, Note_off_c, 0, 44, 64
1, 3149, Note_off_c, 0, 51, 64
1, 3150, Note_off_c, 6, 32, 64
1, 3151, Note_off_c, 1, 44, 64
1, 3159, Note_off_c, 2, 44, 64
1, 3167, Note_on_c, 1, 41, 93
1, 3167, Note_on_c, 0, 53, 105
1, 3167, Note_on_c, 0, 44, 92
1, 3168, Note_on_c, 9, 40, 110
1, 3169, Note_off_c, 9, 40, 64
1, 3169, Note_on_c, 9, 46, 78
1, 3169, Note_on_c, 2, 53, 110
1, 3170, Note_off_c, 9, 46, 64
1, 3204, Note_off_c, 2, 53, 64
1, 3210, Note_off_c, 0, 44, 64
1, 3214, Note_off_c, 0, 53, 64
1, 3216, Note_off_c, 3, 68, 64
1, 3230, Lyric_t, "much. "
1, 3230, Lyric_t, "\015"
1, 3230, Note_on_c, 3, 72, 107
1, 3231, Note_off_c, 4, 60, 64
1, 3231, Note_off_c, 4, 56, 64
1, 3231, Note_on_c, 0, 53, 83
1, 3231, Note_on_c, 0, 44, 94
1, 3231, Note_on_c, 2, 53, 102
1, 3232, Note_off_c, 4, 53, 64
1, 3232, Note_on_c, 4, 63, 58
1, 3232, Note_on_c, 4, 60, 58
1, 3232, Note_on_c, 4, 56, 58
1, 3250, Note_off_c, 1, 41, 64
1, 3251, Note_off_c, 0, 44, 64
1, 3251, Note_off_c, 0, 53, 64
1, 3259, Note_off_c, 2, 53, 64
1, 3263, Note_on_c, 9, 46, 99
1, 3263, Note_on_c, 1, 39, 107
1, 3263, Note_on_c, 0, 51, 94
1, 3263, Note_on_c, 0, 44, 84
1, 3264, Note_off_c, 9, 46, 64
1, 3264, Note_on_c, 9, 36, 102
1, 3265, Note_off_c, 9, 36, 64
1, 3265, Note_on_c, 2, 51, 118
1, 3287, Note_off_c, 3, 72, 64
1, 3297, Note_off_c, 2, 51, 64
1, 3300, Note_off_c, 0, 44, 64
1, 3306, Note_off_c, 0, 51, 64
1, 3307, Lyric_t, "\012"
1, 3327, Note_on_c, 0, 44, 87
1, 3327, Note_on_c, 0, 51, 81
1, 3327, Note_on_c, 2, 51, 102
1, 3328, Note_on_c, 9, 40, 98
1, 3329, Note_off_c, 9, 40, 64
1, 3339, Note_off_c, 0, 51, 64
1, 3341, Note_off_c, 0, 44, 64
1, 3342, Note_off_c, 1, 39, 64
1, 3350, Note_off_c, 2, 51, 64
1, 3359, Note_on_c, 1, 36, 100
1, 3359, Note_on_c, 0, 53, 104
1, 3359, Note_on_c, 0, 44, 75
1, 3359, Note_on_c, 2, 53, 118
1, 3360, Note_off_c, 4, 56, 64
1, 3360, Note_off_c, 4, 60, 64
1, 3360, Note_off_c, 4, 63, 64
1, 3360, Note_on_c, 9, 40, 114
1, 3361, Note_off_c, 9, 40, 64
1, 3393, Note_off_c, 0, 53, 64
1, 3396, Note_off_c, 0, 44, 64
1, 3402, Note_off_c, 2, 53, 64
1, 3422, Note_on_c, 0, 44, 85
1, 3422, Note_on_c, 0, 53, 77
1, 3424, Note_on_c, 2, 51, 107
1, 3425, Note_on_c, 9, 46, 84
1, 3426, Note_off_c, 9, 46, 64
1, 3430, Note_off_c, 1, 36, 64
1, 3431, Note_off_c, 0, 53, 64
1, 3431, Note_off_c, 0, 44, 64
1, 3444, Note_off_c, 2, 51, 64
1, 3455, Note_on_c, 0, 37, 107
1, 3455, Note_on_c, 0, 44, 58
1, 3456, Note_on_c, 9, 46, 93
1, 3456, Note_on_c, 9, 36, 102
1, 3456, Note_on_c, 1, 37, 111
1, 3457, Note_off_c, 9, 36, 64
1, 3457, Note_off_c, 9, 46, 64
1, 3457, Note_on_c, 2, 49, 119
1, 3461, Lyric_t, "Want "
1, 3461, Note_on_c, 3, 71, 104
1, 3489, Note_off_c, 2, 49, 64
1, 3494, Note_off_c, 0, 37, 64
1, 3498, Note_off_c, 0, 44, 64
1, 3519, Note_on_c, 0, 37, 101
1, 3519, Note_on_c, 0, 44, 89
1, 3520, Note_on_c, 9, 46, 70
1, 3521, Note_off_c, 9, 46, 64
1, 3521, Note_on_c, 2, 49, 108
1, 3533, Note_off_c, 3, 71, 64
1, 3533, Note_off_c, 0, 44, 64
1, 3534, Note_off_c, 1, 37, 64
1, 3539, Note_off_c, 2, 49, 64
1, 3540, Note_off_c, 0, 37, 64
1, 3551, Note_on_c, 0, 46, 92
1, 3552, Lyric_t, "the "
1, 3552, Note_on_c, 3, 71, 100
1, 3552, Note_on_c, 9, 40, 110
1, 3552, Note_on_c, 1, 41, 103
1, 3553, Note_off_c, 9, 40, 64
1, 3553, Note_on_c, 9, 46, 85
1, 3553, Note_on_c, 0, 37, 99
1, 3553, Note_on_c, 2, 58, 116
1, 3554, Note_off_c, 9, 46, 64
1, 3586, Note_off_c, 2, 58, 64
1, 3595, Note_off_c, 0, 37, 64
1, 3604, Note_off_c, 0, 46, 64
1, 3615, Note_on_c, 2, 58, 104
1, 3616, Note_off_c, 3, 71, 64
1, 3617, Note_on_c, 9, 46, 63
1, 3617, Note_on_c, 0, 37, 92
1, 3617, Note_on_c, 0, 46, 97
1, 3618, Note_off_c, 9, 46, 64
1, 3631, Note_off_c, 1, 41, 64
1, 3634, Note_off_c, 0, 46, 64
1, 3638, Note_off_c, 0, 37, 64
1, 3642, Note_off_c, 2, 58, 64
1, 3647, Note_on_c, 1, 44, 107
1, 3648, Note_on_c, 9, 36, 102
1, 3649, Lyric_t, "thrill "
1, 3649, Note_on_c, 3, 68, 102
1, 3649, Note_off_c, 9, 36, 64
1, 3649, Note_on_c, 9, 46, 97
1, 3649, Note_on_c, 0, 44, 87
1, 3649, Note_on_c, 0, 37, 91
1, 3649, Note_on_c, 2, 56, 112
1, 3650, Note_off_c, 9, 46, 64
1, 3685, Note_off_c, 2, 56, 64
1, 3693, Note_off_c, 0, 37, 64
1, 3694, Note_off_c, 0, 44, 64
1, 3711, Note_on_c, 2, 56, 102
1, 3712, Note_on_c, 0, 44, 70
1, 3713, Note_on_c, 0, 37, 83
1, 3724, Note_off_c, 1, 44, 64
1, 3725, Note_off_c, 0, 44, 64
1, 3726, Note_off_c, 0, 37, 64
1, 3734, Note_off_c, 3, 68, 64
1, 3736, Note_off_c, 2, 56, 64
1, 3740, Lyric_t, "of "
1, 3740, Note_on_c, 3, 65, 100
1, 3743, Note_on_c, 1, 46, 101
1, 3743, Note_on_c, 0, 46, 82
1, 3743, Note_on_c, 0, 37, 91
1, 3744, Note_on_c, 9, 40, 114
1, 3744, Note_on_c, 2, 58, 111
1, 3745, Note_off_c, 9, 40, 64
1, 3745, Note_on_c, 9, 46, 82
1, 3746, Note_off_c, 9, 46, 64
1, 3788, Note_off_c, 0, 37, 64
1, 3788, Note_off_c, 0, 46, 64
1, 3792, Note_off_c, 2, 58, 64
1, 3797, Note_off_c, 3, 65, 64
1, 3805, Note_on_c, 3, 63, 91
1, 3806, Note_on_c, 6, 44, 97
1, 3807, Note_on_c, 0, 37, 99
1, 3807, Note_on_c, 0, 46, 72
1, 3807, Note_on_c, 2, 56, 107
1, 3808, Note_on_c, 9, 46, 77
1, 3809, Note_off_c, 9, 46, 64
1, 3823, Note_off_c, 0, 46, 64
1, 3823, Note_off_c, 0, 37, 64
1, 3825, Note_off_c, 1, 46, 64
1, 3829, Note_off_c, 3, 63, 64
1, 3830, Note_off_c, 2, 56, 64
1, 3835, Note_off_c, 6, 44, 64
1, 3839, Note_on_c, 0, 44, 83
1, 3840, Note_on_c, 9, 46, 97
1, 3840, Note_on_c, 9, 36, 102
1, 3840, Note_on_c, 0, 37, 88
1, 3840, Note_on_c, 2, 49, 105
1, 3841, Note_on_c, 6, 37, 89
1, 3841, Note_off_c, 9, 36, 64
1, 3841, Note_off_c, 9, 46, 64
1, 3841, Note_on_c, 1, 47, 98
1, 3872, Note_off_c, 2, 49, 64
1, 3880, Note_off_c, 0, 37, 64
1, 3882, Note_off_c, 0, 44, 64
1, 3900, Lyric_t, "your "
1, 3900, Note_on_c, 3, 68, 104
1, 3903, Note_on_c, 0, 44, 78
1, 3903, Note_on_c, 0, 37, 94
1, 3904, Note_on_c, 4, 56, 58
1, 3904, Note_on_c, 4, 59, 58
1, 3904, Note_on_c, 4, 53, 58
1, 3905, Note_on_c, 2, 49, 108
1, 3917, Note_off_c, 0, 37, 64
1, 3917, Note_off_c, 0, 44, 64
1, 3923, Note_off_c, 1, 47, 64
1, 3923, Note_off_c, 2, 49, 64
1, 3925, Note_off_c, 6, 37, 64
1, 3935, Note_on_c, 0, 37, 95
1, 3935, Note_on_c, 0, 46, 84
1, 3936, Note_on_c, 9, 40, 110
1, 3937, Note_off_c, 9, 40, 64
1, 3937, Note_on_c, 9, 46, 78
1, 3937, Note_on_c, 1, 46, 97
1, 3937, Note_on_c, 2, 58, 116
1, 3938, Note_off_c, 9, 46, 64
1, 3963, Note_off_c, 3, 68, 64
1, 3970, Note_off_c, 2, 58, 64
1, 3978, Note_off_c, 0, 46, 64
1, 3978, Note_off_c, 0, 37, 64
1, 3997, Lyric_t, "touch. "
1, 3997, Lyric_t, "\015"
1, 3997, Note_on_c, 3, 71, 105
1, 3999, Note_off_c, 4, 59, 64
1, 3999, Note_off_c, 4, 56, 64
1, 3999, Note_on_c, 9, 46, 63
1, 3999, Note_on_c, 0, 46, 77
1, 3999, Note_on_c, 0, 37, 91
1, 3999, Note_on_c, 2, 58, 104
1, 4000, Note_off_c, 4, 53, 64
1, 4000, Note_on_c, 4, 59, 58
1, 4000, Note_on_c, 4, 56, 58
1, 4000, Note_on_c, 4, 63, 58
1, 4000, Note_off_c, 9, 46, 64
1, 4011, Note_off_c, 1, 46, 64
1, 4015, Note_off_c, 0, 46, 64
1, 4017, Note_off_c, 0, 37, 64
1, 4026, Note_off_c, 2, 58, 64
1, 4031, Note_on_c, 9, 46, 99
1, 4031, Note_on_c, 0, 44, 87
1, 4032, Note_off_c, 9, 46, 64
1, 4032, Note_on_c, 9, 36, 102
1, 4032, Note_on_c, 0, 37, 95
1, 4033, Note_off_c, 9, 36, 64
1, 4033, Note_on_c, 1, 44, 99
1, 4033, Note_on_c, 2, 56, 112
1, 4043, Note_off_c, 3, 71, 64
1, 4069, Note_off_c, 2, 56, 64
1, 4077, Note_off_c, 0, 37, 64
1, 4077, Note_off_c, 0, 44, 64
1, 4094, Note_off_c, 4, 63, 64
1, 4094, Note_off_c, 4, 56, 64
1, 4094, Note_off_c, 4, 59, 64
1, 4095, Note_on_c, 0, 44, 83
1, 4095, Note_on_c, 2, 56, 102
1, 4097, Lyric_t, "Hey, "
1, 4097, Note_on_c, 3, 71, 104
1, 4097, Note_on_c, 0, 37, 94
1, 4109, Note_off_c, 0, 37, 64
1, 4110, Note_off_c, 1, 44, 64
1, 4113, Note_off_c, 0, 44, 64
1, 4120, Note_off_c, 2, 56, 64
1, 4123, Note_off_c, 3, 71, 64
1, 4127, Note_on_c, 0, 46, 89
1, 4128, Note_on_c, 9, 40, 114
1, 4128, Note_on_c, 1, 41, 95
1, 4128, Note_on_c, 2, 58, 111
1, 4129, Note_off_c, 9, 40, 64
1, 4129, Note_on_c, 9, 46, 82
1, 4129, Note_on_c, 0, 37, 97
1, 4130, Note_off_c, 9, 46, 64
1, 4136, Lyric_t, "hey, "
1, 4136, Note_on_c, 3, 71, 94
1, 4158, Note_off_c, 0, 37, 64
1, 4161, Note_off_c, 0, 46, 64
1, 4176, Note_off_c, 2, 58, 64
1, 4181, Note_off_c, 3, 71, 64
1, 4190, Note_on_c, 0, 37, 71
1, 4191, Note_on_c, 0, 46, 70
1, 4191, Note_on_c, 2, 56, 107
1, 4193, Note_on_c, 9, 46, 84
1, 4194, Note_off_c, 9, 46, 64
1, 4195, Note_on_c, 3, 71, 102
1, 4198, Note_off_c, 1, 41, 64
1, 4204, Note_off_c, 0, 46, 64
1, 4204, Note_off_c, 0, 37, 64
1, 4214, Note_off_c, 2, 56, 64
1, 4222, Note_off_c, 3, 71, 64
1, 4223, Note_on_c, 0, 51, 77
1, 4224, Lyric_t, "gee! "
1, 4224, Note_on_c, 3, 72, 99
1, 4224, Note_on_c, 9, 46, 93
1, 4224, Note_on_c, 9, 36, 102
1, 4224, Note_on_c, 0, 44, 66
1, 4225, Note_off_c, 9, 36, 64
1, 4225, Note_off_c, 9, 46, 64
1, 4225, Note_on_c, 1, 44, 113
1, 4225, Note_on_c, 2, 44, 123
1, 4252, Note_off_c, 2, 44, 64
1, 4257, Note_off_c, 0, 44, 64
1, 4260, Note_off_c, 0, 51, 64
1, 4282, Note_off_c, 3, 72, 64
1, 4286, Lyric_t, "I "
1, 4286, Note_on_c, 3, 68, 98
1, 4287, Note_on_c, 0, 51, 78
1, 4287, Note_on_c, 0, 44, 89
1, 4289, Note_on_c, 2, 44, 104
1, 4302, Note_off_c, 0, 51, 64
1, 4303, Note_off_c, 0, 44, 64
1, 4305, Note_off_c, 3, 68, 64
1, 4306, Note_off_c, 1, 44, 64
1, 4311, Note_off_c, 2, 44, 64
1, 4315, Lyric_t, "can't "
1, 4315, Note_on_c, 3, 72, 100
1, 4319, Note_on_c, 0, 53, 93
1, 4319, Note_on_c, 0, 44, 94
1, 4320, Note_on_c, 9, 40, 110
1, 4321, Note_off_c, 9, 40, 64
1, 4321, Note_on_c, 9, 46, 85
1, 4321, Note_on_c, 1, 36, 100
1, 4321, Note_on_c, 2, 53, 110
1, 4322, Note_off_c, 9, 46, 64
1, 4356, Note_off_c, 2, 53, 64
1, 4365, Note_off_c, 0, 44, 64
1, 4371, Note_off_c, 0, 53, 64
1, 4379, Note_off_c, 3, 72, 64
1, 4383, Note_on_c, 2, 53, 102
1, 4385, Note_on_c, 9, 46, 77
1, 4385, Note_on_c, 0, 53, 86
1, 4385, Note_on_c, 0, 44, 83
1, 4386, Note_off_c, 9, 46, 64
1, 4398, Note_off_c, 1, 36, 64
1, 4401, Note_off_c, 0, 44, 64
1, 4401, Note_off_c, 0, 53, 64
1, 4411, Note_off_c, 2, 53, 64
1, 4416, Note_on_c, 9, 36, 102
1, 4416, Note_on_c, 1, 39, 107
1, 4417, Note_off_c, 9, 36, 64
1, 4417, Note_on_c, 9, 46, 97
1, 4417, Note_on_c, 0, 51, 92
1, 4417, Note_on_c, 0, 44, 83
1, 4417, Note_on_c, 2, 51, 118
1, 4418, Lyric_t, "love "
1, 4418, Note_on_c, 3, 68, 103
1, 4418, Note_off_c, 9, 46, 64
1, 4449, Note_off_c, 2, 51, 64
1, 4456, Note_off_c, 0, 44, 64
1, 4462, Note_off_c, 0, 51, 64
1, 4479, Note_on_c, 2, 51, 102
1, 4481, Note_on_c, 0, 44, 88
1, 4481, Note_on_c, 0, 51, 84
1, 4493, Note_off_c, 1, 39, 64
1, 4493, Note_off_c, 0, 51, 64
1, 4497, Note_off_c, 3, 68, 64
1, 4498, Note_off_c, 0, 44, 64
1, 4502, Note_off_c, 2, 51, 64
1, 4509, Lyric_t, "you "
1, 4509, Note_on_c, 3, 65, 101
1, 4511, Note_on_c, 0, 53, 100
1, 4511, Note_on_c, 2, 53, 118
1, 4512, Note_on_c, 9, 40, 114
1, 4512, Note_on_c, 1, 41, 107
1, 4513, Note_off_c, 9, 40, 64
1, 4513, Note_on_c, 9, 46, 82
1, 4513, Note_on_c, 0, 44, 84
1, 4514, Note_off_c, 9, 46, 64
1, 4554, Note_off_c, 2, 53, 64
1, 4555, Note_off_c, 0, 44, 64
1, 4559, Note_off_c, 0, 53, 64
1, 4572, Note_off_c, 3, 65, 64
1, 4575, Note_on_c, 0, 53, 82
1, 4576, Note_on_c, 9, 46, 77
1, 4576, Note_on_c, 2, 51, 107
1, 4577, Note_on_c, 6, 39, 101
1, 4577, Note_off_c, 9, 46, 64
1, 4577, Note_on_c, 0, 44, 84
1, 4579, Note_on_c, 3, 63, 100
1, 4588, Note_off_c, 1, 41, 64
1, 4591, Note_off_c, 0, 44, 64
1, 4592, Note_off_c, 0, 53, 64
1, 4596, Note_off_c, 2, 51, 64
1, 4600, Note_off_c, 6, 39, 64
1, 4606, Note_off_c, 3, 63, 64
1, 4608, Note_on_c, 9, 46, 97
1, 4608, Note_on_c, 9, 36, 102
1, 4608, Note_on_c, 0, 51, 77
1, 4609, Note_off_c, 9, 36, 64
1, 4609, Note_off_c, 9, 46, 64
1, 4609, Note_on_c, 1, 44, 116
1, 4609, Note_on_c, 0, 44, 85
1, 4609, Note_on_c, 2, 44, 123
1, 4611, Note_on_c, 6, 32, 72
1, 4636, Note_off_c, 2, 44, 64
1, 4652, Note_off_c, 0, 44, 64
1, 4655, Note_off_c, 0, 51, 64
1, 4672, Note_on_c, 4, 56, 58
1, 4672, Note_on_c, 4, 60, 58
1, 4672, Note_on_c, 4, 53, 58
1, 4673, Lyric_t, "too "
1, 4673, Note_on_c, 3, 68, 101
1, 4673, Note_on_c, 0, 51, 82
1, 4673, Note_on_c, 0, 44, 89
1, 4673, Note_on_c, 2, 44, 104
1, 4685, Note_off_c, 0, 44, 64
1, 4686, Note_off_c, 1, 44, 64
1, 4689, Note_off_c, 0, 51, 64
1, 4695, Note_off_c, 2, 44, 64
1, 4697, Note_off_c, 6, 32, 64
1, 4704, Note_on_c, 9, 40, 110
1, 4705, Note_off_c, 9, 40, 64
1, 4705, Note_on_c, 9, 46, 78
1, 4705, Note_on_c, 1, 41, 107
1, 4705, Note_on_c, 0, 53, 90
1, 4705, Note_on_c, 0, 44, 81
1, 4705, Note_on_c, 2, 53, 110
1, 4706, Note_off_c, 9, 46, 64
1, 4726, Note_off_c, 3, 68, 64
1, 4740, Note_off_c, 2, 53, 64
1, 4747, Note_off_c, 0, 44, 64
1, 4750, Note_off_c, 0, 53, 64
1, 4766, Lyric_t, "much. "
1, 4766, Lyric_t, "\015"
1, 4766, Note_on_c, 3, 72, 101
1, 4767, Note_off_c, 4, 60, 64
1, 4767, Note_off_c, 4, 56, 64
1, 4767, Note_on_c, 9, 46, 63
1, 4767, Note_on_c, 2, 53, 102
1, 4768, Note_off_c, 4, 53, 64
1, 4768, Note_on_c, 4, 63, 58
1, 4768, Note_on_c, 4, 60, 58
1, 4768, Note_on_c, 4, 56, 58
1, 4768, Note_off_c, 9, 46, 64
1, 4769, Note_on_c, 0, 44, 84
1, 4769, Note_on_c, 0, 53, 87
1, 4781, Note_off_c, 1, 41, 64
1, 4784, Note_off_c, 0, 53, 64
1, 4784, Note_off_c, 0, 44, 64
1, 4795, Note_off_c, 2, 53, 64
1, 4799, Note_on_c, 9, 46, 99
1, 4800, Note_off_c, 9, 46, 64
1, 4800, Note_on_c, 9, 36, 102
1, 4801, Note_off_c, 9, 36, 64
1, 4801, Note_on_c, 1, 39, 113
1, 4801, Note_on_c, 0, 51, 95
1, 4801, Note_on_c, 0, 44, 87
1, 4801, Note_on_c, 2, 51, 118
1, 4828, Note_off_c, 3, 72, 64
1, 4833, Note_off_c, 2, 51, 64
1, 4840, Lyric_t, "\012"
1, 4842, Note_off_c, 0, 44, 64
1, 4844, Note_off_c, 0, 51, 64
1, 4863, Note_on_c, 0, 51, 81
1, 4863, Note_on_c, 0, 44, 84
1, 4863, Note_on_c, 2, 51, 102
1, 4864, Note_on_c, 9, 40, 94
1, 4865, Note_off_c, 9, 40, 64
1, 4875, Note_off_c, 1, 39, 64
1, 4878, Note_off_c, 0, 44, 64
1, 4882, Note_off_c, 0, 51, 64
1, 4886, Note_off_c, 2, 51, 64
1, 4895, Note_on_c, 2, 53, 118
1, 4896, Note_off_c, 4, 56, 64
1, 4896, Note_off_c, 4, 60, 64
1, 4896, Note_off_c, 4, 63, 64
1, 4896, Note_on_c, 9, 40, 114
1, 4896, Note_on_c, 0, 53, 100
1, 4897, Note_off_c, 9, 40, 64
1, 4897, Note_on_c, 1, 36, 108
1, 4897, Note_on_c, 0, 44, 91
1, 4925, Note_off_c, 0, 44, 64
1, 4925, Note_off_c, 0, 53, 64
1, 4938, Note_off_c, 2, 53, 64
1, 4954, Note_off_c, 1, 36, 64
1, 4959, Note_on_c, 0, 44, 81
1, 4960, Note_on_c, 2, 51, 107
1, 4966, Note_off_c, 0, 44, 64
1, 4980, Note_off_c, 2, 51, 64
1, 4988, Lyric_t, "You "
1, 4988, Note_on_c, 3, 70, 90
1, 4991, Note_on_c, 0, 46, 68
1, 4991, Note_on_c, 0, 39, 95
1, 4992, Note_on_c, 5, 70, 82
1, 4992, Note_on_c, 5, 67, 87
1, 4992, Note_on_c, 5, 63, 67
1, 4992, Note_on_c, 5, 61, 73
1, 4992, Note_on_c, 9, 46, 93
1, 4992, Note_on_c, 9, 36, 102
1, 4992, Note_on_c, 1, 39, 113
1, 4993, Control_c, 5, 1, 0
1, 4993, Pitch_bend_c, 5, 8192
1, 4993, Note_off_c, 9, 36, 64
1, 4993, Note_off_c, 9, 46, 64
1, 4993, Note_on_c, 2, 51, 120
1, 5023, Note_off_c, 2, 51, 64
1, 5032, Note_off_c, 0, 39, 64
1, 5034, Note_off_c, 0, 46, 64
1, 5040, Note_off_c, 3, 70, 64
1, 5052, Lyric_t, "do "
1, 5052, Note_on_c, 3, 70, 101
1, 5055, Note_on_c, 0, 39, 101
1, 5055, Note_on_c, 2, 51, 109
1, 5057, Note_on_c, 0, 46, 78
1, 5066, Note_off_c, 1, 39, 64
1, 5066, Note_off_c, 0, 46, 64
1, 5074, Note_off_c, 0, 39, 64
1, 5078, Note_off_c, 2, 51, 64
1, 5081, Note_off_c, 3, 70, 64
1, 5087, Note_on_c, 1, 43, 112
1, 5087, Note_on_c, 0, 48, 87
1, 5088, Note_on_c, 9, 40, 110
1, 5088, Note_on_c, 0, 39, 99
1, 5089, Note_off_c, 9, 40, 64
1, 5089, Note_on_c, 9, 46, 85
1, 5089, Note_on_c, 2, 60, 109
1, 5090, Note_off_c, 9, 46, 64
1, 5092, Lyric_t, "all "
1, 5092, Note_on_c, 3, 70, 92
1, 5128, Note_off_c, 0, 39, 64
1, 5128, Note_off_c, 2, 60, 64
1, 5129, Note_off_c, 0, 48, 64
1, 5137, Note_off_c, 3, 70, 64
1, 5148, Lyric_t, "the "
1, 5148, Note_on_c, 3, 70, 103
1, 5151, Note_on_c, 0, 39, 91
1, 5151, Note_on_c, 2, 60, 104
1, 5153, Note_on_c, 9, 46, 77
1, 5153, Note_on_c, 0, 48, 84
1, 5154, Note_off_c, 9, 46, 64
1, 5160, Note_off_c, 1, 43, 64
1, 5171, Note_off_c, 0, 48, 64
1, 5172, Note_off_c, 3, 70, 64
1, 5173, Note_off_c, 0, 39, 64
1, 5176, Note_off_c, 2, 60, 64
1, 5183, Note_on_c, 1, 46, 107
1, 5183, Note_on_c, 0, 46, 95
1, 5184, Note_on_c, 9, 36, 102
1, 5185, Lyric_t, "liv"
1, 5185, Note_on_c, 3, 70, 94
1, 5185, Note_off_c, 9, 36, 64
1, 5185, Note_on_c, 9, 46, 97
1, 5185, Note_on_c, 0, 39, 101
1, 5185, Note_on_c, 2, 58, 111
1, 5186, Note_off_c, 9, 46, 64
1, 5219, Note_off_c, 2, 58, 64
1, 5227, Note_off_c, 0, 39, 64
1, 5227, Note_off_c, 0, 46, 64
1, 5231, Note_off_c, 3, 70, 64
1, 5247, Note_on_c, 0, 46, 85
1, 5247, Note_on_c, 0, 39, 103
1, 5247, Note_on_c, 2, 58, 91
1, 5248, Lyric_t, "in' "
1, 5248, Lyric_t, "\015"
1, 5248, Note_on_c, 3, 70, 101
1, 5264, Note_off_c, 0, 46, 64
1, 5265, Note_off_c, 1, 46, 64
1, 5267, Note_off_c, 0, 39, 64
1, 5269, Note_off_c, 2, 58, 64
1, 5273, Note_off_c, 3, 70, 64
1, 5279, Note_on_c, 1, 48, 109
1, 5279, Note_on_c, 0, 48, 94
1, 5280, Note_on_c, 9, 40, 114
1, 5281, Note_off_c, 9, 40, 64
1, 5281, Note_on_c, 9, 46, 82
1, 5281, Note_on_c, 0, 39, 101
1, 5281, Note_on_c, 2, 60, 111
1, 5282, Note_off_c, 9, 46, 64
1, 5284, Lyric_t, "while "
1, 5284, Note_on_c, 3, 70, 91
1, 5318, Note_off_c, 0, 39, 64
1, 5322, Note_off_c, 0, 48, 64
1, 5327, Note_off_c, 2, 60, 64
1, 5334, Note_off_c, 3, 70, 64
1, 5343, Note_on_c, 0, 39, 89
1, 5343, Note_on_c, 0, 48, 83
1, 5344, Note_on_c, 9, 46, 77
1, 5344, Note_on_c, 2, 58, 94
1, 5345, Note_off_c, 9, 46, 64
1, 5346, Lyric_t, "I "
1, 5346, Note_on_c, 3, 68, 98
1, 5356, Note_off_c, 0, 48, 64
1, 5358, Note_off_c, 0, 39, 64
1, 5368, Note_off_c, 1, 48, 64
1, 5370, Note_off_c, 2, 58, 64
1, 5375, Note_off_c, 5, 61, 64
1, 5375, Note_off_c, 5, 70, 64
1, 5375, Note_off_c, 5, 67, 64
1, 5375, Note_on_c, 0, 44, 69
1, 5375, Note_on_c, 0, 37, 97
1, 5376, Note_off_c, 5, 63, 64
1, 5376, Note_on_c, 5, 61, 68
1, 5376, Note_on_c, 5, 65, 77
1, 5376, Note_on_c, 5, 68, 84
1, 5376, Note_on_c, 5, 59, 65
1, 5376, Note_on_c, 9, 46, 97
1, 5376, Note_on_c, 9, 36, 102
1, 5377, Note_off_c, 9, 36, 64
1, 5377, Note_off_c, 9, 46, 64
1, 5377, Note_on_c, 1, 37, 116
1, 5377, Note_on_c, 2, 49, 119
1, 5409, Note_off_c, 2, 49, 64
1, 5415, Note_off_c, 0, 37, 64
1, 5416, Note_off_c, 0, 44, 64
1, 5431, Note_off_c, 3, 68, 64
1, 5438, Lyric_t, "do "
1, 5438, Note_on_c, 3, 68, 103
1, 5439, Note_on_c, 0, 37, 95
1, 5439, Note_on_c, 0, 44, 83
1, 5441, Note_on_c, 2, 49, 108
1, 5450, Note_off_c, 1, 37, 64
1, 5450, Note_off_c, 0, 44, 64
1, 5459, Note_off_c, 2, 49, 64
1, 5461, Note_off_c, 0, 37, 64
1, 5467, Note_off_c, 3, 68, 64
1, 5471, Note_on_c, 0, 46, 88
1, 5471, Note_on_c, 0, 37, 81
1, 5472, Note_on_c, 9, 40, 110
1, 5472, Note_on_c, 1, 41, 111
1, 5473, Note_off_c, 9, 40, 64
1, 5473, Note_on_c, 9, 46, 78
1, 5473, Note_on_c, 2, 58, 116
1, 5474, Note_off_c, 9, 46, 64
1, 5479, Lyric_t, "all "
1, 5479, Note_on_c, 3, 68, 89
1, 5506, Note_off_c, 2, 58, 64
1, 5510, Note_off_c, 0, 37, 64
1, 5515, Note_off_c, 0, 46, 64
1, 5526, Note_off_c, 3, 68, 64
1, 5535, Lyric_t, "the "
1, 5535, Note_on_c, 3, 68, 103
1, 5535, Note_on_c, 9, 46, 63
1, 5535, Note_on_c, 0, 46, 73
1, 5535, Note_on_c, 0, 37, 105
1, 5535, Note_on_c, 2, 58, 104
1, 5536, Note_off_c, 9, 46, 64
1, 5544, Note_off_c, 1, 41, 64
1, 5553, Note_off_c, 0, 46, 64
1, 5555, Note_off_c, 0, 37, 64
1, 5562, Note_off_c, 2, 58, 64
1, 5566, Note_off_c, 3, 68, 64
1, 5567, Note_on_c, 9, 46, 99
1, 5567, Note_on_c, 1, 44, 111
1, 5567, Note_on_c, 0, 44, 111
1, 5568, Note_off_c, 9, 46, 64
1, 5568, Note_on_c, 9, 36, 102
1, 5569, Note_off_c, 9, 36, 64
1, 5569, Note_on_c, 0, 37, 97
1, 5569, Note_on_c, 2, 56, 112
1, 5577, Lyric_t, "giv"
1, 5577, Note_on_c, 3, 68, 89
1, 5605, Note_off_c, 2, 56, 64
1, 5613, Note_off_c, 0, 37, 64
1, 5616, Note_off_c, 0, 44, 64
1, 5617, Note_off_c, 3, 68, 64
1, 5631, Note_on_c, 2, 56, 102
1, 5632, Lyric_t, "in', "
1, 5632, Lyric_t, "\015"
1, 5632, Note_on_c, 3, 68, 102
1, 5632, Note_on_c, 9, 40, 99
1, 5633, Note_off_c, 9, 40, 64
1, 5633, Note_on_c, 0, 44, 80
1, 5633, Note_on_c, 0, 37, 103
1, 5649, Note_off_c, 1, 44, 64
1, 5649, Note_off_c, 0, 44, 64
1, 5653, Note_off_c, 0, 37, 64
1, 5655, Note_off_c, 3, 68, 64
1, 5656, Note_off_c, 2, 56, 64
1, 5663, Note_on_c, 1, 46, 106
1, 5664, Note_on_c, 9, 40, 114
1, 5664, Note_on_c, 0, 46, 103
1, 5664, Note_on_c, 0, 37, 84
1, 5664, Note_on_c, 2, 58, 111
1, 5665, Note_off_c, 9, 40, 64
1, 5671, Lyric_t, "'cause "
1, 5671, Note_on_c, 3, 65, 91
1, 5698, Note_off_c, 0, 37, 64
1, 5701, Note_off_c, 0, 46, 64
1, 5712, Note_off_c, 2, 58, 64
1, 5713, Note_off_c, 3, 65, 64
1, 5724, Lyric_t, "I "
1, 5724, Note_on_c, 3, 63, 95
1, 5727, Note_on_c, 0, 37, 91
1, 5727, Note_on_c, 0, 46, 77
1, 5727, Note_on_c, 2, 56, 107
1, 5728, Note_on_c, 9, 40, 82
1, 5729, Note_off_c, 9, 40, 64
1, 5729, Note_on_c, 9, 46, 84
1, 5730, Note_off_c, 9, 46, 64
1, 5737, Note_off_c, 0, 37, 64
1, 5739, Note_off_c, 0, 46, 64
1, 5747, Note_off_c, 1, 46, 64
1, 5749, Note_off_c, 3, 63, 64
1, 5750, Note_off_c, 2, 56, 64
1, 5759, Note_off_c, 5, 59, 64
1, 5759, Note_off_c, 5, 61, 64
1, 5759, Note_off_c, 5, 65, 64
1, 5759, Note_off_c, 5, 68, 64
1, 5759, Note_on_c, 0, 51, 97
1, 5759, Note_on_c, 0, 44, 88
1, 5760, Note_on_c, 5, 63, 44
1, 5760, Note_on_c, 5, 60, 71
1, 5760, Note_on_c, 5, 65, 71
1, 5760, Note_on_c, 5, 68, 89
1, 5760, Note_on_c, 9, 46, 93
1, 5760, Note_on_c, 9, 36, 102
1, 5761, Note_off_c, 9, 36, 64
1, 5761, Note_off_c, 9, 46, 64
1, 5761, Note_on_c, 1, 44, 110
1, 5761, Note_on_c, 2, 44, 123
1, 5764, Lyric_t, "love "
1, 5764, Note_on_c, 3, 68, 95
1, 5788, Note_off_c, 2, 44, 64
1, 5801, Note_off_c, 0, 44, 64
1, 5807, Note_off_c, 0, 51, 64
1, 5823, Note_on_c, 0, 44, 88
1, 5823, Note_on_c, 0, 51, 81
1, 5825, Note_on_c, 2, 44, 104
1, 5837, Note_off_c, 0, 51, 64
1, 5840, Note_off_c, 0, 44, 64
1, 5841, Note_off_c, 1, 44, 64
1, 5844, Note_off_c, 3, 68, 64
1, 5847, Note_off_c, 2, 44, 64
1, 5854, Note_on_c, 0, 53, 89
1, 5856, Note_on_c, 9, 40, 110
1, 5857, Note_off_c, 9, 40, 64
1, 5857, Note_on_c, 9, 46, 85
1, 5857, Note_on_c, 1, 36, 102
1, 5857, Note_on_c, 0, 44, 95
1, 5857, Note_on_c, 2, 53, 110
1, 5858, Note_off_c, 9, 46, 64
1, 5860, Lyric_t, "you "
1, 5860, Note_on_c, 3, 65, 95
1, 5892, Note_off_c, 2, 53, 64
1, 5900, Note_off_c, 0, 44, 64
1, 5909, Note_off_c, 0, 53, 64
1, 5916, Note_off_c, 3, 65, 64
1, 5918, Note_on_c, 3, 63, 98
1, 5919, Note_on_c, 0, 44, 83
1, 5919, Note_on_c, 0, 53, 83
1, 5919, Note_on_c, 2, 53, 102
1, 5921, Note_on_c, 9, 46, 77
1, 5922, Note_off_c, 9, 46, 64
1, 5936, Note_off_c, 0, 53, 64
1, 5938, Note_off_c, 1, 36, 64
1, 5943, Note_off_c, 0, 44, 64
1, 5947, Note_off_c, 2, 53, 64
1, 5951, Note_on_c, 0, 51, 97
1, 5952, Note_on_c, 9, 36, 102
1, 5952, Note_on_c, 1, 39, 99
1, 5953, Note_off_c, 9, 36, 64
1, 5953, Note_on_c, 9, 46, 97
1, 5953, Note_on_c, 0, 44, 81
1, 5953, Note_on_c, 2, 51, 118
1, 5954, Note_off_c, 9, 46, 64
1, 5978, Note_off_c, 3, 63, 64
1, 5985, Note_off_c, 2, 51, 64
1, 5991, Note_off_c, 0, 44, 64
1, 5995, Note_off_c, 0, 51, 64
1, 6015, Note_on_c, 0, 51, 87
1, 6015, Note_on_c, 0, 44, 89
1, 6015, Note_on_c, 2, 51, 102
1, 6016, Note_on_c, 9, 40, 99
1, 6017, Note_off_c, 9, 40, 64
1, 6024, Note_off_c, 1, 39, 64
1, 6031, Note_off_c, 0, 44, 64
1, 6031, Note_off_c, 0, 51, 64
1, 6038, Note_off_c, 2, 51, 64
1, 6047, Note_on_c, 1, 41, 106
1, 6047, Note_on_c, 0, 53, 95
1, 6047, Note_on_c, 0, 44, 78
1, 6047, Note_on_c, 2, 53, 118
1, 6048, Note_on_c, 9, 40, 114
1, 6049, Lyric_t, "too "
1, 6049, Note_on_c, 3, 68, 104
1, 6049, Note_on_c, 4, 56, 99
1, 6049, Note_off_c, 9, 40, 64
1, 6049, Note_on_c, 9, 46, 82
1, 6050, Note_off_c, 9, 46, 64
1, 6077, Note_off_c, 0, 53, 64
1, 6080, Note_off_c, 0, 44, 64
1, 6090, Note_off_c, 2, 53, 64
1, 6097, Note_off_c, 3, 68, 64
1, 6111, Note_on_c, 0, 44, 92
1, 6111, Note_on_c, 0, 53, 85
1, 6112, Note_on_c, 9, 46, 77
1, 6112, Note_on_c, 2, 51, 107
1, 6113, Note_off_c, 9, 46, 64
1, 6125, Note_off_c, 1, 41, 64
1, 6129, Note_off_c, 0, 53, 64
1, 6132, Note_off_c, 2, 51, 64
1, 6136, Note_off_c, 0, 44, 64
1, 6143, Note_on_c, 0, 51, 89
1, 6143, Note_on_c, 2, 44, 123
1, 6144, Note_off_c, 5, 68, 64
1, 6144, Note_off_c, 5, 63, 64
1, 6144, Note_off_c, 5, 60, 64
1, 6144, Note_off_c, 5, 65, 64
1, 6144, Note_on_c, 9, 40, 110
1, 6144, Note_on_c, 9, 49, 79
1, 6144, Note_on_c, 9, 36, 102
1, 6144, Note_on_c, 1, 44, 112
1, 6145, Note_off_c, 4, 56, 64
1, 6145, Note_off_c, 9, 36, 64
1, 6145, Note_off_c, 9, 49, 64
1, 6145, Note_off_c, 9, 40, 64
1, 6145, Note_on_c, 0, 44, 83
1, 6146, Lyric_t, "much. "
1, 6146, Lyric_t, "\015"
1, 6146, Note_on_c, 3, 68, 103
1, 6146, Note_on_c, 4, 56, 94
1, 6181, Note_off_c, 0, 44, 64
1, 6185, Note_off_c, 0, 51, 64
1, 6196, Note_off_c, 2, 44, 64
1, 6200, Note_off_c, 1, 44, 64
1, 6204, Note_off_c, 3, 68, 64
1, 6210, Note_on_c, 9, 40, 55
1, 6211, Note_off_c, 9, 40, 64
1, 6221, Note_on_c, 9, 40, 67
1, 6222, Note_off_c, 9, 40, 64
1, 6230, Lyric_t, "\012"
1, 6239, Note_off_c, 4, 56, 64
1, 6240, Note_on_c, 4, 56, 70
1, 6240, Note_on_c, 4, 51, 70
1, 6240, Note_on_c, 4, 60, 75
1, 6240, Note_on_c, 4, 53, 61
1, 6240, Note_on_c, 5, 63, 75
1, 6240, Note_on_c, 5, 68, 75
1, 6240, Note_on_c, 5, 72, 80
1, 6240, Note_on_c, 5, 65, 66
1, 6240, Note_on_c, 6, 32, 96
1, 6240, Note_on_c, 9, 40, 88
1, 6241, Note_off_c, 9, 40, 64
1, 6244, Note_on_c, 6, 44, 78
1, 6295, Note_off_c, 6, 44, 64
1, 6297, Note_off_c, 6, 32, 64
1, 6303, Note_off_c, 4, 53, 64
1, 6303, Note_off_c, 4, 60, 64
1, 6303, Note_off_c, 4, 56, 64
1, 6303, Note_off_c, 5, 65, 64
1, 6303, Note_off_c, 5, 72, 64
1, 6303, Note_off_c, 5, 68, 64
1, 6303, Note_on_c, 6, 44, 71
1, 6303, Note_on_c, 9, 49, 75
1, 6303, Note_on_c, 1, 44, 113
1, 6303, Note_on_c, 0, 51, 111
1, 6303, Note_on_c, 0, 44, 101
1, 6304, Note_off_c, 4, 51, 64
1, 6304, Note_on_c, 4, 60, 71
1, 6304, Note_on_c, 4, 56, 80
1, 6304, Note_on_c, 4, 63, 79
1, 6304, Note_on_c, 4, 53, 65
1, 6304, Note_off_c, 5, 63, 64
1, 6304, Note_on_c, 5, 68, 85
1, 6304, Note_on_c, 5, 72, 76
1, 6304, Note_on_c, 5, 75, 84
1, 6304, Note_on_c, 5, 65, 70
1, 6304, Note_off_c, 9, 49, 64
1, 6304, Note_on_c, 9, 40, 116
1, 6304, Note_on_c, 9, 36, 102
1, 6304, Note_on_c, 2, 44, 126
1, 6305, Note_off_c, 9, 36, 64
1, 6305, Note_off_c, 9, 40, 64
1, 6309, Note_on_c, 6, 32, 90
1, 6347, Note_off_c, 0, 44, 64
1, 6347, Note_off_c, 0, 51, 64
1, 6347, Note_off_c, 2, 44, 64
1, 6355, Note_off_c, 6, 44, 64
1, 6360, Note_off_c, 1, 44, 64
1, 6363, Note_off_c, 6, 32, 64
1, 6368, Note_off_c, 5, 65, 64
1, 6368, Note_off_c, 5, 68, 64
1, 6368, Note_off_c, 5, 72, 64
1, 6368, Note_off_c, 5, 75, 64
1, 6394, Note_off_c, 4, 53, 64
1, 6394, Note_off_c, 4, 60, 64
1, 6394, Note_off_c, 4, 56, 64
1, 6394, Note_off_c, 4, 63, 64
1, 6398, Lyric_t, "Well-"
1, 6398, Note_on_c, 3, 71, 103
1, 6400, Note_on_c, 9, 40, 78
1, 6401, Note_off_c, 9, 40, 64
1, 6431, Note_on_c, 1, 39, 116
1, 6432, Note_on_c, 9, 40, 112
1, 6433, Note_off_c, 9, 40, 64
1, 6485, Note_off_c, 3, 71, 64
1, 6494, Lyric_t, "a, "
1, 6494, Note_on_c, 3, 71, 101
1, 6496, Note_off_c, 1, 39, 64
1, 6497, Note_on_c, 9, 46, 84
1, 6498, Note_off_c, 9, 46, 64
1, 6520, Note_off_c, 3, 71, 64
1, 6528, Note_on_c, 9, 49, 82
1, 6528, Note_on_c, 9, 36, 102
1, 6528, Note_on_c, 1, 44, 114
1, 6528, Note_on_c, 0, 51, 83
1, 6529, Note_off_c, 9, 36, 64
1, 6529, Note_off_c, 9, 49, 64
1, 6529, Note_on_c, 0, 44, 81
1, 6529, Note_on_c, 2, 44, 123
1, 6531, Lyric_t, "you "
1, 6531, Note_on_c, 3, 71, 99
1, 6556, Note_off_c, 2, 44, 64
1, 6575, Note_off_c, 0, 44, 64
1, 6575, Note_off_c, 0, 51, 64
1, 6579, Note_off_c, 3, 71, 64
1, 6591, Lyric_t, "spend "
1, 6591, Note_on_c, 3, 72, 100
1, 6591, Note_on_c, 0, 51, 81
1, 6591, Note_on_c, 0, 44, 88
1, 6593, Note_on_c, 2, 44, 104
1, 6599, Note_off_c, 1, 44, 64
1, 6609, Note_off_c, 0, 51, 64
1, 6614, Note_off_c, 0, 44, 64
1, 6615, Note_off_c, 2, 44, 64
1, 6623, Note_on_c, 1, 41, 100
1, 6623, Note_on_c, 0, 44, 74
1, 6624, Note_off_c, 3, 72, 64
1, 6624, Note_on_c, 9, 40, 110
1, 6625, Note_off_c, 9, 40, 64
1, 6625, Note_on_c, 9, 46, 85
1, 6625, Note_on_c, 0, 53, 96
1, 6625, Note_on_c, 2, 53, 110
1, 6626, Note_off_c, 9, 46, 64
1, 6631, Lyric_t, "all "
1, 6631, Note_on_c, 3, 71, 90
1, 6660, Note_off_c, 2, 53, 64
1, 6664, Note_off_c, 0, 44, 64
1, 6669, Note_off_c, 0, 53, 64
1, 6675, Note_off_c, 3, 71, 64
1, 6683, Lyric_t, "my "
1, 6683, Note_on_c, 3, 72, 104
1, 6687, Note_on_c, 2, 53, 102
1, 6688, Note_on_c, 9, 46, 77
1, 6688, Note_on_c, 0, 44, 91
1, 6688, Note_on_c, 0, 53, 86
1, 6689, Note_off_c, 9, 46, 64
1, 6700, Note_off_c, 1, 41, 64
1, 6705, Note_off_c, 0, 53, 64
1, 6709, Note_off_c, 0, 44, 64
1, 6710, Note_off_c, 3, 72, 64
1, 6715, Note_off_c, 2, 53, 64
1, 6720, Note_on_c, 9, 36, 102
1, 6720, Note_on_c, 1, 39, 107
1, 6720, Note_on_c, 0, 51, 83
1, 6721, Note_off_c, 9, 36, 64
1, 6721, Note_on_c, 9, 46, 97
1, 6721, Note_on_c, 0, 44, 92
1, 6721, Note_on_c, 2, 51, 118
1, 6722, Note_off_c, 9, 46, 64
1, 6724, Lyric_t, "mon"
1, 6724, Note_on_c, 3, 68, 95
1, 6753, Note_off_c, 2, 51, 64
1, 6766, Note_off_c, 0, 44, 64
1, 6769, Note_off_c, 0, 51, 64
1, 6783, Note_on_c, 0, 51, 78
1, 6783, Note_on_c, 2, 51, 102
1, 6785, Note_on_c, 0, 44, 89
1, 6795, Note_off_c, 1, 39, 64
1, 6799, Note_off_c, 0, 44, 64
1, 6802, Note_off_c, 0, 51, 64
1, 6806, Note_off_c, 2, 51, 64
1, 6808, Note_off_c, 3, 68, 64
1, 6815, Note_on_c, 1, 41, 102
1, 6815, Note_on_c, 0, 53, 97
1, 6815, Note_on_c, 0, 44, 91
1, 6815, Note_on_c, 2, 53, 118
1, 6816, Lyric_t, "ey "
1, 6816, Note_on_c, 3, 65, 99
1, 6816, Note_on_c, 9, 40, 114
1, 6817, Note_off_c, 9, 40, 64
1, 6817, Note_on_c, 9, 46, 82
1, 6818, Note_off_c, 9, 46, 64
1, 6858, Note_off_c, 0, 44, 64
1, 6858, Note_off_c, 2, 53, 64
1, 6861, Note_off_c, 0, 53, 64
1, 6870, Note_off_c, 3, 65, 64
1, 6879, Note_on_c, 0, 53, 88
1, 6879, Note_on_c, 0, 44, 89
1, 6880, Note_on_c, 3, 63, 92
1, 6880, Note_on_c, 6, 39, 113
1, 6880, Note_on_c, 9, 46, 77
1, 6880, Note_on_c, 2, 51, 107
1, 6881, Note_off_c, 9, 46, 64
1, 6892, Note_off_c, 1, 41, 64
1, 6899, Note_off_c, 0, 44, 64
1, 6899, Note_off_c, 0, 53, 64
1, 6900, Note_off_c, 2, 51, 64
1, 6903, Note_off_c, 3, 63, 64
1, 6911, Note_on_c, 1, 44, 111
1, 6911, Note_on_c, 0, 51, 91
1, 6912, Note_on_c, 9, 46, 97
1, 6912, Note_on_c, 9, 36, 102
1, 6913, Note_off_c, 9, 36, 64
1, 6913, Note_off_c, 9, 46, 64
1, 6913, Note_on_c, 0, 44, 87
1, 6913, Note_on_c, 2, 44, 123
1, 6915, Note_off_c, 6, 39, 64
1, 6915, Note_on_c, 6, 32, 70
1, 6940, Note_off_c, 2, 44, 64
1, 6950, Note_off_c, 0, 44, 64
1, 6955, Note_off_c, 0, 51, 64
1, 6975, Note_on_c, 0, 51, 77
1, 6975, Note_on_c, 0, 44, 88
1, 6976, Note_on_c, 4, 56, 58
1, 6976, Note_on_c, 4, 53, 58
1, 6976, Note_on_c, 4, 60, 58
1, 6977, Lyric_t, "too "
1, 6977, Note_on_c, 3, 68, 101
1, 6977, Note_on_c, 2, 44, 104
1, 6985, Note_off_c, 1, 44, 64
1, 6989, Note_off_c, 0, 44, 64
1, 6989, Note_off_c, 0, 51, 64
1, 6993, Note_off_c, 6, 32, 64
1, 6999, Note_off_c, 2, 44, 64
1, 7007, Note_on_c, 1, 41, 94
1, 7007, Note_on_c, 0, 53, 94
1, 7007, Note_on_c, 0, 44, 82
1, 7008, Note_on_c, 9, 40, 110
1, 7008, Note_on_c, 9, 46, 85
1, 7009, Note_off_c, 9, 46, 64
1, 7009, Note_off_c, 9, 40, 64
1, 7009, Note_on_c, 2, 53, 110
1, 7038, Note_off_c, 3, 68, 64
1, 7044, Note_off_c, 2, 53, 64
1, 7050, Note_off_c, 0, 44, 64
1, 7050, Note_off_c, 0, 53, 64
1, 7071, Lyric_t, "much. "
1, 7071, Lyric_t, "\015"
1, 7071, Note_on_c, 3, 72, 100
1, 7071, Note_off_c, 4, 60, 64
1, 7071, Note_off_c, 4, 56, 64
1, 7071, Note_on_c, 9, 46, 63
1, 7071, Note_on_c, 0, 53, 80
1, 7071, Note_on_c, 0, 44, 85
1, 7071, Note_on_c, 2, 53, 102
1, 7072, Note_off_c, 4, 53, 64
1, 7072, Note_on_c, 4, 60, 58
1, 7072, Note_on_c, 4, 63, 58
1, 7072, Note_on_c, 4, 56, 58
1, 7072, Note_off_c, 9, 46, 64
1, 7086, Note_off_c, 1, 41, 64
1, 7087, Note_off_c, 0, 44, 64
1, 7087, Note_off_c, 0, 53, 64
1, 7099, Note_off_c, 2, 53, 64
1, 7103, Note_on_c, 9, 46, 99
1, 7103, Note_on_c, 1, 39, 107
1, 7103, Note_on_c, 0, 51, 88
1, 7104, Note_off_c, 9, 46, 64
1, 7104, Note_on_c, 9, 36, 102
1, 7104, Note_on_c, 0, 44, 84
1, 7105, Note_off_c, 9, 36, 64
1, 7105, Note_on_c, 2, 51, 118
1, 7109, Note_off_c, 3, 72, 64
1, 7137, Note_off_c, 2, 51, 64
1, 7148, Note_off_c, 0, 44, 64
1, 7150, Note_off_c, 0, 51, 64
1, 7167, Note_on_c, 0, 51, 81
1, 7167, Note_on_c, 2, 51, 102
1, 7169, Note_on_c, 0, 44, 83
1, 7182, Note_off_c, 1, 39, 64
1, 7182, Note_off_c, 0, 44, 64
1, 7184, Note_off_c, 0, 51, 64
1, 7190, Note_off_c, 2, 51, 64
1, 7199, Note_on_c, 1, 41, 100
1, 7199, Note_on_c, 0, 44, 78
1, 7199, Note_on_c, 0, 53, 101
1, 7199, Note_on_c, 2, 53, 118
1, 7200, Note_off_c, 4, 56, 64
1, 7200, Note_off_c, 4, 63, 64
1, 7200, Note_off_c, 4, 60, 64
1, 7200, Note_on_c, 9, 40, 114
1, 7201, Note_off_c, 9, 40, 64
1, 7201, Note_on_c, 9, 46, 82
1, 7202, Note_off_c, 9, 46, 64
1, 7234, Note_off_c, 0, 44, 64
1, 7237, Note_off_c, 0, 53, 64
1, 7242, Note_off_c, 2, 53, 64
1, 7261, Lyric_t, "I "
1, 7261, Note_on_c, 3, 71, 102
1, 7263, Note_on_c, 0, 51, 82
1, 7263, Note_on_c, 0, 44, 97
1, 7264, Note_on_c, 9, 46, 63
1, 7264, Note_on_c, 2, 51, 107
1, 7265, Note_off_c, 9, 46, 64
1, 7277, Note_off_c, 1, 41, 64
1, 7279, Note_off_c, 0, 51, 64
1, 7284, Note_off_c, 2, 51, 64
1, 7289, Note_off_c, 0, 44, 64
1, 7292, Note_off_c, 3, 71, 64
1, 7295, Note_on_c, 1, 44, 110
1, 7295, Note_on_c, 0, 51, 103
1, 7295, Note_on_c, 0, 44, 58
1, 7296, Note_on_c, 9, 46, 93
1, 7296, Note_on_c, 9, 36, 102
1, 7297, Note_off_c, 9, 36, 64
1, 7297, Note_off_c, 9, 46, 64
1, 7297, Note_on_c, 2, 44, 123
1, 7300, Lyric_t, "have "
1, 7300, Note_on_c, 3, 71, 94
1, 7324, Note_off_c, 2, 44, 64
1, 7342, Note_off_c, 0, 44, 64
1, 7345, Note_off_c, 0, 51, 64
1, 7350, Note_off_c, 3, 71, 64
1, 7358, Lyric_t, "to "
1, 7358, Note_on_c, 3, 72, 100
1, 7359, Note_on_c, 0, 51, 80
1, 7359, Note_on_c, 0, 44, 88
1, 7361, Note_on_c, 2, 44, 104
1, 7365, Note_off_c, 1, 44, 64
1, 7374, Note_off_c, 0, 51, 64
1, 7375, Note_off_c, 0, 44, 64
1, 7383, Note_off_c, 2, 44, 64
1, 7391, Note_on_c, 1, 41, 98
1, 7391, Note_on_c, 0, 53, 90
1, 7391, Note_on_c, 0, 44, 81
1, 7392, Note_off_c, 3, 72, 64
1, 7392, Note_on_c, 9, 40, 110
1, 7393, Note_off_c, 9, 40, 64
1, 7393, Note_on_c, 9, 46, 85
1, 7393, Note_on_c, 2, 53, 110
1, 7394, Note_off_c, 9, 46, 64
1, 7397, Lyric_t, "share "
1, 7397, Note_on_c, 3, 71, 92
1, 7428, Note_off_c, 2, 53, 64
1, 7432, Note_off_c, 0, 44, 64
1, 7437, Note_off_c, 0, 53, 64
1, 7443, Note_off_c, 3, 71, 64
1, 7451, Lyric_t, "you, "
1, 7451, Note_on_c, 3, 72, 103
1, 7455, Note_on_c, 0, 53, 80
1, 7455, Note_on_c, 0, 44, 91
1, 7455, Note_on_c, 2, 53, 102
1, 7468, Note_off_c, 1, 41, 64
1, 7470, Note_off_c, 0, 53, 64
1, 7472, Note_off_c, 0, 44, 64
1, 7478, Note_off_c, 3, 72, 64
1, 7483, Note_off_c, 2, 53, 64
1, 7487, Note_on_c, 1, 39, 99
1, 7487, Note_on_c, 0, 51, 89
1, 7488, Note_on_c, 9, 36, 102
1, 7488, Note_on_c, 0, 44, 75
1, 7489, Note_off_c, 9, 36, 64
1, 7489, Note_on_c, 9, 46, 97
1, 7489, Note_on_c, 2, 51, 118
1, 7490, Note_off_c, 9, 46, 64
1, 7493, Lyric_t, "hon"
1, 7493, Note_on_c, 3, 68, 101
1, 7521, Note_off_c, 2, 51, 64
1, 7530, Note_off_c, 0, 44, 64
1, 7532, Note_off_c, 0, 51, 64
1, 7551, Note_on_c, 2, 51, 102
1, 7552, Note_on_c, 0, 51, 80
1, 7552, Note_on_c, 0, 44, 78
1, 7564, Note_off_c, 3, 68, 64
1, 7565, Note_off_c, 0, 44, 64
1, 7565, Note_off_c, 0, 51, 64
1, 7568, Note_off_c, 1, 39, 64
1, 7574, Note_off_c, 2, 51, 64
1, 7582, Lyric_t, "ey, "
1, 7582, Note_on_c, 3, 65, 98
1, 7583, Note_on_c, 1, 41, 97
1, 7583, Note_on_c, 0, 53, 90
1, 7583, Note_on_c, 0, 44, 85
1, 7583, Note_on_c, 2, 53, 118
1, 7584, Note_on_c, 9, 40, 114
1, 7585, Note_off_c, 9, 40, 64
1, 7585, Note_on_c, 9, 46, 82
1, 7586, Note_off_c, 9, 46, 64
1, 7621, Note_off_c, 0, 44, 64
1, 7624, Note_off_c, 0, 53, 64
1, 7626, Note_off_c, 2, 53, 64
1, 7633, Note_off_c, 3, 65, 64
1, 7642, Note_on_c, 3, 63, 97
1, 7644, Note_on_c, 6, 39, 101
1, 7647, Note_on_c, 0, 51, 79
1, 7647, Note_on_c, 0, 44, 89
1, 7648, Note_on_c, 9, 46, 63
1, 7648, Note_on_c, 2, 51, 107
1, 7649, Note_off_c, 9, 46, 64
1, 7664, Note_off_c, 1, 41, 64
1, 7664, Note_off_c, 0, 51, 64
1, 7666, Note_off_c, 0, 44, 64
1, 7668, Note_off_c, 2, 51, 64
1, 7671, Note_off_c, 3, 63, 64
1, 7675, Note_off_c, 6, 39, 64
1, 7679, Note_on_c, 1, 44, 99
1, 7679, Note_on_c, 0, 51, 68
1, 7679, Note_on_c, 0, 44, 71
1, 7680, Note_on_c, 9, 46, 97
1, 7680, Note_on_c, 9, 36, 102
1, 7681, Note_off_c, 9, 36, 64
1, 7681, Note_off_c, 9, 46, 64
1, 7681, Note_on_c, 2, 44, 123
1, 7682, Note_on_c, 6, 32, 93
1, 7708, Note_off_c, 2, 44, 64
1, 7714, Note_off_c, 0, 44, 64
1, 7721, Note_off_c, 0, 51, 64
1, 7743, Note_on_c, 0, 51, 88
1, 7743, Note_on_c, 0, 44, 85
1, 7744, Note_on_c, 4, 56, 58
1, 7744, Note_on_c, 4, 53, 58
1, 7744, Note_on_c, 4, 60, 58
1, 7745, Note_on_c, 2, 44, 104
1, 7747, Lyric_t, "too "
1, 7747, Note_on_c, 3, 68, 104
1, 7756, Note_off_c, 0, 44, 64
1, 7757, Note_off_c, 0, 51, 64
1, 7758, Note_off_c, 6, 32, 64
1, 7759, Note_off_c, 1, 44, 64
1, 7767, Note_off_c, 2, 44, 64
1, 7775, Note_on_c, 1, 41, 84
1, 7775, Note_on_c, 0, 53, 105
1, 7775, Note_on_c, 0, 44, 92
1, 7776, Note_on_c, 9, 40, 110
1, 7777, Note_off_c, 9, 40, 64
1, 7777, Note_on_c, 9, 46, 78
1, 7777, Note_on_c, 2, 53, 110
1, 7778, Note_off_c, 9, 46, 64
1, 7793, Note_off_c, 3, 68, 64
1, 7812, Note_off_c, 2, 53, 64
1, 7818, Note_off_c, 0, 44, 64
1, 7822, Note_off_c, 0, 53, 64
1, 7839, Note_off_c, 4, 60, 64
1, 7839, Note_off_c, 4, 56, 64
1, 7839, Note_on_c, 0, 53, 83
1, 7839, Note_on_c, 0, 44, 94
1, 7839, Note_on_c, 2, 53, 102
1, 7840, Lyric_t, "much. "
1, 7840, Lyric_t, "\015"
1, 7840, Note_on_c, 3, 72, 101
1, 7840, Note_off_c, 4, 53, 64
1, 7840, Note_on_c, 4, 60, 58
1, 7840, Note_on_c, 4, 56, 58
1, 7840, Note_on_c, 4, 63, 58
1, 7840, Note_on_c, 9, 46, 63
1, 7841, Note_off_c, 9, 46, 64
1, 7858, Note_off_c, 1, 41, 64
1, 7859, Note_off_c, 0, 44, 64
1, 7859, Note_off_c, 0, 53, 64
1, 7867, Note_off_c, 2, 53, 64
1, 7871, Note_on_c, 9, 46, 99
1, 7871, Note_on_c, 1, 39, 107
1, 7871, Note_on_c, 0, 51, 94
1, 7871, Note_on_c, 0, 44, 84
1, 7872, Note_off_c, 9, 46, 64
1, 7872, Note_on_c, 9, 36, 102
1, 7873, Note_off_c, 9, 36, 64
1, 7873, Note_on_c, 2, 51, 118
1, 7893, Note_off_c, 3, 72, 64
1, 7905, Note_off_c, 2, 51, 64
1, 7908, Note_off_c, 0, 44, 64
1, 7914, Note_off_c, 0, 51, 64
1, 7915, Lyric_t, "\012"
1, 7935, Note_on_c, 0, 44, 87
1, 7935, Note_on_c, 0, 51, 81
1, 7935, Note_on_c, 2, 51, 102
1, 7936, Note_on_c, 9, 40, 98
1, 7937, Note_off_c, 9, 40, 64
1, 7947, Note_off_c, 0, 51, 64
1, 7949, Note_off_c, 0, 44, 64
1, 7950, Note_off_c, 1, 39, 64
1, 7958, Note_off_c, 2, 51, 64
1, 7967, Note_on_c, 1, 44, 100
1, 7967, Note_on_c, 0, 53, 104
1, 7967, Note_on_c, 0, 44, 75
1, 7967, Note_on_c, 2, 53, 118
1, 7968, Note_off_c, 4, 63, 64
1, 7968, Note_off_c, 4, 56, 64
1, 7968, Note_off_c, 4, 60, 64
1, 7968, Note_on_c, 9, 40, 114
1, 7969, Note_off_c, 9, 40, 64
1, 8001, Note_off_c, 0, 53, 64
1, 8004, Note_off_c, 0, 44, 64
1, 8010, Note_off_c, 2, 53, 64
1, 8030, Note_on_c, 0, 44, 85
1, 8030, Note_on_c, 0, 53, 77
1, 8032, Note_on_c, 2, 51, 107
1, 8039, Note_off_c, 0, 53, 64
1, 8039, Note_off_c, 0, 44, 64
1, 8050, Note_off_c, 1, 44, 64
1, 8052, Note_off_c, 2, 51, 64
1, 8063, Lyric_t, "When "
1, 8063, Note_on_c, 3, 70, 98
1, 8063, Note_on_c, 0, 37, 107
1, 8063, Note_on_c, 0, 44, 58
1, 8064, Note_on_c, 9, 46, 93
1, 8064, Note_on_c, 9, 36, 102
1, 8064, Note_on_c, 1, 37, 111
1, 8065, Note_off_c, 9, 36, 64
1, 8065, Note_off_c, 9, 46, 64
1, 8065, Note_on_c, 2, 49, 119
1, 8097, Note_off_c, 2, 49, 64
1, 8102, Note_off_c, 0, 37, 64
1, 8106, Note_off_c, 0, 44, 64
1, 8117, Note_off_c, 3, 70, 64
1, 8127, Lyric_t, "I "
1, 8127, Note_on_c, 3, 71, 103
1, 8127, Note_on_c, 0, 37, 101
1, 8127, Note_on_c, 0, 44, 89
1, 8128, Note_on_c, 9, 46, 70
1, 8129, Note_off_c, 9, 46, 64
1, 8129, Note_on_c, 2, 49, 108
1, 8141, Note_off_c, 0, 44, 64
1, 8142, Note_off_c, 1, 37, 64
1, 8147, Note_off_c, 2, 49, 64
1, 8148, Note_off_c, 0, 37, 64
1, 8154, Note_off_c, 3, 71, 64
1, 8159, Note_on_c, 0, 46, 92
1, 8160, Note_on_c, 9, 40, 110
1, 8160, Note_on_c, 1, 41, 103
1, 8161, Note_off_c, 9, 40, 64
1, 8161, Note_on_c, 9, 46, 85
1, 8161, Note_on_c, 0, 37, 99
1, 8161, Note_on_c, 2, 58, 116
1, 8162, Note_off_c, 9, 46, 64
1, 8165, Lyric_t, "want "
1, 8165, Note_on_c, 3, 70, 88
1, 8194, Note_off_c, 2, 58, 64
1, 8203, Note_off_c, 0, 37, 64
1, 8212, Note_off_c, 0, 46, 64
1, 8213, Note_off_c, 3, 70, 64
1, 8222, Lyric_t, "some "
1, 8222, Note_on_c, 3, 71, 97
1, 8223, Note_on_c, 2, 58, 104
1, 8225, Note_on_c, 9, 46, 63
1, 8225, Note_on_c, 0, 37, 92
1, 8225, Note_on_c, 0, 46, 97
1, 8226, Note_off_c, 9, 46, 64
1, 8239, Note_off_c, 1, 41, 64
1, 8242, Note_off_c, 0, 46, 64
1, 8246, Note_off_c, 0, 37, 64
1, 8247, Note_off_c, 3, 71, 64
1, 8250, Note_off_c, 2, 58, 64
1, 8255, Note_on_c, 1, 44, 107
1, 8256, Lyric_t, "lov"
1, 8256, Note_on_c, 3, 68, 93
1, 8256, Note_on_c, 9, 36, 102
1, 8257, Note_off_c, 9, 36, 64
1, 8257, Note_on_c, 9, 46, 97
1, 8257, Note_on_c, 0, 44, 87
1, 8257, Note_on_c, 0, 37, 91
1, 8257, Note_on_c, 2, 56, 112
1, 8258, Note_off_c, 9, 46, 64
1, 8293, Note_off_c, 2, 56, 64
1, 8301, Note_off_c, 0, 37, 64
1, 8302, Note_off_c, 0, 44, 64
1, 8319, Note_on_c, 2, 56, 102
1, 8320, Note_on_c, 0, 44, 70
1, 8321, Note_on_c, 0, 37, 83
1, 8332, Note_off_c, 1, 44, 64
1, 8333, Note_off_c, 0, 44, 64
1, 8334, Note_off_c, 0, 37, 64
1, 8339, Note_off_c, 3, 68, 64
1, 8344, Note_off_c, 2, 56, 64
1, 8351, Note_on_c, 1, 46, 101
1, 8351, Note_on_c, 0, 46, 82
1, 8351, Note_on_c, 0, 37, 91
1, 8352, Lyric_t, "in', "
1, 8352, Note_on_c, 3, 65, 96
1, 8352, Note_on_c, 9, 40, 114
1, 8352, Note_on_c, 2, 58, 111
1, 8353, Note_off_c, 9, 40, 64
1, 8353, Note_on_c, 9, 46, 82
1, 8354, Note_off_c, 9, 46, 64
1, 8396, Note_off_c, 0, 37, 64
1, 8396, Note_off_c, 0, 46, 64
1, 8400, Note_off_c, 2, 58, 64
1, 8408, Note_off_c, 3, 65, 64
1, 8414, Note_on_c, 6, 44, 97
1, 8415, Note_on_c, 3, 63, 94
1, 8415, Note_on_c, 0, 37, 99
1, 8415, Note_on_c, 0, 46, 72
1, 8415, Note_on_c, 2, 56, 107
1, 8416, Note_on_c, 9, 46, 77
1, 8417, Note_off_c, 9, 46, 64
1, 8431, Note_off_c, 0, 46, 64
1, 8431, Note_off_c, 0, 37, 64
1, 8433, Note_off_c, 1, 46, 64
1, 8438, Note_off_c, 2, 56, 64
1, 8443, Note_off_c, 6, 44, 64
1, 8447, Note_on_c, 0, 44, 83
1, 8448, Note_on_c, 9, 46, 97
1, 8448, Note_on_c, 9, 36, 102
1, 8448, Note_on_c, 0, 37, 88
1, 8448, Note_on_c, 2, 49, 119
1, 8449, Note_off_c, 3, 63, 64
1, 8449, Note_on_c, 6, 37, 89
1, 8449, Note_off_c, 9, 36, 64
1, 8449, Note_off_c, 9, 46, 64
1, 8449, Note_on_c, 1, 37, 98
1, 8480, Note_off_c, 2, 49, 64
1, 8488, Note_off_c, 0, 37, 64
1, 8490, Note_off_c, 0, 44, 64
1, 8511, Note_on_c, 0, 44, 78
1, 8511, Note_on_c, 0, 37, 94
1, 8512, Note_on_c, 4, 59, 58
1, 8512, Note_on_c, 4, 53, 58
1, 8512, Note_on_c, 4, 56, 58
1, 8513, Note_on_c, 2, 49, 108
1, 8517, Lyric_t, "you're "
1, 8517, Note_on_c, 3, 68, 103
1, 8525, Note_off_c, 0, 37, 64
1, 8525, Note_off_c, 0, 44, 64
1, 8531, Note_off_c, 1, 37, 64
1, 8531, Note_off_c, 2, 49, 64
1, 8533, Note_off_c, 6, 37, 64
1, 8543, Note_on_c, 0, 37, 95
1, 8543, Note_on_c, 0, 46, 84
1, 8544, Note_on_c, 9, 40, 110
1, 8545, Note_off_c, 9, 40, 64
1, 8545, Note_on_c, 9, 46, 78
1, 8545, Note_on_c, 1, 41, 97
1, 8545, Note_on_c, 2, 58, 116
1, 8546, Note_off_c, 9, 46, 64
1, 8562, Note_off_c, 3, 68, 64
1, 8578, Note_off_c, 2, 58, 64
1, 8586, Note_off_c, 0, 46, 64
1, 8586, Note_off_c, 0, 37, 64
1, 8607, Note_off_c, 4, 56, 64
1, 8607, Note_off_c, 4, 59, 64
1, 8607, Note_on_c, 9, 46, 63
1, 8607, Note_on_c, 0, 46, 77
1, 8607, Note_on_c, 0, 37, 91
1, 8607, Note_on_c, 2, 58, 104
1, 8608, Note_off_c, 4, 53, 64
1, 8608, Note_on_c, 4, 63, 58
1, 8608, Note_on_c, 4, 59, 58
1, 8608, Note_on_c, 4, 56, 58
1, 8608, Note_off_c, 9, 46, 64
1, 8609, Lyric_t, "gone. "
1, 8609, Lyric_t, "\015"
1, 8609, Note_on_c, 3, 71, 102
1, 8619, Note_off_c, 1, 41, 64
1, 8623, Note_off_c, 0, 46, 64
1, 8625, Note_off_c, 0, 37, 64
1, 8634, Note_off_c, 2, 58, 64
1, 8639, Note_on_c, 9, 46, 99
1, 8639, Note_on_c, 0, 44, 87
1, 8640, Note_off_c, 9, 46, 64
1, 8640, Note_on_c, 9, 36, 102
1, 8640, Note_on_c, 0, 37, 95
1, 8641, Note_off_c, 9, 36, 64
1, 8641, Note_on_c, 1, 44, 99
1, 8641, Note_on_c, 2, 56, 112
1, 8659, Note_off_c, 3, 71, 64
1, 8677, Note_off_c, 2, 56, 64
1, 8685, Note_off_c, 0, 37, 64
1, 8685, Note_off_c, 0, 44, 64
1, 8703, Note_on_c, 0, 44, 83
1, 8703, Note_on_c, 2, 56, 102
1, 8705, Note_on_c, 0, 37, 94
1, 8717, Note_off_c, 0, 37, 64
1, 8718, Note_off_c, 1, 44, 64
1, 8721, Note_off_c, 0, 44, 64
1, 8728, Note_off_c, 2, 56, 64
1, 8735, Note_on_c, 0, 46, 89
1, 8736, Note_off_c, 4, 56, 64
1, 8736, Note_off_c, 4, 59, 64
1, 8736, Note_off_c, 4, 63, 64
1, 8736, Note_on_c, 9, 40, 114
1, 8736, Note_on_c, 1, 46, 95
1, 8736, Note_on_c, 2, 58, 111
1, 8737, Note_off_c, 9, 40, 64
1, 8737, Note_on_c, 9, 46, 82
1, 8737, Note_on_c, 0, 37, 97
1, 8738, Note_off_c, 9, 46, 64
1, 8766, Note_off_c, 0, 37, 64
1, 8769, Note_off_c, 0, 46, 64
1, 8784, Note_off_c, 2, 58, 64
1, 8798, Note_on_c, 0, 37, 71
1, 8799, Note_on_c, 0, 46, 70
1, 8799, Note_on_c, 2, 56, 107
1, 8800, Note_on_c, 9, 36, 72
1, 8801, Note_off_c, 9, 36, 64
1, 8801, Note_on_c, 9, 46, 84
1, 8802, Note_off_c, 9, 46, 64
1, 8806, Note_off_c, 1, 46, 64
1, 8812, Note_off_c, 0, 46, 64
1, 8812, Note_off_c, 0, 37, 64
1, 8822, Note_off_c, 2, 56, 64
1, 8831, Note_on_c, 0, 51, 77
1, 8832, Note_on_c, 9, 46, 93
1, 8832, Note_on_c, 9, 36, 102
1, 8832, Note_on_c, 0, 44, 66
1, 8833, Lyric_t, "Don't "
1, 8833, Note_on_c, 3, 71, 91
1, 8833, Note_off_c, 9, 36, 64
1, 8833, Note_off_c, 9, 46, 64
1, 8833, Note_on_c, 1, 32, 113
1, 8833, Note_on_c, 2, 44, 123
1, 8860, Note_off_c, 2, 44, 64
1, 8865, Note_off_c, 0, 44, 64
1, 8868, Note_off_c, 0, 51, 64
1, 8881, Note_off_c, 3, 71, 64
1, 8894, Lyric_t, "you "
1, 8894, Note_on_c, 3, 72, 100
1, 8895, Note_on_c, 0, 51, 78
1, 8895, Note_on_c, 0, 44, 89
1, 8897, Note_on_c, 2, 44, 104
1, 8910, Note_off_c, 0, 51, 64
1, 8911, Note_off_c, 0, 44, 64
1, 8914, Note_off_c, 1, 32, 64
1, 8919, Note_off_c, 2, 44, 64
1, 8927, Note_on_c, 0, 53, 93
1, 8927, Note_on_c, 0, 44, 94
1, 8928, Note_on_c, 9, 40, 110
1, 8929, Note_off_c, 3, 72, 64
1, 8929, Note_off_c, 9, 40, 64
1, 8929, Note_on_c, 9, 46, 85
1, 8929, Note_on_c, 1, 36, 100
1, 8929, Note_on_c, 2, 53, 110
1, 8930, Note_off_c, 9, 46, 64
1, 8936, Lyric_t, "know "
1, 8936, Note_on_c, 3, 71, 90
1, 8964, Note_off_c, 2, 53, 64
1, 8973, Note_off_c, 0, 44, 64
1, 8979, Note_off_c, 0, 53, 64
1, 8980, Note_off_c, 3, 71, 64
1, 8988, Lyric_t, "you're "
1, 8988, Note_on_c, 3, 72, 102
1, 8991, Note_on_c, 2, 53, 102
1, 8993, Note_on_c, 9, 46, 77
1, 8993, Note_on_c, 0, 53, 86
1, 8993, Note_on_c, 0, 44, 83
1, 8994, Note_off_c, 9, 46, 64
1, 9006, Note_off_c, 1, 36, 64
1, 9009, Note_off_c, 0, 44, 64
1, 9009, Note_off_c, 0, 53, 64
1, 9019, Note_off_c, 2, 53, 64
1, 9024, Note_on_c, 9, 36, 102
1, 9024, Note_on_c, 1, 39, 107
1, 9025, Note_off_c, 3, 72, 64
1, 9025, Note_off_c, 9, 36, 64
1, 9025, Note_on_c, 9, 46, 97
1, 9025, Note_on_c, 0, 51, 92
1, 9025, Note_on_c, 0, 44, 83
1, 9025, Note_on_c, 2, 51, 118
1, 9026, Note_off_c, 9, 46, 64
1, 9035, Lyric_t, "treat"
1, 9035, Note_on_c, 3, 68, 94
1, 9057, Note_off_c, 2, 51, 64
1, 9064, Note_off_c, 0, 44, 64
1, 9070, Note_off_c, 0, 51, 64
1, 9087, Note_on_c, 2, 51, 102
1, 9089, Note_on_c, 0, 44, 88
1, 9089, Note_on_c, 0, 51, 84
1, 9101, Note_off_c, 1, 39, 64
1, 9101, Note_off_c, 0, 51, 64
1, 9106, Note_off_c, 0, 44, 64
1, 9110, Note_off_c, 2, 51, 64
1, 9115, Note_off_c, 3, 68, 64
1, 9119, Note_on_c, 0, 53, 100
1, 9119, Note_on_c, 2, 53, 118
1, 9120, Note_on_c, 9, 40, 114
1, 9120, Note_on_c, 1, 41, 107
1, 9121, Note_off_c, 9, 40, 64
1, 9121, Note_on_c, 0, 44, 84
1, 9122, Lyric_t, "in' "
1, 9122, Lyric_t, "\015"
1, 9122, Note_on_c, 3, 65, 94
1, 9162, Note_off_c, 2, 53, 64
1, 9163, Note_off_c, 0, 44, 64
1, 9167, Note_off_c, 0, 53, 64
1, 9171, Note_off_c, 3, 65, 64
1, 9181, Note_on_c, 3, 63, 94
1, 9183, Note_on_c, 0, 53, 82
1, 9184, Note_on_c, 9, 46, 89
1, 9184, Note_on_c, 9, 36, 77
1, 9184, Note_on_c, 2, 51, 107
1, 9185, Note_on_c, 6, 39, 101
1, 9185, Note_off_c, 9, 36, 64
1, 9185, Note_off_c, 9, 46, 64
1, 9185, Note_on_c, 0, 44, 84
1, 9196, Note_off_c, 1, 41, 64
1, 9199, Note_off_c, 0, 44, 64
1, 9200, Note_off_c, 0, 53, 64
1, 9204, Note_off_c, 2, 51, 64
1, 9208, Note_off_c, 6, 39, 64
1, 9216, Note_off_c, 3, 63, 64
1, 9216, Note_on_c, 9, 46, 97
1, 9216, Note_on_c, 9, 36, 102
1, 9216, Note_on_c, 0, 51, 77
1, 9217, Note_off_c, 9, 36, 64
1, 9217, Note_off_c, 9, 46, 64
1, 9217, Note_on_c, 1, 44, 116
1, 9217, Note_on_c, 0, 44, 85
1, 9217, Note_on_c, 2, 44, 123
1, 9219, Note_on_c, 6, 32, 72
1, 9244, Note_off_c, 2, 44, 64
1, 9260, Note_off_c, 0, 44, 64
1, 9263, Note_off_c, 0, 51, 64
1, 9280, Note_on_c, 4, 56, 58
1, 9280, Note_on_c, 4, 53, 58
1, 9280, Note_on_c, 4, 60, 58
1, 9281, Note_on_c, 0, 51, 82
1, 9281, Note_on_c, 0, 44, 89
1, 9281, Note_on_c, 2, 44, 104
1, 9282, Lyric_t, "your "
1, 9282, Note_on_c, 3, 68, 99
1, 9293, Note_off_c, 0, 44, 64
1, 9294, Note_off_c, 1, 44, 64
1, 9297, Note_off_c, 0, 51, 64
1, 9303, Note_off_c, 2, 44, 64
1, 9305, Note_off_c, 6, 32, 64
1, 9309, Note_off_c, 3, 68, 64
1, 9312, Note_on_c, 9, 40, 110
1, 9313, Note_off_c, 9, 40, 64
1, 9313, Note_on_c, 1, 41, 107
1, 9313, Note_on_c, 0, 53, 90
1, 9313, Note_on_c, 0, 44, 81
1, 9313, Note_on_c, 2, 53, 110
1, 9322, Lyric_t, "dad"
1, 9322, Note_on_c, 3, 68, 97
1, 9348, Note_off_c, 2, 53, 64
1, 9355, Note_off_c, 0, 44, 64
1, 9358, Note_off_c, 0, 53, 64
1, 9370, Note_off_c, 3, 68, 64
1, 9374, Lyric_t, "dy "
1, 9374, Note_on_c, 3, 68, 98
1, 9375, Note_on_c, 2, 53, 102
1, 9376, Note_on_c, 9, 46, 88
1, 9377, Note_off_c, 9, 46, 64
1, 9377, Note_on_c, 0, 44, 84
1, 9377, Note_on_c, 0, 53, 87
1, 9389, Note_off_c, 1, 41, 64
1, 9392, Note_off_c, 0, 53, 64
1, 9392, Note_off_c, 0, 44, 64
1, 9402, Note_off_c, 3, 68, 64
1, 9403, Note_off_c, 2, 53, 64
1, 9407, Note_off_c, 4, 60, 64
1, 9407, Note_off_c, 4, 56, 64
1, 9407, Note_on_c, 9, 46, 99
1, 9408, Note_off_c, 4, 53, 64
1, 9408, Note_on_c, 4, 60, 58
1, 9408, Note_on_c, 4, 63, 58
1, 9408, Note_on_c, 4, 56, 58
1, 9408, Note_off_c, 9, 46, 64
1, 9408, Note_on_c, 9, 36, 102
1, 9409, Note_off_c, 9, 36, 64
1, 9409, Note_on_c, 1, 39, 113
1, 9409, Note_on_c, 0, 51, 95
1, 9409, Note_on_c, 0, 44, 87
1, 9409, Note_on_c, 2, 51, 118
1, 9417, Lyric_t, "wrong? "
1, 9417, Lyric_t, "\015"
1, 9417, Note_on_c, 3, 72, 97
1, 9441, Note_off_c, 2, 51, 64
1, 9450, Note_off_c, 0, 44, 64
1, 9452, Note_off_c, 0, 51, 64
1, 9468, Note_off_c, 3, 72, 64
1, 9471, Note_on_c, 0, 51, 81
1, 9471, Note_on_c, 0, 44, 84
1, 9471, Note_on_c, 2, 51, 102
1, 9479, Lyric_t, "\012"
1, 9483, Note_off_c, 1, 39, 64
1, 9486, Note_off_c, 0, 44, 64
1, 9490, Note_off_c, 0, 51, 64
1, 9494, Note_off_c, 2, 51, 64
1, 9503, Note_on_c, 2, 53, 118
1, 9504, Note_off_c, 4, 56, 64
1, 9504, Note_off_c, 4, 63, 64
1, 9504, Note_off_c, 4, 60, 64
1, 9504, Note_on_c, 9, 40, 114
1, 9504, Note_on_c, 9, 46, 82
1, 9504, Note_on_c, 0, 53, 100
1, 9505, Note_off_c, 9, 46, 64
1, 9505, Note_off_c, 9, 40, 64
1, 9505, Note_on_c, 1, 36, 108
1, 9505, Note_on_c, 0, 44, 91
1, 9533, Note_off_c, 0, 44, 64
1, 9533, Note_off_c, 0, 53, 64
1, 9546, Note_off_c, 2, 53, 64
1, 9562, Note_off_c, 1, 36, 64
1, 9567, Note_on_c, 0, 44, 81
1, 9568, Note_on_c, 9, 46, 82
1, 9568, Note_on_c, 9, 36, 77
1, 9568, Note_on_c, 2, 51, 107
1, 9569, Note_off_c, 9, 36, 64
1, 9569, Note_off_c, 9, 46, 64
1, 9574, Note_off_c, 0, 44, 64
1, 9588, Note_off_c, 2, 51, 64
1, 9599, Note_on_c, 0, 46, 68
1, 9599, Note_on_c, 0, 39, 95
1, 9600, Note_on_c, 5, 70, 82
1, 9600, Note_on_c, 5, 67, 87
1, 9600, Note_on_c, 5, 63, 67
1, 9600, Note_on_c, 5, 61, 73
1, 9600, Note_on_c, 9, 46, 93
1, 9600, Note_on_c, 9, 36, 102
1, 9600, Note_on_c, 1, 39, 113
1, 9601, Note_off_c, 9, 36, 64
1, 9601, Note_off_c, 9, 46, 64
1, 9601, Note_on_c, 2, 51, 120
1, 9603, Lyric_t, "Now "
1, 9603, Note_on_c, 3, 70, 84
1, 9631, Note_off_c, 2, 51, 64
1, 9640, Note_off_c, 0, 39, 64
1, 9642, Note_off_c, 0, 46, 64
1, 9650, Note_off_c, 3, 70, 64
1, 9661, Lyric_t, "you "
1, 9661, Note_on_c, 3, 70, 103
1, 9663, Note_on_c, 0, 39, 101
1, 9663, Note_on_c, 2, 51, 109
1, 9665, Note_on_c, 0, 46, 78
1, 9674, Note_off_c, 1, 39, 64
1, 9674, Note_off_c, 0, 46, 64
1, 9682, Note_off_c, 0, 39, 64
1, 9686, Note_off_c, 2, 51, 64
1, 9692, Note_off_c, 3, 70, 64
1, 9695, Note_on_c, 1, 43, 112
1, 9695, Note_on_c, 0, 48, 87
1, 9696, Note_on_c, 9, 40, 110
1, 9696, Note_on_c, 0, 39, 99
1, 9697, Note_off_c, 9, 40, 64
1, 9697, Note_on_c, 9, 46, 85
1, 9697, Note_on_c, 2, 60, 109
1, 9698, Note_off_c, 9, 46, 64
1, 9703, Lyric_t, "got "
1, 9703, Note_on_c, 3, 70, 88
1, 9736, Note_off_c, 0, 39, 64
1, 9736, Note_off_c, 2, 60, 64
1, 9737, Note_off_c, 0, 48, 64
1, 9749, Note_off_c, 3, 70, 64
1, 9759, Note_on_c, 0, 39, 91
1, 9759, Note_on_c, 2, 60, 104
1, 9760, Lyric_t, "me "
1, 9760, Note_on_c, 3, 70, 99
1, 9761, Note_on_c, 0, 48, 84
1, 9768, Note_off_c, 1, 43, 64
1, 9779, Note_off_c, 0, 48, 64
1, 9781, Note_off_c, 0, 39, 64
1, 9784, Note_off_c, 2, 60, 64
1, 9787, Note_off_c, 3, 70, 64
1, 9791, Note_on_c, 1, 46, 107
1, 9791, Note_on_c, 0, 46, 95
1, 9792, Note_on_c, 9, 36, 102
1, 9793, Note_off_c, 9, 36, 64
1, 9793, Note_on_c, 9, 46, 97
1, 9793, Note_on_c, 0, 39, 101
1, 9793, Note_on_c, 2, 58, 111
1, 9794, Note_off_c, 9, 46, 64
1, 9797, Lyric_t, "start"
1, 9797, Note_on_c, 3, 70, 89
1, 9827, Note_off_c, 2, 58, 64
1, 9835, Note_off_c, 0, 39, 64
1, 9835, Note_off_c, 0, 46, 64
1, 9849, Note_off_c, 3, 70, 64
1, 9855, Note_on_c, 0, 46, 85
1, 9855, Note_on_c, 0, 39, 103
1, 9855, Note_on_c, 2, 58, 91
1, 9860, Lyric_t, "ed, "
1, 9860, Lyric_t, "\015"
1, 9860, Note_on_c, 3, 70, 100
1, 9872, Note_off_c, 0, 46, 64
1, 9873, Note_off_c, 1, 46, 64
1, 9875, Note_off_c, 0, 39, 64
1, 9877, Note_off_c, 2, 58, 64
1, 9887, Note_on_c, 1, 48, 109
1, 9887, Note_on_c, 0, 48, 94
1, 9888, Note_on_c, 9, 40, 114
1, 9889, Note_off_c, 9, 40, 64
1, 9889, Note_on_c, 0, 39, 101
1, 9889, Note_on_c, 2, 60, 111
1, 9890, Note_off_c, 3, 70, 64
1, 9897, Lyric_t, "don't "
1, 9897, Note_on_c, 3, 70, 92
1, 9926, Note_off_c, 0, 39, 64
1, 9930, Note_off_c, 0, 48, 64
1, 9935, Note_off_c, 2, 60, 64
1, 9946, Note_off_c, 3, 70, 64
1, 9951, Note_on_c, 0, 39, 89
1, 9951, Note_on_c, 0, 48, 83
1, 9952, Lyric_t, "you "
1, 9952, Note_on_c, 3, 70, 96
1, 9952, Note_on_c, 9, 46, 77
1, 9952, Note_on_c, 9, 36, 77
1, 9952, Note_on_c, 2, 58, 94
1, 9953, Note_off_c, 9, 36, 64
1, 9953, Note_off_c, 9, 46, 64
1, 9964, Note_off_c, 0, 48, 64
1, 9966, Note_off_c, 0, 39, 64
1, 9967, Note_off_c, 1, 48, 64
1, 9978, Note_off_c, 2, 58, 64
1, 9983, Note_off_c, 5, 61, 64
1, 9983, Note_off_c, 5, 70, 64
1, 9983, Note_off_c, 5, 67, 64
1, 9983, Note_on_c, 0, 44, 69
1, 9983, Note_on_c, 0, 37, 97
1, 9984, Note_off_c, 3, 70, 64
1, 9984, Note_off_c, 5, 63, 64
1, 9984, Note_on_c, 5, 61, 68
1, 9984, Note_on_c, 5, 65, 77
1, 9984, Note_on_c, 5, 68, 84
1, 9984, Note_on_c, 5, 59, 65
1, 9984, Note_on_c, 9, 46, 97
1, 9984, Note_on_c, 9, 36, 102
1, 9985, Note_off_c, 9, 36, 64
1, 9985, Note_off_c, 9, 46, 64
1, 9985, Note_on_c, 1, 37, 116
1, 9985, Note_on_c, 2, 49, 119
1, 9993, Lyric_t, "leave "
1, 9993, Note_on_c, 3, 68, 85
1, 10017, Note_off_c, 2, 49, 64
1, 10023, Note_off_c, 0, 37, 64
1, 10024, Note_off_c, 0, 44, 64
1, 10039, Note_off_c, 3, 68, 64
1, 10047, Lyric_t, "me "
1, 10047, Note_on_c, 3, 68, 99
1, 10047, Note_on_c, 0, 37, 95
1, 10047, Note_on_c, 0, 44, 83
1, 10049, Note_on_c, 2, 49, 108
1, 10058, Note_off_c, 1, 37, 64
1, 10058, Note_off_c, 0, 44, 64
1, 10067, Note_off_c, 2, 49, 64
1, 10069, Note_off_c, 3, 68, 64
1, 10069, Note_off_c, 0, 37, 64
1, 10076, Lyric_t, "bro"
1, 10076, Note_on_c, 3, 68, 89
1, 10079, Note_on_c, 0, 46, 88
1, 10079, Note_on_c, 0, 37, 81
1, 10080, Note_on_c, 9, 40, 110
1, 10080, Note_on_c, 1, 41, 111
1, 10081, Note_off_c, 9, 40, 64
1, 10081, Note_on_c, 9, 46, 78
1, 10081, Note_on_c, 2, 58, 116
1, 10082, Note_off_c, 9, 46, 64
1, 10114, Note_off_c, 2, 58, 64
1, 10118, Note_off_c, 0, 37, 64
1, 10123, Note_off_c, 0, 46, 64
1, 10131, Note_off_c, 3, 68, 64
1, 10140, Lyric_t, "ken"
1, 10140, Note_on_c, 3, 68, 99
1, 10143, Note_on_c, 9, 46, 63
1, 10143, Note_on_c, 0, 46, 73
1, 10143, Note_on_c, 0, 37, 105
1, 10143, Note_on_c, 2, 58, 104
1, 10144, Note_off_c, 9, 46, 64
1, 10152, Note_off_c, 1, 41, 64
1, 10161, Note_off_c, 0, 46, 64
1, 10163, Note_off_c, 0, 37, 64
1, 10168, Note_off_c, 3, 68, 64
1, 10170, Note_off_c, 2, 58, 64
1, 10175, Note_on_c, 9, 46, 99
1, 10175, Note_on_c, 1, 44, 111
1, 10175, Note_on_c, 0, 44, 111
1, 10176, Note_off_c, 9, 46, 64
1, 10176, Note_on_c, 9, 36, 102
1, 10177, Lyric_t, "heart"
1, 10177, Note_on_c, 3, 68, 83
1, 10177, Note_off_c, 9, 36, 64
1, 10177, Note_on_c, 0, 37, 97
1, 10177, Note_on_c, 2, 56, 112
1, 10213, Note_off_c, 2, 56, 64
1, 10221, Note_off_c, 0, 37, 64
1, 10223, Note_off_c, 3, 68, 64
1, 10224, Note_off_c, 0, 44, 64
1, 10232, Lyric_t, "ed, "
1, 10232, Lyric_t, "\015"
1, 10232, Note_on_c, 3, 68, 98
1, 10239, Note_on_c, 2, 56, 102
1, 10240, Note_on_c, 9, 40, 99
1, 10241, Note_off_c, 9, 40, 64
1, 10241, Note_on_c, 0, 44, 80
1, 10241, Note_on_c, 0, 37, 103
1, 10256, Note_off_c, 3, 68, 64
1, 10257, Note_off_c, 1, 44, 64
1, 10257, Note_off_c, 0, 44, 64
1, 10261, Note_off_c, 0, 37, 64
1, 10264, Note_off_c, 2, 56, 64
1, 10270, Lyric_t, "'cause "
1, 10270, Note_on_c, 3, 65, 95
1, 10271, Note_on_c, 1, 46, 106
1, 10272, Note_on_c, 9, 40, 114
1, 10272, Note_on_c, 0, 46, 103
1, 10272, Note_on_c, 0, 37, 84
1, 10272, Note_on_c, 2, 58, 111
1, 10273, Note_off_c, 9, 40, 64
1, 10306, Note_off_c, 0, 37, 64
1, 10309, Note_off_c, 0, 46, 64
1, 10320, Note_off_c, 2, 58, 64
1, 10322, Note_off_c, 3, 65, 64
1, 10334, Lyric_t, "I "
1, 10334, Note_on_c, 3, 63, 95
1, 10335, Note_on_c, 0, 37, 91
1, 10335, Note_on_c, 0, 46, 77
1, 10335, Note_on_c, 2, 56, 107
1, 10336, Note_on_c, 9, 36, 77
1, 10337, Note_off_c, 9, 36, 64
1, 10337, Note_on_c, 9, 46, 84
1, 10338, Note_off_c, 9, 46, 64
1, 10345, Note_off_c, 0, 37, 64
1, 10347, Note_off_c, 0, 46, 64
1, 10355, Note_off_c, 1, 46, 64
1, 10358, Note_off_c, 3, 63, 64
1, 10358, Note_off_c, 2, 56, 64
1, 10367, Note_off_c, 5, 59, 64
1, 10367, Note_off_c, 5, 61, 64
1, 10367, Note_off_c, 5, 65, 64
1, 10367, Note_off_c, 5, 68, 64
1, 10367, Note_on_c, 0, 51, 97
1, 10367, Note_on_c, 0, 44, 88
1, 10368, Lyric_t, "love "
1, 10368, Note_on_c, 3, 68, 101
1, 10368, Note_on_c, 5, 63, 44
1, 10368, Note_on_c, 5, 60, 71
1, 10368, Note_on_c, 5, 65, 71
1, 10368, Note_on_c, 5, 68, 89
1, 10368, Note_on_c, 9, 46, 93
1, 10368, Note_on_c, 9, 36, 102
1, 10369, Note_off_c, 9, 36, 64
1, 10369, Note_off_c, 9, 46, 64
1, 10369, Note_on_c, 1, 44, 110
1, 10369, Note_on_c, 2, 44, 123
1, 10396, Note_off_c, 2, 44, 64
1, 10409, Note_off_c, 0, 44, 64
1, 10415, Note_off_c, 0, 51, 64
1, 10431, Note_on_c, 0, 44, 88
1, 10431, Note_on_c, 0, 51, 81
1, 10433, Note_on_c, 2, 44, 104
1, 10445, Note_off_c, 0, 51, 64
1, 10448, Note_off_c, 3, 68, 64
1, 10448, Note_off_c, 0, 44, 64
1, 10449, Note_off_c, 1, 44, 64
1, 10455, Note_off_c, 2, 44, 64
1, 10459, Lyric_t, "you "
1, 10459, Note_on_c, 3, 65, 99
1, 10462, Note_on_c, 0, 53, 89
1, 10464, Note_on_c, 9, 40, 110
1, 10465, Note_off_c, 9, 40, 64
1, 10465, Note_on_c, 9, 46, 85
1, 10465, Note_on_c, 1, 36, 102
1, 10465, Note_on_c, 0, 44, 95
1, 10465, Note_on_c, 2, 53, 110
1, 10466, Note_off_c, 9, 46, 64
1, 10500, Note_off_c, 2, 53, 64
1, 10508, Note_off_c, 0, 44, 64
1, 10517, Note_off_c, 0, 53, 64
1, 10522, Note_off_c, 3, 65, 64
1, 10527, Note_on_c, 3, 63, 100
1, 10527, Note_on_c, 0, 44, 83
1, 10527, Note_on_c, 0, 53, 83
1, 10527, Note_on_c, 2, 53, 102
1, 10529, Note_on_c, 9, 46, 77
1, 10530, Note_off_c, 9, 46, 64
1, 10544, Note_off_c, 0, 53, 64
1, 10546, Note_off_c, 1, 36, 64
1, 10551, Note_off_c, 0, 44, 64
1, 10555, Note_off_c, 2, 53, 64
1, 10559, Note_on_c, 0, 51, 97
1, 10560, Note_on_c, 9, 36, 102
1, 10560, Note_on_c, 1, 39, 99
1, 10561, Note_off_c, 9, 36, 64
1, 10561, Note_on_c, 9, 46, 97
1, 10561, Note_on_c, 0, 44, 81
1, 10561, Note_on_c, 2, 51, 118
1, 10562, Note_off_c, 9, 46, 64
1, 10569, Note_off_c, 3, 63, 64
1, 10593, Note_off_c, 2, 51, 64
1, 10599, Note_off_c, 0, 44, 64
1, 10603, Note_off_c, 0, 51, 64
1, 10623, Note_on_c, 0, 51, 87
1, 10623, Note_on_c, 0, 44, 89
1, 10623, Note_on_c, 2, 51, 102
1, 10624, Note_on_c, 9, 40, 99
1, 10625, Lyric_t, "too "
1, 10625, Note_on_c, 3, 68, 102
1, 10625, Note_on_c, 4, 56, 99
1, 10625, Note_off_c, 9, 40, 64
1, 10632, Note_off_c, 1, 39, 64
1, 10639, Note_off_c, 0, 44, 64
1, 10639, Note_off_c, 0, 51, 64
1, 10646, Note_off_c, 2, 51, 64
1, 10655, Note_on_c, 1, 41, 106
1, 10655, Note_on_c, 0, 53, 95
1, 10655, Note_on_c, 0, 44, 78
1, 10655, Note_on_c, 2, 53, 118
1, 10656, Note_on_c, 9, 40, 114
1, 10657, Note_off_c, 9, 40, 64
1, 10665, Note_off_c, 3, 68, 64
1, 10685, Note_off_c, 0, 53, 64
1, 10688, Note_off_c, 0, 44, 64
1, 10698, Note_off_c, 2, 53, 64
1, 10718, Note_off_c, 4, 56, 64
1, 10719, Lyric_t, "much. "
1, 10719, Lyric_t, "\015"
1, 10719, Note_on_c, 3, 68, 101
1, 10719, Note_on_c, 4, 56, 94
1, 10719, Note_on_c, 0, 44, 92
1, 10719, Note_on_c, 0, 53, 85
1, 10720, Note_on_c, 2, 51, 107
1, 10733, Note_off_c, 1, 41, 64
1, 10737, Note_off_c, 0, 53, 64
1, 10740, Note_off_c, 2, 51, 64
1, 10744, Note_off_c, 0, 44, 64
1, 10751, Note_on_c, 0, 51, 89
1, 10751, Note_on_c, 2, 44, 123
1, 10752, Note_off_c, 5, 68, 64
1, 10752, Note_off_c, 5, 63, 64
1, 10752, Note_off_c, 5, 60, 64
1, 10752, Note_off_c, 5, 65, 64
1, 10752, Note_on_c, 9, 40, 110
1, 10752, Note_on_c, 9, 49, 79
1, 10752, Note_on_c, 9, 36, 102
1, 10752, Note_on_c, 1, 44, 112
1, 10753, Note_off_c, 9, 36, 64
1, 10753, Note_off_c, 9, 49, 64
1, 10753, Note_off_c, 9, 40, 64
1, 10753, Note_on_c, 0, 44, 83
1, 10761, Note_off_c, 3, 68, 64
1, 10789, Note_off_c, 0, 44, 64
1, 10793, Note_off_c, 0, 51, 64
1, 10804, Note_off_c, 2, 44, 64
1, 10808, Note_off_c, 1, 44, 64
1, 10813, Lyric_t, "\012"
1, 10818, Note_on_c, 9, 40, 55
1, 10819, Note_off_c, 9, 40, 64
1, 10829, Note_on_c, 9, 40, 67
1, 10830, Note_off_c, 9, 40, 64
1, 10847, Note_off_c, 4, 56, 64
1, 10848, Note_on_c, 4, 51, 70
1, 10848, Note_on_c, 4, 60, 75
1, 10848, Note_on_c, 4, 53, 61
1, 10848, Note_on_c, 4, 56, 70
1, 10848, Note_on_c, 5, 63, 75
1, 10848, Note_on_c, 5, 68, 75
1, 10848, Note_on_c, 5, 72, 80
1, 10848, Note_on_c, 5, 65, 66
1, 10848, Note_on_c, 6, 32, 96
1, 10848, Note_on_c, 9, 40, 88
1, 10849, Note_off_c, 9, 40, 64
1, 10852, Note_on_c, 6, 44, 78
1, 10903, Note_off_c, 6, 44, 64
1, 10905, Note_off_c, 6, 32, 64
1, 10911, Note_off_c, 4, 56, 64
1, 10911, Note_off_c, 4, 53, 64
1, 10911, Note_off_c, 4, 60, 64
1, 10911, Note_off_c, 5, 65, 64
1, 10911, Note_off_c, 5, 72, 64
1, 10911, Note_off_c, 5, 68, 64
1, 10911, Note_on_c, 6, 44, 71
1, 10911, Note_on_c, 9, 49, 75
1, 10911, Note_on_c, 1, 44, 113
1, 10911, Note_on_c, 0, 51, 111
1, 10911, Note_on_c, 0, 44, 101
1, 10912, Note_off_c, 4, 51, 64
1, 10912, Note_on_c, 4, 56, 80
1, 10912, Note_on_c, 4, 63, 79
1, 10912, Note_on_c, 4, 53, 65
1, 10912, Note_on_c, 4, 60, 71
1, 10912, Note_off_c, 5, 63, 64
1, 10912, Note_on_c, 5, 68, 85
1, 10912, Note_on_c, 5, 72, 76
1, 10912, Note_on_c, 5, 75, 84
1, 10912, Note_on_c, 5, 65, 70
1, 10912, Note_off_c, 9, 49, 64
1, 10912, Note_on_c, 9, 40, 116
1, 10912, Note_on_c, 9, 36, 102
1, 10912, Note_on_c, 2, 44, 126
1, 10913, Note_off_c, 9, 36, 64
1, 10913, Note_off_c, 9, 40, 64
1, 10917, Note_on_c, 6, 32, 90
1, 10955, Note_off_c, 0, 44, 64
1, 10955, Note_off_c, 0, 51, 64
1, 10955, Note_off_c, 2, 44, 64
1, 10963, Note_off_c, 6, 44, 64
1, 10968, Note_off_c, 1, 44, 64
1, 10971, Note_off_c, 6, 32, 64
1, 10976, Note_off_c, 5, 65, 64
1, 10976, Note_off_c, 5, 68, 64
1, 10976, Note_off_c, 5, 72, 64
1, 10976, Note_off_c, 5, 75, 64
1, 10998, Note_off_c, 4, 60, 64
1, 10998, Note_off_c, 4, 56, 64
1, 10998, Note_off_c, 4, 63, 64
1, 10998, Note_off_c, 4, 53, 64
1, 11000, Lyric_t, "I "
1, 11000, Note_on_c, 3, 72, 99
1, 11008, Note_on_c, 9, 40, 78
1, 11008, Note_on_c, 1, 27, 116
1, 11009, Note_off_c, 9, 40, 64
1, 11040, Note_on_c, 9, 40, 112
1, 11041, Note_off_c, 9, 40, 64
1, 11103, Note_off_c, 1, 27, 64
1, 11105, Note_on_c, 9, 46, 84
1, 11106, Note_off_c, 9, 46, 64
1, 11123, Note_off_c, 3, 72, 64
1, 11136, Lyric_t, "need "
1, 11136, Note_on_c, 3, 71, 100
1, 11136, Note_on_c, 9, 49, 82
1, 11136, Note_on_c, 9, 36, 102
1, 11136, Note_on_c, 1, 44, 114
1, 11136, Note_on_c, 0, 75, 92
1, 11136, Note_on_c, 0, 44, 88
1, 11136, Note_on_c, 0, 51, 92
1, 11137, Note_off_c, 9, 36, 64
1, 11137, Note_off_c, 9, 49, 64
1, 11137, Note_on_c, 0, 80, 89
1, 11137, Note_on_c, 0, 72, 85
1, 11137, Note_on_c, 2, 44, 123
1, 11148, Note_off_c, 0, 72, 64
1, 11148, Note_off_c, 0, 75, 64
1, 11148, Note_off_c, 0, 80, 64
1, 11164, Note_off_c, 2, 44, 64
1, 11167, Note_on_c, 0, 75, 70
1, 11167, Note_on_c, 0, 80, 71
1, 11167, Note_on_c, 0, 72, 68
1, 11174, Note_off_c, 0, 44, 64
1, 11177, Note_off_c, 0, 80, 64
1, 11177, Note_off_c, 0, 75, 64
1, 11178, Note_off_c, 0, 51, 64
1, 11180, Note_off_c, 0, 72, 64
1, 11199, Note_on_c, 0, 51, 73
1, 11199, Note_on_c, 0, 44, 77
1, 11199, Note_on_c, 0, 75, 70
1, 11199, Note_on_c, 0, 80, 72
1, 11199, Note_on_c, 0, 72, 64
1, 11201, Note_on_c, 2, 44, 104
1, 11207, Note_off_c, 1, 44, 64
1, 11207, Note_off_c, 0, 80, 64
1, 11209, Note_off_c, 0, 75, 64
1, 11209, Note_off_c, 0, 72, 64
1, 11210, Note_off_c, 3, 71, 64
1, 11217, Note_off_c, 0, 44, 64
1, 11217, Note_off_c, 0, 51, 64
1, 11223, Note_off_c, 2, 44, 64
1, 11231, Note_on_c, 1, 41, 100
1, 11231, Note_on_c, 0, 53, 100
1, 11231, Note_on_c, 0, 44, 78
1, 11231, Note_on_c, 0, 75, 88
1, 11231, Note_on_c, 0, 72, 80
1, 11231, Note_on_c, 0, 80, 87
1, 11232, Lyric_t, "your "
1, 11232, Note_on_c, 3, 72, 100
1, 11232, Note_on_c, 9, 40, 110
1, 11233, Note_off_c, 9, 40, 64
1, 11233, Note_on_c, 9, 46, 85
1, 11233, Note_on_c, 2, 53, 110
1, 11234, Note_off_c, 9, 46, 64
1, 11241, Note_off_c, 0, 80, 64
1, 11244, Note_off_c, 0, 75, 64
1, 11246, Note_off_c, 0, 72, 64
1, 11263, Note_on_c, 0, 75, 74
1, 11263, Note_on_c, 0, 80, 68
1, 11264, Note_on_c, 0, 72, 72
1, 11268, Note_off_c, 2, 53, 64
1, 11273, Note_off_c, 0, 80, 64
1, 11274, Note_off_c, 0, 75, 64
1, 11276, Note_off_c, 0, 72, 64
1, 11276, Note_off_c, 0, 44, 64
1, 11279, Note_off_c, 0, 53, 64
1, 11291, Note_off_c, 3, 72, 64
1, 11294, Lyric_t, "lov"
1, 11294, Note_on_c, 3, 68, 98
1, 11295, Note_on_c, 0, 75, 73
1, 11295, Note_on_c, 0, 80, 71
1, 11295, Note_on_c, 2, 53, 102
1, 11296, Note_on_c, 9, 46, 77
1, 11296, Note_on_c, 0, 72, 72
1, 11297, Note_off_c, 9, 46, 64
1, 11297, Note_on_c, 0, 44, 88
1, 11297, Note_on_c, 0, 53, 86
1, 11306, Note_off_c, 0, 80, 64
1, 11306, Note_off_c, 0, 75, 64
1, 11308, Note_off_c, 1, 41, 64
1, 11308, Note_off_c, 0, 72, 64
1, 11314, Note_off_c, 0, 53, 64
1, 11315, Note_off_c, 0, 44, 64
1, 11323, Note_off_c, 2, 53, 64
1, 11327, Note_on_c, 0, 75, 77
1, 11328, Note_on_c, 9, 36, 102
1, 11328, Note_on_c, 1, 39, 107
1, 11328, Note_on_c, 0, 72, 72
1, 11328, Note_on_c, 0, 80, 70
1, 11328, Note_on_c, 0, 51, 78
1, 11329, Note_off_c, 9, 36, 64
1, 11329, Note_on_c, 9, 46, 97
1, 11329, Note_on_c, 0, 44, 77
1, 11329, Note_on_c, 2, 51, 118
1, 11330, Note_off_c, 9, 46, 64
1, 11338, Note_off_c, 0, 80, 64
1, 11339, Note_off_c, 0, 75, 64
1, 11342, Note_off_c, 0, 72, 64
1, 11361, Note_on_c, 0, 75, 66
1, 11361, Note_on_c, 0, 72, 69
1, 11361, Note_on_c, 0, 80, 66
1, 11361, Note_off_c, 2, 51, 64
1, 11369, Note_off_c, 0, 80, 64
1, 11369, Note_off_c, 0, 75, 64
1, 11372, Note_off_c, 0, 72, 64
1, 11372, Note_off_c, 0, 44, 64
1, 11380, Note_off_c, 0, 51, 64
1, 11391, Note_on_c, 2, 51, 102
1, 11392, Note_on_c, 0, 75, 73
1, 11393, Note_on_c, 0, 80, 71
1, 11393, Note_on_c, 0, 72, 70
1, 11393, Note_on_c, 0, 51, 74
1, 11393, Note_on_c, 0, 44, 91
1, 11398, Note_off_c, 0, 80, 64
1, 11399, Note_off_c, 0, 75, 64
1, 11402, Note_off_c, 0, 72, 64
1, 11403, Note_off_c, 1, 39, 64
1, 11406, Note_off_c, 0, 44, 64
1, 11407, Note_off_c, 0, 51, 64
1, 11414, Note_off_c, 2, 51, 64
1, 11416, Note_off_c, 3, 68, 64
1, 11422, Lyric_t, "in' "
1, 11422, Note_on_c, 3, 65, 101
1, 11423, Note_on_c, 1, 41, 102
1, 11423, Note_on_c, 2, 53, 118
1, 11424, Note_on_c, 9, 40, 114
1, 11425, Note_off_c, 9, 40, 64
1, 11425, Note_on_c, 9, 46, 82
1, 11425, Note_on_c, 0, 75, 94
1, 11425, Note_on_c, 0, 80, 91
1, 11425, Note_on_c, 0, 72, 85
1, 11425, Note_on_c, 0, 44, 85
1, 11425, Note_on_c, 0, 53, 100
1, 11426, Note_off_c, 9, 46, 64
1, 11435, Note_off_c, 0, 80, 64
1, 11435, Note_off_c, 0, 75, 64
1, 11438, Note_off_c, 0, 72, 64
1, 11456, Note_on_c, 0, 75, 88
1, 11456, Note_on_c, 0, 80, 83
1, 11457, Note_on_c, 0, 72, 78
1, 11462, Note_off_c, 0, 44, 64
1, 11464, Note_off_c, 0, 80, 64
1, 11465, Note_off_c, 0, 53, 64
1, 11466, Note_off_c, 0, 75, 64
1, 11466, Note_off_c, 2, 53, 64
1, 11469, Note_off_c, 0, 72, 64
1, 11479, Note_off_c, 3, 65, 64
1, 11486, Note_on_c, 3, 63, 100
1, 11487, Note_on_c, 0, 80, 77
1, 11487, Note_on_c, 0, 75, 74
1, 11487, Note_on_c, 0, 72, 72
1, 11488, Note_on_c, 6, 39, 113
1, 11488, Note_on_c, 9, 46, 77
1, 11488, Note_on_c, 2, 51, 107
1, 11489, Note_off_c, 9, 46, 64
1, 11489, Note_on_c, 0, 53, 75
1, 11489, Note_on_c, 0, 44, 76
1, 11493, Note_off_c, 0, 75, 64
1, 11495, Note_off_c, 0, 80, 64
1, 11495, Note_off_c, 0, 72, 64
1, 11500, Note_off_c, 1, 41, 64
1, 11504, Note_off_c, 0, 53, 64
1, 11504, Note_off_c, 0, 44, 64
1, 11508, Note_off_c, 2, 51, 64
1, 11519, Note_off_c, 3, 63, 64
1, 11519, Note_on_c, 1, 44, 111
1, 11519, Note_on_c, 0, 51, 71
1, 11520, Note_on_c, 9, 46, 97
1, 11520, Note_on_c, 9, 36, 102
1, 11520, Note_on_c, 0, 75, 92
1, 11520, Note_on_c, 0, 44, 77
1, 11521, Note_off_c, 9, 36, 64
1, 11521, Note_off_c, 9, 46, 64
1, 11521, Note_on_c, 0, 80, 89
1, 11521, Note_on_c, 0, 72, 85
1, 11521, Note_on_c, 2, 44, 123
1, 11523, Note_off_c, 6, 39, 64
1, 11523, Note_on_c, 6, 32, 70
1, 11532, Note_off_c, 0, 72, 64
1, 11532, Note_off_c, 0, 75, 64
1, 11532, Note_off_c, 0, 80, 64
1, 11548, Note_off_c, 2, 44, 64
1, 11551, Note_on_c, 0, 75, 70
1, 11551, Note_on_c, 0, 80, 71
1, 11551, Note_on_c, 0, 72, 68
1, 11561, Note_off_c, 0, 80, 64
1, 11561, Note_off_c, 0, 75, 64
1, 11564, Note_off_c, 0, 72, 64
1, 11570, Note_off_c, 0, 44, 64
1, 11575, Note_off_c, 0, 51, 64
1, 11583, Lyric_t, "all "
1, 11583, Note_on_c, 3, 68, 101
1, 11583, Note_on_c, 0, 75, 70
1, 11583, Note_on_c, 0, 80, 72
1, 11583, Note_on_c, 0, 72, 64
1, 11584, Note_on_c, 4, 53, 58
1, 11584, Note_on_c, 4, 60, 58
1, 11584, Note_on_c, 4, 56, 58
1, 11585, Note_on_c, 0, 51, 76
1, 11585, Note_on_c, 0, 44, 83
1, 11585, Note_on_c, 2, 44, 104
1, 11591, Note_off_c, 0, 80, 64
1, 11593, Note_off_c, 1, 44, 64
1, 11593, Note_off_c, 0, 75, 64
1, 11593, Note_off_c, 0, 72, 64
1, 11600, Note_off_c, 0, 44, 64
1, 11601, Note_off_c, 6, 32, 64
1, 11601, Note_off_c, 0, 51, 64
1, 11607, Note_off_c, 2, 44, 64
1, 11612, Note_off_c, 3, 68, 64
1, 11615, Note_on_c, 1, 41, 94
1, 11615, Note_on_c, 0, 75, 88
1, 11615, Note_on_c, 0, 72, 80
1, 11615, Note_on_c, 0, 80, 87
1, 11615, Note_on_c, 0, 44, 81
1, 11616, Note_on_c, 9, 40, 110
1, 11616, Note_on_c, 9, 46, 85
1, 11616, Note_on_c, 0, 53, 98
1, 11617, Note_off_c, 9, 46, 64
1, 11617, Note_off_c, 9, 40, 64
1, 11617, Note_on_c, 2, 53, 110
1, 11622, Lyric_t, "the "
1, 11622, Note_on_c, 3, 68, 98
1, 11625, Note_off_c, 0, 80, 64
1, 11628, Note_off_c, 0, 75, 64
1, 11630, Note_off_c, 0, 72, 64
1, 11647, Note_on_c, 0, 75, 74
1, 11647, Note_on_c, 0, 80, 68
1, 11648, Note_on_c, 0, 72, 72
1, 11652, Note_off_c, 2, 53, 64
1, 11657, Note_off_c, 0, 80, 64
1, 11657, Note_off_c, 0, 44, 64
1, 11658, Note_off_c, 0, 75, 64
1, 11660, Note_off_c, 0, 72, 64
1, 11663, Note_off_c, 0, 53, 64
1, 11669, Note_off_c, 3, 68, 64
1, 11679, Lyric_t, "time. "
1, 11679, Lyric_t, "\015"
1, 11679, Note_on_c, 3, 72, 102
1, 11679, Note_off_c, 4, 56, 64
1, 11679, Note_off_c, 4, 60, 64
1, 11679, Note_on_c, 9, 46, 63
1, 11679, Note_on_c, 0, 75, 73
1, 11679, Note_on_c, 0, 80, 71
1, 11679, Note_on_c, 0, 44, 76
1, 11679, Note_on_c, 0, 53, 76
1, 11679, Note_on_c, 2, 53, 102
1, 11680, Note_off_c, 4, 53, 64
1, 11680, Note_on_c, 4, 60, 58
1, 11680, Note_on_c, 4, 56, 58
1, 11680, Note_on_c, 4, 63, 58
1, 11680, Note_off_c, 9, 46, 64
1, 11680, Note_on_c, 9, 36, 69
1, 11680, Note_on_c, 0, 72, 72
1, 11681, Note_off_c, 9, 36, 64
1, 11690, Note_off_c, 0, 80, 64
1, 11690, Note_off_c, 0, 75, 64
1, 11692, Note_off_c, 0, 72, 64
1, 11694, Note_off_c, 1, 41, 64
1, 11697, Note_off_c, 0, 44, 64
1, 11697, Note_off_c, 0, 53, 64
1, 11707, Note_off_c, 2, 53, 64
1, 11711, Note_on_c, 9, 46, 99
1, 11711, Note_on_c, 1, 39, 107
1, 11711, Note_on_c, 0, 51, 60
1, 11711, Note_on_c, 0, 75, 77
1, 11712, Note_off_c, 9, 46, 64
1, 11712, Note_on_c, 9, 36, 102
1, 11712, Note_on_c, 0, 72, 72
1, 11712, Note_on_c, 0, 80, 70
1, 11713, Note_off_c, 9, 36, 64
1, 11713, Note_on_c, 0, 44, 66
1, 11713, Note_on_c, 2, 51, 118
1, 11717, Note_off_c, 3, 72, 64
1, 11722, Note_off_c, 0, 80, 64
1, 11723, Note_off_c, 0, 75, 64
1, 11726, Note_off_c, 0, 72, 64
1, 11745, Note_on_c, 0, 75, 66
1, 11745, Note_on_c, 0, 72, 69
1, 11745, Note_on_c, 0, 80, 66
1, 11745, Note_off_c, 2, 51, 64
1, 11753, Note_off_c, 0, 80, 64
1, 11753, Note_off_c, 0, 75, 64
1, 11756, Note_off_c, 0, 72, 64
1, 11756, Note_off_c, 0, 44, 64
1, 11763, Note_off_c, 0, 51, 64
1, 11775, Note_on_c, 2, 51, 102
1, 11776, Note_on_c, 0, 75, 73
1, 11777, Note_on_c, 0, 80, 71
1, 11777, Note_on_c, 0, 72, 70
1, 11777, Note_on_c, 0, 51, 64
1, 11777, Note_on_c, 0, 44, 76
1, 11782, Note_off_c, 0, 80, 64
1, 11783, Note_off_c, 0, 75, 64
1, 11786, Note_off_c, 0, 72, 64
1, 11789, Note_off_c, 0, 44, 64
1, 11790, Note_off_c, 1, 39, 64
1, 11792, Note_off_c, 0, 51, 64
1, 11798, Note_off_c, 2, 51, 64
1, 11807, Note_on_c, 1, 36, 100
1, 11807, Note_on_c, 2, 53, 118
1, 11808, Note_off_c, 4, 63, 64
1, 11808, Note_off_c, 4, 56, 64
1, 11808, Note_off_c, 4, 60, 64
1, 11808, Note_on_c, 9, 40, 114
1, 11809, Note_off_c, 9, 40, 64
1, 11809, Note_on_c, 9, 46, 82
1, 11809, Note_on_c, 0, 75, 94
1, 11809, Note_on_c, 0, 80, 91
1, 11809, Note_on_c, 0, 72, 85
1, 11809, Note_on_c, 0, 44, 81
1, 11809, Note_on_c, 0, 53, 96
1, 11810, Note_off_c, 9, 46, 64
1, 11819, Note_off_c, 0, 80, 64
1, 11819, Note_off_c, 0, 75, 64
1, 11822, Note_off_c, 0, 72, 64
1, 11840, Note_on_c, 0, 75, 88
1, 11840, Note_on_c, 0, 80, 83
1, 11841, Note_on_c, 0, 72, 78
1, 11848, Note_off_c, 0, 80, 64
1, 11850, Note_off_c, 0, 75, 64
1, 11850, Note_off_c, 2, 53, 64
1, 11852, Note_off_c, 0, 44, 64
1, 11853, Note_off_c, 0, 53, 64
1, 11853, Note_off_c, 0, 72, 64
1, 11871, Note_on_c, 0, 80, 77
1, 11871, Note_on_c, 0, 75, 74
1, 11871, Note_on_c, 0, 72, 72
1, 11872, Note_on_c, 9, 46, 63
1, 11872, Note_on_c, 2, 51, 107
1, 11873, Note_off_c, 9, 46, 64
1, 11873, Note_on_c, 0, 44, 84
1, 11873, Note_on_c, 0, 53, 77
1, 11877, Note_off_c, 0, 75, 64
1, 11879, Note_off_c, 0, 80, 64
1, 11879, Note_off_c, 0, 72, 64
1, 11885, Note_off_c, 1, 36, 64
1, 11887, Note_off_c, 0, 53, 64
1, 11891, Note_off_c, 0, 44, 64
1, 11892, Note_off_c, 2, 51, 64
1, 11903, Note_on_c, 1, 32, 104
1, 11904, Lyric_t, "Need "
1, 11904, Note_on_c, 3, 71, 99
1, 11904, Note_on_c, 9, 46, 93
1, 11904, Note_on_c, 9, 36, 102
1, 11904, Note_on_c, 0, 75, 92
1, 11905, Note_off_c, 9, 36, 64
1, 11905, Note_off_c, 9, 46, 64
1, 11905, Note_on_c, 0, 80, 89
1, 11905, Note_on_c, 0, 72, 85
1, 11905, Note_on_c, 0, 51, 66
1, 11905, Note_on_c, 0, 44, 73
1, 11905, Note_on_c, 2, 44, 123
1, 11916, Note_off_c, 0, 72, 64
1, 11916, Note_off_c, 0, 75, 64
1, 11916, Note_off_c, 0, 80, 64
1, 11932, Note_off_c, 2, 44, 64
1, 11935, Note_on_c, 0, 75, 70
1, 11935, Note_on_c, 0, 80, 71
1, 11935, Note_on_c, 0, 72, 68
1, 11942, Note_off_c, 0, 44, 64
1, 11945, Note_off_c, 0, 80, 64
1, 11945, Note_off_c, 0, 75, 64
1, 11946, Note_off_c, 0, 51, 64
1, 11948, Note_off_c, 0, 72, 64
1, 11967, Note_on_c, 0, 51, 74
1, 11967, Note_on_c, 0, 75, 70
1, 11967, Note_on_c, 0, 80, 72
1, 11967, Note_on_c, 0, 72, 64
1, 11967, Note_on_c, 0, 44, 81
1, 11969, Note_on_c, 2, 44, 104
1, 11973, Note_off_c, 1, 32, 64
1, 11975, Note_off_c, 0, 80, 64
1, 11977, Note_off_c, 0, 72, 64
1, 11977, Note_off_c, 0, 44, 64
1, 11977, Note_off_c, 0, 75, 64
1, 11983, Note_off_c, 0, 51, 64
1, 11990, Note_off_c, 3, 71, 64
1, 11991, Note_off_c, 2, 44, 64
1, 11999, Lyric_t, "your "
1, 11999, Note_on_c, 3, 72, 102
1, 11999, Note_on_c, 1, 36, 98
1, 11999, Note_on_c, 0, 53, 90
1, 11999, Note_on_c, 0, 75, 88
1, 11999, Note_on_c, 0, 72, 80
1, 11999, Note_on_c, 0, 80, 87
1, 12000, Note_on_c, 9, 40, 110
1, 12000, Note_on_c, 0, 44, 92
1, 12001, Note_off_c, 9, 40, 64
1, 12001, Note_on_c, 9, 46, 85
1, 12001, Note_on_c, 2, 53, 110
1, 12002, Note_off_c, 9, 46, 64
1, 12009, Note_off_c, 0, 80, 64
1, 12012, Note_off_c, 0, 75, 64
1, 12014, Note_off_c, 0, 72, 64
1, 12031, Note_on_c, 0, 75, 74
1, 12031, Note_on_c, 0, 80, 68
1, 12032, Note_on_c, 0, 72, 72
1, 12035, Note_off_c, 0, 44, 64
1, 12036, Note_off_c, 2, 53, 64
1, 12041, Note_off_c, 0, 80, 64
1, 12042, Note_off_c, 0, 53, 64
1, 12042, Note_off_c, 0, 75, 64
1, 12044, Note_off_c, 0, 72, 64
1, 12063, Note_on_c, 0, 44, 87
1, 12063, Note_on_c, 0, 75, 73
1, 12063, Note_on_c, 0, 80, 71
1, 12063, Note_on_c, 2, 53, 102
1, 12064, Note_on_c, 0, 72, 72
1, 12064, Note_on_c, 0, 53, 76
1, 12072, Note_off_c, 3, 72, 64
1, 12074, Note_off_c, 0, 80, 64
1, 12074, Note_off_c, 0, 75, 64
1, 12076, Note_off_c, 1, 36, 64
1, 12076, Note_off_c, 0, 53, 64
1, 12076, Note_off_c, 0, 72, 64
1, 12080, Note_off_c, 0, 44, 64
1, 12091, Note_off_c, 2, 53, 64
1, 12095, Note_on_c, 1, 39, 99
1, 12095, Note_on_c, 0, 51, 68
1, 12095, Note_on_c, 0, 44, 77
1, 12095, Note_on_c, 0, 75, 77
1, 12096, Note_on_c, 9, 36, 102
1, 12096, Note_on_c, 0, 72, 72
1, 12096, Note_on_c, 0, 80, 70
1, 12097, Note_off_c, 9, 36, 64
1, 12097, Note_on_c, 9, 46, 97
1, 12097, Note_on_c, 2, 51, 118
1, 12098, Note_off_c, 9, 46, 64
1, 12105, Lyric_t, "hug"
1, 12105, Note_on_c, 3, 68, 95
1, 12106, Note_off_c, 0, 80, 64
1, 12107, Note_off_c, 0, 75, 64
1, 12110, Note_off_c, 0, 72, 64
1, 12129, Note_on_c, 0, 75, 66
1, 12129, Note_on_c, 0, 72, 69
1, 12129, Note_on_c, 0, 80, 66
1, 12129, Note_off_c, 2, 51, 64
1, 12137, Note_off_c, 0, 80, 64
1, 12137, Note_off_c, 0, 75, 64
1, 12139, Note_off_c, 0, 44, 64
1, 12140, Note_off_c, 0, 72, 64
1, 12143, Note_off_c, 0, 51, 64
1, 12159, Note_on_c, 0, 51, 88
1, 12159, Note_on_c, 2, 51, 102
1, 12160, Note_on_c, 0, 75, 73
1, 12161, Note_on_c, 0, 80, 71
1, 12161, Note_on_c, 0, 72, 70
1, 12161, Note_on_c, 0, 44, 88
1, 12166, Note_off_c, 0, 80, 64
1, 12167, Note_off_c, 0, 75, 64
1, 12170, Note_off_c, 0, 72, 64
1, 12172, Note_off_c, 0, 44, 64
1, 12174, Note_off_c, 0, 51, 64
1, 12176, Note_off_c, 1, 39, 64
1, 12182, Note_off_c, 3, 68, 64
1, 12182, Note_off_c, 2, 51, 64
1, 12191, Lyric_t, "gin', "
1, 12191, Note_on_c, 3, 65, 100
1, 12191, Note_on_c, 1, 41, 97
1, 12191, Note_on_c, 2, 53, 118
1, 12192, Note_on_c, 9, 40, 114
1, 12192, Note_on_c, 0, 53, 91
1, 12192, Note_on_c, 0, 44, 81
1, 12193, Note_off_c, 9, 40, 64
1, 12193, Note_on_c, 9, 46, 82
1, 12193, Note_on_c, 0, 75, 94
1, 12193, Note_on_c, 0, 80, 91
1, 12193, Note_on_c, 0, 72, 85
1, 12194, Note_off_c, 9, 46, 64
1, 12203, Note_off_c, 0, 80, 64
1, 12203, Note_off_c, 0, 75, 64
1, 12206, Note_off_c, 0, 72, 64
1, 12224, Note_on_c, 0, 75, 88
1, 12224, Note_on_c, 0, 80, 84
1, 12225, Note_on_c, 0, 72, 85
1, 12232, Note_off_c, 0, 80, 64
1, 12234, Note_off_c, 0, 75, 64
1, 12234, Note_off_c, 2, 53, 64
1, 12237, Note_off_c, 0, 72, 64
1, 12237, Note_off_c, 0, 44, 64
1, 12239, Note_off_c, 0, 53, 64
1, 12247, Note_off_c, 3, 65, 64
1, 12252, Note_on_c, 6, 39, 101
1, 12255, Note_on_c, 0, 80, 78
1, 12255, Note_on_c, 0, 75, 69
1, 12255, Note_on_c, 0, 72, 76
1, 12256, Note_on_c, 9, 46, 63
1, 12256, Note_on_c, 2, 51, 107
1, 12257, Note_off_c, 9, 46, 64
1, 12257, Note_on_c, 0, 53, 79
1, 12257, Note_on_c, 0, 44, 79
1, 12258, Lyric_t, "oh, "
1, 12258, Note_on_c, 3, 63, 94
1, 12261, Note_off_c, 0, 75, 64
1, 12263, Note_off_c, 0, 80, 64
1, 12263, Note_off_c, 0, 72, 64
1, 12272, Note_off_c, 1, 41, 64
1, 12274, Note_off_c, 0, 53, 64
1, 12274, Note_off_c, 0, 44, 64
1, 12276, Note_off_c, 2, 51, 64
1, 12283, Note_off_c, 6, 39, 64
1, 12287, Note_off_c, 3, 63, 64
1, 12287, Note_on_c, 1, 44, 99
1, 12287, Note_on_c, 0, 51, 79
1, 12287, Note_on_c, 0, 44, 73
1, 12288, Note_on_c, 9, 46, 97
1, 12288, Note_on_c, 9, 36, 102
1, 12288, Note_on_c, 0, 75, 92
1, 12289, Note_off_c, 9, 36, 64
1, 12289, Note_off_c, 9, 46, 64
1, 12289, Note_on_c, 0, 80, 89
1, 12289, Note_on_c, 0, 72, 85
1, 12289, Note_on_c, 2, 44, 123
1, 12290, Note_on_c, 6, 32, 93
1, 12300, Note_off_c, 0, 72, 64
1, 12300, Note_off_c, 0, 75, 64
1, 12300, Note_off_c, 0, 80, 64
1, 12316, Note_off_c, 2, 44, 64
1, 12319, Note_on_c, 0, 75, 70
1, 12319, Note_on_c, 0, 80, 71
1, 12319, Note_on_c, 0, 72, 68
1, 12329, Note_off_c, 0, 80, 64
1, 12329, Note_off_c, 0, 75, 64
1, 12332, Note_off_c, 0, 72, 64
1, 12334, Note_off_c, 0, 44, 64
1, 12337, Note_off_c, 0, 51, 64
1, 12351, Lyric_t, "please "
1, 12351, Note_on_c, 3, 68, 97
1, 12351, Note_on_c, 0, 75, 70
1, 12351, Note_on_c, 0, 80, 72
1, 12351, Note_on_c, 0, 72, 64
1, 12352, Note_on_c, 4, 53, 58
1, 12352, Note_on_c, 4, 60, 58
1, 12352, Note_on_c, 4, 56, 58
1, 12353, Note_on_c, 0, 51, 78
1, 12353, Note_on_c, 0, 44, 81
1, 12353, Note_on_c, 2, 44, 104
1, 12359, Note_off_c, 0, 80, 64
1, 12361, Note_off_c, 0, 75, 64
1, 12361, Note_off_c, 0, 72, 64
1, 12363, Note_off_c, 0, 44, 64
1, 12364, Note_off_c, 0, 51, 64
1, 12366, Note_off_c, 6, 32, 64
1, 12367, Note_off_c, 1, 44, 64
1, 12375, Note_off_c, 2, 44, 64
1, 12383, Note_off_c, 3, 68, 64
1, 12383, Note_on_c, 1, 42, 84
1, 12383, Note_on_c, 0, 75, 88
1, 12383, Note_on_c, 0, 72, 80
1, 12383, Note_on_c, 0, 80, 87
1, 12383, Note_on_c, 0, 53, 86
1, 12384, Note_on_c, 9, 40, 110
1, 12385, Note_off_c, 9, 40, 64
1, 12385, Note_on_c, 9, 46, 78
1, 12385, Note_on_c, 0, 44, 87
1, 12385, Note_on_c, 2, 53, 110
1, 12386, Note_off_c, 9, 46, 64
1, 12392, Lyric_t, "be "
1, 12392, Note_on_c, 3, 68, 99
1, 12393, Note_off_c, 0, 80, 64
1, 12396, Note_off_c, 0, 75, 64
1, 12398, Note_off_c, 0, 72, 64
1, 12415, Note_on_c, 0, 75, 74
1, 12415, Note_on_c, 0, 80, 68
1, 12416, Note_on_c, 0, 72, 72
1, 12420, Note_off_c, 2, 53, 64
1, 12425, Note_off_c, 0, 80, 64
1, 12426, Note_off_c, 0, 75, 64
1, 12427, Note_off_c, 0, 53, 64
1, 12428, Note_off_c, 0, 44, 64
1, 12428, Note_off_c, 0, 72, 64
1, 12435, Note_off_c, 3, 68, 64
1, 12447, Lyric_t, "mine. "
1, 12447, Lyric_t, "\015"
1, 12447, Note_on_c, 3, 72, 103
1, 12447, Note_off_c, 4, 56, 64
1, 12447, Note_off_c, 4, 60, 64
1, 12447, Note_on_c, 0, 75, 73
1, 12447, Note_on_c, 0, 80, 71
1, 12447, Note_on_c, 0, 53, 78
1, 12447, Note_on_c, 0, 44, 91
1, 12447, Note_on_c, 2, 53, 102
1, 12448, Note_off_c, 4, 53, 64
1, 12448, Note_on_c, 4, 63, 58
1, 12448, Note_on_c, 4, 60, 58
1, 12448, Note_on_c, 4, 56, 58
1, 12448, Note_on_c, 9, 46, 63
1, 12448, Note_on_c, 0, 72, 72
1, 12449, Note_off_c, 9, 46, 64
1, 12458, Note_off_c, 0, 80, 64
1, 12458, Note_off_c, 0, 75, 64
1, 12460, Note_off_c, 0, 72, 64
1, 12466, Note_off_c, 1, 42, 64
1, 12466, Note_off_c, 0, 53, 64
1, 12468, Note_off_c, 0, 44, 64
1, 12475, Note_off_c, 2, 53, 64
1, 12479, Note_on_c, 9, 46, 99
1, 12479, Note_on_c, 1, 41, 107
1, 12479, Note_on_c, 0, 75, 77
1, 12479, Note_on_c, 0, 51, 71
1, 12480, Note_off_c, 9, 46, 64
1, 12480, Note_on_c, 9, 36, 102
1, 12480, Note_on_c, 0, 72, 72
1, 12480, Note_on_c, 0, 80, 70
1, 12480, Note_on_c, 0, 44, 77
1, 12481, Note_off_c, 9, 36, 64
1, 12481, Note_on_c, 2, 51, 118
1, 12490, Note_off_c, 0, 80, 64
1, 12491, Note_off_c, 0, 75, 64
1, 12494, Note_off_c, 0, 72, 64
1, 12499, Note_off_c, 3, 72, 64
1, 12513, Note_on_c, 0, 75, 66
1, 12513, Note_on_c, 0, 72, 69
1, 12513, Note_on_c, 0, 80, 66
1, 12513, Note_off_c, 2, 51, 64
1, 12521, Note_off_c, 0, 80, 64
1, 12521, Note_off_c, 0, 44, 64
1, 12521, Note_off_c, 0, 75, 64
1, 12521, Note_off_c, 0, 51, 64
1, 12524, Lyric_t, "\012"
1, 12524, Note_off_c, 0, 72, 64
1, 12543, Note_on_c, 0, 51, 78
1, 12543, Note_on_c, 2, 51, 102
1, 12544, Note_on_c, 9, 40, 98
1, 12544, Note_on_c, 0, 75, 73
1, 12545, Note_off_c, 9, 40, 64
1, 12545, Note_on_c, 0, 80, 71
1, 12545, Note_on_c, 0, 72, 70
1, 12545, Note_on_c, 0, 44, 81
1, 12550, Note_off_c, 0, 80, 64
1, 12551, Note_off_c, 0, 75, 64
1, 12553, Note_off_c, 0, 44, 64
1, 12554, Note_off_c, 0, 72, 64
1, 12555, Note_off_c, 0, 51, 64
1, 12558, Note_off_c, 1, 41, 64
1, 12566, Note_off_c, 2, 51, 64
1, 12575, Note_on_c, 1, 39, 100
1, 12575, Note_on_c, 2, 53, 118
1, 12576, Note_off_c, 4, 56, 64
1, 12576, Note_off_c, 4, 60, 64
1, 12576, Note_off_c, 4, 63, 64
1, 12576, Note_on_c, 9, 40, 114
1, 12577, Note_off_c, 9, 40, 64
1, 12577, Note_on_c, 0, 75, 94
1, 12577, Note_on_c, 0, 80, 91
1, 12577, Note_on_c, 0, 72, 85
1, 12577, Note_on_c, 0, 53, 91
1, 12577, Note_on_c, 0, 44, 88
1, 12587, Note_off_c, 0, 80, 64
1, 12587, Note_off_c, 0, 75, 64
1, 12590, Note_off_c, 0, 72, 64
1, 12603, Note_off_c, 0, 53, 64
1, 12604, Note_off_c, 0, 44, 64
1, 12608, Note_on_c, 0, 75, 88
1, 12608, Note_on_c, 0, 80, 83
1, 12609, Note_on_c, 0, 72, 78
1, 12616, Note_off_c, 0, 80, 64
1, 12618, Note_off_c, 0, 75, 64
1, 12618, Note_off_c, 2, 53, 64
1, 12621, Note_off_c, 0, 72, 64
1, 12639, Note_on_c, 0, 53, 80
1, 12639, Note_on_c, 0, 44, 78
1, 12639, Note_on_c, 0, 80, 77
1, 12639, Note_on_c, 0, 75, 74
1, 12639, Note_on_c, 0, 72, 72
1, 12640, Note_on_c, 9, 46, 63
1, 12640, Note_on_c, 9, 36, 82
1, 12640, Note_on_c, 2, 51, 107
1, 12641, Note_off_c, 9, 36, 64
1, 12641, Note_off_c, 9, 46, 64
1, 12645, Note_off_c, 0, 75, 64
1, 12646, Note_off_c, 1, 39, 64
1, 12647, Note_off_c, 0, 80, 64
1, 12647, Note_off_c, 0, 72, 64
1, 12650, Note_off_c, 0, 44, 64
1, 12650, Note_off_c, 0, 53, 64
1, 12660, Note_off_c, 2, 51, 64
1, 12672, Note_on_c, 9, 46, 93
1, 12672, Note_on_c, 9, 36, 102
1, 12672, Note_on_c, 1, 37, 111
1, 12672, Note_on_c, 0, 92, 105
1, 12672, Note_on_c, 0, 85, 107
1, 12673, Note_off_c, 9, 36, 64
1, 12673, Note_off_c, 9, 46, 64
1, 12673, Note_on_c, 2, 49, 119
1, 12676, Lyric_t, "Need "
1, 12676, Note_on_c, 3, 71, 99
1, 12676, Note_on_c, 0, 39, 66
1, 12703, Note_off_c, 0, 39, 64
1, 12705, Note_off_c, 2, 49, 64
1, 12710, Note_off_c, 0, 85, 64
1, 12712, Note_off_c, 0, 92, 64
1, 12733, Note_on_c, 0, 44, 78
1, 12734, Note_on_c, 0, 89, 104
1, 12734, Note_on_c, 0, 85, 92
1, 12734, Note_on_c, 0, 37, 105
1, 12737, Note_on_c, 2, 49, 108
1, 12750, Note_off_c, 1, 37, 64
1, 12754, Note_off_c, 0, 44, 64
1, 12755, Note_off_c, 0, 85, 64
1, 12755, Note_off_c, 2, 49, 64
1, 12758, Note_off_c, 3, 71, 64
1, 12758, Note_off_c, 0, 37, 64
1, 12762, Note_off_c, 0, 89, 64
1, 12762, Note_on_c, 0, 46, 89
1, 12768, Lyric_t, "you "
1, 12768, Note_on_c, 3, 71, 102
1, 12768, Note_on_c, 9, 40, 110
1, 12768, Note_on_c, 1, 41, 103
1, 12769, Note_off_c, 9, 40, 64
1, 12769, Note_on_c, 9, 46, 85
1, 12769, Note_on_c, 2, 58, 116
1, 12770, Note_off_c, 9, 46, 64
1, 12772, Note_on_c, 0, 37, 94
1, 12802, Note_off_c, 2, 58, 64
1, 12821, Note_off_c, 0, 37, 64
1, 12824, Note_off_c, 0, 46, 64
1, 12831, Note_on_c, 2, 58, 104
1, 12833, Note_on_c, 9, 46, 63
1, 12834, Note_off_c, 9, 46, 64
1, 12835, Note_on_c, 0, 92, 97
1, 12837, Note_on_c, 0, 85, 92
1, 12837, Note_on_c, 0, 37, 87
1, 12839, Note_on_c, 0, 46, 88
1, 12841, Note_off_c, 3, 71, 64
1, 12847, Note_off_c, 1, 41, 64
1, 12858, Note_off_c, 0, 46, 64
1, 12858, Note_off_c, 2, 58, 64
1, 12862, Note_off_c, 0, 37, 64
1, 12863, Note_on_c, 1, 44, 107
1, 12864, Note_on_c, 9, 36, 102
1, 12865, Note_off_c, 9, 36, 64
1, 12865, Note_on_c, 9, 46, 97
1, 12865, Note_on_c, 2, 56, 112
1, 12866, Lyric_t, "near "
1, 12866, Note_on_c, 3, 68, 92
1, 12866, Note_off_c, 9, 46, 64
1, 12870, Note_on_c, 0, 44, 87
1, 12872, Note_on_c, 0, 37, 82
1, 12901, Note_off_c, 2, 56, 64
1, 12910, Note_off_c, 0, 37, 64
1, 12910, Note_off_c, 0, 44, 64
1, 12927, Note_on_c, 2, 56, 102
1, 12928, Note_on_c, 0, 44, 72
1, 12933, Note_on_c, 0, 37, 91
1, 12939, Note_off_c, 0, 85, 64
1, 12940, Note_off_c, 1, 44, 64
1, 12941, Note_off_c, 0, 92, 64
1, 12943, Note_off_c, 0, 44, 64
1, 12945, Note_off_c, 0, 37, 64
1, 12949, Note_off_c, 3, 68, 64
1, 12952, Note_off_c, 2, 56, 64
1, 12956, Lyric_t, "me, "
1, 12956, Note_on_c, 3, 65, 101
1, 12959, Note_on_c, 1, 46, 101
1, 12960, Note_on_c, 9, 40, 114
1, 12960, Note_on_c, 2, 58, 111
1, 12961, Note_off_c, 9, 40, 64
1, 12961, Note_on_c, 9, 46, 82
1, 12962, Note_off_c, 9, 46, 64
1, 12962, Note_on_c, 0, 37, 91
1, 12962, Note_on_c, 0, 46, 94
1, 12967, Note_on_c, 0, 85, 89
1, 12967, Note_on_c, 0, 89, 101
1, 13003, Note_off_c, 0, 85, 64
1, 13006, Note_off_c, 0, 37, 64
1, 13006, Note_off_c, 0, 46, 64
1, 13008, Note_off_c, 2, 58, 64
1, 13012, Note_off_c, 1, 46, 64
1, 13014, Note_off_c, 3, 65, 64
1, 13014, Note_off_c, 0, 89, 64
1, 13022, Note_on_c, 6, 44, 97
1, 13023, Note_on_c, 3, 63, 96
1, 13023, Note_on_c, 2, 56, 107
1, 13024, Note_on_c, 9, 46, 77
1, 13024, Note_on_c, 1, 46, 107
1, 13024, Note_on_c, 0, 46, 71
1, 13025, Note_off_c, 9, 46, 64
1, 13026, Note_on_c, 0, 37, 91
1, 13041, Note_off_c, 0, 37, 64
1, 13043, Note_off_c, 0, 46, 64
1, 13044, Note_off_c, 1, 46, 64
1, 13046, Note_off_c, 2, 56, 64
1, 13051, Note_off_c, 6, 44, 64
1, 13056, Note_on_c, 9, 46, 97
1, 13056, Note_on_c, 9, 36, 102
1, 13056, Note_on_c, 0, 44, 77
1, 13056, Note_on_c, 2, 49, 119
1, 13057, Note_off_c, 3, 63, 64
1, 13057, Note_on_c, 6, 37, 89
1, 13057, Note_off_c, 9, 36, 64
1, 13057, Note_off_c, 9, 46, 64
1, 13057, Note_on_c, 1, 47, 98
1, 13057, Note_on_c, 0, 37, 95
1, 13060, Note_on_c, 0, 92, 94
1, 13060, Note_on_c, 0, 85, 97
1, 13088, Note_off_c, 2, 49, 64
1, 13089, Note_off_c, 0, 92, 64
1, 13099, Note_off_c, 0, 44, 64
1, 13101, Note_off_c, 0, 37, 64
1, 13108, Note_off_c, 0, 85, 64
1, 13117, Note_on_c, 0, 44, 77
1, 13119, Note_on_c, 0, 37, 91
1, 13120, Note_on_c, 4, 59, 58
1, 13120, Note_on_c, 4, 56, 58
1, 13120, Note_on_c, 4, 53, 58
1, 13121, Note_on_c, 2, 49, 108
1, 13122, Lyric_t, "stay "
1, 13122, Note_on_c, 3, 68, 103
1, 13132, Note_off_c, 0, 37, 64
1, 13132, Note_off_c, 0, 44, 64
1, 13139, Note_off_c, 1, 47, 64
1, 13139, Note_off_c, 2, 49, 64
1, 13141, Note_off_c, 6, 37, 64
1, 13147, Note_on_c, 0, 46, 99
1, 13147, Note_on_c, 0, 37, 99
1, 13149, Note_off_c, 3, 68, 64
1, 13152, Note_on_c, 9, 40, 110
1, 13153, Note_off_c, 9, 40, 64
1, 13153, Note_on_c, 9, 46, 78
1, 13153, Note_on_c, 1, 46, 97
1, 13153, Note_on_c, 2, 58, 116
1, 13154, Note_off_c, 9, 46, 64
1, 13156, Note_on_c, 0, 89, 104
1, 13156, Note_on_c, 0, 85, 99
1, 13158, Lyric_t, "real "
1, 13158, Note_on_c, 3, 68, 99
1, 13182, Note_off_c, 0, 37, 64
1, 13184, Note_off_c, 0, 46, 64
1, 13186, Note_off_c, 2, 58, 64
1, 13193, Note_off_c, 0, 85, 64
1, 13202, Note_off_c, 0, 89, 64
1, 13205, Note_off_c, 3, 68, 64
1, 13211, Note_on_c, 0, 46, 87
1, 13211, Note_on_c, 0, 37, 95
1, 13215, Note_off_c, 4, 56, 64
1, 13215, Note_off_c, 4, 59, 64
1, 13215, Note_on_c, 9, 46, 63
1, 13215, Note_on_c, 2, 58, 104
1, 13216, Note_off_c, 4, 53, 64
1, 13216, Note_on_c, 4, 59, 58
1, 13216, Note_on_c, 4, 56, 58
1, 13216, Note_on_c, 4, 63, 58
1, 13216, Note_off_c, 9, 46, 64
1, 13221, Lyric_t, "close. "
1, 13221, Lyric_t, "\015"
1, 13221, Note_on_c, 3, 71, 104
1, 13227, Note_off_c, 1, 46, 64
1, 13227, Note_off_c, 0, 46, 64
1, 13232, Note_off_c, 0, 37, 64
1, 13242, Note_off_c, 2, 58, 64
1, 13244, Note_on_c, 0, 44, 70
1, 13246, Note_on_c, 0, 37, 80
1, 13247, Note_on_c, 9, 46, 99
1, 13248, Note_off_c, 9, 46, 64
1, 13248, Note_on_c, 9, 36, 102
1, 13249, Note_off_c, 9, 36, 64
1, 13249, Note_on_c, 1, 44, 99
1, 13249, Note_on_c, 2, 56, 112
1, 13252, Note_on_c, 0, 92, 105
1, 13252, Note_on_c, 0, 85, 105
1, 13260, Note_off_c, 3, 71, 64
1, 13285, Note_off_c, 2, 56, 64
1, 13293, Note_off_c, 0, 37, 64
1, 13293, Note_off_c, 0, 44, 64
1, 13296, Note_off_c, 0, 85, 64
1, 13297, Note_off_c, 0, 92, 64
1, 13298, Note_off_c, 1, 44, 64
1, 13311, Note_on_c, 2, 56, 102
1, 13312, Note_on_c, 1, 44, 107
1, 13312, Note_on_c, 0, 44, 73
1, 13312, Note_on_c, 0, 37, 88
1, 13314, Note_on_c, 0, 85, 101
1, 13315, Note_on_c, 0, 89, 108
1, 13325, Note_off_c, 0, 44, 64
1, 13327, Note_off_c, 0, 37, 64
1, 13332, Note_off_c, 1, 44, 64
1, 13332, Note_off_c, 0, 85, 64
1, 13336, Note_off_c, 0, 89, 64
1, 13336, Note_off_c, 2, 56, 64
1, 13342, Note_on_c, 0, 46, 97
1, 13344, Note_off_c, 4, 63, 64
1, 13344, Note_off_c, 4, 56, 64
1, 13344, Note_off_c, 4, 59, 64
1, 13344, Note_on_c, 9, 40, 114
1, 13344, Note_on_c, 1, 41, 95
1, 13344, Note_on_c, 0, 37, 89
1, 13344, Note_on_c, 2, 58, 111
1, 13345, Note_off_c, 9, 40, 64
1, 13345, Note_on_c, 9, 46, 82
1, 13346, Note_off_c, 9, 46, 64
1, 13368, Note_off_c, 0, 46, 64
1, 13391, Note_off_c, 0, 37, 64
1, 13392, Note_off_c, 2, 58, 64
1, 13405, Note_on_c, 0, 37, 73
1, 13406, Note_on_c, 0, 46, 78
1, 13407, Note_on_c, 2, 56, 107
1, 13408, Note_on_c, 9, 36, 72
1, 13409, Note_off_c, 9, 36, 64
1, 13409, Note_on_c, 9, 46, 84
1, 13410, Note_off_c, 9, 46, 64
1, 13414, Note_off_c, 1, 41, 64
1, 13417, Note_off_c, 0, 46, 64
1, 13420, Note_off_c, 0, 37, 64
1, 13430, Note_off_c, 2, 56, 64
1, 13440, Note_on_c, 9, 46, 93
1, 13440, Note_on_c, 9, 36, 102
1, 13440, Note_on_c, 0, 44, 88
1, 13440, Note_on_c, 0, 51, 92
1, 13440, Note_on_c, 0, 80, 82
1, 13440, Note_on_c, 0, 87, 92
1, 13440, Note_on_c, 0, 84, 94
1, 13441, Note_off_c, 9, 36, 64
1, 13441, Note_off_c, 9, 46, 64
1, 13441, Note_on_c, 1, 32, 113
1, 13441, Note_on_c, 2, 44, 123
1, 13444, Lyric_t, "Please, "
1, 13444, Note_on_c, 3, 71, 99
1, 13451, Note_off_c, 0, 51, 64
1, 13455, Note_off_c, 0, 44, 64
1, 13468, Note_off_c, 2, 44, 64
1, 13479, Note_off_c, 0, 87, 64
1, 13479, Note_off_c, 0, 80, 64
1, 13481, Note_off_c, 0, 84, 64
1, 13503, Note_on_c, 0, 51, 78
1, 13503, Note_on_c, 0, 44, 89
1, 13504, Note_on_c, 0, 87, 61
1, 13504, Note_on_c, 0, 84, 61
1, 13504, Note_on_c, 0, 80, 61
1, 13505, Note_on_c, 2, 44, 104
1, 13513, Note_off_c, 0, 80, 64
1, 13513, Note_off_c, 0, 87, 64
1, 13513, Note_off_c, 0, 84, 64
1, 13520, Note_off_c, 0, 51, 64
1, 13522, Note_off_c, 1, 32, 64
1, 13522, Note_off_c, 0, 44, 64
1, 13527, Note_off_c, 3, 71, 64
1, 13527, Note_off_c, 2, 44, 64
1, 13536, Note_on_c, 9, 40, 110
1, 13536, Note_on_c, 0, 89, 97
1, 13536, Note_on_c, 0, 80, 88
1, 13536, Note_on_c, 0, 85, 107
1, 13537, Lyric_t, "please, "
1, 13537, Note_on_c, 3, 71, 102
1, 13537, Note_off_c, 9, 40, 64
1, 13537, Note_on_c, 9, 46, 85
1, 13537, Note_on_c, 1, 36, 100
1, 13537, Note_on_c, 2, 53, 110
1, 13538, Note_off_c, 9, 46, 64
1, 13540, Note_on_c, 0, 53, 98
1, 13540, Note_on_c, 0, 44, 94
1, 13572, Note_off_c, 0, 80, 64
1, 13572, Note_off_c, 0, 89, 64
1, 13572, Note_off_c, 2, 53, 64
1, 13574, Note_off_c, 0, 85, 64
1, 13578, Note_off_c, 0, 44, 64
1, 13582, Note_off_c, 0, 53, 64
1, 13599, Note_on_c, 0, 89, 80
1, 13599, Note_on_c, 0, 80, 67
1, 13599, Note_on_c, 0, 85, 71
1, 13599, Note_on_c, 0, 44, 91
1, 13599, Note_on_c, 2, 53, 102
1, 13601, Note_on_c, 9, 46, 77
1, 13602, Note_off_c, 9, 46, 64
1, 13602, Note_on_c, 0, 53, 83
1, 13609, Note_off_c, 0, 85, 64
1, 13610, Note_off_c, 3, 71, 64
1, 13614, Note_off_c, 1, 36, 64
1, 13616, Note_off_c, 0, 89, 64
1, 13616, Note_off_c, 0, 80, 64
1, 13620, Note_off_c, 0, 44, 64
1, 13620, Note_off_c, 0, 53, 64
1, 13627, Note_off_c, 2, 53, 64
1, 13628, Note_on_c, 0, 51, 87
1, 13632, Note_on_c, 9, 36, 102
1, 13632, Note_on_c, 1, 39, 107
1, 13632, Note_on_c, 0, 80, 55
1, 13632, Note_on_c, 0, 87, 59
1, 13632, Note_on_c, 0, 44, 78
1, 13633, Note_off_c, 9, 36, 64
1, 13633, Note_on_c, 9, 46, 97
1, 13633, Note_on_c, 0, 84, 71
1, 13633, Note_on_c, 2, 51, 118
1, 13634, Lyric_t, "hear "
1, 13634, Note_on_c, 3, 68, 96
1, 13634, Note_off_c, 9, 46, 64
1, 13665, Note_off_c, 2, 51, 64
1, 13671, Note_off_c, 0, 80, 64
1, 13672, Note_off_c, 0, 84, 64
1, 13672, Note_off_c, 0, 87, 64
1, 13679, Note_off_c, 0, 44, 64
1, 13681, Note_off_c, 0, 51, 64
1, 13685, Note_off_c, 1, 39, 64
1, 13695, Note_on_c, 0, 87, 80
1, 13695, Note_on_c, 2, 51, 102
1, 13696, Note_on_c, 1, 39, 95
1, 13696, Note_on_c, 0, 80, 61
1, 13696, Note_on_c, 0, 84, 61
1, 13698, Note_on_c, 0, 51, 74
1, 13700, Note_on_c, 0, 44, 83
1, 13705, Note_off_c, 0, 84, 64
1, 13705, Note_off_c, 0, 80, 64
1, 13708, Note_off_c, 0, 87, 64
1, 13713, Note_off_c, 0, 51, 64
1, 13715, Note_off_c, 0, 44, 64
1, 13717, Note_off_c, 3, 68, 64
1, 13718, Note_off_c, 2, 51, 64
1, 13720, Note_off_c, 1, 39, 64
1, 13724, Lyric_t, "me, "
1, 13724, Note_on_c, 3, 65, 100
1, 13727, Note_on_c, 0, 80, 89
1, 13727, Note_on_c, 0, 85, 103
1, 13727, Note_on_c, 2, 53, 118
1, 13728, Note_on_c, 9, 40, 114
1, 13728, Note_on_c, 9, 46, 82
1, 13728, Note_on_c, 1, 41, 107
1, 13728, Note_on_c, 0, 89, 100
1, 13729, Note_off_c, 9, 46, 64
1, 13729, Note_off_c, 9, 40, 64
1, 13729, Note_on_c, 0, 44, 83
1, 13732, Note_on_c, 0, 53, 102
1, 13765, Note_off_c, 0, 80, 64
1, 13766, Note_off_c, 0, 89, 64
1, 13767, Note_off_c, 0, 85, 64
1, 13770, Note_off_c, 2, 53, 64
1, 13773, Note_off_c, 0, 44, 64
1, 13774, Note_off_c, 0, 53, 64
1, 13781, Note_off_c, 3, 65, 64
1, 13788, Note_on_c, 3, 63, 96
1, 13791, Note_on_c, 0, 80, 72
1, 13791, Note_on_c, 0, 89, 85
1, 13791, Note_on_c, 0, 85, 77
1, 13791, Note_on_c, 0, 53, 77
1, 13791, Note_on_c, 0, 44, 88
1, 13792, Note_on_c, 9, 46, 89
1, 13792, Note_on_c, 2, 51, 107
1, 13793, Note_on_c, 6, 39, 101
1, 13793, Note_off_c, 9, 46, 64
1, 13800, Note_off_c, 0, 85, 64
1, 13806, Note_off_c, 1, 41, 64
1, 13806, Note_off_c, 0, 80, 64
1, 13810, Note_off_c, 0, 89, 64
1, 13812, Note_off_c, 0, 53, 64
1, 13812, Note_off_c, 2, 51, 64
1, 13816, Note_off_c, 6, 39, 64
1, 13816, Note_off_c, 0, 44, 64
1, 13820, Note_off_c, 3, 63, 64
1, 13822, Note_on_c, 0, 51, 71
1, 13823, Note_on_c, 0, 87, 68
1, 13823, Note_on_c, 0, 80, 61
1, 13823, Note_on_c, 0, 84, 78
1, 13824, Note_on_c, 9, 46, 97
1, 13824, Note_on_c, 9, 36, 102
1, 13825, Note_off_c, 9, 36, 64
1, 13825, Note_off_c, 9, 46, 64
1, 13825, Note_on_c, 1, 44, 116
1, 13825, Note_on_c, 2, 44, 123
1, 13827, Note_on_c, 6, 32, 72
1, 13827, Note_on_c, 0, 44, 76
1, 13852, Note_off_c, 2, 44, 64
1, 13858, Note_off_c, 0, 44, 64
1, 13865, Note_off_c, 0, 80, 64
1, 13867, Note_off_c, 0, 51, 64
1, 13867, Note_off_c, 0, 87, 64
1, 13867, Note_off_c, 0, 84, 64
1, 13883, Lyric_t, "you're "
1, 13883, Note_on_c, 3, 68, 104
1, 13884, Note_on_c, 0, 51, 83
1, 13887, Note_on_c, 0, 87, 76
1, 13887, Note_on_c, 0, 44, 85
1, 13888, Note_on_c, 4, 56, 58
1, 13888, Note_on_c, 4, 60, 58
1, 13888, Note_on_c, 4, 53, 58
1, 13888, Note_on_c, 0, 80, 61
1, 13888, Note_on_c, 0, 84, 61
1, 13889, Note_on_c, 2, 44, 104
1, 13897, Note_off_c, 0, 84, 64
1, 13897, Note_off_c, 0, 80, 64
1, 13899, Note_off_c, 0, 87, 64
1, 13901, Note_off_c, 0, 44, 64
1, 13902, Note_off_c, 1, 44, 64
1, 13902, Note_off_c, 0, 51, 64
1, 13911, Note_off_c, 2, 44, 64
1, 13913, Note_off_c, 3, 68, 64
1, 13913, Note_off_c, 6, 32, 64
1, 13919, Note_on_c, 0, 80, 87
1, 13919, Note_on_c, 0, 85, 109
1, 13919, Note_on_c, 0, 89, 102
1, 13919, Note_on_c, 0, 44, 83
1, 13920, Note_on_c, 9, 40, 110
1, 13920, Note_on_c, 9, 46, 85
1, 13920, Note_on_c, 0, 53, 101
1, 13921, Note_off_c, 9, 46, 64
1, 13921, Note_off_c, 9, 40, 64
1, 13921, Note_on_c, 1, 41, 107
1, 13921, Note_on_c, 2, 53, 110
1, 13923, Lyric_t, "the "
1, 13923, Note_on_c, 3, 68, 100
1, 13950, Note_off_c, 0, 80, 64
1, 13956, Note_off_c, 0, 89, 64
1, 13956, Note_off_c, 2, 53, 64
1, 13958, Note_off_c, 0, 85, 64
1, 13963, Note_off_c, 0, 44, 64
1, 13966, Note_off_c, 0, 53, 64
1, 13968, Note_off_c, 3, 68, 64
1, 13982, Note_on_c, 0, 44, 85
1, 13983, Lyric_t, "most. "
1, 13983, Lyric_t, "\015"
1, 13983, Note_on_c, 3, 72, 105
1, 13983, Note_off_c, 4, 60, 64
1, 13983, Note_off_c, 4, 56, 64
1, 13983, Note_on_c, 0, 89, 80
1, 13983, Note_on_c, 0, 85, 76
1, 13983, Note_on_c, 0, 80, 71
1, 13983, Note_on_c, 0, 53, 82
1, 13983, Note_on_c, 2, 53, 102
1, 13984, Note_off_c, 4, 53, 64
1, 13984, Note_on_c, 4, 60, 58
1, 13984, Note_on_c, 4, 63, 58
1, 13984, Note_on_c, 4, 56, 58
1, 13984, Note_on_c, 9, 46, 88
1, 13985, Note_off_c, 9, 46, 64
1, 13997, Note_off_c, 1, 41, 64
1, 13997, Note_off_c, 0, 85, 64
1, 13999, Note_off_c, 0, 80, 64
1, 14001, Note_off_c, 0, 53, 64
1, 14005, Note_off_c, 0, 44, 64
1, 14008, Note_off_c, 0, 89, 64
1, 14011, Note_off_c, 2, 53, 64
1, 14015, Note_on_c, 9, 46, 99
1, 14016, Note_off_c, 9, 46, 64
1, 14016, Note_on_c, 9, 36, 102
1, 14016, Note_on_c, 0, 51, 77
1, 14017, Note_off_c, 9, 36, 64
1, 14017, Note_on_c, 1, 39, 113
1, 14017, Note_on_c, 0, 87, 62
1, 14017, Note_on_c, 0, 84, 75
1, 14017, Note_on_c, 0, 80, 36
1, 14017, Note_on_c, 2, 51, 118
1, 14019, Note_on_c, 0, 44, 68
1, 14026, Note_off_c, 3, 72, 64
1, 14038, Note_off_c, 0, 44, 64
1, 14048, Note_off_c, 0, 51, 64
1, 14049, Note_off_c, 2, 51, 64
1, 14051, Note_off_c, 0, 80, 64
1, 14057, Note_off_c, 0, 84, 64
1, 14057, Note_off_c, 0, 87, 64
1, 14058, Lyric_t, "\012"
1, 14071, Note_on_c, 0, 51, 87
1, 14074, Note_on_c, 0, 44, 89
1, 14079, Note_on_c, 2, 51, 102
1, 14080, Note_on_c, 9, 40, 94
1, 14080, Note_on_c, 0, 80, 61
1, 14080, Note_on_c, 0, 84, 61
1, 14081, Note_off_c, 9, 40, 64
1, 14081, Note_on_c, 0, 87, 60
1, 14089, Note_off_c, 0, 84, 64
1, 14089, Note_off_c, 0, 80, 64
1, 14089, Note_off_c, 0, 51, 64
1, 14090, Note_off_c, 0, 44, 64
1, 14090, Note_off_c, 0, 87, 64
1, 14091, Note_off_c, 1, 39, 64
1, 14102, Note_off_c, 2, 51, 64
1, 14111, Note_on_c, 0, 80, 84
1, 14111, Note_on_c, 2, 53, 118
1, 14112, Note_off_c, 4, 56, 64
1, 14112, Note_off_c, 4, 63, 64
1, 14112, Note_off_c, 4, 60, 64
1, 14112, Note_on_c, 9, 40, 114
1, 14112, Note_on_c, 0, 44, 85
1, 14112, Note_on_c, 0, 53, 97
1, 14113, Note_off_c, 9, 40, 64
1, 14113, Note_on_c, 1, 36, 108
1, 14113, Note_on_c, 0, 85, 107
1, 14113, Note_on_c, 0, 89, 100
1, 14148, Note_off_c, 0, 80, 64
1, 14149, Note_off_c, 0, 85, 64
1, 14153, Note_off_c, 0, 44, 64
1, 14153, Note_off_c, 0, 53, 64
1, 14153, Note_off_c, 0, 89, 64
1, 14154, Note_off_c, 2, 53, 64
1, 14169, Note_on_c, 0, 44, 91
1, 14169, Note_on_c, 0, 53, 81
1, 14170, Note_off_c, 1, 36, 64
1, 14175, Note_on_c, 0, 85, 80
1, 14175, Note_on_c, 0, 80, 67
1, 14175, Note_on_c, 0, 89, 72
1, 14176, Note_on_c, 9, 46, 82
1, 14176, Note_on_c, 9, 36, 77
1, 14176, Note_on_c, 2, 51, 107
1, 14177, Note_off_c, 9, 36, 64
1, 14177, Note_off_c, 9, 46, 64
1, 14183, Note_off_c, 0, 80, 64
1, 14185, Note_off_c, 0, 53, 64
1, 14185, Note_off_c, 0, 44, 64
1, 14185, Note_off_c, 0, 89, 64
1, 14186, Note_off_c, 0, 85, 64
1, 14196, Note_off_c, 2, 51, 64
1, 14208, Lyric_t, "Now "
1, 14208, Note_on_c, 3, 70, 91
1, 14208, Note_on_c, 5, 70, 82
1, 14208, Note_on_c, 5, 67, 87
1, 14208, Note_on_c, 5, 63, 67
1, 14208, Note_on_c, 5, 61, 73
1, 14208, Note_on_c, 9, 46, 93
1, 14208, Note_on_c, 9, 36, 102
1, 14208, Note_on_c, 1, 39, 113
1, 14208, Note_on_c, 0, 46, 91
1, 14208, Note_on_c, 0, 39, 97
1, 14208, Note_on_c, 0, 63, 63
1, 14208, Note_on_c, 0, 67, 76
1, 14208, Note_on_c, 0, 61, 60
1, 14209, Note_off_c, 9, 36, 64
1, 14209, Note_off_c, 9, 46, 64
1, 14209, Note_on_c, 2, 51, 120
1, 14239, Note_off_c, 2, 51, 64
1, 14246, Note_off_c, 0, 67, 64
1, 14246, Note_off_c, 0, 63, 64
1, 14248, Note_off_c, 0, 61, 64
1, 14254, Note_off_c, 0, 39, 64
1, 14255, Note_off_c, 3, 70, 64
1, 14255, Note_off_c, 0, 46, 64
1, 14269, Lyric_t, "you "
1, 14269, Note_on_c, 3, 70, 103
1, 14271, Note_on_c, 0, 61, 56
1, 14271, Note_on_c, 0, 46, 63
1, 14271, Note_on_c, 0, 39, 83
1, 14271, Note_on_c, 0, 63, 53
1, 14271, Note_on_c, 2, 51, 109
1, 14273, Note_on_c, 0, 67, 50
1, 14279, Note_off_c, 0, 67, 64
1, 14279, Note_off_c, 0, 63, 64
1, 14282, Note_off_c, 1, 39, 64
1, 14282, Note_off_c, 0, 61, 64
1, 14288, Note_off_c, 0, 39, 64
1, 14289, Note_off_c, 0, 46, 64
1, 14294, Note_off_c, 2, 51, 64
1, 14298, Note_off_c, 3, 70, 64
1, 14303, Note_on_c, 1, 43, 112
1, 14303, Note_on_c, 0, 67, 78
1, 14303, Note_on_c, 0, 48, 101
1, 14303, Note_on_c, 0, 39, 91
1, 14304, Note_on_c, 9, 40, 110
1, 14305, Note_off_c, 9, 40, 64
1, 14305, Note_on_c, 9, 46, 85
1, 14305, Note_on_c, 0, 61, 69
1, 14305, Note_on_c, 0, 63, 69
1, 14305, Note_on_c, 2, 60, 109
1, 14306, Note_off_c, 9, 46, 64
1, 14308, Lyric_t, "got "
1, 14308, Note_on_c, 3, 70, 89
1, 14339, Note_off_c, 0, 63, 64
1, 14339, Note_off_c, 0, 61, 64
1, 14343, Note_off_c, 0, 39, 64
1, 14344, Note_off_c, 0, 67, 64
1, 14344, Note_off_c, 2, 60, 64
1, 14349, Note_off_c, 3, 70, 64
1, 14351, Note_off_c, 1, 43, 64
1, 14352, Note_off_c, 0, 48, 64
1, 14365, Lyric_t, "me "
1, 14365, Note_on_c, 3, 70, 101
1, 14367, Note_on_c, 0, 67, 76
1, 14367, Note_on_c, 0, 63, 61
1, 14367, Note_on_c, 0, 61, 63
1, 14367, Note_on_c, 0, 39, 99
1, 14367, Note_on_c, 0, 48, 84
1, 14367, Note_on_c, 2, 60, 104
1, 14368, Note_on_c, 1, 43, 95
1, 14377, Note_off_c, 0, 63, 64
1, 14378, Note_off_c, 0, 61, 64
1, 14381, Note_off_c, 0, 67, 64
1, 14387, Note_off_c, 0, 48, 64
1, 14388, Note_off_c, 3, 70, 64
1, 14389, Note_off_c, 0, 39, 64
1, 14392, Note_off_c, 1, 43, 64
1, 14392, Note_off_c, 2, 60, 64
1, 14399, Note_on_c, 1, 46, 107
1, 14399, Note_on_c, 0, 46, 91
1, 14399, Note_on_c, 0, 39, 89
1, 14400, Note_on_c, 9, 36, 102
1, 14401, Note_off_c, 9, 36, 64
1, 14401, Note_on_c, 9, 46, 97
1, 14401, Note_on_c, 0, 63, 56
1, 14401, Note_on_c, 0, 67, 69
1, 14401, Note_on_c, 0, 61, 60
1, 14401, Note_on_c, 2, 58, 111
1, 14402, Lyric_t, "start"
1, 14402, Note_on_c, 3, 70, 92
1, 14402, Note_off_c, 9, 46, 64
1, 14435, Note_off_c, 2, 58, 64
1, 14440, Note_off_c, 0, 61, 64
1, 14442, Note_off_c, 0, 67, 64
1, 14443, Note_off_c, 0, 63, 64
1, 14446, Note_off_c, 0, 39, 64
1, 14448, Note_off_c, 3, 70, 64
1, 14451, Note_off_c, 0, 46, 64
1, 14462, Lyric_t, "ed, "
1, 14462, Lyric_t, "\015"
1, 14462, Note_on_c, 3, 70, 99
1, 14463, Note_on_c, 2, 58, 91
1, 14464, Note_on_c, 0, 46, 68
1, 14465, Note_on_c, 0, 39, 91
1, 14465, Note_on_c, 0, 63, 60
1, 14465, Note_on_c, 0, 61, 64
1, 14465, Note_on_c, 0, 67, 48
1, 14472, Note_off_c, 0, 67, 64
1, 14475, Note_off_c, 0, 61, 64
1, 14476, Note_off_c, 0, 63, 64
1, 14477, Note_off_c, 0, 39, 64
1, 14479, Note_off_c, 0, 46, 64
1, 14481, Note_off_c, 1, 46, 64
1, 14485, Note_off_c, 3, 70, 64
1, 14485, Note_off_c, 2, 58, 64
1, 14495, Note_on_c, 1, 48, 109
1, 14495, Note_on_c, 0, 39, 99
1, 14495, Note_on_c, 0, 48, 104
1, 14496, Lyric_t, "don't "
1, 14496, Note_on_c, 3, 70, 90
1, 14496, Note_on_c, 9, 40, 114
1, 14496, Note_on_c, 9, 46, 85
1, 14497, Note_off_c, 9, 46, 64
1, 14497, Note_off_c, 9, 40, 64
1, 14497, Note_on_c, 0, 63, 77
1, 14497, Note_on_c, 0, 67, 87
1, 14497, Note_on_c, 0, 61, 77
1, 14497, Note_on_c, 2, 60, 111
1, 14527, Note_off_c, 0, 61, 64
1, 14527, Note_off_c, 0, 67, 64
1, 14528, Note_off_c, 0, 63, 64
1, 14541, Note_off_c, 0, 39, 64
1, 14543, Note_off_c, 3, 70, 64
1, 14543, Note_off_c, 0, 48, 64
1, 14543, Note_off_c, 2, 60, 64
1, 14554, Lyric_t, "you "
1, 14554, Note_on_c, 3, 70, 103
1, 14559, Note_on_c, 0, 63, 64
1, 14559, Note_on_c, 0, 61, 64
1, 14559, Note_on_c, 0, 48, 79
1, 14559, Note_on_c, 0, 39, 92
1, 14559, Note_on_c, 0, 67, 59
1, 14560, Note_on_c, 9, 46, 77
1, 14560, Note_on_c, 9, 36, 77
1, 14560, Note_on_c, 2, 58, 94
1, 14561, Note_off_c, 9, 36, 64
1, 14561, Note_off_c, 9, 46, 64
1, 14564, Note_off_c, 0, 67, 64
1, 14570, Note_off_c, 0, 39, 64
1, 14571, Note_off_c, 0, 63, 64
1, 14571, Note_off_c, 0, 61, 64
1, 14574, Note_off_c, 0, 48, 64
1, 14575, Note_off_c, 1, 48, 64
1, 14578, Note_off_c, 3, 70, 64
1, 14586, Note_off_c, 2, 58, 64
1, 14591, Note_off_c, 5, 61, 64
1, 14591, Note_off_c, 5, 70, 64
1, 14591, Note_off_c, 5, 67, 64
1, 14591, Note_on_c, 0, 61, 66
1, 14591, Note_on_c, 0, 44, 73
1, 14591, Note_on_c, 0, 37, 92
1, 14591, Note_on_c, 0, 59, 61
1, 14592, Lyric_t, "leave "
1, 14592, Note_on_c, 3, 68, 86
1, 14592, Note_off_c, 5, 63, 64
1, 14592, Note_on_c, 5, 61, 68
1, 14592, Note_on_c, 5, 65, 77
1, 14592, Note_on_c, 5, 68, 84
1, 14592, Note_on_c, 5, 59, 65
1, 14592, Note_on_c, 9, 46, 97
1, 14592, Note_on_c, 9, 36, 102
1, 14592, Note_on_c, 0, 65, 72
1, 14593, Note_off_c, 9, 36, 64
1, 14593, Note_off_c, 9, 46, 64
1, 14593, Note_on_c, 1, 37, 116
1, 14593, Note_on_c, 2, 49, 119
1, 14625, Note_off_c, 2, 49, 64
1, 14630, Note_off_c, 0, 65, 64
1, 14631, Note_off_c, 0, 61, 64
1, 14632, Note_off_c, 0, 59, 64
1, 14636, Note_off_c, 0, 37, 64
1, 14637, Note_off_c, 0, 44, 64
1, 14640, Note_off_c, 3, 68, 64
1, 14643, Note_off_c, 1, 37, 64
1, 14652, Lyric_t, "me "
1, 14652, Note_on_c, 3, 68, 102
1, 14655, Note_on_c, 0, 61, 66
1, 14655, Note_on_c, 0, 65, 71
1, 14655, Note_on_c, 0, 59, 62
1, 14656, Note_on_c, 1, 37, 112
1, 14656, Note_on_c, 0, 44, 71
1, 14656, Note_on_c, 0, 37, 77
1, 14657, Note_on_c, 2, 49, 108
1, 14663, Note_off_c, 0, 65, 64
1, 14665, Note_off_c, 0, 61, 64
1, 14666, Note_off_c, 0, 59, 64
1, 14670, Note_off_c, 0, 44, 64
1, 14672, Note_off_c, 0, 37, 64
1, 14675, Note_off_c, 1, 37, 64
1, 14675, Note_off_c, 2, 49, 64
1, 14680, Note_off_c, 3, 68, 64
1, 14687, Note_on_c, 0, 61, 85
1, 14688, Lyric_t, "bro"
1, 14688, Note_on_c, 3, 68, 89
1, 14688, Note_on_c, 9, 40, 110
1, 14688, Note_on_c, 1, 41, 111
1, 14688, Note_on_c, 0, 46, 87
1, 14688, Note_on_c, 0, 37, 92
1, 14688, Note_on_c, 0, 65, 81
1, 14688, Note_on_c, 0, 59, 75
1, 14689, Note_off_c, 9, 40, 64
1, 14689, Note_on_c, 9, 46, 78
1, 14689, Note_on_c, 2, 58, 116
1, 14690, Note_off_c, 9, 46, 64
1, 14722, Note_off_c, 2, 58, 64
1, 14724, Note_off_c, 0, 59, 64
1, 14725, Note_off_c, 0, 61, 64
1, 14728, Note_off_c, 0, 65, 64
1, 14736, Note_off_c, 0, 37, 64
1, 14738, Note_off_c, 3, 68, 64
1, 14738, Note_off_c, 0, 46, 64
1, 14751, Note_on_c, 9, 46, 63
1, 14751, Note_on_c, 0, 46, 77
1, 14751, Note_on_c, 0, 37, 83
1, 14751, Note_on_c, 2, 58, 104
1, 14752, Note_off_c, 9, 46, 64
1, 14753, Lyric_t, "ken"
1, 14753, Note_on_c, 3, 68, 102
1, 14753, Note_on_c, 0, 65, 78
1, 14753, Note_on_c, 0, 61, 77
1, 14753, Note_on_c, 0, 59, 62
1, 14760, Note_off_c, 1, 41, 64
1, 14761, Note_off_c, 0, 61, 64
1, 14762, Note_off_c, 0, 59, 64
1, 14764, Note_off_c, 0, 65, 64
1, 14775, Note_off_c, 0, 46, 64
1, 14778, Note_off_c, 2, 58, 64
1, 14782, Note_off_c, 3, 68, 64
1, 14783, Note_on_c, 9, 46, 99
1, 14783, Note_on_c, 1, 44, 111
1, 14784, Note_off_c, 9, 46, 64
1, 14784, Note_on_c, 9, 36, 102
1, 14784, Note_on_c, 0, 65, 76
1, 14784, Note_on_c, 0, 61, 68
1, 14785, Note_off_c, 9, 36, 64
1, 14785, Note_on_c, 0, 44, 56
1, 14785, Note_on_c, 0, 59, 64
1, 14785, Note_on_c, 2, 56, 112
1, 14790, Lyric_t, "heart"
1, 14790, Note_on_c, 3, 68, 98
1, 14821, Note_off_c, 2, 56, 64
1, 14823, Note_off_c, 0, 59, 64
1, 14823, Note_off_c, 0, 61, 64
1, 14825, Note_off_c, 0, 44, 64
1, 14826, Note_off_c, 0, 65, 64
1, 14828, Note_off_c, 0, 37, 64
1, 14839, Note_off_c, 3, 68, 64
1, 14847, Note_on_c, 2, 56, 102
1, 14848, Note_on_c, 9, 40, 99
1, 14849, Lyric_t, "ed, "
1, 14849, Lyric_t, "\015"
1, 14849, Note_on_c, 3, 68, 95
1, 14849, Note_off_c, 9, 40, 64
1, 14849, Note_on_c, 0, 44, 78
1, 14849, Note_on_c, 0, 37, 94
1, 14849, Note_on_c, 0, 61, 72
1, 14849, Note_on_c, 0, 65, 76
1, 14849, Note_on_c, 0, 59, 62
1, 14859, Note_off_c, 0, 61, 64
1, 14860, Note_off_c, 0, 59, 64
1, 14861, Note_off_c, 0, 44, 64
1, 14861, Note_off_c, 0, 37, 64
1, 14862, Note_off_c, 0, 65, 64
1, 14865, Note_off_c, 1, 44, 64
1, 14871, Note_off_c, 3, 68, 64
1, 14872, Note_off_c, 2, 56, 64
1, 14879, Note_on_c, 1, 46, 106
1, 14880, Note_on_c, 9, 40, 114
1, 14880, Note_on_c, 2, 58, 111
1, 14881, Note_off_c, 9, 40, 64
1, 14881, Note_on_c, 0, 46, 94
1, 14881, Note_on_c, 0, 37, 97
1, 14881, Note_on_c, 0, 61, 91
1, 14881, Note_on_c, 0, 65, 91
1, 14881, Note_on_c, 0, 59, 80
1, 14888, Lyric_t, "'cause "
1, 14888, Note_on_c, 3, 65, 93
1, 14906, Note_off_c, 0, 61, 64
1, 14908, Note_off_c, 0, 65, 64
1, 14908, Note_off_c, 0, 59, 64
1, 14911, Note_off_c, 0, 46, 64
1, 14915, Note_off_c, 0, 37, 64
1, 14928, Note_off_c, 2, 58, 64
1, 14932, Note_off_c, 3, 65, 64
1, 14943, Lyric_t, "I "
1, 14943, Note_on_c, 3, 63, 103
1, 14943, Note_on_c, 0, 65, 80
1, 14943, Note_on_c, 0, 61, 64
1, 14943, Note_on_c, 0, 59, 71
1, 14943, Note_on_c, 0, 46, 73
1, 14943, Note_on_c, 0, 37, 65
1, 14943, Note_on_c, 2, 56, 107
1, 14944, Note_on_c, 9, 36, 77
1, 14945, Note_off_c, 9, 36, 64
1, 14945, Note_on_c, 9, 46, 84
1, 14946, Note_off_c, 9, 46, 64
1, 14946, Note_off_c, 0, 37, 64
1, 14949, Note_off_c, 0, 46, 64
1, 14952, Note_off_c, 0, 61, 64
1, 14955, Note_off_c, 0, 59, 64
1, 14958, Note_off_c, 3, 63, 64
1, 14958, Note_off_c, 0, 65, 64
1, 14963, Note_off_c, 1, 46, 64
1, 14966, Note_off_c, 2, 56, 64
1, 14975, Note_off_c, 5, 59, 64
1, 14975, Note_off_c, 5, 61, 64
1, 14975, Note_off_c, 5, 65, 64
1, 14975, Note_off_c, 5, 68, 64
1, 14975, Note_on_c, 0, 51, 81
1, 14975, Note_on_c, 0, 44, 84
1, 14976, Note_on_c, 5, 63, 44
1, 14976, Note_on_c, 5, 60, 71
1, 14976, Note_on_c, 5, 65, 71
1, 14976, Note_on_c, 5, 68, 89
1, 14976, Note_on_c, 9, 46, 93
1, 14976, Note_on_c, 9, 36, 102
1, 14976, Note_on_c, 0, 63, 50
1, 14977, Note_off_c, 9, 36, 64
1, 14977, Note_off_c, 9, 46, 64
1, 14977, Note_on_c, 1, 44, 110
1, 14977, Note_on_c, 0, 60, 63
1, 14977, Note_on_c, 2, 44, 123
1, 14983, Lyric_t, "love "
1, 14983, Note_on_c, 3, 68, 100
1, 14987, Note_off_c, 0, 63, 64
1, 15004, Note_off_c, 2, 44, 64
1, 15007, Note_off_c, 0, 60, 64
1, 15016, Note_off_c, 0, 44, 64
1, 15020, Note_off_c, 0, 51, 64
1, 15039, Note_on_c, 0, 44, 88
1, 15039, Note_on_c, 0, 51, 78
1, 15041, Note_on_c, 0, 60, 68
1, 15041, Note_on_c, 0, 56, 41
1, 15041, Note_on_c, 2, 44, 104
1, 15047, Note_off_c, 0, 56, 64
1, 15049, Note_off_c, 0, 60, 64
1, 15051, Note_off_c, 0, 51, 64
1, 15054, Note_off_c, 0, 44, 64
1, 15057, Note_off_c, 1, 44, 64
1, 15061, Note_off_c, 3, 68, 64
1, 15063, Note_off_c, 2, 44, 64
1, 15071, Lyric_t, "you "
1, 15071, Note_on_c, 3, 65, 96
1, 15071, Note_on_c, 0, 53, 98
1, 15071, Note_on_c, 0, 44, 97
1, 15072, Note_on_c, 9, 40, 110
1, 15073, Note_off_c, 9, 40, 64
1, 15073, Note_on_c, 9, 46, 85
1, 15073, Note_on_c, 1, 41, 102
1, 15073, Note_on_c, 0, 56, 85
1, 15073, Note_on_c, 0, 63, 77
1, 15073, Note_on_c, 0, 60, 90
1, 15073, Note_on_c, 2, 53, 110
1, 15074, Note_off_c, 9, 46, 64
1, 15108, Note_off_c, 2, 53, 64
1, 15110, Note_off_c, 0, 60, 64
1, 15110, Note_off_c, 0, 56, 64
1, 15110, Note_off_c, 0, 63, 64
1, 15121, Note_off_c, 0, 44, 64
1, 15129, Note_off_c, 0, 53, 64
1, 15132, Note_on_c, 3, 63, 94
1, 15134, Note_off_c, 3, 65, 64
1, 15135, Note_on_c, 2, 53, 102
1, 15136, Note_on_c, 0, 56, 56
1, 15137, Note_on_c, 9, 46, 77
1, 15137, Note_on_c, 0, 44, 87
1, 15137, Note_on_c, 0, 53, 80
1, 15137, Note_on_c, 0, 63, 66
1, 15137, Note_on_c, 0, 60, 74
1, 15138, Note_off_c, 9, 46, 64
1, 15144, Note_off_c, 0, 63, 64
1, 15146, Note_off_c, 0, 60, 64
1, 15150, Note_off_c, 0, 56, 64
1, 15154, Note_off_c, 1, 41, 64
1, 15158, Note_off_c, 0, 53, 64
1, 15160, Note_off_c, 0, 44, 64
1, 15163, Note_off_c, 2, 53, 64
1, 15168, Note_on_c, 9, 36, 102
1, 15168, Note_on_c, 1, 39, 99
1, 15169, Note_off_c, 9, 36, 64
1, 15169, Note_on_c, 9, 46, 97
1, 15169, Note_on_c, 0, 51, 94
1, 15169, Note_on_c, 0, 44, 80
1, 15169, Note_on_c, 0, 56, 59
1, 15169, Note_on_c, 0, 63, 72
1, 15169, Note_on_c, 0, 60, 81
1, 15169, Note_on_c, 2, 51, 118
1, 15170, Note_off_c, 9, 46, 64
1, 15200, Note_off_c, 0, 60, 64
1, 15200, Note_off_c, 0, 63, 64
1, 15201, Note_off_c, 0, 56, 64
1, 15201, Note_off_c, 2, 51, 64
1, 15206, Note_off_c, 3, 63, 64
1, 15212, Note_off_c, 0, 44, 64
1, 15215, Note_off_c, 0, 51, 64
1, 15231, Note_on_c, 2, 51, 102
1, 15233, Note_on_c, 0, 51, 71
1, 15233, Note_on_c, 0, 44, 82
1, 15233, Note_on_c, 0, 63, 69
1, 15233, Note_on_c, 0, 60, 70
1, 15233, Note_on_c, 0, 56, 34
1, 15234, Note_on_c, 9, 40, 55
1, 15235, Note_off_c, 9, 40, 64
1, 15240, Note_off_c, 1, 39, 64
1, 15241, Note_off_c, 0, 56, 64
1, 15241, Note_off_c, 0, 60, 64
1, 15243, Note_off_c, 0, 51, 64
1, 15245, Note_on_c, 9, 40, 67
1, 15246, Note_off_c, 9, 40, 64
1, 15246, Note_off_c, 0, 63, 64
1, 15247, Note_off_c, 0, 44, 64
1, 15254, Note_off_c, 2, 51, 64
1, 15258, Lyric_t, "too "
1, 15258, Note_on_c, 3, 68, 101
1, 15263, Note_on_c, 1, 41, 106
1, 15263, Note_on_c, 2, 53, 118
1, 15264, Note_on_c, 9, 40, 114
1, 15265, Note_on_c, 4, 56, 99
1, 15265, Note_off_c, 9, 40, 64
1, 15265, Note_on_c, 0, 53, 100
1, 15265, Note_on_c, 0, 44, 84
1, 15265, Note_on_c, 0, 56, 81
1, 15265, Note_on_c, 0, 63, 81
1, 15265, Note_on_c, 0, 60, 86
1, 15291, Note_off_c, 0, 60, 64
1, 15291, Note_off_c, 0, 63, 64
1, 15296, Note_off_c, 0, 44, 64
1, 15297, Note_off_c, 0, 56, 64
1, 15299, Note_off_c, 0, 53, 64
1, 15306, Note_off_c, 2, 53, 64
1, 15320, Note_off_c, 3, 68, 64
1, 15327, Note_on_c, 0, 53, 83
1, 15327, Note_on_c, 0, 44, 89
1, 15328, Note_on_c, 2, 51, 107
1, 15341, Note_off_c, 1, 41, 64
1, 15341, Note_off_c, 0, 53, 64
1, 15344, Note_off_c, 0, 44, 64
1, 15348, Note_off_c, 2, 51, 64
1, 15359, Note_on_c, 0, 51, 105
1, 15359, Note_on_c, 0, 56, 103
1, 15359, Note_on_c, 0, 63, 94
1, 15359, Note_on_c, 0, 60, 105
1, 15359, Note_on_c, 2, 44, 123
1, 15360, Lyric_t, "much. "
1, 15360, Lyric_t, "\015"
1, 15360, Note_on_c, 3, 68, 106
1, 15360, Note_off_c, 5, 68, 64
1, 15360, Note_off_c, 5, 63, 64
1, 15360, Note_off_c, 5, 60, 64
1, 15360, Note_off_c, 5, 65, 64
1, 15360, Note_on_c, 9, 40, 110
1, 15360, Note_on_c, 9, 49, 79
1, 15360, Note_on_c, 9, 36, 102
1, 15360, Note_on_c, 1, 44, 112
1, 15360, Note_on_c, 0, 44, 103
1, 15361, Note_off_c, 4, 56, 64
1, 15361, Note_off_c, 9, 36, 64
1, 15361, Note_off_c, 9, 49, 64
1, 15361, Note_off_c, 9, 40, 64
1, 15362, Note_on_c, 4, 56, 94
1, 15382, Note_off_c, 0, 63, 64
1, 15384, Note_off_c, 0, 60, 64
1, 15384, Note_off_c, 0, 56, 64
1, 15403, Note_off_c, 0, 51, 64
1, 15406, Note_off_c, 0, 44, 64
1, 15412, Note_off_c, 2, 44, 64
1, 15416, Note_off_c, 1, 44, 64
1, 15423, Note_off_c, 3, 68, 64
1, 15426, Note_on_c, 9, 40, 55
1, 15427, Note_off_c, 9, 40, 64
1, 15437, Note_on_c, 9, 40, 67
1, 15438, Note_off_c, 9, 40, 64
1, 15455, Note_off_c, 4, 56, 64
1, 15456, Note_on_c, 4, 56, 70
1, 15456, Note_on_c, 4, 51, 70
1, 15456, Note_on_c, 4, 60, 75
1, 15456, Note_on_c, 4, 53, 61
1, 15456, Note_on_c, 5, 63, 75
1, 15456, Note_on_c, 5, 68, 75
1, 15456, Note_on_c, 5, 72, 80
1, 15456, Note_on_c, 5, 65, 66
1, 15456, Note_on_c, 6, 32, 96
1, 15456, Note_on_c, 9, 40, 88
1, 15457, Note_off_c, 9, 40, 64
1, 15460, Note_on_c, 6, 44, 78
1, 15511, Note_off_c, 6, 44, 64
1, 15513, Note_off_c, 6, 32, 64
1, 15519, Note_off_c, 4, 53, 64
1, 15519, Note_off_c, 4, 60, 64
1, 15519, Note_off_c, 4, 56, 64
1, 15519, Note_off_c, 5, 65, 64
1, 15519, Note_off_c, 5, 72, 64
1, 15519, Note_off_c, 5, 68, 64
1, 15519, Note_on_c, 6, 44, 71
1, 15519, Note_on_c, 9, 49, 75
1, 15519, Note_on_c, 1, 44, 113
1, 15519, Note_on_c, 0, 63, 94
1, 15519, Note_on_c, 0, 56, 111
1, 15519, Note_on_c, 0, 44, 101
1, 15519, Note_on_c, 0, 51, 120
1, 15519, Note_on_c, 0, 60, 96
1, 15520, Note_off_c, 4, 51, 64
1, 15520, Note_on_c, 4, 60, 71
1, 15520, Note_on_c, 4, 56, 80
1, 15520, Note_on_c, 4, 63, 79
1, 15520, Note_on_c, 4, 53, 65
1, 15520, Note_off_c, 5, 63, 64
1, 15520, Note_on_c, 5, 68, 85
1, 15520, Note_on_c, 5, 72, 76
1, 15520, Note_on_c, 5, 75, 84
1, 15520, Note_on_c, 5, 65, 70
1, 15520, Note_off_c, 9, 49, 64
1, 15520, Note_on_c, 9, 40, 116
1, 15520, Note_on_c, 9, 36, 102
1, 15520, Note_on_c, 2, 44, 126
1, 15521, Note_off_c, 9, 36, 64
1, 15521, Note_off_c, 9, 40, 64
1, 15525, Note_on_c, 6, 32, 90
1, 15563, Note_off_c, 2, 44, 64
1, 15566, Note_off_c, 0, 60, 64
1, 15567, Note_off_c, 0, 63, 64
1, 15569, Note_off_c, 0, 56, 64
1, 15571, Note_off_c, 6, 44, 64
1, 15574, Note_off_c, 0, 51, 64
1, 15576, Note_off_c, 1, 44, 64
1, 15578, Note_off_c, 0, 44, 64
1, 15579, Note_off_c, 6, 32, 64
1, 15584, Note_off_c, 5, 65, 64
1, 15584, Note_off_c, 5, 68, 64
1, 15584, Note_off_c, 5, 72, 64
1, 15584, Note_off_c, 5, 75, 64
1, 15615, Note_on_c, 0, 73, 103
1, 15615, Note_on_c, 0, 70, 111
1, 15616, Note_on_c, 1, 27, 116
1, 15617, Note_on_c, 0, 75, 101
1, 15617, Note_on_c, 0, 67, 122
1, 15617, Note_on_c, 0, 63, 120
1, 15618, Note_on_c, 0, 46, 95
1, 15618, Note_on_c, 0, 39, 103
1, 15620, Note_on_c, 9, 40, 55
1, 15621, Note_off_c, 9, 40, 64
1, 15633, Note_on_c, 9, 40, 67
1, 15634, Note_off_c, 9, 40, 64
1, 15648, Note_off_c, 4, 53, 64
1, 15648, Note_off_c, 4, 60, 64
1, 15648, Note_off_c, 4, 56, 64
1, 15648, Note_off_c, 4, 63, 64
1, 15648, Note_on_c, 9, 40, 112
1, 15649, Note_off_c, 9, 40, 64
1, 15711, Note_off_c, 1, 27, 64
1, 15729, Note_off_c, 0, 70, 64
1, 15731, Note_off_c, 0, 73, 64
1, 15732, Note_off_c, 0, 67, 64
1, 15733, Note_off_c, 0, 63, 64
1, 15733, Note_off_c, 0, 46, 64
1, 15733, Note_off_c, 0, 39, 64
1, 15740, Note_off_c, 0, 75, 64
1, 15744, Note_on_c, 9, 40, 98
1, 15744, Note_on_c, 9, 51, 91
1, 15744, Note_on_c, 1, 44, 114
1, 15744, Note_on_c, 0, 87, 94
1, 15744, Note_on_c, 0, 92, 101
1, 15744, Note_on_c, 0, 51, 89
1, 15744, Note_on_c, 0, 44, 68
1, 15744, Note_on_c, 2, 56, 127
1, 15744, Note_on_c, 2, 51, 127
1, 15745, Note_off_c, 9, 51, 64
1, 15745, Note_off_c, 9, 40, 64
1, 15756, Note_off_c, 0, 92, 64
1, 15756, Note_off_c, 0, 87, 64
1, 15767, Note_off_c, 0, 51, 64
1, 15767, Note_off_c, 0, 44, 64
1, 15773, Note_on_c, 0, 87, 72
1, 15774, Note_on_c, 0, 92, 82
1, 15774, Note_off_c, 2, 51, 64
1, 15775, Note_on_c, 9, 51, 89
1, 15775, Note_on_c, 0, 44, 85
1, 15775, Note_on_c, 0, 51, 72
1, 15776, Note_off_c, 9, 51, 64
1, 15776, Note_on_c, 9, 40, 84
1, 15776, Note_off_c, 2, 56, 64
1, 15776, Note_on_c, 2, 57, 97
1, 15777, Note_off_c, 9, 40, 64
1, 15777, Note_on_c, 2, 52, 114
1, 15787, Note_off_c, 0, 87, 64
1, 15788, Note_off_c, 0, 92, 64
1, 15803, Note_off_c, 0, 44, 64
1, 15803, Note_off_c, 0, 51, 64
1, 15805, Note_on_c, 2, 58, 114
1, 15807, Note_on_c, 9, 51, 99
1, 15807, Note_on_c, 0, 51, 75
1, 15808, Note_off_c, 9, 51, 64
1, 15808, Note_on_c, 9, 40, 88
1, 15808, Note_on_c, 0, 87, 85
1, 15808, Note_on_c, 0, 92, 94
1, 15808, Note_on_c, 0, 44, 80
1, 15808, Note_off_c, 2, 57, 64
1, 15808, Note_on_c, 2, 53, 121
1, 15809, Note_off_c, 9, 40, 64
1, 15815, Note_off_c, 1, 44, 64
1, 15816, Note_off_c, 2, 52, 64
1, 15820, Note_off_c, 0, 92, 64
1, 15820, Note_off_c, 0, 87, 64
1, 15835, Note_off_c, 0, 51, 64
1, 15836, Note_off_c, 0, 44, 64
1, 15838, Note_off_c, 2, 58, 64
1, 15838, Note_on_c, 2, 59, 107
1, 15839, Note_on_c, 9, 51, 95
1, 15839, Note_on_c, 1, 41, 100
1, 15839, Note_on_c, 0, 51, 101
1, 15839, Note_on_c, 0, 44, 83
1, 15840, Note_off_c, 9, 51, 64
1, 15840, Note_on_c, 9, 40, 87
1, 15840, Note_on_c, 2, 54, 127
1, 15841, Note_off_c, 9, 40, 64
1, 15842, Note_on_c, 0, 87, 81
1, 15842, Note_on_c, 0, 92, 92
1, 15849, Note_off_c, 2, 53, 64
1, 15855, Note_off_c, 0, 92, 64
1, 15855, Note_off_c, 0, 87, 64
1, 15866, Note_on_c, 2, 58, 112
1, 15867, Note_off_c, 0, 44, 64
1, 15867, Note_off_c, 0, 51, 64
1, 15871, Note_on_c, 0, 44, 80
1, 15871, Note_on_c, 0, 51, 74
1, 15871, Note_off_c, 2, 59, 64
1, 15872, Note_on_c, 9, 40, 100
1, 15873, Note_off_c, 9, 40, 64
1, 15873, Note_on_c, 9, 51, 99
1, 15873, Note_on_c, 0, 87, 80
1, 15873, Note_on_c, 0, 92, 83
1, 15874, Note_off_c, 9, 51, 64
1, 15874, Note_on_c, 2, 53, 121
1, 15880, Note_off_c, 2, 54, 64
1, 15884, Note_off_c, 0, 92, 64
1, 15884, Note_off_c, 0, 87, 64
1, 15898, Note_on_c, 2, 57, 107
1, 15899, Note_off_c, 0, 51, 64
1, 15899, Note_off_c, 0, 44, 64
1, 15899, Note_off_c, 2, 58, 64
1, 15901, Note_on_c, 2, 52, 111
1, 15902, Note_on_c, 0, 51, 92
1, 15903, Note_on_c, 0, 44, 95
1, 15904, Note_on_c, 9, 40, 104
1, 15904, Note_on_c, 0, 87, 84
1, 15904, Note_on_c, 0, 92, 97
1, 15905, Note_off_c, 9, 40, 64
1, 15905, Note_on_c, 9, 51, 95
1, 15906, Note_off_c, 9, 51, 64
1, 15907, Note_off_c, 2, 53, 64
1, 15915, Note_off_c, 0, 92, 64
1, 15915, Note_off_c, 0, 87, 64
1, 15916, Note_off_c, 1, 41, 64
1, 15930, Note_off_c, 0, 51, 64
1, 15931, Note_off_c, 0, 44, 64
1, 15932, Note_on_c, 2, 56, 116
1, 15935, Note_on_c, 0, 44, 111
1, 15935, Note_on_c, 0, 51, 117
1, 15936, Note_on_c, 9, 40, 122
1, 15936, Note_on_c, 1, 39, 107
1, 15936, Note_on_c, 0, 87, 109
1, 15936, Note_off_c, 2, 57, 64
1, 15937, Note_off_c, 9, 40, 64
1, 15937, Note_on_c, 9, 51, 110
1, 15938, Note_off_c, 9, 51, 64
1, 15938, Note_on_c, 2, 51, 127
1, 15939, Note_on_c, 0, 92, 117
1, 15944, Note_off_c, 2, 52, 64
1, 15953, Note_off_c, 0, 92, 64
1, 15953, Note_off_c, 0, 87, 64
1, 15963, Note_off_c, 0, 51, 64
1, 15963, Note_off_c, 0, 44, 64
1, 15972, Note_off_c, 2, 51, 64
1, 15972, Note_off_c, 2, 56, 64
1, 16000, Note_on_c, 9, 36, 90
1, 16001, Note_off_c, 9, 36, 64
1, 16011, Note_off_c, 1, 39, 64
1, 16031, Note_on_c, 1, 41, 102
1, 16032, Note_on_c, 9, 36, 111
1, 16033, Note_off_c, 9, 36, 64
1, 16108, Note_off_c, 1, 41, 64
1, 16125, Note_on_c, 2, 56, 127
1, 16125, Note_on_c, 2, 51, 127
1, 16127, Note_on_c, 9, 51, 113
1, 16127, Note_on_c, 1, 44, 111
1, 16128, Note_off_c, 9, 51, 64
1, 16128, Note_on_c, 9, 40, 108
1, 16129, Note_off_c, 9, 40, 64
1, 16129, Note_on_c, 0, 51, 107
1, 16129, Note_on_c, 0, 44, 85
1, 16131, Note_on_c, 0, 87, 97
1, 16131, Note_on_c, 0, 92, 103
1, 16143, Note_off_c, 0, 92, 64
1, 16143, Note_off_c, 0, 87, 64
1, 16154, Note_off_c, 2, 51, 64
1, 16154, Note_on_c, 2, 57, 102
1, 16155, Note_off_c, 2, 56, 64
1, 16157, Note_off_c, 0, 44, 64
1, 16157, Note_off_c, 0, 51, 64
1, 16157, Note_on_c, 2, 52, 107
1, 16160, Note_on_c, 9, 40, 86
1, 16161, Note_off_c, 9, 40, 64
1, 16161, Note_on_c, 9, 51, 89
1, 16161, Note_on_c, 0, 92, 87
1, 16161, Note_on_c, 0, 87, 77
1, 16161, Note_on_c, 0, 44, 85
1, 16161, Note_on_c, 0, 51, 87
1, 16162, Note_off_c, 9, 51, 64
1, 16175, Note_off_c, 0, 87, 64
1, 16175, Note_off_c, 0, 92, 64
1, 16186, Note_on_c, 2, 58, 123
1, 16187, Note_on_c, 2, 53, 121
1, 16189, Note_off_c, 0, 44, 64
1, 16189, Note_off_c, 0, 51, 64
1, 16192, Note_on_c, 9, 40, 98
1, 16192, Note_on_c, 0, 51, 88
1, 16193, Note_off_c, 9, 40, 64
1, 16193, Note_on_c, 9, 51, 89
1, 16193, Note_on_c, 0, 44, 94
1, 16193, Note_off_c, 2, 57, 64
1, 16194, Note_off_c, 9, 51, 64
1, 16194, Note_on_c, 0, 87, 87
1, 16194, Note_on_c, 0, 92, 94
1, 16194, Note_off_c, 2, 52, 64
1, 16201, Note_off_c, 1, 44, 64
1, 16205, Note_off_c, 0, 92, 64
1, 16205, Note_off_c, 0, 87, 64
1, 16219, Note_on_c, 2, 59, 100
1, 16220, Note_off_c, 0, 51, 64
1, 16220, Note_off_c, 2, 58, 64
1, 16220, Note_on_c, 2, 54, 127
1, 16221, Note_off_c, 0, 44, 64
1, 16223, Note_on_c, 1, 41, 94
1, 16223, Note_on_c, 0, 87, 87
1, 16223, Note_on_c, 0, 92, 91
1, 16224, Note_on_c, 9, 40, 85
1, 16224, Note_on_c, 0, 44, 92
1, 16224, Note_on_c, 0, 51, 103
1, 16225, Note_off_c, 9, 40, 64
1, 16225, Note_on_c, 9, 51, 97
1, 16226, Note_off_c, 9, 51, 64
1, 16229, Note_off_c, 2, 53, 64
1, 16239, Note_off_c, 0, 92, 64
1, 16239, Note_off_c, 0, 87, 64
1, 16249, Note_on_c, 2, 58, 112
1, 16252, Note_off_c, 0, 44, 64
1, 16252, Note_off_c, 0, 51, 64
1, 16255, Note_on_c, 2, 53, 122
1, 16256, Note_on_c, 9, 40, 104
1, 16256, Note_off_c, 2, 59, 64
1, 16257, Note_off_c, 9, 40, 64
1, 16257, Note_on_c, 9, 51, 93
1, 16257, Note_on_c, 0, 87, 88
1, 16257, Note_on_c, 0, 92, 94
1, 16257, Note_on_c, 0, 44, 80
1, 16257, Note_on_c, 0, 51, 87
1, 16257, Note_off_c, 2, 54, 64
1, 16258, Note_off_c, 9, 51, 64
1, 16272, Note_off_c, 0, 92, 64
1, 16272, Note_off_c, 0, 87, 64
1, 16282, Note_on_c, 2, 52, 111
1, 16285, Note_off_c, 0, 44, 64
1, 16285, Note_off_c, 0, 51, 64
1, 16285, Note_on_c, 2, 57, 102
1, 16287, Note_on_c, 0, 51, 87
1, 16287, Note_on_c, 0, 44, 87
1, 16287, Note_off_c, 2, 58, 64
1, 16287, Note_off_c, 2, 53, 64
1, 16288, Note_on_c, 9, 40, 97
1, 16288, Note_on_c, 0, 87, 76
1, 16288, Note_on_c, 0, 92, 85
1, 16289, Note_off_c, 9, 40, 64
1, 16289, Note_on_c, 9, 51, 93
1, 16290, Note_off_c, 9, 51, 64
1, 16301, Note_off_c, 0, 92, 64
1, 16301, Note_off_c, 0, 87, 64
1, 16302, Note_off_c, 1, 41, 64
1, 16315, Note_off_c, 0, 44, 64
1, 16315, Note_off_c, 0, 51, 64
1, 16319, Note_on_c, 1, 39, 107
1, 16319, Note_on_c, 0, 44, 111
1, 16319, Note_on_c, 0, 51, 107
1, 16319, Note_on_c, 2, 56, 112
1, 16319, Note_on_c, 2, 51, 127
1, 16320, Note_on_c, 9, 40, 112
1, 16320, Note_on_c, 0, 87, 99
1, 16321, Note_off_c, 9, 40, 64
1, 16321, Note_on_c, 9, 51, 110
1, 16322, Note_off_c, 9, 51, 64
1, 16323, Note_on_c, 0, 92, 107
1, 16324, Note_off_c, 2, 57, 64
1, 16327, Note_off_c, 2, 52, 64
1, 16335, Note_off_c, 0, 92, 64
1, 16336, Note_off_c, 0, 87, 64
1, 16347, Note_off_c, 0, 51, 64
1, 16347, Note_off_c, 0, 44, 64
1, 16353, Note_off_c, 2, 51, 64
1, 16356, Note_off_c, 2, 56, 64
1, 16384, Note_on_c, 9, 36, 93
1, 16385, Note_off_c, 9, 36, 64
1, 16398, Note_off_c, 1, 39, 64
1, 16415, Note_on_c, 1, 41, 100
1, 16416, Note_on_c, 9, 36, 109
1, 16417, Note_off_c, 9, 36, 64
1, 16493, Note_off_c, 1, 41, 64
1, 16507, Note_on_c, 2, 51, 127
1, 16509, Note_on_c, 2, 56, 127
1, 16511, Note_on_c, 1, 44, 110
1, 16512, Note_on_c, 9, 40, 112
1, 16512, Note_on_c, 9, 51, 116
1, 16512, Note_on_c, 9, 36, 103
1, 16513, Note_off_c, 9, 36, 64
1, 16513, Note_off_c, 9, 51, 64
1, 16513, Note_off_c, 9, 40, 64
1, 16513, Note_on_c, 0, 51, 103
1, 16513, Note_on_c, 0, 44, 91
1, 16515, Note_on_c, 0, 92, 84
1, 16515, Note_on_c, 0, 87, 74
1, 16515, Note_on_c, 0, 99, 76
1, 16523, Note_off_c, 0, 99, 64
1, 16525, Note_off_c, 0, 92, 64
1, 16525, Note_off_c, 0, 87, 64
1, 16538, Note_off_c, 2, 51, 64
1, 16538, Note_on_c, 2, 57, 93
1, 16538, Note_on_c, 2, 52, 108
1, 16539, Note_off_c, 2, 56, 64
1, 16541, Note_off_c, 0, 44, 64
1, 16541, Note_off_c, 0, 51, 64
1, 16543, Note_on_c, 9, 51, 79
1, 16544, Note_off_c, 9, 51, 64
1, 16544, Note_on_c, 9, 40, 77
1, 16544, Note_on_c, 0, 99, 76
1, 16544, Note_on_c, 0, 87, 64
1, 16544, Note_on_c, 0, 51, 84
1, 16545, Note_off_c, 9, 40, 64
1, 16545, Note_on_c, 0, 44, 83
1, 16548, Note_on_c, 0, 92, 66
1, 16554, Note_off_c, 0, 92, 64
1, 16557, Note_off_c, 0, 99, 64
1, 16558, Note_off_c, 0, 87, 64
1, 16571, Note_on_c, 2, 58, 119
1, 16571, Note_on_c, 2, 53, 122
1, 16572, Note_off_c, 0, 51, 64
1, 16573, Note_off_c, 0, 44, 64
1, 16575, Note_on_c, 9, 51, 99
1, 16576, Note_off_c, 9, 51, 64
1, 16576, Note_on_c, 9, 40, 90
1, 16576, Note_on_c, 0, 51, 87
1, 16577, Note_off_c, 9, 40, 64
1, 16577, Note_on_c, 0, 44, 91
1, 16577, Note_off_c, 2, 57, 64
1, 16578, Note_on_c, 0, 99, 77
1, 16578, Note_on_c, 0, 87, 77
1, 16578, Note_on_c, 0, 92, 85
1, 16579, Note_off_c, 2, 52, 64
1, 16581, Note_off_c, 1, 44, 64
1, 16590, Note_off_c, 0, 92, 64
1, 16590, Note_off_c, 0, 99, 64
1, 16590, Note_off_c, 0, 87, 64
1, 16603, Note_on_c, 2, 54, 126
1, 16604, Note_off_c, 0, 51, 64
1, 16605, Note_off_c, 0, 44, 64
1, 16606, Note_on_c, 2, 59, 102
1, 16607, Note_on_c, 1, 41, 98
1, 16607, Note_off_c, 2, 58, 64
1, 16608, Note_on_c, 9, 40, 84
1, 16608, Note_on_c, 9, 51, 97
1, 16608, Note_on_c, 0, 51, 99
1, 16608, Note_on_c, 0, 44, 95
1, 16609, Note_off_c, 9, 51, 64
1, 16609, Note_off_c, 9, 40, 64
1, 16609, Note_off_c, 2, 53, 64
1, 16612, Note_on_c, 0, 87, 78
1, 16613, Note_on_c, 0, 99, 87
1, 16613, Note_on_c, 0, 92, 85
1, 16623, Note_off_c, 0, 92, 64
1, 16623, Note_off_c, 0, 99, 64
1, 16626, Note_off_c, 0, 87, 64
1, 16634, Note_on_c, 2, 58, 98
1, 16635, Note_on_c, 2, 53, 110
1, 16636, Note_off_c, 0, 44, 64
1, 16636, Note_off_c, 0, 51, 64
1, 16639, Note_on_c, 9, 51, 93
1, 16640, Note_off_c, 9, 51, 64
1, 16640, Note_on_c, 9, 40, 91
1, 16641, Note_off_c, 9, 40, 64
1, 16641, Note_on_c, 0, 51, 92
1, 16641, Note_on_c, 0, 44, 84
1, 16641, Note_off_c, 2, 54, 64
1, 16642, Note_on_c, 0, 99, 81
1, 16642, Note_on_c, 0, 87, 72
1, 16643, Note_off_c, 2, 59, 64
1, 16644, Note_on_c, 0, 92, 77
1, 16652, Note_off_c, 0, 92, 64
1, 16654, Note_off_c, 0, 99, 64
1, 16655, Note_off_c, 0, 87, 64
1, 16664, Note_on_c, 2, 52, 115
1, 16669, Note_off_c, 0, 44, 64
1, 16669, Note_off_c, 0, 51, 64
1, 16669, Note_off_c, 2, 53, 64
1, 16670, Note_on_c, 2, 57, 107
1, 16671, Note_on_c, 9, 51, 91
1, 16672, Note_off_c, 9, 51, 64
1, 16672, Note_on_c, 9, 40, 84
1, 16672, Note_on_c, 0, 99, 77
1, 16672, Note_on_c, 0, 51, 94
1, 16672, Note_on_c, 0, 44, 84
1, 16672, Note_off_c, 2, 58, 64
1, 16673, Note_off_c, 9, 40, 64
1, 16673, Note_on_c, 0, 87, 73
1, 16674, Note_on_c, 0, 92, 81
1, 16683, Note_off_c, 0, 92, 64
1, 16683, Note_off_c, 0, 99, 64
1, 16683, Note_off_c, 0, 87, 64
1, 16684, Note_off_c, 1, 41, 64
1, 16700, Note_off_c, 0, 44, 64
1, 16700, Note_off_c, 0, 51, 64
1, 16700, Note_on_c, 2, 51, 126
1, 16703, Note_on_c, 9, 51, 95
1, 16703, Note_on_c, 1, 39, 99
1, 16703, Note_on_c, 0, 99, 92
1, 16703, Note_on_c, 0, 87, 81
1, 16703, Note_on_c, 0, 92, 92
1, 16703, Note_on_c, 0, 51, 99
1, 16703, Note_on_c, 2, 56, 114
1, 16704, Note_off_c, 9, 51, 64
1, 16704, Note_on_c, 9, 40, 106
1, 16705, Note_off_c, 9, 40, 64
1, 16705, Note_on_c, 0, 44, 92
1, 16706, Note_off_c, 2, 52, 64
1, 16708, Note_off_c, 2, 57, 64
1, 16715, Note_off_c, 0, 92, 64
1, 16717, Note_off_c, 0, 99, 64
1, 16717, Note_off_c, 0, 87, 64
1, 16731, Note_off_c, 0, 51, 64
1, 16731, Note_off_c, 2, 51, 64
1, 16732, Note_on_c, 2, 52, 102
1, 16733, Note_off_c, 0, 44, 64
1, 16735, Note_on_c, 0, 51, 94
1, 16735, Note_on_c, 0, 44, 85
1, 16736, Note_on_c, 9, 40, 83
1, 16736, Note_on_c, 9, 51, 82
1, 16736, Note_off_c, 2, 56, 64
1, 16736, Note_on_c, 2, 57, 102
1, 16737, Note_off_c, 9, 51, 64
1, 16737, Note_off_c, 9, 40, 64
1, 16737, Note_on_c, 0, 99, 83
1, 16737, Note_on_c, 0, 87, 77
1, 16737, Note_on_c, 0, 92, 84
1, 16747, Note_off_c, 0, 92, 64
1, 16747, Note_off_c, 0, 99, 64
1, 16749, Note_off_c, 0, 87, 64
1, 16763, Note_off_c, 0, 44, 64
1, 16763, Note_off_c, 0, 51, 64
1, 16765, Note_on_c, 2, 53, 114
1, 16766, Note_on_c, 2, 58, 116
1, 16767, Note_on_c, 9, 51, 89
1, 16767, Note_on_c, 0, 99, 84
1, 16767, Note_on_c, 0, 87, 80
1, 16767, Note_on_c, 0, 92, 84
1, 16767, Note_on_c, 0, 51, 97
1, 16767, Note_on_c, 0, 44, 92
1, 16768, Note_off_c, 9, 51, 64
1, 16768, Note_on_c, 9, 40, 91
1, 16769, Note_off_c, 9, 40, 64
1, 16771, Note_off_c, 2, 57, 64
1, 16771, Note_off_c, 2, 52, 64
1, 16777, Note_off_c, 0, 92, 64
1, 16777, Note_off_c, 0, 99, 64
1, 16780, Note_off_c, 0, 87, 64
1, 16784, Note_off_c, 1, 39, 64
1, 16795, Note_off_c, 0, 44, 64
1, 16795, Note_off_c, 0, 51, 64
1, 16798, Note_on_c, 0, 87, 80
1, 16798, Note_on_c, 0, 99, 83
1, 16798, Note_on_c, 0, 92, 83
1, 16798, Note_on_c, 2, 54, 127
1, 16799, Note_on_c, 9, 51, 77
1, 16799, Note_on_c, 1, 41, 97
1, 16799, Note_on_c, 0, 51, 97
1, 16799, Note_on_c, 0, 44, 91
1, 16800, Note_off_c, 9, 51, 64
1, 16800, Note_on_c, 9, 40, 87
1, 16800, Note_off_c, 2, 58, 64
1, 16801, Note_off_c, 9, 40, 64
1, 16801, Note_on_c, 2, 59, 108
1, 16807, Note_off_c, 2, 53, 64
1, 16809, Note_off_c, 0, 92, 64
1, 16809, Note_off_c, 0, 99, 64
1, 16813, Note_off_c, 0, 87, 64
1, 16827, Note_off_c, 0, 44, 64
1, 16827, Note_off_c, 0, 51, 64
1, 16827, Note_on_c, 2, 58, 100
1, 16828, Note_on_c, 0, 99, 94
1, 16828, Note_on_c, 0, 87, 81
1, 16828, Note_on_c, 0, 92, 92
1, 16831, Note_on_c, 9, 51, 97
1, 16831, Note_on_c, 0, 51, 92
1, 16831, Note_on_c, 0, 44, 91
1, 16832, Note_off_c, 9, 51, 64
1, 16832, Note_on_c, 9, 40, 98
1, 16832, Note_on_c, 2, 53, 110
1, 16833, Note_off_c, 9, 40, 64
1, 16834, Note_off_c, 2, 59, 64
1, 16836, Note_off_c, 2, 54, 64
1, 16840, Note_off_c, 0, 92, 64
1, 16841, Note_off_c, 0, 99, 64
1, 16843, Note_off_c, 0, 87, 64
1, 16859, Note_off_c, 0, 44, 64
1, 16859, Note_off_c, 0, 51, 64
1, 16862, Note_on_c, 0, 99, 95
1, 16862, Note_on_c, 2, 57, 105
1, 16862, Note_on_c, 2, 52, 121
1, 16863, Note_on_c, 9, 51, 89
1, 16863, Note_on_c, 0, 87, 82
1, 16863, Note_on_c, 0, 51, 91
1, 16863, Note_on_c, 0, 44, 92
1, 16863, Note_off_c, 2, 58, 64
1, 16864, Note_off_c, 9, 51, 64
1, 16864, Note_on_c, 9, 40, 90
1, 16865, Note_off_c, 9, 40, 64
1, 16865, Note_on_c, 0, 92, 91
1, 16866, Note_off_c, 2, 53, 64
1, 16873, Note_off_c, 0, 92, 64
1, 16873, Note_off_c, 0, 99, 64
1, 16874, Note_off_c, 0, 87, 64
1, 16880, Note_off_c, 1, 41, 64
1, 16891, Note_off_c, 0, 51, 64
1, 16891, Note_off_c, 0, 44, 64
1, 16894, Note_on_c, 2, 51, 127
1, 16895, Note_on_c, 1, 44, 99
1, 16895, Note_on_c, 0, 99, 99
1, 16895, Note_on_c, 0, 87, 84
1, 16895, Note_on_c, 0, 92, 95
1, 16895, Note_on_c, 0, 51, 97
1, 16895, Note_on_c, 0, 44, 95
1, 16895, Note_on_c, 2, 56, 112
1, 16896, Note_on_c, 9, 40, 102
1, 16896, Note_on_c, 9, 51, 104
1, 16896, Note_on_c, 9, 36, 101
1, 16897, Note_off_c, 9, 36, 64
1, 16897, Note_off_c, 9, 51, 64
1, 16897, Note_off_c, 9, 40, 64
1, 16900, Note_off_c, 2, 57, 64
1, 16900, Note_off_c, 2, 52, 64
1, 16906, Note_off_c, 0, 92, 64
1, 16908, Note_off_c, 0, 99, 64
1, 16908, Note_off_c, 0, 87, 64
1, 16923, Note_off_c, 0, 51, 64
1, 16923, Note_off_c, 0, 44, 64
1, 16927, Note_on_c, 0, 51, 92
1, 16927, Note_on_c, 0, 44, 91
1, 16927, Note_off_c, 2, 51, 64
1, 16927, Note_on_c, 2, 52, 107
1, 16928, Note_on_c, 9, 40, 80
1, 16928, Note_on_c, 0, 99, 92
1, 16928, Note_on_c, 0, 87, 89
1, 16928, Note_on_c, 0, 92, 94
1, 16929, Note_off_c, 9, 40, 64
1, 16930, Note_off_c, 2, 56, 64
1, 16930, Note_on_c, 2, 57, 103
1, 16937, Note_off_c, 0, 92, 64
1, 16940, Note_off_c, 0, 99, 64
1, 16942, Note_off_c, 0, 87, 64
1, 16955, Note_off_c, 0, 44, 64
1, 16955, Note_off_c, 0, 51, 64
1, 16957, Note_on_c, 2, 53, 119
1, 16958, Note_on_c, 2, 58, 112
1, 16959, Note_on_c, 0, 51, 97
1, 16959, Note_on_c, 0, 44, 95
1, 16960, Note_on_c, 9, 40, 95
1, 16960, Note_on_c, 0, 87, 87
1, 16960, Note_on_c, 0, 99, 103
1, 16960, Note_on_c, 0, 92, 99
1, 16961, Note_off_c, 9, 40, 64
1, 16964, Note_off_c, 2, 57, 64
1, 16964, Note_off_c, 2, 52, 64
1, 16971, Note_off_c, 0, 92, 64
1, 16973, Note_off_c, 0, 99, 64
1, 16975, Note_off_c, 1, 44, 64
1, 16975, Note_off_c, 0, 87, 64
1, 16987, Note_off_c, 0, 44, 64
1, 16987, Note_off_c, 0, 51, 64
1, 16990, Note_on_c, 2, 54, 121
1, 16991, Note_on_c, 9, 51, 107
1, 16991, Note_on_c, 1, 41, 93
1, 16991, Note_on_c, 0, 44, 95
1, 16991, Note_on_c, 0, 51, 97
1, 16991, Note_off_c, 2, 58, 64
1, 16992, Note_off_c, 9, 51, 64
1, 16992, Note_on_c, 9, 40, 97
1, 16992, Note_on_c, 2, 59, 103
1, 16993, Note_off_c, 9, 40, 64
1, 16994, Note_on_c, 0, 87, 88
1, 16994, Note_on_c, 0, 99, 101
1, 16995, Note_on_c, 0, 92, 99
1, 16999, Note_off_c, 2, 53, 64
1, 17005, Note_off_c, 0, 92, 64
1, 17005, Note_off_c, 0, 99, 64
1, 17007, Note_off_c, 0, 87, 64
1, 17019, Note_off_c, 0, 51, 64
1, 17019, Note_off_c, 0, 44, 64
1, 17019, Note_on_c, 2, 58, 100
1, 17023, Note_on_c, 0, 51, 97
1, 17023, Note_on_c, 0, 44, 89
1, 17024, Note_on_c, 9, 40, 106
1, 17025, Note_off_c, 9, 40, 64
1, 17025, Note_on_c, 0, 99, 105
1, 17026, Note_on_c, 0, 87, 87
1, 17026, Note_on_c, 2, 53, 107
1, 17027, Note_on_c, 0, 92, 101
1, 17027, Note_off_c, 2, 59, 64
1, 17031, Note_off_c, 2, 54, 64
1, 17035, Note_off_c, 0, 92, 64
1, 17037, Note_off_c, 0, 99, 64
1, 17039, Note_off_c, 0, 87, 64
1, 17051, Note_off_c, 0, 44, 64
1, 17051, Note_off_c, 0, 51, 64
1, 17051, Note_on_c, 2, 52, 118
1, 17052, Note_off_c, 2, 58, 64
1, 17053, Note_on_c, 2, 57, 113
1, 17055, Note_on_c, 0, 99, 91
1, 17055, Note_on_c, 0, 51, 101
1, 17055, Note_on_c, 0, 44, 95
1, 17055, Note_off_c, 2, 53, 64
1, 17056, Note_on_c, 9, 40, 114
1, 17056, Note_on_c, 9, 51, 84
1, 17057, Note_off_c, 9, 51, 64
1, 17057, Note_off_c, 9, 40, 64
1, 17057, Note_on_c, 0, 87, 91
1, 17057, Note_on_c, 0, 92, 99
1, 17066, Note_off_c, 0, 92, 64
1, 17067, Note_off_c, 0, 99, 64
1, 17068, Note_off_c, 0, 87, 64
1, 17074, Note_off_c, 1, 41, 64
1, 17083, Note_off_c, 0, 44, 64
1, 17083, Note_off_c, 0, 51, 64
1, 17083, Note_on_c, 2, 51, 127
1, 17086, Note_on_c, 0, 99, 107
1, 17086, Note_on_c, 0, 87, 92
1, 17086, Note_on_c, 0, 92, 107
1, 17086, Note_on_c, 2, 56, 121
1, 17087, Note_on_c, 1, 44, 107
1, 17088, Note_on_c, 9, 40, 117
1, 17088, Note_on_c, 9, 51, 110
1, 17088, Note_on_c, 9, 36, 104
1, 17088, Note_on_c, 0, 51, 123
1, 17088, Note_on_c, 0, 44, 109
1, 17089, Note_off_c, 9, 36, 64
1, 17089, Note_off_c, 9, 51, 64
1, 17089, Note_off_c, 9, 40, 64
1, 17089, Note_off_c, 2, 52, 64
1, 17092, Note_off_c, 2, 57, 64
1, 17098, Note_off_c, 0, 92, 64
1, 17099, Note_off_c, 0, 99, 64
1, 17100, Note_off_c, 0, 87, 64
1, 17116, Note_off_c, 0, 44, 64
1, 17116, Note_off_c, 0, 51, 64
1, 17120, Note_off_c, 2, 56, 64
1, 17122, Note_off_c, 2, 51, 64
1, 17166, Note_off_c, 1, 44, 64
1, 17183, Note_on_c, 9, 51, 107
1, 17183, Note_on_c, 1, 46, 100
1, 17184, Note_off_c, 9, 51, 64
1, 17248, Note_on_c, 9, 36, 83
1, 17249, Note_off_c, 9, 36, 64
1, 17249, Note_on_c, 9, 51, 88
1, 17250, Note_off_c, 9, 51, 64
1, 17254, Note_off_c, 1, 46, 64
1, 17280, Note_on_c, 9, 51, 104
1, 17280, Note_on_c, 9, 36, 102
1, 17280, Note_on_c, 1, 37, 111
1, 17280, Note_on_c, 0, 89, 93
1, 17280, Note_on_c, 0, 104, 99
1, 17280, Note_on_c, 0, 99, 109
1, 17280, Note_on_c, 0, 95, 94
1, 17280, Note_on_c, 0, 37, 83
1, 17280, Note_on_c, 0, 44, 77
1, 17280, Note_on_c, 2, 49, 119
1, 17281, Note_off_c, 9, 36, 64
1, 17281, Note_off_c, 9, 51, 64
1, 17309, Note_on_c, 2, 51, 127
1, 17321, Note_off_c, 2, 49, 64
1, 17323, Note_off_c, 0, 44, 64
1, 17323, Note_off_c, 0, 37, 64
1, 17325, Note_off_c, 0, 89, 64
1, 17327, Note_off_c, 0, 104, 64
1, 17327, Note_off_c, 0, 99, 64
1, 17327, Note_off_c, 0, 95, 64
1, 17341, Note_on_c, 2, 52, 127
1, 17343, Note_on_c, 0, 44, 73
1, 17343, Note_on_c, 0, 37, 88
1, 17344, Note_on_c, 0, 99, 109
1, 17344, Note_on_c, 0, 104, 105
1, 17346, Note_on_c, 0, 95, 91
1, 17346, Note_on_c, 0, 89, 93
1, 17347, Note_off_c, 2, 51, 64
1, 17358, Note_off_c, 1, 37, 64
1, 17359, Note_off_c, 0, 44, 64
1, 17361, Note_off_c, 0, 37, 64
1, 17372, Note_on_c, 2, 53, 121
1, 17374, Note_off_c, 0, 99, 64
1, 17375, Note_on_c, 9, 51, 107
1, 17376, Note_off_c, 9, 51, 64
1, 17376, Note_on_c, 9, 40, 110
1, 17376, Note_on_c, 1, 41, 103
1, 17376, Note_off_c, 0, 104, 64
1, 17376, Note_off_c, 0, 95, 64
1, 17376, Note_off_c, 0, 89, 64
1, 17376, Note_on_c, 0, 37, 88
1, 17377, Note_off_c, 9, 40, 64
1, 17377, Note_on_c, 0, 46, 95
1, 17381, Note_off_c, 2, 52, 64
1, 17402, Note_on_c, 2, 56, 110
1, 17411, Note_off_c, 2, 53, 64
1, 17420, Note_off_c, 0, 46, 64
1, 17421, Note_off_c, 0, 37, 64
1, 17432, Note_on_c, 2, 58, 116
1, 17440, Note_on_c, 9, 51, 84
1, 17441, Note_off_c, 9, 51, 64
1, 17441, Note_on_c, 0, 37, 95
1, 17441, Note_on_c, 0, 46, 77
1, 17448, Note_off_c, 2, 56, 64
1, 17455, Note_off_c, 1, 41, 64
1, 17459, Note_off_c, 0, 46, 64
1, 17461, Note_off_c, 0, 37, 64
1, 17471, Note_on_c, 1, 44, 107
1, 17471, Note_on_c, 0, 37, 74
1, 17471, Note_on_c, 2, 59, 125
1, 17472, Note_on_c, 9, 51, 110
1, 17472, Note_on_c, 9, 36, 102
1, 17472, Note_on_c, 0, 104, 94
1, 17472, Note_on_c, 0, 99, 105
1, 17472, Note_on_c, 0, 89, 83
1, 17472, Note_on_c, 0, 95, 90
1, 17473, Note_off_c, 9, 36, 64
1, 17473, Note_off_c, 9, 51, 64
1, 17473, Note_on_c, 0, 44, 73
1, 17480, Note_off_c, 2, 58, 64
1, 17519, Note_off_c, 2, 59, 64
1, 17520, Note_off_c, 0, 37, 64
1, 17521, Note_off_c, 0, 99, 64
1, 17521, Note_off_c, 0, 89, 64
1, 17521, Note_off_c, 0, 104, 64
1, 17521, Note_off_c, 0, 44, 64
1, 17521, Note_off_c, 0, 95, 64
1, 17537, Note_on_c, 0, 44, 68
1, 17537, Note_on_c, 0, 37, 97
1, 17543, Note_on_c, 0, 99, 105
1, 17543, Note_on_c, 0, 104, 103
1, 17543, Note_on_c, 0, 95, 90
1, 17545, Note_on_c, 0, 89, 93
1, 17548, Note_off_c, 1, 44, 64
1, 17552, Note_off_c, 0, 44, 64
1, 17553, Note_off_c, 0, 37, 64
1, 17560, Note_off_c, 0, 95, 64
1, 17560, Note_off_c, 0, 99, 64
1, 17562, Note_off_c, 0, 104, 64
1, 17563, Note_off_c, 0, 89, 64
1, 17567, Note_on_c, 9, 51, 107
1, 17567, Note_on_c, 1, 46, 101
1, 17568, Note_off_c, 9, 51, 64
1, 17568, Note_on_c, 9, 40, 114
1, 17569, Note_off_c, 9, 40, 64
1, 17569, Note_on_c, 0, 46, 81
1, 17569, Note_on_c, 0, 37, 105
1, 17611, Note_off_c, 0, 37, 64
1, 17619, Note_off_c, 0, 46, 64
1, 17633, Note_on_c, 9, 51, 88
1, 17633, Note_on_c, 0, 37, 92
1, 17633, Note_on_c, 0, 46, 81
1, 17634, Note_off_c, 9, 51, 64
1, 17648, Note_off_c, 0, 46, 64
1, 17649, Note_off_c, 1, 46, 64
1, 17652, Note_off_c, 0, 37, 64
1, 17664, Note_on_c, 9, 51, 104
1, 17664, Note_on_c, 9, 36, 102
1, 17664, Note_on_c, 0, 104, 103
1, 17664, Note_on_c, 0, 99, 105
1, 17664, Note_on_c, 0, 95, 94
1, 17664, Note_on_c, 2, 49, 126
1, 17665, Note_off_c, 9, 36, 64
1, 17665, Note_off_c, 9, 51, 64
1, 17665, Note_on_c, 1, 37, 98
1, 17665, Note_on_c, 0, 44, 78
1, 17665, Note_on_c, 0, 37, 85
1, 17695, Note_on_c, 2, 51, 127
1, 17704, Note_off_c, 0, 37, 64
1, 17704, Note_off_c, 2, 49, 64
1, 17707, Note_off_c, 0, 44, 64
1, 17710, Note_off_c, 0, 104, 64
1, 17713, Note_off_c, 0, 99, 64
1, 17714, Note_off_c, 0, 95, 64
1, 17723, Note_on_c, 2, 52, 127
1, 17727, Note_on_c, 0, 44, 80
1, 17729, Note_on_c, 0, 37, 95
1, 17731, Note_off_c, 2, 51, 64
1, 17733, Note_on_c, 0, 99, 101
1, 17734, Note_on_c, 0, 101, 100
1, 17735, Note_on_c, 0, 95, 91
1, 17742, Note_off_c, 0, 37, 64
1, 17742, Note_off_c, 0, 44, 64
1, 17747, Note_off_c, 1, 37, 64
1, 17758, Note_on_c, 2, 53, 127
1, 17759, Note_on_c, 9, 51, 107
1, 17759, Note_off_c, 0, 95, 64
1, 17759, Note_on_c, 0, 46, 89
1, 17759, Note_on_c, 0, 37, 99
1, 17760, Note_off_c, 9, 51, 64
1, 17760, Note_on_c, 9, 40, 110
1, 17761, Note_off_c, 9, 40, 64
1, 17761, Note_on_c, 1, 41, 97
1, 17761, Note_off_c, 0, 99, 64
1, 17763, Note_off_c, 0, 101, 64
1, 17769, Note_off_c, 2, 52, 64
1, 17790, Note_on_c, 2, 56, 119
1, 17798, Note_off_c, 2, 53, 64
1, 17810, Note_off_c, 0, 37, 64
1, 17812, Note_off_c, 0, 46, 64
1, 17819, Note_on_c, 2, 58, 121
1, 17823, Note_on_c, 0, 104, 97
1, 17823, Note_on_c, 0, 99, 109
1, 17823, Note_on_c, 0, 95, 95
1, 17824, Note_on_c, 9, 51, 84
1, 17825, Note_off_c, 9, 51, 64
1, 17825, Note_on_c, 0, 37, 99
1, 17825, Note_on_c, 0, 46, 88
1, 17830, Note_off_c, 2, 56, 64
1, 17835, Note_off_c, 1, 41, 64
1, 17846, Note_off_c, 0, 46, 64
1, 17846, Note_off_c, 0, 37, 64
1, 17853, Note_on_c, 2, 59, 125
1, 17855, Note_on_c, 0, 44, 85
1, 17856, Note_on_c, 9, 51, 110
1, 17856, Note_on_c, 9, 36, 102
1, 17857, Note_off_c, 9, 36, 64
1, 17857, Note_off_c, 9, 51, 64
1, 17857, Note_on_c, 1, 44, 99
1, 17857, Note_on_c, 0, 37, 91
1, 17865, Note_off_c, 2, 58, 64
1, 17880, Note_off_c, 0, 104, 64
1, 17882, Note_off_c, 0, 95, 64
1, 17883, Note_off_c, 0, 99, 64
1, 17886, Note_off_c, 2, 59, 64
1, 17888, Note_on_c, 2, 61, 127
1, 17897, Note_off_c, 0, 37, 64
1, 17901, Note_off_c, 0, 44, 64
1, 17915, Note_on_c, 2, 62, 113
1, 17919, Note_on_c, 0, 95, 94
1, 17919, Note_on_c, 0, 99, 123
1, 17919, Note_on_c, 0, 101, 100
1, 17919, Note_on_c, 0, 44, 82
1, 17921, Note_on_c, 0, 37, 95
1, 17924, Note_off_c, 2, 61, 64
1, 17934, Note_off_c, 1, 44, 64
1, 17934, Note_off_c, 0, 37, 64
1, 17937, Note_off_c, 0, 44, 64
1, 17949, Note_on_c, 2, 63, 127
1, 17951, Note_on_c, 9, 51, 107
1, 17952, Note_off_c, 9, 51, 64
1, 17952, Note_on_c, 9, 40, 114
1, 17952, Note_on_c, 1, 46, 95
1, 17953, Note_off_c, 9, 40, 64
1, 17953, Note_on_c, 0, 37, 117
1, 17953, Note_on_c, 0, 46, 95
1, 17960, Note_off_c, 2, 62, 64
1, 17967, Note_off_c, 0, 99, 64
1, 17969, Note_off_c, 0, 95, 64
1, 17973, Note_off_c, 0, 101, 64
1, 17977, Note_on_c, 2, 61, 96
1, 17983, Note_off_c, 2, 63, 64
1, 17989, Note_off_c, 0, 37, 64
1, 17991, Note_off_c, 0, 46, 64
1, 18009, Note_on_c, 2, 62, 116
1, 18014, Note_on_c, 0, 37, 78
1, 18015, Note_on_c, 0, 46, 68
1, 18016, Note_on_c, 9, 36, 72
1, 18017, Note_off_c, 9, 36, 64
1, 18017, Note_on_c, 9, 51, 88
1, 18018, Note_off_c, 9, 51, 64
1, 18020, Note_off_c, 2, 61, 64
1, 18022, Note_off_c, 1, 46, 64
1, 18026, Note_off_c, 0, 37, 64
1, 18028, Note_off_c, 0, 46, 64
1, 18046, Note_on_c, 2, 63, 127
1, 18048, Note_on_c, 9, 51, 104
1, 18048, Note_on_c, 9, 36, 102
1, 18048, Note_on_c, 0, 99, 107
1, 18048, Note_on_c, 0, 92, 95
1, 18048, Note_on_c, 0, 96, 101
1, 18049, Note_off_c, 9, 36, 64
1, 18049, Note_off_c, 9, 51, 64
1, 18049, Note_on_c, 1, 32, 113
1, 18049, Note_on_c, 0, 51, 92
1, 18049, Note_on_c, 0, 44, 85
1, 18053, Note_off_c, 2, 62, 64
1, 18059, Note_off_c, 0, 99, 64
1, 18060, Note_off_c, 0, 92, 64
1, 18060, Note_off_c, 0, 96, 64
1, 18075, Note_on_c, 2, 61, 87
1, 18079, Note_on_c, 0, 99, 78
1, 18079, Note_on_c, 0, 92, 71
1, 18080, Note_on_c, 0, 96, 89
1, 18080, Note_off_c, 2, 63, 64
1, 18085, Note_off_c, 0, 44, 64
1, 18087, Note_off_c, 0, 51, 64
1, 18089, Note_off_c, 0, 99, 64
1, 18091, Note_off_c, 0, 92, 64
1, 18091, Note_off_c, 0, 96, 64
1, 18109, Note_on_c, 2, 62, 107
1, 18111, Note_on_c, 0, 99, 88
1, 18111, Note_on_c, 0, 92, 71
1, 18111, Note_on_c, 0, 96, 81
1, 18111, Note_on_c, 0, 44, 91
1, 18111, Note_on_c, 0, 51, 91
1, 18117, Note_off_c, 2, 61, 64
1, 18120, Note_off_c, 0, 99, 64
1, 18121, Note_off_c, 0, 92, 64
1, 18121, Note_off_c, 0, 96, 64
1, 18123, Note_off_c, 0, 51, 64
1, 18130, Note_off_c, 1, 32, 64
1, 18130, Note_off_c, 0, 44, 64
1, 18143, Note_on_c, 9, 51, 107
1, 18143, Note_on_c, 0, 99, 107
1, 18143, Note_on_c, 0, 92, 91
1, 18143, Note_on_c, 0, 53, 90
1, 18143, Note_on_c, 2, 63, 127
1, 18144, Note_off_c, 9, 51, 64
1, 18144, Note_on_c, 9, 40, 110
1, 18144, Note_on_c, 0, 96, 104
1, 18144, Note_on_c, 0, 44, 94
1, 18145, Note_off_c, 9, 40, 64
1, 18145, Note_on_c, 1, 36, 100
1, 18152, Note_off_c, 2, 62, 64
1, 18154, Note_off_c, 0, 99, 64
1, 18155, Note_off_c, 0, 96, 64
1, 18158, Note_off_c, 0, 92, 64
1, 18173, Note_on_c, 2, 61, 102
1, 18175, Note_on_c, 0, 92, 78
1, 18175, Note_on_c, 0, 99, 95
1, 18176, Note_on_c, 0, 96, 98
1, 18178, Note_off_c, 2, 63, 64
1, 18187, Note_off_c, 0, 99, 64
1, 18188, Note_off_c, 0, 92, 64
1, 18188, Note_off_c, 0, 96, 64
1, 18188, Note_off_c, 0, 44, 64
1, 18196, Note_off_c, 0, 53, 64
1, 18207, Note_on_c, 0, 99, 83
1, 18208, Note_on_c, 9, 51, 84
1, 18208, Note_on_c, 0, 92, 73
1, 18208, Note_on_c, 2, 62, 113
1, 18209, Note_off_c, 9, 51, 64
1, 18209, Note_on_c, 0, 96, 89
1, 18209, Note_on_c, 0, 44, 85
1, 18209, Note_on_c, 0, 53, 87
1, 18217, Note_off_c, 2, 61, 64
1, 18218, Note_off_c, 0, 92, 64
1, 18218, Note_off_c, 0, 99, 64
1, 18219, Note_off_c, 0, 96, 64
1, 18222, Note_off_c, 1, 36, 64
1, 18229, Note_off_c, 0, 44, 64
1, 18229, Note_off_c, 0, 53, 64
1, 18239, Note_on_c, 0, 99, 92
1, 18239, Note_on_c, 0, 92, 77
1, 18239, Note_on_c, 0, 96, 95
1, 18239, Note_on_c, 0, 51, 97
1, 18239, Note_on_c, 0, 44, 82
1, 18240, Note_on_c, 9, 51, 110
1, 18240, Note_on_c, 9, 36, 102
1, 18240, Note_on_c, 1, 39, 107
1, 18240, Note_on_c, 2, 63, 127
1, 18241, Note_off_c, 9, 36, 64
1, 18241, Note_off_c, 9, 51, 64
1, 18250, Note_off_c, 2, 62, 64
1, 18251, Note_off_c, 0, 96, 64
1, 18251, Note_off_c, 0, 99, 64
1, 18251, Note_off_c, 0, 92, 64
1, 18270, Note_on_c, 2, 61, 102
1, 18271, Note_on_c, 0, 99, 91
1, 18271, Note_on_c, 0, 92, 76
1, 18271, Note_on_c, 0, 96, 94
1, 18275, Note_off_c, 2, 63, 64
1, 18283, Note_off_c, 0, 92, 64
1, 18283, Note_off_c, 0, 99, 64
1, 18285, Note_off_c, 0, 44, 64
1, 18286, Note_off_c, 0, 96, 64
1, 18287, Note_off_c, 0, 51, 64
1, 18301, Note_on_c, 2, 62, 109
1, 18303, Note_on_c, 0, 44, 84
1, 18304, Note_on_c, 0, 51, 76
1, 18305, Note_on_c, 0, 99, 78
1, 18305, Note_on_c, 0, 92, 71
1, 18305, Note_on_c, 0, 96, 90
1, 18312, Note_off_c, 2, 61, 64
1, 18314, Note_off_c, 0, 96, 64
1, 18314, Note_off_c, 0, 51, 64
1, 18314, Note_off_c, 0, 92, 64
1, 18315, Note_off_c, 0, 99, 64
1, 18317, Note_off_c, 1, 39, 64
1, 18321, Note_off_c, 0, 44, 64
1, 18333, Note_on_c, 2, 63, 127
1, 18335, Note_on_c, 9, 51, 107
1, 18335, Note_on_c, 0, 53, 98
1, 18335, Note_on_c, 0, 44, 82
1, 18336, Note_off_c, 9, 51, 64
1, 18336, Note_on_c, 9, 40, 114
1, 18336, Note_on_c, 1, 41, 107
1, 18337, Note_off_c, 9, 40, 64
1, 18337, Note_on_c, 0, 99, 111
1, 18337, Note_on_c, 0, 92, 97
1, 18337, Note_on_c, 0, 96, 107
1, 18340, Note_off_c, 2, 62, 64
1, 18349, Note_off_c, 0, 96, 64
1, 18349, Note_off_c, 0, 99, 64
1, 18349, Note_off_c, 0, 92, 64
1, 18368, Note_on_c, 2, 66, 117
1, 18369, Note_on_c, 0, 92, 77
1, 18369, Note_on_c, 0, 99, 91
1, 18369, Note_on_c, 0, 96, 96
1, 18372, Note_off_c, 2, 63, 64
1, 18376, Note_off_c, 0, 44, 64
1, 18378, Note_off_c, 0, 99, 64
1, 18380, Note_off_c, 0, 96, 64
1, 18381, Note_off_c, 0, 92, 64
1, 18383, Note_off_c, 0, 53, 64
1, 18395, Note_on_c, 2, 67, 88
1, 18399, Note_on_c, 0, 44, 88
1, 18399, Note_on_c, 0, 53, 90
1, 18400, Note_on_c, 9, 36, 77
1, 18400, Note_on_c, 0, 99, 75
1, 18400, Note_on_c, 0, 96, 88
1, 18400, Note_on_c, 0, 92, 61
1, 18401, Note_off_c, 9, 36, 64
1, 18401, Note_on_c, 9, 51, 88
1, 18402, Note_off_c, 9, 51, 64
1, 18409, Note_off_c, 0, 92, 64
1, 18409, Note_off_c, 0, 99, 64
1, 18409, Note_off_c, 2, 66, 64
1, 18412, Note_off_c, 1, 41, 64
1, 18412, Note_off_c, 0, 96, 64
1, 18420, Note_off_c, 0, 53, 64
1, 18422, Note_off_c, 0, 44, 64
1, 18431, Note_on_c, 0, 99, 94
1, 18431, Note_on_c, 0, 96, 94
1, 18431, Note_on_c, 0, 92, 74
1, 18431, Note_on_c, 0, 51, 88
1, 18432, Note_on_c, 9, 51, 104
1, 18432, Note_on_c, 9, 36, 102
1, 18433, Note_off_c, 9, 36, 64
1, 18433, Note_off_c, 9, 51, 64
1, 18433, Note_on_c, 1, 44, 116
1, 18433, Note_on_c, 0, 44, 80
1, 18434, Note_on_c, 2, 68, 127
1, 18443, Note_off_c, 0, 99, 64
1, 18443, Note_off_c, 2, 67, 64
1, 18444, Note_off_c, 0, 96, 64
1, 18444, Note_off_c, 0, 92, 64
1, 18463, Note_on_c, 2, 66, 100
1, 18464, Note_on_c, 0, 99, 80
1, 18464, Note_on_c, 0, 96, 84
1, 18464, Note_on_c, 0, 92, 64
1, 18470, Note_off_c, 0, 44, 64
1, 18472, Note_off_c, 2, 68, 64
1, 18473, Note_off_c, 0, 99, 64
1, 18475, Note_off_c, 0, 92, 64
1, 18476, Note_off_c, 0, 96, 64
1, 18479, Note_off_c, 0, 51, 64
1, 18495, Note_on_c, 0, 51, 87
1, 18495, Note_on_c, 0, 44, 94
1, 18496, Note_on_c, 0, 99, 84
1, 18497, Note_on_c, 0, 96, 89
1, 18497, Note_on_c, 0, 92, 65
1, 18499, Note_on_c, 2, 67, 102
1, 18504, Note_off_c, 0, 92, 64
1, 18505, Note_off_c, 0, 99, 64
1, 18505, Note_off_c, 0, 96, 64
1, 18508, Note_off_c, 0, 51, 64
1, 18510, Note_off_c, 1, 44, 64
1, 18510, Note_off_c, 2, 66, 64
1, 18511, Note_off_c, 0, 44, 64
1, 18527, Note_on_c, 9, 51, 107
1, 18527, Note_on_c, 0, 53, 93
1, 18528, Note_off_c, 9, 51, 64
1, 18528, Note_on_c, 9, 40, 110
1, 18528, Note_on_c, 0, 92, 97
1, 18528, Note_on_c, 0, 99, 105
1, 18528, Note_on_c, 0, 96, 104
1, 18529, Note_off_c, 9, 40, 64
1, 18529, Note_on_c, 1, 41, 107
1, 18529, Note_on_c, 0, 44, 94
1, 18532, Note_on_c, 2, 68, 127
1, 18541, Note_off_c, 0, 99, 64
1, 18542, Note_off_c, 2, 67, 64
1, 18543, Note_off_c, 0, 96, 64
1, 18543, Note_off_c, 0, 92, 64
1, 18560, Note_on_c, 0, 99, 85
1, 18560, Note_on_c, 0, 92, 77
1, 18560, Note_on_c, 2, 66, 97
1, 18561, Note_on_c, 0, 96, 94
1, 18566, Note_off_c, 2, 68, 64
1, 18567, Note_off_c, 0, 44, 64
1, 18570, Note_off_c, 0, 53, 64
1, 18571, Note_off_c, 0, 99, 64
1, 18573, Note_off_c, 0, 96, 64
1, 18574, Note_off_c, 0, 92, 64
1, 18591, Note_on_c, 0, 53, 85
1, 18591, Note_on_c, 0, 44, 92
1, 18592, Note_on_c, 9, 51, 84
1, 18593, Note_off_c, 9, 51, 64
1, 18593, Note_on_c, 0, 99, 85
1, 18593, Note_on_c, 0, 92, 71
1, 18593, Note_on_c, 0, 96, 90
1, 18593, Note_on_c, 2, 67, 99
1, 18605, Note_off_c, 1, 41, 64
1, 18605, Note_off_c, 0, 92, 64
1, 18605, Note_off_c, 0, 99, 64
1, 18607, Note_off_c, 0, 96, 64
1, 18607, Note_off_c, 0, 44, 64
1, 18609, Note_off_c, 0, 53, 64
1, 18609, Note_off_c, 2, 66, 64
1, 18623, Note_on_c, 0, 51, 87
1, 18623, Note_on_c, 0, 44, 70
1, 18624, Note_on_c, 9, 51, 110
1, 18624, Note_on_c, 9, 36, 102
1, 18625, Note_off_c, 9, 36, 64
1, 18625, Note_off_c, 9, 51, 64
1, 18625, Note_on_c, 1, 44, 113
1, 18625, Note_on_c, 0, 99, 80
1, 18625, Note_on_c, 0, 92, 68
1, 18625, Note_on_c, 0, 96, 84
1, 18627, Note_on_c, 2, 68, 126
1, 18634, Note_off_c, 2, 67, 64
1, 18635, Note_off_c, 0, 99, 64
1, 18636, Note_off_c, 0, 92, 64
1, 18636, Note_off_c, 0, 96, 64
1, 18656, Note_on_c, 0, 99, 75
1, 18657, Note_on_c, 0, 92, 64
1, 18657, Note_on_c, 0, 96, 82
1, 18665, Note_off_c, 0, 44, 64
1, 18666, Note_off_c, 0, 92, 64
1, 18667, Note_off_c, 0, 96, 64
1, 18667, Note_off_c, 0, 99, 64
1, 18673, Note_off_c, 0, 51, 64
1, 18674, Note_off_c, 2, 68, 64
1, 18687, Note_on_c, 0, 51, 77
1, 18688, Note_on_c, 0, 44, 85
1, 18689, Note_on_c, 0, 99, 77
1, 18689, Note_on_c, 0, 96, 83
1, 18689, Note_on_c, 0, 92, 54
1, 18696, Note_off_c, 0, 92, 64
1, 18698, Note_off_c, 0, 96, 64
1, 18699, Note_off_c, 1, 44, 64
1, 18699, Note_off_c, 0, 99, 64
1, 18700, Note_off_c, 0, 44, 64
1, 18708, Note_off_c, 0, 51, 64
1, 18719, Note_on_c, 9, 51, 107
1, 18719, Note_on_c, 0, 44, 85
1, 18719, Note_on_c, 0, 53, 105
1, 18720, Note_off_c, 9, 51, 64
1, 18720, Note_on_c, 9, 40, 114
1, 18721, Note_off_c, 9, 40, 64
1, 18721, Note_on_c, 1, 46, 108
1, 18721, Note_on_c, 0, 99, 109
1, 18721, Note_on_c, 0, 92, 97
1, 18721, Note_on_c, 0, 96, 110
1, 18732, Note_off_c, 0, 99, 64
1, 18733, Note_off_c, 0, 92, 64
1, 18735, Note_off_c, 0, 96, 64
1, 18752, Note_on_c, 0, 99, 87
1, 18753, Note_on_c, 0, 92, 75
1, 18753, Note_on_c, 0, 96, 90
1, 18755, Note_off_c, 0, 53, 64
1, 18755, Note_off_c, 0, 44, 64
1, 18763, Note_off_c, 0, 92, 64
1, 18763, Note_off_c, 0, 99, 64
1, 18763, Note_off_c, 0, 96, 64
1, 18778, Note_off_c, 1, 46, 64
1, 18782, Note_on_c, 0, 44, 81
1, 18782, Note_on_c, 0, 53, 78
1, 18783, Note_on_c, 0, 92, 73
1, 18783, Note_on_c, 0, 99, 85
1, 18784, Note_on_c, 9, 36, 77
1, 18784, Note_on_c, 0, 96, 88
1, 18785, Note_off_c, 9, 36, 64
1, 18785, Note_on_c, 9, 51, 88
1, 18786, Note_off_c, 9, 51, 64
1, 18788, Note_on_c, 2, 68, 99
1, 18791, Note_off_c, 0, 96, 64
1, 18792, Note_off_c, 0, 92, 64
1, 18792, Note_off_c, 0, 99, 64
1, 18794, Note_off_c, 0, 53, 64
1, 18794, Note_off_c, 0, 44, 64
1, 18807, Note_on_c, 2, 70, 98
1, 18813, Note_off_c, 2, 68, 64
1, 18815, Note_on_c, 0, 46, 88
1, 18815, Note_on_c, 0, 39, 103
1, 18816, Note_on_c, 9, 51, 104
1, 18816, Note_on_c, 9, 36, 102
1, 18816, Note_on_c, 1, 39, 113
1, 18816, Note_on_c, 0, 94, 101
1, 18816, Note_on_c, 0, 99, 95
1, 18816, Note_on_c, 0, 97, 92
1, 18816, Note_on_c, 0, 91, 85
1, 18817, Note_off_c, 9, 36, 64
1, 18817, Note_off_c, 9, 51, 64
1, 18819, Note_on_c, 2, 71, 127
1, 18826, Note_off_c, 0, 97, 64
1, 18827, Note_off_c, 0, 99, 64
1, 18827, Note_off_c, 0, 94, 64
1, 18830, Note_off_c, 0, 91, 64
1, 18833, Note_off_c, 2, 70, 64
1, 18847, Note_on_c, 0, 94, 70
1, 18847, Note_on_c, 0, 99, 68
1, 18849, Note_on_c, 0, 91, 48
1, 18852, Note_off_c, 0, 99, 64
1, 18855, Note_off_c, 0, 91, 64
1, 18858, Note_off_c, 0, 94, 64
1, 18858, Note_off_c, 0, 39, 64
1, 18858, Note_off_c, 2, 71, 64
1, 18859, Note_off_c, 0, 46, 64
1, 18879, Note_on_c, 0, 94, 77
1, 18879, Note_on_c, 0, 99, 77
1, 18879, Note_on_c, 0, 91, 68
1, 18879, Note_on_c, 0, 39, 95
1, 18880, Note_on_c, 0, 97, 66
1, 18881, Note_on_c, 0, 46, 66
1, 18882, Note_on_c, 2, 70, 112
1, 18884, Note_off_c, 0, 97, 64
1, 18889, Note_off_c, 0, 91, 64
1, 18889, Note_off_c, 0, 99, 64
1, 18890, Note_off_c, 1, 39, 64
1, 18890, Note_off_c, 0, 46, 64
1, 18891, Note_off_c, 0, 94, 64
1, 18892, Note_off_c, 0, 39, 64
1, 18911, Note_on_c, 9, 51, 107
1, 18911, Note_on_c, 1, 43, 112
1, 18911, Note_on_c, 0, 48, 105
1, 18912, Note_off_c, 9, 51, 64
1, 18912, Note_on_c, 9, 40, 110
1, 18913, Note_off_c, 9, 40, 64
1, 18913, Note_on_c, 0, 94, 109
1, 18913, Note_on_c, 0, 97, 109
1, 18913, Note_on_c, 0, 99, 109
1, 18913, Note_on_c, 0, 91, 86
1, 18913, Note_on_c, 0, 39, 103
1, 18924, Note_off_c, 0, 99, 64
1, 18924, Note_off_c, 0, 97, 64
1, 18924, Note_off_c, 2, 70, 64
1, 18925, Note_off_c, 0, 94, 64
1, 18928, Note_off_c, 0, 91, 64
1, 18944, Note_on_c, 0, 94, 88
1, 18944, Note_on_c, 0, 91, 76
1, 18945, Note_on_c, 0, 99, 83
1, 18945, Note_on_c, 0, 97, 77
1, 18950, Note_on_c, 2, 68, 106
1, 18951, Note_off_c, 0, 39, 64
1, 18953, Note_off_c, 0, 97, 64
1, 18955, Note_off_c, 0, 99, 64
1, 18956, Note_off_c, 0, 94, 64
1, 18959, Note_off_c, 0, 48, 64
1, 18959, Note_off_c, 0, 91, 64
1, 18975, Note_on_c, 0, 94, 84
1, 18975, Note_on_c, 0, 39, 91
1, 18975, Note_on_c, 0, 48, 76
1, 18976, Note_on_c, 9, 51, 84
1, 18977, Note_off_c, 9, 51, 64
1, 18977, Note_on_c, 0, 99, 80
1, 18977, Note_on_c, 0, 97, 75
1, 18977, Note_on_c, 0, 91, 70
1, 18977, Note_on_c, 2, 65, 111
1, 18979, Note_off_c, 2, 68, 64
1, 18983, Note_off_c, 0, 91, 64
1, 18983, Note_off_c, 0, 99, 64
1, 18983, Note_off_c, 0, 94, 64
1, 18983, Note_off_c, 0, 97, 64
1, 18984, Note_off_c, 1, 43, 64
1, 18992, Note_off_c, 0, 48, 64
1, 18996, Note_off_c, 0, 39, 64
1, 19007, Note_on_c, 1, 46, 107
1, 19007, Note_on_c, 0, 94, 101
1, 19007, Note_on_c, 0, 97, 94
1, 19007, Note_on_c, 0, 99, 94
1, 19007, Note_on_c, 0, 91, 83
1, 19007, Note_on_c, 0, 46, 91
1, 19008, Note_on_c, 9, 51, 110
1, 19008, Note_on_c, 9, 36, 102
1, 19009, Note_off_c, 9, 36, 64
1, 19009, Note_off_c, 9, 51, 64
1, 19009, Note_on_c, 0, 39, 91
1, 19012, Note_off_c, 2, 65, 64
1, 19016, Note_on_c, 2, 63, 101
1, 19019, Note_off_c, 0, 99, 64
1, 19019, Note_off_c, 0, 94, 64
1, 19019, Note_off_c, 0, 97, 64
1, 19022, Note_off_c, 0, 91, 64
1, 19039, Note_on_c, 0, 94, 85
1, 19040, Note_on_c, 0, 97, 78
1, 19041, Note_on_c, 0, 99, 77
1, 19041, Note_on_c, 0, 91, 76
1, 19043, Note_on_c, 2, 65, 107
1, 19048, Note_off_c, 0, 99, 64
1, 19048, Note_off_c, 0, 97, 64
1, 19050, Note_off_c, 0, 94, 64
1, 19052, Note_off_c, 0, 91, 64
1, 19052, Note_off_c, 2, 63, 64
1, 19055, Note_off_c, 0, 39, 64
1, 19056, Note_off_c, 0, 46, 64
1, 19072, Note_on_c, 0, 46, 69
1, 19072, Note_off_c, 2, 65, 64
1, 19073, Note_on_c, 0, 94, 92
1, 19073, Note_on_c, 0, 97, 89
1, 19073, Note_on_c, 0, 99, 92
1, 19073, Note_on_c, 0, 91, 72
1, 19073, Note_on_c, 0, 39, 95
1, 19074, Note_on_c, 2, 59, 117
1, 19082, Note_off_c, 0, 99, 64
1, 19082, Note_off_c, 0, 97, 64
1, 19083, Note_off_c, 0, 91, 64
1, 19083, Note_off_c, 0, 94, 64
1, 19089, Note_off_c, 1, 46, 64
1, 19091, Note_off_c, 0, 46, 64
1, 19091, Note_off_c, 0, 39, 64
1, 19103, Note_on_c, 9, 51, 107
1, 19103, Note_on_c, 1, 48, 109
1, 19104, Note_off_c, 9, 51, 64
1, 19104, Note_on_c, 9, 40, 114
1, 19104, Note_on_c, 0, 94, 103
1, 19104, Note_on_c, 0, 97, 97
1, 19104, Note_on_c, 0, 99, 105
1, 19104, Note_on_c, 0, 91, 83
1, 19104, Note_on_c, 0, 48, 94
1, 19104, Note_on_c, 0, 39, 111
1, 19105, Note_off_c, 9, 40, 64
1, 19117, Note_off_c, 0, 99, 64
1, 19117, Note_off_c, 0, 97, 64
1, 19118, Note_off_c, 0, 94, 64
1, 19121, Note_off_c, 0, 91, 64
1, 19125, Pitch_bend_c, 2, 8543
1, 19128, Pitch_bend_c, 2, 8894
1, 19131, Pitch_bend_c, 2, 9245
1, 19134, Note_off_c, 0, 48, 64
1, 19134, Pitch_bend_c, 2, 9713
1, 19136, Note_off_c, 0, 39, 64
1, 19137, Note_on_c, 0, 94, 99
1, 19137, Note_on_c, 0, 99, 95
1, 19137, Note_on_c, 0, 91, 80
1, 19137, Note_on_c, 0, 97, 95
1, 19137, Pitch_bend_c, 2, 10181
1, 19140, Note_off_c, 2, 59, 64
1, 19140, Pitch_bend_c, 2, 10532
1, 19143, Pitch_bend_c, 2, 10883
1, 19146, Pitch_bend_c, 2, 11234
1, 19147, Note_off_c, 0, 97, 64
1, 19147, Note_off_c, 0, 99, 64
1, 19149, Note_off_c, 0, 91, 64
1, 19149, Note_off_c, 0, 94, 64
1, 19149, Pitch_bend_c, 2, 11585
1, 19152, Pitch_bend_c, 2, 11702
1, 19158, Pitch_bend_c, 2, 11351
1, 19161, Pitch_bend_c, 2, 10181
1, 19164, Pitch_bend_c, 2, 8309
1, 19167, Pitch_bend_c, 2, 8192
1, 19168, Note_on_c, 9, 36, 77
1, 19168, Note_on_c, 0, 91, 79
1, 19168, Note_on_c, 0, 39, 105
1, 19168, Note_on_c, 0, 48, 91
1, 19169, Note_off_c, 9, 36, 64
1, 19169, Note_on_c, 9, 51, 88
1, 19169, Note_on_c, 0, 94, 101
1, 19169, Note_on_c, 0, 97, 97
1, 19169, Note_on_c, 0, 99, 105
1, 19170, Note_off_c, 9, 51, 64
1, 19174, Note_off_c, 0, 91, 64
1, 19176, Note_off_c, 0, 97, 64
1, 19176, Note_off_c, 0, 99, 64
1, 19177, Note_off_c, 0, 94, 64
1, 19185, Note_off_c, 0, 48, 64
1, 19185, Note_off_c, 0, 39, 64
1, 19192, Note_off_c, 1, 48, 64
1, 19200, Note_on_c, 9, 51, 104
1, 19200, Note_on_c, 9, 36, 102
1, 19200, Note_on_c, 0, 89, 87
1, 19200, Note_on_c, 0, 92, 88
1, 19201, Note_off_c, 9, 36, 64
1, 19201, Note_off_c, 9, 51, 64
1, 19201, Note_on_c, 1, 37, 116
1, 19201, Note_on_c, 0, 97, 87
1, 19201, Note_on_c, 0, 44, 77
1, 19201, Note_on_c, 0, 37, 111
1, 19212, Note_off_c, 0, 92, 64
1, 19213, Note_off_c, 0, 89, 64
1, 19216, Note_off_c, 0, 97, 64
1, 19232, Note_on_c, 0, 89, 49
1, 19232, Note_on_c, 0, 92, 49
1, 19232, Note_on_c, 0, 97, 53
1, 19240, Note_off_c, 0, 97, 64
1, 19240, Note_off_c, 0, 89, 64
1, 19240, Note_off_c, 0, 92, 64
1, 19240, Note_off_c, 0, 37, 64
1, 19241, Note_off_c, 0, 44, 64
1, 19263, Note_on_c, 2, 66, 127
1, 19264, Note_on_c, 0, 89, 87
1, 19264, Note_on_c, 0, 92, 101
1, 19264, Note_on_c, 0, 95, 100
1, 19264, Note_on_c, 0, 97, 91
1, 19264, Note_on_c, 0, 44, 89
1, 19264, Note_on_c, 0, 37, 97
1, 19271, Note_off_c, 0, 97, 64
1, 19271, Note_off_c, 0, 95, 64
1, 19271, Note_off_c, 0, 89, 64
1, 19273, Note_off_c, 0, 92, 64
1, 19274, Note_off_c, 1, 37, 64
1, 19279, Note_off_c, 0, 44, 64
1, 19279, Note_off_c, 0, 37, 64
1, 19295, Note_on_c, 9, 51, 107
1, 19295, Note_on_c, 0, 46, 97
1, 19295, Note_on_c, 0, 37, 97
1, 19296, Note_off_c, 9, 51, 64
1, 19296, Note_on_c, 9, 40, 110
1, 19296, Note_on_c, 1, 41, 111
1, 19296, Note_on_c, 0, 89, 90
1, 19296, Note_on_c, 0, 92, 105
1, 19296, Note_on_c, 0, 95, 105
1, 19296, Note_on_c, 0, 97, 99
1, 19297, Note_off_c, 9, 40, 64
1, 19299, Note_on_c, 2, 65, 115
1, 19307, Note_off_c, 0, 95, 64
1, 19307, Note_off_c, 0, 89, 64
1, 19307, Note_off_c, 2, 66, 64
1, 19308, Note_off_c, 0, 92, 64
1, 19309, Note_off_c, 0, 97, 64
1, 19328, Note_on_c, 0, 89, 75
1, 19328, Note_on_c, 0, 92, 72
1, 19328, Note_on_c, 0, 95, 76
1, 19328, Note_on_c, 0, 97, 74
1, 19330, Note_on_c, 2, 64, 111
1, 19333, Note_off_c, 2, 65, 64
1, 19335, Note_off_c, 0, 92, 64
1, 19336, Note_off_c, 0, 95, 64
1, 19336, Note_off_c, 0, 97, 64
1, 19339, Note_off_c, 0, 89, 64
1, 19342, Note_off_c, 0, 37, 64
1, 19343, Note_off_c, 0, 46, 64
1, 19359, Note_on_c, 0, 46, 75
1, 19359, Note_off_c, 2, 64, 64
1, 19360, Note_on_c, 9, 51, 84
1, 19360, Note_on_c, 0, 89, 76
1, 19360, Note_on_c, 0, 92, 69
1, 19360, Note_on_c, 0, 95, 83
1, 19360, Note_on_c, 0, 97, 61
1, 19361, Note_off_c, 9, 51, 64
1, 19361, Note_on_c, 0, 37, 97
1, 19362, Note_off_c, 0, 97, 64
1, 19364, Note_off_c, 0, 92, 64
1, 19364, Note_on_c, 2, 63, 127
1, 19366, Note_off_c, 0, 95, 64
1, 19368, Note_off_c, 1, 41, 64
1, 19368, Note_off_c, 0, 89, 64
1, 19376, Note_off_c, 0, 46, 64
1, 19379, Note_off_c, 0, 37, 64
1, 19391, Note_on_c, 1, 44, 111
1, 19392, Note_on_c, 9, 51, 110
1, 19392, Note_on_c, 9, 36, 102
1, 19393, Note_off_c, 9, 36, 64
1, 19393, Note_off_c, 9, 51, 64
1, 19393, Note_on_c, 0, 92, 105
1, 19393, Note_on_c, 0, 95, 107
1, 19393, Note_on_c, 0, 89, 94
1, 19393, Note_on_c, 0, 97, 101
1, 19393, Note_on_c, 0, 44, 91
1, 19393, Note_on_c, 0, 37, 95
1, 19393, Note_off_c, 2, 63, 64
1, 19395, Note_on_c, 2, 62, 111
1, 19405, Note_off_c, 0, 97, 64
1, 19406, Note_off_c, 0, 89, 64
1, 19406, Note_off_c, 0, 92, 64
1, 19406, Note_off_c, 0, 95, 64
1, 19425, Note_on_c, 0, 89, 78
1, 19425, Note_on_c, 0, 95, 87
1, 19425, Note_on_c, 0, 97, 68
1, 19425, Note_on_c, 0, 92, 66
1, 19427, Note_off_c, 2, 62, 64
1, 19427, Note_on_c, 2, 61, 110
1, 19429, Note_off_c, 0, 92, 64
1, 19430, Note_off_c, 0, 95, 64
1, 19430, Note_off_c, 0, 97, 64
1, 19435, Note_off_c, 0, 37, 64
1, 19436, Note_off_c, 0, 89, 64
1, 19437, Note_off_c, 0, 44, 64
1, 19455, Note_on_c, 2, 60, 91
1, 19456, Note_on_c, 0, 44, 91
1, 19456, Note_on_c, 0, 37, 101
1, 19457, Note_on_c, 0, 92, 87
1, 19457, Note_on_c, 0, 95, 93
1, 19457, Note_on_c, 0, 89, 80
1, 19457, Note_on_c, 0, 97, 78
1, 19462, Note_off_c, 0, 97, 64
1, 19462, Note_off_c, 0, 92, 64
1, 19462, Note_off_c, 0, 95, 64
1, 19462, Note_off_c, 2, 61, 64
1, 19466, Note_off_c, 0, 89, 64
1, 19472, Note_off_c, 0, 37, 64
1, 19472, Note_off_c, 0, 44, 64
1, 19473, Note_off_c, 1, 44, 64
1, 19487, Note_on_c, 9, 51, 107
1, 19487, Note_on_c, 1, 46, 106
1, 19487, Note_on_c, 0, 46, 101
1, 19488, Note_off_c, 9, 51, 64
1, 19488, Note_on_c, 9, 40, 114
1, 19489, Note_off_c, 9, 40, 64
1, 19489, Note_on_c, 0, 92, 114
1, 19489, Note_on_c, 0, 95, 114
1, 19489, Note_on_c, 0, 97, 111
1, 19489, Note_on_c, 0, 89, 94
1, 19489, Note_on_c, 0, 37, 103
1, 19489, Note_on_c, 2, 59, 92
1, 19492, Note_off_c, 2, 60, 64
1, 19500, Note_off_c, 0, 92, 64
1, 19501, Note_off_c, 0, 97, 64
1, 19501, Note_off_c, 0, 95, 64
1, 19502, Note_off_c, 0, 89, 64
1, 19520, Note_on_c, 0, 89, 78
1, 19520, Note_on_c, 0, 92, 80
1, 19520, Note_on_c, 0, 97, 73
1, 19520, Note_on_c, 0, 95, 85
1, 19522, Note_off_c, 2, 59, 64
1, 19522, Note_on_c, 2, 58, 115
1, 19526, Note_off_c, 0, 46, 64
1, 19529, Note_off_c, 0, 95, 64
1, 19531, Note_off_c, 0, 92, 64
1, 19531, Note_off_c, 0, 37, 64
1, 19531, Note_off_c, 0, 97, 64
1, 19534, Note_off_c, 0, 89, 64
1, 19549, Note_on_c, 2, 57, 103
1, 19550, Note_on_c, 0, 37, 81
1, 19551, Note_on_c, 0, 46, 81
1, 19552, Note_on_c, 9, 36, 77
1, 19553, Note_off_c, 9, 36, 64
1, 19553, Note_on_c, 9, 51, 88
1, 19553, Note_on_c, 0, 95, 84
1, 19553, Note_on_c, 0, 97, 69
1, 19553, Note_on_c, 0, 89, 70
1, 19553, Note_on_c, 0, 92, 57
1, 19554, Note_off_c, 9, 51, 64
1, 19557, Note_off_c, 2, 58, 64
1, 19559, Note_off_c, 0, 92, 64
1, 19561, Note_off_c, 0, 97, 64
1, 19562, Note_off_c, 0, 95, 64
1, 19562, Note_off_c, 0, 89, 64
1, 19564, Note_off_c, 0, 37, 64
1, 19565, Note_off_c, 0, 46, 64
1, 19571, Note_off_c, 1, 46, 64
1, 19584, Note_on_c, 9, 51, 104
1, 19584, Note_on_c, 9, 36, 102
1, 19584, Note_on_c, 0, 87, 82
1, 19584, Note_on_c, 0, 92, 88
1, 19584, Note_on_c, 0, 96, 90
1, 19584, Note_on_c, 0, 44, 97
1, 19584, Note_on_c, 0, 51, 101
1, 19584, Note_on_c, 2, 56, 124
1, 19585, Note_off_c, 9, 36, 64
1, 19585, Note_off_c, 9, 51, 64
1, 19585, Note_on_c, 1, 44, 110
1, 19590, Note_off_c, 2, 57, 64
1, 19593, Note_off_c, 0, 92, 64
1, 19595, Note_off_c, 0, 87, 64
1, 19597, Note_off_c, 0, 96, 64
1, 19616, Note_on_c, 0, 92, 57
1, 19617, Note_on_c, 0, 87, 44
1, 19617, Note_on_c, 0, 96, 61
1, 19622, Note_off_c, 0, 87, 64
1, 19623, Note_off_c, 0, 92, 64
1, 19625, Note_off_c, 0, 96, 64
1, 19631, Note_off_c, 0, 51, 64
1, 19633, Note_off_c, 0, 44, 64
1, 19636, Note_off_c, 2, 56, 64
1, 19647, Note_on_c, 0, 96, 66
1, 19647, Note_on_c, 0, 87, 49
1, 19648, Note_on_c, 0, 92, 54
1, 19649, Note_on_c, 0, 44, 91
1, 19649, Note_on_c, 0, 51, 82
1, 19652, Note_off_c, 0, 92, 64
1, 19653, Note_off_c, 0, 96, 64
1, 19653, Note_off_c, 0, 87, 64
1, 19661, Note_off_c, 0, 51, 64
1, 19665, Note_off_c, 1, 44, 64
1, 19670, Note_off_c, 0, 44, 64
1, 19679, Note_on_c, 9, 51, 107
1, 19680, Note_off_c, 9, 51, 64
1, 19680, Note_on_c, 9, 40, 110
1, 19681, Note_off_c, 9, 40, 64
1, 19681, Note_on_c, 1, 41, 102
1, 19681, Note_on_c, 0, 92, 82
1, 19681, Note_on_c, 0, 87, 77
1, 19681, Note_on_c, 0, 96, 82
1, 19681, Note_on_c, 0, 53, 94
1, 19681, Note_on_c, 0, 44, 88
1, 19684, Note_on_c, 2, 60, 117
1, 19693, Note_off_c, 0, 87, 64
1, 19693, Note_off_c, 0, 92, 64
1, 19695, Note_off_c, 0, 96, 64
1, 19713, Note_on_c, 0, 92, 61
1, 19713, Note_on_c, 0, 87, 50
1, 19713, Note_on_c, 0, 96, 66
1, 19720, Note_off_c, 0, 92, 64
1, 19720, Note_off_c, 0, 44, 64
1, 19721, Note_off_c, 0, 96, 64
1, 19722, Note_off_c, 0, 87, 64
1, 19726, Note_off_c, 0, 53, 64
1, 19744, Note_on_c, 9, 51, 84
1, 19745, Note_off_c, 9, 51, 64
1, 19745, Note_on_c, 0, 87, 56
1, 19745, Note_on_c, 0, 96, 75
1, 19745, Note_on_c, 0, 92, 53
1, 19745, Note_on_c, 0, 53, 85
1, 19745, Note_on_c, 0, 44, 97
1, 19748, Note_on_c, 2, 63, 95
1, 19750, Note_off_c, 2, 60, 64
1, 19752, Note_off_c, 0, 92, 64
1, 19752, Note_off_c, 0, 87, 64
1, 19755, Note_off_c, 0, 96, 64
1, 19762, Note_off_c, 1, 41, 64
1, 19763, Note_off_c, 0, 53, 64
1, 19767, Note_off_c, 0, 44, 64
1, 19771, Note_off_c, 2, 63, 64
1, 19776, Note_on_c, 9, 51, 110
1, 19776, Note_on_c, 9, 36, 102
1, 19776, Note_on_c, 1, 39, 99
1, 19777, Note_off_c, 9, 36, 64
1, 19777, Note_off_c, 9, 51, 64
1, 19777, Note_on_c, 0, 87, 71
1, 19777, Note_on_c, 0, 92, 72
1, 19777, Note_on_c, 0, 96, 80
1, 19777, Note_on_c, 0, 51, 94
1, 19777, Note_on_c, 0, 44, 78
1, 19783, Note_on_c, 2, 60, 120
1, 19785, Note_off_c, 0, 92, 64
1, 19788, Note_off_c, 0, 96, 64
1, 19788, Note_on_c, 2, 61, 103
1, 19790, Note_off_c, 0, 87, 64
1, 19801, Note_off_c, 2, 60, 64
1, 19809, Note_on_c, 0, 87, 61
1, 19809, Note_on_c, 0, 92, 55
1, 19809, Note_on_c, 0, 96, 70
1, 19812, Note_off_c, 0, 92, 64
1, 19816, Note_off_c, 0, 96, 64
1, 19817, Note_off_c, 0, 87, 64
1, 19819, Note_off_c, 0, 44, 64
1, 19821, Note_off_c, 0, 51, 64
1, 19836, Note_off_c, 2, 61, 64
1, 19841, Lyric_t, "\012"
1, 19841, Note_on_c, 0, 87, 64
1, 19841, Note_on_c, 0, 96, 78
1, 19841, Note_on_c, 0, 92, 61
1, 19841, Note_on_c, 0, 51, 95
1, 19841, Note_on_c, 0, 44, 89
1, 19841, Note_on_c, 2, 63, 115
1, 19845, Note_off_c, 0, 92, 64
1, 19848, Note_off_c, 1, 39, 64
1, 19851, Note_off_c, 0, 87, 64
1, 19853, Note_off_c, 0, 96, 64
1, 19858, Note_off_c, 0, 51, 64
1, 19860, Note_off_c, 0, 44, 64
1, 19871, Note_on_c, 9, 51, 107
1, 19871, Note_on_c, 1, 41, 106
1, 19872, Note_off_c, 9, 51, 64
1, 19872, Note_on_c, 9, 40, 114
1, 19873, Note_off_c, 9, 40, 64
1, 19873, Note_on_c, 0, 87, 82
1, 19873, Note_on_c, 0, 92, 88
1, 19873, Note_on_c, 0, 96, 86
1, 19873, Note_on_c, 0, 53, 101
1, 19873, Note_on_c, 0, 44, 78
1, 19883, Note_off_c, 0, 92, 64
1, 19886, Note_off_c, 0, 87, 64
1, 19886, Note_off_c, 0, 96, 64
1, 19892, Note_off_c, 2, 63, 64
1, 19904, Note_on_c, 0, 87, 67
1, 19905, Note_on_c, 0, 92, 70
1, 19905, Note_on_c, 0, 96, 79
1, 19911, Note_off_c, 0, 92, 64
1, 19913, Note_off_c, 0, 87, 64
1, 19915, Note_off_c, 0, 96, 64
1, 19919, Note_off_c, 0, 44, 64
1, 19919, Note_on_c, 2, 60, 107
1, 19924, Note_off_c, 0, 53, 64
1, 19935, Note_on_c, 0, 87, 71
1, 19935, Note_on_c, 0, 96, 80
1, 19935, Note_on_c, 0, 92, 68
1, 19937, Note_on_c, 9, 51, 88
1, 19937, Note_on_c, 0, 44, 87
1, 19937, Note_on_c, 0, 53, 87
1, 19938, Note_off_c, 9, 51, 64
1, 19943, Note_off_c, 0, 92, 64
1, 19945, Note_off_c, 0, 87, 64
1, 19946, Note_off_c, 0, 96, 64
1, 19949, Note_off_c, 1, 41, 64
1, 19956, Note_off_c, 0, 53, 64
1, 19956, Note_off_c, 0, 44, 64
1, 19967, Note_on_c, 0, 87, 71
1, 19967, Note_on_c, 0, 92, 78
1, 19968, Note_on_c, 9, 51, 104
1, 19968, Note_on_c, 9, 36, 102
1, 19968, Note_on_c, 1, 44, 112
1, 19969, Note_off_c, 9, 36, 64
1, 19969, Note_off_c, 9, 51, 64
1, 19969, Note_on_c, 0, 96, 80
1, 19969, Note_on_c, 0, 51, 88
1, 19969, Note_on_c, 0, 44, 95
1, 19971, Note_on_c, 2, 56, 99
1, 19975, Note_off_c, 0, 87, 64
1, 19976, Note_off_c, 0, 92, 64
1, 19976, Note_off_c, 0, 96, 64
1, 19978, Note_off_c, 2, 60, 64
1, 19999, Note_on_c, 0, 96, 78
1, 19999, Note_on_c, 0, 87, 71
1, 19999, Note_on_c, 0, 92, 68
1, 20006, Note_off_c, 0, 92, 64
1, 20008, Note_off_c, 0, 87, 64
1, 20011, Note_off_c, 0, 96, 64
1, 20012, Note_off_c, 0, 44, 64
1, 20016, Note_off_c, 0, 51, 64
1, 20029, Note_off_c, 2, 56, 64
1, 20031, Note_on_c, 0, 87, 62
1, 20031, Note_on_c, 0, 96, 72
1, 20033, Note_on_c, 0, 92, 60
1, 20033, Note_on_c, 0, 51, 94
1, 20033, Note_on_c, 0, 44, 88
1, 20038, Note_off_c, 0, 92, 64
1, 20038, Note_off_c, 0, 87, 64
1, 20039, Note_off_c, 1, 44, 64
1, 20042, Note_off_c, 0, 96, 64
1, 20049, Note_off_c, 0, 51, 64
1, 20058, Note_off_c, 0, 44, 64
1, 20060, Note_on_c, 2, 59, 107
1, 20063, Note_on_c, 9, 51, 107
1, 20063, Note_on_c, 0, 87, 75
1, 20063, Note_on_c, 0, 96, 86
1, 20064, Note_off_c, 9, 51, 64
1, 20064, Note_on_c, 9, 40, 110
1, 20064, Note_on_c, 1, 41, 102
1, 20065, Note_off_c, 9, 40, 64
1, 20065, Note_on_c, 0, 92, 82
1, 20065, Note_on_c, 0, 53, 101
1, 20065, Note_on_c, 0, 44, 77
1, 20073, Note_off_c, 0, 92, 64
1, 20074, Note_off_c, 0, 87, 64
1, 20076, Note_off_c, 0, 96, 64
1, 20087, Pitch_bend_c, 2, 8543
1, 20090, Pitch_bend_c, 2, 9128
1, 20093, Pitch_bend_c, 2, 9479
1, 20096, Note_on_c, 0, 87, 67
1, 20096, Note_on_c, 0, 92, 71
1, 20096, Pitch_bend_c, 2, 9947
1, 20097, Note_on_c, 0, 96, 78
1, 20099, Pitch_bend_c, 2, 10415
1, 20102, Pitch_bend_c, 2, 10883
1, 20104, Note_off_c, 0, 92, 64
1, 20104, Note_off_c, 0, 87, 64
1, 20105, Note_off_c, 0, 44, 64
1, 20105, Pitch_bend_c, 2, 11468
1, 20106, Note_off_c, 0, 96, 64
1, 20109, Pitch_bend_c, 2, 11936
1, 20112, Note_off_c, 0, 53, 64
1, 20112, Pitch_bend_c, 2, 12287
1, 20115, Pitch_bend_c, 2, 12521
1, 20121, Pitch_bend_c, 2, 8192
1, 20122, Note_on_c, 2, 56, 99
1, 20126, Note_off_c, 2, 59, 64
1, 20127, Note_on_c, 0, 87, 68
1, 20127, Note_on_c, 0, 96, 79
1, 20127, Note_on_c, 0, 92, 64
1, 20128, Note_on_c, 9, 51, 84
1, 20129, Note_off_c, 9, 51, 64
1, 20129, Note_on_c, 0, 44, 88
1, 20129, Note_on_c, 0, 53, 79
1, 20137, Note_off_c, 0, 92, 64
1, 20138, Note_off_c, 0, 87, 64
1, 20140, Note_off_c, 0, 96, 64
1, 20145, Note_off_c, 1, 41, 64
1, 20146, Note_off_c, 0, 53, 64
1, 20150, Note_off_c, 0, 44, 64
1, 20150, Note_off_c, 2, 56, 64
1, 20160, Note_on_c, 9, 51, 110
1, 20160, Note_on_c, 9, 36, 102
1, 20160, Note_on_c, 1, 39, 99
1, 20160, Note_on_c, 0, 51, 88
1, 20161, Note_off_c, 9, 36, 64
1, 20161, Note_off_c, 9, 51, 64
1, 20161, Note_on_c, 0, 87, 72
1, 20161, Note_on_c, 0, 96, 83
1, 20161, Note_on_c, 0, 92, 77
1, 20161, Note_on_c, 0, 44, 78
1, 20168, Note_off_c, 0, 92, 64
1, 20169, Note_off_c, 0, 87, 64
1, 20172, Note_off_c, 0, 96, 64
1, 20192, Note_on_c, 9, 51, 77
1, 20192, Note_on_c, 0, 87, 67
1, 20192, Note_on_c, 0, 92, 67
1, 20192, Note_on_c, 0, 96, 75
1, 20193, Note_off_c, 9, 51, 64
1, 20193, Note_off_c, 0, 44, 64
1, 20200, Note_off_c, 0, 92, 64
1, 20200, Note_off_c, 0, 87, 64
1, 20202, Note_off_c, 0, 96, 64
1, 20204, Note_off_c, 0, 51, 64
1, 20218, Lyric_t, "Well, "
1, 20218, Note_on_c, 3, 71, 104
1, 20223, Note_on_c, 0, 87, 60
1, 20223, Note_on_c, 0, 96, 74
1, 20223, Note_on_c, 0, 92, 62
1, 20223, Note_on_c, 0, 51, 81
1, 20223, Note_on_c, 0, 44, 88
1, 20224, Note_on_c, 9, 40, 88
1, 20224, Note_on_c, 9, 51, 91
1, 20225, Note_off_c, 9, 51, 64
1, 20225, Note_off_c, 9, 40, 64
1, 20230, Note_off_c, 0, 92, 64
1, 20232, Note_off_c, 1, 39, 64
1, 20233, Note_off_c, 0, 87, 64
1, 20233, Note_off_c, 0, 96, 64
1, 20237, Note_off_c, 0, 44, 64
1, 20239, Note_off_c, 0, 51, 64
1, 20255, Note_on_c, 9, 51, 107
1, 20255, Note_on_c, 1, 41, 116
1, 20255, Note_on_c, 0, 87, 75
1, 20255, Note_on_c, 0, 53, 96
1, 20255, Note_on_c, 0, 44, 87
1, 20256, Note_off_c, 9, 51, 64
1, 20256, Note_on_c, 9, 40, 114
1, 20256, Note_on_c, 0, 92, 84
1, 20256, Note_on_c, 0, 96, 84
1, 20257, Note_off_c, 9, 40, 64
1, 20265, Note_off_c, 0, 92, 64
1, 20266, Note_off_c, 0, 87, 64
1, 20267, Note_off_c, 0, 96, 64
1, 20287, Note_on_c, 0, 87, 72
1, 20287, Note_on_c, 0, 92, 77
1, 20287, Note_on_c, 0, 96, 80
1, 20296, Note_off_c, 0, 92, 64
1, 20297, Note_off_c, 0, 87, 64
1, 20299, Note_off_c, 0, 96, 64
1, 20300, Note_off_c, 0, 44, 64
1, 20303, Note_off_c, 3, 71, 64
1, 20303, Note_off_c, 0, 53, 64
1, 20315, Lyric_t, "ev"
1, 20315, Note_on_c, 3, 71, 104
1, 20319, Note_on_c, 0, 87, 70
1, 20319, Note_on_c, 0, 96, 79
1, 20319, Note_on_c, 0, 92, 71
1, 20319, Note_on_c, 0, 44, 91
1, 20319, Note_on_c, 0, 53, 85
1, 20320, Note_on_c, 9, 46, 99
1, 20320, Note_on_c, 9, 36, 85
1, 20320, Note_off_c, 1, 41, 64
1, 20321, Note_off_c, 9, 36, 64
1, 20321, Note_off_c, 9, 46, 64
1, 20323, Note_off_c, 0, 92, 64
1, 20324, Note_off_c, 0, 87, 64
1, 20329, Note_off_c, 0, 96, 64
1, 20336, Note_off_c, 0, 53, 64
1, 20336, Note_off_c, 0, 44, 64
1, 20352, Note_on_c, 9, 49, 82
1, 20352, Note_on_c, 9, 36, 102
1, 20352, Note_on_c, 1, 44, 114
1, 20352, Note_on_c, 0, 51, 83
1, 20353, Note_off_c, 9, 36, 64
1, 20353, Note_off_c, 9, 49, 64
1, 20353, Note_on_c, 0, 44, 81
1, 20353, Note_on_c, 2, 44, 123
1, 20380, Note_off_c, 2, 44, 64
1, 20399, Note_off_c, 0, 44, 64
1, 20399, Note_off_c, 0, 51, 64
1, 20413, Note_off_c, 3, 71, 64
1, 20415, Note_on_c, 0, 51, 81
1, 20415, Note_on_c, 0, 44, 88
1, 20417, Note_on_c, 2, 44, 104
1, 20420, Lyric_t, "'ry "
1, 20420, Note_on_c, 3, 72, 103
1, 20423, Note_off_c, 1, 44, 64
1, 20433, Note_off_c, 0, 51, 64
1, 20438, Note_off_c, 0, 44, 64
1, 20439, Note_off_c, 2, 44, 64
1, 20447, Note_on_c, 1, 41, 100
1, 20447, Note_on_c, 0, 44, 74
1, 20448, Note_off_c, 3, 72, 64
1, 20448, Note_on_c, 9, 40, 110
1, 20449, Note_off_c, 9, 40, 64
1, 20449, Note_on_c, 9, 46, 85
1, 20449, Note_on_c, 0, 53, 96
1, 20449, Note_on_c, 2, 53, 110
1, 20450, Note_off_c, 9, 46, 64
1, 20457, Lyric_t, "time "
1, 20457, Note_on_c, 3, 71, 95
1, 20484, Note_off_c, 2, 53, 64
1, 20488, Note_off_c, 0, 44, 64
1, 20493, Note_off_c, 0, 53, 64
1, 20505, Note_off_c, 3, 71, 64
1, 20511, Lyric_t, "I "
1, 20511, Note_on_c, 3, 72, 104
1, 20511, Note_on_c, 2, 53, 102
1, 20512, Note_on_c, 9, 46, 77
1, 20512, Note_on_c, 0, 44, 91
1, 20512, Note_on_c, 0, 53, 86
1, 20513, Note_off_c, 9, 46, 64
1, 20524, Note_off_c, 1, 41, 64
1, 20529, Note_off_c, 0, 53, 64
1, 20533, Note_off_c, 0, 44, 64
1, 20538, Note_off_c, 3, 72, 64
1, 20539, Note_off_c, 2, 53, 64
1, 20544, Lyric_t, "kiss "
1, 20544, Note_on_c, 3, 68, 96
1, 20544, Note_on_c, 9, 36, 102
1, 20544, Note_on_c, 1, 39, 107
1, 20544, Note_on_c, 0, 51, 83
1, 20545, Note_off_c, 9, 36, 64
1, 20545, Note_on_c, 9, 46, 97
1, 20545, Note_on_c, 0, 44, 92
1, 20545, Note_on_c, 2, 51, 118
1, 20546, Note_off_c, 9, 46, 64
1, 20577, Note_off_c, 2, 51, 64
1, 20590, Note_off_c, 0, 44, 64
1, 20593, Note_off_c, 0, 51, 64
1, 20594, Note_off_c, 1, 39, 64
1, 20607, Note_on_c, 0, 51, 78
1, 20607, Note_on_c, 2, 51, 102
1, 20608, Note_on_c, 1, 39, 107
1, 20609, Note_on_c, 0, 44, 89
1, 20623, Note_off_c, 0, 44, 64
1, 20626, Note_off_c, 0, 51, 64
1, 20630, Note_off_c, 3, 68, 64
1, 20630, Note_off_c, 2, 51, 64
1, 20633, Note_off_c, 1, 39, 64
1, 20638, Lyric_t, "your "
1, 20638, Note_on_c, 3, 65, 104
1, 20639, Note_on_c, 1, 41, 102
1, 20639, Note_on_c, 0, 53, 97
1, 20639, Note_on_c, 0, 44, 91
1, 20639, Note_on_c, 2, 53, 118
1, 20640, Note_on_c, 9, 40, 114
1, 20641, Note_off_c, 9, 40, 64
1, 20641, Note_on_c, 9, 46, 82
1, 20642, Note_off_c, 9, 46, 64
1, 20682, Note_off_c, 0, 44, 64
1, 20682, Note_off_c, 2, 53, 64
1, 20685, Note_off_c, 0, 53, 64
1, 20698, Note_off_c, 3, 65, 64
1, 20703, Note_on_c, 3, 63, 94
1, 20703, Note_on_c, 0, 53, 88
1, 20703, Note_on_c, 0, 44, 89
1, 20704, Note_on_c, 6, 39, 113
1, 20704, Note_on_c, 9, 46, 77
1, 20704, Note_on_c, 2, 51, 107
1, 20705, Note_off_c, 9, 46, 64
1, 20716, Note_off_c, 1, 41, 64
1, 20720, Note_off_c, 3, 63, 64
1, 20723, Note_off_c, 0, 44, 64
1, 20723, Note_off_c, 0, 53, 64
1, 20724, Note_off_c, 2, 51, 64
1, 20735, Note_on_c, 1, 44, 111
1, 20735, Note_on_c, 0, 51, 91
1, 20736, Note_on_c, 9, 46, 97
1, 20736, Note_on_c, 9, 36, 102
1, 20737, Note_off_c, 9, 36, 64
1, 20737, Note_off_c, 9, 46, 64
1, 20737, Note_on_c, 0, 44, 87
1, 20737, Note_on_c, 2, 44, 123
1, 20739, Note_off_c, 6, 39, 64
1, 20739, Note_on_c, 6, 32, 70
1, 20764, Note_off_c, 2, 44, 64
1, 20774, Note_off_c, 0, 44, 64
1, 20779, Note_off_c, 0, 51, 64
1, 20794, Lyric_t, "sweet "
1, 20794, Note_on_c, 3, 68, 102
1, 20799, Note_on_c, 0, 51, 77
1, 20799, Note_on_c, 0, 44, 88
1, 20800, Note_on_c, 4, 60, 58
1, 20800, Note_on_c, 4, 56, 58
1, 20800, Note_on_c, 4, 53, 58
1, 20801, Note_on_c, 2, 44, 104
1, 20809, Note_off_c, 1, 44, 64
1, 20813, Note_off_c, 0, 44, 64
1, 20813, Note_off_c, 0, 51, 64
1, 20817, Note_off_c, 6, 32, 64
1, 20823, Note_off_c, 2, 44, 64
1, 20831, Note_on_c, 1, 41, 94
1, 20831, Note_on_c, 0, 53, 94
1, 20831, Note_on_c, 0, 44, 82
1, 20832, Note_on_c, 9, 40, 110
1, 20832, Note_on_c, 9, 46, 85
1, 20833, Note_off_c, 9, 46, 64
1, 20833, Note_off_c, 9, 40, 64
1, 20833, Note_on_c, 2, 53, 110
1, 20868, Note_off_c, 2, 53, 64
1, 20872, Note_off_c, 3, 68, 64
1, 20874, Note_off_c, 0, 44, 64
1, 20874, Note_off_c, 0, 53, 64
1, 20892, Lyric_t, "lips, "
1, 20892, Lyric_t, "\015"
1, 20892, Note_on_c, 3, 72, 102
1, 20895, Note_off_c, 4, 56, 64
1, 20895, Note_off_c, 4, 60, 64
1, 20895, Note_on_c, 9, 46, 63
1, 20895, Note_on_c, 0, 53, 80
1, 20895, Note_on_c, 0, 44, 85
1, 20895, Note_on_c, 2, 53, 102
1, 20896, Note_off_c, 4, 53, 64
1, 20896, Note_on_c, 4, 63, 58
1, 20896, Note_on_c, 4, 60, 58
1, 20896, Note_on_c, 4, 56, 58
1, 20896, Note_off_c, 9, 46, 64
1, 20910, Note_off_c, 1, 41, 64
1, 20911, Note_off_c, 0, 44, 64
1, 20911, Note_off_c, 0, 53, 64
1, 20923, Note_off_c, 2, 53, 64
1, 20927, Note_on_c, 9, 46, 99
1, 20927, Note_on_c, 1, 44, 107
1, 20927, Note_on_c, 0, 51, 88
1, 20928, Note_off_c, 9, 46, 64
1, 20928, Note_on_c, 9, 36, 102
1, 20928, Note_on_c, 0, 44, 84
1, 20929, Note_off_c, 9, 36, 64
1, 20929, Note_on_c, 2, 51, 118
1, 20948, Note_off_c, 3, 72, 64
1, 20961, Note_off_c, 2, 51, 64
1, 20972, Note_off_c, 0, 44, 64
1, 20974, Note_off_c, 0, 51, 64
1, 20991, Note_on_c, 0, 51, 81
1, 20991, Note_on_c, 2, 51, 102
1, 20993, Note_on_c, 0, 44, 83
1, 21006, Note_off_c, 1, 44, 64
1, 21006, Note_off_c, 0, 44, 64
1, 21008, Note_off_c, 0, 51, 64
1, 21014, Note_off_c, 2, 51, 64
1, 21023, Note_on_c, 1, 41, 100
1, 21023, Note_on_c, 0, 44, 78
1, 21023, Note_on_c, 0, 53, 101
1, 21023, Note_on_c, 2, 53, 118
1, 21024, Note_off_c, 4, 56, 64
1, 21024, Note_off_c, 4, 60, 64
1, 21024, Note_off_c, 4, 63, 64
1, 21024, Note_on_c, 9, 40, 114
1, 21025, Note_off_c, 9, 40, 64
1, 21025, Note_on_c, 9, 46, 82
1, 21026, Note_off_c, 9, 46, 64
1, 21058, Note_off_c, 0, 44, 64
1, 21061, Note_off_c, 0, 53, 64
1, 21066, Note_off_c, 2, 53, 64
1, 21083, Lyric_t, "I "
1, 21083, Note_on_c, 3, 71, 104
1, 21087, Note_on_c, 0, 51, 82
1, 21087, Note_on_c, 0, 44, 97
1, 21088, Note_on_c, 9, 46, 63
1, 21088, Note_on_c, 2, 51, 107
1, 21089, Note_off_c, 9, 46, 64
1, 21101, Note_off_c, 1, 41, 64
1, 21103, Note_off_c, 0, 51, 64
1, 21108, Note_off_c, 2, 51, 64
1, 21113, Note_off_c, 0, 44, 64
1, 21119, Note_on_c, 1, 44, 104
1, 21119, Note_on_c, 0, 51, 103
1, 21119, Note_on_c, 0, 44, 58
1, 21120, Note_on_c, 9, 46, 93
1, 21120, Note_on_c, 9, 36, 102
1, 21121, Note_off_c, 9, 36, 64
1, 21121, Note_off_c, 9, 46, 64
1, 21121, Note_on_c, 2, 44, 123
1, 21148, Note_off_c, 2, 44, 64
1, 21166, Note_off_c, 0, 44, 64
1, 21169, Note_off_c, 0, 51, 64
1, 21172, Note_off_c, 3, 71, 64
1, 21176, Note_off_c, 1, 44, 64
1, 21183, Lyric_t, "can "
1, 21183, Note_on_c, 3, 72, 107
1, 21183, Note_on_c, 0, 51, 80
1, 21183, Note_on_c, 0, 44, 88
1, 21184, Note_on_c, 1, 44, 107
1, 21185, Note_on_c, 2, 44, 104
1, 21198, Note_off_c, 0, 51, 64
1, 21199, Note_off_c, 0, 44, 64
1, 21207, Note_off_c, 2, 44, 64
1, 21209, Note_off_c, 3, 72, 64
1, 21209, Note_off_c, 1, 44, 64
1, 21215, Note_on_c, 1, 41, 98
1, 21215, Note_on_c, 0, 53, 90
1, 21215, Note_on_c, 0, 44, 81
1, 21216, Lyric_t, "feel "
1, 21216, Note_on_c, 3, 71, 94
1, 21216, Note_on_c, 9, 40, 110
1, 21217, Note_off_c, 9, 40, 64
1, 21217, Note_on_c, 9, 46, 85
1, 21217, Note_on_c, 2, 53, 110
1, 21218, Note_off_c, 9, 46, 64
1, 21252, Note_off_c, 2, 53, 64
1, 21256, Note_off_c, 0, 44, 64
1, 21261, Note_off_c, 0, 53, 64
1, 21263, Note_off_c, 3, 71, 64
1, 21270, Lyric_t, "my "
1, 21270, Note_on_c, 3, 72, 105
1, 21279, Note_on_c, 0, 53, 80
1, 21279, Note_on_c, 0, 44, 91
1, 21279, Note_on_c, 2, 53, 102
1, 21292, Note_off_c, 1, 41, 64
1, 21294, Note_off_c, 0, 53, 64
1, 21296, Note_off_c, 3, 72, 64
1, 21296, Note_off_c, 0, 44, 64
1, 21306, Lyric_t, "heart "
1, 21306, Note_on_c, 3, 68, 99
1, 21307, Note_off_c, 2, 53, 64
1, 21311, Note_on_c, 1, 44, 99
1, 21311, Note_on_c, 0, 51, 89
1, 21312, Note_on_c, 9, 36, 102
1, 21312, Note_on_c, 0, 44, 75
1, 21313, Note_off_c, 9, 36, 64
1, 21313, Note_on_c, 9, 46, 97
1, 21313, Note_on_c, 2, 51, 118
1, 21314, Note_off_c, 9, 46, 64
1, 21345, Note_off_c, 2, 51, 64
1, 21354, Note_off_c, 0, 44, 64
1, 21356, Note_off_c, 0, 51, 64
1, 21359, Note_off_c, 1, 44, 64
1, 21375, Note_on_c, 2, 51, 102
1, 21376, Note_on_c, 1, 44, 107
1, 21376, Note_on_c, 0, 51, 80
1, 21376, Note_on_c, 0, 44, 78
1, 21389, Note_off_c, 0, 44, 64
1, 21389, Note_off_c, 0, 51, 64
1, 21395, Note_off_c, 3, 68, 64
1, 21398, Note_off_c, 2, 51, 64
1, 21401, Lyric_t, "go "
1, 21401, Note_on_c, 3, 65, 101
1, 21401, Note_off_c, 1, 44, 64
1, 21407, Note_on_c, 1, 41, 97
1, 21407, Note_on_c, 0, 53, 90
1, 21407, Note_on_c, 0, 44, 85
1, 21407, Note_on_c, 2, 53, 118
1, 21408, Note_on_c, 9, 40, 114
1, 21409, Note_off_c, 9, 40, 64
1, 21409, Note_on_c, 9, 46, 82
1, 21410, Note_off_c, 9, 46, 64
1, 21445, Note_off_c, 0, 44, 64
1, 21448, Note_off_c, 0, 53, 64
1, 21450, Note_off_c, 2, 53, 64
1, 21456, Note_off_c, 3, 65, 64
1, 21468, Note_on_c, 3, 63, 92
1, 21468, Note_on_c, 6, 39, 101
1, 21471, Note_on_c, 0, 51, 79
1, 21471, Note_on_c, 0, 44, 89
1, 21472, Note_on_c, 9, 46, 63
1, 21472, Note_on_c, 2, 51, 107
1, 21473, Note_off_c, 9, 46, 64
1, 21482, Note_off_c, 3, 63, 64
1, 21488, Note_off_c, 1, 41, 64
1, 21488, Note_off_c, 0, 51, 64
1, 21490, Note_off_c, 0, 44, 64
1, 21492, Note_off_c, 2, 51, 64
1, 21499, Note_off_c, 6, 39, 64
1, 21503, Note_on_c, 1, 44, 99
1, 21503, Note_on_c, 0, 51, 68
1, 21503, Note_on_c, 0, 44, 71
1, 21504, Note_on_c, 9, 46, 97
1, 21504, Note_on_c, 9, 36, 102
1, 21505, Note_off_c, 9, 36, 64
1, 21505, Note_off_c, 9, 46, 64
1, 21505, Note_on_c, 2, 44, 123
1, 21506, Note_on_c, 6, 32, 93
1, 21532, Note_off_c, 2, 44, 64
1, 21538, Note_off_c, 0, 44, 64
1, 21545, Note_off_c, 0, 51, 64
1, 21553, Note_off_c, 1, 44, 64
1, 21567, Note_on_c, 0, 51, 88
1, 21567, Note_on_c, 0, 44, 85
1, 21568, Lyric_t, "flip, "
1, 21568, Note_on_c, 3, 68, 102
1, 21568, Note_on_c, 4, 56, 58
1, 21568, Note_on_c, 4, 60, 58
1, 21568, Note_on_c, 4, 53, 58
1, 21568, Note_on_c, 1, 44, 107
1, 21569, Note_on_c, 2, 44, 104
1, 21580, Note_off_c, 0, 44, 64
1, 21581, Note_off_c, 0, 51, 64
1, 21582, Note_off_c, 6, 32, 64
1, 21591, Note_off_c, 2, 44, 64
1, 21593, Note_off_c, 1, 44, 64
1, 21599, Note_on_c, 1, 41, 84
1, 21599, Note_on_c, 0, 53, 105
1, 21599, Note_on_c, 0, 44, 92
1, 21600, Note_on_c, 9, 40, 110
1, 21601, Note_off_c, 9, 40, 64
1, 21601, Note_on_c, 9, 46, 78
1, 21601, Note_on_c, 2, 53, 110
1, 21602, Note_off_c, 9, 46, 64
1, 21624, Note_off_c, 3, 68, 64
1, 21636, Note_off_c, 2, 53, 64
1, 21642, Note_off_c, 0, 44, 64
1, 21646, Note_off_c, 0, 53, 64
1, 21662, Lyric_t, "flip. "
1, 21662, Lyric_t, "\015"
1, 21662, Note_on_c, 3, 72, 103
1, 21663, Note_off_c, 4, 60, 64
1, 21663, Note_off_c, 4, 56, 64
1, 21663, Note_on_c, 0, 53, 83
1, 21663, Note_on_c, 0, 44, 94
1, 21663, Note_on_c, 2, 53, 102
1, 21664, Note_off_c, 4, 53, 64
1, 21664, Note_on_c, 4, 63, 58
1, 21664, Note_on_c, 4, 60, 58
1, 21664, Note_on_c, 4, 56, 58
1, 21664, Note_on_c, 9, 46, 63
1, 21665, Note_off_c, 9, 46, 64
1, 21682, Note_off_c, 1, 41, 64
1, 21683, Note_off_c, 0, 44, 64
1, 21683, Note_off_c, 0, 53, 64
1, 21691, Note_off_c, 2, 53, 64
1, 21695, Note_on_c, 9, 46, 99
1, 21695, Note_on_c, 1, 39, 107
1, 21695, Note_on_c, 0, 51, 94
1, 21695, Note_on_c, 0, 44, 84
1, 21696, Note_off_c, 9, 46, 64
1, 21696, Note_on_c, 9, 36, 102
1, 21697, Note_off_c, 9, 36, 64
1, 21697, Note_on_c, 2, 51, 118
1, 21714, Note_off_c, 3, 72, 64
1, 21725, Lyric_t, "\012"
1, 21729, Note_off_c, 2, 51, 64
1, 21732, Note_off_c, 0, 44, 64
1, 21738, Note_off_c, 0, 51, 64
1, 21747, Note_off_c, 1, 39, 64
1, 21759, Note_on_c, 0, 44, 87
1, 21759, Note_on_c, 0, 51, 81
1, 21759, Note_on_c, 2, 51, 102
1, 21760, Note_on_c, 9, 40, 98
1, 21760, Note_on_c, 1, 44, 97
1, 21761, Note_off_c, 9, 40, 64
1, 21771, Note_off_c, 0, 51, 64
1, 21773, Note_off_c, 0, 44, 64
1, 21782, Note_off_c, 2, 51, 64
1, 21785, Note_off_c, 1, 44, 64
1, 21791, Note_on_c, 0, 53, 104
1, 21791, Note_on_c, 0, 44, 75
1, 21791, Note_on_c, 2, 53, 118
1, 21792, Note_off_c, 4, 56, 64
1, 21792, Note_off_c, 4, 60, 64
1, 21792, Note_off_c, 4, 63, 64
1, 21792, Note_on_c, 9, 40, 114
1, 21792, Note_on_c, 1, 44, 100
1, 21793, Note_off_c, 9, 40, 64
1, 21825, Note_off_c, 0, 53, 64
1, 21828, Note_off_c, 0, 44, 64
1, 21834, Note_off_c, 2, 53, 64
1, 21851, Lyric_t, "I'm "
1, 21851, Note_on_c, 3, 71, 104
1, 21854, Note_on_c, 0, 44, 85
1, 21854, Note_on_c, 0, 53, 77
1, 21856, Note_on_c, 2, 51, 107
1, 21863, Note_off_c, 1, 44, 64
1, 21863, Note_off_c, 0, 53, 64
1, 21863, Note_off_c, 0, 44, 64
1, 21876, Note_off_c, 2, 51, 64
1, 21887, Note_on_c, 0, 37, 107
1, 21887, Note_on_c, 0, 44, 58
1, 21888, Note_on_c, 9, 46, 93
1, 21888, Note_on_c, 9, 36, 102
1, 21888, Note_on_c, 1, 37, 111
1, 21889, Note_off_c, 9, 36, 64
1, 21889, Note_off_c, 9, 46, 64
1, 21889, Note_on_c, 2, 49, 119
1, 21921, Note_off_c, 2, 49, 64
1, 21926, Note_off_c, 0, 37, 64
1, 21930, Note_off_c, 0, 44, 64
1, 21951, Note_on_c, 0, 37, 101
1, 21951, Note_on_c, 0, 44, 89
1, 21953, Note_on_c, 2, 49, 108
1, 21965, Note_off_c, 0, 44, 64
1, 21966, Note_off_c, 3, 71, 64
1, 21966, Note_off_c, 1, 37, 64
1, 21971, Note_off_c, 2, 49, 64
1, 21972, Note_off_c, 0, 37, 64
1, 21978, Lyric_t, "such "
1, 21978, Note_on_c, 3, 71, 102
1, 21983, Note_on_c, 0, 46, 92
1, 21984, Note_on_c, 9, 40, 110
1, 21984, Note_on_c, 1, 41, 103
1, 21985, Note_off_c, 9, 40, 64
1, 21985, Note_on_c, 9, 46, 85
1, 21985, Note_on_c, 0, 37, 99
1, 21985, Note_on_c, 2, 58, 116
1, 21986, Note_off_c, 9, 46, 64
1, 22018, Note_off_c, 2, 58, 64
1, 22027, Note_off_c, 0, 37, 64
1, 22032, Note_off_c, 3, 71, 64
1, 22035, Note_off_c, 1, 41, 64
1, 22036, Note_off_c, 0, 46, 64
1, 22045, Lyric_t, "a "
1, 22045, Note_on_c, 3, 71, 105
1, 22047, Note_on_c, 2, 58, 104
1, 22048, Note_on_c, 1, 41, 107
1, 22049, Note_on_c, 9, 46, 63
1, 22049, Note_on_c, 0, 37, 92
1, 22049, Note_on_c, 0, 46, 97
1, 22050, Note_off_c, 9, 46, 64
1, 22066, Note_off_c, 0, 46, 64
1, 22068, Note_off_c, 1, 41, 64
1, 22070, Note_off_c, 3, 71, 64
1, 22070, Note_off_c, 0, 37, 64
1, 22074, Note_off_c, 2, 58, 64
1, 22079, Note_on_c, 1, 44, 107
1, 22080, Lyric_t, "fool "
1, 22080, Note_on_c, 3, 68, 100
1, 22080, Note_on_c, 9, 36, 102
1, 22081, Note_off_c, 9, 36, 64
1, 22081, Note_on_c, 9, 46, 97
1, 22081, Note_on_c, 0, 44, 87
1, 22081, Note_on_c, 0, 37, 91
1, 22081, Note_on_c, 2, 56, 112
1, 22082, Note_off_c, 9, 46, 64
1, 22117, Note_off_c, 2, 56, 64
1, 22125, Note_off_c, 0, 37, 64
1, 22126, Note_off_c, 0, 44, 64
1, 22143, Note_on_c, 2, 56, 102
1, 22144, Note_on_c, 0, 44, 70
1, 22145, Note_on_c, 0, 37, 83
1, 22156, Note_off_c, 1, 44, 64
1, 22157, Note_off_c, 0, 44, 64
1, 22158, Note_off_c, 0, 37, 64
1, 22168, Note_off_c, 2, 56, 64
1, 22170, Note_off_c, 3, 68, 64
1, 22175, Note_on_c, 1, 46, 101
1, 22175, Note_on_c, 0, 46, 82
1, 22175, Note_on_c, 0, 37, 91
1, 22176, Lyric_t, "for "
1, 22176, Note_on_c, 3, 65, 100
1, 22176, Note_on_c, 9, 40, 114
1, 22176, Note_on_c, 2, 58, 111
1, 22177, Note_off_c, 9, 40, 64
1, 22177, Note_on_c, 9, 46, 82
1, 22178, Note_off_c, 9, 46, 64
1, 22220, Note_off_c, 0, 37, 64
1, 22220, Note_off_c, 0, 46, 64
1, 22224, Note_off_c, 2, 58, 64
1, 22228, Note_off_c, 1, 46, 64
1, 22233, Note_off_c, 3, 65, 64
1, 22238, Note_on_c, 6, 44, 97
1, 22239, Note_on_c, 0, 37, 99
1, 22239, Note_on_c, 0, 46, 72
1, 22239, Note_on_c, 2, 56, 107
1, 22240, Note_on_c, 9, 46, 77
1, 22240, Note_on_c, 1, 46, 107
1, 22241, Note_off_c, 9, 46, 64
1, 22243, Note_on_c, 3, 63, 97
1, 22255, Note_off_c, 0, 46, 64
1, 22255, Note_off_c, 0, 37, 64
1, 22258, Note_off_c, 3, 63, 64
1, 22260, Note_off_c, 1, 46, 64
1, 22262, Note_off_c, 2, 56, 64
1, 22267, Note_off_c, 6, 44, 64
1, 22271, Note_on_c, 0, 44, 83
1, 22272, Note_on_c, 9, 46, 97
1, 22272, Note_on_c, 9, 36, 102
1, 22272, Note_on_c, 0, 37, 88
1, 22272, Note_on_c, 2, 49, 119
1, 22273, Note_on_c, 6, 37, 89
1, 22273, Note_off_c, 9, 36, 64
1, 22273, Note_off_c, 9, 46, 64
1, 22273, Note_on_c, 1, 47, 98
1, 22304, Note_off_c, 2, 49, 64
1, 22312, Note_off_c, 0, 37, 64
1, 22314, Note_off_c, 0, 44, 64
1, 22325, Note_off_c, 1, 47, 64
1, 22331, Lyric_t, "your "
1, 22331, Note_on_c, 3, 68, 100
1, 22335, Note_on_c, 0, 44, 78
1, 22335, Note_on_c, 0, 37, 94
1, 22336, Note_on_c, 4, 56, 58
1, 22336, Note_on_c, 4, 59, 58
1, 22336, Note_on_c, 4, 53, 58
1, 22336, Note_on_c, 1, 47, 107
1, 22337, Note_on_c, 2, 49, 108
1, 22349, Note_off_c, 0, 37, 64
1, 22349, Note_off_c, 0, 44, 64
1, 22355, Note_off_c, 2, 49, 64
1, 22356, Note_off_c, 1, 47, 64
1, 22357, Note_off_c, 6, 37, 64
1, 22367, Note_on_c, 0, 37, 95
1, 22367, Note_on_c, 0, 46, 84
1, 22368, Note_on_c, 9, 40, 110
1, 22369, Note_off_c, 9, 40, 64
1, 22369, Note_on_c, 9, 46, 78
1, 22369, Note_on_c, 1, 46, 97
1, 22369, Note_on_c, 2, 58, 116
1, 22370, Note_off_c, 9, 46, 64
1, 22388, Note_off_c, 3, 68, 64
1, 22402, Note_off_c, 2, 58, 64
1, 22410, Note_off_c, 0, 46, 64
1, 22410, Note_off_c, 0, 37, 64
1, 22426, Lyric_t, "charms. "
1, 22426, Lyric_t, "\015"
1, 22426, Note_on_c, 3, 71, 102
1, 22431, Note_off_c, 4, 59, 64
1, 22431, Note_off_c, 4, 56, 64
1, 22431, Note_on_c, 9, 46, 63
1, 22431, Note_on_c, 0, 46, 77
1, 22431, Note_on_c, 0, 37, 91
1, 22431, Note_on_c, 2, 58, 104
1, 22432, Note_off_c, 4, 53, 64
1, 22432, Note_on_c, 4, 59, 58
1, 22432, Note_on_c, 4, 56, 58
1, 22432, Note_on_c, 4, 63, 58
1, 22432, Note_off_c, 9, 46, 64
1, 22443, Note_off_c, 1, 46, 64
1, 22447, Note_off_c, 0, 46, 64
1, 22449, Note_off_c, 0, 37, 64
1, 22458, Note_off_c, 2, 58, 64
1, 22463, Note_on_c, 9, 46, 99
1, 22463, Note_on_c, 0, 44, 87
1, 22464, Note_off_c, 9, 46, 64
1, 22464, Note_on_c, 9, 36, 102
1, 22464, Note_on_c, 0, 37, 95
1, 22465, Note_off_c, 9, 36, 64
1, 22465, Note_on_c, 1, 44, 99
1, 22465, Note_on_c, 2, 56, 112
1, 22485, Note_off_c, 3, 71, 64
1, 22501, Note_off_c, 2, 56, 64
1, 22509, Note_off_c, 0, 37, 64
1, 22509, Note_off_c, 0, 44, 64
1, 22526, Note_off_c, 4, 63, 64
1, 22526, Note_off_c, 4, 56, 64
1, 22526, Note_off_c, 4, 59, 64
1, 22527, Note_on_c, 0, 44, 83
1, 22527, Note_on_c, 2, 56, 102
1, 22529, Note_on_c, 0, 37, 94
1, 22541, Note_off_c, 0, 37, 64
1, 22543, Note_off_c, 1, 44, 64
1, 22545, Note_off_c, 0, 44, 64
1, 22552, Note_off_c, 2, 56, 64
1, 22559, Note_on_c, 0, 46, 89
1, 22560, Note_on_c, 9, 40, 114
1, 22560, Note_on_c, 1, 41, 95
1, 22560, Note_on_c, 2, 58, 111
1, 22561, Note_off_c, 9, 40, 64
1, 22561, Note_on_c, 9, 46, 82
1, 22561, Note_on_c, 0, 37, 97
1, 22562, Note_off_c, 9, 46, 64
1, 22590, Note_off_c, 0, 37, 64
1, 22593, Note_off_c, 0, 46, 64
1, 22608, Note_off_c, 2, 58, 64
1, 22622, Lyric_t, "Take "
1, 22622, Note_on_c, 3, 71, 103
1, 22622, Note_on_c, 0, 37, 71
1, 22623, Note_on_c, 0, 46, 70
1, 22623, Note_on_c, 2, 56, 107
1, 22624, Note_on_c, 9, 36, 72
1, 22625, Note_off_c, 9, 36, 64
1, 22625, Note_on_c, 9, 46, 84
1, 22626, Note_off_c, 9, 46, 64
1, 22630, Note_off_c, 1, 41, 64
1, 22636, Note_off_c, 0, 46, 64
1, 22636, Note_off_c, 0, 37, 64
1, 22646, Note_off_c, 2, 56, 64
1, 22655, Note_on_c, 0, 51, 77
1, 22656, Note_on_c, 9, 46, 93
1, 22656, Note_on_c, 9, 36, 102
1, 22656, Note_on_c, 0, 44, 66
1, 22657, Note_off_c, 9, 36, 64
1, 22657, Note_off_c, 9, 46, 64
1, 22657, Note_on_c, 1, 44, 113
1, 22657, Note_on_c, 2, 44, 123
1, 22684, Note_off_c, 2, 44, 64
1, 22689, Note_off_c, 0, 44, 64
1, 22692, Note_off_c, 0, 51, 64
1, 22710, Note_off_c, 3, 71, 64
1, 22710, Note_off_c, 1, 44, 64
1, 22719, Note_on_c, 0, 51, 78
1, 22719, Note_on_c, 0, 44, 89
1, 22720, Note_on_c, 1, 44, 95
1, 22721, Note_on_c, 2, 44, 104
1, 22722, Lyric_t, "me "
1, 22722, Note_on_c, 3, 72, 103
1, 22734, Note_off_c, 0, 51, 64
1, 22735, Note_off_c, 0, 44, 64
1, 22743, Note_off_c, 2, 44, 64
1, 22744, Note_off_c, 1, 44, 64
1, 22749, Note_off_c, 3, 72, 64
1, 22751, Note_on_c, 0, 53, 93
1, 22751, Note_on_c, 0, 44, 94
1, 22752, Note_on_c, 9, 40, 110
1, 22753, Note_off_c, 9, 40, 64
1, 22753, Note_on_c, 9, 46, 85
1, 22753, Note_on_c, 1, 46, 100
1, 22753, Note_on_c, 2, 53, 110
1, 22754, Note_off_c, 9, 46, 64
1, 22758, Lyric_t, "back, "
1, 22758, Note_on_c, 3, 71, 92
1, 22788, Note_off_c, 2, 53, 64
1, 22797, Note_off_c, 0, 44, 64
1, 22801, Note_off_c, 3, 71, 64
1, 22803, Note_off_c, 0, 53, 64
1, 22812, Lyric_t, "my "
1, 22812, Note_on_c, 3, 72, 104
1, 22815, Note_on_c, 2, 53, 102
1, 22817, Note_on_c, 9, 46, 77
1, 22817, Note_on_c, 0, 53, 86
1, 22817, Note_on_c, 0, 44, 83
1, 22818, Note_off_c, 9, 46, 64
1, 22830, Note_off_c, 1, 46, 64
1, 22833, Note_off_c, 0, 44, 64
1, 22833, Note_off_c, 0, 53, 64
1, 22836, Note_off_c, 3, 72, 64
1, 22843, Note_off_c, 2, 53, 64
1, 22845, Lyric_t, "ba"
1, 22845, Note_on_c, 3, 68, 96
1, 22848, Note_on_c, 9, 36, 102
1, 22848, Note_on_c, 1, 47, 107
1, 22849, Note_off_c, 9, 36, 64
1, 22849, Note_on_c, 9, 46, 97
1, 22849, Note_on_c, 0, 51, 92
1, 22849, Note_on_c, 0, 44, 83
1, 22849, Note_on_c, 2, 51, 118
1, 22850, Note_off_c, 9, 46, 64
1, 22881, Note_off_c, 2, 51, 64
1, 22888, Note_off_c, 0, 44, 64
1, 22894, Note_off_c, 0, 51, 64
1, 22911, Note_on_c, 2, 51, 102
1, 22913, Note_on_c, 0, 44, 88
1, 22913, Note_on_c, 0, 51, 84
1, 22925, Note_off_c, 0, 51, 64
1, 22928, Note_off_c, 1, 47, 64
1, 22930, Note_off_c, 0, 44, 64
1, 22934, Note_off_c, 2, 51, 64
1, 22936, Note_off_c, 3, 68, 64
1, 22943, Lyric_t, "by, "
1, 22943, Note_on_c, 3, 65, 98
1, 22943, Note_on_c, 0, 53, 100
1, 22943, Note_on_c, 2, 53, 118
1, 22944, Note_on_c, 9, 40, 114
1, 22944, Note_on_c, 1, 46, 107
1, 22945, Note_off_c, 9, 40, 64
1, 22945, Note_on_c, 0, 44, 84
1, 22986, Note_off_c, 2, 53, 64
1, 22987, Note_off_c, 0, 44, 64
1, 22991, Note_off_c, 0, 53, 64
1, 22993, Note_off_c, 3, 65, 64
1, 23006, Note_on_c, 3, 63, 97
1, 23007, Note_on_c, 0, 53, 82
1, 23008, Note_on_c, 9, 46, 89
1, 23008, Note_on_c, 9, 36, 77
1, 23008, Note_on_c, 2, 51, 107
1, 23009, Note_on_c, 6, 39, 101
1, 23009, Note_off_c, 9, 36, 64
1, 23009, Note_off_c, 9, 46, 64
1, 23009, Note_on_c, 0, 44, 84
1, 23022, Note_off_c, 1, 46, 64
1, 23023, Note_off_c, 0, 44, 64
1, 23024, Note_off_c, 0, 53, 64
1, 23028, Note_off_c, 2, 51, 64
1, 23032, Note_off_c, 6, 39, 64
1, 23033, Note_off_c, 3, 63, 64
1, 23040, Note_on_c, 9, 46, 97
1, 23040, Note_on_c, 9, 36, 102
1, 23040, Note_on_c, 0, 51, 77
1, 23041, Note_off_c, 9, 36, 64
1, 23041, Note_off_c, 9, 46, 64
1, 23041, Note_on_c, 1, 44, 116
1, 23041, Note_on_c, 0, 44, 85
1, 23041, Note_on_c, 2, 44, 123
1, 23043, Note_on_c, 6, 32, 72
1, 23068, Note_off_c, 2, 44, 64
1, 23084, Note_off_c, 0, 44, 64
1, 23087, Note_off_c, 0, 51, 64
1, 23104, Note_on_c, 4, 56, 58
1, 23104, Note_on_c, 4, 60, 58
1, 23104, Note_on_c, 4, 53, 58
1, 23105, Note_on_c, 0, 51, 82
1, 23105, Note_on_c, 0, 44, 89
1, 23105, Note_on_c, 2, 44, 104
1, 23107, Lyric_t, "in "
1, 23107, Note_on_c, 3, 68, 103
1, 23117, Note_off_c, 0, 44, 64
1, 23118, Note_off_c, 1, 44, 64
1, 23121, Note_off_c, 0, 51, 64
1, 23127, Note_off_c, 2, 44, 64
1, 23129, Note_off_c, 6, 32, 64
1, 23136, Note_on_c, 9, 40, 110
1, 23136, Note_on_c, 9, 46, 85
1, 23137, Note_off_c, 9, 46, 64
1, 23137, Note_off_c, 9, 40, 64
1, 23137, Note_on_c, 1, 41, 107
1, 23137, Note_on_c, 0, 53, 90
1, 23137, Note_on_c, 0, 44, 81
1, 23137, Note_on_c, 2, 53, 110
1, 23140, Note_off_c, 3, 68, 64
1, 23144, Lyric_t, "your "
1, 23144, Note_on_c, 3, 68, 101
1, 23172, Note_off_c, 2, 53, 64
1, 23179, Note_off_c, 0, 44, 64
1, 23182, Note_off_c, 0, 53, 64
1, 23186, Note_off_c, 3, 68, 64
1, 23199, Note_off_c, 4, 60, 64
1, 23199, Note_off_c, 4, 56, 64
1, 23199, Note_on_c, 2, 53, 102
1, 23200, Note_off_c, 4, 53, 64
1, 23200, Note_on_c, 4, 63, 58
1, 23200, Note_on_c, 4, 60, 58
1, 23200, Note_on_c, 4, 56, 58
1, 23201, Note_on_c, 0, 44, 84
1, 23201, Note_on_c, 0, 53, 87
1, 23203, Lyric_t, "arms. "
1, 23203, Lyric_t, "\015"
1, 23203, Note_on_c, 3, 72, 101
1, 23213, Note_off_c, 1, 41, 64
1, 23216, Note_off_c, 0, 53, 64
1, 23216, Note_off_c, 0, 44, 64
1, 23227, Note_off_c, 2, 53, 64
1, 23231, Note_on_c, 9, 46, 99
1, 23232, Note_off_c, 9, 46, 64
1, 23232, Note_on_c, 9, 36, 102
1, 23233, Note_off_c, 9, 36, 64
1, 23233, Note_on_c, 1, 44, 113
1, 23233, Note_on_c, 0, 51, 95
1, 23233, Note_on_c, 0, 44, 87
1, 23233, Note_on_c, 2, 51, 118
1, 23247, Note_off_c, 3, 72, 64
1, 23265, Note_off_c, 2, 51, 64
1, 23274, Note_off_c, 0, 44, 64
1, 23276, Note_off_c, 0, 51, 64
1, 23278, Lyric_t, "\012"
1, 23295, Note_on_c, 0, 51, 81
1, 23295, Note_on_c, 0, 44, 84
1, 23295, Note_on_c, 2, 51, 102
1, 23307, Note_off_c, 1, 44, 64
1, 23310, Note_off_c, 0, 44, 64
1, 23314, Note_off_c, 0, 51, 64
1, 23318, Note_off_c, 2, 51, 64
1, 23327, Note_on_c, 2, 53, 118
1, 23328, Note_off_c, 4, 56, 64
1, 23328, Note_off_c, 4, 60, 64
1, 23328, Note_off_c, 4, 63, 64
1, 23328, Note_on_c, 9, 40, 114
1, 23328, Note_on_c, 0, 53, 100
1, 23329, Note_off_c, 9, 40, 64
1, 23329, Note_on_c, 1, 46, 108
1, 23329, Note_on_c, 0, 44, 91
1, 23357, Note_off_c, 0, 44, 64
1, 23357, Note_off_c, 0, 53, 64
1, 23370, Note_off_c, 2, 53, 64
1, 23391, Note_on_c, 0, 44, 81
1, 23392, Note_on_c, 9, 46, 77
1, 23392, Note_on_c, 9, 36, 77
1, 23392, Note_on_c, 2, 51, 107
1, 23393, Note_off_c, 9, 36, 64
1, 23393, Note_off_c, 9, 46, 64
1, 23398, Note_off_c, 0, 44, 64
1, 23409, Note_off_c, 1, 46, 64
1, 23412, Note_off_c, 2, 51, 64
1, 23423, Note_on_c, 0, 46, 68
1, 23423, Note_on_c, 0, 39, 95
1, 23424, Note_on_c, 5, 70, 82
1, 23424, Note_on_c, 5, 67, 87
1, 23424, Note_on_c, 5, 63, 67
1, 23424, Note_on_c, 5, 61, 73
1, 23424, Note_on_c, 9, 46, 80
1, 23424, Note_on_c, 9, 36, 102
1, 23424, Note_on_c, 1, 39, 113
1, 23425, Note_off_c, 9, 36, 64
1, 23425, Note_off_c, 9, 46, 64
1, 23425, Note_on_c, 2, 51, 120
1, 23426, Lyric_t, "Like "
1, 23426, Note_on_c, 3, 70, 91
1, 23455, Note_off_c, 2, 51, 64
1, 23464, Note_off_c, 0, 39, 64
1, 23466, Note_off_c, 0, 46, 64
1, 23473, Note_off_c, 3, 70, 64
1, 23476, Note_off_c, 1, 39, 64
1, 23487, Note_on_c, 0, 39, 101
1, 23487, Note_on_c, 2, 51, 109
1, 23488, Note_on_c, 1, 39, 95
1, 23489, Lyric_t, "to "
1, 23489, Note_on_c, 3, 70, 100
1, 23489, Note_on_c, 0, 46, 78
1, 23498, Note_off_c, 0, 46, 64
1, 23506, Note_off_c, 0, 39, 64
1, 23510, Note_off_c, 2, 51, 64
1, 23512, Note_off_c, 1, 39, 64
1, 23518, Note_off_c, 3, 70, 64
1, 23519, Note_on_c, 1, 43, 112
1, 23519, Note_on_c, 0, 48, 87
1, 23520, Note_on_c, 9, 40, 110
1, 23520, Note_on_c, 0, 39, 99
1, 23521, Note_off_c, 9, 40, 64
1, 23521, Note_on_c, 9, 46, 114
1, 23521, Note_on_c, 2, 60, 109
1, 23522, Note_off_c, 9, 46, 64
1, 23523, Lyric_t, "hear "
1, 23523, Note_on_c, 3, 70, 92
1, 23560, Note_off_c, 0, 39, 64
1, 23560, Note_off_c, 2, 60, 64
1, 23561, Note_off_c, 0, 48, 64
1, 23579, Note_off_c, 3, 70, 64
1, 23583, Note_on_c, 0, 39, 91
1, 23583, Note_on_c, 2, 60, 104
1, 23585, Note_on_c, 0, 48, 84
1, 23588, Lyric_t, "you "
1, 23588, Note_on_c, 3, 70, 103
1, 23597, Note_off_c, 1, 43, 64
1, 23603, Note_off_c, 0, 48, 64
1, 23605, Note_off_c, 0, 39, 64
1, 23608, Note_off_c, 3, 70, 64
1, 23608, Note_off_c, 2, 60, 64
1, 23615, Note_on_c, 1, 46, 107
1, 23615, Note_on_c, 0, 46, 95
1, 23616, Note_on_c, 9, 36, 102
1, 23617, Note_off_c, 9, 36, 64
1, 23617, Note_on_c, 9, 46, 80
1, 23617, Note_on_c, 0, 39, 101
1, 23617, Note_on_c, 2, 58, 111
1, 23618, Note_off_c, 9, 46, 64
1, 23620, Lyric_t, "sigh"
1, 23620, Note_on_c, 3, 70, 91
1, 23651, Note_off_c, 2, 58, 64
1, 23659, Note_off_c, 0, 39, 64
1, 23659, Note_off_c, 0, 46, 64
1, 23666, Note_off_c, 1, 46, 64
1, 23667, Note_off_c, 3, 70, 64
1, 23677, Lyric_t, "in', "
1, 23677, Lyric_t, "\015"
1, 23677, Note_on_c, 3, 70, 102
1, 23679, Note_on_c, 0, 46, 85
1, 23679, Note_on_c, 0, 39, 103
1, 23679, Note_on_c, 2, 58, 91
1, 23680, Note_on_c, 1, 46, 95
1, 23696, Note_off_c, 0, 46, 64
1, 23699, Note_off_c, 0, 39, 64
1, 23700, Note_off_c, 3, 70, 64
1, 23701, Note_off_c, 2, 58, 64
1, 23704, Note_off_c, 1, 46, 64
1, 23711, Note_on_c, 1, 48, 109
1, 23711, Note_on_c, 0, 48, 94
1, 23712, Note_on_c, 9, 40, 114
1, 23712, Note_on_c, 9, 46, 114
1, 23713, Note_off_c, 9, 46, 64
1, 23713, Note_off_c, 9, 40, 64
1, 23713, Note_on_c, 0, 39, 101
1, 23713, Note_on_c, 2, 60, 111
1, 23715, Lyric_t, "e"
1, 23715, Note_on_c, 3, 70, 95
1, 23750, Note_off_c, 0, 39, 64
1, 23754, Note_off_c, 0, 48, 64
1, 23759, Note_off_c, 2, 60, 64
1, 23763, Note_off_c, 3, 70, 64
1, 23772, Lyric_t, "ven "
1, 23772, Note_on_c, 3, 70, 101
1, 23775, Note_on_c, 0, 39, 89
1, 23775, Note_on_c, 0, 48, 83
1, 23776, Note_on_c, 9, 46, 77
1, 23776, Note_on_c, 9, 36, 77
1, 23776, Note_on_c, 2, 58, 94
1, 23777, Note_off_c, 9, 36, 64
1, 23777, Note_off_c, 9, 46, 64
1, 23788, Note_off_c, 0, 48, 64
1, 23790, Note_off_c, 0, 39, 64
1, 23791, Note_off_c, 1, 48, 64
1, 23798, Note_off_c, 3, 70, 64
1, 23802, Note_off_c, 2, 58, 64
1, 23807, Note_off_c, 5, 61, 64
1, 23807, Note_off_c, 5, 70, 64
1, 23807, Note_off_c, 5, 67, 64
1, 23807, Note_on_c, 0, 44, 69
1, 23807, Note_on_c, 0, 37, 97
1, 23808, Note_off_c, 5, 63, 64
1, 23808, Note_on_c, 5, 61, 68
1, 23808, Note_on_c, 5, 65, 77
1, 23808, Note_on_c, 5, 68, 84
1, 23808, Note_on_c, 5, 59, 65
1, 23808, Note_on_c, 9, 46, 97
1, 23808, Note_on_c, 9, 36, 102
1, 23809, Note_off_c, 9, 36, 64
1, 23809, Note_off_c, 9, 46, 64
1, 23809, Note_on_c, 1, 37, 116
1, 23809, Note_on_c, 2, 49, 119
1, 23811, Lyric_t, "though "
1, 23811, Note_on_c, 3, 68, 85
1, 23841, Note_off_c, 2, 49, 64
1, 23847, Note_off_c, 0, 37, 64
1, 23848, Note_off_c, 0, 44, 64
1, 23857, Note_off_c, 3, 68, 64
1, 23859, Note_off_c, 1, 37, 64
1, 23868, Lyric_t, "I "
1, 23868, Note_on_c, 3, 68, 98
1, 23871, Note_on_c, 0, 37, 95
1, 23871, Note_on_c, 0, 44, 83
1, 23872, Note_on_c, 1, 37, 112
1, 23873, Note_on_c, 2, 49, 108
1, 23882, Note_off_c, 0, 44, 64
1, 23891, Note_off_c, 1, 37, 64
1, 23891, Note_off_c, 2, 49, 64
1, 23893, Note_off_c, 3, 68, 64
1, 23893, Note_off_c, 0, 37, 64
1, 23903, Note_on_c, 0, 46, 88
1, 23903, Note_on_c, 0, 37, 81
1, 23904, Note_on_c, 9, 40, 110
1, 23904, Note_on_c, 1, 41, 111
1, 23905, Note_off_c, 9, 40, 64
1, 23905, Note_on_c, 9, 46, 78
1, 23905, Note_on_c, 2, 58, 116
1, 23906, Note_off_c, 9, 46, 64
1, 23907, Lyric_t, "know "
1, 23907, Note_on_c, 3, 68, 92
1, 23938, Note_off_c, 2, 58, 64
1, 23942, Note_off_c, 0, 37, 64
1, 23947, Note_off_c, 0, 46, 64
1, 23955, Note_off_c, 3, 68, 64
1, 23965, Lyric_t, "you're "
1, 23965, Note_on_c, 3, 68, 101
1, 23967, Note_on_c, 9, 46, 63
1, 23967, Note_on_c, 0, 46, 73
1, 23967, Note_on_c, 0, 37, 105
1, 23967, Note_on_c, 2, 58, 104
1, 23968, Note_off_c, 9, 46, 64
1, 23976, Note_off_c, 1, 41, 64
1, 23985, Note_off_c, 0, 46, 64
1, 23987, Note_off_c, 0, 37, 64
1, 23990, Note_off_c, 3, 68, 64
1, 23994, Note_off_c, 2, 58, 64
1, 23999, Note_on_c, 9, 46, 99
1, 23999, Note_on_c, 1, 44, 111
1, 23999, Note_on_c, 0, 44, 111
1, 24000, Note_off_c, 9, 46, 64
1, 24000, Note_on_c, 9, 36, 102
1, 24001, Note_off_c, 9, 36, 64
1, 24001, Note_on_c, 0, 37, 97
1, 24001, Note_on_c, 2, 56, 112
1, 24004, Lyric_t, "ly"
1, 24004, Note_on_c, 3, 68, 93
1, 24037, Note_off_c, 2, 56, 64
1, 24044, Note_off_c, 1, 44, 64
1, 24045, Note_off_c, 0, 37, 64
1, 24048, Note_off_c, 0, 44, 64
1, 24049, Note_off_c, 3, 68, 64
1, 24061, Lyric_t, "in', "
1, 24061, Lyric_t, "\015"
1, 24061, Note_on_c, 3, 68, 101
1, 24063, Note_on_c, 2, 56, 102
1, 24064, Note_on_c, 9, 40, 99
1, 24064, Note_on_c, 1, 44, 95
1, 24065, Note_off_c, 9, 40, 64
1, 24065, Note_on_c, 0, 44, 80
1, 24065, Note_on_c, 0, 37, 103
1, 24081, Note_off_c, 0, 44, 64
1, 24085, Note_off_c, 0, 37, 64
1, 24088, Note_off_c, 1, 44, 64
1, 24088, Note_off_c, 2, 56, 64
1, 24092, Note_off_c, 3, 68, 64
1, 24095, Note_on_c, 1, 46, 106
1, 24096, Note_on_c, 9, 40, 114
1, 24096, Note_on_c, 0, 46, 103
1, 24096, Note_on_c, 0, 37, 84
1, 24096, Note_on_c, 2, 58, 111
1, 24097, Note_off_c, 9, 40, 64
1, 24103, Lyric_t, "'cause "
1, 24103, Note_on_c, 3, 65, 89
1, 24130, Note_off_c, 0, 37, 64
1, 24133, Note_off_c, 0, 46, 64
1, 24144, Note_off_c, 2, 58, 64
1, 24151, Note_off_c, 3, 65, 64
1, 24159, Lyric_t, "I "
1, 24159, Note_on_c, 3, 63, 92
1, 24159, Note_on_c, 0, 37, 91
1, 24159, Note_on_c, 0, 46, 77
1, 24159, Note_on_c, 2, 56, 107
1, 24160, Note_on_c, 9, 36, 77
1, 24161, Note_off_c, 9, 36, 64
1, 24161, Note_on_c, 9, 46, 84
1, 24162, Note_off_c, 9, 46, 64
1, 24169, Note_off_c, 0, 37, 64
1, 24171, Note_off_c, 0, 46, 64
1, 24179, Note_off_c, 1, 46, 64
1, 24181, Note_off_c, 3, 63, 64
1, 24182, Note_off_c, 2, 56, 64
1, 24191, Note_off_c, 5, 59, 64
1, 24191, Note_off_c, 5, 61, 64
1, 24191, Note_off_c, 5, 65, 64
1, 24191, Note_off_c, 5, 68, 64
1, 24191, Note_on_c, 0, 51, 97
1, 24191, Note_on_c, 0, 44, 88
1, 24192, Lyric_t, "love "
1, 24192, Note_on_c, 3, 68, 98
1, 24192, Note_on_c, 5, 63, 44
1, 24192, Note_on_c, 5, 60, 71
1, 24192, Note_on_c, 5, 65, 71
1, 24192, Note_on_c, 5, 68, 89
1, 24192, Note_on_c, 9, 46, 93
1, 24192, Note_on_c, 9, 36, 102
1, 24193, Note_off_c, 9, 36, 64
1, 24193, Note_off_c, 9, 46, 64
1, 24193, Note_on_c, 1, 44, 110
1, 24193, Note_on_c, 2, 44, 123
1, 24220, Note_off_c, 2, 44, 64
1, 24233, Note_off_c, 0, 44, 64
1, 24239, Note_off_c, 0, 51, 64
1, 24255, Note_on_c, 0, 44, 88
1, 24255, Note_on_c, 0, 51, 81
1, 24257, Note_on_c, 2, 44, 104
1, 24269, Note_off_c, 0, 51, 64
1, 24272, Note_off_c, 0, 44, 64
1, 24273, Note_off_c, 1, 44, 64
1, 24279, Note_off_c, 2, 44, 64
1, 24285, Note_off_c, 3, 68, 64
1, 24286, Note_on_c, 0, 53, 89
1, 24288, Note_on_c, 9, 40, 110
1, 24289, Note_off_c, 9, 40, 64
1, 24289, Note_on_c, 9, 46, 85
1, 24289, Note_on_c, 1, 41, 102
1, 24289, Note_on_c, 0, 44, 95
1, 24289, Note_on_c, 2, 53, 110
1, 24290, Note_off_c, 9, 46, 64
1, 24292, Lyric_t, "you "
1, 24292, Note_on_c, 3, 65, 101
1, 24324, Note_off_c, 2, 53, 64
1, 24332, Note_off_c, 0, 44, 64
1, 24341, Note_off_c, 0, 53, 64
1, 24345, Note_off_c, 3, 65, 64
1, 24351, Note_on_c, 3, 63, 92
1, 24351, Note_on_c, 0, 44, 83
1, 24351, Note_on_c, 0, 53, 83
1, 24351, Note_on_c, 2, 53, 102
1, 24353, Note_on_c, 9, 46, 77
1, 24354, Note_off_c, 9, 46, 64
1, 24368, Note_off_c, 0, 53, 64
1, 24370, Note_off_c, 1, 41, 64
1, 24375, Note_off_c, 0, 44, 64
1, 24379, Note_off_c, 2, 53, 64
1, 24383, Note_on_c, 0, 51, 97
1, 24384, Note_on_c, 9, 36, 102
1, 24384, Note_on_c, 1, 39, 99
1, 24385, Note_off_c, 9, 36, 64
1, 24385, Note_on_c, 9, 46, 97
1, 24385, Note_on_c, 0, 44, 81
1, 24385, Note_on_c, 2, 51, 118
1, 24386, Note_off_c, 9, 46, 64
1, 24390, Note_off_c, 3, 63, 64
1, 24417, Note_off_c, 2, 51, 64
1, 24423, Note_off_c, 0, 44, 64
1, 24427, Note_off_c, 0, 51, 64
1, 24447, Note_on_c, 0, 51, 87
1, 24447, Note_on_c, 0, 44, 89
1, 24447, Note_on_c, 2, 51, 102
1, 24448, Note_on_c, 9, 40, 99
1, 24449, Note_off_c, 9, 40, 64
1, 24456, Note_off_c, 1, 39, 64
1, 24463, Note_off_c, 0, 44, 64
1, 24463, Note_off_c, 0, 51, 64
1, 24470, Note_off_c, 2, 51, 64
1, 24479, Note_on_c, 1, 41, 106
1, 24479, Note_on_c, 0, 53, 95
1, 24479, Note_on_c, 0, 44, 78
1, 24479, Note_on_c, 2, 53, 118
1, 24480, Note_on_c, 9, 40, 114
1, 24481, Note_on_c, 4, 56, 99
1, 24481, Note_off_c, 9, 40, 64
1, 24482, Lyric_t, "too "
1, 24482, Note_on_c, 3, 68, 103
1, 24509, Note_off_c, 0, 53, 64
1, 24512, Note_off_c, 0, 44, 64
1, 24522, Note_off_c, 2, 53, 64
1, 24534, Note_off_c, 3, 68, 64
1, 24543, Note_on_c, 0, 44, 92
1, 24543, Note_on_c, 0, 53, 85
1, 24544, Note_on_c, 2, 51, 107
1, 24557, Note_off_c, 1, 41, 64
1, 24561, Note_off_c, 0, 53, 64
1, 24564, Note_off_c, 2, 51, 64
1, 24568, Note_off_c, 0, 44, 64
1, 24574, Lyric_t, "much. "
1, 24574, Lyric_t, "\015"
1, 24574, Note_on_c, 3, 68, 104
1, 24575, Note_on_c, 0, 51, 89
1, 24575, Note_on_c, 2, 44, 123
1, 24576, Note_off_c, 5, 68, 64
1, 24576, Note_off_c, 5, 63, 64
1, 24576, Note_off_c, 5, 60, 64
1, 24576, Note_off_c, 5, 65, 64
1, 24576, Note_on_c, 9, 40, 110
1, 24576, Note_on_c, 9, 49, 79
1, 24576, Note_on_c, 9, 36, 102
1, 24576, Note_on_c, 1, 44, 112
1, 24577, Note_off_c, 4, 56, 64
1, 24577, Note_off_c, 9, 36, 64
1, 24577, Note_off_c, 9, 49, 64
1, 24577, Note_off_c, 9, 40, 64
1, 24577, Note_on_c, 0, 44, 83
1, 24578, Note_on_c, 4, 56, 94
1, 24613, Note_off_c, 0, 44, 64
1, 24617, Note_off_c, 0, 51, 64
1, 24628, Note_off_c, 2, 44, 64
1, 24632, Note_off_c, 1, 44, 64
1, 24642, Note_on_c, 9, 40, 55
1, 24643, Note_off_c, 9, 40, 64
1, 24645, Note_off_c, 3, 68, 64
1, 24653, Note_on_c, 9, 40, 67
1, 24654, Note_off_c, 9, 40, 64
1, 24660, Lyric_t, "\012"
1, 24671, Note_off_c, 4, 56, 64
1, 24672, Note_on_c, 4, 56, 70
1, 24672, Note_on_c, 4, 51, 70
1, 24672, Note_on_c, 4, 60, 75
1, 24672, Note_on_c, 4, 53, 61
1, 24672, Note_on_c, 5, 63, 75
1, 24672, Note_on_c, 5, 68, 75
1, 24672, Note_on_c, 5, 72, 80
1, 24672, Note_on_c, 5, 65, 66
1, 24672, Note_on_c, 6, 32, 96
1, 24672, Note_on_c, 9, 40, 88
1, 24673, Note_off_c, 9, 40, 64
1, 24676, Note_on_c, 6, 44, 78
1, 24727, Note_off_c, 6, 44, 64
1, 24729, Note_off_c, 6, 32, 64
1, 24735, Note_off_c, 4, 53, 64
1, 24735, Note_off_c, 4, 60, 64
1, 24735, Note_off_c, 4, 56, 64
1, 24735, Note_off_c, 5, 65, 64
1, 24735, Note_off_c, 5, 72, 64
1, 24735, Note_off_c, 5, 68, 64
1, 24735, Note_on_c, 6, 44, 71
1, 24735, Note_on_c, 9, 49, 75
1, 24735, Note_on_c, 1, 44, 113
1, 24735, Note_on_c, 0, 51, 111
1, 24735, Note_on_c, 0, 44, 101
1, 24736, Note_off_c, 4, 51, 64
1, 24736, Note_on_c, 4, 60, 71
1, 24736, Note_on_c, 4, 56, 80
1, 24736, Note_on_c, 4, 63, 79
1, 24736, Note_on_c, 4, 53, 65
1, 24736, Note_off_c, 5, 63, 64
1, 24736, Note_on_c, 5, 68, 85
1, 24736, Note_on_c, 5, 72, 76
1, 24736, Note_on_c, 5, 75, 84
1, 24736, Note_on_c, 5, 65, 70
1, 24736, Note_off_c, 9, 49, 64
1, 24736, Note_on_c, 9, 40, 116
1, 24736, Note_on_c, 9, 36, 102
1, 24736, Note_on_c, 2, 44, 126
1, 24737, Note_off_c, 9, 36, 64
1, 24737, Note_off_c, 9, 40, 64
1, 24741, Note_on_c, 6, 32, 90
1, 24779, Note_off_c, 0, 44, 64
1, 24779, Note_off_c, 0, 51, 64
1, 24779, Note_off_c, 2, 44, 64
1, 24787, Note_off_c, 6, 44, 64
1, 24792, Note_off_c, 1, 44, 64
1, 24795, Note_off_c, 6, 32, 64
1, 24800, Note_off_c, 5, 65, 64
1, 24800, Note_off_c, 5, 68, 64
1, 24800, Note_off_c, 5, 72, 64
1, 24800, Note_off_c, 5, 75, 64
1, 24821, Note_off_c, 4, 53, 64
1, 24821, Note_off_c, 4, 60, 64
1, 24821, Note_off_c, 4, 56, 64
1, 24821, Note_off_c, 4, 63, 64
1, 24831, Lyric_t, "I, "
1, 24831, Note_on_c, 3, 71, 100
1, 24832, Note_on_c, 9, 40, 112
1, 24833, Note_off_c, 9, 40, 64
1, 24855, Note_off_c, 3, 71, 64
1, 24864, Note_on_c, 1, 27, 116
1, 24865, Lyric_t, "I "
1, 24865, Note_on_c, 3, 71, 97
1, 24929, Note_off_c, 3, 71, 64
1, 24929, Note_on_c, 9, 46, 84
1, 24930, Note_off_c, 9, 46, 64
1, 24942, Note_off_c, 1, 27, 64
1, 24960, Lyric_t, "need "
1, 24960, Note_on_c, 3, 71, 100
1, 24960, Note_on_c, 9, 49, 82
1, 24960, Note_on_c, 9, 36, 102
1, 24960, Note_on_c, 1, 44, 114
1, 24960, Note_on_c, 0, 51, 83
1, 24961, Note_off_c, 9, 36, 64
1, 24961, Note_off_c, 9, 49, 64
1, 24961, Note_on_c, 0, 44, 81
1, 24961, Note_on_c, 2, 44, 123
1, 24988, Note_off_c, 2, 44, 64
1, 25007, Note_off_c, 0, 44, 64
1, 25007, Note_off_c, 0, 51, 64
1, 25023, Note_on_c, 0, 51, 81
1, 25023, Note_on_c, 0, 44, 88
1, 25025, Note_on_c, 2, 44, 104
1, 25031, Note_off_c, 1, 44, 64
1, 25041, Note_off_c, 3, 71, 64
1, 25041, Note_off_c, 0, 51, 64
1, 25046, Note_off_c, 0, 44, 64
1, 25047, Note_off_c, 2, 44, 64
1, 25055, Note_on_c, 1, 41, 100
1, 25055, Note_on_c, 0, 44, 74
1, 25056, Note_on_c, 9, 40, 110
1, 25057, Note_off_c, 9, 40, 64
1, 25057, Note_on_c, 9, 46, 85
1, 25057, Note_on_c, 0, 53, 96
1, 25057, Note_on_c, 2, 53, 110
1, 25058, Note_off_c, 9, 46, 64
1, 25061, Lyric_t, "your "
1, 25061, Note_on_c, 3, 71, 100
1, 25092, Note_off_c, 2, 53, 64
1, 25096, Note_off_c, 0, 44, 64
1, 25101, Note_off_c, 0, 53, 64
1, 25119, Note_on_c, 2, 53, 102
1, 25120, Note_on_c, 9, 46, 77
1, 25120, Note_on_c, 0, 44, 91
1, 25120, Note_on_c, 0, 53, 86
1, 25121, Note_off_c, 9, 46, 64
1, 25132, Note_off_c, 1, 41, 64
1, 25135, Note_off_c, 3, 71, 64
1, 25137, Note_off_c, 0, 53, 64
1, 25141, Note_off_c, 0, 44, 64
1, 25145, Lyric_t, "lov"
1, 25145, Note_on_c, 3, 68, 101
1, 25147, Note_off_c, 2, 53, 64
1, 25152, Note_on_c, 9, 36, 102
1, 25152, Note_on_c, 1, 39, 107
1, 25152, Note_on_c, 0, 51, 83
1, 25153, Note_off_c, 9, 36, 64
1, 25153, Note_on_c, 9, 46, 97
1, 25153, Note_on_c, 0, 44, 92
1, 25153, Note_on_c, 2, 51, 118
1, 25154, Note_off_c, 9, 46, 64
1, 25185, Note_off_c, 2, 51, 64
1, 25198, Note_off_c, 0, 44, 64
1, 25201, Note_off_c, 0, 51, 64
1, 25215, Note_on_c, 0, 51, 78
1, 25215, Note_on_c, 2, 51, 102
1, 25217, Note_on_c, 0, 68, 66
1, 25217, Note_on_c, 0, 65, 71
1, 25217, Note_on_c, 0, 63, 75
1, 25217, Note_on_c, 0, 60, 87
1, 25217, Note_on_c, 0, 44, 89
1, 25227, Note_off_c, 1, 39, 64
1, 25231, Note_off_c, 0, 44, 64
1, 25234, Note_off_c, 0, 51, 64
1, 25238, Note_off_c, 2, 51, 64
1, 25239, Note_off_c, 3, 68, 64
1, 25246, Lyric_t, "in' "
1, 25246, Note_on_c, 3, 65, 98
1, 25247, Note_on_c, 1, 41, 102
1, 25247, Note_on_c, 0, 53, 97
1, 25247, Note_on_c, 0, 44, 91
1, 25247, Note_on_c, 2, 53, 118
1, 25248, Note_on_c, 9, 40, 114
1, 25249, Note_off_c, 9, 40, 64
1, 25249, Note_on_c, 9, 46, 82
1, 25250, Note_off_c, 9, 46, 64
1, 25273, Note_off_c, 0, 65, 64
1, 25276, Note_off_c, 0, 60, 64
1, 25277, Note_off_c, 0, 63, 64
1, 25281, Note_off_c, 0, 68, 64
1, 25290, Note_off_c, 0, 44, 64
1, 25290, Note_off_c, 2, 53, 64
1, 25293, Note_off_c, 0, 53, 64
1, 25300, Note_off_c, 3, 65, 64
1, 25309, Note_on_c, 3, 63, 92
1, 25311, Note_on_c, 0, 53, 88
1, 25311, Note_on_c, 0, 44, 89
1, 25312, Note_on_c, 6, 39, 113
1, 25312, Note_on_c, 9, 46, 77
1, 25312, Note_on_c, 2, 51, 107
1, 25313, Note_off_c, 9, 46, 64
1, 25324, Note_off_c, 1, 41, 64
1, 25331, Note_off_c, 0, 44, 64
1, 25331, Note_off_c, 0, 53, 64
1, 25332, Note_off_c, 2, 51, 64
1, 25339, Note_off_c, 3, 63, 64
1, 25343, Note_on_c, 1, 44, 111
1, 25343, Note_on_c, 0, 51, 91
1, 25344, Note_on_c, 9, 46, 97
1, 25344, Note_on_c, 9, 36, 102
1, 25345, Note_off_c, 9, 36, 64
1, 25345, Note_off_c, 9, 46, 64
1, 25345, Note_on_c, 0, 44, 87
1, 25345, Note_on_c, 2, 44, 123
1, 25347, Note_off_c, 6, 39, 64
1, 25347, Note_on_c, 6, 32, 70
1, 25372, Note_off_c, 2, 44, 64
1, 25382, Note_off_c, 0, 44, 64
1, 25387, Note_off_c, 0, 51, 64
1, 25396, Note_off_c, 1, 44, 64
1, 25407, Note_on_c, 0, 51, 77
1, 25407, Note_on_c, 0, 44, 88
1, 25408, Note_on_c, 4, 56, 58
1, 25408, Note_on_c, 4, 53, 58
1, 25408, Note_on_c, 4, 60, 58
1, 25408, Note_on_c, 1, 44, 111
1, 25409, Lyric_t, "all "
1, 25409, Note_on_c, 3, 68, 103
1, 25409, Note_on_c, 2, 44, 104
1, 25421, Note_off_c, 0, 44, 64
1, 25421, Note_off_c, 0, 51, 64
1, 25425, Note_off_c, 6, 32, 64
1, 25431, Note_off_c, 2, 44, 64
1, 25432, Note_off_c, 1, 44, 64
1, 25439, Note_on_c, 1, 41, 94
1, 25439, Note_on_c, 0, 53, 94
1, 25439, Note_on_c, 0, 44, 82
1, 25440, Note_off_c, 3, 68, 64
1, 25440, Note_on_c, 9, 40, 110
1, 25440, Note_on_c, 9, 46, 85
1, 25441, Note_off_c, 9, 46, 64
1, 25441, Note_off_c, 9, 40, 64
1, 25441, Note_on_c, 2, 53, 110
1, 25445, Lyric_t, "the "
1, 25445, Note_on_c, 3, 68, 99
1, 25476, Note_off_c, 2, 53, 64
1, 25482, Note_off_c, 0, 44, 64
1, 25482, Note_off_c, 0, 53, 64
1, 25486, Note_off_c, 3, 68, 64
1, 25503, Lyric_t, "time. "
1, 25503, Lyric_t, "\015"
1, 25503, Note_on_c, 3, 72, 103
1, 25503, Note_off_c, 4, 60, 64
1, 25503, Note_off_c, 4, 56, 64
1, 25503, Note_on_c, 9, 46, 63
1, 25503, Note_on_c, 0, 53, 80
1, 25503, Note_on_c, 0, 44, 85
1, 25503, Note_on_c, 2, 53, 102
1, 25504, Note_off_c, 4, 53, 64
1, 25504, Note_on_c, 4, 60, 58
1, 25504, Note_on_c, 4, 63, 58
1, 25504, Note_on_c, 4, 56, 58
1, 25504, Note_off_c, 9, 46, 64
1, 25518, Note_off_c, 1, 41, 64
1, 25519, Note_off_c, 0, 44, 64
1, 25519, Note_off_c, 0, 53, 64
1, 25531, Note_off_c, 2, 53, 64
1, 25535, Note_on_c, 9, 46, 99
1, 25535, Note_on_c, 1, 39, 107
1, 25535, Note_on_c, 0, 51, 88
1, 25536, Note_off_c, 9, 46, 64
1, 25536, Note_on_c, 9, 36, 102
1, 25536, Note_on_c, 0, 44, 84
1, 25537, Note_off_c, 9, 36, 64
1, 25537, Note_on_c, 2, 51, 118
1, 25540, Note_off_c, 3, 72, 64
1, 25569, Note_off_c, 2, 51, 64
1, 25580, Note_off_c, 0, 44, 64
1, 25582, Note_off_c, 0, 51, 64
1, 25599, Note_on_c, 0, 51, 81
1, 25599, Note_on_c, 2, 51, 102
1, 25601, Note_on_c, 0, 65, 72
1, 25601, Note_on_c, 0, 68, 84
1, 25601, Note_on_c, 0, 63, 76
1, 25601, Note_on_c, 0, 60, 86
1, 25601, Note_on_c, 0, 44, 83
1, 25614, Note_off_c, 1, 39, 64
1, 25614, Note_off_c, 0, 44, 64
1, 25616, Note_off_c, 0, 51, 64
1, 25622, Note_off_c, 2, 51, 64
1, 25631, Note_on_c, 1, 41, 100
1, 25631, Note_on_c, 0, 44, 78
1, 25631, Note_on_c, 0, 53, 101
1, 25631, Note_on_c, 2, 53, 118
1, 25632, Note_off_c, 4, 56, 64
1, 25632, Note_off_c, 4, 63, 64
1, 25632, Note_off_c, 4, 60, 64
1, 25632, Note_on_c, 9, 40, 114
1, 25633, Note_off_c, 9, 40, 64
1, 25658, Note_off_c, 0, 68, 64
1, 25663, Note_off_c, 0, 60, 64
1, 25665, Note_off_c, 0, 63, 64
1, 25666, Note_off_c, 0, 44, 64
1, 25668, Note_off_c, 0, 65, 64
1, 25669, Note_off_c, 0, 53, 64
1, 25674, Note_off_c, 2, 53, 64
1, 25683, Note_off_c, 1, 41, 64
1, 25695, Note_on_c, 0, 51, 82
1, 25695, Note_on_c, 0, 44, 97
1, 25696, Note_on_c, 9, 46, 63
1, 25696, Note_on_c, 1, 41, 111
1, 25696, Note_on_c, 2, 51, 107
1, 25697, Note_off_c, 9, 46, 64
1, 25711, Note_off_c, 0, 51, 64
1, 25716, Note_off_c, 2, 51, 64
1, 25720, Note_off_c, 1, 41, 64
1, 25721, Note_off_c, 0, 44, 64
1, 25727, Note_on_c, 1, 44, 110
1, 25727, Note_on_c, 0, 51, 103
1, 25727, Note_on_c, 0, 44, 58
1, 25728, Note_on_c, 9, 46, 93
1, 25728, Note_on_c, 9, 36, 102
1, 25729, Note_off_c, 9, 36, 64
1, 25729, Note_off_c, 9, 46, 64
1, 25729, Note_on_c, 2, 44, 123
1, 25730, Lyric_t, "Need "
1, 25730, Note_on_c, 3, 71, 97
1, 25756, Note_off_c, 2, 44, 64
1, 25774, Note_off_c, 0, 44, 64
1, 25777, Note_off_c, 0, 51, 64
1, 25779, Note_off_c, 3, 71, 64
1, 25786, Note_on_c, 3, 72, 105
1, 25791, Note_on_c, 0, 51, 80
1, 25791, Note_on_c, 0, 44, 88
1, 25793, Note_on_c, 2, 44, 104
1, 25797, Note_off_c, 1, 44, 64
1, 25806, Note_off_c, 0, 51, 64
1, 25807, Note_off_c, 0, 44, 64
1, 25815, Note_off_c, 2, 44, 64
1, 25819, Note_off_c, 3, 72, 64
1, 25823, Note_on_c, 1, 41, 98
1, 25823, Note_on_c, 0, 53, 90
1, 25823, Note_on_c, 0, 44, 81
1, 25824, Note_on_c, 9, 40, 110
1, 25825, Note_off_c, 9, 40, 64
1, 25825, Note_on_c, 9, 46, 85
1, 25825, Note_on_c, 2, 53, 110
1, 25826, Note_off_c, 9, 46, 64
1, 25834, Lyric_t, "your "
1, 25834, Note_on_c, 3, 71, 94
1, 25860, Note_off_c, 2, 53, 64
1, 25864, Note_off_c, 0, 44, 64
1, 25869, Note_off_c, 0, 53, 64
1, 25876, Note_off_c, 3, 71, 64
1, 25876, Note_off_c, 1, 41, 64
1, 25884, Note_on_c, 3, 72, 106
1, 25887, Note_on_c, 0, 53, 80
1, 25887, Note_on_c, 0, 44, 91
1, 25887, Note_on_c, 2, 53, 102
1, 25888, Note_on_c, 9, 46, 63
1, 25888, Note_on_c, 1, 41, 111
1, 25889, Note_off_c, 9, 46, 64
1, 25902, Note_off_c, 0, 53, 64
1, 25904, Note_off_c, 0, 44, 64
1, 25910, Note_off_c, 3, 72, 64
1, 25912, Note_off_c, 1, 41, 64
1, 25915, Note_off_c, 2, 53, 64
1, 25919, Note_on_c, 1, 44, 99
1, 25919, Note_on_c, 0, 51, 89
1, 25920, Note_on_c, 9, 36, 102
1, 25920, Note_on_c, 0, 44, 75
1, 25921, Note_off_c, 9, 36, 64
1, 25921, Note_on_c, 9, 46, 97
1, 25921, Note_on_c, 2, 51, 118
1, 25922, Note_off_c, 9, 46, 64
1, 25928, Lyric_t, "hug"
1, 25928, Note_on_c, 3, 68, 91
1, 25953, Note_off_c, 2, 51, 64
1, 25962, Note_off_c, 0, 44, 64
1, 25964, Note_off_c, 0, 51, 64
1, 25970, Note_off_c, 1, 44, 64
1, 25983, Note_on_c, 0, 65, 82
1, 25983, Note_on_c, 0, 68, 77
1, 25983, Note_on_c, 0, 63, 77
1, 25983, Note_on_c, 0, 60, 89
1, 25983, Note_on_c, 2, 51, 102
1, 25984, Note_on_c, 1, 44, 111
1, 25984, Note_on_c, 0, 51, 80
1, 25984, Note_on_c, 0, 44, 78
1, 25988, Note_off_c, 3, 68, 64
1, 25997, Note_off_c, 0, 44, 64
1, 25997, Note_off_c, 0, 51, 64
1, 26006, Note_off_c, 2, 51, 64
1, 26008, Note_off_c, 1, 44, 64
1, 26014, Lyric_t, "gin', "
1, 26014, Note_on_c, 3, 65, 97
1, 26015, Note_on_c, 1, 41, 97
1, 26015, Note_on_c, 0, 53, 90
1, 26015, Note_on_c, 0, 44, 85
1, 26015, Note_on_c, 2, 53, 118
1, 26016, Note_on_c, 9, 40, 114
1, 26017, Note_off_c, 9, 40, 64
1, 26017, Note_on_c, 9, 46, 82
1, 26018, Note_off_c, 9, 46, 64
1, 26037, Note_off_c, 0, 63, 64
1, 26037, Note_off_c, 0, 60, 64
1, 26039, Note_off_c, 0, 65, 64
1, 26040, Note_off_c, 0, 68, 64
1, 26053, Note_off_c, 0, 44, 64
1, 26056, Note_off_c, 0, 53, 64
1, 26058, Note_off_c, 2, 53, 64
1, 26065, Note_off_c, 3, 65, 64
1, 26076, Note_on_c, 6, 39, 101
1, 26078, Note_on_c, 3, 63, 95
1, 26079, Note_on_c, 0, 51, 79
1, 26079, Note_on_c, 0, 44, 89
1, 26080, Note_on_c, 9, 46, 63
1, 26080, Note_on_c, 2, 51, 107
1, 26081, Note_off_c, 9, 46, 64
1, 26096, Note_off_c, 1, 41, 64
1, 26096, Note_off_c, 0, 51, 64
1, 26098, Note_off_c, 0, 44, 64
1, 26100, Note_off_c, 2, 51, 64
1, 26107, Note_off_c, 6, 39, 64
1, 26109, Note_off_c, 3, 63, 64
1, 26111, Note_on_c, 1, 44, 99
1, 26111, Note_on_c, 0, 51, 68
1, 26111, Note_on_c, 0, 44, 71
1, 26112, Note_on_c, 9, 46, 97
1, 26112, Note_on_c, 9, 36, 102
1, 26113, Note_off_c, 9, 36, 64
1, 26113, Note_off_c, 9, 46, 64
1, 26113, Note_on_c, 2, 44, 123
1, 26114, Note_on_c, 6, 32, 93
1, 26140, Note_off_c, 2, 44, 64
1, 26146, Note_off_c, 0, 44, 64
1, 26153, Note_off_c, 0, 51, 64
1, 26162, Note_off_c, 1, 44, 64
1, 26175, Note_on_c, 0, 51, 88
1, 26175, Note_on_c, 0, 44, 85
1, 26176, Note_on_c, 4, 56, 58
1, 26176, Note_on_c, 4, 53, 58
1, 26176, Note_on_c, 4, 60, 58
1, 26176, Note_on_c, 1, 44, 111
1, 26177, Note_on_c, 2, 44, 104
1, 26179, Lyric_t, "please "
1, 26179, Note_on_c, 3, 68, 103
1, 26188, Note_off_c, 0, 44, 64
1, 26189, Note_off_c, 0, 51, 64
1, 26190, Note_off_c, 6, 32, 64
1, 26199, Note_off_c, 3, 68, 64
1, 26199, Note_off_c, 2, 44, 64
1, 26200, Note_off_c, 1, 44, 64
1, 26207, Lyric_t, "be "
1, 26207, Note_on_c, 3, 68, 98
1, 26207, Note_on_c, 1, 41, 93
1, 26207, Note_on_c, 0, 53, 105
1, 26207, Note_on_c, 0, 44, 92
1, 26208, Note_on_c, 9, 40, 110
1, 26209, Note_off_c, 9, 40, 64
1, 26209, Note_on_c, 2, 53, 110
1, 26244, Note_off_c, 2, 53, 64
1, 26250, Note_off_c, 0, 44, 64
1, 26254, Note_off_c, 3, 68, 64
1, 26254, Note_off_c, 0, 53, 64
1, 26271, Lyric_t, "mine. "
1, 26271, Lyric_t, "\015"
1, 26271, Note_on_c, 3, 72, 104
1, 26271, Note_off_c, 4, 60, 64
1, 26271, Note_off_c, 4, 56, 64
1, 26271, Note_on_c, 0, 53, 83
1, 26271, Note_on_c, 0, 44, 94
1, 26271, Note_on_c, 2, 53, 102
1, 26272, Note_off_c, 4, 53, 64
1, 26272, Note_on_c, 4, 60, 58
1, 26272, Note_on_c, 4, 56, 58
1, 26272, Note_on_c, 4, 63, 58
1, 26272, Note_on_c, 9, 46, 63
1, 26273, Note_off_c, 9, 46, 64
1, 26290, Note_off_c, 1, 41, 64
1, 26291, Note_off_c, 0, 44, 64
1, 26291, Note_off_c, 0, 53, 64
1, 26299, Note_off_c, 2, 53, 64
1, 26303, Note_on_c, 9, 46, 109
1, 26303, Note_on_c, 1, 44, 107
1, 26303, Note_on_c, 0, 51, 94
1, 26303, Note_on_c, 0, 44, 84
1, 26304, Note_off_c, 9, 46, 64
1, 26304, Note_on_c, 9, 36, 102
1, 26305, Note_off_c, 9, 36, 64
1, 26305, Note_on_c, 2, 51, 118
1, 26311, Note_off_c, 3, 72, 64
1, 26337, Note_off_c, 2, 51, 64
1, 26340, Note_off_c, 0, 44, 64
1, 26346, Lyric_t, "\012"
1, 26346, Note_off_c, 0, 51, 64
1, 26367, Note_on_c, 0, 65, 82
1, 26367, Note_on_c, 0, 68, 85
1, 26367, Note_on_c, 0, 63, 85
1, 26367, Note_on_c, 0, 60, 86
1, 26367, Note_on_c, 0, 44, 87
1, 26367, Note_on_c, 0, 51, 81
1, 26367, Note_on_c, 2, 51, 102
1, 26379, Note_off_c, 0, 51, 64
1, 26381, Note_off_c, 0, 44, 64
1, 26382, Note_off_c, 1, 44, 64
1, 26390, Note_off_c, 2, 51, 64
1, 26399, Note_on_c, 1, 46, 100
1, 26399, Note_on_c, 0, 53, 104
1, 26399, Note_on_c, 0, 44, 75
1, 26399, Note_on_c, 2, 53, 118
1, 26400, Note_off_c, 4, 63, 64
1, 26400, Note_off_c, 4, 56, 64
1, 26400, Note_off_c, 4, 60, 64
1, 26400, Note_on_c, 9, 40, 114
1, 26400, Note_on_c, 9, 46, 117
1, 26401, Note_off_c, 9, 46, 64
1, 26401, Note_off_c, 9, 40, 64
1, 26420, Note_off_c, 0, 65, 64
1, 26423, Note_off_c, 0, 60, 64
1, 26423, Note_off_c, 0, 68, 64
1, 26423, Note_off_c, 0, 63, 64
1, 26433, Note_off_c, 0, 53, 64
1, 26436, Note_off_c, 0, 44, 64
1, 26442, Note_off_c, 2, 53, 64
1, 26462, Note_on_c, 0, 44, 85
1, 26462, Note_on_c, 0, 53, 77
1, 26464, Note_on_c, 2, 51, 107
1, 26470, Note_off_c, 1, 46, 64
1, 26471, Note_off_c, 0, 53, 64
1, 26471, Note_off_c, 0, 44, 64
1, 26484, Note_off_c, 2, 51, 64
1, 26494, Lyric_t, "Need "
1, 26494, Note_on_c, 3, 71, 100
1, 26495, Note_on_c, 0, 37, 107
1, 26495, Note_on_c, 0, 44, 58
1, 26496, Note_on_c, 9, 46, 93
1, 26496, Note_on_c, 9, 36, 102
1, 26496, Note_on_c, 1, 37, 111
1, 26497, Note_off_c, 9, 36, 64
1, 26497, Note_off_c, 9, 46, 64
1, 26497, Note_on_c, 2, 49, 119
1, 26529, Note_off_c, 2, 49, 64
1, 26534, Note_off_c, 0, 37, 64
1, 26538, Note_off_c, 0, 44, 64
1, 26546, Note_off_c, 1, 37, 64
1, 26550, Note_off_c, 3, 71, 64
1, 26555, Note_on_c, 3, 71, 102
1, 26559, Note_on_c, 0, 37, 101
1, 26559, Note_on_c, 0, 44, 89
1, 26560, Note_on_c, 1, 37, 111
1, 26561, Note_on_c, 2, 49, 108
1, 26573, Note_off_c, 0, 44, 64
1, 26579, Note_off_c, 2, 49, 64
1, 26580, Note_off_c, 0, 37, 64
1, 26584, Note_off_c, 1, 37, 64
1, 26585, Note_off_c, 3, 71, 64
1, 26591, Note_on_c, 0, 46, 92
1, 26592, Lyric_t, "you "
1, 26592, Note_on_c, 3, 65, 100
1, 26592, Note_on_c, 9, 40, 110
1, 26592, Note_on_c, 1, 41, 103
1, 26593, Note_off_c, 9, 40, 64
1, 26593, Note_on_c, 9, 46, 114
1, 26593, Note_on_c, 0, 37, 99
1, 26593, Note_on_c, 2, 58, 116
1, 26594, Note_off_c, 9, 46, 64
1, 26626, Note_off_c, 2, 58, 64
1, 26635, Note_off_c, 0, 37, 64
1, 26644, Note_off_c, 0, 46, 64
1, 26651, Note_off_c, 3, 65, 64
1, 26655, Note_on_c, 2, 58, 104
1, 26657, Note_on_c, 9, 46, 63
1, 26657, Note_on_c, 0, 37, 92
1, 26657, Note_on_c, 0, 46, 97
1, 26658, Note_off_c, 9, 46, 64
1, 26671, Note_off_c, 1, 41, 64
1, 26674, Note_off_c, 0, 46, 64
1, 26678, Note_off_c, 0, 37, 64
1, 26682, Note_off_c, 2, 58, 64
1, 26684, Lyric_t, "near "
1, 26684, Note_on_c, 3, 68, 105
1, 26687, Note_on_c, 1, 44, 107
1, 26688, Note_on_c, 9, 36, 102
1, 26689, Note_off_c, 9, 36, 64
1, 26689, Note_on_c, 9, 46, 97
1, 26689, Note_on_c, 0, 44, 87
1, 26689, Note_on_c, 0, 37, 91
1, 26689, Note_on_c, 2, 56, 112
1, 26690, Note_off_c, 9, 46, 64
1, 26725, Note_off_c, 2, 56, 64
1, 26733, Note_off_c, 0, 37, 64
1, 26734, Note_off_c, 0, 44, 64
1, 26751, Note_on_c, 0, 61, 83
1, 26751, Note_on_c, 2, 56, 102
1, 26752, Note_on_c, 0, 53, 83
1, 26752, Note_on_c, 0, 59, 86
1, 26752, Note_on_c, 0, 44, 70
1, 26753, Note_on_c, 0, 37, 83
1, 26764, Note_off_c, 1, 44, 64
1, 26765, Note_off_c, 0, 44, 64
1, 26766, Note_off_c, 0, 37, 64
1, 26776, Note_off_c, 2, 56, 64
1, 26777, Note_off_c, 3, 68, 64
1, 26783, Lyric_t, "me, "
1, 26783, Note_on_c, 3, 65, 101
1, 26783, Note_on_c, 1, 46, 101
1, 26783, Note_on_c, 0, 46, 82
1, 26783, Note_on_c, 0, 37, 91
1, 26784, Note_on_c, 9, 40, 114
1, 26784, Note_on_c, 2, 58, 111
1, 26785, Note_off_c, 9, 40, 64
1, 26785, Note_on_c, 9, 46, 117
1, 26786, Note_off_c, 9, 46, 64
1, 26826, Note_off_c, 0, 61, 64
1, 26827, Note_off_c, 0, 53, 64
1, 26827, Note_off_c, 0, 59, 64
1, 26828, Note_off_c, 0, 46, 64
1, 26828, Note_off_c, 0, 37, 64
1, 26832, Note_off_c, 2, 58, 64
1, 26836, Note_off_c, 3, 65, 64
1, 26846, Note_on_c, 3, 63, 98
1, 26846, Note_on_c, 6, 44, 97
1, 26847, Note_on_c, 0, 37, 99
1, 26847, Note_on_c, 0, 46, 72
1, 26847, Note_on_c, 2, 56, 107
1, 26848, Note_on_c, 9, 46, 77
1, 26849, Note_off_c, 9, 46, 64
1, 26863, Note_off_c, 0, 46, 64
1, 26863, Note_off_c, 0, 37, 64
1, 26865, Note_off_c, 1, 46, 64
1, 26870, Note_off_c, 2, 56, 64
1, 26875, Note_off_c, 6, 44, 64
1, 26879, Note_on_c, 0, 44, 83
1, 26880, Note_off_c, 3, 63, 64
1, 26880, Note_on_c, 9, 46, 97
1, 26880, Note_on_c, 9, 36, 102
1, 26880, Note_on_c, 0, 37, 88
1, 26880, Note_on_c, 2, 49, 119
1, 26881, Note_on_c, 6, 37, 89
1, 26881, Note_off_c, 9, 36, 64
1, 26881, Note_off_c, 9, 46, 64
1, 26881, Note_on_c, 1, 37, 98
1, 26912, Note_off_c, 2, 49, 64
1, 26920, Note_off_c, 0, 37, 64
1, 26922, Note_off_c, 0, 44, 64
1, 26936, Note_off_c, 1, 37, 64
1, 26943, Note_on_c, 0, 44, 78
1, 26943, Note_on_c, 0, 37, 94
1, 26944, Note_on_c, 4, 59, 58
1, 26944, Note_on_c, 4, 53, 58
1, 26944, Note_on_c, 4, 56, 58
1, 26944, Note_on_c, 1, 37, 111
1, 26945, Lyric_t, "stay "
1, 26945, Note_on_c, 3, 68, 100
1, 26945, Note_on_c, 2, 49, 108
1, 26957, Note_off_c, 0, 37, 64
1, 26957, Note_off_c, 0, 44, 64
1, 26963, Note_off_c, 2, 49, 64
1, 26965, Note_off_c, 6, 37, 64
1, 26968, Note_off_c, 3, 68, 64
1, 26968, Note_off_c, 1, 37, 64
1, 26975, Note_on_c, 0, 37, 95
1, 26975, Note_on_c, 0, 46, 84
1, 26976, Note_on_c, 9, 40, 110
1, 26977, Lyric_t, "real "
1, 26977, Note_on_c, 3, 68, 92
1, 26977, Note_off_c, 9, 40, 64
1, 26977, Note_on_c, 9, 46, 111
1, 26977, Note_on_c, 1, 41, 97
1, 26977, Note_on_c, 2, 58, 116
1, 26978, Note_off_c, 9, 46, 64
1, 27010, Note_off_c, 2, 58, 64
1, 27018, Note_off_c, 0, 46, 64
1, 27018, Note_off_c, 0, 37, 64
1, 27026, Note_off_c, 3, 68, 64
1, 27039, Note_off_c, 4, 56, 64
1, 27039, Note_off_c, 4, 59, 64
1, 27039, Note_on_c, 9, 46, 63
1, 27039, Note_on_c, 0, 46, 77
1, 27039, Note_on_c, 0, 37, 91
1, 27039, Note_on_c, 2, 58, 104
1, 27040, Note_off_c, 4, 53, 64
1, 27040, Note_on_c, 4, 63, 58
1, 27040, Note_on_c, 4, 59, 58
1, 27040, Note_on_c, 4, 56, 58
1, 27040, Note_off_c, 9, 46, 64
1, 27044, Lyric_t, "close. "
1, 27044, Lyric_t, "\015"
1, 27044, Note_on_c, 3, 71, 103
1, 27051, Note_off_c, 1, 41, 64
1, 27055, Note_off_c, 0, 46, 64
1, 27057, Note_off_c, 0, 37, 64
1, 27066, Note_off_c, 2, 58, 64
1, 27071, Note_on_c, 9, 46, 99
1, 27071, Note_on_c, 0, 44, 87
1, 27072, Note_off_c, 9, 46, 64
1, 27072, Note_on_c, 9, 36, 102
1, 27072, Note_on_c, 0, 37, 95
1, 27073, Note_off_c, 9, 36, 64
1, 27073, Note_on_c, 1, 44, 99
1, 27073, Note_on_c, 2, 56, 112
1, 27107, Note_off_c, 3, 71, 64
1, 27109, Note_off_c, 2, 56, 64
1, 27117, Note_off_c, 0, 37, 64
1, 27117, Note_off_c, 0, 44, 64
1, 27135, Note_on_c, 0, 61, 85
1, 27135, Note_on_c, 0, 44, 83
1, 27135, Note_on_c, 2, 56, 102
1, 27137, Note_on_c, 0, 53, 84
1, 27137, Note_on_c, 0, 59, 88
1, 27137, Note_on_c, 0, 37, 94
1, 27149, Note_off_c, 0, 37, 64
1, 27150, Note_off_c, 1, 44, 64
1, 27153, Note_off_c, 0, 44, 64
1, 27160, Note_off_c, 2, 56, 64
1, 27167, Note_on_c, 0, 46, 89
1, 27168, Note_off_c, 4, 56, 64
1, 27168, Note_off_c, 4, 59, 64
1, 27168, Note_off_c, 4, 63, 64
1, 27168, Note_on_c, 9, 40, 114
1, 27168, Note_on_c, 1, 46, 95
1, 27168, Note_on_c, 2, 58, 111
1, 27169, Note_off_c, 9, 40, 64
1, 27169, Note_on_c, 9, 46, 114
1, 27169, Note_on_c, 0, 37, 97
1, 27170, Note_off_c, 9, 46, 64
1, 27198, Note_off_c, 0, 37, 64
1, 27201, Note_off_c, 0, 46, 64
1, 27214, Note_off_c, 0, 53, 64
1, 27216, Note_off_c, 2, 58, 64
1, 27217, Note_off_c, 0, 59, 64
1, 27218, Note_off_c, 0, 61, 64
1, 27230, Note_on_c, 0, 37, 71
1, 27231, Note_on_c, 0, 46, 70
1, 27231, Note_on_c, 2, 56, 107
1, 27232, Note_on_c, 9, 36, 72
1, 27233, Note_off_c, 9, 36, 64
1, 27233, Note_on_c, 9, 46, 84
1, 27234, Note_off_c, 9, 46, 64
1, 27238, Note_off_c, 1, 46, 64
1, 27244, Note_off_c, 0, 46, 64
1, 27244, Note_off_c, 0, 37, 64
1, 27254, Note_off_c, 2, 56, 64
1, 27263, Note_on_c, 0, 51, 77
1, 27264, Lyric_t, "Please, "
1, 27264, Note_on_c, 3, 72, 100
1, 27264, Note_on_c, 9, 46, 93
1, 27264, Note_on_c, 9, 36, 102
1, 27264, Note_on_c, 0, 44, 66
1, 27265, Note_off_c, 9, 36, 64
1, 27265, Note_off_c, 9, 46, 64
1, 27265, Note_on_c, 1, 44, 113
1, 27265, Note_on_c, 2, 44, 123
1, 27292, Note_off_c, 2, 44, 64
1, 27297, Note_off_c, 0, 44, 64
1, 27300, Note_off_c, 0, 51, 64
1, 27319, Note_off_c, 1, 44, 64
1, 27327, Note_on_c, 0, 51, 78
1, 27327, Note_on_c, 0, 44, 89
1, 27328, Note_on_c, 1, 44, 113
1, 27329, Note_on_c, 2, 44, 104
1, 27334, Note_off_c, 3, 72, 64
1, 27342, Note_off_c, 0, 51, 64
1, 27343, Note_off_c, 0, 44, 64
1, 27349, Note_off_c, 1, 44, 64
1, 27351, Note_off_c, 2, 44, 64
1, 27358, Lyric_t, "please, "
1, 27358, Note_on_c, 3, 72, 101
1, 27359, Note_on_c, 0, 53, 93
1, 27359, Note_on_c, 0, 44, 94
1, 27360, Note_on_c, 9, 40, 110
1, 27361, Note_off_c, 9, 40, 64
1, 27361, Note_on_c, 9, 46, 117
1, 27361, Note_on_c, 1, 48, 100
1, 27361, Note_on_c, 2, 53, 110
1, 27362, Note_off_c, 9, 46, 64
1, 27396, Note_off_c, 2, 53, 64
1, 27405, Note_off_c, 0, 44, 64
1, 27411, Note_off_c, 0, 53, 64
1, 27419, Note_off_c, 3, 72, 64
1, 27423, Note_on_c, 2, 53, 102
1, 27425, Note_on_c, 0, 53, 86
1, 27425, Note_on_c, 0, 44, 83
1, 27438, Note_off_c, 1, 48, 64
1, 27441, Note_off_c, 0, 44, 64
1, 27441, Note_off_c, 0, 53, 64
1, 27451, Note_off_c, 2, 53, 64
1, 27456, Note_on_c, 9, 36, 102
1, 27456, Note_on_c, 1, 51, 107
1, 27457, Note_off_c, 9, 36, 64
1, 27457, Note_on_c, 9, 46, 97
1, 27457, Note_on_c, 0, 51, 92
1, 27457, Note_on_c, 0, 44, 83
1, 27457, Note_on_c, 2, 51, 118
1, 27458, Note_off_c, 9, 46, 64
1, 27460, Lyric_t, "hear "
1, 27460, Note_on_c, 3, 68, 96
1, 27489, Note_off_c, 2, 51, 64
1, 27496, Note_off_c, 0, 44, 64
1, 27502, Note_off_c, 0, 51, 64
1, 27519, Note_on_c, 0, 65, 64
1, 27519, Note_on_c, 0, 68, 69
1, 27519, Note_on_c, 0, 60, 81
1, 27519, Note_on_c, 0, 63, 66
1, 27519, Note_on_c, 0, 44, 58
1, 27519, Note_on_c, 2, 51, 102
1, 27521, Note_on_c, 0, 51, 84
1, 27533, Note_off_c, 1, 51, 64
1, 27533, Note_off_c, 0, 51, 64
1, 27535, Note_off_c, 3, 68, 64
1, 27542, Note_off_c, 2, 51, 64
1, 27549, Lyric_t, "me, "
1, 27549, Note_on_c, 3, 65, 102
1, 27551, Note_on_c, 0, 53, 100
1, 27551, Note_on_c, 2, 53, 118
1, 27552, Note_on_c, 9, 40, 114
1, 27552, Note_on_c, 9, 46, 114
1, 27552, Note_on_c, 1, 48, 107
1, 27552, Note_off_c, 0, 44, 64
1, 27553, Note_off_c, 9, 46, 64
1, 27553, Note_off_c, 9, 40, 64
1, 27553, Note_on_c, 0, 44, 84
1, 27581, Note_off_c, 0, 60, 64
1, 27582, Note_off_c, 0, 63, 64
1, 27583, Note_off_c, 0, 68, 64
1, 27584, Note_off_c, 0, 65, 64
1, 27594, Note_off_c, 2, 53, 64
1, 27595, Note_off_c, 0, 44, 64
1, 27599, Note_off_c, 0, 53, 64
1, 27607, Note_off_c, 3, 65, 64
1, 27614, Note_on_c, 3, 63, 99
1, 27615, Note_on_c, 0, 53, 82
1, 27616, Note_on_c, 9, 36, 77
1, 27616, Note_on_c, 2, 51, 107
1, 27617, Note_on_c, 6, 39, 101
1, 27617, Note_off_c, 9, 36, 64
1, 27617, Note_on_c, 0, 44, 84
1, 27628, Note_off_c, 1, 48, 64
1, 27631, Note_off_c, 0, 44, 64
1, 27632, Note_off_c, 0, 53, 64
1, 27636, Note_off_c, 2, 51, 64
1, 27640, Note_off_c, 6, 39, 64
1, 27648, Note_on_c, 9, 46, 97
1, 27648, Note_on_c, 9, 36, 102
1, 27648, Note_on_c, 0, 51, 77
1, 27649, Note_off_c, 9, 36, 64
1, 27649, Note_off_c, 9, 46, 64
1, 27649, Note_on_c, 1, 44, 116
1, 27649, Note_on_c, 0, 44, 85
1, 27649, Note_on_c, 2, 44, 123
1, 27651, Note_on_c, 6, 32, 72
1, 27657, Note_off_c, 3, 63, 64
1, 27676, Note_off_c, 2, 44, 64
1, 27692, Note_off_c, 0, 44, 64
1, 27695, Note_off_c, 0, 51, 64
1, 27711, Lyric_t, "you're "
1, 27711, Note_on_c, 3, 68, 103
1, 27712, Note_on_c, 4, 56, 58
1, 27712, Note_on_c, 4, 53, 58
1, 27712, Note_on_c, 4, 60, 58
1, 27713, Note_on_c, 0, 51, 82
1, 27713, Note_on_c, 0, 44, 89
1, 27713, Note_on_c, 2, 44, 104
1, 27725, Note_off_c, 0, 44, 64
1, 27726, Note_off_c, 1, 44, 64
1, 27729, Note_off_c, 0, 51, 64
1, 27735, Note_off_c, 2, 44, 64
1, 27737, Note_off_c, 6, 32, 64
1, 27740, Note_off_c, 3, 68, 64
1, 27744, Note_on_c, 9, 40, 110
1, 27744, Note_on_c, 9, 46, 114
1, 27745, Note_off_c, 9, 46, 64
1, 27745, Note_off_c, 9, 40, 64
1, 27745, Note_on_c, 1, 48, 107
1, 27745, Note_on_c, 0, 53, 90
1, 27745, Note_on_c, 0, 44, 81
1, 27745, Note_on_c, 2, 53, 110
1, 27751, Lyric_t, "the "
1, 27751, Note_on_c, 3, 68, 96
1, 27780, Note_off_c, 2, 53, 64
1, 27787, Note_off_c, 0, 44, 64
1, 27790, Note_off_c, 0, 53, 64
1, 27796, Note_off_c, 3, 68, 64
1, 27807, Note_off_c, 4, 60, 64
1, 27807, Note_off_c, 4, 56, 64
1, 27807, Note_on_c, 2, 53, 102
1, 27808, Note_off_c, 4, 53, 64
1, 27808, Note_on_c, 4, 63, 58
1, 27808, Note_on_c, 4, 60, 58
1, 27808, Note_on_c, 4, 56, 58
1, 27808, Note_on_c, 9, 46, 88
1, 27809, Note_off_c, 9, 46, 64
1, 27809, Note_on_c, 0, 44, 84
1, 27809, Note_on_c, 0, 53, 87
1, 27815, Lyric_t, "most. "
1, 27815, Lyric_t, "\015"
1, 27815, Note_on_c, 3, 72, 100
1, 27821, Note_off_c, 1, 48, 64
1, 27824, Note_off_c, 0, 53, 64
1, 27824, Note_off_c, 0, 44, 64
1, 27835, Note_off_c, 2, 53, 64
1, 27839, Note_on_c, 9, 46, 99
1, 27840, Note_off_c, 9, 46, 64
1, 27840, Note_on_c, 9, 36, 102
1, 27841, Note_off_c, 9, 36, 64
1, 27841, Note_on_c, 1, 51, 113
1, 27841, Note_on_c, 0, 51, 95
1, 27841, Note_on_c, 0, 44, 87
1, 27841, Note_on_c, 2, 51, 118
1, 27858, Note_off_c, 3, 72, 64
1, 27873, Note_off_c, 2, 51, 64
1, 27882, Note_off_c, 0, 44, 64
1, 27884, Note_off_c, 0, 51, 64
1, 27888, Lyric_t, "\012"
1, 27903, Note_on_c, 0, 65, 85
1, 27903, Note_on_c, 0, 68, 77
1, 27903, Note_on_c, 0, 63, 81
1, 27903, Note_on_c, 0, 60, 90
1, 27903, Note_on_c, 0, 44, 76
1, 27903, Note_on_c, 0, 51, 81
1, 27903, Note_on_c, 2, 51, 102
1, 27904, Note_on_c, 9, 40, 82
1, 27905, Note_off_c, 9, 40, 64
1, 27915, Note_off_c, 1, 51, 64
1, 27922, Note_off_c, 0, 51, 64
1, 27926, Note_off_c, 2, 51, 64
1, 27935, Note_on_c, 2, 53, 118
1, 27936, Note_off_c, 4, 56, 64
1, 27936, Note_off_c, 4, 60, 64
1, 27936, Note_off_c, 4, 63, 64
1, 27936, Note_on_c, 9, 40, 114
1, 27936, Note_off_c, 0, 44, 64
1, 27936, Note_on_c, 0, 53, 100
1, 27937, Note_off_c, 9, 40, 64
1, 27937, Note_on_c, 1, 47, 108
1, 27937, Note_on_c, 0, 44, 91
1, 27962, Note_off_c, 0, 68, 64
1, 27962, Note_off_c, 0, 60, 64
1, 27963, Note_off_c, 0, 65, 64
1, 27965, Note_off_c, 0, 63, 64
1, 27965, Note_off_c, 0, 44, 64
1, 27965, Note_off_c, 0, 53, 64
1, 27978, Note_off_c, 2, 53, 64
1, 27999, Note_on_c, 0, 44, 81
1, 28000, Note_on_c, 9, 46, 82
1, 28000, Note_on_c, 9, 36, 77
1, 28000, Note_on_c, 2, 51, 107
1, 28001, Note_off_c, 9, 36, 64
1, 28001, Note_off_c, 9, 46, 64
1, 28006, Note_off_c, 0, 44, 64
1, 28011, Note_off_c, 1, 47, 64
1, 28020, Note_off_c, 2, 51, 64
1, 28031, Note_on_c, 0, 46, 68
1, 28031, Note_on_c, 0, 39, 95
1, 28032, Lyric_t, "Now "
1, 28032, Note_on_c, 3, 70, 97
1, 28032, Note_on_c, 5, 70, 82
1, 28032, Note_on_c, 5, 67, 87
1, 28032, Note_on_c, 5, 63, 67
1, 28032, Note_on_c, 5, 61, 73
1, 28032, Note_on_c, 9, 46, 93
1, 28032, Note_on_c, 9, 36, 102
1, 28032, Note_on_c, 1, 39, 113
1, 28032, Note_on_c, 0, 75, 83
1, 28032, Note_on_c, 0, 73, 81
1, 28032, Note_on_c, 0, 70, 83
1, 28032, Note_on_c, 0, 79, 90
1, 28033, Note_off_c, 9, 36, 64
1, 28033, Note_off_c, 9, 46, 64
1, 28033, Note_on_c, 2, 51, 120
1, 28043, Note_off_c, 0, 73, 64
1, 28043, Note_off_c, 0, 75, 64
1, 28044, Note_off_c, 0, 70, 64
1, 28045, Note_off_c, 0, 79, 64
1, 28063, Note_off_c, 2, 51, 64
1, 28065, Note_on_c, 0, 70, 71
1, 28065, Note_on_c, 0, 79, 80
1, 28065, Note_on_c, 0, 75, 68
1, 28065, Note_on_c, 0, 73, 65
1, 28072, Note_off_c, 0, 39, 64
1, 28073, Note_off_c, 3, 70, 64
1, 28073, Note_off_c, 0, 75, 64
1, 28073, Note_off_c, 0, 79, 64
1, 28073, Note_off_c, 0, 73, 64
1, 28074, Note_off_c, 0, 46, 64
1, 28077, Note_off_c, 0, 70, 64
1, 28092, Lyric_t, "you "
1, 28092, Note_on_c, 3, 70, 105
1, 28095, Note_on_c, 0, 39, 101
1, 28095, Note_on_c, 2, 51, 109
1, 28097, Note_on_c, 0, 70, 66
1, 28097, Note_on_c, 0, 73, 61
1, 28097, Note_on_c, 0, 79, 70
1, 28097, Note_on_c, 0, 75, 57
1, 28097, Note_on_c, 0, 46, 78
1, 28102, Note_off_c, 0, 75, 64
1, 28102, Note_off_c, 0, 79, 64
1, 28105, Note_off_c, 0, 73, 64
1, 28106, Note_off_c, 1, 39, 64
1, 28106, Note_off_c, 0, 46, 64
1, 28107, Note_off_c, 0, 70, 64
1, 28114, Note_off_c, 0, 39, 64
1, 28118, Note_off_c, 2, 51, 64
1, 28122, Note_off_c, 3, 70, 64
1, 28127, Note_on_c, 1, 43, 112
1, 28127, Note_on_c, 0, 48, 87
1, 28128, Note_on_c, 9, 40, 110
1, 28128, Note_on_c, 0, 70, 82
1, 28128, Note_on_c, 0, 75, 87
1, 28128, Note_on_c, 0, 73, 87
1, 28128, Note_on_c, 0, 79, 85
1, 28128, Note_on_c, 0, 39, 99
1, 28129, Note_off_c, 9, 40, 64
1, 28129, Note_on_c, 9, 46, 107
1, 28129, Note_on_c, 2, 60, 109
1, 28130, Note_off_c, 9, 46, 64
1, 28136, Lyric_t, "got "
1, 28136, Note_on_c, 3, 70, 93
1, 28142, Note_off_c, 0, 79, 64
1, 28142, Note_off_c, 0, 75, 64
1, 28144, Note_off_c, 0, 73, 64
1, 28144, Note_off_c, 0, 70, 64
1, 28161, Note_on_c, 0, 70, 68
1, 28161, Note_on_c, 0, 75, 68
1, 28161, Note_on_c, 0, 73, 67
1, 28161, Note_on_c, 0, 79, 74
1, 28168, Note_off_c, 0, 39, 64
1, 28168, Note_off_c, 2, 60, 64
1, 28169, Note_off_c, 0, 48, 64
1, 28169, Note_off_c, 0, 79, 64
1, 28170, Note_off_c, 0, 73, 64
1, 28171, Note_off_c, 0, 75, 64
1, 28173, Note_off_c, 0, 70, 64
1, 28179, Note_off_c, 3, 70, 64
1, 28191, Lyric_t, "me "
1, 28191, Note_on_c, 3, 70, 103
1, 28191, Note_on_c, 0, 39, 91
1, 28191, Note_on_c, 2, 60, 104
1, 28193, Note_on_c, 0, 70, 72
1, 28193, Note_on_c, 0, 75, 68
1, 28193, Note_on_c, 0, 73, 68
1, 28193, Note_on_c, 0, 79, 75
1, 28193, Note_on_c, 0, 48, 84
1, 28200, Note_off_c, 1, 43, 64
1, 28201, Note_off_c, 0, 73, 64
1, 28202, Note_off_c, 0, 79, 64
1, 28203, Note_off_c, 0, 75, 64
1, 28206, Note_off_c, 0, 70, 64
1, 28211, Note_off_c, 0, 48, 64
1, 28213, Note_off_c, 0, 39, 64
1, 28215, Note_off_c, 3, 70, 64
1, 28216, Note_off_c, 2, 60, 64
1, 28223, Note_on_c, 1, 46, 107
1, 28223, Note_on_c, 0, 46, 95
1, 28224, Note_on_c, 9, 36, 102
1, 28225, Lyric_t, "start"
1, 28225, Note_on_c, 3, 70, 94
1, 28225, Note_off_c, 9, 36, 64
1, 28225, Note_on_c, 9, 46, 97
1, 28225, Note_on_c, 0, 73, 71
1, 28225, Note_on_c, 0, 70, 66
1, 28225, Note_on_c, 0, 75, 66
1, 28225, Note_on_c, 0, 79, 72
1, 28225, Note_on_c, 0, 39, 101
1, 28225, Note_on_c, 2, 58, 111
1, 28226, Note_off_c, 9, 46, 64
1, 28231, Note_off_c, 0, 79, 64
1, 28233, Note_off_c, 0, 75, 64
1, 28236, Note_off_c, 0, 73, 64
1, 28237, Note_off_c, 0, 70, 64
1, 28257, Note_on_c, 0, 70, 63
1, 28257, Note_on_c, 0, 73, 56
1, 28257, Note_on_c, 0, 75, 52
1, 28259, Note_off_c, 2, 58, 64
1, 28262, Note_off_c, 0, 75, 64
1, 28265, Note_off_c, 0, 73, 64
1, 28267, Note_off_c, 0, 39, 64
1, 28267, Note_off_c, 0, 46, 64
1, 28269, Note_off_c, 0, 70, 64
1, 28276, Note_off_c, 3, 70, 64
1, 28287, Note_on_c, 0, 46, 85
1, 28287, Note_on_c, 0, 39, 103
1, 28287, Note_on_c, 2, 58, 91
1, 28289, Lyric_t, "ed, "
1, 28289, Lyric_t, "\015"
1, 28289, Note_on_c, 3, 70, 104
1, 28289, Note_on_c, 0, 70, 66
1, 28289, Note_on_c, 0, 73, 60
1, 28289, Note_on_c, 0, 75, 59
1, 28289, Note_on_c, 0, 79, 62
1, 28296, Note_off_c, 0, 79, 64
1, 28296, Note_off_c, 0, 75, 64
1, 28297, Note_off_c, 0, 73, 64
1, 28301, Note_off_c, 0, 70, 64
1, 28304, Note_off_c, 0, 46, 64
1, 28305, Note_off_c, 1, 46, 64
1, 28307, Note_off_c, 0, 39, 64
1, 28309, Note_off_c, 2, 58, 64
1, 28315, Note_off_c, 3, 70, 64
1, 28319, Note_on_c, 1, 48, 109
1, 28319, Note_on_c, 0, 48, 94
1, 28320, Note_on_c, 9, 40, 114
1, 28320, Note_on_c, 9, 46, 108
1, 28321, Note_off_c, 9, 46, 64
1, 28321, Note_off_c, 9, 40, 64
1, 28321, Note_on_c, 0, 70, 82
1, 28321, Note_on_c, 0, 75, 91
1, 28321, Note_on_c, 0, 73, 91
1, 28321, Note_on_c, 0, 79, 91
1, 28321, Note_on_c, 0, 39, 101
1, 28321, Note_on_c, 2, 60, 111
1, 28326, Lyric_t, "don't "
1, 28326, Note_on_c, 3, 70, 94
1, 28332, Note_off_c, 0, 79, 64
1, 28333, Note_off_c, 0, 73, 64
1, 28334, Note_off_c, 0, 75, 64
1, 28336, Note_off_c, 0, 70, 64
1, 28353, Note_on_c, 0, 75, 78
1, 28353, Note_on_c, 0, 70, 71
1, 28353, Note_on_c, 0, 73, 76
1, 28353, Note_on_c, 0, 79, 75
1, 28358, Note_off_c, 0, 79, 64
1, 28358, Note_off_c, 0, 39, 64
1, 28360, Note_off_c, 0, 73, 64
1, 28360, Note_off_c, 0, 75, 64
1, 28362, Note_off_c, 0, 48, 64
1, 28362, Note_off_c, 0, 70, 64
1, 28367, Note_off_c, 2, 60, 64
1, 28370, Note_off_c, 3, 70, 64
1, 28381, Lyric_t, "you "
1, 28381, Note_on_c, 3, 70, 101
1, 28383, Note_on_c, 0, 70, 69
1, 28383, Note_on_c, 0, 75, 70
1, 28383, Note_on_c, 0, 73, 62
1, 28383, Note_on_c, 0, 79, 66
1, 28383, Note_on_c, 0, 39, 89
1, 28383, Note_on_c, 0, 48, 83
1, 28384, Note_on_c, 9, 46, 77
1, 28384, Note_on_c, 9, 36, 77
1, 28384, Note_on_c, 2, 58, 94
1, 28385, Note_off_c, 9, 36, 64
1, 28385, Note_off_c, 9, 46, 64
1, 28392, Note_off_c, 0, 79, 64
1, 28392, Note_off_c, 0, 73, 64
1, 28392, Note_off_c, 0, 75, 64
1, 28396, Note_off_c, 0, 70, 64
1, 28396, Note_off_c, 0, 48, 64
1, 28398, Note_off_c, 0, 39, 64
1, 28408, Note_off_c, 1, 48, 64
1, 28410, Note_off_c, 2, 58, 64
1, 28411, Note_off_c, 3, 70, 64
1, 28415, Note_off_c, 5, 61, 64
1, 28415, Note_off_c, 5, 70, 64
1, 28415, Note_off_c, 5, 67, 64
1, 28415, Note_on_c, 0, 44, 69
1, 28415, Note_on_c, 0, 37, 97
1, 28416, Note_off_c, 5, 63, 64
1, 28416, Note_on_c, 5, 61, 68
1, 28416, Note_on_c, 5, 65, 77
1, 28416, Note_on_c, 5, 68, 84
1, 28416, Note_on_c, 5, 59, 65
1, 28416, Note_on_c, 9, 46, 97
1, 28416, Note_on_c, 9, 36, 102
1, 28417, Note_off_c, 9, 36, 64
1, 28417, Note_off_c, 9, 46, 64
1, 28417, Note_on_c, 1, 37, 116
1, 28417, Note_on_c, 0, 73, 88
1, 28417, Note_on_c, 0, 68, 92
1, 28417, Note_on_c, 0, 77, 78
1, 28417, Note_on_c, 2, 49, 119
1, 28418, Note_on_c, 0, 71, 74
1, 28420, Lyric_t, "leave "
1, 28420, Note_on_c, 3, 68, 95
1, 28424, Note_off_c, 0, 71, 64
1, 28428, Note_off_c, 0, 68, 64
1, 28428, Note_off_c, 0, 77, 64
1, 28430, Note_off_c, 0, 73, 64
1, 28449, Note_on_c, 0, 68, 68
1, 28449, Note_on_c, 0, 73, 64
1, 28449, Note_on_c, 0, 71, 76
1, 28449, Note_off_c, 2, 49, 64
1, 28455, Note_off_c, 0, 37, 64
1, 28456, Note_off_c, 0, 44, 64
1, 28457, Note_off_c, 0, 73, 64
1, 28459, Note_off_c, 0, 71, 64
1, 28463, Note_off_c, 0, 68, 64
1, 28465, Note_off_c, 3, 68, 64
1, 28474, Lyric_t, "me "
1, 28474, Note_on_c, 3, 68, 102
1, 28479, Note_on_c, 0, 37, 95
1, 28479, Note_on_c, 0, 44, 83
1, 28481, Note_on_c, 0, 68, 77
1, 28481, Note_on_c, 0, 73, 71
1, 28481, Note_on_c, 0, 71, 80
1, 28481, Note_on_c, 0, 77, 74
1, 28481, Note_on_c, 2, 49, 108
1, 28489, Note_off_c, 0, 77, 64
1, 28489, Note_off_c, 0, 73, 64
1, 28489, Note_off_c, 0, 68, 64
1, 28489, Note_off_c, 0, 71, 64
1, 28490, Note_off_c, 1, 37, 64
1, 28490, Note_off_c, 0, 44, 64
1, 28499, Note_off_c, 3, 68, 64
1, 28499, Note_off_c, 2, 49, 64
1, 28501, Note_off_c, 0, 37, 64
1, 28505, Lyric_t, "bro"
1, 28505, Note_on_c, 3, 68, 96
1, 28511, Note_on_c, 0, 68, 95
1, 28511, Note_on_c, 0, 73, 89
1, 28511, Note_on_c, 0, 71, 98
1, 28511, Note_on_c, 0, 77, 98
1, 28511, Note_on_c, 0, 46, 88
1, 28511, Note_on_c, 0, 37, 81
1, 28512, Note_on_c, 9, 40, 110
1, 28512, Note_on_c, 1, 41, 111
1, 28513, Note_off_c, 9, 40, 64
1, 28513, Note_on_c, 9, 46, 110
1, 28513, Note_on_c, 2, 58, 116
1, 28514, Note_off_c, 9, 46, 64
1, 28523, Note_off_c, 0, 77, 64
1, 28523, Note_off_c, 0, 71, 64
1, 28523, Note_off_c, 0, 68, 64
1, 28523, Note_off_c, 0, 73, 64
1, 28544, Note_on_c, 0, 68, 71
1, 28545, Note_on_c, 0, 73, 62
1, 28545, Note_on_c, 0, 71, 78
1, 28545, Note_on_c, 0, 77, 71
1, 28546, Note_off_c, 2, 58, 64
1, 28550, Note_off_c, 0, 37, 64
1, 28552, Note_off_c, 0, 77, 64
1, 28553, Note_off_c, 0, 73, 64
1, 28553, Note_off_c, 0, 71, 64
1, 28555, Note_off_c, 0, 46, 64
1, 28557, Note_off_c, 0, 68, 64
1, 28563, Note_off_c, 3, 68, 64
1, 28569, Lyric_t, "ken"
1, 28569, Note_on_c, 3, 68, 103
1, 28575, Note_on_c, 9, 46, 63
1, 28575, Note_on_c, 0, 46, 73
1, 28575, Note_on_c, 0, 37, 105
1, 28575, Note_on_c, 2, 58, 104
1, 28576, Note_off_c, 9, 46, 64
1, 28577, Note_on_c, 0, 68, 68
1, 28577, Note_on_c, 0, 73, 60
1, 28577, Note_on_c, 0, 71, 75
1, 28577, Note_on_c, 0, 77, 63
1, 28583, Note_off_c, 0, 77, 64
1, 28584, Note_off_c, 1, 41, 64
1, 28587, Note_off_c, 0, 73, 64
1, 28589, Note_off_c, 0, 68, 64
1, 28589, Note_off_c, 0, 71, 64
1, 28593, Note_off_c, 0, 46, 64
1, 28595, Note_off_c, 0, 37, 64
1, 28599, Note_off_c, 3, 68, 64
1, 28602, Note_off_c, 2, 58, 64
1, 28607, Note_on_c, 9, 46, 99
1, 28607, Note_on_c, 1, 44, 111
1, 28607, Note_on_c, 0, 44, 111
1, 28608, Note_off_c, 9, 46, 64
1, 28608, Note_on_c, 9, 36, 102
1, 28609, Lyric_t, "heart"
1, 28609, Note_on_c, 3, 68, 95
1, 28609, Note_off_c, 9, 36, 64
1, 28609, Note_on_c, 0, 73, 70
1, 28609, Note_on_c, 0, 68, 74
1, 28609, Note_on_c, 0, 77, 82
1, 28609, Note_on_c, 0, 71, 80
1, 28609, Note_on_c, 0, 37, 97
1, 28609, Note_on_c, 2, 56, 112
1, 28618, Note_off_c, 0, 77, 64
1, 28619, Note_off_c, 0, 71, 64
1, 28619, Note_off_c, 0, 73, 64
1, 28621, Note_off_c, 0, 68, 64
1, 28641, Note_on_c, 0, 68, 63
1, 28641, Note_on_c, 0, 71, 74
1, 28641, Note_on_c, 0, 73, 58
1, 28641, Note_on_c, 0, 77, 68
1, 28645, Note_off_c, 0, 77, 64
1, 28645, Note_off_c, 0, 73, 64
1, 28645, Note_off_c, 2, 56, 64
1, 28652, Note_off_c, 0, 68, 64
1, 28652, Note_off_c, 0, 71, 64
1, 28653, Note_off_c, 0, 37, 64
1, 28656, Note_off_c, 0, 44, 64
1, 28663, Note_off_c, 3, 68, 64
1, 28671, Note_on_c, 2, 56, 102
1, 28672, Lyric_t, "ed, "
1, 28672, Lyric_t, "\015"
1, 28672, Note_on_c, 3, 68, 104
1, 28673, Note_on_c, 0, 68, 65
1, 28673, Note_on_c, 0, 71, 72
1, 28673, Note_on_c, 0, 73, 61
1, 28673, Note_on_c, 0, 77, 70
1, 28673, Note_on_c, 0, 44, 80
1, 28673, Note_on_c, 0, 37, 103
1, 28681, Note_off_c, 0, 77, 64
1, 28681, Note_off_c, 0, 73, 64
1, 28684, Note_off_c, 0, 68, 64
1, 28684, Note_off_c, 0, 71, 64
1, 28689, Note_off_c, 1, 44, 64
1, 28689, Note_off_c, 0, 44, 64
1, 28693, Note_off_c, 0, 37, 64
1, 28696, Note_off_c, 2, 56, 64
1, 28699, Note_off_c, 3, 68, 64
1, 28703, Note_on_c, 1, 41, 106
1, 28704, Note_on_c, 9, 40, 114
1, 28704, Note_on_c, 9, 46, 110
1, 28704, Note_on_c, 0, 46, 103
1, 28704, Note_on_c, 0, 37, 84
1, 28704, Note_on_c, 2, 58, 111
1, 28705, Note_off_c, 9, 46, 64
1, 28705, Note_off_c, 9, 40, 64
1, 28705, Note_on_c, 0, 73, 83
1, 28705, Note_on_c, 0, 68, 85
1, 28705, Note_on_c, 0, 71, 94
1, 28705, Note_on_c, 0, 77, 95
1, 28709, Lyric_t, "'cause "
1, 28709, Note_on_c, 3, 65, 102
1, 28713, Note_off_c, 0, 77, 64
1, 28716, Note_off_c, 0, 73, 64
1, 28717, Note_off_c, 0, 71, 64
1, 28718, Note_off_c, 0, 68, 64
1, 28737, Note_on_c, 0, 73, 61
1, 28737, Note_on_c, 0, 71, 79
1, 28737, Note_on_c, 0, 68, 64
1, 28738, Note_off_c, 0, 37, 64
1, 28741, Note_off_c, 0, 46, 64
1, 28744, Note_off_c, 0, 73, 64
1, 28745, Note_off_c, 0, 71, 64
1, 28745, Note_off_c, 0, 68, 64
1, 28752, Note_off_c, 2, 58, 64
1, 28755, Note_off_c, 3, 65, 64
1, 28767, Note_on_c, 0, 73, 64
1, 28767, Note_on_c, 0, 68, 71
1, 28767, Note_on_c, 0, 71, 78
1, 28767, Note_on_c, 0, 77, 72
1, 28767, Note_on_c, 0, 37, 91
1, 28767, Note_on_c, 0, 46, 77
1, 28767, Note_on_c, 2, 56, 107
1, 28768, Lyric_t, "I "
1, 28768, Note_on_c, 3, 63, 97
1, 28768, Note_on_c, 9, 36, 77
1, 28769, Note_off_c, 9, 36, 64
1, 28769, Note_on_c, 9, 46, 84
1, 28770, Note_off_c, 9, 46, 64
1, 28772, Note_off_c, 0, 77, 64
1, 28773, Note_off_c, 0, 71, 64
1, 28773, Note_off_c, 0, 73, 64
1, 28777, Note_off_c, 0, 68, 64
1, 28777, Note_off_c, 0, 37, 64
1, 28779, Note_off_c, 0, 46, 64
1, 28787, Note_off_c, 1, 41, 64
1, 28790, Note_off_c, 2, 56, 64
1, 28792, Note_off_c, 3, 63, 64
1, 28799, Note_off_c, 5, 59, 64
1, 28799, Note_off_c, 5, 61, 64
1, 28799, Note_off_c, 5, 65, 64
1, 28799, Note_off_c, 5, 68, 64
1, 28799, Note_on_c, 0, 75, 82
1, 28799, Note_on_c, 0, 68, 87
1, 28799, Note_on_c, 0, 72, 90
1, 28799, Note_on_c, 0, 51, 97
1, 28799, Note_on_c, 0, 44, 88
1, 28800, Note_on_c, 5, 63, 44
1, 28800, Note_on_c, 5, 60, 71
1, 28800, Note_on_c, 5, 65, 71
1, 28800, Note_on_c, 5, 68, 89
1, 28800, Note_on_c, 9, 46, 93
1, 28800, Note_on_c, 9, 36, 102
1, 28801, Note_off_c, 9, 36, 64
1, 28801, Note_off_c, 9, 46, 64
1, 28801, Note_on_c, 1, 44, 110
1, 28801, Note_on_c, 2, 44, 123
1, 28806, Lyric_t, "love "
1, 28806, Note_on_c, 3, 68, 104
1, 28810, Note_off_c, 0, 72, 64
1, 28813, Note_off_c, 0, 75, 64
1, 28813, Note_off_c, 0, 68, 64
1, 28828, Note_off_c, 2, 44, 64
1, 28831, Note_on_c, 0, 75, 74
1, 28831, Note_on_c, 0, 68, 70
1, 28831, Note_on_c, 0, 72, 90
1, 28841, Note_off_c, 0, 44, 64
1, 28842, Note_off_c, 0, 75, 64
1, 28844, Note_off_c, 0, 72, 64
1, 28844, Note_off_c, 0, 68, 64
1, 28847, Note_off_c, 0, 51, 64
1, 28852, Note_off_c, 3, 68, 64
1, 28863, Note_on_c, 0, 44, 88
1, 28863, Note_on_c, 0, 51, 81
1, 28864, Note_on_c, 0, 72, 83
1, 28864, Note_on_c, 0, 75, 61
1, 28864, Note_on_c, 0, 68, 61
1, 28865, Note_on_c, 2, 44, 104
1, 28873, Note_off_c, 0, 75, 64
1, 28876, Note_off_c, 0, 72, 64
1, 28876, Note_off_c, 0, 68, 64
1, 28877, Note_off_c, 0, 51, 64
1, 28880, Note_off_c, 0, 44, 64
1, 28881, Note_off_c, 1, 44, 64
1, 28887, Note_off_c, 2, 44, 64
1, 28894, Lyric_t, "you "
1, 28894, Note_on_c, 3, 65, 103
1, 28894, Note_on_c, 0, 53, 89
1, 28896, Note_on_c, 9, 40, 110
1, 28896, Note_on_c, 0, 75, 78
1, 28896, Note_on_c, 0, 68, 77
1, 28896, Note_on_c, 0, 72, 95
1, 28897, Note_off_c, 9, 40, 64
1, 28897, Note_on_c, 9, 46, 85
1, 28897, Note_on_c, 1, 41, 102
1, 28897, Note_on_c, 0, 44, 95
1, 28897, Note_on_c, 2, 53, 110
1, 28898, Note_off_c, 9, 46, 64
1, 28911, Note_off_c, 0, 72, 64
1, 28911, Note_off_c, 0, 75, 64
1, 28913, Note_off_c, 0, 68, 64
1, 28929, Note_on_c, 0, 68, 58
1, 28929, Note_on_c, 0, 72, 75
1, 28929, Note_on_c, 0, 75, 56
1, 28932, Note_off_c, 2, 53, 64
1, 28938, Note_off_c, 0, 75, 64
1, 28940, Note_off_c, 0, 44, 64
1, 28940, Note_off_c, 0, 72, 64
1, 28942, Note_off_c, 0, 68, 64
1, 28949, Note_off_c, 0, 53, 64
1, 28959, Note_on_c, 0, 44, 83
1, 28959, Note_on_c, 0, 53, 83
1, 28959, Note_on_c, 2, 53, 102
1, 28961, Note_on_c, 9, 46, 77
1, 28961, Note_on_c, 0, 68, 74
1, 28961, Note_on_c, 0, 75, 74
1, 28961, Note_on_c, 0, 72, 80
1, 28962, Note_off_c, 9, 46, 64
1, 28968, Note_off_c, 3, 65, 64
1, 28971, Note_off_c, 0, 75, 64
1, 28973, Note_off_c, 0, 72, 64
1, 28976, Note_off_c, 0, 53, 64
1, 28977, Note_off_c, 0, 68, 64
1, 28978, Note_off_c, 1, 41, 64
1, 28983, Note_off_c, 0, 44, 64
1, 28987, Note_off_c, 2, 53, 64
1, 28991, Note_on_c, 0, 51, 97
1, 28992, Note_on_c, 9, 36, 91
1, 28992, Note_on_c, 1, 39, 99
1, 28993, Note_off_c, 9, 36, 64
1, 28993, Note_on_c, 9, 46, 112
1, 28993, Note_on_c, 0, 44, 81
1, 28993, Note_on_c, 2, 51, 118
1, 28994, Note_off_c, 9, 46, 64
1, 28994, Note_on_c, 0, 68, 71
1, 28994, Note_on_c, 0, 75, 68
1, 28994, Note_on_c, 0, 72, 83
1, 29005, Note_off_c, 0, 75, 64
1, 29006, Note_off_c, 0, 72, 64
1, 29009, Note_off_c, 0, 68, 64
1, 29025, Note_off_c, 2, 51, 64
1, 29026, Note_on_c, 0, 75, 65
1, 29026, Note_on_c, 0, 68, 68
1, 29026, Note_on_c, 0, 72, 59
1, 29031, Note_off_c, 0, 44, 64
1, 29034, Note_off_c, 0, 72, 64
1, 29035, Note_off_c, 0, 51, 64
1, 29035, Note_off_c, 0, 75, 64
1, 29037, Note_off_c, 0, 68, 64
1, 29055, Note_on_c, 0, 51, 87
1, 29055, Note_on_c, 0, 44, 89
1, 29055, Note_on_c, 2, 51, 102
1, 29057, Note_on_c, 0, 75, 70
1, 29057, Note_on_c, 0, 68, 71
1, 29058, Note_on_c, 0, 72, 76
1, 29064, Note_off_c, 1, 39, 64
1, 29065, Note_off_c, 0, 72, 64
1, 29068, Note_off_c, 0, 75, 64
1, 29068, Note_off_c, 0, 68, 64
1, 29071, Note_off_c, 0, 44, 64
1, 29071, Note_off_c, 0, 51, 64
1, 29078, Note_off_c, 2, 51, 64
1, 29087, Note_on_c, 1, 41, 106
1, 29087, Note_on_c, 0, 53, 95
1, 29087, Note_on_c, 0, 44, 78
1, 29087, Note_on_c, 2, 53, 118
1, 29088, Lyric_t, "too "
1, 29088, Note_on_c, 3, 68, 105
1, 29088, Note_on_c, 4, 56, 99
1, 29088, Note_on_c, 9, 36, 116
1, 29089, Note_off_c, 9, 36, 64
1, 29089, Note_on_c, 0, 75, 75
1, 29089, Note_on_c, 0, 68, 75
1, 29090, Note_on_c, 0, 72, 86
1, 29098, Note_off_c, 0, 72, 64
1, 29099, Note_off_c, 0, 75, 64
1, 29101, Note_off_c, 0, 68, 64
1, 29117, Note_off_c, 0, 53, 64
1, 29120, Note_off_c, 0, 44, 64
1, 29121, Note_on_c, 0, 68, 75
1, 29121, Note_on_c, 0, 75, 71
1, 29122, Note_on_c, 0, 72, 88
1, 29128, Note_off_c, 0, 72, 64
1, 29128, Note_off_c, 0, 75, 64
1, 29130, Note_off_c, 2, 53, 64
1, 29132, Note_off_c, 0, 68, 64
1, 29134, Note_off_c, 3, 68, 64
1, 29151, Note_on_c, 0, 44, 92
1, 29151, Note_on_c, 0, 53, 85
1, 29152, Note_on_c, 2, 51, 107
1, 29153, Note_on_c, 0, 75, 76
1, 29153, Note_on_c, 0, 68, 77
1, 29153, Note_on_c, 0, 72, 91
1, 29160, Note_off_c, 0, 72, 64
1, 29160, Note_off_c, 0, 75, 64
1, 29162, Note_off_c, 0, 68, 64
1, 29165, Note_off_c, 1, 41, 64
1, 29169, Note_off_c, 0, 53, 64
1, 29172, Note_off_c, 2, 51, 64
1, 29176, Note_off_c, 0, 44, 64
1, 29183, Note_off_c, 4, 56, 64
1, 29183, Note_on_c, 0, 51, 115
1, 29183, Note_on_c, 2, 44, 123
1, 29184, Note_on_c, 4, 56, 94
1, 29184, Note_off_c, 5, 68, 64
1, 29184, Note_off_c, 5, 63, 64
1, 29184, Note_off_c, 5, 60, 64
1, 29184, Note_off_c, 5, 65, 64
1, 29184, Note_on_c, 6, 32, 96
1, 29184, Note_on_c, 6, 44, 78
1, 29184, Note_on_c, 9, 36, 111
1, 29184, Note_on_c, 1, 44, 112
1, 29185, Note_off_c, 9, 36, 64
1, 29185, Note_on_c, 0, 44, 115
1, 29187, Lyric_t, "much. "
1, 29187, Lyric_t, "\015"
1, 29187, Note_on_c, 3, 68, 107
1, 29221, Note_off_c, 0, 44, 64
1, 29225, Note_off_c, 0, 51, 64
1, 29235, Note_off_c, 6, 44, 64
1, 29236, Note_off_c, 2, 44, 64
1, 29240, Note_off_c, 3, 68, 64
1, 29241, Note_off_c, 6, 32, 64
1, 29255, Note_off_c, 1, 44, 64
1, 29277, Note_off_c, 4, 56, 64
1, 29568, Control_c, 9, 11, 0
1, 29568, End_track
0, 0, End_of_file
