0, 0, Header, 1, 9, 192
1, 0, Start_track
1, 0, Time_signature, 4, 2, 24, 8
1, 0, Key_signature, 0, "major"
1, 0, Tempo, 845070
1, 75264, Time_signature, 5, 2, 24, 8
1, 76224, Time_signature, 4, 2, 24, 8
1, 76224, End_track
2, 0, Start_track
2, 0, MIDI_port, 0
2, 0, Title_t, "DRUMS!              "
2, 0, Program_c, 9, 0
2, 378, Note_on_c, 9, 47, 94
2, 380, Note_on_c, 9, 47, 0
2, 432, Note_on_c, 9, 47, 98
2, 434, Note_on_c, 9, 47, 0
2, 480, Note_on_c, 9, 47, 102
2, 484, Note_on_c, 9, 47, 0
2, 530, Note_on_c, 9, 47, 106
2, 532, Note_on_c, 9, 47, 0
2, 580, Note_on_c, 9, 43, 110
2, 582, Note_on_c, 9, 43, 0
2, 626, Note_on_c, 9, 43, 114
2, 630, Note_on_c, 9, 43, 0
2, 676, Note_on_c, 9, 43, 118
2, 678, Note_on_c, 9, 43, 0
2, 724, Note_on_c, 9, 43, 122
2, 726, Note_on_c, 9, 43, 0
2, 768, Note_on_c, 9, 36, 122
2, 768, Note_on_c, 9, 49, 122
2, 776, Note_on_c, 9, 43, 126
2, 777, Note_on_c, 9, 43, 0
2, 792, Note_on_c, 9, 49, 0
2, 792, Note_on_c, 9, 36, 0
2, 1440, Note_on_c, 9, 49, 122
2, 1442, Note_on_c, 9, 36, 122
2, 1464, Note_on_c, 9, 49, 0
2, 1466, Note_on_c, 9, 36, 0
2, 1486, Note_on_c, 9, 49, 122
2, 1488, Note_on_c, 9, 36, 122
2, 1510, Note_on_c, 9, 49, 0
2, 1512, Note_on_c, 9, 36, 0
2, 1534, Note_on_c, 9, 49, 122
2, 1536, Note_on_c, 9, 36, 122
2, 1558, Note_on_c, 9, 49, 0
2, 1560, Note_on_c, 9, 36, 0
2, 2208, Note_on_c, 9, 36, 122
2, 2208, Note_on_c, 9, 49, 122
2, 2232, Note_on_c, 9, 49, 0
2, 2232, Note_on_c, 9, 36, 0
2, 2256, Note_on_c, 9, 36, 122
2, 2256, Note_on_c, 9, 49, 122
2, 2280, Note_on_c, 9, 49, 0
2, 2280, Note_on_c, 9, 36, 0
2, 2304, Note_on_c, 9, 36, 122
2, 2304, Note_on_c, 9, 49, 122
2, 2328, Note_on_c, 9, 49, 0
2, 2328, Note_on_c, 9, 36, 0
2, 2590, Note_on_c, 9, 36, 122
2, 2594, Note_on_c, 9, 49, 95
2, 2614, Note_on_c, 9, 36, 0
2, 2618, Note_on_c, 9, 49, 0
2, 2688, Note_on_c, 9, 36, 122
2, 2688, Note_on_c, 9, 49, 122
2, 2712, Note_on_c, 9, 49, 0
2, 2712, Note_on_c, 9, 36, 0
2, 2974, Note_on_c, 9, 36, 122
2, 2978, Note_on_c, 9, 49, 95
2, 2998, Note_on_c, 9, 36, 0
2, 3002, Note_on_c, 9, 49, 0
2, 3072, Note_on_c, 9, 49, 122
2, 3074, Note_on_c, 9, 36, 122
2, 3096, Note_on_c, 9, 49, 0
2, 3098, Note_on_c, 9, 36, 0
2, 3358, Note_on_c, 9, 36, 122
2, 3360, Note_on_c, 9, 49, 95
2, 3382, Note_on_c, 9, 36, 0
2, 3384, Note_on_c, 9, 49, 0
2, 3456, Note_on_c, 9, 36, 122
2, 3456, Note_on_c, 9, 49, 122
2, 3480, Note_on_c, 9, 49, 0
2, 3480, Note_on_c, 9, 36, 0
2, 3744, Note_on_c, 9, 36, 122
2, 3746, Note_on_c, 9, 49, 122
2, 3768, Note_on_c, 9, 36, 0
2, 3770, Note_on_c, 9, 49, 0
2, 3840, Note_on_c, 9, 36, 122
2, 3840, Note_on_c, 9, 49, 122
2, 3864, Note_on_c, 9, 49, 0
2, 3864, Note_on_c, 9, 36, 0
2, 4606, Note_on_c, 9, 36, 95
2, 4608, Note_on_c, 9, 42, 122
2, 4630, Note_on_c, 9, 36, 0
2, 4632, Note_on_c, 9, 42, 0
2, 4802, Note_on_c, 9, 42, 122
2, 4826, Note_on_c, 9, 42, 0
2, 4990, Note_on_c, 9, 42, 122
2, 4992, Note_on_c, 9, 36, 95
2, 5014, Note_on_c, 9, 42, 0
2, 5016, Note_on_c, 9, 36, 0
2, 5182, Note_on_c, 9, 36, 95
2, 5186, Note_on_c, 9, 42, 122
2, 5206, Note_on_c, 9, 36, 0
2, 5210, Note_on_c, 9, 42, 0
2, 5376, Note_on_c, 9, 42, 122
2, 5378, Note_on_c, 9, 36, 95
2, 5400, Note_on_c, 9, 42, 0
2, 5402, Note_on_c, 9, 36, 0
2, 5568, Note_on_c, 9, 42, 122
2, 5592, Note_on_c, 9, 42, 0
2, 5758, Note_on_c, 9, 42, 122
2, 5760, Note_on_c, 9, 36, 95
2, 5782, Note_on_c, 9, 42, 0
2, 5784, Note_on_c, 9, 36, 0
2, 5950, Note_on_c, 9, 36, 95
2, 5950, Note_on_c, 9, 42, 122
2, 5974, Note_on_c, 9, 42, 0
2, 5974, Note_on_c, 9, 36, 0
2, 6146, Note_on_c, 9, 36, 95
2, 6146, Note_on_c, 9, 42, 122
2, 6170, Note_on_c, 9, 42, 0
2, 6170, Note_on_c, 9, 36, 0
2, 6338, Note_on_c, 9, 42, 122
2, 6362, Note_on_c, 9, 42, 0
2, 6528, Note_on_c, 9, 36, 95
2, 6530, Note_on_c, 9, 42, 122
2, 6552, Note_on_c, 9, 36, 0
2, 6554, Note_on_c, 9, 42, 0
2, 6626, Note_on_c, 9, 36, 95
2, 6650, Note_on_c, 9, 36, 0
2, 6722, Note_on_c, 9, 42, 122
2, 6746, Note_on_c, 9, 42, 0
2, 6910, Note_on_c, 9, 36, 95
2, 6914, Note_on_c, 9, 42, 122
2, 6934, Note_on_c, 9, 36, 0
2, 6938, Note_on_c, 9, 42, 0
2, 7104, Note_on_c, 9, 42, 122
2, 7128, Note_on_c, 9, 42, 0
2, 7298, Note_on_c, 9, 36, 95
2, 7298, Note_on_c, 9, 42, 122
2, 7322, Note_on_c, 9, 42, 0
2, 7322, Note_on_c, 9, 36, 0
2, 7490, Note_on_c, 9, 42, 122
2, 7514, Note_on_c, 9, 42, 0
2, 7584, Note_on_c, 9, 36, 95
2, 7608, Note_on_c, 9, 36, 0
2, 7678, Note_on_c, 9, 42, 122
2, 7680, Note_on_c, 9, 36, 95
2, 7702, Note_on_c, 9, 42, 0
2, 7704, Note_on_c, 9, 36, 0
2, 7872, Note_on_c, 9, 42, 122
2, 7874, Note_on_c, 9, 38, 95
2, 7896, Note_on_c, 9, 42, 0
2, 7898, Note_on_c, 9, 38, 0
2, 8064, Note_on_c, 9, 36, 95
2, 8064, Note_on_c, 9, 42, 122
2, 8088, Note_on_c, 9, 42, 0
2, 8088, Note_on_c, 9, 36, 0
2, 8256, Note_on_c, 9, 38, 95
2, 8256, Note_on_c, 9, 42, 122
2, 8280, Note_on_c, 9, 42, 0
2, 8280, Note_on_c, 9, 38, 0
2, 8354, Note_on_c, 9, 36, 95
2, 8378, Note_on_c, 9, 36, 0
2, 8446, Note_on_c, 9, 36, 95
2, 8450, Note_on_c, 9, 42, 122
2, 8470, Note_on_c, 9, 36, 0
2, 8474, Note_on_c, 9, 42, 0
2, 8642, Note_on_c, 9, 42, 122
2, 8644, Note_on_c, 9, 38, 95
2, 8666, Note_on_c, 9, 42, 0
2, 8668, Note_on_c, 9, 38, 0
2, 8832, Note_on_c, 9, 36, 95
2, 8832, Note_on_c, 9, 42, 122
2, 8856, Note_on_c, 9, 42, 0
2, 8856, Note_on_c, 9, 36, 0
2, 9026, Note_on_c, 9, 38, 95
2, 9026, Note_on_c, 9, 42, 122
2, 9050, Note_on_c, 9, 42, 0
2, 9050, Note_on_c, 9, 38, 0
2, 9120, Note_on_c, 9, 36, 95
2, 9144, Note_on_c, 9, 36, 0
2, 9216, Note_on_c, 9, 36, 95
2, 9218, Note_on_c, 9, 42, 122
2, 9240, Note_on_c, 9, 36, 0
2, 9242, Note_on_c, 9, 42, 0
2, 9408, Note_on_c, 9, 42, 122
2, 9412, Note_on_c, 9, 38, 95
2, 9432, Note_on_c, 9, 42, 0
2, 9436, Note_on_c, 9, 38, 0
2, 9552, Note_on_c, 9, 36, 95
2, 9576, Note_on_c, 9, 36, 0
2, 9600, Note_on_c, 9, 36, 95
2, 9602, Note_on_c, 9, 42, 122
2, 9624, Note_on_c, 9, 36, 0
2, 9626, Note_on_c, 9, 42, 0
2, 9698, Note_on_c, 9, 36, 95
2, 9722, Note_on_c, 9, 36, 0
2, 9790, Note_on_c, 9, 42, 122
2, 9796, Note_on_c, 9, 38, 95
2, 9814, Note_on_c, 9, 42, 0
2, 9820, Note_on_c, 9, 38, 0
2, 9890, Note_on_c, 9, 36, 95
2, 9914, Note_on_c, 9, 36, 0
2, 9984, Note_on_c, 9, 36, 95
2, 9986, Note_on_c, 9, 42, 122
2, 10008, Note_on_c, 9, 36, 0
2, 10010, Note_on_c, 9, 42, 0
2, 10176, Note_on_c, 9, 38, 95
2, 10178, Note_on_c, 9, 42, 122
2, 10200, Note_on_c, 9, 38, 0
2, 10202, Note_on_c, 9, 42, 0
2, 10368, Note_on_c, 9, 42, 122
2, 10370, Note_on_c, 9, 36, 95
2, 10392, Note_on_c, 9, 42, 0
2, 10394, Note_on_c, 9, 36, 0
2, 10512, Note_on_c, 9, 36, 95
2, 10536, Note_on_c, 9, 36, 0
2, 10558, Note_on_c, 9, 38, 95
2, 10560, Note_on_c, 9, 42, 122
2, 10562, Note_on_c, 9, 36, 95
2, 10582, Note_on_c, 9, 38, 0
2, 10584, Note_on_c, 9, 42, 0
2, 10586, Note_on_c, 9, 36, 0
2, 10656, Note_on_c, 9, 36, 95
2, 10656, Note_on_c, 9, 38, 95
2, 10680, Note_on_c, 9, 38, 0
2, 10680, Note_on_c, 9, 36, 0
2, 10702, Note_on_c, 9, 38, 95
2, 10704, Note_on_c, 9, 36, 95
2, 10726, Note_on_c, 9, 38, 0
2, 10728, Note_on_c, 9, 36, 0
2, 10750, Note_on_c, 9, 42, 122
2, 10754, Note_on_c, 9, 36, 95
2, 10774, Note_on_c, 9, 42, 0
2, 10778, Note_on_c, 9, 36, 0
2, 10848, Note_on_c, 9, 42, 95
2, 10872, Note_on_c, 9, 42, 0
2, 10946, Note_on_c, 9, 38, 95
2, 10946, Note_on_c, 9, 42, 122
2, 10970, Note_on_c, 9, 42, 0
2, 10970, Note_on_c, 9, 38, 0
2, 11040, Note_on_c, 9, 42, 95
2, 11064, Note_on_c, 9, 42, 0
2, 11136, Note_on_c, 9, 36, 95
2, 11136, Note_on_c, 9, 42, 122
2, 11160, Note_on_c, 9, 42, 0
2, 11160, Note_on_c, 9, 36, 0
2, 11230, Note_on_c, 9, 42, 95
2, 11254, Note_on_c, 9, 42, 0
2, 11328, Note_on_c, 9, 36, 95
2, 11330, Note_on_c, 9, 38, 95
2, 11330, Note_on_c, 9, 42, 122
2, 11352, Note_on_c, 9, 36, 0
2, 11354, Note_on_c, 9, 42, 0
2, 11354, Note_on_c, 9, 38, 0
2, 11424, Note_on_c, 9, 42, 95
2, 11448, Note_on_c, 9, 42, 0
2, 11520, Note_on_c, 9, 42, 122
2, 11522, Note_on_c, 9, 36, 95
2, 11544, Note_on_c, 9, 42, 0
2, 11546, Note_on_c, 9, 36, 0
2, 11616, Note_on_c, 9, 42, 95
2, 11640, Note_on_c, 9, 42, 0
2, 11714, Note_on_c, 9, 38, 95
2, 11714, Note_on_c, 9, 42, 122
2, 11738, Note_on_c, 9, 42, 0
2, 11738, Note_on_c, 9, 38, 0
2, 11810, Note_on_c, 9, 42, 95
2, 11834, Note_on_c, 9, 42, 0
2, 11904, Note_on_c, 9, 36, 95
2, 11906, Note_on_c, 9, 42, 122
2, 11928, Note_on_c, 9, 36, 0
2, 11930, Note_on_c, 9, 42, 0
2, 12002, Note_on_c, 9, 42, 95
2, 12026, Note_on_c, 9, 42, 0
2, 12050, Note_on_c, 9, 36, 95
2, 12074, Note_on_c, 9, 36, 0
2, 12094, Note_on_c, 9, 42, 122
2, 12096, Note_on_c, 9, 36, 95
2, 12098, Note_on_c, 9, 38, 95
2, 12118, Note_on_c, 9, 42, 0
2, 12120, Note_on_c, 9, 36, 0
2, 12122, Note_on_c, 9, 38, 0
2, 12190, Note_on_c, 9, 42, 95
2, 12214, Note_on_c, 9, 42, 0
2, 12242, Note_on_c, 9, 36, 95
2, 12266, Note_on_c, 9, 36, 0
2, 12288, Note_on_c, 9, 36, 95
2, 12288, Note_on_c, 9, 42, 122
2, 12312, Note_on_c, 9, 42, 0
2, 12312, Note_on_c, 9, 36, 0
2, 12386, Note_on_c, 9, 42, 95
2, 12410, Note_on_c, 9, 42, 0
2, 12478, Note_on_c, 9, 38, 95
2, 12480, Note_on_c, 9, 42, 122
2, 12502, Note_on_c, 9, 38, 0
2, 12504, Note_on_c, 9, 42, 0
2, 12578, Note_on_c, 9, 42, 95
2, 12602, Note_on_c, 9, 42, 0
2, 12626, Note_on_c, 9, 36, 95
2, 12650, Note_on_c, 9, 36, 0
2, 12670, Note_on_c, 9, 42, 122
2, 12672, Note_on_c, 9, 36, 95
2, 12694, Note_on_c, 9, 42, 0
2, 12696, Note_on_c, 9, 36, 0
2, 12768, Note_on_c, 9, 42, 95
2, 12770, Note_on_c, 9, 36, 95
2, 12792, Note_on_c, 9, 42, 0
2, 12794, Note_on_c, 9, 36, 0
2, 12864, Note_on_c, 9, 42, 122
2, 12868, Note_on_c, 9, 38, 95
2, 12888, Note_on_c, 9, 42, 0
2, 12892, Note_on_c, 9, 38, 0
2, 12958, Note_on_c, 9, 42, 95
2, 12982, Note_on_c, 9, 42, 0
2, 13006, Note_on_c, 9, 36, 95
2, 13030, Note_on_c, 9, 36, 0
2, 13056, Note_on_c, 9, 36, 95
2, 13058, Note_on_c, 9, 42, 122
2, 13080, Note_on_c, 9, 36, 0
2, 13082, Note_on_c, 9, 42, 0
2, 13152, Note_on_c, 9, 42, 95
2, 13176, Note_on_c, 9, 42, 0
2, 13248, Note_on_c, 9, 42, 122
2, 13252, Note_on_c, 9, 38, 95
2, 13272, Note_on_c, 9, 42, 0
2, 13276, Note_on_c, 9, 38, 0
2, 13344, Note_on_c, 9, 42, 95
2, 13368, Note_on_c, 9, 42, 0
2, 13392, Note_on_c, 9, 36, 95
2, 13416, Note_on_c, 9, 36, 0
2, 13438, Note_on_c, 9, 36, 95
2, 13442, Note_on_c, 9, 42, 122
2, 13462, Note_on_c, 9, 36, 0
2, 13466, Note_on_c, 9, 42, 0
2, 13534, Note_on_c, 9, 36, 95
2, 13538, Note_on_c, 9, 42, 95
2, 13558, Note_on_c, 9, 36, 0
2, 13562, Note_on_c, 9, 42, 0
2, 13630, Note_on_c, 9, 36, 95
2, 13632, Note_on_c, 9, 38, 95
2, 13634, Note_on_c, 9, 42, 122
2, 13654, Note_on_c, 9, 36, 0
2, 13656, Note_on_c, 9, 38, 0
2, 13658, Note_on_c, 9, 42, 0
2, 13730, Note_on_c, 9, 42, 95
2, 13754, Note_on_c, 9, 42, 0
2, 13776, Note_on_c, 9, 36, 95
2, 13800, Note_on_c, 9, 36, 0
2, 13824, Note_on_c, 9, 51, 127
2, 13824, Note_on_c, 9, 36, 95
2, 13848, Note_on_c, 9, 36, 0
2, 13848, Note_on_c, 9, 51, 0
2, 13922, Note_on_c, 9, 51, 125
2, 13946, Note_on_c, 9, 51, 0
2, 14016, Note_on_c, 9, 51, 127
2, 14016, Note_on_c, 9, 38, 95
2, 14040, Note_on_c, 9, 38, 0
2, 14040, Note_on_c, 9, 51, 0
2, 14110, Note_on_c, 9, 51, 125
2, 14134, Note_on_c, 9, 51, 0
2, 14208, Note_on_c, 9, 51, 127
2, 14208, Note_on_c, 9, 36, 95
2, 14232, Note_on_c, 9, 36, 0
2, 14232, Note_on_c, 9, 51, 0
2, 14302, Note_on_c, 9, 51, 125
2, 14326, Note_on_c, 9, 51, 0
2, 14398, Note_on_c, 9, 36, 95
2, 14398, Note_on_c, 9, 38, 95
2, 14400, Note_on_c, 9, 51, 127
2, 14422, Note_on_c, 9, 38, 0
2, 14422, Note_on_c, 9, 36, 0
2, 14424, Note_on_c, 9, 51, 0
2, 14498, Note_on_c, 9, 51, 125
2, 14522, Note_on_c, 9, 51, 0
2, 14590, Note_on_c, 9, 51, 127
2, 14590, Note_on_c, 9, 36, 95
2, 14614, Note_on_c, 9, 36, 0
2, 14614, Note_on_c, 9, 51, 0
2, 14688, Note_on_c, 9, 51, 125
2, 14712, Note_on_c, 9, 51, 0
2, 14786, Note_on_c, 9, 51, 127
2, 14786, Note_on_c, 9, 38, 95
2, 14810, Note_on_c, 9, 38, 0
2, 14810, Note_on_c, 9, 51, 0
2, 14882, Note_on_c, 9, 51, 125
2, 14906, Note_on_c, 9, 51, 0
2, 14930, Note_on_c, 9, 36, 95
2, 14954, Note_on_c, 9, 36, 0
2, 14976, Note_on_c, 9, 36, 95
2, 14978, Note_on_c, 9, 51, 127
2, 15000, Note_on_c, 9, 36, 0
2, 15002, Note_on_c, 9, 51, 0
2, 15070, Note_on_c, 9, 51, 125
2, 15094, Note_on_c, 9, 51, 0
2, 15122, Note_on_c, 9, 36, 95
2, 15146, Note_on_c, 9, 36, 0
2, 15166, Note_on_c, 9, 51, 127
2, 15166, Note_on_c, 9, 38, 95
2, 15168, Note_on_c, 9, 36, 95
2, 15190, Note_on_c, 9, 38, 0
2, 15190, Note_on_c, 9, 51, 0
2, 15192, Note_on_c, 9, 36, 0
2, 15262, Note_on_c, 9, 51, 125
2, 15286, Note_on_c, 9, 51, 0
2, 15312, Note_on_c, 9, 36, 95
2, 15336, Note_on_c, 9, 36, 0
2, 15360, Note_on_c, 9, 36, 95
2, 15362, Note_on_c, 9, 51, 127
2, 15384, Note_on_c, 9, 36, 0
2, 15386, Note_on_c, 9, 51, 0
2, 15458, Note_on_c, 9, 51, 125
2, 15482, Note_on_c, 9, 51, 0
2, 15554, Note_on_c, 9, 51, 127
2, 15554, Note_on_c, 9, 38, 95
2, 15578, Note_on_c, 9, 38, 0
2, 15578, Note_on_c, 9, 51, 0
2, 15648, Note_on_c, 9, 51, 125
2, 15672, Note_on_c, 9, 51, 0
2, 15696, Note_on_c, 9, 36, 95
2, 15720, Note_on_c, 9, 36, 0
2, 15744, Note_on_c, 9, 51, 127
2, 15744, Note_on_c, 9, 36, 95
2, 15768, Note_on_c, 9, 36, 0
2, 15768, Note_on_c, 9, 51, 0
2, 15840, Note_on_c, 9, 36, 95
2, 15842, Note_on_c, 9, 51, 125
2, 15864, Note_on_c, 9, 36, 0
2, 15866, Note_on_c, 9, 51, 0
2, 15936, Note_on_c, 9, 51, 127
2, 15938, Note_on_c, 9, 38, 95
2, 15960, Note_on_c, 9, 51, 0
2, 15962, Note_on_c, 9, 38, 0
2, 16034, Note_on_c, 9, 51, 125
2, 16058, Note_on_c, 9, 51, 0
2, 16080, Note_on_c, 9, 36, 95
2, 16104, Note_on_c, 9, 36, 0
2, 16128, Note_on_c, 9, 36, 95
2, 16130, Note_on_c, 9, 51, 127
2, 16152, Note_on_c, 9, 36, 0
2, 16154, Note_on_c, 9, 51, 0
2, 16226, Note_on_c, 9, 51, 125
2, 16250, Note_on_c, 9, 51, 0
2, 16320, Note_on_c, 9, 38, 95
2, 16322, Note_on_c, 9, 51, 127
2, 16344, Note_on_c, 9, 38, 0
2, 16346, Note_on_c, 9, 51, 0
2, 16414, Note_on_c, 9, 51, 125
2, 16438, Note_on_c, 9, 51, 0
2, 16466, Note_on_c, 9, 36, 95
2, 16490, Note_on_c, 9, 36, 0
2, 16512, Note_on_c, 9, 51, 127
2, 16514, Note_on_c, 9, 36, 95
2, 16536, Note_on_c, 9, 51, 0
2, 16538, Note_on_c, 9, 36, 0
2, 16608, Note_on_c, 9, 36, 95
2, 16610, Note_on_c, 9, 51, 125
2, 16632, Note_on_c, 9, 36, 0
2, 16634, Note_on_c, 9, 51, 0
2, 16704, Note_on_c, 9, 36, 95
2, 16706, Note_on_c, 9, 51, 127
2, 16706, Note_on_c, 9, 38, 122
2, 16728, Note_on_c, 9, 36, 0
2, 16730, Note_on_c, 9, 38, 0
2, 16730, Note_on_c, 9, 51, 0
2, 16752, Note_on_c, 9, 51, 127
2, 16752, Note_on_c, 9, 36, 95
2, 16752, Note_on_c, 9, 38, 122
2, 16776, Note_on_c, 9, 38, 0
2, 16776, Note_on_c, 9, 36, 0
2, 16776, Note_on_c, 9, 51, 0
2, 16894, Note_on_c, 9, 36, 122
2, 16896, Note_on_c, 9, 49, 122
2, 16918, Note_on_c, 9, 36, 0
2, 16920, Note_on_c, 9, 49, 0
2, 17038, Note_on_c, 9, 36, 95
2, 17062, Note_on_c, 9, 36, 0
2, 17090, Note_on_c, 9, 36, 122
2, 17090, Note_on_c, 9, 38, 122
2, 17114, Note_on_c, 9, 38, 0
2, 17114, Note_on_c, 9, 36, 0
2, 17234, Note_on_c, 9, 36, 95
2, 17258, Note_on_c, 9, 36, 0
2, 17280, Note_on_c, 9, 36, 122
2, 17282, Note_on_c, 9, 38, 122
2, 17282, Note_on_c, 9, 49, 122
2, 17304, Note_on_c, 9, 36, 0
2, 17306, Note_on_c, 9, 49, 0
2, 17306, Note_on_c, 9, 38, 0
2, 17422, Note_on_c, 9, 36, 95
2, 17446, Note_on_c, 9, 36, 0
2, 17470, Note_on_c, 9, 36, 122
2, 17472, Note_on_c, 9, 49, 122
2, 17474, Note_on_c, 9, 38, 122
2, 17494, Note_on_c, 9, 36, 0
2, 17496, Note_on_c, 9, 49, 0
2, 17498, Note_on_c, 9, 38, 0
2, 17614, Note_on_c, 9, 36, 95
2, 17638, Note_on_c, 9, 36, 0
2, 17664, Note_on_c, 9, 36, 122
2, 17666, Note_on_c, 9, 49, 122
2, 17688, Note_on_c, 9, 36, 0
2, 17690, Note_on_c, 9, 49, 0
2, 17808, Note_on_c, 9, 36, 95
2, 17832, Note_on_c, 9, 36, 0
2, 17854, Note_on_c, 9, 36, 122
2, 17858, Note_on_c, 9, 38, 122
2, 17878, Note_on_c, 9, 36, 0
2, 17882, Note_on_c, 9, 38, 0
2, 18000, Note_on_c, 9, 36, 95
2, 18024, Note_on_c, 9, 36, 0
2, 18048, Note_on_c, 9, 36, 122
2, 18048, Note_on_c, 9, 49, 122
2, 18050, Note_on_c, 9, 38, 122
2, 18072, Note_on_c, 9, 49, 0
2, 18072, Note_on_c, 9, 36, 0
2, 18074, Note_on_c, 9, 38, 0
2, 18192, Note_on_c, 9, 36, 95
2, 18216, Note_on_c, 9, 36, 0
2, 18240, Note_on_c, 9, 36, 122
2, 18242, Note_on_c, 9, 49, 122
2, 18244, Note_on_c, 9, 38, 122
2, 18264, Note_on_c, 9, 36, 0
2, 18266, Note_on_c, 9, 49, 0
2, 18268, Note_on_c, 9, 38, 0
2, 18384, Note_on_c, 9, 36, 95
2, 18408, Note_on_c, 9, 36, 0
2, 18432, Note_on_c, 9, 36, 122
2, 18432, Note_on_c, 9, 49, 122
2, 18456, Note_on_c, 9, 49, 0
2, 18456, Note_on_c, 9, 36, 0
2, 18578, Note_on_c, 9, 36, 95
2, 18602, Note_on_c, 9, 36, 0
2, 18622, Note_on_c, 9, 42, 95
2, 18626, Note_on_c, 9, 36, 122
2, 18626, Note_on_c, 9, 38, 122
2, 18646, Note_on_c, 9, 42, 0
2, 18650, Note_on_c, 9, 38, 0
2, 18650, Note_on_c, 9, 36, 0
2, 18770, Note_on_c, 9, 36, 95
2, 18794, Note_on_c, 9, 36, 0
2, 18816, Note_on_c, 9, 36, 122
2, 18818, Note_on_c, 9, 42, 95
2, 18840, Note_on_c, 9, 36, 0
2, 18842, Note_on_c, 9, 42, 0
2, 18912, Note_on_c, 9, 36, 95
2, 18936, Note_on_c, 9, 36, 0
2, 19008, Note_on_c, 9, 42, 95
2, 19010, Note_on_c, 9, 38, 122
2, 19032, Note_on_c, 9, 42, 0
2, 19034, Note_on_c, 9, 38, 0
2, 19154, Note_on_c, 9, 36, 95
2, 19178, Note_on_c, 9, 36, 0
2, 19198, Note_on_c, 9, 36, 122
2, 19202, Note_on_c, 9, 49, 122
2, 19222, Note_on_c, 9, 36, 0
2, 19226, Note_on_c, 9, 49, 0
2, 19342, Note_on_c, 9, 36, 95
2, 19366, Note_on_c, 9, 36, 0
2, 19394, Note_on_c, 9, 36, 122
2, 19394, Note_on_c, 9, 38, 122
2, 19418, Note_on_c, 9, 38, 0
2, 19418, Note_on_c, 9, 36, 0
2, 19488, Note_on_c, 9, 36, 95
2, 19512, Note_on_c, 9, 36, 0
2, 19582, Note_on_c, 9, 36, 122
2, 19582, Note_on_c, 9, 38, 95
2, 19606, Note_on_c, 9, 38, 0
2, 19606, Note_on_c, 9, 36, 0
2, 19634, Note_on_c, 9, 38, 95
2, 19658, Note_on_c, 9, 38, 0
2, 19680, Note_on_c, 9, 36, 95
2, 19684, Note_on_c, 9, 38, 95
2, 19704, Note_on_c, 9, 36, 0
2, 19708, Note_on_c, 9, 38, 0
2, 19728, Note_on_c, 9, 38, 95
2, 19752, Note_on_c, 9, 38, 0
2, 19776, Note_on_c, 9, 36, 122
2, 19776, Note_on_c, 9, 38, 122
2, 19778, Note_on_c, 9, 49, 122
2, 19800, Note_on_c, 9, 38, 0
2, 19800, Note_on_c, 9, 36, 0
2, 19802, Note_on_c, 9, 49, 0
2, 19822, Note_on_c, 9, 36, 95
2, 19822, Note_on_c, 9, 38, 122
2, 19824, Note_on_c, 9, 49, 122
2, 19846, Note_on_c, 9, 38, 0
2, 19846, Note_on_c, 9, 36, 0
2, 19848, Note_on_c, 9, 49, 0
2, 19918, Note_on_c, 9, 36, 95
2, 19942, Note_on_c, 9, 36, 0
2, 19968, Note_on_c, 9, 36, 122
2, 19968, Note_on_c, 9, 49, 95
2, 19992, Note_on_c, 9, 49, 0
2, 19992, Note_on_c, 9, 36, 0
2, 20160, Note_on_c, 9, 38, 122
2, 20184, Note_on_c, 9, 38, 0
2, 20304, Note_on_c, 9, 36, 95
2, 20328, Note_on_c, 9, 36, 0
2, 20350, Note_on_c, 9, 36, 122
2, 20350, Note_on_c, 9, 49, 122
2, 20356, Note_on_c, 9, 38, 122
2, 20374, Note_on_c, 9, 49, 0
2, 20374, Note_on_c, 9, 36, 0
2, 20380, Note_on_c, 9, 38, 0
2, 20494, Note_on_c, 9, 36, 95
2, 20518, Note_on_c, 9, 36, 0
2, 20544, Note_on_c, 9, 36, 122
2, 20546, Note_on_c, 9, 38, 122
2, 20546, Note_on_c, 9, 49, 122
2, 20568, Note_on_c, 9, 36, 0
2, 20570, Note_on_c, 9, 49, 0
2, 20570, Note_on_c, 9, 38, 0
2, 20686, Note_on_c, 9, 36, 95
2, 20710, Note_on_c, 9, 36, 0
2, 20738, Note_on_c, 9, 36, 122
2, 20738, Note_on_c, 9, 49, 95
2, 20762, Note_on_c, 9, 49, 0
2, 20762, Note_on_c, 9, 36, 0
2, 20930, Note_on_c, 9, 38, 122
2, 20954, Note_on_c, 9, 38, 0
2, 21074, Note_on_c, 9, 36, 95
2, 21098, Note_on_c, 9, 36, 0
2, 21120, Note_on_c, 9, 36, 122
2, 21122, Note_on_c, 9, 38, 122
2, 21122, Note_on_c, 9, 49, 122
2, 21144, Note_on_c, 9, 36, 0
2, 21146, Note_on_c, 9, 49, 0
2, 21146, Note_on_c, 9, 38, 0
2, 21266, Note_on_c, 9, 36, 95
2, 21290, Note_on_c, 9, 36, 0
2, 21310, Note_on_c, 9, 36, 122
2, 21310, Note_on_c, 9, 49, 122
2, 21314, Note_on_c, 9, 38, 122
2, 21334, Note_on_c, 9, 49, 0
2, 21334, Note_on_c, 9, 36, 0
2, 21338, Note_on_c, 9, 38, 0
2, 21456, Note_on_c, 9, 36, 95
2, 21480, Note_on_c, 9, 36, 0
2, 21502, Note_on_c, 9, 36, 122
2, 21506, Note_on_c, 9, 49, 95
2, 21526, Note_on_c, 9, 36, 0
2, 21530, Note_on_c, 9, 49, 0
2, 21696, Note_on_c, 9, 42, 95
2, 21700, Note_on_c, 9, 38, 122
2, 21720, Note_on_c, 9, 42, 0
2, 21724, Note_on_c, 9, 38, 0
2, 21840, Note_on_c, 9, 36, 95
2, 21864, Note_on_c, 9, 36, 0
2, 21886, Note_on_c, 9, 42, 95
2, 21888, Note_on_c, 9, 36, 122
2, 21910, Note_on_c, 9, 42, 0
2, 21912, Note_on_c, 9, 36, 0
2, 21984, Note_on_c, 9, 36, 95
2, 22008, Note_on_c, 9, 36, 0
2, 22080, Note_on_c, 9, 36, 122
2, 22082, Note_on_c, 9, 38, 122
2, 22082, Note_on_c, 9, 42, 95
2, 22104, Note_on_c, 9, 36, 0
2, 22106, Note_on_c, 9, 42, 0
2, 22106, Note_on_c, 9, 38, 0
2, 22222, Note_on_c, 9, 36, 95
2, 22246, Note_on_c, 9, 36, 0
2, 22270, Note_on_c, 9, 36, 122
2, 22274, Note_on_c, 9, 42, 122
2, 22294, Note_on_c, 9, 36, 0
2, 22298, Note_on_c, 9, 42, 0
2, 22368, Note_on_c, 9, 42, 95
2, 22392, Note_on_c, 9, 42, 0
2, 22462, Note_on_c, 9, 38, 95
2, 22464, Note_on_c, 9, 42, 122
2, 22486, Note_on_c, 9, 38, 0
2, 22488, Note_on_c, 9, 42, 0
2, 22560, Note_on_c, 9, 42, 95
2, 22584, Note_on_c, 9, 42, 0
2, 22654, Note_on_c, 9, 36, 122
2, 22656, Note_on_c, 9, 42, 122
2, 22678, Note_on_c, 9, 36, 0
2, 22680, Note_on_c, 9, 42, 0
2, 22846, Note_on_c, 9, 42, 122
2, 22848, Note_on_c, 9, 36, 122
2, 22870, Note_on_c, 9, 42, 0
2, 22872, Note_on_c, 9, 36, 0
2, 23038, Note_on_c, 9, 42, 122
2, 23040, Note_on_c, 9, 36, 95
2, 23062, Note_on_c, 9, 42, 0
2, 23064, Note_on_c, 9, 36, 0
2, 23232, Note_on_c, 9, 42, 122
2, 23256, Note_on_c, 9, 42, 0
2, 23424, Note_on_c, 9, 36, 95
2, 23424, Note_on_c, 9, 42, 122
2, 23448, Note_on_c, 9, 42, 0
2, 23448, Note_on_c, 9, 36, 0
2, 23616, Note_on_c, 9, 42, 122
2, 23618, Note_on_c, 9, 36, 95
2, 23640, Note_on_c, 9, 42, 0
2, 23642, Note_on_c, 9, 36, 0
2, 23808, Note_on_c, 9, 36, 95
2, 23810, Note_on_c, 9, 42, 122
2, 23832, Note_on_c, 9, 36, 0
2, 23834, Note_on_c, 9, 42, 0
2, 24000, Note_on_c, 9, 42, 122
2, 24024, Note_on_c, 9, 42, 0
2, 24190, Note_on_c, 9, 36, 95
2, 24192, Note_on_c, 9, 42, 122
2, 24214, Note_on_c, 9, 36, 0
2, 24216, Note_on_c, 9, 42, 0
2, 24384, Note_on_c, 9, 36, 95
2, 24386, Note_on_c, 9, 42, 122
2, 24408, Note_on_c, 9, 36, 0
2, 24410, Note_on_c, 9, 42, 0
2, 24482, Note_on_c, 9, 42, 95
2, 24506, Note_on_c, 9, 42, 0
2, 24576, Note_on_c, 9, 36, 95
2, 24578, Note_on_c, 9, 42, 122
2, 24600, Note_on_c, 9, 36, 0
2, 24602, Note_on_c, 9, 42, 0
2, 24770, Note_on_c, 9, 42, 122
2, 24794, Note_on_c, 9, 42, 0
2, 24960, Note_on_c, 9, 36, 95
2, 24960, Note_on_c, 9, 42, 122
2, 24984, Note_on_c, 9, 42, 0
2, 24984, Note_on_c, 9, 36, 0
2, 25056, Note_on_c, 9, 36, 95
2, 25080, Note_on_c, 9, 36, 0
2, 25152, Note_on_c, 9, 42, 122
2, 25176, Note_on_c, 9, 42, 0
2, 25344, Note_on_c, 9, 36, 95
2, 25346, Note_on_c, 9, 42, 122
2, 25368, Note_on_c, 9, 36, 0
2, 25370, Note_on_c, 9, 42, 0
2, 25538, Note_on_c, 9, 42, 122
2, 25562, Note_on_c, 9, 42, 0
2, 25682, Note_on_c, 9, 36, 95
2, 25706, Note_on_c, 9, 36, 0
2, 25730, Note_on_c, 9, 36, 122
2, 25730, Note_on_c, 9, 42, 122
2, 25754, Note_on_c, 9, 42, 0
2, 25754, Note_on_c, 9, 36, 0
2, 25826, Note_on_c, 9, 36, 95
2, 25850, Note_on_c, 9, 36, 0
2, 25920, Note_on_c, 9, 42, 122
2, 25944, Note_on_c, 9, 42, 0
2, 26110, Note_on_c, 9, 36, 95
2, 26112, Note_on_c, 9, 42, 122
2, 26134, Note_on_c, 9, 36, 0
2, 26136, Note_on_c, 9, 42, 0
2, 26302, Note_on_c, 9, 42, 122
2, 26306, Note_on_c, 9, 38, 95
2, 26326, Note_on_c, 9, 42, 0
2, 26330, Note_on_c, 9, 38, 0
2, 26494, Note_on_c, 9, 36, 95
2, 26496, Note_on_c, 9, 42, 122
2, 26518, Note_on_c, 9, 36, 0
2, 26520, Note_on_c, 9, 42, 0
2, 26686, Note_on_c, 9, 42, 122
2, 26688, Note_on_c, 9, 36, 95
2, 26690, Note_on_c, 9, 38, 95
2, 26710, Note_on_c, 9, 42, 0
2, 26712, Note_on_c, 9, 36, 0
2, 26714, Note_on_c, 9, 38, 0
2, 26882, Note_on_c, 9, 36, 95
2, 26882, Note_on_c, 9, 42, 122
2, 26906, Note_on_c, 9, 42, 0
2, 26906, Note_on_c, 9, 36, 0
2, 27072, Note_on_c, 9, 38, 95
2, 27072, Note_on_c, 9, 42, 122
2, 27096, Note_on_c, 9, 42, 0
2, 27096, Note_on_c, 9, 38, 0
2, 27264, Note_on_c, 9, 36, 95
2, 27264, Note_on_c, 9, 42, 122
2, 27288, Note_on_c, 9, 42, 0
2, 27288, Note_on_c, 9, 36, 0
2, 27456, Note_on_c, 9, 36, 95
2, 27458, Note_on_c, 9, 38, 95
2, 27458, Note_on_c, 9, 42, 122
2, 27480, Note_on_c, 9, 36, 0
2, 27482, Note_on_c, 9, 42, 0
2, 27482, Note_on_c, 9, 38, 0
2, 27646, Note_on_c, 9, 36, 95
2, 27648, Note_on_c, 9, 42, 122
2, 27670, Note_on_c, 9, 36, 0
2, 27672, Note_on_c, 9, 42, 0
2, 27840, Note_on_c, 9, 42, 122
2, 27842, Note_on_c, 9, 38, 95
2, 27864, Note_on_c, 9, 42, 0
2, 27866, Note_on_c, 9, 38, 0
2, 27984, Note_on_c, 9, 36, 95
2, 28008, Note_on_c, 9, 36, 0
2, 28032, Note_on_c, 9, 36, 122
2, 28034, Note_on_c, 9, 42, 122
2, 28056, Note_on_c, 9, 36, 0
2, 28058, Note_on_c, 9, 42, 0
2, 28130, Note_on_c, 9, 36, 95
2, 28154, Note_on_c, 9, 36, 0
2, 28222, Note_on_c, 9, 42, 122
2, 28228, Note_on_c, 9, 38, 95
2, 28246, Note_on_c, 9, 42, 0
2, 28252, Note_on_c, 9, 38, 0
2, 28418, Note_on_c, 9, 36, 95
2, 28418, Note_on_c, 9, 42, 122
2, 28442, Note_on_c, 9, 42, 0
2, 28442, Note_on_c, 9, 36, 0
2, 28606, Note_on_c, 9, 42, 122
2, 28608, Note_on_c, 9, 38, 95
2, 28630, Note_on_c, 9, 42, 0
2, 28632, Note_on_c, 9, 38, 0
2, 28800, Note_on_c, 9, 36, 122
2, 28802, Note_on_c, 9, 42, 122
2, 28824, Note_on_c, 9, 36, 0
2, 28826, Note_on_c, 9, 42, 0
2, 28898, Note_on_c, 9, 36, 95
2, 28922, Note_on_c, 9, 36, 0
2, 28990, Note_on_c, 9, 36, 95
2, 28994, Note_on_c, 9, 38, 122
2, 28994, Note_on_c, 9, 42, 122
2, 29014, Note_on_c, 9, 36, 0
2, 29018, Note_on_c, 9, 42, 0
2, 29018, Note_on_c, 9, 38, 0
2, 29086, Note_on_c, 9, 36, 95
2, 29092, Note_on_c, 9, 38, 95
2, 29110, Note_on_c, 9, 36, 0
2, 29116, Note_on_c, 9, 38, 0
2, 29136, Note_on_c, 9, 36, 95
2, 29138, Note_on_c, 9, 38, 95
2, 29160, Note_on_c, 9, 36, 0
2, 29162, Note_on_c, 9, 38, 0
2, 29182, Note_on_c, 9, 36, 122
2, 29184, Note_on_c, 9, 42, 122
2, 29206, Note_on_c, 9, 36, 0
2, 29208, Note_on_c, 9, 42, 0
2, 29280, Note_on_c, 9, 36, 95
2, 29280, Note_on_c, 9, 42, 95
2, 29304, Note_on_c, 9, 42, 0
2, 29304, Note_on_c, 9, 36, 0
2, 29376, Note_on_c, 9, 38, 95
2, 29376, Note_on_c, 9, 42, 122
2, 29400, Note_on_c, 9, 42, 0
2, 29400, Note_on_c, 9, 38, 0
2, 29474, Note_on_c, 9, 42, 95
2, 29498, Note_on_c, 9, 42, 0
2, 29520, Note_on_c, 9, 36, 95
2, 29544, Note_on_c, 9, 36, 0
2, 29568, Note_on_c, 9, 36, 122
2, 29568, Note_on_c, 9, 42, 122
2, 29592, Note_on_c, 9, 42, 0
2, 29592, Note_on_c, 9, 36, 0
2, 29664, Note_on_c, 9, 42, 95
2, 29688, Note_on_c, 9, 42, 0
2, 29710, Note_on_c, 9, 36, 95
2, 29734, Note_on_c, 9, 36, 0
2, 29760, Note_on_c, 9, 36, 122
2, 29760, Note_on_c, 9, 38, 95
2, 29760, Note_on_c, 9, 42, 122
2, 29784, Note_on_c, 9, 42, 0
2, 29784, Note_on_c, 9, 38, 0
2, 29784, Note_on_c, 9, 36, 0
2, 29858, Note_on_c, 9, 42, 95
2, 29882, Note_on_c, 9, 42, 0
2, 29904, Note_on_c, 9, 36, 95
2, 29928, Note_on_c, 9, 36, 0
2, 29952, Note_on_c, 9, 36, 122
2, 29952, Note_on_c, 9, 42, 122
2, 29976, Note_on_c, 9, 42, 0
2, 29976, Note_on_c, 9, 36, 0
2, 30050, Note_on_c, 9, 42, 95
2, 30074, Note_on_c, 9, 42, 0
2, 30144, Note_on_c, 9, 38, 95
2, 30144, Note_on_c, 9, 42, 122
2, 30168, Note_on_c, 9, 42, 0
2, 30168, Note_on_c, 9, 38, 0
2, 30242, Note_on_c, 9, 42, 95
2, 30266, Note_on_c, 9, 42, 0
2, 30290, Note_on_c, 9, 36, 95
2, 30314, Note_on_c, 9, 36, 0
2, 30336, Note_on_c, 9, 36, 122
2, 30338, Note_on_c, 9, 42, 122
2, 30360, Note_on_c, 9, 36, 0
2, 30362, Note_on_c, 9, 42, 0
2, 30434, Note_on_c, 9, 42, 95
2, 30458, Note_on_c, 9, 42, 0
2, 30480, Note_on_c, 9, 36, 95
2, 30504, Note_on_c, 9, 36, 0
2, 30528, Note_on_c, 9, 36, 122
2, 30530, Note_on_c, 9, 42, 122
2, 30532, Note_on_c, 9, 38, 95
2, 30552, Note_on_c, 9, 36, 0
2, 30554, Note_on_c, 9, 42, 0
2, 30556, Note_on_c, 9, 38, 0
2, 30624, Note_on_c, 9, 42, 95
2, 30648, Note_on_c, 9, 42, 0
2, 30670, Note_on_c, 9, 36, 95
2, 30694, Note_on_c, 9, 36, 0
2, 30720, Note_on_c, 9, 36, 122
2, 30720, Note_on_c, 9, 42, 122
2, 30744, Note_on_c, 9, 42, 0
2, 30744, Note_on_c, 9, 36, 0
2, 30814, Note_on_c, 9, 42, 95
2, 30838, Note_on_c, 9, 42, 0
2, 30912, Note_on_c, 9, 38, 95
2, 30914, Note_on_c, 9, 42, 122
2, 30936, Note_on_c, 9, 38, 0
2, 30938, Note_on_c, 9, 42, 0
2, 31010, Note_on_c, 9, 42, 95
2, 31034, Note_on_c, 9, 42, 0
2, 31054, Note_on_c, 9, 36, 95
2, 31078, Note_on_c, 9, 36, 0
2, 31104, Note_on_c, 9, 36, 122
2, 31106, Note_on_c, 9, 42, 122
2, 31128, Note_on_c, 9, 36, 0
2, 31130, Note_on_c, 9, 42, 0
2, 31198, Note_on_c, 9, 36, 95
2, 31202, Note_on_c, 9, 42, 95
2, 31222, Note_on_c, 9, 36, 0
2, 31226, Note_on_c, 9, 42, 0
2, 31296, Note_on_c, 9, 38, 95
2, 31298, Note_on_c, 9, 42, 122
2, 31320, Note_on_c, 9, 38, 0
2, 31322, Note_on_c, 9, 42, 0
2, 31394, Note_on_c, 9, 42, 95
2, 31418, Note_on_c, 9, 42, 0
2, 31440, Note_on_c, 9, 36, 95
2, 31464, Note_on_c, 9, 36, 0
2, 31486, Note_on_c, 9, 36, 122
2, 31490, Note_on_c, 9, 42, 122
2, 31510, Note_on_c, 9, 36, 0
2, 31514, Note_on_c, 9, 42, 0
2, 31584, Note_on_c, 9, 42, 95
2, 31586, Note_on_c, 9, 36, 95
2, 31608, Note_on_c, 9, 42, 0
2, 31610, Note_on_c, 9, 36, 0
2, 31678, Note_on_c, 9, 42, 122
2, 31682, Note_on_c, 9, 38, 95
2, 31702, Note_on_c, 9, 42, 0
2, 31706, Note_on_c, 9, 38, 0
2, 31778, Note_on_c, 9, 42, 95
2, 31802, Note_on_c, 9, 42, 0
2, 31826, Note_on_c, 9, 36, 95
2, 31850, Note_on_c, 9, 36, 0
2, 31870, Note_on_c, 9, 42, 122
2, 31872, Note_on_c, 9, 36, 122
2, 31894, Note_on_c, 9, 42, 0
2, 31896, Note_on_c, 9, 36, 0
2, 31968, Note_on_c, 9, 36, 95
2, 31970, Note_on_c, 9, 42, 95
2, 31992, Note_on_c, 9, 36, 0
2, 31994, Note_on_c, 9, 42, 0
2, 32016, Note_on_c, 9, 38, 95
2, 32040, Note_on_c, 9, 38, 0
2, 32062, Note_on_c, 9, 38, 122
2, 32064, Note_on_c, 9, 42, 122
2, 32086, Note_on_c, 9, 38, 0
2, 32088, Note_on_c, 9, 42, 0
2, 32162, Note_on_c, 9, 42, 95
2, 32186, Note_on_c, 9, 42, 0
2, 32210, Note_on_c, 9, 36, 95
2, 32234, Note_on_c, 9, 36, 0
2, 32256, Note_on_c, 9, 36, 122
2, 32258, Note_on_c, 9, 42, 122
2, 32280, Note_on_c, 9, 36, 0
2, 32282, Note_on_c, 9, 42, 0
2, 32352, Note_on_c, 9, 42, 95
2, 32376, Note_on_c, 9, 42, 0
2, 32446, Note_on_c, 9, 36, 95
2, 32446, Note_on_c, 9, 42, 122
2, 32450, Note_on_c, 9, 38, 95
2, 32470, Note_on_c, 9, 42, 0
2, 32470, Note_on_c, 9, 36, 0
2, 32474, Note_on_c, 9, 38, 0
2, 32546, Note_on_c, 9, 42, 95
2, 32570, Note_on_c, 9, 42, 0
2, 32594, Note_on_c, 9, 36, 95
2, 32618, Note_on_c, 9, 36, 0
2, 32640, Note_on_c, 9, 36, 122
2, 32642, Note_on_c, 9, 42, 122
2, 32664, Note_on_c, 9, 36, 0
2, 32666, Note_on_c, 9, 42, 0
2, 32738, Note_on_c, 9, 42, 95
2, 32762, Note_on_c, 9, 42, 0
2, 32784, Note_on_c, 9, 36, 95
2, 32808, Note_on_c, 9, 36, 0
2, 32832, Note_on_c, 9, 38, 95
2, 32834, Note_on_c, 9, 36, 122
2, 32834, Note_on_c, 9, 42, 122
2, 32856, Note_on_c, 9, 38, 0
2, 32858, Note_on_c, 9, 42, 0
2, 32858, Note_on_c, 9, 36, 0
2, 32930, Note_on_c, 9, 42, 95
2, 32954, Note_on_c, 9, 42, 0
2, 33024, Note_on_c, 9, 36, 122
2, 33026, Note_on_c, 9, 42, 122
2, 33048, Note_on_c, 9, 36, 0
2, 33050, Note_on_c, 9, 42, 0
2, 33120, Note_on_c, 9, 42, 95
2, 33144, Note_on_c, 9, 42, 0
2, 33216, Note_on_c, 9, 42, 122
2, 33220, Note_on_c, 9, 38, 95
2, 33240, Note_on_c, 9, 42, 0
2, 33244, Note_on_c, 9, 38, 0
2, 33312, Note_on_c, 9, 42, 95
2, 33336, Note_on_c, 9, 42, 0
2, 33406, Note_on_c, 9, 36, 122
2, 33406, Note_on_c, 9, 42, 122
2, 33430, Note_on_c, 9, 42, 0
2, 33430, Note_on_c, 9, 36, 0
2, 33504, Note_on_c, 9, 42, 95
2, 33528, Note_on_c, 9, 42, 0
2, 33598, Note_on_c, 9, 42, 122
2, 33600, Note_on_c, 9, 36, 122
2, 33600, Note_on_c, 9, 38, 95
2, 33622, Note_on_c, 9, 42, 0
2, 33624, Note_on_c, 9, 38, 0
2, 33624, Note_on_c, 9, 36, 0
2, 33694, Note_on_c, 9, 42, 95
2, 33718, Note_on_c, 9, 42, 0
2, 33744, Note_on_c, 9, 36, 95
2, 33768, Note_on_c, 9, 36, 0
2, 33790, Note_on_c, 9, 36, 122
2, 33792, Note_on_c, 9, 42, 122
2, 33814, Note_on_c, 9, 36, 0
2, 33816, Note_on_c, 9, 42, 0
2, 33888, Note_on_c, 9, 42, 95
2, 33912, Note_on_c, 9, 42, 0
2, 33984, Note_on_c, 9, 38, 95
2, 33986, Note_on_c, 9, 42, 122
2, 34008, Note_on_c, 9, 38, 0
2, 34010, Note_on_c, 9, 42, 0
2, 34082, Note_on_c, 9, 42, 95
2, 34106, Note_on_c, 9, 42, 0
2, 34128, Note_on_c, 9, 36, 95
2, 34152, Note_on_c, 9, 36, 0
2, 34174, Note_on_c, 9, 42, 122
2, 34178, Note_on_c, 9, 36, 122
2, 34198, Note_on_c, 9, 42, 0
2, 34202, Note_on_c, 9, 36, 0
2, 34270, Note_on_c, 9, 36, 95
2, 34272, Note_on_c, 9, 42, 95
2, 34294, Note_on_c, 9, 36, 0
2, 34296, Note_on_c, 9, 42, 0
2, 34366, Note_on_c, 9, 42, 122
2, 34370, Note_on_c, 9, 38, 95
2, 34390, Note_on_c, 9, 42, 0
2, 34394, Note_on_c, 9, 38, 0
2, 34462, Note_on_c, 9, 42, 95
2, 34486, Note_on_c, 9, 42, 0
2, 34510, Note_on_c, 9, 36, 95
2, 34534, Note_on_c, 9, 36, 0
2, 34558, Note_on_c, 9, 36, 122
2, 34558, Note_on_c, 9, 42, 122
2, 34560, Note_on_c, 9, 51, 127
2, 34582, Note_on_c, 9, 42, 0
2, 34582, Note_on_c, 9, 36, 0
2, 34584, Note_on_c, 9, 51, 0
2, 34656, Note_on_c, 9, 42, 95
2, 34658, Note_on_c, 9, 51, 125
2, 34680, Note_on_c, 9, 42, 0
2, 34682, Note_on_c, 9, 51, 0
2, 34706, Note_on_c, 9, 36, 95
2, 34730, Note_on_c, 9, 36, 0
2, 34752, Note_on_c, 9, 51, 127
2, 34752, Note_on_c, 9, 36, 122
2, 34752, Note_on_c, 9, 42, 122
2, 34754, Note_on_c, 9, 38, 95
2, 34776, Note_on_c, 9, 42, 0
2, 34776, Note_on_c, 9, 51, 0
2, 34776, Note_on_c, 9, 36, 0
2, 34778, Note_on_c, 9, 38, 0
2, 34846, Note_on_c, 9, 51, 125
2, 34846, Note_on_c, 9, 42, 95
2, 34870, Note_on_c, 9, 42, 0
2, 34870, Note_on_c, 9, 51, 0
2, 34894, Note_on_c, 9, 36, 95
2, 34918, Note_on_c, 9, 36, 0
2, 34944, Note_on_c, 9, 51, 127
2, 34944, Note_on_c, 9, 36, 122
2, 34946, Note_on_c, 9, 42, 122
2, 34968, Note_on_c, 9, 36, 0
2, 34968, Note_on_c, 9, 51, 0
2, 34970, Note_on_c, 9, 42, 0
2, 35038, Note_on_c, 9, 51, 125
2, 35042, Note_on_c, 9, 36, 95
2, 35042, Note_on_c, 9, 42, 95
2, 35062, Note_on_c, 9, 51, 0
2, 35066, Note_on_c, 9, 42, 0
2, 35066, Note_on_c, 9, 36, 0
2, 35134, Note_on_c, 9, 42, 122
2, 35136, Note_on_c, 9, 51, 127
2, 35136, Note_on_c, 9, 38, 95
2, 35158, Note_on_c, 9, 42, 0
2, 35160, Note_on_c, 9, 38, 0
2, 35160, Note_on_c, 9, 51, 0
2, 35232, Note_on_c, 9, 44, 122
2, 35234, Note_on_c, 9, 51, 125
2, 35256, Note_on_c, 9, 44, 0
2, 35258, Note_on_c, 9, 51, 0
2, 35278, Note_on_c, 9, 36, 95
2, 35302, Note_on_c, 9, 36, 0
2, 35326, Note_on_c, 9, 51, 127
2, 35328, Note_on_c, 9, 36, 122
2, 35328, Note_on_c, 9, 42, 122
2, 35350, Note_on_c, 9, 51, 0
2, 35352, Note_on_c, 9, 42, 0
2, 35352, Note_on_c, 9, 36, 0
2, 35424, Note_on_c, 9, 51, 125
2, 35424, Note_on_c, 9, 42, 95
2, 35448, Note_on_c, 9, 42, 0
2, 35448, Note_on_c, 9, 51, 0
2, 35474, Note_on_c, 9, 36, 95
2, 35498, Note_on_c, 9, 36, 0
2, 35522, Note_on_c, 9, 51, 127
2, 35522, Note_on_c, 9, 42, 122
2, 35524, Note_on_c, 9, 38, 95
2, 35546, Note_on_c, 9, 42, 0
2, 35546, Note_on_c, 9, 51, 0
2, 35548, Note_on_c, 9, 38, 0
2, 35616, Note_on_c, 9, 42, 95
2, 35618, Note_on_c, 9, 51, 125
2, 35640, Note_on_c, 9, 42, 0
2, 35642, Note_on_c, 9, 51, 0
2, 35664, Note_on_c, 9, 36, 95
2, 35688, Note_on_c, 9, 36, 0
2, 35712, Note_on_c, 9, 36, 122
2, 35712, Note_on_c, 9, 42, 122
2, 35714, Note_on_c, 9, 51, 127
2, 35736, Note_on_c, 9, 42, 0
2, 35736, Note_on_c, 9, 36, 0
2, 35738, Note_on_c, 9, 51, 0
2, 35806, Note_on_c, 9, 51, 125
2, 35808, Note_on_c, 9, 42, 95
2, 35830, Note_on_c, 9, 51, 0
2, 35832, Note_on_c, 9, 42, 0
2, 35854, Note_on_c, 9, 36, 95
2, 35878, Note_on_c, 9, 36, 0
2, 35902, Note_on_c, 9, 51, 127
2, 35904, Note_on_c, 9, 38, 95
2, 35904, Note_on_c, 9, 42, 122
2, 35906, Note_on_c, 9, 36, 122
2, 35926, Note_on_c, 9, 51, 0
2, 35928, Note_on_c, 9, 38, 0
2, 35928, Note_on_c, 9, 42, 0
2, 35930, Note_on_c, 9, 36, 0
2, 35998, Note_on_c, 9, 51, 125
2, 36000, Note_on_c, 9, 42, 95
2, 36022, Note_on_c, 9, 51, 0
2, 36024, Note_on_c, 9, 42, 0
2, 36048, Note_on_c, 9, 36, 95
2, 36072, Note_on_c, 9, 36, 0
2, 36094, Note_on_c, 9, 36, 122
2, 36098, Note_on_c, 9, 51, 127
2, 36098, Note_on_c, 9, 42, 122
2, 36118, Note_on_c, 9, 36, 0
2, 36122, Note_on_c, 9, 42, 0
2, 36122, Note_on_c, 9, 51, 0
2, 36190, Note_on_c, 9, 42, 95
2, 36194, Note_on_c, 9, 51, 125
2, 36214, Note_on_c, 9, 42, 0
2, 36218, Note_on_c, 9, 51, 0
2, 36240, Note_on_c, 9, 36, 95
2, 36264, Note_on_c, 9, 36, 0
2, 36286, Note_on_c, 9, 38, 95
2, 36290, Note_on_c, 9, 51, 127
2, 36290, Note_on_c, 9, 42, 122
2, 36310, Note_on_c, 9, 38, 0
2, 36314, Note_on_c, 9, 42, 0
2, 36314, Note_on_c, 9, 51, 0
2, 36382, Note_on_c, 9, 42, 95
2, 36384, Note_on_c, 9, 51, 125
2, 36406, Note_on_c, 9, 42, 0
2, 36408, Note_on_c, 9, 51, 0
2, 36432, Note_on_c, 9, 36, 95
2, 36456, Note_on_c, 9, 36, 0
2, 36480, Note_on_c, 9, 51, 127
2, 36480, Note_on_c, 9, 36, 122
2, 36480, Note_on_c, 9, 42, 122
2, 36504, Note_on_c, 9, 42, 0
2, 36504, Note_on_c, 9, 36, 0
2, 36504, Note_on_c, 9, 51, 0
2, 36578, Note_on_c, 9, 51, 125
2, 36578, Note_on_c, 9, 42, 95
2, 36602, Note_on_c, 9, 42, 0
2, 36602, Note_on_c, 9, 51, 0
2, 36624, Note_on_c, 9, 36, 95
2, 36648, Note_on_c, 9, 36, 0
2, 36672, Note_on_c, 9, 51, 127
2, 36672, Note_on_c, 9, 36, 122
2, 36674, Note_on_c, 9, 38, 95
2, 36674, Note_on_c, 9, 42, 122
2, 36696, Note_on_c, 9, 36, 0
2, 36696, Note_on_c, 9, 51, 0
2, 36698, Note_on_c, 9, 38, 0
2, 36698, Note_on_c, 9, 42, 0
2, 36720, Note_on_c, 9, 36, 95
2, 36744, Note_on_c, 9, 36, 0
2, 36768, Note_on_c, 9, 42, 95
2, 36770, Note_on_c, 9, 51, 125
2, 36792, Note_on_c, 9, 42, 0
2, 36794, Note_on_c, 9, 51, 0
2, 36814, Note_on_c, 9, 36, 95
2, 36838, Note_on_c, 9, 36, 0
2, 36862, Note_on_c, 9, 42, 122
2, 36864, Note_on_c, 9, 36, 122
2, 36866, Note_on_c, 9, 51, 127
2, 36886, Note_on_c, 9, 42, 0
2, 36888, Note_on_c, 9, 36, 0
2, 36890, Note_on_c, 9, 51, 0
2, 36962, Note_on_c, 9, 51, 125
2, 36962, Note_on_c, 9, 42, 95
2, 36986, Note_on_c, 9, 42, 0
2, 36986, Note_on_c, 9, 51, 0
2, 37008, Note_on_c, 9, 38, 95
2, 37032, Note_on_c, 9, 38, 0
2, 37054, Note_on_c, 9, 38, 122
2, 37056, Note_on_c, 9, 36, 95
2, 37056, Note_on_c, 9, 42, 122
2, 37058, Note_on_c, 9, 51, 127
2, 37078, Note_on_c, 9, 38, 0
2, 37080, Note_on_c, 9, 36, 0
2, 37080, Note_on_c, 9, 42, 0
2, 37082, Note_on_c, 9, 51, 0
2, 37104, Note_on_c, 9, 36, 122
2, 37104, Note_on_c, 9, 38, 95
2, 37128, Note_on_c, 9, 38, 0
2, 37128, Note_on_c, 9, 36, 0
2, 37150, Note_on_c, 9, 51, 125
2, 37152, Note_on_c, 9, 42, 95
2, 37174, Note_on_c, 9, 51, 0
2, 37176, Note_on_c, 9, 42, 0
2, 37200, Note_on_c, 9, 36, 95
2, 37224, Note_on_c, 9, 36, 0
2, 37248, Note_on_c, 9, 51, 127
2, 37248, Note_on_c, 9, 42, 122
2, 37250, Note_on_c, 9, 36, 122
2, 37272, Note_on_c, 9, 42, 0
2, 37272, Note_on_c, 9, 51, 0
2, 37274, Note_on_c, 9, 36, 0
2, 37344, Note_on_c, 9, 42, 95
2, 37346, Note_on_c, 9, 51, 125
2, 37346, Note_on_c, 9, 36, 95
2, 37368, Note_on_c, 9, 42, 0
2, 37370, Note_on_c, 9, 36, 0
2, 37370, Note_on_c, 9, 51, 0
2, 37440, Note_on_c, 9, 38, 95
2, 37442, Note_on_c, 9, 51, 127
2, 37442, Note_on_c, 9, 42, 122
2, 37464, Note_on_c, 9, 38, 0
2, 37466, Note_on_c, 9, 42, 0
2, 37466, Note_on_c, 9, 51, 0
2, 37488, Note_on_c, 9, 51, 127
2, 37512, Note_on_c, 9, 51, 0
2, 37536, Note_on_c, 9, 42, 95
2, 37560, Note_on_c, 9, 42, 0
2, 37584, Note_on_c, 9, 36, 95
2, 37608, Note_on_c, 9, 36, 0
2, 37632, Note_on_c, 9, 51, 127
2, 37632, Note_on_c, 9, 36, 122
2, 37634, Note_on_c, 9, 42, 122
2, 37656, Note_on_c, 9, 36, 0
2, 37656, Note_on_c, 9, 51, 0
2, 37658, Note_on_c, 9, 42, 0
2, 37730, Note_on_c, 9, 51, 125
2, 37730, Note_on_c, 9, 42, 95
2, 37754, Note_on_c, 9, 42, 0
2, 37754, Note_on_c, 9, 51, 0
2, 37778, Note_on_c, 9, 36, 95
2, 37802, Note_on_c, 9, 36, 0
2, 37824, Note_on_c, 9, 51, 127
2, 37824, Note_on_c, 9, 36, 122
2, 37824, Note_on_c, 9, 42, 122
2, 37826, Note_on_c, 9, 38, 95
2, 37848, Note_on_c, 9, 42, 0
2, 37848, Note_on_c, 9, 51, 0
2, 37848, Note_on_c, 9, 36, 0
2, 37850, Note_on_c, 9, 38, 0
2, 37918, Note_on_c, 9, 51, 125
2, 37918, Note_on_c, 9, 42, 95
2, 37942, Note_on_c, 9, 42, 0
2, 37942, Note_on_c, 9, 51, 0
2, 37968, Note_on_c, 9, 36, 95
2, 37992, Note_on_c, 9, 36, 0
2, 38014, Note_on_c, 9, 36, 122
2, 38014, Note_on_c, 9, 42, 122
2, 38016, Note_on_c, 9, 51, 127
2, 38038, Note_on_c, 9, 42, 0
2, 38038, Note_on_c, 9, 36, 0
2, 38040, Note_on_c, 9, 51, 0
2, 38110, Note_on_c, 9, 51, 125
2, 38110, Note_on_c, 9, 42, 95
2, 38114, Note_on_c, 9, 36, 95
2, 38134, Note_on_c, 9, 42, 0
2, 38134, Note_on_c, 9, 51, 0
2, 38138, Note_on_c, 9, 36, 0
2, 38206, Note_on_c, 9, 36, 95
2, 38206, Note_on_c, 9, 38, 122
2, 38208, Note_on_c, 9, 51, 127
2, 38208, Note_on_c, 9, 42, 122
2, 38230, Note_on_c, 9, 38, 0
2, 38230, Note_on_c, 9, 36, 0
2, 38232, Note_on_c, 9, 51, 0
2, 38232, Note_on_c, 9, 42, 0
2, 38304, Note_on_c, 9, 42, 95
2, 38306, Note_on_c, 9, 51, 125
2, 38306, Note_on_c, 9, 38, 95
2, 38328, Note_on_c, 9, 42, 0
2, 38330, Note_on_c, 9, 38, 0
2, 38330, Note_on_c, 9, 51, 0
2, 38352, Note_on_c, 9, 38, 95
2, 38376, Note_on_c, 9, 38, 0
2, 38398, Note_on_c, 9, 51, 127
2, 38400, Note_on_c, 9, 36, 122
2, 38400, Note_on_c, 9, 42, 122
2, 38422, Note_on_c, 9, 51, 0
2, 38424, Note_on_c, 9, 42, 0
2, 38424, Note_on_c, 9, 36, 0
2, 38496, Note_on_c, 9, 51, 125
2, 38496, Note_on_c, 9, 36, 95
2, 38498, Note_on_c, 9, 42, 95
2, 38520, Note_on_c, 9, 36, 0
2, 38520, Note_on_c, 9, 51, 0
2, 38522, Note_on_c, 9, 42, 0
2, 38590, Note_on_c, 9, 42, 122
2, 38594, Note_on_c, 9, 51, 127
2, 38594, Note_on_c, 9, 38, 95
2, 38614, Note_on_c, 9, 42, 0
2, 38618, Note_on_c, 9, 38, 0
2, 38618, Note_on_c, 9, 51, 0
2, 38686, Note_on_c, 9, 42, 95
2, 38690, Note_on_c, 9, 51, 125
2, 38710, Note_on_c, 9, 42, 0
2, 38714, Note_on_c, 9, 51, 0
2, 38738, Note_on_c, 9, 36, 95
2, 38762, Note_on_c, 9, 36, 0
2, 38786, Note_on_c, 9, 51, 127
2, 38786, Note_on_c, 9, 36, 122
2, 38786, Note_on_c, 9, 42, 122
2, 38810, Note_on_c, 9, 42, 0
2, 38810, Note_on_c, 9, 36, 0
2, 38810, Note_on_c, 9, 51, 0
2, 38878, Note_on_c, 9, 51, 125
2, 38878, Note_on_c, 9, 42, 95
2, 38902, Note_on_c, 9, 42, 0
2, 38902, Note_on_c, 9, 51, 0
2, 38928, Note_on_c, 9, 36, 95
2, 38952, Note_on_c, 9, 36, 0
2, 38974, Note_on_c, 9, 51, 127
2, 38976, Note_on_c, 9, 36, 122
2, 38976, Note_on_c, 9, 42, 122
2, 38978, Note_on_c, 9, 38, 95
2, 38998, Note_on_c, 9, 51, 0
2, 39000, Note_on_c, 9, 36, 0
2, 39000, Note_on_c, 9, 42, 0
2, 39002, Note_on_c, 9, 38, 0
2, 39070, Note_on_c, 9, 51, 125
2, 39072, Note_on_c, 9, 42, 95
2, 39094, Note_on_c, 9, 51, 0
2, 39096, Note_on_c, 9, 42, 0
2, 39122, Note_on_c, 9, 36, 95
2, 39146, Note_on_c, 9, 36, 0
2, 39170, Note_on_c, 9, 51, 127
2, 39170, Note_on_c, 9, 36, 122
2, 39170, Note_on_c, 9, 42, 122
2, 39194, Note_on_c, 9, 42, 0
2, 39194, Note_on_c, 9, 36, 0
2, 39194, Note_on_c, 9, 51, 0
2, 39264, Note_on_c, 9, 42, 95
2, 39266, Note_on_c, 9, 51, 125
2, 39288, Note_on_c, 9, 42, 0
2, 39290, Note_on_c, 9, 51, 0
2, 39312, Note_on_c, 9, 38, 122
2, 39336, Note_on_c, 9, 38, 0
2, 39362, Note_on_c, 9, 51, 127
2, 39362, Note_on_c, 9, 38, 122
2, 39362, Note_on_c, 9, 42, 122
2, 39386, Note_on_c, 9, 42, 0
2, 39386, Note_on_c, 9, 38, 0
2, 39386, Note_on_c, 9, 51, 0
2, 39410, Note_on_c, 9, 36, 95
2, 39434, Note_on_c, 9, 36, 0
2, 39454, Note_on_c, 9, 42, 95
2, 39456, Note_on_c, 9, 51, 125
2, 39478, Note_on_c, 9, 42, 0
2, 39480, Note_on_c, 9, 51, 0
2, 39502, Note_on_c, 9, 36, 95
2, 39526, Note_on_c, 9, 36, 0
2, 39552, Note_on_c, 9, 51, 127
2, 39554, Note_on_c, 9, 36, 122
2, 39554, Note_on_c, 9, 42, 122
2, 39576, Note_on_c, 9, 51, 0
2, 39578, Note_on_c, 9, 42, 0
2, 39578, Note_on_c, 9, 36, 0
2, 39650, Note_on_c, 9, 51, 125
2, 39650, Note_on_c, 9, 42, 95
2, 39674, Note_on_c, 9, 42, 0
2, 39674, Note_on_c, 9, 51, 0
2, 39694, Note_on_c, 9, 36, 95
2, 39718, Note_on_c, 9, 36, 0
2, 39744, Note_on_c, 9, 51, 127
2, 39744, Note_on_c, 9, 42, 122
2, 39746, Note_on_c, 9, 36, 122
2, 39746, Note_on_c, 9, 38, 95
2, 39768, Note_on_c, 9, 42, 0
2, 39768, Note_on_c, 9, 51, 0
2, 39770, Note_on_c, 9, 36, 0
2, 39770, Note_on_c, 9, 38, 0
2, 39792, Note_on_c, 9, 36, 95
2, 39816, Note_on_c, 9, 36, 0
2, 39838, Note_on_c, 9, 42, 95
2, 39842, Note_on_c, 9, 51, 125
2, 39862, Note_on_c, 9, 42, 0
2, 39866, Note_on_c, 9, 51, 0
2, 39888, Note_on_c, 9, 36, 95
2, 39912, Note_on_c, 9, 36, 0
2, 39936, Note_on_c, 9, 36, 122
2, 39936, Note_on_c, 9, 42, 122
2, 39938, Note_on_c, 9, 51, 127
2, 39960, Note_on_c, 9, 42, 0
2, 39960, Note_on_c, 9, 36, 0
2, 39962, Note_on_c, 9, 51, 0
2, 40034, Note_on_c, 9, 51, 125
2, 40034, Note_on_c, 9, 42, 95
2, 40058, Note_on_c, 9, 42, 0
2, 40058, Note_on_c, 9, 51, 0
2, 40084, Note_on_c, 9, 38, 95
2, 40108, Note_on_c, 9, 38, 0
2, 40128, Note_on_c, 9, 38, 122
2, 40128, Note_on_c, 9, 42, 122
2, 40130, Note_on_c, 9, 51, 127
2, 40152, Note_on_c, 9, 42, 0
2, 40152, Note_on_c, 9, 38, 0
2, 40154, Note_on_c, 9, 51, 0
2, 40176, Note_on_c, 9, 36, 95
2, 40200, Note_on_c, 9, 36, 0
2, 40222, Note_on_c, 9, 51, 125
2, 40226, Note_on_c, 9, 42, 95
2, 40246, Note_on_c, 9, 51, 0
2, 40250, Note_on_c, 9, 42, 0
2, 40272, Note_on_c, 9, 36, 95
2, 40296, Note_on_c, 9, 36, 0
2, 40320, Note_on_c, 9, 51, 127
2, 40320, Note_on_c, 9, 36, 122
2, 40322, Note_on_c, 9, 42, 122
2, 40344, Note_on_c, 9, 36, 0
2, 40344, Note_on_c, 9, 51, 0
2, 40346, Note_on_c, 9, 42, 0
2, 40414, Note_on_c, 9, 36, 95
2, 40414, Note_on_c, 9, 42, 95
2, 40418, Note_on_c, 9, 51, 125
2, 40438, Note_on_c, 9, 42, 0
2, 40438, Note_on_c, 9, 36, 0
2, 40442, Note_on_c, 9, 51, 0
2, 40510, Note_on_c, 9, 36, 122
2, 40510, Note_on_c, 9, 38, 95
2, 40510, Note_on_c, 9, 42, 122
2, 40514, Note_on_c, 9, 51, 127
2, 40534, Note_on_c, 9, 42, 0
2, 40534, Note_on_c, 9, 36, 0
2, 40534, Note_on_c, 9, 38, 0
2, 40538, Note_on_c, 9, 51, 0
2, 40560, Note_on_c, 9, 51, 127
2, 40584, Note_on_c, 9, 51, 0
2, 40610, Note_on_c, 9, 42, 95
2, 40634, Note_on_c, 9, 42, 0
2, 40656, Note_on_c, 9, 36, 95
2, 40680, Note_on_c, 9, 36, 0
2, 40702, Note_on_c, 9, 36, 122
2, 40704, Note_on_c, 9, 42, 122
2, 40726, Note_on_c, 9, 36, 0
2, 40728, Note_on_c, 9, 42, 0
2, 40800, Note_on_c, 9, 42, 95
2, 40802, Note_on_c, 9, 36, 95
2, 40824, Note_on_c, 9, 42, 0
2, 40826, Note_on_c, 9, 36, 0
2, 40898, Note_on_c, 9, 38, 95
2, 40898, Note_on_c, 9, 42, 122
2, 40922, Note_on_c, 9, 42, 0
2, 40922, Note_on_c, 9, 38, 0
2, 40992, Note_on_c, 9, 42, 95
2, 41016, Note_on_c, 9, 42, 0
2, 41040, Note_on_c, 9, 36, 95
2, 41064, Note_on_c, 9, 36, 0
2, 41088, Note_on_c, 9, 42, 122
2, 41088, Note_on_c, 9, 45, 120
2, 41090, Note_on_c, 9, 36, 122
2, 41112, Note_on_c, 9, 45, 0
2, 41112, Note_on_c, 9, 42, 0
2, 41114, Note_on_c, 9, 36, 0
2, 41122, Note_on_c, 9, 45, 108
2, 41146, Note_on_c, 9, 45, 0
2, 41156, Note_on_c, 9, 45, 98
2, 41180, Note_on_c, 9, 45, 0
2, 41188, Note_on_c, 9, 41, 118
2, 41212, Note_on_c, 9, 41, 0
2, 41222, Note_on_c, 9, 41, 108
2, 41246, Note_on_c, 9, 41, 0
2, 41256, Note_on_c, 9, 41, 98
2, 41280, Note_on_c, 9, 36, 122
2, 41280, Note_on_c, 9, 41, 0
2, 41282, Note_on_c, 9, 49, 122
2, 41304, Note_on_c, 9, 36, 0
2, 41306, Note_on_c, 9, 49, 0
2, 41330, Note_on_c, 9, 36, 122
2, 41330, Note_on_c, 9, 49, 122
2, 41354, Note_on_c, 9, 49, 0
2, 41354, Note_on_c, 9, 36, 0
2, 41470, Note_on_c, 9, 36, 122
2, 41470, Note_on_c, 9, 42, 122
2, 41474, Note_on_c, 9, 49, 122
2, 41494, Note_on_c, 9, 42, 0
2, 41494, Note_on_c, 9, 36, 0
2, 41498, Note_on_c, 9, 49, 0
2, 41570, Note_on_c, 9, 42, 95
2, 41594, Note_on_c, 9, 42, 0
2, 41614, Note_on_c, 9, 36, 95
2, 41638, Note_on_c, 9, 36, 0
2, 41662, Note_on_c, 9, 36, 122
2, 41664, Note_on_c, 9, 38, 122
2, 41666, Note_on_c, 9, 42, 122
2, 41686, Note_on_c, 9, 36, 0
2, 41688, Note_on_c, 9, 38, 0
2, 41690, Note_on_c, 9, 42, 0
2, 41762, Note_on_c, 9, 42, 95
2, 41786, Note_on_c, 9, 42, 0
2, 41810, Note_on_c, 9, 36, 95
2, 41834, Note_on_c, 9, 36, 0
2, 41856, Note_on_c, 9, 36, 122
2, 41856, Note_on_c, 9, 49, 122
2, 41858, Note_on_c, 9, 38, 122
2, 41858, Note_on_c, 9, 42, 122
2, 41880, Note_on_c, 9, 49, 0
2, 41880, Note_on_c, 9, 36, 0
2, 41882, Note_on_c, 9, 38, 0
2, 41882, Note_on_c, 9, 42, 0
2, 41950, Note_on_c, 9, 42, 95
2, 41974, Note_on_c, 9, 42, 0
2, 42002, Note_on_c, 9, 36, 95
2, 42026, Note_on_c, 9, 36, 0
2, 42048, Note_on_c, 9, 36, 122
2, 42048, Note_on_c, 9, 42, 122
2, 42050, Note_on_c, 9, 38, 122
2, 42050, Note_on_c, 9, 49, 122
2, 42072, Note_on_c, 9, 42, 0
2, 42072, Note_on_c, 9, 36, 0
2, 42074, Note_on_c, 9, 38, 0
2, 42074, Note_on_c, 9, 49, 0
2, 42144, Note_on_c, 9, 42, 95
2, 42168, Note_on_c, 9, 42, 0
2, 42190, Note_on_c, 9, 36, 95
2, 42214, Note_on_c, 9, 36, 0
2, 42240, Note_on_c, 9, 49, 122
2, 42242, Note_on_c, 9, 36, 122
2, 42242, Note_on_c, 9, 42, 122
2, 42264, Note_on_c, 9, 49, 0
2, 42266, Note_on_c, 9, 42, 0
2, 42266, Note_on_c, 9, 36, 0
2, 42336, Note_on_c, 9, 42, 95
2, 42360, Note_on_c, 9, 42, 0
2, 42384, Note_on_c, 9, 36, 95
2, 42408, Note_on_c, 9, 36, 0
2, 42430, Note_on_c, 9, 36, 122
2, 42430, Note_on_c, 9, 38, 122
2, 42432, Note_on_c, 9, 42, 122
2, 42454, Note_on_c, 9, 38, 0
2, 42454, Note_on_c, 9, 36, 0
2, 42456, Note_on_c, 9, 42, 0
2, 42480, Note_on_c, 9, 36, 95
2, 42504, Note_on_c, 9, 36, 0
2, 42526, Note_on_c, 9, 42, 95
2, 42550, Note_on_c, 9, 42, 0
2, 42578, Note_on_c, 9, 36, 95
2, 42602, Note_on_c, 9, 36, 0
2, 42622, Note_on_c, 9, 38, 122
2, 42624, Note_on_c, 9, 36, 122
2, 42624, Note_on_c, 9, 49, 122
2, 42626, Note_on_c, 9, 42, 122
2, 42646, Note_on_c, 9, 38, 0
2, 42648, Note_on_c, 9, 36, 0
2, 42648, Note_on_c, 9, 49, 0
2, 42650, Note_on_c, 9, 42, 0
2, 42718, Note_on_c, 9, 42, 95
2, 42742, Note_on_c, 9, 42, 0
2, 42768, Note_on_c, 9, 36, 95
2, 42792, Note_on_c, 9, 36, 0
2, 42816, Note_on_c, 9, 36, 122
2, 42816, Note_on_c, 9, 38, 122
2, 42816, Note_on_c, 9, 49, 122
2, 42818, Note_on_c, 9, 42, 122
2, 42840, Note_on_c, 9, 49, 0
2, 42840, Note_on_c, 9, 36, 0
2, 42840, Note_on_c, 9, 38, 0
2, 42842, Note_on_c, 9, 42, 0
2, 42910, Note_on_c, 9, 42, 95
2, 42934, Note_on_c, 9, 42, 0
2, 42960, Note_on_c, 9, 36, 95
2, 42984, Note_on_c, 9, 36, 0
2, 43006, Note_on_c, 9, 42, 122
2, 43006, Note_on_c, 9, 49, 122
2, 43008, Note_on_c, 9, 36, 122
2, 43030, Note_on_c, 9, 49, 0
2, 43030, Note_on_c, 9, 42, 0
2, 43032, Note_on_c, 9, 36, 0
2, 43102, Note_on_c, 9, 42, 95
2, 43126, Note_on_c, 9, 42, 0
2, 43154, Note_on_c, 9, 36, 95
2, 43178, Note_on_c, 9, 36, 0
2, 43200, Note_on_c, 9, 36, 122
2, 43200, Note_on_c, 9, 42, 122
2, 43202, Note_on_c, 9, 38, 122
2, 43224, Note_on_c, 9, 42, 0
2, 43224, Note_on_c, 9, 36, 0
2, 43226, Note_on_c, 9, 38, 0
2, 43296, Note_on_c, 9, 42, 95
2, 43320, Note_on_c, 9, 42, 0
2, 43342, Note_on_c, 9, 36, 95
2, 43366, Note_on_c, 9, 36, 0
2, 43392, Note_on_c, 9, 36, 122
2, 43392, Note_on_c, 9, 42, 122
2, 43416, Note_on_c, 9, 42, 0
2, 43416, Note_on_c, 9, 36, 0
2, 43486, Note_on_c, 9, 36, 95
2, 43488, Note_on_c, 9, 42, 95
2, 43510, Note_on_c, 9, 36, 0
2, 43512, Note_on_c, 9, 42, 0
2, 43586, Note_on_c, 9, 38, 122
2, 43586, Note_on_c, 9, 42, 122
2, 43610, Note_on_c, 9, 42, 0
2, 43610, Note_on_c, 9, 38, 0
2, 43678, Note_on_c, 9, 42, 95
2, 43702, Note_on_c, 9, 42, 0
2, 43728, Note_on_c, 9, 36, 95
2, 43752, Note_on_c, 9, 36, 0
2, 43774, Note_on_c, 9, 42, 122
2, 43776, Note_on_c, 9, 36, 122
2, 43798, Note_on_c, 9, 42, 0
2, 43800, Note_on_c, 9, 36, 0
2, 43872, Note_on_c, 9, 42, 95
2, 43896, Note_on_c, 9, 42, 0
2, 43920, Note_on_c, 9, 36, 95
2, 43944, Note_on_c, 9, 36, 0
2, 43970, Note_on_c, 9, 38, 122
2, 43970, Note_on_c, 9, 42, 122
2, 43994, Note_on_c, 9, 42, 0
2, 43994, Note_on_c, 9, 38, 0
2, 44062, Note_on_c, 9, 36, 95
2, 44062, Note_on_c, 9, 42, 95
2, 44086, Note_on_c, 9, 42, 0
2, 44086, Note_on_c, 9, 36, 0
2, 44160, Note_on_c, 9, 48, 122
2, 44162, Note_on_c, 9, 42, 122
2, 44182, Note_on_c, 9, 48, 95
2, 44182, Note_on_c, 9, 48, 0
2, 44186, Note_on_c, 9, 42, 0
2, 44206, Note_on_c, 9, 48, 0
2, 44212, Note_on_c, 9, 48, 95
2, 44234, Note_on_c, 9, 45, 122
2, 44236, Note_on_c, 9, 48, 0
2, 44258, Note_on_c, 9, 45, 95
2, 44258, Note_on_c, 9, 45, 0
2, 44282, Note_on_c, 9, 45, 95
2, 44282, Note_on_c, 9, 45, 0
2, 44306, Note_on_c, 9, 41, 122
2, 44306, Note_on_c, 9, 45, 0
2, 44330, Note_on_c, 9, 41, 95
2, 44330, Note_on_c, 9, 41, 0
2, 44352, Note_on_c, 9, 36, 122
2, 44354, Note_on_c, 9, 49, 122
2, 44354, Note_on_c, 9, 41, 0
2, 44356, Note_on_c, 9, 38, 122
2, 44376, Note_on_c, 9, 36, 0
2, 44378, Note_on_c, 9, 49, 0
2, 44380, Note_on_c, 9, 38, 0
2, 44400, Note_on_c, 9, 36, 122
2, 44400, Note_on_c, 9, 49, 122
2, 44402, Note_on_c, 9, 38, 122
2, 44424, Note_on_c, 9, 49, 0
2, 44424, Note_on_c, 9, 36, 0
2, 44426, Note_on_c, 9, 38, 0
2, 44496, Note_on_c, 9, 36, 95
2, 44520, Note_on_c, 9, 36, 0
2, 44544, Note_on_c, 9, 36, 122
2, 44544, Note_on_c, 9, 49, 122
2, 44546, Note_on_c, 9, 42, 122
2, 44568, Note_on_c, 9, 49, 0
2, 44568, Note_on_c, 9, 36, 0
2, 44570, Note_on_c, 9, 42, 0
2, 44642, Note_on_c, 9, 42, 95
2, 44666, Note_on_c, 9, 42, 0
2, 44686, Note_on_c, 9, 36, 95
2, 44710, Note_on_c, 9, 36, 0
2, 44736, Note_on_c, 9, 36, 122
2, 44736, Note_on_c, 9, 38, 122
2, 44736, Note_on_c, 9, 42, 122
2, 44760, Note_on_c, 9, 42, 0
2, 44760, Note_on_c, 9, 38, 0
2, 44760, Note_on_c, 9, 36, 0
2, 44830, Note_on_c, 9, 42, 95
2, 44854, Note_on_c, 9, 42, 0
2, 44878, Note_on_c, 9, 36, 95
2, 44902, Note_on_c, 9, 36, 0
2, 44926, Note_on_c, 9, 38, 122
2, 44928, Note_on_c, 9, 36, 122
2, 44930, Note_on_c, 9, 42, 122
2, 44930, Note_on_c, 9, 49, 122
2, 44950, Note_on_c, 9, 38, 0
2, 44952, Note_on_c, 9, 36, 0
2, 44954, Note_on_c, 9, 42, 0
2, 44954, Note_on_c, 9, 49, 0
2, 45026, Note_on_c, 9, 42, 95
2, 45050, Note_on_c, 9, 42, 0
2, 45072, Note_on_c, 9, 36, 95
2, 45096, Note_on_c, 9, 36, 0
2, 45118, Note_on_c, 9, 36, 122
2, 45120, Note_on_c, 9, 38, 122
2, 45120, Note_on_c, 9, 42, 122
2, 45122, Note_on_c, 9, 49, 122
2, 45142, Note_on_c, 9, 36, 0
2, 45144, Note_on_c, 9, 38, 0
2, 45144, Note_on_c, 9, 42, 0
2, 45146, Note_on_c, 9, 49, 0
2, 45216, Note_on_c, 9, 42, 95
2, 45240, Note_on_c, 9, 42, 0
2, 45264, Note_on_c, 9, 36, 95
2, 45288, Note_on_c, 9, 36, 0
2, 45312, Note_on_c, 9, 36, 122
2, 45314, Note_on_c, 9, 42, 122
2, 45314, Note_on_c, 9, 49, 122
2, 45336, Note_on_c, 9, 36, 0
2, 45338, Note_on_c, 9, 49, 0
2, 45338, Note_on_c, 9, 42, 0
2, 45408, Note_on_c, 9, 42, 95
2, 45432, Note_on_c, 9, 42, 0
2, 45456, Note_on_c, 9, 36, 95
2, 45480, Note_on_c, 9, 36, 0
2, 45502, Note_on_c, 9, 38, 122
2, 45504, Note_on_c, 9, 36, 122
2, 45504, Note_on_c, 9, 42, 122
2, 45526, Note_on_c, 9, 38, 0
2, 45528, Note_on_c, 9, 42, 0
2, 45528, Note_on_c, 9, 36, 0
2, 45552, Note_on_c, 9, 36, 95
2, 45576, Note_on_c, 9, 36, 0
2, 45600, Note_on_c, 9, 42, 95
2, 45624, Note_on_c, 9, 42, 0
2, 45648, Note_on_c, 9, 36, 95
2, 45672, Note_on_c, 9, 36, 0
2, 45694, Note_on_c, 9, 42, 122
2, 45696, Note_on_c, 9, 36, 122
2, 45696, Note_on_c, 9, 38, 122
2, 45696, Note_on_c, 9, 49, 122
2, 45718, Note_on_c, 9, 42, 0
2, 45720, Note_on_c, 9, 36, 0
2, 45720, Note_on_c, 9, 38, 0
2, 45720, Note_on_c, 9, 49, 0
2, 45794, Note_on_c, 9, 42, 95
2, 45818, Note_on_c, 9, 42, 0
2, 45842, Note_on_c, 9, 36, 95
2, 45866, Note_on_c, 9, 36, 0
2, 45888, Note_on_c, 9, 36, 122
2, 45888, Note_on_c, 9, 42, 122
2, 45890, Note_on_c, 9, 38, 122
2, 45890, Note_on_c, 9, 49, 122
2, 45912, Note_on_c, 9, 42, 0
2, 45912, Note_on_c, 9, 36, 0
2, 45914, Note_on_c, 9, 38, 0
2, 45914, Note_on_c, 9, 49, 0
2, 45986, Note_on_c, 9, 42, 95
2, 46010, Note_on_c, 9, 42, 0
2, 46030, Note_on_c, 9, 36, 95
2, 46054, Note_on_c, 9, 36, 0
2, 46080, Note_on_c, 9, 42, 122
2, 46082, Note_on_c, 9, 36, 122
2, 46082, Note_on_c, 9, 49, 122
2, 46104, Note_on_c, 9, 42, 0
2, 46106, Note_on_c, 9, 49, 0
2, 46106, Note_on_c, 9, 36, 0
2, 46176, Note_on_c, 9, 42, 95
2, 46200, Note_on_c, 9, 42, 0
2, 46226, Note_on_c, 9, 36, 95
2, 46250, Note_on_c, 9, 36, 0
2, 46274, Note_on_c, 9, 36, 122
2, 46274, Note_on_c, 9, 38, 122
2, 46274, Note_on_c, 9, 42, 122
2, 46298, Note_on_c, 9, 42, 0
2, 46298, Note_on_c, 9, 38, 0
2, 46298, Note_on_c, 9, 36, 0
2, 46368, Note_on_c, 9, 42, 95
2, 46392, Note_on_c, 9, 42, 0
2, 46414, Note_on_c, 9, 36, 95
2, 46438, Note_on_c, 9, 36, 0
2, 46462, Note_on_c, 9, 36, 122
2, 46464, Note_on_c, 9, 42, 122
2, 46486, Note_on_c, 9, 36, 0
2, 46488, Note_on_c, 9, 42, 0
2, 46558, Note_on_c, 9, 36, 95
2, 46560, Note_on_c, 9, 42, 95
2, 46582, Note_on_c, 9, 36, 0
2, 46584, Note_on_c, 9, 42, 0
2, 46656, Note_on_c, 9, 38, 122
2, 46656, Note_on_c, 9, 42, 122
2, 46680, Note_on_c, 9, 42, 0
2, 46680, Note_on_c, 9, 38, 0
2, 46752, Note_on_c, 9, 42, 95
2, 46776, Note_on_c, 9, 42, 0
2, 46802, Note_on_c, 9, 36, 95
2, 46826, Note_on_c, 9, 36, 0
2, 46848, Note_on_c, 9, 49, 122
2, 46850, Note_on_c, 9, 36, 122
2, 46872, Note_on_c, 9, 49, 0
2, 46874, Note_on_c, 9, 36, 0
2, 46992, Note_on_c, 9, 36, 95
2, 47016, Note_on_c, 9, 36, 0
2, 47038, Note_on_c, 9, 36, 122
2, 47042, Note_on_c, 9, 38, 122
2, 47062, Note_on_c, 9, 36, 0
2, 47066, Note_on_c, 9, 38, 0
2, 47232, Note_on_c, 9, 36, 122
2, 47256, Note_on_c, 9, 36, 0
2, 47326, Note_on_c, 9, 49, 122
2, 47328, Note_on_c, 9, 47, 103
2, 47332, Note_on_c, 9, 38, 122
2, 47332, Note_on_c, 9, 47, 0
2, 47350, Note_on_c, 9, 49, 0
2, 47356, Note_on_c, 9, 38, 0
2, 47424, Note_on_c, 9, 48, 122
2, 47448, Note_on_c, 9, 48, 0
2, 47472, Note_on_c, 9, 45, 122
2, 47478, Note_on_c, 9, 47, 111
2, 47480, Note_on_c, 9, 47, 0
2, 47496, Note_on_c, 9, 47, 119
2, 47496, Note_on_c, 9, 45, 0
2, 47498, Note_on_c, 9, 47, 0
2, 47512, Note_on_c, 9, 47, 127
2, 47514, Note_on_c, 9, 47, 0
2, 47520, Note_on_c, 9, 45, 122
2, 47544, Note_on_c, 9, 45, 0
2, 47568, Note_on_c, 9, 41, 122
2, 47592, Note_on_c, 9, 41, 0
2, 47614, Note_on_c, 9, 45, 127
2, 47616, Note_on_c, 9, 36, 122
2, 47618, Note_on_c, 9, 45, 0
2, 47640, Note_on_c, 9, 36, 0
2, 47952, Note_on_c, 9, 36, 95
2, 47954, Note_on_c, 9, 38, 95
2, 47976, Note_on_c, 9, 36, 0
2, 47978, Note_on_c, 9, 38, 0
2, 48000, Note_on_c, 9, 36, 122
2, 48000, Note_on_c, 9, 38, 122
2, 48024, Note_on_c, 9, 38, 0
2, 48024, Note_on_c, 9, 36, 0
2, 48142, Note_on_c, 9, 36, 95
2, 48146, Note_on_c, 9, 38, 95
2, 48166, Note_on_c, 9, 36, 0
2, 48170, Note_on_c, 9, 38, 0
2, 48190, Note_on_c, 9, 36, 122
2, 48194, Note_on_c, 9, 38, 122
2, 48214, Note_on_c, 9, 36, 0
2, 48218, Note_on_c, 9, 38, 0
2, 48288, Note_on_c, 9, 36, 95
2, 48292, Note_on_c, 9, 38, 95
2, 48312, Note_on_c, 9, 36, 0
2, 48316, Note_on_c, 9, 38, 0
2, 48382, Note_on_c, 9, 36, 122
2, 48406, Note_on_c, 9, 36, 0
2, 48528, Note_on_c, 9, 36, 95
2, 48530, Note_on_c, 9, 38, 95
2, 48552, Note_on_c, 9, 36, 0
2, 48554, Note_on_c, 9, 38, 0
2, 48576, Note_on_c, 9, 36, 122
2, 48578, Note_on_c, 9, 38, 122
2, 48600, Note_on_c, 9, 36, 0
2, 48602, Note_on_c, 9, 38, 0
2, 48624, Note_on_c, 9, 36, 95
2, 48648, Note_on_c, 9, 36, 0
2, 48718, Note_on_c, 9, 36, 95
2, 48742, Note_on_c, 9, 36, 0
2, 48768, Note_on_c, 9, 48, 122
2, 48792, Note_on_c, 9, 48, 0
2, 48816, Note_on_c, 9, 48, 122
2, 48840, Note_on_c, 9, 48, 0
2, 48864, Note_on_c, 9, 45, 122
2, 48888, Note_on_c, 9, 45, 0
2, 48912, Note_on_c, 9, 45, 95
2, 48936, Note_on_c, 9, 45, 0
2, 48960, Note_on_c, 9, 45, 122
2, 48984, Note_on_c, 9, 45, 0
2, 49008, Note_on_c, 9, 45, 95
2, 49032, Note_on_c, 9, 45, 0
2, 49054, Note_on_c, 9, 36, 95
2, 49056, Note_on_c, 9, 41, 95
2, 49078, Note_on_c, 9, 36, 0
2, 49080, Note_on_c, 9, 41, 0
2, 49102, Note_on_c, 9, 36, 95
2, 49104, Note_on_c, 9, 41, 122
2, 49126, Note_on_c, 9, 36, 0
2, 49128, Note_on_c, 9, 41, 0
2, 49154, Note_on_c, 9, 36, 122
2, 49154, Note_on_c, 9, 49, 95
2, 49178, Note_on_c, 9, 49, 0
2, 49178, Note_on_c, 9, 36, 0
2, 49344, Note_on_c, 9, 38, 122
2, 49368, Note_on_c, 9, 38, 0
2, 49490, Note_on_c, 9, 36, 95
2, 49514, Note_on_c, 9, 36, 0
2, 49536, Note_on_c, 9, 36, 122
2, 49538, Note_on_c, 9, 49, 95
2, 49560, Note_on_c, 9, 36, 0
2, 49562, Note_on_c, 9, 49, 0
2, 49728, Note_on_c, 9, 38, 122
2, 49752, Note_on_c, 9, 38, 0
2, 49872, Note_on_c, 9, 36, 95
2, 49896, Note_on_c, 9, 36, 0
2, 49920, Note_on_c, 9, 36, 122
2, 49922, Note_on_c, 9, 49, 95
2, 49944, Note_on_c, 9, 36, 0
2, 49946, Note_on_c, 9, 49, 0
2, 50066, Note_on_c, 9, 36, 95
2, 50090, Note_on_c, 9, 36, 0
2, 50110, Note_on_c, 9, 38, 122
2, 50134, Note_on_c, 9, 38, 0
2, 50258, Note_on_c, 9, 36, 95
2, 50282, Note_on_c, 9, 36, 0
2, 50304, Note_on_c, 9, 49, 95
2, 50306, Note_on_c, 9, 36, 122
2, 50328, Note_on_c, 9, 49, 0
2, 50330, Note_on_c, 9, 36, 0
2, 50446, Note_on_c, 9, 36, 95
2, 50470, Note_on_c, 9, 36, 0
2, 50496, Note_on_c, 9, 38, 122
2, 50520, Note_on_c, 9, 38, 0
2, 50640, Note_on_c, 9, 36, 95
2, 50664, Note_on_c, 9, 36, 0
2, 50690, Note_on_c, 9, 36, 122
2, 50690, Note_on_c, 9, 49, 122
2, 50714, Note_on_c, 9, 49, 0
2, 50714, Note_on_c, 9, 36, 0
2, 51454, Note_on_c, 9, 36, 95
2, 51454, Note_on_c, 9, 42, 122
2, 51478, Note_on_c, 9, 42, 0
2, 51478, Note_on_c, 9, 36, 0
2, 51648, Note_on_c, 9, 42, 122
2, 51672, Note_on_c, 9, 42, 0
2, 51838, Note_on_c, 9, 36, 95
2, 51838, Note_on_c, 9, 42, 122
2, 51862, Note_on_c, 9, 42, 0
2, 51862, Note_on_c, 9, 36, 0
2, 52030, Note_on_c, 9, 36, 95
2, 52032, Note_on_c, 9, 42, 122
2, 52054, Note_on_c, 9, 36, 0
2, 52056, Note_on_c, 9, 42, 0
2, 52224, Note_on_c, 9, 36, 95
2, 52226, Note_on_c, 9, 42, 122
2, 52248, Note_on_c, 9, 36, 0
2, 52250, Note_on_c, 9, 42, 0
2, 52418, Note_on_c, 9, 42, 122
2, 52442, Note_on_c, 9, 42, 0
2, 52606, Note_on_c, 9, 42, 122
2, 52608, Note_on_c, 9, 36, 95
2, 52630, Note_on_c, 9, 42, 0
2, 52632, Note_on_c, 9, 36, 0
2, 52798, Note_on_c, 9, 36, 95
2, 52800, Note_on_c, 9, 42, 122
2, 52822, Note_on_c, 9, 36, 0
2, 52824, Note_on_c, 9, 42, 0
2, 52992, Note_on_c, 9, 36, 95
2, 52992, Note_on_c, 9, 42, 122
2, 53016, Note_on_c, 9, 42, 0
2, 53016, Note_on_c, 9, 36, 0
2, 53186, Note_on_c, 9, 42, 122
2, 53210, Note_on_c, 9, 42, 0
2, 53376, Note_on_c, 9, 36, 95
2, 53378, Note_on_c, 9, 42, 122
2, 53400, Note_on_c, 9, 36, 0
2, 53402, Note_on_c, 9, 42, 0
2, 53472, Note_on_c, 9, 36, 95
2, 53496, Note_on_c, 9, 36, 0
2, 53570, Note_on_c, 9, 42, 122
2, 53594, Note_on_c, 9, 42, 0
2, 53760, Note_on_c, 9, 36, 95
2, 53762, Note_on_c, 9, 42, 122
2, 53784, Note_on_c, 9, 36, 0
2, 53786, Note_on_c, 9, 42, 0
2, 53954, Note_on_c, 9, 42, 122
2, 53978, Note_on_c, 9, 42, 0
2, 54096, Note_on_c, 9, 36, 95
2, 54120, Note_on_c, 9, 36, 0
2, 54142, Note_on_c, 9, 42, 122
2, 54144, Note_on_c, 9, 36, 95
2, 54166, Note_on_c, 9, 42, 0
2, 54168, Note_on_c, 9, 36, 0
2, 54242, Note_on_c, 9, 36, 95
2, 54266, Note_on_c, 9, 36, 0
2, 54336, Note_on_c, 9, 42, 122
2, 54360, Note_on_c, 9, 42, 0
2, 54434, Note_on_c, 9, 36, 95
2, 54458, Note_on_c, 9, 36, 0
2, 54480, Note_on_c, 9, 36, 95
2, 54504, Note_on_c, 9, 36, 0
2, 54528, Note_on_c, 9, 36, 95
2, 54528, Note_on_c, 9, 42, 122
2, 54552, Note_on_c, 9, 42, 0
2, 54552, Note_on_c, 9, 36, 0
2, 54720, Note_on_c, 9, 42, 122
2, 54722, Note_on_c, 9, 38, 95
2, 54744, Note_on_c, 9, 42, 0
2, 54746, Note_on_c, 9, 38, 0
2, 54912, Note_on_c, 9, 42, 122
2, 54914, Note_on_c, 9, 36, 95
2, 54936, Note_on_c, 9, 42, 0
2, 54938, Note_on_c, 9, 36, 0
2, 55102, Note_on_c, 9, 38, 95
2, 55104, Note_on_c, 9, 36, 95
2, 55106, Note_on_c, 9, 42, 122
2, 55126, Note_on_c, 9, 38, 0
2, 55128, Note_on_c, 9, 36, 0
2, 55130, Note_on_c, 9, 42, 0
2, 55294, Note_on_c, 9, 36, 95
2, 55296, Note_on_c, 9, 42, 122
2, 55318, Note_on_c, 9, 36, 0
2, 55320, Note_on_c, 9, 42, 0
2, 55486, Note_on_c, 9, 38, 95
2, 55488, Note_on_c, 9, 42, 122
2, 55510, Note_on_c, 9, 38, 0
2, 55512, Note_on_c, 9, 42, 0
2, 55634, Note_on_c, 9, 36, 95
2, 55658, Note_on_c, 9, 36, 0
2, 55682, Note_on_c, 9, 36, 95
2, 55682, Note_on_c, 9, 42, 122
2, 55706, Note_on_c, 9, 42, 0
2, 55706, Note_on_c, 9, 36, 0
2, 55824, Note_on_c, 9, 36, 95
2, 55848, Note_on_c, 9, 36, 0
2, 55870, Note_on_c, 9, 38, 95
2, 55870, Note_on_c, 9, 42, 122
2, 55872, Note_on_c, 9, 36, 95
2, 55894, Note_on_c, 9, 42, 0
2, 55894, Note_on_c, 9, 38, 0
2, 55896, Note_on_c, 9, 36, 0
2, 56018, Note_on_c, 9, 36, 95
2, 56042, Note_on_c, 9, 36, 0
2, 56064, Note_on_c, 9, 42, 122
2, 56066, Note_on_c, 9, 36, 95
2, 56088, Note_on_c, 9, 42, 0
2, 56090, Note_on_c, 9, 36, 0
2, 56258, Note_on_c, 9, 42, 122
2, 56260, Note_on_c, 9, 38, 95
2, 56282, Note_on_c, 9, 42, 0
2, 56284, Note_on_c, 9, 38, 0
2, 56400, Note_on_c, 9, 36, 95
2, 56424, Note_on_c, 9, 36, 0
2, 56448, Note_on_c, 9, 42, 122
2, 56450, Note_on_c, 9, 36, 95
2, 56472, Note_on_c, 9, 42, 0
2, 56474, Note_on_c, 9, 36, 0
2, 56544, Note_on_c, 9, 36, 95
2, 56568, Note_on_c, 9, 36, 0
2, 56640, Note_on_c, 9, 38, 95
2, 56640, Note_on_c, 9, 42, 122
2, 56664, Note_on_c, 9, 42, 0
2, 56664, Note_on_c, 9, 38, 0
2, 56784, Note_on_c, 9, 36, 95
2, 56808, Note_on_c, 9, 36, 0
2, 56832, Note_on_c, 9, 36, 95
2, 56834, Note_on_c, 9, 42, 122
2, 56856, Note_on_c, 9, 36, 0
2, 56858, Note_on_c, 9, 42, 0
2, 57024, Note_on_c, 9, 42, 122
2, 57026, Note_on_c, 9, 38, 95
2, 57048, Note_on_c, 9, 42, 0
2, 57050, Note_on_c, 9, 38, 0
2, 57168, Note_on_c, 9, 36, 95
2, 57192, Note_on_c, 9, 36, 0
2, 57218, Note_on_c, 9, 36, 95
2, 57218, Note_on_c, 9, 42, 122
2, 57242, Note_on_c, 9, 42, 0
2, 57242, Note_on_c, 9, 36, 0
2, 57312, Note_on_c, 9, 36, 95
2, 57336, Note_on_c, 9, 36, 0
2, 57408, Note_on_c, 9, 42, 122
2, 57410, Note_on_c, 9, 38, 95
2, 57432, Note_on_c, 9, 42, 0
2, 57434, Note_on_c, 9, 38, 0
2, 57506, Note_on_c, 9, 44, 122
2, 57530, Note_on_c, 9, 44, 0
2, 57554, Note_on_c, 9, 36, 95
2, 57578, Note_on_c, 9, 36, 0
2, 57598, Note_on_c, 9, 36, 95
2, 57602, Note_on_c, 9, 42, 122
2, 57622, Note_on_c, 9, 36, 0
2, 57626, Note_on_c, 9, 42, 0
2, 57696, Note_on_c, 9, 42, 95
2, 57720, Note_on_c, 9, 42, 0
2, 57742, Note_on_c, 9, 36, 95
2, 57766, Note_on_c, 9, 36, 0
2, 57790, Note_on_c, 9, 42, 122
2, 57792, Note_on_c, 9, 38, 95
2, 57814, Note_on_c, 9, 42, 0
2, 57816, Note_on_c, 9, 38, 0
2, 57888, Note_on_c, 9, 42, 95
2, 57912, Note_on_c, 9, 42, 0
2, 57982, Note_on_c, 9, 36, 95
2, 57984, Note_on_c, 9, 51, 127
2, 57986, Note_on_c, 9, 42, 122
2, 58006, Note_on_c, 9, 36, 0
2, 58008, Note_on_c, 9, 51, 0
2, 58010, Note_on_c, 9, 42, 0
2, 58078, Note_on_c, 9, 51, 125
2, 58080, Note_on_c, 9, 42, 95
2, 58102, Note_on_c, 9, 51, 0
2, 58104, Note_on_c, 9, 42, 0
2, 58176, Note_on_c, 9, 51, 127
2, 58176, Note_on_c, 9, 36, 95
2, 58178, Note_on_c, 9, 38, 95
2, 58178, Note_on_c, 9, 42, 122
2, 58200, Note_on_c, 9, 36, 0
2, 58200, Note_on_c, 9, 51, 0
2, 58202, Note_on_c, 9, 38, 0
2, 58202, Note_on_c, 9, 42, 0
2, 58270, Note_on_c, 9, 42, 95
2, 58274, Note_on_c, 9, 51, 125
2, 58294, Note_on_c, 9, 42, 0
2, 58298, Note_on_c, 9, 51, 0
2, 58366, Note_on_c, 9, 51, 127
2, 58368, Note_on_c, 9, 42, 122
2, 58370, Note_on_c, 9, 36, 95
2, 58390, Note_on_c, 9, 51, 0
2, 58392, Note_on_c, 9, 42, 0
2, 58394, Note_on_c, 9, 36, 0
2, 58464, Note_on_c, 9, 51, 125
2, 58464, Note_on_c, 9, 42, 95
2, 58488, Note_on_c, 9, 42, 0
2, 58488, Note_on_c, 9, 51, 0
2, 58560, Note_on_c, 9, 38, 95
2, 58562, Note_on_c, 9, 51, 127
2, 58562, Note_on_c, 9, 42, 122
2, 58584, Note_on_c, 9, 38, 0
2, 58586, Note_on_c, 9, 42, 0
2, 58586, Note_on_c, 9, 51, 0
2, 58654, Note_on_c, 9, 42, 95
2, 58658, Note_on_c, 9, 51, 125
2, 58678, Note_on_c, 9, 42, 0
2, 58682, Note_on_c, 9, 51, 0
2, 58706, Note_on_c, 9, 36, 95
2, 58730, Note_on_c, 9, 36, 0
2, 58752, Note_on_c, 9, 42, 122
2, 58754, Note_on_c, 9, 51, 127
2, 58754, Note_on_c, 9, 36, 95
2, 58776, Note_on_c, 9, 42, 0
2, 58778, Note_on_c, 9, 36, 0
2, 58778, Note_on_c, 9, 51, 0
2, 58846, Note_on_c, 9, 51, 125
2, 58848, Note_on_c, 9, 42, 95
2, 58870, Note_on_c, 9, 51, 0
2, 58872, Note_on_c, 9, 42, 0
2, 58942, Note_on_c, 9, 51, 127
2, 58942, Note_on_c, 9, 38, 95
2, 58944, Note_on_c, 9, 42, 122
2, 58966, Note_on_c, 9, 38, 0
2, 58966, Note_on_c, 9, 51, 0
2, 58968, Note_on_c, 9, 42, 0
2, 58990, Note_on_c, 9, 36, 95
2, 59014, Note_on_c, 9, 36, 0
2, 59038, Note_on_c, 9, 51, 125
2, 59042, Note_on_c, 9, 42, 95
2, 59062, Note_on_c, 9, 51, 0
2, 59066, Note_on_c, 9, 42, 0
2, 59088, Note_on_c, 9, 36, 95
2, 59112, Note_on_c, 9, 36, 0
2, 59136, Note_on_c, 9, 36, 95
2, 59136, Note_on_c, 9, 42, 122
2, 59138, Note_on_c, 9, 51, 127
2, 59160, Note_on_c, 9, 42, 0
2, 59160, Note_on_c, 9, 36, 0
2, 59162, Note_on_c, 9, 51, 0
2, 59234, Note_on_c, 9, 51, 125
2, 59234, Note_on_c, 9, 42, 95
2, 59258, Note_on_c, 9, 42, 0
2, 59258, Note_on_c, 9, 51, 0
2, 59326, Note_on_c, 9, 42, 122
2, 59330, Note_on_c, 9, 51, 127
2, 59330, Note_on_c, 9, 38, 95
2, 59350, Note_on_c, 9, 42, 0
2, 59354, Note_on_c, 9, 38, 0
2, 59354, Note_on_c, 9, 51, 0
2, 59424, Note_on_c, 9, 51, 125
2, 59426, Note_on_c, 9, 42, 95
2, 59448, Note_on_c, 9, 51, 0
2, 59450, Note_on_c, 9, 42, 0
2, 59472, Note_on_c, 9, 36, 95
2, 59496, Note_on_c, 9, 36, 0
2, 59518, Note_on_c, 9, 36, 95
2, 59518, Note_on_c, 9, 42, 122
2, 59520, Note_on_c, 9, 51, 127
2, 59542, Note_on_c, 9, 42, 0
2, 59542, Note_on_c, 9, 36, 0
2, 59544, Note_on_c, 9, 51, 0
2, 59618, Note_on_c, 9, 51, 125
2, 59618, Note_on_c, 9, 36, 95
2, 59618, Note_on_c, 9, 42, 95
2, 59642, Note_on_c, 9, 42, 0
2, 59642, Note_on_c, 9, 36, 0
2, 59642, Note_on_c, 9, 51, 0
2, 59712, Note_on_c, 9, 51, 127
2, 59712, Note_on_c, 9, 42, 122
2, 59714, Note_on_c, 9, 38, 95
2, 59736, Note_on_c, 9, 42, 0
2, 59736, Note_on_c, 9, 51, 0
2, 59738, Note_on_c, 9, 38, 0
2, 59808, Note_on_c, 9, 42, 95
2, 59810, Note_on_c, 9, 51, 125
2, 59832, Note_on_c, 9, 42, 0
2, 59834, Note_on_c, 9, 51, 0
2, 59856, Note_on_c, 9, 36, 95
2, 59880, Note_on_c, 9, 36, 0
2, 59902, Note_on_c, 9, 36, 95
2, 59904, Note_on_c, 9, 42, 122
2, 59906, Note_on_c, 9, 51, 127
2, 59926, Note_on_c, 9, 36, 0
2, 59928, Note_on_c, 9, 42, 0
2, 59930, Note_on_c, 9, 51, 0
2, 60002, Note_on_c, 9, 51, 125
2, 60002, Note_on_c, 9, 42, 95
2, 60026, Note_on_c, 9, 42, 0
2, 60026, Note_on_c, 9, 51, 0
2, 60094, Note_on_c, 9, 42, 122
2, 60098, Note_on_c, 9, 51, 127
2, 60098, Note_on_c, 9, 38, 95
2, 60118, Note_on_c, 9, 42, 0
2, 60122, Note_on_c, 9, 38, 0
2, 60122, Note_on_c, 9, 51, 0
2, 60190, Note_on_c, 9, 51, 125
2, 60190, Note_on_c, 9, 42, 95
2, 60214, Note_on_c, 9, 42, 0
2, 60214, Note_on_c, 9, 51, 0
2, 60240, Note_on_c, 9, 36, 95
2, 60264, Note_on_c, 9, 36, 0
2, 60286, Note_on_c, 9, 36, 95
2, 60288, Note_on_c, 9, 51, 127
2, 60288, Note_on_c, 9, 42, 122
2, 60310, Note_on_c, 9, 36, 0
2, 60312, Note_on_c, 9, 42, 0
2, 60312, Note_on_c, 9, 51, 0
2, 60384, Note_on_c, 9, 36, 95
2, 60384, Note_on_c, 9, 44, 122
2, 60386, Note_on_c, 9, 51, 125
2, 60408, Note_on_c, 9, 44, 0
2, 60408, Note_on_c, 9, 36, 0
2, 60410, Note_on_c, 9, 51, 0
2, 60478, Note_on_c, 9, 44, 122
2, 60480, Note_on_c, 9, 36, 95
2, 60482, Note_on_c, 9, 51, 127
2, 60482, Note_on_c, 9, 38, 95
2, 60502, Note_on_c, 9, 44, 0
2, 60504, Note_on_c, 9, 36, 0
2, 60506, Note_on_c, 9, 51, 0
2, 60506, Note_on_c, 9, 38, 0
2, 60528, Note_on_c, 9, 51, 127
2, 60552, Note_on_c, 9, 51, 0
2, 60576, Note_on_c, 9, 36, 95
2, 60576, Note_on_c, 9, 38, 122
2, 60576, Note_on_c, 9, 42, 95
2, 60600, Note_on_c, 9, 42, 0
2, 60600, Note_on_c, 9, 38, 0
2, 60600, Note_on_c, 9, 36, 0
2, 60626, Note_on_c, 9, 38, 122
2, 60650, Note_on_c, 9, 38, 0
2, 60672, Note_on_c, 9, 51, 127
2, 60672, Note_on_c, 9, 36, 95
2, 60672, Note_on_c, 9, 42, 122
2, 60696, Note_on_c, 9, 42, 0
2, 60696, Note_on_c, 9, 36, 0
2, 60696, Note_on_c, 9, 51, 0
2, 60768, Note_on_c, 9, 42, 95
2, 60770, Note_on_c, 9, 51, 125
2, 60792, Note_on_c, 9, 42, 0
2, 60794, Note_on_c, 9, 51, 0
2, 60818, Note_on_c, 9, 36, 95
2, 60842, Note_on_c, 9, 36, 0
2, 60864, Note_on_c, 9, 51, 127
2, 60864, Note_on_c, 9, 42, 122
2, 60866, Note_on_c, 9, 38, 95
2, 60888, Note_on_c, 9, 42, 0
2, 60888, Note_on_c, 9, 51, 0
2, 60890, Note_on_c, 9, 38, 0
2, 60958, Note_on_c, 9, 51, 125
2, 60958, Note_on_c, 9, 42, 95
2, 60982, Note_on_c, 9, 42, 0
2, 60982, Note_on_c, 9, 51, 0
2, 61010, Note_on_c, 9, 36, 95
2, 61034, Note_on_c, 9, 36, 0
2, 61054, Note_on_c, 9, 36, 122
2, 61054, Note_on_c, 9, 42, 122
2, 61056, Note_on_c, 9, 51, 127
2, 61078, Note_on_c, 9, 42, 0
2, 61078, Note_on_c, 9, 36, 0
2, 61080, Note_on_c, 9, 51, 0
2, 61150, Note_on_c, 9, 51, 125
2, 61154, Note_on_c, 9, 42, 95
2, 61174, Note_on_c, 9, 51, 0
2, 61178, Note_on_c, 9, 42, 0
2, 61200, Note_on_c, 9, 36, 95
2, 61224, Note_on_c, 9, 36, 0
2, 61246, Note_on_c, 9, 36, 122
2, 61246, Note_on_c, 9, 38, 95
2, 61248, Note_on_c, 9, 51, 127
2, 61250, Note_on_c, 9, 42, 122
2, 61270, Note_on_c, 9, 38, 0
2, 61270, Note_on_c, 9, 36, 0
2, 61272, Note_on_c, 9, 51, 0
2, 61274, Note_on_c, 9, 42, 0
2, 61344, Note_on_c, 9, 42, 95
2, 61346, Note_on_c, 9, 51, 125
2, 61368, Note_on_c, 9, 42, 0
2, 61370, Note_on_c, 9, 51, 0
2, 61392, Note_on_c, 9, 36, 95
2, 61416, Note_on_c, 9, 36, 0
2, 61438, Note_on_c, 9, 51, 127
2, 61442, Note_on_c, 9, 36, 95
2, 61442, Note_on_c, 9, 42, 122
2, 61462, Note_on_c, 9, 51, 0
2, 61466, Note_on_c, 9, 42, 0
2, 61466, Note_on_c, 9, 36, 0
2, 61536, Note_on_c, 9, 51, 125
2, 61538, Note_on_c, 9, 42, 95
2, 61560, Note_on_c, 9, 51, 0
2, 61562, Note_on_c, 9, 42, 0
2, 61582, Note_on_c, 9, 36, 95
2, 61606, Note_on_c, 9, 36, 0
2, 61632, Note_on_c, 9, 38, 95
2, 61634, Note_on_c, 9, 51, 127
2, 61634, Note_on_c, 9, 42, 122
2, 61656, Note_on_c, 9, 38, 0
2, 61658, Note_on_c, 9, 42, 0
2, 61658, Note_on_c, 9, 51, 0
2, 61728, Note_on_c, 9, 42, 95
2, 61730, Note_on_c, 9, 51, 125
2, 61752, Note_on_c, 9, 42, 0
2, 61754, Note_on_c, 9, 51, 0
2, 61822, Note_on_c, 9, 36, 122
2, 61826, Note_on_c, 9, 51, 127
2, 61826, Note_on_c, 9, 42, 122
2, 61846, Note_on_c, 9, 36, 0
2, 61850, Note_on_c, 9, 42, 0
2, 61850, Note_on_c, 9, 51, 0
2, 61918, Note_on_c, 9, 51, 125
2, 61920, Note_on_c, 9, 42, 95
2, 61942, Note_on_c, 9, 51, 0
2, 61944, Note_on_c, 9, 42, 0
2, 61968, Note_on_c, 9, 36, 95
2, 61992, Note_on_c, 9, 36, 0
2, 62014, Note_on_c, 9, 51, 127
2, 62018, Note_on_c, 9, 42, 122
2, 62020, Note_on_c, 9, 38, 95
2, 62038, Note_on_c, 9, 51, 0
2, 62042, Note_on_c, 9, 42, 0
2, 62044, Note_on_c, 9, 38, 0
2, 62064, Note_on_c, 9, 36, 122
2, 62088, Note_on_c, 9, 36, 0
2, 62110, Note_on_c, 9, 51, 125
2, 62110, Note_on_c, 9, 42, 95
2, 62134, Note_on_c, 9, 42, 0
2, 62134, Note_on_c, 9, 51, 0
2, 62158, Note_on_c, 9, 36, 95
2, 62182, Note_on_c, 9, 36, 0
2, 62208, Note_on_c, 9, 36, 95
2, 62210, Note_on_c, 9, 51, 127
2, 62210, Note_on_c, 9, 42, 122
2, 62232, Note_on_c, 9, 36, 0
2, 62234, Note_on_c, 9, 42, 0
2, 62234, Note_on_c, 9, 51, 0
2, 62304, Note_on_c, 9, 42, 95
2, 62306, Note_on_c, 9, 51, 125
2, 62328, Note_on_c, 9, 42, 0
2, 62330, Note_on_c, 9, 51, 0
2, 62354, Note_on_c, 9, 36, 95
2, 62378, Note_on_c, 9, 36, 0
2, 62400, Note_on_c, 9, 38, 95
2, 62402, Note_on_c, 9, 51, 127
2, 62402, Note_on_c, 9, 42, 122
2, 62424, Note_on_c, 9, 38, 0
2, 62426, Note_on_c, 9, 42, 0
2, 62426, Note_on_c, 9, 51, 0
2, 62496, Note_on_c, 9, 51, 125
2, 62496, Note_on_c, 9, 42, 95
2, 62520, Note_on_c, 9, 42, 0
2, 62520, Note_on_c, 9, 51, 0
2, 62546, Note_on_c, 9, 36, 95
2, 62570, Note_on_c, 9, 36, 0
2, 62590, Note_on_c, 9, 42, 122
2, 62592, Note_on_c, 9, 51, 127
2, 62592, Note_on_c, 9, 36, 122
2, 62614, Note_on_c, 9, 42, 0
2, 62616, Note_on_c, 9, 36, 0
2, 62616, Note_on_c, 9, 51, 0
2, 62688, Note_on_c, 9, 42, 95
2, 62690, Note_on_c, 9, 51, 125
2, 62690, Note_on_c, 9, 36, 95
2, 62712, Note_on_c, 9, 42, 0
2, 62714, Note_on_c, 9, 36, 0
2, 62714, Note_on_c, 9, 51, 0
2, 62782, Note_on_c, 9, 36, 122
2, 62784, Note_on_c, 9, 51, 127
2, 62784, Note_on_c, 9, 42, 122
2, 62786, Note_on_c, 9, 38, 95
2, 62806, Note_on_c, 9, 36, 0
2, 62808, Note_on_c, 9, 51, 0
2, 62808, Note_on_c, 9, 42, 0
2, 62810, Note_on_c, 9, 38, 0
2, 62880, Note_on_c, 9, 42, 95
2, 62882, Note_on_c, 9, 51, 125
2, 62904, Note_on_c, 9, 42, 0
2, 62906, Note_on_c, 9, 51, 0
2, 62926, Note_on_c, 9, 36, 95
2, 62950, Note_on_c, 9, 36, 0
2, 62974, Note_on_c, 9, 36, 95
2, 62976, Note_on_c, 9, 42, 122
2, 62978, Note_on_c, 9, 51, 127
2, 62998, Note_on_c, 9, 36, 0
2, 63000, Note_on_c, 9, 42, 0
2, 63002, Note_on_c, 9, 51, 0
2, 63070, Note_on_c, 9, 42, 95
2, 63074, Note_on_c, 9, 51, 125
2, 63094, Note_on_c, 9, 42, 0
2, 63098, Note_on_c, 9, 51, 0
2, 63170, Note_on_c, 9, 51, 127
2, 63170, Note_on_c, 9, 42, 122
2, 63172, Note_on_c, 9, 38, 122
2, 63194, Note_on_c, 9, 42, 0
2, 63194, Note_on_c, 9, 51, 0
2, 63196, Note_on_c, 9, 38, 0
2, 63262, Note_on_c, 9, 51, 125
2, 63266, Note_on_c, 9, 36, 95
2, 63266, Note_on_c, 9, 42, 95
2, 63286, Note_on_c, 9, 51, 0
2, 63290, Note_on_c, 9, 42, 0
2, 63290, Note_on_c, 9, 36, 0
2, 63358, Note_on_c, 9, 36, 122
2, 63360, Note_on_c, 9, 51, 127
2, 63360, Note_on_c, 9, 48, 122
2, 63382, Note_on_c, 9, 36, 0
2, 63384, Note_on_c, 9, 48, 95
2, 63384, Note_on_c, 9, 48, 0
2, 63384, Note_on_c, 9, 51, 0
2, 63408, Note_on_c, 9, 48, 122
2, 63408, Note_on_c, 9, 48, 0
2, 63432, Note_on_c, 9, 48, 0
2, 63456, Note_on_c, 9, 45, 122
2, 63458, Note_on_c, 9, 51, 125
2, 63480, Note_on_c, 9, 45, 95
2, 63480, Note_on_c, 9, 45, 0
2, 63482, Note_on_c, 9, 51, 0
2, 63504, Note_on_c, 9, 36, 122
2, 63504, Note_on_c, 9, 45, 95
2, 63504, Note_on_c, 9, 45, 0
2, 63528, Note_on_c, 9, 45, 0
2, 63528, Note_on_c, 9, 36, 0
2, 63552, Note_on_c, 9, 36, 122
2, 63552, Note_on_c, 9, 49, 122
2, 63554, Note_on_c, 9, 51, 127
2, 63556, Note_on_c, 9, 38, 122
2, 63576, Note_on_c, 9, 49, 0
2, 63576, Note_on_c, 9, 36, 0
2, 63578, Note_on_c, 9, 51, 0
2, 63580, Note_on_c, 9, 38, 0
2, 63598, Note_on_c, 9, 38, 122
2, 63598, Note_on_c, 9, 49, 122
2, 63600, Note_on_c, 9, 51, 127
2, 63600, Note_on_c, 9, 36, 122
2, 63622, Note_on_c, 9, 49, 0
2, 63622, Note_on_c, 9, 38, 0
2, 63624, Note_on_c, 9, 51, 0
2, 63624, Note_on_c, 9, 36, 0
2, 63744, Note_on_c, 9, 36, 122
2, 63744, Note_on_c, 9, 42, 122
2, 63744, Note_on_c, 9, 49, 122
2, 63768, Note_on_c, 9, 49, 0
2, 63768, Note_on_c, 9, 42, 0
2, 63768, Note_on_c, 9, 36, 0
2, 63840, Note_on_c, 9, 42, 95
2, 63864, Note_on_c, 9, 42, 0
2, 63886, Note_on_c, 9, 36, 95
2, 63910, Note_on_c, 9, 36, 0
2, 63934, Note_on_c, 9, 36, 122
2, 63934, Note_on_c, 9, 38, 122
2, 63938, Note_on_c, 9, 42, 122
2, 63958, Note_on_c, 9, 38, 0
2, 63958, Note_on_c, 9, 36, 0
2, 63962, Note_on_c, 9, 42, 0
2, 64034, Note_on_c, 9, 42, 95
2, 64058, Note_on_c, 9, 42, 0
2, 64082, Note_on_c, 9, 36, 95
2, 64106, Note_on_c, 9, 36, 0
2, 64128, Note_on_c, 9, 36, 122
2, 64128, Note_on_c, 9, 49, 122
2, 64130, Note_on_c, 9, 42, 122
2, 64132, Note_on_c, 9, 38, 122
2, 64152, Note_on_c, 9, 49, 0
2, 64152, Note_on_c, 9, 36, 0
2, 64154, Note_on_c, 9, 42, 0
2, 64156, Note_on_c, 9, 38, 0
2, 64226, Note_on_c, 9, 42, 95
2, 64250, Note_on_c, 9, 42, 0
2, 64274, Note_on_c, 9, 36, 95
2, 64298, Note_on_c, 9, 36, 0
2, 64318, Note_on_c, 9, 36, 122
2, 64318, Note_on_c, 9, 42, 122
2, 64320, Note_on_c, 9, 38, 122
2, 64322, Note_on_c, 9, 49, 122
2, 64342, Note_on_c, 9, 42, 0
2, 64342, Note_on_c, 9, 36, 0
2, 64344, Note_on_c, 9, 38, 0
2, 64346, Note_on_c, 9, 49, 0
2, 64418, Note_on_c, 9, 42, 95
2, 64442, Note_on_c, 9, 42, 0
2, 64466, Note_on_c, 9, 36, 95
2, 64490, Note_on_c, 9, 36, 0
2, 64510, Note_on_c, 9, 36, 122
2, 64514, Note_on_c, 9, 42, 122
2, 64514, Note_on_c, 9, 49, 122
2, 64534, Note_on_c, 9, 36, 0
2, 64538, Note_on_c, 9, 49, 0
2, 64538, Note_on_c, 9, 42, 0
2, 64606, Note_on_c, 9, 42, 95
2, 64630, Note_on_c, 9, 42, 0
2, 64658, Note_on_c, 9, 36, 95
2, 64682, Note_on_c, 9, 36, 0
2, 64702, Note_on_c, 9, 42, 122
2, 64704, Note_on_c, 9, 36, 122
2, 64706, Note_on_c, 9, 38, 122
2, 64726, Note_on_c, 9, 42, 0
2, 64728, Note_on_c, 9, 36, 0
2, 64730, Note_on_c, 9, 38, 0
2, 64752, Note_on_c, 9, 36, 95
2, 64776, Note_on_c, 9, 36, 0
2, 64798, Note_on_c, 9, 42, 95
2, 64822, Note_on_c, 9, 42, 0
2, 64846, Note_on_c, 9, 36, 95
2, 64870, Note_on_c, 9, 36, 0
2, 64894, Note_on_c, 9, 36, 122
2, 64898, Note_on_c, 9, 38, 122
2, 64898, Note_on_c, 9, 42, 122
2, 64898, Note_on_c, 9, 49, 122
2, 64918, Note_on_c, 9, 36, 0
2, 64922, Note_on_c, 9, 38, 0
2, 64922, Note_on_c, 9, 42, 0
2, 64922, Note_on_c, 9, 49, 0
2, 64994, Note_on_c, 9, 42, 95
2, 65018, Note_on_c, 9, 42, 0
2, 65040, Note_on_c, 9, 36, 95
2, 65064, Note_on_c, 9, 36, 0
2, 65086, Note_on_c, 9, 36, 122
2, 65086, Note_on_c, 9, 49, 122
2, 65090, Note_on_c, 9, 38, 122
2, 65090, Note_on_c, 9, 42, 122
2, 65110, Note_on_c, 9, 49, 0
2, 65110, Note_on_c, 9, 36, 0
2, 65114, Note_on_c, 9, 38, 0
2, 65114, Note_on_c, 9, 42, 0
2, 65186, Note_on_c, 9, 42, 95
2, 65210, Note_on_c, 9, 42, 0
2, 65234, Note_on_c, 9, 36, 95
2, 65258, Note_on_c, 9, 36, 0
2, 65278, Note_on_c, 9, 42, 122
2, 65278, Note_on_c, 9, 49, 122
2, 65280, Note_on_c, 9, 36, 122
2, 65302, Note_on_c, 9, 49, 0
2, 65302, Note_on_c, 9, 42, 0
2, 65304, Note_on_c, 9, 36, 0
2, 65378, Note_on_c, 9, 42, 95
2, 65402, Note_on_c, 9, 42, 0
2, 65422, Note_on_c, 9, 36, 95
2, 65446, Note_on_c, 9, 36, 0
2, 65470, Note_on_c, 9, 36, 122
2, 65470, Note_on_c, 9, 42, 122
2, 65474, Note_on_c, 9, 38, 122
2, 65494, Note_on_c, 9, 42, 0
2, 65494, Note_on_c, 9, 36, 0
2, 65498, Note_on_c, 9, 38, 0
2, 65570, Note_on_c, 9, 42, 95
2, 65594, Note_on_c, 9, 42, 0
2, 65616, Note_on_c, 9, 36, 95
2, 65640, Note_on_c, 9, 36, 0
2, 65662, Note_on_c, 9, 36, 122
2, 65662, Note_on_c, 9, 42, 122
2, 65686, Note_on_c, 9, 42, 0
2, 65686, Note_on_c, 9, 36, 0
2, 65758, Note_on_c, 9, 42, 95
2, 65762, Note_on_c, 9, 36, 95
2, 65782, Note_on_c, 9, 42, 0
2, 65786, Note_on_c, 9, 36, 0
2, 65856, Note_on_c, 9, 38, 122
2, 65856, Note_on_c, 9, 42, 122
2, 65880, Note_on_c, 9, 42, 0
2, 65880, Note_on_c, 9, 38, 0
2, 65950, Note_on_c, 9, 42, 95
2, 65974, Note_on_c, 9, 42, 0
2, 65998, Note_on_c, 9, 36, 95
2, 66022, Note_on_c, 9, 36, 0
2, 66048, Note_on_c, 9, 36, 122
2, 66050, Note_on_c, 9, 42, 122
2, 66072, Note_on_c, 9, 36, 0
2, 66074, Note_on_c, 9, 42, 0
2, 66142, Note_on_c, 9, 42, 95
2, 66166, Note_on_c, 9, 42, 0
2, 66194, Note_on_c, 9, 36, 95
2, 66218, Note_on_c, 9, 36, 0
2, 66240, Note_on_c, 9, 42, 122
2, 66242, Note_on_c, 9, 38, 122
2, 66264, Note_on_c, 9, 42, 0
2, 66266, Note_on_c, 9, 38, 0
2, 66334, Note_on_c, 9, 36, 95
2, 66338, Note_on_c, 9, 42, 95
2, 66358, Note_on_c, 9, 36, 0
2, 66362, Note_on_c, 9, 42, 0
2, 66432, Note_on_c, 9, 48, 122
2, 66434, Note_on_c, 9, 42, 122
2, 66456, Note_on_c, 9, 48, 95
2, 66456, Note_on_c, 9, 48, 0
2, 66458, Note_on_c, 9, 42, 0
2, 66480, Note_on_c, 9, 48, 95
2, 66480, Note_on_c, 9, 48, 0
2, 66504, Note_on_c, 9, 45, 122
2, 66504, Note_on_c, 9, 48, 0
2, 66528, Note_on_c, 9, 45, 95
2, 66528, Note_on_c, 9, 45, 0
2, 66552, Note_on_c, 9, 45, 95
2, 66552, Note_on_c, 9, 45, 0
2, 66576, Note_on_c, 9, 41, 122
2, 66576, Note_on_c, 9, 45, 0
2, 66600, Note_on_c, 9, 41, 95
2, 66600, Note_on_c, 9, 41, 0
2, 66624, Note_on_c, 9, 36, 122
2, 66624, Note_on_c, 9, 38, 122
2, 66624, Note_on_c, 9, 41, 0
2, 66626, Note_on_c, 9, 49, 122
2, 66648, Note_on_c, 9, 38, 0
2, 66648, Note_on_c, 9, 36, 0
2, 66650, Note_on_c, 9, 49, 0
2, 66674, Note_on_c, 9, 36, 122
2, 66674, Note_on_c, 9, 38, 122
2, 66674, Note_on_c, 9, 49, 122
2, 66698, Note_on_c, 9, 49, 0
2, 66698, Note_on_c, 9, 38, 0
2, 66698, Note_on_c, 9, 36, 0
2, 66770, Note_on_c, 9, 36, 95
2, 66794, Note_on_c, 9, 36, 0
2, 66814, Note_on_c, 9, 49, 122
2, 66818, Note_on_c, 9, 36, 122
2, 66818, Note_on_c, 9, 42, 122
2, 66838, Note_on_c, 9, 49, 0
2, 66842, Note_on_c, 9, 42, 0
2, 66842, Note_on_c, 9, 36, 0
2, 66912, Note_on_c, 9, 42, 95
2, 66936, Note_on_c, 9, 42, 0
2, 66960, Note_on_c, 9, 36, 95
2, 66984, Note_on_c, 9, 36, 0
2, 67006, Note_on_c, 9, 38, 122
2, 67006, Note_on_c, 9, 42, 122
2, 67008, Note_on_c, 9, 36, 122
2, 67030, Note_on_c, 9, 42, 0
2, 67030, Note_on_c, 9, 38, 0
2, 67032, Note_on_c, 9, 36, 0
2, 67106, Note_on_c, 9, 42, 95
2, 67130, Note_on_c, 9, 42, 0
2, 67154, Note_on_c, 9, 36, 95
2, 67178, Note_on_c, 9, 36, 0
2, 67198, Note_on_c, 9, 36, 122
2, 67200, Note_on_c, 9, 38, 122
2, 67202, Note_on_c, 9, 42, 122
2, 67202, Note_on_c, 9, 49, 122
2, 67222, Note_on_c, 9, 36, 0
2, 67224, Note_on_c, 9, 38, 0
2, 67226, Note_on_c, 9, 42, 0
2, 67226, Note_on_c, 9, 49, 0
2, 67294, Note_on_c, 9, 42, 95
2, 67318, Note_on_c, 9, 42, 0
2, 67344, Note_on_c, 9, 36, 95
2, 67368, Note_on_c, 9, 36, 0
2, 67392, Note_on_c, 9, 38, 122
2, 67394, Note_on_c, 9, 36, 122
2, 67394, Note_on_c, 9, 42, 122
2, 67394, Note_on_c, 9, 49, 122
2, 67416, Note_on_c, 9, 38, 0
2, 67418, Note_on_c, 9, 36, 0
2, 67418, Note_on_c, 9, 42, 0
2, 67418, Note_on_c, 9, 49, 0
2, 67490, Note_on_c, 9, 42, 95
2, 67514, Note_on_c, 9, 42, 0
2, 67536, Note_on_c, 9, 36, 95
2, 67560, Note_on_c, 9, 36, 0
2, 67584, Note_on_c, 9, 36, 122
2, 67584, Note_on_c, 9, 49, 122
2, 67586, Note_on_c, 9, 42, 122
2, 67608, Note_on_c, 9, 49, 0
2, 67608, Note_on_c, 9, 36, 0
2, 67610, Note_on_c, 9, 42, 0
2, 67680, Note_on_c, 9, 42, 95
2, 67704, Note_on_c, 9, 42, 0
2, 67726, Note_on_c, 9, 36, 95
2, 67750, Note_on_c, 9, 36, 0
2, 67776, Note_on_c, 9, 36, 122
2, 67776, Note_on_c, 9, 42, 122
2, 67778, Note_on_c, 9, 38, 122
2, 67800, Note_on_c, 9, 42, 0
2, 67800, Note_on_c, 9, 36, 0
2, 67802, Note_on_c, 9, 38, 0
2, 67826, Note_on_c, 9, 36, 95
2, 67850, Note_on_c, 9, 36, 0
2, 67870, Note_on_c, 9, 42, 95
2, 67894, Note_on_c, 9, 42, 0
2, 67920, Note_on_c, 9, 36, 95
2, 67944, Note_on_c, 9, 36, 0
2, 67968, Note_on_c, 9, 36, 122
2, 67968, Note_on_c, 9, 49, 122
2, 67970, Note_on_c, 9, 42, 122
2, 67972, Note_on_c, 9, 38, 122
2, 67992, Note_on_c, 9, 49, 0
2, 67992, Note_on_c, 9, 36, 0
2, 67994, Note_on_c, 9, 42, 0
2, 67996, Note_on_c, 9, 38, 0
2, 68064, Note_on_c, 9, 42, 95
2, 68088, Note_on_c, 9, 42, 0
2, 68114, Note_on_c, 9, 36, 95
2, 68138, Note_on_c, 9, 36, 0
2, 68160, Note_on_c, 9, 36, 122
2, 68160, Note_on_c, 9, 38, 122
2, 68160, Note_on_c, 9, 42, 122
2, 68160, Note_on_c, 9, 49, 122
2, 68184, Note_on_c, 9, 49, 0
2, 68184, Note_on_c, 9, 36, 0
2, 68184, Note_on_c, 9, 38, 0
2, 68184, Note_on_c, 9, 42, 0
2, 68256, Note_on_c, 9, 42, 95
2, 68280, Note_on_c, 9, 42, 0
2, 68302, Note_on_c, 9, 36, 95
2, 68326, Note_on_c, 9, 36, 0
2, 68350, Note_on_c, 9, 36, 122
2, 68354, Note_on_c, 9, 42, 122
2, 68354, Note_on_c, 9, 49, 122
2, 68374, Note_on_c, 9, 36, 0
2, 68378, Note_on_c, 9, 49, 0
2, 68378, Note_on_c, 9, 42, 0
2, 68448, Note_on_c, 9, 42, 95
2, 68472, Note_on_c, 9, 42, 0
2, 68494, Note_on_c, 9, 36, 95
2, 68518, Note_on_c, 9, 36, 0
2, 68542, Note_on_c, 9, 42, 122
2, 68544, Note_on_c, 9, 36, 122
2, 68546, Note_on_c, 9, 38, 122
2, 68566, Note_on_c, 9, 42, 0
2, 68568, Note_on_c, 9, 36, 0
2, 68570, Note_on_c, 9, 38, 0
2, 68638, Note_on_c, 9, 42, 95
2, 68662, Note_on_c, 9, 42, 0
2, 68686, Note_on_c, 9, 36, 95
2, 68710, Note_on_c, 9, 36, 0
2, 68738, Note_on_c, 9, 36, 122
2, 68738, Note_on_c, 9, 42, 122
2, 68762, Note_on_c, 9, 42, 0
2, 68762, Note_on_c, 9, 36, 0
2, 68832, Note_on_c, 9, 36, 95
2, 68834, Note_on_c, 9, 42, 95
2, 68856, Note_on_c, 9, 36, 0
2, 68858, Note_on_c, 9, 42, 0
2, 68926, Note_on_c, 9, 38, 122
2, 68928, Note_on_c, 9, 42, 122
2, 68950, Note_on_c, 9, 38, 0
2, 68952, Note_on_c, 9, 42, 0
2, 69026, Note_on_c, 9, 42, 95
2, 69050, Note_on_c, 9, 42, 0
2, 69072, Note_on_c, 9, 36, 95
2, 69096, Note_on_c, 9, 36, 0
2, 69118, Note_on_c, 9, 49, 122
2, 69120, Note_on_c, 9, 36, 122
2, 69142, Note_on_c, 9, 49, 0
2, 69144, Note_on_c, 9, 36, 0
2, 69262, Note_on_c, 9, 36, 95
2, 69286, Note_on_c, 9, 36, 0
2, 69310, Note_on_c, 9, 38, 122
2, 69312, Note_on_c, 9, 36, 122
2, 69334, Note_on_c, 9, 38, 0
2, 69336, Note_on_c, 9, 36, 0
2, 69408, Note_on_c, 9, 36, 95
2, 69432, Note_on_c, 9, 36, 0
2, 69504, Note_on_c, 9, 48, 122
2, 69528, Note_on_c, 9, 48, 122
2, 69528, Note_on_c, 9, 48, 0
2, 69552, Note_on_c, 9, 48, 122
2, 69552, Note_on_c, 9, 48, 0
2, 69576, Note_on_c, 9, 45, 122
2, 69576, Note_on_c, 9, 48, 0
2, 69600, Note_on_c, 9, 45, 122
2, 69600, Note_on_c, 9, 45, 0
2, 69624, Note_on_c, 9, 45, 122
2, 69624, Note_on_c, 9, 45, 0
2, 69648, Note_on_c, 9, 41, 122
2, 69648, Note_on_c, 9, 45, 0
2, 69672, Note_on_c, 9, 41, 122
2, 69672, Note_on_c, 9, 41, 0
2, 69694, Note_on_c, 9, 36, 122
2, 69696, Note_on_c, 9, 41, 0
2, 69718, Note_on_c, 9, 36, 0
2, 69742, Note_on_c, 9, 36, 95
2, 69766, Note_on_c, 9, 36, 0
2, 69792, Note_on_c, 9, 36, 122
2, 69816, Note_on_c, 9, 36, 0
2, 69838, Note_on_c, 9, 36, 95
2, 69862, Note_on_c, 9, 36, 0
2, 69888, Note_on_c, 9, 36, 122
2, 69888, Note_on_c, 9, 42, 122
2, 69912, Note_on_c, 9, 42, 0
2, 69912, Note_on_c, 9, 36, 0
2, 69936, Note_on_c, 9, 42, 95
2, 69938, Note_on_c, 9, 36, 95
2, 69960, Note_on_c, 9, 42, 0
2, 69962, Note_on_c, 9, 36, 0
2, 69984, Note_on_c, 9, 36, 122
2, 69984, Note_on_c, 9, 42, 122
2, 69986, Note_on_c, 9, 38, 122
2, 70008, Note_on_c, 9, 42, 0
2, 70008, Note_on_c, 9, 36, 0
2, 70010, Note_on_c, 9, 38, 0
2, 70034, Note_on_c, 9, 36, 95
2, 70034, Note_on_c, 9, 38, 95
2, 70034, Note_on_c, 9, 42, 95
2, 70058, Note_on_c, 9, 42, 0
2, 70058, Note_on_c, 9, 38, 0
2, 70058, Note_on_c, 9, 36, 0
2, 70078, Note_on_c, 9, 36, 122
2, 70080, Note_on_c, 9, 42, 122
2, 70102, Note_on_c, 9, 36, 0
2, 70104, Note_on_c, 9, 42, 0
2, 70126, Note_on_c, 9, 36, 95
2, 70128, Note_on_c, 9, 42, 95
2, 70150, Note_on_c, 9, 36, 0
2, 70152, Note_on_c, 9, 42, 0
2, 70176, Note_on_c, 9, 36, 122
2, 70176, Note_on_c, 9, 42, 122
2, 70178, Note_on_c, 9, 38, 122
2, 70200, Note_on_c, 9, 42, 0
2, 70200, Note_on_c, 9, 36, 0
2, 70202, Note_on_c, 9, 38, 0
2, 70224, Note_on_c, 9, 36, 95
2, 70224, Note_on_c, 9, 42, 95
2, 70248, Note_on_c, 9, 42, 0
2, 70248, Note_on_c, 9, 36, 0
2, 70270, Note_on_c, 9, 36, 122
2, 70274, Note_on_c, 9, 42, 122
2, 70294, Note_on_c, 9, 36, 0
2, 70298, Note_on_c, 9, 42, 0
2, 70318, Note_on_c, 9, 36, 95
2, 70322, Note_on_c, 9, 42, 95
2, 70342, Note_on_c, 9, 36, 0
2, 70346, Note_on_c, 9, 42, 0
2, 70368, Note_on_c, 9, 36, 122
2, 70370, Note_on_c, 9, 38, 122
2, 70370, Note_on_c, 9, 42, 122
2, 70392, Note_on_c, 9, 36, 0
2, 70394, Note_on_c, 9, 42, 0
2, 70394, Note_on_c, 9, 38, 0
2, 70414, Note_on_c, 9, 42, 95
2, 70416, Note_on_c, 9, 36, 95
2, 70420, Note_on_c, 9, 38, 95
2, 70438, Note_on_c, 9, 42, 0
2, 70440, Note_on_c, 9, 36, 0
2, 70444, Note_on_c, 9, 38, 0
2, 70464, Note_on_c, 9, 36, 122
2, 70466, Note_on_c, 9, 42, 122
2, 70488, Note_on_c, 9, 36, 0
2, 70490, Note_on_c, 9, 42, 0
2, 70512, Note_on_c, 9, 42, 95
2, 70514, Note_on_c, 9, 36, 95
2, 70536, Note_on_c, 9, 42, 0
2, 70538, Note_on_c, 9, 36, 0
2, 70560, Note_on_c, 9, 36, 122
2, 70560, Note_on_c, 9, 42, 122
2, 70562, Note_on_c, 9, 38, 122
2, 70584, Note_on_c, 9, 42, 0
2, 70584, Note_on_c, 9, 36, 0
2, 70586, Note_on_c, 9, 38, 0
2, 70610, Note_on_c, 9, 36, 95
2, 70610, Note_on_c, 9, 42, 95
2, 70634, Note_on_c, 9, 42, 0
2, 70634, Note_on_c, 9, 36, 0
2, 70656, Note_on_c, 9, 36, 122
2, 70658, Note_on_c, 9, 42, 122
2, 70680, Note_on_c, 9, 36, 0
2, 70682, Note_on_c, 9, 42, 0
2, 70704, Note_on_c, 9, 36, 95
2, 70704, Note_on_c, 9, 42, 95
2, 70728, Note_on_c, 9, 42, 0
2, 70728, Note_on_c, 9, 36, 0
2, 70752, Note_on_c, 9, 36, 122
2, 70754, Note_on_c, 9, 38, 122
2, 70754, Note_on_c, 9, 42, 122
2, 70776, Note_on_c, 9, 36, 0
2, 70778, Note_on_c, 9, 42, 0
2, 70778, Note_on_c, 9, 38, 0
2, 70798, Note_on_c, 9, 36, 95
2, 70798, Note_on_c, 9, 38, 95
2, 70802, Note_on_c, 9, 42, 95
2, 70822, Note_on_c, 9, 38, 0
2, 70822, Note_on_c, 9, 36, 0
2, 70826, Note_on_c, 9, 42, 0
2, 70846, Note_on_c, 9, 36, 122
2, 70848, Note_on_c, 9, 42, 122
2, 70870, Note_on_c, 9, 36, 0
2, 70872, Note_on_c, 9, 42, 0
2, 70896, Note_on_c, 9, 36, 95
2, 70898, Note_on_c, 9, 42, 95
2, 70920, Note_on_c, 9, 36, 0
2, 70922, Note_on_c, 9, 42, 0
2, 70942, Note_on_c, 9, 36, 122
2, 70944, Note_on_c, 9, 38, 122
2, 70944, Note_on_c, 9, 42, 122
2, 70966, Note_on_c, 9, 36, 0
2, 70968, Note_on_c, 9, 42, 0
2, 70968, Note_on_c, 9, 38, 0
2, 70994, Note_on_c, 9, 36, 95
2, 70994, Note_on_c, 9, 42, 95
2, 71018, Note_on_c, 9, 42, 0
2, 71018, Note_on_c, 9, 36, 0
2, 71038, Note_on_c, 9, 42, 122
2, 71042, Note_on_c, 9, 36, 122
2, 71062, Note_on_c, 9, 42, 0
2, 71066, Note_on_c, 9, 36, 0
2, 71086, Note_on_c, 9, 36, 95
2, 71088, Note_on_c, 9, 42, 95
2, 71110, Note_on_c, 9, 36, 0
2, 71112, Note_on_c, 9, 42, 0
2, 71134, Note_on_c, 9, 38, 122
2, 71138, Note_on_c, 9, 36, 122
2, 71138, Note_on_c, 9, 42, 122
2, 71158, Note_on_c, 9, 38, 0
2, 71162, Note_on_c, 9, 42, 0
2, 71162, Note_on_c, 9, 36, 0
2, 71182, Note_on_c, 9, 38, 95
2, 71184, Note_on_c, 9, 36, 95
2, 71184, Note_on_c, 9, 42, 95
2, 71206, Note_on_c, 9, 38, 0
2, 71208, Note_on_c, 9, 42, 0
2, 71208, Note_on_c, 9, 36, 0
2, 71230, Note_on_c, 9, 36, 122
2, 71232, Note_on_c, 9, 42, 122
2, 71254, Note_on_c, 9, 36, 0
2, 71256, Note_on_c, 9, 42, 0
2, 71278, Note_on_c, 9, 42, 95
2, 71280, Note_on_c, 9, 36, 95
2, 71302, Note_on_c, 9, 42, 0
2, 71304, Note_on_c, 9, 36, 0
2, 71328, Note_on_c, 9, 36, 122
2, 71330, Note_on_c, 9, 38, 122
2, 71330, Note_on_c, 9, 42, 122
2, 71352, Note_on_c, 9, 36, 0
2, 71354, Note_on_c, 9, 42, 0
2, 71354, Note_on_c, 9, 38, 0
2, 71376, Note_on_c, 9, 36, 95
2, 71376, Note_on_c, 9, 42, 95
2, 71400, Note_on_c, 9, 42, 0
2, 71400, Note_on_c, 9, 36, 0
2, 71426, Note_on_c, 9, 36, 122
2, 71426, Note_on_c, 9, 42, 122
2, 71450, Note_on_c, 9, 42, 0
2, 71450, Note_on_c, 9, 36, 0
2, 71474, Note_on_c, 9, 36, 95
2, 71474, Note_on_c, 9, 42, 95
2, 71498, Note_on_c, 9, 42, 0
2, 71498, Note_on_c, 9, 36, 0
2, 71518, Note_on_c, 9, 38, 122
2, 71518, Note_on_c, 9, 42, 122
2, 71522, Note_on_c, 9, 36, 122
2, 71542, Note_on_c, 9, 42, 0
2, 71542, Note_on_c, 9, 38, 0
2, 71546, Note_on_c, 9, 36, 0
2, 71568, Note_on_c, 9, 36, 95
2, 71570, Note_on_c, 9, 38, 95
2, 71570, Note_on_c, 9, 42, 95
2, 71592, Note_on_c, 9, 36, 0
2, 71594, Note_on_c, 9, 42, 0
2, 71594, Note_on_c, 9, 38, 0
2, 71614, Note_on_c, 9, 36, 122
2, 71616, Note_on_c, 9, 42, 122
2, 71638, Note_on_c, 9, 36, 0
2, 71640, Note_on_c, 9, 42, 0
2, 71664, Note_on_c, 9, 36, 95
2, 71666, Note_on_c, 9, 42, 95
2, 71688, Note_on_c, 9, 36, 0
2, 71690, Note_on_c, 9, 42, 0
2, 71712, Note_on_c, 9, 36, 122
2, 71712, Note_on_c, 9, 38, 122
2, 71712, Note_on_c, 9, 42, 122
2, 71736, Note_on_c, 9, 42, 0
2, 71736, Note_on_c, 9, 38, 0
2, 71736, Note_on_c, 9, 36, 0
2, 71762, Note_on_c, 9, 36, 95
2, 71762, Note_on_c, 9, 42, 95
2, 71786, Note_on_c, 9, 42, 0
2, 71786, Note_on_c, 9, 36, 0
2, 71806, Note_on_c, 9, 42, 122
2, 71808, Note_on_c, 9, 36, 122
2, 71830, Note_on_c, 9, 42, 0
2, 71832, Note_on_c, 9, 36, 0
2, 71854, Note_on_c, 9, 42, 95
2, 71856, Note_on_c, 9, 36, 95
2, 71878, Note_on_c, 9, 42, 0
2, 71880, Note_on_c, 9, 36, 0
2, 71906, Note_on_c, 9, 36, 122
2, 71906, Note_on_c, 9, 38, 122
2, 71906, Note_on_c, 9, 42, 122
2, 71930, Note_on_c, 9, 42, 0
2, 71930, Note_on_c, 9, 38, 0
2, 71930, Note_on_c, 9, 36, 0
2, 71952, Note_on_c, 9, 36, 95
2, 71952, Note_on_c, 9, 38, 95
2, 71954, Note_on_c, 9, 42, 95
2, 71976, Note_on_c, 9, 38, 0
2, 71976, Note_on_c, 9, 36, 0
2, 71978, Note_on_c, 9, 42, 0
2, 72000, Note_on_c, 9, 36, 122
2, 72002, Note_on_c, 9, 42, 122
2, 72024, Note_on_c, 9, 36, 0
2, 72026, Note_on_c, 9, 42, 0
2, 72048, Note_on_c, 9, 36, 95
2, 72048, Note_on_c, 9, 42, 95
2, 72072, Note_on_c, 9, 42, 0
2, 72072, Note_on_c, 9, 36, 0
2, 72094, Note_on_c, 9, 36, 122
2, 72096, Note_on_c, 9, 38, 122
2, 72098, Note_on_c, 9, 42, 122
2, 72118, Note_on_c, 9, 36, 0
2, 72120, Note_on_c, 9, 38, 0
2, 72122, Note_on_c, 9, 42, 0
2, 72142, Note_on_c, 9, 36, 95
2, 72142, Note_on_c, 9, 42, 95
2, 72166, Note_on_c, 9, 42, 0
2, 72166, Note_on_c, 9, 36, 0
2, 72190, Note_on_c, 9, 36, 122
2, 72192, Note_on_c, 9, 42, 122
2, 72214, Note_on_c, 9, 36, 0
2, 72216, Note_on_c, 9, 42, 0
2, 72240, Note_on_c, 9, 36, 95
2, 72240, Note_on_c, 9, 42, 95
2, 72264, Note_on_c, 9, 42, 0
2, 72264, Note_on_c, 9, 36, 0
2, 72286, Note_on_c, 9, 42, 122
2, 72288, Note_on_c, 9, 36, 122
2, 72292, Note_on_c, 9, 38, 122
2, 72310, Note_on_c, 9, 42, 0
2, 72312, Note_on_c, 9, 36, 0
2, 72316, Note_on_c, 9, 38, 0
2, 72334, Note_on_c, 9, 36, 95
2, 72336, Note_on_c, 9, 38, 95
2, 72336, Note_on_c, 9, 42, 95
2, 72358, Note_on_c, 9, 36, 0
2, 72360, Note_on_c, 9, 42, 0
2, 72360, Note_on_c, 9, 38, 0
2, 72386, Note_on_c, 9, 36, 122
2, 72386, Note_on_c, 9, 42, 122
2, 72410, Note_on_c, 9, 42, 0
2, 72410, Note_on_c, 9, 36, 0
2, 72430, Note_on_c, 9, 36, 95
2, 72434, Note_on_c, 9, 42, 95
2, 72454, Note_on_c, 9, 36, 0
2, 72458, Note_on_c, 9, 42, 0
2, 72482, Note_on_c, 9, 36, 122
2, 72482, Note_on_c, 9, 38, 122
2, 72482, Note_on_c, 9, 42, 122
2, 72506, Note_on_c, 9, 42, 0
2, 72506, Note_on_c, 9, 38, 0
2, 72506, Note_on_c, 9, 36, 0
2, 72526, Note_on_c, 9, 36, 95
2, 72526, Note_on_c, 9, 42, 95
2, 72550, Note_on_c, 9, 42, 0
2, 72550, Note_on_c, 9, 36, 0
2, 72576, Note_on_c, 9, 36, 122
2, 72576, Note_on_c, 9, 42, 122
2, 72600, Note_on_c, 9, 42, 0
2, 72600, Note_on_c, 9, 36, 0
2, 72624, Note_on_c, 9, 36, 95
2, 72624, Note_on_c, 9, 42, 95
2, 72648, Note_on_c, 9, 42, 0
2, 72648, Note_on_c, 9, 36, 0
2, 72672, Note_on_c, 9, 48, 122
2, 72674, Note_on_c, 9, 36, 122
2, 72696, Note_on_c, 9, 48, 122
2, 72696, Note_on_c, 9, 48, 0
2, 72698, Note_on_c, 9, 36, 0
2, 72720, Note_on_c, 9, 36, 95
2, 72720, Note_on_c, 9, 48, 122
2, 72720, Note_on_c, 9, 48, 0
2, 72744, Note_on_c, 9, 48, 95
2, 72744, Note_on_c, 9, 48, 0
2, 72744, Note_on_c, 9, 36, 0
2, 72766, Note_on_c, 9, 36, 122
2, 72768, Note_on_c, 9, 45, 122
2, 72768, Note_on_c, 9, 48, 0
2, 72790, Note_on_c, 9, 36, 0
2, 72792, Note_on_c, 9, 45, 122
2, 72792, Note_on_c, 9, 45, 0
2, 72816, Note_on_c, 9, 36, 95
2, 72816, Note_on_c, 9, 45, 122
2, 72816, Note_on_c, 9, 45, 0
2, 72840, Note_on_c, 9, 45, 95
2, 72840, Note_on_c, 9, 45, 0
2, 72840, Note_on_c, 9, 36, 0
2, 72862, Note_on_c, 9, 36, 122
2, 72864, Note_on_c, 9, 41, 95
2, 72864, Note_on_c, 9, 45, 0
2, 72886, Note_on_c, 9, 36, 0
2, 72888, Note_on_c, 9, 41, 122
2, 72888, Note_on_c, 9, 41, 0
2, 72912, Note_on_c, 9, 41, 122
2, 72912, Note_on_c, 9, 41, 0
2, 72914, Note_on_c, 9, 36, 95
2, 72936, Note_on_c, 9, 41, 122
2, 72936, Note_on_c, 9, 41, 0
2, 72938, Note_on_c, 9, 36, 0
2, 72960, Note_on_c, 9, 36, 122
2, 72960, Note_on_c, 9, 41, 0
2, 72962, Note_on_c, 9, 42, 122
2, 72984, Note_on_c, 9, 36, 0
2, 72986, Note_on_c, 9, 42, 0
2, 73010, Note_on_c, 9, 36, 95
2, 73010, Note_on_c, 9, 42, 95
2, 73034, Note_on_c, 9, 42, 0
2, 73034, Note_on_c, 9, 36, 0
2, 73054, Note_on_c, 9, 36, 122
2, 73058, Note_on_c, 9, 42, 122
2, 73060, Note_on_c, 9, 38, 122
2, 73078, Note_on_c, 9, 36, 0
2, 73082, Note_on_c, 9, 42, 0
2, 73084, Note_on_c, 9, 38, 0
2, 73104, Note_on_c, 9, 36, 95
2, 73104, Note_on_c, 9, 38, 95
2, 73104, Note_on_c, 9, 42, 95
2, 73128, Note_on_c, 9, 42, 0
2, 73128, Note_on_c, 9, 38, 0
2, 73128, Note_on_c, 9, 36, 0
2, 73152, Note_on_c, 9, 42, 122
2, 73154, Note_on_c, 9, 36, 122
2, 73176, Note_on_c, 9, 42, 0
2, 73178, Note_on_c, 9, 36, 0
2, 73200, Note_on_c, 9, 36, 95
2, 73200, Note_on_c, 9, 42, 95
2, 73224, Note_on_c, 9, 42, 0
2, 73224, Note_on_c, 9, 36, 0
2, 73246, Note_on_c, 9, 36, 122
2, 73248, Note_on_c, 9, 38, 122
2, 73248, Note_on_c, 9, 42, 122
2, 73270, Note_on_c, 9, 36, 0
2, 73272, Note_on_c, 9, 42, 0
2, 73272, Note_on_c, 9, 38, 0
2, 73296, Note_on_c, 9, 36, 95
2, 73296, Note_on_c, 9, 42, 95
2, 73320, Note_on_c, 9, 42, 0
2, 73320, Note_on_c, 9, 36, 0
2, 73342, Note_on_c, 9, 36, 122
2, 73346, Note_on_c, 9, 42, 122
2, 73366, Note_on_c, 9, 36, 0
2, 73370, Note_on_c, 9, 42, 0
2, 73392, Note_on_c, 9, 36, 95
2, 73392, Note_on_c, 9, 42, 95
2, 73416, Note_on_c, 9, 42, 0
2, 73416, Note_on_c, 9, 36, 0
2, 73438, Note_on_c, 9, 36, 122
2, 73440, Note_on_c, 9, 38, 122
2, 73440, Note_on_c, 9, 42, 122
2, 73462, Note_on_c, 9, 36, 0
2, 73464, Note_on_c, 9, 42, 0
2, 73464, Note_on_c, 9, 38, 0
2, 73488, Note_on_c, 9, 36, 95
2, 73490, Note_on_c, 9, 38, 95
2, 73490, Note_on_c, 9, 42, 95
2, 73512, Note_on_c, 9, 36, 0
2, 73514, Note_on_c, 9, 42, 0
2, 73514, Note_on_c, 9, 38, 0
2, 73536, Note_on_c, 9, 36, 122
2, 73538, Note_on_c, 9, 42, 122
2, 73560, Note_on_c, 9, 36, 0
2, 73562, Note_on_c, 9, 42, 0
2, 73582, Note_on_c, 9, 36, 95
2, 73586, Note_on_c, 9, 42, 95
2, 73606, Note_on_c, 9, 36, 0
2, 73610, Note_on_c, 9, 42, 0
2, 73634, Note_on_c, 9, 36, 122
2, 73634, Note_on_c, 9, 38, 122
2, 73634, Note_on_c, 9, 42, 122
2, 73658, Note_on_c, 9, 42, 0
2, 73658, Note_on_c, 9, 38, 0
2, 73658, Note_on_c, 9, 36, 0
2, 73678, Note_on_c, 9, 42, 95
2, 73680, Note_on_c, 9, 36, 95
2, 73702, Note_on_c, 9, 42, 0
2, 73704, Note_on_c, 9, 36, 0
2, 73728, Note_on_c, 9, 36, 122
2, 73730, Note_on_c, 9, 42, 122
2, 73752, Note_on_c, 9, 36, 0
2, 73754, Note_on_c, 9, 42, 0
2, 73776, Note_on_c, 9, 36, 95
2, 73778, Note_on_c, 9, 42, 95
2, 73800, Note_on_c, 9, 36, 0
2, 73802, Note_on_c, 9, 42, 0
2, 73822, Note_on_c, 9, 42, 122
2, 73824, Note_on_c, 9, 38, 122
2, 73826, Note_on_c, 9, 36, 122
2, 73846, Note_on_c, 9, 42, 0
2, 73848, Note_on_c, 9, 38, 0
2, 73850, Note_on_c, 9, 36, 0
2, 73874, Note_on_c, 9, 36, 95
2, 73874, Note_on_c, 9, 38, 95
2, 73874, Note_on_c, 9, 42, 95
2, 73898, Note_on_c, 9, 42, 0
2, 73898, Note_on_c, 9, 38, 0
2, 73898, Note_on_c, 9, 36, 0
2, 73920, Note_on_c, 9, 42, 122
2, 73922, Note_on_c, 9, 36, 122
2, 73944, Note_on_c, 9, 42, 0
2, 73946, Note_on_c, 9, 36, 0
2, 73968, Note_on_c, 9, 36, 95
2, 73970, Note_on_c, 9, 42, 95
2, 73992, Note_on_c, 9, 36, 0
2, 73994, Note_on_c, 9, 42, 0
2, 74016, Note_on_c, 9, 36, 122
2, 74018, Note_on_c, 9, 38, 122
2, 74018, Note_on_c, 9, 42, 122
2, 74040, Note_on_c, 9, 36, 0
2, 74042, Note_on_c, 9, 42, 0
2, 74042, Note_on_c, 9, 38, 0
2, 74064, Note_on_c, 9, 36, 95
2, 74066, Note_on_c, 9, 42, 95
2, 74088, Note_on_c, 9, 36, 0
2, 74090, Note_on_c, 9, 42, 0
2, 74112, Note_on_c, 9, 42, 122
2, 74114, Note_on_c, 9, 36, 122
2, 74136, Note_on_c, 9, 42, 0
2, 74138, Note_on_c, 9, 36, 0
2, 74158, Note_on_c, 9, 42, 95
2, 74160, Note_on_c, 9, 36, 95
2, 74182, Note_on_c, 9, 42, 0
2, 74184, Note_on_c, 9, 36, 0
2, 74206, Note_on_c, 9, 36, 122
2, 74206, Note_on_c, 9, 38, 122
2, 74208, Note_on_c, 9, 42, 122
2, 74230, Note_on_c, 9, 38, 0
2, 74230, Note_on_c, 9, 36, 0
2, 74232, Note_on_c, 9, 42, 0
2, 74254, Note_on_c, 9, 36, 95
2, 74254, Note_on_c, 9, 38, 95
2, 74258, Note_on_c, 9, 42, 95
2, 74278, Note_on_c, 9, 38, 0
2, 74278, Note_on_c, 9, 36, 0
2, 74282, Note_on_c, 9, 42, 0
2, 74302, Note_on_c, 9, 36, 122
2, 74306, Note_on_c, 9, 42, 122
2, 74326, Note_on_c, 9, 36, 0
2, 74330, Note_on_c, 9, 42, 0
2, 74352, Note_on_c, 9, 42, 95
2, 74354, Note_on_c, 9, 36, 95
2, 74376, Note_on_c, 9, 42, 0
2, 74378, Note_on_c, 9, 36, 0
2, 74398, Note_on_c, 9, 38, 122
2, 74400, Note_on_c, 9, 49, 122
2, 74402, Note_on_c, 9, 36, 122
2, 74422, Note_on_c, 9, 38, 0
2, 74424, Note_on_c, 9, 49, 0
2, 74426, Note_on_c, 9, 36, 0
2, 74446, Note_on_c, 9, 36, 95
2, 74470, Note_on_c, 9, 36, 0
2, 74496, Note_on_c, 9, 49, 122
2, 74498, Note_on_c, 9, 36, 122
2, 74520, Note_on_c, 9, 49, 0
2, 74522, Note_on_c, 9, 36, 0
2, 75262, Note_on_c, 9, 36, 122
2, 75262, Note_on_c, 9, 49, 122
2, 75286, Note_on_c, 9, 49, 0
2, 75286, Note_on_c, 9, 36, 0
2, 76222, Note_on_c, 9, 49, 122
2, 76224, Note_on_c, 9, 36, 122
2, 76226, Note_on_c, 9, 51, 127
2, 76226, Note_on_c, 9, 42, 122
2, 76246, Note_on_c, 9, 49, 0
2, 76248, Note_on_c, 9, 36, 0
2, 76250, Note_on_c, 9, 51, 0
2, 76250, Note_on_c, 9, 42, 0
2, 76320, Note_on_c, 9, 51, 125
2, 76322, Note_on_c, 9, 42, 95
2, 76344, Note_on_c, 9, 51, 0
2, 76346, Note_on_c, 9, 42, 0
2, 76368, Note_on_c, 9, 36, 95
2, 76392, Note_on_c, 9, 36, 0
2, 76414, Note_on_c, 9, 42, 122
2, 76416, Note_on_c, 9, 51, 127
2, 76418, Note_on_c, 9, 36, 122
2, 76418, Note_on_c, 9, 38, 122
2, 76438, Note_on_c, 9, 42, 0
2, 76440, Note_on_c, 9, 51, 0
2, 76442, Note_on_c, 9, 36, 0
2, 76442, Note_on_c, 9, 38, 0
2, 76512, Note_on_c, 9, 51, 125
2, 76512, Note_on_c, 9, 42, 95
2, 76536, Note_on_c, 9, 42, 0
2, 76536, Note_on_c, 9, 51, 0
2, 76562, Note_on_c, 9, 36, 95
2, 76586, Note_on_c, 9, 36, 0
2, 76608, Note_on_c, 9, 51, 127
2, 76608, Note_on_c, 9, 42, 122
2, 76610, Note_on_c, 9, 36, 122
2, 76632, Note_on_c, 9, 42, 0
2, 76632, Note_on_c, 9, 51, 0
2, 76634, Note_on_c, 9, 36, 0
2, 76702, Note_on_c, 9, 51, 125
2, 76704, Note_on_c, 9, 42, 95
2, 76726, Note_on_c, 9, 51, 0
2, 76728, Note_on_c, 9, 42, 0
2, 76752, Note_on_c, 9, 36, 95
2, 76776, Note_on_c, 9, 36, 0
2, 76800, Note_on_c, 9, 51, 127
2, 76800, Note_on_c, 9, 36, 122
2, 76802, Note_on_c, 9, 38, 122
2, 76802, Note_on_c, 9, 42, 122
2, 76824, Note_on_c, 9, 36, 0
2, 76824, Note_on_c, 9, 51, 0
2, 76826, Note_on_c, 9, 38, 0
2, 76826, Note_on_c, 9, 42, 0
2, 76894, Note_on_c, 9, 42, 95
2, 76896, Note_on_c, 9, 36, 122
2, 76896, Note_on_c, 9, 49, 122
2, 76898, Note_on_c, 9, 51, 125
2, 76918, Note_on_c, 9, 42, 0
2, 76920, Note_on_c, 9, 36, 0
2, 76920, Note_on_c, 9, 49, 0
2, 76922, Note_on_c, 9, 51, 0
2, 76990, Note_on_c, 9, 51, 127
2, 76992, Note_on_c, 9, 36, 122
2, 76994, Note_on_c, 9, 42, 122
2, 76994, Note_on_c, 9, 49, 122
2, 77014, Note_on_c, 9, 51, 0
2, 77016, Note_on_c, 9, 36, 0
2, 77018, Note_on_c, 9, 42, 0
2, 77018, Note_on_c, 9, 49, 0
2, 77086, Note_on_c, 9, 51, 125
2, 77090, Note_on_c, 9, 42, 95
2, 77110, Note_on_c, 9, 51, 0
2, 77114, Note_on_c, 9, 42, 0
2, 77134, Note_on_c, 9, 36, 95
2, 77158, Note_on_c, 9, 36, 0
2, 77184, Note_on_c, 9, 51, 127
2, 77184, Note_on_c, 9, 36, 122
2, 77184, Note_on_c, 9, 38, 122
2, 77186, Note_on_c, 9, 42, 122
2, 77208, Note_on_c, 9, 38, 0
2, 77208, Note_on_c, 9, 51, 0
2, 77208, Note_on_c, 9, 36, 0
2, 77210, Note_on_c, 9, 42, 0
2, 77280, Note_on_c, 9, 42, 95
2, 77282, Note_on_c, 9, 51, 125
2, 77304, Note_on_c, 9, 42, 0
2, 77306, Note_on_c, 9, 51, 0
2, 77328, Note_on_c, 9, 36, 95
2, 77352, Note_on_c, 9, 36, 0
2, 77374, Note_on_c, 9, 42, 122
2, 77376, Note_on_c, 9, 36, 122
2, 77378, Note_on_c, 9, 51, 127
2, 77398, Note_on_c, 9, 42, 0
2, 77400, Note_on_c, 9, 36, 0
2, 77402, Note_on_c, 9, 51, 0
2, 77424, Note_on_c, 9, 38, 95
2, 77448, Note_on_c, 9, 38, 0
2, 77472, Note_on_c, 9, 51, 125
2, 77474, Note_on_c, 9, 36, 95
2, 77474, Note_on_c, 9, 42, 95
2, 77476, Note_on_c, 9, 38, 95
2, 77496, Note_on_c, 9, 51, 0
2, 77498, Note_on_c, 9, 36, 0
2, 77498, Note_on_c, 9, 42, 0
2, 77500, Note_on_c, 9, 38, 0
2, 77518, Note_on_c, 9, 36, 95
2, 77542, Note_on_c, 9, 36, 0
2, 77566, Note_on_c, 9, 51, 127
2, 77566, Note_on_c, 9, 38, 122
2, 77568, Note_on_c, 9, 36, 122
2, 77568, Note_on_c, 9, 42, 122
2, 77568, Note_on_c, 9, 45, 122
2, 77590, Note_on_c, 9, 38, 0
2, 77590, Note_on_c, 9, 51, 0
2, 77592, Note_on_c, 9, 42, 0
2, 77592, Note_on_c, 9, 36, 0
2, 77592, Note_on_c, 9, 45, 0
2, 77616, Note_on_c, 9, 45, 95
2, 77640, Note_on_c, 9, 45, 0
2, 77664, Note_on_c, 9, 41, 122
2, 77664, Note_on_c, 9, 42, 95
2, 77664, Note_on_c, 9, 49, 122
2, 77666, Note_on_c, 9, 51, 125
2, 77666, Note_on_c, 9, 36, 122
2, 77688, Note_on_c, 9, 49, 0
2, 77688, Note_on_c, 9, 41, 0
2, 77688, Note_on_c, 9, 42, 0
2, 77690, Note_on_c, 9, 51, 0
2, 77690, Note_on_c, 9, 36, 0
2, 77712, Note_on_c, 9, 41, 95
2, 77736, Note_on_c, 9, 41, 0
2, 77758, Note_on_c, 9, 42, 122
2, 77760, Note_on_c, 9, 51, 127
2, 77760, Note_on_c, 9, 49, 122
2, 77762, Note_on_c, 9, 36, 122
2, 77782, Note_on_c, 9, 42, 0
2, 77784, Note_on_c, 9, 51, 0
2, 77784, Note_on_c, 9, 49, 0
2, 77786, Note_on_c, 9, 36, 0
2, 77854, Note_on_c, 9, 51, 125
2, 77856, Note_on_c, 9, 42, 95
2, 77878, Note_on_c, 9, 51, 0
2, 77880, Note_on_c, 9, 42, 0
2, 77904, Note_on_c, 9, 38, 95
2, 77906, Note_on_c, 9, 36, 95
2, 77928, Note_on_c, 9, 38, 0
2, 77930, Note_on_c, 9, 36, 0
2, 77950, Note_on_c, 9, 36, 122
2, 77952, Note_on_c, 9, 38, 122
2, 77954, Note_on_c, 9, 51, 127
2, 77954, Note_on_c, 9, 42, 122
2, 77974, Note_on_c, 9, 36, 0
2, 77976, Note_on_c, 9, 38, 0
2, 77978, Note_on_c, 9, 51, 0
2, 77978, Note_on_c, 9, 42, 0
2, 78048, Note_on_c, 9, 42, 95
2, 78048, Note_on_c, 9, 49, 122
2, 78050, Note_on_c, 9, 51, 125
2, 78072, Note_on_c, 9, 49, 0
2, 78072, Note_on_c, 9, 42, 0
2, 78074, Note_on_c, 9, 51, 0
2, 78094, Note_on_c, 9, 36, 95
2, 78118, Note_on_c, 9, 36, 0
2, 78142, Note_on_c, 9, 42, 122
2, 78146, Note_on_c, 9, 51, 127
2, 78146, Note_on_c, 9, 36, 122
2, 78146, Note_on_c, 9, 49, 122
2, 78166, Note_on_c, 9, 42, 0
2, 78170, Note_on_c, 9, 51, 0
2, 78170, Note_on_c, 9, 36, 0
2, 78170, Note_on_c, 9, 49, 0
2, 78240, Note_on_c, 9, 42, 95
2, 78242, Note_on_c, 9, 51, 125
2, 78264, Note_on_c, 9, 42, 0
2, 78266, Note_on_c, 9, 51, 0
2, 78288, Note_on_c, 9, 36, 95
2, 78312, Note_on_c, 9, 36, 0
2, 78336, Note_on_c, 9, 51, 127
2, 78336, Note_on_c, 9, 36, 122
2, 78338, Note_on_c, 9, 38, 122
2, 78338, Note_on_c, 9, 42, 122
2, 78360, Note_on_c, 9, 36, 0
2, 78360, Note_on_c, 9, 51, 0
2, 78362, Note_on_c, 9, 38, 0
2, 78362, Note_on_c, 9, 42, 0
2, 78432, Note_on_c, 9, 36, 122
2, 78432, Note_on_c, 9, 42, 95
2, 78434, Note_on_c, 9, 51, 125
2, 78434, Note_on_c, 9, 49, 122
2, 78456, Note_on_c, 9, 42, 0
2, 78456, Note_on_c, 9, 36, 0
2, 78458, Note_on_c, 9, 51, 0
2, 78458, Note_on_c, 9, 49, 0
2, 78526, Note_on_c, 9, 36, 122
2, 78528, Note_on_c, 9, 42, 122
2, 78530, Note_on_c, 9, 51, 127
2, 78530, Note_on_c, 9, 49, 122
2, 78550, Note_on_c, 9, 36, 0
2, 78552, Note_on_c, 9, 42, 0
2, 78554, Note_on_c, 9, 51, 0
2, 78554, Note_on_c, 9, 49, 0
2, 78624, Note_on_c, 9, 51, 125
2, 78626, Note_on_c, 9, 42, 95
2, 78648, Note_on_c, 9, 51, 0
2, 78650, Note_on_c, 9, 42, 0
2, 78670, Note_on_c, 9, 36, 95
2, 78694, Note_on_c, 9, 36, 0
2, 78718, Note_on_c, 9, 42, 122
2, 78720, Note_on_c, 9, 51, 127
2, 78720, Note_on_c, 9, 36, 122
2, 78722, Note_on_c, 9, 38, 122
2, 78742, Note_on_c, 9, 42, 0
2, 78744, Note_on_c, 9, 51, 0
2, 78744, Note_on_c, 9, 36, 0
2, 78746, Note_on_c, 9, 38, 0
2, 78814, Note_on_c, 9, 42, 95
2, 78816, Note_on_c, 9, 49, 122
2, 78818, Note_on_c, 9, 51, 125
2, 78838, Note_on_c, 9, 42, 0
2, 78840, Note_on_c, 9, 49, 0
2, 78842, Note_on_c, 9, 51, 0
2, 78864, Note_on_c, 9, 36, 95
2, 78888, Note_on_c, 9, 36, 0
2, 78910, Note_on_c, 9, 49, 122
2, 78912, Note_on_c, 9, 51, 127
2, 78912, Note_on_c, 9, 36, 122
2, 78914, Note_on_c, 9, 42, 122
2, 78934, Note_on_c, 9, 49, 0
2, 78936, Note_on_c, 9, 51, 0
2, 78936, Note_on_c, 9, 36, 0
2, 78938, Note_on_c, 9, 42, 0
2, 78960, Note_on_c, 9, 36, 95
2, 78984, Note_on_c, 9, 36, 0
2, 79006, Note_on_c, 9, 42, 95
2, 79010, Note_on_c, 9, 51, 125
2, 79030, Note_on_c, 9, 42, 0
2, 79034, Note_on_c, 9, 51, 0
2, 79054, Note_on_c, 9, 36, 95
2, 79078, Note_on_c, 9, 36, 0
2, 79104, Note_on_c, 9, 51, 127
2, 79104, Note_on_c, 9, 36, 122
2, 79104, Note_on_c, 9, 38, 122
2, 79106, Note_on_c, 9, 42, 122
2, 79128, Note_on_c, 9, 38, 0
2, 79128, Note_on_c, 9, 51, 0
2, 79128, Note_on_c, 9, 36, 0
2, 79130, Note_on_c, 9, 42, 0
2, 79198, Note_on_c, 9, 51, 125
2, 79198, Note_on_c, 9, 36, 122
2, 79198, Note_on_c, 9, 42, 95
2, 79202, Note_on_c, 9, 49, 122
2, 79222, Note_on_c, 9, 42, 0
2, 79222, Note_on_c, 9, 51, 0
2, 79222, Note_on_c, 9, 36, 0
2, 79226, Note_on_c, 9, 49, 0
2, 79250, Note_on_c, 9, 36, 95
2, 79274, Note_on_c, 9, 36, 0
2, 79296, Note_on_c, 9, 36, 122
2, 79296, Note_on_c, 9, 49, 122
2, 79320, Note_on_c, 9, 49, 0
2, 79320, Note_on_c, 9, 36, 0
2, 79320, End_track
3, 0, Start_track
3, 0, MIDI_port, 0
3, 0, Title_t, "lead                "
3, 0, Program_c, 1, 40
3, 828, Pitch_bend_c, 1, 8192
3, 834, Control_c, 1, 7, 127
3, 866, Note_on_c, 1, 60, 127
3, 904, Note_on_c, 1, 60, 0
3, 910, Note_on_c, 1, 59, 63
3, 946, Note_on_c, 1, 59, 0
3, 956, Note_on_c, 1, 60, 93
3, 1020, Note_on_c, 1, 60, 0
3, 1054, Note_on_c, 1, 63, 127
3, 1088, Note_on_c, 1, 63, 0
3, 1100, Note_on_c, 1, 62, 81
3, 1144, Note_on_c, 1, 62, 0
3, 1146, Note_on_c, 1, 63, 89
3, 1200, Note_on_c, 1, 63, 0
3, 1236, Note_on_c, 1, 67, 127
3, 1278, Note_on_c, 1, 67, 0
3, 1284, Note_on_c, 1, 66, 77
3, 1318, Note_on_c, 1, 66, 0
3, 1320, Pitch_bend_c, 1, 8192
3, 1328, Note_on_c, 1, 67, 127
3, 1386, Note_on_c, 1, 67, 0
3, 1422, Note_on_c, 1, 72, 127
3, 1596, Note_on_c, 1, 72, 0
3, 1636, Note_on_c, 1, 60, 127
3, 1670, Note_on_c, 1, 60, 0
3, 1680, Note_on_c, 1, 59, 56
3, 1714, Note_on_c, 1, 59, 0
3, 1724, Note_on_c, 1, 60, 87
3, 1782, Note_on_c, 1, 60, 0
3, 1816, Note_on_c, 1, 63, 127
3, 1852, Note_on_c, 1, 63, 0
3, 1864, Note_on_c, 1, 62, 75
3, 1902, Pitch_bend_c, 1, 8064
3, 1906, Pitch_bend_c, 1, 8144
3, 1908, Pitch_bend_c, 1, 8192
3, 1910, Pitch_bend_c, 1, 8448
3, 1912, Pitch_bend_c, 1, 8704
3, 1914, Pitch_bend_c, 1, 8960
3, 1956, Note_on_c, 1, 62, 0
3, 1998, Pitch_bend_c, 1, 8832
3, 2000, Pitch_bend_c, 1, 8192
3, 2000, Note_on_c, 1, 68, 127
3, 2000, Pitch_bend_c, 1, 8213
3, 2000, Pitch_bend_c, 1, 8134
3, 2002, Pitch_bend_c, 1, 8160
3, 2004, Pitch_bend_c, 1, 8187
3, 2006, Pitch_bend_c, 1, 8197
3, 2008, Pitch_bend_c, 1, 8171
3, 2010, Pitch_bend_c, 1, 8144
3, 2010, Pitch_bend_c, 1, 8171
3, 2012, Pitch_bend_c, 1, 8160
3, 2014, Pitch_bend_c, 1, 8187
3, 2016, Pitch_bend_c, 1, 8192
3, 2040, Note_on_c, 1, 68, 0
3, 2048, Note_on_c, 1, 67, 77
3, 2086, Note_on_c, 1, 67, 0
3, 2092, Note_on_c, 1, 68, 127
3, 2164, Note_on_c, 1, 68, 0
3, 2190, Note_on_c, 1, 72, 127
3, 2364, Note_on_c, 1, 72, 0
3, 2400, Pitch_bend_c, 1, 8192
3, 2402, Note_on_c, 1, 65, 127
3, 2432, Note_on_c, 1, 65, 0
3, 2446, Note_on_c, 1, 64, 87
3, 2478, Note_on_c, 1, 64, 0
3, 2486, Note_on_c, 1, 65, 127
3, 2544, Note_on_c, 1, 65, 0
3, 2584, Note_on_c, 1, 68, 127
3, 2726, Note_on_c, 1, 68, 0
3, 2784, Pitch_bend_c, 1, 8064
3, 2784, Pitch_bend_c, 1, 8192
3, 2786, Note_on_c, 1, 62, 127
3, 2816, Note_on_c, 1, 62, 0
3, 2830, Note_on_c, 1, 61, 95
3, 2864, Note_on_c, 1, 61, 0
3, 2870, Note_on_c, 1, 62, 92
3, 2956, Note_on_c, 1, 62, 0
3, 2968, Note_on_c, 1, 65, 127
3, 3132, Note_on_c, 1, 65, 0
3, 3168, Pitch_bend_c, 1, 8192
3, 3172, Note_on_c, 1, 63, 127
3, 3206, Note_on_c, 1, 63, 0
3, 3218, Note_on_c, 1, 62, 61
3, 3250, Note_on_c, 1, 62, 0
3, 3260, Note_on_c, 1, 63, 102
3, 3320, Note_on_c, 1, 63, 0
3, 3354, Note_on_c, 1, 67, 127
3, 3510, Note_on_c, 1, 67, 0
3, 3552, Pitch_bend_c, 1, 8192
3, 3556, Note_on_c, 1, 65, 127
3, 3584, Note_on_c, 1, 65, 0
3, 3598, Note_on_c, 1, 64, 69
3, 3634, Note_on_c, 1, 64, 0
3, 3644, Note_on_c, 1, 65, 118
3, 3692, Note_on_c, 1, 65, 0
3, 3738, Note_on_c, 1, 68, 127
3, 3790, Note_on_c, 1, 68, 0
3, 3838, Note_on_c, 1, 69, 126
3, 3936, Pitch_bend_c, 1, 8192
3, 3982, Note_on_c, 1, 65, 80
3, 4040, Note_on_c, 1, 60, 64
3, 4304, Pitch_bend_c, 1, 8192
3, 4610, Note_on_c, 1, 60, 0
3, 4610, Note_on_c, 1, 69, 0
3, 4616, Note_on_c, 1, 65, 0
3, 4800, Pitch_bend_c, 1, 8192
3, 47676, Pitch_bend_c, 1, 8192
3, 47714, Note_on_c, 1, 60, 127
3, 47752, Note_on_c, 1, 60, 0
3, 47758, Note_on_c, 1, 59, 63
3, 47794, Note_on_c, 1, 59, 0
3, 47804, Note_on_c, 1, 60, 93
3, 47868, Note_on_c, 1, 60, 0
3, 47902, Note_on_c, 1, 63, 127
3, 47936, Note_on_c, 1, 63, 0
3, 47948, Note_on_c, 1, 62, 81
3, 47992, Note_on_c, 1, 62, 0
3, 47994, Note_on_c, 1, 63, 89
3, 48048, Note_on_c, 1, 63, 0
3, 48084, Note_on_c, 1, 67, 127
3, 48126, Note_on_c, 1, 67, 0
3, 48132, Note_on_c, 1, 66, 77
3, 48166, Note_on_c, 1, 66, 0
3, 48168, Pitch_bend_c, 1, 8192
3, 48176, Note_on_c, 1, 67, 127
3, 48234, Note_on_c, 1, 67, 0
3, 48270, Note_on_c, 1, 72, 127
3, 48444, Note_on_c, 1, 72, 0
3, 48484, Note_on_c, 1, 60, 127
3, 48518, Note_on_c, 1, 60, 0
3, 48528, Note_on_c, 1, 59, 56
3, 48562, Note_on_c, 1, 59, 0
3, 48572, Note_on_c, 1, 60, 87
3, 48630, Note_on_c, 1, 60, 0
3, 48664, Note_on_c, 1, 63, 127
3, 48700, Note_on_c, 1, 63, 0
3, 48712, Note_on_c, 1, 62, 75
3, 48750, Pitch_bend_c, 1, 8064
3, 48754, Pitch_bend_c, 1, 8144
3, 48756, Pitch_bend_c, 1, 8192
3, 48758, Pitch_bend_c, 1, 8448
3, 48760, Pitch_bend_c, 1, 8704
3, 48762, Pitch_bend_c, 1, 8960
3, 48804, Note_on_c, 1, 62, 0
3, 48846, Pitch_bend_c, 1, 8832
3, 48848, Pitch_bend_c, 1, 8192
3, 48848, Note_on_c, 1, 68, 127
3, 48848, Pitch_bend_c, 1, 8213
3, 48848, Pitch_bend_c, 1, 8134
3, 48850, Pitch_bend_c, 1, 8160
3, 48852, Pitch_bend_c, 1, 8187
3, 48854, Pitch_bend_c, 1, 8197
3, 48856, Pitch_bend_c, 1, 8171
3, 48858, Pitch_bend_c, 1, 8144
3, 48858, Pitch_bend_c, 1, 8171
3, 48860, Pitch_bend_c, 1, 8160
3, 48862, Pitch_bend_c, 1, 8187
3, 48864, Pitch_bend_c, 1, 8192
3, 48888, Note_on_c, 1, 68, 0
3, 48896, Note_on_c, 1, 67, 77
3, 48934, Note_on_c, 1, 67, 0
3, 48940, Note_on_c, 1, 68, 127
3, 49012, Note_on_c, 1, 68, 0
3, 49038, Note_on_c, 1, 72, 127
3, 49212, Note_on_c, 1, 72, 0
3, 49248, Pitch_bend_c, 1, 8192
3, 49250, Note_on_c, 1, 65, 127
3, 49280, Note_on_c, 1, 65, 0
3, 49294, Note_on_c, 1, 64, 87
3, 49326, Note_on_c, 1, 64, 0
3, 49334, Note_on_c, 1, 65, 127
3, 49392, Note_on_c, 1, 65, 0
3, 49432, Note_on_c, 1, 68, 127
3, 49574, Note_on_c, 1, 68, 0
3, 49632, Pitch_bend_c, 1, 8064
3, 49632, Pitch_bend_c, 1, 8192
3, 49634, Note_on_c, 1, 62, 127
3, 49664, Note_on_c, 1, 62, 0
3, 49678, Note_on_c, 1, 61, 95
3, 49712, Note_on_c, 1, 61, 0
3, 49718, Note_on_c, 1, 62, 92
3, 49804, Note_on_c, 1, 62, 0
3, 49816, Note_on_c, 1, 65, 127
3, 49980, Note_on_c, 1, 65, 0
3, 50016, Pitch_bend_c, 1, 8192
3, 50020, Note_on_c, 1, 63, 127
3, 50054, Note_on_c, 1, 63, 0
3, 50066, Note_on_c, 1, 62, 61
3, 50098, Note_on_c, 1, 62, 0
3, 50108, Note_on_c, 1, 63, 102
3, 50168, Note_on_c, 1, 63, 0
3, 50202, Note_on_c, 1, 67, 127
3, 50358, Note_on_c, 1, 67, 0
3, 50400, Pitch_bend_c, 1, 8192
3, 50404, Note_on_c, 1, 65, 127
3, 50432, Note_on_c, 1, 65, 0
3, 50446, Note_on_c, 1, 64, 69
3, 50482, Note_on_c, 1, 64, 0
3, 50492, Note_on_c, 1, 65, 118
3, 50540, Note_on_c, 1, 65, 0
3, 50586, Note_on_c, 1, 68, 127
3, 50638, Note_on_c, 1, 68, 0
3, 50686, Note_on_c, 1, 69, 126
3, 50784, Pitch_bend_c, 1, 8192
3, 50830, Note_on_c, 1, 65, 80
3, 50888, Note_on_c, 1, 60, 64
3, 51152, Pitch_bend_c, 1, 8192
3, 51456, Note_on_c, 1, 60, 0
3, 51456, Note_on_c, 1, 65, 0
3, 51456, Note_on_c, 1, 69, 0
3, 76284, Pitch_bend_c, 1, 8192
3, 76322, Note_on_c, 1, 60, 127
3, 76360, Note_on_c, 1, 60, 0
3, 76366, Note_on_c, 1, 59, 63
3, 76402, Note_on_c, 1, 59, 0
3, 76412, Note_on_c, 1, 60, 93
3, 76476, Note_on_c, 1, 60, 0
3, 76510, Note_on_c, 1, 63, 127
3, 76544, Note_on_c, 1, 63, 0
3, 76556, Note_on_c, 1, 62, 81
3, 76600, Note_on_c, 1, 62, 0
3, 76602, Note_on_c, 1, 63, 89
3, 76656, Note_on_c, 1, 63, 0
3, 76692, Note_on_c, 1, 67, 127
3, 76734, Note_on_c, 1, 67, 0
3, 76740, Note_on_c, 1, 66, 77
3, 76774, Note_on_c, 1, 66, 0
3, 76776, Pitch_bend_c, 1, 8192
3, 76784, Note_on_c, 1, 67, 127
3, 76842, Note_on_c, 1, 67, 0
3, 76878, Note_on_c, 1, 72, 127
3, 77052, Note_on_c, 1, 72, 0
3, 77092, Note_on_c, 1, 60, 127
3, 77126, Note_on_c, 1, 60, 0
3, 77136, Note_on_c, 1, 59, 56
3, 77170, Note_on_c, 1, 59, 0
3, 77180, Note_on_c, 1, 60, 87
3, 77238, Note_on_c, 1, 60, 0
3, 77272, Note_on_c, 1, 63, 127
3, 77308, Note_on_c, 1, 63, 0
3, 77320, Note_on_c, 1, 62, 75
3, 77358, Pitch_bend_c, 1, 8064
3, 77362, Pitch_bend_c, 1, 8144
3, 77364, Pitch_bend_c, 1, 8192
3, 77366, Pitch_bend_c, 1, 8448
3, 77368, Pitch_bend_c, 1, 8704
3, 77370, Pitch_bend_c, 1, 8960
3, 77412, Note_on_c, 1, 62, 0
3, 77454, Pitch_bend_c, 1, 8832
3, 77456, Pitch_bend_c, 1, 8192
3, 77456, Note_on_c, 1, 68, 127
3, 77456, Pitch_bend_c, 1, 8213
3, 77456, Pitch_bend_c, 1, 8134
3, 77458, Pitch_bend_c, 1, 8160
3, 77460, Pitch_bend_c, 1, 8187
3, 77462, Pitch_bend_c, 1, 8197
3, 77464, Pitch_bend_c, 1, 8171
3, 77466, Pitch_bend_c, 1, 8144
3, 77466, Pitch_bend_c, 1, 8171
3, 77468, Pitch_bend_c, 1, 8160
3, 77470, Pitch_bend_c, 1, 8187
3, 77472, Pitch_bend_c, 1, 8192
3, 77496, Note_on_c, 1, 68, 0
3, 77504, Note_on_c, 1, 67, 77
3, 77542, Note_on_c, 1, 67, 0
3, 77548, Note_on_c, 1, 68, 127
3, 77620, Note_on_c, 1, 68, 0
3, 77646, Note_on_c, 1, 72, 127
3, 77820, Note_on_c, 1, 72, 0
3, 77856, Pitch_bend_c, 1, 8192
3, 77858, Note_on_c, 1, 65, 127
3, 77888, Note_on_c, 1, 65, 0
3, 77902, Note_on_c, 1, 64, 87
3, 77934, Note_on_c, 1, 64, 0
3, 77942, Note_on_c, 1, 65, 127
3, 78000, Note_on_c, 1, 65, 0
3, 78040, Note_on_c, 1, 68, 127
3, 78182, Note_on_c, 1, 68, 0
3, 78240, Pitch_bend_c, 1, 8064
3, 78240, Pitch_bend_c, 1, 8192
3, 78242, Note_on_c, 1, 62, 127
3, 78272, Note_on_c, 1, 62, 0
3, 78286, Note_on_c, 1, 61, 95
3, 78320, Note_on_c, 1, 61, 0
3, 78326, Note_on_c, 1, 62, 92
3, 78412, Note_on_c, 1, 62, 0
3, 78424, Note_on_c, 1, 65, 127
3, 78588, Note_on_c, 1, 65, 0
3, 78624, Pitch_bend_c, 1, 8192
3, 78628, Note_on_c, 1, 63, 127
3, 78662, Note_on_c, 1, 63, 0
3, 78674, Note_on_c, 1, 62, 61
3, 78706, Note_on_c, 1, 62, 0
3, 78716, Note_on_c, 1, 63, 102
3, 78776, Note_on_c, 1, 63, 0
3, 78810, Note_on_c, 1, 67, 127
3, 78966, Note_on_c, 1, 67, 0
3, 79008, Pitch_bend_c, 1, 8192
3, 79012, Note_on_c, 1, 65, 127
3, 79040, Note_on_c, 1, 65, 0
3, 79054, Note_on_c, 1, 64, 69
3, 79090, Note_on_c, 1, 64, 0
3, 79100, Note_on_c, 1, 65, 118
3, 79148, Note_on_c, 1, 65, 0
3, 79194, Note_on_c, 1, 68, 127
3, 79246, Note_on_c, 1, 68, 0
3, 79294, Note_on_c, 1, 69, 126
3, 79392, Pitch_bend_c, 1, 8192
3, 79438, Note_on_c, 1, 65, 80
3, 79496, Note_on_c, 1, 60, 64
3, 79576, Control_c, 1, 7, 127
3, 79580, Control_c, 1, 7, 126
3, 79660, Control_c, 1, 7, 124
3, 79760, Pitch_bend_c, 1, 8192
3, 79812, Control_c, 1, 7, 122
3, 79964, Control_c, 1, 7, 120
3, 80044, Control_c, 1, 7, 118
3, 80060, Control_c, 1, 7, 116
3, 80076, Control_c, 1, 7, 114
3, 80092, Control_c, 1, 7, 112
3, 80108, Control_c, 1, 7, 110
3, 80124, Control_c, 1, 7, 108
3, 80140, Control_c, 1, 7, 106
3, 80156, Control_c, 1, 7, 104
3, 80172, Control_c, 1, 7, 102
3, 80188, Control_c, 1, 7, 100
3, 80200, Control_c, 1, 7, 98
3, 80216, Control_c, 1, 7, 96
3, 80232, Control_c, 1, 7, 94
3, 80248, Control_c, 1, 7, 92
3, 80256, Pitch_bend_c, 1, 8192
3, 80264, Control_c, 1, 7, 90
3, 80280, Control_c, 1, 7, 88
3, 80296, Control_c, 1, 7, 86
3, 80312, Control_c, 1, 7, 84
3, 80328, Control_c, 1, 7, 82
3, 80340, Control_c, 1, 7, 80
3, 80352, Control_c, 1, 7, 78
3, 80360, Control_c, 1, 7, 76
3, 80372, Control_c, 1, 7, 74
3, 80384, Control_c, 1, 7, 72
3, 80396, Control_c, 1, 7, 70
3, 80404, Control_c, 1, 7, 68
3, 80416, Control_c, 1, 7, 66
3, 80428, Control_c, 1, 7, 64
3, 80440, Control_c, 1, 7, 62
3, 80448, Control_c, 1, 7, 60
3, 80460, Control_c, 1, 7, 58
3, 80472, Control_c, 1, 7, 56
3, 80480, Control_c, 1, 7, 54
3, 80492, Control_c, 1, 7, 52
3, 80504, Control_c, 1, 7, 50
3, 80516, Control_c, 1, 7, 48
3, 80524, Control_c, 1, 7, 46
3, 80536, Control_c, 1, 7, 44
3, 80548, Control_c, 1, 7, 42
3, 80560, Control_c, 1, 7, 40
3, 80568, Control_c, 1, 7, 38
3, 80580, Control_c, 1, 7, 36
3, 80592, Control_c, 1, 7, 34
3, 80600, Control_c, 1, 7, 32
3, 80612, Control_c, 1, 7, 30
3, 80624, Control_c, 1, 7, 28
3, 80632, Control_c, 1, 7, 26
3, 80644, Control_c, 1, 7, 24
3, 80656, Control_c, 1, 7, 22
3, 80664, Control_c, 1, 7, 20
3, 80676, Control_c, 1, 7, 18
3, 80688, Control_c, 1, 7, 16
3, 80696, Control_c, 1, 7, 14
3, 80724, Control_c, 1, 7, 12
3, 80772, Control_c, 1, 7, 10
3, 80792, Note_on_c, 1, 69, 0
3, 80808, Note_on_c, 1, 60, 0
3, 80812, Note_on_c, 1, 65, 0
3, 80816, Control_c, 1, 7, 8
3, 80864, Control_c, 1, 7, 6
3, 80908, Control_c, 1, 7, 4
3, 80952, Control_c, 1, 7, 2
3, 81000, Control_c, 1, 7, 0
3, 81024, Control_c, 1, 7, 0
3, 81024, End_track
4, 0, Start_track
4, 0, MIDI_port, 0
4, 0, Title_t, "bass                "
4, 0, Program_c, 8, 35
4, 692, Pitch_bend_c, 8, 8192
4, 768, Note_on_c, 8, 36, 127
4, 1374, Note_on_c, 8, 36, 0
4, 1440, Note_on_c, 8, 36, 127
4, 1488, Note_on_c, 8, 36, 0
4, 1490, Note_on_c, 8, 34, 88
4, 1528, Note_on_c, 8, 34, 0
4, 1532, Note_on_c, 8, 32, 124
4, 2140, Note_on_c, 8, 32, 0
4, 2206, Note_on_c, 8, 32, 127
4, 2256, Note_on_c, 8, 31, 84
4, 2256, Note_on_c, 8, 32, 0
4, 2302, Note_on_c, 8, 31, 0
4, 2306, Note_on_c, 8, 29, 127
4, 2576, Note_on_c, 8, 29, 0
4, 2596, Note_on_c, 8, 29, 113
4, 2648, Note_on_c, 8, 29, 0
4, 2690, Note_on_c, 8, 41, 127
4, 2964, Note_on_c, 8, 41, 0
4, 2976, Note_on_c, 8, 41, 127
4, 3060, Note_on_c, 8, 41, 0
4, 3076, Note_on_c, 8, 39, 127
4, 3344, Note_on_c, 8, 39, 0
4, 3358, Note_on_c, 8, 39, 127
4, 3426, Note_on_c, 8, 39, 0
4, 3460, Note_on_c, 8, 37, 127
4, 3738, Note_on_c, 8, 37, 0
4, 3748, Note_on_c, 8, 37, 116
4, 3836, Note_on_c, 8, 37, 0
4, 3848, Note_on_c, 8, 36, 127
4, 4468, Note_on_c, 8, 36, 0
4, 4512, Note_on_c, 8, 31, 76
4, 4560, Note_on_c, 8, 31, 0
4, 4602, Note_on_c, 8, 36, 120
4, 4944, Note_on_c, 8, 36, 0
4, 5000, Note_on_c, 8, 41, 127
4, 5152, Note_on_c, 8, 41, 0
4, 5190, Note_on_c, 8, 36, 125
4, 5342, Note_on_c, 8, 36, 0
4, 5386, Note_on_c, 8, 38, 127
4, 5700, Note_on_c, 8, 38, 0
4, 5758, Note_on_c, 8, 36, 127
4, 5938, Note_on_c, 8, 36, 0
4, 5956, Note_on_c, 8, 34, 127
4, 6136, Note_on_c, 8, 34, 0
4, 6156, Note_on_c, 8, 33, 127
4, 6492, Note_on_c, 8, 33, 0
4, 6512, Note_on_c, 8, 36, 122
4, 6512, Pitch_bend_c, 8, 8096
4, 6516, Pitch_bend_c, 8, 8139
4, 6518, Pitch_bend_c, 8, 8229
4, 6520, Pitch_bend_c, 8, 8245
4, 6522, Pitch_bend_c, 8, 8256
4, 6524, Pitch_bend_c, 8, 8272
4, 6528, Pitch_bend_c, 8, 8256
4, 6530, Pitch_bend_c, 8, 8272
4, 6532, Pitch_bend_c, 8, 8741
4, 6534, Pitch_bend_c, 8, 8837
4, 6536, Pitch_bend_c, 8, 8885
4, 6536, Pitch_bend_c, 8, 8928
4, 6540, Pitch_bend_c, 8, 8944
4, 6542, Pitch_bend_c, 8, 9344
4, 6542, Pitch_bend_c, 8, 9557
4, 6544, Pitch_bend_c, 8, 9594
4, 6546, Pitch_bend_c, 8, 9610
4, 6548, Pitch_bend_c, 8, 9626
4, 6554, Pitch_bend_c, 8, 9642
4, 6560, Pitch_bend_c, 8, 9626
4, 6562, Pitch_bend_c, 8, 9626
4, 6568, Pitch_bend_c, 8, 9610
4, 6570, Pitch_bend_c, 8, 9626
4, 6574, Pitch_bend_c, 8, 9610
4, 6578, Pitch_bend_c, 8, 9594
4, 6578, Pitch_bend_c, 8, 9610
4, 6582, Note_on_c, 8, 36, 0
4, 6630, Note_on_c, 8, 38, 127
4, 6630, Pitch_bend_c, 8, 8261
4, 6652, Pitch_bend_c, 8, 8192
4, 6864, Note_on_c, 8, 38, 0
4, 6916, Note_on_c, 8, 31, 127
4, 7252, Note_on_c, 8, 31, 0
4, 7298, Note_on_c, 8, 31, 114
4, 7346, Note_on_c, 8, 31, 0
4, 7392, Note_on_c, 8, 31, 127
4, 7578, Note_on_c, 8, 31, 0
4, 7588, Note_on_c, 8, 31, 99
4, 7654, Note_on_c, 8, 31, 0
4, 7684, Note_on_c, 8, 36, 127
4, 8002, Note_on_c, 8, 36, 0
4, 8066, Note_on_c, 8, 41, 84
4, 8224, Note_on_c, 8, 41, 0
4, 8258, Note_on_c, 8, 36, 127
4, 8418, Note_on_c, 8, 36, 0
4, 8446, Note_on_c, 8, 38, 127
4, 8784, Note_on_c, 8, 38, 0
4, 8834, Note_on_c, 8, 36, 127
4, 9002, Note_on_c, 8, 36, 0
4, 9028, Note_on_c, 8, 34, 127
4, 9184, Note_on_c, 8, 34, 0
4, 9216, Note_on_c, 8, 33, 127
4, 9584, Note_on_c, 8, 33, 0
4, 9598, Note_on_c, 8, 38, 127
4, 9656, Note_on_c, 8, 38, 0
4, 9700, Note_on_c, 8, 38, 127
4, 9966, Note_on_c, 8, 38, 0
4, 9988, Note_on_c, 8, 31, 117
4, 10320, Note_on_c, 8, 31, 0
4, 10370, Note_on_c, 8, 31, 118
4, 10426, Note_on_c, 8, 31, 0
4, 10468, Note_on_c, 8, 31, 127
4, 10872, Note_on_c, 8, 31, 0
4, 10952, Note_on_c, 8, 50, 127
4, 10992, Note_on_c, 8, 50, 0
4, 11004, Note_on_c, 8, 48, 124
4, 11046, Note_on_c, 8, 43, 127
4, 11066, Note_on_c, 8, 48, 0
4, 11098, Note_on_c, 8, 43, 0
4, 11140, Note_on_c, 8, 36, 127
4, 11306, Note_on_c, 8, 36, 0
4, 11332, Note_on_c, 8, 43, 127
4, 11454, Note_on_c, 8, 43, 0
4, 11522, Note_on_c, 8, 38, 127
4, 11850, Note_on_c, 8, 38, 0
4, 11908, Note_on_c, 8, 43, 127
4, 12070, Note_on_c, 8, 43, 0
4, 12096, Note_on_c, 8, 41, 127
4, 12278, Note_on_c, 8, 41, 0
4, 12286, Note_on_c, 8, 40, 127
4, 12666, Note_on_c, 8, 33, 127
4, 12686, Note_on_c, 8, 40, 0
4, 12742, Note_on_c, 8, 33, 0
4, 12764, Note_on_c, 8, 33, 127
4, 13050, Note_on_c, 8, 33, 0
4, 13062, Note_on_c, 8, 38, 127
4, 13394, Note_on_c, 8, 38, 0
4, 13444, Note_on_c, 8, 38, 127
4, 13494, Note_on_c, 8, 38, 0
4, 13536, Note_on_c, 8, 38, 127
4, 13728, Note_on_c, 8, 38, 0
4, 13732, Note_on_c, 8, 38, 127
4, 13784, Pitch_bend_c, 8, 8261
4, 13784, Pitch_bend_c, 8, 8192
4, 13788, Pitch_bend_c, 8, 7755
4, 13790, Pitch_bend_c, 8, 7627
4, 13792, Pitch_bend_c, 8, 7595
4, 13794, Pitch_bend_c, 8, 7611
4, 13798, Pitch_bend_c, 8, 7595
4, 13808, Pitch_bend_c, 8, 7579
4, 13810, Pitch_bend_c, 8, 7595
4, 13812, Pitch_bend_c, 8, 7563
4, 13814, Pitch_bend_c, 8, 7579
4, 13816, Pitch_bend_c, 8, 7595
4, 13818, Pitch_bend_c, 8, 7611
4, 13826, Pitch_bend_c, 8, 7595
4, 13826, Note_on_c, 8, 31, 120
4, 13826, Note_on_c, 8, 38, 0
4, 13836, Pitch_bend_c, 8, 8155
4, 13836, Pitch_bend_c, 8, 8086
4, 13840, Pitch_bend_c, 8, 8107
4, 13842, Pitch_bend_c, 8, 8192
4, 14018, Note_on_c, 8, 31, 0
4, 14020, Note_on_c, 8, 43, 127
4, 14126, Pitch_bend_c, 8, 8234
4, 14128, Pitch_bend_c, 8, 8213
4, 14130, Pitch_bend_c, 8, 7702
4, 14132, Pitch_bend_c, 8, 7600
4, 14132, Pitch_bend_c, 8, 7584
4, 14148, Pitch_bend_c, 8, 7563
4, 14150, Pitch_bend_c, 8, 7056
4, 14152, Pitch_bend_c, 8, 6982
4, 14154, Pitch_bend_c, 8, 6928
4, 14156, Pitch_bend_c, 8, 6907
4, 14156, Pitch_bend_c, 8, 6928
4, 14164, Pitch_bend_c, 8, 6907
4, 14166, Pitch_bend_c, 8, 6944
4, 14168, Pitch_bend_c, 8, 6928
4, 14170, Pitch_bend_c, 8, 6907
4, 14178, Note_on_c, 8, 43, 0
4, 14184, Pitch_bend_c, 8, 6891
4, 14204, Pitch_bend_c, 8, 8192
4, 14206, Note_on_c, 8, 36, 127
4, 14362, Note_on_c, 8, 36, 0
4, 14402, Note_on_c, 8, 43, 127
4, 14536, Note_on_c, 8, 43, 0
4, 14596, Note_on_c, 8, 38, 127
4, 14928, Note_on_c, 8, 38, 0
4, 14978, Note_on_c, 8, 43, 127
4, 15146, Note_on_c, 8, 43, 0
4, 15172, Note_on_c, 8, 41, 127
4, 15336, Note_on_c, 8, 41, 0
4, 15352, Note_on_c, 8, 40, 127
4, 15698, Note_on_c, 8, 40, 0
4, 15742, Note_on_c, 8, 33, 126
4, 15804, Note_on_c, 8, 33, 0
4, 15844, Note_on_c, 8, 33, 127
4, 16126, Note_on_c, 8, 33, 0
4, 16132, Note_on_c, 8, 38, 127
4, 16224, Pitch_bend_c, 8, 8293
4, 16226, Pitch_bend_c, 8, 8192
4, 16440, Note_on_c, 8, 38, 0
4, 16458, Note_on_c, 8, 33, 82
4, 16514, Note_on_c, 8, 38, 92
4, 16514, Note_on_c, 8, 33, 0
4, 16562, Note_on_c, 8, 38, 0
4, 16608, Note_on_c, 8, 38, 127
4, 16708, Note_on_c, 8, 38, 127
4, 16708, Note_on_c, 8, 38, 0
4, 16756, Note_on_c, 8, 38, 0
4, 16762, Note_on_c, 8, 41, 127
4, 16820, Note_on_c, 8, 41, 0
4, 16898, Note_on_c, 8, 34, 127
4, 17236, Note_on_c, 8, 34, 0
4, 17284, Note_on_c, 8, 36, 127
4, 17458, Note_on_c, 8, 36, 0
4, 17476, Note_on_c, 8, 48, 127
4, 17630, Note_on_c, 8, 48, 0
4, 17666, Note_on_c, 8, 41, 127
4, 18010, Note_on_c, 8, 41, 0
4, 18054, Note_on_c, 8, 34, 127
4, 18210, Note_on_c, 8, 34, 0
4, 18240, Note_on_c, 8, 41, 127
4, 18412, Note_on_c, 8, 41, 0
4, 18436, Note_on_c, 8, 39, 127
4, 18786, Note_on_c, 8, 39, 0
4, 18814, Note_on_c, 8, 33, 122
4, 18900, Note_on_c, 8, 33, 0
4, 18914, Note_on_c, 8, 33, 127
4, 19202, Note_on_c, 8, 33, 0
4, 19204, Note_on_c, 8, 38, 114
4, 19542, Note_on_c, 8, 38, 0
4, 19586, Note_on_c, 8, 37, 127
4, 19602, Pitch_bend_c, 8, 8229
4, 19610, Pitch_bend_c, 8, 8245
4, 19612, Pitch_bend_c, 8, 8229
4, 19614, Pitch_bend_c, 8, 8245
4, 19616, Pitch_bend_c, 8, 8533
4, 19618, Pitch_bend_c, 8, 8858
4, 19620, Pitch_bend_c, 8, 8928
4, 19622, Pitch_bend_c, 8, 8944
4, 19630, Pitch_bend_c, 8, 8960
4, 19630, Pitch_bend_c, 8, 8944
4, 19636, Pitch_bend_c, 8, 8960
4, 19638, Pitch_bend_c, 8, 8944
4, 19650, Pitch_bend_c, 8, 8960
4, 19670, Pitch_bend_c, 8, 8944
4, 19674, Pitch_bend_c, 8, 8960
4, 19686, Pitch_bend_c, 8, 8960
4, 19766, Note_on_c, 8, 37, 0
4, 19772, Pitch_bend_c, 8, 8469
4, 19772, Pitch_bend_c, 8, 8992
4, 19776, Note_on_c, 8, 37, 127
4, 19778, Pitch_bend_c, 8, 8976
4, 19786, Pitch_bend_c, 8, 8960
4, 19788, Pitch_bend_c, 8, 8976
4, 19792, Pitch_bend_c, 8, 8960
4, 19794, Pitch_bend_c, 8, 8976
4, 19796, Pitch_bend_c, 8, 8960
4, 19798, Pitch_bend_c, 8, 8976
4, 19804, Pitch_bend_c, 8, 8992
4, 19812, Pitch_bend_c, 8, 8960
4, 19814, Pitch_bend_c, 8, 8944
4, 19822, Note_on_c, 8, 37, 0
4, 19828, Note_on_c, 8, 41, 127
4, 19828, Pitch_bend_c, 8, 8272
4, 19834, Pitch_bend_c, 8, 8192
4, 19900, Note_on_c, 8, 41, 0
4, 19972, Note_on_c, 8, 34, 127
4, 20318, Note_on_c, 8, 34, 0
4, 20356, Note_on_c, 8, 36, 127
4, 20548, Note_on_c, 8, 48, 109
4, 20596, Note_on_c, 8, 36, 0
4, 20698, Note_on_c, 8, 48, 0
4, 20738, Note_on_c, 8, 41, 127
4, 21080, Note_on_c, 8, 41, 0
4, 21124, Note_on_c, 8, 34, 127
4, 21304, Note_on_c, 8, 34, 0
4, 21318, Note_on_c, 8, 41, 127
4, 21494, Note_on_c, 8, 41, 0
4, 21508, Note_on_c, 8, 39, 127
4, 21862, Note_on_c, 8, 39, 0
4, 21892, Note_on_c, 8, 34, 127
4, 22266, Note_on_c, 8, 34, 0
4, 22276, Note_on_c, 8, 41, 127
4, 22800, Note_on_c, 8, 41, 0
4, 22850, Note_on_c, 8, 31, 97
4, 22970, Note_on_c, 8, 31, 0
4, 23040, Note_on_c, 8, 36, 109
4, 23394, Note_on_c, 8, 36, 0
4, 23432, Note_on_c, 8, 41, 127
4, 23594, Note_on_c, 8, 41, 0
4, 23622, Note_on_c, 8, 36, 127
4, 23756, Note_on_c, 8, 36, 0
4, 23810, Note_on_c, 8, 38, 122
4, 24136, Note_on_c, 8, 38, 0
4, 24196, Note_on_c, 8, 36, 127
4, 24364, Note_on_c, 8, 36, 0
4, 24386, Note_on_c, 8, 34, 116
4, 24540, Note_on_c, 8, 34, 0
4, 24578, Note_on_c, 8, 33, 121
4, 24766, Pitch_bend_c, 8, 8229
4, 24832, Pitch_bend_c, 8, 8213
4, 24834, Pitch_bend_c, 8, 8229
4, 24862, Pitch_bend_c, 8, 8213
4, 24888, Pitch_bend_c, 8, 8229
4, 24894, Pitch_bend_c, 8, 8213
4, 24896, Pitch_bend_c, 8, 8229
4, 24922, Note_on_c, 8, 33, 0
4, 24938, Note_on_c, 8, 36, 127
4, 24938, Pitch_bend_c, 8, 8272
4, 24948, Pitch_bend_c, 8, 8346
4, 24950, Pitch_bend_c, 8, 8485
4, 24952, Pitch_bend_c, 8, 8698
4, 24954, Pitch_bend_c, 8, 8821
4, 24956, Pitch_bend_c, 8, 8912
4, 24956, Pitch_bend_c, 8, 8944
4, 24964, Pitch_bend_c, 8, 8928
4, 24966, Pitch_bend_c, 8, 8976
4, 24968, Pitch_bend_c, 8, 9248
4, 24970, Pitch_bend_c, 8, 9429
4, 24972, Pitch_bend_c, 8, 9557
4, 24974, Pitch_bend_c, 8, 9610
4, 24976, Pitch_bend_c, 8, 9728
4, 25020, Note_on_c, 8, 36, 0
4, 25064, Pitch_bend_c, 8, 9472
4, 25066, Note_on_c, 8, 38, 127
4, 25066, Pitch_bend_c, 8, 8277
4, 25072, Pitch_bend_c, 8, 8192
4, 25312, Note_on_c, 8, 38, 0
4, 25334, Note_on_c, 8, 31, 111
4, 25660, Note_on_c, 8, 31, 0
4, 25682, Note_on_c, 8, 28, 88
4, 25696, Note_on_c, 8, 28, 0
4, 25716, Note_on_c, 8, 31, 121
4, 25764, Note_on_c, 8, 31, 0
4, 25822, Note_on_c, 8, 31, 112
4, 26020, Note_on_c, 8, 31, 0
4, 26026, Note_on_c, 8, 31, 91
4, 26074, Note_on_c, 8, 31, 0
4, 26116, Note_on_c, 8, 36, 127
4, 26446, Note_on_c, 8, 36, 0
4, 26500, Note_on_c, 8, 41, 95
4, 26658, Note_on_c, 8, 41, 0
4, 26688, Note_on_c, 8, 36, 127
4, 26864, Note_on_c, 8, 36, 0
4, 26886, Note_on_c, 8, 38, 127
4, 27228, Note_on_c, 8, 38, 0
4, 27270, Note_on_c, 8, 36, 127
4, 27428, Note_on_c, 8, 36, 0
4, 27462, Note_on_c, 8, 34, 121
4, 27616, Note_on_c, 8, 34, 0
4, 27654, Note_on_c, 8, 33, 123
4, 28026, Note_on_c, 8, 33, 0
4, 28038, Note_on_c, 8, 37, 119
4, 28048, Pitch_bend_c, 8, 8261
4, 28054, Pitch_bend_c, 8, 8229
4, 28056, Pitch_bend_c, 8, 8325
4, 28058, Pitch_bend_c, 8, 8794
4, 28060, Pitch_bend_c, 8, 8890
4, 28062, Pitch_bend_c, 8, 8944
4, 28068, Pitch_bend_c, 8, 8960
4, 28068, Pitch_bend_c, 8, 8944
4, 28070, Pitch_bend_c, 8, 8960
4, 28076, Pitch_bend_c, 8, 8944
4, 28078, Pitch_bend_c, 8, 8960
4, 28080, Pitch_bend_c, 8, 8944
4, 28082, Pitch_bend_c, 8, 8960
4, 28086, Pitch_bend_c, 8, 8944
4, 28088, Pitch_bend_c, 8, 8960
4, 28092, Pitch_bend_c, 8, 8944
4, 28098, Note_on_c, 8, 37, 0
4, 28134, Note_on_c, 8, 38, 127
4, 28140, Pitch_bend_c, 8, 8261
4, 28146, Pitch_bend_c, 8, 8192
4, 28378, Note_on_c, 8, 38, 0
4, 28418, Note_on_c, 8, 31, 119
4, 28750, Note_on_c, 8, 31, 0
4, 28804, Note_on_c, 8, 31, 127
4, 28850, Note_on_c, 8, 31, 0
4, 28902, Note_on_c, 8, 31, 125
4, 29182, Note_on_c, 8, 31, 0
4, 29194, Note_on_c, 8, 31, 102
4, 29338, Note_on_c, 8, 31, 0
4, 29382, Note_on_c, 8, 50, 127
4, 29386, Pitch_bend_c, 8, 8187
4, 29388, Pitch_bend_c, 8, 8171
4, 29390, Pitch_bend_c, 8, 8202
4, 29392, Pitch_bend_c, 8, 8171
4, 29394, Pitch_bend_c, 8, 8187
4, 29396, Pitch_bend_c, 8, 8202
4, 29398, Pitch_bend_c, 8, 8091
4, 29400, Pitch_bend_c, 8, 8202
4, 29402, Pitch_bend_c, 8, 8187
4, 29410, Pitch_bend_c, 8, 8171
4, 29412, Pitch_bend_c, 8, 8171
4, 29414, Pitch_bend_c, 8, 8139
4, 29416, Pitch_bend_c, 8, 8155
4, 29418, Pitch_bend_c, 8, 8155
4, 29420, Pitch_bend_c, 8, 8171
4, 29422, Pitch_bend_c, 8, 8187
4, 29424, Pitch_bend_c, 8, 8171
4, 29426, Pitch_bend_c, 8, 8187
4, 29430, Pitch_bend_c, 8, 8202
4, 29432, Pitch_bend_c, 8, 8171
4, 29432, Pitch_bend_c, 8, 8187
4, 29436, Pitch_bend_c, 8, 8202
4, 29438, Pitch_bend_c, 8, 8155
4, 29438, Pitch_bend_c, 8, 8171
4, 29446, Pitch_bend_c, 8, 8155
4, 29448, Pitch_bend_c, 8, 8139
4, 29452, Pitch_bend_c, 8, 8123
4, 29454, Pitch_bend_c, 8, 8155
4, 29454, Pitch_bend_c, 8, 8171
4, 29456, Pitch_bend_c, 8, 8155
4, 29458, Pitch_bend_c, 8, 8171
4, 29462, Pitch_bend_c, 8, 8187
4, 29466, Pitch_bend_c, 8, 8155
4, 29468, Pitch_bend_c, 8, 8155
4, 29470, Pitch_bend_c, 8, 8171
4, 29472, Pitch_bend_c, 8, 8187
4, 29474, Pitch_bend_c, 8, 8171
4, 29476, Pitch_bend_c, 8, 8155
4, 29476, Pitch_bend_c, 8, 8139
4, 29478, Pitch_bend_c, 8, 8155
4, 29484, Pitch_bend_c, 8, 8171
4, 29486, Pitch_bend_c, 8, 8171
4, 29488, Pitch_bend_c, 8, 8139
4, 29490, Pitch_bend_c, 8, 7830
4, 29492, Pitch_bend_c, 8, 7712
4, 29494, Pitch_bend_c, 8, 7574
4, 29496, Pitch_bend_c, 8, 7515
4, 29498, Pitch_bend_c, 8, 7499
4, 29500, Pitch_bend_c, 8, 7531
4, 29502, Pitch_bend_c, 8, 7547
4, 29506, Pitch_bend_c, 8, 7531
4, 29508, Pitch_bend_c, 8, 7499
4, 29508, Note_on_c, 8, 50, 0
4, 29550, Pitch_bend_c, 8, 8096
4, 29552, Pitch_bend_c, 8, 8112
4, 29558, Pitch_bend_c, 8, 8192
4, 29566, Note_on_c, 8, 36, 127
4, 29754, Note_on_c, 8, 36, 0
4, 29758, Note_on_c, 8, 43, 127
4, 29924, Note_on_c, 8, 43, 0
4, 29954, Note_on_c, 8, 38, 127
4, 30296, Note_on_c, 8, 38, 0
4, 30342, Note_on_c, 8, 43, 127
4, 30510, Note_on_c, 8, 43, 0
4, 30538, Note_on_c, 8, 41, 127
4, 30702, Note_on_c, 8, 41, 0
4, 30716, Note_on_c, 8, 40, 127
4, 31054, Note_on_c, 8, 40, 0
4, 31106, Note_on_c, 8, 33, 126
4, 31156, Note_on_c, 8, 33, 0
4, 31206, Note_on_c, 8, 33, 127
4, 31400, Note_on_c, 8, 33, 0
4, 31406, Note_on_c, 8, 33, 107
4, 31484, Note_on_c, 8, 33, 0
4, 31494, Note_on_c, 8, 36, 127
4, 31494, Pitch_bend_c, 8, 8330
4, 31496, Pitch_bend_c, 8, 8304
4, 31498, Pitch_bend_c, 8, 8378
4, 31500, Pitch_bend_c, 8, 8528
4, 31502, Pitch_bend_c, 8, 8666
4, 31504, Pitch_bend_c, 8, 8789
4, 31506, Pitch_bend_c, 8, 8869
4, 31508, Pitch_bend_c, 8, 8912
4, 31510, Pitch_bend_c, 8, 8928
4, 31512, Pitch_bend_c, 8, 8944
4, 31514, Pitch_bend_c, 8, 8976
4, 31516, Pitch_bend_c, 8, 9072
4, 31518, Pitch_bend_c, 8, 9493
4, 31518, Pitch_bend_c, 8, 9610
4, 31520, Pitch_bend_c, 8, 9626
4, 31522, Pitch_bend_c, 8, 9642
4, 31528, Pitch_bend_c, 8, 9658
4, 31530, Pitch_bend_c, 8, 9642
4, 31536, Pitch_bend_c, 8, 9658
4, 31538, Pitch_bend_c, 8, 9626
4, 31542, Pitch_bend_c, 8, 9610
4, 31544, Pitch_bend_c, 8, 9642
4, 31548, Pitch_bend_c, 8, 9626
4, 31550, Pitch_bend_c, 8, 9610
4, 31552, Pitch_bend_c, 8, 9626
4, 31552, Pitch_bend_c, 8, 9642
4, 31558, Pitch_bend_c, 8, 9626
4, 31560, Pitch_bend_c, 8, 9642
4, 31570, Pitch_bend_c, 8, 9626
4, 31572, Pitch_bend_c, 8, 9642
4, 31574, Pitch_bend_c, 8, 9626
4, 31576, Pitch_bend_c, 8, 9642
4, 31576, Pitch_bend_c, 8, 9626
4, 31580, Pitch_bend_c, 8, 9642
4, 31582, Pitch_bend_c, 8, 9642
4, 31586, Pitch_bend_c, 8, 9626
4, 31586, Pitch_bend_c, 8, 9626
4, 31620, Pitch_bend_c, 8, 9642
4, 31624, Pitch_bend_c, 8, 9626
4, 31626, Pitch_bend_c, 8, 9642
4, 31658, Pitch_bend_c, 8, 9626
4, 31662, Pitch_bend_c, 8, 9642
4, 31662, Pitch_bend_c, 8, 9626
4, 31664, Pitch_bend_c, 8, 9626
4, 31668, Pitch_bend_c, 8, 9626
4, 31672, Pitch_bend_c, 8, 9610
4, 31676, Pitch_bend_c, 8, 9626
4, 31742, Pitch_bend_c, 8, 9642
4, 31804, Pitch_bend_c, 8, 9626
4, 31806, Pitch_bend_c, 8, 9642
4, 31808, Pitch_bend_c, 8, 9626
4, 31810, Pitch_bend_c, 8, 9642
4, 31812, Pitch_bend_c, 8, 9626
4, 31814, Pitch_bend_c, 8, 9642
4, 31816, Pitch_bend_c, 8, 9626
4, 31816, Pitch_bend_c, 8, 9642
4, 31818, Pitch_bend_c, 8, 9626
4, 31820, Pitch_bend_c, 8, 9642
4, 31824, Note_on_c, 8, 36, 0
4, 31872, Note_on_c, 8, 38, 127
4, 31872, Pitch_bend_c, 8, 8277
4, 31876, Pitch_bend_c, 8, 8192
4, 31922, Note_on_c, 8, 38, 0
4, 31972, Note_on_c, 8, 38, 127
4, 32160, Note_on_c, 8, 38, 0
4, 32166, Note_on_c, 8, 38, 114
4, 32166, Pitch_bend_c, 8, 8261
4, 32178, Pitch_bend_c, 8, 8261
4, 32186, Pitch_bend_c, 8, 8277
4, 32186, Pitch_bend_c, 8, 8277
4, 32188, Pitch_bend_c, 8, 8261
4, 32190, Pitch_bend_c, 8, 8277
4, 32192, Pitch_bend_c, 8, 8293
4, 32202, Pitch_bend_c, 8, 8277
4, 32204, Pitch_bend_c, 8, 8208
4, 32206, Pitch_bend_c, 8, 7995
4, 32208, Pitch_bend_c, 8, 7739
4, 32208, Pitch_bend_c, 8, 7643
4, 32210, Pitch_bend_c, 8, 7611
4, 32224, Pitch_bend_c, 8, 7595
4, 32234, Pitch_bend_c, 8, 7579
4, 32236, Pitch_bend_c, 8, 7595
4, 32238, Pitch_bend_c, 8, 7579
4, 32240, Pitch_bend_c, 8, 7595
4, 32248, Pitch_bend_c, 8, 7579
4, 32250, Note_on_c, 8, 38, 0
4, 32260, Note_on_c, 8, 31, 127
4, 32260, Pitch_bend_c, 8, 8288
4, 32270, Pitch_bend_c, 8, 8192
4, 32452, Note_on_c, 8, 43, 127
4, 32456, Note_on_c, 8, 31, 0
4, 32574, Note_on_c, 8, 42, 94
4, 32574, Note_on_c, 8, 43, 0
4, 32606, Note_on_c, 8, 41, 71
4, 32606, Note_on_c, 8, 42, 0
4, 32624, Note_on_c, 8, 41, 0
4, 32644, Note_on_c, 8, 36, 127
4, 32832, Pitch_bend_c, 8, 8272
4, 32834, Pitch_bend_c, 8, 8192
4, 32836, Note_on_c, 8, 43, 127
4, 32844, Note_on_c, 8, 36, 0
4, 32994, Note_on_c, 8, 43, 0
4, 33028, Note_on_c, 8, 38, 127
4, 33360, Note_on_c, 8, 38, 0
4, 33412, Note_on_c, 8, 43, 127
4, 33572, Note_on_c, 8, 43, 0
4, 33596, Note_on_c, 8, 41, 127
4, 33764, Note_on_c, 8, 41, 0
4, 33792, Note_on_c, 8, 40, 127
4, 34158, Note_on_c, 8, 40, 0
4, 34176, Note_on_c, 8, 33, 124
4, 34228, Note_on_c, 8, 33, 0
4, 34274, Note_on_c, 8, 33, 127
4, 34546, Note_on_c, 8, 33, 0
4, 34562, Note_on_c, 8, 36, 127
4, 34564, Pitch_bend_c, 8, 8448
4, 34570, Pitch_bend_c, 8, 8704
4, 34574, Pitch_bend_c, 8, 8960
4, 34580, Pitch_bend_c, 8, 9216
4, 34586, Pitch_bend_c, 8, 9472
4, 34590, Pitch_bend_c, 8, 9728
4, 34886, Note_on_c, 8, 36, 0
4, 34920, Pitch_bend_c, 8, 8192
4, 34942, Note_on_c, 8, 38, 127
4, 34992, Note_on_c, 8, 38, 0
4, 35038, Note_on_c, 8, 38, 127
4, 35232, Note_on_c, 8, 38, 0
4, 35234, Note_on_c, 8, 38, 67
4, 35278, Pitch_bend_c, 8, 8277
4, 35280, Pitch_bend_c, 8, 8277
4, 35282, Pitch_bend_c, 8, 8293
4, 35284, Pitch_bend_c, 8, 8229
4, 35286, Pitch_bend_c, 8, 7947
4, 35288, Pitch_bend_c, 8, 7787
4, 35290, Pitch_bend_c, 8, 7691
4, 35294, Pitch_bend_c, 8, 7611
4, 35296, Pitch_bend_c, 8, 7595
4, 35316, Pitch_bend_c, 8, 7579
4, 35324, Note_on_c, 8, 38, 0
4, 35336, Note_on_c, 8, 31, 115
4, 35336, Pitch_bend_c, 8, 8288
4, 35344, Pitch_bend_c, 8, 8192
4, 35516, Note_on_c, 8, 43, 127
4, 35518, Note_on_c, 8, 31, 0
4, 35642, Note_on_c, 8, 42, 107
4, 35642, Pitch_bend_c, 8, 8266
4, 35642, Pitch_bend_c, 8, 8245
4, 35642, Note_on_c, 8, 43, 0
4, 35646, Pitch_bend_c, 8, 8187
4, 35648, Pitch_bend_c, 8, 8166
4, 35648, Pitch_bend_c, 8, 8202
4, 35652, Pitch_bend_c, 8, 8224
4, 35656, Pitch_bend_c, 8, 8245
4, 35666, Pitch_bend_c, 8, 8202
4, 35668, Pitch_bend_c, 8, 8011
4, 35670, Pitch_bend_c, 8, 7739
4, 35672, Pitch_bend_c, 8, 7627
4, 35672, Pitch_bend_c, 8, 7611
4, 35674, Pitch_bend_c, 8, 7574
4, 35688, Pitch_bend_c, 8, 7552
4, 35696, Pitch_bend_c, 8, 7536
4, 35698, Note_on_c, 8, 42, 0
4, 35712, Pitch_bend_c, 8, 8192
4, 35714, Note_on_c, 8, 36, 127
4, 35906, Note_on_c, 8, 43, 127
4, 35910, Note_on_c, 8, 36, 0
4, 36076, Note_on_c, 8, 43, 0
4, 36098, Note_on_c, 8, 38, 127
4, 36424, Note_on_c, 8, 38, 0
4, 36482, Note_on_c, 8, 43, 127
4, 36642, Note_on_c, 8, 43, 0
4, 36672, Note_on_c, 8, 41, 127
4, 36844, Note_on_c, 8, 41, 0
4, 36856, Note_on_c, 8, 40, 127
4, 37200, Note_on_c, 8, 40, 0
4, 37244, Note_on_c, 8, 33, 127
4, 37296, Note_on_c, 8, 33, 0
4, 37342, Note_on_c, 8, 33, 127
4, 37528, Note_on_c, 8, 33, 0
4, 37542, Note_on_c, 8, 33, 122
4, 37616, Note_on_c, 8, 33, 0
4, 37634, Note_on_c, 8, 36, 127
4, 37634, Pitch_bend_c, 8, 8288
4, 37636, Pitch_bend_c, 8, 8320
4, 37638, Pitch_bend_c, 8, 8437
4, 37640, Pitch_bend_c, 8, 8560
4, 37642, Pitch_bend_c, 8, 8725
4, 37644, Pitch_bend_c, 8, 8837
4, 37646, Pitch_bend_c, 8, 8896
4, 37648, Pitch_bend_c, 8, 8928
4, 37650, Pitch_bend_c, 8, 8944
4, 37652, Pitch_bend_c, 8, 8960
4, 37654, Pitch_bend_c, 8, 9344
4, 37656, Pitch_bend_c, 8, 9557
4, 37658, Pitch_bend_c, 8, 9594
4, 37660, Pitch_bend_c, 8, 9642
4, 37664, Pitch_bend_c, 8, 9658
4, 37664, Pitch_bend_c, 8, 9642
4, 37668, Pitch_bend_c, 8, 9658
4, 37670, Pitch_bend_c, 8, 9642
4, 37672, Pitch_bend_c, 8, 9658
4, 37676, Pitch_bend_c, 8, 9642
4, 37678, Pitch_bend_c, 8, 9626
4, 37680, Pitch_bend_c, 8, 9642
4, 37684, Pitch_bend_c, 8, 9626
4, 37688, Pitch_bend_c, 8, 9642
4, 37690, Pitch_bend_c, 8, 9594
4, 37692, Pitch_bend_c, 8, 9626
4, 37698, Pitch_bend_c, 8, 9642
4, 37706, Pitch_bend_c, 8, 9626
4, 37706, Pitch_bend_c, 8, 9642
4, 37710, Pitch_bend_c, 8, 9626
4, 37750, Pitch_bend_c, 8, 9626
4, 37752, Pitch_bend_c, 8, 9642
4, 37802, Pitch_bend_c, 8, 9626
4, 37804, Pitch_bend_c, 8, 9642
4, 37808, Pitch_bend_c, 8, 9626
4, 37830, Pitch_bend_c, 8, 9642
4, 37832, Pitch_bend_c, 8, 9626
4, 37838, Pitch_bend_c, 8, 9642
4, 37840, Pitch_bend_c, 8, 9642
4, 37844, Pitch_bend_c, 8, 9626
4, 37852, Pitch_bend_c, 8, 9642
4, 37854, Pitch_bend_c, 8, 9626
4, 37858, Pitch_bend_c, 8, 9610
4, 37860, Pitch_bend_c, 8, 9626
4, 37868, Pitch_bend_c, 8, 9610
4, 37868, Pitch_bend_c, 8, 9626
4, 37872, Pitch_bend_c, 8, 9610
4, 37872, Pitch_bend_c, 8, 9626
4, 37876, Pitch_bend_c, 8, 9626
4, 37882, Pitch_bend_c, 8, 9642
4, 37884, Pitch_bend_c, 8, 9626
4, 37886, Pitch_bend_c, 8, 9642
4, 37888, Pitch_bend_c, 8, 9626
4, 37888, Pitch_bend_c, 8, 9642
4, 37954, Pitch_bend_c, 8, 9626
4, 37956, Pitch_bend_c, 8, 9642
4, 37960, Pitch_bend_c, 8, 9626
4, 37966, Pitch_bend_c, 8, 9642
4, 37972, Pitch_bend_c, 8, 9626
4, 37974, Note_on_c, 8, 36, 0
4, 38016, Note_on_c, 8, 38, 127
4, 38016, Pitch_bend_c, 8, 8277
4, 38018, Pitch_bend_c, 8, 8192
4, 38062, Note_on_c, 8, 38, 0
4, 38112, Note_on_c, 8, 38, 127
4, 38300, Note_on_c, 8, 38, 0
4, 38312, Note_on_c, 8, 38, 116
4, 38358, Pitch_bend_c, 8, 8293
4, 38360, Pitch_bend_c, 8, 8261
4, 38362, Pitch_bend_c, 8, 8144
4, 38364, Pitch_bend_c, 8, 8112
4, 38366, Pitch_bend_c, 8, 7851
4, 38368, Pitch_bend_c, 8, 7675
4, 38370, Pitch_bend_c, 8, 7627
4, 38372, Pitch_bend_c, 8, 7611
4, 38374, Pitch_bend_c, 8, 7595
4, 38398, Note_on_c, 8, 38, 0
4, 38408, Note_on_c, 8, 31, 124
4, 38408, Pitch_bend_c, 8, 8288
4, 38412, Pitch_bend_c, 8, 8192
4, 38588, Note_on_c, 8, 31, 0
4, 38592, Note_on_c, 8, 43, 127
4, 38712, Pitch_bend_c, 8, 8234
4, 38714, Pitch_bend_c, 8, 8150
4, 38716, Pitch_bend_c, 8, 7963
4, 38718, Pitch_bend_c, 8, 7680
4, 38720, Pitch_bend_c, 8, 7563
4, 38726, Pitch_bend_c, 8, 7584
4, 38726, Pitch_bend_c, 8, 7600
4, 38730, Pitch_bend_c, 8, 7622
4, 38732, Pitch_bend_c, 8, 7584
4, 38734, Pitch_bend_c, 8, 7520
4, 38736, Pitch_bend_c, 8, 7099
4, 38736, Pitch_bend_c, 8, 7019
4, 38738, Pitch_bend_c, 8, 6944
4, 38740, Pitch_bend_c, 8, 6928
4, 38744, Pitch_bend_c, 8, 6891
4, 38756, Pitch_bend_c, 8, 6870
4, 38764, Note_on_c, 8, 43, 0
4, 38788, Note_on_c, 8, 36, 127
4, 38788, Pitch_bend_c, 8, 8288
4, 38796, Pitch_bend_c, 8, 8192
4, 38970, Note_on_c, 8, 36, 0
4, 38978, Note_on_c, 8, 43, 127
4, 39128, Note_on_c, 8, 43, 0
4, 39172, Note_on_c, 8, 38, 127
4, 39490, Note_on_c, 8, 38, 0
4, 39556, Note_on_c, 8, 43, 127
4, 39716, Note_on_c, 8, 43, 0
4, 39744, Note_on_c, 8, 41, 127
4, 39924, Note_on_c, 8, 41, 0
4, 39934, Note_on_c, 8, 40, 127
4, 40292, Note_on_c, 8, 40, 0
4, 40322, Note_on_c, 8, 33, 127
4, 40384, Note_on_c, 8, 33, 0
4, 40416, Note_on_c, 8, 33, 127
4, 40610, Note_on_c, 8, 33, 0
4, 40618, Note_on_c, 8, 33, 127
4, 40708, Note_on_c, 8, 38, 127
4, 40708, Note_on_c, 8, 33, 0
4, 41048, Note_on_c, 8, 38, 0
4, 41092, Note_on_c, 8, 38, 127
4, 41228, Note_on_c, 8, 38, 0
4, 41282, Note_on_c, 8, 38, 127
4, 41324, Note_on_c, 8, 38, 0
4, 41330, Note_on_c, 8, 41, 127
4, 41408, Note_on_c, 8, 41, 0
4, 41476, Note_on_c, 8, 34, 127
4, 41810, Note_on_c, 8, 34, 0
4, 41856, Note_on_c, 8, 36, 127
4, 42054, Note_on_c, 8, 48, 127
4, 42058, Note_on_c, 8, 36, 0
4, 42234, Note_on_c, 8, 48, 0
4, 42244, Note_on_c, 8, 41, 127
4, 42576, Note_on_c, 8, 41, 0
4, 42624, Note_on_c, 8, 34, 127
4, 42802, Note_on_c, 8, 34, 0
4, 42820, Note_on_c, 8, 41, 127
4, 42998, Note_on_c, 8, 41, 0
4, 43012, Note_on_c, 8, 39, 127
4, 43348, Note_on_c, 8, 39, 0
4, 43390, Note_on_c, 8, 33, 127
4, 43438, Note_on_c, 8, 33, 0
4, 43484, Note_on_c, 8, 33, 127
4, 43724, Note_on_c, 8, 33, 0
4, 43736, Note_on_c, 8, 33, 103
4, 43770, Note_on_c, 8, 33, 0
4, 43780, Note_on_c, 8, 38, 127
4, 43824, Note_on_c, 8, 38, 0
4, 43876, Note_on_c, 8, 38, 127
4, 44044, Note_on_c, 8, 38, 0
4, 44066, Note_on_c, 8, 33, 103
4, 44110, Note_on_c, 8, 33, 0
4, 44158, Note_on_c, 8, 38, 127
4, 44342, Note_on_c, 8, 38, 0
4, 44352, Note_on_c, 8, 38, 127
4, 44392, Note_on_c, 8, 38, 0
4, 44402, Note_on_c, 8, 41, 127
4, 44474, Note_on_c, 8, 41, 0
4, 44546, Note_on_c, 8, 34, 127
4, 44886, Note_on_c, 8, 34, 0
4, 44930, Note_on_c, 8, 36, 127
4, 45112, Note_on_c, 8, 36, 0
4, 45126, Note_on_c, 8, 48, 127
4, 45300, Note_on_c, 8, 48, 0
4, 45310, Note_on_c, 8, 41, 127
4, 45640, Note_on_c, 8, 41, 0
4, 45696, Note_on_c, 8, 34, 127
4, 45892, Note_on_c, 8, 34, 0
4, 45894, Note_on_c, 8, 41, 127
4, 46070, Note_on_c, 8, 41, 0
4, 46088, Note_on_c, 8, 39, 127
4, 46432, Note_on_c, 8, 39, 0
4, 46470, Note_on_c, 8, 34, 127
4, 46798, Note_on_c, 8, 34, 0
4, 46846, Note_on_c, 8, 41, 127
4, 47500, Note_on_c, 8, 41, 0
4, 47616, Note_on_c, 8, 36, 127
4, 48270, Note_on_c, 8, 36, 0
4, 48284, Note_on_c, 8, 36, 127
4, 48332, Note_on_c, 8, 36, 0
4, 48342, Note_on_c, 8, 34, 114
4, 48386, Note_on_c, 8, 34, 0
4, 48388, Note_on_c, 8, 32, 127
4, 49036, Note_on_c, 8, 32, 0
4, 49054, Note_on_c, 8, 32, 127
4, 49098, Note_on_c, 8, 32, 0
4, 49102, Note_on_c, 8, 31, 81
4, 49150, Note_on_c, 8, 31, 0
4, 49154, Note_on_c, 8, 29, 127
4, 49434, Note_on_c, 8, 29, 0
4, 49440, Note_on_c, 8, 29, 127
4, 49540, Note_on_c, 8, 41, 127
4, 49542, Note_on_c, 8, 29, 0
4, 49822, Note_on_c, 8, 41, 0
4, 49828, Note_on_c, 8, 41, 127
4, 49916, Note_on_c, 8, 41, 0
4, 49924, Note_on_c, 8, 39, 127
4, 50192, Note_on_c, 8, 39, 0
4, 50208, Note_on_c, 8, 39, 127
4, 50290, Note_on_c, 8, 39, 0
4, 50310, Note_on_c, 8, 37, 127
4, 50586, Note_on_c, 8, 37, 0
4, 50600, Note_on_c, 8, 37, 127
4, 50682, Note_on_c, 8, 37, 0
4, 50694, Note_on_c, 8, 36, 127
4, 51344, Note_on_c, 8, 36, 0
4, 51360, Note_on_c, 8, 31, 76
4, 51408, Note_on_c, 8, 31, 0
4, 51456, Note_on_c, 8, 36, 109
4, 51800, Note_on_c, 8, 36, 0
4, 51840, Note_on_c, 8, 41, 127
4, 51984, Note_on_c, 8, 41, 0
4, 52030, Note_on_c, 8, 36, 91
4, 52196, Note_on_c, 8, 36, 0
4, 52226, Note_on_c, 8, 38, 87
4, 52518, Note_on_c, 8, 38, 0
4, 52614, Note_on_c, 8, 36, 99
4, 52780, Note_on_c, 8, 36, 0
4, 52804, Note_on_c, 8, 34, 88
4, 52950, Note_on_c, 8, 34, 0
4, 52988, Note_on_c, 8, 33, 110
4, 53356, Note_on_c, 8, 33, 0
4, 53374, Note_on_c, 8, 36, 92
4, 53374, Pitch_bend_c, 8, 8272
4, 53376, Pitch_bend_c, 8, 8378
4, 53378, Pitch_bend_c, 8, 8869
4, 53378, Pitch_bend_c, 8, 8912
4, 53380, Pitch_bend_c, 8, 8928
4, 53382, Pitch_bend_c, 8, 8944
4, 53384, Pitch_bend_c, 8, 8944
4, 53386, Pitch_bend_c, 8, 8976
4, 53388, Pitch_bend_c, 8, 9413
4, 53390, Pitch_bend_c, 8, 9610
4, 53392, Pitch_bend_c, 8, 9642
4, 53394, Pitch_bend_c, 8, 9658
4, 53396, Pitch_bend_c, 8, 9642
4, 53406, Pitch_bend_c, 8, 9658
4, 53408, Pitch_bend_c, 8, 9626
4, 53410, Pitch_bend_c, 8, 9626
4, 53412, Pitch_bend_c, 8, 9626
4, 53414, Pitch_bend_c, 8, 9610
4, 53418, Pitch_bend_c, 8, 9573
4, 53418, Pitch_bend_c, 8, 9610
4, 53442, Note_on_c, 8, 36, 0
4, 53478, Note_on_c, 8, 38, 115
4, 53478, Pitch_bend_c, 8, 8277
4, 53480, Pitch_bend_c, 8, 8261
4, 53484, Pitch_bend_c, 8, 8192
4, 53726, Note_on_c, 8, 38, 0
4, 53762, Note_on_c, 8, 31, 92
4, 54124, Note_on_c, 8, 31, 0
4, 54140, Note_on_c, 8, 31, 87
4, 54186, Note_on_c, 8, 31, 0
4, 54242, Note_on_c, 8, 31, 93
4, 54478, Note_on_c, 8, 31, 0
4, 54530, Note_on_c, 8, 36, 97
4, 54858, Note_on_c, 8, 36, 0
4, 54914, Note_on_c, 8, 41, 119
4, 55074, Note_on_c, 8, 41, 0
4, 55106, Note_on_c, 8, 36, 55
4, 55270, Note_on_c, 8, 36, 0
4, 55296, Note_on_c, 8, 38, 117
4, 55626, Note_on_c, 8, 38, 0
4, 55688, Note_on_c, 8, 36, 105
4, 55862, Note_on_c, 8, 36, 0
4, 55884, Note_on_c, 8, 34, 97
4, 56054, Note_on_c, 8, 34, 0
4, 56074, Note_on_c, 8, 33, 98
4, 56414, Note_on_c, 8, 33, 0
4, 56446, Note_on_c, 8, 38, 94
4, 56516, Note_on_c, 8, 38, 0
4, 56554, Note_on_c, 8, 38, 120
4, 56616, Pitch_bend_c, 8, 8261
4, 56616, Pitch_bend_c, 8, 8277
4, 56628, Pitch_bend_c, 8, 8261
4, 56630, Pitch_bend_c, 8, 8277
4, 56630, Pitch_bend_c, 8, 8261
4, 56634, Pitch_bend_c, 8, 8277
4, 56644, Pitch_bend_c, 8, 8261
4, 56646, Pitch_bend_c, 8, 8277
4, 56648, Pitch_bend_c, 8, 8245
4, 56652, Pitch_bend_c, 8, 8261
4, 56654, Pitch_bend_c, 8, 8277
4, 56660, Pitch_bend_c, 8, 8261
4, 56666, Pitch_bend_c, 8, 8277
4, 56712, Pitch_bend_c, 8, 8293
4, 56712, Pitch_bend_c, 8, 8277
4, 56766, Pitch_bend_c, 8, 8261
4, 56766, Pitch_bend_c, 8, 8277
4, 56776, Pitch_bend_c, 8, 8261
4, 56780, Note_on_c, 8, 38, 0
4, 56782, Pitch_bend_c, 8, 8128
4, 56796, Note_on_c, 8, 38, 78
4, 56796, Pitch_bend_c, 8, 8261
4, 56798, Pitch_bend_c, 8, 8277
4, 56810, Pitch_bend_c, 8, 8293
4, 56820, Note_on_c, 8, 38, 0
4, 56838, Note_on_c, 8, 31, 85
4, 56838, Pitch_bend_c, 8, 8261
4, 56878, Note_on_c, 8, 31, 0
4, 56930, Pitch_bend_c, 8, 8192
4, 56930, Note_on_c, 8, 31, 103
4, 57254, Note_on_c, 8, 31, 0
4, 57314, Note_on_c, 8, 31, 102
4, 57596, Note_on_c, 8, 31, 0
4, 57602, Note_on_c, 8, 31, 76
4, 57738, Note_on_c, 8, 31, 0
4, 57794, Note_on_c, 8, 50, 127
4, 57836, Note_on_c, 8, 50, 0
4, 57846, Note_on_c, 8, 48, 127
4, 57890, Note_on_c, 8, 43, 99
4, 57906, Note_on_c, 8, 48, 0
4, 57936, Note_on_c, 8, 43, 0
4, 57992, Note_on_c, 8, 36, 118
4, 58144, Note_on_c, 8, 36, 0
4, 58186, Note_on_c, 8, 43, 127
4, 58330, Note_on_c, 8, 43, 0
4, 58376, Note_on_c, 8, 38, 127
4, 58704, Note_on_c, 8, 38, 0
4, 58764, Note_on_c, 8, 43, 127
4, 58920, Note_on_c, 8, 43, 0
4, 58952, Note_on_c, 8, 41, 127
4, 59114, Note_on_c, 8, 41, 0
4, 59132, Note_on_c, 8, 40, 118
4, 59498, Note_on_c, 8, 40, 0
4, 59516, Note_on_c, 8, 33, 109
4, 59572, Note_on_c, 8, 33, 0
4, 59622, Note_on_c, 8, 33, 127
4, 59890, Note_on_c, 8, 33, 0
4, 59902, Note_on_c, 8, 37, 118
4, 59918, Pitch_bend_c, 8, 8277
4, 59920, Pitch_bend_c, 8, 8453
4, 59922, Pitch_bend_c, 8, 8693
4, 59924, Pitch_bend_c, 8, 8928
4, 59926, Pitch_bend_c, 8, 8960
4, 59928, Pitch_bend_c, 8, 8976
4, 59930, Pitch_bend_c, 8, 8960
4, 59932, Pitch_bend_c, 8, 8976
4, 59936, Pitch_bend_c, 8, 8960
4, 59940, Pitch_bend_c, 8, 8960
4, 59942, Pitch_bend_c, 8, 8960
4, 59942, Pitch_bend_c, 8, 8976
4, 59944, Pitch_bend_c, 8, 8960
4, 59948, Pitch_bend_c, 8, 8976
4, 59950, Pitch_bend_c, 8, 8928
4, 59950, Pitch_bend_c, 8, 8960
4, 59954, Pitch_bend_c, 8, 8976
4, 59956, Pitch_bend_c, 8, 8960
4, 59964, Note_on_c, 8, 37, 0
4, 59966, Pitch_bend_c, 8, 8437
4, 59968, Pitch_bend_c, 8, 8421
4, 60006, Note_on_c, 8, 38, 127
4, 60014, Pitch_bend_c, 8, 8261
4, 60016, Pitch_bend_c, 8, 8277
4, 60022, Pitch_bend_c, 8, 8192
4, 60226, Note_on_c, 8, 38, 0
4, 60230, Note_on_c, 8, 38, 116
4, 60246, Note_on_c, 8, 38, 0
4, 60252, Note_on_c, 8, 33, 120
4, 60270, Note_on_c, 8, 33, 0
4, 60290, Note_on_c, 8, 38, 127
4, 60322, Note_on_c, 8, 38, 0
4, 60382, Note_on_c, 8, 38, 127
4, 60568, Note_on_c, 8, 38, 0
4, 60580, Note_on_c, 8, 38, 120
4, 60654, Note_on_c, 8, 38, 0
4, 60674, Note_on_c, 8, 31, 107
4, 60868, Note_on_c, 8, 43, 127
4, 60874, Note_on_c, 8, 31, 0
4, 60980, Note_on_c, 8, 42, 120
4, 60980, Note_on_c, 8, 43, 0
4, 61006, Pitch_bend_c, 8, 7936
4, 61014, Pitch_bend_c, 8, 7680
4, 61022, Pitch_bend_c, 8, 7424
4, 61030, Pitch_bend_c, 8, 7168
4, 61032, Note_on_c, 8, 42, 0
4, 61034, Pitch_bend_c, 8, 7680
4, 61034, Pitch_bend_c, 8, 8192
4, 61052, Note_on_c, 8, 36, 124
4, 61252, Note_on_c, 8, 43, 99
4, 61256, Note_on_c, 8, 36, 0
4, 61392, Note_on_c, 8, 43, 0
4, 61442, Note_on_c, 8, 38, 127
4, 61782, Note_on_c, 8, 38, 0
4, 61828, Note_on_c, 8, 43, 127
4, 61990, Note_on_c, 8, 43, 0
4, 62022, Note_on_c, 8, 41, 127
4, 62190, Note_on_c, 8, 41, 0
4, 62214, Note_on_c, 8, 40, 127
4, 62554, Note_on_c, 8, 40, 0
4, 62590, Note_on_c, 8, 33, 116
4, 62642, Note_on_c, 8, 33, 0
4, 62690, Note_on_c, 8, 33, 127
4, 62876, Note_on_c, 8, 33, 0
4, 62886, Note_on_c, 8, 33, 110
4, 62960, Note_on_c, 8, 33, 0
4, 62976, Note_on_c, 8, 36, 127
4, 62976, Pitch_bend_c, 8, 8304
4, 62980, Pitch_bend_c, 8, 8288
4, 62986, Pitch_bend_c, 8, 8304
4, 62988, Pitch_bend_c, 8, 8320
4, 62990, Pitch_bend_c, 8, 8330
4, 62992, Pitch_bend_c, 8, 8346
4, 62994, Pitch_bend_c, 8, 8773
4, 62996, Pitch_bend_c, 8, 8912
4, 62996, Pitch_bend_c, 8, 8944
4, 62998, Pitch_bend_c, 8, 8960
4, 63002, Pitch_bend_c, 8, 8976
4, 63004, Pitch_bend_c, 8, 9008
4, 63006, Pitch_bend_c, 8, 9200
4, 63006, Pitch_bend_c, 8, 9493
4, 63008, Pitch_bend_c, 8, 9557
4, 63010, Pitch_bend_c, 8, 9626
4, 63012, Pitch_bend_c, 8, 9728
4, 63324, Note_on_c, 8, 36, 0
4, 63358, Pitch_bend_c, 8, 8192
4, 63366, Note_on_c, 8, 38, 127
4, 63482, Note_on_c, 8, 38, 0
4, 63552, Note_on_c, 8, 38, 127
4, 63596, Note_on_c, 8, 38, 0
4, 63604, Note_on_c, 8, 41, 127
4, 63670, Note_on_c, 8, 41, 0
4, 63748, Note_on_c, 8, 34, 127
4, 64070, Note_on_c, 8, 34, 0
4, 64130, Note_on_c, 8, 36, 127
4, 64310, Note_on_c, 8, 36, 0
4, 64322, Note_on_c, 8, 48, 124
4, 64496, Note_on_c, 8, 48, 0
4, 64514, Note_on_c, 8, 41, 127
4, 64850, Note_on_c, 8, 41, 0
4, 64896, Note_on_c, 8, 34, 127
4, 65060, Note_on_c, 8, 34, 0
4, 65090, Note_on_c, 8, 41, 127
4, 65268, Note_on_c, 8, 41, 0
4, 65282, Note_on_c, 8, 39, 127
4, 65618, Note_on_c, 8, 39, 0
4, 65664, Note_on_c, 8, 33, 127
4, 65712, Note_on_c, 8, 33, 0
4, 65760, Note_on_c, 8, 33, 127
4, 65944, Note_on_c, 8, 33, 0
4, 65956, Note_on_c, 8, 33, 127
4, 66034, Note_on_c, 8, 33, 0
4, 66050, Note_on_c, 8, 36, 127
4, 66050, Pitch_bend_c, 8, 8229
4, 66052, Pitch_bend_c, 8, 8256
4, 66054, Pitch_bend_c, 8, 8288
4, 66056, Pitch_bend_c, 8, 8320
4, 66064, Pitch_bend_c, 8, 8437
4, 66066, Pitch_bend_c, 8, 8709
4, 66068, Pitch_bend_c, 8, 8853
4, 66070, Pitch_bend_c, 8, 8944
4, 66070, Pitch_bend_c, 8, 8960
4, 66072, Pitch_bend_c, 8, 8976
4, 66074, Pitch_bend_c, 8, 9216
4, 66076, Pitch_bend_c, 8, 9557
4, 66078, Pitch_bend_c, 8, 9642
4, 66080, Pitch_bend_c, 8, 9674
4, 66084, Pitch_bend_c, 8, 9658
4, 66086, Pitch_bend_c, 8, 9674
4, 66086, Pitch_bend_c, 8, 9658
4, 66090, Pitch_bend_c, 8, 9674
4, 66098, Pitch_bend_c, 8, 9658
4, 66102, Pitch_bend_c, 8, 9642
4, 66106, Pitch_bend_c, 8, 9658
4, 66108, Pitch_bend_c, 8, 9642
4, 66110, Pitch_bend_c, 8, 9642
4, 66128, Pitch_bend_c, 8, 9658
4, 66130, Pitch_bend_c, 8, 9658
4, 66132, Pitch_bend_c, 8, 9642
4, 66164, Pitch_bend_c, 8, 9626
4, 66166, Pitch_bend_c, 8, 9642
4, 66168, Pitch_bend_c, 8, 9626
4, 66170, Pitch_bend_c, 8, 9642
4, 66188, Pitch_bend_c, 8, 9626
4, 66192, Pitch_bend_c, 8, 9642
4, 66194, Pitch_bend_c, 8, 9626
4, 66196, Pitch_bend_c, 8, 9642
4, 66196, Pitch_bend_c, 8, 9626
4, 66208, Pitch_bend_c, 8, 9642
4, 66210, Pitch_bend_c, 8, 9642
4, 66214, Pitch_bend_c, 8, 9626
4, 66216, Pitch_bend_c, 8, 9642
4, 66238, Note_on_c, 8, 36, 0
4, 66244, Pitch_bend_c, 8, 9626
4, 66244, Note_on_c, 8, 38, 127
4, 66244, Pitch_bend_c, 8, 9642
4, 66254, Pitch_bend_c, 8, 8192
4, 66256, Pitch_bend_c, 8, 8293
4, 66258, Pitch_bend_c, 8, 8192
4, 66584, Note_on_c, 8, 38, 0
4, 66620, Note_on_c, 8, 38, 127
4, 66670, Note_on_c, 8, 38, 0
4, 66676, Note_on_c, 8, 41, 127
4, 66766, Note_on_c, 8, 41, 0
4, 66818, Note_on_c, 8, 34, 127
4, 67150, Note_on_c, 8, 34, 0
4, 67200, Note_on_c, 8, 36, 127
4, 67388, Note_on_c, 8, 36, 0
4, 67394, Note_on_c, 8, 48, 127
4, 67570, Note_on_c, 8, 48, 0
4, 67586, Note_on_c, 8, 41, 127
4, 67904, Note_on_c, 8, 41, 0
4, 67968, Note_on_c, 8, 34, 127
4, 68158, Note_on_c, 8, 34, 0
4, 68164, Note_on_c, 8, 41, 127
4, 68342, Note_on_c, 8, 41, 0
4, 68360, Note_on_c, 8, 39, 127
4, 68688, Note_on_c, 8, 39, 0
4, 68738, Note_on_c, 8, 34, 127
4, 69054, Note_on_c, 8, 34, 0
4, 69116, Note_on_c, 8, 41, 127
4, 69688, Note_on_c, 8, 41, 0
4, 69878, Pitch_bend_c, 8, 8192
4, 69896, Note_on_c, 8, 34, 127
4, 69984, Note_on_c, 8, 34, 0
4, 69990, Note_on_c, 8, 36, 127
4, 70034, Pitch_bend_c, 8, 8192
4, 70036, Pitch_bend_c, 8, 8256
4, 70038, Pitch_bend_c, 8, 8650
4, 70040, Pitch_bend_c, 8, 8789
4, 70040, Pitch_bend_c, 8, 8869
4, 70042, Pitch_bend_c, 8, 8885
4, 70044, Pitch_bend_c, 8, 8896
4, 70044, Pitch_bend_c, 8, 8912
4, 70046, Pitch_bend_c, 8, 8928
4, 70048, Pitch_bend_c, 8, 9056
4, 70048, Pitch_bend_c, 8, 9248
4, 70048, Pitch_bend_c, 8, 9413
4, 70050, Pitch_bend_c, 8, 9493
4, 70052, Pitch_bend_c, 8, 9573
4, 70052, Pitch_bend_c, 8, 9594
4, 70060, Pitch_bend_c, 8, 9573
4, 70060, Pitch_bend_c, 8, 9594
4, 70062, Pitch_bend_c, 8, 9557
4, 70064, Pitch_bend_c, 8, 9594
4, 70064, Pitch_bend_c, 8, 9610
4, 70070, Pitch_bend_c, 8, 9626
4, 70072, Pitch_bend_c, 8, 9610
4, 70080, Pitch_bend_c, 8, 9626
4, 70080, Pitch_bend_c, 8, 9610
4, 70082, Note_on_c, 8, 36, 0
4, 70084, Note_on_c, 8, 41, 127
4, 70084, Pitch_bend_c, 8, 8192
4, 70084, Pitch_bend_c, 8, 8405
4, 70084, Pitch_bend_c, 8, 8389
4, 70084, Pitch_bend_c, 8, 8192
4, 70136, Note_on_c, 8, 41, 0
4, 70138, Note_on_c, 8, 41, 74
4, 70174, Note_on_c, 8, 41, 0
4, 70176, Pitch_bend_c, 8, 8192
4, 70184, Pitch_bend_c, 8, 8192
4, 70184, Note_on_c, 8, 43, 127
4, 70184, Pitch_bend_c, 8, 8213
4, 70184, Pitch_bend_c, 8, 8192
4, 70184, Pitch_bend_c, 8, 8192
4, 70220, Note_on_c, 8, 43, 0
4, 70234, Note_on_c, 8, 41, 83
4, 70254, Note_on_c, 8, 41, 0
4, 70280, Note_on_c, 8, 36, 127
4, 70368, Note_on_c, 8, 36, 0
4, 70376, Note_on_c, 8, 38, 127
4, 70410, Pitch_bend_c, 8, 8192
4, 70410, Pitch_bend_c, 8, 8245
4, 70412, Pitch_bend_c, 8, 8229
4, 70412, Pitch_bend_c, 8, 8208
4, 70414, Pitch_bend_c, 8, 8277
4, 70416, Pitch_bend_c, 8, 8410
4, 70416, Pitch_bend_c, 8, 8650
4, 70418, Pitch_bend_c, 8, 8773
4, 70418, Pitch_bend_c, 8, 8821
4, 70420, Pitch_bend_c, 8, 8858
4, 70420, Pitch_bend_c, 8, 8874
4, 70422, Pitch_bend_c, 8, 8896
4, 70424, Pitch_bend_c, 8, 8912
4, 70424, Pitch_bend_c, 8, 8997
4, 70424, Pitch_bend_c, 8, 9253
4, 70426, Pitch_bend_c, 8, 9397
4, 70426, Pitch_bend_c, 8, 9472
4, 70428, Pitch_bend_c, 8, 9509
4, 70430, Pitch_bend_c, 8, 9546
4, 70444, Pitch_bend_c, 8, 9562
4, 70458, Pitch_bend_c, 8, 9546
4, 70460, Pitch_bend_c, 8, 9584
4, 70460, Note_on_c, 8, 38, 0
4, 70468, Pitch_bend_c, 8, 8192
4, 70468, Note_on_c, 8, 43, 127
4, 70510, Note_on_c, 8, 43, 0
4, 70518, Note_on_c, 8, 43, 78
4, 70556, Note_on_c, 8, 43, 0
4, 70564, Note_on_c, 8, 43, 127
4, 70604, Note_on_c, 8, 43, 0
4, 70606, Note_on_c, 8, 45, 93
4, 70626, Note_on_c, 8, 45, 0
4, 70666, Note_on_c, 8, 41, 127
4, 70706, Note_on_c, 8, 41, 0
4, 70712, Note_on_c, 8, 41, 97
4, 70750, Note_on_c, 8, 41, 0
4, 70752, Pitch_bend_c, 8, 8192
4, 70760, Note_on_c, 8, 39, 127
4, 70798, Note_on_c, 8, 39, 0
4, 70804, Note_on_c, 8, 39, 114
4, 70844, Note_on_c, 8, 39, 0
4, 70852, Note_on_c, 8, 38, 127
4, 70888, Note_on_c, 8, 38, 0
4, 70896, Note_on_c, 8, 38, 111
4, 70938, Note_on_c, 8, 38, 0
4, 70948, Note_on_c, 8, 36, 127
4, 70988, Note_on_c, 8, 36, 0
4, 70992, Note_on_c, 8, 36, 95
4, 71034, Note_on_c, 8, 36, 0
4, 71046, Note_on_c, 8, 34, 127
4, 71136, Pitch_bend_c, 8, 8192
4, 71180, Note_on_c, 8, 34, 0
4, 71188, Note_on_c, 8, 36, 97
4, 71238, Note_on_c, 8, 41, 127
4, 71272, Note_on_c, 8, 36, 0
4, 71286, Note_on_c, 8, 41, 0
4, 71332, Note_on_c, 8, 43, 127
4, 71378, Note_on_c, 8, 43, 0
4, 71384, Note_on_c, 8, 41, 127
4, 71422, Note_on_c, 8, 41, 0
4, 71434, Note_on_c, 8, 39, 127
4, 71520, Pitch_bend_c, 8, 8192
4, 71780, Note_on_c, 8, 39, 0
4, 71818, Note_on_c, 8, 34, 127
4, 71896, Pitch_bend_c, 8, 8192
4, 71900, Note_on_c, 8, 34, 0
4, 71910, Note_on_c, 8, 36, 127
4, 71946, Pitch_bend_c, 8, 8192
4, 71946, Pitch_bend_c, 8, 8245
4, 71948, Pitch_bend_c, 8, 8213
4, 71950, Pitch_bend_c, 8, 8229
4, 71950, Pitch_bend_c, 8, 8245
4, 71952, Pitch_bend_c, 8, 8272
4, 71952, Pitch_bend_c, 8, 8362
4, 71952, Pitch_bend_c, 8, 8469
4, 71954, Pitch_bend_c, 8, 8586
4, 71956, Pitch_bend_c, 8, 8725
4, 71956, Pitch_bend_c, 8, 8789
4, 71956, Pitch_bend_c, 8, 8837
4, 71958, Pitch_bend_c, 8, 8869
4, 71960, Pitch_bend_c, 8, 8896
4, 71962, Pitch_bend_c, 8, 8885
4, 71964, Pitch_bend_c, 8, 8896
4, 71968, Pitch_bend_c, 8, 8928
4, 71970, Pitch_bend_c, 8, 8992
4, 71970, Pitch_bend_c, 8, 9280
4, 71972, Pitch_bend_c, 8, 9296
4, 71972, Pitch_bend_c, 8, 9728
4, 71992, Note_on_c, 8, 36, 0
4, 72006, Pitch_bend_c, 8, 8192
4, 72006, Pitch_bend_c, 8, 8192
4, 72006, Note_on_c, 8, 41, 127
4, 72006, Pitch_bend_c, 8, 8218
4, 72010, Pitch_bend_c, 8, 8192
4, 72094, Note_on_c, 8, 41, 0
4, 72102, Note_on_c, 8, 41, 127
4, 72140, Note_on_c, 8, 41, 0
4, 72142, Note_on_c, 8, 43, 127
4, 72150, Pitch_bend_c, 8, 8192
4, 72166, Note_on_c, 8, 43, 0
4, 72200, Note_on_c, 8, 29, 127
4, 72324, Note_on_c, 8, 29, 0
4, 72348, Note_on_c, 8, 29, 118
4, 72384, Pitch_bend_c, 8, 8192
4, 72386, Pitch_bend_c, 8, 8192
4, 72392, Note_on_c, 8, 41, 127
4, 72428, Note_on_c, 8, 29, 0
4, 72562, Note_on_c, 8, 41, 0
4, 72580, Note_on_c, 8, 29, 88
4, 72622, Note_on_c, 8, 41, 118
4, 72624, Note_on_c, 8, 29, 0
4, 72702, Note_on_c, 8, 41, 0
4, 72758, Pitch_bend_c, 8, 8192
4, 72766, Note_on_c, 8, 48, 127
4, 72804, Note_on_c, 8, 48, 0
4, 72818, Note_on_c, 8, 46, 124
4, 72852, Note_on_c, 8, 46, 0
4, 72862, Note_on_c, 8, 45, 127
4, 72902, Note_on_c, 8, 45, 0
4, 72912, Note_on_c, 8, 43, 117
4, 72942, Note_on_c, 8, 43, 0
4, 72964, Note_on_c, 8, 34, 127
4, 73000, Note_on_c, 8, 34, 0
4, 73012, Note_on_c, 8, 34, 87
4, 73046, Pitch_bend_c, 8, 8192
4, 73052, Note_on_c, 8, 34, 0
4, 73062, Note_on_c, 8, 36, 127
4, 73108, Pitch_bend_c, 8, 8192
4, 73108, Pitch_bend_c, 8, 8256
4, 73114, Pitch_bend_c, 8, 8362
4, 73114, Pitch_bend_c, 8, 8544
4, 73116, Pitch_bend_c, 8, 8821
4, 73118, Pitch_bend_c, 8, 8853
4, 73118, Pitch_bend_c, 8, 8869
4, 73120, Pitch_bend_c, 8, 8885
4, 73120, Pitch_bend_c, 8, 8896
4, 73122, Pitch_bend_c, 8, 8885
4, 73124, Pitch_bend_c, 8, 8896
4, 73124, Pitch_bend_c, 8, 8912
4, 73126, Pitch_bend_c, 8, 8960
4, 73128, Pitch_bend_c, 8, 9024
4, 73128, Pitch_bend_c, 8, 9328
4, 73130, Pitch_bend_c, 8, 9413
4, 73130, Pitch_bend_c, 8, 9477
4, 73130, Pitch_bend_c, 8, 9525
4, 73132, Pitch_bend_c, 8, 9541
4, 73132, Pitch_bend_c, 8, 9557
4, 73134, Pitch_bend_c, 8, 9573
4, 73134, Pitch_bend_c, 8, 9594
4, 73144, Pitch_bend_c, 8, 9573
4, 73144, Pitch_bend_c, 8, 9557
4, 73146, Pitch_bend_c, 8, 9525
4, 73146, Pitch_bend_c, 8, 9493
4, 73148, Note_on_c, 8, 36, 0
4, 73160, Pitch_bend_c, 8, 8192
4, 73160, Note_on_c, 8, 41, 127
4, 73160, Pitch_bend_c, 8, 8234
4, 73164, Pitch_bend_c, 8, 8192
4, 73202, Note_on_c, 8, 41, 0
4, 73208, Note_on_c, 8, 41, 74
4, 73246, Note_on_c, 8, 41, 0
4, 73254, Note_on_c, 8, 41, 127
4, 73294, Note_on_c, 8, 41, 0
4, 73300, Note_on_c, 8, 43, 89
4, 73334, Note_on_c, 8, 43, 0
4, 73344, Pitch_bend_c, 8, 8064
4, 73344, Pitch_bend_c, 8, 8192
4, 73348, Note_on_c, 8, 36, 127
4, 73390, Note_on_c, 8, 36, 0
4, 73394, Note_on_c, 8, 36, 83
4, 73434, Note_on_c, 8, 36, 0
4, 73444, Note_on_c, 8, 38, 127
4, 73480, Pitch_bend_c, 8, 8192
4, 73484, Pitch_bend_c, 8, 8229
4, 73486, Pitch_bend_c, 8, 8208
4, 73486, Pitch_bend_c, 8, 8309
4, 73486, Pitch_bend_c, 8, 8448
4, 73488, Pitch_bend_c, 8, 8650
4, 73488, Pitch_bend_c, 8, 8752
4, 73490, Pitch_bend_c, 8, 8805
4, 73492, Pitch_bend_c, 8, 8821
4, 73492, Pitch_bend_c, 8, 8842
4, 73494, Pitch_bend_c, 8, 8858
4, 73496, Pitch_bend_c, 8, 8874
4, 73496, Pitch_bend_c, 8, 8912
4, 73496, Pitch_bend_c, 8, 8965
4, 73498, Pitch_bend_c, 8, 9232
4, 73498, Pitch_bend_c, 8, 9376
4, 73498, Pitch_bend_c, 8, 9450
4, 73500, Pitch_bend_c, 8, 9488
4, 73500, Pitch_bend_c, 8, 9509
4, 73502, Pitch_bend_c, 8, 9525
4, 73506, Pitch_bend_c, 8, 9546
4, 73514, Pitch_bend_c, 8, 9562
4, 73518, Pitch_bend_c, 8, 9584
4, 73528, Pitch_bend_c, 8, 9488
4, 73528, Note_on_c, 8, 38, 0
4, 73536, Pitch_bend_c, 8, 8192
4, 73536, Note_on_c, 8, 43, 127
4, 73540, Pitch_bend_c, 8, 8192
4, 73574, Note_on_c, 8, 43, 0
4, 73584, Note_on_c, 8, 43, 94
4, 73620, Note_on_c, 8, 43, 0
4, 73628, Note_on_c, 8, 43, 127
4, 73672, Note_on_c, 8, 45, 121
4, 73672, Note_on_c, 8, 43, 0
4, 73704, Note_on_c, 8, 45, 0
4, 73728, Pitch_bend_c, 8, 8064
4, 73728, Pitch_bend_c, 8, 8192
4, 73732, Note_on_c, 8, 41, 127
4, 73772, Note_on_c, 8, 41, 0
4, 73774, Note_on_c, 8, 41, 108
4, 73816, Note_on_c, 8, 41, 0
4, 73826, Note_on_c, 8, 39, 127
4, 73866, Note_on_c, 8, 39, 0
4, 73872, Note_on_c, 8, 39, 105
4, 73912, Note_on_c, 8, 39, 0
4, 73922, Note_on_c, 8, 38, 127
4, 73958, Note_on_c, 8, 38, 0
4, 73966, Note_on_c, 8, 38, 94
4, 74012, Note_on_c, 8, 38, 0
4, 74018, Note_on_c, 8, 36, 127
4, 74060, Note_on_c, 8, 36, 0
4, 74068, Note_on_c, 8, 36, 92
4, 74106, Note_on_c, 8, 36, 0
4, 74112, Pitch_bend_c, 8, 8192
4, 74116, Note_on_c, 8, 34, 127
4, 74254, Note_on_c, 8, 34, 0
4, 74258, Note_on_c, 8, 36, 112
4, 74316, Note_on_c, 8, 37, 94
4, 74316, Note_on_c, 8, 36, 0
4, 74326, Note_on_c, 8, 38, 93
4, 74326, Note_on_c, 8, 37, 0
4, 74364, Note_on_c, 8, 38, 0
4, 74404, Note_on_c, 8, 43, 127
4, 74440, Note_on_c, 8, 43, 0
4, 74454, Note_on_c, 8, 41, 91
4, 74482, Note_on_c, 8, 41, 0
4, 74496, Pitch_bend_c, 8, 8192
4, 74496, Pitch_bend_c, 8, 8192
4, 74504, Note_on_c, 8, 39, 127
4, 74866, Pitch_bend_c, 8, 8192
4, 75168, Pitch_bend_c, 8, 8192
4, 75168, Pitch_bend_c, 8, 8261
4, 75170, Pitch_bend_c, 8, 8192
4, 75186, Note_on_c, 8, 39, 0
4, 75264, Note_on_c, 8, 34, 127
4, 75552, Pitch_bend_c, 8, 8192
4, 75554, Pitch_bend_c, 8, 8192
4, 75922, Pitch_bend_c, 8, 8192
4, 75958, Note_on_c, 8, 34, 0
4, 76210, Pitch_bend_c, 8, 8192
4, 76224, Note_on_c, 8, 36, 127
4, 76512, Pitch_bend_c, 8, 8192
4, 76512, Pitch_bend_c, 8, 8192
4, 76674, Pitch_bend_c, 8, 8192
4, 76850, Note_on_c, 8, 36, 0
4, 76896, Pitch_bend_c, 8, 8192
4, 76896, Pitch_bend_c, 8, 8192
4, 76896, Note_on_c, 8, 36, 126
4, 76898, Pitch_bend_c, 8, 8192
4, 76938, Note_on_c, 8, 36, 0
4, 76952, Note_on_c, 8, 34, 92
4, 76992, Note_on_c, 8, 34, 0
4, 76998, Note_on_c, 8, 32, 127
4, 77280, Pitch_bend_c, 8, 8192
4, 77280, Pitch_bend_c, 8, 8192
4, 77658, Note_on_c, 8, 32, 0
4, 77664, Pitch_bend_c, 8, 8192
4, 77666, Note_on_c, 8, 32, 127
4, 77708, Note_on_c, 8, 32, 0
4, 77714, Note_on_c, 8, 31, 113
4, 77750, Note_on_c, 8, 31, 0
4, 77766, Note_on_c, 8, 29, 127
4, 78046, Note_on_c, 8, 29, 0
4, 78048, Pitch_bend_c, 8, 8192
4, 78052, Note_on_c, 8, 29, 127
4, 78146, Note_on_c, 8, 29, 0
4, 78150, Note_on_c, 8, 41, 127
4, 78430, Note_on_c, 8, 41, 0
4, 78432, Pitch_bend_c, 8, 8192
4, 78440, Note_on_c, 8, 41, 127
4, 78518, Note_on_c, 8, 41, 0
4, 78532, Note_on_c, 8, 39, 127
4, 78810, Note_on_c, 8, 39, 0
4, 78816, Pitch_bend_c, 8, 8192
4, 78816, Pitch_bend_c, 8, 8192
4, 78822, Note_on_c, 8, 39, 127
4, 78902, Note_on_c, 8, 39, 0
4, 78918, Note_on_c, 8, 37, 127
4, 79194, Note_on_c, 8, 37, 0
4, 79200, Pitch_bend_c, 8, 8192
4, 79208, Note_on_c, 8, 37, 127
4, 79288, Note_on_c, 8, 37, 0
4, 79304, Note_on_c, 8, 36, 127
4, 79584, Pitch_bend_c, 8, 8192
4, 79586, Pitch_bend_c, 8, 8192
4, 79968, Pitch_bend_c, 8, 8192
4, 79968, Pitch_bend_c, 8, 8192
4, 80338, Pitch_bend_c, 8, 8192
4, 80800, Note_on_c, 8, 36, 0
4, 80800, End_track
5, 0, Start_track
5, 0, MIDI_port, 0
5, 0, Title_t, "strings             "
5, 0, Program_c, 4, 48
5, 626, Control_c, 4, 7, 127
5, 758, Pitch_bend_c, 4, 8192
5, 758, Note_on_c, 4, 55, 100
5, 758, Pitch_bend_c, 4, 8250
5, 758, Pitch_bend_c, 4, 8240
5, 758, Pitch_bend_c, 4, 8192
5, 758, Note_on_c, 4, 60, 100
5, 762, Pitch_bend_c, 4, 8192
5, 762, Note_on_c, 4, 67, 100
5, 762, Pitch_bend_c, 4, 8192
5, 762, Note_on_c, 4, 63, 100
5, 1412, Note_on_c, 4, 55, 0
5, 1416, Note_on_c, 4, 60, 0
5, 1418, Note_on_c, 4, 67, 0
5, 1420, Note_on_c, 4, 63, 0
5, 1524, Pitch_bend_c, 4, 8192
5, 1524, Note_on_c, 4, 56, 100
5, 1524, Pitch_bend_c, 4, 8187
5, 1524, Pitch_bend_c, 4, 8250
5, 1524, Pitch_bend_c, 4, 8192
5, 1524, Note_on_c, 4, 68, 100
5, 1524, Pitch_bend_c, 4, 8192
5, 1524, Note_on_c, 4, 60, 100
5, 1528, Pitch_bend_c, 4, 8192
5, 1528, Note_on_c, 4, 63, 100
5, 1528, Note_on_c, 4, 68, 0
5, 1530, Pitch_bend_c, 4, 8192
5, 1530, Note_on_c, 4, 68, 100
5, 2156, Note_on_c, 4, 63, 0
5, 2158, Note_on_c, 4, 60, 0
5, 2160, Note_on_c, 4, 56, 0
5, 2160, Note_on_c, 4, 68, 0
5, 2284, Note_on_c, 4, 53, 100
5, 2286, Pitch_bend_c, 4, 8192
5, 2286, Note_on_c, 4, 65, 100
5, 2286, Pitch_bend_c, 4, 8218
5, 2288, Pitch_bend_c, 4, 8192
5, 2288, Note_on_c, 4, 60, 100
5, 2288, Pitch_bend_c, 4, 8261
5, 2288, Pitch_bend_c, 4, 8293
5, 2288, Note_on_c, 4, 65, 0
5, 2290, Pitch_bend_c, 4, 8192
5, 2290, Note_on_c, 4, 56, 100
5, 2292, Pitch_bend_c, 4, 8192
5, 2292, Note_on_c, 4, 65, 100
5, 2590, Note_on_c, 4, 60, 0
5, 2592, Note_on_c, 4, 53, 0
5, 2592, Note_on_c, 4, 65, 0
5, 2594, Note_on_c, 4, 56, 0
5, 2688, Pitch_bend_c, 4, 8192
5, 2690, Note_on_c, 4, 53, 100
5, 2690, Pitch_bend_c, 4, 8288
5, 2690, Pitch_bend_c, 4, 8240
5, 2690, Pitch_bend_c, 4, 8192
5, 2690, Note_on_c, 4, 56, 100
5, 2694, Pitch_bend_c, 4, 8192
5, 2694, Note_on_c, 4, 62, 100
5, 2698, Pitch_bend_c, 4, 8192
5, 2698, Note_on_c, 4, 65, 100
5, 2980, Note_on_c, 4, 62, 0
5, 2982, Note_on_c, 4, 65, 0
5, 2984, Note_on_c, 4, 56, 0
5, 2984, Note_on_c, 4, 53, 0
5, 3082, Pitch_bend_c, 4, 8192
5, 3082, Note_on_c, 4, 55, 100
5, 3082, Pitch_bend_c, 4, 8277
5, 3082, Pitch_bend_c, 4, 8266
5, 3086, Pitch_bend_c, 4, 8192
5, 3086, Note_on_c, 4, 58, 100
5, 3092, Pitch_bend_c, 4, 8192
5, 3092, Note_on_c, 4, 63, 100
5, 3102, Pitch_bend_c, 4, 8192
5, 3102, Note_on_c, 4, 67, 100
5, 3356, Note_on_c, 4, 67, 0
5, 3360, Note_on_c, 4, 63, 0
5, 3360, Note_on_c, 4, 58, 0
5, 3364, Note_on_c, 4, 55, 0
5, 3462, Pitch_bend_c, 4, 8192
5, 3462, Note_on_c, 4, 56, 100
5, 3462, Pitch_bend_c, 4, 8304
5, 3462, Pitch_bend_c, 4, 8192
5, 3462, Note_on_c, 4, 53, 100
5, 3464, Pitch_bend_c, 4, 8192
5, 3464, Note_on_c, 4, 61, 100
5, 3466, Pitch_bend_c, 4, 8192
5, 3466, Note_on_c, 4, 65, 100
5, 3638, Pitch_bend_c, 4, 8192
5, 3736, Note_on_c, 4, 56, 0
5, 3740, Note_on_c, 4, 65, 0
5, 3744, Note_on_c, 4, 61, 0
5, 3748, Note_on_c, 4, 53, 0
5, 3840, Pitch_bend_c, 4, 8192
5, 3840, Pitch_bend_c, 4, 8022
5, 3842, Pitch_bend_c, 4, 8064
5, 3844, Pitch_bend_c, 4, 8192
5, 3844, Note_on_c, 4, 57, 100
5, 3846, Pitch_bend_c, 4, 8192
5, 3848, Note_on_c, 4, 60, 100
5, 3848, Pitch_bend_c, 4, 8192
5, 3848, Note_on_c, 4, 65, 100
5, 3852, Pitch_bend_c, 4, 8192
5, 3852, Note_on_c, 4, 53, 100
5, 4016, Control_c, 4, 7, 126
5, 4024, Control_c, 4, 7, 124
5, 4036, Control_c, 4, 7, 122
5, 4048, Control_c, 4, 7, 120
5, 4056, Control_c, 4, 7, 118
5, 4068, Control_c, 4, 7, 116
5, 4080, Control_c, 4, 7, 114
5, 4092, Control_c, 4, 7, 112
5, 4104, Control_c, 4, 7, 110
5, 4112, Control_c, 4, 7, 108
5, 4124, Control_c, 4, 7, 106
5, 4136, Control_c, 4, 7, 104
5, 4148, Control_c, 4, 7, 102
5, 4160, Control_c, 4, 7, 100
5, 4172, Control_c, 4, 7, 98
5, 4180, Control_c, 4, 7, 96
5, 4192, Control_c, 4, 7, 94
5, 4204, Control_c, 4, 7, 92
5, 4216, Control_c, 4, 7, 90
5, 4228, Control_c, 4, 7, 88
5, 4240, Control_c, 4, 7, 86
5, 4248, Control_c, 4, 7, 84
5, 4260, Control_c, 4, 7, 82
5, 4272, Control_c, 4, 7, 80
5, 4284, Control_c, 4, 7, 78
5, 4296, Control_c, 4, 7, 76
5, 4304, Control_c, 4, 7, 74
5, 4316, Control_c, 4, 7, 72
5, 4328, Control_c, 4, 7, 70
5, 4340, Control_c, 4, 7, 68
5, 4352, Control_c, 4, 7, 66
5, 4364, Control_c, 4, 7, 64
5, 4372, Control_c, 4, 7, 62
5, 4384, Control_c, 4, 7, 60
5, 4396, Control_c, 4, 7, 58
5, 4408, Control_c, 4, 7, 56
5, 4420, Control_c, 4, 7, 54
5, 4428, Control_c, 4, 7, 52
5, 4440, Control_c, 4, 7, 50
5, 4452, Control_c, 4, 7, 48
5, 4464, Control_c, 4, 7, 46
5, 4476, Control_c, 4, 7, 44
5, 4488, Control_c, 4, 7, 42
5, 4496, Control_c, 4, 7, 40
5, 4508, Control_c, 4, 7, 38
5, 4520, Control_c, 4, 7, 36
5, 4532, Control_c, 4, 7, 34
5, 4544, Control_c, 4, 7, 32
5, 4556, Control_c, 4, 7, 30
5, 4564, Control_c, 4, 7, 28
5, 4576, Control_c, 4, 7, 26
5, 4588, Control_c, 4, 7, 24
5, 4600, Control_c, 4, 7, 22
5, 4612, Control_c, 4, 7, 20
5, 4620, Control_c, 4, 7, 18
5, 4632, Control_c, 4, 7, 16
5, 4636, Note_on_c, 4, 57, 0
5, 4644, Control_c, 4, 7, 14
5, 4644, Note_on_c, 4, 53, 0
5, 4644, Note_on_c, 4, 65, 0
5, 4652, Pitch_bend_c, 4, 8192
5, 4652, Note_on_c, 4, 60, 0
5, 4700, Control_c, 4, 7, 12
5, 4796, Control_c, 4, 7, 10
5, 4844, Control_c, 4, 7, 8
5, 5250, Control_c, 4, 7, 10
5, 5256, Control_c, 4, 7, 12
5, 5262, Control_c, 4, 7, 14
5, 5266, Control_c, 4, 7, 16
5, 5272, Control_c, 4, 7, 18
5, 5276, Control_c, 4, 7, 20
5, 5280, Control_c, 4, 7, 22
5, 5282, Control_c, 4, 7, 24
5, 5286, Control_c, 4, 7, 26
5, 5288, Control_c, 4, 7, 28
5, 5292, Control_c, 4, 7, 30
5, 5294, Control_c, 4, 7, 32
5, 5298, Control_c, 4, 7, 34
5, 5302, Control_c, 4, 7, 36
5, 5304, Control_c, 4, 7, 38
5, 5306, Control_c, 4, 7, 40
5, 5310, Control_c, 4, 7, 42
5, 5312, Control_c, 4, 7, 44
5, 5314, Control_c, 4, 7, 46
5, 5316, Control_c, 4, 7, 48
5, 5318, Control_c, 4, 7, 50
5, 5320, Control_c, 4, 7, 52
5, 5324, Control_c, 4, 7, 54
5, 5326, Control_c, 4, 7, 56
5, 5328, Control_c, 4, 7, 58
5, 5330, Control_c, 4, 7, 62
5, 5332, Control_c, 4, 7, 64
5, 5334, Control_c, 4, 7, 66
5, 5338, Control_c, 4, 7, 70
5, 5340, Control_c, 4, 7, 72
5, 5342, Control_c, 4, 7, 74
5, 5344, Control_c, 4, 7, 76
5, 5346, Control_c, 4, 7, 78
5, 5348, Control_c, 4, 7, 80
5, 5352, Control_c, 4, 7, 84
5, 5354, Control_c, 4, 7, 94
5, 5356, Control_c, 4, 7, 96
5, 5358, Control_c, 4, 7, 98
5, 5360, Control_c, 4, 7, 108
5, 5362, Control_c, 4, 7, 110
5, 5366, Control_c, 4, 7, 112
5, 5368, Control_c, 4, 7, 114
5, 5370, Control_c, 4, 7, 116
5, 5372, Control_c, 4, 7, 126
5, 5374, Control_c, 4, 7, 127
5, 16798, Note_on_c, 4, 69, 76
5, 16800, Note_on_c, 4, 65, 78
5, 16800, Note_on_c, 4, 77, 78
5, 16822, Note_on_c, 4, 77, 0
5, 16822, Note_on_c, 4, 65, 0
5, 16822, Note_on_c, 4, 69, 0
5, 16824, Note_on_c, 4, 79, 90
5, 16826, Note_on_c, 4, 67, 90
5, 16826, Note_on_c, 4, 70, 90
5, 16848, Note_on_c, 4, 68, 102
5, 16848, Note_on_c, 4, 72, 102
5, 16848, Note_on_c, 4, 79, 0
5, 16850, Note_on_c, 4, 80, 102
5, 16852, Note_on_c, 4, 70, 0
5, 16854, Note_on_c, 4, 67, 0
5, 16870, Note_on_c, 4, 69, 112
5, 16870, Note_on_c, 4, 80, 0
5, 16872, Note_on_c, 4, 72, 0
5, 16874, Note_on_c, 4, 81, 114
5, 16874, Note_on_c, 4, 73, 114
5, 16874, Note_on_c, 4, 68, 0
5, 16894, Note_on_c, 4, 69, 0
5, 16898, Note_on_c, 4, 81, 0
5, 16898, Note_on_c, 4, 73, 0
5, 16900, Note_on_c, 4, 74, 116
5, 16904, Note_on_c, 4, 70, 116
5, 16904, Note_on_c, 4, 82, 116
5, 17266, Note_on_c, 4, 82, 0
5, 17266, Note_on_c, 4, 70, 0
5, 17272, Note_on_c, 4, 74, 0
5, 17284, Note_on_c, 4, 72, 116
5, 17284, Note_on_c, 4, 84, 116
5, 17288, Note_on_c, 4, 76, 116
5, 17452, Note_on_c, 4, 84, 0
5, 17458, Note_on_c, 4, 76, 0
5, 17458, Note_on_c, 4, 72, 0
5, 17476, Note_on_c, 4, 82, 116
5, 17476, Note_on_c, 4, 74, 116
5, 17476, Note_on_c, 4, 70, 116
5, 17650, Note_on_c, 4, 74, 0
5, 17658, Note_on_c, 4, 82, 0
5, 17664, Note_on_c, 4, 70, 0
5, 17668, Note_on_c, 4, 72, 116
5, 17670, Note_on_c, 4, 69, 116
5, 17672, Note_on_c, 4, 81, 116
5, 18022, Note_on_c, 4, 81, 0
5, 18030, Note_on_c, 4, 69, 0
5, 18036, Note_on_c, 4, 72, 0
5, 18050, Note_on_c, 4, 70, 116
5, 18050, Note_on_c, 4, 74, 116
5, 18052, Note_on_c, 4, 82, 116
5, 18230, Note_on_c, 4, 70, 0
5, 18232, Note_on_c, 4, 74, 0
5, 18234, Note_on_c, 4, 82, 0
5, 18244, Note_on_c, 4, 69, 116
5, 18246, Note_on_c, 4, 72, 116
5, 18250, Note_on_c, 4, 81, 116
5, 18416, Note_on_c, 4, 81, 0
5, 18418, Note_on_c, 4, 72, 0
5, 18418, Note_on_c, 4, 69, 0
5, 18440, Note_on_c, 4, 79, 116
5, 18442, Note_on_c, 4, 67, 116
5, 18444, Note_on_c, 4, 70, 116
5, 18788, Note_on_c, 4, 79, 0
5, 18802, Note_on_c, 4, 70, 0
5, 18806, Note_on_c, 4, 67, 0
5, 18822, Note_on_c, 4, 69, 116
5, 18824, Note_on_c, 4, 64, 116
5, 18824, Note_on_c, 4, 79, 116
5, 19162, Note_on_c, 4, 79, 0
5, 19172, Note_on_c, 4, 64, 0
5, 19204, Note_on_c, 4, 74, 102
5, 19206, Note_on_c, 4, 62, 102
5, 19266, Note_on_c, 4, 69, 0
5, 19270, Note_on_c, 4, 74, 0
5, 19302, Note_on_c, 4, 65, 104
5, 19308, Note_on_c, 4, 69, 104
5, 19338, Note_on_c, 4, 65, 0
5, 19344, Note_on_c, 4, 69, 0
5, 19348, Note_on_c, 4, 64, 106
5, 19354, Note_on_c, 4, 68, 106
5, 19388, Note_on_c, 4, 68, 0
5, 19388, Note_on_c, 4, 64, 0
5, 19394, Note_on_c, 4, 65, 106
5, 19398, Note_on_c, 4, 69, 106
5, 19448, Note_on_c, 4, 69, 0
5, 19452, Note_on_c, 4, 65, 0
5, 19458, Note_on_c, 4, 62, 0
5, 19492, Note_on_c, 4, 69, 108
5, 19494, Note_on_c, 4, 65, 108
5, 19494, Note_on_c, 4, 74, 108
5, 19526, Note_on_c, 4, 74, 0
5, 19528, Note_on_c, 4, 69, 0
5, 19532, Note_on_c, 4, 65, 0
5, 19536, Note_on_c, 4, 68, 108
5, 19538, Note_on_c, 4, 73, 108
5, 19540, Note_on_c, 4, 64, 108
5, 19574, Note_on_c, 4, 68, 0
5, 19576, Note_on_c, 4, 64, 0
5, 19576, Note_on_c, 4, 73, 0
5, 19582, Note_on_c, 4, 69, 110
5, 19584, Note_on_c, 4, 65, 110
5, 19586, Note_on_c, 4, 74, 110
5, 19626, Note_on_c, 4, 65, 0
5, 19630, Note_on_c, 4, 74, 0
5, 19632, Note_on_c, 4, 69, 0
5, 19684, Note_on_c, 4, 74, 110
5, 19686, Note_on_c, 4, 69, 110
5, 19688, Note_on_c, 4, 77, 110
5, 19718, Note_on_c, 4, 69, 0
5, 19722, Note_on_c, 4, 74, 0
5, 19724, Note_on_c, 4, 77, 0
5, 19726, Note_on_c, 4, 73, 112
5, 19728, Note_on_c, 4, 68, 112
5, 19734, Note_on_c, 4, 76, 112
5, 19766, Note_on_c, 4, 68, 0
5, 19768, Note_on_c, 4, 73, 0
5, 19770, Note_on_c, 4, 76, 0
5, 19776, Note_on_c, 4, 69, 127
5, 19778, Note_on_c, 4, 74, 127
5, 19780, Note_on_c, 4, 77, 127
5, 19818, Note_on_c, 4, 74, 0
5, 19820, Note_on_c, 4, 69, 0
5, 19824, Note_on_c, 4, 77, 0
5, 19830, Note_on_c, 4, 72, 127
5, 19834, Note_on_c, 4, 60, 127
5, 19836, Note_on_c, 4, 76, 127
5, 19952, Note_on_c, 4, 72, 0
5, 19954, Note_on_c, 4, 60, 0
5, 19956, Note_on_c, 4, 76, 0
5, 19966, Note_on_c, 4, 70, 112
5, 19972, Note_on_c, 4, 65, 112
5, 19972, Note_on_c, 4, 74, 112
5, 20244, Note_on_c, 4, 70, 0
5, 20246, Note_on_c, 4, 65, 0
5, 20262, Note_on_c, 4, 72, 112
5, 20266, Note_on_c, 4, 69, 112
5, 20298, Note_on_c, 4, 69, 0
5, 20300, Note_on_c, 4, 72, 0
5, 20302, Note_on_c, 4, 74, 0
5, 20308, Note_on_c, 4, 70, 118
5, 20312, Note_on_c, 4, 74, 118
5, 20350, Note_on_c, 4, 74, 0
5, 20350, Note_on_c, 4, 70, 0
5, 20358, Note_on_c, 4, 72, 118
5, 20358, Note_on_c, 4, 76, 118
5, 20360, Note_on_c, 4, 84, 118
5, 20532, Note_on_c, 4, 84, 0
5, 20532, Note_on_c, 4, 76, 0
5, 20534, Note_on_c, 4, 72, 0
5, 20546, Note_on_c, 4, 74, 118
5, 20552, Note_on_c, 4, 82, 118
5, 20554, Note_on_c, 4, 70, 118
5, 20630, Note_on_c, 4, 74, 0
5, 20634, Note_on_c, 4, 82, 0
5, 20636, Note_on_c, 4, 70, 0
5, 20642, Note_on_c, 4, 76, 118
5, 20646, Note_on_c, 4, 84, 118
5, 20648, Note_on_c, 4, 72, 118
5, 20674, Note_on_c, 4, 76, 0
5, 20678, Note_on_c, 4, 72, 0
5, 20678, Note_on_c, 4, 84, 0
5, 20686, Note_on_c, 4, 74, 118
5, 20688, Note_on_c, 4, 82, 118
5, 20692, Note_on_c, 4, 70, 118
5, 20726, Note_on_c, 4, 74, 0
5, 20728, Note_on_c, 4, 82, 0
5, 20730, Note_on_c, 4, 70, 0
5, 20740, Note_on_c, 4, 72, 118
5, 20740, Note_on_c, 4, 81, 118
5, 20742, Note_on_c, 4, 69, 118
5, 21004, Note_on_c, 4, 81, 0
5, 21006, Note_on_c, 4, 69, 0
5, 21014, Note_on_c, 4, 72, 0
5, 21022, Note_on_c, 4, 67, 118
5, 21024, Note_on_c, 4, 70, 118
5, 21026, Note_on_c, 4, 79, 118
5, 21052, Note_on_c, 4, 67, 0
5, 21058, Note_on_c, 4, 79, 0
5, 21060, Note_on_c, 4, 70, 0
5, 21068, Note_on_c, 4, 69, 118
5, 21070, Note_on_c, 4, 72, 118
5, 21070, Note_on_c, 4, 81, 118
5, 21104, Note_on_c, 4, 72, 0
5, 21106, Note_on_c, 4, 69, 0
5, 21110, Note_on_c, 4, 81, 0
5, 21116, Note_on_c, 4, 74, 118
5, 21118, Note_on_c, 4, 70, 118
5, 21122, Note_on_c, 4, 82, 118
5, 21298, Note_on_c, 4, 70, 0
5, 21300, Note_on_c, 4, 74, 0
5, 21304, Note_on_c, 4, 82, 0
5, 21310, Note_on_c, 4, 69, 118
5, 21312, Note_on_c, 4, 72, 118
5, 21320, Note_on_c, 4, 81, 118
5, 21398, Note_on_c, 4, 72, 0
5, 21400, Note_on_c, 4, 81, 0
5, 21404, Note_on_c, 4, 69, 0
5, 21410, Note_on_c, 4, 74, 120
5, 21410, Note_on_c, 4, 82, 120
5, 21416, Note_on_c, 4, 70, 120
5, 21440, Note_on_c, 4, 82, 0
5, 21442, Note_on_c, 4, 74, 0
5, 21446, Note_on_c, 4, 70, 0
5, 21448, Note_on_c, 4, 72, 120
5, 21452, Note_on_c, 4, 81, 120
5, 21454, Note_on_c, 4, 69, 120
5, 21492, Note_on_c, 4, 69, 0
5, 21494, Note_on_c, 4, 72, 0
5, 21496, Note_on_c, 4, 81, 0
5, 21502, Note_on_c, 4, 70, 120
5, 21506, Note_on_c, 4, 67, 120
5, 21508, Note_on_c, 4, 79, 120
5, 21774, Note_on_c, 4, 70, 0
5, 21776, Note_on_c, 4, 79, 0
5, 21780, Note_on_c, 4, 67, 0
5, 21794, Note_on_c, 4, 74, 120
5, 21796, Note_on_c, 4, 69, 120
5, 21798, Note_on_c, 4, 81, 120
5, 21824, Note_on_c, 4, 69, 0
5, 21826, Note_on_c, 4, 81, 0
5, 21828, Note_on_c, 4, 74, 0
5, 21838, Note_on_c, 4, 72, 120
5, 21838, Note_on_c, 4, 67, 120
5, 21840, Note_on_c, 4, 79, 120
5, 21878, Note_on_c, 4, 67, 0
5, 21880, Note_on_c, 4, 79, 0
5, 21884, Note_on_c, 4, 72, 0
5, 21890, Note_on_c, 4, 70, 120
5, 21898, Note_on_c, 4, 65, 120
5, 21900, Note_on_c, 4, 77, 120
5, 22132, Note_on_c, 4, 77, 0
5, 22154, Note_on_c, 4, 70, 0
5, 22174, Note_on_c, 4, 82, 120
5, 22174, Note_on_c, 4, 72, 120
5, 22210, Note_on_c, 4, 82, 0
5, 22212, Note_on_c, 4, 72, 0
5, 22224, Note_on_c, 4, 70, 120
5, 22228, Note_on_c, 4, 79, 120
5, 22266, Note_on_c, 4, 70, 0
5, 22268, Note_on_c, 4, 79, 0
5, 22270, Note_on_c, 4, 69, 120
5, 22284, Note_on_c, 4, 77, 120
5, 23016, Note_on_c, 4, 77, 0
5, 23020, Note_on_c, 4, 69, 0
5, 23036, Note_on_c, 4, 65, 0
5, 28528, Note_on_c, 4, 67, 127
5, 28532, Note_on_c, 4, 71, 127
5, 28566, Note_on_c, 4, 67, 0
5, 28572, Note_on_c, 4, 71, 0
5, 28576, Note_on_c, 4, 66, 77
5, 28584, Note_on_c, 4, 70, 89
5, 28612, Note_on_c, 4, 66, 0
5, 28620, Note_on_c, 4, 70, 0
5, 28622, Note_on_c, 4, 67, 127
5, 28628, Note_on_c, 4, 71, 127
5, 28668, Note_on_c, 4, 67, 0
5, 28670, Note_on_c, 4, 71, 0
5, 28708, Note_on_c, 4, 71, 127
5, 28722, Note_on_c, 4, 74, 127
5, 28746, Note_on_c, 4, 71, 0
5, 28756, Note_on_c, 4, 70, 94
5, 28760, Note_on_c, 4, 74, 0
5, 28772, Note_on_c, 4, 73, 87
5, 28794, Note_on_c, 4, 70, 0
5, 28804, Note_on_c, 4, 71, 127
5, 28806, Note_on_c, 4, 73, 0
5, 28816, Note_on_c, 4, 74, 127
5, 28846, Note_on_c, 4, 71, 0
5, 28848, Note_on_c, 4, 74, 0
5, 28900, Note_on_c, 4, 74, 127
5, 28906, Note_on_c, 4, 79, 127
5, 28932, Note_on_c, 4, 74, 0
5, 28946, Note_on_c, 4, 73, 105
5, 28946, Note_on_c, 4, 79, 0
5, 28954, Note_on_c, 4, 78, 101
5, 28984, Note_on_c, 4, 73, 0
5, 28988, Note_on_c, 4, 78, 0
5, 28996, Note_on_c, 4, 74, 127
5, 28998, Note_on_c, 4, 79, 127
5, 29036, Note_on_c, 4, 79, 0
5, 29040, Note_on_c, 4, 74, 0
5, 29094, Note_on_c, 4, 79, 127
5, 29100, Note_on_c, 4, 83, 127
5, 29128, Note_on_c, 4, 79, 0
5, 29132, Note_on_c, 4, 83, 0
5, 29140, Note_on_c, 4, 78, 111
5, 29144, Note_on_c, 4, 82, 106
5, 29176, Note_on_c, 4, 78, 0
5, 29180, Note_on_c, 4, 82, 0
5, 29186, Note_on_c, 4, 79, 127
5, 29190, Note_on_c, 4, 83, 127
5, 29224, Note_on_c, 4, 79, 0
5, 29234, Note_on_c, 4, 83, 0
5, 29286, Note_on_c, 4, 79, 127
5, 29292, Note_on_c, 4, 83, 127
5, 29322, Note_on_c, 4, 79, 0
5, 29340, Note_on_c, 4, 83, 0
5, 29380, Note_on_c, 4, 79, 127
5, 29384, Note_on_c, 4, 83, 127
5, 29416, Note_on_c, 4, 79, 0
5, 29424, Note_on_c, 4, 81, 123
5, 29426, Note_on_c, 4, 83, 0
5, 29428, Note_on_c, 4, 84, 56
5, 29460, Note_on_c, 4, 81, 0
5, 29470, Note_on_c, 4, 83, 127
5, 29470, Note_on_c, 4, 84, 0
5, 29476, Note_on_c, 4, 86, 127
5, 29506, Note_on_c, 4, 86, 0
5, 29508, Note_on_c, 4, 83, 0
5, 29526, Note_on_c, 4, 84, 87
5, 29558, Note_on_c, 4, 84, 0
5, 29574, Note_on_c, 4, 84, 127
5, 29576, Note_on_c, 4, 67, 87
5, 29582, Note_on_c, 4, 88, 127
5, 29750, Note_on_c, 4, 84, 0
5, 29756, Note_on_c, 4, 88, 0
5, 29762, Note_on_c, 4, 83, 127
5, 29774, Note_on_c, 4, 86, 127
5, 29936, Note_on_c, 4, 83, 0
5, 29942, Note_on_c, 4, 86, 0
5, 29944, Note_on_c, 4, 67, 0
5, 29950, Note_on_c, 4, 81, 127
5, 29958, Note_on_c, 4, 66, 87
5, 29962, Note_on_c, 4, 84, 123
5, 29984, Note_on_c, 4, 81, 0
5, 29990, Note_on_c, 4, 66, 0
5, 29996, Note_on_c, 4, 79, 101
5, 30000, Note_on_c, 4, 84, 0
5, 30004, Note_on_c, 4, 64, 66
5, 30010, Note_on_c, 4, 83, 113
5, 30034, Note_on_c, 4, 79, 0
5, 30040, Note_on_c, 4, 83, 0
5, 30042, Note_on_c, 4, 78, 127
5, 30046, Note_on_c, 4, 64, 0
5, 30048, Note_on_c, 4, 62, 62
5, 30056, Note_on_c, 4, 81, 127
5, 30294, Note_on_c, 4, 81, 0
5, 30300, Note_on_c, 4, 78, 0
5, 30306, Note_on_c, 4, 62, 0
5, 30338, Note_on_c, 4, 83, 127
5, 30342, Note_on_c, 4, 67, 87
5, 30344, Note_on_c, 4, 86, 127
5, 30514, Note_on_c, 4, 67, 0
5, 30520, Note_on_c, 4, 83, 0
5, 30522, Note_on_c, 4, 86, 0
5, 30528, Note_on_c, 4, 65, 84
5, 30536, Note_on_c, 4, 81, 127
5, 30540, Note_on_c, 4, 84, 127
5, 30696, Note_on_c, 4, 65, 0
5, 30708, Note_on_c, 4, 84, 0
5, 30714, Note_on_c, 4, 81, 0
5, 30718, Note_on_c, 4, 64, 87
5, 30722, Note_on_c, 4, 79, 127
5, 30722, Note_on_c, 4, 83, 127
5, 30962, Note_on_c, 4, 79, 0
5, 30990, Note_on_c, 4, 83, 0
5, 31006, Note_on_c, 4, 86, 127
5, 31008, Note_on_c, 4, 83, 127
5, 31064, Note_on_c, 4, 64, 0
5, 31100, Note_on_c, 4, 83, 0
5, 31102, Note_on_c, 4, 86, 0
5, 31108, Note_on_c, 4, 69, 87
5, 31112, Note_on_c, 4, 81, 127
5, 31116, Note_on_c, 4, 84, 127
5, 31354, Note_on_c, 4, 81, 0
5, 31376, Note_on_c, 4, 84, 0
5, 31386, Note_on_c, 4, 83, 127
5, 31394, Note_on_c, 4, 79, 127
5, 31434, Note_on_c, 4, 69, 0
5, 31454, Note_on_c, 4, 79, 0
5, 31468, Note_on_c, 4, 83, 0
5, 31482, Note_on_c, 4, 62, 55
5, 31496, Note_on_c, 4, 78, 127
5, 31496, Note_on_c, 4, 81, 127
5, 31760, Note_on_c, 4, 78, 0
5, 31764, Note_on_c, 4, 62, 0
5, 31784, Note_on_c, 4, 76, 127
5, 31788, Note_on_c, 4, 79, 127
5, 31788, Note_on_c, 4, 62, 87
5, 31816, Note_on_c, 4, 81, 0
5, 31818, Note_on_c, 4, 76, 0
5, 31818, Note_on_c, 4, 79, 0
5, 31820, Note_on_c, 4, 62, 0
5, 31826, Note_on_c, 4, 78, 108
5, 31830, Note_on_c, 4, 62, 50
5, 31832, Note_on_c, 4, 81, 99
5, 31864, Note_on_c, 4, 78, 0
5, 31868, Note_on_c, 4, 81, 0
5, 31872, Note_on_c, 4, 78, 127
5, 31874, Note_on_c, 4, 62, 0
5, 31878, Note_on_c, 4, 81, 127
5, 31882, Note_on_c, 4, 62, 87
5, 31926, Note_on_c, 4, 78, 0
5, 31930, Note_on_c, 4, 81, 0
5, 31936, Note_on_c, 4, 62, 0
5, 31968, Note_on_c, 4, 78, 127
5, 31974, Note_on_c, 4, 62, 68
5, 31974, Note_on_c, 4, 81, 117
5, 32006, Note_on_c, 4, 78, 0
5, 32010, Note_on_c, 4, 81, 0
5, 32014, Note_on_c, 4, 78, 118
5, 32018, Note_on_c, 4, 81, 115
5, 32054, Note_on_c, 4, 78, 0
5, 32056, Note_on_c, 4, 81, 0
5, 32062, Note_on_c, 4, 79, 127
5, 32066, Note_on_c, 4, 83, 120
5, 32068, Note_on_c, 4, 62, 0
5, 32074, Note_on_c, 4, 64, 64
5, 32096, Note_on_c, 4, 83, 0
5, 32096, Note_on_c, 4, 79, 0
5, 32102, Note_on_c, 4, 64, 0
5, 32110, Note_on_c, 4, 78, 89
5, 32114, Note_on_c, 4, 81, 88
5, 32116, Note_on_c, 4, 62, 63
5, 32146, Note_on_c, 4, 78, 0
5, 32148, Note_on_c, 4, 81, 0
5, 32156, Note_on_c, 4, 76, 127
5, 32160, Note_on_c, 4, 79, 115
5, 32192, Note_on_c, 4, 76, 0
5, 32194, Note_on_c, 4, 79, 0
5, 32202, Note_on_c, 4, 78, 114
5, 32206, Note_on_c, 4, 81, 103
5, 32238, Note_on_c, 4, 81, 0
5, 32238, Note_on_c, 4, 78, 0
5, 32250, Note_on_c, 4, 62, 0
5, 32254, Note_on_c, 4, 79, 127
5, 32254, Note_on_c, 4, 83, 106
5, 32258, Note_on_c, 4, 64, 52
5, 32290, Note_on_c, 4, 83, 0
5, 32292, Note_on_c, 4, 64, 0
5, 32294, Note_on_c, 4, 81, 127
5, 32294, Note_on_c, 4, 79, 0
5, 32298, Note_on_c, 4, 84, 85
5, 32300, Note_on_c, 4, 66, 68
5, 32330, Note_on_c, 4, 84, 0
5, 32330, Note_on_c, 4, 81, 0
5, 32338, Note_on_c, 4, 66, 0
5, 32340, Note_on_c, 4, 83, 127
5, 32346, Note_on_c, 4, 67, 80
5, 32346, Note_on_c, 4, 86, 115
5, 32382, Note_on_c, 4, 67, 0
5, 32384, Note_on_c, 4, 78, 127
5, 32386, Note_on_c, 4, 62, 45
5, 32386, Note_on_c, 4, 86, 0
5, 32386, Note_on_c, 4, 83, 0
5, 32390, Note_on_c, 4, 81, 120
5, 32434, Note_on_c, 4, 81, 0
5, 32438, Note_on_c, 4, 78, 0
5, 32444, Note_on_c, 4, 79, 104
5, 32446, Note_on_c, 4, 83, 99
5, 32480, Note_on_c, 4, 83, 0
5, 32484, Note_on_c, 4, 79, 0
5, 32488, Note_on_c, 4, 84, 100
5, 32488, Note_on_c, 4, 62, 0
5, 32490, Note_on_c, 4, 81, 112
5, 32496, Note_on_c, 4, 64, 51
5, 32526, Note_on_c, 4, 84, 0
5, 32530, Note_on_c, 4, 81, 0
5, 32536, Note_on_c, 4, 64, 0
5, 32540, Note_on_c, 4, 83, 127
5, 32542, Note_on_c, 4, 86, 108
5, 32548, Note_on_c, 4, 66, 87
5, 32622, Note_on_c, 4, 86, 0
5, 32624, Note_on_c, 4, 83, 0
5, 32632, Note_on_c, 4, 88, 127
5, 32632, Note_on_c, 4, 66, 0
5, 32634, Note_on_c, 4, 84, 127
5, 32644, Note_on_c, 4, 67, 87
5, 32820, Note_on_c, 4, 84, 0
5, 32820, Note_on_c, 4, 88, 0
5, 32828, Note_on_c, 4, 83, 127
5, 32828, Note_on_c, 4, 86, 127
5, 32988, Note_on_c, 4, 67, 0
5, 32998, Note_on_c, 4, 86, 0
5, 33004, Note_on_c, 4, 83, 0
5, 33022, Note_on_c, 4, 81, 127
5, 33024, Note_on_c, 4, 66, 87
5, 33024, Note_on_c, 4, 84, 127
5, 33062, Note_on_c, 4, 84, 0
5, 33064, Note_on_c, 4, 81, 0
5, 33066, Note_on_c, 4, 66, 0
5, 33068, Note_on_c, 4, 79, 121
5, 33068, Note_on_c, 4, 64, 67
5, 33072, Note_on_c, 4, 83, 87
5, 33110, Note_on_c, 4, 79, 0
5, 33112, Note_on_c, 4, 78, 127
5, 33112, Note_on_c, 4, 83, 0
5, 33116, Note_on_c, 4, 64, 0
5, 33118, Note_on_c, 4, 81, 97
5, 33118, Note_on_c, 4, 62, 57
5, 33378, Note_on_c, 4, 81, 0
5, 33378, Note_on_c, 4, 78, 0
5, 33382, Note_on_c, 4, 62, 0
5, 33414, Note_on_c, 4, 86, 127
5, 33416, Note_on_c, 4, 83, 127
5, 33416, Note_on_c, 4, 67, 87
5, 33586, Note_on_c, 4, 86, 0
5, 33588, Note_on_c, 4, 67, 0
5, 33590, Note_on_c, 4, 83, 0
5, 33606, Note_on_c, 4, 81, 127
5, 33608, Note_on_c, 4, 84, 127
5, 33612, Note_on_c, 4, 65, 87
5, 33772, Note_on_c, 4, 84, 0
5, 33782, Note_on_c, 4, 81, 0
5, 33788, Note_on_c, 4, 65, 0
5, 33790, Note_on_c, 4, 83, 127
5, 33792, Note_on_c, 4, 79, 127
5, 33798, Note_on_c, 4, 64, 87
5, 34058, Note_on_c, 4, 83, 0
5, 34078, Note_on_c, 4, 86, 127
5, 34136, Note_on_c, 4, 64, 0
5, 34136, Note_on_c, 4, 79, 0
5, 34166, Note_on_c, 4, 86, 0
5, 34178, Note_on_c, 4, 81, 127
5, 34180, Note_on_c, 4, 69, 87
5, 34182, Note_on_c, 4, 84, 127
5, 34442, Note_on_c, 4, 81, 0
5, 34448, Note_on_c, 4, 84, 0
5, 34456, Note_on_c, 4, 69, 0
5, 34458, Note_on_c, 4, 79, 127
5, 34464, Note_on_c, 4, 83, 127
5, 34466, Note_on_c, 4, 71, 87
5, 34556, Note_on_c, 4, 83, 0
5, 34556, Note_on_c, 4, 79, 0
5, 34558, Note_on_c, 4, 71, 0
5, 34562, Note_on_c, 4, 78, 127
5, 34564, Note_on_c, 4, 81, 127
5, 34566, Note_on_c, 4, 62, 86
5, 34714, Note_on_c, 4, 78, 0
5, 34722, Note_on_c, 4, 76, 127
5, 34762, Note_on_c, 4, 74, 127
5, 34762, Note_on_c, 4, 76, 0
5, 35276, Note_on_c, 4, 62, 0
5, 35280, Note_on_c, 4, 81, 0
5, 35288, Note_on_c, 4, 74, 0
5, 37538, Note_on_c, 4, 79, 127
5, 37544, Note_on_c, 4, 71, 124
5, 37544, Note_on_c, 4, 83, 124
5, 37628, Note_on_c, 4, 79, 0
5, 37630, Note_on_c, 4, 83, 0
5, 37630, Note_on_c, 4, 71, 0
5, 37638, Note_on_c, 4, 78, 127
5, 37642, Note_on_c, 4, 69, 111
5, 37642, Note_on_c, 4, 81, 111
5, 37812, Note_on_c, 4, 81, 0
5, 37812, Note_on_c, 4, 69, 0
5, 37822, Note_on_c, 4, 78, 0
5, 37826, Note_on_c, 4, 71, 127
5, 37826, Note_on_c, 4, 83, 127
5, 37832, Note_on_c, 4, 79, 127
5, 37858, Note_on_c, 4, 83, 0
5, 37858, Note_on_c, 4, 71, 0
5, 37864, Note_on_c, 4, 79, 0
5, 37872, Note_on_c, 4, 69, 88
5, 37872, Note_on_c, 4, 81, 88
5, 37874, Note_on_c, 4, 78, 110
5, 37904, Note_on_c, 4, 81, 0
5, 37904, Note_on_c, 4, 69, 0
5, 37912, Note_on_c, 4, 78, 0
5, 37924, Note_on_c, 4, 76, 127
5, 37924, Note_on_c, 4, 67, 127
5, 37924, Note_on_c, 4, 79, 127
5, 37952, Note_on_c, 4, 76, 0
5, 37954, Note_on_c, 4, 79, 0
5, 37954, Note_on_c, 4, 67, 0
5, 37964, Note_on_c, 4, 69, 109
5, 37964, Note_on_c, 4, 81, 109
5, 37966, Note_on_c, 4, 78, 120
5, 38004, Note_on_c, 4, 78, 0
5, 38008, Note_on_c, 4, 81, 0
5, 38008, Note_on_c, 4, 69, 0
5, 38016, Note_on_c, 4, 78, 127
5, 38018, Note_on_c, 4, 69, 127
5, 38018, Note_on_c, 4, 81, 127
5, 38150, Note_on_c, 4, 81, 0
5, 38150, Note_on_c, 4, 69, 0
5, 38152, Note_on_c, 4, 78, 0
5, 38154, Note_on_c, 4, 78, 126
5, 38156, Note_on_c, 4, 69, 127
5, 38156, Note_on_c, 4, 81, 127
5, 38190, Note_on_c, 4, 78, 0
5, 38198, Note_on_c, 4, 81, 0
5, 38198, Note_on_c, 4, 69, 0
5, 38206, Note_on_c, 4, 79, 127
5, 38208, Note_on_c, 4, 71, 127
5, 38208, Note_on_c, 4, 83, 127
5, 38236, Note_on_c, 4, 83, 0
5, 38236, Note_on_c, 4, 71, 0
5, 38238, Note_on_c, 4, 79, 0
5, 38248, Note_on_c, 4, 78, 106
5, 38250, Note_on_c, 4, 69, 98
5, 38250, Note_on_c, 4, 81, 98
5, 38286, Note_on_c, 4, 81, 0
5, 38286, Note_on_c, 4, 69, 0
5, 38286, Note_on_c, 4, 78, 0
5, 38298, Note_on_c, 4, 76, 127
5, 38300, Note_on_c, 4, 67, 120
5, 38300, Note_on_c, 4, 79, 120
5, 38328, Note_on_c, 4, 79, 0
5, 38328, Note_on_c, 4, 67, 0
5, 38328, Note_on_c, 4, 76, 0
5, 38340, Note_on_c, 4, 78, 106
5, 38340, Note_on_c, 4, 69, 86
5, 38340, Note_on_c, 4, 81, 86
5, 38384, Note_on_c, 4, 78, 0
5, 38388, Note_on_c, 4, 81, 0
5, 38388, Note_on_c, 4, 69, 0
5, 38392, Note_on_c, 4, 79, 127
5, 38398, Note_on_c, 4, 71, 127
5, 38398, Note_on_c, 4, 83, 127
5, 38752, Note_on_c, 4, 83, 0
5, 38756, Note_on_c, 4, 71, 0
5, 38760, Note_on_c, 4, 79, 0
5, 41374, Note_on_c, 4, 69, 76
5, 41376, Note_on_c, 4, 65, 78
5, 41376, Note_on_c, 4, 77, 78
5, 41398, Note_on_c, 4, 77, 0
5, 41398, Note_on_c, 4, 65, 0
5, 41398, Note_on_c, 4, 69, 0
5, 41400, Note_on_c, 4, 79, 90
5, 41402, Note_on_c, 4, 67, 90
5, 41402, Note_on_c, 4, 70, 90
5, 41424, Note_on_c, 4, 68, 102
5, 41424, Note_on_c, 4, 72, 102
5, 41424, Note_on_c, 4, 79, 0
5, 41426, Note_on_c, 4, 80, 102
5, 41428, Note_on_c, 4, 70, 0
5, 41430, Note_on_c, 4, 67, 0
5, 41446, Note_on_c, 4, 69, 112
5, 41446, Note_on_c, 4, 80, 0
5, 41448, Note_on_c, 4, 72, 0
5, 41450, Note_on_c, 4, 81, 114
5, 41450, Note_on_c, 4, 73, 114
5, 41450, Note_on_c, 4, 68, 0
5, 41470, Note_on_c, 4, 69, 0
5, 41474, Note_on_c, 4, 81, 0
5, 41474, Note_on_c, 4, 73, 0
5, 41476, Note_on_c, 4, 74, 116
5, 41480, Note_on_c, 4, 70, 116
5, 41480, Note_on_c, 4, 82, 116
5, 41842, Note_on_c, 4, 82, 0
5, 41842, Note_on_c, 4, 70, 0
5, 41848, Note_on_c, 4, 74, 0
5, 41860, Note_on_c, 4, 72, 116
5, 41860, Note_on_c, 4, 84, 116
5, 41864, Note_on_c, 4, 76, 116
5, 42028, Note_on_c, 4, 84, 0
5, 42034, Note_on_c, 4, 76, 0
5, 42034, Note_on_c, 4, 72, 0
5, 42052, Note_on_c, 4, 82, 116
5, 42052, Note_on_c, 4, 74, 116
5, 42052, Note_on_c, 4, 70, 116
5, 42226, Note_on_c, 4, 74, 0
5, 42234, Note_on_c, 4, 82, 0
5, 42240, Note_on_c, 4, 70, 0
5, 42244, Note_on_c, 4, 72, 116
5, 42246, Note_on_c, 4, 69, 116
5, 42248, Note_on_c, 4, 81, 116
5, 42598, Note_on_c, 4, 81, 0
5, 42606, Note_on_c, 4, 69, 0
5, 42612, Note_on_c, 4, 72, 0
5, 42626, Note_on_c, 4, 70, 116
5, 42626, Note_on_c, 4, 74, 116
5, 42628, Note_on_c, 4, 82, 116
5, 42806, Note_on_c, 4, 70, 0
5, 42808, Note_on_c, 4, 74, 0
5, 42810, Note_on_c, 4, 82, 0
5, 42820, Note_on_c, 4, 69, 116
5, 42822, Note_on_c, 4, 72, 116
5, 42826, Note_on_c, 4, 81, 116
5, 42992, Note_on_c, 4, 81, 0
5, 42994, Note_on_c, 4, 72, 0
5, 42994, Note_on_c, 4, 69, 0
5, 43016, Note_on_c, 4, 79, 116
5, 43018, Note_on_c, 4, 67, 116
5, 43020, Note_on_c, 4, 70, 116
5, 43364, Note_on_c, 4, 79, 0
5, 43378, Note_on_c, 4, 70, 0
5, 43382, Note_on_c, 4, 67, 0
5, 43398, Note_on_c, 4, 69, 116
5, 43400, Note_on_c, 4, 64, 116
5, 43400, Note_on_c, 4, 79, 116
5, 43738, Note_on_c, 4, 79, 0
5, 43748, Note_on_c, 4, 64, 0
5, 43780, Note_on_c, 4, 74, 102
5, 43782, Note_on_c, 4, 62, 102
5, 43842, Note_on_c, 4, 69, 0
5, 43846, Note_on_c, 4, 74, 0
5, 43878, Note_on_c, 4, 65, 104
5, 43884, Note_on_c, 4, 69, 104
5, 43914, Note_on_c, 4, 65, 0
5, 43920, Note_on_c, 4, 69, 0
5, 43924, Note_on_c, 4, 64, 106
5, 43930, Note_on_c, 4, 68, 106
5, 43964, Note_on_c, 4, 68, 0
5, 43964, Note_on_c, 4, 64, 0
5, 43970, Note_on_c, 4, 65, 106
5, 43974, Note_on_c, 4, 69, 106
5, 44024, Note_on_c, 4, 69, 0
5, 44028, Note_on_c, 4, 65, 0
5, 44034, Note_on_c, 4, 62, 0
5, 44068, Note_on_c, 4, 69, 108
5, 44070, Note_on_c, 4, 65, 108
5, 44070, Note_on_c, 4, 74, 108
5, 44102, Note_on_c, 4, 74, 0
5, 44104, Note_on_c, 4, 69, 0
5, 44108, Note_on_c, 4, 65, 0
5, 44112, Note_on_c, 4, 68, 108
5, 44114, Note_on_c, 4, 73, 108
5, 44116, Note_on_c, 4, 64, 108
5, 44150, Note_on_c, 4, 68, 0
5, 44152, Note_on_c, 4, 64, 0
5, 44152, Note_on_c, 4, 73, 0
5, 44158, Note_on_c, 4, 69, 110
5, 44160, Note_on_c, 4, 65, 110
5, 44162, Note_on_c, 4, 74, 110
5, 44202, Note_on_c, 4, 65, 0
5, 44206, Note_on_c, 4, 74, 0
5, 44208, Note_on_c, 4, 69, 0
5, 44260, Note_on_c, 4, 74, 110
5, 44262, Note_on_c, 4, 69, 110
5, 44264, Note_on_c, 4, 77, 110
5, 44294, Note_on_c, 4, 69, 0
5, 44298, Note_on_c, 4, 74, 0
5, 44300, Note_on_c, 4, 77, 0
5, 44302, Note_on_c, 4, 73, 112
5, 44304, Note_on_c, 4, 68, 112
5, 44310, Note_on_c, 4, 76, 112
5, 44342, Note_on_c, 4, 68, 0
5, 44344, Note_on_c, 4, 73, 0
5, 44346, Note_on_c, 4, 76, 0
5, 44352, Note_on_c, 4, 69, 127
5, 44354, Note_on_c, 4, 74, 127
5, 44356, Note_on_c, 4, 77, 127
5, 44394, Note_on_c, 4, 74, 0
5, 44396, Note_on_c, 4, 69, 0
5, 44400, Note_on_c, 4, 77, 0
5, 44406, Note_on_c, 4, 72, 127
5, 44410, Note_on_c, 4, 60, 127
5, 44412, Note_on_c, 4, 76, 127
5, 44528, Note_on_c, 4, 72, 0
5, 44530, Note_on_c, 4, 60, 0
5, 44532, Note_on_c, 4, 76, 0
5, 44542, Note_on_c, 4, 70, 112
5, 44548, Note_on_c, 4, 65, 112
5, 44548, Note_on_c, 4, 74, 112
5, 44820, Note_on_c, 4, 70, 0
5, 44822, Note_on_c, 4, 65, 0
5, 44838, Note_on_c, 4, 72, 112
5, 44842, Note_on_c, 4, 69, 112
5, 44874, Note_on_c, 4, 69, 0
5, 44876, Note_on_c, 4, 72, 0
5, 44878, Note_on_c, 4, 74, 0
5, 44884, Note_on_c, 4, 70, 118
5, 44888, Note_on_c, 4, 74, 118
5, 44926, Note_on_c, 4, 74, 0
5, 44926, Note_on_c, 4, 70, 0
5, 44934, Note_on_c, 4, 72, 118
5, 44934, Note_on_c, 4, 76, 118
5, 44936, Note_on_c, 4, 84, 118
5, 45108, Note_on_c, 4, 84, 0
5, 45108, Note_on_c, 4, 76, 0
5, 45110, Note_on_c, 4, 72, 0
5, 45122, Note_on_c, 4, 74, 118
5, 45128, Note_on_c, 4, 82, 118
5, 45130, Note_on_c, 4, 70, 118
5, 45206, Note_on_c, 4, 74, 0
5, 45210, Note_on_c, 4, 82, 0
5, 45212, Note_on_c, 4, 70, 0
5, 45218, Note_on_c, 4, 76, 118
5, 45222, Note_on_c, 4, 84, 118
5, 45224, Note_on_c, 4, 72, 118
5, 45250, Note_on_c, 4, 76, 0
5, 45254, Note_on_c, 4, 72, 0
5, 45254, Note_on_c, 4, 84, 0
5, 45262, Note_on_c, 4, 74, 118
5, 45264, Note_on_c, 4, 82, 118
5, 45268, Note_on_c, 4, 70, 118
5, 45302, Note_on_c, 4, 74, 0
5, 45304, Note_on_c, 4, 82, 0
5, 45306, Note_on_c, 4, 70, 0
5, 45316, Note_on_c, 4, 72, 118
5, 45316, Note_on_c, 4, 81, 118
5, 45318, Note_on_c, 4, 69, 118
5, 45580, Note_on_c, 4, 81, 0
5, 45582, Note_on_c, 4, 69, 0
5, 45590, Note_on_c, 4, 72, 0
5, 45598, Note_on_c, 4, 67, 118
5, 45600, Note_on_c, 4, 70, 118
5, 45602, Note_on_c, 4, 79, 118
5, 45628, Note_on_c, 4, 67, 0
5, 45634, Note_on_c, 4, 79, 0
5, 45636, Note_on_c, 4, 70, 0
5, 45644, Note_on_c, 4, 69, 118
5, 45646, Note_on_c, 4, 72, 118
5, 45646, Note_on_c, 4, 81, 118
5, 45680, Note_on_c, 4, 72, 0
5, 45682, Note_on_c, 4, 69, 0
5, 45686, Note_on_c, 4, 81, 0
5, 45692, Note_on_c, 4, 74, 118
5, 45694, Note_on_c, 4, 70, 118
5, 45698, Note_on_c, 4, 82, 118
5, 45874, Note_on_c, 4, 70, 0
5, 45876, Note_on_c, 4, 74, 0
5, 45880, Note_on_c, 4, 82, 0
5, 45886, Note_on_c, 4, 69, 118
5, 45888, Note_on_c, 4, 72, 118
5, 45896, Note_on_c, 4, 81, 118
5, 45974, Note_on_c, 4, 72, 0
5, 45976, Note_on_c, 4, 81, 0
5, 45980, Note_on_c, 4, 69, 0
5, 45986, Note_on_c, 4, 74, 120
5, 45986, Note_on_c, 4, 82, 120
5, 45992, Note_on_c, 4, 70, 120
5, 46016, Note_on_c, 4, 82, 0
5, 46018, Note_on_c, 4, 74, 0
5, 46022, Note_on_c, 4, 70, 0
5, 46024, Note_on_c, 4, 72, 120
5, 46028, Note_on_c, 4, 81, 120
5, 46030, Note_on_c, 4, 69, 120
5, 46068, Note_on_c, 4, 69, 0
5, 46070, Note_on_c, 4, 72, 0
5, 46072, Note_on_c, 4, 81, 0
5, 46078, Note_on_c, 4, 70, 120
5, 46082, Note_on_c, 4, 67, 120
5, 46084, Note_on_c, 4, 79, 120
5, 46350, Note_on_c, 4, 70, 0
5, 46352, Note_on_c, 4, 79, 0
5, 46356, Note_on_c, 4, 67, 0
5, 46370, Note_on_c, 4, 74, 120
5, 46372, Note_on_c, 4, 69, 120
5, 46374, Note_on_c, 4, 81, 120
5, 46400, Note_on_c, 4, 69, 0
5, 46402, Note_on_c, 4, 81, 0
5, 46404, Note_on_c, 4, 74, 0
5, 46414, Note_on_c, 4, 72, 120
5, 46414, Note_on_c, 4, 67, 120
5, 46416, Note_on_c, 4, 79, 120
5, 46454, Note_on_c, 4, 67, 0
5, 46456, Note_on_c, 4, 79, 0
5, 46460, Note_on_c, 4, 72, 0
5, 46466, Note_on_c, 4, 70, 120
5, 46474, Note_on_c, 4, 65, 120
5, 46476, Note_on_c, 4, 77, 120
5, 46568, Control_c, 4, 7, 127
5, 46708, Note_on_c, 4, 77, 0
5, 46730, Note_on_c, 4, 70, 0
5, 46750, Note_on_c, 4, 82, 120
5, 46750, Note_on_c, 4, 72, 120
5, 46786, Note_on_c, 4, 82, 0
5, 46788, Note_on_c, 4, 72, 0
5, 46800, Note_on_c, 4, 70, 120
5, 46804, Note_on_c, 4, 79, 120
5, 46842, Note_on_c, 4, 70, 0
5, 46844, Note_on_c, 4, 79, 0
5, 46846, Note_on_c, 4, 69, 120
5, 46860, Note_on_c, 4, 77, 120
5, 46872, Control_c, 4, 7, 127
5, 47056, Control_c, 4, 7, 126
5, 47064, Control_c, 4, 7, 122
5, 47072, Control_c, 4, 7, 120
5, 47080, Control_c, 4, 7, 116
5, 47088, Control_c, 4, 7, 112
5, 47096, Control_c, 4, 7, 110
5, 47104, Control_c, 4, 7, 106
5, 47112, Control_c, 4, 7, 104
5, 47120, Control_c, 4, 7, 100
5, 47128, Control_c, 4, 7, 96
5, 47136, Control_c, 4, 7, 94
5, 47144, Control_c, 4, 7, 90
5, 47152, Control_c, 4, 7, 88
5, 47160, Control_c, 4, 7, 84
5, 47168, Control_c, 4, 7, 82
5, 47176, Control_c, 4, 7, 78
5, 47184, Control_c, 4, 7, 74
5, 47192, Control_c, 4, 7, 72
5, 47200, Control_c, 4, 7, 68
5, 47208, Control_c, 4, 7, 62
5, 47208, Control_c, 4, 7, 62
5, 47208, Control_c, 4, 7, 62
5, 47216, Control_c, 4, 7, 58
5, 47224, Control_c, 4, 7, 52
5, 47232, Control_c, 4, 7, 48
5, 47240, Control_c, 4, 7, 42
5, 47248, Control_c, 4, 7, 38
5, 47256, Control_c, 4, 7, 32
5, 47264, Control_c, 4, 7, 28
5, 47272, Control_c, 4, 7, 22
5, 47280, Control_c, 4, 7, 16
5, 47288, Control_c, 4, 7, 12
5, 47296, Control_c, 4, 7, 6
5, 47304, Control_c, 4, 7, 0
5, 47384, Note_on_c, 4, 69, 0
5, 47384, Note_on_c, 4, 65, 0
5, 47408, Note_on_c, 4, 77, 0
5, 47496, Control_c, 4, 7, 8
5, 47504, Control_c, 4, 7, 26
5, 47512, Control_c, 4, 7, 44
5, 47520, Control_c, 4, 7, 64
5, 47528, Control_c, 4, 7, 82
5, 47536, Control_c, 4, 7, 100
5, 47544, Control_c, 4, 7, 118
5, 47552, Control_c, 4, 7, 127
5, 47560, Control_c, 4, 7, 127
5, 47606, Pitch_bend_c, 4, 8192
5, 47606, Note_on_c, 4, 55, 100
5, 47606, Pitch_bend_c, 4, 8250
5, 47606, Pitch_bend_c, 4, 8240
5, 47606, Pitch_bend_c, 4, 8192
5, 47606, Note_on_c, 4, 60, 100
5, 47610, Pitch_bend_c, 4, 8192
5, 47610, Note_on_c, 4, 67, 100
5, 47610, Pitch_bend_c, 4, 8192
5, 47610, Note_on_c, 4, 63, 100
5, 48260, Note_on_c, 4, 55, 0
5, 48264, Note_on_c, 4, 60, 0
5, 48266, Note_on_c, 4, 67, 0
5, 48268, Note_on_c, 4, 63, 0
5, 48372, Pitch_bend_c, 4, 8192
5, 48372, Note_on_c, 4, 56, 100
5, 48372, Pitch_bend_c, 4, 8187
5, 48372, Pitch_bend_c, 4, 8250
5, 48372, Pitch_bend_c, 4, 8192
5, 48372, Note_on_c, 4, 68, 100
5, 48372, Pitch_bend_c, 4, 8192
5, 48372, Note_on_c, 4, 60, 100
5, 48376, Pitch_bend_c, 4, 8192
5, 48376, Note_on_c, 4, 63, 100
5, 48376, Note_on_c, 4, 68, 0
5, 48378, Pitch_bend_c, 4, 8192
5, 48378, Note_on_c, 4, 68, 100
5, 49004, Note_on_c, 4, 63, 0
5, 49006, Note_on_c, 4, 60, 0
5, 49008, Note_on_c, 4, 56, 0
5, 49008, Note_on_c, 4, 68, 0
5, 49132, Note_on_c, 4, 53, 100
5, 49134, Pitch_bend_c, 4, 8192
5, 49134, Note_on_c, 4, 65, 100
5, 49134, Pitch_bend_c, 4, 8218
5, 49136, Pitch_bend_c, 4, 8192
5, 49136, Note_on_c, 4, 60, 100
5, 49136, Pitch_bend_c, 4, 8261
5, 49136, Pitch_bend_c, 4, 8293
5, 49136, Note_on_c, 4, 65, 0
5, 49138, Pitch_bend_c, 4, 8192
5, 49138, Note_on_c, 4, 56, 100
5, 49140, Pitch_bend_c, 4, 8192
5, 49140, Note_on_c, 4, 65, 100
5, 49438, Note_on_c, 4, 60, 0
5, 49440, Note_on_c, 4, 53, 0
5, 49440, Note_on_c, 4, 65, 0
5, 49442, Note_on_c, 4, 56, 0
5, 49536, Pitch_bend_c, 4, 8192
5, 49538, Note_on_c, 4, 53, 100
5, 49538, Pitch_bend_c, 4, 8288
5, 49538, Pitch_bend_c, 4, 8240
5, 49538, Pitch_bend_c, 4, 8192
5, 49538, Note_on_c, 4, 56, 100
5, 49542, Pitch_bend_c, 4, 8192
5, 49542, Note_on_c, 4, 62, 100
5, 49546, Pitch_bend_c, 4, 8192
5, 49546, Note_on_c, 4, 65, 100
5, 49828, Note_on_c, 4, 62, 0
5, 49830, Note_on_c, 4, 65, 0
5, 49832, Note_on_c, 4, 56, 0
5, 49832, Note_on_c, 4, 53, 0
5, 49930, Pitch_bend_c, 4, 8192
5, 49930, Note_on_c, 4, 55, 100
5, 49930, Pitch_bend_c, 4, 8277
5, 49930, Pitch_bend_c, 4, 8266
5, 49934, Pitch_bend_c, 4, 8192
5, 49934, Note_on_c, 4, 58, 100
5, 49940, Pitch_bend_c, 4, 8192
5, 49940, Note_on_c, 4, 63, 100
5, 49950, Pitch_bend_c, 4, 8192
5, 49950, Note_on_c, 4, 67, 100
5, 50204, Note_on_c, 4, 67, 0
5, 50208, Note_on_c, 4, 63, 0
5, 50208, Note_on_c, 4, 58, 0
5, 50212, Note_on_c, 4, 55, 0
5, 50310, Pitch_bend_c, 4, 8192
5, 50310, Note_on_c, 4, 56, 100
5, 50310, Pitch_bend_c, 4, 8304
5, 50310, Pitch_bend_c, 4, 8192
5, 50310, Note_on_c, 4, 53, 100
5, 50312, Pitch_bend_c, 4, 8192
5, 50312, Note_on_c, 4, 61, 100
5, 50314, Pitch_bend_c, 4, 8192
5, 50314, Note_on_c, 4, 65, 100
5, 50486, Pitch_bend_c, 4, 8192
5, 50584, Note_on_c, 4, 56, 0
5, 50588, Note_on_c, 4, 65, 0
5, 50592, Note_on_c, 4, 61, 0
5, 50596, Note_on_c, 4, 53, 0
5, 50688, Pitch_bend_c, 4, 8192
5, 50688, Pitch_bend_c, 4, 8022
5, 50690, Pitch_bend_c, 4, 8064
5, 50692, Pitch_bend_c, 4, 8192
5, 50692, Note_on_c, 4, 57, 100
5, 50694, Pitch_bend_c, 4, 8192
5, 50696, Note_on_c, 4, 60, 100
5, 50696, Pitch_bend_c, 4, 8192
5, 50696, Note_on_c, 4, 65, 100
5, 50700, Pitch_bend_c, 4, 8192
5, 50700, Note_on_c, 4, 53, 100
5, 50864, Control_c, 4, 7, 126
5, 50872, Control_c, 4, 7, 124
5, 50884, Control_c, 4, 7, 122
5, 50896, Control_c, 4, 7, 120
5, 50904, Control_c, 4, 7, 118
5, 50916, Control_c, 4, 7, 116
5, 50928, Control_c, 4, 7, 114
5, 50940, Control_c, 4, 7, 112
5, 50952, Control_c, 4, 7, 110
5, 50960, Control_c, 4, 7, 108
5, 50972, Control_c, 4, 7, 106
5, 50984, Control_c, 4, 7, 104
5, 50996, Control_c, 4, 7, 102
5, 51008, Control_c, 4, 7, 100
5, 51020, Control_c, 4, 7, 98
5, 51028, Control_c, 4, 7, 96
5, 51040, Control_c, 4, 7, 94
5, 51052, Control_c, 4, 7, 92
5, 51064, Control_c, 4, 7, 90
5, 51076, Control_c, 4, 7, 88
5, 51088, Control_c, 4, 7, 86
5, 51096, Control_c, 4, 7, 84
5, 51108, Control_c, 4, 7, 82
5, 51120, Control_c, 4, 7, 80
5, 51132, Control_c, 4, 7, 78
5, 51144, Control_c, 4, 7, 76
5, 51152, Control_c, 4, 7, 74
5, 51164, Control_c, 4, 7, 72
5, 51176, Control_c, 4, 7, 70
5, 51188, Control_c, 4, 7, 68
5, 51200, Control_c, 4, 7, 66
5, 51212, Control_c, 4, 7, 64
5, 51220, Control_c, 4, 7, 62
5, 51232, Control_c, 4, 7, 60
5, 51244, Control_c, 4, 7, 58
5, 51256, Control_c, 4, 7, 56
5, 51268, Control_c, 4, 7, 54
5, 51276, Control_c, 4, 7, 52
5, 51288, Control_c, 4, 7, 50
5, 51300, Control_c, 4, 7, 48
5, 51312, Control_c, 4, 7, 46
5, 51324, Control_c, 4, 7, 44
5, 51336, Control_c, 4, 7, 42
5, 51344, Control_c, 4, 7, 40
5, 51356, Control_c, 4, 7, 38
5, 51368, Control_c, 4, 7, 36
5, 51380, Control_c, 4, 7, 34
5, 51392, Control_c, 4, 7, 32
5, 51404, Control_c, 4, 7, 30
5, 51412, Control_c, 4, 7, 28
5, 51424, Control_c, 4, 7, 26
5, 51436, Control_c, 4, 7, 24
5, 51448, Control_c, 4, 7, 22
5, 51456, Note_on_c, 4, 53, 0
5, 51456, Note_on_c, 4, 57, 0
5, 51456, Note_on_c, 4, 60, 0
5, 51456, Note_on_c, 4, 65, 0
5, 52460, Control_c, 4, 7, 24
5, 53068, Control_c, 4, 7, 22
5, 53676, Control_c, 4, 7, 22
5, 56780, Control_c, 4, 7, 30
5, 56812, Control_c, 4, 7, 40
5, 56844, Control_c, 4, 7, 50
5, 56876, Control_c, 4, 7, 60
5, 56908, Control_c, 4, 7, 70
5, 56940, Control_c, 4, 7, 82
5, 56972, Control_c, 4, 7, 92
5, 57004, Control_c, 4, 7, 102
5, 57036, Control_c, 4, 7, 112
5, 57068, Control_c, 4, 7, 122
5, 57100, Control_c, 4, 7, 127
5, 57328, Note_on_c, 4, 62, 127
5, 57332, Note_on_c, 4, 59, 123
5, 57366, Note_on_c, 4, 59, 0
5, 57366, Note_on_c, 4, 62, 0
5, 57376, Note_on_c, 4, 58, 77
5, 57376, Note_on_c, 4, 61, 91
5, 57414, Note_on_c, 4, 61, 0
5, 57416, Note_on_c, 4, 58, 0
5, 57422, Note_on_c, 4, 62, 127
5, 57424, Note_on_c, 4, 59, 127
5, 57456, Note_on_c, 4, 59, 0
5, 57460, Note_on_c, 4, 62, 0
5, 57512, Note_on_c, 4, 67, 127
5, 57514, Note_on_c, 4, 62, 127
5, 57548, Note_on_c, 4, 62, 0
5, 57550, Note_on_c, 4, 67, 0
5, 57560, Note_on_c, 4, 66, 110
5, 57562, Note_on_c, 4, 61, 100
5, 57594, Note_on_c, 4, 66, 0
5, 57600, Note_on_c, 4, 61, 0
5, 57604, Note_on_c, 4, 67, 127
5, 57608, Note_on_c, 4, 62, 127
5, 57644, Note_on_c, 4, 62, 0
5, 57650, Note_on_c, 4, 67, 0
5, 57700, Note_on_c, 4, 67, 127
5, 57702, Note_on_c, 4, 71, 127
5, 57734, Note_on_c, 4, 67, 0
5, 57746, Note_on_c, 4, 66, 118
5, 57746, Note_on_c, 4, 69, 122
5, 57776, Note_on_c, 4, 71, 0
5, 57778, Note_on_c, 4, 66, 0
5, 57780, Note_on_c, 4, 69, 0
5, 57792, Note_on_c, 4, 71, 127
5, 57794, Note_on_c, 4, 67, 127
5, 57826, Note_on_c, 4, 67, 0
5, 57828, Note_on_c, 4, 71, 0
5, 57836, Note_on_c, 4, 72, 127
5, 57840, Note_on_c, 4, 69, 120
5, 57874, Note_on_c, 4, 72, 0
5, 57878, Note_on_c, 4, 69, 0
5, 57880, Note_on_c, 4, 74, 74
5, 57888, Note_on_c, 4, 71, 127
5, 57912, Note_on_c, 4, 74, 0
5, 57924, Note_on_c, 4, 71, 115
5, 57924, Note_on_c, 4, 71, 0
5, 57958, Note_on_c, 4, 71, 0
5, 57978, Note_on_c, 4, 76, 127
5, 57980, Note_on_c, 4, 72, 122
5, 58022, Note_on_c, 4, 76, 0
5, 58034, Note_on_c, 4, 72, 0
5, 58076, Note_on_c, 4, 74, 127
5, 58088, Note_on_c, 4, 71, 127
5, 58108, Note_on_c, 4, 74, 0
5, 58122, Note_on_c, 4, 72, 127
5, 58124, Note_on_c, 4, 71, 0
5, 58134, Note_on_c, 4, 69, 127
5, 58162, Note_on_c, 4, 72, 0
5, 58166, Note_on_c, 4, 69, 0
5, 58170, Note_on_c, 4, 74, 127
5, 58178, Note_on_c, 4, 71, 127
5, 58212, Note_on_c, 4, 74, 0
5, 58218, Note_on_c, 4, 71, 0
5, 58252, Control_c, 4, 7, 127
5, 58276, Note_on_c, 4, 69, 127
5, 58276, Note_on_c, 4, 72, 127
5, 58310, Note_on_c, 4, 72, 0
5, 58314, Note_on_c, 4, 69, 0
5, 58324, Note_on_c, 4, 67, 100
5, 58326, Note_on_c, 4, 71, 113
5, 58358, Note_on_c, 4, 67, 0
5, 58364, Note_on_c, 4, 71, 0
5, 58370, Note_on_c, 4, 69, 127
5, 58374, Note_on_c, 4, 72, 127
5, 58402, Note_on_c, 4, 69, 0
5, 58408, Note_on_c, 4, 72, 0
5, 58416, Note_on_c, 4, 67, 113
5, 58418, Note_on_c, 4, 71, 123
5, 58452, Note_on_c, 4, 71, 0
5, 58456, Note_on_c, 4, 67, 0
5, 58464, Note_on_c, 4, 66, 127
5, 58466, Note_on_c, 4, 69, 127
5, 58606, Note_on_c, 4, 66, 0
5, 58618, Note_on_c, 4, 69, 0
5, 58656, Note_on_c, 4, 69, 127
5, 58662, Note_on_c, 4, 78, 127
5, 58698, Note_on_c, 4, 69, 0
5, 58706, Note_on_c, 4, 78, 0
5, 58754, Note_on_c, 4, 74, 127
5, 58756, Note_on_c, 4, 79, 127
5, 58800, Note_on_c, 4, 74, 0
5, 58802, Note_on_c, 4, 79, 0
5, 58850, Note_on_c, 4, 72, 127
5, 58854, Note_on_c, 4, 78, 127
5, 58888, Note_on_c, 4, 78, 0
5, 58892, Note_on_c, 4, 72, 0
5, 58898, Note_on_c, 4, 71, 126
5, 58904, Note_on_c, 4, 76, 127
5, 58934, Note_on_c, 4, 71, 0
5, 58936, Note_on_c, 4, 76, 0
5, 58942, Note_on_c, 4, 72, 127
5, 58948, Note_on_c, 4, 78, 127
5, 59032, Note_on_c, 4, 72, 0
5, 59034, Note_on_c, 4, 78, 0
5, 59044, Note_on_c, 4, 71, 127
5, 59046, Note_on_c, 4, 76, 127
5, 59082, Note_on_c, 4, 76, 0
5, 59082, Note_on_c, 4, 71, 0
5, 59092, Note_on_c, 4, 69, 127
5, 59092, Note_on_c, 4, 74, 97
5, 59128, Note_on_c, 4, 74, 0
5, 59130, Note_on_c, 4, 69, 0
5, 59138, Note_on_c, 4, 71, 125
5, 59140, Note_on_c, 4, 76, 113
5, 59168, Note_on_c, 4, 76, 0
5, 59168, Note_on_c, 4, 71, 0
5, 59182, Note_on_c, 4, 69, 95
5, 59190, Note_on_c, 4, 74, 83
5, 59208, Note_on_c, 4, 69, 0
5, 59214, Note_on_c, 4, 74, 0
5, 59232, Note_on_c, 4, 67, 120
5, 59236, Note_on_c, 4, 72, 127
5, 59264, Note_on_c, 4, 67, 0
5, 59266, Note_on_c, 4, 72, 0
5, 59278, Note_on_c, 4, 66, 101
5, 59282, Note_on_c, 4, 71, 110
5, 59318, Note_on_c, 4, 66, 0
5, 59320, Note_on_c, 4, 71, 0
5, 59326, Note_on_c, 4, 67, 127
5, 59330, Note_on_c, 4, 72, 120
5, 59366, Note_on_c, 4, 67, 0
5, 59368, Note_on_c, 4, 72, 0
5, 59374, Note_on_c, 4, 69, 127
5, 59378, Note_on_c, 4, 74, 108
5, 59412, Note_on_c, 4, 74, 0
5, 59414, Note_on_c, 4, 69, 0
5, 59426, Note_on_c, 4, 71, 127
5, 59426, Note_on_c, 4, 76, 127
5, 59464, Note_on_c, 4, 71, 0
5, 59476, Note_on_c, 4, 76, 0
5, 59480, Note_on_c, 4, 67, 118
5, 59480, Note_on_c, 4, 72, 83
5, 59518, Note_on_c, 4, 72, 0
5, 59518, Note_on_c, 4, 67, 0
5, 59526, Note_on_c, 4, 76, 127
5, 59528, Note_on_c, 4, 72, 127
5, 59798, Note_on_c, 4, 72, 0
5, 59806, Note_on_c, 4, 76, 0
5, 60004, Note_on_c, 4, 62, 47
5, 60006, Note_on_c, 4, 57, 127
5, 60010, Note_on_c, 4, 62, 127
5, 60010, Note_on_c, 4, 62, 0
5, 60040, Note_on_c, 4, 57, 0
5, 60046, Note_on_c, 4, 62, 0
5, 60054, Note_on_c, 4, 61, 84
5, 60058, Note_on_c, 4, 56, 91
5, 60094, Note_on_c, 4, 56, 0
5, 60096, Note_on_c, 4, 61, 0
5, 60100, Note_on_c, 4, 57, 114
5, 60104, Note_on_c, 4, 62, 127
5, 60140, Note_on_c, 4, 57, 0
5, 60146, Note_on_c, 4, 62, 0
5, 60200, Note_on_c, 4, 62, 127
5, 60204, Note_on_c, 4, 66, 102
5, 60238, Note_on_c, 4, 66, 0
5, 60238, Note_on_c, 4, 62, 0
5, 60248, Note_on_c, 4, 61, 106
5, 60248, Note_on_c, 4, 65, 108
5, 60284, Note_on_c, 4, 61, 0
5, 60290, Note_on_c, 4, 65, 0
5, 60294, Note_on_c, 4, 66, 116
5, 60296, Note_on_c, 4, 62, 127
5, 60338, Note_on_c, 4, 66, 0
5, 60340, Note_on_c, 4, 62, 0
5, 60390, Note_on_c, 4, 67, 127
5, 60390, Note_on_c, 4, 71, 127
5, 60432, Note_on_c, 4, 67, 0
5, 60436, Note_on_c, 4, 66, 127
5, 60436, Note_on_c, 4, 71, 0
5, 60438, Note_on_c, 4, 69, 118
5, 60474, Note_on_c, 4, 69, 0
5, 60474, Note_on_c, 4, 66, 0
5, 60480, Note_on_c, 4, 67, 122
5, 60484, Note_on_c, 4, 71, 127
5, 60518, Note_on_c, 4, 67, 0
5, 60520, Note_on_c, 4, 71, 0
5, 60526, Note_on_c, 4, 74, 122
5, 60526, Note_on_c, 4, 69, 122
5, 60564, Note_on_c, 4, 74, 0
5, 60570, Note_on_c, 4, 69, 0
5, 60578, Note_on_c, 4, 71, 124
5, 60582, Note_on_c, 4, 76, 124
5, 60626, Note_on_c, 4, 67, 124
5, 60630, Note_on_c, 4, 71, 124
5, 60630, Note_on_c, 4, 76, 0
5, 60630, Note_on_c, 4, 71, 0
5, 60632, Note_on_c, 4, 74, 124
5, 60664, Note_on_c, 4, 71, 0
5, 60666, Note_on_c, 4, 67, 0
5, 60670, Note_on_c, 4, 74, 0
5, 60678, Note_on_c, 4, 74, 126
5, 60684, Note_on_c, 4, 79, 126
5, 61000, Note_on_c, 4, 79, 0
5, 61006, Note_on_c, 4, 74, 0
5, 61058, Note_on_c, 4, 88, 127
5, 61058, Note_on_c, 4, 84, 127
5, 61058, Note_on_c, 4, 79, 127
5, 61148, Note_on_c, 4, 79, 0
5, 61148, Note_on_c, 4, 84, 0
5, 61148, Note_on_c, 4, 88, 0
5, 61342, Note_on_c, 4, 88, 127
5, 61344, Note_on_c, 4, 83, 127
5, 61346, Note_on_c, 4, 91, 97
5, 61422, Note_on_c, 4, 83, 0
5, 61424, Note_on_c, 4, 88, 0
5, 61426, Note_on_c, 4, 91, 0
5, 61446, Note_on_c, 4, 90, 127
5, 61446, Note_on_c, 4, 81, 119
5, 61450, Note_on_c, 4, 86, 122
5, 61676, Control_c, 4, 7, 127
5, 61762, Note_on_c, 4, 90, 0
5, 61764, Note_on_c, 4, 86, 0
5, 61770, Note_on_c, 4, 81, 0
5, 62116, Note_on_c, 4, 93, 127
5, 62118, Note_on_c, 4, 84, 127
5, 62118, Note_on_c, 4, 89, 127
5, 62202, Note_on_c, 4, 93, 0
5, 62204, Note_on_c, 4, 84, 0
5, 62210, Note_on_c, 4, 89, 0
5, 62218, Note_on_c, 4, 91, 105
5, 62222, Note_on_c, 4, 88, 120
5, 62222, Note_on_c, 4, 83, 118
5, 62546, Note_on_c, 4, 91, 0
5, 62550, Note_on_c, 4, 83, 0
5, 62558, Note_on_c, 4, 88, 0
5, 62592, Note_on_c, 4, 72, 127
5, 62592, Note_on_c, 4, 69, 127
5, 62594, Note_on_c, 4, 64, 100
5, 62854, Note_on_c, 4, 72, 0
5, 62886, Note_on_c, 4, 71, 122
5, 62924, Note_on_c, 4, 71, 0
5, 62932, Note_on_c, 4, 72, 122
5, 62960, Note_on_c, 4, 72, 0
5, 62960, Note_on_c, 4, 69, 0
5, 62962, Note_on_c, 4, 64, 0
5, 62984, Note_on_c, 4, 66, 124
5, 62992, Note_on_c, 4, 69, 124
5, 62994, Note_on_c, 4, 74, 124
5, 63560, Note_on_c, 4, 69, 0
5, 63562, Note_on_c, 4, 66, 0
5, 63564, Note_on_c, 4, 74, 0
5, 63646, Note_on_c, 4, 69, 76
5, 63648, Note_on_c, 4, 65, 78
5, 63648, Note_on_c, 4, 77, 78
5, 63670, Note_on_c, 4, 77, 0
5, 63670, Note_on_c, 4, 65, 0
5, 63670, Note_on_c, 4, 69, 0
5, 63672, Note_on_c, 4, 79, 90
5, 63674, Note_on_c, 4, 67, 90
5, 63674, Note_on_c, 4, 70, 90
5, 63696, Note_on_c, 4, 68, 102
5, 63696, Note_on_c, 4, 72, 102
5, 63696, Note_on_c, 4, 79, 0
5, 63698, Note_on_c, 4, 80, 102
5, 63700, Note_on_c, 4, 70, 0
5, 63702, Note_on_c, 4, 67, 0
5, 63718, Note_on_c, 4, 69, 112
5, 63718, Note_on_c, 4, 80, 0
5, 63720, Note_on_c, 4, 72, 0
5, 63722, Note_on_c, 4, 81, 114
5, 63722, Note_on_c, 4, 73, 114
5, 63722, Note_on_c, 4, 68, 0
5, 63742, Note_on_c, 4, 69, 0
5, 63746, Note_on_c, 4, 81, 0
5, 63746, Note_on_c, 4, 73, 0
5, 63748, Note_on_c, 4, 74, 116
5, 63752, Note_on_c, 4, 70, 116
5, 63752, Note_on_c, 4, 82, 116
5, 64114, Note_on_c, 4, 82, 0
5, 64114, Note_on_c, 4, 70, 0
5, 64120, Note_on_c, 4, 74, 0
5, 64132, Note_on_c, 4, 72, 116
5, 64132, Note_on_c, 4, 84, 116
5, 64136, Note_on_c, 4, 76, 116
5, 64300, Note_on_c, 4, 84, 0
5, 64306, Note_on_c, 4, 76, 0
5, 64306, Note_on_c, 4, 72, 0
5, 64324, Note_on_c, 4, 82, 116
5, 64324, Note_on_c, 4, 74, 116
5, 64324, Note_on_c, 4, 70, 116
5, 64498, Note_on_c, 4, 74, 0
5, 64506, Note_on_c, 4, 82, 0
5, 64512, Note_on_c, 4, 70, 0
5, 64516, Note_on_c, 4, 72, 116
5, 64518, Note_on_c, 4, 69, 116
5, 64520, Note_on_c, 4, 81, 116
5, 64870, Note_on_c, 4, 81, 0
5, 64878, Note_on_c, 4, 69, 0
5, 64884, Note_on_c, 4, 72, 0
5, 64898, Note_on_c, 4, 70, 116
5, 64898, Note_on_c, 4, 74, 116
5, 64900, Note_on_c, 4, 82, 116
5, 65078, Note_on_c, 4, 70, 0
5, 65080, Note_on_c, 4, 74, 0
5, 65082, Note_on_c, 4, 82, 0
5, 65092, Note_on_c, 4, 69, 116
5, 65094, Note_on_c, 4, 72, 116
5, 65098, Note_on_c, 4, 81, 116
5, 65264, Note_on_c, 4, 81, 0
5, 65266, Note_on_c, 4, 72, 0
5, 65266, Note_on_c, 4, 69, 0
5, 65288, Note_on_c, 4, 79, 116
5, 65290, Note_on_c, 4, 67, 116
5, 65292, Note_on_c, 4, 70, 116
5, 65636, Note_on_c, 4, 79, 0
5, 65650, Note_on_c, 4, 70, 0
5, 65654, Note_on_c, 4, 67, 0
5, 65670, Note_on_c, 4, 69, 116
5, 65672, Note_on_c, 4, 64, 116
5, 65672, Note_on_c, 4, 79, 116
5, 66010, Note_on_c, 4, 79, 0
5, 66020, Note_on_c, 4, 64, 0
5, 66052, Note_on_c, 4, 74, 102
5, 66054, Note_on_c, 4, 62, 102
5, 66114, Note_on_c, 4, 69, 0
5, 66118, Note_on_c, 4, 74, 0
5, 66150, Note_on_c, 4, 65, 104
5, 66156, Note_on_c, 4, 69, 104
5, 66186, Note_on_c, 4, 65, 0
5, 66192, Note_on_c, 4, 69, 0
5, 66196, Note_on_c, 4, 64, 106
5, 66202, Note_on_c, 4, 68, 106
5, 66236, Note_on_c, 4, 68, 0
5, 66236, Note_on_c, 4, 64, 0
5, 66242, Note_on_c, 4, 65, 106
5, 66246, Note_on_c, 4, 69, 106
5, 66296, Note_on_c, 4, 69, 0
5, 66300, Note_on_c, 4, 65, 0
5, 66306, Note_on_c, 4, 62, 0
5, 66340, Note_on_c, 4, 69, 108
5, 66342, Note_on_c, 4, 65, 108
5, 66342, Note_on_c, 4, 74, 108
5, 66374, Note_on_c, 4, 74, 0
5, 66376, Note_on_c, 4, 69, 0
5, 66380, Note_on_c, 4, 65, 0
5, 66384, Note_on_c, 4, 68, 108
5, 66386, Note_on_c, 4, 73, 108
5, 66388, Note_on_c, 4, 64, 108
5, 66422, Note_on_c, 4, 68, 0
5, 66424, Note_on_c, 4, 64, 0
5, 66424, Note_on_c, 4, 73, 0
5, 66430, Note_on_c, 4, 69, 110
5, 66432, Note_on_c, 4, 65, 110
5, 66434, Note_on_c, 4, 74, 110
5, 66474, Note_on_c, 4, 65, 0
5, 66478, Note_on_c, 4, 74, 0
5, 66480, Note_on_c, 4, 69, 0
5, 66532, Note_on_c, 4, 74, 110
5, 66534, Note_on_c, 4, 69, 110
5, 66536, Note_on_c, 4, 77, 110
5, 66566, Note_on_c, 4, 69, 0
5, 66570, Note_on_c, 4, 74, 0
5, 66572, Note_on_c, 4, 77, 0
5, 66574, Note_on_c, 4, 73, 112
5, 66576, Note_on_c, 4, 68, 112
5, 66582, Note_on_c, 4, 76, 112
5, 66614, Note_on_c, 4, 68, 0
5, 66616, Note_on_c, 4, 73, 0
5, 66618, Note_on_c, 4, 76, 0
5, 66624, Note_on_c, 4, 69, 127
5, 66626, Note_on_c, 4, 74, 127
5, 66628, Note_on_c, 4, 77, 127
5, 66666, Note_on_c, 4, 74, 0
5, 66668, Note_on_c, 4, 69, 0
5, 66672, Note_on_c, 4, 77, 0
5, 66678, Note_on_c, 4, 72, 127
5, 66682, Note_on_c, 4, 60, 127
5, 66684, Note_on_c, 4, 76, 127
5, 66800, Note_on_c, 4, 72, 0
5, 66802, Note_on_c, 4, 60, 0
5, 66804, Note_on_c, 4, 76, 0
5, 66814, Note_on_c, 4, 70, 112
5, 66820, Note_on_c, 4, 65, 112
5, 66820, Note_on_c, 4, 74, 112
5, 67092, Note_on_c, 4, 70, 0
5, 67094, Note_on_c, 4, 65, 0
5, 67110, Note_on_c, 4, 72, 112
5, 67114, Note_on_c, 4, 69, 112
5, 67146, Note_on_c, 4, 69, 0
5, 67148, Note_on_c, 4, 72, 0
5, 67150, Note_on_c, 4, 74, 0
5, 67156, Note_on_c, 4, 70, 118
5, 67160, Note_on_c, 4, 74, 118
5, 67198, Note_on_c, 4, 74, 0
5, 67198, Note_on_c, 4, 70, 0
5, 67206, Note_on_c, 4, 72, 118
5, 67206, Note_on_c, 4, 76, 118
5, 67208, Note_on_c, 4, 84, 118
5, 67380, Note_on_c, 4, 84, 0
5, 67380, Note_on_c, 4, 76, 0
5, 67382, Note_on_c, 4, 72, 0
5, 67392, Control_c, 4, 7, 127
5, 67394, Note_on_c, 4, 74, 118
5, 67400, Note_on_c, 4, 82, 118
5, 67402, Note_on_c, 4, 70, 118
5, 67478, Note_on_c, 4, 74, 0
5, 67482, Note_on_c, 4, 82, 0
5, 67484, Note_on_c, 4, 70, 0
5, 67490, Note_on_c, 4, 76, 118
5, 67494, Note_on_c, 4, 84, 118
5, 67496, Note_on_c, 4, 72, 118
5, 67522, Note_on_c, 4, 76, 0
5, 67526, Note_on_c, 4, 72, 0
5, 67526, Note_on_c, 4, 84, 0
5, 67534, Note_on_c, 4, 74, 118
5, 67536, Note_on_c, 4, 82, 118
5, 67540, Note_on_c, 4, 70, 118
5, 67574, Note_on_c, 4, 74, 0
5, 67576, Note_on_c, 4, 82, 0
5, 67578, Note_on_c, 4, 70, 0
5, 67588, Note_on_c, 4, 72, 118
5, 67588, Note_on_c, 4, 81, 118
5, 67590, Note_on_c, 4, 69, 118
5, 67852, Note_on_c, 4, 81, 0
5, 67854, Note_on_c, 4, 69, 0
5, 67862, Note_on_c, 4, 72, 0
5, 67870, Note_on_c, 4, 67, 118
5, 67872, Note_on_c, 4, 70, 118
5, 67874, Note_on_c, 4, 79, 118
5, 67900, Note_on_c, 4, 67, 0
5, 67906, Note_on_c, 4, 79, 0
5, 67908, Note_on_c, 4, 70, 0
5, 67916, Note_on_c, 4, 69, 118
5, 67918, Note_on_c, 4, 72, 118
5, 67918, Note_on_c, 4, 81, 118
5, 67952, Note_on_c, 4, 72, 0
5, 67954, Note_on_c, 4, 69, 0
5, 67958, Note_on_c, 4, 81, 0
5, 67964, Note_on_c, 4, 74, 118
5, 67966, Note_on_c, 4, 70, 118
5, 67970, Note_on_c, 4, 82, 118
5, 68146, Note_on_c, 4, 70, 0
5, 68148, Note_on_c, 4, 74, 0
5, 68152, Note_on_c, 4, 82, 0
5, 68158, Note_on_c, 4, 69, 118
5, 68160, Note_on_c, 4, 72, 118
5, 68168, Note_on_c, 4, 81, 118
5, 68246, Note_on_c, 4, 72, 0
5, 68248, Note_on_c, 4, 81, 0
5, 68252, Note_on_c, 4, 69, 0
5, 68258, Note_on_c, 4, 74, 120
5, 68258, Note_on_c, 4, 82, 120
5, 68264, Note_on_c, 4, 70, 120
5, 68288, Note_on_c, 4, 82, 0
5, 68290, Note_on_c, 4, 74, 0
5, 68294, Note_on_c, 4, 70, 0
5, 68296, Note_on_c, 4, 72, 120
5, 68300, Note_on_c, 4, 81, 120
5, 68302, Note_on_c, 4, 69, 120
5, 68340, Note_on_c, 4, 69, 0
5, 68342, Note_on_c, 4, 72, 0
5, 68344, Note_on_c, 4, 81, 0
5, 68350, Note_on_c, 4, 70, 120
5, 68354, Note_on_c, 4, 67, 120
5, 68356, Note_on_c, 4, 79, 120
5, 68622, Note_on_c, 4, 70, 0
5, 68624, Note_on_c, 4, 79, 0
5, 68628, Note_on_c, 4, 67, 0
5, 68642, Note_on_c, 4, 74, 120
5, 68644, Note_on_c, 4, 69, 120
5, 68646, Note_on_c, 4, 81, 120
5, 68672, Note_on_c, 4, 69, 0
5, 68674, Note_on_c, 4, 81, 0
5, 68676, Note_on_c, 4, 74, 0
5, 68686, Note_on_c, 4, 72, 120
5, 68686, Note_on_c, 4, 67, 120
5, 68688, Note_on_c, 4, 79, 120
5, 68726, Note_on_c, 4, 67, 0
5, 68728, Note_on_c, 4, 79, 0
5, 68732, Note_on_c, 4, 72, 0
5, 68738, Note_on_c, 4, 70, 120
5, 68746, Note_on_c, 4, 65, 120
5, 68748, Note_on_c, 4, 77, 120
5, 68980, Note_on_c, 4, 77, 0
5, 69002, Note_on_c, 4, 70, 0
5, 69022, Note_on_c, 4, 82, 120
5, 69022, Note_on_c, 4, 72, 120
5, 69058, Note_on_c, 4, 82, 0
5, 69060, Note_on_c, 4, 72, 0
5, 69072, Note_on_c, 4, 70, 120
5, 69076, Note_on_c, 4, 79, 120
5, 69114, Note_on_c, 4, 70, 0
5, 69116, Note_on_c, 4, 79, 0
5, 69118, Note_on_c, 4, 69, 120
5, 69132, Note_on_c, 4, 77, 120
5, 69864, Note_on_c, 4, 77, 0
5, 69868, Note_on_c, 4, 69, 0
5, 69884, Note_on_c, 4, 65, 0
5, 76214, Pitch_bend_c, 4, 8192
5, 76214, Note_on_c, 4, 55, 100
5, 76214, Pitch_bend_c, 4, 8250
5, 76214, Pitch_bend_c, 4, 8240
5, 76214, Pitch_bend_c, 4, 8192
5, 76214, Note_on_c, 4, 60, 100
5, 76218, Pitch_bend_c, 4, 8192
5, 76218, Note_on_c, 4, 67, 100
5, 76218, Pitch_bend_c, 4, 8192
5, 76218, Note_on_c, 4, 63, 100
5, 76480, Control_c, 4, 7, 127
5, 76868, Note_on_c, 4, 55, 0
5, 76872, Note_on_c, 4, 60, 0
5, 76874, Note_on_c, 4, 67, 0
5, 76876, Note_on_c, 4, 63, 0
5, 76980, Pitch_bend_c, 4, 8192
5, 76980, Note_on_c, 4, 56, 100
5, 76980, Pitch_bend_c, 4, 8187
5, 76980, Pitch_bend_c, 4, 8250
5, 76980, Pitch_bend_c, 4, 8192
5, 76980, Note_on_c, 4, 68, 100
5, 76980, Pitch_bend_c, 4, 8192
5, 76980, Note_on_c, 4, 60, 100
5, 76984, Pitch_bend_c, 4, 8192
5, 76984, Note_on_c, 4, 63, 100
5, 76984, Note_on_c, 4, 68, 0
5, 76986, Pitch_bend_c, 4, 8192
5, 76986, Note_on_c, 4, 68, 100
5, 77612, Note_on_c, 4, 63, 0
5, 77614, Note_on_c, 4, 60, 0
5, 77616, Note_on_c, 4, 56, 0
5, 77616, Note_on_c, 4, 68, 0
5, 77740, Note_on_c, 4, 53, 100
5, 77742, Pitch_bend_c, 4, 8192
5, 77742, Note_on_c, 4, 65, 100
5, 77742, Pitch_bend_c, 4, 8218
5, 77744, Pitch_bend_c, 4, 8192
5, 77744, Note_on_c, 4, 60, 100
5, 77744, Pitch_bend_c, 4, 8261
5, 77744, Pitch_bend_c, 4, 8293
5, 77744, Note_on_c, 4, 65, 0
5, 77746, Pitch_bend_c, 4, 8192
5, 77746, Note_on_c, 4, 56, 100
5, 77748, Pitch_bend_c, 4, 8192
5, 77748, Note_on_c, 4, 65, 100
5, 78046, Note_on_c, 4, 60, 0
5, 78048, Note_on_c, 4, 53, 0
5, 78048, Note_on_c, 4, 65, 0
5, 78050, Note_on_c, 4, 56, 0
5, 78144, Pitch_bend_c, 4, 8192
5, 78146, Note_on_c, 4, 53, 100
5, 78146, Pitch_bend_c, 4, 8288
5, 78146, Pitch_bend_c, 4, 8240
5, 78146, Pitch_bend_c, 4, 8192
5, 78146, Note_on_c, 4, 56, 100
5, 78150, Pitch_bend_c, 4, 8192
5, 78150, Note_on_c, 4, 62, 100
5, 78154, Pitch_bend_c, 4, 8192
5, 78154, Note_on_c, 4, 65, 100
5, 78436, Note_on_c, 4, 62, 0
5, 78438, Note_on_c, 4, 65, 0
5, 78440, Note_on_c, 4, 56, 0
5, 78440, Note_on_c, 4, 53, 0
5, 78538, Pitch_bend_c, 4, 8192
5, 78538, Note_on_c, 4, 55, 100
5, 78538, Pitch_bend_c, 4, 8277
5, 78538, Pitch_bend_c, 4, 8266
5, 78542, Pitch_bend_c, 4, 8192
5, 78542, Note_on_c, 4, 58, 100
5, 78548, Pitch_bend_c, 4, 8192
5, 78548, Note_on_c, 4, 63, 100
5, 78558, Pitch_bend_c, 4, 8192
5, 78558, Note_on_c, 4, 67, 100
5, 78812, Note_on_c, 4, 67, 0
5, 78816, Note_on_c, 4, 63, 0
5, 78816, Note_on_c, 4, 58, 0
5, 78820, Note_on_c, 4, 55, 0
5, 78918, Pitch_bend_c, 4, 8192
5, 78918, Note_on_c, 4, 56, 100
5, 78918, Pitch_bend_c, 4, 8304
5, 78918, Pitch_bend_c, 4, 8192
5, 78918, Note_on_c, 4, 53, 100
5, 78920, Pitch_bend_c, 4, 8192
5, 78920, Note_on_c, 4, 61, 100
5, 78922, Pitch_bend_c, 4, 8192
5, 78922, Note_on_c, 4, 65, 100
5, 79094, Pitch_bend_c, 4, 8192
5, 79192, Note_on_c, 4, 56, 0
5, 79196, Note_on_c, 4, 65, 0
5, 79200, Note_on_c, 4, 61, 0
5, 79204, Note_on_c, 4, 53, 0
5, 79296, Pitch_bend_c, 4, 8192
5, 79296, Pitch_bend_c, 4, 8022
5, 79298, Pitch_bend_c, 4, 8064
5, 79300, Pitch_bend_c, 4, 8192
5, 79300, Note_on_c, 4, 57, 100
5, 79302, Pitch_bend_c, 4, 8192
5, 79304, Note_on_c, 4, 60, 100
5, 79304, Pitch_bend_c, 4, 8192
5, 79304, Note_on_c, 4, 65, 100
5, 79308, Pitch_bend_c, 4, 8192
5, 79308, Note_on_c, 4, 53, 100
5, 79472, Control_c, 4, 7, 126
5, 79484, Control_c, 4, 7, 124
5, 79488, Control_c, 4, 7, 124
5, 79516, Control_c, 4, 7, 122
5, 79564, Control_c, 4, 7, 120
5, 79616, Control_c, 4, 7, 118
5, 79668, Control_c, 4, 7, 116
5, 79716, Control_c, 4, 7, 114
5, 79768, Control_c, 4, 7, 112
5, 79816, Control_c, 4, 7, 110
5, 79868, Control_c, 4, 7, 108
5, 79920, Control_c, 4, 7, 106
5, 79936, Control_c, 4, 7, 104
5, 79960, Control_c, 4, 7, 102
5, 79984, Control_c, 4, 7, 100
5, 80008, Control_c, 4, 7, 98
5, 80024, Control_c, 4, 7, 96
5, 80048, Control_c, 4, 7, 94
5, 80072, Control_c, 4, 7, 92
5, 80096, Control_c, 4, 7, 90
5, 80120, Control_c, 4, 7, 88
5, 80144, Control_c, 4, 7, 86
5, 80168, Control_c, 4, 7, 84
5, 80192, Control_c, 4, 7, 82
5, 80216, Control_c, 4, 7, 80
5, 80232, Control_c, 4, 7, 78
5, 80256, Control_c, 4, 7, 76
5, 80280, Control_c, 4, 7, 74
5, 80304, Control_c, 4, 7, 72
5, 80328, Control_c, 4, 7, 70
5, 80352, Control_c, 4, 7, 68
5, 80376, Control_c, 4, 7, 66
5, 80400, Control_c, 4, 7, 64
5, 80416, Control_c, 4, 7, 62
5, 80440, Control_c, 4, 7, 60
5, 80464, Control_c, 4, 7, 58
5, 80488, Control_c, 4, 7, 56
5, 80512, Control_c, 4, 7, 54
5, 80536, Control_c, 4, 7, 52
5, 80560, Control_c, 4, 7, 50
5, 80584, Control_c, 4, 7, 48
5, 80608, Control_c, 4, 7, 46
5, 80624, Control_c, 4, 7, 44
5, 80648, Control_c, 4, 7, 42
5, 80672, Control_c, 4, 7, 40
5, 80696, Control_c, 4, 7, 38
5, 80712, Control_c, 4, 7, 36
5, 80720, Control_c, 4, 7, 32
5, 80728, Control_c, 4, 7, 30
5, 80736, Control_c, 4, 7, 26
5, 80744, Control_c, 4, 7, 22
5, 80752, Control_c, 4, 7, 20
5, 80760, Control_c, 4, 7, 16
5, 80768, Control_c, 4, 7, 14
5, 80776, Control_c, 4, 7, 10
5, 80784, Control_c, 4, 7, 6
5, 80792, Control_c, 4, 7, 4
5, 80792, Note_on_c, 4, 57, 0
5, 80796, Note_on_c, 4, 60, 0
5, 80800, Control_c, 4, 7, 0
5, 80804, Note_on_c, 4, 53, 0
5, 80812, Note_on_c, 4, 65, 0
5, 81360, Control_c, 4, 7, 22
5, 81360, End_track
6, 0, Start_track
6, 0, MIDI_port, 0
6, 0, Title_t, "cello               "
6, 0, Program_c, 5, 42
6, 23620, Note_on_c, 5, 48, 115
6, 23816, Note_on_c, 5, 48, 0
6, 23824, Note_on_c, 5, 50, 92
6, 24156, Note_on_c, 5, 50, 0
6, 24194, Note_on_c, 5, 52, 110
6, 24372, Note_on_c, 5, 52, 0
6, 24384, Note_on_c, 5, 53, 118
6, 24466, Note_on_c, 5, 53, 0
6, 24484, Note_on_c, 5, 55, 100
6, 24556, Note_on_c, 5, 55, 0
6, 24580, Note_on_c, 5, 57, 101
6, 24854, Note_on_c, 5, 57, 0
6, 24862, Note_on_c, 5, 48, 105
6, 24960, Note_on_c, 5, 48, 0
6, 24964, Note_on_c, 5, 50, 112
6, 25238, Note_on_c, 5, 50, 0
6, 25246, Note_on_c, 5, 52, 122
6, 25286, Note_on_c, 5, 52, 0
6, 25290, Note_on_c, 5, 53, 114
6, 25342, Note_on_c, 5, 55, 112
6, 25342, Note_on_c, 5, 53, 0
6, 25464, Note_on_c, 5, 55, 0
6, 25480, Note_on_c, 5, 57, 97
6, 25528, Note_on_c, 5, 57, 0
6, 25530, Note_on_c, 5, 59, 127
6, 26080, Note_on_c, 5, 59, 0
6, 26110, Note_on_c, 5, 60, 127
6, 26498, Note_on_c, 5, 57, 97
6, 26498, Note_on_c, 5, 69, 127
6, 26500, Note_on_c, 5, 60, 0
6, 26502, Note_on_c, 5, 65, 127
6, 26676, Note_on_c, 5, 69, 0
6, 26678, Note_on_c, 5, 57, 0
6, 26686, Note_on_c, 5, 65, 0
6, 26692, Note_on_c, 5, 67, 127
6, 26696, Note_on_c, 5, 60, 96
6, 26702, Note_on_c, 5, 64, 127
6, 26852, Note_on_c, 5, 60, 0
6, 26868, Note_on_c, 5, 64, 0
6, 26886, Note_on_c, 5, 62, 127
6, 26886, Note_on_c, 5, 59, 127
6, 27234, Note_on_c, 5, 67, 0
6, 27248, Note_on_c, 5, 59, 0
6, 27256, Note_on_c, 5, 62, 0
6, 27266, Note_on_c, 5, 64, 122
6, 27268, Note_on_c, 5, 67, 127
6, 27272, Note_on_c, 5, 60, 127
6, 27432, Note_on_c, 5, 67, 0
6, 27452, Note_on_c, 5, 60, 0
6, 27452, Note_on_c, 5, 64, 0
6, 27464, Note_on_c, 5, 62, 126
6, 27464, Note_on_c, 5, 65, 127
6, 27468, Note_on_c, 5, 58, 118
6, 27622, Note_on_c, 5, 58, 0
6, 27630, Note_on_c, 5, 65, 0
6, 27636, Note_on_c, 5, 62, 0
6, 27654, Note_on_c, 5, 60, 127
6, 27656, Note_on_c, 5, 64, 127
6, 27660, Note_on_c, 5, 57, 127
6, 28008, Note_on_c, 5, 64, 0
6, 28022, Note_on_c, 5, 60, 0
6, 28030, Note_on_c, 5, 65, 127
6, 28036, Note_on_c, 5, 62, 127
6, 28404, Note_on_c, 5, 57, 0
6, 28406, Note_on_c, 5, 65, 0
6, 28416, Note_on_c, 5, 62, 0
6, 28422, Note_on_c, 5, 55, 107
6, 28422, Note_on_c, 5, 67, 127
6, 28428, Note_on_c, 5, 59, 124
6, 29174, Note_on_c, 5, 59, 0
6, 29176, Note_on_c, 5, 67, 0
6, 29188, Note_on_c, 5, 55, 0
6, 53946, Note_on_c, 5, 43, 87
6, 54138, Note_on_c, 5, 55, 113
6, 54150, Note_on_c, 5, 43, 0
6, 54422, Note_on_c, 5, 55, 0
6, 54434, Note_on_c, 5, 53, 102
6, 54538, Note_on_c, 5, 53, 0
6, 54540, Note_on_c, 5, 52, 89
6, 54904, Note_on_c, 5, 52, 0
6, 54926, Note_on_c, 5, 53, 83
6, 55092, Note_on_c, 5, 53, 0
6, 55106, Note_on_c, 5, 55, 127
6, 55194, Note_on_c, 5, 55, 0
6, 55202, Note_on_c, 5, 57, 127
6, 55286, Note_on_c, 5, 57, 0
6, 55300, Note_on_c, 5, 59, 127
6, 55662, Note_on_c, 5, 59, 0
6, 55676, Note_on_c, 5, 60, 121
6, 55862, Note_on_c, 5, 60, 0
6, 55874, Note_on_c, 5, 62, 98
6, 56052, Note_on_c, 5, 62, 0
6, 56068, Note_on_c, 5, 64, 120
6, 56260, Note_on_c, 5, 64, 0
6, 56270, Note_on_c, 5, 65, 85
6, 56350, Note_on_c, 5, 65, 0
6, 56360, Note_on_c, 5, 67, 127
6, 56442, Note_on_c, 5, 67, 0
6, 56456, Note_on_c, 5, 69, 127
6, 56714, Note_on_c, 5, 69, 0
6, 56730, Note_on_c, 5, 57, 127
6, 56822, Note_on_c, 5, 57, 0
6, 56830, Note_on_c, 5, 57, 127
6, 56852, Note_on_c, 5, 57, 0
6, 56854, Note_on_c, 5, 59, 114
6, 57124, Note_on_c, 5, 59, 0
6, 57132, Note_on_c, 5, 57, 92
6, 57216, Note_on_c, 5, 57, 0
6, 57230, Note_on_c, 5, 55, 105
6, 57618, Note_on_c, 5, 55, 0
6, 57618, End_track
7, 0, Start_track
7, 0, MIDI_port, 0
7, 0, Title_t, "pizz string         "
7, 0, Program_c, 7, 45
7, 4276, Note_on_c, 7, 57, 118
7, 4320, Note_on_c, 7, 60, 126
7, 4322, Note_on_c, 7, 57, 0
7, 4364, Note_on_c, 7, 60, 0
7, 4368, Note_on_c, 7, 57, 118
7, 4416, Note_on_c, 7, 57, 0
7, 4462, Note_on_c, 7, 59, 108
7, 4506, Note_on_c, 7, 62, 120
7, 4508, Note_on_c, 7, 59, 0
7, 4548, Note_on_c, 7, 62, 0
7, 4560, Note_on_c, 7, 59, 110
7, 4596, Note_on_c, 7, 59, 0
7, 4610, Note_on_c, 7, 60, 122
7, 4670, Note_on_c, 7, 60, 0
7, 22658, Note_on_c, 7, 53, 108
7, 22686, Note_on_c, 7, 53, 0
7, 22704, Note_on_c, 7, 57, 114
7, 22742, Note_on_c, 7, 57, 0
7, 22754, Note_on_c, 7, 60, 122
7, 22794, Note_on_c, 7, 57, 116
7, 22802, Note_on_c, 7, 60, 0
7, 22838, Note_on_c, 7, 57, 0
7, 22852, Note_on_c, 7, 55, 100
7, 22890, Note_on_c, 7, 55, 0
7, 22904, Note_on_c, 7, 59, 88
7, 22952, Note_on_c, 7, 62, 118
7, 22960, Note_on_c, 7, 59, 0
7, 22994, Note_on_c, 7, 59, 108
7, 23004, Note_on_c, 7, 62, 0
7, 23042, Note_on_c, 7, 59, 0
7, 23052, Note_on_c, 7, 60, 116
7, 23110, Note_on_c, 7, 60, 0
7, 47234, Note_on_c, 7, 53, 98
7, 47278, Note_on_c, 7, 57, 110
7, 47278, Note_on_c, 7, 53, 0
7, 47318, Note_on_c, 7, 57, 0
7, 47326, Note_on_c, 7, 60, 122
7, 47372, Note_on_c, 7, 60, 0
7, 47428, Note_on_c, 7, 55, 90
7, 47476, Note_on_c, 7, 59, 100
7, 47476, Note_on_c, 7, 55, 0
7, 47520, Note_on_c, 7, 62, 108
7, 47522, Note_on_c, 7, 59, 0
7, 47568, Note_on_c, 7, 62, 0
7, 47618, Note_on_c, 7, 60, 126
7, 47664, Note_on_c, 7, 60, 0
7, 51130, Note_on_c, 7, 57, 108
7, 51170, Note_on_c, 7, 57, 0
7, 51174, Note_on_c, 7, 60, 124
7, 51218, Note_on_c, 7, 60, 0
7, 51222, Note_on_c, 7, 57, 104
7, 51258, Note_on_c, 7, 57, 0
7, 51316, Note_on_c, 7, 59, 96
7, 51356, Note_on_c, 7, 59, 0
7, 51364, Note_on_c, 7, 62, 126
7, 51406, Note_on_c, 7, 62, 0
7, 51408, Note_on_c, 7, 59, 98
7, 51450, Note_on_c, 7, 59, 0
7, 51462, Note_on_c, 7, 60, 122
7, 51508, Note_on_c, 7, 60, 0
7, 51508, End_track
8, 0, Start_track
8, 0, MIDI_port, 0
8, 0, Title_t, "brass               "
8, 0, Program_c, 3, 61
8, 35420, Note_on_c, 3, 55, 127
8, 35446, Note_on_c, 3, 55, 0
8, 35470, Note_on_c, 3, 55, 114
8, 35492, Note_on_c, 3, 55, 0
8, 35512, Note_on_c, 3, 55, 127
8, 35596, Note_on_c, 3, 55, 0
8, 35614, Note_on_c, 3, 55, 118
8, 35638, Note_on_c, 3, 55, 0
8, 35658, Note_on_c, 3, 55, 98
8, 35686, Note_on_c, 3, 55, 0
8, 35704, Note_on_c, 3, 60, 127
8, 35888, Note_on_c, 3, 60, 0
8, 35898, Note_on_c, 3, 59, 117
8, 35998, Note_on_c, 3, 67, 104
8, 35998, Note_on_c, 3, 71, 104
8, 36002, Note_on_c, 3, 62, 104
8, 36034, Note_on_c, 3, 62, 0
8, 36036, Note_on_c, 3, 71, 0
8, 36036, Note_on_c, 3, 67, 0
8, 36092, Note_on_c, 3, 59, 0
8, 36102, Note_on_c, 3, 62, 104
8, 36104, Note_on_c, 3, 69, 104
8, 36104, Note_on_c, 3, 66, 104
8, 36452, Note_on_c, 3, 69, 0
8, 36456, Note_on_c, 3, 66, 0
8, 36458, Note_on_c, 3, 62, 0
8, 36476, Note_on_c, 3, 62, 127
8, 36574, Note_on_c, 3, 55, 112
8, 36578, Note_on_c, 3, 71, 122
8, 36610, Note_on_c, 3, 55, 0
8, 36618, Note_on_c, 3, 55, 110
8, 36620, Note_on_c, 3, 67, 118
8, 36650, Note_on_c, 3, 71, 0
8, 36652, Note_on_c, 3, 62, 0
8, 36658, Note_on_c, 3, 55, 0
8, 36664, Note_on_c, 3, 67, 0
8, 36668, Note_on_c, 3, 65, 116
8, 36670, Note_on_c, 3, 60, 116
8, 36730, Note_on_c, 3, 60, 0
8, 36730, Note_on_c, 3, 65, 0
8, 36760, Note_on_c, 3, 62, 110
8, 36764, Note_on_c, 3, 67, 110
8, 36766, Note_on_c, 3, 71, 110
8, 36766, Note_on_c, 3, 53, 127
8, 36802, Note_on_c, 3, 67, 0
8, 36804, Note_on_c, 3, 62, 0
8, 36804, Note_on_c, 3, 71, 0
8, 36806, Note_on_c, 3, 53, 0
8, 36814, Note_on_c, 3, 60, 108
8, 36816, Note_on_c, 3, 69, 108
8, 36818, Note_on_c, 3, 65, 106
8, 36844, Note_on_c, 3, 65, 0
8, 36848, Note_on_c, 3, 69, 0
8, 36848, Note_on_c, 3, 60, 0
8, 36866, Note_on_c, 3, 59, 118
8, 36866, Note_on_c, 3, 64, 118
8, 36866, Note_on_c, 3, 67, 118
8, 36952, Note_on_c, 3, 52, 127
8, 37228, Note_on_c, 3, 64, 0
8, 37230, Note_on_c, 3, 59, 0
8, 37230, Note_on_c, 3, 67, 0
8, 37242, Note_on_c, 3, 57, 127
8, 37244, Note_on_c, 3, 52, 0
8, 37618, Note_on_c, 3, 57, 0
8, 37640, Note_on_c, 3, 50, 102
8, 38382, Note_on_c, 3, 50, 0
8, 38502, Note_on_c, 3, 55, 127
8, 38526, Note_on_c, 3, 55, 0
8, 38556, Note_on_c, 3, 55, 105
8, 38578, Note_on_c, 3, 55, 0
8, 38600, Note_on_c, 3, 55, 127
8, 38652, Note_on_c, 3, 55, 0
8, 38686, Note_on_c, 3, 55, 127
8, 38734, Note_on_c, 3, 55, 0
8, 38784, Note_on_c, 3, 60, 127
8, 38946, Note_on_c, 3, 60, 0
8, 38980, Note_on_c, 3, 59, 127
8, 39068, Note_on_c, 3, 71, 90
8, 39072, Note_on_c, 3, 67, 106
8, 39072, Note_on_c, 3, 62, 104
8, 39114, Note_on_c, 3, 62, 0
8, 39114, Note_on_c, 3, 67, 0
8, 39116, Note_on_c, 3, 71, 0
8, 39136, Note_on_c, 3, 59, 0
8, 39174, Note_on_c, 3, 62, 105
8, 39174, Note_on_c, 3, 69, 127
8, 39176, Note_on_c, 3, 57, 127
8, 39176, Note_on_c, 3, 66, 127
8, 39488, Note_on_c, 3, 69, 0
8, 39502, Note_on_c, 3, 62, 0
8, 39504, Note_on_c, 3, 66, 0
8, 39532, Note_on_c, 3, 57, 0
8, 39556, Note_on_c, 3, 62, 118
8, 39652, Note_on_c, 3, 71, 76
8, 39656, Note_on_c, 3, 67, 69
8, 39656, Note_on_c, 3, 55, 127
8, 39678, Note_on_c, 3, 71, 0
8, 39682, Note_on_c, 3, 67, 0
8, 39694, Note_on_c, 3, 71, 110
8, 39696, Note_on_c, 3, 55, 0
8, 39700, Note_on_c, 3, 67, 76
8, 39706, Note_on_c, 3, 55, 87
8, 39726, Note_on_c, 3, 62, 0
8, 39728, Note_on_c, 3, 67, 0
8, 39730, Note_on_c, 3, 71, 0
8, 39746, Note_on_c, 3, 55, 0
8, 39752, Note_on_c, 3, 60, 127
8, 39840, Note_on_c, 3, 69, 109
8, 39842, Note_on_c, 3, 65, 58
8, 39846, Note_on_c, 3, 53, 127
8, 39872, Note_on_c, 3, 65, 0
8, 39874, Note_on_c, 3, 69, 0
8, 39894, Note_on_c, 3, 53, 0
8, 39922, Note_on_c, 3, 60, 0
8, 39936, Note_on_c, 3, 67, 127
8, 39938, Note_on_c, 3, 47, 61
8, 39938, Note_on_c, 3, 64, 127
8, 39940, Note_on_c, 3, 59, 61
8, 39940, Note_on_c, 3, 47, 0
8, 40042, Note_on_c, 3, 52, 127
8, 40238, Note_on_c, 3, 52, 0
8, 40326, Note_on_c, 3, 55, 127
8, 40348, Note_on_c, 3, 67, 0
8, 40352, Note_on_c, 3, 64, 0
8, 40354, Note_on_c, 3, 59, 0
8, 40584, Note_on_c, 3, 55, 0
8, 40604, Note_on_c, 3, 57, 112
8, 40606, Note_on_c, 3, 64, 126
8, 40606, Note_on_c, 3, 59, 87
8, 40608, Note_on_c, 3, 67, 108
8, 40642, Note_on_c, 3, 67, 0
8, 40644, Note_on_c, 3, 59, 0
8, 40648, Note_on_c, 3, 64, 0
8, 40650, Note_on_c, 3, 57, 0
8, 40710, Note_on_c, 3, 66, 127
8, 40710, Note_on_c, 3, 62, 82
8, 40712, Note_on_c, 3, 57, 93
8, 40714, Note_on_c, 3, 54, 110
8, 40990, Note_on_c, 3, 54, 0
8, 40996, Note_on_c, 3, 52, 106
8, 40998, Note_on_c, 3, 55, 108
8, 41042, Note_on_c, 3, 52, 0
8, 41044, Note_on_c, 3, 55, 0
8, 41050, Note_on_c, 3, 54, 114
8, 41050, Note_on_c, 3, 57, 114
8, 41050, Note_on_c, 3, 57, 0
8, 41094, Note_on_c, 3, 54, 0
8, 41100, Note_on_c, 3, 54, 118
8, 41104, Note_on_c, 3, 57, 120
8, 41104, Note_on_c, 3, 57, 0
8, 41292, Note_on_c, 3, 54, 0
8, 41298, Note_on_c, 3, 57, 0
8, 41312, Note_on_c, 3, 62, 0
8, 41312, Note_on_c, 3, 66, 0
8, 70372, Note_on_c, 3, 74, 127
8, 70408, Note_on_c, 3, 74, 0
8, 70420, Note_on_c, 3, 72, 82
8, 70450, Note_on_c, 3, 72, 0
8, 70470, Note_on_c, 3, 70, 108
8, 70554, Note_on_c, 3, 70, 0
8, 70564, Note_on_c, 3, 72, 127
8, 70598, Note_on_c, 3, 72, 0
8, 70610, Note_on_c, 3, 70, 93
8, 70644, Note_on_c, 3, 70, 51
8, 70644, Note_on_c, 3, 70, 0
8, 70652, Note_on_c, 3, 70, 0
8, 70662, Note_on_c, 3, 69, 95
8, 71000, Note_on_c, 3, 69, 0
8, 71134, Note_on_c, 3, 72, 127
8, 71172, Note_on_c, 3, 72, 0
8, 71182, Note_on_c, 3, 70, 92
8, 71222, Note_on_c, 3, 70, 0
8, 71232, Note_on_c, 3, 69, 127
8, 71320, Note_on_c, 3, 69, 0
8, 71328, Note_on_c, 3, 70, 127
8, 71366, Note_on_c, 3, 70, 0
8, 71378, Note_on_c, 3, 69, 86
8, 71408, Note_on_c, 3, 69, 0
8, 71428, Note_on_c, 3, 67, 127
8, 71798, Note_on_c, 3, 67, 0
8, 72254, Note_on_c, 3, 77, 127
8, 72256, Note_on_c, 3, 72, 127
8, 72256, Note_on_c, 3, 69, 101
8, 72298, Note_on_c, 3, 72, 0
8, 72300, Note_on_c, 3, 77, 0
8, 72302, Note_on_c, 3, 69, 0
8, 72374, Note_on_c, 3, 77, 118
8, 72374, Note_on_c, 3, 69, 126
8, 72376, Note_on_c, 3, 72, 127
8, 72564, Note_on_c, 3, 72, 0
8, 72572, Note_on_c, 3, 69, 0
8, 72572, Note_on_c, 3, 77, 0
8, 72628, Note_on_c, 3, 77, 127
8, 72630, Note_on_c, 3, 69, 103
8, 72632, Note_on_c, 3, 72, 56
8, 72678, Note_on_c, 3, 72, 0
8, 72678, Note_on_c, 3, 69, 0
8, 72678, Note_on_c, 3, 77, 0
8, 72758, Note_on_c, 3, 77, 127
8, 72758, Note_on_c, 3, 69, 118
8, 72758, Note_on_c, 3, 72, 127
8, 72930, Note_on_c, 3, 72, 0
8, 72930, Note_on_c, 3, 69, 0
8, 72930, Note_on_c, 3, 77, 0
8, 72930, End_track
9, 0, Start_track
9, 0, MIDI_port, 0
9, 0, Title_t, "Sysex"
9, 0, End_track
0, 0, End_of_file
