0, 0, Header, 1, 11, 120
1, 0, Start_track
1, 0, Title_t, "Top of The World"
1, 0, Copyright_t, "Copyright © 2000 by Atlantic Recording"
1, 0, Text_t, "Brandy(Featuring Mase"
1, 0, Text_t, "song # 5\012"
1, 0, Text_t, "This was too easy.  \012"
1, 0, Text_t, "E-mail comments to\012"
1, 0, Text_t, "KB_Replies@mailcity.com\012"
1, 0, Text_t, "origionally sequenced for Monte\012"
1, 0, Time_signature, 4, 2, 24, 8
1, 0, Key_signature, 0, "major"
1, 0, Tempo, 600000
1, 0, End_track
2, 0, Start_track
2, 0, MIDI_port, 0
2, 0, Title_t, ""
2, 0, Program_c, 0, 26
2, 0, Control_c, 0, 7, 80
2, 480, Note_on_c, 0, 32, 121
2, 510, Note_on_c, 0, 32, 0
2, 510, Note_on_c, 0, 32, 116
2, 540, Note_on_c, 0, 32, 0
2, 660, Note_on_c, 0, 30, 112
2, 690, Note_on_c, 0, 30, 0
2, 720, Note_on_c, 0, 32, 125
2, 765, Note_on_c, 0, 32, 0
2, 900, Note_on_c, 0, 35, 112
2, 930, Note_on_c, 0, 35, 0
2, 930, Note_on_c, 0, 32, 116
2, 960, Note_on_c, 0, 32, 0
2, 960, Note_on_c, 0, 35, 110
2, 990, Note_on_c, 0, 35, 0
2, 990, Note_on_c, 0, 37, 104
2, 1020, Note_on_c, 0, 37, 0
2, 1080, Note_on_c, 0, 25, 98
2, 1140, Note_on_c, 0, 25, 0
2, 1174, Note_on_c, 0, 44, 69
2, 1195, Note_on_c, 0, 44, 0
2, 1195, Note_on_c, 0, 47, 68
2, 1233, Note_on_c, 0, 44, 79
2, 1236, Note_on_c, 0, 47, 0
2, 1259, Note_on_c, 0, 44, 0
2, 1259, Note_on_c, 0, 47, 81
2, 1295, Note_on_c, 0, 49, 72
2, 1296, Note_on_c, 0, 47, 0
2, 1326, Note_on_c, 0, 49, 0
2, 1380, Note_on_c, 0, 32, 124
2, 1410, Note_on_c, 0, 32, 0
2, 1440, Note_on_c, 0, 32, 121
2, 1470, Note_on_c, 0, 32, 0
2, 1470, Note_on_c, 0, 32, 116
2, 1500, Note_on_c, 0, 32, 0
2, 1620, Note_on_c, 0, 30, 112
2, 1650, Note_on_c, 0, 30, 0
2, 1680, Note_on_c, 0, 32, 125
2, 1725, Note_on_c, 0, 32, 0
2, 1860, Note_on_c, 0, 35, 112
2, 1890, Note_on_c, 0, 35, 0
2, 1890, Note_on_c, 0, 32, 116
2, 1920, Note_on_c, 0, 32, 0
2, 1920, Note_on_c, 0, 35, 110
2, 1950, Note_on_c, 0, 35, 0
2, 1950, Note_on_c, 0, 37, 104
2, 1980, Note_on_c, 0, 37, 0
2, 2040, Note_on_c, 0, 25, 98
2, 2100, Note_on_c, 0, 25, 0
2, 2134, Note_on_c, 0, 44, 69
2, 2155, Note_on_c, 0, 44, 0
2, 2155, Note_on_c, 0, 47, 68
2, 2193, Note_on_c, 0, 44, 79
2, 2196, Note_on_c, 0, 47, 0
2, 2219, Note_on_c, 0, 44, 0
2, 2219, Note_on_c, 0, 47, 81
2, 2255, Note_on_c, 0, 49, 72
2, 2256, Note_on_c, 0, 47, 0
2, 2286, Note_on_c, 0, 49, 0
2, 2340, Note_on_c, 0, 32, 124
2, 2370, Note_on_c, 0, 32, 0
2, 2400, Note_on_c, 0, 32, 121
2, 2430, Note_on_c, 0, 32, 0
2, 2430, Note_on_c, 0, 32, 116
2, 2460, Note_on_c, 0, 32, 0
2, 2580, Note_on_c, 0, 30, 112
2, 2610, Note_on_c, 0, 30, 0
2, 2640, Note_on_c, 0, 32, 125
2, 2685, Note_on_c, 0, 32, 0
2, 2820, Note_on_c, 0, 35, 112
2, 2850, Note_on_c, 0, 35, 0
2, 2850, Note_on_c, 0, 32, 116
2, 2880, Note_on_c, 0, 32, 0
2, 2880, Note_on_c, 0, 35, 110
2, 2910, Note_on_c, 0, 35, 0
2, 2910, Note_on_c, 0, 37, 104
2, 2940, Note_on_c, 0, 37, 0
2, 3000, Note_on_c, 0, 25, 98
2, 3060, Note_on_c, 0, 25, 0
2, 3094, Note_on_c, 0, 44, 69
2, 3115, Note_on_c, 0, 44, 0
2, 3115, Note_on_c, 0, 47, 68
2, 3153, Note_on_c, 0, 44, 79
2, 3156, Note_on_c, 0, 47, 0
2, 3179, Note_on_c, 0, 44, 0
2, 3179, Note_on_c, 0, 47, 81
2, 3215, Note_on_c, 0, 49, 72
2, 3216, Note_on_c, 0, 47, 0
2, 3246, Note_on_c, 0, 49, 0
2, 3300, Note_on_c, 0, 32, 124
2, 3330, Note_on_c, 0, 32, 0
2, 3360, Note_on_c, 0, 32, 121
2, 3390, Note_on_c, 0, 32, 0
2, 3390, Note_on_c, 0, 32, 116
2, 3420, Note_on_c, 0, 32, 0
2, 3540, Note_on_c, 0, 30, 112
2, 3570, Note_on_c, 0, 30, 0
2, 3600, Note_on_c, 0, 32, 125
2, 3645, Note_on_c, 0, 32, 0
2, 3780, Note_on_c, 0, 35, 112
2, 3810, Note_on_c, 0, 35, 0
2, 3810, Note_on_c, 0, 32, 116
2, 3840, Note_on_c, 0, 32, 0
2, 3840, Note_on_c, 0, 35, 110
2, 3870, Note_on_c, 0, 35, 0
2, 3870, Note_on_c, 0, 37, 104
2, 3900, Note_on_c, 0, 37, 0
2, 3960, Note_on_c, 0, 25, 98
2, 4020, Note_on_c, 0, 25, 0
2, 4054, Note_on_c, 0, 44, 69
2, 4075, Note_on_c, 0, 44, 0
2, 4075, Note_on_c, 0, 47, 68
2, 4113, Note_on_c, 0, 44, 79
2, 4116, Note_on_c, 0, 47, 0
2, 4139, Note_on_c, 0, 44, 0
2, 4139, Note_on_c, 0, 47, 81
2, 4175, Note_on_c, 0, 49, 72
2, 4176, Note_on_c, 0, 47, 0
2, 4206, Note_on_c, 0, 49, 0
2, 4260, Note_on_c, 0, 32, 124
2, 4290, Note_on_c, 0, 32, 0
2, 4320, Note_on_c, 0, 32, 121
2, 4350, Note_on_c, 0, 32, 0
2, 4350, Note_on_c, 0, 32, 116
2, 4380, Note_on_c, 0, 32, 0
2, 4500, Note_on_c, 0, 30, 112
2, 4530, Note_on_c, 0, 30, 0
2, 4560, Note_on_c, 0, 32, 125
2, 4605, Note_on_c, 0, 32, 0
2, 4740, Note_on_c, 0, 35, 112
2, 4770, Note_on_c, 0, 35, 0
2, 4770, Note_on_c, 0, 32, 116
2, 4800, Note_on_c, 0, 32, 0
2, 4800, Note_on_c, 0, 35, 110
2, 4830, Note_on_c, 0, 35, 0
2, 4830, Note_on_c, 0, 37, 104
2, 4860, Note_on_c, 0, 37, 0
2, 4920, Note_on_c, 0, 25, 98
2, 4980, Note_on_c, 0, 25, 0
2, 5014, Note_on_c, 0, 44, 69
2, 5035, Note_on_c, 0, 44, 0
2, 5035, Note_on_c, 0, 47, 68
2, 5073, Note_on_c, 0, 44, 79
2, 5076, Note_on_c, 0, 47, 0
2, 5099, Note_on_c, 0, 44, 0
2, 5099, Note_on_c, 0, 47, 81
2, 5135, Note_on_c, 0, 49, 72
2, 5136, Note_on_c, 0, 47, 0
2, 5166, Note_on_c, 0, 49, 0
2, 5220, Note_on_c, 0, 32, 124
2, 5250, Note_on_c, 0, 32, 0
2, 5280, Note_on_c, 0, 32, 121
2, 5310, Note_on_c, 0, 32, 0
2, 5310, Note_on_c, 0, 32, 116
2, 5340, Note_on_c, 0, 32, 0
2, 5460, Note_on_c, 0, 30, 112
2, 5490, Note_on_c, 0, 30, 0
2, 5520, Note_on_c, 0, 32, 125
2, 5565, Note_on_c, 0, 32, 0
2, 5700, Note_on_c, 0, 35, 112
2, 5730, Note_on_c, 0, 35, 0
2, 5730, Note_on_c, 0, 32, 116
2, 5760, Note_on_c, 0, 32, 0
2, 5760, Note_on_c, 0, 35, 110
2, 5790, Note_on_c, 0, 35, 0
2, 5790, Note_on_c, 0, 37, 104
2, 5820, Note_on_c, 0, 37, 0
2, 5880, Note_on_c, 0, 25, 98
2, 5940, Note_on_c, 0, 25, 0
2, 5974, Note_on_c, 0, 44, 69
2, 5995, Note_on_c, 0, 44, 0
2, 5995, Note_on_c, 0, 47, 68
2, 6033, Note_on_c, 0, 44, 79
2, 6036, Note_on_c, 0, 47, 0
2, 6059, Note_on_c, 0, 44, 0
2, 6059, Note_on_c, 0, 47, 81
2, 6095, Note_on_c, 0, 49, 72
2, 6096, Note_on_c, 0, 47, 0
2, 6126, Note_on_c, 0, 49, 0
2, 6180, Note_on_c, 0, 32, 124
2, 6210, Note_on_c, 0, 32, 0
2, 6240, Note_on_c, 0, 32, 121
2, 6270, Note_on_c, 0, 32, 0
2, 6270, Note_on_c, 0, 32, 116
2, 6300, Note_on_c, 0, 32, 0
2, 6420, Note_on_c, 0, 30, 112
2, 6450, Note_on_c, 0, 30, 0
2, 6480, Note_on_c, 0, 32, 125
2, 6525, Note_on_c, 0, 32, 0
2, 6660, Note_on_c, 0, 35, 112
2, 6690, Note_on_c, 0, 35, 0
2, 6690, Note_on_c, 0, 32, 116
2, 6720, Note_on_c, 0, 32, 0
2, 6720, Note_on_c, 0, 35, 110
2, 6750, Note_on_c, 0, 35, 0
2, 6750, Note_on_c, 0, 37, 104
2, 6780, Note_on_c, 0, 37, 0
2, 6840, Note_on_c, 0, 25, 98
2, 6900, Note_on_c, 0, 25, 0
2, 6934, Note_on_c, 0, 44, 69
2, 6955, Note_on_c, 0, 44, 0
2, 6955, Note_on_c, 0, 47, 68
2, 6993, Note_on_c, 0, 44, 79
2, 6996, Note_on_c, 0, 47, 0
2, 7019, Note_on_c, 0, 44, 0
2, 7019, Note_on_c, 0, 47, 81
2, 7055, Note_on_c, 0, 49, 72
2, 7056, Note_on_c, 0, 47, 0
2, 7086, Note_on_c, 0, 49, 0
2, 7140, Note_on_c, 0, 32, 124
2, 7170, Note_on_c, 0, 32, 0
2, 7200, Note_on_c, 0, 32, 121
2, 7230, Note_on_c, 0, 32, 0
2, 7230, Note_on_c, 0, 32, 116
2, 7260, Note_on_c, 0, 32, 0
2, 7380, Note_on_c, 0, 30, 112
2, 7410, Note_on_c, 0, 30, 0
2, 7440, Note_on_c, 0, 32, 125
2, 7485, Note_on_c, 0, 32, 0
2, 7620, Note_on_c, 0, 35, 112
2, 7650, Note_on_c, 0, 35, 0
2, 7650, Note_on_c, 0, 32, 116
2, 7680, Note_on_c, 0, 32, 0
2, 7680, Note_on_c, 0, 35, 110
2, 7710, Note_on_c, 0, 35, 0
2, 7710, Note_on_c, 0, 37, 104
2, 7740, Note_on_c, 0, 37, 0
2, 7800, Note_on_c, 0, 25, 98
2, 7860, Note_on_c, 0, 25, 0
2, 7894, Note_on_c, 0, 44, 69
2, 7915, Note_on_c, 0, 44, 0
2, 7915, Note_on_c, 0, 47, 68
2, 7953, Note_on_c, 0, 44, 79
2, 7956, Note_on_c, 0, 47, 0
2, 7979, Note_on_c, 0, 44, 0
2, 7979, Note_on_c, 0, 47, 81
2, 8015, Note_on_c, 0, 49, 72
2, 8016, Note_on_c, 0, 47, 0
2, 8046, Note_on_c, 0, 49, 0
2, 8100, Note_on_c, 0, 32, 124
2, 8130, Note_on_c, 0, 32, 0
2, 8160, Note_on_c, 0, 32, 121
2, 8190, Note_on_c, 0, 32, 0
2, 8190, Note_on_c, 0, 32, 116
2, 8220, Note_on_c, 0, 32, 0
2, 8340, Note_on_c, 0, 30, 112
2, 8370, Note_on_c, 0, 30, 0
2, 8400, Note_on_c, 0, 32, 125
2, 8445, Note_on_c, 0, 32, 0
2, 8580, Note_on_c, 0, 35, 112
2, 8610, Note_on_c, 0, 35, 0
2, 8610, Note_on_c, 0, 32, 116
2, 8640, Note_on_c, 0, 32, 0
2, 8640, Note_on_c, 0, 35, 110
2, 8670, Note_on_c, 0, 35, 0
2, 8670, Note_on_c, 0, 37, 104
2, 8700, Note_on_c, 0, 37, 0
2, 8760, Note_on_c, 0, 25, 98
2, 8820, Note_on_c, 0, 25, 0
2, 8854, Note_on_c, 0, 44, 69
2, 8875, Note_on_c, 0, 44, 0
2, 8875, Note_on_c, 0, 47, 68
2, 8913, Note_on_c, 0, 44, 79
2, 8916, Note_on_c, 0, 47, 0
2, 8939, Note_on_c, 0, 44, 0
2, 8939, Note_on_c, 0, 47, 81
2, 8975, Note_on_c, 0, 49, 72
2, 8976, Note_on_c, 0, 47, 0
2, 9006, Note_on_c, 0, 49, 0
2, 9060, Note_on_c, 0, 32, 124
2, 9090, Note_on_c, 0, 32, 0
2, 9120, Note_on_c, 0, 32, 121
2, 9150, Note_on_c, 0, 32, 0
2, 9150, Note_on_c, 0, 32, 116
2, 9180, Note_on_c, 0, 32, 0
2, 9300, Note_on_c, 0, 30, 112
2, 9330, Note_on_c, 0, 30, 0
2, 9360, Note_on_c, 0, 32, 125
2, 9405, Note_on_c, 0, 32, 0
2, 9540, Note_on_c, 0, 35, 112
2, 9570, Note_on_c, 0, 35, 0
2, 9570, Note_on_c, 0, 32, 116
2, 9600, Note_on_c, 0, 32, 0
2, 9600, Note_on_c, 0, 35, 110
2, 9630, Note_on_c, 0, 35, 0
2, 9630, Note_on_c, 0, 37, 104
2, 9660, Note_on_c, 0, 37, 0
2, 9720, Note_on_c, 0, 25, 98
2, 9780, Note_on_c, 0, 25, 0
2, 9814, Note_on_c, 0, 44, 69
2, 9835, Note_on_c, 0, 44, 0
2, 9835, Note_on_c, 0, 47, 68
2, 9873, Note_on_c, 0, 44, 79
2, 9876, Note_on_c, 0, 47, 0
2, 9899, Note_on_c, 0, 44, 0
2, 9899, Note_on_c, 0, 47, 81
2, 9935, Note_on_c, 0, 49, 72
2, 9936, Note_on_c, 0, 47, 0
2, 9966, Note_on_c, 0, 49, 0
2, 10020, Note_on_c, 0, 32, 124
2, 10050, Note_on_c, 0, 32, 0
2, 10080, Note_on_c, 0, 32, 121
2, 10110, Note_on_c, 0, 32, 0
2, 10110, Note_on_c, 0, 32, 116
2, 10140, Note_on_c, 0, 32, 0
2, 10260, Note_on_c, 0, 30, 112
2, 10290, Note_on_c, 0, 30, 0
2, 10320, Note_on_c, 0, 32, 125
2, 10365, Note_on_c, 0, 32, 0
2, 10500, Note_on_c, 0, 35, 112
2, 10530, Note_on_c, 0, 35, 0
2, 10530, Note_on_c, 0, 32, 116
2, 10560, Note_on_c, 0, 32, 0
2, 10560, Note_on_c, 0, 35, 110
2, 10590, Note_on_c, 0, 35, 0
2, 10590, Note_on_c, 0, 37, 104
2, 10620, Note_on_c, 0, 37, 0
2, 10680, Note_on_c, 0, 25, 98
2, 10740, Note_on_c, 0, 25, 0
2, 10774, Note_on_c, 0, 44, 69
2, 10795, Note_on_c, 0, 44, 0
2, 10795, Note_on_c, 0, 47, 68
2, 10833, Note_on_c, 0, 44, 79
2, 10836, Note_on_c, 0, 47, 0
2, 10859, Note_on_c, 0, 44, 0
2, 10859, Note_on_c, 0, 47, 81
2, 10895, Note_on_c, 0, 49, 72
2, 10896, Note_on_c, 0, 47, 0
2, 10926, Note_on_c, 0, 49, 0
2, 10980, Note_on_c, 0, 32, 124
2, 11010, Note_on_c, 0, 32, 0
2, 11040, Note_on_c, 0, 32, 121
2, 11070, Note_on_c, 0, 32, 0
2, 11070, Note_on_c, 0, 32, 116
2, 11100, Note_on_c, 0, 32, 0
2, 11220, Note_on_c, 0, 30, 112
2, 11250, Note_on_c, 0, 30, 0
2, 11280, Note_on_c, 0, 32, 125
2, 11325, Note_on_c, 0, 32, 0
2, 11460, Note_on_c, 0, 35, 112
2, 11490, Note_on_c, 0, 35, 0
2, 11490, Note_on_c, 0, 32, 116
2, 11520, Note_on_c, 0, 32, 0
2, 11520, Note_on_c, 0, 35, 110
2, 11550, Note_on_c, 0, 35, 0
2, 11550, Note_on_c, 0, 37, 104
2, 11580, Note_on_c, 0, 37, 0
2, 11640, Note_on_c, 0, 25, 98
2, 11700, Note_on_c, 0, 25, 0
2, 11734, Note_on_c, 0, 44, 69
2, 11755, Note_on_c, 0, 44, 0
2, 11755, Note_on_c, 0, 47, 68
2, 11793, Note_on_c, 0, 44, 79
2, 11796, Note_on_c, 0, 47, 0
2, 11819, Note_on_c, 0, 44, 0
2, 11819, Note_on_c, 0, 47, 81
2, 11855, Note_on_c, 0, 49, 72
2, 11856, Note_on_c, 0, 47, 0
2, 11886, Note_on_c, 0, 49, 0
2, 11940, Note_on_c, 0, 32, 124
2, 11970, Note_on_c, 0, 32, 0
2, 12000, Note_on_c, 0, 32, 121
2, 12030, Note_on_c, 0, 32, 0
2, 12030, Note_on_c, 0, 32, 116
2, 12060, Note_on_c, 0, 32, 0
2, 12180, Note_on_c, 0, 30, 112
2, 12210, Note_on_c, 0, 30, 0
2, 12240, Note_on_c, 0, 32, 125
2, 12285, Note_on_c, 0, 32, 0
2, 12420, Note_on_c, 0, 35, 112
2, 12450, Note_on_c, 0, 35, 0
2, 12450, Note_on_c, 0, 32, 116
2, 12480, Note_on_c, 0, 32, 0
2, 12480, Note_on_c, 0, 35, 110
2, 12510, Note_on_c, 0, 35, 0
2, 12510, Note_on_c, 0, 37, 104
2, 12540, Note_on_c, 0, 37, 0
2, 12600, Note_on_c, 0, 25, 98
2, 12660, Note_on_c, 0, 25, 0
2, 12694, Note_on_c, 0, 44, 69
2, 12715, Note_on_c, 0, 44, 0
2, 12715, Note_on_c, 0, 47, 68
2, 12753, Note_on_c, 0, 44, 79
2, 12756, Note_on_c, 0, 47, 0
2, 12779, Note_on_c, 0, 44, 0
2, 12779, Note_on_c, 0, 47, 81
2, 12815, Note_on_c, 0, 49, 72
2, 12816, Note_on_c, 0, 47, 0
2, 12846, Note_on_c, 0, 49, 0
2, 12900, Note_on_c, 0, 32, 124
2, 12930, Note_on_c, 0, 32, 0
2, 12960, Note_on_c, 0, 32, 121
2, 12990, Note_on_c, 0, 32, 0
2, 12990, Note_on_c, 0, 32, 116
2, 13020, Note_on_c, 0, 32, 0
2, 13140, Note_on_c, 0, 30, 112
2, 13170, Note_on_c, 0, 30, 0
2, 13200, Note_on_c, 0, 32, 125
2, 13245, Note_on_c, 0, 32, 0
2, 13380, Note_on_c, 0, 35, 112
2, 13410, Note_on_c, 0, 35, 0
2, 13410, Note_on_c, 0, 32, 116
2, 13440, Note_on_c, 0, 32, 0
2, 13440, Note_on_c, 0, 35, 110
2, 13470, Note_on_c, 0, 35, 0
2, 13470, Note_on_c, 0, 37, 104
2, 13500, Note_on_c, 0, 37, 0
2, 13560, Note_on_c, 0, 25, 98
2, 13620, Note_on_c, 0, 25, 0
2, 13654, Note_on_c, 0, 44, 69
2, 13675, Note_on_c, 0, 44, 0
2, 13675, Note_on_c, 0, 47, 68
2, 13713, Note_on_c, 0, 44, 79
2, 13716, Note_on_c, 0, 47, 0
2, 13739, Note_on_c, 0, 44, 0
2, 13739, Note_on_c, 0, 47, 81
2, 13775, Note_on_c, 0, 49, 72
2, 13776, Note_on_c, 0, 47, 0
2, 13806, Note_on_c, 0, 49, 0
2, 13860, Note_on_c, 0, 32, 124
2, 13890, Note_on_c, 0, 32, 0
2, 13920, Note_on_c, 0, 32, 117
2, 13950, Note_on_c, 0, 32, 0
2, 13950, Note_on_c, 0, 32, 120
2, 13980, Note_on_c, 0, 32, 0
2, 14100, Note_on_c, 0, 30, 117
2, 14130, Note_on_c, 0, 30, 0
2, 14160, Note_on_c, 0, 32, 120
2, 14190, Note_on_c, 0, 32, 0
2, 14340, Note_on_c, 0, 35, 117
2, 14370, Note_on_c, 0, 35, 0
2, 14370, Note_on_c, 0, 32, 121
2, 14400, Note_on_c, 0, 32, 0
2, 14400, Note_on_c, 0, 35, 116
2, 14430, Note_on_c, 0, 35, 0
2, 14430, Note_on_c, 0, 37, 106
2, 14460, Note_on_c, 0, 37, 0
2, 14520, Note_on_c, 0, 35, 120
2, 14550, Note_on_c, 0, 35, 0
2, 14550, Note_on_c, 0, 37, 106
2, 14580, Note_on_c, 0, 37, 0
2, 14640, Note_on_c, 0, 35, 108
2, 14670, Note_on_c, 0, 35, 0
2, 14670, Note_on_c, 0, 37, 102
2, 14700, Note_on_c, 0, 37, 0
2, 14700, Note_on_c, 0, 35, 101
2, 14730, Note_on_c, 0, 35, 0
2, 14730, Note_on_c, 0, 37, 112
2, 14760, Note_on_c, 0, 37, 0
2, 14760, Note_on_c, 0, 35, 113
2, 14790, Note_on_c, 0, 35, 0
2, 14790, Note_on_c, 0, 37, 113
2, 14820, Note_on_c, 0, 37, 0
2, 14820, Note_on_c, 0, 32, 121
2, 14880, Note_on_c, 0, 32, 0
2, 14880, Note_on_c, 0, 32, 121
2, 14910, Note_on_c, 0, 32, 0
2, 14910, Note_on_c, 0, 32, 116
2, 14940, Note_on_c, 0, 32, 0
2, 15060, Note_on_c, 0, 30, 112
2, 15090, Note_on_c, 0, 30, 0
2, 15120, Note_on_c, 0, 32, 125
2, 15165, Note_on_c, 0, 32, 0
2, 15300, Note_on_c, 0, 35, 112
2, 15330, Note_on_c, 0, 35, 0
2, 15330, Note_on_c, 0, 32, 116
2, 15360, Note_on_c, 0, 32, 0
2, 15360, Note_on_c, 0, 35, 110
2, 15390, Note_on_c, 0, 35, 0
2, 15390, Note_on_c, 0, 37, 104
2, 15420, Note_on_c, 0, 37, 0
2, 15480, Note_on_c, 0, 25, 98
2, 15540, Note_on_c, 0, 25, 0
2, 15574, Note_on_c, 0, 44, 69
2, 15595, Note_on_c, 0, 44, 0
2, 15595, Note_on_c, 0, 47, 68
2, 15633, Note_on_c, 0, 44, 79
2, 15636, Note_on_c, 0, 47, 0
2, 15659, Note_on_c, 0, 44, 0
2, 15659, Note_on_c, 0, 47, 81
2, 15695, Note_on_c, 0, 49, 72
2, 15696, Note_on_c, 0, 47, 0
2, 15726, Note_on_c, 0, 49, 0
2, 15780, Note_on_c, 0, 32, 124
2, 15810, Note_on_c, 0, 32, 0
2, 15840, Note_on_c, 0, 32, 121
2, 15870, Note_on_c, 0, 32, 0
2, 15870, Note_on_c, 0, 32, 116
2, 15900, Note_on_c, 0, 32, 0
2, 16020, Note_on_c, 0, 30, 112
2, 16050, Note_on_c, 0, 30, 0
2, 16080, Note_on_c, 0, 32, 125
2, 16125, Note_on_c, 0, 32, 0
2, 16260, Note_on_c, 0, 35, 112
2, 16290, Note_on_c, 0, 35, 0
2, 16290, Note_on_c, 0, 32, 116
2, 16320, Note_on_c, 0, 32, 0
2, 16320, Note_on_c, 0, 35, 110
2, 16350, Note_on_c, 0, 35, 0
2, 16350, Note_on_c, 0, 37, 104
2, 16380, Note_on_c, 0, 37, 0
2, 16440, Note_on_c, 0, 25, 98
2, 16500, Note_on_c, 0, 25, 0
2, 16534, Note_on_c, 0, 44, 69
2, 16555, Note_on_c, 0, 44, 0
2, 16555, Note_on_c, 0, 47, 68
2, 16593, Note_on_c, 0, 44, 79
2, 16596, Note_on_c, 0, 47, 0
2, 16619, Note_on_c, 0, 44, 0
2, 16619, Note_on_c, 0, 47, 81
2, 16655, Note_on_c, 0, 49, 72
2, 16656, Note_on_c, 0, 47, 0
2, 16686, Note_on_c, 0, 49, 0
2, 16740, Note_on_c, 0, 32, 124
2, 16770, Note_on_c, 0, 32, 0
2, 16800, Note_on_c, 0, 32, 121
2, 16830, Note_on_c, 0, 32, 0
2, 16830, Note_on_c, 0, 32, 116
2, 16860, Note_on_c, 0, 32, 0
2, 16980, Note_on_c, 0, 30, 112
2, 17010, Note_on_c, 0, 30, 0
2, 17040, Note_on_c, 0, 32, 125
2, 17085, Note_on_c, 0, 32, 0
2, 17220, Note_on_c, 0, 35, 112
2, 17250, Note_on_c, 0, 35, 0
2, 17250, Note_on_c, 0, 32, 116
2, 17280, Note_on_c, 0, 32, 0
2, 17280, Note_on_c, 0, 35, 110
2, 17310, Note_on_c, 0, 35, 0
2, 17310, Note_on_c, 0, 37, 104
2, 17340, Note_on_c, 0, 37, 0
2, 17400, Note_on_c, 0, 25, 98
2, 17460, Note_on_c, 0, 25, 0
2, 17494, Note_on_c, 0, 44, 69
2, 17515, Note_on_c, 0, 44, 0
2, 17515, Note_on_c, 0, 47, 68
2, 17553, Note_on_c, 0, 44, 79
2, 17556, Note_on_c, 0, 47, 0
2, 17579, Note_on_c, 0, 44, 0
2, 17579, Note_on_c, 0, 47, 81
2, 17615, Note_on_c, 0, 49, 72
2, 17616, Note_on_c, 0, 47, 0
2, 17646, Note_on_c, 0, 49, 0
2, 17700, Note_on_c, 0, 32, 124
2, 17730, Note_on_c, 0, 32, 0
2, 17760, Note_on_c, 0, 32, 121
2, 17790, Note_on_c, 0, 32, 0
2, 17790, Note_on_c, 0, 32, 116
2, 17820, Note_on_c, 0, 32, 0
2, 17940, Note_on_c, 0, 30, 112
2, 17970, Note_on_c, 0, 30, 0
2, 18000, Note_on_c, 0, 32, 125
2, 18045, Note_on_c, 0, 32, 0
2, 18180, Note_on_c, 0, 35, 112
2, 18210, Note_on_c, 0, 35, 0
2, 18210, Note_on_c, 0, 32, 116
2, 18240, Note_on_c, 0, 32, 0
2, 18240, Note_on_c, 0, 35, 116
2, 18270, Note_on_c, 0, 35, 0
2, 18270, Note_on_c, 0, 37, 106
2, 18300, Note_on_c, 0, 37, 0
2, 18360, Note_on_c, 0, 35, 120
2, 18390, Note_on_c, 0, 35, 0
2, 18390, Note_on_c, 0, 37, 106
2, 18420, Note_on_c, 0, 37, 0
2, 18480, Note_on_c, 0, 35, 108
2, 18510, Note_on_c, 0, 35, 0
2, 18510, Note_on_c, 0, 37, 102
2, 18540, Note_on_c, 0, 37, 0
2, 18540, Note_on_c, 0, 35, 101
2, 18570, Note_on_c, 0, 35, 0
2, 18570, Note_on_c, 0, 37, 112
2, 18600, Note_on_c, 0, 37, 0
2, 18600, Note_on_c, 0, 35, 113
2, 18630, Note_on_c, 0, 35, 0
2, 18630, Note_on_c, 0, 37, 113
2, 18660, Note_on_c, 0, 37, 0
2, 18660, Note_on_c, 0, 32, 121
2, 18720, Note_on_c, 0, 32, 0
2, 18900, Note_on_c, 0, 30, 112
2, 18930, Note_on_c, 0, 30, 0
2, 18960, Note_on_c, 0, 32, 125
2, 19005, Note_on_c, 0, 32, 0
2, 19140, Note_on_c, 0, 35, 112
2, 19170, Note_on_c, 0, 35, 0
2, 19170, Note_on_c, 0, 32, 116
2, 19200, Note_on_c, 0, 32, 0
2, 19200, Note_on_c, 0, 35, 110
2, 19230, Note_on_c, 0, 35, 0
2, 19230, Note_on_c, 0, 37, 104
2, 19260, Note_on_c, 0, 37, 0
2, 19320, Note_on_c, 0, 25, 98
2, 19380, Note_on_c, 0, 25, 0
2, 19414, Note_on_c, 0, 44, 69
2, 19435, Note_on_c, 0, 44, 0
2, 19435, Note_on_c, 0, 47, 68
2, 19473, Note_on_c, 0, 44, 79
2, 19476, Note_on_c, 0, 47, 0
2, 19499, Note_on_c, 0, 44, 0
2, 19499, Note_on_c, 0, 47, 81
2, 19535, Note_on_c, 0, 49, 72
2, 19536, Note_on_c, 0, 47, 0
2, 19566, Note_on_c, 0, 49, 0
2, 19620, Note_on_c, 0, 32, 124
2, 19650, Note_on_c, 0, 32, 0
2, 19680, Note_on_c, 0, 32, 121
2, 19710, Note_on_c, 0, 32, 0
2, 19710, Note_on_c, 0, 32, 116
2, 19740, Note_on_c, 0, 32, 0
2, 19860, Note_on_c, 0, 30, 112
2, 19890, Note_on_c, 0, 30, 0
2, 19920, Note_on_c, 0, 32, 125
2, 19965, Note_on_c, 0, 32, 0
2, 20100, Note_on_c, 0, 35, 112
2, 20130, Note_on_c, 0, 35, 0
2, 20130, Note_on_c, 0, 32, 116
2, 20160, Note_on_c, 0, 32, 0
2, 20160, Note_on_c, 0, 35, 110
2, 20190, Note_on_c, 0, 35, 0
2, 20190, Note_on_c, 0, 37, 104
2, 20220, Note_on_c, 0, 37, 0
2, 20280, Note_on_c, 0, 25, 98
2, 20340, Note_on_c, 0, 25, 0
2, 20374, Note_on_c, 0, 44, 69
2, 20395, Note_on_c, 0, 44, 0
2, 20395, Note_on_c, 0, 47, 68
2, 20433, Note_on_c, 0, 44, 79
2, 20436, Note_on_c, 0, 47, 0
2, 20459, Note_on_c, 0, 44, 0
2, 20459, Note_on_c, 0, 47, 81
2, 20495, Note_on_c, 0, 49, 72
2, 20496, Note_on_c, 0, 47, 0
2, 20526, Note_on_c, 0, 49, 0
2, 20580, Note_on_c, 0, 32, 124
2, 20610, Note_on_c, 0, 32, 0
2, 20640, Note_on_c, 0, 32, 121
2, 20670, Note_on_c, 0, 32, 0
2, 20670, Note_on_c, 0, 32, 116
2, 20700, Note_on_c, 0, 32, 0
2, 20820, Note_on_c, 0, 30, 112
2, 20850, Note_on_c, 0, 30, 0
2, 21060, Note_on_c, 0, 35, 112
2, 21090, Note_on_c, 0, 35, 0
2, 21090, Note_on_c, 0, 32, 116
2, 21120, Note_on_c, 0, 32, 0
2, 21120, Note_on_c, 0, 35, 110
2, 21150, Note_on_c, 0, 35, 0
2, 21150, Note_on_c, 0, 37, 104
2, 21180, Note_on_c, 0, 37, 0
2, 21240, Note_on_c, 0, 25, 98
2, 21300, Note_on_c, 0, 25, 0
2, 21334, Note_on_c, 0, 44, 69
2, 21355, Note_on_c, 0, 44, 0
2, 21355, Note_on_c, 0, 47, 68
2, 21393, Note_on_c, 0, 44, 79
2, 21396, Note_on_c, 0, 47, 0
2, 21419, Note_on_c, 0, 44, 0
2, 21419, Note_on_c, 0, 47, 81
2, 21455, Note_on_c, 0, 49, 72
2, 21456, Note_on_c, 0, 47, 0
2, 21486, Note_on_c, 0, 49, 0
2, 21540, Note_on_c, 0, 32, 124
2, 21570, Note_on_c, 0, 32, 0
2, 21600, Note_on_c, 0, 32, 121
2, 21630, Note_on_c, 0, 32, 0
2, 21630, Note_on_c, 0, 32, 116
2, 21660, Note_on_c, 0, 32, 0
2, 21780, Note_on_c, 0, 30, 112
2, 21810, Note_on_c, 0, 30, 0
2, 22020, Note_on_c, 0, 35, 112
2, 22050, Note_on_c, 0, 35, 0
2, 22050, Note_on_c, 0, 32, 116
2, 22080, Note_on_c, 0, 32, 0
2, 22080, Note_on_c, 0, 35, 116
2, 22110, Note_on_c, 0, 35, 0
2, 22110, Note_on_c, 0, 37, 106
2, 22140, Note_on_c, 0, 37, 0
2, 22200, Note_on_c, 0, 35, 120
2, 22230, Note_on_c, 0, 35, 0
2, 22230, Note_on_c, 0, 37, 106
2, 22260, Note_on_c, 0, 37, 0
2, 22320, Note_on_c, 0, 35, 108
2, 22350, Note_on_c, 0, 35, 0
2, 22350, Note_on_c, 0, 37, 102
2, 22380, Note_on_c, 0, 37, 0
2, 22380, Note_on_c, 0, 35, 101
2, 22410, Note_on_c, 0, 35, 0
2, 22410, Note_on_c, 0, 37, 112
2, 22440, Note_on_c, 0, 37, 0
2, 22440, Note_on_c, 0, 35, 113
2, 22470, Note_on_c, 0, 35, 0
2, 22470, Note_on_c, 0, 37, 113
2, 22500, Note_on_c, 0, 37, 0
2, 22500, Note_on_c, 0, 32, 121
2, 22560, Note_on_c, 0, 32, 0
2, 22560, Note_on_c, 0, 32, 121
2, 22590, Note_on_c, 0, 32, 0
2, 22590, Note_on_c, 0, 32, 116
2, 22620, Note_on_c, 0, 32, 0
2, 22740, Note_on_c, 0, 30, 112
2, 22770, Note_on_c, 0, 30, 0
2, 22800, Note_on_c, 0, 32, 125
2, 22845, Note_on_c, 0, 32, 0
2, 22980, Note_on_c, 0, 35, 112
2, 23010, Note_on_c, 0, 35, 0
2, 23010, Note_on_c, 0, 32, 116
2, 23040, Note_on_c, 0, 32, 0
2, 23040, Note_on_c, 0, 35, 110
2, 23070, Note_on_c, 0, 35, 0
2, 23070, Note_on_c, 0, 37, 104
2, 23100, Note_on_c, 0, 37, 0
2, 23160, Note_on_c, 0, 25, 98
2, 23220, Note_on_c, 0, 25, 0
2, 23254, Note_on_c, 0, 44, 69
2, 23275, Note_on_c, 0, 44, 0
2, 23275, Note_on_c, 0, 47, 68
2, 23313, Note_on_c, 0, 44, 79
2, 23316, Note_on_c, 0, 47, 0
2, 23339, Note_on_c, 0, 44, 0
2, 23339, Note_on_c, 0, 47, 81
2, 23375, Note_on_c, 0, 49, 72
2, 23376, Note_on_c, 0, 47, 0
2, 23406, Note_on_c, 0, 49, 0
2, 23460, Note_on_c, 0, 32, 124
2, 23490, Note_on_c, 0, 32, 0
2, 23520, Note_on_c, 0, 32, 121
2, 23550, Note_on_c, 0, 32, 0
2, 23550, Note_on_c, 0, 32, 116
2, 23580, Note_on_c, 0, 32, 0
2, 23700, Note_on_c, 0, 30, 112
2, 23730, Note_on_c, 0, 30, 0
2, 23760, Note_on_c, 0, 32, 125
2, 23805, Note_on_c, 0, 32, 0
2, 23940, Note_on_c, 0, 35, 112
2, 23970, Note_on_c, 0, 35, 0
2, 23970, Note_on_c, 0, 32, 116
2, 24000, Note_on_c, 0, 32, 0
2, 24000, Note_on_c, 0, 35, 110
2, 24030, Note_on_c, 0, 35, 0
2, 24030, Note_on_c, 0, 37, 104
2, 24060, Note_on_c, 0, 37, 0
2, 24120, Note_on_c, 0, 25, 98
2, 24180, Note_on_c, 0, 25, 0
2, 24214, Note_on_c, 0, 44, 69
2, 24235, Note_on_c, 0, 44, 0
2, 24235, Note_on_c, 0, 47, 68
2, 24273, Note_on_c, 0, 44, 79
2, 24276, Note_on_c, 0, 47, 0
2, 24299, Note_on_c, 0, 44, 0
2, 24299, Note_on_c, 0, 47, 81
2, 24335, Note_on_c, 0, 49, 72
2, 24336, Note_on_c, 0, 47, 0
2, 24366, Note_on_c, 0, 49, 0
2, 24420, Note_on_c, 0, 32, 124
2, 24450, Note_on_c, 0, 32, 0
2, 24480, Note_on_c, 0, 32, 121
2, 24510, Note_on_c, 0, 32, 0
2, 24510, Note_on_c, 0, 32, 116
2, 24540, Note_on_c, 0, 32, 0
2, 24660, Note_on_c, 0, 30, 112
2, 24690, Note_on_c, 0, 30, 0
2, 24720, Note_on_c, 0, 32, 125
2, 24765, Note_on_c, 0, 32, 0
2, 24900, Note_on_c, 0, 35, 112
2, 24930, Note_on_c, 0, 35, 0
2, 24930, Note_on_c, 0, 32, 116
2, 24960, Note_on_c, 0, 32, 0
2, 24960, Note_on_c, 0, 35, 110
2, 24990, Note_on_c, 0, 35, 0
2, 24990, Note_on_c, 0, 37, 104
2, 25020, Note_on_c, 0, 37, 0
2, 25080, Note_on_c, 0, 25, 98
2, 25140, Note_on_c, 0, 25, 0
2, 25174, Note_on_c, 0, 44, 69
2, 25195, Note_on_c, 0, 44, 0
2, 25195, Note_on_c, 0, 47, 68
2, 25233, Note_on_c, 0, 44, 79
2, 25236, Note_on_c, 0, 47, 0
2, 25259, Note_on_c, 0, 44, 0
2, 25259, Note_on_c, 0, 47, 81
2, 25295, Note_on_c, 0, 49, 72
2, 25296, Note_on_c, 0, 47, 0
2, 25326, Note_on_c, 0, 49, 0
2, 25380, Note_on_c, 0, 32, 124
2, 25410, Note_on_c, 0, 32, 0
2, 25440, Note_on_c, 0, 32, 121
2, 25470, Note_on_c, 0, 32, 0
2, 25470, Note_on_c, 0, 32, 116
2, 25500, Note_on_c, 0, 32, 0
2, 25620, Note_on_c, 0, 30, 112
2, 25650, Note_on_c, 0, 30, 0
2, 25680, Note_on_c, 0, 32, 125
2, 25725, Note_on_c, 0, 32, 0
2, 25860, Note_on_c, 0, 35, 112
2, 25890, Note_on_c, 0, 35, 0
2, 25890, Note_on_c, 0, 32, 116
2, 25920, Note_on_c, 0, 32, 0
2, 25920, Note_on_c, 0, 35, 116
2, 25950, Note_on_c, 0, 35, 0
2, 25950, Note_on_c, 0, 37, 106
2, 25980, Note_on_c, 0, 37, 0
2, 26040, Note_on_c, 0, 35, 120
2, 26070, Note_on_c, 0, 35, 0
2, 26070, Note_on_c, 0, 37, 106
2, 26100, Note_on_c, 0, 37, 0
2, 26160, Note_on_c, 0, 35, 108
2, 26190, Note_on_c, 0, 35, 0
2, 26190, Note_on_c, 0, 37, 102
2, 26220, Note_on_c, 0, 37, 0
2, 26220, Note_on_c, 0, 35, 101
2, 26250, Note_on_c, 0, 35, 0
2, 26250, Note_on_c, 0, 37, 112
2, 26280, Note_on_c, 0, 37, 0
2, 26280, Note_on_c, 0, 35, 113
2, 26310, Note_on_c, 0, 35, 0
2, 26310, Note_on_c, 0, 37, 113
2, 26340, Note_on_c, 0, 37, 0
2, 26340, Note_on_c, 0, 32, 121
2, 26400, Note_on_c, 0, 32, 0
2, 26400, Note_on_c, 0, 32, 121
2, 26430, Note_on_c, 0, 32, 0
2, 26430, Note_on_c, 0, 32, 116
2, 26460, Note_on_c, 0, 32, 0
2, 26580, Note_on_c, 0, 30, 112
2, 26610, Note_on_c, 0, 30, 0
2, 26640, Note_on_c, 0, 32, 125
2, 26685, Note_on_c, 0, 32, 0
2, 26820, Note_on_c, 0, 35, 112
2, 26850, Note_on_c, 0, 35, 0
2, 26850, Note_on_c, 0, 32, 116
2, 26880, Note_on_c, 0, 32, 0
2, 26880, Note_on_c, 0, 35, 110
2, 26910, Note_on_c, 0, 35, 0
2, 26910, Note_on_c, 0, 37, 104
2, 26940, Note_on_c, 0, 37, 0
2, 27000, Note_on_c, 0, 25, 98
2, 27060, Note_on_c, 0, 25, 0
2, 27094, Note_on_c, 0, 44, 69
2, 27115, Note_on_c, 0, 44, 0
2, 27115, Note_on_c, 0, 47, 68
2, 27153, Note_on_c, 0, 44, 79
2, 27156, Note_on_c, 0, 47, 0
2, 27179, Note_on_c, 0, 44, 0
2, 27179, Note_on_c, 0, 47, 81
2, 27215, Note_on_c, 0, 49, 72
2, 27216, Note_on_c, 0, 47, 0
2, 27246, Note_on_c, 0, 49, 0
2, 27300, Note_on_c, 0, 32, 124
2, 27330, Note_on_c, 0, 32, 0
2, 27360, Note_on_c, 0, 32, 121
2, 27390, Note_on_c, 0, 32, 0
2, 27390, Note_on_c, 0, 32, 116
2, 27420, Note_on_c, 0, 32, 0
2, 27540, Note_on_c, 0, 30, 112
2, 27570, Note_on_c, 0, 30, 0
2, 27600, Note_on_c, 0, 32, 125
2, 27645, Note_on_c, 0, 32, 0
2, 27780, Note_on_c, 0, 35, 112
2, 27810, Note_on_c, 0, 35, 0
2, 27810, Note_on_c, 0, 32, 116
2, 27840, Note_on_c, 0, 32, 0
2, 27840, Note_on_c, 0, 35, 110
2, 27870, Note_on_c, 0, 35, 0
2, 27870, Note_on_c, 0, 37, 104
2, 27900, Note_on_c, 0, 37, 0
2, 27960, Note_on_c, 0, 25, 98
2, 28020, Note_on_c, 0, 25, 0
2, 28054, Note_on_c, 0, 44, 69
2, 28075, Note_on_c, 0, 44, 0
2, 28075, Note_on_c, 0, 47, 68
2, 28113, Note_on_c, 0, 44, 79
2, 28116, Note_on_c, 0, 47, 0
2, 28139, Note_on_c, 0, 44, 0
2, 28139, Note_on_c, 0, 47, 81
2, 28175, Note_on_c, 0, 49, 72
2, 28176, Note_on_c, 0, 47, 0
2, 28206, Note_on_c, 0, 49, 0
2, 28260, Note_on_c, 0, 32, 124
2, 28290, Note_on_c, 0, 32, 0
2, 28320, Note_on_c, 0, 32, 121
2, 28350, Note_on_c, 0, 32, 0
2, 28350, Note_on_c, 0, 32, 116
2, 28380, Note_on_c, 0, 32, 0
2, 28500, Note_on_c, 0, 30, 112
2, 28530, Note_on_c, 0, 30, 0
2, 28560, Note_on_c, 0, 32, 125
2, 28605, Note_on_c, 0, 32, 0
2, 28740, Note_on_c, 0, 35, 112
2, 28770, Note_on_c, 0, 35, 0
2, 28770, Note_on_c, 0, 32, 116
2, 28800, Note_on_c, 0, 32, 0
2, 28800, Note_on_c, 0, 35, 110
2, 28830, Note_on_c, 0, 35, 0
2, 28830, Note_on_c, 0, 37, 104
2, 28860, Note_on_c, 0, 37, 0
2, 28920, Note_on_c, 0, 25, 98
2, 28980, Note_on_c, 0, 25, 0
2, 29014, Note_on_c, 0, 44, 69
2, 29035, Note_on_c, 0, 44, 0
2, 29035, Note_on_c, 0, 47, 68
2, 29073, Note_on_c, 0, 44, 79
2, 29076, Note_on_c, 0, 47, 0
2, 29099, Note_on_c, 0, 44, 0
2, 29099, Note_on_c, 0, 47, 81
2, 29135, Note_on_c, 0, 49, 72
2, 29136, Note_on_c, 0, 47, 0
2, 29166, Note_on_c, 0, 49, 0
2, 29220, Note_on_c, 0, 32, 124
2, 29250, Note_on_c, 0, 32, 0
2, 29280, Note_on_c, 0, 32, 121
2, 29310, Note_on_c, 0, 32, 0
2, 29310, Note_on_c, 0, 32, 116
2, 29340, Note_on_c, 0, 32, 0
2, 29460, Note_on_c, 0, 30, 112
2, 29490, Note_on_c, 0, 30, 0
2, 29520, Note_on_c, 0, 32, 125
2, 29565, Note_on_c, 0, 32, 0
2, 29700, Note_on_c, 0, 35, 112
2, 29730, Note_on_c, 0, 35, 0
2, 29730, Note_on_c, 0, 32, 116
2, 29760, Note_on_c, 0, 32, 0
2, 29760, Note_on_c, 0, 35, 116
2, 29790, Note_on_c, 0, 35, 0
2, 29790, Note_on_c, 0, 37, 106
2, 29820, Note_on_c, 0, 37, 0
2, 29880, Note_on_c, 0, 35, 120
2, 29910, Note_on_c, 0, 35, 0
2, 29910, Note_on_c, 0, 37, 106
2, 29940, Note_on_c, 0, 37, 0
2, 30000, Note_on_c, 0, 35, 108
2, 30030, Note_on_c, 0, 35, 0
2, 30030, Note_on_c, 0, 37, 102
2, 30060, Note_on_c, 0, 37, 0
2, 30060, Note_on_c, 0, 35, 101
2, 30090, Note_on_c, 0, 35, 0
2, 30090, Note_on_c, 0, 37, 112
2, 30120, Note_on_c, 0, 37, 0
2, 30120, Note_on_c, 0, 35, 113
2, 30150, Note_on_c, 0, 35, 0
2, 30150, Note_on_c, 0, 37, 113
2, 30180, Note_on_c, 0, 37, 0
2, 30180, Note_on_c, 0, 32, 121
2, 30240, Note_on_c, 0, 32, 0
2, 30240, Note_on_c, 0, 32, 121
2, 30270, Note_on_c, 0, 32, 0
2, 30270, Note_on_c, 0, 32, 116
2, 30300, Note_on_c, 0, 32, 0
2, 30420, Note_on_c, 0, 30, 112
2, 30450, Note_on_c, 0, 30, 0
2, 30480, Note_on_c, 0, 32, 125
2, 30525, Note_on_c, 0, 32, 0
2, 30660, Note_on_c, 0, 35, 112
2, 30690, Note_on_c, 0, 35, 0
2, 30690, Note_on_c, 0, 32, 116
2, 30720, Note_on_c, 0, 32, 0
2, 30720, Note_on_c, 0, 35, 110
2, 30750, Note_on_c, 0, 35, 0
2, 30750, Note_on_c, 0, 37, 104
2, 30780, Note_on_c, 0, 37, 0
2, 30840, Note_on_c, 0, 25, 98
2, 30900, Note_on_c, 0, 25, 0
2, 30934, Note_on_c, 0, 44, 69
2, 30955, Note_on_c, 0, 44, 0
2, 30955, Note_on_c, 0, 47, 68
2, 30993, Note_on_c, 0, 44, 79
2, 30996, Note_on_c, 0, 47, 0
2, 31019, Note_on_c, 0, 44, 0
2, 31019, Note_on_c, 0, 47, 81
2, 31055, Note_on_c, 0, 49, 72
2, 31056, Note_on_c, 0, 47, 0
2, 31086, Note_on_c, 0, 49, 0
2, 31140, Note_on_c, 0, 32, 124
2, 31170, Note_on_c, 0, 32, 0
2, 31200, Note_on_c, 0, 32, 121
2, 31230, Note_on_c, 0, 32, 0
2, 31230, Note_on_c, 0, 32, 116
2, 31260, Note_on_c, 0, 32, 0
2, 31380, Note_on_c, 0, 30, 112
2, 31410, Note_on_c, 0, 30, 0
2, 31440, Note_on_c, 0, 32, 125
2, 31485, Note_on_c, 0, 32, 0
2, 31620, Note_on_c, 0, 35, 112
2, 31650, Note_on_c, 0, 35, 0
2, 31650, Note_on_c, 0, 32, 116
2, 31680, Note_on_c, 0, 32, 0
2, 31680, Note_on_c, 0, 35, 110
2, 31710, Note_on_c, 0, 35, 0
2, 31710, Note_on_c, 0, 37, 104
2, 31740, Note_on_c, 0, 37, 0
2, 31800, Note_on_c, 0, 25, 98
2, 31860, Note_on_c, 0, 25, 0
2, 31894, Note_on_c, 0, 44, 69
2, 31915, Note_on_c, 0, 44, 0
2, 31915, Note_on_c, 0, 47, 68
2, 31953, Note_on_c, 0, 44, 79
2, 31956, Note_on_c, 0, 47, 0
2, 31979, Note_on_c, 0, 44, 0
2, 31979, Note_on_c, 0, 47, 81
2, 32015, Note_on_c, 0, 49, 72
2, 32016, Note_on_c, 0, 47, 0
2, 32046, Note_on_c, 0, 49, 0
2, 32100, Note_on_c, 0, 32, 124
2, 32130, Note_on_c, 0, 32, 0
2, 32160, Note_on_c, 0, 32, 121
2, 32190, Note_on_c, 0, 32, 0
2, 32190, Note_on_c, 0, 32, 116
2, 32220, Note_on_c, 0, 32, 0
2, 32340, Note_on_c, 0, 30, 112
2, 32370, Note_on_c, 0, 30, 0
2, 32400, Note_on_c, 0, 32, 125
2, 32445, Note_on_c, 0, 32, 0
2, 32580, Note_on_c, 0, 35, 112
2, 32610, Note_on_c, 0, 35, 0
2, 32610, Note_on_c, 0, 32, 116
2, 32640, Note_on_c, 0, 32, 0
2, 32640, Note_on_c, 0, 35, 110
2, 32670, Note_on_c, 0, 35, 0
2, 32670, Note_on_c, 0, 37, 104
2, 32700, Note_on_c, 0, 37, 0
2, 32760, Note_on_c, 0, 25, 98
2, 32820, Note_on_c, 0, 25, 0
2, 32854, Note_on_c, 0, 44, 69
2, 32875, Note_on_c, 0, 44, 0
2, 32875, Note_on_c, 0, 47, 68
2, 32913, Note_on_c, 0, 44, 79
2, 32916, Note_on_c, 0, 47, 0
2, 32939, Note_on_c, 0, 44, 0
2, 32939, Note_on_c, 0, 47, 81
2, 32975, Note_on_c, 0, 49, 72
2, 32976, Note_on_c, 0, 47, 0
2, 33006, Note_on_c, 0, 49, 0
2, 33060, Note_on_c, 0, 32, 124
2, 33090, Note_on_c, 0, 32, 0
2, 33120, Note_on_c, 0, 32, 121
2, 33150, Note_on_c, 0, 32, 0
2, 33150, Note_on_c, 0, 32, 116
2, 33180, Note_on_c, 0, 32, 0
2, 33300, Note_on_c, 0, 30, 112
2, 33330, Note_on_c, 0, 30, 0
2, 33360, Note_on_c, 0, 32, 125
2, 33405, Note_on_c, 0, 32, 0
2, 33540, Note_on_c, 0, 35, 112
2, 33570, Note_on_c, 0, 35, 0
2, 33570, Note_on_c, 0, 32, 116
2, 33600, Note_on_c, 0, 32, 0
2, 33600, Note_on_c, 0, 32, 125
2, 33660, Note_on_c, 0, 32, 0
2, 33720, Note_on_c, 0, 32, 121
2, 33780, Note_on_c, 0, 32, 0
2, 33840, Note_on_c, 0, 30, 125
2, 33900, Note_on_c, 0, 30, 0
2, 33960, Note_on_c, 0, 28, 108
2, 34020, Note_on_c, 0, 28, 0
2, 34080, Note_on_c, 0, 25, 113
2, 34140, Note_on_c, 0, 25, 0
2, 34260, Note_on_c, 0, 23, 112
2, 34320, Note_on_c, 0, 23, 0
2, 34320, Note_on_c, 0, 25, 117
2, 34380, Note_on_c, 0, 25, 0
2, 34560, Note_on_c, 0, 28, 117
2, 34620, Note_on_c, 0, 28, 0
2, 34680, Note_on_c, 0, 28, 121
2, 34740, Note_on_c, 0, 28, 0
2, 34800, Note_on_c, 0, 28, 125
2, 34860, Note_on_c, 0, 28, 0
2, 35040, Note_on_c, 0, 32, 121
2, 35070, Note_on_c, 0, 32, 0
2, 35070, Note_on_c, 0, 32, 117
2, 35100, Note_on_c, 0, 32, 0
2, 35220, Note_on_c, 0, 30, 124
2, 35250, Note_on_c, 0, 30, 0
2, 35280, Note_on_c, 0, 32, 124
2, 35340, Note_on_c, 0, 32, 0
2, 35400, Note_on_c, 0, 32, 120
2, 35460, Note_on_c, 0, 32, 0
2, 35460, Note_on_c, 0, 31, 101
2, 35520, Note_on_c, 0, 31, 0
2, 35520, Note_on_c, 0, 30, 110
2, 35640, Note_on_c, 0, 30, 0
2, 35640, Note_on_c, 0, 37, 108
2, 35760, Note_on_c, 0, 37, 0
2, 35760, Note_on_c, 0, 25, 95
2, 35880, Note_on_c, 0, 25, 0
2, 35880, Note_on_c, 0, 27, 100
2, 36000, Note_on_c, 0, 27, 0
2, 36000, Note_on_c, 0, 25, 100
2, 36030, Note_on_c, 0, 25, 0
2, 36030, Note_on_c, 0, 25, 100
2, 36060, Note_on_c, 0, 25, 0
2, 36180, Note_on_c, 0, 23, 100
2, 36210, Note_on_c, 0, 23, 0
2, 36240, Note_on_c, 0, 25, 100
2, 36270, Note_on_c, 0, 25, 0
2, 36420, Note_on_c, 0, 30, 100
2, 36480, Note_on_c, 0, 30, 0
2, 36480, Note_on_c, 0, 32, 100
2, 36540, Note_on_c, 0, 32, 0
2, 36600, Note_on_c, 0, 32, 100
2, 36660, Note_on_c, 0, 32, 0
2, 36720, Note_on_c, 0, 32, 100
2, 36780, Note_on_c, 0, 32, 0
2, 36885, Note_on_c, 0, 27, 100
2, 36900, Note_on_c, 0, 27, 0
2, 36900, Note_on_c, 0, 30, 100
2, 36930, Note_on_c, 0, 30, 0
2, 36930, Note_on_c, 0, 27, 100
2, 36960, Note_on_c, 0, 27, 0
2, 36960, Note_on_c, 0, 32, 100
2, 36990, Note_on_c, 0, 32, 0
2, 36990, Note_on_c, 0, 32, 100
2, 37020, Note_on_c, 0, 32, 0
2, 37140, Note_on_c, 0, 30, 100
2, 37170, Note_on_c, 0, 30, 0
2, 37200, Note_on_c, 0, 32, 100
2, 37230, Note_on_c, 0, 32, 0
2, 37440, Note_on_c, 0, 32, 100
2, 37560, Note_on_c, 0, 32, 0
2, 37560, Note_on_c, 0, 32, 100
2, 37680, Note_on_c, 0, 32, 0
2, 37680, Note_on_c, 0, 35, 100
2, 37800, Note_on_c, 0, 35, 0
2, 37800, Note_on_c, 0, 34, 100
2, 37920, Note_on_c, 0, 34, 0
2, 37920, Note_on_c, 0, 32, 121
2, 37950, Note_on_c, 0, 32, 0
2, 37950, Note_on_c, 0, 32, 116
2, 37980, Note_on_c, 0, 32, 0
2, 38100, Note_on_c, 0, 30, 112
2, 38130, Note_on_c, 0, 30, 0
2, 38160, Note_on_c, 0, 32, 125
2, 38205, Note_on_c, 0, 32, 0
2, 38340, Note_on_c, 0, 35, 112
2, 38370, Note_on_c, 0, 35, 0
2, 38370, Note_on_c, 0, 32, 116
2, 38400, Note_on_c, 0, 32, 0
2, 38400, Note_on_c, 0, 35, 110
2, 38430, Note_on_c, 0, 35, 0
2, 38430, Note_on_c, 0, 37, 104
2, 38460, Note_on_c, 0, 37, 0
2, 38520, Note_on_c, 0, 25, 98
2, 38580, Note_on_c, 0, 25, 0
2, 38614, Note_on_c, 0, 44, 69
2, 38635, Note_on_c, 0, 44, 0
2, 38635, Note_on_c, 0, 47, 68
2, 38673, Note_on_c, 0, 44, 79
2, 38676, Note_on_c, 0, 47, 0
2, 38699, Note_on_c, 0, 44, 0
2, 38699, Note_on_c, 0, 47, 81
2, 38735, Note_on_c, 0, 49, 72
2, 38736, Note_on_c, 0, 47, 0
2, 38766, Note_on_c, 0, 49, 0
2, 38820, Note_on_c, 0, 32, 124
2, 38850, Note_on_c, 0, 32, 0
2, 38880, Note_on_c, 0, 32, 121
2, 38910, Note_on_c, 0, 32, 0
2, 38910, Note_on_c, 0, 32, 116
2, 38940, Note_on_c, 0, 32, 0
2, 39060, Note_on_c, 0, 30, 112
2, 39090, Note_on_c, 0, 30, 0
2, 39120, Note_on_c, 0, 32, 125
2, 39165, Note_on_c, 0, 32, 0
2, 39300, Note_on_c, 0, 35, 112
2, 39330, Note_on_c, 0, 35, 0
2, 39330, Note_on_c, 0, 32, 116
2, 39360, Note_on_c, 0, 32, 0
2, 39360, Note_on_c, 0, 35, 110
2, 39390, Note_on_c, 0, 35, 0
2, 39390, Note_on_c, 0, 37, 104
2, 39420, Note_on_c, 0, 37, 0
2, 39480, Note_on_c, 0, 25, 98
2, 39540, Note_on_c, 0, 25, 0
2, 39574, Note_on_c, 0, 44, 69
2, 39595, Note_on_c, 0, 44, 0
2, 39595, Note_on_c, 0, 47, 68
2, 39633, Note_on_c, 0, 44, 79
2, 39636, Note_on_c, 0, 47, 0
2, 39659, Note_on_c, 0, 44, 0
2, 39659, Note_on_c, 0, 47, 81
2, 39695, Note_on_c, 0, 49, 72
2, 39696, Note_on_c, 0, 47, 0
2, 39726, Note_on_c, 0, 49, 0
2, 39780, Note_on_c, 0, 32, 124
2, 39810, Note_on_c, 0, 32, 0
2, 39840, Note_on_c, 0, 32, 121
2, 39870, Note_on_c, 0, 32, 0
2, 39870, Note_on_c, 0, 32, 116
2, 39900, Note_on_c, 0, 32, 0
2, 40020, Note_on_c, 0, 30, 112
2, 40050, Note_on_c, 0, 30, 0
2, 40080, Note_on_c, 0, 32, 125
2, 40125, Note_on_c, 0, 32, 0
2, 40260, Note_on_c, 0, 35, 112
2, 40290, Note_on_c, 0, 35, 0
2, 40290, Note_on_c, 0, 32, 116
2, 40320, Note_on_c, 0, 32, 0
2, 40320, Note_on_c, 0, 35, 110
2, 40350, Note_on_c, 0, 35, 0
2, 40350, Note_on_c, 0, 37, 104
2, 40380, Note_on_c, 0, 37, 0
2, 40440, Note_on_c, 0, 25, 98
2, 40500, Note_on_c, 0, 25, 0
2, 40534, Note_on_c, 0, 44, 69
2, 40555, Note_on_c, 0, 44, 0
2, 40555, Note_on_c, 0, 47, 68
2, 40593, Note_on_c, 0, 44, 79
2, 40596, Note_on_c, 0, 47, 0
2, 40619, Note_on_c, 0, 44, 0
2, 40619, Note_on_c, 0, 47, 81
2, 40655, Note_on_c, 0, 49, 72
2, 40656, Note_on_c, 0, 47, 0
2, 40686, Note_on_c, 0, 49, 0
2, 40740, Note_on_c, 0, 32, 124
2, 40770, Note_on_c, 0, 32, 0
2, 40800, Note_on_c, 0, 32, 121
2, 40830, Note_on_c, 0, 32, 0
2, 40830, Note_on_c, 0, 32, 116
2, 40860, Note_on_c, 0, 32, 0
2, 40980, Note_on_c, 0, 30, 112
2, 41010, Note_on_c, 0, 30, 0
2, 41040, Note_on_c, 0, 32, 125
2, 41085, Note_on_c, 0, 32, 0
2, 41220, Note_on_c, 0, 35, 112
2, 41250, Note_on_c, 0, 35, 0
2, 41250, Note_on_c, 0, 32, 116
2, 41280, Note_on_c, 0, 32, 0
2, 41280, Note_on_c, 0, 35, 116
2, 41310, Note_on_c, 0, 35, 0
2, 41310, Note_on_c, 0, 37, 106
2, 41340, Note_on_c, 0, 37, 0
2, 41400, Note_on_c, 0, 35, 120
2, 41430, Note_on_c, 0, 35, 0
2, 41430, Note_on_c, 0, 37, 106
2, 41460, Note_on_c, 0, 37, 0
2, 41520, Note_on_c, 0, 35, 108
2, 41550, Note_on_c, 0, 35, 0
2, 41550, Note_on_c, 0, 37, 102
2, 41580, Note_on_c, 0, 37, 0
2, 41580, Note_on_c, 0, 35, 101
2, 41610, Note_on_c, 0, 35, 0
2, 41610, Note_on_c, 0, 37, 112
2, 41640, Note_on_c, 0, 37, 0
2, 41640, Note_on_c, 0, 35, 113
2, 41670, Note_on_c, 0, 35, 0
2, 41670, Note_on_c, 0, 37, 113
2, 41700, Note_on_c, 0, 37, 0
2, 41700, Note_on_c, 0, 32, 121
2, 41760, Note_on_c, 0, 32, 0
2, 41940, Note_on_c, 0, 30, 112
2, 41970, Note_on_c, 0, 30, 0
2, 42000, Note_on_c, 0, 32, 125
2, 42045, Note_on_c, 0, 32, 0
2, 42180, Note_on_c, 0, 35, 112
2, 42210, Note_on_c, 0, 35, 0
2, 42210, Note_on_c, 0, 32, 116
2, 42240, Note_on_c, 0, 32, 0
2, 42240, Note_on_c, 0, 35, 110
2, 42270, Note_on_c, 0, 35, 0
2, 42270, Note_on_c, 0, 37, 104
2, 42300, Note_on_c, 0, 37, 0
2, 42360, Note_on_c, 0, 25, 98
2, 42420, Note_on_c, 0, 25, 0
2, 42454, Note_on_c, 0, 44, 69
2, 42475, Note_on_c, 0, 44, 0
2, 42475, Note_on_c, 0, 47, 68
2, 42513, Note_on_c, 0, 44, 79
2, 42516, Note_on_c, 0, 47, 0
2, 42539, Note_on_c, 0, 44, 0
2, 42539, Note_on_c, 0, 47, 81
2, 42575, Note_on_c, 0, 49, 72
2, 42576, Note_on_c, 0, 47, 0
2, 42606, Note_on_c, 0, 49, 0
2, 42660, Note_on_c, 0, 32, 124
2, 42690, Note_on_c, 0, 32, 0
2, 42720, Note_on_c, 0, 32, 121
2, 42750, Note_on_c, 0, 32, 0
2, 42750, Note_on_c, 0, 32, 116
2, 42780, Note_on_c, 0, 32, 0
2, 42900, Note_on_c, 0, 30, 112
2, 42930, Note_on_c, 0, 30, 0
2, 42960, Note_on_c, 0, 32, 125
2, 43005, Note_on_c, 0, 32, 0
2, 43140, Note_on_c, 0, 35, 112
2, 43170, Note_on_c, 0, 35, 0
2, 43170, Note_on_c, 0, 32, 116
2, 43200, Note_on_c, 0, 32, 0
2, 43200, Note_on_c, 0, 35, 110
2, 43230, Note_on_c, 0, 35, 0
2, 43230, Note_on_c, 0, 37, 104
2, 43260, Note_on_c, 0, 37, 0
2, 43320, Note_on_c, 0, 25, 98
2, 43380, Note_on_c, 0, 25, 0
2, 43414, Note_on_c, 0, 44, 69
2, 43435, Note_on_c, 0, 44, 0
2, 43435, Note_on_c, 0, 47, 68
2, 43473, Note_on_c, 0, 44, 79
2, 43476, Note_on_c, 0, 47, 0
2, 43499, Note_on_c, 0, 44, 0
2, 43499, Note_on_c, 0, 47, 81
2, 43535, Note_on_c, 0, 49, 72
2, 43536, Note_on_c, 0, 47, 0
2, 43566, Note_on_c, 0, 49, 0
2, 43620, Note_on_c, 0, 32, 124
2, 43650, Note_on_c, 0, 32, 0
2, 43680, Note_on_c, 0, 32, 121
2, 43710, Note_on_c, 0, 32, 0
2, 43710, Note_on_c, 0, 32, 116
2, 43740, Note_on_c, 0, 32, 0
2, 43860, Note_on_c, 0, 30, 112
2, 43890, Note_on_c, 0, 30, 0
2, 43920, Note_on_c, 0, 32, 125
2, 43965, Note_on_c, 0, 32, 0
2, 44100, Note_on_c, 0, 35, 112
2, 44130, Note_on_c, 0, 35, 0
2, 44130, Note_on_c, 0, 32, 116
2, 44160, Note_on_c, 0, 32, 0
2, 44160, Note_on_c, 0, 35, 110
2, 44190, Note_on_c, 0, 35, 0
2, 44190, Note_on_c, 0, 37, 104
2, 44220, Note_on_c, 0, 37, 0
2, 44280, Note_on_c, 0, 25, 98
2, 44340, Note_on_c, 0, 25, 0
2, 44374, Note_on_c, 0, 44, 69
2, 44395, Note_on_c, 0, 44, 0
2, 44395, Note_on_c, 0, 47, 68
2, 44433, Note_on_c, 0, 44, 79
2, 44436, Note_on_c, 0, 47, 0
2, 44459, Note_on_c, 0, 44, 0
2, 44459, Note_on_c, 0, 47, 81
2, 44495, Note_on_c, 0, 49, 72
2, 44496, Note_on_c, 0, 47, 0
2, 44526, Note_on_c, 0, 49, 0
2, 44580, Note_on_c, 0, 32, 124
2, 44610, Note_on_c, 0, 32, 0
2, 44640, Note_on_c, 0, 32, 121
2, 44670, Note_on_c, 0, 32, 0
2, 44670, Note_on_c, 0, 32, 116
2, 44700, Note_on_c, 0, 32, 0
2, 44820, Note_on_c, 0, 30, 112
2, 44850, Note_on_c, 0, 30, 0
2, 44880, Note_on_c, 0, 32, 125
2, 44925, Note_on_c, 0, 32, 0
2, 45060, Note_on_c, 0, 35, 112
2, 45090, Note_on_c, 0, 35, 0
2, 45090, Note_on_c, 0, 32, 116
2, 45120, Note_on_c, 0, 32, 0
2, 45120, Note_on_c, 0, 35, 110
2, 45150, Note_on_c, 0, 35, 0
2, 45150, Note_on_c, 0, 37, 104
2, 45180, Note_on_c, 0, 37, 0
2, 45600, Note_on_c, 0, 32, 121
2, 45630, Note_on_c, 0, 32, 0
2, 45630, Note_on_c, 0, 32, 116
2, 45660, Note_on_c, 0, 32, 0
2, 45780, Note_on_c, 0, 30, 112
2, 45810, Note_on_c, 0, 30, 0
2, 45840, Note_on_c, 0, 32, 125
2, 45885, Note_on_c, 0, 32, 0
2, 46020, Note_on_c, 0, 35, 112
2, 46050, Note_on_c, 0, 35, 0
2, 46050, Note_on_c, 0, 32, 116
2, 46080, Note_on_c, 0, 32, 0
2, 46080, Note_on_c, 0, 35, 110
2, 46110, Note_on_c, 0, 35, 0
2, 46110, Note_on_c, 0, 37, 104
2, 46140, Note_on_c, 0, 37, 0
2, 46200, Note_on_c, 0, 25, 98
2, 46260, Note_on_c, 0, 25, 0
2, 46294, Note_on_c, 0, 44, 69
2, 46315, Note_on_c, 0, 44, 0
2, 46315, Note_on_c, 0, 47, 68
2, 46353, Note_on_c, 0, 44, 79
2, 46356, Note_on_c, 0, 47, 0
2, 46379, Note_on_c, 0, 44, 0
2, 46379, Note_on_c, 0, 47, 81
2, 46415, Note_on_c, 0, 49, 72
2, 46416, Note_on_c, 0, 47, 0
2, 46446, Note_on_c, 0, 49, 0
2, 46500, Note_on_c, 0, 32, 124
2, 46530, Note_on_c, 0, 32, 0
2, 46560, Note_on_c, 0, 32, 121
2, 46590, Note_on_c, 0, 32, 0
2, 46590, Note_on_c, 0, 32, 116
2, 46620, Note_on_c, 0, 32, 0
2, 46740, Note_on_c, 0, 30, 112
2, 46770, Note_on_c, 0, 30, 0
2, 46800, Note_on_c, 0, 32, 125
2, 46845, Note_on_c, 0, 32, 0
2, 46980, Note_on_c, 0, 35, 112
2, 47010, Note_on_c, 0, 35, 0
2, 47010, Note_on_c, 0, 32, 116
2, 47040, Note_on_c, 0, 32, 0
2, 47040, Note_on_c, 0, 35, 110
2, 47070, Note_on_c, 0, 35, 0
2, 47070, Note_on_c, 0, 37, 104
2, 47100, Note_on_c, 0, 37, 0
2, 47160, Note_on_c, 0, 25, 98
2, 47220, Note_on_c, 0, 25, 0
2, 47254, Note_on_c, 0, 44, 69
2, 47275, Note_on_c, 0, 44, 0
2, 47275, Note_on_c, 0, 47, 68
2, 47313, Note_on_c, 0, 44, 79
2, 47316, Note_on_c, 0, 47, 0
2, 47339, Note_on_c, 0, 44, 0
2, 47339, Note_on_c, 0, 47, 81
2, 47375, Note_on_c, 0, 49, 72
2, 47376, Note_on_c, 0, 47, 0
2, 47406, Note_on_c, 0, 49, 0
2, 47460, Note_on_c, 0, 32, 124
2, 47490, Note_on_c, 0, 32, 0
2, 47520, Note_on_c, 0, 32, 121
2, 47550, Note_on_c, 0, 32, 0
2, 47550, Note_on_c, 0, 32, 116
2, 47580, Note_on_c, 0, 32, 0
2, 47700, Note_on_c, 0, 30, 112
2, 47730, Note_on_c, 0, 30, 0
2, 47760, Note_on_c, 0, 32, 125
2, 47805, Note_on_c, 0, 32, 0
2, 47940, Note_on_c, 0, 35, 112
2, 47970, Note_on_c, 0, 35, 0
2, 47970, Note_on_c, 0, 32, 116
2, 48000, Note_on_c, 0, 32, 0
2, 48000, Note_on_c, 0, 35, 110
2, 48030, Note_on_c, 0, 35, 0
2, 48030, Note_on_c, 0, 37, 104
2, 48060, Note_on_c, 0, 37, 0
2, 48120, Note_on_c, 0, 25, 98
2, 48180, Note_on_c, 0, 25, 0
2, 48214, Note_on_c, 0, 44, 69
2, 48235, Note_on_c, 0, 44, 0
2, 48235, Note_on_c, 0, 47, 68
2, 48273, Note_on_c, 0, 44, 79
2, 48276, Note_on_c, 0, 47, 0
2, 48299, Note_on_c, 0, 44, 0
2, 48299, Note_on_c, 0, 47, 81
2, 48335, Note_on_c, 0, 49, 72
2, 48336, Note_on_c, 0, 47, 0
2, 48366, Note_on_c, 0, 49, 0
2, 48420, Note_on_c, 0, 32, 124
2, 48450, Note_on_c, 0, 32, 0
2, 48480, Note_on_c, 0, 32, 121
2, 48510, Note_on_c, 0, 32, 0
2, 48510, Note_on_c, 0, 32, 116
2, 48540, Note_on_c, 0, 32, 0
2, 48660, Note_on_c, 0, 30, 112
2, 48690, Note_on_c, 0, 30, 0
2, 48720, Note_on_c, 0, 32, 125
2, 48765, Note_on_c, 0, 32, 0
2, 48900, Note_on_c, 0, 35, 125
2, 48930, Note_on_c, 0, 35, 0
2, 48930, Note_on_c, 0, 32, 124
2, 48960, Note_on_c, 0, 32, 0
2, 48960, Note_on_c, 0, 35, 122
2, 48990, Note_on_c, 0, 35, 0
2, 48990, Note_on_c, 0, 37, 121
2, 49020, Note_on_c, 0, 37, 0
2, 49080, Note_on_c, 0, 25, 116
2, 49140, Note_on_c, 0, 25, 0
2, 49174, Note_on_c, 0, 44, 112
2, 49195, Note_on_c, 0, 44, 0
2, 49195, Note_on_c, 0, 47, 110
2, 49233, Note_on_c, 0, 44, 108
2, 49236, Note_on_c, 0, 47, 0
2, 49259, Note_on_c, 0, 44, 0
2, 49259, Note_on_c, 0, 47, 107
2, 49295, Note_on_c, 0, 49, 105
2, 49296, Note_on_c, 0, 47, 0
2, 49326, Note_on_c, 0, 49, 0
2, 49380, Note_on_c, 0, 32, 101
2, 49410, Note_on_c, 0, 32, 0
2, 49620, Note_on_c, 0, 30, 88
2, 49650, Note_on_c, 0, 30, 0
2, 49680, Note_on_c, 0, 32, 85
2, 49725, Note_on_c, 0, 32, 0
2, 49860, Note_on_c, 0, 35, 76
2, 49890, Note_on_c, 0, 35, 0
2, 49890, Note_on_c, 0, 32, 74
2, 49920, Note_on_c, 0, 32, 0
2, 49920, Note_on_c, 0, 35, 73
2, 49950, Note_on_c, 0, 35, 0
2, 49950, Note_on_c, 0, 37, 71
2, 49980, Note_on_c, 0, 37, 0
2, 50040, Note_on_c, 0, 25, 67
2, 50100, Note_on_c, 0, 25, 0
2, 50134, Note_on_c, 0, 44, 62
2, 50155, Note_on_c, 0, 44, 0
2, 50155, Note_on_c, 0, 47, 61
2, 50193, Note_on_c, 0, 44, 59
2, 50196, Note_on_c, 0, 47, 0
2, 50219, Note_on_c, 0, 44, 0
2, 50219, Note_on_c, 0, 47, 58
2, 50255, Note_on_c, 0, 49, 56
2, 50256, Note_on_c, 0, 47, 0
2, 50286, Note_on_c, 0, 49, 0
2, 50340, Note_on_c, 0, 32, 51
2, 50370, Note_on_c, 0, 32, 0
2, 50400, Note_on_c, 0, 32, 48
2, 50430, Note_on_c, 0, 32, 0
2, 50430, Note_on_c, 0, 32, 46
2, 50460, Note_on_c, 0, 32, 0
2, 50580, Note_on_c, 0, 30, 39
2, 50610, Note_on_c, 0, 30, 0
2, 50640, Note_on_c, 0, 32, 36
2, 50685, Note_on_c, 0, 32, 0
2, 50820, Note_on_c, 0, 35, 26
2, 50850, Note_on_c, 0, 35, 0
2, 50850, Note_on_c, 0, 32, 25
2, 50880, Note_on_c, 0, 32, 0
2, 50880, Note_on_c, 0, 35, 23
2, 50910, Note_on_c, 0, 35, 0
2, 50910, Note_on_c, 0, 37, 22
2, 50940, Note_on_c, 0, 37, 0
2, 51000, Note_on_c, 0, 25, 17
2, 51060, Note_on_c, 0, 25, 0
2, 51094, Note_on_c, 0, 44, 12
2, 51115, Note_on_c, 0, 44, 0
2, 51115, Note_on_c, 0, 47, 11
2, 51153, Note_on_c, 0, 44, 9
2, 51156, Note_on_c, 0, 47, 0
2, 51179, Note_on_c, 0, 44, 0
2, 51179, Note_on_c, 0, 47, 8
2, 51215, Note_on_c, 0, 49, 6
2, 51216, Note_on_c, 0, 47, 0
2, 51246, Note_on_c, 0, 49, 0
2, 51300, Note_on_c, 0, 32, 2
2, 51330, Note_on_c, 0, 32, 0
2, 51330, End_track
3, 0, Start_track
3, 0, MIDI_port, 0
3, 0, Title_t, ""
3, 0, Program_c, 9, 0
3, 0, Control_c, 9, 7, 127
3, 1440, Note_on_c, 9, 44, 99
3, 1440, Note_on_c, 9, 36, 95
3, 1470, Note_on_c, 9, 36, 0
3, 1470, Note_on_c, 9, 44, 0
3, 1470, Note_on_c, 9, 44, 99
3, 1470, Note_on_c, 9, 36, 96
3, 1500, Note_on_c, 9, 36, 0
3, 1500, Note_on_c, 9, 44, 0
3, 1560, Note_on_c, 9, 38, 92
3, 1590, Note_on_c, 9, 38, 0
3, 1620, Note_on_c, 9, 36, 92
3, 1620, Note_on_c, 9, 44, 99
3, 1650, Note_on_c, 9, 44, 0
3, 1650, Note_on_c, 9, 36, 0
3, 1680, Note_on_c, 9, 44, 110
3, 1680, Note_on_c, 9, 36, 97
3, 1710, Note_on_c, 9, 36, 0
3, 1710, Note_on_c, 9, 44, 0
3, 1800, Note_on_c, 9, 38, 99
3, 1830, Note_on_c, 9, 38, 0
3, 1920, Note_on_c, 9, 36, 93
3, 1920, Note_on_c, 9, 44, 96
3, 1950, Note_on_c, 9, 44, 0
3, 1950, Note_on_c, 9, 36, 0
3, 1950, Note_on_c, 9, 36, 88
3, 1950, Note_on_c, 9, 44, 99
3, 1980, Note_on_c, 9, 44, 0
3, 1980, Note_on_c, 9, 36, 0
3, 2040, Note_on_c, 9, 38, 91
3, 2070, Note_on_c, 9, 38, 0
3, 2100, Note_on_c, 9, 36, 93
3, 2100, Note_on_c, 9, 44, 95
3, 2130, Note_on_c, 9, 44, 0
3, 2130, Note_on_c, 9, 36, 0
3, 2160, Note_on_c, 9, 36, 97
3, 2160, Note_on_c, 9, 44, 105
3, 2190, Note_on_c, 9, 44, 0
3, 2190, Note_on_c, 9, 36, 0
3, 2280, Note_on_c, 9, 38, 101
3, 2310, Note_on_c, 9, 38, 0
3, 2340, Note_on_c, 9, 36, 100
3, 2340, Note_on_c, 9, 44, 97
3, 2370, Note_on_c, 9, 44, 0
3, 2370, Note_on_c, 9, 36, 0
3, 2400, Note_on_c, 9, 36, 101
3, 2400, Note_on_c, 9, 44, 105
3, 2430, Note_on_c, 9, 44, 0
3, 2430, Note_on_c, 9, 36, 0
3, 2430, Note_on_c, 9, 44, 100
3, 2430, Note_on_c, 9, 36, 96
3, 2460, Note_on_c, 9, 36, 0
3, 2460, Note_on_c, 9, 44, 0
3, 2520, Note_on_c, 9, 38, 95
3, 2550, Note_on_c, 9, 38, 0
3, 2580, Note_on_c, 9, 36, 95
3, 2580, Note_on_c, 9, 44, 100
3, 2610, Note_on_c, 9, 44, 0
3, 2610, Note_on_c, 9, 36, 0
3, 2640, Note_on_c, 9, 36, 99
3, 2640, Note_on_c, 9, 44, 104
3, 2670, Note_on_c, 9, 44, 0
3, 2670, Note_on_c, 9, 36, 0
3, 2760, Note_on_c, 9, 38, 99
3, 2790, Note_on_c, 9, 38, 0
3, 2880, Note_on_c, 9, 36, 97
3, 2880, Note_on_c, 9, 44, 99
3, 2910, Note_on_c, 9, 44, 0
3, 2910, Note_on_c, 9, 36, 0
3, 2910, Note_on_c, 9, 36, 98
3, 2910, Note_on_c, 9, 44, 95
3, 2940, Note_on_c, 9, 44, 0
3, 2940, Note_on_c, 9, 36, 0
3, 3000, Note_on_c, 9, 38, 99
3, 3030, Note_on_c, 9, 38, 0
3, 3060, Note_on_c, 9, 36, 95
3, 3060, Note_on_c, 9, 44, 97
3, 3090, Note_on_c, 9, 44, 0
3, 3090, Note_on_c, 9, 36, 0
3, 3120, Note_on_c, 9, 36, 105
3, 3120, Note_on_c, 9, 44, 110
3, 3150, Note_on_c, 9, 44, 0
3, 3150, Note_on_c, 9, 36, 0
3, 3240, Note_on_c, 9, 38, 101
3, 3270, Note_on_c, 9, 38, 0
3, 3300, Note_on_c, 9, 44, 100
3, 3300, Note_on_c, 9, 36, 100
3, 3360, Note_on_c, 9, 44, 99
3, 3360, Note_on_c, 9, 36, 95
3, 3390, Note_on_c, 9, 36, 0
3, 3390, Note_on_c, 9, 44, 0
3, 3390, Note_on_c, 9, 44, 99
3, 3390, Note_on_c, 9, 36, 96
3, 3420, Note_on_c, 9, 36, 0
3, 3420, Note_on_c, 9, 36, 0
3, 3420, Note_on_c, 9, 44, 0
3, 3420, Note_on_c, 9, 44, 0
3, 3480, Note_on_c, 9, 38, 92
3, 3510, Note_on_c, 9, 38, 0
3, 3540, Note_on_c, 9, 36, 92
3, 3540, Note_on_c, 9, 44, 99
3, 3570, Note_on_c, 9, 44, 0
3, 3570, Note_on_c, 9, 36, 0
3, 3600, Note_on_c, 9, 44, 110
3, 3600, Note_on_c, 9, 36, 97
3, 3630, Note_on_c, 9, 36, 0
3, 3630, Note_on_c, 9, 44, 0
3, 3720, Note_on_c, 9, 38, 99
3, 3750, Note_on_c, 9, 38, 0
3, 3840, Note_on_c, 9, 36, 93
3, 3840, Note_on_c, 9, 44, 96
3, 3870, Note_on_c, 9, 44, 0
3, 3870, Note_on_c, 9, 36, 0
3, 3870, Note_on_c, 9, 36, 88
3, 3870, Note_on_c, 9, 44, 99
3, 3900, Note_on_c, 9, 44, 0
3, 3900, Note_on_c, 9, 36, 0
3, 3960, Note_on_c, 9, 38, 91
3, 3990, Note_on_c, 9, 38, 0
3, 4020, Note_on_c, 9, 36, 93
3, 4020, Note_on_c, 9, 44, 95
3, 4050, Note_on_c, 9, 44, 0
3, 4050, Note_on_c, 9, 36, 0
3, 4080, Note_on_c, 9, 36, 97
3, 4080, Note_on_c, 9, 44, 105
3, 4110, Note_on_c, 9, 44, 0
3, 4110, Note_on_c, 9, 36, 0
3, 4200, Note_on_c, 9, 38, 101
3, 4230, Note_on_c, 9, 38, 0
3, 4260, Note_on_c, 9, 36, 100
3, 4260, Note_on_c, 9, 44, 97
3, 4290, Note_on_c, 9, 44, 0
3, 4290, Note_on_c, 9, 36, 0
3, 4320, Note_on_c, 9, 36, 101
3, 4320, Note_on_c, 9, 44, 105
3, 4350, Note_on_c, 9, 44, 0
3, 4350, Note_on_c, 9, 36, 0
3, 4350, Note_on_c, 9, 44, 100
3, 4350, Note_on_c, 9, 36, 96
3, 4380, Note_on_c, 9, 36, 0
3, 4380, Note_on_c, 9, 44, 0
3, 4440, Note_on_c, 9, 38, 95
3, 4470, Note_on_c, 9, 38, 0
3, 4500, Note_on_c, 9, 36, 95
3, 4500, Note_on_c, 9, 44, 100
3, 4530, Note_on_c, 9, 44, 0
3, 4530, Note_on_c, 9, 36, 0
3, 4560, Note_on_c, 9, 36, 99
3, 4560, Note_on_c, 9, 44, 104
3, 4590, Note_on_c, 9, 44, 0
3, 4590, Note_on_c, 9, 36, 0
3, 4680, Note_on_c, 9, 38, 99
3, 4710, Note_on_c, 9, 38, 0
3, 4800, Note_on_c, 9, 36, 97
3, 4800, Note_on_c, 9, 44, 99
3, 4830, Note_on_c, 9, 44, 0
3, 4830, Note_on_c, 9, 36, 0
3, 4830, Note_on_c, 9, 36, 98
3, 4830, Note_on_c, 9, 44, 95
3, 4860, Note_on_c, 9, 44, 0
3, 4860, Note_on_c, 9, 36, 0
3, 4920, Note_on_c, 9, 38, 99
3, 4950, Note_on_c, 9, 38, 0
3, 4980, Note_on_c, 9, 36, 95
3, 4980, Note_on_c, 9, 44, 97
3, 5010, Note_on_c, 9, 44, 0
3, 5010, Note_on_c, 9, 36, 0
3, 5040, Note_on_c, 9, 36, 105
3, 5040, Note_on_c, 9, 44, 110
3, 5070, Note_on_c, 9, 44, 0
3, 5070, Note_on_c, 9, 36, 0
3, 5160, Note_on_c, 9, 38, 101
3, 5190, Note_on_c, 9, 38, 0
3, 5220, Note_on_c, 9, 44, 100
3, 5220, Note_on_c, 9, 36, 100
3, 5280, Note_on_c, 9, 44, 99
3, 5280, Note_on_c, 9, 36, 95
3, 5310, Note_on_c, 9, 36, 0
3, 5310, Note_on_c, 9, 44, 0
3, 5310, Note_on_c, 9, 44, 99
3, 5310, Note_on_c, 9, 36, 96
3, 5340, Note_on_c, 9, 36, 0
3, 5340, Note_on_c, 9, 36, 0
3, 5340, Note_on_c, 9, 44, 0
3, 5340, Note_on_c, 9, 44, 0
3, 5400, Note_on_c, 9, 38, 92
3, 5430, Note_on_c, 9, 38, 0
3, 5460, Note_on_c, 9, 36, 92
3, 5460, Note_on_c, 9, 44, 99
3, 5490, Note_on_c, 9, 44, 0
3, 5490, Note_on_c, 9, 36, 0
3, 5520, Note_on_c, 9, 44, 110
3, 5520, Note_on_c, 9, 36, 97
3, 5550, Note_on_c, 9, 36, 0
3, 5550, Note_on_c, 9, 44, 0
3, 5640, Note_on_c, 9, 38, 99
3, 5670, Note_on_c, 9, 38, 0
3, 5760, Note_on_c, 9, 36, 93
3, 5760, Note_on_c, 9, 44, 96
3, 5790, Note_on_c, 9, 44, 0
3, 5790, Note_on_c, 9, 36, 0
3, 5790, Note_on_c, 9, 36, 88
3, 5790, Note_on_c, 9, 44, 99
3, 5820, Note_on_c, 9, 44, 0
3, 5820, Note_on_c, 9, 36, 0
3, 5880, Note_on_c, 9, 38, 91
3, 5910, Note_on_c, 9, 38, 0
3, 5940, Note_on_c, 9, 36, 93
3, 5940, Note_on_c, 9, 44, 95
3, 5970, Note_on_c, 9, 44, 0
3, 5970, Note_on_c, 9, 36, 0
3, 6000, Note_on_c, 9, 36, 97
3, 6000, Note_on_c, 9, 44, 105
3, 6030, Note_on_c, 9, 44, 0
3, 6030, Note_on_c, 9, 36, 0
3, 6120, Note_on_c, 9, 38, 101
3, 6150, Note_on_c, 9, 38, 0
3, 6180, Note_on_c, 9, 36, 100
3, 6180, Note_on_c, 9, 44, 97
3, 6210, Note_on_c, 9, 44, 0
3, 6210, Note_on_c, 9, 36, 0
3, 6240, Note_on_c, 9, 36, 101
3, 6240, Note_on_c, 9, 44, 105
3, 6270, Note_on_c, 9, 44, 0
3, 6270, Note_on_c, 9, 36, 0
3, 6270, Note_on_c, 9, 44, 100
3, 6270, Note_on_c, 9, 36, 96
3, 6300, Note_on_c, 9, 36, 0
3, 6300, Note_on_c, 9, 44, 0
3, 6360, Note_on_c, 9, 38, 95
3, 6390, Note_on_c, 9, 38, 0
3, 6420, Note_on_c, 9, 36, 95
3, 6420, Note_on_c, 9, 44, 100
3, 6450, Note_on_c, 9, 44, 0
3, 6450, Note_on_c, 9, 36, 0
3, 6480, Note_on_c, 9, 36, 99
3, 6480, Note_on_c, 9, 44, 104
3, 6510, Note_on_c, 9, 44, 0
3, 6510, Note_on_c, 9, 36, 0
3, 6600, Note_on_c, 9, 38, 99
3, 6630, Note_on_c, 9, 38, 0
3, 6720, Note_on_c, 9, 36, 97
3, 6720, Note_on_c, 9, 44, 99
3, 6750, Note_on_c, 9, 44, 0
3, 6750, Note_on_c, 9, 36, 0
3, 6750, Note_on_c, 9, 36, 98
3, 6750, Note_on_c, 9, 44, 95
3, 6780, Note_on_c, 9, 44, 0
3, 6780, Note_on_c, 9, 36, 0
3, 6840, Note_on_c, 9, 38, 99
3, 6870, Note_on_c, 9, 38, 0
3, 6900, Note_on_c, 9, 36, 95
3, 6900, Note_on_c, 9, 44, 97
3, 6930, Note_on_c, 9, 44, 0
3, 6930, Note_on_c, 9, 36, 0
3, 6960, Note_on_c, 9, 36, 105
3, 6960, Note_on_c, 9, 44, 110
3, 6990, Note_on_c, 9, 44, 0
3, 6990, Note_on_c, 9, 36, 0
3, 7080, Note_on_c, 9, 38, 101
3, 7110, Note_on_c, 9, 38, 0
3, 7140, Note_on_c, 9, 44, 100
3, 7140, Note_on_c, 9, 36, 100
3, 7200, Note_on_c, 9, 44, 99
3, 7200, Note_on_c, 9, 36, 95
3, 7230, Note_on_c, 9, 36, 0
3, 7230, Note_on_c, 9, 44, 0
3, 7230, Note_on_c, 9, 44, 99
3, 7230, Note_on_c, 9, 36, 96
3, 7260, Note_on_c, 9, 36, 0
3, 7260, Note_on_c, 9, 36, 0
3, 7260, Note_on_c, 9, 44, 0
3, 7260, Note_on_c, 9, 44, 0
3, 7320, Note_on_c, 9, 38, 92
3, 7350, Note_on_c, 9, 38, 0
3, 7380, Note_on_c, 9, 36, 92
3, 7380, Note_on_c, 9, 44, 99
3, 7410, Note_on_c, 9, 44, 0
3, 7410, Note_on_c, 9, 36, 0
3, 7440, Note_on_c, 9, 44, 110
3, 7440, Note_on_c, 9, 36, 97
3, 7470, Note_on_c, 9, 36, 0
3, 7470, Note_on_c, 9, 44, 0
3, 7560, Note_on_c, 9, 38, 99
3, 7590, Note_on_c, 9, 38, 0
3, 7680, Note_on_c, 9, 36, 93
3, 7680, Note_on_c, 9, 44, 96
3, 7710, Note_on_c, 9, 44, 0
3, 7710, Note_on_c, 9, 36, 0
3, 7710, Note_on_c, 9, 36, 88
3, 7710, Note_on_c, 9, 44, 99
3, 7740, Note_on_c, 9, 44, 0
3, 7740, Note_on_c, 9, 36, 0
3, 7800, Note_on_c, 9, 38, 91
3, 7830, Note_on_c, 9, 38, 0
3, 7860, Note_on_c, 9, 36, 93
3, 7860, Note_on_c, 9, 44, 95
3, 7890, Note_on_c, 9, 44, 0
3, 7890, Note_on_c, 9, 36, 0
3, 7920, Note_on_c, 9, 36, 97
3, 7920, Note_on_c, 9, 44, 105
3, 7950, Note_on_c, 9, 44, 0
3, 7950, Note_on_c, 9, 36, 0
3, 8040, Note_on_c, 9, 38, 101
3, 8070, Note_on_c, 9, 38, 0
3, 8100, Note_on_c, 9, 36, 100
3, 8100, Note_on_c, 9, 44, 97
3, 8130, Note_on_c, 9, 44, 0
3, 8130, Note_on_c, 9, 36, 0
3, 8160, Note_on_c, 9, 36, 101
3, 8160, Note_on_c, 9, 44, 105
3, 8190, Note_on_c, 9, 44, 0
3, 8190, Note_on_c, 9, 36, 0
3, 8190, Note_on_c, 9, 44, 100
3, 8190, Note_on_c, 9, 36, 96
3, 8220, Note_on_c, 9, 36, 0
3, 8220, Note_on_c, 9, 44, 0
3, 8280, Note_on_c, 9, 38, 95
3, 8310, Note_on_c, 9, 38, 0
3, 8340, Note_on_c, 9, 36, 95
3, 8340, Note_on_c, 9, 44, 100
3, 8370, Note_on_c, 9, 44, 0
3, 8370, Note_on_c, 9, 36, 0
3, 8400, Note_on_c, 9, 36, 99
3, 8400, Note_on_c, 9, 44, 104
3, 8430, Note_on_c, 9, 44, 0
3, 8430, Note_on_c, 9, 36, 0
3, 8520, Note_on_c, 9, 38, 99
3, 8550, Note_on_c, 9, 38, 0
3, 8640, Note_on_c, 9, 36, 97
3, 8640, Note_on_c, 9, 44, 99
3, 8670, Note_on_c, 9, 44, 0
3, 8670, Note_on_c, 9, 36, 0
3, 8670, Note_on_c, 9, 36, 98
3, 8670, Note_on_c, 9, 44, 95
3, 8700, Note_on_c, 9, 44, 0
3, 8700, Note_on_c, 9, 36, 0
3, 8760, Note_on_c, 9, 38, 99
3, 8790, Note_on_c, 9, 38, 0
3, 8820, Note_on_c, 9, 36, 95
3, 8820, Note_on_c, 9, 44, 97
3, 8850, Note_on_c, 9, 44, 0
3, 8850, Note_on_c, 9, 36, 0
3, 8880, Note_on_c, 9, 36, 105
3, 8880, Note_on_c, 9, 44, 110
3, 8910, Note_on_c, 9, 44, 0
3, 8910, Note_on_c, 9, 36, 0
3, 9000, Note_on_c, 9, 38, 101
3, 9030, Note_on_c, 9, 38, 0
3, 9060, Note_on_c, 9, 44, 100
3, 9060, Note_on_c, 9, 36, 100
3, 9120, Note_on_c, 9, 44, 99
3, 9120, Note_on_c, 9, 36, 95
3, 9150, Note_on_c, 9, 36, 0
3, 9150, Note_on_c, 9, 44, 0
3, 9150, Note_on_c, 9, 44, 99
3, 9150, Note_on_c, 9, 36, 96
3, 9180, Note_on_c, 9, 36, 0
3, 9180, Note_on_c, 9, 36, 0
3, 9180, Note_on_c, 9, 44, 0
3, 9180, Note_on_c, 9, 44, 0
3, 9240, Note_on_c, 9, 38, 92
3, 9270, Note_on_c, 9, 38, 0
3, 9300, Note_on_c, 9, 36, 92
3, 9300, Note_on_c, 9, 44, 99
3, 9330, Note_on_c, 9, 44, 0
3, 9330, Note_on_c, 9, 36, 0
3, 9360, Note_on_c, 9, 44, 110
3, 9360, Note_on_c, 9, 36, 97
3, 9390, Note_on_c, 9, 36, 0
3, 9390, Note_on_c, 9, 44, 0
3, 9480, Note_on_c, 9, 38, 99
3, 9510, Note_on_c, 9, 38, 0
3, 9600, Note_on_c, 9, 36, 93
3, 9600, Note_on_c, 9, 44, 96
3, 9630, Note_on_c, 9, 44, 0
3, 9630, Note_on_c, 9, 36, 0
3, 9630, Note_on_c, 9, 36, 88
3, 9630, Note_on_c, 9, 44, 99
3, 9660, Note_on_c, 9, 44, 0
3, 9660, Note_on_c, 9, 36, 0
3, 9720, Note_on_c, 9, 38, 91
3, 9750, Note_on_c, 9, 38, 0
3, 9780, Note_on_c, 9, 36, 93
3, 9780, Note_on_c, 9, 44, 95
3, 9810, Note_on_c, 9, 44, 0
3, 9810, Note_on_c, 9, 36, 0
3, 9840, Note_on_c, 9, 36, 97
3, 9840, Note_on_c, 9, 44, 105
3, 9870, Note_on_c, 9, 44, 0
3, 9870, Note_on_c, 9, 36, 0
3, 9960, Note_on_c, 9, 38, 101
3, 9990, Note_on_c, 9, 38, 0
3, 10020, Note_on_c, 9, 36, 100
3, 10020, Note_on_c, 9, 44, 97
3, 10050, Note_on_c, 9, 44, 0
3, 10050, Note_on_c, 9, 36, 0
3, 10080, Note_on_c, 9, 36, 101
3, 10080, Note_on_c, 9, 44, 105
3, 10110, Note_on_c, 9, 44, 0
3, 10110, Note_on_c, 9, 36, 0
3, 10110, Note_on_c, 9, 44, 100
3, 10110, Note_on_c, 9, 36, 96
3, 10140, Note_on_c, 9, 36, 0
3, 10140, Note_on_c, 9, 44, 0
3, 10200, Note_on_c, 9, 38, 95
3, 10230, Note_on_c, 9, 38, 0
3, 10260, Note_on_c, 9, 36, 95
3, 10260, Note_on_c, 9, 44, 100
3, 10290, Note_on_c, 9, 44, 0
3, 10290, Note_on_c, 9, 36, 0
3, 10320, Note_on_c, 9, 36, 99
3, 10320, Note_on_c, 9, 44, 104
3, 10350, Note_on_c, 9, 44, 0
3, 10350, Note_on_c, 9, 36, 0
3, 10440, Note_on_c, 9, 38, 99
3, 10470, Note_on_c, 9, 38, 0
3, 10560, Note_on_c, 9, 36, 97
3, 10560, Note_on_c, 9, 44, 99
3, 10590, Note_on_c, 9, 44, 0
3, 10590, Note_on_c, 9, 36, 0
3, 10590, Note_on_c, 9, 36, 98
3, 10590, Note_on_c, 9, 44, 95
3, 10620, Note_on_c, 9, 44, 0
3, 10620, Note_on_c, 9, 36, 0
3, 10680, Note_on_c, 9, 38, 99
3, 10710, Note_on_c, 9, 38, 0
3, 10740, Note_on_c, 9, 36, 95
3, 10740, Note_on_c, 9, 44, 97
3, 10770, Note_on_c, 9, 44, 0
3, 10770, Note_on_c, 9, 36, 0
3, 10800, Note_on_c, 9, 36, 105
3, 10800, Note_on_c, 9, 44, 110
3, 10830, Note_on_c, 9, 44, 0
3, 10830, Note_on_c, 9, 36, 0
3, 10920, Note_on_c, 9, 38, 101
3, 10950, Note_on_c, 9, 38, 0
3, 10980, Note_on_c, 9, 44, 100
3, 10980, Note_on_c, 9, 36, 100
3, 11040, Note_on_c, 9, 44, 99
3, 11040, Note_on_c, 9, 36, 95
3, 11070, Note_on_c, 9, 36, 0
3, 11070, Note_on_c, 9, 44, 0
3, 11070, Note_on_c, 9, 44, 99
3, 11070, Note_on_c, 9, 36, 96
3, 11100, Note_on_c, 9, 36, 0
3, 11100, Note_on_c, 9, 36, 0
3, 11100, Note_on_c, 9, 44, 0
3, 11100, Note_on_c, 9, 44, 0
3, 11160, Note_on_c, 9, 38, 92
3, 11190, Note_on_c, 9, 38, 0
3, 11220, Note_on_c, 9, 36, 92
3, 11220, Note_on_c, 9, 44, 99
3, 11250, Note_on_c, 9, 44, 0
3, 11250, Note_on_c, 9, 36, 0
3, 11280, Note_on_c, 9, 44, 110
3, 11280, Note_on_c, 9, 36, 97
3, 11310, Note_on_c, 9, 36, 0
3, 11310, Note_on_c, 9, 44, 0
3, 11400, Note_on_c, 9, 38, 99
3, 11430, Note_on_c, 9, 38, 0
3, 11520, Note_on_c, 9, 36, 93
3, 11520, Note_on_c, 9, 44, 96
3, 11550, Note_on_c, 9, 44, 0
3, 11550, Note_on_c, 9, 36, 0
3, 11550, Note_on_c, 9, 36, 88
3, 11550, Note_on_c, 9, 44, 99
3, 11580, Note_on_c, 9, 44, 0
3, 11580, Note_on_c, 9, 36, 0
3, 11640, Note_on_c, 9, 38, 91
3, 11670, Note_on_c, 9, 38, 0
3, 11700, Note_on_c, 9, 36, 93
3, 11700, Note_on_c, 9, 44, 95
3, 11730, Note_on_c, 9, 44, 0
3, 11730, Note_on_c, 9, 36, 0
3, 11760, Note_on_c, 9, 36, 97
3, 11760, Note_on_c, 9, 44, 105
3, 11790, Note_on_c, 9, 44, 0
3, 11790, Note_on_c, 9, 36, 0
3, 11880, Note_on_c, 9, 38, 101
3, 11910, Note_on_c, 9, 38, 0
3, 11940, Note_on_c, 9, 36, 100
3, 11940, Note_on_c, 9, 44, 97
3, 11970, Note_on_c, 9, 44, 0
3, 11970, Note_on_c, 9, 36, 0
3, 12000, Note_on_c, 9, 36, 101
3, 12000, Note_on_c, 9, 44, 105
3, 12030, Note_on_c, 9, 44, 0
3, 12030, Note_on_c, 9, 36, 0
3, 12030, Note_on_c, 9, 44, 100
3, 12030, Note_on_c, 9, 36, 96
3, 12060, Note_on_c, 9, 36, 0
3, 12060, Note_on_c, 9, 44, 0
3, 12120, Note_on_c, 9, 38, 95
3, 12150, Note_on_c, 9, 38, 0
3, 12180, Note_on_c, 9, 36, 95
3, 12180, Note_on_c, 9, 44, 100
3, 12210, Note_on_c, 9, 44, 0
3, 12210, Note_on_c, 9, 36, 0
3, 12240, Note_on_c, 9, 36, 99
3, 12240, Note_on_c, 9, 44, 104
3, 12270, Note_on_c, 9, 44, 0
3, 12270, Note_on_c, 9, 36, 0
3, 12360, Note_on_c, 9, 38, 99
3, 12390, Note_on_c, 9, 38, 0
3, 12480, Note_on_c, 9, 36, 97
3, 12480, Note_on_c, 9, 44, 99
3, 12510, Note_on_c, 9, 44, 0
3, 12510, Note_on_c, 9, 36, 0
3, 12510, Note_on_c, 9, 36, 98
3, 12510, Note_on_c, 9, 44, 95
3, 12540, Note_on_c, 9, 44, 0
3, 12540, Note_on_c, 9, 36, 0
3, 12600, Note_on_c, 9, 38, 99
3, 12630, Note_on_c, 9, 38, 0
3, 12660, Note_on_c, 9, 36, 95
3, 12660, Note_on_c, 9, 44, 97
3, 12690, Note_on_c, 9, 44, 0
3, 12690, Note_on_c, 9, 36, 0
3, 12720, Note_on_c, 9, 36, 105
3, 12720, Note_on_c, 9, 44, 110
3, 12750, Note_on_c, 9, 44, 0
3, 12750, Note_on_c, 9, 36, 0
3, 12840, Note_on_c, 9, 38, 101
3, 12870, Note_on_c, 9, 38, 0
3, 12900, Note_on_c, 9, 44, 100
3, 12900, Note_on_c, 9, 36, 100
3, 12960, Note_on_c, 9, 44, 99
3, 12960, Note_on_c, 9, 36, 95
3, 12990, Note_on_c, 9, 36, 0
3, 12990, Note_on_c, 9, 44, 0
3, 12990, Note_on_c, 9, 44, 99
3, 12990, Note_on_c, 9, 36, 96
3, 13020, Note_on_c, 9, 36, 0
3, 13020, Note_on_c, 9, 36, 0
3, 13020, Note_on_c, 9, 44, 0
3, 13020, Note_on_c, 9, 44, 0
3, 13080, Note_on_c, 9, 38, 92
3, 13110, Note_on_c, 9, 38, 0
3, 13140, Note_on_c, 9, 36, 92
3, 13140, Note_on_c, 9, 44, 99
3, 13170, Note_on_c, 9, 44, 0
3, 13170, Note_on_c, 9, 36, 0
3, 13200, Note_on_c, 9, 44, 110
3, 13200, Note_on_c, 9, 36, 97
3, 13230, Note_on_c, 9, 36, 0
3, 13230, Note_on_c, 9, 44, 0
3, 13320, Note_on_c, 9, 38, 99
3, 13350, Note_on_c, 9, 38, 0
3, 13440, Note_on_c, 9, 36, 93
3, 13440, Note_on_c, 9, 44, 96
3, 13470, Note_on_c, 9, 44, 0
3, 13470, Note_on_c, 9, 36, 0
3, 13470, Note_on_c, 9, 36, 88
3, 13470, Note_on_c, 9, 44, 99
3, 13500, Note_on_c, 9, 44, 0
3, 13500, Note_on_c, 9, 36, 0
3, 13560, Note_on_c, 9, 38, 91
3, 13590, Note_on_c, 9, 38, 0
3, 13620, Note_on_c, 9, 36, 93
3, 13620, Note_on_c, 9, 44, 95
3, 13650, Note_on_c, 9, 44, 0
3, 13650, Note_on_c, 9, 36, 0
3, 13680, Note_on_c, 9, 36, 97
3, 13680, Note_on_c, 9, 44, 105
3, 13710, Note_on_c, 9, 44, 0
3, 13710, Note_on_c, 9, 36, 0
3, 13800, Note_on_c, 9, 38, 101
3, 13830, Note_on_c, 9, 38, 0
3, 13860, Note_on_c, 9, 36, 100
3, 13860, Note_on_c, 9, 44, 97
3, 13890, Note_on_c, 9, 44, 0
3, 13890, Note_on_c, 9, 36, 0
3, 13920, Note_on_c, 9, 36, 101
3, 13920, Note_on_c, 9, 44, 105
3, 13950, Note_on_c, 9, 44, 0
3, 13950, Note_on_c, 9, 36, 0
3, 13950, Note_on_c, 9, 44, 100
3, 13950, Note_on_c, 9, 36, 96
3, 13980, Note_on_c, 9, 36, 0
3, 13980, Note_on_c, 9, 44, 0
3, 14040, Note_on_c, 9, 38, 95
3, 14070, Note_on_c, 9, 38, 0
3, 14100, Note_on_c, 9, 36, 95
3, 14100, Note_on_c, 9, 44, 100
3, 14130, Note_on_c, 9, 44, 0
3, 14130, Note_on_c, 9, 36, 0
3, 14160, Note_on_c, 9, 36, 99
3, 14160, Note_on_c, 9, 44, 104
3, 14190, Note_on_c, 9, 44, 0
3, 14190, Note_on_c, 9, 36, 0
3, 14280, Note_on_c, 9, 38, 99
3, 14310, Note_on_c, 9, 38, 0
3, 14400, Note_on_c, 9, 36, 97
3, 14400, Note_on_c, 9, 44, 99
3, 14430, Note_on_c, 9, 44, 0
3, 14430, Note_on_c, 9, 36, 0
3, 14430, Note_on_c, 9, 36, 98
3, 14430, Note_on_c, 9, 44, 95
3, 14460, Note_on_c, 9, 44, 0
3, 14460, Note_on_c, 9, 36, 0
3, 14520, Note_on_c, 9, 38, 99
3, 14550, Note_on_c, 9, 38, 0
3, 14580, Note_on_c, 9, 36, 95
3, 14580, Note_on_c, 9, 44, 97
3, 14610, Note_on_c, 9, 44, 0
3, 14610, Note_on_c, 9, 36, 0
3, 14640, Note_on_c, 9, 36, 105
3, 14640, Note_on_c, 9, 44, 110
3, 14670, Note_on_c, 9, 44, 0
3, 14670, Note_on_c, 9, 36, 0
3, 14760, Note_on_c, 9, 38, 101
3, 14790, Note_on_c, 9, 38, 0
3, 14820, Note_on_c, 9, 44, 100
3, 14820, Note_on_c, 9, 36, 100
3, 14880, Note_on_c, 9, 36, 95
3, 14880, Note_on_c, 9, 44, 99
3, 14910, Note_on_c, 9, 36, 0
3, 14910, Note_on_c, 9, 44, 0
3, 14910, Note_on_c, 9, 44, 99
3, 14910, Note_on_c, 9, 36, 96
3, 14940, Note_on_c, 9, 36, 0
3, 14940, Note_on_c, 9, 44, 0
3, 14940, Note_on_c, 9, 36, 0
3, 14940, Note_on_c, 9, 44, 0
3, 15000, Note_on_c, 9, 38, 92
3, 15030, Note_on_c, 9, 38, 0
3, 15060, Note_on_c, 9, 44, 99
3, 15060, Note_on_c, 9, 36, 92
3, 15090, Note_on_c, 9, 36, 0
3, 15090, Note_on_c, 9, 44, 0
3, 15120, Note_on_c, 9, 44, 110
3, 15120, Note_on_c, 9, 36, 97
3, 15150, Note_on_c, 9, 36, 0
3, 15150, Note_on_c, 9, 44, 0
3, 15240, Note_on_c, 9, 38, 99
3, 15270, Note_on_c, 9, 38, 0
3, 15360, Note_on_c, 9, 36, 93
3, 15360, Note_on_c, 9, 44, 96
3, 15390, Note_on_c, 9, 44, 0
3, 15390, Note_on_c, 9, 36, 0
3, 15390, Note_on_c, 9, 36, 88
3, 15390, Note_on_c, 9, 44, 99
3, 15420, Note_on_c, 9, 44, 0
3, 15420, Note_on_c, 9, 36, 0
3, 15480, Note_on_c, 9, 38, 91
3, 15510, Note_on_c, 9, 38, 0
3, 15540, Note_on_c, 9, 36, 93
3, 15540, Note_on_c, 9, 44, 95
3, 15570, Note_on_c, 9, 44, 0
3, 15570, Note_on_c, 9, 36, 0
3, 15600, Note_on_c, 9, 44, 105
3, 15600, Note_on_c, 9, 36, 97
3, 15630, Note_on_c, 9, 36, 0
3, 15630, Note_on_c, 9, 44, 0
3, 15720, Note_on_c, 9, 38, 101
3, 15750, Note_on_c, 9, 38, 0
3, 15780, Note_on_c, 9, 44, 97
3, 15780, Note_on_c, 9, 36, 100
3, 15810, Note_on_c, 9, 36, 0
3, 15810, Note_on_c, 9, 44, 0
3, 15840, Note_on_c, 9, 36, 101
3, 15840, Note_on_c, 9, 44, 105
3, 15870, Note_on_c, 9, 44, 0
3, 15870, Note_on_c, 9, 36, 0
3, 15870, Note_on_c, 9, 44, 100
3, 15870, Note_on_c, 9, 36, 96
3, 15900, Note_on_c, 9, 36, 0
3, 15900, Note_on_c, 9, 44, 0
3, 15960, Note_on_c, 9, 38, 95
3, 15990, Note_on_c, 9, 38, 0
3, 16020, Note_on_c, 9, 36, 95
3, 16020, Note_on_c, 9, 44, 100
3, 16050, Note_on_c, 9, 44, 0
3, 16050, Note_on_c, 9, 36, 0
3, 16080, Note_on_c, 9, 44, 104
3, 16080, Note_on_c, 9, 36, 99
3, 16110, Note_on_c, 9, 36, 0
3, 16110, Note_on_c, 9, 44, 0
3, 16200, Note_on_c, 9, 38, 99
3, 16230, Note_on_c, 9, 38, 0
3, 16320, Note_on_c, 9, 44, 99
3, 16320, Note_on_c, 9, 36, 97
3, 16350, Note_on_c, 9, 36, 0
3, 16350, Note_on_c, 9, 44, 0
3, 16350, Note_on_c, 9, 36, 98
3, 16350, Note_on_c, 9, 44, 95
3, 16380, Note_on_c, 9, 44, 0
3, 16380, Note_on_c, 9, 36, 0
3, 16440, Note_on_c, 9, 38, 99
3, 16470, Note_on_c, 9, 38, 0
3, 16500, Note_on_c, 9, 36, 95
3, 16500, Note_on_c, 9, 44, 97
3, 16530, Note_on_c, 9, 44, 0
3, 16530, Note_on_c, 9, 36, 0
3, 16560, Note_on_c, 9, 36, 105
3, 16560, Note_on_c, 9, 44, 110
3, 16590, Note_on_c, 9, 44, 0
3, 16590, Note_on_c, 9, 36, 0
3, 16680, Note_on_c, 9, 38, 101
3, 16710, Note_on_c, 9, 38, 0
3, 16740, Note_on_c, 9, 44, 100
3, 16740, Note_on_c, 9, 36, 100
3, 16800, Note_on_c, 9, 44, 99
3, 16800, Note_on_c, 9, 36, 95
3, 16830, Note_on_c, 9, 44, 99
3, 16830, Note_on_c, 9, 36, 96
3, 16860, Note_on_c, 9, 36, 0
3, 16860, Note_on_c, 9, 36, 0
3, 16860, Note_on_c, 9, 44, 0
3, 16860, Note_on_c, 9, 44, 0
3, 16860, Note_on_c, 9, 44, 0
3, 16860, Note_on_c, 9, 36, 0
3, 16920, Note_on_c, 9, 38, 92
3, 16950, Note_on_c, 9, 38, 0
3, 16980, Note_on_c, 9, 36, 92
3, 16980, Note_on_c, 9, 44, 99
3, 17010, Note_on_c, 9, 44, 0
3, 17010, Note_on_c, 9, 36, 0
3, 17040, Note_on_c, 9, 36, 97
3, 17040, Note_on_c, 9, 44, 110
3, 17070, Note_on_c, 9, 44, 0
3, 17070, Note_on_c, 9, 36, 0
3, 17160, Note_on_c, 9, 38, 99
3, 17190, Note_on_c, 9, 38, 0
3, 17280, Note_on_c, 9, 44, 96
3, 17280, Note_on_c, 9, 36, 93
3, 17310, Note_on_c, 9, 36, 0
3, 17310, Note_on_c, 9, 44, 0
3, 17310, Note_on_c, 9, 36, 88
3, 17310, Note_on_c, 9, 44, 99
3, 17340, Note_on_c, 9, 44, 0
3, 17340, Note_on_c, 9, 36, 0
3, 17400, Note_on_c, 9, 38, 91
3, 17430, Note_on_c, 9, 38, 0
3, 17460, Note_on_c, 9, 36, 93
3, 17460, Note_on_c, 9, 44, 95
3, 17490, Note_on_c, 9, 44, 0
3, 17490, Note_on_c, 9, 36, 0
3, 17520, Note_on_c, 9, 36, 97
3, 17520, Note_on_c, 9, 44, 105
3, 17550, Note_on_c, 9, 44, 0
3, 17550, Note_on_c, 9, 36, 0
3, 17640, Note_on_c, 9, 38, 101
3, 17670, Note_on_c, 9, 38, 0
3, 17700, Note_on_c, 9, 36, 100
3, 17700, Note_on_c, 9, 44, 97
3, 17730, Note_on_c, 9, 44, 0
3, 17730, Note_on_c, 9, 36, 0
3, 17760, Note_on_c, 9, 44, 105
3, 17760, Note_on_c, 9, 36, 101
3, 17790, Note_on_c, 9, 36, 0
3, 17790, Note_on_c, 9, 44, 0
3, 17790, Note_on_c, 9, 44, 100
3, 17790, Note_on_c, 9, 36, 96
3, 17820, Note_on_c, 9, 36, 0
3, 17820, Note_on_c, 9, 44, 0
3, 17880, Note_on_c, 9, 38, 95
3, 17910, Note_on_c, 9, 38, 0
3, 17940, Note_on_c, 9, 36, 95
3, 17940, Note_on_c, 9, 44, 100
3, 17970, Note_on_c, 9, 44, 0
3, 17970, Note_on_c, 9, 36, 0
3, 18000, Note_on_c, 9, 36, 99
3, 18000, Note_on_c, 9, 44, 104
3, 18030, Note_on_c, 9, 44, 0
3, 18030, Note_on_c, 9, 36, 0
3, 18120, Note_on_c, 9, 38, 99
3, 18150, Note_on_c, 9, 38, 0
3, 18240, Note_on_c, 9, 36, 97
3, 18240, Note_on_c, 9, 44, 99
3, 18270, Note_on_c, 9, 44, 0
3, 18270, Note_on_c, 9, 36, 0
3, 18270, Note_on_c, 9, 44, 95
3, 18270, Note_on_c, 9, 36, 98
3, 18300, Note_on_c, 9, 36, 0
3, 18300, Note_on_c, 9, 44, 0
3, 18360, Note_on_c, 9, 38, 99
3, 18390, Note_on_c, 9, 38, 0
3, 18420, Note_on_c, 9, 44, 97
3, 18420, Note_on_c, 9, 36, 95
3, 18450, Note_on_c, 9, 36, 0
3, 18450, Note_on_c, 9, 44, 0
3, 18480, Note_on_c, 9, 44, 110
3, 18480, Note_on_c, 9, 36, 105
3, 18510, Note_on_c, 9, 36, 0
3, 18510, Note_on_c, 9, 44, 0
3, 18600, Note_on_c, 9, 38, 101
3, 18630, Note_on_c, 9, 38, 0
3, 18660, Note_on_c, 9, 36, 100
3, 18660, Note_on_c, 9, 44, 100
3, 18780, Note_on_c, 9, 44, 0
3, 18780, Note_on_c, 9, 36, 0
3, 18840, Note_on_c, 9, 38, 92
3, 18870, Note_on_c, 9, 38, 0
3, 18900, Note_on_c, 9, 44, 99
3, 18900, Note_on_c, 9, 36, 92
3, 18930, Note_on_c, 9, 36, 0
3, 18930, Note_on_c, 9, 44, 0
3, 18960, Note_on_c, 9, 44, 110
3, 18960, Note_on_c, 9, 36, 97
3, 18990, Note_on_c, 9, 36, 0
3, 18990, Note_on_c, 9, 44, 0
3, 19080, Note_on_c, 9, 38, 99
3, 19110, Note_on_c, 9, 38, 0
3, 19200, Note_on_c, 9, 36, 93
3, 19200, Note_on_c, 9, 44, 96
3, 19230, Note_on_c, 9, 44, 0
3, 19230, Note_on_c, 9, 36, 0
3, 19230, Note_on_c, 9, 36, 88
3, 19230, Note_on_c, 9, 44, 99
3, 19260, Note_on_c, 9, 44, 0
3, 19260, Note_on_c, 9, 36, 0
3, 19320, Note_on_c, 9, 38, 91
3, 19350, Note_on_c, 9, 38, 0
3, 19380, Note_on_c, 9, 36, 93
3, 19380, Note_on_c, 9, 44, 95
3, 19410, Note_on_c, 9, 44, 0
3, 19410, Note_on_c, 9, 36, 0
3, 19440, Note_on_c, 9, 44, 105
3, 19440, Note_on_c, 9, 36, 97
3, 19470, Note_on_c, 9, 36, 0
3, 19470, Note_on_c, 9, 44, 0
3, 19560, Note_on_c, 9, 38, 101
3, 19590, Note_on_c, 9, 38, 0
3, 19620, Note_on_c, 9, 44, 97
3, 19620, Note_on_c, 9, 36, 100
3, 19650, Note_on_c, 9, 36, 0
3, 19650, Note_on_c, 9, 44, 0
3, 19680, Note_on_c, 9, 36, 101
3, 19680, Note_on_c, 9, 44, 105
3, 19710, Note_on_c, 9, 44, 0
3, 19710, Note_on_c, 9, 36, 0
3, 19710, Note_on_c, 9, 44, 100
3, 19710, Note_on_c, 9, 36, 96
3, 19740, Note_on_c, 9, 36, 0
3, 19740, Note_on_c, 9, 44, 0
3, 19800, Note_on_c, 9, 38, 95
3, 19830, Note_on_c, 9, 38, 0
3, 19860, Note_on_c, 9, 36, 95
3, 19860, Note_on_c, 9, 44, 100
3, 19890, Note_on_c, 9, 44, 0
3, 19890, Note_on_c, 9, 36, 0
3, 19920, Note_on_c, 9, 44, 104
3, 19920, Note_on_c, 9, 36, 99
3, 19950, Note_on_c, 9, 36, 0
3, 19950, Note_on_c, 9, 44, 0
3, 20040, Note_on_c, 9, 38, 99
3, 20070, Note_on_c, 9, 38, 0
3, 20160, Note_on_c, 9, 44, 99
3, 20160, Note_on_c, 9, 36, 97
3, 20190, Note_on_c, 9, 36, 0
3, 20190, Note_on_c, 9, 44, 0
3, 20190, Note_on_c, 9, 36, 98
3, 20190, Note_on_c, 9, 44, 95
3, 20220, Note_on_c, 9, 44, 0
3, 20220, Note_on_c, 9, 36, 0
3, 20280, Note_on_c, 9, 38, 99
3, 20310, Note_on_c, 9, 38, 0
3, 20340, Note_on_c, 9, 36, 95
3, 20340, Note_on_c, 9, 44, 97
3, 20370, Note_on_c, 9, 44, 0
3, 20370, Note_on_c, 9, 36, 0
3, 20400, Note_on_c, 9, 36, 105
3, 20400, Note_on_c, 9, 44, 110
3, 20430, Note_on_c, 9, 44, 0
3, 20430, Note_on_c, 9, 36, 0
3, 20520, Note_on_c, 9, 38, 101
3, 20550, Note_on_c, 9, 38, 0
3, 20580, Note_on_c, 9, 44, 100
3, 20580, Note_on_c, 9, 36, 100
3, 20640, Note_on_c, 9, 36, 95
3, 20640, Note_on_c, 9, 44, 99
3, 20670, Note_on_c, 9, 44, 99
3, 20670, Note_on_c, 9, 36, 96
3, 20700, Note_on_c, 9, 36, 0
3, 20700, Note_on_c, 9, 36, 0
3, 20700, Note_on_c, 9, 36, 0
3, 20700, Note_on_c, 9, 44, 0
3, 20700, Note_on_c, 9, 44, 0
3, 20700, Note_on_c, 9, 44, 0
3, 20820, Note_on_c, 9, 44, 99
3, 20820, Note_on_c, 9, 36, 92
3, 20850, Note_on_c, 9, 36, 0
3, 20850, Note_on_c, 9, 44, 0
3, 21000, Note_on_c, 9, 38, 99
3, 21030, Note_on_c, 9, 38, 0
3, 21120, Note_on_c, 9, 36, 93
3, 21120, Note_on_c, 9, 44, 96
3, 21150, Note_on_c, 9, 44, 0
3, 21150, Note_on_c, 9, 36, 0
3, 21150, Note_on_c, 9, 36, 88
3, 21150, Note_on_c, 9, 44, 99
3, 21180, Note_on_c, 9, 44, 0
3, 21180, Note_on_c, 9, 36, 0
3, 21240, Note_on_c, 9, 38, 91
3, 21270, Note_on_c, 9, 38, 0
3, 21300, Note_on_c, 9, 36, 93
3, 21300, Note_on_c, 9, 44, 95
3, 21330, Note_on_c, 9, 44, 0
3, 21330, Note_on_c, 9, 36, 0
3, 21360, Note_on_c, 9, 44, 105
3, 21360, Note_on_c, 9, 36, 97
3, 21390, Note_on_c, 9, 36, 0
3, 21390, Note_on_c, 9, 44, 0
3, 21480, Note_on_c, 9, 38, 101
3, 21510, Note_on_c, 9, 38, 0
3, 21540, Note_on_c, 9, 44, 97
3, 21540, Note_on_c, 9, 36, 100
3, 21570, Note_on_c, 9, 36, 0
3, 21570, Note_on_c, 9, 44, 0
3, 21600, Note_on_c, 9, 36, 95
3, 21600, Note_on_c, 9, 44, 99
3, 21630, Note_on_c, 9, 44, 99
3, 21630, Note_on_c, 9, 36, 96
3, 21660, Note_on_c, 9, 36, 0
3, 21660, Note_on_c, 9, 36, 0
3, 21660, Note_on_c, 9, 44, 0
3, 21660, Note_on_c, 9, 44, 0
3, 21780, Note_on_c, 9, 44, 99
3, 21780, Note_on_c, 9, 36, 92
3, 21810, Note_on_c, 9, 36, 0
3, 21810, Note_on_c, 9, 44, 0
3, 21960, Note_on_c, 9, 38, 99
3, 21990, Note_on_c, 9, 38, 0
3, 22080, Note_on_c, 9, 36, 93
3, 22080, Note_on_c, 9, 44, 96
3, 22110, Note_on_c, 9, 44, 0
3, 22110, Note_on_c, 9, 36, 0
3, 22110, Note_on_c, 9, 36, 88
3, 22110, Note_on_c, 9, 44, 99
3, 22140, Note_on_c, 9, 44, 0
3, 22140, Note_on_c, 9, 36, 0
3, 22200, Note_on_c, 9, 38, 91
3, 22230, Note_on_c, 9, 38, 0
3, 22260, Note_on_c, 9, 36, 93
3, 22260, Note_on_c, 9, 44, 95
3, 22290, Note_on_c, 9, 44, 0
3, 22290, Note_on_c, 9, 36, 0
3, 22320, Note_on_c, 9, 44, 105
3, 22320, Note_on_c, 9, 36, 97
3, 22350, Note_on_c, 9, 36, 0
3, 22350, Note_on_c, 9, 44, 0
3, 22440, Note_on_c, 9, 38, 101
3, 22470, Note_on_c, 9, 38, 0
3, 22500, Note_on_c, 9, 44, 97
3, 22500, Note_on_c, 9, 36, 100
3, 22530, Note_on_c, 9, 36, 0
3, 22530, Note_on_c, 9, 44, 0
3, 22560, Note_on_c, 9, 44, 99
3, 22560, Note_on_c, 9, 36, 95
3, 22590, Note_on_c, 9, 44, 99
3, 22590, Note_on_c, 9, 36, 96
3, 22620, Note_on_c, 9, 36, 0
3, 22620, Note_on_c, 9, 44, 0
3, 22620, Note_on_c, 9, 36, 0
3, 22620, Note_on_c, 9, 44, 0
3, 22740, Note_on_c, 9, 36, 92
3, 22740, Note_on_c, 9, 44, 99
3, 22770, Note_on_c, 9, 44, 0
3, 22770, Note_on_c, 9, 36, 0
3, 22800, Note_on_c, 9, 44, 110
3, 22800, Note_on_c, 9, 36, 97
3, 22830, Note_on_c, 9, 36, 0
3, 22830, Note_on_c, 9, 44, 0
3, 22920, Note_on_c, 9, 38, 99
3, 22950, Note_on_c, 9, 38, 0
3, 23040, Note_on_c, 9, 44, 96
3, 23040, Note_on_c, 9, 36, 93
3, 23070, Note_on_c, 9, 36, 0
3, 23070, Note_on_c, 9, 44, 0
3, 23070, Note_on_c, 9, 44, 99
3, 23070, Note_on_c, 9, 36, 88
3, 23100, Note_on_c, 9, 36, 0
3, 23100, Note_on_c, 9, 44, 0
3, 23160, Note_on_c, 9, 38, 91
3, 23190, Note_on_c, 9, 38, 0
3, 23220, Note_on_c, 9, 36, 93
3, 23220, Note_on_c, 9, 44, 95
3, 23250, Note_on_c, 9, 44, 0
3, 23250, Note_on_c, 9, 36, 0
3, 23280, Note_on_c, 9, 36, 97
3, 23280, Note_on_c, 9, 44, 105
3, 23310, Note_on_c, 9, 44, 0
3, 23310, Note_on_c, 9, 36, 0
3, 23400, Note_on_c, 9, 38, 101
3, 23430, Note_on_c, 9, 38, 0
3, 23460, Note_on_c, 9, 44, 97
3, 23460, Note_on_c, 9, 36, 100
3, 23490, Note_on_c, 9, 36, 0
3, 23490, Note_on_c, 9, 44, 0
3, 23520, Note_on_c, 9, 44, 105
3, 23520, Note_on_c, 9, 36, 101
3, 23550, Note_on_c, 9, 36, 0
3, 23550, Note_on_c, 9, 44, 0
3, 23550, Note_on_c, 9, 36, 96
3, 23550, Note_on_c, 9, 44, 100
3, 23580, Note_on_c, 9, 44, 0
3, 23580, Note_on_c, 9, 36, 0
3, 23640, Note_on_c, 9, 38, 95
3, 23670, Note_on_c, 9, 38, 0
3, 23700, Note_on_c, 9, 36, 95
3, 23700, Note_on_c, 9, 44, 100
3, 23730, Note_on_c, 9, 44, 0
3, 23730, Note_on_c, 9, 36, 0
3, 23760, Note_on_c, 9, 36, 99
3, 23760, Note_on_c, 9, 44, 104
3, 23790, Note_on_c, 9, 44, 0
3, 23790, Note_on_c, 9, 36, 0
3, 23880, Note_on_c, 9, 38, 99
3, 23910, Note_on_c, 9, 38, 0
3, 24000, Note_on_c, 9, 44, 99
3, 24000, Note_on_c, 9, 36, 97
3, 24030, Note_on_c, 9, 36, 0
3, 24030, Note_on_c, 9, 44, 0
3, 24030, Note_on_c, 9, 44, 95
3, 24030, Note_on_c, 9, 36, 98
3, 24060, Note_on_c, 9, 36, 0
3, 24060, Note_on_c, 9, 44, 0
3, 24120, Note_on_c, 9, 38, 99
3, 24150, Note_on_c, 9, 38, 0
3, 24180, Note_on_c, 9, 44, 97
3, 24180, Note_on_c, 9, 36, 95
3, 24210, Note_on_c, 9, 36, 0
3, 24210, Note_on_c, 9, 44, 0
3, 24240, Note_on_c, 9, 44, 110
3, 24240, Note_on_c, 9, 36, 105
3, 24270, Note_on_c, 9, 36, 0
3, 24270, Note_on_c, 9, 44, 0
3, 24360, Note_on_c, 9, 38, 101
3, 24390, Note_on_c, 9, 38, 0
3, 24420, Note_on_c, 9, 44, 100
3, 24420, Note_on_c, 9, 36, 100
3, 24480, Note_on_c, 9, 44, 99
3, 24480, Note_on_c, 9, 36, 95
3, 24510, Note_on_c, 9, 36, 0
3, 24510, Note_on_c, 9, 44, 0
3, 24510, Note_on_c, 9, 44, 99
3, 24510, Note_on_c, 9, 36, 96
3, 24540, Note_on_c, 9, 36, 0
3, 24540, Note_on_c, 9, 36, 0
3, 24540, Note_on_c, 9, 44, 0
3, 24540, Note_on_c, 9, 44, 0
3, 24600, Note_on_c, 9, 38, 92
3, 24630, Note_on_c, 9, 38, 0
3, 24660, Note_on_c, 9, 44, 99
3, 24660, Note_on_c, 9, 36, 92
3, 24690, Note_on_c, 9, 36, 0
3, 24690, Note_on_c, 9, 44, 0
3, 24720, Note_on_c, 9, 36, 97
3, 24720, Note_on_c, 9, 44, 110
3, 24750, Note_on_c, 9, 44, 0
3, 24750, Note_on_c, 9, 36, 0
3, 24840, Note_on_c, 9, 38, 99
3, 24870, Note_on_c, 9, 38, 0
3, 24960, Note_on_c, 9, 44, 96
3, 24960, Note_on_c, 9, 36, 93
3, 24990, Note_on_c, 9, 36, 0
3, 24990, Note_on_c, 9, 44, 0
3, 24990, Note_on_c, 9, 36, 88
3, 24990, Note_on_c, 9, 44, 99
3, 25020, Note_on_c, 9, 44, 0
3, 25020, Note_on_c, 9, 36, 0
3, 25080, Note_on_c, 9, 38, 91
3, 25110, Note_on_c, 9, 38, 0
3, 25140, Note_on_c, 9, 44, 95
3, 25140, Note_on_c, 9, 36, 93
3, 25170, Note_on_c, 9, 36, 0
3, 25170, Note_on_c, 9, 44, 0
3, 25200, Note_on_c, 9, 44, 105
3, 25200, Note_on_c, 9, 36, 97
3, 25230, Note_on_c, 9, 36, 0
3, 25230, Note_on_c, 9, 44, 0
3, 25320, Note_on_c, 9, 38, 101
3, 25350, Note_on_c, 9, 38, 0
3, 25380, Note_on_c, 9, 36, 100
3, 25380, Note_on_c, 9, 44, 97
3, 25410, Note_on_c, 9, 44, 0
3, 25410, Note_on_c, 9, 36, 0
3, 25440, Note_on_c, 9, 36, 101
3, 25440, Note_on_c, 9, 44, 105
3, 25470, Note_on_c, 9, 44, 0
3, 25470, Note_on_c, 9, 36, 0
3, 25470, Note_on_c, 9, 44, 100
3, 25470, Note_on_c, 9, 36, 96
3, 25500, Note_on_c, 9, 36, 0
3, 25500, Note_on_c, 9, 44, 0
3, 25560, Note_on_c, 9, 38, 95
3, 25590, Note_on_c, 9, 38, 0
3, 25620, Note_on_c, 9, 44, 100
3, 25620, Note_on_c, 9, 36, 95
3, 25650, Note_on_c, 9, 36, 0
3, 25650, Note_on_c, 9, 44, 0
3, 25680, Note_on_c, 9, 36, 99
3, 25680, Note_on_c, 9, 44, 104
3, 25710, Note_on_c, 9, 44, 0
3, 25710, Note_on_c, 9, 36, 0
3, 25800, Note_on_c, 9, 38, 99
3, 25830, Note_on_c, 9, 38, 0
3, 25920, Note_on_c, 9, 44, 99
3, 25920, Note_on_c, 9, 36, 97
3, 25950, Note_on_c, 9, 36, 0
3, 25950, Note_on_c, 9, 44, 0
3, 25950, Note_on_c, 9, 44, 95
3, 25950, Note_on_c, 9, 36, 98
3, 25980, Note_on_c, 9, 36, 0
3, 25980, Note_on_c, 9, 44, 0
3, 26040, Note_on_c, 9, 38, 99
3, 26070, Note_on_c, 9, 38, 0
3, 26100, Note_on_c, 9, 36, 95
3, 26100, Note_on_c, 9, 44, 97
3, 26130, Note_on_c, 9, 44, 0
3, 26130, Note_on_c, 9, 36, 0
3, 26160, Note_on_c, 9, 36, 105
3, 26160, Note_on_c, 9, 44, 110
3, 26160, Note_on_c, 9, 36, 108
3, 26160, Note_on_c, 9, 44, 113
3, 26190, Note_on_c, 9, 44, 0
3, 26190, Note_on_c, 9, 36, 0
3, 26190, Note_on_c, 9, 44, 0
3, 26190, Note_on_c, 9, 36, 0
3, 26220, Note_on_c, 9, 36, 104
3, 26220, Note_on_c, 9, 44, 117
3, 26250, Note_on_c, 9, 44, 0
3, 26250, Note_on_c, 9, 36, 0
3, 26280, Note_on_c, 9, 38, 101
3, 26280, Note_on_c, 9, 44, 117
3, 26280, Note_on_c, 9, 36, 113
3, 26310, Note_on_c, 9, 36, 0
3, 26310, Note_on_c, 9, 44, 0
3, 26310, Note_on_c, 9, 38, 0
3, 26340, Note_on_c, 9, 36, 100
3, 26340, Note_on_c, 9, 44, 100
3, 26340, Note_on_c, 9, 44, 121
3, 26340, Note_on_c, 9, 36, 117
3, 26370, Note_on_c, 9, 36, 0
3, 26370, Note_on_c, 9, 44, 0
3, 26400, Note_on_c, 9, 44, 99
3, 26400, Note_on_c, 9, 36, 95
3, 26430, Note_on_c, 9, 44, 0
3, 26430, Note_on_c, 9, 36, 0
3, 26430, Note_on_c, 9, 44, 99
3, 26430, Note_on_c, 9, 36, 96
3, 26460, Note_on_c, 9, 36, 0
3, 26460, Note_on_c, 9, 36, 0
3, 26460, Note_on_c, 9, 44, 0
3, 26460, Note_on_c, 9, 44, 0
3, 26520, Note_on_c, 9, 38, 92
3, 26550, Note_on_c, 9, 38, 0
3, 26580, Note_on_c, 9, 44, 99
3, 26580, Note_on_c, 9, 36, 92
3, 26610, Note_on_c, 9, 36, 0
3, 26610, Note_on_c, 9, 44, 0
3, 26640, Note_on_c, 9, 36, 97
3, 26640, Note_on_c, 9, 44, 110
3, 26670, Note_on_c, 9, 44, 0
3, 26670, Note_on_c, 9, 36, 0
3, 26760, Note_on_c, 9, 38, 99
3, 26790, Note_on_c, 9, 38, 0
3, 26880, Note_on_c, 9, 44, 96
3, 26880, Note_on_c, 9, 36, 93
3, 26910, Note_on_c, 9, 36, 0
3, 26910, Note_on_c, 9, 44, 0
3, 26910, Note_on_c, 9, 36, 88
3, 26910, Note_on_c, 9, 44, 99
3, 26940, Note_on_c, 9, 44, 0
3, 26940, Note_on_c, 9, 36, 0
3, 27000, Note_on_c, 9, 38, 91
3, 27030, Note_on_c, 9, 38, 0
3, 27060, Note_on_c, 9, 44, 95
3, 27060, Note_on_c, 9, 36, 93
3, 27090, Note_on_c, 9, 36, 0
3, 27090, Note_on_c, 9, 44, 0
3, 27120, Note_on_c, 9, 44, 105
3, 27120, Note_on_c, 9, 36, 97
3, 27150, Note_on_c, 9, 36, 0
3, 27150, Note_on_c, 9, 44, 0
3, 27240, Note_on_c, 9, 38, 101
3, 27270, Note_on_c, 9, 38, 0
3, 27300, Note_on_c, 9, 36, 100
3, 27300, Note_on_c, 9, 44, 97
3, 27330, Note_on_c, 9, 44, 0
3, 27330, Note_on_c, 9, 36, 0
3, 27360, Note_on_c, 9, 36, 101
3, 27360, Note_on_c, 9, 44, 105
3, 27390, Note_on_c, 9, 44, 0
3, 27390, Note_on_c, 9, 36, 0
3, 27390, Note_on_c, 9, 44, 100
3, 27390, Note_on_c, 9, 36, 96
3, 27420, Note_on_c, 9, 36, 0
3, 27420, Note_on_c, 9, 44, 0
3, 27480, Note_on_c, 9, 38, 95
3, 27510, Note_on_c, 9, 38, 0
3, 27540, Note_on_c, 9, 44, 100
3, 27540, Note_on_c, 9, 36, 95
3, 27570, Note_on_c, 9, 36, 0
3, 27570, Note_on_c, 9, 44, 0
3, 27600, Note_on_c, 9, 36, 99
3, 27600, Note_on_c, 9, 44, 104
3, 27630, Note_on_c, 9, 44, 0
3, 27630, Note_on_c, 9, 36, 0
3, 27720, Note_on_c, 9, 38, 99
3, 27750, Note_on_c, 9, 38, 0
3, 27840, Note_on_c, 9, 44, 99
3, 27840, Note_on_c, 9, 36, 97
3, 27870, Note_on_c, 9, 36, 0
3, 27870, Note_on_c, 9, 44, 0
3, 27870, Note_on_c, 9, 44, 95
3, 27870, Note_on_c, 9, 36, 98
3, 27900, Note_on_c, 9, 36, 0
3, 27900, Note_on_c, 9, 44, 0
3, 27960, Note_on_c, 9, 38, 99
3, 27990, Note_on_c, 9, 38, 0
3, 28020, Note_on_c, 9, 36, 95
3, 28020, Note_on_c, 9, 44, 97
3, 28050, Note_on_c, 9, 44, 0
3, 28050, Note_on_c, 9, 36, 0
3, 28080, Note_on_c, 9, 36, 105
3, 28080, Note_on_c, 9, 44, 110
3, 28110, Note_on_c, 9, 44, 0
3, 28110, Note_on_c, 9, 36, 0
3, 28200, Note_on_c, 9, 38, 101
3, 28230, Note_on_c, 9, 38, 0
3, 28260, Note_on_c, 9, 36, 100
3, 28260, Note_on_c, 9, 44, 100
3, 28320, Note_on_c, 9, 44, 99
3, 28320, Note_on_c, 9, 36, 95
3, 28350, Note_on_c, 9, 44, 0
3, 28350, Note_on_c, 9, 36, 0
3, 28350, Note_on_c, 9, 44, 99
3, 28350, Note_on_c, 9, 36, 96
3, 28380, Note_on_c, 9, 36, 0
3, 28380, Note_on_c, 9, 36, 0
3, 28380, Note_on_c, 9, 44, 0
3, 28380, Note_on_c, 9, 44, 0
3, 28440, Note_on_c, 9, 38, 92
3, 28470, Note_on_c, 9, 38, 0
3, 28500, Note_on_c, 9, 44, 99
3, 28500, Note_on_c, 9, 36, 92
3, 28530, Note_on_c, 9, 36, 0
3, 28530, Note_on_c, 9, 44, 0
3, 28560, Note_on_c, 9, 36, 97
3, 28560, Note_on_c, 9, 44, 110
3, 28590, Note_on_c, 9, 44, 0
3, 28590, Note_on_c, 9, 36, 0
3, 28680, Note_on_c, 9, 38, 99
3, 28710, Note_on_c, 9, 38, 0
3, 28800, Note_on_c, 9, 44, 96
3, 28800, Note_on_c, 9, 36, 93
3, 28830, Note_on_c, 9, 36, 0
3, 28830, Note_on_c, 9, 44, 0
3, 28830, Note_on_c, 9, 36, 88
3, 28830, Note_on_c, 9, 44, 99
3, 28860, Note_on_c, 9, 44, 0
3, 28860, Note_on_c, 9, 36, 0
3, 28920, Note_on_c, 9, 38, 91
3, 28950, Note_on_c, 9, 38, 0
3, 28980, Note_on_c, 9, 44, 95
3, 28980, Note_on_c, 9, 36, 93
3, 29010, Note_on_c, 9, 36, 0
3, 29010, Note_on_c, 9, 44, 0
3, 29040, Note_on_c, 9, 44, 105
3, 29040, Note_on_c, 9, 36, 97
3, 29070, Note_on_c, 9, 36, 0
3, 29070, Note_on_c, 9, 44, 0
3, 29160, Note_on_c, 9, 38, 101
3, 29190, Note_on_c, 9, 38, 0
3, 29220, Note_on_c, 9, 36, 100
3, 29220, Note_on_c, 9, 44, 97
3, 29250, Note_on_c, 9, 44, 0
3, 29250, Note_on_c, 9, 36, 0
3, 29280, Note_on_c, 9, 36, 101
3, 29280, Note_on_c, 9, 44, 105
3, 29310, Note_on_c, 9, 44, 0
3, 29310, Note_on_c, 9, 36, 0
3, 29310, Note_on_c, 9, 44, 100
3, 29310, Note_on_c, 9, 36, 96
3, 29340, Note_on_c, 9, 36, 0
3, 29340, Note_on_c, 9, 44, 0
3, 29400, Note_on_c, 9, 38, 95
3, 29430, Note_on_c, 9, 38, 0
3, 29460, Note_on_c, 9, 44, 100
3, 29460, Note_on_c, 9, 36, 95
3, 29490, Note_on_c, 9, 36, 0
3, 29490, Note_on_c, 9, 44, 0
3, 29520, Note_on_c, 9, 36, 99
3, 29520, Note_on_c, 9, 44, 104
3, 29550, Note_on_c, 9, 44, 0
3, 29550, Note_on_c, 9, 36, 0
3, 29640, Note_on_c, 9, 38, 99
3, 29670, Note_on_c, 9, 38, 0
3, 29760, Note_on_c, 9, 44, 99
3, 29760, Note_on_c, 9, 36, 97
3, 29790, Note_on_c, 9, 36, 0
3, 29790, Note_on_c, 9, 44, 0
3, 29790, Note_on_c, 9, 44, 95
3, 29790, Note_on_c, 9, 36, 98
3, 29820, Note_on_c, 9, 36, 0
3, 29820, Note_on_c, 9, 44, 0
3, 29880, Note_on_c, 9, 38, 99
3, 29910, Note_on_c, 9, 38, 0
3, 29940, Note_on_c, 9, 36, 95
3, 29940, Note_on_c, 9, 44, 97
3, 29970, Note_on_c, 9, 44, 0
3, 29970, Note_on_c, 9, 36, 0
3, 30000, Note_on_c, 9, 36, 105
3, 30000, Note_on_c, 9, 44, 110
3, 30030, Note_on_c, 9, 44, 0
3, 30030, Note_on_c, 9, 36, 0
3, 30060, Note_on_c, 9, 36, 100
3, 30090, Note_on_c, 9, 36, 0
3, 30120, Note_on_c, 9, 36, 100
3, 30150, Note_on_c, 9, 36, 0
3, 30180, Note_on_c, 9, 36, 100
3, 30180, Note_on_c, 9, 44, 100
3, 30240, Note_on_c, 9, 36, 95
3, 30240, Note_on_c, 9, 44, 99
3, 30270, Note_on_c, 9, 44, 0
3, 30270, Note_on_c, 9, 36, 0
3, 30270, Note_on_c, 9, 44, 99
3, 30270, Note_on_c, 9, 36, 96
3, 30300, Note_on_c, 9, 36, 0
3, 30300, Note_on_c, 9, 44, 0
3, 30300, Note_on_c, 9, 36, 0
3, 30300, Note_on_c, 9, 44, 0
3, 30360, Note_on_c, 9, 38, 92
3, 30390, Note_on_c, 9, 38, 0
3, 30420, Note_on_c, 9, 44, 99
3, 30420, Note_on_c, 9, 36, 92
3, 30450, Note_on_c, 9, 36, 0
3, 30450, Note_on_c, 9, 44, 0
3, 30480, Note_on_c, 9, 36, 97
3, 30480, Note_on_c, 9, 44, 110
3, 30510, Note_on_c, 9, 44, 0
3, 30510, Note_on_c, 9, 36, 0
3, 30600, Note_on_c, 9, 38, 99
3, 30630, Note_on_c, 9, 38, 0
3, 30720, Note_on_c, 9, 44, 96
3, 30720, Note_on_c, 9, 36, 93
3, 30750, Note_on_c, 9, 36, 0
3, 30750, Note_on_c, 9, 44, 0
3, 30750, Note_on_c, 9, 36, 88
3, 30750, Note_on_c, 9, 44, 99
3, 30780, Note_on_c, 9, 44, 0
3, 30780, Note_on_c, 9, 36, 0
3, 30840, Note_on_c, 9, 38, 91
3, 30870, Note_on_c, 9, 38, 0
3, 30900, Note_on_c, 9, 44, 95
3, 30900, Note_on_c, 9, 36, 93
3, 30930, Note_on_c, 9, 36, 0
3, 30930, Note_on_c, 9, 44, 0
3, 30960, Note_on_c, 9, 44, 105
3, 30960, Note_on_c, 9, 36, 97
3, 30990, Note_on_c, 9, 36, 0
3, 30990, Note_on_c, 9, 44, 0
3, 31080, Note_on_c, 9, 38, 101
3, 31110, Note_on_c, 9, 38, 0
3, 31140, Note_on_c, 9, 36, 100
3, 31140, Note_on_c, 9, 44, 97
3, 31170, Note_on_c, 9, 44, 0
3, 31170, Note_on_c, 9, 36, 0
3, 31200, Note_on_c, 9, 36, 101
3, 31200, Note_on_c, 9, 44, 105
3, 31230, Note_on_c, 9, 44, 0
3, 31230, Note_on_c, 9, 36, 0
3, 31230, Note_on_c, 9, 44, 100
3, 31230, Note_on_c, 9, 36, 96
3, 31260, Note_on_c, 9, 36, 0
3, 31260, Note_on_c, 9, 44, 0
3, 31320, Note_on_c, 9, 38, 95
3, 31350, Note_on_c, 9, 38, 0
3, 31380, Note_on_c, 9, 44, 100
3, 31380, Note_on_c, 9, 36, 95
3, 31410, Note_on_c, 9, 36, 0
3, 31410, Note_on_c, 9, 44, 0
3, 31440, Note_on_c, 9, 36, 99
3, 31440, Note_on_c, 9, 44, 104
3, 31470, Note_on_c, 9, 44, 0
3, 31470, Note_on_c, 9, 36, 0
3, 31560, Note_on_c, 9, 38, 99
3, 31590, Note_on_c, 9, 38, 0
3, 31680, Note_on_c, 9, 44, 99
3, 31680, Note_on_c, 9, 36, 97
3, 31710, Note_on_c, 9, 36, 0
3, 31710, Note_on_c, 9, 44, 0
3, 31710, Note_on_c, 9, 44, 95
3, 31710, Note_on_c, 9, 36, 98
3, 31740, Note_on_c, 9, 36, 0
3, 31740, Note_on_c, 9, 44, 0
3, 31800, Note_on_c, 9, 38, 99
3, 31830, Note_on_c, 9, 38, 0
3, 31860, Note_on_c, 9, 36, 95
3, 31860, Note_on_c, 9, 44, 97
3, 31890, Note_on_c, 9, 44, 0
3, 31890, Note_on_c, 9, 36, 0
3, 31920, Note_on_c, 9, 36, 105
3, 31920, Note_on_c, 9, 44, 110
3, 31950, Note_on_c, 9, 44, 0
3, 31950, Note_on_c, 9, 36, 0
3, 32040, Note_on_c, 9, 38, 101
3, 32070, Note_on_c, 9, 38, 0
3, 32100, Note_on_c, 9, 36, 100
3, 32100, Note_on_c, 9, 44, 100
3, 32160, Note_on_c, 9, 44, 99
3, 32160, Note_on_c, 9, 36, 95
3, 32190, Note_on_c, 9, 44, 0
3, 32190, Note_on_c, 9, 36, 0
3, 32190, Note_on_c, 9, 44, 99
3, 32190, Note_on_c, 9, 36, 96
3, 32220, Note_on_c, 9, 36, 0
3, 32220, Note_on_c, 9, 36, 0
3, 32220, Note_on_c, 9, 44, 0
3, 32220, Note_on_c, 9, 44, 0
3, 32280, Note_on_c, 9, 38, 92
3, 32310, Note_on_c, 9, 38, 0
3, 32340, Note_on_c, 9, 44, 99
3, 32340, Note_on_c, 9, 36, 92
3, 32370, Note_on_c, 9, 36, 0
3, 32370, Note_on_c, 9, 44, 0
3, 32400, Note_on_c, 9, 36, 97
3, 32400, Note_on_c, 9, 44, 110
3, 32430, Note_on_c, 9, 44, 0
3, 32430, Note_on_c, 9, 36, 0
3, 32520, Note_on_c, 9, 38, 99
3, 32550, Note_on_c, 9, 38, 0
3, 32640, Note_on_c, 9, 44, 96
3, 32640, Note_on_c, 9, 36, 93
3, 32670, Note_on_c, 9, 36, 0
3, 32670, Note_on_c, 9, 44, 0
3, 32670, Note_on_c, 9, 36, 88
3, 32670, Note_on_c, 9, 44, 99
3, 32700, Note_on_c, 9, 44, 0
3, 32700, Note_on_c, 9, 36, 0
3, 32760, Note_on_c, 9, 38, 91
3, 32790, Note_on_c, 9, 38, 0
3, 32820, Note_on_c, 9, 44, 95
3, 32820, Note_on_c, 9, 36, 93
3, 32850, Note_on_c, 9, 36, 0
3, 32850, Note_on_c, 9, 44, 0
3, 32880, Note_on_c, 9, 44, 105
3, 32880, Note_on_c, 9, 36, 97
3, 32910, Note_on_c, 9, 36, 0
3, 32910, Note_on_c, 9, 44, 0
3, 33000, Note_on_c, 9, 38, 101
3, 33030, Note_on_c, 9, 38, 0
3, 33060, Note_on_c, 9, 36, 100
3, 33060, Note_on_c, 9, 44, 97
3, 33090, Note_on_c, 9, 44, 0
3, 33090, Note_on_c, 9, 36, 0
3, 33120, Note_on_c, 9, 36, 101
3, 33120, Note_on_c, 9, 44, 105
3, 33150, Note_on_c, 9, 44, 0
3, 33150, Note_on_c, 9, 36, 0
3, 33150, Note_on_c, 9, 44, 100
3, 33150, Note_on_c, 9, 36, 96
3, 33180, Note_on_c, 9, 36, 0
3, 33180, Note_on_c, 9, 44, 0
3, 33240, Note_on_c, 9, 38, 95
3, 33270, Note_on_c, 9, 38, 0
3, 33300, Note_on_c, 9, 44, 100
3, 33300, Note_on_c, 9, 36, 95
3, 33330, Note_on_c, 9, 36, 0
3, 33330, Note_on_c, 9, 44, 0
3, 33360, Note_on_c, 9, 36, 99
3, 33360, Note_on_c, 9, 44, 104
3, 33390, Note_on_c, 9, 44, 0
3, 33390, Note_on_c, 9, 36, 0
3, 33480, Note_on_c, 9, 38, 99
3, 33510, Note_on_c, 9, 38, 0
3, 33600, Note_on_c, 9, 44, 99
3, 33600, Note_on_c, 9, 36, 97
3, 33630, Note_on_c, 9, 36, 0
3, 33630, Note_on_c, 9, 44, 0
3, 33630, Note_on_c, 9, 44, 95
3, 33630, Note_on_c, 9, 36, 98
3, 33660, Note_on_c, 9, 36, 0
3, 33660, Note_on_c, 9, 44, 0
3, 33720, Note_on_c, 9, 38, 99
3, 33750, Note_on_c, 9, 38, 0
3, 33780, Note_on_c, 9, 36, 95
3, 33780, Note_on_c, 9, 44, 97
3, 33810, Note_on_c, 9, 44, 0
3, 33810, Note_on_c, 9, 36, 0
3, 33840, Note_on_c, 9, 36, 105
3, 33840, Note_on_c, 9, 44, 110
3, 33840, Note_on_c, 9, 36, 108
3, 33840, Note_on_c, 9, 44, 113
3, 33870, Note_on_c, 9, 44, 0
3, 33870, Note_on_c, 9, 36, 0
3, 33870, Note_on_c, 9, 44, 0
3, 33870, Note_on_c, 9, 36, 0
3, 33900, Note_on_c, 9, 36, 104
3, 33900, Note_on_c, 9, 44, 117
3, 33930, Note_on_c, 9, 44, 0
3, 33930, Note_on_c, 9, 36, 0
3, 33960, Note_on_c, 9, 38, 101
3, 33960, Note_on_c, 9, 44, 117
3, 33960, Note_on_c, 9, 36, 113
3, 33990, Note_on_c, 9, 36, 0
3, 33990, Note_on_c, 9, 44, 0
3, 33990, Note_on_c, 9, 38, 0
3, 34020, Note_on_c, 9, 36, 100
3, 34020, Note_on_c, 9, 44, 100
3, 34020, Note_on_c, 9, 44, 121
3, 34020, Note_on_c, 9, 36, 117
3, 34050, Note_on_c, 9, 36, 0
3, 34050, Note_on_c, 9, 44, 0
3, 34080, Note_on_c, 9, 44, 121
3, 34080, Note_on_c, 9, 36, 108
3, 34110, Note_on_c, 9, 36, 0
3, 34110, Note_on_c, 9, 36, 0
3, 34110, Note_on_c, 9, 44, 0
3, 34110, Note_on_c, 9, 44, 0
3, 34110, Note_on_c, 9, 36, 100
3, 34110, Note_on_c, 9, 44, 113
3, 34140, Note_on_c, 9, 44, 0
3, 34140, Note_on_c, 9, 36, 0
3, 34560, Note_on_c, 9, 36, 108
3, 34560, Note_on_c, 9, 44, 120
3, 34590, Note_on_c, 9, 44, 0
3, 34590, Note_on_c, 9, 36, 0
3, 34590, Note_on_c, 9, 36, 105
3, 34590, Note_on_c, 9, 44, 113
3, 34620, Note_on_c, 9, 44, 0
3, 34620, Note_on_c, 9, 36, 0
3, 34680, Note_on_c, 9, 38, 116
3, 34740, Note_on_c, 9, 38, 0
3, 34860, Note_on_c, 9, 69, 95
3, 34890, Note_on_c, 9, 69, 0
3, 34890, Note_on_c, 9, 70, 101
3, 34920, Note_on_c, 9, 70, 0
3, 34980, Note_on_c, 9, 36, 110
3, 35010, Note_on_c, 9, 36, 0
3, 35040, Note_on_c, 9, 44, 113
3, 35040, Note_on_c, 9, 36, 112
3, 35070, Note_on_c, 9, 36, 0
3, 35070, Note_on_c, 9, 44, 0
3, 35070, Note_on_c, 9, 36, 104
3, 35070, Note_on_c, 9, 44, 117
3, 35100, Note_on_c, 9, 44, 0
3, 35100, Note_on_c, 9, 36, 0
3, 35520, Note_on_c, 9, 36, 112
3, 35520, Note_on_c, 9, 44, 121
3, 35550, Note_on_c, 9, 44, 0
3, 35550, Note_on_c, 9, 36, 0
3, 35550, Note_on_c, 9, 36, 104
3, 35550, Note_on_c, 9, 44, 116
3, 35580, Note_on_c, 9, 44, 0
3, 35580, Note_on_c, 9, 36, 0
3, 35700, Note_on_c, 9, 36, 102
3, 35700, Note_on_c, 9, 44, 106
3, 35730, Note_on_c, 9, 44, 0
3, 35730, Note_on_c, 9, 36, 0
3, 35760, Note_on_c, 9, 36, 110
3, 35760, Note_on_c, 9, 44, 116
3, 35790, Note_on_c, 9, 44, 0
3, 35790, Note_on_c, 9, 36, 0
3, 35790, Note_on_c, 9, 36, 104
3, 35790, Note_on_c, 9, 44, 108
3, 35820, Note_on_c, 9, 44, 0
3, 35820, Note_on_c, 9, 36, 0
3, 35940, Note_on_c, 9, 36, 101
3, 35940, Note_on_c, 9, 44, 113
3, 35970, Note_on_c, 9, 44, 0
3, 35970, Note_on_c, 9, 36, 0
3, 36000, Note_on_c, 9, 36, 117
3, 36000, Note_on_c, 9, 44, 116
3, 36030, Note_on_c, 9, 44, 0
3, 36030, Note_on_c, 9, 36, 0
3, 36030, Note_on_c, 9, 36, 102
3, 36030, Note_on_c, 9, 44, 110
3, 36060, Note_on_c, 9, 44, 0
3, 36060, Note_on_c, 9, 36, 0
3, 36120, Note_on_c, 9, 38, 105
3, 36150, Note_on_c, 9, 38, 0
3, 36180, Note_on_c, 9, 36, 105
3, 36180, Note_on_c, 9, 44, 117
3, 36210, Note_on_c, 9, 44, 0
3, 36210, Note_on_c, 9, 36, 0
3, 36240, Note_on_c, 9, 44, 116
3, 36240, Note_on_c, 9, 36, 117
3, 36270, Note_on_c, 9, 36, 0
3, 36270, Note_on_c, 9, 44, 0
3, 36360, Note_on_c, 9, 38, 121
3, 36390, Note_on_c, 9, 38, 0
3, 36480, Note_on_c, 9, 36, 117
3, 36480, Note_on_c, 9, 44, 116
3, 36510, Note_on_c, 9, 44, 0
3, 36510, Note_on_c, 9, 36, 0
3, 36510, Note_on_c, 9, 36, 102
3, 36510, Note_on_c, 9, 44, 110
3, 36540, Note_on_c, 9, 44, 0
3, 36540, Note_on_c, 9, 36, 0
3, 36600, Note_on_c, 9, 38, 105
3, 36630, Note_on_c, 9, 38, 0
3, 36660, Note_on_c, 9, 36, 105
3, 36660, Note_on_c, 9, 44, 117
3, 36690, Note_on_c, 9, 44, 0
3, 36690, Note_on_c, 9, 36, 0
3, 36720, Note_on_c, 9, 44, 116
3, 36720, Note_on_c, 9, 36, 117
3, 36750, Note_on_c, 9, 36, 0
3, 36750, Note_on_c, 9, 44, 0
3, 36840, Note_on_c, 9, 38, 121
3, 36870, Note_on_c, 9, 38, 0
3, 36960, Note_on_c, 9, 36, 117
3, 36960, Note_on_c, 9, 44, 116
3, 36990, Note_on_c, 9, 44, 0
3, 36990, Note_on_c, 9, 36, 0
3, 36990, Note_on_c, 9, 36, 102
3, 36990, Note_on_c, 9, 44, 110
3, 37020, Note_on_c, 9, 44, 0
3, 37020, Note_on_c, 9, 36, 0
3, 37080, Note_on_c, 9, 38, 105
3, 37110, Note_on_c, 9, 38, 0
3, 37140, Note_on_c, 9, 36, 105
3, 37140, Note_on_c, 9, 44, 117
3, 37170, Note_on_c, 9, 44, 0
3, 37170, Note_on_c, 9, 36, 0
3, 37200, Note_on_c, 9, 44, 116
3, 37200, Note_on_c, 9, 36, 117
3, 37230, Note_on_c, 9, 36, 0
3, 37230, Note_on_c, 9, 44, 0
3, 37320, Note_on_c, 9, 38, 121
3, 37350, Note_on_c, 9, 38, 0
3, 37440, Note_on_c, 9, 44, 116
3, 37440, Note_on_c, 9, 36, 108
3, 37470, Note_on_c, 9, 36, 0
3, 37470, Note_on_c, 9, 44, 0
3, 37470, Note_on_c, 9, 36, 99
3, 37470, Note_on_c, 9, 44, 112
3, 37500, Note_on_c, 9, 44, 0
3, 37500, Note_on_c, 9, 36, 0
3, 37560, Note_on_c, 9, 44, 117
3, 37560, Note_on_c, 9, 36, 101
3, 37590, Note_on_c, 9, 36, 0
3, 37590, Note_on_c, 9, 44, 0
3, 37590, Note_on_c, 9, 36, 104
3, 37590, Note_on_c, 9, 44, 113
3, 37620, Note_on_c, 9, 44, 0
3, 37620, Note_on_c, 9, 36, 0
3, 37680, Note_on_c, 9, 44, 110
3, 37680, Note_on_c, 9, 36, 101
3, 37680, Note_on_c, 9, 69, 104
3, 37710, Note_on_c, 9, 69, 0
3, 37710, Note_on_c, 9, 36, 0
3, 37710, Note_on_c, 9, 44, 0
3, 37710, Note_on_c, 9, 44, 106
3, 37710, Note_on_c, 9, 36, 99
3, 37710, Note_on_c, 9, 70, 110
3, 37740, Note_on_c, 9, 70, 0
3, 37740, Note_on_c, 9, 36, 0
3, 37740, Note_on_c, 9, 44, 0
3, 37740, Note_on_c, 9, 69, 112
3, 37770, Note_on_c, 9, 69, 0
3, 37770, Note_on_c, 9, 70, 117
3, 37800, Note_on_c, 9, 70, 0
3, 37800, Note_on_c, 9, 44, 108
3, 37800, Note_on_c, 9, 36, 94
3, 37800, Note_on_c, 9, 69, 116
3, 37830, Note_on_c, 9, 69, 0
3, 37830, Note_on_c, 9, 36, 0
3, 37830, Note_on_c, 9, 44, 0
3, 37830, Note_on_c, 9, 36, 99
3, 37830, Note_on_c, 9, 44, 112
3, 37830, Note_on_c, 9, 70, 117
3, 37860, Note_on_c, 9, 70, 0
3, 37860, Note_on_c, 9, 44, 0
3, 37860, Note_on_c, 9, 36, 0
3, 37860, Note_on_c, 9, 69, 116
3, 37890, Note_on_c, 9, 69, 0
3, 37890, Note_on_c, 9, 70, 120
3, 37920, Note_on_c, 9, 70, 0
3, 37920, Note_on_c, 9, 36, 95
3, 37920, Note_on_c, 9, 44, 99
3, 37950, Note_on_c, 9, 44, 99
3, 37950, Note_on_c, 9, 36, 96
3, 37980, Note_on_c, 9, 36, 0
3, 37980, Note_on_c, 9, 36, 0
3, 37980, Note_on_c, 9, 44, 0
3, 37980, Note_on_c, 9, 44, 0
3, 38040, Note_on_c, 9, 38, 92
3, 38070, Note_on_c, 9, 38, 0
3, 38100, Note_on_c, 9, 44, 99
3, 38100, Note_on_c, 9, 36, 92
3, 38130, Note_on_c, 9, 36, 0
3, 38130, Note_on_c, 9, 44, 0
3, 38160, Note_on_c, 9, 36, 97
3, 38160, Note_on_c, 9, 44, 110
3, 38190, Note_on_c, 9, 44, 0
3, 38190, Note_on_c, 9, 36, 0
3, 38280, Note_on_c, 9, 38, 99
3, 38310, Note_on_c, 9, 38, 0
3, 38400, Note_on_c, 9, 44, 96
3, 38400, Note_on_c, 9, 36, 93
3, 38430, Note_on_c, 9, 36, 0
3, 38430, Note_on_c, 9, 44, 0
3, 38430, Note_on_c, 9, 36, 88
3, 38430, Note_on_c, 9, 44, 99
3, 38460, Note_on_c, 9, 44, 0
3, 38460, Note_on_c, 9, 36, 0
3, 38520, Note_on_c, 9, 38, 91
3, 38550, Note_on_c, 9, 38, 0
3, 38580, Note_on_c, 9, 44, 95
3, 38580, Note_on_c, 9, 36, 93
3, 38610, Note_on_c, 9, 36, 0
3, 38610, Note_on_c, 9, 44, 0
3, 38640, Note_on_c, 9, 44, 105
3, 38640, Note_on_c, 9, 36, 97
3, 38670, Note_on_c, 9, 36, 0
3, 38670, Note_on_c, 9, 44, 0
3, 38760, Note_on_c, 9, 38, 101
3, 38790, Note_on_c, 9, 38, 0
3, 38820, Note_on_c, 9, 36, 100
3, 38820, Note_on_c, 9, 44, 97
3, 38850, Note_on_c, 9, 44, 0
3, 38850, Note_on_c, 9, 36, 0
3, 38880, Note_on_c, 9, 36, 101
3, 38880, Note_on_c, 9, 44, 105
3, 38910, Note_on_c, 9, 44, 0
3, 38910, Note_on_c, 9, 36, 0
3, 38910, Note_on_c, 9, 44, 100
3, 38910, Note_on_c, 9, 36, 96
3, 38940, Note_on_c, 9, 36, 0
3, 38940, Note_on_c, 9, 44, 0
3, 39000, Note_on_c, 9, 38, 95
3, 39030, Note_on_c, 9, 38, 0
3, 39060, Note_on_c, 9, 44, 100
3, 39060, Note_on_c, 9, 36, 95
3, 39090, Note_on_c, 9, 36, 0
3, 39090, Note_on_c, 9, 44, 0
3, 39120, Note_on_c, 9, 36, 99
3, 39120, Note_on_c, 9, 44, 104
3, 39150, Note_on_c, 9, 44, 0
3, 39150, Note_on_c, 9, 36, 0
3, 39240, Note_on_c, 9, 38, 99
3, 39270, Note_on_c, 9, 38, 0
3, 39360, Note_on_c, 9, 44, 99
3, 39360, Note_on_c, 9, 36, 97
3, 39390, Note_on_c, 9, 36, 0
3, 39390, Note_on_c, 9, 44, 0
3, 39390, Note_on_c, 9, 44, 95
3, 39390, Note_on_c, 9, 36, 98
3, 39420, Note_on_c, 9, 36, 0
3, 39420, Note_on_c, 9, 44, 0
3, 39480, Note_on_c, 9, 38, 99
3, 39510, Note_on_c, 9, 38, 0
3, 39540, Note_on_c, 9, 36, 95
3, 39540, Note_on_c, 9, 44, 97
3, 39570, Note_on_c, 9, 44, 0
3, 39570, Note_on_c, 9, 36, 0
3, 39600, Note_on_c, 9, 36, 105
3, 39600, Note_on_c, 9, 44, 110
3, 39630, Note_on_c, 9, 44, 0
3, 39630, Note_on_c, 9, 36, 0
3, 39720, Note_on_c, 9, 38, 101
3, 39750, Note_on_c, 9, 38, 0
3, 39780, Note_on_c, 9, 36, 100
3, 39780, Note_on_c, 9, 44, 100
3, 39840, Note_on_c, 9, 36, 95
3, 39840, Note_on_c, 9, 44, 99
3, 39870, Note_on_c, 9, 44, 0
3, 39870, Note_on_c, 9, 36, 0
3, 39870, Note_on_c, 9, 44, 99
3, 39870, Note_on_c, 9, 36, 96
3, 39900, Note_on_c, 9, 36, 0
3, 39900, Note_on_c, 9, 44, 0
3, 39900, Note_on_c, 9, 36, 0
3, 39900, Note_on_c, 9, 44, 0
3, 39960, Note_on_c, 9, 38, 92
3, 39990, Note_on_c, 9, 38, 0
3, 40020, Note_on_c, 9, 44, 99
3, 40020, Note_on_c, 9, 36, 92
3, 40050, Note_on_c, 9, 36, 0
3, 40050, Note_on_c, 9, 44, 0
3, 40080, Note_on_c, 9, 36, 97
3, 40080, Note_on_c, 9, 44, 110
3, 40110, Note_on_c, 9, 44, 0
3, 40110, Note_on_c, 9, 36, 0
3, 40200, Note_on_c, 9, 38, 99
3, 40230, Note_on_c, 9, 38, 0
3, 40320, Note_on_c, 9, 44, 96
3, 40320, Note_on_c, 9, 36, 93
3, 40350, Note_on_c, 9, 36, 0
3, 40350, Note_on_c, 9, 44, 0
3, 40350, Note_on_c, 9, 36, 88
3, 40350, Note_on_c, 9, 44, 99
3, 40380, Note_on_c, 9, 44, 0
3, 40380, Note_on_c, 9, 36, 0
3, 40440, Note_on_c, 9, 38, 91
3, 40470, Note_on_c, 9, 38, 0
3, 40500, Note_on_c, 9, 44, 95
3, 40500, Note_on_c, 9, 36, 93
3, 40530, Note_on_c, 9, 36, 0
3, 40530, Note_on_c, 9, 44, 0
3, 40560, Note_on_c, 9, 44, 105
3, 40560, Note_on_c, 9, 36, 97
3, 40590, Note_on_c, 9, 36, 0
3, 40590, Note_on_c, 9, 44, 0
3, 40680, Note_on_c, 9, 38, 101
3, 40710, Note_on_c, 9, 38, 0
3, 40740, Note_on_c, 9, 36, 100
3, 40740, Note_on_c, 9, 44, 97
3, 40770, Note_on_c, 9, 44, 0
3, 40770, Note_on_c, 9, 36, 0
3, 40800, Note_on_c, 9, 36, 101
3, 40800, Note_on_c, 9, 44, 105
3, 40830, Note_on_c, 9, 44, 0
3, 40830, Note_on_c, 9, 36, 0
3, 40830, Note_on_c, 9, 44, 100
3, 40830, Note_on_c, 9, 36, 96
3, 40860, Note_on_c, 9, 36, 0
3, 40860, Note_on_c, 9, 44, 0
3, 40920, Note_on_c, 9, 38, 95
3, 40950, Note_on_c, 9, 38, 0
3, 40980, Note_on_c, 9, 44, 100
3, 40980, Note_on_c, 9, 36, 95
3, 41010, Note_on_c, 9, 36, 0
3, 41010, Note_on_c, 9, 44, 0
3, 41040, Note_on_c, 9, 36, 99
3, 41040, Note_on_c, 9, 44, 104
3, 41070, Note_on_c, 9, 44, 0
3, 41070, Note_on_c, 9, 36, 0
3, 41160, Note_on_c, 9, 38, 99
3, 41190, Note_on_c, 9, 38, 0
3, 41880, Note_on_c, 9, 38, 92
3, 41910, Note_on_c, 9, 38, 0
3, 41940, Note_on_c, 9, 44, 99
3, 41940, Note_on_c, 9, 36, 92
3, 41970, Note_on_c, 9, 36, 0
3, 41970, Note_on_c, 9, 44, 0
3, 42000, Note_on_c, 9, 36, 97
3, 42000, Note_on_c, 9, 44, 110
3, 42030, Note_on_c, 9, 44, 0
3, 42030, Note_on_c, 9, 36, 0
3, 42120, Note_on_c, 9, 38, 99
3, 42150, Note_on_c, 9, 38, 0
3, 42240, Note_on_c, 9, 44, 96
3, 42240, Note_on_c, 9, 36, 93
3, 42270, Note_on_c, 9, 36, 0
3, 42270, Note_on_c, 9, 44, 0
3, 42270, Note_on_c, 9, 36, 88
3, 42270, Note_on_c, 9, 44, 99
3, 42300, Note_on_c, 9, 44, 0
3, 42300, Note_on_c, 9, 36, 0
3, 42360, Note_on_c, 9, 38, 91
3, 42390, Note_on_c, 9, 38, 0
3, 42420, Note_on_c, 9, 44, 95
3, 42420, Note_on_c, 9, 36, 93
3, 42450, Note_on_c, 9, 36, 0
3, 42450, Note_on_c, 9, 44, 0
3, 42480, Note_on_c, 9, 44, 105
3, 42480, Note_on_c, 9, 36, 97
3, 42510, Note_on_c, 9, 36, 0
3, 42510, Note_on_c, 9, 44, 0
3, 42600, Note_on_c, 9, 38, 101
3, 42630, Note_on_c, 9, 38, 0
3, 42660, Note_on_c, 9, 36, 100
3, 42660, Note_on_c, 9, 44, 97
3, 42690, Note_on_c, 9, 44, 0
3, 42690, Note_on_c, 9, 36, 0
3, 42720, Note_on_c, 9, 36, 101
3, 42720, Note_on_c, 9, 44, 105
3, 42750, Note_on_c, 9, 44, 0
3, 42750, Note_on_c, 9, 36, 0
3, 42750, Note_on_c, 9, 44, 100
3, 42750, Note_on_c, 9, 36, 96
3, 42780, Note_on_c, 9, 36, 0
3, 42780, Note_on_c, 9, 44, 0
3, 42840, Note_on_c, 9, 38, 95
3, 42870, Note_on_c, 9, 38, 0
3, 42900, Note_on_c, 9, 44, 100
3, 42900, Note_on_c, 9, 36, 95
3, 42930, Note_on_c, 9, 36, 0
3, 42930, Note_on_c, 9, 44, 0
3, 42960, Note_on_c, 9, 36, 99
3, 42960, Note_on_c, 9, 44, 104
3, 42990, Note_on_c, 9, 44, 0
3, 42990, Note_on_c, 9, 36, 0
3, 43080, Note_on_c, 9, 38, 99
3, 43110, Note_on_c, 9, 38, 0
3, 43200, Note_on_c, 9, 44, 99
3, 43200, Note_on_c, 9, 36, 97
3, 43230, Note_on_c, 9, 36, 0
3, 43230, Note_on_c, 9, 44, 0
3, 43230, Note_on_c, 9, 44, 95
3, 43230, Note_on_c, 9, 36, 98
3, 43260, Note_on_c, 9, 36, 0
3, 43260, Note_on_c, 9, 44, 0
3, 43320, Note_on_c, 9, 38, 99
3, 43350, Note_on_c, 9, 38, 0
3, 43380, Note_on_c, 9, 36, 95
3, 43380, Note_on_c, 9, 44, 97
3, 43410, Note_on_c, 9, 44, 0
3, 43410, Note_on_c, 9, 36, 0
3, 43440, Note_on_c, 9, 36, 105
3, 43440, Note_on_c, 9, 44, 110
3, 43470, Note_on_c, 9, 44, 0
3, 43470, Note_on_c, 9, 36, 0
3, 43560, Note_on_c, 9, 38, 101
3, 43590, Note_on_c, 9, 38, 0
3, 43620, Note_on_c, 9, 36, 100
3, 43620, Note_on_c, 9, 44, 100
3, 43680, Note_on_c, 9, 36, 95
3, 43680, Note_on_c, 9, 44, 99
3, 43710, Note_on_c, 9, 44, 0
3, 43710, Note_on_c, 9, 36, 0
3, 43710, Note_on_c, 9, 44, 99
3, 43710, Note_on_c, 9, 36, 96
3, 43740, Note_on_c, 9, 36, 0
3, 43740, Note_on_c, 9, 44, 0
3, 43740, Note_on_c, 9, 36, 0
3, 43740, Note_on_c, 9, 44, 0
3, 43800, Note_on_c, 9, 38, 92
3, 43830, Note_on_c, 9, 38, 0
3, 43860, Note_on_c, 9, 44, 99
3, 43860, Note_on_c, 9, 36, 92
3, 43890, Note_on_c, 9, 36, 0
3, 43890, Note_on_c, 9, 44, 0
3, 43920, Note_on_c, 9, 36, 97
3, 43920, Note_on_c, 9, 44, 110
3, 43950, Note_on_c, 9, 44, 0
3, 43950, Note_on_c, 9, 36, 0
3, 44040, Note_on_c, 9, 38, 99
3, 44070, Note_on_c, 9, 38, 0
3, 44160, Note_on_c, 9, 44, 96
3, 44160, Note_on_c, 9, 36, 93
3, 44190, Note_on_c, 9, 36, 0
3, 44190, Note_on_c, 9, 44, 0
3, 44190, Note_on_c, 9, 36, 88
3, 44190, Note_on_c, 9, 44, 99
3, 44220, Note_on_c, 9, 44, 0
3, 44220, Note_on_c, 9, 36, 0
3, 44280, Note_on_c, 9, 38, 91
3, 44310, Note_on_c, 9, 38, 0
3, 44340, Note_on_c, 9, 44, 95
3, 44340, Note_on_c, 9, 36, 93
3, 44370, Note_on_c, 9, 36, 0
3, 44370, Note_on_c, 9, 44, 0
3, 44400, Note_on_c, 9, 44, 105
3, 44400, Note_on_c, 9, 36, 97
3, 44430, Note_on_c, 9, 36, 0
3, 44430, Note_on_c, 9, 44, 0
3, 44520, Note_on_c, 9, 38, 101
3, 44550, Note_on_c, 9, 38, 0
3, 44580, Note_on_c, 9, 36, 100
3, 44580, Note_on_c, 9, 44, 97
3, 44610, Note_on_c, 9, 44, 0
3, 44610, Note_on_c, 9, 36, 0
3, 44640, Note_on_c, 9, 36, 101
3, 44640, Note_on_c, 9, 44, 105
3, 44670, Note_on_c, 9, 44, 0
3, 44670, Note_on_c, 9, 36, 0
3, 44670, Note_on_c, 9, 44, 100
3, 44670, Note_on_c, 9, 36, 96
3, 44700, Note_on_c, 9, 36, 0
3, 44700, Note_on_c, 9, 44, 0
3, 44760, Note_on_c, 9, 38, 95
3, 44790, Note_on_c, 9, 38, 0
3, 44820, Note_on_c, 9, 44, 100
3, 44820, Note_on_c, 9, 36, 95
3, 44850, Note_on_c, 9, 36, 0
3, 44850, Note_on_c, 9, 44, 0
3, 44880, Note_on_c, 9, 36, 99
3, 44880, Note_on_c, 9, 44, 104
3, 44910, Note_on_c, 9, 44, 0
3, 44910, Note_on_c, 9, 36, 0
3, 45000, Note_on_c, 9, 38, 99
3, 45030, Note_on_c, 9, 38, 0
3, 45120, Note_on_c, 9, 44, 99
3, 45120, Note_on_c, 9, 36, 97
3, 45150, Note_on_c, 9, 36, 0
3, 45150, Note_on_c, 9, 44, 0
3, 45150, Note_on_c, 9, 44, 95
3, 45150, Note_on_c, 9, 36, 98
3, 45180, Note_on_c, 9, 36, 0
3, 45180, Note_on_c, 9, 44, 0
3, 45600, Note_on_c, 9, 36, 95
3, 45600, Note_on_c, 9, 44, 99
3, 45630, Note_on_c, 9, 44, 99
3, 45630, Note_on_c, 9, 36, 96
3, 45660, Note_on_c, 9, 36, 0
3, 45660, Note_on_c, 9, 36, 0
3, 45660, Note_on_c, 9, 44, 0
3, 45660, Note_on_c, 9, 44, 0
3, 45720, Note_on_c, 9, 38, 92
3, 45750, Note_on_c, 9, 38, 0
3, 45780, Note_on_c, 9, 44, 99
3, 45780, Note_on_c, 9, 36, 92
3, 45810, Note_on_c, 9, 36, 0
3, 45810, Note_on_c, 9, 44, 0
3, 45840, Note_on_c, 9, 44, 110
3, 45840, Note_on_c, 9, 36, 97
3, 45870, Note_on_c, 9, 36, 0
3, 45870, Note_on_c, 9, 44, 0
3, 45960, Note_on_c, 9, 38, 99
3, 45990, Note_on_c, 9, 38, 0
3, 46080, Note_on_c, 9, 36, 93
3, 46080, Note_on_c, 9, 44, 96
3, 46110, Note_on_c, 9, 44, 0
3, 46110, Note_on_c, 9, 36, 0
3, 46110, Note_on_c, 9, 36, 88
3, 46110, Note_on_c, 9, 44, 99
3, 46140, Note_on_c, 9, 44, 0
3, 46140, Note_on_c, 9, 36, 0
3, 46200, Note_on_c, 9, 38, 91
3, 46230, Note_on_c, 9, 38, 0
3, 46260, Note_on_c, 9, 36, 93
3, 46260, Note_on_c, 9, 44, 95
3, 46290, Note_on_c, 9, 44, 0
3, 46290, Note_on_c, 9, 36, 0
3, 46320, Note_on_c, 9, 44, 105
3, 46320, Note_on_c, 9, 36, 97
3, 46350, Note_on_c, 9, 36, 0
3, 46350, Note_on_c, 9, 44, 0
3, 46440, Note_on_c, 9, 38, 101
3, 46470, Note_on_c, 9, 38, 0
3, 46500, Note_on_c, 9, 44, 97
3, 46500, Note_on_c, 9, 36, 100
3, 46530, Note_on_c, 9, 36, 0
3, 46530, Note_on_c, 9, 44, 0
3, 46560, Note_on_c, 9, 36, 101
3, 46560, Note_on_c, 9, 44, 105
3, 46590, Note_on_c, 9, 44, 0
3, 46590, Note_on_c, 9, 36, 0
3, 46590, Note_on_c, 9, 44, 100
3, 46590, Note_on_c, 9, 36, 96
3, 46620, Note_on_c, 9, 36, 0
3, 46620, Note_on_c, 9, 44, 0
3, 46680, Note_on_c, 9, 38, 95
3, 46710, Note_on_c, 9, 38, 0
3, 46740, Note_on_c, 9, 36, 95
3, 46740, Note_on_c, 9, 44, 100
3, 46770, Note_on_c, 9, 44, 0
3, 46770, Note_on_c, 9, 36, 0
3, 46800, Note_on_c, 9, 44, 104
3, 46800, Note_on_c, 9, 36, 99
3, 46830, Note_on_c, 9, 36, 0
3, 46830, Note_on_c, 9, 44, 0
3, 46920, Note_on_c, 9, 38, 99
3, 46950, Note_on_c, 9, 38, 0
3, 47040, Note_on_c, 9, 44, 99
3, 47040, Note_on_c, 9, 36, 97
3, 47070, Note_on_c, 9, 36, 0
3, 47070, Note_on_c, 9, 44, 0
3, 47070, Note_on_c, 9, 36, 98
3, 47070, Note_on_c, 9, 44, 95
3, 47100, Note_on_c, 9, 44, 0
3, 47100, Note_on_c, 9, 36, 0
3, 47160, Note_on_c, 9, 38, 99
3, 47190, Note_on_c, 9, 38, 0
3, 47220, Note_on_c, 9, 36, 95
3, 47220, Note_on_c, 9, 44, 97
3, 47250, Note_on_c, 9, 44, 0
3, 47250, Note_on_c, 9, 36, 0
3, 47280, Note_on_c, 9, 36, 105
3, 47280, Note_on_c, 9, 44, 110
3, 47310, Note_on_c, 9, 44, 0
3, 47310, Note_on_c, 9, 36, 0
3, 47400, Note_on_c, 9, 38, 101
3, 47430, Note_on_c, 9, 38, 0
3, 47460, Note_on_c, 9, 44, 100
3, 47460, Note_on_c, 9, 36, 100
3, 47520, Note_on_c, 9, 36, 95
3, 47520, Note_on_c, 9, 44, 99
3, 47550, Note_on_c, 9, 44, 99
3, 47550, Note_on_c, 9, 36, 96
3, 47580, Note_on_c, 9, 36, 0
3, 47580, Note_on_c, 9, 36, 0
3, 47580, Note_on_c, 9, 36, 0
3, 47580, Note_on_c, 9, 44, 0
3, 47580, Note_on_c, 9, 44, 0
3, 47580, Note_on_c, 9, 44, 0
3, 47640, Note_on_c, 9, 38, 92
3, 47670, Note_on_c, 9, 38, 0
3, 47700, Note_on_c, 9, 44, 99
3, 47700, Note_on_c, 9, 36, 92
3, 47730, Note_on_c, 9, 36, 0
3, 47730, Note_on_c, 9, 44, 0
3, 47760, Note_on_c, 9, 44, 110
3, 47760, Note_on_c, 9, 36, 97
3, 47790, Note_on_c, 9, 36, 0
3, 47790, Note_on_c, 9, 44, 0
3, 47880, Note_on_c, 9, 38, 99
3, 47910, Note_on_c, 9, 38, 0
3, 48000, Note_on_c, 9, 36, 93
3, 48000, Note_on_c, 9, 44, 96
3, 48030, Note_on_c, 9, 44, 0
3, 48030, Note_on_c, 9, 36, 0
3, 48030, Note_on_c, 9, 36, 88
3, 48030, Note_on_c, 9, 44, 99
3, 48060, Note_on_c, 9, 44, 0
3, 48060, Note_on_c, 9, 36, 0
3, 48120, Note_on_c, 9, 38, 91
3, 48150, Note_on_c, 9, 38, 0
3, 48180, Note_on_c, 9, 36, 93
3, 48180, Note_on_c, 9, 44, 95
3, 48210, Note_on_c, 9, 44, 0
3, 48210, Note_on_c, 9, 36, 0
3, 48240, Note_on_c, 9, 44, 105
3, 48240, Note_on_c, 9, 36, 97
3, 48270, Note_on_c, 9, 36, 0
3, 48270, Note_on_c, 9, 44, 0
3, 48360, Note_on_c, 9, 38, 101
3, 48390, Note_on_c, 9, 38, 0
3, 48420, Note_on_c, 9, 44, 97
3, 48420, Note_on_c, 9, 36, 100
3, 48450, Note_on_c, 9, 36, 0
3, 48450, Note_on_c, 9, 44, 0
3, 48480, Note_on_c, 9, 36, 101
3, 48480, Note_on_c, 9, 44, 105
3, 48510, Note_on_c, 9, 44, 0
3, 48510, Note_on_c, 9, 36, 0
3, 48510, Note_on_c, 9, 44, 100
3, 48510, Note_on_c, 9, 36, 96
3, 48540, Note_on_c, 9, 36, 0
3, 48540, Note_on_c, 9, 44, 0
3, 48600, Note_on_c, 9, 38, 95
3, 48630, Note_on_c, 9, 38, 0
3, 48660, Note_on_c, 9, 36, 95
3, 48660, Note_on_c, 9, 44, 100
3, 48690, Note_on_c, 9, 44, 0
3, 48690, Note_on_c, 9, 36, 0
3, 48720, Note_on_c, 9, 44, 104
3, 48720, Note_on_c, 9, 36, 99
3, 48750, Note_on_c, 9, 36, 0
3, 48750, Note_on_c, 9, 44, 0
3, 48840, Note_on_c, 9, 38, 99
3, 48870, Note_on_c, 9, 38, 0
3, 48960, Note_on_c, 9, 36, 88
3, 48960, Note_on_c, 9, 44, 95
3, 48990, Note_on_c, 9, 44, 0
3, 48990, Note_on_c, 9, 36, 0
3, 49080, Note_on_c, 9, 36, 100
3, 49080, Note_on_c, 9, 44, 100
3, 49110, Note_on_c, 9, 44, 0
3, 49110, Note_on_c, 9, 36, 0
3, 49200, Note_on_c, 9, 36, 95
3, 49200, Note_on_c, 9, 44, 95
3, 49200, Note_on_c, 9, 69, 95
3, 49230, Note_on_c, 9, 69, 0
3, 49230, Note_on_c, 9, 44, 0
3, 49230, Note_on_c, 9, 36, 0
3, 49230, Note_on_c, 9, 70, 94
3, 49260, Note_on_c, 9, 70, 0
3, 49260, Note_on_c, 9, 69, 92
3, 49290, Note_on_c, 9, 69, 0
3, 49290, Note_on_c, 9, 70, 91
3, 49320, Note_on_c, 9, 70, 0
3, 49320, Note_on_c, 9, 36, 90
3, 49320, Note_on_c, 9, 44, 90
3, 49320, Note_on_c, 9, 69, 90
3, 49350, Note_on_c, 9, 69, 0
3, 49350, Note_on_c, 9, 44, 0
3, 49350, Note_on_c, 9, 36, 0
3, 49350, Note_on_c, 9, 70, 88
3, 49380, Note_on_c, 9, 70, 0
3, 49380, Note_on_c, 9, 69, 87
3, 49410, Note_on_c, 9, 69, 0
3, 49410, Note_on_c, 9, 70, 86
3, 49440, Note_on_c, 9, 70, 0
3, 49560, Note_on_c, 9, 38, 79
3, 49590, Note_on_c, 9, 38, 0
3, 49620, Note_on_c, 9, 44, 77
3, 49620, Note_on_c, 9, 36, 77
3, 49650, Note_on_c, 9, 36, 0
3, 49650, Note_on_c, 9, 44, 0
3, 49680, Note_on_c, 9, 44, 74
3, 49680, Note_on_c, 9, 36, 74
3, 49710, Note_on_c, 9, 36, 0
3, 49710, Note_on_c, 9, 44, 0
3, 49800, Note_on_c, 9, 38, 69
3, 49830, Note_on_c, 9, 38, 0
3, 49920, Note_on_c, 9, 36, 64
3, 49920, Note_on_c, 9, 44, 64
3, 49950, Note_on_c, 9, 44, 0
3, 49950, Note_on_c, 9, 36, 0
3, 49950, Note_on_c, 9, 36, 62
3, 49950, Note_on_c, 9, 44, 62
3, 49980, Note_on_c, 9, 44, 0
3, 49980, Note_on_c, 9, 36, 0
3, 50040, Note_on_c, 9, 38, 58
3, 50070, Note_on_c, 9, 38, 0
3, 50100, Note_on_c, 9, 36, 56
3, 50100, Note_on_c, 9, 44, 56
3, 50130, Note_on_c, 9, 44, 0
3, 50130, Note_on_c, 9, 36, 0
3, 50160, Note_on_c, 9, 44, 53
3, 50160, Note_on_c, 9, 36, 53
3, 50190, Note_on_c, 9, 36, 0
3, 50190, Note_on_c, 9, 44, 0
3, 50280, Note_on_c, 9, 38, 48
3, 50310, Note_on_c, 9, 38, 0
3, 50340, Note_on_c, 9, 44, 45
3, 50340, Note_on_c, 9, 36, 45
3, 50370, Note_on_c, 9, 36, 0
3, 50370, Note_on_c, 9, 44, 0
3, 50400, Note_on_c, 9, 36, 43
3, 50400, Note_on_c, 9, 44, 43
3, 50430, Note_on_c, 9, 44, 0
3, 50430, Note_on_c, 9, 36, 0
3, 50430, Note_on_c, 9, 44, 41
3, 50430, Note_on_c, 9, 36, 41
3, 50460, Note_on_c, 9, 36, 0
3, 50460, Note_on_c, 9, 44, 0
3, 50520, Note_on_c, 9, 38, 37
3, 50550, Note_on_c, 9, 38, 0
3, 50580, Note_on_c, 9, 36, 35
3, 50580, Note_on_c, 9, 44, 35
3, 50610, Note_on_c, 9, 44, 0
3, 50610, Note_on_c, 9, 36, 0
3, 50640, Note_on_c, 9, 44, 32
3, 50640, Note_on_c, 9, 36, 32
3, 50670, Note_on_c, 9, 36, 0
3, 50670, Note_on_c, 9, 44, 0
3, 50760, Note_on_c, 9, 38, 27
3, 50790, Note_on_c, 9, 38, 0
3, 50880, Note_on_c, 9, 44, 22
3, 50880, Note_on_c, 9, 36, 22
3, 50910, Note_on_c, 9, 36, 0
3, 50910, Note_on_c, 9, 44, 0
3, 50910, Note_on_c, 9, 36, 21
3, 50910, Note_on_c, 9, 44, 21
3, 50940, Note_on_c, 9, 44, 0
3, 50940, Note_on_c, 9, 36, 0
3, 51000, Note_on_c, 9, 38, 17
3, 51030, Note_on_c, 9, 38, 0
3, 51060, Note_on_c, 9, 36, 14
3, 51060, Note_on_c, 9, 44, 14
3, 51090, Note_on_c, 9, 44, 0
3, 51090, Note_on_c, 9, 36, 0
3, 51120, Note_on_c, 9, 36, 11
3, 51120, Note_on_c, 9, 44, 11
3, 51150, Note_on_c, 9, 44, 0
3, 51150, Note_on_c, 9, 36, 0
3, 51240, Note_on_c, 9, 38, 6
3, 51270, Note_on_c, 9, 38, 0
3, 51300, Note_on_c, 9, 44, 4
3, 51300, Note_on_c, 9, 36, 4
3, 51420, Note_on_c, 9, 36, 0
3, 51420, Note_on_c, 9, 44, 0
3, 51420, End_track
4, 0, Start_track
4, 0, MIDI_port, 0
4, 0, Title_t, ""
4, 0, Program_c, 9, 0
4, 0, Control_c, 9, 7, 127
4, 1500, Note_on_c, 9, 42, 110
4, 1530, Note_on_c, 9, 42, 0
4, 1560, Note_on_c, 9, 42, 113
4, 1590, Note_on_c, 9, 42, 0
4, 1740, Note_on_c, 9, 42, 120
4, 1770, Note_on_c, 9, 42, 0
4, 1800, Note_on_c, 9, 42, 117
4, 1830, Note_on_c, 9, 42, 0
4, 1860, Note_on_c, 9, 42, 113
4, 1890, Note_on_c, 9, 42, 0
4, 1980, Note_on_c, 9, 42, 117
4, 2010, Note_on_c, 9, 42, 0
4, 2040, Note_on_c, 9, 42, 117
4, 2070, Note_on_c, 9, 42, 0
4, 2220, Note_on_c, 9, 42, 113
4, 2250, Note_on_c, 9, 42, 0
4, 2280, Note_on_c, 9, 42, 117
4, 2310, Note_on_c, 9, 42, 0
4, 2460, Note_on_c, 9, 42, 110
4, 2490, Note_on_c, 9, 42, 0
4, 2520, Note_on_c, 9, 42, 117
4, 2550, Note_on_c, 9, 42, 0
4, 2700, Note_on_c, 9, 42, 117
4, 2730, Note_on_c, 9, 42, 0
4, 2760, Note_on_c, 9, 42, 120
4, 2790, Note_on_c, 9, 42, 0
4, 2820, Note_on_c, 9, 42, 113
4, 2850, Note_on_c, 9, 42, 0
4, 2940, Note_on_c, 9, 42, 117
4, 2970, Note_on_c, 9, 42, 0
4, 3000, Note_on_c, 9, 42, 116
4, 3030, Note_on_c, 9, 42, 0
4, 3180, Note_on_c, 9, 42, 102
4, 3210, Note_on_c, 9, 42, 0
4, 3240, Note_on_c, 9, 42, 117
4, 3270, Note_on_c, 9, 42, 0
4, 3420, Note_on_c, 9, 42, 110
4, 3450, Note_on_c, 9, 42, 0
4, 3480, Note_on_c, 9, 42, 113
4, 3510, Note_on_c, 9, 42, 0
4, 3660, Note_on_c, 9, 42, 120
4, 3690, Note_on_c, 9, 42, 0
4, 3720, Note_on_c, 9, 42, 117
4, 3750, Note_on_c, 9, 42, 0
4, 3780, Note_on_c, 9, 42, 113
4, 3810, Note_on_c, 9, 42, 0
4, 3900, Note_on_c, 9, 42, 117
4, 3930, Note_on_c, 9, 42, 0
4, 3960, Note_on_c, 9, 42, 117
4, 3990, Note_on_c, 9, 42, 0
4, 4140, Note_on_c, 9, 42, 113
4, 4170, Note_on_c, 9, 42, 0
4, 4200, Note_on_c, 9, 42, 117
4, 4230, Note_on_c, 9, 42, 0
4, 4380, Note_on_c, 9, 42, 110
4, 4410, Note_on_c, 9, 42, 0
4, 4440, Note_on_c, 9, 42, 117
4, 4470, Note_on_c, 9, 42, 0
4, 4620, Note_on_c, 9, 42, 117
4, 4650, Note_on_c, 9, 42, 0
4, 4680, Note_on_c, 9, 42, 120
4, 4710, Note_on_c, 9, 42, 0
4, 4740, Note_on_c, 9, 42, 113
4, 4770, Note_on_c, 9, 42, 0
4, 4860, Note_on_c, 9, 42, 117
4, 4890, Note_on_c, 9, 42, 0
4, 4920, Note_on_c, 9, 42, 116
4, 4950, Note_on_c, 9, 42, 0
4, 5100, Note_on_c, 9, 42, 102
4, 5130, Note_on_c, 9, 42, 0
4, 5160, Note_on_c, 9, 42, 117
4, 5190, Note_on_c, 9, 42, 0
4, 5340, Note_on_c, 9, 42, 110
4, 5370, Note_on_c, 9, 42, 0
4, 5400, Note_on_c, 9, 42, 113
4, 5430, Note_on_c, 9, 42, 0
4, 5580, Note_on_c, 9, 42, 120
4, 5610, Note_on_c, 9, 42, 0
4, 5640, Note_on_c, 9, 42, 117
4, 5670, Note_on_c, 9, 42, 0
4, 5700, Note_on_c, 9, 42, 113
4, 5730, Note_on_c, 9, 42, 0
4, 5820, Note_on_c, 9, 42, 117
4, 5850, Note_on_c, 9, 42, 0
4, 5880, Note_on_c, 9, 42, 117
4, 5910, Note_on_c, 9, 42, 0
4, 6060, Note_on_c, 9, 42, 113
4, 6090, Note_on_c, 9, 42, 0
4, 6120, Note_on_c, 9, 42, 117
4, 6150, Note_on_c, 9, 42, 0
4, 6300, Note_on_c, 9, 42, 110
4, 6330, Note_on_c, 9, 42, 0
4, 6360, Note_on_c, 9, 42, 117
4, 6390, Note_on_c, 9, 42, 0
4, 6540, Note_on_c, 9, 42, 117
4, 6570, Note_on_c, 9, 42, 0
4, 6600, Note_on_c, 9, 42, 120
4, 6630, Note_on_c, 9, 42, 0
4, 6660, Note_on_c, 9, 42, 113
4, 6690, Note_on_c, 9, 42, 0
4, 6780, Note_on_c, 9, 42, 117
4, 6810, Note_on_c, 9, 42, 0
4, 6840, Note_on_c, 9, 42, 116
4, 6870, Note_on_c, 9, 42, 0
4, 7020, Note_on_c, 9, 42, 102
4, 7050, Note_on_c, 9, 42, 0
4, 7080, Note_on_c, 9, 42, 117
4, 7110, Note_on_c, 9, 42, 0
4, 7260, Note_on_c, 9, 42, 110
4, 7290, Note_on_c, 9, 42, 0
4, 7320, Note_on_c, 9, 42, 113
4, 7350, Note_on_c, 9, 42, 0
4, 7500, Note_on_c, 9, 42, 120
4, 7530, Note_on_c, 9, 42, 0
4, 7560, Note_on_c, 9, 42, 117
4, 7590, Note_on_c, 9, 42, 0
4, 7620, Note_on_c, 9, 42, 113
4, 7650, Note_on_c, 9, 42, 0
4, 7740, Note_on_c, 9, 42, 117
4, 7770, Note_on_c, 9, 42, 0
4, 7800, Note_on_c, 9, 42, 117
4, 7830, Note_on_c, 9, 42, 0
4, 7980, Note_on_c, 9, 42, 113
4, 8010, Note_on_c, 9, 42, 0
4, 8040, Note_on_c, 9, 42, 117
4, 8070, Note_on_c, 9, 42, 0
4, 8220, Note_on_c, 9, 42, 110
4, 8250, Note_on_c, 9, 42, 0
4, 8280, Note_on_c, 9, 42, 117
4, 8310, Note_on_c, 9, 42, 0
4, 8460, Note_on_c, 9, 42, 117
4, 8490, Note_on_c, 9, 42, 0
4, 8520, Note_on_c, 9, 42, 120
4, 8550, Note_on_c, 9, 42, 0
4, 8580, Note_on_c, 9, 42, 113
4, 8610, Note_on_c, 9, 42, 0
4, 8700, Note_on_c, 9, 42, 117
4, 8730, Note_on_c, 9, 42, 0
4, 8760, Note_on_c, 9, 42, 116
4, 8790, Note_on_c, 9, 42, 0
4, 8940, Note_on_c, 9, 42, 102
4, 8970, Note_on_c, 9, 42, 0
4, 9000, Note_on_c, 9, 42, 117
4, 9030, Note_on_c, 9, 42, 0
4, 9180, Note_on_c, 9, 42, 110
4, 9210, Note_on_c, 9, 42, 0
4, 9240, Note_on_c, 9, 42, 113
4, 9270, Note_on_c, 9, 42, 0
4, 9420, Note_on_c, 9, 42, 120
4, 9450, Note_on_c, 9, 42, 0
4, 9480, Note_on_c, 9, 42, 117
4, 9510, Note_on_c, 9, 42, 0
4, 9540, Note_on_c, 9, 42, 113
4, 9570, Note_on_c, 9, 42, 0
4, 9660, Note_on_c, 9, 42, 117
4, 9690, Note_on_c, 9, 42, 0
4, 9720, Note_on_c, 9, 42, 117
4, 9750, Note_on_c, 9, 42, 0
4, 9900, Note_on_c, 9, 42, 113
4, 9930, Note_on_c, 9, 42, 0
4, 9960, Note_on_c, 9, 42, 117
4, 9990, Note_on_c, 9, 42, 0
4, 10140, Note_on_c, 9, 42, 110
4, 10170, Note_on_c, 9, 42, 0
4, 10200, Note_on_c, 9, 42, 117
4, 10230, Note_on_c, 9, 42, 0
4, 10380, Note_on_c, 9, 42, 117
4, 10410, Note_on_c, 9, 42, 0
4, 10440, Note_on_c, 9, 42, 120
4, 10470, Note_on_c, 9, 42, 0
4, 10500, Note_on_c, 9, 42, 113
4, 10530, Note_on_c, 9, 42, 0
4, 10620, Note_on_c, 9, 42, 117
4, 10650, Note_on_c, 9, 42, 0
4, 10680, Note_on_c, 9, 42, 116
4, 10710, Note_on_c, 9, 42, 0
4, 10860, Note_on_c, 9, 42, 102
4, 10890, Note_on_c, 9, 42, 0
4, 10920, Note_on_c, 9, 42, 117
4, 10950, Note_on_c, 9, 42, 0
4, 11100, Note_on_c, 9, 42, 110
4, 11130, Note_on_c, 9, 42, 0
4, 11160, Note_on_c, 9, 42, 113
4, 11190, Note_on_c, 9, 42, 0
4, 11340, Note_on_c, 9, 42, 120
4, 11370, Note_on_c, 9, 42, 0
4, 11400, Note_on_c, 9, 42, 117
4, 11430, Note_on_c, 9, 42, 0
4, 11460, Note_on_c, 9, 42, 113
4, 11490, Note_on_c, 9, 42, 0
4, 11580, Note_on_c, 9, 42, 117
4, 11610, Note_on_c, 9, 42, 0
4, 11640, Note_on_c, 9, 42, 117
4, 11670, Note_on_c, 9, 42, 0
4, 11820, Note_on_c, 9, 42, 113
4, 11850, Note_on_c, 9, 42, 0
4, 11880, Note_on_c, 9, 42, 117
4, 11910, Note_on_c, 9, 42, 0
4, 12060, Note_on_c, 9, 42, 110
4, 12090, Note_on_c, 9, 42, 0
4, 12120, Note_on_c, 9, 42, 117
4, 12150, Note_on_c, 9, 42, 0
4, 12300, Note_on_c, 9, 42, 117
4, 12330, Note_on_c, 9, 42, 0
4, 12360, Note_on_c, 9, 42, 120
4, 12390, Note_on_c, 9, 42, 0
4, 12420, Note_on_c, 9, 42, 113
4, 12450, Note_on_c, 9, 42, 0
4, 12540, Note_on_c, 9, 42, 117
4, 12570, Note_on_c, 9, 42, 0
4, 12600, Note_on_c, 9, 42, 116
4, 12630, Note_on_c, 9, 42, 0
4, 12780, Note_on_c, 9, 42, 102
4, 12810, Note_on_c, 9, 42, 0
4, 12840, Note_on_c, 9, 42, 117
4, 12870, Note_on_c, 9, 42, 0
4, 13020, Note_on_c, 9, 42, 110
4, 13050, Note_on_c, 9, 42, 0
4, 13080, Note_on_c, 9, 42, 113
4, 13110, Note_on_c, 9, 42, 0
4, 13260, Note_on_c, 9, 42, 120
4, 13290, Note_on_c, 9, 42, 0
4, 13320, Note_on_c, 9, 42, 117
4, 13350, Note_on_c, 9, 42, 0
4, 13380, Note_on_c, 9, 42, 113
4, 13410, Note_on_c, 9, 42, 0
4, 13500, Note_on_c, 9, 42, 117
4, 13530, Note_on_c, 9, 42, 0
4, 13560, Note_on_c, 9, 42, 117
4, 13590, Note_on_c, 9, 42, 0
4, 13740, Note_on_c, 9, 42, 113
4, 13770, Note_on_c, 9, 42, 0
4, 13800, Note_on_c, 9, 42, 117
4, 13830, Note_on_c, 9, 42, 0
4, 13980, Note_on_c, 9, 42, 110
4, 14010, Note_on_c, 9, 42, 0
4, 14040, Note_on_c, 9, 42, 117
4, 14070, Note_on_c, 9, 42, 0
4, 14220, Note_on_c, 9, 42, 117
4, 14250, Note_on_c, 9, 42, 0
4, 14280, Note_on_c, 9, 42, 120
4, 14310, Note_on_c, 9, 42, 0
4, 14340, Note_on_c, 9, 42, 113
4, 14370, Note_on_c, 9, 42, 0
4, 14460, Note_on_c, 9, 42, 117
4, 14490, Note_on_c, 9, 42, 0
4, 14520, Note_on_c, 9, 42, 116
4, 14550, Note_on_c, 9, 42, 0
4, 14700, Note_on_c, 9, 42, 102
4, 14730, Note_on_c, 9, 42, 0
4, 14760, Note_on_c, 9, 42, 117
4, 14790, Note_on_c, 9, 42, 0
4, 14940, Note_on_c, 9, 42, 110
4, 14970, Note_on_c, 9, 42, 0
4, 15000, Note_on_c, 9, 42, 113
4, 15030, Note_on_c, 9, 42, 0
4, 15180, Note_on_c, 9, 42, 120
4, 15210, Note_on_c, 9, 42, 0
4, 15240, Note_on_c, 9, 42, 117
4, 15270, Note_on_c, 9, 42, 0
4, 15300, Note_on_c, 9, 42, 113
4, 15330, Note_on_c, 9, 42, 0
4, 15420, Note_on_c, 9, 42, 117
4, 15450, Note_on_c, 9, 42, 0
4, 15480, Note_on_c, 9, 42, 117
4, 15510, Note_on_c, 9, 42, 0
4, 15660, Note_on_c, 9, 42, 113
4, 15690, Note_on_c, 9, 42, 0
4, 15720, Note_on_c, 9, 42, 117
4, 15750, Note_on_c, 9, 42, 0
4, 15900, Note_on_c, 9, 42, 110
4, 15930, Note_on_c, 9, 42, 0
4, 15960, Note_on_c, 9, 42, 117
4, 15990, Note_on_c, 9, 42, 0
4, 16140, Note_on_c, 9, 42, 117
4, 16170, Note_on_c, 9, 42, 0
4, 16200, Note_on_c, 9, 42, 120
4, 16230, Note_on_c, 9, 42, 0
4, 16260, Note_on_c, 9, 42, 113
4, 16290, Note_on_c, 9, 42, 0
4, 16380, Note_on_c, 9, 42, 117
4, 16410, Note_on_c, 9, 42, 0
4, 16440, Note_on_c, 9, 42, 116
4, 16470, Note_on_c, 9, 42, 0
4, 16620, Note_on_c, 9, 42, 102
4, 16650, Note_on_c, 9, 42, 0
4, 16680, Note_on_c, 9, 42, 117
4, 16710, Note_on_c, 9, 42, 0
4, 16860, Note_on_c, 9, 42, 110
4, 16890, Note_on_c, 9, 42, 0
4, 16920, Note_on_c, 9, 42, 113
4, 16950, Note_on_c, 9, 42, 0
4, 17100, Note_on_c, 9, 42, 120
4, 17130, Note_on_c, 9, 42, 0
4, 17160, Note_on_c, 9, 42, 117
4, 17190, Note_on_c, 9, 42, 0
4, 17220, Note_on_c, 9, 42, 113
4, 17250, Note_on_c, 9, 42, 0
4, 17340, Note_on_c, 9, 42, 117
4, 17370, Note_on_c, 9, 42, 0
4, 17400, Note_on_c, 9, 42, 117
4, 17430, Note_on_c, 9, 42, 0
4, 17580, Note_on_c, 9, 42, 113
4, 17610, Note_on_c, 9, 42, 0
4, 17640, Note_on_c, 9, 42, 117
4, 17670, Note_on_c, 9, 42, 0
4, 17820, Note_on_c, 9, 42, 110
4, 17850, Note_on_c, 9, 42, 0
4, 17880, Note_on_c, 9, 42, 117
4, 17910, Note_on_c, 9, 42, 0
4, 18060, Note_on_c, 9, 42, 117
4, 18090, Note_on_c, 9, 42, 0
4, 18120, Note_on_c, 9, 42, 120
4, 18150, Note_on_c, 9, 42, 0
4, 18180, Note_on_c, 9, 42, 113
4, 18210, Note_on_c, 9, 42, 0
4, 18240, Note_on_c, 9, 44, 121
4, 18240, Note_on_c, 9, 36, 117
4, 18270, Note_on_c, 9, 36, 0
4, 18270, Note_on_c, 9, 44, 0
4, 18300, Note_on_c, 9, 42, 117
4, 18330, Note_on_c, 9, 42, 0
4, 18360, Note_on_c, 9, 42, 116
4, 18360, Note_on_c, 9, 36, 117
4, 18360, Note_on_c, 9, 44, 125
4, 18390, Note_on_c, 9, 44, 0
4, 18390, Note_on_c, 9, 36, 0
4, 18390, Note_on_c, 9, 42, 0
4, 18480, Note_on_c, 9, 36, 121
4, 18480, Note_on_c, 9, 44, 124
4, 18510, Note_on_c, 9, 44, 0
4, 18510, Note_on_c, 9, 36, 0
4, 18540, Note_on_c, 9, 42, 102
4, 18540, Note_on_c, 9, 36, 116
4, 18540, Note_on_c, 9, 44, 124
4, 18570, Note_on_c, 9, 44, 0
4, 18570, Note_on_c, 9, 36, 0
4, 18570, Note_on_c, 9, 42, 0
4, 18600, Note_on_c, 9, 42, 117
4, 18600, Note_on_c, 9, 36, 120
4, 18600, Note_on_c, 9, 44, 125
4, 18630, Note_on_c, 9, 44, 0
4, 18630, Note_on_c, 9, 36, 0
4, 18630, Note_on_c, 9, 42, 0
4, 18660, Note_on_c, 9, 44, 125
4, 18660, Note_on_c, 9, 36, 120
4, 18690, Note_on_c, 9, 36, 0
4, 18690, Note_on_c, 9, 44, 0
4, 18840, Note_on_c, 9, 42, 113
4, 18870, Note_on_c, 9, 42, 0
4, 19020, Note_on_c, 9, 42, 120
4, 19050, Note_on_c, 9, 42, 0
4, 19080, Note_on_c, 9, 42, 117
4, 19110, Note_on_c, 9, 42, 0
4, 19140, Note_on_c, 9, 42, 113
4, 19170, Note_on_c, 9, 42, 0
4, 19260, Note_on_c, 9, 42, 117
4, 19290, Note_on_c, 9, 42, 0
4, 19320, Note_on_c, 9, 42, 117
4, 19350, Note_on_c, 9, 42, 0
4, 19500, Note_on_c, 9, 42, 113
4, 19530, Note_on_c, 9, 42, 0
4, 19560, Note_on_c, 9, 42, 117
4, 19590, Note_on_c, 9, 42, 0
4, 19740, Note_on_c, 9, 42, 110
4, 19770, Note_on_c, 9, 42, 0
4, 19800, Note_on_c, 9, 42, 117
4, 19830, Note_on_c, 9, 42, 0
4, 19980, Note_on_c, 9, 42, 117
4, 20010, Note_on_c, 9, 42, 0
4, 20040, Note_on_c, 9, 42, 120
4, 20070, Note_on_c, 9, 42, 0
4, 20100, Note_on_c, 9, 42, 113
4, 20130, Note_on_c, 9, 42, 0
4, 20220, Note_on_c, 9, 42, 117
4, 20250, Note_on_c, 9, 42, 0
4, 20280, Note_on_c, 9, 42, 116
4, 20310, Note_on_c, 9, 42, 0
4, 20460, Note_on_c, 9, 42, 102
4, 20490, Note_on_c, 9, 42, 0
4, 20520, Note_on_c, 9, 42, 117
4, 20550, Note_on_c, 9, 42, 0
4, 20700, Note_on_c, 9, 42, 110
4, 20730, Note_on_c, 9, 42, 0
4, 21000, Note_on_c, 9, 42, 117
4, 21030, Note_on_c, 9, 42, 0
4, 21060, Note_on_c, 9, 42, 113
4, 21090, Note_on_c, 9, 42, 0
4, 21180, Note_on_c, 9, 42, 117
4, 21210, Note_on_c, 9, 42, 0
4, 21240, Note_on_c, 9, 42, 117
4, 21270, Note_on_c, 9, 42, 0
4, 21420, Note_on_c, 9, 42, 113
4, 21450, Note_on_c, 9, 42, 0
4, 21480, Note_on_c, 9, 42, 117
4, 21510, Note_on_c, 9, 42, 0
4, 21660, Note_on_c, 9, 42, 110
4, 21690, Note_on_c, 9, 42, 0
4, 21960, Note_on_c, 9, 42, 117
4, 21990, Note_on_c, 9, 42, 0
4, 22020, Note_on_c, 9, 42, 113
4, 22050, Note_on_c, 9, 42, 0
4, 22140, Note_on_c, 9, 42, 117
4, 22170, Note_on_c, 9, 42, 0
4, 22200, Note_on_c, 9, 42, 117
4, 22230, Note_on_c, 9, 42, 0
4, 22380, Note_on_c, 9, 42, 113
4, 22410, Note_on_c, 9, 42, 0
4, 22440, Note_on_c, 9, 42, 117
4, 22470, Note_on_c, 9, 42, 0
4, 22620, Note_on_c, 9, 42, 110
4, 22650, Note_on_c, 9, 42, 0
4, 22680, Note_on_c, 9, 42, 113
4, 22710, Note_on_c, 9, 42, 0
4, 22860, Note_on_c, 9, 42, 120
4, 22890, Note_on_c, 9, 42, 0
4, 22920, Note_on_c, 9, 42, 117
4, 22950, Note_on_c, 9, 42, 0
4, 22980, Note_on_c, 9, 42, 113
4, 23010, Note_on_c, 9, 42, 0
4, 23100, Note_on_c, 9, 42, 117
4, 23130, Note_on_c, 9, 42, 0
4, 23160, Note_on_c, 9, 42, 117
4, 23190, Note_on_c, 9, 42, 0
4, 23340, Note_on_c, 9, 42, 113
4, 23370, Note_on_c, 9, 42, 0
4, 23400, Note_on_c, 9, 42, 117
4, 23430, Note_on_c, 9, 42, 0
4, 23580, Note_on_c, 9, 42, 110
4, 23610, Note_on_c, 9, 42, 0
4, 23640, Note_on_c, 9, 42, 117
4, 23670, Note_on_c, 9, 42, 0
4, 23820, Note_on_c, 9, 42, 117
4, 23850, Note_on_c, 9, 42, 0
4, 23880, Note_on_c, 9, 42, 120
4, 23910, Note_on_c, 9, 42, 0
4, 23940, Note_on_c, 9, 42, 113
4, 23970, Note_on_c, 9, 42, 0
4, 24060, Note_on_c, 9, 42, 117
4, 24090, Note_on_c, 9, 42, 0
4, 24120, Note_on_c, 9, 42, 116
4, 24150, Note_on_c, 9, 42, 0
4, 24300, Note_on_c, 9, 42, 102
4, 24330, Note_on_c, 9, 42, 0
4, 24360, Note_on_c, 9, 42, 117
4, 24390, Note_on_c, 9, 42, 0
4, 24540, Note_on_c, 9, 42, 110
4, 24570, Note_on_c, 9, 42, 0
4, 24600, Note_on_c, 9, 42, 113
4, 24630, Note_on_c, 9, 42, 0
4, 24780, Note_on_c, 9, 42, 120
4, 24810, Note_on_c, 9, 42, 0
4, 24840, Note_on_c, 9, 42, 117
4, 24870, Note_on_c, 9, 42, 0
4, 24900, Note_on_c, 9, 42, 113
4, 24930, Note_on_c, 9, 42, 0
4, 25020, Note_on_c, 9, 42, 117
4, 25050, Note_on_c, 9, 42, 0
4, 25080, Note_on_c, 9, 42, 117
4, 25110, Note_on_c, 9, 42, 0
4, 25260, Note_on_c, 9, 42, 113
4, 25290, Note_on_c, 9, 42, 0
4, 25320, Note_on_c, 9, 42, 117
4, 25350, Note_on_c, 9, 42, 0
4, 25500, Note_on_c, 9, 42, 110
4, 25530, Note_on_c, 9, 42, 0
4, 25560, Note_on_c, 9, 42, 117
4, 25590, Note_on_c, 9, 42, 0
4, 25740, Note_on_c, 9, 42, 117
4, 25770, Note_on_c, 9, 42, 0
4, 25800, Note_on_c, 9, 42, 120
4, 25830, Note_on_c, 9, 42, 0
4, 25860, Note_on_c, 9, 42, 113
4, 25890, Note_on_c, 9, 42, 0
4, 25980, Note_on_c, 9, 42, 117
4, 26010, Note_on_c, 9, 42, 0
4, 26040, Note_on_c, 9, 42, 116
4, 26070, Note_on_c, 9, 42, 0
4, 26160, Note_on_c, 9, 69, 97
4, 26190, Note_on_c, 9, 69, 0
4, 26190, Note_on_c, 9, 70, 89
4, 26220, Note_on_c, 9, 70, 0
4, 26220, Note_on_c, 9, 42, 102
4, 26220, Note_on_c, 9, 69, 95
4, 26250, Note_on_c, 9, 69, 0
4, 26250, Note_on_c, 9, 42, 0
4, 26250, Note_on_c, 9, 70, 69
4, 26280, Note_on_c, 9, 70, 0
4, 26280, Note_on_c, 9, 42, 117
4, 26280, Note_on_c, 9, 69, 105
4, 26310, Note_on_c, 9, 69, 0
4, 26310, Note_on_c, 9, 42, 0
4, 26310, Note_on_c, 9, 70, 102
4, 26340, Note_on_c, 9, 70, 0
4, 26340, Note_on_c, 9, 69, 101
4, 26370, Note_on_c, 9, 69, 0
4, 26400, Note_on_c, 9, 69, 116
4, 26430, Note_on_c, 9, 69, 0
4, 26460, Note_on_c, 9, 42, 110
4, 26490, Note_on_c, 9, 42, 0
4, 26520, Note_on_c, 9, 42, 113
4, 26550, Note_on_c, 9, 42, 0
4, 26700, Note_on_c, 9, 42, 120
4, 26730, Note_on_c, 9, 42, 0
4, 26760, Note_on_c, 9, 42, 117
4, 26790, Note_on_c, 9, 42, 0
4, 26820, Note_on_c, 9, 42, 113
4, 26850, Note_on_c, 9, 42, 0
4, 26940, Note_on_c, 9, 42, 117
4, 26970, Note_on_c, 9, 42, 0
4, 27000, Note_on_c, 9, 42, 117
4, 27030, Note_on_c, 9, 42, 0
4, 27180, Note_on_c, 9, 42, 113
4, 27210, Note_on_c, 9, 42, 0
4, 27240, Note_on_c, 9, 42, 117
4, 27270, Note_on_c, 9, 42, 0
4, 27420, Note_on_c, 9, 42, 110
4, 27450, Note_on_c, 9, 42, 0
4, 27480, Note_on_c, 9, 42, 117
4, 27510, Note_on_c, 9, 42, 0
4, 27660, Note_on_c, 9, 42, 117
4, 27690, Note_on_c, 9, 42, 0
4, 27720, Note_on_c, 9, 42, 120
4, 27750, Note_on_c, 9, 42, 0
4, 27780, Note_on_c, 9, 42, 113
4, 27810, Note_on_c, 9, 42, 0
4, 27900, Note_on_c, 9, 42, 117
4, 27930, Note_on_c, 9, 42, 0
4, 27960, Note_on_c, 9, 42, 116
4, 27990, Note_on_c, 9, 42, 0
4, 28140, Note_on_c, 9, 42, 102
4, 28170, Note_on_c, 9, 42, 0
4, 28200, Note_on_c, 9, 42, 117
4, 28230, Note_on_c, 9, 42, 0
4, 28320, Note_on_c, 9, 69, 116
4, 28350, Note_on_c, 9, 69, 0
4, 28380, Note_on_c, 9, 42, 110
4, 28410, Note_on_c, 9, 42, 0
4, 28440, Note_on_c, 9, 42, 113
4, 28470, Note_on_c, 9, 42, 0
4, 28620, Note_on_c, 9, 42, 120
4, 28650, Note_on_c, 9, 42, 0
4, 28680, Note_on_c, 9, 42, 117
4, 28710, Note_on_c, 9, 42, 0
4, 28740, Note_on_c, 9, 42, 113
4, 28770, Note_on_c, 9, 42, 0
4, 28860, Note_on_c, 9, 42, 117
4, 28890, Note_on_c, 9, 42, 0
4, 28920, Note_on_c, 9, 42, 117
4, 28950, Note_on_c, 9, 42, 0
4, 29100, Note_on_c, 9, 42, 113
4, 29130, Note_on_c, 9, 42, 0
4, 29160, Note_on_c, 9, 42, 117
4, 29190, Note_on_c, 9, 42, 0
4, 29340, Note_on_c, 9, 42, 110
4, 29370, Note_on_c, 9, 42, 0
4, 29400, Note_on_c, 9, 42, 117
4, 29430, Note_on_c, 9, 42, 0
4, 29580, Note_on_c, 9, 42, 117
4, 29610, Note_on_c, 9, 42, 0
4, 29640, Note_on_c, 9, 42, 120
4, 29670, Note_on_c, 9, 42, 0
4, 29700, Note_on_c, 9, 42, 113
4, 29730, Note_on_c, 9, 42, 0
4, 29820, Note_on_c, 9, 42, 117
4, 29850, Note_on_c, 9, 42, 0
4, 29880, Note_on_c, 9, 42, 116
4, 29910, Note_on_c, 9, 42, 0
4, 30000, Note_on_c, 9, 69, 97
4, 30030, Note_on_c, 9, 69, 0
4, 30030, Note_on_c, 9, 70, 89
4, 30060, Note_on_c, 9, 70, 0
4, 30060, Note_on_c, 9, 69, 95
4, 30060, Note_on_c, 9, 42, 102
4, 30090, Note_on_c, 9, 42, 0
4, 30090, Note_on_c, 9, 69, 0
4, 30090, Note_on_c, 9, 70, 69
4, 30120, Note_on_c, 9, 70, 0
4, 30120, Note_on_c, 9, 42, 117
4, 30120, Note_on_c, 9, 69, 105
4, 30150, Note_on_c, 9, 69, 0
4, 30150, Note_on_c, 9, 42, 0
4, 30150, Note_on_c, 9, 70, 102
4, 30180, Note_on_c, 9, 70, 0
4, 30180, Note_on_c, 9, 69, 101
4, 30210, Note_on_c, 9, 69, 0
4, 30240, Note_on_c, 9, 69, 116
4, 30270, Note_on_c, 9, 69, 0
4, 30300, Note_on_c, 9, 42, 110
4, 30330, Note_on_c, 9, 42, 0
4, 30360, Note_on_c, 9, 42, 113
4, 30390, Note_on_c, 9, 42, 0
4, 30540, Note_on_c, 9, 42, 120
4, 30570, Note_on_c, 9, 42, 0
4, 30600, Note_on_c, 9, 42, 117
4, 30630, Note_on_c, 9, 42, 0
4, 30660, Note_on_c, 9, 42, 113
4, 30690, Note_on_c, 9, 42, 0
4, 30780, Note_on_c, 9, 42, 117
4, 30810, Note_on_c, 9, 42, 0
4, 30840, Note_on_c, 9, 42, 117
4, 30870, Note_on_c, 9, 42, 0
4, 31020, Note_on_c, 9, 42, 113
4, 31050, Note_on_c, 9, 42, 0
4, 31080, Note_on_c, 9, 42, 117
4, 31110, Note_on_c, 9, 42, 0
4, 31260, Note_on_c, 9, 42, 110
4, 31290, Note_on_c, 9, 42, 0
4, 31320, Note_on_c, 9, 42, 117
4, 31350, Note_on_c, 9, 42, 0
4, 31500, Note_on_c, 9, 42, 117
4, 31530, Note_on_c, 9, 42, 0
4, 31560, Note_on_c, 9, 42, 120
4, 31590, Note_on_c, 9, 42, 0
4, 31620, Note_on_c, 9, 42, 113
4, 31650, Note_on_c, 9, 42, 0
4, 31740, Note_on_c, 9, 42, 117
4, 31770, Note_on_c, 9, 42, 0
4, 31800, Note_on_c, 9, 42, 116
4, 31830, Note_on_c, 9, 42, 0
4, 31980, Note_on_c, 9, 42, 102
4, 32010, Note_on_c, 9, 42, 0
4, 32040, Note_on_c, 9, 42, 117
4, 32070, Note_on_c, 9, 42, 0
4, 32160, Note_on_c, 9, 69, 116
4, 32190, Note_on_c, 9, 69, 0
4, 32220, Note_on_c, 9, 42, 110
4, 32250, Note_on_c, 9, 42, 0
4, 32280, Note_on_c, 9, 42, 113
4, 32310, Note_on_c, 9, 42, 0
4, 32460, Note_on_c, 9, 42, 120
4, 32490, Note_on_c, 9, 42, 0
4, 32520, Note_on_c, 9, 42, 117
4, 32550, Note_on_c, 9, 42, 0
4, 32580, Note_on_c, 9, 42, 113
4, 32610, Note_on_c, 9, 42, 0
4, 32700, Note_on_c, 9, 42, 117
4, 32730, Note_on_c, 9, 42, 0
4, 32760, Note_on_c, 9, 42, 117
4, 32790, Note_on_c, 9, 42, 0
4, 32940, Note_on_c, 9, 42, 113
4, 32970, Note_on_c, 9, 42, 0
4, 33000, Note_on_c, 9, 42, 117
4, 33030, Note_on_c, 9, 42, 0
4, 33180, Note_on_c, 9, 42, 110
4, 33210, Note_on_c, 9, 42, 0
4, 33240, Note_on_c, 9, 42, 117
4, 33270, Note_on_c, 9, 42, 0
4, 33420, Note_on_c, 9, 42, 117
4, 33450, Note_on_c, 9, 42, 0
4, 33480, Note_on_c, 9, 42, 120
4, 33510, Note_on_c, 9, 42, 0
4, 33540, Note_on_c, 9, 42, 113
4, 33570, Note_on_c, 9, 42, 0
4, 33660, Note_on_c, 9, 42, 117
4, 33690, Note_on_c, 9, 42, 0
4, 33720, Note_on_c, 9, 42, 116
4, 33750, Note_on_c, 9, 42, 0
4, 33840, Note_on_c, 9, 69, 97
4, 33870, Note_on_c, 9, 69, 0
4, 33870, Note_on_c, 9, 70, 89
4, 33900, Note_on_c, 9, 70, 0
4, 33900, Note_on_c, 9, 42, 102
4, 33900, Note_on_c, 9, 69, 95
4, 33930, Note_on_c, 9, 69, 0
4, 33930, Note_on_c, 9, 42, 0
4, 33930, Note_on_c, 9, 70, 69
4, 33960, Note_on_c, 9, 70, 0
4, 33960, Note_on_c, 9, 69, 105
4, 33960, Note_on_c, 9, 42, 117
4, 33990, Note_on_c, 9, 42, 0
4, 33990, Note_on_c, 9, 69, 0
4, 33990, Note_on_c, 9, 70, 102
4, 34020, Note_on_c, 9, 70, 0
4, 34020, Note_on_c, 9, 69, 101
4, 34050, Note_on_c, 9, 69, 0
4, 34560, Note_on_c, 9, 42, 117
4, 34590, Note_on_c, 9, 42, 0
4, 34590, Note_on_c, 9, 42, 117
4, 34620, Note_on_c, 9, 42, 0
4, 35100, Note_on_c, 9, 42, 116
4, 35130, Note_on_c, 9, 42, 0
4, 35160, Note_on_c, 9, 42, 121
4, 35190, Note_on_c, 9, 42, 0
4, 35220, Note_on_c, 9, 42, 121
4, 35250, Note_on_c, 9, 42, 0
4, 35280, Note_on_c, 9, 42, 120
4, 35310, Note_on_c, 9, 42, 0
4, 35340, Note_on_c, 9, 42, 120
4, 35370, Note_on_c, 9, 42, 0
4, 35400, Note_on_c, 9, 42, 117
4, 35430, Note_on_c, 9, 42, 0
4, 35460, Note_on_c, 9, 42, 108
4, 35490, Note_on_c, 9, 42, 0
4, 35820, Note_on_c, 9, 42, 112
4, 35850, Note_on_c, 9, 42, 0
4, 35850, Note_on_c, 9, 42, 112
4, 35880, Note_on_c, 9, 42, 0
4, 35940, Note_on_c, 9, 42, 106
4, 35970, Note_on_c, 9, 42, 0
4, 36300, Note_on_c, 9, 42, 105
4, 36330, Note_on_c, 9, 42, 0
4, 36330, Note_on_c, 9, 42, 120
4, 36360, Note_on_c, 9, 42, 0
4, 36360, Note_on_c, 9, 42, 116
4, 36390, Note_on_c, 9, 42, 0
4, 36780, Note_on_c, 9, 42, 116
4, 36810, Note_on_c, 9, 42, 0
4, 36840, Note_on_c, 9, 42, 117
4, 36870, Note_on_c, 9, 42, 0
4, 37260, Note_on_c, 9, 42, 106
4, 37290, Note_on_c, 9, 42, 0
4, 37290, Note_on_c, 9, 42, 113
4, 37320, Note_on_c, 9, 42, 0
4, 37320, Note_on_c, 9, 42, 104
4, 37350, Note_on_c, 9, 42, 0
4, 37350, Note_on_c, 9, 42, 113
4, 37380, Note_on_c, 9, 42, 0
4, 37380, Note_on_c, 9, 42, 106
4, 37410, Note_on_c, 9, 42, 0
4, 37410, Note_on_c, 9, 42, 120
4, 37440, Note_on_c, 9, 42, 0
4, 37680, Note_on_c, 9, 42, 120
4, 37710, Note_on_c, 9, 42, 0
4, 37710, Note_on_c, 9, 42, 112
4, 37740, Note_on_c, 9, 42, 0
4, 37800, Note_on_c, 9, 42, 124
4, 37830, Note_on_c, 9, 42, 0
4, 37830, Note_on_c, 9, 42, 105
4, 37860, Note_on_c, 9, 42, 0
4, 37860, Note_on_c, 9, 42, 108
4, 37890, Note_on_c, 9, 42, 0
4, 37890, Note_on_c, 9, 42, 106
4, 37920, Note_on_c, 9, 42, 0
4, 37920, Note_on_c, 9, 69, 116
4, 37950, Note_on_c, 9, 69, 0
4, 37980, Note_on_c, 9, 42, 110
4, 38010, Note_on_c, 9, 42, 0
4, 38040, Note_on_c, 9, 42, 113
4, 38070, Note_on_c, 9, 42, 0
4, 38220, Note_on_c, 9, 42, 120
4, 38250, Note_on_c, 9, 42, 0
4, 38280, Note_on_c, 9, 42, 117
4, 38310, Note_on_c, 9, 42, 0
4, 38340, Note_on_c, 9, 42, 113
4, 38370, Note_on_c, 9, 42, 0
4, 38460, Note_on_c, 9, 42, 117
4, 38490, Note_on_c, 9, 42, 0
4, 38520, Note_on_c, 9, 42, 117
4, 38550, Note_on_c, 9, 42, 0
4, 38700, Note_on_c, 9, 42, 113
4, 38730, Note_on_c, 9, 42, 0
4, 38760, Note_on_c, 9, 42, 117
4, 38790, Note_on_c, 9, 42, 0
4, 38940, Note_on_c, 9, 42, 110
4, 38970, Note_on_c, 9, 42, 0
4, 39000, Note_on_c, 9, 42, 117
4, 39030, Note_on_c, 9, 42, 0
4, 39180, Note_on_c, 9, 42, 117
4, 39210, Note_on_c, 9, 42, 0
4, 39240, Note_on_c, 9, 42, 120
4, 39270, Note_on_c, 9, 42, 0
4, 39300, Note_on_c, 9, 42, 113
4, 39330, Note_on_c, 9, 42, 0
4, 39420, Note_on_c, 9, 42, 117
4, 39450, Note_on_c, 9, 42, 0
4, 39480, Note_on_c, 9, 42, 116
4, 39510, Note_on_c, 9, 42, 0
4, 39660, Note_on_c, 9, 42, 102
4, 39690, Note_on_c, 9, 42, 0
4, 39720, Note_on_c, 9, 42, 117
4, 39750, Note_on_c, 9, 42, 0
4, 39840, Note_on_c, 9, 69, 116
4, 39870, Note_on_c, 9, 69, 0
4, 39900, Note_on_c, 9, 42, 110
4, 39930, Note_on_c, 9, 42, 0
4, 39960, Note_on_c, 9, 42, 113
4, 39990, Note_on_c, 9, 42, 0
4, 40140, Note_on_c, 9, 42, 120
4, 40170, Note_on_c, 9, 42, 0
4, 40200, Note_on_c, 9, 42, 117
4, 40230, Note_on_c, 9, 42, 0
4, 40260, Note_on_c, 9, 42, 113
4, 40290, Note_on_c, 9, 42, 0
4, 40380, Note_on_c, 9, 42, 117
4, 40410, Note_on_c, 9, 42, 0
4, 40440, Note_on_c, 9, 42, 117
4, 40470, Note_on_c, 9, 42, 0
4, 40620, Note_on_c, 9, 42, 113
4, 40650, Note_on_c, 9, 42, 0
4, 40680, Note_on_c, 9, 42, 117
4, 40710, Note_on_c, 9, 42, 0
4, 40860, Note_on_c, 9, 42, 110
4, 40890, Note_on_c, 9, 42, 0
4, 40920, Note_on_c, 9, 42, 117
4, 40950, Note_on_c, 9, 42, 0
4, 41100, Note_on_c, 9, 42, 117
4, 41130, Note_on_c, 9, 42, 0
4, 41160, Note_on_c, 9, 42, 120
4, 41190, Note_on_c, 9, 42, 0
4, 41220, Note_on_c, 9, 42, 113
4, 41250, Note_on_c, 9, 42, 0
4, 41880, Note_on_c, 9, 42, 113
4, 41910, Note_on_c, 9, 42, 0
4, 42060, Note_on_c, 9, 42, 120
4, 42090, Note_on_c, 9, 42, 0
4, 42120, Note_on_c, 9, 42, 117
4, 42150, Note_on_c, 9, 42, 0
4, 42180, Note_on_c, 9, 42, 113
4, 42210, Note_on_c, 9, 42, 0
4, 42300, Note_on_c, 9, 42, 117
4, 42330, Note_on_c, 9, 42, 0
4, 42360, Note_on_c, 9, 42, 117
4, 42390, Note_on_c, 9, 42, 0
4, 42540, Note_on_c, 9, 42, 113
4, 42570, Note_on_c, 9, 42, 0
4, 42600, Note_on_c, 9, 42, 117
4, 42630, Note_on_c, 9, 42, 0
4, 42780, Note_on_c, 9, 42, 110
4, 42810, Note_on_c, 9, 42, 0
4, 42840, Note_on_c, 9, 42, 117
4, 42870, Note_on_c, 9, 42, 0
4, 43020, Note_on_c, 9, 42, 117
4, 43050, Note_on_c, 9, 42, 0
4, 43080, Note_on_c, 9, 42, 120
4, 43110, Note_on_c, 9, 42, 0
4, 43140, Note_on_c, 9, 42, 113
4, 43170, Note_on_c, 9, 42, 0
4, 43260, Note_on_c, 9, 42, 117
4, 43290, Note_on_c, 9, 42, 0
4, 43320, Note_on_c, 9, 42, 116
4, 43350, Note_on_c, 9, 42, 0
4, 43500, Note_on_c, 9, 42, 102
4, 43530, Note_on_c, 9, 42, 0
4, 43560, Note_on_c, 9, 42, 117
4, 43590, Note_on_c, 9, 42, 0
4, 43680, Note_on_c, 9, 69, 116
4, 43710, Note_on_c, 9, 69, 0
4, 43740, Note_on_c, 9, 42, 110
4, 43770, Note_on_c, 9, 42, 0
4, 43800, Note_on_c, 9, 42, 113
4, 43830, Note_on_c, 9, 42, 0
4, 43980, Note_on_c, 9, 42, 120
4, 44010, Note_on_c, 9, 42, 0
4, 44040, Note_on_c, 9, 42, 117
4, 44070, Note_on_c, 9, 42, 0
4, 44100, Note_on_c, 9, 42, 113
4, 44130, Note_on_c, 9, 42, 0
4, 44220, Note_on_c, 9, 42, 117
4, 44250, Note_on_c, 9, 42, 0
4, 44280, Note_on_c, 9, 42, 117
4, 44310, Note_on_c, 9, 42, 0
4, 44460, Note_on_c, 9, 42, 113
4, 44490, Note_on_c, 9, 42, 0
4, 44520, Note_on_c, 9, 42, 117
4, 44550, Note_on_c, 9, 42, 0
4, 44700, Note_on_c, 9, 42, 110
4, 44730, Note_on_c, 9, 42, 0
4, 44760, Note_on_c, 9, 42, 117
4, 44790, Note_on_c, 9, 42, 0
4, 44940, Note_on_c, 9, 42, 117
4, 44970, Note_on_c, 9, 42, 0
4, 45000, Note_on_c, 9, 42, 120
4, 45030, Note_on_c, 9, 42, 0
4, 45060, Note_on_c, 9, 42, 113
4, 45090, Note_on_c, 9, 42, 0
4, 45180, Note_on_c, 9, 42, 117
4, 45210, Note_on_c, 9, 42, 0
4, 45660, Note_on_c, 9, 42, 110
4, 45690, Note_on_c, 9, 42, 0
4, 45720, Note_on_c, 9, 42, 113
4, 45750, Note_on_c, 9, 42, 0
4, 45900, Note_on_c, 9, 42, 120
4, 45930, Note_on_c, 9, 42, 0
4, 45960, Note_on_c, 9, 42, 117
4, 45990, Note_on_c, 9, 42, 0
4, 46020, Note_on_c, 9, 42, 113
4, 46050, Note_on_c, 9, 42, 0
4, 46140, Note_on_c, 9, 42, 117
4, 46170, Note_on_c, 9, 42, 0
4, 46200, Note_on_c, 9, 42, 117
4, 46230, Note_on_c, 9, 42, 0
4, 46380, Note_on_c, 9, 42, 113
4, 46410, Note_on_c, 9, 42, 0
4, 46440, Note_on_c, 9, 42, 117
4, 46470, Note_on_c, 9, 42, 0
4, 46620, Note_on_c, 9, 42, 110
4, 46650, Note_on_c, 9, 42, 0
4, 46680, Note_on_c, 9, 42, 117
4, 46710, Note_on_c, 9, 42, 0
4, 46860, Note_on_c, 9, 42, 117
4, 46890, Note_on_c, 9, 42, 0
4, 46920, Note_on_c, 9, 42, 120
4, 46950, Note_on_c, 9, 42, 0
4, 46980, Note_on_c, 9, 42, 113
4, 47010, Note_on_c, 9, 42, 0
4, 47100, Note_on_c, 9, 42, 117
4, 47130, Note_on_c, 9, 42, 0
4, 47160, Note_on_c, 9, 42, 116
4, 47190, Note_on_c, 9, 42, 0
4, 47340, Note_on_c, 9, 42, 102
4, 47370, Note_on_c, 9, 42, 0
4, 47400, Note_on_c, 9, 42, 117
4, 47430, Note_on_c, 9, 42, 0
4, 47580, Note_on_c, 9, 42, 110
4, 47610, Note_on_c, 9, 42, 0
4, 47640, Note_on_c, 9, 42, 113
4, 47670, Note_on_c, 9, 42, 0
4, 47820, Note_on_c, 9, 42, 120
4, 47850, Note_on_c, 9, 42, 0
4, 47880, Note_on_c, 9, 42, 117
4, 47910, Note_on_c, 9, 42, 0
4, 47940, Note_on_c, 9, 42, 113
4, 47970, Note_on_c, 9, 42, 0
4, 48060, Note_on_c, 9, 42, 117
4, 48090, Note_on_c, 9, 42, 0
4, 48120, Note_on_c, 9, 42, 117
4, 48150, Note_on_c, 9, 42, 0
4, 48300, Note_on_c, 9, 42, 113
4, 48330, Note_on_c, 9, 42, 0
4, 48360, Note_on_c, 9, 42, 117
4, 48390, Note_on_c, 9, 42, 0
4, 48540, Note_on_c, 9, 42, 110
4, 48570, Note_on_c, 9, 42, 0
4, 48600, Note_on_c, 9, 42, 117
4, 48630, Note_on_c, 9, 42, 0
4, 48780, Note_on_c, 9, 42, 117
4, 48810, Note_on_c, 9, 42, 0
4, 48840, Note_on_c, 9, 42, 120
4, 48870, Note_on_c, 9, 42, 0
4, 48900, Note_on_c, 9, 42, 119
4, 48930, Note_on_c, 9, 42, 0
4, 49020, Note_on_c, 9, 42, 113
4, 49050, Note_on_c, 9, 42, 0
4, 49080, Note_on_c, 9, 42, 110
4, 49110, Note_on_c, 9, 42, 0
4, 49260, Note_on_c, 9, 42, 101
4, 49290, Note_on_c, 9, 42, 0
4, 49320, Note_on_c, 9, 42, 99
4, 49350, Note_on_c, 9, 42, 0
4, 49560, Note_on_c, 9, 42, 87
4, 49590, Note_on_c, 9, 42, 0
4, 49740, Note_on_c, 9, 42, 78
4, 49770, Note_on_c, 9, 42, 0
4, 49800, Note_on_c, 9, 42, 76
4, 49830, Note_on_c, 9, 42, 0
4, 49860, Note_on_c, 9, 42, 72
4, 49890, Note_on_c, 9, 42, 0
4, 49980, Note_on_c, 9, 42, 66
4, 50010, Note_on_c, 9, 42, 0
4, 50040, Note_on_c, 9, 42, 64
4, 50070, Note_on_c, 9, 42, 0
4, 50220, Note_on_c, 9, 42, 55
4, 50250, Note_on_c, 9, 42, 0
4, 50280, Note_on_c, 9, 42, 52
4, 50310, Note_on_c, 9, 42, 0
4, 50460, Note_on_c, 9, 42, 43
4, 50490, Note_on_c, 9, 42, 0
4, 50520, Note_on_c, 9, 42, 41
4, 50550, Note_on_c, 9, 42, 0
4, 50700, Note_on_c, 9, 42, 32
4, 50730, Note_on_c, 9, 42, 0
4, 50760, Note_on_c, 9, 42, 29
4, 50790, Note_on_c, 9, 42, 0
4, 50820, Note_on_c, 9, 42, 26
4, 50850, Note_on_c, 9, 42, 0
4, 50940, Note_on_c, 9, 42, 20
4, 50970, Note_on_c, 9, 42, 0
4, 51000, Note_on_c, 9, 42, 17
4, 51030, Note_on_c, 9, 42, 0
4, 51180, Note_on_c, 9, 42, 8
4, 51210, Note_on_c, 9, 42, 0
4, 51240, Note_on_c, 9, 42, 6
4, 51270, Note_on_c, 9, 42, 0
4, 51270, End_track
5, 0, Start_track
5, 0, MIDI_port, 0
5, 0, Title_t, ""
5, 0, Program_c, 9, 0
5, 0, Control_c, 9, 7, 127
5, 1620, Note_on_c, 9, 69, 116
5, 1650, Note_on_c, 9, 69, 0
5, 1650, Note_on_c, 9, 69, 108
5, 1680, Note_on_c, 9, 69, 0
5, 1680, Note_on_c, 9, 69, 102
5, 1710, Note_on_c, 9, 69, 0
5, 1710, Note_on_c, 9, 69, 102
5, 1740, Note_on_c, 9, 69, 0
5, 1740, Note_on_c, 9, 69, 101
5, 1770, Note_on_c, 9, 69, 0
5, 1800, Note_on_c, 9, 69, 113
5, 1830, Note_on_c, 9, 69, 0
5, 1920, Note_on_c, 9, 69, 117
5, 1950, Note_on_c, 9, 69, 0
5, 1950, Note_on_c, 9, 69, 105
5, 1980, Note_on_c, 9, 69, 0
5, 1980, Note_on_c, 9, 69, 108
5, 2010, Note_on_c, 9, 69, 0
5, 2010, Note_on_c, 9, 69, 108
5, 2040, Note_on_c, 9, 69, 0
5, 2460, Note_on_c, 9, 69, 116
5, 2490, Note_on_c, 9, 69, 0
5, 2490, Note_on_c, 9, 69, 108
5, 2520, Note_on_c, 9, 69, 0
5, 2520, Note_on_c, 9, 69, 102
5, 2550, Note_on_c, 9, 69, 0
5, 2550, Note_on_c, 9, 69, 102
5, 2580, Note_on_c, 9, 69, 0
5, 2580, Note_on_c, 9, 69, 101
5, 2610, Note_on_c, 9, 69, 0
5, 2640, Note_on_c, 9, 69, 113
5, 2670, Note_on_c, 9, 69, 0
5, 2760, Note_on_c, 9, 69, 117
5, 2790, Note_on_c, 9, 69, 0
5, 2790, Note_on_c, 9, 69, 105
5, 2820, Note_on_c, 9, 69, 0
5, 2820, Note_on_c, 9, 69, 108
5, 2850, Note_on_c, 9, 69, 0
5, 2850, Note_on_c, 9, 69, 108
5, 2880, Note_on_c, 9, 69, 0
5, 3540, Note_on_c, 9, 69, 116
5, 3570, Note_on_c, 9, 69, 0
5, 3570, Note_on_c, 9, 69, 108
5, 3600, Note_on_c, 9, 69, 0
5, 3600, Note_on_c, 9, 69, 102
5, 3630, Note_on_c, 9, 69, 0
5, 3630, Note_on_c, 9, 69, 102
5, 3660, Note_on_c, 9, 69, 0
5, 3660, Note_on_c, 9, 69, 101
5, 3690, Note_on_c, 9, 69, 0
5, 3720, Note_on_c, 9, 69, 113
5, 3750, Note_on_c, 9, 69, 0
5, 3840, Note_on_c, 9, 69, 117
5, 3870, Note_on_c, 9, 69, 0
5, 3870, Note_on_c, 9, 69, 105
5, 3900, Note_on_c, 9, 69, 0
5, 3900, Note_on_c, 9, 69, 108
5, 3930, Note_on_c, 9, 69, 0
5, 3930, Note_on_c, 9, 69, 108
5, 3960, Note_on_c, 9, 69, 0
5, 4380, Note_on_c, 9, 69, 116
5, 4410, Note_on_c, 9, 69, 0
5, 4410, Note_on_c, 9, 69, 108
5, 4440, Note_on_c, 9, 69, 0
5, 4440, Note_on_c, 9, 69, 102
5, 4470, Note_on_c, 9, 69, 0
5, 4470, Note_on_c, 9, 69, 102
5, 4500, Note_on_c, 9, 69, 0
5, 4500, Note_on_c, 9, 69, 101
5, 4530, Note_on_c, 9, 69, 0
5, 4560, Note_on_c, 9, 69, 113
5, 4590, Note_on_c, 9, 69, 0
5, 4680, Note_on_c, 9, 69, 117
5, 4710, Note_on_c, 9, 69, 0
5, 4710, Note_on_c, 9, 69, 105
5, 4740, Note_on_c, 9, 69, 0
5, 4740, Note_on_c, 9, 69, 108
5, 4770, Note_on_c, 9, 69, 0
5, 4770, Note_on_c, 9, 69, 108
5, 4800, Note_on_c, 9, 69, 0
5, 5460, Note_on_c, 9, 69, 116
5, 5490, Note_on_c, 9, 69, 0
5, 5490, Note_on_c, 9, 69, 108
5, 5520, Note_on_c, 9, 69, 0
5, 5520, Note_on_c, 9, 69, 102
5, 5550, Note_on_c, 9, 69, 0
5, 5550, Note_on_c, 9, 69, 102
5, 5580, Note_on_c, 9, 69, 0
5, 5580, Note_on_c, 9, 69, 101
5, 5610, Note_on_c, 9, 69, 0
5, 5640, Note_on_c, 9, 69, 113
5, 5670, Note_on_c, 9, 69, 0
5, 5760, Note_on_c, 9, 69, 117
5, 5790, Note_on_c, 9, 69, 0
5, 5790, Note_on_c, 9, 69, 105
5, 5820, Note_on_c, 9, 69, 0
5, 5820, Note_on_c, 9, 69, 108
5, 5850, Note_on_c, 9, 69, 0
5, 5850, Note_on_c, 9, 69, 108
5, 5880, Note_on_c, 9, 69, 0
5, 6300, Note_on_c, 9, 69, 116
5, 6330, Note_on_c, 9, 69, 0
5, 6330, Note_on_c, 9, 69, 108
5, 6360, Note_on_c, 9, 69, 0
5, 6360, Note_on_c, 9, 69, 102
5, 6390, Note_on_c, 9, 69, 0
5, 6390, Note_on_c, 9, 69, 102
5, 6420, Note_on_c, 9, 69, 0
5, 6420, Note_on_c, 9, 69, 101
5, 6450, Note_on_c, 9, 69, 0
5, 6480, Note_on_c, 9, 69, 113
5, 6510, Note_on_c, 9, 69, 0
5, 6600, Note_on_c, 9, 69, 117
5, 6630, Note_on_c, 9, 69, 0
5, 6630, Note_on_c, 9, 69, 105
5, 6660, Note_on_c, 9, 69, 0
5, 6660, Note_on_c, 9, 69, 108
5, 6690, Note_on_c, 9, 69, 0
5, 6690, Note_on_c, 9, 69, 108
5, 6720, Note_on_c, 9, 69, 0
5, 7380, Note_on_c, 9, 69, 116
5, 7410, Note_on_c, 9, 69, 0
5, 7410, Note_on_c, 9, 69, 108
5, 7440, Note_on_c, 9, 69, 0
5, 7440, Note_on_c, 9, 69, 102
5, 7470, Note_on_c, 9, 69, 0
5, 7470, Note_on_c, 9, 69, 102
5, 7500, Note_on_c, 9, 69, 0
5, 7500, Note_on_c, 9, 69, 101
5, 7530, Note_on_c, 9, 69, 0
5, 7560, Note_on_c, 9, 69, 113
5, 7590, Note_on_c, 9, 69, 0
5, 7680, Note_on_c, 9, 69, 117
5, 7710, Note_on_c, 9, 69, 0
5, 7710, Note_on_c, 9, 69, 105
5, 7740, Note_on_c, 9, 69, 0
5, 7740, Note_on_c, 9, 69, 108
5, 7770, Note_on_c, 9, 69, 0
5, 7770, Note_on_c, 9, 69, 108
5, 7800, Note_on_c, 9, 69, 0
5, 8220, Note_on_c, 9, 69, 116
5, 8250, Note_on_c, 9, 69, 0
5, 8250, Note_on_c, 9, 69, 108
5, 8280, Note_on_c, 9, 69, 0
5, 8280, Note_on_c, 9, 69, 102
5, 8310, Note_on_c, 9, 69, 0
5, 8310, Note_on_c, 9, 69, 102
5, 8340, Note_on_c, 9, 69, 0
5, 8340, Note_on_c, 9, 69, 101
5, 8370, Note_on_c, 9, 69, 0
5, 8400, Note_on_c, 9, 69, 113
5, 8430, Note_on_c, 9, 69, 0
5, 8520, Note_on_c, 9, 69, 117
5, 8550, Note_on_c, 9, 69, 0
5, 8550, Note_on_c, 9, 69, 105
5, 8580, Note_on_c, 9, 69, 0
5, 8580, Note_on_c, 9, 69, 108
5, 8610, Note_on_c, 9, 69, 0
5, 8610, Note_on_c, 9, 69, 108
5, 8640, Note_on_c, 9, 69, 0
5, 9300, Note_on_c, 9, 69, 116
5, 9330, Note_on_c, 9, 69, 0
5, 9330, Note_on_c, 9, 69, 108
5, 9360, Note_on_c, 9, 69, 0
5, 9360, Note_on_c, 9, 69, 102
5, 9390, Note_on_c, 9, 69, 0
5, 9390, Note_on_c, 9, 69, 102
5, 9420, Note_on_c, 9, 69, 0
5, 9420, Note_on_c, 9, 69, 101
5, 9450, Note_on_c, 9, 69, 0
5, 9480, Note_on_c, 9, 69, 113
5, 9510, Note_on_c, 9, 69, 0
5, 9600, Note_on_c, 9, 69, 117
5, 9630, Note_on_c, 9, 69, 0
5, 9630, Note_on_c, 9, 69, 105
5, 9660, Note_on_c, 9, 69, 0
5, 9660, Note_on_c, 9, 69, 108
5, 9690, Note_on_c, 9, 69, 0
5, 9690, Note_on_c, 9, 69, 108
5, 9720, Note_on_c, 9, 69, 0
5, 10140, Note_on_c, 9, 69, 116
5, 10170, Note_on_c, 9, 69, 0
5, 10170, Note_on_c, 9, 69, 108
5, 10200, Note_on_c, 9, 69, 0
5, 10200, Note_on_c, 9, 69, 102
5, 10230, Note_on_c, 9, 69, 0
5, 10230, Note_on_c, 9, 69, 102
5, 10260, Note_on_c, 9, 69, 0
5, 10260, Note_on_c, 9, 69, 101
5, 10290, Note_on_c, 9, 69, 0
5, 10320, Note_on_c, 9, 69, 113
5, 10350, Note_on_c, 9, 69, 0
5, 10440, Note_on_c, 9, 69, 117
5, 10470, Note_on_c, 9, 69, 0
5, 10470, Note_on_c, 9, 69, 105
5, 10500, Note_on_c, 9, 69, 0
5, 10500, Note_on_c, 9, 69, 108
5, 10530, Note_on_c, 9, 69, 0
5, 10530, Note_on_c, 9, 69, 108
5, 10560, Note_on_c, 9, 69, 0
5, 11220, Note_on_c, 9, 69, 116
5, 11250, Note_on_c, 9, 69, 0
5, 11250, Note_on_c, 9, 69, 108
5, 11280, Note_on_c, 9, 69, 0
5, 11280, Note_on_c, 9, 69, 102
5, 11310, Note_on_c, 9, 69, 0
5, 11310, Note_on_c, 9, 69, 102
5, 11340, Note_on_c, 9, 69, 0
5, 11340, Note_on_c, 9, 69, 101
5, 11370, Note_on_c, 9, 69, 0
5, 11400, Note_on_c, 9, 69, 113
5, 11430, Note_on_c, 9, 69, 0
5, 11520, Note_on_c, 9, 69, 117
5, 11550, Note_on_c, 9, 69, 0
5, 11550, Note_on_c, 9, 69, 105
5, 11580, Note_on_c, 9, 69, 0
5, 11580, Note_on_c, 9, 69, 108
5, 11610, Note_on_c, 9, 69, 0
5, 11610, Note_on_c, 9, 69, 108
5, 11640, Note_on_c, 9, 69, 0
5, 12060, Note_on_c, 9, 69, 116
5, 12090, Note_on_c, 9, 69, 0
5, 12090, Note_on_c, 9, 69, 108
5, 12120, Note_on_c, 9, 69, 0
5, 12120, Note_on_c, 9, 69, 102
5, 12150, Note_on_c, 9, 69, 0
5, 12150, Note_on_c, 9, 69, 102
5, 12180, Note_on_c, 9, 69, 0
5, 12180, Note_on_c, 9, 69, 101
5, 12210, Note_on_c, 9, 69, 0
5, 12240, Note_on_c, 9, 69, 113
5, 12270, Note_on_c, 9, 69, 0
5, 12360, Note_on_c, 9, 69, 117
5, 12390, Note_on_c, 9, 69, 0
5, 12390, Note_on_c, 9, 69, 105
5, 12420, Note_on_c, 9, 69, 0
5, 12420, Note_on_c, 9, 69, 108
5, 12450, Note_on_c, 9, 69, 0
5, 12450, Note_on_c, 9, 69, 108
5, 12480, Note_on_c, 9, 69, 0
5, 13140, Note_on_c, 9, 69, 116
5, 13170, Note_on_c, 9, 69, 0
5, 13170, Note_on_c, 9, 69, 108
5, 13200, Note_on_c, 9, 69, 0
5, 13200, Note_on_c, 9, 69, 102
5, 13230, Note_on_c, 9, 69, 0
5, 13230, Note_on_c, 9, 69, 102
5, 13260, Note_on_c, 9, 69, 0
5, 13260, Note_on_c, 9, 69, 101
5, 13290, Note_on_c, 9, 69, 0
5, 13320, Note_on_c, 9, 69, 113
5, 13350, Note_on_c, 9, 69, 0
5, 13440, Note_on_c, 9, 69, 117
5, 13470, Note_on_c, 9, 69, 0
5, 13470, Note_on_c, 9, 69, 105
5, 13500, Note_on_c, 9, 69, 0
5, 13500, Note_on_c, 9, 69, 108
5, 13530, Note_on_c, 9, 69, 0
5, 13530, Note_on_c, 9, 69, 108
5, 13560, Note_on_c, 9, 69, 0
5, 13980, Note_on_c, 9, 69, 116
5, 14010, Note_on_c, 9, 69, 0
5, 14010, Note_on_c, 9, 69, 108
5, 14040, Note_on_c, 9, 69, 0
5, 14040, Note_on_c, 9, 69, 102
5, 14070, Note_on_c, 9, 69, 0
5, 14070, Note_on_c, 9, 69, 102
5, 14100, Note_on_c, 9, 69, 0
5, 14100, Note_on_c, 9, 69, 101
5, 14130, Note_on_c, 9, 69, 0
5, 14160, Note_on_c, 9, 69, 113
5, 14190, Note_on_c, 9, 69, 0
5, 14280, Note_on_c, 9, 69, 117
5, 14310, Note_on_c, 9, 69, 0
5, 14310, Note_on_c, 9, 69, 105
5, 14340, Note_on_c, 9, 69, 0
5, 14340, Note_on_c, 9, 69, 108
5, 14370, Note_on_c, 9, 69, 0
5, 14370, Note_on_c, 9, 69, 108
5, 14400, Note_on_c, 9, 69, 0
5, 15060, Note_on_c, 9, 69, 116
5, 15090, Note_on_c, 9, 69, 0
5, 15090, Note_on_c, 9, 69, 108
5, 15120, Note_on_c, 9, 69, 0
5, 15120, Note_on_c, 9, 69, 102
5, 15150, Note_on_c, 9, 69, 0
5, 15150, Note_on_c, 9, 69, 102
5, 15180, Note_on_c, 9, 69, 0
5, 15180, Note_on_c, 9, 69, 101
5, 15210, Note_on_c, 9, 69, 0
5, 15240, Note_on_c, 9, 69, 113
5, 15270, Note_on_c, 9, 69, 0
5, 15360, Note_on_c, 9, 69, 117
5, 15390, Note_on_c, 9, 69, 0
5, 15390, Note_on_c, 9, 69, 105
5, 15420, Note_on_c, 9, 69, 0
5, 15420, Note_on_c, 9, 69, 108
5, 15450, Note_on_c, 9, 69, 0
5, 15450, Note_on_c, 9, 69, 108
5, 15480, Note_on_c, 9, 69, 0
5, 15900, Note_on_c, 9, 69, 116
5, 15930, Note_on_c, 9, 69, 0
5, 15930, Note_on_c, 9, 69, 108
5, 15960, Note_on_c, 9, 69, 0
5, 15960, Note_on_c, 9, 69, 102
5, 15990, Note_on_c, 9, 69, 0
5, 15990, Note_on_c, 9, 69, 102
5, 16020, Note_on_c, 9, 69, 0
5, 16020, Note_on_c, 9, 69, 101
5, 16050, Note_on_c, 9, 69, 0
5, 16080, Note_on_c, 9, 69, 113
5, 16110, Note_on_c, 9, 69, 0
5, 16200, Note_on_c, 9, 69, 117
5, 16230, Note_on_c, 9, 69, 0
5, 16230, Note_on_c, 9, 69, 105
5, 16260, Note_on_c, 9, 69, 0
5, 16260, Note_on_c, 9, 69, 108
5, 16290, Note_on_c, 9, 69, 0
5, 16290, Note_on_c, 9, 69, 108
5, 16320, Note_on_c, 9, 69, 0
5, 16980, Note_on_c, 9, 69, 116
5, 17010, Note_on_c, 9, 69, 0
5, 17010, Note_on_c, 9, 69, 108
5, 17040, Note_on_c, 9, 69, 0
5, 17040, Note_on_c, 9, 69, 102
5, 17070, Note_on_c, 9, 69, 0
5, 17070, Note_on_c, 9, 69, 102
5, 17100, Note_on_c, 9, 69, 0
5, 17100, Note_on_c, 9, 69, 101
5, 17130, Note_on_c, 9, 69, 0
5, 17160, Note_on_c, 9, 69, 113
5, 17190, Note_on_c, 9, 69, 0
5, 17280, Note_on_c, 9, 69, 117
5, 17310, Note_on_c, 9, 69, 0
5, 17310, Note_on_c, 9, 69, 105
5, 17340, Note_on_c, 9, 69, 0
5, 17340, Note_on_c, 9, 69, 108
5, 17370, Note_on_c, 9, 69, 0
5, 17370, Note_on_c, 9, 69, 108
5, 17400, Note_on_c, 9, 69, 0
5, 17820, Note_on_c, 9, 69, 116
5, 17850, Note_on_c, 9, 69, 0
5, 17850, Note_on_c, 9, 69, 108
5, 17880, Note_on_c, 9, 69, 0
5, 17880, Note_on_c, 9, 69, 102
5, 17910, Note_on_c, 9, 69, 0
5, 17910, Note_on_c, 9, 69, 102
5, 17940, Note_on_c, 9, 69, 0
5, 17940, Note_on_c, 9, 69, 101
5, 17970, Note_on_c, 9, 69, 0
5, 18000, Note_on_c, 9, 69, 113
5, 18030, Note_on_c, 9, 69, 0
5, 18120, Note_on_c, 9, 69, 117
5, 18150, Note_on_c, 9, 69, 0
5, 18150, Note_on_c, 9, 69, 105
5, 18180, Note_on_c, 9, 69, 0
5, 18180, Note_on_c, 9, 69, 108
5, 18210, Note_on_c, 9, 69, 0
5, 18210, Note_on_c, 9, 69, 108
5, 18240, Note_on_c, 9, 69, 0
5, 18480, Note_on_c, 9, 69, 99
5, 18510, Note_on_c, 9, 69, 0
5, 18510, Note_on_c, 9, 70, 83
5, 18540, Note_on_c, 9, 70, 0
5, 18540, Note_on_c, 9, 69, 101
5, 18570, Note_on_c, 9, 69, 0
5, 18570, Note_on_c, 9, 70, 101
5, 18600, Note_on_c, 9, 70, 0
5, 18600, Note_on_c, 9, 69, 112
5, 18630, Note_on_c, 9, 69, 0
5, 18630, Note_on_c, 9, 70, 113
5, 18660, Note_on_c, 9, 70, 0
5, 18660, Note_on_c, 9, 69, 117
5, 18690, Note_on_c, 9, 69, 0
5, 18690, Note_on_c, 9, 70, 120
5, 18720, Note_on_c, 9, 70, 0
5, 18900, Note_on_c, 9, 69, 116
5, 18930, Note_on_c, 9, 69, 0
5, 18930, Note_on_c, 9, 69, 108
5, 18960, Note_on_c, 9, 69, 0
5, 18960, Note_on_c, 9, 69, 102
5, 18990, Note_on_c, 9, 69, 0
5, 18990, Note_on_c, 9, 69, 102
5, 19020, Note_on_c, 9, 69, 0
5, 19020, Note_on_c, 9, 69, 101
5, 19050, Note_on_c, 9, 69, 0
5, 19080, Note_on_c, 9, 69, 113
5, 19110, Note_on_c, 9, 69, 0
5, 19200, Note_on_c, 9, 69, 117
5, 19230, Note_on_c, 9, 69, 0
5, 19230, Note_on_c, 9, 69, 105
5, 19260, Note_on_c, 9, 69, 0
5, 19260, Note_on_c, 9, 69, 108
5, 19290, Note_on_c, 9, 69, 0
5, 19290, Note_on_c, 9, 69, 108
5, 19320, Note_on_c, 9, 69, 0
5, 19740, Note_on_c, 9, 69, 116
5, 19770, Note_on_c, 9, 69, 0
5, 19770, Note_on_c, 9, 69, 108
5, 19800, Note_on_c, 9, 69, 0
5, 19800, Note_on_c, 9, 69, 102
5, 19830, Note_on_c, 9, 69, 0
5, 19830, Note_on_c, 9, 69, 102
5, 19860, Note_on_c, 9, 69, 0
5, 19860, Note_on_c, 9, 69, 101
5, 19890, Note_on_c, 9, 69, 0
5, 19920, Note_on_c, 9, 69, 113
5, 19950, Note_on_c, 9, 69, 0
5, 20040, Note_on_c, 9, 69, 117
5, 20070, Note_on_c, 9, 69, 0
5, 20070, Note_on_c, 9, 69, 105
5, 20100, Note_on_c, 9, 69, 0
5, 20100, Note_on_c, 9, 69, 108
5, 20130, Note_on_c, 9, 69, 0
5, 20130, Note_on_c, 9, 69, 108
5, 20160, Note_on_c, 9, 69, 0
5, 20820, Note_on_c, 9, 69, 116
5, 20850, Note_on_c, 9, 69, 0
5, 20850, Note_on_c, 9, 69, 108
5, 20880, Note_on_c, 9, 69, 0
5, 21000, Note_on_c, 9, 69, 113
5, 21030, Note_on_c, 9, 69, 0
5, 21120, Note_on_c, 9, 69, 117
5, 21150, Note_on_c, 9, 69, 0
5, 21150, Note_on_c, 9, 69, 105
5, 21180, Note_on_c, 9, 69, 0
5, 21180, Note_on_c, 9, 69, 108
5, 21210, Note_on_c, 9, 69, 0
5, 21210, Note_on_c, 9, 69, 108
5, 21240, Note_on_c, 9, 69, 0
5, 21780, Note_on_c, 9, 69, 116
5, 21810, Note_on_c, 9, 69, 0
5, 21810, Note_on_c, 9, 69, 108
5, 21840, Note_on_c, 9, 69, 0
5, 21960, Note_on_c, 9, 69, 113
5, 21990, Note_on_c, 9, 69, 0
5, 22080, Note_on_c, 9, 69, 117
5, 22110, Note_on_c, 9, 69, 0
5, 22110, Note_on_c, 9, 69, 105
5, 22140, Note_on_c, 9, 69, 0
5, 22140, Note_on_c, 9, 69, 108
5, 22170, Note_on_c, 9, 69, 0
5, 22170, Note_on_c, 9, 69, 108
5, 22200, Note_on_c, 9, 69, 0
5, 22740, Note_on_c, 9, 69, 116
5, 22770, Note_on_c, 9, 69, 0
5, 22770, Note_on_c, 9, 69, 108
5, 22800, Note_on_c, 9, 69, 0
5, 22800, Note_on_c, 9, 69, 102
5, 22830, Note_on_c, 9, 69, 0
5, 22830, Note_on_c, 9, 69, 102
5, 22860, Note_on_c, 9, 69, 0
5, 22860, Note_on_c, 9, 69, 101
5, 22890, Note_on_c, 9, 69, 0
5, 22920, Note_on_c, 9, 69, 113
5, 22950, Note_on_c, 9, 69, 0
5, 23040, Note_on_c, 9, 69, 117
5, 23070, Note_on_c, 9, 69, 0
5, 23070, Note_on_c, 9, 69, 105
5, 23100, Note_on_c, 9, 69, 0
5, 23100, Note_on_c, 9, 69, 108
5, 23130, Note_on_c, 9, 69, 0
5, 23130, Note_on_c, 9, 69, 108
5, 23160, Note_on_c, 9, 69, 0
5, 23580, Note_on_c, 9, 69, 116
5, 23610, Note_on_c, 9, 69, 0
5, 23610, Note_on_c, 9, 69, 108
5, 23640, Note_on_c, 9, 69, 0
5, 23640, Note_on_c, 9, 69, 102
5, 23670, Note_on_c, 9, 69, 0
5, 23670, Note_on_c, 9, 69, 102
5, 23700, Note_on_c, 9, 69, 0
5, 23700, Note_on_c, 9, 69, 101
5, 23730, Note_on_c, 9, 69, 0
5, 23760, Note_on_c, 9, 69, 113
5, 23790, Note_on_c, 9, 69, 0
5, 23880, Note_on_c, 9, 69, 117
5, 23910, Note_on_c, 9, 69, 0
5, 23910, Note_on_c, 9, 69, 105
5, 23940, Note_on_c, 9, 69, 0
5, 23940, Note_on_c, 9, 69, 108
5, 23970, Note_on_c, 9, 69, 0
5, 23970, Note_on_c, 9, 69, 108
5, 24000, Note_on_c, 9, 69, 0
5, 24660, Note_on_c, 9, 69, 116
5, 24690, Note_on_c, 9, 69, 0
5, 24690, Note_on_c, 9, 69, 108
5, 24720, Note_on_c, 9, 69, 0
5, 24720, Note_on_c, 9, 69, 102
5, 24750, Note_on_c, 9, 69, 0
5, 24750, Note_on_c, 9, 69, 102
5, 24780, Note_on_c, 9, 69, 0
5, 24780, Note_on_c, 9, 69, 101
5, 24810, Note_on_c, 9, 69, 0
5, 24840, Note_on_c, 9, 69, 113
5, 24870, Note_on_c, 9, 69, 0
5, 24960, Note_on_c, 9, 69, 117
5, 24990, Note_on_c, 9, 69, 0
5, 24990, Note_on_c, 9, 69, 105
5, 25020, Note_on_c, 9, 69, 0
5, 25020, Note_on_c, 9, 69, 108
5, 25050, Note_on_c, 9, 69, 0
5, 25050, Note_on_c, 9, 69, 108
5, 25080, Note_on_c, 9, 69, 0
5, 25500, Note_on_c, 9, 69, 116
5, 25530, Note_on_c, 9, 69, 0
5, 25530, Note_on_c, 9, 69, 108
5, 25560, Note_on_c, 9, 69, 0
5, 25560, Note_on_c, 9, 69, 102
5, 25590, Note_on_c, 9, 69, 0
5, 25590, Note_on_c, 9, 69, 102
5, 25620, Note_on_c, 9, 69, 0
5, 25620, Note_on_c, 9, 69, 101
5, 25650, Note_on_c, 9, 69, 0
5, 25680, Note_on_c, 9, 69, 113
5, 25710, Note_on_c, 9, 69, 0
5, 25800, Note_on_c, 9, 69, 117
5, 25830, Note_on_c, 9, 69, 0
5, 25830, Note_on_c, 9, 69, 105
5, 25860, Note_on_c, 9, 69, 0
5, 25860, Note_on_c, 9, 69, 108
5, 25890, Note_on_c, 9, 69, 0
5, 25890, Note_on_c, 9, 69, 108
5, 25920, Note_on_c, 9, 69, 0
5, 26580, Note_on_c, 9, 69, 116
5, 26610, Note_on_c, 9, 69, 0
5, 26610, Note_on_c, 9, 69, 108
5, 26640, Note_on_c, 9, 69, 0
5, 26640, Note_on_c, 9, 69, 102
5, 26670, Note_on_c, 9, 69, 0
5, 26670, Note_on_c, 9, 69, 102
5, 26700, Note_on_c, 9, 69, 0
5, 26700, Note_on_c, 9, 69, 101
5, 26730, Note_on_c, 9, 69, 0
5, 26760, Note_on_c, 9, 69, 113
5, 26790, Note_on_c, 9, 69, 0
5, 26880, Note_on_c, 9, 69, 117
5, 26910, Note_on_c, 9, 69, 0
5, 26910, Note_on_c, 9, 69, 105
5, 26940, Note_on_c, 9, 69, 0
5, 26940, Note_on_c, 9, 69, 108
5, 26970, Note_on_c, 9, 69, 0
5, 26970, Note_on_c, 9, 69, 108
5, 27000, Note_on_c, 9, 69, 0
5, 27420, Note_on_c, 9, 69, 116
5, 27450, Note_on_c, 9, 69, 0
5, 27450, Note_on_c, 9, 69, 108
5, 27480, Note_on_c, 9, 69, 0
5, 27480, Note_on_c, 9, 69, 102
5, 27510, Note_on_c, 9, 69, 0
5, 27510, Note_on_c, 9, 69, 102
5, 27540, Note_on_c, 9, 69, 0
5, 27540, Note_on_c, 9, 69, 101
5, 27570, Note_on_c, 9, 69, 0
5, 27600, Note_on_c, 9, 69, 113
5, 27630, Note_on_c, 9, 69, 0
5, 27720, Note_on_c, 9, 69, 117
5, 27750, Note_on_c, 9, 69, 0
5, 27750, Note_on_c, 9, 69, 105
5, 27780, Note_on_c, 9, 69, 0
5, 27780, Note_on_c, 9, 69, 108
5, 27810, Note_on_c, 9, 69, 0
5, 27810, Note_on_c, 9, 69, 108
5, 27840, Note_on_c, 9, 69, 0
5, 28500, Note_on_c, 9, 69, 116
5, 28530, Note_on_c, 9, 69, 0
5, 28530, Note_on_c, 9, 69, 108
5, 28560, Note_on_c, 9, 69, 0
5, 28560, Note_on_c, 9, 69, 102
5, 28590, Note_on_c, 9, 69, 0
5, 28590, Note_on_c, 9, 69, 102
5, 28620, Note_on_c, 9, 69, 0
5, 28620, Note_on_c, 9, 69, 101
5, 28650, Note_on_c, 9, 69, 0
5, 28680, Note_on_c, 9, 69, 113
5, 28710, Note_on_c, 9, 69, 0
5, 28800, Note_on_c, 9, 69, 117
5, 28830, Note_on_c, 9, 69, 0
5, 28830, Note_on_c, 9, 69, 105
5, 28860, Note_on_c, 9, 69, 0
5, 28860, Note_on_c, 9, 69, 108
5, 28890, Note_on_c, 9, 69, 0
5, 28890, Note_on_c, 9, 69, 108
5, 28920, Note_on_c, 9, 69, 0
5, 29340, Note_on_c, 9, 69, 116
5, 29370, Note_on_c, 9, 69, 0
5, 29370, Note_on_c, 9, 69, 108
5, 29400, Note_on_c, 9, 69, 0
5, 29400, Note_on_c, 9, 69, 102
5, 29430, Note_on_c, 9, 69, 0
5, 29430, Note_on_c, 9, 69, 102
5, 29460, Note_on_c, 9, 69, 0
5, 29460, Note_on_c, 9, 69, 101
5, 29490, Note_on_c, 9, 69, 0
5, 29520, Note_on_c, 9, 69, 113
5, 29550, Note_on_c, 9, 69, 0
5, 29640, Note_on_c, 9, 69, 117
5, 29670, Note_on_c, 9, 69, 0
5, 29670, Note_on_c, 9, 69, 105
5, 29700, Note_on_c, 9, 69, 0
5, 29700, Note_on_c, 9, 69, 108
5, 29730, Note_on_c, 9, 69, 0
5, 29730, Note_on_c, 9, 69, 108
5, 29760, Note_on_c, 9, 69, 0
5, 30420, Note_on_c, 9, 69, 116
5, 30450, Note_on_c, 9, 69, 0
5, 30450, Note_on_c, 9, 69, 108
5, 30480, Note_on_c, 9, 69, 0
5, 30480, Note_on_c, 9, 69, 102
5, 30510, Note_on_c, 9, 69, 0
5, 30510, Note_on_c, 9, 69, 102
5, 30540, Note_on_c, 9, 69, 0
5, 30540, Note_on_c, 9, 69, 101
5, 30570, Note_on_c, 9, 69, 0
5, 30600, Note_on_c, 9, 69, 113
5, 30630, Note_on_c, 9, 69, 0
5, 30720, Note_on_c, 9, 69, 117
5, 30750, Note_on_c, 9, 69, 0
5, 30750, Note_on_c, 9, 69, 105
5, 30780, Note_on_c, 9, 69, 0
5, 30780, Note_on_c, 9, 69, 108
5, 30810, Note_on_c, 9, 69, 0
5, 30810, Note_on_c, 9, 69, 108
5, 30840, Note_on_c, 9, 69, 0
5, 31260, Note_on_c, 9, 69, 116
5, 31290, Note_on_c, 9, 69, 0
5, 31290, Note_on_c, 9, 69, 108
5, 31320, Note_on_c, 9, 69, 0
5, 31320, Note_on_c, 9, 69, 102
5, 31350, Note_on_c, 9, 69, 0
5, 31350, Note_on_c, 9, 69, 102
5, 31380, Note_on_c, 9, 69, 0
5, 31380, Note_on_c, 9, 69, 101
5, 31410, Note_on_c, 9, 69, 0
5, 31440, Note_on_c, 9, 69, 113
5, 31470, Note_on_c, 9, 69, 0
5, 31560, Note_on_c, 9, 69, 117
5, 31590, Note_on_c, 9, 69, 0
5, 31590, Note_on_c, 9, 69, 105
5, 31620, Note_on_c, 9, 69, 0
5, 31620, Note_on_c, 9, 69, 108
5, 31650, Note_on_c, 9, 69, 0
5, 31650, Note_on_c, 9, 69, 108
5, 31680, Note_on_c, 9, 69, 0
5, 32340, Note_on_c, 9, 69, 116
5, 32370, Note_on_c, 9, 69, 0
5, 32370, Note_on_c, 9, 69, 108
5, 32400, Note_on_c, 9, 69, 0
5, 32400, Note_on_c, 9, 69, 102
5, 32430, Note_on_c, 9, 69, 0
5, 32430, Note_on_c, 9, 69, 102
5, 32460, Note_on_c, 9, 69, 0
5, 32460, Note_on_c, 9, 69, 101
5, 32490, Note_on_c, 9, 69, 0
5, 32520, Note_on_c, 9, 69, 113
5, 32550, Note_on_c, 9, 69, 0
5, 32640, Note_on_c, 9, 69, 117
5, 32670, Note_on_c, 9, 69, 0
5, 32670, Note_on_c, 9, 69, 105
5, 32700, Note_on_c, 9, 69, 0
5, 32700, Note_on_c, 9, 69, 108
5, 32730, Note_on_c, 9, 69, 0
5, 32730, Note_on_c, 9, 69, 108
5, 32760, Note_on_c, 9, 69, 0
5, 33180, Note_on_c, 9, 69, 116
5, 33210, Note_on_c, 9, 69, 0
5, 33210, Note_on_c, 9, 69, 108
5, 33240, Note_on_c, 9, 69, 0
5, 33240, Note_on_c, 9, 69, 102
5, 33270, Note_on_c, 9, 69, 0
5, 33270, Note_on_c, 9, 69, 102
5, 33300, Note_on_c, 9, 69, 0
5, 33300, Note_on_c, 9, 69, 101
5, 33330, Note_on_c, 9, 69, 0
5, 33360, Note_on_c, 9, 69, 113
5, 33390, Note_on_c, 9, 69, 0
5, 33480, Note_on_c, 9, 69, 117
5, 33510, Note_on_c, 9, 69, 0
5, 33510, Note_on_c, 9, 69, 105
5, 33540, Note_on_c, 9, 69, 0
5, 33540, Note_on_c, 9, 69, 108
5, 33570, Note_on_c, 9, 69, 0
5, 33570, Note_on_c, 9, 69, 108
5, 33600, Note_on_c, 9, 69, 0
5, 34620, Note_on_c, 9, 69, 99
5, 34650, Note_on_c, 9, 69, 0
5, 34650, Note_on_c, 9, 69, 99
5, 34680, Note_on_c, 9, 69, 0
5, 35100, Note_on_c, 9, 69, 98
5, 35130, Note_on_c, 9, 69, 0
5, 35160, Note_on_c, 9, 69, 97
5, 35190, Note_on_c, 9, 69, 0
5, 35220, Note_on_c, 9, 69, 89
5, 35250, Note_on_c, 9, 69, 0
5, 35820, Note_on_c, 9, 69, 93
5, 35850, Note_on_c, 9, 69, 0
5, 35850, Note_on_c, 9, 69, 93
5, 35880, Note_on_c, 9, 69, 0
5, 35940, Note_on_c, 9, 69, 95
5, 35970, Note_on_c, 9, 69, 0
5, 36540, Note_on_c, 9, 69, 87
5, 36570, Note_on_c, 9, 69, 0
5, 36570, Note_on_c, 9, 69, 95
5, 36600, Note_on_c, 9, 69, 0
5, 37500, Note_on_c, 9, 69, 75
5, 37530, Note_on_c, 9, 69, 0
5, 37560, Note_on_c, 9, 69, 81
5, 37590, Note_on_c, 9, 69, 0
5, 37620, Note_on_c, 9, 69, 83
5, 37650, Note_on_c, 9, 69, 0
5, 37680, Note_on_c, 9, 69, 87
5, 37710, Note_on_c, 9, 69, 0
5, 37710, Note_on_c, 9, 69, 99
5, 37740, Note_on_c, 9, 69, 0
5, 37770, Note_on_c, 9, 69, 99
5, 37800, Note_on_c, 9, 69, 0
5, 37830, Note_on_c, 9, 69, 94
5, 37860, Note_on_c, 9, 69, 0
5, 37860, Note_on_c, 9, 69, 99
5, 37890, Note_on_c, 9, 69, 0
5, 38100, Note_on_c, 9, 69, 116
5, 38130, Note_on_c, 9, 69, 0
5, 38130, Note_on_c, 9, 69, 108
5, 38160, Note_on_c, 9, 69, 0
5, 38160, Note_on_c, 9, 69, 102
5, 38190, Note_on_c, 9, 69, 0
5, 38190, Note_on_c, 9, 69, 102
5, 38220, Note_on_c, 9, 69, 0
5, 38220, Note_on_c, 9, 69, 101
5, 38250, Note_on_c, 9, 69, 0
5, 38280, Note_on_c, 9, 69, 113
5, 38310, Note_on_c, 9, 69, 0
5, 38400, Note_on_c, 9, 69, 117
5, 38430, Note_on_c, 9, 69, 0
5, 38430, Note_on_c, 9, 69, 105
5, 38460, Note_on_c, 9, 69, 0
5, 38460, Note_on_c, 9, 69, 108
5, 38490, Note_on_c, 9, 69, 0
5, 38490, Note_on_c, 9, 69, 108
5, 38520, Note_on_c, 9, 69, 0
5, 38940, Note_on_c, 9, 69, 116
5, 38970, Note_on_c, 9, 69, 0
5, 38970, Note_on_c, 9, 69, 108
5, 39000, Note_on_c, 9, 69, 0
5, 39000, Note_on_c, 9, 69, 102
5, 39030, Note_on_c, 9, 69, 0
5, 39030, Note_on_c, 9, 69, 102
5, 39060, Note_on_c, 9, 69, 0
5, 39060, Note_on_c, 9, 69, 101
5, 39090, Note_on_c, 9, 69, 0
5, 39120, Note_on_c, 9, 69, 113
5, 39150, Note_on_c, 9, 69, 0
5, 39240, Note_on_c, 9, 69, 117
5, 39270, Note_on_c, 9, 69, 0
5, 39270, Note_on_c, 9, 69, 105
5, 39300, Note_on_c, 9, 69, 0
5, 39300, Note_on_c, 9, 69, 108
5, 39330, Note_on_c, 9, 69, 0
5, 39330, Note_on_c, 9, 69, 108
5, 39360, Note_on_c, 9, 69, 0
5, 40020, Note_on_c, 9, 69, 116
5, 40050, Note_on_c, 9, 69, 0
5, 40050, Note_on_c, 9, 69, 108
5, 40080, Note_on_c, 9, 69, 0
5, 40080, Note_on_c, 9, 69, 102
5, 40110, Note_on_c, 9, 69, 0
5, 40110, Note_on_c, 9, 69, 102
5, 40140, Note_on_c, 9, 69, 0
5, 40140, Note_on_c, 9, 69, 101
5, 40170, Note_on_c, 9, 69, 0
5, 40200, Note_on_c, 9, 69, 113
5, 40230, Note_on_c, 9, 69, 0
5, 40320, Note_on_c, 9, 69, 117
5, 40350, Note_on_c, 9, 69, 0
5, 40350, Note_on_c, 9, 69, 105
5, 40380, Note_on_c, 9, 69, 0
5, 40380, Note_on_c, 9, 69, 108
5, 40410, Note_on_c, 9, 69, 0
5, 40410, Note_on_c, 9, 69, 108
5, 40440, Note_on_c, 9, 69, 0
5, 40860, Note_on_c, 9, 69, 116
5, 40890, Note_on_c, 9, 69, 0
5, 40890, Note_on_c, 9, 69, 108
5, 40920, Note_on_c, 9, 69, 0
5, 40920, Note_on_c, 9, 69, 102
5, 40950, Note_on_c, 9, 69, 0
5, 40950, Note_on_c, 9, 69, 102
5, 40980, Note_on_c, 9, 69, 0
5, 40980, Note_on_c, 9, 69, 101
5, 41010, Note_on_c, 9, 69, 0
5, 41040, Note_on_c, 9, 69, 113
5, 41070, Note_on_c, 9, 69, 0
5, 41160, Note_on_c, 9, 69, 117
5, 41190, Note_on_c, 9, 69, 0
5, 41190, Note_on_c, 9, 69, 105
5, 41220, Note_on_c, 9, 69, 0
5, 41220, Note_on_c, 9, 69, 108
5, 41250, Note_on_c, 9, 69, 0
5, 41250, Note_on_c, 9, 69, 108
5, 41280, Note_on_c, 9, 69, 0
5, 41280, Note_on_c, 9, 44, 117
5, 41280, Note_on_c, 9, 36, 116
5, 41310, Note_on_c, 9, 44, 0
5, 41310, Note_on_c, 9, 44, 113
5, 41340, Note_on_c, 9, 44, 0
5, 41340, Note_on_c, 9, 36, 0
5, 41400, Note_on_c, 9, 44, 121
5, 41400, Note_on_c, 9, 36, 117
5, 41430, Note_on_c, 9, 36, 0
5, 41430, Note_on_c, 9, 44, 0
5, 41430, Note_on_c, 9, 36, 112
5, 41430, Note_on_c, 9, 44, 117
5, 41460, Note_on_c, 9, 44, 0
5, 41460, Note_on_c, 9, 36, 0
5, 41520, Note_on_c, 9, 44, 121
5, 41520, Note_on_c, 9, 36, 108
5, 41550, Note_on_c, 9, 36, 0
5, 41550, Note_on_c, 9, 44, 0
5, 41550, Note_on_c, 9, 36, 102
5, 41550, Note_on_c, 9, 44, 120
5, 41580, Note_on_c, 9, 44, 0
5, 41580, Note_on_c, 9, 36, 0
5, 41640, Note_on_c, 9, 44, 120
5, 41640, Note_on_c, 9, 36, 124
5, 41670, Note_on_c, 9, 36, 0
5, 41670, Note_on_c, 9, 44, 0
5, 41670, Note_on_c, 9, 44, 108
5, 41670, Note_on_c, 9, 36, 94
5, 41700, Note_on_c, 9, 36, 0
5, 41700, Note_on_c, 9, 44, 0
5, 41700, Note_on_c, 9, 36, 101
5, 41700, Note_on_c, 9, 44, 113
5, 41730, Note_on_c, 9, 44, 0
5, 41730, Note_on_c, 9, 36, 0
5, 41940, Note_on_c, 9, 69, 116
5, 41970, Note_on_c, 9, 69, 0
5, 41970, Note_on_c, 9, 69, 108
5, 42000, Note_on_c, 9, 69, 0
5, 42000, Note_on_c, 9, 69, 102
5, 42030, Note_on_c, 9, 69, 0
5, 42030, Note_on_c, 9, 69, 102
5, 42060, Note_on_c, 9, 69, 0
5, 42060, Note_on_c, 9, 69, 101
5, 42090, Note_on_c, 9, 69, 0
5, 42120, Note_on_c, 9, 69, 113
5, 42150, Note_on_c, 9, 69, 0
5, 42240, Note_on_c, 9, 69, 117
5, 42270, Note_on_c, 9, 69, 0
5, 42270, Note_on_c, 9, 69, 105
5, 42300, Note_on_c, 9, 69, 0
5, 42300, Note_on_c, 9, 69, 108
5, 42330, Note_on_c, 9, 69, 0
5, 42330, Note_on_c, 9, 69, 108
5, 42360, Note_on_c, 9, 69, 0
5, 42780, Note_on_c, 9, 69, 116
5, 42810, Note_on_c, 9, 69, 0
5, 42810, Note_on_c, 9, 69, 108
5, 42840, Note_on_c, 9, 69, 0
5, 42840, Note_on_c, 9, 69, 102
5, 42870, Note_on_c, 9, 69, 0
5, 42870, Note_on_c, 9, 69, 102
5, 42900, Note_on_c, 9, 69, 0
5, 42900, Note_on_c, 9, 69, 101
5, 42930, Note_on_c, 9, 69, 0
5, 42960, Note_on_c, 9, 69, 113
5, 42990, Note_on_c, 9, 69, 0
5, 43080, Note_on_c, 9, 69, 117
5, 43110, Note_on_c, 9, 69, 0
5, 43110, Note_on_c, 9, 69, 105
5, 43140, Note_on_c, 9, 69, 0
5, 43140, Note_on_c, 9, 69, 108
5, 43170, Note_on_c, 9, 69, 0
5, 43170, Note_on_c, 9, 69, 108
5, 43200, Note_on_c, 9, 69, 0
5, 43860, Note_on_c, 9, 69, 116
5, 43890, Note_on_c, 9, 69, 0
5, 43890, Note_on_c, 9, 69, 108
5, 43920, Note_on_c, 9, 69, 0
5, 43920, Note_on_c, 9, 69, 102
5, 43950, Note_on_c, 9, 69, 0
5, 43950, Note_on_c, 9, 69, 102
5, 43980, Note_on_c, 9, 69, 0
5, 43980, Note_on_c, 9, 69, 101
5, 44010, Note_on_c, 9, 69, 0
5, 44040, Note_on_c, 9, 69, 113
5, 44070, Note_on_c, 9, 69, 0
5, 44160, Note_on_c, 9, 69, 117
5, 44190, Note_on_c, 9, 69, 0
5, 44190, Note_on_c, 9, 69, 105
5, 44220, Note_on_c, 9, 69, 0
5, 44220, Note_on_c, 9, 69, 108
5, 44250, Note_on_c, 9, 69, 0
5, 44250, Note_on_c, 9, 69, 108
5, 44280, Note_on_c, 9, 69, 0
5, 44700, Note_on_c, 9, 69, 116
5, 44730, Note_on_c, 9, 69, 0
5, 44730, Note_on_c, 9, 69, 108
5, 44760, Note_on_c, 9, 69, 0
5, 44760, Note_on_c, 9, 69, 102
5, 44790, Note_on_c, 9, 69, 0
5, 44790, Note_on_c, 9, 69, 102
5, 44820, Note_on_c, 9, 69, 0
5, 44820, Note_on_c, 9, 69, 101
5, 44850, Note_on_c, 9, 69, 0
5, 44880, Note_on_c, 9, 69, 113
5, 44910, Note_on_c, 9, 69, 0
5, 45000, Note_on_c, 9, 69, 117
5, 45030, Note_on_c, 9, 69, 0
5, 45030, Note_on_c, 9, 69, 105
5, 45060, Note_on_c, 9, 69, 0
5, 45060, Note_on_c, 9, 69, 108
5, 45090, Note_on_c, 9, 69, 0
5, 45090, Note_on_c, 9, 69, 108
5, 45120, Note_on_c, 9, 69, 0
5, 45780, Note_on_c, 9, 69, 116
5, 45810, Note_on_c, 9, 69, 0
5, 45810, Note_on_c, 9, 69, 108
5, 45840, Note_on_c, 9, 69, 0
5, 45840, Note_on_c, 9, 69, 102
5, 45870, Note_on_c, 9, 69, 0
5, 45870, Note_on_c, 9, 69, 102
5, 45900, Note_on_c, 9, 69, 0
5, 45900, Note_on_c, 9, 69, 101
5, 45930, Note_on_c, 9, 69, 0
5, 45960, Note_on_c, 9, 69, 113
5, 45990, Note_on_c, 9, 69, 0
5, 46080, Note_on_c, 9, 69, 117
5, 46110, Note_on_c, 9, 69, 0
5, 46110, Note_on_c, 9, 69, 105
5, 46140, Note_on_c, 9, 69, 0
5, 46140, Note_on_c, 9, 69, 108
5, 46170, Note_on_c, 9, 69, 0
5, 46170, Note_on_c, 9, 69, 108
5, 46200, Note_on_c, 9, 69, 0
5, 46620, Note_on_c, 9, 69, 116
5, 46650, Note_on_c, 9, 69, 0
5, 46650, Note_on_c, 9, 69, 108
5, 46680, Note_on_c, 9, 69, 0
5, 46680, Note_on_c, 9, 69, 102
5, 46710, Note_on_c, 9, 69, 0
5, 46710, Note_on_c, 9, 69, 102
5, 46740, Note_on_c, 9, 69, 0
5, 46740, Note_on_c, 9, 69, 101
5, 46770, Note_on_c, 9, 69, 0
5, 46800, Note_on_c, 9, 69, 113
5, 46830, Note_on_c, 9, 69, 0
5, 46920, Note_on_c, 9, 69, 117
5, 46950, Note_on_c, 9, 69, 0
5, 46950, Note_on_c, 9, 69, 105
5, 46980, Note_on_c, 9, 69, 0
5, 46980, Note_on_c, 9, 69, 108
5, 47010, Note_on_c, 9, 69, 0
5, 47010, Note_on_c, 9, 69, 108
5, 47040, Note_on_c, 9, 69, 0
5, 47700, Note_on_c, 9, 69, 116
5, 47730, Note_on_c, 9, 69, 0
5, 47730, Note_on_c, 9, 69, 108
5, 47760, Note_on_c, 9, 69, 0
5, 47760, Note_on_c, 9, 69, 102
5, 47790, Note_on_c, 9, 69, 0
5, 47790, Note_on_c, 9, 69, 102
5, 47820, Note_on_c, 9, 69, 0
5, 47820, Note_on_c, 9, 69, 101
5, 47850, Note_on_c, 9, 69, 0
5, 47880, Note_on_c, 9, 69, 113
5, 47910, Note_on_c, 9, 69, 0
5, 48000, Note_on_c, 9, 69, 117
5, 48030, Note_on_c, 9, 69, 0
5, 48030, Note_on_c, 9, 69, 105
5, 48060, Note_on_c, 9, 69, 0
5, 48060, Note_on_c, 9, 69, 108
5, 48090, Note_on_c, 9, 69, 0
5, 48090, Note_on_c, 9, 69, 108
5, 48120, Note_on_c, 9, 69, 0
5, 48540, Note_on_c, 9, 69, 116
5, 48570, Note_on_c, 9, 69, 0
5, 48570, Note_on_c, 9, 69, 108
5, 48600, Note_on_c, 9, 69, 0
5, 48600, Note_on_c, 9, 69, 102
5, 48630, Note_on_c, 9, 69, 0
5, 48630, Note_on_c, 9, 69, 102
5, 48660, Note_on_c, 9, 69, 0
5, 48660, Note_on_c, 9, 69, 101
5, 48690, Note_on_c, 9, 69, 0
5, 48720, Note_on_c, 9, 69, 113
5, 48750, Note_on_c, 9, 69, 0
5, 48840, Note_on_c, 9, 69, 117
5, 48870, Note_on_c, 9, 69, 0
5, 48870, Note_on_c, 9, 69, 105
5, 48900, Note_on_c, 9, 69, 0
5, 48900, Note_on_c, 9, 69, 125
5, 48930, Note_on_c, 9, 69, 0
5, 48930, Note_on_c, 9, 69, 123
5, 48960, Note_on_c, 9, 69, 0
5, 49620, Note_on_c, 9, 69, 89
5, 49650, Note_on_c, 9, 69, 0
5, 49650, Note_on_c, 9, 69, 87
5, 49680, Note_on_c, 9, 69, 0
5, 49680, Note_on_c, 9, 69, 86
5, 49710, Note_on_c, 9, 69, 0
5, 49710, Note_on_c, 9, 69, 84
5, 49740, Note_on_c, 9, 69, 0
5, 49740, Note_on_c, 9, 69, 82
5, 49770, Note_on_c, 9, 69, 0
5, 49800, Note_on_c, 9, 69, 80
5, 49830, Note_on_c, 9, 69, 0
5, 49920, Note_on_c, 9, 69, 74
5, 49950, Note_on_c, 9, 69, 0
5, 49950, Note_on_c, 9, 69, 72
5, 49980, Note_on_c, 9, 69, 0
5, 49980, Note_on_c, 9, 69, 70
5, 50010, Note_on_c, 9, 69, 0
5, 50010, Note_on_c, 9, 69, 69
5, 50040, Note_on_c, 9, 69, 0
5, 50460, Note_on_c, 9, 69, 46
5, 50490, Note_on_c, 9, 69, 0
5, 50490, Note_on_c, 9, 69, 45
5, 50520, Note_on_c, 9, 69, 0
5, 50520, Note_on_c, 9, 69, 44
5, 50550, Note_on_c, 9, 69, 0
5, 50550, Note_on_c, 9, 69, 41
5, 50580, Note_on_c, 9, 69, 0
5, 50580, Note_on_c, 9, 69, 40
5, 50610, Note_on_c, 9, 69, 0
5, 50640, Note_on_c, 9, 69, 37
5, 50670, Note_on_c, 9, 69, 0
5, 50760, Note_on_c, 9, 69, 31
5, 50790, Note_on_c, 9, 69, 0
5, 50790, Note_on_c, 9, 69, 29
5, 50820, Note_on_c, 9, 69, 0
5, 50820, Note_on_c, 9, 69, 28
5, 50850, Note_on_c, 9, 69, 0
5, 50850, Note_on_c, 9, 69, 27
5, 50880, Note_on_c, 9, 69, 0
5, 50880, End_track
6, 0, Start_track
6, 0, MIDI_port, 0
6, 0, Title_t, ""
6, 0, Program_c, 9, 0
6, 0, Control_c, 9, 7, 127
6, 1200, Note_on_c, 9, 69, 106
6, 1230, Note_on_c, 9, 69, 0
6, 1230, Note_on_c, 9, 70, 117
6, 1260, Note_on_c, 9, 70, 0
6, 1260, Note_on_c, 9, 69, 113
6, 1290, Note_on_c, 9, 69, 0
6, 1290, Note_on_c, 9, 70, 116
6, 1320, Note_on_c, 9, 70, 0
6, 1320, Note_on_c, 9, 69, 110
6, 1350, Note_on_c, 9, 69, 0
6, 1350, Note_on_c, 9, 70, 117
6, 1380, Note_on_c, 9, 70, 0
6, 1380, Note_on_c, 9, 69, 113
6, 1410, Note_on_c, 9, 69, 0
6, 1410, Note_on_c, 9, 70, 120
6, 1440, Note_on_c, 9, 70, 0
6, 1500, Note_on_c, 9, 74, 90
6, 1560, Note_on_c, 9, 74, 0
6, 1560, Note_on_c, 9, 83, 87
6, 1740, Note_on_c, 9, 83, 0
6, 2040, Note_on_c, 9, 54, 117
6, 2280, Note_on_c, 9, 54, 0
6, 2460, Note_on_c, 9, 74, 93
6, 2520, Note_on_c, 9, 74, 0
6, 2520, Note_on_c, 9, 83, 100
6, 2760, Note_on_c, 9, 83, 0
6, 3000, Note_on_c, 9, 54, 121
6, 3180, Note_on_c, 9, 54, 0
6, 3420, Note_on_c, 9, 74, 90
6, 3480, Note_on_c, 9, 74, 0
6, 3480, Note_on_c, 9, 83, 87
6, 3660, Note_on_c, 9, 83, 0
6, 3960, Note_on_c, 9, 54, 117
6, 4200, Note_on_c, 9, 54, 0
6, 4380, Note_on_c, 9, 74, 93
6, 4440, Note_on_c, 9, 74, 0
6, 4440, Note_on_c, 9, 83, 100
6, 4680, Note_on_c, 9, 83, 0
6, 4920, Note_on_c, 9, 54, 121
6, 5100, Note_on_c, 9, 54, 0
6, 5340, Note_on_c, 9, 74, 90
6, 5400, Note_on_c, 9, 74, 0
6, 5400, Note_on_c, 9, 83, 87
6, 5580, Note_on_c, 9, 83, 0
6, 5880, Note_on_c, 9, 54, 117
6, 6120, Note_on_c, 9, 54, 0
6, 6300, Note_on_c, 9, 74, 93
6, 6360, Note_on_c, 9, 74, 0
6, 6360, Note_on_c, 9, 83, 100
6, 6600, Note_on_c, 9, 83, 0
6, 6840, Note_on_c, 9, 54, 121
6, 7020, Note_on_c, 9, 54, 0
6, 7260, Note_on_c, 9, 74, 90
6, 7320, Note_on_c, 9, 74, 0
6, 7320, Note_on_c, 9, 83, 87
6, 7500, Note_on_c, 9, 83, 0
6, 7800, Note_on_c, 9, 54, 117
6, 8040, Note_on_c, 9, 54, 0
6, 8220, Note_on_c, 9, 74, 93
6, 8280, Note_on_c, 9, 74, 0
6, 8280, Note_on_c, 9, 83, 100
6, 8520, Note_on_c, 9, 83, 0
6, 8760, Note_on_c, 9, 54, 121
6, 8940, Note_on_c, 9, 54, 0
6, 9180, Note_on_c, 9, 74, 90
6, 9240, Note_on_c, 9, 74, 0
6, 9240, Note_on_c, 9, 83, 87
6, 9420, Note_on_c, 9, 83, 0
6, 9720, Note_on_c, 9, 54, 117
6, 9960, Note_on_c, 9, 54, 0
6, 10140, Note_on_c, 9, 74, 93
6, 10200, Note_on_c, 9, 74, 0
6, 10200, Note_on_c, 9, 83, 100
6, 10440, Note_on_c, 9, 83, 0
6, 10680, Note_on_c, 9, 54, 121
6, 10860, Note_on_c, 9, 54, 0
6, 11100, Note_on_c, 9, 74, 90
6, 11160, Note_on_c, 9, 74, 0
6, 11160, Note_on_c, 9, 83, 87
6, 11340, Note_on_c, 9, 83, 0
6, 11640, Note_on_c, 9, 54, 117
6, 11880, Note_on_c, 9, 54, 0
6, 12060, Note_on_c, 9, 74, 93
6, 12120, Note_on_c, 9, 74, 0
6, 12120, Note_on_c, 9, 83, 100
6, 12360, Note_on_c, 9, 83, 0
6, 12600, Note_on_c, 9, 54, 121
6, 12780, Note_on_c, 9, 54, 0
6, 12780, Note_on_c, 9, 69, 96
6, 12810, Note_on_c, 9, 69, 0
6, 12810, Note_on_c, 9, 70, 89
6, 12840, Note_on_c, 9, 70, 0
6, 12840, Note_on_c, 9, 69, 98
6, 12870, Note_on_c, 9, 69, 0
6, 12870, Note_on_c, 9, 70, 91
6, 12900, Note_on_c, 9, 70, 0
6, 12900, Note_on_c, 9, 69, 97
6, 12930, Note_on_c, 9, 69, 0
6, 12930, Note_on_c, 9, 70, 100
6, 12960, Note_on_c, 9, 70, 0
6, 13020, Note_on_c, 9, 74, 90
6, 13080, Note_on_c, 9, 74, 0
6, 13080, Note_on_c, 9, 83, 87
6, 13260, Note_on_c, 9, 83, 0
6, 13560, Note_on_c, 9, 54, 117
6, 13800, Note_on_c, 9, 54, 0
6, 13980, Note_on_c, 9, 74, 93
6, 14040, Note_on_c, 9, 74, 0
6, 14040, Note_on_c, 9, 83, 100
6, 14280, Note_on_c, 9, 83, 0
6, 14520, Note_on_c, 9, 54, 121
6, 14700, Note_on_c, 9, 54, 0
6, 14700, Note_on_c, 9, 69, 96
6, 14730, Note_on_c, 9, 69, 0
6, 14730, Note_on_c, 9, 70, 89
6, 14760, Note_on_c, 9, 70, 0
6, 14760, Note_on_c, 9, 69, 98
6, 14790, Note_on_c, 9, 69, 0
6, 14790, Note_on_c, 9, 70, 91
6, 14820, Note_on_c, 9, 70, 0
6, 14820, Note_on_c, 9, 69, 97
6, 14850, Note_on_c, 9, 69, 0
6, 14850, Note_on_c, 9, 70, 100
6, 14880, Note_on_c, 9, 70, 0
6, 14940, Note_on_c, 9, 74, 90
6, 15000, Note_on_c, 9, 74, 0
6, 15000, Note_on_c, 9, 83, 87
6, 15180, Note_on_c, 9, 83, 0
6, 15480, Note_on_c, 9, 54, 117
6, 15720, Note_on_c, 9, 54, 0
6, 15900, Note_on_c, 9, 74, 93
6, 15960, Note_on_c, 9, 74, 0
6, 15960, Note_on_c, 9, 83, 100
6, 16200, Note_on_c, 9, 83, 0
6, 16440, Note_on_c, 9, 54, 121
6, 16620, Note_on_c, 9, 54, 0
6, 16620, Note_on_c, 9, 69, 96
6, 16650, Note_on_c, 9, 69, 0
6, 16650, Note_on_c, 9, 70, 89
6, 16680, Note_on_c, 9, 70, 0
6, 16680, Note_on_c, 9, 69, 98
6, 16710, Note_on_c, 9, 69, 0
6, 16710, Note_on_c, 9, 70, 91
6, 16740, Note_on_c, 9, 70, 0
6, 16740, Note_on_c, 9, 69, 97
6, 16770, Note_on_c, 9, 69, 0
6, 16770, Note_on_c, 9, 70, 100
6, 16800, Note_on_c, 9, 70, 0
6, 16860, Note_on_c, 9, 74, 90
6, 16920, Note_on_c, 9, 74, 0
6, 16920, Note_on_c, 9, 83, 87
6, 17100, Note_on_c, 9, 83, 0
6, 17400, Note_on_c, 9, 54, 117
6, 17640, Note_on_c, 9, 54, 0
6, 17820, Note_on_c, 9, 74, 93
6, 17880, Note_on_c, 9, 74, 0
6, 17880, Note_on_c, 9, 83, 100
6, 18120, Note_on_c, 9, 83, 0
6, 18360, Note_on_c, 9, 54, 121
6, 18540, Note_on_c, 9, 54, 0
6, 18540, Note_on_c, 9, 69, 96
6, 18570, Note_on_c, 9, 69, 0
6, 18570, Note_on_c, 9, 70, 89
6, 18600, Note_on_c, 9, 70, 0
6, 18600, Note_on_c, 9, 69, 98
6, 18630, Note_on_c, 9, 69, 0
6, 18630, Note_on_c, 9, 70, 91
6, 18660, Note_on_c, 9, 70, 0
6, 18660, Note_on_c, 9, 69, 97
6, 18690, Note_on_c, 9, 69, 0
6, 18690, Note_on_c, 9, 70, 100
6, 18720, Note_on_c, 9, 70, 0
6, 18840, Note_on_c, 9, 83, 87
6, 19020, Note_on_c, 9, 83, 0
6, 19320, Note_on_c, 9, 54, 117
6, 19560, Note_on_c, 9, 54, 0
6, 19740, Note_on_c, 9, 74, 93
6, 19800, Note_on_c, 9, 74, 0
6, 19800, Note_on_c, 9, 83, 100
6, 20040, Note_on_c, 9, 83, 0
6, 20280, Note_on_c, 9, 54, 121
6, 20460, Note_on_c, 9, 54, 0
6, 20460, Note_on_c, 9, 69, 96
6, 20490, Note_on_c, 9, 69, 0
6, 20490, Note_on_c, 9, 70, 89
6, 20520, Note_on_c, 9, 70, 0
6, 20520, Note_on_c, 9, 69, 98
6, 20550, Note_on_c, 9, 69, 0
6, 20550, Note_on_c, 9, 70, 91
6, 20580, Note_on_c, 9, 70, 0
6, 20580, Note_on_c, 9, 69, 97
6, 20610, Note_on_c, 9, 69, 0
6, 20610, Note_on_c, 9, 70, 100
6, 20640, Note_on_c, 9, 70, 0
6, 20700, Note_on_c, 9, 74, 90
6, 20760, Note_on_c, 9, 74, 0
6, 21240, Note_on_c, 9, 54, 117
6, 21480, Note_on_c, 9, 54, 0
6, 21660, Note_on_c, 9, 74, 90
6, 21720, Note_on_c, 9, 74, 0
6, 22200, Note_on_c, 9, 54, 117
6, 22440, Note_on_c, 9, 54, 0
6, 22620, Note_on_c, 9, 74, 90
6, 22680, Note_on_c, 9, 74, 0
6, 22680, Note_on_c, 9, 83, 87
6, 22860, Note_on_c, 9, 83, 0
6, 23160, Note_on_c, 9, 54, 117
6, 23400, Note_on_c, 9, 54, 0
6, 23580, Note_on_c, 9, 74, 93
6, 23640, Note_on_c, 9, 74, 0
6, 23640, Note_on_c, 9, 83, 100
6, 23880, Note_on_c, 9, 83, 0
6, 24120, Note_on_c, 9, 54, 121
6, 24300, Note_on_c, 9, 54, 0
6, 24300, Note_on_c, 9, 69, 96
6, 24330, Note_on_c, 9, 69, 0
6, 24330, Note_on_c, 9, 70, 89
6, 24360, Note_on_c, 9, 70, 0
6, 24360, Note_on_c, 9, 69, 98
6, 24390, Note_on_c, 9, 69, 0
6, 24390, Note_on_c, 9, 70, 91
6, 24420, Note_on_c, 9, 70, 0
6, 24420, Note_on_c, 9, 69, 97
6, 24450, Note_on_c, 9, 69, 0
6, 24450, Note_on_c, 9, 70, 100
6, 24480, Note_on_c, 9, 70, 0
6, 24540, Note_on_c, 9, 74, 90
6, 24600, Note_on_c, 9, 74, 0
6, 24600, Note_on_c, 9, 83, 87
6, 24780, Note_on_c, 9, 83, 0
6, 25080, Note_on_c, 9, 54, 117
6, 25320, Note_on_c, 9, 54, 0
6, 25500, Note_on_c, 9, 74, 93
6, 25560, Note_on_c, 9, 74, 0
6, 25560, Note_on_c, 9, 83, 100
6, 25800, Note_on_c, 9, 83, 0
6, 26040, Note_on_c, 9, 54, 121
6, 26220, Note_on_c, 9, 54, 0
6, 26220, Note_on_c, 9, 69, 96
6, 26250, Note_on_c, 9, 69, 0
6, 26250, Note_on_c, 9, 70, 89
6, 26280, Note_on_c, 9, 70, 0
6, 26280, Note_on_c, 9, 69, 98
6, 26310, Note_on_c, 9, 69, 0
6, 26310, Note_on_c, 9, 70, 91
6, 26340, Note_on_c, 9, 70, 0
6, 26340, Note_on_c, 9, 69, 97
6, 26370, Note_on_c, 9, 69, 0
6, 26370, Note_on_c, 9, 70, 100
6, 26400, Note_on_c, 9, 70, 0
6, 26460, Note_on_c, 9, 74, 90
6, 26520, Note_on_c, 9, 74, 0
6, 26520, Note_on_c, 9, 83, 87
6, 26700, Note_on_c, 9, 83, 0
6, 27000, Note_on_c, 9, 54, 117
6, 27240, Note_on_c, 9, 54, 0
6, 27420, Note_on_c, 9, 74, 93
6, 27480, Note_on_c, 9, 74, 0
6, 27480, Note_on_c, 9, 83, 100
6, 27720, Note_on_c, 9, 83, 0
6, 27960, Note_on_c, 9, 54, 121
6, 28140, Note_on_c, 9, 54, 0
6, 28140, Note_on_c, 9, 69, 96
6, 28170, Note_on_c, 9, 69, 0
6, 28170, Note_on_c, 9, 70, 89
6, 28200, Note_on_c, 9, 70, 0
6, 28200, Note_on_c, 9, 69, 98
6, 28230, Note_on_c, 9, 69, 0
6, 28230, Note_on_c, 9, 70, 91
6, 28260, Note_on_c, 9, 70, 0
6, 28260, Note_on_c, 9, 69, 97
6, 28290, Note_on_c, 9, 69, 0
6, 28290, Note_on_c, 9, 70, 100
6, 28320, Note_on_c, 9, 70, 0
6, 28380, Note_on_c, 9, 74, 90
6, 28440, Note_on_c, 9, 74, 0
6, 28440, Note_on_c, 9, 83, 87
6, 28620, Note_on_c, 9, 83, 0
6, 28920, Note_on_c, 9, 54, 117
6, 29160, Note_on_c, 9, 54, 0
6, 29340, Note_on_c, 9, 74, 93
6, 29400, Note_on_c, 9, 74, 0
6, 29400, Note_on_c, 9, 83, 100
6, 29640, Note_on_c, 9, 83, 0
6, 29880, Note_on_c, 9, 54, 121
6, 30060, Note_on_c, 9, 54, 0
6, 30060, Note_on_c, 9, 69, 96
6, 30090, Note_on_c, 9, 69, 0
6, 30090, Note_on_c, 9, 70, 89
6, 30120, Note_on_c, 9, 70, 0
6, 30120, Note_on_c, 9, 69, 98
6, 30150, Note_on_c, 9, 69, 0
6, 30150, Note_on_c, 9, 70, 91
6, 30180, Note_on_c, 9, 70, 0
6, 30180, Note_on_c, 9, 69, 97
6, 30210, Note_on_c, 9, 69, 0
6, 30210, Note_on_c, 9, 70, 100
6, 30240, Note_on_c, 9, 70, 0
6, 30300, Note_on_c, 9, 74, 90
6, 30360, Note_on_c, 9, 74, 0
6, 30360, Note_on_c, 9, 83, 87
6, 30540, Note_on_c, 9, 83, 0
6, 30840, Note_on_c, 9, 54, 117
6, 31080, Note_on_c, 9, 54, 0
6, 31260, Note_on_c, 9, 74, 93
6, 31320, Note_on_c, 9, 74, 0
6, 31320, Note_on_c, 9, 83, 100
6, 31560, Note_on_c, 9, 83, 0
6, 31800, Note_on_c, 9, 54, 121
6, 31980, Note_on_c, 9, 54, 0
6, 31980, Note_on_c, 9, 69, 96
6, 32010, Note_on_c, 9, 69, 0
6, 32010, Note_on_c, 9, 70, 89
6, 32040, Note_on_c, 9, 70, 0
6, 32040, Note_on_c, 9, 69, 98
6, 32070, Note_on_c, 9, 69, 0
6, 32070, Note_on_c, 9, 70, 91
6, 32100, Note_on_c, 9, 70, 0
6, 32100, Note_on_c, 9, 69, 97
6, 32130, Note_on_c, 9, 69, 0
6, 32130, Note_on_c, 9, 70, 100
6, 32160, Note_on_c, 9, 70, 0
6, 32220, Note_on_c, 9, 74, 90
6, 32280, Note_on_c, 9, 74, 0
6, 32280, Note_on_c, 9, 83, 87
6, 32460, Note_on_c, 9, 83, 0
6, 32760, Note_on_c, 9, 54, 117
6, 33000, Note_on_c, 9, 54, 0
6, 33180, Note_on_c, 9, 74, 93
6, 33240, Note_on_c, 9, 74, 0
6, 33240, Note_on_c, 9, 83, 100
6, 33480, Note_on_c, 9, 83, 0
6, 33720, Note_on_c, 9, 54, 121
6, 33900, Note_on_c, 9, 54, 0
6, 33900, Note_on_c, 9, 69, 96
6, 33930, Note_on_c, 9, 69, 0
6, 33930, Note_on_c, 9, 70, 89
6, 33960, Note_on_c, 9, 70, 0
6, 33960, Note_on_c, 9, 69, 98
6, 33990, Note_on_c, 9, 69, 0
6, 33990, Note_on_c, 9, 70, 91
6, 34020, Note_on_c, 9, 70, 0
6, 34020, Note_on_c, 9, 69, 97
6, 34050, Note_on_c, 9, 69, 0
6, 34050, Note_on_c, 9, 70, 100
6, 34080, Note_on_c, 9, 70, 0
6, 37980, Note_on_c, 9, 74, 90
6, 38040, Note_on_c, 9, 74, 0
6, 38040, Note_on_c, 9, 83, 87
6, 38220, Note_on_c, 9, 83, 0
6, 38520, Note_on_c, 9, 54, 117
6, 38760, Note_on_c, 9, 54, 0
6, 38940, Note_on_c, 9, 74, 93
6, 39000, Note_on_c, 9, 74, 0
6, 39000, Note_on_c, 9, 83, 100
6, 39240, Note_on_c, 9, 83, 0
6, 39480, Note_on_c, 9, 54, 121
6, 39660, Note_on_c, 9, 54, 0
6, 39660, Note_on_c, 9, 69, 96
6, 39690, Note_on_c, 9, 69, 0
6, 39690, Note_on_c, 9, 70, 89
6, 39720, Note_on_c, 9, 70, 0
6, 39720, Note_on_c, 9, 69, 98
6, 39750, Note_on_c, 9, 69, 0
6, 39750, Note_on_c, 9, 70, 91
6, 39780, Note_on_c, 9, 70, 0
6, 39780, Note_on_c, 9, 69, 97
6, 39810, Note_on_c, 9, 69, 0
6, 39810, Note_on_c, 9, 70, 100
6, 39840, Note_on_c, 9, 70, 0
6, 39900, Note_on_c, 9, 74, 90
6, 39960, Note_on_c, 9, 74, 0
6, 39960, Note_on_c, 9, 83, 87
6, 40140, Note_on_c, 9, 83, 0
6, 40440, Note_on_c, 9, 54, 117
6, 40680, Note_on_c, 9, 54, 0
6, 40860, Note_on_c, 9, 74, 93
6, 40920, Note_on_c, 9, 74, 0
6, 40920, Note_on_c, 9, 83, 100
6, 41160, Note_on_c, 9, 83, 0
6, 41400, Note_on_c, 9, 54, 121
6, 41580, Note_on_c, 9, 54, 0
6, 41580, Note_on_c, 9, 69, 96
6, 41610, Note_on_c, 9, 69, 0
6, 41610, Note_on_c, 9, 70, 89
6, 41640, Note_on_c, 9, 70, 0
6, 41640, Note_on_c, 9, 69, 98
6, 41670, Note_on_c, 9, 69, 0
6, 41670, Note_on_c, 9, 70, 91
6, 41700, Note_on_c, 9, 70, 0
6, 41700, Note_on_c, 9, 69, 97
6, 41730, Note_on_c, 9, 69, 0
6, 41730, Note_on_c, 9, 70, 100
6, 41760, Note_on_c, 9, 70, 0
6, 41880, Note_on_c, 9, 83, 87
6, 42060, Note_on_c, 9, 83, 0
6, 42360, Note_on_c, 9, 54, 117
6, 42600, Note_on_c, 9, 54, 0
6, 42780, Note_on_c, 9, 74, 93
6, 42840, Note_on_c, 9, 74, 0
6, 42840, Note_on_c, 9, 83, 100
6, 43080, Note_on_c, 9, 83, 0
6, 43320, Note_on_c, 9, 54, 121
6, 43500, Note_on_c, 9, 54, 0
6, 43500, Note_on_c, 9, 69, 96
6, 43530, Note_on_c, 9, 69, 0
6, 43530, Note_on_c, 9, 70, 89
6, 43560, Note_on_c, 9, 70, 0
6, 43560, Note_on_c, 9, 69, 98
6, 43590, Note_on_c, 9, 69, 0
6, 43590, Note_on_c, 9, 70, 91
6, 43620, Note_on_c, 9, 70, 0
6, 43620, Note_on_c, 9, 69, 97
6, 43650, Note_on_c, 9, 69, 0
6, 43650, Note_on_c, 9, 70, 100
6, 43680, Note_on_c, 9, 70, 0
6, 43740, Note_on_c, 9, 74, 90
6, 43800, Note_on_c, 9, 74, 0
6, 43800, Note_on_c, 9, 83, 87
6, 43980, Note_on_c, 9, 83, 0
6, 44280, Note_on_c, 9, 54, 117
6, 44520, Note_on_c, 9, 54, 0
6, 44700, Note_on_c, 9, 74, 93
6, 44760, Note_on_c, 9, 74, 0
6, 44760, Note_on_c, 9, 83, 100
6, 45000, Note_on_c, 9, 83, 0
6, 45240, Note_on_c, 9, 54, 121
6, 45420, Note_on_c, 9, 54, 0
6, 45420, Note_on_c, 9, 69, 96
6, 45450, Note_on_c, 9, 69, 0
6, 45450, Note_on_c, 9, 70, 89
6, 45480, Note_on_c, 9, 70, 0
6, 45480, Note_on_c, 9, 69, 98
6, 45510, Note_on_c, 9, 69, 0
6, 45510, Note_on_c, 9, 70, 91
6, 45540, Note_on_c, 9, 70, 0
6, 45540, Note_on_c, 9, 69, 97
6, 45570, Note_on_c, 9, 69, 0
6, 45570, Note_on_c, 9, 70, 100
6, 45600, Note_on_c, 9, 70, 0
6, 45660, Note_on_c, 9, 74, 90
6, 45720, Note_on_c, 9, 74, 0
6, 45720, Note_on_c, 9, 83, 87
6, 45900, Note_on_c, 9, 83, 0
6, 46200, Note_on_c, 9, 54, 117
6, 46440, Note_on_c, 9, 54, 0
6, 46620, Note_on_c, 9, 74, 93
6, 46680, Note_on_c, 9, 74, 0
6, 46680, Note_on_c, 9, 83, 100
6, 46920, Note_on_c, 9, 83, 0
6, 47160, Note_on_c, 9, 54, 121
6, 47340, Note_on_c, 9, 54, 0
6, 47340, Note_on_c, 9, 69, 96
6, 47370, Note_on_c, 9, 69, 0
6, 47370, Note_on_c, 9, 70, 89
6, 47400, Note_on_c, 9, 70, 0
6, 47400, Note_on_c, 9, 69, 98
6, 47430, Note_on_c, 9, 69, 0
6, 47430, Note_on_c, 9, 70, 91
6, 47460, Note_on_c, 9, 70, 0
6, 47460, Note_on_c, 9, 69, 97
6, 47490, Note_on_c, 9, 69, 0
6, 47490, Note_on_c, 9, 70, 100
6, 47520, Note_on_c, 9, 70, 0
6, 47580, Note_on_c, 9, 74, 90
6, 47640, Note_on_c, 9, 74, 0
6, 47640, Note_on_c, 9, 83, 87
6, 47820, Note_on_c, 9, 83, 0
6, 48120, Note_on_c, 9, 54, 117
6, 48360, Note_on_c, 9, 54, 0
6, 48540, Note_on_c, 9, 74, 93
6, 48600, Note_on_c, 9, 74, 0
6, 48600, Note_on_c, 9, 83, 100
6, 48840, Note_on_c, 9, 83, 0
6, 49080, Note_on_c, 9, 54, 121
6, 49260, Note_on_c, 9, 54, 0
6, 49260, Note_on_c, 9, 69, 113
6, 49290, Note_on_c, 9, 69, 0
6, 49290, Note_on_c, 9, 70, 112
6, 49320, Note_on_c, 9, 70, 0
6, 49320, Note_on_c, 9, 69, 111
6, 49350, Note_on_c, 9, 69, 0
6, 49350, Note_on_c, 9, 70, 109
6, 49380, Note_on_c, 9, 70, 0
6, 49380, Note_on_c, 9, 69, 108
6, 49410, Note_on_c, 9, 69, 0
6, 49410, Note_on_c, 9, 70, 107
6, 49440, Note_on_c, 9, 70, 0
6, 49560, Note_on_c, 9, 83, 100
6, 49740, Note_on_c, 9, 83, 0
6, 50040, Note_on_c, 9, 54, 79
6, 50280, Note_on_c, 9, 54, 0
6, 50460, Note_on_c, 9, 74, 60
6, 50520, Note_on_c, 9, 74, 0
6, 50520, Note_on_c, 9, 83, 57
6, 50760, Note_on_c, 9, 83, 0
6, 51000, Note_on_c, 9, 54, 36
6, 51180, Note_on_c, 9, 54, 0
6, 51180, Note_on_c, 9, 69, 27
6, 51210, Note_on_c, 9, 69, 0
6, 51210, Note_on_c, 9, 70, 26
6, 51240, Note_on_c, 9, 70, 0
6, 51240, Note_on_c, 9, 69, 25
6, 51270, Note_on_c, 9, 69, 0
6, 51270, Note_on_c, 9, 70, 23
6, 51300, Note_on_c, 9, 70, 0
6, 51300, Note_on_c, 9, 69, 22
6, 51330, Note_on_c, 9, 69, 0
6, 51330, Note_on_c, 9, 70, 21
6, 51360, Note_on_c, 9, 70, 0
6, 51360, End_track
7, 0, Start_track
7, 0, MIDI_port, 0
7, 0, Title_t, ""
7, 0, Program_c, 9, 0
7, 0, Control_c, 9, 7, 127
7, 2280, Note_on_c, 9, 81, 124
7, 2550, Note_on_c, 9, 81, 0
7, 3240, Note_on_c, 9, 81, 124
7, 3510, Note_on_c, 9, 81, 0
7, 4200, Note_on_c, 9, 81, 124
7, 4470, Note_on_c, 9, 81, 0
7, 5160, Note_on_c, 9, 81, 124
7, 5430, Note_on_c, 9, 81, 0
7, 6120, Note_on_c, 9, 81, 124
7, 6390, Note_on_c, 9, 81, 0
7, 7080, Note_on_c, 9, 81, 124
7, 7350, Note_on_c, 9, 81, 0
7, 8040, Note_on_c, 9, 81, 124
7, 8310, Note_on_c, 9, 81, 0
7, 9000, Note_on_c, 9, 81, 124
7, 9270, Note_on_c, 9, 81, 0
7, 9960, Note_on_c, 9, 81, 124
7, 10230, Note_on_c, 9, 81, 0
7, 10920, Note_on_c, 9, 81, 124
7, 11190, Note_on_c, 9, 81, 0
7, 11880, Note_on_c, 9, 81, 124
7, 12150, Note_on_c, 9, 81, 0
7, 12840, Note_on_c, 9, 81, 124
7, 13110, Note_on_c, 9, 81, 0
7, 13800, Note_on_c, 9, 81, 124
7, 14070, Note_on_c, 9, 81, 0
7, 14760, Note_on_c, 9, 81, 124
7, 15030, Note_on_c, 9, 81, 0
7, 15720, Note_on_c, 9, 81, 124
7, 15990, Note_on_c, 9, 81, 0
7, 16680, Note_on_c, 9, 81, 124
7, 16950, Note_on_c, 9, 81, 0
7, 17640, Note_on_c, 9, 81, 124
7, 17910, Note_on_c, 9, 81, 0
7, 18600, Note_on_c, 9, 81, 124
7, 18870, Note_on_c, 9, 81, 0
7, 19560, Note_on_c, 9, 81, 124
7, 19830, Note_on_c, 9, 81, 0
7, 20520, Note_on_c, 9, 81, 124
7, 20790, Note_on_c, 9, 81, 0
7, 21480, Note_on_c, 9, 81, 124
7, 21750, Note_on_c, 9, 81, 0
7, 22440, Note_on_c, 9, 81, 124
7, 22710, Note_on_c, 9, 81, 0
7, 23400, Note_on_c, 9, 81, 124
7, 23670, Note_on_c, 9, 81, 0
7, 24360, Note_on_c, 9, 81, 124
7, 24630, Note_on_c, 9, 81, 0
7, 25320, Note_on_c, 9, 81, 124
7, 25590, Note_on_c, 9, 81, 0
7, 26280, Note_on_c, 9, 81, 124
7, 26550, Note_on_c, 9, 81, 0
7, 27240, Note_on_c, 9, 81, 124
7, 27510, Note_on_c, 9, 81, 0
7, 28200, Note_on_c, 9, 81, 124
7, 28470, Note_on_c, 9, 81, 0
7, 29160, Note_on_c, 9, 81, 124
7, 29430, Note_on_c, 9, 81, 0
7, 30120, Note_on_c, 9, 81, 124
7, 30390, Note_on_c, 9, 81, 0
7, 31080, Note_on_c, 9, 81, 124
7, 31350, Note_on_c, 9, 81, 0
7, 32040, Note_on_c, 9, 81, 124
7, 32310, Note_on_c, 9, 81, 0
7, 33000, Note_on_c, 9, 81, 124
7, 33270, Note_on_c, 9, 81, 0
7, 33960, Note_on_c, 9, 81, 124
7, 34230, Note_on_c, 9, 81, 0
7, 38760, Note_on_c, 9, 81, 124
7, 39030, Note_on_c, 9, 81, 0
7, 39720, Note_on_c, 9, 81, 124
7, 39990, Note_on_c, 9, 81, 0
7, 40680, Note_on_c, 9, 81, 124
7, 40950, Note_on_c, 9, 81, 0
7, 41640, Note_on_c, 9, 81, 124
7, 41910, Note_on_c, 9, 81, 0
7, 42600, Note_on_c, 9, 81, 124
7, 42870, Note_on_c, 9, 81, 0
7, 43560, Note_on_c, 9, 81, 124
7, 43830, Note_on_c, 9, 81, 0
7, 44520, Note_on_c, 9, 81, 124
7, 44790, Note_on_c, 9, 81, 0
7, 45480, Note_on_c, 9, 81, 124
7, 45750, Note_on_c, 9, 81, 0
7, 46440, Note_on_c, 9, 81, 124
7, 46710, Note_on_c, 9, 81, 0
7, 47400, Note_on_c, 9, 81, 124
7, 47670, Note_on_c, 9, 81, 0
7, 48360, Note_on_c, 9, 81, 124
7, 48630, Note_on_c, 9, 81, 0
7, 49320, Note_on_c, 9, 81, 111
7, 49590, Note_on_c, 9, 81, 0
7, 50280, Note_on_c, 9, 81, 59
7, 50550, Note_on_c, 9, 81, 0
7, 51240, Note_on_c, 9, 81, 7
7, 51510, Note_on_c, 9, 81, 0
7, 51510, End_track
8, 0, Start_track
8, 0, MIDI_port, 0
8, 0, Title_t, ""
8, 0, Program_c, 9, 0
8, 0, Control_c, 9, 7, 127
8, 5220, Note_on_c, 9, 73, 116
8, 5250, Note_on_c, 9, 73, 0
8, 5280, Note_on_c, 9, 73, 116
8, 5310, Note_on_c, 9, 73, 0
8, 5310, Note_on_c, 9, 73, 121
8, 5340, Note_on_c, 9, 73, 0
8, 5340, Note_on_c, 9, 73, 113
8, 5370, Note_on_c, 9, 73, 0
8, 5400, Note_on_c, 9, 73, 120
8, 5430, Note_on_c, 9, 73, 0
8, 5460, Note_on_c, 9, 73, 116
8, 5490, Note_on_c, 9, 73, 0
8, 5520, Note_on_c, 9, 73, 120
8, 5550, Note_on_c, 9, 73, 0
8, 5580, Note_on_c, 9, 73, 108
8, 5610, Note_on_c, 9, 73, 0
8, 5640, Note_on_c, 9, 73, 116
8, 5670, Note_on_c, 9, 73, 0
8, 5700, Note_on_c, 9, 73, 116
8, 5730, Note_on_c, 9, 73, 0
8, 5730, Note_on_c, 9, 73, 117
8, 5760, Note_on_c, 9, 73, 0
8, 5760, Note_on_c, 9, 73, 113
8, 5790, Note_on_c, 9, 73, 0
8, 5790, Note_on_c, 9, 73, 113
8, 5820, Note_on_c, 9, 73, 0
8, 5820, Note_on_c, 9, 73, 110
8, 5850, Note_on_c, 9, 73, 0
8, 5880, Note_on_c, 9, 73, 105
8, 5910, Note_on_c, 9, 73, 0
8, 5940, Note_on_c, 9, 73, 112
8, 5970, Note_on_c, 9, 73, 0
8, 5970, Note_on_c, 9, 73, 113
8, 6000, Note_on_c, 9, 73, 0
8, 6000, Note_on_c, 9, 73, 116
8, 6030, Note_on_c, 9, 73, 0
8, 6060, Note_on_c, 9, 73, 116
8, 6090, Note_on_c, 9, 73, 0
8, 6090, Note_on_c, 9, 73, 112
8, 6120, Note_on_c, 9, 73, 0
8, 6270, Note_on_c, 9, 73, 113
8, 6300, Note_on_c, 9, 73, 0
8, 6300, Note_on_c, 9, 73, 116
8, 6330, Note_on_c, 9, 73, 0
8, 6360, Note_on_c, 9, 73, 113
8, 6390, Note_on_c, 9, 73, 0
8, 6420, Note_on_c, 9, 73, 116
8, 6450, Note_on_c, 9, 73, 0
8, 6480, Note_on_c, 9, 73, 112
8, 6510, Note_on_c, 9, 73, 0
8, 6540, Note_on_c, 9, 73, 117
8, 6570, Note_on_c, 9, 73, 0
8, 6600, Note_on_c, 9, 73, 113
8, 6630, Note_on_c, 9, 73, 0
8, 6660, Note_on_c, 9, 73, 117
8, 6690, Note_on_c, 9, 73, 0
8, 6690, Note_on_c, 9, 73, 112
8, 6720, Note_on_c, 9, 73, 0
8, 6720, Note_on_c, 9, 73, 113
8, 6750, Note_on_c, 9, 73, 0
8, 6750, Note_on_c, 9, 73, 117
8, 6780, Note_on_c, 9, 73, 0
8, 6780, Note_on_c, 9, 73, 116
8, 6810, Note_on_c, 9, 73, 0
8, 6840, Note_on_c, 9, 73, 117
8, 6870, Note_on_c, 9, 73, 0
8, 6900, Note_on_c, 9, 73, 113
8, 6930, Note_on_c, 9, 73, 0
8, 6960, Note_on_c, 9, 73, 120
8, 6990, Note_on_c, 9, 73, 0
8, 6990, Note_on_c, 9, 73, 117
8, 7020, Note_on_c, 9, 73, 0
8, 7020, Note_on_c, 9, 73, 113
8, 7050, Note_on_c, 9, 73, 0
8, 7050, Note_on_c, 9, 73, 117
8, 7080, Note_on_c, 9, 73, 0
8, 7140, Note_on_c, 9, 73, 124
8, 7170, Note_on_c, 9, 73, 0
8, 7170, Note_on_c, 9, 73, 113
8, 7200, Note_on_c, 9, 73, 0
8, 7200, Note_on_c, 9, 73, 120
8, 7230, Note_on_c, 9, 73, 0
8, 7230, Note_on_c, 9, 73, 117
8, 7260, Note_on_c, 9, 73, 0
8, 7260, Note_on_c, 9, 73, 120
8, 7290, Note_on_c, 9, 73, 0
8, 7320, Note_on_c, 9, 73, 121
8, 7350, Note_on_c, 9, 73, 0
8, 7380, Note_on_c, 9, 73, 116
8, 7410, Note_on_c, 9, 73, 0
8, 7440, Note_on_c, 9, 73, 121
8, 7470, Note_on_c, 9, 73, 0
8, 7500, Note_on_c, 9, 73, 113
8, 7530, Note_on_c, 9, 73, 0
8, 7560, Note_on_c, 9, 73, 116
8, 7590, Note_on_c, 9, 73, 0
8, 7620, Note_on_c, 9, 73, 104
8, 7650, Note_on_c, 9, 73, 0
8, 7650, Note_on_c, 9, 73, 105
8, 7680, Note_on_c, 9, 73, 0
8, 7680, Note_on_c, 9, 73, 110
8, 7710, Note_on_c, 9, 73, 0
8, 7710, Note_on_c, 9, 73, 117
8, 7740, Note_on_c, 9, 73, 0
8, 7740, Note_on_c, 9, 73, 116
8, 7770, Note_on_c, 9, 73, 0
8, 7800, Note_on_c, 9, 73, 116
8, 7830, Note_on_c, 9, 73, 0
8, 7860, Note_on_c, 9, 73, 113
8, 7890, Note_on_c, 9, 73, 0
8, 7920, Note_on_c, 9, 73, 121
8, 7950, Note_on_c, 9, 73, 0
8, 7980, Note_on_c, 9, 73, 104
8, 8010, Note_on_c, 9, 73, 0
8, 8100, Note_on_c, 9, 73, 112
8, 8130, Note_on_c, 9, 73, 0
8, 8130, Note_on_c, 9, 73, 112
8, 8160, Note_on_c, 9, 73, 0
8, 8160, Note_on_c, 9, 73, 113
8, 8190, Note_on_c, 9, 73, 0
8, 8190, Note_on_c, 9, 73, 113
8, 8220, Note_on_c, 9, 73, 0
8, 8220, Note_on_c, 9, 73, 117
8, 8250, Note_on_c, 9, 73, 0
8, 8280, Note_on_c, 9, 73, 117
8, 8310, Note_on_c, 9, 73, 0
8, 8340, Note_on_c, 9, 73, 112
8, 8370, Note_on_c, 9, 73, 0
8, 8400, Note_on_c, 9, 73, 121
8, 8430, Note_on_c, 9, 73, 0
8, 8460, Note_on_c, 9, 73, 112
8, 8490, Note_on_c, 9, 73, 0
8, 8520, Note_on_c, 9, 73, 121
8, 8550, Note_on_c, 9, 73, 0
8, 8580, Note_on_c, 9, 73, 104
8, 8610, Note_on_c, 9, 73, 0
8, 8610, Note_on_c, 9, 73, 113
8, 8640, Note_on_c, 9, 73, 0
8, 8640, Note_on_c, 9, 73, 112
8, 8670, Note_on_c, 9, 73, 0
8, 8670, Note_on_c, 9, 73, 120
8, 8700, Note_on_c, 9, 73, 0
8, 8700, Note_on_c, 9, 73, 110
8, 8730, Note_on_c, 9, 73, 0
8, 8760, Note_on_c, 9, 73, 113
8, 8790, Note_on_c, 9, 73, 0
8, 8820, Note_on_c, 9, 73, 108
8, 8850, Note_on_c, 9, 73, 0
8, 8880, Note_on_c, 9, 73, 116
8, 8910, Note_on_c, 9, 73, 0
8, 8940, Note_on_c, 9, 73, 113
8, 8970, Note_on_c, 9, 73, 0
8, 8970, Note_on_c, 9, 73, 117
8, 9000, Note_on_c, 9, 73, 0
8, 9060, Note_on_c, 9, 73, 116
8, 9090, Note_on_c, 9, 73, 0
8, 9120, Note_on_c, 9, 73, 116
8, 9150, Note_on_c, 9, 73, 0
8, 9150, Note_on_c, 9, 73, 121
8, 9180, Note_on_c, 9, 73, 0
8, 9180, Note_on_c, 9, 73, 113
8, 9210, Note_on_c, 9, 73, 0
8, 9240, Note_on_c, 9, 73, 120
8, 9270, Note_on_c, 9, 73, 0
8, 9300, Note_on_c, 9, 73, 116
8, 9330, Note_on_c, 9, 73, 0
8, 9360, Note_on_c, 9, 73, 120
8, 9390, Note_on_c, 9, 73, 0
8, 9420, Note_on_c, 9, 73, 108
8, 9450, Note_on_c, 9, 73, 0
8, 9480, Note_on_c, 9, 73, 116
8, 9510, Note_on_c, 9, 73, 0
8, 9540, Note_on_c, 9, 73, 116
8, 9570, Note_on_c, 9, 73, 0
8, 9570, Note_on_c, 9, 73, 117
8, 9600, Note_on_c, 9, 73, 0
8, 9600, Note_on_c, 9, 73, 113
8, 9630, Note_on_c, 9, 73, 0
8, 9630, Note_on_c, 9, 73, 113
8, 9660, Note_on_c, 9, 73, 0
8, 9660, Note_on_c, 9, 73, 110
8, 9690, Note_on_c, 9, 73, 0
8, 9720, Note_on_c, 9, 73, 105
8, 9750, Note_on_c, 9, 73, 0
8, 9780, Note_on_c, 9, 73, 112
8, 9810, Note_on_c, 9, 73, 0
8, 9810, Note_on_c, 9, 73, 113
8, 9840, Note_on_c, 9, 73, 0
8, 9840, Note_on_c, 9, 73, 116
8, 9870, Note_on_c, 9, 73, 0
8, 9900, Note_on_c, 9, 73, 116
8, 9930, Note_on_c, 9, 73, 0
8, 9930, Note_on_c, 9, 73, 112
8, 9960, Note_on_c, 9, 73, 0
8, 10110, Note_on_c, 9, 73, 113
8, 10140, Note_on_c, 9, 73, 0
8, 10140, Note_on_c, 9, 73, 116
8, 10170, Note_on_c, 9, 73, 0
8, 10200, Note_on_c, 9, 73, 113
8, 10230, Note_on_c, 9, 73, 0
8, 10260, Note_on_c, 9, 73, 116
8, 10290, Note_on_c, 9, 73, 0
8, 10320, Note_on_c, 9, 73, 112
8, 10350, Note_on_c, 9, 73, 0
8, 10380, Note_on_c, 9, 73, 117
8, 10410, Note_on_c, 9, 73, 0
8, 10440, Note_on_c, 9, 73, 113
8, 10470, Note_on_c, 9, 73, 0
8, 10500, Note_on_c, 9, 73, 117
8, 10530, Note_on_c, 9, 73, 0
8, 10530, Note_on_c, 9, 73, 112
8, 10560, Note_on_c, 9, 73, 0
8, 10560, Note_on_c, 9, 73, 113
8, 10590, Note_on_c, 9, 73, 0
8, 10590, Note_on_c, 9, 73, 117
8, 10620, Note_on_c, 9, 73, 0
8, 10620, Note_on_c, 9, 73, 116
8, 10650, Note_on_c, 9, 73, 0
8, 10680, Note_on_c, 9, 73, 117
8, 10710, Note_on_c, 9, 73, 0
8, 10740, Note_on_c, 9, 73, 113
8, 10770, Note_on_c, 9, 73, 0
8, 10800, Note_on_c, 9, 73, 120
8, 10830, Note_on_c, 9, 73, 0
8, 10830, Note_on_c, 9, 73, 117
8, 10860, Note_on_c, 9, 73, 0
8, 10860, Note_on_c, 9, 73, 113
8, 10890, Note_on_c, 9, 73, 0
8, 10890, Note_on_c, 9, 73, 117
8, 10920, Note_on_c, 9, 73, 0
8, 10980, Note_on_c, 9, 73, 124
8, 11010, Note_on_c, 9, 73, 0
8, 11010, Note_on_c, 9, 73, 113
8, 11040, Note_on_c, 9, 73, 0
8, 11040, Note_on_c, 9, 73, 120
8, 11070, Note_on_c, 9, 73, 0
8, 11070, Note_on_c, 9, 73, 117
8, 11100, Note_on_c, 9, 73, 0
8, 11100, Note_on_c, 9, 73, 120
8, 11130, Note_on_c, 9, 73, 0
8, 11160, Note_on_c, 9, 73, 121
8, 11190, Note_on_c, 9, 73, 0
8, 11220, Note_on_c, 9, 73, 116
8, 11250, Note_on_c, 9, 73, 0
8, 11280, Note_on_c, 9, 73, 121
8, 11310, Note_on_c, 9, 73, 0
8, 11340, Note_on_c, 9, 73, 113
8, 11370, Note_on_c, 9, 73, 0
8, 11400, Note_on_c, 9, 73, 116
8, 11430, Note_on_c, 9, 73, 0
8, 11460, Note_on_c, 9, 73, 104
8, 11490, Note_on_c, 9, 73, 0
8, 11490, Note_on_c, 9, 73, 105
8, 11520, Note_on_c, 9, 73, 0
8, 11520, Note_on_c, 9, 73, 110
8, 11550, Note_on_c, 9, 73, 0
8, 11550, Note_on_c, 9, 73, 117
8, 11580, Note_on_c, 9, 73, 0
8, 11580, Note_on_c, 9, 73, 116
8, 11610, Note_on_c, 9, 73, 0
8, 11640, Note_on_c, 9, 73, 116
8, 11670, Note_on_c, 9, 73, 0
8, 11700, Note_on_c, 9, 73, 113
8, 11730, Note_on_c, 9, 73, 0
8, 11760, Note_on_c, 9, 73, 121
8, 11790, Note_on_c, 9, 73, 0
8, 11820, Note_on_c, 9, 73, 104
8, 11850, Note_on_c, 9, 73, 0
8, 11940, Note_on_c, 9, 73, 112
8, 11970, Note_on_c, 9, 73, 0
8, 11970, Note_on_c, 9, 73, 112
8, 12000, Note_on_c, 9, 73, 0
8, 12000, Note_on_c, 9, 73, 113
8, 12030, Note_on_c, 9, 73, 0
8, 12030, Note_on_c, 9, 73, 113
8, 12060, Note_on_c, 9, 73, 0
8, 12060, Note_on_c, 9, 73, 117
8, 12090, Note_on_c, 9, 73, 0
8, 12120, Note_on_c, 9, 73, 117
8, 12150, Note_on_c, 9, 73, 0
8, 12180, Note_on_c, 9, 73, 112
8, 12210, Note_on_c, 9, 73, 0
8, 12240, Note_on_c, 9, 73, 121
8, 12270, Note_on_c, 9, 73, 0
8, 12300, Note_on_c, 9, 73, 112
8, 12330, Note_on_c, 9, 73, 0
8, 12360, Note_on_c, 9, 73, 121
8, 12390, Note_on_c, 9, 73, 0
8, 12420, Note_on_c, 9, 73, 104
8, 12450, Note_on_c, 9, 73, 0
8, 12450, Note_on_c, 9, 73, 113
8, 12480, Note_on_c, 9, 73, 0
8, 12480, Note_on_c, 9, 73, 112
8, 12510, Note_on_c, 9, 73, 0
8, 12510, Note_on_c, 9, 73, 120
8, 12540, Note_on_c, 9, 73, 0
8, 12540, Note_on_c, 9, 73, 110
8, 12570, Note_on_c, 9, 73, 0
8, 12600, Note_on_c, 9, 73, 113
8, 12630, Note_on_c, 9, 73, 0
8, 12660, Note_on_c, 9, 73, 108
8, 12690, Note_on_c, 9, 73, 0
8, 12720, Note_on_c, 9, 73, 116
8, 12750, Note_on_c, 9, 73, 0
8, 12780, Note_on_c, 9, 73, 113
8, 12810, Note_on_c, 9, 73, 0
8, 12810, Note_on_c, 9, 73, 117
8, 12840, Note_on_c, 9, 73, 0
8, 12960, Note_on_c, 9, 73, 120
8, 12990, Note_on_c, 9, 73, 0
8, 12990, Note_on_c, 9, 73, 117
8, 13020, Note_on_c, 9, 73, 0
8, 13020, Note_on_c, 9, 73, 120
8, 13050, Note_on_c, 9, 73, 0
8, 13080, Note_on_c, 9, 73, 121
8, 13110, Note_on_c, 9, 73, 0
8, 13140, Note_on_c, 9, 73, 116
8, 13170, Note_on_c, 9, 73, 0
8, 13200, Note_on_c, 9, 73, 121
8, 13230, Note_on_c, 9, 73, 0
8, 13260, Note_on_c, 9, 73, 113
8, 13290, Note_on_c, 9, 73, 0
8, 13320, Note_on_c, 9, 73, 116
8, 13350, Note_on_c, 9, 73, 0
8, 13380, Note_on_c, 9, 73, 104
8, 13410, Note_on_c, 9, 73, 0
8, 13410, Note_on_c, 9, 73, 105
8, 13440, Note_on_c, 9, 73, 0
8, 13440, Note_on_c, 9, 73, 110
8, 13470, Note_on_c, 9, 73, 0
8, 13470, Note_on_c, 9, 73, 117
8, 13500, Note_on_c, 9, 73, 0
8, 13500, Note_on_c, 9, 73, 116
8, 13530, Note_on_c, 9, 73, 0
8, 13560, Note_on_c, 9, 73, 116
8, 13590, Note_on_c, 9, 73, 0
8, 13620, Note_on_c, 9, 73, 113
8, 13650, Note_on_c, 9, 73, 0
8, 13680, Note_on_c, 9, 73, 121
8, 13710, Note_on_c, 9, 73, 0
8, 13740, Note_on_c, 9, 73, 104
8, 13770, Note_on_c, 9, 73, 0
8, 13860, Note_on_c, 9, 73, 112
8, 13890, Note_on_c, 9, 73, 0
8, 13890, Note_on_c, 9, 73, 112
8, 13920, Note_on_c, 9, 73, 0
8, 13920, Note_on_c, 9, 73, 113
8, 13950, Note_on_c, 9, 73, 0
8, 13950, Note_on_c, 9, 73, 113
8, 13980, Note_on_c, 9, 73, 0
8, 13980, Note_on_c, 9, 73, 117
8, 14010, Note_on_c, 9, 73, 0
8, 14040, Note_on_c, 9, 73, 117
8, 14070, Note_on_c, 9, 73, 0
8, 14100, Note_on_c, 9, 73, 112
8, 14130, Note_on_c, 9, 73, 0
8, 14160, Note_on_c, 9, 73, 121
8, 14190, Note_on_c, 9, 73, 0
8, 14220, Note_on_c, 9, 73, 112
8, 14250, Note_on_c, 9, 73, 0
8, 14280, Note_on_c, 9, 73, 121
8, 14310, Note_on_c, 9, 73, 0
8, 14340, Note_on_c, 9, 73, 104
8, 14370, Note_on_c, 9, 73, 0
8, 14370, Note_on_c, 9, 73, 113
8, 14400, Note_on_c, 9, 73, 0
8, 14400, Note_on_c, 9, 73, 112
8, 14430, Note_on_c, 9, 73, 0
8, 14430, Note_on_c, 9, 73, 120
8, 14460, Note_on_c, 9, 73, 0
8, 14460, Note_on_c, 9, 73, 110
8, 14490, Note_on_c, 9, 73, 0
8, 14520, Note_on_c, 9, 73, 113
8, 14550, Note_on_c, 9, 73, 0
8, 14580, Note_on_c, 9, 73, 108
8, 14610, Note_on_c, 9, 73, 0
8, 14640, Note_on_c, 9, 73, 116
8, 14670, Note_on_c, 9, 73, 0
8, 14700, Note_on_c, 9, 73, 113
8, 14730, Note_on_c, 9, 73, 0
8, 14730, Note_on_c, 9, 73, 117
8, 14760, Note_on_c, 9, 73, 0
8, 14880, Note_on_c, 9, 73, 120
8, 14910, Note_on_c, 9, 73, 0
8, 14910, Note_on_c, 9, 73, 117
8, 14940, Note_on_c, 9, 73, 0
8, 14940, Note_on_c, 9, 73, 120
8, 14970, Note_on_c, 9, 73, 0
8, 15000, Note_on_c, 9, 73, 121
8, 15030, Note_on_c, 9, 73, 0
8, 15060, Note_on_c, 9, 73, 116
8, 15090, Note_on_c, 9, 73, 0
8, 15120, Note_on_c, 9, 73, 121
8, 15150, Note_on_c, 9, 73, 0
8, 15180, Note_on_c, 9, 73, 113
8, 15210, Note_on_c, 9, 73, 0
8, 15240, Note_on_c, 9, 73, 116
8, 15270, Note_on_c, 9, 73, 0
8, 15300, Note_on_c, 9, 73, 104
8, 15330, Note_on_c, 9, 73, 0
8, 15330, Note_on_c, 9, 73, 105
8, 15360, Note_on_c, 9, 73, 0
8, 15360, Note_on_c, 9, 73, 110
8, 15390, Note_on_c, 9, 73, 0
8, 15390, Note_on_c, 9, 73, 117
8, 15420, Note_on_c, 9, 73, 0
8, 15420, Note_on_c, 9, 73, 116
8, 15450, Note_on_c, 9, 73, 0
8, 15480, Note_on_c, 9, 73, 116
8, 15510, Note_on_c, 9, 73, 0
8, 15540, Note_on_c, 9, 73, 113
8, 15570, Note_on_c, 9, 73, 0
8, 15600, Note_on_c, 9, 73, 121
8, 15630, Note_on_c, 9, 73, 0
8, 15660, Note_on_c, 9, 73, 104
8, 15690, Note_on_c, 9, 73, 0
8, 15780, Note_on_c, 9, 73, 112
8, 15810, Note_on_c, 9, 73, 0
8, 15810, Note_on_c, 9, 73, 112
8, 15840, Note_on_c, 9, 73, 0
8, 15840, Note_on_c, 9, 73, 113
8, 15870, Note_on_c, 9, 73, 0
8, 15870, Note_on_c, 9, 73, 113
8, 15900, Note_on_c, 9, 73, 0
8, 15900, Note_on_c, 9, 73, 117
8, 15930, Note_on_c, 9, 73, 0
8, 15960, Note_on_c, 9, 73, 117
8, 15990, Note_on_c, 9, 73, 0
8, 16020, Note_on_c, 9, 73, 112
8, 16050, Note_on_c, 9, 73, 0
8, 16080, Note_on_c, 9, 73, 121
8, 16110, Note_on_c, 9, 73, 0
8, 16140, Note_on_c, 9, 73, 112
8, 16170, Note_on_c, 9, 73, 0
8, 16200, Note_on_c, 9, 73, 121
8, 16230, Note_on_c, 9, 73, 0
8, 16260, Note_on_c, 9, 73, 104
8, 16290, Note_on_c, 9, 73, 0
8, 16290, Note_on_c, 9, 73, 113
8, 16320, Note_on_c, 9, 73, 0
8, 16320, Note_on_c, 9, 73, 112
8, 16350, Note_on_c, 9, 73, 0
8, 16350, Note_on_c, 9, 73, 120
8, 16380, Note_on_c, 9, 73, 0
8, 16380, Note_on_c, 9, 73, 110
8, 16410, Note_on_c, 9, 73, 0
8, 16440, Note_on_c, 9, 73, 113
8, 16470, Note_on_c, 9, 73, 0
8, 16500, Note_on_c, 9, 73, 108
8, 16530, Note_on_c, 9, 73, 0
8, 16560, Note_on_c, 9, 73, 116
8, 16590, Note_on_c, 9, 73, 0
8, 16620, Note_on_c, 9, 73, 113
8, 16650, Note_on_c, 9, 73, 0
8, 16650, Note_on_c, 9, 73, 117
8, 16680, Note_on_c, 9, 73, 0
8, 16800, Note_on_c, 9, 73, 120
8, 16830, Note_on_c, 9, 73, 0
8, 16830, Note_on_c, 9, 73, 117
8, 16860, Note_on_c, 9, 73, 0
8, 16860, Note_on_c, 9, 73, 120
8, 16890, Note_on_c, 9, 73, 0
8, 16920, Note_on_c, 9, 73, 121
8, 16950, Note_on_c, 9, 73, 0
8, 16980, Note_on_c, 9, 73, 116
8, 17010, Note_on_c, 9, 73, 0
8, 17040, Note_on_c, 9, 73, 121
8, 17070, Note_on_c, 9, 73, 0
8, 17100, Note_on_c, 9, 73, 113
8, 17130, Note_on_c, 9, 73, 0
8, 17160, Note_on_c, 9, 73, 116
8, 17190, Note_on_c, 9, 73, 0
8, 17220, Note_on_c, 9, 73, 104
8, 17250, Note_on_c, 9, 73, 0
8, 17250, Note_on_c, 9, 73, 105
8, 17280, Note_on_c, 9, 73, 0
8, 17280, Note_on_c, 9, 73, 110
8, 17310, Note_on_c, 9, 73, 0
8, 17310, Note_on_c, 9, 73, 117
8, 17340, Note_on_c, 9, 73, 0
8, 17340, Note_on_c, 9, 73, 116
8, 17370, Note_on_c, 9, 73, 0
8, 17400, Note_on_c, 9, 73, 116
8, 17430, Note_on_c, 9, 73, 0
8, 17460, Note_on_c, 9, 73, 113
8, 17490, Note_on_c, 9, 73, 0
8, 17520, Note_on_c, 9, 73, 121
8, 17550, Note_on_c, 9, 73, 0
8, 17580, Note_on_c, 9, 73, 104
8, 17610, Note_on_c, 9, 73, 0
8, 17700, Note_on_c, 9, 73, 112
8, 17730, Note_on_c, 9, 73, 0
8, 17730, Note_on_c, 9, 73, 112
8, 17760, Note_on_c, 9, 73, 0
8, 17760, Note_on_c, 9, 73, 113
8, 17790, Note_on_c, 9, 73, 0
8, 17790, Note_on_c, 9, 73, 113
8, 17820, Note_on_c, 9, 73, 0
8, 17820, Note_on_c, 9, 73, 117
8, 17850, Note_on_c, 9, 73, 0
8, 17880, Note_on_c, 9, 73, 117
8, 17910, Note_on_c, 9, 73, 0
8, 17940, Note_on_c, 9, 73, 112
8, 17970, Note_on_c, 9, 73, 0
8, 18000, Note_on_c, 9, 73, 121
8, 18030, Note_on_c, 9, 73, 0
8, 18060, Note_on_c, 9, 73, 112
8, 18090, Note_on_c, 9, 73, 0
8, 18120, Note_on_c, 9, 73, 121
8, 18150, Note_on_c, 9, 73, 0
8, 18180, Note_on_c, 9, 73, 104
8, 18210, Note_on_c, 9, 73, 0
8, 18210, Note_on_c, 9, 73, 113
8, 18240, Note_on_c, 9, 73, 0
8, 18240, Note_on_c, 9, 73, 112
8, 18270, Note_on_c, 9, 73, 0
8, 18270, Note_on_c, 9, 73, 120
8, 18300, Note_on_c, 9, 73, 0
8, 18300, Note_on_c, 9, 73, 110
8, 18330, Note_on_c, 9, 73, 0
8, 18360, Note_on_c, 9, 73, 113
8, 18390, Note_on_c, 9, 73, 0
8, 18420, Note_on_c, 9, 73, 108
8, 18450, Note_on_c, 9, 73, 0
8, 18480, Note_on_c, 9, 73, 116
8, 18510, Note_on_c, 9, 73, 0
8, 18540, Note_on_c, 9, 73, 113
8, 18570, Note_on_c, 9, 73, 0
8, 18570, Note_on_c, 9, 73, 117
8, 18600, Note_on_c, 9, 73, 0
8, 18840, Note_on_c, 9, 73, 121
8, 18870, Note_on_c, 9, 73, 0
8, 18900, Note_on_c, 9, 73, 116
8, 18930, Note_on_c, 9, 73, 0
8, 18960, Note_on_c, 9, 73, 121
8, 18990, Note_on_c, 9, 73, 0
8, 19020, Note_on_c, 9, 73, 113
8, 19050, Note_on_c, 9, 73, 0
8, 19080, Note_on_c, 9, 73, 116
8, 19110, Note_on_c, 9, 73, 0
8, 19140, Note_on_c, 9, 73, 104
8, 19170, Note_on_c, 9, 73, 0
8, 19170, Note_on_c, 9, 73, 105
8, 19200, Note_on_c, 9, 73, 0
8, 19200, Note_on_c, 9, 73, 110
8, 19230, Note_on_c, 9, 73, 0
8, 19230, Note_on_c, 9, 73, 117
8, 19260, Note_on_c, 9, 73, 0
8, 19260, Note_on_c, 9, 73, 116
8, 19290, Note_on_c, 9, 73, 0
8, 19320, Note_on_c, 9, 73, 116
8, 19350, Note_on_c, 9, 73, 0
8, 19380, Note_on_c, 9, 73, 113
8, 19410, Note_on_c, 9, 73, 0
8, 19440, Note_on_c, 9, 73, 121
8, 19470, Note_on_c, 9, 73, 0
8, 19500, Note_on_c, 9, 73, 104
8, 19530, Note_on_c, 9, 73, 0
8, 19620, Note_on_c, 9, 73, 112
8, 19650, Note_on_c, 9, 73, 0
8, 19650, Note_on_c, 9, 73, 112
8, 19680, Note_on_c, 9, 73, 0
8, 19680, Note_on_c, 9, 73, 113
8, 19710, Note_on_c, 9, 73, 0
8, 19710, Note_on_c, 9, 73, 113
8, 19740, Note_on_c, 9, 73, 0
8, 19740, Note_on_c, 9, 73, 117
8, 19770, Note_on_c, 9, 73, 0
8, 19800, Note_on_c, 9, 73, 117
8, 19830, Note_on_c, 9, 73, 0
8, 19860, Note_on_c, 9, 73, 112
8, 19890, Note_on_c, 9, 73, 0
8, 19920, Note_on_c, 9, 73, 121
8, 19950, Note_on_c, 9, 73, 0
8, 19980, Note_on_c, 9, 73, 112
8, 20010, Note_on_c, 9, 73, 0
8, 20040, Note_on_c, 9, 73, 121
8, 20070, Note_on_c, 9, 73, 0
8, 20100, Note_on_c, 9, 73, 104
8, 20130, Note_on_c, 9, 73, 0
8, 20130, Note_on_c, 9, 73, 113
8, 20160, Note_on_c, 9, 73, 0
8, 20160, Note_on_c, 9, 73, 112
8, 20190, Note_on_c, 9, 73, 0
8, 20190, Note_on_c, 9, 73, 120
8, 20220, Note_on_c, 9, 73, 0
8, 20220, Note_on_c, 9, 73, 110
8, 20250, Note_on_c, 9, 73, 0
8, 20280, Note_on_c, 9, 73, 113
8, 20310, Note_on_c, 9, 73, 0
8, 20340, Note_on_c, 9, 73, 108
8, 20370, Note_on_c, 9, 73, 0
8, 20400, Note_on_c, 9, 73, 116
8, 20430, Note_on_c, 9, 73, 0
8, 20460, Note_on_c, 9, 73, 113
8, 20490, Note_on_c, 9, 73, 0
8, 20490, Note_on_c, 9, 73, 117
8, 20520, Note_on_c, 9, 73, 0
8, 20640, Note_on_c, 9, 73, 120
8, 20670, Note_on_c, 9, 73, 0
8, 20670, Note_on_c, 9, 73, 117
8, 20700, Note_on_c, 9, 73, 0
8, 20700, Note_on_c, 9, 73, 120
8, 20730, Note_on_c, 9, 73, 0
8, 20820, Note_on_c, 9, 73, 116
8, 20850, Note_on_c, 9, 73, 0
8, 21000, Note_on_c, 9, 73, 116
8, 21030, Note_on_c, 9, 73, 0
8, 21060, Note_on_c, 9, 73, 104
8, 21090, Note_on_c, 9, 73, 0
8, 21090, Note_on_c, 9, 73, 105
8, 21120, Note_on_c, 9, 73, 0
8, 21120, Note_on_c, 9, 73, 110
8, 21150, Note_on_c, 9, 73, 0
8, 21150, Note_on_c, 9, 73, 117
8, 21180, Note_on_c, 9, 73, 0
8, 21180, Note_on_c, 9, 73, 116
8, 21210, Note_on_c, 9, 73, 0
8, 21240, Note_on_c, 9, 73, 116
8, 21270, Note_on_c, 9, 73, 0
8, 21300, Note_on_c, 9, 73, 113
8, 21330, Note_on_c, 9, 73, 0
8, 21360, Note_on_c, 9, 73, 121
8, 21390, Note_on_c, 9, 73, 0
8, 21420, Note_on_c, 9, 73, 104
8, 21450, Note_on_c, 9, 73, 0
8, 21540, Note_on_c, 9, 73, 112
8, 21570, Note_on_c, 9, 73, 0
8, 21570, Note_on_c, 9, 73, 112
8, 21600, Note_on_c, 9, 73, 0
8, 21600, Note_on_c, 9, 73, 120
8, 21630, Note_on_c, 9, 73, 0
8, 21630, Note_on_c, 9, 73, 117
8, 21660, Note_on_c, 9, 73, 0
8, 21660, Note_on_c, 9, 73, 120
8, 21690, Note_on_c, 9, 73, 0
8, 21780, Note_on_c, 9, 73, 116
8, 21810, Note_on_c, 9, 73, 0
8, 21960, Note_on_c, 9, 73, 116
8, 21990, Note_on_c, 9, 73, 0
8, 22020, Note_on_c, 9, 73, 104
8, 22050, Note_on_c, 9, 73, 0
8, 22050, Note_on_c, 9, 73, 105
8, 22080, Note_on_c, 9, 73, 0
8, 22080, Note_on_c, 9, 73, 110
8, 22110, Note_on_c, 9, 73, 0
8, 22110, Note_on_c, 9, 73, 117
8, 22140, Note_on_c, 9, 73, 0
8, 22140, Note_on_c, 9, 73, 116
8, 22170, Note_on_c, 9, 73, 0
8, 22200, Note_on_c, 9, 73, 116
8, 22230, Note_on_c, 9, 73, 0
8, 22260, Note_on_c, 9, 73, 113
8, 22290, Note_on_c, 9, 73, 0
8, 22320, Note_on_c, 9, 73, 121
8, 22350, Note_on_c, 9, 73, 0
8, 22380, Note_on_c, 9, 73, 104
8, 22410, Note_on_c, 9, 73, 0
8, 22500, Note_on_c, 9, 73, 112
8, 22530, Note_on_c, 9, 73, 0
8, 22530, Note_on_c, 9, 73, 112
8, 22560, Note_on_c, 9, 73, 0
8, 22560, Note_on_c, 9, 73, 120
8, 22590, Note_on_c, 9, 73, 0
8, 22590, Note_on_c, 9, 73, 117
8, 22620, Note_on_c, 9, 73, 0
8, 22620, Note_on_c, 9, 73, 120
8, 22650, Note_on_c, 9, 73, 0
8, 22680, Note_on_c, 9, 73, 121
8, 22710, Note_on_c, 9, 73, 0
8, 22740, Note_on_c, 9, 73, 116
8, 22770, Note_on_c, 9, 73, 0
8, 22800, Note_on_c, 9, 73, 121
8, 22830, Note_on_c, 9, 73, 0
8, 22860, Note_on_c, 9, 73, 113
8, 22890, Note_on_c, 9, 73, 0
8, 22920, Note_on_c, 9, 73, 116
8, 22950, Note_on_c, 9, 73, 0
8, 22980, Note_on_c, 9, 73, 104
8, 23010, Note_on_c, 9, 73, 0
8, 23010, Note_on_c, 9, 73, 105
8, 23040, Note_on_c, 9, 73, 0
8, 23040, Note_on_c, 9, 73, 110
8, 23070, Note_on_c, 9, 73, 0
8, 23070, Note_on_c, 9, 73, 117
8, 23100, Note_on_c, 9, 73, 0
8, 23100, Note_on_c, 9, 73, 116
8, 23130, Note_on_c, 9, 73, 0
8, 23160, Note_on_c, 9, 73, 116
8, 23190, Note_on_c, 9, 73, 0
8, 23220, Note_on_c, 9, 73, 113
8, 23250, Note_on_c, 9, 73, 0
8, 23280, Note_on_c, 9, 73, 121
8, 23310, Note_on_c, 9, 73, 0
8, 23340, Note_on_c, 9, 73, 104
8, 23370, Note_on_c, 9, 73, 0
8, 23460, Note_on_c, 9, 73, 112
8, 23490, Note_on_c, 9, 73, 0
8, 23490, Note_on_c, 9, 73, 112
8, 23520, Note_on_c, 9, 73, 0
8, 23520, Note_on_c, 9, 73, 113
8, 23550, Note_on_c, 9, 73, 0
8, 23550, Note_on_c, 9, 73, 113
8, 23580, Note_on_c, 9, 73, 0
8, 23580, Note_on_c, 9, 73, 117
8, 23610, Note_on_c, 9, 73, 0
8, 23640, Note_on_c, 9, 73, 117
8, 23670, Note_on_c, 9, 73, 0
8, 23700, Note_on_c, 9, 73, 112
8, 23730, Note_on_c, 9, 73, 0
8, 23760, Note_on_c, 9, 73, 121
8, 23790, Note_on_c, 9, 73, 0
8, 23820, Note_on_c, 9, 73, 112
8, 23850, Note_on_c, 9, 73, 0
8, 23880, Note_on_c, 9, 73, 121
8, 23910, Note_on_c, 9, 73, 0
8, 23940, Note_on_c, 9, 73, 104
8, 23970, Note_on_c, 9, 73, 0
8, 23970, Note_on_c, 9, 73, 113
8, 24000, Note_on_c, 9, 73, 0
8, 24000, Note_on_c, 9, 73, 112
8, 24030, Note_on_c, 9, 73, 0
8, 24030, Note_on_c, 9, 73, 120
8, 24060, Note_on_c, 9, 73, 0
8, 24060, Note_on_c, 9, 73, 110
8, 24090, Note_on_c, 9, 73, 0
8, 24120, Note_on_c, 9, 73, 113
8, 24150, Note_on_c, 9, 73, 0
8, 24180, Note_on_c, 9, 73, 108
8, 24210, Note_on_c, 9, 73, 0
8, 24240, Note_on_c, 9, 73, 116
8, 24270, Note_on_c, 9, 73, 0
8, 24300, Note_on_c, 9, 73, 113
8, 24330, Note_on_c, 9, 73, 0
8, 24330, Note_on_c, 9, 73, 117
8, 24360, Note_on_c, 9, 73, 0
8, 24480, Note_on_c, 9, 73, 120
8, 24510, Note_on_c, 9, 73, 0
8, 24510, Note_on_c, 9, 73, 117
8, 24540, Note_on_c, 9, 73, 0
8, 24540, Note_on_c, 9, 73, 120
8, 24570, Note_on_c, 9, 73, 0
8, 24600, Note_on_c, 9, 73, 121
8, 24630, Note_on_c, 9, 73, 0
8, 24660, Note_on_c, 9, 73, 116
8, 24690, Note_on_c, 9, 73, 0
8, 24720, Note_on_c, 9, 73, 121
8, 24750, Note_on_c, 9, 73, 0
8, 24780, Note_on_c, 9, 73, 113
8, 24810, Note_on_c, 9, 73, 0
8, 24840, Note_on_c, 9, 73, 116
8, 24870, Note_on_c, 9, 73, 0
8, 24900, Note_on_c, 9, 73, 104
8, 24930, Note_on_c, 9, 73, 0
8, 24930, Note_on_c, 9, 73, 105
8, 24960, Note_on_c, 9, 73, 0
8, 24960, Note_on_c, 9, 73, 110
8, 24990, Note_on_c, 9, 73, 0
8, 24990, Note_on_c, 9, 73, 117
8, 25020, Note_on_c, 9, 73, 0
8, 25020, Note_on_c, 9, 73, 116
8, 25050, Note_on_c, 9, 73, 0
8, 25080, Note_on_c, 9, 73, 116
8, 25110, Note_on_c, 9, 73, 0
8, 25140, Note_on_c, 9, 73, 113
8, 25170, Note_on_c, 9, 73, 0
8, 25200, Note_on_c, 9, 73, 121
8, 25230, Note_on_c, 9, 73, 0
8, 25260, Note_on_c, 9, 73, 104
8, 25290, Note_on_c, 9, 73, 0
8, 25380, Note_on_c, 9, 73, 112
8, 25410, Note_on_c, 9, 73, 0
8, 25410, Note_on_c, 9, 73, 112
8, 25440, Note_on_c, 9, 73, 0
8, 25440, Note_on_c, 9, 73, 113
8, 25470, Note_on_c, 9, 73, 0
8, 25470, Note_on_c, 9, 73, 113
8, 25500, Note_on_c, 9, 73, 0
8, 25500, Note_on_c, 9, 73, 117
8, 25530, Note_on_c, 9, 73, 0
8, 25560, Note_on_c, 9, 73, 117
8, 25590, Note_on_c, 9, 73, 0
8, 25620, Note_on_c, 9, 73, 112
8, 25650, Note_on_c, 9, 73, 0
8, 25680, Note_on_c, 9, 73, 121
8, 25710, Note_on_c, 9, 73, 0
8, 25740, Note_on_c, 9, 73, 112
8, 25770, Note_on_c, 9, 73, 0
8, 25800, Note_on_c, 9, 73, 121
8, 25830, Note_on_c, 9, 73, 0
8, 25860, Note_on_c, 9, 73, 104
8, 25890, Note_on_c, 9, 73, 0
8, 25890, Note_on_c, 9, 73, 113
8, 25920, Note_on_c, 9, 73, 0
8, 25920, Note_on_c, 9, 73, 112
8, 25950, Note_on_c, 9, 73, 0
8, 25950, Note_on_c, 9, 73, 120
8, 25980, Note_on_c, 9, 73, 0
8, 25980, Note_on_c, 9, 73, 110
8, 26010, Note_on_c, 9, 73, 0
8, 26040, Note_on_c, 9, 73, 113
8, 26070, Note_on_c, 9, 73, 0
8, 26100, Note_on_c, 9, 73, 108
8, 26130, Note_on_c, 9, 73, 0
8, 26160, Note_on_c, 9, 73, 116
8, 26190, Note_on_c, 9, 73, 0
8, 26220, Note_on_c, 9, 73, 113
8, 26250, Note_on_c, 9, 73, 0
8, 26250, Note_on_c, 9, 73, 117
8, 26280, Note_on_c, 9, 73, 0
8, 26400, Note_on_c, 9, 73, 120
8, 26430, Note_on_c, 9, 73, 0
8, 26430, Note_on_c, 9, 73, 117
8, 26460, Note_on_c, 9, 73, 0
8, 26460, Note_on_c, 9, 73, 120
8, 26490, Note_on_c, 9, 73, 0
8, 26520, Note_on_c, 9, 73, 121
8, 26550, Note_on_c, 9, 73, 0
8, 26580, Note_on_c, 9, 73, 116
8, 26610, Note_on_c, 9, 73, 0
8, 26640, Note_on_c, 9, 73, 121
8, 26670, Note_on_c, 9, 73, 0
8, 26700, Note_on_c, 9, 73, 113
8, 26730, Note_on_c, 9, 73, 0
8, 26760, Note_on_c, 9, 73, 116
8, 26790, Note_on_c, 9, 73, 0
8, 26820, Note_on_c, 9, 73, 104
8, 26850, Note_on_c, 9, 73, 0
8, 26850, Note_on_c, 9, 73, 105
8, 26880, Note_on_c, 9, 73, 0
8, 26880, Note_on_c, 9, 73, 110
8, 26910, Note_on_c, 9, 73, 0
8, 26910, Note_on_c, 9, 73, 117
8, 26940, Note_on_c, 9, 73, 0
8, 26940, Note_on_c, 9, 73, 116
8, 26970, Note_on_c, 9, 73, 0
8, 27000, Note_on_c, 9, 73, 116
8, 27030, Note_on_c, 9, 73, 0
8, 27060, Note_on_c, 9, 73, 113
8, 27090, Note_on_c, 9, 73, 0
8, 27120, Note_on_c, 9, 73, 121
8, 27150, Note_on_c, 9, 73, 0
8, 27180, Note_on_c, 9, 73, 104
8, 27210, Note_on_c, 9, 73, 0
8, 27300, Note_on_c, 9, 73, 112
8, 27330, Note_on_c, 9, 73, 0
8, 27330, Note_on_c, 9, 73, 112
8, 27360, Note_on_c, 9, 73, 0
8, 27360, Note_on_c, 9, 73, 113
8, 27390, Note_on_c, 9, 73, 0
8, 27390, Note_on_c, 9, 73, 113
8, 27420, Note_on_c, 9, 73, 0
8, 27420, Note_on_c, 9, 73, 117
8, 27450, Note_on_c, 9, 73, 0
8, 27480, Note_on_c, 9, 73, 117
8, 27510, Note_on_c, 9, 73, 0
8, 27540, Note_on_c, 9, 73, 112
8, 27570, Note_on_c, 9, 73, 0
8, 27600, Note_on_c, 9, 73, 121
8, 27630, Note_on_c, 9, 73, 0
8, 27660, Note_on_c, 9, 73, 112
8, 27690, Note_on_c, 9, 73, 0
8, 27720, Note_on_c, 9, 73, 121
8, 27750, Note_on_c, 9, 73, 0
8, 27780, Note_on_c, 9, 73, 104
8, 27810, Note_on_c, 9, 73, 0
8, 27810, Note_on_c, 9, 73, 113
8, 27840, Note_on_c, 9, 73, 0
8, 27840, Note_on_c, 9, 73, 112
8, 27870, Note_on_c, 9, 73, 0
8, 27870, Note_on_c, 9, 73, 120
8, 27900, Note_on_c, 9, 73, 0
8, 27900, Note_on_c, 9, 73, 110
8, 27930, Note_on_c, 9, 73, 0
8, 27960, Note_on_c, 9, 73, 113
8, 27990, Note_on_c, 9, 73, 0
8, 28020, Note_on_c, 9, 73, 108
8, 28050, Note_on_c, 9, 73, 0
8, 28080, Note_on_c, 9, 73, 116
8, 28110, Note_on_c, 9, 73, 0
8, 28140, Note_on_c, 9, 73, 113
8, 28170, Note_on_c, 9, 73, 0
8, 28170, Note_on_c, 9, 73, 117
8, 28200, Note_on_c, 9, 73, 0
8, 28320, Note_on_c, 9, 73, 120
8, 28350, Note_on_c, 9, 73, 0
8, 28350, Note_on_c, 9, 73, 117
8, 28380, Note_on_c, 9, 73, 0
8, 28380, Note_on_c, 9, 73, 120
8, 28410, Note_on_c, 9, 73, 0
8, 28440, Note_on_c, 9, 73, 121
8, 28470, Note_on_c, 9, 73, 0
8, 28500, Note_on_c, 9, 73, 116
8, 28530, Note_on_c, 9, 73, 0
8, 28560, Note_on_c, 9, 73, 121
8, 28590, Note_on_c, 9, 73, 0
8, 28620, Note_on_c, 9, 73, 113
8, 28650, Note_on_c, 9, 73, 0
8, 28680, Note_on_c, 9, 73, 116
8, 28710, Note_on_c, 9, 73, 0
8, 28740, Note_on_c, 9, 73, 104
8, 28770, Note_on_c, 9, 73, 0
8, 28770, Note_on_c, 9, 73, 105
8, 28800, Note_on_c, 9, 73, 0
8, 28800, Note_on_c, 9, 73, 110
8, 28830, Note_on_c, 9, 73, 0
8, 28830, Note_on_c, 9, 73, 117
8, 28860, Note_on_c, 9, 73, 0
8, 28860, Note_on_c, 9, 73, 116
8, 28890, Note_on_c, 9, 73, 0
8, 28920, Note_on_c, 9, 73, 116
8, 28950, Note_on_c, 9, 73, 0
8, 28980, Note_on_c, 9, 73, 113
8, 29010, Note_on_c, 9, 73, 0
8, 29040, Note_on_c, 9, 73, 121
8, 29070, Note_on_c, 9, 73, 0
8, 29100, Note_on_c, 9, 73, 104
8, 29130, Note_on_c, 9, 73, 0
8, 29220, Note_on_c, 9, 73, 112
8, 29250, Note_on_c, 9, 73, 0
8, 29250, Note_on_c, 9, 73, 112
8, 29280, Note_on_c, 9, 73, 0
8, 29280, Note_on_c, 9, 73, 113
8, 29310, Note_on_c, 9, 73, 0
8, 29310, Note_on_c, 9, 73, 113
8, 29340, Note_on_c, 9, 73, 0
8, 29340, Note_on_c, 9, 73, 117
8, 29370, Note_on_c, 9, 73, 0
8, 29400, Note_on_c, 9, 73, 117
8, 29430, Note_on_c, 9, 73, 0
8, 29460, Note_on_c, 9, 73, 112
8, 29490, Note_on_c, 9, 73, 0
8, 29520, Note_on_c, 9, 73, 121
8, 29550, Note_on_c, 9, 73, 0
8, 29580, Note_on_c, 9, 73, 112
8, 29610, Note_on_c, 9, 73, 0
8, 29640, Note_on_c, 9, 73, 121
8, 29670, Note_on_c, 9, 73, 0
8, 29700, Note_on_c, 9, 73, 104
8, 29730, Note_on_c, 9, 73, 0
8, 29730, Note_on_c, 9, 73, 113
8, 29760, Note_on_c, 9, 73, 0
8, 29760, Note_on_c, 9, 73, 112
8, 29790, Note_on_c, 9, 73, 0
8, 29790, Note_on_c, 9, 73, 120
8, 29820, Note_on_c, 9, 73, 0
8, 29820, Note_on_c, 9, 73, 110
8, 29850, Note_on_c, 9, 73, 0
8, 29880, Note_on_c, 9, 73, 113
8, 29910, Note_on_c, 9, 73, 0
8, 29940, Note_on_c, 9, 73, 108
8, 29970, Note_on_c, 9, 73, 0
8, 30000, Note_on_c, 9, 73, 116
8, 30030, Note_on_c, 9, 73, 0
8, 30060, Note_on_c, 9, 73, 113
8, 30090, Note_on_c, 9, 73, 0
8, 30090, Note_on_c, 9, 73, 117
8, 30120, Note_on_c, 9, 73, 0
8, 30240, Note_on_c, 9, 73, 120
8, 30270, Note_on_c, 9, 73, 0
8, 30270, Note_on_c, 9, 73, 117
8, 30300, Note_on_c, 9, 73, 0
8, 30300, Note_on_c, 9, 73, 120
8, 30330, Note_on_c, 9, 73, 0
8, 30360, Note_on_c, 9, 73, 121
8, 30390, Note_on_c, 9, 73, 0
8, 30420, Note_on_c, 9, 73, 116
8, 30450, Note_on_c, 9, 73, 0
8, 30480, Note_on_c, 9, 73, 121
8, 30510, Note_on_c, 9, 73, 0
8, 30540, Note_on_c, 9, 73, 113
8, 30570, Note_on_c, 9, 73, 0
8, 30600, Note_on_c, 9, 73, 116
8, 30630, Note_on_c, 9, 73, 0
8, 30660, Note_on_c, 9, 73, 104
8, 30690, Note_on_c, 9, 73, 0
8, 30690, Note_on_c, 9, 73, 105
8, 30720, Note_on_c, 9, 73, 0
8, 30720, Note_on_c, 9, 73, 110
8, 30750, Note_on_c, 9, 73, 0
8, 30750, Note_on_c, 9, 73, 117
8, 30780, Note_on_c, 9, 73, 0
8, 30780, Note_on_c, 9, 73, 116
8, 30810, Note_on_c, 9, 73, 0
8, 30840, Note_on_c, 9, 73, 116
8, 30870, Note_on_c, 9, 73, 0
8, 30900, Note_on_c, 9, 73, 113
8, 30930, Note_on_c, 9, 73, 0
8, 30960, Note_on_c, 9, 73, 121
8, 30990, Note_on_c, 9, 73, 0
8, 31020, Note_on_c, 9, 73, 104
8, 31050, Note_on_c, 9, 73, 0
8, 31140, Note_on_c, 9, 73, 112
8, 31170, Note_on_c, 9, 73, 0
8, 31170, Note_on_c, 9, 73, 112
8, 31200, Note_on_c, 9, 73, 0
8, 31200, Note_on_c, 9, 73, 113
8, 31230, Note_on_c, 9, 73, 0
8, 31230, Note_on_c, 9, 73, 113
8, 31260, Note_on_c, 9, 73, 0
8, 31260, Note_on_c, 9, 73, 117
8, 31290, Note_on_c, 9, 73, 0
8, 31320, Note_on_c, 9, 73, 117
8, 31350, Note_on_c, 9, 73, 0
8, 31380, Note_on_c, 9, 73, 112
8, 31410, Note_on_c, 9, 73, 0
8, 31440, Note_on_c, 9, 73, 121
8, 31470, Note_on_c, 9, 73, 0
8, 31500, Note_on_c, 9, 73, 112
8, 31530, Note_on_c, 9, 73, 0
8, 31560, Note_on_c, 9, 73, 121
8, 31590, Note_on_c, 9, 73, 0
8, 31620, Note_on_c, 9, 73, 104
8, 31650, Note_on_c, 9, 73, 0
8, 31650, Note_on_c, 9, 73, 113
8, 31680, Note_on_c, 9, 73, 0
8, 31680, Note_on_c, 9, 73, 112
8, 31710, Note_on_c, 9, 73, 0
8, 31710, Note_on_c, 9, 73, 120
8, 31740, Note_on_c, 9, 73, 0
8, 31740, Note_on_c, 9, 73, 110
8, 31770, Note_on_c, 9, 73, 0
8, 31800, Note_on_c, 9, 73, 113
8, 31830, Note_on_c, 9, 73, 0
8, 31860, Note_on_c, 9, 73, 108
8, 31890, Note_on_c, 9, 73, 0
8, 31920, Note_on_c, 9, 73, 116
8, 31950, Note_on_c, 9, 73, 0
8, 31980, Note_on_c, 9, 73, 113
8, 32010, Note_on_c, 9, 73, 0
8, 32010, Note_on_c, 9, 73, 117
8, 32040, Note_on_c, 9, 73, 0
8, 32160, Note_on_c, 9, 73, 120
8, 32190, Note_on_c, 9, 73, 0
8, 32190, Note_on_c, 9, 73, 117
8, 32220, Note_on_c, 9, 73, 0
8, 32220, Note_on_c, 9, 73, 120
8, 32250, Note_on_c, 9, 73, 0
8, 32280, Note_on_c, 9, 73, 121
8, 32310, Note_on_c, 9, 73, 0
8, 32340, Note_on_c, 9, 73, 116
8, 32370, Note_on_c, 9, 73, 0
8, 32400, Note_on_c, 9, 73, 121
8, 32430, Note_on_c, 9, 73, 0
8, 32460, Note_on_c, 9, 73, 113
8, 32490, Note_on_c, 9, 73, 0
8, 32520, Note_on_c, 9, 73, 116
8, 32550, Note_on_c, 9, 73, 0
8, 32580, Note_on_c, 9, 73, 104
8, 32610, Note_on_c, 9, 73, 0
8, 32610, Note_on_c, 9, 73, 105
8, 32640, Note_on_c, 9, 73, 0
8, 32640, Note_on_c, 9, 73, 110
8, 32670, Note_on_c, 9, 73, 0
8, 32670, Note_on_c, 9, 73, 117
8, 32700, Note_on_c, 9, 73, 0
8, 32700, Note_on_c, 9, 73, 116
8, 32730, Note_on_c, 9, 73, 0
8, 32760, Note_on_c, 9, 73, 116
8, 32790, Note_on_c, 9, 73, 0
8, 32820, Note_on_c, 9, 73, 113
8, 32850, Note_on_c, 9, 73, 0
8, 32880, Note_on_c, 9, 73, 121
8, 32910, Note_on_c, 9, 73, 0
8, 32940, Note_on_c, 9, 73, 104
8, 32970, Note_on_c, 9, 73, 0
8, 33060, Note_on_c, 9, 73, 112
8, 33090, Note_on_c, 9, 73, 0
8, 33090, Note_on_c, 9, 73, 112
8, 33120, Note_on_c, 9, 73, 0
8, 33120, Note_on_c, 9, 73, 113
8, 33150, Note_on_c, 9, 73, 0
8, 33150, Note_on_c, 9, 73, 113
8, 33180, Note_on_c, 9, 73, 0
8, 33180, Note_on_c, 9, 73, 117
8, 33210, Note_on_c, 9, 73, 0
8, 33240, Note_on_c, 9, 73, 117
8, 33270, Note_on_c, 9, 73, 0
8, 33300, Note_on_c, 9, 73, 112
8, 33330, Note_on_c, 9, 73, 0
8, 33360, Note_on_c, 9, 73, 121
8, 33390, Note_on_c, 9, 73, 0
8, 33420, Note_on_c, 9, 73, 112
8, 33450, Note_on_c, 9, 73, 0
8, 33480, Note_on_c, 9, 73, 121
8, 33510, Note_on_c, 9, 73, 0
8, 33540, Note_on_c, 9, 73, 104
8, 33570, Note_on_c, 9, 73, 0
8, 33570, Note_on_c, 9, 73, 113
8, 33600, Note_on_c, 9, 73, 0
8, 33600, Note_on_c, 9, 73, 112
8, 33630, Note_on_c, 9, 73, 0
8, 33630, Note_on_c, 9, 73, 120
8, 33660, Note_on_c, 9, 73, 0
8, 33660, Note_on_c, 9, 73, 110
8, 33690, Note_on_c, 9, 73, 0
8, 33720, Note_on_c, 9, 73, 113
8, 33750, Note_on_c, 9, 73, 0
8, 33780, Note_on_c, 9, 73, 108
8, 33810, Note_on_c, 9, 73, 0
8, 33840, Note_on_c, 9, 73, 116
8, 33870, Note_on_c, 9, 73, 0
8, 33900, Note_on_c, 9, 73, 113
8, 33930, Note_on_c, 9, 73, 0
8, 33930, Note_on_c, 9, 73, 117
8, 33960, Note_on_c, 9, 73, 0
8, 34080, Note_on_c, 9, 73, 117
8, 34110, Note_on_c, 9, 73, 0
8, 34110, Note_on_c, 9, 73, 102
8, 34140, Note_on_c, 9, 73, 0
8, 34140, Note_on_c, 9, 73, 102
8, 34170, Note_on_c, 9, 73, 0
8, 34200, Note_on_c, 9, 73, 110
8, 34230, Note_on_c, 9, 73, 0
8, 34260, Note_on_c, 9, 73, 105
8, 34290, Note_on_c, 9, 73, 0
8, 34320, Note_on_c, 9, 73, 101
8, 34350, Note_on_c, 9, 73, 0
8, 34350, Note_on_c, 9, 73, 97
8, 34380, Note_on_c, 9, 73, 0
8, 34410, Note_on_c, 9, 73, 83
8, 34440, Note_on_c, 9, 73, 0
8, 34500, Note_on_c, 9, 73, 78
8, 34530, Note_on_c, 9, 73, 0
8, 34560, Note_on_c, 9, 73, 110
8, 34590, Note_on_c, 9, 73, 0
8, 34590, Note_on_c, 9, 73, 98
8, 34620, Note_on_c, 9, 73, 0
8, 34620, Note_on_c, 9, 73, 93
8, 34650, Note_on_c, 9, 73, 0
8, 34680, Note_on_c, 9, 73, 99
8, 34710, Note_on_c, 9, 73, 0
8, 34740, Note_on_c, 9, 73, 101
8, 34770, Note_on_c, 9, 73, 0
8, 34800, Note_on_c, 9, 73, 117
8, 34830, Note_on_c, 9, 73, 0
8, 34860, Note_on_c, 9, 73, 101
8, 34890, Note_on_c, 9, 73, 0
8, 34920, Note_on_c, 9, 73, 113
8, 34950, Note_on_c, 9, 73, 0
8, 34950, Note_on_c, 9, 73, 110
8, 34980, Note_on_c, 9, 73, 0
8, 34980, Note_on_c, 9, 73, 110
8, 35010, Note_on_c, 9, 73, 0
8, 35040, Note_on_c, 9, 73, 117
8, 35070, Note_on_c, 9, 73, 0
8, 35070, Note_on_c, 9, 73, 102
8, 35100, Note_on_c, 9, 73, 0
8, 35100, Note_on_c, 9, 73, 102
8, 35130, Note_on_c, 9, 73, 0
8, 35160, Note_on_c, 9, 73, 110
8, 35190, Note_on_c, 9, 73, 0
8, 35220, Note_on_c, 9, 73, 105
8, 35250, Note_on_c, 9, 73, 0
8, 35280, Note_on_c, 9, 73, 101
8, 35310, Note_on_c, 9, 73, 0
8, 35310, Note_on_c, 9, 73, 97
8, 35340, Note_on_c, 9, 73, 0
8, 35370, Note_on_c, 9, 73, 83
8, 35400, Note_on_c, 9, 73, 0
8, 35460, Note_on_c, 9, 73, 78
8, 35490, Note_on_c, 9, 73, 0
8, 35520, Note_on_c, 9, 73, 110
8, 35550, Note_on_c, 9, 73, 0
8, 35550, Note_on_c, 9, 73, 98
8, 35580, Note_on_c, 9, 73, 0
8, 35580, Note_on_c, 9, 73, 93
8, 35610, Note_on_c, 9, 73, 0
8, 35640, Note_on_c, 9, 73, 99
8, 35670, Note_on_c, 9, 73, 0
8, 35700, Note_on_c, 9, 73, 101
8, 35730, Note_on_c, 9, 73, 0
8, 35760, Note_on_c, 9, 73, 117
8, 35790, Note_on_c, 9, 73, 0
8, 35820, Note_on_c, 9, 73, 101
8, 35850, Note_on_c, 9, 73, 0
8, 35880, Note_on_c, 9, 73, 113
8, 35910, Note_on_c, 9, 73, 0
8, 35910, Note_on_c, 9, 73, 110
8, 35940, Note_on_c, 9, 73, 0
8, 35940, Note_on_c, 9, 73, 110
8, 35970, Note_on_c, 9, 73, 0
8, 36000, Note_on_c, 9, 73, 117
8, 36030, Note_on_c, 9, 73, 0
8, 36030, Note_on_c, 9, 73, 102
8, 36060, Note_on_c, 9, 73, 0
8, 36060, Note_on_c, 9, 73, 102
8, 36090, Note_on_c, 9, 73, 0
8, 36120, Note_on_c, 9, 73, 110
8, 36150, Note_on_c, 9, 73, 0
8, 36180, Note_on_c, 9, 73, 105
8, 36210, Note_on_c, 9, 73, 0
8, 36240, Note_on_c, 9, 73, 101
8, 36270, Note_on_c, 9, 73, 0
8, 36270, Note_on_c, 9, 73, 97
8, 36300, Note_on_c, 9, 73, 0
8, 36330, Note_on_c, 9, 73, 83
8, 36360, Note_on_c, 9, 73, 0
8, 36420, Note_on_c, 9, 73, 78
8, 36450, Note_on_c, 9, 73, 0
8, 36480, Note_on_c, 9, 73, 110
8, 36510, Note_on_c, 9, 73, 0
8, 36510, Note_on_c, 9, 73, 98
8, 36540, Note_on_c, 9, 73, 0
8, 36540, Note_on_c, 9, 73, 93
8, 36570, Note_on_c, 9, 73, 0
8, 36600, Note_on_c, 9, 73, 99
8, 36630, Note_on_c, 9, 73, 0
8, 36660, Note_on_c, 9, 73, 101
8, 36690, Note_on_c, 9, 73, 0
8, 36720, Note_on_c, 9, 73, 117
8, 36750, Note_on_c, 9, 73, 0
8, 36780, Note_on_c, 9, 73, 101
8, 36810, Note_on_c, 9, 73, 0
8, 36840, Note_on_c, 9, 73, 113
8, 36870, Note_on_c, 9, 73, 0
8, 36870, Note_on_c, 9, 73, 110
8, 36900, Note_on_c, 9, 73, 0
8, 36900, Note_on_c, 9, 73, 110
8, 36930, Note_on_c, 9, 73, 0
8, 36960, Note_on_c, 9, 73, 117
8, 36990, Note_on_c, 9, 73, 0
8, 36990, Note_on_c, 9, 73, 102
8, 37020, Note_on_c, 9, 73, 0
8, 37020, Note_on_c, 9, 73, 102
8, 37050, Note_on_c, 9, 73, 0
8, 37080, Note_on_c, 9, 73, 110
8, 37110, Note_on_c, 9, 73, 0
8, 37140, Note_on_c, 9, 73, 105
8, 37170, Note_on_c, 9, 73, 0
8, 37200, Note_on_c, 9, 73, 101
8, 37230, Note_on_c, 9, 73, 0
8, 37230, Note_on_c, 9, 73, 97
8, 37260, Note_on_c, 9, 73, 0
8, 37290, Note_on_c, 9, 73, 83
8, 37320, Note_on_c, 9, 73, 0
8, 37380, Note_on_c, 9, 73, 78
8, 37410, Note_on_c, 9, 73, 0
8, 37440, Note_on_c, 9, 73, 110
8, 37470, Note_on_c, 9, 73, 0
8, 37470, Note_on_c, 9, 73, 98
8, 37500, Note_on_c, 9, 73, 0
8, 37500, Note_on_c, 9, 73, 93
8, 37530, Note_on_c, 9, 73, 0
8, 37560, Note_on_c, 9, 73, 99
8, 37590, Note_on_c, 9, 73, 0
8, 37620, Note_on_c, 9, 73, 101
8, 37650, Note_on_c, 9, 73, 0
8, 37680, Note_on_c, 9, 73, 117
8, 37710, Note_on_c, 9, 73, 0
8, 37740, Note_on_c, 9, 73, 101
8, 37770, Note_on_c, 9, 73, 0
8, 37800, Note_on_c, 9, 73, 113
8, 37830, Note_on_c, 9, 73, 0
8, 37830, Note_on_c, 9, 73, 110
8, 37860, Note_on_c, 9, 73, 0
8, 37860, Note_on_c, 9, 73, 110
8, 37890, Note_on_c, 9, 73, 0
8, 37920, Note_on_c, 9, 73, 120
8, 37950, Note_on_c, 9, 73, 0
8, 37950, Note_on_c, 9, 73, 117
8, 37980, Note_on_c, 9, 73, 0
8, 37980, Note_on_c, 9, 73, 120
8, 38010, Note_on_c, 9, 73, 0
8, 38040, Note_on_c, 9, 73, 121
8, 38070, Note_on_c, 9, 73, 0
8, 38100, Note_on_c, 9, 73, 116
8, 38130, Note_on_c, 9, 73, 0
8, 38160, Note_on_c, 9, 73, 121
8, 38190, Note_on_c, 9, 73, 0
8, 38220, Note_on_c, 9, 73, 113
8, 38250, Note_on_c, 9, 73, 0
8, 38280, Note_on_c, 9, 73, 116
8, 38310, Note_on_c, 9, 73, 0
8, 38340, Note_on_c, 9, 73, 104
8, 38370, Note_on_c, 9, 73, 0
8, 38370, Note_on_c, 9, 73, 105
8, 38400, Note_on_c, 9, 73, 0
8, 38400, Note_on_c, 9, 73, 110
8, 38430, Note_on_c, 9, 73, 0
8, 38430, Note_on_c, 9, 73, 117
8, 38460, Note_on_c, 9, 73, 0
8, 38460, Note_on_c, 9, 73, 116
8, 38490, Note_on_c, 9, 73, 0
8, 38520, Note_on_c, 9, 73, 116
8, 38550, Note_on_c, 9, 73, 0
8, 38580, Note_on_c, 9, 73, 113
8, 38610, Note_on_c, 9, 73, 0
8, 38640, Note_on_c, 9, 73, 121
8, 38670, Note_on_c, 9, 73, 0
8, 38700, Note_on_c, 9, 73, 104
8, 38730, Note_on_c, 9, 73, 0
8, 38820, Note_on_c, 9, 73, 112
8, 38850, Note_on_c, 9, 73, 0
8, 38850, Note_on_c, 9, 73, 112
8, 38880, Note_on_c, 9, 73, 0
8, 38880, Note_on_c, 9, 73, 113
8, 38910, Note_on_c, 9, 73, 0
8, 38910, Note_on_c, 9, 73, 113
8, 38940, Note_on_c, 9, 73, 0
8, 38940, Note_on_c, 9, 73, 117
8, 38970, Note_on_c, 9, 73, 0
8, 39000, Note_on_c, 9, 73, 117
8, 39030, Note_on_c, 9, 73, 0
8, 39060, Note_on_c, 9, 73, 112
8, 39090, Note_on_c, 9, 73, 0
8, 39120, Note_on_c, 9, 73, 121
8, 39150, Note_on_c, 9, 73, 0
8, 39180, Note_on_c, 9, 73, 112
8, 39210, Note_on_c, 9, 73, 0
8, 39240, Note_on_c, 9, 73, 121
8, 39270, Note_on_c, 9, 73, 0
8, 39300, Note_on_c, 9, 73, 104
8, 39330, Note_on_c, 9, 73, 0
8, 39330, Note_on_c, 9, 73, 113
8, 39360, Note_on_c, 9, 73, 0
8, 39360, Note_on_c, 9, 73, 112
8, 39390, Note_on_c, 9, 73, 0
8, 39390, Note_on_c, 9, 73, 120
8, 39420, Note_on_c, 9, 73, 0
8, 39420, Note_on_c, 9, 73, 110
8, 39450, Note_on_c, 9, 73, 0
8, 39480, Note_on_c, 9, 73, 113
8, 39510, Note_on_c, 9, 73, 0
8, 39540, Note_on_c, 9, 73, 108
8, 39570, Note_on_c, 9, 73, 0
8, 39600, Note_on_c, 9, 73, 116
8, 39630, Note_on_c, 9, 73, 0
8, 39660, Note_on_c, 9, 73, 113
8, 39690, Note_on_c, 9, 73, 0
8, 39690, Note_on_c, 9, 73, 117
8, 39720, Note_on_c, 9, 73, 0
8, 39840, Note_on_c, 9, 73, 120
8, 39870, Note_on_c, 9, 73, 0
8, 39870, Note_on_c, 9, 73, 117
8, 39900, Note_on_c, 9, 73, 0
8, 39900, Note_on_c, 9, 73, 120
8, 39930, Note_on_c, 9, 73, 0
8, 39960, Note_on_c, 9, 73, 121
8, 39990, Note_on_c, 9, 73, 0
8, 40020, Note_on_c, 9, 73, 116
8, 40050, Note_on_c, 9, 73, 0
8, 40080, Note_on_c, 9, 73, 121
8, 40110, Note_on_c, 9, 73, 0
8, 40140, Note_on_c, 9, 73, 113
8, 40170, Note_on_c, 9, 73, 0
8, 40200, Note_on_c, 9, 73, 116
8, 40230, Note_on_c, 9, 73, 0
8, 40260, Note_on_c, 9, 73, 104
8, 40290, Note_on_c, 9, 73, 0
8, 40290, Note_on_c, 9, 73, 105
8, 40320, Note_on_c, 9, 73, 0
8, 40320, Note_on_c, 9, 73, 110
8, 40350, Note_on_c, 9, 73, 0
8, 40350, Note_on_c, 9, 73, 117
8, 40380, Note_on_c, 9, 73, 0
8, 40380, Note_on_c, 9, 73, 116
8, 40410, Note_on_c, 9, 73, 0
8, 40440, Note_on_c, 9, 73, 116
8, 40470, Note_on_c, 9, 73, 0
8, 40500, Note_on_c, 9, 73, 113
8, 40530, Note_on_c, 9, 73, 0
8, 40560, Note_on_c, 9, 73, 121
8, 40590, Note_on_c, 9, 73, 0
8, 40620, Note_on_c, 9, 73, 104
8, 40650, Note_on_c, 9, 73, 0
8, 40740, Note_on_c, 9, 73, 112
8, 40770, Note_on_c, 9, 73, 0
8, 40770, Note_on_c, 9, 73, 112
8, 40800, Note_on_c, 9, 73, 0
8, 40800, Note_on_c, 9, 73, 113
8, 40830, Note_on_c, 9, 73, 0
8, 40830, Note_on_c, 9, 73, 113
8, 40860, Note_on_c, 9, 73, 0
8, 40860, Note_on_c, 9, 73, 117
8, 40890, Note_on_c, 9, 73, 0
8, 40920, Note_on_c, 9, 73, 117
8, 40950, Note_on_c, 9, 73, 0
8, 40980, Note_on_c, 9, 73, 112
8, 41010, Note_on_c, 9, 73, 0
8, 41040, Note_on_c, 9, 73, 121
8, 41070, Note_on_c, 9, 73, 0
8, 41100, Note_on_c, 9, 73, 112
8, 41130, Note_on_c, 9, 73, 0
8, 41160, Note_on_c, 9, 73, 121
8, 41190, Note_on_c, 9, 73, 0
8, 41220, Note_on_c, 9, 73, 104
8, 41250, Note_on_c, 9, 73, 0
8, 41250, Note_on_c, 9, 73, 113
8, 41280, Note_on_c, 9, 73, 0
8, 41280, Note_on_c, 9, 73, 112
8, 41310, Note_on_c, 9, 73, 0
8, 41310, Note_on_c, 9, 73, 120
8, 41340, Note_on_c, 9, 73, 0
8, 41340, Note_on_c, 9, 73, 110
8, 41370, Note_on_c, 9, 73, 0
8, 41400, Note_on_c, 9, 73, 113
8, 41430, Note_on_c, 9, 73, 0
8, 41460, Note_on_c, 9, 73, 108
8, 41490, Note_on_c, 9, 73, 0
8, 41520, Note_on_c, 9, 73, 116
8, 41550, Note_on_c, 9, 73, 0
8, 41580, Note_on_c, 9, 73, 113
8, 41610, Note_on_c, 9, 73, 0
8, 41610, Note_on_c, 9, 73, 117
8, 41640, Note_on_c, 9, 73, 0
8, 41760, Note_on_c, 9, 73, 120
8, 41790, Note_on_c, 9, 73, 0
8, 41790, Note_on_c, 9, 73, 117
8, 41820, Note_on_c, 9, 73, 0
8, 41820, Note_on_c, 9, 73, 120
8, 41850, Note_on_c, 9, 73, 0
8, 41880, Note_on_c, 9, 73, 121
8, 41910, Note_on_c, 9, 73, 0
8, 41940, Note_on_c, 9, 73, 116
8, 41970, Note_on_c, 9, 73, 0
8, 42000, Note_on_c, 9, 73, 121
8, 42030, Note_on_c, 9, 73, 0
8, 42060, Note_on_c, 9, 73, 113
8, 42090, Note_on_c, 9, 73, 0
8, 42120, Note_on_c, 9, 73, 116
8, 42150, Note_on_c, 9, 73, 0
8, 42180, Note_on_c, 9, 73, 104
8, 42210, Note_on_c, 9, 73, 0
8, 42210, Note_on_c, 9, 73, 105
8, 42240, Note_on_c, 9, 73, 0
8, 42240, Note_on_c, 9, 73, 110
8, 42270, Note_on_c, 9, 73, 0
8, 42270, Note_on_c, 9, 73, 117
8, 42300, Note_on_c, 9, 73, 0
8, 42300, Note_on_c, 9, 73, 116
8, 42330, Note_on_c, 9, 73, 0
8, 42360, Note_on_c, 9, 73, 116
8, 42390, Note_on_c, 9, 73, 0
8, 42420, Note_on_c, 9, 73, 113
8, 42450, Note_on_c, 9, 73, 0
8, 42480, Note_on_c, 9, 73, 121
8, 42510, Note_on_c, 9, 73, 0
8, 42540, Note_on_c, 9, 73, 104
8, 42570, Note_on_c, 9, 73, 0
8, 42660, Note_on_c, 9, 73, 112
8, 42690, Note_on_c, 9, 73, 0
8, 42690, Note_on_c, 9, 73, 112
8, 42720, Note_on_c, 9, 73, 0
8, 42720, Note_on_c, 9, 73, 113
8, 42750, Note_on_c, 9, 73, 0
8, 42750, Note_on_c, 9, 73, 113
8, 42780, Note_on_c, 9, 73, 0
8, 42780, Note_on_c, 9, 73, 117
8, 42810, Note_on_c, 9, 73, 0
8, 42840, Note_on_c, 9, 73, 117
8, 42870, Note_on_c, 9, 73, 0
8, 42900, Note_on_c, 9, 73, 112
8, 42930, Note_on_c, 9, 73, 0
8, 42960, Note_on_c, 9, 73, 121
8, 42990, Note_on_c, 9, 73, 0
8, 43020, Note_on_c, 9, 73, 112
8, 43050, Note_on_c, 9, 73, 0
8, 43080, Note_on_c, 9, 73, 121
8, 43110, Note_on_c, 9, 73, 0
8, 43140, Note_on_c, 9, 73, 104
8, 43170, Note_on_c, 9, 73, 0
8, 43170, Note_on_c, 9, 73, 113
8, 43200, Note_on_c, 9, 73, 0
8, 43200, Note_on_c, 9, 73, 112
8, 43230, Note_on_c, 9, 73, 0
8, 43230, Note_on_c, 9, 73, 120
8, 43260, Note_on_c, 9, 73, 0
8, 43260, Note_on_c, 9, 73, 110
8, 43290, Note_on_c, 9, 73, 0
8, 43320, Note_on_c, 9, 73, 113
8, 43350, Note_on_c, 9, 73, 0
8, 43380, Note_on_c, 9, 73, 108
8, 43410, Note_on_c, 9, 73, 0
8, 43440, Note_on_c, 9, 73, 116
8, 43470, Note_on_c, 9, 73, 0
8, 43500, Note_on_c, 9, 73, 113
8, 43530, Note_on_c, 9, 73, 0
8, 43530, Note_on_c, 9, 73, 117
8, 43560, Note_on_c, 9, 73, 0
8, 43680, Note_on_c, 9, 73, 120
8, 43710, Note_on_c, 9, 73, 0
8, 43710, Note_on_c, 9, 73, 117
8, 43740, Note_on_c, 9, 73, 0
8, 43740, Note_on_c, 9, 73, 120
8, 43770, Note_on_c, 9, 73, 0
8, 43800, Note_on_c, 9, 73, 121
8, 43830, Note_on_c, 9, 73, 0
8, 43860, Note_on_c, 9, 73, 116
8, 43890, Note_on_c, 9, 73, 0
8, 43920, Note_on_c, 9, 73, 121
8, 43950, Note_on_c, 9, 73, 0
8, 43980, Note_on_c, 9, 73, 113
8, 44010, Note_on_c, 9, 73, 0
8, 44040, Note_on_c, 9, 73, 116
8, 44070, Note_on_c, 9, 73, 0
8, 44100, Note_on_c, 9, 73, 104
8, 44130, Note_on_c, 9, 73, 0
8, 44130, Note_on_c, 9, 73, 105
8, 44160, Note_on_c, 9, 73, 0
8, 44160, Note_on_c, 9, 73, 110
8, 44190, Note_on_c, 9, 73, 0
8, 44190, Note_on_c, 9, 73, 117
8, 44220, Note_on_c, 9, 73, 0
8, 44220, Note_on_c, 9, 73, 116
8, 44250, Note_on_c, 9, 73, 0
8, 44280, Note_on_c, 9, 73, 116
8, 44310, Note_on_c, 9, 73, 0
8, 44340, Note_on_c, 9, 73, 113
8, 44370, Note_on_c, 9, 73, 0
8, 44400, Note_on_c, 9, 73, 121
8, 44430, Note_on_c, 9, 73, 0
8, 44460, Note_on_c, 9, 73, 104
8, 44490, Note_on_c, 9, 73, 0
8, 44580, Note_on_c, 9, 73, 112
8, 44610, Note_on_c, 9, 73, 0
8, 44610, Note_on_c, 9, 73, 112
8, 44640, Note_on_c, 9, 73, 0
8, 44640, Note_on_c, 9, 73, 113
8, 44670, Note_on_c, 9, 73, 0
8, 44670, Note_on_c, 9, 73, 113
8, 44700, Note_on_c, 9, 73, 0
8, 44700, Note_on_c, 9, 73, 117
8, 44730, Note_on_c, 9, 73, 0
8, 44760, Note_on_c, 9, 73, 117
8, 44790, Note_on_c, 9, 73, 0
8, 44820, Note_on_c, 9, 73, 112
8, 44850, Note_on_c, 9, 73, 0
8, 44880, Note_on_c, 9, 73, 121
8, 44910, Note_on_c, 9, 73, 0
8, 44940, Note_on_c, 9, 73, 112
8, 44970, Note_on_c, 9, 73, 0
8, 45000, Note_on_c, 9, 73, 121
8, 45030, Note_on_c, 9, 73, 0
8, 45060, Note_on_c, 9, 73, 104
8, 45090, Note_on_c, 9, 73, 0
8, 45090, Note_on_c, 9, 73, 113
8, 45120, Note_on_c, 9, 73, 0
8, 45120, Note_on_c, 9, 73, 112
8, 45150, Note_on_c, 9, 73, 0
8, 45150, Note_on_c, 9, 73, 120
8, 45180, Note_on_c, 9, 73, 0
8, 45180, Note_on_c, 9, 73, 110
8, 45210, Note_on_c, 9, 73, 0
8, 45240, Note_on_c, 9, 73, 113
8, 45270, Note_on_c, 9, 73, 0
8, 45300, Note_on_c, 9, 73, 108
8, 45330, Note_on_c, 9, 73, 0
8, 45360, Note_on_c, 9, 73, 116
8, 45390, Note_on_c, 9, 73, 0
8, 45420, Note_on_c, 9, 73, 113
8, 45450, Note_on_c, 9, 73, 0
8, 45450, Note_on_c, 9, 73, 117
8, 45480, Note_on_c, 9, 73, 0
8, 45600, Note_on_c, 9, 73, 120
8, 45630, Note_on_c, 9, 73, 0
8, 45630, Note_on_c, 9, 73, 117
8, 45660, Note_on_c, 9, 73, 0
8, 45660, Note_on_c, 9, 73, 120
8, 45690, Note_on_c, 9, 73, 0
8, 45720, Note_on_c, 9, 73, 121
8, 45750, Note_on_c, 9, 73, 0
8, 45780, Note_on_c, 9, 73, 116
8, 45810, Note_on_c, 9, 73, 0
8, 45840, Note_on_c, 9, 73, 121
8, 45870, Note_on_c, 9, 73, 0
8, 45900, Note_on_c, 9, 73, 113
8, 45930, Note_on_c, 9, 73, 0
8, 45960, Note_on_c, 9, 73, 116
8, 45990, Note_on_c, 9, 73, 0
8, 46020, Note_on_c, 9, 73, 104
8, 46050, Note_on_c, 9, 73, 0
8, 46050, Note_on_c, 9, 73, 105
8, 46080, Note_on_c, 9, 73, 0
8, 46080, Note_on_c, 9, 73, 110
8, 46110, Note_on_c, 9, 73, 0
8, 46110, Note_on_c, 9, 73, 117
8, 46140, Note_on_c, 9, 73, 0
8, 46140, Note_on_c, 9, 73, 116
8, 46170, Note_on_c, 9, 73, 0
8, 46200, Note_on_c, 9, 73, 116
8, 46230, Note_on_c, 9, 73, 0
8, 46260, Note_on_c, 9, 73, 113
8, 46290, Note_on_c, 9, 73, 0
8, 46320, Note_on_c, 9, 73, 121
8, 46350, Note_on_c, 9, 73, 0
8, 46380, Note_on_c, 9, 73, 104
8, 46410, Note_on_c, 9, 73, 0
8, 46500, Note_on_c, 9, 73, 112
8, 46530, Note_on_c, 9, 73, 0
8, 46530, Note_on_c, 9, 73, 112
8, 46560, Note_on_c, 9, 73, 0
8, 46560, Note_on_c, 9, 73, 113
8, 46590, Note_on_c, 9, 73, 0
8, 46590, Note_on_c, 9, 73, 113
8, 46620, Note_on_c, 9, 73, 0
8, 46620, Note_on_c, 9, 73, 117
8, 46650, Note_on_c, 9, 73, 0
8, 46680, Note_on_c, 9, 73, 117
8, 46710, Note_on_c, 9, 73, 0
8, 46740, Note_on_c, 9, 73, 112
8, 46770, Note_on_c, 9, 73, 0
8, 46800, Note_on_c, 9, 73, 121
8, 46830, Note_on_c, 9, 73, 0
8, 46860, Note_on_c, 9, 73, 112
8, 46890, Note_on_c, 9, 73, 0
8, 46920, Note_on_c, 9, 73, 121
8, 46950, Note_on_c, 9, 73, 0
8, 46980, Note_on_c, 9, 73, 104
8, 47010, Note_on_c, 9, 73, 0
8, 47010, Note_on_c, 9, 73, 113
8, 47040, Note_on_c, 9, 73, 0
8, 47040, Note_on_c, 9, 73, 112
8, 47070, Note_on_c, 9, 73, 0
8, 47070, Note_on_c, 9, 73, 120
8, 47100, Note_on_c, 9, 73, 0
8, 47100, Note_on_c, 9, 73, 110
8, 47130, Note_on_c, 9, 73, 0
8, 47160, Note_on_c, 9, 73, 113
8, 47190, Note_on_c, 9, 73, 0
8, 47220, Note_on_c, 9, 73, 108
8, 47250, Note_on_c, 9, 73, 0
8, 47280, Note_on_c, 9, 73, 116
8, 47310, Note_on_c, 9, 73, 0
8, 47340, Note_on_c, 9, 73, 113
8, 47370, Note_on_c, 9, 73, 0
8, 47370, Note_on_c, 9, 73, 117
8, 47400, Note_on_c, 9, 73, 0
8, 47520, Note_on_c, 9, 73, 120
8, 47550, Note_on_c, 9, 73, 0
8, 47550, Note_on_c, 9, 73, 117
8, 47580, Note_on_c, 9, 73, 0
8, 47580, Note_on_c, 9, 73, 120
8, 47610, Note_on_c, 9, 73, 0
8, 47640, Note_on_c, 9, 73, 121
8, 47670, Note_on_c, 9, 73, 0
8, 47700, Note_on_c, 9, 73, 116
8, 47730, Note_on_c, 9, 73, 0
8, 47760, Note_on_c, 9, 73, 121
8, 47790, Note_on_c, 9, 73, 0
8, 47820, Note_on_c, 9, 73, 113
8, 47850, Note_on_c, 9, 73, 0
8, 47880, Note_on_c, 9, 73, 116
8, 47910, Note_on_c, 9, 73, 0
8, 47940, Note_on_c, 9, 73, 104
8, 47970, Note_on_c, 9, 73, 0
8, 47970, Note_on_c, 9, 73, 105
8, 48000, Note_on_c, 9, 73, 0
8, 48000, Note_on_c, 9, 73, 110
8, 48030, Note_on_c, 9, 73, 0
8, 48030, Note_on_c, 9, 73, 117
8, 48060, Note_on_c, 9, 73, 0
8, 48060, Note_on_c, 9, 73, 116
8, 48090, Note_on_c, 9, 73, 0
8, 48120, Note_on_c, 9, 73, 116
8, 48150, Note_on_c, 9, 73, 0
8, 48180, Note_on_c, 9, 73, 113
8, 48210, Note_on_c, 9, 73, 0
8, 48240, Note_on_c, 9, 73, 121
8, 48270, Note_on_c, 9, 73, 0
8, 48300, Note_on_c, 9, 73, 104
8, 48330, Note_on_c, 9, 73, 0
8, 48420, Note_on_c, 9, 73, 112
8, 48450, Note_on_c, 9, 73, 0
8, 48450, Note_on_c, 9, 73, 112
8, 48480, Note_on_c, 9, 73, 0
8, 48480, Note_on_c, 9, 73, 113
8, 48510, Note_on_c, 9, 73, 0
8, 48510, Note_on_c, 9, 73, 113
8, 48540, Note_on_c, 9, 73, 0
8, 48540, Note_on_c, 9, 73, 117
8, 48570, Note_on_c, 9, 73, 0
8, 48600, Note_on_c, 9, 73, 117
8, 48630, Note_on_c, 9, 73, 0
8, 48660, Note_on_c, 9, 73, 112
8, 48690, Note_on_c, 9, 73, 0
8, 48720, Note_on_c, 9, 73, 121
8, 48750, Note_on_c, 9, 73, 0
8, 48780, Note_on_c, 9, 73, 112
8, 48810, Note_on_c, 9, 73, 0
8, 48840, Note_on_c, 9, 73, 121
8, 48870, Note_on_c, 9, 73, 0
8, 48900, Note_on_c, 9, 73, 104
8, 48930, Note_on_c, 9, 73, 0
8, 48930, Note_on_c, 9, 73, 113
8, 48960, Note_on_c, 9, 73, 0
8, 48960, Note_on_c, 9, 73, 112
8, 48990, Note_on_c, 9, 73, 0
8, 48990, Note_on_c, 9, 73, 126
8, 49020, Note_on_c, 9, 73, 0
8, 49020, Note_on_c, 9, 73, 125
8, 49050, Note_on_c, 9, 73, 0
8, 49080, Note_on_c, 9, 73, 122
8, 49110, Note_on_c, 9, 73, 0
8, 49140, Note_on_c, 9, 73, 118
8, 49170, Note_on_c, 9, 73, 0
8, 49200, Note_on_c, 9, 73, 115
8, 49230, Note_on_c, 9, 73, 0
8, 49260, Note_on_c, 9, 73, 112
8, 49290, Note_on_c, 9, 73, 0
8, 49290, Note_on_c, 9, 73, 110
8, 49320, Note_on_c, 9, 73, 0
8, 49440, Note_on_c, 9, 73, 102
8, 49470, Note_on_c, 9, 73, 0
8, 49470, Note_on_c, 9, 73, 101
8, 49500, Note_on_c, 9, 73, 0
8, 49500, Note_on_c, 9, 73, 99
8, 49530, Note_on_c, 9, 73, 0
8, 49560, Note_on_c, 9, 73, 96
8, 49590, Note_on_c, 9, 73, 0
8, 49620, Note_on_c, 9, 73, 93
8, 49650, Note_on_c, 9, 73, 0
8, 49680, Note_on_c, 9, 73, 90
8, 49710, Note_on_c, 9, 73, 0
8, 49740, Note_on_c, 9, 73, 86
8, 49770, Note_on_c, 9, 73, 0
8, 49800, Note_on_c, 9, 73, 83
8, 49830, Note_on_c, 9, 73, 0
8, 49860, Note_on_c, 9, 73, 80
8, 49890, Note_on_c, 9, 73, 0
8, 49890, Note_on_c, 9, 73, 78
8, 49920, Note_on_c, 9, 73, 0
8, 49920, Note_on_c, 9, 73, 77
8, 49950, Note_on_c, 9, 73, 0
8, 49950, Note_on_c, 9, 73, 75
8, 49980, Note_on_c, 9, 73, 0
8, 49980, Note_on_c, 9, 73, 74
8, 50010, Note_on_c, 9, 73, 0
8, 50040, Note_on_c, 9, 73, 70
8, 50070, Note_on_c, 9, 73, 0
8, 50100, Note_on_c, 9, 73, 67
8, 50130, Note_on_c, 9, 73, 0
8, 50160, Note_on_c, 9, 73, 64
8, 50190, Note_on_c, 9, 73, 0
8, 50220, Note_on_c, 9, 73, 61
8, 50250, Note_on_c, 9, 73, 0
8, 50340, Note_on_c, 9, 73, 54
8, 50370, Note_on_c, 9, 73, 0
8, 50370, Note_on_c, 9, 73, 53
8, 50400, Note_on_c, 9, 73, 0
8, 50400, Note_on_c, 9, 73, 51
8, 50430, Note_on_c, 9, 73, 0
8, 50430, Note_on_c, 9, 73, 50
8, 50460, Note_on_c, 9, 73, 0
8, 50460, Note_on_c, 9, 73, 48
8, 50490, Note_on_c, 9, 73, 0
8, 50520, Note_on_c, 9, 73, 45
8, 50550, Note_on_c, 9, 73, 0
8, 50580, Note_on_c, 9, 73, 42
8, 50610, Note_on_c, 9, 73, 0
8, 50640, Note_on_c, 9, 73, 38
8, 50670, Note_on_c, 9, 73, 0
8, 50700, Note_on_c, 9, 73, 35
8, 50730, Note_on_c, 9, 73, 0
8, 50760, Note_on_c, 9, 73, 32
8, 50790, Note_on_c, 9, 73, 0
8, 50820, Note_on_c, 9, 73, 29
8, 50850, Note_on_c, 9, 73, 0
8, 50850, Note_on_c, 9, 73, 27
8, 50880, Note_on_c, 9, 73, 0
8, 50880, Note_on_c, 9, 73, 26
8, 50910, Note_on_c, 9, 73, 0
8, 50910, Note_on_c, 9, 73, 24
8, 50940, Note_on_c, 9, 73, 0
8, 50940, Note_on_c, 9, 73, 22
8, 50970, Note_on_c, 9, 73, 0
8, 51000, Note_on_c, 9, 73, 19
8, 51030, Note_on_c, 9, 73, 0
8, 51060, Note_on_c, 9, 73, 16
8, 51090, Note_on_c, 9, 73, 0
8, 51120, Note_on_c, 9, 73, 13
8, 51150, Note_on_c, 9, 73, 0
8, 51180, Note_on_c, 9, 73, 10
8, 51210, Note_on_c, 9, 73, 0
8, 51210, Note_on_c, 9, 73, 8
8, 51240, Note_on_c, 9, 73, 0
8, 51240, End_track
9, 0, Start_track
9, 0, MIDI_port, 0
9, 0, Title_t, ""
9, 0, Program_c, 1, 25
9, 0, Control_c, 1, 7, 80
9, 7440, Note_on_c, 1, 63, 104
9, 7470, Note_on_c, 1, 63, 0
9, 7470, Note_on_c, 1, 63, 110
9, 7500, Note_on_c, 1, 63, 0
9, 7530, Note_on_c, 1, 63, 117
9, 7560, Note_on_c, 1, 63, 0
9, 7590, Note_on_c, 1, 63, 110
9, 7620, Note_on_c, 1, 63, 0
9, 7650, Note_on_c, 1, 63, 101
9, 7710, Note_on_c, 1, 63, 0
9, 7710, Note_on_c, 1, 64, 98
9, 7740, Note_on_c, 1, 64, 0
9, 7740, Note_on_c, 1, 64, 101
9, 7770, Note_on_c, 1, 64, 0
9, 7800, Note_on_c, 1, 64, 112
9, 7830, Note_on_c, 1, 64, 0
9, 7860, Note_on_c, 1, 64, 87
9, 7890, Note_on_c, 1, 64, 0
9, 7920, Note_on_c, 1, 64, 95
9, 7950, Note_on_c, 1, 64, 0
9, 7950, Note_on_c, 1, 64, 46
9, 7980, Note_on_c, 1, 64, 0
9, 8010, Note_on_c, 1, 64, 89
9, 8040, Note_on_c, 1, 64, 0
9, 8400, Note_on_c, 1, 63, 104
9, 8430, Note_on_c, 1, 63, 0
9, 8430, Note_on_c, 1, 63, 110
9, 8460, Note_on_c, 1, 63, 0
9, 8490, Note_on_c, 1, 63, 117
9, 8520, Note_on_c, 1, 63, 0
9, 8550, Note_on_c, 1, 63, 110
9, 8580, Note_on_c, 1, 63, 0
9, 8610, Note_on_c, 1, 63, 101
9, 8670, Note_on_c, 1, 63, 0
9, 8670, Note_on_c, 1, 64, 98
9, 8700, Note_on_c, 1, 64, 0
9, 8700, Note_on_c, 1, 64, 101
9, 8730, Note_on_c, 1, 64, 0
9, 8760, Note_on_c, 1, 64, 112
9, 8790, Note_on_c, 1, 64, 0
9, 8820, Note_on_c, 1, 64, 87
9, 8850, Note_on_c, 1, 64, 0
9, 8880, Note_on_c, 1, 64, 95
9, 8910, Note_on_c, 1, 64, 0
9, 8910, Note_on_c, 1, 64, 46
9, 8940, Note_on_c, 1, 64, 0
9, 8970, Note_on_c, 1, 64, 89
9, 9000, Note_on_c, 1, 64, 0
9, 10320, Note_on_c, 1, 63, 104
9, 10350, Note_on_c, 1, 63, 0
9, 10350, Note_on_c, 1, 63, 110
9, 10380, Note_on_c, 1, 63, 0
9, 10410, Note_on_c, 1, 63, 117
9, 10440, Note_on_c, 1, 63, 0
9, 10470, Note_on_c, 1, 63, 110
9, 10500, Note_on_c, 1, 63, 0
9, 10530, Note_on_c, 1, 63, 101
9, 10590, Note_on_c, 1, 63, 0
9, 10590, Note_on_c, 1, 64, 98
9, 10620, Note_on_c, 1, 64, 0
9, 10620, Note_on_c, 1, 64, 101
9, 10650, Note_on_c, 1, 64, 0
9, 10680, Note_on_c, 1, 64, 112
9, 10710, Note_on_c, 1, 64, 0
9, 10740, Note_on_c, 1, 64, 87
9, 10770, Note_on_c, 1, 64, 0
9, 10800, Note_on_c, 1, 64, 95
9, 10830, Note_on_c, 1, 64, 0
9, 10830, Note_on_c, 1, 64, 46
9, 10860, Note_on_c, 1, 64, 0
9, 10890, Note_on_c, 1, 64, 89
9, 10920, Note_on_c, 1, 64, 0
9, 15120, Note_on_c, 1, 63, 104
9, 15120, Note_on_c, 1, 56, 96
9, 15150, Note_on_c, 1, 56, 0
9, 15150, Note_on_c, 1, 63, 0
9, 15150, Note_on_c, 1, 63, 110
9, 15180, Note_on_c, 1, 63, 0
9, 15180, Note_on_c, 1, 56, 96
9, 15210, Note_on_c, 1, 56, 0
9, 15210, Note_on_c, 1, 63, 117
9, 15240, Note_on_c, 1, 63, 0
9, 15270, Note_on_c, 1, 56, 95
9, 15270, Note_on_c, 1, 63, 110
9, 15300, Note_on_c, 1, 63, 0
9, 15300, Note_on_c, 1, 56, 0
9, 15330, Note_on_c, 1, 56, 97
9, 15330, Note_on_c, 1, 63, 101
9, 15360, Note_on_c, 1, 56, 0
9, 15390, Note_on_c, 1, 63, 0
9, 15390, Note_on_c, 1, 59, 90
9, 15390, Note_on_c, 1, 64, 98
9, 15420, Note_on_c, 1, 64, 0
9, 15420, Note_on_c, 1, 59, 0
9, 15420, Note_on_c, 1, 59, 93
9, 15420, Note_on_c, 1, 64, 101
9, 15450, Note_on_c, 1, 64, 0
9, 15450, Note_on_c, 1, 59, 0
9, 15480, Note_on_c, 1, 59, 95
9, 15480, Note_on_c, 1, 64, 112
9, 15510, Note_on_c, 1, 64, 0
9, 15510, Note_on_c, 1, 59, 0
9, 15540, Note_on_c, 1, 59, 93
9, 15540, Note_on_c, 1, 64, 87
9, 15570, Note_on_c, 1, 64, 0
9, 15570, Note_on_c, 1, 59, 0
9, 15600, Note_on_c, 1, 64, 95
9, 15600, Note_on_c, 1, 59, 93
9, 15630, Note_on_c, 1, 59, 0
9, 15630, Note_on_c, 1, 64, 0
9, 15630, Note_on_c, 1, 64, 46
9, 15660, Note_on_c, 1, 64, 0
9, 15660, Note_on_c, 1, 59, 95
9, 15690, Note_on_c, 1, 59, 0
9, 15690, Note_on_c, 1, 59, 98
9, 15690, Note_on_c, 1, 64, 89
9, 15720, Note_on_c, 1, 64, 0
9, 15720, Note_on_c, 1, 59, 0
9, 16080, Note_on_c, 1, 56, 96
9, 16080, Note_on_c, 1, 63, 104
9, 16110, Note_on_c, 1, 63, 0
9, 16110, Note_on_c, 1, 56, 0
9, 16110, Note_on_c, 1, 56, 97
9, 16110, Note_on_c, 1, 63, 110
9, 16140, Note_on_c, 1, 63, 0
9, 16140, Note_on_c, 1, 56, 0
9, 16140, Note_on_c, 1, 56, 98
9, 16170, Note_on_c, 1, 56, 0
9, 16170, Note_on_c, 1, 56, 100
9, 16170, Note_on_c, 1, 63, 117
9, 16200, Note_on_c, 1, 63, 0
9, 16200, Note_on_c, 1, 56, 0
9, 16230, Note_on_c, 1, 63, 110
9, 16260, Note_on_c, 1, 63, 0
9, 16260, Note_on_c, 1, 56, 97
9, 16290, Note_on_c, 1, 56, 0
9, 16290, Note_on_c, 1, 56, 89
9, 16290, Note_on_c, 1, 63, 101
9, 16350, Note_on_c, 1, 63, 0
9, 16350, Note_on_c, 1, 56, 0
9, 16350, Note_on_c, 1, 59, 94
9, 16350, Note_on_c, 1, 64, 98
9, 16380, Note_on_c, 1, 64, 0
9, 16380, Note_on_c, 1, 64, 101
9, 16410, Note_on_c, 1, 64, 0
9, 16410, Note_on_c, 1, 59, 0
9, 16440, Note_on_c, 1, 59, 99
9, 16440, Note_on_c, 1, 64, 112
9, 16470, Note_on_c, 1, 64, 0
9, 16470, Note_on_c, 1, 59, 0
9, 16500, Note_on_c, 1, 59, 97
9, 16500, Note_on_c, 1, 64, 87
9, 16530, Note_on_c, 1, 64, 0
9, 16530, Note_on_c, 1, 59, 0
9, 16560, Note_on_c, 1, 59, 95
9, 16560, Note_on_c, 1, 64, 95
9, 16590, Note_on_c, 1, 64, 0
9, 16590, Note_on_c, 1, 59, 0
9, 16590, Note_on_c, 1, 64, 46
9, 16620, Note_on_c, 1, 64, 0
9, 16620, Note_on_c, 1, 59, 97
9, 16650, Note_on_c, 1, 59, 0
9, 16650, Note_on_c, 1, 59, 98
9, 16650, Note_on_c, 1, 64, 89
9, 16680, Note_on_c, 1, 64, 0
9, 16680, Note_on_c, 1, 59, 0
9, 17040, Note_on_c, 1, 56, 96
9, 17040, Note_on_c, 1, 63, 104
9, 17070, Note_on_c, 1, 63, 0
9, 17070, Note_on_c, 1, 56, 0
9, 17070, Note_on_c, 1, 63, 110
9, 17100, Note_on_c, 1, 63, 0
9, 17100, Note_on_c, 1, 56, 96
9, 17130, Note_on_c, 1, 56, 0
9, 17130, Note_on_c, 1, 63, 117
9, 17160, Note_on_c, 1, 63, 0
9, 17190, Note_on_c, 1, 56, 95
9, 17190, Note_on_c, 1, 63, 110
9, 17220, Note_on_c, 1, 63, 0
9, 17220, Note_on_c, 1, 56, 0
9, 17250, Note_on_c, 1, 56, 97
9, 17250, Note_on_c, 1, 63, 101
9, 17280, Note_on_c, 1, 56, 0
9, 17310, Note_on_c, 1, 63, 0
9, 17310, Note_on_c, 1, 59, 90
9, 17310, Note_on_c, 1, 64, 98
9, 17340, Note_on_c, 1, 64, 0
9, 17340, Note_on_c, 1, 59, 0
9, 17340, Note_on_c, 1, 59, 93
9, 17340, Note_on_c, 1, 64, 101
9, 17370, Note_on_c, 1, 64, 0
9, 17370, Note_on_c, 1, 59, 0
9, 17400, Note_on_c, 1, 59, 95
9, 17400, Note_on_c, 1, 64, 112
9, 17430, Note_on_c, 1, 64, 0
9, 17430, Note_on_c, 1, 59, 0
9, 17460, Note_on_c, 1, 59, 93
9, 17460, Note_on_c, 1, 64, 87
9, 17490, Note_on_c, 1, 64, 0
9, 17490, Note_on_c, 1, 59, 0
9, 17520, Note_on_c, 1, 59, 93
9, 17520, Note_on_c, 1, 64, 95
9, 17550, Note_on_c, 1, 64, 0
9, 17550, Note_on_c, 1, 59, 0
9, 17550, Note_on_c, 1, 64, 46
9, 17580, Note_on_c, 1, 64, 0
9, 17580, Note_on_c, 1, 59, 95
9, 17610, Note_on_c, 1, 59, 0
9, 17610, Note_on_c, 1, 59, 98
9, 17610, Note_on_c, 1, 64, 89
9, 17640, Note_on_c, 1, 64, 0
9, 17640, Note_on_c, 1, 59, 0
9, 18000, Note_on_c, 1, 56, 96
9, 18000, Note_on_c, 1, 63, 104
9, 18030, Note_on_c, 1, 63, 0
9, 18030, Note_on_c, 1, 56, 0
9, 18030, Note_on_c, 1, 56, 97
9, 18030, Note_on_c, 1, 63, 110
9, 18060, Note_on_c, 1, 63, 0
9, 18060, Note_on_c, 1, 56, 0
9, 18060, Note_on_c, 1, 56, 98
9, 18090, Note_on_c, 1, 56, 0
9, 18090, Note_on_c, 1, 63, 117
9, 18090, Note_on_c, 1, 56, 100
9, 18120, Note_on_c, 1, 56, 0
9, 18120, Note_on_c, 1, 63, 0
9, 18150, Note_on_c, 1, 63, 110
9, 18180, Note_on_c, 1, 63, 0
9, 18180, Note_on_c, 1, 56, 97
9, 18210, Note_on_c, 1, 56, 0
9, 18210, Note_on_c, 1, 56, 89
9, 18210, Note_on_c, 1, 63, 101
9, 18270, Note_on_c, 1, 63, 0
9, 18270, Note_on_c, 1, 56, 0
9, 18270, Note_on_c, 1, 59, 94
9, 18270, Note_on_c, 1, 64, 98
9, 18300, Note_on_c, 1, 64, 0
9, 18300, Note_on_c, 1, 64, 101
9, 18330, Note_on_c, 1, 64, 0
9, 18330, Note_on_c, 1, 59, 0
9, 18360, Note_on_c, 1, 64, 112
9, 18360, Note_on_c, 1, 59, 99
9, 18390, Note_on_c, 1, 59, 0
9, 18390, Note_on_c, 1, 64, 0
9, 18420, Note_on_c, 1, 64, 87
9, 18420, Note_on_c, 1, 59, 97
9, 18450, Note_on_c, 1, 59, 0
9, 18450, Note_on_c, 1, 64, 0
9, 18480, Note_on_c, 1, 64, 95
9, 18480, Note_on_c, 1, 59, 95
9, 18510, Note_on_c, 1, 59, 0
9, 18510, Note_on_c, 1, 64, 0
9, 18510, Note_on_c, 1, 64, 46
9, 18540, Note_on_c, 1, 64, 0
9, 18540, Note_on_c, 1, 59, 97
9, 18570, Note_on_c, 1, 59, 0
9, 18570, Note_on_c, 1, 64, 89
9, 18570, Note_on_c, 1, 59, 98
9, 18600, Note_on_c, 1, 59, 0
9, 18600, Note_on_c, 1, 64, 0
9, 18960, Note_on_c, 1, 63, 104
9, 18960, Note_on_c, 1, 56, 96
9, 18990, Note_on_c, 1, 56, 0
9, 18990, Note_on_c, 1, 63, 0
9, 18990, Note_on_c, 1, 63, 110
9, 19020, Note_on_c, 1, 63, 0
9, 19020, Note_on_c, 1, 56, 96
9, 19050, Note_on_c, 1, 56, 0
9, 19050, Note_on_c, 1, 63, 117
9, 19080, Note_on_c, 1, 63, 0
9, 19110, Note_on_c, 1, 56, 95
9, 19110, Note_on_c, 1, 63, 110
9, 19140, Note_on_c, 1, 63, 0
9, 19140, Note_on_c, 1, 56, 0
9, 19170, Note_on_c, 1, 56, 97
9, 19170, Note_on_c, 1, 63, 101
9, 19200, Note_on_c, 1, 56, 0
9, 19230, Note_on_c, 1, 63, 0
9, 19230, Note_on_c, 1, 59, 90
9, 19230, Note_on_c, 1, 64, 98
9, 19260, Note_on_c, 1, 64, 0
9, 19260, Note_on_c, 1, 59, 0
9, 19260, Note_on_c, 1, 59, 93
9, 19260, Note_on_c, 1, 64, 101
9, 19290, Note_on_c, 1, 64, 0
9, 19290, Note_on_c, 1, 59, 0
9, 19320, Note_on_c, 1, 59, 95
9, 19320, Note_on_c, 1, 64, 112
9, 19350, Note_on_c, 1, 64, 0
9, 19350, Note_on_c, 1, 59, 0
9, 19380, Note_on_c, 1, 59, 93
9, 19380, Note_on_c, 1, 64, 87
9, 19410, Note_on_c, 1, 64, 0
9, 19410, Note_on_c, 1, 59, 0
9, 19440, Note_on_c, 1, 64, 95
9, 19440, Note_on_c, 1, 59, 93
9, 19470, Note_on_c, 1, 59, 0
9, 19470, Note_on_c, 1, 64, 0
9, 19470, Note_on_c, 1, 64, 46
9, 19500, Note_on_c, 1, 64, 0
9, 19500, Note_on_c, 1, 59, 95
9, 19530, Note_on_c, 1, 59, 0
9, 19530, Note_on_c, 1, 59, 98
9, 19530, Note_on_c, 1, 64, 89
9, 19560, Note_on_c, 1, 64, 0
9, 19560, Note_on_c, 1, 59, 0
9, 19920, Note_on_c, 1, 56, 96
9, 19920, Note_on_c, 1, 63, 104
9, 19950, Note_on_c, 1, 63, 0
9, 19950, Note_on_c, 1, 56, 0
9, 19950, Note_on_c, 1, 56, 97
9, 19950, Note_on_c, 1, 63, 110
9, 19980, Note_on_c, 1, 63, 0
9, 19980, Note_on_c, 1, 56, 0
9, 19980, Note_on_c, 1, 56, 98
9, 20010, Note_on_c, 1, 56, 0
9, 20010, Note_on_c, 1, 56, 100
9, 20010, Note_on_c, 1, 63, 117
9, 20040, Note_on_c, 1, 63, 0
9, 20040, Note_on_c, 1, 56, 0
9, 20070, Note_on_c, 1, 63, 110
9, 20100, Note_on_c, 1, 63, 0
9, 20100, Note_on_c, 1, 56, 97
9, 20130, Note_on_c, 1, 56, 0
9, 20130, Note_on_c, 1, 56, 89
9, 20130, Note_on_c, 1, 63, 101
9, 20190, Note_on_c, 1, 63, 0
9, 20190, Note_on_c, 1, 56, 0
9, 20190, Note_on_c, 1, 59, 94
9, 20190, Note_on_c, 1, 64, 98
9, 20220, Note_on_c, 1, 64, 0
9, 20220, Note_on_c, 1, 64, 101
9, 20250, Note_on_c, 1, 64, 0
9, 20250, Note_on_c, 1, 59, 0
9, 20280, Note_on_c, 1, 59, 99
9, 20280, Note_on_c, 1, 64, 112
9, 20310, Note_on_c, 1, 64, 0
9, 20310, Note_on_c, 1, 59, 0
9, 20340, Note_on_c, 1, 59, 97
9, 20340, Note_on_c, 1, 64, 87
9, 20370, Note_on_c, 1, 64, 0
9, 20370, Note_on_c, 1, 59, 0
9, 20400, Note_on_c, 1, 59, 95
9, 20400, Note_on_c, 1, 64, 95
9, 20430, Note_on_c, 1, 64, 0
9, 20430, Note_on_c, 1, 59, 0
9, 20430, Note_on_c, 1, 64, 46
9, 20460, Note_on_c, 1, 64, 0
9, 20460, Note_on_c, 1, 59, 97
9, 20490, Note_on_c, 1, 59, 0
9, 20490, Note_on_c, 1, 59, 98
9, 20490, Note_on_c, 1, 64, 89
9, 20520, Note_on_c, 1, 64, 0
9, 20520, Note_on_c, 1, 59, 0
9, 21030, Note_on_c, 1, 56, 95
9, 21030, Note_on_c, 1, 63, 110
9, 21060, Note_on_c, 1, 63, 0
9, 21060, Note_on_c, 1, 56, 0
9, 21090, Note_on_c, 1, 56, 97
9, 21090, Note_on_c, 1, 63, 101
9, 21120, Note_on_c, 1, 56, 0
9, 21150, Note_on_c, 1, 63, 0
9, 21150, Note_on_c, 1, 59, 90
9, 21150, Note_on_c, 1, 64, 98
9, 21180, Note_on_c, 1, 64, 0
9, 21180, Note_on_c, 1, 59, 0
9, 21180, Note_on_c, 1, 59, 93
9, 21180, Note_on_c, 1, 64, 101
9, 21210, Note_on_c, 1, 64, 0
9, 21210, Note_on_c, 1, 59, 0
9, 21240, Note_on_c, 1, 59, 95
9, 21240, Note_on_c, 1, 64, 112
9, 21270, Note_on_c, 1, 64, 0
9, 21270, Note_on_c, 1, 59, 0
9, 21300, Note_on_c, 1, 59, 93
9, 21300, Note_on_c, 1, 64, 87
9, 21330, Note_on_c, 1, 64, 0
9, 21330, Note_on_c, 1, 59, 0
9, 21360, Note_on_c, 1, 64, 95
9, 21360, Note_on_c, 1, 59, 93
9, 21390, Note_on_c, 1, 59, 0
9, 21390, Note_on_c, 1, 64, 0
9, 21390, Note_on_c, 1, 64, 46
9, 21420, Note_on_c, 1, 64, 0
9, 21420, Note_on_c, 1, 59, 95
9, 21450, Note_on_c, 1, 59, 0
9, 21450, Note_on_c, 1, 59, 98
9, 21450, Note_on_c, 1, 64, 89
9, 21480, Note_on_c, 1, 64, 0
9, 21480, Note_on_c, 1, 59, 0
9, 21990, Note_on_c, 1, 56, 95
9, 21990, Note_on_c, 1, 63, 110
9, 22020, Note_on_c, 1, 63, 0
9, 22020, Note_on_c, 1, 56, 0
9, 22050, Note_on_c, 1, 56, 97
9, 22050, Note_on_c, 1, 63, 101
9, 22080, Note_on_c, 1, 56, 0
9, 22110, Note_on_c, 1, 63, 0
9, 22110, Note_on_c, 1, 59, 90
9, 22110, Note_on_c, 1, 64, 98
9, 22140, Note_on_c, 1, 64, 0
9, 22140, Note_on_c, 1, 59, 0
9, 22140, Note_on_c, 1, 59, 93
9, 22140, Note_on_c, 1, 64, 101
9, 22170, Note_on_c, 1, 64, 0
9, 22170, Note_on_c, 1, 59, 0
9, 22200, Note_on_c, 1, 59, 95
9, 22200, Note_on_c, 1, 64, 112
9, 22230, Note_on_c, 1, 64, 0
9, 22230, Note_on_c, 1, 59, 0
9, 22260, Note_on_c, 1, 59, 93
9, 22260, Note_on_c, 1, 64, 87
9, 22290, Note_on_c, 1, 64, 0
9, 22290, Note_on_c, 1, 59, 0
9, 22320, Note_on_c, 1, 64, 95
9, 22320, Note_on_c, 1, 59, 93
9, 22350, Note_on_c, 1, 59, 0
9, 22350, Note_on_c, 1, 64, 0
9, 22350, Note_on_c, 1, 64, 46
9, 22380, Note_on_c, 1, 64, 0
9, 22380, Note_on_c, 1, 59, 95
9, 22410, Note_on_c, 1, 59, 0
9, 22410, Note_on_c, 1, 59, 98
9, 22410, Note_on_c, 1, 64, 89
9, 22440, Note_on_c, 1, 64, 0
9, 22440, Note_on_c, 1, 59, 0
9, 26640, Note_on_c, 1, 63, 104
9, 26640, Note_on_c, 1, 56, 96
9, 26670, Note_on_c, 1, 56, 0
9, 26670, Note_on_c, 1, 63, 0
9, 26670, Note_on_c, 1, 63, 110
9, 26700, Note_on_c, 1, 63, 0
9, 26700, Note_on_c, 1, 56, 96
9, 26730, Note_on_c, 1, 56, 0
9, 26730, Note_on_c, 1, 63, 117
9, 26760, Note_on_c, 1, 63, 0
9, 26790, Note_on_c, 1, 56, 95
9, 26790, Note_on_c, 1, 63, 110
9, 26820, Note_on_c, 1, 63, 0
9, 26820, Note_on_c, 1, 56, 0
9, 26850, Note_on_c, 1, 56, 97
9, 26850, Note_on_c, 1, 63, 101
9, 26880, Note_on_c, 1, 56, 0
9, 26910, Note_on_c, 1, 63, 0
9, 26910, Note_on_c, 1, 59, 90
9, 26910, Note_on_c, 1, 64, 98
9, 26940, Note_on_c, 1, 64, 0
9, 26940, Note_on_c, 1, 59, 0
9, 26940, Note_on_c, 1, 59, 93
9, 26940, Note_on_c, 1, 64, 101
9, 26970, Note_on_c, 1, 64, 0
9, 26970, Note_on_c, 1, 59, 0
9, 27000, Note_on_c, 1, 59, 95
9, 27000, Note_on_c, 1, 64, 112
9, 27030, Note_on_c, 1, 64, 0
9, 27030, Note_on_c, 1, 59, 0
9, 27060, Note_on_c, 1, 59, 93
9, 27060, Note_on_c, 1, 64, 87
9, 27090, Note_on_c, 1, 64, 0
9, 27090, Note_on_c, 1, 59, 0
9, 27120, Note_on_c, 1, 64, 95
9, 27120, Note_on_c, 1, 59, 93
9, 27150, Note_on_c, 1, 59, 0
9, 27150, Note_on_c, 1, 64, 0
9, 27150, Note_on_c, 1, 64, 46
9, 27180, Note_on_c, 1, 64, 0
9, 27180, Note_on_c, 1, 59, 95
9, 27210, Note_on_c, 1, 59, 0
9, 27210, Note_on_c, 1, 59, 98
9, 27210, Note_on_c, 1, 64, 89
9, 27240, Note_on_c, 1, 64, 0
9, 27240, Note_on_c, 1, 59, 0
9, 27600, Note_on_c, 1, 56, 96
9, 27600, Note_on_c, 1, 63, 104
9, 27630, Note_on_c, 1, 63, 0
9, 27630, Note_on_c, 1, 56, 0
9, 27630, Note_on_c, 1, 56, 97
9, 27630, Note_on_c, 1, 63, 110
9, 27660, Note_on_c, 1, 63, 0
9, 27660, Note_on_c, 1, 56, 0
9, 27660, Note_on_c, 1, 56, 98
9, 27690, Note_on_c, 1, 56, 0
9, 27690, Note_on_c, 1, 56, 100
9, 27690, Note_on_c, 1, 63, 117
9, 27720, Note_on_c, 1, 63, 0
9, 27720, Note_on_c, 1, 56, 0
9, 27750, Note_on_c, 1, 63, 110
9, 27780, Note_on_c, 1, 63, 0
9, 27780, Note_on_c, 1, 56, 97
9, 27810, Note_on_c, 1, 56, 0
9, 27810, Note_on_c, 1, 56, 89
9, 27810, Note_on_c, 1, 63, 101
9, 27870, Note_on_c, 1, 63, 0
9, 27870, Note_on_c, 1, 56, 0
9, 27870, Note_on_c, 1, 59, 94
9, 27870, Note_on_c, 1, 64, 98
9, 27900, Note_on_c, 1, 64, 0
9, 27900, Note_on_c, 1, 64, 101
9, 27930, Note_on_c, 1, 64, 0
9, 27930, Note_on_c, 1, 59, 0
9, 27960, Note_on_c, 1, 59, 99
9, 27960, Note_on_c, 1, 64, 112
9, 27990, Note_on_c, 1, 64, 0
9, 27990, Note_on_c, 1, 59, 0
9, 28020, Note_on_c, 1, 59, 97
9, 28020, Note_on_c, 1, 64, 87
9, 28050, Note_on_c, 1, 64, 0
9, 28050, Note_on_c, 1, 59, 0
9, 28080, Note_on_c, 1, 59, 95
9, 28080, Note_on_c, 1, 64, 95
9, 28110, Note_on_c, 1, 64, 0
9, 28110, Note_on_c, 1, 59, 0
9, 28110, Note_on_c, 1, 64, 46
9, 28140, Note_on_c, 1, 64, 0
9, 28140, Note_on_c, 1, 59, 97
9, 28170, Note_on_c, 1, 59, 0
9, 28170, Note_on_c, 1, 59, 98
9, 28170, Note_on_c, 1, 64, 89
9, 28200, Note_on_c, 1, 64, 0
9, 28200, Note_on_c, 1, 59, 0
9, 28560, Note_on_c, 1, 63, 104
9, 28560, Note_on_c, 1, 56, 96
9, 28590, Note_on_c, 1, 56, 0
9, 28590, Note_on_c, 1, 63, 0
9, 28590, Note_on_c, 1, 63, 110
9, 28620, Note_on_c, 1, 63, 0
9, 28620, Note_on_c, 1, 56, 96
9, 28650, Note_on_c, 1, 56, 0
9, 28650, Note_on_c, 1, 63, 117
9, 28680, Note_on_c, 1, 63, 0
9, 28710, Note_on_c, 1, 56, 95
9, 28710, Note_on_c, 1, 63, 110
9, 28740, Note_on_c, 1, 63, 0
9, 28740, Note_on_c, 1, 56, 0
9, 28770, Note_on_c, 1, 56, 97
9, 28770, Note_on_c, 1, 63, 101
9, 28800, Note_on_c, 1, 56, 0
9, 28830, Note_on_c, 1, 63, 0
9, 28830, Note_on_c, 1, 59, 90
9, 28830, Note_on_c, 1, 64, 98
9, 28860, Note_on_c, 1, 64, 0
9, 28860, Note_on_c, 1, 59, 0
9, 28860, Note_on_c, 1, 59, 93
9, 28860, Note_on_c, 1, 64, 101
9, 28890, Note_on_c, 1, 64, 0
9, 28890, Note_on_c, 1, 59, 0
9, 28920, Note_on_c, 1, 59, 95
9, 28920, Note_on_c, 1, 64, 112
9, 28950, Note_on_c, 1, 64, 0
9, 28950, Note_on_c, 1, 59, 0
9, 28980, Note_on_c, 1, 59, 93
9, 28980, Note_on_c, 1, 64, 87
9, 29010, Note_on_c, 1, 64, 0
9, 29010, Note_on_c, 1, 59, 0
9, 29040, Note_on_c, 1, 64, 95
9, 29040, Note_on_c, 1, 59, 93
9, 29070, Note_on_c, 1, 59, 0
9, 29070, Note_on_c, 1, 64, 0
9, 29070, Note_on_c, 1, 64, 46
9, 29100, Note_on_c, 1, 64, 0
9, 29100, Note_on_c, 1, 59, 95
9, 29130, Note_on_c, 1, 59, 0
9, 29130, Note_on_c, 1, 59, 98
9, 29130, Note_on_c, 1, 64, 89
9, 29160, Note_on_c, 1, 64, 0
9, 29160, Note_on_c, 1, 59, 0
9, 29520, Note_on_c, 1, 56, 96
9, 29520, Note_on_c, 1, 63, 104
9, 29550, Note_on_c, 1, 63, 0
9, 29550, Note_on_c, 1, 56, 0
9, 29550, Note_on_c, 1, 56, 97
9, 29550, Note_on_c, 1, 63, 110
9, 29580, Note_on_c, 1, 63, 0
9, 29580, Note_on_c, 1, 56, 0
9, 29580, Note_on_c, 1, 56, 98
9, 29610, Note_on_c, 1, 56, 0
9, 29610, Note_on_c, 1, 56, 100
9, 29610, Note_on_c, 1, 63, 117
9, 29640, Note_on_c, 1, 63, 0
9, 29640, Note_on_c, 1, 56, 0
9, 29670, Note_on_c, 1, 63, 110
9, 29700, Note_on_c, 1, 63, 0
9, 29700, Note_on_c, 1, 56, 97
9, 29730, Note_on_c, 1, 56, 0
9, 29730, Note_on_c, 1, 56, 89
9, 29730, Note_on_c, 1, 63, 101
9, 29790, Note_on_c, 1, 63, 0
9, 29790, Note_on_c, 1, 56, 0
9, 29790, Note_on_c, 1, 59, 94
9, 29790, Note_on_c, 1, 64, 98
9, 29820, Note_on_c, 1, 64, 0
9, 29820, Note_on_c, 1, 64, 101
9, 29850, Note_on_c, 1, 64, 0
9, 29850, Note_on_c, 1, 59, 0
9, 29880, Note_on_c, 1, 59, 99
9, 29880, Note_on_c, 1, 64, 112
9, 29910, Note_on_c, 1, 64, 0
9, 29910, Note_on_c, 1, 59, 0
9, 29940, Note_on_c, 1, 59, 97
9, 29940, Note_on_c, 1, 64, 87
9, 29970, Note_on_c, 1, 64, 0
9, 29970, Note_on_c, 1, 59, 0
9, 30000, Note_on_c, 1, 59, 95
9, 30000, Note_on_c, 1, 64, 95
9, 30030, Note_on_c, 1, 64, 0
9, 30030, Note_on_c, 1, 59, 0
9, 30030, Note_on_c, 1, 64, 46
9, 30060, Note_on_c, 1, 64, 0
9, 30060, Note_on_c, 1, 59, 97
9, 30090, Note_on_c, 1, 59, 0
9, 30090, Note_on_c, 1, 59, 98
9, 30090, Note_on_c, 1, 64, 89
9, 30120, Note_on_c, 1, 64, 0
9, 30120, Note_on_c, 1, 59, 0
9, 30480, Note_on_c, 1, 63, 104
9, 30480, Note_on_c, 1, 56, 96
9, 30510, Note_on_c, 1, 56, 0
9, 30510, Note_on_c, 1, 63, 0
9, 30510, Note_on_c, 1, 63, 110
9, 30540, Note_on_c, 1, 63, 0
9, 30540, Note_on_c, 1, 56, 96
9, 30570, Note_on_c, 1, 56, 0
9, 30570, Note_on_c, 1, 63, 117
9, 30600, Note_on_c, 1, 63, 0
9, 30630, Note_on_c, 1, 56, 95
9, 30630, Note_on_c, 1, 63, 110
9, 30660, Note_on_c, 1, 63, 0
9, 30660, Note_on_c, 1, 56, 0
9, 30690, Note_on_c, 1, 56, 97
9, 30690, Note_on_c, 1, 63, 101
9, 30720, Note_on_c, 1, 56, 0
9, 30750, Note_on_c, 1, 63, 0
9, 30750, Note_on_c, 1, 59, 90
9, 30750, Note_on_c, 1, 64, 98
9, 30780, Note_on_c, 1, 64, 0
9, 30780, Note_on_c, 1, 59, 0
9, 30780, Note_on_c, 1, 59, 93
9, 30780, Note_on_c, 1, 64, 101
9, 30810, Note_on_c, 1, 64, 0
9, 30810, Note_on_c, 1, 59, 0
9, 30840, Note_on_c, 1, 59, 95
9, 30840, Note_on_c, 1, 64, 112
9, 30870, Note_on_c, 1, 64, 0
9, 30870, Note_on_c, 1, 59, 0
9, 30900, Note_on_c, 1, 59, 93
9, 30900, Note_on_c, 1, 64, 87
9, 30930, Note_on_c, 1, 64, 0
9, 30930, Note_on_c, 1, 59, 0
9, 30960, Note_on_c, 1, 64, 95
9, 30960, Note_on_c, 1, 59, 93
9, 30990, Note_on_c, 1, 59, 0
9, 30990, Note_on_c, 1, 64, 0
9, 30990, Note_on_c, 1, 64, 46
9, 31020, Note_on_c, 1, 64, 0
9, 31020, Note_on_c, 1, 59, 95
9, 31050, Note_on_c, 1, 59, 0
9, 31050, Note_on_c, 1, 59, 98
9, 31050, Note_on_c, 1, 64, 89
9, 31080, Note_on_c, 1, 64, 0
9, 31080, Note_on_c, 1, 59, 0
9, 31440, Note_on_c, 1, 56, 96
9, 31440, Note_on_c, 1, 63, 104
9, 31470, Note_on_c, 1, 63, 0
9, 31470, Note_on_c, 1, 56, 0
9, 31470, Note_on_c, 1, 56, 97
9, 31470, Note_on_c, 1, 63, 110
9, 31500, Note_on_c, 1, 63, 0
9, 31500, Note_on_c, 1, 56, 0
9, 31500, Note_on_c, 1, 56, 98
9, 31530, Note_on_c, 1, 56, 0
9, 31530, Note_on_c, 1, 56, 100
9, 31530, Note_on_c, 1, 63, 117
9, 31560, Note_on_c, 1, 63, 0
9, 31560, Note_on_c, 1, 56, 0
9, 31590, Note_on_c, 1, 63, 110
9, 31620, Note_on_c, 1, 63, 0
9, 31620, Note_on_c, 1, 56, 97
9, 31650, Note_on_c, 1, 56, 0
9, 31650, Note_on_c, 1, 56, 89
9, 31650, Note_on_c, 1, 63, 101
9, 31710, Note_on_c, 1, 63, 0
9, 31710, Note_on_c, 1, 56, 0
9, 31710, Note_on_c, 1, 59, 94
9, 31710, Note_on_c, 1, 64, 98
9, 31740, Note_on_c, 1, 64, 0
9, 31740, Note_on_c, 1, 64, 101
9, 31770, Note_on_c, 1, 64, 0
9, 31770, Note_on_c, 1, 59, 0
9, 31800, Note_on_c, 1, 59, 99
9, 31800, Note_on_c, 1, 64, 112
9, 31830, Note_on_c, 1, 64, 0
9, 31830, Note_on_c, 1, 59, 0
9, 31860, Note_on_c, 1, 59, 97
9, 31860, Note_on_c, 1, 64, 87
9, 31890, Note_on_c, 1, 64, 0
9, 31890, Note_on_c, 1, 59, 0
9, 31920, Note_on_c, 1, 59, 95
9, 31920, Note_on_c, 1, 64, 95
9, 31950, Note_on_c, 1, 64, 0
9, 31950, Note_on_c, 1, 59, 0
9, 31950, Note_on_c, 1, 64, 46
9, 31980, Note_on_c, 1, 64, 0
9, 31980, Note_on_c, 1, 59, 97
9, 32010, Note_on_c, 1, 59, 0
9, 32010, Note_on_c, 1, 59, 98
9, 32010, Note_on_c, 1, 64, 89
9, 32040, Note_on_c, 1, 64, 0
9, 32040, Note_on_c, 1, 59, 0
9, 32400, Note_on_c, 1, 63, 104
9, 32400, Note_on_c, 1, 56, 96
9, 32430, Note_on_c, 1, 56, 0
9, 32430, Note_on_c, 1, 63, 0
9, 32430, Note_on_c, 1, 63, 110
9, 32460, Note_on_c, 1, 63, 0
9, 32460, Note_on_c, 1, 56, 96
9, 32490, Note_on_c, 1, 56, 0
9, 32490, Note_on_c, 1, 63, 117
9, 32520, Note_on_c, 1, 63, 0
9, 32550, Note_on_c, 1, 56, 95
9, 32550, Note_on_c, 1, 63, 110
9, 32580, Note_on_c, 1, 63, 0
9, 32580, Note_on_c, 1, 56, 0
9, 32610, Note_on_c, 1, 56, 97
9, 32610, Note_on_c, 1, 63, 101
9, 32640, Note_on_c, 1, 56, 0
9, 32670, Note_on_c, 1, 63, 0
9, 32670, Note_on_c, 1, 59, 90
9, 32670, Note_on_c, 1, 64, 98
9, 32700, Note_on_c, 1, 64, 0
9, 32700, Note_on_c, 1, 59, 0
9, 32700, Note_on_c, 1, 59, 93
9, 32700, Note_on_c, 1, 64, 101
9, 32730, Note_on_c, 1, 64, 0
9, 32730, Note_on_c, 1, 59, 0
9, 32760, Note_on_c, 1, 59, 95
9, 32760, Note_on_c, 1, 64, 112
9, 32790, Note_on_c, 1, 64, 0
9, 32790, Note_on_c, 1, 59, 0
9, 32820, Note_on_c, 1, 59, 93
9, 32820, Note_on_c, 1, 64, 87
9, 32850, Note_on_c, 1, 64, 0
9, 32850, Note_on_c, 1, 59, 0
9, 32880, Note_on_c, 1, 64, 95
9, 32880, Note_on_c, 1, 59, 93
9, 32910, Note_on_c, 1, 59, 0
9, 32910, Note_on_c, 1, 64, 0
9, 32910, Note_on_c, 1, 64, 46
9, 32940, Note_on_c, 1, 64, 0
9, 32940, Note_on_c, 1, 59, 95
9, 32970, Note_on_c, 1, 59, 0
9, 32970, Note_on_c, 1, 59, 98
9, 32970, Note_on_c, 1, 64, 89
9, 33000, Note_on_c, 1, 64, 0
9, 33000, Note_on_c, 1, 59, 0
9, 33360, Note_on_c, 1, 56, 96
9, 33360, Note_on_c, 1, 63, 104
9, 33390, Note_on_c, 1, 63, 0
9, 33390, Note_on_c, 1, 56, 0
9, 33390, Note_on_c, 1, 56, 97
9, 33390, Note_on_c, 1, 63, 110
9, 33420, Note_on_c, 1, 63, 0
9, 33420, Note_on_c, 1, 56, 0
9, 33420, Note_on_c, 1, 56, 98
9, 33450, Note_on_c, 1, 56, 0
9, 33450, Note_on_c, 1, 56, 100
9, 33450, Note_on_c, 1, 63, 117
9, 33480, Note_on_c, 1, 63, 0
9, 33480, Note_on_c, 1, 56, 0
9, 33510, Note_on_c, 1, 63, 110
9, 33540, Note_on_c, 1, 63, 0
9, 33540, Note_on_c, 1, 56, 97
9, 33570, Note_on_c, 1, 56, 0
9, 33570, Note_on_c, 1, 56, 89
9, 33570, Note_on_c, 1, 63, 101
9, 33630, Note_on_c, 1, 63, 0
9, 33630, Note_on_c, 1, 56, 0
9, 33630, Note_on_c, 1, 59, 94
9, 33630, Note_on_c, 1, 64, 98
9, 33660, Note_on_c, 1, 64, 0
9, 33660, Note_on_c, 1, 64, 101
9, 33690, Note_on_c, 1, 64, 0
9, 33690, Note_on_c, 1, 59, 0
9, 33720, Note_on_c, 1, 59, 99
9, 33720, Note_on_c, 1, 64, 112
9, 33750, Note_on_c, 1, 64, 0
9, 33750, Note_on_c, 1, 59, 0
9, 33780, Note_on_c, 1, 59, 97
9, 33780, Note_on_c, 1, 64, 87
9, 33810, Note_on_c, 1, 64, 0
9, 33810, Note_on_c, 1, 59, 0
9, 33840, Note_on_c, 1, 59, 95
9, 33840, Note_on_c, 1, 64, 95
9, 33870, Note_on_c, 1, 64, 0
9, 33870, Note_on_c, 1, 59, 0
9, 33870, Note_on_c, 1, 64, 46
9, 33900, Note_on_c, 1, 64, 0
9, 33900, Note_on_c, 1, 59, 97
9, 33930, Note_on_c, 1, 59, 0
9, 33930, Note_on_c, 1, 59, 98
9, 33930, Note_on_c, 1, 64, 89
9, 33960, Note_on_c, 1, 64, 0
9, 33960, Note_on_c, 1, 59, 0
9, 42000, Note_on_c, 1, 63, 104
9, 42000, Note_on_c, 1, 56, 96
9, 42030, Note_on_c, 1, 56, 0
9, 42030, Note_on_c, 1, 63, 0
9, 42030, Note_on_c, 1, 63, 110
9, 42060, Note_on_c, 1, 63, 0
9, 42060, Note_on_c, 1, 56, 96
9, 42090, Note_on_c, 1, 56, 0
9, 42090, Note_on_c, 1, 63, 117
9, 42120, Note_on_c, 1, 63, 0
9, 42150, Note_on_c, 1, 56, 95
9, 42150, Note_on_c, 1, 63, 110
9, 42180, Note_on_c, 1, 63, 0
9, 42180, Note_on_c, 1, 56, 0
9, 42210, Note_on_c, 1, 56, 97
9, 42210, Note_on_c, 1, 63, 101
9, 42240, Note_on_c, 1, 56, 0
9, 42270, Note_on_c, 1, 63, 0
9, 42270, Note_on_c, 1, 59, 90
9, 42270, Note_on_c, 1, 64, 98
9, 42300, Note_on_c, 1, 64, 0
9, 42300, Note_on_c, 1, 59, 0
9, 42300, Note_on_c, 1, 59, 93
9, 42300, Note_on_c, 1, 64, 101
9, 42330, Note_on_c, 1, 64, 0
9, 42330, Note_on_c, 1, 59, 0
9, 42360, Note_on_c, 1, 59, 95
9, 42360, Note_on_c, 1, 64, 112
9, 42390, Note_on_c, 1, 64, 0
9, 42390, Note_on_c, 1, 59, 0
9, 42420, Note_on_c, 1, 59, 93
9, 42420, Note_on_c, 1, 64, 87
9, 42450, Note_on_c, 1, 64, 0
9, 42450, Note_on_c, 1, 59, 0
9, 42480, Note_on_c, 1, 64, 95
9, 42480, Note_on_c, 1, 59, 93
9, 42510, Note_on_c, 1, 59, 0
9, 42510, Note_on_c, 1, 64, 0
9, 42510, Note_on_c, 1, 64, 46
9, 42540, Note_on_c, 1, 64, 0
9, 42540, Note_on_c, 1, 59, 95
9, 42570, Note_on_c, 1, 59, 0
9, 42570, Note_on_c, 1, 59, 98
9, 42570, Note_on_c, 1, 64, 89
9, 42600, Note_on_c, 1, 64, 0
9, 42600, Note_on_c, 1, 59, 0
9, 42960, Note_on_c, 1, 56, 96
9, 42960, Note_on_c, 1, 63, 104
9, 42990, Note_on_c, 1, 63, 0
9, 42990, Note_on_c, 1, 56, 0
9, 42990, Note_on_c, 1, 56, 97
9, 42990, Note_on_c, 1, 63, 110
9, 43020, Note_on_c, 1, 63, 0
9, 43020, Note_on_c, 1, 56, 0
9, 43020, Note_on_c, 1, 56, 98
9, 43050, Note_on_c, 1, 56, 0
9, 43050, Note_on_c, 1, 56, 100
9, 43050, Note_on_c, 1, 63, 117
9, 43080, Note_on_c, 1, 63, 0
9, 43080, Note_on_c, 1, 56, 0
9, 43110, Note_on_c, 1, 63, 110
9, 43140, Note_on_c, 1, 63, 0
9, 43140, Note_on_c, 1, 56, 97
9, 43170, Note_on_c, 1, 56, 0
9, 43170, Note_on_c, 1, 56, 89
9, 43170, Note_on_c, 1, 63, 101
9, 43230, Note_on_c, 1, 63, 0
9, 43230, Note_on_c, 1, 56, 0
9, 43230, Note_on_c, 1, 59, 94
9, 43230, Note_on_c, 1, 64, 98
9, 43260, Note_on_c, 1, 64, 0
9, 43260, Note_on_c, 1, 64, 101
9, 43290, Note_on_c, 1, 64, 0
9, 43290, Note_on_c, 1, 59, 0
9, 43320, Note_on_c, 1, 59, 99
9, 43320, Note_on_c, 1, 64, 112
9, 43350, Note_on_c, 1, 64, 0
9, 43350, Note_on_c, 1, 59, 0
9, 43380, Note_on_c, 1, 59, 97
9, 43380, Note_on_c, 1, 64, 87
9, 43410, Note_on_c, 1, 64, 0
9, 43410, Note_on_c, 1, 59, 0
9, 43440, Note_on_c, 1, 59, 95
9, 43440, Note_on_c, 1, 64, 95
9, 43470, Note_on_c, 1, 64, 0
9, 43470, Note_on_c, 1, 59, 0
9, 43470, Note_on_c, 1, 64, 46
9, 43500, Note_on_c, 1, 64, 0
9, 43500, Note_on_c, 1, 59, 97
9, 43530, Note_on_c, 1, 59, 0
9, 43530, Note_on_c, 1, 59, 98
9, 43530, Note_on_c, 1, 64, 89
9, 43560, Note_on_c, 1, 64, 0
9, 43560, Note_on_c, 1, 59, 0
9, 45840, Note_on_c, 1, 63, 104
9, 45840, Note_on_c, 1, 56, 96
9, 45870, Note_on_c, 1, 56, 0
9, 45870, Note_on_c, 1, 63, 0
9, 45870, Note_on_c, 1, 63, 110
9, 45900, Note_on_c, 1, 63, 0
9, 45900, Note_on_c, 1, 56, 96
9, 45930, Note_on_c, 1, 56, 0
9, 45930, Note_on_c, 1, 63, 117
9, 45960, Note_on_c, 1, 63, 0
9, 45990, Note_on_c, 1, 56, 95
9, 45990, Note_on_c, 1, 63, 110
9, 46020, Note_on_c, 1, 63, 0
9, 46020, Note_on_c, 1, 56, 0
9, 46050, Note_on_c, 1, 56, 97
9, 46050, Note_on_c, 1, 63, 101
9, 46080, Note_on_c, 1, 56, 0
9, 46110, Note_on_c, 1, 63, 0
9, 46110, Note_on_c, 1, 59, 90
9, 46110, Note_on_c, 1, 64, 98
9, 46140, Note_on_c, 1, 64, 0
9, 46140, Note_on_c, 1, 59, 0
9, 46140, Note_on_c, 1, 59, 93
9, 46140, Note_on_c, 1, 64, 101
9, 46170, Note_on_c, 1, 64, 0
9, 46170, Note_on_c, 1, 59, 0
9, 46200, Note_on_c, 1, 59, 95
9, 46200, Note_on_c, 1, 64, 112
9, 46230, Note_on_c, 1, 64, 0
9, 46230, Note_on_c, 1, 59, 0
9, 46260, Note_on_c, 1, 59, 93
9, 46260, Note_on_c, 1, 64, 87
9, 46290, Note_on_c, 1, 64, 0
9, 46290, Note_on_c, 1, 59, 0
9, 46320, Note_on_c, 1, 64, 95
9, 46320, Note_on_c, 1, 59, 93
9, 46350, Note_on_c, 1, 59, 0
9, 46350, Note_on_c, 1, 64, 0
9, 46350, Note_on_c, 1, 64, 46
9, 46380, Note_on_c, 1, 64, 0
9, 46380, Note_on_c, 1, 59, 95
9, 46410, Note_on_c, 1, 59, 0
9, 46410, Note_on_c, 1, 59, 98
9, 46410, Note_on_c, 1, 64, 89
9, 46440, Note_on_c, 1, 64, 0
9, 46440, Note_on_c, 1, 59, 0
9, 46800, Note_on_c, 1, 56, 96
9, 46800, Note_on_c, 1, 63, 104
9, 46830, Note_on_c, 1, 63, 0
9, 46830, Note_on_c, 1, 56, 0
9, 46830, Note_on_c, 1, 56, 97
9, 46830, Note_on_c, 1, 63, 110
9, 46860, Note_on_c, 1, 63, 0
9, 46860, Note_on_c, 1, 56, 0
9, 46860, Note_on_c, 1, 56, 98
9, 46890, Note_on_c, 1, 56, 0
9, 46890, Note_on_c, 1, 56, 100
9, 46890, Note_on_c, 1, 63, 117
9, 46920, Note_on_c, 1, 63, 0
9, 46920, Note_on_c, 1, 56, 0
9, 46950, Note_on_c, 1, 63, 110
9, 46980, Note_on_c, 1, 63, 0
9, 46980, Note_on_c, 1, 56, 97
9, 47010, Note_on_c, 1, 56, 0
9, 47010, Note_on_c, 1, 56, 89
9, 47010, Note_on_c, 1, 63, 101
9, 47070, Note_on_c, 1, 63, 0
9, 47070, Note_on_c, 1, 56, 0
9, 47070, Note_on_c, 1, 59, 94
9, 47070, Note_on_c, 1, 64, 98
9, 47100, Note_on_c, 1, 64, 0
9, 47100, Note_on_c, 1, 64, 101
9, 47130, Note_on_c, 1, 64, 0
9, 47130, Note_on_c, 1, 59, 0
9, 47160, Note_on_c, 1, 59, 99
9, 47160, Note_on_c, 1, 64, 112
9, 47190, Note_on_c, 1, 64, 0
9, 47190, Note_on_c, 1, 59, 0
9, 47220, Note_on_c, 1, 59, 97
9, 47220, Note_on_c, 1, 64, 87
9, 47250, Note_on_c, 1, 64, 0
9, 47250, Note_on_c, 1, 59, 0
9, 47280, Note_on_c, 1, 59, 95
9, 47280, Note_on_c, 1, 64, 95
9, 47310, Note_on_c, 1, 64, 0
9, 47310, Note_on_c, 1, 59, 0
9, 47310, Note_on_c, 1, 64, 46
9, 47340, Note_on_c, 1, 64, 0
9, 47340, Note_on_c, 1, 59, 97
9, 47370, Note_on_c, 1, 59, 0
9, 47370, Note_on_c, 1, 59, 98
9, 47370, Note_on_c, 1, 64, 89
9, 47400, Note_on_c, 1, 64, 0
9, 47400, Note_on_c, 1, 59, 0
9, 47760, Note_on_c, 1, 63, 104
9, 47760, Note_on_c, 1, 56, 96
9, 47790, Note_on_c, 1, 56, 0
9, 47790, Note_on_c, 1, 63, 0
9, 47790, Note_on_c, 1, 63, 110
9, 47820, Note_on_c, 1, 63, 0
9, 47820, Note_on_c, 1, 56, 96
9, 47850, Note_on_c, 1, 56, 0
9, 47850, Note_on_c, 1, 63, 117
9, 47880, Note_on_c, 1, 63, 0
9, 47910, Note_on_c, 1, 56, 95
9, 47910, Note_on_c, 1, 63, 110
9, 47940, Note_on_c, 1, 63, 0
9, 47940, Note_on_c, 1, 56, 0
9, 47970, Note_on_c, 1, 56, 97
9, 47970, Note_on_c, 1, 63, 101
9, 48000, Note_on_c, 1, 56, 0
9, 48030, Note_on_c, 1, 63, 0
9, 48030, Note_on_c, 1, 59, 90
9, 48030, Note_on_c, 1, 64, 98
9, 48060, Note_on_c, 1, 64, 0
9, 48060, Note_on_c, 1, 59, 0
9, 48060, Note_on_c, 1, 59, 93
9, 48060, Note_on_c, 1, 64, 101
9, 48090, Note_on_c, 1, 64, 0
9, 48090, Note_on_c, 1, 59, 0
9, 48120, Note_on_c, 1, 59, 95
9, 48120, Note_on_c, 1, 64, 112
9, 48150, Note_on_c, 1, 64, 0
9, 48150, Note_on_c, 1, 59, 0
9, 48180, Note_on_c, 1, 59, 93
9, 48180, Note_on_c, 1, 64, 87
9, 48210, Note_on_c, 1, 64, 0
9, 48210, Note_on_c, 1, 59, 0
9, 48240, Note_on_c, 1, 64, 95
9, 48240, Note_on_c, 1, 59, 93
9, 48270, Note_on_c, 1, 59, 0
9, 48270, Note_on_c, 1, 64, 0
9, 48270, Note_on_c, 1, 64, 46
9, 48300, Note_on_c, 1, 64, 0
9, 48300, Note_on_c, 1, 59, 95
9, 48330, Note_on_c, 1, 59, 0
9, 48330, Note_on_c, 1, 59, 98
9, 48330, Note_on_c, 1, 64, 89
9, 48360, Note_on_c, 1, 64, 0
9, 48360, Note_on_c, 1, 59, 0
9, 48720, Note_on_c, 1, 56, 96
9, 48720, Note_on_c, 1, 63, 104
9, 48750, Note_on_c, 1, 63, 0
9, 48750, Note_on_c, 1, 56, 0
9, 48750, Note_on_c, 1, 56, 97
9, 48750, Note_on_c, 1, 63, 110
9, 48780, Note_on_c, 1, 63, 0
9, 48780, Note_on_c, 1, 56, 0
9, 48780, Note_on_c, 1, 56, 98
9, 48810, Note_on_c, 1, 56, 0
9, 48810, Note_on_c, 1, 56, 100
9, 48810, Note_on_c, 1, 63, 117
9, 48840, Note_on_c, 1, 63, 0
9, 48840, Note_on_c, 1, 56, 0
9, 48870, Note_on_c, 1, 63, 115
9, 48900, Note_on_c, 1, 63, 0
9, 48900, Note_on_c, 1, 56, 114
9, 48930, Note_on_c, 1, 56, 0
9, 48930, Note_on_c, 1, 56, 113
9, 48930, Note_on_c, 1, 63, 113
9, 48990, Note_on_c, 1, 63, 0
9, 48990, Note_on_c, 1, 56, 0
9, 48990, Note_on_c, 1, 59, 109
9, 48990, Note_on_c, 1, 64, 109
9, 49020, Note_on_c, 1, 64, 0
9, 49020, Note_on_c, 1, 64, 108
9, 49050, Note_on_c, 1, 64, 0
9, 49050, Note_on_c, 1, 59, 0
9, 49080, Note_on_c, 1, 59, 106
9, 49080, Note_on_c, 1, 64, 106
9, 49110, Note_on_c, 1, 64, 0
9, 49110, Note_on_c, 1, 59, 0
9, 49140, Note_on_c, 1, 59, 103
9, 49140, Note_on_c, 1, 64, 103
9, 49170, Note_on_c, 1, 64, 0
9, 49170, Note_on_c, 1, 59, 0
9, 49200, Note_on_c, 1, 59, 100
9, 49200, Note_on_c, 1, 64, 100
9, 49230, Note_on_c, 1, 64, 0
9, 49230, Note_on_c, 1, 59, 0
9, 49230, Note_on_c, 1, 64, 98
9, 49260, Note_on_c, 1, 64, 0
9, 49260, Note_on_c, 1, 59, 97
9, 49290, Note_on_c, 1, 59, 0
9, 49290, Note_on_c, 1, 59, 96
9, 49290, Note_on_c, 1, 64, 96
9, 49320, Note_on_c, 1, 64, 0
9, 49320, Note_on_c, 1, 59, 0
9, 49680, Note_on_c, 1, 63, 78
9, 49680, Note_on_c, 1, 56, 78
9, 49710, Note_on_c, 1, 56, 0
9, 49710, Note_on_c, 1, 63, 0
9, 49710, Note_on_c, 1, 63, 76
9, 49740, Note_on_c, 1, 63, 0
9, 49740, Note_on_c, 1, 56, 75
9, 49770, Note_on_c, 1, 56, 0
9, 49770, Note_on_c, 1, 63, 74
9, 49800, Note_on_c, 1, 63, 0
9, 49830, Note_on_c, 1, 56, 71
9, 49830, Note_on_c, 1, 63, 71
9, 49860, Note_on_c, 1, 63, 0
9, 49860, Note_on_c, 1, 56, 0
9, 49890, Note_on_c, 1, 56, 68
9, 49890, Note_on_c, 1, 63, 68
9, 49920, Note_on_c, 1, 56, 0
9, 49950, Note_on_c, 1, 63, 0
9, 49950, Note_on_c, 1, 59, 65
9, 49950, Note_on_c, 1, 64, 65
9, 49980, Note_on_c, 1, 64, 0
9, 49980, Note_on_c, 1, 59, 0
9, 49980, Note_on_c, 1, 59, 64
9, 49980, Note_on_c, 1, 64, 64
9, 50010, Note_on_c, 1, 64, 0
9, 50010, Note_on_c, 1, 59, 0
9, 50040, Note_on_c, 1, 59, 61
9, 50040, Note_on_c, 1, 64, 61
9, 50070, Note_on_c, 1, 64, 0
9, 50070, Note_on_c, 1, 59, 0
9, 50100, Note_on_c, 1, 59, 58
9, 50100, Note_on_c, 1, 64, 58
9, 50130, Note_on_c, 1, 64, 0
9, 50130, Note_on_c, 1, 59, 0
9, 50160, Note_on_c, 1, 64, 56
9, 50160, Note_on_c, 1, 59, 56
9, 50190, Note_on_c, 1, 59, 0
9, 50190, Note_on_c, 1, 64, 0
9, 50190, Note_on_c, 1, 64, 54
9, 50220, Note_on_c, 1, 64, 0
9, 50220, Note_on_c, 1, 59, 53
9, 50250, Note_on_c, 1, 59, 0
9, 50250, Note_on_c, 1, 59, 52
9, 50250, Note_on_c, 1, 64, 52
9, 50280, Note_on_c, 1, 64, 0
9, 50280, Note_on_c, 1, 59, 0
9, 50640, Note_on_c, 1, 56, 34
9, 50640, Note_on_c, 1, 63, 34
9, 50670, Note_on_c, 1, 63, 0
9, 50670, Note_on_c, 1, 56, 0
9, 50670, Note_on_c, 1, 56, 32
9, 50670, Note_on_c, 1, 63, 32
9, 50700, Note_on_c, 1, 63, 0
9, 50700, Note_on_c, 1, 56, 0
9, 50700, Note_on_c, 1, 56, 31
9, 50730, Note_on_c, 1, 56, 0
9, 50730, Note_on_c, 1, 56, 29
9, 50730, Note_on_c, 1, 63, 29
9, 50760, Note_on_c, 1, 63, 0
9, 50760, Note_on_c, 1, 56, 0
9, 50790, Note_on_c, 1, 63, 26
9, 50820, Note_on_c, 1, 63, 0
9, 50820, Note_on_c, 1, 56, 25
9, 50850, Note_on_c, 1, 56, 0
9, 50850, Note_on_c, 1, 56, 24
9, 50850, Note_on_c, 1, 63, 24
9, 50910, Note_on_c, 1, 63, 0
9, 50910, Note_on_c, 1, 56, 0
9, 50910, Note_on_c, 1, 59, 21
9, 50910, Note_on_c, 1, 64, 21
9, 50940, Note_on_c, 1, 64, 0
9, 50940, Note_on_c, 1, 64, 20
9, 50970, Note_on_c, 1, 64, 0
9, 50970, Note_on_c, 1, 59, 0
9, 51000, Note_on_c, 1, 59, 17
9, 51000, Note_on_c, 1, 64, 17
9, 51030, Note_on_c, 1, 64, 0
9, 51030, Note_on_c, 1, 59, 0
9, 51060, Note_on_c, 1, 59, 14
9, 51060, Note_on_c, 1, 64, 14
9, 51090, Note_on_c, 1, 64, 0
9, 51090, Note_on_c, 1, 59, 0
9, 51120, Note_on_c, 1, 59, 12
9, 51120, Note_on_c, 1, 64, 12
9, 51150, Note_on_c, 1, 64, 0
9, 51150, Note_on_c, 1, 59, 0
9, 51150, Note_on_c, 1, 64, 10
9, 51180, Note_on_c, 1, 64, 0
9, 51180, Note_on_c, 1, 59, 9
9, 51210, Note_on_c, 1, 59, 0
9, 51210, Note_on_c, 1, 59, 7
9, 51210, Note_on_c, 1, 64, 7
9, 51240, Note_on_c, 1, 64, 0
9, 51240, Note_on_c, 1, 59, 0
9, 51240, End_track
10, 0, Start_track
10, 0, MIDI_port, 0
10, 0, Title_t, ""
10, 0, End_track
11, 0, Start_track
11, 0, MIDI_port, 0
11, 0, Title_t, ""
11, 0, Program_c, 6, 48
11, 0, Control_c, 6, 7, 70
11, 34080, Note_on_c, 6, 61, 88
11, 34320, Note_on_c, 6, 61, 0
11, 34320, Note_on_c, 6, 66, 65
11, 34410, Note_on_c, 6, 66, 0
11, 34410, Note_on_c, 6, 64, 73
11, 34470, Note_on_c, 6, 64, 0
11, 34470, Note_on_c, 6, 63, 84
11, 34530, Note_on_c, 6, 61, 87
11, 34560, Note_on_c, 6, 63, 0
11, 34920, Note_on_c, 6, 61, 0
11, 34920, Note_on_c, 6, 59, 79
11, 35010, Note_on_c, 6, 59, 0
11, 35040, Note_on_c, 6, 61, 106
11, 35160, Note_on_c, 6, 61, 0
11, 35160, Note_on_c, 6, 63, 95
11, 35280, Note_on_c, 6, 63, 0
11, 35280, Note_on_c, 6, 59, 87
11, 35520, Note_on_c, 6, 59, 0
11, 35520, Note_on_c, 6, 61, 81
11, 35640, Note_on_c, 6, 61, 0
11, 35640, Note_on_c, 6, 59, 66
11, 35760, Note_on_c, 6, 59, 0
11, 35760, Note_on_c, 6, 56, 89
11, 35880, Note_on_c, 6, 56, 0
11, 35880, Note_on_c, 6, 66, 92
11, 35970, Note_on_c, 6, 66, 0
11, 36000, Note_on_c, 6, 66, 102
11, 36240, Note_on_c, 6, 66, 0
11, 36240, Note_on_c, 6, 63, 106
11, 36360, Note_on_c, 6, 63, 0
11, 36360, Note_on_c, 6, 68, 71
11, 36480, Note_on_c, 6, 68, 0
11, 36480, Note_on_c, 6, 66, 95
11, 36960, Note_on_c, 6, 66, 0
11, 36960, Note_on_c, 6, 70, 105
11, 37200, Note_on_c, 6, 70, 0
11, 37200, Note_on_c, 6, 72, 76
11, 37320, Note_on_c, 6, 72, 0
11, 37320, Note_on_c, 6, 73, 81
11, 37440, Note_on_c, 6, 73, 0
11, 37440, Note_on_c, 6, 72, 81
11, 37680, Note_on_c, 6, 72, 0
11, 37680, Note_on_c, 6, 71, 87
11, 37920, Note_on_c, 6, 71, 0
11, 37920, End_track
0, 0, End_of_file
