0, 0, Header, 1, 14, 384
1, 0, Start_track
1, 0, Tempo, 495841
1, 0, Time_signature, 4, 2, 24, 8
1, 1536, Time_signature, 4, 2, 24, 8
1, 47616, Time_signature, 2, 2, 24, 8
1, 48384, Time_signature, 4, 2, 24, 8
1, 221952, End_track
2, 0, Start_track
2, 0, Title_t, "BASS"
2, 404, Control_c, 1, 0, 0
2, 408, Control_c, 1, 121, 0
2, 412, Program_c, 1, 33
2, 416, Control_c, 1, 7, 110
2, 416, Control_c, 1, 10, 64
2, 416, Control_c, 1, 11, 127
2, 420, Control_c, 1, 91, 0
2, 420, Control_c, 1, 93, 0
2, 768, Control_c, 1, 101, 0
2, 772, Control_c, 1, 100, 0
2, 776, Control_c, 1, 6, 12
2, 780, Control_c, 1, 101, 127
2, 784, Control_c, 1, 100, 127
2, 3072, Note_on_c, 1, 36, 100
2, 3632, Note_off_c, 1, 36, 100
2, 3648, Note_on_c, 1, 38, 100
2, 4160, Note_off_c, 1, 38, 100
2, 4224, Note_on_c, 1, 39, 100
2, 4564, Note_off_c, 1, 39, 100
2, 4608, Note_on_c, 1, 36, 100
2, 5140, Note_off_c, 1, 36, 100
2, 5184, Note_on_c, 1, 38, 100
2, 5740, Note_off_c, 1, 38, 100
2, 5760, Note_on_c, 1, 39, 100
2, 6084, Note_off_c, 1, 39, 100
2, 6144, Note_on_c, 1, 41, 100
2, 6668, Note_off_c, 1, 41, 100
2, 6720, Note_on_c, 1, 39, 100
2, 7208, Note_off_c, 1, 39, 100
2, 7296, Note_on_c, 1, 38, 100
2, 7676, Note_off_c, 1, 38, 100
2, 7680, Note_on_c, 1, 36, 100
2, 8640, Note_off_c, 1, 36, 100
2, 8640, Note_on_c, 1, 31, 100
2, 8832, Note_off_c, 1, 31, 100
2, 8832, Note_on_c, 1, 32, 100
2, 9024, Note_off_c, 1, 32, 100
2, 9024, Note_on_c, 1, 36, 100
2, 9216, Note_off_c, 1, 36, 100
2, 9216, Note_on_c, 1, 38, 100
2, 9684, Note_off_c, 1, 38, 100
2, 9792, Note_on_c, 1, 38, 100
2, 9960, Note_off_c, 1, 38, 100
2, 9984, Note_on_c, 1, 34, 100
2, 10688, Note_off_c, 1, 34, 100
2, 10752, Note_on_c, 1, 38, 100
2, 11216, Note_off_c, 1, 38, 100
2, 11328, Note_on_c, 1, 38, 100
2, 11472, Note_off_c, 1, 38, 100
2, 11520, Note_on_c, 1, 34, 100
2, 11904, Note_on_c, 1, 38, 100
2, 11912, Note_off_c, 1, 34, 100
2, 12068, Note_off_c, 1, 38, 100
2, 12096, Note_on_c, 1, 39, 100
2, 12256, Note_off_c, 1, 39, 100
2, 12288, Note_on_c, 1, 39, 100
2, 12788, Note_off_c, 1, 39, 100
2, 12864, Note_on_c, 1, 44, 100
2, 13728, Note_off_c, 1, 44, 100
2, 13824, Note_on_c, 1, 44, 100
2, 14328, Note_off_c, 1, 44, 100
2, 14400, Note_on_c, 1, 44, 100
2, 14552, Note_off_c, 1, 44, 100
2, 14592, Note_on_c, 1, 41, 100
2, 14880, Note_off_c, 1, 41, 100
2, 14976, Note_on_c, 1, 46, 100
2, 15264, Note_off_c, 1, 46, 100
2, 15360, Note_on_c, 1, 39, 100
2, 15936, Note_on_c, 1, 44, 100
2, 15968, Note_off_c, 1, 39, 100
2, 16292, Note_off_c, 1, 44, 100
2, 16320, Note_on_c, 1, 46, 100
2, 16496, Note_off_c, 1, 46, 100
2, 16512, Note_on_c, 1, 48, 100
2, 16880, Note_off_c, 1, 48, 100
2, 16896, Note_on_c, 1, 46, 100
2, 17472, Note_off_c, 1, 46, 100
2, 17472, Note_on_c, 1, 39, 100
2, 17856, Note_off_c, 1, 39, 100
2, 17856, Note_on_c, 1, 36, 100
2, 18048, Note_off_c, 1, 36, 100
2, 18048, Note_on_c, 1, 34, 100
2, 18240, Note_off_c, 1, 34, 100
2, 18240, Note_on_c, 1, 36, 100
2, 18392, Note_off_c, 1, 36, 100
2, 18432, Note_on_c, 1, 39, 100
2, 18624, Note_off_c, 1, 39, 100
2, 19200, Note_on_c, 1, 39, 100
2, 19392, Note_off_c, 1, 39, 100
2, 19968, Note_on_c, 1, 39, 100
2, 20160, Note_off_c, 1, 39, 100
2, 20736, Note_on_c, 1, 39, 100
2, 20928, Note_off_c, 1, 39, 100
2, 21504, Note_on_c, 1, 39, 100
2, 21696, Note_off_c, 1, 39, 100
2, 22272, Note_on_c, 1, 39, 100
2, 22464, Note_off_c, 1, 39, 100
2, 23040, Note_on_c, 1, 39, 100
2, 23232, Note_off_c, 1, 39, 100
2, 23808, Note_on_c, 1, 39, 100
2, 24000, Note_off_c, 1, 39, 100
2, 24576, Note_on_c, 1, 39, 100
2, 29128, Note_off_c, 1, 39, 100
2, 29184, Note_on_c, 1, 39, 100
2, 29800, Note_off_c, 1, 39, 100
2, 29952, Note_on_c, 1, 39, 100
2, 30528, Note_on_c, 1, 34, 100
2, 30576, Note_off_c, 1, 39, 100
2, 30696, Note_off_c, 1, 34, 100
2, 30720, Note_on_c, 1, 39, 100
2, 35284, Note_off_c, 1, 39, 100
2, 35328, Note_on_c, 1, 39, 100
2, 35972, Note_off_c, 1, 39, 100
2, 36096, Note_on_c, 1, 39, 100
2, 36864, Note_off_c, 1, 39, 100
2, 36864, Note_on_c, 1, 41, 100
2, 39936, Note_on_c, 1, 43, 100
2, 39968, Note_off_c, 1, 41, 100
2, 42968, Note_off_c, 1, 43, 100
2, 43008, Note_on_c, 1, 41, 100
2, 46080, Note_on_c, 1, 44, 100
2, 46096, Note_off_c, 1, 41, 100
2, 48376, Note_off_c, 1, 44, 100
2, 51456, Note_on_c, 1, 36, 100
2, 51840, Note_off_c, 1, 36, 100
2, 52416, Note_on_c, 1, 36, 100
2, 52476, Note_off_c, 1, 36, 100
2, 52608, Note_on_c, 1, 36, 100
2, 52672, Note_off_c, 1, 36, 100
2, 52800, Note_on_c, 1, 36, 100
2, 52860, Note_off_c, 1, 36, 100
2, 52992, Note_on_c, 1, 31, 100
2, 53404, Note_off_c, 1, 31, 100
2, 53952, Note_on_c, 1, 31, 100
2, 54004, Note_off_c, 1, 31, 100
2, 54144, Note_on_c, 1, 31, 100
2, 54204, Note_off_c, 1, 31, 100
2, 54336, Note_on_c, 1, 31, 100
2, 54392, Note_off_c, 1, 31, 100
2, 54528, Note_on_c, 1, 36, 100
2, 54888, Note_off_c, 1, 36, 100
2, 55488, Note_on_c, 1, 36, 100
2, 55548, Note_off_c, 1, 36, 100
2, 55680, Note_on_c, 1, 36, 100
2, 55740, Note_off_c, 1, 36, 100
2, 55872, Note_on_c, 1, 36, 100
2, 55928, Note_off_c, 1, 36, 100
2, 56064, Note_on_c, 1, 31, 100
2, 56456, Note_off_c, 1, 31, 100
2, 57024, Note_on_c, 1, 31, 100
2, 57068, Note_off_c, 1, 31, 100
2, 57216, Note_on_c, 1, 31, 100
2, 57272, Note_off_c, 1, 31, 100
2, 57408, Note_on_c, 1, 31, 100
2, 57464, Note_off_c, 1, 31, 100
2, 57600, Note_on_c, 1, 34, 100
2, 57836, Note_off_c, 1, 34, 100
2, 57984, Note_on_c, 1, 34, 100
2, 58188, Note_off_c, 1, 34, 100
2, 58272, Note_on_c, 1, 34, 100
2, 58316, Note_off_c, 1, 34, 100
2, 58368, Note_on_c, 1, 34, 100
2, 58424, Note_off_c, 1, 34, 100
2, 58560, Note_on_c, 1, 34, 100
2, 58772, Note_off_c, 1, 34, 100
2, 59136, Note_on_c, 1, 34, 100
2, 59508, Note_off_c, 1, 34, 100
2, 59904, Note_on_c, 1, 34, 100
2, 59976, Note_off_c, 1, 34, 100
2, 60096, Note_on_c, 1, 43, 100
2, 60168, Note_off_c, 1, 43, 100
2, 60288, Note_on_c, 1, 34, 100
2, 60360, Note_off_c, 1, 34, 100
2, 60480, Note_on_c, 1, 35, 100
2, 60552, Note_off_c, 1, 35, 100
2, 60672, Note_on_c, 1, 36, 100
2, 61064, Note_off_c, 1, 36, 100
2, 61632, Note_on_c, 1, 36, 100
2, 61680, Note_off_c, 1, 36, 100
2, 61824, Note_on_c, 1, 36, 100
2, 61896, Note_off_c, 1, 36, 100
2, 62016, Note_on_c, 1, 36, 100
2, 62088, Note_off_c, 1, 36, 100
2, 62208, Note_on_c, 1, 32, 100
2, 62528, Note_off_c, 1, 32, 100
2, 62784, Note_on_c, 1, 31, 100
2, 62856, Note_off_c, 1, 31, 100
2, 62976, Note_on_c, 1, 31, 100
2, 63072, Note_off_c, 1, 31, 100
2, 63168, Note_on_c, 1, 33, 100
2, 63264, Note_off_c, 1, 33, 100
2, 63360, Note_on_c, 1, 35, 100
2, 63456, Note_off_c, 1, 35, 100
2, 63552, Note_on_c, 1, 31, 100
2, 63624, Note_off_c, 1, 31, 100
2, 63744, Note_on_c, 1, 36, 100
2, 64128, Note_off_c, 1, 36, 100
2, 64704, Note_on_c, 1, 36, 100
2, 64764, Note_off_c, 1, 36, 100
2, 64896, Note_on_c, 1, 36, 100
2, 64960, Note_off_c, 1, 36, 100
2, 65088, Note_on_c, 1, 36, 100
2, 65148, Note_off_c, 1, 36, 100
2, 65280, Note_on_c, 1, 31, 100
2, 65692, Note_off_c, 1, 31, 100
2, 66240, Note_on_c, 1, 31, 100
2, 66292, Note_off_c, 1, 31, 100
2, 66432, Note_on_c, 1, 31, 100
2, 66492, Note_off_c, 1, 31, 100
2, 66624, Note_on_c, 1, 31, 100
2, 66680, Note_off_c, 1, 31, 100
2, 66816, Note_on_c, 1, 36, 100
2, 67176, Note_off_c, 1, 36, 100
2, 67776, Note_on_c, 1, 36, 100
2, 67836, Note_off_c, 1, 36, 100
2, 67968, Note_on_c, 1, 36, 100
2, 68028, Note_off_c, 1, 36, 100
2, 68160, Note_on_c, 1, 36, 100
2, 68216, Note_off_c, 1, 36, 100
2, 68352, Note_on_c, 1, 31, 100
2, 68744, Note_off_c, 1, 31, 100
2, 69312, Note_on_c, 1, 31, 100
2, 69356, Note_off_c, 1, 31, 100
2, 69504, Note_on_c, 1, 31, 100
2, 69560, Note_off_c, 1, 31, 100
2, 69696, Note_on_c, 1, 31, 100
2, 69752, Note_off_c, 1, 31, 100
2, 69888, Note_on_c, 1, 34, 100
2, 70124, Note_off_c, 1, 34, 100
2, 70272, Note_on_c, 1, 34, 100
2, 70476, Note_off_c, 1, 34, 100
2, 70560, Note_on_c, 1, 34, 100
2, 70604, Note_off_c, 1, 34, 100
2, 70656, Note_on_c, 1, 34, 100
2, 70712, Note_off_c, 1, 34, 100
2, 70848, Note_on_c, 1, 34, 100
2, 71060, Note_off_c, 1, 34, 100
2, 71424, Note_on_c, 1, 34, 100
2, 71796, Note_off_c, 1, 34, 100
2, 72192, Note_on_c, 1, 34, 100
2, 72252, Note_off_c, 1, 34, 100
2, 72384, Note_on_c, 1, 43, 100
2, 72436, Note_off_c, 1, 43, 100
2, 72576, Note_on_c, 1, 34, 100
2, 72640, Note_off_c, 1, 34, 100
2, 72768, Note_on_c, 1, 35, 100
2, 72816, Note_off_c, 1, 35, 100
2, 72960, Note_on_c, 1, 36, 100
2, 73352, Note_off_c, 1, 36, 100
2, 73920, Note_on_c, 1, 36, 100
2, 73956, Note_off_c, 1, 36, 100
2, 74112, Note_on_c, 1, 36, 100
2, 74168, Note_off_c, 1, 36, 100
2, 74304, Note_on_c, 1, 36, 100
2, 74356, Note_off_c, 1, 36, 100
2, 74496, Note_on_c, 1, 32, 100
2, 74816, Note_off_c, 1, 32, 100
2, 75072, Note_on_c, 1, 31, 100
2, 75144, Note_off_c, 1, 31, 100
2, 75264, Note_on_c, 1, 31, 100
2, 75360, Note_off_c, 1, 31, 100
2, 75456, Note_on_c, 1, 33, 100
2, 75552, Note_off_c, 1, 33, 100
2, 75648, Note_on_c, 1, 35, 100
2, 75744, Note_off_c, 1, 35, 100
2, 75840, Note_on_c, 1, 31, 100
2, 75912, Note_off_c, 1, 31, 100
2, 76032, Note_on_c, 1, 36, 100
2, 76592, Note_off_c, 1, 36, 100
2, 76608, Note_on_c, 1, 38, 100
2, 77120, Note_off_c, 1, 38, 100
2, 77184, Note_on_c, 1, 39, 100
2, 77524, Note_off_c, 1, 39, 100
2, 77568, Note_on_c, 1, 36, 100
2, 78100, Note_off_c, 1, 36, 100
2, 78144, Note_on_c, 1, 38, 100
2, 78700, Note_off_c, 1, 38, 100
2, 78720, Note_on_c, 1, 39, 100
2, 79044, Note_off_c, 1, 39, 100
2, 79104, Note_on_c, 1, 41, 100
2, 79628, Note_off_c, 1, 41, 100
2, 79680, Note_on_c, 1, 39, 100
2, 80168, Note_off_c, 1, 39, 100
2, 80256, Note_on_c, 1, 38, 100
2, 80636, Note_off_c, 1, 38, 100
2, 80640, Note_on_c, 1, 36, 100
2, 81600, Note_off_c, 1, 36, 100
2, 81600, Note_on_c, 1, 31, 100
2, 81792, Note_off_c, 1, 31, 100
2, 81792, Note_on_c, 1, 32, 100
2, 81984, Note_off_c, 1, 32, 100
2, 81984, Note_on_c, 1, 36, 100
2, 82176, Note_off_c, 1, 36, 100
2, 82176, Note_on_c, 1, 38, 100
2, 82644, Note_off_c, 1, 38, 100
2, 82752, Note_on_c, 1, 38, 100
2, 82920, Note_off_c, 1, 38, 100
2, 82944, Note_on_c, 1, 34, 100
2, 83648, Note_off_c, 1, 34, 100
2, 83712, Note_on_c, 1, 38, 100
2, 84176, Note_off_c, 1, 38, 100
2, 84288, Note_on_c, 1, 38, 100
2, 84432, Note_off_c, 1, 38, 100
2, 84480, Note_on_c, 1, 34, 100
2, 84864, Note_on_c, 1, 38, 100
2, 84872, Note_off_c, 1, 34, 100
2, 85028, Note_off_c, 1, 38, 100
2, 85056, Note_on_c, 1, 39, 100
2, 85216, Note_off_c, 1, 39, 100
2, 85248, Note_on_c, 1, 39, 100
2, 85748, Note_off_c, 1, 39, 100
2, 85824, Note_on_c, 1, 44, 100
2, 86688, Note_off_c, 1, 44, 100
2, 86784, Note_on_c, 1, 44, 100
2, 87288, Note_off_c, 1, 44, 100
2, 87360, Note_on_c, 1, 44, 100
2, 87512, Note_off_c, 1, 44, 100
2, 87552, Note_on_c, 1, 41, 100
2, 87840, Note_off_c, 1, 41, 100
2, 87936, Note_on_c, 1, 46, 100
2, 88224, Note_off_c, 1, 46, 100
2, 88320, Note_on_c, 1, 39, 100
2, 88896, Note_on_c, 1, 44, 100
2, 88928, Note_off_c, 1, 39, 100
2, 89252, Note_off_c, 1, 44, 100
2, 89280, Note_on_c, 1, 46, 100
2, 89456, Note_off_c, 1, 46, 100
2, 89472, Note_on_c, 1, 48, 100
2, 89840, Note_off_c, 1, 48, 100
2, 89856, Note_on_c, 1, 46, 100
2, 90432, Note_off_c, 1, 46, 100
2, 90432, Note_on_c, 1, 39, 100
2, 90816, Note_off_c, 1, 39, 100
2, 90816, Note_on_c, 1, 36, 100
2, 91008, Note_off_c, 1, 36, 100
2, 91008, Note_on_c, 1, 34, 100
2, 91200, Note_off_c, 1, 34, 100
2, 91200, Note_on_c, 1, 36, 100
2, 91352, Note_off_c, 1, 36, 100
2, 91392, Note_on_c, 1, 39, 100
2, 91584, Note_off_c, 1, 39, 100
2, 92160, Note_on_c, 1, 39, 100
2, 92352, Note_off_c, 1, 39, 100
2, 92928, Note_on_c, 1, 39, 100
2, 93120, Note_off_c, 1, 39, 100
2, 93696, Note_on_c, 1, 39, 100
2, 93888, Note_off_c, 1, 39, 100
2, 94464, Note_on_c, 1, 39, 100
2, 94656, Note_off_c, 1, 39, 100
2, 95232, Note_on_c, 1, 39, 100
2, 95424, Note_off_c, 1, 39, 100
2, 96000, Note_on_c, 1, 39, 100
2, 96192, Note_off_c, 1, 39, 100
2, 96768, Note_on_c, 1, 39, 100
2, 96960, Note_off_c, 1, 39, 100
2, 97536, Note_on_c, 1, 39, 100
2, 102088, Note_off_c, 1, 39, 100
2, 102144, Note_on_c, 1, 39, 100
2, 102760, Note_off_c, 1, 39, 100
2, 102912, Note_on_c, 1, 39, 100
2, 103488, Note_on_c, 1, 34, 100
2, 103536, Note_off_c, 1, 39, 100
2, 103656, Note_off_c, 1, 34, 100
2, 103680, Note_on_c, 1, 39, 100
2, 108244, Note_off_c, 1, 39, 100
2, 108288, Note_on_c, 1, 39, 100
2, 108932, Note_off_c, 1, 39, 100
2, 109056, Note_on_c, 1, 39, 100
2, 109824, Note_off_c, 1, 39, 100
2, 109824, Note_on_c, 1, 41, 100
2, 112896, Note_on_c, 1, 43, 100
2, 112928, Note_off_c, 1, 41, 100
2, 115928, Note_off_c, 1, 43, 100
2, 115968, Note_on_c, 1, 41, 100
2, 119040, Note_on_c, 1, 44, 100
2, 119056, Note_off_c, 1, 41, 100
2, 121336, Note_off_c, 1, 44, 100
2, 124416, Note_on_c, 1, 36, 100
2, 124800, Note_off_c, 1, 36, 100
2, 125376, Note_on_c, 1, 36, 100
2, 125436, Note_off_c, 1, 36, 100
2, 125568, Note_on_c, 1, 36, 100
2, 125632, Note_off_c, 1, 36, 100
2, 125760, Note_on_c, 1, 36, 100
2, 125820, Note_off_c, 1, 36, 100
2, 125952, Note_on_c, 1, 31, 100
2, 126364, Note_off_c, 1, 31, 100
2, 126912, Note_on_c, 1, 31, 100
2, 126964, Note_off_c, 1, 31, 100
2, 127104, Note_on_c, 1, 31, 100
2, 127164, Note_off_c, 1, 31, 100
2, 127296, Note_on_c, 1, 31, 100
2, 127352, Note_off_c, 1, 31, 100
2, 127488, Note_on_c, 1, 36, 100
2, 127848, Note_off_c, 1, 36, 100
2, 128448, Note_on_c, 1, 36, 100
2, 128508, Note_off_c, 1, 36, 100
2, 128640, Note_on_c, 1, 36, 100
2, 128700, Note_off_c, 1, 36, 100
2, 128832, Note_on_c, 1, 36, 100
2, 128888, Note_off_c, 1, 36, 100
2, 129024, Note_on_c, 1, 31, 100
2, 129416, Note_off_c, 1, 31, 100
2, 129984, Note_on_c, 1, 31, 100
2, 130028, Note_off_c, 1, 31, 100
2, 130176, Note_on_c, 1, 31, 100
2, 130232, Note_off_c, 1, 31, 100
2, 130368, Note_on_c, 1, 31, 100
2, 130424, Note_off_c, 1, 31, 100
2, 130560, Note_on_c, 1, 34, 100
2, 130796, Note_off_c, 1, 34, 100
2, 130944, Note_on_c, 1, 34, 100
2, 131148, Note_off_c, 1, 34, 100
2, 131232, Note_on_c, 1, 34, 100
2, 131276, Note_off_c, 1, 34, 100
2, 131328, Note_on_c, 1, 34, 100
2, 131384, Note_off_c, 1, 34, 100
2, 131520, Note_on_c, 1, 34, 100
2, 131732, Note_off_c, 1, 34, 100
2, 132096, Note_on_c, 1, 34, 100
2, 132468, Note_off_c, 1, 34, 100
2, 132864, Note_on_c, 1, 34, 100
2, 132936, Note_off_c, 1, 34, 100
2, 133056, Note_on_c, 1, 43, 100
2, 133128, Note_off_c, 1, 43, 100
2, 133248, Note_on_c, 1, 34, 100
2, 133320, Note_off_c, 1, 34, 100
2, 133440, Note_on_c, 1, 35, 100
2, 133512, Note_off_c, 1, 35, 100
2, 133632, Note_on_c, 1, 36, 100
2, 134024, Note_off_c, 1, 36, 100
2, 134592, Note_on_c, 1, 36, 100
2, 134640, Note_off_c, 1, 36, 100
2, 134784, Note_on_c, 1, 36, 100
2, 134856, Note_off_c, 1, 36, 100
2, 134976, Note_on_c, 1, 36, 100
2, 135048, Note_off_c, 1, 36, 100
2, 135168, Note_on_c, 1, 32, 100
2, 135488, Note_off_c, 1, 32, 100
2, 135744, Note_on_c, 1, 31, 100
2, 135816, Note_off_c, 1, 31, 100
2, 135936, Note_on_c, 1, 31, 100
2, 136032, Note_off_c, 1, 31, 100
2, 136128, Note_on_c, 1, 33, 100
2, 136224, Note_off_c, 1, 33, 100
2, 136320, Note_on_c, 1, 35, 100
2, 136416, Note_off_c, 1, 35, 100
2, 136512, Note_on_c, 1, 31, 100
2, 136584, Note_off_c, 1, 31, 100
2, 136704, Note_on_c, 1, 36, 100
2, 137088, Note_off_c, 1, 36, 100
2, 137664, Note_on_c, 1, 36, 100
2, 137724, Note_off_c, 1, 36, 100
2, 137856, Note_on_c, 1, 36, 100
2, 137920, Note_off_c, 1, 36, 100
2, 138048, Note_on_c, 1, 36, 100
2, 138108, Note_off_c, 1, 36, 100
2, 138240, Note_on_c, 1, 31, 100
2, 138652, Note_off_c, 1, 31, 100
2, 139200, Note_on_c, 1, 31, 100
2, 139252, Note_off_c, 1, 31, 100
2, 139392, Note_on_c, 1, 31, 100
2, 139452, Note_off_c, 1, 31, 100
2, 139584, Note_on_c, 1, 31, 100
2, 139640, Note_off_c, 1, 31, 100
2, 139776, Note_on_c, 1, 36, 100
2, 140136, Note_off_c, 1, 36, 100
2, 140736, Note_on_c, 1, 36, 100
2, 140796, Note_off_c, 1, 36, 100
2, 140928, Note_on_c, 1, 36, 100
2, 140988, Note_off_c, 1, 36, 100
2, 141120, Note_on_c, 1, 36, 100
2, 141176, Note_off_c, 1, 36, 100
2, 141312, Note_on_c, 1, 31, 100
2, 141704, Note_off_c, 1, 31, 100
2, 142272, Note_on_c, 1, 31, 100
2, 142316, Note_off_c, 1, 31, 100
2, 142464, Note_on_c, 1, 31, 100
2, 142520, Note_off_c, 1, 31, 100
2, 142656, Note_on_c, 1, 31, 100
2, 142712, Note_off_c, 1, 31, 100
2, 142848, Note_on_c, 1, 34, 100
2, 143084, Note_off_c, 1, 34, 100
2, 143232, Note_on_c, 1, 34, 100
2, 143436, Note_off_c, 1, 34, 100
2, 143520, Note_on_c, 1, 34, 100
2, 143564, Note_off_c, 1, 34, 100
2, 143616, Note_on_c, 1, 34, 100
2, 143672, Note_off_c, 1, 34, 100
2, 143808, Note_on_c, 1, 34, 100
2, 144020, Note_off_c, 1, 34, 100
2, 144384, Note_on_c, 1, 34, 100
2, 144756, Note_off_c, 1, 34, 100
2, 145152, Note_on_c, 1, 34, 100
2, 145212, Note_off_c, 1, 34, 100
2, 145344, Note_on_c, 1, 43, 100
2, 145396, Note_off_c, 1, 43, 100
2, 145536, Note_on_c, 1, 34, 100
2, 145600, Note_off_c, 1, 34, 100
2, 145728, Note_on_c, 1, 35, 100
2, 145776, Note_off_c, 1, 35, 100
2, 145920, Note_on_c, 1, 36, 100
2, 146312, Note_off_c, 1, 36, 100
2, 146880, Note_on_c, 1, 36, 100
2, 146916, Note_off_c, 1, 36, 100
2, 147072, Note_on_c, 1, 36, 100
2, 147128, Note_off_c, 1, 36, 100
2, 147264, Note_on_c, 1, 36, 100
2, 147316, Note_off_c, 1, 36, 100
2, 147456, Note_on_c, 1, 32, 100
2, 147776, Note_off_c, 1, 32, 100
2, 148032, Note_on_c, 1, 31, 100
2, 148104, Note_off_c, 1, 31, 100
2, 148224, Note_on_c, 1, 31, 100
2, 148320, Note_off_c, 1, 31, 100
2, 148416, Note_on_c, 1, 33, 100
2, 148512, Note_off_c, 1, 33, 100
2, 148608, Note_on_c, 1, 35, 100
2, 148704, Note_off_c, 1, 35, 100
2, 148800, Note_on_c, 1, 31, 100
2, 148872, Note_off_c, 1, 31, 100
2, 148992, Note_on_c, 1, 36, 100
2, 149532, Note_off_c, 1, 36, 100
2, 149568, Note_on_c, 1, 38, 100
2, 150088, Note_off_c, 1, 38, 100
2, 150144, Note_on_c, 1, 39, 100
2, 150492, Note_off_c, 1, 39, 100
2, 150528, Note_on_c, 1, 36, 100
2, 151096, Note_off_c, 1, 36, 100
2, 151104, Note_on_c, 1, 38, 100
2, 151644, Note_off_c, 1, 38, 100
2, 151680, Note_on_c, 1, 39, 100
2, 152036, Note_off_c, 1, 39, 100
2, 152064, Note_on_c, 1, 41, 100
2, 152592, Note_off_c, 1, 41, 100
2, 152640, Note_on_c, 1, 39, 100
2, 153184, Note_off_c, 1, 39, 100
2, 153216, Note_on_c, 1, 38, 100
2, 153584, Note_off_c, 1, 38, 100
2, 153600, Note_on_c, 1, 36, 100
2, 154140, Note_off_c, 1, 36, 100
2, 154176, Note_on_c, 1, 35, 100
2, 154720, Note_off_c, 1, 35, 100
2, 154752, Note_on_c, 1, 38, 100
2, 155088, Note_off_c, 1, 38, 100
2, 155136, Note_on_c, 1, 36, 100
2, 155672, Note_off_c, 1, 36, 100
2, 155712, Note_on_c, 1, 38, 100
2, 156284, Note_off_c, 1, 38, 100
2, 156288, Note_on_c, 1, 39, 100
2, 156628, Note_off_c, 1, 39, 100
2, 156672, Note_on_c, 1, 36, 100
2, 157212, Note_off_c, 1, 36, 100
2, 157248, Note_on_c, 1, 38, 100
2, 157816, Note_off_c, 1, 38, 100
2, 157824, Note_on_c, 1, 39, 100
2, 158152, Note_off_c, 1, 39, 100
2, 158208, Note_on_c, 1, 29, 100
2, 159708, Note_off_c, 1, 29, 100
2, 159744, Note_on_c, 1, 31, 100
2, 160668, Note_off_c, 1, 31, 100
2, 160704, Note_on_c, 1, 29, 100
2, 160896, Note_on_c, 1, 31, 100
2, 160900, Note_off_c, 1, 29, 100
2, 161076, Note_off_c, 1, 31, 100
2, 161088, Note_on_c, 1, 29, 100
2, 161260, Note_off_c, 1, 29, 100
2, 161280, Note_on_c, 1, 32, 100
2, 162000, Note_off_c, 1, 32, 100
2, 162048, Pitch_bend_c, 1, 8192
2, 162048, Note_on_c, 1, 32, 100
2, 162072, Pitch_bend_c, 1, 8448
2, 162096, Pitch_bend_c, 1, 8705
2, 162120, Pitch_bend_c, 1, 8961
2, 162144, Pitch_bend_c, 1, 9218
2, 162168, Pitch_bend_c, 1, 9475
2, 162192, Pitch_bend_c, 1, 9731
2, 162216, Pitch_bend_c, 1, 9988
2, 162240, Pitch_bend_c, 1, 10244
2, 162264, Pitch_bend_c, 1, 10501
2, 162288, Pitch_bend_c, 1, 10758
2, 162312, Pitch_bend_c, 1, 11014
2, 162336, Pitch_bend_c, 1, 11271
2, 162360, Pitch_bend_c, 1, 11528
2, 162384, Pitch_bend_c, 1, 11784
2, 162408, Pitch_bend_c, 1, 12041
2, 162432, Pitch_bend_c, 1, 12298
2, 162456, Pitch_bend_c, 1, 12554
2, 162480, Pitch_bend_c, 1, 12811
2, 162504, Pitch_bend_c, 1, 13068
2, 162528, Pitch_bend_c, 1, 13324
2, 162552, Pitch_bend_c, 1, 13581
2, 162576, Pitch_bend_c, 1, 13837
2, 162600, Pitch_bend_c, 1, 14094
2, 162624, Pitch_bend_c, 1, 14351
2, 162648, Pitch_bend_c, 1, 14607
2, 162672, Pitch_bend_c, 1, 14864
2, 162696, Pitch_bend_c, 1, 15121
2, 162720, Pitch_bend_c, 1, 15377
2, 162744, Pitch_bend_c, 1, 15634
2, 162768, Pitch_bend_c, 1, 15891
2, 162792, Pitch_bend_c, 1, 16147
2, 162812, Pitch_bend_c, 1, 16383
2, 165696, Note_off_c, 1, 32, 100
2, 165792, Pitch_bend_c, 1, 8192
2, 165888, Note_on_c, 1, 36, 100
2, 166272, Note_off_c, 1, 36, 100
2, 166848, Note_on_c, 1, 36, 100
2, 166908, Note_off_c, 1, 36, 100
2, 167040, Note_on_c, 1, 36, 100
2, 167104, Note_off_c, 1, 36, 100
2, 167232, Note_on_c, 1, 36, 100
2, 167292, Note_off_c, 1, 36, 100
2, 167424, Note_on_c, 1, 31, 100
2, 167836, Note_off_c, 1, 31, 100
2, 168384, Note_on_c, 1, 31, 100
2, 168436, Note_off_c, 1, 31, 100
2, 168576, Note_on_c, 1, 31, 100
2, 168636, Note_off_c, 1, 31, 100
2, 168768, Note_on_c, 1, 31, 100
2, 168824, Note_off_c, 1, 31, 100
2, 168960, Note_on_c, 1, 36, 100
2, 169320, Note_off_c, 1, 36, 100
2, 169920, Note_on_c, 1, 36, 100
2, 169980, Note_off_c, 1, 36, 100
2, 170112, Note_on_c, 1, 36, 100
2, 170172, Note_off_c, 1, 36, 100
2, 170304, Note_on_c, 1, 36, 100
2, 170360, Note_off_c, 1, 36, 100
2, 170496, Note_on_c, 1, 31, 100
2, 170888, Note_off_c, 1, 31, 100
2, 171456, Note_on_c, 1, 31, 100
2, 171500, Note_off_c, 1, 31, 100
2, 171648, Note_on_c, 1, 31, 100
2, 171704, Note_off_c, 1, 31, 100
2, 171840, Note_on_c, 1, 31, 100
2, 171896, Note_off_c, 1, 31, 100
2, 172032, Note_on_c, 1, 34, 100
2, 172268, Note_off_c, 1, 34, 100
2, 172416, Note_on_c, 1, 34, 100
2, 172620, Note_off_c, 1, 34, 100
2, 172704, Note_on_c, 1, 34, 100
2, 172748, Note_off_c, 1, 34, 100
2, 172800, Note_on_c, 1, 34, 100
2, 172856, Note_off_c, 1, 34, 100
2, 172992, Note_on_c, 1, 34, 100
2, 173204, Note_off_c, 1, 34, 100
2, 173568, Note_on_c, 1, 34, 100
2, 173940, Note_off_c, 1, 34, 100
2, 174336, Note_on_c, 1, 34, 100
2, 174396, Note_off_c, 1, 34, 100
2, 174528, Note_on_c, 1, 43, 100
2, 174580, Note_off_c, 1, 43, 100
2, 174720, Note_on_c, 1, 34, 100
2, 174784, Note_off_c, 1, 34, 100
2, 174912, Note_on_c, 1, 35, 100
2, 174960, Note_off_c, 1, 35, 100
2, 175104, Note_on_c, 1, 36, 100
2, 175496, Note_off_c, 1, 36, 100
2, 176064, Note_on_c, 1, 36, 100
2, 176100, Note_off_c, 1, 36, 100
2, 176256, Note_on_c, 1, 36, 100
2, 176312, Note_off_c, 1, 36, 100
2, 176448, Note_on_c, 1, 36, 100
2, 176500, Note_off_c, 1, 36, 100
2, 176640, Note_on_c, 1, 32, 100
2, 176960, Note_off_c, 1, 32, 100
2, 177216, Note_on_c, 1, 32, 100
2, 177268, Note_off_c, 1, 32, 100
2, 177408, Note_on_c, 1, 31, 100
2, 177472, Note_off_c, 1, 31, 100
2, 177600, Note_on_c, 1, 33, 100
2, 177656, Note_off_c, 1, 33, 100
2, 177792, Note_on_c, 1, 35, 100
2, 177844, Note_off_c, 1, 35, 100
2, 177984, Note_on_c, 1, 31, 100
2, 178024, Note_off_c, 1, 31, 100
2, 178176, Note_on_c, 1, 36, 100
2, 178560, Note_off_c, 1, 36, 100
2, 179136, Note_on_c, 1, 36, 100
2, 179196, Note_off_c, 1, 36, 100
2, 179328, Note_on_c, 1, 36, 100
2, 179392, Note_off_c, 1, 36, 100
2, 179520, Note_on_c, 1, 36, 100
2, 179580, Note_off_c, 1, 36, 100
2, 179712, Note_on_c, 1, 31, 100
2, 180124, Note_off_c, 1, 31, 100
2, 180672, Note_on_c, 1, 31, 100
2, 180724, Note_off_c, 1, 31, 100
2, 180864, Note_on_c, 1, 31, 100
2, 180924, Note_off_c, 1, 31, 100
2, 181056, Note_on_c, 1, 31, 100
2, 181112, Note_off_c, 1, 31, 100
2, 181248, Note_on_c, 1, 36, 100
2, 181608, Note_off_c, 1, 36, 100
2, 182208, Note_on_c, 1, 36, 100
2, 182268, Note_off_c, 1, 36, 100
2, 182400, Note_on_c, 1, 36, 100
2, 182460, Note_off_c, 1, 36, 100
2, 182592, Note_on_c, 1, 36, 100
2, 182648, Note_off_c, 1, 36, 100
2, 182784, Note_on_c, 1, 31, 100
2, 183176, Note_off_c, 1, 31, 100
2, 183744, Note_on_c, 1, 31, 100
2, 183788, Note_off_c, 1, 31, 100
2, 183936, Note_on_c, 1, 31, 100
2, 183992, Note_off_c, 1, 31, 100
2, 184128, Note_on_c, 1, 31, 100
2, 184184, Note_off_c, 1, 31, 100
2, 184320, Note_on_c, 1, 34, 100
2, 184556, Note_off_c, 1, 34, 100
2, 184704, Note_on_c, 1, 34, 100
2, 184908, Note_off_c, 1, 34, 100
2, 184992, Note_on_c, 1, 34, 100
2, 185036, Note_off_c, 1, 34, 100
2, 185088, Note_on_c, 1, 34, 100
2, 185144, Note_off_c, 1, 34, 100
2, 185280, Note_on_c, 1, 34, 100
2, 185492, Note_off_c, 1, 34, 100
2, 185856, Note_on_c, 1, 34, 100
2, 186228, Note_off_c, 1, 34, 100
2, 186624, Note_on_c, 1, 34, 100
2, 186684, Note_off_c, 1, 34, 100
2, 186816, Note_on_c, 1, 43, 100
2, 186868, Note_off_c, 1, 43, 100
2, 187008, Note_on_c, 1, 34, 100
2, 187072, Note_off_c, 1, 34, 100
2, 187200, Note_on_c, 1, 35, 100
2, 187248, Note_off_c, 1, 35, 100
2, 187392, Note_on_c, 1, 36, 100
2, 187784, Note_off_c, 1, 36, 100
2, 188352, Note_on_c, 1, 36, 100
2, 188388, Note_off_c, 1, 36, 100
2, 188544, Note_on_c, 1, 36, 100
2, 188600, Note_off_c, 1, 36, 100
2, 188736, Note_on_c, 1, 36, 100
2, 188788, Note_off_c, 1, 36, 100
2, 188928, Note_on_c, 1, 32, 100
2, 189452, Note_off_c, 1, 32, 100
2, 189504, Note_on_c, 1, 31, 100
2, 191004, Note_off_c, 1, 31, 100
2, 191040, Note_on_c, 1, 38, 100
2, 191092, Note_off_c, 1, 38, 100
2, 191232, Note_on_c, 1, 43, 100
2, 191744, Note_off_c, 1, 43, 100
2, 192000, Note_on_c, 1, 36, 100
2, 192384, Note_off_c, 1, 36, 100
2, 192960, Note_on_c, 1, 36, 100
2, 193020, Note_off_c, 1, 36, 100
2, 193152, Note_on_c, 1, 36, 100
2, 193216, Note_off_c, 1, 36, 100
2, 193344, Note_on_c, 1, 36, 100
2, 193404, Note_off_c, 1, 36, 100
2, 193536, Note_on_c, 1, 31, 100
2, 193948, Note_off_c, 1, 31, 100
2, 194496, Note_on_c, 1, 31, 100
2, 194548, Note_off_c, 1, 31, 100
2, 194688, Note_on_c, 1, 31, 100
2, 194748, Note_off_c, 1, 31, 100
2, 194880, Note_on_c, 1, 31, 100
2, 194936, Note_off_c, 1, 31, 100
2, 195072, Note_on_c, 1, 36, 100
2, 195432, Note_off_c, 1, 36, 100
2, 196032, Note_on_c, 1, 36, 100
2, 196092, Note_off_c, 1, 36, 100
2, 196224, Note_on_c, 1, 36, 100
2, 196284, Note_off_c, 1, 36, 100
2, 196416, Note_on_c, 1, 36, 100
2, 196472, Note_off_c, 1, 36, 100
2, 196608, Note_on_c, 1, 31, 100
2, 197000, Note_off_c, 1, 31, 100
2, 197568, Note_on_c, 1, 31, 100
2, 197612, Note_off_c, 1, 31, 100
2, 197760, Note_on_c, 1, 31, 100
2, 197816, Note_off_c, 1, 31, 100
2, 197952, Note_on_c, 1, 31, 100
2, 198008, Note_off_c, 1, 31, 100
2, 198144, Note_on_c, 1, 34, 100
2, 198380, Note_off_c, 1, 34, 100
2, 198528, Note_on_c, 1, 34, 100
2, 198732, Note_off_c, 1, 34, 100
2, 198816, Note_on_c, 1, 34, 100
2, 198860, Note_off_c, 1, 34, 100
2, 198912, Note_on_c, 1, 34, 100
2, 198968, Note_off_c, 1, 34, 100
2, 199104, Note_on_c, 1, 34, 100
2, 199316, Note_off_c, 1, 34, 100
2, 199680, Note_on_c, 1, 34, 100
2, 200052, Note_off_c, 1, 34, 100
2, 200448, Note_on_c, 1, 34, 100
2, 200508, Note_off_c, 1, 34, 100
2, 200640, Note_on_c, 1, 43, 100
2, 200692, Note_off_c, 1, 43, 100
2, 200832, Note_on_c, 1, 34, 100
2, 200896, Note_off_c, 1, 34, 100
2, 201024, Note_on_c, 1, 35, 100
2, 201072, Note_off_c, 1, 35, 100
2, 201216, Note_on_c, 1, 36, 100
2, 201608, Note_off_c, 1, 36, 100
2, 202176, Note_on_c, 1, 36, 100
2, 202212, Note_off_c, 1, 36, 100
2, 202368, Note_on_c, 1, 36, 100
2, 202424, Note_off_c, 1, 36, 100
2, 202560, Note_on_c, 1, 36, 100
2, 202612, Note_off_c, 1, 36, 100
2, 202752, Note_on_c, 1, 32, 100
2, 203072, Note_off_c, 1, 32, 100
2, 203328, Note_on_c, 1, 32, 100
2, 203380, Note_off_c, 1, 32, 100
2, 203520, Note_on_c, 1, 31, 100
2, 203584, Note_off_c, 1, 31, 100
2, 203712, Note_on_c, 1, 33, 100
2, 203768, Note_off_c, 1, 33, 100
2, 203904, Note_on_c, 1, 35, 100
2, 203956, Note_off_c, 1, 35, 100
2, 204096, Note_on_c, 1, 31, 100
2, 204136, Note_off_c, 1, 31, 100
2, 204288, Note_on_c, 1, 36, 100
2, 204672, Note_off_c, 1, 36, 100
2, 205248, Note_on_c, 1, 36, 100
2, 205308, Note_off_c, 1, 36, 100
2, 205440, Note_on_c, 1, 36, 100
2, 205504, Note_off_c, 1, 36, 100
2, 205632, Note_on_c, 1, 36, 100
2, 205692, Note_off_c, 1, 36, 100
2, 205824, Note_on_c, 1, 31, 100
2, 206236, Note_off_c, 1, 31, 100
2, 206784, Note_on_c, 1, 31, 100
2, 206836, Note_off_c, 1, 31, 100
2, 206976, Note_on_c, 1, 31, 100
2, 207036, Note_off_c, 1, 31, 100
2, 207168, Note_on_c, 1, 31, 100
2, 207224, Note_off_c, 1, 31, 100
2, 207360, Note_on_c, 1, 36, 100
2, 207720, Note_off_c, 1, 36, 100
2, 208320, Note_on_c, 1, 36, 100
2, 208380, Note_off_c, 1, 36, 100
2, 208512, Note_on_c, 1, 36, 100
2, 208572, Note_off_c, 1, 36, 100
2, 208704, Note_on_c, 1, 36, 100
2, 208760, Note_off_c, 1, 36, 100
2, 208896, Note_on_c, 1, 31, 100
2, 209288, Note_off_c, 1, 31, 100
2, 209856, Note_on_c, 1, 31, 100
2, 209900, Note_off_c, 1, 31, 100
2, 210048, Note_on_c, 1, 31, 100
2, 210104, Note_off_c, 1, 31, 100
2, 210240, Note_on_c, 1, 31, 100
2, 210296, Note_off_c, 1, 31, 100
2, 210432, Note_on_c, 1, 34, 100
2, 210668, Note_off_c, 1, 34, 100
2, 210816, Note_on_c, 1, 34, 100
2, 211020, Note_off_c, 1, 34, 100
2, 211104, Note_on_c, 1, 34, 100
2, 211148, Note_off_c, 1, 34, 100
2, 211200, Note_on_c, 1, 34, 100
2, 211256, Note_off_c, 1, 34, 100
2, 211392, Note_on_c, 1, 34, 100
2, 211604, Note_off_c, 1, 34, 100
2, 211968, Note_on_c, 1, 34, 100
2, 212340, Note_off_c, 1, 34, 100
2, 212736, Note_on_c, 1, 34, 100
2, 212796, Note_off_c, 1, 34, 100
2, 212928, Note_on_c, 1, 43, 100
2, 212980, Note_off_c, 1, 43, 100
2, 213120, Note_on_c, 1, 34, 100
2, 213184, Note_off_c, 1, 34, 100
2, 213312, Note_on_c, 1, 35, 100
2, 213360, Note_off_c, 1, 35, 100
2, 213504, Note_on_c, 1, 36, 100
2, 213896, Note_off_c, 1, 36, 100
2, 214464, Note_on_c, 1, 36, 100
2, 214500, Note_off_c, 1, 36, 100
2, 214656, Note_on_c, 1, 36, 100
2, 214712, Note_off_c, 1, 36, 100
2, 214848, Note_on_c, 1, 36, 100
2, 214900, Note_off_c, 1, 36, 100
2, 215040, Note_on_c, 1, 32, 100
2, 215564, Note_off_c, 1, 32, 100
2, 215616, Note_on_c, 1, 31, 100
2, 217116, Note_off_c, 1, 31, 100
2, 217152, Note_on_c, 1, 38, 100
2, 217204, Note_off_c, 1, 38, 100
2, 217344, Note_on_c, 1, 43, 100
2, 217856, Note_off_c, 1, 43, 100
2, 218112, Note_on_c, 1, 36, 100
2, 218352, Note_off_c, 1, 36, 100
2, 218400, Note_on_c, 1, 36, 100
2, 218592, Note_off_c, 1, 36, 100
2, 221952, End_track
3, 0, Start_track
3, 0, Title_t, "SYNTH"
3, 424, Control_c, 2, 0, 0
3, 428, Control_c, 2, 121, 0
3, 432, Program_c, 2, 38
3, 436, Control_c, 2, 7, 110
3, 436, Control_c, 2, 10, 34
3, 436, Control_c, 2, 11, 127
3, 440, Control_c, 2, 91, 60
3, 440, Control_c, 2, 93, 0
3, 25536, Note_on_c, 2, 51, 67
3, 25632, Note_off_c, 2, 51, 67
3, 25632, Note_on_c, 2, 58, 64
3, 25728, Note_off_c, 2, 58, 64
3, 25728, Note_on_c, 2, 63, 61
3, 25824, Note_off_c, 2, 63, 61
3, 25824, Note_on_c, 2, 58, 57
3, 25920, Note_off_c, 2, 58, 57
3, 25920, Note_on_c, 2, 51, 61
3, 26016, Note_off_c, 2, 51, 61
3, 26016, Note_on_c, 2, 46, 56
3, 26112, Note_off_c, 2, 46, 56
3, 27072, Note_on_c, 2, 51, 56
3, 27168, Note_off_c, 2, 51, 56
3, 27168, Note_on_c, 2, 58, 47
3, 27264, Note_off_c, 2, 58, 47
3, 27264, Note_on_c, 2, 63, 52
3, 27360, Note_off_c, 2, 63, 52
3, 27360, Note_on_c, 2, 58, 56
3, 27456, Note_off_c, 2, 58, 56
3, 27456, Note_on_c, 2, 51, 60
3, 27552, Note_off_c, 2, 51, 60
3, 27552, Note_on_c, 2, 46, 52
3, 27648, Note_off_c, 2, 46, 52
3, 28608, Note_on_c, 2, 51, 60
3, 28704, Note_off_c, 2, 51, 60
3, 28704, Note_on_c, 2, 58, 51
3, 28800, Note_off_c, 2, 58, 51
3, 28800, Note_on_c, 2, 63, 59
3, 28896, Note_off_c, 2, 63, 59
3, 28896, Note_on_c, 2, 58, 55
3, 28992, Note_off_c, 2, 58, 55
3, 28992, Note_on_c, 2, 51, 66
3, 29088, Note_off_c, 2, 51, 66
3, 29088, Note_on_c, 2, 46, 66
3, 29184, Note_off_c, 2, 46, 66
3, 30144, Note_on_c, 2, 51, 59
3, 30240, Note_off_c, 2, 51, 59
3, 30240, Note_on_c, 2, 58, 56
3, 30336, Note_off_c, 2, 58, 56
3, 30336, Note_on_c, 2, 63, 60
3, 30432, Note_off_c, 2, 63, 60
3, 30432, Note_on_c, 2, 58, 54
3, 30528, Note_off_c, 2, 58, 54
3, 30528, Note_on_c, 2, 51, 64
3, 30624, Note_off_c, 2, 51, 64
3, 30624, Note_on_c, 2, 46, 64
3, 30720, Note_off_c, 2, 46, 64
3, 31680, Note_on_c, 2, 51, 63
3, 31776, Note_off_c, 2, 51, 63
3, 31776, Note_on_c, 2, 58, 57
3, 31872, Note_off_c, 2, 58, 57
3, 31872, Note_on_c, 2, 63, 53
3, 31968, Note_off_c, 2, 63, 53
3, 31968, Note_on_c, 2, 58, 53
3, 32064, Note_off_c, 2, 58, 53
3, 32064, Note_on_c, 2, 51, 64
3, 32160, Note_off_c, 2, 51, 64
3, 32160, Note_on_c, 2, 46, 64
3, 32256, Note_off_c, 2, 46, 64
3, 33216, Note_on_c, 2, 51, 56
3, 33312, Note_off_c, 2, 51, 56
3, 33312, Note_on_c, 2, 58, 56
3, 33408, Note_off_c, 2, 58, 56
3, 33408, Note_on_c, 2, 63, 64
3, 33504, Note_off_c, 2, 63, 64
3, 33504, Note_on_c, 2, 58, 48
3, 33600, Note_off_c, 2, 58, 48
3, 33600, Note_on_c, 2, 51, 61
3, 33696, Note_off_c, 2, 51, 61
3, 33696, Note_on_c, 2, 46, 64
3, 33792, Note_off_c, 2, 46, 64
3, 34752, Note_on_c, 2, 51, 64
3, 34848, Note_off_c, 2, 51, 64
3, 34848, Note_on_c, 2, 58, 56
3, 34944, Note_off_c, 2, 58, 56
3, 34944, Note_on_c, 2, 63, 61
3, 35040, Note_off_c, 2, 63, 61
3, 35040, Note_on_c, 2, 58, 57
3, 35136, Note_off_c, 2, 58, 57
3, 35136, Note_on_c, 2, 51, 65
3, 35232, Note_off_c, 2, 51, 65
3, 35232, Note_on_c, 2, 46, 58
3, 35328, Note_off_c, 2, 46, 58
3, 36288, Note_on_c, 2, 51, 68
3, 36384, Note_off_c, 2, 51, 68
3, 36384, Note_on_c, 2, 58, 66
3, 36480, Note_off_c, 2, 58, 66
3, 36480, Note_on_c, 2, 63, 69
3, 36576, Note_off_c, 2, 63, 69
3, 36576, Note_on_c, 2, 58, 47
3, 36672, Note_off_c, 2, 58, 47
3, 36672, Note_on_c, 2, 51, 69
3, 36768, Note_off_c, 2, 51, 69
3, 36768, Note_on_c, 2, 46, 71
3, 36864, Note_off_c, 2, 46, 71
3, 37824, Note_on_c, 2, 53, 61
3, 37920, Note_off_c, 2, 53, 61
3, 37920, Note_on_c, 2, 60, 61
3, 38016, Note_off_c, 2, 60, 61
3, 38016, Note_on_c, 2, 65, 60
3, 38112, Note_off_c, 2, 65, 60
3, 38112, Note_on_c, 2, 60, 53
3, 38208, Note_off_c, 2, 60, 53
3, 38208, Note_on_c, 2, 53, 57
3, 38304, Note_off_c, 2, 53, 57
3, 38304, Note_on_c, 2, 48, 74
3, 38400, Note_off_c, 2, 48, 74
3, 39360, Note_on_c, 2, 53, 58
3, 39456, Note_off_c, 2, 53, 58
3, 39456, Note_on_c, 2, 60, 59
3, 39552, Note_off_c, 2, 60, 59
3, 39552, Note_on_c, 2, 65, 64
3, 39648, Note_off_c, 2, 65, 64
3, 39648, Note_on_c, 2, 60, 58
3, 39744, Note_off_c, 2, 60, 58
3, 39744, Note_on_c, 2, 53, 64
3, 39840, Note_off_c, 2, 53, 64
3, 39840, Note_on_c, 2, 48, 79
3, 39936, Note_off_c, 2, 48, 79
3, 40896, Note_on_c, 2, 55, 69
3, 40992, Note_off_c, 2, 55, 69
3, 40992, Note_on_c, 2, 62, 67
3, 41088, Note_off_c, 2, 62, 67
3, 41088, Note_on_c, 2, 67, 65
3, 41184, Note_off_c, 2, 67, 65
3, 41184, Note_on_c, 2, 62, 56
3, 41280, Note_off_c, 2, 62, 56
3, 41280, Note_on_c, 2, 55, 73
3, 41376, Note_off_c, 2, 55, 73
3, 41376, Note_on_c, 2, 50, 76
3, 41472, Note_off_c, 2, 50, 76
3, 42432, Note_on_c, 2, 55, 57
3, 42528, Note_off_c, 2, 55, 57
3, 42528, Note_on_c, 2, 62, 65
3, 42624, Note_off_c, 2, 62, 65
3, 42624, Note_on_c, 2, 67, 66
3, 42720, Note_off_c, 2, 67, 66
3, 42720, Note_on_c, 2, 62, 59
3, 42816, Note_off_c, 2, 62, 59
3, 42816, Note_on_c, 2, 55, 75
3, 42912, Note_off_c, 2, 55, 75
3, 42912, Note_on_c, 2, 50, 71
3, 43008, Note_off_c, 2, 50, 71
3, 43968, Note_on_c, 2, 53, 50
3, 44064, Note_off_c, 2, 53, 50
3, 44064, Note_on_c, 2, 60, 63
3, 44160, Note_off_c, 2, 60, 63
3, 44160, Note_on_c, 2, 65, 53
3, 44256, Note_off_c, 2, 65, 53
3, 44256, Note_on_c, 2, 60, 57
3, 44352, Note_off_c, 2, 60, 57
3, 44352, Note_on_c, 2, 53, 58
3, 44448, Note_off_c, 2, 53, 58
3, 44448, Note_on_c, 2, 48, 65
3, 44544, Note_off_c, 2, 48, 65
3, 45504, Note_on_c, 2, 53, 65
3, 45600, Note_off_c, 2, 53, 65
3, 45600, Note_on_c, 2, 60, 59
3, 45696, Note_off_c, 2, 60, 59
3, 45696, Note_on_c, 2, 65, 51
3, 45792, Note_off_c, 2, 65, 51
3, 45792, Note_on_c, 2, 60, 54
3, 45888, Note_off_c, 2, 60, 54
3, 45888, Note_on_c, 2, 53, 54
3, 45984, Note_off_c, 2, 53, 54
3, 45984, Note_on_c, 2, 48, 73
3, 46080, Note_off_c, 2, 48, 73
3, 47040, Note_on_c, 2, 56, 60
3, 47136, Note_off_c, 2, 56, 60
3, 47136, Note_on_c, 2, 63, 66
3, 47232, Note_off_c, 2, 63, 66
3, 47232, Note_on_c, 2, 68, 59
3, 47328, Note_off_c, 2, 68, 59
3, 47328, Note_on_c, 2, 63, 56
3, 47424, Note_off_c, 2, 63, 56
3, 47424, Note_on_c, 2, 56, 60
3, 47520, Note_off_c, 2, 56, 60
3, 47520, Note_on_c, 2, 51, 66
3, 47616, Note_off_c, 2, 51, 66
3, 98496, Note_on_c, 2, 51, 67
3, 98592, Note_off_c, 2, 51, 67
3, 98592, Note_on_c, 2, 58, 64
3, 98688, Note_off_c, 2, 58, 64
3, 98688, Note_on_c, 2, 63, 61
3, 98784, Note_off_c, 2, 63, 61
3, 98784, Note_on_c, 2, 58, 57
3, 98880, Note_off_c, 2, 58, 57
3, 98880, Note_on_c, 2, 51, 61
3, 98976, Note_off_c, 2, 51, 61
3, 98976, Note_on_c, 2, 46, 56
3, 99072, Note_off_c, 2, 46, 56
3, 100032, Note_on_c, 2, 51, 56
3, 100128, Note_off_c, 2, 51, 56
3, 100128, Note_on_c, 2, 58, 47
3, 100224, Note_off_c, 2, 58, 47
3, 100224, Note_on_c, 2, 63, 52
3, 100320, Note_off_c, 2, 63, 52
3, 100320, Note_on_c, 2, 58, 56
3, 100416, Note_off_c, 2, 58, 56
3, 100416, Note_on_c, 2, 51, 60
3, 100512, Note_off_c, 2, 51, 60
3, 100512, Note_on_c, 2, 46, 52
3, 100608, Note_off_c, 2, 46, 52
3, 101568, Note_on_c, 2, 51, 60
3, 101664, Note_off_c, 2, 51, 60
3, 101664, Note_on_c, 2, 58, 51
3, 101760, Note_off_c, 2, 58, 51
3, 101760, Note_on_c, 2, 63, 59
3, 101856, Note_off_c, 2, 63, 59
3, 101856, Note_on_c, 2, 58, 55
3, 101952, Note_off_c, 2, 58, 55
3, 101952, Note_on_c, 2, 51, 66
3, 102048, Note_off_c, 2, 51, 66
3, 102048, Note_on_c, 2, 46, 66
3, 102144, Note_off_c, 2, 46, 66
3, 103104, Note_on_c, 2, 51, 59
3, 103200, Note_off_c, 2, 51, 59
3, 103200, Note_on_c, 2, 58, 56
3, 103296, Note_off_c, 2, 58, 56
3, 103296, Note_on_c, 2, 63, 60
3, 103392, Note_off_c, 2, 63, 60
3, 103392, Note_on_c, 2, 58, 54
3, 103488, Note_off_c, 2, 58, 54
3, 103488, Note_on_c, 2, 51, 64
3, 103584, Note_off_c, 2, 51, 64
3, 103584, Note_on_c, 2, 46, 64
3, 103680, Note_off_c, 2, 46, 64
3, 104640, Note_on_c, 2, 51, 63
3, 104736, Note_off_c, 2, 51, 63
3, 104736, Note_on_c, 2, 58, 57
3, 104832, Note_off_c, 2, 58, 57
3, 104832, Note_on_c, 2, 63, 53
3, 104928, Note_off_c, 2, 63, 53
3, 104928, Note_on_c, 2, 58, 53
3, 105024, Note_off_c, 2, 58, 53
3, 105024, Note_on_c, 2, 51, 64
3, 105120, Note_off_c, 2, 51, 64
3, 105120, Note_on_c, 2, 46, 64
3, 105216, Note_off_c, 2, 46, 64
3, 106176, Note_on_c, 2, 51, 56
3, 106272, Note_off_c, 2, 51, 56
3, 106272, Note_on_c, 2, 58, 56
3, 106368, Note_off_c, 2, 58, 56
3, 106368, Note_on_c, 2, 63, 64
3, 106464, Note_off_c, 2, 63, 64
3, 106464, Note_on_c, 2, 58, 48
3, 106560, Note_off_c, 2, 58, 48
3, 106560, Note_on_c, 2, 51, 61
3, 106656, Note_off_c, 2, 51, 61
3, 106656, Note_on_c, 2, 46, 64
3, 106752, Note_off_c, 2, 46, 64
3, 107712, Note_on_c, 2, 51, 64
3, 107808, Note_off_c, 2, 51, 64
3, 107808, Note_on_c, 2, 58, 56
3, 107904, Note_off_c, 2, 58, 56
3, 107904, Note_on_c, 2, 63, 61
3, 108000, Note_off_c, 2, 63, 61
3, 108000, Note_on_c, 2, 58, 57
3, 108096, Note_off_c, 2, 58, 57
3, 108096, Note_on_c, 2, 51, 65
3, 108192, Note_off_c, 2, 51, 65
3, 108192, Note_on_c, 2, 46, 58
3, 108288, Note_off_c, 2, 46, 58
3, 109248, Note_on_c, 2, 51, 68
3, 109344, Note_off_c, 2, 51, 68
3, 109344, Note_on_c, 2, 58, 66
3, 109440, Note_off_c, 2, 58, 66
3, 109440, Note_on_c, 2, 63, 69
3, 109536, Note_off_c, 2, 63, 69
3, 109536, Note_on_c, 2, 58, 47
3, 109632, Note_off_c, 2, 58, 47
3, 109632, Note_on_c, 2, 51, 69
3, 109728, Note_off_c, 2, 51, 69
3, 109728, Note_on_c, 2, 46, 71
3, 109824, Note_off_c, 2, 46, 71
3, 110784, Note_on_c, 2, 53, 61
3, 110880, Note_off_c, 2, 53, 61
3, 110880, Note_on_c, 2, 60, 61
3, 110976, Note_off_c, 2, 60, 61
3, 110976, Note_on_c, 2, 65, 60
3, 111072, Note_off_c, 2, 65, 60
3, 111072, Note_on_c, 2, 60, 53
3, 111168, Note_off_c, 2, 60, 53
3, 111168, Note_on_c, 2, 53, 57
3, 111264, Note_off_c, 2, 53, 57
3, 111264, Note_on_c, 2, 48, 74
3, 111360, Note_off_c, 2, 48, 74
3, 112320, Note_on_c, 2, 53, 58
3, 112416, Note_off_c, 2, 53, 58
3, 112416, Note_on_c, 2, 60, 59
3, 112512, Note_off_c, 2, 60, 59
3, 112512, Note_on_c, 2, 65, 64
3, 112608, Note_off_c, 2, 65, 64
3, 112608, Note_on_c, 2, 60, 58
3, 112704, Note_off_c, 2, 60, 58
3, 112704, Note_on_c, 2, 53, 64
3, 112800, Note_off_c, 2, 53, 64
3, 112800, Note_on_c, 2, 48, 79
3, 112896, Note_off_c, 2, 48, 79
3, 113856, Note_on_c, 2, 55, 69
3, 113952, Note_off_c, 2, 55, 69
3, 113952, Note_on_c, 2, 62, 67
3, 114048, Note_off_c, 2, 62, 67
3, 114048, Note_on_c, 2, 67, 65
3, 114144, Note_off_c, 2, 67, 65
3, 114144, Note_on_c, 2, 62, 56
3, 114240, Note_off_c, 2, 62, 56
3, 114240, Note_on_c, 2, 55, 73
3, 114336, Note_off_c, 2, 55, 73
3, 114336, Note_on_c, 2, 50, 76
3, 114432, Note_off_c, 2, 50, 76
3, 115392, Note_on_c, 2, 55, 57
3, 115488, Note_off_c, 2, 55, 57
3, 115488, Note_on_c, 2, 62, 65
3, 115584, Note_off_c, 2, 62, 65
3, 115584, Note_on_c, 2, 67, 66
3, 115680, Note_off_c, 2, 67, 66
3, 115680, Note_on_c, 2, 62, 59
3, 115776, Note_off_c, 2, 62, 59
3, 115776, Note_on_c, 2, 55, 75
3, 115872, Note_off_c, 2, 55, 75
3, 115872, Note_on_c, 2, 50, 71
3, 115968, Note_off_c, 2, 50, 71
3, 116928, Note_on_c, 2, 53, 50
3, 117024, Note_off_c, 2, 53, 50
3, 117024, Note_on_c, 2, 60, 63
3, 117120, Note_off_c, 2, 60, 63
3, 117120, Note_on_c, 2, 65, 53
3, 117216, Note_off_c, 2, 65, 53
3, 117216, Note_on_c, 2, 60, 57
3, 117312, Note_off_c, 2, 60, 57
3, 117312, Note_on_c, 2, 53, 58
3, 117408, Note_off_c, 2, 53, 58
3, 117408, Note_on_c, 2, 48, 65
3, 117504, Note_off_c, 2, 48, 65
3, 118464, Note_on_c, 2, 53, 65
3, 118560, Note_off_c, 2, 53, 65
3, 118560, Note_on_c, 2, 60, 59
3, 118656, Note_off_c, 2, 60, 59
3, 118656, Note_on_c, 2, 65, 51
3, 118752, Note_off_c, 2, 65, 51
3, 118752, Note_on_c, 2, 60, 54
3, 118848, Note_off_c, 2, 60, 54
3, 118848, Note_on_c, 2, 53, 54
3, 118944, Note_off_c, 2, 53, 54
3, 118944, Note_on_c, 2, 48, 73
3, 119040, Note_off_c, 2, 48, 73
3, 120000, Note_on_c, 2, 56, 60
3, 120096, Note_off_c, 2, 56, 60
3, 120096, Note_on_c, 2, 63, 66
3, 120192, Note_off_c, 2, 63, 66
3, 120192, Note_on_c, 2, 68, 59
3, 120288, Note_off_c, 2, 68, 59
3, 120288, Note_on_c, 2, 63, 56
3, 120384, Note_off_c, 2, 63, 56
3, 120384, Note_on_c, 2, 56, 60
3, 120480, Note_off_c, 2, 56, 60
3, 120480, Note_on_c, 2, 51, 66
3, 120576, Note_off_c, 2, 51, 66
3, 221952, End_track
4, 0, Start_track
4, 0, Title_t, "MELODY"
4, 444, Control_c, 3, 0, 0
4, 448, Control_c, 3, 121, 0
4, 452, Program_c, 3, 56
4, 456, Control_c, 3, 7, 97
4, 456, Control_c, 3, 10, 64
4, 456, Control_c, 3, 11, 127
4, 460, Control_c, 3, 91, 100
4, 460, Control_c, 3, 93, 0
4, 24576, Note_on_c, 3, 68, 114
4, 25104, Note_off_c, 3, 68, 114
4, 25152, Note_on_c, 3, 67, 92
4, 25228, Note_off_c, 3, 67, 92
4, 25344, Note_on_c, 3, 67, 100
4, 25836, Note_off_c, 3, 67, 100
4, 25920, Note_on_c, 3, 67, 87
4, 25972, Note_off_c, 3, 67, 87
4, 26016, Note_on_c, 3, 67, 91
4, 26076, Note_off_c, 3, 67, 91
4, 26112, Note_on_c, 3, 68, 105
4, 26396, Note_off_c, 3, 68, 105
4, 26492, Note_on_c, 3, 67, 97
4, 26832, Note_off_c, 3, 67, 97
4, 26876, Note_on_c, 3, 65, 97
4, 27260, Note_off_c, 3, 65, 97
4, 27260, Note_on_c, 3, 63, 98
4, 27552, Note_off_c, 3, 63, 98
4, 27648, Note_on_c, 3, 68, 104
4, 28180, Note_off_c, 3, 68, 104
4, 28224, Note_on_c, 3, 67, 89
4, 28312, Note_off_c, 3, 67, 89
4, 28416, Note_on_c, 3, 67, 94
4, 29992, Note_off_c, 3, 67, 94
4, 30720, Note_on_c, 3, 72, 113
4, 31252, Note_off_c, 3, 72, 113
4, 31296, Note_on_c, 3, 70, 104
4, 31380, Note_off_c, 3, 70, 104
4, 31488, Note_on_c, 3, 70, 107
4, 31908, Note_off_c, 3, 70, 107
4, 32060, Note_on_c, 3, 70, 96
4, 32104, Note_off_c, 3, 70, 96
4, 32160, Note_on_c, 3, 70, 92
4, 32220, Note_off_c, 3, 70, 92
4, 32256, Note_on_c, 3, 72, 99
4, 32552, Note_off_c, 3, 72, 99
4, 32636, Note_on_c, 3, 70, 102
4, 32948, Note_off_c, 3, 70, 102
4, 33020, Note_on_c, 3, 68, 104
4, 33332, Note_off_c, 3, 68, 104
4, 33404, Note_on_c, 3, 67, 94
4, 33700, Note_off_c, 3, 67, 94
4, 33788, Note_on_c, 3, 68, 107
4, 34288, Note_off_c, 3, 68, 107
4, 34368, Note_on_c, 3, 67, 88
4, 34448, Note_off_c, 3, 67, 88
4, 34560, Note_on_c, 3, 67, 93
4, 36172, Note_off_c, 3, 67, 93
4, 36864, Note_on_c, 3, 70, 120
4, 37356, Note_off_c, 3, 70, 120
4, 37440, Note_on_c, 3, 69, 97
4, 37520, Note_off_c, 3, 69, 97
4, 37632, Note_on_c, 3, 69, 102
4, 38028, Note_off_c, 3, 69, 102
4, 38200, Note_on_c, 3, 69, 74
4, 38240, Note_off_c, 3, 69, 74
4, 38296, Note_on_c, 3, 69, 91
4, 38352, Note_off_c, 3, 69, 91
4, 38396, Note_on_c, 3, 70, 112
4, 38664, Note_off_c, 3, 70, 112
4, 38780, Note_on_c, 3, 69, 103
4, 39056, Note_off_c, 3, 69, 103
4, 39164, Note_on_c, 3, 67, 94
4, 39436, Note_off_c, 3, 67, 94
4, 39548, Note_on_c, 3, 69, 104
4, 39756, Note_off_c, 3, 69, 104
4, 39936, Note_on_c, 3, 72, 114
4, 40460, Note_off_c, 3, 72, 114
4, 40512, Note_on_c, 3, 71, 98
4, 40592, Note_off_c, 3, 71, 98
4, 40704, Note_on_c, 3, 71, 104
4, 41228, Note_off_c, 3, 71, 104
4, 41280, Note_on_c, 3, 72, 96
4, 41360, Note_off_c, 3, 72, 96
4, 41472, Note_on_c, 3, 72, 108
4, 41804, Note_off_c, 3, 72, 108
4, 41856, Note_on_c, 3, 71, 102
4, 42128, Note_off_c, 3, 71, 102
4, 42240, Note_on_c, 3, 72, 104
4, 42492, Note_off_c, 3, 72, 104
4, 42624, Note_on_c, 3, 74, 99
4, 42820, Note_off_c, 3, 74, 99
4, 43008, Note_on_c, 3, 74, 110
4, 43292, Note_on_c, 3, 72, 98
4, 43316, Note_off_c, 3, 74, 110
4, 43484, Note_off_c, 3, 72, 98
4, 43584, Note_on_c, 3, 72, 104
4, 43672, Note_off_c, 3, 72, 104
4, 43776, Note_on_c, 3, 72, 105
4, 44396, Note_off_c, 3, 72, 105
4, 44544, Note_on_c, 3, 74, 113
4, 44828, Note_off_c, 3, 74, 113
4, 44828, Note_on_c, 3, 72, 95
4, 44996, Note_off_c, 3, 72, 95
4, 45116, Note_on_c, 3, 72, 103
4, 45216, Note_off_c, 3, 72, 103
4, 45312, Note_on_c, 3, 72, 106
4, 45896, Note_off_c, 3, 72, 106
4, 46076, Note_on_c, 3, 75, 116
4, 46364, Note_on_c, 3, 74, 95
4, 46372, Note_off_c, 3, 75, 116
4, 46560, Note_off_c, 3, 74, 95
4, 46652, Note_on_c, 3, 72, 99
4, 46784, Note_off_c, 3, 72, 99
4, 46848, Note_on_c, 3, 72, 104
4, 47408, Note_off_c, 3, 72, 104
4, 47612, Note_on_c, 3, 75, 116
4, 47900, Note_on_c, 3, 74, 99
4, 47920, Note_off_c, 3, 75, 116
4, 48112, Note_off_c, 3, 74, 99
4, 48188, Note_on_c, 3, 72, 100
4, 48304, Note_off_c, 3, 72, 100
4, 48380, Note_on_c, 3, 72, 104
4, 48384, Control_c, 3, 11, 126
4, 48432, Control_c, 3, 11, 125
4, 48480, Control_c, 3, 11, 123
4, 48528, Control_c, 3, 11, 121
4, 48576, Control_c, 3, 11, 119
4, 48624, Control_c, 3, 11, 117
4, 48672, Control_c, 3, 11, 115
4, 48720, Control_c, 3, 11, 113
4, 48768, Control_c, 3, 11, 111
4, 48816, Control_c, 3, 11, 109
4, 48864, Control_c, 3, 11, 107
4, 48912, Control_c, 3, 11, 105
4, 48960, Control_c, 3, 11, 103
4, 49008, Control_c, 3, 11, 101
4, 49056, Control_c, 3, 11, 99
4, 49104, Control_c, 3, 11, 97
4, 49152, Control_c, 3, 11, 95
4, 49200, Control_c, 3, 11, 93
4, 49248, Control_c, 3, 11, 91
4, 49296, Control_c, 3, 11, 89
4, 49344, Control_c, 3, 11, 87
4, 49392, Control_c, 3, 11, 85
4, 49440, Control_c, 3, 11, 83
4, 49488, Control_c, 3, 11, 81
4, 49536, Control_c, 3, 11, 79
4, 49584, Control_c, 3, 11, 77
4, 49632, Control_c, 3, 11, 75
4, 49680, Control_c, 3, 11, 73
4, 49728, Control_c, 3, 11, 71
4, 49776, Control_c, 3, 11, 69
4, 49824, Control_c, 3, 11, 67
4, 49872, Control_c, 3, 11, 65
4, 49920, Control_c, 3, 11, 63
4, 49968, Control_c, 3, 11, 61
4, 50016, Control_c, 3, 11, 59
4, 50064, Control_c, 3, 11, 57
4, 50112, Control_c, 3, 11, 55
4, 50160, Control_c, 3, 11, 53
4, 50208, Control_c, 3, 11, 51
4, 50256, Control_c, 3, 11, 49
4, 50304, Control_c, 3, 11, 47
4, 50352, Control_c, 3, 11, 45
4, 50400, Control_c, 3, 11, 43
4, 50448, Control_c, 3, 11, 41
4, 50496, Control_c, 3, 11, 39
4, 50544, Control_c, 3, 11, 37
4, 50592, Control_c, 3, 11, 35
4, 50640, Control_c, 3, 11, 33
4, 50688, Control_c, 3, 11, 31
4, 50692, Note_off_c, 3, 72, 104
4, 50736, Control_c, 3, 11, 29
4, 50784, Control_c, 3, 11, 27
4, 50832, Control_c, 3, 11, 25
4, 50880, Control_c, 3, 11, 23
4, 50928, Control_c, 3, 11, 21
4, 50976, Control_c, 3, 11, 19
4, 51024, Control_c, 3, 11, 17
4, 51072, Control_c, 3, 11, 15
4, 51120, Control_c, 3, 11, 13
4, 51168, Control_c, 3, 11, 11
4, 51216, Control_c, 3, 11, 9
4, 51264, Control_c, 3, 11, 7
4, 51312, Control_c, 3, 11, 5
4, 51360, Control_c, 3, 11, 3
4, 51408, Control_c, 3, 11, 127
4, 51456, Note_on_c, 3, 72, 114
4, 51600, Note_off_c, 3, 72, 114
4, 51648, Note_on_c, 3, 72, 89
4, 51712, Note_off_c, 3, 72, 89
4, 51744, Note_on_c, 3, 72, 109
4, 51820, Note_off_c, 3, 72, 109
4, 52796, Note_on_c, 3, 72, 99
4, 52852, Note_off_c, 3, 72, 99
4, 52896, Note_on_c, 3, 72, 99
4, 52952, Note_off_c, 3, 72, 99
4, 52988, Note_on_c, 3, 72, 90
4, 53184, Note_on_c, 3, 70, 98
4, 53224, Note_off_c, 3, 72, 90
4, 53260, Note_off_c, 3, 70, 98
4, 53376, Note_on_c, 3, 70, 100
4, 53448, Note_off_c, 3, 70, 100
4, 53568, Note_on_c, 3, 70, 91
4, 53604, Note_off_c, 3, 70, 91
4, 53664, Note_on_c, 3, 70, 85
4, 53732, Note_off_c, 3, 70, 85
4, 53756, Note_on_c, 3, 75, 100
4, 53864, Note_off_c, 3, 75, 100
4, 53952, Note_on_c, 3, 75, 99
4, 54112, Note_off_c, 3, 75, 99
4, 54144, Note_on_c, 3, 74, 95
4, 54336, Note_on_c, 3, 72, 93
4, 54344, Note_off_c, 3, 74, 95
4, 54408, Note_off_c, 3, 72, 93
4, 54528, Note_on_c, 3, 72, 109
4, 54676, Note_off_c, 3, 72, 109
4, 54720, Note_on_c, 3, 72, 88
4, 54776, Note_off_c, 3, 72, 88
4, 54816, Note_on_c, 3, 72, 111
4, 54888, Note_off_c, 3, 72, 111
4, 55868, Note_on_c, 3, 72, 93
4, 55916, Note_off_c, 3, 72, 93
4, 55964, Note_on_c, 3, 72, 97
4, 56012, Note_off_c, 3, 72, 97
4, 56060, Note_on_c, 3, 72, 108
4, 56256, Note_on_c, 3, 70, 100
4, 56304, Note_off_c, 3, 72, 108
4, 56332, Note_off_c, 3, 70, 100
4, 56448, Note_on_c, 3, 70, 94
4, 56520, Note_off_c, 3, 70, 94
4, 56640, Note_on_c, 3, 70, 91
4, 56676, Note_off_c, 3, 70, 91
4, 56736, Note_on_c, 3, 70, 95
4, 56792, Note_off_c, 3, 70, 95
4, 56832, Note_on_c, 3, 75, 103
4, 56916, Note_off_c, 3, 75, 103
4, 57024, Note_on_c, 3, 75, 99
4, 57164, Note_off_c, 3, 75, 99
4, 57216, Note_on_c, 3, 74, 96
4, 57360, Note_off_c, 3, 74, 96
4, 57408, Note_on_c, 3, 72, 91
4, 57492, Note_off_c, 3, 72, 91
4, 57600, Note_on_c, 3, 72, 102
4, 57772, Note_off_c, 3, 72, 102
4, 57888, Note_on_c, 3, 72, 100
4, 58048, Note_off_c, 3, 72, 100
4, 58176, Note_on_c, 3, 72, 102
4, 58844, Note_off_c, 3, 72, 102
4, 58944, Note_on_c, 3, 72, 99
4, 59040, Note_off_c, 3, 72, 99
4, 59136, Note_on_c, 3, 72, 102
4, 59344, Note_off_c, 3, 72, 102
4, 59420, Note_on_c, 3, 74, 100
4, 59608, Note_off_c, 3, 74, 100
4, 59708, Note_on_c, 3, 75, 105
4, 59856, Note_off_c, 3, 75, 105
4, 59904, Note_on_c, 3, 74, 102
4, 60092, Note_off_c, 3, 74, 102
4, 60188, Note_on_c, 3, 72, 102
4, 60392, Note_off_c, 3, 72, 102
4, 60476, Note_on_c, 3, 70, 102
4, 60592, Note_off_c, 3, 70, 102
4, 60672, Note_on_c, 3, 72, 104
4, 60836, Note_off_c, 3, 72, 104
4, 60956, Note_on_c, 3, 72, 100
4, 61100, Note_off_c, 3, 72, 100
4, 61240, Note_on_c, 3, 72, 102
4, 61352, Note_off_c, 3, 72, 102
4, 61440, Note_on_c, 3, 72, 102
4, 62108, Note_off_c, 3, 72, 102
4, 63744, Note_on_c, 3, 72, 114
4, 63888, Note_off_c, 3, 72, 114
4, 63936, Note_on_c, 3, 72, 89
4, 64000, Note_off_c, 3, 72, 89
4, 64032, Note_on_c, 3, 72, 109
4, 64108, Note_off_c, 3, 72, 109
4, 65084, Note_on_c, 3, 72, 99
4, 65140, Note_off_c, 3, 72, 99
4, 65184, Note_on_c, 3, 72, 99
4, 65208, Note_off_c, 3, 72, 99
4, 65276, Note_on_c, 3, 72, 90
4, 65472, Note_on_c, 3, 70, 98
4, 65512, Note_off_c, 3, 72, 90
4, 65548, Note_off_c, 3, 70, 98
4, 65664, Note_on_c, 3, 70, 100
4, 65736, Note_off_c, 3, 70, 100
4, 65856, Note_on_c, 3, 70, 91
4, 65892, Note_off_c, 3, 70, 91
4, 65952, Note_on_c, 3, 70, 85
4, 66020, Note_off_c, 3, 70, 85
4, 66044, Note_on_c, 3, 75, 100
4, 66152, Note_off_c, 3, 75, 100
4, 66240, Note_on_c, 3, 75, 99
4, 66400, Note_off_c, 3, 75, 99
4, 66432, Note_on_c, 3, 74, 95
4, 66624, Note_on_c, 3, 72, 93
4, 66632, Note_off_c, 3, 74, 95
4, 66696, Note_off_c, 3, 72, 93
4, 66816, Note_on_c, 3, 72, 109
4, 66964, Note_off_c, 3, 72, 109
4, 67008, Note_on_c, 3, 72, 88
4, 67064, Note_off_c, 3, 72, 88
4, 67104, Note_on_c, 3, 72, 111
4, 67176, Note_off_c, 3, 72, 111
4, 68156, Note_on_c, 3, 72, 93
4, 68204, Note_off_c, 3, 72, 93
4, 68252, Note_on_c, 3, 72, 97
4, 68300, Note_off_c, 3, 72, 97
4, 68348, Note_on_c, 3, 72, 108
4, 68544, Note_on_c, 3, 70, 100
4, 68592, Note_off_c, 3, 72, 108
4, 68620, Note_off_c, 3, 70, 100
4, 68736, Note_on_c, 3, 70, 94
4, 68808, Note_off_c, 3, 70, 94
4, 68928, Note_on_c, 3, 70, 91
4, 68964, Note_off_c, 3, 70, 91
4, 69024, Note_on_c, 3, 70, 95
4, 69080, Note_off_c, 3, 70, 95
4, 69120, Note_on_c, 3, 75, 103
4, 69204, Note_off_c, 3, 75, 103
4, 69312, Note_on_c, 3, 75, 99
4, 69452, Note_off_c, 3, 75, 99
4, 69504, Note_on_c, 3, 74, 96
4, 69648, Note_off_c, 3, 74, 96
4, 69696, Note_on_c, 3, 72, 91
4, 69780, Note_off_c, 3, 72, 91
4, 69888, Note_on_c, 3, 72, 102
4, 70060, Note_off_c, 3, 72, 102
4, 70176, Note_on_c, 3, 72, 100
4, 70336, Note_off_c, 3, 72, 100
4, 70464, Note_on_c, 3, 72, 102
4, 71132, Note_off_c, 3, 72, 102
4, 71232, Note_on_c, 3, 72, 99
4, 71328, Note_off_c, 3, 72, 99
4, 71424, Note_on_c, 3, 72, 102
4, 71632, Note_off_c, 3, 72, 102
4, 71708, Note_on_c, 3, 74, 100
4, 71896, Note_off_c, 3, 74, 100
4, 71996, Note_on_c, 3, 75, 105
4, 72144, Note_off_c, 3, 75, 105
4, 72192, Note_on_c, 3, 74, 102
4, 72380, Note_off_c, 3, 74, 102
4, 72476, Note_on_c, 3, 72, 102
4, 72680, Note_off_c, 3, 72, 102
4, 72764, Note_on_c, 3, 70, 102
4, 72880, Note_off_c, 3, 70, 102
4, 72960, Note_on_c, 3, 72, 104
4, 73124, Note_off_c, 3, 72, 104
4, 73244, Note_on_c, 3, 72, 100
4, 73388, Note_off_c, 3, 72, 100
4, 73528, Note_on_c, 3, 72, 102
4, 73640, Note_off_c, 3, 72, 102
4, 73728, Note_on_c, 3, 72, 102
4, 74396, Note_off_c, 3, 72, 102
4, 97536, Note_on_c, 3, 68, 114
4, 98064, Note_off_c, 3, 68, 114
4, 98112, Note_on_c, 3, 67, 92
4, 98188, Note_off_c, 3, 67, 92
4, 98304, Note_on_c, 3, 67, 100
4, 98796, Note_off_c, 3, 67, 100
4, 98880, Note_on_c, 3, 67, 87
4, 98932, Note_off_c, 3, 67, 87
4, 98976, Note_on_c, 3, 67, 91
4, 99036, Note_off_c, 3, 67, 91
4, 99072, Note_on_c, 3, 68, 105
4, 99356, Note_off_c, 3, 68, 105
4, 99452, Note_on_c, 3, 67, 97
4, 99792, Note_off_c, 3, 67, 97
4, 99836, Note_on_c, 3, 65, 97
4, 100220, Note_off_c, 3, 65, 97
4, 100220, Note_on_c, 3, 63, 98
4, 100512, Note_off_c, 3, 63, 98
4, 100608, Note_on_c, 3, 68, 104
4, 101140, Note_off_c, 3, 68, 104
4, 101184, Note_on_c, 3, 67, 89
4, 101272, Note_off_c, 3, 67, 89
4, 101376, Note_on_c, 3, 67, 94
4, 102952, Note_off_c, 3, 67, 94
4, 103680, Note_on_c, 3, 72, 113
4, 104212, Note_off_c, 3, 72, 113
4, 104256, Note_on_c, 3, 70, 104
4, 104340, Note_off_c, 3, 70, 104
4, 104448, Note_on_c, 3, 70, 107
4, 104868, Note_off_c, 3, 70, 107
4, 105020, Note_on_c, 3, 70, 96
4, 105064, Note_off_c, 3, 70, 96
4, 105120, Note_on_c, 3, 70, 92
4, 105180, Note_off_c, 3, 70, 92
4, 105216, Note_on_c, 3, 72, 99
4, 105512, Note_off_c, 3, 72, 99
4, 105596, Note_on_c, 3, 70, 102
4, 105908, Note_off_c, 3, 70, 102
4, 105980, Note_on_c, 3, 68, 104
4, 106292, Note_off_c, 3, 68, 104
4, 106364, Note_on_c, 3, 67, 94
4, 106660, Note_off_c, 3, 67, 94
4, 106748, Note_on_c, 3, 68, 107
4, 107248, Note_off_c, 3, 68, 107
4, 107328, Note_on_c, 3, 67, 88
4, 107408, Note_off_c, 3, 67, 88
4, 107520, Note_on_c, 3, 67, 93
4, 109132, Note_off_c, 3, 67, 93
4, 109824, Note_on_c, 3, 70, 120
4, 110316, Note_off_c, 3, 70, 120
4, 110400, Note_on_c, 3, 69, 97
4, 110480, Note_off_c, 3, 69, 97
4, 110592, Note_on_c, 3, 69, 102
4, 110988, Note_off_c, 3, 69, 102
4, 111160, Note_on_c, 3, 69, 74
4, 111200, Note_off_c, 3, 69, 74
4, 111256, Note_on_c, 3, 69, 91
4, 111312, Note_off_c, 3, 69, 91
4, 111356, Note_on_c, 3, 70, 112
4, 111624, Note_off_c, 3, 70, 112
4, 111740, Note_on_c, 3, 69, 103
4, 112016, Note_off_c, 3, 69, 103
4, 112124, Note_on_c, 3, 67, 94
4, 112396, Note_off_c, 3, 67, 94
4, 112508, Note_on_c, 3, 69, 104
4, 112716, Note_off_c, 3, 69, 104
4, 112896, Note_on_c, 3, 72, 114
4, 113420, Note_off_c, 3, 72, 114
4, 113472, Note_on_c, 3, 71, 98
4, 113552, Note_off_c, 3, 71, 98
4, 113664, Note_on_c, 3, 71, 104
4, 114188, Note_off_c, 3, 71, 104
4, 114240, Note_on_c, 3, 72, 96
4, 114320, Note_off_c, 3, 72, 96
4, 114432, Note_on_c, 3, 72, 108
4, 114764, Note_off_c, 3, 72, 108
4, 114816, Note_on_c, 3, 71, 102
4, 115088, Note_off_c, 3, 71, 102
4, 115200, Note_on_c, 3, 72, 104
4, 115452, Note_off_c, 3, 72, 104
4, 115584, Note_on_c, 3, 74, 99
4, 115780, Note_off_c, 3, 74, 99
4, 115968, Note_on_c, 3, 74, 110
4, 116252, Note_on_c, 3, 72, 98
4, 116276, Note_off_c, 3, 74, 110
4, 116444, Note_off_c, 3, 72, 98
4, 116544, Note_on_c, 3, 72, 104
4, 116632, Note_off_c, 3, 72, 104
4, 116736, Note_on_c, 3, 72, 105
4, 117356, Note_off_c, 3, 72, 105
4, 117504, Note_on_c, 3, 74, 113
4, 117788, Note_off_c, 3, 74, 113
4, 117788, Note_on_c, 3, 72, 95
4, 117956, Note_off_c, 3, 72, 95
4, 118076, Note_on_c, 3, 72, 103
4, 118176, Note_off_c, 3, 72, 103
4, 118272, Note_on_c, 3, 72, 106
4, 118856, Note_off_c, 3, 72, 106
4, 119036, Note_on_c, 3, 75, 116
4, 119324, Note_on_c, 3, 74, 95
4, 119332, Note_off_c, 3, 75, 116
4, 119520, Note_off_c, 3, 74, 95
4, 119612, Note_on_c, 3, 72, 99
4, 119744, Note_off_c, 3, 72, 99
4, 119808, Note_on_c, 3, 72, 104
4, 120368, Note_off_c, 3, 72, 104
4, 120572, Note_on_c, 3, 75, 116
4, 120860, Note_on_c, 3, 74, 99
4, 120880, Note_off_c, 3, 75, 116
4, 121072, Note_off_c, 3, 74, 99
4, 121148, Note_on_c, 3, 72, 100
4, 121264, Note_off_c, 3, 72, 100
4, 121340, Note_on_c, 3, 72, 104
4, 121344, Control_c, 3, 11, 126
4, 121392, Control_c, 3, 11, 125
4, 121440, Control_c, 3, 11, 123
4, 121488, Control_c, 3, 11, 121
4, 121536, Control_c, 3, 11, 119
4, 121584, Control_c, 3, 11, 117
4, 121632, Control_c, 3, 11, 115
4, 121680, Control_c, 3, 11, 113
4, 121728, Control_c, 3, 11, 111
4, 121776, Control_c, 3, 11, 109
4, 121824, Control_c, 3, 11, 107
4, 121872, Control_c, 3, 11, 105
4, 121920, Control_c, 3, 11, 103
4, 121968, Control_c, 3, 11, 101
4, 122016, Control_c, 3, 11, 99
4, 122064, Control_c, 3, 11, 97
4, 122112, Control_c, 3, 11, 95
4, 122160, Control_c, 3, 11, 93
4, 122208, Control_c, 3, 11, 91
4, 122256, Control_c, 3, 11, 89
4, 122304, Control_c, 3, 11, 87
4, 122352, Control_c, 3, 11, 85
4, 122400, Control_c, 3, 11, 83
4, 122448, Control_c, 3, 11, 81
4, 122496, Control_c, 3, 11, 79
4, 122544, Control_c, 3, 11, 77
4, 122592, Control_c, 3, 11, 75
4, 122640, Control_c, 3, 11, 73
4, 122688, Control_c, 3, 11, 71
4, 122736, Control_c, 3, 11, 69
4, 122784, Control_c, 3, 11, 67
4, 122832, Control_c, 3, 11, 65
4, 122880, Control_c, 3, 11, 63
4, 122928, Control_c, 3, 11, 61
4, 122976, Control_c, 3, 11, 59
4, 123024, Control_c, 3, 11, 57
4, 123072, Control_c, 3, 11, 55
4, 123120, Control_c, 3, 11, 53
4, 123168, Control_c, 3, 11, 51
4, 123216, Control_c, 3, 11, 49
4, 123264, Control_c, 3, 11, 47
4, 123312, Control_c, 3, 11, 45
4, 123360, Control_c, 3, 11, 43
4, 123408, Control_c, 3, 11, 41
4, 123456, Control_c, 3, 11, 39
4, 123504, Control_c, 3, 11, 37
4, 123552, Control_c, 3, 11, 35
4, 123600, Control_c, 3, 11, 33
4, 123648, Control_c, 3, 11, 31
4, 123652, Note_off_c, 3, 72, 104
4, 123696, Control_c, 3, 11, 29
4, 123744, Control_c, 3, 11, 27
4, 123792, Control_c, 3, 11, 25
4, 123840, Control_c, 3, 11, 23
4, 123888, Control_c, 3, 11, 21
4, 123936, Control_c, 3, 11, 19
4, 123984, Control_c, 3, 11, 17
4, 124032, Control_c, 3, 11, 15
4, 124080, Control_c, 3, 11, 13
4, 124128, Control_c, 3, 11, 11
4, 124176, Control_c, 3, 11, 9
4, 124224, Control_c, 3, 11, 7
4, 124272, Control_c, 3, 11, 5
4, 124320, Control_c, 3, 11, 3
4, 124368, Control_c, 3, 11, 127
4, 124416, Note_on_c, 3, 72, 114
4, 124560, Note_off_c, 3, 72, 114
4, 124608, Note_on_c, 3, 72, 89
4, 124672, Note_off_c, 3, 72, 89
4, 124704, Note_on_c, 3, 72, 109
4, 124780, Note_off_c, 3, 72, 109
4, 125756, Note_on_c, 3, 72, 99
4, 125812, Note_off_c, 3, 72, 99
4, 125856, Note_on_c, 3, 72, 99
4, 125904, Note_off_c, 3, 72, 99
4, 125952, Note_on_c, 3, 72, 90
4, 126144, Note_on_c, 3, 70, 98
4, 126188, Note_off_c, 3, 72, 90
4, 126220, Note_off_c, 3, 70, 98
4, 126336, Note_on_c, 3, 70, 100
4, 126408, Note_off_c, 3, 70, 100
4, 126528, Note_on_c, 3, 70, 91
4, 126564, Note_off_c, 3, 70, 91
4, 126624, Note_on_c, 3, 70, 85
4, 126692, Note_off_c, 3, 70, 85
4, 126716, Note_on_c, 3, 75, 100
4, 126824, Note_off_c, 3, 75, 100
4, 126912, Note_on_c, 3, 75, 99
4, 127072, Note_off_c, 3, 75, 99
4, 127104, Note_on_c, 3, 74, 95
4, 127296, Note_on_c, 3, 72, 93
4, 127304, Note_off_c, 3, 74, 95
4, 127368, Note_off_c, 3, 72, 93
4, 127488, Note_on_c, 3, 72, 109
4, 127636, Note_off_c, 3, 72, 109
4, 127680, Note_on_c, 3, 72, 88
4, 127736, Note_off_c, 3, 72, 88
4, 127776, Note_on_c, 3, 72, 111
4, 127848, Note_off_c, 3, 72, 111
4, 128828, Note_on_c, 3, 72, 93
4, 128876, Note_off_c, 3, 72, 93
4, 128924, Note_on_c, 3, 72, 97
4, 128996, Note_off_c, 3, 72, 97
4, 129024, Note_on_c, 3, 72, 108
4, 129216, Note_on_c, 3, 70, 100
4, 129268, Note_off_c, 3, 72, 108
4, 129292, Note_off_c, 3, 70, 100
4, 129408, Note_on_c, 3, 70, 94
4, 129480, Note_off_c, 3, 70, 94
4, 129600, Note_on_c, 3, 70, 91
4, 129636, Note_off_c, 3, 70, 91
4, 129696, Note_on_c, 3, 70, 95
4, 129752, Note_off_c, 3, 70, 95
4, 129792, Note_on_c, 3, 75, 103
4, 129876, Note_off_c, 3, 75, 103
4, 129984, Note_on_c, 3, 75, 99
4, 130124, Note_off_c, 3, 75, 99
4, 130176, Note_on_c, 3, 74, 96
4, 130320, Note_off_c, 3, 74, 96
4, 130368, Note_on_c, 3, 72, 91
4, 130452, Note_off_c, 3, 72, 91
4, 130560, Note_on_c, 3, 72, 102
4, 130732, Note_off_c, 3, 72, 102
4, 130848, Note_on_c, 3, 72, 100
4, 131008, Note_off_c, 3, 72, 100
4, 131136, Note_on_c, 3, 72, 102
4, 131804, Note_off_c, 3, 72, 102
4, 131904, Note_on_c, 3, 72, 99
4, 132000, Note_off_c, 3, 72, 99
4, 132096, Note_on_c, 3, 72, 102
4, 132304, Note_off_c, 3, 72, 102
4, 132380, Note_on_c, 3, 74, 100
4, 132568, Note_off_c, 3, 74, 100
4, 132668, Note_on_c, 3, 75, 105
4, 132816, Note_off_c, 3, 75, 105
4, 132864, Note_on_c, 3, 74, 102
4, 133052, Note_off_c, 3, 74, 102
4, 133148, Note_on_c, 3, 72, 102
4, 133352, Note_off_c, 3, 72, 102
4, 133436, Note_on_c, 3, 70, 102
4, 133552, Note_off_c, 3, 70, 102
4, 133632, Note_on_c, 3, 72, 104
4, 133796, Note_off_c, 3, 72, 104
4, 133916, Note_on_c, 3, 72, 100
4, 134060, Note_off_c, 3, 72, 100
4, 134200, Note_on_c, 3, 72, 102
4, 134312, Note_off_c, 3, 72, 102
4, 134400, Note_on_c, 3, 72, 102
4, 135068, Note_off_c, 3, 72, 102
4, 136704, Note_on_c, 3, 72, 114
4, 136848, Note_off_c, 3, 72, 114
4, 136896, Note_on_c, 3, 72, 89
4, 136960, Note_off_c, 3, 72, 89
4, 136992, Note_on_c, 3, 72, 109
4, 137068, Note_off_c, 3, 72, 109
4, 138044, Note_on_c, 3, 72, 99
4, 138100, Note_off_c, 3, 72, 99
4, 138144, Note_on_c, 3, 72, 99
4, 138168, Note_off_c, 3, 72, 99
4, 138236, Note_on_c, 3, 72, 90
4, 138432, Note_on_c, 3, 70, 98
4, 138472, Note_off_c, 3, 72, 90
4, 138508, Note_off_c, 3, 70, 98
4, 138624, Note_on_c, 3, 70, 100
4, 138696, Note_off_c, 3, 70, 100
4, 138816, Note_on_c, 3, 70, 91
4, 138852, Note_off_c, 3, 70, 91
4, 138912, Note_on_c, 3, 70, 85
4, 138980, Note_off_c, 3, 70, 85
4, 139004, Note_on_c, 3, 75, 100
4, 139112, Note_off_c, 3, 75, 100
4, 139200, Note_on_c, 3, 75, 99
4, 139360, Note_off_c, 3, 75, 99
4, 139392, Note_on_c, 3, 74, 95
4, 139584, Note_on_c, 3, 72, 93
4, 139592, Note_off_c, 3, 74, 95
4, 139656, Note_off_c, 3, 72, 93
4, 139776, Note_on_c, 3, 72, 109
4, 139924, Note_off_c, 3, 72, 109
4, 139968, Note_on_c, 3, 72, 88
4, 140024, Note_off_c, 3, 72, 88
4, 140064, Note_on_c, 3, 72, 111
4, 140136, Note_off_c, 3, 72, 111
4, 141116, Note_on_c, 3, 72, 93
4, 141164, Note_off_c, 3, 72, 93
4, 141212, Note_on_c, 3, 72, 97
4, 141260, Note_off_c, 3, 72, 97
4, 141308, Note_on_c, 3, 72, 108
4, 141504, Note_on_c, 3, 70, 100
4, 141552, Note_off_c, 3, 72, 108
4, 141580, Note_off_c, 3, 70, 100
4, 141696, Note_on_c, 3, 70, 94
4, 141768, Note_off_c, 3, 70, 94
4, 141888, Note_on_c, 3, 70, 91
4, 141924, Note_off_c, 3, 70, 91
4, 141984, Note_on_c, 3, 70, 95
4, 142040, Note_off_c, 3, 70, 95
4, 142080, Note_on_c, 3, 75, 103
4, 142164, Note_off_c, 3, 75, 103
4, 142272, Note_on_c, 3, 75, 99
4, 142412, Note_off_c, 3, 75, 99
4, 142464, Note_on_c, 3, 74, 96
4, 142608, Note_off_c, 3, 74, 96
4, 142656, Note_on_c, 3, 72, 91
4, 142740, Note_off_c, 3, 72, 91
4, 142848, Note_on_c, 3, 72, 102
4, 143020, Note_off_c, 3, 72, 102
4, 143136, Note_on_c, 3, 72, 100
4, 143296, Note_off_c, 3, 72, 100
4, 143424, Note_on_c, 3, 72, 102
4, 144092, Note_off_c, 3, 72, 102
4, 144192, Note_on_c, 3, 72, 99
4, 144288, Note_off_c, 3, 72, 99
4, 144384, Note_on_c, 3, 72, 102
4, 144592, Note_off_c, 3, 72, 102
4, 144668, Note_on_c, 3, 74, 100
4, 144856, Note_off_c, 3, 74, 100
4, 144956, Note_on_c, 3, 75, 105
4, 145104, Note_off_c, 3, 75, 105
4, 145152, Note_on_c, 3, 74, 102
4, 145340, Note_off_c, 3, 74, 102
4, 145436, Note_on_c, 3, 72, 102
4, 145640, Note_off_c, 3, 72, 102
4, 145724, Note_on_c, 3, 70, 102
4, 145840, Note_off_c, 3, 70, 102
4, 145920, Note_on_c, 3, 72, 104
4, 146084, Note_off_c, 3, 72, 104
4, 146204, Note_on_c, 3, 72, 100
4, 146348, Note_off_c, 3, 72, 100
4, 146488, Note_on_c, 3, 72, 102
4, 146600, Note_off_c, 3, 72, 102
4, 146688, Note_on_c, 3, 72, 102
4, 147356, Note_off_c, 3, 72, 102
4, 165888, Note_on_c, 3, 72, 114
4, 166032, Note_off_c, 3, 72, 114
4, 166080, Note_on_c, 3, 72, 89
4, 166144, Note_off_c, 3, 72, 89
4, 166176, Note_on_c, 3, 72, 109
4, 166252, Note_off_c, 3, 72, 109
4, 167228, Note_on_c, 3, 72, 99
4, 167284, Note_off_c, 3, 72, 99
4, 167328, Note_on_c, 3, 72, 99
4, 167352, Note_off_c, 3, 72, 99
4, 167420, Note_on_c, 3, 72, 90
4, 167616, Note_on_c, 3, 70, 98
4, 167656, Note_off_c, 3, 72, 90
4, 167692, Note_off_c, 3, 70, 98
4, 167808, Note_on_c, 3, 70, 100
4, 167880, Note_off_c, 3, 70, 100
4, 168000, Note_on_c, 3, 70, 91
4, 168036, Note_off_c, 3, 70, 91
4, 168096, Note_on_c, 3, 70, 85
4, 168164, Note_off_c, 3, 70, 85
4, 168188, Note_on_c, 3, 75, 100
4, 168296, Note_off_c, 3, 75, 100
4, 168384, Note_on_c, 3, 75, 99
4, 168544, Note_off_c, 3, 75, 99
4, 168576, Note_on_c, 3, 74, 95
4, 168768, Note_on_c, 3, 72, 93
4, 168776, Note_off_c, 3, 74, 95
4, 168840, Note_off_c, 3, 72, 93
4, 168960, Note_on_c, 3, 72, 109
4, 169108, Note_off_c, 3, 72, 109
4, 169152, Note_on_c, 3, 72, 88
4, 169208, Note_off_c, 3, 72, 88
4, 169248, Note_on_c, 3, 72, 111
4, 169320, Note_off_c, 3, 72, 111
4, 170300, Note_on_c, 3, 72, 93
4, 170348, Note_off_c, 3, 72, 93
4, 170396, Note_on_c, 3, 72, 97
4, 170444, Note_off_c, 3, 72, 97
4, 170492, Note_on_c, 3, 72, 108
4, 170688, Note_on_c, 3, 70, 100
4, 170736, Note_off_c, 3, 72, 108
4, 170764, Note_off_c, 3, 70, 100
4, 170880, Note_on_c, 3, 70, 94
4, 170952, Note_off_c, 3, 70, 94
4, 171072, Note_on_c, 3, 70, 91
4, 171108, Note_off_c, 3, 70, 91
4, 171168, Note_on_c, 3, 70, 95
4, 171224, Note_off_c, 3, 70, 95
4, 171264, Note_on_c, 3, 75, 103
4, 171348, Note_off_c, 3, 75, 103
4, 171456, Note_on_c, 3, 75, 99
4, 171596, Note_off_c, 3, 75, 99
4, 171648, Note_on_c, 3, 74, 96
4, 171792, Note_off_c, 3, 74, 96
4, 171840, Note_on_c, 3, 72, 91
4, 171924, Note_off_c, 3, 72, 91
4, 172032, Note_on_c, 3, 72, 102
4, 172204, Note_off_c, 3, 72, 102
4, 172320, Note_on_c, 3, 72, 100
4, 172480, Note_off_c, 3, 72, 100
4, 172608, Note_on_c, 3, 72, 102
4, 173276, Note_off_c, 3, 72, 102
4, 173376, Note_on_c, 3, 72, 99
4, 173472, Note_off_c, 3, 72, 99
4, 173568, Note_on_c, 3, 72, 102
4, 173776, Note_off_c, 3, 72, 102
4, 173852, Note_on_c, 3, 74, 100
4, 174040, Note_off_c, 3, 74, 100
4, 174140, Note_on_c, 3, 75, 105
4, 174288, Note_off_c, 3, 75, 105
4, 174336, Note_on_c, 3, 74, 102
4, 174524, Note_off_c, 3, 74, 102
4, 174620, Note_on_c, 3, 72, 102
4, 174824, Note_off_c, 3, 72, 102
4, 174908, Note_on_c, 3, 70, 102
4, 175024, Note_off_c, 3, 70, 102
4, 175104, Note_on_c, 3, 72, 104
4, 175268, Note_off_c, 3, 72, 104
4, 175388, Note_on_c, 3, 72, 100
4, 175532, Note_off_c, 3, 72, 100
4, 175672, Note_on_c, 3, 72, 102
4, 175784, Note_off_c, 3, 72, 102
4, 175872, Note_on_c, 3, 72, 102
4, 176540, Note_off_c, 3, 72, 102
4, 178176, Note_on_c, 3, 72, 114
4, 178320, Note_off_c, 3, 72, 114
4, 178368, Note_on_c, 3, 72, 89
4, 178432, Note_off_c, 3, 72, 89
4, 178464, Note_on_c, 3, 72, 109
4, 178540, Note_off_c, 3, 72, 109
4, 179516, Note_on_c, 3, 72, 99
4, 179572, Note_off_c, 3, 72, 99
4, 179616, Note_on_c, 3, 72, 99
4, 179640, Note_off_c, 3, 72, 99
4, 179708, Note_on_c, 3, 72, 90
4, 179904, Note_on_c, 3, 70, 98
4, 179944, Note_off_c, 3, 72, 90
4, 179980, Note_off_c, 3, 70, 98
4, 180096, Note_on_c, 3, 70, 100
4, 180168, Note_off_c, 3, 70, 100
4, 180288, Note_on_c, 3, 70, 91
4, 180324, Note_off_c, 3, 70, 91
4, 180384, Note_on_c, 3, 70, 85
4, 180452, Note_off_c, 3, 70, 85
4, 180476, Note_on_c, 3, 75, 100
4, 180584, Note_off_c, 3, 75, 100
4, 180672, Note_on_c, 3, 75, 99
4, 180832, Note_off_c, 3, 75, 99
4, 180864, Note_on_c, 3, 74, 95
4, 181056, Note_on_c, 3, 72, 93
4, 181064, Note_off_c, 3, 74, 95
4, 181128, Note_off_c, 3, 72, 93
4, 181248, Note_on_c, 3, 72, 109
4, 181396, Note_off_c, 3, 72, 109
4, 181440, Note_on_c, 3, 72, 88
4, 181496, Note_off_c, 3, 72, 88
4, 181536, Note_on_c, 3, 72, 111
4, 181608, Note_off_c, 3, 72, 111
4, 182588, Note_on_c, 3, 72, 93
4, 182636, Note_off_c, 3, 72, 93
4, 182684, Note_on_c, 3, 72, 97
4, 182732, Note_off_c, 3, 72, 97
4, 182780, Note_on_c, 3, 72, 108
4, 182976, Note_on_c, 3, 70, 100
4, 183024, Note_off_c, 3, 72, 108
4, 183052, Note_off_c, 3, 70, 100
4, 183168, Note_on_c, 3, 70, 94
4, 183240, Note_off_c, 3, 70, 94
4, 183360, Note_on_c, 3, 70, 91
4, 183396, Note_off_c, 3, 70, 91
4, 183456, Note_on_c, 3, 70, 95
4, 183512, Note_off_c, 3, 70, 95
4, 183552, Note_on_c, 3, 75, 103
4, 183636, Note_off_c, 3, 75, 103
4, 183744, Note_on_c, 3, 75, 99
4, 183884, Note_off_c, 3, 75, 99
4, 183936, Note_on_c, 3, 74, 96
4, 184080, Note_off_c, 3, 74, 96
4, 184128, Note_on_c, 3, 72, 91
4, 184212, Note_off_c, 3, 72, 91
4, 184320, Note_on_c, 3, 72, 102
4, 184492, Note_off_c, 3, 72, 102
4, 184608, Note_on_c, 3, 72, 100
4, 184768, Note_off_c, 3, 72, 100
4, 184896, Note_on_c, 3, 72, 102
4, 185564, Note_off_c, 3, 72, 102
4, 185664, Note_on_c, 3, 72, 99
4, 185760, Note_off_c, 3, 72, 99
4, 185856, Note_on_c, 3, 72, 102
4, 186064, Note_off_c, 3, 72, 102
4, 186140, Note_on_c, 3, 74, 100
4, 186328, Note_off_c, 3, 74, 100
4, 186428, Note_on_c, 3, 75, 105
4, 186576, Note_off_c, 3, 75, 105
4, 186624, Note_on_c, 3, 74, 102
4, 186812, Note_off_c, 3, 74, 102
4, 186908, Note_on_c, 3, 72, 102
4, 187112, Note_off_c, 3, 72, 102
4, 187196, Note_on_c, 3, 70, 102
4, 187312, Note_off_c, 3, 70, 102
4, 187392, Note_on_c, 3, 72, 104
4, 187556, Note_off_c, 3, 72, 104
4, 187676, Note_on_c, 3, 72, 100
4, 187820, Note_off_c, 3, 72, 100
4, 187960, Note_on_c, 3, 72, 102
4, 188072, Note_off_c, 3, 72, 102
4, 188160, Note_on_c, 3, 72, 102
4, 188828, Note_off_c, 3, 72, 102
4, 192000, Note_on_c, 3, 72, 114
4, 192144, Note_off_c, 3, 72, 114
4, 192192, Note_on_c, 3, 72, 89
4, 192256, Note_off_c, 3, 72, 89
4, 192288, Note_on_c, 3, 72, 109
4, 192364, Note_off_c, 3, 72, 109
4, 193340, Note_on_c, 3, 72, 99
4, 193396, Note_off_c, 3, 72, 99
4, 193440, Note_on_c, 3, 72, 99
4, 193464, Note_off_c, 3, 72, 99
4, 193532, Note_on_c, 3, 72, 90
4, 193728, Note_on_c, 3, 70, 98
4, 193768, Note_off_c, 3, 72, 90
4, 193804, Note_off_c, 3, 70, 98
4, 193920, Note_on_c, 3, 70, 100
4, 193992, Note_off_c, 3, 70, 100
4, 194112, Note_on_c, 3, 70, 91
4, 194148, Note_off_c, 3, 70, 91
4, 194208, Note_on_c, 3, 70, 85
4, 194276, Note_off_c, 3, 70, 85
4, 194300, Note_on_c, 3, 75, 100
4, 194408, Note_off_c, 3, 75, 100
4, 194496, Note_on_c, 3, 75, 99
4, 194656, Note_off_c, 3, 75, 99
4, 194688, Note_on_c, 3, 74, 95
4, 194880, Note_on_c, 3, 72, 93
4, 194888, Note_off_c, 3, 74, 95
4, 194952, Note_off_c, 3, 72, 93
4, 195072, Note_on_c, 3, 72, 109
4, 195220, Note_off_c, 3, 72, 109
4, 195264, Note_on_c, 3, 72, 88
4, 195320, Note_off_c, 3, 72, 88
4, 195360, Note_on_c, 3, 72, 111
4, 195432, Note_off_c, 3, 72, 111
4, 196412, Note_on_c, 3, 72, 93
4, 196460, Note_off_c, 3, 72, 93
4, 196508, Note_on_c, 3, 72, 97
4, 196556, Note_off_c, 3, 72, 97
4, 196604, Note_on_c, 3, 72, 108
4, 196800, Note_on_c, 3, 70, 100
4, 196848, Note_off_c, 3, 72, 108
4, 196876, Note_off_c, 3, 70, 100
4, 196992, Note_on_c, 3, 70, 94
4, 197064, Note_off_c, 3, 70, 94
4, 197184, Note_on_c, 3, 70, 91
4, 197220, Note_off_c, 3, 70, 91
4, 197280, Note_on_c, 3, 70, 95
4, 197336, Note_off_c, 3, 70, 95
4, 197376, Note_on_c, 3, 75, 103
4, 197460, Note_off_c, 3, 75, 103
4, 197568, Note_on_c, 3, 75, 99
4, 197708, Note_off_c, 3, 75, 99
4, 197760, Note_on_c, 3, 74, 96
4, 197904, Note_off_c, 3, 74, 96
4, 197952, Note_on_c, 3, 72, 91
4, 198036, Note_off_c, 3, 72, 91
4, 198144, Note_on_c, 3, 72, 102
4, 198316, Note_off_c, 3, 72, 102
4, 198432, Note_on_c, 3, 72, 100
4, 198592, Note_off_c, 3, 72, 100
4, 198720, Note_on_c, 3, 72, 102
4, 199388, Note_off_c, 3, 72, 102
4, 199488, Note_on_c, 3, 72, 99
4, 199584, Note_off_c, 3, 72, 99
4, 199680, Note_on_c, 3, 72, 102
4, 199888, Note_off_c, 3, 72, 102
4, 199964, Note_on_c, 3, 74, 100
4, 200152, Note_off_c, 3, 74, 100
4, 200252, Note_on_c, 3, 75, 105
4, 200400, Note_off_c, 3, 75, 105
4, 200448, Note_on_c, 3, 74, 102
4, 200636, Note_off_c, 3, 74, 102
4, 200732, Note_on_c, 3, 72, 102
4, 200936, Note_off_c, 3, 72, 102
4, 201020, Note_on_c, 3, 70, 102
4, 201136, Note_off_c, 3, 70, 102
4, 201216, Note_on_c, 3, 72, 104
4, 201380, Note_off_c, 3, 72, 104
4, 201500, Note_on_c, 3, 72, 100
4, 201644, Note_off_c, 3, 72, 100
4, 201784, Note_on_c, 3, 72, 102
4, 201896, Note_off_c, 3, 72, 102
4, 201984, Note_on_c, 3, 72, 102
4, 202652, Note_off_c, 3, 72, 102
4, 204288, Note_on_c, 3, 72, 114
4, 204432, Note_off_c, 3, 72, 114
4, 204480, Note_on_c, 3, 72, 89
4, 204544, Note_off_c, 3, 72, 89
4, 204576, Note_on_c, 3, 72, 109
4, 204652, Note_off_c, 3, 72, 109
4, 205628, Note_on_c, 3, 72, 99
4, 205684, Note_off_c, 3, 72, 99
4, 205728, Note_on_c, 3, 72, 99
4, 205752, Note_off_c, 3, 72, 99
4, 205820, Note_on_c, 3, 72, 90
4, 206016, Note_on_c, 3, 70, 98
4, 206056, Note_off_c, 3, 72, 90
4, 206092, Note_off_c, 3, 70, 98
4, 206208, Note_on_c, 3, 70, 100
4, 206280, Note_off_c, 3, 70, 100
4, 206400, Note_on_c, 3, 70, 91
4, 206436, Note_off_c, 3, 70, 91
4, 206496, Note_on_c, 3, 70, 85
4, 206564, Note_off_c, 3, 70, 85
4, 206588, Note_on_c, 3, 75, 100
4, 206696, Note_off_c, 3, 75, 100
4, 206784, Note_on_c, 3, 75, 99
4, 206944, Note_off_c, 3, 75, 99
4, 206976, Note_on_c, 3, 74, 95
4, 207168, Note_on_c, 3, 72, 93
4, 207176, Note_off_c, 3, 74, 95
4, 207240, Note_off_c, 3, 72, 93
4, 207360, Note_on_c, 3, 72, 109
4, 207508, Note_off_c, 3, 72, 109
4, 207552, Note_on_c, 3, 72, 88
4, 207608, Note_off_c, 3, 72, 88
4, 207648, Note_on_c, 3, 72, 111
4, 207720, Note_off_c, 3, 72, 111
4, 208700, Note_on_c, 3, 72, 93
4, 208748, Note_off_c, 3, 72, 93
4, 208796, Note_on_c, 3, 72, 97
4, 208844, Note_off_c, 3, 72, 97
4, 208892, Note_on_c, 3, 72, 108
4, 209088, Note_on_c, 3, 70, 100
4, 209136, Note_off_c, 3, 72, 108
4, 209164, Note_off_c, 3, 70, 100
4, 209280, Note_on_c, 3, 70, 94
4, 209352, Note_off_c, 3, 70, 94
4, 209472, Note_on_c, 3, 70, 91
4, 209508, Note_off_c, 3, 70, 91
4, 209568, Note_on_c, 3, 70, 95
4, 209624, Note_off_c, 3, 70, 95
4, 209664, Note_on_c, 3, 75, 103
4, 209748, Note_off_c, 3, 75, 103
4, 209856, Note_on_c, 3, 75, 99
4, 209996, Note_off_c, 3, 75, 99
4, 210048, Note_on_c, 3, 74, 96
4, 210192, Note_off_c, 3, 74, 96
4, 210240, Note_on_c, 3, 72, 91
4, 210324, Note_off_c, 3, 72, 91
4, 210432, Note_on_c, 3, 72, 102
4, 210604, Note_off_c, 3, 72, 102
4, 210720, Note_on_c, 3, 72, 100
4, 210880, Note_off_c, 3, 72, 100
4, 211008, Note_on_c, 3, 72, 102
4, 211676, Note_off_c, 3, 72, 102
4, 211776, Note_on_c, 3, 72, 99
4, 211872, Note_off_c, 3, 72, 99
4, 211968, Note_on_c, 3, 72, 102
4, 212176, Note_off_c, 3, 72, 102
4, 212252, Note_on_c, 3, 74, 100
4, 212440, Note_off_c, 3, 74, 100
4, 212540, Note_on_c, 3, 75, 105
4, 212688, Note_off_c, 3, 75, 105
4, 212736, Note_on_c, 3, 74, 102
4, 212924, Note_off_c, 3, 74, 102
4, 213020, Note_on_c, 3, 72, 102
4, 213224, Note_off_c, 3, 72, 102
4, 213308, Note_on_c, 3, 70, 102
4, 213424, Note_off_c, 3, 70, 102
4, 213504, Note_on_c, 3, 72, 104
4, 213668, Note_off_c, 3, 72, 104
4, 213788, Note_on_c, 3, 72, 100
4, 213932, Note_off_c, 3, 72, 100
4, 214072, Note_on_c, 3, 72, 102
4, 214184, Note_off_c, 3, 72, 102
4, 214272, Note_on_c, 3, 72, 102
4, 214940, Note_off_c, 3, 72, 102
4, 218112, Note_on_c, 3, 72, 114
4, 218256, Note_off_c, 3, 72, 114
4, 218304, Note_on_c, 3, 72, 89
4, 218368, Note_off_c, 3, 72, 89
4, 218400, Note_on_c, 3, 72, 109
4, 218476, Note_off_c, 3, 72, 109
4, 221952, End_track
5, 0, Start_track
5, 0, Title_t, "STRINGS"
5, 464, Control_c, 4, 0, 0
5, 468, Control_c, 4, 121, 0
5, 472, Program_c, 4, 48
5, 476, Control_c, 4, 7, 100
5, 476, Control_c, 4, 10, 24
5, 476, Control_c, 4, 11, 127
5, 480, Control_c, 4, 91, 80
5, 480, Control_c, 4, 93, 20
5, 3072, Note_on_c, 4, 67, 50
5, 3072, Note_on_c, 4, 72, 50
5, 3072, Note_on_c, 4, 63, 50
5, 6144, Note_off_c, 4, 67, 50
5, 6144, Note_on_c, 4, 68, 50
5, 9148, Note_off_c, 4, 63, 50
5, 9208, Note_off_c, 4, 68, 50
5, 9216, Note_on_c, 4, 62, 50
5, 9216, Note_on_c, 4, 67, 50
5, 9216, Note_on_c, 4, 70, 50
5, 9228, Note_off_c, 4, 72, 50
5, 12252, Note_off_c, 4, 67, 50
5, 12260, Note_off_c, 4, 62, 50
5, 12288, Note_off_c, 4, 70, 50
5, 12288, Note_on_c, 4, 72, 50
5, 12288, Note_on_c, 4, 68, 50
5, 12288, Note_on_c, 4, 63, 50
5, 14548, Note_off_c, 4, 68, 50
5, 14592, Note_off_c, 4, 63, 50
5, 14592, Note_on_c, 4, 74, 50
5, 14592, Note_on_c, 4, 65, 50
5, 14592, Note_on_c, 4, 70, 50
5, 14652, Note_off_c, 4, 72, 50
5, 15312, Note_off_c, 4, 70, 50
5, 15312, Note_off_c, 4, 65, 50
5, 15312, Note_off_c, 4, 74, 50
5, 15360, Note_on_c, 4, 75, 50
5, 15360, Note_on_c, 4, 70, 50
5, 15360, Note_on_c, 4, 67, 50
5, 18432, Note_off_c, 4, 67, 50
5, 18432, Note_on_c, 4, 51, 112
5, 18456, Note_off_c, 4, 75, 50
5, 18460, Note_off_c, 4, 70, 50
5, 18540, Note_off_c, 4, 51, 112
5, 18624, Note_on_c, 4, 51, 90
5, 18716, Note_off_c, 4, 51, 90
5, 19008, Note_on_c, 4, 46, 86
5, 19092, Note_off_c, 4, 46, 86
5, 19200, Note_on_c, 4, 51, 110
5, 19292, Note_off_c, 4, 51, 110
5, 19392, Note_on_c, 4, 51, 90
5, 19476, Note_off_c, 4, 51, 90
5, 19776, Note_on_c, 4, 46, 76
5, 19844, Note_off_c, 4, 46, 76
5, 19968, Note_on_c, 4, 51, 109
5, 20056, Note_off_c, 4, 51, 109
5, 20160, Note_on_c, 4, 51, 88
5, 20244, Note_off_c, 4, 51, 88
5, 20544, Note_on_c, 4, 46, 79
5, 20600, Note_off_c, 4, 46, 79
5, 20736, Note_on_c, 4, 51, 112
5, 20824, Note_off_c, 4, 51, 112
5, 20928, Note_on_c, 4, 51, 86
5, 21016, Note_off_c, 4, 51, 86
5, 21312, Note_on_c, 4, 46, 68
5, 21368, Note_off_c, 4, 46, 68
5, 21504, Note_on_c, 4, 51, 118
5, 21596, Note_off_c, 4, 51, 118
5, 21696, Note_on_c, 4, 51, 90
5, 21772, Note_off_c, 4, 51, 90
5, 22080, Note_on_c, 4, 46, 79
5, 22148, Note_off_c, 4, 46, 79
5, 22272, Note_on_c, 4, 51, 112
5, 22356, Note_off_c, 4, 51, 112
5, 22464, Note_on_c, 4, 51, 81
5, 22552, Note_off_c, 4, 51, 81
5, 22848, Note_on_c, 4, 46, 77
5, 22912, Note_off_c, 4, 46, 77
5, 23040, Note_on_c, 4, 51, 110
5, 23124, Note_off_c, 4, 51, 110
5, 23232, Note_on_c, 4, 51, 79
5, 23316, Note_off_c, 4, 51, 79
5, 23616, Note_on_c, 4, 46, 76
5, 23664, Note_off_c, 4, 46, 76
5, 23808, Note_on_c, 4, 51, 112
5, 23888, Note_off_c, 4, 51, 112
5, 24000, Note_on_c, 4, 51, 93
5, 24100, Note_off_c, 4, 51, 93
5, 24384, Note_on_c, 4, 46, 88
5, 24440, Note_off_c, 4, 46, 88
5, 24576, Note_on_c, 4, 39, 94
5, 24576, Note_on_c, 4, 51, 109
5, 24668, Note_off_c, 4, 51, 109
5, 24768, Note_on_c, 4, 51, 91
5, 24880, Note_off_c, 4, 51, 91
5, 30432, Note_off_c, 4, 39, 94
5, 30720, Note_on_c, 4, 39, 66
5, 30720, Note_on_c, 4, 51, 66
5, 36864, Note_off_c, 4, 51, 66
5, 36864, Note_off_c, 4, 39, 66
5, 36864, Note_on_c, 4, 41, 69
5, 36864, Note_on_c, 4, 53, 69
5, 39916, Note_off_c, 4, 53, 69
5, 39916, Note_off_c, 4, 41, 69
5, 39936, Note_on_c, 4, 43, 74
5, 39936, Note_on_c, 4, 55, 74
5, 42984, Note_off_c, 4, 55, 74
5, 42984, Note_off_c, 4, 43, 74
5, 43008, Note_on_c, 4, 41, 69
5, 43008, Note_on_c, 4, 53, 69
5, 46044, Note_off_c, 4, 53, 69
5, 46044, Note_off_c, 4, 41, 69
5, 46080, Note_on_c, 4, 44, 70
5, 46080, Note_on_c, 4, 56, 70
5, 48384, Note_off_c, 4, 56, 70
5, 48384, Note_off_c, 4, 44, 70
5, 51456, Note_on_c, 4, 72, 50
5, 51456, Note_on_c, 4, 75, 50
5, 51456, Note_on_c, 4, 79, 50
5, 52960, Note_off_c, 4, 75, 50
5, 52992, Note_on_c, 4, 70, 50
5, 52992, Note_on_c, 4, 74, 50
5, 52996, Note_off_c, 4, 72, 50
5, 54528, Note_off_c, 4, 74, 50
5, 54528, Note_off_c, 4, 70, 50
5, 54528, Note_on_c, 4, 72, 50
5, 54528, Note_on_c, 4, 75, 50
5, 56052, Note_off_c, 4, 75, 50
5, 56064, Note_off_c, 4, 72, 50
5, 56064, Note_on_c, 4, 70, 50
5, 56064, Note_on_c, 4, 74, 50
5, 57584, Note_off_c, 4, 74, 50
5, 57596, Note_off_c, 4, 79, 50
5, 57600, Note_off_c, 4, 70, 50
5, 57600, Note_on_c, 4, 72, 50
5, 57600, Note_on_c, 4, 75, 50
5, 57600, Note_on_c, 4, 80, 50
5, 58368, Note_off_c, 4, 72, 50
5, 58368, Note_on_c, 4, 70, 50
5, 58368, Note_on_c, 4, 74, 50
5, 58388, Note_off_c, 4, 75, 50
5, 59116, Note_off_c, 4, 74, 50
5, 59136, Note_off_c, 4, 70, 50
5, 59136, Note_off_c, 4, 80, 50
5, 59136, Note_on_c, 4, 72, 50
5, 59136, Note_on_c, 4, 75, 50
5, 59136, Note_on_c, 4, 82, 50
5, 59888, Note_off_c, 4, 75, 50
5, 59896, Note_off_c, 4, 72, 50
5, 59904, Note_on_c, 4, 70, 50
5, 59904, Note_on_c, 4, 74, 50
5, 60672, Note_off_c, 4, 74, 50
5, 60672, Note_off_c, 4, 70, 50
5, 60672, Note_off_c, 4, 82, 50
5, 60672, Note_on_c, 4, 72, 50
5, 60672, Note_on_c, 4, 79, 50
5, 60672, Note_on_c, 4, 75, 50
5, 60672, Note_on_c, 4, 84, 50
5, 62208, Note_off_c, 4, 79, 50
5, 62208, Note_on_c, 4, 80, 50
5, 62784, Note_off_c, 4, 80, 50
5, 62784, Note_off_c, 4, 84, 50
5, 62784, Note_off_c, 4, 75, 50
5, 62784, Note_off_c, 4, 72, 50
5, 62784, Note_on_c, 4, 79, 50
5, 62784, Note_on_c, 4, 83, 50
5, 62784, Note_on_c, 4, 71, 50
5, 62784, Note_on_c, 4, 74, 50
5, 63524, Note_off_c, 4, 83, 50
5, 63532, Note_off_c, 4, 74, 50
5, 63536, Note_off_c, 4, 79, 50
5, 63552, Note_off_c, 4, 71, 50
5, 63744, Note_on_c, 4, 72, 50
5, 63744, Note_on_c, 4, 75, 50
5, 63744, Note_on_c, 4, 79, 50
5, 65248, Note_off_c, 4, 75, 50
5, 65280, Note_on_c, 4, 70, 50
5, 65280, Note_on_c, 4, 74, 50
5, 65284, Note_off_c, 4, 72, 50
5, 66816, Note_off_c, 4, 74, 50
5, 66816, Note_off_c, 4, 70, 50
5, 66816, Note_on_c, 4, 72, 50
5, 66816, Note_on_c, 4, 75, 50
5, 68340, Note_off_c, 4, 75, 50
5, 68352, Note_off_c, 4, 72, 50
5, 68352, Note_on_c, 4, 70, 50
5, 68352, Note_on_c, 4, 74, 50
5, 69872, Note_off_c, 4, 74, 50
5, 69884, Note_off_c, 4, 79, 50
5, 69888, Note_off_c, 4, 70, 50
5, 69888, Note_on_c, 4, 75, 50
5, 69888, Note_on_c, 4, 72, 50
5, 69888, Note_on_c, 4, 80, 50
5, 70656, Note_off_c, 4, 72, 50
5, 70656, Note_on_c, 4, 70, 50
5, 70656, Note_on_c, 4, 74, 50
5, 70676, Note_off_c, 4, 75, 50
5, 71404, Note_off_c, 4, 74, 50
5, 71424, Note_off_c, 4, 70, 50
5, 71424, Note_off_c, 4, 80, 50
5, 71424, Note_on_c, 4, 72, 50
5, 71424, Note_on_c, 4, 75, 50
5, 71424, Note_on_c, 4, 82, 50
5, 72176, Note_off_c, 4, 75, 50
5, 72184, Note_off_c, 4, 72, 50
5, 72192, Note_on_c, 4, 70, 50
5, 72192, Note_on_c, 4, 74, 50
5, 72960, Note_off_c, 4, 74, 50
5, 72960, Note_off_c, 4, 70, 50
5, 72960, Note_off_c, 4, 82, 50
5, 72960, Note_on_c, 4, 72, 50
5, 72960, Note_on_c, 4, 79, 50
5, 72960, Note_on_c, 4, 75, 50
5, 72960, Note_on_c, 4, 84, 50
5, 74496, Note_off_c, 4, 79, 50
5, 74496, Note_on_c, 4, 80, 50
5, 75072, Note_off_c, 4, 80, 50
5, 75072, Note_off_c, 4, 84, 50
5, 75072, Note_off_c, 4, 75, 50
5, 75072, Note_off_c, 4, 72, 50
5, 75072, Note_on_c, 4, 79, 50
5, 75072, Note_on_c, 4, 74, 50
5, 75072, Note_on_c, 4, 71, 50
5, 75072, Note_on_c, 4, 83, 50
5, 75812, Note_off_c, 4, 83, 50
5, 75820, Note_off_c, 4, 74, 50
5, 75824, Note_off_c, 4, 79, 50
5, 75840, Note_off_c, 4, 71, 50
5, 76032, Note_on_c, 4, 67, 50
5, 76032, Note_on_c, 4, 72, 50
5, 76032, Note_on_c, 4, 63, 50
5, 79104, Note_on_c, 4, 68, 50
5, 79144, Note_off_c, 4, 67, 50
5, 82108, Note_off_c, 4, 63, 50
5, 82168, Note_off_c, 4, 68, 50
5, 82176, Note_off_c, 4, 72, 50
5, 82176, Note_on_c, 4, 62, 50
5, 82176, Note_on_c, 4, 67, 50
5, 82176, Note_on_c, 4, 70, 50
5, 85212, Note_off_c, 4, 67, 50
5, 85220, Note_off_c, 4, 62, 50
5, 85248, Note_off_c, 4, 70, 50
5, 85248, Note_on_c, 4, 72, 50
5, 85248, Note_on_c, 4, 68, 50
5, 85248, Note_on_c, 4, 63, 50
5, 87492, Note_off_c, 4, 63, 50
5, 87508, Note_off_c, 4, 68, 50
5, 87552, Note_on_c, 4, 74, 50
5, 87552, Note_on_c, 4, 65, 50
5, 87552, Note_on_c, 4, 70, 50
5, 87612, Note_off_c, 4, 72, 50
5, 88208, Note_off_c, 4, 65, 50
5, 88248, Note_off_c, 4, 70, 50
5, 88260, Note_off_c, 4, 74, 50
5, 88320, Note_on_c, 4, 75, 50
5, 88320, Note_on_c, 4, 70, 50
5, 88320, Note_on_c, 4, 67, 50
5, 91392, Note_off_c, 4, 67, 50
5, 91392, Note_on_c, 4, 51, 112
5, 91416, Note_off_c, 4, 75, 50
5, 91420, Note_off_c, 4, 70, 50
5, 91500, Note_off_c, 4, 51, 112
5, 91584, Note_on_c, 4, 51, 90
5, 91676, Note_off_c, 4, 51, 90
5, 91968, Note_on_c, 4, 46, 86
5, 92052, Note_off_c, 4, 46, 86
5, 92160, Note_on_c, 4, 51, 110
5, 92252, Note_off_c, 4, 51, 110
5, 92352, Note_on_c, 4, 51, 90
5, 92436, Note_off_c, 4, 51, 90
5, 92736, Note_on_c, 4, 46, 76
5, 92804, Note_off_c, 4, 46, 76
5, 92928, Note_on_c, 4, 51, 109
5, 93016, Note_off_c, 4, 51, 109
5, 93120, Note_on_c, 4, 51, 88
5, 93204, Note_off_c, 4, 51, 88
5, 93504, Note_on_c, 4, 46, 79
5, 93560, Note_off_c, 4, 46, 79
5, 93696, Note_on_c, 4, 51, 112
5, 93784, Note_off_c, 4, 51, 112
5, 93888, Note_on_c, 4, 51, 86
5, 93976, Note_off_c, 4, 51, 86
5, 94272, Note_on_c, 4, 46, 68
5, 94328, Note_off_c, 4, 46, 68
5, 94464, Note_on_c, 4, 51, 118
5, 94556, Note_off_c, 4, 51, 118
5, 94656, Note_on_c, 4, 51, 90
5, 94732, Note_off_c, 4, 51, 90
5, 95040, Note_on_c, 4, 46, 79
5, 95108, Note_off_c, 4, 46, 79
5, 95232, Note_on_c, 4, 51, 112
5, 95316, Note_off_c, 4, 51, 112
5, 95424, Note_on_c, 4, 51, 81
5, 95512, Note_off_c, 4, 51, 81
5, 95808, Note_on_c, 4, 46, 77
5, 95872, Note_off_c, 4, 46, 77
5, 96000, Note_on_c, 4, 51, 110
5, 96084, Note_off_c, 4, 51, 110
5, 96192, Note_on_c, 4, 51, 79
5, 96276, Note_off_c, 4, 51, 79
5, 96576, Note_on_c, 4, 46, 76
5, 96624, Note_off_c, 4, 46, 76
5, 96768, Note_on_c, 4, 51, 112
5, 96848, Note_off_c, 4, 51, 112
5, 96960, Note_on_c, 4, 51, 93
5, 97060, Note_off_c, 4, 51, 93
5, 97344, Note_on_c, 4, 46, 88
5, 97400, Note_off_c, 4, 46, 88
5, 97536, Note_on_c, 4, 39, 94
5, 97536, Note_on_c, 4, 87, 64
5, 97536, Note_on_c, 4, 51, 109
5, 97628, Note_off_c, 4, 51, 109
5, 97728, Note_on_c, 4, 51, 91
5, 97840, Note_off_c, 4, 51, 91
5, 103392, Note_off_c, 4, 39, 94
5, 103680, Note_on_c, 4, 39, 86
5, 103680, Note_on_c, 4, 51, 86
5, 109824, Note_off_c, 4, 51, 86
5, 109824, Note_off_c, 4, 39, 86
5, 109824, Note_on_c, 4, 41, 89
5, 109824, Note_on_c, 4, 53, 89
5, 109824, Note_on_c, 4, 89, 64
5, 109884, Note_off_c, 4, 87, 64
5, 112840, Note_off_c, 4, 89, 64
5, 112876, Note_off_c, 4, 53, 89
5, 112876, Note_off_c, 4, 41, 89
5, 112896, Note_on_c, 4, 43, 94
5, 112896, Note_on_c, 4, 55, 94
5, 112896, Note_on_c, 4, 91, 64
5, 115944, Note_off_c, 4, 55, 94
5, 115944, Note_off_c, 4, 43, 94
5, 115968, Note_on_c, 4, 41, 89
5, 115968, Note_on_c, 4, 53, 89
5, 115968, Note_on_c, 4, 89, 64
5, 115980, Note_off_c, 4, 91, 64
5, 119004, Note_off_c, 4, 53, 89
5, 119004, Note_off_c, 4, 41, 89
5, 119040, Note_on_c, 4, 44, 90
5, 119040, Note_on_c, 4, 56, 90
5, 119040, Note_on_c, 4, 92, 64
5, 119068, Note_off_c, 4, 89, 64
5, 121344, Note_off_c, 4, 56, 90
5, 121344, Note_off_c, 4, 44, 90
5, 121680, Note_off_c, 4, 92, 64
5, 124416, Note_on_c, 4, 72, 50
5, 124416, Note_on_c, 4, 75, 50
5, 124416, Note_on_c, 4, 79, 50
5, 125920, Note_off_c, 4, 75, 50
5, 125952, Note_on_c, 4, 70, 50
5, 125952, Note_on_c, 4, 74, 50
5, 125956, Note_off_c, 4, 72, 50
5, 127488, Note_on_c, 4, 72, 50
5, 127488, Note_on_c, 4, 75, 50
5, 127520, Note_off_c, 4, 70, 50
5, 127528, Note_off_c, 4, 74, 50
5, 129012, Note_off_c, 4, 75, 50
5, 129024, Note_off_c, 4, 72, 50
5, 129024, Note_on_c, 4, 70, 50
5, 129024, Note_on_c, 4, 74, 50
5, 130544, Note_off_c, 4, 74, 50
5, 130556, Note_off_c, 4, 79, 50
5, 130560, Note_off_c, 4, 70, 50
5, 130560, Note_on_c, 4, 72, 50
5, 130560, Note_on_c, 4, 75, 50
5, 130560, Note_on_c, 4, 80, 50
5, 131328, Note_on_c, 4, 70, 50
5, 131328, Note_on_c, 4, 74, 50
5, 131348, Note_off_c, 4, 75, 50
5, 131380, Note_off_c, 4, 72, 50
5, 132076, Note_off_c, 4, 74, 50
5, 132096, Note_off_c, 4, 70, 50
5, 132096, Note_on_c, 4, 72, 50
5, 132096, Note_on_c, 4, 75, 50
5, 132096, Note_on_c, 4, 82, 50
5, 132124, Note_off_c, 4, 80, 50
5, 132848, Note_off_c, 4, 75, 50
5, 132856, Note_off_c, 4, 72, 50
5, 132864, Note_on_c, 4, 70, 50
5, 132864, Note_on_c, 4, 74, 50
5, 133632, Note_off_c, 4, 70, 50
5, 133632, Note_on_c, 4, 72, 50
5, 133632, Note_on_c, 4, 79, 50
5, 133632, Note_on_c, 4, 75, 50
5, 133632, Note_on_c, 4, 84, 50
5, 133644, Note_off_c, 4, 74, 50
5, 133660, Note_off_c, 4, 82, 50
5, 135168, Note_off_c, 4, 79, 50
5, 135168, Note_on_c, 4, 80, 50
5, 135744, Note_off_c, 4, 80, 50
5, 135744, Note_off_c, 4, 84, 50
5, 135744, Note_off_c, 4, 75, 50
5, 135744, Note_off_c, 4, 72, 50
5, 135744, Note_on_c, 4, 79, 50
5, 135744, Note_on_c, 4, 74, 50
5, 135744, Note_on_c, 4, 71, 50
5, 135744, Note_on_c, 4, 83, 50
5, 136464, Note_off_c, 4, 71, 50
5, 136484, Note_off_c, 4, 83, 50
5, 136492, Note_off_c, 4, 74, 50
5, 136496, Note_off_c, 4, 79, 50
5, 136704, Note_on_c, 4, 72, 50
5, 136704, Note_on_c, 4, 75, 50
5, 136704, Note_on_c, 4, 79, 50
5, 138208, Note_off_c, 4, 75, 50
5, 138240, Note_on_c, 4, 70, 50
5, 138240, Note_on_c, 4, 74, 50
5, 138244, Note_off_c, 4, 72, 50
5, 139776, Note_off_c, 4, 74, 50
5, 139776, Note_off_c, 4, 70, 50
5, 139776, Note_on_c, 4, 72, 50
5, 139776, Note_on_c, 4, 75, 50
5, 141300, Note_off_c, 4, 75, 50
5, 141312, Note_off_c, 4, 72, 50
5, 141312, Note_on_c, 4, 70, 50
5, 141312, Note_on_c, 4, 74, 50
5, 142832, Note_off_c, 4, 74, 50
5, 142844, Note_off_c, 4, 79, 50
5, 142848, Note_off_c, 4, 70, 50
5, 142848, Note_on_c, 4, 72, 50
5, 142848, Note_on_c, 4, 75, 50
5, 142848, Note_on_c, 4, 80, 50
5, 143616, Note_on_c, 4, 70, 50
5, 143616, Note_on_c, 4, 74, 50
5, 143636, Note_off_c, 4, 75, 50
5, 143668, Note_off_c, 4, 72, 50
5, 144364, Note_off_c, 4, 74, 50
5, 144384, Note_off_c, 4, 70, 50
5, 144384, Note_on_c, 4, 72, 50
5, 144384, Note_on_c, 4, 75, 50
5, 144384, Note_on_c, 4, 82, 50
5, 144412, Note_off_c, 4, 80, 50
5, 145136, Note_off_c, 4, 75, 50
5, 145144, Note_off_c, 4, 72, 50
5, 145152, Note_on_c, 4, 70, 50
5, 145152, Note_on_c, 4, 74, 50
5, 145920, Note_off_c, 4, 74, 50
5, 145920, Note_off_c, 4, 70, 50
5, 145920, Note_on_c, 4, 72, 50
5, 145920, Note_on_c, 4, 79, 50
5, 145920, Note_on_c, 4, 75, 50
5, 145920, Note_on_c, 4, 84, 50
5, 145948, Note_off_c, 4, 82, 50
5, 147456, Note_off_c, 4, 79, 50
5, 147456, Note_on_c, 4, 80, 50
5, 148032, Note_off_c, 4, 80, 50
5, 148032, Note_off_c, 4, 84, 50
5, 148032, Note_off_c, 4, 75, 50
5, 148032, Note_off_c, 4, 72, 50
5, 148032, Note_on_c, 4, 79, 50
5, 148032, Note_on_c, 4, 74, 50
5, 148032, Note_on_c, 4, 71, 50
5, 148032, Note_on_c, 4, 83, 50
5, 148752, Note_off_c, 4, 71, 50
5, 148772, Note_off_c, 4, 83, 50
5, 148780, Note_off_c, 4, 74, 50
5, 148784, Note_off_c, 4, 79, 50
5, 155136, Note_on_c, 4, 72, 84
5, 155712, Note_on_c, 4, 74, 84
5, 155740, Note_off_c, 4, 72, 84
5, 156288, Note_on_c, 4, 75, 84
5, 156328, Note_off_c, 4, 74, 84
5, 156660, Note_off_c, 4, 75, 84
5, 156672, Note_on_c, 4, 72, 84
5, 157248, Note_on_c, 4, 74, 84
5, 157308, Note_off_c, 4, 72, 84
5, 157808, Note_off_c, 4, 74, 84
5, 157824, Note_on_c, 4, 75, 84
5, 158184, Note_off_c, 4, 75, 84
5, 158208, Note_on_c, 4, 82, 84
5, 158784, Note_on_c, 4, 80, 84
5, 158792, Note_off_c, 4, 82, 84
5, 159360, Note_on_c, 4, 79, 84
5, 159396, Note_off_c, 4, 80, 84
5, 159736, Note_off_c, 4, 79, 84
5, 159744, Note_on_c, 4, 83, 84
5, 160320, Note_on_c, 4, 84, 84
5, 160324, Note_off_c, 4, 83, 84
5, 160896, Note_on_c, 4, 86, 84
5, 160924, Note_off_c, 4, 84, 84
5, 161280, Note_off_c, 4, 86, 84
5, 161280, Note_on_c, 4, 87, 84
5, 162048, Note_on_c, 4, 91, 54
5, 165888, Note_off_c, 4, 91, 54
5, 165888, Note_off_c, 4, 87, 84
5, 165888, Note_on_c, 4, 72, 50
5, 165888, Note_on_c, 4, 75, 50
5, 167392, Note_off_c, 4, 75, 50
5, 167424, Note_off_c, 4, 72, 50
5, 167424, Note_on_c, 4, 70, 50
5, 167424, Note_on_c, 4, 74, 50
5, 168960, Note_off_c, 4, 74, 50
5, 168960, Note_off_c, 4, 70, 50
5, 168960, Note_on_c, 4, 72, 50
5, 168960, Note_on_c, 4, 75, 50
5, 170484, Note_off_c, 4, 75, 50
5, 170496, Note_off_c, 4, 72, 50
5, 170496, Note_on_c, 4, 70, 50
5, 170496, Note_on_c, 4, 74, 50
5, 172016, Note_off_c, 4, 74, 50
5, 172032, Note_off_c, 4, 70, 50
5, 172032, Note_on_c, 4, 72, 50
5, 172032, Note_on_c, 4, 75, 50
5, 172800, Note_on_c, 4, 70, 50
5, 172800, Note_on_c, 4, 74, 50
5, 172820, Note_off_c, 4, 75, 50
5, 172852, Note_off_c, 4, 72, 50
5, 173548, Note_off_c, 4, 74, 50
5, 173568, Note_off_c, 4, 70, 50
5, 173568, Note_on_c, 4, 72, 50
5, 173568, Note_on_c, 4, 75, 50
5, 174320, Note_off_c, 4, 75, 50
5, 174328, Note_off_c, 4, 72, 50
5, 174336, Note_on_c, 4, 70, 50
5, 174336, Note_on_c, 4, 74, 50
5, 175104, Note_off_c, 4, 74, 50
5, 175104, Note_off_c, 4, 70, 50
5, 175104, Note_on_c, 4, 72, 50
5, 175104, Note_on_c, 4, 79, 50
5, 175104, Note_on_c, 4, 75, 50
5, 176640, Note_on_c, 4, 80, 50
5, 176648, Note_off_c, 4, 79, 50
5, 177216, Note_off_c, 4, 80, 50
5, 177216, Note_off_c, 4, 75, 50
5, 177216, Note_off_c, 4, 72, 50
5, 177216, Note_on_c, 4, 79, 50
5, 177216, Note_on_c, 4, 74, 50
5, 177216, Note_on_c, 4, 71, 50
5, 177936, Note_off_c, 4, 71, 50
5, 177964, Note_off_c, 4, 74, 50
5, 177968, Note_off_c, 4, 79, 50
5, 178176, Note_on_c, 4, 72, 50
5, 178176, Note_on_c, 4, 75, 50
5, 179680, Note_off_c, 4, 75, 50
5, 179712, Note_on_c, 4, 70, 50
5, 179712, Note_on_c, 4, 74, 50
5, 179716, Note_off_c, 4, 72, 50
5, 181248, Note_off_c, 4, 74, 50
5, 181248, Note_off_c, 4, 70, 50
5, 181248, Note_on_c, 4, 72, 50
5, 181248, Note_on_c, 4, 75, 50
5, 182772, Note_off_c, 4, 75, 50
5, 182784, Note_off_c, 4, 72, 50
5, 182784, Note_on_c, 4, 70, 50
5, 182784, Note_on_c, 4, 74, 50
5, 184304, Note_off_c, 4, 74, 50
5, 184320, Note_off_c, 4, 70, 50
5, 184320, Note_on_c, 4, 72, 50
5, 184320, Note_on_c, 4, 75, 50
5, 185088, Note_on_c, 4, 70, 50
5, 185088, Note_on_c, 4, 74, 50
5, 185108, Note_off_c, 4, 75, 50
5, 185140, Note_off_c, 4, 72, 50
5, 185836, Note_off_c, 4, 74, 50
5, 185856, Note_off_c, 4, 70, 50
5, 185856, Note_on_c, 4, 72, 50
5, 185856, Note_on_c, 4, 75, 50
5, 186608, Note_off_c, 4, 75, 50
5, 186616, Note_off_c, 4, 72, 50
5, 186624, Note_on_c, 4, 70, 50
5, 186624, Note_on_c, 4, 74, 50
5, 187392, Note_off_c, 4, 74, 50
5, 187392, Note_off_c, 4, 70, 50
5, 187392, Note_on_c, 4, 72, 50
5, 187392, Note_on_c, 4, 79, 50
5, 187392, Note_on_c, 4, 75, 50
5, 188928, Note_off_c, 4, 75, 50
5, 188928, Note_off_c, 4, 72, 50
5, 188928, Note_on_c, 4, 72, 50
5, 188928, Note_on_c, 4, 80, 50
5, 188928, Note_on_c, 4, 75, 50
5, 188936, Note_off_c, 4, 79, 50
5, 189480, Note_off_c, 4, 75, 50
5, 189488, Note_off_c, 4, 80, 50
5, 189504, Note_on_c, 4, 71, 50
5, 189504, Note_on_c, 4, 79, 50
5, 189504, Note_on_c, 4, 74, 50
5, 189556, Note_off_c, 4, 72, 50
5, 191872, Note_off_c, 4, 74, 50
5, 191872, Note_off_c, 4, 79, 50
5, 191904, Note_off_c, 4, 71, 50
5, 192000, Note_on_c, 4, 72, 50
5, 192000, Note_on_c, 4, 75, 50
5, 193504, Note_off_c, 4, 75, 50
5, 193536, Note_on_c, 4, 70, 50
5, 193536, Note_on_c, 4, 74, 50
5, 193540, Note_off_c, 4, 72, 50
5, 195072, Note_off_c, 4, 74, 50
5, 195072, Note_off_c, 4, 70, 50
5, 195072, Note_on_c, 4, 72, 50
5, 195072, Note_on_c, 4, 75, 50
5, 196596, Note_off_c, 4, 75, 50
5, 196608, Note_off_c, 4, 72, 50
5, 196608, Note_on_c, 4, 70, 50
5, 196608, Note_on_c, 4, 74, 50
5, 198128, Note_off_c, 4, 74, 50
5, 198144, Note_off_c, 4, 70, 50
5, 198144, Note_on_c, 4, 72, 50
5, 198144, Note_on_c, 4, 75, 50
5, 198912, Note_on_c, 4, 70, 50
5, 198912, Note_on_c, 4, 74, 50
5, 198932, Note_off_c, 4, 75, 50
5, 198964, Note_off_c, 4, 72, 50
5, 199660, Note_off_c, 4, 74, 50
5, 199680, Note_off_c, 4, 70, 50
5, 199680, Note_on_c, 4, 72, 50
5, 199680, Note_on_c, 4, 75, 50
5, 200432, Note_off_c, 4, 75, 50
5, 200440, Note_off_c, 4, 72, 50
5, 200448, Note_on_c, 4, 70, 50
5, 200448, Note_on_c, 4, 74, 50
5, 201216, Note_off_c, 4, 70, 50
5, 201216, Note_on_c, 4, 72, 50
5, 201216, Note_on_c, 4, 79, 50
5, 201216, Note_on_c, 4, 75, 50
5, 201228, Note_off_c, 4, 74, 50
5, 202752, Note_on_c, 4, 80, 50
5, 202760, Note_off_c, 4, 79, 50
5, 203328, Note_off_c, 4, 80, 50
5, 203328, Note_off_c, 4, 75, 50
5, 203328, Note_off_c, 4, 72, 50
5, 203328, Note_on_c, 4, 79, 50
5, 203328, Note_on_c, 4, 74, 50
5, 203328, Note_on_c, 4, 71, 50
5, 204048, Note_off_c, 4, 71, 50
5, 204076, Note_off_c, 4, 74, 50
5, 204080, Note_off_c, 4, 79, 50
5, 204288, Note_on_c, 4, 72, 50
5, 204288, Note_on_c, 4, 75, 50
5, 205792, Note_off_c, 4, 75, 50
5, 205824, Note_on_c, 4, 70, 50
5, 205824, Note_on_c, 4, 74, 50
5, 205828, Note_off_c, 4, 72, 50
5, 207360, Note_off_c, 4, 74, 50
5, 207360, Note_off_c, 4, 70, 50
5, 207360, Note_on_c, 4, 72, 50
5, 207360, Note_on_c, 4, 75, 50
5, 208884, Note_off_c, 4, 75, 50
5, 208896, Note_off_c, 4, 72, 50
5, 208896, Note_on_c, 4, 70, 50
5, 208896, Note_on_c, 4, 74, 50
5, 210416, Note_off_c, 4, 74, 50
5, 210432, Note_off_c, 4, 70, 50
5, 210432, Note_on_c, 4, 72, 50
5, 210432, Note_on_c, 4, 75, 50
5, 211200, Note_on_c, 4, 70, 50
5, 211200, Note_on_c, 4, 74, 50
5, 211220, Note_off_c, 4, 75, 50
5, 211252, Note_off_c, 4, 72, 50
5, 211948, Note_off_c, 4, 74, 50
5, 211968, Note_off_c, 4, 70, 50
5, 211968, Note_on_c, 4, 72, 50
5, 211968, Note_on_c, 4, 75, 50
5, 212720, Note_off_c, 4, 75, 50
5, 212728, Note_off_c, 4, 72, 50
5, 212736, Note_on_c, 4, 70, 50
5, 212736, Note_on_c, 4, 74, 50
5, 213504, Note_off_c, 4, 70, 50
5, 213504, Note_on_c, 4, 72, 50
5, 213504, Note_on_c, 4, 79, 50
5, 213504, Note_on_c, 4, 75, 50
5, 213516, Note_off_c, 4, 74, 50
5, 215040, Note_off_c, 4, 75, 50
5, 215040, Note_off_c, 4, 79, 50
5, 215040, Note_off_c, 4, 72, 50
5, 215040, Note_on_c, 4, 72, 50
5, 215040, Note_on_c, 4, 80, 50
5, 215040, Note_on_c, 4, 75, 50
5, 215592, Note_off_c, 4, 75, 50
5, 215600, Note_off_c, 4, 80, 50
5, 215616, Note_off_c, 4, 72, 50
5, 215616, Note_on_c, 4, 71, 50
5, 215616, Note_on_c, 4, 79, 50
5, 215616, Note_on_c, 4, 74, 50
5, 217984, Note_off_c, 4, 74, 50
5, 217984, Note_off_c, 4, 79, 50
5, 218016, Note_off_c, 4, 71, 50
5, 221952, End_track
6, 0, Start_track
6, 0, Title_t, "SYNTH"
6, 484, Control_c, 5, 0, 0
6, 488, Control_c, 5, 121, 0
6, 492, Program_c, 5, 81
6, 496, Control_c, 5, 7, 117
6, 496, Control_c, 5, 10, 64
6, 496, Control_c, 5, 11, 127
6, 500, Control_c, 5, 91, 60
6, 500, Control_c, 5, 93, 0
6, 3072, Note_on_c, 5, 48, 91
6, 3648, Note_on_c, 5, 50, 91
6, 3680, Note_off_c, 5, 48, 91
6, 4208, Note_off_c, 5, 50, 91
6, 4224, Note_on_c, 5, 51, 88
6, 4588, Note_off_c, 5, 51, 88
6, 4608, Note_on_c, 5, 48, 87
6, 5184, Note_on_c, 5, 50, 94
6, 5212, Note_off_c, 5, 48, 87
6, 5744, Note_off_c, 5, 50, 94
6, 5760, Note_on_c, 5, 51, 84
6, 6136, Note_off_c, 5, 51, 84
6, 6144, Note_on_c, 5, 53, 90
6, 6720, Note_on_c, 5, 51, 86
6, 6756, Note_off_c, 5, 53, 90
6, 7284, Note_off_c, 5, 51, 86
6, 7296, Note_on_c, 5, 50, 94
6, 7680, Note_on_c, 5, 48, 78
6, 7696, Note_off_c, 5, 50, 94
6, 9216, Note_on_c, 5, 50, 91
6, 9232, Note_off_c, 5, 48, 78
6, 12276, Note_off_c, 5, 50, 91
6, 12288, Note_on_c, 5, 51, 86
6, 14592, Note_on_c, 5, 53, 78
6, 14596, Note_off_c, 5, 51, 86
6, 15360, Note_on_c, 5, 55, 98
6, 15408, Note_off_c, 5, 53, 78
6, 15936, Note_off_c, 5, 55, 98
6, 15936, Note_on_c, 5, 56, 81
6, 16896, Note_off_c, 5, 56, 81
6, 16896, Note_on_c, 5, 58, 90
6, 18416, Note_off_c, 5, 58, 90
6, 76032, Note_on_c, 5, 48, 91
6, 76608, Note_on_c, 5, 50, 91
6, 76640, Note_off_c, 5, 48, 91
6, 77168, Note_off_c, 5, 50, 91
6, 77184, Note_on_c, 5, 51, 88
6, 77548, Note_off_c, 5, 51, 88
6, 77568, Note_on_c, 5, 48, 87
6, 78144, Note_on_c, 5, 50, 94
6, 78172, Note_off_c, 5, 48, 87
6, 78704, Note_off_c, 5, 50, 94
6, 78720, Note_on_c, 5, 51, 84
6, 79096, Note_off_c, 5, 51, 84
6, 79104, Note_on_c, 5, 53, 90
6, 79680, Note_on_c, 5, 51, 86
6, 79716, Note_off_c, 5, 53, 90
6, 80244, Note_off_c, 5, 51, 86
6, 80256, Note_on_c, 5, 50, 94
6, 80640, Note_on_c, 5, 48, 78
6, 80656, Note_off_c, 5, 50, 94
6, 82176, Note_on_c, 5, 50, 91
6, 82192, Note_off_c, 5, 48, 78
6, 85236, Note_off_c, 5, 50, 91
6, 85248, Note_on_c, 5, 51, 86
6, 87552, Note_on_c, 5, 53, 78
6, 87556, Note_off_c, 5, 51, 86
6, 88320, Note_on_c, 5, 55, 98
6, 88368, Note_off_c, 5, 53, 78
6, 88896, Note_off_c, 5, 55, 98
6, 88896, Note_on_c, 5, 56, 81
6, 89856, Note_off_c, 5, 56, 81
6, 89856, Note_on_c, 5, 58, 90
6, 91376, Note_off_c, 5, 58, 90
6, 148992, Note_on_c, 5, 48, 99
6, 149568, Note_on_c, 5, 50, 98
6, 149632, Note_off_c, 5, 48, 99
6, 150128, Note_off_c, 5, 50, 98
6, 150144, Note_on_c, 5, 51, 89
6, 150528, Note_on_c, 5, 48, 94
6, 150576, Note_off_c, 5, 51, 89
6, 151104, Note_on_c, 5, 50, 93
6, 151160, Note_off_c, 5, 48, 94
6, 151656, Note_off_c, 5, 50, 93
6, 151680, Note_on_c, 5, 51, 86
6, 152064, Note_off_c, 5, 51, 86
6, 152064, Note_on_c, 5, 53, 87
6, 152640, Note_on_c, 5, 51, 93
6, 152688, Note_off_c, 5, 53, 87
6, 153216, Note_on_c, 5, 50, 94
6, 153244, Note_off_c, 5, 51, 93
6, 153596, Note_off_c, 5, 50, 94
6, 153600, Note_on_c, 5, 48, 94
6, 154176, Note_on_c, 5, 47, 99
6, 154216, Note_off_c, 5, 48, 94
6, 154736, Note_off_c, 5, 47, 99
6, 154752, Note_on_c, 5, 50, 97
6, 155104, Note_off_c, 5, 50, 97
6, 155136, Note_on_c, 5, 48, 90
6, 155692, Note_off_c, 5, 48, 90
6, 155712, Note_on_c, 5, 50, 95
6, 156288, Note_on_c, 5, 51, 89
6, 156308, Note_off_c, 5, 50, 95
6, 156664, Note_off_c, 5, 51, 89
6, 156672, Note_on_c, 5, 48, 95
6, 157248, Note_on_c, 5, 50, 98
6, 157276, Note_off_c, 5, 48, 95
6, 157824, Note_on_c, 5, 51, 92
6, 157868, Note_off_c, 5, 50, 98
6, 158188, Note_off_c, 5, 51, 92
6, 158208, Note_on_c, 5, 58, 94
6, 158784, Note_off_c, 5, 58, 94
6, 158784, Note_on_c, 5, 56, 93
6, 159360, Note_on_c, 5, 55, 99
6, 159428, Note_off_c, 5, 56, 93
6, 159744, Note_on_c, 5, 59, 102
6, 159760, Note_off_c, 5, 55, 99
6, 160320, Note_on_c, 5, 60, 96
6, 160332, Note_off_c, 5, 59, 102
6, 160896, Note_on_c, 5, 62, 100
6, 160940, Note_off_c, 5, 60, 96
6, 161272, Note_off_c, 5, 62, 100
6, 161280, Note_on_c, 5, 63, 78
6, 165888, Note_off_c, 5, 63, 78
6, 221952, End_track
7, 0, Start_track
7, 0, Title_t, "GUITAR"
7, 504, Control_c, 6, 0, 0
7, 508, Control_c, 6, 121, 0
7, 512, Program_c, 6, 25
7, 516, Control_c, 6, 7, 80
7, 516, Control_c, 6, 10, 54
7, 516, Control_c, 6, 11, 127
7, 520, Control_c, 6, 91, 60
7, 520, Control_c, 6, 93, 0
7, 3072, Control_c, 6, 64, 127
7, 3072, Note_on_c, 6, 63, 78
7, 3072, Note_on_c, 6, 72, 83
7, 3072, Note_on_c, 6, 67, 83
7, 3080, Note_off_c, 6, 67, 83
7, 3080, Note_off_c, 6, 72, 83
7, 3080, Note_off_c, 6, 63, 78
7, 3168, Note_on_c, 6, 67, 80
7, 3168, Note_on_c, 6, 72, 74
7, 3168, Note_on_c, 6, 63, 62
7, 3176, Note_off_c, 6, 63, 62
7, 3176, Note_off_c, 6, 72, 74
7, 3176, Note_off_c, 6, 67, 80
7, 3264, Note_on_c, 6, 63, 67
7, 3264, Note_on_c, 6, 72, 67
7, 3264, Note_on_c, 6, 67, 60
7, 3272, Note_off_c, 6, 67, 60
7, 3272, Note_off_c, 6, 72, 67
7, 3272, Note_off_c, 6, 63, 67
7, 3360, Note_on_c, 6, 67, 80
7, 3360, Note_on_c, 6, 63, 52
7, 3360, Note_on_c, 6, 72, 58
7, 3368, Note_off_c, 6, 72, 58
7, 3368, Note_off_c, 6, 63, 52
7, 3368, Note_off_c, 6, 67, 80
7, 3456, Note_on_c, 6, 72, 77
7, 3456, Note_on_c, 6, 63, 66
7, 3456, Note_on_c, 6, 67, 80
7, 3464, Note_off_c, 6, 67, 80
7, 3464, Note_off_c, 6, 63, 66
7, 3464, Note_off_c, 6, 72, 77
7, 3552, Note_on_c, 6, 63, 59
7, 3552, Note_on_c, 6, 72, 70
7, 3552, Note_on_c, 6, 67, 70
7, 3560, Note_off_c, 6, 67, 70
7, 3560, Note_off_c, 6, 72, 70
7, 3560, Note_off_c, 6, 63, 59
7, 3648, Note_on_c, 6, 67, 75
7, 3648, Note_on_c, 6, 63, 61
7, 3648, Note_on_c, 6, 72, 70
7, 3656, Note_off_c, 6, 72, 70
7, 3656, Note_off_c, 6, 63, 61
7, 3656, Note_off_c, 6, 67, 75
7, 3744, Note_on_c, 6, 72, 74
7, 3744, Note_on_c, 6, 63, 63
7, 3744, Note_on_c, 6, 67, 63
7, 3752, Note_off_c, 6, 67, 63
7, 3752, Note_off_c, 6, 63, 63
7, 3752, Note_off_c, 6, 72, 74
7, 3840, Note_on_c, 6, 63, 66
7, 3840, Note_on_c, 6, 67, 75
7, 3840, Note_on_c, 6, 72, 73
7, 3848, Note_off_c, 6, 72, 73
7, 3848, Note_off_c, 6, 67, 75
7, 3848, Note_off_c, 6, 63, 66
7, 3936, Note_on_c, 6, 63, 60
7, 3936, Note_on_c, 6, 72, 69
7, 3936, Note_on_c, 6, 67, 58
7, 3944, Note_off_c, 6, 67, 58
7, 3944, Note_off_c, 6, 72, 69
7, 3944, Note_off_c, 6, 63, 60
7, 4032, Note_on_c, 6, 67, 79
7, 4032, Note_on_c, 6, 63, 51
7, 4032, Note_on_c, 6, 72, 62
7, 4040, Note_off_c, 6, 72, 62
7, 4040, Note_off_c, 6, 63, 51
7, 4040, Note_off_c, 6, 67, 79
7, 4128, Note_on_c, 6, 67, 74
7, 4128, Note_on_c, 6, 72, 66
7, 4128, Note_on_c, 6, 63, 49
7, 4136, Note_off_c, 6, 63, 49
7, 4136, Note_off_c, 6, 72, 66
7, 4136, Note_off_c, 6, 67, 74
7, 4224, Note_on_c, 6, 63, 69
7, 4224, Note_on_c, 6, 72, 81
7, 4224, Note_on_c, 6, 67, 81
7, 4232, Note_off_c, 6, 67, 81
7, 4232, Note_off_c, 6, 72, 81
7, 4232, Note_off_c, 6, 63, 69
7, 4320, Note_on_c, 6, 72, 72
7, 4320, Note_on_c, 6, 63, 66
7, 4320, Note_on_c, 6, 67, 71
7, 4328, Note_off_c, 6, 67, 71
7, 4328, Note_off_c, 6, 63, 66
7, 4328, Note_off_c, 6, 72, 72
7, 4416, Note_on_c, 6, 63, 64
7, 4416, Note_on_c, 6, 67, 75
7, 4416, Note_on_c, 6, 72, 73
7, 4424, Note_off_c, 6, 72, 73
7, 4424, Note_off_c, 6, 67, 75
7, 4424, Note_off_c, 6, 63, 64
7, 4512, Note_on_c, 6, 72, 69
7, 4512, Note_on_c, 6, 67, 68
7, 4512, Note_on_c, 6, 63, 49
7, 4520, Note_off_c, 6, 63, 49
7, 4520, Note_off_c, 6, 67, 68
7, 4520, Note_off_c, 6, 72, 69
7, 4584, Control_c, 6, 64, 0
7, 4608, Control_c, 6, 64, 127
7, 4608, Note_on_c, 6, 63, 74
7, 4608, Note_on_c, 6, 72, 83
7, 4608, Note_on_c, 6, 67, 80
7, 4616, Note_off_c, 6, 67, 80
7, 4616, Note_off_c, 6, 72, 83
7, 4616, Note_off_c, 6, 63, 74
7, 4704, Note_on_c, 6, 72, 71
7, 4704, Note_on_c, 6, 67, 67
7, 4704, Note_on_c, 6, 63, 50
7, 4712, Note_off_c, 6, 63, 50
7, 4712, Note_off_c, 6, 67, 67
7, 4712, Note_off_c, 6, 72, 71
7, 4800, Note_on_c, 6, 63, 59
7, 4800, Note_on_c, 6, 67, 73
7, 4800, Note_on_c, 6, 72, 69
7, 4808, Note_off_c, 6, 72, 69
7, 4808, Note_off_c, 6, 67, 73
7, 4808, Note_off_c, 6, 63, 59
7, 4896, Note_on_c, 6, 72, 69
7, 4896, Note_on_c, 6, 63, 53
7, 4896, Note_on_c, 6, 67, 68
7, 4904, Note_off_c, 6, 67, 68
7, 4904, Note_off_c, 6, 63, 53
7, 4904, Note_off_c, 6, 72, 69
7, 4992, Note_on_c, 6, 63, 59
7, 4992, Note_on_c, 6, 72, 69
7, 4992, Note_on_c, 6, 67, 69
7, 5000, Note_off_c, 6, 67, 69
7, 5000, Note_off_c, 6, 72, 69
7, 5000, Note_off_c, 6, 63, 59
7, 5088, Note_on_c, 6, 63, 62
7, 5088, Note_on_c, 6, 67, 70
7, 5088, Note_on_c, 6, 72, 69
7, 5096, Note_off_c, 6, 72, 69
7, 5096, Note_off_c, 6, 67, 70
7, 5096, Note_off_c, 6, 63, 62
7, 5184, Note_on_c, 6, 72, 82
7, 5184, Note_on_c, 6, 63, 68
7, 5184, Note_on_c, 6, 67, 71
7, 5192, Note_off_c, 6, 67, 71
7, 5192, Note_off_c, 6, 63, 68
7, 5192, Note_off_c, 6, 72, 82
7, 5280, Note_on_c, 6, 67, 71
7, 5280, Note_on_c, 6, 63, 59
7, 5280, Note_on_c, 6, 72, 71
7, 5288, Note_off_c, 6, 72, 71
7, 5288, Note_off_c, 6, 63, 59
7, 5288, Note_off_c, 6, 67, 71
7, 5376, Note_on_c, 6, 72, 74
7, 5376, Note_on_c, 6, 63, 63
7, 5376, Note_on_c, 6, 67, 59
7, 5384, Note_off_c, 6, 67, 59
7, 5384, Note_off_c, 6, 63, 63
7, 5384, Note_off_c, 6, 72, 74
7, 5472, Note_on_c, 6, 72, 70
7, 5472, Note_on_c, 6, 63, 60
7, 5472, Note_on_c, 6, 67, 63
7, 5480, Note_off_c, 6, 67, 63
7, 5480, Note_off_c, 6, 63, 60
7, 5480, Note_off_c, 6, 72, 70
7, 5568, Note_on_c, 6, 63, 58
7, 5568, Note_on_c, 6, 72, 69
7, 5568, Note_on_c, 6, 67, 69
7, 5576, Note_off_c, 6, 67, 69
7, 5576, Note_off_c, 6, 72, 69
7, 5576, Note_off_c, 6, 63, 58
7, 5664, Note_on_c, 6, 72, 77
7, 5664, Note_on_c, 6, 63, 60
7, 5664, Note_on_c, 6, 67, 69
7, 5672, Note_off_c, 6, 67, 69
7, 5672, Note_off_c, 6, 63, 60
7, 5672, Note_off_c, 6, 72, 77
7, 5760, Note_on_c, 6, 72, 78
7, 5760, Note_on_c, 6, 63, 63
7, 5760, Note_on_c, 6, 67, 68
7, 5768, Note_off_c, 6, 67, 68
7, 5768, Note_off_c, 6, 63, 63
7, 5768, Note_off_c, 6, 72, 78
7, 5856, Note_on_c, 6, 63, 66
7, 5856, Note_on_c, 6, 67, 71
7, 5856, Note_on_c, 6, 72, 77
7, 5864, Note_off_c, 6, 72, 77
7, 5864, Note_off_c, 6, 67, 71
7, 5864, Note_off_c, 6, 63, 66
7, 5952, Note_on_c, 6, 72, 82
7, 5952, Note_on_c, 6, 67, 82
7, 5952, Note_on_c, 6, 63, 57
7, 5960, Note_off_c, 6, 63, 57
7, 5960, Note_off_c, 6, 67, 82
7, 5960, Note_off_c, 6, 72, 82
7, 6048, Note_on_c, 6, 63, 70
7, 6048, Note_on_c, 6, 72, 70
7, 6048, Note_on_c, 6, 67, 71
7, 6056, Note_off_c, 6, 67, 71
7, 6056, Note_off_c, 6, 72, 70
7, 6056, Note_off_c, 6, 63, 70
7, 6120, Control_c, 6, 64, 0
7, 6144, Control_c, 6, 64, 127
7, 6144, Note_on_c, 6, 72, 85
7, 6144, Note_on_c, 6, 65, 58
7, 6144, Note_on_c, 6, 68, 68
7, 6152, Note_off_c, 6, 68, 68
7, 6152, Note_off_c, 6, 65, 58
7, 6152, Note_off_c, 6, 72, 85
7, 6240, Note_on_c, 6, 68, 72
7, 6240, Note_on_c, 6, 72, 73
7, 6240, Note_on_c, 6, 65, 48
7, 6248, Note_off_c, 6, 65, 48
7, 6248, Note_off_c, 6, 72, 73
7, 6248, Note_off_c, 6, 68, 72
7, 6336, Note_on_c, 6, 65, 58
7, 6336, Note_on_c, 6, 68, 65
7, 6336, Note_on_c, 6, 72, 63
7, 6344, Note_off_c, 6, 72, 63
7, 6344, Note_off_c, 6, 68, 65
7, 6344, Note_off_c, 6, 65, 58
7, 6432, Note_on_c, 6, 68, 63
7, 6432, Note_on_c, 6, 65, 55
7, 6432, Note_on_c, 6, 72, 68
7, 6440, Note_off_c, 6, 72, 68
7, 6440, Note_off_c, 6, 65, 55
7, 6440, Note_off_c, 6, 68, 63
7, 6528, Note_on_c, 6, 68, 65
7, 6528, Note_on_c, 6, 65, 53
7, 6528, Note_on_c, 6, 72, 69
7, 6536, Note_off_c, 6, 72, 69
7, 6536, Note_off_c, 6, 65, 53
7, 6536, Note_off_c, 6, 68, 65
7, 6624, Note_on_c, 6, 65, 51
7, 6624, Note_on_c, 6, 68, 65
7, 6624, Note_on_c, 6, 72, 66
7, 6632, Note_off_c, 6, 72, 66
7, 6632, Note_off_c, 6, 68, 65
7, 6632, Note_off_c, 6, 65, 51
7, 6720, Note_on_c, 6, 68, 73
7, 6720, Note_on_c, 6, 65, 58
7, 6720, Note_on_c, 6, 72, 66
7, 6728, Note_off_c, 6, 72, 66
7, 6728, Note_off_c, 6, 65, 58
7, 6728, Note_off_c, 6, 68, 73
7, 6816, Note_on_c, 6, 65, 56
7, 6816, Note_on_c, 6, 72, 71
7, 6816, Note_on_c, 6, 68, 66
7, 6824, Note_off_c, 6, 68, 66
7, 6824, Note_off_c, 6, 72, 71
7, 6824, Note_off_c, 6, 65, 56
7, 6912, Note_on_c, 6, 72, 88
7, 6912, Note_on_c, 6, 65, 67
7, 6912, Note_on_c, 6, 68, 71
7, 6920, Note_off_c, 6, 68, 71
7, 6920, Note_off_c, 6, 65, 67
7, 6920, Note_off_c, 6, 72, 88
7, 7008, Note_on_c, 6, 68, 53
7, 7008, Note_on_c, 6, 72, 33
7, 7008, Note_on_c, 6, 65, 24
7, 7016, Note_off_c, 6, 65, 24
7, 7016, Note_off_c, 6, 72, 33
7, 7016, Note_off_c, 6, 68, 53
7, 7104, Note_on_c, 6, 65, 52
7, 7104, Note_on_c, 6, 68, 64
7, 7104, Note_on_c, 6, 72, 65
7, 7112, Note_off_c, 6, 72, 65
7, 7112, Note_off_c, 6, 68, 64
7, 7112, Note_off_c, 6, 65, 52
7, 7200, Note_on_c, 6, 68, 65
7, 7200, Note_on_c, 6, 65, 59
7, 7200, Note_on_c, 6, 72, 69
7, 7208, Note_off_c, 6, 72, 69
7, 7208, Note_off_c, 6, 65, 59
7, 7208, Note_off_c, 6, 68, 65
7, 7296, Note_on_c, 6, 72, 70
7, 7296, Note_on_c, 6, 65, 56
7, 7296, Note_on_c, 6, 68, 63
7, 7304, Note_off_c, 6, 68, 63
7, 7304, Note_off_c, 6, 65, 56
7, 7304, Note_off_c, 6, 72, 70
7, 7392, Note_on_c, 6, 68, 66
7, 7392, Note_on_c, 6, 65, 45
7, 7392, Note_on_c, 6, 72, 62
7, 7400, Note_off_c, 6, 72, 62
7, 7400, Note_off_c, 6, 65, 45
7, 7400, Note_off_c, 6, 68, 66
7, 7488, Note_on_c, 6, 68, 72
7, 7488, Note_on_c, 6, 65, 56
7, 7488, Note_on_c, 6, 72, 68
7, 7496, Note_off_c, 6, 72, 68
7, 7496, Note_off_c, 6, 65, 56
7, 7496, Note_off_c, 6, 68, 72
7, 7584, Note_on_c, 6, 68, 66
7, 7584, Note_on_c, 6, 72, 66
7, 7584, Note_on_c, 6, 65, 47
7, 7592, Note_off_c, 6, 65, 47
7, 7592, Note_off_c, 6, 72, 66
7, 7592, Note_off_c, 6, 68, 66
7, 7656, Control_c, 6, 64, 0
7, 7680, Control_c, 6, 64, 127
7, 7680, Note_on_c, 6, 68, 74
7, 7680, Note_on_c, 6, 72, 78
7, 7680, Note_on_c, 6, 65, 56
7, 7688, Note_off_c, 6, 65, 56
7, 7688, Note_off_c, 6, 72, 78
7, 7688, Note_off_c, 6, 68, 74
7, 7776, Note_on_c, 6, 72, 65
7, 7776, Note_on_c, 6, 68, 66
7, 7776, Note_on_c, 6, 65, 52
7, 7784, Note_off_c, 6, 65, 52
7, 7784, Note_off_c, 6, 68, 66
7, 7784, Note_off_c, 6, 72, 65
7, 7872, Note_on_c, 6, 65, 52
7, 7872, Note_on_c, 6, 72, 68
7, 7872, Note_on_c, 6, 68, 63
7, 7880, Note_off_c, 6, 68, 63
7, 7880, Note_off_c, 6, 72, 68
7, 7880, Note_off_c, 6, 65, 52
7, 7968, Note_on_c, 6, 68, 64
7, 7968, Note_on_c, 6, 65, 49
7, 7968, Note_on_c, 6, 72, 66
7, 7976, Note_off_c, 6, 72, 66
7, 7976, Note_off_c, 6, 65, 49
7, 7976, Note_off_c, 6, 68, 64
7, 8064, Note_on_c, 6, 65, 56
7, 8064, Note_on_c, 6, 68, 67
7, 8064, Note_on_c, 6, 72, 71
7, 8072, Note_off_c, 6, 72, 71
7, 8072, Note_off_c, 6, 68, 67
7, 8072, Note_off_c, 6, 65, 56
7, 8160, Note_on_c, 6, 68, 58
7, 8160, Note_on_c, 6, 65, 41
7, 8160, Note_on_c, 6, 72, 56
7, 8168, Note_off_c, 6, 72, 56
7, 8168, Note_off_c, 6, 65, 41
7, 8168, Note_off_c, 6, 68, 58
7, 8256, Note_on_c, 6, 68, 65
7, 8256, Note_on_c, 6, 65, 49
7, 8256, Note_on_c, 6, 72, 50
7, 8264, Note_off_c, 6, 72, 50
7, 8264, Note_off_c, 6, 65, 49
7, 8264, Note_off_c, 6, 68, 65
7, 8352, Note_on_c, 6, 65, 54
7, 8352, Note_on_c, 6, 72, 70
7, 8352, Note_on_c, 6, 68, 64
7, 8360, Note_off_c, 6, 68, 64
7, 8360, Note_off_c, 6, 72, 70
7, 8360, Note_off_c, 6, 65, 54
7, 8448, Note_on_c, 6, 68, 74
7, 8448, Note_on_c, 6, 65, 61
7, 8448, Note_on_c, 6, 72, 79
7, 8456, Note_off_c, 6, 72, 79
7, 8456, Note_off_c, 6, 65, 61
7, 8456, Note_off_c, 6, 68, 74
7, 8544, Note_on_c, 6, 72, 66
7, 8544, Note_on_c, 6, 65, 54
7, 8544, Note_on_c, 6, 68, 55
7, 8552, Note_off_c, 6, 68, 55
7, 8552, Note_off_c, 6, 65, 54
7, 8552, Note_off_c, 6, 72, 66
7, 8640, Note_on_c, 6, 68, 66
7, 8640, Note_on_c, 6, 72, 66
7, 8640, Note_on_c, 6, 65, 45
7, 8648, Note_off_c, 6, 65, 45
7, 8648, Note_off_c, 6, 72, 66
7, 8648, Note_off_c, 6, 68, 66
7, 8736, Note_on_c, 6, 72, 65
7, 8736, Note_on_c, 6, 65, 45
7, 8736, Note_on_c, 6, 68, 56
7, 8744, Note_off_c, 6, 68, 56
7, 8744, Note_off_c, 6, 65, 45
7, 8744, Note_off_c, 6, 72, 65
7, 8832, Note_on_c, 6, 65, 58
7, 8832, Note_on_c, 6, 68, 68
7, 8832, Note_on_c, 6, 72, 66
7, 8840, Note_off_c, 6, 72, 66
7, 8840, Note_off_c, 6, 68, 68
7, 8840, Note_off_c, 6, 65, 58
7, 8928, Note_on_c, 6, 65, 52
7, 8928, Note_on_c, 6, 72, 69
7, 8928, Note_on_c, 6, 68, 50
7, 8936, Note_off_c, 6, 68, 50
7, 8936, Note_off_c, 6, 72, 69
7, 8936, Note_off_c, 6, 65, 52
7, 9024, Note_on_c, 6, 68, 74
7, 9024, Note_on_c, 6, 65, 50
7, 9024, Note_on_c, 6, 72, 66
7, 9032, Note_off_c, 6, 72, 66
7, 9032, Note_off_c, 6, 65, 50
7, 9032, Note_off_c, 6, 68, 74
7, 9120, Note_on_c, 6, 65, 55
7, 9120, Note_on_c, 6, 68, 58
7, 9120, Note_on_c, 6, 72, 59
7, 9128, Note_off_c, 6, 72, 59
7, 9128, Note_off_c, 6, 68, 58
7, 9128, Note_off_c, 6, 65, 55
7, 9192, Control_c, 6, 64, 0
7, 9216, Control_c, 6, 64, 127
7, 9216, Note_on_c, 6, 67, 87
7, 9216, Note_on_c, 6, 62, 72
7, 9216, Note_on_c, 6, 70, 62
7, 9224, Note_off_c, 6, 70, 62
7, 9224, Note_off_c, 6, 62, 72
7, 9224, Note_off_c, 6, 67, 87
7, 9312, Note_on_c, 6, 67, 78
7, 9312, Note_on_c, 6, 62, 62
7, 9312, Note_on_c, 6, 70, 53
7, 9320, Note_off_c, 6, 70, 53
7, 9320, Note_off_c, 6, 62, 62
7, 9320, Note_off_c, 6, 67, 78
7, 9408, Note_on_c, 6, 67, 64
7, 9408, Note_on_c, 6, 62, 65
7, 9408, Note_on_c, 6, 70, 49
7, 9416, Note_off_c, 6, 70, 49
7, 9416, Note_off_c, 6, 62, 65
7, 9416, Note_off_c, 6, 67, 64
7, 9504, Note_on_c, 6, 62, 64
7, 9504, Note_on_c, 6, 67, 64
7, 9504, Note_on_c, 6, 70, 53
7, 9512, Note_off_c, 6, 70, 53
7, 9512, Note_off_c, 6, 67, 64
7, 9512, Note_off_c, 6, 62, 64
7, 9600, Note_on_c, 6, 62, 71
7, 9600, Note_on_c, 6, 67, 74
7, 9600, Note_on_c, 6, 70, 58
7, 9608, Note_off_c, 6, 70, 58
7, 9608, Note_off_c, 6, 67, 74
7, 9608, Note_off_c, 6, 62, 71
7, 9696, Note_on_c, 6, 62, 67
7, 9696, Note_on_c, 6, 67, 71
7, 9696, Note_on_c, 6, 70, 56
7, 9704, Note_off_c, 6, 70, 56
7, 9704, Note_off_c, 6, 67, 71
7, 9704, Note_off_c, 6, 62, 67
7, 9792, Note_on_c, 6, 62, 68
7, 9792, Note_on_c, 6, 67, 69
7, 9792, Note_on_c, 6, 70, 52
7, 9800, Note_off_c, 6, 70, 52
7, 9800, Note_off_c, 6, 67, 69
7, 9800, Note_off_c, 6, 62, 68
7, 9888, Note_on_c, 6, 62, 72
7, 9888, Note_on_c, 6, 67, 67
7, 9888, Note_on_c, 6, 70, 51
7, 9896, Note_off_c, 6, 70, 51
7, 9896, Note_off_c, 6, 67, 67
7, 9896, Note_off_c, 6, 62, 72
7, 9984, Note_on_c, 6, 62, 76
7, 9984, Note_on_c, 6, 67, 68
7, 9984, Note_on_c, 6, 70, 64
7, 9992, Note_off_c, 6, 70, 64
7, 9992, Note_off_c, 6, 67, 68
7, 9992, Note_off_c, 6, 62, 76
7, 10080, Note_on_c, 6, 62, 73
7, 10080, Note_on_c, 6, 67, 56
7, 10080, Note_on_c, 6, 70, 48
7, 10088, Note_off_c, 6, 70, 48
7, 10088, Note_off_c, 6, 67, 56
7, 10088, Note_off_c, 6, 62, 73
7, 10176, Note_on_c, 6, 62, 76
7, 10176, Note_on_c, 6, 67, 67
7, 10176, Note_on_c, 6, 70, 62
7, 10184, Note_off_c, 6, 70, 62
7, 10184, Note_off_c, 6, 67, 67
7, 10184, Note_off_c, 6, 62, 76
7, 10272, Note_on_c, 6, 62, 73
7, 10272, Note_on_c, 6, 67, 61
7, 10272, Note_on_c, 6, 70, 50
7, 10280, Note_off_c, 6, 70, 50
7, 10280, Note_off_c, 6, 67, 61
7, 10280, Note_off_c, 6, 62, 73
7, 10368, Note_on_c, 6, 62, 80
7, 10368, Note_on_c, 6, 67, 70
7, 10368, Note_on_c, 6, 70, 61
7, 10376, Note_off_c, 6, 70, 61
7, 10376, Note_off_c, 6, 67, 70
7, 10376, Note_off_c, 6, 62, 80
7, 10464, Note_on_c, 6, 62, 73
7, 10464, Note_on_c, 6, 67, 61
7, 10464, Note_on_c, 6, 70, 54
7, 10472, Note_off_c, 6, 70, 54
7, 10472, Note_off_c, 6, 67, 61
7, 10472, Note_off_c, 6, 62, 73
7, 10560, Note_on_c, 6, 62, 71
7, 10560, Note_on_c, 6, 67, 71
7, 10560, Note_on_c, 6, 70, 61
7, 10568, Note_off_c, 6, 70, 61
7, 10568, Note_off_c, 6, 67, 71
7, 10568, Note_off_c, 6, 62, 71
7, 10656, Note_on_c, 6, 62, 75
7, 10656, Note_on_c, 6, 67, 69
7, 10656, Note_on_c, 6, 70, 55
7, 10664, Note_off_c, 6, 70, 55
7, 10664, Note_off_c, 6, 67, 69
7, 10664, Note_off_c, 6, 62, 75
7, 10728, Control_c, 6, 64, 0
7, 10752, Control_c, 6, 64, 127
7, 10752, Note_on_c, 6, 62, 83
7, 10752, Note_on_c, 6, 67, 74
7, 10752, Note_on_c, 6, 70, 63
7, 10760, Note_off_c, 6, 70, 63
7, 10760, Note_off_c, 6, 67, 74
7, 10760, Note_off_c, 6, 62, 83
7, 10848, Note_on_c, 6, 62, 73
7, 10848, Note_on_c, 6, 67, 60
7, 10848, Note_on_c, 6, 70, 60
7, 10856, Note_off_c, 6, 70, 60
7, 10856, Note_off_c, 6, 67, 60
7, 10856, Note_off_c, 6, 62, 73
7, 10944, Note_on_c, 6, 62, 69
7, 10944, Note_on_c, 6, 67, 58
7, 10944, Note_on_c, 6, 70, 51
7, 10952, Note_off_c, 6, 70, 51
7, 10952, Note_off_c, 6, 67, 58
7, 10952, Note_off_c, 6, 62, 69
7, 11040, Note_on_c, 6, 62, 71
7, 11040, Note_on_c, 6, 70, 58
7, 11040, Note_on_c, 6, 67, 54
7, 11048, Note_off_c, 6, 67, 54
7, 11048, Note_off_c, 6, 70, 58
7, 11048, Note_off_c, 6, 62, 71
7, 11136, Note_on_c, 6, 62, 75
7, 11136, Note_on_c, 6, 67, 73
7, 11136, Note_on_c, 6, 70, 66
7, 11144, Note_off_c, 6, 70, 66
7, 11144, Note_off_c, 6, 67, 73
7, 11144, Note_off_c, 6, 62, 75
7, 11232, Note_on_c, 6, 62, 73
7, 11232, Note_on_c, 6, 67, 65
7, 11232, Note_on_c, 6, 70, 58
7, 11240, Note_off_c, 6, 70, 58
7, 11240, Note_off_c, 6, 67, 65
7, 11240, Note_off_c, 6, 62, 73
7, 11328, Note_on_c, 6, 62, 74
7, 11328, Note_on_c, 6, 70, 63
7, 11328, Note_on_c, 6, 67, 64
7, 11336, Note_off_c, 6, 67, 64
7, 11336, Note_off_c, 6, 70, 63
7, 11336, Note_off_c, 6, 62, 74
7, 11424, Note_on_c, 6, 62, 75
7, 11424, Note_on_c, 6, 67, 65
7, 11424, Note_on_c, 6, 70, 58
7, 11432, Note_off_c, 6, 70, 58
7, 11432, Note_off_c, 6, 67, 65
7, 11432, Note_off_c, 6, 62, 75
7, 11520, Note_on_c, 6, 62, 76
7, 11520, Note_on_c, 6, 67, 72
7, 11520, Note_on_c, 6, 70, 67
7, 11528, Note_off_c, 6, 70, 67
7, 11528, Note_off_c, 6, 67, 72
7, 11528, Note_off_c, 6, 62, 76
7, 11616, Note_on_c, 6, 62, 69
7, 11616, Note_on_c, 6, 67, 73
7, 11616, Note_on_c, 6, 70, 62
7, 11624, Note_off_c, 6, 70, 62
7, 11624, Note_off_c, 6, 67, 73
7, 11624, Note_off_c, 6, 62, 69
7, 11712, Note_on_c, 6, 67, 74
7, 11712, Note_on_c, 6, 62, 71
7, 11712, Note_on_c, 6, 70, 61
7, 11720, Note_off_c, 6, 70, 61
7, 11720, Note_off_c, 6, 62, 71
7, 11720, Note_off_c, 6, 67, 74
7, 11808, Note_on_c, 6, 62, 71
7, 11808, Note_on_c, 6, 70, 49
7, 11808, Note_on_c, 6, 67, 59
7, 11816, Note_off_c, 6, 67, 59
7, 11816, Note_off_c, 6, 70, 49
7, 11816, Note_off_c, 6, 62, 71
7, 11904, Note_on_c, 6, 62, 76
7, 11904, Note_on_c, 6, 70, 69
7, 11904, Note_on_c, 6, 67, 73
7, 11912, Note_off_c, 6, 67, 73
7, 11912, Note_off_c, 6, 70, 69
7, 11912, Note_off_c, 6, 62, 76
7, 12000, Note_on_c, 6, 62, 71
7, 12000, Note_on_c, 6, 67, 71
7, 12000, Note_on_c, 6, 70, 63
7, 12008, Note_off_c, 6, 70, 63
7, 12008, Note_off_c, 6, 67, 71
7, 12008, Note_off_c, 6, 62, 71
7, 12096, Note_on_c, 6, 62, 75
7, 12096, Note_on_c, 6, 70, 67
7, 12096, Note_on_c, 6, 67, 71
7, 12104, Note_off_c, 6, 67, 71
7, 12104, Note_off_c, 6, 70, 67
7, 12104, Note_off_c, 6, 62, 75
7, 12192, Note_on_c, 6, 62, 80
7, 12192, Note_on_c, 6, 67, 65
7, 12192, Note_on_c, 6, 70, 54
7, 12200, Note_off_c, 6, 70, 54
7, 12200, Note_off_c, 6, 67, 65
7, 12200, Note_off_c, 6, 62, 80
7, 12264, Control_c, 6, 64, 0
7, 12288, Control_c, 6, 64, 127
7, 12288, Note_on_c, 6, 63, 77
7, 12288, Note_on_c, 6, 72, 87
7, 12288, Note_on_c, 6, 68, 68
7, 12296, Note_off_c, 6, 68, 68
7, 12296, Note_off_c, 6, 72, 87
7, 12296, Note_off_c, 6, 63, 77
7, 12384, Note_on_c, 6, 72, 63
7, 12384, Note_on_c, 6, 68, 72
7, 12384, Note_on_c, 6, 63, 61
7, 12392, Note_off_c, 6, 63, 61
7, 12392, Note_off_c, 6, 68, 72
7, 12392, Note_off_c, 6, 72, 63
7, 12480, Note_on_c, 6, 68, 70
7, 12480, Note_on_c, 6, 63, 56
7, 12480, Note_on_c, 6, 72, 71
7, 12488, Note_off_c, 6, 72, 71
7, 12488, Note_off_c, 6, 63, 56
7, 12488, Note_off_c, 6, 68, 70
7, 12576, Note_on_c, 6, 63, 66
7, 12576, Note_on_c, 6, 68, 69
7, 12576, Note_on_c, 6, 72, 69
7, 12584, Note_off_c, 6, 72, 69
7, 12584, Note_off_c, 6, 68, 69
7, 12584, Note_off_c, 6, 63, 66
7, 12672, Note_on_c, 6, 68, 66
7, 12672, Note_on_c, 6, 72, 66
7, 12672, Note_on_c, 6, 63, 50
7, 12680, Note_off_c, 6, 63, 50
7, 12680, Note_off_c, 6, 72, 66
7, 12680, Note_off_c, 6, 68, 66
7, 12768, Note_on_c, 6, 68, 65
7, 12768, Note_on_c, 6, 63, 52
7, 12768, Note_on_c, 6, 72, 61
7, 12776, Note_off_c, 6, 72, 61
7, 12776, Note_off_c, 6, 63, 52
7, 12776, Note_off_c, 6, 68, 65
7, 12864, Note_on_c, 6, 68, 67
7, 12864, Note_on_c, 6, 63, 56
7, 12864, Note_on_c, 6, 72, 68
7, 12872, Note_off_c, 6, 72, 68
7, 12872, Note_off_c, 6, 63, 56
7, 12872, Note_off_c, 6, 68, 67
7, 12960, Note_on_c, 6, 63, 66
7, 12960, Note_on_c, 6, 68, 69
7, 12960, Note_on_c, 6, 72, 66
7, 12968, Note_off_c, 6, 72, 66
7, 12968, Note_off_c, 6, 68, 69
7, 12968, Note_off_c, 6, 63, 66
7, 13056, Note_on_c, 6, 63, 68
7, 13056, Note_on_c, 6, 68, 71
7, 13056, Note_on_c, 6, 72, 74
7, 13064, Note_off_c, 6, 72, 74
7, 13064, Note_off_c, 6, 68, 71
7, 13064, Note_off_c, 6, 63, 68
7, 13152, Note_on_c, 6, 68, 58
7, 13152, Note_on_c, 6, 63, 46
7, 13152, Note_on_c, 6, 72, 56
7, 13160, Note_off_c, 6, 72, 56
7, 13160, Note_off_c, 6, 63, 46
7, 13160, Note_off_c, 6, 68, 58
7, 13248, Note_on_c, 6, 68, 63
7, 13248, Note_on_c, 6, 63, 55
7, 13248, Note_on_c, 6, 72, 62
7, 13256, Note_off_c, 6, 72, 62
7, 13256, Note_off_c, 6, 63, 55
7, 13256, Note_off_c, 6, 68, 63
7, 13344, Note_on_c, 6, 72, 76
7, 13344, Note_on_c, 6, 63, 58
7, 13344, Note_on_c, 6, 68, 64
7, 13352, Note_off_c, 6, 68, 64
7, 13352, Note_off_c, 6, 63, 58
7, 13352, Note_off_c, 6, 72, 76
7, 13440, Note_on_c, 6, 68, 65
7, 13440, Note_on_c, 6, 72, 60
7, 13440, Note_on_c, 6, 63, 49
7, 13448, Note_off_c, 6, 63, 49
7, 13448, Note_off_c, 6, 72, 60
7, 13448, Note_off_c, 6, 68, 65
7, 13536, Note_on_c, 6, 68, 58
7, 13536, Note_on_c, 6, 72, 66
7, 13536, Note_on_c, 6, 63, 46
7, 13544, Note_off_c, 6, 63, 46
7, 13544, Note_off_c, 6, 72, 66
7, 13544, Note_off_c, 6, 68, 58
7, 13632, Note_on_c, 6, 68, 69
7, 13632, Note_on_c, 6, 63, 64
7, 13632, Note_on_c, 6, 72, 68
7, 13640, Note_off_c, 6, 72, 68
7, 13640, Note_off_c, 6, 63, 64
7, 13640, Note_off_c, 6, 68, 69
7, 13728, Note_on_c, 6, 72, 71
7, 13728, Note_on_c, 6, 68, 66
7, 13728, Note_on_c, 6, 63, 58
7, 13736, Note_off_c, 6, 63, 58
7, 13736, Note_off_c, 6, 68, 66
7, 13736, Note_off_c, 6, 72, 71
7, 13800, Control_c, 6, 64, 0
7, 13824, Control_c, 6, 64, 127
7, 13824, Note_on_c, 6, 68, 77
7, 13824, Note_on_c, 6, 63, 67
7, 13824, Note_on_c, 6, 72, 77
7, 13832, Note_off_c, 6, 72, 77
7, 13832, Note_off_c, 6, 63, 67
7, 13832, Note_off_c, 6, 68, 77
7, 13920, Note_on_c, 6, 68, 74
7, 13920, Note_on_c, 6, 63, 63
7, 13920, Note_on_c, 6, 72, 72
7, 13928, Note_off_c, 6, 72, 72
7, 13928, Note_off_c, 6, 63, 63
7, 13928, Note_off_c, 6, 68, 74
7, 14016, Note_on_c, 6, 68, 69
7, 14016, Note_on_c, 6, 72, 71
7, 14016, Note_on_c, 6, 63, 58
7, 14024, Note_off_c, 6, 63, 58
7, 14024, Note_off_c, 6, 72, 71
7, 14024, Note_off_c, 6, 68, 69
7, 14112, Note_on_c, 6, 68, 69
7, 14112, Note_on_c, 6, 63, 63
7, 14112, Note_on_c, 6, 72, 70
7, 14120, Note_off_c, 6, 72, 70
7, 14120, Note_off_c, 6, 63, 63
7, 14120, Note_off_c, 6, 68, 69
7, 14208, Note_on_c, 6, 68, 68
7, 14208, Note_on_c, 6, 72, 66
7, 14208, Note_on_c, 6, 63, 50
7, 14216, Note_off_c, 6, 63, 50
7, 14216, Note_off_c, 6, 72, 66
7, 14216, Note_off_c, 6, 68, 68
7, 14304, Note_on_c, 6, 68, 61
7, 14304, Note_on_c, 6, 63, 64
7, 14304, Note_on_c, 6, 72, 70
7, 14312, Note_off_c, 6, 72, 70
7, 14312, Note_off_c, 6, 63, 64
7, 14312, Note_off_c, 6, 68, 61
7, 14400, Note_on_c, 6, 68, 65
7, 14400, Note_on_c, 6, 63, 55
7, 14400, Note_on_c, 6, 72, 63
7, 14408, Note_off_c, 6, 72, 63
7, 14408, Note_off_c, 6, 63, 55
7, 14408, Note_off_c, 6, 68, 65
7, 14496, Note_on_c, 6, 63, 63
7, 14496, Note_on_c, 6, 72, 75
7, 14496, Note_on_c, 6, 68, 69
7, 14504, Note_off_c, 6, 68, 69
7, 14504, Note_off_c, 6, 72, 75
7, 14504, Note_off_c, 6, 63, 63
7, 14568, Control_c, 6, 64, 0
7, 14592, Control_c, 6, 64, 127
7, 14592, Note_on_c, 6, 65, 73
7, 14592, Note_on_c, 6, 70, 85
7, 14592, Note_on_c, 6, 62, 75
7, 14600, Note_off_c, 6, 62, 75
7, 14600, Note_off_c, 6, 70, 85
7, 14600, Note_off_c, 6, 65, 73
7, 14688, Note_on_c, 6, 62, 72
7, 14688, Note_on_c, 6, 70, 73
7, 14688, Note_on_c, 6, 65, 54
7, 14696, Note_off_c, 6, 65, 54
7, 14696, Note_off_c, 6, 70, 73
7, 14696, Note_off_c, 6, 62, 72
7, 14784, Note_on_c, 6, 62, 68
7, 14784, Note_on_c, 6, 70, 79
7, 14784, Note_on_c, 6, 65, 60
7, 14792, Note_off_c, 6, 65, 60
7, 14792, Note_off_c, 6, 70, 79
7, 14792, Note_off_c, 6, 62, 68
7, 14880, Note_on_c, 6, 62, 65
7, 14880, Note_on_c, 6, 65, 56
7, 14880, Note_on_c, 6, 70, 64
7, 14888, Note_off_c, 6, 70, 64
7, 14888, Note_off_c, 6, 65, 56
7, 14888, Note_off_c, 6, 62, 65
7, 14976, Note_on_c, 6, 62, 71
7, 14976, Note_on_c, 6, 70, 77
7, 14976, Note_on_c, 6, 65, 57
7, 14984, Note_off_c, 6, 65, 57
7, 14984, Note_off_c, 6, 70, 77
7, 14984, Note_off_c, 6, 62, 71
7, 15072, Note_on_c, 6, 62, 66
7, 15072, Note_on_c, 6, 65, 54
7, 15072, Note_on_c, 6, 70, 65
7, 15080, Note_off_c, 6, 70, 65
7, 15080, Note_off_c, 6, 65, 54
7, 15080, Note_off_c, 6, 62, 66
7, 15168, Note_on_c, 6, 62, 63
7, 15168, Note_on_c, 6, 70, 80
7, 15168, Note_on_c, 6, 65, 64
7, 15176, Note_off_c, 6, 65, 64
7, 15176, Note_off_c, 6, 70, 80
7, 15176, Note_off_c, 6, 62, 63
7, 15264, Note_on_c, 6, 70, 78
7, 15264, Note_on_c, 6, 65, 71
7, 15264, Note_on_c, 6, 62, 78
7, 15272, Note_off_c, 6, 62, 78
7, 15272, Note_off_c, 6, 65, 71
7, 15272, Note_off_c, 6, 70, 78
7, 15336, Control_c, 6, 64, 0
7, 15360, Control_c, 6, 64, 127
7, 15360, Note_on_c, 6, 67, 88
7, 15360, Note_on_c, 6, 63, 65
7, 15360, Note_on_c, 6, 58, 35
7, 15368, Note_off_c, 6, 58, 35
7, 15368, Note_off_c, 6, 63, 65
7, 15368, Note_off_c, 6, 67, 88
7, 15456, Note_on_c, 6, 58, 62
7, 15456, Note_on_c, 6, 67, 67
7, 15456, Note_on_c, 6, 63, 27
7, 15464, Note_off_c, 6, 63, 27
7, 15464, Note_off_c, 6, 67, 67
7, 15464, Note_off_c, 6, 58, 62
7, 15552, Note_on_c, 6, 63, 73
7, 15552, Note_on_c, 6, 67, 73
7, 15552, Note_on_c, 6, 58, 55
7, 15560, Note_off_c, 6, 58, 55
7, 15560, Note_off_c, 6, 67, 73
7, 15560, Note_off_c, 6, 63, 73
7, 15648, Note_on_c, 6, 58, 62
7, 15648, Note_on_c, 6, 67, 75
7, 15648, Note_on_c, 6, 63, 65
7, 15656, Note_off_c, 6, 63, 65
7, 15656, Note_off_c, 6, 67, 75
7, 15656, Note_off_c, 6, 58, 62
7, 15744, Note_on_c, 6, 63, 62
7, 15744, Note_on_c, 6, 58, 54
7, 15744, Note_on_c, 6, 67, 59
7, 15752, Note_off_c, 6, 67, 59
7, 15752, Note_off_c, 6, 58, 54
7, 15752, Note_off_c, 6, 63, 62
7, 15840, Note_on_c, 6, 67, 78
7, 15840, Note_on_c, 6, 58, 62
7, 15840, Note_on_c, 6, 63, 67
7, 15848, Note_off_c, 6, 63, 67
7, 15848, Note_off_c, 6, 58, 62
7, 15848, Note_off_c, 6, 67, 78
7, 15912, Control_c, 6, 64, 0
7, 15936, Control_c, 6, 64, 127
7, 15936, Note_on_c, 6, 63, 70
7, 15936, Note_on_c, 6, 60, 76
7, 15936, Note_on_c, 6, 68, 73
7, 15944, Note_off_c, 6, 68, 73
7, 15944, Note_off_c, 6, 60, 76
7, 15944, Note_off_c, 6, 63, 70
7, 16032, Note_on_c, 6, 60, 61
7, 16032, Note_on_c, 6, 63, 67
7, 16032, Note_on_c, 6, 68, 62
7, 16040, Note_off_c, 6, 68, 62
7, 16040, Note_off_c, 6, 63, 67
7, 16040, Note_off_c, 6, 60, 61
7, 16128, Note_on_c, 6, 63, 76
7, 16128, Note_on_c, 6, 60, 72
7, 16128, Note_on_c, 6, 68, 69
7, 16136, Note_off_c, 6, 68, 69
7, 16136, Note_off_c, 6, 60, 72
7, 16136, Note_off_c, 6, 63, 76
7, 16224, Note_on_c, 6, 68, 70
7, 16224, Note_on_c, 6, 60, 65
7, 16224, Note_on_c, 6, 63, 61
7, 16232, Note_off_c, 6, 63, 61
7, 16232, Note_off_c, 6, 60, 65
7, 16232, Note_off_c, 6, 68, 70
7, 16320, Note_on_c, 6, 63, 74
7, 16320, Note_on_c, 6, 60, 66
7, 16320, Note_on_c, 6, 68, 65
7, 16328, Note_off_c, 6, 68, 65
7, 16328, Note_off_c, 6, 60, 66
7, 16328, Note_off_c, 6, 63, 74
7, 16416, Note_on_c, 6, 68, 73
7, 16416, Note_on_c, 6, 60, 63
7, 16416, Note_on_c, 6, 63, 63
7, 16424, Note_off_c, 6, 63, 63
7, 16424, Note_off_c, 6, 60, 63
7, 16424, Note_off_c, 6, 68, 73
7, 16512, Note_on_c, 6, 68, 73
7, 16512, Note_on_c, 6, 60, 69
7, 16512, Note_on_c, 6, 63, 60
7, 16520, Note_off_c, 6, 63, 60
7, 16520, Note_off_c, 6, 60, 69
7, 16520, Note_off_c, 6, 68, 73
7, 16608, Note_on_c, 6, 68, 69
7, 16608, Note_on_c, 6, 60, 66
7, 16608, Note_on_c, 6, 63, 58
7, 16616, Note_off_c, 6, 63, 58
7, 16616, Note_off_c, 6, 60, 66
7, 16616, Note_off_c, 6, 68, 69
7, 16704, Note_on_c, 6, 68, 72
7, 16704, Note_on_c, 6, 60, 66
7, 16704, Note_on_c, 6, 63, 37
7, 16712, Note_off_c, 6, 63, 37
7, 16712, Note_off_c, 6, 60, 66
7, 16712, Note_off_c, 6, 68, 72
7, 16800, Note_on_c, 6, 68, 69
7, 16800, Note_on_c, 6, 60, 63
7, 16800, Note_on_c, 6, 63, 63
7, 16808, Note_off_c, 6, 63, 63
7, 16808, Note_off_c, 6, 60, 63
7, 16808, Note_off_c, 6, 68, 69
7, 16872, Control_c, 6, 64, 0
7, 16896, Control_c, 6, 64, 127
7, 16896, Note_on_c, 6, 58, 68
7, 16896, Note_on_c, 6, 67, 77
7, 16896, Note_on_c, 6, 63, 73
7, 16904, Note_off_c, 6, 63, 73
7, 16904, Note_off_c, 6, 67, 77
7, 16904, Note_off_c, 6, 58, 68
7, 16992, Note_on_c, 6, 63, 66
7, 16992, Note_on_c, 6, 58, 53
7, 16992, Note_on_c, 6, 67, 65
7, 17000, Note_off_c, 6, 67, 65
7, 17000, Note_off_c, 6, 58, 53
7, 17000, Note_off_c, 6, 63, 66
7, 17088, Note_on_c, 6, 63, 63
7, 17088, Note_on_c, 6, 58, 64
7, 17088, Note_on_c, 6, 67, 73
7, 17096, Note_off_c, 6, 67, 73
7, 17096, Note_off_c, 6, 58, 64
7, 17096, Note_off_c, 6, 63, 63
7, 17184, Note_on_c, 6, 63, 68
7, 17184, Note_on_c, 6, 67, 77
7, 17184, Note_on_c, 6, 58, 63
7, 17192, Note_off_c, 6, 58, 63
7, 17192, Note_off_c, 6, 67, 77
7, 17192, Note_off_c, 6, 63, 68
7, 17280, Note_on_c, 6, 63, 60
7, 17280, Note_on_c, 6, 67, 59
7, 17280, Note_on_c, 6, 58, 39
7, 17288, Note_off_c, 6, 58, 39
7, 17288, Note_off_c, 6, 67, 59
7, 17288, Note_off_c, 6, 63, 60
7, 17376, Note_on_c, 6, 58, 63
7, 17376, Note_on_c, 6, 67, 74
7, 17376, Note_on_c, 6, 63, 58
7, 17384, Note_off_c, 6, 63, 58
7, 17384, Note_off_c, 6, 67, 74
7, 17384, Note_off_c, 6, 58, 63
7, 17472, Note_on_c, 6, 63, 67
7, 17472, Note_on_c, 6, 67, 85
7, 17472, Note_on_c, 6, 58, 67
7, 17480, Note_off_c, 6, 58, 67
7, 17480, Note_off_c, 6, 67, 85
7, 17480, Note_off_c, 6, 63, 67
7, 17544, Control_c, 6, 64, 0
7, 17568, Control_c, 6, 64, 127
7, 17568, Note_on_c, 6, 63, 80
7, 17568, Note_on_c, 6, 58, 81
7, 17568, Note_on_c, 6, 67, 79
7, 17576, Note_off_c, 6, 67, 79
7, 17576, Note_off_c, 6, 58, 81
7, 17576, Note_off_c, 6, 63, 80
7, 17664, Note_on_c, 6, 63, 70
7, 17664, Note_on_c, 6, 67, 74
7, 17664, Note_on_c, 6, 58, 64
7, 17672, Note_off_c, 6, 58, 64
7, 17672, Note_off_c, 6, 67, 74
7, 17672, Note_off_c, 6, 63, 70
7, 17760, Note_on_c, 6, 63, 67
7, 17760, Note_on_c, 6, 58, 63
7, 17760, Note_on_c, 6, 67, 68
7, 17768, Note_off_c, 6, 67, 68
7, 17768, Note_off_c, 6, 58, 63
7, 17768, Note_off_c, 6, 63, 67
7, 17856, Note_on_c, 6, 63, 68
7, 17856, Note_on_c, 6, 67, 70
7, 17856, Note_on_c, 6, 58, 64
7, 17864, Note_off_c, 6, 58, 64
7, 17864, Note_off_c, 6, 67, 70
7, 17864, Note_off_c, 6, 63, 68
7, 17952, Note_on_c, 6, 63, 66
7, 17952, Note_on_c, 6, 67, 69
7, 17952, Note_on_c, 6, 58, 60
7, 17960, Note_off_c, 6, 58, 60
7, 17960, Note_off_c, 6, 67, 69
7, 17960, Note_off_c, 6, 63, 66
7, 18048, Note_on_c, 6, 63, 74
7, 18048, Note_on_c, 6, 58, 71
7, 18048, Note_on_c, 6, 67, 71
7, 18056, Note_off_c, 6, 67, 71
7, 18056, Note_off_c, 6, 58, 71
7, 18056, Note_off_c, 6, 63, 74
7, 18144, Note_on_c, 6, 63, 50
7, 18144, Note_on_c, 6, 58, 55
7, 18144, Note_on_c, 6, 67, 60
7, 18152, Note_off_c, 6, 67, 60
7, 18152, Note_off_c, 6, 58, 55
7, 18152, Note_off_c, 6, 63, 50
7, 18240, Note_on_c, 6, 63, 63
7, 18240, Note_on_c, 6, 67, 69
7, 18240, Note_on_c, 6, 58, 65
7, 18248, Note_off_c, 6, 58, 65
7, 18248, Note_off_c, 6, 67, 69
7, 18248, Note_off_c, 6, 63, 63
7, 18336, Note_on_c, 6, 63, 67
7, 18336, Note_on_c, 6, 67, 73
7, 18336, Note_on_c, 6, 58, 58
7, 18344, Note_off_c, 6, 58, 58
7, 18344, Note_off_c, 6, 67, 73
7, 18344, Note_off_c, 6, 63, 67
7, 18408, Control_c, 6, 64, 0
7, 51456, Control_c, 6, 64, 127
7, 51456, Note_on_c, 6, 72, 89
7, 51456, Note_on_c, 6, 63, 89
7, 51456, Note_on_c, 6, 67, 100
7, 51456, Note_on_c, 6, 60, 96
7, 51464, Note_off_c, 6, 60, 96
7, 51464, Note_off_c, 6, 67, 100
7, 51464, Note_off_c, 6, 63, 89
7, 51464, Note_off_c, 6, 72, 89
7, 51648, Note_on_c, 6, 60, 84
7, 51648, Note_on_c, 6, 67, 88
7, 51648, Note_on_c, 6, 72, 84
7, 51648, Note_on_c, 6, 63, 71
7, 51656, Note_off_c, 6, 63, 71
7, 51656, Note_off_c, 6, 72, 84
7, 51656, Note_off_c, 6, 67, 88
7, 51656, Note_off_c, 6, 60, 84
7, 51744, Note_on_c, 6, 63, 73
7, 51744, Note_on_c, 6, 67, 81
7, 51744, Note_on_c, 6, 72, 79
7, 51744, Note_on_c, 6, 60, 76
7, 51752, Note_off_c, 6, 60, 76
7, 51752, Note_off_c, 6, 72, 79
7, 51752, Note_off_c, 6, 67, 81
7, 51752, Note_off_c, 6, 63, 73
7, 51840, Note_on_c, 6, 63, 74
7, 51840, Note_on_c, 6, 72, 79
7, 51840, Note_on_c, 6, 67, 85
7, 51840, Note_on_c, 6, 60, 82
7, 51848, Note_off_c, 6, 60, 82
7, 51848, Note_off_c, 6, 67, 85
7, 51848, Note_off_c, 6, 72, 79
7, 51848, Note_off_c, 6, 63, 74
7, 51884, Control_c, 6, 64, 0
7, 52028, Control_c, 6, 64, 127
7, 52032, Note_on_c, 6, 60, 96
7, 52032, Note_on_c, 6, 72, 96
7, 52032, Note_on_c, 6, 63, 89
7, 52032, Note_on_c, 6, 67, 93
7, 52040, Note_off_c, 6, 67, 93
7, 52040, Note_off_c, 6, 63, 89
7, 52040, Note_off_c, 6, 72, 96
7, 52040, Note_off_c, 6, 60, 96
7, 52416, Note_on_c, 6, 60, 84
7, 52416, Note_on_c, 6, 63, 82
7, 52416, Note_on_c, 6, 67, 88
7, 52416, Note_on_c, 6, 72, 88
7, 52424, Note_off_c, 6, 72, 88
7, 52424, Note_off_c, 6, 67, 88
7, 52424, Note_off_c, 6, 63, 82
7, 52424, Note_off_c, 6, 60, 84
7, 52468, Control_c, 6, 64, 0
7, 52608, Control_c, 6, 64, 127
7, 52608, Note_on_c, 6, 60, 86
7, 52608, Note_on_c, 6, 72, 79
7, 52608, Note_on_c, 6, 63, 68
7, 52608, Note_on_c, 6, 67, 84
7, 52616, Note_off_c, 6, 67, 84
7, 52616, Note_off_c, 6, 63, 68
7, 52616, Note_off_c, 6, 72, 79
7, 52616, Note_off_c, 6, 60, 86
7, 52800, Note_on_c, 6, 72, 96
7, 52800, Note_on_c, 6, 63, 88
7, 52800, Note_on_c, 6, 60, 93
7, 52800, Note_on_c, 6, 67, 81
7, 52808, Note_off_c, 6, 67, 81
7, 52808, Note_off_c, 6, 60, 93
7, 52808, Note_off_c, 6, 63, 88
7, 52808, Note_off_c, 6, 72, 96
7, 52832, Control_c, 6, 64, 0
7, 52976, Control_c, 6, 64, 127
7, 52992, Note_on_c, 6, 55, 98
7, 52992, Note_on_c, 6, 70, 83
7, 52992, Note_on_c, 6, 62, 80
7, 52992, Note_on_c, 6, 67, 78
7, 53000, Note_off_c, 6, 67, 78
7, 53000, Note_off_c, 6, 62, 80
7, 53000, Note_off_c, 6, 70, 83
7, 53000, Note_off_c, 6, 55, 98
7, 53184, Note_on_c, 6, 55, 91
7, 53184, Note_on_c, 6, 62, 72
7, 53184, Note_on_c, 6, 70, 69
7, 53184, Note_on_c, 6, 67, 63
7, 53192, Note_off_c, 6, 67, 63
7, 53192, Note_off_c, 6, 70, 69
7, 53192, Note_off_c, 6, 62, 72
7, 53192, Note_off_c, 6, 55, 91
7, 53280, Note_on_c, 6, 55, 79
7, 53280, Note_on_c, 6, 62, 71
7, 53280, Note_on_c, 6, 67, 64
7, 53280, Note_on_c, 6, 70, 49
7, 53288, Note_off_c, 6, 70, 49
7, 53288, Note_off_c, 6, 67, 64
7, 53288, Note_off_c, 6, 62, 71
7, 53288, Note_off_c, 6, 55, 79
7, 53376, Note_on_c, 6, 55, 90
7, 53376, Note_on_c, 6, 70, 64
7, 53376, Note_on_c, 6, 62, 33
7, 53376, Note_on_c, 6, 67, 37
7, 53384, Note_off_c, 6, 67, 37
7, 53384, Note_off_c, 6, 62, 33
7, 53384, Note_off_c, 6, 70, 64
7, 53384, Note_off_c, 6, 55, 90
7, 53392, Control_c, 6, 64, 0
7, 53524, Control_c, 6, 64, 127
7, 53568, Note_on_c, 6, 70, 90
7, 53568, Note_on_c, 6, 55, 98
7, 53568, Note_on_c, 6, 62, 85
7, 53568, Note_on_c, 6, 67, 74
7, 53576, Note_off_c, 6, 67, 74
7, 53576, Note_off_c, 6, 62, 85
7, 53576, Note_off_c, 6, 55, 98
7, 53576, Note_off_c, 6, 70, 90
7, 53952, Note_on_c, 6, 62, 86
7, 53952, Note_on_c, 6, 55, 90
7, 53952, Note_on_c, 6, 70, 75
7, 53952, Note_on_c, 6, 67, 75
7, 53960, Note_off_c, 6, 67, 75
7, 53960, Note_off_c, 6, 70, 75
7, 53960, Note_off_c, 6, 55, 90
7, 53960, Note_off_c, 6, 62, 86
7, 53984, Control_c, 6, 64, 0
7, 54096, Control_c, 6, 64, 127
7, 54144, Note_on_c, 6, 55, 87
7, 54144, Note_on_c, 6, 70, 79
7, 54144, Note_on_c, 6, 62, 78
7, 54144, Note_on_c, 6, 67, 75
7, 54152, Note_off_c, 6, 67, 75
7, 54152, Note_off_c, 6, 62, 78
7, 54152, Note_off_c, 6, 70, 79
7, 54152, Note_off_c, 6, 55, 87
7, 54336, Note_on_c, 6, 62, 76
7, 54336, Note_on_c, 6, 55, 97
7, 54336, Note_on_c, 6, 70, 71
7, 54336, Note_on_c, 6, 67, 68
7, 54344, Note_off_c, 6, 67, 68
7, 54344, Note_off_c, 6, 70, 71
7, 54344, Note_off_c, 6, 55, 97
7, 54344, Note_off_c, 6, 62, 76
7, 54352, Control_c, 6, 64, 0
7, 54496, Control_c, 6, 64, 127
7, 54528, Note_on_c, 6, 67, 97
7, 54528, Note_on_c, 6, 60, 92
7, 54528, Note_on_c, 6, 63, 79
7, 54528, Note_on_c, 6, 72, 90
7, 54536, Note_off_c, 6, 72, 90
7, 54536, Note_off_c, 6, 63, 79
7, 54536, Note_off_c, 6, 60, 92
7, 54536, Note_off_c, 6, 67, 97
7, 54720, Note_on_c, 6, 60, 79
7, 54720, Note_on_c, 6, 67, 87
7, 54720, Note_on_c, 6, 72, 84
7, 54720, Note_on_c, 6, 63, 74
7, 54728, Note_off_c, 6, 63, 74
7, 54728, Note_off_c, 6, 72, 84
7, 54728, Note_off_c, 6, 67, 87
7, 54728, Note_off_c, 6, 60, 79
7, 54816, Note_on_c, 6, 63, 67
7, 54816, Note_on_c, 6, 67, 61
7, 54816, Note_on_c, 6, 72, 73
7, 54816, Note_on_c, 6, 60, 61
7, 54824, Note_off_c, 6, 60, 61
7, 54824, Note_off_c, 6, 72, 73
7, 54824, Note_off_c, 6, 67, 61
7, 54824, Note_off_c, 6, 63, 67
7, 54912, Note_on_c, 6, 72, 74
7, 54912, Note_on_c, 6, 67, 85
7, 54912, Note_on_c, 6, 60, 77
7, 54912, Note_on_c, 6, 63, 57
7, 54920, Note_off_c, 6, 63, 57
7, 54920, Note_off_c, 6, 60, 77
7, 54920, Note_off_c, 6, 67, 85
7, 54920, Note_off_c, 6, 72, 74
7, 54956, Control_c, 6, 64, 0
7, 55076, Control_c, 6, 64, 127
7, 55104, Note_on_c, 6, 60, 92
7, 55104, Note_on_c, 6, 63, 85
7, 55104, Note_on_c, 6, 67, 92
7, 55104, Note_on_c, 6, 72, 92
7, 55112, Note_off_c, 6, 72, 92
7, 55112, Note_off_c, 6, 67, 92
7, 55112, Note_off_c, 6, 63, 85
7, 55112, Note_off_c, 6, 60, 92
7, 55488, Note_on_c, 6, 60, 83
7, 55488, Note_on_c, 6, 72, 96
7, 55488, Note_on_c, 6, 63, 88
7, 55488, Note_on_c, 6, 67, 87
7, 55496, Note_off_c, 6, 67, 87
7, 55496, Note_off_c, 6, 63, 88
7, 55496, Note_off_c, 6, 72, 96
7, 55496, Note_off_c, 6, 60, 83
7, 55516, Control_c, 6, 64, 0
7, 55656, Control_c, 6, 64, 127
7, 55680, Note_on_c, 6, 60, 88
7, 55680, Note_on_c, 6, 72, 89
7, 55680, Note_on_c, 6, 63, 77
7, 55680, Note_on_c, 6, 67, 85
7, 55688, Note_off_c, 6, 67, 85
7, 55688, Note_off_c, 6, 63, 77
7, 55688, Note_off_c, 6, 72, 89
7, 55688, Note_off_c, 6, 60, 88
7, 55872, Note_on_c, 6, 60, 88
7, 55872, Note_on_c, 6, 72, 89
7, 55872, Note_on_c, 6, 63, 74
7, 55872, Note_on_c, 6, 67, 76
7, 55880, Note_off_c, 6, 67, 76
7, 55880, Note_off_c, 6, 63, 74
7, 55880, Note_off_c, 6, 72, 89
7, 55880, Note_off_c, 6, 60, 88
7, 55892, Control_c, 6, 64, 0
7, 56016, Control_c, 6, 64, 127
7, 56064, Note_on_c, 6, 62, 88
7, 56064, Note_on_c, 6, 55, 98
7, 56064, Note_on_c, 6, 67, 88
7, 56064, Note_on_c, 6, 70, 71
7, 56072, Note_off_c, 6, 70, 71
7, 56072, Note_off_c, 6, 67, 88
7, 56072, Note_off_c, 6, 55, 98
7, 56072, Note_off_c, 6, 62, 88
7, 56256, Note_on_c, 6, 55, 96
7, 56256, Note_on_c, 6, 70, 72
7, 56256, Note_on_c, 6, 62, 71
7, 56256, Note_on_c, 6, 67, 65
7, 56264, Note_off_c, 6, 67, 65
7, 56264, Note_off_c, 6, 62, 71
7, 56264, Note_off_c, 6, 70, 72
7, 56264, Note_off_c, 6, 55, 96
7, 56352, Note_on_c, 6, 62, 65
7, 56352, Note_on_c, 6, 55, 95
7, 56352, Note_on_c, 6, 67, 57
7, 56360, Note_off_c, 6, 67, 57
7, 56360, Note_off_c, 6, 55, 95
7, 56360, Note_off_c, 6, 62, 65
7, 56448, Note_on_c, 6, 55, 91
7, 56448, Note_on_c, 6, 67, 54
7, 56448, Note_on_c, 6, 62, 32
7, 56448, Note_on_c, 6, 70, 47
7, 56456, Note_off_c, 6, 70, 47
7, 56456, Note_off_c, 6, 62, 32
7, 56456, Note_off_c, 6, 67, 54
7, 56456, Note_off_c, 6, 55, 91
7, 56472, Control_c, 6, 64, 0
7, 56636, Control_c, 6, 64, 127
7, 56640, Note_on_c, 6, 62, 89
7, 56640, Note_on_c, 6, 70, 86
7, 56640, Note_on_c, 6, 55, 98
7, 56640, Note_on_c, 6, 67, 77
7, 56648, Note_off_c, 6, 67, 77
7, 56648, Note_off_c, 6, 55, 98
7, 56648, Note_off_c, 6, 70, 86
7, 56648, Note_off_c, 6, 62, 89
7, 57024, Note_on_c, 6, 55, 97
7, 57024, Note_on_c, 6, 62, 90
7, 57024, Note_on_c, 6, 67, 89
7, 57024, Note_on_c, 6, 70, 74
7, 57032, Note_off_c, 6, 70, 74
7, 57032, Note_off_c, 6, 67, 89
7, 57032, Note_off_c, 6, 62, 90
7, 57032, Note_off_c, 6, 55, 97
7, 57064, Control_c, 6, 64, 0
7, 57204, Control_c, 6, 64, 127
7, 57216, Note_on_c, 6, 55, 93
7, 57216, Note_on_c, 6, 62, 85
7, 57216, Note_on_c, 6, 67, 77
7, 57216, Note_on_c, 6, 70, 64
7, 57224, Note_off_c, 6, 70, 64
7, 57224, Note_off_c, 6, 67, 77
7, 57224, Note_off_c, 6, 62, 85
7, 57224, Note_off_c, 6, 55, 93
7, 57408, Note_on_c, 6, 70, 79
7, 57408, Note_on_c, 6, 55, 98
7, 57408, Note_on_c, 6, 62, 85
7, 57408, Note_on_c, 6, 67, 71
7, 57416, Note_off_c, 6, 67, 71
7, 57416, Note_off_c, 6, 62, 85
7, 57416, Note_off_c, 6, 55, 98
7, 57416, Note_off_c, 6, 70, 79
7, 57436, Control_c, 6, 64, 0
7, 57576, Control_c, 6, 64, 127
7, 57600, Note_on_c, 6, 58, 93
7, 57600, Note_on_c, 6, 65, 89
7, 57600, Note_on_c, 6, 63, 88
7, 57608, Note_off_c, 6, 63, 88
7, 57608, Note_off_c, 6, 65, 89
7, 57608, Note_off_c, 6, 58, 93
7, 57984, Note_on_c, 6, 65, 93
7, 57984, Note_on_c, 6, 63, 83
7, 57984, Note_on_c, 6, 58, 88
7, 57992, Note_off_c, 6, 58, 88
7, 57992, Note_off_c, 6, 63, 83
7, 57992, Note_off_c, 6, 65, 93
7, 58204, Control_c, 6, 64, 0
7, 58272, Note_on_c, 6, 63, 68
7, 58272, Note_on_c, 6, 65, 71
7, 58272, Note_on_c, 6, 58, 74
7, 58280, Note_off_c, 6, 58, 74
7, 58280, Note_off_c, 6, 65, 71
7, 58280, Note_off_c, 6, 63, 68
7, 58340, Control_c, 6, 64, 127
7, 58368, Note_on_c, 6, 62, 93
7, 58368, Note_on_c, 6, 65, 86
7, 58368, Note_on_c, 6, 58, 92
7, 58376, Note_off_c, 6, 58, 92
7, 58376, Note_off_c, 6, 65, 86
7, 58376, Note_off_c, 6, 62, 93
7, 58404, Control_c, 6, 64, 0
7, 58548, Control_c, 6, 64, 127
7, 58560, Note_on_c, 6, 58, 94
7, 58560, Note_on_c, 6, 62, 90
7, 58560, Note_on_c, 6, 65, 82
7, 58568, Note_off_c, 6, 65, 82
7, 58568, Note_off_c, 6, 62, 90
7, 58568, Note_off_c, 6, 58, 94
7, 58944, Note_on_c, 6, 62, 86
7, 58944, Note_on_c, 6, 58, 80
7, 58944, Note_on_c, 6, 65, 75
7, 58952, Note_off_c, 6, 65, 75
7, 58952, Note_off_c, 6, 58, 80
7, 58952, Note_off_c, 6, 62, 86
7, 58960, Control_c, 6, 64, 0
7, 59100, Control_c, 6, 64, 127
7, 59136, Note_on_c, 6, 58, 93
7, 59136, Note_on_c, 6, 65, 91
7, 59136, Note_on_c, 6, 63, 90
7, 59144, Note_off_c, 6, 63, 90
7, 59144, Note_off_c, 6, 65, 91
7, 59144, Note_off_c, 6, 58, 93
7, 59520, Note_on_c, 6, 65, 94
7, 59520, Note_on_c, 6, 58, 89
7, 59520, Note_on_c, 6, 63, 83
7, 59528, Note_off_c, 6, 63, 83
7, 59528, Note_off_c, 6, 58, 89
7, 59528, Note_off_c, 6, 65, 94
7, 59780, Control_c, 6, 64, 0
7, 59808, Note_on_c, 6, 63, 81
7, 59808, Note_on_c, 6, 65, 85
7, 59808, Note_on_c, 6, 58, 70
7, 59816, Note_off_c, 6, 58, 70
7, 59816, Note_off_c, 6, 65, 85
7, 59816, Note_off_c, 6, 63, 81
7, 59904, Note_on_c, 6, 58, 73
7, 59904, Note_on_c, 6, 65, 79
7, 59904, Note_on_c, 6, 62, 86
7, 59912, Note_off_c, 6, 62, 86
7, 59912, Note_off_c, 6, 65, 79
7, 59912, Note_off_c, 6, 58, 73
7, 59912, Control_c, 6, 64, 127
7, 59952, Control_c, 6, 64, 0
7, 60076, Control_c, 6, 64, 127
7, 60096, Note_on_c, 6, 62, 91
7, 60096, Note_on_c, 6, 65, 87
7, 60096, Note_on_c, 6, 58, 92
7, 60104, Note_off_c, 6, 58, 92
7, 60104, Note_off_c, 6, 65, 87
7, 60104, Note_off_c, 6, 62, 91
7, 60288, Note_on_c, 6, 65, 81
7, 60288, Note_on_c, 6, 58, 79
7, 60288, Note_on_c, 6, 62, 69
7, 60296, Note_off_c, 6, 62, 69
7, 60296, Note_off_c, 6, 58, 79
7, 60296, Note_off_c, 6, 65, 81
7, 60480, Note_on_c, 6, 58, 90
7, 60480, Note_on_c, 6, 65, 88
7, 60480, Note_on_c, 6, 62, 80
7, 60484, Control_c, 6, 64, 0
7, 60488, Note_off_c, 6, 62, 80
7, 60488, Note_off_c, 6, 65, 88
7, 60488, Note_off_c, 6, 58, 90
7, 60644, Control_c, 6, 64, 127
7, 60672, Note_on_c, 6, 67, 103
7, 60672, Note_on_c, 6, 60, 98
7, 60672, Note_on_c, 6, 63, 95
7, 60672, Note_on_c, 6, 72, 96
7, 60680, Note_off_c, 6, 72, 96
7, 60680, Note_off_c, 6, 63, 95
7, 60680, Note_off_c, 6, 60, 98
7, 60680, Note_off_c, 6, 67, 103
7, 60864, Note_on_c, 6, 60, 88
7, 60864, Note_on_c, 6, 67, 90
7, 60864, Note_on_c, 6, 63, 78
7, 60864, Note_on_c, 6, 72, 75
7, 60872, Note_off_c, 6, 72, 75
7, 60872, Note_off_c, 6, 63, 78
7, 60872, Note_off_c, 6, 67, 90
7, 60872, Note_off_c, 6, 60, 88
7, 60960, Note_on_c, 6, 67, 87
7, 60960, Note_on_c, 6, 63, 80
7, 60960, Note_on_c, 6, 72, 89
7, 60960, Note_on_c, 6, 60, 79
7, 60968, Note_off_c, 6, 60, 79
7, 60968, Note_off_c, 6, 72, 89
7, 60968, Note_off_c, 6, 63, 80
7, 60968, Note_off_c, 6, 67, 87
7, 61056, Note_on_c, 6, 72, 78
7, 61056, Note_on_c, 6, 63, 74
7, 61056, Note_on_c, 6, 67, 96
7, 61056, Note_on_c, 6, 60, 92
7, 61064, Note_off_c, 6, 60, 92
7, 61064, Note_off_c, 6, 67, 96
7, 61064, Note_off_c, 6, 63, 74
7, 61064, Note_off_c, 6, 72, 78
7, 61124, Control_c, 6, 64, 0
7, 61248, Note_on_c, 6, 67, 100
7, 61248, Note_on_c, 6, 63, 94
7, 61248, Note_on_c, 6, 72, 100
7, 61248, Note_on_c, 6, 60, 94
7, 61252, Control_c, 6, 64, 127
7, 61256, Note_off_c, 6, 60, 94
7, 61256, Note_off_c, 6, 72, 100
7, 61256, Note_off_c, 6, 63, 94
7, 61256, Note_off_c, 6, 67, 100
7, 61632, Note_on_c, 6, 63, 87
7, 61632, Note_on_c, 6, 67, 95
7, 61632, Note_on_c, 6, 60, 84
7, 61632, Note_on_c, 6, 72, 86
7, 61640, Note_off_c, 6, 72, 86
7, 61640, Note_off_c, 6, 60, 84
7, 61640, Note_off_c, 6, 67, 95
7, 61640, Note_off_c, 6, 63, 87
7, 61824, Note_on_c, 6, 60, 91
7, 61824, Note_on_c, 6, 63, 88
7, 61824, Note_on_c, 6, 67, 93
7, 61824, Note_on_c, 6, 72, 92
7, 61832, Note_off_c, 6, 72, 92
7, 61832, Note_off_c, 6, 67, 93
7, 61832, Note_off_c, 6, 63, 88
7, 61832, Note_off_c, 6, 60, 91
7, 62008, Control_c, 6, 64, 0
7, 62016, Note_on_c, 6, 60, 87
7, 62016, Note_on_c, 6, 67, 97
7, 62016, Note_on_c, 6, 63, 85
7, 62016, Note_on_c, 6, 72, 84
7, 62024, Note_off_c, 6, 72, 84
7, 62024, Note_off_c, 6, 63, 85
7, 62024, Note_off_c, 6, 67, 97
7, 62024, Note_off_c, 6, 60, 87
7, 62184, Control_c, 6, 64, 127
7, 62208, Note_on_c, 6, 72, 96
7, 62208, Note_on_c, 6, 63, 79
7, 62208, Note_on_c, 6, 56, 97
7, 62208, Note_on_c, 6, 68, 74
7, 62216, Note_off_c, 6, 68, 74
7, 62216, Note_off_c, 6, 56, 97
7, 62216, Note_off_c, 6, 63, 79
7, 62216, Note_off_c, 6, 72, 96
7, 62400, Note_on_c, 6, 56, 81
7, 62400, Note_on_c, 6, 63, 68
7, 62400, Note_on_c, 6, 68, 77
7, 62400, Note_on_c, 6, 72, 67
7, 62408, Note_off_c, 6, 72, 67
7, 62408, Note_off_c, 6, 68, 77
7, 62408, Note_off_c, 6, 63, 68
7, 62408, Note_off_c, 6, 56, 81
7, 62496, Note_on_c, 6, 72, 90
7, 62496, Note_on_c, 6, 63, 86
7, 62496, Note_on_c, 6, 56, 78
7, 62496, Note_on_c, 6, 68, 80
7, 62504, Note_off_c, 6, 68, 80
7, 62504, Note_off_c, 6, 56, 78
7, 62504, Note_off_c, 6, 63, 86
7, 62504, Note_off_c, 6, 72, 90
7, 62564, Control_c, 6, 64, 0
7, 62592, Note_on_c, 6, 63, 73
7, 62592, Note_on_c, 6, 72, 79
7, 62592, Note_on_c, 6, 56, 93
7, 62592, Note_on_c, 6, 68, 82
7, 62600, Note_off_c, 6, 68, 82
7, 62600, Note_off_c, 6, 56, 93
7, 62600, Note_off_c, 6, 72, 79
7, 62600, Note_off_c, 6, 63, 73
7, 62772, Control_c, 6, 64, 127
7, 62784, Note_on_c, 6, 67, 96
7, 62784, Note_on_c, 6, 71, 95
7, 62784, Note_on_c, 6, 55, 94
7, 62784, Note_on_c, 6, 62, 83
7, 62792, Note_off_c, 6, 62, 83
7, 62792, Note_off_c, 6, 55, 94
7, 62792, Note_off_c, 6, 71, 95
7, 62792, Note_off_c, 6, 67, 96
7, 63168, Note_on_c, 6, 62, 85
7, 63168, Note_on_c, 6, 71, 87
7, 63168, Note_on_c, 6, 55, 96
7, 63168, Note_on_c, 6, 67, 80
7, 63176, Note_off_c, 6, 67, 80
7, 63176, Note_off_c, 6, 55, 96
7, 63176, Note_off_c, 6, 71, 87
7, 63176, Note_off_c, 6, 62, 85
7, 63360, Note_on_c, 6, 71, 91
7, 63360, Note_on_c, 6, 55, 96
7, 63360, Note_on_c, 6, 62, 80
7, 63360, Note_on_c, 6, 67, 78
7, 63368, Note_off_c, 6, 67, 78
7, 63368, Note_off_c, 6, 62, 80
7, 63368, Note_off_c, 6, 55, 96
7, 63368, Note_off_c, 6, 71, 91
7, 63552, Note_on_c, 6, 71, 91
7, 63552, Note_on_c, 6, 55, 100
7, 63552, Note_on_c, 6, 62, 82
7, 63552, Note_on_c, 6, 67, 76
7, 63560, Note_off_c, 6, 67, 76
7, 63560, Note_off_c, 6, 62, 82
7, 63560, Note_off_c, 6, 55, 100
7, 63560, Note_off_c, 6, 71, 91
7, 63688, Control_c, 6, 64, 0
7, 63744, Control_c, 6, 64, 127
7, 63744, Note_on_c, 6, 72, 89
7, 63744, Note_on_c, 6, 63, 89
7, 63744, Note_on_c, 6, 67, 100
7, 63744, Note_on_c, 6, 60, 96
7, 63752, Note_off_c, 6, 60, 96
7, 63752, Note_off_c, 6, 67, 100
7, 63752, Note_off_c, 6, 63, 89
7, 63752, Note_off_c, 6, 72, 89
7, 63936, Note_on_c, 6, 60, 84
7, 63936, Note_on_c, 6, 67, 88
7, 63936, Note_on_c, 6, 72, 84
7, 63936, Note_on_c, 6, 63, 71
7, 63944, Note_off_c, 6, 63, 71
7, 63944, Note_off_c, 6, 72, 84
7, 63944, Note_off_c, 6, 67, 88
7, 63944, Note_off_c, 6, 60, 84
7, 64032, Note_on_c, 6, 63, 73
7, 64032, Note_on_c, 6, 67, 81
7, 64032, Note_on_c, 6, 72, 79
7, 64032, Note_on_c, 6, 60, 76
7, 64040, Note_off_c, 6, 60, 76
7, 64040, Note_off_c, 6, 72, 79
7, 64040, Note_off_c, 6, 67, 81
7, 64040, Note_off_c, 6, 63, 73
7, 64128, Note_on_c, 6, 63, 74
7, 64128, Note_on_c, 6, 72, 79
7, 64128, Note_on_c, 6, 67, 85
7, 64128, Note_on_c, 6, 60, 82
7, 64136, Note_off_c, 6, 60, 82
7, 64136, Note_off_c, 6, 67, 85
7, 64136, Note_off_c, 6, 72, 79
7, 64136, Note_off_c, 6, 63, 74
7, 64172, Control_c, 6, 64, 0
7, 64316, Control_c, 6, 64, 127
7, 64320, Note_on_c, 6, 60, 96
7, 64320, Note_on_c, 6, 72, 96
7, 64320, Note_on_c, 6, 63, 89
7, 64320, Note_on_c, 6, 67, 93
7, 64328, Note_off_c, 6, 67, 93
7, 64328, Note_off_c, 6, 63, 89
7, 64328, Note_off_c, 6, 72, 96
7, 64328, Note_off_c, 6, 60, 96
7, 64704, Note_on_c, 6, 60, 84
7, 64704, Note_on_c, 6, 63, 82
7, 64704, Note_on_c, 6, 67, 88
7, 64704, Note_on_c, 6, 72, 88
7, 64712, Note_off_c, 6, 72, 88
7, 64712, Note_off_c, 6, 67, 88
7, 64712, Note_off_c, 6, 63, 82
7, 64712, Note_off_c, 6, 60, 84
7, 64756, Control_c, 6, 64, 0
7, 64896, Control_c, 6, 64, 127
7, 64896, Note_on_c, 6, 60, 86
7, 64896, Note_on_c, 6, 72, 79
7, 64896, Note_on_c, 6, 63, 68
7, 64896, Note_on_c, 6, 67, 84
7, 64904, Note_off_c, 6, 67, 84
7, 64904, Note_off_c, 6, 63, 68
7, 64904, Note_off_c, 6, 72, 79
7, 64904, Note_off_c, 6, 60, 86
7, 65088, Note_on_c, 6, 72, 96
7, 65088, Note_on_c, 6, 63, 88
7, 65088, Note_on_c, 6, 60, 93
7, 65088, Note_on_c, 6, 67, 81
7, 65096, Note_off_c, 6, 67, 81
7, 65096, Note_off_c, 6, 60, 93
7, 65096, Note_off_c, 6, 63, 88
7, 65096, Note_off_c, 6, 72, 96
7, 65120, Control_c, 6, 64, 0
7, 65264, Control_c, 6, 64, 127
7, 65280, Note_on_c, 6, 55, 98
7, 65280, Note_on_c, 6, 70, 83
7, 65280, Note_on_c, 6, 62, 80
7, 65280, Note_on_c, 6, 67, 78
7, 65288, Note_off_c, 6, 67, 78
7, 65288, Note_off_c, 6, 62, 80
7, 65288, Note_off_c, 6, 70, 83
7, 65288, Note_off_c, 6, 55, 98
7, 65472, Note_on_c, 6, 55, 91
7, 65472, Note_on_c, 6, 62, 72
7, 65472, Note_on_c, 6, 70, 69
7, 65472, Note_on_c, 6, 67, 63
7, 65480, Note_off_c, 6, 67, 63
7, 65480, Note_off_c, 6, 70, 69
7, 65480, Note_off_c, 6, 62, 72
7, 65480, Note_off_c, 6, 55, 91
7, 65568, Note_on_c, 6, 55, 79
7, 65568, Note_on_c, 6, 62, 71
7, 65568, Note_on_c, 6, 67, 64
7, 65568, Note_on_c, 6, 70, 49
7, 65576, Note_off_c, 6, 70, 49
7, 65576, Note_off_c, 6, 67, 64
7, 65576, Note_off_c, 6, 62, 71
7, 65576, Note_off_c, 6, 55, 79
7, 65664, Note_on_c, 6, 55, 90
7, 65664, Note_on_c, 6, 70, 64
7, 65664, Note_on_c, 6, 62, 33
7, 65664, Note_on_c, 6, 67, 37
7, 65672, Note_off_c, 6, 67, 37
7, 65672, Note_off_c, 6, 62, 33
7, 65672, Note_off_c, 6, 70, 64
7, 65672, Note_off_c, 6, 55, 90
7, 65680, Control_c, 6, 64, 0
7, 65812, Control_c, 6, 64, 127
7, 65856, Note_on_c, 6, 70, 90
7, 65856, Note_on_c, 6, 55, 98
7, 65856, Note_on_c, 6, 62, 85
7, 65856, Note_on_c, 6, 67, 74
7, 65864, Note_off_c, 6, 67, 74
7, 65864, Note_off_c, 6, 62, 85
7, 65864, Note_off_c, 6, 55, 98
7, 65864, Note_off_c, 6, 70, 90
7, 66240, Note_on_c, 6, 62, 86
7, 66240, Note_on_c, 6, 55, 90
7, 66240, Note_on_c, 6, 70, 75
7, 66240, Note_on_c, 6, 67, 75
7, 66248, Note_off_c, 6, 67, 75
7, 66248, Note_off_c, 6, 70, 75
7, 66248, Note_off_c, 6, 55, 90
7, 66248, Note_off_c, 6, 62, 86
7, 66272, Control_c, 6, 64, 0
7, 66384, Control_c, 6, 64, 127
7, 66432, Note_on_c, 6, 55, 87
7, 66432, Note_on_c, 6, 70, 79
7, 66432, Note_on_c, 6, 62, 78
7, 66432, Note_on_c, 6, 67, 75
7, 66440, Note_off_c, 6, 67, 75
7, 66440, Note_off_c, 6, 62, 78
7, 66440, Note_off_c, 6, 70, 79
7, 66440, Note_off_c, 6, 55, 87
7, 66624, Note_on_c, 6, 62, 76
7, 66624, Note_on_c, 6, 55, 97
7, 66624, Note_on_c, 6, 70, 71
7, 66624, Note_on_c, 6, 67, 68
7, 66632, Note_off_c, 6, 67, 68
7, 66632, Note_off_c, 6, 70, 71
7, 66632, Note_off_c, 6, 55, 97
7, 66632, Note_off_c, 6, 62, 76
7, 66640, Control_c, 6, 64, 0
7, 66784, Control_c, 6, 64, 127
7, 66816, Note_on_c, 6, 67, 97
7, 66816, Note_on_c, 6, 60, 92
7, 66816, Note_on_c, 6, 63, 79
7, 66816, Note_on_c, 6, 72, 90
7, 66824, Note_off_c, 6, 72, 90
7, 66824, Note_off_c, 6, 63, 79
7, 66824, Note_off_c, 6, 60, 92
7, 66824, Note_off_c, 6, 67, 97
7, 67008, Note_on_c, 6, 60, 79
7, 67008, Note_on_c, 6, 67, 87
7, 67008, Note_on_c, 6, 72, 84
7, 67008, Note_on_c, 6, 63, 74
7, 67016, Note_off_c, 6, 63, 74
7, 67016, Note_off_c, 6, 72, 84
7, 67016, Note_off_c, 6, 67, 87
7, 67016, Note_off_c, 6, 60, 79
7, 67104, Note_on_c, 6, 63, 67
7, 67104, Note_on_c, 6, 67, 61
7, 67104, Note_on_c, 6, 72, 73
7, 67104, Note_on_c, 6, 60, 61
7, 67112, Note_off_c, 6, 60, 61
7, 67112, Note_off_c, 6, 72, 73
7, 67112, Note_off_c, 6, 67, 61
7, 67112, Note_off_c, 6, 63, 67
7, 67200, Note_on_c, 6, 72, 74
7, 67200, Note_on_c, 6, 67, 85
7, 67200, Note_on_c, 6, 60, 77
7, 67200, Note_on_c, 6, 63, 57
7, 67208, Note_off_c, 6, 63, 57
7, 67208, Note_off_c, 6, 60, 77
7, 67208, Note_off_c, 6, 67, 85
7, 67208, Note_off_c, 6, 72, 74
7, 67244, Control_c, 6, 64, 0
7, 67364, Control_c, 6, 64, 127
7, 67392, Note_on_c, 6, 60, 92
7, 67392, Note_on_c, 6, 63, 85
7, 67392, Note_on_c, 6, 67, 92
7, 67392, Note_on_c, 6, 72, 92
7, 67400, Note_off_c, 6, 72, 92
7, 67400, Note_off_c, 6, 67, 92
7, 67400, Note_off_c, 6, 63, 85
7, 67400, Note_off_c, 6, 60, 92
7, 67776, Note_on_c, 6, 60, 83
7, 67776, Note_on_c, 6, 72, 96
7, 67776, Note_on_c, 6, 63, 88
7, 67776, Note_on_c, 6, 67, 87
7, 67784, Note_off_c, 6, 67, 87
7, 67784, Note_off_c, 6, 63, 88
7, 67784, Note_off_c, 6, 72, 96
7, 67784, Note_off_c, 6, 60, 83
7, 67804, Control_c, 6, 64, 0
7, 67944, Control_c, 6, 64, 127
7, 67968, Note_on_c, 6, 60, 88
7, 67968, Note_on_c, 6, 72, 89
7, 67968, Note_on_c, 6, 63, 77
7, 67968, Note_on_c, 6, 67, 85
7, 67976, Note_off_c, 6, 67, 85
7, 67976, Note_off_c, 6, 63, 77
7, 67976, Note_off_c, 6, 72, 89
7, 67976, Note_off_c, 6, 60, 88
7, 68160, Note_on_c, 6, 60, 88
7, 68160, Note_on_c, 6, 72, 89
7, 68160, Note_on_c, 6, 63, 74
7, 68160, Note_on_c, 6, 67, 76
7, 68168, Note_off_c, 6, 67, 76
7, 68168, Note_off_c, 6, 63, 74
7, 68168, Note_off_c, 6, 72, 89
7, 68168, Note_off_c, 6, 60, 88
7, 68180, Control_c, 6, 64, 0
7, 68304, Control_c, 6, 64, 127
7, 68352, Note_on_c, 6, 62, 88
7, 68352, Note_on_c, 6, 55, 98
7, 68352, Note_on_c, 6, 67, 88
7, 68352, Note_on_c, 6, 70, 71
7, 68360, Note_off_c, 6, 70, 71
7, 68360, Note_off_c, 6, 67, 88
7, 68360, Note_off_c, 6, 55, 98
7, 68360, Note_off_c, 6, 62, 88
7, 68544, Note_on_c, 6, 55, 96
7, 68544, Note_on_c, 6, 70, 72
7, 68544, Note_on_c, 6, 62, 71
7, 68544, Note_on_c, 6, 67, 65
7, 68552, Note_off_c, 6, 67, 65
7, 68552, Note_off_c, 6, 62, 71
7, 68552, Note_off_c, 6, 70, 72
7, 68552, Note_off_c, 6, 55, 96
7, 68640, Note_on_c, 6, 62, 65
7, 68640, Note_on_c, 6, 55, 95
7, 68640, Note_on_c, 6, 67, 57
7, 68648, Note_off_c, 6, 67, 57
7, 68648, Note_off_c, 6, 55, 95
7, 68648, Note_off_c, 6, 62, 65
7, 68736, Note_on_c, 6, 55, 91
7, 68736, Note_on_c, 6, 67, 54
7, 68736, Note_on_c, 6, 62, 32
7, 68736, Note_on_c, 6, 70, 47
7, 68744, Note_off_c, 6, 70, 47
7, 68744, Note_off_c, 6, 62, 32
7, 68744, Note_off_c, 6, 67, 54
7, 68744, Note_off_c, 6, 55, 91
7, 68760, Control_c, 6, 64, 0
7, 68924, Control_c, 6, 64, 127
7, 68928, Note_on_c, 6, 62, 89
7, 68928, Note_on_c, 6, 70, 86
7, 68928, Note_on_c, 6, 55, 98
7, 68928, Note_on_c, 6, 67, 77
7, 68936, Note_off_c, 6, 67, 77
7, 68936, Note_off_c, 6, 55, 98
7, 68936, Note_off_c, 6, 70, 86
7, 68936, Note_off_c, 6, 62, 89
7, 69312, Note_on_c, 6, 55, 97
7, 69312, Note_on_c, 6, 62, 90
7, 69312, Note_on_c, 6, 67, 89
7, 69312, Note_on_c, 6, 70, 74
7, 69320, Note_off_c, 6, 70, 74
7, 69320, Note_off_c, 6, 67, 89
7, 69320, Note_off_c, 6, 62, 90
7, 69320, Note_off_c, 6, 55, 97
7, 69352, Control_c, 6, 64, 0
7, 69492, Control_c, 6, 64, 127
7, 69504, Note_on_c, 6, 55, 93
7, 69504, Note_on_c, 6, 62, 85
7, 69504, Note_on_c, 6, 67, 77
7, 69504, Note_on_c, 6, 70, 64
7, 69512, Note_off_c, 6, 70, 64
7, 69512, Note_off_c, 6, 67, 77
7, 69512, Note_off_c, 6, 62, 85
7, 69512, Note_off_c, 6, 55, 93
7, 69696, Note_on_c, 6, 70, 79
7, 69696, Note_on_c, 6, 55, 98
7, 69696, Note_on_c, 6, 62, 85
7, 69696, Note_on_c, 6, 67, 71
7, 69704, Note_off_c, 6, 67, 71
7, 69704, Note_off_c, 6, 62, 85
7, 69704, Note_off_c, 6, 55, 98
7, 69704, Note_off_c, 6, 70, 79
7, 69724, Control_c, 6, 64, 0
7, 69864, Control_c, 6, 64, 127
7, 69888, Note_on_c, 6, 58, 93
7, 69888, Note_on_c, 6, 65, 89
7, 69888, Note_on_c, 6, 63, 88
7, 69896, Note_off_c, 6, 63, 88
7, 69896, Note_off_c, 6, 65, 89
7, 69896, Note_off_c, 6, 58, 93
7, 70272, Note_on_c, 6, 65, 93
7, 70272, Note_on_c, 6, 63, 83
7, 70272, Note_on_c, 6, 58, 88
7, 70280, Note_off_c, 6, 58, 88
7, 70280, Note_off_c, 6, 63, 83
7, 70280, Note_off_c, 6, 65, 93
7, 70492, Control_c, 6, 64, 0
7, 70560, Note_on_c, 6, 63, 68
7, 70560, Note_on_c, 6, 65, 71
7, 70560, Note_on_c, 6, 58, 74
7, 70568, Note_off_c, 6, 58, 74
7, 70568, Note_off_c, 6, 65, 71
7, 70568, Note_off_c, 6, 63, 68
7, 70628, Control_c, 6, 64, 127
7, 70656, Note_on_c, 6, 62, 93
7, 70656, Note_on_c, 6, 65, 86
7, 70656, Note_on_c, 6, 58, 92
7, 70664, Note_off_c, 6, 58, 92
7, 70664, Note_off_c, 6, 65, 86
7, 70664, Note_off_c, 6, 62, 93
7, 70692, Control_c, 6, 64, 0
7, 70836, Control_c, 6, 64, 127
7, 70848, Note_on_c, 6, 58, 94
7, 70848, Note_on_c, 6, 62, 90
7, 70848, Note_on_c, 6, 65, 82
7, 70856, Note_off_c, 6, 65, 82
7, 70856, Note_off_c, 6, 62, 90
7, 70856, Note_off_c, 6, 58, 94
7, 71232, Note_on_c, 6, 62, 86
7, 71232, Note_on_c, 6, 58, 80
7, 71232, Note_on_c, 6, 65, 75
7, 71240, Note_off_c, 6, 65, 75
7, 71240, Note_off_c, 6, 58, 80
7, 71240, Note_off_c, 6, 62, 86
7, 71248, Control_c, 6, 64, 0
7, 71388, Control_c, 6, 64, 127
7, 71424, Note_on_c, 6, 58, 93
7, 71424, Note_on_c, 6, 65, 91
7, 71424, Note_on_c, 6, 63, 90
7, 71432, Note_off_c, 6, 63, 90
7, 71432, Note_off_c, 6, 65, 91
7, 71432, Note_off_c, 6, 58, 93
7, 71808, Note_on_c, 6, 65, 94
7, 71808, Note_on_c, 6, 58, 89
7, 71808, Note_on_c, 6, 63, 83
7, 71816, Note_off_c, 6, 63, 83
7, 71816, Note_off_c, 6, 58, 89
7, 71816, Note_off_c, 6, 65, 94
7, 72068, Control_c, 6, 64, 0
7, 72096, Note_on_c, 6, 63, 81
7, 72096, Note_on_c, 6, 65, 85
7, 72096, Note_on_c, 6, 58, 70
7, 72104, Note_off_c, 6, 58, 70
7, 72104, Note_off_c, 6, 65, 85
7, 72104, Note_off_c, 6, 63, 81
7, 72192, Note_on_c, 6, 58, 73
7, 72192, Note_on_c, 6, 65, 79
7, 72192, Note_on_c, 6, 62, 86
7, 72200, Note_off_c, 6, 62, 86
7, 72200, Note_off_c, 6, 65, 79
7, 72200, Note_off_c, 6, 58, 73
7, 72200, Control_c, 6, 64, 127
7, 72240, Control_c, 6, 64, 0
7, 72364, Control_c, 6, 64, 127
7, 72384, Note_on_c, 6, 62, 91
7, 72384, Note_on_c, 6, 65, 87
7, 72384, Note_on_c, 6, 58, 92
7, 72392, Note_off_c, 6, 58, 92
7, 72392, Note_off_c, 6, 65, 87
7, 72392, Note_off_c, 6, 62, 91
7, 72576, Note_on_c, 6, 65, 81
7, 72576, Note_on_c, 6, 58, 79
7, 72576, Note_on_c, 6, 62, 69
7, 72584, Note_off_c, 6, 62, 69
7, 72584, Note_off_c, 6, 58, 79
7, 72584, Note_off_c, 6, 65, 81
7, 72768, Note_on_c, 6, 58, 90
7, 72768, Note_on_c, 6, 65, 88
7, 72768, Note_on_c, 6, 62, 80
7, 72772, Control_c, 6, 64, 0
7, 72776, Note_off_c, 6, 62, 80
7, 72776, Note_off_c, 6, 65, 88
7, 72776, Note_off_c, 6, 58, 90
7, 72932, Control_c, 6, 64, 127
7, 72960, Note_on_c, 6, 67, 103
7, 72960, Note_on_c, 6, 60, 98
7, 72960, Note_on_c, 6, 63, 95
7, 72960, Note_on_c, 6, 72, 96
7, 72968, Note_off_c, 6, 72, 96
7, 72968, Note_off_c, 6, 63, 95
7, 72968, Note_off_c, 6, 60, 98
7, 72968, Note_off_c, 6, 67, 103
7, 73152, Note_on_c, 6, 60, 88
7, 73152, Note_on_c, 6, 67, 90
7, 73152, Note_on_c, 6, 63, 78
7, 73152, Note_on_c, 6, 72, 75
7, 73160, Note_off_c, 6, 72, 75
7, 73160, Note_off_c, 6, 63, 78
7, 73160, Note_off_c, 6, 67, 90
7, 73160, Note_off_c, 6, 60, 88
7, 73248, Note_on_c, 6, 67, 87
7, 73248, Note_on_c, 6, 63, 80
7, 73248, Note_on_c, 6, 72, 89
7, 73248, Note_on_c, 6, 60, 79
7, 73256, Note_off_c, 6, 60, 79
7, 73256, Note_off_c, 6, 72, 89
7, 73256, Note_off_c, 6, 63, 80
7, 73256, Note_off_c, 6, 67, 87
7, 73344, Note_on_c, 6, 72, 78
7, 73344, Note_on_c, 6, 63, 74
7, 73344, Note_on_c, 6, 67, 96
7, 73344, Note_on_c, 6, 60, 92
7, 73352, Note_off_c, 6, 60, 92
7, 73352, Note_off_c, 6, 67, 96
7, 73352, Note_off_c, 6, 63, 74
7, 73352, Note_off_c, 6, 72, 78
7, 73412, Control_c, 6, 64, 0
7, 73536, Note_on_c, 6, 67, 100
7, 73536, Note_on_c, 6, 63, 94
7, 73536, Note_on_c, 6, 72, 100
7, 73536, Note_on_c, 6, 60, 94
7, 73540, Control_c, 6, 64, 127
7, 73544, Note_off_c, 6, 60, 94
7, 73544, Note_off_c, 6, 72, 100
7, 73544, Note_off_c, 6, 63, 94
7, 73544, Note_off_c, 6, 67, 100
7, 73920, Note_on_c, 6, 63, 87
7, 73920, Note_on_c, 6, 67, 95
7, 73920, Note_on_c, 6, 60, 84
7, 73920, Note_on_c, 6, 72, 86
7, 73928, Note_off_c, 6, 72, 86
7, 73928, Note_off_c, 6, 60, 84
7, 73928, Note_off_c, 6, 67, 95
7, 73928, Note_off_c, 6, 63, 87
7, 74112, Note_on_c, 6, 60, 91
7, 74112, Note_on_c, 6, 63, 88
7, 74112, Note_on_c, 6, 67, 93
7, 74112, Note_on_c, 6, 72, 92
7, 74120, Note_off_c, 6, 72, 92
7, 74120, Note_off_c, 6, 67, 93
7, 74120, Note_off_c, 6, 63, 88
7, 74120, Note_off_c, 6, 60, 91
7, 74296, Control_c, 6, 64, 0
7, 74304, Note_on_c, 6, 60, 87
7, 74304, Note_on_c, 6, 67, 97
7, 74304, Note_on_c, 6, 63, 85
7, 74304, Note_on_c, 6, 72, 84
7, 74312, Note_off_c, 6, 72, 84
7, 74312, Note_off_c, 6, 63, 85
7, 74312, Note_off_c, 6, 67, 97
7, 74312, Note_off_c, 6, 60, 87
7, 74472, Control_c, 6, 64, 127
7, 74496, Note_on_c, 6, 72, 96
7, 74496, Note_on_c, 6, 63, 79
7, 74496, Note_on_c, 6, 56, 97
7, 74496, Note_on_c, 6, 68, 74
7, 74504, Note_off_c, 6, 68, 74
7, 74504, Note_off_c, 6, 56, 97
7, 74504, Note_off_c, 6, 63, 79
7, 74504, Note_off_c, 6, 72, 96
7, 74688, Note_on_c, 6, 56, 81
7, 74688, Note_on_c, 6, 63, 68
7, 74688, Note_on_c, 6, 68, 77
7, 74688, Note_on_c, 6, 72, 67
7, 74696, Note_off_c, 6, 72, 67
7, 74696, Note_off_c, 6, 68, 77
7, 74696, Note_off_c, 6, 63, 68
7, 74696, Note_off_c, 6, 56, 81
7, 74784, Note_on_c, 6, 72, 90
7, 74784, Note_on_c, 6, 63, 86
7, 74784, Note_on_c, 6, 56, 78
7, 74784, Note_on_c, 6, 68, 80
7, 74792, Note_off_c, 6, 68, 80
7, 74792, Note_off_c, 6, 56, 78
7, 74792, Note_off_c, 6, 63, 86
7, 74792, Note_off_c, 6, 72, 90
7, 74852, Control_c, 6, 64, 0
7, 74880, Note_on_c, 6, 63, 73
7, 74880, Note_on_c, 6, 72, 79
7, 74880, Note_on_c, 6, 56, 93
7, 74880, Note_on_c, 6, 68, 82
7, 74888, Note_off_c, 6, 68, 82
7, 74888, Note_off_c, 6, 56, 93
7, 74888, Note_off_c, 6, 72, 79
7, 74888, Note_off_c, 6, 63, 73
7, 75060, Control_c, 6, 64, 127
7, 75072, Note_on_c, 6, 67, 96
7, 75072, Note_on_c, 6, 71, 95
7, 75072, Note_on_c, 6, 55, 94
7, 75072, Note_on_c, 6, 62, 83
7, 75080, Note_off_c, 6, 62, 83
7, 75080, Note_off_c, 6, 55, 94
7, 75080, Note_off_c, 6, 71, 95
7, 75080, Note_off_c, 6, 67, 96
7, 75456, Note_on_c, 6, 62, 85
7, 75456, Note_on_c, 6, 71, 87
7, 75456, Note_on_c, 6, 55, 96
7, 75456, Note_on_c, 6, 67, 80
7, 75464, Note_off_c, 6, 67, 80
7, 75464, Note_off_c, 6, 55, 96
7, 75464, Note_off_c, 6, 71, 87
7, 75464, Note_off_c, 6, 62, 85
7, 75648, Note_on_c, 6, 71, 91
7, 75648, Note_on_c, 6, 55, 96
7, 75648, Note_on_c, 6, 62, 80
7, 75648, Note_on_c, 6, 67, 78
7, 75656, Note_off_c, 6, 67, 78
7, 75656, Note_off_c, 6, 62, 80
7, 75656, Note_off_c, 6, 55, 96
7, 75656, Note_off_c, 6, 71, 91
7, 75840, Note_on_c, 6, 71, 91
7, 75840, Note_on_c, 6, 55, 100
7, 75840, Note_on_c, 6, 62, 82
7, 75840, Note_on_c, 6, 67, 76
7, 75848, Note_off_c, 6, 67, 76
7, 75848, Note_off_c, 6, 62, 82
7, 75848, Note_off_c, 6, 55, 100
7, 75848, Note_off_c, 6, 71, 91
7, 75976, Control_c, 6, 64, 0
7, 76032, Control_c, 6, 64, 127
7, 76032, Note_on_c, 6, 63, 78
7, 76032, Note_on_c, 6, 72, 83
7, 76032, Note_on_c, 6, 67, 83
7, 76040, Note_off_c, 6, 67, 83
7, 76040, Note_off_c, 6, 72, 83
7, 76040, Note_off_c, 6, 63, 78
7, 76128, Note_on_c, 6, 67, 80
7, 76128, Note_on_c, 6, 72, 74
7, 76128, Note_on_c, 6, 63, 62
7, 76136, Note_off_c, 6, 63, 62
7, 76136, Note_off_c, 6, 72, 74
7, 76136, Note_off_c, 6, 67, 80
7, 76224, Note_on_c, 6, 63, 67
7, 76224, Note_on_c, 6, 72, 67
7, 76224, Note_on_c, 6, 67, 60
7, 76232, Note_off_c, 6, 67, 60
7, 76232, Note_off_c, 6, 72, 67
7, 76232, Note_off_c, 6, 63, 67
7, 76320, Note_on_c, 6, 67, 80
7, 76320, Note_on_c, 6, 63, 52
7, 76320, Note_on_c, 6, 72, 58
7, 76328, Note_off_c, 6, 72, 58
7, 76328, Note_off_c, 6, 63, 52
7, 76328, Note_off_c, 6, 67, 80
7, 76416, Note_on_c, 6, 72, 77
7, 76416, Note_on_c, 6, 63, 66
7, 76416, Note_on_c, 6, 67, 80
7, 76424, Note_off_c, 6, 67, 80
7, 76424, Note_off_c, 6, 63, 66
7, 76424, Note_off_c, 6, 72, 77
7, 76512, Note_on_c, 6, 63, 59
7, 76512, Note_on_c, 6, 72, 70
7, 76512, Note_on_c, 6, 67, 70
7, 76520, Note_off_c, 6, 67, 70
7, 76520, Note_off_c, 6, 72, 70
7, 76520, Note_off_c, 6, 63, 59
7, 76608, Note_on_c, 6, 67, 75
7, 76608, Note_on_c, 6, 63, 61
7, 76608, Note_on_c, 6, 72, 70
7, 76616, Note_off_c, 6, 72, 70
7, 76616, Note_off_c, 6, 63, 61
7, 76616, Note_off_c, 6, 67, 75
7, 76704, Note_on_c, 6, 72, 74
7, 76704, Note_on_c, 6, 63, 63
7, 76704, Note_on_c, 6, 67, 63
7, 76712, Note_off_c, 6, 67, 63
7, 76712, Note_off_c, 6, 63, 63
7, 76712, Note_off_c, 6, 72, 74
7, 76800, Note_on_c, 6, 63, 66
7, 76800, Note_on_c, 6, 67, 75
7, 76800, Note_on_c, 6, 72, 73
7, 76808, Note_off_c, 6, 72, 73
7, 76808, Note_off_c, 6, 67, 75
7, 76808, Note_off_c, 6, 63, 66
7, 76896, Note_on_c, 6, 63, 60
7, 76896, Note_on_c, 6, 72, 69
7, 76896, Note_on_c, 6, 67, 58
7, 76904, Note_off_c, 6, 67, 58
7, 76904, Note_off_c, 6, 72, 69
7, 76904, Note_off_c, 6, 63, 60
7, 76992, Note_on_c, 6, 67, 79
7, 76992, Note_on_c, 6, 63, 51
7, 76992, Note_on_c, 6, 72, 62
7, 77000, Note_off_c, 6, 72, 62
7, 77000, Note_off_c, 6, 63, 51
7, 77000, Note_off_c, 6, 67, 79
7, 77088, Note_on_c, 6, 67, 74
7, 77088, Note_on_c, 6, 72, 66
7, 77088, Note_on_c, 6, 63, 49
7, 77096, Note_off_c, 6, 63, 49
7, 77096, Note_off_c, 6, 72, 66
7, 77096, Note_off_c, 6, 67, 74
7, 77184, Note_on_c, 6, 63, 69
7, 77184, Note_on_c, 6, 72, 81
7, 77184, Note_on_c, 6, 67, 81
7, 77192, Note_off_c, 6, 67, 81
7, 77192, Note_off_c, 6, 72, 81
7, 77192, Note_off_c, 6, 63, 69
7, 77280, Note_on_c, 6, 72, 72
7, 77280, Note_on_c, 6, 63, 66
7, 77280, Note_on_c, 6, 67, 71
7, 77288, Note_off_c, 6, 67, 71
7, 77288, Note_off_c, 6, 63, 66
7, 77288, Note_off_c, 6, 72, 72
7, 77376, Note_on_c, 6, 63, 64
7, 77376, Note_on_c, 6, 67, 75
7, 77376, Note_on_c, 6, 72, 73
7, 77384, Note_off_c, 6, 72, 73
7, 77384, Note_off_c, 6, 67, 75
7, 77384, Note_off_c, 6, 63, 64
7, 77472, Note_on_c, 6, 72, 69
7, 77472, Note_on_c, 6, 67, 68
7, 77472, Note_on_c, 6, 63, 49
7, 77480, Note_off_c, 6, 63, 49
7, 77480, Note_off_c, 6, 67, 68
7, 77480, Note_off_c, 6, 72, 69
7, 77544, Control_c, 6, 64, 0
7, 77568, Control_c, 6, 64, 127
7, 77568, Note_on_c, 6, 63, 74
7, 77568, Note_on_c, 6, 72, 83
7, 77568, Note_on_c, 6, 67, 80
7, 77576, Note_off_c, 6, 67, 80
7, 77576, Note_off_c, 6, 72, 83
7, 77576, Note_off_c, 6, 63, 74
7, 77664, Note_on_c, 6, 72, 71
7, 77664, Note_on_c, 6, 67, 67
7, 77664, Note_on_c, 6, 63, 50
7, 77672, Note_off_c, 6, 63, 50
7, 77672, Note_off_c, 6, 67, 67
7, 77672, Note_off_c, 6, 72, 71
7, 77760, Note_on_c, 6, 63, 59
7, 77760, Note_on_c, 6, 67, 73
7, 77760, Note_on_c, 6, 72, 69
7, 77768, Note_off_c, 6, 72, 69
7, 77768, Note_off_c, 6, 67, 73
7, 77768, Note_off_c, 6, 63, 59
7, 77856, Note_on_c, 6, 72, 69
7, 77856, Note_on_c, 6, 63, 53
7, 77856, Note_on_c, 6, 67, 68
7, 77864, Note_off_c, 6, 67, 68
7, 77864, Note_off_c, 6, 63, 53
7, 77864, Note_off_c, 6, 72, 69
7, 77952, Note_on_c, 6, 63, 59
7, 77952, Note_on_c, 6, 72, 69
7, 77952, Note_on_c, 6, 67, 69
7, 77960, Note_off_c, 6, 67, 69
7, 77960, Note_off_c, 6, 72, 69
7, 77960, Note_off_c, 6, 63, 59
7, 78048, Note_on_c, 6, 63, 62
7, 78048, Note_on_c, 6, 67, 70
7, 78048, Note_on_c, 6, 72, 69
7, 78056, Note_off_c, 6, 72, 69
7, 78056, Note_off_c, 6, 67, 70
7, 78056, Note_off_c, 6, 63, 62
7, 78144, Note_on_c, 6, 72, 82
7, 78144, Note_on_c, 6, 63, 68
7, 78144, Note_on_c, 6, 67, 71
7, 78152, Note_off_c, 6, 67, 71
7, 78152, Note_off_c, 6, 63, 68
7, 78152, Note_off_c, 6, 72, 82
7, 78240, Note_on_c, 6, 67, 71
7, 78240, Note_on_c, 6, 63, 59
7, 78240, Note_on_c, 6, 72, 71
7, 78248, Note_off_c, 6, 72, 71
7, 78248, Note_off_c, 6, 63, 59
7, 78248, Note_off_c, 6, 67, 71
7, 78336, Note_on_c, 6, 72, 74
7, 78336, Note_on_c, 6, 63, 63
7, 78336, Note_on_c, 6, 67, 59
7, 78344, Note_off_c, 6, 67, 59
7, 78344, Note_off_c, 6, 63, 63
7, 78344, Note_off_c, 6, 72, 74
7, 78432, Note_on_c, 6, 72, 70
7, 78432, Note_on_c, 6, 63, 60
7, 78432, Note_on_c, 6, 67, 63
7, 78440, Note_off_c, 6, 67, 63
7, 78440, Note_off_c, 6, 63, 60
7, 78440, Note_off_c, 6, 72, 70
7, 78528, Note_on_c, 6, 63, 58
7, 78528, Note_on_c, 6, 72, 69
7, 78528, Note_on_c, 6, 67, 69
7, 78536, Note_off_c, 6, 67, 69
7, 78536, Note_off_c, 6, 72, 69
7, 78536, Note_off_c, 6, 63, 58
7, 78624, Note_on_c, 6, 72, 77
7, 78624, Note_on_c, 6, 63, 60
7, 78624, Note_on_c, 6, 67, 69
7, 78632, Note_off_c, 6, 67, 69
7, 78632, Note_off_c, 6, 63, 60
7, 78632, Note_off_c, 6, 72, 77
7, 78720, Note_on_c, 6, 72, 78
7, 78720, Note_on_c, 6, 63, 63
7, 78720, Note_on_c, 6, 67, 68
7, 78728, Note_off_c, 6, 67, 68
7, 78728, Note_off_c, 6, 63, 63
7, 78728, Note_off_c, 6, 72, 78
7, 78816, Note_on_c, 6, 63, 66
7, 78816, Note_on_c, 6, 67, 71
7, 78816, Note_on_c, 6, 72, 77
7, 78824, Note_off_c, 6, 72, 77
7, 78824, Note_off_c, 6, 67, 71
7, 78824, Note_off_c, 6, 63, 66
7, 78912, Note_on_c, 6, 72, 82
7, 78912, Note_on_c, 6, 67, 82
7, 78912, Note_on_c, 6, 63, 57
7, 78920, Note_off_c, 6, 63, 57
7, 78920, Note_off_c, 6, 67, 82
7, 78920, Note_off_c, 6, 72, 82
7, 79008, Note_on_c, 6, 63, 70
7, 79008, Note_on_c, 6, 72, 70
7, 79008, Note_on_c, 6, 67, 71
7, 79016, Note_off_c, 6, 67, 71
7, 79016, Note_off_c, 6, 72, 70
7, 79016, Note_off_c, 6, 63, 70
7, 79080, Control_c, 6, 64, 0
7, 79104, Control_c, 6, 64, 127
7, 79104, Note_on_c, 6, 72, 85
7, 79104, Note_on_c, 6, 65, 58
7, 79104, Note_on_c, 6, 68, 68
7, 79112, Note_off_c, 6, 68, 68
7, 79112, Note_off_c, 6, 65, 58
7, 79112, Note_off_c, 6, 72, 85
7, 79200, Note_on_c, 6, 68, 72
7, 79200, Note_on_c, 6, 72, 73
7, 79200, Note_on_c, 6, 65, 48
7, 79208, Note_off_c, 6, 65, 48
7, 79208, Note_off_c, 6, 72, 73
7, 79208, Note_off_c, 6, 68, 72
7, 79296, Note_on_c, 6, 65, 58
7, 79296, Note_on_c, 6, 68, 65
7, 79296, Note_on_c, 6, 72, 63
7, 79304, Note_off_c, 6, 72, 63
7, 79304, Note_off_c, 6, 68, 65
7, 79304, Note_off_c, 6, 65, 58
7, 79392, Note_on_c, 6, 68, 63
7, 79392, Note_on_c, 6, 65, 55
7, 79392, Note_on_c, 6, 72, 68
7, 79400, Note_off_c, 6, 72, 68
7, 79400, Note_off_c, 6, 65, 55
7, 79400, Note_off_c, 6, 68, 63
7, 79488, Note_on_c, 6, 68, 65
7, 79488, Note_on_c, 6, 65, 53
7, 79488, Note_on_c, 6, 72, 69
7, 79496, Note_off_c, 6, 72, 69
7, 79496, Note_off_c, 6, 65, 53
7, 79496, Note_off_c, 6, 68, 65
7, 79584, Note_on_c, 6, 65, 51
7, 79584, Note_on_c, 6, 68, 65
7, 79584, Note_on_c, 6, 72, 66
7, 79592, Note_off_c, 6, 72, 66
7, 79592, Note_off_c, 6, 68, 65
7, 79592, Note_off_c, 6, 65, 51
7, 79680, Note_on_c, 6, 68, 73
7, 79680, Note_on_c, 6, 65, 58
7, 79680, Note_on_c, 6, 72, 66
7, 79688, Note_off_c, 6, 72, 66
7, 79688, Note_off_c, 6, 65, 58
7, 79688, Note_off_c, 6, 68, 73
7, 79776, Note_on_c, 6, 65, 56
7, 79776, Note_on_c, 6, 72, 71
7, 79776, Note_on_c, 6, 68, 66
7, 79784, Note_off_c, 6, 68, 66
7, 79784, Note_off_c, 6, 72, 71
7, 79784, Note_off_c, 6, 65, 56
7, 79872, Note_on_c, 6, 72, 88
7, 79872, Note_on_c, 6, 65, 67
7, 79872, Note_on_c, 6, 68, 71
7, 79880, Note_off_c, 6, 68, 71
7, 79880, Note_off_c, 6, 65, 67
7, 79880, Note_off_c, 6, 72, 88
7, 79968, Note_on_c, 6, 68, 53
7, 79968, Note_on_c, 6, 72, 33
7, 79968, Note_on_c, 6, 65, 24
7, 79976, Note_off_c, 6, 65, 24
7, 79976, Note_off_c, 6, 72, 33
7, 79976, Note_off_c, 6, 68, 53
7, 80064, Note_on_c, 6, 65, 52
7, 80064, Note_on_c, 6, 68, 64
7, 80064, Note_on_c, 6, 72, 65
7, 80072, Note_off_c, 6, 72, 65
7, 80072, Note_off_c, 6, 68, 64
7, 80072, Note_off_c, 6, 65, 52
7, 80160, Note_on_c, 6, 68, 65
7, 80160, Note_on_c, 6, 65, 59
7, 80160, Note_on_c, 6, 72, 69
7, 80168, Note_off_c, 6, 72, 69
7, 80168, Note_off_c, 6, 65, 59
7, 80168, Note_off_c, 6, 68, 65
7, 80256, Note_on_c, 6, 72, 70
7, 80256, Note_on_c, 6, 65, 56
7, 80256, Note_on_c, 6, 68, 63
7, 80264, Note_off_c, 6, 68, 63
7, 80264, Note_off_c, 6, 65, 56
7, 80264, Note_off_c, 6, 72, 70
7, 80352, Note_on_c, 6, 68, 66
7, 80352, Note_on_c, 6, 65, 45
7, 80352, Note_on_c, 6, 72, 62
7, 80360, Note_off_c, 6, 72, 62
7, 80360, Note_off_c, 6, 65, 45
7, 80360, Note_off_c, 6, 68, 66
7, 80448, Note_on_c, 6, 68, 72
7, 80448, Note_on_c, 6, 65, 56
7, 80448, Note_on_c, 6, 72, 68
7, 80456, Note_off_c, 6, 72, 68
7, 80456, Note_off_c, 6, 65, 56
7, 80456, Note_off_c, 6, 68, 72
7, 80544, Note_on_c, 6, 68, 66
7, 80544, Note_on_c, 6, 72, 66
7, 80544, Note_on_c, 6, 65, 47
7, 80552, Note_off_c, 6, 65, 47
7, 80552, Note_off_c, 6, 72, 66
7, 80552, Note_off_c, 6, 68, 66
7, 80616, Control_c, 6, 64, 0
7, 80640, Control_c, 6, 64, 127
7, 80640, Note_on_c, 6, 68, 74
7, 80640, Note_on_c, 6, 72, 78
7, 80640, Note_on_c, 6, 65, 56
7, 80648, Note_off_c, 6, 65, 56
7, 80648, Note_off_c, 6, 72, 78
7, 80648, Note_off_c, 6, 68, 74
7, 80736, Note_on_c, 6, 72, 65
7, 80736, Note_on_c, 6, 68, 66
7, 80736, Note_on_c, 6, 65, 52
7, 80744, Note_off_c, 6, 65, 52
7, 80744, Note_off_c, 6, 68, 66
7, 80744, Note_off_c, 6, 72, 65
7, 80832, Note_on_c, 6, 65, 52
7, 80832, Note_on_c, 6, 72, 68
7, 80832, Note_on_c, 6, 68, 63
7, 80840, Note_off_c, 6, 68, 63
7, 80840, Note_off_c, 6, 72, 68
7, 80840, Note_off_c, 6, 65, 52
7, 80928, Note_on_c, 6, 68, 64
7, 80928, Note_on_c, 6, 65, 49
7, 80928, Note_on_c, 6, 72, 66
7, 80936, Note_off_c, 6, 72, 66
7, 80936, Note_off_c, 6, 65, 49
7, 80936, Note_off_c, 6, 68, 64
7, 81024, Note_on_c, 6, 65, 56
7, 81024, Note_on_c, 6, 68, 67
7, 81024, Note_on_c, 6, 72, 71
7, 81032, Note_off_c, 6, 72, 71
7, 81032, Note_off_c, 6, 68, 67
7, 81032, Note_off_c, 6, 65, 56
7, 81120, Note_on_c, 6, 68, 58
7, 81120, Note_on_c, 6, 65, 41
7, 81120, Note_on_c, 6, 72, 56
7, 81128, Note_off_c, 6, 72, 56
7, 81128, Note_off_c, 6, 65, 41
7, 81128, Note_off_c, 6, 68, 58
7, 81216, Note_on_c, 6, 68, 65
7, 81216, Note_on_c, 6, 65, 49
7, 81216, Note_on_c, 6, 72, 50
7, 81224, Note_off_c, 6, 72, 50
7, 81224, Note_off_c, 6, 65, 49
7, 81224, Note_off_c, 6, 68, 65
7, 81312, Note_on_c, 6, 65, 54
7, 81312, Note_on_c, 6, 72, 70
7, 81312, Note_on_c, 6, 68, 64
7, 81320, Note_off_c, 6, 68, 64
7, 81320, Note_off_c, 6, 72, 70
7, 81320, Note_off_c, 6, 65, 54
7, 81408, Note_on_c, 6, 68, 74
7, 81408, Note_on_c, 6, 65, 61
7, 81408, Note_on_c, 6, 72, 79
7, 81416, Note_off_c, 6, 72, 79
7, 81416, Note_off_c, 6, 65, 61
7, 81416, Note_off_c, 6, 68, 74
7, 81504, Note_on_c, 6, 72, 66
7, 81504, Note_on_c, 6, 65, 54
7, 81504, Note_on_c, 6, 68, 55
7, 81512, Note_off_c, 6, 68, 55
7, 81512, Note_off_c, 6, 65, 54
7, 81512, Note_off_c, 6, 72, 66
7, 81600, Note_on_c, 6, 68, 66
7, 81600, Note_on_c, 6, 72, 66
7, 81600, Note_on_c, 6, 65, 45
7, 81608, Note_off_c, 6, 65, 45
7, 81608, Note_off_c, 6, 72, 66
7, 81608, Note_off_c, 6, 68, 66
7, 81696, Note_on_c, 6, 72, 65
7, 81696, Note_on_c, 6, 65, 45
7, 81696, Note_on_c, 6, 68, 56
7, 81704, Note_off_c, 6, 68, 56
7, 81704, Note_off_c, 6, 65, 45
7, 81704, Note_off_c, 6, 72, 65
7, 81792, Note_on_c, 6, 65, 58
7, 81792, Note_on_c, 6, 68, 68
7, 81792, Note_on_c, 6, 72, 66
7, 81800, Note_off_c, 6, 72, 66
7, 81800, Note_off_c, 6, 68, 68
7, 81800, Note_off_c, 6, 65, 58
7, 81888, Note_on_c, 6, 65, 52
7, 81888, Note_on_c, 6, 72, 69
7, 81888, Note_on_c, 6, 68, 50
7, 81896, Note_off_c, 6, 68, 50
7, 81896, Note_off_c, 6, 72, 69
7, 81896, Note_off_c, 6, 65, 52
7, 81984, Note_on_c, 6, 68, 74
7, 81984, Note_on_c, 6, 65, 50
7, 81984, Note_on_c, 6, 72, 66
7, 81992, Note_off_c, 6, 72, 66
7, 81992, Note_off_c, 6, 65, 50
7, 81992, Note_off_c, 6, 68, 74
7, 82080, Note_on_c, 6, 65, 55
7, 82080, Note_on_c, 6, 68, 58
7, 82080, Note_on_c, 6, 72, 59
7, 82088, Note_off_c, 6, 72, 59
7, 82088, Note_off_c, 6, 68, 58
7, 82088, Note_off_c, 6, 65, 55
7, 82152, Control_c, 6, 64, 0
7, 82176, Control_c, 6, 64, 127
7, 82176, Note_on_c, 6, 67, 87
7, 82176, Note_on_c, 6, 62, 72
7, 82176, Note_on_c, 6, 70, 62
7, 82184, Note_off_c, 6, 70, 62
7, 82184, Note_off_c, 6, 62, 72
7, 82184, Note_off_c, 6, 67, 87
7, 82272, Note_on_c, 6, 67, 78
7, 82272, Note_on_c, 6, 62, 62
7, 82272, Note_on_c, 6, 70, 53
7, 82280, Note_off_c, 6, 70, 53
7, 82280, Note_off_c, 6, 62, 62
7, 82280, Note_off_c, 6, 67, 78
7, 82368, Note_on_c, 6, 67, 64
7, 82368, Note_on_c, 6, 62, 65
7, 82368, Note_on_c, 6, 70, 49
7, 82376, Note_off_c, 6, 70, 49
7, 82376, Note_off_c, 6, 62, 65
7, 82376, Note_off_c, 6, 67, 64
7, 82464, Note_on_c, 6, 62, 64
7, 82464, Note_on_c, 6, 67, 64
7, 82464, Note_on_c, 6, 70, 53
7, 82472, Note_off_c, 6, 70, 53
7, 82472, Note_off_c, 6, 67, 64
7, 82472, Note_off_c, 6, 62, 64
7, 82560, Note_on_c, 6, 62, 71
7, 82560, Note_on_c, 6, 67, 74
7, 82560, Note_on_c, 6, 70, 58
7, 82568, Note_off_c, 6, 70, 58
7, 82568, Note_off_c, 6, 67, 74
7, 82568, Note_off_c, 6, 62, 71
7, 82656, Note_on_c, 6, 62, 67
7, 82656, Note_on_c, 6, 67, 71
7, 82656, Note_on_c, 6, 70, 56
7, 82664, Note_off_c, 6, 70, 56
7, 82664, Note_off_c, 6, 67, 71
7, 82664, Note_off_c, 6, 62, 67
7, 82752, Note_on_c, 6, 62, 68
7, 82752, Note_on_c, 6, 67, 69
7, 82752, Note_on_c, 6, 70, 52
7, 82760, Note_off_c, 6, 70, 52
7, 82760, Note_off_c, 6, 67, 69
7, 82760, Note_off_c, 6, 62, 68
7, 82848, Note_on_c, 6, 62, 72
7, 82848, Note_on_c, 6, 67, 67
7, 82848, Note_on_c, 6, 70, 51
7, 82856, Note_off_c, 6, 70, 51
7, 82856, Note_off_c, 6, 67, 67
7, 82856, Note_off_c, 6, 62, 72
7, 82944, Note_on_c, 6, 62, 76
7, 82944, Note_on_c, 6, 67, 68
7, 82944, Note_on_c, 6, 70, 64
7, 82952, Note_off_c, 6, 70, 64
7, 82952, Note_off_c, 6, 67, 68
7, 82952, Note_off_c, 6, 62, 76
7, 83040, Note_on_c, 6, 62, 73
7, 83040, Note_on_c, 6, 67, 56
7, 83040, Note_on_c, 6, 70, 48
7, 83048, Note_off_c, 6, 70, 48
7, 83048, Note_off_c, 6, 67, 56
7, 83048, Note_off_c, 6, 62, 73
7, 83136, Note_on_c, 6, 62, 76
7, 83136, Note_on_c, 6, 67, 67
7, 83136, Note_on_c, 6, 70, 62
7, 83144, Note_off_c, 6, 70, 62
7, 83144, Note_off_c, 6, 67, 67
7, 83144, Note_off_c, 6, 62, 76
7, 83232, Note_on_c, 6, 62, 73
7, 83232, Note_on_c, 6, 67, 61
7, 83232, Note_on_c, 6, 70, 50
7, 83240, Note_off_c, 6, 70, 50
7, 83240, Note_off_c, 6, 67, 61
7, 83240, Note_off_c, 6, 62, 73
7, 83328, Note_on_c, 6, 62, 80
7, 83328, Note_on_c, 6, 67, 70
7, 83328, Note_on_c, 6, 70, 61
7, 83336, Note_off_c, 6, 70, 61
7, 83336, Note_off_c, 6, 67, 70
7, 83336, Note_off_c, 6, 62, 80
7, 83424, Note_on_c, 6, 62, 73
7, 83424, Note_on_c, 6, 67, 61
7, 83424, Note_on_c, 6, 70, 54
7, 83432, Note_off_c, 6, 70, 54
7, 83432, Note_off_c, 6, 67, 61
7, 83432, Note_off_c, 6, 62, 73
7, 83520, Note_on_c, 6, 62, 71
7, 83520, Note_on_c, 6, 67, 71
7, 83520, Note_on_c, 6, 70, 61
7, 83528, Note_off_c, 6, 70, 61
7, 83528, Note_off_c, 6, 67, 71
7, 83528, Note_off_c, 6, 62, 71
7, 83616, Note_on_c, 6, 62, 75
7, 83616, Note_on_c, 6, 67, 69
7, 83616, Note_on_c, 6, 70, 55
7, 83624, Note_off_c, 6, 70, 55
7, 83624, Note_off_c, 6, 67, 69
7, 83624, Note_off_c, 6, 62, 75
7, 83688, Control_c, 6, 64, 0
7, 83712, Control_c, 6, 64, 127
7, 83712, Note_on_c, 6, 62, 83
7, 83712, Note_on_c, 6, 67, 74
7, 83712, Note_on_c, 6, 70, 63
7, 83720, Note_off_c, 6, 70, 63
7, 83720, Note_off_c, 6, 67, 74
7, 83720, Note_off_c, 6, 62, 83
7, 83808, Note_on_c, 6, 62, 73
7, 83808, Note_on_c, 6, 67, 60
7, 83808, Note_on_c, 6, 70, 60
7, 83816, Note_off_c, 6, 70, 60
7, 83816, Note_off_c, 6, 67, 60
7, 83816, Note_off_c, 6, 62, 73
7, 83904, Note_on_c, 6, 62, 69
7, 83904, Note_on_c, 6, 67, 58
7, 83904, Note_on_c, 6, 70, 51
7, 83912, Note_off_c, 6, 70, 51
7, 83912, Note_off_c, 6, 67, 58
7, 83912, Note_off_c, 6, 62, 69
7, 84000, Note_on_c, 6, 62, 71
7, 84000, Note_on_c, 6, 70, 58
7, 84000, Note_on_c, 6, 67, 54
7, 84008, Note_off_c, 6, 67, 54
7, 84008, Note_off_c, 6, 70, 58
7, 84008, Note_off_c, 6, 62, 71
7, 84096, Note_on_c, 6, 62, 75
7, 84096, Note_on_c, 6, 67, 73
7, 84096, Note_on_c, 6, 70, 66
7, 84104, Note_off_c, 6, 70, 66
7, 84104, Note_off_c, 6, 67, 73
7, 84104, Note_off_c, 6, 62, 75
7, 84192, Note_on_c, 6, 62, 73
7, 84192, Note_on_c, 6, 67, 65
7, 84192, Note_on_c, 6, 70, 58
7, 84200, Note_off_c, 6, 70, 58
7, 84200, Note_off_c, 6, 67, 65
7, 84200, Note_off_c, 6, 62, 73
7, 84288, Note_on_c, 6, 62, 74
7, 84288, Note_on_c, 6, 70, 63
7, 84288, Note_on_c, 6, 67, 64
7, 84296, Note_off_c, 6, 67, 64
7, 84296, Note_off_c, 6, 70, 63
7, 84296, Note_off_c, 6, 62, 74
7, 84384, Note_on_c, 6, 62, 75
7, 84384, Note_on_c, 6, 67, 65
7, 84384, Note_on_c, 6, 70, 58
7, 84392, Note_off_c, 6, 70, 58
7, 84392, Note_off_c, 6, 67, 65
7, 84392, Note_off_c, 6, 62, 75
7, 84480, Note_on_c, 6, 62, 76
7, 84480, Note_on_c, 6, 67, 72
7, 84480, Note_on_c, 6, 70, 67
7, 84488, Note_off_c, 6, 70, 67
7, 84488, Note_off_c, 6, 67, 72
7, 84488, Note_off_c, 6, 62, 76
7, 84576, Note_on_c, 6, 62, 69
7, 84576, Note_on_c, 6, 67, 73
7, 84576, Note_on_c, 6, 70, 62
7, 84584, Note_off_c, 6, 70, 62
7, 84584, Note_off_c, 6, 67, 73
7, 84584, Note_off_c, 6, 62, 69
7, 84672, Note_on_c, 6, 67, 74
7, 84672, Note_on_c, 6, 62, 71
7, 84672, Note_on_c, 6, 70, 61
7, 84680, Note_off_c, 6, 70, 61
7, 84680, Note_off_c, 6, 62, 71
7, 84680, Note_off_c, 6, 67, 74
7, 84768, Note_on_c, 6, 62, 71
7, 84768, Note_on_c, 6, 70, 49
7, 84768, Note_on_c, 6, 67, 59
7, 84776, Note_off_c, 6, 67, 59
7, 84776, Note_off_c, 6, 70, 49
7, 84776, Note_off_c, 6, 62, 71
7, 84864, Note_on_c, 6, 62, 76
7, 84864, Note_on_c, 6, 70, 69
7, 84864, Note_on_c, 6, 67, 73
7, 84872, Note_off_c, 6, 67, 73
7, 84872, Note_off_c, 6, 70, 69
7, 84872, Note_off_c, 6, 62, 76
7, 84960, Note_on_c, 6, 62, 71
7, 84960, Note_on_c, 6, 67, 71
7, 84960, Note_on_c, 6, 70, 63
7, 84968, Note_off_c, 6, 70, 63
7, 84968, Note_off_c, 6, 67, 71
7, 84968, Note_off_c, 6, 62, 71
7, 85056, Note_on_c, 6, 62, 75
7, 85056, Note_on_c, 6, 70, 67
7, 85056, Note_on_c, 6, 67, 71
7, 85064, Note_off_c, 6, 67, 71
7, 85064, Note_off_c, 6, 70, 67
7, 85064, Note_off_c, 6, 62, 75
7, 85152, Note_on_c, 6, 62, 80
7, 85152, Note_on_c, 6, 67, 65
7, 85152, Note_on_c, 6, 70, 54
7, 85160, Note_off_c, 6, 70, 54
7, 85160, Note_off_c, 6, 67, 65
7, 85160, Note_off_c, 6, 62, 80
7, 85224, Control_c, 6, 64, 0
7, 85248, Control_c, 6, 64, 127
7, 85248, Note_on_c, 6, 63, 77
7, 85248, Note_on_c, 6, 72, 87
7, 85248, Note_on_c, 6, 68, 68
7, 85256, Note_off_c, 6, 68, 68
7, 85256, Note_off_c, 6, 72, 87
7, 85256, Note_off_c, 6, 63, 77
7, 85344, Note_on_c, 6, 72, 63
7, 85344, Note_on_c, 6, 68, 72
7, 85344, Note_on_c, 6, 63, 61
7, 85352, Note_off_c, 6, 63, 61
7, 85352, Note_off_c, 6, 68, 72
7, 85352, Note_off_c, 6, 72, 63
7, 85440, Note_on_c, 6, 68, 70
7, 85440, Note_on_c, 6, 63, 56
7, 85440, Note_on_c, 6, 72, 71
7, 85448, Note_off_c, 6, 72, 71
7, 85448, Note_off_c, 6, 63, 56
7, 85448, Note_off_c, 6, 68, 70
7, 85536, Note_on_c, 6, 63, 66
7, 85536, Note_on_c, 6, 68, 69
7, 85536, Note_on_c, 6, 72, 69
7, 85544, Note_off_c, 6, 72, 69
7, 85544, Note_off_c, 6, 68, 69
7, 85544, Note_off_c, 6, 63, 66
7, 85632, Note_on_c, 6, 68, 66
7, 85632, Note_on_c, 6, 72, 66
7, 85632, Note_on_c, 6, 63, 50
7, 85640, Note_off_c, 6, 63, 50
7, 85640, Note_off_c, 6, 72, 66
7, 85640, Note_off_c, 6, 68, 66
7, 85728, Note_on_c, 6, 68, 65
7, 85728, Note_on_c, 6, 63, 52
7, 85728, Note_on_c, 6, 72, 61
7, 85736, Note_off_c, 6, 72, 61
7, 85736, Note_off_c, 6, 63, 52
7, 85736, Note_off_c, 6, 68, 65
7, 85824, Note_on_c, 6, 68, 67
7, 85824, Note_on_c, 6, 63, 56
7, 85824, Note_on_c, 6, 72, 68
7, 85832, Note_off_c, 6, 72, 68
7, 85832, Note_off_c, 6, 63, 56
7, 85832, Note_off_c, 6, 68, 67
7, 85920, Note_on_c, 6, 63, 66
7, 85920, Note_on_c, 6, 68, 69
7, 85920, Note_on_c, 6, 72, 66
7, 85928, Note_off_c, 6, 72, 66
7, 85928, Note_off_c, 6, 68, 69
7, 85928, Note_off_c, 6, 63, 66
7, 86016, Note_on_c, 6, 63, 68
7, 86016, Note_on_c, 6, 68, 71
7, 86016, Note_on_c, 6, 72, 74
7, 86024, Note_off_c, 6, 72, 74
7, 86024, Note_off_c, 6, 68, 71
7, 86024, Note_off_c, 6, 63, 68
7, 86112, Note_on_c, 6, 68, 58
7, 86112, Note_on_c, 6, 63, 46
7, 86112, Note_on_c, 6, 72, 56
7, 86120, Note_off_c, 6, 72, 56
7, 86120, Note_off_c, 6, 63, 46
7, 86120, Note_off_c, 6, 68, 58
7, 86208, Note_on_c, 6, 68, 63
7, 86208, Note_on_c, 6, 63, 55
7, 86208, Note_on_c, 6, 72, 62
7, 86216, Note_off_c, 6, 72, 62
7, 86216, Note_off_c, 6, 63, 55
7, 86216, Note_off_c, 6, 68, 63
7, 86304, Note_on_c, 6, 72, 76
7, 86304, Note_on_c, 6, 63, 58
7, 86304, Note_on_c, 6, 68, 64
7, 86312, Note_off_c, 6, 68, 64
7, 86312, Note_off_c, 6, 63, 58
7, 86312, Note_off_c, 6, 72, 76
7, 86400, Note_on_c, 6, 68, 65
7, 86400, Note_on_c, 6, 72, 60
7, 86400, Note_on_c, 6, 63, 49
7, 86408, Note_off_c, 6, 63, 49
7, 86408, Note_off_c, 6, 72, 60
7, 86408, Note_off_c, 6, 68, 65
7, 86496, Note_on_c, 6, 68, 58
7, 86496, Note_on_c, 6, 72, 66
7, 86496, Note_on_c, 6, 63, 46
7, 86504, Note_off_c, 6, 63, 46
7, 86504, Note_off_c, 6, 72, 66
7, 86504, Note_off_c, 6, 68, 58
7, 86592, Note_on_c, 6, 68, 69
7, 86592, Note_on_c, 6, 63, 64
7, 86592, Note_on_c, 6, 72, 68
7, 86600, Note_off_c, 6, 72, 68
7, 86600, Note_off_c, 6, 63, 64
7, 86600, Note_off_c, 6, 68, 69
7, 86688, Note_on_c, 6, 72, 71
7, 86688, Note_on_c, 6, 68, 66
7, 86688, Note_on_c, 6, 63, 58
7, 86696, Note_off_c, 6, 63, 58
7, 86696, Note_off_c, 6, 68, 66
7, 86696, Note_off_c, 6, 72, 71
7, 86760, Control_c, 6, 64, 0
7, 86784, Control_c, 6, 64, 127
7, 86784, Note_on_c, 6, 68, 77
7, 86784, Note_on_c, 6, 63, 67
7, 86784, Note_on_c, 6, 72, 77
7, 86792, Note_off_c, 6, 72, 77
7, 86792, Note_off_c, 6, 63, 67
7, 86792, Note_off_c, 6, 68, 77
7, 86880, Note_on_c, 6, 68, 74
7, 86880, Note_on_c, 6, 63, 63
7, 86880, Note_on_c, 6, 72, 72
7, 86888, Note_off_c, 6, 72, 72
7, 86888, Note_off_c, 6, 63, 63
7, 86888, Note_off_c, 6, 68, 74
7, 86976, Note_on_c, 6, 68, 69
7, 86976, Note_on_c, 6, 72, 71
7, 86976, Note_on_c, 6, 63, 58
7, 86984, Note_off_c, 6, 63, 58
7, 86984, Note_off_c, 6, 72, 71
7, 86984, Note_off_c, 6, 68, 69
7, 87072, Note_on_c, 6, 68, 69
7, 87072, Note_on_c, 6, 63, 63
7, 87072, Note_on_c, 6, 72, 70
7, 87080, Note_off_c, 6, 72, 70
7, 87080, Note_off_c, 6, 63, 63
7, 87080, Note_off_c, 6, 68, 69
7, 87168, Note_on_c, 6, 68, 68
7, 87168, Note_on_c, 6, 72, 66
7, 87168, Note_on_c, 6, 63, 50
7, 87176, Note_off_c, 6, 63, 50
7, 87176, Note_off_c, 6, 72, 66
7, 87176, Note_off_c, 6, 68, 68
7, 87264, Note_on_c, 6, 68, 61
7, 87264, Note_on_c, 6, 63, 64
7, 87264, Note_on_c, 6, 72, 70
7, 87272, Note_off_c, 6, 72, 70
7, 87272, Note_off_c, 6, 63, 64
7, 87272, Note_off_c, 6, 68, 61
7, 87360, Note_on_c, 6, 68, 65
7, 87360, Note_on_c, 6, 63, 55
7, 87360, Note_on_c, 6, 72, 63
7, 87368, Note_off_c, 6, 72, 63
7, 87368, Note_off_c, 6, 63, 55
7, 87368, Note_off_c, 6, 68, 65
7, 87456, Note_on_c, 6, 63, 63
7, 87456, Note_on_c, 6, 72, 75
7, 87456, Note_on_c, 6, 68, 69
7, 87464, Note_off_c, 6, 68, 69
7, 87464, Note_off_c, 6, 72, 75
7, 87464, Note_off_c, 6, 63, 63
7, 87528, Control_c, 6, 64, 0
7, 87552, Control_c, 6, 64, 127
7, 87552, Note_on_c, 6, 65, 73
7, 87552, Note_on_c, 6, 70, 85
7, 87552, Note_on_c, 6, 62, 75
7, 87560, Note_off_c, 6, 62, 75
7, 87560, Note_off_c, 6, 70, 85
7, 87560, Note_off_c, 6, 65, 73
7, 87648, Note_on_c, 6, 62, 72
7, 87648, Note_on_c, 6, 70, 73
7, 87648, Note_on_c, 6, 65, 54
7, 87656, Note_off_c, 6, 65, 54
7, 87656, Note_off_c, 6, 70, 73
7, 87656, Note_off_c, 6, 62, 72
7, 87744, Note_on_c, 6, 62, 68
7, 87744, Note_on_c, 6, 70, 79
7, 87744, Note_on_c, 6, 65, 60
7, 87752, Note_off_c, 6, 65, 60
7, 87752, Note_off_c, 6, 70, 79
7, 87752, Note_off_c, 6, 62, 68
7, 87840, Note_on_c, 6, 62, 65
7, 87840, Note_on_c, 6, 65, 56
7, 87840, Note_on_c, 6, 70, 64
7, 87848, Note_off_c, 6, 70, 64
7, 87848, Note_off_c, 6, 65, 56
7, 87848, Note_off_c, 6, 62, 65
7, 87936, Note_on_c, 6, 62, 71
7, 87936, Note_on_c, 6, 70, 77
7, 87936, Note_on_c, 6, 65, 57
7, 87944, Note_off_c, 6, 65, 57
7, 87944, Note_off_c, 6, 70, 77
7, 87944, Note_off_c, 6, 62, 71
7, 88032, Note_on_c, 6, 62, 66
7, 88032, Note_on_c, 6, 65, 54
7, 88032, Note_on_c, 6, 70, 65
7, 88040, Note_off_c, 6, 70, 65
7, 88040, Note_off_c, 6, 65, 54
7, 88040, Note_off_c, 6, 62, 66
7, 88128, Note_on_c, 6, 62, 63
7, 88128, Note_on_c, 6, 70, 80
7, 88128, Note_on_c, 6, 65, 64
7, 88136, Note_off_c, 6, 65, 64
7, 88136, Note_off_c, 6, 70, 80
7, 88136, Note_off_c, 6, 62, 63
7, 88224, Note_on_c, 6, 70, 78
7, 88224, Note_on_c, 6, 65, 71
7, 88224, Note_on_c, 6, 62, 78
7, 88232, Note_off_c, 6, 62, 78
7, 88232, Note_off_c, 6, 65, 71
7, 88232, Note_off_c, 6, 70, 78
7, 88296, Control_c, 6, 64, 0
7, 88320, Control_c, 6, 64, 127
7, 88320, Note_on_c, 6, 67, 88
7, 88320, Note_on_c, 6, 63, 65
7, 88320, Note_on_c, 6, 58, 35
7, 88328, Note_off_c, 6, 58, 35
7, 88328, Note_off_c, 6, 63, 65
7, 88328, Note_off_c, 6, 67, 88
7, 88416, Note_on_c, 6, 58, 62
7, 88416, Note_on_c, 6, 67, 67
7, 88416, Note_on_c, 6, 63, 27
7, 88424, Note_off_c, 6, 63, 27
7, 88424, Note_off_c, 6, 67, 67
7, 88424, Note_off_c, 6, 58, 62
7, 88512, Note_on_c, 6, 63, 73
7, 88512, Note_on_c, 6, 67, 73
7, 88512, Note_on_c, 6, 58, 55
7, 88520, Note_off_c, 6, 58, 55
7, 88520, Note_off_c, 6, 67, 73
7, 88520, Note_off_c, 6, 63, 73
7, 88608, Note_on_c, 6, 58, 62
7, 88608, Note_on_c, 6, 67, 75
7, 88608, Note_on_c, 6, 63, 65
7, 88616, Note_off_c, 6, 63, 65
7, 88616, Note_off_c, 6, 67, 75
7, 88616, Note_off_c, 6, 58, 62
7, 88704, Note_on_c, 6, 63, 62
7, 88704, Note_on_c, 6, 58, 54
7, 88704, Note_on_c, 6, 67, 59
7, 88712, Note_off_c, 6, 67, 59
7, 88712, Note_off_c, 6, 58, 54
7, 88712, Note_off_c, 6, 63, 62
7, 88800, Note_on_c, 6, 67, 78
7, 88800, Note_on_c, 6, 58, 62
7, 88800, Note_on_c, 6, 63, 67
7, 88808, Note_off_c, 6, 63, 67
7, 88808, Note_off_c, 6, 58, 62
7, 88808, Note_off_c, 6, 67, 78
7, 88872, Control_c, 6, 64, 0
7, 88896, Control_c, 6, 64, 127
7, 88896, Note_on_c, 6, 63, 70
7, 88896, Note_on_c, 6, 60, 76
7, 88896, Note_on_c, 6, 68, 73
7, 88904, Note_off_c, 6, 68, 73
7, 88904, Note_off_c, 6, 60, 76
7, 88904, Note_off_c, 6, 63, 70
7, 88992, Note_on_c, 6, 60, 61
7, 88992, Note_on_c, 6, 63, 67
7, 88992, Note_on_c, 6, 68, 62
7, 89000, Note_off_c, 6, 68, 62
7, 89000, Note_off_c, 6, 63, 67
7, 89000, Note_off_c, 6, 60, 61
7, 89088, Note_on_c, 6, 63, 76
7, 89088, Note_on_c, 6, 60, 72
7, 89088, Note_on_c, 6, 68, 69
7, 89096, Note_off_c, 6, 68, 69
7, 89096, Note_off_c, 6, 60, 72
7, 89096, Note_off_c, 6, 63, 76
7, 89184, Note_on_c, 6, 68, 70
7, 89184, Note_on_c, 6, 60, 65
7, 89184, Note_on_c, 6, 63, 61
7, 89192, Note_off_c, 6, 63, 61
7, 89192, Note_off_c, 6, 60, 65
7, 89192, Note_off_c, 6, 68, 70
7, 89280, Note_on_c, 6, 63, 74
7, 89280, Note_on_c, 6, 60, 66
7, 89280, Note_on_c, 6, 68, 65
7, 89288, Note_off_c, 6, 68, 65
7, 89288, Note_off_c, 6, 60, 66
7, 89288, Note_off_c, 6, 63, 74
7, 89376, Note_on_c, 6, 68, 73
7, 89376, Note_on_c, 6, 60, 63
7, 89376, Note_on_c, 6, 63, 63
7, 89384, Note_off_c, 6, 63, 63
7, 89384, Note_off_c, 6, 60, 63
7, 89384, Note_off_c, 6, 68, 73
7, 89472, Note_on_c, 6, 68, 73
7, 89472, Note_on_c, 6, 60, 69
7, 89472, Note_on_c, 6, 63, 60
7, 89480, Note_off_c, 6, 63, 60
7, 89480, Note_off_c, 6, 60, 69
7, 89480, Note_off_c, 6, 68, 73
7, 89568, Note_on_c, 6, 68, 69
7, 89568, Note_on_c, 6, 60, 66
7, 89568, Note_on_c, 6, 63, 58
7, 89576, Note_off_c, 6, 63, 58
7, 89576, Note_off_c, 6, 60, 66
7, 89576, Note_off_c, 6, 68, 69
7, 89664, Note_on_c, 6, 68, 72
7, 89664, Note_on_c, 6, 60, 66
7, 89664, Note_on_c, 6, 63, 37
7, 89672, Note_off_c, 6, 63, 37
7, 89672, Note_off_c, 6, 60, 66
7, 89672, Note_off_c, 6, 68, 72
7, 89760, Note_on_c, 6, 68, 69
7, 89760, Note_on_c, 6, 60, 63
7, 89760, Note_on_c, 6, 63, 63
7, 89768, Note_off_c, 6, 63, 63
7, 89768, Note_off_c, 6, 60, 63
7, 89768, Note_off_c, 6, 68, 69
7, 89832, Control_c, 6, 64, 0
7, 89856, Control_c, 6, 64, 127
7, 89856, Note_on_c, 6, 58, 68
7, 89856, Note_on_c, 6, 67, 77
7, 89856, Note_on_c, 6, 63, 73
7, 89864, Note_off_c, 6, 63, 73
7, 89864, Note_off_c, 6, 67, 77
7, 89864, Note_off_c, 6, 58, 68
7, 89952, Note_on_c, 6, 63, 66
7, 89952, Note_on_c, 6, 58, 53
7, 89952, Note_on_c, 6, 67, 65
7, 89960, Note_off_c, 6, 67, 65
7, 89960, Note_off_c, 6, 58, 53
7, 89960, Note_off_c, 6, 63, 66
7, 90048, Note_on_c, 6, 63, 63
7, 90048, Note_on_c, 6, 58, 64
7, 90048, Note_on_c, 6, 67, 73
7, 90056, Note_off_c, 6, 67, 73
7, 90056, Note_off_c, 6, 58, 64
7, 90056, Note_off_c, 6, 63, 63
7, 90144, Note_on_c, 6, 63, 68
7, 90144, Note_on_c, 6, 67, 77
7, 90144, Note_on_c, 6, 58, 63
7, 90152, Note_off_c, 6, 58, 63
7, 90152, Note_off_c, 6, 67, 77
7, 90152, Note_off_c, 6, 63, 68
7, 90240, Note_on_c, 6, 63, 60
7, 90240, Note_on_c, 6, 67, 59
7, 90240, Note_on_c, 6, 58, 39
7, 90248, Note_off_c, 6, 58, 39
7, 90248, Note_off_c, 6, 67, 59
7, 90248, Note_off_c, 6, 63, 60
7, 90336, Note_on_c, 6, 58, 63
7, 90336, Note_on_c, 6, 67, 74
7, 90336, Note_on_c, 6, 63, 58
7, 90344, Note_off_c, 6, 63, 58
7, 90344, Note_off_c, 6, 67, 74
7, 90344, Note_off_c, 6, 58, 63
7, 90432, Note_on_c, 6, 63, 67
7, 90432, Note_on_c, 6, 67, 85
7, 90432, Note_on_c, 6, 58, 67
7, 90440, Note_off_c, 6, 58, 67
7, 90440, Note_off_c, 6, 67, 85
7, 90440, Note_off_c, 6, 63, 67
7, 90504, Control_c, 6, 64, 0
7, 90528, Control_c, 6, 64, 127
7, 90528, Note_on_c, 6, 63, 80
7, 90528, Note_on_c, 6, 58, 81
7, 90528, Note_on_c, 6, 67, 79
7, 90536, Note_off_c, 6, 67, 79
7, 90536, Note_off_c, 6, 58, 81
7, 90536, Note_off_c, 6, 63, 80
7, 90624, Note_on_c, 6, 63, 70
7, 90624, Note_on_c, 6, 67, 74
7, 90624, Note_on_c, 6, 58, 64
7, 90632, Note_off_c, 6, 58, 64
7, 90632, Note_off_c, 6, 67, 74
7, 90632, Note_off_c, 6, 63, 70
7, 90720, Note_on_c, 6, 63, 67
7, 90720, Note_on_c, 6, 58, 63
7, 90720, Note_on_c, 6, 67, 68
7, 90728, Note_off_c, 6, 67, 68
7, 90728, Note_off_c, 6, 58, 63
7, 90728, Note_off_c, 6, 63, 67
7, 90816, Note_on_c, 6, 63, 68
7, 90816, Note_on_c, 6, 67, 70
7, 90816, Note_on_c, 6, 58, 64
7, 90824, Note_off_c, 6, 58, 64
7, 90824, Note_off_c, 6, 67, 70
7, 90824, Note_off_c, 6, 63, 68
7, 90912, Note_on_c, 6, 63, 66
7, 90912, Note_on_c, 6, 67, 69
7, 90912, Note_on_c, 6, 58, 60
7, 90920, Note_off_c, 6, 58, 60
7, 90920, Note_off_c, 6, 67, 69
7, 90920, Note_off_c, 6, 63, 66
7, 91008, Note_on_c, 6, 63, 74
7, 91008, Note_on_c, 6, 58, 71
7, 91008, Note_on_c, 6, 67, 71
7, 91016, Note_off_c, 6, 67, 71
7, 91016, Note_off_c, 6, 58, 71
7, 91016, Note_off_c, 6, 63, 74
7, 91104, Note_on_c, 6, 63, 50
7, 91104, Note_on_c, 6, 58, 55
7, 91104, Note_on_c, 6, 67, 60
7, 91112, Note_off_c, 6, 67, 60
7, 91112, Note_off_c, 6, 58, 55
7, 91112, Note_off_c, 6, 63, 50
7, 91200, Note_on_c, 6, 63, 63
7, 91200, Note_on_c, 6, 67, 69
7, 91200, Note_on_c, 6, 58, 65
7, 91208, Note_off_c, 6, 58, 65
7, 91208, Note_off_c, 6, 67, 69
7, 91208, Note_off_c, 6, 63, 63
7, 91296, Note_on_c, 6, 63, 67
7, 91296, Note_on_c, 6, 67, 73
7, 91296, Note_on_c, 6, 58, 58
7, 91304, Note_off_c, 6, 58, 58
7, 91304, Note_off_c, 6, 67, 73
7, 91304, Note_off_c, 6, 63, 67
7, 91368, Control_c, 6, 64, 0
7, 124416, Control_c, 6, 64, 127
7, 124416, Note_on_c, 6, 72, 89
7, 124416, Note_on_c, 6, 63, 89
7, 124416, Note_on_c, 6, 67, 100
7, 124416, Note_on_c, 6, 60, 96
7, 124424, Note_off_c, 6, 60, 96
7, 124424, Note_off_c, 6, 67, 100
7, 124424, Note_off_c, 6, 63, 89
7, 124424, Note_off_c, 6, 72, 89
7, 124608, Note_on_c, 6, 60, 84
7, 124608, Note_on_c, 6, 67, 88
7, 124608, Note_on_c, 6, 72, 84
7, 124608, Note_on_c, 6, 63, 71
7, 124616, Note_off_c, 6, 63, 71
7, 124616, Note_off_c, 6, 72, 84
7, 124616, Note_off_c, 6, 67, 88
7, 124616, Note_off_c, 6, 60, 84
7, 124704, Note_on_c, 6, 63, 73
7, 124704, Note_on_c, 6, 67, 81
7, 124704, Note_on_c, 6, 72, 79
7, 124704, Note_on_c, 6, 60, 76
7, 124712, Note_off_c, 6, 60, 76
7, 124712, Note_off_c, 6, 72, 79
7, 124712, Note_off_c, 6, 67, 81
7, 124712, Note_off_c, 6, 63, 73
7, 124800, Note_on_c, 6, 63, 74
7, 124800, Note_on_c, 6, 72, 79
7, 124800, Note_on_c, 6, 67, 85
7, 124800, Note_on_c, 6, 60, 82
7, 124808, Note_off_c, 6, 60, 82
7, 124808, Note_off_c, 6, 67, 85
7, 124808, Note_off_c, 6, 72, 79
7, 124808, Note_off_c, 6, 63, 74
7, 124844, Control_c, 6, 64, 0
7, 124988, Control_c, 6, 64, 127
7, 124992, Note_on_c, 6, 60, 96
7, 124992, Note_on_c, 6, 72, 96
7, 124992, Note_on_c, 6, 63, 89
7, 124992, Note_on_c, 6, 67, 93
7, 125000, Note_off_c, 6, 67, 93
7, 125000, Note_off_c, 6, 63, 89
7, 125000, Note_off_c, 6, 72, 96
7, 125000, Note_off_c, 6, 60, 96
7, 125376, Note_on_c, 6, 60, 84
7, 125376, Note_on_c, 6, 63, 82
7, 125376, Note_on_c, 6, 67, 88
7, 125376, Note_on_c, 6, 72, 88
7, 125384, Note_off_c, 6, 72, 88
7, 125384, Note_off_c, 6, 67, 88
7, 125384, Note_off_c, 6, 63, 82
7, 125384, Note_off_c, 6, 60, 84
7, 125428, Control_c, 6, 64, 0
7, 125568, Control_c, 6, 64, 127
7, 125568, Note_on_c, 6, 60, 86
7, 125568, Note_on_c, 6, 72, 79
7, 125568, Note_on_c, 6, 63, 68
7, 125568, Note_on_c, 6, 67, 84
7, 125576, Note_off_c, 6, 67, 84
7, 125576, Note_off_c, 6, 63, 68
7, 125576, Note_off_c, 6, 72, 79
7, 125576, Note_off_c, 6, 60, 86
7, 125760, Note_on_c, 6, 72, 96
7, 125760, Note_on_c, 6, 63, 88
7, 125760, Note_on_c, 6, 60, 93
7, 125760, Note_on_c, 6, 67, 81
7, 125768, Note_off_c, 6, 67, 81
7, 125768, Note_off_c, 6, 60, 93
7, 125768, Note_off_c, 6, 63, 88
7, 125768, Note_off_c, 6, 72, 96
7, 125792, Control_c, 6, 64, 0
7, 125936, Control_c, 6, 64, 127
7, 125952, Note_on_c, 6, 55, 98
7, 125952, Note_on_c, 6, 70, 83
7, 125952, Note_on_c, 6, 62, 80
7, 125952, Note_on_c, 6, 67, 78
7, 125960, Note_off_c, 6, 67, 78
7, 125960, Note_off_c, 6, 62, 80
7, 125960, Note_off_c, 6, 70, 83
7, 125960, Note_off_c, 6, 55, 98
7, 126144, Note_on_c, 6, 55, 91
7, 126144, Note_on_c, 6, 62, 72
7, 126144, Note_on_c, 6, 70, 69
7, 126144, Note_on_c, 6, 67, 63
7, 126152, Note_off_c, 6, 67, 63
7, 126152, Note_off_c, 6, 70, 69
7, 126152, Note_off_c, 6, 62, 72
7, 126152, Note_off_c, 6, 55, 91
7, 126240, Note_on_c, 6, 55, 79
7, 126240, Note_on_c, 6, 62, 71
7, 126240, Note_on_c, 6, 67, 64
7, 126240, Note_on_c, 6, 70, 49
7, 126248, Note_off_c, 6, 70, 49
7, 126248, Note_off_c, 6, 67, 64
7, 126248, Note_off_c, 6, 62, 71
7, 126248, Note_off_c, 6, 55, 79
7, 126336, Note_on_c, 6, 55, 90
7, 126336, Note_on_c, 6, 70, 64
7, 126336, Note_on_c, 6, 62, 33
7, 126336, Note_on_c, 6, 67, 37
7, 126344, Note_off_c, 6, 67, 37
7, 126344, Note_off_c, 6, 62, 33
7, 126344, Note_off_c, 6, 70, 64
7, 126344, Note_off_c, 6, 55, 90
7, 126352, Control_c, 6, 64, 0
7, 126484, Control_c, 6, 64, 127
7, 126528, Note_on_c, 6, 70, 90
7, 126528, Note_on_c, 6, 55, 98
7, 126528, Note_on_c, 6, 62, 85
7, 126528, Note_on_c, 6, 67, 74
7, 126536, Note_off_c, 6, 67, 74
7, 126536, Note_off_c, 6, 62, 85
7, 126536, Note_off_c, 6, 55, 98
7, 126536, Note_off_c, 6, 70, 90
7, 126912, Note_on_c, 6, 62, 86
7, 126912, Note_on_c, 6, 55, 90
7, 126912, Note_on_c, 6, 70, 75
7, 126912, Note_on_c, 6, 67, 75
7, 126920, Note_off_c, 6, 67, 75
7, 126920, Note_off_c, 6, 70, 75
7, 126920, Note_off_c, 6, 55, 90
7, 126920, Note_off_c, 6, 62, 86
7, 126944, Control_c, 6, 64, 0
7, 127056, Control_c, 6, 64, 127
7, 127104, Note_on_c, 6, 55, 87
7, 127104, Note_on_c, 6, 70, 79
7, 127104, Note_on_c, 6, 62, 78
7, 127104, Note_on_c, 6, 67, 75
7, 127112, Note_off_c, 6, 67, 75
7, 127112, Note_off_c, 6, 62, 78
7, 127112, Note_off_c, 6, 70, 79
7, 127112, Note_off_c, 6, 55, 87
7, 127296, Note_on_c, 6, 62, 76
7, 127296, Note_on_c, 6, 55, 97
7, 127296, Note_on_c, 6, 70, 71
7, 127296, Note_on_c, 6, 67, 68
7, 127304, Note_off_c, 6, 67, 68
7, 127304, Note_off_c, 6, 70, 71
7, 127304, Note_off_c, 6, 55, 97
7, 127304, Note_off_c, 6, 62, 76
7, 127312, Control_c, 6, 64, 0
7, 127456, Control_c, 6, 64, 127
7, 127488, Note_on_c, 6, 67, 97
7, 127488, Note_on_c, 6, 60, 92
7, 127488, Note_on_c, 6, 63, 79
7, 127488, Note_on_c, 6, 72, 90
7, 127496, Note_off_c, 6, 72, 90
7, 127496, Note_off_c, 6, 63, 79
7, 127496, Note_off_c, 6, 60, 92
7, 127496, Note_off_c, 6, 67, 97
7, 127680, Note_on_c, 6, 60, 79
7, 127680, Note_on_c, 6, 67, 87
7, 127680, Note_on_c, 6, 72, 84
7, 127680, Note_on_c, 6, 63, 74
7, 127688, Note_off_c, 6, 63, 74
7, 127688, Note_off_c, 6, 72, 84
7, 127688, Note_off_c, 6, 67, 87
7, 127688, Note_off_c, 6, 60, 79
7, 127776, Note_on_c, 6, 63, 67
7, 127776, Note_on_c, 6, 67, 61
7, 127776, Note_on_c, 6, 72, 73
7, 127776, Note_on_c, 6, 60, 61
7, 127784, Note_off_c, 6, 60, 61
7, 127784, Note_off_c, 6, 72, 73
7, 127784, Note_off_c, 6, 67, 61
7, 127784, Note_off_c, 6, 63, 67
7, 127872, Note_on_c, 6, 72, 74
7, 127872, Note_on_c, 6, 67, 85
7, 127872, Note_on_c, 6, 60, 77
7, 127872, Note_on_c, 6, 63, 57
7, 127880, Note_off_c, 6, 63, 57
7, 127880, Note_off_c, 6, 60, 77
7, 127880, Note_off_c, 6, 67, 85
7, 127880, Note_off_c, 6, 72, 74
7, 127916, Control_c, 6, 64, 0
7, 128036, Control_c, 6, 64, 127
7, 128064, Note_on_c, 6, 60, 92
7, 128064, Note_on_c, 6, 63, 85
7, 128064, Note_on_c, 6, 67, 92
7, 128064, Note_on_c, 6, 72, 92
7, 128072, Note_off_c, 6, 72, 92
7, 128072, Note_off_c, 6, 67, 92
7, 128072, Note_off_c, 6, 63, 85
7, 128072, Note_off_c, 6, 60, 92
7, 128448, Note_on_c, 6, 60, 83
7, 128448, Note_on_c, 6, 72, 96
7, 128448, Note_on_c, 6, 63, 88
7, 128448, Note_on_c, 6, 67, 87
7, 128456, Note_off_c, 6, 67, 87
7, 128456, Note_off_c, 6, 63, 88
7, 128456, Note_off_c, 6, 72, 96
7, 128456, Note_off_c, 6, 60, 83
7, 128476, Control_c, 6, 64, 0
7, 128616, Control_c, 6, 64, 127
7, 128640, Note_on_c, 6, 60, 88
7, 128640, Note_on_c, 6, 72, 89
7, 128640, Note_on_c, 6, 63, 77
7, 128640, Note_on_c, 6, 67, 85
7, 128648, Note_off_c, 6, 67, 85
7, 128648, Note_off_c, 6, 63, 77
7, 128648, Note_off_c, 6, 72, 89
7, 128648, Note_off_c, 6, 60, 88
7, 128832, Note_on_c, 6, 60, 88
7, 128832, Note_on_c, 6, 72, 89
7, 128832, Note_on_c, 6, 63, 74
7, 128832, Note_on_c, 6, 67, 76
7, 128840, Note_off_c, 6, 67, 76
7, 128840, Note_off_c, 6, 63, 74
7, 128840, Note_off_c, 6, 72, 89
7, 128840, Note_off_c, 6, 60, 88
7, 128852, Control_c, 6, 64, 0
7, 128976, Control_c, 6, 64, 127
7, 129024, Note_on_c, 6, 62, 88
7, 129024, Note_on_c, 6, 55, 98
7, 129024, Note_on_c, 6, 67, 88
7, 129024, Note_on_c, 6, 70, 71
7, 129032, Note_off_c, 6, 70, 71
7, 129032, Note_off_c, 6, 67, 88
7, 129032, Note_off_c, 6, 55, 98
7, 129032, Note_off_c, 6, 62, 88
7, 129216, Note_on_c, 6, 55, 96
7, 129216, Note_on_c, 6, 70, 72
7, 129216, Note_on_c, 6, 62, 71
7, 129216, Note_on_c, 6, 67, 65
7, 129224, Note_off_c, 6, 67, 65
7, 129224, Note_off_c, 6, 62, 71
7, 129224, Note_off_c, 6, 70, 72
7, 129224, Note_off_c, 6, 55, 96
7, 129312, Note_on_c, 6, 62, 65
7, 129312, Note_on_c, 6, 55, 95
7, 129312, Note_on_c, 6, 67, 57
7, 129320, Note_off_c, 6, 67, 57
7, 129320, Note_off_c, 6, 55, 95
7, 129320, Note_off_c, 6, 62, 65
7, 129408, Note_on_c, 6, 55, 91
7, 129408, Note_on_c, 6, 67, 54
7, 129408, Note_on_c, 6, 62, 32
7, 129408, Note_on_c, 6, 70, 47
7, 129416, Note_off_c, 6, 70, 47
7, 129416, Note_off_c, 6, 62, 32
7, 129416, Note_off_c, 6, 67, 54
7, 129416, Note_off_c, 6, 55, 91
7, 129432, Control_c, 6, 64, 0
7, 129596, Control_c, 6, 64, 127
7, 129600, Note_on_c, 6, 62, 89
7, 129600, Note_on_c, 6, 70, 86
7, 129600, Note_on_c, 6, 55, 98
7, 129600, Note_on_c, 6, 67, 77
7, 129608, Note_off_c, 6, 67, 77
7, 129608, Note_off_c, 6, 55, 98
7, 129608, Note_off_c, 6, 70, 86
7, 129608, Note_off_c, 6, 62, 89
7, 129984, Note_on_c, 6, 55, 97
7, 129984, Note_on_c, 6, 62, 90
7, 129984, Note_on_c, 6, 67, 89
7, 129984, Note_on_c, 6, 70, 74
7, 129992, Note_off_c, 6, 70, 74
7, 129992, Note_off_c, 6, 67, 89
7, 129992, Note_off_c, 6, 62, 90
7, 129992, Note_off_c, 6, 55, 97
7, 130024, Control_c, 6, 64, 0
7, 130164, Control_c, 6, 64, 127
7, 130176, Note_on_c, 6, 55, 93
7, 130176, Note_on_c, 6, 62, 85
7, 130176, Note_on_c, 6, 67, 77
7, 130176, Note_on_c, 6, 70, 64
7, 130184, Note_off_c, 6, 70, 64
7, 130184, Note_off_c, 6, 67, 77
7, 130184, Note_off_c, 6, 62, 85
7, 130184, Note_off_c, 6, 55, 93
7, 130368, Note_on_c, 6, 70, 79
7, 130368, Note_on_c, 6, 55, 98
7, 130368, Note_on_c, 6, 62, 85
7, 130368, Note_on_c, 6, 67, 71
7, 130376, Note_off_c, 6, 67, 71
7, 130376, Note_off_c, 6, 62, 85
7, 130376, Note_off_c, 6, 55, 98
7, 130376, Note_off_c, 6, 70, 79
7, 130396, Control_c, 6, 64, 0
7, 130536, Control_c, 6, 64, 127
7, 130560, Note_on_c, 6, 58, 93
7, 130560, Note_on_c, 6, 65, 89
7, 130560, Note_on_c, 6, 63, 88
7, 130568, Note_off_c, 6, 63, 88
7, 130568, Note_off_c, 6, 65, 89
7, 130568, Note_off_c, 6, 58, 93
7, 130944, Note_on_c, 6, 65, 93
7, 130944, Note_on_c, 6, 63, 83
7, 130944, Note_on_c, 6, 58, 88
7, 130952, Note_off_c, 6, 58, 88
7, 130952, Note_off_c, 6, 63, 83
7, 130952, Note_off_c, 6, 65, 93
7, 131164, Control_c, 6, 64, 0
7, 131232, Note_on_c, 6, 63, 68
7, 131232, Note_on_c, 6, 65, 71
7, 131232, Note_on_c, 6, 58, 74
7, 131240, Note_off_c, 6, 58, 74
7, 131240, Note_off_c, 6, 65, 71
7, 131240, Note_off_c, 6, 63, 68
7, 131300, Control_c, 6, 64, 127
7, 131328, Note_on_c, 6, 62, 93
7, 131328, Note_on_c, 6, 65, 86
7, 131328, Note_on_c, 6, 58, 92
7, 131336, Note_off_c, 6, 58, 92
7, 131336, Note_off_c, 6, 65, 86
7, 131336, Note_off_c, 6, 62, 93
7, 131364, Control_c, 6, 64, 0
7, 131508, Control_c, 6, 64, 127
7, 131520, Note_on_c, 6, 58, 94
7, 131520, Note_on_c, 6, 62, 90
7, 131520, Note_on_c, 6, 65, 82
7, 131528, Note_off_c, 6, 65, 82
7, 131528, Note_off_c, 6, 62, 90
7, 131528, Note_off_c, 6, 58, 94
7, 131904, Note_on_c, 6, 62, 86
7, 131904, Note_on_c, 6, 58, 80
7, 131904, Note_on_c, 6, 65, 75
7, 131912, Note_off_c, 6, 65, 75
7, 131912, Note_off_c, 6, 58, 80
7, 131912, Note_off_c, 6, 62, 86
7, 131920, Control_c, 6, 64, 0
7, 132060, Control_c, 6, 64, 127
7, 132096, Note_on_c, 6, 58, 93
7, 132096, Note_on_c, 6, 65, 91
7, 132096, Note_on_c, 6, 63, 90
7, 132104, Note_off_c, 6, 63, 90
7, 132104, Note_off_c, 6, 65, 91
7, 132104, Note_off_c, 6, 58, 93
7, 132480, Note_on_c, 6, 65, 94
7, 132480, Note_on_c, 6, 58, 89
7, 132480, Note_on_c, 6, 63, 83
7, 132488, Note_off_c, 6, 63, 83
7, 132488, Note_off_c, 6, 58, 89
7, 132488, Note_off_c, 6, 65, 94
7, 132740, Control_c, 6, 64, 0
7, 132768, Note_on_c, 6, 63, 81
7, 132768, Note_on_c, 6, 65, 85
7, 132768, Note_on_c, 6, 58, 70
7, 132776, Note_off_c, 6, 58, 70
7, 132776, Note_off_c, 6, 65, 85
7, 132776, Note_off_c, 6, 63, 81
7, 132864, Note_on_c, 6, 58, 73
7, 132864, Note_on_c, 6, 65, 79
7, 132864, Note_on_c, 6, 62, 86
7, 132872, Note_off_c, 6, 62, 86
7, 132872, Note_off_c, 6, 65, 79
7, 132872, Note_off_c, 6, 58, 73
7, 132872, Control_c, 6, 64, 127
7, 132912, Control_c, 6, 64, 0
7, 133036, Control_c, 6, 64, 127
7, 133056, Note_on_c, 6, 62, 91
7, 133056, Note_on_c, 6, 65, 87
7, 133056, Note_on_c, 6, 58, 92
7, 133064, Note_off_c, 6, 58, 92
7, 133064, Note_off_c, 6, 65, 87
7, 133064, Note_off_c, 6, 62, 91
7, 133248, Note_on_c, 6, 65, 81
7, 133248, Note_on_c, 6, 58, 79
7, 133248, Note_on_c, 6, 62, 69
7, 133256, Note_off_c, 6, 62, 69
7, 133256, Note_off_c, 6, 58, 79
7, 133256, Note_off_c, 6, 65, 81
7, 133440, Note_on_c, 6, 58, 90
7, 133440, Note_on_c, 6, 65, 88
7, 133440, Note_on_c, 6, 62, 80
7, 133444, Control_c, 6, 64, 0
7, 133448, Note_off_c, 6, 62, 80
7, 133448, Note_off_c, 6, 65, 88
7, 133448, Note_off_c, 6, 58, 90
7, 133604, Control_c, 6, 64, 127
7, 133632, Note_on_c, 6, 67, 103
7, 133632, Note_on_c, 6, 60, 98
7, 133632, Note_on_c, 6, 63, 95
7, 133632, Note_on_c, 6, 72, 96
7, 133640, Note_off_c, 6, 72, 96
7, 133640, Note_off_c, 6, 63, 95
7, 133640, Note_off_c, 6, 60, 98
7, 133640, Note_off_c, 6, 67, 103
7, 133824, Note_on_c, 6, 60, 88
7, 133824, Note_on_c, 6, 67, 90
7, 133824, Note_on_c, 6, 63, 78
7, 133824, Note_on_c, 6, 72, 75
7, 133832, Note_off_c, 6, 72, 75
7, 133832, Note_off_c, 6, 63, 78
7, 133832, Note_off_c, 6, 67, 90
7, 133832, Note_off_c, 6, 60, 88
7, 133920, Note_on_c, 6, 67, 87
7, 133920, Note_on_c, 6, 63, 80
7, 133920, Note_on_c, 6, 72, 89
7, 133920, Note_on_c, 6, 60, 79
7, 133928, Note_off_c, 6, 60, 79
7, 133928, Note_off_c, 6, 72, 89
7, 133928, Note_off_c, 6, 63, 80
7, 133928, Note_off_c, 6, 67, 87
7, 134016, Note_on_c, 6, 72, 78
7, 134016, Note_on_c, 6, 63, 74
7, 134016, Note_on_c, 6, 67, 96
7, 134016, Note_on_c, 6, 60, 92
7, 134024, Note_off_c, 6, 60, 92
7, 134024, Note_off_c, 6, 67, 96
7, 134024, Note_off_c, 6, 63, 74
7, 134024, Note_off_c, 6, 72, 78
7, 134084, Control_c, 6, 64, 0
7, 134208, Note_on_c, 6, 67, 100
7, 134208, Note_on_c, 6, 63, 94
7, 134208, Note_on_c, 6, 72, 100
7, 134208, Note_on_c, 6, 60, 94
7, 134212, Control_c, 6, 64, 127
7, 134216, Note_off_c, 6, 60, 94
7, 134216, Note_off_c, 6, 72, 100
7, 134216, Note_off_c, 6, 63, 94
7, 134216, Note_off_c, 6, 67, 100
7, 134592, Note_on_c, 6, 63, 87
7, 134592, Note_on_c, 6, 67, 95
7, 134592, Note_on_c, 6, 60, 84
7, 134592, Note_on_c, 6, 72, 86
7, 134600, Note_off_c, 6, 72, 86
7, 134600, Note_off_c, 6, 60, 84
7, 134600, Note_off_c, 6, 67, 95
7, 134600, Note_off_c, 6, 63, 87
7, 134784, Note_on_c, 6, 60, 91
7, 134784, Note_on_c, 6, 63, 88
7, 134784, Note_on_c, 6, 67, 93
7, 134784, Note_on_c, 6, 72, 92
7, 134792, Note_off_c, 6, 72, 92
7, 134792, Note_off_c, 6, 67, 93
7, 134792, Note_off_c, 6, 63, 88
7, 134792, Note_off_c, 6, 60, 91
7, 134968, Control_c, 6, 64, 0
7, 134976, Note_on_c, 6, 60, 87
7, 134976, Note_on_c, 6, 67, 97
7, 134976, Note_on_c, 6, 63, 85
7, 134976, Note_on_c, 6, 72, 84
7, 134984, Note_off_c, 6, 72, 84
7, 134984, Note_off_c, 6, 63, 85
7, 134984, Note_off_c, 6, 67, 97
7, 134984, Note_off_c, 6, 60, 87
7, 135144, Control_c, 6, 64, 127
7, 135168, Note_on_c, 6, 72, 96
7, 135168, Note_on_c, 6, 63, 79
7, 135168, Note_on_c, 6, 56, 97
7, 135168, Note_on_c, 6, 68, 74
7, 135176, Note_off_c, 6, 68, 74
7, 135176, Note_off_c, 6, 56, 97
7, 135176, Note_off_c, 6, 63, 79
7, 135176, Note_off_c, 6, 72, 96
7, 135360, Note_on_c, 6, 56, 81
7, 135360, Note_on_c, 6, 63, 68
7, 135360, Note_on_c, 6, 68, 77
7, 135360, Note_on_c, 6, 72, 67
7, 135368, Note_off_c, 6, 72, 67
7, 135368, Note_off_c, 6, 68, 77
7, 135368, Note_off_c, 6, 63, 68
7, 135368, Note_off_c, 6, 56, 81
7, 135456, Note_on_c, 6, 72, 90
7, 135456, Note_on_c, 6, 63, 86
7, 135456, Note_on_c, 6, 56, 78
7, 135456, Note_on_c, 6, 68, 80
7, 135464, Note_off_c, 6, 68, 80
7, 135464, Note_off_c, 6, 56, 78
7, 135464, Note_off_c, 6, 63, 86
7, 135464, Note_off_c, 6, 72, 90
7, 135524, Control_c, 6, 64, 0
7, 135552, Note_on_c, 6, 63, 73
7, 135552, Note_on_c, 6, 72, 79
7, 135552, Note_on_c, 6, 56, 93
7, 135552, Note_on_c, 6, 68, 82
7, 135560, Note_off_c, 6, 68, 82
7, 135560, Note_off_c, 6, 56, 93
7, 135560, Note_off_c, 6, 72, 79
7, 135560, Note_off_c, 6, 63, 73
7, 135732, Control_c, 6, 64, 127
7, 135744, Note_on_c, 6, 67, 96
7, 135744, Note_on_c, 6, 71, 95
7, 135744, Note_on_c, 6, 55, 94
7, 135744, Note_on_c, 6, 62, 83
7, 135752, Note_off_c, 6, 62, 83
7, 135752, Note_off_c, 6, 55, 94
7, 135752, Note_off_c, 6, 71, 95
7, 135752, Note_off_c, 6, 67, 96
7, 136128, Note_on_c, 6, 62, 85
7, 136128, Note_on_c, 6, 71, 87
7, 136128, Note_on_c, 6, 55, 96
7, 136128, Note_on_c, 6, 67, 80
7, 136136, Note_off_c, 6, 67, 80
7, 136136, Note_off_c, 6, 55, 96
7, 136136, Note_off_c, 6, 71, 87
7, 136136, Note_off_c, 6, 62, 85
7, 136320, Note_on_c, 6, 71, 91
7, 136320, Note_on_c, 6, 55, 96
7, 136320, Note_on_c, 6, 62, 80
7, 136320, Note_on_c, 6, 67, 78
7, 136328, Note_off_c, 6, 67, 78
7, 136328, Note_off_c, 6, 62, 80
7, 136328, Note_off_c, 6, 55, 96
7, 136328, Note_off_c, 6, 71, 91
7, 136512, Note_on_c, 6, 71, 91
7, 136512, Note_on_c, 6, 55, 100
7, 136512, Note_on_c, 6, 62, 82
7, 136512, Note_on_c, 6, 67, 76
7, 136520, Note_off_c, 6, 67, 76
7, 136520, Note_off_c, 6, 62, 82
7, 136520, Note_off_c, 6, 55, 100
7, 136520, Note_off_c, 6, 71, 91
7, 136648, Control_c, 6, 64, 0
7, 136704, Control_c, 6, 64, 127
7, 136704, Note_on_c, 6, 72, 89
7, 136704, Note_on_c, 6, 63, 89
7, 136704, Note_on_c, 6, 67, 100
7, 136704, Note_on_c, 6, 60, 96
7, 136712, Note_off_c, 6, 60, 96
7, 136712, Note_off_c, 6, 67, 100
7, 136712, Note_off_c, 6, 63, 89
7, 136712, Note_off_c, 6, 72, 89
7, 136896, Note_on_c, 6, 60, 84
7, 136896, Note_on_c, 6, 67, 88
7, 136896, Note_on_c, 6, 72, 84
7, 136896, Note_on_c, 6, 63, 71
7, 136904, Note_off_c, 6, 63, 71
7, 136904, Note_off_c, 6, 72, 84
7, 136904, Note_off_c, 6, 67, 88
7, 136904, Note_off_c, 6, 60, 84
7, 136992, Note_on_c, 6, 63, 73
7, 136992, Note_on_c, 6, 67, 81
7, 136992, Note_on_c, 6, 72, 79
7, 136992, Note_on_c, 6, 60, 76
7, 137000, Note_off_c, 6, 60, 76
7, 137000, Note_off_c, 6, 72, 79
7, 137000, Note_off_c, 6, 67, 81
7, 137000, Note_off_c, 6, 63, 73
7, 137088, Note_on_c, 6, 63, 74
7, 137088, Note_on_c, 6, 72, 79
7, 137088, Note_on_c, 6, 67, 85
7, 137088, Note_on_c, 6, 60, 82
7, 137096, Note_off_c, 6, 60, 82
7, 137096, Note_off_c, 6, 67, 85
7, 137096, Note_off_c, 6, 72, 79
7, 137096, Note_off_c, 6, 63, 74
7, 137132, Control_c, 6, 64, 0
7, 137276, Control_c, 6, 64, 127
7, 137280, Note_on_c, 6, 60, 96
7, 137280, Note_on_c, 6, 72, 96
7, 137280, Note_on_c, 6, 63, 89
7, 137280, Note_on_c, 6, 67, 93
7, 137288, Note_off_c, 6, 67, 93
7, 137288, Note_off_c, 6, 63, 89
7, 137288, Note_off_c, 6, 72, 96
7, 137288, Note_off_c, 6, 60, 96
7, 137664, Note_on_c, 6, 60, 84
7, 137664, Note_on_c, 6, 63, 82
7, 137664, Note_on_c, 6, 67, 88
7, 137664, Note_on_c, 6, 72, 88
7, 137672, Note_off_c, 6, 72, 88
7, 137672, Note_off_c, 6, 67, 88
7, 137672, Note_off_c, 6, 63, 82
7, 137672, Note_off_c, 6, 60, 84
7, 137716, Control_c, 6, 64, 0
7, 137856, Control_c, 6, 64, 127
7, 137856, Note_on_c, 6, 60, 86
7, 137856, Note_on_c, 6, 72, 79
7, 137856, Note_on_c, 6, 63, 68
7, 137856, Note_on_c, 6, 67, 84
7, 137864, Note_off_c, 6, 67, 84
7, 137864, Note_off_c, 6, 63, 68
7, 137864, Note_off_c, 6, 72, 79
7, 137864, Note_off_c, 6, 60, 86
7, 138048, Note_on_c, 6, 72, 96
7, 138048, Note_on_c, 6, 63, 88
7, 138048, Note_on_c, 6, 60, 93
7, 138048, Note_on_c, 6, 67, 81
7, 138056, Note_off_c, 6, 67, 81
7, 138056, Note_off_c, 6, 60, 93
7, 138056, Note_off_c, 6, 63, 88
7, 138056, Note_off_c, 6, 72, 96
7, 138080, Control_c, 6, 64, 0
7, 138224, Control_c, 6, 64, 127
7, 138240, Note_on_c, 6, 55, 98
7, 138240, Note_on_c, 6, 70, 83
7, 138240, Note_on_c, 6, 62, 80
7, 138240, Note_on_c, 6, 67, 78
7, 138248, Note_off_c, 6, 67, 78
7, 138248, Note_off_c, 6, 62, 80
7, 138248, Note_off_c, 6, 70, 83
7, 138248, Note_off_c, 6, 55, 98
7, 138432, Note_on_c, 6, 55, 91
7, 138432, Note_on_c, 6, 62, 72
7, 138432, Note_on_c, 6, 70, 69
7, 138432, Note_on_c, 6, 67, 63
7, 138440, Note_off_c, 6, 67, 63
7, 138440, Note_off_c, 6, 70, 69
7, 138440, Note_off_c, 6, 62, 72
7, 138440, Note_off_c, 6, 55, 91
7, 138528, Note_on_c, 6, 55, 79
7, 138528, Note_on_c, 6, 62, 71
7, 138528, Note_on_c, 6, 67, 64
7, 138528, Note_on_c, 6, 70, 49
7, 138536, Note_off_c, 6, 70, 49
7, 138536, Note_off_c, 6, 67, 64
7, 138536, Note_off_c, 6, 62, 71
7, 138536, Note_off_c, 6, 55, 79
7, 138624, Note_on_c, 6, 55, 90
7, 138624, Note_on_c, 6, 70, 64
7, 138624, Note_on_c, 6, 62, 33
7, 138624, Note_on_c, 6, 67, 37
7, 138632, Note_off_c, 6, 67, 37
7, 138632, Note_off_c, 6, 62, 33
7, 138632, Note_off_c, 6, 70, 64
7, 138632, Note_off_c, 6, 55, 90
7, 138640, Control_c, 6, 64, 0
7, 138772, Control_c, 6, 64, 127
7, 138816, Note_on_c, 6, 70, 90
7, 138816, Note_on_c, 6, 55, 98
7, 138816, Note_on_c, 6, 62, 85
7, 138816, Note_on_c, 6, 67, 74
7, 138824, Note_off_c, 6, 67, 74
7, 138824, Note_off_c, 6, 62, 85
7, 138824, Note_off_c, 6, 55, 98
7, 138824, Note_off_c, 6, 70, 90
7, 139200, Note_on_c, 6, 62, 86
7, 139200, Note_on_c, 6, 55, 90
7, 139200, Note_on_c, 6, 70, 75
7, 139200, Note_on_c, 6, 67, 75
7, 139208, Note_off_c, 6, 67, 75
7, 139208, Note_off_c, 6, 70, 75
7, 139208, Note_off_c, 6, 55, 90
7, 139208, Note_off_c, 6, 62, 86
7, 139232, Control_c, 6, 64, 0
7, 139344, Control_c, 6, 64, 127
7, 139392, Note_on_c, 6, 55, 87
7, 139392, Note_on_c, 6, 70, 79
7, 139392, Note_on_c, 6, 62, 78
7, 139392, Note_on_c, 6, 67, 75
7, 139400, Note_off_c, 6, 67, 75
7, 139400, Note_off_c, 6, 62, 78
7, 139400, Note_off_c, 6, 70, 79
7, 139400, Note_off_c, 6, 55, 87
7, 139584, Note_on_c, 6, 62, 76
7, 139584, Note_on_c, 6, 55, 97
7, 139584, Note_on_c, 6, 70, 71
7, 139584, Note_on_c, 6, 67, 68
7, 139592, Note_off_c, 6, 67, 68
7, 139592, Note_off_c, 6, 70, 71
7, 139592, Note_off_c, 6, 55, 97
7, 139592, Note_off_c, 6, 62, 76
7, 139600, Control_c, 6, 64, 0
7, 139744, Control_c, 6, 64, 127
7, 139776, Note_on_c, 6, 67, 97
7, 139776, Note_on_c, 6, 60, 92
7, 139776, Note_on_c, 6, 63, 79
7, 139776, Note_on_c, 6, 72, 90
7, 139784, Note_off_c, 6, 72, 90
7, 139784, Note_off_c, 6, 63, 79
7, 139784, Note_off_c, 6, 60, 92
7, 139784, Note_off_c, 6, 67, 97
7, 139968, Note_on_c, 6, 60, 79
7, 139968, Note_on_c, 6, 67, 87
7, 139968, Note_on_c, 6, 72, 84
7, 139968, Note_on_c, 6, 63, 74
7, 139976, Note_off_c, 6, 63, 74
7, 139976, Note_off_c, 6, 72, 84
7, 139976, Note_off_c, 6, 67, 87
7, 139976, Note_off_c, 6, 60, 79
7, 140064, Note_on_c, 6, 63, 67
7, 140064, Note_on_c, 6, 67, 61
7, 140064, Note_on_c, 6, 72, 73
7, 140064, Note_on_c, 6, 60, 61
7, 140072, Note_off_c, 6, 60, 61
7, 140072, Note_off_c, 6, 72, 73
7, 140072, Note_off_c, 6, 67, 61
7, 140072, Note_off_c, 6, 63, 67
7, 140160, Note_on_c, 6, 72, 74
7, 140160, Note_on_c, 6, 67, 85
7, 140160, Note_on_c, 6, 60, 77
7, 140160, Note_on_c, 6, 63, 57
7, 140168, Note_off_c, 6, 63, 57
7, 140168, Note_off_c, 6, 60, 77
7, 140168, Note_off_c, 6, 67, 85
7, 140168, Note_off_c, 6, 72, 74
7, 140204, Control_c, 6, 64, 0
7, 140324, Control_c, 6, 64, 127
7, 140352, Note_on_c, 6, 60, 92
7, 140352, Note_on_c, 6, 63, 85
7, 140352, Note_on_c, 6, 67, 92
7, 140352, Note_on_c, 6, 72, 92
7, 140360, Note_off_c, 6, 72, 92
7, 140360, Note_off_c, 6, 67, 92
7, 140360, Note_off_c, 6, 63, 85
7, 140360, Note_off_c, 6, 60, 92
7, 140736, Note_on_c, 6, 60, 83
7, 140736, Note_on_c, 6, 72, 96
7, 140736, Note_on_c, 6, 63, 88
7, 140736, Note_on_c, 6, 67, 87
7, 140744, Note_off_c, 6, 67, 87
7, 140744, Note_off_c, 6, 63, 88
7, 140744, Note_off_c, 6, 72, 96
7, 140744, Note_off_c, 6, 60, 83
7, 140764, Control_c, 6, 64, 0
7, 140904, Control_c, 6, 64, 127
7, 140928, Note_on_c, 6, 60, 88
7, 140928, Note_on_c, 6, 72, 89
7, 140928, Note_on_c, 6, 63, 77
7, 140928, Note_on_c, 6, 67, 85
7, 140936, Note_off_c, 6, 67, 85
7, 140936, Note_off_c, 6, 63, 77
7, 140936, Note_off_c, 6, 72, 89
7, 140936, Note_off_c, 6, 60, 88
7, 141120, Note_on_c, 6, 60, 88
7, 141120, Note_on_c, 6, 72, 89
7, 141120, Note_on_c, 6, 63, 74
7, 141120, Note_on_c, 6, 67, 76
7, 141128, Note_off_c, 6, 67, 76
7, 141128, Note_off_c, 6, 63, 74
7, 141128, Note_off_c, 6, 72, 89
7, 141128, Note_off_c, 6, 60, 88
7, 141140, Control_c, 6, 64, 0
7, 141264, Control_c, 6, 64, 127
7, 141312, Note_on_c, 6, 62, 88
7, 141312, Note_on_c, 6, 55, 98
7, 141312, Note_on_c, 6, 67, 88
7, 141312, Note_on_c, 6, 70, 71
7, 141320, Note_off_c, 6, 70, 71
7, 141320, Note_off_c, 6, 67, 88
7, 141320, Note_off_c, 6, 55, 98
7, 141320, Note_off_c, 6, 62, 88
7, 141504, Note_on_c, 6, 55, 96
7, 141504, Note_on_c, 6, 70, 72
7, 141504, Note_on_c, 6, 62, 71
7, 141504, Note_on_c, 6, 67, 65
7, 141512, Note_off_c, 6, 67, 65
7, 141512, Note_off_c, 6, 62, 71
7, 141512, Note_off_c, 6, 70, 72
7, 141512, Note_off_c, 6, 55, 96
7, 141600, Note_on_c, 6, 62, 65
7, 141600, Note_on_c, 6, 55, 95
7, 141600, Note_on_c, 6, 67, 57
7, 141608, Note_off_c, 6, 67, 57
7, 141608, Note_off_c, 6, 55, 95
7, 141608, Note_off_c, 6, 62, 65
7, 141696, Note_on_c, 6, 55, 91
7, 141696, Note_on_c, 6, 67, 54
7, 141696, Note_on_c, 6, 62, 32
7, 141696, Note_on_c, 6, 70, 47
7, 141704, Note_off_c, 6, 70, 47
7, 141704, Note_off_c, 6, 62, 32
7, 141704, Note_off_c, 6, 67, 54
7, 141704, Note_off_c, 6, 55, 91
7, 141720, Control_c, 6, 64, 0
7, 141884, Control_c, 6, 64, 127
7, 141888, Note_on_c, 6, 62, 89
7, 141888, Note_on_c, 6, 70, 86
7, 141888, Note_on_c, 6, 55, 98
7, 141888, Note_on_c, 6, 67, 77
7, 141896, Note_off_c, 6, 67, 77
7, 141896, Note_off_c, 6, 55, 98
7, 141896, Note_off_c, 6, 70, 86
7, 141896, Note_off_c, 6, 62, 89
7, 142272, Note_on_c, 6, 55, 97
7, 142272, Note_on_c, 6, 62, 90
7, 142272, Note_on_c, 6, 67, 89
7, 142272, Note_on_c, 6, 70, 74
7, 142280, Note_off_c, 6, 70, 74
7, 142280, Note_off_c, 6, 67, 89
7, 142280, Note_off_c, 6, 62, 90
7, 142280, Note_off_c, 6, 55, 97
7, 142312, Control_c, 6, 64, 0
7, 142452, Control_c, 6, 64, 127
7, 142464, Note_on_c, 6, 55, 93
7, 142464, Note_on_c, 6, 62, 85
7, 142464, Note_on_c, 6, 67, 77
7, 142464, Note_on_c, 6, 70, 64
7, 142472, Note_off_c, 6, 70, 64
7, 142472, Note_off_c, 6, 67, 77
7, 142472, Note_off_c, 6, 62, 85
7, 142472, Note_off_c, 6, 55, 93
7, 142656, Note_on_c, 6, 70, 79
7, 142656, Note_on_c, 6, 55, 98
7, 142656, Note_on_c, 6, 62, 85
7, 142656, Note_on_c, 6, 67, 71
7, 142664, Note_off_c, 6, 67, 71
7, 142664, Note_off_c, 6, 62, 85
7, 142664, Note_off_c, 6, 55, 98
7, 142664, Note_off_c, 6, 70, 79
7, 142684, Control_c, 6, 64, 0
7, 142824, Control_c, 6, 64, 127
7, 142848, Note_on_c, 6, 58, 93
7, 142848, Note_on_c, 6, 65, 89
7, 142848, Note_on_c, 6, 63, 88
7, 142856, Note_off_c, 6, 63, 88
7, 142856, Note_off_c, 6, 65, 89
7, 142856, Note_off_c, 6, 58, 93
7, 143232, Note_on_c, 6, 65, 93
7, 143232, Note_on_c, 6, 63, 83
7, 143232, Note_on_c, 6, 58, 88
7, 143240, Note_off_c, 6, 58, 88
7, 143240, Note_off_c, 6, 63, 83
7, 143240, Note_off_c, 6, 65, 93
7, 143452, Control_c, 6, 64, 0
7, 143520, Note_on_c, 6, 63, 68
7, 143520, Note_on_c, 6, 65, 71
7, 143520, Note_on_c, 6, 58, 74
7, 143528, Note_off_c, 6, 58, 74
7, 143528, Note_off_c, 6, 65, 71
7, 143528, Note_off_c, 6, 63, 68
7, 143588, Control_c, 6, 64, 127
7, 143616, Note_on_c, 6, 62, 93
7, 143616, Note_on_c, 6, 65, 86
7, 143616, Note_on_c, 6, 58, 92
7, 143624, Note_off_c, 6, 58, 92
7, 143624, Note_off_c, 6, 65, 86
7, 143624, Note_off_c, 6, 62, 93
7, 143652, Control_c, 6, 64, 0
7, 143796, Control_c, 6, 64, 127
7, 143808, Note_on_c, 6, 58, 94
7, 143808, Note_on_c, 6, 62, 90
7, 143808, Note_on_c, 6, 65, 82
7, 143816, Note_off_c, 6, 65, 82
7, 143816, Note_off_c, 6, 62, 90
7, 143816, Note_off_c, 6, 58, 94
7, 144192, Note_on_c, 6, 62, 86
7, 144192, Note_on_c, 6, 58, 80
7, 144192, Note_on_c, 6, 65, 75
7, 144200, Note_off_c, 6, 65, 75
7, 144200, Note_off_c, 6, 58, 80
7, 144200, Note_off_c, 6, 62, 86
7, 144208, Control_c, 6, 64, 0
7, 144348, Control_c, 6, 64, 127
7, 144384, Note_on_c, 6, 58, 93
7, 144384, Note_on_c, 6, 65, 91
7, 144384, Note_on_c, 6, 63, 90
7, 144392, Note_off_c, 6, 63, 90
7, 144392, Note_off_c, 6, 65, 91
7, 144392, Note_off_c, 6, 58, 93
7, 144768, Note_on_c, 6, 65, 94
7, 144768, Note_on_c, 6, 58, 89
7, 144768, Note_on_c, 6, 63, 83
7, 144776, Note_off_c, 6, 63, 83
7, 144776, Note_off_c, 6, 58, 89
7, 144776, Note_off_c, 6, 65, 94
7, 145028, Control_c, 6, 64, 0
7, 145056, Note_on_c, 6, 63, 81
7, 145056, Note_on_c, 6, 65, 85
7, 145056, Note_on_c, 6, 58, 70
7, 145064, Note_off_c, 6, 58, 70
7, 145064, Note_off_c, 6, 65, 85
7, 145064, Note_off_c, 6, 63, 81
7, 145152, Note_on_c, 6, 58, 73
7, 145152, Note_on_c, 6, 65, 79
7, 145152, Note_on_c, 6, 62, 86
7, 145160, Note_off_c, 6, 62, 86
7, 145160, Note_off_c, 6, 65, 79
7, 145160, Note_off_c, 6, 58, 73
7, 145160, Control_c, 6, 64, 127
7, 145200, Control_c, 6, 64, 0
7, 145324, Control_c, 6, 64, 127
7, 145344, Note_on_c, 6, 62, 91
7, 145344, Note_on_c, 6, 65, 87
7, 145344, Note_on_c, 6, 58, 92
7, 145352, Note_off_c, 6, 58, 92
7, 145352, Note_off_c, 6, 65, 87
7, 145352, Note_off_c, 6, 62, 91
7, 145536, Note_on_c, 6, 65, 81
7, 145536, Note_on_c, 6, 58, 79
7, 145536, Note_on_c, 6, 62, 69
7, 145544, Note_off_c, 6, 62, 69
7, 145544, Note_off_c, 6, 58, 79
7, 145544, Note_off_c, 6, 65, 81
7, 145728, Note_on_c, 6, 58, 90
7, 145728, Note_on_c, 6, 65, 88
7, 145728, Note_on_c, 6, 62, 80
7, 145732, Control_c, 6, 64, 0
7, 145736, Note_off_c, 6, 62, 80
7, 145736, Note_off_c, 6, 65, 88
7, 145736, Note_off_c, 6, 58, 90
7, 145892, Control_c, 6, 64, 127
7, 145920, Note_on_c, 6, 67, 103
7, 145920, Note_on_c, 6, 60, 98
7, 145920, Note_on_c, 6, 63, 95
7, 145920, Note_on_c, 6, 72, 96
7, 145928, Note_off_c, 6, 72, 96
7, 145928, Note_off_c, 6, 63, 95
7, 145928, Note_off_c, 6, 60, 98
7, 145928, Note_off_c, 6, 67, 103
7, 146112, Note_on_c, 6, 60, 88
7, 146112, Note_on_c, 6, 67, 90
7, 146112, Note_on_c, 6, 63, 78
7, 146112, Note_on_c, 6, 72, 75
7, 146120, Note_off_c, 6, 72, 75
7, 146120, Note_off_c, 6, 63, 78
7, 146120, Note_off_c, 6, 67, 90
7, 146120, Note_off_c, 6, 60, 88
7, 146208, Note_on_c, 6, 67, 87
7, 146208, Note_on_c, 6, 63, 80
7, 146208, Note_on_c, 6, 72, 89
7, 146208, Note_on_c, 6, 60, 79
7, 146216, Note_off_c, 6, 60, 79
7, 146216, Note_off_c, 6, 72, 89
7, 146216, Note_off_c, 6, 63, 80
7, 146216, Note_off_c, 6, 67, 87
7, 146304, Note_on_c, 6, 72, 78
7, 146304, Note_on_c, 6, 63, 74
7, 146304, Note_on_c, 6, 67, 96
7, 146304, Note_on_c, 6, 60, 92
7, 146312, Note_off_c, 6, 60, 92
7, 146312, Note_off_c, 6, 67, 96
7, 146312, Note_off_c, 6, 63, 74
7, 146312, Note_off_c, 6, 72, 78
7, 146372, Control_c, 6, 64, 0
7, 146496, Note_on_c, 6, 67, 100
7, 146496, Note_on_c, 6, 63, 94
7, 146496, Note_on_c, 6, 72, 100
7, 146496, Note_on_c, 6, 60, 94
7, 146500, Control_c, 6, 64, 127
7, 146504, Note_off_c, 6, 60, 94
7, 146504, Note_off_c, 6, 72, 100
7, 146504, Note_off_c, 6, 63, 94
7, 146504, Note_off_c, 6, 67, 100
7, 146880, Note_on_c, 6, 63, 87
7, 146880, Note_on_c, 6, 67, 95
7, 146880, Note_on_c, 6, 60, 84
7, 146880, Note_on_c, 6, 72, 86
7, 146888, Note_off_c, 6, 72, 86
7, 146888, Note_off_c, 6, 60, 84
7, 146888, Note_off_c, 6, 67, 95
7, 146888, Note_off_c, 6, 63, 87
7, 147072, Note_on_c, 6, 60, 91
7, 147072, Note_on_c, 6, 63, 88
7, 147072, Note_on_c, 6, 67, 93
7, 147072, Note_on_c, 6, 72, 92
7, 147080, Note_off_c, 6, 72, 92
7, 147080, Note_off_c, 6, 67, 93
7, 147080, Note_off_c, 6, 63, 88
7, 147080, Note_off_c, 6, 60, 91
7, 147256, Control_c, 6, 64, 0
7, 147264, Note_on_c, 6, 60, 87
7, 147264, Note_on_c, 6, 67, 97
7, 147264, Note_on_c, 6, 63, 85
7, 147264, Note_on_c, 6, 72, 84
7, 147272, Note_off_c, 6, 72, 84
7, 147272, Note_off_c, 6, 63, 85
7, 147272, Note_off_c, 6, 67, 97
7, 147272, Note_off_c, 6, 60, 87
7, 147432, Control_c, 6, 64, 127
7, 147456, Note_on_c, 6, 72, 96
7, 147456, Note_on_c, 6, 63, 79
7, 147456, Note_on_c, 6, 56, 97
7, 147456, Note_on_c, 6, 68, 74
7, 147464, Note_off_c, 6, 68, 74
7, 147464, Note_off_c, 6, 56, 97
7, 147464, Note_off_c, 6, 63, 79
7, 147464, Note_off_c, 6, 72, 96
7, 147648, Note_on_c, 6, 56, 81
7, 147648, Note_on_c, 6, 63, 68
7, 147648, Note_on_c, 6, 68, 77
7, 147648, Note_on_c, 6, 72, 67
7, 147656, Note_off_c, 6, 72, 67
7, 147656, Note_off_c, 6, 68, 77
7, 147656, Note_off_c, 6, 63, 68
7, 147656, Note_off_c, 6, 56, 81
7, 147744, Note_on_c, 6, 72, 90
7, 147744, Note_on_c, 6, 63, 86
7, 147744, Note_on_c, 6, 56, 78
7, 147744, Note_on_c, 6, 68, 80
7, 147752, Note_off_c, 6, 68, 80
7, 147752, Note_off_c, 6, 56, 78
7, 147752, Note_off_c, 6, 63, 86
7, 147752, Note_off_c, 6, 72, 90
7, 147812, Control_c, 6, 64, 0
7, 147840, Note_on_c, 6, 63, 73
7, 147840, Note_on_c, 6, 72, 79
7, 147840, Note_on_c, 6, 56, 93
7, 147840, Note_on_c, 6, 68, 82
7, 147848, Note_off_c, 6, 68, 82
7, 147848, Note_off_c, 6, 56, 93
7, 147848, Note_off_c, 6, 72, 79
7, 147848, Note_off_c, 6, 63, 73
7, 148020, Control_c, 6, 64, 127
7, 148032, Note_on_c, 6, 67, 96
7, 148032, Note_on_c, 6, 71, 95
7, 148032, Note_on_c, 6, 55, 94
7, 148032, Note_on_c, 6, 62, 83
7, 148040, Note_off_c, 6, 62, 83
7, 148040, Note_off_c, 6, 55, 94
7, 148040, Note_off_c, 6, 71, 95
7, 148040, Note_off_c, 6, 67, 96
7, 148416, Note_on_c, 6, 62, 85
7, 148416, Note_on_c, 6, 71, 87
7, 148416, Note_on_c, 6, 55, 96
7, 148416, Note_on_c, 6, 67, 80
7, 148424, Note_off_c, 6, 67, 80
7, 148424, Note_off_c, 6, 55, 96
7, 148424, Note_off_c, 6, 71, 87
7, 148424, Note_off_c, 6, 62, 85
7, 148608, Note_on_c, 6, 71, 91
7, 148608, Note_on_c, 6, 55, 96
7, 148608, Note_on_c, 6, 62, 80
7, 148608, Note_on_c, 6, 67, 78
7, 148616, Note_off_c, 6, 67, 78
7, 148616, Note_off_c, 6, 62, 80
7, 148616, Note_off_c, 6, 55, 96
7, 148616, Note_off_c, 6, 71, 91
7, 148800, Note_on_c, 6, 71, 91
7, 148800, Note_on_c, 6, 55, 100
7, 148800, Note_on_c, 6, 62, 82
7, 148800, Note_on_c, 6, 67, 76
7, 148808, Note_off_c, 6, 67, 76
7, 148808, Note_off_c, 6, 62, 82
7, 148808, Note_off_c, 6, 55, 100
7, 148808, Note_off_c, 6, 71, 91
7, 148936, Control_c, 6, 64, 0
7, 148992, Control_c, 6, 64, 127
7, 148992, Note_on_c, 6, 67, 101
7, 148992, Note_on_c, 6, 63, 94
7, 148992, Note_on_c, 6, 72, 94
7, 148993, Note_off_c, 6, 72, 94
7, 149032, Note_off_c, 6, 63, 94
7, 149032, Note_off_c, 6, 67, 101
7, 149088, Note_on_c, 6, 67, 95
7, 149088, Note_on_c, 6, 72, 76
7, 149088, Note_on_c, 6, 63, 68
7, 149124, Note_off_c, 6, 63, 68
7, 149124, Note_off_c, 6, 67, 95
7, 149128, Note_off_c, 6, 72, 76
7, 149184, Note_on_c, 6, 72, 68
7, 149184, Note_on_c, 6, 67, 82
7, 149184, Note_on_c, 6, 63, 68
7, 149220, Note_off_c, 6, 63, 68
7, 149220, Note_off_c, 6, 67, 82
7, 149224, Note_off_c, 6, 72, 68
7, 149280, Note_on_c, 6, 72, 75
7, 149280, Note_on_c, 6, 63, 75
7, 149280, Note_on_c, 6, 67, 76
7, 149300, Note_off_c, 6, 67, 76
7, 149316, Note_off_c, 6, 63, 75
7, 149316, Note_off_c, 6, 72, 75
7, 149376, Note_on_c, 6, 67, 84
7, 149376, Note_on_c, 6, 63, 72
7, 149376, Note_on_c, 6, 72, 69
7, 149400, Note_off_c, 6, 72, 69
7, 149408, Note_off_c, 6, 67, 84
7, 149412, Note_off_c, 6, 63, 72
7, 149472, Note_on_c, 6, 63, 79
7, 149472, Note_on_c, 6, 67, 88
7, 149472, Note_on_c, 6, 72, 79
7, 149504, Note_off_c, 6, 72, 79
7, 149508, Note_off_c, 6, 67, 88
7, 149512, Note_off_c, 6, 63, 79
7, 149568, Note_on_c, 6, 63, 83
7, 149568, Note_on_c, 6, 67, 90
7, 149568, Note_on_c, 6, 72, 85
7, 149604, Note_off_c, 6, 67, 90
7, 149604, Note_off_c, 6, 63, 83
7, 149608, Note_off_c, 6, 72, 85
7, 149664, Note_on_c, 6, 67, 91
7, 149664, Note_on_c, 6, 72, 69
7, 149664, Note_on_c, 6, 63, 72
7, 149700, Note_off_c, 6, 63, 72
7, 149704, Note_off_c, 6, 72, 69
7, 149704, Note_off_c, 6, 67, 91
7, 149760, Note_on_c, 6, 67, 86
7, 149760, Note_on_c, 6, 63, 69
7, 149760, Note_on_c, 6, 72, 72
7, 149784, Note_off_c, 6, 72, 72
7, 149792, Note_off_c, 6, 63, 69
7, 149796, Note_off_c, 6, 67, 86
7, 149856, Note_on_c, 6, 67, 77
7, 149856, Note_on_c, 6, 72, 63
7, 149856, Note_on_c, 6, 63, 69
7, 149880, Note_off_c, 6, 72, 63
7, 149884, Note_off_c, 6, 63, 69
7, 149892, Note_off_c, 6, 67, 77
7, 149952, Note_on_c, 6, 67, 80
7, 149952, Note_on_c, 6, 63, 69
7, 149952, Note_on_c, 6, 72, 55
7, 149976, Note_off_c, 6, 72, 55
7, 149984, Note_off_c, 6, 63, 69
7, 149988, Note_off_c, 6, 67, 80
7, 150048, Note_on_c, 6, 63, 69
7, 150048, Note_on_c, 6, 67, 83
7, 150048, Note_on_c, 6, 72, 69
7, 150072, Note_off_c, 6, 72, 69
7, 150080, Note_off_c, 6, 67, 83
7, 150080, Note_off_c, 6, 63, 69
7, 150144, Note_on_c, 6, 63, 84
7, 150144, Note_on_c, 6, 67, 91
7, 150144, Note_on_c, 6, 72, 88
7, 150176, Note_off_c, 6, 67, 91
7, 150180, Note_off_c, 6, 63, 84
7, 150184, Note_off_c, 6, 72, 88
7, 150240, Note_on_c, 6, 67, 87
7, 150240, Note_on_c, 6, 72, 66
7, 150240, Note_on_c, 6, 63, 78
7, 150272, Note_off_c, 6, 67, 87
7, 150276, Note_off_c, 6, 63, 78
7, 150276, Note_off_c, 6, 72, 66
7, 150336, Note_on_c, 6, 63, 71
7, 150336, Note_on_c, 6, 67, 77
7, 150336, Note_on_c, 6, 72, 68
7, 150360, Note_off_c, 6, 72, 68
7, 150368, Note_off_c, 6, 67, 77
7, 150372, Note_off_c, 6, 63, 71
7, 150432, Note_on_c, 6, 63, 78
7, 150432, Note_on_c, 6, 67, 88
7, 150432, Note_on_c, 6, 72, 73
7, 150460, Note_off_c, 6, 72, 73
7, 150464, Note_off_c, 6, 67, 88
7, 150468, Note_off_c, 6, 63, 78
7, 150504, Control_c, 6, 64, 0
7, 150528, Control_c, 6, 64, 127
7, 150528, Note_on_c, 6, 67, 101
7, 150528, Note_on_c, 6, 63, 94
7, 150528, Note_on_c, 6, 72, 94
7, 150529, Note_off_c, 6, 72, 94
7, 150568, Note_off_c, 6, 63, 94
7, 150568, Note_off_c, 6, 67, 101
7, 150624, Note_on_c, 6, 67, 95
7, 150624, Note_on_c, 6, 72, 76
7, 150624, Note_on_c, 6, 63, 68
7, 150660, Note_off_c, 6, 63, 68
7, 150660, Note_off_c, 6, 67, 95
7, 150664, Note_off_c, 6, 72, 76
7, 150720, Note_on_c, 6, 72, 68
7, 150720, Note_on_c, 6, 67, 82
7, 150720, Note_on_c, 6, 63, 68
7, 150756, Note_off_c, 6, 63, 68
7, 150756, Note_off_c, 6, 67, 82
7, 150760, Note_off_c, 6, 72, 68
7, 150816, Note_on_c, 6, 72, 75
7, 150816, Note_on_c, 6, 63, 75
7, 150816, Note_on_c, 6, 67, 76
7, 150836, Note_off_c, 6, 67, 76
7, 150852, Note_off_c, 6, 63, 75
7, 150852, Note_off_c, 6, 72, 75
7, 150912, Note_on_c, 6, 67, 84
7, 150912, Note_on_c, 6, 63, 72
7, 150912, Note_on_c, 6, 72, 69
7, 150936, Note_off_c, 6, 72, 69
7, 150944, Note_off_c, 6, 67, 84
7, 150948, Note_off_c, 6, 63, 72
7, 151008, Note_on_c, 6, 63, 79
7, 151008, Note_on_c, 6, 67, 88
7, 151008, Note_on_c, 6, 72, 79
7, 151040, Note_off_c, 6, 72, 79
7, 151044, Note_off_c, 6, 67, 88
7, 151048, Note_off_c, 6, 63, 79
7, 151104, Note_on_c, 6, 63, 83
7, 151104, Note_on_c, 6, 67, 90
7, 151104, Note_on_c, 6, 72, 85
7, 151140, Note_off_c, 6, 67, 90
7, 151140, Note_off_c, 6, 63, 83
7, 151144, Note_off_c, 6, 72, 85
7, 151200, Note_on_c, 6, 67, 91
7, 151200, Note_on_c, 6, 72, 69
7, 151200, Note_on_c, 6, 63, 72
7, 151236, Note_off_c, 6, 63, 72
7, 151240, Note_off_c, 6, 72, 69
7, 151240, Note_off_c, 6, 67, 91
7, 151296, Note_on_c, 6, 67, 86
7, 151296, Note_on_c, 6, 63, 69
7, 151296, Note_on_c, 6, 72, 72
7, 151320, Note_off_c, 6, 72, 72
7, 151328, Note_off_c, 6, 63, 69
7, 151332, Note_off_c, 6, 67, 86
7, 151392, Note_on_c, 6, 67, 77
7, 151392, Note_on_c, 6, 72, 63
7, 151392, Note_on_c, 6, 63, 69
7, 151416, Note_off_c, 6, 72, 63
7, 151420, Note_off_c, 6, 63, 69
7, 151428, Note_off_c, 6, 67, 77
7, 151488, Note_on_c, 6, 67, 80
7, 151488, Note_on_c, 6, 63, 69
7, 151488, Note_on_c, 6, 72, 55
7, 151512, Note_off_c, 6, 72, 55
7, 151520, Note_off_c, 6, 63, 69
7, 151524, Note_off_c, 6, 67, 80
7, 151584, Note_on_c, 6, 63, 69
7, 151584, Note_on_c, 6, 67, 83
7, 151584, Note_on_c, 6, 72, 69
7, 151608, Note_off_c, 6, 72, 69
7, 151616, Note_off_c, 6, 67, 83
7, 151616, Note_off_c, 6, 63, 69
7, 151680, Note_on_c, 6, 63, 84
7, 151680, Note_on_c, 6, 67, 91
7, 151680, Note_on_c, 6, 72, 88
7, 151712, Note_off_c, 6, 67, 91
7, 151716, Note_off_c, 6, 63, 84
7, 151720, Note_off_c, 6, 72, 88
7, 151776, Note_on_c, 6, 67, 87
7, 151776, Note_on_c, 6, 72, 66
7, 151776, Note_on_c, 6, 63, 78
7, 151808, Note_off_c, 6, 67, 87
7, 151812, Note_off_c, 6, 63, 78
7, 151812, Note_off_c, 6, 72, 66
7, 151872, Note_on_c, 6, 63, 71
7, 151872, Note_on_c, 6, 67, 77
7, 151872, Note_on_c, 6, 72, 68
7, 151896, Note_off_c, 6, 72, 68
7, 151904, Note_off_c, 6, 67, 77
7, 151908, Note_off_c, 6, 63, 71
7, 151968, Note_on_c, 6, 63, 78
7, 151968, Note_on_c, 6, 67, 88
7, 151968, Note_on_c, 6, 72, 73
7, 151996, Note_off_c, 6, 72, 73
7, 152000, Note_off_c, 6, 67, 88
7, 152004, Note_off_c, 6, 63, 78
7, 152040, Control_c, 6, 64, 0
7, 152064, Control_c, 6, 64, 127
7, 152064, Note_on_c, 6, 63, 86
7, 152064, Note_on_c, 6, 72, 94
7, 152064, Note_on_c, 6, 68, 79
7, 152065, Note_off_c, 6, 72, 94
7, 152092, Note_off_c, 6, 68, 79
7, 152100, Note_off_c, 6, 63, 86
7, 152160, Note_on_c, 6, 72, 64
7, 152160, Note_on_c, 6, 63, 72
7, 152160, Note_on_c, 6, 68, 70
7, 152188, Note_off_c, 6, 68, 70
7, 152196, Note_off_c, 6, 63, 72
7, 152196, Note_off_c, 6, 72, 64
7, 152256, Note_on_c, 6, 68, 63
7, 152256, Note_on_c, 6, 72, 45
7, 152256, Note_on_c, 6, 63, 72
7, 152280, Note_off_c, 6, 72, 45
7, 152288, Note_off_c, 6, 63, 72
7, 152300, Note_off_c, 6, 68, 63
7, 152352, Note_on_c, 6, 68, 82
7, 152352, Note_on_c, 6, 63, 73
7, 152388, Note_off_c, 6, 63, 73
7, 152396, Note_off_c, 6, 68, 82
7, 152448, Note_on_c, 6, 63, 78
7, 152448, Note_on_c, 6, 68, 76
7, 152448, Note_on_c, 6, 72, 55
7, 152476, Note_off_c, 6, 72, 55
7, 152484, Note_off_c, 6, 63, 78
7, 152488, Note_off_c, 6, 68, 76
7, 152544, Note_on_c, 6, 63, 77
7, 152544, Note_on_c, 6, 68, 70
7, 152544, Note_on_c, 6, 72, 61
7, 152568, Note_off_c, 6, 72, 61
7, 152572, Note_off_c, 6, 63, 77
7, 152576, Note_off_c, 6, 68, 70
7, 152640, Note_on_c, 6, 63, 83
7, 152640, Note_on_c, 6, 68, 84
7, 152640, Note_on_c, 6, 72, 66
7, 152664, Note_off_c, 6, 72, 66
7, 152676, Note_off_c, 6, 63, 83
7, 152684, Note_off_c, 6, 68, 84
7, 152736, Note_on_c, 6, 63, 74
7, 152736, Note_on_c, 6, 68, 77
7, 152736, Note_on_c, 6, 72, 65
7, 152764, Note_off_c, 6, 72, 65
7, 152776, Note_off_c, 6, 68, 77
7, 152776, Note_off_c, 6, 63, 74
7, 152832, Note_on_c, 6, 63, 69
7, 152832, Note_on_c, 6, 68, 62
7, 152832, Note_on_c, 6, 72, 46
7, 152856, Note_off_c, 6, 72, 46
7, 152864, Note_off_c, 6, 68, 62
7, 152872, Note_off_c, 6, 63, 69
7, 152928, Note_on_c, 6, 63, 72
7, 152928, Note_on_c, 6, 68, 66
7, 152928, Note_on_c, 6, 72, 49
7, 152952, Note_off_c, 6, 72, 49
7, 152960, Note_off_c, 6, 68, 66
7, 152968, Note_off_c, 6, 63, 72
7, 153024, Note_on_c, 6, 63, 79
7, 153024, Note_on_c, 6, 68, 73
7, 153024, Note_on_c, 6, 72, 66
7, 153056, Note_off_c, 6, 72, 66
7, 153060, Note_off_c, 6, 68, 73
7, 153060, Note_off_c, 6, 63, 79
7, 153120, Note_on_c, 6, 63, 80
7, 153120, Note_on_c, 6, 68, 76
7, 153120, Note_on_c, 6, 72, 63
7, 153148, Note_off_c, 6, 72, 63
7, 153160, Note_off_c, 6, 63, 80
7, 153164, Note_off_c, 6, 68, 76
7, 153216, Note_on_c, 6, 63, 78
7, 153216, Note_on_c, 6, 68, 66
7, 153216, Note_on_c, 6, 72, 63
7, 153248, Note_off_c, 6, 72, 63
7, 153252, Note_off_c, 6, 68, 66
7, 153252, Note_off_c, 6, 63, 78
7, 153312, Note_on_c, 6, 63, 73
7, 153312, Note_on_c, 6, 68, 80
7, 153312, Note_on_c, 6, 72, 71
7, 153340, Note_off_c, 6, 72, 71
7, 153344, Note_off_c, 6, 68, 80
7, 153344, Note_off_c, 6, 63, 73
7, 153408, Note_on_c, 6, 68, 77
7, 153408, Note_on_c, 6, 63, 75
7, 153408, Note_on_c, 6, 72, 31
7, 153432, Note_off_c, 6, 72, 31
7, 153440, Note_off_c, 6, 63, 75
7, 153452, Note_off_c, 6, 68, 77
7, 153504, Note_on_c, 6, 68, 74
7, 153504, Note_on_c, 6, 72, 61
7, 153504, Note_on_c, 6, 63, 57
7, 153540, Note_off_c, 6, 63, 57
7, 153544, Note_off_c, 6, 68, 74
7, 153548, Note_off_c, 6, 72, 61
7, 153576, Control_c, 6, 64, 0
7, 153600, Control_c, 6, 64, 127
7, 153600, Note_on_c, 6, 62, 96
7, 153600, Note_on_c, 6, 72, 90
7, 153600, Note_on_c, 6, 67, 95
7, 153632, Note_off_c, 6, 67, 95
7, 153632, Note_off_c, 6, 62, 96
7, 153644, Note_off_c, 6, 72, 90
7, 153696, Note_on_c, 6, 67, 76
7, 153696, Note_on_c, 6, 72, 42
7, 153696, Note_on_c, 6, 62, 80
7, 153724, Note_off_c, 6, 62, 80
7, 153724, Note_off_c, 6, 72, 42
7, 153728, Note_off_c, 6, 67, 76
7, 153792, Note_on_c, 6, 62, 80
7, 153792, Note_on_c, 6, 72, 81
7, 153792, Note_on_c, 6, 67, 87
7, 153824, Note_off_c, 6, 67, 87
7, 153824, Note_off_c, 6, 62, 80
7, 153832, Note_off_c, 6, 72, 81
7, 153888, Note_on_c, 6, 62, 76
7, 153888, Note_on_c, 6, 67, 83
7, 153888, Note_on_c, 6, 72, 71
7, 153916, Note_off_c, 6, 72, 71
7, 153920, Note_off_c, 6, 67, 83
7, 153920, Note_off_c, 6, 62, 76
7, 153984, Note_on_c, 6, 62, 80
7, 153984, Note_on_c, 6, 72, 72
7, 153984, Note_on_c, 6, 67, 73
7, 154012, Note_off_c, 6, 67, 73
7, 154016, Note_off_c, 6, 62, 80
7, 154024, Note_off_c, 6, 72, 72
7, 154080, Note_on_c, 6, 62, 80
7, 154080, Note_on_c, 6, 67, 79
7, 154080, Note_on_c, 6, 72, 62
7, 154108, Note_off_c, 6, 67, 79
7, 154112, Note_off_c, 6, 72, 62
7, 154116, Note_off_c, 6, 62, 80
7, 154128, Control_c, 6, 64, 0
7, 154176, Control_c, 6, 64, 127
7, 154176, Note_on_c, 6, 71, 74
7, 154176, Note_on_c, 6, 62, 84
7, 154176, Note_on_c, 6, 67, 84
7, 154208, Note_off_c, 6, 67, 84
7, 154208, Note_off_c, 6, 62, 84
7, 154208, Note_off_c, 6, 71, 74
7, 154272, Note_on_c, 6, 71, 64
7, 154272, Note_on_c, 6, 62, 90
7, 154272, Note_on_c, 6, 67, 83
7, 154273, Note_off_c, 6, 71, 64
7, 154296, Note_off_c, 6, 67, 83
7, 154304, Note_off_c, 6, 62, 90
7, 154368, Note_on_c, 6, 62, 85
7, 154368, Note_on_c, 6, 71, 98
7, 154368, Note_on_c, 6, 67, 78
7, 154392, Note_off_c, 6, 67, 78
7, 154400, Note_off_c, 6, 62, 85
7, 154408, Note_off_c, 6, 71, 98
7, 154464, Note_on_c, 6, 62, 84
7, 154464, Note_on_c, 6, 67, 89
7, 154464, Note_on_c, 6, 71, 75
7, 154500, Note_off_c, 6, 67, 89
7, 154500, Note_off_c, 6, 62, 84
7, 154504, Note_off_c, 6, 71, 75
7, 154560, Note_on_c, 6, 62, 87
7, 154560, Note_on_c, 6, 71, 83
7, 154560, Note_on_c, 6, 67, 90
7, 154592, Note_off_c, 6, 62, 87
7, 154600, Note_off_c, 6, 67, 90
7, 154600, Note_off_c, 6, 71, 83
7, 154656, Note_on_c, 6, 62, 86
7, 154656, Note_on_c, 6, 67, 73
7, 154656, Note_on_c, 6, 71, 56
7, 154684, Note_off_c, 6, 71, 56
7, 154684, Note_off_c, 6, 67, 73
7, 154688, Note_off_c, 6, 62, 86
7, 154752, Note_on_c, 6, 62, 87
7, 154752, Note_on_c, 6, 67, 76
7, 154752, Note_on_c, 6, 71, 69
7, 154780, Note_off_c, 6, 71, 69
7, 154784, Note_off_c, 6, 67, 76
7, 154784, Note_off_c, 6, 62, 87
7, 154848, Note_on_c, 6, 67, 78
7, 154848, Note_on_c, 6, 62, 85
7, 154848, Note_on_c, 6, 71, 65
7, 154868, Note_off_c, 6, 71, 65
7, 154880, Note_off_c, 6, 62, 85
7, 154880, Note_off_c, 6, 67, 78
7, 154944, Note_on_c, 6, 62, 82
7, 154944, Note_on_c, 6, 67, 81
7, 154944, Note_on_c, 6, 71, 25
7, 154960, Note_off_c, 6, 71, 25
7, 154976, Note_off_c, 6, 67, 81
7, 154976, Note_off_c, 6, 62, 82
7, 155040, Note_on_c, 6, 62, 89
7, 155040, Note_on_c, 6, 71, 83
7, 155040, Note_on_c, 6, 67, 85
7, 155068, Note_off_c, 6, 67, 85
7, 155072, Note_off_c, 6, 62, 89
7, 155080, Note_off_c, 6, 71, 83
7, 155088, Control_c, 6, 64, 0
7, 155136, Control_c, 6, 64, 127
7, 155136, Note_on_c, 6, 63, 95
7, 155136, Note_on_c, 6, 67, 86
7, 155136, Note_on_c, 6, 72, 84
7, 155172, Note_off_c, 6, 63, 95
7, 155180, Note_off_c, 6, 72, 84
7, 155180, Note_off_c, 6, 67, 86
7, 155232, Note_on_c, 6, 63, 84
7, 155232, Note_on_c, 6, 72, 83
7, 155232, Note_on_c, 6, 67, 80
7, 155260, Note_off_c, 6, 67, 80
7, 155268, Note_off_c, 6, 72, 83
7, 155268, Note_off_c, 6, 63, 84
7, 155328, Note_on_c, 6, 63, 89
7, 155328, Note_on_c, 6, 67, 103
7, 155328, Note_on_c, 6, 72, 86
7, 155344, Note_off_c, 6, 72, 86
7, 155360, Note_off_c, 6, 63, 89
7, 155364, Note_off_c, 6, 67, 103
7, 155424, Note_on_c, 6, 67, 89
7, 155424, Note_on_c, 6, 72, 77
7, 155424, Note_on_c, 6, 63, 78
7, 155448, Note_off_c, 6, 72, 77
7, 155452, Note_off_c, 6, 63, 78
7, 155452, Note_off_c, 6, 67, 89
7, 155520, Note_on_c, 6, 63, 86
7, 155520, Note_on_c, 6, 67, 90
7, 155520, Note_on_c, 6, 72, 56
7, 155540, Note_off_c, 6, 72, 56
7, 155548, Note_off_c, 6, 67, 90
7, 155556, Note_off_c, 6, 63, 86
7, 155616, Note_on_c, 6, 67, 90
7, 155616, Note_on_c, 6, 63, 84
7, 155616, Note_on_c, 6, 72, 75
7, 155644, Note_off_c, 6, 72, 75
7, 155648, Note_off_c, 6, 67, 90
7, 155652, Note_off_c, 6, 63, 84
7, 155712, Note_on_c, 6, 63, 87
7, 155712, Note_on_c, 6, 67, 98
7, 155712, Note_on_c, 6, 72, 81
7, 155748, Note_off_c, 6, 72, 81
7, 155748, Note_off_c, 6, 63, 87
7, 155752, Note_off_c, 6, 67, 98
7, 155808, Note_on_c, 6, 63, 77
7, 155808, Note_on_c, 6, 67, 84
7, 155808, Note_on_c, 6, 72, 61
7, 155840, Note_off_c, 6, 72, 61
7, 155844, Note_off_c, 6, 67, 84
7, 155844, Note_off_c, 6, 63, 77
7, 155904, Note_on_c, 6, 63, 80
7, 155904, Note_on_c, 6, 67, 81
7, 155904, Note_on_c, 6, 72, 71
7, 155928, Note_off_c, 6, 72, 71
7, 155936, Note_off_c, 6, 67, 81
7, 155940, Note_off_c, 6, 63, 80
7, 156000, Note_on_c, 6, 63, 81
7, 156000, Note_on_c, 6, 67, 73
7, 156000, Note_on_c, 6, 72, 57
7, 156024, Note_off_c, 6, 72, 57
7, 156032, Note_off_c, 6, 67, 73
7, 156036, Note_off_c, 6, 63, 81
7, 156096, Note_on_c, 6, 67, 80
7, 156096, Note_on_c, 6, 63, 83
7, 156096, Note_on_c, 6, 72, 61
7, 156120, Note_off_c, 6, 72, 61
7, 156132, Note_off_c, 6, 63, 83
7, 156132, Note_off_c, 6, 67, 80
7, 156192, Note_on_c, 6, 63, 77
7, 156192, Note_on_c, 6, 67, 92
7, 156192, Note_on_c, 6, 72, 76
7, 156220, Note_off_c, 6, 72, 76
7, 156224, Note_off_c, 6, 67, 92
7, 156224, Note_off_c, 6, 63, 77
7, 156288, Note_on_c, 6, 63, 85
7, 156288, Note_on_c, 6, 67, 90
7, 156288, Note_on_c, 6, 72, 83
7, 156289, Note_off_c, 6, 67, 90
7, 156324, Note_off_c, 6, 63, 85
7, 156328, Note_off_c, 6, 72, 83
7, 156384, Note_on_c, 6, 63, 75
7, 156384, Note_on_c, 6, 67, 79
7, 156384, Note_on_c, 6, 72, 40
7, 156408, Note_off_c, 6, 72, 40
7, 156420, Note_off_c, 6, 67, 79
7, 156420, Note_off_c, 6, 63, 75
7, 156480, Note_on_c, 6, 67, 88
7, 156480, Note_on_c, 6, 72, 74
7, 156480, Note_on_c, 6, 63, 81
7, 156512, Note_off_c, 6, 72, 74
7, 156512, Note_off_c, 6, 67, 88
7, 156516, Note_off_c, 6, 63, 81
7, 156576, Note_on_c, 6, 72, 66
7, 156576, Note_on_c, 6, 63, 69
7, 156576, Note_on_c, 6, 67, 69
7, 156600, Note_off_c, 6, 67, 69
7, 156608, Note_off_c, 6, 63, 69
7, 156612, Note_off_c, 6, 72, 66
7, 156624, Control_c, 6, 64, 0
7, 156672, Control_c, 6, 64, 127
7, 156672, Note_on_c, 6, 63, 85
7, 156672, Note_on_c, 6, 67, 95
7, 156672, Note_on_c, 6, 72, 85
7, 156708, Note_off_c, 6, 63, 85
7, 156712, Note_off_c, 6, 67, 95
7, 156716, Note_off_c, 6, 72, 85
7, 156768, Note_on_c, 6, 63, 74
7, 156768, Note_on_c, 6, 67, 80
7, 156768, Note_on_c, 6, 72, 46
7, 156796, Note_off_c, 6, 72, 46
7, 156800, Note_off_c, 6, 67, 80
7, 156804, Note_off_c, 6, 63, 74
7, 156864, Note_on_c, 6, 63, 77
7, 156864, Note_on_c, 6, 67, 70
7, 156864, Note_on_c, 6, 72, 58
7, 156888, Note_off_c, 6, 72, 58
7, 156896, Note_off_c, 6, 67, 70
7, 156900, Note_off_c, 6, 63, 77
7, 156960, Note_on_c, 6, 67, 85
7, 156960, Note_on_c, 6, 72, 65
7, 156960, Note_on_c, 6, 63, 76
7, 156992, Note_off_c, 6, 63, 76
7, 156992, Note_off_c, 6, 72, 65
7, 156996, Note_off_c, 6, 67, 85
7, 157056, Note_on_c, 6, 67, 81
7, 157056, Note_on_c, 6, 63, 76
7, 157056, Note_on_c, 6, 72, 35
7, 157080, Note_off_c, 6, 72, 35
7, 157092, Note_off_c, 6, 63, 76
7, 157092, Note_off_c, 6, 67, 81
7, 157152, Note_on_c, 6, 63, 75
7, 157152, Note_on_c, 6, 72, 76
7, 157152, Note_on_c, 6, 67, 66
7, 157172, Note_off_c, 6, 67, 66
7, 157188, Note_off_c, 6, 72, 76
7, 157188, Note_off_c, 6, 63, 75
7, 157248, Note_on_c, 6, 63, 87
7, 157248, Note_on_c, 6, 67, 90
7, 157248, Note_on_c, 6, 72, 76
7, 157284, Note_off_c, 6, 72, 76
7, 157284, Note_off_c, 6, 67, 90
7, 157284, Note_off_c, 6, 63, 87
7, 157344, Note_on_c, 6, 72, 55
7, 157344, Note_on_c, 6, 63, 77
7, 157344, Note_on_c, 6, 67, 67
7, 157376, Note_off_c, 6, 67, 67
7, 157380, Note_off_c, 6, 63, 77
7, 157380, Note_off_c, 6, 72, 55
7, 157440, Note_on_c, 6, 67, 81
7, 157440, Note_on_c, 6, 63, 83
7, 157440, Note_on_c, 6, 72, 56
7, 157468, Note_off_c, 6, 72, 56
7, 157476, Note_off_c, 6, 63, 83
7, 157476, Note_off_c, 6, 67, 81
7, 157536, Note_on_c, 6, 67, 74
7, 157536, Note_on_c, 6, 72, 46
7, 157536, Note_on_c, 6, 63, 79
7, 157560, Note_off_c, 6, 72, 46
7, 157568, Note_off_c, 6, 63, 79
7, 157572, Note_off_c, 6, 67, 74
7, 157632, Note_on_c, 6, 67, 84
7, 157632, Note_on_c, 6, 72, 74
7, 157632, Note_on_c, 6, 63, 81
7, 157660, Note_off_c, 6, 63, 81
7, 157664, Note_off_c, 6, 67, 84
7, 157668, Note_off_c, 6, 72, 74
7, 157728, Note_on_c, 6, 63, 72
7, 157728, Note_on_c, 6, 67, 68
7, 157760, Note_off_c, 6, 67, 68
7, 157760, Note_off_c, 6, 63, 72
7, 157824, Note_on_c, 6, 63, 83
7, 157824, Note_on_c, 6, 72, 79
7, 157824, Note_on_c, 6, 67, 86
7, 157856, Note_off_c, 6, 67, 86
7, 157856, Note_off_c, 6, 63, 83
7, 157864, Note_off_c, 6, 72, 79
7, 157920, Note_on_c, 6, 67, 81
7, 157920, Note_on_c, 6, 63, 79
7, 157920, Note_on_c, 6, 72, 36
7, 157944, Note_off_c, 6, 72, 36
7, 157952, Note_off_c, 6, 63, 79
7, 157960, Note_off_c, 6, 67, 81
7, 158016, Note_on_c, 6, 67, 63
7, 158016, Note_on_c, 6, 63, 71
7, 158044, Note_off_c, 6, 67, 63
7, 158048, Note_off_c, 6, 63, 71
7, 158112, Note_on_c, 6, 63, 78
7, 158112, Note_on_c, 6, 67, 75
7, 158112, Note_on_c, 6, 72, 42
7, 158140, Note_off_c, 6, 72, 42
7, 158144, Note_off_c, 6, 63, 78
7, 158152, Note_off_c, 6, 67, 75
7, 158160, Control_c, 6, 64, 0
7, 158208, Control_c, 6, 64, 127
7, 158208, Note_on_c, 6, 63, 85
7, 158208, Note_on_c, 6, 72, 96
7, 158208, Note_on_c, 6, 68, 83
7, 158209, Note_off_c, 6, 72, 96
7, 158244, Note_off_c, 6, 63, 85
7, 158252, Note_off_c, 6, 68, 83
7, 158304, Note_on_c, 6, 63, 74
7, 158304, Note_on_c, 6, 72, 76
7, 158304, Note_on_c, 6, 68, 74
7, 158336, Note_off_c, 6, 63, 74
7, 158344, Note_off_c, 6, 68, 74
7, 158344, Note_off_c, 6, 72, 76
7, 158400, Note_on_c, 6, 63, 76
7, 158400, Note_on_c, 6, 68, 69
7, 158400, Note_on_c, 6, 72, 62
7, 158432, Note_off_c, 6, 72, 62
7, 158436, Note_off_c, 6, 63, 76
7, 158440, Note_off_c, 6, 68, 69
7, 158496, Note_on_c, 6, 63, 80
7, 158496, Note_on_c, 6, 68, 81
7, 158496, Note_on_c, 6, 72, 69
7, 158524, Note_off_c, 6, 72, 69
7, 158528, Note_off_c, 6, 63, 80
7, 158536, Note_off_c, 6, 68, 81
7, 158592, Note_on_c, 6, 63, 81
7, 158592, Note_on_c, 6, 68, 73
7, 158592, Note_on_c, 6, 72, 62
7, 158624, Note_off_c, 6, 72, 62
7, 158628, Note_off_c, 6, 63, 81
7, 158636, Note_off_c, 6, 68, 73
7, 158688, Note_on_c, 6, 68, 72
7, 158688, Note_on_c, 6, 63, 72
7, 158688, Note_on_c, 6, 72, 63
7, 158716, Note_off_c, 6, 72, 63
7, 158720, Note_off_c, 6, 63, 72
7, 158728, Note_off_c, 6, 68, 72
7, 158784, Note_on_c, 6, 63, 79
7, 158784, Note_on_c, 6, 68, 77
7, 158784, Note_on_c, 6, 72, 72
7, 158785, Note_off_c, 6, 68, 77
7, 158816, Note_off_c, 6, 72, 72
7, 158820, Note_off_c, 6, 63, 79
7, 158880, Note_on_c, 6, 68, 66
7, 158880, Note_on_c, 6, 63, 76
7, 158880, Note_on_c, 6, 72, 60
7, 158908, Note_off_c, 6, 72, 60
7, 158916, Note_off_c, 6, 63, 76
7, 158924, Note_off_c, 6, 68, 66
7, 158976, Note_on_c, 6, 63, 79
7, 158976, Note_on_c, 6, 68, 74
7, 158976, Note_on_c, 6, 72, 59
7, 159000, Note_off_c, 6, 72, 59
7, 159012, Note_off_c, 6, 63, 79
7, 159016, Note_off_c, 6, 68, 74
7, 159072, Note_on_c, 6, 63, 74
7, 159072, Note_on_c, 6, 68, 62
7, 159072, Note_on_c, 6, 72, 55
7, 159100, Note_off_c, 6, 72, 55
7, 159108, Note_off_c, 6, 68, 62
7, 159108, Note_off_c, 6, 63, 74
7, 159168, Note_on_c, 6, 63, 83
7, 159168, Note_on_c, 6, 68, 74
7, 159168, Note_on_c, 6, 72, 63
7, 159192, Note_off_c, 6, 72, 63
7, 159204, Note_off_c, 6, 63, 83
7, 159208, Note_off_c, 6, 68, 74
7, 159264, Note_on_c, 6, 68, 79
7, 159264, Note_on_c, 6, 63, 79
7, 159264, Note_on_c, 6, 72, 61
7, 159288, Note_off_c, 6, 72, 61
7, 159296, Note_off_c, 6, 63, 79
7, 159304, Note_off_c, 6, 68, 79
7, 159360, Note_on_c, 6, 63, 81
7, 159360, Note_on_c, 6, 68, 74
7, 159360, Note_on_c, 6, 72, 56
7, 159384, Note_off_c, 6, 72, 56
7, 159396, Note_off_c, 6, 68, 74
7, 159396, Note_off_c, 6, 63, 81
7, 159456, Note_on_c, 6, 72, 64
7, 159456, Note_on_c, 6, 63, 79
7, 159456, Note_on_c, 6, 68, 61
7, 159484, Note_off_c, 6, 68, 61
7, 159492, Note_off_c, 6, 63, 79
7, 159492, Note_off_c, 6, 72, 64
7, 159552, Note_on_c, 6, 68, 64
7, 159552, Note_on_c, 6, 63, 80
7, 159588, Note_off_c, 6, 63, 80
7, 159588, Note_off_c, 6, 68, 64
7, 159648, Note_on_c, 6, 63, 80
7, 159648, Note_on_c, 6, 68, 80
7, 159648, Note_on_c, 6, 72, 74
7, 159680, Note_off_c, 6, 72, 74
7, 159688, Note_off_c, 6, 68, 80
7, 159688, Note_off_c, 6, 63, 80
7, 159696, Control_c, 6, 64, 0
7, 159744, Control_c, 6, 64, 127
7, 159744, Note_on_c, 6, 67, 96
7, 159744, Note_on_c, 6, 71, 91
7, 159744, Note_on_c, 6, 62, 98
7, 159776, Note_off_c, 6, 62, 98
7, 159780, Note_off_c, 6, 71, 91
7, 159780, Note_off_c, 6, 67, 96
7, 159840, Note_on_c, 6, 67, 81
7, 159840, Note_on_c, 6, 62, 89
7, 159840, Note_on_c, 6, 71, 66
7, 159872, Note_off_c, 6, 71, 66
7, 159872, Note_off_c, 6, 62, 89
7, 159876, Note_off_c, 6, 67, 81
7, 159936, Note_on_c, 6, 62, 87
7, 159936, Note_on_c, 6, 67, 80
7, 159936, Note_on_c, 6, 71, 72
7, 159964, Note_off_c, 6, 62, 87
7, 159972, Note_off_c, 6, 71, 72
7, 159972, Note_off_c, 6, 67, 80
7, 160032, Note_on_c, 6, 62, 86
7, 160032, Note_on_c, 6, 71, 80
7, 160032, Note_on_c, 6, 67, 78
7, 160060, Note_off_c, 6, 67, 78
7, 160060, Note_off_c, 6, 62, 86
7, 160072, Note_off_c, 6, 71, 80
7, 160128, Note_on_c, 6, 62, 90
7, 160128, Note_on_c, 6, 67, 85
7, 160128, Note_on_c, 6, 71, 75
7, 160156, Note_off_c, 6, 71, 75
7, 160160, Note_off_c, 6, 62, 90
7, 160164, Note_off_c, 6, 67, 85
7, 160224, Note_on_c, 6, 71, 77
7, 160224, Note_on_c, 6, 62, 84
7, 160224, Note_on_c, 6, 67, 88
7, 160252, Note_off_c, 6, 62, 84
7, 160256, Note_off_c, 6, 67, 88
7, 160256, Note_off_c, 6, 71, 77
7, 160320, Note_on_c, 6, 62, 97
7, 160320, Note_on_c, 6, 67, 88
7, 160320, Note_on_c, 6, 71, 84
7, 160352, Note_off_c, 6, 67, 88
7, 160352, Note_off_c, 6, 62, 97
7, 160364, Note_off_c, 6, 71, 84
7, 160416, Note_on_c, 6, 71, 63
7, 160416, Note_on_c, 6, 67, 79
7, 160416, Note_on_c, 6, 62, 85
7, 160448, Note_off_c, 6, 62, 85
7, 160448, Note_off_c, 6, 67, 79
7, 160456, Note_off_c, 6, 71, 63
7, 160512, Note_on_c, 6, 62, 88
7, 160512, Note_on_c, 6, 67, 79
7, 160512, Note_on_c, 6, 71, 80
7, 160540, Note_off_c, 6, 67, 79
7, 160544, Note_off_c, 6, 62, 88
7, 160548, Note_off_c, 6, 71, 80
7, 160608, Note_on_c, 6, 67, 66
7, 160608, Note_on_c, 6, 71, 58
7, 160608, Note_on_c, 6, 62, 80
7, 160636, Note_off_c, 6, 71, 58
7, 160636, Note_off_c, 6, 67, 66
7, 160640, Note_off_c, 6, 62, 80
7, 160704, Note_on_c, 6, 62, 86
7, 160704, Note_on_c, 6, 71, 84
7, 160704, Note_on_c, 6, 67, 68
7, 160724, Note_off_c, 6, 67, 68
7, 160736, Note_off_c, 6, 62, 86
7, 160740, Note_off_c, 6, 71, 84
7, 160800, Note_on_c, 6, 67, 68
7, 160800, Note_on_c, 6, 71, 62
7, 160800, Note_on_c, 6, 62, 85
7, 160824, Note_off_c, 6, 71, 62
7, 160824, Note_off_c, 6, 67, 68
7, 160828, Note_off_c, 6, 62, 85
7, 160896, Note_on_c, 6, 62, 92
7, 160896, Note_on_c, 6, 67, 81
7, 160896, Note_on_c, 6, 71, 80
7, 160924, Note_off_c, 6, 71, 80
7, 160924, Note_off_c, 6, 67, 81
7, 160928, Note_off_c, 6, 62, 92
7, 160992, Note_on_c, 6, 62, 87
7, 160992, Note_on_c, 6, 67, 75
7, 160992, Note_on_c, 6, 71, 67
7, 161012, Note_off_c, 6, 71, 67
7, 161024, Note_off_c, 6, 67, 75
7, 161024, Note_off_c, 6, 62, 87
7, 161088, Note_on_c, 6, 67, 77
7, 161088, Note_on_c, 6, 62, 86
7, 161088, Note_on_c, 6, 71, 75
7, 161120, Note_off_c, 6, 71, 75
7, 161120, Note_off_c, 6, 62, 86
7, 161120, Note_off_c, 6, 67, 77
7, 161184, Note_on_c, 6, 62, 84
7, 161184, Note_on_c, 6, 71, 65
7, 161184, Note_on_c, 6, 67, 58
7, 161212, Note_off_c, 6, 67, 58
7, 161212, Note_off_c, 6, 71, 65
7, 161216, Note_off_c, 6, 62, 84
7, 161232, Control_c, 6, 64, 0
7, 161280, Control_c, 6, 64, 127
7, 161280, Note_on_c, 6, 68, 87
7, 161280, Note_on_c, 6, 63, 93
7, 161280, Note_on_c, 6, 72, 89
7, 161284, Note_off_c, 6, 72, 89
7, 161284, Note_off_c, 6, 68, 87
7, 161320, Note_off_c, 6, 63, 93
7, 161376, Note_on_c, 6, 72, 69
7, 161376, Note_on_c, 6, 68, 74
7, 161376, Note_on_c, 6, 63, 82
7, 161412, Note_off_c, 6, 63, 82
7, 161416, Note_off_c, 6, 68, 74
7, 161420, Note_off_c, 6, 72, 69
7, 161472, Note_on_c, 6, 63, 78
7, 161472, Note_on_c, 6, 68, 71
7, 161472, Note_on_c, 6, 72, 52
7, 161500, Note_off_c, 6, 72, 52
7, 161508, Note_off_c, 6, 63, 78
7, 161512, Note_off_c, 6, 68, 71
7, 161568, Note_on_c, 6, 63, 75
7, 161568, Note_on_c, 6, 68, 68
7, 161568, Note_on_c, 6, 72, 41
7, 161596, Note_off_c, 6, 72, 41
7, 161608, Note_off_c, 6, 63, 75
7, 161612, Note_off_c, 6, 68, 68
7, 161664, Note_on_c, 6, 63, 79
7, 161664, Note_on_c, 6, 72, 76
7, 161664, Note_on_c, 6, 68, 76
7, 161665, Note_off_c, 6, 68, 76
7, 161704, Note_off_c, 6, 63, 79
7, 161712, Note_off_c, 6, 72, 76
7, 161760, Note_on_c, 6, 63, 74
7, 161760, Note_on_c, 6, 68, 66
7, 161760, Note_on_c, 6, 72, 58
7, 161788, Note_off_c, 6, 72, 58
7, 161796, Note_off_c, 6, 63, 74
7, 161800, Note_off_c, 6, 68, 66
7, 161856, Note_on_c, 6, 63, 79
7, 161856, Note_on_c, 6, 68, 60
7, 161856, Note_on_c, 6, 72, 68
7, 161888, Note_off_c, 6, 72, 68
7, 161892, Note_off_c, 6, 68, 60
7, 161892, Note_off_c, 6, 63, 79
7, 161952, Note_on_c, 6, 63, 82
7, 161952, Note_on_c, 6, 68, 64
7, 161952, Note_on_c, 6, 72, 61
7, 161980, Note_off_c, 6, 72, 61
7, 161988, Note_off_c, 6, 63, 82
7, 161996, Note_off_c, 6, 68, 64
7, 162048, Note_on_c, 6, 63, 84
7, 162048, Note_on_c, 6, 68, 77
7, 162048, Note_on_c, 6, 72, 68
7, 162084, Note_off_c, 6, 72, 68
7, 162084, Note_off_c, 6, 63, 84
7, 162092, Note_off_c, 6, 68, 77
7, 162768, Control_c, 6, 64, 0
7, 165888, Control_c, 6, 64, 127
7, 165888, Note_on_c, 6, 72, 89
7, 165888, Note_on_c, 6, 63, 89
7, 165888, Note_on_c, 6, 67, 100
7, 165888, Note_on_c, 6, 60, 96
7, 165896, Note_off_c, 6, 60, 96
7, 165896, Note_off_c, 6, 67, 100
7, 165896, Note_off_c, 6, 63, 89
7, 165896, Note_off_c, 6, 72, 89
7, 166080, Note_on_c, 6, 60, 84
7, 166080, Note_on_c, 6, 67, 88
7, 166080, Note_on_c, 6, 72, 84
7, 166080, Note_on_c, 6, 63, 71
7, 166088, Note_off_c, 6, 63, 71
7, 166088, Note_off_c, 6, 72, 84
7, 166088, Note_off_c, 6, 67, 88
7, 166088, Note_off_c, 6, 60, 84
7, 166176, Note_on_c, 6, 63, 73
7, 166176, Note_on_c, 6, 67, 81
7, 166176, Note_on_c, 6, 72, 79
7, 166176, Note_on_c, 6, 60, 76
7, 166184, Note_off_c, 6, 60, 76
7, 166184, Note_off_c, 6, 72, 79
7, 166184, Note_off_c, 6, 67, 81
7, 166184, Note_off_c, 6, 63, 73
7, 166272, Note_on_c, 6, 63, 74
7, 166272, Note_on_c, 6, 72, 79
7, 166272, Note_on_c, 6, 67, 85
7, 166272, Note_on_c, 6, 60, 82
7, 166280, Note_off_c, 6, 60, 82
7, 166280, Note_off_c, 6, 67, 85
7, 166280, Note_off_c, 6, 72, 79
7, 166280, Note_off_c, 6, 63, 74
7, 166316, Control_c, 6, 64, 0
7, 166460, Control_c, 6, 64, 127
7, 166464, Note_on_c, 6, 60, 96
7, 166464, Note_on_c, 6, 72, 96
7, 166464, Note_on_c, 6, 63, 89
7, 166464, Note_on_c, 6, 67, 93
7, 166472, Note_off_c, 6, 67, 93
7, 166472, Note_off_c, 6, 63, 89
7, 166472, Note_off_c, 6, 72, 96
7, 166472, Note_off_c, 6, 60, 96
7, 166848, Note_on_c, 6, 60, 84
7, 166848, Note_on_c, 6, 63, 82
7, 166848, Note_on_c, 6, 67, 88
7, 166848, Note_on_c, 6, 72, 88
7, 166856, Note_off_c, 6, 72, 88
7, 166856, Note_off_c, 6, 67, 88
7, 166856, Note_off_c, 6, 63, 82
7, 166856, Note_off_c, 6, 60, 84
7, 166900, Control_c, 6, 64, 0
7, 167040, Control_c, 6, 64, 127
7, 167040, Note_on_c, 6, 60, 86
7, 167040, Note_on_c, 6, 72, 79
7, 167040, Note_on_c, 6, 63, 68
7, 167040, Note_on_c, 6, 67, 84
7, 167048, Note_off_c, 6, 67, 84
7, 167048, Note_off_c, 6, 63, 68
7, 167048, Note_off_c, 6, 72, 79
7, 167048, Note_off_c, 6, 60, 86
7, 167232, Note_on_c, 6, 72, 96
7, 167232, Note_on_c, 6, 63, 88
7, 167232, Note_on_c, 6, 60, 93
7, 167232, Note_on_c, 6, 67, 81
7, 167240, Note_off_c, 6, 67, 81
7, 167240, Note_off_c, 6, 60, 93
7, 167240, Note_off_c, 6, 63, 88
7, 167240, Note_off_c, 6, 72, 96
7, 167264, Control_c, 6, 64, 0
7, 167408, Control_c, 6, 64, 127
7, 167424, Note_on_c, 6, 55, 98
7, 167424, Note_on_c, 6, 70, 83
7, 167424, Note_on_c, 6, 62, 80
7, 167424, Note_on_c, 6, 67, 78
7, 167432, Note_off_c, 6, 67, 78
7, 167432, Note_off_c, 6, 62, 80
7, 167432, Note_off_c, 6, 70, 83
7, 167432, Note_off_c, 6, 55, 98
7, 167616, Note_on_c, 6, 55, 91
7, 167616, Note_on_c, 6, 62, 72
7, 167616, Note_on_c, 6, 70, 69
7, 167616, Note_on_c, 6, 67, 63
7, 167624, Note_off_c, 6, 67, 63
7, 167624, Note_off_c, 6, 70, 69
7, 167624, Note_off_c, 6, 62, 72
7, 167624, Note_off_c, 6, 55, 91
7, 167712, Note_on_c, 6, 55, 79
7, 167712, Note_on_c, 6, 62, 71
7, 167712, Note_on_c, 6, 67, 64
7, 167712, Note_on_c, 6, 70, 49
7, 167720, Note_off_c, 6, 70, 49
7, 167720, Note_off_c, 6, 67, 64
7, 167720, Note_off_c, 6, 62, 71
7, 167720, Note_off_c, 6, 55, 79
7, 167808, Note_on_c, 6, 55, 90
7, 167808, Note_on_c, 6, 70, 64
7, 167808, Note_on_c, 6, 62, 33
7, 167808, Note_on_c, 6, 67, 37
7, 167816, Note_off_c, 6, 67, 37
7, 167816, Note_off_c, 6, 62, 33
7, 167816, Note_off_c, 6, 70, 64
7, 167816, Note_off_c, 6, 55, 90
7, 167824, Control_c, 6, 64, 0
7, 167956, Control_c, 6, 64, 127
7, 168000, Note_on_c, 6, 70, 90
7, 168000, Note_on_c, 6, 55, 98
7, 168000, Note_on_c, 6, 62, 85
7, 168000, Note_on_c, 6, 67, 74
7, 168008, Note_off_c, 6, 67, 74
7, 168008, Note_off_c, 6, 62, 85
7, 168008, Note_off_c, 6, 55, 98
7, 168008, Note_off_c, 6, 70, 90
7, 168384, Note_on_c, 6, 62, 86
7, 168384, Note_on_c, 6, 55, 90
7, 168384, Note_on_c, 6, 70, 75
7, 168384, Note_on_c, 6, 67, 75
7, 168392, Note_off_c, 6, 67, 75
7, 168392, Note_off_c, 6, 70, 75
7, 168392, Note_off_c, 6, 55, 90
7, 168392, Note_off_c, 6, 62, 86
7, 168416, Control_c, 6, 64, 0
7, 168528, Control_c, 6, 64, 127
7, 168576, Note_on_c, 6, 55, 87
7, 168576, Note_on_c, 6, 70, 79
7, 168576, Note_on_c, 6, 62, 78
7, 168576, Note_on_c, 6, 67, 75
7, 168584, Note_off_c, 6, 67, 75
7, 168584, Note_off_c, 6, 62, 78
7, 168584, Note_off_c, 6, 70, 79
7, 168584, Note_off_c, 6, 55, 87
7, 168768, Note_on_c, 6, 62, 76
7, 168768, Note_on_c, 6, 55, 97
7, 168768, Note_on_c, 6, 70, 71
7, 168768, Note_on_c, 6, 67, 68
7, 168776, Note_off_c, 6, 67, 68
7, 168776, Note_off_c, 6, 70, 71
7, 168776, Note_off_c, 6, 55, 97
7, 168776, Note_off_c, 6, 62, 76
7, 168784, Control_c, 6, 64, 0
7, 168928, Control_c, 6, 64, 127
7, 168960, Note_on_c, 6, 67, 97
7, 168960, Note_on_c, 6, 60, 92
7, 168960, Note_on_c, 6, 63, 79
7, 168960, Note_on_c, 6, 72, 90
7, 168968, Note_off_c, 6, 72, 90
7, 168968, Note_off_c, 6, 63, 79
7, 168968, Note_off_c, 6, 60, 92
7, 168968, Note_off_c, 6, 67, 97
7, 169152, Note_on_c, 6, 60, 79
7, 169152, Note_on_c, 6, 67, 87
7, 169152, Note_on_c, 6, 72, 84
7, 169152, Note_on_c, 6, 63, 74
7, 169160, Note_off_c, 6, 63, 74
7, 169160, Note_off_c, 6, 72, 84
7, 169160, Note_off_c, 6, 67, 87
7, 169160, Note_off_c, 6, 60, 79
7, 169248, Note_on_c, 6, 63, 67
7, 169248, Note_on_c, 6, 67, 61
7, 169248, Note_on_c, 6, 72, 73
7, 169248, Note_on_c, 6, 60, 61
7, 169256, Note_off_c, 6, 60, 61
7, 169256, Note_off_c, 6, 72, 73
7, 169256, Note_off_c, 6, 67, 61
7, 169256, Note_off_c, 6, 63, 67
7, 169344, Note_on_c, 6, 72, 74
7, 169344, Note_on_c, 6, 67, 85
7, 169344, Note_on_c, 6, 60, 77
7, 169344, Note_on_c, 6, 63, 57
7, 169352, Note_off_c, 6, 63, 57
7, 169352, Note_off_c, 6, 60, 77
7, 169352, Note_off_c, 6, 67, 85
7, 169352, Note_off_c, 6, 72, 74
7, 169388, Control_c, 6, 64, 0
7, 169508, Control_c, 6, 64, 127
7, 169536, Note_on_c, 6, 60, 92
7, 169536, Note_on_c, 6, 63, 85
7, 169536, Note_on_c, 6, 67, 92
7, 169536, Note_on_c, 6, 72, 92
7, 169544, Note_off_c, 6, 72, 92
7, 169544, Note_off_c, 6, 67, 92
7, 169544, Note_off_c, 6, 63, 85
7, 169544, Note_off_c, 6, 60, 92
7, 169920, Note_on_c, 6, 60, 83
7, 169920, Note_on_c, 6, 72, 96
7, 169920, Note_on_c, 6, 63, 88
7, 169920, Note_on_c, 6, 67, 87
7, 169928, Note_off_c, 6, 67, 87
7, 169928, Note_off_c, 6, 63, 88
7, 169928, Note_off_c, 6, 72, 96
7, 169928, Note_off_c, 6, 60, 83
7, 169948, Control_c, 6, 64, 0
7, 170088, Control_c, 6, 64, 127
7, 170112, Note_on_c, 6, 60, 88
7, 170112, Note_on_c, 6, 72, 89
7, 170112, Note_on_c, 6, 63, 77
7, 170112, Note_on_c, 6, 67, 85
7, 170120, Note_off_c, 6, 67, 85
7, 170120, Note_off_c, 6, 63, 77
7, 170120, Note_off_c, 6, 72, 89
7, 170120, Note_off_c, 6, 60, 88
7, 170304, Note_on_c, 6, 60, 88
7, 170304, Note_on_c, 6, 72, 89
7, 170304, Note_on_c, 6, 63, 74
7, 170304, Note_on_c, 6, 67, 76
7, 170312, Note_off_c, 6, 67, 76
7, 170312, Note_off_c, 6, 63, 74
7, 170312, Note_off_c, 6, 72, 89
7, 170312, Note_off_c, 6, 60, 88
7, 170324, Control_c, 6, 64, 0
7, 170448, Control_c, 6, 64, 127
7, 170496, Note_on_c, 6, 62, 88
7, 170496, Note_on_c, 6, 55, 98
7, 170496, Note_on_c, 6, 67, 88
7, 170496, Note_on_c, 6, 70, 71
7, 170504, Note_off_c, 6, 70, 71
7, 170504, Note_off_c, 6, 67, 88
7, 170504, Note_off_c, 6, 55, 98
7, 170504, Note_off_c, 6, 62, 88
7, 170688, Note_on_c, 6, 55, 96
7, 170688, Note_on_c, 6, 70, 72
7, 170688, Note_on_c, 6, 62, 71
7, 170688, Note_on_c, 6, 67, 65
7, 170696, Note_off_c, 6, 67, 65
7, 170696, Note_off_c, 6, 62, 71
7, 170696, Note_off_c, 6, 70, 72
7, 170696, Note_off_c, 6, 55, 96
7, 170784, Note_on_c, 6, 62, 65
7, 170784, Note_on_c, 6, 55, 95
7, 170784, Note_on_c, 6, 67, 57
7, 170792, Note_off_c, 6, 67, 57
7, 170792, Note_off_c, 6, 55, 95
7, 170792, Note_off_c, 6, 62, 65
7, 170880, Note_on_c, 6, 55, 91
7, 170880, Note_on_c, 6, 67, 54
7, 170880, Note_on_c, 6, 62, 32
7, 170880, Note_on_c, 6, 70, 47
7, 170888, Note_off_c, 6, 70, 47
7, 170888, Note_off_c, 6, 62, 32
7, 170888, Note_off_c, 6, 67, 54
7, 170888, Note_off_c, 6, 55, 91
7, 170904, Control_c, 6, 64, 0
7, 171068, Control_c, 6, 64, 127
7, 171072, Note_on_c, 6, 62, 89
7, 171072, Note_on_c, 6, 70, 86
7, 171072, Note_on_c, 6, 55, 98
7, 171072, Note_on_c, 6, 67, 77
7, 171080, Note_off_c, 6, 67, 77
7, 171080, Note_off_c, 6, 55, 98
7, 171080, Note_off_c, 6, 70, 86
7, 171080, Note_off_c, 6, 62, 89
7, 171456, Note_on_c, 6, 55, 97
7, 171456, Note_on_c, 6, 62, 90
7, 171456, Note_on_c, 6, 67, 89
7, 171456, Note_on_c, 6, 70, 74
7, 171464, Note_off_c, 6, 70, 74
7, 171464, Note_off_c, 6, 67, 89
7, 171464, Note_off_c, 6, 62, 90
7, 171464, Note_off_c, 6, 55, 97
7, 171496, Control_c, 6, 64, 0
7, 171636, Control_c, 6, 64, 127
7, 171648, Note_on_c, 6, 55, 93
7, 171648, Note_on_c, 6, 62, 85
7, 171648, Note_on_c, 6, 67, 77
7, 171648, Note_on_c, 6, 70, 64
7, 171656, Note_off_c, 6, 70, 64
7, 171656, Note_off_c, 6, 67, 77
7, 171656, Note_off_c, 6, 62, 85
7, 171656, Note_off_c, 6, 55, 93
7, 171840, Note_on_c, 6, 70, 79
7, 171840, Note_on_c, 6, 55, 98
7, 171840, Note_on_c, 6, 62, 85
7, 171840, Note_on_c, 6, 67, 71
7, 171848, Note_off_c, 6, 67, 71
7, 171848, Note_off_c, 6, 62, 85
7, 171848, Note_off_c, 6, 55, 98
7, 171848, Note_off_c, 6, 70, 79
7, 171868, Control_c, 6, 64, 0
7, 172008, Control_c, 6, 64, 127
7, 172032, Note_on_c, 6, 58, 93
7, 172032, Note_on_c, 6, 65, 89
7, 172032, Note_on_c, 6, 63, 88
7, 172040, Note_off_c, 6, 63, 88
7, 172040, Note_off_c, 6, 65, 89
7, 172040, Note_off_c, 6, 58, 93
7, 172416, Note_on_c, 6, 65, 93
7, 172416, Note_on_c, 6, 63, 83
7, 172416, Note_on_c, 6, 58, 88
7, 172424, Note_off_c, 6, 58, 88
7, 172424, Note_off_c, 6, 63, 83
7, 172424, Note_off_c, 6, 65, 93
7, 172636, Control_c, 6, 64, 0
7, 172704, Note_on_c, 6, 63, 68
7, 172704, Note_on_c, 6, 65, 71
7, 172704, Note_on_c, 6, 58, 74
7, 172712, Note_off_c, 6, 58, 74
7, 172712, Note_off_c, 6, 65, 71
7, 172712, Note_off_c, 6, 63, 68
7, 172772, Control_c, 6, 64, 127
7, 172800, Note_on_c, 6, 62, 93
7, 172800, Note_on_c, 6, 65, 86
7, 172800, Note_on_c, 6, 58, 92
7, 172808, Note_off_c, 6, 58, 92
7, 172808, Note_off_c, 6, 65, 86
7, 172808, Note_off_c, 6, 62, 93
7, 172836, Control_c, 6, 64, 0
7, 172980, Control_c, 6, 64, 127
7, 172992, Note_on_c, 6, 58, 94
7, 172992, Note_on_c, 6, 62, 90
7, 172992, Note_on_c, 6, 65, 82
7, 173000, Note_off_c, 6, 65, 82
7, 173000, Note_off_c, 6, 62, 90
7, 173000, Note_off_c, 6, 58, 94
7, 173376, Note_on_c, 6, 62, 86
7, 173376, Note_on_c, 6, 58, 80
7, 173376, Note_on_c, 6, 65, 75
7, 173384, Note_off_c, 6, 65, 75
7, 173384, Note_off_c, 6, 58, 80
7, 173384, Note_off_c, 6, 62, 86
7, 173392, Control_c, 6, 64, 0
7, 173532, Control_c, 6, 64, 127
7, 173568, Note_on_c, 6, 58, 93
7, 173568, Note_on_c, 6, 65, 91
7, 173568, Note_on_c, 6, 63, 90
7, 173576, Note_off_c, 6, 63, 90
7, 173576, Note_off_c, 6, 65, 91
7, 173576, Note_off_c, 6, 58, 93
7, 173952, Note_on_c, 6, 65, 94
7, 173952, Note_on_c, 6, 58, 89
7, 173952, Note_on_c, 6, 63, 83
7, 173960, Note_off_c, 6, 63, 83
7, 173960, Note_off_c, 6, 58, 89
7, 173960, Note_off_c, 6, 65, 94
7, 174212, Control_c, 6, 64, 0
7, 174240, Note_on_c, 6, 63, 81
7, 174240, Note_on_c, 6, 65, 85
7, 174240, Note_on_c, 6, 58, 70
7, 174248, Note_off_c, 6, 58, 70
7, 174248, Note_off_c, 6, 65, 85
7, 174248, Note_off_c, 6, 63, 81
7, 174336, Note_on_c, 6, 58, 73
7, 174336, Note_on_c, 6, 65, 79
7, 174336, Note_on_c, 6, 62, 86
7, 174344, Note_off_c, 6, 62, 86
7, 174344, Note_off_c, 6, 65, 79
7, 174344, Note_off_c, 6, 58, 73
7, 174344, Control_c, 6, 64, 127
7, 174384, Control_c, 6, 64, 0
7, 174508, Control_c, 6, 64, 127
7, 174528, Note_on_c, 6, 62, 91
7, 174528, Note_on_c, 6, 65, 87
7, 174528, Note_on_c, 6, 58, 92
7, 174536, Note_off_c, 6, 58, 92
7, 174536, Note_off_c, 6, 65, 87
7, 174536, Note_off_c, 6, 62, 91
7, 174720, Note_on_c, 6, 65, 81
7, 174720, Note_on_c, 6, 58, 79
7, 174720, Note_on_c, 6, 62, 69
7, 174728, Note_off_c, 6, 62, 69
7, 174728, Note_off_c, 6, 58, 79
7, 174728, Note_off_c, 6, 65, 81
7, 174912, Note_on_c, 6, 58, 90
7, 174912, Note_on_c, 6, 65, 88
7, 174912, Note_on_c, 6, 62, 80
7, 174916, Control_c, 6, 64, 0
7, 174920, Note_off_c, 6, 62, 80
7, 174920, Note_off_c, 6, 65, 88
7, 174920, Note_off_c, 6, 58, 90
7, 175076, Control_c, 6, 64, 127
7, 175104, Note_on_c, 6, 67, 103
7, 175104, Note_on_c, 6, 60, 98
7, 175104, Note_on_c, 6, 63, 95
7, 175104, Note_on_c, 6, 72, 96
7, 175112, Note_off_c, 6, 72, 96
7, 175112, Note_off_c, 6, 63, 95
7, 175112, Note_off_c, 6, 60, 98
7, 175112, Note_off_c, 6, 67, 103
7, 175296, Note_on_c, 6, 60, 88
7, 175296, Note_on_c, 6, 67, 90
7, 175296, Note_on_c, 6, 63, 78
7, 175296, Note_on_c, 6, 72, 75
7, 175304, Note_off_c, 6, 72, 75
7, 175304, Note_off_c, 6, 63, 78
7, 175304, Note_off_c, 6, 67, 90
7, 175304, Note_off_c, 6, 60, 88
7, 175392, Note_on_c, 6, 67, 87
7, 175392, Note_on_c, 6, 63, 80
7, 175392, Note_on_c, 6, 72, 89
7, 175392, Note_on_c, 6, 60, 79
7, 175400, Note_off_c, 6, 60, 79
7, 175400, Note_off_c, 6, 72, 89
7, 175400, Note_off_c, 6, 63, 80
7, 175400, Note_off_c, 6, 67, 87
7, 175488, Note_on_c, 6, 72, 78
7, 175488, Note_on_c, 6, 63, 74
7, 175488, Note_on_c, 6, 67, 96
7, 175488, Note_on_c, 6, 60, 92
7, 175496, Note_off_c, 6, 60, 92
7, 175496, Note_off_c, 6, 67, 96
7, 175496, Note_off_c, 6, 63, 74
7, 175496, Note_off_c, 6, 72, 78
7, 175556, Control_c, 6, 64, 0
7, 175680, Note_on_c, 6, 67, 100
7, 175680, Note_on_c, 6, 63, 94
7, 175680, Note_on_c, 6, 72, 100
7, 175680, Note_on_c, 6, 60, 94
7, 175684, Control_c, 6, 64, 127
7, 175688, Note_off_c, 6, 60, 94
7, 175688, Note_off_c, 6, 72, 100
7, 175688, Note_off_c, 6, 63, 94
7, 175688, Note_off_c, 6, 67, 100
7, 176064, Note_on_c, 6, 63, 87
7, 176064, Note_on_c, 6, 67, 95
7, 176064, Note_on_c, 6, 60, 84
7, 176064, Note_on_c, 6, 72, 86
7, 176072, Note_off_c, 6, 72, 86
7, 176072, Note_off_c, 6, 60, 84
7, 176072, Note_off_c, 6, 67, 95
7, 176072, Note_off_c, 6, 63, 87
7, 176256, Note_on_c, 6, 60, 91
7, 176256, Note_on_c, 6, 63, 88
7, 176256, Note_on_c, 6, 67, 93
7, 176256, Note_on_c, 6, 72, 92
7, 176264, Note_off_c, 6, 72, 92
7, 176264, Note_off_c, 6, 67, 93
7, 176264, Note_off_c, 6, 63, 88
7, 176264, Note_off_c, 6, 60, 91
7, 176440, Control_c, 6, 64, 0
7, 176448, Note_on_c, 6, 60, 87
7, 176448, Note_on_c, 6, 67, 97
7, 176448, Note_on_c, 6, 63, 85
7, 176448, Note_on_c, 6, 72, 84
7, 176456, Note_off_c, 6, 72, 84
7, 176456, Note_off_c, 6, 63, 85
7, 176456, Note_off_c, 6, 67, 97
7, 176456, Note_off_c, 6, 60, 87
7, 176616, Control_c, 6, 64, 127
7, 176640, Note_on_c, 6, 72, 96
7, 176640, Note_on_c, 6, 63, 79
7, 176640, Note_on_c, 6, 56, 97
7, 176640, Note_on_c, 6, 68, 74
7, 176648, Note_off_c, 6, 68, 74
7, 176648, Note_off_c, 6, 56, 97
7, 176648, Note_off_c, 6, 63, 79
7, 176648, Note_off_c, 6, 72, 96
7, 176832, Note_on_c, 6, 56, 81
7, 176832, Note_on_c, 6, 63, 68
7, 176832, Note_on_c, 6, 68, 77
7, 176832, Note_on_c, 6, 72, 67
7, 176840, Note_off_c, 6, 72, 67
7, 176840, Note_off_c, 6, 68, 77
7, 176840, Note_off_c, 6, 63, 68
7, 176840, Note_off_c, 6, 56, 81
7, 176928, Note_on_c, 6, 72, 90
7, 176928, Note_on_c, 6, 63, 86
7, 176928, Note_on_c, 6, 56, 78
7, 176928, Note_on_c, 6, 68, 80
7, 176936, Note_off_c, 6, 68, 80
7, 176936, Note_off_c, 6, 56, 78
7, 176936, Note_off_c, 6, 63, 86
7, 176936, Note_off_c, 6, 72, 90
7, 176996, Control_c, 6, 64, 0
7, 177024, Note_on_c, 6, 63, 73
7, 177024, Note_on_c, 6, 72, 79
7, 177024, Note_on_c, 6, 56, 93
7, 177024, Note_on_c, 6, 68, 82
7, 177032, Note_off_c, 6, 68, 82
7, 177032, Note_off_c, 6, 56, 93
7, 177032, Note_off_c, 6, 72, 79
7, 177032, Note_off_c, 6, 63, 73
7, 177204, Control_c, 6, 64, 127
7, 177216, Note_on_c, 6, 67, 96
7, 177216, Note_on_c, 6, 71, 95
7, 177216, Note_on_c, 6, 55, 94
7, 177216, Note_on_c, 6, 62, 83
7, 177224, Note_off_c, 6, 62, 83
7, 177224, Note_off_c, 6, 55, 94
7, 177224, Note_off_c, 6, 71, 95
7, 177224, Note_off_c, 6, 67, 96
7, 177600, Note_on_c, 6, 62, 85
7, 177600, Note_on_c, 6, 71, 87
7, 177600, Note_on_c, 6, 55, 96
7, 177600, Note_on_c, 6, 67, 80
7, 177608, Note_off_c, 6, 67, 80
7, 177608, Note_off_c, 6, 55, 96
7, 177608, Note_off_c, 6, 71, 87
7, 177608, Note_off_c, 6, 62, 85
7, 177792, Note_on_c, 6, 71, 91
7, 177792, Note_on_c, 6, 55, 96
7, 177792, Note_on_c, 6, 62, 80
7, 177792, Note_on_c, 6, 67, 78
7, 177800, Note_off_c, 6, 67, 78
7, 177800, Note_off_c, 6, 62, 80
7, 177800, Note_off_c, 6, 55, 96
7, 177800, Note_off_c, 6, 71, 91
7, 177984, Note_on_c, 6, 71, 91
7, 177984, Note_on_c, 6, 55, 100
7, 177984, Note_on_c, 6, 62, 82
7, 177984, Note_on_c, 6, 67, 76
7, 177992, Note_off_c, 6, 67, 76
7, 177992, Note_off_c, 6, 62, 82
7, 177992, Note_off_c, 6, 55, 100
7, 177992, Note_off_c, 6, 71, 91
7, 178120, Control_c, 6, 64, 0
7, 178176, Control_c, 6, 64, 127
7, 178176, Note_on_c, 6, 72, 89
7, 178176, Note_on_c, 6, 63, 89
7, 178176, Note_on_c, 6, 67, 100
7, 178176, Note_on_c, 6, 60, 96
7, 178184, Note_off_c, 6, 60, 96
7, 178184, Note_off_c, 6, 67, 100
7, 178184, Note_off_c, 6, 63, 89
7, 178184, Note_off_c, 6, 72, 89
7, 178368, Note_on_c, 6, 60, 84
7, 178368, Note_on_c, 6, 67, 88
7, 178368, Note_on_c, 6, 72, 84
7, 178368, Note_on_c, 6, 63, 71
7, 178376, Note_off_c, 6, 63, 71
7, 178376, Note_off_c, 6, 72, 84
7, 178376, Note_off_c, 6, 67, 88
7, 178376, Note_off_c, 6, 60, 84
7, 178464, Note_on_c, 6, 63, 73
7, 178464, Note_on_c, 6, 67, 81
7, 178464, Note_on_c, 6, 72, 79
7, 178464, Note_on_c, 6, 60, 76
7, 178472, Note_off_c, 6, 60, 76
7, 178472, Note_off_c, 6, 72, 79
7, 178472, Note_off_c, 6, 67, 81
7, 178472, Note_off_c, 6, 63, 73
7, 178560, Note_on_c, 6, 63, 74
7, 178560, Note_on_c, 6, 72, 79
7, 178560, Note_on_c, 6, 67, 85
7, 178560, Note_on_c, 6, 60, 82
7, 178568, Note_off_c, 6, 60, 82
7, 178568, Note_off_c, 6, 67, 85
7, 178568, Note_off_c, 6, 72, 79
7, 178568, Note_off_c, 6, 63, 74
7, 178604, Control_c, 6, 64, 0
7, 178748, Control_c, 6, 64, 127
7, 178752, Note_on_c, 6, 60, 96
7, 178752, Note_on_c, 6, 72, 96
7, 178752, Note_on_c, 6, 63, 89
7, 178752, Note_on_c, 6, 67, 93
7, 178760, Note_off_c, 6, 67, 93
7, 178760, Note_off_c, 6, 63, 89
7, 178760, Note_off_c, 6, 72, 96
7, 178760, Note_off_c, 6, 60, 96
7, 179136, Note_on_c, 6, 60, 84
7, 179136, Note_on_c, 6, 63, 82
7, 179136, Note_on_c, 6, 67, 88
7, 179136, Note_on_c, 6, 72, 88
7, 179144, Note_off_c, 6, 72, 88
7, 179144, Note_off_c, 6, 67, 88
7, 179144, Note_off_c, 6, 63, 82
7, 179144, Note_off_c, 6, 60, 84
7, 179188, Control_c, 6, 64, 0
7, 179328, Control_c, 6, 64, 127
7, 179328, Note_on_c, 6, 60, 86
7, 179328, Note_on_c, 6, 72, 79
7, 179328, Note_on_c, 6, 63, 68
7, 179328, Note_on_c, 6, 67, 84
7, 179336, Note_off_c, 6, 67, 84
7, 179336, Note_off_c, 6, 63, 68
7, 179336, Note_off_c, 6, 72, 79
7, 179336, Note_off_c, 6, 60, 86
7, 179520, Note_on_c, 6, 72, 96
7, 179520, Note_on_c, 6, 63, 88
7, 179520, Note_on_c, 6, 60, 93
7, 179520, Note_on_c, 6, 67, 81
7, 179528, Note_off_c, 6, 67, 81
7, 179528, Note_off_c, 6, 60, 93
7, 179528, Note_off_c, 6, 63, 88
7, 179528, Note_off_c, 6, 72, 96
7, 179552, Control_c, 6, 64, 0
7, 179696, Control_c, 6, 64, 127
7, 179712, Note_on_c, 6, 55, 98
7, 179712, Note_on_c, 6, 70, 83
7, 179712, Note_on_c, 6, 62, 80
7, 179712, Note_on_c, 6, 67, 78
7, 179720, Note_off_c, 6, 67, 78
7, 179720, Note_off_c, 6, 62, 80
7, 179720, Note_off_c, 6, 70, 83
7, 179720, Note_off_c, 6, 55, 98
7, 179904, Note_on_c, 6, 55, 91
7, 179904, Note_on_c, 6, 62, 72
7, 179904, Note_on_c, 6, 70, 69
7, 179904, Note_on_c, 6, 67, 63
7, 179912, Note_off_c, 6, 67, 63
7, 179912, Note_off_c, 6, 70, 69
7, 179912, Note_off_c, 6, 62, 72
7, 179912, Note_off_c, 6, 55, 91
7, 180000, Note_on_c, 6, 55, 79
7, 180000, Note_on_c, 6, 62, 71
7, 180000, Note_on_c, 6, 67, 64
7, 180000, Note_on_c, 6, 70, 49
7, 180008, Note_off_c, 6, 70, 49
7, 180008, Note_off_c, 6, 67, 64
7, 180008, Note_off_c, 6, 62, 71
7, 180008, Note_off_c, 6, 55, 79
7, 180096, Note_on_c, 6, 55, 90
7, 180096, Note_on_c, 6, 70, 64
7, 180096, Note_on_c, 6, 62, 33
7, 180096, Note_on_c, 6, 67, 37
7, 180104, Note_off_c, 6, 67, 37
7, 180104, Note_off_c, 6, 62, 33
7, 180104, Note_off_c, 6, 70, 64
7, 180104, Note_off_c, 6, 55, 90
7, 180112, Control_c, 6, 64, 0
7, 180244, Control_c, 6, 64, 127
7, 180288, Note_on_c, 6, 70, 90
7, 180288, Note_on_c, 6, 55, 98
7, 180288, Note_on_c, 6, 62, 85
7, 180288, Note_on_c, 6, 67, 74
7, 180296, Note_off_c, 6, 67, 74
7, 180296, Note_off_c, 6, 62, 85
7, 180296, Note_off_c, 6, 55, 98
7, 180296, Note_off_c, 6, 70, 90
7, 180672, Note_on_c, 6, 62, 86
7, 180672, Note_on_c, 6, 55, 90
7, 180672, Note_on_c, 6, 70, 75
7, 180672, Note_on_c, 6, 67, 75
7, 180680, Note_off_c, 6, 67, 75
7, 180680, Note_off_c, 6, 70, 75
7, 180680, Note_off_c, 6, 55, 90
7, 180680, Note_off_c, 6, 62, 86
7, 180704, Control_c, 6, 64, 0
7, 180816, Control_c, 6, 64, 127
7, 180864, Note_on_c, 6, 55, 87
7, 180864, Note_on_c, 6, 70, 79
7, 180864, Note_on_c, 6, 62, 78
7, 180864, Note_on_c, 6, 67, 75
7, 180872, Note_off_c, 6, 67, 75
7, 180872, Note_off_c, 6, 62, 78
7, 180872, Note_off_c, 6, 70, 79
7, 180872, Note_off_c, 6, 55, 87
7, 181056, Note_on_c, 6, 62, 76
7, 181056, Note_on_c, 6, 55, 97
7, 181056, Note_on_c, 6, 70, 71
7, 181056, Note_on_c, 6, 67, 68
7, 181064, Note_off_c, 6, 67, 68
7, 181064, Note_off_c, 6, 70, 71
7, 181064, Note_off_c, 6, 55, 97
7, 181064, Note_off_c, 6, 62, 76
7, 181072, Control_c, 6, 64, 0
7, 181216, Control_c, 6, 64, 127
7, 181248, Note_on_c, 6, 67, 97
7, 181248, Note_on_c, 6, 60, 92
7, 181248, Note_on_c, 6, 63, 79
7, 181248, Note_on_c, 6, 72, 90
7, 181256, Note_off_c, 6, 72, 90
7, 181256, Note_off_c, 6, 63, 79
7, 181256, Note_off_c, 6, 60, 92
7, 181256, Note_off_c, 6, 67, 97
7, 181440, Note_on_c, 6, 60, 79
7, 181440, Note_on_c, 6, 67, 87
7, 181440, Note_on_c, 6, 72, 84
7, 181440, Note_on_c, 6, 63, 74
7, 181448, Note_off_c, 6, 63, 74
7, 181448, Note_off_c, 6, 72, 84
7, 181448, Note_off_c, 6, 67, 87
7, 181448, Note_off_c, 6, 60, 79
7, 181536, Note_on_c, 6, 63, 67
7, 181536, Note_on_c, 6, 67, 61
7, 181536, Note_on_c, 6, 72, 73
7, 181536, Note_on_c, 6, 60, 61
7, 181544, Note_off_c, 6, 60, 61
7, 181544, Note_off_c, 6, 72, 73
7, 181544, Note_off_c, 6, 67, 61
7, 181544, Note_off_c, 6, 63, 67
7, 181632, Note_on_c, 6, 72, 74
7, 181632, Note_on_c, 6, 67, 85
7, 181632, Note_on_c, 6, 60, 77
7, 181632, Note_on_c, 6, 63, 57
7, 181640, Note_off_c, 6, 63, 57
7, 181640, Note_off_c, 6, 60, 77
7, 181640, Note_off_c, 6, 67, 85
7, 181640, Note_off_c, 6, 72, 74
7, 181676, Control_c, 6, 64, 0
7, 181796, Control_c, 6, 64, 127
7, 181824, Note_on_c, 6, 60, 92
7, 181824, Note_on_c, 6, 63, 85
7, 181824, Note_on_c, 6, 67, 92
7, 181824, Note_on_c, 6, 72, 92
7, 181832, Note_off_c, 6, 72, 92
7, 181832, Note_off_c, 6, 67, 92
7, 181832, Note_off_c, 6, 63, 85
7, 181832, Note_off_c, 6, 60, 92
7, 182208, Note_on_c, 6, 60, 83
7, 182208, Note_on_c, 6, 72, 96
7, 182208, Note_on_c, 6, 63, 88
7, 182208, Note_on_c, 6, 67, 87
7, 182216, Note_off_c, 6, 67, 87
7, 182216, Note_off_c, 6, 63, 88
7, 182216, Note_off_c, 6, 72, 96
7, 182216, Note_off_c, 6, 60, 83
7, 182236, Control_c, 6, 64, 0
7, 182376, Control_c, 6, 64, 127
7, 182400, Note_on_c, 6, 60, 88
7, 182400, Note_on_c, 6, 72, 89
7, 182400, Note_on_c, 6, 63, 77
7, 182400, Note_on_c, 6, 67, 85
7, 182408, Note_off_c, 6, 67, 85
7, 182408, Note_off_c, 6, 63, 77
7, 182408, Note_off_c, 6, 72, 89
7, 182408, Note_off_c, 6, 60, 88
7, 182592, Note_on_c, 6, 60, 88
7, 182592, Note_on_c, 6, 72, 89
7, 182592, Note_on_c, 6, 63, 74
7, 182592, Note_on_c, 6, 67, 76
7, 182600, Note_off_c, 6, 67, 76
7, 182600, Note_off_c, 6, 63, 74
7, 182600, Note_off_c, 6, 72, 89
7, 182600, Note_off_c, 6, 60, 88
7, 182612, Control_c, 6, 64, 0
7, 182736, Control_c, 6, 64, 127
7, 182784, Note_on_c, 6, 62, 88
7, 182784, Note_on_c, 6, 55, 98
7, 182784, Note_on_c, 6, 67, 88
7, 182784, Note_on_c, 6, 70, 71
7, 182792, Note_off_c, 6, 70, 71
7, 182792, Note_off_c, 6, 67, 88
7, 182792, Note_off_c, 6, 55, 98
7, 182792, Note_off_c, 6, 62, 88
7, 182976, Note_on_c, 6, 55, 96
7, 182976, Note_on_c, 6, 70, 72
7, 182976, Note_on_c, 6, 62, 71
7, 182976, Note_on_c, 6, 67, 65
7, 182984, Note_off_c, 6, 67, 65
7, 182984, Note_off_c, 6, 62, 71
7, 182984, Note_off_c, 6, 70, 72
7, 182984, Note_off_c, 6, 55, 96
7, 183072, Note_on_c, 6, 62, 65
7, 183072, Note_on_c, 6, 55, 95
7, 183072, Note_on_c, 6, 67, 57
7, 183080, Note_off_c, 6, 67, 57
7, 183080, Note_off_c, 6, 55, 95
7, 183080, Note_off_c, 6, 62, 65
7, 183168, Note_on_c, 6, 55, 91
7, 183168, Note_on_c, 6, 67, 54
7, 183168, Note_on_c, 6, 62, 32
7, 183168, Note_on_c, 6, 70, 47
7, 183176, Note_off_c, 6, 70, 47
7, 183176, Note_off_c, 6, 62, 32
7, 183176, Note_off_c, 6, 67, 54
7, 183176, Note_off_c, 6, 55, 91
7, 183192, Control_c, 6, 64, 0
7, 183356, Control_c, 6, 64, 127
7, 183360, Note_on_c, 6, 62, 89
7, 183360, Note_on_c, 6, 70, 86
7, 183360, Note_on_c, 6, 55, 98
7, 183360, Note_on_c, 6, 67, 77
7, 183368, Note_off_c, 6, 67, 77
7, 183368, Note_off_c, 6, 55, 98
7, 183368, Note_off_c, 6, 70, 86
7, 183368, Note_off_c, 6, 62, 89
7, 183744, Note_on_c, 6, 55, 97
7, 183744, Note_on_c, 6, 62, 90
7, 183744, Note_on_c, 6, 67, 89
7, 183744, Note_on_c, 6, 70, 74
7, 183752, Note_off_c, 6, 70, 74
7, 183752, Note_off_c, 6, 67, 89
7, 183752, Note_off_c, 6, 62, 90
7, 183752, Note_off_c, 6, 55, 97
7, 183784, Control_c, 6, 64, 0
7, 183924, Control_c, 6, 64, 127
7, 183936, Note_on_c, 6, 55, 93
7, 183936, Note_on_c, 6, 62, 85
7, 183936, Note_on_c, 6, 67, 77
7, 183936, Note_on_c, 6, 70, 64
7, 183944, Note_off_c, 6, 70, 64
7, 183944, Note_off_c, 6, 67, 77
7, 183944, Note_off_c, 6, 62, 85
7, 183944, Note_off_c, 6, 55, 93
7, 184128, Note_on_c, 6, 70, 79
7, 184128, Note_on_c, 6, 55, 98
7, 184128, Note_on_c, 6, 62, 85
7, 184128, Note_on_c, 6, 67, 71
7, 184136, Note_off_c, 6, 67, 71
7, 184136, Note_off_c, 6, 62, 85
7, 184136, Note_off_c, 6, 55, 98
7, 184136, Note_off_c, 6, 70, 79
7, 184156, Control_c, 6, 64, 0
7, 184296, Control_c, 6, 64, 127
7, 184320, Note_on_c, 6, 58, 93
7, 184320, Note_on_c, 6, 65, 89
7, 184320, Note_on_c, 6, 63, 88
7, 184328, Note_off_c, 6, 63, 88
7, 184328, Note_off_c, 6, 65, 89
7, 184328, Note_off_c, 6, 58, 93
7, 184704, Note_on_c, 6, 65, 93
7, 184704, Note_on_c, 6, 63, 83
7, 184704, Note_on_c, 6, 58, 88
7, 184712, Note_off_c, 6, 58, 88
7, 184712, Note_off_c, 6, 63, 83
7, 184712, Note_off_c, 6, 65, 93
7, 184924, Control_c, 6, 64, 0
7, 184992, Note_on_c, 6, 63, 68
7, 184992, Note_on_c, 6, 65, 71
7, 184992, Note_on_c, 6, 58, 74
7, 185000, Note_off_c, 6, 58, 74
7, 185000, Note_off_c, 6, 65, 71
7, 185000, Note_off_c, 6, 63, 68
7, 185060, Control_c, 6, 64, 127
7, 185088, Note_on_c, 6, 62, 93
7, 185088, Note_on_c, 6, 65, 86
7, 185088, Note_on_c, 6, 58, 92
7, 185096, Note_off_c, 6, 58, 92
7, 185096, Note_off_c, 6, 65, 86
7, 185096, Note_off_c, 6, 62, 93
7, 185124, Control_c, 6, 64, 0
7, 185268, Control_c, 6, 64, 127
7, 185280, Note_on_c, 6, 58, 94
7, 185280, Note_on_c, 6, 62, 90
7, 185280, Note_on_c, 6, 65, 82
7, 185288, Note_off_c, 6, 65, 82
7, 185288, Note_off_c, 6, 62, 90
7, 185288, Note_off_c, 6, 58, 94
7, 185664, Note_on_c, 6, 62, 86
7, 185664, Note_on_c, 6, 58, 80
7, 185664, Note_on_c, 6, 65, 75
7, 185672, Note_off_c, 6, 65, 75
7, 185672, Note_off_c, 6, 58, 80
7, 185672, Note_off_c, 6, 62, 86
7, 185680, Control_c, 6, 64, 0
7, 185820, Control_c, 6, 64, 127
7, 185856, Note_on_c, 6, 58, 93
7, 185856, Note_on_c, 6, 65, 91
7, 185856, Note_on_c, 6, 63, 90
7, 185864, Note_off_c, 6, 63, 90
7, 185864, Note_off_c, 6, 65, 91
7, 185864, Note_off_c, 6, 58, 93
7, 186240, Note_on_c, 6, 65, 94
7, 186240, Note_on_c, 6, 58, 89
7, 186240, Note_on_c, 6, 63, 83
7, 186248, Note_off_c, 6, 63, 83
7, 186248, Note_off_c, 6, 58, 89
7, 186248, Note_off_c, 6, 65, 94
7, 186500, Control_c, 6, 64, 0
7, 186528, Note_on_c, 6, 63, 81
7, 186528, Note_on_c, 6, 65, 85
7, 186528, Note_on_c, 6, 58, 70
7, 186536, Note_off_c, 6, 58, 70
7, 186536, Note_off_c, 6, 65, 85
7, 186536, Note_off_c, 6, 63, 81
7, 186624, Note_on_c, 6, 58, 73
7, 186624, Note_on_c, 6, 65, 79
7, 186624, Note_on_c, 6, 62, 86
7, 186632, Note_off_c, 6, 62, 86
7, 186632, Note_off_c, 6, 65, 79
7, 186632, Note_off_c, 6, 58, 73
7, 186632, Control_c, 6, 64, 127
7, 186672, Control_c, 6, 64, 0
7, 186796, Control_c, 6, 64, 127
7, 186816, Note_on_c, 6, 62, 91
7, 186816, Note_on_c, 6, 65, 87
7, 186816, Note_on_c, 6, 58, 92
7, 186824, Note_off_c, 6, 58, 92
7, 186824, Note_off_c, 6, 65, 87
7, 186824, Note_off_c, 6, 62, 91
7, 187008, Note_on_c, 6, 65, 81
7, 187008, Note_on_c, 6, 58, 79
7, 187008, Note_on_c, 6, 62, 69
7, 187016, Note_off_c, 6, 62, 69
7, 187016, Note_off_c, 6, 58, 79
7, 187016, Note_off_c, 6, 65, 81
7, 187200, Note_on_c, 6, 58, 90
7, 187200, Note_on_c, 6, 65, 88
7, 187200, Note_on_c, 6, 62, 80
7, 187204, Control_c, 6, 64, 0
7, 187208, Note_off_c, 6, 62, 80
7, 187208, Note_off_c, 6, 65, 88
7, 187208, Note_off_c, 6, 58, 90
7, 187364, Control_c, 6, 64, 127
7, 187392, Note_on_c, 6, 67, 103
7, 187392, Note_on_c, 6, 60, 98
7, 187392, Note_on_c, 6, 63, 95
7, 187392, Note_on_c, 6, 72, 96
7, 187400, Note_off_c, 6, 72, 96
7, 187400, Note_off_c, 6, 63, 95
7, 187400, Note_off_c, 6, 60, 98
7, 187400, Note_off_c, 6, 67, 103
7, 187584, Note_on_c, 6, 60, 88
7, 187584, Note_on_c, 6, 67, 90
7, 187584, Note_on_c, 6, 63, 78
7, 187584, Note_on_c, 6, 72, 75
7, 187592, Note_off_c, 6, 72, 75
7, 187592, Note_off_c, 6, 63, 78
7, 187592, Note_off_c, 6, 67, 90
7, 187592, Note_off_c, 6, 60, 88
7, 187680, Note_on_c, 6, 67, 87
7, 187680, Note_on_c, 6, 63, 80
7, 187680, Note_on_c, 6, 72, 89
7, 187680, Note_on_c, 6, 60, 79
7, 187688, Note_off_c, 6, 60, 79
7, 187688, Note_off_c, 6, 72, 89
7, 187688, Note_off_c, 6, 63, 80
7, 187688, Note_off_c, 6, 67, 87
7, 187776, Note_on_c, 6, 72, 78
7, 187776, Note_on_c, 6, 63, 74
7, 187776, Note_on_c, 6, 67, 96
7, 187776, Note_on_c, 6, 60, 92
7, 187784, Note_off_c, 6, 60, 92
7, 187784, Note_off_c, 6, 67, 96
7, 187784, Note_off_c, 6, 63, 74
7, 187784, Note_off_c, 6, 72, 78
7, 187844, Control_c, 6, 64, 0
7, 187968, Note_on_c, 6, 67, 100
7, 187968, Note_on_c, 6, 63, 94
7, 187968, Note_on_c, 6, 72, 100
7, 187968, Note_on_c, 6, 60, 94
7, 187972, Control_c, 6, 64, 127
7, 187976, Note_off_c, 6, 60, 94
7, 187976, Note_off_c, 6, 72, 100
7, 187976, Note_off_c, 6, 63, 94
7, 187976, Note_off_c, 6, 67, 100
7, 188352, Note_on_c, 6, 63, 87
7, 188352, Note_on_c, 6, 67, 95
7, 188352, Note_on_c, 6, 60, 84
7, 188352, Note_on_c, 6, 72, 86
7, 188360, Note_off_c, 6, 72, 86
7, 188360, Note_off_c, 6, 60, 84
7, 188360, Note_off_c, 6, 67, 95
7, 188360, Note_off_c, 6, 63, 87
7, 188544, Note_on_c, 6, 60, 91
7, 188544, Note_on_c, 6, 63, 88
7, 188544, Note_on_c, 6, 67, 93
7, 188544, Note_on_c, 6, 72, 92
7, 188552, Note_off_c, 6, 72, 92
7, 188552, Note_off_c, 6, 67, 93
7, 188552, Note_off_c, 6, 63, 88
7, 188552, Note_off_c, 6, 60, 91
7, 188728, Control_c, 6, 64, 0
7, 188736, Note_on_c, 6, 60, 87
7, 188736, Note_on_c, 6, 67, 97
7, 188736, Note_on_c, 6, 63, 85
7, 188736, Note_on_c, 6, 72, 84
7, 188744, Note_off_c, 6, 72, 84
7, 188744, Note_off_c, 6, 63, 85
7, 188744, Note_off_c, 6, 67, 97
7, 188744, Note_off_c, 6, 60, 87
7, 188904, Control_c, 6, 64, 127
7, 188928, Note_on_c, 6, 72, 96
7, 188928, Note_on_c, 6, 63, 79
7, 188928, Note_on_c, 6, 56, 97
7, 188928, Note_on_c, 6, 68, 74
7, 188936, Note_off_c, 6, 68, 74
7, 188936, Note_off_c, 6, 56, 97
7, 188936, Note_off_c, 6, 63, 79
7, 188936, Note_off_c, 6, 72, 96
7, 189120, Note_on_c, 6, 56, 81
7, 189120, Note_on_c, 6, 63, 68
7, 189120, Note_on_c, 6, 68, 77
7, 189120, Note_on_c, 6, 72, 67
7, 189128, Note_off_c, 6, 72, 67
7, 189128, Note_off_c, 6, 68, 77
7, 189128, Note_off_c, 6, 63, 68
7, 189128, Note_off_c, 6, 56, 81
7, 189216, Note_on_c, 6, 72, 90
7, 189216, Note_on_c, 6, 63, 86
7, 189216, Note_on_c, 6, 56, 78
7, 189216, Note_on_c, 6, 68, 80
7, 189224, Note_off_c, 6, 68, 80
7, 189224, Note_off_c, 6, 56, 78
7, 189224, Note_off_c, 6, 63, 86
7, 189224, Note_off_c, 6, 72, 90
7, 189284, Control_c, 6, 64, 0
7, 189312, Note_on_c, 6, 63, 73
7, 189312, Note_on_c, 6, 72, 79
7, 189312, Note_on_c, 6, 56, 93
7, 189312, Note_on_c, 6, 68, 82
7, 189320, Note_off_c, 6, 68, 82
7, 189320, Note_off_c, 6, 56, 93
7, 189320, Note_off_c, 6, 72, 79
7, 189320, Note_off_c, 6, 63, 73
7, 189492, Control_c, 6, 64, 127
7, 189504, Note_on_c, 6, 67, 96
7, 189504, Note_on_c, 6, 71, 95
7, 189504, Note_on_c, 6, 55, 94
7, 189504, Note_on_c, 6, 62, 83
7, 189512, Note_off_c, 6, 62, 83
7, 189512, Note_off_c, 6, 55, 94
7, 189512, Note_off_c, 6, 71, 95
7, 189512, Note_off_c, 6, 67, 96
7, 189888, Note_on_c, 6, 62, 85
7, 189888, Note_on_c, 6, 71, 87
7, 189888, Note_on_c, 6, 55, 96
7, 189888, Note_on_c, 6, 67, 80
7, 189896, Note_off_c, 6, 67, 80
7, 189896, Note_off_c, 6, 55, 96
7, 189896, Note_off_c, 6, 71, 87
7, 189896, Note_off_c, 6, 62, 85
7, 190080, Note_on_c, 6, 71, 91
7, 190080, Note_on_c, 6, 55, 96
7, 190080, Note_on_c, 6, 62, 80
7, 190080, Note_on_c, 6, 67, 78
7, 190088, Note_off_c, 6, 67, 78
7, 190088, Note_off_c, 6, 62, 80
7, 190088, Note_off_c, 6, 55, 96
7, 190088, Note_off_c, 6, 71, 91
7, 190272, Note_on_c, 6, 71, 91
7, 190272, Note_on_c, 6, 55, 100
7, 190272, Note_on_c, 6, 62, 82
7, 190272, Note_on_c, 6, 67, 76
7, 190280, Note_off_c, 6, 67, 76
7, 190280, Note_off_c, 6, 62, 82
7, 190280, Note_off_c, 6, 55, 100
7, 190280, Note_off_c, 6, 71, 91
7, 190408, Control_c, 6, 64, 0
7, 190464, Note_on_c, 6, 55, 97
7, 190464, Note_on_c, 6, 71, 96
7, 190464, Note_on_c, 6, 67, 74
7, 190464, Note_on_c, 6, 62, 79
7, 190472, Note_off_c, 6, 62, 79
7, 190472, Note_off_c, 6, 67, 74
7, 190472, Note_off_c, 6, 71, 96
7, 190472, Note_off_c, 6, 55, 97
7, 190656, Note_on_c, 6, 55, 81
7, 190656, Note_on_c, 6, 62, 68
7, 190656, Note_on_c, 6, 71, 67
7, 190656, Note_on_c, 6, 67, 77
7, 190664, Note_off_c, 6, 67, 77
7, 190664, Note_off_c, 6, 71, 67
7, 190664, Note_off_c, 6, 62, 68
7, 190664, Note_off_c, 6, 55, 81
7, 190752, Note_on_c, 6, 71, 90
7, 190752, Note_on_c, 6, 67, 80
7, 190752, Note_on_c, 6, 62, 86
7, 190752, Note_on_c, 6, 55, 78
7, 190760, Note_off_c, 6, 55, 78
7, 190760, Note_off_c, 6, 62, 86
7, 190760, Note_off_c, 6, 67, 80
7, 190760, Note_off_c, 6, 71, 90
7, 190848, Note_on_c, 6, 62, 73
7, 190848, Note_on_c, 6, 55, 93
7, 190848, Note_on_c, 6, 67, 82
7, 190848, Note_on_c, 6, 71, 79
7, 190856, Note_off_c, 6, 71, 79
7, 190856, Note_off_c, 6, 67, 82
7, 190856, Note_off_c, 6, 55, 93
7, 190856, Note_off_c, 6, 62, 73
7, 191028, Control_c, 6, 64, 127
7, 191040, Note_on_c, 6, 67, 96
7, 191040, Note_on_c, 6, 71, 95
7, 191040, Note_on_c, 6, 55, 94
7, 191040, Note_on_c, 6, 62, 83
7, 191048, Note_off_c, 6, 62, 83
7, 191048, Note_off_c, 6, 55, 94
7, 191048, Note_off_c, 6, 71, 95
7, 191048, Note_off_c, 6, 67, 96
7, 191424, Note_on_c, 6, 62, 85
7, 191424, Note_on_c, 6, 71, 87
7, 191424, Note_on_c, 6, 55, 96
7, 191424, Note_on_c, 6, 67, 80
7, 191432, Note_off_c, 6, 67, 80
7, 191432, Note_off_c, 6, 55, 96
7, 191432, Note_off_c, 6, 71, 87
7, 191432, Note_off_c, 6, 62, 85
7, 191616, Note_on_c, 6, 71, 91
7, 191616, Note_on_c, 6, 55, 96
7, 191616, Note_on_c, 6, 62, 80
7, 191616, Note_on_c, 6, 67, 78
7, 191624, Note_off_c, 6, 67, 78
7, 191624, Note_off_c, 6, 62, 80
7, 191624, Note_off_c, 6, 55, 96
7, 191624, Note_off_c, 6, 71, 91
7, 191808, Note_on_c, 6, 71, 91
7, 191808, Note_on_c, 6, 55, 100
7, 191808, Note_on_c, 6, 62, 82
7, 191808, Note_on_c, 6, 67, 76
7, 191816, Note_off_c, 6, 67, 76
7, 191816, Note_off_c, 6, 62, 82
7, 191816, Note_off_c, 6, 55, 100
7, 191816, Note_off_c, 6, 71, 91
7, 191944, Control_c, 6, 64, 0
7, 192000, Control_c, 6, 64, 127
7, 192000, Note_on_c, 6, 72, 89
7, 192000, Note_on_c, 6, 63, 89
7, 192000, Note_on_c, 6, 67, 100
7, 192000, Note_on_c, 6, 60, 96
7, 192008, Note_off_c, 6, 60, 96
7, 192008, Note_off_c, 6, 67, 100
7, 192008, Note_off_c, 6, 63, 89
7, 192008, Note_off_c, 6, 72, 89
7, 192192, Note_on_c, 6, 60, 84
7, 192192, Note_on_c, 6, 67, 88
7, 192192, Note_on_c, 6, 72, 84
7, 192192, Note_on_c, 6, 63, 71
7, 192200, Note_off_c, 6, 63, 71
7, 192200, Note_off_c, 6, 72, 84
7, 192200, Note_off_c, 6, 67, 88
7, 192200, Note_off_c, 6, 60, 84
7, 192288, Note_on_c, 6, 63, 73
7, 192288, Note_on_c, 6, 67, 81
7, 192288, Note_on_c, 6, 72, 79
7, 192288, Note_on_c, 6, 60, 76
7, 192296, Note_off_c, 6, 60, 76
7, 192296, Note_off_c, 6, 72, 79
7, 192296, Note_off_c, 6, 67, 81
7, 192296, Note_off_c, 6, 63, 73
7, 192384, Note_on_c, 6, 63, 74
7, 192384, Note_on_c, 6, 72, 79
7, 192384, Note_on_c, 6, 67, 85
7, 192384, Note_on_c, 6, 60, 82
7, 192392, Note_off_c, 6, 60, 82
7, 192392, Note_off_c, 6, 67, 85
7, 192392, Note_off_c, 6, 72, 79
7, 192392, Note_off_c, 6, 63, 74
7, 192428, Control_c, 6, 64, 0
7, 192572, Control_c, 6, 64, 127
7, 192576, Note_on_c, 6, 60, 96
7, 192576, Note_on_c, 6, 72, 96
7, 192576, Note_on_c, 6, 63, 89
7, 192576, Note_on_c, 6, 67, 93
7, 192584, Note_off_c, 6, 67, 93
7, 192584, Note_off_c, 6, 63, 89
7, 192584, Note_off_c, 6, 72, 96
7, 192584, Note_off_c, 6, 60, 96
7, 192960, Note_on_c, 6, 60, 84
7, 192960, Note_on_c, 6, 63, 82
7, 192960, Note_on_c, 6, 67, 88
7, 192960, Note_on_c, 6, 72, 88
7, 192968, Note_off_c, 6, 72, 88
7, 192968, Note_off_c, 6, 67, 88
7, 192968, Note_off_c, 6, 63, 82
7, 192968, Note_off_c, 6, 60, 84
7, 193012, Control_c, 6, 64, 0
7, 193152, Control_c, 6, 64, 127
7, 193152, Note_on_c, 6, 60, 86
7, 193152, Note_on_c, 6, 72, 79
7, 193152, Note_on_c, 6, 63, 68
7, 193152, Note_on_c, 6, 67, 84
7, 193160, Note_off_c, 6, 67, 84
7, 193160, Note_off_c, 6, 63, 68
7, 193160, Note_off_c, 6, 72, 79
7, 193160, Note_off_c, 6, 60, 86
7, 193344, Note_on_c, 6, 72, 96
7, 193344, Note_on_c, 6, 63, 88
7, 193344, Note_on_c, 6, 60, 93
7, 193344, Note_on_c, 6, 67, 81
7, 193352, Note_off_c, 6, 67, 81
7, 193352, Note_off_c, 6, 60, 93
7, 193352, Note_off_c, 6, 63, 88
7, 193352, Note_off_c, 6, 72, 96
7, 193376, Control_c, 6, 64, 0
7, 193520, Control_c, 6, 64, 127
7, 193536, Note_on_c, 6, 55, 98
7, 193536, Note_on_c, 6, 70, 83
7, 193536, Note_on_c, 6, 62, 80
7, 193536, Note_on_c, 6, 67, 78
7, 193544, Note_off_c, 6, 67, 78
7, 193544, Note_off_c, 6, 62, 80
7, 193544, Note_off_c, 6, 70, 83
7, 193544, Note_off_c, 6, 55, 98
7, 193728, Note_on_c, 6, 55, 91
7, 193728, Note_on_c, 6, 62, 72
7, 193728, Note_on_c, 6, 70, 69
7, 193728, Note_on_c, 6, 67, 63
7, 193736, Note_off_c, 6, 67, 63
7, 193736, Note_off_c, 6, 70, 69
7, 193736, Note_off_c, 6, 62, 72
7, 193736, Note_off_c, 6, 55, 91
7, 193824, Note_on_c, 6, 55, 79
7, 193824, Note_on_c, 6, 62, 71
7, 193824, Note_on_c, 6, 67, 64
7, 193824, Note_on_c, 6, 70, 49
7, 193832, Note_off_c, 6, 70, 49
7, 193832, Note_off_c, 6, 67, 64
7, 193832, Note_off_c, 6, 62, 71
7, 193832, Note_off_c, 6, 55, 79
7, 193920, Note_on_c, 6, 55, 90
7, 193920, Note_on_c, 6, 70, 64
7, 193920, Note_on_c, 6, 62, 33
7, 193920, Note_on_c, 6, 67, 37
7, 193928, Note_off_c, 6, 67, 37
7, 193928, Note_off_c, 6, 62, 33
7, 193928, Note_off_c, 6, 70, 64
7, 193928, Note_off_c, 6, 55, 90
7, 193936, Control_c, 6, 64, 0
7, 194068, Control_c, 6, 64, 127
7, 194112, Note_on_c, 6, 70, 90
7, 194112, Note_on_c, 6, 55, 98
7, 194112, Note_on_c, 6, 62, 85
7, 194112, Note_on_c, 6, 67, 74
7, 194120, Note_off_c, 6, 67, 74
7, 194120, Note_off_c, 6, 62, 85
7, 194120, Note_off_c, 6, 55, 98
7, 194120, Note_off_c, 6, 70, 90
7, 194496, Note_on_c, 6, 62, 86
7, 194496, Note_on_c, 6, 55, 90
7, 194496, Note_on_c, 6, 70, 75
7, 194496, Note_on_c, 6, 67, 75
7, 194504, Note_off_c, 6, 67, 75
7, 194504, Note_off_c, 6, 70, 75
7, 194504, Note_off_c, 6, 55, 90
7, 194504, Note_off_c, 6, 62, 86
7, 194528, Control_c, 6, 64, 0
7, 194640, Control_c, 6, 64, 127
7, 194688, Note_on_c, 6, 55, 87
7, 194688, Note_on_c, 6, 70, 79
7, 194688, Note_on_c, 6, 62, 78
7, 194688, Note_on_c, 6, 67, 75
7, 194696, Note_off_c, 6, 67, 75
7, 194696, Note_off_c, 6, 62, 78
7, 194696, Note_off_c, 6, 70, 79
7, 194696, Note_off_c, 6, 55, 87
7, 194880, Note_on_c, 6, 62, 76
7, 194880, Note_on_c, 6, 55, 97
7, 194880, Note_on_c, 6, 70, 71
7, 194880, Note_on_c, 6, 67, 68
7, 194888, Note_off_c, 6, 67, 68
7, 194888, Note_off_c, 6, 70, 71
7, 194888, Note_off_c, 6, 55, 97
7, 194888, Note_off_c, 6, 62, 76
7, 194896, Control_c, 6, 64, 0
7, 195040, Control_c, 6, 64, 127
7, 195072, Note_on_c, 6, 67, 97
7, 195072, Note_on_c, 6, 60, 92
7, 195072, Note_on_c, 6, 63, 79
7, 195072, Note_on_c, 6, 72, 90
7, 195080, Note_off_c, 6, 72, 90
7, 195080, Note_off_c, 6, 63, 79
7, 195080, Note_off_c, 6, 60, 92
7, 195080, Note_off_c, 6, 67, 97
7, 195264, Note_on_c, 6, 60, 79
7, 195264, Note_on_c, 6, 67, 87
7, 195264, Note_on_c, 6, 72, 84
7, 195264, Note_on_c, 6, 63, 74
7, 195272, Note_off_c, 6, 63, 74
7, 195272, Note_off_c, 6, 72, 84
7, 195272, Note_off_c, 6, 67, 87
7, 195272, Note_off_c, 6, 60, 79
7, 195360, Note_on_c, 6, 63, 67
7, 195360, Note_on_c, 6, 67, 61
7, 195360, Note_on_c, 6, 72, 73
7, 195360, Note_on_c, 6, 60, 61
7, 195368, Note_off_c, 6, 60, 61
7, 195368, Note_off_c, 6, 72, 73
7, 195368, Note_off_c, 6, 67, 61
7, 195368, Note_off_c, 6, 63, 67
7, 195456, Note_on_c, 6, 72, 74
7, 195456, Note_on_c, 6, 67, 85
7, 195456, Note_on_c, 6, 60, 77
7, 195456, Note_on_c, 6, 63, 57
7, 195464, Note_off_c, 6, 63, 57
7, 195464, Note_off_c, 6, 60, 77
7, 195464, Note_off_c, 6, 67, 85
7, 195464, Note_off_c, 6, 72, 74
7, 195500, Control_c, 6, 64, 0
7, 195620, Control_c, 6, 64, 127
7, 195648, Note_on_c, 6, 60, 92
7, 195648, Note_on_c, 6, 63, 85
7, 195648, Note_on_c, 6, 67, 92
7, 195648, Note_on_c, 6, 72, 92
7, 195656, Note_off_c, 6, 72, 92
7, 195656, Note_off_c, 6, 67, 92
7, 195656, Note_off_c, 6, 63, 85
7, 195656, Note_off_c, 6, 60, 92
7, 196032, Note_on_c, 6, 60, 83
7, 196032, Note_on_c, 6, 72, 96
7, 196032, Note_on_c, 6, 63, 88
7, 196032, Note_on_c, 6, 67, 87
7, 196040, Note_off_c, 6, 67, 87
7, 196040, Note_off_c, 6, 63, 88
7, 196040, Note_off_c, 6, 72, 96
7, 196040, Note_off_c, 6, 60, 83
7, 196060, Control_c, 6, 64, 0
7, 196200, Control_c, 6, 64, 127
7, 196224, Note_on_c, 6, 60, 88
7, 196224, Note_on_c, 6, 72, 89
7, 196224, Note_on_c, 6, 63, 77
7, 196224, Note_on_c, 6, 67, 85
7, 196232, Note_off_c, 6, 67, 85
7, 196232, Note_off_c, 6, 63, 77
7, 196232, Note_off_c, 6, 72, 89
7, 196232, Note_off_c, 6, 60, 88
7, 196416, Note_on_c, 6, 60, 88
7, 196416, Note_on_c, 6, 72, 89
7, 196416, Note_on_c, 6, 63, 74
7, 196416, Note_on_c, 6, 67, 76
7, 196424, Note_off_c, 6, 67, 76
7, 196424, Note_off_c, 6, 63, 74
7, 196424, Note_off_c, 6, 72, 89
7, 196424, Note_off_c, 6, 60, 88
7, 196436, Control_c, 6, 64, 0
7, 196560, Control_c, 6, 64, 127
7, 196608, Note_on_c, 6, 62, 88
7, 196608, Note_on_c, 6, 55, 98
7, 196608, Note_on_c, 6, 67, 88
7, 196608, Note_on_c, 6, 70, 71
7, 196616, Note_off_c, 6, 70, 71
7, 196616, Note_off_c, 6, 67, 88
7, 196616, Note_off_c, 6, 55, 98
7, 196616, Note_off_c, 6, 62, 88
7, 196800, Note_on_c, 6, 55, 96
7, 196800, Note_on_c, 6, 70, 72
7, 196800, Note_on_c, 6, 62, 71
7, 196800, Note_on_c, 6, 67, 65
7, 196808, Note_off_c, 6, 67, 65
7, 196808, Note_off_c, 6, 62, 71
7, 196808, Note_off_c, 6, 70, 72
7, 196808, Note_off_c, 6, 55, 96
7, 196896, Note_on_c, 6, 62, 65
7, 196896, Note_on_c, 6, 55, 95
7, 196896, Note_on_c, 6, 67, 57
7, 196904, Note_off_c, 6, 67, 57
7, 196904, Note_off_c, 6, 55, 95
7, 196904, Note_off_c, 6, 62, 65
7, 196992, Note_on_c, 6, 55, 91
7, 196992, Note_on_c, 6, 67, 54
7, 196992, Note_on_c, 6, 62, 32
7, 196992, Note_on_c, 6, 70, 47
7, 197000, Note_off_c, 6, 70, 47
7, 197000, Note_off_c, 6, 62, 32
7, 197000, Note_off_c, 6, 67, 54
7, 197000, Note_off_c, 6, 55, 91
7, 197016, Control_c, 6, 64, 0
7, 197180, Control_c, 6, 64, 127
7, 197184, Note_on_c, 6, 62, 89
7, 197184, Note_on_c, 6, 70, 86
7, 197184, Note_on_c, 6, 55, 98
7, 197184, Note_on_c, 6, 67, 77
7, 197192, Note_off_c, 6, 67, 77
7, 197192, Note_off_c, 6, 55, 98
7, 197192, Note_off_c, 6, 70, 86
7, 197192, Note_off_c, 6, 62, 89
7, 197568, Note_on_c, 6, 55, 97
7, 197568, Note_on_c, 6, 62, 90
7, 197568, Note_on_c, 6, 67, 89
7, 197568, Note_on_c, 6, 70, 74
7, 197576, Note_off_c, 6, 70, 74
7, 197576, Note_off_c, 6, 67, 89
7, 197576, Note_off_c, 6, 62, 90
7, 197576, Note_off_c, 6, 55, 97
7, 197608, Control_c, 6, 64, 0
7, 197748, Control_c, 6, 64, 127
7, 197760, Note_on_c, 6, 55, 93
7, 197760, Note_on_c, 6, 62, 85
7, 197760, Note_on_c, 6, 67, 77
7, 197760, Note_on_c, 6, 70, 64
7, 197768, Note_off_c, 6, 70, 64
7, 197768, Note_off_c, 6, 67, 77
7, 197768, Note_off_c, 6, 62, 85
7, 197768, Note_off_c, 6, 55, 93
7, 197952, Note_on_c, 6, 70, 79
7, 197952, Note_on_c, 6, 55, 98
7, 197952, Note_on_c, 6, 62, 85
7, 197952, Note_on_c, 6, 67, 71
7, 197960, Note_off_c, 6, 67, 71
7, 197960, Note_off_c, 6, 62, 85
7, 197960, Note_off_c, 6, 55, 98
7, 197960, Note_off_c, 6, 70, 79
7, 197980, Control_c, 6, 64, 0
7, 198120, Control_c, 6, 64, 127
7, 198144, Note_on_c, 6, 58, 93
7, 198144, Note_on_c, 6, 65, 89
7, 198144, Note_on_c, 6, 63, 88
7, 198152, Note_off_c, 6, 63, 88
7, 198152, Note_off_c, 6, 65, 89
7, 198152, Note_off_c, 6, 58, 93
7, 198528, Note_on_c, 6, 65, 93
7, 198528, Note_on_c, 6, 63, 83
7, 198528, Note_on_c, 6, 58, 88
7, 198536, Note_off_c, 6, 58, 88
7, 198536, Note_off_c, 6, 63, 83
7, 198536, Note_off_c, 6, 65, 93
7, 198748, Control_c, 6, 64, 0
7, 198816, Note_on_c, 6, 63, 68
7, 198816, Note_on_c, 6, 65, 71
7, 198816, Note_on_c, 6, 58, 74
7, 198824, Note_off_c, 6, 58, 74
7, 198824, Note_off_c, 6, 65, 71
7, 198824, Note_off_c, 6, 63, 68
7, 198884, Control_c, 6, 64, 127
7, 198912, Note_on_c, 6, 62, 93
7, 198912, Note_on_c, 6, 65, 86
7, 198912, Note_on_c, 6, 58, 92
7, 198920, Note_off_c, 6, 58, 92
7, 198920, Note_off_c, 6, 65, 86
7, 198920, Note_off_c, 6, 62, 93
7, 198948, Control_c, 6, 64, 0
7, 199092, Control_c, 6, 64, 127
7, 199104, Note_on_c, 6, 58, 94
7, 199104, Note_on_c, 6, 62, 90
7, 199104, Note_on_c, 6, 65, 82
7, 199112, Note_off_c, 6, 65, 82
7, 199112, Note_off_c, 6, 62, 90
7, 199112, Note_off_c, 6, 58, 94
7, 199488, Note_on_c, 6, 62, 86
7, 199488, Note_on_c, 6, 58, 80
7, 199488, Note_on_c, 6, 65, 75
7, 199496, Note_off_c, 6, 65, 75
7, 199496, Note_off_c, 6, 58, 80
7, 199496, Note_off_c, 6, 62, 86
7, 199504, Control_c, 6, 64, 0
7, 199644, Control_c, 6, 64, 127
7, 199680, Note_on_c, 6, 58, 93
7, 199680, Note_on_c, 6, 65, 91
7, 199680, Note_on_c, 6, 63, 90
7, 199688, Note_off_c, 6, 63, 90
7, 199688, Note_off_c, 6, 65, 91
7, 199688, Note_off_c, 6, 58, 93
7, 200064, Note_on_c, 6, 65, 94
7, 200064, Note_on_c, 6, 58, 89
7, 200064, Note_on_c, 6, 63, 83
7, 200072, Note_off_c, 6, 63, 83
7, 200072, Note_off_c, 6, 58, 89
7, 200072, Note_off_c, 6, 65, 94
7, 200324, Control_c, 6, 64, 0
7, 200352, Note_on_c, 6, 63, 81
7, 200352, Note_on_c, 6, 65, 85
7, 200352, Note_on_c, 6, 58, 70
7, 200360, Note_off_c, 6, 58, 70
7, 200360, Note_off_c, 6, 65, 85
7, 200360, Note_off_c, 6, 63, 81
7, 200448, Note_on_c, 6, 58, 73
7, 200448, Note_on_c, 6, 65, 79
7, 200448, Note_on_c, 6, 62, 86
7, 200456, Note_off_c, 6, 62, 86
7, 200456, Note_off_c, 6, 65, 79
7, 200456, Note_off_c, 6, 58, 73
7, 200456, Control_c, 6, 64, 127
7, 200496, Control_c, 6, 64, 0
7, 200620, Control_c, 6, 64, 127
7, 200640, Note_on_c, 6, 62, 91
7, 200640, Note_on_c, 6, 65, 87
7, 200640, Note_on_c, 6, 58, 92
7, 200648, Note_off_c, 6, 58, 92
7, 200648, Note_off_c, 6, 65, 87
7, 200648, Note_off_c, 6, 62, 91
7, 200832, Note_on_c, 6, 65, 81
7, 200832, Note_on_c, 6, 58, 79
7, 200832, Note_on_c, 6, 62, 69
7, 200840, Note_off_c, 6, 62, 69
7, 200840, Note_off_c, 6, 58, 79
7, 200840, Note_off_c, 6, 65, 81
7, 201024, Note_on_c, 6, 58, 90
7, 201024, Note_on_c, 6, 65, 88
7, 201024, Note_on_c, 6, 62, 80
7, 201028, Control_c, 6, 64, 0
7, 201032, Note_off_c, 6, 62, 80
7, 201032, Note_off_c, 6, 65, 88
7, 201032, Note_off_c, 6, 58, 90
7, 201188, Control_c, 6, 64, 127
7, 201216, Note_on_c, 6, 67, 103
7, 201216, Note_on_c, 6, 60, 98
7, 201216, Note_on_c, 6, 63, 95
7, 201216, Note_on_c, 6, 72, 96
7, 201224, Note_off_c, 6, 72, 96
7, 201224, Note_off_c, 6, 63, 95
7, 201224, Note_off_c, 6, 60, 98
7, 201224, Note_off_c, 6, 67, 103
7, 201408, Note_on_c, 6, 60, 88
7, 201408, Note_on_c, 6, 67, 90
7, 201408, Note_on_c, 6, 63, 78
7, 201408, Note_on_c, 6, 72, 75
7, 201416, Note_off_c, 6, 72, 75
7, 201416, Note_off_c, 6, 63, 78
7, 201416, Note_off_c, 6, 67, 90
7, 201416, Note_off_c, 6, 60, 88
7, 201504, Note_on_c, 6, 67, 87
7, 201504, Note_on_c, 6, 63, 80
7, 201504, Note_on_c, 6, 72, 89
7, 201504, Note_on_c, 6, 60, 79
7, 201512, Note_off_c, 6, 60, 79
7, 201512, Note_off_c, 6, 72, 89
7, 201512, Note_off_c, 6, 63, 80
7, 201512, Note_off_c, 6, 67, 87
7, 201600, Note_on_c, 6, 72, 78
7, 201600, Note_on_c, 6, 63, 74
7, 201600, Note_on_c, 6, 67, 96
7, 201600, Note_on_c, 6, 60, 92
7, 201608, Note_off_c, 6, 60, 92
7, 201608, Note_off_c, 6, 67, 96
7, 201608, Note_off_c, 6, 63, 74
7, 201608, Note_off_c, 6, 72, 78
7, 201668, Control_c, 6, 64, 0
7, 201792, Note_on_c, 6, 67, 100
7, 201792, Note_on_c, 6, 63, 94
7, 201792, Note_on_c, 6, 72, 100
7, 201792, Note_on_c, 6, 60, 94
7, 201796, Control_c, 6, 64, 127
7, 201800, Note_off_c, 6, 60, 94
7, 201800, Note_off_c, 6, 72, 100
7, 201800, Note_off_c, 6, 63, 94
7, 201800, Note_off_c, 6, 67, 100
7, 202176, Note_on_c, 6, 63, 87
7, 202176, Note_on_c, 6, 67, 95
7, 202176, Note_on_c, 6, 60, 84
7, 202176, Note_on_c, 6, 72, 86
7, 202184, Note_off_c, 6, 72, 86
7, 202184, Note_off_c, 6, 60, 84
7, 202184, Note_off_c, 6, 67, 95
7, 202184, Note_off_c, 6, 63, 87
7, 202368, Note_on_c, 6, 60, 91
7, 202368, Note_on_c, 6, 63, 88
7, 202368, Note_on_c, 6, 67, 93
7, 202368, Note_on_c, 6, 72, 92
7, 202376, Note_off_c, 6, 72, 92
7, 202376, Note_off_c, 6, 67, 93
7, 202376, Note_off_c, 6, 63, 88
7, 202376, Note_off_c, 6, 60, 91
7, 202552, Control_c, 6, 64, 0
7, 202560, Note_on_c, 6, 60, 87
7, 202560, Note_on_c, 6, 67, 97
7, 202560, Note_on_c, 6, 63, 85
7, 202560, Note_on_c, 6, 72, 84
7, 202568, Note_off_c, 6, 72, 84
7, 202568, Note_off_c, 6, 63, 85
7, 202568, Note_off_c, 6, 67, 97
7, 202568, Note_off_c, 6, 60, 87
7, 202728, Control_c, 6, 64, 127
7, 202752, Note_on_c, 6, 72, 96
7, 202752, Note_on_c, 6, 63, 79
7, 202752, Note_on_c, 6, 56, 97
7, 202752, Note_on_c, 6, 68, 74
7, 202760, Note_off_c, 6, 68, 74
7, 202760, Note_off_c, 6, 56, 97
7, 202760, Note_off_c, 6, 63, 79
7, 202760, Note_off_c, 6, 72, 96
7, 202944, Note_on_c, 6, 56, 81
7, 202944, Note_on_c, 6, 63, 68
7, 202944, Note_on_c, 6, 68, 77
7, 202944, Note_on_c, 6, 72, 67
7, 202952, Note_off_c, 6, 72, 67
7, 202952, Note_off_c, 6, 68, 77
7, 202952, Note_off_c, 6, 63, 68
7, 202952, Note_off_c, 6, 56, 81
7, 203040, Note_on_c, 6, 72, 90
7, 203040, Note_on_c, 6, 63, 86
7, 203040, Note_on_c, 6, 56, 78
7, 203040, Note_on_c, 6, 68, 80
7, 203048, Note_off_c, 6, 68, 80
7, 203048, Note_off_c, 6, 56, 78
7, 203048, Note_off_c, 6, 63, 86
7, 203048, Note_off_c, 6, 72, 90
7, 203108, Control_c, 6, 64, 0
7, 203136, Note_on_c, 6, 63, 73
7, 203136, Note_on_c, 6, 72, 79
7, 203136, Note_on_c, 6, 56, 93
7, 203136, Note_on_c, 6, 68, 82
7, 203144, Note_off_c, 6, 68, 82
7, 203144, Note_off_c, 6, 56, 93
7, 203144, Note_off_c, 6, 72, 79
7, 203144, Note_off_c, 6, 63, 73
7, 203316, Control_c, 6, 64, 127
7, 203328, Note_on_c, 6, 67, 96
7, 203328, Note_on_c, 6, 71, 95
7, 203328, Note_on_c, 6, 55, 94
7, 203328, Note_on_c, 6, 62, 83
7, 203336, Note_off_c, 6, 62, 83
7, 203336, Note_off_c, 6, 55, 94
7, 203336, Note_off_c, 6, 71, 95
7, 203336, Note_off_c, 6, 67, 96
7, 203712, Note_on_c, 6, 62, 85
7, 203712, Note_on_c, 6, 71, 87
7, 203712, Note_on_c, 6, 55, 96
7, 203712, Note_on_c, 6, 67, 80
7, 203720, Note_off_c, 6, 67, 80
7, 203720, Note_off_c, 6, 55, 96
7, 203720, Note_off_c, 6, 71, 87
7, 203720, Note_off_c, 6, 62, 85
7, 203904, Note_on_c, 6, 71, 91
7, 203904, Note_on_c, 6, 55, 96
7, 203904, Note_on_c, 6, 62, 80
7, 203904, Note_on_c, 6, 67, 78
7, 203912, Note_off_c, 6, 67, 78
7, 203912, Note_off_c, 6, 62, 80
7, 203912, Note_off_c, 6, 55, 96
7, 203912, Note_off_c, 6, 71, 91
7, 204096, Note_on_c, 6, 71, 91
7, 204096, Note_on_c, 6, 55, 100
7, 204096, Note_on_c, 6, 62, 82
7, 204096, Note_on_c, 6, 67, 76
7, 204104, Note_off_c, 6, 67, 76
7, 204104, Note_off_c, 6, 62, 82
7, 204104, Note_off_c, 6, 55, 100
7, 204104, Note_off_c, 6, 71, 91
7, 204232, Control_c, 6, 64, 0
7, 204288, Control_c, 6, 64, 127
7, 204288, Note_on_c, 6, 72, 89
7, 204288, Note_on_c, 6, 63, 89
7, 204288, Note_on_c, 6, 67, 100
7, 204288, Note_on_c, 6, 60, 96
7, 204296, Note_off_c, 6, 60, 96
7, 204296, Note_off_c, 6, 67, 100
7, 204296, Note_off_c, 6, 63, 89
7, 204296, Note_off_c, 6, 72, 89
7, 204480, Note_on_c, 6, 60, 84
7, 204480, Note_on_c, 6, 67, 88
7, 204480, Note_on_c, 6, 72, 84
7, 204480, Note_on_c, 6, 63, 71
7, 204488, Note_off_c, 6, 63, 71
7, 204488, Note_off_c, 6, 72, 84
7, 204488, Note_off_c, 6, 67, 88
7, 204488, Note_off_c, 6, 60, 84
7, 204576, Note_on_c, 6, 63, 73
7, 204576, Note_on_c, 6, 67, 81
7, 204576, Note_on_c, 6, 72, 79
7, 204576, Note_on_c, 6, 60, 76
7, 204584, Note_off_c, 6, 60, 76
7, 204584, Note_off_c, 6, 72, 79
7, 204584, Note_off_c, 6, 67, 81
7, 204584, Note_off_c, 6, 63, 73
7, 204672, Note_on_c, 6, 63, 74
7, 204672, Note_on_c, 6, 72, 79
7, 204672, Note_on_c, 6, 67, 85
7, 204672, Note_on_c, 6, 60, 82
7, 204680, Note_off_c, 6, 60, 82
7, 204680, Note_off_c, 6, 67, 85
7, 204680, Note_off_c, 6, 72, 79
7, 204680, Note_off_c, 6, 63, 74
7, 204716, Control_c, 6, 64, 0
7, 204860, Control_c, 6, 64, 127
7, 204864, Note_on_c, 6, 60, 96
7, 204864, Note_on_c, 6, 72, 96
7, 204864, Note_on_c, 6, 63, 89
7, 204864, Note_on_c, 6, 67, 93
7, 204872, Note_off_c, 6, 67, 93
7, 204872, Note_off_c, 6, 63, 89
7, 204872, Note_off_c, 6, 72, 96
7, 204872, Note_off_c, 6, 60, 96
7, 205248, Note_on_c, 6, 60, 84
7, 205248, Note_on_c, 6, 63, 82
7, 205248, Note_on_c, 6, 67, 88
7, 205248, Note_on_c, 6, 72, 88
7, 205256, Note_off_c, 6, 72, 88
7, 205256, Note_off_c, 6, 67, 88
7, 205256, Note_off_c, 6, 63, 82
7, 205256, Note_off_c, 6, 60, 84
7, 205300, Control_c, 6, 64, 0
7, 205440, Control_c, 6, 64, 127
7, 205440, Note_on_c, 6, 60, 86
7, 205440, Note_on_c, 6, 72, 79
7, 205440, Note_on_c, 6, 63, 68
7, 205440, Note_on_c, 6, 67, 84
7, 205448, Note_off_c, 6, 67, 84
7, 205448, Note_off_c, 6, 63, 68
7, 205448, Note_off_c, 6, 72, 79
7, 205448, Note_off_c, 6, 60, 86
7, 205632, Note_on_c, 6, 72, 96
7, 205632, Note_on_c, 6, 63, 88
7, 205632, Note_on_c, 6, 60, 93
7, 205632, Note_on_c, 6, 67, 81
7, 205640, Note_off_c, 6, 67, 81
7, 205640, Note_off_c, 6, 60, 93
7, 205640, Note_off_c, 6, 63, 88
7, 205640, Note_off_c, 6, 72, 96
7, 205664, Control_c, 6, 64, 0
7, 205808, Control_c, 6, 64, 127
7, 205824, Note_on_c, 6, 55, 98
7, 205824, Note_on_c, 6, 70, 83
7, 205824, Note_on_c, 6, 62, 80
7, 205824, Note_on_c, 6, 67, 78
7, 205832, Note_off_c, 6, 67, 78
7, 205832, Note_off_c, 6, 62, 80
7, 205832, Note_off_c, 6, 70, 83
7, 205832, Note_off_c, 6, 55, 98
7, 206016, Note_on_c, 6, 55, 91
7, 206016, Note_on_c, 6, 62, 72
7, 206016, Note_on_c, 6, 70, 69
7, 206016, Note_on_c, 6, 67, 63
7, 206024, Note_off_c, 6, 67, 63
7, 206024, Note_off_c, 6, 70, 69
7, 206024, Note_off_c, 6, 62, 72
7, 206024, Note_off_c, 6, 55, 91
7, 206112, Note_on_c, 6, 55, 79
7, 206112, Note_on_c, 6, 62, 71
7, 206112, Note_on_c, 6, 67, 64
7, 206112, Note_on_c, 6, 70, 49
7, 206120, Note_off_c, 6, 70, 49
7, 206120, Note_off_c, 6, 67, 64
7, 206120, Note_off_c, 6, 62, 71
7, 206120, Note_off_c, 6, 55, 79
7, 206208, Note_on_c, 6, 55, 90
7, 206208, Note_on_c, 6, 70, 64
7, 206208, Note_on_c, 6, 62, 33
7, 206208, Note_on_c, 6, 67, 37
7, 206216, Note_off_c, 6, 67, 37
7, 206216, Note_off_c, 6, 62, 33
7, 206216, Note_off_c, 6, 70, 64
7, 206216, Note_off_c, 6, 55, 90
7, 206224, Control_c, 6, 64, 0
7, 206356, Control_c, 6, 64, 127
7, 206400, Note_on_c, 6, 70, 90
7, 206400, Note_on_c, 6, 55, 98
7, 206400, Note_on_c, 6, 62, 85
7, 206400, Note_on_c, 6, 67, 74
7, 206408, Note_off_c, 6, 67, 74
7, 206408, Note_off_c, 6, 62, 85
7, 206408, Note_off_c, 6, 55, 98
7, 206408, Note_off_c, 6, 70, 90
7, 206784, Note_on_c, 6, 62, 86
7, 206784, Note_on_c, 6, 55, 90
7, 206784, Note_on_c, 6, 70, 75
7, 206784, Note_on_c, 6, 67, 75
7, 206792, Note_off_c, 6, 67, 75
7, 206792, Note_off_c, 6, 70, 75
7, 206792, Note_off_c, 6, 55, 90
7, 206792, Note_off_c, 6, 62, 86
7, 206816, Control_c, 6, 64, 0
7, 206928, Control_c, 6, 64, 127
7, 206976, Note_on_c, 6, 55, 87
7, 206976, Note_on_c, 6, 70, 79
7, 206976, Note_on_c, 6, 62, 78
7, 206976, Note_on_c, 6, 67, 75
7, 206984, Note_off_c, 6, 67, 75
7, 206984, Note_off_c, 6, 62, 78
7, 206984, Note_off_c, 6, 70, 79
7, 206984, Note_off_c, 6, 55, 87
7, 207168, Note_on_c, 6, 62, 76
7, 207168, Note_on_c, 6, 55, 97
7, 207168, Note_on_c, 6, 70, 71
7, 207168, Note_on_c, 6, 67, 68
7, 207176, Note_off_c, 6, 67, 68
7, 207176, Note_off_c, 6, 70, 71
7, 207176, Note_off_c, 6, 55, 97
7, 207176, Note_off_c, 6, 62, 76
7, 207184, Control_c, 6, 64, 0
7, 207328, Control_c, 6, 64, 127
7, 207360, Note_on_c, 6, 67, 97
7, 207360, Note_on_c, 6, 60, 92
7, 207360, Note_on_c, 6, 63, 79
7, 207360, Note_on_c, 6, 72, 90
7, 207368, Note_off_c, 6, 72, 90
7, 207368, Note_off_c, 6, 63, 79
7, 207368, Note_off_c, 6, 60, 92
7, 207368, Note_off_c, 6, 67, 97
7, 207552, Note_on_c, 6, 60, 79
7, 207552, Note_on_c, 6, 67, 87
7, 207552, Note_on_c, 6, 72, 84
7, 207552, Note_on_c, 6, 63, 74
7, 207560, Note_off_c, 6, 63, 74
7, 207560, Note_off_c, 6, 72, 84
7, 207560, Note_off_c, 6, 67, 87
7, 207560, Note_off_c, 6, 60, 79
7, 207648, Note_on_c, 6, 63, 67
7, 207648, Note_on_c, 6, 67, 61
7, 207648, Note_on_c, 6, 72, 73
7, 207648, Note_on_c, 6, 60, 61
7, 207656, Note_off_c, 6, 60, 61
7, 207656, Note_off_c, 6, 72, 73
7, 207656, Note_off_c, 6, 67, 61
7, 207656, Note_off_c, 6, 63, 67
7, 207744, Note_on_c, 6, 72, 74
7, 207744, Note_on_c, 6, 67, 85
7, 207744, Note_on_c, 6, 60, 77
7, 207744, Note_on_c, 6, 63, 57
7, 207752, Note_off_c, 6, 63, 57
7, 207752, Note_off_c, 6, 60, 77
7, 207752, Note_off_c, 6, 67, 85
7, 207752, Note_off_c, 6, 72, 74
7, 207788, Control_c, 6, 64, 0
7, 207908, Control_c, 6, 64, 127
7, 207936, Note_on_c, 6, 60, 92
7, 207936, Note_on_c, 6, 63, 85
7, 207936, Note_on_c, 6, 67, 92
7, 207936, Note_on_c, 6, 72, 92
7, 207944, Note_off_c, 6, 72, 92
7, 207944, Note_off_c, 6, 67, 92
7, 207944, Note_off_c, 6, 63, 85
7, 207944, Note_off_c, 6, 60, 92
7, 208320, Note_on_c, 6, 60, 83
7, 208320, Note_on_c, 6, 72, 96
7, 208320, Note_on_c, 6, 63, 88
7, 208320, Note_on_c, 6, 67, 87
7, 208328, Note_off_c, 6, 67, 87
7, 208328, Note_off_c, 6, 63, 88
7, 208328, Note_off_c, 6, 72, 96
7, 208328, Note_off_c, 6, 60, 83
7, 208348, Control_c, 6, 64, 0
7, 208488, Control_c, 6, 64, 127
7, 208512, Note_on_c, 6, 60, 88
7, 208512, Note_on_c, 6, 72, 89
7, 208512, Note_on_c, 6, 63, 77
7, 208512, Note_on_c, 6, 67, 85
7, 208520, Note_off_c, 6, 67, 85
7, 208520, Note_off_c, 6, 63, 77
7, 208520, Note_off_c, 6, 72, 89
7, 208520, Note_off_c, 6, 60, 88
7, 208704, Note_on_c, 6, 60, 88
7, 208704, Note_on_c, 6, 72, 89
7, 208704, Note_on_c, 6, 63, 74
7, 208704, Note_on_c, 6, 67, 76
7, 208712, Note_off_c, 6, 67, 76
7, 208712, Note_off_c, 6, 63, 74
7, 208712, Note_off_c, 6, 72, 89
7, 208712, Note_off_c, 6, 60, 88
7, 208724, Control_c, 6, 64, 0
7, 208848, Control_c, 6, 64, 127
7, 208896, Note_on_c, 6, 62, 88
7, 208896, Note_on_c, 6, 55, 98
7, 208896, Note_on_c, 6, 67, 88
7, 208896, Note_on_c, 6, 70, 71
7, 208904, Note_off_c, 6, 70, 71
7, 208904, Note_off_c, 6, 67, 88
7, 208904, Note_off_c, 6, 55, 98
7, 208904, Note_off_c, 6, 62, 88
7, 209088, Note_on_c, 6, 55, 96
7, 209088, Note_on_c, 6, 70, 72
7, 209088, Note_on_c, 6, 62, 71
7, 209088, Note_on_c, 6, 67, 65
7, 209096, Note_off_c, 6, 67, 65
7, 209096, Note_off_c, 6, 62, 71
7, 209096, Note_off_c, 6, 70, 72
7, 209096, Note_off_c, 6, 55, 96
7, 209184, Note_on_c, 6, 62, 65
7, 209184, Note_on_c, 6, 55, 95
7, 209184, Note_on_c, 6, 67, 57
7, 209192, Note_off_c, 6, 67, 57
7, 209192, Note_off_c, 6, 55, 95
7, 209192, Note_off_c, 6, 62, 65
7, 209280, Note_on_c, 6, 55, 91
7, 209280, Note_on_c, 6, 67, 54
7, 209280, Note_on_c, 6, 62, 32
7, 209280, Note_on_c, 6, 70, 47
7, 209288, Note_off_c, 6, 70, 47
7, 209288, Note_off_c, 6, 62, 32
7, 209288, Note_off_c, 6, 67, 54
7, 209288, Note_off_c, 6, 55, 91
7, 209304, Control_c, 6, 64, 0
7, 209468, Control_c, 6, 64, 127
7, 209472, Note_on_c, 6, 62, 89
7, 209472, Note_on_c, 6, 70, 86
7, 209472, Note_on_c, 6, 55, 98
7, 209472, Note_on_c, 6, 67, 77
7, 209480, Note_off_c, 6, 67, 77
7, 209480, Note_off_c, 6, 55, 98
7, 209480, Note_off_c, 6, 70, 86
7, 209480, Note_off_c, 6, 62, 89
7, 209856, Note_on_c, 6, 55, 97
7, 209856, Note_on_c, 6, 62, 90
7, 209856, Note_on_c, 6, 67, 89
7, 209856, Note_on_c, 6, 70, 74
7, 209864, Note_off_c, 6, 70, 74
7, 209864, Note_off_c, 6, 67, 89
7, 209864, Note_off_c, 6, 62, 90
7, 209864, Note_off_c, 6, 55, 97
7, 209896, Control_c, 6, 64, 0
7, 210036, Control_c, 6, 64, 127
7, 210048, Note_on_c, 6, 55, 93
7, 210048, Note_on_c, 6, 62, 85
7, 210048, Note_on_c, 6, 67, 77
7, 210048, Note_on_c, 6, 70, 64
7, 210056, Note_off_c, 6, 70, 64
7, 210056, Note_off_c, 6, 67, 77
7, 210056, Note_off_c, 6, 62, 85
7, 210056, Note_off_c, 6, 55, 93
7, 210240, Note_on_c, 6, 70, 79
7, 210240, Note_on_c, 6, 55, 98
7, 210240, Note_on_c, 6, 62, 85
7, 210240, Note_on_c, 6, 67, 71
7, 210248, Note_off_c, 6, 67, 71
7, 210248, Note_off_c, 6, 62, 85
7, 210248, Note_off_c, 6, 55, 98
7, 210248, Note_off_c, 6, 70, 79
7, 210268, Control_c, 6, 64, 0
7, 210408, Control_c, 6, 64, 127
7, 210432, Note_on_c, 6, 58, 93
7, 210432, Note_on_c, 6, 65, 89
7, 210432, Note_on_c, 6, 63, 88
7, 210440, Note_off_c, 6, 63, 88
7, 210440, Note_off_c, 6, 65, 89
7, 210440, Note_off_c, 6, 58, 93
7, 210816, Note_on_c, 6, 65, 93
7, 210816, Note_on_c, 6, 63, 83
7, 210816, Note_on_c, 6, 58, 88
7, 210824, Note_off_c, 6, 58, 88
7, 210824, Note_off_c, 6, 63, 83
7, 210824, Note_off_c, 6, 65, 93
7, 211036, Control_c, 6, 64, 0
7, 211104, Note_on_c, 6, 63, 68
7, 211104, Note_on_c, 6, 65, 71
7, 211104, Note_on_c, 6, 58, 74
7, 211112, Note_off_c, 6, 58, 74
7, 211112, Note_off_c, 6, 65, 71
7, 211112, Note_off_c, 6, 63, 68
7, 211172, Control_c, 6, 64, 127
7, 211200, Note_on_c, 6, 62, 93
7, 211200, Note_on_c, 6, 65, 86
7, 211200, Note_on_c, 6, 58, 92
7, 211208, Note_off_c, 6, 58, 92
7, 211208, Note_off_c, 6, 65, 86
7, 211208, Note_off_c, 6, 62, 93
7, 211236, Control_c, 6, 64, 0
7, 211380, Control_c, 6, 64, 127
7, 211392, Note_on_c, 6, 58, 94
7, 211392, Note_on_c, 6, 62, 90
7, 211392, Note_on_c, 6, 65, 82
7, 211400, Note_off_c, 6, 65, 82
7, 211400, Note_off_c, 6, 62, 90
7, 211400, Note_off_c, 6, 58, 94
7, 211776, Note_on_c, 6, 62, 86
7, 211776, Note_on_c, 6, 58, 80
7, 211776, Note_on_c, 6, 65, 75
7, 211784, Note_off_c, 6, 65, 75
7, 211784, Note_off_c, 6, 58, 80
7, 211784, Note_off_c, 6, 62, 86
7, 211792, Control_c, 6, 64, 0
7, 211932, Control_c, 6, 64, 127
7, 211968, Note_on_c, 6, 58, 93
7, 211968, Note_on_c, 6, 65, 91
7, 211968, Note_on_c, 6, 63, 90
7, 211976, Note_off_c, 6, 63, 90
7, 211976, Note_off_c, 6, 65, 91
7, 211976, Note_off_c, 6, 58, 93
7, 212352, Note_on_c, 6, 65, 94
7, 212352, Note_on_c, 6, 58, 89
7, 212352, Note_on_c, 6, 63, 83
7, 212360, Note_off_c, 6, 63, 83
7, 212360, Note_off_c, 6, 58, 89
7, 212360, Note_off_c, 6, 65, 94
7, 212612, Control_c, 6, 64, 0
7, 212640, Note_on_c, 6, 63, 81
7, 212640, Note_on_c, 6, 65, 85
7, 212640, Note_on_c, 6, 58, 70
7, 212648, Note_off_c, 6, 58, 70
7, 212648, Note_off_c, 6, 65, 85
7, 212648, Note_off_c, 6, 63, 81
7, 212736, Note_on_c, 6, 58, 73
7, 212736, Note_on_c, 6, 65, 79
7, 212736, Note_on_c, 6, 62, 86
7, 212744, Note_off_c, 6, 62, 86
7, 212744, Note_off_c, 6, 65, 79
7, 212744, Note_off_c, 6, 58, 73
7, 212744, Control_c, 6, 64, 127
7, 212784, Control_c, 6, 64, 0
7, 212908, Control_c, 6, 64, 127
7, 212928, Note_on_c, 6, 62, 91
7, 212928, Note_on_c, 6, 65, 87
7, 212928, Note_on_c, 6, 58, 92
7, 212936, Note_off_c, 6, 58, 92
7, 212936, Note_off_c, 6, 65, 87
7, 212936, Note_off_c, 6, 62, 91
7, 213120, Note_on_c, 6, 65, 81
7, 213120, Note_on_c, 6, 58, 79
7, 213120, Note_on_c, 6, 62, 69
7, 213128, Note_off_c, 6, 62, 69
7, 213128, Note_off_c, 6, 58, 79
7, 213128, Note_off_c, 6, 65, 81
7, 213312, Note_on_c, 6, 58, 90
7, 213312, Note_on_c, 6, 65, 88
7, 213312, Note_on_c, 6, 62, 80
7, 213316, Control_c, 6, 64, 0
7, 213320, Note_off_c, 6, 62, 80
7, 213320, Note_off_c, 6, 65, 88
7, 213320, Note_off_c, 6, 58, 90
7, 213476, Control_c, 6, 64, 127
7, 213504, Note_on_c, 6, 67, 103
7, 213504, Note_on_c, 6, 60, 98
7, 213504, Note_on_c, 6, 63, 95
7, 213504, Note_on_c, 6, 72, 96
7, 213512, Note_off_c, 6, 72, 96
7, 213512, Note_off_c, 6, 63, 95
7, 213512, Note_off_c, 6, 60, 98
7, 213512, Note_off_c, 6, 67, 103
7, 213696, Note_on_c, 6, 60, 88
7, 213696, Note_on_c, 6, 67, 90
7, 213696, Note_on_c, 6, 63, 78
7, 213696, Note_on_c, 6, 72, 75
7, 213704, Note_off_c, 6, 72, 75
7, 213704, Note_off_c, 6, 63, 78
7, 213704, Note_off_c, 6, 67, 90
7, 213704, Note_off_c, 6, 60, 88
7, 213792, Note_on_c, 6, 67, 87
7, 213792, Note_on_c, 6, 63, 80
7, 213792, Note_on_c, 6, 72, 89
7, 213792, Note_on_c, 6, 60, 79
7, 213800, Note_off_c, 6, 60, 79
7, 213800, Note_off_c, 6, 72, 89
7, 213800, Note_off_c, 6, 63, 80
7, 213800, Note_off_c, 6, 67, 87
7, 213888, Note_on_c, 6, 72, 78
7, 213888, Note_on_c, 6, 63, 74
7, 213888, Note_on_c, 6, 67, 96
7, 213888, Note_on_c, 6, 60, 92
7, 213896, Note_off_c, 6, 60, 92
7, 213896, Note_off_c, 6, 67, 96
7, 213896, Note_off_c, 6, 63, 74
7, 213896, Note_off_c, 6, 72, 78
7, 213956, Control_c, 6, 64, 0
7, 214080, Note_on_c, 6, 67, 100
7, 214080, Note_on_c, 6, 63, 94
7, 214080, Note_on_c, 6, 72, 100
7, 214080, Note_on_c, 6, 60, 94
7, 214084, Control_c, 6, 64, 127
7, 214088, Note_off_c, 6, 60, 94
7, 214088, Note_off_c, 6, 72, 100
7, 214088, Note_off_c, 6, 63, 94
7, 214088, Note_off_c, 6, 67, 100
7, 214464, Note_on_c, 6, 63, 87
7, 214464, Note_on_c, 6, 67, 95
7, 214464, Note_on_c, 6, 60, 84
7, 214464, Note_on_c, 6, 72, 86
7, 214472, Note_off_c, 6, 72, 86
7, 214472, Note_off_c, 6, 60, 84
7, 214472, Note_off_c, 6, 67, 95
7, 214472, Note_off_c, 6, 63, 87
7, 214656, Note_on_c, 6, 60, 91
7, 214656, Note_on_c, 6, 63, 88
7, 214656, Note_on_c, 6, 67, 93
7, 214656, Note_on_c, 6, 72, 92
7, 214664, Note_off_c, 6, 72, 92
7, 214664, Note_off_c, 6, 67, 93
7, 214664, Note_off_c, 6, 63, 88
7, 214664, Note_off_c, 6, 60, 91
7, 214840, Control_c, 6, 64, 0
7, 214848, Note_on_c, 6, 60, 87
7, 214848, Note_on_c, 6, 67, 97
7, 214848, Note_on_c, 6, 63, 85
7, 214848, Note_on_c, 6, 72, 84
7, 214856, Note_off_c, 6, 72, 84
7, 214856, Note_off_c, 6, 63, 85
7, 214856, Note_off_c, 6, 67, 97
7, 214856, Note_off_c, 6, 60, 87
7, 215016, Control_c, 6, 64, 127
7, 215040, Note_on_c, 6, 72, 96
7, 215040, Note_on_c, 6, 63, 79
7, 215040, Note_on_c, 6, 56, 97
7, 215040, Note_on_c, 6, 68, 74
7, 215048, Note_off_c, 6, 68, 74
7, 215048, Note_off_c, 6, 56, 97
7, 215048, Note_off_c, 6, 63, 79
7, 215048, Note_off_c, 6, 72, 96
7, 215232, Note_on_c, 6, 56, 81
7, 215232, Note_on_c, 6, 63, 68
7, 215232, Note_on_c, 6, 68, 77
7, 215232, Note_on_c, 6, 72, 67
7, 215240, Note_off_c, 6, 72, 67
7, 215240, Note_off_c, 6, 68, 77
7, 215240, Note_off_c, 6, 63, 68
7, 215240, Note_off_c, 6, 56, 81
7, 215328, Note_on_c, 6, 72, 90
7, 215328, Note_on_c, 6, 63, 86
7, 215328, Note_on_c, 6, 56, 78
7, 215328, Note_on_c, 6, 68, 80
7, 215336, Note_off_c, 6, 68, 80
7, 215336, Note_off_c, 6, 56, 78
7, 215336, Note_off_c, 6, 63, 86
7, 215336, Note_off_c, 6, 72, 90
7, 215396, Control_c, 6, 64, 0
7, 215424, Note_on_c, 6, 63, 73
7, 215424, Note_on_c, 6, 72, 79
7, 215424, Note_on_c, 6, 56, 93
7, 215424, Note_on_c, 6, 68, 82
7, 215432, Note_off_c, 6, 68, 82
7, 215432, Note_off_c, 6, 56, 93
7, 215432, Note_off_c, 6, 72, 79
7, 215432, Note_off_c, 6, 63, 73
7, 215604, Control_c, 6, 64, 127
7, 215616, Note_on_c, 6, 67, 96
7, 215616, Note_on_c, 6, 71, 95
7, 215616, Note_on_c, 6, 55, 94
7, 215616, Note_on_c, 6, 62, 83
7, 215624, Note_off_c, 6, 62, 83
7, 215624, Note_off_c, 6, 55, 94
7, 215624, Note_off_c, 6, 71, 95
7, 215624, Note_off_c, 6, 67, 96
7, 216000, Note_on_c, 6, 62, 85
7, 216000, Note_on_c, 6, 71, 87
7, 216000, Note_on_c, 6, 55, 96
7, 216000, Note_on_c, 6, 67, 80
7, 216008, Note_off_c, 6, 67, 80
7, 216008, Note_off_c, 6, 55, 96
7, 216008, Note_off_c, 6, 71, 87
7, 216008, Note_off_c, 6, 62, 85
7, 216192, Note_on_c, 6, 71, 91
7, 216192, Note_on_c, 6, 55, 96
7, 216192, Note_on_c, 6, 62, 80
7, 216192, Note_on_c, 6, 67, 78
7, 216200, Note_off_c, 6, 67, 78
7, 216200, Note_off_c, 6, 62, 80
7, 216200, Note_off_c, 6, 55, 96
7, 216200, Note_off_c, 6, 71, 91
7, 216384, Note_on_c, 6, 71, 91
7, 216384, Note_on_c, 6, 55, 100
7, 216384, Note_on_c, 6, 62, 82
7, 216384, Note_on_c, 6, 67, 76
7, 216392, Note_off_c, 6, 67, 76
7, 216392, Note_off_c, 6, 62, 82
7, 216392, Note_off_c, 6, 55, 100
7, 216392, Note_off_c, 6, 71, 91
7, 216520, Control_c, 6, 64, 0
7, 216576, Note_on_c, 6, 71, 96
7, 216576, Note_on_c, 6, 67, 74
7, 216576, Note_on_c, 6, 62, 79
7, 216576, Note_on_c, 6, 55, 97
7, 216584, Note_off_c, 6, 55, 97
7, 216584, Note_off_c, 6, 62, 79
7, 216584, Note_off_c, 6, 67, 74
7, 216584, Note_off_c, 6, 71, 96
7, 216768, Note_on_c, 6, 55, 81
7, 216768, Note_on_c, 6, 71, 67
7, 216768, Note_on_c, 6, 67, 77
7, 216768, Note_on_c, 6, 62, 68
7, 216776, Note_off_c, 6, 62, 68
7, 216776, Note_off_c, 6, 67, 77
7, 216776, Note_off_c, 6, 71, 67
7, 216776, Note_off_c, 6, 55, 81
7, 216864, Note_on_c, 6, 71, 90
7, 216864, Note_on_c, 6, 67, 80
7, 216864, Note_on_c, 6, 62, 86
7, 216864, Note_on_c, 6, 55, 78
7, 216872, Note_off_c, 6, 55, 78
7, 216872, Note_off_c, 6, 62, 86
7, 216872, Note_off_c, 6, 67, 80
7, 216872, Note_off_c, 6, 71, 90
7, 216960, Note_on_c, 6, 62, 73
7, 216960, Note_on_c, 6, 55, 93
7, 216960, Note_on_c, 6, 67, 82
7, 216960, Note_on_c, 6, 71, 79
7, 216968, Note_off_c, 6, 71, 79
7, 216968, Note_off_c, 6, 67, 82
7, 216968, Note_off_c, 6, 55, 93
7, 216968, Note_off_c, 6, 62, 73
7, 217140, Control_c, 6, 64, 127
7, 217152, Note_on_c, 6, 67, 96
7, 217152, Note_on_c, 6, 71, 95
7, 217152, Note_on_c, 6, 55, 94
7, 217152, Note_on_c, 6, 62, 83
7, 217160, Note_off_c, 6, 62, 83
7, 217160, Note_off_c, 6, 55, 94
7, 217160, Note_off_c, 6, 71, 95
7, 217160, Note_off_c, 6, 67, 96
7, 217536, Note_on_c, 6, 62, 85
7, 217536, Note_on_c, 6, 71, 87
7, 217536, Note_on_c, 6, 55, 96
7, 217536, Note_on_c, 6, 67, 80
7, 217544, Note_off_c, 6, 67, 80
7, 217544, Note_off_c, 6, 55, 96
7, 217544, Note_off_c, 6, 71, 87
7, 217544, Note_off_c, 6, 62, 85
7, 217728, Note_on_c, 6, 71, 91
7, 217728, Note_on_c, 6, 55, 96
7, 217728, Note_on_c, 6, 62, 80
7, 217728, Note_on_c, 6, 67, 78
7, 217736, Note_off_c, 6, 67, 78
7, 217736, Note_off_c, 6, 62, 80
7, 217736, Note_off_c, 6, 55, 96
7, 217736, Note_off_c, 6, 71, 91
7, 217920, Note_on_c, 6, 71, 91
7, 217920, Note_on_c, 6, 55, 100
7, 217920, Note_on_c, 6, 62, 82
7, 217920, Note_on_c, 6, 67, 76
7, 217928, Note_off_c, 6, 67, 76
7, 217928, Note_off_c, 6, 62, 82
7, 217928, Note_off_c, 6, 55, 100
7, 217928, Note_off_c, 6, 71, 91
7, 218056, Control_c, 6, 64, 0
7, 218112, Control_c, 6, 64, 127
7, 218112, Note_on_c, 6, 72, 89
7, 218112, Note_on_c, 6, 63, 89
7, 218112, Note_on_c, 6, 67, 100
7, 218112, Note_on_c, 6, 60, 96
7, 218120, Note_off_c, 6, 60, 96
7, 218120, Note_off_c, 6, 67, 100
7, 218120, Note_off_c, 6, 63, 89
7, 218120, Note_off_c, 6, 72, 89
7, 218304, Note_on_c, 6, 60, 84
7, 218304, Note_on_c, 6, 67, 88
7, 218304, Note_on_c, 6, 72, 84
7, 218304, Note_on_c, 6, 63, 71
7, 218312, Note_off_c, 6, 63, 71
7, 218312, Note_off_c, 6, 72, 84
7, 218312, Note_off_c, 6, 67, 88
7, 218312, Note_off_c, 6, 60, 84
7, 218400, Note_on_c, 6, 63, 73
7, 218400, Note_on_c, 6, 67, 81
7, 218400, Note_on_c, 6, 72, 79
7, 218400, Note_on_c, 6, 60, 76
7, 218408, Note_off_c, 6, 60, 76
7, 218408, Note_off_c, 6, 72, 79
7, 218408, Note_off_c, 6, 67, 81
7, 218408, Note_off_c, 6, 63, 73
7, 218540, Control_c, 6, 64, 0
7, 218684, Control_c, 6, 64, 127
7, 218976, Control_c, 6, 64, 0
7, 221952, End_track
8, 0, Start_track
8, 0, Title_t, "GUITAR"
8, 524, Control_c, 7, 0, 0
8, 528, Control_c, 7, 121, 0
8, 532, Program_c, 7, 29
8, 536, Control_c, 7, 7, 90
8, 536, Control_c, 7, 10, 74
8, 536, Control_c, 7, 11, 127
8, 540, Control_c, 7, 91, 100
8, 540, Control_c, 7, 93, 0
8, 8064, Note_on_c, 7, 63, 113
8, 8448, Note_on_c, 7, 62, 91
8, 8468, Note_off_c, 7, 63, 113
8, 8672, Note_off_c, 7, 62, 91
8, 8796, Pitch_bend_c, 7, 8866
8, 8804, Pitch_bend_c, 7, 10408
8, 8816, Pitch_bend_c, 7, 12304
8, 8824, Pitch_bend_c, 7, 14231
8, 8836, Pitch_bend_c, 7, 15837
8, 8844, Pitch_bend_c, 7, 16383
8, 8848, Note_on_c, 7, 70, 117
8, 8956, Pitch_bend_c, 7, 16191
8, 8964, Pitch_bend_c, 7, 15869
8, 8976, Pitch_bend_c, 7, 15452
8, 8984, Pitch_bend_c, 7, 15034
8, 8996, Pitch_bend_c, 7, 14584
8, 9004, Pitch_bend_c, 7, 14103
8, 9016, Pitch_bend_c, 7, 13685
8, 9024, Pitch_bend_c, 7, 13267
8, 9036, Pitch_bend_c, 7, 12946
8, 9044, Pitch_bend_c, 7, 12593
8, 9056, Pitch_bend_c, 7, 12207
8, 9064, Pitch_bend_c, 7, 11757
8, 9076, Pitch_bend_c, 7, 11276
8, 9084, Pitch_bend_c, 7, 10890
8, 9096, Pitch_bend_c, 7, 10472
8, 9104, Pitch_bend_c, 7, 10055
8, 9116, Pitch_bend_c, 7, 9541
8, 9128, Pitch_bend_c, 7, 9091
8, 9136, Pitch_bend_c, 7, 8641
8, 9148, Pitch_bend_c, 7, 8320
8, 9156, Pitch_bend_c, 7, 8192
8, 9176, Note_on_c, 7, 67, 80
8, 9188, Note_off_c, 7, 70, 117
8, 9236, Note_on_c, 7, 70, 102
8, 10120, Control_c, 7, 1, 0
8, 10140, Control_c, 7, 1, 0
8, 10156, Control_c, 7, 1, 2
8, 10168, Control_c, 7, 1, 4
8, 10180, Control_c, 7, 1, 6
8, 10188, Control_c, 7, 1, 7
8, 10196, Control_c, 7, 1, 8
8, 10228, Control_c, 7, 1, 9
8, 10256, Control_c, 7, 1, 10
8, 10276, Control_c, 7, 1, 11
8, 10284, Control_c, 7, 1, 12
8, 10316, Control_c, 7, 1, 13
8, 10332, Control_c, 7, 1, 15
8, 10356, Control_c, 7, 1, 17
8, 10364, Control_c, 7, 1, 18
8, 10372, Control_c, 7, 1, 19
8, 10384, Control_c, 7, 1, 20
8, 10420, Control_c, 7, 1, 21
8, 10432, Control_c, 7, 1, 22
8, 10452, Control_c, 7, 1, 23
8, 10472, Control_c, 7, 1, 24
8, 10480, Control_c, 7, 1, 26
8, 10492, Control_c, 7, 1, 27
8, 10500, Control_c, 7, 1, 28
8, 10520, Control_c, 7, 1, 29
8, 10548, Control_c, 7, 1, 30
8, 10644, Control_c, 7, 1, 31
8, 10664, Control_c, 7, 1, 32
8, 10684, Control_c, 7, 1, 33
8, 10732, Control_c, 7, 1, 34
8, 10760, Control_c, 7, 1, 35
8, 10780, Control_c, 7, 1, 36
8, 10808, Control_c, 7, 1, 37
8, 11108, Control_c, 7, 1, 38
8, 11196, Control_c, 7, 1, 36
8, 11204, Control_c, 7, 1, 33
8, 11216, Control_c, 7, 1, 31
8, 11224, Control_c, 7, 1, 30
8, 11232, Note_off_c, 7, 67, 80
8, 11244, Control_c, 7, 1, 29
8, 11256, Control_c, 7, 1, 27
8, 11264, Control_c, 7, 1, 26
8, 11276, Control_c, 7, 1, 25
8, 11304, Control_c, 7, 1, 24
8, 11316, Control_c, 7, 1, 23
8, 11364, Control_c, 7, 1, 24
8, 11372, Control_c, 7, 1, 25
8, 11384, Control_c, 7, 1, 26
8, 11392, Control_c, 7, 1, 27
8, 11424, Control_c, 7, 1, 28
8, 11444, Control_c, 7, 1, 29
8, 11464, Note_off_c, 7, 70, 102
8, 11464, Control_c, 7, 1, 26
8, 11472, Control_c, 7, 1, 18
8, 11484, Control_c, 7, 1, 9
8, 11492, Control_c, 7, 1, 3
8, 11504, Control_c, 7, 1, 0
8, 11512, Control_c, 7, 1, 0
8, 11520, Note_on_c, 7, 67, 80
8, 11524, Note_on_c, 7, 70, 113
8, 11904, Note_off_c, 7, 67, 80
8, 11912, Note_on_c, 7, 68, 80
8, 11920, Note_on_c, 7, 72, 113
8, 11960, Note_off_c, 7, 70, 113
8, 12252, Note_off_c, 7, 68, 80
8, 12268, Note_off_c, 7, 72, 113
8, 12272, Note_on_c, 7, 70, 80
8, 12300, Note_on_c, 7, 74, 125
8, 12636, Note_off_c, 7, 70, 80
8, 12664, Note_off_c, 7, 74, 125
8, 12672, Note_on_c, 7, 72, 80
8, 12684, Note_on_c, 7, 75, 85
8, 12856, Note_off_c, 7, 72, 80
8, 12868, Note_on_c, 7, 68, 80
8, 12888, Note_on_c, 7, 72, 121
8, 12900, Note_off_c, 7, 75, 85
8, 13448, Control_c, 7, 1, 0
8, 13456, Control_c, 7, 1, 1
8, 13468, Control_c, 7, 1, 2
8, 13476, Control_c, 7, 1, 4
8, 13488, Control_c, 7, 1, 6
8, 13496, Control_c, 7, 1, 9
8, 13504, Control_c, 7, 1, 12
8, 13516, Control_c, 7, 1, 14
8, 13528, Control_c, 7, 1, 17
8, 13536, Control_c, 7, 1, 18
8, 13544, Control_c, 7, 1, 19
8, 13556, Control_c, 7, 1, 20
8, 13568, Control_c, 7, 1, 21
8, 13584, Control_c, 7, 1, 22
8, 13596, Control_c, 7, 1, 23
8, 13604, Control_c, 7, 1, 24
8, 13616, Control_c, 7, 1, 25
8, 13624, Control_c, 7, 1, 26
8, 13636, Control_c, 7, 1, 27
8, 13644, Control_c, 7, 1, 28
8, 13656, Control_c, 7, 1, 30
8, 13664, Control_c, 7, 1, 33
8, 13676, Control_c, 7, 1, 35
8, 13684, Control_c, 7, 1, 38
8, 13696, Control_c, 7, 1, 40
8, 13704, Control_c, 7, 1, 42
8, 13716, Control_c, 7, 1, 44
8, 13724, Control_c, 7, 1, 46
8, 13736, Control_c, 7, 1, 48
8, 13744, Control_c, 7, 1, 50
8, 13756, Control_c, 7, 1, 51
8, 13852, Control_c, 7, 1, 50
8, 13860, Control_c, 7, 1, 48
8, 13872, Control_c, 7, 1, 47
8, 13880, Control_c, 7, 1, 46
8, 13892, Control_c, 7, 1, 45
8, 13988, Control_c, 7, 1, 47
8, 13996, Control_c, 7, 1, 48
8, 14008, Control_c, 7, 1, 49
8, 14016, Control_c, 7, 1, 50
8, 14112, Control_c, 7, 1, 49
8, 14152, Control_c, 7, 1, 48
8, 14160, Control_c, 7, 1, 46
8, 14172, Control_c, 7, 1, 45
8, 14184, Control_c, 7, 1, 43
8, 14192, Control_c, 7, 1, 42
8, 14232, Control_c, 7, 1, 40
8, 14240, Control_c, 7, 1, 36
8, 14252, Control_c, 7, 1, 31
8, 14260, Control_c, 7, 1, 27
8, 14272, Control_c, 7, 1, 23
8, 14280, Control_c, 7, 1, 19
8, 14292, Control_c, 7, 1, 15
8, 14300, Control_c, 7, 1, 11
8, 14312, Control_c, 7, 1, 7
8, 14320, Control_c, 7, 1, 4
8, 14332, Control_c, 7, 1, 1
8, 14340, Control_c, 7, 1, 0
8, 14352, Control_c, 7, 1, 0
8, 14524, Pitch_bend_c, 7, 8256
8, 14532, Pitch_bend_c, 7, 9091
8, 14544, Note_off_c, 7, 72, 121
8, 14544, Note_off_c, 7, 68, 80
8, 14544, Pitch_bend_c, 7, 6071
8, 14556, Pitch_bend_c, 7, 5107
8, 14564, Pitch_bend_c, 7, 4401
8, 14572, Pitch_bend_c, 7, 4240
8, 14584, Pitch_bend_c, 7, 4369
8, 14592, Note_on_c, 7, 70, 80
8, 14596, Pitch_bend_c, 7, 4626
8, 14604, Pitch_bend_c, 7, 5011
8, 14608, Note_on_c, 7, 74, 125
8, 14616, Pitch_bend_c, 7, 5525
8, 14624, Pitch_bend_c, 7, 5975
8, 14636, Pitch_bend_c, 7, 6489
8, 14648, Pitch_bend_c, 7, 6939
8, 14656, Pitch_bend_c, 7, 7420
8, 14664, Pitch_bend_c, 7, 7902
8, 14676, Pitch_bend_c, 7, 8127
8, 14688, Pitch_bend_c, 7, 8192
8, 14984, Control_c, 7, 1, 1
8, 14996, Control_c, 7, 1, 6
8, 15004, Control_c, 7, 1, 11
8, 15016, Control_c, 7, 1, 15
8, 15024, Control_c, 7, 1, 18
8, 15036, Control_c, 7, 1, 19
8, 15044, Control_c, 7, 1, 21
8, 15056, Control_c, 7, 1, 24
8, 15064, Control_c, 7, 1, 28
8, 15072, Control_c, 7, 1, 33
8, 15084, Control_c, 7, 1, 38
8, 15096, Control_c, 7, 1, 41
8, 15104, Control_c, 7, 1, 44
8, 15112, Control_c, 7, 1, 47
8, 15124, Control_c, 7, 1, 51
8, 15136, Control_c, 7, 1, 54
8, 15144, Control_c, 7, 1, 58
8, 15152, Control_c, 7, 1, 61
8, 15164, Control_c, 7, 1, 63
8, 15176, Control_c, 7, 1, 65
8, 15184, Control_c, 7, 1, 67
8, 15192, Control_c, 7, 1, 68
8, 15232, Note_off_c, 7, 70, 80
8, 15272, Control_c, 7, 1, 67
8, 15280, Control_c, 7, 1, 62
8, 15292, Control_c, 7, 1, 54
8, 15300, Note_off_c, 7, 74, 125
8, 15300, Control_c, 7, 1, 41
8, 15312, Control_c, 7, 1, 22
8, 15320, Control_c, 7, 1, 9
8, 15332, Control_c, 7, 1, 3
8, 15332, Note_on_c, 7, 70, 80
8, 15340, Control_c, 7, 1, 0
8, 15352, Control_c, 7, 1, 0
8, 15360, Note_on_c, 7, 75, 125
8, 16392, Control_c, 7, 1, 0
8, 16400, Control_c, 7, 1, 1
8, 16408, Control_c, 7, 1, 2
8, 16496, Control_c, 7, 1, 3
8, 16508, Control_c, 7, 1, 4
8, 16564, Control_c, 7, 1, 5
8, 16584, Control_c, 7, 1, 6
8, 16604, Control_c, 7, 1, 7
8, 16612, Control_c, 7, 1, 8
8, 16632, Control_c, 7, 1, 9
8, 16652, Control_c, 7, 1, 10
8, 16692, Control_c, 7, 1, 11
8, 16700, Control_c, 7, 1, 12
8, 16712, Control_c, 7, 1, 13
8, 16720, Control_c, 7, 1, 14
8, 16740, Control_c, 7, 1, 15
8, 16752, Control_c, 7, 1, 16
8, 16780, Control_c, 7, 1, 18
8, 16808, Control_c, 7, 1, 19
8, 16840, Control_c, 7, 1, 20
8, 16876, Control_c, 7, 1, 21
8, 16896, Control_c, 7, 1, 22
8, 16908, Control_c, 7, 1, 24
8, 16916, Control_c, 7, 1, 25
8, 16924, Control_c, 7, 1, 27
8, 16936, Control_c, 7, 1, 28
8, 17024, Control_c, 7, 1, 29
8, 17060, Control_c, 7, 1, 27
8, 17072, Control_c, 7, 1, 26
8, 17120, Control_c, 7, 1, 25
8, 17140, Control_c, 7, 1, 24
8, 17248, Control_c, 7, 1, 25
8, 17256, Control_c, 7, 1, 27
8, 17264, Control_c, 7, 1, 29
8, 17276, Control_c, 7, 1, 30
8, 17284, Control_c, 7, 1, 32
8, 17296, Control_c, 7, 1, 34
8, 17304, Control_c, 7, 1, 35
8, 17316, Control_c, 7, 1, 37
8, 17324, Control_c, 7, 1, 38
8, 17356, Control_c, 7, 1, 37
8, 17364, Control_c, 7, 1, 35
8, 17372, Control_c, 7, 1, 34
8, 17384, Control_c, 7, 1, 33
8, 17424, Control_c, 7, 1, 34
8, 17432, Control_c, 7, 1, 35
8, 17452, Control_c, 7, 1, 36
8, 17480, Control_c, 7, 1, 35
8, 17492, Control_c, 7, 1, 34
8, 17504, Control_c, 7, 1, 33
8, 17512, Control_c, 7, 1, 31
8, 17520, Control_c, 7, 1, 30
8, 17532, Control_c, 7, 1, 28
8, 17544, Control_c, 7, 1, 27
8, 17552, Control_c, 7, 1, 26
8, 17564, Control_c, 7, 1, 25
8, 17676, Control_c, 7, 1, 24
8, 17688, Control_c, 7, 1, 23
8, 17744, Control_c, 7, 1, 22
8, 17764, Control_c, 7, 1, 20
8, 17776, Control_c, 7, 1, 19
8, 17784, Control_c, 7, 1, 17
8, 17796, Control_c, 7, 1, 15
8, 17804, Control_c, 7, 1, 12
8, 17816, Control_c, 7, 1, 11
8, 17824, Control_c, 7, 1, 9
8, 17836, Control_c, 7, 1, 8
8, 17864, Control_c, 7, 1, 7
8, 17884, Control_c, 7, 1, 6
8, 17896, Control_c, 7, 1, 5
8, 17904, Control_c, 7, 1, 3
8, 17916, Control_c, 7, 1, 1
8, 17924, Control_c, 7, 1, 0
8, 17936, Control_c, 7, 1, 0
8, 18432, Note_off_c, 7, 75, 125
8, 18432, Note_off_c, 7, 70, 80
8, 81024, Note_on_c, 7, 63, 113
8, 81408, Note_on_c, 7, 62, 91
8, 81428, Note_off_c, 7, 63, 113
8, 81632, Note_off_c, 7, 62, 91
8, 81756, Pitch_bend_c, 7, 8866
8, 81764, Pitch_bend_c, 7, 10408
8, 81776, Pitch_bend_c, 7, 12304
8, 81784, Pitch_bend_c, 7, 14231
8, 81796, Pitch_bend_c, 7, 15837
8, 81804, Pitch_bend_c, 7, 16383
8, 81808, Note_on_c, 7, 70, 117
8, 81916, Pitch_bend_c, 7, 16191
8, 81924, Pitch_bend_c, 7, 15869
8, 81936, Pitch_bend_c, 7, 15452
8, 81944, Pitch_bend_c, 7, 15034
8, 81956, Pitch_bend_c, 7, 14584
8, 81964, Pitch_bend_c, 7, 14103
8, 81976, Pitch_bend_c, 7, 13685
8, 81984, Pitch_bend_c, 7, 13267
8, 81996, Pitch_bend_c, 7, 12946
8, 82004, Pitch_bend_c, 7, 12593
8, 82016, Pitch_bend_c, 7, 12207
8, 82024, Pitch_bend_c, 7, 11757
8, 82036, Pitch_bend_c, 7, 11276
8, 82044, Pitch_bend_c, 7, 10890
8, 82056, Pitch_bend_c, 7, 10472
8, 82064, Pitch_bend_c, 7, 10055
8, 82076, Pitch_bend_c, 7, 9541
8, 82088, Pitch_bend_c, 7, 9091
8, 82096, Pitch_bend_c, 7, 8641
8, 82108, Pitch_bend_c, 7, 8320
8, 82116, Pitch_bend_c, 7, 8192
8, 82136, Note_on_c, 7, 67, 80
8, 82148, Note_off_c, 7, 70, 117
8, 82196, Note_on_c, 7, 70, 102
8, 83080, Control_c, 7, 1, 0
8, 83100, Control_c, 7, 1, 0
8, 83116, Control_c, 7, 1, 2
8, 83128, Control_c, 7, 1, 4
8, 83140, Control_c, 7, 1, 6
8, 83148, Control_c, 7, 1, 7
8, 83156, Control_c, 7, 1, 8
8, 83188, Control_c, 7, 1, 9
8, 83216, Control_c, 7, 1, 10
8, 83236, Control_c, 7, 1, 11
8, 83244, Control_c, 7, 1, 12
8, 83276, Control_c, 7, 1, 13
8, 83292, Control_c, 7, 1, 15
8, 83316, Control_c, 7, 1, 17
8, 83324, Control_c, 7, 1, 18
8, 83332, Control_c, 7, 1, 19
8, 83344, Control_c, 7, 1, 20
8, 83380, Control_c, 7, 1, 21
8, 83392, Control_c, 7, 1, 22
8, 83412, Control_c, 7, 1, 23
8, 83432, Control_c, 7, 1, 24
8, 83440, Control_c, 7, 1, 26
8, 83452, Control_c, 7, 1, 27
8, 83460, Control_c, 7, 1, 28
8, 83480, Control_c, 7, 1, 29
8, 83508, Control_c, 7, 1, 30
8, 83604, Control_c, 7, 1, 31
8, 83624, Control_c, 7, 1, 32
8, 83644, Control_c, 7, 1, 33
8, 83692, Control_c, 7, 1, 34
8, 83720, Control_c, 7, 1, 35
8, 83740, Control_c, 7, 1, 36
8, 83768, Control_c, 7, 1, 37
8, 84068, Control_c, 7, 1, 38
8, 84156, Control_c, 7, 1, 36
8, 84164, Control_c, 7, 1, 33
8, 84176, Control_c, 7, 1, 31
8, 84184, Control_c, 7, 1, 30
8, 84192, Note_off_c, 7, 67, 80
8, 84204, Control_c, 7, 1, 29
8, 84216, Control_c, 7, 1, 27
8, 84224, Control_c, 7, 1, 26
8, 84236, Control_c, 7, 1, 25
8, 84264, Control_c, 7, 1, 24
8, 84276, Control_c, 7, 1, 23
8, 84324, Control_c, 7, 1, 24
8, 84332, Control_c, 7, 1, 25
8, 84344, Control_c, 7, 1, 26
8, 84352, Control_c, 7, 1, 27
8, 84384, Control_c, 7, 1, 28
8, 84404, Control_c, 7, 1, 29
8, 84424, Note_off_c, 7, 70, 102
8, 84424, Control_c, 7, 1, 26
8, 84432, Control_c, 7, 1, 18
8, 84444, Control_c, 7, 1, 9
8, 84452, Control_c, 7, 1, 3
8, 84464, Control_c, 7, 1, 0
8, 84472, Control_c, 7, 1, 0
8, 84480, Note_on_c, 7, 67, 80
8, 84484, Note_on_c, 7, 70, 113
8, 84864, Note_off_c, 7, 67, 80
8, 84872, Note_on_c, 7, 68, 80
8, 84880, Note_on_c, 7, 72, 113
8, 84920, Note_off_c, 7, 70, 113
8, 85212, Note_off_c, 7, 68, 80
8, 85228, Note_off_c, 7, 72, 113
8, 85232, Note_on_c, 7, 70, 80
8, 85260, Note_on_c, 7, 74, 125
8, 85596, Note_off_c, 7, 70, 80
8, 85624, Note_off_c, 7, 74, 125
8, 85632, Note_on_c, 7, 72, 80
8, 85644, Note_on_c, 7, 75, 85
8, 85816, Note_off_c, 7, 72, 80
8, 85828, Note_on_c, 7, 68, 80
8, 85848, Note_on_c, 7, 72, 121
8, 85860, Note_off_c, 7, 75, 85
8, 86408, Control_c, 7, 1, 0
8, 86416, Control_c, 7, 1, 1
8, 86428, Control_c, 7, 1, 2
8, 86436, Control_c, 7, 1, 4
8, 86448, Control_c, 7, 1, 6
8, 86456, Control_c, 7, 1, 9
8, 86464, Control_c, 7, 1, 12
8, 86476, Control_c, 7, 1, 14
8, 86488, Control_c, 7, 1, 17
8, 86496, Control_c, 7, 1, 18
8, 86504, Control_c, 7, 1, 19
8, 86516, Control_c, 7, 1, 20
8, 86528, Control_c, 7, 1, 21
8, 86544, Control_c, 7, 1, 22
8, 86556, Control_c, 7, 1, 23
8, 86564, Control_c, 7, 1, 24
8, 86576, Control_c, 7, 1, 25
8, 86584, Control_c, 7, 1, 26
8, 86596, Control_c, 7, 1, 27
8, 86604, Control_c, 7, 1, 28
8, 86616, Control_c, 7, 1, 30
8, 86624, Control_c, 7, 1, 33
8, 86636, Control_c, 7, 1, 35
8, 86644, Control_c, 7, 1, 38
8, 86656, Control_c, 7, 1, 40
8, 86664, Control_c, 7, 1, 42
8, 86676, Control_c, 7, 1, 44
8, 86684, Control_c, 7, 1, 46
8, 86696, Control_c, 7, 1, 48
8, 86704, Control_c, 7, 1, 50
8, 86716, Control_c, 7, 1, 51
8, 86812, Control_c, 7, 1, 50
8, 86820, Control_c, 7, 1, 48
8, 86832, Control_c, 7, 1, 47
8, 86840, Control_c, 7, 1, 46
8, 86852, Control_c, 7, 1, 45
8, 86948, Control_c, 7, 1, 47
8, 86956, Control_c, 7, 1, 48
8, 86968, Control_c, 7, 1, 49
8, 86976, Control_c, 7, 1, 50
8, 87072, Control_c, 7, 1, 49
8, 87112, Control_c, 7, 1, 48
8, 87120, Control_c, 7, 1, 46
8, 87132, Control_c, 7, 1, 45
8, 87144, Control_c, 7, 1, 43
8, 87152, Control_c, 7, 1, 42
8, 87192, Control_c, 7, 1, 40
8, 87200, Control_c, 7, 1, 36
8, 87212, Control_c, 7, 1, 31
8, 87220, Control_c, 7, 1, 27
8, 87232, Control_c, 7, 1, 23
8, 87240, Control_c, 7, 1, 19
8, 87252, Control_c, 7, 1, 15
8, 87260, Control_c, 7, 1, 11
8, 87272, Control_c, 7, 1, 7
8, 87280, Control_c, 7, 1, 4
8, 87292, Control_c, 7, 1, 1
8, 87300, Control_c, 7, 1, 0
8, 87312, Control_c, 7, 1, 0
8, 87484, Pitch_bend_c, 7, 8256
8, 87492, Pitch_bend_c, 7, 9091
8, 87504, Note_off_c, 7, 72, 121
8, 87504, Note_off_c, 7, 68, 80
8, 87504, Pitch_bend_c, 7, 6071
8, 87516, Pitch_bend_c, 7, 5107
8, 87524, Pitch_bend_c, 7, 4401
8, 87532, Pitch_bend_c, 7, 4240
8, 87544, Pitch_bend_c, 7, 4369
8, 87552, Note_on_c, 7, 70, 80
8, 87556, Pitch_bend_c, 7, 4626
8, 87564, Pitch_bend_c, 7, 5011
8, 87568, Note_on_c, 7, 74, 125
8, 87576, Pitch_bend_c, 7, 5525
8, 87584, Pitch_bend_c, 7, 5975
8, 87596, Pitch_bend_c, 7, 6489
8, 87608, Pitch_bend_c, 7, 6939
8, 87616, Pitch_bend_c, 7, 7420
8, 87624, Pitch_bend_c, 7, 7902
8, 87636, Pitch_bend_c, 7, 8127
8, 87648, Pitch_bend_c, 7, 8192
8, 87944, Control_c, 7, 1, 1
8, 87956, Control_c, 7, 1, 6
8, 87964, Control_c, 7, 1, 11
8, 87976, Control_c, 7, 1, 15
8, 87984, Control_c, 7, 1, 18
8, 87996, Control_c, 7, 1, 19
8, 88004, Control_c, 7, 1, 21
8, 88016, Control_c, 7, 1, 24
8, 88024, Control_c, 7, 1, 28
8, 88032, Control_c, 7, 1, 33
8, 88044, Control_c, 7, 1, 38
8, 88056, Control_c, 7, 1, 41
8, 88064, Control_c, 7, 1, 44
8, 88072, Control_c, 7, 1, 47
8, 88084, Control_c, 7, 1, 51
8, 88096, Control_c, 7, 1, 54
8, 88104, Control_c, 7, 1, 58
8, 88112, Control_c, 7, 1, 61
8, 88124, Control_c, 7, 1, 63
8, 88136, Control_c, 7, 1, 65
8, 88144, Control_c, 7, 1, 67
8, 88152, Control_c, 7, 1, 68
8, 88192, Note_off_c, 7, 70, 80
8, 88232, Control_c, 7, 1, 67
8, 88240, Control_c, 7, 1, 62
8, 88252, Control_c, 7, 1, 54
8, 88260, Note_off_c, 7, 74, 125
8, 88260, Control_c, 7, 1, 41
8, 88272, Control_c, 7, 1, 22
8, 88280, Control_c, 7, 1, 9
8, 88292, Control_c, 7, 1, 3
8, 88292, Note_on_c, 7, 70, 80
8, 88300, Control_c, 7, 1, 0
8, 88312, Control_c, 7, 1, 0
8, 88320, Note_on_c, 7, 75, 125
8, 89352, Control_c, 7, 1, 0
8, 89360, Control_c, 7, 1, 1
8, 89368, Control_c, 7, 1, 2
8, 89456, Control_c, 7, 1, 3
8, 89468, Control_c, 7, 1, 4
8, 89524, Control_c, 7, 1, 5
8, 89544, Control_c, 7, 1, 6
8, 89564, Control_c, 7, 1, 7
8, 89572, Control_c, 7, 1, 8
8, 89592, Control_c, 7, 1, 9
8, 89612, Control_c, 7, 1, 10
8, 89652, Control_c, 7, 1, 11
8, 89660, Control_c, 7, 1, 12
8, 89672, Control_c, 7, 1, 13
8, 89680, Control_c, 7, 1, 14
8, 89700, Control_c, 7, 1, 15
8, 89712, Control_c, 7, 1, 16
8, 89740, Control_c, 7, 1, 18
8, 89768, Control_c, 7, 1, 19
8, 89800, Control_c, 7, 1, 20
8, 89836, Control_c, 7, 1, 21
8, 89856, Control_c, 7, 1, 22
8, 89868, Control_c, 7, 1, 24
8, 89876, Control_c, 7, 1, 25
8, 89884, Control_c, 7, 1, 27
8, 89896, Control_c, 7, 1, 28
8, 89984, Control_c, 7, 1, 29
8, 90020, Control_c, 7, 1, 27
8, 90032, Control_c, 7, 1, 26
8, 90080, Control_c, 7, 1, 25
8, 90100, Control_c, 7, 1, 24
8, 90208, Control_c, 7, 1, 25
8, 90216, Control_c, 7, 1, 27
8, 90224, Control_c, 7, 1, 29
8, 90236, Control_c, 7, 1, 30
8, 90244, Control_c, 7, 1, 32
8, 90256, Control_c, 7, 1, 34
8, 90264, Control_c, 7, 1, 35
8, 90276, Control_c, 7, 1, 37
8, 90284, Control_c, 7, 1, 38
8, 90316, Control_c, 7, 1, 37
8, 90324, Control_c, 7, 1, 35
8, 90332, Control_c, 7, 1, 34
8, 90344, Control_c, 7, 1, 33
8, 90384, Control_c, 7, 1, 34
8, 90392, Control_c, 7, 1, 35
8, 90412, Control_c, 7, 1, 36
8, 90440, Control_c, 7, 1, 35
8, 90452, Control_c, 7, 1, 34
8, 90464, Control_c, 7, 1, 33
8, 90472, Control_c, 7, 1, 31
8, 90480, Control_c, 7, 1, 30
8, 90492, Control_c, 7, 1, 28
8, 90504, Control_c, 7, 1, 27
8, 90512, Control_c, 7, 1, 26
8, 90524, Control_c, 7, 1, 25
8, 90636, Control_c, 7, 1, 24
8, 90648, Control_c, 7, 1, 23
8, 90704, Control_c, 7, 1, 22
8, 90724, Control_c, 7, 1, 20
8, 90736, Control_c, 7, 1, 19
8, 90744, Control_c, 7, 1, 17
8, 90756, Control_c, 7, 1, 15
8, 90764, Control_c, 7, 1, 12
8, 90776, Control_c, 7, 1, 11
8, 90784, Control_c, 7, 1, 9
8, 90796, Control_c, 7, 1, 8
8, 90824, Control_c, 7, 1, 7
8, 90844, Control_c, 7, 1, 6
8, 90856, Control_c, 7, 1, 5
8, 90864, Control_c, 7, 1, 3
8, 90876, Control_c, 7, 1, 1
8, 90884, Control_c, 7, 1, 0
8, 90896, Control_c, 7, 1, 0
8, 91392, Note_off_c, 7, 75, 125
8, 91392, Note_off_c, 7, 70, 80
8, 176548, Pitch_bend_c, 7, 8224
8, 176560, Pitch_bend_c, 7, 8545
8, 176568, Pitch_bend_c, 7, 8930
8, 176580, Pitch_bend_c, 7, 9444
8, 176588, Pitch_bend_c, 7, 9926
8, 176600, Pitch_bend_c, 7, 10408
8, 176608, Pitch_bend_c, 7, 10858
8, 176620, Pitch_bend_c, 7, 11276
8, 176632, Pitch_bend_c, 7, 11757
8, 176640, Pitch_bend_c, 7, 12143
8, 176648, Pitch_bend_c, 7, 12432
8, 176660, Pitch_bend_c, 7, 12657
8, 176672, Pitch_bend_c, 7, 12785
8, 176680, Pitch_bend_c, 7, 12882
8, 176680, Note_on_c, 7, 74, 115
8, 176692, Pitch_bend_c, 7, 12946
8, 176732, Pitch_bend_c, 7, 12882
8, 176740, Pitch_bend_c, 7, 12785
8, 176752, Pitch_bend_c, 7, 12593
8, 176764, Pitch_bend_c, 7, 12432
8, 176772, Pitch_bend_c, 7, 12207
8, 176784, Pitch_bend_c, 7, 11918
8, 176796, Pitch_bend_c, 7, 11597
8, 176804, Pitch_bend_c, 7, 11115
8, 176812, Pitch_bend_c, 7, 10569
8, 176824, Pitch_bend_c, 7, 9926
8, 176836, Pitch_bend_c, 7, 9348
8, 176844, Pitch_bend_c, 7, 8802
8, 176856, Pitch_bend_c, 7, 8481
8, 176864, Pitch_bend_c, 7, 8256
8, 176876, Pitch_bend_c, 7, 8192
8, 176956, Note_on_c, 7, 72, 99
8, 176996, Note_off_c, 7, 74, 115
8, 177052, Note_on_c, 7, 68, 95
8, 177072, Note_off_c, 7, 72, 99
8, 177232, Note_on_c, 7, 67, 106
8, 177252, Note_off_c, 7, 68, 95
8, 177620, Control_c, 7, 1, 0
8, 177812, Control_c, 7, 1, 64
8, 178012, Control_c, 7, 1, 119
8, 178016, Note_off_c, 7, 67, 106
8, 178152, Control_c, 7, 1, 0
8, 178164, Control_c, 7, 1, 0
8, 188836, Pitch_bend_c, 7, 8224
8, 188848, Pitch_bend_c, 7, 8545
8, 188856, Pitch_bend_c, 7, 8930
8, 188868, Pitch_bend_c, 7, 9444
8, 188876, Pitch_bend_c, 7, 9926
8, 188888, Pitch_bend_c, 7, 10408
8, 188896, Pitch_bend_c, 7, 10858
8, 188908, Pitch_bend_c, 7, 11276
8, 188920, Pitch_bend_c, 7, 11757
8, 188928, Pitch_bend_c, 7, 12143
8, 188936, Pitch_bend_c, 7, 12432
8, 188948, Pitch_bend_c, 7, 12657
8, 188960, Pitch_bend_c, 7, 12785
8, 188968, Pitch_bend_c, 7, 12882
8, 188968, Note_on_c, 7, 74, 115
8, 188980, Pitch_bend_c, 7, 12946
8, 189020, Pitch_bend_c, 7, 12882
8, 189028, Pitch_bend_c, 7, 12785
8, 189040, Pitch_bend_c, 7, 12593
8, 189052, Pitch_bend_c, 7, 12432
8, 189060, Pitch_bend_c, 7, 12207
8, 189072, Pitch_bend_c, 7, 11918
8, 189084, Pitch_bend_c, 7, 11597
8, 189092, Pitch_bend_c, 7, 11115
8, 189100, Pitch_bend_c, 7, 10569
8, 189112, Pitch_bend_c, 7, 9926
8, 189124, Pitch_bend_c, 7, 9348
8, 189132, Pitch_bend_c, 7, 8802
8, 189144, Pitch_bend_c, 7, 8481
8, 189152, Pitch_bend_c, 7, 8256
8, 189164, Pitch_bend_c, 7, 8192
8, 189244, Note_on_c, 7, 72, 99
8, 189284, Note_off_c, 7, 74, 115
8, 189340, Note_on_c, 7, 68, 95
8, 189340, Note_on_c, 7, 75, 95
8, 189360, Note_off_c, 7, 72, 99
8, 189520, Note_on_c, 7, 67, 106
8, 189520, Note_on_c, 7, 74, 106
8, 189540, Note_off_c, 7, 75, 95
8, 189540, Note_off_c, 7, 68, 95
8, 189908, Control_c, 7, 1, 0
8, 190100, Control_c, 7, 1, 64
8, 190300, Control_c, 7, 1, 119
8, 190440, Control_c, 7, 1, 0
8, 190452, Control_c, 7, 1, 0
8, 190464, Note_off_c, 7, 74, 106
8, 190464, Note_off_c, 7, 67, 106
8, 192000, Note_on_c, 7, 60, 120
8, 192000, Pitch_bend_c, 7, 7035
8, 192020, Pitch_bend_c, 7, 7099
8, 192032, Pitch_bend_c, 7, 7228
8, 192040, Pitch_bend_c, 7, 7453
8, 192052, Pitch_bend_c, 7, 7838
8, 192060, Pitch_bend_c, 7, 8127
8, 192072, Pitch_bend_c, 7, 8192
8, 192072, Control_c, 7, 1, 6
8, 192080, Control_c, 7, 1, 15
8, 192092, Control_c, 7, 1, 8
8, 192104, Control_c, 7, 1, 3
8, 192112, Control_c, 7, 1, 0
8, 192120, Control_c, 7, 1, 0
8, 192172, Control_c, 7, 1, 2
8, 192180, Control_c, 7, 1, 14
8, 192192, Control_c, 7, 1, 28
8, 192200, Control_c, 7, 1, 38
8, 192212, Control_c, 7, 1, 46
8, 192220, Control_c, 7, 1, 51
8, 192240, Control_c, 7, 1, 46
8, 192252, Control_c, 7, 1, 37
8, 192260, Control_c, 7, 1, 26
8, 192272, Control_c, 7, 1, 18
8, 192280, Control_c, 7, 1, 10
8, 192292, Control_c, 7, 1, 5
8, 192300, Control_c, 7, 1, 1
8, 192312, Control_c, 7, 1, 0
8, 192320, Control_c, 7, 1, 0
8, 192448, Control_c, 7, 1, 0
8, 192460, Control_c, 7, 1, 6
8, 192468, Control_c, 7, 1, 12
8, 192476, Control_c, 7, 1, 18
8, 192488, Control_c, 7, 1, 21
8, 192500, Control_c, 7, 1, 24
8, 192508, Control_c, 7, 1, 28
8, 192520, Control_c, 7, 1, 34
8, 192528, Control_c, 7, 1, 40
8, 192540, Control_c, 7, 1, 45
8, 192548, Control_c, 7, 1, 50
8, 192560, Control_c, 7, 1, 53
8, 192576, Note_off_c, 7, 60, 120
8, 192576, Note_on_c, 7, 62, 120
8, 192580, Control_c, 7, 1, 51
8, 192588, Control_c, 7, 1, 48
8, 192600, Control_c, 7, 1, 45
8, 192608, Control_c, 7, 1, 42
8, 192616, Control_c, 7, 1, 40
8, 192628, Control_c, 7, 1, 38
8, 192640, Control_c, 7, 1, 35
8, 192648, Control_c, 7, 1, 27
8, 192660, Control_c, 7, 1, 17
8, 192668, Control_c, 7, 1, 7
8, 192680, Control_c, 7, 1, 2
8, 192688, Control_c, 7, 1, 0
8, 192700, Control_c, 7, 1, 0
8, 192748, Control_c, 7, 1, 1
8, 192756, Control_c, 7, 1, 7
8, 192768, Control_c, 7, 1, 13
8, 192780, Control_c, 7, 1, 21
8, 192788, Control_c, 7, 1, 26
8, 192800, Control_c, 7, 1, 28
8, 192808, Control_c, 7, 1, 26
8, 192820, Control_c, 7, 1, 19
8, 192828, Control_c, 7, 1, 10
8, 192840, Control_c, 7, 1, 4
8, 192848, Control_c, 7, 1, 1
8, 192860, Control_c, 7, 1, 0
8, 192868, Control_c, 7, 1, 0
8, 193152, Note_off_c, 7, 62, 120
8, 193152, Note_on_c, 7, 63, 120
8, 193276, Control_c, 7, 1, 0
8, 193288, Control_c, 7, 1, 8
8, 193296, Control_c, 7, 1, 18
8, 193308, Control_c, 7, 1, 23
8, 193336, Control_c, 7, 1, 21
8, 193348, Control_c, 7, 1, 16
8, 193356, Control_c, 7, 1, 8
8, 193364, Control_c, 7, 1, 4
8, 193376, Control_c, 7, 1, 1
8, 193396, Control_c, 7, 1, 5
8, 193404, Control_c, 7, 1, 13
8, 193416, Control_c, 7, 1, 24
8, 193424, Control_c, 7, 1, 35
8, 193436, Control_c, 7, 1, 45
8, 193448, Control_c, 7, 1, 53
8, 193456, Control_c, 7, 1, 59
8, 193464, Control_c, 7, 1, 63
8, 193476, Control_c, 7, 1, 65
8, 193496, Control_c, 7, 1, 61
8, 193504, Control_c, 7, 1, 56
8, 193516, Control_c, 7, 1, 49
8, 193528, Control_c, 7, 1, 43
8, 193536, Note_off_c, 7, 63, 120
8, 193536, Note_on_c, 7, 62, 120
8, 193536, Control_c, 7, 1, 41
8, 193556, Control_c, 7, 1, 42
8, 193584, Control_c, 7, 1, 41
8, 193596, Control_c, 7, 1, 35
8, 193604, Control_c, 7, 1, 29
8, 193616, Control_c, 7, 1, 25
8, 193624, Control_c, 7, 1, 23
8, 193644, Control_c, 7, 1, 22
8, 193656, Control_c, 7, 1, 18
8, 193664, Control_c, 7, 1, 13
8, 193676, Control_c, 7, 1, 9
8, 193688, Control_c, 7, 1, 6
8, 193696, Control_c, 7, 1, 2
8, 193708, Control_c, 7, 1, 0
8, 193716, Control_c, 7, 1, 0
8, 193764, Control_c, 7, 1, 0
8, 193776, Control_c, 7, 1, 1
8, 193796, Control_c, 7, 1, 0
8, 193804, Control_c, 7, 1, 0
8, 193816, Control_c, 7, 1, 0
8, 193892, Control_c, 7, 1, 0
8, 193904, Control_c, 7, 1, 2
8, 193912, Control_c, 7, 1, 4
8, 193924, Control_c, 7, 1, 5
8, 193932, Control_c, 7, 1, 6
8, 193944, Control_c, 7, 1, 8
8, 193952, Control_c, 7, 1, 10
8, 193964, Control_c, 7, 1, 12
8, 193972, Control_c, 7, 1, 14
8, 193984, Control_c, 7, 1, 17
8, 193992, Control_c, 7, 1, 20
8, 194004, Control_c, 7, 1, 25
8, 194016, Control_c, 7, 1, 31
8, 194024, Control_c, 7, 1, 36
8, 194032, Control_c, 7, 1, 39
8, 194044, Control_c, 7, 1, 40
8, 194056, Control_c, 7, 1, 41
8, 194064, Control_c, 7, 1, 42
8, 194084, Control_c, 7, 1, 44
8, 194092, Control_c, 7, 1, 45
8, 194104, Control_c, 7, 1, 46
8, 194112, Control_c, 7, 1, 47
8, 194144, Control_c, 7, 1, 46
8, 194220, Control_c, 7, 1, 47
8, 194232, Control_c, 7, 1, 48
8, 194252, Control_c, 7, 1, 49
8, 194328, Control_c, 7, 1, 50
8, 194416, Control_c, 7, 1, 51
8, 194428, Control_c, 7, 1, 52
8, 194484, Control_c, 7, 1, 53
8, 194496, Control_c, 7, 1, 54
8, 194516, Control_c, 7, 1, 55
8, 194612, Control_c, 7, 1, 54
8, 194624, Control_c, 7, 1, 53
8, 194632, Control_c, 7, 1, 52
8, 194700, Control_c, 7, 1, 51
8, 194712, Control_c, 7, 1, 48
8, 194720, Control_c, 7, 1, 45
8, 194732, Control_c, 7, 1, 42
8, 194740, Control_c, 7, 1, 40
8, 194752, Control_c, 7, 1, 37
8, 194764, Control_c, 7, 1, 33
8, 194772, Control_c, 7, 1, 28
8, 194780, Control_c, 7, 1, 23
8, 194792, Control_c, 7, 1, 18
8, 194804, Control_c, 7, 1, 12
8, 194812, Control_c, 7, 1, 7
8, 194820, Control_c, 7, 1, 3
8, 194832, Control_c, 7, 1, 0
8, 194844, Control_c, 7, 1, 0
8, 195072, Note_off_c, 7, 62, 120
8, 195072, Note_on_c, 7, 63, 120
8, 195648, Note_off_c, 7, 63, 120
8, 195648, Note_on_c, 7, 65, 120
8, 196036, Control_c, 7, 1, 6
8, 196044, Control_c, 7, 1, 28
8, 196056, Control_c, 7, 1, 52
8, 196064, Control_c, 7, 1, 69
8, 196076, Control_c, 7, 1, 77
8, 196084, Control_c, 7, 1, 75
8, 196096, Control_c, 7, 1, 61
8, 196104, Control_c, 7, 1, 39
8, 196116, Control_c, 7, 1, 19
8, 196124, Control_c, 7, 1, 8
8, 196136, Control_c, 7, 1, 3
8, 196148, Control_c, 7, 1, 0
8, 196156, Control_c, 7, 1, 0
8, 196224, Note_off_c, 7, 65, 120
8, 196224, Note_on_c, 7, 67, 120
8, 196608, Note_off_c, 7, 67, 120
8, 196608, Note_on_c, 7, 67, 120
8, 197156, Control_c, 7, 1, 0
8, 197176, Control_c, 7, 1, 1
8, 197184, Control_c, 7, 1, 2
8, 197196, Control_c, 7, 1, 3
8, 197208, Control_c, 7, 1, 5
8, 197216, Control_c, 7, 1, 6
8, 197228, Control_c, 7, 1, 7
8, 197236, Control_c, 7, 1, 8
8, 197256, Control_c, 7, 1, 9
8, 197268, Control_c, 7, 1, 10
8, 197276, Control_c, 7, 1, 11
8, 197288, Control_c, 7, 1, 12
8, 197296, Control_c, 7, 1, 14
8, 197308, Control_c, 7, 1, 15
8, 197344, Control_c, 7, 1, 16
8, 197364, Control_c, 7, 1, 17
8, 197396, Control_c, 7, 1, 18
8, 197452, Control_c, 7, 1, 19
8, 197532, Control_c, 7, 1, 20
8, 197540, Control_c, 7, 1, 22
8, 197552, Control_c, 7, 1, 24
8, 197564, Control_c, 7, 1, 26
8, 197572, Control_c, 7, 1, 28
8, 197580, Control_c, 7, 1, 29
8, 197612, Control_c, 7, 1, 30
8, 197624, Control_c, 7, 1, 31
8, 197640, Control_c, 7, 1, 32
8, 197652, Control_c, 7, 1, 33
8, 197664, Control_c, 7, 1, 35
8, 197672, Control_c, 7, 1, 36
8, 197680, Control_c, 7, 1, 37
8, 197692, Control_c, 7, 1, 38
8, 197712, Control_c, 7, 1, 39
8, 197720, Control_c, 7, 1, 40
8, 197732, Control_c, 7, 1, 42
8, 197752, Control_c, 7, 1, 43
8, 197800, Control_c, 7, 1, 44
8, 197868, Control_c, 7, 1, 43
8, 197920, Control_c, 7, 1, 44
8, 197948, Control_c, 7, 1, 41
8, 197960, Control_c, 7, 1, 35
8, 197968, Control_c, 7, 1, 25
8, 197980, Control_c, 7, 1, 17
8, 197988, Control_c, 7, 1, 10
8, 198000, Control_c, 7, 1, 5
8, 198008, Control_c, 7, 1, 2
8, 198020, Control_c, 7, 1, 0
8, 198028, Control_c, 7, 1, 0
8, 198048, Note_off_c, 7, 67, 120
8, 198144, Note_on_c, 7, 68, 120
8, 198552, Control_c, 7, 1, 1
8, 198564, Control_c, 7, 1, 4
8, 198572, Control_c, 7, 1, 7
8, 198584, Control_c, 7, 1, 10
8, 198592, Control_c, 7, 1, 14
8, 198604, Control_c, 7, 1, 17
8, 198616, Control_c, 7, 1, 20
8, 198624, Control_c, 7, 1, 22
8, 198636, Control_c, 7, 1, 23
8, 198664, Control_c, 7, 1, 24
8, 198704, Control_c, 7, 1, 25
8, 198712, Control_c, 7, 1, 26
8, 198724, Control_c, 7, 1, 27
8, 198732, Control_c, 7, 1, 28
8, 198744, Control_c, 7, 1, 29
8, 198764, Control_c, 7, 1, 31
8, 198772, Control_c, 7, 1, 32
8, 198792, Control_c, 7, 1, 33
8, 198824, Control_c, 7, 1, 34
8, 198908, Control_c, 7, 1, 33
8, 198920, Control_c, 7, 1, 32
8, 198980, Control_c, 7, 1, 34
8, 198988, Control_c, 7, 1, 35
8, 199000, Control_c, 7, 1, 36
8, 199008, Control_c, 7, 1, 38
8, 199020, Control_c, 7, 1, 39
8, 199088, Control_c, 7, 1, 40
8, 199116, Control_c, 7, 1, 41
8, 199168, Control_c, 7, 1, 39
8, 199176, Control_c, 7, 1, 37
8, 199188, Control_c, 7, 1, 35
8, 199196, Control_c, 7, 1, 34
8, 199216, Control_c, 7, 1, 33
8, 199296, Control_c, 7, 1, 32
8, 199304, Control_c, 7, 1, 31
8, 199316, Control_c, 7, 1, 29
8, 199324, Control_c, 7, 1, 27
8, 199364, Control_c, 7, 1, 25
8, 199376, Control_c, 7, 1, 24
8, 199384, Control_c, 7, 1, 23
8, 199424, Control_c, 7, 1, 22
8, 199432, Control_c, 7, 1, 20
8, 199444, Control_c, 7, 1, 19
8, 199452, Control_c, 7, 1, 15
8, 199464, Control_c, 7, 1, 11
8, 199472, Control_c, 7, 1, 7
8, 199484, Control_c, 7, 1, 3
8, 199496, Control_c, 7, 1, 1
8, 199504, Control_c, 7, 1, 0
8, 199516, Control_c, 7, 1, 0
8, 199636, Note_off_c, 7, 68, 120
8, 199680, Note_on_c, 7, 70, 120
8, 200088, Control_c, 7, 1, 0
8, 200108, Control_c, 7, 1, 0
8, 200116, Control_c, 7, 1, 1
8, 200136, Control_c, 7, 1, 2
8, 200168, Control_c, 7, 1, 3
8, 200176, Control_c, 7, 1, 4
8, 200188, Control_c, 7, 1, 5
8, 200196, Control_c, 7, 1, 6
8, 200256, Control_c, 7, 1, 7
8, 200288, Control_c, 7, 1, 8
8, 200308, Control_c, 7, 1, 9
8, 200316, Control_c, 7, 1, 10
8, 200336, Control_c, 7, 1, 11
8, 200344, Control_c, 7, 1, 12
8, 200356, Control_c, 7, 1, 13
8, 200364, Control_c, 7, 1, 15
8, 200376, Control_c, 7, 1, 17
8, 200388, Control_c, 7, 1, 18
8, 200396, Control_c, 7, 1, 19
8, 200416, Control_c, 7, 1, 20
8, 200532, Control_c, 7, 1, 21
8, 200544, Control_c, 7, 1, 22
8, 200552, Control_c, 7, 1, 23
8, 200564, Control_c, 7, 1, 24
8, 200572, Control_c, 7, 1, 25
8, 200584, Control_c, 7, 1, 26
8, 200624, Control_c, 7, 1, 27
8, 200644, Control_c, 7, 1, 28
8, 200780, Control_c, 7, 1, 27
8, 200828, Control_c, 7, 1, 28
8, 200888, Control_c, 7, 1, 29
8, 200944, Control_c, 7, 1, 30
8, 200956, Control_c, 7, 1, 31
8, 200964, Control_c, 7, 1, 33
8, 200984, Control_c, 7, 1, 34
8, 201044, Control_c, 7, 1, 32
8, 201052, Control_c, 7, 1, 29
8, 201064, Control_c, 7, 1, 27
8, 201072, Control_c, 7, 1, 24
8, 201084, Control_c, 7, 1, 21
8, 201096, Control_c, 7, 1, 15
8, 201104, Control_c, 7, 1, 8
8, 201116, Control_c, 7, 1, 3
8, 201124, Control_c, 7, 1, 0
8, 201136, Control_c, 7, 1, 0
8, 201140, Note_off_c, 7, 70, 120
8, 201216, Note_on_c, 7, 72, 120
8, 201640, Control_c, 7, 1, 0
8, 201652, Control_c, 7, 1, 2
8, 201660, Control_c, 7, 1, 3
8, 201672, Control_c, 7, 1, 4
8, 201768, Control_c, 7, 1, 3
8, 201780, Control_c, 7, 1, 2
8, 201808, Control_c, 7, 1, 3
8, 201836, Control_c, 7, 1, 4
8, 201848, Control_c, 7, 1, 5
8, 201856, Control_c, 7, 1, 7
8, 201868, Control_c, 7, 1, 8
8, 201888, Control_c, 7, 1, 9
8, 201896, Control_c, 7, 1, 10
8, 201908, Control_c, 7, 1, 11
8, 201916, Control_c, 7, 1, 12
8, 201928, Control_c, 7, 1, 13
8, 201996, Control_c, 7, 1, 14
8, 202084, Control_c, 7, 1, 15
8, 202096, Control_c, 7, 1, 16
8, 202104, Control_c, 7, 1, 17
8, 202116, Control_c, 7, 1, 18
8, 202124, Control_c, 7, 1, 20
8, 202136, Control_c, 7, 1, 21
8, 202156, Control_c, 7, 1, 22
8, 202164, Control_c, 7, 1, 23
8, 202176, Control_c, 7, 1, 24
8, 202184, Control_c, 7, 1, 26
8, 202196, Control_c, 7, 1, 28
8, 202204, Control_c, 7, 1, 29
8, 202212, Control_c, 7, 1, 30
8, 202264, Control_c, 7, 1, 29
8, 202272, Control_c, 7, 1, 28
8, 202284, Control_c, 7, 1, 27
8, 202292, Control_c, 7, 1, 26
8, 202304, Control_c, 7, 1, 25
8, 202344, Control_c, 7, 1, 26
8, 202352, Control_c, 7, 1, 27
8, 202440, Control_c, 7, 1, 28
8, 202452, Control_c, 7, 1, 29
8, 202460, Control_c, 7, 1, 31
8, 202472, Control_c, 7, 1, 33
8, 202480, Control_c, 7, 1, 34
8, 202492, Control_c, 7, 1, 35
8, 202500, Control_c, 7, 1, 36
8, 202552, Control_c, 7, 1, 35
8, 202560, Control_c, 7, 1, 31
8, 202572, Control_c, 7, 1, 26
8, 202580, Control_c, 7, 1, 18
8, 202592, Control_c, 7, 1, 10
8, 202600, Control_c, 7, 1, 4
8, 202612, Control_c, 7, 1, 1
8, 202620, Control_c, 7, 1, 0
8, 202632, Control_c, 7, 1, 0
8, 202660, Pitch_bend_c, 7, 8224
8, 202672, Pitch_bend_c, 7, 8545
8, 202680, Pitch_bend_c, 7, 8930
8, 202692, Pitch_bend_c, 7, 9444
8, 202700, Pitch_bend_c, 7, 9926
8, 202712, Note_off_c, 7, 72, 120
8, 202712, Pitch_bend_c, 7, 10408
8, 202720, Pitch_bend_c, 7, 10858
8, 202732, Pitch_bend_c, 7, 11276
8, 202744, Pitch_bend_c, 7, 11757
8, 202752, Note_on_c, 7, 74, 125
8, 202752, Pitch_bend_c, 7, 12143
8, 202760, Pitch_bend_c, 7, 12432
8, 202772, Pitch_bend_c, 7, 12657
8, 202784, Pitch_bend_c, 7, 12785
8, 202792, Pitch_bend_c, 7, 12882
8, 202804, Pitch_bend_c, 7, 12946
8, 202844, Pitch_bend_c, 7, 12882
8, 202852, Pitch_bend_c, 7, 12785
8, 202864, Pitch_bend_c, 7, 12593
8, 202876, Pitch_bend_c, 7, 12432
8, 202884, Pitch_bend_c, 7, 12207
8, 202896, Pitch_bend_c, 7, 11918
8, 202908, Pitch_bend_c, 7, 11597
8, 202916, Pitch_bend_c, 7, 11115
8, 202924, Pitch_bend_c, 7, 10569
8, 202936, Pitch_bend_c, 7, 9926
8, 202948, Pitch_bend_c, 7, 9348
8, 202956, Pitch_bend_c, 7, 8802
8, 202968, Pitch_bend_c, 7, 8481
8, 202976, Pitch_bend_c, 7, 8256
8, 202988, Pitch_bend_c, 7, 8192
8, 203040, Note_on_c, 7, 72, 109
8, 203064, Note_off_c, 7, 74, 125
8, 203136, Note_on_c, 7, 68, 105
8, 203156, Note_off_c, 7, 72, 109
8, 203328, Note_on_c, 7, 67, 116
8, 203332, Note_off_c, 7, 68, 105
8, 203732, Control_c, 7, 1, 0
8, 203924, Control_c, 7, 1, 64
8, 204124, Control_c, 7, 1, 119
8, 204264, Control_c, 7, 1, 0
8, 204272, Note_off_c, 7, 67, 116
8, 204276, Control_c, 7, 1, 0
8, 204288, Note_on_c, 7, 72, 120
8, 204792, Control_c, 7, 1, 4
8, 204800, Control_c, 7, 1, 19
8, 204808, Control_c, 7, 1, 31
8, 204820, Control_c, 7, 1, 37
8, 204832, Control_c, 7, 1, 36
8, 204840, Control_c, 7, 1, 27
8, 204852, Control_c, 7, 1, 13
8, 204860, Control_c, 7, 1, 5
8, 204864, Note_on_c, 7, 74, 120
8, 204872, Control_c, 7, 1, 1
8, 204880, Note_off_c, 7, 72, 120
8, 204880, Control_c, 7, 1, 0
8, 204892, Control_c, 7, 1, 0
8, 205440, Note_off_c, 7, 74, 120
8, 205440, Note_on_c, 7, 75, 120
8, 205824, Note_off_c, 7, 75, 120
8, 205824, Note_on_c, 7, 74, 120
8, 206156, Control_c, 7, 1, 0
8, 206164, Control_c, 7, 1, 1
8, 206184, Control_c, 7, 1, 0
8, 206244, Control_c, 7, 1, 1
8, 206256, Control_c, 7, 1, 2
8, 206264, Control_c, 7, 1, 4
8, 206276, Control_c, 7, 1, 6
8, 206284, Control_c, 7, 1, 7
8, 206304, Control_c, 7, 1, 8
8, 206392, Control_c, 7, 1, 7
8, 206420, Control_c, 7, 1, 9
8, 206432, Control_c, 7, 1, 10
8, 206452, Control_c, 7, 1, 11
8, 206464, Control_c, 7, 1, 12
8, 206520, Control_c, 7, 1, 13
8, 206532, Control_c, 7, 1, 14
8, 206540, Control_c, 7, 1, 15
8, 206552, Control_c, 7, 1, 17
8, 206572, Control_c, 7, 1, 18
8, 206608, Control_c, 7, 1, 19
8, 206620, Control_c, 7, 1, 20
8, 206632, Control_c, 7, 1, 22
8, 206640, Control_c, 7, 1, 25
8, 206652, Control_c, 7, 1, 27
8, 206660, Control_c, 7, 1, 30
8, 206672, Control_c, 7, 1, 33
8, 206680, Control_c, 7, 1, 34
8, 206692, Control_c, 7, 1, 36
8, 206728, Control_c, 7, 1, 37
8, 206752, Control_c, 7, 1, 38
8, 206760, Control_c, 7, 1, 39
8, 206772, Control_c, 7, 1, 40
8, 206780, Control_c, 7, 1, 42
8, 206792, Control_c, 7, 1, 43
8, 206800, Control_c, 7, 1, 45
8, 206812, Control_c, 7, 1, 46
8, 206820, Control_c, 7, 1, 48
8, 206832, Control_c, 7, 1, 49
8, 206852, Control_c, 7, 1, 50
8, 206860, Control_c, 7, 1, 51
8, 206872, Control_c, 7, 1, 52
8, 206880, Control_c, 7, 1, 53
8, 206892, Control_c, 7, 1, 54
8, 206900, Control_c, 7, 1, 56
8, 206912, Control_c, 7, 1, 57
8, 206920, Control_c, 7, 1, 58
8, 206952, Control_c, 7, 1, 59
8, 206960, Control_c, 7, 1, 60
8, 206972, Control_c, 7, 1, 61
8, 206980, Control_c, 7, 1, 63
8, 206992, Control_c, 7, 1, 66
8, 207000, Control_c, 7, 1, 68
8, 207012, Control_c, 7, 1, 70
8, 207024, Control_c, 7, 1, 72
8, 207052, Control_c, 7, 1, 70
8, 207060, Control_c, 7, 1, 69
8, 207072, Control_c, 7, 1, 68
8, 207112, Control_c, 7, 1, 69
8, 207152, Control_c, 7, 1, 67
8, 207160, Control_c, 7, 1, 65
8, 207168, Control_c, 7, 1, 63
8, 207192, Control_c, 7, 1, 64
8, 207200, Control_c, 7, 1, 66
8, 207208, Control_c, 7, 1, 68
8, 207220, Control_c, 7, 1, 69
8, 207240, Control_c, 7, 1, 66
8, 207252, Control_c, 7, 1, 60
8, 207260, Control_c, 7, 1, 52
8, 207268, Control_c, 7, 1, 43
8, 207280, Control_c, 7, 1, 32
8, 207292, Control_c, 7, 1, 17
8, 207300, Control_c, 7, 1, 7
8, 207312, Control_c, 7, 1, 2
8, 207320, Control_c, 7, 1, 0
8, 207332, Control_c, 7, 1, 0
8, 207360, Note_off_c, 7, 74, 120
8, 207360, Note_on_c, 7, 75, 120
8, 207692, Control_c, 7, 1, 1
8, 207700, Control_c, 7, 1, 6
8, 207712, Control_c, 7, 1, 11
8, 207724, Control_c, 7, 1, 18
8, 207732, Control_c, 7, 1, 26
8, 207740, Control_c, 7, 1, 35
8, 207752, Control_c, 7, 1, 45
8, 207760, Control_c, 7, 1, 55
8, 207772, Control_c, 7, 1, 62
8, 207780, Control_c, 7, 1, 70
8, 207792, Control_c, 7, 1, 76
8, 207800, Control_c, 7, 1, 80
8, 207812, Control_c, 7, 1, 84
8, 207820, Control_c, 7, 1, 87
8, 207832, Control_c, 7, 1, 88
8, 207852, Control_c, 7, 1, 86
8, 207864, Control_c, 7, 1, 83
8, 207872, Control_c, 7, 1, 77
8, 207884, Control_c, 7, 1, 72
8, 207892, Control_c, 7, 1, 64
8, 207904, Control_c, 7, 1, 56
8, 207912, Control_c, 7, 1, 48
8, 207924, Control_c, 7, 1, 38
8, 207932, Control_c, 7, 1, 28
8, 207936, Note_on_c, 7, 77, 120
8, 207944, Control_c, 7, 1, 17
8, 207952, Control_c, 7, 1, 8
8, 207956, Note_off_c, 7, 75, 120
8, 207964, Control_c, 7, 1, 3
8, 207972, Control_c, 7, 1, 0
8, 207984, Control_c, 7, 1, 0
8, 208512, Note_on_c, 7, 79, 120
8, 208540, Note_off_c, 7, 77, 120
8, 208644, Pitch_bend_c, 7, 8384
8, 208656, Pitch_bend_c, 7, 7742
8, 208664, Pitch_bend_c, 7, 7420
8, 208676, Pitch_bend_c, 7, 7003
8, 208684, Pitch_bend_c, 7, 6649
8, 208696, Pitch_bend_c, 7, 6392
8, 208704, Pitch_bend_c, 7, 6071
8, 208716, Pitch_bend_c, 7, 5654
8, 208724, Pitch_bend_c, 7, 5140
8, 208736, Pitch_bend_c, 7, 4626
8, 208748, Pitch_bend_c, 7, 4144
8, 208756, Pitch_bend_c, 7, 3726
8, 208768, Pitch_bend_c, 7, 3501
8, 208780, Pitch_bend_c, 7, 3405
8, 208788, Pitch_bend_c, 7, 3341
8, 208796, Pitch_bend_c, 7, 3276
8, 208808, Pitch_bend_c, 7, 3244
8, 208820, Pitch_bend_c, 7, 3180
8, 208828, Pitch_bend_c, 7, 3116
8, 208836, Pitch_bend_c, 7, 3051
8, 208876, Pitch_bend_c, 7, 3116
8, 208888, Pitch_bend_c, 7, 3276
8, 208896, Note_off_c, 7, 79, 120
8, 208896, Note_on_c, 7, 79, 120
8, 208896, Pitch_bend_c, 7, 3501
8, 208908, Pitch_bend_c, 7, 3790
8, 208920, Pitch_bend_c, 7, 4079
8, 208928, Pitch_bend_c, 7, 4529
8, 208940, Pitch_bend_c, 7, 5107
8, 208948, Pitch_bend_c, 7, 5686
8, 208960, Pitch_bend_c, 7, 6232
8, 208968, Pitch_bend_c, 7, 6649
8, 208980, Pitch_bend_c, 7, 7099
8, 208992, Pitch_bend_c, 7, 7453
8, 209000, Pitch_bend_c, 7, 7742
8, 209008, Pitch_bend_c, 7, 7967
8, 209020, Pitch_bend_c, 7, 8159
8, 209032, Pitch_bend_c, 7, 8192
8, 209148, Control_c, 7, 1, 0
8, 209156, Control_c, 7, 1, 4
8, 209168, Control_c, 7, 1, 11
8, 209180, Control_c, 7, 1, 19
8, 209188, Control_c, 7, 1, 26
8, 209196, Control_c, 7, 1, 32
8, 209208, Control_c, 7, 1, 37
8, 209220, Control_c, 7, 1, 40
8, 209228, Control_c, 7, 1, 42
8, 209236, Control_c, 7, 1, 44
8, 209248, Control_c, 7, 1, 47
8, 209260, Control_c, 7, 1, 55
8, 209268, Control_c, 7, 1, 61
8, 209280, Control_c, 7, 1, 67
8, 209288, Control_c, 7, 1, 72
8, 209300, Control_c, 7, 1, 75
8, 209308, Control_c, 7, 1, 77
8, 209356, Control_c, 7, 1, 79
8, 209368, Control_c, 7, 1, 80
8, 209376, Control_c, 7, 1, 83
8, 209388, Control_c, 7, 1, 84
8, 209400, Control_c, 7, 1, 85
8, 209468, Control_c, 7, 1, 86
8, 209524, Control_c, 7, 1, 87
8, 209544, Control_c, 7, 1, 88
8, 209604, Control_c, 7, 1, 89
8, 209896, Control_c, 7, 1, 88
8, 209904, Control_c, 7, 1, 87
8, 209936, Control_c, 7, 1, 88
8, 209964, Control_c, 7, 1, 86
8, 209976, Control_c, 7, 1, 83
8, 209984, Control_c, 7, 1, 77
8, 209996, Control_c, 7, 1, 72
8, 210008, Control_c, 7, 1, 67
8, 210016, Control_c, 7, 1, 65
8, 210092, Control_c, 7, 1, 61
8, 210104, Control_c, 7, 1, 55
8, 210116, Control_c, 7, 1, 48
8, 210124, Control_c, 7, 1, 46
8, 210156, Control_c, 7, 1, 44
8, 210164, Control_c, 7, 1, 38
8, 210172, Control_c, 7, 1, 26
8, 210184, Control_c, 7, 1, 13
8, 210196, Control_c, 7, 1, 5
8, 210204, Control_c, 7, 1, 1
8, 210216, Control_c, 7, 1, 0
8, 210224, Control_c, 7, 1, 0
8, 210428, Pitch_bend_c, 7, 8320
8, 210432, Note_off_c, 7, 79, 120
8, 210432, Note_on_c, 7, 80, 120
8, 210440, Pitch_bend_c, 7, 7228
8, 210448, Pitch_bend_c, 7, 6039
8, 210460, Pitch_bend_c, 7, 4947
8, 210468, Pitch_bend_c, 7, 4304
8, 210480, Pitch_bend_c, 7, 4079
8, 210488, Pitch_bend_c, 7, 4240
8, 210500, Pitch_bend_c, 7, 4722
8, 210512, Pitch_bend_c, 7, 5429
8, 210520, Pitch_bend_c, 7, 5975
8, 210532, Pitch_bend_c, 7, 6328
8, 210540, Pitch_bend_c, 7, 6553
8, 210552, Pitch_bend_c, 7, 6714
8, 210560, Pitch_bend_c, 7, 6874
8, 210572, Pitch_bend_c, 7, 7099
8, 210580, Pitch_bend_c, 7, 7356
8, 210592, Pitch_bend_c, 7, 7613
8, 210604, Pitch_bend_c, 7, 7999
8, 210612, Pitch_bend_c, 7, 8159
8, 210620, Pitch_bend_c, 7, 8192
8, 210992, Control_c, 7, 1, 1
8, 211004, Control_c, 7, 1, 4
8, 211012, Control_c, 7, 1, 8
8, 211024, Control_c, 7, 1, 12
8, 211032, Control_c, 7, 1, 14
8, 211044, Control_c, 7, 1, 17
8, 211052, Control_c, 7, 1, 21
8, 211064, Control_c, 7, 1, 25
8, 211072, Control_c, 7, 1, 30
8, 211084, Control_c, 7, 1, 35
8, 211092, Control_c, 7, 1, 38
8, 211104, Control_c, 7, 1, 40
8, 211112, Control_c, 7, 1, 41
8, 211124, Control_c, 7, 1, 42
8, 211132, Control_c, 7, 1, 43
8, 211172, Control_c, 7, 1, 42
8, 211184, Control_c, 7, 1, 41
8, 211192, Control_c, 7, 1, 39
8, 211204, Control_c, 7, 1, 36
8, 211212, Control_c, 7, 1, 33
8, 211224, Control_c, 7, 1, 31
8, 211232, Control_c, 7, 1, 29
8, 211264, Control_c, 7, 1, 28
8, 211304, Control_c, 7, 1, 27
8, 211312, Control_c, 7, 1, 25
8, 211320, Control_c, 7, 1, 23
8, 211352, Control_c, 7, 1, 24
8, 211360, Control_c, 7, 1, 27
8, 211372, Control_c, 7, 1, 30
8, 211384, Control_c, 7, 1, 32
8, 211400, Control_c, 7, 1, 29
8, 211412, Control_c, 7, 1, 27
8, 211424, Control_c, 7, 1, 25
8, 211432, Control_c, 7, 1, 24
8, 211452, Control_c, 7, 1, 22
8, 211464, Control_c, 7, 1, 20
8, 211472, Control_c, 7, 1, 14
8, 211484, Control_c, 7, 1, 8
8, 211492, Control_c, 7, 1, 3
8, 211504, Control_c, 7, 1, 0
8, 211512, Control_c, 7, 1, 0
8, 211552, Control_c, 7, 1, 2
8, 211564, Control_c, 7, 1, 9
8, 211572, Control_c, 7, 1, 17
8, 211584, Control_c, 7, 1, 23
8, 211592, Control_c, 7, 1, 26
8, 211604, Control_c, 7, 1, 27
8, 211644, Control_c, 7, 1, 28
8, 211652, Control_c, 7, 1, 30
8, 211664, Control_c, 7, 1, 31
8, 211680, Control_c, 7, 1, 33
8, 211704, Control_c, 7, 1, 34
8, 211720, Control_c, 7, 1, 35
8, 211752, Control_c, 7, 1, 36
8, 211760, Control_c, 7, 1, 39
8, 211772, Control_c, 7, 1, 43
8, 211780, Control_c, 7, 1, 45
8, 211792, Control_c, 7, 1, 44
8, 211800, Control_c, 7, 1, 38
8, 211812, Control_c, 7, 1, 28
8, 211820, Control_c, 7, 1, 17
8, 211832, Control_c, 7, 1, 7
8, 211840, Control_c, 7, 1, 2
8, 211852, Control_c, 7, 1, 0
8, 211864, Control_c, 7, 1, 0
8, 211920, Note_off_c, 7, 80, 120
8, 211968, Note_on_c, 7, 82, 120
8, 212340, Control_c, 7, 1, 0
8, 212348, Control_c, 7, 1, 1
8, 212360, Control_c, 7, 1, 4
8, 212368, Control_c, 7, 1, 8
8, 212380, Control_c, 7, 1, 12
8, 212388, Control_c, 7, 1, 17
8, 212400, Control_c, 7, 1, 20
8, 212408, Control_c, 7, 1, 22
8, 212460, Control_c, 7, 1, 24
8, 212468, Control_c, 7, 1, 25
8, 212476, Control_c, 7, 1, 26
8, 212488, Control_c, 7, 1, 28
8, 212500, Control_c, 7, 1, 30
8, 212508, Control_c, 7, 1, 31
8, 212568, Control_c, 7, 1, 33
8, 212576, Control_c, 7, 1, 35
8, 212588, Control_c, 7, 1, 37
8, 212596, Control_c, 7, 1, 38
8, 212636, Control_c, 7, 1, 39
8, 212656, Control_c, 7, 1, 41
8, 212664, Control_c, 7, 1, 42
8, 212696, Control_c, 7, 1, 41
8, 212704, Control_c, 7, 1, 40
8, 212824, Control_c, 7, 1, 41
8, 212852, Control_c, 7, 1, 42
8, 212940, Control_c, 7, 1, 43
8, 212960, Control_c, 7, 1, 44
8, 212980, Control_c, 7, 1, 45
8, 212988, Control_c, 7, 1, 46
8, 213008, Control_c, 7, 1, 47
8, 213020, Control_c, 7, 1, 48
8, 213028, Control_c, 7, 1, 50
8, 213040, Control_c, 7, 1, 52
8, 213048, Control_c, 7, 1, 55
8, 213060, Control_c, 7, 1, 57
8, 213068, Control_c, 7, 1, 59
8, 213100, Control_c, 7, 1, 60
8, 213176, Control_c, 7, 1, 59
8, 213236, Control_c, 7, 1, 58
8, 213256, Control_c, 7, 1, 56
8, 213264, Control_c, 7, 1, 55
8, 213284, Control_c, 7, 1, 54
8, 213296, Control_c, 7, 1, 53
8, 213304, Control_c, 7, 1, 52
8, 213336, Control_c, 7, 1, 51
8, 213344, Control_c, 7, 1, 45
8, 213356, Control_c, 7, 1, 34
8, 213364, Control_c, 7, 1, 18
8, 213376, Control_c, 7, 1, 8
8, 213384, Control_c, 7, 1, 3
8, 213396, Control_c, 7, 1, 0
8, 213404, Control_c, 7, 1, 0
8, 213480, Note_off_c, 7, 82, 120
8, 213504, Note_on_c, 7, 84, 120
8, 213560, Pitch_bend_c, 7, 8416
8, 213572, Pitch_bend_c, 7, 7742
8, 213580, Pitch_bend_c, 7, 7613
8, 213592, Pitch_bend_c, 7, 7581
8, 213648, Pitch_bend_c, 7, 7613
8, 213660, Pitch_bend_c, 7, 7774
8, 213668, Pitch_bend_c, 7, 7999
8, 213680, Pitch_bend_c, 7, 8159
8, 213688, Pitch_bend_c, 7, 8192
8, 213876, Control_c, 7, 1, 0
8, 213884, Control_c, 7, 1, 4
8, 213896, Control_c, 7, 1, 8
8, 213904, Control_c, 7, 1, 11
8, 213916, Control_c, 7, 1, 13
8, 213924, Control_c, 7, 1, 15
8, 213936, Control_c, 7, 1, 20
8, 213944, Control_c, 7, 1, 29
8, 213956, Control_c, 7, 1, 41
8, 213964, Control_c, 7, 1, 53
8, 213976, Control_c, 7, 1, 63
8, 213984, Control_c, 7, 1, 71
8, 213996, Control_c, 7, 1, 76
8, 214008, Control_c, 7, 1, 77
8, 214016, Control_c, 7, 1, 75
8, 214024, Control_c, 7, 1, 73
8, 214036, Control_c, 7, 1, 72
8, 214064, Control_c, 7, 1, 73
8, 214076, Control_c, 7, 1, 74
8, 214232, Control_c, 7, 1, 75
8, 214376, Control_c, 7, 1, 76
8, 214396, Control_c, 7, 1, 77
8, 214404, Control_c, 7, 1, 78
8, 214416, Control_c, 7, 1, 79
8, 214428, Control_c, 7, 1, 80
8, 214592, Control_c, 7, 1, 81
8, 214620, Control_c, 7, 1, 83
8, 214680, Control_c, 7, 1, 84
8, 214692, Control_c, 7, 1, 85
8, 214708, Control_c, 7, 1, 86
8, 214780, Control_c, 7, 1, 85
8, 214788, Control_c, 7, 1, 84
8, 214800, Control_c, 7, 1, 82
8, 214808, Control_c, 7, 1, 80
8, 214836, Control_c, 7, 1, 82
8, 214848, Control_c, 7, 1, 83
8, 214856, Control_c, 7, 1, 85
8, 214868, Control_c, 7, 1, 86
8, 214876, Control_c, 7, 1, 87
8, 214888, Control_c, 7, 1, 88
8, 214896, Control_c, 7, 1, 89
8, 214916, Control_c, 7, 1, 90
8, 214936, Control_c, 7, 1, 89
8, 214948, Pitch_bend_c, 7, 8224
8, 214960, Pitch_bend_c, 7, 8545
8, 214968, Pitch_bend_c, 7, 8930
8, 214976, Control_c, 7, 1, 85
8, 214980, Pitch_bend_c, 7, 9444
8, 214988, Control_c, 7, 1, 71
8, 214988, Pitch_bend_c, 7, 9926
8, 214996, Control_c, 7, 1, 44
8, 215000, Pitch_bend_c, 7, 10408
8, 215008, Note_off_c, 7, 84, 120
8, 215008, Control_c, 7, 1, 21
8, 215008, Pitch_bend_c, 7, 10858
8, 215016, Control_c, 7, 1, 9
8, 215020, Pitch_bend_c, 7, 11276
8, 215028, Control_c, 7, 1, 3
8, 215032, Pitch_bend_c, 7, 11757
8, 215036, Control_c, 7, 1, 0
8, 215040, Pitch_bend_c, 7, 12143
8, 215048, Control_c, 7, 1, 0
8, 215048, Pitch_bend_c, 7, 12432
8, 215060, Pitch_bend_c, 7, 12657
8, 215072, Pitch_bend_c, 7, 12785
8, 215080, Pitch_bend_c, 7, 12882
8, 215080, Note_on_c, 7, 74, 125
8, 215092, Pitch_bend_c, 7, 12946
8, 215132, Pitch_bend_c, 7, 12882
8, 215140, Pitch_bend_c, 7, 12785
8, 215152, Pitch_bend_c, 7, 12593
8, 215164, Pitch_bend_c, 7, 12432
8, 215172, Pitch_bend_c, 7, 12207
8, 215184, Pitch_bend_c, 7, 11918
8, 215196, Pitch_bend_c, 7, 11597
8, 215204, Pitch_bend_c, 7, 11115
8, 215212, Pitch_bend_c, 7, 10569
8, 215224, Pitch_bend_c, 7, 9926
8, 215236, Pitch_bend_c, 7, 9348
8, 215244, Pitch_bend_c, 7, 8802
8, 215256, Pitch_bend_c, 7, 8481
8, 215264, Pitch_bend_c, 7, 8256
8, 215276, Pitch_bend_c, 7, 8192
8, 215356, Note_on_c, 7, 72, 109
8, 215396, Note_off_c, 7, 74, 125
8, 215452, Note_on_c, 7, 68, 105
8, 215472, Note_off_c, 7, 72, 109
8, 215632, Note_on_c, 7, 67, 116
8, 215652, Note_off_c, 7, 68, 105
8, 216020, Control_c, 7, 1, 0
8, 216212, Control_c, 7, 1, 64
8, 216412, Control_c, 7, 1, 119
8, 216552, Control_c, 7, 1, 0
8, 216564, Control_c, 7, 1, 0
8, 216576, Note_off_c, 7, 67, 116
8, 216768, Note_on_c, 7, 68, 127
8, 216872, Note_off_c, 7, 68, 127
8, 216948, Note_on_c, 7, 71, 87
8, 217032, Note_off_c, 7, 71, 87
8, 217128, Note_on_c, 7, 74, 108
8, 217204, Note_off_c, 7, 74, 108
8, 217316, Note_on_c, 7, 77, 105
8, 217516, Note_on_c, 7, 75, 100
8, 217564, Note_off_c, 7, 77, 105
8, 217612, Note_off_c, 7, 75, 100
8, 217704, Note_on_c, 7, 74, 95
8, 217772, Note_off_c, 7, 74, 95
8, 217896, Note_on_c, 7, 72, 123
8, 218452, Note_off_c, 7, 72, 123
8, 221952, End_track
9, 0, Start_track
9, 0, Title_t, "SYNTH"
9, 544, Control_c, 8, 0, 0
9, 548, Control_c, 8, 121, 0
9, 552, Program_c, 8, 39
9, 556, Control_c, 8, 7, 70
9, 556, Control_c, 8, 10, 104
9, 556, Control_c, 8, 11, 127
9, 560, Control_c, 8, 91, 60
9, 560, Control_c, 8, 93, 0
9, 24768, Note_on_c, 8, 51, 77
9, 24864, Note_off_c, 8, 51, 77
9, 24864, Note_on_c, 8, 58, 74
9, 24960, Note_off_c, 8, 58, 74
9, 24960, Note_on_c, 8, 63, 71
9, 25056, Note_off_c, 8, 63, 71
9, 25056, Note_on_c, 8, 58, 67
9, 25152, Note_off_c, 8, 58, 67
9, 25152, Note_on_c, 8, 51, 71
9, 25248, Note_off_c, 8, 51, 71
9, 25248, Note_on_c, 8, 46, 66
9, 25344, Note_off_c, 8, 46, 66
9, 26304, Note_on_c, 8, 51, 66
9, 26400, Note_off_c, 8, 51, 66
9, 26400, Note_on_c, 8, 58, 57
9, 26496, Note_off_c, 8, 58, 57
9, 26496, Note_on_c, 8, 63, 62
9, 26592, Note_off_c, 8, 63, 62
9, 26592, Note_on_c, 8, 58, 66
9, 26688, Note_off_c, 8, 58, 66
9, 26688, Note_on_c, 8, 51, 70
9, 26784, Note_off_c, 8, 51, 70
9, 26784, Note_on_c, 8, 46, 62
9, 26880, Note_off_c, 8, 46, 62
9, 27840, Note_on_c, 8, 51, 70
9, 27936, Note_off_c, 8, 51, 70
9, 27936, Note_on_c, 8, 58, 61
9, 28032, Note_off_c, 8, 58, 61
9, 28032, Note_on_c, 8, 63, 69
9, 28128, Note_off_c, 8, 63, 69
9, 28128, Note_on_c, 8, 58, 65
9, 28224, Note_off_c, 8, 58, 65
9, 28224, Note_on_c, 8, 51, 76
9, 28320, Note_off_c, 8, 51, 76
9, 28320, Note_on_c, 8, 46, 76
9, 28416, Note_off_c, 8, 46, 76
9, 29376, Note_on_c, 8, 51, 69
9, 29472, Note_off_c, 8, 51, 69
9, 29472, Note_on_c, 8, 58, 66
9, 29568, Note_off_c, 8, 58, 66
9, 29568, Note_on_c, 8, 63, 70
9, 29664, Note_off_c, 8, 63, 70
9, 29664, Note_on_c, 8, 58, 64
9, 29760, Note_off_c, 8, 58, 64
9, 29760, Note_on_c, 8, 51, 74
9, 29856, Note_off_c, 8, 51, 74
9, 29856, Note_on_c, 8, 46, 74
9, 29952, Note_off_c, 8, 46, 74
9, 30912, Note_on_c, 8, 51, 73
9, 31008, Note_off_c, 8, 51, 73
9, 31008, Note_on_c, 8, 58, 67
9, 31104, Note_off_c, 8, 58, 67
9, 31104, Note_on_c, 8, 63, 63
9, 31200, Note_off_c, 8, 63, 63
9, 31200, Note_on_c, 8, 58, 63
9, 31296, Note_off_c, 8, 58, 63
9, 31296, Note_on_c, 8, 51, 74
9, 31392, Note_off_c, 8, 51, 74
9, 31392, Note_on_c, 8, 46, 74
9, 31488, Note_off_c, 8, 46, 74
9, 32448, Note_on_c, 8, 51, 66
9, 32544, Note_off_c, 8, 51, 66
9, 32544, Note_on_c, 8, 58, 66
9, 32640, Note_off_c, 8, 58, 66
9, 32640, Note_on_c, 8, 63, 74
9, 32736, Note_off_c, 8, 63, 74
9, 32736, Note_on_c, 8, 58, 58
9, 32832, Note_off_c, 8, 58, 58
9, 32832, Note_on_c, 8, 51, 71
9, 32928, Note_off_c, 8, 51, 71
9, 32928, Note_on_c, 8, 46, 74
9, 33024, Note_off_c, 8, 46, 74
9, 33984, Note_on_c, 8, 51, 74
9, 34080, Note_off_c, 8, 51, 74
9, 34080, Note_on_c, 8, 58, 66
9, 34176, Note_off_c, 8, 58, 66
9, 34176, Note_on_c, 8, 63, 71
9, 34272, Note_off_c, 8, 63, 71
9, 34272, Note_on_c, 8, 58, 67
9, 34368, Note_off_c, 8, 58, 67
9, 34368, Note_on_c, 8, 51, 75
9, 34464, Note_off_c, 8, 51, 75
9, 34464, Note_on_c, 8, 46, 68
9, 34560, Note_off_c, 8, 46, 68
9, 35520, Note_on_c, 8, 51, 78
9, 35616, Note_off_c, 8, 51, 78
9, 35616, Note_on_c, 8, 58, 76
9, 35712, Note_off_c, 8, 58, 76
9, 35712, Note_on_c, 8, 63, 79
9, 35808, Note_off_c, 8, 63, 79
9, 35808, Note_on_c, 8, 58, 57
9, 35904, Note_off_c, 8, 58, 57
9, 35904, Note_on_c, 8, 51, 79
9, 36000, Note_off_c, 8, 51, 79
9, 36000, Note_on_c, 8, 46, 81
9, 36096, Note_off_c, 8, 46, 81
9, 37056, Note_on_c, 8, 53, 71
9, 37152, Note_off_c, 8, 53, 71
9, 37152, Note_on_c, 8, 60, 71
9, 37248, Note_off_c, 8, 60, 71
9, 37248, Note_on_c, 8, 65, 70
9, 37344, Note_off_c, 8, 65, 70
9, 37344, Note_on_c, 8, 60, 63
9, 37440, Note_off_c, 8, 60, 63
9, 37440, Note_on_c, 8, 53, 67
9, 37536, Note_off_c, 8, 53, 67
9, 37536, Note_on_c, 8, 48, 84
9, 37632, Note_off_c, 8, 48, 84
9, 38592, Note_on_c, 8, 53, 68
9, 38688, Note_off_c, 8, 53, 68
9, 38688, Note_on_c, 8, 60, 69
9, 38784, Note_off_c, 8, 60, 69
9, 38784, Note_on_c, 8, 65, 74
9, 38880, Note_off_c, 8, 65, 74
9, 38880, Note_on_c, 8, 60, 68
9, 38976, Note_off_c, 8, 60, 68
9, 38976, Note_on_c, 8, 53, 74
9, 39072, Note_off_c, 8, 53, 74
9, 39072, Note_on_c, 8, 48, 89
9, 39168, Note_off_c, 8, 48, 89
9, 40128, Note_on_c, 8, 55, 79
9, 40224, Note_off_c, 8, 55, 79
9, 40224, Note_on_c, 8, 62, 77
9, 40320, Note_off_c, 8, 62, 77
9, 40320, Note_on_c, 8, 67, 75
9, 40416, Note_off_c, 8, 67, 75
9, 40416, Note_on_c, 8, 62, 66
9, 40512, Note_off_c, 8, 62, 66
9, 40512, Note_on_c, 8, 55, 83
9, 40608, Note_off_c, 8, 55, 83
9, 40608, Note_on_c, 8, 50, 86
9, 40704, Note_off_c, 8, 50, 86
9, 41664, Note_on_c, 8, 55, 67
9, 41760, Note_off_c, 8, 55, 67
9, 41760, Note_on_c, 8, 62, 75
9, 41856, Note_off_c, 8, 62, 75
9, 41856, Note_on_c, 8, 67, 76
9, 41952, Note_off_c, 8, 67, 76
9, 41952, Note_on_c, 8, 62, 69
9, 42048, Note_off_c, 8, 62, 69
9, 42048, Note_on_c, 8, 55, 85
9, 42144, Note_off_c, 8, 55, 85
9, 42144, Note_on_c, 8, 50, 81
9, 42240, Note_off_c, 8, 50, 81
9, 43200, Note_on_c, 8, 53, 60
9, 43296, Note_off_c, 8, 53, 60
9, 43296, Note_on_c, 8, 60, 73
9, 43392, Note_off_c, 8, 60, 73
9, 43392, Note_on_c, 8, 65, 63
9, 43488, Note_off_c, 8, 65, 63
9, 43488, Note_on_c, 8, 60, 67
9, 43584, Note_off_c, 8, 60, 67
9, 43584, Note_on_c, 8, 53, 68
9, 43680, Note_off_c, 8, 53, 68
9, 43680, Note_on_c, 8, 48, 75
9, 43776, Note_off_c, 8, 48, 75
9, 44736, Note_on_c, 8, 53, 75
9, 44832, Note_off_c, 8, 53, 75
9, 44832, Note_on_c, 8, 60, 69
9, 44928, Note_off_c, 8, 60, 69
9, 44928, Note_on_c, 8, 65, 61
9, 45024, Note_off_c, 8, 65, 61
9, 45024, Note_on_c, 8, 60, 64
9, 45120, Note_off_c, 8, 60, 64
9, 45120, Note_on_c, 8, 53, 64
9, 45216, Note_off_c, 8, 53, 64
9, 45216, Note_on_c, 8, 48, 83
9, 45312, Note_off_c, 8, 48, 83
9, 46272, Note_on_c, 8, 56, 70
9, 46368, Note_off_c, 8, 56, 70
9, 46368, Note_on_c, 8, 63, 76
9, 46464, Note_off_c, 8, 63, 76
9, 46464, Note_on_c, 8, 68, 69
9, 46560, Note_off_c, 8, 68, 69
9, 46560, Note_on_c, 8, 63, 66
9, 46656, Note_off_c, 8, 63, 66
9, 46656, Note_on_c, 8, 56, 70
9, 46752, Note_off_c, 8, 56, 70
9, 46752, Note_on_c, 8, 51, 76
9, 46848, Note_off_c, 8, 51, 76
9, 47808, Note_on_c, 8, 56, 70
9, 47904, Note_off_c, 8, 56, 70
9, 47904, Note_on_c, 8, 63, 76
9, 48000, Note_off_c, 8, 63, 76
9, 48000, Note_on_c, 8, 68, 69
9, 48096, Note_off_c, 8, 68, 69
9, 48096, Note_on_c, 8, 63, 66
9, 48192, Note_off_c, 8, 63, 66
9, 48192, Note_on_c, 8, 56, 70
9, 48288, Note_off_c, 8, 56, 70
9, 48288, Note_on_c, 8, 51, 76
9, 48384, Note_off_c, 8, 51, 76
9, 97728, Note_on_c, 8, 51, 77
9, 97824, Note_off_c, 8, 51, 77
9, 97824, Note_on_c, 8, 58, 74
9, 97920, Note_off_c, 8, 58, 74
9, 97920, Note_on_c, 8, 63, 71
9, 98016, Note_off_c, 8, 63, 71
9, 98016, Note_on_c, 8, 58, 67
9, 98112, Note_off_c, 8, 58, 67
9, 98112, Note_on_c, 8, 51, 71
9, 98208, Note_off_c, 8, 51, 71
9, 98208, Note_on_c, 8, 46, 66
9, 98304, Note_off_c, 8, 46, 66
9, 99264, Note_on_c, 8, 51, 66
9, 99360, Note_off_c, 8, 51, 66
9, 99360, Note_on_c, 8, 58, 57
9, 99456, Note_off_c, 8, 58, 57
9, 99456, Note_on_c, 8, 63, 62
9, 99552, Note_off_c, 8, 63, 62
9, 99552, Note_on_c, 8, 58, 66
9, 99648, Note_off_c, 8, 58, 66
9, 99648, Note_on_c, 8, 51, 70
9, 99744, Note_off_c, 8, 51, 70
9, 99744, Note_on_c, 8, 46, 62
9, 99840, Note_off_c, 8, 46, 62
9, 100800, Note_on_c, 8, 51, 70
9, 100896, Note_off_c, 8, 51, 70
9, 100896, Note_on_c, 8, 58, 61
9, 100992, Note_off_c, 8, 58, 61
9, 100992, Note_on_c, 8, 63, 69
9, 101088, Note_off_c, 8, 63, 69
9, 101088, Note_on_c, 8, 58, 65
9, 101184, Note_off_c, 8, 58, 65
9, 101184, Note_on_c, 8, 51, 76
9, 101280, Note_off_c, 8, 51, 76
9, 101280, Note_on_c, 8, 46, 76
9, 101376, Note_off_c, 8, 46, 76
9, 102336, Note_on_c, 8, 51, 69
9, 102432, Note_off_c, 8, 51, 69
9, 102432, Note_on_c, 8, 58, 66
9, 102528, Note_off_c, 8, 58, 66
9, 102528, Note_on_c, 8, 63, 70
9, 102624, Note_off_c, 8, 63, 70
9, 102624, Note_on_c, 8, 58, 64
9, 102720, Note_off_c, 8, 58, 64
9, 102720, Note_on_c, 8, 51, 74
9, 102816, Note_off_c, 8, 51, 74
9, 102816, Note_on_c, 8, 46, 74
9, 102912, Note_off_c, 8, 46, 74
9, 103872, Note_on_c, 8, 51, 73
9, 103968, Note_off_c, 8, 51, 73
9, 103968, Note_on_c, 8, 58, 67
9, 104064, Note_off_c, 8, 58, 67
9, 104064, Note_on_c, 8, 63, 63
9, 104160, Note_off_c, 8, 63, 63
9, 104160, Note_on_c, 8, 58, 63
9, 104256, Note_off_c, 8, 58, 63
9, 104256, Note_on_c, 8, 51, 74
9, 104352, Note_off_c, 8, 51, 74
9, 104352, Note_on_c, 8, 46, 74
9, 104448, Note_off_c, 8, 46, 74
9, 105408, Note_on_c, 8, 51, 66
9, 105504, Note_off_c, 8, 51, 66
9, 105504, Note_on_c, 8, 58, 66
9, 105600, Note_off_c, 8, 58, 66
9, 105600, Note_on_c, 8, 63, 74
9, 105696, Note_off_c, 8, 63, 74
9, 105696, Note_on_c, 8, 58, 58
9, 105792, Note_off_c, 8, 58, 58
9, 105792, Note_on_c, 8, 51, 71
9, 105888, Note_off_c, 8, 51, 71
9, 105888, Note_on_c, 8, 46, 74
9, 105984, Note_off_c, 8, 46, 74
9, 106944, Note_on_c, 8, 51, 74
9, 107040, Note_off_c, 8, 51, 74
9, 107040, Note_on_c, 8, 58, 66
9, 107136, Note_off_c, 8, 58, 66
9, 107136, Note_on_c, 8, 63, 71
9, 107232, Note_off_c, 8, 63, 71
9, 107232, Note_on_c, 8, 58, 67
9, 107328, Note_off_c, 8, 58, 67
9, 107328, Note_on_c, 8, 51, 75
9, 107424, Note_off_c, 8, 51, 75
9, 107424, Note_on_c, 8, 46, 68
9, 107520, Note_off_c, 8, 46, 68
9, 108480, Note_on_c, 8, 51, 78
9, 108576, Note_off_c, 8, 51, 78
9, 108576, Note_on_c, 8, 58, 76
9, 108672, Note_off_c, 8, 58, 76
9, 108672, Note_on_c, 8, 63, 79
9, 108768, Note_off_c, 8, 63, 79
9, 108768, Note_on_c, 8, 58, 57
9, 108864, Note_off_c, 8, 58, 57
9, 108864, Note_on_c, 8, 51, 79
9, 108960, Note_off_c, 8, 51, 79
9, 108960, Note_on_c, 8, 46, 81
9, 109056, Note_off_c, 8, 46, 81
9, 110016, Note_on_c, 8, 53, 71
9, 110112, Note_off_c, 8, 53, 71
9, 110112, Note_on_c, 8, 60, 71
9, 110208, Note_off_c, 8, 60, 71
9, 110208, Note_on_c, 8, 65, 70
9, 110304, Note_off_c, 8, 65, 70
9, 110304, Note_on_c, 8, 60, 63
9, 110400, Note_off_c, 8, 60, 63
9, 110400, Note_on_c, 8, 53, 67
9, 110496, Note_off_c, 8, 53, 67
9, 110496, Note_on_c, 8, 48, 84
9, 110592, Note_off_c, 8, 48, 84
9, 111552, Note_on_c, 8, 53, 68
9, 111648, Note_off_c, 8, 53, 68
9, 111648, Note_on_c, 8, 60, 69
9, 111744, Note_off_c, 8, 60, 69
9, 111744, Note_on_c, 8, 65, 74
9, 111840, Note_off_c, 8, 65, 74
9, 111840, Note_on_c, 8, 60, 68
9, 111936, Note_off_c, 8, 60, 68
9, 111936, Note_on_c, 8, 53, 74
9, 112032, Note_off_c, 8, 53, 74
9, 112032, Note_on_c, 8, 48, 89
9, 112128, Note_off_c, 8, 48, 89
9, 113088, Note_on_c, 8, 55, 79
9, 113184, Note_off_c, 8, 55, 79
9, 113184, Note_on_c, 8, 62, 77
9, 113280, Note_off_c, 8, 62, 77
9, 113280, Note_on_c, 8, 67, 75
9, 113376, Note_off_c, 8, 67, 75
9, 113376, Note_on_c, 8, 62, 66
9, 113472, Note_off_c, 8, 62, 66
9, 113472, Note_on_c, 8, 55, 83
9, 113568, Note_off_c, 8, 55, 83
9, 113568, Note_on_c, 8, 50, 86
9, 113664, Note_off_c, 8, 50, 86
9, 114624, Note_on_c, 8, 55, 67
9, 114720, Note_off_c, 8, 55, 67
9, 114720, Note_on_c, 8, 62, 75
9, 114816, Note_off_c, 8, 62, 75
9, 114816, Note_on_c, 8, 67, 76
9, 114912, Note_off_c, 8, 67, 76
9, 114912, Note_on_c, 8, 62, 69
9, 115008, Note_off_c, 8, 62, 69
9, 115008, Note_on_c, 8, 55, 85
9, 115104, Note_off_c, 8, 55, 85
9, 115104, Note_on_c, 8, 50, 81
9, 115200, Note_off_c, 8, 50, 81
9, 116160, Note_on_c, 8, 53, 60
9, 116256, Note_off_c, 8, 53, 60
9, 116256, Note_on_c, 8, 60, 73
9, 116352, Note_off_c, 8, 60, 73
9, 116352, Note_on_c, 8, 65, 63
9, 116448, Note_off_c, 8, 65, 63
9, 116448, Note_on_c, 8, 60, 67
9, 116544, Note_off_c, 8, 60, 67
9, 116544, Note_on_c, 8, 53, 68
9, 116640, Note_off_c, 8, 53, 68
9, 116640, Note_on_c, 8, 48, 75
9, 116736, Note_off_c, 8, 48, 75
9, 117696, Note_on_c, 8, 53, 75
9, 117792, Note_off_c, 8, 53, 75
9, 117792, Note_on_c, 8, 60, 69
9, 117888, Note_off_c, 8, 60, 69
9, 117888, Note_on_c, 8, 65, 61
9, 117984, Note_off_c, 8, 65, 61
9, 117984, Note_on_c, 8, 60, 64
9, 118080, Note_off_c, 8, 60, 64
9, 118080, Note_on_c, 8, 53, 64
9, 118176, Note_off_c, 8, 53, 64
9, 118176, Note_on_c, 8, 48, 83
9, 118272, Note_off_c, 8, 48, 83
9, 119232, Note_on_c, 8, 56, 70
9, 119328, Note_off_c, 8, 56, 70
9, 119328, Note_on_c, 8, 63, 76
9, 119424, Note_off_c, 8, 63, 76
9, 119424, Note_on_c, 8, 68, 69
9, 119520, Note_off_c, 8, 68, 69
9, 119520, Note_on_c, 8, 63, 66
9, 119616, Note_off_c, 8, 63, 66
9, 119616, Note_on_c, 8, 56, 70
9, 119712, Note_off_c, 8, 56, 70
9, 119712, Note_on_c, 8, 51, 76
9, 119808, Note_off_c, 8, 51, 76
9, 120768, Note_on_c, 8, 56, 70
9, 120864, Note_off_c, 8, 56, 70
9, 120864, Note_on_c, 8, 63, 76
9, 120960, Note_off_c, 8, 63, 76
9, 120960, Note_on_c, 8, 68, 69
9, 121056, Note_off_c, 8, 68, 69
9, 121056, Note_on_c, 8, 63, 66
9, 121152, Note_off_c, 8, 63, 66
9, 121152, Note_on_c, 8, 56, 70
9, 121248, Note_off_c, 8, 56, 70
9, 121248, Note_on_c, 8, 51, 76
9, 121344, Note_off_c, 8, 51, 76
9, 221952, End_track
10, 0, Start_track
10, 0, Title_t, "DRUMS"
10, 564, Control_c, 9, 0, 0
10, 568, Control_c, 9, 121, 0
10, 572, Program_c, 9, 24
10, 576, Control_c, 9, 7, 100
10, 576, Control_c, 9, 10, 64
10, 576, Control_c, 9, 11, 127
10, 580, Control_c, 9, 91, 100
10, 580, Control_c, 9, 93, 0
10, 1536, Note_on_c, 9, 42, 77
10, 1540, Note_off_c, 9, 42, 77
10, 1920, Note_on_c, 9, 42, 69
10, 1924, Note_off_c, 9, 42, 69
10, 2304, Note_on_c, 9, 42, 62
10, 2308, Note_off_c, 9, 42, 62
10, 2688, Note_on_c, 9, 42, 69
10, 2692, Note_off_c, 9, 42, 69
10, 3072, Note_on_c, 9, 35, 127
10, 3072, Note_on_c, 9, 42, 77
10, 3076, Note_off_c, 9, 42, 77
10, 3076, Note_off_c, 9, 35, 127
10, 3264, Note_on_c, 9, 42, 60
10, 3268, Note_off_c, 9, 42, 60
10, 3360, Note_on_c, 9, 42, 44
10, 3364, Note_off_c, 9, 42, 44
10, 3456, Note_on_c, 9, 35, 127
10, 3456, Note_on_c, 9, 40, 100
10, 3456, Note_on_c, 9, 42, 69
10, 3460, Note_off_c, 9, 42, 69
10, 3460, Note_off_c, 9, 40, 100
10, 3460, Note_off_c, 9, 35, 127
10, 3648, Note_on_c, 9, 42, 55
10, 3652, Note_off_c, 9, 42, 55
10, 3744, Note_on_c, 9, 42, 40
10, 3748, Note_off_c, 9, 42, 40
10, 3840, Note_on_c, 9, 35, 127
10, 3840, Note_on_c, 9, 42, 62
10, 3844, Note_off_c, 9, 42, 62
10, 3844, Note_off_c, 9, 35, 127
10, 3936, Note_on_c, 9, 42, 42
10, 3940, Note_off_c, 9, 42, 42
10, 4032, Note_on_c, 9, 42, 50
10, 4036, Note_off_c, 9, 42, 50
10, 4128, Note_on_c, 9, 42, 53
10, 4132, Note_off_c, 9, 42, 53
10, 4224, Note_on_c, 9, 35, 127
10, 4224, Note_on_c, 9, 40, 100
10, 4224, Note_on_c, 9, 42, 69
10, 4228, Note_off_c, 9, 42, 69
10, 4228, Note_off_c, 9, 40, 100
10, 4228, Note_off_c, 9, 35, 127
10, 4416, Note_on_c, 9, 42, 61
10, 4420, Note_off_c, 9, 42, 61
10, 4512, Note_on_c, 9, 42, 46
10, 4516, Note_off_c, 9, 42, 46
10, 4608, Note_on_c, 9, 35, 127
10, 4608, Note_on_c, 9, 42, 58
10, 4612, Note_off_c, 9, 42, 58
10, 4612, Note_off_c, 9, 35, 127
10, 4800, Note_on_c, 9, 42, 60
10, 4804, Note_off_c, 9, 42, 60
10, 4896, Note_on_c, 9, 42, 43
10, 4900, Note_off_c, 9, 42, 43
10, 4992, Note_on_c, 9, 35, 127
10, 4992, Note_on_c, 9, 40, 100
10, 4992, Note_on_c, 9, 42, 69
10, 4996, Note_off_c, 9, 42, 69
10, 4996, Note_off_c, 9, 40, 100
10, 4996, Note_off_c, 9, 35, 127
10, 5184, Note_on_c, 9, 42, 65
10, 5188, Note_off_c, 9, 42, 65
10, 5280, Note_on_c, 9, 42, 34
10, 5284, Note_off_c, 9, 42, 34
10, 5376, Note_on_c, 9, 35, 127
10, 5376, Note_on_c, 9, 42, 64
10, 5380, Note_off_c, 9, 42, 64
10, 5380, Note_off_c, 9, 35, 127
10, 5472, Note_on_c, 9, 42, 47
10, 5476, Note_off_c, 9, 42, 47
10, 5568, Note_on_c, 9, 42, 62
10, 5572, Note_off_c, 9, 42, 62
10, 5664, Note_on_c, 9, 42, 55
10, 5668, Note_off_c, 9, 42, 55
10, 5760, Note_on_c, 9, 35, 127
10, 5760, Note_on_c, 9, 40, 100
10, 5760, Note_on_c, 9, 42, 70
10, 5764, Note_off_c, 9, 42, 70
10, 5764, Note_off_c, 9, 40, 100
10, 5764, Note_off_c, 9, 35, 127
10, 5952, Note_on_c, 9, 42, 51
10, 5956, Note_off_c, 9, 42, 51
10, 6048, Note_on_c, 9, 42, 52
10, 6052, Note_off_c, 9, 42, 52
10, 6144, Note_on_c, 9, 35, 127
10, 6144, Note_on_c, 9, 42, 77
10, 6148, Note_off_c, 9, 42, 77
10, 6148, Note_off_c, 9, 35, 127
10, 6336, Note_on_c, 9, 42, 60
10, 6340, Note_off_c, 9, 42, 60
10, 6432, Note_on_c, 9, 42, 44
10, 6436, Note_off_c, 9, 42, 44
10, 6528, Note_on_c, 9, 35, 127
10, 6528, Note_on_c, 9, 40, 100
10, 6528, Note_on_c, 9, 42, 69
10, 6532, Note_off_c, 9, 42, 69
10, 6532, Note_off_c, 9, 40, 100
10, 6532, Note_off_c, 9, 35, 127
10, 6720, Note_on_c, 9, 42, 55
10, 6724, Note_off_c, 9, 42, 55
10, 6816, Note_on_c, 9, 42, 40
10, 6820, Note_off_c, 9, 42, 40
10, 6912, Note_on_c, 9, 35, 127
10, 6912, Note_on_c, 9, 42, 62
10, 6916, Note_off_c, 9, 42, 62
10, 6916, Note_off_c, 9, 35, 127
10, 7008, Note_on_c, 9, 42, 42
10, 7012, Note_off_c, 9, 42, 42
10, 7104, Note_on_c, 9, 42, 50
10, 7108, Note_off_c, 9, 42, 50
10, 7200, Note_on_c, 9, 42, 53
10, 7204, Note_off_c, 9, 42, 53
10, 7296, Note_on_c, 9, 35, 127
10, 7296, Note_on_c, 9, 40, 100
10, 7296, Note_on_c, 9, 42, 69
10, 7300, Note_off_c, 9, 42, 69
10, 7300, Note_off_c, 9, 40, 100
10, 7300, Note_off_c, 9, 35, 127
10, 7488, Note_on_c, 9, 42, 61
10, 7492, Note_off_c, 9, 42, 61
10, 7584, Note_on_c, 9, 42, 46
10, 7588, Note_off_c, 9, 42, 46
10, 7680, Note_on_c, 9, 35, 127
10, 7680, Note_on_c, 9, 42, 58
10, 7684, Note_off_c, 9, 42, 58
10, 7684, Note_off_c, 9, 35, 127
10, 7872, Note_on_c, 9, 42, 60
10, 7876, Note_off_c, 9, 42, 60
10, 7968, Note_on_c, 9, 42, 43
10, 7972, Note_off_c, 9, 42, 43
10, 8064, Note_on_c, 9, 35, 127
10, 8064, Note_on_c, 9, 40, 100
10, 8064, Note_on_c, 9, 42, 69
10, 8068, Note_off_c, 9, 42, 69
10, 8068, Note_off_c, 9, 40, 100
10, 8068, Note_off_c, 9, 35, 127
10, 8256, Note_on_c, 9, 42, 65
10, 8260, Note_off_c, 9, 42, 65
10, 8352, Note_on_c, 9, 42, 34
10, 8356, Note_off_c, 9, 42, 34
10, 8448, Note_on_c, 9, 35, 127
10, 8448, Note_on_c, 9, 42, 64
10, 8452, Note_off_c, 9, 42, 64
10, 8452, Note_off_c, 9, 35, 127
10, 8544, Note_on_c, 9, 42, 47
10, 8548, Note_off_c, 9, 42, 47
10, 8640, Note_on_c, 9, 42, 62
10, 8644, Note_off_c, 9, 42, 62
10, 8736, Note_on_c, 9, 42, 55
10, 8740, Note_off_c, 9, 42, 55
10, 8832, Note_on_c, 9, 35, 127
10, 8832, Note_on_c, 9, 40, 100
10, 8832, Note_on_c, 9, 42, 70
10, 8836, Note_off_c, 9, 42, 70
10, 8836, Note_off_c, 9, 40, 100
10, 8836, Note_off_c, 9, 35, 127
10, 9024, Note_on_c, 9, 42, 51
10, 9028, Note_off_c, 9, 42, 51
10, 9120, Note_on_c, 9, 42, 52
10, 9124, Note_off_c, 9, 42, 52
10, 9216, Note_on_c, 9, 35, 127
10, 9216, Note_on_c, 9, 42, 77
10, 9220, Note_off_c, 9, 42, 77
10, 9220, Note_off_c, 9, 35, 127
10, 9408, Note_on_c, 9, 42, 60
10, 9412, Note_off_c, 9, 42, 60
10, 9504, Note_on_c, 9, 42, 44
10, 9508, Note_off_c, 9, 42, 44
10, 9600, Note_on_c, 9, 35, 127
10, 9600, Note_on_c, 9, 40, 100
10, 9600, Note_on_c, 9, 42, 69
10, 9604, Note_off_c, 9, 42, 69
10, 9604, Note_off_c, 9, 40, 100
10, 9604, Note_off_c, 9, 35, 127
10, 9792, Note_on_c, 9, 42, 55
10, 9796, Note_off_c, 9, 42, 55
10, 9888, Note_on_c, 9, 42, 40
10, 9892, Note_off_c, 9, 42, 40
10, 9984, Note_on_c, 9, 35, 127
10, 9984, Note_on_c, 9, 42, 62
10, 9988, Note_off_c, 9, 42, 62
10, 9988, Note_off_c, 9, 35, 127
10, 10080, Note_on_c, 9, 42, 42
10, 10084, Note_off_c, 9, 42, 42
10, 10176, Note_on_c, 9, 42, 50
10, 10180, Note_off_c, 9, 42, 50
10, 10272, Note_on_c, 9, 42, 53
10, 10276, Note_off_c, 9, 42, 53
10, 10368, Note_on_c, 9, 35, 127
10, 10368, Note_on_c, 9, 40, 100
10, 10368, Note_on_c, 9, 42, 69
10, 10372, Note_off_c, 9, 42, 69
10, 10372, Note_off_c, 9, 40, 100
10, 10372, Note_off_c, 9, 35, 127
10, 10560, Note_on_c, 9, 42, 61
10, 10564, Note_off_c, 9, 42, 61
10, 10656, Note_on_c, 9, 42, 46
10, 10660, Note_off_c, 9, 42, 46
10, 10752, Note_on_c, 9, 35, 127
10, 10752, Note_on_c, 9, 42, 58
10, 10756, Note_off_c, 9, 42, 58
10, 10756, Note_off_c, 9, 35, 127
10, 10944, Note_on_c, 9, 42, 60
10, 10948, Note_off_c, 9, 42, 60
10, 11040, Note_on_c, 9, 42, 43
10, 11044, Note_off_c, 9, 42, 43
10, 11136, Note_on_c, 9, 35, 127
10, 11136, Note_on_c, 9, 40, 100
10, 11136, Note_on_c, 9, 42, 69
10, 11140, Note_off_c, 9, 42, 69
10, 11140, Note_off_c, 9, 40, 100
10, 11140, Note_off_c, 9, 35, 127
10, 11328, Note_on_c, 9, 42, 65
10, 11332, Note_off_c, 9, 42, 65
10, 11424, Note_on_c, 9, 42, 34
10, 11428, Note_off_c, 9, 42, 34
10, 11520, Note_on_c, 9, 35, 127
10, 11520, Note_on_c, 9, 42, 64
10, 11524, Note_off_c, 9, 42, 64
10, 11524, Note_off_c, 9, 35, 127
10, 11616, Note_on_c, 9, 42, 47
10, 11620, Note_off_c, 9, 42, 47
10, 11712, Note_on_c, 9, 42, 62
10, 11716, Note_off_c, 9, 42, 62
10, 11808, Note_on_c, 9, 42, 55
10, 11812, Note_off_c, 9, 42, 55
10, 11904, Note_on_c, 9, 35, 127
10, 11904, Note_on_c, 9, 40, 100
10, 11904, Note_on_c, 9, 42, 70
10, 11908, Note_off_c, 9, 42, 70
10, 11908, Note_off_c, 9, 40, 100
10, 11908, Note_off_c, 9, 35, 127
10, 12096, Note_on_c, 9, 42, 51
10, 12100, Note_off_c, 9, 42, 51
10, 12192, Note_on_c, 9, 42, 52
10, 12196, Note_off_c, 9, 42, 52
10, 12288, Note_on_c, 9, 35, 127
10, 12288, Note_on_c, 9, 42, 77
10, 12292, Note_off_c, 9, 42, 77
10, 12292, Note_off_c, 9, 35, 127
10, 12480, Note_on_c, 9, 42, 60
10, 12484, Note_off_c, 9, 42, 60
10, 12576, Note_on_c, 9, 42, 44
10, 12580, Note_off_c, 9, 42, 44
10, 12672, Note_on_c, 9, 35, 127
10, 12672, Note_on_c, 9, 40, 100
10, 12672, Note_on_c, 9, 42, 69
10, 12676, Note_off_c, 9, 42, 69
10, 12676, Note_off_c, 9, 40, 100
10, 12676, Note_off_c, 9, 35, 127
10, 12864, Note_on_c, 9, 42, 55
10, 12868, Note_off_c, 9, 42, 55
10, 12960, Note_on_c, 9, 42, 40
10, 12964, Note_off_c, 9, 42, 40
10, 13056, Note_on_c, 9, 35, 127
10, 13056, Note_on_c, 9, 42, 62
10, 13060, Note_off_c, 9, 42, 62
10, 13060, Note_off_c, 9, 35, 127
10, 13152, Note_on_c, 9, 42, 42
10, 13156, Note_off_c, 9, 42, 42
10, 13248, Note_on_c, 9, 42, 50
10, 13252, Note_off_c, 9, 42, 50
10, 13344, Note_on_c, 9, 42, 53
10, 13348, Note_off_c, 9, 42, 53
10, 13440, Note_on_c, 9, 35, 127
10, 13440, Note_on_c, 9, 40, 100
10, 13440, Note_on_c, 9, 42, 69
10, 13444, Note_off_c, 9, 42, 69
10, 13444, Note_off_c, 9, 40, 100
10, 13444, Note_off_c, 9, 35, 127
10, 13632, Note_on_c, 9, 42, 61
10, 13636, Note_off_c, 9, 42, 61
10, 13728, Note_on_c, 9, 42, 46
10, 13732, Note_off_c, 9, 42, 46
10, 13824, Note_on_c, 9, 35, 127
10, 13824, Note_on_c, 9, 42, 58
10, 13828, Note_off_c, 9, 42, 58
10, 13828, Note_off_c, 9, 35, 127
10, 14016, Note_on_c, 9, 42, 60
10, 14020, Note_off_c, 9, 42, 60
10, 14112, Note_on_c, 9, 42, 43
10, 14116, Note_off_c, 9, 42, 43
10, 14208, Note_on_c, 9, 35, 127
10, 14208, Note_on_c, 9, 40, 100
10, 14208, Note_on_c, 9, 42, 69
10, 14212, Note_off_c, 9, 42, 69
10, 14212, Note_off_c, 9, 40, 100
10, 14212, Note_off_c, 9, 35, 127
10, 14400, Note_on_c, 9, 42, 65
10, 14404, Note_off_c, 9, 42, 65
10, 14496, Note_on_c, 9, 42, 34
10, 14500, Note_off_c, 9, 42, 34
10, 14592, Note_on_c, 9, 35, 127
10, 14592, Note_on_c, 9, 42, 64
10, 14596, Note_off_c, 9, 42, 64
10, 14596, Note_off_c, 9, 35, 127
10, 14688, Note_on_c, 9, 42, 47
10, 14692, Note_off_c, 9, 42, 47
10, 14784, Note_on_c, 9, 42, 62
10, 14788, Note_off_c, 9, 42, 62
10, 14880, Note_on_c, 9, 42, 55
10, 14884, Note_off_c, 9, 42, 55
10, 14976, Note_on_c, 9, 35, 127
10, 14976, Note_on_c, 9, 40, 100
10, 14976, Note_on_c, 9, 42, 70
10, 14980, Note_off_c, 9, 42, 70
10, 14980, Note_off_c, 9, 40, 100
10, 14980, Note_off_c, 9, 35, 127
10, 15168, Note_on_c, 9, 42, 51
10, 15172, Note_off_c, 9, 42, 51
10, 15264, Note_on_c, 9, 42, 52
10, 15268, Note_off_c, 9, 42, 52
10, 15360, Note_on_c, 9, 35, 127
10, 15360, Note_on_c, 9, 42, 77
10, 15364, Note_off_c, 9, 42, 77
10, 15364, Note_off_c, 9, 35, 127
10, 15552, Note_on_c, 9, 42, 60
10, 15556, Note_off_c, 9, 42, 60
10, 15648, Note_on_c, 9, 42, 44
10, 15652, Note_off_c, 9, 42, 44
10, 15744, Note_on_c, 9, 35, 127
10, 15744, Note_on_c, 9, 40, 100
10, 15744, Note_on_c, 9, 42, 69
10, 15748, Note_off_c, 9, 42, 69
10, 15748, Note_off_c, 9, 40, 100
10, 15748, Note_off_c, 9, 35, 127
10, 15936, Note_on_c, 9, 42, 55
10, 15940, Note_off_c, 9, 42, 55
10, 16032, Note_on_c, 9, 42, 40
10, 16036, Note_off_c, 9, 42, 40
10, 16128, Note_on_c, 9, 35, 127
10, 16128, Note_on_c, 9, 42, 62
10, 16132, Note_off_c, 9, 42, 62
10, 16132, Note_off_c, 9, 35, 127
10, 16224, Note_on_c, 9, 42, 42
10, 16228, Note_off_c, 9, 42, 42
10, 16320, Note_on_c, 9, 42, 50
10, 16324, Note_off_c, 9, 42, 50
10, 16416, Note_on_c, 9, 42, 53
10, 16420, Note_off_c, 9, 42, 53
10, 16512, Note_on_c, 9, 35, 127
10, 16512, Note_on_c, 9, 40, 100
10, 16512, Note_on_c, 9, 42, 69
10, 16516, Note_off_c, 9, 42, 69
10, 16516, Note_off_c, 9, 40, 100
10, 16516, Note_off_c, 9, 35, 127
10, 16704, Note_on_c, 9, 42, 61
10, 16708, Note_off_c, 9, 42, 61
10, 16800, Note_on_c, 9, 42, 46
10, 16804, Note_off_c, 9, 42, 46
10, 16896, Note_on_c, 9, 35, 127
10, 16896, Note_on_c, 9, 42, 58
10, 16900, Note_off_c, 9, 42, 58
10, 16900, Note_off_c, 9, 35, 127
10, 17088, Note_on_c, 9, 42, 60
10, 17092, Note_off_c, 9, 42, 60
10, 17184, Note_on_c, 9, 42, 43
10, 17188, Note_off_c, 9, 42, 43
10, 17280, Note_on_c, 9, 35, 127
10, 17280, Note_on_c, 9, 40, 100
10, 17280, Note_on_c, 9, 42, 69
10, 17284, Note_off_c, 9, 42, 69
10, 17284, Note_off_c, 9, 40, 100
10, 17284, Note_off_c, 9, 35, 127
10, 17472, Note_on_c, 9, 42, 65
10, 17476, Note_off_c, 9, 42, 65
10, 17568, Note_on_c, 9, 42, 34
10, 17572, Note_off_c, 9, 42, 34
10, 17664, Note_on_c, 9, 35, 127
10, 17664, Note_on_c, 9, 42, 64
10, 17668, Note_off_c, 9, 42, 64
10, 17668, Note_off_c, 9, 35, 127
10, 17760, Note_on_c, 9, 42, 47
10, 17764, Note_off_c, 9, 42, 47
10, 17856, Note_on_c, 9, 42, 62
10, 17860, Note_off_c, 9, 42, 62
10, 17952, Note_on_c, 9, 42, 55
10, 17956, Note_off_c, 9, 42, 55
10, 18048, Note_on_c, 9, 35, 127
10, 18048, Note_on_c, 9, 40, 100
10, 18048, Note_on_c, 9, 42, 70
10, 18052, Note_off_c, 9, 42, 70
10, 18052, Note_off_c, 9, 40, 100
10, 18052, Note_off_c, 9, 35, 127
10, 18240, Note_on_c, 9, 42, 51
10, 18244, Note_off_c, 9, 42, 51
10, 18336, Note_on_c, 9, 42, 52
10, 18340, Note_off_c, 9, 42, 52
10, 18432, Note_on_c, 9, 35, 127
10, 18432, Note_on_c, 9, 40, 36
10, 18432, Note_on_c, 9, 44, 52
10, 18436, Note_off_c, 9, 44, 52
10, 18436, Note_off_c, 9, 40, 36
10, 18436, Note_off_c, 9, 35, 127
10, 18624, Note_on_c, 9, 40, 26
10, 18624, Note_on_c, 9, 44, 52
10, 18628, Note_off_c, 9, 44, 52
10, 18628, Note_off_c, 9, 40, 26
10, 18816, Note_on_c, 9, 35, 127
10, 18816, Note_on_c, 9, 40, 36
10, 18816, Note_on_c, 9, 44, 52
10, 18820, Note_off_c, 9, 44, 52
10, 18820, Note_off_c, 9, 40, 36
10, 18820, Note_off_c, 9, 35, 127
10, 19008, Note_on_c, 9, 40, 26
10, 19008, Note_on_c, 9, 44, 52
10, 19012, Note_off_c, 9, 44, 52
10, 19012, Note_off_c, 9, 40, 26
10, 19200, Note_on_c, 9, 35, 127
10, 19200, Note_on_c, 9, 40, 36
10, 19200, Note_on_c, 9, 44, 52
10, 19204, Note_off_c, 9, 44, 52
10, 19204, Note_off_c, 9, 40, 36
10, 19204, Note_off_c, 9, 35, 127
10, 19392, Note_on_c, 9, 40, 26
10, 19392, Note_on_c, 9, 44, 52
10, 19396, Note_off_c, 9, 44, 52
10, 19396, Note_off_c, 9, 40, 26
10, 19584, Note_on_c, 9, 35, 127
10, 19584, Note_on_c, 9, 40, 36
10, 19584, Note_on_c, 9, 44, 52
10, 19588, Note_off_c, 9, 44, 52
10, 19588, Note_off_c, 9, 40, 36
10, 19588, Note_off_c, 9, 35, 127
10, 19776, Note_on_c, 9, 40, 26
10, 19776, Note_on_c, 9, 44, 52
10, 19780, Note_off_c, 9, 44, 52
10, 19780, Note_off_c, 9, 40, 26
10, 19968, Note_on_c, 9, 35, 127
10, 19968, Note_on_c, 9, 40, 36
10, 19968, Note_on_c, 9, 44, 52
10, 19972, Note_off_c, 9, 44, 52
10, 19972, Note_off_c, 9, 40, 36
10, 19972, Note_off_c, 9, 35, 127
10, 20160, Note_on_c, 9, 40, 26
10, 20160, Note_on_c, 9, 44, 52
10, 20164, Note_off_c, 9, 44, 52
10, 20164, Note_off_c, 9, 40, 26
10, 20352, Note_on_c, 9, 35, 127
10, 20352, Note_on_c, 9, 40, 36
10, 20352, Note_on_c, 9, 44, 52
10, 20356, Note_off_c, 9, 44, 52
10, 20356, Note_off_c, 9, 40, 36
10, 20356, Note_off_c, 9, 35, 127
10, 20544, Note_on_c, 9, 40, 26
10, 20544, Note_on_c, 9, 44, 52
10, 20548, Note_off_c, 9, 44, 52
10, 20548, Note_off_c, 9, 40, 26
10, 20736, Note_on_c, 9, 35, 127
10, 20736, Note_on_c, 9, 40, 36
10, 20736, Note_on_c, 9, 44, 52
10, 20740, Note_off_c, 9, 44, 52
10, 20740, Note_off_c, 9, 40, 36
10, 20740, Note_off_c, 9, 35, 127
10, 20928, Note_on_c, 9, 40, 26
10, 20928, Note_on_c, 9, 44, 52
10, 20932, Note_off_c, 9, 44, 52
10, 20932, Note_off_c, 9, 40, 26
10, 21120, Note_on_c, 9, 35, 127
10, 21120, Note_on_c, 9, 40, 36
10, 21120, Note_on_c, 9, 44, 52
10, 21124, Note_off_c, 9, 44, 52
10, 21124, Note_off_c, 9, 40, 36
10, 21124, Note_off_c, 9, 35, 127
10, 21312, Note_on_c, 9, 40, 26
10, 21312, Note_on_c, 9, 44, 52
10, 21316, Note_off_c, 9, 44, 52
10, 21316, Note_off_c, 9, 40, 26
10, 21504, Note_on_c, 9, 35, 127
10, 21504, Note_on_c, 9, 40, 36
10, 21504, Note_on_c, 9, 44, 52
10, 21508, Note_off_c, 9, 44, 52
10, 21508, Note_off_c, 9, 40, 36
10, 21508, Note_off_c, 9, 35, 127
10, 21696, Note_on_c, 9, 40, 26
10, 21696, Note_on_c, 9, 44, 52
10, 21700, Note_off_c, 9, 44, 52
10, 21700, Note_off_c, 9, 40, 26
10, 21888, Note_on_c, 9, 35, 127
10, 21888, Note_on_c, 9, 40, 36
10, 21888, Note_on_c, 9, 44, 52
10, 21892, Note_off_c, 9, 44, 52
10, 21892, Note_off_c, 9, 40, 36
10, 21892, Note_off_c, 9, 35, 127
10, 22080, Note_on_c, 9, 40, 26
10, 22080, Note_on_c, 9, 44, 52
10, 22084, Note_off_c, 9, 44, 52
10, 22084, Note_off_c, 9, 40, 26
10, 22272, Note_on_c, 9, 35, 127
10, 22272, Note_on_c, 9, 40, 36
10, 22272, Note_on_c, 9, 44, 52
10, 22276, Note_off_c, 9, 44, 52
10, 22276, Note_off_c, 9, 40, 36
10, 22276, Note_off_c, 9, 35, 127
10, 22464, Note_on_c, 9, 40, 26
10, 22464, Note_on_c, 9, 44, 52
10, 22468, Note_off_c, 9, 44, 52
10, 22468, Note_off_c, 9, 40, 26
10, 22656, Note_on_c, 9, 35, 127
10, 22656, Note_on_c, 9, 40, 36
10, 22656, Note_on_c, 9, 44, 52
10, 22660, Note_off_c, 9, 44, 52
10, 22660, Note_off_c, 9, 40, 36
10, 22660, Note_off_c, 9, 35, 127
10, 22848, Note_on_c, 9, 40, 26
10, 22848, Note_on_c, 9, 44, 52
10, 22852, Note_off_c, 9, 44, 52
10, 22852, Note_off_c, 9, 40, 26
10, 23040, Note_on_c, 9, 35, 127
10, 23040, Note_on_c, 9, 40, 36
10, 23040, Note_on_c, 9, 44, 52
10, 23044, Note_off_c, 9, 44, 52
10, 23044, Note_off_c, 9, 40, 36
10, 23044, Note_off_c, 9, 35, 127
10, 23232, Note_on_c, 9, 40, 35
10, 23232, Note_on_c, 9, 44, 52
10, 23236, Note_off_c, 9, 44, 52
10, 23236, Note_off_c, 9, 40, 35
10, 23424, Note_on_c, 9, 35, 127
10, 23424, Note_on_c, 9, 40, 30
10, 23424, Note_on_c, 9, 44, 52
10, 23428, Note_off_c, 9, 44, 52
10, 23428, Note_off_c, 9, 40, 30
10, 23428, Note_off_c, 9, 35, 127
10, 23616, Note_on_c, 9, 40, 64
10, 23616, Note_on_c, 9, 44, 52
10, 23620, Note_off_c, 9, 44, 52
10, 23620, Note_off_c, 9, 40, 64
10, 23808, Note_on_c, 9, 35, 127
10, 23808, Note_on_c, 9, 40, 65
10, 23808, Note_on_c, 9, 44, 52
10, 23812, Note_off_c, 9, 44, 52
10, 23812, Note_off_c, 9, 40, 65
10, 23812, Note_off_c, 9, 35, 127
10, 24000, Note_on_c, 9, 40, 79
10, 24000, Note_on_c, 9, 44, 52
10, 24004, Note_off_c, 9, 44, 52
10, 24004, Note_off_c, 9, 40, 79
10, 24192, Note_on_c, 9, 35, 127
10, 24192, Note_on_c, 9, 40, 81
10, 24192, Note_on_c, 9, 44, 52
10, 24196, Note_off_c, 9, 44, 52
10, 24196, Note_off_c, 9, 40, 81
10, 24196, Note_off_c, 9, 35, 127
10, 24384, Note_on_c, 9, 40, 105
10, 24384, Note_on_c, 9, 44, 52
10, 24388, Note_off_c, 9, 44, 52
10, 24388, Note_off_c, 9, 40, 105
10, 24576, Note_on_c, 9, 35, 127
10, 24576, Note_on_c, 9, 57, 111
10, 24576, Note_on_c, 9, 42, 70
10, 24580, Note_off_c, 9, 42, 70
10, 24580, Note_off_c, 9, 57, 111
10, 24580, Note_off_c, 9, 35, 127
10, 24768, Note_on_c, 9, 42, 52
10, 24772, Note_off_c, 9, 42, 52
10, 24864, Note_on_c, 9, 42, 54
10, 24868, Note_off_c, 9, 42, 54
10, 24960, Note_on_c, 9, 35, 127
10, 24960, Note_on_c, 9, 40, 100
10, 24960, Note_on_c, 9, 42, 74
10, 24964, Note_off_c, 9, 42, 74
10, 24964, Note_off_c, 9, 40, 100
10, 24964, Note_off_c, 9, 35, 127
10, 25152, Note_on_c, 9, 42, 63
10, 25156, Note_off_c, 9, 42, 63
10, 25248, Note_on_c, 9, 42, 50
10, 25252, Note_off_c, 9, 42, 50
10, 25344, Note_on_c, 9, 35, 127
10, 25344, Note_on_c, 9, 42, 62
10, 25348, Note_off_c, 9, 42, 62
10, 25348, Note_off_c, 9, 35, 127
10, 25536, Note_on_c, 9, 42, 55
10, 25540, Note_off_c, 9, 42, 55
10, 25632, Note_on_c, 9, 42, 57
10, 25636, Note_off_c, 9, 42, 57
10, 25728, Note_on_c, 9, 35, 127
10, 25728, Note_on_c, 9, 40, 100
10, 25728, Note_on_c, 9, 42, 76
10, 25732, Note_off_c, 9, 42, 76
10, 25732, Note_off_c, 9, 40, 100
10, 25732, Note_off_c, 9, 35, 127
10, 25920, Note_on_c, 9, 42, 59
10, 25924, Note_off_c, 9, 42, 59
10, 26016, Note_on_c, 9, 42, 62
10, 26020, Note_off_c, 9, 42, 62
10, 26112, Note_on_c, 9, 35, 127
10, 26112, Note_on_c, 9, 42, 70
10, 26116, Note_off_c, 9, 42, 70
10, 26116, Note_off_c, 9, 35, 127
10, 26304, Note_on_c, 9, 42, 52
10, 26308, Note_off_c, 9, 42, 52
10, 26400, Note_on_c, 9, 42, 54
10, 26404, Note_off_c, 9, 42, 54
10, 26496, Note_on_c, 9, 35, 127
10, 26496, Note_on_c, 9, 40, 100
10, 26496, Note_on_c, 9, 42, 74
10, 26500, Note_off_c, 9, 42, 74
10, 26500, Note_off_c, 9, 40, 100
10, 26500, Note_off_c, 9, 35, 127
10, 26688, Note_on_c, 9, 42, 63
10, 26692, Note_off_c, 9, 42, 63
10, 26784, Note_on_c, 9, 42, 50
10, 26788, Note_off_c, 9, 42, 50
10, 26880, Note_on_c, 9, 35, 127
10, 26880, Note_on_c, 9, 42, 62
10, 26884, Note_off_c, 9, 42, 62
10, 26884, Note_off_c, 9, 35, 127
10, 27072, Note_on_c, 9, 42, 55
10, 27076, Note_off_c, 9, 42, 55
10, 27168, Note_on_c, 9, 42, 57
10, 27172, Note_off_c, 9, 42, 57
10, 27264, Note_on_c, 9, 35, 127
10, 27264, Note_on_c, 9, 40, 100
10, 27264, Note_on_c, 9, 42, 76
10, 27268, Note_off_c, 9, 42, 76
10, 27268, Note_off_c, 9, 40, 100
10, 27268, Note_off_c, 9, 35, 127
10, 27456, Note_on_c, 9, 42, 59
10, 27460, Note_off_c, 9, 42, 59
10, 27552, Note_on_c, 9, 42, 62
10, 27556, Note_off_c, 9, 42, 62
10, 27648, Note_on_c, 9, 35, 127
10, 27648, Note_on_c, 9, 42, 70
10, 27652, Note_off_c, 9, 42, 70
10, 27652, Note_off_c, 9, 35, 127
10, 27840, Note_on_c, 9, 42, 52
10, 27844, Note_off_c, 9, 42, 52
10, 27936, Note_on_c, 9, 42, 54
10, 27940, Note_off_c, 9, 42, 54
10, 28032, Note_on_c, 9, 35, 127
10, 28032, Note_on_c, 9, 40, 100
10, 28032, Note_on_c, 9, 42, 74
10, 28036, Note_off_c, 9, 42, 74
10, 28036, Note_off_c, 9, 40, 100
10, 28036, Note_off_c, 9, 35, 127
10, 28224, Note_on_c, 9, 42, 63
10, 28228, Note_off_c, 9, 42, 63
10, 28320, Note_on_c, 9, 42, 50
10, 28324, Note_off_c, 9, 42, 50
10, 28416, Note_on_c, 9, 35, 127
10, 28416, Note_on_c, 9, 42, 62
10, 28420, Note_off_c, 9, 42, 62
10, 28420, Note_off_c, 9, 35, 127
10, 28608, Note_on_c, 9, 42, 55
10, 28612, Note_off_c, 9, 42, 55
10, 28704, Note_on_c, 9, 42, 57
10, 28708, Note_off_c, 9, 42, 57
10, 28800, Note_on_c, 9, 35, 127
10, 28800, Note_on_c, 9, 40, 100
10, 28800, Note_on_c, 9, 42, 76
10, 28804, Note_off_c, 9, 42, 76
10, 28804, Note_off_c, 9, 40, 100
10, 28804, Note_off_c, 9, 35, 127
10, 28992, Note_on_c, 9, 42, 59
10, 28996, Note_off_c, 9, 42, 59
10, 29088, Note_on_c, 9, 42, 62
10, 29092, Note_off_c, 9, 42, 62
10, 29184, Note_on_c, 9, 35, 127
10, 29184, Note_on_c, 9, 42, 70
10, 29188, Note_off_c, 9, 42, 70
10, 29188, Note_off_c, 9, 35, 127
10, 29376, Note_on_c, 9, 42, 52
10, 29380, Note_off_c, 9, 42, 52
10, 29472, Note_on_c, 9, 42, 54
10, 29476, Note_off_c, 9, 42, 54
10, 29568, Note_on_c, 9, 35, 127
10, 29568, Note_on_c, 9, 40, 100
10, 29568, Note_on_c, 9, 42, 74
10, 29572, Note_off_c, 9, 42, 74
10, 29572, Note_off_c, 9, 40, 100
10, 29572, Note_off_c, 9, 35, 127
10, 29760, Note_on_c, 9, 42, 63
10, 29764, Note_off_c, 9, 42, 63
10, 29856, Note_on_c, 9, 42, 50
10, 29860, Note_off_c, 9, 42, 50
10, 29952, Note_on_c, 9, 35, 127
10, 29952, Note_on_c, 9, 42, 62
10, 29956, Note_off_c, 9, 42, 62
10, 29956, Note_off_c, 9, 35, 127
10, 30144, Note_on_c, 9, 42, 55
10, 30148, Note_off_c, 9, 42, 55
10, 30240, Note_on_c, 9, 42, 57
10, 30244, Note_off_c, 9, 42, 57
10, 30336, Note_on_c, 9, 35, 127
10, 30336, Note_on_c, 9, 40, 100
10, 30336, Note_on_c, 9, 42, 76
10, 30340, Note_off_c, 9, 42, 76
10, 30340, Note_off_c, 9, 40, 100
10, 30340, Note_off_c, 9, 35, 127
10, 30528, Note_on_c, 9, 42, 59
10, 30532, Note_off_c, 9, 42, 59
10, 30624, Note_on_c, 9, 42, 62
10, 30628, Note_off_c, 9, 42, 62
10, 30720, Note_on_c, 9, 35, 127
10, 30720, Note_on_c, 9, 42, 70
10, 30724, Note_off_c, 9, 42, 70
10, 30724, Note_off_c, 9, 35, 127
10, 30912, Note_on_c, 9, 42, 52
10, 30916, Note_off_c, 9, 42, 52
10, 31008, Note_on_c, 9, 42, 54
10, 31012, Note_off_c, 9, 42, 54
10, 31104, Note_on_c, 9, 35, 127
10, 31104, Note_on_c, 9, 40, 100
10, 31104, Note_on_c, 9, 42, 74
10, 31108, Note_off_c, 9, 42, 74
10, 31108, Note_off_c, 9, 40, 100
10, 31108, Note_off_c, 9, 35, 127
10, 31296, Note_on_c, 9, 42, 63
10, 31300, Note_off_c, 9, 42, 63
10, 31392, Note_on_c, 9, 42, 50
10, 31396, Note_off_c, 9, 42, 50
10, 31488, Note_on_c, 9, 35, 127
10, 31488, Note_on_c, 9, 42, 62
10, 31492, Note_off_c, 9, 42, 62
10, 31492, Note_off_c, 9, 35, 127
10, 31680, Note_on_c, 9, 42, 55
10, 31684, Note_off_c, 9, 42, 55
10, 31776, Note_on_c, 9, 42, 57
10, 31780, Note_off_c, 9, 42, 57
10, 31872, Note_on_c, 9, 35, 127
10, 31872, Note_on_c, 9, 40, 100
10, 31872, Note_on_c, 9, 42, 76
10, 31876, Note_off_c, 9, 42, 76
10, 31876, Note_off_c, 9, 40, 100
10, 31876, Note_off_c, 9, 35, 127
10, 32064, Note_on_c, 9, 42, 59
10, 32068, Note_off_c, 9, 42, 59
10, 32160, Note_on_c, 9, 42, 62
10, 32164, Note_off_c, 9, 42, 62
10, 32256, Note_on_c, 9, 35, 127
10, 32256, Note_on_c, 9, 42, 70
10, 32260, Note_off_c, 9, 42, 70
10, 32260, Note_off_c, 9, 35, 127
10, 32448, Note_on_c, 9, 42, 52
10, 32452, Note_off_c, 9, 42, 52
10, 32544, Note_on_c, 9, 42, 54
10, 32548, Note_off_c, 9, 42, 54
10, 32640, Note_on_c, 9, 35, 127
10, 32640, Note_on_c, 9, 40, 100
10, 32640, Note_on_c, 9, 42, 74
10, 32644, Note_off_c, 9, 42, 74
10, 32644, Note_off_c, 9, 40, 100
10, 32644, Note_off_c, 9, 35, 127
10, 32832, Note_on_c, 9, 42, 63
10, 32836, Note_off_c, 9, 42, 63
10, 32928, Note_on_c, 9, 42, 50
10, 32932, Note_off_c, 9, 42, 50
10, 33024, Note_on_c, 9, 35, 127
10, 33024, Note_on_c, 9, 42, 62
10, 33028, Note_off_c, 9, 42, 62
10, 33028, Note_off_c, 9, 35, 127
10, 33216, Note_on_c, 9, 42, 55
10, 33220, Note_off_c, 9, 42, 55
10, 33312, Note_on_c, 9, 42, 57
10, 33316, Note_off_c, 9, 42, 57
10, 33408, Note_on_c, 9, 35, 127
10, 33408, Note_on_c, 9, 40, 100
10, 33408, Note_on_c, 9, 42, 76
10, 33412, Note_off_c, 9, 42, 76
10, 33412, Note_off_c, 9, 40, 100
10, 33412, Note_off_c, 9, 35, 127
10, 33600, Note_on_c, 9, 42, 59
10, 33604, Note_off_c, 9, 42, 59
10, 33696, Note_on_c, 9, 42, 62
10, 33700, Note_off_c, 9, 42, 62
10, 33792, Note_on_c, 9, 35, 127
10, 33792, Note_on_c, 9, 42, 70
10, 33796, Note_off_c, 9, 42, 70
10, 33796, Note_off_c, 9, 35, 127
10, 33984, Note_on_c, 9, 42, 52
10, 33988, Note_off_c, 9, 42, 52
10, 34080, Note_on_c, 9, 42, 54
10, 34084, Note_off_c, 9, 42, 54
10, 34176, Note_on_c, 9, 35, 127
10, 34176, Note_on_c, 9, 40, 100
10, 34176, Note_on_c, 9, 42, 74
10, 34180, Note_off_c, 9, 42, 74
10, 34180, Note_off_c, 9, 40, 100
10, 34180, Note_off_c, 9, 35, 127
10, 34368, Note_on_c, 9, 42, 63
10, 34372, Note_off_c, 9, 42, 63
10, 34464, Note_on_c, 9, 42, 50
10, 34468, Note_off_c, 9, 42, 50
10, 34560, Note_on_c, 9, 35, 127
10, 34560, Note_on_c, 9, 42, 62
10, 34564, Note_off_c, 9, 42, 62
10, 34564, Note_off_c, 9, 35, 127
10, 34752, Note_on_c, 9, 42, 55
10, 34756, Note_off_c, 9, 42, 55
10, 34848, Note_on_c, 9, 42, 57
10, 34852, Note_off_c, 9, 42, 57
10, 34944, Note_on_c, 9, 35, 127
10, 34944, Note_on_c, 9, 40, 100
10, 34944, Note_on_c, 9, 42, 76
10, 34948, Note_off_c, 9, 42, 76
10, 34948, Note_off_c, 9, 40, 100
10, 34948, Note_off_c, 9, 35, 127
10, 35136, Note_on_c, 9, 42, 59
10, 35140, Note_off_c, 9, 42, 59
10, 35232, Note_on_c, 9, 42, 62
10, 35236, Note_off_c, 9, 42, 62
10, 35328, Note_on_c, 9, 35, 127
10, 35328, Note_on_c, 9, 42, 70
10, 35332, Note_off_c, 9, 42, 70
10, 35332, Note_off_c, 9, 35, 127
10, 35520, Note_on_c, 9, 42, 52
10, 35524, Note_off_c, 9, 42, 52
10, 35616, Note_on_c, 9, 42, 54
10, 35620, Note_off_c, 9, 42, 54
10, 35712, Note_on_c, 9, 35, 127
10, 35712, Note_on_c, 9, 40, 100
10, 35712, Note_on_c, 9, 42, 74
10, 35716, Note_off_c, 9, 42, 74
10, 35716, Note_off_c, 9, 40, 100
10, 35716, Note_off_c, 9, 35, 127
10, 35904, Note_on_c, 9, 42, 63
10, 35908, Note_off_c, 9, 42, 63
10, 36000, Note_on_c, 9, 42, 50
10, 36004, Note_off_c, 9, 42, 50
10, 36096, Note_on_c, 9, 35, 127
10, 36096, Note_on_c, 9, 42, 62
10, 36100, Note_off_c, 9, 42, 62
10, 36100, Note_off_c, 9, 35, 127
10, 36288, Note_on_c, 9, 42, 55
10, 36292, Note_off_c, 9, 42, 55
10, 36384, Note_on_c, 9, 42, 57
10, 36388, Note_off_c, 9, 42, 57
10, 36480, Note_on_c, 9, 35, 127
10, 36480, Note_on_c, 9, 40, 100
10, 36480, Note_on_c, 9, 42, 76
10, 36484, Note_off_c, 9, 42, 76
10, 36484, Note_off_c, 9, 40, 100
10, 36484, Note_off_c, 9, 35, 127
10, 36672, Note_on_c, 9, 42, 59
10, 36676, Note_off_c, 9, 42, 59
10, 36768, Note_on_c, 9, 42, 62
10, 36772, Note_off_c, 9, 42, 62
10, 36864, Note_on_c, 9, 35, 127
10, 36864, Note_on_c, 9, 57, 112
10, 36864, Note_on_c, 9, 42, 70
10, 36868, Note_off_c, 9, 42, 70
10, 36868, Note_off_c, 9, 57, 112
10, 36868, Note_off_c, 9, 35, 127
10, 37056, Note_on_c, 9, 42, 52
10, 37060, Note_off_c, 9, 42, 52
10, 37152, Note_on_c, 9, 42, 54
10, 37156, Note_off_c, 9, 42, 54
10, 37248, Note_on_c, 9, 35, 127
10, 37248, Note_on_c, 9, 40, 100
10, 37248, Note_on_c, 9, 42, 74
10, 37252, Note_off_c, 9, 42, 74
10, 37252, Note_off_c, 9, 40, 100
10, 37252, Note_off_c, 9, 35, 127
10, 37440, Note_on_c, 9, 42, 63
10, 37444, Note_off_c, 9, 42, 63
10, 37536, Note_on_c, 9, 42, 50
10, 37540, Note_off_c, 9, 42, 50
10, 37632, Note_on_c, 9, 35, 127
10, 37632, Note_on_c, 9, 42, 62
10, 37636, Note_off_c, 9, 42, 62
10, 37636, Note_off_c, 9, 35, 127
10, 37824, Note_on_c, 9, 42, 55
10, 37828, Note_off_c, 9, 42, 55
10, 37920, Note_on_c, 9, 42, 57
10, 37924, Note_off_c, 9, 42, 57
10, 38016, Note_on_c, 9, 35, 127
10, 38016, Note_on_c, 9, 40, 100
10, 38016, Note_on_c, 9, 42, 76
10, 38020, Note_off_c, 9, 42, 76
10, 38020, Note_off_c, 9, 40, 100
10, 38020, Note_off_c, 9, 35, 127
10, 38208, Note_on_c, 9, 42, 59
10, 38212, Note_off_c, 9, 42, 59
10, 38304, Note_on_c, 9, 42, 62
10, 38308, Note_off_c, 9, 42, 62
10, 38400, Note_on_c, 9, 35, 127
10, 38400, Note_on_c, 9, 42, 70
10, 38404, Note_off_c, 9, 42, 70
10, 38404, Note_off_c, 9, 35, 127
10, 38592, Note_on_c, 9, 42, 52
10, 38596, Note_off_c, 9, 42, 52
10, 38688, Note_on_c, 9, 42, 54
10, 38692, Note_off_c, 9, 42, 54
10, 38784, Note_on_c, 9, 35, 127
10, 38784, Note_on_c, 9, 40, 100
10, 38784, Note_on_c, 9, 42, 74
10, 38788, Note_off_c, 9, 42, 74
10, 38788, Note_off_c, 9, 40, 100
10, 38788, Note_off_c, 9, 35, 127
10, 38976, Note_on_c, 9, 42, 63
10, 38980, Note_off_c, 9, 42, 63
10, 39072, Note_on_c, 9, 42, 50
10, 39076, Note_off_c, 9, 42, 50
10, 39168, Note_on_c, 9, 35, 127
10, 39168, Note_on_c, 9, 42, 62
10, 39172, Note_off_c, 9, 42, 62
10, 39172, Note_off_c, 9, 35, 127
10, 39360, Note_on_c, 9, 42, 55
10, 39364, Note_off_c, 9, 42, 55
10, 39456, Note_on_c, 9, 42, 57
10, 39460, Note_off_c, 9, 42, 57
10, 39552, Note_on_c, 9, 35, 127
10, 39552, Note_on_c, 9, 40, 100
10, 39552, Note_on_c, 9, 42, 76
10, 39556, Note_off_c, 9, 42, 76
10, 39556, Note_off_c, 9, 40, 100
10, 39556, Note_off_c, 9, 35, 127
10, 39744, Note_on_c, 9, 42, 59
10, 39748, Note_off_c, 9, 42, 59
10, 39840, Note_on_c, 9, 42, 62
10, 39844, Note_off_c, 9, 42, 62
10, 39936, Note_on_c, 9, 35, 127
10, 39936, Note_on_c, 9, 42, 70
10, 39940, Note_off_c, 9, 42, 70
10, 39940, Note_off_c, 9, 35, 127
10, 40128, Note_on_c, 9, 42, 52
10, 40132, Note_off_c, 9, 42, 52
10, 40224, Note_on_c, 9, 42, 54
10, 40228, Note_off_c, 9, 42, 54
10, 40320, Note_on_c, 9, 35, 127
10, 40320, Note_on_c, 9, 40, 100
10, 40320, Note_on_c, 9, 42, 74
10, 40324, Note_off_c, 9, 42, 74
10, 40324, Note_off_c, 9, 40, 100
10, 40324, Note_off_c, 9, 35, 127
10, 40512, Note_on_c, 9, 42, 63
10, 40516, Note_off_c, 9, 42, 63
10, 40608, Note_on_c, 9, 42, 50
10, 40612, Note_off_c, 9, 42, 50
10, 40704, Note_on_c, 9, 35, 127
10, 40704, Note_on_c, 9, 42, 62
10, 40708, Note_off_c, 9, 42, 62
10, 40708, Note_off_c, 9, 35, 127
10, 40896, Note_on_c, 9, 42, 55
10, 40900, Note_off_c, 9, 42, 55
10, 40992, Note_on_c, 9, 42, 57
10, 40996, Note_off_c, 9, 42, 57
10, 41088, Note_on_c, 9, 35, 127
10, 41088, Note_on_c, 9, 40, 100
10, 41088, Note_on_c, 9, 42, 76
10, 41092, Note_off_c, 9, 42, 76
10, 41092, Note_off_c, 9, 40, 100
10, 41092, Note_off_c, 9, 35, 127
10, 41280, Note_on_c, 9, 42, 59
10, 41284, Note_off_c, 9, 42, 59
10, 41376, Note_on_c, 9, 42, 62
10, 41380, Note_off_c, 9, 42, 62
10, 41472, Note_on_c, 9, 35, 127
10, 41472, Note_on_c, 9, 42, 70
10, 41476, Note_off_c, 9, 42, 70
10, 41476, Note_off_c, 9, 35, 127
10, 41664, Note_on_c, 9, 42, 52
10, 41668, Note_off_c, 9, 42, 52
10, 41760, Note_on_c, 9, 42, 54
10, 41764, Note_off_c, 9, 42, 54
10, 41856, Note_on_c, 9, 35, 127
10, 41856, Note_on_c, 9, 40, 100
10, 41856, Note_on_c, 9, 42, 74
10, 41860, Note_off_c, 9, 42, 74
10, 41860, Note_off_c, 9, 40, 100
10, 41860, Note_off_c, 9, 35, 127
10, 42048, Note_on_c, 9, 42, 63
10, 42052, Note_off_c, 9, 42, 63
10, 42144, Note_on_c, 9, 42, 50
10, 42148, Note_off_c, 9, 42, 50
10, 42240, Note_on_c, 9, 35, 127
10, 42240, Note_on_c, 9, 42, 62
10, 42244, Note_off_c, 9, 42, 62
10, 42244, Note_off_c, 9, 35, 127
10, 42432, Note_on_c, 9, 42, 55
10, 42436, Note_off_c, 9, 42, 55
10, 42528, Note_on_c, 9, 42, 57
10, 42532, Note_off_c, 9, 42, 57
10, 42624, Note_on_c, 9, 35, 127
10, 42624, Note_on_c, 9, 40, 100
10, 42624, Note_on_c, 9, 42, 76
10, 42628, Note_off_c, 9, 42, 76
10, 42628, Note_off_c, 9, 40, 100
10, 42628, Note_off_c, 9, 35, 127
10, 42816, Note_on_c, 9, 42, 59
10, 42820, Note_off_c, 9, 42, 59
10, 42912, Note_on_c, 9, 42, 62
10, 42916, Note_off_c, 9, 42, 62
10, 43008, Note_on_c, 9, 35, 127
10, 43008, Note_on_c, 9, 57, 103
10, 43008, Note_on_c, 9, 42, 70
10, 43012, Note_off_c, 9, 42, 70
10, 43012, Note_off_c, 9, 57, 103
10, 43012, Note_off_c, 9, 35, 127
10, 43200, Note_on_c, 9, 42, 52
10, 43204, Note_off_c, 9, 42, 52
10, 43296, Note_on_c, 9, 42, 54
10, 43300, Note_off_c, 9, 42, 54
10, 43392, Note_on_c, 9, 35, 127
10, 43392, Note_on_c, 9, 40, 100
10, 43392, Note_on_c, 9, 42, 74
10, 43396, Note_off_c, 9, 42, 74
10, 43396, Note_off_c, 9, 40, 100
10, 43396, Note_off_c, 9, 35, 127
10, 43584, Note_on_c, 9, 42, 63
10, 43588, Note_off_c, 9, 42, 63
10, 43680, Note_on_c, 9, 42, 50
10, 43684, Note_off_c, 9, 42, 50
10, 43776, Note_on_c, 9, 35, 127
10, 43776, Note_on_c, 9, 42, 62
10, 43780, Note_off_c, 9, 42, 62
10, 43780, Note_off_c, 9, 35, 127
10, 43968, Note_on_c, 9, 42, 55
10, 43972, Note_off_c, 9, 42, 55
10, 44064, Note_on_c, 9, 42, 57
10, 44068, Note_off_c, 9, 42, 57
10, 44160, Note_on_c, 9, 35, 127
10, 44160, Note_on_c, 9, 40, 100
10, 44160, Note_on_c, 9, 42, 76
10, 44164, Note_off_c, 9, 42, 76
10, 44164, Note_off_c, 9, 40, 100
10, 44164, Note_off_c, 9, 35, 127
10, 44352, Note_on_c, 9, 42, 59
10, 44356, Note_off_c, 9, 42, 59
10, 44448, Note_on_c, 9, 42, 62
10, 44452, Note_off_c, 9, 42, 62
10, 44544, Note_on_c, 9, 35, 127
10, 44544, Note_on_c, 9, 42, 70
10, 44548, Note_off_c, 9, 42, 70
10, 44548, Note_off_c, 9, 35, 127
10, 44736, Note_on_c, 9, 42, 52
10, 44740, Note_off_c, 9, 42, 52
10, 44832, Note_on_c, 9, 42, 54
10, 44836, Note_off_c, 9, 42, 54
10, 44928, Note_on_c, 9, 35, 127
10, 44928, Note_on_c, 9, 40, 100
10, 44928, Note_on_c, 9, 42, 74
10, 44932, Note_off_c, 9, 42, 74
10, 44932, Note_off_c, 9, 40, 100
10, 44932, Note_off_c, 9, 35, 127
10, 45120, Note_on_c, 9, 42, 63
10, 45124, Note_off_c, 9, 42, 63
10, 45216, Note_on_c, 9, 42, 50
10, 45220, Note_off_c, 9, 42, 50
10, 45312, Note_on_c, 9, 35, 127
10, 45312, Note_on_c, 9, 42, 62
10, 45316, Note_off_c, 9, 42, 62
10, 45316, Note_off_c, 9, 35, 127
10, 45504, Note_on_c, 9, 42, 55
10, 45508, Note_off_c, 9, 42, 55
10, 45600, Note_on_c, 9, 42, 57
10, 45604, Note_off_c, 9, 42, 57
10, 45696, Note_on_c, 9, 35, 127
10, 45696, Note_on_c, 9, 40, 100
10, 45696, Note_on_c, 9, 42, 76
10, 45700, Note_off_c, 9, 42, 76
10, 45700, Note_off_c, 9, 40, 100
10, 45700, Note_off_c, 9, 35, 127
10, 45888, Note_on_c, 9, 42, 59
10, 45892, Note_off_c, 9, 42, 59
10, 45984, Note_on_c, 9, 42, 62
10, 45988, Note_off_c, 9, 42, 62
10, 46080, Note_on_c, 9, 35, 127
10, 46080, Note_on_c, 9, 57, 105
10, 46080, Note_on_c, 9, 42, 70
10, 46084, Note_off_c, 9, 42, 70
10, 46084, Note_off_c, 9, 57, 105
10, 46084, Note_off_c, 9, 35, 127
10, 46272, Note_on_c, 9, 42, 52
10, 46276, Note_off_c, 9, 42, 52
10, 46368, Note_on_c, 9, 42, 54
10, 46372, Note_off_c, 9, 42, 54
10, 46464, Note_on_c, 9, 35, 127
10, 46464, Note_on_c, 9, 40, 100
10, 46464, Note_on_c, 9, 42, 74
10, 46468, Note_off_c, 9, 42, 74
10, 46468, Note_off_c, 9, 40, 100
10, 46468, Note_off_c, 9, 35, 127
10, 46656, Note_on_c, 9, 42, 63
10, 46660, Note_off_c, 9, 42, 63
10, 46752, Note_on_c, 9, 42, 50
10, 46756, Note_off_c, 9, 42, 50
10, 46848, Note_on_c, 9, 35, 127
10, 46848, Note_on_c, 9, 42, 62
10, 46852, Note_off_c, 9, 42, 62
10, 46852, Note_off_c, 9, 35, 127
10, 47040, Note_on_c, 9, 42, 55
10, 47044, Note_off_c, 9, 42, 55
10, 47136, Note_on_c, 9, 42, 57
10, 47140, Note_off_c, 9, 42, 57
10, 47232, Note_on_c, 9, 35, 127
10, 47232, Note_on_c, 9, 40, 100
10, 47232, Note_on_c, 9, 42, 76
10, 47236, Note_off_c, 9, 42, 76
10, 47236, Note_off_c, 9, 40, 100
10, 47236, Note_off_c, 9, 35, 127
10, 47424, Note_on_c, 9, 42, 59
10, 47428, Note_off_c, 9, 42, 59
10, 47520, Note_on_c, 9, 42, 62
10, 47524, Note_off_c, 9, 42, 62
10, 47616, Note_on_c, 9, 35, 127
10, 47616, Note_on_c, 9, 42, 70
10, 47620, Note_off_c, 9, 42, 70
10, 47620, Note_off_c, 9, 35, 127
10, 47808, Note_on_c, 9, 42, 52
10, 47812, Note_off_c, 9, 42, 52
10, 47904, Note_on_c, 9, 42, 54
10, 47908, Note_off_c, 9, 42, 54
10, 48000, Note_on_c, 9, 35, 127
10, 48000, Note_on_c, 9, 40, 100
10, 48000, Note_on_c, 9, 42, 74
10, 48004, Note_off_c, 9, 42, 74
10, 48004, Note_off_c, 9, 40, 100
10, 48004, Note_off_c, 9, 35, 127
10, 48192, Note_on_c, 9, 42, 63
10, 48196, Note_off_c, 9, 42, 63
10, 48288, Note_on_c, 9, 42, 50
10, 48292, Note_off_c, 9, 42, 50
10, 48384, Note_on_c, 9, 70, 34
10, 48384, Note_on_c, 9, 35, 127
10, 48388, Note_off_c, 9, 35, 127
10, 48388, Note_off_c, 9, 70, 34
10, 48480, Note_on_c, 9, 70, 34
10, 48484, Note_off_c, 9, 70, 34
10, 48576, Note_on_c, 9, 70, 54
10, 48576, Note_on_c, 9, 44, 72
10, 48580, Note_off_c, 9, 44, 72
10, 48580, Note_off_c, 9, 70, 54
10, 48672, Note_on_c, 9, 70, 34
10, 48676, Note_off_c, 9, 70, 34
10, 48768, Note_on_c, 9, 70, 34
10, 48768, Note_on_c, 9, 35, 127
10, 48772, Note_off_c, 9, 35, 127
10, 48772, Note_off_c, 9, 70, 34
10, 48864, Note_on_c, 9, 70, 34
10, 48868, Note_off_c, 9, 70, 34
10, 48960, Note_on_c, 9, 70, 54
10, 48960, Note_on_c, 9, 44, 72
10, 48964, Note_off_c, 9, 44, 72
10, 48964, Note_off_c, 9, 70, 54
10, 49056, Note_on_c, 9, 70, 34
10, 49060, Note_off_c, 9, 70, 34
10, 49152, Note_on_c, 9, 70, 34
10, 49152, Note_on_c, 9, 35, 127
10, 49156, Note_off_c, 9, 35, 127
10, 49156, Note_off_c, 9, 70, 34
10, 49248, Note_on_c, 9, 70, 34
10, 49252, Note_off_c, 9, 70, 34
10, 49344, Note_on_c, 9, 70, 54
10, 49344, Note_on_c, 9, 44, 72
10, 49348, Note_off_c, 9, 44, 72
10, 49348, Note_off_c, 9, 70, 54
10, 49440, Note_on_c, 9, 70, 34
10, 49444, Note_off_c, 9, 70, 34
10, 49536, Note_on_c, 9, 70, 34
10, 49536, Note_on_c, 9, 35, 127
10, 49540, Note_off_c, 9, 35, 127
10, 49540, Note_off_c, 9, 70, 34
10, 49632, Note_on_c, 9, 70, 34
10, 49636, Note_off_c, 9, 70, 34
10, 49728, Note_on_c, 9, 70, 54
10, 49728, Note_on_c, 9, 44, 72
10, 49732, Note_off_c, 9, 44, 72
10, 49732, Note_off_c, 9, 70, 54
10, 49824, Note_on_c, 9, 70, 34
10, 49828, Note_off_c, 9, 70, 34
10, 49920, Note_on_c, 9, 70, 34
10, 49920, Note_on_c, 9, 35, 127
10, 49924, Note_off_c, 9, 35, 127
10, 49924, Note_off_c, 9, 70, 34
10, 50016, Note_on_c, 9, 70, 34
10, 50020, Note_off_c, 9, 70, 34
10, 50112, Note_on_c, 9, 70, 54
10, 50112, Note_on_c, 9, 44, 72
10, 50116, Note_off_c, 9, 44, 72
10, 50116, Note_off_c, 9, 70, 54
10, 50208, Note_on_c, 9, 70, 34
10, 50212, Note_off_c, 9, 70, 34
10, 50304, Note_on_c, 9, 70, 34
10, 50304, Note_on_c, 9, 35, 127
10, 50308, Note_off_c, 9, 35, 127
10, 50308, Note_off_c, 9, 70, 34
10, 50400, Note_on_c, 9, 70, 34
10, 50404, Note_off_c, 9, 70, 34
10, 50496, Note_on_c, 9, 70, 54
10, 50496, Note_on_c, 9, 44, 72
10, 50500, Note_off_c, 9, 44, 72
10, 50500, Note_off_c, 9, 70, 54
10, 50592, Note_on_c, 9, 70, 34
10, 50596, Note_off_c, 9, 70, 34
10, 50688, Note_on_c, 9, 70, 34
10, 50688, Note_on_c, 9, 35, 127
10, 50692, Note_off_c, 9, 35, 127
10, 50692, Note_off_c, 9, 70, 34
10, 50784, Note_on_c, 9, 70, 34
10, 50788, Note_off_c, 9, 70, 34
10, 50880, Note_on_c, 9, 70, 54
10, 50880, Note_on_c, 9, 44, 72
10, 50884, Note_off_c, 9, 44, 72
10, 50884, Note_off_c, 9, 70, 54
10, 50976, Note_on_c, 9, 70, 34
10, 50980, Note_off_c, 9, 70, 34
10, 51072, Note_on_c, 9, 70, 34
10, 51072, Note_on_c, 9, 35, 127
10, 51076, Note_off_c, 9, 35, 127
10, 51076, Note_off_c, 9, 70, 34
10, 51168, Note_on_c, 9, 70, 34
10, 51172, Note_off_c, 9, 70, 34
10, 51264, Note_on_c, 9, 70, 54
10, 51264, Note_on_c, 9, 44, 72
10, 51268, Note_off_c, 9, 44, 72
10, 51268, Note_off_c, 9, 70, 54
10, 51360, Note_on_c, 9, 70, 34
10, 51364, Note_off_c, 9, 70, 34
10, 51456, Note_on_c, 9, 35, 127
10, 51456, Note_on_c, 9, 42, 77
10, 51460, Note_off_c, 9, 42, 77
10, 51460, Note_off_c, 9, 35, 127
10, 51648, Note_on_c, 9, 42, 60
10, 51652, Note_off_c, 9, 42, 60
10, 51744, Note_on_c, 9, 42, 44
10, 51748, Note_off_c, 9, 42, 44
10, 51840, Note_on_c, 9, 35, 127
10, 51840, Note_on_c, 9, 40, 100
10, 51840, Note_on_c, 9, 42, 69
10, 51844, Note_off_c, 9, 42, 69
10, 51844, Note_off_c, 9, 40, 100
10, 51844, Note_off_c, 9, 35, 127
10, 52032, Note_on_c, 9, 42, 55
10, 52036, Note_off_c, 9, 42, 55
10, 52128, Note_on_c, 9, 42, 40
10, 52132, Note_off_c, 9, 42, 40
10, 52224, Note_on_c, 9, 35, 127
10, 52224, Note_on_c, 9, 42, 62
10, 52228, Note_off_c, 9, 42, 62
10, 52228, Note_off_c, 9, 35, 127
10, 52320, Note_on_c, 9, 42, 42
10, 52324, Note_off_c, 9, 42, 42
10, 52416, Note_on_c, 9, 42, 50
10, 52420, Note_off_c, 9, 42, 50
10, 52512, Note_on_c, 9, 42, 53
10, 52516, Note_off_c, 9, 42, 53
10, 52608, Note_on_c, 9, 35, 127
10, 52608, Note_on_c, 9, 40, 100
10, 52608, Note_on_c, 9, 42, 69
10, 52612, Note_off_c, 9, 42, 69
10, 52612, Note_off_c, 9, 40, 100
10, 52612, Note_off_c, 9, 35, 127
10, 52800, Note_on_c, 9, 42, 61
10, 52804, Note_off_c, 9, 42, 61
10, 52896, Note_on_c, 9, 42, 46
10, 52900, Note_off_c, 9, 42, 46
10, 52992, Note_on_c, 9, 35, 127
10, 52992, Note_on_c, 9, 42, 58
10, 52996, Note_off_c, 9, 42, 58
10, 52996, Note_off_c, 9, 35, 127
10, 53184, Note_on_c, 9, 42, 60
10, 53188, Note_off_c, 9, 42, 60
10, 53280, Note_on_c, 9, 42, 43
10, 53284, Note_off_c, 9, 42, 43
10, 53376, Note_on_c, 9, 35, 127
10, 53376, Note_on_c, 9, 40, 100
10, 53376, Note_on_c, 9, 42, 69
10, 53380, Note_off_c, 9, 42, 69
10, 53380, Note_off_c, 9, 40, 100
10, 53380, Note_off_c, 9, 35, 127
10, 53568, Note_on_c, 9, 42, 65
10, 53572, Note_off_c, 9, 42, 65
10, 53664, Note_on_c, 9, 42, 34
10, 53668, Note_off_c, 9, 42, 34
10, 53760, Note_on_c, 9, 35, 127
10, 53760, Note_on_c, 9, 42, 64
10, 53764, Note_off_c, 9, 42, 64
10, 53764, Note_off_c, 9, 35, 127
10, 53856, Note_on_c, 9, 42, 47
10, 53860, Note_off_c, 9, 42, 47
10, 53952, Note_on_c, 9, 42, 62
10, 53956, Note_off_c, 9, 42, 62
10, 54048, Note_on_c, 9, 42, 55
10, 54052, Note_off_c, 9, 42, 55
10, 54144, Note_on_c, 9, 35, 127
10, 54144, Note_on_c, 9, 40, 100
10, 54144, Note_on_c, 9, 42, 70
10, 54148, Note_off_c, 9, 42, 70
10, 54148, Note_off_c, 9, 40, 100
10, 54148, Note_off_c, 9, 35, 127
10, 54336, Note_on_c, 9, 42, 51
10, 54340, Note_off_c, 9, 42, 51
10, 54432, Note_on_c, 9, 42, 52
10, 54436, Note_off_c, 9, 42, 52
10, 54528, Note_on_c, 9, 35, 127
10, 54528, Note_on_c, 9, 42, 77
10, 54532, Note_off_c, 9, 42, 77
10, 54532, Note_off_c, 9, 35, 127
10, 54720, Note_on_c, 9, 42, 60
10, 54724, Note_off_c, 9, 42, 60
10, 54816, Note_on_c, 9, 42, 44
10, 54820, Note_off_c, 9, 42, 44
10, 54912, Note_on_c, 9, 35, 127
10, 54912, Note_on_c, 9, 40, 100
10, 54912, Note_on_c, 9, 42, 69
10, 54916, Note_off_c, 9, 42, 69
10, 54916, Note_off_c, 9, 40, 100
10, 54916, Note_off_c, 9, 35, 127
10, 55104, Note_on_c, 9, 42, 55
10, 55108, Note_off_c, 9, 42, 55
10, 55200, Note_on_c, 9, 42, 40
10, 55204, Note_off_c, 9, 42, 40
10, 55296, Note_on_c, 9, 35, 127
10, 55296, Note_on_c, 9, 42, 62
10, 55300, Note_off_c, 9, 42, 62
10, 55300, Note_off_c, 9, 35, 127
10, 55392, Note_on_c, 9, 42, 42
10, 55396, Note_off_c, 9, 42, 42
10, 55488, Note_on_c, 9, 42, 50
10, 55492, Note_off_c, 9, 42, 50
10, 55584, Note_on_c, 9, 42, 53
10, 55588, Note_off_c, 9, 42, 53
10, 55680, Note_on_c, 9, 35, 127
10, 55680, Note_on_c, 9, 40, 100
10, 55680, Note_on_c, 9, 42, 69
10, 55684, Note_off_c, 9, 42, 69
10, 55684, Note_off_c, 9, 40, 100
10, 55684, Note_off_c, 9, 35, 127
10, 55872, Note_on_c, 9, 42, 61
10, 55876, Note_off_c, 9, 42, 61
10, 55968, Note_on_c, 9, 42, 46
10, 55972, Note_off_c, 9, 42, 46
10, 56064, Note_on_c, 9, 35, 127
10, 56064, Note_on_c, 9, 42, 58
10, 56068, Note_off_c, 9, 42, 58
10, 56068, Note_off_c, 9, 35, 127
10, 56256, Note_on_c, 9, 42, 60
10, 56260, Note_off_c, 9, 42, 60
10, 56352, Note_on_c, 9, 42, 43
10, 56356, Note_off_c, 9, 42, 43
10, 56448, Note_on_c, 9, 35, 127
10, 56448, Note_on_c, 9, 40, 100
10, 56448, Note_on_c, 9, 42, 69
10, 56452, Note_off_c, 9, 42, 69
10, 56452, Note_off_c, 9, 40, 100
10, 56452, Note_off_c, 9, 35, 127
10, 56640, Note_on_c, 9, 42, 65
10, 56644, Note_off_c, 9, 42, 65
10, 56736, Note_on_c, 9, 42, 34
10, 56740, Note_off_c, 9, 42, 34
10, 56832, Note_on_c, 9, 35, 127
10, 56832, Note_on_c, 9, 42, 64
10, 56836, Note_off_c, 9, 42, 64
10, 56836, Note_off_c, 9, 35, 127
10, 56928, Note_on_c, 9, 42, 47
10, 56932, Note_off_c, 9, 42, 47
10, 57024, Note_on_c, 9, 42, 62
10, 57028, Note_off_c, 9, 42, 62
10, 57120, Note_on_c, 9, 42, 55
10, 57124, Note_off_c, 9, 42, 55
10, 57216, Note_on_c, 9, 35, 127
10, 57216, Note_on_c, 9, 40, 100
10, 57216, Note_on_c, 9, 42, 70
10, 57220, Note_off_c, 9, 42, 70
10, 57220, Note_off_c, 9, 40, 100
10, 57220, Note_off_c, 9, 35, 127
10, 57408, Note_on_c, 9, 42, 51
10, 57412, Note_off_c, 9, 42, 51
10, 57504, Note_on_c, 9, 42, 52
10, 57508, Note_off_c, 9, 42, 52
10, 57600, Note_on_c, 9, 35, 127
10, 57600, Note_on_c, 9, 42, 77
10, 57604, Note_off_c, 9, 42, 77
10, 57604, Note_off_c, 9, 35, 127
10, 57792, Note_on_c, 9, 42, 60
10, 57796, Note_off_c, 9, 42, 60
10, 57888, Note_on_c, 9, 42, 44
10, 57892, Note_off_c, 9, 42, 44
10, 57984, Note_on_c, 9, 35, 127
10, 57984, Note_on_c, 9, 40, 100
10, 57984, Note_on_c, 9, 42, 69
10, 57988, Note_off_c, 9, 42, 69
10, 57988, Note_off_c, 9, 40, 100
10, 57988, Note_off_c, 9, 35, 127
10, 58176, Note_on_c, 9, 42, 55
10, 58180, Note_off_c, 9, 42, 55
10, 58272, Note_on_c, 9, 42, 40
10, 58276, Note_off_c, 9, 42, 40
10, 58368, Note_on_c, 9, 35, 127
10, 58368, Note_on_c, 9, 42, 62
10, 58372, Note_off_c, 9, 42, 62
10, 58372, Note_off_c, 9, 35, 127
10, 58464, Note_on_c, 9, 42, 42
10, 58468, Note_off_c, 9, 42, 42
10, 58560, Note_on_c, 9, 42, 50
10, 58564, Note_off_c, 9, 42, 50
10, 58656, Note_on_c, 9, 42, 53
10, 58660, Note_off_c, 9, 42, 53
10, 58752, Note_on_c, 9, 35, 127
10, 58752, Note_on_c, 9, 40, 100
10, 58752, Note_on_c, 9, 42, 69
10, 58756, Note_off_c, 9, 42, 69
10, 58756, Note_off_c, 9, 40, 100
10, 58756, Note_off_c, 9, 35, 127
10, 58944, Note_on_c, 9, 42, 61
10, 58948, Note_off_c, 9, 42, 61
10, 59040, Note_on_c, 9, 42, 46
10, 59044, Note_off_c, 9, 42, 46
10, 59136, Note_on_c, 9, 35, 127
10, 59136, Note_on_c, 9, 42, 58
10, 59140, Note_off_c, 9, 42, 58
10, 59140, Note_off_c, 9, 35, 127
10, 59328, Note_on_c, 9, 42, 60
10, 59332, Note_off_c, 9, 42, 60
10, 59424, Note_on_c, 9, 42, 43
10, 59428, Note_off_c, 9, 42, 43
10, 59520, Note_on_c, 9, 35, 127
10, 59520, Note_on_c, 9, 40, 100
10, 59520, Note_on_c, 9, 42, 69
10, 59524, Note_off_c, 9, 42, 69
10, 59524, Note_off_c, 9, 40, 100
10, 59524, Note_off_c, 9, 35, 127
10, 59712, Note_on_c, 9, 42, 65
10, 59716, Note_off_c, 9, 42, 65
10, 59808, Note_on_c, 9, 42, 34
10, 59812, Note_off_c, 9, 42, 34
10, 59904, Note_on_c, 9, 35, 127
10, 59904, Note_on_c, 9, 42, 64
10, 59908, Note_off_c, 9, 42, 64
10, 59908, Note_off_c, 9, 35, 127
10, 60000, Note_on_c, 9, 42, 47
10, 60004, Note_off_c, 9, 42, 47
10, 60096, Note_on_c, 9, 42, 62
10, 60100, Note_off_c, 9, 42, 62
10, 60192, Note_on_c, 9, 42, 55
10, 60196, Note_off_c, 9, 42, 55
10, 60288, Note_on_c, 9, 35, 127
10, 60288, Note_on_c, 9, 40, 100
10, 60288, Note_on_c, 9, 42, 70
10, 60292, Note_off_c, 9, 42, 70
10, 60292, Note_off_c, 9, 40, 100
10, 60292, Note_off_c, 9, 35, 127
10, 60480, Note_on_c, 9, 42, 51
10, 60484, Note_off_c, 9, 42, 51
10, 60576, Note_on_c, 9, 42, 52
10, 60580, Note_off_c, 9, 42, 52
10, 60672, Note_on_c, 9, 35, 127
10, 60672, Note_on_c, 9, 42, 77
10, 60676, Note_off_c, 9, 42, 77
10, 60676, Note_off_c, 9, 35, 127
10, 60864, Note_on_c, 9, 42, 60
10, 60868, Note_off_c, 9, 42, 60
10, 60960, Note_on_c, 9, 42, 44
10, 60964, Note_off_c, 9, 42, 44
10, 61056, Note_on_c, 9, 35, 127
10, 61056, Note_on_c, 9, 40, 100
10, 61056, Note_on_c, 9, 42, 69
10, 61060, Note_off_c, 9, 42, 69
10, 61060, Note_off_c, 9, 40, 100
10, 61060, Note_off_c, 9, 35, 127
10, 61248, Note_on_c, 9, 42, 55
10, 61252, Note_off_c, 9, 42, 55
10, 61344, Note_on_c, 9, 42, 40
10, 61348, Note_off_c, 9, 42, 40
10, 61440, Note_on_c, 9, 35, 127
10, 61440, Note_on_c, 9, 42, 62
10, 61444, Note_off_c, 9, 42, 62
10, 61444, Note_off_c, 9, 35, 127
10, 61536, Note_on_c, 9, 42, 42
10, 61540, Note_off_c, 9, 42, 42
10, 61632, Note_on_c, 9, 42, 50
10, 61636, Note_off_c, 9, 42, 50
10, 61728, Note_on_c, 9, 42, 53
10, 61732, Note_off_c, 9, 42, 53
10, 61824, Note_on_c, 9, 35, 127
10, 61824, Note_on_c, 9, 40, 100
10, 61824, Note_on_c, 9, 42, 69
10, 61828, Note_off_c, 9, 42, 69
10, 61828, Note_off_c, 9, 40, 100
10, 61828, Note_off_c, 9, 35, 127
10, 62016, Note_on_c, 9, 42, 61
10, 62020, Note_off_c, 9, 42, 61
10, 62112, Note_on_c, 9, 42, 46
10, 62116, Note_off_c, 9, 42, 46
10, 62208, Note_on_c, 9, 35, 127
10, 62208, Note_on_c, 9, 42, 58
10, 62212, Note_off_c, 9, 42, 58
10, 62212, Note_off_c, 9, 35, 127
10, 62400, Note_on_c, 9, 42, 60
10, 62404, Note_off_c, 9, 42, 60
10, 62496, Note_on_c, 9, 42, 43
10, 62500, Note_off_c, 9, 42, 43
10, 62592, Note_on_c, 9, 35, 127
10, 62592, Note_on_c, 9, 40, 100
10, 62592, Note_on_c, 9, 42, 69
10, 62596, Note_off_c, 9, 42, 69
10, 62596, Note_off_c, 9, 40, 100
10, 62596, Note_off_c, 9, 35, 127
10, 62784, Note_on_c, 9, 42, 65
10, 62788, Note_off_c, 9, 42, 65
10, 62880, Note_on_c, 9, 42, 34
10, 62884, Note_off_c, 9, 42, 34
10, 62976, Note_on_c, 9, 35, 127
10, 62976, Note_on_c, 9, 42, 64
10, 62980, Note_off_c, 9, 42, 64
10, 62980, Note_off_c, 9, 35, 127
10, 63072, Note_on_c, 9, 42, 47
10, 63076, Note_off_c, 9, 42, 47
10, 63168, Note_on_c, 9, 42, 62
10, 63172, Note_off_c, 9, 42, 62
10, 63264, Note_on_c, 9, 46, 55
10, 63268, Note_off_c, 9, 46, 55
10, 63360, Note_on_c, 9, 35, 127
10, 63360, Note_on_c, 9, 40, 100
10, 63364, Note_off_c, 9, 40, 100
10, 63364, Note_off_c, 9, 35, 127
10, 63456, Note_on_c, 9, 42, 47
10, 63460, Note_off_c, 9, 42, 47
10, 63552, Note_on_c, 9, 46, 51
10, 63556, Note_off_c, 9, 46, 51
10, 63744, Note_on_c, 9, 35, 127
10, 63744, Note_on_c, 9, 57, 92
10, 63744, Note_on_c, 9, 42, 77
10, 63748, Note_off_c, 9, 42, 77
10, 63748, Note_off_c, 9, 57, 92
10, 63748, Note_off_c, 9, 35, 127
10, 63936, Note_on_c, 9, 42, 60
10, 63940, Note_off_c, 9, 42, 60
10, 64032, Note_on_c, 9, 42, 44
10, 64036, Note_off_c, 9, 42, 44
10, 64128, Note_on_c, 9, 35, 127
10, 64128, Note_on_c, 9, 40, 100
10, 64128, Note_on_c, 9, 42, 69
10, 64132, Note_off_c, 9, 42, 69
10, 64132, Note_off_c, 9, 40, 100
10, 64132, Note_off_c, 9, 35, 127
10, 64320, Note_on_c, 9, 42, 55
10, 64324, Note_off_c, 9, 42, 55
10, 64416, Note_on_c, 9, 42, 40
10, 64420, Note_off_c, 9, 42, 40
10, 64512, Note_on_c, 9, 35, 127
10, 64512, Note_on_c, 9, 42, 62
10, 64516, Note_off_c, 9, 42, 62
10, 64516, Note_off_c, 9, 35, 127
10, 64608, Note_on_c, 9, 42, 42
10, 64612, Note_off_c, 9, 42, 42
10, 64704, Note_on_c, 9, 42, 50
10, 64708, Note_off_c, 9, 42, 50
10, 64800, Note_on_c, 9, 42, 53
10, 64804, Note_off_c, 9, 42, 53
10, 64896, Note_on_c, 9, 35, 127
10, 64896, Note_on_c, 9, 40, 100
10, 64896, Note_on_c, 9, 42, 69
10, 64900, Note_off_c, 9, 42, 69
10, 64900, Note_off_c, 9, 40, 100
10, 64900, Note_off_c, 9, 35, 127
10, 65088, Note_on_c, 9, 42, 61
10, 65092, Note_off_c, 9, 42, 61
10, 65184, Note_on_c, 9, 42, 46
10, 65188, Note_off_c, 9, 42, 46
10, 65280, Note_on_c, 9, 35, 127
10, 65280, Note_on_c, 9, 42, 58
10, 65284, Note_off_c, 9, 42, 58
10, 65284, Note_off_c, 9, 35, 127
10, 65472, Note_on_c, 9, 42, 60
10, 65476, Note_off_c, 9, 42, 60
10, 65568, Note_on_c, 9, 42, 43
10, 65572, Note_off_c, 9, 42, 43
10, 65664, Note_on_c, 9, 35, 127
10, 65664, Note_on_c, 9, 40, 100
10, 65664, Note_on_c, 9, 42, 69
10, 65668, Note_off_c, 9, 42, 69
10, 65668, Note_off_c, 9, 40, 100
10, 65668, Note_off_c, 9, 35, 127
10, 65856, Note_on_c, 9, 42, 65
10, 65860, Note_off_c, 9, 42, 65
10, 65952, Note_on_c, 9, 42, 34
10, 65956, Note_off_c, 9, 42, 34
10, 66048, Note_on_c, 9, 35, 127
10, 66048, Note_on_c, 9, 42, 64
10, 66052, Note_off_c, 9, 42, 64
10, 66052, Note_off_c, 9, 35, 127
10, 66144, Note_on_c, 9, 42, 47
10, 66148, Note_off_c, 9, 42, 47
10, 66240, Note_on_c, 9, 42, 62
10, 66244, Note_off_c, 9, 42, 62
10, 66336, Note_on_c, 9, 42, 55
10, 66340, Note_off_c, 9, 42, 55
10, 66432, Note_on_c, 9, 35, 127
10, 66432, Note_on_c, 9, 40, 100
10, 66432, Note_on_c, 9, 42, 70
10, 66436, Note_off_c, 9, 42, 70
10, 66436, Note_off_c, 9, 40, 100
10, 66436, Note_off_c, 9, 35, 127
10, 66624, Note_on_c, 9, 42, 51
10, 66628, Note_off_c, 9, 42, 51
10, 66720, Note_on_c, 9, 42, 52
10, 66724, Note_off_c, 9, 42, 52
10, 66816, Note_on_c, 9, 35, 127
10, 66816, Note_on_c, 9, 42, 77
10, 66820, Note_off_c, 9, 42, 77
10, 66820, Note_off_c, 9, 35, 127
10, 67008, Note_on_c, 9, 42, 60
10, 67012, Note_off_c, 9, 42, 60
10, 67104, Note_on_c, 9, 42, 44
10, 67108, Note_off_c, 9, 42, 44
10, 67200, Note_on_c, 9, 35, 127
10, 67200, Note_on_c, 9, 40, 100
10, 67200, Note_on_c, 9, 42, 69
10, 67204, Note_off_c, 9, 42, 69
10, 67204, Note_off_c, 9, 40, 100
10, 67204, Note_off_c, 9, 35, 127
10, 67392, Note_on_c, 9, 42, 55
10, 67396, Note_off_c, 9, 42, 55
10, 67488, Note_on_c, 9, 42, 40
10, 67492, Note_off_c, 9, 42, 40
10, 67584, Note_on_c, 9, 35, 127
10, 67584, Note_on_c, 9, 42, 62
10, 67588, Note_off_c, 9, 42, 62
10, 67588, Note_off_c, 9, 35, 127
10, 67680, Note_on_c, 9, 42, 42
10, 67684, Note_off_c, 9, 42, 42
10, 67776, Note_on_c, 9, 42, 50
10, 67780, Note_off_c, 9, 42, 50
10, 67872, Note_on_c, 9, 42, 53
10, 67876, Note_off_c, 9, 42, 53
10, 67968, Note_on_c, 9, 35, 127
10, 67968, Note_on_c, 9, 40, 100
10, 67968, Note_on_c, 9, 42, 69
10, 67972, Note_off_c, 9, 42, 69
10, 67972, Note_off_c, 9, 40, 100
10, 67972, Note_off_c, 9, 35, 127
10, 68160, Note_on_c, 9, 42, 61
10, 68164, Note_off_c, 9, 42, 61
10, 68256, Note_on_c, 9, 42, 46
10, 68260, Note_off_c, 9, 42, 46
10, 68352, Note_on_c, 9, 35, 127
10, 68352, Note_on_c, 9, 42, 58
10, 68356, Note_off_c, 9, 42, 58
10, 68356, Note_off_c, 9, 35, 127
10, 68544, Note_on_c, 9, 42, 60
10, 68548, Note_off_c, 9, 42, 60
10, 68640, Note_on_c, 9, 42, 43
10, 68644, Note_off_c, 9, 42, 43
10, 68736, Note_on_c, 9, 35, 127
10, 68736, Note_on_c, 9, 40, 100
10, 68736, Note_on_c, 9, 42, 69
10, 68740, Note_off_c, 9, 42, 69
10, 68740, Note_off_c, 9, 40, 100
10, 68740, Note_off_c, 9, 35, 127
10, 68928, Note_on_c, 9, 42, 65
10, 68932, Note_off_c, 9, 42, 65
10, 69024, Note_on_c, 9, 42, 34
10, 69028, Note_off_c, 9, 42, 34
10, 69120, Note_on_c, 9, 35, 127
10, 69120, Note_on_c, 9, 42, 64
10, 69124, Note_off_c, 9, 42, 64
10, 69124, Note_off_c, 9, 35, 127
10, 69216, Note_on_c, 9, 42, 47
10, 69220, Note_off_c, 9, 42, 47
10, 69312, Note_on_c, 9, 42, 62
10, 69316, Note_off_c, 9, 42, 62
10, 69408, Note_on_c, 9, 42, 55
10, 69412, Note_off_c, 9, 42, 55
10, 69504, Note_on_c, 9, 35, 127
10, 69504, Note_on_c, 9, 40, 100
10, 69504, Note_on_c, 9, 42, 70
10, 69508, Note_off_c, 9, 42, 70
10, 69508, Note_off_c, 9, 40, 100
10, 69508, Note_off_c, 9, 35, 127
10, 69696, Note_on_c, 9, 42, 51
10, 69700, Note_off_c, 9, 42, 51
10, 69792, Note_on_c, 9, 42, 52
10, 69796, Note_off_c, 9, 42, 52
10, 69888, Note_on_c, 9, 35, 127
10, 69888, Note_on_c, 9, 42, 77
10, 69892, Note_off_c, 9, 42, 77
10, 69892, Note_off_c, 9, 35, 127
10, 70080, Note_on_c, 9, 42, 60
10, 70084, Note_off_c, 9, 42, 60
10, 70176, Note_on_c, 9, 42, 44
10, 70180, Note_off_c, 9, 42, 44
10, 70272, Note_on_c, 9, 35, 127
10, 70272, Note_on_c, 9, 40, 100
10, 70272, Note_on_c, 9, 42, 69
10, 70276, Note_off_c, 9, 42, 69
10, 70276, Note_off_c, 9, 40, 100
10, 70276, Note_off_c, 9, 35, 127
10, 70464, Note_on_c, 9, 42, 55
10, 70468, Note_off_c, 9, 42, 55
10, 70560, Note_on_c, 9, 42, 40
10, 70564, Note_off_c, 9, 42, 40
10, 70656, Note_on_c, 9, 35, 127
10, 70656, Note_on_c, 9, 42, 62
10, 70660, Note_off_c, 9, 42, 62
10, 70660, Note_off_c, 9, 35, 127
10, 70752, Note_on_c, 9, 42, 42
10, 70756, Note_off_c, 9, 42, 42
10, 70848, Note_on_c, 9, 42, 50
10, 70852, Note_off_c, 9, 42, 50
10, 70944, Note_on_c, 9, 42, 53
10, 70948, Note_off_c, 9, 42, 53
10, 71040, Note_on_c, 9, 35, 127
10, 71040, Note_on_c, 9, 40, 100
10, 71040, Note_on_c, 9, 42, 69
10, 71044, Note_off_c, 9, 42, 69
10, 71044, Note_off_c, 9, 40, 100
10, 71044, Note_off_c, 9, 35, 127
10, 71232, Note_on_c, 9, 42, 61
10, 71236, Note_off_c, 9, 42, 61
10, 71328, Note_on_c, 9, 42, 46
10, 71332, Note_off_c, 9, 42, 46
10, 71424, Note_on_c, 9, 35, 127
10, 71424, Note_on_c, 9, 42, 58
10, 71428, Note_off_c, 9, 42, 58
10, 71428, Note_off_c, 9, 35, 127
10, 71616, Note_on_c, 9, 42, 60
10, 71620, Note_off_c, 9, 42, 60
10, 71712, Note_on_c, 9, 42, 43
10, 71716, Note_off_c, 9, 42, 43
10, 71808, Note_on_c, 9, 35, 127
10, 71808, Note_on_c, 9, 40, 100
10, 71808, Note_on_c, 9, 42, 69
10, 71812, Note_off_c, 9, 42, 69
10, 71812, Note_off_c, 9, 40, 100
10, 71812, Note_off_c, 9, 35, 127
10, 72000, Note_on_c, 9, 42, 65
10, 72004, Note_off_c, 9, 42, 65
10, 72096, Note_on_c, 9, 42, 34
10, 72100, Note_off_c, 9, 42, 34
10, 72192, Note_on_c, 9, 35, 127
10, 72192, Note_on_c, 9, 42, 64
10, 72196, Note_off_c, 9, 42, 64
10, 72196, Note_off_c, 9, 35, 127
10, 72288, Note_on_c, 9, 42, 47
10, 72292, Note_off_c, 9, 42, 47
10, 72384, Note_on_c, 9, 42, 62
10, 72388, Note_off_c, 9, 42, 62
10, 72480, Note_on_c, 9, 42, 55
10, 72484, Note_off_c, 9, 42, 55
10, 72576, Note_on_c, 9, 35, 127
10, 72576, Note_on_c, 9, 40, 100
10, 72576, Note_on_c, 9, 42, 70
10, 72580, Note_off_c, 9, 42, 70
10, 72580, Note_off_c, 9, 40, 100
10, 72580, Note_off_c, 9, 35, 127
10, 72768, Note_on_c, 9, 42, 51
10, 72772, Note_off_c, 9, 42, 51
10, 72864, Note_on_c, 9, 42, 52
10, 72868, Note_off_c, 9, 42, 52
10, 72960, Note_on_c, 9, 35, 127
10, 72960, Note_on_c, 9, 42, 77
10, 72964, Note_off_c, 9, 42, 77
10, 72964, Note_off_c, 9, 35, 127
10, 73152, Note_on_c, 9, 42, 60
10, 73156, Note_off_c, 9, 42, 60
10, 73248, Note_on_c, 9, 42, 44
10, 73252, Note_off_c, 9, 42, 44
10, 73344, Note_on_c, 9, 35, 127
10, 73344, Note_on_c, 9, 40, 100
10, 73344, Note_on_c, 9, 42, 69
10, 73348, Note_off_c, 9, 42, 69
10, 73348, Note_off_c, 9, 40, 100
10, 73348, Note_off_c, 9, 35, 127
10, 73536, Note_on_c, 9, 42, 55
10, 73540, Note_off_c, 9, 42, 55
10, 73632, Note_on_c, 9, 42, 40
10, 73636, Note_off_c, 9, 42, 40
10, 73728, Note_on_c, 9, 35, 127
10, 73728, Note_on_c, 9, 42, 62
10, 73732, Note_off_c, 9, 42, 62
10, 73732, Note_off_c, 9, 35, 127
10, 73824, Note_on_c, 9, 42, 42
10, 73828, Note_off_c, 9, 42, 42
10, 73920, Note_on_c, 9, 42, 50
10, 73924, Note_off_c, 9, 42, 50
10, 74016, Note_on_c, 9, 42, 53
10, 74020, Note_off_c, 9, 42, 53
10, 74112, Note_on_c, 9, 35, 127
10, 74112, Note_on_c, 9, 40, 100
10, 74112, Note_on_c, 9, 42, 69
10, 74116, Note_off_c, 9, 42, 69
10, 74116, Note_off_c, 9, 40, 100
10, 74116, Note_off_c, 9, 35, 127
10, 74304, Note_on_c, 9, 42, 61
10, 74308, Note_off_c, 9, 42, 61
10, 74400, Note_on_c, 9, 42, 46
10, 74404, Note_off_c, 9, 42, 46
10, 74496, Note_on_c, 9, 35, 127
10, 74496, Note_on_c, 9, 42, 58
10, 74500, Note_off_c, 9, 42, 58
10, 74500, Note_off_c, 9, 35, 127
10, 74688, Note_on_c, 9, 42, 60
10, 74692, Note_off_c, 9, 42, 60
10, 74784, Note_on_c, 9, 42, 43
10, 74788, Note_off_c, 9, 42, 43
10, 74880, Note_on_c, 9, 35, 127
10, 74880, Note_on_c, 9, 40, 100
10, 74880, Note_on_c, 9, 42, 69
10, 74884, Note_off_c, 9, 42, 69
10, 74884, Note_off_c, 9, 40, 100
10, 74884, Note_off_c, 9, 35, 127
10, 75072, Note_on_c, 9, 42, 65
10, 75076, Note_off_c, 9, 42, 65
10, 75168, Note_on_c, 9, 42, 34
10, 75172, Note_off_c, 9, 42, 34
10, 75264, Note_on_c, 9, 35, 127
10, 75264, Note_on_c, 9, 42, 64
10, 75268, Note_off_c, 9, 42, 64
10, 75268, Note_off_c, 9, 35, 127
10, 75360, Note_on_c, 9, 42, 47
10, 75364, Note_off_c, 9, 42, 47
10, 75456, Note_on_c, 9, 42, 62
10, 75460, Note_off_c, 9, 42, 62
10, 75552, Note_on_c, 9, 42, 55
10, 75556, Note_off_c, 9, 42, 55
10, 75648, Note_on_c, 9, 35, 127
10, 75648, Note_on_c, 9, 40, 100
10, 75648, Note_on_c, 9, 42, 70
10, 75652, Note_off_c, 9, 42, 70
10, 75652, Note_off_c, 9, 40, 100
10, 75652, Note_off_c, 9, 35, 127
10, 75840, Note_on_c, 9, 42, 51
10, 75844, Note_off_c, 9, 42, 51
10, 75936, Note_on_c, 9, 42, 52
10, 75940, Note_off_c, 9, 42, 52
10, 76032, Note_on_c, 9, 35, 127
10, 76032, Note_on_c, 9, 42, 77
10, 76036, Note_off_c, 9, 42, 77
10, 76036, Note_off_c, 9, 35, 127
10, 76224, Note_on_c, 9, 42, 60
10, 76228, Note_off_c, 9, 42, 60
10, 76320, Note_on_c, 9, 42, 44
10, 76324, Note_off_c, 9, 42, 44
10, 76416, Note_on_c, 9, 35, 127
10, 76416, Note_on_c, 9, 40, 100
10, 76416, Note_on_c, 9, 42, 69
10, 76420, Note_off_c, 9, 42, 69
10, 76420, Note_off_c, 9, 40, 100
10, 76420, Note_off_c, 9, 35, 127
10, 76608, Note_on_c, 9, 42, 55
10, 76612, Note_off_c, 9, 42, 55
10, 76704, Note_on_c, 9, 42, 40
10, 76708, Note_off_c, 9, 42, 40
10, 76800, Note_on_c, 9, 35, 127
10, 76800, Note_on_c, 9, 42, 62
10, 76804, Note_off_c, 9, 42, 62
10, 76804, Note_off_c, 9, 35, 127
10, 76896, Note_on_c, 9, 42, 42
10, 76900, Note_off_c, 9, 42, 42
10, 76992, Note_on_c, 9, 42, 50
10, 76996, Note_off_c, 9, 42, 50
10, 77088, Note_on_c, 9, 42, 53
10, 77092, Note_off_c, 9, 42, 53
10, 77184, Note_on_c, 9, 35, 127
10, 77184, Note_on_c, 9, 40, 100
10, 77184, Note_on_c, 9, 42, 69
10, 77188, Note_off_c, 9, 42, 69
10, 77188, Note_off_c, 9, 40, 100
10, 77188, Note_off_c, 9, 35, 127
10, 77376, Note_on_c, 9, 42, 61
10, 77380, Note_off_c, 9, 42, 61
10, 77472, Note_on_c, 9, 42, 46
10, 77476, Note_off_c, 9, 42, 46
10, 77568, Note_on_c, 9, 35, 127
10, 77568, Note_on_c, 9, 42, 58
10, 77572, Note_off_c, 9, 42, 58
10, 77572, Note_off_c, 9, 35, 127
10, 77760, Note_on_c, 9, 42, 60
10, 77764, Note_off_c, 9, 42, 60
10, 77856, Note_on_c, 9, 42, 43
10, 77860, Note_off_c, 9, 42, 43
10, 77952, Note_on_c, 9, 35, 127
10, 77952, Note_on_c, 9, 40, 100
10, 77952, Note_on_c, 9, 42, 69
10, 77956, Note_off_c, 9, 42, 69
10, 77956, Note_off_c, 9, 40, 100
10, 77956, Note_off_c, 9, 35, 127
10, 78144, Note_on_c, 9, 42, 65
10, 78148, Note_off_c, 9, 42, 65
10, 78240, Note_on_c, 9, 42, 34
10, 78244, Note_off_c, 9, 42, 34
10, 78336, Note_on_c, 9, 35, 127
10, 78336, Note_on_c, 9, 42, 64
10, 78340, Note_off_c, 9, 42, 64
10, 78340, Note_off_c, 9, 35, 127
10, 78432, Note_on_c, 9, 42, 47
10, 78436, Note_off_c, 9, 42, 47
10, 78528, Note_on_c, 9, 42, 62
10, 78532, Note_off_c, 9, 42, 62
10, 78624, Note_on_c, 9, 42, 55
10, 78628, Note_off_c, 9, 42, 55
10, 78720, Note_on_c, 9, 35, 127
10, 78720, Note_on_c, 9, 40, 100
10, 78720, Note_on_c, 9, 42, 70
10, 78724, Note_off_c, 9, 42, 70
10, 78724, Note_off_c, 9, 40, 100
10, 78724, Note_off_c, 9, 35, 127
10, 78912, Note_on_c, 9, 42, 51
10, 78916, Note_off_c, 9, 42, 51
10, 79008, Note_on_c, 9, 42, 52
10, 79012, Note_off_c, 9, 42, 52
10, 79104, Note_on_c, 9, 35, 127
10, 79104, Note_on_c, 9, 42, 77
10, 79108, Note_off_c, 9, 42, 77
10, 79108, Note_off_c, 9, 35, 127
10, 79296, Note_on_c, 9, 42, 60
10, 79300, Note_off_c, 9, 42, 60
10, 79392, Note_on_c, 9, 42, 44
10, 79396, Note_off_c, 9, 42, 44
10, 79488, Note_on_c, 9, 35, 127
10, 79488, Note_on_c, 9, 40, 100
10, 79488, Note_on_c, 9, 42, 69
10, 79492, Note_off_c, 9, 42, 69
10, 79492, Note_off_c, 9, 40, 100
10, 79492, Note_off_c, 9, 35, 127
10, 79680, Note_on_c, 9, 42, 55
10, 79684, Note_off_c, 9, 42, 55
10, 79776, Note_on_c, 9, 42, 40
10, 79780, Note_off_c, 9, 42, 40
10, 79872, Note_on_c, 9, 35, 127
10, 79872, Note_on_c, 9, 42, 62
10, 79876, Note_off_c, 9, 42, 62
10, 79876, Note_off_c, 9, 35, 127
10, 79968, Note_on_c, 9, 42, 42
10, 79972, Note_off_c, 9, 42, 42
10, 80064, Note_on_c, 9, 42, 50
10, 80068, Note_off_c, 9, 42, 50
10, 80160, Note_on_c, 9, 42, 53
10, 80164, Note_off_c, 9, 42, 53
10, 80256, Note_on_c, 9, 35, 127
10, 80256, Note_on_c, 9, 40, 100
10, 80256, Note_on_c, 9, 42, 69
10, 80260, Note_off_c, 9, 42, 69
10, 80260, Note_off_c, 9, 40, 100
10, 80260, Note_off_c, 9, 35, 127
10, 80448, Note_on_c, 9, 42, 61
10, 80452, Note_off_c, 9, 42, 61
10, 80544, Note_on_c, 9, 42, 46
10, 80548, Note_off_c, 9, 42, 46
10, 80640, Note_on_c, 9, 35, 127
10, 80640, Note_on_c, 9, 42, 58
10, 80644, Note_off_c, 9, 42, 58
10, 80644, Note_off_c, 9, 35, 127
10, 80832, Note_on_c, 9, 42, 60
10, 80836, Note_off_c, 9, 42, 60
10, 80928, Note_on_c, 9, 42, 43
10, 80932, Note_off_c, 9, 42, 43
10, 81024, Note_on_c, 9, 35, 127
10, 81024, Note_on_c, 9, 40, 100
10, 81024, Note_on_c, 9, 42, 69
10, 81028, Note_off_c, 9, 42, 69
10, 81028, Note_off_c, 9, 40, 100
10, 81028, Note_off_c, 9, 35, 127
10, 81216, Note_on_c, 9, 42, 65
10, 81220, Note_off_c, 9, 42, 65
10, 81312, Note_on_c, 9, 42, 34
10, 81316, Note_off_c, 9, 42, 34
10, 81408, Note_on_c, 9, 35, 127
10, 81408, Note_on_c, 9, 42, 64
10, 81412, Note_off_c, 9, 42, 64
10, 81412, Note_off_c, 9, 35, 127
10, 81504, Note_on_c, 9, 42, 47
10, 81508, Note_off_c, 9, 42, 47
10, 81600, Note_on_c, 9, 42, 62
10, 81604, Note_off_c, 9, 42, 62
10, 81696, Note_on_c, 9, 42, 55
10, 81700, Note_off_c, 9, 42, 55
10, 81792, Note_on_c, 9, 35, 127
10, 81792, Note_on_c, 9, 40, 100
10, 81792, Note_on_c, 9, 42, 70
10, 81796, Note_off_c, 9, 42, 70
10, 81796, Note_off_c, 9, 40, 100
10, 81796, Note_off_c, 9, 35, 127
10, 81984, Note_on_c, 9, 42, 51
10, 81988, Note_off_c, 9, 42, 51
10, 82080, Note_on_c, 9, 42, 52
10, 82084, Note_off_c, 9, 42, 52
10, 82176, Note_on_c, 9, 35, 127
10, 82176, Note_on_c, 9, 42, 77
10, 82180, Note_off_c, 9, 42, 77
10, 82180, Note_off_c, 9, 35, 127
10, 82368, Note_on_c, 9, 42, 60
10, 82372, Note_off_c, 9, 42, 60
10, 82464, Note_on_c, 9, 42, 44
10, 82468, Note_off_c, 9, 42, 44
10, 82560, Note_on_c, 9, 35, 127
10, 82560, Note_on_c, 9, 40, 100
10, 82560, Note_on_c, 9, 42, 69
10, 82564, Note_off_c, 9, 42, 69
10, 82564, Note_off_c, 9, 40, 100
10, 82564, Note_off_c, 9, 35, 127
10, 82752, Note_on_c, 9, 42, 55
10, 82756, Note_off_c, 9, 42, 55
10, 82848, Note_on_c, 9, 42, 40
10, 82852, Note_off_c, 9, 42, 40
10, 82944, Note_on_c, 9, 35, 127
10, 82944, Note_on_c, 9, 42, 62
10, 82948, Note_off_c, 9, 42, 62
10, 82948, Note_off_c, 9, 35, 127
10, 83040, Note_on_c, 9, 42, 42
10, 83044, Note_off_c, 9, 42, 42
10, 83136, Note_on_c, 9, 42, 50
10, 83140, Note_off_c, 9, 42, 50
10, 83232, Note_on_c, 9, 42, 53
10, 83236, Note_off_c, 9, 42, 53
10, 83328, Note_on_c, 9, 35, 127
10, 83328, Note_on_c, 9, 40, 100
10, 83328, Note_on_c, 9, 42, 69
10, 83332, Note_off_c, 9, 42, 69
10, 83332, Note_off_c, 9, 40, 100
10, 83332, Note_off_c, 9, 35, 127
10, 83520, Note_on_c, 9, 42, 61
10, 83524, Note_off_c, 9, 42, 61
10, 83616, Note_on_c, 9, 42, 46
10, 83620, Note_off_c, 9, 42, 46
10, 83712, Note_on_c, 9, 35, 127
10, 83712, Note_on_c, 9, 42, 58
10, 83716, Note_off_c, 9, 42, 58
10, 83716, Note_off_c, 9, 35, 127
10, 83904, Note_on_c, 9, 42, 60
10, 83908, Note_off_c, 9, 42, 60
10, 84000, Note_on_c, 9, 42, 43
10, 84004, Note_off_c, 9, 42, 43
10, 84096, Note_on_c, 9, 35, 127
10, 84096, Note_on_c, 9, 40, 100
10, 84096, Note_on_c, 9, 42, 69
10, 84100, Note_off_c, 9, 42, 69
10, 84100, Note_off_c, 9, 40, 100
10, 84100, Note_off_c, 9, 35, 127
10, 84288, Note_on_c, 9, 42, 65
10, 84292, Note_off_c, 9, 42, 65
10, 84384, Note_on_c, 9, 42, 34
10, 84388, Note_off_c, 9, 42, 34
10, 84480, Note_on_c, 9, 35, 127
10, 84480, Note_on_c, 9, 42, 64
10, 84484, Note_off_c, 9, 42, 64
10, 84484, Note_off_c, 9, 35, 127
10, 84576, Note_on_c, 9, 42, 47
10, 84580, Note_off_c, 9, 42, 47
10, 84672, Note_on_c, 9, 42, 62
10, 84676, Note_off_c, 9, 42, 62
10, 84768, Note_on_c, 9, 42, 55
10, 84772, Note_off_c, 9, 42, 55
10, 84864, Note_on_c, 9, 35, 127
10, 84864, Note_on_c, 9, 40, 100
10, 84864, Note_on_c, 9, 42, 70
10, 84868, Note_off_c, 9, 42, 70
10, 84868, Note_off_c, 9, 40, 100
10, 84868, Note_off_c, 9, 35, 127
10, 85056, Note_on_c, 9, 42, 51
10, 85060, Note_off_c, 9, 42, 51
10, 85152, Note_on_c, 9, 42, 52
10, 85156, Note_off_c, 9, 42, 52
10, 85248, Note_on_c, 9, 35, 127
10, 85248, Note_on_c, 9, 42, 77
10, 85252, Note_off_c, 9, 42, 77
10, 85252, Note_off_c, 9, 35, 127
10, 85440, Note_on_c, 9, 42, 60
10, 85444, Note_off_c, 9, 42, 60
10, 85536, Note_on_c, 9, 42, 44
10, 85540, Note_off_c, 9, 42, 44
10, 85632, Note_on_c, 9, 35, 127
10, 85632, Note_on_c, 9, 40, 100
10, 85632, Note_on_c, 9, 42, 69
10, 85636, Note_off_c, 9, 42, 69
10, 85636, Note_off_c, 9, 40, 100
10, 85636, Note_off_c, 9, 35, 127
10, 85824, Note_on_c, 9, 42, 55
10, 85828, Note_off_c, 9, 42, 55
10, 85920, Note_on_c, 9, 42, 40
10, 85924, Note_off_c, 9, 42, 40
10, 86016, Note_on_c, 9, 35, 127
10, 86016, Note_on_c, 9, 42, 62
10, 86020, Note_off_c, 9, 42, 62
10, 86020, Note_off_c, 9, 35, 127
10, 86112, Note_on_c, 9, 42, 42
10, 86116, Note_off_c, 9, 42, 42
10, 86208, Note_on_c, 9, 42, 50
10, 86212, Note_off_c, 9, 42, 50
10, 86304, Note_on_c, 9, 42, 53
10, 86308, Note_off_c, 9, 42, 53
10, 86400, Note_on_c, 9, 35, 127
10, 86400, Note_on_c, 9, 40, 100
10, 86400, Note_on_c, 9, 42, 69
10, 86404, Note_off_c, 9, 42, 69
10, 86404, Note_off_c, 9, 40, 100
10, 86404, Note_off_c, 9, 35, 127
10, 86592, Note_on_c, 9, 42, 61
10, 86596, Note_off_c, 9, 42, 61
10, 86688, Note_on_c, 9, 42, 46
10, 86692, Note_off_c, 9, 42, 46
10, 86784, Note_on_c, 9, 35, 127
10, 86784, Note_on_c, 9, 42, 58
10, 86788, Note_off_c, 9, 42, 58
10, 86788, Note_off_c, 9, 35, 127
10, 86976, Note_on_c, 9, 42, 60
10, 86980, Note_off_c, 9, 42, 60
10, 87072, Note_on_c, 9, 42, 43
10, 87076, Note_off_c, 9, 42, 43
10, 87168, Note_on_c, 9, 35, 127
10, 87168, Note_on_c, 9, 40, 100
10, 87168, Note_on_c, 9, 42, 69
10, 87172, Note_off_c, 9, 42, 69
10, 87172, Note_off_c, 9, 40, 100
10, 87172, Note_off_c, 9, 35, 127
10, 87360, Note_on_c, 9, 42, 65
10, 87364, Note_off_c, 9, 42, 65
10, 87456, Note_on_c, 9, 42, 34
10, 87460, Note_off_c, 9, 42, 34
10, 87552, Note_on_c, 9, 35, 127
10, 87552, Note_on_c, 9, 42, 64
10, 87556, Note_off_c, 9, 42, 64
10, 87556, Note_off_c, 9, 35, 127
10, 87648, Note_on_c, 9, 42, 47
10, 87652, Note_off_c, 9, 42, 47
10, 87744, Note_on_c, 9, 42, 62
10, 87748, Note_off_c, 9, 42, 62
10, 87840, Note_on_c, 9, 42, 55
10, 87844, Note_off_c, 9, 42, 55
10, 87936, Note_on_c, 9, 35, 127
10, 87936, Note_on_c, 9, 40, 100
10, 87936, Note_on_c, 9, 42, 70
10, 87940, Note_off_c, 9, 42, 70
10, 87940, Note_off_c, 9, 40, 100
10, 87940, Note_off_c, 9, 35, 127
10, 88128, Note_on_c, 9, 42, 51
10, 88132, Note_off_c, 9, 42, 51
10, 88224, Note_on_c, 9, 42, 52
10, 88228, Note_off_c, 9, 42, 52
10, 88320, Note_on_c, 9, 35, 127
10, 88320, Note_on_c, 9, 42, 77
10, 88324, Note_off_c, 9, 42, 77
10, 88324, Note_off_c, 9, 35, 127
10, 88512, Note_on_c, 9, 42, 60
10, 88516, Note_off_c, 9, 42, 60
10, 88608, Note_on_c, 9, 42, 44
10, 88612, Note_off_c, 9, 42, 44
10, 88704, Note_on_c, 9, 35, 127
10, 88704, Note_on_c, 9, 40, 100
10, 88704, Note_on_c, 9, 42, 69
10, 88708, Note_off_c, 9, 42, 69
10, 88708, Note_off_c, 9, 40, 100
10, 88708, Note_off_c, 9, 35, 127
10, 88896, Note_on_c, 9, 42, 55
10, 88900, Note_off_c, 9, 42, 55
10, 88992, Note_on_c, 9, 42, 40
10, 88996, Note_off_c, 9, 42, 40
10, 89088, Note_on_c, 9, 35, 127
10, 89088, Note_on_c, 9, 42, 62
10, 89092, Note_off_c, 9, 42, 62
10, 89092, Note_off_c, 9, 35, 127
10, 89184, Note_on_c, 9, 42, 42
10, 89188, Note_off_c, 9, 42, 42
10, 89280, Note_on_c, 9, 42, 50
10, 89284, Note_off_c, 9, 42, 50
10, 89376, Note_on_c, 9, 42, 53
10, 89380, Note_off_c, 9, 42, 53
10, 89472, Note_on_c, 9, 35, 127
10, 89472, Note_on_c, 9, 40, 100
10, 89472, Note_on_c, 9, 42, 69
10, 89476, Note_off_c, 9, 42, 69
10, 89476, Note_off_c, 9, 40, 100
10, 89476, Note_off_c, 9, 35, 127
10, 89664, Note_on_c, 9, 42, 61
10, 89668, Note_off_c, 9, 42, 61
10, 89760, Note_on_c, 9, 42, 46
10, 89764, Note_off_c, 9, 42, 46
10, 89856, Note_on_c, 9, 35, 127
10, 89856, Note_on_c, 9, 42, 58
10, 89860, Note_off_c, 9, 42, 58
10, 89860, Note_off_c, 9, 35, 127
10, 90048, Note_on_c, 9, 42, 60
10, 90052, Note_off_c, 9, 42, 60
10, 90144, Note_on_c, 9, 42, 43
10, 90148, Note_off_c, 9, 42, 43
10, 90240, Note_on_c, 9, 35, 127
10, 90240, Note_on_c, 9, 40, 100
10, 90240, Note_on_c, 9, 42, 69
10, 90244, Note_off_c, 9, 42, 69
10, 90244, Note_off_c, 9, 40, 100
10, 90244, Note_off_c, 9, 35, 127
10, 90432, Note_on_c, 9, 42, 65
10, 90436, Note_off_c, 9, 42, 65
10, 90528, Note_on_c, 9, 42, 34
10, 90532, Note_off_c, 9, 42, 34
10, 90624, Note_on_c, 9, 35, 127
10, 90624, Note_on_c, 9, 42, 64
10, 90628, Note_off_c, 9, 42, 64
10, 90628, Note_off_c, 9, 35, 127
10, 90720, Note_on_c, 9, 42, 47
10, 90724, Note_off_c, 9, 42, 47
10, 90816, Note_on_c, 9, 42, 62
10, 90820, Note_off_c, 9, 42, 62
10, 90912, Note_on_c, 9, 42, 55
10, 90916, Note_off_c, 9, 42, 55
10, 91008, Note_on_c, 9, 35, 127
10, 91008, Note_on_c, 9, 40, 100
10, 91008, Note_on_c, 9, 42, 70
10, 91012, Note_off_c, 9, 42, 70
10, 91012, Note_off_c, 9, 40, 100
10, 91012, Note_off_c, 9, 35, 127
10, 91200, Note_on_c, 9, 42, 51
10, 91204, Note_off_c, 9, 42, 51
10, 91296, Note_on_c, 9, 42, 52
10, 91300, Note_off_c, 9, 42, 52
10, 91392, Note_on_c, 9, 35, 127
10, 91392, Note_on_c, 9, 40, 36
10, 91392, Note_on_c, 9, 44, 52
10, 91396, Note_off_c, 9, 44, 52
10, 91396, Note_off_c, 9, 40, 36
10, 91396, Note_off_c, 9, 35, 127
10, 91584, Note_on_c, 9, 40, 26
10, 91584, Note_on_c, 9, 44, 52
10, 91588, Note_off_c, 9, 44, 52
10, 91588, Note_off_c, 9, 40, 26
10, 91776, Note_on_c, 9, 35, 127
10, 91776, Note_on_c, 9, 40, 36
10, 91776, Note_on_c, 9, 44, 52
10, 91780, Note_off_c, 9, 44, 52
10, 91780, Note_off_c, 9, 40, 36
10, 91780, Note_off_c, 9, 35, 127
10, 91968, Note_on_c, 9, 40, 26
10, 91968, Note_on_c, 9, 44, 52
10, 91972, Note_off_c, 9, 44, 52
10, 91972, Note_off_c, 9, 40, 26
10, 92160, Note_on_c, 9, 35, 127
10, 92160, Note_on_c, 9, 40, 36
10, 92160, Note_on_c, 9, 44, 52
10, 92164, Note_off_c, 9, 44, 52
10, 92164, Note_off_c, 9, 40, 36
10, 92164, Note_off_c, 9, 35, 127
10, 92352, Note_on_c, 9, 40, 26
10, 92352, Note_on_c, 9, 44, 52
10, 92356, Note_off_c, 9, 44, 52
10, 92356, Note_off_c, 9, 40, 26
10, 92544, Note_on_c, 9, 35, 127
10, 92544, Note_on_c, 9, 40, 36
10, 92544, Note_on_c, 9, 44, 52
10, 92548, Note_off_c, 9, 44, 52
10, 92548, Note_off_c, 9, 40, 36
10, 92548, Note_off_c, 9, 35, 127
10, 92736, Note_on_c, 9, 40, 26
10, 92736, Note_on_c, 9, 44, 52
10, 92740, Note_off_c, 9, 44, 52
10, 92740, Note_off_c, 9, 40, 26
10, 92928, Note_on_c, 9, 35, 127
10, 92928, Note_on_c, 9, 40, 36
10, 92928, Note_on_c, 9, 44, 52
10, 92932, Note_off_c, 9, 44, 52
10, 92932, Note_off_c, 9, 40, 36
10, 92932, Note_off_c, 9, 35, 127
10, 93120, Note_on_c, 9, 40, 26
10, 93120, Note_on_c, 9, 44, 52
10, 93124, Note_off_c, 9, 44, 52
10, 93124, Note_off_c, 9, 40, 26
10, 93312, Note_on_c, 9, 35, 127
10, 93312, Note_on_c, 9, 40, 36
10, 93312, Note_on_c, 9, 44, 52
10, 93316, Note_off_c, 9, 44, 52
10, 93316, Note_off_c, 9, 40, 36
10, 93316, Note_off_c, 9, 35, 127
10, 93504, Note_on_c, 9, 40, 26
10, 93504, Note_on_c, 9, 44, 52
10, 93508, Note_off_c, 9, 44, 52
10, 93508, Note_off_c, 9, 40, 26
10, 93696, Note_on_c, 9, 35, 127
10, 93696, Note_on_c, 9, 40, 36
10, 93696, Note_on_c, 9, 44, 52
10, 93700, Note_off_c, 9, 44, 52
10, 93700, Note_off_c, 9, 40, 36
10, 93700, Note_off_c, 9, 35, 127
10, 93888, Note_on_c, 9, 40, 26
10, 93888, Note_on_c, 9, 44, 52
10, 93892, Note_off_c, 9, 44, 52
10, 93892, Note_off_c, 9, 40, 26
10, 94080, Note_on_c, 9, 35, 127
10, 94080, Note_on_c, 9, 40, 36
10, 94080, Note_on_c, 9, 44, 52
10, 94084, Note_off_c, 9, 44, 52
10, 94084, Note_off_c, 9, 40, 36
10, 94084, Note_off_c, 9, 35, 127
10, 94272, Note_on_c, 9, 40, 26
10, 94272, Note_on_c, 9, 44, 52
10, 94276, Note_off_c, 9, 44, 52
10, 94276, Note_off_c, 9, 40, 26
10, 94464, Note_on_c, 9, 35, 127
10, 94464, Note_on_c, 9, 40, 36
10, 94464, Note_on_c, 9, 44, 52
10, 94468, Note_off_c, 9, 44, 52
10, 94468, Note_off_c, 9, 40, 36
10, 94468, Note_off_c, 9, 35, 127
10, 94656, Note_on_c, 9, 40, 26
10, 94656, Note_on_c, 9, 44, 52
10, 94660, Note_off_c, 9, 44, 52
10, 94660, Note_off_c, 9, 40, 26
10, 94848, Note_on_c, 9, 35, 127
10, 94848, Note_on_c, 9, 40, 36
10, 94848, Note_on_c, 9, 44, 52
10, 94852, Note_off_c, 9, 44, 52
10, 94852, Note_off_c, 9, 40, 36
10, 94852, Note_off_c, 9, 35, 127
10, 95040, Note_on_c, 9, 40, 26
10, 95040, Note_on_c, 9, 44, 52
10, 95044, Note_off_c, 9, 44, 52
10, 95044, Note_off_c, 9, 40, 26
10, 95232, Note_on_c, 9, 35, 127
10, 95232, Note_on_c, 9, 40, 36
10, 95232, Note_on_c, 9, 44, 52
10, 95236, Note_off_c, 9, 44, 52
10, 95236, Note_off_c, 9, 40, 36
10, 95236, Note_off_c, 9, 35, 127
10, 95424, Note_on_c, 9, 40, 26
10, 95424, Note_on_c, 9, 44, 52
10, 95428, Note_off_c, 9, 44, 52
10, 95428, Note_off_c, 9, 40, 26
10, 95616, Note_on_c, 9, 35, 127
10, 95616, Note_on_c, 9, 40, 36
10, 95616, Note_on_c, 9, 44, 52
10, 95620, Note_off_c, 9, 44, 52
10, 95620, Note_off_c, 9, 40, 36
10, 95620, Note_off_c, 9, 35, 127
10, 95808, Note_on_c, 9, 40, 26
10, 95808, Note_on_c, 9, 44, 52
10, 95812, Note_off_c, 9, 44, 52
10, 95812, Note_off_c, 9, 40, 26
10, 96000, Note_on_c, 9, 35, 127
10, 96000, Note_on_c, 9, 40, 36
10, 96000, Note_on_c, 9, 44, 52
10, 96004, Note_off_c, 9, 44, 52
10, 96004, Note_off_c, 9, 40, 36
10, 96004, Note_off_c, 9, 35, 127
10, 96192, Note_on_c, 9, 40, 35
10, 96192, Note_on_c, 9, 44, 52
10, 96196, Note_off_c, 9, 44, 52
10, 96196, Note_off_c, 9, 40, 35
10, 96384, Note_on_c, 9, 35, 127
10, 96384, Note_on_c, 9, 40, 30
10, 96384, Note_on_c, 9, 44, 52
10, 96388, Note_off_c, 9, 44, 52
10, 96388, Note_off_c, 9, 40, 30
10, 96388, Note_off_c, 9, 35, 127
10, 96576, Note_on_c, 9, 40, 64
10, 96576, Note_on_c, 9, 44, 52
10, 96580, Note_off_c, 9, 44, 52
10, 96580, Note_off_c, 9, 40, 64
10, 96768, Note_on_c, 9, 35, 127
10, 96768, Note_on_c, 9, 40, 65
10, 96768, Note_on_c, 9, 44, 52
10, 96772, Note_off_c, 9, 44, 52
10, 96772, Note_off_c, 9, 40, 65
10, 96772, Note_off_c, 9, 35, 127
10, 96960, Note_on_c, 9, 40, 79
10, 96960, Note_on_c, 9, 44, 52
10, 96964, Note_off_c, 9, 44, 52
10, 96964, Note_off_c, 9, 40, 79
10, 97152, Note_on_c, 9, 35, 127
10, 97152, Note_on_c, 9, 40, 81
10, 97152, Note_on_c, 9, 44, 52
10, 97156, Note_off_c, 9, 44, 52
10, 97156, Note_off_c, 9, 40, 81
10, 97156, Note_off_c, 9, 35, 127
10, 97344, Note_on_c, 9, 40, 105
10, 97344, Note_on_c, 9, 44, 52
10, 97348, Note_off_c, 9, 44, 52
10, 97348, Note_off_c, 9, 40, 105
10, 97536, Note_on_c, 9, 35, 127
10, 97536, Note_on_c, 9, 57, 111
10, 97536, Note_on_c, 9, 42, 70
10, 97540, Note_off_c, 9, 42, 70
10, 97540, Note_off_c, 9, 57, 111
10, 97540, Note_off_c, 9, 35, 127
10, 97728, Note_on_c, 9, 42, 52
10, 97732, Note_off_c, 9, 42, 52
10, 97824, Note_on_c, 9, 42, 54
10, 97828, Note_off_c, 9, 42, 54
10, 97920, Note_on_c, 9, 35, 127
10, 97920, Note_on_c, 9, 40, 100
10, 97920, Note_on_c, 9, 42, 74
10, 97924, Note_off_c, 9, 42, 74
10, 97924, Note_off_c, 9, 40, 100
10, 97924, Note_off_c, 9, 35, 127
10, 98112, Note_on_c, 9, 42, 63
10, 98116, Note_off_c, 9, 42, 63
10, 98208, Note_on_c, 9, 42, 50
10, 98212, Note_off_c, 9, 42, 50
10, 98304, Note_on_c, 9, 35, 127
10, 98304, Note_on_c, 9, 42, 62
10, 98308, Note_off_c, 9, 42, 62
10, 98308, Note_off_c, 9, 35, 127
10, 98496, Note_on_c, 9, 42, 55
10, 98500, Note_off_c, 9, 42, 55
10, 98592, Note_on_c, 9, 42, 57
10, 98596, Note_off_c, 9, 42, 57
10, 98688, Note_on_c, 9, 35, 127
10, 98688, Note_on_c, 9, 40, 100
10, 98688, Note_on_c, 9, 42, 76
10, 98692, Note_off_c, 9, 42, 76
10, 98692, Note_off_c, 9, 40, 100
10, 98692, Note_off_c, 9, 35, 127
10, 98880, Note_on_c, 9, 42, 59
10, 98884, Note_off_c, 9, 42, 59
10, 98976, Note_on_c, 9, 42, 62
10, 98980, Note_off_c, 9, 42, 62
10, 99072, Note_on_c, 9, 35, 127
10, 99072, Note_on_c, 9, 42, 70
10, 99076, Note_off_c, 9, 42, 70
10, 99076, Note_off_c, 9, 35, 127
10, 99264, Note_on_c, 9, 42, 52
10, 99268, Note_off_c, 9, 42, 52
10, 99360, Note_on_c, 9, 42, 54
10, 99364, Note_off_c, 9, 42, 54
10, 99456, Note_on_c, 9, 35, 127
10, 99456, Note_on_c, 9, 40, 100
10, 99456, Note_on_c, 9, 42, 74
10, 99460, Note_off_c, 9, 42, 74
10, 99460, Note_off_c, 9, 40, 100
10, 99460, Note_off_c, 9, 35, 127
10, 99648, Note_on_c, 9, 42, 63
10, 99652, Note_off_c, 9, 42, 63
10, 99744, Note_on_c, 9, 42, 50
10, 99748, Note_off_c, 9, 42, 50
10, 99840, Note_on_c, 9, 35, 127
10, 99840, Note_on_c, 9, 42, 62
10, 99844, Note_off_c, 9, 42, 62
10, 99844, Note_off_c, 9, 35, 127
10, 100032, Note_on_c, 9, 42, 55
10, 100036, Note_off_c, 9, 42, 55
10, 100128, Note_on_c, 9, 42, 57
10, 100132, Note_off_c, 9, 42, 57
10, 100224, Note_on_c, 9, 35, 127
10, 100224, Note_on_c, 9, 40, 100
10, 100224, Note_on_c, 9, 42, 76
10, 100228, Note_off_c, 9, 42, 76
10, 100228, Note_off_c, 9, 40, 100
10, 100228, Note_off_c, 9, 35, 127
10, 100416, Note_on_c, 9, 42, 59
10, 100420, Note_off_c, 9, 42, 59
10, 100512, Note_on_c, 9, 42, 62
10, 100516, Note_off_c, 9, 42, 62
10, 100608, Note_on_c, 9, 35, 127
10, 100608, Note_on_c, 9, 42, 70
10, 100612, Note_off_c, 9, 42, 70
10, 100612, Note_off_c, 9, 35, 127
10, 100800, Note_on_c, 9, 42, 52
10, 100804, Note_off_c, 9, 42, 52
10, 100896, Note_on_c, 9, 42, 54
10, 100900, Note_off_c, 9, 42, 54
10, 100992, Note_on_c, 9, 35, 127
10, 100992, Note_on_c, 9, 40, 100
10, 100992, Note_on_c, 9, 42, 74
10, 100996, Note_off_c, 9, 42, 74
10, 100996, Note_off_c, 9, 40, 100
10, 100996, Note_off_c, 9, 35, 127
10, 101184, Note_on_c, 9, 42, 63
10, 101188, Note_off_c, 9, 42, 63
10, 101280, Note_on_c, 9, 42, 50
10, 101284, Note_off_c, 9, 42, 50
10, 101376, Note_on_c, 9, 35, 127
10, 101376, Note_on_c, 9, 42, 62
10, 101380, Note_off_c, 9, 42, 62
10, 101380, Note_off_c, 9, 35, 127
10, 101568, Note_on_c, 9, 42, 55
10, 101572, Note_off_c, 9, 42, 55
10, 101664, Note_on_c, 9, 42, 57
10, 101668, Note_off_c, 9, 42, 57
10, 101760, Note_on_c, 9, 35, 127
10, 101760, Note_on_c, 9, 40, 100
10, 101760, Note_on_c, 9, 42, 76
10, 101764, Note_off_c, 9, 42, 76
10, 101764, Note_off_c, 9, 40, 100
10, 101764, Note_off_c, 9, 35, 127
10, 101952, Note_on_c, 9, 42, 59
10, 101956, Note_off_c, 9, 42, 59
10, 102048, Note_on_c, 9, 42, 62
10, 102052, Note_off_c, 9, 42, 62
10, 102144, Note_on_c, 9, 35, 127
10, 102144, Note_on_c, 9, 42, 70
10, 102148, Note_off_c, 9, 42, 70
10, 102148, Note_off_c, 9, 35, 127
10, 102336, Note_on_c, 9, 42, 52
10, 102340, Note_off_c, 9, 42, 52
10, 102432, Note_on_c, 9, 42, 54
10, 102436, Note_off_c, 9, 42, 54
10, 102528, Note_on_c, 9, 35, 127
10, 102528, Note_on_c, 9, 40, 100
10, 102528, Note_on_c, 9, 42, 74
10, 102532, Note_off_c, 9, 42, 74
10, 102532, Note_off_c, 9, 40, 100
10, 102532, Note_off_c, 9, 35, 127
10, 102720, Note_on_c, 9, 42, 63
10, 102724, Note_off_c, 9, 42, 63
10, 102816, Note_on_c, 9, 42, 50
10, 102820, Note_off_c, 9, 42, 50
10, 102912, Note_on_c, 9, 35, 127
10, 102912, Note_on_c, 9, 42, 62
10, 102916, Note_off_c, 9, 42, 62
10, 102916, Note_off_c, 9, 35, 127
10, 103104, Note_on_c, 9, 42, 55
10, 103108, Note_off_c, 9, 42, 55
10, 103200, Note_on_c, 9, 42, 57
10, 103204, Note_off_c, 9, 42, 57
10, 103296, Note_on_c, 9, 35, 127
10, 103296, Note_on_c, 9, 40, 100
10, 103296, Note_on_c, 9, 42, 76
10, 103300, Note_off_c, 9, 42, 76
10, 103300, Note_off_c, 9, 40, 100
10, 103300, Note_off_c, 9, 35, 127
10, 103488, Note_on_c, 9, 42, 59
10, 103492, Note_off_c, 9, 42, 59
10, 103584, Note_on_c, 9, 42, 62
10, 103588, Note_off_c, 9, 42, 62
10, 103680, Note_on_c, 9, 35, 127
10, 103680, Note_on_c, 9, 42, 70
10, 103684, Note_off_c, 9, 42, 70
10, 103684, Note_off_c, 9, 35, 127
10, 103872, Note_on_c, 9, 42, 52
10, 103876, Note_off_c, 9, 42, 52
10, 103968, Note_on_c, 9, 42, 54
10, 103972, Note_off_c, 9, 42, 54
10, 104064, Note_on_c, 9, 35, 127
10, 104064, Note_on_c, 9, 40, 100
10, 104064, Note_on_c, 9, 42, 74
10, 104068, Note_off_c, 9, 42, 74
10, 104068, Note_off_c, 9, 40, 100
10, 104068, Note_off_c, 9, 35, 127
10, 104256, Note_on_c, 9, 42, 63
10, 104260, Note_off_c, 9, 42, 63
10, 104352, Note_on_c, 9, 42, 50
10, 104356, Note_off_c, 9, 42, 50
10, 104448, Note_on_c, 9, 35, 127
10, 104448, Note_on_c, 9, 42, 62
10, 104452, Note_off_c, 9, 42, 62
10, 104452, Note_off_c, 9, 35, 127
10, 104640, Note_on_c, 9, 42, 55
10, 104644, Note_off_c, 9, 42, 55
10, 104736, Note_on_c, 9, 42, 57
10, 104740, Note_off_c, 9, 42, 57
10, 104832, Note_on_c, 9, 35, 127
10, 104832, Note_on_c, 9, 40, 100
10, 104832, Note_on_c, 9, 42, 76
10, 104836, Note_off_c, 9, 42, 76
10, 104836, Note_off_c, 9, 40, 100
10, 104836, Note_off_c, 9, 35, 127
10, 105024, Note_on_c, 9, 42, 59
10, 105028, Note_off_c, 9, 42, 59
10, 105120, Note_on_c, 9, 42, 62
10, 105124, Note_off_c, 9, 42, 62
10, 105216, Note_on_c, 9, 35, 127
10, 105216, Note_on_c, 9, 42, 70
10, 105220, Note_off_c, 9, 42, 70
10, 105220, Note_off_c, 9, 35, 127
10, 105408, Note_on_c, 9, 42, 52
10, 105412, Note_off_c, 9, 42, 52
10, 105504, Note_on_c, 9, 42, 54
10, 105508, Note_off_c, 9, 42, 54
10, 105600, Note_on_c, 9, 35, 127
10, 105600, Note_on_c, 9, 40, 100
10, 105600, Note_on_c, 9, 42, 74
10, 105604, Note_off_c, 9, 42, 74
10, 105604, Note_off_c, 9, 40, 100
10, 105604, Note_off_c, 9, 35, 127
10, 105792, Note_on_c, 9, 42, 63
10, 105796, Note_off_c, 9, 42, 63
10, 105888, Note_on_c, 9, 42, 50
10, 105892, Note_off_c, 9, 42, 50
10, 105984, Note_on_c, 9, 35, 127
10, 105984, Note_on_c, 9, 42, 62
10, 105988, Note_off_c, 9, 42, 62
10, 105988, Note_off_c, 9, 35, 127
10, 106176, Note_on_c, 9, 42, 55
10, 106180, Note_off_c, 9, 42, 55
10, 106272, Note_on_c, 9, 42, 57
10, 106276, Note_off_c, 9, 42, 57
10, 106368, Note_on_c, 9, 35, 127
10, 106368, Note_on_c, 9, 40, 100
10, 106368, Note_on_c, 9, 42, 76
10, 106372, Note_off_c, 9, 42, 76
10, 106372, Note_off_c, 9, 40, 100
10, 106372, Note_off_c, 9, 35, 127
10, 106560, Note_on_c, 9, 42, 59
10, 106564, Note_off_c, 9, 42, 59
10, 106656, Note_on_c, 9, 42, 62
10, 106660, Note_off_c, 9, 42, 62
10, 106752, Note_on_c, 9, 35, 127
10, 106752, Note_on_c, 9, 42, 70
10, 106756, Note_off_c, 9, 42, 70
10, 106756, Note_off_c, 9, 35, 127
10, 106944, Note_on_c, 9, 42, 52
10, 106948, Note_off_c, 9, 42, 52
10, 107040, Note_on_c, 9, 42, 54
10, 107044, Note_off_c, 9, 42, 54
10, 107136, Note_on_c, 9, 35, 127
10, 107136, Note_on_c, 9, 40, 100
10, 107136, Note_on_c, 9, 42, 74
10, 107140, Note_off_c, 9, 42, 74
10, 107140, Note_off_c, 9, 40, 100
10, 107140, Note_off_c, 9, 35, 127
10, 107328, Note_on_c, 9, 42, 63
10, 107332, Note_off_c, 9, 42, 63
10, 107424, Note_on_c, 9, 42, 50
10, 107428, Note_off_c, 9, 42, 50
10, 107520, Note_on_c, 9, 35, 127
10, 107520, Note_on_c, 9, 42, 62
10, 107524, Note_off_c, 9, 42, 62
10, 107524, Note_off_c, 9, 35, 127
10, 107712, Note_on_c, 9, 42, 55
10, 107716, Note_off_c, 9, 42, 55
10, 107808, Note_on_c, 9, 42, 57
10, 107812, Note_off_c, 9, 42, 57
10, 107904, Note_on_c, 9, 35, 127
10, 107904, Note_on_c, 9, 40, 100
10, 107904, Note_on_c, 9, 42, 76
10, 107908, Note_off_c, 9, 42, 76
10, 107908, Note_off_c, 9, 40, 100
10, 107908, Note_off_c, 9, 35, 127
10, 108096, Note_on_c, 9, 42, 59
10, 108100, Note_off_c, 9, 42, 59
10, 108192, Note_on_c, 9, 42, 62
10, 108196, Note_off_c, 9, 42, 62
10, 108288, Note_on_c, 9, 35, 127
10, 108288, Note_on_c, 9, 42, 70
10, 108292, Note_off_c, 9, 42, 70
10, 108292, Note_off_c, 9, 35, 127
10, 108480, Note_on_c, 9, 42, 52
10, 108484, Note_off_c, 9, 42, 52
10, 108576, Note_on_c, 9, 42, 54
10, 108580, Note_off_c, 9, 42, 54
10, 108672, Note_on_c, 9, 35, 127
10, 108672, Note_on_c, 9, 40, 100
10, 108672, Note_on_c, 9, 42, 74
10, 108676, Note_off_c, 9, 42, 74
10, 108676, Note_off_c, 9, 40, 100
10, 108676, Note_off_c, 9, 35, 127
10, 108864, Note_on_c, 9, 42, 63
10, 108868, Note_off_c, 9, 42, 63
10, 108960, Note_on_c, 9, 42, 50
10, 108964, Note_off_c, 9, 42, 50
10, 109056, Note_on_c, 9, 35, 127
10, 109056, Note_on_c, 9, 42, 62
10, 109060, Note_off_c, 9, 42, 62
10, 109060, Note_off_c, 9, 35, 127
10, 109248, Note_on_c, 9, 42, 55
10, 109252, Note_off_c, 9, 42, 55
10, 109344, Note_on_c, 9, 42, 57
10, 109348, Note_off_c, 9, 42, 57
10, 109440, Note_on_c, 9, 35, 127
10, 109440, Note_on_c, 9, 40, 100
10, 109440, Note_on_c, 9, 42, 76
10, 109444, Note_off_c, 9, 42, 76
10, 109444, Note_off_c, 9, 40, 100
10, 109444, Note_off_c, 9, 35, 127
10, 109632, Note_on_c, 9, 42, 59
10, 109636, Note_off_c, 9, 42, 59
10, 109728, Note_on_c, 9, 42, 62
10, 109732, Note_off_c, 9, 42, 62
10, 109824, Note_on_c, 9, 35, 127
10, 109824, Note_on_c, 9, 57, 112
10, 109824, Note_on_c, 9, 42, 70
10, 109828, Note_off_c, 9, 42, 70
10, 109828, Note_off_c, 9, 57, 112
10, 109828, Note_off_c, 9, 35, 127
10, 110016, Note_on_c, 9, 42, 52
10, 110020, Note_off_c, 9, 42, 52
10, 110112, Note_on_c, 9, 42, 54
10, 110116, Note_off_c, 9, 42, 54
10, 110208, Note_on_c, 9, 35, 127
10, 110208, Note_on_c, 9, 40, 100
10, 110208, Note_on_c, 9, 42, 74
10, 110212, Note_off_c, 9, 42, 74
10, 110212, Note_off_c, 9, 40, 100
10, 110212, Note_off_c, 9, 35, 127
10, 110400, Note_on_c, 9, 42, 63
10, 110404, Note_off_c, 9, 42, 63
10, 110496, Note_on_c, 9, 42, 50
10, 110500, Note_off_c, 9, 42, 50
10, 110592, Note_on_c, 9, 35, 127
10, 110592, Note_on_c, 9, 42, 62
10, 110596, Note_off_c, 9, 42, 62
10, 110596, Note_off_c, 9, 35, 127
10, 110784, Note_on_c, 9, 42, 55
10, 110788, Note_off_c, 9, 42, 55
10, 110880, Note_on_c, 9, 42, 57
10, 110884, Note_off_c, 9, 42, 57
10, 110976, Note_on_c, 9, 35, 127
10, 110976, Note_on_c, 9, 40, 100
10, 110976, Note_on_c, 9, 42, 76
10, 110980, Note_off_c, 9, 42, 76
10, 110980, Note_off_c, 9, 40, 100
10, 110980, Note_off_c, 9, 35, 127
10, 111168, Note_on_c, 9, 42, 59
10, 111172, Note_off_c, 9, 42, 59
10, 111264, Note_on_c, 9, 42, 62
10, 111268, Note_off_c, 9, 42, 62
10, 111360, Note_on_c, 9, 35, 127
10, 111360, Note_on_c, 9, 42, 70
10, 111364, Note_off_c, 9, 42, 70
10, 111364, Note_off_c, 9, 35, 127
10, 111552, Note_on_c, 9, 42, 52
10, 111556, Note_off_c, 9, 42, 52
10, 111648, Note_on_c, 9, 42, 54
10, 111652, Note_off_c, 9, 42, 54
10, 111744, Note_on_c, 9, 35, 127
10, 111744, Note_on_c, 9, 40, 100
10, 111744, Note_on_c, 9, 42, 74
10, 111748, Note_off_c, 9, 42, 74
10, 111748, Note_off_c, 9, 40, 100
10, 111748, Note_off_c, 9, 35, 127
10, 111936, Note_on_c, 9, 42, 63
10, 111940, Note_off_c, 9, 42, 63
10, 112032, Note_on_c, 9, 42, 50
10, 112036, Note_off_c, 9, 42, 50
10, 112128, Note_on_c, 9, 35, 127
10, 112128, Note_on_c, 9, 42, 62
10, 112132, Note_off_c, 9, 42, 62
10, 112132, Note_off_c, 9, 35, 127
10, 112320, Note_on_c, 9, 42, 55
10, 112324, Note_off_c, 9, 42, 55
10, 112416, Note_on_c, 9, 42, 57
10, 112420, Note_off_c, 9, 42, 57
10, 112512, Note_on_c, 9, 35, 127
10, 112512, Note_on_c, 9, 40, 100
10, 112512, Note_on_c, 9, 42, 76
10, 112516, Note_off_c, 9, 42, 76
10, 112516, Note_off_c, 9, 40, 100
10, 112516, Note_off_c, 9, 35, 127
10, 112704, Note_on_c, 9, 42, 59
10, 112708, Note_off_c, 9, 42, 59
10, 112800, Note_on_c, 9, 42, 62
10, 112804, Note_off_c, 9, 42, 62
10, 112896, Note_on_c, 9, 35, 127
10, 112896, Note_on_c, 9, 42, 70
10, 112900, Note_off_c, 9, 42, 70
10, 112900, Note_off_c, 9, 35, 127
10, 113088, Note_on_c, 9, 42, 52
10, 113092, Note_off_c, 9, 42, 52
10, 113184, Note_on_c, 9, 42, 54
10, 113188, Note_off_c, 9, 42, 54
10, 113280, Note_on_c, 9, 35, 127
10, 113280, Note_on_c, 9, 40, 100
10, 113280, Note_on_c, 9, 42, 74
10, 113284, Note_off_c, 9, 42, 74
10, 113284, Note_off_c, 9, 40, 100
10, 113284, Note_off_c, 9, 35, 127
10, 113472, Note_on_c, 9, 42, 63
10, 113476, Note_off_c, 9, 42, 63
10, 113568, Note_on_c, 9, 42, 50
10, 113572, Note_off_c, 9, 42, 50
10, 113664, Note_on_c, 9, 35, 127
10, 113664, Note_on_c, 9, 42, 62
10, 113668, Note_off_c, 9, 42, 62
10, 113668, Note_off_c, 9, 35, 127
10, 113856, Note_on_c, 9, 42, 55
10, 113860, Note_off_c, 9, 42, 55
10, 113952, Note_on_c, 9, 42, 57
10, 113956, Note_off_c, 9, 42, 57
10, 114048, Note_on_c, 9, 35, 127
10, 114048, Note_on_c, 9, 40, 100
10, 114048, Note_on_c, 9, 42, 76
10, 114052, Note_off_c, 9, 42, 76
10, 114052, Note_off_c, 9, 40, 100
10, 114052, Note_off_c, 9, 35, 127
10, 114240, Note_on_c, 9, 42, 59
10, 114244, Note_off_c, 9, 42, 59
10, 114336, Note_on_c, 9, 42, 62
10, 114340, Note_off_c, 9, 42, 62
10, 114432, Note_on_c, 9, 35, 127
10, 114432, Note_on_c, 9, 42, 70
10, 114436, Note_off_c, 9, 42, 70
10, 114436, Note_off_c, 9, 35, 127
10, 114624, Note_on_c, 9, 42, 52
10, 114628, Note_off_c, 9, 42, 52
10, 114720, Note_on_c, 9, 42, 54
10, 114724, Note_off_c, 9, 42, 54
10, 114816, Note_on_c, 9, 35, 127
10, 114816, Note_on_c, 9, 40, 100
10, 114816, Note_on_c, 9, 42, 74
10, 114820, Note_off_c, 9, 42, 74
10, 114820, Note_off_c, 9, 40, 100
10, 114820, Note_off_c, 9, 35, 127
10, 115008, Note_on_c, 9, 42, 63
10, 115012, Note_off_c, 9, 42, 63
10, 115104, Note_on_c, 9, 42, 50
10, 115108, Note_off_c, 9, 42, 50
10, 115200, Note_on_c, 9, 35, 127
10, 115200, Note_on_c, 9, 42, 62
10, 115204, Note_off_c, 9, 42, 62
10, 115204, Note_off_c, 9, 35, 127
10, 115392, Note_on_c, 9, 42, 55
10, 115396, Note_off_c, 9, 42, 55
10, 115488, Note_on_c, 9, 42, 57
10, 115492, Note_off_c, 9, 42, 57
10, 115584, Note_on_c, 9, 35, 127
10, 115584, Note_on_c, 9, 40, 100
10, 115584, Note_on_c, 9, 42, 76
10, 115588, Note_off_c, 9, 42, 76
10, 115588, Note_off_c, 9, 40, 100
10, 115588, Note_off_c, 9, 35, 127
10, 115776, Note_on_c, 9, 42, 59
10, 115780, Note_off_c, 9, 42, 59
10, 115872, Note_on_c, 9, 42, 62
10, 115876, Note_off_c, 9, 42, 62
10, 115968, Note_on_c, 9, 35, 127
10, 115968, Note_on_c, 9, 57, 103
10, 115968, Note_on_c, 9, 42, 70
10, 115972, Note_off_c, 9, 42, 70
10, 115972, Note_off_c, 9, 57, 103
10, 115972, Note_off_c, 9, 35, 127
10, 116160, Note_on_c, 9, 42, 52
10, 116164, Note_off_c, 9, 42, 52
10, 116256, Note_on_c, 9, 42, 54
10, 116260, Note_off_c, 9, 42, 54
10, 116352, Note_on_c, 9, 35, 127
10, 116352, Note_on_c, 9, 40, 100
10, 116352, Note_on_c, 9, 42, 74
10, 116356, Note_off_c, 9, 42, 74
10, 116356, Note_off_c, 9, 40, 100
10, 116356, Note_off_c, 9, 35, 127
10, 116544, Note_on_c, 9, 42, 63
10, 116548, Note_off_c, 9, 42, 63
10, 116640, Note_on_c, 9, 42, 50
10, 116644, Note_off_c, 9, 42, 50
10, 116736, Note_on_c, 9, 35, 127
10, 116736, Note_on_c, 9, 42, 62
10, 116740, Note_off_c, 9, 42, 62
10, 116740, Note_off_c, 9, 35, 127
10, 116928, Note_on_c, 9, 42, 55
10, 116932, Note_off_c, 9, 42, 55
10, 117024, Note_on_c, 9, 42, 57
10, 117028, Note_off_c, 9, 42, 57
10, 117120, Note_on_c, 9, 35, 127
10, 117120, Note_on_c, 9, 40, 100
10, 117120, Note_on_c, 9, 42, 76
10, 117124, Note_off_c, 9, 42, 76
10, 117124, Note_off_c, 9, 40, 100
10, 117124, Note_off_c, 9, 35, 127
10, 117312, Note_on_c, 9, 42, 59
10, 117316, Note_off_c, 9, 42, 59
10, 117408, Note_on_c, 9, 42, 62
10, 117412, Note_off_c, 9, 42, 62
10, 117504, Note_on_c, 9, 35, 127
10, 117504, Note_on_c, 9, 42, 70
10, 117508, Note_off_c, 9, 42, 70
10, 117508, Note_off_c, 9, 35, 127
10, 117696, Note_on_c, 9, 42, 52
10, 117700, Note_off_c, 9, 42, 52
10, 117792, Note_on_c, 9, 42, 54
10, 117796, Note_off_c, 9, 42, 54
10, 117888, Note_on_c, 9, 35, 127
10, 117888, Note_on_c, 9, 40, 100
10, 117888, Note_on_c, 9, 42, 74
10, 117892, Note_off_c, 9, 42, 74
10, 117892, Note_off_c, 9, 40, 100
10, 117892, Note_off_c, 9, 35, 127
10, 118080, Note_on_c, 9, 42, 63
10, 118084, Note_off_c, 9, 42, 63
10, 118176, Note_on_c, 9, 42, 50
10, 118180, Note_off_c, 9, 42, 50
10, 118272, Note_on_c, 9, 35, 127
10, 118272, Note_on_c, 9, 42, 62
10, 118276, Note_off_c, 9, 42, 62
10, 118276, Note_off_c, 9, 35, 127
10, 118464, Note_on_c, 9, 42, 55
10, 118468, Note_off_c, 9, 42, 55
10, 118560, Note_on_c, 9, 42, 57
10, 118564, Note_off_c, 9, 42, 57
10, 118656, Note_on_c, 9, 35, 127
10, 118656, Note_on_c, 9, 40, 100
10, 118656, Note_on_c, 9, 42, 76
10, 118660, Note_off_c, 9, 42, 76
10, 118660, Note_off_c, 9, 40, 100
10, 118660, Note_off_c, 9, 35, 127
10, 118848, Note_on_c, 9, 42, 59
10, 118852, Note_off_c, 9, 42, 59
10, 118944, Note_on_c, 9, 42, 62
10, 118948, Note_off_c, 9, 42, 62
10, 119040, Note_on_c, 9, 35, 127
10, 119040, Note_on_c, 9, 57, 105
10, 119040, Note_on_c, 9, 42, 70
10, 119044, Note_off_c, 9, 42, 70
10, 119044, Note_off_c, 9, 57, 105
10, 119044, Note_off_c, 9, 35, 127
10, 119232, Note_on_c, 9, 42, 52
10, 119236, Note_off_c, 9, 42, 52
10, 119328, Note_on_c, 9, 42, 54
10, 119332, Note_off_c, 9, 42, 54
10, 119424, Note_on_c, 9, 35, 127
10, 119424, Note_on_c, 9, 40, 100
10, 119424, Note_on_c, 9, 42, 74
10, 119428, Note_off_c, 9, 42, 74
10, 119428, Note_off_c, 9, 40, 100
10, 119428, Note_off_c, 9, 35, 127
10, 119616, Note_on_c, 9, 42, 63
10, 119620, Note_off_c, 9, 42, 63
10, 119712, Note_on_c, 9, 42, 50
10, 119716, Note_off_c, 9, 42, 50
10, 119808, Note_on_c, 9, 35, 127
10, 119808, Note_on_c, 9, 42, 62
10, 119812, Note_off_c, 9, 42, 62
10, 119812, Note_off_c, 9, 35, 127
10, 120000, Note_on_c, 9, 42, 55
10, 120004, Note_off_c, 9, 42, 55
10, 120096, Note_on_c, 9, 42, 57
10, 120100, Note_off_c, 9, 42, 57
10, 120192, Note_on_c, 9, 35, 127
10, 120192, Note_on_c, 9, 40, 100
10, 120192, Note_on_c, 9, 42, 76
10, 120196, Note_off_c, 9, 42, 76
10, 120196, Note_off_c, 9, 40, 100
10, 120196, Note_off_c, 9, 35, 127
10, 120384, Note_on_c, 9, 42, 59
10, 120388, Note_off_c, 9, 42, 59
10, 120480, Note_on_c, 9, 42, 62
10, 120484, Note_off_c, 9, 42, 62
10, 120576, Note_on_c, 9, 35, 127
10, 120576, Note_on_c, 9, 42, 70
10, 120580, Note_off_c, 9, 42, 70
10, 120580, Note_off_c, 9, 35, 127
10, 120768, Note_on_c, 9, 42, 52
10, 120772, Note_off_c, 9, 42, 52
10, 120864, Note_on_c, 9, 42, 54
10, 120868, Note_off_c, 9, 42, 54
10, 120960, Note_on_c, 9, 35, 127
10, 120960, Note_on_c, 9, 40, 100
10, 120960, Note_on_c, 9, 42, 74
10, 120964, Note_off_c, 9, 42, 74
10, 120964, Note_off_c, 9, 40, 100
10, 120964, Note_off_c, 9, 35, 127
10, 121152, Note_on_c, 9, 42, 63
10, 121156, Note_off_c, 9, 42, 63
10, 121248, Note_on_c, 9, 42, 50
10, 121252, Note_off_c, 9, 42, 50
10, 121344, Note_on_c, 9, 70, 34
10, 121344, Note_on_c, 9, 35, 127
10, 121348, Note_off_c, 9, 35, 127
10, 121348, Note_off_c, 9, 70, 34
10, 121440, Note_on_c, 9, 70, 34
10, 121444, Note_off_c, 9, 70, 34
10, 121536, Note_on_c, 9, 70, 54
10, 121536, Note_on_c, 9, 44, 72
10, 121540, Note_off_c, 9, 44, 72
10, 121540, Note_off_c, 9, 70, 54
10, 121632, Note_on_c, 9, 70, 34
10, 121636, Note_off_c, 9, 70, 34
10, 121728, Note_on_c, 9, 70, 34
10, 121728, Note_on_c, 9, 35, 127
10, 121732, Note_off_c, 9, 35, 127
10, 121732, Note_off_c, 9, 70, 34
10, 121824, Note_on_c, 9, 70, 34
10, 121828, Note_off_c, 9, 70, 34
10, 121920, Note_on_c, 9, 70, 54
10, 121920, Note_on_c, 9, 44, 72
10, 121924, Note_off_c, 9, 44, 72
10, 121924, Note_off_c, 9, 70, 54
10, 122016, Note_on_c, 9, 70, 34
10, 122020, Note_off_c, 9, 70, 34
10, 122112, Note_on_c, 9, 70, 34
10, 122112, Note_on_c, 9, 35, 127
10, 122116, Note_off_c, 9, 35, 127
10, 122116, Note_off_c, 9, 70, 34
10, 122208, Note_on_c, 9, 70, 34
10, 122212, Note_off_c, 9, 70, 34
10, 122304, Note_on_c, 9, 70, 54
10, 122304, Note_on_c, 9, 44, 72
10, 122308, Note_off_c, 9, 44, 72
10, 122308, Note_off_c, 9, 70, 54
10, 122400, Note_on_c, 9, 70, 34
10, 122404, Note_off_c, 9, 70, 34
10, 122496, Note_on_c, 9, 70, 34
10, 122496, Note_on_c, 9, 35, 127
10, 122500, Note_off_c, 9, 35, 127
10, 122500, Note_off_c, 9, 70, 34
10, 122592, Note_on_c, 9, 70, 34
10, 122596, Note_off_c, 9, 70, 34
10, 122688, Note_on_c, 9, 70, 54
10, 122688, Note_on_c, 9, 44, 72
10, 122692, Note_off_c, 9, 44, 72
10, 122692, Note_off_c, 9, 70, 54
10, 122784, Note_on_c, 9, 70, 34
10, 122788, Note_off_c, 9, 70, 34
10, 122880, Note_on_c, 9, 70, 34
10, 122880, Note_on_c, 9, 35, 127
10, 122884, Note_off_c, 9, 35, 127
10, 122884, Note_off_c, 9, 70, 34
10, 122976, Note_on_c, 9, 70, 34
10, 122980, Note_off_c, 9, 70, 34
10, 123072, Note_on_c, 9, 70, 54
10, 123072, Note_on_c, 9, 44, 72
10, 123076, Note_off_c, 9, 44, 72
10, 123076, Note_off_c, 9, 70, 54
10, 123168, Note_on_c, 9, 70, 34
10, 123172, Note_off_c, 9, 70, 34
10, 123264, Note_on_c, 9, 70, 34
10, 123264, Note_on_c, 9, 35, 127
10, 123268, Note_off_c, 9, 35, 127
10, 123268, Note_off_c, 9, 70, 34
10, 123360, Note_on_c, 9, 70, 34
10, 123364, Note_off_c, 9, 70, 34
10, 123456, Note_on_c, 9, 70, 54
10, 123456, Note_on_c, 9, 44, 72
10, 123460, Note_off_c, 9, 44, 72
10, 123460, Note_off_c, 9, 70, 54
10, 123552, Note_on_c, 9, 70, 34
10, 123556, Note_off_c, 9, 70, 34
10, 123648, Note_on_c, 9, 70, 34
10, 123648, Note_on_c, 9, 35, 127
10, 123652, Note_off_c, 9, 35, 127
10, 123652, Note_off_c, 9, 70, 34
10, 123744, Note_on_c, 9, 70, 34
10, 123748, Note_off_c, 9, 70, 34
10, 123840, Note_on_c, 9, 70, 54
10, 123840, Note_on_c, 9, 44, 72
10, 123844, Note_off_c, 9, 44, 72
10, 123844, Note_off_c, 9, 70, 54
10, 123936, Note_on_c, 9, 70, 34
10, 123940, Note_off_c, 9, 70, 34
10, 124032, Note_on_c, 9, 70, 34
10, 124032, Note_on_c, 9, 35, 127
10, 124036, Note_off_c, 9, 35, 127
10, 124036, Note_off_c, 9, 70, 34
10, 124128, Note_on_c, 9, 70, 34
10, 124132, Note_off_c, 9, 70, 34
10, 124224, Note_on_c, 9, 70, 54
10, 124224, Note_on_c, 9, 44, 72
10, 124228, Note_off_c, 9, 44, 72
10, 124228, Note_off_c, 9, 70, 54
10, 124320, Note_on_c, 9, 70, 34
10, 124324, Note_off_c, 9, 70, 34
10, 124416, Note_on_c, 9, 35, 127
10, 124416, Note_on_c, 9, 42, 77
10, 124420, Note_off_c, 9, 42, 77
10, 124420, Note_off_c, 9, 35, 127
10, 124608, Note_on_c, 9, 42, 60
10, 124612, Note_off_c, 9, 42, 60
10, 124704, Note_on_c, 9, 42, 44
10, 124708, Note_off_c, 9, 42, 44
10, 124800, Note_on_c, 9, 35, 127
10, 124800, Note_on_c, 9, 40, 100
10, 124800, Note_on_c, 9, 42, 69
10, 124804, Note_off_c, 9, 42, 69
10, 124804, Note_off_c, 9, 40, 100
10, 124804, Note_off_c, 9, 35, 127
10, 124992, Note_on_c, 9, 42, 55
10, 124996, Note_off_c, 9, 42, 55
10, 125088, Note_on_c, 9, 42, 40
10, 125092, Note_off_c, 9, 42, 40
10, 125184, Note_on_c, 9, 35, 127
10, 125184, Note_on_c, 9, 42, 62
10, 125188, Note_off_c, 9, 42, 62
10, 125188, Note_off_c, 9, 35, 127
10, 125280, Note_on_c, 9, 42, 42
10, 125284, Note_off_c, 9, 42, 42
10, 125376, Note_on_c, 9, 42, 50
10, 125380, Note_off_c, 9, 42, 50
10, 125472, Note_on_c, 9, 42, 53
10, 125476, Note_off_c, 9, 42, 53
10, 125568, Note_on_c, 9, 35, 127
10, 125568, Note_on_c, 9, 40, 100
10, 125568, Note_on_c, 9, 42, 69
10, 125572, Note_off_c, 9, 42, 69
10, 125572, Note_off_c, 9, 40, 100
10, 125572, Note_off_c, 9, 35, 127
10, 125760, Note_on_c, 9, 42, 61
10, 125764, Note_off_c, 9, 42, 61
10, 125856, Note_on_c, 9, 42, 46
10, 125860, Note_off_c, 9, 42, 46
10, 125952, Note_on_c, 9, 35, 127
10, 125952, Note_on_c, 9, 42, 58
10, 125956, Note_off_c, 9, 42, 58
10, 125956, Note_off_c, 9, 35, 127
10, 126144, Note_on_c, 9, 42, 60
10, 126148, Note_off_c, 9, 42, 60
10, 126240, Note_on_c, 9, 42, 43
10, 126244, Note_off_c, 9, 42, 43
10, 126336, Note_on_c, 9, 35, 127
10, 126336, Note_on_c, 9, 40, 100
10, 126336, Note_on_c, 9, 42, 69
10, 126340, Note_off_c, 9, 42, 69
10, 126340, Note_off_c, 9, 40, 100
10, 126340, Note_off_c, 9, 35, 127
10, 126528, Note_on_c, 9, 42, 65
10, 126532, Note_off_c, 9, 42, 65
10, 126624, Note_on_c, 9, 42, 34
10, 126628, Note_off_c, 9, 42, 34
10, 126720, Note_on_c, 9, 35, 127
10, 126720, Note_on_c, 9, 42, 64
10, 126724, Note_off_c, 9, 42, 64
10, 126724, Note_off_c, 9, 35, 127
10, 126816, Note_on_c, 9, 42, 47
10, 126820, Note_off_c, 9, 42, 47
10, 126912, Note_on_c, 9, 42, 62
10, 126916, Note_off_c, 9, 42, 62
10, 127008, Note_on_c, 9, 42, 55
10, 127012, Note_off_c, 9, 42, 55
10, 127104, Note_on_c, 9, 35, 127
10, 127104, Note_on_c, 9, 40, 100
10, 127104, Note_on_c, 9, 42, 70
10, 127108, Note_off_c, 9, 42, 70
10, 127108, Note_off_c, 9, 40, 100
10, 127108, Note_off_c, 9, 35, 127
10, 127296, Note_on_c, 9, 42, 51
10, 127300, Note_off_c, 9, 42, 51
10, 127392, Note_on_c, 9, 42, 52
10, 127396, Note_off_c, 9, 42, 52
10, 127488, Note_on_c, 9, 35, 127
10, 127488, Note_on_c, 9, 42, 77
10, 127492, Note_off_c, 9, 42, 77
10, 127492, Note_off_c, 9, 35, 127
10, 127680, Note_on_c, 9, 42, 60
10, 127684, Note_off_c, 9, 42, 60
10, 127776, Note_on_c, 9, 42, 44
10, 127780, Note_off_c, 9, 42, 44
10, 127872, Note_on_c, 9, 35, 127
10, 127872, Note_on_c, 9, 40, 100
10, 127872, Note_on_c, 9, 42, 69
10, 127876, Note_off_c, 9, 42, 69
10, 127876, Note_off_c, 9, 40, 100
10, 127876, Note_off_c, 9, 35, 127
10, 128064, Note_on_c, 9, 42, 55
10, 128068, Note_off_c, 9, 42, 55
10, 128160, Note_on_c, 9, 42, 40
10, 128164, Note_off_c, 9, 42, 40
10, 128256, Note_on_c, 9, 35, 127
10, 128256, Note_on_c, 9, 42, 62
10, 128260, Note_off_c, 9, 42, 62
10, 128260, Note_off_c, 9, 35, 127
10, 128352, Note_on_c, 9, 42, 42
10, 128356, Note_off_c, 9, 42, 42
10, 128448, Note_on_c, 9, 42, 50
10, 128452, Note_off_c, 9, 42, 50
10, 128544, Note_on_c, 9, 42, 53
10, 128548, Note_off_c, 9, 42, 53
10, 128640, Note_on_c, 9, 35, 127
10, 128640, Note_on_c, 9, 40, 100
10, 128640, Note_on_c, 9, 42, 69
10, 128644, Note_off_c, 9, 42, 69
10, 128644, Note_off_c, 9, 40, 100
10, 128644, Note_off_c, 9, 35, 127
10, 128832, Note_on_c, 9, 42, 61
10, 128836, Note_off_c, 9, 42, 61
10, 128928, Note_on_c, 9, 42, 46
10, 128932, Note_off_c, 9, 42, 46
10, 129024, Note_on_c, 9, 35, 127
10, 129024, Note_on_c, 9, 42, 58
10, 129028, Note_off_c, 9, 42, 58
10, 129028, Note_off_c, 9, 35, 127
10, 129216, Note_on_c, 9, 42, 60
10, 129220, Note_off_c, 9, 42, 60
10, 129312, Note_on_c, 9, 42, 43
10, 129316, Note_off_c, 9, 42, 43
10, 129408, Note_on_c, 9, 35, 127
10, 129408, Note_on_c, 9, 40, 100
10, 129408, Note_on_c, 9, 42, 69
10, 129412, Note_off_c, 9, 42, 69
10, 129412, Note_off_c, 9, 40, 100
10, 129412, Note_off_c, 9, 35, 127
10, 129600, Note_on_c, 9, 42, 65
10, 129604, Note_off_c, 9, 42, 65
10, 129696, Note_on_c, 9, 42, 34
10, 129700, Note_off_c, 9, 42, 34
10, 129792, Note_on_c, 9, 35, 127
10, 129792, Note_on_c, 9, 42, 64
10, 129796, Note_off_c, 9, 42, 64
10, 129796, Note_off_c, 9, 35, 127
10, 129888, Note_on_c, 9, 42, 47
10, 129892, Note_off_c, 9, 42, 47
10, 129984, Note_on_c, 9, 42, 62
10, 129988, Note_off_c, 9, 42, 62
10, 130080, Note_on_c, 9, 42, 55
10, 130084, Note_off_c, 9, 42, 55
10, 130176, Note_on_c, 9, 35, 127
10, 130176, Note_on_c, 9, 40, 100
10, 130176, Note_on_c, 9, 42, 70
10, 130180, Note_off_c, 9, 42, 70
10, 130180, Note_off_c, 9, 40, 100
10, 130180, Note_off_c, 9, 35, 127
10, 130368, Note_on_c, 9, 42, 51
10, 130372, Note_off_c, 9, 42, 51
10, 130464, Note_on_c, 9, 42, 52
10, 130468, Note_off_c, 9, 42, 52
10, 130560, Note_on_c, 9, 35, 127
10, 130560, Note_on_c, 9, 42, 77
10, 130564, Note_off_c, 9, 42, 77
10, 130564, Note_off_c, 9, 35, 127
10, 130752, Note_on_c, 9, 42, 60
10, 130756, Note_off_c, 9, 42, 60
10, 130848, Note_on_c, 9, 42, 44
10, 130852, Note_off_c, 9, 42, 44
10, 130944, Note_on_c, 9, 35, 127
10, 130944, Note_on_c, 9, 40, 100
10, 130944, Note_on_c, 9, 42, 69
10, 130948, Note_off_c, 9, 42, 69
10, 130948, Note_off_c, 9, 40, 100
10, 130948, Note_off_c, 9, 35, 127
10, 131136, Note_on_c, 9, 42, 55
10, 131140, Note_off_c, 9, 42, 55
10, 131232, Note_on_c, 9, 42, 40
10, 131236, Note_off_c, 9, 42, 40
10, 131328, Note_on_c, 9, 35, 127
10, 131328, Note_on_c, 9, 42, 62
10, 131332, Note_off_c, 9, 42, 62
10, 131332, Note_off_c, 9, 35, 127
10, 131424, Note_on_c, 9, 42, 42
10, 131428, Note_off_c, 9, 42, 42
10, 131520, Note_on_c, 9, 42, 50
10, 131524, Note_off_c, 9, 42, 50
10, 131616, Note_on_c, 9, 42, 53
10, 131620, Note_off_c, 9, 42, 53
10, 131712, Note_on_c, 9, 35, 127
10, 131712, Note_on_c, 9, 40, 100
10, 131712, Note_on_c, 9, 42, 69
10, 131716, Note_off_c, 9, 42, 69
10, 131716, Note_off_c, 9, 40, 100
10, 131716, Note_off_c, 9, 35, 127
10, 131904, Note_on_c, 9, 42, 61
10, 131908, Note_off_c, 9, 42, 61
10, 132000, Note_on_c, 9, 42, 46
10, 132004, Note_off_c, 9, 42, 46
10, 132096, Note_on_c, 9, 35, 127
10, 132096, Note_on_c, 9, 42, 58
10, 132100, Note_off_c, 9, 42, 58
10, 132100, Note_off_c, 9, 35, 127
10, 132288, Note_on_c, 9, 42, 60
10, 132292, Note_off_c, 9, 42, 60
10, 132384, Note_on_c, 9, 42, 43
10, 132388, Note_off_c, 9, 42, 43
10, 132480, Note_on_c, 9, 35, 127
10, 132480, Note_on_c, 9, 40, 100
10, 132480, Note_on_c, 9, 42, 69
10, 132484, Note_off_c, 9, 42, 69
10, 132484, Note_off_c, 9, 40, 100
10, 132484, Note_off_c, 9, 35, 127
10, 132672, Note_on_c, 9, 42, 65
10, 132676, Note_off_c, 9, 42, 65
10, 132768, Note_on_c, 9, 42, 34
10, 132772, Note_off_c, 9, 42, 34
10, 132864, Note_on_c, 9, 35, 127
10, 132864, Note_on_c, 9, 42, 64
10, 132868, Note_off_c, 9, 42, 64
10, 132868, Note_off_c, 9, 35, 127
10, 132960, Note_on_c, 9, 42, 47
10, 132964, Note_off_c, 9, 42, 47
10, 133056, Note_on_c, 9, 42, 62
10, 133060, Note_off_c, 9, 42, 62
10, 133152, Note_on_c, 9, 42, 55
10, 133156, Note_off_c, 9, 42, 55
10, 133248, Note_on_c, 9, 35, 127
10, 133248, Note_on_c, 9, 40, 100
10, 133248, Note_on_c, 9, 42, 70
10, 133252, Note_off_c, 9, 42, 70
10, 133252, Note_off_c, 9, 40, 100
10, 133252, Note_off_c, 9, 35, 127
10, 133440, Note_on_c, 9, 42, 51
10, 133444, Note_off_c, 9, 42, 51
10, 133536, Note_on_c, 9, 42, 52
10, 133540, Note_off_c, 9, 42, 52
10, 133632, Note_on_c, 9, 35, 127
10, 133632, Note_on_c, 9, 42, 77
10, 133636, Note_off_c, 9, 42, 77
10, 133636, Note_off_c, 9, 35, 127
10, 133824, Note_on_c, 9, 42, 60
10, 133828, Note_off_c, 9, 42, 60
10, 133920, Note_on_c, 9, 42, 44
10, 133924, Note_off_c, 9, 42, 44
10, 134016, Note_on_c, 9, 35, 127
10, 134016, Note_on_c, 9, 40, 100
10, 134016, Note_on_c, 9, 42, 69
10, 134020, Note_off_c, 9, 42, 69
10, 134020, Note_off_c, 9, 40, 100
10, 134020, Note_off_c, 9, 35, 127
10, 134208, Note_on_c, 9, 42, 55
10, 134212, Note_off_c, 9, 42, 55
10, 134304, Note_on_c, 9, 42, 40
10, 134308, Note_off_c, 9, 42, 40
10, 134400, Note_on_c, 9, 35, 127
10, 134400, Note_on_c, 9, 42, 62
10, 134404, Note_off_c, 9, 42, 62
10, 134404, Note_off_c, 9, 35, 127
10, 134496, Note_on_c, 9, 42, 42
10, 134500, Note_off_c, 9, 42, 42
10, 134592, Note_on_c, 9, 42, 50
10, 134596, Note_off_c, 9, 42, 50
10, 134688, Note_on_c, 9, 42, 53
10, 134692, Note_off_c, 9, 42, 53
10, 134784, Note_on_c, 9, 35, 127
10, 134784, Note_on_c, 9, 40, 100
10, 134784, Note_on_c, 9, 42, 69
10, 134788, Note_off_c, 9, 42, 69
10, 134788, Note_off_c, 9, 40, 100
10, 134788, Note_off_c, 9, 35, 127
10, 134976, Note_on_c, 9, 42, 61
10, 134980, Note_off_c, 9, 42, 61
10, 135072, Note_on_c, 9, 42, 46
10, 135076, Note_off_c, 9, 42, 46
10, 135168, Note_on_c, 9, 35, 127
10, 135168, Note_on_c, 9, 42, 58
10, 135172, Note_off_c, 9, 42, 58
10, 135172, Note_off_c, 9, 35, 127
10, 135360, Note_on_c, 9, 42, 60
10, 135364, Note_off_c, 9, 42, 60
10, 135456, Note_on_c, 9, 42, 43
10, 135460, Note_off_c, 9, 42, 43
10, 135552, Note_on_c, 9, 35, 127
10, 135552, Note_on_c, 9, 40, 100
10, 135552, Note_on_c, 9, 42, 69
10, 135556, Note_off_c, 9, 42, 69
10, 135556, Note_off_c, 9, 40, 100
10, 135556, Note_off_c, 9, 35, 127
10, 135744, Note_on_c, 9, 42, 65
10, 135748, Note_off_c, 9, 42, 65
10, 135840, Note_on_c, 9, 42, 34
10, 135844, Note_off_c, 9, 42, 34
10, 135936, Note_on_c, 9, 35, 127
10, 135936, Note_on_c, 9, 42, 64
10, 135940, Note_off_c, 9, 42, 64
10, 135940, Note_off_c, 9, 35, 127
10, 136032, Note_on_c, 9, 42, 47
10, 136036, Note_off_c, 9, 42, 47
10, 136128, Note_on_c, 9, 42, 62
10, 136132, Note_off_c, 9, 42, 62
10, 136224, Note_on_c, 9, 46, 55
10, 136228, Note_off_c, 9, 46, 55
10, 136320, Note_on_c, 9, 35, 127
10, 136320, Note_on_c, 9, 40, 100
10, 136324, Note_off_c, 9, 40, 100
10, 136324, Note_off_c, 9, 35, 127
10, 136416, Note_on_c, 9, 42, 47
10, 136420, Note_off_c, 9, 42, 47
10, 136512, Note_on_c, 9, 46, 51
10, 136516, Note_off_c, 9, 46, 51
10, 136704, Note_on_c, 9, 35, 127
10, 136704, Note_on_c, 9, 57, 92
10, 136704, Note_on_c, 9, 42, 77
10, 136708, Note_off_c, 9, 42, 77
10, 136708, Note_off_c, 9, 57, 92
10, 136708, Note_off_c, 9, 35, 127
10, 136896, Note_on_c, 9, 42, 60
10, 136900, Note_off_c, 9, 42, 60
10, 136992, Note_on_c, 9, 42, 44
10, 136996, Note_off_c, 9, 42, 44
10, 137088, Note_on_c, 9, 35, 127
10, 137088, Note_on_c, 9, 40, 100
10, 137088, Note_on_c, 9, 42, 69
10, 137092, Note_off_c, 9, 42, 69
10, 137092, Note_off_c, 9, 40, 100
10, 137092, Note_off_c, 9, 35, 127
10, 137280, Note_on_c, 9, 42, 55
10, 137284, Note_off_c, 9, 42, 55
10, 137376, Note_on_c, 9, 42, 40
10, 137380, Note_off_c, 9, 42, 40
10, 137472, Note_on_c, 9, 35, 127
10, 137472, Note_on_c, 9, 42, 62
10, 137476, Note_off_c, 9, 42, 62
10, 137476, Note_off_c, 9, 35, 127
10, 137568, Note_on_c, 9, 42, 42
10, 137572, Note_off_c, 9, 42, 42
10, 137664, Note_on_c, 9, 42, 50
10, 137668, Note_off_c, 9, 42, 50
10, 137760, Note_on_c, 9, 42, 53
10, 137764, Note_off_c, 9, 42, 53
10, 137856, Note_on_c, 9, 35, 127
10, 137856, Note_on_c, 9, 40, 100
10, 137856, Note_on_c, 9, 42, 69
10, 137860, Note_off_c, 9, 42, 69
10, 137860, Note_off_c, 9, 40, 100
10, 137860, Note_off_c, 9, 35, 127
10, 138048, Note_on_c, 9, 42, 61
10, 138052, Note_off_c, 9, 42, 61
10, 138144, Note_on_c, 9, 42, 46
10, 138148, Note_off_c, 9, 42, 46
10, 138240, Note_on_c, 9, 35, 127
10, 138240, Note_on_c, 9, 42, 58
10, 138244, Note_off_c, 9, 42, 58
10, 138244, Note_off_c, 9, 35, 127
10, 138432, Note_on_c, 9, 42, 60
10, 138436, Note_off_c, 9, 42, 60
10, 138528, Note_on_c, 9, 42, 43
10, 138532, Note_off_c, 9, 42, 43
10, 138624, Note_on_c, 9, 35, 127
10, 138624, Note_on_c, 9, 40, 100
10, 138624, Note_on_c, 9, 42, 69
10, 138628, Note_off_c, 9, 42, 69
10, 138628, Note_off_c, 9, 40, 100
10, 138628, Note_off_c, 9, 35, 127
10, 138816, Note_on_c, 9, 42, 65
10, 138820, Note_off_c, 9, 42, 65
10, 138912, Note_on_c, 9, 42, 34
10, 138916, Note_off_c, 9, 42, 34
10, 139008, Note_on_c, 9, 35, 127
10, 139008, Note_on_c, 9, 42, 64
10, 139012, Note_off_c, 9, 42, 64
10, 139012, Note_off_c, 9, 35, 127
10, 139104, Note_on_c, 9, 42, 47
10, 139108, Note_off_c, 9, 42, 47
10, 139200, Note_on_c, 9, 42, 62
10, 139204, Note_off_c, 9, 42, 62
10, 139296, Note_on_c, 9, 42, 55
10, 139300, Note_off_c, 9, 42, 55
10, 139392, Note_on_c, 9, 35, 127
10, 139392, Note_on_c, 9, 40, 100
10, 139392, Note_on_c, 9, 42, 70
10, 139396, Note_off_c, 9, 42, 70
10, 139396, Note_off_c, 9, 40, 100
10, 139396, Note_off_c, 9, 35, 127
10, 139584, Note_on_c, 9, 42, 51
10, 139588, Note_off_c, 9, 42, 51
10, 139680, Note_on_c, 9, 42, 52
10, 139684, Note_off_c, 9, 42, 52
10, 139776, Note_on_c, 9, 35, 127
10, 139776, Note_on_c, 9, 42, 77
10, 139780, Note_off_c, 9, 42, 77
10, 139780, Note_off_c, 9, 35, 127
10, 139968, Note_on_c, 9, 42, 60
10, 139972, Note_off_c, 9, 42, 60
10, 140064, Note_on_c, 9, 42, 44
10, 140068, Note_off_c, 9, 42, 44
10, 140160, Note_on_c, 9, 35, 127
10, 140160, Note_on_c, 9, 40, 100
10, 140160, Note_on_c, 9, 42, 69
10, 140164, Note_off_c, 9, 42, 69
10, 140164, Note_off_c, 9, 40, 100
10, 140164, Note_off_c, 9, 35, 127
10, 140352, Note_on_c, 9, 42, 55
10, 140356, Note_off_c, 9, 42, 55
10, 140448, Note_on_c, 9, 42, 40
10, 140452, Note_off_c, 9, 42, 40
10, 140544, Note_on_c, 9, 35, 127
10, 140544, Note_on_c, 9, 42, 62
10, 140548, Note_off_c, 9, 42, 62
10, 140548, Note_off_c, 9, 35, 127
10, 140640, Note_on_c, 9, 42, 42
10, 140644, Note_off_c, 9, 42, 42
10, 140736, Note_on_c, 9, 42, 50
10, 140740, Note_off_c, 9, 42, 50
10, 140832, Note_on_c, 9, 42, 53
10, 140836, Note_off_c, 9, 42, 53
10, 140928, Note_on_c, 9, 35, 127
10, 140928, Note_on_c, 9, 40, 100
10, 140928, Note_on_c, 9, 42, 69
10, 140932, Note_off_c, 9, 42, 69
10, 140932, Note_off_c, 9, 40, 100
10, 140932, Note_off_c, 9, 35, 127
10, 141120, Note_on_c, 9, 42, 61
10, 141124, Note_off_c, 9, 42, 61
10, 141216, Note_on_c, 9, 42, 46
10, 141220, Note_off_c, 9, 42, 46
10, 141312, Note_on_c, 9, 35, 127
10, 141312, Note_on_c, 9, 42, 58
10, 141316, Note_off_c, 9, 42, 58
10, 141316, Note_off_c, 9, 35, 127
10, 141504, Note_on_c, 9, 42, 60
10, 141508, Note_off_c, 9, 42, 60
10, 141600, Note_on_c, 9, 42, 43
10, 141604, Note_off_c, 9, 42, 43
10, 141696, Note_on_c, 9, 35, 127
10, 141696, Note_on_c, 9, 40, 100
10, 141696, Note_on_c, 9, 42, 69
10, 141700, Note_off_c, 9, 42, 69
10, 141700, Note_off_c, 9, 40, 100
10, 141700, Note_off_c, 9, 35, 127
10, 141888, Note_on_c, 9, 42, 65
10, 141892, Note_off_c, 9, 42, 65
10, 141984, Note_on_c, 9, 42, 34
10, 141988, Note_off_c, 9, 42, 34
10, 142080, Note_on_c, 9, 35, 127
10, 142080, Note_on_c, 9, 42, 64
10, 142084, Note_off_c, 9, 42, 64
10, 142084, Note_off_c, 9, 35, 127
10, 142176, Note_on_c, 9, 42, 47
10, 142180, Note_off_c, 9, 42, 47
10, 142272, Note_on_c, 9, 42, 62
10, 142276, Note_off_c, 9, 42, 62
10, 142368, Note_on_c, 9, 42, 55
10, 142372, Note_off_c, 9, 42, 55
10, 142464, Note_on_c, 9, 35, 127
10, 142464, Note_on_c, 9, 40, 100
10, 142464, Note_on_c, 9, 42, 70
10, 142468, Note_off_c, 9, 42, 70
10, 142468, Note_off_c, 9, 40, 100
10, 142468, Note_off_c, 9, 35, 127
10, 142656, Note_on_c, 9, 42, 51
10, 142660, Note_off_c, 9, 42, 51
10, 142752, Note_on_c, 9, 42, 52
10, 142756, Note_off_c, 9, 42, 52
10, 142848, Note_on_c, 9, 35, 127
10, 142848, Note_on_c, 9, 42, 77
10, 142852, Note_off_c, 9, 42, 77
10, 142852, Note_off_c, 9, 35, 127
10, 143040, Note_on_c, 9, 42, 60
10, 143044, Note_off_c, 9, 42, 60
10, 143136, Note_on_c, 9, 42, 44
10, 143140, Note_off_c, 9, 42, 44
10, 143232, Note_on_c, 9, 35, 127
10, 143232, Note_on_c, 9, 40, 100
10, 143232, Note_on_c, 9, 42, 69
10, 143236, Note_off_c, 9, 42, 69
10, 143236, Note_off_c, 9, 40, 100
10, 143236, Note_off_c, 9, 35, 127
10, 143424, Note_on_c, 9, 42, 55
10, 143428, Note_off_c, 9, 42, 55
10, 143520, Note_on_c, 9, 42, 40
10, 143524, Note_off_c, 9, 42, 40
10, 143616, Note_on_c, 9, 35, 127
10, 143616, Note_on_c, 9, 42, 62
10, 143620, Note_off_c, 9, 42, 62
10, 143620, Note_off_c, 9, 35, 127
10, 143712, Note_on_c, 9, 42, 42
10, 143716, Note_off_c, 9, 42, 42
10, 143808, Note_on_c, 9, 42, 50
10, 143812, Note_off_c, 9, 42, 50
10, 143904, Note_on_c, 9, 42, 53
10, 143908, Note_off_c, 9, 42, 53
10, 144000, Note_on_c, 9, 35, 127
10, 144000, Note_on_c, 9, 40, 100
10, 144000, Note_on_c, 9, 42, 69
10, 144004, Note_off_c, 9, 42, 69
10, 144004, Note_off_c, 9, 40, 100
10, 144004, Note_off_c, 9, 35, 127
10, 144192, Note_on_c, 9, 42, 61
10, 144196, Note_off_c, 9, 42, 61
10, 144288, Note_on_c, 9, 42, 46
10, 144292, Note_off_c, 9, 42, 46
10, 144384, Note_on_c, 9, 35, 127
10, 144384, Note_on_c, 9, 42, 58
10, 144388, Note_off_c, 9, 42, 58
10, 144388, Note_off_c, 9, 35, 127
10, 144576, Note_on_c, 9, 42, 60
10, 144580, Note_off_c, 9, 42, 60
10, 144672, Note_on_c, 9, 42, 43
10, 144676, Note_off_c, 9, 42, 43
10, 144768, Note_on_c, 9, 35, 127
10, 144768, Note_on_c, 9, 40, 100
10, 144768, Note_on_c, 9, 42, 69
10, 144772, Note_off_c, 9, 42, 69
10, 144772, Note_off_c, 9, 40, 100
10, 144772, Note_off_c, 9, 35, 127
10, 144960, Note_on_c, 9, 42, 65
10, 144964, Note_off_c, 9, 42, 65
10, 145056, Note_on_c, 9, 42, 34
10, 145060, Note_off_c, 9, 42, 34
10, 145152, Note_on_c, 9, 35, 127
10, 145152, Note_on_c, 9, 42, 64
10, 145156, Note_off_c, 9, 42, 64
10, 145156, Note_off_c, 9, 35, 127
10, 145248, Note_on_c, 9, 42, 47
10, 145252, Note_off_c, 9, 42, 47
10, 145344, Note_on_c, 9, 42, 62
10, 145348, Note_off_c, 9, 42, 62
10, 145440, Note_on_c, 9, 42, 55
10, 145444, Note_off_c, 9, 42, 55
10, 145536, Note_on_c, 9, 35, 127
10, 145536, Note_on_c, 9, 40, 100
10, 145536, Note_on_c, 9, 42, 70
10, 145540, Note_off_c, 9, 42, 70
10, 145540, Note_off_c, 9, 40, 100
10, 145540, Note_off_c, 9, 35, 127
10, 145728, Note_on_c, 9, 42, 51
10, 145732, Note_off_c, 9, 42, 51
10, 145824, Note_on_c, 9, 42, 52
10, 145828, Note_off_c, 9, 42, 52
10, 145920, Note_on_c, 9, 35, 127
10, 145920, Note_on_c, 9, 42, 77
10, 145924, Note_off_c, 9, 42, 77
10, 145924, Note_off_c, 9, 35, 127
10, 146112, Note_on_c, 9, 42, 60
10, 146116, Note_off_c, 9, 42, 60
10, 146208, Note_on_c, 9, 42, 44
10, 146212, Note_off_c, 9, 42, 44
10, 146304, Note_on_c, 9, 35, 127
10, 146304, Note_on_c, 9, 40, 100
10, 146304, Note_on_c, 9, 42, 69
10, 146308, Note_off_c, 9, 42, 69
10, 146308, Note_off_c, 9, 40, 100
10, 146308, Note_off_c, 9, 35, 127
10, 146496, Note_on_c, 9, 42, 55
10, 146500, Note_off_c, 9, 42, 55
10, 146592, Note_on_c, 9, 42, 40
10, 146596, Note_off_c, 9, 42, 40
10, 146688, Note_on_c, 9, 35, 127
10, 146688, Note_on_c, 9, 42, 62
10, 146692, Note_off_c, 9, 42, 62
10, 146692, Note_off_c, 9, 35, 127
10, 146784, Note_on_c, 9, 42, 42
10, 146788, Note_off_c, 9, 42, 42
10, 146880, Note_on_c, 9, 42, 50
10, 146884, Note_off_c, 9, 42, 50
10, 146976, Note_on_c, 9, 42, 53
10, 146980, Note_off_c, 9, 42, 53
10, 147072, Note_on_c, 9, 35, 127
10, 147072, Note_on_c, 9, 40, 100
10, 147072, Note_on_c, 9, 42, 69
10, 147076, Note_off_c, 9, 42, 69
10, 147076, Note_off_c, 9, 40, 100
10, 147076, Note_off_c, 9, 35, 127
10, 147264, Note_on_c, 9, 42, 61
10, 147268, Note_off_c, 9, 42, 61
10, 147360, Note_on_c, 9, 42, 46
10, 147364, Note_off_c, 9, 42, 46
10, 147456, Note_on_c, 9, 35, 127
10, 147456, Note_on_c, 9, 42, 58
10, 147460, Note_off_c, 9, 42, 58
10, 147460, Note_off_c, 9, 35, 127
10, 147648, Note_on_c, 9, 42, 60
10, 147652, Note_off_c, 9, 42, 60
10, 147744, Note_on_c, 9, 42, 43
10, 147748, Note_off_c, 9, 42, 43
10, 147840, Note_on_c, 9, 35, 127
10, 147840, Note_on_c, 9, 40, 100
10, 147840, Note_on_c, 9, 42, 69
10, 147844, Note_off_c, 9, 42, 69
10, 147844, Note_off_c, 9, 40, 100
10, 147844, Note_off_c, 9, 35, 127
10, 148032, Note_on_c, 9, 42, 65
10, 148036, Note_off_c, 9, 42, 65
10, 148128, Note_on_c, 9, 42, 34
10, 148132, Note_off_c, 9, 42, 34
10, 148224, Note_on_c, 9, 35, 127
10, 148224, Note_on_c, 9, 42, 64
10, 148228, Note_off_c, 9, 42, 64
10, 148228, Note_off_c, 9, 35, 127
10, 148320, Note_on_c, 9, 42, 47
10, 148324, Note_off_c, 9, 42, 47
10, 148416, Note_on_c, 9, 42, 62
10, 148420, Note_off_c, 9, 42, 62
10, 148512, Note_on_c, 9, 42, 55
10, 148516, Note_off_c, 9, 42, 55
10, 148608, Note_on_c, 9, 35, 127
10, 148608, Note_on_c, 9, 40, 100
10, 148608, Note_on_c, 9, 42, 70
10, 148612, Note_off_c, 9, 42, 70
10, 148612, Note_off_c, 9, 40, 100
10, 148612, Note_off_c, 9, 35, 127
10, 148800, Note_on_c, 9, 42, 51
10, 148804, Note_off_c, 9, 42, 51
10, 148896, Note_on_c, 9, 42, 52
10, 148900, Note_off_c, 9, 42, 52
10, 148992, Note_on_c, 9, 35, 127
10, 148992, Note_on_c, 9, 42, 77
10, 148996, Note_off_c, 9, 42, 77
10, 148996, Note_off_c, 9, 35, 127
10, 149184, Note_on_c, 9, 42, 60
10, 149188, Note_off_c, 9, 42, 60
10, 149280, Note_on_c, 9, 42, 44
10, 149284, Note_off_c, 9, 42, 44
10, 149376, Note_on_c, 9, 35, 127
10, 149376, Note_on_c, 9, 40, 100
10, 149376, Note_on_c, 9, 42, 69
10, 149380, Note_off_c, 9, 42, 69
10, 149380, Note_off_c, 9, 40, 100
10, 149380, Note_off_c, 9, 35, 127
10, 149568, Note_on_c, 9, 42, 55
10, 149572, Note_off_c, 9, 42, 55
10, 149664, Note_on_c, 9, 42, 40
10, 149668, Note_off_c, 9, 42, 40
10, 149760, Note_on_c, 9, 35, 127
10, 149760, Note_on_c, 9, 42, 62
10, 149764, Note_off_c, 9, 42, 62
10, 149764, Note_off_c, 9, 35, 127
10, 149856, Note_on_c, 9, 42, 42
10, 149860, Note_off_c, 9, 42, 42
10, 149952, Note_on_c, 9, 42, 50
10, 149956, Note_off_c, 9, 42, 50
10, 150048, Note_on_c, 9, 42, 53
10, 150052, Note_off_c, 9, 42, 53
10, 150144, Note_on_c, 9, 35, 127
10, 150144, Note_on_c, 9, 40, 100
10, 150144, Note_on_c, 9, 42, 69
10, 150148, Note_off_c, 9, 42, 69
10, 150148, Note_off_c, 9, 40, 100
10, 150148, Note_off_c, 9, 35, 127
10, 150336, Note_on_c, 9, 42, 61
10, 150340, Note_off_c, 9, 42, 61
10, 150432, Note_on_c, 9, 42, 46
10, 150436, Note_off_c, 9, 42, 46
10, 150528, Note_on_c, 9, 35, 127
10, 150528, Note_on_c, 9, 42, 58
10, 150532, Note_off_c, 9, 42, 58
10, 150532, Note_off_c, 9, 35, 127
10, 150720, Note_on_c, 9, 42, 60
10, 150724, Note_off_c, 9, 42, 60
10, 150816, Note_on_c, 9, 42, 43
10, 150820, Note_off_c, 9, 42, 43
10, 150912, Note_on_c, 9, 35, 127
10, 150912, Note_on_c, 9, 40, 100
10, 150912, Note_on_c, 9, 42, 69
10, 150916, Note_off_c, 9, 42, 69
10, 150916, Note_off_c, 9, 40, 100
10, 150916, Note_off_c, 9, 35, 127
10, 151104, Note_on_c, 9, 42, 65
10, 151108, Note_off_c, 9, 42, 65
10, 151200, Note_on_c, 9, 42, 34
10, 151204, Note_off_c, 9, 42, 34
10, 151296, Note_on_c, 9, 35, 127
10, 151296, Note_on_c, 9, 42, 64
10, 151300, Note_off_c, 9, 42, 64
10, 151300, Note_off_c, 9, 35, 127
10, 151392, Note_on_c, 9, 42, 47
10, 151396, Note_off_c, 9, 42, 47
10, 151488, Note_on_c, 9, 42, 62
10, 151492, Note_off_c, 9, 42, 62
10, 151584, Note_on_c, 9, 42, 55
10, 151588, Note_off_c, 9, 42, 55
10, 151680, Note_on_c, 9, 35, 127
10, 151680, Note_on_c, 9, 40, 100
10, 151680, Note_on_c, 9, 42, 70
10, 151684, Note_off_c, 9, 42, 70
10, 151684, Note_off_c, 9, 40, 100
10, 151684, Note_off_c, 9, 35, 127
10, 151872, Note_on_c, 9, 42, 51
10, 151876, Note_off_c, 9, 42, 51
10, 151968, Note_on_c, 9, 42, 52
10, 151972, Note_off_c, 9, 42, 52
10, 152064, Note_on_c, 9, 35, 127
10, 152064, Note_on_c, 9, 42, 77
10, 152068, Note_off_c, 9, 42, 77
10, 152068, Note_off_c, 9, 35, 127
10, 152256, Note_on_c, 9, 42, 60
10, 152260, Note_off_c, 9, 42, 60
10, 152352, Note_on_c, 9, 42, 44
10, 152356, Note_off_c, 9, 42, 44
10, 152448, Note_on_c, 9, 35, 127
10, 152448, Note_on_c, 9, 40, 100
10, 152448, Note_on_c, 9, 42, 69
10, 152452, Note_off_c, 9, 42, 69
10, 152452, Note_off_c, 9, 40, 100
10, 152452, Note_off_c, 9, 35, 127
10, 152640, Note_on_c, 9, 42, 55
10, 152644, Note_off_c, 9, 42, 55
10, 152736, Note_on_c, 9, 42, 40
10, 152740, Note_off_c, 9, 42, 40
10, 152832, Note_on_c, 9, 35, 127
10, 152832, Note_on_c, 9, 42, 62
10, 152836, Note_off_c, 9, 42, 62
10, 152836, Note_off_c, 9, 35, 127
10, 152928, Note_on_c, 9, 42, 42
10, 152932, Note_off_c, 9, 42, 42
10, 153024, Note_on_c, 9, 42, 50
10, 153028, Note_off_c, 9, 42, 50
10, 153120, Note_on_c, 9, 42, 53
10, 153124, Note_off_c, 9, 42, 53
10, 153216, Note_on_c, 9, 35, 127
10, 153216, Note_on_c, 9, 40, 100
10, 153216, Note_on_c, 9, 42, 69
10, 153220, Note_off_c, 9, 42, 69
10, 153220, Note_off_c, 9, 40, 100
10, 153220, Note_off_c, 9, 35, 127
10, 153408, Note_on_c, 9, 42, 61
10, 153412, Note_off_c, 9, 42, 61
10, 153504, Note_on_c, 9, 42, 46
10, 153508, Note_off_c, 9, 42, 46
10, 153600, Note_on_c, 9, 35, 127
10, 153600, Note_on_c, 9, 42, 58
10, 153604, Note_off_c, 9, 42, 58
10, 153604, Note_off_c, 9, 35, 127
10, 153792, Note_on_c, 9, 42, 60
10, 153796, Note_off_c, 9, 42, 60
10, 153888, Note_on_c, 9, 42, 43
10, 153892, Note_off_c, 9, 42, 43
10, 153984, Note_on_c, 9, 35, 127
10, 153984, Note_on_c, 9, 40, 100
10, 153984, Note_on_c, 9, 42, 69
10, 153988, Note_off_c, 9, 42, 69
10, 153988, Note_off_c, 9, 40, 100
10, 153988, Note_off_c, 9, 35, 127
10, 154176, Note_on_c, 9, 42, 65
10, 154180, Note_off_c, 9, 42, 65
10, 154272, Note_on_c, 9, 42, 34
10, 154276, Note_off_c, 9, 42, 34
10, 154368, Note_on_c, 9, 35, 127
10, 154368, Note_on_c, 9, 42, 64
10, 154372, Note_off_c, 9, 42, 64
10, 154372, Note_off_c, 9, 35, 127
10, 154464, Note_on_c, 9, 42, 47
10, 154468, Note_off_c, 9, 42, 47
10, 154560, Note_on_c, 9, 42, 62
10, 154564, Note_off_c, 9, 42, 62
10, 154656, Note_on_c, 9, 42, 55
10, 154660, Note_off_c, 9, 42, 55
10, 154752, Note_on_c, 9, 35, 127
10, 154752, Note_on_c, 9, 40, 100
10, 154752, Note_on_c, 9, 42, 70
10, 154756, Note_off_c, 9, 42, 70
10, 154756, Note_off_c, 9, 40, 100
10, 154756, Note_off_c, 9, 35, 127
10, 154944, Note_on_c, 9, 42, 51
10, 154948, Note_off_c, 9, 42, 51
10, 155040, Note_on_c, 9, 42, 52
10, 155044, Note_off_c, 9, 42, 52
10, 155136, Note_on_c, 9, 35, 127
10, 155136, Note_on_c, 9, 42, 77
10, 155140, Note_off_c, 9, 42, 77
10, 155140, Note_off_c, 9, 35, 127
10, 155328, Note_on_c, 9, 42, 60
10, 155332, Note_off_c, 9, 42, 60
10, 155424, Note_on_c, 9, 42, 44
10, 155428, Note_off_c, 9, 42, 44
10, 155520, Note_on_c, 9, 35, 127
10, 155520, Note_on_c, 9, 40, 100
10, 155520, Note_on_c, 9, 42, 69
10, 155524, Note_off_c, 9, 42, 69
10, 155524, Note_off_c, 9, 40, 100
10, 155524, Note_off_c, 9, 35, 127
10, 155712, Note_on_c, 9, 42, 55
10, 155716, Note_off_c, 9, 42, 55
10, 155808, Note_on_c, 9, 42, 40
10, 155812, Note_off_c, 9, 42, 40
10, 155904, Note_on_c, 9, 35, 127
10, 155904, Note_on_c, 9, 42, 62
10, 155908, Note_off_c, 9, 42, 62
10, 155908, Note_off_c, 9, 35, 127
10, 156000, Note_on_c, 9, 42, 42
10, 156004, Note_off_c, 9, 42, 42
10, 156096, Note_on_c, 9, 42, 50
10, 156100, Note_off_c, 9, 42, 50
10, 156192, Note_on_c, 9, 42, 53
10, 156196, Note_off_c, 9, 42, 53
10, 156288, Note_on_c, 9, 35, 127
10, 156288, Note_on_c, 9, 40, 100
10, 156288, Note_on_c, 9, 42, 69
10, 156292, Note_off_c, 9, 42, 69
10, 156292, Note_off_c, 9, 40, 100
10, 156292, Note_off_c, 9, 35, 127
10, 156480, Note_on_c, 9, 42, 61
10, 156484, Note_off_c, 9, 42, 61
10, 156576, Note_on_c, 9, 42, 46
10, 156580, Note_off_c, 9, 42, 46
10, 156672, Note_on_c, 9, 35, 127
10, 156672, Note_on_c, 9, 42, 58
10, 156676, Note_off_c, 9, 42, 58
10, 156676, Note_off_c, 9, 35, 127
10, 156864, Note_on_c, 9, 42, 60
10, 156868, Note_off_c, 9, 42, 60
10, 156960, Note_on_c, 9, 42, 43
10, 156964, Note_off_c, 9, 42, 43
10, 157056, Note_on_c, 9, 35, 127
10, 157056, Note_on_c, 9, 40, 100
10, 157056, Note_on_c, 9, 42, 69
10, 157060, Note_off_c, 9, 42, 69
10, 157060, Note_off_c, 9, 40, 100
10, 157060, Note_off_c, 9, 35, 127
10, 157248, Note_on_c, 9, 42, 65
10, 157252, Note_off_c, 9, 42, 65
10, 157344, Note_on_c, 9, 42, 34
10, 157348, Note_off_c, 9, 42, 34
10, 157440, Note_on_c, 9, 35, 127
10, 157440, Note_on_c, 9, 42, 64
10, 157444, Note_off_c, 9, 42, 64
10, 157444, Note_off_c, 9, 35, 127
10, 157536, Note_on_c, 9, 42, 47
10, 157540, Note_off_c, 9, 42, 47
10, 157632, Note_on_c, 9, 42, 62
10, 157636, Note_off_c, 9, 42, 62
10, 157728, Note_on_c, 9, 42, 55
10, 157732, Note_off_c, 9, 42, 55
10, 157824, Note_on_c, 9, 35, 127
10, 157824, Note_on_c, 9, 40, 100
10, 157824, Note_on_c, 9, 42, 70
10, 157828, Note_off_c, 9, 42, 70
10, 157828, Note_off_c, 9, 40, 100
10, 157828, Note_off_c, 9, 35, 127
10, 158016, Note_on_c, 9, 42, 51
10, 158020, Note_off_c, 9, 42, 51
10, 158112, Note_on_c, 9, 42, 52
10, 158116, Note_off_c, 9, 42, 52
10, 158208, Note_on_c, 9, 35, 127
10, 158208, Note_on_c, 9, 42, 77
10, 158212, Note_off_c, 9, 42, 77
10, 158212, Note_off_c, 9, 35, 127
10, 158400, Note_on_c, 9, 42, 60
10, 158404, Note_off_c, 9, 42, 60
10, 158496, Note_on_c, 9, 42, 44
10, 158500, Note_off_c, 9, 42, 44
10, 158592, Note_on_c, 9, 35, 127
10, 158592, Note_on_c, 9, 40, 100
10, 158592, Note_on_c, 9, 42, 69
10, 158596, Note_off_c, 9, 42, 69
10, 158596, Note_off_c, 9, 40, 100
10, 158596, Note_off_c, 9, 35, 127
10, 158784, Note_on_c, 9, 42, 55
10, 158788, Note_off_c, 9, 42, 55
10, 158880, Note_on_c, 9, 42, 40
10, 158884, Note_off_c, 9, 42, 40
10, 158976, Note_on_c, 9, 35, 127
10, 158976, Note_on_c, 9, 42, 62
10, 158980, Note_off_c, 9, 42, 62
10, 158980, Note_off_c, 9, 35, 127
10, 159072, Note_on_c, 9, 42, 42
10, 159076, Note_off_c, 9, 42, 42
10, 159168, Note_on_c, 9, 42, 50
10, 159172, Note_off_c, 9, 42, 50
10, 159264, Note_on_c, 9, 42, 53
10, 159268, Note_off_c, 9, 42, 53
10, 159360, Note_on_c, 9, 35, 127
10, 159360, Note_on_c, 9, 40, 100
10, 159360, Note_on_c, 9, 42, 69
10, 159364, Note_off_c, 9, 42, 69
10, 159364, Note_off_c, 9, 40, 100
10, 159364, Note_off_c, 9, 35, 127
10, 159552, Note_on_c, 9, 42, 61
10, 159556, Note_off_c, 9, 42, 61
10, 159648, Note_on_c, 9, 42, 46
10, 159652, Note_off_c, 9, 42, 46
10, 159744, Note_on_c, 9, 35, 127
10, 159744, Note_on_c, 9, 42, 58
10, 159748, Note_off_c, 9, 42, 58
10, 159748, Note_off_c, 9, 35, 127
10, 159936, Note_on_c, 9, 42, 60
10, 159940, Note_off_c, 9, 42, 60
10, 160032, Note_on_c, 9, 42, 43
10, 160036, Note_off_c, 9, 42, 43
10, 160128, Note_on_c, 9, 35, 127
10, 160128, Note_on_c, 9, 40, 100
10, 160128, Note_on_c, 9, 42, 69
10, 160132, Note_off_c, 9, 42, 69
10, 160132, Note_off_c, 9, 40, 100
10, 160132, Note_off_c, 9, 35, 127
10, 160320, Note_on_c, 9, 42, 65
10, 160324, Note_off_c, 9, 42, 65
10, 160416, Note_on_c, 9, 42, 34
10, 160420, Note_off_c, 9, 42, 34
10, 160512, Note_on_c, 9, 35, 127
10, 160512, Note_on_c, 9, 42, 64
10, 160516, Note_off_c, 9, 42, 64
10, 160516, Note_off_c, 9, 35, 127
10, 160608, Note_on_c, 9, 42, 47
10, 160612, Note_off_c, 9, 42, 47
10, 160704, Note_on_c, 9, 42, 62
10, 160708, Note_off_c, 9, 42, 62
10, 160800, Note_on_c, 9, 42, 55
10, 160804, Note_off_c, 9, 42, 55
10, 160896, Note_on_c, 9, 35, 127
10, 160896, Note_on_c, 9, 40, 100
10, 160896, Note_on_c, 9, 42, 70
10, 160900, Note_off_c, 9, 42, 70
10, 160900, Note_off_c, 9, 40, 100
10, 160900, Note_off_c, 9, 35, 127
10, 161088, Note_on_c, 9, 42, 51
10, 161092, Note_off_c, 9, 42, 51
10, 161184, Note_on_c, 9, 42, 52
10, 161188, Note_off_c, 9, 42, 52
10, 161280, Note_on_c, 9, 35, 127
10, 161280, Note_on_c, 9, 42, 77
10, 161284, Note_off_c, 9, 42, 77
10, 161284, Note_off_c, 9, 35, 127
10, 161472, Note_on_c, 9, 42, 60
10, 161476, Note_off_c, 9, 42, 60
10, 161568, Note_on_c, 9, 42, 44
10, 161572, Note_off_c, 9, 42, 44
10, 161664, Note_on_c, 9, 35, 127
10, 161664, Note_on_c, 9, 40, 100
10, 161664, Note_on_c, 9, 42, 69
10, 161668, Note_off_c, 9, 42, 69
10, 161668, Note_off_c, 9, 40, 100
10, 161668, Note_off_c, 9, 35, 127
10, 161856, Note_on_c, 9, 42, 55
10, 161860, Note_off_c, 9, 42, 55
10, 161952, Note_on_c, 9, 42, 40
10, 161956, Note_off_c, 9, 42, 40
10, 162048, Note_on_c, 9, 35, 127
10, 162048, Note_on_c, 9, 46, 62
10, 162052, Note_off_c, 9, 46, 62
10, 162052, Note_off_c, 9, 35, 127
10, 165888, Note_on_c, 9, 35, 127
10, 165888, Note_on_c, 9, 57, 92
10, 165888, Note_on_c, 9, 42, 77
10, 165892, Note_off_c, 9, 42, 77
10, 165892, Note_off_c, 9, 57, 92
10, 165892, Note_off_c, 9, 35, 127
10, 166080, Note_on_c, 9, 42, 60
10, 166084, Note_off_c, 9, 42, 60
10, 166176, Note_on_c, 9, 42, 44
10, 166180, Note_off_c, 9, 42, 44
10, 166272, Note_on_c, 9, 35, 127
10, 166272, Note_on_c, 9, 40, 100
10, 166272, Note_on_c, 9, 42, 69
10, 166276, Note_off_c, 9, 42, 69
10, 166276, Note_off_c, 9, 40, 100
10, 166276, Note_off_c, 9, 35, 127
10, 166464, Note_on_c, 9, 42, 55
10, 166468, Note_off_c, 9, 42, 55
10, 166560, Note_on_c, 9, 42, 40
10, 166564, Note_off_c, 9, 42, 40
10, 166656, Note_on_c, 9, 35, 127
10, 166656, Note_on_c, 9, 42, 62
10, 166660, Note_off_c, 9, 42, 62
10, 166660, Note_off_c, 9, 35, 127
10, 166752, Note_on_c, 9, 42, 42
10, 166756, Note_off_c, 9, 42, 42
10, 166848, Note_on_c, 9, 42, 50
10, 166852, Note_off_c, 9, 42, 50
10, 166944, Note_on_c, 9, 42, 53
10, 166948, Note_off_c, 9, 42, 53
10, 167040, Note_on_c, 9, 35, 127
10, 167040, Note_on_c, 9, 40, 100
10, 167040, Note_on_c, 9, 42, 69
10, 167044, Note_off_c, 9, 42, 69
10, 167044, Note_off_c, 9, 40, 100
10, 167044, Note_off_c, 9, 35, 127
10, 167232, Note_on_c, 9, 42, 61
10, 167236, Note_off_c, 9, 42, 61
10, 167328, Note_on_c, 9, 42, 46
10, 167332, Note_off_c, 9, 42, 46
10, 167424, Note_on_c, 9, 35, 127
10, 167424, Note_on_c, 9, 42, 58
10, 167428, Note_off_c, 9, 42, 58
10, 167428, Note_off_c, 9, 35, 127
10, 167616, Note_on_c, 9, 42, 60
10, 167620, Note_off_c, 9, 42, 60
10, 167712, Note_on_c, 9, 42, 43
10, 167716, Note_off_c, 9, 42, 43
10, 167808, Note_on_c, 9, 35, 127
10, 167808, Note_on_c, 9, 40, 100
10, 167808, Note_on_c, 9, 42, 69
10, 167812, Note_off_c, 9, 42, 69
10, 167812, Note_off_c, 9, 40, 100
10, 167812, Note_off_c, 9, 35, 127
10, 168000, Note_on_c, 9, 42, 65
10, 168004, Note_off_c, 9, 42, 65
10, 168096, Note_on_c, 9, 42, 34
10, 168100, Note_off_c, 9, 42, 34
10, 168192, Note_on_c, 9, 35, 127
10, 168192, Note_on_c, 9, 42, 64
10, 168196, Note_off_c, 9, 42, 64
10, 168196, Note_off_c, 9, 35, 127
10, 168288, Note_on_c, 9, 42, 47
10, 168292, Note_off_c, 9, 42, 47
10, 168384, Note_on_c, 9, 42, 62
10, 168388, Note_off_c, 9, 42, 62
10, 168480, Note_on_c, 9, 42, 55
10, 168484, Note_off_c, 9, 42, 55
10, 168576, Note_on_c, 9, 35, 127
10, 168576, Note_on_c, 9, 40, 100
10, 168576, Note_on_c, 9, 42, 70
10, 168580, Note_off_c, 9, 42, 70
10, 168580, Note_off_c, 9, 40, 100
10, 168580, Note_off_c, 9, 35, 127
10, 168768, Note_on_c, 9, 42, 51
10, 168772, Note_off_c, 9, 42, 51
10, 168864, Note_on_c, 9, 42, 52
10, 168868, Note_off_c, 9, 42, 52
10, 168960, Note_on_c, 9, 35, 127
10, 168960, Note_on_c, 9, 42, 77
10, 168964, Note_off_c, 9, 42, 77
10, 168964, Note_off_c, 9, 35, 127
10, 169152, Note_on_c, 9, 42, 60
10, 169156, Note_off_c, 9, 42, 60
10, 169248, Note_on_c, 9, 42, 44
10, 169252, Note_off_c, 9, 42, 44
10, 169344, Note_on_c, 9, 35, 127
10, 169344, Note_on_c, 9, 40, 100
10, 169344, Note_on_c, 9, 42, 69
10, 169348, Note_off_c, 9, 42, 69
10, 169348, Note_off_c, 9, 40, 100
10, 169348, Note_off_c, 9, 35, 127
10, 169536, Note_on_c, 9, 42, 55
10, 169540, Note_off_c, 9, 42, 55
10, 169632, Note_on_c, 9, 42, 40
10, 169636, Note_off_c, 9, 42, 40
10, 169728, Note_on_c, 9, 35, 127
10, 169728, Note_on_c, 9, 42, 62
10, 169732, Note_off_c, 9, 42, 62
10, 169732, Note_off_c, 9, 35, 127
10, 169824, Note_on_c, 9, 42, 42
10, 169828, Note_off_c, 9, 42, 42
10, 169920, Note_on_c, 9, 42, 50
10, 169924, Note_off_c, 9, 42, 50
10, 170016, Note_on_c, 9, 42, 53
10, 170020, Note_off_c, 9, 42, 53
10, 170112, Note_on_c, 9, 35, 127
10, 170112, Note_on_c, 9, 40, 100
10, 170112, Note_on_c, 9, 42, 69
10, 170116, Note_off_c, 9, 42, 69
10, 170116, Note_off_c, 9, 40, 100
10, 170116, Note_off_c, 9, 35, 127
10, 170304, Note_on_c, 9, 42, 61
10, 170308, Note_off_c, 9, 42, 61
10, 170400, Note_on_c, 9, 42, 46
10, 170404, Note_off_c, 9, 42, 46
10, 170496, Note_on_c, 9, 35, 127
10, 170496, Note_on_c, 9, 42, 58
10, 170500, Note_off_c, 9, 42, 58
10, 170500, Note_off_c, 9, 35, 127
10, 170688, Note_on_c, 9, 42, 60
10, 170692, Note_off_c, 9, 42, 60
10, 170784, Note_on_c, 9, 42, 43
10, 170788, Note_off_c, 9, 42, 43
10, 170880, Note_on_c, 9, 35, 127
10, 170880, Note_on_c, 9, 40, 100
10, 170880, Note_on_c, 9, 42, 69
10, 170884, Note_off_c, 9, 42, 69
10, 170884, Note_off_c, 9, 40, 100
10, 170884, Note_off_c, 9, 35, 127
10, 171072, Note_on_c, 9, 42, 65
10, 171076, Note_off_c, 9, 42, 65
10, 171168, Note_on_c, 9, 42, 34
10, 171172, Note_off_c, 9, 42, 34
10, 171264, Note_on_c, 9, 35, 127
10, 171264, Note_on_c, 9, 42, 64
10, 171268, Note_off_c, 9, 42, 64
10, 171268, Note_off_c, 9, 35, 127
10, 171360, Note_on_c, 9, 42, 47
10, 171364, Note_off_c, 9, 42, 47
10, 171456, Note_on_c, 9, 42, 62
10, 171460, Note_off_c, 9, 42, 62
10, 171552, Note_on_c, 9, 42, 55
10, 171556, Note_off_c, 9, 42, 55
10, 171648, Note_on_c, 9, 35, 127
10, 171648, Note_on_c, 9, 40, 100
10, 171648, Note_on_c, 9, 42, 70
10, 171652, Note_off_c, 9, 42, 70
10, 171652, Note_off_c, 9, 40, 100
10, 171652, Note_off_c, 9, 35, 127
10, 171840, Note_on_c, 9, 42, 51
10, 171844, Note_off_c, 9, 42, 51
10, 171936, Note_on_c, 9, 42, 52
10, 171940, Note_off_c, 9, 42, 52
10, 172032, Note_on_c, 9, 35, 127
10, 172032, Note_on_c, 9, 42, 77
10, 172036, Note_off_c, 9, 42, 77
10, 172036, Note_off_c, 9, 35, 127
10, 172224, Note_on_c, 9, 42, 60
10, 172228, Note_off_c, 9, 42, 60
10, 172320, Note_on_c, 9, 42, 44
10, 172324, Note_off_c, 9, 42, 44
10, 172416, Note_on_c, 9, 35, 127
10, 172416, Note_on_c, 9, 40, 100
10, 172416, Note_on_c, 9, 42, 69
10, 172420, Note_off_c, 9, 42, 69
10, 172420, Note_off_c, 9, 40, 100
10, 172420, Note_off_c, 9, 35, 127
10, 172608, Note_on_c, 9, 42, 55
10, 172612, Note_off_c, 9, 42, 55
10, 172704, Note_on_c, 9, 42, 40
10, 172708, Note_off_c, 9, 42, 40
10, 172800, Note_on_c, 9, 35, 127
10, 172800, Note_on_c, 9, 42, 62
10, 172804, Note_off_c, 9, 42, 62
10, 172804, Note_off_c, 9, 35, 127
10, 172896, Note_on_c, 9, 42, 42
10, 172900, Note_off_c, 9, 42, 42
10, 172992, Note_on_c, 9, 42, 50
10, 172996, Note_off_c, 9, 42, 50
10, 173088, Note_on_c, 9, 42, 53
10, 173092, Note_off_c, 9, 42, 53
10, 173184, Note_on_c, 9, 35, 127
10, 173184, Note_on_c, 9, 40, 100
10, 173184, Note_on_c, 9, 42, 69
10, 173188, Note_off_c, 9, 42, 69
10, 173188, Note_off_c, 9, 40, 100
10, 173188, Note_off_c, 9, 35, 127
10, 173376, Note_on_c, 9, 42, 61
10, 173380, Note_off_c, 9, 42, 61
10, 173472, Note_on_c, 9, 42, 46
10, 173476, Note_off_c, 9, 42, 46
10, 173568, Note_on_c, 9, 35, 127
10, 173568, Note_on_c, 9, 42, 58
10, 173572, Note_off_c, 9, 42, 58
10, 173572, Note_off_c, 9, 35, 127
10, 173760, Note_on_c, 9, 42, 60
10, 173764, Note_off_c, 9, 42, 60
10, 173856, Note_on_c, 9, 42, 43
10, 173860, Note_off_c, 9, 42, 43
10, 173952, Note_on_c, 9, 35, 127
10, 173952, Note_on_c, 9, 40, 100
10, 173952, Note_on_c, 9, 42, 69
10, 173956, Note_off_c, 9, 42, 69
10, 173956, Note_off_c, 9, 40, 100
10, 173956, Note_off_c, 9, 35, 127
10, 174144, Note_on_c, 9, 42, 65
10, 174148, Note_off_c, 9, 42, 65
10, 174240, Note_on_c, 9, 42, 34
10, 174244, Note_off_c, 9, 42, 34
10, 174336, Note_on_c, 9, 35, 127
10, 174336, Note_on_c, 9, 42, 64
10, 174340, Note_off_c, 9, 42, 64
10, 174340, Note_off_c, 9, 35, 127
10, 174432, Note_on_c, 9, 42, 47
10, 174436, Note_off_c, 9, 42, 47
10, 174528, Note_on_c, 9, 42, 62
10, 174532, Note_off_c, 9, 42, 62
10, 174624, Note_on_c, 9, 42, 55
10, 174628, Note_off_c, 9, 42, 55
10, 174720, Note_on_c, 9, 35, 127
10, 174720, Note_on_c, 9, 40, 100
10, 174720, Note_on_c, 9, 42, 70
10, 174724, Note_off_c, 9, 42, 70
10, 174724, Note_off_c, 9, 40, 100
10, 174724, Note_off_c, 9, 35, 127
10, 174912, Note_on_c, 9, 42, 51
10, 174916, Note_off_c, 9, 42, 51
10, 175008, Note_on_c, 9, 42, 52
10, 175012, Note_off_c, 9, 42, 52
10, 175104, Note_on_c, 9, 35, 127
10, 175104, Note_on_c, 9, 42, 77
10, 175108, Note_off_c, 9, 42, 77
10, 175108, Note_off_c, 9, 35, 127
10, 175296, Note_on_c, 9, 42, 60
10, 175300, Note_off_c, 9, 42, 60
10, 175392, Note_on_c, 9, 42, 44
10, 175396, Note_off_c, 9, 42, 44
10, 175488, Note_on_c, 9, 35, 127
10, 175488, Note_on_c, 9, 40, 100
10, 175488, Note_on_c, 9, 42, 69
10, 175492, Note_off_c, 9, 42, 69
10, 175492, Note_off_c, 9, 40, 100
10, 175492, Note_off_c, 9, 35, 127
10, 175680, Note_on_c, 9, 42, 55
10, 175684, Note_off_c, 9, 42, 55
10, 175776, Note_on_c, 9, 42, 40
10, 175780, Note_off_c, 9, 42, 40
10, 175872, Note_on_c, 9, 35, 127
10, 175872, Note_on_c, 9, 42, 62
10, 175876, Note_off_c, 9, 42, 62
10, 175876, Note_off_c, 9, 35, 127
10, 175968, Note_on_c, 9, 42, 42
10, 175972, Note_off_c, 9, 42, 42
10, 176064, Note_on_c, 9, 42, 50
10, 176068, Note_off_c, 9, 42, 50
10, 176160, Note_on_c, 9, 42, 53
10, 176164, Note_off_c, 9, 42, 53
10, 176256, Note_on_c, 9, 35, 127
10, 176256, Note_on_c, 9, 40, 100
10, 176256, Note_on_c, 9, 42, 69
10, 176260, Note_off_c, 9, 42, 69
10, 176260, Note_off_c, 9, 40, 100
10, 176260, Note_off_c, 9, 35, 127
10, 176448, Note_on_c, 9, 42, 61
10, 176452, Note_off_c, 9, 42, 61
10, 176544, Note_on_c, 9, 42, 46
10, 176548, Note_off_c, 9, 42, 46
10, 176640, Note_on_c, 9, 35, 127
10, 176640, Note_on_c, 9, 42, 58
10, 176644, Note_off_c, 9, 42, 58
10, 176644, Note_off_c, 9, 35, 127
10, 176832, Note_on_c, 9, 42, 60
10, 176836, Note_off_c, 9, 42, 60
10, 176928, Note_on_c, 9, 42, 43
10, 176932, Note_off_c, 9, 42, 43
10, 177024, Note_on_c, 9, 35, 127
10, 177024, Note_on_c, 9, 40, 100
10, 177024, Note_on_c, 9, 42, 69
10, 177028, Note_off_c, 9, 42, 69
10, 177028, Note_off_c, 9, 40, 100
10, 177028, Note_off_c, 9, 35, 127
10, 177216, Note_on_c, 9, 42, 65
10, 177220, Note_off_c, 9, 42, 65
10, 177312, Note_on_c, 9, 42, 34
10, 177316, Note_off_c, 9, 42, 34
10, 177408, Note_on_c, 9, 35, 127
10, 177408, Note_on_c, 9, 42, 64
10, 177412, Note_off_c, 9, 42, 64
10, 177412, Note_off_c, 9, 35, 127
10, 177504, Note_on_c, 9, 42, 47
10, 177508, Note_off_c, 9, 42, 47
10, 177600, Note_on_c, 9, 42, 62
10, 177604, Note_off_c, 9, 42, 62
10, 177696, Note_on_c, 9, 46, 55
10, 177700, Note_off_c, 9, 46, 55
10, 177792, Note_on_c, 9, 35, 127
10, 177792, Note_on_c, 9, 40, 100
10, 177796, Note_off_c, 9, 40, 100
10, 177796, Note_off_c, 9, 35, 127
10, 177888, Note_on_c, 9, 42, 47
10, 177892, Note_off_c, 9, 42, 47
10, 177984, Note_on_c, 9, 46, 51
10, 177988, Note_off_c, 9, 46, 51
10, 178176, Note_on_c, 9, 35, 127
10, 178176, Note_on_c, 9, 57, 92
10, 178176, Note_on_c, 9, 42, 77
10, 178180, Note_off_c, 9, 42, 77
10, 178180, Note_off_c, 9, 57, 92
10, 178180, Note_off_c, 9, 35, 127
10, 178368, Note_on_c, 9, 42, 60
10, 178372, Note_off_c, 9, 42, 60
10, 178464, Note_on_c, 9, 42, 44
10, 178468, Note_off_c, 9, 42, 44
10, 178560, Note_on_c, 9, 35, 127
10, 178560, Note_on_c, 9, 40, 100
10, 178560, Note_on_c, 9, 42, 69
10, 178564, Note_off_c, 9, 42, 69
10, 178564, Note_off_c, 9, 40, 100
10, 178564, Note_off_c, 9, 35, 127
10, 178752, Note_on_c, 9, 42, 55
10, 178756, Note_off_c, 9, 42, 55
10, 178848, Note_on_c, 9, 42, 40
10, 178852, Note_off_c, 9, 42, 40
10, 178944, Note_on_c, 9, 35, 127
10, 178944, Note_on_c, 9, 42, 62
10, 178948, Note_off_c, 9, 42, 62
10, 178948, Note_off_c, 9, 35, 127
10, 179040, Note_on_c, 9, 42, 42
10, 179044, Note_off_c, 9, 42, 42
10, 179136, Note_on_c, 9, 42, 50
10, 179140, Note_off_c, 9, 42, 50
10, 179232, Note_on_c, 9, 42, 53
10, 179236, Note_off_c, 9, 42, 53
10, 179328, Note_on_c, 9, 35, 127
10, 179328, Note_on_c, 9, 40, 100
10, 179328, Note_on_c, 9, 42, 69
10, 179332, Note_off_c, 9, 42, 69
10, 179332, Note_off_c, 9, 40, 100
10, 179332, Note_off_c, 9, 35, 127
10, 179520, Note_on_c, 9, 42, 61
10, 179524, Note_off_c, 9, 42, 61
10, 179616, Note_on_c, 9, 42, 46
10, 179620, Note_off_c, 9, 42, 46
10, 179712, Note_on_c, 9, 35, 127
10, 179712, Note_on_c, 9, 42, 58
10, 179716, Note_off_c, 9, 42, 58
10, 179716, Note_off_c, 9, 35, 127
10, 179904, Note_on_c, 9, 42, 60
10, 179908, Note_off_c, 9, 42, 60
10, 180000, Note_on_c, 9, 42, 43
10, 180004, Note_off_c, 9, 42, 43
10, 180096, Note_on_c, 9, 35, 127
10, 180096, Note_on_c, 9, 40, 100
10, 180096, Note_on_c, 9, 42, 69
10, 180100, Note_off_c, 9, 42, 69
10, 180100, Note_off_c, 9, 40, 100
10, 180100, Note_off_c, 9, 35, 127
10, 180288, Note_on_c, 9, 42, 65
10, 180292, Note_off_c, 9, 42, 65
10, 180384, Note_on_c, 9, 42, 34
10, 180388, Note_off_c, 9, 42, 34
10, 180480, Note_on_c, 9, 35, 127
10, 180480, Note_on_c, 9, 42, 64
10, 180484, Note_off_c, 9, 42, 64
10, 180484, Note_off_c, 9, 35, 127
10, 180576, Note_on_c, 9, 42, 47
10, 180580, Note_off_c, 9, 42, 47
10, 180672, Note_on_c, 9, 42, 62
10, 180676, Note_off_c, 9, 42, 62
10, 180768, Note_on_c, 9, 42, 55
10, 180772, Note_off_c, 9, 42, 55
10, 180864, Note_on_c, 9, 35, 127
10, 180864, Note_on_c, 9, 40, 100
10, 180864, Note_on_c, 9, 42, 70
10, 180868, Note_off_c, 9, 42, 70
10, 180868, Note_off_c, 9, 40, 100
10, 180868, Note_off_c, 9, 35, 127
10, 181056, Note_on_c, 9, 42, 51
10, 181060, Note_off_c, 9, 42, 51
10, 181152, Note_on_c, 9, 42, 52
10, 181156, Note_off_c, 9, 42, 52
10, 181248, Note_on_c, 9, 35, 127
10, 181248, Note_on_c, 9, 42, 77
10, 181252, Note_off_c, 9, 42, 77
10, 181252, Note_off_c, 9, 35, 127
10, 181440, Note_on_c, 9, 42, 60
10, 181444, Note_off_c, 9, 42, 60
10, 181536, Note_on_c, 9, 42, 44
10, 181540, Note_off_c, 9, 42, 44
10, 181632, Note_on_c, 9, 35, 127
10, 181632, Note_on_c, 9, 40, 100
10, 181632, Note_on_c, 9, 42, 69
10, 181636, Note_off_c, 9, 42, 69
10, 181636, Note_off_c, 9, 40, 100
10, 181636, Note_off_c, 9, 35, 127
10, 181824, Note_on_c, 9, 42, 55
10, 181828, Note_off_c, 9, 42, 55
10, 181920, Note_on_c, 9, 42, 40
10, 181924, Note_off_c, 9, 42, 40
10, 182016, Note_on_c, 9, 35, 127
10, 182016, Note_on_c, 9, 42, 62
10, 182020, Note_off_c, 9, 42, 62
10, 182020, Note_off_c, 9, 35, 127
10, 182112, Note_on_c, 9, 42, 42
10, 182116, Note_off_c, 9, 42, 42
10, 182208, Note_on_c, 9, 42, 50
10, 182212, Note_off_c, 9, 42, 50
10, 182304, Note_on_c, 9, 42, 53
10, 182308, Note_off_c, 9, 42, 53
10, 182400, Note_on_c, 9, 35, 127
10, 182400, Note_on_c, 9, 40, 100
10, 182400, Note_on_c, 9, 42, 69
10, 182404, Note_off_c, 9, 42, 69
10, 182404, Note_off_c, 9, 40, 100
10, 182404, Note_off_c, 9, 35, 127
10, 182592, Note_on_c, 9, 42, 61
10, 182596, Note_off_c, 9, 42, 61
10, 182688, Note_on_c, 9, 42, 46
10, 182692, Note_off_c, 9, 42, 46
10, 182784, Note_on_c, 9, 35, 127
10, 182784, Note_on_c, 9, 42, 58
10, 182788, Note_off_c, 9, 42, 58
10, 182788, Note_off_c, 9, 35, 127
10, 182976, Note_on_c, 9, 42, 60
10, 182980, Note_off_c, 9, 42, 60
10, 183072, Note_on_c, 9, 42, 43
10, 183076, Note_off_c, 9, 42, 43
10, 183168, Note_on_c, 9, 35, 127
10, 183168, Note_on_c, 9, 40, 100
10, 183168, Note_on_c, 9, 42, 69
10, 183172, Note_off_c, 9, 42, 69
10, 183172, Note_off_c, 9, 40, 100
10, 183172, Note_off_c, 9, 35, 127
10, 183360, Note_on_c, 9, 42, 65
10, 183364, Note_off_c, 9, 42, 65
10, 183456, Note_on_c, 9, 42, 34
10, 183460, Note_off_c, 9, 42, 34
10, 183552, Note_on_c, 9, 35, 127
10, 183552, Note_on_c, 9, 42, 64
10, 183556, Note_off_c, 9, 42, 64
10, 183556, Note_off_c, 9, 35, 127
10, 183648, Note_on_c, 9, 42, 47
10, 183652, Note_off_c, 9, 42, 47
10, 183744, Note_on_c, 9, 42, 62
10, 183748, Note_off_c, 9, 42, 62
10, 183840, Note_on_c, 9, 42, 55
10, 183844, Note_off_c, 9, 42, 55
10, 183936, Note_on_c, 9, 35, 127
10, 183936, Note_on_c, 9, 40, 100
10, 183936, Note_on_c, 9, 42, 70
10, 183940, Note_off_c, 9, 42, 70
10, 183940, Note_off_c, 9, 40, 100
10, 183940, Note_off_c, 9, 35, 127
10, 184128, Note_on_c, 9, 42, 51
10, 184132, Note_off_c, 9, 42, 51
10, 184224, Note_on_c, 9, 42, 52
10, 184228, Note_off_c, 9, 42, 52
10, 184320, Note_on_c, 9, 35, 127
10, 184320, Note_on_c, 9, 42, 77
10, 184324, Note_off_c, 9, 42, 77
10, 184324, Note_off_c, 9, 35, 127
10, 184512, Note_on_c, 9, 42, 60
10, 184516, Note_off_c, 9, 42, 60
10, 184608, Note_on_c, 9, 42, 44
10, 184612, Note_off_c, 9, 42, 44
10, 184704, Note_on_c, 9, 35, 127
10, 184704, Note_on_c, 9, 40, 100
10, 184704, Note_on_c, 9, 42, 69
10, 184708, Note_off_c, 9, 42, 69
10, 184708, Note_off_c, 9, 40, 100
10, 184708, Note_off_c, 9, 35, 127
10, 184896, Note_on_c, 9, 42, 55
10, 184900, Note_off_c, 9, 42, 55
10, 184992, Note_on_c, 9, 42, 40
10, 184996, Note_off_c, 9, 42, 40
10, 185088, Note_on_c, 9, 35, 127
10, 185088, Note_on_c, 9, 42, 62
10, 185092, Note_off_c, 9, 42, 62
10, 185092, Note_off_c, 9, 35, 127
10, 185184, Note_on_c, 9, 42, 42
10, 185188, Note_off_c, 9, 42, 42
10, 185280, Note_on_c, 9, 42, 50
10, 185284, Note_off_c, 9, 42, 50
10, 185376, Note_on_c, 9, 42, 53
10, 185380, Note_off_c, 9, 42, 53
10, 185472, Note_on_c, 9, 35, 127
10, 185472, Note_on_c, 9, 40, 100
10, 185472, Note_on_c, 9, 42, 69
10, 185476, Note_off_c, 9, 42, 69
10, 185476, Note_off_c, 9, 40, 100
10, 185476, Note_off_c, 9, 35, 127
10, 185664, Note_on_c, 9, 42, 61
10, 185668, Note_off_c, 9, 42, 61
10, 185760, Note_on_c, 9, 42, 46
10, 185764, Note_off_c, 9, 42, 46
10, 185856, Note_on_c, 9, 35, 127
10, 185856, Note_on_c, 9, 42, 58
10, 185860, Note_off_c, 9, 42, 58
10, 185860, Note_off_c, 9, 35, 127
10, 186048, Note_on_c, 9, 42, 60
10, 186052, Note_off_c, 9, 42, 60
10, 186144, Note_on_c, 9, 42, 43
10, 186148, Note_off_c, 9, 42, 43
10, 186240, Note_on_c, 9, 35, 127
10, 186240, Note_on_c, 9, 40, 100
10, 186240, Note_on_c, 9, 42, 69
10, 186244, Note_off_c, 9, 42, 69
10, 186244, Note_off_c, 9, 40, 100
10, 186244, Note_off_c, 9, 35, 127
10, 186432, Note_on_c, 9, 42, 65
10, 186436, Note_off_c, 9, 42, 65
10, 186528, Note_on_c, 9, 42, 34
10, 186532, Note_off_c, 9, 42, 34
10, 186624, Note_on_c, 9, 35, 127
10, 186624, Note_on_c, 9, 42, 64
10, 186628, Note_off_c, 9, 42, 64
10, 186628, Note_off_c, 9, 35, 127
10, 186720, Note_on_c, 9, 42, 47
10, 186724, Note_off_c, 9, 42, 47
10, 186816, Note_on_c, 9, 42, 62
10, 186820, Note_off_c, 9, 42, 62
10, 186912, Note_on_c, 9, 42, 55
10, 186916, Note_off_c, 9, 42, 55
10, 187008, Note_on_c, 9, 35, 127
10, 187008, Note_on_c, 9, 40, 100
10, 187008, Note_on_c, 9, 42, 70
10, 187012, Note_off_c, 9, 42, 70
10, 187012, Note_off_c, 9, 40, 100
10, 187012, Note_off_c, 9, 35, 127
10, 187200, Note_on_c, 9, 42, 51
10, 187204, Note_off_c, 9, 42, 51
10, 187296, Note_on_c, 9, 42, 52
10, 187300, Note_off_c, 9, 42, 52
10, 187392, Note_on_c, 9, 35, 127
10, 187392, Note_on_c, 9, 42, 77
10, 187396, Note_off_c, 9, 42, 77
10, 187396, Note_off_c, 9, 35, 127
10, 187584, Note_on_c, 9, 42, 60
10, 187588, Note_off_c, 9, 42, 60
10, 187680, Note_on_c, 9, 42, 44
10, 187684, Note_off_c, 9, 42, 44
10, 187776, Note_on_c, 9, 35, 127
10, 187776, Note_on_c, 9, 40, 100
10, 187776, Note_on_c, 9, 42, 69
10, 187780, Note_off_c, 9, 42, 69
10, 187780, Note_off_c, 9, 40, 100
10, 187780, Note_off_c, 9, 35, 127
10, 187968, Note_on_c, 9, 42, 55
10, 187972, Note_off_c, 9, 42, 55
10, 188064, Note_on_c, 9, 42, 40
10, 188068, Note_off_c, 9, 42, 40
10, 188160, Note_on_c, 9, 35, 127
10, 188160, Note_on_c, 9, 42, 62
10, 188164, Note_off_c, 9, 42, 62
10, 188164, Note_off_c, 9, 35, 127
10, 188256, Note_on_c, 9, 42, 42
10, 188260, Note_off_c, 9, 42, 42
10, 188352, Note_on_c, 9, 42, 50
10, 188356, Note_off_c, 9, 42, 50
10, 188448, Note_on_c, 9, 42, 53
10, 188452, Note_off_c, 9, 42, 53
10, 188544, Note_on_c, 9, 35, 127
10, 188544, Note_on_c, 9, 40, 100
10, 188544, Note_on_c, 9, 42, 69
10, 188548, Note_off_c, 9, 42, 69
10, 188548, Note_off_c, 9, 40, 100
10, 188548, Note_off_c, 9, 35, 127
10, 188736, Note_on_c, 9, 42, 61
10, 188740, Note_off_c, 9, 42, 61
10, 188832, Note_on_c, 9, 42, 46
10, 188836, Note_off_c, 9, 42, 46
10, 188928, Note_on_c, 9, 35, 127
10, 188928, Note_on_c, 9, 42, 58
10, 188932, Note_off_c, 9, 42, 58
10, 188932, Note_off_c, 9, 35, 127
10, 189120, Note_on_c, 9, 42, 60
10, 189124, Note_off_c, 9, 42, 60
10, 189216, Note_on_c, 9, 42, 43
10, 189220, Note_off_c, 9, 42, 43
10, 189312, Note_on_c, 9, 35, 127
10, 189312, Note_on_c, 9, 40, 100
10, 189312, Note_on_c, 9, 42, 69
10, 189316, Note_off_c, 9, 42, 69
10, 189316, Note_off_c, 9, 40, 100
10, 189316, Note_off_c, 9, 35, 127
10, 189504, Note_on_c, 9, 42, 65
10, 189508, Note_off_c, 9, 42, 65
10, 189600, Note_on_c, 9, 42, 34
10, 189604, Note_off_c, 9, 42, 34
10, 189696, Note_on_c, 9, 35, 127
10, 189696, Note_on_c, 9, 42, 64
10, 189700, Note_off_c, 9, 42, 64
10, 189700, Note_off_c, 9, 35, 127
10, 189792, Note_on_c, 9, 42, 47
10, 189796, Note_off_c, 9, 42, 47
10, 189888, Note_on_c, 9, 42, 62
10, 189892, Note_off_c, 9, 42, 62
10, 189984, Note_on_c, 9, 46, 55
10, 189988, Note_off_c, 9, 46, 55
10, 190080, Note_on_c, 9, 35, 127
10, 190080, Note_on_c, 9, 40, 100
10, 190084, Note_off_c, 9, 40, 100
10, 190084, Note_off_c, 9, 35, 127
10, 190176, Note_on_c, 9, 42, 47
10, 190180, Note_off_c, 9, 42, 47
10, 190272, Note_on_c, 9, 46, 51
10, 190276, Note_off_c, 9, 46, 51
10, 190464, Note_on_c, 9, 35, 127
10, 190464, Note_on_c, 9, 42, 77
10, 190468, Note_off_c, 9, 42, 77
10, 190468, Note_off_c, 9, 35, 127
10, 190656, Note_on_c, 9, 42, 60
10, 190660, Note_off_c, 9, 42, 60
10, 190752, Note_on_c, 9, 42, 44
10, 190756, Note_off_c, 9, 42, 44
10, 190848, Note_on_c, 9, 35, 127
10, 190848, Note_on_c, 9, 40, 100
10, 190848, Note_on_c, 9, 42, 69
10, 190852, Note_off_c, 9, 42, 69
10, 190852, Note_off_c, 9, 40, 100
10, 190852, Note_off_c, 9, 35, 127
10, 191040, Note_on_c, 9, 42, 55
10, 191044, Note_off_c, 9, 42, 55
10, 191136, Note_on_c, 9, 42, 40
10, 191140, Note_off_c, 9, 42, 40
10, 191232, Note_on_c, 9, 35, 127
10, 191232, Note_on_c, 9, 42, 62
10, 191236, Note_off_c, 9, 42, 62
10, 191236, Note_off_c, 9, 35, 127
10, 191328, Note_on_c, 9, 42, 42
10, 191332, Note_off_c, 9, 42, 42
10, 191424, Note_on_c, 9, 42, 50
10, 191428, Note_off_c, 9, 42, 50
10, 191520, Note_on_c, 9, 42, 53
10, 191524, Note_off_c, 9, 42, 53
10, 191616, Note_on_c, 9, 35, 127
10, 191616, Note_on_c, 9, 40, 100
10, 191616, Note_on_c, 9, 42, 69
10, 191620, Note_off_c, 9, 42, 69
10, 191620, Note_off_c, 9, 40, 100
10, 191620, Note_off_c, 9, 35, 127
10, 191808, Note_on_c, 9, 42, 61
10, 191812, Note_off_c, 9, 42, 61
10, 191904, Note_on_c, 9, 42, 46
10, 191908, Note_off_c, 9, 42, 46
10, 192000, Note_on_c, 9, 35, 127
10, 192000, Note_on_c, 9, 57, 92
10, 192000, Note_on_c, 9, 42, 58
10, 192004, Note_off_c, 9, 42, 58
10, 192004, Note_off_c, 9, 57, 92
10, 192004, Note_off_c, 9, 35, 127
10, 192192, Note_on_c, 9, 42, 60
10, 192196, Note_off_c, 9, 42, 60
10, 192288, Note_on_c, 9, 42, 43
10, 192292, Note_off_c, 9, 42, 43
10, 192384, Note_on_c, 9, 35, 127
10, 192384, Note_on_c, 9, 40, 100
10, 192384, Note_on_c, 9, 42, 69
10, 192388, Note_off_c, 9, 42, 69
10, 192388, Note_off_c, 9, 40, 100
10, 192388, Note_off_c, 9, 35, 127
10, 192576, Note_on_c, 9, 42, 65
10, 192580, Note_off_c, 9, 42, 65
10, 192672, Note_on_c, 9, 42, 34
10, 192676, Note_off_c, 9, 42, 34
10, 192768, Note_on_c, 9, 35, 127
10, 192768, Note_on_c, 9, 42, 64
10, 192772, Note_off_c, 9, 42, 64
10, 192772, Note_off_c, 9, 35, 127
10, 192864, Note_on_c, 9, 42, 47
10, 192868, Note_off_c, 9, 42, 47
10, 192960, Note_on_c, 9, 42, 62
10, 192964, Note_off_c, 9, 42, 62
10, 193056, Note_on_c, 9, 42, 55
10, 193060, Note_off_c, 9, 42, 55
10, 193152, Note_on_c, 9, 35, 127
10, 193152, Note_on_c, 9, 40, 100
10, 193152, Note_on_c, 9, 42, 70
10, 193156, Note_off_c, 9, 42, 70
10, 193156, Note_off_c, 9, 40, 100
10, 193156, Note_off_c, 9, 35, 127
10, 193344, Note_on_c, 9, 42, 51
10, 193348, Note_off_c, 9, 42, 51
10, 193440, Note_on_c, 9, 42, 52
10, 193444, Note_off_c, 9, 42, 52
10, 193536, Note_on_c, 9, 35, 127
10, 193536, Note_on_c, 9, 42, 77
10, 193540, Note_off_c, 9, 42, 77
10, 193540, Note_off_c, 9, 35, 127
10, 193728, Note_on_c, 9, 42, 60
10, 193732, Note_off_c, 9, 42, 60
10, 193824, Note_on_c, 9, 42, 44
10, 193828, Note_off_c, 9, 42, 44
10, 193920, Note_on_c, 9, 35, 127
10, 193920, Note_on_c, 9, 40, 100
10, 193920, Note_on_c, 9, 42, 69
10, 193924, Note_off_c, 9, 42, 69
10, 193924, Note_off_c, 9, 40, 100
10, 193924, Note_off_c, 9, 35, 127
10, 194112, Note_on_c, 9, 42, 55
10, 194116, Note_off_c, 9, 42, 55
10, 194208, Note_on_c, 9, 42, 40
10, 194212, Note_off_c, 9, 42, 40
10, 194304, Note_on_c, 9, 35, 127
10, 194304, Note_on_c, 9, 42, 62
10, 194308, Note_off_c, 9, 42, 62
10, 194308, Note_off_c, 9, 35, 127
10, 194400, Note_on_c, 9, 42, 42
10, 194404, Note_off_c, 9, 42, 42
10, 194496, Note_on_c, 9, 42, 50
10, 194500, Note_off_c, 9, 42, 50
10, 194592, Note_on_c, 9, 42, 53
10, 194596, Note_off_c, 9, 42, 53
10, 194688, Note_on_c, 9, 35, 127
10, 194688, Note_on_c, 9, 40, 100
10, 194688, Note_on_c, 9, 42, 69
10, 194692, Note_off_c, 9, 42, 69
10, 194692, Note_off_c, 9, 40, 100
10, 194692, Note_off_c, 9, 35, 127
10, 194880, Note_on_c, 9, 42, 61
10, 194884, Note_off_c, 9, 42, 61
10, 194976, Note_on_c, 9, 42, 46
10, 194980, Note_off_c, 9, 42, 46
10, 195072, Note_on_c, 9, 35, 127
10, 195072, Note_on_c, 9, 42, 58
10, 195076, Note_off_c, 9, 42, 58
10, 195076, Note_off_c, 9, 35, 127
10, 195264, Note_on_c, 9, 42, 60
10, 195268, Note_off_c, 9, 42, 60
10, 195360, Note_on_c, 9, 42, 43
10, 195364, Note_off_c, 9, 42, 43
10, 195456, Note_on_c, 9, 35, 127
10, 195456, Note_on_c, 9, 40, 100
10, 195456, Note_on_c, 9, 42, 69
10, 195460, Note_off_c, 9, 42, 69
10, 195460, Note_off_c, 9, 40, 100
10, 195460, Note_off_c, 9, 35, 127
10, 195648, Note_on_c, 9, 42, 65
10, 195652, Note_off_c, 9, 42, 65
10, 195744, Note_on_c, 9, 42, 34
10, 195748, Note_off_c, 9, 42, 34
10, 195840, Note_on_c, 9, 35, 127
10, 195840, Note_on_c, 9, 42, 64
10, 195844, Note_off_c, 9, 42, 64
10, 195844, Note_off_c, 9, 35, 127
10, 195936, Note_on_c, 9, 42, 47
10, 195940, Note_off_c, 9, 42, 47
10, 196032, Note_on_c, 9, 42, 62
10, 196036, Note_off_c, 9, 42, 62
10, 196128, Note_on_c, 9, 42, 55
10, 196132, Note_off_c, 9, 42, 55
10, 196224, Note_on_c, 9, 35, 127
10, 196224, Note_on_c, 9, 40, 100
10, 196224, Note_on_c, 9, 42, 70
10, 196228, Note_off_c, 9, 42, 70
10, 196228, Note_off_c, 9, 40, 100
10, 196228, Note_off_c, 9, 35, 127
10, 196416, Note_on_c, 9, 42, 51
10, 196420, Note_off_c, 9, 42, 51
10, 196512, Note_on_c, 9, 42, 52
10, 196516, Note_off_c, 9, 42, 52
10, 196608, Note_on_c, 9, 35, 127
10, 196608, Note_on_c, 9, 42, 77
10, 196612, Note_off_c, 9, 42, 77
10, 196612, Note_off_c, 9, 35, 127
10, 196800, Note_on_c, 9, 42, 60
10, 196804, Note_off_c, 9, 42, 60
10, 196896, Note_on_c, 9, 42, 44
10, 196900, Note_off_c, 9, 42, 44
10, 196992, Note_on_c, 9, 35, 127
10, 196992, Note_on_c, 9, 40, 100
10, 196992, Note_on_c, 9, 42, 69
10, 196996, Note_off_c, 9, 42, 69
10, 196996, Note_off_c, 9, 40, 100
10, 196996, Note_off_c, 9, 35, 127
10, 197184, Note_on_c, 9, 42, 55
10, 197188, Note_off_c, 9, 42, 55
10, 197280, Note_on_c, 9, 42, 40
10, 197284, Note_off_c, 9, 42, 40
10, 197376, Note_on_c, 9, 35, 127
10, 197376, Note_on_c, 9, 42, 62
10, 197380, Note_off_c, 9, 42, 62
10, 197380, Note_off_c, 9, 35, 127
10, 197472, Note_on_c, 9, 42, 42
10, 197476, Note_off_c, 9, 42, 42
10, 197568, Note_on_c, 9, 42, 50
10, 197572, Note_off_c, 9, 42, 50
10, 197664, Note_on_c, 9, 42, 53
10, 197668, Note_off_c, 9, 42, 53
10, 197760, Note_on_c, 9, 35, 127
10, 197760, Note_on_c, 9, 40, 100
10, 197760, Note_on_c, 9, 42, 69
10, 197764, Note_off_c, 9, 42, 69
10, 197764, Note_off_c, 9, 40, 100
10, 197764, Note_off_c, 9, 35, 127
10, 197952, Note_on_c, 9, 42, 61
10, 197956, Note_off_c, 9, 42, 61
10, 198048, Note_on_c, 9, 42, 46
10, 198052, Note_off_c, 9, 42, 46
10, 198144, Note_on_c, 9, 35, 127
10, 198144, Note_on_c, 9, 42, 58
10, 198148, Note_off_c, 9, 42, 58
10, 198148, Note_off_c, 9, 35, 127
10, 198336, Note_on_c, 9, 42, 60
10, 198340, Note_off_c, 9, 42, 60
10, 198432, Note_on_c, 9, 42, 43
10, 198436, Note_off_c, 9, 42, 43
10, 198528, Note_on_c, 9, 35, 127
10, 198528, Note_on_c, 9, 40, 100
10, 198528, Note_on_c, 9, 42, 69
10, 198532, Note_off_c, 9, 42, 69
10, 198532, Note_off_c, 9, 40, 100
10, 198532, Note_off_c, 9, 35, 127
10, 198720, Note_on_c, 9, 42, 65
10, 198724, Note_off_c, 9, 42, 65
10, 198816, Note_on_c, 9, 42, 34
10, 198820, Note_off_c, 9, 42, 34
10, 198912, Note_on_c, 9, 35, 127
10, 198912, Note_on_c, 9, 42, 64
10, 198916, Note_off_c, 9, 42, 64
10, 198916, Note_off_c, 9, 35, 127
10, 199008, Note_on_c, 9, 42, 47
10, 199012, Note_off_c, 9, 42, 47
10, 199104, Note_on_c, 9, 42, 62
10, 199108, Note_off_c, 9, 42, 62
10, 199200, Note_on_c, 9, 42, 55
10, 199204, Note_off_c, 9, 42, 55
10, 199296, Note_on_c, 9, 35, 127
10, 199296, Note_on_c, 9, 40, 100
10, 199296, Note_on_c, 9, 42, 70
10, 199300, Note_off_c, 9, 42, 70
10, 199300, Note_off_c, 9, 40, 100
10, 199300, Note_off_c, 9, 35, 127
10, 199488, Note_on_c, 9, 42, 51
10, 199492, Note_off_c, 9, 42, 51
10, 199584, Note_on_c, 9, 42, 52
10, 199588, Note_off_c, 9, 42, 52
10, 199680, Note_on_c, 9, 35, 127
10, 199680, Note_on_c, 9, 42, 77
10, 199684, Note_off_c, 9, 42, 77
10, 199684, Note_off_c, 9, 35, 127
10, 199872, Note_on_c, 9, 42, 60
10, 199876, Note_off_c, 9, 42, 60
10, 199968, Note_on_c, 9, 42, 44
10, 199972, Note_off_c, 9, 42, 44
10, 200064, Note_on_c, 9, 35, 127
10, 200064, Note_on_c, 9, 40, 100
10, 200064, Note_on_c, 9, 42, 69
10, 200068, Note_off_c, 9, 42, 69
10, 200068, Note_off_c, 9, 40, 100
10, 200068, Note_off_c, 9, 35, 127
10, 200256, Note_on_c, 9, 42, 55
10, 200260, Note_off_c, 9, 42, 55
10, 200352, Note_on_c, 9, 42, 40
10, 200356, Note_off_c, 9, 42, 40
10, 200448, Note_on_c, 9, 35, 127
10, 200448, Note_on_c, 9, 42, 62
10, 200452, Note_off_c, 9, 42, 62
10, 200452, Note_off_c, 9, 35, 127
10, 200544, Note_on_c, 9, 42, 42
10, 200548, Note_off_c, 9, 42, 42
10, 200640, Note_on_c, 9, 42, 50
10, 200644, Note_off_c, 9, 42, 50
10, 200736, Note_on_c, 9, 42, 53
10, 200740, Note_off_c, 9, 42, 53
10, 200832, Note_on_c, 9, 35, 127
10, 200832, Note_on_c, 9, 40, 100
10, 200832, Note_on_c, 9, 42, 69
10, 200836, Note_off_c, 9, 42, 69
10, 200836, Note_off_c, 9, 40, 100
10, 200836, Note_off_c, 9, 35, 127
10, 201024, Note_on_c, 9, 42, 61
10, 201028, Note_off_c, 9, 42, 61
10, 201120, Note_on_c, 9, 42, 46
10, 201124, Note_off_c, 9, 42, 46
10, 201216, Note_on_c, 9, 35, 127
10, 201216, Note_on_c, 9, 42, 58
10, 201220, Note_off_c, 9, 42, 58
10, 201220, Note_off_c, 9, 35, 127
10, 201408, Note_on_c, 9, 42, 60
10, 201412, Note_off_c, 9, 42, 60
10, 201504, Note_on_c, 9, 42, 43
10, 201508, Note_off_c, 9, 42, 43
10, 201600, Note_on_c, 9, 35, 127
10, 201600, Note_on_c, 9, 40, 100
10, 201600, Note_on_c, 9, 42, 69
10, 201604, Note_off_c, 9, 42, 69
10, 201604, Note_off_c, 9, 40, 100
10, 201604, Note_off_c, 9, 35, 127
10, 201792, Note_on_c, 9, 42, 65
10, 201796, Note_off_c, 9, 42, 65
10, 201888, Note_on_c, 9, 42, 34
10, 201892, Note_off_c, 9, 42, 34
10, 201984, Note_on_c, 9, 35, 127
10, 201984, Note_on_c, 9, 42, 64
10, 201988, Note_off_c, 9, 42, 64
10, 201988, Note_off_c, 9, 35, 127
10, 202080, Note_on_c, 9, 42, 47
10, 202084, Note_off_c, 9, 42, 47
10, 202176, Note_on_c, 9, 42, 62
10, 202180, Note_off_c, 9, 42, 62
10, 202272, Note_on_c, 9, 46, 55
10, 202276, Note_off_c, 9, 46, 55
10, 202368, Note_on_c, 9, 35, 127
10, 202368, Note_on_c, 9, 40, 100
10, 202372, Note_off_c, 9, 40, 100
10, 202372, Note_off_c, 9, 35, 127
10, 202464, Note_on_c, 9, 42, 47
10, 202468, Note_off_c, 9, 42, 47
10, 202560, Note_on_c, 9, 46, 51
10, 202564, Note_off_c, 9, 46, 51
10, 202752, Note_on_c, 9, 35, 127
10, 202752, Note_on_c, 9, 57, 92
10, 202752, Note_on_c, 9, 42, 77
10, 202756, Note_off_c, 9, 42, 77
10, 202756, Note_off_c, 9, 57, 92
10, 202756, Note_off_c, 9, 35, 127
10, 202944, Note_on_c, 9, 42, 60
10, 202948, Note_off_c, 9, 42, 60
10, 203040, Note_on_c, 9, 42, 44
10, 203044, Note_off_c, 9, 42, 44
10, 203136, Note_on_c, 9, 35, 127
10, 203136, Note_on_c, 9, 40, 100
10, 203136, Note_on_c, 9, 42, 69
10, 203140, Note_off_c, 9, 42, 69
10, 203140, Note_off_c, 9, 40, 100
10, 203140, Note_off_c, 9, 35, 127
10, 203328, Note_on_c, 9, 42, 55
10, 203332, Note_off_c, 9, 42, 55
10, 203424, Note_on_c, 9, 42, 40
10, 203428, Note_off_c, 9, 42, 40
10, 203520, Note_on_c, 9, 35, 127
10, 203520, Note_on_c, 9, 42, 62
10, 203524, Note_off_c, 9, 42, 62
10, 203524, Note_off_c, 9, 35, 127
10, 203616, Note_on_c, 9, 42, 42
10, 203620, Note_off_c, 9, 42, 42
10, 203712, Note_on_c, 9, 42, 50
10, 203716, Note_off_c, 9, 42, 50
10, 203808, Note_on_c, 9, 42, 53
10, 203812, Note_off_c, 9, 42, 53
10, 203904, Note_on_c, 9, 35, 127
10, 203904, Note_on_c, 9, 40, 100
10, 203904, Note_on_c, 9, 42, 69
10, 203908, Note_off_c, 9, 42, 69
10, 203908, Note_off_c, 9, 40, 100
10, 203908, Note_off_c, 9, 35, 127
10, 204096, Note_on_c, 9, 42, 61
10, 204100, Note_off_c, 9, 42, 61
10, 204192, Note_on_c, 9, 42, 46
10, 204196, Note_off_c, 9, 42, 46
10, 204288, Note_on_c, 9, 35, 127
10, 204288, Note_on_c, 9, 42, 58
10, 204292, Note_off_c, 9, 42, 58
10, 204292, Note_off_c, 9, 35, 127
10, 204480, Note_on_c, 9, 42, 60
10, 204484, Note_off_c, 9, 42, 60
10, 204576, Note_on_c, 9, 42, 43
10, 204580, Note_off_c, 9, 42, 43
10, 204672, Note_on_c, 9, 35, 127
10, 204672, Note_on_c, 9, 40, 100
10, 204672, Note_on_c, 9, 42, 69
10, 204676, Note_off_c, 9, 42, 69
10, 204676, Note_off_c, 9, 40, 100
10, 204676, Note_off_c, 9, 35, 127
10, 204864, Note_on_c, 9, 42, 65
10, 204868, Note_off_c, 9, 42, 65
10, 204960, Note_on_c, 9, 42, 34
10, 204964, Note_off_c, 9, 42, 34
10, 205056, Note_on_c, 9, 35, 127
10, 205056, Note_on_c, 9, 42, 64
10, 205060, Note_off_c, 9, 42, 64
10, 205060, Note_off_c, 9, 35, 127
10, 205152, Note_on_c, 9, 42, 47
10, 205156, Note_off_c, 9, 42, 47
10, 205248, Note_on_c, 9, 42, 62
10, 205252, Note_off_c, 9, 42, 62
10, 205344, Note_on_c, 9, 42, 55
10, 205348, Note_off_c, 9, 42, 55
10, 205440, Note_on_c, 9, 35, 127
10, 205440, Note_on_c, 9, 40, 100
10, 205440, Note_on_c, 9, 42, 70
10, 205444, Note_off_c, 9, 42, 70
10, 205444, Note_off_c, 9, 40, 100
10, 205444, Note_off_c, 9, 35, 127
10, 205632, Note_on_c, 9, 42, 51
10, 205636, Note_off_c, 9, 42, 51
10, 205728, Note_on_c, 9, 42, 52
10, 205732, Note_off_c, 9, 42, 52
10, 205824, Note_on_c, 9, 35, 127
10, 205824, Note_on_c, 9, 42, 77
10, 205828, Note_off_c, 9, 42, 77
10, 205828, Note_off_c, 9, 35, 127
10, 206016, Note_on_c, 9, 42, 60
10, 206020, Note_off_c, 9, 42, 60
10, 206112, Note_on_c, 9, 42, 44
10, 206116, Note_off_c, 9, 42, 44
10, 206208, Note_on_c, 9, 35, 127
10, 206208, Note_on_c, 9, 40, 100
10, 206208, Note_on_c, 9, 42, 69
10, 206212, Note_off_c, 9, 42, 69
10, 206212, Note_off_c, 9, 40, 100
10, 206212, Note_off_c, 9, 35, 127
10, 206400, Note_on_c, 9, 42, 55
10, 206404, Note_off_c, 9, 42, 55
10, 206496, Note_on_c, 9, 42, 40
10, 206500, Note_off_c, 9, 42, 40
10, 206592, Note_on_c, 9, 35, 127
10, 206592, Note_on_c, 9, 42, 62
10, 206596, Note_off_c, 9, 42, 62
10, 206596, Note_off_c, 9, 35, 127
10, 206688, Note_on_c, 9, 42, 42
10, 206692, Note_off_c, 9, 42, 42
10, 206784, Note_on_c, 9, 42, 50
10, 206788, Note_off_c, 9, 42, 50
10, 206880, Note_on_c, 9, 42, 53
10, 206884, Note_off_c, 9, 42, 53
10, 206976, Note_on_c, 9, 35, 127
10, 206976, Note_on_c, 9, 40, 100
10, 206976, Note_on_c, 9, 42, 69
10, 206980, Note_off_c, 9, 42, 69
10, 206980, Note_off_c, 9, 40, 100
10, 206980, Note_off_c, 9, 35, 127
10, 207168, Note_on_c, 9, 42, 61
10, 207172, Note_off_c, 9, 42, 61
10, 207264, Note_on_c, 9, 42, 46
10, 207268, Note_off_c, 9, 42, 46
10, 207360, Note_on_c, 9, 35, 127
10, 207360, Note_on_c, 9, 42, 58
10, 207364, Note_off_c, 9, 42, 58
10, 207364, Note_off_c, 9, 35, 127
10, 207552, Note_on_c, 9, 42, 60
10, 207556, Note_off_c, 9, 42, 60
10, 207648, Note_on_c, 9, 42, 43
10, 207652, Note_off_c, 9, 42, 43
10, 207744, Note_on_c, 9, 35, 127
10, 207744, Note_on_c, 9, 40, 100
10, 207744, Note_on_c, 9, 42, 69
10, 207748, Note_off_c, 9, 42, 69
10, 207748, Note_off_c, 9, 40, 100
10, 207748, Note_off_c, 9, 35, 127
10, 207936, Note_on_c, 9, 42, 65
10, 207940, Note_off_c, 9, 42, 65
10, 208032, Note_on_c, 9, 42, 34
10, 208036, Note_off_c, 9, 42, 34
10, 208128, Note_on_c, 9, 35, 127
10, 208128, Note_on_c, 9, 42, 64
10, 208132, Note_off_c, 9, 42, 64
10, 208132, Note_off_c, 9, 35, 127
10, 208224, Note_on_c, 9, 42, 47
10, 208228, Note_off_c, 9, 42, 47
10, 208320, Note_on_c, 9, 42, 62
10, 208324, Note_off_c, 9, 42, 62
10, 208416, Note_on_c, 9, 42, 55
10, 208420, Note_off_c, 9, 42, 55
10, 208512, Note_on_c, 9, 35, 127
10, 208512, Note_on_c, 9, 40, 100
10, 208512, Note_on_c, 9, 42, 70
10, 208516, Note_off_c, 9, 42, 70
10, 208516, Note_off_c, 9, 40, 100
10, 208516, Note_off_c, 9, 35, 127
10, 208704, Note_on_c, 9, 42, 51
10, 208708, Note_off_c, 9, 42, 51
10, 208800, Note_on_c, 9, 42, 52
10, 208804, Note_off_c, 9, 42, 52
10, 208896, Note_on_c, 9, 35, 127
10, 208896, Note_on_c, 9, 42, 77
10, 208900, Note_off_c, 9, 42, 77
10, 208900, Note_off_c, 9, 35, 127
10, 209088, Note_on_c, 9, 42, 60
10, 209092, Note_off_c, 9, 42, 60
10, 209184, Note_on_c, 9, 42, 44
10, 209188, Note_off_c, 9, 42, 44
10, 209280, Note_on_c, 9, 35, 127
10, 209280, Note_on_c, 9, 40, 100
10, 209280, Note_on_c, 9, 42, 69
10, 209284, Note_off_c, 9, 42, 69
10, 209284, Note_off_c, 9, 40, 100
10, 209284, Note_off_c, 9, 35, 127
10, 209472, Note_on_c, 9, 42, 55
10, 209476, Note_off_c, 9, 42, 55
10, 209568, Note_on_c, 9, 42, 40
10, 209572, Note_off_c, 9, 42, 40
10, 209664, Note_on_c, 9, 35, 127
10, 209664, Note_on_c, 9, 42, 62
10, 209668, Note_off_c, 9, 42, 62
10, 209668, Note_off_c, 9, 35, 127
10, 209760, Note_on_c, 9, 42, 42
10, 209764, Note_off_c, 9, 42, 42
10, 209856, Note_on_c, 9, 42, 50
10, 209860, Note_off_c, 9, 42, 50
10, 209952, Note_on_c, 9, 42, 53
10, 209956, Note_off_c, 9, 42, 53
10, 210048, Note_on_c, 9, 35, 127
10, 210048, Note_on_c, 9, 40, 100
10, 210048, Note_on_c, 9, 42, 69
10, 210052, Note_off_c, 9, 42, 69
10, 210052, Note_off_c, 9, 40, 100
10, 210052, Note_off_c, 9, 35, 127
10, 210240, Note_on_c, 9, 42, 61
10, 210244, Note_off_c, 9, 42, 61
10, 210336, Note_on_c, 9, 42, 46
10, 210340, Note_off_c, 9, 42, 46
10, 210432, Note_on_c, 9, 35, 127
10, 210432, Note_on_c, 9, 42, 58
10, 210436, Note_off_c, 9, 42, 58
10, 210436, Note_off_c, 9, 35, 127
10, 210624, Note_on_c, 9, 42, 60
10, 210628, Note_off_c, 9, 42, 60
10, 210720, Note_on_c, 9, 42, 43
10, 210724, Note_off_c, 9, 42, 43
10, 210816, Note_on_c, 9, 35, 127
10, 210816, Note_on_c, 9, 40, 100
10, 210816, Note_on_c, 9, 42, 69
10, 210820, Note_off_c, 9, 42, 69
10, 210820, Note_off_c, 9, 40, 100
10, 210820, Note_off_c, 9, 35, 127
10, 211008, Note_on_c, 9, 42, 65
10, 211012, Note_off_c, 9, 42, 65
10, 211104, Note_on_c, 9, 42, 34
10, 211108, Note_off_c, 9, 42, 34
10, 211200, Note_on_c, 9, 35, 127
10, 211200, Note_on_c, 9, 42, 64
10, 211204, Note_off_c, 9, 42, 64
10, 211204, Note_off_c, 9, 35, 127
10, 211296, Note_on_c, 9, 42, 47
10, 211300, Note_off_c, 9, 42, 47
10, 211392, Note_on_c, 9, 42, 62
10, 211396, Note_off_c, 9, 42, 62
10, 211488, Note_on_c, 9, 42, 55
10, 211492, Note_off_c, 9, 42, 55
10, 211584, Note_on_c, 9, 35, 127
10, 211584, Note_on_c, 9, 40, 100
10, 211584, Note_on_c, 9, 42, 70
10, 211588, Note_off_c, 9, 42, 70
10, 211588, Note_off_c, 9, 40, 100
10, 211588, Note_off_c, 9, 35, 127
10, 211776, Note_on_c, 9, 42, 51
10, 211780, Note_off_c, 9, 42, 51
10, 211872, Note_on_c, 9, 42, 52
10, 211876, Note_off_c, 9, 42, 52
10, 211968, Note_on_c, 9, 35, 127
10, 211968, Note_on_c, 9, 42, 77
10, 211972, Note_off_c, 9, 42, 77
10, 211972, Note_off_c, 9, 35, 127
10, 212160, Note_on_c, 9, 42, 60
10, 212164, Note_off_c, 9, 42, 60
10, 212256, Note_on_c, 9, 42, 44
10, 212260, Note_off_c, 9, 42, 44
10, 212352, Note_on_c, 9, 35, 127
10, 212352, Note_on_c, 9, 40, 100
10, 212352, Note_on_c, 9, 42, 69
10, 212356, Note_off_c, 9, 42, 69
10, 212356, Note_off_c, 9, 40, 100
10, 212356, Note_off_c, 9, 35, 127
10, 212544, Note_on_c, 9, 42, 55
10, 212548, Note_off_c, 9, 42, 55
10, 212640, Note_on_c, 9, 42, 40
10, 212644, Note_off_c, 9, 42, 40
10, 212736, Note_on_c, 9, 35, 127
10, 212736, Note_on_c, 9, 42, 62
10, 212740, Note_off_c, 9, 42, 62
10, 212740, Note_off_c, 9, 35, 127
10, 212832, Note_on_c, 9, 42, 42
10, 212836, Note_off_c, 9, 42, 42
10, 212928, Note_on_c, 9, 42, 50
10, 212932, Note_off_c, 9, 42, 50
10, 213024, Note_on_c, 9, 42, 53
10, 213028, Note_off_c, 9, 42, 53
10, 213120, Note_on_c, 9, 35, 127
10, 213120, Note_on_c, 9, 40, 100
10, 213120, Note_on_c, 9, 42, 69
10, 213124, Note_off_c, 9, 42, 69
10, 213124, Note_off_c, 9, 40, 100
10, 213124, Note_off_c, 9, 35, 127
10, 213312, Note_on_c, 9, 42, 61
10, 213316, Note_off_c, 9, 42, 61
10, 213408, Note_on_c, 9, 42, 46
10, 213412, Note_off_c, 9, 42, 46
10, 213504, Note_on_c, 9, 35, 127
10, 213504, Note_on_c, 9, 42, 58
10, 213508, Note_off_c, 9, 42, 58
10, 213508, Note_off_c, 9, 35, 127
10, 213696, Note_on_c, 9, 42, 60
10, 213700, Note_off_c, 9, 42, 60
10, 213792, Note_on_c, 9, 42, 43
10, 213796, Note_off_c, 9, 42, 43
10, 213888, Note_on_c, 9, 35, 127
10, 213888, Note_on_c, 9, 40, 100
10, 213888, Note_on_c, 9, 42, 69
10, 213892, Note_off_c, 9, 42, 69
10, 213892, Note_off_c, 9, 40, 100
10, 213892, Note_off_c, 9, 35, 127
10, 214080, Note_on_c, 9, 42, 65
10, 214084, Note_off_c, 9, 42, 65
10, 214176, Note_on_c, 9, 42, 34
10, 214180, Note_off_c, 9, 42, 34
10, 214272, Note_on_c, 9, 35, 127
10, 214272, Note_on_c, 9, 42, 64
10, 214276, Note_off_c, 9, 42, 64
10, 214276, Note_off_c, 9, 35, 127
10, 214368, Note_on_c, 9, 42, 47
10, 214372, Note_off_c, 9, 42, 47
10, 214464, Note_on_c, 9, 42, 62
10, 214468, Note_off_c, 9, 42, 62
10, 214560, Note_on_c, 9, 46, 55
10, 214564, Note_off_c, 9, 46, 55
10, 214656, Note_on_c, 9, 35, 127
10, 214656, Note_on_c, 9, 40, 100
10, 214660, Note_off_c, 9, 40, 100
10, 214660, Note_off_c, 9, 35, 127
10, 214752, Note_on_c, 9, 42, 47
10, 214756, Note_off_c, 9, 42, 47
10, 214848, Note_on_c, 9, 46, 51
10, 214852, Note_off_c, 9, 46, 51
10, 215040, Note_on_c, 9, 35, 127
10, 215040, Note_on_c, 9, 42, 77
10, 215044, Note_off_c, 9, 42, 77
10, 215044, Note_off_c, 9, 35, 127
10, 215232, Note_on_c, 9, 42, 60
10, 215236, Note_off_c, 9, 42, 60
10, 215328, Note_on_c, 9, 42, 44
10, 215332, Note_off_c, 9, 42, 44
10, 215424, Note_on_c, 9, 35, 127
10, 215424, Note_on_c, 9, 40, 100
10, 215424, Note_on_c, 9, 42, 69
10, 215428, Note_off_c, 9, 42, 69
10, 215428, Note_off_c, 9, 40, 100
10, 215428, Note_off_c, 9, 35, 127
10, 215616, Note_on_c, 9, 42, 55
10, 215620, Note_off_c, 9, 42, 55
10, 215712, Note_on_c, 9, 42, 40
10, 215716, Note_off_c, 9, 42, 40
10, 215808, Note_on_c, 9, 35, 127
10, 215808, Note_on_c, 9, 42, 62
10, 215812, Note_off_c, 9, 42, 62
10, 215812, Note_off_c, 9, 35, 127
10, 215904, Note_on_c, 9, 42, 42
10, 215908, Note_off_c, 9, 42, 42
10, 216000, Note_on_c, 9, 42, 50
10, 216004, Note_off_c, 9, 42, 50
10, 216096, Note_on_c, 9, 42, 53
10, 216100, Note_off_c, 9, 42, 53
10, 216192, Note_on_c, 9, 35, 127
10, 216192, Note_on_c, 9, 40, 100
10, 216192, Note_on_c, 9, 42, 69
10, 216196, Note_off_c, 9, 42, 69
10, 216196, Note_off_c, 9, 40, 100
10, 216196, Note_off_c, 9, 35, 127
10, 216384, Note_on_c, 9, 42, 61
10, 216388, Note_off_c, 9, 42, 61
10, 216480, Note_on_c, 9, 42, 46
10, 216484, Note_off_c, 9, 42, 46
10, 216576, Note_on_c, 9, 35, 127
10, 216576, Note_on_c, 9, 42, 58
10, 216580, Note_off_c, 9, 42, 58
10, 216580, Note_off_c, 9, 35, 127
10, 216768, Note_on_c, 9, 42, 60
10, 216772, Note_off_c, 9, 42, 60
10, 216864, Note_on_c, 9, 42, 43
10, 216868, Note_off_c, 9, 42, 43
10, 216960, Note_on_c, 9, 35, 127
10, 216960, Note_on_c, 9, 40, 100
10, 216960, Note_on_c, 9, 42, 69
10, 216964, Note_off_c, 9, 42, 69
10, 216964, Note_off_c, 9, 40, 100
10, 216964, Note_off_c, 9, 35, 127
10, 217152, Note_on_c, 9, 42, 65
10, 217156, Note_off_c, 9, 42, 65
10, 217248, Note_on_c, 9, 42, 34
10, 217252, Note_off_c, 9, 42, 34
10, 217344, Note_on_c, 9, 35, 127
10, 217344, Note_on_c, 9, 42, 64
10, 217348, Note_off_c, 9, 42, 64
10, 217348, Note_off_c, 9, 35, 127
10, 217440, Note_on_c, 9, 42, 47
10, 217444, Note_off_c, 9, 42, 47
10, 217536, Note_on_c, 9, 42, 62
10, 217540, Note_off_c, 9, 42, 62
10, 217632, Note_on_c, 9, 42, 55
10, 217636, Note_off_c, 9, 42, 55
10, 217728, Note_on_c, 9, 35, 127
10, 217728, Note_on_c, 9, 40, 100
10, 217728, Note_on_c, 9, 42, 70
10, 217732, Note_off_c, 9, 42, 70
10, 217732, Note_off_c, 9, 40, 100
10, 217732, Note_off_c, 9, 35, 127
10, 217920, Note_on_c, 9, 42, 51
10, 217924, Note_off_c, 9, 42, 51
10, 218016, Note_on_c, 9, 42, 52
10, 218020, Note_off_c, 9, 42, 52
10, 218112, Note_on_c, 9, 35, 127
10, 218112, Note_on_c, 9, 42, 77
10, 218116, Note_off_c, 9, 42, 77
10, 218116, Note_off_c, 9, 35, 127
10, 218304, Note_on_c, 9, 42, 60
10, 218308, Note_off_c, 9, 42, 60
10, 218400, Note_on_c, 9, 35, 127
10, 218400, Note_on_c, 9, 42, 44
10, 218404, Note_off_c, 9, 42, 44
10, 218404, Note_off_c, 9, 35, 127
10, 221952, End_track
11, 0, Start_track
11, 0, Title_t, "BRASS"
11, 584, Control_c, 10, 0, 0
11, 588, Control_c, 10, 121, 0
11, 592, Program_c, 10, 61
11, 596, Control_c, 10, 7, 115
11, 596, Control_c, 10, 10, 74
11, 596, Control_c, 10, 11, 127
11, 600, Control_c, 10, 91, 90
11, 600, Control_c, 10, 93, 0
11, 52032, Note_on_c, 10, 70, 100
11, 52112, Note_off_c, 10, 70, 100
11, 52608, Note_on_c, 10, 75, 100
11, 52688, Note_off_c, 10, 75, 100
11, 54720, Note_on_c, 10, 75, 100
11, 54720, Note_on_c, 10, 72, 100
11, 54776, Note_off_c, 10, 72, 100
11, 54776, Note_off_c, 10, 75, 100
11, 55104, Note_on_c, 10, 77, 100
11, 55104, Note_on_c, 10, 74, 100
11, 55160, Note_off_c, 10, 74, 100
11, 55160, Note_off_c, 10, 77, 100
11, 55488, Note_on_c, 10, 79, 100
11, 55488, Note_on_c, 10, 75, 100
11, 55544, Note_off_c, 10, 75, 100
11, 55544, Note_off_c, 10, 79, 100
11, 56256, Note_on_c, 10, 79, 100
11, 56256, Note_on_c, 10, 70, 100
11, 56256, Note_on_c, 10, 74, 100
11, 56312, Note_off_c, 10, 74, 100
11, 56312, Note_off_c, 10, 70, 100
11, 56312, Note_off_c, 10, 79, 100
11, 56640, Note_on_c, 10, 79, 90
11, 56640, Note_on_c, 10, 70, 90
11, 56640, Note_on_c, 10, 74, 90
11, 56696, Note_off_c, 10, 74, 90
11, 56696, Note_off_c, 10, 70, 90
11, 56696, Note_off_c, 10, 79, 90
11, 57024, Note_on_c, 10, 74, 80
11, 57024, Note_on_c, 10, 70, 80
11, 57024, Note_on_c, 10, 79, 80
11, 57080, Note_off_c, 10, 79, 80
11, 57080, Note_off_c, 10, 70, 80
11, 57080, Note_off_c, 10, 74, 80
11, 61824, Note_on_c, 10, 79, 100
11, 62000, Note_off_c, 10, 79, 100
11, 62016, Note_on_c, 10, 77, 100
11, 62528, Note_off_c, 10, 77, 100
11, 62592, Note_on_c, 10, 75, 100
11, 62768, Note_off_c, 10, 75, 100
11, 62784, Note_on_c, 10, 74, 100
11, 63296, Note_off_c, 10, 74, 100
11, 63360, Note_on_c, 10, 75, 100
11, 63440, Note_off_c, 10, 75, 100
11, 64704, Note_on_c, 10, 67, 100
11, 64760, Note_off_c, 10, 67, 100
11, 64800, Note_on_c, 10, 70, 100
11, 64856, Note_off_c, 10, 70, 100
11, 64896, Note_on_c, 10, 72, 100
11, 64952, Note_off_c, 10, 72, 100
11, 65088, Note_on_c, 10, 70, 100
11, 65120, Note_off_c, 10, 70, 100
11, 67872, Note_on_c, 10, 75, 100
11, 67912, Note_off_c, 10, 75, 100
11, 67968, Note_on_c, 10, 75, 100
11, 68020, Note_off_c, 10, 75, 100
11, 68160, Note_on_c, 10, 77, 100
11, 68732, Note_off_c, 10, 77, 100
11, 68736, Note_on_c, 10, 79, 100
11, 68788, Note_off_c, 10, 79, 100
11, 74112, Note_on_c, 10, 79, 100
11, 74288, Note_off_c, 10, 79, 100
11, 74304, Note_on_c, 10, 77, 100
11, 74816, Note_off_c, 10, 77, 100
11, 74880, Note_on_c, 10, 75, 100
11, 75056, Note_off_c, 10, 75, 100
11, 75072, Note_on_c, 10, 74, 100
11, 75584, Note_off_c, 10, 74, 100
11, 75648, Note_on_c, 10, 75, 100
11, 75728, Note_off_c, 10, 75, 100
11, 124992, Note_on_c, 10, 70, 100
11, 125072, Note_off_c, 10, 70, 100
11, 125568, Note_on_c, 10, 75, 100
11, 125648, Note_off_c, 10, 75, 100
11, 127680, Note_on_c, 10, 75, 100
11, 127680, Note_on_c, 10, 72, 100
11, 127736, Note_off_c, 10, 72, 100
11, 127736, Note_off_c, 10, 75, 100
11, 128064, Note_on_c, 10, 77, 100
11, 128064, Note_on_c, 10, 74, 100
11, 128120, Note_off_c, 10, 74, 100
11, 128120, Note_off_c, 10, 77, 100
11, 128448, Note_on_c, 10, 79, 100
11, 128448, Note_on_c, 10, 75, 100
11, 128504, Note_off_c, 10, 75, 100
11, 128504, Note_off_c, 10, 79, 100
11, 129216, Note_on_c, 10, 79, 100
11, 129216, Note_on_c, 10, 70, 100
11, 129216, Note_on_c, 10, 74, 100
11, 129272, Note_off_c, 10, 74, 100
11, 129272, Note_off_c, 10, 70, 100
11, 129272, Note_off_c, 10, 79, 100
11, 129600, Note_on_c, 10, 79, 90
11, 129600, Note_on_c, 10, 70, 90
11, 129600, Note_on_c, 10, 74, 90
11, 129656, Note_off_c, 10, 74, 90
11, 129656, Note_off_c, 10, 70, 90
11, 129656, Note_off_c, 10, 79, 90
11, 129984, Note_on_c, 10, 74, 80
11, 129984, Note_on_c, 10, 70, 80
11, 129984, Note_on_c, 10, 79, 80
11, 130040, Note_off_c, 10, 79, 80
11, 130040, Note_off_c, 10, 70, 80
11, 130040, Note_off_c, 10, 74, 80
11, 134784, Note_on_c, 10, 79, 100
11, 134960, Note_off_c, 10, 79, 100
11, 134976, Note_on_c, 10, 77, 100
11, 135488, Note_off_c, 10, 77, 100
11, 135552, Note_on_c, 10, 75, 100
11, 135728, Note_off_c, 10, 75, 100
11, 135744, Note_on_c, 10, 74, 100
11, 136256, Note_off_c, 10, 74, 100
11, 136320, Note_on_c, 10, 75, 100
11, 136400, Note_off_c, 10, 75, 100
11, 137664, Note_on_c, 10, 67, 100
11, 137720, Note_off_c, 10, 67, 100
11, 137760, Note_on_c, 10, 70, 100
11, 137816, Note_off_c, 10, 70, 100
11, 137856, Note_on_c, 10, 72, 100
11, 137912, Note_off_c, 10, 72, 100
11, 138048, Note_on_c, 10, 70, 100
11, 138080, Note_off_c, 10, 70, 100
11, 140832, Note_on_c, 10, 75, 100
11, 140872, Note_off_c, 10, 75, 100
11, 140928, Note_on_c, 10, 75, 100
11, 140980, Note_off_c, 10, 75, 100
11, 141120, Note_on_c, 10, 77, 100
11, 141692, Note_off_c, 10, 77, 100
11, 141696, Note_on_c, 10, 79, 100
11, 141748, Note_off_c, 10, 79, 100
11, 147072, Note_on_c, 10, 79, 100
11, 147248, Note_off_c, 10, 79, 100
11, 147264, Note_on_c, 10, 77, 100
11, 147776, Note_off_c, 10, 77, 100
11, 147840, Note_on_c, 10, 75, 100
11, 148016, Note_off_c, 10, 75, 100
11, 148032, Note_on_c, 10, 74, 100
11, 148544, Note_off_c, 10, 74, 100
11, 148608, Note_on_c, 10, 75, 100
11, 148688, Note_off_c, 10, 75, 100
11, 166464, Note_on_c, 10, 70, 100
11, 166544, Note_off_c, 10, 70, 100
11, 167040, Note_on_c, 10, 75, 100
11, 167120, Note_off_c, 10, 75, 100
11, 169152, Note_on_c, 10, 75, 100
11, 169152, Note_on_c, 10, 72, 100
11, 169208, Note_off_c, 10, 72, 100
11, 169208, Note_off_c, 10, 75, 100
11, 169536, Note_on_c, 10, 77, 100
11, 169536, Note_on_c, 10, 74, 100
11, 169592, Note_off_c, 10, 74, 100
11, 169592, Note_off_c, 10, 77, 100
11, 169920, Note_on_c, 10, 79, 100
11, 169920, Note_on_c, 10, 75, 100
11, 169976, Note_off_c, 10, 75, 100
11, 169976, Note_off_c, 10, 79, 100
11, 170688, Note_on_c, 10, 79, 100
11, 170688, Note_on_c, 10, 70, 100
11, 170688, Note_on_c, 10, 74, 100
11, 170744, Note_off_c, 10, 74, 100
11, 170744, Note_off_c, 10, 70, 100
11, 170744, Note_off_c, 10, 79, 100
11, 171072, Note_on_c, 10, 79, 90
11, 171072, Note_on_c, 10, 70, 90
11, 171072, Note_on_c, 10, 74, 90
11, 171128, Note_off_c, 10, 74, 90
11, 171128, Note_off_c, 10, 70, 90
11, 171128, Note_off_c, 10, 79, 90
11, 171456, Note_on_c, 10, 74, 80
11, 171456, Note_on_c, 10, 70, 80
11, 171456, Note_on_c, 10, 79, 80
11, 171512, Note_off_c, 10, 79, 80
11, 171512, Note_off_c, 10, 70, 80
11, 171512, Note_off_c, 10, 74, 80
11, 176256, Note_on_c, 10, 79, 100
11, 176432, Note_off_c, 10, 79, 100
11, 176448, Note_on_c, 10, 77, 100
11, 176960, Note_off_c, 10, 77, 100
11, 177024, Note_on_c, 10, 75, 100
11, 177200, Note_off_c, 10, 75, 100
11, 177216, Note_on_c, 10, 74, 100
11, 177728, Note_off_c, 10, 74, 100
11, 177792, Note_on_c, 10, 75, 100
11, 177872, Note_off_c, 10, 75, 100
11, 179136, Note_on_c, 10, 67, 100
11, 179192, Note_off_c, 10, 67, 100
11, 179232, Note_on_c, 10, 70, 100
11, 179288, Note_off_c, 10, 70, 100
11, 179328, Note_on_c, 10, 72, 100
11, 179384, Note_off_c, 10, 72, 100
11, 179520, Note_on_c, 10, 70, 100
11, 179552, Note_off_c, 10, 70, 100
11, 182304, Note_on_c, 10, 75, 100
11, 182344, Note_off_c, 10, 75, 100
11, 182400, Note_on_c, 10, 75, 100
11, 182452, Note_off_c, 10, 75, 100
11, 182592, Note_on_c, 10, 77, 100
11, 183164, Note_off_c, 10, 77, 100
11, 183168, Note_on_c, 10, 79, 100
11, 183220, Note_off_c, 10, 79, 100
11, 188544, Note_on_c, 10, 79, 100
11, 188720, Note_off_c, 10, 79, 100
11, 188736, Note_on_c, 10, 77, 100
11, 189248, Note_off_c, 10, 77, 100
11, 189312, Note_on_c, 10, 75, 100
11, 189488, Note_off_c, 10, 75, 100
11, 189504, Note_on_c, 10, 74, 100
11, 190016, Note_off_c, 10, 74, 100
11, 190080, Note_on_c, 10, 75, 100
11, 190160, Note_off_c, 10, 75, 100
11, 192576, Note_on_c, 10, 70, 100
11, 192640, Note_off_c, 10, 70, 100
11, 193152, Note_on_c, 10, 75, 100
11, 193220, Note_off_c, 10, 75, 100
11, 195264, Note_on_c, 10, 75, 100
11, 195264, Note_on_c, 10, 72, 100
11, 195320, Note_off_c, 10, 72, 100
11, 195320, Note_off_c, 10, 75, 100
11, 195648, Note_on_c, 10, 77, 100
11, 195648, Note_on_c, 10, 74, 100
11, 195704, Note_off_c, 10, 74, 100
11, 195704, Note_off_c, 10, 77, 100
11, 196032, Note_on_c, 10, 79, 100
11, 196032, Note_on_c, 10, 75, 100
11, 196088, Note_off_c, 10, 75, 100
11, 196088, Note_off_c, 10, 79, 100
11, 196800, Note_on_c, 10, 79, 100
11, 196800, Note_on_c, 10, 70, 100
11, 196800, Note_on_c, 10, 74, 100
11, 196856, Note_off_c, 10, 74, 100
11, 196856, Note_off_c, 10, 70, 100
11, 196856, Note_off_c, 10, 79, 100
11, 197184, Note_on_c, 10, 79, 90
11, 197184, Note_on_c, 10, 70, 90
11, 197184, Note_on_c, 10, 74, 90
11, 197240, Note_off_c, 10, 74, 90
11, 197240, Note_off_c, 10, 70, 90
11, 197240, Note_off_c, 10, 79, 90
11, 197568, Note_on_c, 10, 74, 80
11, 197568, Note_on_c, 10, 70, 80
11, 197568, Note_on_c, 10, 79, 80
11, 197624, Note_off_c, 10, 79, 80
11, 197624, Note_off_c, 10, 70, 80
11, 197624, Note_off_c, 10, 74, 80
11, 202368, Note_on_c, 10, 79, 100
11, 202544, Note_off_c, 10, 79, 100
11, 202560, Note_on_c, 10, 77, 100
11, 203072, Note_off_c, 10, 77, 100
11, 203136, Note_on_c, 10, 75, 100
11, 203312, Note_off_c, 10, 75, 100
11, 203328, Note_on_c, 10, 74, 100
11, 203840, Note_off_c, 10, 74, 100
11, 203904, Note_on_c, 10, 75, 100
11, 203984, Note_off_c, 10, 75, 100
11, 205248, Note_on_c, 10, 67, 100
11, 205304, Note_off_c, 10, 67, 100
11, 205344, Note_on_c, 10, 70, 100
11, 205400, Note_off_c, 10, 70, 100
11, 205440, Note_on_c, 10, 72, 100
11, 205496, Note_off_c, 10, 72, 100
11, 205632, Note_on_c, 10, 70, 100
11, 205664, Note_off_c, 10, 70, 100
11, 208416, Note_on_c, 10, 75, 100
11, 208456, Note_off_c, 10, 75, 100
11, 208512, Note_on_c, 10, 75, 100
11, 208564, Note_off_c, 10, 75, 100
11, 208704, Note_on_c, 10, 77, 100
11, 209276, Note_off_c, 10, 77, 100
11, 209280, Note_on_c, 10, 79, 100
11, 209332, Note_off_c, 10, 79, 100
11, 221952, End_track
12, 0, Start_track
12, 0, Title_t, "SFX"
12, 604, Control_c, 11, 0, 0
12, 608, Control_c, 11, 121, 0
12, 612, Program_c, 11, 127
12, 616, Control_c, 11, 7, 127
12, 616, Control_c, 11, 10, 64
12, 616, Control_c, 11, 11, 127
12, 620, Control_c, 11, 91, 60
12, 620, Control_c, 11, 93, 0
12, 165484, Note_on_c, 11, 62, 121
12, 166112, Note_off_c, 11, 62, 121
12, 191596, Note_on_c, 11, 62, 121
12, 192224, Note_off_c, 11, 62, 121
12, 217708, Note_on_c, 11, 62, 121
12, 218336, Note_off_c, 11, 62, 121
12, 221952, End_track
13, 0, Start_track
13, 0, Title_t, "GUITAR"
13, 624, Control_c, 12, 0, 0
13, 628, Control_c, 12, 121, 0
13, 632, Program_c, 12, 26
13, 636, Control_c, 12, 7, 85
13, 636, Control_c, 12, 10, 44
13, 636, Control_c, 12, 11, 127
13, 640, Control_c, 12, 91, 60
13, 640, Control_c, 12, 93, 0
13, 24768, Note_on_c, 12, 63, 61
13, 24768, Note_on_c, 12, 68, 69
13, 24768, Note_on_c, 12, 58, 66
13, 24800, Note_off_c, 12, 63, 61
13, 24804, Note_off_c, 12, 58, 66
13, 24812, Note_off_c, 12, 68, 69
13, 24864, Note_on_c, 12, 63, 73
13, 24864, Note_on_c, 12, 68, 66
13, 24864, Note_on_c, 12, 58, 66
13, 24888, Note_off_c, 12, 58, 66
13, 24900, Note_off_c, 12, 68, 66
13, 24916, Note_off_c, 12, 63, 73
13, 26304, Note_on_c, 12, 58, 75
13, 26304, Note_on_c, 12, 63, 69
13, 26304, Note_on_c, 12, 68, 77
13, 26340, Note_off_c, 12, 63, 69
13, 26348, Note_off_c, 12, 58, 75
13, 26360, Note_off_c, 12, 68, 77
13, 26400, Note_on_c, 12, 63, 64
13, 26400, Note_on_c, 12, 58, 66
13, 26400, Note_on_c, 12, 68, 60
13, 26428, Note_off_c, 12, 58, 66
13, 26436, Note_off_c, 12, 68, 60
13, 26460, Note_off_c, 12, 63, 64
13, 27840, Note_on_c, 12, 63, 61
13, 27840, Note_on_c, 12, 68, 69
13, 27840, Note_on_c, 12, 58, 66
13, 27872, Note_off_c, 12, 63, 61
13, 27876, Note_off_c, 12, 58, 66
13, 27884, Note_off_c, 12, 68, 69
13, 27936, Note_on_c, 12, 63, 73
13, 27936, Note_on_c, 12, 68, 66
13, 27936, Note_on_c, 12, 58, 66
13, 27960, Note_off_c, 12, 58, 66
13, 27972, Note_off_c, 12, 68, 66
13, 27988, Note_off_c, 12, 63, 73
13, 29376, Note_on_c, 12, 63, 61
13, 29376, Note_on_c, 12, 58, 66
13, 29376, Note_on_c, 12, 67, 69
13, 29408, Note_off_c, 12, 63, 61
13, 29412, Note_off_c, 12, 58, 66
13, 29420, Note_off_c, 12, 67, 69
13, 29472, Note_on_c, 12, 63, 73
13, 29472, Note_on_c, 12, 58, 66
13, 29472, Note_on_c, 12, 67, 66
13, 29496, Note_off_c, 12, 58, 66
13, 29508, Note_off_c, 12, 67, 66
13, 29524, Note_off_c, 12, 63, 73
13, 30912, Note_on_c, 12, 63, 61
13, 30912, Note_on_c, 12, 68, 69
13, 30912, Note_on_c, 12, 58, 66
13, 30944, Note_off_c, 12, 63, 61
13, 30948, Note_off_c, 12, 58, 66
13, 30956, Note_off_c, 12, 68, 69
13, 31008, Note_on_c, 12, 63, 73
13, 31008, Note_on_c, 12, 68, 66
13, 31008, Note_on_c, 12, 58, 66
13, 31032, Note_off_c, 12, 58, 66
13, 31044, Note_off_c, 12, 68, 66
13, 31060, Note_off_c, 12, 63, 73
13, 32448, Note_on_c, 12, 58, 75
13, 32448, Note_on_c, 12, 63, 69
13, 32448, Note_on_c, 12, 68, 77
13, 32484, Note_off_c, 12, 63, 69
13, 32492, Note_off_c, 12, 58, 75
13, 32504, Note_off_c, 12, 68, 77
13, 32544, Note_on_c, 12, 63, 64
13, 32544, Note_on_c, 12, 58, 66
13, 32544, Note_on_c, 12, 68, 60
13, 32572, Note_off_c, 12, 58, 66
13, 32580, Note_off_c, 12, 68, 60
13, 32604, Note_off_c, 12, 63, 64
13, 33984, Note_on_c, 12, 63, 61
13, 33984, Note_on_c, 12, 68, 69
13, 33984, Note_on_c, 12, 58, 66
13, 34016, Note_off_c, 12, 63, 61
13, 34020, Note_off_c, 12, 58, 66
13, 34028, Note_off_c, 12, 68, 69
13, 34080, Note_on_c, 12, 63, 73
13, 34080, Note_on_c, 12, 68, 66
13, 34080, Note_on_c, 12, 58, 66
13, 34104, Note_off_c, 12, 58, 66
13, 34116, Note_off_c, 12, 68, 66
13, 34132, Note_off_c, 12, 63, 73
13, 35520, Note_on_c, 12, 63, 61
13, 35520, Note_on_c, 12, 58, 66
13, 35520, Note_on_c, 12, 67, 69
13, 35552, Note_off_c, 12, 63, 61
13, 35556, Note_off_c, 12, 58, 66
13, 35564, Note_off_c, 12, 67, 69
13, 35616, Note_on_c, 12, 63, 73
13, 35616, Note_on_c, 12, 58, 66
13, 35616, Note_on_c, 12, 67, 66
13, 35640, Note_off_c, 12, 58, 66
13, 35652, Note_off_c, 12, 67, 66
13, 35668, Note_off_c, 12, 63, 73
13, 37056, Note_on_c, 12, 65, 86
13, 37056, Note_on_c, 12, 69, 92
13, 37056, Note_on_c, 12, 60, 76
13, 37096, Note_off_c, 12, 69, 92
13, 37096, Note_off_c, 12, 65, 86
13, 37100, Note_off_c, 12, 60, 76
13, 37152, Note_on_c, 12, 65, 76
13, 37152, Note_on_c, 12, 69, 72
13, 37152, Note_on_c, 12, 60, 58
13, 37180, Note_off_c, 12, 60, 58
13, 37184, Note_off_c, 12, 69, 72
13, 37196, Note_off_c, 12, 65, 76
13, 38592, Note_on_c, 12, 65, 70
13, 38592, Note_on_c, 12, 60, 75
13, 38592, Note_on_c, 12, 69, 71
13, 38620, Note_off_c, 12, 69, 71
13, 38628, Note_off_c, 12, 65, 70
13, 38636, Note_off_c, 12, 60, 75
13, 38688, Note_on_c, 12, 65, 55
13, 38688, Note_on_c, 12, 69, 69
13, 38688, Note_on_c, 12, 60, 76
13, 38728, Note_off_c, 12, 65, 55
13, 38732, Note_off_c, 12, 69, 69
13, 38736, Note_off_c, 12, 60, 76
13, 40128, Note_on_c, 12, 62, 77
13, 40128, Note_on_c, 12, 71, 85
13, 40128, Note_on_c, 12, 67, 75
13, 40152, Note_off_c, 12, 67, 75
13, 40164, Note_off_c, 12, 71, 85
13, 40176, Note_off_c, 12, 62, 77
13, 40224, Note_on_c, 12, 67, 88
13, 40224, Note_on_c, 12, 62, 72
13, 40224, Note_on_c, 12, 71, 63
13, 40248, Note_off_c, 12, 71, 63
13, 40268, Note_off_c, 12, 62, 72
13, 40272, Note_off_c, 12, 67, 88
13, 41664, Note_on_c, 12, 62, 83
13, 41664, Note_on_c, 12, 67, 81
13, 41664, Note_on_c, 12, 71, 82
13, 41696, Note_off_c, 12, 71, 82
13, 41696, Note_off_c, 12, 67, 81
13, 41708, Note_off_c, 12, 62, 83
13, 41760, Note_on_c, 12, 67, 78
13, 41760, Note_on_c, 12, 62, 70
13, 41760, Note_on_c, 12, 71, 71
13, 41788, Note_off_c, 12, 71, 71
13, 41804, Note_off_c, 12, 62, 70
13, 41804, Note_off_c, 12, 67, 78
13, 43200, Note_on_c, 12, 60, 69
13, 43200, Note_on_c, 12, 69, 80
13, 43200, Note_on_c, 12, 65, 59
13, 43232, Note_off_c, 12, 65, 59
13, 43236, Note_off_c, 12, 69, 80
13, 43248, Note_off_c, 12, 60, 69
13, 43296, Note_on_c, 12, 65, 77
13, 43296, Note_on_c, 12, 60, 71
13, 43296, Note_on_c, 12, 69, 48
13, 43324, Note_off_c, 12, 69, 48
13, 43340, Note_off_c, 12, 60, 71
13, 43348, Note_off_c, 12, 65, 77
13, 44736, Note_on_c, 12, 65, 82
13, 44736, Note_on_c, 12, 60, 77
13, 44736, Note_on_c, 12, 69, 84
13, 44772, Note_off_c, 12, 69, 84
13, 44780, Note_off_c, 12, 65, 82
13, 44788, Note_off_c, 12, 60, 77
13, 44832, Note_on_c, 12, 65, 73
13, 44832, Note_on_c, 12, 69, 77
13, 44832, Note_on_c, 12, 60, 66
13, 44868, Note_off_c, 12, 65, 73
13, 44872, Note_off_c, 12, 69, 77
13, 44876, Note_off_c, 12, 60, 66
13, 46272, Note_on_c, 12, 68, 80
13, 46272, Note_on_c, 12, 63, 69
13, 46272, Note_on_c, 12, 72, 68
13, 46300, Note_off_c, 12, 72, 68
13, 46312, Note_off_c, 12, 63, 69
13, 46328, Note_off_c, 12, 68, 80
13, 46368, Note_on_c, 12, 72, 75
13, 46368, Note_on_c, 12, 68, 78
13, 46368, Note_on_c, 12, 63, 76
13, 46404, Note_off_c, 12, 63, 76
13, 46412, Note_off_c, 12, 72, 75
13, 46420, Note_off_c, 12, 68, 78
13, 47808, Note_on_c, 12, 68, 87
13, 47808, Note_on_c, 12, 63, 75
13, 47808, Note_on_c, 12, 72, 73
13, 47844, Note_off_c, 12, 72, 73
13, 47860, Note_off_c, 12, 63, 75
13, 47864, Note_off_c, 12, 68, 87
13, 47904, Note_on_c, 12, 72, 47
13, 47904, Note_on_c, 12, 63, 78
13, 47904, Note_on_c, 12, 68, 74
13, 47940, Note_off_c, 12, 63, 78
13, 47944, Note_off_c, 12, 72, 47
13, 47948, Note_off_c, 12, 68, 74
13, 97728, Note_on_c, 12, 63, 61
13, 97728, Note_on_c, 12, 68, 69
13, 97728, Note_on_c, 12, 58, 66
13, 97760, Note_off_c, 12, 63, 61
13, 97764, Note_off_c, 12, 58, 66
13, 97772, Note_off_c, 12, 68, 69
13, 97824, Note_on_c, 12, 63, 73
13, 97824, Note_on_c, 12, 68, 66
13, 97824, Note_on_c, 12, 58, 66
13, 97848, Note_off_c, 12, 58, 66
13, 97860, Note_off_c, 12, 68, 66
13, 97876, Note_off_c, 12, 63, 73
13, 99264, Note_on_c, 12, 58, 75
13, 99264, Note_on_c, 12, 63, 69
13, 99264, Note_on_c, 12, 68, 77
13, 99300, Note_off_c, 12, 63, 69
13, 99308, Note_off_c, 12, 58, 75
13, 99320, Note_off_c, 12, 68, 77
13, 99360, Note_on_c, 12, 63, 64
13, 99360, Note_on_c, 12, 58, 66
13, 99360, Note_on_c, 12, 68, 60
13, 99388, Note_off_c, 12, 58, 66
13, 99396, Note_off_c, 12, 68, 60
13, 99420, Note_off_c, 12, 63, 64
13, 100800, Note_on_c, 12, 63, 61
13, 100800, Note_on_c, 12, 68, 69
13, 100800, Note_on_c, 12, 58, 66
13, 100832, Note_off_c, 12, 63, 61
13, 100836, Note_off_c, 12, 58, 66
13, 100844, Note_off_c, 12, 68, 69
13, 100896, Note_on_c, 12, 63, 73
13, 100896, Note_on_c, 12, 68, 66
13, 100896, Note_on_c, 12, 58, 66
13, 100920, Note_off_c, 12, 58, 66
13, 100932, Note_off_c, 12, 68, 66
13, 100948, Note_off_c, 12, 63, 73
13, 102336, Note_on_c, 12, 63, 61
13, 102336, Note_on_c, 12, 58, 66
13, 102336, Note_on_c, 12, 67, 69
13, 102368, Note_off_c, 12, 63, 61
13, 102372, Note_off_c, 12, 58, 66
13, 102380, Note_off_c, 12, 67, 69
13, 102432, Note_on_c, 12, 63, 73
13, 102432, Note_on_c, 12, 58, 66
13, 102432, Note_on_c, 12, 67, 66
13, 102456, Note_off_c, 12, 58, 66
13, 102468, Note_off_c, 12, 67, 66
13, 102484, Note_off_c, 12, 63, 73
13, 103872, Note_on_c, 12, 63, 61
13, 103872, Note_on_c, 12, 68, 69
13, 103872, Note_on_c, 12, 58, 66
13, 103904, Note_off_c, 12, 63, 61
13, 103908, Note_off_c, 12, 58, 66
13, 103916, Note_off_c, 12, 68, 69
13, 103968, Note_on_c, 12, 63, 73
13, 103968, Note_on_c, 12, 68, 66
13, 103968, Note_on_c, 12, 58, 66
13, 103992, Note_off_c, 12, 58, 66
13, 104004, Note_off_c, 12, 68, 66
13, 104020, Note_off_c, 12, 63, 73
13, 105408, Note_on_c, 12, 58, 75
13, 105408, Note_on_c, 12, 63, 69
13, 105408, Note_on_c, 12, 68, 77
13, 105444, Note_off_c, 12, 63, 69
13, 105452, Note_off_c, 12, 58, 75
13, 105464, Note_off_c, 12, 68, 77
13, 105504, Note_on_c, 12, 63, 64
13, 105504, Note_on_c, 12, 58, 66
13, 105504, Note_on_c, 12, 68, 60
13, 105532, Note_off_c, 12, 58, 66
13, 105540, Note_off_c, 12, 68, 60
13, 105564, Note_off_c, 12, 63, 64
13, 106944, Note_on_c, 12, 63, 61
13, 106944, Note_on_c, 12, 68, 69
13, 106944, Note_on_c, 12, 58, 66
13, 106976, Note_off_c, 12, 63, 61
13, 106980, Note_off_c, 12, 58, 66
13, 106988, Note_off_c, 12, 68, 69
13, 107040, Note_on_c, 12, 63, 73
13, 107040, Note_on_c, 12, 68, 66
13, 107040, Note_on_c, 12, 58, 66
13, 107064, Note_off_c, 12, 58, 66
13, 107076, Note_off_c, 12, 68, 66
13, 107092, Note_off_c, 12, 63, 73
13, 108480, Note_on_c, 12, 63, 61
13, 108480, Note_on_c, 12, 58, 66
13, 108480, Note_on_c, 12, 67, 69
13, 108512, Note_off_c, 12, 63, 61
13, 108516, Note_off_c, 12, 58, 66
13, 108524, Note_off_c, 12, 67, 69
13, 108576, Note_on_c, 12, 63, 73
13, 108576, Note_on_c, 12, 58, 66
13, 108576, Note_on_c, 12, 67, 66
13, 108600, Note_off_c, 12, 58, 66
13, 108612, Note_off_c, 12, 67, 66
13, 108628, Note_off_c, 12, 63, 73
13, 110016, Note_on_c, 12, 65, 86
13, 110016, Note_on_c, 12, 69, 92
13, 110016, Note_on_c, 12, 60, 76
13, 110056, Note_off_c, 12, 69, 92
13, 110056, Note_off_c, 12, 65, 86
13, 110060, Note_off_c, 12, 60, 76
13, 110112, Note_on_c, 12, 65, 76
13, 110112, Note_on_c, 12, 69, 72
13, 110112, Note_on_c, 12, 60, 58
13, 110140, Note_off_c, 12, 60, 58
13, 110144, Note_off_c, 12, 69, 72
13, 110156, Note_off_c, 12, 65, 76
13, 111552, Note_on_c, 12, 65, 70
13, 111552, Note_on_c, 12, 60, 75
13, 111552, Note_on_c, 12, 69, 71
13, 111580, Note_off_c, 12, 69, 71
13, 111588, Note_off_c, 12, 65, 70
13, 111596, Note_off_c, 12, 60, 75
13, 111648, Note_on_c, 12, 65, 55
13, 111648, Note_on_c, 12, 69, 69
13, 111648, Note_on_c, 12, 60, 76
13, 111688, Note_off_c, 12, 65, 55
13, 111692, Note_off_c, 12, 69, 69
13, 111696, Note_off_c, 12, 60, 76
13, 113088, Note_on_c, 12, 62, 77
13, 113088, Note_on_c, 12, 71, 85
13, 113088, Note_on_c, 12, 67, 75
13, 113112, Note_off_c, 12, 67, 75
13, 113124, Note_off_c, 12, 71, 85
13, 113136, Note_off_c, 12, 62, 77
13, 113184, Note_on_c, 12, 67, 88
13, 113184, Note_on_c, 12, 62, 72
13, 113184, Note_on_c, 12, 71, 63
13, 113208, Note_off_c, 12, 71, 63
13, 113228, Note_off_c, 12, 62, 72
13, 113232, Note_off_c, 12, 67, 88
13, 114624, Note_on_c, 12, 62, 83
13, 114624, Note_on_c, 12, 67, 81
13, 114624, Note_on_c, 12, 71, 82
13, 114656, Note_off_c, 12, 71, 82
13, 114656, Note_off_c, 12, 67, 81
13, 114668, Note_off_c, 12, 62, 83
13, 114720, Note_on_c, 12, 67, 78
13, 114720, Note_on_c, 12, 62, 70
13, 114720, Note_on_c, 12, 71, 71
13, 114748, Note_off_c, 12, 71, 71
13, 114764, Note_off_c, 12, 62, 70
13, 114764, Note_off_c, 12, 67, 78
13, 116160, Note_on_c, 12, 60, 69
13, 116160, Note_on_c, 12, 69, 80
13, 116160, Note_on_c, 12, 65, 59
13, 116192, Note_off_c, 12, 65, 59
13, 116196, Note_off_c, 12, 69, 80
13, 116208, Note_off_c, 12, 60, 69
13, 116256, Note_on_c, 12, 65, 77
13, 116256, Note_on_c, 12, 60, 71
13, 116256, Note_on_c, 12, 69, 48
13, 116284, Note_off_c, 12, 69, 48
13, 116300, Note_off_c, 12, 60, 71
13, 116308, Note_off_c, 12, 65, 77
13, 117696, Note_on_c, 12, 65, 82
13, 117696, Note_on_c, 12, 60, 77
13, 117696, Note_on_c, 12, 69, 84
13, 117732, Note_off_c, 12, 69, 84
13, 117740, Note_off_c, 12, 65, 82
13, 117748, Note_off_c, 12, 60, 77
13, 117792, Note_on_c, 12, 65, 73
13, 117792, Note_on_c, 12, 69, 77
13, 117792, Note_on_c, 12, 60, 66
13, 117828, Note_off_c, 12, 65, 73
13, 117832, Note_off_c, 12, 69, 77
13, 117836, Note_off_c, 12, 60, 66
13, 119232, Note_on_c, 12, 68, 80
13, 119232, Note_on_c, 12, 63, 69
13, 119232, Note_on_c, 12, 72, 68
13, 119260, Note_off_c, 12, 72, 68
13, 119272, Note_off_c, 12, 63, 69
13, 119288, Note_off_c, 12, 68, 80
13, 119328, Note_on_c, 12, 72, 75
13, 119328, Note_on_c, 12, 68, 78
13, 119328, Note_on_c, 12, 63, 76
13, 119364, Note_off_c, 12, 63, 76
13, 119372, Note_off_c, 12, 72, 75
13, 119380, Note_off_c, 12, 68, 78
13, 120768, Note_on_c, 12, 68, 87
13, 120768, Note_on_c, 12, 63, 75
13, 120768, Note_on_c, 12, 72, 73
13, 120804, Note_off_c, 12, 72, 73
13, 120820, Note_off_c, 12, 63, 75
13, 120824, Note_off_c, 12, 68, 87
13, 120864, Note_on_c, 12, 72, 47
13, 120864, Note_on_c, 12, 63, 78
13, 120864, Note_on_c, 12, 68, 74
13, 120900, Note_off_c, 12, 63, 78
13, 120904, Note_off_c, 12, 72, 47
13, 120908, Note_off_c, 12, 68, 74
13, 221952, End_track
14, 0, Start_track
14, 0, Title_t, "BASS SYNTH"
14, 644, Control_c, 13, 0, 0
14, 648, Control_c, 13, 121, 0
14, 652, Program_c, 13, 62
14, 656, Control_c, 13, 7, 90
14, 656, Control_c, 13, 10, 104
14, 656, Control_c, 13, 11, 127
14, 660, Control_c, 13, 91, 60
14, 660, Control_c, 13, 93, 20
14, 18432, Control_c, 13, 64, 127
14, 18432, Note_on_c, 13, 39, 92
14, 18548, Note_off_c, 13, 39, 92
14, 18624, Note_on_c, 13, 39, 65
14, 18672, Note_off_c, 13, 39, 65
14, 18816, Control_c, 13, 64, 0
14, 19200, Control_c, 13, 64, 127
14, 19200, Note_on_c, 13, 39, 90
14, 19312, Note_off_c, 13, 39, 90
14, 19392, Note_on_c, 13, 39, 65
14, 19440, Note_off_c, 13, 39, 65
14, 19584, Control_c, 13, 64, 0
14, 19968, Control_c, 13, 64, 127
14, 19968, Note_on_c, 13, 39, 92
14, 20084, Note_off_c, 13, 39, 92
14, 20160, Note_on_c, 13, 39, 65
14, 20208, Note_off_c, 13, 39, 65
14, 20352, Control_c, 13, 64, 0
14, 20736, Control_c, 13, 64, 127
14, 20736, Note_on_c, 13, 39, 90
14, 20848, Note_off_c, 13, 39, 90
14, 20928, Note_on_c, 13, 39, 65
14, 20976, Note_off_c, 13, 39, 65
14, 21120, Control_c, 13, 64, 0
14, 21504, Control_c, 13, 64, 127
14, 21504, Note_on_c, 13, 39, 92
14, 21620, Note_off_c, 13, 39, 92
14, 21696, Note_on_c, 13, 39, 65
14, 21744, Note_off_c, 13, 39, 65
14, 21888, Control_c, 13, 64, 0
14, 22272, Control_c, 13, 64, 127
14, 22272, Note_on_c, 13, 39, 90
14, 22384, Note_off_c, 13, 39, 90
14, 22464, Note_on_c, 13, 39, 65
14, 22512, Note_off_c, 13, 39, 65
14, 22656, Control_c, 13, 64, 0
14, 23040, Control_c, 13, 64, 127
14, 23040, Note_on_c, 13, 39, 92
14, 23156, Note_off_c, 13, 39, 92
14, 23232, Note_on_c, 13, 39, 65
14, 23280, Note_off_c, 13, 39, 65
14, 23424, Control_c, 13, 64, 0
14, 23808, Control_c, 13, 64, 127
14, 23808, Note_on_c, 13, 39, 90
14, 23920, Note_off_c, 13, 39, 90
14, 24000, Note_on_c, 13, 39, 65
14, 24048, Note_off_c, 13, 39, 65
14, 24192, Control_c, 13, 64, 0
14, 24576, Note_on_c, 13, 39, 94
14, 28976, Note_off_c, 13, 39, 94
14, 29184, Note_on_c, 13, 39, 100
14, 29300, Note_off_c, 13, 39, 100
14, 29376, Note_on_c, 13, 39, 90
14, 29472, Note_off_c, 13, 39, 90
14, 29952, Note_on_c, 13, 39, 100
14, 30064, Note_off_c, 13, 39, 100
14, 30144, Note_on_c, 13, 39, 90
14, 30240, Note_off_c, 13, 39, 90
14, 30528, Note_on_c, 13, 34, 100
14, 30640, Note_off_c, 13, 34, 100
14, 30720, Note_on_c, 13, 39, 86
14, 35120, Note_off_c, 13, 39, 86
14, 35328, Note_on_c, 13, 39, 100
14, 35444, Note_off_c, 13, 39, 100
14, 35520, Note_on_c, 13, 39, 90
14, 35616, Note_off_c, 13, 39, 90
14, 36096, Note_on_c, 13, 39, 100
14, 36208, Note_off_c, 13, 39, 100
14, 36288, Note_on_c, 13, 39, 90
14, 36384, Note_off_c, 13, 39, 90
14, 36672, Note_on_c, 13, 34, 100
14, 36784, Note_off_c, 13, 34, 100
14, 36864, Note_on_c, 13, 41, 89
14, 39876, Note_off_c, 13, 41, 89
14, 39936, Note_on_c, 13, 43, 94
14, 42984, Note_off_c, 13, 43, 94
14, 43008, Note_on_c, 13, 41, 89
14, 46044, Note_off_c, 13, 41, 89
14, 46080, Note_on_c, 13, 44, 90
14, 48384, Note_off_c, 13, 44, 90
14, 51456, Note_on_c, 13, 67, 81
14, 51456, Note_on_c, 13, 72, 74
14, 51456, Note_on_c, 13, 63, 69
14, 52876, Note_off_c, 13, 72, 74
14, 52880, Note_off_c, 13, 63, 69
14, 52916, Note_off_c, 13, 67, 81
14, 52992, Note_on_c, 13, 70, 69
14, 52992, Note_on_c, 13, 62, 81
14, 52992, Note_on_c, 13, 67, 67
14, 54408, Note_off_c, 13, 62, 81
14, 54432, Note_off_c, 13, 67, 67
14, 54440, Note_off_c, 13, 70, 69
14, 54528, Note_on_c, 13, 67, 70
14, 54528, Note_on_c, 13, 72, 78
14, 54528, Note_on_c, 13, 63, 67
14, 55968, Note_off_c, 13, 72, 78
14, 55980, Note_off_c, 13, 63, 67
14, 56004, Note_off_c, 13, 67, 70
14, 56064, Note_on_c, 13, 62, 79
14, 56064, Note_on_c, 13, 70, 69
14, 56064, Note_on_c, 13, 67, 77
14, 57340, Note_off_c, 13, 67, 77
14, 57348, Note_off_c, 13, 62, 79
14, 57416, Note_off_c, 13, 70, 69
14, 57600, Note_on_c, 13, 65, 68
14, 57600, Note_on_c, 13, 63, 70
14, 57600, Note_on_c, 13, 70, 71
14, 58384, Note_off_c, 13, 63, 70
14, 59136, Note_on_c, 13, 63, 80
14, 59900, Note_off_c, 13, 63, 80
14, 60532, Note_off_c, 13, 65, 68
14, 60564, Note_off_c, 13, 70, 71
14, 60672, Note_on_c, 13, 67, 75
14, 60672, Note_on_c, 13, 63, 75
14, 60672, Note_on_c, 13, 72, 80
14, 62048, Note_off_c, 13, 72, 80
14, 62052, Note_off_c, 13, 63, 75
14, 62108, Note_off_c, 13, 67, 75
14, 62208, Note_on_c, 13, 63, 73
14, 62208, Note_on_c, 13, 68, 68
14, 62208, Note_on_c, 13, 60, 66
14, 62784, Note_off_c, 13, 60, 66
14, 62784, Note_off_c, 13, 68, 68
14, 62784, Note_off_c, 13, 63, 73
14, 62784, Note_on_c, 13, 67, 80
14, 62784, Note_on_c, 13, 59, 74
14, 62784, Note_on_c, 13, 62, 79
14, 63360, Note_off_c, 13, 67, 80
14, 63412, Note_off_c, 13, 62, 79
14, 63420, Note_off_c, 13, 59, 74
14, 63744, Note_on_c, 13, 67, 78
14, 63744, Note_on_c, 13, 72, 82
14, 63744, Note_on_c, 13, 63, 72
14, 65144, Note_off_c, 13, 63, 72
14, 65176, Note_off_c, 13, 72, 82
14, 65200, Note_off_c, 13, 67, 78
14, 65280, Note_on_c, 13, 67, 72
14, 65280, Note_on_c, 13, 62, 69
14, 65280, Note_on_c, 13, 70, 72
14, 66732, Note_off_c, 13, 62, 69
14, 66732, Note_off_c, 13, 67, 72
14, 66748, Note_off_c, 13, 70, 72
14, 66816, Note_on_c, 13, 72, 80
14, 66816, Note_on_c, 13, 63, 74
14, 66816, Note_on_c, 13, 67, 72
14, 68216, Note_off_c, 13, 72, 80
14, 68220, Note_off_c, 13, 63, 74
14, 68244, Note_off_c, 13, 67, 72
14, 68352, Note_on_c, 13, 70, 75
14, 68352, Note_on_c, 13, 62, 76
14, 68352, Note_on_c, 13, 67, 74
14, 69744, Note_off_c, 13, 62, 76
14, 69752, Note_off_c, 13, 67, 74
14, 69776, Note_off_c, 13, 70, 75
14, 69888, Note_on_c, 13, 65, 72
14, 69888, Note_on_c, 13, 70, 77
14, 69888, Note_on_c, 13, 63, 75
14, 70656, Note_on_c, 13, 62, 65
14, 70672, Note_off_c, 13, 63, 75
14, 71352, Note_off_c, 13, 62, 65
14, 71372, Note_off_c, 13, 70, 77
14, 71376, Note_off_c, 13, 65, 72
14, 71424, Note_on_c, 13, 65, 61
14, 71424, Note_on_c, 13, 70, 67
14, 71424, Note_on_c, 13, 63, 70
14, 72188, Note_off_c, 13, 63, 70
14, 72192, Note_on_c, 13, 62, 72
14, 72832, Note_off_c, 13, 62, 72
14, 72848, Note_off_c, 13, 65, 61
14, 72872, Note_off_c, 13, 70, 67
14, 72960, Note_on_c, 13, 72, 84
14, 72960, Note_on_c, 13, 63, 73
14, 72960, Note_on_c, 13, 67, 72
14, 74304, Note_off_c, 13, 72, 84
14, 74344, Note_off_c, 13, 63, 73
14, 74376, Note_off_c, 13, 67, 72
14, 74496, Note_on_c, 13, 63, 73
14, 74496, Note_on_c, 13, 68, 71
14, 74496, Note_on_c, 13, 60, 73
14, 75072, Note_off_c, 13, 60, 73
14, 75072, Note_off_c, 13, 68, 71
14, 75072, Note_off_c, 13, 63, 73
14, 75072, Note_on_c, 13, 62, 75
14, 75072, Note_on_c, 13, 59, 84
14, 75072, Note_on_c, 13, 67, 79
14, 75692, Note_off_c, 13, 67, 79
14, 75692, Note_off_c, 13, 62, 75
14, 75704, Note_off_c, 13, 59, 84
14, 91392, Control_c, 13, 64, 127
14, 91392, Note_on_c, 13, 39, 92
14, 91508, Note_off_c, 13, 39, 92
14, 91584, Note_on_c, 13, 39, 65
14, 91632, Note_off_c, 13, 39, 65
14, 91776, Control_c, 13, 64, 0
14, 92160, Control_c, 13, 64, 127
14, 92160, Note_on_c, 13, 39, 90
14, 92272, Note_off_c, 13, 39, 90
14, 92352, Note_on_c, 13, 39, 65
14, 92400, Note_off_c, 13, 39, 65
14, 92544, Control_c, 13, 64, 0
14, 92928, Control_c, 13, 64, 127
14, 92928, Note_on_c, 13, 39, 92
14, 93044, Note_off_c, 13, 39, 92
14, 93120, Note_on_c, 13, 39, 65
14, 93168, Note_off_c, 13, 39, 65
14, 93312, Control_c, 13, 64, 0
14, 93696, Control_c, 13, 64, 127
14, 93696, Note_on_c, 13, 39, 90
14, 93808, Note_off_c, 13, 39, 90
14, 93888, Note_on_c, 13, 39, 65
14, 93936, Note_off_c, 13, 39, 65
14, 94080, Control_c, 13, 64, 0
14, 94464, Control_c, 13, 64, 127
14, 94464, Note_on_c, 13, 39, 92
14, 94580, Note_off_c, 13, 39, 92
14, 94656, Note_on_c, 13, 39, 65
14, 94704, Note_off_c, 13, 39, 65
14, 94848, Control_c, 13, 64, 0
14, 95232, Control_c, 13, 64, 127
14, 95232, Note_on_c, 13, 39, 90
14, 95344, Note_off_c, 13, 39, 90
14, 95424, Note_on_c, 13, 39, 65
14, 95472, Note_off_c, 13, 39, 65
14, 95616, Control_c, 13, 64, 0
14, 96000, Control_c, 13, 64, 127
14, 96000, Note_on_c, 13, 39, 92
14, 96116, Note_off_c, 13, 39, 92
14, 96192, Note_on_c, 13, 39, 65
14, 96240, Note_off_c, 13, 39, 65
14, 96384, Control_c, 13, 64, 0
14, 96768, Control_c, 13, 64, 127
14, 96768, Note_on_c, 13, 39, 90
14, 96880, Note_off_c, 13, 39, 90
14, 96960, Note_on_c, 13, 39, 65
14, 97008, Note_off_c, 13, 39, 65
14, 97152, Control_c, 13, 64, 0
14, 97536, Note_on_c, 13, 39, 94
14, 101936, Note_off_c, 13, 39, 94
14, 102144, Note_on_c, 13, 39, 100
14, 102260, Note_off_c, 13, 39, 100
14, 102336, Note_on_c, 13, 39, 90
14, 102432, Note_off_c, 13, 39, 90
14, 102912, Note_on_c, 13, 39, 100
14, 103024, Note_off_c, 13, 39, 100
14, 103104, Note_on_c, 13, 39, 90
14, 103200, Note_off_c, 13, 39, 90
14, 103488, Note_on_c, 13, 34, 100
14, 103600, Note_off_c, 13, 34, 100
14, 103680, Note_on_c, 13, 39, 86
14, 108080, Note_off_c, 13, 39, 86
14, 108288, Note_on_c, 13, 39, 100
14, 108404, Note_off_c, 13, 39, 100
14, 108480, Note_on_c, 13, 39, 90
14, 108576, Note_off_c, 13, 39, 90
14, 109056, Note_on_c, 13, 39, 100
14, 109168, Note_off_c, 13, 39, 100
14, 109248, Note_on_c, 13, 39, 90
14, 109344, Note_off_c, 13, 39, 90
14, 109632, Note_on_c, 13, 34, 100
14, 109744, Note_off_c, 13, 34, 100
14, 109824, Note_on_c, 13, 41, 89
14, 112836, Note_off_c, 13, 41, 89
14, 112896, Note_on_c, 13, 43, 94
14, 115944, Note_off_c, 13, 43, 94
14, 115968, Note_on_c, 13, 41, 89
14, 119004, Note_off_c, 13, 41, 89
14, 119040, Note_on_c, 13, 44, 90
14, 121344, Note_off_c, 13, 44, 90
14, 124416, Note_on_c, 13, 67, 81
14, 124416, Note_on_c, 13, 72, 74
14, 124416, Note_on_c, 13, 63, 69
14, 125836, Note_off_c, 13, 72, 74
14, 125840, Note_off_c, 13, 63, 69
14, 125876, Note_off_c, 13, 67, 81
14, 125952, Note_on_c, 13, 70, 69
14, 125952, Note_on_c, 13, 62, 81
14, 125952, Note_on_c, 13, 67, 67
14, 127368, Note_off_c, 13, 62, 81
14, 127392, Note_off_c, 13, 67, 67
14, 127400, Note_off_c, 13, 70, 69
14, 127488, Note_on_c, 13, 67, 70
14, 127488, Note_on_c, 13, 72, 78
14, 127488, Note_on_c, 13, 63, 67
14, 128928, Note_off_c, 13, 72, 78
14, 128940, Note_off_c, 13, 63, 67
14, 128964, Note_off_c, 13, 67, 70
14, 129024, Note_on_c, 13, 62, 79
14, 129024, Note_on_c, 13, 70, 69
14, 129024, Note_on_c, 13, 67, 77
14, 130300, Note_off_c, 13, 67, 77
14, 130308, Note_off_c, 13, 62, 79
14, 130376, Note_off_c, 13, 70, 69
14, 130560, Note_on_c, 13, 65, 68
14, 130560, Note_on_c, 13, 63, 70
14, 130560, Note_on_c, 13, 70, 71
14, 131344, Note_off_c, 13, 63, 70
14, 132096, Note_on_c, 13, 63, 80
14, 132860, Note_off_c, 13, 63, 80
14, 133492, Note_off_c, 13, 65, 68
14, 133524, Note_off_c, 13, 70, 71
14, 133632, Note_on_c, 13, 67, 75
14, 133632, Note_on_c, 13, 63, 75
14, 133632, Note_on_c, 13, 72, 80
14, 135008, Note_off_c, 13, 72, 80
14, 135012, Note_off_c, 13, 63, 75
14, 135068, Note_off_c, 13, 67, 75
14, 135168, Note_on_c, 13, 63, 73
14, 135168, Note_on_c, 13, 68, 68
14, 135168, Note_on_c, 13, 60, 66
14, 135744, Note_off_c, 13, 60, 66
14, 135744, Note_off_c, 13, 68, 68
14, 135744, Note_off_c, 13, 63, 73
14, 135744, Note_on_c, 13, 67, 80
14, 135744, Note_on_c, 13, 59, 74
14, 135744, Note_on_c, 13, 62, 79
14, 136320, Note_off_c, 13, 67, 80
14, 136372, Note_off_c, 13, 62, 79
14, 136380, Note_off_c, 13, 59, 74
14, 136704, Note_on_c, 13, 67, 78
14, 136704, Note_on_c, 13, 72, 82
14, 136704, Note_on_c, 13, 63, 72
14, 138104, Note_off_c, 13, 63, 72
14, 138136, Note_off_c, 13, 72, 82
14, 138160, Note_off_c, 13, 67, 78
14, 138240, Note_on_c, 13, 67, 72
14, 138240, Note_on_c, 13, 62, 69
14, 138240, Note_on_c, 13, 70, 72
14, 139692, Note_off_c, 13, 62, 69
14, 139692, Note_off_c, 13, 67, 72
14, 139708, Note_off_c, 13, 70, 72
14, 139776, Note_on_c, 13, 72, 80
14, 139776, Note_on_c, 13, 63, 74
14, 139776, Note_on_c, 13, 67, 72
14, 141176, Note_off_c, 13, 72, 80
14, 141180, Note_off_c, 13, 63, 74
14, 141204, Note_off_c, 13, 67, 72
14, 141312, Note_on_c, 13, 70, 75
14, 141312, Note_on_c, 13, 62, 76
14, 141312, Note_on_c, 13, 67, 74
14, 142704, Note_off_c, 13, 62, 76
14, 142712, Note_off_c, 13, 67, 74
14, 142736, Note_off_c, 13, 70, 75
14, 142848, Note_on_c, 13, 65, 72
14, 142848, Note_on_c, 13, 70, 77
14, 142848, Note_on_c, 13, 63, 75
14, 143616, Note_on_c, 13, 62, 65
14, 143632, Note_off_c, 13, 63, 75
14, 144312, Note_off_c, 13, 62, 65
14, 144332, Note_off_c, 13, 70, 77
14, 144336, Note_off_c, 13, 65, 72
14, 144384, Note_on_c, 13, 65, 61
14, 144384, Note_on_c, 13, 70, 67
14, 144384, Note_on_c, 13, 63, 70
14, 145148, Note_off_c, 13, 63, 70
14, 145152, Note_on_c, 13, 62, 72
14, 145792, Note_off_c, 13, 62, 72
14, 145808, Note_off_c, 13, 65, 61
14, 145832, Note_off_c, 13, 70, 67
14, 145920, Note_on_c, 13, 72, 84
14, 145920, Note_on_c, 13, 63, 73
14, 145920, Note_on_c, 13, 67, 72
14, 147264, Note_off_c, 13, 72, 84
14, 147304, Note_off_c, 13, 63, 73
14, 147336, Note_off_c, 13, 67, 72
14, 147456, Note_on_c, 13, 63, 73
14, 147456, Note_on_c, 13, 68, 71
14, 147456, Note_on_c, 13, 60, 73
14, 148032, Note_off_c, 13, 60, 73
14, 148032, Note_off_c, 13, 68, 71
14, 148032, Note_off_c, 13, 63, 73
14, 148032, Note_on_c, 13, 62, 75
14, 148032, Note_on_c, 13, 59, 84
14, 148032, Note_on_c, 13, 67, 79
14, 148652, Note_off_c, 13, 67, 79
14, 148652, Note_off_c, 13, 62, 75
14, 148664, Note_off_c, 13, 59, 84
14, 165888, Note_on_c, 13, 67, 81
14, 165888, Note_on_c, 13, 72, 74
14, 165888, Note_on_c, 13, 63, 69
14, 167308, Note_off_c, 13, 72, 74
14, 167312, Note_off_c, 13, 63, 69
14, 167348, Note_off_c, 13, 67, 81
14, 167424, Note_on_c, 13, 70, 69
14, 167424, Note_on_c, 13, 62, 81
14, 167424, Note_on_c, 13, 67, 67
14, 168840, Note_off_c, 13, 62, 81
14, 168864, Note_off_c, 13, 67, 67
14, 168872, Note_off_c, 13, 70, 69
14, 168960, Note_on_c, 13, 67, 70
14, 168960, Note_on_c, 13, 72, 78
14, 168960, Note_on_c, 13, 63, 67
14, 170400, Note_off_c, 13, 72, 78
14, 170412, Note_off_c, 13, 63, 67
14, 170436, Note_off_c, 13, 67, 70
14, 170496, Note_on_c, 13, 62, 79
14, 170496, Note_on_c, 13, 70, 69
14, 170496, Note_on_c, 13, 67, 77
14, 171772, Note_off_c, 13, 67, 77
14, 171780, Note_off_c, 13, 62, 79
14, 171848, Note_off_c, 13, 70, 69
14, 172032, Note_on_c, 13, 65, 68
14, 172032, Note_on_c, 13, 63, 70
14, 172032, Note_on_c, 13, 70, 71
14, 172816, Note_off_c, 13, 63, 70
14, 173568, Note_on_c, 13, 63, 80
14, 174332, Note_off_c, 13, 63, 80
14, 174964, Note_off_c, 13, 65, 68
14, 174996, Note_off_c, 13, 70, 71
14, 175104, Note_on_c, 13, 67, 75
14, 175104, Note_on_c, 13, 63, 75
14, 175104, Note_on_c, 13, 72, 80
14, 176480, Note_off_c, 13, 72, 80
14, 176484, Note_off_c, 13, 63, 75
14, 176540, Note_off_c, 13, 67, 75
14, 176640, Note_on_c, 13, 63, 73
14, 176640, Note_on_c, 13, 68, 68
14, 176640, Note_on_c, 13, 60, 66
14, 177216, Note_off_c, 13, 60, 66
14, 177216, Note_off_c, 13, 68, 68
14, 177216, Note_off_c, 13, 63, 73
14, 177216, Note_on_c, 13, 67, 80
14, 177216, Note_on_c, 13, 59, 74
14, 177216, Note_on_c, 13, 62, 79
14, 177792, Note_off_c, 13, 67, 80
14, 177844, Note_off_c, 13, 62, 79
14, 177852, Note_off_c, 13, 59, 74
14, 178176, Note_on_c, 13, 67, 81
14, 178176, Note_on_c, 13, 72, 74
14, 178176, Note_on_c, 13, 63, 69
14, 179596, Note_off_c, 13, 72, 74
14, 179600, Note_off_c, 13, 63, 69
14, 179636, Note_off_c, 13, 67, 81
14, 179712, Note_on_c, 13, 70, 69
14, 179712, Note_on_c, 13, 62, 81
14, 179712, Note_on_c, 13, 67, 67
14, 181128, Note_off_c, 13, 62, 81
14, 181152, Note_off_c, 13, 67, 67
14, 181160, Note_off_c, 13, 70, 69
14, 181248, Note_on_c, 13, 67, 70
14, 181248, Note_on_c, 13, 72, 78
14, 181248, Note_on_c, 13, 63, 67
14, 182688, Note_off_c, 13, 72, 78
14, 182700, Note_off_c, 13, 63, 67
14, 182724, Note_off_c, 13, 67, 70
14, 182784, Note_on_c, 13, 62, 79
14, 182784, Note_on_c, 13, 70, 69
14, 182784, Note_on_c, 13, 67, 77
14, 184060, Note_off_c, 13, 67, 77
14, 184068, Note_off_c, 13, 62, 79
14, 184136, Note_off_c, 13, 70, 69
14, 184320, Note_on_c, 13, 65, 68
14, 184320, Note_on_c, 13, 63, 70
14, 184320, Note_on_c, 13, 70, 71
14, 185104, Note_off_c, 13, 63, 70
14, 185856, Note_on_c, 13, 63, 80
14, 186620, Note_off_c, 13, 63, 80
14, 187252, Note_off_c, 13, 65, 68
14, 187284, Note_off_c, 13, 70, 71
14, 187392, Note_on_c, 13, 67, 75
14, 187392, Note_on_c, 13, 63, 75
14, 187392, Note_on_c, 13, 72, 80
14, 188768, Note_off_c, 13, 72, 80
14, 188772, Note_off_c, 13, 63, 75
14, 188828, Note_off_c, 13, 67, 75
14, 188928, Note_on_c, 13, 63, 73
14, 188928, Note_on_c, 13, 68, 68
14, 188928, Note_on_c, 13, 60, 66
14, 189504, Note_off_c, 13, 60, 66
14, 189504, Note_off_c, 13, 68, 68
14, 189504, Note_off_c, 13, 63, 73
14, 189504, Note_on_c, 13, 67, 80
14, 189504, Note_on_c, 13, 59, 74
14, 189504, Note_on_c, 13, 62, 79
14, 191712, Note_off_c, 13, 62, 79
14, 191712, Note_off_c, 13, 59, 74
14, 191712, Note_off_c, 13, 67, 80
14, 192000, Note_on_c, 13, 67, 81
14, 192000, Note_on_c, 13, 72, 74
14, 192000, Note_on_c, 13, 63, 69
14, 193420, Note_off_c, 13, 72, 74
14, 193424, Note_off_c, 13, 63, 69
14, 193460, Note_off_c, 13, 67, 81
14, 193536, Note_on_c, 13, 70, 69
14, 193536, Note_on_c, 13, 62, 81
14, 193536, Note_on_c, 13, 67, 67
14, 194952, Note_off_c, 13, 62, 81
14, 194976, Note_off_c, 13, 67, 67
14, 194984, Note_off_c, 13, 70, 69
14, 195072, Note_on_c, 13, 67, 70
14, 195072, Note_on_c, 13, 72, 78
14, 195072, Note_on_c, 13, 63, 67
14, 196512, Note_off_c, 13, 72, 78
14, 196524, Note_off_c, 13, 63, 67
14, 196548, Note_off_c, 13, 67, 70
14, 196608, Note_on_c, 13, 62, 79
14, 196608, Note_on_c, 13, 70, 69
14, 196608, Note_on_c, 13, 67, 77
14, 197884, Note_off_c, 13, 67, 77
14, 197892, Note_off_c, 13, 62, 79
14, 197960, Note_off_c, 13, 70, 69
14, 198144, Note_on_c, 13, 65, 68
14, 198144, Note_on_c, 13, 63, 70
14, 198144, Note_on_c, 13, 70, 71
14, 198928, Note_off_c, 13, 63, 70
14, 199680, Note_on_c, 13, 63, 80
14, 200444, Note_off_c, 13, 63, 80
14, 201076, Note_off_c, 13, 65, 68
14, 201108, Note_off_c, 13, 70, 71
14, 201216, Note_on_c, 13, 67, 75
14, 201216, Note_on_c, 13, 63, 75
14, 201216, Note_on_c, 13, 72, 80
14, 202592, Note_off_c, 13, 72, 80
14, 202596, Note_off_c, 13, 63, 75
14, 202652, Note_off_c, 13, 67, 75
14, 202752, Note_on_c, 13, 63, 73
14, 202752, Note_on_c, 13, 68, 68
14, 202752, Note_on_c, 13, 60, 66
14, 203328, Note_off_c, 13, 60, 66
14, 203328, Note_off_c, 13, 68, 68
14, 203328, Note_off_c, 13, 63, 73
14, 203328, Note_on_c, 13, 67, 80
14, 203328, Note_on_c, 13, 59, 74
14, 203328, Note_on_c, 13, 62, 79
14, 203956, Note_off_c, 13, 62, 79
14, 203964, Note_off_c, 13, 59, 74
14, 204008, Note_off_c, 13, 67, 80
14, 204288, Note_on_c, 13, 67, 81
14, 204288, Note_on_c, 13, 72, 74
14, 204288, Note_on_c, 13, 63, 69
14, 205708, Note_off_c, 13, 72, 74
14, 205712, Note_off_c, 13, 63, 69
14, 205748, Note_off_c, 13, 67, 81
14, 205824, Note_on_c, 13, 70, 69
14, 205824, Note_on_c, 13, 62, 81
14, 205824, Note_on_c, 13, 67, 67
14, 207240, Note_off_c, 13, 62, 81
14, 207264, Note_off_c, 13, 67, 67
14, 207272, Note_off_c, 13, 70, 69
14, 207360, Note_on_c, 13, 67, 70
14, 207360, Note_on_c, 13, 72, 78
14, 207360, Note_on_c, 13, 63, 67
14, 208800, Note_off_c, 13, 72, 78
14, 208812, Note_off_c, 13, 63, 67
14, 208836, Note_off_c, 13, 67, 70
14, 208896, Note_on_c, 13, 62, 79
14, 208896, Note_on_c, 13, 70, 69
14, 208896, Note_on_c, 13, 67, 77
14, 210172, Note_off_c, 13, 67, 77
14, 210180, Note_off_c, 13, 62, 79
14, 210248, Note_off_c, 13, 70, 69
14, 210432, Note_on_c, 13, 65, 68
14, 210432, Note_on_c, 13, 63, 70
14, 210432, Note_on_c, 13, 70, 71
14, 211216, Note_off_c, 13, 63, 70
14, 211968, Note_on_c, 13, 63, 80
14, 212732, Note_off_c, 13, 63, 80
14, 213364, Note_off_c, 13, 65, 68
14, 213396, Note_off_c, 13, 70, 71
14, 213504, Note_on_c, 13, 67, 75
14, 213504, Note_on_c, 13, 63, 75
14, 213504, Note_on_c, 13, 72, 80
14, 214880, Note_off_c, 13, 72, 80
14, 214884, Note_off_c, 13, 63, 75
14, 214940, Note_off_c, 13, 67, 75
14, 215040, Note_on_c, 13, 63, 73
14, 215040, Note_on_c, 13, 68, 68
14, 215040, Note_on_c, 13, 60, 66
14, 215616, Note_off_c, 13, 60, 66
14, 215616, Note_off_c, 13, 68, 68
14, 215616, Note_off_c, 13, 63, 73
14, 215616, Note_on_c, 13, 67, 80
14, 215616, Note_on_c, 13, 59, 74
14, 215616, Note_on_c, 13, 62, 79
14, 217920, Note_off_c, 13, 62, 79
14, 217920, Note_off_c, 13, 59, 74
14, 217920, Note_off_c, 13, 67, 80
14, 218112, Note_on_c, 13, 63, 73
14, 218112, Note_on_c, 13, 60, 66
14, 218112, Note_on_c, 13, 72, 68
14, 218112, Note_on_c, 13, 67, 80
14, 218304, Note_off_c, 13, 67, 80
14, 218304, Note_off_c, 13, 72, 68
14, 218304, Note_off_c, 13, 60, 66
14, 218304, Note_off_c, 13, 63, 73
14, 218400, Note_on_c, 13, 63, 73
14, 218400, Note_on_c, 13, 60, 73
14, 218400, Note_on_c, 13, 67, 73
14, 218400, Note_on_c, 13, 72, 73
14, 218496, Note_off_c, 13, 72, 73
14, 218496, Note_off_c, 13, 67, 73
14, 218496, Note_off_c, 13, 60, 73
14, 218496, Note_off_c, 13, 63, 73
14, 221952, End_track
0, 0, End_of_file
