0, 0, Header, 1, 6, 960
1, 0, Start_track
1, 0, Control_c, 0, 101, 0
1, 0, Control_c, 0, 100, 0
1, 0, Control_c, 0, 6, 12
1, 0, Control_c, 0, 38, 0
1, 0, Control_c, 1, 101, 0
1, 0, Control_c, 1, 100, 0
1, 0, Control_c, 1, 6, 12
1, 0, Control_c, 1, 38, 0
1, 0, Control_c, 2, 101, 0
1, 0, Control_c, 2, 100, 0
1, 0, Control_c, 2, 6, 12
1, 0, Control_c, 2, 38, 0
1, 0, Control_c, 3, 101, 0
1, 0, Control_c, 3, 100, 0
1, 0, Control_c, 3, 6, 12
1, 0, Control_c, 3, 38, 0
1, 0, Control_c, 4, 101, 0
1, 0, Control_c, 4, 100, 0
1, 0, Control_c, 4, 6, 12
1, 0, Control_c, 4, 38, 0
1, 0, Control_c, 5, 101, 0
1, 0, Control_c, 5, 100, 0
1, 0, Control_c, 5, 6, 12
1, 0, Control_c, 5, 38, 0
1, 0, Control_c, 6, 101, 0
1, 0, Control_c, 6, 100, 0
1, 0, Control_c, 6, 6, 12
1, 0, Control_c, 6, 38, 0
1, 0, Control_c, 7, 101, 0
1, 0, Control_c, 7, 100, 0
1, 0, Control_c, 7, 6, 12
1, 0, Control_c, 7, 38, 0
1, 0, Control_c, 8, 101, 0
1, 0, Control_c, 8, 100, 0
1, 0, Control_c, 8, 6, 12
1, 0, Control_c, 8, 38, 0
1, 0, Control_c, 9, 101, 0
1, 0, Control_c, 9, 100, 0
1, 0, Control_c, 9, 6, 12
1, 0, Control_c, 9, 38, 0
1, 0, Control_c, 10, 101, 0
1, 0, Control_c, 10, 100, 0
1, 0, Control_c, 10, 6, 12
1, 0, Control_c, 10, 38, 0
1, 0, Control_c, 11, 101, 0
1, 0, Control_c, 11, 100, 0
1, 0, Control_c, 11, 6, 12
1, 0, Control_c, 11, 38, 0
1, 0, Control_c, 12, 101, 0
1, 0, Control_c, 12, 100, 0
1, 0, Control_c, 12, 6, 12
1, 0, Control_c, 12, 38, 0
1, 0, Control_c, 13, 101, 0
1, 0, Control_c, 13, 100, 0
1, 0, Control_c, 13, 6, 12
1, 0, Control_c, 13, 38, 0
1, 0, Control_c, 14, 101, 0
1, 0, Control_c, 14, 100, 0
1, 0, Control_c, 14, 6, 12
1, 0, Control_c, 14, 38, 0
1, 0, Control_c, 15, 101, 0
1, 0, Control_c, 15, 100, 0
1, 0, Control_c, 15, 6, 12
1, 0, Control_c, 15, 38, 0
1, 0, Time_signature, 4, 2, 24, 8
1, 0, Tempo, 491803
1, 0, End_track
2, 0, Start_track
2, 0, Pitch_bend_c, 0, 8192
2, 0, Control_c, 0, 7, 103
2, 0, Control_c, 0, 10, 63
2, 0, Control_c, 0, 93, 0
2, 0, Control_c, 0, 91, 0
2, 0, Control_c, 0, 95, 0
2, 0, Control_c, 0, 92, 0
2, 0, Control_c, 0, 11, 127
2, 0, Program_c, 0, 27
2, 0, Control_c, 1, 7, 103
2, 0, Control_c, 1, 10, 63
2, 0, Control_c, 1, 93, 0
2, 0, Control_c, 1, 91, 0
2, 0, Control_c, 1, 95, 0
2, 0, Control_c, 1, 92, 0
2, 0, Control_c, 1, 11, 127
2, 0, Program_c, 1, 27
2, 0, Note_on_c, 0, 64, 79
2, 0, Note_on_c, 0, 60, 79
2, 0, Note_on_c, 0, 55, 79
2, 0, Note_on_c, 0, 48, 79
2, 1440, Note_off_c, 0, 64, 79
2, 1440, Note_off_c, 0, 60, 79
2, 1440, Note_off_c, 0, 55, 79
2, 1440, Note_off_c, 0, 48, 79
2, 1440, Note_on_c, 0, 62, 79
2, 1440, Note_on_c, 0, 58, 79
2, 1440, Note_on_c, 0, 55, 79
2, 1440, Note_on_c, 0, 50, 79
2, 1440, Note_on_c, 0, 43, 79
2, 3360, Note_off_c, 0, 62, 79
2, 3360, Note_off_c, 0, 58, 79
2, 3360, Note_off_c, 0, 55, 79
2, 3360, Note_off_c, 0, 50, 79
2, 3360, Note_off_c, 0, 43, 79
2, 3360, Note_on_c, 0, 48, 79
2, 3360, Note_on_c, 0, 43, 79
2, 3840, Note_off_c, 0, 48, 79
2, 3840, Note_off_c, 0, 43, 79
2, 3840, Note_on_c, 0, 64, 79
2, 3840, Note_on_c, 0, 60, 79
2, 3840, Note_on_c, 0, 55, 79
2, 3840, Note_on_c, 0, 48, 79
2, 5280, Note_off_c, 0, 64, 79
2, 5280, Note_off_c, 0, 60, 79
2, 5280, Note_off_c, 0, 55, 79
2, 5280, Note_off_c, 0, 48, 79
2, 5280, Note_on_c, 0, 67, 79
2, 5280, Note_on_c, 0, 62, 79
2, 5280, Note_on_c, 0, 58, 79
2, 5280, Note_on_c, 0, 55, 79
2, 5280, Note_on_c, 0, 50, 79
2, 5280, Note_on_c, 0, 43, 79
2, 7200, Note_off_c, 0, 67, 79
2, 7200, Note_off_c, 0, 62, 79
2, 7200, Note_off_c, 0, 58, 79
2, 7200, Note_off_c, 0, 55, 79
2, 7200, Note_off_c, 0, 50, 79
2, 7200, Note_off_c, 0, 43, 79
2, 7200, Note_on_c, 0, 48, 79
2, 7200, Note_on_c, 0, 43, 79
2, 7680, Note_off_c, 0, 48, 79
2, 7680, Note_off_c, 0, 43, 79
2, 7680, Note_on_c, 0, 64, 79
2, 7680, Note_on_c, 0, 60, 79
2, 7680, Note_on_c, 0, 55, 79
2, 7680, Note_on_c, 0, 48, 79
2, 9120, Note_off_c, 0, 64, 79
2, 9120, Note_off_c, 0, 60, 79
2, 9120, Note_off_c, 0, 55, 79
2, 9120, Note_off_c, 0, 48, 79
2, 9120, Note_on_c, 0, 67, 79
2, 9120, Note_on_c, 0, 62, 79
2, 9120, Note_on_c, 0, 58, 79
2, 9120, Note_on_c, 0, 55, 79
2, 9120, Note_on_c, 0, 50, 79
2, 9120, Note_on_c, 0, 43, 79
2, 11040, Note_off_c, 0, 67, 79
2, 11040, Note_off_c, 0, 62, 79
2, 11040, Note_off_c, 0, 58, 79
2, 11040, Note_off_c, 0, 55, 79
2, 11040, Note_off_c, 0, 50, 79
2, 11040, Note_off_c, 0, 43, 79
2, 11040, Note_on_c, 0, 43, 79
2, 11520, Note_off_c, 0, 43, 79
2, 11520, Note_on_c, 0, 64, 79
2, 11520, Note_on_c, 0, 60, 79
2, 11520, Note_on_c, 0, 55, 79
2, 11520, Note_on_c, 0, 48, 79
2, 15360, Note_off_c, 0, 64, 79
2, 15360, Note_off_c, 0, 60, 79
2, 15360, Note_off_c, 0, 55, 79
2, 15360, Note_off_c, 0, 48, 79
2, 16800, Note_on_c, 0, 48, 79
2, 17040, Note_off_c, 0, 48, 79
2, 17040, Note_on_c, 0, 50, 54
2, 17280, Note_off_c, 0, 50, 54
2, 17280, Note_on_c, 0, 53, 79
2, 17760, Note_off_c, 0, 53, 79
2, 17760, Note_on_c, 0, 43, 79
2, 18240, Note_off_c, 0, 43, 79
2, 18240, Note_on_c, 1, 55, 79
2, 18400, Pitch_bend_c, 1, 8192
2, 18560, Pitch_bend_c, 1, 8320
2, 18720, Pitch_bend_c, 1, 8192
2, 18880, Pitch_bend_c, 1, 8320
2, 19040, Pitch_bend_c, 1, 8192
2, 19200, Pitch_bend_c, 1, 8320
2, 19200, Pitch_bend_c, 1, 8192
2, 19200, Note_off_c, 1, 55, 79
2, 20640, Note_on_c, 0, 48, 79
2, 20880, Note_off_c, 0, 48, 79
2, 20880, Note_on_c, 0, 50, 54
2, 21120, Note_off_c, 0, 50, 54
2, 21120, Note_on_c, 0, 53, 79
2, 21600, Note_off_c, 0, 53, 79
2, 21600, Note_on_c, 0, 40, 79
2, 22080, Note_off_c, 0, 40, 79
2, 24480, Note_on_c, 0, 48, 79
2, 24720, Note_off_c, 0, 48, 79
2, 24720, Note_on_c, 0, 50, 54
2, 24960, Note_off_c, 0, 50, 54
2, 24960, Note_on_c, 0, 53, 79
2, 25440, Note_off_c, 0, 53, 79
2, 25440, Note_on_c, 0, 43, 79
2, 25920, Note_off_c, 0, 43, 79
2, 25920, Note_on_c, 1, 55, 79
2, 26080, Pitch_bend_c, 1, 8192
2, 26240, Pitch_bend_c, 1, 8320
2, 26400, Pitch_bend_c, 1, 8192
2, 26560, Pitch_bend_c, 1, 8320
2, 26720, Pitch_bend_c, 1, 8192
2, 26880, Pitch_bend_c, 1, 8320
2, 26880, Pitch_bend_c, 1, 8192
2, 26880, Note_off_c, 1, 55, 79
2, 28320, Note_on_c, 0, 48, 79
2, 28560, Note_off_c, 0, 48, 79
2, 28560, Note_on_c, 0, 50, 54
2, 28800, Note_off_c, 0, 50, 54
2, 28800, Note_on_c, 0, 53, 79
2, 29280, Note_off_c, 0, 53, 79
2, 29280, Note_on_c, 0, 46, 79
2, 29760, Note_off_c, 0, 46, 79
2, 32160, Note_on_c, 0, 48, 79
2, 32400, Note_off_c, 0, 48, 79
2, 32400, Note_on_c, 0, 50, 54
2, 32640, Note_off_c, 0, 50, 54
2, 32640, Note_on_c, 0, 53, 79
2, 33120, Note_off_c, 0, 53, 79
2, 33120, Note_on_c, 0, 43, 79
2, 33600, Note_off_c, 0, 43, 79
2, 33600, Note_on_c, 1, 55, 79
2, 33760, Pitch_bend_c, 1, 8192
2, 33920, Pitch_bend_c, 1, 8320
2, 34080, Pitch_bend_c, 1, 8192
2, 34240, Pitch_bend_c, 1, 8320
2, 34400, Pitch_bend_c, 1, 8192
2, 34560, Pitch_bend_c, 1, 8320
2, 34560, Pitch_bend_c, 1, 8192
2, 34560, Note_off_c, 1, 55, 79
2, 36000, Note_on_c, 0, 48, 79
2, 36240, Note_off_c, 0, 48, 79
2, 36240, Note_on_c, 0, 50, 54
2, 36480, Note_off_c, 0, 50, 54
2, 36480, Note_on_c, 0, 53, 79
2, 36960, Note_off_c, 0, 53, 79
2, 36960, Note_on_c, 0, 40, 79
2, 37440, Note_off_c, 0, 40, 79
2, 39840, Note_on_c, 0, 48, 79
2, 40080, Note_off_c, 0, 48, 79
2, 40080, Note_on_c, 0, 50, 54
2, 40320, Note_off_c, 0, 50, 54
2, 40320, Note_on_c, 0, 53, 79
2, 40800, Note_off_c, 0, 53, 79
2, 40800, Note_on_c, 0, 43, 79
2, 41280, Note_off_c, 0, 43, 79
2, 41280, Note_on_c, 1, 55, 79
2, 41440, Pitch_bend_c, 1, 8192
2, 41600, Pitch_bend_c, 1, 8320
2, 41760, Pitch_bend_c, 1, 8192
2, 41920, Pitch_bend_c, 1, 8320
2, 42080, Pitch_bend_c, 1, 8192
2, 42240, Pitch_bend_c, 1, 8320
2, 42240, Pitch_bend_c, 1, 8192
2, 42240, Note_off_c, 1, 55, 79
2, 43680, Note_on_c, 0, 48, 79
2, 43920, Note_off_c, 0, 48, 79
2, 43920, Note_on_c, 0, 50, 54
2, 44160, Note_off_c, 0, 50, 54
2, 44160, Note_on_c, 0, 53, 79
2, 44640, Note_off_c, 0, 53, 79
2, 44640, Note_on_c, 0, 40, 79
2, 45120, Note_off_c, 0, 40, 79
2, 47520, Note_on_c, 0, 48, 79
2, 47760, Note_off_c, 0, 48, 79
2, 47760, Note_on_c, 0, 50, 54
2, 48000, Note_off_c, 0, 50, 54
2, 48000, Note_on_c, 0, 53, 79
2, 48480, Note_off_c, 0, 53, 79
2, 48480, Note_on_c, 0, 43, 79
2, 48960, Note_off_c, 0, 43, 79
2, 48960, Note_on_c, 1, 55, 79
2, 49120, Pitch_bend_c, 1, 8192
2, 49280, Pitch_bend_c, 1, 8320
2, 49440, Pitch_bend_c, 1, 8192
2, 49600, Pitch_bend_c, 1, 8320
2, 49760, Pitch_bend_c, 1, 8192
2, 49920, Pitch_bend_c, 1, 8320
2, 49920, Pitch_bend_c, 1, 8192
2, 49920, Note_off_c, 1, 55, 79
2, 51360, Note_on_c, 0, 48, 79
2, 51600, Note_off_c, 0, 48, 79
2, 51600, Note_on_c, 0, 50, 54
2, 51840, Note_off_c, 0, 50, 54
2, 51840, Note_on_c, 0, 53, 79
2, 52320, Note_off_c, 0, 53, 79
2, 52320, Note_on_c, 0, 40, 79
2, 52800, Note_off_c, 0, 40, 79
2, 55200, Note_on_c, 0, 48, 79
2, 55440, Note_off_c, 0, 48, 79
2, 55440, Note_on_c, 0, 50, 54
2, 55680, Note_off_c, 0, 50, 54
2, 55680, Note_on_c, 0, 53, 79
2, 56160, Note_off_c, 0, 53, 79
2, 56160, Note_on_c, 0, 43, 79
2, 56640, Note_off_c, 0, 43, 79
2, 56640, Note_on_c, 1, 55, 79
2, 56800, Pitch_bend_c, 1, 8192
2, 56960, Pitch_bend_c, 1, 8320
2, 57120, Pitch_bend_c, 1, 8192
2, 57280, Pitch_bend_c, 1, 8320
2, 57440, Pitch_bend_c, 1, 8192
2, 57600, Pitch_bend_c, 1, 8320
2, 57600, Pitch_bend_c, 1, 8192
2, 57600, Note_off_c, 1, 55, 79
2, 59040, Note_on_c, 0, 48, 79
2, 59280, Note_off_c, 0, 48, 79
2, 59280, Note_on_c, 0, 50, 54
2, 59520, Note_off_c, 0, 50, 54
2, 59520, Note_on_c, 0, 53, 79
2, 60000, Note_off_c, 0, 53, 79
2, 60000, Note_on_c, 0, 40, 79
2, 60480, Note_off_c, 0, 40, 79
2, 62880, Note_on_c, 0, 53, 79
2, 63360, Note_off_c, 0, 53, 79
2, 63360, Note_on_c, 0, 55, 95
2, 63421, Note_off_c, 0, 55, 95
2, 63600, Note_on_c, 0, 55, 95
2, 63661, Note_off_c, 0, 55, 95
2, 63840, Note_on_c, 0, 58, 79
2, 64320, Note_off_c, 0, 58, 79
2, 64320, Note_on_c, 0, 55, 79
2, 64800, Note_off_c, 0, 55, 79
2, 64800, Note_on_c, 0, 53, 79
2, 65280, Note_off_c, 0, 53, 79
2, 66720, Note_on_c, 0, 53, 79
2, 67200, Note_off_c, 0, 53, 79
2, 67680, Note_on_c, 0, 50, 79
2, 68160, Note_off_c, 0, 50, 79
2, 68160, Note_on_c, 1, 55, 79
2, 68320, Pitch_bend_c, 1, 8192
2, 68480, Pitch_bend_c, 1, 8320
2, 68640, Pitch_bend_c, 1, 8192
2, 68800, Pitch_bend_c, 1, 8320
2, 68960, Pitch_bend_c, 1, 8192
2, 69120, Pitch_bend_c, 1, 8320
2, 69120, Pitch_bend_c, 1, 8192
2, 69120, Note_off_c, 1, 55, 79
2, 70560, Note_on_c, 0, 53, 79
2, 71040, Note_off_c, 0, 53, 79
2, 71040, Note_on_c, 0, 55, 95
2, 71101, Note_off_c, 0, 55, 95
2, 71280, Note_on_c, 0, 55, 95
2, 71341, Note_off_c, 0, 55, 95
2, 71520, Note_on_c, 0, 58, 79
2, 72000, Note_off_c, 0, 58, 79
2, 72000, Note_on_c, 0, 55, 79
2, 72480, Note_off_c, 0, 55, 79
2, 72480, Note_on_c, 0, 53, 79
2, 72960, Note_off_c, 0, 53, 79
2, 73680, Note_on_c, 0, 55, 95
2, 73680, Note_on_c, 0, 50, 95
2, 73741, Note_off_c, 0, 55, 95
2, 73741, Note_off_c, 0, 50, 95
2, 73920, Note_on_c, 0, 58, 79
2, 73920, Note_on_c, 0, 53, 79
2, 74400, Note_off_c, 0, 58, 79
2, 74400, Note_off_c, 0, 53, 79
2, 74400, Note_on_c, 0, 53, 79
2, 74880, Note_off_c, 0, 53, 79
2, 75360, Note_on_c, 1, 48, 79
2, 75480, Pitch_bend_c, 1, 8832
2, 75600, Pitch_bend_c, 1, 9600
2, 75600, Pitch_bend_c, 1, 8192
2, 75600, Note_off_c, 1, 48, 79
2, 75600, Note_on_c, 0, 50, 79
2, 75840, Note_off_c, 0, 50, 79
2, 75840, Note_on_c, 0, 53, 79
2, 76320, Note_off_c, 0, 53, 79
2, 76320, Note_on_c, 0, 55, 79
2, 76800, Note_off_c, 0, 55, 79
2, 78240, Note_on_c, 0, 48, 79
2, 78480, Note_off_c, 0, 48, 79
2, 78480, Note_on_c, 0, 50, 54
2, 78720, Note_off_c, 0, 50, 54
2, 78720, Note_on_c, 0, 53, 79
2, 79200, Note_off_c, 0, 53, 79
2, 79200, Note_on_c, 0, 43, 79
2, 79680, Note_off_c, 0, 43, 79
2, 79680, Note_on_c, 1, 55, 79
2, 79840, Pitch_bend_c, 1, 8192
2, 80000, Pitch_bend_c, 1, 8320
2, 80160, Pitch_bend_c, 1, 8192
2, 80320, Pitch_bend_c, 1, 8320
2, 80480, Pitch_bend_c, 1, 8192
2, 80640, Pitch_bend_c, 1, 8320
2, 80640, Pitch_bend_c, 1, 8192
2, 80640, Note_off_c, 1, 55, 79
2, 82080, Note_on_c, 0, 48, 79
2, 82320, Note_off_c, 0, 48, 79
2, 82320, Note_on_c, 0, 50, 54
2, 82560, Note_off_c, 0, 50, 54
2, 82560, Note_on_c, 0, 53, 79
2, 83040, Note_off_c, 0, 53, 79
2, 83040, Note_on_c, 0, 40, 79
2, 83520, Note_off_c, 0, 40, 79
2, 85920, Note_on_c, 0, 48, 79
2, 86160, Note_off_c, 0, 48, 79
2, 86160, Note_on_c, 0, 50, 54
2, 86400, Note_off_c, 0, 50, 54
2, 86400, Note_on_c, 0, 53, 79
2, 86880, Note_off_c, 0, 53, 79
2, 86880, Note_on_c, 0, 43, 79
2, 87360, Note_off_c, 0, 43, 79
2, 87360, Note_on_c, 1, 55, 79
2, 87520, Pitch_bend_c, 1, 8192
2, 87680, Pitch_bend_c, 1, 8320
2, 87840, Pitch_bend_c, 1, 8192
2, 88000, Pitch_bend_c, 1, 8320
2, 88160, Pitch_bend_c, 1, 8192
2, 88320, Pitch_bend_c, 1, 8320
2, 88320, Pitch_bend_c, 1, 8192
2, 88320, Note_off_c, 1, 55, 79
2, 89760, Note_on_c, 0, 48, 79
2, 90000, Note_off_c, 0, 48, 79
2, 90000, Note_on_c, 0, 50, 54
2, 90240, Note_off_c, 0, 50, 54
2, 90240, Note_on_c, 0, 53, 79
2, 90720, Note_off_c, 0, 53, 79
2, 90720, Note_on_c, 0, 40, 79
2, 91200, Note_off_c, 0, 40, 79
2, 93600, Note_on_c, 0, 48, 79
2, 93840, Note_off_c, 0, 48, 79
2, 93840, Note_on_c, 0, 50, 54
2, 94080, Note_off_c, 0, 50, 54
2, 94080, Note_on_c, 0, 53, 79
2, 94560, Note_off_c, 0, 53, 79
2, 94560, Note_on_c, 0, 43, 79
2, 95040, Note_off_c, 0, 43, 79
2, 95040, Note_on_c, 1, 55, 79
2, 95200, Pitch_bend_c, 1, 8192
2, 95360, Pitch_bend_c, 1, 8320
2, 95520, Pitch_bend_c, 1, 8192
2, 95680, Pitch_bend_c, 1, 8320
2, 95840, Pitch_bend_c, 1, 8192
2, 96000, Pitch_bend_c, 1, 8320
2, 96000, Pitch_bend_c, 1, 8192
2, 96000, Note_off_c, 1, 55, 79
2, 97440, Note_on_c, 0, 48, 79
2, 97680, Note_off_c, 0, 48, 79
2, 97680, Note_on_c, 0, 50, 54
2, 97920, Note_off_c, 0, 50, 54
2, 97920, Note_on_c, 0, 53, 79
2, 98400, Note_off_c, 0, 53, 79
2, 98400, Note_on_c, 0, 40, 79
2, 98880, Note_off_c, 0, 40, 79
2, 101280, Note_on_c, 0, 48, 79
2, 101520, Note_off_c, 0, 48, 79
2, 101520, Note_on_c, 0, 50, 54
2, 101760, Note_off_c, 0, 50, 54
2, 101760, Note_on_c, 0, 53, 79
2, 102240, Note_off_c, 0, 53, 79
2, 102240, Note_on_c, 0, 43, 79
2, 102720, Note_off_c, 0, 43, 79
2, 102720, Note_on_c, 1, 55, 79
2, 102880, Pitch_bend_c, 1, 8192
2, 103040, Pitch_bend_c, 1, 8320
2, 103200, Pitch_bend_c, 1, 8192
2, 103360, Pitch_bend_c, 1, 8320
2, 103520, Pitch_bend_c, 1, 8192
2, 103680, Pitch_bend_c, 1, 8320
2, 103680, Pitch_bend_c, 1, 8192
2, 103680, Note_off_c, 1, 55, 79
2, 105120, Note_on_c, 0, 48, 79
2, 105360, Note_off_c, 0, 48, 79
2, 105360, Note_on_c, 0, 50, 54
2, 105600, Note_off_c, 0, 50, 54
2, 105600, Note_on_c, 0, 53, 79
2, 106080, Note_off_c, 0, 53, 79
2, 106080, Note_on_c, 0, 40, 79
2, 106560, Note_off_c, 0, 40, 79
2, 108960, Note_on_c, 0, 48, 79
2, 109200, Note_off_c, 0, 48, 79
2, 109200, Note_on_c, 0, 50, 54
2, 109440, Note_off_c, 0, 50, 54
2, 109440, Note_on_c, 0, 53, 79
2, 109920, Note_off_c, 0, 53, 79
2, 109920, Note_on_c, 0, 43, 79
2, 110400, Note_off_c, 0, 43, 79
2, 110400, Note_on_c, 1, 55, 79
2, 110560, Pitch_bend_c, 1, 8192
2, 110720, Pitch_bend_c, 1, 8320
2, 110880, Pitch_bend_c, 1, 8192
2, 111040, Pitch_bend_c, 1, 8320
2, 111200, Pitch_bend_c, 1, 8192
2, 111360, Pitch_bend_c, 1, 8320
2, 111360, Pitch_bend_c, 1, 8192
2, 111360, Note_off_c, 1, 55, 79
2, 112800, Note_on_c, 0, 48, 79
2, 113040, Note_off_c, 0, 48, 79
2, 113040, Note_on_c, 0, 50, 54
2, 113280, Note_off_c, 0, 50, 54
2, 113280, Note_on_c, 0, 53, 79
2, 113760, Note_off_c, 0, 53, 79
2, 113760, Note_on_c, 0, 40, 79
2, 114240, Note_off_c, 0, 40, 79
2, 116640, Note_on_c, 0, 48, 79
2, 116880, Note_off_c, 0, 48, 79
2, 116880, Note_on_c, 0, 50, 54
2, 117120, Note_off_c, 0, 50, 54
2, 117120, Note_on_c, 0, 53, 79
2, 117600, Note_off_c, 0, 53, 79
2, 117600, Note_on_c, 0, 43, 79
2, 118080, Note_off_c, 0, 43, 79
2, 118080, Note_on_c, 1, 55, 79
2, 118240, Pitch_bend_c, 1, 8192
2, 118400, Pitch_bend_c, 1, 8320
2, 118560, Pitch_bend_c, 1, 8192
2, 118720, Pitch_bend_c, 1, 8320
2, 118880, Pitch_bend_c, 1, 8192
2, 119040, Pitch_bend_c, 1, 8320
2, 119040, Pitch_bend_c, 1, 8192
2, 119040, Note_off_c, 1, 55, 79
2, 120480, Note_on_c, 0, 48, 79
2, 120720, Note_off_c, 0, 48, 79
2, 120720, Note_on_c, 0, 50, 54
2, 120960, Note_off_c, 0, 50, 54
2, 120960, Note_on_c, 0, 53, 79
2, 121440, Note_off_c, 0, 53, 79
2, 121440, Note_on_c, 0, 40, 79
2, 121920, Note_off_c, 0, 40, 79
2, 124320, Note_on_c, 0, 53, 79
2, 124800, Note_off_c, 0, 53, 79
2, 124800, Note_on_c, 0, 55, 95
2, 124861, Note_off_c, 0, 55, 95
2, 125040, Note_on_c, 0, 55, 95
2, 125101, Note_off_c, 0, 55, 95
2, 125280, Note_on_c, 0, 58, 79
2, 125760, Note_off_c, 0, 58, 79
2, 125760, Note_on_c, 0, 55, 79
2, 126240, Note_off_c, 0, 55, 79
2, 126240, Note_on_c, 0, 53, 79
2, 126720, Note_off_c, 0, 53, 79
2, 128160, Note_on_c, 0, 53, 79
2, 128640, Note_off_c, 0, 53, 79
2, 129120, Note_on_c, 0, 50, 79
2, 129600, Note_off_c, 0, 50, 79
2, 129600, Note_on_c, 1, 55, 79
2, 129760, Pitch_bend_c, 1, 8192
2, 129920, Pitch_bend_c, 1, 8320
2, 130080, Pitch_bend_c, 1, 8192
2, 130240, Pitch_bend_c, 1, 8320
2, 130400, Pitch_bend_c, 1, 8192
2, 130560, Pitch_bend_c, 1, 8320
2, 130560, Pitch_bend_c, 1, 8192
2, 130560, Note_off_c, 1, 55, 79
2, 132000, Note_on_c, 0, 53, 79
2, 132480, Note_off_c, 0, 53, 79
2, 132480, Note_on_c, 0, 55, 95
2, 132541, Note_off_c, 0, 55, 95
2, 132720, Note_on_c, 0, 55, 95
2, 132781, Note_off_c, 0, 55, 95
2, 132960, Note_on_c, 0, 58, 79
2, 133440, Note_off_c, 0, 58, 79
2, 133440, Note_on_c, 0, 55, 79
2, 133920, Note_off_c, 0, 55, 79
2, 133920, Note_on_c, 0, 53, 79
2, 134400, Note_off_c, 0, 53, 79
2, 135120, Note_on_c, 0, 55, 95
2, 135120, Note_on_c, 0, 50, 95
2, 135181, Note_off_c, 0, 55, 95
2, 135181, Note_off_c, 0, 50, 95
2, 135360, Note_on_c, 0, 58, 79
2, 135360, Note_on_c, 0, 53, 79
2, 135840, Note_off_c, 0, 58, 79
2, 135840, Note_off_c, 0, 53, 79
2, 135840, Note_on_c, 0, 53, 79
2, 136320, Note_off_c, 0, 53, 79
2, 136800, Note_on_c, 1, 48, 79
2, 136920, Pitch_bend_c, 1, 8832
2, 137040, Pitch_bend_c, 1, 9600
2, 137040, Pitch_bend_c, 1, 8192
2, 137040, Note_off_c, 1, 48, 79
2, 137040, Note_on_c, 0, 50, 79
2, 137280, Note_off_c, 0, 50, 79
2, 137280, Note_on_c, 0, 53, 79
2, 137760, Note_off_c, 0, 53, 79
2, 137760, Note_on_c, 0, 55, 79
2, 138240, Note_off_c, 0, 55, 79
2, 139680, Note_on_c, 0, 48, 79
2, 139920, Note_off_c, 0, 48, 79
2, 139920, Note_on_c, 0, 50, 54
2, 140160, Note_off_c, 0, 50, 54
2, 140160, Note_on_c, 0, 53, 79
2, 140640, Note_off_c, 0, 53, 79
2, 140640, Note_on_c, 0, 43, 79
2, 141120, Note_off_c, 0, 43, 79
2, 141120, Note_on_c, 1, 55, 79
2, 141280, Pitch_bend_c, 1, 8192
2, 141440, Pitch_bend_c, 1, 8320
2, 141600, Pitch_bend_c, 1, 8192
2, 141760, Pitch_bend_c, 1, 8320
2, 141920, Pitch_bend_c, 1, 8192
2, 142080, Pitch_bend_c, 1, 8320
2, 142080, Pitch_bend_c, 1, 8192
2, 142080, Note_off_c, 1, 55, 79
2, 143520, Note_on_c, 0, 48, 79
2, 143760, Note_off_c, 0, 48, 79
2, 143760, Note_on_c, 0, 50, 54
2, 144000, Note_off_c, 0, 50, 54
2, 144000, Note_on_c, 0, 53, 79
2, 144480, Note_off_c, 0, 53, 79
2, 144480, Note_on_c, 0, 40, 79
2, 144960, Note_off_c, 0, 40, 79
2, 147360, Note_on_c, 0, 48, 79
2, 147600, Note_off_c, 0, 48, 79
2, 147600, Note_on_c, 0, 50, 54
2, 147840, Note_off_c, 0, 50, 54
2, 147840, Note_on_c, 0, 53, 79
2, 148320, Note_off_c, 0, 53, 79
2, 148320, Note_on_c, 0, 43, 79
2, 148800, Note_off_c, 0, 43, 79
2, 148800, Note_on_c, 1, 55, 79
2, 148960, Pitch_bend_c, 1, 8192
2, 149120, Pitch_bend_c, 1, 8320
2, 149280, Pitch_bend_c, 1, 8192
2, 149440, Pitch_bend_c, 1, 8320
2, 149600, Pitch_bend_c, 1, 8192
2, 149760, Pitch_bend_c, 1, 8320
2, 149760, Pitch_bend_c, 1, 8192
2, 149760, Note_off_c, 1, 55, 79
2, 151200, Note_on_c, 0, 48, 79
2, 151440, Note_off_c, 0, 48, 79
2, 151440, Note_on_c, 0, 50, 54
2, 151680, Note_off_c, 0, 50, 54
2, 151680, Note_on_c, 0, 53, 79
2, 152160, Note_off_c, 0, 53, 79
2, 152160, Note_on_c, 0, 40, 79
2, 152640, Note_off_c, 0, 40, 79
2, 153600, Note_on_c, 0, 64, 79
2, 153600, Note_on_c, 0, 60, 79
2, 153600, Note_on_c, 0, 55, 79
2, 153600, Note_on_c, 0, 48, 79
2, 155040, Note_off_c, 0, 64, 79
2, 155040, Note_off_c, 0, 60, 79
2, 155040, Note_off_c, 0, 55, 79
2, 155040, Note_off_c, 0, 48, 79
2, 155040, Note_on_c, 0, 62, 79
2, 155040, Note_on_c, 0, 58, 79
2, 155040, Note_on_c, 0, 55, 79
2, 155040, Note_on_c, 0, 50, 79
2, 155040, Note_on_c, 0, 43, 79
2, 156960, Note_off_c, 0, 62, 79
2, 156960, Note_off_c, 0, 58, 79
2, 156960, Note_off_c, 0, 55, 79
2, 156960, Note_off_c, 0, 50, 79
2, 156960, Note_off_c, 0, 43, 79
2, 156960, Note_on_c, 0, 48, 79
2, 156960, Note_on_c, 0, 43, 79
2, 157440, Note_off_c, 0, 48, 79
2, 157440, Note_off_c, 0, 43, 79
2, 157440, Note_on_c, 0, 64, 79
2, 157440, Note_on_c, 0, 60, 79
2, 157440, Note_on_c, 0, 55, 79
2, 157440, Note_on_c, 0, 48, 79
2, 158880, Note_off_c, 0, 64, 79
2, 158880, Note_off_c, 0, 60, 79
2, 158880, Note_off_c, 0, 55, 79
2, 158880, Note_off_c, 0, 48, 79
2, 158880, Note_on_c, 0, 67, 79
2, 158880, Note_on_c, 0, 62, 79
2, 158880, Note_on_c, 0, 58, 79
2, 158880, Note_on_c, 0, 55, 79
2, 158880, Note_on_c, 0, 50, 79
2, 158880, Note_on_c, 0, 43, 79
2, 160800, Note_off_c, 0, 67, 79
2, 160800, Note_off_c, 0, 62, 79
2, 160800, Note_off_c, 0, 58, 79
2, 160800, Note_off_c, 0, 55, 79
2, 160800, Note_off_c, 0, 50, 79
2, 160800, Note_off_c, 0, 43, 79
2, 160800, Note_on_c, 0, 48, 79
2, 160800, Note_on_c, 0, 43, 79
2, 161280, Note_off_c, 0, 48, 79
2, 161280, Note_off_c, 0, 43, 79
2, 161280, Note_on_c, 0, 64, 79
2, 161280, Note_on_c, 0, 60, 79
2, 161280, Note_on_c, 0, 55, 79
2, 161280, Note_on_c, 0, 48, 79
2, 162720, Note_off_c, 0, 64, 79
2, 162720, Note_off_c, 0, 60, 79
2, 162720, Note_off_c, 0, 55, 79
2, 162720, Note_off_c, 0, 48, 79
2, 162720, Note_on_c, 0, 67, 79
2, 162720, Note_on_c, 0, 62, 79
2, 162720, Note_on_c, 0, 58, 79
2, 162720, Note_on_c, 0, 55, 79
2, 162720, Note_on_c, 0, 50, 79
2, 162720, Note_on_c, 0, 43, 79
2, 164640, Note_off_c, 0, 67, 79
2, 164640, Note_off_c, 0, 62, 79
2, 164640, Note_off_c, 0, 58, 79
2, 164640, Note_off_c, 0, 55, 79
2, 164640, Note_off_c, 0, 50, 79
2, 164640, Note_off_c, 0, 43, 79
2, 164640, Note_on_c, 0, 43, 79
2, 165120, Note_off_c, 0, 43, 79
2, 165120, Note_on_c, 0, 64, 79
2, 165120, Note_on_c, 0, 60, 79
2, 165120, Note_on_c, 0, 55, 79
2, 165120, Note_on_c, 0, 48, 79
2, 168960, Note_off_c, 0, 64, 79
2, 168960, Note_off_c, 0, 60, 79
2, 168960, Note_off_c, 0, 55, 79
2, 168960, Note_off_c, 0, 48, 79
2, 170400, Note_on_c, 0, 48, 79
2, 170640, Note_off_c, 0, 48, 79
2, 170640, Note_on_c, 0, 50, 54
2, 170880, Note_off_c, 0, 50, 54
2, 170880, Note_on_c, 0, 53, 79
2, 171360, Note_off_c, 0, 53, 79
2, 171360, Note_on_c, 0, 43, 79
2, 171840, Note_off_c, 0, 43, 79
2, 171840, Note_on_c, 1, 55, 79
2, 172000, Pitch_bend_c, 1, 8192
2, 172160, Pitch_bend_c, 1, 8320
2, 172320, Pitch_bend_c, 1, 8192
2, 172480, Pitch_bend_c, 1, 8320
2, 172640, Pitch_bend_c, 1, 8192
2, 172800, Pitch_bend_c, 1, 8320
2, 172800, Pitch_bend_c, 1, 8192
2, 172800, Note_off_c, 1, 55, 79
2, 174240, Note_on_c, 0, 48, 79
2, 174480, Note_off_c, 0, 48, 79
2, 174480, Note_on_c, 0, 50, 54
2, 174720, Note_off_c, 0, 50, 54
2, 174720, Note_on_c, 0, 53, 79
2, 175200, Note_off_c, 0, 53, 79
2, 175200, Note_on_c, 0, 40, 79
2, 175680, Note_off_c, 0, 40, 79
2, 178080, Note_on_c, 0, 48, 79
2, 178320, Note_off_c, 0, 48, 79
2, 178320, Note_on_c, 0, 50, 54
2, 178560, Note_off_c, 0, 50, 54
2, 178560, Note_on_c, 0, 53, 79
2, 179040, Note_off_c, 0, 53, 79
2, 179040, Note_on_c, 0, 43, 79
2, 179520, Note_off_c, 0, 43, 79
2, 179520, Note_on_c, 1, 55, 79
2, 179680, Pitch_bend_c, 1, 8192
2, 179840, Pitch_bend_c, 1, 8320
2, 180000, Pitch_bend_c, 1, 8192
2, 180160, Pitch_bend_c, 1, 8320
2, 180320, Pitch_bend_c, 1, 8192
2, 180480, Pitch_bend_c, 1, 8320
2, 180480, Pitch_bend_c, 1, 8192
2, 180480, Note_off_c, 1, 55, 79
2, 181920, Note_on_c, 0, 48, 79
2, 182160, Note_off_c, 0, 48, 79
2, 182160, Note_on_c, 0, 50, 54
2, 182400, Note_off_c, 0, 50, 54
2, 182400, Note_on_c, 0, 53, 79
2, 182880, Note_off_c, 0, 53, 79
2, 182880, Note_on_c, 0, 40, 79
2, 183360, Note_off_c, 0, 40, 79
2, 185760, Note_on_c, 0, 48, 79
2, 186000, Note_off_c, 0, 48, 79
2, 186000, Note_on_c, 0, 50, 54
2, 186240, Note_off_c, 0, 50, 54
2, 186240, Note_on_c, 0, 53, 79
2, 186720, Note_off_c, 0, 53, 79
2, 186720, Note_on_c, 0, 43, 79
2, 187200, Note_off_c, 0, 43, 79
2, 187200, Note_on_c, 1, 55, 79
2, 187360, Pitch_bend_c, 1, 8192
2, 187520, Pitch_bend_c, 1, 8320
2, 187680, Pitch_bend_c, 1, 8192
2, 187840, Pitch_bend_c, 1, 8320
2, 188000, Pitch_bend_c, 1, 8192
2, 188160, Pitch_bend_c, 1, 8320
2, 188160, Pitch_bend_c, 1, 8192
2, 188160, Note_off_c, 1, 55, 79
2, 189600, Note_on_c, 0, 48, 79
2, 189840, Note_off_c, 0, 48, 79
2, 189840, Note_on_c, 0, 50, 54
2, 190080, Note_off_c, 0, 50, 54
2, 190080, Note_on_c, 0, 53, 79
2, 190560, Note_off_c, 0, 53, 79
2, 190560, Note_on_c, 0, 40, 79
2, 191040, Note_off_c, 0, 40, 79
2, 193440, Note_on_c, 0, 48, 79
2, 193680, Note_off_c, 0, 48, 79
2, 193680, Note_on_c, 0, 50, 54
2, 193920, Note_off_c, 0, 50, 54
2, 193920, Note_on_c, 0, 53, 79
2, 194400, Note_off_c, 0, 53, 79
2, 194400, Note_on_c, 0, 43, 79
2, 194880, Note_off_c, 0, 43, 79
2, 194880, Note_on_c, 1, 55, 79
2, 195040, Pitch_bend_c, 1, 8192
2, 195200, Pitch_bend_c, 1, 8320
2, 195360, Pitch_bend_c, 1, 8192
2, 195520, Pitch_bend_c, 1, 8320
2, 195680, Pitch_bend_c, 1, 8192
2, 195840, Pitch_bend_c, 1, 8320
2, 195840, Pitch_bend_c, 1, 8192
2, 195840, Note_off_c, 1, 55, 79
2, 197280, Note_on_c, 0, 48, 79
2, 197520, Note_off_c, 0, 48, 79
2, 197520, Note_on_c, 0, 50, 54
2, 197760, Note_off_c, 0, 50, 54
2, 197760, Note_on_c, 0, 53, 79
2, 198240, Note_off_c, 0, 53, 79
2, 198240, Note_on_c, 0, 40, 79
2, 198720, Note_off_c, 0, 40, 79
2, 201120, Note_on_c, 0, 48, 79
2, 201360, Note_off_c, 0, 48, 79
2, 201360, Note_on_c, 0, 50, 54
2, 201600, Note_off_c, 0, 50, 54
2, 201600, Note_on_c, 0, 53, 79
2, 202080, Note_off_c, 0, 53, 79
2, 202080, Note_on_c, 0, 43, 79
2, 202560, Note_off_c, 0, 43, 79
2, 202560, Note_on_c, 1, 55, 79
2, 202720, Pitch_bend_c, 1, 8192
2, 202880, Pitch_bend_c, 1, 8320
2, 203040, Pitch_bend_c, 1, 8192
2, 203200, Pitch_bend_c, 1, 8320
2, 203360, Pitch_bend_c, 1, 8192
2, 203520, Pitch_bend_c, 1, 8320
2, 203520, Pitch_bend_c, 1, 8192
2, 203520, Note_off_c, 1, 55, 79
2, 204960, Note_on_c, 0, 48, 79
2, 205200, Note_off_c, 0, 48, 79
2, 205200, Note_on_c, 0, 50, 54
2, 205440, Note_off_c, 0, 50, 54
2, 205440, Note_on_c, 0, 53, 79
2, 205920, Note_off_c, 0, 53, 79
2, 205920, Note_on_c, 0, 40, 79
2, 206400, Note_off_c, 0, 40, 79
2, 208800, Note_on_c, 0, 48, 79
2, 209040, Note_off_c, 0, 48, 79
2, 209040, Note_on_c, 0, 50, 54
2, 209280, Note_off_c, 0, 50, 54
2, 209280, Note_on_c, 0, 53, 79
2, 209760, Note_off_c, 0, 53, 79
2, 209760, Note_on_c, 0, 43, 79
2, 210240, Note_off_c, 0, 43, 79
2, 210240, Note_on_c, 1, 55, 79
2, 210400, Pitch_bend_c, 1, 8192
2, 210560, Pitch_bend_c, 1, 8320
2, 210720, Pitch_bend_c, 1, 8192
2, 210880, Pitch_bend_c, 1, 8320
2, 211040, Pitch_bend_c, 1, 8192
2, 211200, Pitch_bend_c, 1, 8320
2, 211200, Pitch_bend_c, 1, 8192
2, 211200, Note_off_c, 1, 55, 79
2, 212640, Note_on_c, 0, 48, 79
2, 212880, Note_off_c, 0, 48, 79
2, 212880, Note_on_c, 0, 50, 54
2, 213120, Note_off_c, 0, 50, 54
2, 213120, Note_on_c, 0, 53, 79
2, 213600, Note_off_c, 0, 53, 79
2, 213600, Note_on_c, 0, 40, 79
2, 214080, Note_off_c, 0, 40, 79
2, 216480, Note_on_c, 0, 48, 79
2, 216720, Note_off_c, 0, 48, 79
2, 216720, Note_on_c, 0, 50, 54
2, 216960, Note_off_c, 0, 50, 54
2, 216960, Note_on_c, 0, 53, 79
2, 217440, Note_off_c, 0, 53, 79
2, 217440, Note_on_c, 0, 43, 79
2, 217920, Note_off_c, 0, 43, 79
2, 217920, Note_on_c, 1, 55, 79
2, 218080, Pitch_bend_c, 1, 8192
2, 218240, Pitch_bend_c, 1, 8320
2, 218400, Pitch_bend_c, 1, 8192
2, 218560, Pitch_bend_c, 1, 8320
2, 218720, Pitch_bend_c, 1, 8192
2, 218880, Pitch_bend_c, 1, 8320
2, 218880, Pitch_bend_c, 1, 8192
2, 218880, Note_off_c, 1, 55, 79
2, 220320, Note_on_c, 0, 48, 79
2, 220560, Note_off_c, 0, 48, 79
2, 220560, Note_on_c, 0, 50, 54
2, 220800, Note_off_c, 0, 50, 54
2, 220800, Note_on_c, 0, 53, 79
2, 221280, Note_off_c, 0, 53, 79
2, 221280, Note_on_c, 0, 40, 79
2, 221760, Note_off_c, 0, 40, 79
2, 224160, Note_on_c, 0, 48, 79
2, 224400, Note_off_c, 0, 48, 79
2, 224400, Note_on_c, 0, 50, 54
2, 224640, Note_off_c, 0, 50, 54
2, 224640, Note_on_c, 0, 53, 79
2, 225120, Note_off_c, 0, 53, 79
2, 225120, Note_on_c, 0, 43, 79
2, 225600, Note_off_c, 0, 43, 79
2, 225600, Note_on_c, 1, 55, 79
2, 225760, Pitch_bend_c, 1, 8192
2, 225920, Pitch_bend_c, 1, 8320
2, 226080, Pitch_bend_c, 1, 8192
2, 226240, Pitch_bend_c, 1, 8320
2, 226400, Pitch_bend_c, 1, 8192
2, 226560, Pitch_bend_c, 1, 8320
2, 226560, Pitch_bend_c, 1, 8192
2, 226560, Note_off_c, 1, 55, 79
2, 228000, Note_on_c, 0, 48, 79
2, 228240, Note_off_c, 0, 48, 79
2, 228240, Note_on_c, 0, 50, 54
2, 228480, Note_off_c, 0, 50, 54
2, 228480, Note_on_c, 0, 53, 79
2, 228960, Note_off_c, 0, 53, 79
2, 228960, Note_on_c, 0, 40, 79
2, 229440, Note_off_c, 0, 40, 79
2, 231840, Note_on_c, 0, 48, 79
2, 232080, Note_off_c, 0, 48, 79
2, 232080, Note_on_c, 0, 50, 54
2, 232320, Note_off_c, 0, 50, 54
2, 232320, Note_on_c, 0, 53, 79
2, 232800, Note_off_c, 0, 53, 79
2, 232800, Note_on_c, 0, 43, 79
2, 233280, Note_off_c, 0, 43, 79
2, 233280, Note_on_c, 1, 55, 79
2, 233440, Pitch_bend_c, 1, 8192
2, 233600, Pitch_bend_c, 1, 8320
2, 233760, Pitch_bend_c, 1, 8192
2, 233920, Pitch_bend_c, 1, 8320
2, 234080, Pitch_bend_c, 1, 8192
2, 234240, Pitch_bend_c, 1, 8320
2, 234240, Pitch_bend_c, 1, 8192
2, 234240, Note_off_c, 1, 55, 79
2, 235680, Note_on_c, 0, 48, 79
2, 235920, Note_off_c, 0, 48, 79
2, 235920, Note_on_c, 0, 50, 54
2, 236160, Note_off_c, 0, 50, 54
2, 236160, Note_on_c, 0, 53, 79
2, 236640, Note_off_c, 0, 53, 79
2, 236640, Note_on_c, 0, 40, 79
2, 237120, Note_off_c, 0, 40, 79
2, 239520, Note_on_c, 0, 48, 79
2, 239760, Note_off_c, 0, 48, 79
2, 239760, Note_on_c, 0, 50, 54
2, 240000, Note_off_c, 0, 50, 54
2, 240000, Note_on_c, 0, 53, 79
2, 240480, Note_off_c, 0, 53, 79
2, 240480, Note_on_c, 0, 43, 79
2, 240960, Note_off_c, 0, 43, 79
2, 240960, Note_on_c, 1, 55, 79
2, 241120, Pitch_bend_c, 1, 8192
2, 241280, Pitch_bend_c, 1, 8320
2, 241440, Pitch_bend_c, 1, 8192
2, 241600, Pitch_bend_c, 1, 8320
2, 241760, Pitch_bend_c, 1, 8192
2, 241920, Pitch_bend_c, 1, 8320
2, 241920, Pitch_bend_c, 1, 8192
2, 241920, Note_off_c, 1, 55, 79
2, 243360, Note_on_c, 0, 48, 79
2, 243600, Note_off_c, 0, 48, 79
2, 243600, Note_on_c, 0, 50, 54
2, 243840, Note_off_c, 0, 50, 54
2, 243840, Note_on_c, 0, 53, 79
2, 244320, Note_off_c, 0, 53, 79
2, 244320, Note_on_c, 0, 40, 79
2, 244800, Note_off_c, 0, 40, 79
2, 247200, Note_on_c, 0, 48, 79
2, 247440, Note_off_c, 0, 48, 79
2, 247440, Note_on_c, 0, 50, 54
2, 247680, Note_off_c, 0, 50, 54
2, 247680, Note_on_c, 0, 53, 79
2, 248160, Note_off_c, 0, 53, 79
2, 248160, Note_on_c, 0, 43, 79
2, 248640, Note_off_c, 0, 43, 79
2, 248640, Note_on_c, 1, 55, 79
2, 248800, Pitch_bend_c, 1, 8192
2, 248960, Pitch_bend_c, 1, 8320
2, 249120, Pitch_bend_c, 1, 8192
2, 249280, Pitch_bend_c, 1, 8320
2, 249440, Pitch_bend_c, 1, 8192
2, 249600, Pitch_bend_c, 1, 8320
2, 249600, Pitch_bend_c, 1, 8192
2, 249600, Note_off_c, 1, 55, 79
2, 251040, Note_on_c, 0, 48, 79
2, 251280, Note_off_c, 0, 48, 79
2, 251280, Note_on_c, 0, 50, 54
2, 251520, Note_off_c, 0, 50, 54
2, 251520, Note_on_c, 0, 53, 79
2, 252000, Note_off_c, 0, 53, 79
2, 252000, Note_on_c, 0, 40, 79
2, 252480, Note_off_c, 0, 40, 79
2, 254880, Note_on_c, 0, 48, 79
2, 255120, Note_off_c, 0, 48, 79
2, 255120, Note_on_c, 0, 50, 54
2, 255360, Note_off_c, 0, 50, 54
2, 255360, Note_on_c, 0, 53, 79
2, 255840, Note_off_c, 0, 53, 79
2, 255840, Note_on_c, 0, 43, 79
2, 256320, Note_off_c, 0, 43, 79
2, 256320, Note_on_c, 1, 55, 79
2, 256480, Pitch_bend_c, 1, 8192
2, 256640, Pitch_bend_c, 1, 8320
2, 256800, Pitch_bend_c, 1, 8192
2, 256960, Pitch_bend_c, 1, 8320
2, 257120, Pitch_bend_c, 1, 8192
2, 257280, Pitch_bend_c, 1, 8320
2, 257280, Pitch_bend_c, 1, 8192
2, 257280, Note_off_c, 1, 55, 79
2, 258720, Note_on_c, 0, 48, 79
2, 258960, Note_off_c, 0, 48, 79
2, 258960, Note_on_c, 0, 50, 54
2, 259200, Note_off_c, 0, 50, 54
2, 259200, Note_on_c, 0, 53, 79
2, 259680, Note_off_c, 0, 53, 79
2, 259680, Note_on_c, 0, 40, 79
2, 260160, Note_off_c, 0, 40, 79
2, 262560, Note_on_c, 0, 48, 79
2, 262800, Note_off_c, 0, 48, 79
2, 262800, Note_on_c, 0, 50, 54
2, 263040, Note_off_c, 0, 50, 54
2, 263040, Note_on_c, 0, 53, 79
2, 263520, Note_off_c, 0, 53, 79
2, 263520, Note_on_c, 0, 43, 79
2, 264000, Note_off_c, 0, 43, 79
2, 264000, Note_on_c, 1, 55, 79
2, 264160, Pitch_bend_c, 1, 8192
2, 264320, Pitch_bend_c, 1, 8320
2, 264480, Pitch_bend_c, 1, 8192
2, 264640, Pitch_bend_c, 1, 8320
2, 264800, Pitch_bend_c, 1, 8192
2, 264960, Pitch_bend_c, 1, 8320
2, 264960, Pitch_bend_c, 1, 8192
2, 264960, Note_off_c, 1, 55, 79
2, 266400, Note_on_c, 0, 48, 79
2, 266640, Note_off_c, 0, 48, 79
2, 266640, Note_on_c, 0, 50, 54
2, 266880, Note_off_c, 0, 50, 54
2, 266880, Note_on_c, 0, 53, 79
2, 267360, Note_off_c, 0, 53, 79
2, 267360, Note_on_c, 0, 40, 79
2, 267840, Note_off_c, 0, 40, 79
2, 270240, Note_on_c, 0, 48, 79
2, 270480, Note_off_c, 0, 48, 79
2, 270480, Note_on_c, 0, 50, 54
2, 270720, Note_off_c, 0, 50, 54
2, 270720, Note_on_c, 0, 53, 79
2, 271200, Note_off_c, 0, 53, 79
2, 271200, Note_on_c, 0, 43, 79
2, 271680, Note_off_c, 0, 43, 79
2, 271680, Note_on_c, 1, 55, 79
2, 271840, Pitch_bend_c, 1, 8192
2, 272000, Pitch_bend_c, 1, 8320
2, 272160, Pitch_bend_c, 1, 8192
2, 272320, Pitch_bend_c, 1, 8320
2, 272480, Pitch_bend_c, 1, 8192
2, 272640, Pitch_bend_c, 1, 8320
2, 272640, Pitch_bend_c, 1, 8192
2, 272640, Note_off_c, 1, 55, 79
2, 274080, Note_on_c, 0, 48, 79
2, 274320, Note_off_c, 0, 48, 79
2, 274320, Note_on_c, 0, 50, 54
2, 274560, Note_off_c, 0, 50, 54
2, 274560, Note_on_c, 0, 53, 79
2, 275040, Note_off_c, 0, 53, 79
2, 275040, Note_on_c, 0, 40, 79
2, 275520, Note_off_c, 0, 40, 79
2, 277920, Note_on_c, 0, 53, 79
2, 278400, Note_off_c, 0, 53, 79
2, 278400, Note_on_c, 0, 55, 95
2, 278461, Note_off_c, 0, 55, 95
2, 278640, Note_on_c, 0, 55, 95
2, 278701, Note_off_c, 0, 55, 95
2, 278880, Note_on_c, 0, 58, 79
2, 279360, Note_off_c, 0, 58, 79
2, 279360, Note_on_c, 0, 55, 79
2, 279840, Note_off_c, 0, 55, 79
2, 279840, Note_on_c, 0, 53, 79
2, 280320, Note_off_c, 0, 53, 79
2, 281760, Note_on_c, 0, 53, 79
2, 282240, Note_off_c, 0, 53, 79
2, 282720, Note_on_c, 0, 50, 79
2, 283200, Note_off_c, 0, 50, 79
2, 283200, Note_on_c, 1, 55, 79
2, 283360, Pitch_bend_c, 1, 8192
2, 283520, Pitch_bend_c, 1, 8320
2, 283680, Pitch_bend_c, 1, 8192
2, 283840, Pitch_bend_c, 1, 8320
2, 284000, Pitch_bend_c, 1, 8192
2, 284160, Pitch_bend_c, 1, 8320
2, 284160, Pitch_bend_c, 1, 8192
2, 284160, Note_off_c, 1, 55, 79
2, 285600, Note_on_c, 0, 53, 79
2, 286080, Note_off_c, 0, 53, 79
2, 286080, Note_on_c, 0, 55, 95
2, 286141, Note_off_c, 0, 55, 95
2, 286320, Note_on_c, 0, 55, 95
2, 286381, Note_off_c, 0, 55, 95
2, 286560, Note_on_c, 0, 58, 79
2, 287040, Note_off_c, 0, 58, 79
2, 287040, Note_on_c, 0, 55, 79
2, 287520, Note_off_c, 0, 55, 79
2, 287520, Note_on_c, 0, 53, 79
2, 288000, Note_off_c, 0, 53, 79
2, 288720, Note_on_c, 0, 55, 95
2, 288720, Note_on_c, 0, 50, 95
2, 288781, Note_off_c, 0, 55, 95
2, 288781, Note_off_c, 0, 50, 95
2, 288960, Note_on_c, 0, 58, 79
2, 288960, Note_on_c, 0, 53, 79
2, 289440, Note_off_c, 0, 58, 79
2, 289440, Note_off_c, 0, 53, 79
2, 289440, Note_on_c, 0, 53, 79
2, 289920, Note_off_c, 0, 53, 79
2, 290400, Note_on_c, 1, 48, 79
2, 290520, Pitch_bend_c, 1, 8832
2, 290640, Pitch_bend_c, 1, 9600
2, 290640, Pitch_bend_c, 1, 8192
2, 290640, Note_off_c, 1, 48, 79
2, 290640, Note_on_c, 0, 50, 79
2, 290880, Note_off_c, 0, 50, 79
2, 290880, Note_on_c, 0, 53, 79
2, 291360, Note_off_c, 0, 53, 79
2, 291360, Note_on_c, 0, 55, 79
2, 291840, Note_off_c, 0, 55, 79
2, 293280, Note_on_c, 0, 48, 79
2, 293520, Note_off_c, 0, 48, 79
2, 293520, Note_on_c, 0, 50, 54
2, 293760, Note_off_c, 0, 50, 54
2, 293760, Note_on_c, 0, 53, 79
2, 294240, Note_off_c, 0, 53, 79
2, 294240, Note_on_c, 0, 43, 79
2, 294720, Note_off_c, 0, 43, 79
2, 294720, Note_on_c, 1, 55, 79
2, 294880, Pitch_bend_c, 1, 8192
2, 295040, Pitch_bend_c, 1, 8320
2, 295200, Pitch_bend_c, 1, 8192
2, 295360, Pitch_bend_c, 1, 8320
2, 295520, Pitch_bend_c, 1, 8192
2, 295680, Pitch_bend_c, 1, 8320
2, 295680, Pitch_bend_c, 1, 8192
2, 295680, Note_off_c, 1, 55, 79
2, 297120, Note_on_c, 0, 48, 79
2, 297360, Note_off_c, 0, 48, 79
2, 297360, Note_on_c, 0, 50, 54
2, 297600, Note_off_c, 0, 50, 54
2, 297600, Note_on_c, 0, 53, 79
2, 298080, Note_off_c, 0, 53, 79
2, 298080, Note_on_c, 0, 40, 79
2, 298560, Note_off_c, 0, 40, 79
2, 300960, Note_on_c, 0, 48, 79
2, 301200, Note_off_c, 0, 48, 79
2, 301200, Note_on_c, 0, 50, 54
2, 301440, Note_off_c, 0, 50, 54
2, 301440, Note_on_c, 0, 53, 79
2, 301920, Note_off_c, 0, 53, 79
2, 301920, Note_on_c, 0, 43, 79
2, 302400, Note_off_c, 0, 43, 79
2, 302400, Note_on_c, 1, 55, 79
2, 302560, Pitch_bend_c, 1, 8192
2, 302720, Pitch_bend_c, 1, 8320
2, 302880, Pitch_bend_c, 1, 8192
2, 303040, Pitch_bend_c, 1, 8320
2, 303200, Pitch_bend_c, 1, 8192
2, 303360, Pitch_bend_c, 1, 8320
2, 303360, Pitch_bend_c, 1, 8192
2, 303360, Note_off_c, 1, 55, 79
2, 304800, Note_on_c, 0, 48, 79
2, 305040, Note_off_c, 0, 48, 79
2, 305040, Note_on_c, 0, 50, 54
2, 305280, Note_off_c, 0, 50, 54
2, 305280, Note_on_c, 0, 53, 79
2, 305760, Note_off_c, 0, 53, 79
2, 305760, Note_on_c, 0, 40, 79
2, 306240, Note_off_c, 0, 40, 79
2, 307200, Note_on_c, 0, 64, 79
2, 307200, Note_on_c, 0, 60, 79
2, 307200, Note_on_c, 0, 55, 79
2, 307200, Note_on_c, 0, 48, 79
2, 308640, Note_off_c, 0, 64, 79
2, 308640, Note_off_c, 0, 60, 79
2, 308640, Note_off_c, 0, 55, 79
2, 308640, Note_off_c, 0, 48, 79
2, 308640, Note_on_c, 0, 62, 79
2, 308640, Note_on_c, 0, 58, 79
2, 308640, Note_on_c, 0, 55, 79
2, 308640, Note_on_c, 0, 50, 79
2, 308640, Note_on_c, 0, 43, 79
2, 310560, Note_off_c, 0, 62, 79
2, 310560, Note_off_c, 0, 58, 79
2, 310560, Note_off_c, 0, 55, 79
2, 310560, Note_off_c, 0, 50, 79
2, 310560, Note_off_c, 0, 43, 79
2, 310560, Note_on_c, 0, 48, 79
2, 310560, Note_on_c, 0, 43, 79
2, 311040, Note_off_c, 0, 48, 79
2, 311040, Note_off_c, 0, 43, 79
2, 311040, Note_on_c, 0, 64, 79
2, 311040, Note_on_c, 0, 60, 79
2, 311040, Note_on_c, 0, 55, 79
2, 311040, Note_on_c, 0, 48, 79
2, 312480, Note_off_c, 0, 64, 79
2, 312480, Note_off_c, 0, 60, 79
2, 312480, Note_off_c, 0, 55, 79
2, 312480, Note_off_c, 0, 48, 79
2, 312480, Note_on_c, 0, 67, 79
2, 312480, Note_on_c, 0, 62, 79
2, 312480, Note_on_c, 0, 58, 79
2, 312480, Note_on_c, 0, 55, 79
2, 312480, Note_on_c, 0, 50, 79
2, 312480, Note_on_c, 0, 43, 79
2, 314400, Note_off_c, 0, 67, 79
2, 314400, Note_off_c, 0, 62, 79
2, 314400, Note_off_c, 0, 58, 79
2, 314400, Note_off_c, 0, 55, 79
2, 314400, Note_off_c, 0, 50, 79
2, 314400, Note_off_c, 0, 43, 79
2, 314400, Note_on_c, 0, 48, 79
2, 314400, Note_on_c, 0, 43, 79
2, 314880, Note_off_c, 0, 48, 79
2, 314880, Note_off_c, 0, 43, 79
2, 314880, Note_on_c, 0, 64, 79
2, 314880, Note_on_c, 0, 60, 79
2, 314880, Note_on_c, 0, 55, 79
2, 314880, Note_on_c, 0, 48, 79
2, 316320, Note_off_c, 0, 64, 79
2, 316320, Note_off_c, 0, 60, 79
2, 316320, Note_off_c, 0, 55, 79
2, 316320, Note_off_c, 0, 48, 79
2, 316320, Note_on_c, 0, 67, 79
2, 316320, Note_on_c, 0, 62, 79
2, 316320, Note_on_c, 0, 58, 79
2, 316320, Note_on_c, 0, 55, 79
2, 316320, Note_on_c, 0, 50, 79
2, 316320, Note_on_c, 0, 43, 79
2, 318240, Note_off_c, 0, 67, 79
2, 318240, Note_off_c, 0, 62, 79
2, 318240, Note_off_c, 0, 58, 79
2, 318240, Note_off_c, 0, 55, 79
2, 318240, Note_off_c, 0, 50, 79
2, 318240, Note_off_c, 0, 43, 79
2, 318240, Note_on_c, 0, 43, 79
2, 318720, Note_off_c, 0, 43, 79
2, 318720, Note_on_c, 0, 64, 79
2, 318720, Note_on_c, 0, 60, 79
2, 318720, Note_on_c, 0, 55, 79
2, 318720, Note_on_c, 0, 48, 79
2, 322560, Note_off_c, 0, 64, 79
2, 322560, Note_off_c, 0, 60, 79
2, 322560, Note_off_c, 0, 55, 79
2, 322560, Note_off_c, 0, 48, 79
2, 324000, Note_on_c, 0, 48, 79
2, 324240, Note_off_c, 0, 48, 79
2, 324240, Note_on_c, 0, 50, 54
2, 324480, Note_off_c, 0, 50, 54
2, 324480, Note_on_c, 0, 53, 79
2, 324960, Note_off_c, 0, 53, 79
2, 324960, Note_on_c, 0, 43, 79
2, 325440, Note_off_c, 0, 43, 79
2, 325440, Note_on_c, 1, 55, 79
2, 325600, Pitch_bend_c, 1, 8192
2, 325760, Pitch_bend_c, 1, 8320
2, 325920, Pitch_bend_c, 1, 8192
2, 326080, Pitch_bend_c, 1, 8320
2, 326240, Pitch_bend_c, 1, 8192
2, 326400, Pitch_bend_c, 1, 8320
2, 326400, Pitch_bend_c, 1, 8192
2, 326400, Note_off_c, 1, 55, 79
2, 327840, Note_on_c, 0, 48, 79
2, 328080, Note_off_c, 0, 48, 79
2, 328080, Note_on_c, 0, 50, 54
2, 328320, Note_off_c, 0, 50, 54
2, 328320, Note_on_c, 0, 53, 79
2, 328800, Note_off_c, 0, 53, 79
2, 328800, Note_on_c, 0, 40, 79
2, 329280, Note_off_c, 0, 40, 79
2, 331680, Note_on_c, 0, 48, 79
2, 331920, Note_off_c, 0, 48, 79
2, 331920, Note_on_c, 0, 50, 54
2, 332160, Note_off_c, 0, 50, 54
2, 332160, Note_on_c, 0, 53, 79
2, 332640, Note_off_c, 0, 53, 79
2, 332640, Note_on_c, 0, 43, 79
2, 333120, Note_off_c, 0, 43, 79
2, 333120, Note_on_c, 1, 55, 79
2, 333280, Pitch_bend_c, 1, 8192
2, 333440, Pitch_bend_c, 1, 8320
2, 333600, Pitch_bend_c, 1, 8192
2, 333760, Pitch_bend_c, 1, 8320
2, 333920, Pitch_bend_c, 1, 8192
2, 334080, Pitch_bend_c, 1, 8320
2, 334080, Pitch_bend_c, 1, 8192
2, 334080, Note_off_c, 1, 55, 79
2, 335520, Note_on_c, 0, 48, 79
2, 335760, Note_off_c, 0, 48, 79
2, 335760, Note_on_c, 0, 50, 54
2, 336000, Note_off_c, 0, 50, 54
2, 336000, Note_on_c, 0, 53, 79
2, 336480, Note_off_c, 0, 53, 79
2, 336480, Note_on_c, 0, 40, 79
2, 336960, Note_off_c, 0, 40, 79
2, 339360, Note_on_c, 0, 48, 79
2, 339600, Note_off_c, 0, 48, 79
2, 339600, Note_on_c, 0, 50, 54
2, 339840, Note_off_c, 0, 50, 54
2, 339840, Note_on_c, 0, 53, 79
2, 340320, Note_off_c, 0, 53, 79
2, 340320, Note_on_c, 0, 43, 79
2, 340800, Note_off_c, 0, 43, 79
2, 340800, Note_on_c, 1, 55, 79
2, 340960, Pitch_bend_c, 1, 8192
2, 341120, Pitch_bend_c, 1, 8320
2, 341280, Pitch_bend_c, 1, 8192
2, 341440, Pitch_bend_c, 1, 8320
2, 341600, Pitch_bend_c, 1, 8192
2, 341760, Pitch_bend_c, 1, 8320
2, 341760, Pitch_bend_c, 1, 8192
2, 341760, Note_off_c, 1, 55, 79
2, 343200, Note_on_c, 0, 48, 79
2, 343440, Note_off_c, 0, 48, 79
2, 343440, Note_on_c, 0, 50, 54
2, 343680, Note_off_c, 0, 50, 54
2, 343680, Note_on_c, 0, 53, 79
2, 344160, Note_off_c, 0, 53, 79
2, 344160, Note_on_c, 0, 40, 79
2, 344640, Note_off_c, 0, 40, 79
2, 347040, Note_on_c, 0, 48, 79
2, 347280, Note_off_c, 0, 48, 79
2, 347280, Note_on_c, 0, 50, 54
2, 347520, Note_off_c, 0, 50, 54
2, 347520, Note_on_c, 0, 53, 79
2, 348000, Note_off_c, 0, 53, 79
2, 348000, Note_on_c, 0, 43, 79
2, 348480, Note_off_c, 0, 43, 79
2, 348480, Note_on_c, 1, 55, 79
2, 348640, Pitch_bend_c, 1, 8192
2, 348800, Pitch_bend_c, 1, 8320
2, 348960, Pitch_bend_c, 1, 8192
2, 349120, Pitch_bend_c, 1, 8320
2, 349280, Pitch_bend_c, 1, 8192
2, 349440, Pitch_bend_c, 1, 8320
2, 349440, Pitch_bend_c, 1, 8192
2, 349440, Note_off_c, 1, 55, 79
2, 350880, Note_on_c, 0, 48, 79
2, 351120, Note_off_c, 0, 48, 79
2, 351120, Note_on_c, 0, 50, 54
2, 351360, Note_off_c, 0, 50, 54
2, 351360, Note_on_c, 0, 53, 79
2, 351840, Note_off_c, 0, 53, 79
2, 351840, Note_on_c, 0, 40, 79
2, 352320, Note_off_c, 0, 40, 79
2, 354720, Note_on_c, 0, 48, 79
2, 354960, Note_off_c, 0, 48, 79
2, 354960, Note_on_c, 0, 50, 54
2, 355200, Note_off_c, 0, 50, 54
2, 355200, Note_on_c, 0, 53, 79
2, 355680, Note_off_c, 0, 53, 79
2, 355680, Note_on_c, 0, 43, 79
2, 356160, Note_off_c, 0, 43, 79
2, 356160, Note_on_c, 1, 55, 79
2, 356320, Pitch_bend_c, 1, 8192
2, 356480, Pitch_bend_c, 1, 8320
2, 356640, Pitch_bend_c, 1, 8192
2, 356800, Pitch_bend_c, 1, 8320
2, 356960, Pitch_bend_c, 1, 8192
2, 357120, Pitch_bend_c, 1, 8320
2, 357120, Pitch_bend_c, 1, 8192
2, 357120, Note_off_c, 1, 55, 79
2, 358560, Note_on_c, 0, 48, 79
2, 358800, Note_off_c, 0, 48, 79
2, 358800, Note_on_c, 0, 50, 54
2, 359040, Note_off_c, 0, 50, 54
2, 359040, Note_on_c, 0, 53, 79
2, 359520, Note_off_c, 0, 53, 79
2, 359520, Note_on_c, 0, 40, 79
2, 360000, Note_off_c, 0, 40, 79
2, 362400, Note_on_c, 0, 48, 79
2, 362640, Note_off_c, 0, 48, 79
2, 362640, Note_on_c, 0, 50, 54
2, 362880, Note_off_c, 0, 50, 54
2, 362880, Note_on_c, 0, 53, 79
2, 363360, Note_off_c, 0, 53, 79
2, 363360, Note_on_c, 0, 43, 79
2, 363840, Note_off_c, 0, 43, 79
2, 363840, Note_on_c, 1, 55, 79
2, 364000, Pitch_bend_c, 1, 8192
2, 364160, Pitch_bend_c, 1, 8320
2, 364320, Pitch_bend_c, 1, 8192
2, 364480, Pitch_bend_c, 1, 8320
2, 364640, Pitch_bend_c, 1, 8192
2, 364800, Pitch_bend_c, 1, 8320
2, 364800, Pitch_bend_c, 1, 8192
2, 364800, Note_off_c, 1, 55, 79
2, 366240, Note_on_c, 0, 48, 79
2, 366480, Note_off_c, 0, 48, 79
2, 366480, Note_on_c, 0, 50, 54
2, 366720, Note_off_c, 0, 50, 54
2, 366720, Note_on_c, 0, 53, 79
2, 367200, Note_off_c, 0, 53, 79
2, 367200, Note_on_c, 0, 40, 79
2, 367680, Note_off_c, 0, 40, 79
2, 370080, Note_on_c, 0, 53, 79
2, 370560, Note_off_c, 0, 53, 79
2, 370560, Note_on_c, 0, 55, 95
2, 370621, Note_off_c, 0, 55, 95
2, 370800, Note_on_c, 0, 55, 95
2, 370861, Note_off_c, 0, 55, 95
2, 371040, Note_on_c, 0, 58, 79
2, 371520, Note_off_c, 0, 58, 79
2, 371520, Note_on_c, 0, 55, 79
2, 372000, Note_off_c, 0, 55, 79
2, 372000, Note_on_c, 0, 53, 79
2, 372480, Note_off_c, 0, 53, 79
2, 373920, Note_on_c, 0, 53, 79
2, 374400, Note_off_c, 0, 53, 79
2, 374880, Note_on_c, 0, 50, 79
2, 375360, Note_off_c, 0, 50, 79
2, 375360, Note_on_c, 1, 55, 79
2, 375520, Pitch_bend_c, 1, 8192
2, 375680, Pitch_bend_c, 1, 8320
2, 375840, Pitch_bend_c, 1, 8192
2, 376000, Pitch_bend_c, 1, 8320
2, 376160, Pitch_bend_c, 1, 8192
2, 376320, Pitch_bend_c, 1, 8320
2, 376320, Pitch_bend_c, 1, 8192
2, 376320, Note_off_c, 1, 55, 79
2, 377760, Note_on_c, 0, 53, 79
2, 378240, Note_off_c, 0, 53, 79
2, 378240, Note_on_c, 0, 55, 95
2, 378301, Note_off_c, 0, 55, 95
2, 378480, Note_on_c, 0, 55, 95
2, 378541, Note_off_c, 0, 55, 95
2, 378720, Note_on_c, 0, 58, 79
2, 379200, Note_off_c, 0, 58, 79
2, 379200, Note_on_c, 0, 55, 79
2, 379680, Note_off_c, 0, 55, 79
2, 379680, Note_on_c, 0, 53, 79
2, 380160, Note_off_c, 0, 53, 79
2, 380880, Note_on_c, 0, 55, 95
2, 380880, Note_on_c, 0, 50, 95
2, 380941, Note_off_c, 0, 55, 95
2, 380941, Note_off_c, 0, 50, 95
2, 381120, Note_on_c, 0, 58, 79
2, 381120, Note_on_c, 0, 53, 79
2, 381600, Note_off_c, 0, 58, 79
2, 381600, Note_off_c, 0, 53, 79
2, 381600, Note_on_c, 0, 53, 79
2, 382080, Note_off_c, 0, 53, 79
2, 382560, Note_on_c, 1, 48, 79
2, 382680, Pitch_bend_c, 1, 8832
2, 382800, Pitch_bend_c, 1, 9600
2, 382800, Pitch_bend_c, 1, 8192
2, 382800, Note_off_c, 1, 48, 79
2, 382800, Note_on_c, 0, 50, 79
2, 383040, Note_off_c, 0, 50, 79
2, 383040, Note_on_c, 0, 53, 79
2, 383520, Note_off_c, 0, 53, 79
2, 383520, Note_on_c, 0, 55, 79
2, 384000, Note_off_c, 0, 55, 79
2, 385440, Note_on_c, 0, 48, 79
2, 385680, Note_off_c, 0, 48, 79
2, 385680, Note_on_c, 0, 50, 54
2, 385920, Note_off_c, 0, 50, 54
2, 385920, Note_on_c, 0, 53, 79
2, 386400, Note_off_c, 0, 53, 79
2, 386400, Note_on_c, 0, 43, 79
2, 386880, Note_off_c, 0, 43, 79
2, 386880, Note_on_c, 1, 55, 79
2, 387040, Pitch_bend_c, 1, 8192
2, 387200, Pitch_bend_c, 1, 8320
2, 387360, Pitch_bend_c, 1, 8192
2, 387520, Pitch_bend_c, 1, 8320
2, 387680, Pitch_bend_c, 1, 8192
2, 387840, Pitch_bend_c, 1, 8320
2, 387840, Pitch_bend_c, 1, 8192
2, 387840, Note_off_c, 1, 55, 79
2, 389280, Note_on_c, 0, 48, 79
2, 389520, Note_off_c, 0, 48, 79
2, 389520, Note_on_c, 0, 50, 54
2, 389760, Note_off_c, 0, 50, 54
2, 389760, Note_on_c, 0, 53, 79
2, 390240, Note_off_c, 0, 53, 79
2, 390240, Note_on_c, 0, 40, 79
2, 390720, Note_off_c, 0, 40, 79
2, 393120, Note_on_c, 0, 48, 79
2, 393360, Note_off_c, 0, 48, 79
2, 393360, Note_on_c, 0, 50, 54
2, 393600, Note_off_c, 0, 50, 54
2, 393600, Note_on_c, 0, 53, 79
2, 394080, Note_off_c, 0, 53, 79
2, 394080, Note_on_c, 0, 43, 79
2, 394560, Note_off_c, 0, 43, 79
2, 394560, Note_on_c, 1, 55, 79
2, 394720, Pitch_bend_c, 1, 8192
2, 394880, Pitch_bend_c, 1, 8320
2, 395040, Pitch_bend_c, 1, 8192
2, 395200, Pitch_bend_c, 1, 8320
2, 395360, Pitch_bend_c, 1, 8192
2, 395520, Pitch_bend_c, 1, 8320
2, 395520, Pitch_bend_c, 1, 8192
2, 395520, Note_off_c, 1, 55, 79
2, 396960, Note_on_c, 0, 48, 79
2, 397200, Note_off_c, 0, 48, 79
2, 397200, Note_on_c, 0, 50, 54
2, 397440, Note_off_c, 0, 50, 54
2, 397440, Note_on_c, 0, 53, 79
2, 397920, Note_off_c, 0, 53, 79
2, 397920, Note_on_c, 0, 40, 79
2, 398400, Note_off_c, 0, 40, 79
2, 400800, Note_on_c, 0, 48, 79
2, 401040, Note_off_c, 0, 48, 79
2, 401040, Note_on_c, 0, 50, 54
2, 401280, Note_off_c, 0, 50, 54
2, 401280, Note_on_c, 0, 53, 79
2, 401760, Note_off_c, 0, 53, 79
2, 401760, Note_on_c, 0, 43, 79
2, 402240, Note_off_c, 0, 43, 79
2, 402240, Note_on_c, 1, 55, 79
2, 402400, Pitch_bend_c, 1, 8192
2, 402560, Pitch_bend_c, 1, 8320
2, 402720, Pitch_bend_c, 1, 8192
2, 402880, Pitch_bend_c, 1, 8320
2, 403040, Pitch_bend_c, 1, 8192
2, 403200, Pitch_bend_c, 1, 8320
2, 403200, Pitch_bend_c, 1, 8192
2, 403200, Note_off_c, 1, 55, 79
2, 404640, Note_on_c, 0, 48, 79
2, 404880, Note_off_c, 0, 48, 79
2, 404880, Note_on_c, 0, 50, 54
2, 405120, Note_off_c, 0, 50, 54
2, 405120, Note_on_c, 0, 53, 79
2, 405600, Note_off_c, 0, 53, 79
2, 405600, Note_on_c, 0, 40, 79
2, 406080, Note_off_c, 0, 40, 79
2, 408480, Note_on_c, 0, 48, 79
2, 408720, Note_off_c, 0, 48, 79
2, 408720, Note_on_c, 0, 50, 54
2, 408960, Note_off_c, 0, 50, 54
2, 408960, Note_on_c, 0, 53, 79
2, 409440, Note_off_c, 0, 53, 79
2, 409440, Note_on_c, 0, 43, 79
2, 409920, Note_off_c, 0, 43, 79
2, 409920, Note_on_c, 1, 55, 79
2, 410080, Pitch_bend_c, 1, 8192
2, 410240, Pitch_bend_c, 1, 8320
2, 410400, Pitch_bend_c, 1, 8192
2, 410560, Pitch_bend_c, 1, 8320
2, 410720, Pitch_bend_c, 1, 8192
2, 410880, Pitch_bend_c, 1, 8320
2, 410880, Pitch_bend_c, 1, 8192
2, 410880, Note_off_c, 1, 55, 79
2, 412320, Note_on_c, 0, 48, 79
2, 412560, Note_off_c, 0, 48, 79
2, 412560, Note_on_c, 0, 50, 54
2, 412800, Note_off_c, 0, 50, 54
2, 412800, Note_on_c, 0, 53, 79
2, 413280, Note_off_c, 0, 53, 79
2, 413280, Note_on_c, 0, 40, 79
2, 413760, Note_off_c, 0, 40, 79
2, 416160, Note_on_c, 0, 48, 79
2, 416400, Note_off_c, 0, 48, 79
2, 416400, Note_on_c, 0, 50, 54
2, 416640, Note_off_c, 0, 50, 54
2, 416640, Note_on_c, 0, 53, 79
2, 417120, Note_off_c, 0, 53, 79
2, 417120, Note_on_c, 0, 43, 79
2, 417600, Note_off_c, 0, 43, 79
2, 417600, Note_on_c, 1, 55, 79
2, 417760, Pitch_bend_c, 1, 8192
2, 417920, Pitch_bend_c, 1, 8320
2, 418080, Pitch_bend_c, 1, 8192
2, 418240, Pitch_bend_c, 1, 8320
2, 418400, Pitch_bend_c, 1, 8192
2, 418560, Pitch_bend_c, 1, 8320
2, 418560, Pitch_bend_c, 1, 8192
2, 418560, Note_off_c, 1, 55, 79
2, 420000, Note_on_c, 0, 48, 79
2, 420240, Note_off_c, 0, 48, 79
2, 420240, Note_on_c, 0, 50, 54
2, 420480, Note_off_c, 0, 50, 54
2, 420480, Note_on_c, 0, 53, 79
2, 420960, Note_off_c, 0, 53, 79
2, 420960, Note_on_c, 0, 40, 79
2, 421440, Note_off_c, 0, 40, 79
2, 423840, Note_on_c, 0, 48, 79
2, 424080, Note_off_c, 0, 48, 79
2, 424080, Note_on_c, 0, 50, 54
2, 424320, Note_off_c, 0, 50, 54
2, 424320, Note_on_c, 0, 53, 79
2, 424800, Note_off_c, 0, 53, 79
2, 424800, Note_on_c, 0, 43, 79
2, 425280, Note_off_c, 0, 43, 79
2, 425280, Note_on_c, 1, 55, 79
2, 425440, Pitch_bend_c, 1, 8192
2, 425600, Pitch_bend_c, 1, 8320
2, 425760, Pitch_bend_c, 1, 8192
2, 425920, Pitch_bend_c, 1, 8320
2, 426080, Pitch_bend_c, 1, 8192
2, 426240, Pitch_bend_c, 1, 8320
2, 426240, Pitch_bend_c, 1, 8192
2, 426240, Note_off_c, 1, 55, 79
2, 427680, Note_on_c, 0, 48, 79
2, 427920, Note_off_c, 0, 48, 79
2, 427920, Note_on_c, 0, 50, 54
2, 428160, Note_off_c, 0, 50, 54
2, 428160, Note_on_c, 0, 53, 79
2, 428640, Note_off_c, 0, 53, 79
2, 428640, Note_on_c, 0, 40, 79
2, 429120, Note_off_c, 0, 40, 79
2, 431520, Note_on_c, 0, 53, 79
2, 432000, Note_off_c, 0, 53, 79
2, 432000, Note_on_c, 0, 55, 95
2, 432061, Note_off_c, 0, 55, 95
2, 432240, Note_on_c, 0, 55, 95
2, 432301, Note_off_c, 0, 55, 95
2, 432480, Note_on_c, 0, 58, 79
2, 432960, Note_off_c, 0, 58, 79
2, 432960, Note_on_c, 0, 55, 79
2, 433440, Note_off_c, 0, 55, 79
2, 433440, Note_on_c, 0, 53, 79
2, 433920, Note_off_c, 0, 53, 79
2, 435360, Note_on_c, 0, 53, 79
2, 435840, Note_off_c, 0, 53, 79
2, 436320, Note_on_c, 0, 50, 79
2, 436800, Note_off_c, 0, 50, 79
2, 436800, Note_on_c, 1, 55, 79
2, 436960, Pitch_bend_c, 1, 8192
2, 437120, Pitch_bend_c, 1, 8320
2, 437280, Pitch_bend_c, 1, 8192
2, 437440, Pitch_bend_c, 1, 8320
2, 437600, Pitch_bend_c, 1, 8192
2, 437760, Pitch_bend_c, 1, 8320
2, 437760, Pitch_bend_c, 1, 8192
2, 437760, Note_off_c, 1, 55, 79
2, 439200, Note_on_c, 0, 53, 79
2, 439680, Note_off_c, 0, 53, 79
2, 439680, Note_on_c, 0, 55, 95
2, 439741, Note_off_c, 0, 55, 95
2, 439920, Note_on_c, 0, 55, 95
2, 439981, Note_off_c, 0, 55, 95
2, 440160, Note_on_c, 0, 58, 79
2, 440640, Note_off_c, 0, 58, 79
2, 440640, Note_on_c, 0, 55, 79
2, 441120, Note_off_c, 0, 55, 79
2, 441120, Note_on_c, 0, 53, 79
2, 441600, Note_off_c, 0, 53, 79
2, 442320, Note_on_c, 0, 55, 95
2, 442320, Note_on_c, 0, 50, 95
2, 442381, Note_off_c, 0, 55, 95
2, 442381, Note_off_c, 0, 50, 95
2, 442560, Note_on_c, 0, 58, 79
2, 442560, Note_on_c, 0, 53, 79
2, 443040, Note_off_c, 0, 58, 79
2, 443040, Note_off_c, 0, 53, 79
2, 443040, Note_on_c, 0, 53, 79
2, 443520, Note_off_c, 0, 53, 79
2, 444000, Note_on_c, 1, 48, 79
2, 444120, Pitch_bend_c, 1, 8832
2, 444240, Pitch_bend_c, 1, 9600
2, 444240, Pitch_bend_c, 1, 8192
2, 444240, Note_off_c, 1, 48, 79
2, 444240, Note_on_c, 0, 50, 79
2, 444480, Note_off_c, 0, 50, 79
2, 444480, Note_on_c, 0, 53, 79
2, 444960, Note_off_c, 0, 53, 79
2, 444960, Note_on_c, 0, 55, 79
2, 445440, Note_off_c, 0, 55, 79
2, 446880, Note_on_c, 0, 48, 79
2, 447120, Note_off_c, 0, 48, 79
2, 447120, Note_on_c, 0, 50, 54
2, 447360, Note_off_c, 0, 50, 54
2, 447360, Note_on_c, 0, 53, 79
2, 447840, Note_off_c, 0, 53, 79
2, 447840, Note_on_c, 0, 43, 79
2, 448320, Note_off_c, 0, 43, 79
2, 448320, Note_on_c, 1, 55, 79
2, 448480, Pitch_bend_c, 1, 8192
2, 448640, Pitch_bend_c, 1, 8320
2, 448800, Pitch_bend_c, 1, 8192
2, 448960, Pitch_bend_c, 1, 8320
2, 449120, Pitch_bend_c, 1, 8192
2, 449280, Pitch_bend_c, 1, 8320
2, 449280, Pitch_bend_c, 1, 8192
2, 449280, Note_off_c, 1, 55, 79
2, 450720, Note_on_c, 0, 48, 79
2, 450960, Note_off_c, 0, 48, 79
2, 450960, Note_on_c, 0, 50, 54
2, 451200, Note_off_c, 0, 50, 54
2, 451200, Note_on_c, 0, 53, 79
2, 451680, Note_off_c, 0, 53, 79
2, 451680, Note_on_c, 0, 40, 79
2, 452160, Note_off_c, 0, 40, 79
2, 454560, Note_on_c, 0, 48, 79
2, 454800, Note_off_c, 0, 48, 79
2, 454800, Note_on_c, 0, 50, 54
2, 455040, Note_off_c, 0, 50, 54
2, 455040, Note_on_c, 0, 53, 79
2, 455520, Note_off_c, 0, 53, 79
2, 455520, Note_on_c, 0, 43, 79
2, 456000, Note_off_c, 0, 43, 79
2, 456000, Note_on_c, 1, 55, 79
2, 456160, Pitch_bend_c, 1, 8192
2, 456320, Pitch_bend_c, 1, 8320
2, 456480, Pitch_bend_c, 1, 8192
2, 456640, Pitch_bend_c, 1, 8320
2, 456800, Pitch_bend_c, 1, 8192
2, 456960, Pitch_bend_c, 1, 8320
2, 456960, Pitch_bend_c, 1, 8192
2, 456960, Note_off_c, 1, 55, 79
2, 458400, Note_on_c, 0, 48, 79
2, 458640, Note_off_c, 0, 48, 79
2, 458640, Note_on_c, 0, 50, 54
2, 458880, Note_off_c, 0, 50, 54
2, 458880, Note_on_c, 0, 53, 79
2, 459360, Note_off_c, 0, 53, 79
2, 459360, Note_on_c, 0, 40, 79
2, 459840, Note_off_c, 0, 40, 79
2, 462240, Note_on_c, 0, 48, 79
2, 462480, Note_off_c, 0, 48, 79
2, 462480, Note_on_c, 0, 50, 54
2, 462720, Note_off_c, 0, 50, 54
2, 462720, Note_on_c, 0, 53, 79
2, 463200, Note_off_c, 0, 53, 79
2, 463200, Note_on_c, 0, 43, 79
2, 463680, Note_off_c, 0, 43, 79
2, 463680, Note_on_c, 1, 55, 79
2, 463840, Pitch_bend_c, 1, 8192
2, 464000, Pitch_bend_c, 1, 8320
2, 464160, Pitch_bend_c, 1, 8192
2, 464320, Pitch_bend_c, 1, 8320
2, 464480, Pitch_bend_c, 1, 8192
2, 464640, Pitch_bend_c, 1, 8320
2, 464640, Pitch_bend_c, 1, 8192
2, 464640, Note_off_c, 1, 55, 79
2, 466080, Note_on_c, 0, 48, 79
2, 466320, Note_off_c, 0, 48, 79
2, 466320, Note_on_c, 0, 50, 54
2, 466560, Note_off_c, 0, 50, 54
2, 466560, Note_on_c, 0, 53, 79
2, 467040, Note_off_c, 0, 53, 79
2, 467040, Note_on_c, 0, 40, 79
2, 467520, Note_off_c, 0, 40, 79
2, 469920, Note_on_c, 0, 48, 79
2, 470160, Note_off_c, 0, 48, 79
2, 470160, Note_on_c, 0, 50, 54
2, 470400, Note_off_c, 0, 50, 54
2, 470400, Note_on_c, 0, 53, 79
2, 470880, Note_off_c, 0, 53, 79
2, 470880, Note_on_c, 0, 43, 79
2, 471360, Note_off_c, 0, 43, 79
2, 471360, Note_on_c, 1, 55, 79
2, 471520, Pitch_bend_c, 1, 8192
2, 471680, Pitch_bend_c, 1, 8320
2, 471840, Pitch_bend_c, 1, 8192
2, 472000, Pitch_bend_c, 1, 8320
2, 472160, Pitch_bend_c, 1, 8192
2, 472320, Pitch_bend_c, 1, 8320
2, 472320, Pitch_bend_c, 1, 8192
2, 472320, Note_off_c, 1, 55, 79
2, 473760, Note_on_c, 0, 48, 79
2, 474000, Note_off_c, 0, 48, 79
2, 474000, Note_on_c, 0, 50, 54
2, 474240, Note_off_c, 0, 50, 54
2, 474240, Note_on_c, 0, 53, 79
2, 474720, Note_off_c, 0, 53, 79
2, 474720, Note_on_c, 0, 40, 79
2, 475200, Note_off_c, 0, 40, 79
2, 477600, Note_on_c, 0, 48, 79
2, 477840, Note_off_c, 0, 48, 79
2, 477840, Note_on_c, 0, 50, 54
2, 478080, Note_off_c, 0, 50, 54
2, 478080, Note_on_c, 0, 53, 79
2, 478560, Note_off_c, 0, 53, 79
2, 478560, Note_on_c, 0, 43, 79
2, 479040, Note_off_c, 0, 43, 79
2, 479040, Note_on_c, 1, 55, 79
2, 479200, Pitch_bend_c, 1, 8192
2, 479360, Pitch_bend_c, 1, 8320
2, 479520, Pitch_bend_c, 1, 8192
2, 479680, Pitch_bend_c, 1, 8320
2, 479840, Pitch_bend_c, 1, 8192
2, 480000, Pitch_bend_c, 1, 8320
2, 480000, Pitch_bend_c, 1, 8192
2, 480000, Note_off_c, 1, 55, 79
2, 481440, Note_on_c, 0, 48, 79
2, 481680, Note_off_c, 0, 48, 79
2, 481680, Note_on_c, 0, 50, 54
2, 481920, Note_off_c, 0, 50, 54
2, 481920, Note_on_c, 0, 53, 79
2, 482400, Note_off_c, 0, 53, 79
2, 482400, Note_on_c, 0, 40, 79
2, 482880, Note_off_c, 0, 40, 79
2, 485280, Note_on_c, 0, 48, 79
2, 485520, Note_off_c, 0, 48, 79
2, 485520, Note_on_c, 0, 50, 54
2, 485760, Note_off_c, 0, 50, 54
2, 485760, Note_on_c, 0, 53, 79
2, 486240, Note_off_c, 0, 53, 79
2, 486240, Note_on_c, 0, 43, 79
2, 486720, Note_off_c, 0, 43, 79
2, 486720, Note_on_c, 1, 55, 79
2, 486880, Pitch_bend_c, 1, 8192
2, 487040, Pitch_bend_c, 1, 8320
2, 487200, Pitch_bend_c, 1, 8192
2, 487360, Pitch_bend_c, 1, 8320
2, 487520, Pitch_bend_c, 1, 8192
2, 487680, Pitch_bend_c, 1, 8320
2, 487680, Pitch_bend_c, 1, 8192
2, 487680, Note_off_c, 1, 55, 79
2, 489120, Note_on_c, 0, 48, 79
2, 489360, Note_off_c, 0, 48, 79
2, 489360, Note_on_c, 0, 50, 54
2, 489600, Note_off_c, 0, 50, 54
2, 489600, Note_on_c, 0, 53, 79
2, 490080, Note_off_c, 0, 53, 79
2, 490080, Note_on_c, 0, 40, 79
2, 490560, Note_off_c, 0, 40, 79
2, 490560, End_track
3, 0, Start_track
3, 0, Pitch_bend_c, 2, 8192
3, 0, Control_c, 2, 7, 71
3, 0, Control_c, 2, 10, 63
3, 0, Control_c, 2, 93, 0
3, 0, Control_c, 2, 91, 0
3, 0, Control_c, 2, 95, 0
3, 0, Control_c, 2, 92, 0
3, 0, Control_c, 2, 11, 127
3, 0, Program_c, 2, 24
3, 0, Control_c, 3, 7, 71
3, 0, Control_c, 3, 10, 63
3, 0, Control_c, 3, 93, 0
3, 0, Control_c, 3, 91, 0
3, 0, Control_c, 3, 95, 0
3, 0, Control_c, 3, 92, 0
3, 0, Control_c, 3, 11, 127
3, 0, Program_c, 3, 24
3, 0, Note_on_c, 2, 64, 79
3, 0, Note_on_c, 2, 60, 79
3, 0, Note_on_c, 2, 55, 79
3, 0, Note_on_c, 2, 48, 79
3, 1440, Note_off_c, 2, 64, 79
3, 1440, Note_off_c, 2, 60, 79
3, 1440, Note_off_c, 2, 55, 79
3, 1440, Note_off_c, 2, 48, 79
3, 1440, Note_on_c, 2, 67, 79
3, 1440, Note_on_c, 2, 62, 79
3, 1440, Note_on_c, 2, 58, 79
3, 1440, Note_on_c, 2, 55, 79
3, 1440, Note_on_c, 2, 50, 79
3, 1440, Note_on_c, 2, 43, 79
3, 3840, Note_off_c, 2, 67, 79
3, 3840, Note_off_c, 2, 62, 79
3, 3840, Note_off_c, 2, 58, 79
3, 3840, Note_off_c, 2, 55, 79
3, 3840, Note_off_c, 2, 50, 79
3, 3840, Note_off_c, 2, 43, 79
3, 3840, Note_on_c, 2, 64, 79
3, 3840, Note_on_c, 2, 60, 79
3, 3840, Note_on_c, 2, 55, 79
3, 3840, Note_on_c, 2, 48, 79
3, 5280, Note_off_c, 2, 64, 79
3, 5280, Note_off_c, 2, 60, 79
3, 5280, Note_off_c, 2, 55, 79
3, 5280, Note_off_c, 2, 48, 79
3, 5280, Note_on_c, 2, 67, 79
3, 5280, Note_on_c, 2, 62, 79
3, 5280, Note_on_c, 2, 58, 79
3, 5280, Note_on_c, 2, 55, 79
3, 5280, Note_on_c, 2, 50, 79
3, 5280, Note_on_c, 2, 43, 79
3, 7680, Note_off_c, 2, 67, 79
3, 7680, Note_off_c, 2, 62, 79
3, 7680, Note_off_c, 2, 58, 79
3, 7680, Note_off_c, 2, 55, 79
3, 7680, Note_off_c, 2, 50, 79
3, 7680, Note_off_c, 2, 43, 79
3, 7680, Note_on_c, 2, 64, 79
3, 7680, Note_on_c, 2, 60, 79
3, 7680, Note_on_c, 2, 55, 79
3, 7680, Note_on_c, 2, 48, 79
3, 9120, Note_off_c, 2, 64, 79
3, 9120, Note_off_c, 2, 60, 79
3, 9120, Note_off_c, 2, 55, 79
3, 9120, Note_off_c, 2, 48, 79
3, 9120, Note_on_c, 2, 67, 79
3, 9120, Note_on_c, 2, 62, 79
3, 9120, Note_on_c, 2, 58, 79
3, 9120, Note_on_c, 2, 55, 79
3, 9120, Note_on_c, 2, 50, 79
3, 9120, Note_on_c, 2, 43, 79
3, 11520, Note_off_c, 2, 67, 79
3, 11520, Note_off_c, 2, 62, 79
3, 11520, Note_off_c, 2, 58, 79
3, 11520, Note_off_c, 2, 55, 79
3, 11520, Note_off_c, 2, 50, 79
3, 11520, Note_off_c, 2, 43, 79
3, 11520, Note_on_c, 2, 64, 79
3, 11520, Note_on_c, 2, 60, 79
3, 11520, Note_on_c, 2, 55, 79
3, 11520, Note_on_c, 2, 48, 79
3, 14400, Note_off_c, 2, 64, 79
3, 14400, Note_off_c, 2, 60, 79
3, 14400, Note_off_c, 2, 55, 79
3, 14400, Note_off_c, 2, 48, 79
3, 15360, Note_on_c, 2, 67, 79
3, 15360, Note_on_c, 2, 62, 79
3, 15360, Note_on_c, 2, 55, 79
3, 15360, Note_on_c, 2, 50, 79
3, 15360, Note_on_c, 2, 46, 79
3, 15360, Note_on_c, 2, 43, 79
3, 15840, Note_off_c, 2, 67, 79
3, 15840, Note_off_c, 2, 62, 79
3, 15840, Note_off_c, 2, 55, 79
3, 15840, Note_off_c, 2, 50, 79
3, 15840, Note_off_c, 2, 46, 79
3, 15840, Note_off_c, 2, 43, 79
3, 15840, Note_on_c, 2, 67, 79
3, 15840, Note_on_c, 2, 62, 79
3, 15840, Note_on_c, 2, 55, 79
3, 15840, Note_on_c, 2, 50, 79
3, 15840, Note_on_c, 2, 46, 79
3, 15840, Note_on_c, 2, 43, 79
3, 16080, Note_off_c, 2, 67, 79
3, 16080, Note_off_c, 2, 62, 79
3, 16080, Note_off_c, 2, 55, 79
3, 16080, Note_off_c, 2, 50, 79
3, 16080, Note_off_c, 2, 46, 79
3, 16080, Note_off_c, 2, 43, 79
3, 16080, Note_on_c, 2, 67, 79
3, 16080, Note_on_c, 2, 62, 79
3, 16080, Note_on_c, 2, 55, 79
3, 16080, Note_on_c, 2, 50, 79
3, 16080, Note_on_c, 2, 46, 79
3, 16080, Note_on_c, 2, 43, 79
3, 16320, Note_off_c, 2, 67, 79
3, 16320, Note_off_c, 2, 62, 79
3, 16320, Note_off_c, 2, 55, 79
3, 16320, Note_off_c, 2, 50, 79
3, 16320, Note_off_c, 2, 46, 79
3, 16320, Note_off_c, 2, 43, 79
3, 16320, Note_on_c, 2, 67, 79
3, 16320, Note_on_c, 2, 62, 79
3, 16320, Note_on_c, 2, 55, 79
3, 16320, Note_on_c, 2, 50, 79
3, 16320, Note_on_c, 2, 46, 79
3, 16320, Note_on_c, 2, 43, 79
3, 16800, Note_off_c, 2, 67, 79
3, 16800, Note_off_c, 2, 62, 79
3, 16800, Note_off_c, 2, 55, 79
3, 16800, Note_off_c, 2, 50, 79
3, 16800, Note_off_c, 2, 46, 79
3, 16800, Note_off_c, 2, 43, 79
3, 16800, Note_on_c, 2, 67, 79
3, 16800, Note_on_c, 2, 62, 79
3, 16800, Note_on_c, 2, 55, 79
3, 16800, Note_on_c, 2, 50, 79
3, 16800, Note_on_c, 2, 46, 79
3, 16800, Note_on_c, 2, 43, 79
3, 17040, Note_off_c, 2, 67, 79
3, 17040, Note_off_c, 2, 62, 79
3, 17040, Note_off_c, 2, 55, 79
3, 17040, Note_off_c, 2, 50, 79
3, 17040, Note_off_c, 2, 46, 79
3, 17040, Note_off_c, 2, 43, 79
3, 17040, Note_on_c, 2, 67, 79
3, 17040, Note_on_c, 2, 62, 79
3, 17040, Note_on_c, 2, 55, 79
3, 17040, Note_on_c, 2, 50, 79
3, 17040, Note_on_c, 2, 46, 79
3, 17040, Note_on_c, 2, 43, 79
3, 17280, Note_off_c, 2, 67, 79
3, 17280, Note_off_c, 2, 62, 79
3, 17280, Note_off_c, 2, 55, 79
3, 17280, Note_off_c, 2, 50, 79
3, 17280, Note_off_c, 2, 46, 79
3, 17280, Note_off_c, 2, 43, 79
3, 17280, Note_on_c, 2, 67, 79
3, 17280, Note_on_c, 2, 62, 79
3, 17280, Note_on_c, 2, 55, 79
3, 17280, Note_on_c, 2, 50, 79
3, 17280, Note_on_c, 2, 46, 79
3, 17280, Note_on_c, 2, 43, 79
3, 17520, Note_off_c, 2, 67, 79
3, 17520, Note_off_c, 2, 62, 79
3, 17520, Note_off_c, 2, 55, 79
3, 17520, Note_off_c, 2, 50, 79
3, 17520, Note_off_c, 2, 46, 79
3, 17520, Note_off_c, 2, 43, 79
3, 17520, Note_on_c, 2, 67, 79
3, 17520, Note_on_c, 2, 62, 79
3, 17520, Note_on_c, 2, 55, 79
3, 17520, Note_on_c, 2, 50, 79
3, 17520, Note_on_c, 2, 46, 79
3, 17520, Note_on_c, 2, 43, 79
3, 17760, Note_off_c, 2, 67, 79
3, 17760, Note_off_c, 2, 62, 79
3, 17760, Note_off_c, 2, 55, 79
3, 17760, Note_off_c, 2, 50, 79
3, 17760, Note_off_c, 2, 46, 79
3, 17760, Note_off_c, 2, 43, 79
3, 17760, Note_on_c, 2, 67, 79
3, 17760, Note_on_c, 2, 62, 79
3, 17760, Note_on_c, 2, 55, 79
3, 17760, Note_on_c, 2, 50, 79
3, 17760, Note_on_c, 2, 46, 79
3, 17760, Note_on_c, 2, 43, 79
3, 18000, Note_off_c, 2, 67, 79
3, 18000, Note_off_c, 2, 62, 79
3, 18000, Note_off_c, 2, 55, 79
3, 18000, Note_off_c, 2, 50, 79
3, 18000, Note_off_c, 2, 46, 79
3, 18000, Note_off_c, 2, 43, 79
3, 18000, Note_on_c, 2, 67, 79
3, 18000, Note_on_c, 2, 62, 79
3, 18000, Note_on_c, 2, 55, 79
3, 18000, Note_on_c, 2, 50, 79
3, 18000, Note_on_c, 2, 46, 79
3, 18000, Note_on_c, 2, 43, 79
3, 18240, Note_off_c, 2, 67, 79
3, 18240, Note_off_c, 2, 62, 79
3, 18240, Note_off_c, 2, 55, 79
3, 18240, Note_off_c, 2, 50, 79
3, 18240, Note_off_c, 2, 46, 79
3, 18240, Note_off_c, 2, 43, 79
3, 18240, Note_on_c, 2, 67, 79
3, 18240, Note_on_c, 2, 62, 79
3, 18240, Note_on_c, 2, 55, 79
3, 18240, Note_on_c, 2, 50, 79
3, 18240, Note_on_c, 2, 46, 79
3, 18240, Note_on_c, 2, 43, 79
3, 18480, Note_off_c, 2, 67, 79
3, 18480, Note_off_c, 2, 62, 79
3, 18480, Note_off_c, 2, 55, 79
3, 18480, Note_off_c, 2, 50, 79
3, 18480, Note_off_c, 2, 46, 79
3, 18480, Note_off_c, 2, 43, 79
3, 18480, Note_on_c, 2, 67, 79
3, 18480, Note_on_c, 2, 62, 79
3, 18480, Note_on_c, 2, 55, 79
3, 18480, Note_on_c, 2, 50, 79
3, 18480, Note_on_c, 2, 46, 79
3, 18480, Note_on_c, 2, 43, 79
3, 18720, Note_off_c, 2, 67, 79
3, 18720, Note_off_c, 2, 62, 79
3, 18720, Note_off_c, 2, 55, 79
3, 18720, Note_off_c, 2, 50, 79
3, 18720, Note_off_c, 2, 46, 79
3, 18720, Note_off_c, 2, 43, 79
3, 18720, Note_on_c, 2, 67, 79
3, 18720, Note_on_c, 2, 62, 79
3, 18720, Note_on_c, 2, 55, 79
3, 18720, Note_on_c, 2, 50, 79
3, 18720, Note_on_c, 2, 46, 79
3, 18720, Note_on_c, 2, 43, 79
3, 18960, Note_off_c, 2, 67, 79
3, 18960, Note_off_c, 2, 62, 79
3, 18960, Note_off_c, 2, 55, 79
3, 18960, Note_off_c, 2, 50, 79
3, 18960, Note_off_c, 2, 46, 79
3, 18960, Note_off_c, 2, 43, 79
3, 18960, Note_on_c, 2, 67, 79
3, 18960, Note_on_c, 2, 62, 79
3, 18960, Note_on_c, 2, 55, 79
3, 18960, Note_on_c, 2, 50, 79
3, 18960, Note_on_c, 2, 46, 79
3, 18960, Note_on_c, 2, 43, 79
3, 19200, Note_off_c, 2, 67, 79
3, 19200, Note_off_c, 2, 62, 79
3, 19200, Note_off_c, 2, 55, 79
3, 19200, Note_off_c, 2, 50, 79
3, 19200, Note_off_c, 2, 46, 79
3, 19200, Note_off_c, 2, 43, 79
3, 19200, Note_on_c, 2, 67, 79
3, 19200, Note_on_c, 2, 62, 79
3, 19200, Note_on_c, 2, 55, 79
3, 19200, Note_on_c, 2, 50, 79
3, 19200, Note_on_c, 2, 46, 79
3, 19200, Note_on_c, 2, 43, 79
3, 19680, Note_off_c, 2, 67, 79
3, 19680, Note_off_c, 2, 62, 79
3, 19680, Note_off_c, 2, 55, 79
3, 19680, Note_off_c, 2, 50, 79
3, 19680, Note_off_c, 2, 46, 79
3, 19680, Note_off_c, 2, 43, 79
3, 19680, Note_on_c, 2, 67, 79
3, 19680, Note_on_c, 2, 62, 79
3, 19680, Note_on_c, 2, 55, 79
3, 19680, Note_on_c, 2, 50, 79
3, 19680, Note_on_c, 2, 46, 79
3, 19680, Note_on_c, 2, 43, 79
3, 19920, Note_off_c, 2, 67, 79
3, 19920, Note_off_c, 2, 62, 79
3, 19920, Note_off_c, 2, 55, 79
3, 19920, Note_off_c, 2, 50, 79
3, 19920, Note_off_c, 2, 46, 79
3, 19920, Note_off_c, 2, 43, 79
3, 19920, Note_on_c, 2, 67, 79
3, 19920, Note_on_c, 2, 62, 79
3, 19920, Note_on_c, 2, 55, 79
3, 19920, Note_on_c, 2, 50, 79
3, 19920, Note_on_c, 2, 46, 79
3, 19920, Note_on_c, 2, 43, 79
3, 20160, Note_off_c, 2, 67, 79
3, 20160, Note_off_c, 2, 62, 79
3, 20160, Note_off_c, 2, 55, 79
3, 20160, Note_off_c, 2, 50, 79
3, 20160, Note_off_c, 2, 46, 79
3, 20160, Note_off_c, 2, 43, 79
3, 20160, Note_on_c, 2, 67, 79
3, 20160, Note_on_c, 2, 62, 79
3, 20160, Note_on_c, 2, 55, 79
3, 20160, Note_on_c, 2, 50, 79
3, 20160, Note_on_c, 2, 46, 79
3, 20160, Note_on_c, 2, 43, 79
3, 20640, Note_off_c, 2, 67, 79
3, 20640, Note_off_c, 2, 62, 79
3, 20640, Note_off_c, 2, 55, 79
3, 20640, Note_off_c, 2, 50, 79
3, 20640, Note_off_c, 2, 46, 79
3, 20640, Note_off_c, 2, 43, 79
3, 20640, Note_on_c, 2, 67, 79
3, 20640, Note_on_c, 2, 62, 79
3, 20640, Note_on_c, 2, 55, 79
3, 20640, Note_on_c, 2, 50, 79
3, 20640, Note_on_c, 2, 46, 79
3, 20640, Note_on_c, 2, 43, 79
3, 20880, Note_off_c, 2, 67, 79
3, 20880, Note_off_c, 2, 62, 79
3, 20880, Note_off_c, 2, 55, 79
3, 20880, Note_off_c, 2, 50, 79
3, 20880, Note_off_c, 2, 46, 79
3, 20880, Note_off_c, 2, 43, 79
3, 20880, Note_on_c, 2, 67, 79
3, 20880, Note_on_c, 2, 62, 79
3, 20880, Note_on_c, 2, 55, 79
3, 20880, Note_on_c, 2, 50, 79
3, 20880, Note_on_c, 2, 46, 79
3, 20880, Note_on_c, 2, 43, 79
3, 21120, Note_off_c, 2, 67, 79
3, 21120, Note_off_c, 2, 62, 79
3, 21120, Note_off_c, 2, 55, 79
3, 21120, Note_off_c, 2, 50, 79
3, 21120, Note_off_c, 2, 46, 79
3, 21120, Note_off_c, 2, 43, 79
3, 21120, Note_on_c, 2, 67, 79
3, 21120, Note_on_c, 2, 62, 79
3, 21120, Note_on_c, 2, 55, 79
3, 21120, Note_on_c, 2, 50, 79
3, 21120, Note_on_c, 2, 46, 79
3, 21120, Note_on_c, 2, 43, 79
3, 21360, Note_off_c, 2, 67, 79
3, 21360, Note_off_c, 2, 62, 79
3, 21360, Note_off_c, 2, 55, 79
3, 21360, Note_off_c, 2, 50, 79
3, 21360, Note_off_c, 2, 46, 79
3, 21360, Note_off_c, 2, 43, 79
3, 21360, Note_on_c, 2, 67, 79
3, 21360, Note_on_c, 2, 62, 79
3, 21360, Note_on_c, 2, 55, 79
3, 21360, Note_on_c, 2, 50, 79
3, 21360, Note_on_c, 2, 46, 79
3, 21360, Note_on_c, 2, 43, 79
3, 21600, Note_off_c, 2, 67, 79
3, 21600, Note_off_c, 2, 62, 79
3, 21600, Note_off_c, 2, 55, 79
3, 21600, Note_off_c, 2, 50, 79
3, 21600, Note_off_c, 2, 46, 79
3, 21600, Note_off_c, 2, 43, 79
3, 21600, Note_on_c, 2, 67, 79
3, 21600, Note_on_c, 2, 62, 79
3, 21600, Note_on_c, 2, 55, 79
3, 21600, Note_on_c, 2, 50, 79
3, 21600, Note_on_c, 2, 46, 79
3, 21600, Note_on_c, 2, 43, 79
3, 21840, Note_off_c, 2, 67, 79
3, 21840, Note_off_c, 2, 62, 79
3, 21840, Note_off_c, 2, 55, 79
3, 21840, Note_off_c, 2, 50, 79
3, 21840, Note_off_c, 2, 46, 79
3, 21840, Note_off_c, 2, 43, 79
3, 21840, Note_on_c, 2, 67, 79
3, 21840, Note_on_c, 2, 62, 79
3, 21840, Note_on_c, 2, 55, 79
3, 21840, Note_on_c, 2, 50, 79
3, 21840, Note_on_c, 2, 46, 79
3, 21840, Note_on_c, 2, 43, 79
3, 22080, Note_off_c, 2, 67, 79
3, 22080, Note_off_c, 2, 62, 79
3, 22080, Note_off_c, 2, 55, 79
3, 22080, Note_off_c, 2, 50, 79
3, 22080, Note_off_c, 2, 46, 79
3, 22080, Note_off_c, 2, 43, 79
3, 22080, Note_on_c, 2, 67, 79
3, 22080, Note_on_c, 2, 62, 79
3, 22080, Note_on_c, 2, 55, 79
3, 22080, Note_on_c, 2, 50, 79
3, 22080, Note_on_c, 2, 46, 79
3, 22080, Note_on_c, 2, 43, 79
3, 22320, Note_off_c, 2, 67, 79
3, 22320, Note_off_c, 2, 62, 79
3, 22320, Note_off_c, 2, 55, 79
3, 22320, Note_off_c, 2, 50, 79
3, 22320, Note_off_c, 2, 46, 79
3, 22320, Note_off_c, 2, 43, 79
3, 22320, Note_on_c, 2, 67, 79
3, 22320, Note_on_c, 2, 62, 79
3, 22320, Note_on_c, 2, 55, 79
3, 22320, Note_on_c, 2, 50, 79
3, 22320, Note_on_c, 2, 46, 79
3, 22320, Note_on_c, 2, 43, 79
3, 22560, Note_off_c, 2, 67, 79
3, 22560, Note_off_c, 2, 62, 79
3, 22560, Note_off_c, 2, 55, 79
3, 22560, Note_off_c, 2, 50, 79
3, 22560, Note_off_c, 2, 46, 79
3, 22560, Note_off_c, 2, 43, 79
3, 22560, Note_on_c, 2, 67, 79
3, 22560, Note_on_c, 2, 62, 79
3, 22560, Note_on_c, 2, 55, 79
3, 22560, Note_on_c, 2, 50, 79
3, 22560, Note_on_c, 2, 46, 79
3, 22560, Note_on_c, 2, 43, 79
3, 22800, Note_off_c, 2, 67, 79
3, 22800, Note_off_c, 2, 62, 79
3, 22800, Note_off_c, 2, 55, 79
3, 22800, Note_off_c, 2, 50, 79
3, 22800, Note_off_c, 2, 46, 79
3, 22800, Note_off_c, 2, 43, 79
3, 22800, Note_on_c, 2, 67, 79
3, 22800, Note_on_c, 2, 62, 79
3, 22800, Note_on_c, 2, 55, 79
3, 22800, Note_on_c, 2, 50, 79
3, 22800, Note_on_c, 2, 46, 79
3, 22800, Note_on_c, 2, 43, 79
3, 23040, Note_off_c, 2, 67, 79
3, 23040, Note_off_c, 2, 62, 79
3, 23040, Note_off_c, 2, 55, 79
3, 23040, Note_off_c, 2, 50, 79
3, 23040, Note_off_c, 2, 46, 79
3, 23040, Note_off_c, 2, 43, 79
3, 23040, Note_on_c, 2, 67, 79
3, 23040, Note_on_c, 2, 62, 79
3, 23040, Note_on_c, 2, 55, 79
3, 23040, Note_on_c, 2, 50, 79
3, 23040, Note_on_c, 2, 46, 79
3, 23040, Note_on_c, 2, 43, 79
3, 23520, Note_off_c, 2, 67, 79
3, 23520, Note_off_c, 2, 62, 79
3, 23520, Note_off_c, 2, 55, 79
3, 23520, Note_off_c, 2, 50, 79
3, 23520, Note_off_c, 2, 46, 79
3, 23520, Note_off_c, 2, 43, 79
3, 23520, Note_on_c, 2, 67, 79
3, 23520, Note_on_c, 2, 62, 79
3, 23520, Note_on_c, 2, 55, 79
3, 23520, Note_on_c, 2, 50, 79
3, 23520, Note_on_c, 2, 46, 79
3, 23520, Note_on_c, 2, 43, 79
3, 23760, Note_off_c, 2, 67, 79
3, 23760, Note_off_c, 2, 62, 79
3, 23760, Note_off_c, 2, 55, 79
3, 23760, Note_off_c, 2, 50, 79
3, 23760, Note_off_c, 2, 46, 79
3, 23760, Note_off_c, 2, 43, 79
3, 23760, Note_on_c, 2, 67, 79
3, 23760, Note_on_c, 2, 62, 79
3, 23760, Note_on_c, 2, 55, 79
3, 23760, Note_on_c, 2, 50, 79
3, 23760, Note_on_c, 2, 46, 79
3, 23760, Note_on_c, 2, 43, 79
3, 24000, Note_off_c, 2, 67, 79
3, 24000, Note_off_c, 2, 62, 79
3, 24000, Note_off_c, 2, 55, 79
3, 24000, Note_off_c, 2, 50, 79
3, 24000, Note_off_c, 2, 46, 79
3, 24000, Note_off_c, 2, 43, 79
3, 24000, Note_on_c, 2, 67, 79
3, 24000, Note_on_c, 2, 62, 79
3, 24000, Note_on_c, 2, 55, 79
3, 24000, Note_on_c, 2, 50, 79
3, 24000, Note_on_c, 2, 46, 79
3, 24000, Note_on_c, 2, 43, 79
3, 24480, Note_off_c, 2, 67, 79
3, 24480, Note_off_c, 2, 62, 79
3, 24480, Note_off_c, 2, 55, 79
3, 24480, Note_off_c, 2, 50, 79
3, 24480, Note_off_c, 2, 46, 79
3, 24480, Note_off_c, 2, 43, 79
3, 24480, Note_on_c, 2, 67, 79
3, 24480, Note_on_c, 2, 62, 79
3, 24480, Note_on_c, 2, 55, 79
3, 24480, Note_on_c, 2, 50, 79
3, 24480, Note_on_c, 2, 46, 79
3, 24480, Note_on_c, 2, 43, 79
3, 24720, Note_off_c, 2, 67, 79
3, 24720, Note_off_c, 2, 62, 79
3, 24720, Note_off_c, 2, 55, 79
3, 24720, Note_off_c, 2, 50, 79
3, 24720, Note_off_c, 2, 46, 79
3, 24720, Note_off_c, 2, 43, 79
3, 24720, Note_on_c, 2, 67, 79
3, 24720, Note_on_c, 2, 62, 79
3, 24720, Note_on_c, 2, 55, 79
3, 24720, Note_on_c, 2, 50, 79
3, 24720, Note_on_c, 2, 46, 79
3, 24720, Note_on_c, 2, 43, 79
3, 24960, Note_off_c, 2, 67, 79
3, 24960, Note_off_c, 2, 62, 79
3, 24960, Note_off_c, 2, 55, 79
3, 24960, Note_off_c, 2, 50, 79
3, 24960, Note_off_c, 2, 46, 79
3, 24960, Note_off_c, 2, 43, 79
3, 24960, Note_on_c, 2, 67, 79
3, 24960, Note_on_c, 2, 62, 79
3, 24960, Note_on_c, 2, 55, 79
3, 24960, Note_on_c, 2, 50, 79
3, 24960, Note_on_c, 2, 46, 79
3, 24960, Note_on_c, 2, 43, 79
3, 25200, Note_off_c, 2, 67, 79
3, 25200, Note_off_c, 2, 62, 79
3, 25200, Note_off_c, 2, 55, 79
3, 25200, Note_off_c, 2, 50, 79
3, 25200, Note_off_c, 2, 46, 79
3, 25200, Note_off_c, 2, 43, 79
3, 25200, Note_on_c, 2, 67, 79
3, 25200, Note_on_c, 2, 62, 79
3, 25200, Note_on_c, 2, 55, 79
3, 25200, Note_on_c, 2, 50, 79
3, 25200, Note_on_c, 2, 46, 79
3, 25200, Note_on_c, 2, 43, 79
3, 25440, Note_off_c, 2, 67, 79
3, 25440, Note_off_c, 2, 62, 79
3, 25440, Note_off_c, 2, 55, 79
3, 25440, Note_off_c, 2, 50, 79
3, 25440, Note_off_c, 2, 46, 79
3, 25440, Note_off_c, 2, 43, 79
3, 25440, Note_on_c, 2, 67, 79
3, 25440, Note_on_c, 2, 62, 79
3, 25440, Note_on_c, 2, 55, 79
3, 25440, Note_on_c, 2, 50, 79
3, 25440, Note_on_c, 2, 46, 79
3, 25440, Note_on_c, 2, 43, 79
3, 25680, Note_off_c, 2, 67, 79
3, 25680, Note_off_c, 2, 62, 79
3, 25680, Note_off_c, 2, 55, 79
3, 25680, Note_off_c, 2, 50, 79
3, 25680, Note_off_c, 2, 46, 79
3, 25680, Note_off_c, 2, 43, 79
3, 25680, Note_on_c, 2, 67, 79
3, 25680, Note_on_c, 2, 62, 79
3, 25680, Note_on_c, 2, 55, 79
3, 25680, Note_on_c, 2, 50, 79
3, 25680, Note_on_c, 2, 46, 79
3, 25680, Note_on_c, 2, 43, 79
3, 25920, Note_off_c, 2, 67, 79
3, 25920, Note_off_c, 2, 62, 79
3, 25920, Note_off_c, 2, 55, 79
3, 25920, Note_off_c, 2, 50, 79
3, 25920, Note_off_c, 2, 46, 79
3, 25920, Note_off_c, 2, 43, 79
3, 25920, Note_on_c, 2, 67, 79
3, 25920, Note_on_c, 2, 62, 79
3, 25920, Note_on_c, 2, 55, 79
3, 25920, Note_on_c, 2, 50, 79
3, 25920, Note_on_c, 2, 46, 79
3, 25920, Note_on_c, 2, 43, 79
3, 26160, Note_off_c, 2, 67, 79
3, 26160, Note_off_c, 2, 62, 79
3, 26160, Note_off_c, 2, 55, 79
3, 26160, Note_off_c, 2, 50, 79
3, 26160, Note_off_c, 2, 46, 79
3, 26160, Note_off_c, 2, 43, 79
3, 26160, Note_on_c, 2, 67, 79
3, 26160, Note_on_c, 2, 62, 79
3, 26160, Note_on_c, 2, 55, 79
3, 26160, Note_on_c, 2, 50, 79
3, 26160, Note_on_c, 2, 46, 79
3, 26160, Note_on_c, 2, 43, 79
3, 26400, Note_off_c, 2, 67, 79
3, 26400, Note_off_c, 2, 62, 79
3, 26400, Note_off_c, 2, 55, 79
3, 26400, Note_off_c, 2, 50, 79
3, 26400, Note_off_c, 2, 46, 79
3, 26400, Note_off_c, 2, 43, 79
3, 26400, Note_on_c, 2, 67, 79
3, 26400, Note_on_c, 2, 62, 79
3, 26400, Note_on_c, 2, 55, 79
3, 26400, Note_on_c, 2, 50, 79
3, 26400, Note_on_c, 2, 46, 79
3, 26400, Note_on_c, 2, 43, 79
3, 26640, Note_off_c, 2, 67, 79
3, 26640, Note_off_c, 2, 62, 79
3, 26640, Note_off_c, 2, 55, 79
3, 26640, Note_off_c, 2, 50, 79
3, 26640, Note_off_c, 2, 46, 79
3, 26640, Note_off_c, 2, 43, 79
3, 26640, Note_on_c, 2, 67, 79
3, 26640, Note_on_c, 2, 62, 79
3, 26640, Note_on_c, 2, 55, 79
3, 26640, Note_on_c, 2, 50, 79
3, 26640, Note_on_c, 2, 46, 79
3, 26640, Note_on_c, 2, 43, 79
3, 26880, Note_off_c, 2, 67, 79
3, 26880, Note_off_c, 2, 62, 79
3, 26880, Note_off_c, 2, 55, 79
3, 26880, Note_off_c, 2, 50, 79
3, 26880, Note_off_c, 2, 46, 79
3, 26880, Note_off_c, 2, 43, 79
3, 26880, Note_on_c, 2, 67, 79
3, 26880, Note_on_c, 2, 62, 79
3, 26880, Note_on_c, 2, 55, 79
3, 26880, Note_on_c, 2, 50, 79
3, 26880, Note_on_c, 2, 46, 79
3, 26880, Note_on_c, 2, 43, 79
3, 27360, Note_off_c, 2, 67, 79
3, 27360, Note_off_c, 2, 62, 79
3, 27360, Note_off_c, 2, 55, 79
3, 27360, Note_off_c, 2, 50, 79
3, 27360, Note_off_c, 2, 46, 79
3, 27360, Note_off_c, 2, 43, 79
3, 27360, Note_on_c, 2, 67, 79
3, 27360, Note_on_c, 2, 62, 79
3, 27360, Note_on_c, 2, 55, 79
3, 27360, Note_on_c, 2, 50, 79
3, 27360, Note_on_c, 2, 46, 79
3, 27360, Note_on_c, 2, 43, 79
3, 27600, Note_off_c, 2, 67, 79
3, 27600, Note_off_c, 2, 62, 79
3, 27600, Note_off_c, 2, 55, 79
3, 27600, Note_off_c, 2, 50, 79
3, 27600, Note_off_c, 2, 46, 79
3, 27600, Note_off_c, 2, 43, 79
3, 27600, Note_on_c, 2, 67, 79
3, 27600, Note_on_c, 2, 62, 79
3, 27600, Note_on_c, 2, 55, 79
3, 27600, Note_on_c, 2, 50, 79
3, 27600, Note_on_c, 2, 46, 79
3, 27600, Note_on_c, 2, 43, 79
3, 27840, Note_off_c, 2, 67, 79
3, 27840, Note_off_c, 2, 62, 79
3, 27840, Note_off_c, 2, 55, 79
3, 27840, Note_off_c, 2, 50, 79
3, 27840, Note_off_c, 2, 46, 79
3, 27840, Note_off_c, 2, 43, 79
3, 27840, Note_on_c, 2, 67, 79
3, 27840, Note_on_c, 2, 62, 79
3, 27840, Note_on_c, 2, 55, 79
3, 27840, Note_on_c, 2, 50, 79
3, 27840, Note_on_c, 2, 46, 79
3, 27840, Note_on_c, 2, 43, 79
3, 28320, Note_off_c, 2, 67, 79
3, 28320, Note_off_c, 2, 62, 79
3, 28320, Note_off_c, 2, 55, 79
3, 28320, Note_off_c, 2, 50, 79
3, 28320, Note_off_c, 2, 46, 79
3, 28320, Note_off_c, 2, 43, 79
3, 28320, Note_on_c, 2, 67, 79
3, 28320, Note_on_c, 2, 62, 79
3, 28320, Note_on_c, 2, 55, 79
3, 28320, Note_on_c, 2, 50, 79
3, 28320, Note_on_c, 2, 46, 79
3, 28320, Note_on_c, 2, 43, 79
3, 28560, Note_off_c, 2, 67, 79
3, 28560, Note_off_c, 2, 62, 79
3, 28560, Note_off_c, 2, 55, 79
3, 28560, Note_off_c, 2, 50, 79
3, 28560, Note_off_c, 2, 46, 79
3, 28560, Note_off_c, 2, 43, 79
3, 28560, Note_on_c, 2, 67, 79
3, 28560, Note_on_c, 2, 62, 79
3, 28560, Note_on_c, 2, 55, 79
3, 28560, Note_on_c, 2, 50, 79
3, 28560, Note_on_c, 2, 46, 79
3, 28560, Note_on_c, 2, 43, 79
3, 28800, Note_off_c, 2, 67, 79
3, 28800, Note_off_c, 2, 62, 79
3, 28800, Note_off_c, 2, 55, 79
3, 28800, Note_off_c, 2, 50, 79
3, 28800, Note_off_c, 2, 46, 79
3, 28800, Note_off_c, 2, 43, 79
3, 28800, Note_on_c, 2, 67, 79
3, 28800, Note_on_c, 2, 62, 79
3, 28800, Note_on_c, 2, 55, 79
3, 28800, Note_on_c, 2, 50, 79
3, 28800, Note_on_c, 2, 46, 79
3, 28800, Note_on_c, 2, 43, 79
3, 29040, Note_off_c, 2, 67, 79
3, 29040, Note_off_c, 2, 62, 79
3, 29040, Note_off_c, 2, 55, 79
3, 29040, Note_off_c, 2, 50, 79
3, 29040, Note_off_c, 2, 46, 79
3, 29040, Note_off_c, 2, 43, 79
3, 29040, Note_on_c, 2, 67, 79
3, 29040, Note_on_c, 2, 62, 79
3, 29040, Note_on_c, 2, 55, 79
3, 29040, Note_on_c, 2, 50, 79
3, 29040, Note_on_c, 2, 46, 79
3, 29040, Note_on_c, 2, 43, 79
3, 29280, Note_off_c, 2, 67, 79
3, 29280, Note_off_c, 2, 62, 79
3, 29280, Note_off_c, 2, 55, 79
3, 29280, Note_off_c, 2, 50, 79
3, 29280, Note_off_c, 2, 46, 79
3, 29280, Note_off_c, 2, 43, 79
3, 29280, Note_on_c, 2, 67, 79
3, 29280, Note_on_c, 2, 62, 79
3, 29280, Note_on_c, 2, 55, 79
3, 29280, Note_on_c, 2, 50, 79
3, 29280, Note_on_c, 2, 46, 79
3, 29280, Note_on_c, 2, 43, 79
3, 29520, Note_off_c, 2, 67, 79
3, 29520, Note_off_c, 2, 62, 79
3, 29520, Note_off_c, 2, 55, 79
3, 29520, Note_off_c, 2, 50, 79
3, 29520, Note_off_c, 2, 46, 79
3, 29520, Note_off_c, 2, 43, 79
3, 29520, Note_on_c, 2, 67, 79
3, 29520, Note_on_c, 2, 62, 79
3, 29520, Note_on_c, 2, 55, 79
3, 29520, Note_on_c, 2, 50, 79
3, 29520, Note_on_c, 2, 46, 79
3, 29520, Note_on_c, 2, 43, 79
3, 29760, Note_off_c, 2, 67, 79
3, 29760, Note_off_c, 2, 62, 79
3, 29760, Note_off_c, 2, 55, 79
3, 29760, Note_off_c, 2, 50, 79
3, 29760, Note_off_c, 2, 46, 79
3, 29760, Note_off_c, 2, 43, 79
3, 29760, Note_on_c, 2, 67, 79
3, 29760, Note_on_c, 2, 62, 79
3, 29760, Note_on_c, 2, 55, 79
3, 29760, Note_on_c, 2, 50, 79
3, 29760, Note_on_c, 2, 46, 79
3, 29760, Note_on_c, 2, 43, 79
3, 30000, Note_off_c, 2, 67, 79
3, 30000, Note_off_c, 2, 62, 79
3, 30000, Note_off_c, 2, 55, 79
3, 30000, Note_off_c, 2, 50, 79
3, 30000, Note_off_c, 2, 46, 79
3, 30000, Note_off_c, 2, 43, 79
3, 30000, Note_on_c, 2, 67, 79
3, 30000, Note_on_c, 2, 62, 79
3, 30000, Note_on_c, 2, 55, 79
3, 30000, Note_on_c, 2, 50, 79
3, 30000, Note_on_c, 2, 46, 79
3, 30000, Note_on_c, 2, 43, 79
3, 30240, Note_off_c, 2, 67, 79
3, 30240, Note_off_c, 2, 62, 79
3, 30240, Note_off_c, 2, 55, 79
3, 30240, Note_off_c, 2, 50, 79
3, 30240, Note_off_c, 2, 46, 79
3, 30240, Note_off_c, 2, 43, 79
3, 30240, Note_on_c, 2, 67, 79
3, 30240, Note_on_c, 2, 62, 79
3, 30240, Note_on_c, 2, 55, 79
3, 30240, Note_on_c, 2, 50, 79
3, 30240, Note_on_c, 2, 46, 79
3, 30240, Note_on_c, 2, 43, 79
3, 30480, Note_off_c, 2, 67, 79
3, 30480, Note_off_c, 2, 62, 79
3, 30480, Note_off_c, 2, 55, 79
3, 30480, Note_off_c, 2, 50, 79
3, 30480, Note_off_c, 2, 46, 79
3, 30480, Note_off_c, 2, 43, 79
3, 30480, Note_on_c, 2, 67, 79
3, 30480, Note_on_c, 2, 62, 79
3, 30480, Note_on_c, 2, 55, 79
3, 30480, Note_on_c, 2, 50, 79
3, 30480, Note_on_c, 2, 46, 79
3, 30480, Note_on_c, 2, 43, 79
3, 30720, Note_off_c, 2, 67, 79
3, 30720, Note_off_c, 2, 62, 79
3, 30720, Note_off_c, 2, 55, 79
3, 30720, Note_off_c, 2, 50, 79
3, 30720, Note_off_c, 2, 46, 79
3, 30720, Note_off_c, 2, 43, 79
3, 30720, Note_on_c, 2, 67, 79
3, 30720, Note_on_c, 2, 62, 79
3, 30720, Note_on_c, 2, 55, 79
3, 30720, Note_on_c, 2, 50, 79
3, 30720, Note_on_c, 2, 46, 79
3, 30720, Note_on_c, 2, 43, 79
3, 31200, Note_off_c, 2, 67, 79
3, 31200, Note_off_c, 2, 62, 79
3, 31200, Note_off_c, 2, 55, 79
3, 31200, Note_off_c, 2, 50, 79
3, 31200, Note_off_c, 2, 46, 79
3, 31200, Note_off_c, 2, 43, 79
3, 31200, Note_on_c, 2, 67, 79
3, 31200, Note_on_c, 2, 62, 79
3, 31200, Note_on_c, 2, 55, 79
3, 31200, Note_on_c, 2, 50, 79
3, 31200, Note_on_c, 2, 46, 79
3, 31200, Note_on_c, 2, 43, 79
3, 31440, Note_off_c, 2, 67, 79
3, 31440, Note_off_c, 2, 62, 79
3, 31440, Note_off_c, 2, 55, 79
3, 31440, Note_off_c, 2, 50, 79
3, 31440, Note_off_c, 2, 46, 79
3, 31440, Note_off_c, 2, 43, 79
3, 31440, Note_on_c, 2, 67, 79
3, 31440, Note_on_c, 2, 62, 79
3, 31440, Note_on_c, 2, 55, 79
3, 31440, Note_on_c, 2, 50, 79
3, 31440, Note_on_c, 2, 46, 79
3, 31440, Note_on_c, 2, 43, 79
3, 31680, Note_off_c, 2, 67, 79
3, 31680, Note_off_c, 2, 62, 79
3, 31680, Note_off_c, 2, 55, 79
3, 31680, Note_off_c, 2, 50, 79
3, 31680, Note_off_c, 2, 46, 79
3, 31680, Note_off_c, 2, 43, 79
3, 31680, Note_on_c, 2, 67, 79
3, 31680, Note_on_c, 2, 62, 79
3, 31680, Note_on_c, 2, 55, 79
3, 31680, Note_on_c, 2, 50, 79
3, 31680, Note_on_c, 2, 46, 79
3, 31680, Note_on_c, 2, 43, 79
3, 32160, Note_off_c, 2, 67, 79
3, 32160, Note_off_c, 2, 62, 79
3, 32160, Note_off_c, 2, 55, 79
3, 32160, Note_off_c, 2, 50, 79
3, 32160, Note_off_c, 2, 46, 79
3, 32160, Note_off_c, 2, 43, 79
3, 32160, Note_on_c, 2, 67, 79
3, 32160, Note_on_c, 2, 62, 79
3, 32160, Note_on_c, 2, 55, 79
3, 32160, Note_on_c, 2, 50, 79
3, 32160, Note_on_c, 2, 46, 79
3, 32160, Note_on_c, 2, 43, 79
3, 32400, Note_off_c, 2, 67, 79
3, 32400, Note_off_c, 2, 62, 79
3, 32400, Note_off_c, 2, 55, 79
3, 32400, Note_off_c, 2, 50, 79
3, 32400, Note_off_c, 2, 46, 79
3, 32400, Note_off_c, 2, 43, 79
3, 32400, Note_on_c, 2, 67, 79
3, 32400, Note_on_c, 2, 62, 79
3, 32400, Note_on_c, 2, 55, 79
3, 32400, Note_on_c, 2, 50, 79
3, 32400, Note_on_c, 2, 46, 79
3, 32400, Note_on_c, 2, 43, 79
3, 32640, Note_off_c, 2, 67, 79
3, 32640, Note_off_c, 2, 62, 79
3, 32640, Note_off_c, 2, 55, 79
3, 32640, Note_off_c, 2, 50, 79
3, 32640, Note_off_c, 2, 46, 79
3, 32640, Note_off_c, 2, 43, 79
3, 32640, Note_on_c, 2, 67, 79
3, 32640, Note_on_c, 2, 62, 79
3, 32640, Note_on_c, 2, 55, 79
3, 32640, Note_on_c, 2, 50, 79
3, 32640, Note_on_c, 2, 46, 79
3, 32640, Note_on_c, 2, 43, 79
3, 32880, Note_off_c, 2, 67, 79
3, 32880, Note_off_c, 2, 62, 79
3, 32880, Note_off_c, 2, 55, 79
3, 32880, Note_off_c, 2, 50, 79
3, 32880, Note_off_c, 2, 46, 79
3, 32880, Note_off_c, 2, 43, 79
3, 32880, Note_on_c, 2, 67, 79
3, 32880, Note_on_c, 2, 62, 79
3, 32880, Note_on_c, 2, 55, 79
3, 32880, Note_on_c, 2, 50, 79
3, 32880, Note_on_c, 2, 46, 79
3, 32880, Note_on_c, 2, 43, 79
3, 33120, Note_off_c, 2, 67, 79
3, 33120, Note_off_c, 2, 62, 79
3, 33120, Note_off_c, 2, 55, 79
3, 33120, Note_off_c, 2, 50, 79
3, 33120, Note_off_c, 2, 46, 79
3, 33120, Note_off_c, 2, 43, 79
3, 33120, Note_on_c, 2, 67, 79
3, 33120, Note_on_c, 2, 62, 79
3, 33120, Note_on_c, 2, 55, 79
3, 33120, Note_on_c, 2, 50, 79
3, 33120, Note_on_c, 2, 46, 79
3, 33120, Note_on_c, 2, 43, 79
3, 33360, Note_off_c, 2, 67, 79
3, 33360, Note_off_c, 2, 62, 79
3, 33360, Note_off_c, 2, 55, 79
3, 33360, Note_off_c, 2, 50, 79
3, 33360, Note_off_c, 2, 46, 79
3, 33360, Note_off_c, 2, 43, 79
3, 33360, Note_on_c, 2, 67, 79
3, 33360, Note_on_c, 2, 62, 79
3, 33360, Note_on_c, 2, 55, 79
3, 33360, Note_on_c, 2, 50, 79
3, 33360, Note_on_c, 2, 46, 79
3, 33360, Note_on_c, 2, 43, 79
3, 33600, Note_off_c, 2, 67, 79
3, 33600, Note_off_c, 2, 62, 79
3, 33600, Note_off_c, 2, 55, 79
3, 33600, Note_off_c, 2, 50, 79
3, 33600, Note_off_c, 2, 46, 79
3, 33600, Note_off_c, 2, 43, 79
3, 33600, Note_on_c, 2, 67, 79
3, 33600, Note_on_c, 2, 62, 79
3, 33600, Note_on_c, 2, 55, 79
3, 33600, Note_on_c, 2, 50, 79
3, 33600, Note_on_c, 2, 46, 79
3, 33600, Note_on_c, 2, 43, 79
3, 33840, Note_off_c, 2, 67, 79
3, 33840, Note_off_c, 2, 62, 79
3, 33840, Note_off_c, 2, 55, 79
3, 33840, Note_off_c, 2, 50, 79
3, 33840, Note_off_c, 2, 46, 79
3, 33840, Note_off_c, 2, 43, 79
3, 33840, Note_on_c, 2, 67, 79
3, 33840, Note_on_c, 2, 62, 79
3, 33840, Note_on_c, 2, 55, 79
3, 33840, Note_on_c, 2, 50, 79
3, 33840, Note_on_c, 2, 46, 79
3, 33840, Note_on_c, 2, 43, 79
3, 34080, Note_off_c, 2, 67, 79
3, 34080, Note_off_c, 2, 62, 79
3, 34080, Note_off_c, 2, 55, 79
3, 34080, Note_off_c, 2, 50, 79
3, 34080, Note_off_c, 2, 46, 79
3, 34080, Note_off_c, 2, 43, 79
3, 34080, Note_on_c, 2, 67, 79
3, 34080, Note_on_c, 2, 62, 79
3, 34080, Note_on_c, 2, 55, 79
3, 34080, Note_on_c, 2, 50, 79
3, 34080, Note_on_c, 2, 46, 79
3, 34080, Note_on_c, 2, 43, 79
3, 34320, Note_off_c, 2, 67, 79
3, 34320, Note_off_c, 2, 62, 79
3, 34320, Note_off_c, 2, 55, 79
3, 34320, Note_off_c, 2, 50, 79
3, 34320, Note_off_c, 2, 46, 79
3, 34320, Note_off_c, 2, 43, 79
3, 34320, Note_on_c, 2, 67, 79
3, 34320, Note_on_c, 2, 62, 79
3, 34320, Note_on_c, 2, 55, 79
3, 34320, Note_on_c, 2, 50, 79
3, 34320, Note_on_c, 2, 46, 79
3, 34320, Note_on_c, 2, 43, 79
3, 34560, Note_off_c, 2, 67, 79
3, 34560, Note_off_c, 2, 62, 79
3, 34560, Note_off_c, 2, 55, 79
3, 34560, Note_off_c, 2, 50, 79
3, 34560, Note_off_c, 2, 46, 79
3, 34560, Note_off_c, 2, 43, 79
3, 34560, Note_on_c, 2, 65, 79
3, 34560, Note_on_c, 2, 62, 79
3, 34560, Note_on_c, 2, 58, 79
3, 34560, Note_on_c, 2, 50, 79
3, 34560, Note_on_c, 2, 46, 79
3, 35040, Note_off_c, 2, 65, 79
3, 35040, Note_off_c, 2, 62, 79
3, 35040, Note_off_c, 2, 58, 79
3, 35040, Note_off_c, 2, 50, 79
3, 35040, Note_off_c, 2, 46, 79
3, 35040, Note_on_c, 2, 65, 79
3, 35040, Note_on_c, 2, 62, 79
3, 35040, Note_on_c, 2, 58, 79
3, 35040, Note_on_c, 2, 50, 79
3, 35040, Note_on_c, 2, 46, 79
3, 35280, Note_off_c, 2, 65, 79
3, 35280, Note_off_c, 2, 62, 79
3, 35280, Note_off_c, 2, 58, 79
3, 35280, Note_off_c, 2, 50, 79
3, 35280, Note_off_c, 2, 46, 79
3, 35280, Note_on_c, 2, 65, 79
3, 35280, Note_on_c, 2, 62, 79
3, 35280, Note_on_c, 2, 58, 79
3, 35280, Note_on_c, 2, 50, 79
3, 35280, Note_on_c, 2, 46, 79
3, 35520, Note_off_c, 2, 65, 79
3, 35520, Note_off_c, 2, 62, 79
3, 35520, Note_off_c, 2, 58, 79
3, 35520, Note_off_c, 2, 50, 79
3, 35520, Note_off_c, 2, 46, 79
3, 35520, Note_on_c, 2, 65, 79
3, 35520, Note_on_c, 2, 62, 79
3, 35520, Note_on_c, 2, 58, 79
3, 35520, Note_on_c, 2, 50, 79
3, 35520, Note_on_c, 2, 46, 79
3, 36000, Note_off_c, 2, 65, 79
3, 36000, Note_off_c, 2, 62, 79
3, 36000, Note_off_c, 2, 58, 79
3, 36000, Note_off_c, 2, 50, 79
3, 36000, Note_off_c, 2, 46, 79
3, 36000, Note_on_c, 2, 65, 79
3, 36000, Note_on_c, 2, 62, 79
3, 36000, Note_on_c, 2, 58, 79
3, 36000, Note_on_c, 2, 50, 79
3, 36000, Note_on_c, 2, 46, 79
3, 36240, Note_off_c, 2, 65, 79
3, 36240, Note_off_c, 2, 62, 79
3, 36240, Note_off_c, 2, 58, 79
3, 36240, Note_off_c, 2, 50, 79
3, 36240, Note_off_c, 2, 46, 79
3, 36240, Note_on_c, 2, 65, 79
3, 36240, Note_on_c, 2, 62, 79
3, 36240, Note_on_c, 2, 58, 79
3, 36240, Note_on_c, 2, 50, 79
3, 36240, Note_on_c, 2, 46, 79
3, 36480, Note_off_c, 2, 65, 79
3, 36480, Note_off_c, 2, 62, 79
3, 36480, Note_off_c, 2, 58, 79
3, 36480, Note_off_c, 2, 50, 79
3, 36480, Note_off_c, 2, 46, 79
3, 36480, Note_on_c, 2, 65, 79
3, 36480, Note_on_c, 2, 62, 79
3, 36480, Note_on_c, 2, 58, 79
3, 36480, Note_on_c, 2, 50, 79
3, 36480, Note_on_c, 2, 46, 79
3, 36720, Note_off_c, 2, 65, 79
3, 36720, Note_off_c, 2, 62, 79
3, 36720, Note_off_c, 2, 58, 79
3, 36720, Note_off_c, 2, 50, 79
3, 36720, Note_off_c, 2, 46, 79
3, 36720, Note_on_c, 2, 65, 79
3, 36720, Note_on_c, 2, 62, 79
3, 36720, Note_on_c, 2, 58, 79
3, 36720, Note_on_c, 2, 50, 79
3, 36720, Note_on_c, 2, 46, 79
3, 36960, Note_off_c, 2, 65, 79
3, 36960, Note_off_c, 2, 62, 79
3, 36960, Note_off_c, 2, 58, 79
3, 36960, Note_off_c, 2, 50, 79
3, 36960, Note_off_c, 2, 46, 79
3, 36960, Note_on_c, 2, 65, 79
3, 36960, Note_on_c, 2, 62, 79
3, 36960, Note_on_c, 2, 58, 79
3, 36960, Note_on_c, 2, 50, 79
3, 36960, Note_on_c, 2, 46, 79
3, 37200, Note_off_c, 2, 65, 79
3, 37200, Note_off_c, 2, 62, 79
3, 37200, Note_off_c, 2, 58, 79
3, 37200, Note_off_c, 2, 50, 79
3, 37200, Note_off_c, 2, 46, 79
3, 37200, Note_on_c, 2, 65, 79
3, 37200, Note_on_c, 2, 62, 79
3, 37200, Note_on_c, 2, 58, 79
3, 37200, Note_on_c, 2, 50, 79
3, 37200, Note_on_c, 2, 46, 79
3, 37440, Note_off_c, 2, 65, 79
3, 37440, Note_off_c, 2, 62, 79
3, 37440, Note_off_c, 2, 58, 79
3, 37440, Note_off_c, 2, 50, 79
3, 37440, Note_off_c, 2, 46, 79
3, 37440, Note_on_c, 2, 65, 79
3, 37440, Note_on_c, 2, 62, 79
3, 37440, Note_on_c, 2, 58, 79
3, 37440, Note_on_c, 2, 50, 79
3, 37440, Note_on_c, 2, 46, 79
3, 37680, Note_off_c, 2, 65, 79
3, 37680, Note_off_c, 2, 62, 79
3, 37680, Note_off_c, 2, 58, 79
3, 37680, Note_off_c, 2, 50, 79
3, 37680, Note_off_c, 2, 46, 79
3, 37680, Note_on_c, 2, 65, 79
3, 37680, Note_on_c, 2, 62, 79
3, 37680, Note_on_c, 2, 58, 79
3, 37680, Note_on_c, 2, 50, 79
3, 37680, Note_on_c, 2, 46, 79
3, 37920, Note_off_c, 2, 65, 79
3, 37920, Note_off_c, 2, 62, 79
3, 37920, Note_off_c, 2, 58, 79
3, 37920, Note_off_c, 2, 50, 79
3, 37920, Note_off_c, 2, 46, 79
3, 38400, Note_on_c, 2, 67, 79
3, 38400, Note_on_c, 2, 62, 79
3, 38400, Note_on_c, 2, 55, 79
3, 38400, Note_on_c, 2, 50, 79
3, 38400, Note_on_c, 2, 46, 79
3, 38400, Note_on_c, 2, 43, 79
3, 38880, Note_off_c, 2, 67, 79
3, 38880, Note_off_c, 2, 62, 79
3, 38880, Note_off_c, 2, 55, 79
3, 38880, Note_off_c, 2, 50, 79
3, 38880, Note_off_c, 2, 46, 79
3, 38880, Note_off_c, 2, 43, 79
3, 38880, Note_on_c, 2, 67, 79
3, 38880, Note_on_c, 2, 62, 79
3, 38880, Note_on_c, 2, 55, 79
3, 38880, Note_on_c, 2, 50, 79
3, 38880, Note_on_c, 2, 46, 79
3, 38880, Note_on_c, 2, 43, 79
3, 39120, Note_off_c, 2, 67, 79
3, 39120, Note_off_c, 2, 62, 79
3, 39120, Note_off_c, 2, 55, 79
3, 39120, Note_off_c, 2, 50, 79
3, 39120, Note_off_c, 2, 46, 79
3, 39120, Note_off_c, 2, 43, 79
3, 39120, Note_on_c, 2, 67, 79
3, 39120, Note_on_c, 2, 62, 79
3, 39120, Note_on_c, 2, 55, 79
3, 39120, Note_on_c, 2, 50, 79
3, 39120, Note_on_c, 2, 46, 79
3, 39120, Note_on_c, 2, 43, 79
3, 39360, Note_off_c, 2, 67, 79
3, 39360, Note_off_c, 2, 62, 79
3, 39360, Note_off_c, 2, 55, 79
3, 39360, Note_off_c, 2, 50, 79
3, 39360, Note_off_c, 2, 46, 79
3, 39360, Note_off_c, 2, 43, 79
3, 39360, Note_on_c, 2, 67, 79
3, 39360, Note_on_c, 2, 62, 79
3, 39360, Note_on_c, 2, 55, 79
3, 39360, Note_on_c, 2, 50, 79
3, 39360, Note_on_c, 2, 46, 79
3, 39360, Note_on_c, 2, 43, 79
3, 39840, Note_off_c, 2, 67, 79
3, 39840, Note_off_c, 2, 62, 79
3, 39840, Note_off_c, 2, 55, 79
3, 39840, Note_off_c, 2, 50, 79
3, 39840, Note_off_c, 2, 46, 79
3, 39840, Note_off_c, 2, 43, 79
3, 39840, Note_on_c, 2, 67, 79
3, 39840, Note_on_c, 2, 62, 79
3, 39840, Note_on_c, 2, 55, 79
3, 39840, Note_on_c, 2, 50, 79
3, 39840, Note_on_c, 2, 46, 79
3, 39840, Note_on_c, 2, 43, 79
3, 40080, Note_off_c, 2, 67, 79
3, 40080, Note_off_c, 2, 62, 79
3, 40080, Note_off_c, 2, 55, 79
3, 40080, Note_off_c, 2, 50, 79
3, 40080, Note_off_c, 2, 46, 79
3, 40080, Note_off_c, 2, 43, 79
3, 40080, Note_on_c, 2, 67, 79
3, 40080, Note_on_c, 2, 62, 79
3, 40080, Note_on_c, 2, 55, 79
3, 40080, Note_on_c, 2, 50, 79
3, 40080, Note_on_c, 2, 46, 79
3, 40080, Note_on_c, 2, 43, 79
3, 40320, Note_off_c, 2, 67, 79
3, 40320, Note_off_c, 2, 62, 79
3, 40320, Note_off_c, 2, 55, 79
3, 40320, Note_off_c, 2, 50, 79
3, 40320, Note_off_c, 2, 46, 79
3, 40320, Note_off_c, 2, 43, 79
3, 40320, Note_on_c, 2, 67, 79
3, 40320, Note_on_c, 2, 62, 79
3, 40320, Note_on_c, 2, 55, 79
3, 40320, Note_on_c, 2, 50, 79
3, 40320, Note_on_c, 2, 46, 79
3, 40320, Note_on_c, 2, 43, 79
3, 40560, Note_off_c, 2, 67, 79
3, 40560, Note_off_c, 2, 62, 79
3, 40560, Note_off_c, 2, 55, 79
3, 40560, Note_off_c, 2, 50, 79
3, 40560, Note_off_c, 2, 46, 79
3, 40560, Note_off_c, 2, 43, 79
3, 40560, Note_on_c, 2, 67, 79
3, 40560, Note_on_c, 2, 62, 79
3, 40560, Note_on_c, 2, 55, 79
3, 40560, Note_on_c, 2, 50, 79
3, 40560, Note_on_c, 2, 46, 79
3, 40560, Note_on_c, 2, 43, 79
3, 40800, Note_off_c, 2, 67, 79
3, 40800, Note_off_c, 2, 62, 79
3, 40800, Note_off_c, 2, 55, 79
3, 40800, Note_off_c, 2, 50, 79
3, 40800, Note_off_c, 2, 46, 79
3, 40800, Note_off_c, 2, 43, 79
3, 40800, Note_on_c, 2, 67, 79
3, 40800, Note_on_c, 2, 62, 79
3, 40800, Note_on_c, 2, 55, 79
3, 40800, Note_on_c, 2, 50, 79
3, 40800, Note_on_c, 2, 46, 79
3, 40800, Note_on_c, 2, 43, 79
3, 41040, Note_off_c, 2, 67, 79
3, 41040, Note_off_c, 2, 62, 79
3, 41040, Note_off_c, 2, 55, 79
3, 41040, Note_off_c, 2, 50, 79
3, 41040, Note_off_c, 2, 46, 79
3, 41040, Note_off_c, 2, 43, 79
3, 41040, Note_on_c, 2, 67, 79
3, 41040, Note_on_c, 2, 62, 79
3, 41040, Note_on_c, 2, 55, 79
3, 41040, Note_on_c, 2, 50, 79
3, 41040, Note_on_c, 2, 46, 79
3, 41040, Note_on_c, 2, 43, 79
3, 41280, Note_off_c, 2, 67, 79
3, 41280, Note_off_c, 2, 62, 79
3, 41280, Note_off_c, 2, 55, 79
3, 41280, Note_off_c, 2, 50, 79
3, 41280, Note_off_c, 2, 46, 79
3, 41280, Note_off_c, 2, 43, 79
3, 41280, Note_on_c, 2, 67, 79
3, 41280, Note_on_c, 2, 62, 79
3, 41280, Note_on_c, 2, 55, 79
3, 41280, Note_on_c, 2, 50, 79
3, 41280, Note_on_c, 2, 46, 79
3, 41280, Note_on_c, 2, 43, 79
3, 41520, Note_off_c, 2, 67, 79
3, 41520, Note_off_c, 2, 62, 79
3, 41520, Note_off_c, 2, 55, 79
3, 41520, Note_off_c, 2, 50, 79
3, 41520, Note_off_c, 2, 46, 79
3, 41520, Note_off_c, 2, 43, 79
3, 41520, Note_on_c, 2, 67, 79
3, 41520, Note_on_c, 2, 62, 79
3, 41520, Note_on_c, 2, 55, 79
3, 41520, Note_on_c, 2, 50, 79
3, 41520, Note_on_c, 2, 46, 79
3, 41520, Note_on_c, 2, 43, 79
3, 41760, Note_off_c, 2, 67, 79
3, 41760, Note_off_c, 2, 62, 79
3, 41760, Note_off_c, 2, 55, 79
3, 41760, Note_off_c, 2, 50, 79
3, 41760, Note_off_c, 2, 46, 79
3, 41760, Note_off_c, 2, 43, 79
3, 41760, Note_on_c, 2, 67, 79
3, 41760, Note_on_c, 2, 62, 79
3, 41760, Note_on_c, 2, 55, 79
3, 41760, Note_on_c, 2, 50, 79
3, 41760, Note_on_c, 2, 46, 79
3, 41760, Note_on_c, 2, 43, 79
3, 42000, Note_off_c, 2, 67, 79
3, 42000, Note_off_c, 2, 62, 79
3, 42000, Note_off_c, 2, 55, 79
3, 42000, Note_off_c, 2, 50, 79
3, 42000, Note_off_c, 2, 46, 79
3, 42000, Note_off_c, 2, 43, 79
3, 42000, Note_on_c, 2, 67, 79
3, 42000, Note_on_c, 2, 62, 79
3, 42000, Note_on_c, 2, 55, 79
3, 42000, Note_on_c, 2, 50, 79
3, 42000, Note_on_c, 2, 46, 79
3, 42000, Note_on_c, 2, 43, 79
3, 42240, Note_off_c, 2, 67, 79
3, 42240, Note_off_c, 2, 62, 79
3, 42240, Note_off_c, 2, 55, 79
3, 42240, Note_off_c, 2, 50, 79
3, 42240, Note_off_c, 2, 46, 79
3, 42240, Note_off_c, 2, 43, 79
3, 42240, Note_on_c, 2, 67, 79
3, 42240, Note_on_c, 2, 62, 79
3, 42240, Note_on_c, 2, 55, 79
3, 42240, Note_on_c, 2, 50, 79
3, 42240, Note_on_c, 2, 46, 79
3, 42240, Note_on_c, 2, 43, 79
3, 42720, Note_off_c, 2, 67, 79
3, 42720, Note_off_c, 2, 62, 79
3, 42720, Note_off_c, 2, 55, 79
3, 42720, Note_off_c, 2, 50, 79
3, 42720, Note_off_c, 2, 46, 79
3, 42720, Note_off_c, 2, 43, 79
3, 42720, Note_on_c, 2, 67, 79
3, 42720, Note_on_c, 2, 62, 79
3, 42720, Note_on_c, 2, 55, 79
3, 42720, Note_on_c, 2, 50, 79
3, 42720, Note_on_c, 2, 46, 79
3, 42720, Note_on_c, 2, 43, 79
3, 42960, Note_off_c, 2, 67, 79
3, 42960, Note_off_c, 2, 62, 79
3, 42960, Note_off_c, 2, 55, 79
3, 42960, Note_off_c, 2, 50, 79
3, 42960, Note_off_c, 2, 46, 79
3, 42960, Note_off_c, 2, 43, 79
3, 42960, Note_on_c, 2, 67, 79
3, 42960, Note_on_c, 2, 62, 79
3, 42960, Note_on_c, 2, 55, 79
3, 42960, Note_on_c, 2, 50, 79
3, 42960, Note_on_c, 2, 46, 79
3, 42960, Note_on_c, 2, 43, 79
3, 43200, Note_off_c, 2, 67, 79
3, 43200, Note_off_c, 2, 62, 79
3, 43200, Note_off_c, 2, 55, 79
3, 43200, Note_off_c, 2, 50, 79
3, 43200, Note_off_c, 2, 46, 79
3, 43200, Note_off_c, 2, 43, 79
3, 43200, Note_on_c, 2, 67, 79
3, 43200, Note_on_c, 2, 62, 79
3, 43200, Note_on_c, 2, 55, 79
3, 43200, Note_on_c, 2, 50, 79
3, 43200, Note_on_c, 2, 46, 79
3, 43200, Note_on_c, 2, 43, 79
3, 43680, Note_off_c, 2, 67, 79
3, 43680, Note_off_c, 2, 62, 79
3, 43680, Note_off_c, 2, 55, 79
3, 43680, Note_off_c, 2, 50, 79
3, 43680, Note_off_c, 2, 46, 79
3, 43680, Note_off_c, 2, 43, 79
3, 43680, Note_on_c, 2, 67, 79
3, 43680, Note_on_c, 2, 62, 79
3, 43680, Note_on_c, 2, 55, 79
3, 43680, Note_on_c, 2, 50, 79
3, 43680, Note_on_c, 2, 46, 79
3, 43680, Note_on_c, 2, 43, 79
3, 43920, Note_off_c, 2, 67, 79
3, 43920, Note_off_c, 2, 62, 79
3, 43920, Note_off_c, 2, 55, 79
3, 43920, Note_off_c, 2, 50, 79
3, 43920, Note_off_c, 2, 46, 79
3, 43920, Note_off_c, 2, 43, 79
3, 43920, Note_on_c, 2, 67, 79
3, 43920, Note_on_c, 2, 62, 79
3, 43920, Note_on_c, 2, 55, 79
3, 43920, Note_on_c, 2, 50, 79
3, 43920, Note_on_c, 2, 46, 79
3, 43920, Note_on_c, 2, 43, 79
3, 44160, Note_off_c, 2, 67, 79
3, 44160, Note_off_c, 2, 62, 79
3, 44160, Note_off_c, 2, 55, 79
3, 44160, Note_off_c, 2, 50, 79
3, 44160, Note_off_c, 2, 46, 79
3, 44160, Note_off_c, 2, 43, 79
3, 44160, Note_on_c, 2, 67, 79
3, 44160, Note_on_c, 2, 62, 79
3, 44160, Note_on_c, 2, 55, 79
3, 44160, Note_on_c, 2, 50, 79
3, 44160, Note_on_c, 2, 46, 79
3, 44160, Note_on_c, 2, 43, 79
3, 44400, Note_off_c, 2, 67, 79
3, 44400, Note_off_c, 2, 62, 79
3, 44400, Note_off_c, 2, 55, 79
3, 44400, Note_off_c, 2, 50, 79
3, 44400, Note_off_c, 2, 46, 79
3, 44400, Note_off_c, 2, 43, 79
3, 44400, Note_on_c, 2, 67, 79
3, 44400, Note_on_c, 2, 62, 79
3, 44400, Note_on_c, 2, 55, 79
3, 44400, Note_on_c, 2, 50, 79
3, 44400, Note_on_c, 2, 46, 79
3, 44400, Note_on_c, 2, 43, 79
3, 44640, Note_off_c, 2, 67, 79
3, 44640, Note_off_c, 2, 62, 79
3, 44640, Note_off_c, 2, 55, 79
3, 44640, Note_off_c, 2, 50, 79
3, 44640, Note_off_c, 2, 46, 79
3, 44640, Note_off_c, 2, 43, 79
3, 44640, Note_on_c, 2, 67, 79
3, 44640, Note_on_c, 2, 62, 79
3, 44640, Note_on_c, 2, 55, 79
3, 44640, Note_on_c, 2, 50, 79
3, 44640, Note_on_c, 2, 46, 79
3, 44640, Note_on_c, 2, 43, 79
3, 44880, Note_off_c, 2, 67, 79
3, 44880, Note_off_c, 2, 62, 79
3, 44880, Note_off_c, 2, 55, 79
3, 44880, Note_off_c, 2, 50, 79
3, 44880, Note_off_c, 2, 46, 79
3, 44880, Note_off_c, 2, 43, 79
3, 44880, Note_on_c, 2, 67, 79
3, 44880, Note_on_c, 2, 62, 79
3, 44880, Note_on_c, 2, 55, 79
3, 44880, Note_on_c, 2, 50, 79
3, 44880, Note_on_c, 2, 46, 79
3, 44880, Note_on_c, 2, 43, 79
3, 45120, Note_off_c, 2, 67, 79
3, 45120, Note_off_c, 2, 62, 79
3, 45120, Note_off_c, 2, 55, 79
3, 45120, Note_off_c, 2, 50, 79
3, 45120, Note_off_c, 2, 46, 79
3, 45120, Note_off_c, 2, 43, 79
3, 45120, Note_on_c, 2, 67, 79
3, 45120, Note_on_c, 2, 62, 79
3, 45120, Note_on_c, 2, 55, 79
3, 45120, Note_on_c, 2, 50, 79
3, 45120, Note_on_c, 2, 46, 79
3, 45120, Note_on_c, 2, 43, 79
3, 45360, Note_off_c, 2, 67, 79
3, 45360, Note_off_c, 2, 62, 79
3, 45360, Note_off_c, 2, 55, 79
3, 45360, Note_off_c, 2, 50, 79
3, 45360, Note_off_c, 2, 46, 79
3, 45360, Note_off_c, 2, 43, 79
3, 45360, Note_on_c, 2, 67, 79
3, 45360, Note_on_c, 2, 62, 79
3, 45360, Note_on_c, 2, 55, 79
3, 45360, Note_on_c, 2, 50, 79
3, 45360, Note_on_c, 2, 46, 79
3, 45360, Note_on_c, 2, 43, 79
3, 45600, Note_off_c, 2, 67, 79
3, 45600, Note_off_c, 2, 62, 79
3, 45600, Note_off_c, 2, 55, 79
3, 45600, Note_off_c, 2, 50, 79
3, 45600, Note_off_c, 2, 46, 79
3, 45600, Note_off_c, 2, 43, 79
3, 45600, Note_on_c, 2, 67, 79
3, 45600, Note_on_c, 2, 62, 79
3, 45600, Note_on_c, 2, 55, 79
3, 45600, Note_on_c, 2, 50, 79
3, 45600, Note_on_c, 2, 46, 79
3, 45600, Note_on_c, 2, 43, 79
3, 45840, Note_off_c, 2, 67, 79
3, 45840, Note_off_c, 2, 62, 79
3, 45840, Note_off_c, 2, 55, 79
3, 45840, Note_off_c, 2, 50, 79
3, 45840, Note_off_c, 2, 46, 79
3, 45840, Note_off_c, 2, 43, 79
3, 45840, Note_on_c, 2, 67, 79
3, 45840, Note_on_c, 2, 62, 79
3, 45840, Note_on_c, 2, 55, 79
3, 45840, Note_on_c, 2, 50, 79
3, 45840, Note_on_c, 2, 46, 79
3, 45840, Note_on_c, 2, 43, 79
3, 46080, Note_off_c, 2, 67, 79
3, 46080, Note_off_c, 2, 62, 79
3, 46080, Note_off_c, 2, 55, 79
3, 46080, Note_off_c, 2, 50, 79
3, 46080, Note_off_c, 2, 46, 79
3, 46080, Note_off_c, 2, 43, 79
3, 46080, Note_on_c, 2, 67, 79
3, 46080, Note_on_c, 2, 62, 79
3, 46080, Note_on_c, 2, 55, 79
3, 46080, Note_on_c, 2, 50, 79
3, 46080, Note_on_c, 2, 46, 79
3, 46080, Note_on_c, 2, 43, 79
3, 46560, Note_off_c, 2, 67, 79
3, 46560, Note_off_c, 2, 62, 79
3, 46560, Note_off_c, 2, 55, 79
3, 46560, Note_off_c, 2, 50, 79
3, 46560, Note_off_c, 2, 46, 79
3, 46560, Note_off_c, 2, 43, 79
3, 46560, Note_on_c, 2, 67, 79
3, 46560, Note_on_c, 2, 62, 79
3, 46560, Note_on_c, 2, 55, 79
3, 46560, Note_on_c, 2, 50, 79
3, 46560, Note_on_c, 2, 46, 79
3, 46560, Note_on_c, 2, 43, 79
3, 46800, Note_off_c, 2, 67, 79
3, 46800, Note_off_c, 2, 62, 79
3, 46800, Note_off_c, 2, 55, 79
3, 46800, Note_off_c, 2, 50, 79
3, 46800, Note_off_c, 2, 46, 79
3, 46800, Note_off_c, 2, 43, 79
3, 46800, Note_on_c, 2, 67, 79
3, 46800, Note_on_c, 2, 62, 79
3, 46800, Note_on_c, 2, 55, 79
3, 46800, Note_on_c, 2, 50, 79
3, 46800, Note_on_c, 2, 46, 79
3, 46800, Note_on_c, 2, 43, 79
3, 47040, Note_off_c, 2, 67, 79
3, 47040, Note_off_c, 2, 62, 79
3, 47040, Note_off_c, 2, 55, 79
3, 47040, Note_off_c, 2, 50, 79
3, 47040, Note_off_c, 2, 46, 79
3, 47040, Note_off_c, 2, 43, 79
3, 47040, Note_on_c, 2, 67, 79
3, 47040, Note_on_c, 2, 62, 79
3, 47040, Note_on_c, 2, 55, 79
3, 47040, Note_on_c, 2, 50, 79
3, 47040, Note_on_c, 2, 46, 79
3, 47040, Note_on_c, 2, 43, 79
3, 47520, Note_off_c, 2, 67, 79
3, 47520, Note_off_c, 2, 62, 79
3, 47520, Note_off_c, 2, 55, 79
3, 47520, Note_off_c, 2, 50, 79
3, 47520, Note_off_c, 2, 46, 79
3, 47520, Note_off_c, 2, 43, 79
3, 47520, Note_on_c, 2, 67, 79
3, 47520, Note_on_c, 2, 62, 79
3, 47520, Note_on_c, 2, 55, 79
3, 47520, Note_on_c, 2, 50, 79
3, 47520, Note_on_c, 2, 46, 79
3, 47520, Note_on_c, 2, 43, 79
3, 47760, Note_off_c, 2, 67, 79
3, 47760, Note_off_c, 2, 62, 79
3, 47760, Note_off_c, 2, 55, 79
3, 47760, Note_off_c, 2, 50, 79
3, 47760, Note_off_c, 2, 46, 79
3, 47760, Note_off_c, 2, 43, 79
3, 47760, Note_on_c, 2, 67, 79
3, 47760, Note_on_c, 2, 62, 79
3, 47760, Note_on_c, 2, 55, 79
3, 47760, Note_on_c, 2, 50, 79
3, 47760, Note_on_c, 2, 46, 79
3, 47760, Note_on_c, 2, 43, 79
3, 48000, Note_off_c, 2, 67, 79
3, 48000, Note_off_c, 2, 62, 79
3, 48000, Note_off_c, 2, 55, 79
3, 48000, Note_off_c, 2, 50, 79
3, 48000, Note_off_c, 2, 46, 79
3, 48000, Note_off_c, 2, 43, 79
3, 48000, Note_on_c, 2, 67, 79
3, 48000, Note_on_c, 2, 62, 79
3, 48000, Note_on_c, 2, 55, 79
3, 48000, Note_on_c, 2, 50, 79
3, 48000, Note_on_c, 2, 46, 79
3, 48000, Note_on_c, 2, 43, 79
3, 48240, Note_off_c, 2, 67, 79
3, 48240, Note_off_c, 2, 62, 79
3, 48240, Note_off_c, 2, 55, 79
3, 48240, Note_off_c, 2, 50, 79
3, 48240, Note_off_c, 2, 46, 79
3, 48240, Note_off_c, 2, 43, 79
3, 48240, Note_on_c, 2, 67, 79
3, 48240, Note_on_c, 2, 62, 79
3, 48240, Note_on_c, 2, 55, 79
3, 48240, Note_on_c, 2, 50, 79
3, 48240, Note_on_c, 2, 46, 79
3, 48240, Note_on_c, 2, 43, 79
3, 48480, Note_off_c, 2, 67, 79
3, 48480, Note_off_c, 2, 62, 79
3, 48480, Note_off_c, 2, 55, 79
3, 48480, Note_off_c, 2, 50, 79
3, 48480, Note_off_c, 2, 46, 79
3, 48480, Note_off_c, 2, 43, 79
3, 48480, Note_on_c, 2, 67, 79
3, 48480, Note_on_c, 2, 62, 79
3, 48480, Note_on_c, 2, 55, 79
3, 48480, Note_on_c, 2, 50, 79
3, 48480, Note_on_c, 2, 46, 79
3, 48480, Note_on_c, 2, 43, 79
3, 48720, Note_off_c, 2, 67, 79
3, 48720, Note_off_c, 2, 62, 79
3, 48720, Note_off_c, 2, 55, 79
3, 48720, Note_off_c, 2, 50, 79
3, 48720, Note_off_c, 2, 46, 79
3, 48720, Note_off_c, 2, 43, 79
3, 48720, Note_on_c, 2, 67, 79
3, 48720, Note_on_c, 2, 62, 79
3, 48720, Note_on_c, 2, 55, 79
3, 48720, Note_on_c, 2, 50, 79
3, 48720, Note_on_c, 2, 46, 79
3, 48720, Note_on_c, 2, 43, 79
3, 48960, Note_off_c, 2, 67, 79
3, 48960, Note_off_c, 2, 62, 79
3, 48960, Note_off_c, 2, 55, 79
3, 48960, Note_off_c, 2, 50, 79
3, 48960, Note_off_c, 2, 46, 79
3, 48960, Note_off_c, 2, 43, 79
3, 48960, Note_on_c, 2, 67, 79
3, 48960, Note_on_c, 2, 62, 79
3, 48960, Note_on_c, 2, 55, 79
3, 48960, Note_on_c, 2, 50, 79
3, 48960, Note_on_c, 2, 46, 79
3, 48960, Note_on_c, 2, 43, 79
3, 49200, Note_off_c, 2, 67, 79
3, 49200, Note_off_c, 2, 62, 79
3, 49200, Note_off_c, 2, 55, 79
3, 49200, Note_off_c, 2, 50, 79
3, 49200, Note_off_c, 2, 46, 79
3, 49200, Note_off_c, 2, 43, 79
3, 49200, Note_on_c, 2, 67, 79
3, 49200, Note_on_c, 2, 62, 79
3, 49200, Note_on_c, 2, 55, 79
3, 49200, Note_on_c, 2, 50, 79
3, 49200, Note_on_c, 2, 46, 79
3, 49200, Note_on_c, 2, 43, 79
3, 49440, Note_off_c, 2, 67, 79
3, 49440, Note_off_c, 2, 62, 79
3, 49440, Note_off_c, 2, 55, 79
3, 49440, Note_off_c, 2, 50, 79
3, 49440, Note_off_c, 2, 46, 79
3, 49440, Note_off_c, 2, 43, 79
3, 49440, Note_on_c, 2, 67, 79
3, 49440, Note_on_c, 2, 62, 79
3, 49440, Note_on_c, 2, 55, 79
3, 49440, Note_on_c, 2, 50, 79
3, 49440, Note_on_c, 2, 46, 79
3, 49440, Note_on_c, 2, 43, 79
3, 49680, Note_off_c, 2, 67, 79
3, 49680, Note_off_c, 2, 62, 79
3, 49680, Note_off_c, 2, 55, 79
3, 49680, Note_off_c, 2, 50, 79
3, 49680, Note_off_c, 2, 46, 79
3, 49680, Note_off_c, 2, 43, 79
3, 49680, Note_on_c, 2, 67, 79
3, 49680, Note_on_c, 2, 62, 79
3, 49680, Note_on_c, 2, 55, 79
3, 49680, Note_on_c, 2, 50, 79
3, 49680, Note_on_c, 2, 46, 79
3, 49680, Note_on_c, 2, 43, 79
3, 49920, Note_off_c, 2, 67, 79
3, 49920, Note_off_c, 2, 62, 79
3, 49920, Note_off_c, 2, 55, 79
3, 49920, Note_off_c, 2, 50, 79
3, 49920, Note_off_c, 2, 46, 79
3, 49920, Note_off_c, 2, 43, 79
3, 49920, Note_on_c, 2, 65, 79
3, 49920, Note_on_c, 2, 62, 79
3, 49920, Note_on_c, 2, 58, 79
3, 49920, Note_on_c, 2, 50, 79
3, 49920, Note_on_c, 2, 46, 79
3, 50400, Note_off_c, 2, 65, 79
3, 50400, Note_off_c, 2, 62, 79
3, 50400, Note_off_c, 2, 58, 79
3, 50400, Note_off_c, 2, 50, 79
3, 50400, Note_off_c, 2, 46, 79
3, 50400, Note_on_c, 2, 65, 79
3, 50400, Note_on_c, 2, 62, 79
3, 50400, Note_on_c, 2, 58, 79
3, 50400, Note_on_c, 2, 50, 79
3, 50400, Note_on_c, 2, 46, 79
3, 50640, Note_off_c, 2, 65, 79
3, 50640, Note_off_c, 2, 62, 79
3, 50640, Note_off_c, 2, 58, 79
3, 50640, Note_off_c, 2, 50, 79
3, 50640, Note_off_c, 2, 46, 79
3, 50640, Note_on_c, 2, 65, 79
3, 50640, Note_on_c, 2, 62, 79
3, 50640, Note_on_c, 2, 58, 79
3, 50640, Note_on_c, 2, 50, 79
3, 50640, Note_on_c, 2, 46, 79
3, 50880, Note_off_c, 2, 65, 79
3, 50880, Note_off_c, 2, 62, 79
3, 50880, Note_off_c, 2, 58, 79
3, 50880, Note_off_c, 2, 50, 79
3, 50880, Note_off_c, 2, 46, 79
3, 50880, Note_on_c, 2, 65, 79
3, 50880, Note_on_c, 2, 62, 79
3, 50880, Note_on_c, 2, 58, 79
3, 50880, Note_on_c, 2, 50, 79
3, 50880, Note_on_c, 2, 46, 79
3, 51360, Note_off_c, 2, 65, 79
3, 51360, Note_off_c, 2, 62, 79
3, 51360, Note_off_c, 2, 58, 79
3, 51360, Note_off_c, 2, 50, 79
3, 51360, Note_off_c, 2, 46, 79
3, 51360, Note_on_c, 2, 65, 79
3, 51360, Note_on_c, 2, 62, 79
3, 51360, Note_on_c, 2, 58, 79
3, 51360, Note_on_c, 2, 50, 79
3, 51360, Note_on_c, 2, 46, 79
3, 51600, Note_off_c, 2, 65, 79
3, 51600, Note_off_c, 2, 62, 79
3, 51600, Note_off_c, 2, 58, 79
3, 51600, Note_off_c, 2, 50, 79
3, 51600, Note_off_c, 2, 46, 79
3, 51600, Note_on_c, 2, 65, 79
3, 51600, Note_on_c, 2, 62, 79
3, 51600, Note_on_c, 2, 58, 79
3, 51600, Note_on_c, 2, 50, 79
3, 51600, Note_on_c, 2, 46, 79
3, 51840, Note_off_c, 2, 65, 79
3, 51840, Note_off_c, 2, 62, 79
3, 51840, Note_off_c, 2, 58, 79
3, 51840, Note_off_c, 2, 50, 79
3, 51840, Note_off_c, 2, 46, 79
3, 51840, Note_on_c, 2, 65, 79
3, 51840, Note_on_c, 2, 62, 79
3, 51840, Note_on_c, 2, 58, 79
3, 51840, Note_on_c, 2, 50, 79
3, 51840, Note_on_c, 2, 46, 79
3, 52080, Note_off_c, 2, 65, 79
3, 52080, Note_off_c, 2, 62, 79
3, 52080, Note_off_c, 2, 58, 79
3, 52080, Note_off_c, 2, 50, 79
3, 52080, Note_off_c, 2, 46, 79
3, 52080, Note_on_c, 2, 65, 79
3, 52080, Note_on_c, 2, 62, 79
3, 52080, Note_on_c, 2, 58, 79
3, 52080, Note_on_c, 2, 50, 79
3, 52080, Note_on_c, 2, 46, 79
3, 52320, Note_off_c, 2, 65, 79
3, 52320, Note_off_c, 2, 62, 79
3, 52320, Note_off_c, 2, 58, 79
3, 52320, Note_off_c, 2, 50, 79
3, 52320, Note_off_c, 2, 46, 79
3, 52320, Note_on_c, 2, 65, 79
3, 52320, Note_on_c, 2, 62, 79
3, 52320, Note_on_c, 2, 58, 79
3, 52320, Note_on_c, 2, 50, 79
3, 52320, Note_on_c, 2, 46, 79
3, 52560, Note_off_c, 2, 65, 79
3, 52560, Note_off_c, 2, 62, 79
3, 52560, Note_off_c, 2, 58, 79
3, 52560, Note_off_c, 2, 50, 79
3, 52560, Note_off_c, 2, 46, 79
3, 52560, Note_on_c, 2, 65, 79
3, 52560, Note_on_c, 2, 62, 79
3, 52560, Note_on_c, 2, 58, 79
3, 52560, Note_on_c, 2, 50, 79
3, 52560, Note_on_c, 2, 46, 79
3, 52800, Note_off_c, 2, 65, 79
3, 52800, Note_off_c, 2, 62, 79
3, 52800, Note_off_c, 2, 58, 79
3, 52800, Note_off_c, 2, 50, 79
3, 52800, Note_off_c, 2, 46, 79
3, 52800, Note_on_c, 2, 65, 79
3, 52800, Note_on_c, 2, 62, 79
3, 52800, Note_on_c, 2, 58, 79
3, 52800, Note_on_c, 2, 50, 79
3, 52800, Note_on_c, 2, 46, 79
3, 53040, Note_off_c, 2, 65, 79
3, 53040, Note_off_c, 2, 62, 79
3, 53040, Note_off_c, 2, 58, 79
3, 53040, Note_off_c, 2, 50, 79
3, 53040, Note_off_c, 2, 46, 79
3, 53040, Note_on_c, 2, 65, 79
3, 53040, Note_on_c, 2, 62, 79
3, 53040, Note_on_c, 2, 58, 79
3, 53040, Note_on_c, 2, 50, 79
3, 53040, Note_on_c, 2, 46, 79
3, 53280, Note_off_c, 2, 65, 79
3, 53280, Note_off_c, 2, 62, 79
3, 53280, Note_off_c, 2, 58, 79
3, 53280, Note_off_c, 2, 50, 79
3, 53280, Note_off_c, 2, 46, 79
3, 53760, Note_on_c, 2, 67, 79
3, 53760, Note_on_c, 2, 62, 79
3, 53760, Note_on_c, 2, 55, 79
3, 53760, Note_on_c, 2, 50, 79
3, 53760, Note_on_c, 2, 46, 79
3, 53760, Note_on_c, 2, 43, 79
3, 54240, Note_off_c, 2, 67, 79
3, 54240, Note_off_c, 2, 62, 79
3, 54240, Note_off_c, 2, 55, 79
3, 54240, Note_off_c, 2, 50, 79
3, 54240, Note_off_c, 2, 46, 79
3, 54240, Note_off_c, 2, 43, 79
3, 54240, Note_on_c, 2, 67, 79
3, 54240, Note_on_c, 2, 62, 79
3, 54240, Note_on_c, 2, 55, 79
3, 54240, Note_on_c, 2, 50, 79
3, 54240, Note_on_c, 2, 46, 79
3, 54240, Note_on_c, 2, 43, 79
3, 54480, Note_off_c, 2, 67, 79
3, 54480, Note_off_c, 2, 62, 79
3, 54480, Note_off_c, 2, 55, 79
3, 54480, Note_off_c, 2, 50, 79
3, 54480, Note_off_c, 2, 46, 79
3, 54480, Note_off_c, 2, 43, 79
3, 54480, Note_on_c, 2, 67, 79
3, 54480, Note_on_c, 2, 62, 79
3, 54480, Note_on_c, 2, 55, 79
3, 54480, Note_on_c, 2, 50, 79
3, 54480, Note_on_c, 2, 46, 79
3, 54480, Note_on_c, 2, 43, 79
3, 54720, Note_off_c, 2, 67, 79
3, 54720, Note_off_c, 2, 62, 79
3, 54720, Note_off_c, 2, 55, 79
3, 54720, Note_off_c, 2, 50, 79
3, 54720, Note_off_c, 2, 46, 79
3, 54720, Note_off_c, 2, 43, 79
3, 54720, Note_on_c, 2, 67, 79
3, 54720, Note_on_c, 2, 62, 79
3, 54720, Note_on_c, 2, 55, 79
3, 54720, Note_on_c, 2, 50, 79
3, 54720, Note_on_c, 2, 46, 79
3, 54720, Note_on_c, 2, 43, 79
3, 55200, Note_off_c, 2, 67, 79
3, 55200, Note_off_c, 2, 62, 79
3, 55200, Note_off_c, 2, 55, 79
3, 55200, Note_off_c, 2, 50, 79
3, 55200, Note_off_c, 2, 46, 79
3, 55200, Note_off_c, 2, 43, 79
3, 55200, Note_on_c, 2, 67, 79
3, 55200, Note_on_c, 2, 62, 79
3, 55200, Note_on_c, 2, 55, 79
3, 55200, Note_on_c, 2, 50, 79
3, 55200, Note_on_c, 2, 46, 79
3, 55200, Note_on_c, 2, 43, 79
3, 55440, Note_off_c, 2, 67, 79
3, 55440, Note_off_c, 2, 62, 79
3, 55440, Note_off_c, 2, 55, 79
3, 55440, Note_off_c, 2, 50, 79
3, 55440, Note_off_c, 2, 46, 79
3, 55440, Note_off_c, 2, 43, 79
3, 55440, Note_on_c, 2, 67, 79
3, 55440, Note_on_c, 2, 62, 79
3, 55440, Note_on_c, 2, 55, 79
3, 55440, Note_on_c, 2, 50, 79
3, 55440, Note_on_c, 2, 46, 79
3, 55440, Note_on_c, 2, 43, 79
3, 55680, Note_off_c, 2, 67, 79
3, 55680, Note_off_c, 2, 62, 79
3, 55680, Note_off_c, 2, 55, 79
3, 55680, Note_off_c, 2, 50, 79
3, 55680, Note_off_c, 2, 46, 79
3, 55680, Note_off_c, 2, 43, 79
3, 55680, Note_on_c, 2, 67, 79
3, 55680, Note_on_c, 2, 62, 79
3, 55680, Note_on_c, 2, 55, 79
3, 55680, Note_on_c, 2, 50, 79
3, 55680, Note_on_c, 2, 46, 79
3, 55680, Note_on_c, 2, 43, 79
3, 55920, Note_off_c, 2, 67, 79
3, 55920, Note_off_c, 2, 62, 79
3, 55920, Note_off_c, 2, 55, 79
3, 55920, Note_off_c, 2, 50, 79
3, 55920, Note_off_c, 2, 46, 79
3, 55920, Note_off_c, 2, 43, 79
3, 55920, Note_on_c, 2, 67, 79
3, 55920, Note_on_c, 2, 62, 79
3, 55920, Note_on_c, 2, 55, 79
3, 55920, Note_on_c, 2, 50, 79
3, 55920, Note_on_c, 2, 46, 79
3, 55920, Note_on_c, 2, 43, 79
3, 56160, Note_off_c, 2, 67, 79
3, 56160, Note_off_c, 2, 62, 79
3, 56160, Note_off_c, 2, 55, 79
3, 56160, Note_off_c, 2, 50, 79
3, 56160, Note_off_c, 2, 46, 79
3, 56160, Note_off_c, 2, 43, 79
3, 56160, Note_on_c, 2, 67, 79
3, 56160, Note_on_c, 2, 62, 79
3, 56160, Note_on_c, 2, 55, 79
3, 56160, Note_on_c, 2, 50, 79
3, 56160, Note_on_c, 2, 46, 79
3, 56160, Note_on_c, 2, 43, 79
3, 56400, Note_off_c, 2, 67, 79
3, 56400, Note_off_c, 2, 62, 79
3, 56400, Note_off_c, 2, 55, 79
3, 56400, Note_off_c, 2, 50, 79
3, 56400, Note_off_c, 2, 46, 79
3, 56400, Note_off_c, 2, 43, 79
3, 56400, Note_on_c, 2, 67, 79
3, 56400, Note_on_c, 2, 62, 79
3, 56400, Note_on_c, 2, 55, 79
3, 56400, Note_on_c, 2, 50, 79
3, 56400, Note_on_c, 2, 46, 79
3, 56400, Note_on_c, 2, 43, 79
3, 56640, Note_off_c, 2, 67, 79
3, 56640, Note_off_c, 2, 62, 79
3, 56640, Note_off_c, 2, 55, 79
3, 56640, Note_off_c, 2, 50, 79
3, 56640, Note_off_c, 2, 46, 79
3, 56640, Note_off_c, 2, 43, 79
3, 56640, Note_on_c, 2, 67, 79
3, 56640, Note_on_c, 2, 62, 79
3, 56640, Note_on_c, 2, 55, 79
3, 56640, Note_on_c, 2, 50, 79
3, 56640, Note_on_c, 2, 46, 79
3, 56640, Note_on_c, 2, 43, 79
3, 56880, Note_off_c, 2, 67, 79
3, 56880, Note_off_c, 2, 62, 79
3, 56880, Note_off_c, 2, 55, 79
3, 56880, Note_off_c, 2, 50, 79
3, 56880, Note_off_c, 2, 46, 79
3, 56880, Note_off_c, 2, 43, 79
3, 56880, Note_on_c, 2, 67, 79
3, 56880, Note_on_c, 2, 62, 79
3, 56880, Note_on_c, 2, 55, 79
3, 56880, Note_on_c, 2, 50, 79
3, 56880, Note_on_c, 2, 46, 79
3, 56880, Note_on_c, 2, 43, 79
3, 57120, Note_off_c, 2, 67, 79
3, 57120, Note_off_c, 2, 62, 79
3, 57120, Note_off_c, 2, 55, 79
3, 57120, Note_off_c, 2, 50, 79
3, 57120, Note_off_c, 2, 46, 79
3, 57120, Note_off_c, 2, 43, 79
3, 57120, Note_on_c, 2, 67, 79
3, 57120, Note_on_c, 2, 62, 79
3, 57120, Note_on_c, 2, 55, 79
3, 57120, Note_on_c, 2, 50, 79
3, 57120, Note_on_c, 2, 46, 79
3, 57120, Note_on_c, 2, 43, 79
3, 57360, Note_off_c, 2, 67, 79
3, 57360, Note_off_c, 2, 62, 79
3, 57360, Note_off_c, 2, 55, 79
3, 57360, Note_off_c, 2, 50, 79
3, 57360, Note_off_c, 2, 46, 79
3, 57360, Note_off_c, 2, 43, 79
3, 57360, Note_on_c, 2, 67, 79
3, 57360, Note_on_c, 2, 62, 79
3, 57360, Note_on_c, 2, 55, 79
3, 57360, Note_on_c, 2, 50, 79
3, 57360, Note_on_c, 2, 46, 79
3, 57360, Note_on_c, 2, 43, 79
3, 57600, Note_off_c, 2, 67, 79
3, 57600, Note_off_c, 2, 62, 79
3, 57600, Note_off_c, 2, 55, 79
3, 57600, Note_off_c, 2, 50, 79
3, 57600, Note_off_c, 2, 46, 79
3, 57600, Note_off_c, 2, 43, 79
3, 57600, Note_on_c, 2, 67, 79
3, 57600, Note_on_c, 2, 62, 79
3, 57600, Note_on_c, 2, 55, 79
3, 57600, Note_on_c, 2, 50, 79
3, 57600, Note_on_c, 2, 46, 79
3, 57600, Note_on_c, 2, 43, 79
3, 58080, Note_off_c, 2, 67, 79
3, 58080, Note_off_c, 2, 62, 79
3, 58080, Note_off_c, 2, 55, 79
3, 58080, Note_off_c, 2, 50, 79
3, 58080, Note_off_c, 2, 46, 79
3, 58080, Note_off_c, 2, 43, 79
3, 58080, Note_on_c, 2, 67, 79
3, 58080, Note_on_c, 2, 62, 79
3, 58080, Note_on_c, 2, 55, 79
3, 58080, Note_on_c, 2, 50, 79
3, 58080, Note_on_c, 2, 46, 79
3, 58080, Note_on_c, 2, 43, 79
3, 58320, Note_off_c, 2, 67, 79
3, 58320, Note_off_c, 2, 62, 79
3, 58320, Note_off_c, 2, 55, 79
3, 58320, Note_off_c, 2, 50, 79
3, 58320, Note_off_c, 2, 46, 79
3, 58320, Note_off_c, 2, 43, 79
3, 58320, Note_on_c, 2, 67, 79
3, 58320, Note_on_c, 2, 62, 79
3, 58320, Note_on_c, 2, 55, 79
3, 58320, Note_on_c, 2, 50, 79
3, 58320, Note_on_c, 2, 46, 79
3, 58320, Note_on_c, 2, 43, 79
3, 58560, Note_off_c, 2, 67, 79
3, 58560, Note_off_c, 2, 62, 79
3, 58560, Note_off_c, 2, 55, 79
3, 58560, Note_off_c, 2, 50, 79
3, 58560, Note_off_c, 2, 46, 79
3, 58560, Note_off_c, 2, 43, 79
3, 58560, Note_on_c, 2, 67, 79
3, 58560, Note_on_c, 2, 62, 79
3, 58560, Note_on_c, 2, 55, 79
3, 58560, Note_on_c, 2, 50, 79
3, 58560, Note_on_c, 2, 46, 79
3, 58560, Note_on_c, 2, 43, 79
3, 59040, Note_off_c, 2, 67, 79
3, 59040, Note_off_c, 2, 62, 79
3, 59040, Note_off_c, 2, 55, 79
3, 59040, Note_off_c, 2, 50, 79
3, 59040, Note_off_c, 2, 46, 79
3, 59040, Note_off_c, 2, 43, 79
3, 59040, Note_on_c, 2, 67, 79
3, 59040, Note_on_c, 2, 62, 79
3, 59040, Note_on_c, 2, 55, 79
3, 59040, Note_on_c, 2, 50, 79
3, 59040, Note_on_c, 2, 46, 79
3, 59040, Note_on_c, 2, 43, 79
3, 59280, Note_off_c, 2, 67, 79
3, 59280, Note_off_c, 2, 62, 79
3, 59280, Note_off_c, 2, 55, 79
3, 59280, Note_off_c, 2, 50, 79
3, 59280, Note_off_c, 2, 46, 79
3, 59280, Note_off_c, 2, 43, 79
3, 59280, Note_on_c, 2, 67, 79
3, 59280, Note_on_c, 2, 62, 79
3, 59280, Note_on_c, 2, 55, 79
3, 59280, Note_on_c, 2, 50, 79
3, 59280, Note_on_c, 2, 46, 79
3, 59280, Note_on_c, 2, 43, 79
3, 59520, Note_off_c, 2, 67, 79
3, 59520, Note_off_c, 2, 62, 79
3, 59520, Note_off_c, 2, 55, 79
3, 59520, Note_off_c, 2, 50, 79
3, 59520, Note_off_c, 2, 46, 79
3, 59520, Note_off_c, 2, 43, 79
3, 59520, Note_on_c, 2, 67, 79
3, 59520, Note_on_c, 2, 62, 79
3, 59520, Note_on_c, 2, 55, 79
3, 59520, Note_on_c, 2, 50, 79
3, 59520, Note_on_c, 2, 46, 79
3, 59520, Note_on_c, 2, 43, 79
3, 59760, Note_off_c, 2, 67, 79
3, 59760, Note_off_c, 2, 62, 79
3, 59760, Note_off_c, 2, 55, 79
3, 59760, Note_off_c, 2, 50, 79
3, 59760, Note_off_c, 2, 46, 79
3, 59760, Note_off_c, 2, 43, 79
3, 59760, Note_on_c, 2, 67, 79
3, 59760, Note_on_c, 2, 62, 79
3, 59760, Note_on_c, 2, 55, 79
3, 59760, Note_on_c, 2, 50, 79
3, 59760, Note_on_c, 2, 46, 79
3, 59760, Note_on_c, 2, 43, 79
3, 60000, Note_off_c, 2, 67, 79
3, 60000, Note_off_c, 2, 62, 79
3, 60000, Note_off_c, 2, 55, 79
3, 60000, Note_off_c, 2, 50, 79
3, 60000, Note_off_c, 2, 46, 79
3, 60000, Note_off_c, 2, 43, 79
3, 60000, Note_on_c, 2, 67, 79
3, 60000, Note_on_c, 2, 62, 79
3, 60000, Note_on_c, 2, 55, 79
3, 60000, Note_on_c, 2, 50, 79
3, 60000, Note_on_c, 2, 46, 79
3, 60000, Note_on_c, 2, 43, 79
3, 60240, Note_off_c, 2, 67, 79
3, 60240, Note_off_c, 2, 62, 79
3, 60240, Note_off_c, 2, 55, 79
3, 60240, Note_off_c, 2, 50, 79
3, 60240, Note_off_c, 2, 46, 79
3, 60240, Note_off_c, 2, 43, 79
3, 60240, Note_on_c, 2, 67, 79
3, 60240, Note_on_c, 2, 62, 79
3, 60240, Note_on_c, 2, 55, 79
3, 60240, Note_on_c, 2, 50, 79
3, 60240, Note_on_c, 2, 46, 79
3, 60240, Note_on_c, 2, 43, 79
3, 60480, Note_off_c, 2, 67, 79
3, 60480, Note_off_c, 2, 62, 79
3, 60480, Note_off_c, 2, 55, 79
3, 60480, Note_off_c, 2, 50, 79
3, 60480, Note_off_c, 2, 46, 79
3, 60480, Note_off_c, 2, 43, 79
3, 60480, Note_on_c, 2, 67, 79
3, 60480, Note_on_c, 2, 62, 79
3, 60480, Note_on_c, 2, 55, 79
3, 60480, Note_on_c, 2, 50, 79
3, 60480, Note_on_c, 2, 46, 79
3, 60480, Note_on_c, 2, 43, 79
3, 60720, Note_off_c, 2, 67, 79
3, 60720, Note_off_c, 2, 62, 79
3, 60720, Note_off_c, 2, 55, 79
3, 60720, Note_off_c, 2, 50, 79
3, 60720, Note_off_c, 2, 46, 79
3, 60720, Note_off_c, 2, 43, 79
3, 60720, Note_on_c, 2, 67, 79
3, 60720, Note_on_c, 2, 62, 79
3, 60720, Note_on_c, 2, 55, 79
3, 60720, Note_on_c, 2, 50, 79
3, 60720, Note_on_c, 2, 46, 79
3, 60720, Note_on_c, 2, 43, 79
3, 60960, Note_off_c, 2, 67, 79
3, 60960, Note_off_c, 2, 62, 79
3, 60960, Note_off_c, 2, 55, 79
3, 60960, Note_off_c, 2, 50, 79
3, 60960, Note_off_c, 2, 46, 79
3, 60960, Note_off_c, 2, 43, 79
3, 60960, Note_on_c, 2, 67, 79
3, 60960, Note_on_c, 2, 62, 79
3, 60960, Note_on_c, 2, 55, 79
3, 60960, Note_on_c, 2, 50, 79
3, 60960, Note_on_c, 2, 46, 79
3, 60960, Note_on_c, 2, 43, 79
3, 61200, Note_off_c, 2, 67, 79
3, 61200, Note_off_c, 2, 62, 79
3, 61200, Note_off_c, 2, 55, 79
3, 61200, Note_off_c, 2, 50, 79
3, 61200, Note_off_c, 2, 46, 79
3, 61200, Note_off_c, 2, 43, 79
3, 61200, Note_on_c, 2, 67, 79
3, 61200, Note_on_c, 2, 62, 79
3, 61200, Note_on_c, 2, 55, 79
3, 61200, Note_on_c, 2, 50, 79
3, 61200, Note_on_c, 2, 46, 79
3, 61200, Note_on_c, 2, 43, 79
3, 61440, Note_off_c, 2, 67, 79
3, 61440, Note_off_c, 2, 62, 79
3, 61440, Note_off_c, 2, 55, 79
3, 61440, Note_off_c, 2, 50, 79
3, 61440, Note_off_c, 2, 46, 79
3, 61440, Note_off_c, 2, 43, 79
3, 61440, Note_on_c, 2, 65, 79
3, 61440, Note_on_c, 2, 62, 79
3, 61440, Note_on_c, 2, 58, 79
3, 61440, Note_on_c, 2, 50, 79
3, 61440, Note_on_c, 2, 46, 79
3, 61920, Note_off_c, 2, 65, 79
3, 61920, Note_off_c, 2, 62, 79
3, 61920, Note_off_c, 2, 58, 79
3, 61920, Note_off_c, 2, 50, 79
3, 61920, Note_off_c, 2, 46, 79
3, 61920, Note_on_c, 2, 65, 79
3, 61920, Note_on_c, 2, 62, 79
3, 61920, Note_on_c, 2, 58, 79
3, 61920, Note_on_c, 2, 50, 79
3, 61920, Note_on_c, 2, 46, 79
3, 62160, Note_off_c, 2, 65, 79
3, 62160, Note_off_c, 2, 62, 79
3, 62160, Note_off_c, 2, 58, 79
3, 62160, Note_off_c, 2, 50, 79
3, 62160, Note_off_c, 2, 46, 79
3, 62160, Note_on_c, 2, 65, 79
3, 62160, Note_on_c, 2, 62, 79
3, 62160, Note_on_c, 2, 58, 79
3, 62160, Note_on_c, 2, 50, 79
3, 62160, Note_on_c, 2, 46, 79
3, 62400, Note_off_c, 2, 65, 79
3, 62400, Note_off_c, 2, 62, 79
3, 62400, Note_off_c, 2, 58, 79
3, 62400, Note_off_c, 2, 50, 79
3, 62400, Note_off_c, 2, 46, 79
3, 62400, Note_on_c, 2, 65, 79
3, 62400, Note_on_c, 2, 62, 79
3, 62400, Note_on_c, 2, 58, 79
3, 62400, Note_on_c, 2, 50, 79
3, 62400, Note_on_c, 2, 46, 79
3, 62880, Note_off_c, 2, 65, 79
3, 62880, Note_off_c, 2, 62, 79
3, 62880, Note_off_c, 2, 58, 79
3, 62880, Note_off_c, 2, 50, 79
3, 62880, Note_off_c, 2, 46, 79
3, 62880, Note_on_c, 2, 65, 79
3, 62880, Note_on_c, 2, 62, 79
3, 62880, Note_on_c, 2, 58, 79
3, 62880, Note_on_c, 2, 50, 79
3, 62880, Note_on_c, 2, 46, 79
3, 63600, Note_off_c, 2, 65, 79
3, 63600, Note_off_c, 2, 62, 79
3, 63600, Note_off_c, 2, 58, 79
3, 63600, Note_off_c, 2, 50, 79
3, 63600, Note_off_c, 2, 46, 79
3, 63600, Note_on_c, 2, 65, 79
3, 63600, Note_on_c, 2, 62, 79
3, 63600, Note_on_c, 2, 58, 79
3, 63600, Note_on_c, 2, 50, 79
3, 63600, Note_on_c, 2, 46, 79
3, 63840, Note_off_c, 2, 65, 79
3, 63840, Note_off_c, 2, 62, 79
3, 63840, Note_off_c, 2, 58, 79
3, 63840, Note_off_c, 2, 50, 79
3, 63840, Note_off_c, 2, 46, 79
3, 63840, Note_on_c, 2, 65, 79
3, 63840, Note_on_c, 2, 62, 79
3, 63840, Note_on_c, 2, 58, 79
3, 63840, Note_on_c, 2, 50, 79
3, 63840, Note_on_c, 2, 46, 79
3, 64320, Note_off_c, 2, 65, 79
3, 64320, Note_off_c, 2, 62, 79
3, 64320, Note_off_c, 2, 58, 79
3, 64320, Note_off_c, 2, 50, 79
3, 64320, Note_off_c, 2, 46, 79
3, 64320, Note_on_c, 2, 65, 79
3, 64320, Note_on_c, 2, 62, 79
3, 64320, Note_on_c, 2, 58, 79
3, 64320, Note_on_c, 2, 50, 79
3, 64320, Note_on_c, 2, 46, 79
3, 64800, Note_off_c, 2, 65, 79
3, 64800, Note_off_c, 2, 62, 79
3, 64800, Note_off_c, 2, 58, 79
3, 64800, Note_off_c, 2, 50, 79
3, 64800, Note_off_c, 2, 46, 79
3, 64800, Note_on_c, 2, 65, 79
3, 64800, Note_on_c, 2, 62, 79
3, 64800, Note_on_c, 2, 58, 79
3, 64800, Note_on_c, 2, 50, 79
3, 64800, Note_on_c, 2, 46, 79
3, 65280, Note_off_c, 2, 65, 79
3, 65280, Note_off_c, 2, 62, 79
3, 65280, Note_off_c, 2, 58, 79
3, 65280, Note_off_c, 2, 50, 79
3, 65280, Note_off_c, 2, 46, 79
3, 65280, Note_on_c, 2, 67, 79
3, 65280, Note_on_c, 2, 62, 79
3, 65280, Note_on_c, 2, 55, 79
3, 65280, Note_on_c, 2, 50, 79
3, 65280, Note_on_c, 2, 46, 79
3, 65280, Note_on_c, 2, 43, 79
3, 66000, Note_off_c, 2, 67, 79
3, 66000, Note_off_c, 2, 62, 79
3, 66000, Note_off_c, 2, 55, 79
3, 66000, Note_off_c, 2, 50, 79
3, 66000, Note_off_c, 2, 46, 79
3, 66000, Note_off_c, 2, 43, 79
3, 66000, Note_on_c, 2, 67, 79
3, 66000, Note_on_c, 2, 62, 79
3, 66000, Note_on_c, 2, 55, 79
3, 66000, Note_on_c, 2, 50, 79
3, 66000, Note_on_c, 2, 46, 79
3, 66000, Note_on_c, 2, 43, 79
3, 66240, Note_off_c, 2, 67, 79
3, 66240, Note_off_c, 2, 62, 79
3, 66240, Note_off_c, 2, 55, 79
3, 66240, Note_off_c, 2, 50, 79
3, 66240, Note_off_c, 2, 46, 79
3, 66240, Note_off_c, 2, 43, 79
3, 66240, Note_on_c, 2, 67, 79
3, 66240, Note_on_c, 2, 62, 79
3, 66240, Note_on_c, 2, 55, 79
3, 66240, Note_on_c, 2, 50, 79
3, 66240, Note_on_c, 2, 46, 79
3, 66240, Note_on_c, 2, 43, 79
3, 66720, Note_off_c, 2, 67, 79
3, 66720, Note_off_c, 2, 62, 79
3, 66720, Note_off_c, 2, 55, 79
3, 66720, Note_off_c, 2, 50, 79
3, 66720, Note_off_c, 2, 46, 79
3, 66720, Note_off_c, 2, 43, 79
3, 66720, Note_on_c, 2, 67, 79
3, 66720, Note_on_c, 2, 62, 79
3, 66720, Note_on_c, 2, 55, 79
3, 66720, Note_on_c, 2, 50, 79
3, 66720, Note_on_c, 2, 46, 79
3, 66720, Note_on_c, 2, 43, 79
3, 67200, Note_off_c, 2, 67, 79
3, 67200, Note_off_c, 2, 62, 79
3, 67200, Note_off_c, 2, 55, 79
3, 67200, Note_off_c, 2, 50, 79
3, 67200, Note_off_c, 2, 46, 79
3, 67200, Note_off_c, 2, 43, 79
3, 67200, Note_on_c, 2, 67, 79
3, 67200, Note_on_c, 2, 62, 79
3, 67200, Note_on_c, 2, 55, 79
3, 67200, Note_on_c, 2, 50, 79
3, 67200, Note_on_c, 2, 46, 79
3, 67200, Note_on_c, 2, 43, 79
3, 67440, Note_off_c, 2, 67, 79
3, 67440, Note_off_c, 2, 62, 79
3, 67440, Note_off_c, 2, 55, 79
3, 67440, Note_off_c, 2, 50, 79
3, 67440, Note_off_c, 2, 46, 79
3, 67440, Note_off_c, 2, 43, 79
3, 67440, Note_on_c, 2, 67, 79
3, 67440, Note_on_c, 2, 62, 79
3, 67440, Note_on_c, 2, 55, 79
3, 67440, Note_on_c, 2, 50, 79
3, 67440, Note_on_c, 2, 46, 79
3, 67440, Note_on_c, 2, 43, 79
3, 67680, Note_off_c, 2, 67, 79
3, 67680, Note_off_c, 2, 62, 79
3, 67680, Note_off_c, 2, 55, 79
3, 67680, Note_off_c, 2, 50, 79
3, 67680, Note_off_c, 2, 46, 79
3, 67680, Note_off_c, 2, 43, 79
3, 67680, Note_on_c, 2, 67, 79
3, 67680, Note_on_c, 2, 62, 79
3, 67680, Note_on_c, 2, 55, 79
3, 67680, Note_on_c, 2, 50, 79
3, 67680, Note_on_c, 2, 46, 79
3, 67680, Note_on_c, 2, 43, 79
3, 68160, Note_off_c, 2, 67, 79
3, 68160, Note_off_c, 2, 62, 79
3, 68160, Note_off_c, 2, 55, 79
3, 68160, Note_off_c, 2, 50, 79
3, 68160, Note_off_c, 2, 46, 79
3, 68160, Note_off_c, 2, 43, 79
3, 68160, Note_on_c, 2, 67, 79
3, 68160, Note_on_c, 2, 62, 79
3, 68160, Note_on_c, 2, 55, 79
3, 68160, Note_on_c, 2, 50, 79
3, 68160, Note_on_c, 2, 46, 79
3, 68160, Note_on_c, 2, 43, 79
3, 68640, Note_off_c, 2, 67, 79
3, 68640, Note_off_c, 2, 62, 79
3, 68640, Note_off_c, 2, 55, 79
3, 68640, Note_off_c, 2, 50, 79
3, 68640, Note_off_c, 2, 46, 79
3, 68640, Note_off_c, 2, 43, 79
3, 68640, Note_on_c, 2, 67, 79
3, 68640, Note_on_c, 2, 62, 79
3, 68640, Note_on_c, 2, 55, 79
3, 68640, Note_on_c, 2, 50, 79
3, 68640, Note_on_c, 2, 46, 79
3, 68640, Note_on_c, 2, 43, 79
3, 69120, Note_off_c, 2, 67, 79
3, 69120, Note_off_c, 2, 62, 79
3, 69120, Note_off_c, 2, 55, 79
3, 69120, Note_off_c, 2, 50, 79
3, 69120, Note_off_c, 2, 46, 79
3, 69120, Note_off_c, 2, 43, 79
3, 69120, Note_on_c, 2, 65, 79
3, 69120, Note_on_c, 2, 62, 79
3, 69120, Note_on_c, 2, 58, 79
3, 69120, Note_on_c, 2, 50, 79
3, 69120, Note_on_c, 2, 46, 79
3, 69840, Note_off_c, 2, 65, 79
3, 69840, Note_off_c, 2, 62, 79
3, 69840, Note_off_c, 2, 58, 79
3, 69840, Note_off_c, 2, 50, 79
3, 69840, Note_off_c, 2, 46, 79
3, 69840, Note_on_c, 2, 65, 79
3, 69840, Note_on_c, 2, 62, 79
3, 69840, Note_on_c, 2, 58, 79
3, 69840, Note_on_c, 2, 50, 79
3, 69840, Note_on_c, 2, 46, 79
3, 70080, Note_off_c, 2, 65, 79
3, 70080, Note_off_c, 2, 62, 79
3, 70080, Note_off_c, 2, 58, 79
3, 70080, Note_off_c, 2, 50, 79
3, 70080, Note_off_c, 2, 46, 79
3, 70080, Note_on_c, 2, 65, 79
3, 70080, Note_on_c, 2, 62, 79
3, 70080, Note_on_c, 2, 58, 79
3, 70080, Note_on_c, 2, 50, 79
3, 70080, Note_on_c, 2, 46, 79
3, 70560, Note_off_c, 2, 65, 79
3, 70560, Note_off_c, 2, 62, 79
3, 70560, Note_off_c, 2, 58, 79
3, 70560, Note_off_c, 2, 50, 79
3, 70560, Note_off_c, 2, 46, 79
3, 70560, Note_on_c, 2, 65, 79
3, 70560, Note_on_c, 2, 62, 79
3, 70560, Note_on_c, 2, 58, 79
3, 70560, Note_on_c, 2, 50, 79
3, 70560, Note_on_c, 2, 46, 79
3, 71280, Note_off_c, 2, 65, 79
3, 71280, Note_off_c, 2, 62, 79
3, 71280, Note_off_c, 2, 58, 79
3, 71280, Note_off_c, 2, 50, 79
3, 71280, Note_off_c, 2, 46, 79
3, 71280, Note_on_c, 2, 65, 79
3, 71280, Note_on_c, 2, 62, 79
3, 71280, Note_on_c, 2, 58, 79
3, 71280, Note_on_c, 2, 50, 79
3, 71280, Note_on_c, 2, 46, 79
3, 71520, Note_off_c, 2, 65, 79
3, 71520, Note_off_c, 2, 62, 79
3, 71520, Note_off_c, 2, 58, 79
3, 71520, Note_off_c, 2, 50, 79
3, 71520, Note_off_c, 2, 46, 79
3, 71520, Note_on_c, 2, 65, 79
3, 71520, Note_on_c, 2, 62, 79
3, 71520, Note_on_c, 2, 58, 79
3, 71520, Note_on_c, 2, 50, 79
3, 71520, Note_on_c, 2, 46, 79
3, 72000, Note_off_c, 2, 65, 79
3, 72000, Note_off_c, 2, 62, 79
3, 72000, Note_off_c, 2, 58, 79
3, 72000, Note_off_c, 2, 50, 79
3, 72000, Note_off_c, 2, 46, 79
3, 72000, Note_on_c, 2, 65, 79
3, 72000, Note_on_c, 2, 62, 79
3, 72000, Note_on_c, 2, 58, 79
3, 72000, Note_on_c, 2, 50, 79
3, 72000, Note_on_c, 2, 46, 79
3, 72480, Note_off_c, 2, 65, 79
3, 72480, Note_off_c, 2, 62, 79
3, 72480, Note_off_c, 2, 58, 79
3, 72480, Note_off_c, 2, 50, 79
3, 72480, Note_off_c, 2, 46, 79
3, 72480, Note_on_c, 2, 65, 79
3, 72480, Note_on_c, 2, 62, 79
3, 72480, Note_on_c, 2, 58, 79
3, 72480, Note_on_c, 2, 50, 79
3, 72480, Note_on_c, 2, 46, 79
3, 72960, Note_off_c, 2, 65, 79
3, 72960, Note_off_c, 2, 62, 79
3, 72960, Note_off_c, 2, 58, 79
3, 72960, Note_off_c, 2, 50, 79
3, 72960, Note_off_c, 2, 46, 79
3, 72960, Note_on_c, 2, 67, 79
3, 72960, Note_on_c, 2, 62, 79
3, 72960, Note_on_c, 2, 55, 79
3, 72960, Note_on_c, 2, 50, 79
3, 72960, Note_on_c, 2, 46, 79
3, 72960, Note_on_c, 2, 43, 79
3, 73680, Note_off_c, 2, 67, 79
3, 73680, Note_off_c, 2, 62, 79
3, 73680, Note_off_c, 2, 55, 79
3, 73680, Note_off_c, 2, 50, 79
3, 73680, Note_off_c, 2, 46, 79
3, 73680, Note_off_c, 2, 43, 79
3, 73680, Note_on_c, 2, 67, 79
3, 73680, Note_on_c, 2, 62, 79
3, 73680, Note_on_c, 2, 55, 79
3, 73680, Note_on_c, 2, 50, 79
3, 73680, Note_on_c, 2, 46, 79
3, 73680, Note_on_c, 2, 43, 79
3, 73920, Note_off_c, 2, 67, 79
3, 73920, Note_off_c, 2, 62, 79
3, 73920, Note_off_c, 2, 55, 79
3, 73920, Note_off_c, 2, 50, 79
3, 73920, Note_off_c, 2, 46, 79
3, 73920, Note_off_c, 2, 43, 79
3, 73920, Note_on_c, 2, 67, 79
3, 73920, Note_on_c, 2, 62, 79
3, 73920, Note_on_c, 2, 55, 79
3, 73920, Note_on_c, 2, 50, 79
3, 73920, Note_on_c, 2, 46, 79
3, 73920, Note_on_c, 2, 43, 79
3, 74400, Note_off_c, 2, 67, 79
3, 74400, Note_off_c, 2, 62, 79
3, 74400, Note_off_c, 2, 55, 79
3, 74400, Note_off_c, 2, 50, 79
3, 74400, Note_off_c, 2, 46, 79
3, 74400, Note_off_c, 2, 43, 79
3, 74400, Note_on_c, 2, 67, 79
3, 74400, Note_on_c, 2, 62, 79
3, 74400, Note_on_c, 2, 55, 79
3, 74400, Note_on_c, 2, 50, 79
3, 74400, Note_on_c, 2, 46, 79
3, 74400, Note_on_c, 2, 43, 79
3, 74880, Note_off_c, 2, 67, 79
3, 74880, Note_off_c, 2, 62, 79
3, 74880, Note_off_c, 2, 55, 79
3, 74880, Note_off_c, 2, 50, 79
3, 74880, Note_off_c, 2, 46, 79
3, 74880, Note_off_c, 2, 43, 79
3, 74880, Note_on_c, 2, 67, 79
3, 74880, Note_on_c, 2, 62, 79
3, 74880, Note_on_c, 2, 55, 79
3, 74880, Note_on_c, 2, 50, 79
3, 74880, Note_on_c, 2, 46, 79
3, 74880, Note_on_c, 2, 43, 79
3, 75120, Note_off_c, 2, 67, 79
3, 75120, Note_off_c, 2, 62, 79
3, 75120, Note_off_c, 2, 55, 79
3, 75120, Note_off_c, 2, 50, 79
3, 75120, Note_off_c, 2, 46, 79
3, 75120, Note_off_c, 2, 43, 79
3, 75120, Note_on_c, 2, 67, 79
3, 75120, Note_on_c, 2, 62, 79
3, 75120, Note_on_c, 2, 55, 79
3, 75120, Note_on_c, 2, 50, 79
3, 75120, Note_on_c, 2, 46, 79
3, 75120, Note_on_c, 2, 43, 79
3, 75360, Note_off_c, 2, 67, 79
3, 75360, Note_off_c, 2, 62, 79
3, 75360, Note_off_c, 2, 55, 79
3, 75360, Note_off_c, 2, 50, 79
3, 75360, Note_off_c, 2, 46, 79
3, 75360, Note_off_c, 2, 43, 79
3, 75360, Note_on_c, 2, 67, 79
3, 75360, Note_on_c, 2, 62, 79
3, 75360, Note_on_c, 2, 55, 79
3, 75360, Note_on_c, 2, 50, 79
3, 75360, Note_on_c, 2, 46, 79
3, 75360, Note_on_c, 2, 43, 79
3, 75600, Note_off_c, 2, 67, 79
3, 75600, Note_off_c, 2, 62, 79
3, 75600, Note_off_c, 2, 55, 79
3, 75600, Note_off_c, 2, 50, 79
3, 75600, Note_off_c, 2, 46, 79
3, 75600, Note_off_c, 2, 43, 79
3, 75600, Note_on_c, 2, 67, 79
3, 75600, Note_on_c, 2, 62, 79
3, 75600, Note_on_c, 2, 55, 79
3, 75600, Note_on_c, 2, 50, 79
3, 75600, Note_on_c, 2, 46, 79
3, 75600, Note_on_c, 2, 43, 79
3, 75840, Note_off_c, 2, 67, 79
3, 75840, Note_off_c, 2, 62, 79
3, 75840, Note_off_c, 2, 55, 79
3, 75840, Note_off_c, 2, 50, 79
3, 75840, Note_off_c, 2, 46, 79
3, 75840, Note_off_c, 2, 43, 79
3, 75840, Note_on_c, 2, 67, 79
3, 75840, Note_on_c, 2, 62, 79
3, 75840, Note_on_c, 2, 55, 79
3, 75840, Note_on_c, 2, 50, 79
3, 75840, Note_on_c, 2, 46, 79
3, 75840, Note_on_c, 2, 43, 79
3, 76080, Note_off_c, 2, 67, 79
3, 76080, Note_off_c, 2, 62, 79
3, 76080, Note_off_c, 2, 55, 79
3, 76080, Note_off_c, 2, 50, 79
3, 76080, Note_off_c, 2, 46, 79
3, 76080, Note_off_c, 2, 43, 79
3, 76080, Note_on_c, 2, 67, 79
3, 76080, Note_on_c, 2, 62, 79
3, 76080, Note_on_c, 2, 55, 79
3, 76080, Note_on_c, 2, 50, 79
3, 76080, Note_on_c, 2, 46, 79
3, 76080, Note_on_c, 2, 43, 79
3, 76320, Note_off_c, 2, 67, 79
3, 76320, Note_off_c, 2, 62, 79
3, 76320, Note_off_c, 2, 55, 79
3, 76320, Note_off_c, 2, 50, 79
3, 76320, Note_off_c, 2, 46, 79
3, 76320, Note_off_c, 2, 43, 79
3, 76320, Note_on_c, 2, 67, 79
3, 76320, Note_on_c, 2, 62, 79
3, 76320, Note_on_c, 2, 55, 79
3, 76320, Note_on_c, 2, 50, 79
3, 76320, Note_on_c, 2, 46, 79
3, 76320, Note_on_c, 2, 43, 79
3, 76800, Note_off_c, 2, 67, 79
3, 76800, Note_off_c, 2, 62, 79
3, 76800, Note_off_c, 2, 55, 79
3, 76800, Note_off_c, 2, 50, 79
3, 76800, Note_off_c, 2, 46, 79
3, 76800, Note_off_c, 2, 43, 79
3, 76800, Note_on_c, 2, 67, 79
3, 76800, Note_on_c, 2, 62, 79
3, 76800, Note_on_c, 2, 55, 79
3, 76800, Note_on_c, 2, 50, 79
3, 76800, Note_on_c, 2, 46, 79
3, 76800, Note_on_c, 2, 43, 79
3, 77280, Note_off_c, 2, 67, 79
3, 77280, Note_off_c, 2, 62, 79
3, 77280, Note_off_c, 2, 55, 79
3, 77280, Note_off_c, 2, 50, 79
3, 77280, Note_off_c, 2, 46, 79
3, 77280, Note_off_c, 2, 43, 79
3, 77280, Note_on_c, 2, 67, 79
3, 77280, Note_on_c, 2, 62, 79
3, 77280, Note_on_c, 2, 55, 79
3, 77280, Note_on_c, 2, 50, 79
3, 77280, Note_on_c, 2, 46, 79
3, 77280, Note_on_c, 2, 43, 79
3, 77520, Note_off_c, 2, 67, 79
3, 77520, Note_off_c, 2, 62, 79
3, 77520, Note_off_c, 2, 55, 79
3, 77520, Note_off_c, 2, 50, 79
3, 77520, Note_off_c, 2, 46, 79
3, 77520, Note_off_c, 2, 43, 79
3, 77520, Note_on_c, 2, 67, 79
3, 77520, Note_on_c, 2, 62, 79
3, 77520, Note_on_c, 2, 55, 79
3, 77520, Note_on_c, 2, 50, 79
3, 77520, Note_on_c, 2, 46, 79
3, 77520, Note_on_c, 2, 43, 79
3, 77760, Note_off_c, 2, 67, 79
3, 77760, Note_off_c, 2, 62, 79
3, 77760, Note_off_c, 2, 55, 79
3, 77760, Note_off_c, 2, 50, 79
3, 77760, Note_off_c, 2, 46, 79
3, 77760, Note_off_c, 2, 43, 79
3, 77760, Note_on_c, 2, 67, 79
3, 77760, Note_on_c, 2, 62, 79
3, 77760, Note_on_c, 2, 55, 79
3, 77760, Note_on_c, 2, 50, 79
3, 77760, Note_on_c, 2, 46, 79
3, 77760, Note_on_c, 2, 43, 79
3, 78240, Note_off_c, 2, 67, 79
3, 78240, Note_off_c, 2, 62, 79
3, 78240, Note_off_c, 2, 55, 79
3, 78240, Note_off_c, 2, 50, 79
3, 78240, Note_off_c, 2, 46, 79
3, 78240, Note_off_c, 2, 43, 79
3, 78240, Note_on_c, 2, 67, 79
3, 78240, Note_on_c, 2, 62, 79
3, 78240, Note_on_c, 2, 55, 79
3, 78240, Note_on_c, 2, 50, 79
3, 78240, Note_on_c, 2, 46, 79
3, 78240, Note_on_c, 2, 43, 79
3, 78480, Note_off_c, 2, 67, 79
3, 78480, Note_off_c, 2, 62, 79
3, 78480, Note_off_c, 2, 55, 79
3, 78480, Note_off_c, 2, 50, 79
3, 78480, Note_off_c, 2, 46, 79
3, 78480, Note_off_c, 2, 43, 79
3, 78480, Note_on_c, 2, 67, 79
3, 78480, Note_on_c, 2, 62, 79
3, 78480, Note_on_c, 2, 55, 79
3, 78480, Note_on_c, 2, 50, 79
3, 78480, Note_on_c, 2, 46, 79
3, 78480, Note_on_c, 2, 43, 79
3, 78720, Note_off_c, 2, 67, 79
3, 78720, Note_off_c, 2, 62, 79
3, 78720, Note_off_c, 2, 55, 79
3, 78720, Note_off_c, 2, 50, 79
3, 78720, Note_off_c, 2, 46, 79
3, 78720, Note_off_c, 2, 43, 79
3, 78720, Note_on_c, 2, 67, 79
3, 78720, Note_on_c, 2, 62, 79
3, 78720, Note_on_c, 2, 55, 79
3, 78720, Note_on_c, 2, 50, 79
3, 78720, Note_on_c, 2, 46, 79
3, 78720, Note_on_c, 2, 43, 79
3, 78960, Note_off_c, 2, 67, 79
3, 78960, Note_off_c, 2, 62, 79
3, 78960, Note_off_c, 2, 55, 79
3, 78960, Note_off_c, 2, 50, 79
3, 78960, Note_off_c, 2, 46, 79
3, 78960, Note_off_c, 2, 43, 79
3, 78960, Note_on_c, 2, 67, 79
3, 78960, Note_on_c, 2, 62, 79
3, 78960, Note_on_c, 2, 55, 79
3, 78960, Note_on_c, 2, 50, 79
3, 78960, Note_on_c, 2, 46, 79
3, 78960, Note_on_c, 2, 43, 79
3, 79200, Note_off_c, 2, 67, 79
3, 79200, Note_off_c, 2, 62, 79
3, 79200, Note_off_c, 2, 55, 79
3, 79200, Note_off_c, 2, 50, 79
3, 79200, Note_off_c, 2, 46, 79
3, 79200, Note_off_c, 2, 43, 79
3, 79200, Note_on_c, 2, 67, 79
3, 79200, Note_on_c, 2, 62, 79
3, 79200, Note_on_c, 2, 55, 79
3, 79200, Note_on_c, 2, 50, 79
3, 79200, Note_on_c, 2, 46, 79
3, 79200, Note_on_c, 2, 43, 79
3, 79440, Note_off_c, 2, 67, 79
3, 79440, Note_off_c, 2, 62, 79
3, 79440, Note_off_c, 2, 55, 79
3, 79440, Note_off_c, 2, 50, 79
3, 79440, Note_off_c, 2, 46, 79
3, 79440, Note_off_c, 2, 43, 79
3, 79440, Note_on_c, 2, 67, 79
3, 79440, Note_on_c, 2, 62, 79
3, 79440, Note_on_c, 2, 55, 79
3, 79440, Note_on_c, 2, 50, 79
3, 79440, Note_on_c, 2, 46, 79
3, 79440, Note_on_c, 2, 43, 79
3, 79680, Note_off_c, 2, 67, 79
3, 79680, Note_off_c, 2, 62, 79
3, 79680, Note_off_c, 2, 55, 79
3, 79680, Note_off_c, 2, 50, 79
3, 79680, Note_off_c, 2, 46, 79
3, 79680, Note_off_c, 2, 43, 79
3, 79680, Note_on_c, 2, 67, 79
3, 79680, Note_on_c, 2, 62, 79
3, 79680, Note_on_c, 2, 55, 79
3, 79680, Note_on_c, 2, 50, 79
3, 79680, Note_on_c, 2, 46, 79
3, 79680, Note_on_c, 2, 43, 79
3, 79920, Note_off_c, 2, 67, 79
3, 79920, Note_off_c, 2, 62, 79
3, 79920, Note_off_c, 2, 55, 79
3, 79920, Note_off_c, 2, 50, 79
3, 79920, Note_off_c, 2, 46, 79
3, 79920, Note_off_c, 2, 43, 79
3, 79920, Note_on_c, 2, 67, 79
3, 79920, Note_on_c, 2, 62, 79
3, 79920, Note_on_c, 2, 55, 79
3, 79920, Note_on_c, 2, 50, 79
3, 79920, Note_on_c, 2, 46, 79
3, 79920, Note_on_c, 2, 43, 79
3, 80160, Note_off_c, 2, 67, 79
3, 80160, Note_off_c, 2, 62, 79
3, 80160, Note_off_c, 2, 55, 79
3, 80160, Note_off_c, 2, 50, 79
3, 80160, Note_off_c, 2, 46, 79
3, 80160, Note_off_c, 2, 43, 79
3, 80160, Note_on_c, 2, 67, 79
3, 80160, Note_on_c, 2, 62, 79
3, 80160, Note_on_c, 2, 55, 79
3, 80160, Note_on_c, 2, 50, 79
3, 80160, Note_on_c, 2, 46, 79
3, 80160, Note_on_c, 2, 43, 79
3, 80400, Note_off_c, 2, 67, 79
3, 80400, Note_off_c, 2, 62, 79
3, 80400, Note_off_c, 2, 55, 79
3, 80400, Note_off_c, 2, 50, 79
3, 80400, Note_off_c, 2, 46, 79
3, 80400, Note_off_c, 2, 43, 79
3, 80400, Note_on_c, 2, 67, 79
3, 80400, Note_on_c, 2, 62, 79
3, 80400, Note_on_c, 2, 55, 79
3, 80400, Note_on_c, 2, 50, 79
3, 80400, Note_on_c, 2, 46, 79
3, 80400, Note_on_c, 2, 43, 79
3, 80640, Note_off_c, 2, 67, 79
3, 80640, Note_off_c, 2, 62, 79
3, 80640, Note_off_c, 2, 55, 79
3, 80640, Note_off_c, 2, 50, 79
3, 80640, Note_off_c, 2, 46, 79
3, 80640, Note_off_c, 2, 43, 79
3, 80640, Note_on_c, 2, 65, 79
3, 80640, Note_on_c, 2, 62, 79
3, 80640, Note_on_c, 2, 58, 79
3, 80640, Note_on_c, 2, 50, 79
3, 80640, Note_on_c, 2, 46, 79
3, 81120, Note_off_c, 2, 65, 79
3, 81120, Note_off_c, 2, 62, 79
3, 81120, Note_off_c, 2, 58, 79
3, 81120, Note_off_c, 2, 50, 79
3, 81120, Note_off_c, 2, 46, 79
3, 81120, Note_on_c, 2, 65, 79
3, 81120, Note_on_c, 2, 62, 79
3, 81120, Note_on_c, 2, 58, 79
3, 81120, Note_on_c, 2, 50, 79
3, 81120, Note_on_c, 2, 46, 79
3, 81360, Note_off_c, 2, 65, 79
3, 81360, Note_off_c, 2, 62, 79
3, 81360, Note_off_c, 2, 58, 79
3, 81360, Note_off_c, 2, 50, 79
3, 81360, Note_off_c, 2, 46, 79
3, 81360, Note_on_c, 2, 65, 79
3, 81360, Note_on_c, 2, 62, 79
3, 81360, Note_on_c, 2, 58, 79
3, 81360, Note_on_c, 2, 50, 79
3, 81360, Note_on_c, 2, 46, 79
3, 81600, Note_off_c, 2, 65, 79
3, 81600, Note_off_c, 2, 62, 79
3, 81600, Note_off_c, 2, 58, 79
3, 81600, Note_off_c, 2, 50, 79
3, 81600, Note_off_c, 2, 46, 79
3, 81600, Note_on_c, 2, 65, 79
3, 81600, Note_on_c, 2, 62, 79
3, 81600, Note_on_c, 2, 58, 79
3, 81600, Note_on_c, 2, 50, 79
3, 81600, Note_on_c, 2, 46, 79
3, 82080, Note_off_c, 2, 65, 79
3, 82080, Note_off_c, 2, 62, 79
3, 82080, Note_off_c, 2, 58, 79
3, 82080, Note_off_c, 2, 50, 79
3, 82080, Note_off_c, 2, 46, 79
3, 82080, Note_on_c, 2, 65, 79
3, 82080, Note_on_c, 2, 62, 79
3, 82080, Note_on_c, 2, 58, 79
3, 82080, Note_on_c, 2, 50, 79
3, 82080, Note_on_c, 2, 46, 79
3, 82320, Note_off_c, 2, 65, 79
3, 82320, Note_off_c, 2, 62, 79
3, 82320, Note_off_c, 2, 58, 79
3, 82320, Note_off_c, 2, 50, 79
3, 82320, Note_off_c, 2, 46, 79
3, 82320, Note_on_c, 2, 65, 79
3, 82320, Note_on_c, 2, 62, 79
3, 82320, Note_on_c, 2, 58, 79
3, 82320, Note_on_c, 2, 50, 79
3, 82320, Note_on_c, 2, 46, 79
3, 82560, Note_off_c, 2, 65, 79
3, 82560, Note_off_c, 2, 62, 79
3, 82560, Note_off_c, 2, 58, 79
3, 82560, Note_off_c, 2, 50, 79
3, 82560, Note_off_c, 2, 46, 79
3, 82560, Note_on_c, 2, 65, 79
3, 82560, Note_on_c, 2, 62, 79
3, 82560, Note_on_c, 2, 58, 79
3, 82560, Note_on_c, 2, 50, 79
3, 82560, Note_on_c, 2, 46, 79
3, 82800, Note_off_c, 2, 65, 79
3, 82800, Note_off_c, 2, 62, 79
3, 82800, Note_off_c, 2, 58, 79
3, 82800, Note_off_c, 2, 50, 79
3, 82800, Note_off_c, 2, 46, 79
3, 82800, Note_on_c, 2, 65, 79
3, 82800, Note_on_c, 2, 62, 79
3, 82800, Note_on_c, 2, 58, 79
3, 82800, Note_on_c, 2, 50, 79
3, 82800, Note_on_c, 2, 46, 79
3, 83040, Note_off_c, 2, 65, 79
3, 83040, Note_off_c, 2, 62, 79
3, 83040, Note_off_c, 2, 58, 79
3, 83040, Note_off_c, 2, 50, 79
3, 83040, Note_off_c, 2, 46, 79
3, 83040, Note_on_c, 2, 65, 79
3, 83040, Note_on_c, 2, 62, 79
3, 83040, Note_on_c, 2, 58, 79
3, 83040, Note_on_c, 2, 50, 79
3, 83040, Note_on_c, 2, 46, 79
3, 83280, Note_off_c, 2, 65, 79
3, 83280, Note_off_c, 2, 62, 79
3, 83280, Note_off_c, 2, 58, 79
3, 83280, Note_off_c, 2, 50, 79
3, 83280, Note_off_c, 2, 46, 79
3, 83280, Note_on_c, 2, 65, 79
3, 83280, Note_on_c, 2, 62, 79
3, 83280, Note_on_c, 2, 58, 79
3, 83280, Note_on_c, 2, 50, 79
3, 83280, Note_on_c, 2, 46, 79
3, 83520, Note_off_c, 2, 65, 79
3, 83520, Note_off_c, 2, 62, 79
3, 83520, Note_off_c, 2, 58, 79
3, 83520, Note_off_c, 2, 50, 79
3, 83520, Note_off_c, 2, 46, 79
3, 83520, Note_on_c, 2, 65, 79
3, 83520, Note_on_c, 2, 62, 79
3, 83520, Note_on_c, 2, 58, 79
3, 83520, Note_on_c, 2, 50, 79
3, 83520, Note_on_c, 2, 46, 79
3, 83760, Note_off_c, 2, 65, 79
3, 83760, Note_off_c, 2, 62, 79
3, 83760, Note_off_c, 2, 58, 79
3, 83760, Note_off_c, 2, 50, 79
3, 83760, Note_off_c, 2, 46, 79
3, 83760, Note_on_c, 2, 65, 79
3, 83760, Note_on_c, 2, 62, 79
3, 83760, Note_on_c, 2, 58, 79
3, 83760, Note_on_c, 2, 50, 79
3, 83760, Note_on_c, 2, 46, 79
3, 84000, Note_off_c, 2, 65, 79
3, 84000, Note_off_c, 2, 62, 79
3, 84000, Note_off_c, 2, 58, 79
3, 84000, Note_off_c, 2, 50, 79
3, 84000, Note_off_c, 2, 46, 79
3, 84480, Note_on_c, 2, 67, 79
3, 84480, Note_on_c, 2, 62, 79
3, 84480, Note_on_c, 2, 55, 79
3, 84480, Note_on_c, 2, 50, 79
3, 84480, Note_on_c, 2, 46, 79
3, 84480, Note_on_c, 2, 43, 79
3, 84960, Note_off_c, 2, 67, 79
3, 84960, Note_off_c, 2, 62, 79
3, 84960, Note_off_c, 2, 55, 79
3, 84960, Note_off_c, 2, 50, 79
3, 84960, Note_off_c, 2, 46, 79
3, 84960, Note_off_c, 2, 43, 79
3, 84960, Note_on_c, 2, 67, 79
3, 84960, Note_on_c, 2, 62, 79
3, 84960, Note_on_c, 2, 55, 79
3, 84960, Note_on_c, 2, 50, 79
3, 84960, Note_on_c, 2, 46, 79
3, 84960, Note_on_c, 2, 43, 79
3, 85200, Note_off_c, 2, 67, 79
3, 85200, Note_off_c, 2, 62, 79
3, 85200, Note_off_c, 2, 55, 79
3, 85200, Note_off_c, 2, 50, 79
3, 85200, Note_off_c, 2, 46, 79
3, 85200, Note_off_c, 2, 43, 79
3, 85200, Note_on_c, 2, 67, 79
3, 85200, Note_on_c, 2, 62, 79
3, 85200, Note_on_c, 2, 55, 79
3, 85200, Note_on_c, 2, 50, 79
3, 85200, Note_on_c, 2, 46, 79
3, 85200, Note_on_c, 2, 43, 79
3, 85440, Note_off_c, 2, 67, 79
3, 85440, Note_off_c, 2, 62, 79
3, 85440, Note_off_c, 2, 55, 79
3, 85440, Note_off_c, 2, 50, 79
3, 85440, Note_off_c, 2, 46, 79
3, 85440, Note_off_c, 2, 43, 79
3, 85440, Note_on_c, 2, 67, 79
3, 85440, Note_on_c, 2, 62, 79
3, 85440, Note_on_c, 2, 55, 79
3, 85440, Note_on_c, 2, 50, 79
3, 85440, Note_on_c, 2, 46, 79
3, 85440, Note_on_c, 2, 43, 79
3, 85920, Note_off_c, 2, 67, 79
3, 85920, Note_off_c, 2, 62, 79
3, 85920, Note_off_c, 2, 55, 79
3, 85920, Note_off_c, 2, 50, 79
3, 85920, Note_off_c, 2, 46, 79
3, 85920, Note_off_c, 2, 43, 79
3, 85920, Note_on_c, 2, 67, 79
3, 85920, Note_on_c, 2, 62, 79
3, 85920, Note_on_c, 2, 55, 79
3, 85920, Note_on_c, 2, 50, 79
3, 85920, Note_on_c, 2, 46, 79
3, 85920, Note_on_c, 2, 43, 79
3, 86160, Note_off_c, 2, 67, 79
3, 86160, Note_off_c, 2, 62, 79
3, 86160, Note_off_c, 2, 55, 79
3, 86160, Note_off_c, 2, 50, 79
3, 86160, Note_off_c, 2, 46, 79
3, 86160, Note_off_c, 2, 43, 79
3, 86160, Note_on_c, 2, 67, 79
3, 86160, Note_on_c, 2, 62, 79
3, 86160, Note_on_c, 2, 55, 79
3, 86160, Note_on_c, 2, 50, 79
3, 86160, Note_on_c, 2, 46, 79
3, 86160, Note_on_c, 2, 43, 79
3, 86400, Note_off_c, 2, 67, 79
3, 86400, Note_off_c, 2, 62, 79
3, 86400, Note_off_c, 2, 55, 79
3, 86400, Note_off_c, 2, 50, 79
3, 86400, Note_off_c, 2, 46, 79
3, 86400, Note_off_c, 2, 43, 79
3, 86400, Note_on_c, 2, 67, 79
3, 86400, Note_on_c, 2, 62, 79
3, 86400, Note_on_c, 2, 55, 79
3, 86400, Note_on_c, 2, 50, 79
3, 86400, Note_on_c, 2, 46, 79
3, 86400, Note_on_c, 2, 43, 79
3, 86640, Note_off_c, 2, 67, 79
3, 86640, Note_off_c, 2, 62, 79
3, 86640, Note_off_c, 2, 55, 79
3, 86640, Note_off_c, 2, 50, 79
3, 86640, Note_off_c, 2, 46, 79
3, 86640, Note_off_c, 2, 43, 79
3, 86640, Note_on_c, 2, 67, 79
3, 86640, Note_on_c, 2, 62, 79
3, 86640, Note_on_c, 2, 55, 79
3, 86640, Note_on_c, 2, 50, 79
3, 86640, Note_on_c, 2, 46, 79
3, 86640, Note_on_c, 2, 43, 79
3, 86880, Note_off_c, 2, 67, 79
3, 86880, Note_off_c, 2, 62, 79
3, 86880, Note_off_c, 2, 55, 79
3, 86880, Note_off_c, 2, 50, 79
3, 86880, Note_off_c, 2, 46, 79
3, 86880, Note_off_c, 2, 43, 79
3, 86880, Note_on_c, 2, 67, 79
3, 86880, Note_on_c, 2, 62, 79
3, 86880, Note_on_c, 2, 55, 79
3, 86880, Note_on_c, 2, 50, 79
3, 86880, Note_on_c, 2, 46, 79
3, 86880, Note_on_c, 2, 43, 79
3, 87120, Note_off_c, 2, 67, 79
3, 87120, Note_off_c, 2, 62, 79
3, 87120, Note_off_c, 2, 55, 79
3, 87120, Note_off_c, 2, 50, 79
3, 87120, Note_off_c, 2, 46, 79
3, 87120, Note_off_c, 2, 43, 79
3, 87120, Note_on_c, 2, 67, 79
3, 87120, Note_on_c, 2, 62, 79
3, 87120, Note_on_c, 2, 55, 79
3, 87120, Note_on_c, 2, 50, 79
3, 87120, Note_on_c, 2, 46, 79
3, 87120, Note_on_c, 2, 43, 79
3, 87360, Note_off_c, 2, 67, 79
3, 87360, Note_off_c, 2, 62, 79
3, 87360, Note_off_c, 2, 55, 79
3, 87360, Note_off_c, 2, 50, 79
3, 87360, Note_off_c, 2, 46, 79
3, 87360, Note_off_c, 2, 43, 79
3, 87360, Note_on_c, 2, 67, 79
3, 87360, Note_on_c, 2, 62, 79
3, 87360, Note_on_c, 2, 55, 79
3, 87360, Note_on_c, 2, 50, 79
3, 87360, Note_on_c, 2, 46, 79
3, 87360, Note_on_c, 2, 43, 79
3, 87600, Note_off_c, 2, 67, 79
3, 87600, Note_off_c, 2, 62, 79
3, 87600, Note_off_c, 2, 55, 79
3, 87600, Note_off_c, 2, 50, 79
3, 87600, Note_off_c, 2, 46, 79
3, 87600, Note_off_c, 2, 43, 79
3, 87600, Note_on_c, 2, 67, 79
3, 87600, Note_on_c, 2, 62, 79
3, 87600, Note_on_c, 2, 55, 79
3, 87600, Note_on_c, 2, 50, 79
3, 87600, Note_on_c, 2, 46, 79
3, 87600, Note_on_c, 2, 43, 79
3, 87840, Note_off_c, 2, 67, 79
3, 87840, Note_off_c, 2, 62, 79
3, 87840, Note_off_c, 2, 55, 79
3, 87840, Note_off_c, 2, 50, 79
3, 87840, Note_off_c, 2, 46, 79
3, 87840, Note_off_c, 2, 43, 79
3, 87840, Note_on_c, 2, 67, 79
3, 87840, Note_on_c, 2, 62, 79
3, 87840, Note_on_c, 2, 55, 79
3, 87840, Note_on_c, 2, 50, 79
3, 87840, Note_on_c, 2, 46, 79
3, 87840, Note_on_c, 2, 43, 79
3, 88080, Note_off_c, 2, 67, 79
3, 88080, Note_off_c, 2, 62, 79
3, 88080, Note_off_c, 2, 55, 79
3, 88080, Note_off_c, 2, 50, 79
3, 88080, Note_off_c, 2, 46, 79
3, 88080, Note_off_c, 2, 43, 79
3, 88080, Note_on_c, 2, 67, 79
3, 88080, Note_on_c, 2, 62, 79
3, 88080, Note_on_c, 2, 55, 79
3, 88080, Note_on_c, 2, 50, 79
3, 88080, Note_on_c, 2, 46, 79
3, 88080, Note_on_c, 2, 43, 79
3, 88320, Note_off_c, 2, 67, 79
3, 88320, Note_off_c, 2, 62, 79
3, 88320, Note_off_c, 2, 55, 79
3, 88320, Note_off_c, 2, 50, 79
3, 88320, Note_off_c, 2, 46, 79
3, 88320, Note_off_c, 2, 43, 79
3, 88320, Note_on_c, 2, 67, 79
3, 88320, Note_on_c, 2, 62, 79
3, 88320, Note_on_c, 2, 55, 79
3, 88320, Note_on_c, 2, 50, 79
3, 88320, Note_on_c, 2, 46, 79
3, 88320, Note_on_c, 2, 43, 79
3, 88800, Note_off_c, 2, 67, 79
3, 88800, Note_off_c, 2, 62, 79
3, 88800, Note_off_c, 2, 55, 79
3, 88800, Note_off_c, 2, 50, 79
3, 88800, Note_off_c, 2, 46, 79
3, 88800, Note_off_c, 2, 43, 79
3, 88800, Note_on_c, 2, 67, 79
3, 88800, Note_on_c, 2, 62, 79
3, 88800, Note_on_c, 2, 55, 79
3, 88800, Note_on_c, 2, 50, 79
3, 88800, Note_on_c, 2, 46, 79
3, 88800, Note_on_c, 2, 43, 79
3, 89040, Note_off_c, 2, 67, 79
3, 89040, Note_off_c, 2, 62, 79
3, 89040, Note_off_c, 2, 55, 79
3, 89040, Note_off_c, 2, 50, 79
3, 89040, Note_off_c, 2, 46, 79
3, 89040, Note_off_c, 2, 43, 79
3, 89040, Note_on_c, 2, 67, 79
3, 89040, Note_on_c, 2, 62, 79
3, 89040, Note_on_c, 2, 55, 79
3, 89040, Note_on_c, 2, 50, 79
3, 89040, Note_on_c, 2, 46, 79
3, 89040, Note_on_c, 2, 43, 79
3, 89280, Note_off_c, 2, 67, 79
3, 89280, Note_off_c, 2, 62, 79
3, 89280, Note_off_c, 2, 55, 79
3, 89280, Note_off_c, 2, 50, 79
3, 89280, Note_off_c, 2, 46, 79
3, 89280, Note_off_c, 2, 43, 79
3, 89280, Note_on_c, 2, 67, 79
3, 89280, Note_on_c, 2, 62, 79
3, 89280, Note_on_c, 2, 55, 79
3, 89280, Note_on_c, 2, 50, 79
3, 89280, Note_on_c, 2, 46, 79
3, 89280, Note_on_c, 2, 43, 79
3, 89760, Note_off_c, 2, 67, 79
3, 89760, Note_off_c, 2, 62, 79
3, 89760, Note_off_c, 2, 55, 79
3, 89760, Note_off_c, 2, 50, 79
3, 89760, Note_off_c, 2, 46, 79
3, 89760, Note_off_c, 2, 43, 79
3, 89760, Note_on_c, 2, 67, 79
3, 89760, Note_on_c, 2, 62, 79
3, 89760, Note_on_c, 2, 55, 79
3, 89760, Note_on_c, 2, 50, 79
3, 89760, Note_on_c, 2, 46, 79
3, 89760, Note_on_c, 2, 43, 79
3, 90000, Note_off_c, 2, 67, 79
3, 90000, Note_off_c, 2, 62, 79
3, 90000, Note_off_c, 2, 55, 79
3, 90000, Note_off_c, 2, 50, 79
3, 90000, Note_off_c, 2, 46, 79
3, 90000, Note_off_c, 2, 43, 79
3, 90000, Note_on_c, 2, 67, 79
3, 90000, Note_on_c, 2, 62, 79
3, 90000, Note_on_c, 2, 55, 79
3, 90000, Note_on_c, 2, 50, 79
3, 90000, Note_on_c, 2, 46, 79
3, 90000, Note_on_c, 2, 43, 79
3, 90240, Note_off_c, 2, 67, 79
3, 90240, Note_off_c, 2, 62, 79
3, 90240, Note_off_c, 2, 55, 79
3, 90240, Note_off_c, 2, 50, 79
3, 90240, Note_off_c, 2, 46, 79
3, 90240, Note_off_c, 2, 43, 79
3, 90240, Note_on_c, 2, 67, 79
3, 90240, Note_on_c, 2, 62, 79
3, 90240, Note_on_c, 2, 55, 79
3, 90240, Note_on_c, 2, 50, 79
3, 90240, Note_on_c, 2, 46, 79
3, 90240, Note_on_c, 2, 43, 79
3, 90480, Note_off_c, 2, 67, 79
3, 90480, Note_off_c, 2, 62, 79
3, 90480, Note_off_c, 2, 55, 79
3, 90480, Note_off_c, 2, 50, 79
3, 90480, Note_off_c, 2, 46, 79
3, 90480, Note_off_c, 2, 43, 79
3, 90480, Note_on_c, 2, 67, 79
3, 90480, Note_on_c, 2, 62, 79
3, 90480, Note_on_c, 2, 55, 79
3, 90480, Note_on_c, 2, 50, 79
3, 90480, Note_on_c, 2, 46, 79
3, 90480, Note_on_c, 2, 43, 79
3, 90720, Note_off_c, 2, 67, 79
3, 90720, Note_off_c, 2, 62, 79
3, 90720, Note_off_c, 2, 55, 79
3, 90720, Note_off_c, 2, 50, 79
3, 90720, Note_off_c, 2, 46, 79
3, 90720, Note_off_c, 2, 43, 79
3, 90720, Note_on_c, 2, 67, 79
3, 90720, Note_on_c, 2, 62, 79
3, 90720, Note_on_c, 2, 55, 79
3, 90720, Note_on_c, 2, 50, 79
3, 90720, Note_on_c, 2, 46, 79
3, 90720, Note_on_c, 2, 43, 79
3, 90960, Note_off_c, 2, 67, 79
3, 90960, Note_off_c, 2, 62, 79
3, 90960, Note_off_c, 2, 55, 79
3, 90960, Note_off_c, 2, 50, 79
3, 90960, Note_off_c, 2, 46, 79
3, 90960, Note_off_c, 2, 43, 79
3, 90960, Note_on_c, 2, 67, 79
3, 90960, Note_on_c, 2, 62, 79
3, 90960, Note_on_c, 2, 55, 79
3, 90960, Note_on_c, 2, 50, 79
3, 90960, Note_on_c, 2, 46, 79
3, 90960, Note_on_c, 2, 43, 79
3, 91200, Note_off_c, 2, 67, 79
3, 91200, Note_off_c, 2, 62, 79
3, 91200, Note_off_c, 2, 55, 79
3, 91200, Note_off_c, 2, 50, 79
3, 91200, Note_off_c, 2, 46, 79
3, 91200, Note_off_c, 2, 43, 79
3, 91200, Note_on_c, 2, 67, 79
3, 91200, Note_on_c, 2, 62, 79
3, 91200, Note_on_c, 2, 55, 79
3, 91200, Note_on_c, 2, 50, 79
3, 91200, Note_on_c, 2, 46, 79
3, 91200, Note_on_c, 2, 43, 79
3, 91440, Note_off_c, 2, 67, 79
3, 91440, Note_off_c, 2, 62, 79
3, 91440, Note_off_c, 2, 55, 79
3, 91440, Note_off_c, 2, 50, 79
3, 91440, Note_off_c, 2, 46, 79
3, 91440, Note_off_c, 2, 43, 79
3, 91440, Note_on_c, 2, 67, 79
3, 91440, Note_on_c, 2, 62, 79
3, 91440, Note_on_c, 2, 55, 79
3, 91440, Note_on_c, 2, 50, 79
3, 91440, Note_on_c, 2, 46, 79
3, 91440, Note_on_c, 2, 43, 79
3, 91680, Note_off_c, 2, 67, 79
3, 91680, Note_off_c, 2, 62, 79
3, 91680, Note_off_c, 2, 55, 79
3, 91680, Note_off_c, 2, 50, 79
3, 91680, Note_off_c, 2, 46, 79
3, 91680, Note_off_c, 2, 43, 79
3, 91680, Note_on_c, 2, 67, 79
3, 91680, Note_on_c, 2, 62, 79
3, 91680, Note_on_c, 2, 55, 79
3, 91680, Note_on_c, 2, 50, 79
3, 91680, Note_on_c, 2, 46, 79
3, 91680, Note_on_c, 2, 43, 79
3, 91920, Note_off_c, 2, 67, 79
3, 91920, Note_off_c, 2, 62, 79
3, 91920, Note_off_c, 2, 55, 79
3, 91920, Note_off_c, 2, 50, 79
3, 91920, Note_off_c, 2, 46, 79
3, 91920, Note_off_c, 2, 43, 79
3, 91920, Note_on_c, 2, 67, 79
3, 91920, Note_on_c, 2, 62, 79
3, 91920, Note_on_c, 2, 55, 79
3, 91920, Note_on_c, 2, 50, 79
3, 91920, Note_on_c, 2, 46, 79
3, 91920, Note_on_c, 2, 43, 79
3, 92160, Note_off_c, 2, 67, 79
3, 92160, Note_off_c, 2, 62, 79
3, 92160, Note_off_c, 2, 55, 79
3, 92160, Note_off_c, 2, 50, 79
3, 92160, Note_off_c, 2, 46, 79
3, 92160, Note_off_c, 2, 43, 79
3, 92160, Note_on_c, 2, 67, 79
3, 92160, Note_on_c, 2, 62, 79
3, 92160, Note_on_c, 2, 55, 79
3, 92160, Note_on_c, 2, 50, 79
3, 92160, Note_on_c, 2, 46, 79
3, 92160, Note_on_c, 2, 43, 79
3, 92640, Note_off_c, 2, 67, 79
3, 92640, Note_off_c, 2, 62, 79
3, 92640, Note_off_c, 2, 55, 79
3, 92640, Note_off_c, 2, 50, 79
3, 92640, Note_off_c, 2, 46, 79
3, 92640, Note_off_c, 2, 43, 79
3, 92640, Note_on_c, 2, 67, 79
3, 92640, Note_on_c, 2, 62, 79
3, 92640, Note_on_c, 2, 55, 79
3, 92640, Note_on_c, 2, 50, 79
3, 92640, Note_on_c, 2, 46, 79
3, 92640, Note_on_c, 2, 43, 79
3, 92880, Note_off_c, 2, 67, 79
3, 92880, Note_off_c, 2, 62, 79
3, 92880, Note_off_c, 2, 55, 79
3, 92880, Note_off_c, 2, 50, 79
3, 92880, Note_off_c, 2, 46, 79
3, 92880, Note_off_c, 2, 43, 79
3, 92880, Note_on_c, 2, 67, 79
3, 92880, Note_on_c, 2, 62, 79
3, 92880, Note_on_c, 2, 55, 79
3, 92880, Note_on_c, 2, 50, 79
3, 92880, Note_on_c, 2, 46, 79
3, 92880, Note_on_c, 2, 43, 79
3, 93120, Note_off_c, 2, 67, 79
3, 93120, Note_off_c, 2, 62, 79
3, 93120, Note_off_c, 2, 55, 79
3, 93120, Note_off_c, 2, 50, 79
3, 93120, Note_off_c, 2, 46, 79
3, 93120, Note_off_c, 2, 43, 79
3, 93120, Note_on_c, 2, 67, 79
3, 93120, Note_on_c, 2, 62, 79
3, 93120, Note_on_c, 2, 55, 79
3, 93120, Note_on_c, 2, 50, 79
3, 93120, Note_on_c, 2, 46, 79
3, 93120, Note_on_c, 2, 43, 79
3, 93600, Note_off_c, 2, 67, 79
3, 93600, Note_off_c, 2, 62, 79
3, 93600, Note_off_c, 2, 55, 79
3, 93600, Note_off_c, 2, 50, 79
3, 93600, Note_off_c, 2, 46, 79
3, 93600, Note_off_c, 2, 43, 79
3, 93600, Note_on_c, 2, 67, 79
3, 93600, Note_on_c, 2, 62, 79
3, 93600, Note_on_c, 2, 55, 79
3, 93600, Note_on_c, 2, 50, 79
3, 93600, Note_on_c, 2, 46, 79
3, 93600, Note_on_c, 2, 43, 79
3, 93840, Note_off_c, 2, 67, 79
3, 93840, Note_off_c, 2, 62, 79
3, 93840, Note_off_c, 2, 55, 79
3, 93840, Note_off_c, 2, 50, 79
3, 93840, Note_off_c, 2, 46, 79
3, 93840, Note_off_c, 2, 43, 79
3, 93840, Note_on_c, 2, 67, 79
3, 93840, Note_on_c, 2, 62, 79
3, 93840, Note_on_c, 2, 55, 79
3, 93840, Note_on_c, 2, 50, 79
3, 93840, Note_on_c, 2, 46, 79
3, 93840, Note_on_c, 2, 43, 79
3, 94080, Note_off_c, 2, 67, 79
3, 94080, Note_off_c, 2, 62, 79
3, 94080, Note_off_c, 2, 55, 79
3, 94080, Note_off_c, 2, 50, 79
3, 94080, Note_off_c, 2, 46, 79
3, 94080, Note_off_c, 2, 43, 79
3, 94080, Note_on_c, 2, 67, 79
3, 94080, Note_on_c, 2, 62, 79
3, 94080, Note_on_c, 2, 55, 79
3, 94080, Note_on_c, 2, 50, 79
3, 94080, Note_on_c, 2, 46, 79
3, 94080, Note_on_c, 2, 43, 79
3, 94320, Note_off_c, 2, 67, 79
3, 94320, Note_off_c, 2, 62, 79
3, 94320, Note_off_c, 2, 55, 79
3, 94320, Note_off_c, 2, 50, 79
3, 94320, Note_off_c, 2, 46, 79
3, 94320, Note_off_c, 2, 43, 79
3, 94320, Note_on_c, 2, 67, 79
3, 94320, Note_on_c, 2, 62, 79
3, 94320, Note_on_c, 2, 55, 79
3, 94320, Note_on_c, 2, 50, 79
3, 94320, Note_on_c, 2, 46, 79
3, 94320, Note_on_c, 2, 43, 79
3, 94560, Note_off_c, 2, 67, 79
3, 94560, Note_off_c, 2, 62, 79
3, 94560, Note_off_c, 2, 55, 79
3, 94560, Note_off_c, 2, 50, 79
3, 94560, Note_off_c, 2, 46, 79
3, 94560, Note_off_c, 2, 43, 79
3, 94560, Note_on_c, 2, 67, 79
3, 94560, Note_on_c, 2, 62, 79
3, 94560, Note_on_c, 2, 55, 79
3, 94560, Note_on_c, 2, 50, 79
3, 94560, Note_on_c, 2, 46, 79
3, 94560, Note_on_c, 2, 43, 79
3, 94800, Note_off_c, 2, 67, 79
3, 94800, Note_off_c, 2, 62, 79
3, 94800, Note_off_c, 2, 55, 79
3, 94800, Note_off_c, 2, 50, 79
3, 94800, Note_off_c, 2, 46, 79
3, 94800, Note_off_c, 2, 43, 79
3, 94800, Note_on_c, 2, 67, 79
3, 94800, Note_on_c, 2, 62, 79
3, 94800, Note_on_c, 2, 55, 79
3, 94800, Note_on_c, 2, 50, 79
3, 94800, Note_on_c, 2, 46, 79
3, 94800, Note_on_c, 2, 43, 79
3, 95040, Note_off_c, 2, 67, 79
3, 95040, Note_off_c, 2, 62, 79
3, 95040, Note_off_c, 2, 55, 79
3, 95040, Note_off_c, 2, 50, 79
3, 95040, Note_off_c, 2, 46, 79
3, 95040, Note_off_c, 2, 43, 79
3, 95040, Note_on_c, 2, 67, 79
3, 95040, Note_on_c, 2, 62, 79
3, 95040, Note_on_c, 2, 55, 79
3, 95040, Note_on_c, 2, 50, 79
3, 95040, Note_on_c, 2, 46, 79
3, 95040, Note_on_c, 2, 43, 79
3, 95280, Note_off_c, 2, 67, 79
3, 95280, Note_off_c, 2, 62, 79
3, 95280, Note_off_c, 2, 55, 79
3, 95280, Note_off_c, 2, 50, 79
3, 95280, Note_off_c, 2, 46, 79
3, 95280, Note_off_c, 2, 43, 79
3, 95280, Note_on_c, 2, 67, 79
3, 95280, Note_on_c, 2, 62, 79
3, 95280, Note_on_c, 2, 55, 79
3, 95280, Note_on_c, 2, 50, 79
3, 95280, Note_on_c, 2, 46, 79
3, 95280, Note_on_c, 2, 43, 79
3, 95520, Note_off_c, 2, 67, 79
3, 95520, Note_off_c, 2, 62, 79
3, 95520, Note_off_c, 2, 55, 79
3, 95520, Note_off_c, 2, 50, 79
3, 95520, Note_off_c, 2, 46, 79
3, 95520, Note_off_c, 2, 43, 79
3, 95520, Note_on_c, 2, 67, 79
3, 95520, Note_on_c, 2, 62, 79
3, 95520, Note_on_c, 2, 55, 79
3, 95520, Note_on_c, 2, 50, 79
3, 95520, Note_on_c, 2, 46, 79
3, 95520, Note_on_c, 2, 43, 79
3, 95760, Note_off_c, 2, 67, 79
3, 95760, Note_off_c, 2, 62, 79
3, 95760, Note_off_c, 2, 55, 79
3, 95760, Note_off_c, 2, 50, 79
3, 95760, Note_off_c, 2, 46, 79
3, 95760, Note_off_c, 2, 43, 79
3, 95760, Note_on_c, 2, 67, 79
3, 95760, Note_on_c, 2, 62, 79
3, 95760, Note_on_c, 2, 55, 79
3, 95760, Note_on_c, 2, 50, 79
3, 95760, Note_on_c, 2, 46, 79
3, 95760, Note_on_c, 2, 43, 79
3, 96000, Note_off_c, 2, 67, 79
3, 96000, Note_off_c, 2, 62, 79
3, 96000, Note_off_c, 2, 55, 79
3, 96000, Note_off_c, 2, 50, 79
3, 96000, Note_off_c, 2, 46, 79
3, 96000, Note_off_c, 2, 43, 79
3, 96000, Note_on_c, 2, 65, 79
3, 96000, Note_on_c, 2, 62, 79
3, 96000, Note_on_c, 2, 58, 79
3, 96000, Note_on_c, 2, 50, 79
3, 96000, Note_on_c, 2, 46, 79
3, 96480, Note_off_c, 2, 65, 79
3, 96480, Note_off_c, 2, 62, 79
3, 96480, Note_off_c, 2, 58, 79
3, 96480, Note_off_c, 2, 50, 79
3, 96480, Note_off_c, 2, 46, 79
3, 96480, Note_on_c, 2, 65, 79
3, 96480, Note_on_c, 2, 62, 79
3, 96480, Note_on_c, 2, 58, 79
3, 96480, Note_on_c, 2, 50, 79
3, 96480, Note_on_c, 2, 46, 79
3, 96720, Note_off_c, 2, 65, 79
3, 96720, Note_off_c, 2, 62, 79
3, 96720, Note_off_c, 2, 58, 79
3, 96720, Note_off_c, 2, 50, 79
3, 96720, Note_off_c, 2, 46, 79
3, 96720, Note_on_c, 2, 65, 79
3, 96720, Note_on_c, 2, 62, 79
3, 96720, Note_on_c, 2, 58, 79
3, 96720, Note_on_c, 2, 50, 79
3, 96720, Note_on_c, 2, 46, 79
3, 96960, Note_off_c, 2, 65, 79
3, 96960, Note_off_c, 2, 62, 79
3, 96960, Note_off_c, 2, 58, 79
3, 96960, Note_off_c, 2, 50, 79
3, 96960, Note_off_c, 2, 46, 79
3, 96960, Note_on_c, 2, 65, 79
3, 96960, Note_on_c, 2, 62, 79
3, 96960, Note_on_c, 2, 58, 79
3, 96960, Note_on_c, 2, 50, 79
3, 96960, Note_on_c, 2, 46, 79
3, 97440, Note_off_c, 2, 65, 79
3, 97440, Note_off_c, 2, 62, 79
3, 97440, Note_off_c, 2, 58, 79
3, 97440, Note_off_c, 2, 50, 79
3, 97440, Note_off_c, 2, 46, 79
3, 97440, Note_on_c, 2, 65, 79
3, 97440, Note_on_c, 2, 62, 79
3, 97440, Note_on_c, 2, 58, 79
3, 97440, Note_on_c, 2, 50, 79
3, 97440, Note_on_c, 2, 46, 79
3, 97680, Note_off_c, 2, 65, 79
3, 97680, Note_off_c, 2, 62, 79
3, 97680, Note_off_c, 2, 58, 79
3, 97680, Note_off_c, 2, 50, 79
3, 97680, Note_off_c, 2, 46, 79
3, 97680, Note_on_c, 2, 65, 79
3, 97680, Note_on_c, 2, 62, 79
3, 97680, Note_on_c, 2, 58, 79
3, 97680, Note_on_c, 2, 50, 79
3, 97680, Note_on_c, 2, 46, 79
3, 97920, Note_off_c, 2, 65, 79
3, 97920, Note_off_c, 2, 62, 79
3, 97920, Note_off_c, 2, 58, 79
3, 97920, Note_off_c, 2, 50, 79
3, 97920, Note_off_c, 2, 46, 79
3, 97920, Note_on_c, 2, 65, 79
3, 97920, Note_on_c, 2, 62, 79
3, 97920, Note_on_c, 2, 58, 79
3, 97920, Note_on_c, 2, 50, 79
3, 97920, Note_on_c, 2, 46, 79
3, 98160, Note_off_c, 2, 65, 79
3, 98160, Note_off_c, 2, 62, 79
3, 98160, Note_off_c, 2, 58, 79
3, 98160, Note_off_c, 2, 50, 79
3, 98160, Note_off_c, 2, 46, 79
3, 98160, Note_on_c, 2, 65, 79
3, 98160, Note_on_c, 2, 62, 79
3, 98160, Note_on_c, 2, 58, 79
3, 98160, Note_on_c, 2, 50, 79
3, 98160, Note_on_c, 2, 46, 79
3, 98400, Note_off_c, 2, 65, 79
3, 98400, Note_off_c, 2, 62, 79
3, 98400, Note_off_c, 2, 58, 79
3, 98400, Note_off_c, 2, 50, 79
3, 98400, Note_off_c, 2, 46, 79
3, 98400, Note_on_c, 2, 65, 79
3, 98400, Note_on_c, 2, 62, 79
3, 98400, Note_on_c, 2, 58, 79
3, 98400, Note_on_c, 2, 50, 79
3, 98400, Note_on_c, 2, 46, 79
3, 98640, Note_off_c, 2, 65, 79
3, 98640, Note_off_c, 2, 62, 79
3, 98640, Note_off_c, 2, 58, 79
3, 98640, Note_off_c, 2, 50, 79
3, 98640, Note_off_c, 2, 46, 79
3, 98640, Note_on_c, 2, 65, 79
3, 98640, Note_on_c, 2, 62, 79
3, 98640, Note_on_c, 2, 58, 79
3, 98640, Note_on_c, 2, 50, 79
3, 98640, Note_on_c, 2, 46, 79
3, 98880, Note_off_c, 2, 65, 79
3, 98880, Note_off_c, 2, 62, 79
3, 98880, Note_off_c, 2, 58, 79
3, 98880, Note_off_c, 2, 50, 79
3, 98880, Note_off_c, 2, 46, 79
3, 98880, Note_on_c, 2, 65, 79
3, 98880, Note_on_c, 2, 62, 79
3, 98880, Note_on_c, 2, 58, 79
3, 98880, Note_on_c, 2, 50, 79
3, 98880, Note_on_c, 2, 46, 79
3, 99120, Note_off_c, 2, 65, 79
3, 99120, Note_off_c, 2, 62, 79
3, 99120, Note_off_c, 2, 58, 79
3, 99120, Note_off_c, 2, 50, 79
3, 99120, Note_off_c, 2, 46, 79
3, 99120, Note_on_c, 2, 65, 79
3, 99120, Note_on_c, 2, 62, 79
3, 99120, Note_on_c, 2, 58, 79
3, 99120, Note_on_c, 2, 50, 79
3, 99120, Note_on_c, 2, 46, 79
3, 99360, Note_off_c, 2, 65, 79
3, 99360, Note_off_c, 2, 62, 79
3, 99360, Note_off_c, 2, 58, 79
3, 99360, Note_off_c, 2, 50, 79
3, 99360, Note_off_c, 2, 46, 79
3, 99840, Note_on_c, 2, 67, 79
3, 99840, Note_on_c, 2, 62, 79
3, 99840, Note_on_c, 2, 55, 79
3, 99840, Note_on_c, 2, 50, 79
3, 99840, Note_on_c, 2, 46, 79
3, 99840, Note_on_c, 2, 43, 79
3, 100320, Note_off_c, 2, 67, 79
3, 100320, Note_off_c, 2, 62, 79
3, 100320, Note_off_c, 2, 55, 79
3, 100320, Note_off_c, 2, 50, 79
3, 100320, Note_off_c, 2, 46, 79
3, 100320, Note_off_c, 2, 43, 79
3, 100320, Note_on_c, 2, 67, 79
3, 100320, Note_on_c, 2, 62, 79
3, 100320, Note_on_c, 2, 55, 79
3, 100320, Note_on_c, 2, 50, 79
3, 100320, Note_on_c, 2, 46, 79
3, 100320, Note_on_c, 2, 43, 79
3, 100560, Note_off_c, 2, 67, 79
3, 100560, Note_off_c, 2, 62, 79
3, 100560, Note_off_c, 2, 55, 79
3, 100560, Note_off_c, 2, 50, 79
3, 100560, Note_off_c, 2, 46, 79
3, 100560, Note_off_c, 2, 43, 79
3, 100560, Note_on_c, 2, 67, 79
3, 100560, Note_on_c, 2, 62, 79
3, 100560, Note_on_c, 2, 55, 79
3, 100560, Note_on_c, 2, 50, 79
3, 100560, Note_on_c, 2, 46, 79
3, 100560, Note_on_c, 2, 43, 79
3, 100800, Note_off_c, 2, 67, 79
3, 100800, Note_off_c, 2, 62, 79
3, 100800, Note_off_c, 2, 55, 79
3, 100800, Note_off_c, 2, 50, 79
3, 100800, Note_off_c, 2, 46, 79
3, 100800, Note_off_c, 2, 43, 79
3, 100800, Note_on_c, 2, 67, 79
3, 100800, Note_on_c, 2, 62, 79
3, 100800, Note_on_c, 2, 55, 79
3, 100800, Note_on_c, 2, 50, 79
3, 100800, Note_on_c, 2, 46, 79
3, 100800, Note_on_c, 2, 43, 79
3, 101280, Note_off_c, 2, 67, 79
3, 101280, Note_off_c, 2, 62, 79
3, 101280, Note_off_c, 2, 55, 79
3, 101280, Note_off_c, 2, 50, 79
3, 101280, Note_off_c, 2, 46, 79
3, 101280, Note_off_c, 2, 43, 79
3, 101280, Note_on_c, 2, 67, 79
3, 101280, Note_on_c, 2, 62, 79
3, 101280, Note_on_c, 2, 55, 79
3, 101280, Note_on_c, 2, 50, 79
3, 101280, Note_on_c, 2, 46, 79
3, 101280, Note_on_c, 2, 43, 79
3, 101520, Note_off_c, 2, 67, 79
3, 101520, Note_off_c, 2, 62, 79
3, 101520, Note_off_c, 2, 55, 79
3, 101520, Note_off_c, 2, 50, 79
3, 101520, Note_off_c, 2, 46, 79
3, 101520, Note_off_c, 2, 43, 79
3, 101520, Note_on_c, 2, 67, 79
3, 101520, Note_on_c, 2, 62, 79
3, 101520, Note_on_c, 2, 55, 79
3, 101520, Note_on_c, 2, 50, 79
3, 101520, Note_on_c, 2, 46, 79
3, 101520, Note_on_c, 2, 43, 79
3, 101760, Note_off_c, 2, 67, 79
3, 101760, Note_off_c, 2, 62, 79
3, 101760, Note_off_c, 2, 55, 79
3, 101760, Note_off_c, 2, 50, 79
3, 101760, Note_off_c, 2, 46, 79
3, 101760, Note_off_c, 2, 43, 79
3, 101760, Note_on_c, 2, 67, 79
3, 101760, Note_on_c, 2, 62, 79
3, 101760, Note_on_c, 2, 55, 79
3, 101760, Note_on_c, 2, 50, 79
3, 101760, Note_on_c, 2, 46, 79
3, 101760, Note_on_c, 2, 43, 79
3, 102000, Note_off_c, 2, 67, 79
3, 102000, Note_off_c, 2, 62, 79
3, 102000, Note_off_c, 2, 55, 79
3, 102000, Note_off_c, 2, 50, 79
3, 102000, Note_off_c, 2, 46, 79
3, 102000, Note_off_c, 2, 43, 79
3, 102000, Note_on_c, 2, 67, 79
3, 102000, Note_on_c, 2, 62, 79
3, 102000, Note_on_c, 2, 55, 79
3, 102000, Note_on_c, 2, 50, 79
3, 102000, Note_on_c, 2, 46, 79
3, 102000, Note_on_c, 2, 43, 79
3, 102240, Note_off_c, 2, 67, 79
3, 102240, Note_off_c, 2, 62, 79
3, 102240, Note_off_c, 2, 55, 79
3, 102240, Note_off_c, 2, 50, 79
3, 102240, Note_off_c, 2, 46, 79
3, 102240, Note_off_c, 2, 43, 79
3, 102240, Note_on_c, 2, 67, 79
3, 102240, Note_on_c, 2, 62, 79
3, 102240, Note_on_c, 2, 55, 79
3, 102240, Note_on_c, 2, 50, 79
3, 102240, Note_on_c, 2, 46, 79
3, 102240, Note_on_c, 2, 43, 79
3, 102480, Note_off_c, 2, 67, 79
3, 102480, Note_off_c, 2, 62, 79
3, 102480, Note_off_c, 2, 55, 79
3, 102480, Note_off_c, 2, 50, 79
3, 102480, Note_off_c, 2, 46, 79
3, 102480, Note_off_c, 2, 43, 79
3, 102480, Note_on_c, 2, 67, 79
3, 102480, Note_on_c, 2, 62, 79
3, 102480, Note_on_c, 2, 55, 79
3, 102480, Note_on_c, 2, 50, 79
3, 102480, Note_on_c, 2, 46, 79
3, 102480, Note_on_c, 2, 43, 79
3, 102720, Note_off_c, 2, 67, 79
3, 102720, Note_off_c, 2, 62, 79
3, 102720, Note_off_c, 2, 55, 79
3, 102720, Note_off_c, 2, 50, 79
3, 102720, Note_off_c, 2, 46, 79
3, 102720, Note_off_c, 2, 43, 79
3, 102720, Note_on_c, 2, 67, 79
3, 102720, Note_on_c, 2, 62, 79
3, 102720, Note_on_c, 2, 55, 79
3, 102720, Note_on_c, 2, 50, 79
3, 102720, Note_on_c, 2, 46, 79
3, 102720, Note_on_c, 2, 43, 79
3, 102960, Note_off_c, 2, 67, 79
3, 102960, Note_off_c, 2, 62, 79
3, 102960, Note_off_c, 2, 55, 79
3, 102960, Note_off_c, 2, 50, 79
3, 102960, Note_off_c, 2, 46, 79
3, 102960, Note_off_c, 2, 43, 79
3, 102960, Note_on_c, 2, 67, 79
3, 102960, Note_on_c, 2, 62, 79
3, 102960, Note_on_c, 2, 55, 79
3, 102960, Note_on_c, 2, 50, 79
3, 102960, Note_on_c, 2, 46, 79
3, 102960, Note_on_c, 2, 43, 79
3, 103200, Note_off_c, 2, 67, 79
3, 103200, Note_off_c, 2, 62, 79
3, 103200, Note_off_c, 2, 55, 79
3, 103200, Note_off_c, 2, 50, 79
3, 103200, Note_off_c, 2, 46, 79
3, 103200, Note_off_c, 2, 43, 79
3, 103200, Note_on_c, 2, 67, 79
3, 103200, Note_on_c, 2, 62, 79
3, 103200, Note_on_c, 2, 55, 79
3, 103200, Note_on_c, 2, 50, 79
3, 103200, Note_on_c, 2, 46, 79
3, 103200, Note_on_c, 2, 43, 79
3, 103440, Note_off_c, 2, 67, 79
3, 103440, Note_off_c, 2, 62, 79
3, 103440, Note_off_c, 2, 55, 79
3, 103440, Note_off_c, 2, 50, 79
3, 103440, Note_off_c, 2, 46, 79
3, 103440, Note_off_c, 2, 43, 79
3, 103440, Note_on_c, 2, 67, 79
3, 103440, Note_on_c, 2, 62, 79
3, 103440, Note_on_c, 2, 55, 79
3, 103440, Note_on_c, 2, 50, 79
3, 103440, Note_on_c, 2, 46, 79
3, 103440, Note_on_c, 2, 43, 79
3, 103680, Note_off_c, 2, 67, 79
3, 103680, Note_off_c, 2, 62, 79
3, 103680, Note_off_c, 2, 55, 79
3, 103680, Note_off_c, 2, 50, 79
3, 103680, Note_off_c, 2, 46, 79
3, 103680, Note_off_c, 2, 43, 79
3, 103680, Note_on_c, 2, 67, 79
3, 103680, Note_on_c, 2, 62, 79
3, 103680, Note_on_c, 2, 55, 79
3, 103680, Note_on_c, 2, 50, 79
3, 103680, Note_on_c, 2, 46, 79
3, 103680, Note_on_c, 2, 43, 79
3, 104160, Note_off_c, 2, 67, 79
3, 104160, Note_off_c, 2, 62, 79
3, 104160, Note_off_c, 2, 55, 79
3, 104160, Note_off_c, 2, 50, 79
3, 104160, Note_off_c, 2, 46, 79
3, 104160, Note_off_c, 2, 43, 79
3, 104160, Note_on_c, 2, 67, 79
3, 104160, Note_on_c, 2, 62, 79
3, 104160, Note_on_c, 2, 55, 79
3, 104160, Note_on_c, 2, 50, 79
3, 104160, Note_on_c, 2, 46, 79
3, 104160, Note_on_c, 2, 43, 79
3, 104400, Note_off_c, 2, 67, 79
3, 104400, Note_off_c, 2, 62, 79
3, 104400, Note_off_c, 2, 55, 79
3, 104400, Note_off_c, 2, 50, 79
3, 104400, Note_off_c, 2, 46, 79
3, 104400, Note_off_c, 2, 43, 79
3, 104400, Note_on_c, 2, 67, 79
3, 104400, Note_on_c, 2, 62, 79
3, 104400, Note_on_c, 2, 55, 79
3, 104400, Note_on_c, 2, 50, 79
3, 104400, Note_on_c, 2, 46, 79
3, 104400, Note_on_c, 2, 43, 79
3, 104640, Note_off_c, 2, 67, 79
3, 104640, Note_off_c, 2, 62, 79
3, 104640, Note_off_c, 2, 55, 79
3, 104640, Note_off_c, 2, 50, 79
3, 104640, Note_off_c, 2, 46, 79
3, 104640, Note_off_c, 2, 43, 79
3, 104640, Note_on_c, 2, 67, 79
3, 104640, Note_on_c, 2, 62, 79
3, 104640, Note_on_c, 2, 55, 79
3, 104640, Note_on_c, 2, 50, 79
3, 104640, Note_on_c, 2, 46, 79
3, 104640, Note_on_c, 2, 43, 79
3, 105120, Note_off_c, 2, 67, 79
3, 105120, Note_off_c, 2, 62, 79
3, 105120, Note_off_c, 2, 55, 79
3, 105120, Note_off_c, 2, 50, 79
3, 105120, Note_off_c, 2, 46, 79
3, 105120, Note_off_c, 2, 43, 79
3, 105120, Note_on_c, 2, 67, 79
3, 105120, Note_on_c, 2, 62, 79
3, 105120, Note_on_c, 2, 55, 79
3, 105120, Note_on_c, 2, 50, 79
3, 105120, Note_on_c, 2, 46, 79
3, 105120, Note_on_c, 2, 43, 79
3, 105360, Note_off_c, 2, 67, 79
3, 105360, Note_off_c, 2, 62, 79
3, 105360, Note_off_c, 2, 55, 79
3, 105360, Note_off_c, 2, 50, 79
3, 105360, Note_off_c, 2, 46, 79
3, 105360, Note_off_c, 2, 43, 79
3, 105360, Note_on_c, 2, 67, 79
3, 105360, Note_on_c, 2, 62, 79
3, 105360, Note_on_c, 2, 55, 79
3, 105360, Note_on_c, 2, 50, 79
3, 105360, Note_on_c, 2, 46, 79
3, 105360, Note_on_c, 2, 43, 79
3, 105600, Note_off_c, 2, 67, 79
3, 105600, Note_off_c, 2, 62, 79
3, 105600, Note_off_c, 2, 55, 79
3, 105600, Note_off_c, 2, 50, 79
3, 105600, Note_off_c, 2, 46, 79
3, 105600, Note_off_c, 2, 43, 79
3, 105600, Note_on_c, 2, 67, 79
3, 105600, Note_on_c, 2, 62, 79
3, 105600, Note_on_c, 2, 55, 79
3, 105600, Note_on_c, 2, 50, 79
3, 105600, Note_on_c, 2, 46, 79
3, 105600, Note_on_c, 2, 43, 79
3, 105840, Note_off_c, 2, 67, 79
3, 105840, Note_off_c, 2, 62, 79
3, 105840, Note_off_c, 2, 55, 79
3, 105840, Note_off_c, 2, 50, 79
3, 105840, Note_off_c, 2, 46, 79
3, 105840, Note_off_c, 2, 43, 79
3, 105840, Note_on_c, 2, 67, 79
3, 105840, Note_on_c, 2, 62, 79
3, 105840, Note_on_c, 2, 55, 79
3, 105840, Note_on_c, 2, 50, 79
3, 105840, Note_on_c, 2, 46, 79
3, 105840, Note_on_c, 2, 43, 79
3, 106080, Note_off_c, 2, 67, 79
3, 106080, Note_off_c, 2, 62, 79
3, 106080, Note_off_c, 2, 55, 79
3, 106080, Note_off_c, 2, 50, 79
3, 106080, Note_off_c, 2, 46, 79
3, 106080, Note_off_c, 2, 43, 79
3, 106080, Note_on_c, 2, 67, 79
3, 106080, Note_on_c, 2, 62, 79
3, 106080, Note_on_c, 2, 55, 79
3, 106080, Note_on_c, 2, 50, 79
3, 106080, Note_on_c, 2, 46, 79
3, 106080, Note_on_c, 2, 43, 79
3, 106320, Note_off_c, 2, 67, 79
3, 106320, Note_off_c, 2, 62, 79
3, 106320, Note_off_c, 2, 55, 79
3, 106320, Note_off_c, 2, 50, 79
3, 106320, Note_off_c, 2, 46, 79
3, 106320, Note_off_c, 2, 43, 79
3, 106320, Note_on_c, 2, 67, 79
3, 106320, Note_on_c, 2, 62, 79
3, 106320, Note_on_c, 2, 55, 79
3, 106320, Note_on_c, 2, 50, 79
3, 106320, Note_on_c, 2, 46, 79
3, 106320, Note_on_c, 2, 43, 79
3, 106560, Note_off_c, 2, 67, 79
3, 106560, Note_off_c, 2, 62, 79
3, 106560, Note_off_c, 2, 55, 79
3, 106560, Note_off_c, 2, 50, 79
3, 106560, Note_off_c, 2, 46, 79
3, 106560, Note_off_c, 2, 43, 79
3, 106560, Note_on_c, 2, 67, 79
3, 106560, Note_on_c, 2, 62, 79
3, 106560, Note_on_c, 2, 55, 79
3, 106560, Note_on_c, 2, 50, 79
3, 106560, Note_on_c, 2, 46, 79
3, 106560, Note_on_c, 2, 43, 79
3, 106800, Note_off_c, 2, 67, 79
3, 106800, Note_off_c, 2, 62, 79
3, 106800, Note_off_c, 2, 55, 79
3, 106800, Note_off_c, 2, 50, 79
3, 106800, Note_off_c, 2, 46, 79
3, 106800, Note_off_c, 2, 43, 79
3, 106800, Note_on_c, 2, 67, 79
3, 106800, Note_on_c, 2, 62, 79
3, 106800, Note_on_c, 2, 55, 79
3, 106800, Note_on_c, 2, 50, 79
3, 106800, Note_on_c, 2, 46, 79
3, 106800, Note_on_c, 2, 43, 79
3, 107040, Note_off_c, 2, 67, 79
3, 107040, Note_off_c, 2, 62, 79
3, 107040, Note_off_c, 2, 55, 79
3, 107040, Note_off_c, 2, 50, 79
3, 107040, Note_off_c, 2, 46, 79
3, 107040, Note_off_c, 2, 43, 79
3, 107040, Note_on_c, 2, 67, 79
3, 107040, Note_on_c, 2, 62, 79
3, 107040, Note_on_c, 2, 55, 79
3, 107040, Note_on_c, 2, 50, 79
3, 107040, Note_on_c, 2, 46, 79
3, 107040, Note_on_c, 2, 43, 79
3, 107280, Note_off_c, 2, 67, 79
3, 107280, Note_off_c, 2, 62, 79
3, 107280, Note_off_c, 2, 55, 79
3, 107280, Note_off_c, 2, 50, 79
3, 107280, Note_off_c, 2, 46, 79
3, 107280, Note_off_c, 2, 43, 79
3, 107280, Note_on_c, 2, 67, 79
3, 107280, Note_on_c, 2, 62, 79
3, 107280, Note_on_c, 2, 55, 79
3, 107280, Note_on_c, 2, 50, 79
3, 107280, Note_on_c, 2, 46, 79
3, 107280, Note_on_c, 2, 43, 79
3, 107520, Note_off_c, 2, 67, 79
3, 107520, Note_off_c, 2, 62, 79
3, 107520, Note_off_c, 2, 55, 79
3, 107520, Note_off_c, 2, 50, 79
3, 107520, Note_off_c, 2, 46, 79
3, 107520, Note_off_c, 2, 43, 79
3, 107520, Note_on_c, 2, 67, 79
3, 107520, Note_on_c, 2, 62, 79
3, 107520, Note_on_c, 2, 55, 79
3, 107520, Note_on_c, 2, 50, 79
3, 107520, Note_on_c, 2, 46, 79
3, 107520, Note_on_c, 2, 43, 79
3, 108000, Note_off_c, 2, 67, 79
3, 108000, Note_off_c, 2, 62, 79
3, 108000, Note_off_c, 2, 55, 79
3, 108000, Note_off_c, 2, 50, 79
3, 108000, Note_off_c, 2, 46, 79
3, 108000, Note_off_c, 2, 43, 79
3, 108000, Note_on_c, 2, 67, 79
3, 108000, Note_on_c, 2, 62, 79
3, 108000, Note_on_c, 2, 55, 79
3, 108000, Note_on_c, 2, 50, 79
3, 108000, Note_on_c, 2, 46, 79
3, 108000, Note_on_c, 2, 43, 79
3, 108240, Note_off_c, 2, 67, 79
3, 108240, Note_off_c, 2, 62, 79
3, 108240, Note_off_c, 2, 55, 79
3, 108240, Note_off_c, 2, 50, 79
3, 108240, Note_off_c, 2, 46, 79
3, 108240, Note_off_c, 2, 43, 79
3, 108240, Note_on_c, 2, 67, 79
3, 108240, Note_on_c, 2, 62, 79
3, 108240, Note_on_c, 2, 55, 79
3, 108240, Note_on_c, 2, 50, 79
3, 108240, Note_on_c, 2, 46, 79
3, 108240, Note_on_c, 2, 43, 79
3, 108480, Note_off_c, 2, 67, 79
3, 108480, Note_off_c, 2, 62, 79
3, 108480, Note_off_c, 2, 55, 79
3, 108480, Note_off_c, 2, 50, 79
3, 108480, Note_off_c, 2, 46, 79
3, 108480, Note_off_c, 2, 43, 79
3, 108480, Note_on_c, 2, 67, 79
3, 108480, Note_on_c, 2, 62, 79
3, 108480, Note_on_c, 2, 55, 79
3, 108480, Note_on_c, 2, 50, 79
3, 108480, Note_on_c, 2, 46, 79
3, 108480, Note_on_c, 2, 43, 79
3, 108960, Note_off_c, 2, 67, 79
3, 108960, Note_off_c, 2, 62, 79
3, 108960, Note_off_c, 2, 55, 79
3, 108960, Note_off_c, 2, 50, 79
3, 108960, Note_off_c, 2, 46, 79
3, 108960, Note_off_c, 2, 43, 79
3, 108960, Note_on_c, 2, 67, 79
3, 108960, Note_on_c, 2, 62, 79
3, 108960, Note_on_c, 2, 55, 79
3, 108960, Note_on_c, 2, 50, 79
3, 108960, Note_on_c, 2, 46, 79
3, 108960, Note_on_c, 2, 43, 79
3, 109200, Note_off_c, 2, 67, 79
3, 109200, Note_off_c, 2, 62, 79
3, 109200, Note_off_c, 2, 55, 79
3, 109200, Note_off_c, 2, 50, 79
3, 109200, Note_off_c, 2, 46, 79
3, 109200, Note_off_c, 2, 43, 79
3, 109200, Note_on_c, 2, 67, 79
3, 109200, Note_on_c, 2, 62, 79
3, 109200, Note_on_c, 2, 55, 79
3, 109200, Note_on_c, 2, 50, 79
3, 109200, Note_on_c, 2, 46, 79
3, 109200, Note_on_c, 2, 43, 79
3, 109440, Note_off_c, 2, 67, 79
3, 109440, Note_off_c, 2, 62, 79
3, 109440, Note_off_c, 2, 55, 79
3, 109440, Note_off_c, 2, 50, 79
3, 109440, Note_off_c, 2, 46, 79
3, 109440, Note_off_c, 2, 43, 79
3, 109440, Note_on_c, 2, 67, 79
3, 109440, Note_on_c, 2, 62, 79
3, 109440, Note_on_c, 2, 55, 79
3, 109440, Note_on_c, 2, 50, 79
3, 109440, Note_on_c, 2, 46, 79
3, 109440, Note_on_c, 2, 43, 79
3, 109680, Note_off_c, 2, 67, 79
3, 109680, Note_off_c, 2, 62, 79
3, 109680, Note_off_c, 2, 55, 79
3, 109680, Note_off_c, 2, 50, 79
3, 109680, Note_off_c, 2, 46, 79
3, 109680, Note_off_c, 2, 43, 79
3, 109680, Note_on_c, 2, 67, 79
3, 109680, Note_on_c, 2, 62, 79
3, 109680, Note_on_c, 2, 55, 79
3, 109680, Note_on_c, 2, 50, 79
3, 109680, Note_on_c, 2, 46, 79
3, 109680, Note_on_c, 2, 43, 79
3, 109920, Note_off_c, 2, 67, 79
3, 109920, Note_off_c, 2, 62, 79
3, 109920, Note_off_c, 2, 55, 79
3, 109920, Note_off_c, 2, 50, 79
3, 109920, Note_off_c, 2, 46, 79
3, 109920, Note_off_c, 2, 43, 79
3, 109920, Note_on_c, 2, 67, 79
3, 109920, Note_on_c, 2, 62, 79
3, 109920, Note_on_c, 2, 55, 79
3, 109920, Note_on_c, 2, 50, 79
3, 109920, Note_on_c, 2, 46, 79
3, 109920, Note_on_c, 2, 43, 79
3, 110160, Note_off_c, 2, 67, 79
3, 110160, Note_off_c, 2, 62, 79
3, 110160, Note_off_c, 2, 55, 79
3, 110160, Note_off_c, 2, 50, 79
3, 110160, Note_off_c, 2, 46, 79
3, 110160, Note_off_c, 2, 43, 79
3, 110160, Note_on_c, 2, 67, 79
3, 110160, Note_on_c, 2, 62, 79
3, 110160, Note_on_c, 2, 55, 79
3, 110160, Note_on_c, 2, 50, 79
3, 110160, Note_on_c, 2, 46, 79
3, 110160, Note_on_c, 2, 43, 79
3, 110400, Note_off_c, 2, 67, 79
3, 110400, Note_off_c, 2, 62, 79
3, 110400, Note_off_c, 2, 55, 79
3, 110400, Note_off_c, 2, 50, 79
3, 110400, Note_off_c, 2, 46, 79
3, 110400, Note_off_c, 2, 43, 79
3, 110400, Note_on_c, 2, 67, 79
3, 110400, Note_on_c, 2, 62, 79
3, 110400, Note_on_c, 2, 55, 79
3, 110400, Note_on_c, 2, 50, 79
3, 110400, Note_on_c, 2, 46, 79
3, 110400, Note_on_c, 2, 43, 79
3, 110640, Note_off_c, 2, 67, 79
3, 110640, Note_off_c, 2, 62, 79
3, 110640, Note_off_c, 2, 55, 79
3, 110640, Note_off_c, 2, 50, 79
3, 110640, Note_off_c, 2, 46, 79
3, 110640, Note_off_c, 2, 43, 79
3, 110640, Note_on_c, 2, 67, 79
3, 110640, Note_on_c, 2, 62, 79
3, 110640, Note_on_c, 2, 55, 79
3, 110640, Note_on_c, 2, 50, 79
3, 110640, Note_on_c, 2, 46, 79
3, 110640, Note_on_c, 2, 43, 79
3, 110880, Note_off_c, 2, 67, 79
3, 110880, Note_off_c, 2, 62, 79
3, 110880, Note_off_c, 2, 55, 79
3, 110880, Note_off_c, 2, 50, 79
3, 110880, Note_off_c, 2, 46, 79
3, 110880, Note_off_c, 2, 43, 79
3, 110880, Note_on_c, 2, 67, 79
3, 110880, Note_on_c, 2, 62, 79
3, 110880, Note_on_c, 2, 55, 79
3, 110880, Note_on_c, 2, 50, 79
3, 110880, Note_on_c, 2, 46, 79
3, 110880, Note_on_c, 2, 43, 79
3, 111120, Note_off_c, 2, 67, 79
3, 111120, Note_off_c, 2, 62, 79
3, 111120, Note_off_c, 2, 55, 79
3, 111120, Note_off_c, 2, 50, 79
3, 111120, Note_off_c, 2, 46, 79
3, 111120, Note_off_c, 2, 43, 79
3, 111120, Note_on_c, 2, 67, 79
3, 111120, Note_on_c, 2, 62, 79
3, 111120, Note_on_c, 2, 55, 79
3, 111120, Note_on_c, 2, 50, 79
3, 111120, Note_on_c, 2, 46, 79
3, 111120, Note_on_c, 2, 43, 79
3, 111360, Note_off_c, 2, 67, 79
3, 111360, Note_off_c, 2, 62, 79
3, 111360, Note_off_c, 2, 55, 79
3, 111360, Note_off_c, 2, 50, 79
3, 111360, Note_off_c, 2, 46, 79
3, 111360, Note_off_c, 2, 43, 79
3, 111360, Note_on_c, 2, 65, 79
3, 111360, Note_on_c, 2, 62, 79
3, 111360, Note_on_c, 2, 58, 79
3, 111360, Note_on_c, 2, 50, 79
3, 111360, Note_on_c, 2, 46, 79
3, 111840, Note_off_c, 2, 65, 79
3, 111840, Note_off_c, 2, 62, 79
3, 111840, Note_off_c, 2, 58, 79
3, 111840, Note_off_c, 2, 50, 79
3, 111840, Note_off_c, 2, 46, 79
3, 111840, Note_on_c, 2, 65, 79
3, 111840, Note_on_c, 2, 62, 79
3, 111840, Note_on_c, 2, 58, 79
3, 111840, Note_on_c, 2, 50, 79
3, 111840, Note_on_c, 2, 46, 79
3, 112080, Note_off_c, 2, 65, 79
3, 112080, Note_off_c, 2, 62, 79
3, 112080, Note_off_c, 2, 58, 79
3, 112080, Note_off_c, 2, 50, 79
3, 112080, Note_off_c, 2, 46, 79
3, 112080, Note_on_c, 2, 65, 79
3, 112080, Note_on_c, 2, 62, 79
3, 112080, Note_on_c, 2, 58, 79
3, 112080, Note_on_c, 2, 50, 79
3, 112080, Note_on_c, 2, 46, 79
3, 112320, Note_off_c, 2, 65, 79
3, 112320, Note_off_c, 2, 62, 79
3, 112320, Note_off_c, 2, 58, 79
3, 112320, Note_off_c, 2, 50, 79
3, 112320, Note_off_c, 2, 46, 79
3, 112320, Note_on_c, 2, 65, 79
3, 112320, Note_on_c, 2, 62, 79
3, 112320, Note_on_c, 2, 58, 79
3, 112320, Note_on_c, 2, 50, 79
3, 112320, Note_on_c, 2, 46, 79
3, 112800, Note_off_c, 2, 65, 79
3, 112800, Note_off_c, 2, 62, 79
3, 112800, Note_off_c, 2, 58, 79
3, 112800, Note_off_c, 2, 50, 79
3, 112800, Note_off_c, 2, 46, 79
3, 112800, Note_on_c, 2, 65, 79
3, 112800, Note_on_c, 2, 62, 79
3, 112800, Note_on_c, 2, 58, 79
3, 112800, Note_on_c, 2, 50, 79
3, 112800, Note_on_c, 2, 46, 79
3, 113040, Note_off_c, 2, 65, 79
3, 113040, Note_off_c, 2, 62, 79
3, 113040, Note_off_c, 2, 58, 79
3, 113040, Note_off_c, 2, 50, 79
3, 113040, Note_off_c, 2, 46, 79
3, 113040, Note_on_c, 2, 65, 79
3, 113040, Note_on_c, 2, 62, 79
3, 113040, Note_on_c, 2, 58, 79
3, 113040, Note_on_c, 2, 50, 79
3, 113040, Note_on_c, 2, 46, 79
3, 113280, Note_off_c, 2, 65, 79
3, 113280, Note_off_c, 2, 62, 79
3, 113280, Note_off_c, 2, 58, 79
3, 113280, Note_off_c, 2, 50, 79
3, 113280, Note_off_c, 2, 46, 79
3, 113280, Note_on_c, 2, 65, 79
3, 113280, Note_on_c, 2, 62, 79
3, 113280, Note_on_c, 2, 58, 79
3, 113280, Note_on_c, 2, 50, 79
3, 113280, Note_on_c, 2, 46, 79
3, 113520, Note_off_c, 2, 65, 79
3, 113520, Note_off_c, 2, 62, 79
3, 113520, Note_off_c, 2, 58, 79
3, 113520, Note_off_c, 2, 50, 79
3, 113520, Note_off_c, 2, 46, 79
3, 113520, Note_on_c, 2, 65, 79
3, 113520, Note_on_c, 2, 62, 79
3, 113520, Note_on_c, 2, 58, 79
3, 113520, Note_on_c, 2, 50, 79
3, 113520, Note_on_c, 2, 46, 79
3, 113760, Note_off_c, 2, 65, 79
3, 113760, Note_off_c, 2, 62, 79
3, 113760, Note_off_c, 2, 58, 79
3, 113760, Note_off_c, 2, 50, 79
3, 113760, Note_off_c, 2, 46, 79
3, 113760, Note_on_c, 2, 65, 79
3, 113760, Note_on_c, 2, 62, 79
3, 113760, Note_on_c, 2, 58, 79
3, 113760, Note_on_c, 2, 50, 79
3, 113760, Note_on_c, 2, 46, 79
3, 114000, Note_off_c, 2, 65, 79
3, 114000, Note_off_c, 2, 62, 79
3, 114000, Note_off_c, 2, 58, 79
3, 114000, Note_off_c, 2, 50, 79
3, 114000, Note_off_c, 2, 46, 79
3, 114000, Note_on_c, 2, 65, 79
3, 114000, Note_on_c, 2, 62, 79
3, 114000, Note_on_c, 2, 58, 79
3, 114000, Note_on_c, 2, 50, 79
3, 114000, Note_on_c, 2, 46, 79
3, 114240, Note_off_c, 2, 65, 79
3, 114240, Note_off_c, 2, 62, 79
3, 114240, Note_off_c, 2, 58, 79
3, 114240, Note_off_c, 2, 50, 79
3, 114240, Note_off_c, 2, 46, 79
3, 114240, Note_on_c, 2, 65, 79
3, 114240, Note_on_c, 2, 62, 79
3, 114240, Note_on_c, 2, 58, 79
3, 114240, Note_on_c, 2, 50, 79
3, 114240, Note_on_c, 2, 46, 79
3, 114480, Note_off_c, 2, 65, 79
3, 114480, Note_off_c, 2, 62, 79
3, 114480, Note_off_c, 2, 58, 79
3, 114480, Note_off_c, 2, 50, 79
3, 114480, Note_off_c, 2, 46, 79
3, 114480, Note_on_c, 2, 65, 79
3, 114480, Note_on_c, 2, 62, 79
3, 114480, Note_on_c, 2, 58, 79
3, 114480, Note_on_c, 2, 50, 79
3, 114480, Note_on_c, 2, 46, 79
3, 114720, Note_off_c, 2, 65, 79
3, 114720, Note_off_c, 2, 62, 79
3, 114720, Note_off_c, 2, 58, 79
3, 114720, Note_off_c, 2, 50, 79
3, 114720, Note_off_c, 2, 46, 79
3, 115200, Note_on_c, 2, 67, 79
3, 115200, Note_on_c, 2, 62, 79
3, 115200, Note_on_c, 2, 55, 79
3, 115200, Note_on_c, 2, 50, 79
3, 115200, Note_on_c, 2, 46, 79
3, 115200, Note_on_c, 2, 43, 79
3, 115680, Note_off_c, 2, 67, 79
3, 115680, Note_off_c, 2, 62, 79
3, 115680, Note_off_c, 2, 55, 79
3, 115680, Note_off_c, 2, 50, 79
3, 115680, Note_off_c, 2, 46, 79
3, 115680, Note_off_c, 2, 43, 79
3, 115680, Note_on_c, 2, 67, 79
3, 115680, Note_on_c, 2, 62, 79
3, 115680, Note_on_c, 2, 55, 79
3, 115680, Note_on_c, 2, 50, 79
3, 115680, Note_on_c, 2, 46, 79
3, 115680, Note_on_c, 2, 43, 79
3, 115920, Note_off_c, 2, 67, 79
3, 115920, Note_off_c, 2, 62, 79
3, 115920, Note_off_c, 2, 55, 79
3, 115920, Note_off_c, 2, 50, 79
3, 115920, Note_off_c, 2, 46, 79
3, 115920, Note_off_c, 2, 43, 79
3, 115920, Note_on_c, 2, 67, 79
3, 115920, Note_on_c, 2, 62, 79
3, 115920, Note_on_c, 2, 55, 79
3, 115920, Note_on_c, 2, 50, 79
3, 115920, Note_on_c, 2, 46, 79
3, 115920, Note_on_c, 2, 43, 79
3, 116160, Note_off_c, 2, 67, 79
3, 116160, Note_off_c, 2, 62, 79
3, 116160, Note_off_c, 2, 55, 79
3, 116160, Note_off_c, 2, 50, 79
3, 116160, Note_off_c, 2, 46, 79
3, 116160, Note_off_c, 2, 43, 79
3, 116160, Note_on_c, 2, 67, 79
3, 116160, Note_on_c, 2, 62, 79
3, 116160, Note_on_c, 2, 55, 79
3, 116160, Note_on_c, 2, 50, 79
3, 116160, Note_on_c, 2, 46, 79
3, 116160, Note_on_c, 2, 43, 79
3, 116640, Note_off_c, 2, 67, 79
3, 116640, Note_off_c, 2, 62, 79
3, 116640, Note_off_c, 2, 55, 79
3, 116640, Note_off_c, 2, 50, 79
3, 116640, Note_off_c, 2, 46, 79
3, 116640, Note_off_c, 2, 43, 79
3, 116640, Note_on_c, 2, 67, 79
3, 116640, Note_on_c, 2, 62, 79
3, 116640, Note_on_c, 2, 55, 79
3, 116640, Note_on_c, 2, 50, 79
3, 116640, Note_on_c, 2, 46, 79
3, 116640, Note_on_c, 2, 43, 79
3, 116880, Note_off_c, 2, 67, 79
3, 116880, Note_off_c, 2, 62, 79
3, 116880, Note_off_c, 2, 55, 79
3, 116880, Note_off_c, 2, 50, 79
3, 116880, Note_off_c, 2, 46, 79
3, 116880, Note_off_c, 2, 43, 79
3, 116880, Note_on_c, 2, 67, 79
3, 116880, Note_on_c, 2, 62, 79
3, 116880, Note_on_c, 2, 55, 79
3, 116880, Note_on_c, 2, 50, 79
3, 116880, Note_on_c, 2, 46, 79
3, 116880, Note_on_c, 2, 43, 79
3, 117120, Note_off_c, 2, 67, 79
3, 117120, Note_off_c, 2, 62, 79
3, 117120, Note_off_c, 2, 55, 79
3, 117120, Note_off_c, 2, 50, 79
3, 117120, Note_off_c, 2, 46, 79
3, 117120, Note_off_c, 2, 43, 79
3, 117120, Note_on_c, 2, 67, 79
3, 117120, Note_on_c, 2, 62, 79
3, 117120, Note_on_c, 2, 55, 79
3, 117120, Note_on_c, 2, 50, 79
3, 117120, Note_on_c, 2, 46, 79
3, 117120, Note_on_c, 2, 43, 79
3, 117360, Note_off_c, 2, 67, 79
3, 117360, Note_off_c, 2, 62, 79
3, 117360, Note_off_c, 2, 55, 79
3, 117360, Note_off_c, 2, 50, 79
3, 117360, Note_off_c, 2, 46, 79
3, 117360, Note_off_c, 2, 43, 79
3, 117360, Note_on_c, 2, 67, 79
3, 117360, Note_on_c, 2, 62, 79
3, 117360, Note_on_c, 2, 55, 79
3, 117360, Note_on_c, 2, 50, 79
3, 117360, Note_on_c, 2, 46, 79
3, 117360, Note_on_c, 2, 43, 79
3, 117600, Note_off_c, 2, 67, 79
3, 117600, Note_off_c, 2, 62, 79
3, 117600, Note_off_c, 2, 55, 79
3, 117600, Note_off_c, 2, 50, 79
3, 117600, Note_off_c, 2, 46, 79
3, 117600, Note_off_c, 2, 43, 79
3, 117600, Note_on_c, 2, 67, 79
3, 117600, Note_on_c, 2, 62, 79
3, 117600, Note_on_c, 2, 55, 79
3, 117600, Note_on_c, 2, 50, 79
3, 117600, Note_on_c, 2, 46, 79
3, 117600, Note_on_c, 2, 43, 79
3, 117840, Note_off_c, 2, 67, 79
3, 117840, Note_off_c, 2, 62, 79
3, 117840, Note_off_c, 2, 55, 79
3, 117840, Note_off_c, 2, 50, 79
3, 117840, Note_off_c, 2, 46, 79
3, 117840, Note_off_c, 2, 43, 79
3, 117840, Note_on_c, 2, 67, 79
3, 117840, Note_on_c, 2, 62, 79
3, 117840, Note_on_c, 2, 55, 79
3, 117840, Note_on_c, 2, 50, 79
3, 117840, Note_on_c, 2, 46, 79
3, 117840, Note_on_c, 2, 43, 79
3, 118080, Note_off_c, 2, 67, 79
3, 118080, Note_off_c, 2, 62, 79
3, 118080, Note_off_c, 2, 55, 79
3, 118080, Note_off_c, 2, 50, 79
3, 118080, Note_off_c, 2, 46, 79
3, 118080, Note_off_c, 2, 43, 79
3, 118080, Note_on_c, 2, 67, 79
3, 118080, Note_on_c, 2, 62, 79
3, 118080, Note_on_c, 2, 55, 79
3, 118080, Note_on_c, 2, 50, 79
3, 118080, Note_on_c, 2, 46, 79
3, 118080, Note_on_c, 2, 43, 79
3, 118320, Note_off_c, 2, 67, 79
3, 118320, Note_off_c, 2, 62, 79
3, 118320, Note_off_c, 2, 55, 79
3, 118320, Note_off_c, 2, 50, 79
3, 118320, Note_off_c, 2, 46, 79
3, 118320, Note_off_c, 2, 43, 79
3, 118320, Note_on_c, 2, 67, 79
3, 118320, Note_on_c, 2, 62, 79
3, 118320, Note_on_c, 2, 55, 79
3, 118320, Note_on_c, 2, 50, 79
3, 118320, Note_on_c, 2, 46, 79
3, 118320, Note_on_c, 2, 43, 79
3, 118560, Note_off_c, 2, 67, 79
3, 118560, Note_off_c, 2, 62, 79
3, 118560, Note_off_c, 2, 55, 79
3, 118560, Note_off_c, 2, 50, 79
3, 118560, Note_off_c, 2, 46, 79
3, 118560, Note_off_c, 2, 43, 79
3, 118560, Note_on_c, 2, 67, 79
3, 118560, Note_on_c, 2, 62, 79
3, 118560, Note_on_c, 2, 55, 79
3, 118560, Note_on_c, 2, 50, 79
3, 118560, Note_on_c, 2, 46, 79
3, 118560, Note_on_c, 2, 43, 79
3, 118800, Note_off_c, 2, 67, 79
3, 118800, Note_off_c, 2, 62, 79
3, 118800, Note_off_c, 2, 55, 79
3, 118800, Note_off_c, 2, 50, 79
3, 118800, Note_off_c, 2, 46, 79
3, 118800, Note_off_c, 2, 43, 79
3, 118800, Note_on_c, 2, 67, 79
3, 118800, Note_on_c, 2, 62, 79
3, 118800, Note_on_c, 2, 55, 79
3, 118800, Note_on_c, 2, 50, 79
3, 118800, Note_on_c, 2, 46, 79
3, 118800, Note_on_c, 2, 43, 79
3, 119040, Note_off_c, 2, 67, 79
3, 119040, Note_off_c, 2, 62, 79
3, 119040, Note_off_c, 2, 55, 79
3, 119040, Note_off_c, 2, 50, 79
3, 119040, Note_off_c, 2, 46, 79
3, 119040, Note_off_c, 2, 43, 79
3, 119040, Note_on_c, 2, 67, 79
3, 119040, Note_on_c, 2, 62, 79
3, 119040, Note_on_c, 2, 55, 79
3, 119040, Note_on_c, 2, 50, 79
3, 119040, Note_on_c, 2, 46, 79
3, 119040, Note_on_c, 2, 43, 79
3, 119520, Note_off_c, 2, 67, 79
3, 119520, Note_off_c, 2, 62, 79
3, 119520, Note_off_c, 2, 55, 79
3, 119520, Note_off_c, 2, 50, 79
3, 119520, Note_off_c, 2, 46, 79
3, 119520, Note_off_c, 2, 43, 79
3, 119520, Note_on_c, 2, 67, 79
3, 119520, Note_on_c, 2, 62, 79
3, 119520, Note_on_c, 2, 55, 79
3, 119520, Note_on_c, 2, 50, 79
3, 119520, Note_on_c, 2, 46, 79
3, 119520, Note_on_c, 2, 43, 79
3, 119760, Note_off_c, 2, 67, 79
3, 119760, Note_off_c, 2, 62, 79
3, 119760, Note_off_c, 2, 55, 79
3, 119760, Note_off_c, 2, 50, 79
3, 119760, Note_off_c, 2, 46, 79
3, 119760, Note_off_c, 2, 43, 79
3, 119760, Note_on_c, 2, 67, 79
3, 119760, Note_on_c, 2, 62, 79
3, 119760, Note_on_c, 2, 55, 79
3, 119760, Note_on_c, 2, 50, 79
3, 119760, Note_on_c, 2, 46, 79
3, 119760, Note_on_c, 2, 43, 79
3, 120000, Note_off_c, 2, 67, 79
3, 120000, Note_off_c, 2, 62, 79
3, 120000, Note_off_c, 2, 55, 79
3, 120000, Note_off_c, 2, 50, 79
3, 120000, Note_off_c, 2, 46, 79
3, 120000, Note_off_c, 2, 43, 79
3, 120000, Note_on_c, 2, 67, 79
3, 120000, Note_on_c, 2, 62, 79
3, 120000, Note_on_c, 2, 55, 79
3, 120000, Note_on_c, 2, 50, 79
3, 120000, Note_on_c, 2, 46, 79
3, 120000, Note_on_c, 2, 43, 79
3, 120480, Note_off_c, 2, 67, 79
3, 120480, Note_off_c, 2, 62, 79
3, 120480, Note_off_c, 2, 55, 79
3, 120480, Note_off_c, 2, 50, 79
3, 120480, Note_off_c, 2, 46, 79
3, 120480, Note_off_c, 2, 43, 79
3, 120480, Note_on_c, 2, 67, 79
3, 120480, Note_on_c, 2, 62, 79
3, 120480, Note_on_c, 2, 55, 79
3, 120480, Note_on_c, 2, 50, 79
3, 120480, Note_on_c, 2, 46, 79
3, 120480, Note_on_c, 2, 43, 79
3, 120720, Note_off_c, 2, 67, 79
3, 120720, Note_off_c, 2, 62, 79
3, 120720, Note_off_c, 2, 55, 79
3, 120720, Note_off_c, 2, 50, 79
3, 120720, Note_off_c, 2, 46, 79
3, 120720, Note_off_c, 2, 43, 79
3, 120720, Note_on_c, 2, 67, 79
3, 120720, Note_on_c, 2, 62, 79
3, 120720, Note_on_c, 2, 55, 79
3, 120720, Note_on_c, 2, 50, 79
3, 120720, Note_on_c, 2, 46, 79
3, 120720, Note_on_c, 2, 43, 79
3, 120960, Note_off_c, 2, 67, 79
3, 120960, Note_off_c, 2, 62, 79
3, 120960, Note_off_c, 2, 55, 79
3, 120960, Note_off_c, 2, 50, 79
3, 120960, Note_off_c, 2, 46, 79
3, 120960, Note_off_c, 2, 43, 79
3, 120960, Note_on_c, 2, 67, 79
3, 120960, Note_on_c, 2, 62, 79
3, 120960, Note_on_c, 2, 55, 79
3, 120960, Note_on_c, 2, 50, 79
3, 120960, Note_on_c, 2, 46, 79
3, 120960, Note_on_c, 2, 43, 79
3, 121200, Note_off_c, 2, 67, 79
3, 121200, Note_off_c, 2, 62, 79
3, 121200, Note_off_c, 2, 55, 79
3, 121200, Note_off_c, 2, 50, 79
3, 121200, Note_off_c, 2, 46, 79
3, 121200, Note_off_c, 2, 43, 79
3, 121200, Note_on_c, 2, 67, 79
3, 121200, Note_on_c, 2, 62, 79
3, 121200, Note_on_c, 2, 55, 79
3, 121200, Note_on_c, 2, 50, 79
3, 121200, Note_on_c, 2, 46, 79
3, 121200, Note_on_c, 2, 43, 79
3, 121440, Note_off_c, 2, 67, 79
3, 121440, Note_off_c, 2, 62, 79
3, 121440, Note_off_c, 2, 55, 79
3, 121440, Note_off_c, 2, 50, 79
3, 121440, Note_off_c, 2, 46, 79
3, 121440, Note_off_c, 2, 43, 79
3, 121440, Note_on_c, 2, 67, 79
3, 121440, Note_on_c, 2, 62, 79
3, 121440, Note_on_c, 2, 55, 79
3, 121440, Note_on_c, 2, 50, 79
3, 121440, Note_on_c, 2, 46, 79
3, 121440, Note_on_c, 2, 43, 79
3, 121680, Note_off_c, 2, 67, 79
3, 121680, Note_off_c, 2, 62, 79
3, 121680, Note_off_c, 2, 55, 79
3, 121680, Note_off_c, 2, 50, 79
3, 121680, Note_off_c, 2, 46, 79
3, 121680, Note_off_c, 2, 43, 79
3, 121680, Note_on_c, 2, 67, 79
3, 121680, Note_on_c, 2, 62, 79
3, 121680, Note_on_c, 2, 55, 79
3, 121680, Note_on_c, 2, 50, 79
3, 121680, Note_on_c, 2, 46, 79
3, 121680, Note_on_c, 2, 43, 79
3, 121920, Note_off_c, 2, 67, 79
3, 121920, Note_off_c, 2, 62, 79
3, 121920, Note_off_c, 2, 55, 79
3, 121920, Note_off_c, 2, 50, 79
3, 121920, Note_off_c, 2, 46, 79
3, 121920, Note_off_c, 2, 43, 79
3, 121920, Note_on_c, 2, 67, 79
3, 121920, Note_on_c, 2, 62, 79
3, 121920, Note_on_c, 2, 55, 79
3, 121920, Note_on_c, 2, 50, 79
3, 121920, Note_on_c, 2, 46, 79
3, 121920, Note_on_c, 2, 43, 79
3, 122160, Note_off_c, 2, 67, 79
3, 122160, Note_off_c, 2, 62, 79
3, 122160, Note_off_c, 2, 55, 79
3, 122160, Note_off_c, 2, 50, 79
3, 122160, Note_off_c, 2, 46, 79
3, 122160, Note_off_c, 2, 43, 79
3, 122160, Note_on_c, 2, 67, 79
3, 122160, Note_on_c, 2, 62, 79
3, 122160, Note_on_c, 2, 55, 79
3, 122160, Note_on_c, 2, 50, 79
3, 122160, Note_on_c, 2, 46, 79
3, 122160, Note_on_c, 2, 43, 79
3, 122400, Note_off_c, 2, 67, 79
3, 122400, Note_off_c, 2, 62, 79
3, 122400, Note_off_c, 2, 55, 79
3, 122400, Note_off_c, 2, 50, 79
3, 122400, Note_off_c, 2, 46, 79
3, 122400, Note_off_c, 2, 43, 79
3, 122400, Note_on_c, 2, 67, 79
3, 122400, Note_on_c, 2, 62, 79
3, 122400, Note_on_c, 2, 55, 79
3, 122400, Note_on_c, 2, 50, 79
3, 122400, Note_on_c, 2, 46, 79
3, 122400, Note_on_c, 2, 43, 79
3, 122640, Note_off_c, 2, 67, 79
3, 122640, Note_off_c, 2, 62, 79
3, 122640, Note_off_c, 2, 55, 79
3, 122640, Note_off_c, 2, 50, 79
3, 122640, Note_off_c, 2, 46, 79
3, 122640, Note_off_c, 2, 43, 79
3, 122640, Note_on_c, 2, 67, 79
3, 122640, Note_on_c, 2, 62, 79
3, 122640, Note_on_c, 2, 55, 79
3, 122640, Note_on_c, 2, 50, 79
3, 122640, Note_on_c, 2, 46, 79
3, 122640, Note_on_c, 2, 43, 79
3, 122880, Note_off_c, 2, 67, 79
3, 122880, Note_off_c, 2, 62, 79
3, 122880, Note_off_c, 2, 55, 79
3, 122880, Note_off_c, 2, 50, 79
3, 122880, Note_off_c, 2, 46, 79
3, 122880, Note_off_c, 2, 43, 79
3, 122880, Note_on_c, 2, 65, 79
3, 122880, Note_on_c, 2, 62, 79
3, 122880, Note_on_c, 2, 58, 79
3, 122880, Note_on_c, 2, 50, 79
3, 122880, Note_on_c, 2, 46, 79
3, 123360, Note_off_c, 2, 65, 79
3, 123360, Note_off_c, 2, 62, 79
3, 123360, Note_off_c, 2, 58, 79
3, 123360, Note_off_c, 2, 50, 79
3, 123360, Note_off_c, 2, 46, 79
3, 123360, Note_on_c, 2, 65, 79
3, 123360, Note_on_c, 2, 62, 79
3, 123360, Note_on_c, 2, 58, 79
3, 123360, Note_on_c, 2, 50, 79
3, 123360, Note_on_c, 2, 46, 79
3, 123600, Note_off_c, 2, 65, 79
3, 123600, Note_off_c, 2, 62, 79
3, 123600, Note_off_c, 2, 58, 79
3, 123600, Note_off_c, 2, 50, 79
3, 123600, Note_off_c, 2, 46, 79
3, 123600, Note_on_c, 2, 65, 79
3, 123600, Note_on_c, 2, 62, 79
3, 123600, Note_on_c, 2, 58, 79
3, 123600, Note_on_c, 2, 50, 79
3, 123600, Note_on_c, 2, 46, 79
3, 123840, Note_off_c, 2, 65, 79
3, 123840, Note_off_c, 2, 62, 79
3, 123840, Note_off_c, 2, 58, 79
3, 123840, Note_off_c, 2, 50, 79
3, 123840, Note_off_c, 2, 46, 79
3, 123840, Note_on_c, 2, 65, 79
3, 123840, Note_on_c, 2, 62, 79
3, 123840, Note_on_c, 2, 58, 79
3, 123840, Note_on_c, 2, 50, 79
3, 123840, Note_on_c, 2, 46, 79
3, 124320, Note_off_c, 2, 65, 79
3, 124320, Note_off_c, 2, 62, 79
3, 124320, Note_off_c, 2, 58, 79
3, 124320, Note_off_c, 2, 50, 79
3, 124320, Note_off_c, 2, 46, 79
3, 124320, Note_on_c, 2, 65, 79
3, 124320, Note_on_c, 2, 62, 79
3, 124320, Note_on_c, 2, 58, 79
3, 124320, Note_on_c, 2, 50, 79
3, 124320, Note_on_c, 2, 46, 79
3, 125040, Note_off_c, 2, 65, 79
3, 125040, Note_off_c, 2, 62, 79
3, 125040, Note_off_c, 2, 58, 79
3, 125040, Note_off_c, 2, 50, 79
3, 125040, Note_off_c, 2, 46, 79
3, 125040, Note_on_c, 2, 65, 79
3, 125040, Note_on_c, 2, 62, 79
3, 125040, Note_on_c, 2, 58, 79
3, 125040, Note_on_c, 2, 50, 79
3, 125040, Note_on_c, 2, 46, 79
3, 125280, Note_off_c, 2, 65, 79
3, 125280, Note_off_c, 2, 62, 79
3, 125280, Note_off_c, 2, 58, 79
3, 125280, Note_off_c, 2, 50, 79
3, 125280, Note_off_c, 2, 46, 79
3, 125280, Note_on_c, 2, 65, 79
3, 125280, Note_on_c, 2, 62, 79
3, 125280, Note_on_c, 2, 58, 79
3, 125280, Note_on_c, 2, 50, 79
3, 125280, Note_on_c, 2, 46, 79
3, 125760, Note_off_c, 2, 65, 79
3, 125760, Note_off_c, 2, 62, 79
3, 125760, Note_off_c, 2, 58, 79
3, 125760, Note_off_c, 2, 50, 79
3, 125760, Note_off_c, 2, 46, 79
3, 125760, Note_on_c, 2, 65, 79
3, 125760, Note_on_c, 2, 62, 79
3, 125760, Note_on_c, 2, 58, 79
3, 125760, Note_on_c, 2, 50, 79
3, 125760, Note_on_c, 2, 46, 79
3, 126240, Note_off_c, 2, 65, 79
3, 126240, Note_off_c, 2, 62, 79
3, 126240, Note_off_c, 2, 58, 79
3, 126240, Note_off_c, 2, 50, 79
3, 126240, Note_off_c, 2, 46, 79
3, 126240, Note_on_c, 2, 65, 79
3, 126240, Note_on_c, 2, 62, 79
3, 126240, Note_on_c, 2, 58, 79
3, 126240, Note_on_c, 2, 50, 79
3, 126240, Note_on_c, 2, 46, 79
3, 126720, Note_off_c, 2, 65, 79
3, 126720, Note_off_c, 2, 62, 79
3, 126720, Note_off_c, 2, 58, 79
3, 126720, Note_off_c, 2, 50, 79
3, 126720, Note_off_c, 2, 46, 79
3, 126720, Note_on_c, 2, 67, 79
3, 126720, Note_on_c, 2, 62, 79
3, 126720, Note_on_c, 2, 55, 79
3, 126720, Note_on_c, 2, 50, 79
3, 126720, Note_on_c, 2, 46, 79
3, 126720, Note_on_c, 2, 43, 79
3, 127440, Note_off_c, 2, 67, 79
3, 127440, Note_off_c, 2, 62, 79
3, 127440, Note_off_c, 2, 55, 79
3, 127440, Note_off_c, 2, 50, 79
3, 127440, Note_off_c, 2, 46, 79
3, 127440, Note_off_c, 2, 43, 79
3, 127440, Note_on_c, 2, 67, 79
3, 127440, Note_on_c, 2, 62, 79
3, 127440, Note_on_c, 2, 55, 79
3, 127440, Note_on_c, 2, 50, 79
3, 127440, Note_on_c, 2, 46, 79
3, 127440, Note_on_c, 2, 43, 79
3, 127680, Note_off_c, 2, 67, 79
3, 127680, Note_off_c, 2, 62, 79
3, 127680, Note_off_c, 2, 55, 79
3, 127680, Note_off_c, 2, 50, 79
3, 127680, Note_off_c, 2, 46, 79
3, 127680, Note_off_c, 2, 43, 79
3, 127680, Note_on_c, 2, 67, 79
3, 127680, Note_on_c, 2, 62, 79
3, 127680, Note_on_c, 2, 55, 79
3, 127680, Note_on_c, 2, 50, 79
3, 127680, Note_on_c, 2, 46, 79
3, 127680, Note_on_c, 2, 43, 79
3, 128160, Note_off_c, 2, 67, 79
3, 128160, Note_off_c, 2, 62, 79
3, 128160, Note_off_c, 2, 55, 79
3, 128160, Note_off_c, 2, 50, 79
3, 128160, Note_off_c, 2, 46, 79
3, 128160, Note_off_c, 2, 43, 79
3, 128160, Note_on_c, 2, 67, 79
3, 128160, Note_on_c, 2, 62, 79
3, 128160, Note_on_c, 2, 55, 79
3, 128160, Note_on_c, 2, 50, 79
3, 128160, Note_on_c, 2, 46, 79
3, 128160, Note_on_c, 2, 43, 79
3, 128640, Note_off_c, 2, 67, 79
3, 128640, Note_off_c, 2, 62, 79
3, 128640, Note_off_c, 2, 55, 79
3, 128640, Note_off_c, 2, 50, 79
3, 128640, Note_off_c, 2, 46, 79
3, 128640, Note_off_c, 2, 43, 79
3, 128640, Note_on_c, 2, 67, 79
3, 128640, Note_on_c, 2, 62, 79
3, 128640, Note_on_c, 2, 55, 79
3, 128640, Note_on_c, 2, 50, 79
3, 128640, Note_on_c, 2, 46, 79
3, 128640, Note_on_c, 2, 43, 79
3, 128880, Note_off_c, 2, 67, 79
3, 128880, Note_off_c, 2, 62, 79
3, 128880, Note_off_c, 2, 55, 79
3, 128880, Note_off_c, 2, 50, 79
3, 128880, Note_off_c, 2, 46, 79
3, 128880, Note_off_c, 2, 43, 79
3, 128880, Note_on_c, 2, 67, 79
3, 128880, Note_on_c, 2, 62, 79
3, 128880, Note_on_c, 2, 55, 79
3, 128880, Note_on_c, 2, 50, 79
3, 128880, Note_on_c, 2, 46, 79
3, 128880, Note_on_c, 2, 43, 79
3, 129120, Note_off_c, 2, 67, 79
3, 129120, Note_off_c, 2, 62, 79
3, 129120, Note_off_c, 2, 55, 79
3, 129120, Note_off_c, 2, 50, 79
3, 129120, Note_off_c, 2, 46, 79
3, 129120, Note_off_c, 2, 43, 79
3, 129120, Note_on_c, 2, 67, 79
3, 129120, Note_on_c, 2, 62, 79
3, 129120, Note_on_c, 2, 55, 79
3, 129120, Note_on_c, 2, 50, 79
3, 129120, Note_on_c, 2, 46, 79
3, 129120, Note_on_c, 2, 43, 79
3, 129600, Note_off_c, 2, 67, 79
3, 129600, Note_off_c, 2, 62, 79
3, 129600, Note_off_c, 2, 55, 79
3, 129600, Note_off_c, 2, 50, 79
3, 129600, Note_off_c, 2, 46, 79
3, 129600, Note_off_c, 2, 43, 79
3, 129600, Note_on_c, 2, 67, 79
3, 129600, Note_on_c, 2, 62, 79
3, 129600, Note_on_c, 2, 55, 79
3, 129600, Note_on_c, 2, 50, 79
3, 129600, Note_on_c, 2, 46, 79
3, 129600, Note_on_c, 2, 43, 79
3, 130080, Note_off_c, 2, 67, 79
3, 130080, Note_off_c, 2, 62, 79
3, 130080, Note_off_c, 2, 55, 79
3, 130080, Note_off_c, 2, 50, 79
3, 130080, Note_off_c, 2, 46, 79
3, 130080, Note_off_c, 2, 43, 79
3, 130080, Note_on_c, 2, 67, 79
3, 130080, Note_on_c, 2, 62, 79
3, 130080, Note_on_c, 2, 55, 79
3, 130080, Note_on_c, 2, 50, 79
3, 130080, Note_on_c, 2, 46, 79
3, 130080, Note_on_c, 2, 43, 79
3, 130560, Note_off_c, 2, 67, 79
3, 130560, Note_off_c, 2, 62, 79
3, 130560, Note_off_c, 2, 55, 79
3, 130560, Note_off_c, 2, 50, 79
3, 130560, Note_off_c, 2, 46, 79
3, 130560, Note_off_c, 2, 43, 79
3, 130560, Note_on_c, 2, 65, 79
3, 130560, Note_on_c, 2, 62, 79
3, 130560, Note_on_c, 2, 58, 79
3, 130560, Note_on_c, 2, 50, 79
3, 130560, Note_on_c, 2, 46, 79
3, 131280, Note_off_c, 2, 65, 79
3, 131280, Note_off_c, 2, 62, 79
3, 131280, Note_off_c, 2, 58, 79
3, 131280, Note_off_c, 2, 50, 79
3, 131280, Note_off_c, 2, 46, 79
3, 131280, Note_on_c, 2, 65, 79
3, 131280, Note_on_c, 2, 62, 79
3, 131280, Note_on_c, 2, 58, 79
3, 131280, Note_on_c, 2, 50, 79
3, 131280, Note_on_c, 2, 46, 79
3, 131520, Note_off_c, 2, 65, 79
3, 131520, Note_off_c, 2, 62, 79
3, 131520, Note_off_c, 2, 58, 79
3, 131520, Note_off_c, 2, 50, 79
3, 131520, Note_off_c, 2, 46, 79
3, 131520, Note_on_c, 2, 65, 79
3, 131520, Note_on_c, 2, 62, 79
3, 131520, Note_on_c, 2, 58, 79
3, 131520, Note_on_c, 2, 50, 79
3, 131520, Note_on_c, 2, 46, 79
3, 132000, Note_off_c, 2, 65, 79
3, 132000, Note_off_c, 2, 62, 79
3, 132000, Note_off_c, 2, 58, 79
3, 132000, Note_off_c, 2, 50, 79
3, 132000, Note_off_c, 2, 46, 79
3, 132000, Note_on_c, 2, 65, 79
3, 132000, Note_on_c, 2, 62, 79
3, 132000, Note_on_c, 2, 58, 79
3, 132000, Note_on_c, 2, 50, 79
3, 132000, Note_on_c, 2, 46, 79
3, 132720, Note_off_c, 2, 65, 79
3, 132720, Note_off_c, 2, 62, 79
3, 132720, Note_off_c, 2, 58, 79
3, 132720, Note_off_c, 2, 50, 79
3, 132720, Note_off_c, 2, 46, 79
3, 132720, Note_on_c, 2, 65, 79
3, 132720, Note_on_c, 2, 62, 79
3, 132720, Note_on_c, 2, 58, 79
3, 132720, Note_on_c, 2, 50, 79
3, 132720, Note_on_c, 2, 46, 79
3, 132960, Note_off_c, 2, 65, 79
3, 132960, Note_off_c, 2, 62, 79
3, 132960, Note_off_c, 2, 58, 79
3, 132960, Note_off_c, 2, 50, 79
3, 132960, Note_off_c, 2, 46, 79
3, 132960, Note_on_c, 2, 65, 79
3, 132960, Note_on_c, 2, 62, 79
3, 132960, Note_on_c, 2, 58, 79
3, 132960, Note_on_c, 2, 50, 79
3, 132960, Note_on_c, 2, 46, 79
3, 133440, Note_off_c, 2, 65, 79
3, 133440, Note_off_c, 2, 62, 79
3, 133440, Note_off_c, 2, 58, 79
3, 133440, Note_off_c, 2, 50, 79
3, 133440, Note_off_c, 2, 46, 79
3, 133440, Note_on_c, 2, 65, 79
3, 133440, Note_on_c, 2, 62, 79
3, 133440, Note_on_c, 2, 58, 79
3, 133440, Note_on_c, 2, 50, 79
3, 133440, Note_on_c, 2, 46, 79
3, 133920, Note_off_c, 2, 65, 79
3, 133920, Note_off_c, 2, 62, 79
3, 133920, Note_off_c, 2, 58, 79
3, 133920, Note_off_c, 2, 50, 79
3, 133920, Note_off_c, 2, 46, 79
3, 133920, Note_on_c, 2, 65, 79
3, 133920, Note_on_c, 2, 62, 79
3, 133920, Note_on_c, 2, 58, 79
3, 133920, Note_on_c, 2, 50, 79
3, 133920, Note_on_c, 2, 46, 79
3, 134400, Note_off_c, 2, 65, 79
3, 134400, Note_off_c, 2, 62, 79
3, 134400, Note_off_c, 2, 58, 79
3, 134400, Note_off_c, 2, 50, 79
3, 134400, Note_off_c, 2, 46, 79
3, 134400, Note_on_c, 2, 67, 79
3, 134400, Note_on_c, 2, 62, 79
3, 134400, Note_on_c, 2, 55, 79
3, 134400, Note_on_c, 2, 50, 79
3, 134400, Note_on_c, 2, 46, 79
3, 134400, Note_on_c, 2, 43, 79
3, 135120, Note_off_c, 2, 67, 79
3, 135120, Note_off_c, 2, 62, 79
3, 135120, Note_off_c, 2, 55, 79
3, 135120, Note_off_c, 2, 50, 79
3, 135120, Note_off_c, 2, 46, 79
3, 135120, Note_off_c, 2, 43, 79
3, 135120, Note_on_c, 2, 67, 79
3, 135120, Note_on_c, 2, 62, 79
3, 135120, Note_on_c, 2, 55, 79
3, 135120, Note_on_c, 2, 50, 79
3, 135120, Note_on_c, 2, 46, 79
3, 135120, Note_on_c, 2, 43, 79
3, 135360, Note_off_c, 2, 67, 79
3, 135360, Note_off_c, 2, 62, 79
3, 135360, Note_off_c, 2, 55, 79
3, 135360, Note_off_c, 2, 50, 79
3, 135360, Note_off_c, 2, 46, 79
3, 135360, Note_off_c, 2, 43, 79
3, 135360, Note_on_c, 2, 67, 79
3, 135360, Note_on_c, 2, 62, 79
3, 135360, Note_on_c, 2, 55, 79
3, 135360, Note_on_c, 2, 50, 79
3, 135360, Note_on_c, 2, 46, 79
3, 135360, Note_on_c, 2, 43, 79
3, 135840, Note_off_c, 2, 67, 79
3, 135840, Note_off_c, 2, 62, 79
3, 135840, Note_off_c, 2, 55, 79
3, 135840, Note_off_c, 2, 50, 79
3, 135840, Note_off_c, 2, 46, 79
3, 135840, Note_off_c, 2, 43, 79
3, 135840, Note_on_c, 2, 67, 79
3, 135840, Note_on_c, 2, 62, 79
3, 135840, Note_on_c, 2, 55, 79
3, 135840, Note_on_c, 2, 50, 79
3, 135840, Note_on_c, 2, 46, 79
3, 135840, Note_on_c, 2, 43, 79
3, 136320, Note_off_c, 2, 67, 79
3, 136320, Note_off_c, 2, 62, 79
3, 136320, Note_off_c, 2, 55, 79
3, 136320, Note_off_c, 2, 50, 79
3, 136320, Note_off_c, 2, 46, 79
3, 136320, Note_off_c, 2, 43, 79
3, 136320, Note_on_c, 2, 67, 79
3, 136320, Note_on_c, 2, 62, 79
3, 136320, Note_on_c, 2, 55, 79
3, 136320, Note_on_c, 2, 50, 79
3, 136320, Note_on_c, 2, 46, 79
3, 136320, Note_on_c, 2, 43, 79
3, 136560, Note_off_c, 2, 67, 79
3, 136560, Note_off_c, 2, 62, 79
3, 136560, Note_off_c, 2, 55, 79
3, 136560, Note_off_c, 2, 50, 79
3, 136560, Note_off_c, 2, 46, 79
3, 136560, Note_off_c, 2, 43, 79
3, 136560, Note_on_c, 2, 67, 79
3, 136560, Note_on_c, 2, 62, 79
3, 136560, Note_on_c, 2, 55, 79
3, 136560, Note_on_c, 2, 50, 79
3, 136560, Note_on_c, 2, 46, 79
3, 136560, Note_on_c, 2, 43, 79
3, 136800, Note_off_c, 2, 67, 79
3, 136800, Note_off_c, 2, 62, 79
3, 136800, Note_off_c, 2, 55, 79
3, 136800, Note_off_c, 2, 50, 79
3, 136800, Note_off_c, 2, 46, 79
3, 136800, Note_off_c, 2, 43, 79
3, 136800, Note_on_c, 2, 67, 79
3, 136800, Note_on_c, 2, 62, 79
3, 136800, Note_on_c, 2, 55, 79
3, 136800, Note_on_c, 2, 50, 79
3, 136800, Note_on_c, 2, 46, 79
3, 136800, Note_on_c, 2, 43, 79
3, 137040, Note_off_c, 2, 67, 79
3, 137040, Note_off_c, 2, 62, 79
3, 137040, Note_off_c, 2, 55, 79
3, 137040, Note_off_c, 2, 50, 79
3, 137040, Note_off_c, 2, 46, 79
3, 137040, Note_off_c, 2, 43, 79
3, 137040, Note_on_c, 2, 67, 79
3, 137040, Note_on_c, 2, 62, 79
3, 137040, Note_on_c, 2, 55, 79
3, 137040, Note_on_c, 2, 50, 79
3, 137040, Note_on_c, 2, 46, 79
3, 137040, Note_on_c, 2, 43, 79
3, 137280, Note_off_c, 2, 67, 79
3, 137280, Note_off_c, 2, 62, 79
3, 137280, Note_off_c, 2, 55, 79
3, 137280, Note_off_c, 2, 50, 79
3, 137280, Note_off_c, 2, 46, 79
3, 137280, Note_off_c, 2, 43, 79
3, 137280, Note_on_c, 2, 67, 79
3, 137280, Note_on_c, 2, 62, 79
3, 137280, Note_on_c, 2, 55, 79
3, 137280, Note_on_c, 2, 50, 79
3, 137280, Note_on_c, 2, 46, 79
3, 137280, Note_on_c, 2, 43, 79
3, 137520, Note_off_c, 2, 67, 79
3, 137520, Note_off_c, 2, 62, 79
3, 137520, Note_off_c, 2, 55, 79
3, 137520, Note_off_c, 2, 50, 79
3, 137520, Note_off_c, 2, 46, 79
3, 137520, Note_off_c, 2, 43, 79
3, 137520, Note_on_c, 2, 67, 79
3, 137520, Note_on_c, 2, 62, 79
3, 137520, Note_on_c, 2, 55, 79
3, 137520, Note_on_c, 2, 50, 79
3, 137520, Note_on_c, 2, 46, 79
3, 137520, Note_on_c, 2, 43, 79
3, 137760, Note_off_c, 2, 67, 79
3, 137760, Note_off_c, 2, 62, 79
3, 137760, Note_off_c, 2, 55, 79
3, 137760, Note_off_c, 2, 50, 79
3, 137760, Note_off_c, 2, 46, 79
3, 137760, Note_off_c, 2, 43, 79
3, 137760, Note_on_c, 2, 67, 79
3, 137760, Note_on_c, 2, 62, 79
3, 137760, Note_on_c, 2, 55, 79
3, 137760, Note_on_c, 2, 50, 79
3, 137760, Note_on_c, 2, 46, 79
3, 137760, Note_on_c, 2, 43, 79
3, 138240, Note_off_c, 2, 67, 79
3, 138240, Note_off_c, 2, 62, 79
3, 138240, Note_off_c, 2, 55, 79
3, 138240, Note_off_c, 2, 50, 79
3, 138240, Note_off_c, 2, 46, 79
3, 138240, Note_off_c, 2, 43, 79
3, 138240, Note_on_c, 2, 67, 79
3, 138240, Note_on_c, 2, 62, 79
3, 138240, Note_on_c, 2, 55, 79
3, 138240, Note_on_c, 2, 50, 79
3, 138240, Note_on_c, 2, 46, 79
3, 138240, Note_on_c, 2, 43, 79
3, 138720, Note_off_c, 2, 67, 79
3, 138720, Note_off_c, 2, 62, 79
3, 138720, Note_off_c, 2, 55, 79
3, 138720, Note_off_c, 2, 50, 79
3, 138720, Note_off_c, 2, 46, 79
3, 138720, Note_off_c, 2, 43, 79
3, 138720, Note_on_c, 2, 67, 79
3, 138720, Note_on_c, 2, 62, 79
3, 138720, Note_on_c, 2, 55, 79
3, 138720, Note_on_c, 2, 50, 79
3, 138720, Note_on_c, 2, 46, 79
3, 138720, Note_on_c, 2, 43, 79
3, 138960, Note_off_c, 2, 67, 79
3, 138960, Note_off_c, 2, 62, 79
3, 138960, Note_off_c, 2, 55, 79
3, 138960, Note_off_c, 2, 50, 79
3, 138960, Note_off_c, 2, 46, 79
3, 138960, Note_off_c, 2, 43, 79
3, 138960, Note_on_c, 2, 67, 79
3, 138960, Note_on_c, 2, 62, 79
3, 138960, Note_on_c, 2, 55, 79
3, 138960, Note_on_c, 2, 50, 79
3, 138960, Note_on_c, 2, 46, 79
3, 138960, Note_on_c, 2, 43, 79
3, 139200, Note_off_c, 2, 67, 79
3, 139200, Note_off_c, 2, 62, 79
3, 139200, Note_off_c, 2, 55, 79
3, 139200, Note_off_c, 2, 50, 79
3, 139200, Note_off_c, 2, 46, 79
3, 139200, Note_off_c, 2, 43, 79
3, 139200, Note_on_c, 2, 67, 79
3, 139200, Note_on_c, 2, 62, 79
3, 139200, Note_on_c, 2, 55, 79
3, 139200, Note_on_c, 2, 50, 79
3, 139200, Note_on_c, 2, 46, 79
3, 139200, Note_on_c, 2, 43, 79
3, 139680, Note_off_c, 2, 67, 79
3, 139680, Note_off_c, 2, 62, 79
3, 139680, Note_off_c, 2, 55, 79
3, 139680, Note_off_c, 2, 50, 79
3, 139680, Note_off_c, 2, 46, 79
3, 139680, Note_off_c, 2, 43, 79
3, 139680, Note_on_c, 2, 67, 79
3, 139680, Note_on_c, 2, 62, 79
3, 139680, Note_on_c, 2, 55, 79
3, 139680, Note_on_c, 2, 50, 79
3, 139680, Note_on_c, 2, 46, 79
3, 139680, Note_on_c, 2, 43, 79
3, 139920, Note_off_c, 2, 67, 79
3, 139920, Note_off_c, 2, 62, 79
3, 139920, Note_off_c, 2, 55, 79
3, 139920, Note_off_c, 2, 50, 79
3, 139920, Note_off_c, 2, 46, 79
3, 139920, Note_off_c, 2, 43, 79
3, 139920, Note_on_c, 2, 67, 79
3, 139920, Note_on_c, 2, 62, 79
3, 139920, Note_on_c, 2, 55, 79
3, 139920, Note_on_c, 2, 50, 79
3, 139920, Note_on_c, 2, 46, 79
3, 139920, Note_on_c, 2, 43, 79
3, 140160, Note_off_c, 2, 67, 79
3, 140160, Note_off_c, 2, 62, 79
3, 140160, Note_off_c, 2, 55, 79
3, 140160, Note_off_c, 2, 50, 79
3, 140160, Note_off_c, 2, 46, 79
3, 140160, Note_off_c, 2, 43, 79
3, 140160, Note_on_c, 2, 67, 79
3, 140160, Note_on_c, 2, 62, 79
3, 140160, Note_on_c, 2, 55, 79
3, 140160, Note_on_c, 2, 50, 79
3, 140160, Note_on_c, 2, 46, 79
3, 140160, Note_on_c, 2, 43, 79
3, 140400, Note_off_c, 2, 67, 79
3, 140400, Note_off_c, 2, 62, 79
3, 140400, Note_off_c, 2, 55, 79
3, 140400, Note_off_c, 2, 50, 79
3, 140400, Note_off_c, 2, 46, 79
3, 140400, Note_off_c, 2, 43, 79
3, 140400, Note_on_c, 2, 67, 79
3, 140400, Note_on_c, 2, 62, 79
3, 140400, Note_on_c, 2, 55, 79
3, 140400, Note_on_c, 2, 50, 79
3, 140400, Note_on_c, 2, 46, 79
3, 140400, Note_on_c, 2, 43, 79
3, 140640, Note_off_c, 2, 67, 79
3, 140640, Note_off_c, 2, 62, 79
3, 140640, Note_off_c, 2, 55, 79
3, 140640, Note_off_c, 2, 50, 79
3, 140640, Note_off_c, 2, 46, 79
3, 140640, Note_off_c, 2, 43, 79
3, 140640, Note_on_c, 2, 67, 79
3, 140640, Note_on_c, 2, 62, 79
3, 140640, Note_on_c, 2, 55, 79
3, 140640, Note_on_c, 2, 50, 79
3, 140640, Note_on_c, 2, 46, 79
3, 140640, Note_on_c, 2, 43, 79
3, 140880, Note_off_c, 2, 67, 79
3, 140880, Note_off_c, 2, 62, 79
3, 140880, Note_off_c, 2, 55, 79
3, 140880, Note_off_c, 2, 50, 79
3, 140880, Note_off_c, 2, 46, 79
3, 140880, Note_off_c, 2, 43, 79
3, 140880, Note_on_c, 2, 67, 79
3, 140880, Note_on_c, 2, 62, 79
3, 140880, Note_on_c, 2, 55, 79
3, 140880, Note_on_c, 2, 50, 79
3, 140880, Note_on_c, 2, 46, 79
3, 140880, Note_on_c, 2, 43, 79
3, 141120, Note_off_c, 2, 67, 79
3, 141120, Note_off_c, 2, 62, 79
3, 141120, Note_off_c, 2, 55, 79
3, 141120, Note_off_c, 2, 50, 79
3, 141120, Note_off_c, 2, 46, 79
3, 141120, Note_off_c, 2, 43, 79
3, 141120, Note_on_c, 2, 67, 79
3, 141120, Note_on_c, 2, 62, 79
3, 141120, Note_on_c, 2, 55, 79
3, 141120, Note_on_c, 2, 50, 79
3, 141120, Note_on_c, 2, 46, 79
3, 141120, Note_on_c, 2, 43, 79
3, 141360, Note_off_c, 2, 67, 79
3, 141360, Note_off_c, 2, 62, 79
3, 141360, Note_off_c, 2, 55, 79
3, 141360, Note_off_c, 2, 50, 79
3, 141360, Note_off_c, 2, 46, 79
3, 141360, Note_off_c, 2, 43, 79
3, 141360, Note_on_c, 2, 67, 79
3, 141360, Note_on_c, 2, 62, 79
3, 141360, Note_on_c, 2, 55, 79
3, 141360, Note_on_c, 2, 50, 79
3, 141360, Note_on_c, 2, 46, 79
3, 141360, Note_on_c, 2, 43, 79
3, 141600, Note_off_c, 2, 67, 79
3, 141600, Note_off_c, 2, 62, 79
3, 141600, Note_off_c, 2, 55, 79
3, 141600, Note_off_c, 2, 50, 79
3, 141600, Note_off_c, 2, 46, 79
3, 141600, Note_off_c, 2, 43, 79
3, 141600, Note_on_c, 2, 67, 79
3, 141600, Note_on_c, 2, 62, 79
3, 141600, Note_on_c, 2, 55, 79
3, 141600, Note_on_c, 2, 50, 79
3, 141600, Note_on_c, 2, 46, 79
3, 141600, Note_on_c, 2, 43, 79
3, 141840, Note_off_c, 2, 67, 79
3, 141840, Note_off_c, 2, 62, 79
3, 141840, Note_off_c, 2, 55, 79
3, 141840, Note_off_c, 2, 50, 79
3, 141840, Note_off_c, 2, 46, 79
3, 141840, Note_off_c, 2, 43, 79
3, 141840, Note_on_c, 2, 67, 79
3, 141840, Note_on_c, 2, 62, 79
3, 141840, Note_on_c, 2, 55, 79
3, 141840, Note_on_c, 2, 50, 79
3, 141840, Note_on_c, 2, 46, 79
3, 141840, Note_on_c, 2, 43, 79
3, 142080, Note_off_c, 2, 67, 79
3, 142080, Note_off_c, 2, 62, 79
3, 142080, Note_off_c, 2, 55, 79
3, 142080, Note_off_c, 2, 50, 79
3, 142080, Note_off_c, 2, 46, 79
3, 142080, Note_off_c, 2, 43, 79
3, 142080, Note_on_c, 2, 65, 79
3, 142080, Note_on_c, 2, 62, 79
3, 142080, Note_on_c, 2, 58, 79
3, 142080, Note_on_c, 2, 50, 79
3, 142080, Note_on_c, 2, 46, 79
3, 142560, Note_off_c, 2, 65, 79
3, 142560, Note_off_c, 2, 62, 79
3, 142560, Note_off_c, 2, 58, 79
3, 142560, Note_off_c, 2, 50, 79
3, 142560, Note_off_c, 2, 46, 79
3, 142560, Note_on_c, 2, 65, 79
3, 142560, Note_on_c, 2, 62, 79
3, 142560, Note_on_c, 2, 58, 79
3, 142560, Note_on_c, 2, 50, 79
3, 142560, Note_on_c, 2, 46, 79
3, 142800, Note_off_c, 2, 65, 79
3, 142800, Note_off_c, 2, 62, 79
3, 142800, Note_off_c, 2, 58, 79
3, 142800, Note_off_c, 2, 50, 79
3, 142800, Note_off_c, 2, 46, 79
3, 142800, Note_on_c, 2, 65, 79
3, 142800, Note_on_c, 2, 62, 79
3, 142800, Note_on_c, 2, 58, 79
3, 142800, Note_on_c, 2, 50, 79
3, 142800, Note_on_c, 2, 46, 79
3, 143040, Note_off_c, 2, 65, 79
3, 143040, Note_off_c, 2, 62, 79
3, 143040, Note_off_c, 2, 58, 79
3, 143040, Note_off_c, 2, 50, 79
3, 143040, Note_off_c, 2, 46, 79
3, 143040, Note_on_c, 2, 65, 79
3, 143040, Note_on_c, 2, 62, 79
3, 143040, Note_on_c, 2, 58, 79
3, 143040, Note_on_c, 2, 50, 79
3, 143040, Note_on_c, 2, 46, 79
3, 143520, Note_off_c, 2, 65, 79
3, 143520, Note_off_c, 2, 62, 79
3, 143520, Note_off_c, 2, 58, 79
3, 143520, Note_off_c, 2, 50, 79
3, 143520, Note_off_c, 2, 46, 79
3, 143520, Note_on_c, 2, 65, 79
3, 143520, Note_on_c, 2, 62, 79
3, 143520, Note_on_c, 2, 58, 79
3, 143520, Note_on_c, 2, 50, 79
3, 143520, Note_on_c, 2, 46, 79
3, 143760, Note_off_c, 2, 65, 79
3, 143760, Note_off_c, 2, 62, 79
3, 143760, Note_off_c, 2, 58, 79
3, 143760, Note_off_c, 2, 50, 79
3, 143760, Note_off_c, 2, 46, 79
3, 143760, Note_on_c, 2, 65, 79
3, 143760, Note_on_c, 2, 62, 79
3, 143760, Note_on_c, 2, 58, 79
3, 143760, Note_on_c, 2, 50, 79
3, 143760, Note_on_c, 2, 46, 79
3, 144000, Note_off_c, 2, 65, 79
3, 144000, Note_off_c, 2, 62, 79
3, 144000, Note_off_c, 2, 58, 79
3, 144000, Note_off_c, 2, 50, 79
3, 144000, Note_off_c, 2, 46, 79
3, 144000, Note_on_c, 2, 65, 79
3, 144000, Note_on_c, 2, 62, 79
3, 144000, Note_on_c, 2, 58, 79
3, 144000, Note_on_c, 2, 50, 79
3, 144000, Note_on_c, 2, 46, 79
3, 144240, Note_off_c, 2, 65, 79
3, 144240, Note_off_c, 2, 62, 79
3, 144240, Note_off_c, 2, 58, 79
3, 144240, Note_off_c, 2, 50, 79
3, 144240, Note_off_c, 2, 46, 79
3, 144240, Note_on_c, 2, 65, 79
3, 144240, Note_on_c, 2, 62, 79
3, 144240, Note_on_c, 2, 58, 79
3, 144240, Note_on_c, 2, 50, 79
3, 144240, Note_on_c, 2, 46, 79
3, 144480, Note_off_c, 2, 65, 79
3, 144480, Note_off_c, 2, 62, 79
3, 144480, Note_off_c, 2, 58, 79
3, 144480, Note_off_c, 2, 50, 79
3, 144480, Note_off_c, 2, 46, 79
3, 144480, Note_on_c, 2, 65, 79
3, 144480, Note_on_c, 2, 62, 79
3, 144480, Note_on_c, 2, 58, 79
3, 144480, Note_on_c, 2, 50, 79
3, 144480, Note_on_c, 2, 46, 79
3, 144720, Note_off_c, 2, 65, 79
3, 144720, Note_off_c, 2, 62, 79
3, 144720, Note_off_c, 2, 58, 79
3, 144720, Note_off_c, 2, 50, 79
3, 144720, Note_off_c, 2, 46, 79
3, 144720, Note_on_c, 2, 65, 79
3, 144720, Note_on_c, 2, 62, 79
3, 144720, Note_on_c, 2, 58, 79
3, 144720, Note_on_c, 2, 50, 79
3, 144720, Note_on_c, 2, 46, 79
3, 144960, Note_off_c, 2, 65, 79
3, 144960, Note_off_c, 2, 62, 79
3, 144960, Note_off_c, 2, 58, 79
3, 144960, Note_off_c, 2, 50, 79
3, 144960, Note_off_c, 2, 46, 79
3, 144960, Note_on_c, 2, 65, 79
3, 144960, Note_on_c, 2, 62, 79
3, 144960, Note_on_c, 2, 58, 79
3, 144960, Note_on_c, 2, 50, 79
3, 144960, Note_on_c, 2, 46, 79
3, 145200, Note_off_c, 2, 65, 79
3, 145200, Note_off_c, 2, 62, 79
3, 145200, Note_off_c, 2, 58, 79
3, 145200, Note_off_c, 2, 50, 79
3, 145200, Note_off_c, 2, 46, 79
3, 145200, Note_on_c, 2, 65, 79
3, 145200, Note_on_c, 2, 62, 79
3, 145200, Note_on_c, 2, 58, 79
3, 145200, Note_on_c, 2, 50, 79
3, 145200, Note_on_c, 2, 46, 79
3, 145440, Note_off_c, 2, 65, 79
3, 145440, Note_off_c, 2, 62, 79
3, 145440, Note_off_c, 2, 58, 79
3, 145440, Note_off_c, 2, 50, 79
3, 145440, Note_off_c, 2, 46, 79
3, 145920, Note_on_c, 2, 67, 79
3, 145920, Note_on_c, 2, 62, 79
3, 145920, Note_on_c, 2, 55, 79
3, 145920, Note_on_c, 2, 50, 79
3, 145920, Note_on_c, 2, 46, 79
3, 145920, Note_on_c, 2, 43, 79
3, 146400, Note_off_c, 2, 67, 79
3, 146400, Note_off_c, 2, 62, 79
3, 146400, Note_off_c, 2, 55, 79
3, 146400, Note_off_c, 2, 50, 79
3, 146400, Note_off_c, 2, 46, 79
3, 146400, Note_off_c, 2, 43, 79
3, 146400, Note_on_c, 2, 67, 79
3, 146400, Note_on_c, 2, 62, 79
3, 146400, Note_on_c, 2, 55, 79
3, 146400, Note_on_c, 2, 50, 79
3, 146400, Note_on_c, 2, 46, 79
3, 146400, Note_on_c, 2, 43, 79
3, 146640, Note_off_c, 2, 67, 79
3, 146640, Note_off_c, 2, 62, 79
3, 146640, Note_off_c, 2, 55, 79
3, 146640, Note_off_c, 2, 50, 79
3, 146640, Note_off_c, 2, 46, 79
3, 146640, Note_off_c, 2, 43, 79
3, 146640, Note_on_c, 2, 67, 79
3, 146640, Note_on_c, 2, 62, 79
3, 146640, Note_on_c, 2, 55, 79
3, 146640, Note_on_c, 2, 50, 79
3, 146640, Note_on_c, 2, 46, 79
3, 146640, Note_on_c, 2, 43, 79
3, 146880, Note_off_c, 2, 67, 79
3, 146880, Note_off_c, 2, 62, 79
3, 146880, Note_off_c, 2, 55, 79
3, 146880, Note_off_c, 2, 50, 79
3, 146880, Note_off_c, 2, 46, 79
3, 146880, Note_off_c, 2, 43, 79
3, 146880, Note_on_c, 2, 67, 79
3, 146880, Note_on_c, 2, 62, 79
3, 146880, Note_on_c, 2, 55, 79
3, 146880, Note_on_c, 2, 50, 79
3, 146880, Note_on_c, 2, 46, 79
3, 146880, Note_on_c, 2, 43, 79
3, 147360, Note_off_c, 2, 67, 79
3, 147360, Note_off_c, 2, 62, 79
3, 147360, Note_off_c, 2, 55, 79
3, 147360, Note_off_c, 2, 50, 79
3, 147360, Note_off_c, 2, 46, 79
3, 147360, Note_off_c, 2, 43, 79
3, 147360, Note_on_c, 2, 67, 79
3, 147360, Note_on_c, 2, 62, 79
3, 147360, Note_on_c, 2, 55, 79
3, 147360, Note_on_c, 2, 50, 79
3, 147360, Note_on_c, 2, 46, 79
3, 147360, Note_on_c, 2, 43, 79
3, 147600, Note_off_c, 2, 67, 79
3, 147600, Note_off_c, 2, 62, 79
3, 147600, Note_off_c, 2, 55, 79
3, 147600, Note_off_c, 2, 50, 79
3, 147600, Note_off_c, 2, 46, 79
3, 147600, Note_off_c, 2, 43, 79
3, 147600, Note_on_c, 2, 67, 79
3, 147600, Note_on_c, 2, 62, 79
3, 147600, Note_on_c, 2, 55, 79
3, 147600, Note_on_c, 2, 50, 79
3, 147600, Note_on_c, 2, 46, 79
3, 147600, Note_on_c, 2, 43, 79
3, 147840, Note_off_c, 2, 67, 79
3, 147840, Note_off_c, 2, 62, 79
3, 147840, Note_off_c, 2, 55, 79
3, 147840, Note_off_c, 2, 50, 79
3, 147840, Note_off_c, 2, 46, 79
3, 147840, Note_off_c, 2, 43, 79
3, 147840, Note_on_c, 2, 67, 79
3, 147840, Note_on_c, 2, 62, 79
3, 147840, Note_on_c, 2, 55, 79
3, 147840, Note_on_c, 2, 50, 79
3, 147840, Note_on_c, 2, 46, 79
3, 147840, Note_on_c, 2, 43, 79
3, 148080, Note_off_c, 2, 67, 79
3, 148080, Note_off_c, 2, 62, 79
3, 148080, Note_off_c, 2, 55, 79
3, 148080, Note_off_c, 2, 50, 79
3, 148080, Note_off_c, 2, 46, 79
3, 148080, Note_off_c, 2, 43, 79
3, 148080, Note_on_c, 2, 67, 79
3, 148080, Note_on_c, 2, 62, 79
3, 148080, Note_on_c, 2, 55, 79
3, 148080, Note_on_c, 2, 50, 79
3, 148080, Note_on_c, 2, 46, 79
3, 148080, Note_on_c, 2, 43, 79
3, 148320, Note_off_c, 2, 67, 79
3, 148320, Note_off_c, 2, 62, 79
3, 148320, Note_off_c, 2, 55, 79
3, 148320, Note_off_c, 2, 50, 79
3, 148320, Note_off_c, 2, 46, 79
3, 148320, Note_off_c, 2, 43, 79
3, 148320, Note_on_c, 2, 67, 79
3, 148320, Note_on_c, 2, 62, 79
3, 148320, Note_on_c, 2, 55, 79
3, 148320, Note_on_c, 2, 50, 79
3, 148320, Note_on_c, 2, 46, 79
3, 148320, Note_on_c, 2, 43, 79
3, 148560, Note_off_c, 2, 67, 79
3, 148560, Note_off_c, 2, 62, 79
3, 148560, Note_off_c, 2, 55, 79
3, 148560, Note_off_c, 2, 50, 79
3, 148560, Note_off_c, 2, 46, 79
3, 148560, Note_off_c, 2, 43, 79
3, 148560, Note_on_c, 2, 67, 79
3, 148560, Note_on_c, 2, 62, 79
3, 148560, Note_on_c, 2, 55, 79
3, 148560, Note_on_c, 2, 50, 79
3, 148560, Note_on_c, 2, 46, 79
3, 148560, Note_on_c, 2, 43, 79
3, 148800, Note_off_c, 2, 67, 79
3, 148800, Note_off_c, 2, 62, 79
3, 148800, Note_off_c, 2, 55, 79
3, 148800, Note_off_c, 2, 50, 79
3, 148800, Note_off_c, 2, 46, 79
3, 148800, Note_off_c, 2, 43, 79
3, 148800, Note_on_c, 2, 67, 79
3, 148800, Note_on_c, 2, 62, 79
3, 148800, Note_on_c, 2, 55, 79
3, 148800, Note_on_c, 2, 50, 79
3, 148800, Note_on_c, 2, 46, 79
3, 148800, Note_on_c, 2, 43, 79
3, 149040, Note_off_c, 2, 67, 79
3, 149040, Note_off_c, 2, 62, 79
3, 149040, Note_off_c, 2, 55, 79
3, 149040, Note_off_c, 2, 50, 79
3, 149040, Note_off_c, 2, 46, 79
3, 149040, Note_off_c, 2, 43, 79
3, 149040, Note_on_c, 2, 67, 79
3, 149040, Note_on_c, 2, 62, 79
3, 149040, Note_on_c, 2, 55, 79
3, 149040, Note_on_c, 2, 50, 79
3, 149040, Note_on_c, 2, 46, 79
3, 149040, Note_on_c, 2, 43, 79
3, 149280, Note_off_c, 2, 67, 79
3, 149280, Note_off_c, 2, 62, 79
3, 149280, Note_off_c, 2, 55, 79
3, 149280, Note_off_c, 2, 50, 79
3, 149280, Note_off_c, 2, 46, 79
3, 149280, Note_off_c, 2, 43, 79
3, 149280, Note_on_c, 2, 67, 79
3, 149280, Note_on_c, 2, 62, 79
3, 149280, Note_on_c, 2, 55, 79
3, 149280, Note_on_c, 2, 50, 79
3, 149280, Note_on_c, 2, 46, 79
3, 149280, Note_on_c, 2, 43, 79
3, 149520, Note_off_c, 2, 67, 79
3, 149520, Note_off_c, 2, 62, 79
3, 149520, Note_off_c, 2, 55, 79
3, 149520, Note_off_c, 2, 50, 79
3, 149520, Note_off_c, 2, 46, 79
3, 149520, Note_off_c, 2, 43, 79
3, 149520, Note_on_c, 2, 67, 79
3, 149520, Note_on_c, 2, 62, 79
3, 149520, Note_on_c, 2, 55, 79
3, 149520, Note_on_c, 2, 50, 79
3, 149520, Note_on_c, 2, 46, 79
3, 149520, Note_on_c, 2, 43, 79
3, 149760, Note_off_c, 2, 67, 79
3, 149760, Note_off_c, 2, 62, 79
3, 149760, Note_off_c, 2, 55, 79
3, 149760, Note_off_c, 2, 50, 79
3, 149760, Note_off_c, 2, 46, 79
3, 149760, Note_off_c, 2, 43, 79
3, 149760, Note_on_c, 2, 67, 79
3, 149760, Note_on_c, 2, 62, 79
3, 149760, Note_on_c, 2, 55, 79
3, 149760, Note_on_c, 2, 50, 79
3, 149760, Note_on_c, 2, 46, 79
3, 149760, Note_on_c, 2, 43, 79
3, 150240, Note_off_c, 2, 67, 79
3, 150240, Note_off_c, 2, 62, 79
3, 150240, Note_off_c, 2, 55, 79
3, 150240, Note_off_c, 2, 50, 79
3, 150240, Note_off_c, 2, 46, 79
3, 150240, Note_off_c, 2, 43, 79
3, 150240, Note_on_c, 2, 67, 79
3, 150240, Note_on_c, 2, 62, 79
3, 150240, Note_on_c, 2, 55, 79
3, 150240, Note_on_c, 2, 50, 79
3, 150240, Note_on_c, 2, 46, 79
3, 150240, Note_on_c, 2, 43, 79
3, 150480, Note_off_c, 2, 67, 79
3, 150480, Note_off_c, 2, 62, 79
3, 150480, Note_off_c, 2, 55, 79
3, 150480, Note_off_c, 2, 50, 79
3, 150480, Note_off_c, 2, 46, 79
3, 150480, Note_off_c, 2, 43, 79
3, 150480, Note_on_c, 2, 67, 79
3, 150480, Note_on_c, 2, 62, 79
3, 150480, Note_on_c, 2, 55, 79
3, 150480, Note_on_c, 2, 50, 79
3, 150480, Note_on_c, 2, 46, 79
3, 150480, Note_on_c, 2, 43, 79
3, 150720, Note_off_c, 2, 67, 79
3, 150720, Note_off_c, 2, 62, 79
3, 150720, Note_off_c, 2, 55, 79
3, 150720, Note_off_c, 2, 50, 79
3, 150720, Note_off_c, 2, 46, 79
3, 150720, Note_off_c, 2, 43, 79
3, 150720, Note_on_c, 2, 67, 79
3, 150720, Note_on_c, 2, 62, 79
3, 150720, Note_on_c, 2, 55, 79
3, 150720, Note_on_c, 2, 50, 79
3, 150720, Note_on_c, 2, 46, 79
3, 150720, Note_on_c, 2, 43, 79
3, 151200, Note_off_c, 2, 67, 79
3, 151200, Note_off_c, 2, 62, 79
3, 151200, Note_off_c, 2, 55, 79
3, 151200, Note_off_c, 2, 50, 79
3, 151200, Note_off_c, 2, 46, 79
3, 151200, Note_off_c, 2, 43, 79
3, 151200, Note_on_c, 2, 67, 79
3, 151200, Note_on_c, 2, 62, 79
3, 151200, Note_on_c, 2, 55, 79
3, 151200, Note_on_c, 2, 50, 79
3, 151200, Note_on_c, 2, 46, 79
3, 151200, Note_on_c, 2, 43, 79
3, 151440, Note_off_c, 2, 67, 79
3, 151440, Note_off_c, 2, 62, 79
3, 151440, Note_off_c, 2, 55, 79
3, 151440, Note_off_c, 2, 50, 79
3, 151440, Note_off_c, 2, 46, 79
3, 151440, Note_off_c, 2, 43, 79
3, 151440, Note_on_c, 2, 67, 79
3, 151440, Note_on_c, 2, 62, 79
3, 151440, Note_on_c, 2, 55, 79
3, 151440, Note_on_c, 2, 50, 79
3, 151440, Note_on_c, 2, 46, 79
3, 151440, Note_on_c, 2, 43, 79
3, 151680, Note_off_c, 2, 67, 79
3, 151680, Note_off_c, 2, 62, 79
3, 151680, Note_off_c, 2, 55, 79
3, 151680, Note_off_c, 2, 50, 79
3, 151680, Note_off_c, 2, 46, 79
3, 151680, Note_off_c, 2, 43, 79
3, 151680, Note_on_c, 2, 67, 79
3, 151680, Note_on_c, 2, 62, 79
3, 151680, Note_on_c, 2, 55, 79
3, 151680, Note_on_c, 2, 50, 79
3, 151680, Note_on_c, 2, 46, 79
3, 151680, Note_on_c, 2, 43, 79
3, 151920, Note_off_c, 2, 67, 79
3, 151920, Note_off_c, 2, 62, 79
3, 151920, Note_off_c, 2, 55, 79
3, 151920, Note_off_c, 2, 50, 79
3, 151920, Note_off_c, 2, 46, 79
3, 151920, Note_off_c, 2, 43, 79
3, 151920, Note_on_c, 2, 67, 79
3, 151920, Note_on_c, 2, 62, 79
3, 151920, Note_on_c, 2, 55, 79
3, 151920, Note_on_c, 2, 50, 79
3, 151920, Note_on_c, 2, 46, 79
3, 151920, Note_on_c, 2, 43, 79
3, 152160, Note_off_c, 2, 67, 79
3, 152160, Note_off_c, 2, 62, 79
3, 152160, Note_off_c, 2, 55, 79
3, 152160, Note_off_c, 2, 50, 79
3, 152160, Note_off_c, 2, 46, 79
3, 152160, Note_off_c, 2, 43, 79
3, 152160, Note_on_c, 2, 67, 79
3, 152160, Note_on_c, 2, 62, 79
3, 152160, Note_on_c, 2, 55, 79
3, 152160, Note_on_c, 2, 50, 79
3, 152160, Note_on_c, 2, 46, 79
3, 152160, Note_on_c, 2, 43, 79
3, 152400, Note_off_c, 2, 67, 79
3, 152400, Note_off_c, 2, 62, 79
3, 152400, Note_off_c, 2, 55, 79
3, 152400, Note_off_c, 2, 50, 79
3, 152400, Note_off_c, 2, 46, 79
3, 152400, Note_off_c, 2, 43, 79
3, 152400, Note_on_c, 2, 67, 79
3, 152400, Note_on_c, 2, 62, 79
3, 152400, Note_on_c, 2, 55, 79
3, 152400, Note_on_c, 2, 50, 79
3, 152400, Note_on_c, 2, 46, 79
3, 152400, Note_on_c, 2, 43, 79
3, 152640, Note_off_c, 2, 67, 79
3, 152640, Note_off_c, 2, 62, 79
3, 152640, Note_off_c, 2, 55, 79
3, 152640, Note_off_c, 2, 50, 79
3, 152640, Note_off_c, 2, 46, 79
3, 152640, Note_off_c, 2, 43, 79
3, 152640, Note_on_c, 2, 67, 79
3, 152640, Note_on_c, 2, 62, 79
3, 152640, Note_on_c, 2, 55, 79
3, 152640, Note_on_c, 2, 50, 79
3, 152640, Note_on_c, 2, 46, 79
3, 152640, Note_on_c, 2, 43, 79
3, 152880, Note_off_c, 2, 67, 79
3, 152880, Note_off_c, 2, 62, 79
3, 152880, Note_off_c, 2, 55, 79
3, 152880, Note_off_c, 2, 50, 79
3, 152880, Note_off_c, 2, 46, 79
3, 152880, Note_off_c, 2, 43, 79
3, 152880, Note_on_c, 2, 67, 79
3, 152880, Note_on_c, 2, 62, 79
3, 152880, Note_on_c, 2, 55, 79
3, 152880, Note_on_c, 2, 50, 79
3, 152880, Note_on_c, 2, 46, 79
3, 152880, Note_on_c, 2, 43, 79
3, 153120, Note_off_c, 2, 67, 79
3, 153120, Note_off_c, 2, 62, 79
3, 153120, Note_off_c, 2, 55, 79
3, 153120, Note_off_c, 2, 50, 79
3, 153120, Note_off_c, 2, 46, 79
3, 153120, Note_off_c, 2, 43, 79
3, 153120, Note_on_c, 2, 67, 79
3, 153120, Note_on_c, 2, 62, 79
3, 153120, Note_on_c, 2, 55, 79
3, 153120, Note_on_c, 2, 50, 79
3, 153120, Note_on_c, 2, 46, 79
3, 153120, Note_on_c, 2, 43, 79
3, 153360, Note_off_c, 2, 67, 79
3, 153360, Note_off_c, 2, 62, 79
3, 153360, Note_off_c, 2, 55, 79
3, 153360, Note_off_c, 2, 50, 79
3, 153360, Note_off_c, 2, 46, 79
3, 153360, Note_off_c, 2, 43, 79
3, 153360, Note_on_c, 2, 67, 79
3, 153360, Note_on_c, 2, 62, 79
3, 153360, Note_on_c, 2, 55, 79
3, 153360, Note_on_c, 2, 50, 79
3, 153360, Note_on_c, 2, 46, 79
3, 153360, Note_on_c, 2, 43, 79
3, 153600, Note_off_c, 2, 67, 79
3, 153600, Note_off_c, 2, 62, 79
3, 153600, Note_off_c, 2, 55, 79
3, 153600, Note_off_c, 2, 50, 79
3, 153600, Note_off_c, 2, 46, 79
3, 153600, Note_off_c, 2, 43, 79
3, 153600, Note_on_c, 2, 64, 95
3, 153600, Note_on_c, 2, 60, 95
3, 153600, Note_on_c, 2, 55, 95
3, 153600, Note_on_c, 2, 48, 95
3, 154080, Note_off_c, 2, 64, 95
3, 154080, Note_off_c, 2, 60, 95
3, 154080, Note_off_c, 2, 55, 95
3, 154080, Note_off_c, 2, 48, 95
3, 154080, Note_on_c, 2, 64, 95
3, 154080, Note_on_c, 2, 60, 95
3, 154080, Note_on_c, 2, 55, 95
3, 154080, Note_on_c, 2, 48, 95
3, 154320, Note_off_c, 2, 64, 95
3, 154320, Note_off_c, 2, 60, 95
3, 154320, Note_off_c, 2, 55, 95
3, 154320, Note_off_c, 2, 48, 95
3, 154320, Note_on_c, 2, 64, 95
3, 154320, Note_on_c, 2, 60, 95
3, 154320, Note_on_c, 2, 55, 95
3, 154320, Note_on_c, 2, 48, 95
3, 154560, Note_off_c, 2, 64, 95
3, 154560, Note_off_c, 2, 60, 95
3, 154560, Note_off_c, 2, 55, 95
3, 154560, Note_off_c, 2, 48, 95
3, 154560, Note_on_c, 2, 64, 95
3, 154560, Note_on_c, 2, 60, 95
3, 154560, Note_on_c, 2, 55, 95
3, 154560, Note_on_c, 2, 48, 95
3, 155040, Note_off_c, 2, 64, 95
3, 155040, Note_off_c, 2, 60, 95
3, 155040, Note_off_c, 2, 55, 95
3, 155040, Note_off_c, 2, 48, 95
3, 155040, Note_on_c, 2, 67, 95
3, 155040, Note_on_c, 2, 62, 95
3, 155040, Note_on_c, 2, 58, 95
3, 155040, Note_on_c, 2, 55, 95
3, 155040, Note_on_c, 2, 50, 95
3, 155040, Note_on_c, 2, 43, 95
3, 156000, Note_off_c, 2, 67, 95
3, 156000, Note_off_c, 2, 62, 95
3, 156000, Note_off_c, 2, 58, 95
3, 156000, Note_off_c, 2, 55, 95
3, 156000, Note_off_c, 2, 50, 95
3, 156000, Note_off_c, 2, 43, 95
3, 156000, Note_on_c, 2, 67, 95
3, 156000, Note_on_c, 2, 62, 95
3, 156000, Note_on_c, 2, 58, 95
3, 156000, Note_on_c, 2, 55, 95
3, 156000, Note_on_c, 2, 50, 95
3, 156000, Note_on_c, 2, 43, 95
3, 156480, Note_off_c, 2, 67, 95
3, 156480, Note_off_c, 2, 62, 95
3, 156480, Note_off_c, 2, 58, 95
3, 156480, Note_off_c, 2, 55, 95
3, 156480, Note_off_c, 2, 50, 95
3, 156480, Note_off_c, 2, 43, 95
3, 156480, Note_on_c, 2, 67, 95
3, 156480, Note_on_c, 2, 62, 95
3, 156480, Note_on_c, 2, 58, 95
3, 156480, Note_on_c, 2, 55, 95
3, 156480, Note_on_c, 2, 50, 95
3, 156480, Note_on_c, 2, 43, 95
3, 156960, Note_off_c, 2, 67, 95
3, 156960, Note_off_c, 2, 62, 95
3, 156960, Note_off_c, 2, 58, 95
3, 156960, Note_off_c, 2, 55, 95
3, 156960, Note_off_c, 2, 50, 95
3, 156960, Note_off_c, 2, 43, 95
3, 156960, Note_on_c, 2, 67, 95
3, 156960, Note_on_c, 2, 62, 95
3, 156960, Note_on_c, 2, 58, 95
3, 156960, Note_on_c, 2, 55, 95
3, 156960, Note_on_c, 2, 50, 95
3, 156960, Note_on_c, 2, 43, 95
3, 157200, Note_off_c, 2, 67, 95
3, 157200, Note_off_c, 2, 62, 95
3, 157200, Note_off_c, 2, 58, 95
3, 157200, Note_off_c, 2, 55, 95
3, 157200, Note_off_c, 2, 50, 95
3, 157200, Note_off_c, 2, 43, 95
3, 157200, Note_on_c, 2, 67, 95
3, 157200, Note_on_c, 2, 62, 95
3, 157200, Note_on_c, 2, 58, 95
3, 157200, Note_on_c, 2, 55, 95
3, 157200, Note_on_c, 2, 50, 95
3, 157200, Note_on_c, 2, 43, 95
3, 157440, Note_off_c, 2, 67, 95
3, 157440, Note_off_c, 2, 62, 95
3, 157440, Note_off_c, 2, 58, 95
3, 157440, Note_off_c, 2, 55, 95
3, 157440, Note_off_c, 2, 50, 95
3, 157440, Note_off_c, 2, 43, 95
3, 157440, Note_on_c, 2, 64, 95
3, 157440, Note_on_c, 2, 60, 95
3, 157440, Note_on_c, 2, 55, 95
3, 157440, Note_on_c, 2, 48, 95
3, 157920, Note_off_c, 2, 64, 95
3, 157920, Note_off_c, 2, 60, 95
3, 157920, Note_off_c, 2, 55, 95
3, 157920, Note_off_c, 2, 48, 95
3, 157920, Note_on_c, 2, 64, 95
3, 157920, Note_on_c, 2, 60, 95
3, 157920, Note_on_c, 2, 55, 95
3, 157920, Note_on_c, 2, 48, 95
3, 158160, Note_off_c, 2, 64, 95
3, 158160, Note_off_c, 2, 60, 95
3, 158160, Note_off_c, 2, 55, 95
3, 158160, Note_off_c, 2, 48, 95
3, 158160, Note_on_c, 2, 64, 95
3, 158160, Note_on_c, 2, 60, 95
3, 158160, Note_on_c, 2, 55, 95
3, 158160, Note_on_c, 2, 48, 95
3, 158400, Note_off_c, 2, 64, 95
3, 158400, Note_off_c, 2, 60, 95
3, 158400, Note_off_c, 2, 55, 95
3, 158400, Note_off_c, 2, 48, 95
3, 158400, Note_on_c, 2, 64, 95
3, 158400, Note_on_c, 2, 60, 95
3, 158400, Note_on_c, 2, 55, 95
3, 158400, Note_on_c, 2, 48, 95
3, 158880, Note_off_c, 2, 64, 95
3, 158880, Note_off_c, 2, 60, 95
3, 158880, Note_off_c, 2, 55, 95
3, 158880, Note_off_c, 2, 48, 95
3, 158880, Note_on_c, 2, 67, 95
3, 158880, Note_on_c, 2, 62, 95
3, 158880, Note_on_c, 2, 58, 95
3, 158880, Note_on_c, 2, 55, 95
3, 158880, Note_on_c, 2, 50, 95
3, 158880, Note_on_c, 2, 43, 95
3, 160320, Note_off_c, 2, 67, 95
3, 160320, Note_off_c, 2, 62, 95
3, 160320, Note_off_c, 2, 58, 95
3, 160320, Note_off_c, 2, 55, 95
3, 160320, Note_off_c, 2, 50, 95
3, 160320, Note_off_c, 2, 43, 95
3, 160320, Note_on_c, 2, 67, 95
3, 160320, Note_on_c, 2, 62, 95
3, 160320, Note_on_c, 2, 58, 95
3, 160320, Note_on_c, 2, 55, 95
3, 160320, Note_on_c, 2, 50, 95
3, 160320, Note_on_c, 2, 43, 95
3, 160800, Note_off_c, 2, 67, 95
3, 160800, Note_off_c, 2, 62, 95
3, 160800, Note_off_c, 2, 58, 95
3, 160800, Note_off_c, 2, 55, 95
3, 160800, Note_off_c, 2, 50, 95
3, 160800, Note_off_c, 2, 43, 95
3, 160800, Note_on_c, 2, 67, 95
3, 160800, Note_on_c, 2, 62, 95
3, 160800, Note_on_c, 2, 58, 95
3, 160800, Note_on_c, 2, 55, 95
3, 160800, Note_on_c, 2, 50, 95
3, 160800, Note_on_c, 2, 43, 95
3, 161280, Note_off_c, 2, 67, 95
3, 161280, Note_off_c, 2, 62, 95
3, 161280, Note_off_c, 2, 58, 95
3, 161280, Note_off_c, 2, 55, 95
3, 161280, Note_off_c, 2, 50, 95
3, 161280, Note_off_c, 2, 43, 95
3, 161280, Note_on_c, 2, 64, 95
3, 161280, Note_on_c, 2, 60, 95
3, 161280, Note_on_c, 2, 55, 95
3, 161280, Note_on_c, 2, 48, 95
3, 162240, Note_off_c, 2, 64, 95
3, 162240, Note_off_c, 2, 60, 95
3, 162240, Note_off_c, 2, 55, 95
3, 162240, Note_off_c, 2, 48, 95
3, 162240, Note_on_c, 2, 64, 95
3, 162240, Note_on_c, 2, 60, 95
3, 162240, Note_on_c, 2, 55, 95
3, 162240, Note_on_c, 2, 48, 95
3, 162720, Note_off_c, 2, 64, 95
3, 162720, Note_off_c, 2, 60, 95
3, 162720, Note_off_c, 2, 55, 95
3, 162720, Note_off_c, 2, 48, 95
3, 162720, Note_on_c, 2, 67, 95
3, 162720, Note_on_c, 2, 62, 95
3, 162720, Note_on_c, 2, 58, 95
3, 162720, Note_on_c, 2, 55, 95
3, 162720, Note_on_c, 2, 50, 95
3, 162720, Note_on_c, 2, 43, 95
3, 164160, Note_off_c, 2, 67, 95
3, 164160, Note_off_c, 2, 62, 95
3, 164160, Note_off_c, 2, 58, 95
3, 164160, Note_off_c, 2, 55, 95
3, 164160, Note_off_c, 2, 50, 95
3, 164160, Note_off_c, 2, 43, 95
3, 164160, Note_on_c, 2, 67, 95
3, 164160, Note_on_c, 2, 62, 95
3, 164160, Note_on_c, 2, 58, 95
3, 164160, Note_on_c, 2, 55, 95
3, 164160, Note_on_c, 2, 50, 95
3, 164160, Note_on_c, 2, 43, 95
3, 165120, Note_off_c, 2, 67, 95
3, 165120, Note_off_c, 2, 62, 95
3, 165120, Note_off_c, 2, 58, 95
3, 165120, Note_off_c, 2, 55, 95
3, 165120, Note_off_c, 2, 50, 95
3, 165120, Note_off_c, 2, 43, 95
3, 165120, Note_on_c, 2, 64, 95
3, 165120, Note_on_c, 2, 60, 95
3, 165120, Note_on_c, 2, 55, 95
3, 165120, Note_on_c, 2, 48, 95
3, 167040, Note_off_c, 2, 64, 95
3, 167040, Note_off_c, 2, 60, 95
3, 167040, Note_off_c, 2, 55, 95
3, 167040, Note_off_c, 2, 48, 95
3, 167520, Note_on_c, 2, 67, 95
3, 167520, Note_on_c, 2, 62, 95
3, 167520, Note_on_c, 2, 58, 95
3, 167520, Note_on_c, 2, 55, 95
3, 167520, Note_on_c, 2, 50, 95
3, 167520, Note_on_c, 2, 43, 95
3, 167760, Note_off_c, 2, 67, 95
3, 167760, Note_off_c, 2, 62, 95
3, 167760, Note_off_c, 2, 58, 95
3, 167760, Note_off_c, 2, 55, 95
3, 167760, Note_off_c, 2, 50, 95
3, 167760, Note_off_c, 2, 43, 95
3, 167760, Note_on_c, 2, 67, 95
3, 167760, Note_on_c, 2, 62, 95
3, 167760, Note_on_c, 2, 58, 95
3, 167760, Note_on_c, 2, 55, 95
3, 167760, Note_on_c, 2, 50, 95
3, 167760, Note_on_c, 2, 43, 95
3, 168000, Note_off_c, 2, 67, 95
3, 168000, Note_off_c, 2, 62, 95
3, 168000, Note_off_c, 2, 58, 95
3, 168000, Note_off_c, 2, 55, 95
3, 168000, Note_off_c, 2, 50, 95
3, 168000, Note_off_c, 2, 43, 95
3, 168240, Note_on_c, 2, 67, 95
3, 168240, Note_on_c, 2, 62, 95
3, 168240, Note_on_c, 2, 58, 95
3, 168240, Note_on_c, 2, 55, 95
3, 168240, Note_on_c, 2, 50, 95
3, 168240, Note_on_c, 2, 43, 95
3, 168480, Note_off_c, 2, 67, 95
3, 168480, Note_off_c, 2, 62, 95
3, 168480, Note_off_c, 2, 58, 95
3, 168480, Note_off_c, 2, 55, 95
3, 168480, Note_off_c, 2, 50, 95
3, 168480, Note_off_c, 2, 43, 95
3, 168480, Note_on_c, 2, 67, 95
3, 168480, Note_on_c, 2, 62, 95
3, 168480, Note_on_c, 2, 58, 95
3, 168480, Note_on_c, 2, 55, 95
3, 168480, Note_on_c, 2, 50, 95
3, 168480, Note_on_c, 2, 43, 95
3, 168720, Note_off_c, 2, 67, 95
3, 168720, Note_off_c, 2, 62, 95
3, 168720, Note_off_c, 2, 58, 95
3, 168720, Note_off_c, 2, 55, 95
3, 168720, Note_off_c, 2, 50, 95
3, 168720, Note_off_c, 2, 43, 95
3, 168960, Note_on_c, 2, 67, 79
3, 168960, Note_on_c, 2, 62, 79
3, 168960, Note_on_c, 2, 55, 79
3, 168960, Note_on_c, 2, 50, 79
3, 168960, Note_on_c, 2, 46, 79
3, 168960, Note_on_c, 2, 43, 79
3, 169440, Note_off_c, 2, 67, 79
3, 169440, Note_off_c, 2, 62, 79
3, 169440, Note_off_c, 2, 55, 79
3, 169440, Note_off_c, 2, 50, 79
3, 169440, Note_off_c, 2, 46, 79
3, 169440, Note_off_c, 2, 43, 79
3, 169440, Note_on_c, 2, 67, 79
3, 169440, Note_on_c, 2, 62, 79
3, 169440, Note_on_c, 2, 55, 79
3, 169440, Note_on_c, 2, 50, 79
3, 169440, Note_on_c, 2, 46, 79
3, 169440, Note_on_c, 2, 43, 79
3, 169680, Note_off_c, 2, 67, 79
3, 169680, Note_off_c, 2, 62, 79
3, 169680, Note_off_c, 2, 55, 79
3, 169680, Note_off_c, 2, 50, 79
3, 169680, Note_off_c, 2, 46, 79
3, 169680, Note_off_c, 2, 43, 79
3, 169680, Note_on_c, 2, 67, 79
3, 169680, Note_on_c, 2, 62, 79
3, 169680, Note_on_c, 2, 55, 79
3, 169680, Note_on_c, 2, 50, 79
3, 169680, Note_on_c, 2, 46, 79
3, 169680, Note_on_c, 2, 43, 79
3, 169920, Note_off_c, 2, 67, 79
3, 169920, Note_off_c, 2, 62, 79
3, 169920, Note_off_c, 2, 55, 79
3, 169920, Note_off_c, 2, 50, 79
3, 169920, Note_off_c, 2, 46, 79
3, 169920, Note_off_c, 2, 43, 79
3, 169920, Note_on_c, 2, 67, 79
3, 169920, Note_on_c, 2, 62, 79
3, 169920, Note_on_c, 2, 55, 79
3, 169920, Note_on_c, 2, 50, 79
3, 169920, Note_on_c, 2, 46, 79
3, 169920, Note_on_c, 2, 43, 79
3, 170400, Note_off_c, 2, 67, 79
3, 170400, Note_off_c, 2, 62, 79
3, 170400, Note_off_c, 2, 55, 79
3, 170400, Note_off_c, 2, 50, 79
3, 170400, Note_off_c, 2, 46, 79
3, 170400, Note_off_c, 2, 43, 79
3, 170400, Note_on_c, 2, 67, 79
3, 170400, Note_on_c, 2, 62, 79
3, 170400, Note_on_c, 2, 55, 79
3, 170400, Note_on_c, 2, 50, 79
3, 170400, Note_on_c, 2, 46, 79
3, 170400, Note_on_c, 2, 43, 79
3, 170640, Note_off_c, 2, 67, 79
3, 170640, Note_off_c, 2, 62, 79
3, 170640, Note_off_c, 2, 55, 79
3, 170640, Note_off_c, 2, 50, 79
3, 170640, Note_off_c, 2, 46, 79
3, 170640, Note_off_c, 2, 43, 79
3, 170640, Note_on_c, 2, 67, 79
3, 170640, Note_on_c, 2, 62, 79
3, 170640, Note_on_c, 2, 55, 79
3, 170640, Note_on_c, 2, 50, 79
3, 170640, Note_on_c, 2, 46, 79
3, 170640, Note_on_c, 2, 43, 79
3, 170880, Note_off_c, 2, 67, 79
3, 170880, Note_off_c, 2, 62, 79
3, 170880, Note_off_c, 2, 55, 79
3, 170880, Note_off_c, 2, 50, 79
3, 170880, Note_off_c, 2, 46, 79
3, 170880, Note_off_c, 2, 43, 79
3, 170880, Note_on_c, 2, 67, 79
3, 170880, Note_on_c, 2, 62, 79
3, 170880, Note_on_c, 2, 55, 79
3, 170880, Note_on_c, 2, 50, 79
3, 170880, Note_on_c, 2, 46, 79
3, 170880, Note_on_c, 2, 43, 79
3, 171120, Note_off_c, 2, 67, 79
3, 171120, Note_off_c, 2, 62, 79
3, 171120, Note_off_c, 2, 55, 79
3, 171120, Note_off_c, 2, 50, 79
3, 171120, Note_off_c, 2, 46, 79
3, 171120, Note_off_c, 2, 43, 79
3, 171120, Note_on_c, 2, 67, 79
3, 171120, Note_on_c, 2, 62, 79
3, 171120, Note_on_c, 2, 55, 79
3, 171120, Note_on_c, 2, 50, 79
3, 171120, Note_on_c, 2, 46, 79
3, 171120, Note_on_c, 2, 43, 79
3, 171360, Note_off_c, 2, 67, 79
3, 171360, Note_off_c, 2, 62, 79
3, 171360, Note_off_c, 2, 55, 79
3, 171360, Note_off_c, 2, 50, 79
3, 171360, Note_off_c, 2, 46, 79
3, 171360, Note_off_c, 2, 43, 79
3, 171360, Note_on_c, 2, 67, 79
3, 171360, Note_on_c, 2, 62, 79
3, 171360, Note_on_c, 2, 55, 79
3, 171360, Note_on_c, 2, 50, 79
3, 171360, Note_on_c, 2, 46, 79
3, 171360, Note_on_c, 2, 43, 79
3, 171600, Note_off_c, 2, 67, 79
3, 171600, Note_off_c, 2, 62, 79
3, 171600, Note_off_c, 2, 55, 79
3, 171600, Note_off_c, 2, 50, 79
3, 171600, Note_off_c, 2, 46, 79
3, 171600, Note_off_c, 2, 43, 79
3, 171600, Note_on_c, 2, 67, 79
3, 171600, Note_on_c, 2, 62, 79
3, 171600, Note_on_c, 2, 55, 79
3, 171600, Note_on_c, 2, 50, 79
3, 171600, Note_on_c, 2, 46, 79
3, 171600, Note_on_c, 2, 43, 79
3, 171840, Note_off_c, 2, 67, 79
3, 171840, Note_off_c, 2, 62, 79
3, 171840, Note_off_c, 2, 55, 79
3, 171840, Note_off_c, 2, 50, 79
3, 171840, Note_off_c, 2, 46, 79
3, 171840, Note_off_c, 2, 43, 79
3, 171840, Note_on_c, 2, 67, 79
3, 171840, Note_on_c, 2, 62, 79
3, 171840, Note_on_c, 2, 55, 79
3, 171840, Note_on_c, 2, 50, 79
3, 171840, Note_on_c, 2, 46, 79
3, 171840, Note_on_c, 2, 43, 79
3, 172080, Note_off_c, 2, 67, 79
3, 172080, Note_off_c, 2, 62, 79
3, 172080, Note_off_c, 2, 55, 79
3, 172080, Note_off_c, 2, 50, 79
3, 172080, Note_off_c, 2, 46, 79
3, 172080, Note_off_c, 2, 43, 79
3, 172080, Note_on_c, 2, 67, 79
3, 172080, Note_on_c, 2, 62, 79
3, 172080, Note_on_c, 2, 55, 79
3, 172080, Note_on_c, 2, 50, 79
3, 172080, Note_on_c, 2, 46, 79
3, 172080, Note_on_c, 2, 43, 79
3, 172320, Note_off_c, 2, 67, 79
3, 172320, Note_off_c, 2, 62, 79
3, 172320, Note_off_c, 2, 55, 79
3, 172320, Note_off_c, 2, 50, 79
3, 172320, Note_off_c, 2, 46, 79
3, 172320, Note_off_c, 2, 43, 79
3, 172320, Note_on_c, 2, 67, 79
3, 172320, Note_on_c, 2, 62, 79
3, 172320, Note_on_c, 2, 55, 79
3, 172320, Note_on_c, 2, 50, 79
3, 172320, Note_on_c, 2, 46, 79
3, 172320, Note_on_c, 2, 43, 79
3, 172560, Note_off_c, 2, 67, 79
3, 172560, Note_off_c, 2, 62, 79
3, 172560, Note_off_c, 2, 55, 79
3, 172560, Note_off_c, 2, 50, 79
3, 172560, Note_off_c, 2, 46, 79
3, 172560, Note_off_c, 2, 43, 79
3, 172560, Note_on_c, 2, 67, 79
3, 172560, Note_on_c, 2, 62, 79
3, 172560, Note_on_c, 2, 55, 79
3, 172560, Note_on_c, 2, 50, 79
3, 172560, Note_on_c, 2, 46, 79
3, 172560, Note_on_c, 2, 43, 79
3, 172800, Note_off_c, 2, 67, 79
3, 172800, Note_off_c, 2, 62, 79
3, 172800, Note_off_c, 2, 55, 79
3, 172800, Note_off_c, 2, 50, 79
3, 172800, Note_off_c, 2, 46, 79
3, 172800, Note_off_c, 2, 43, 79
3, 172800, Note_on_c, 2, 67, 79
3, 172800, Note_on_c, 2, 62, 79
3, 172800, Note_on_c, 2, 55, 79
3, 172800, Note_on_c, 2, 50, 79
3, 172800, Note_on_c, 2, 46, 79
3, 172800, Note_on_c, 2, 43, 79
3, 173280, Note_off_c, 2, 67, 79
3, 173280, Note_off_c, 2, 62, 79
3, 173280, Note_off_c, 2, 55, 79
3, 173280, Note_off_c, 2, 50, 79
3, 173280, Note_off_c, 2, 46, 79
3, 173280, Note_off_c, 2, 43, 79
3, 173280, Note_on_c, 2, 67, 79
3, 173280, Note_on_c, 2, 62, 79
3, 173280, Note_on_c, 2, 55, 79
3, 173280, Note_on_c, 2, 50, 79
3, 173280, Note_on_c, 2, 46, 79
3, 173280, Note_on_c, 2, 43, 79
3, 173520, Note_off_c, 2, 67, 79
3, 173520, Note_off_c, 2, 62, 79
3, 173520, Note_off_c, 2, 55, 79
3, 173520, Note_off_c, 2, 50, 79
3, 173520, Note_off_c, 2, 46, 79
3, 173520, Note_off_c, 2, 43, 79
3, 173520, Note_on_c, 2, 67, 79
3, 173520, Note_on_c, 2, 62, 79
3, 173520, Note_on_c, 2, 55, 79
3, 173520, Note_on_c, 2, 50, 79
3, 173520, Note_on_c, 2, 46, 79
3, 173520, Note_on_c, 2, 43, 79
3, 173760, Note_off_c, 2, 67, 79
3, 173760, Note_off_c, 2, 62, 79
3, 173760, Note_off_c, 2, 55, 79
3, 173760, Note_off_c, 2, 50, 79
3, 173760, Note_off_c, 2, 46, 79
3, 173760, Note_off_c, 2, 43, 79
3, 173760, Note_on_c, 2, 67, 79
3, 173760, Note_on_c, 2, 62, 79
3, 173760, Note_on_c, 2, 55, 79
3, 173760, Note_on_c, 2, 50, 79
3, 173760, Note_on_c, 2, 46, 79
3, 173760, Note_on_c, 2, 43, 79
3, 174240, Note_off_c, 2, 67, 79
3, 174240, Note_off_c, 2, 62, 79
3, 174240, Note_off_c, 2, 55, 79
3, 174240, Note_off_c, 2, 50, 79
3, 174240, Note_off_c, 2, 46, 79
3, 174240, Note_off_c, 2, 43, 79
3, 174240, Note_on_c, 2, 67, 79
3, 174240, Note_on_c, 2, 62, 79
3, 174240, Note_on_c, 2, 55, 79
3, 174240, Note_on_c, 2, 50, 79
3, 174240, Note_on_c, 2, 46, 79
3, 174240, Note_on_c, 2, 43, 79
3, 174480, Note_off_c, 2, 67, 79
3, 174480, Note_off_c, 2, 62, 79
3, 174480, Note_off_c, 2, 55, 79
3, 174480, Note_off_c, 2, 50, 79
3, 174480, Note_off_c, 2, 46, 79
3, 174480, Note_off_c, 2, 43, 79
3, 174480, Note_on_c, 2, 67, 79
3, 174480, Note_on_c, 2, 62, 79
3, 174480, Note_on_c, 2, 55, 79
3, 174480, Note_on_c, 2, 50, 79
3, 174480, Note_on_c, 2, 46, 79
3, 174480, Note_on_c, 2, 43, 79
3, 174720, Note_off_c, 2, 67, 79
3, 174720, Note_off_c, 2, 62, 79
3, 174720, Note_off_c, 2, 55, 79
3, 174720, Note_off_c, 2, 50, 79
3, 174720, Note_off_c, 2, 46, 79
3, 174720, Note_off_c, 2, 43, 79
3, 174720, Note_on_c, 2, 67, 79
3, 174720, Note_on_c, 2, 62, 79
3, 174720, Note_on_c, 2, 55, 79
3, 174720, Note_on_c, 2, 50, 79
3, 174720, Note_on_c, 2, 46, 79
3, 174720, Note_on_c, 2, 43, 79
3, 174960, Note_off_c, 2, 67, 79
3, 174960, Note_off_c, 2, 62, 79
3, 174960, Note_off_c, 2, 55, 79
3, 174960, Note_off_c, 2, 50, 79
3, 174960, Note_off_c, 2, 46, 79
3, 174960, Note_off_c, 2, 43, 79
3, 174960, Note_on_c, 2, 67, 79
3, 174960, Note_on_c, 2, 62, 79
3, 174960, Note_on_c, 2, 55, 79
3, 174960, Note_on_c, 2, 50, 79
3, 174960, Note_on_c, 2, 46, 79
3, 174960, Note_on_c, 2, 43, 79
3, 175200, Note_off_c, 2, 67, 79
3, 175200, Note_off_c, 2, 62, 79
3, 175200, Note_off_c, 2, 55, 79
3, 175200, Note_off_c, 2, 50, 79
3, 175200, Note_off_c, 2, 46, 79
3, 175200, Note_off_c, 2, 43, 79
3, 175200, Note_on_c, 2, 67, 79
3, 175200, Note_on_c, 2, 62, 79
3, 175200, Note_on_c, 2, 55, 79
3, 175200, Note_on_c, 2, 50, 79
3, 175200, Note_on_c, 2, 46, 79
3, 175200, Note_on_c, 2, 43, 79
3, 175440, Note_off_c, 2, 67, 79
3, 175440, Note_off_c, 2, 62, 79
3, 175440, Note_off_c, 2, 55, 79
3, 175440, Note_off_c, 2, 50, 79
3, 175440, Note_off_c, 2, 46, 79
3, 175440, Note_off_c, 2, 43, 79
3, 175440, Note_on_c, 2, 67, 79
3, 175440, Note_on_c, 2, 62, 79
3, 175440, Note_on_c, 2, 55, 79
3, 175440, Note_on_c, 2, 50, 79
3, 175440, Note_on_c, 2, 46, 79
3, 175440, Note_on_c, 2, 43, 79
3, 175680, Note_off_c, 2, 67, 79
3, 175680, Note_off_c, 2, 62, 79
3, 175680, Note_off_c, 2, 55, 79
3, 175680, Note_off_c, 2, 50, 79
3, 175680, Note_off_c, 2, 46, 79
3, 175680, Note_off_c, 2, 43, 79
3, 175680, Note_on_c, 2, 67, 79
3, 175680, Note_on_c, 2, 62, 79
3, 175680, Note_on_c, 2, 55, 79
3, 175680, Note_on_c, 2, 50, 79
3, 175680, Note_on_c, 2, 46, 79
3, 175680, Note_on_c, 2, 43, 79
3, 175920, Note_off_c, 2, 67, 79
3, 175920, Note_off_c, 2, 62, 79
3, 175920, Note_off_c, 2, 55, 79
3, 175920, Note_off_c, 2, 50, 79
3, 175920, Note_off_c, 2, 46, 79
3, 175920, Note_off_c, 2, 43, 79
3, 175920, Note_on_c, 2, 67, 79
3, 175920, Note_on_c, 2, 62, 79
3, 175920, Note_on_c, 2, 55, 79
3, 175920, Note_on_c, 2, 50, 79
3, 175920, Note_on_c, 2, 46, 79
3, 175920, Note_on_c, 2, 43, 79
3, 176160, Note_off_c, 2, 67, 79
3, 176160, Note_off_c, 2, 62, 79
3, 176160, Note_off_c, 2, 55, 79
3, 176160, Note_off_c, 2, 50, 79
3, 176160, Note_off_c, 2, 46, 79
3, 176160, Note_off_c, 2, 43, 79
3, 176160, Note_on_c, 2, 67, 79
3, 176160, Note_on_c, 2, 62, 79
3, 176160, Note_on_c, 2, 55, 79
3, 176160, Note_on_c, 2, 50, 79
3, 176160, Note_on_c, 2, 46, 79
3, 176160, Note_on_c, 2, 43, 79
3, 176400, Note_off_c, 2, 67, 79
3, 176400, Note_off_c, 2, 62, 79
3, 176400, Note_off_c, 2, 55, 79
3, 176400, Note_off_c, 2, 50, 79
3, 176400, Note_off_c, 2, 46, 79
3, 176400, Note_off_c, 2, 43, 79
3, 176400, Note_on_c, 2, 67, 79
3, 176400, Note_on_c, 2, 62, 79
3, 176400, Note_on_c, 2, 55, 79
3, 176400, Note_on_c, 2, 50, 79
3, 176400, Note_on_c, 2, 46, 79
3, 176400, Note_on_c, 2, 43, 79
3, 176640, Note_off_c, 2, 67, 79
3, 176640, Note_off_c, 2, 62, 79
3, 176640, Note_off_c, 2, 55, 79
3, 176640, Note_off_c, 2, 50, 79
3, 176640, Note_off_c, 2, 46, 79
3, 176640, Note_off_c, 2, 43, 79
3, 176640, Note_on_c, 2, 67, 79
3, 176640, Note_on_c, 2, 62, 79
3, 176640, Note_on_c, 2, 55, 79
3, 176640, Note_on_c, 2, 50, 79
3, 176640, Note_on_c, 2, 46, 79
3, 176640, Note_on_c, 2, 43, 79
3, 177120, Note_off_c, 2, 67, 79
3, 177120, Note_off_c, 2, 62, 79
3, 177120, Note_off_c, 2, 55, 79
3, 177120, Note_off_c, 2, 50, 79
3, 177120, Note_off_c, 2, 46, 79
3, 177120, Note_off_c, 2, 43, 79
3, 177120, Note_on_c, 2, 67, 79
3, 177120, Note_on_c, 2, 62, 79
3, 177120, Note_on_c, 2, 55, 79
3, 177120, Note_on_c, 2, 50, 79
3, 177120, Note_on_c, 2, 46, 79
3, 177120, Note_on_c, 2, 43, 79
3, 177360, Note_off_c, 2, 67, 79
3, 177360, Note_off_c, 2, 62, 79
3, 177360, Note_off_c, 2, 55, 79
3, 177360, Note_off_c, 2, 50, 79
3, 177360, Note_off_c, 2, 46, 79
3, 177360, Note_off_c, 2, 43, 79
3, 177360, Note_on_c, 2, 67, 79
3, 177360, Note_on_c, 2, 62, 79
3, 177360, Note_on_c, 2, 55, 79
3, 177360, Note_on_c, 2, 50, 79
3, 177360, Note_on_c, 2, 46, 79
3, 177360, Note_on_c, 2, 43, 79
3, 177600, Note_off_c, 2, 67, 79
3, 177600, Note_off_c, 2, 62, 79
3, 177600, Note_off_c, 2, 55, 79
3, 177600, Note_off_c, 2, 50, 79
3, 177600, Note_off_c, 2, 46, 79
3, 177600, Note_off_c, 2, 43, 79
3, 177600, Note_on_c, 2, 67, 79
3, 177600, Note_on_c, 2, 62, 79
3, 177600, Note_on_c, 2, 55, 79
3, 177600, Note_on_c, 2, 50, 79
3, 177600, Note_on_c, 2, 46, 79
3, 177600, Note_on_c, 2, 43, 79
3, 178080, Note_off_c, 2, 67, 79
3, 178080, Note_off_c, 2, 62, 79
3, 178080, Note_off_c, 2, 55, 79
3, 178080, Note_off_c, 2, 50, 79
3, 178080, Note_off_c, 2, 46, 79
3, 178080, Note_off_c, 2, 43, 79
3, 178080, Note_on_c, 2, 67, 79
3, 178080, Note_on_c, 2, 62, 79
3, 178080, Note_on_c, 2, 55, 79
3, 178080, Note_on_c, 2, 50, 79
3, 178080, Note_on_c, 2, 46, 79
3, 178080, Note_on_c, 2, 43, 79
3, 178320, Note_off_c, 2, 67, 79
3, 178320, Note_off_c, 2, 62, 79
3, 178320, Note_off_c, 2, 55, 79
3, 178320, Note_off_c, 2, 50, 79
3, 178320, Note_off_c, 2, 46, 79
3, 178320, Note_off_c, 2, 43, 79
3, 178320, Note_on_c, 2, 67, 79
3, 178320, Note_on_c, 2, 62, 79
3, 178320, Note_on_c, 2, 55, 79
3, 178320, Note_on_c, 2, 50, 79
3, 178320, Note_on_c, 2, 46, 79
3, 178320, Note_on_c, 2, 43, 79
3, 178560, Note_off_c, 2, 67, 79
3, 178560, Note_off_c, 2, 62, 79
3, 178560, Note_off_c, 2, 55, 79
3, 178560, Note_off_c, 2, 50, 79
3, 178560, Note_off_c, 2, 46, 79
3, 178560, Note_off_c, 2, 43, 79
3, 178560, Note_on_c, 2, 67, 79
3, 178560, Note_on_c, 2, 62, 79
3, 178560, Note_on_c, 2, 55, 79
3, 178560, Note_on_c, 2, 50, 79
3, 178560, Note_on_c, 2, 46, 79
3, 178560, Note_on_c, 2, 43, 79
3, 178800, Note_off_c, 2, 67, 79
3, 178800, Note_off_c, 2, 62, 79
3, 178800, Note_off_c, 2, 55, 79
3, 178800, Note_off_c, 2, 50, 79
3, 178800, Note_off_c, 2, 46, 79
3, 178800, Note_off_c, 2, 43, 79
3, 178800, Note_on_c, 2, 67, 79
3, 178800, Note_on_c, 2, 62, 79
3, 178800, Note_on_c, 2, 55, 79
3, 178800, Note_on_c, 2, 50, 79
3, 178800, Note_on_c, 2, 46, 79
3, 178800, Note_on_c, 2, 43, 79
3, 179040, Note_off_c, 2, 67, 79
3, 179040, Note_off_c, 2, 62, 79
3, 179040, Note_off_c, 2, 55, 79
3, 179040, Note_off_c, 2, 50, 79
3, 179040, Note_off_c, 2, 46, 79
3, 179040, Note_off_c, 2, 43, 79
3, 179040, Note_on_c, 2, 67, 79
3, 179040, Note_on_c, 2, 62, 79
3, 179040, Note_on_c, 2, 55, 79
3, 179040, Note_on_c, 2, 50, 79
3, 179040, Note_on_c, 2, 46, 79
3, 179040, Note_on_c, 2, 43, 79
3, 179280, Note_off_c, 2, 67, 79
3, 179280, Note_off_c, 2, 62, 79
3, 179280, Note_off_c, 2, 55, 79
3, 179280, Note_off_c, 2, 50, 79
3, 179280, Note_off_c, 2, 46, 79
3, 179280, Note_off_c, 2, 43, 79
3, 179280, Note_on_c, 2, 67, 79
3, 179280, Note_on_c, 2, 62, 79
3, 179280, Note_on_c, 2, 55, 79
3, 179280, Note_on_c, 2, 50, 79
3, 179280, Note_on_c, 2, 46, 79
3, 179280, Note_on_c, 2, 43, 79
3, 179520, Note_off_c, 2, 67, 79
3, 179520, Note_off_c, 2, 62, 79
3, 179520, Note_off_c, 2, 55, 79
3, 179520, Note_off_c, 2, 50, 79
3, 179520, Note_off_c, 2, 46, 79
3, 179520, Note_off_c, 2, 43, 79
3, 179520, Note_on_c, 2, 67, 79
3, 179520, Note_on_c, 2, 62, 79
3, 179520, Note_on_c, 2, 55, 79
3, 179520, Note_on_c, 2, 50, 79
3, 179520, Note_on_c, 2, 46, 79
3, 179520, Note_on_c, 2, 43, 79
3, 179760, Note_off_c, 2, 67, 79
3, 179760, Note_off_c, 2, 62, 79
3, 179760, Note_off_c, 2, 55, 79
3, 179760, Note_off_c, 2, 50, 79
3, 179760, Note_off_c, 2, 46, 79
3, 179760, Note_off_c, 2, 43, 79
3, 179760, Note_on_c, 2, 67, 79
3, 179760, Note_on_c, 2, 62, 79
3, 179760, Note_on_c, 2, 55, 79
3, 179760, Note_on_c, 2, 50, 79
3, 179760, Note_on_c, 2, 46, 79
3, 179760, Note_on_c, 2, 43, 79
3, 180000, Note_off_c, 2, 67, 79
3, 180000, Note_off_c, 2, 62, 79
3, 180000, Note_off_c, 2, 55, 79
3, 180000, Note_off_c, 2, 50, 79
3, 180000, Note_off_c, 2, 46, 79
3, 180000, Note_off_c, 2, 43, 79
3, 180000, Note_on_c, 2, 67, 79
3, 180000, Note_on_c, 2, 62, 79
3, 180000, Note_on_c, 2, 55, 79
3, 180000, Note_on_c, 2, 50, 79
3, 180000, Note_on_c, 2, 46, 79
3, 180000, Note_on_c, 2, 43, 79
3, 180240, Note_off_c, 2, 67, 79
3, 180240, Note_off_c, 2, 62, 79
3, 180240, Note_off_c, 2, 55, 79
3, 180240, Note_off_c, 2, 50, 79
3, 180240, Note_off_c, 2, 46, 79
3, 180240, Note_off_c, 2, 43, 79
3, 180240, Note_on_c, 2, 67, 79
3, 180240, Note_on_c, 2, 62, 79
3, 180240, Note_on_c, 2, 55, 79
3, 180240, Note_on_c, 2, 50, 79
3, 180240, Note_on_c, 2, 46, 79
3, 180240, Note_on_c, 2, 43, 79
3, 180480, Note_off_c, 2, 67, 79
3, 180480, Note_off_c, 2, 62, 79
3, 180480, Note_off_c, 2, 55, 79
3, 180480, Note_off_c, 2, 50, 79
3, 180480, Note_off_c, 2, 46, 79
3, 180480, Note_off_c, 2, 43, 79
3, 180480, Note_on_c, 2, 67, 79
3, 180480, Note_on_c, 2, 62, 79
3, 180480, Note_on_c, 2, 55, 79
3, 180480, Note_on_c, 2, 50, 79
3, 180480, Note_on_c, 2, 46, 79
3, 180480, Note_on_c, 2, 43, 79
3, 180960, Note_off_c, 2, 67, 79
3, 180960, Note_off_c, 2, 62, 79
3, 180960, Note_off_c, 2, 55, 79
3, 180960, Note_off_c, 2, 50, 79
3, 180960, Note_off_c, 2, 46, 79
3, 180960, Note_off_c, 2, 43, 79
3, 180960, Note_on_c, 2, 67, 79
3, 180960, Note_on_c, 2, 62, 79
3, 180960, Note_on_c, 2, 55, 79
3, 180960, Note_on_c, 2, 50, 79
3, 180960, Note_on_c, 2, 46, 79
3, 180960, Note_on_c, 2, 43, 79
3, 181200, Note_off_c, 2, 67, 79
3, 181200, Note_off_c, 2, 62, 79
3, 181200, Note_off_c, 2, 55, 79
3, 181200, Note_off_c, 2, 50, 79
3, 181200, Note_off_c, 2, 46, 79
3, 181200, Note_off_c, 2, 43, 79
3, 181200, Note_on_c, 2, 67, 79
3, 181200, Note_on_c, 2, 62, 79
3, 181200, Note_on_c, 2, 55, 79
3, 181200, Note_on_c, 2, 50, 79
3, 181200, Note_on_c, 2, 46, 79
3, 181200, Note_on_c, 2, 43, 79
3, 181440, Note_off_c, 2, 67, 79
3, 181440, Note_off_c, 2, 62, 79
3, 181440, Note_off_c, 2, 55, 79
3, 181440, Note_off_c, 2, 50, 79
3, 181440, Note_off_c, 2, 46, 79
3, 181440, Note_off_c, 2, 43, 79
3, 181440, Note_on_c, 2, 67, 79
3, 181440, Note_on_c, 2, 62, 79
3, 181440, Note_on_c, 2, 55, 79
3, 181440, Note_on_c, 2, 50, 79
3, 181440, Note_on_c, 2, 46, 79
3, 181440, Note_on_c, 2, 43, 79
3, 181920, Note_off_c, 2, 67, 79
3, 181920, Note_off_c, 2, 62, 79
3, 181920, Note_off_c, 2, 55, 79
3, 181920, Note_off_c, 2, 50, 79
3, 181920, Note_off_c, 2, 46, 79
3, 181920, Note_off_c, 2, 43, 79
3, 181920, Note_on_c, 2, 67, 79
3, 181920, Note_on_c, 2, 62, 79
3, 181920, Note_on_c, 2, 55, 79
3, 181920, Note_on_c, 2, 50, 79
3, 181920, Note_on_c, 2, 46, 79
3, 181920, Note_on_c, 2, 43, 79
3, 182160, Note_off_c, 2, 67, 79
3, 182160, Note_off_c, 2, 62, 79
3, 182160, Note_off_c, 2, 55, 79
3, 182160, Note_off_c, 2, 50, 79
3, 182160, Note_off_c, 2, 46, 79
3, 182160, Note_off_c, 2, 43, 79
3, 182160, Note_on_c, 2, 67, 79
3, 182160, Note_on_c, 2, 62, 79
3, 182160, Note_on_c, 2, 55, 79
3, 182160, Note_on_c, 2, 50, 79
3, 182160, Note_on_c, 2, 46, 79
3, 182160, Note_on_c, 2, 43, 79
3, 182400, Note_off_c, 2, 67, 79
3, 182400, Note_off_c, 2, 62, 79
3, 182400, Note_off_c, 2, 55, 79
3, 182400, Note_off_c, 2, 50, 79
3, 182400, Note_off_c, 2, 46, 79
3, 182400, Note_off_c, 2, 43, 79
3, 182400, Note_on_c, 2, 67, 79
3, 182400, Note_on_c, 2, 62, 79
3, 182400, Note_on_c, 2, 55, 79
3, 182400, Note_on_c, 2, 50, 79
3, 182400, Note_on_c, 2, 46, 79
3, 182400, Note_on_c, 2, 43, 79
3, 182640, Note_off_c, 2, 67, 79
3, 182640, Note_off_c, 2, 62, 79
3, 182640, Note_off_c, 2, 55, 79
3, 182640, Note_off_c, 2, 50, 79
3, 182640, Note_off_c, 2, 46, 79
3, 182640, Note_off_c, 2, 43, 79
3, 182640, Note_on_c, 2, 67, 79
3, 182640, Note_on_c, 2, 62, 79
3, 182640, Note_on_c, 2, 55, 79
3, 182640, Note_on_c, 2, 50, 79
3, 182640, Note_on_c, 2, 46, 79
3, 182640, Note_on_c, 2, 43, 79
3, 182880, Note_off_c, 2, 67, 79
3, 182880, Note_off_c, 2, 62, 79
3, 182880, Note_off_c, 2, 55, 79
3, 182880, Note_off_c, 2, 50, 79
3, 182880, Note_off_c, 2, 46, 79
3, 182880, Note_off_c, 2, 43, 79
3, 182880, Note_on_c, 2, 67, 79
3, 182880, Note_on_c, 2, 62, 79
3, 182880, Note_on_c, 2, 55, 79
3, 182880, Note_on_c, 2, 50, 79
3, 182880, Note_on_c, 2, 46, 79
3, 182880, Note_on_c, 2, 43, 79
3, 183120, Note_off_c, 2, 67, 79
3, 183120, Note_off_c, 2, 62, 79
3, 183120, Note_off_c, 2, 55, 79
3, 183120, Note_off_c, 2, 50, 79
3, 183120, Note_off_c, 2, 46, 79
3, 183120, Note_off_c, 2, 43, 79
3, 183120, Note_on_c, 2, 67, 79
3, 183120, Note_on_c, 2, 62, 79
3, 183120, Note_on_c, 2, 55, 79
3, 183120, Note_on_c, 2, 50, 79
3, 183120, Note_on_c, 2, 46, 79
3, 183120, Note_on_c, 2, 43, 79
3, 183360, Note_off_c, 2, 67, 79
3, 183360, Note_off_c, 2, 62, 79
3, 183360, Note_off_c, 2, 55, 79
3, 183360, Note_off_c, 2, 50, 79
3, 183360, Note_off_c, 2, 46, 79
3, 183360, Note_off_c, 2, 43, 79
3, 183360, Note_on_c, 2, 67, 79
3, 183360, Note_on_c, 2, 62, 79
3, 183360, Note_on_c, 2, 55, 79
3, 183360, Note_on_c, 2, 50, 79
3, 183360, Note_on_c, 2, 46, 79
3, 183360, Note_on_c, 2, 43, 79
3, 183600, Note_off_c, 2, 67, 79
3, 183600, Note_off_c, 2, 62, 79
3, 183600, Note_off_c, 2, 55, 79
3, 183600, Note_off_c, 2, 50, 79
3, 183600, Note_off_c, 2, 46, 79
3, 183600, Note_off_c, 2, 43, 79
3, 183600, Note_on_c, 2, 67, 79
3, 183600, Note_on_c, 2, 62, 79
3, 183600, Note_on_c, 2, 55, 79
3, 183600, Note_on_c, 2, 50, 79
3, 183600, Note_on_c, 2, 46, 79
3, 183600, Note_on_c, 2, 43, 79
3, 183840, Note_off_c, 2, 67, 79
3, 183840, Note_off_c, 2, 62, 79
3, 183840, Note_off_c, 2, 55, 79
3, 183840, Note_off_c, 2, 50, 79
3, 183840, Note_off_c, 2, 46, 79
3, 183840, Note_off_c, 2, 43, 79
3, 183840, Note_on_c, 2, 67, 79
3, 183840, Note_on_c, 2, 62, 79
3, 183840, Note_on_c, 2, 55, 79
3, 183840, Note_on_c, 2, 50, 79
3, 183840, Note_on_c, 2, 46, 79
3, 183840, Note_on_c, 2, 43, 79
3, 184080, Note_off_c, 2, 67, 79
3, 184080, Note_off_c, 2, 62, 79
3, 184080, Note_off_c, 2, 55, 79
3, 184080, Note_off_c, 2, 50, 79
3, 184080, Note_off_c, 2, 46, 79
3, 184080, Note_off_c, 2, 43, 79
3, 184080, Note_on_c, 2, 67, 79
3, 184080, Note_on_c, 2, 62, 79
3, 184080, Note_on_c, 2, 55, 79
3, 184080, Note_on_c, 2, 50, 79
3, 184080, Note_on_c, 2, 46, 79
3, 184080, Note_on_c, 2, 43, 79
3, 184320, Note_off_c, 2, 67, 79
3, 184320, Note_off_c, 2, 62, 79
3, 184320, Note_off_c, 2, 55, 79
3, 184320, Note_off_c, 2, 50, 79
3, 184320, Note_off_c, 2, 46, 79
3, 184320, Note_off_c, 2, 43, 79
3, 184320, Note_on_c, 2, 67, 79
3, 184320, Note_on_c, 2, 62, 79
3, 184320, Note_on_c, 2, 55, 79
3, 184320, Note_on_c, 2, 50, 79
3, 184320, Note_on_c, 2, 46, 79
3, 184320, Note_on_c, 2, 43, 79
3, 184800, Note_off_c, 2, 67, 79
3, 184800, Note_off_c, 2, 62, 79
3, 184800, Note_off_c, 2, 55, 79
3, 184800, Note_off_c, 2, 50, 79
3, 184800, Note_off_c, 2, 46, 79
3, 184800, Note_off_c, 2, 43, 79
3, 184800, Note_on_c, 2, 67, 79
3, 184800, Note_on_c, 2, 62, 79
3, 184800, Note_on_c, 2, 55, 79
3, 184800, Note_on_c, 2, 50, 79
3, 184800, Note_on_c, 2, 46, 79
3, 184800, Note_on_c, 2, 43, 79
3, 185040, Note_off_c, 2, 67, 79
3, 185040, Note_off_c, 2, 62, 79
3, 185040, Note_off_c, 2, 55, 79
3, 185040, Note_off_c, 2, 50, 79
3, 185040, Note_off_c, 2, 46, 79
3, 185040, Note_off_c, 2, 43, 79
3, 185040, Note_on_c, 2, 67, 79
3, 185040, Note_on_c, 2, 62, 79
3, 185040, Note_on_c, 2, 55, 79
3, 185040, Note_on_c, 2, 50, 79
3, 185040, Note_on_c, 2, 46, 79
3, 185040, Note_on_c, 2, 43, 79
3, 185280, Note_off_c, 2, 67, 79
3, 185280, Note_off_c, 2, 62, 79
3, 185280, Note_off_c, 2, 55, 79
3, 185280, Note_off_c, 2, 50, 79
3, 185280, Note_off_c, 2, 46, 79
3, 185280, Note_off_c, 2, 43, 79
3, 185280, Note_on_c, 2, 67, 79
3, 185280, Note_on_c, 2, 62, 79
3, 185280, Note_on_c, 2, 55, 79
3, 185280, Note_on_c, 2, 50, 79
3, 185280, Note_on_c, 2, 46, 79
3, 185280, Note_on_c, 2, 43, 79
3, 185760, Note_off_c, 2, 67, 79
3, 185760, Note_off_c, 2, 62, 79
3, 185760, Note_off_c, 2, 55, 79
3, 185760, Note_off_c, 2, 50, 79
3, 185760, Note_off_c, 2, 46, 79
3, 185760, Note_off_c, 2, 43, 79
3, 185760, Note_on_c, 2, 67, 79
3, 185760, Note_on_c, 2, 62, 79
3, 185760, Note_on_c, 2, 55, 79
3, 185760, Note_on_c, 2, 50, 79
3, 185760, Note_on_c, 2, 46, 79
3, 185760, Note_on_c, 2, 43, 79
3, 186000, Note_off_c, 2, 67, 79
3, 186000, Note_off_c, 2, 62, 79
3, 186000, Note_off_c, 2, 55, 79
3, 186000, Note_off_c, 2, 50, 79
3, 186000, Note_off_c, 2, 46, 79
3, 186000, Note_off_c, 2, 43, 79
3, 186000, Note_on_c, 2, 67, 79
3, 186000, Note_on_c, 2, 62, 79
3, 186000, Note_on_c, 2, 55, 79
3, 186000, Note_on_c, 2, 50, 79
3, 186000, Note_on_c, 2, 46, 79
3, 186000, Note_on_c, 2, 43, 79
3, 186240, Note_off_c, 2, 67, 79
3, 186240, Note_off_c, 2, 62, 79
3, 186240, Note_off_c, 2, 55, 79
3, 186240, Note_off_c, 2, 50, 79
3, 186240, Note_off_c, 2, 46, 79
3, 186240, Note_off_c, 2, 43, 79
3, 186240, Note_on_c, 2, 67, 79
3, 186240, Note_on_c, 2, 62, 79
3, 186240, Note_on_c, 2, 55, 79
3, 186240, Note_on_c, 2, 50, 79
3, 186240, Note_on_c, 2, 46, 79
3, 186240, Note_on_c, 2, 43, 79
3, 186480, Note_off_c, 2, 67, 79
3, 186480, Note_off_c, 2, 62, 79
3, 186480, Note_off_c, 2, 55, 79
3, 186480, Note_off_c, 2, 50, 79
3, 186480, Note_off_c, 2, 46, 79
3, 186480, Note_off_c, 2, 43, 79
3, 186480, Note_on_c, 2, 67, 79
3, 186480, Note_on_c, 2, 62, 79
3, 186480, Note_on_c, 2, 55, 79
3, 186480, Note_on_c, 2, 50, 79
3, 186480, Note_on_c, 2, 46, 79
3, 186480, Note_on_c, 2, 43, 79
3, 186720, Note_off_c, 2, 67, 79
3, 186720, Note_off_c, 2, 62, 79
3, 186720, Note_off_c, 2, 55, 79
3, 186720, Note_off_c, 2, 50, 79
3, 186720, Note_off_c, 2, 46, 79
3, 186720, Note_off_c, 2, 43, 79
3, 186720, Note_on_c, 2, 67, 79
3, 186720, Note_on_c, 2, 62, 79
3, 186720, Note_on_c, 2, 55, 79
3, 186720, Note_on_c, 2, 50, 79
3, 186720, Note_on_c, 2, 46, 79
3, 186720, Note_on_c, 2, 43, 79
3, 186960, Note_off_c, 2, 67, 79
3, 186960, Note_off_c, 2, 62, 79
3, 186960, Note_off_c, 2, 55, 79
3, 186960, Note_off_c, 2, 50, 79
3, 186960, Note_off_c, 2, 46, 79
3, 186960, Note_off_c, 2, 43, 79
3, 186960, Note_on_c, 2, 67, 79
3, 186960, Note_on_c, 2, 62, 79
3, 186960, Note_on_c, 2, 55, 79
3, 186960, Note_on_c, 2, 50, 79
3, 186960, Note_on_c, 2, 46, 79
3, 186960, Note_on_c, 2, 43, 79
3, 187200, Note_off_c, 2, 67, 79
3, 187200, Note_off_c, 2, 62, 79
3, 187200, Note_off_c, 2, 55, 79
3, 187200, Note_off_c, 2, 50, 79
3, 187200, Note_off_c, 2, 46, 79
3, 187200, Note_off_c, 2, 43, 79
3, 187200, Note_on_c, 2, 67, 79
3, 187200, Note_on_c, 2, 62, 79
3, 187200, Note_on_c, 2, 55, 79
3, 187200, Note_on_c, 2, 50, 79
3, 187200, Note_on_c, 2, 46, 79
3, 187200, Note_on_c, 2, 43, 79
3, 187440, Note_off_c, 2, 67, 79
3, 187440, Note_off_c, 2, 62, 79
3, 187440, Note_off_c, 2, 55, 79
3, 187440, Note_off_c, 2, 50, 79
3, 187440, Note_off_c, 2, 46, 79
3, 187440, Note_off_c, 2, 43, 79
3, 187440, Note_on_c, 2, 67, 79
3, 187440, Note_on_c, 2, 62, 79
3, 187440, Note_on_c, 2, 55, 79
3, 187440, Note_on_c, 2, 50, 79
3, 187440, Note_on_c, 2, 46, 79
3, 187440, Note_on_c, 2, 43, 79
3, 187680, Note_off_c, 2, 67, 79
3, 187680, Note_off_c, 2, 62, 79
3, 187680, Note_off_c, 2, 55, 79
3, 187680, Note_off_c, 2, 50, 79
3, 187680, Note_off_c, 2, 46, 79
3, 187680, Note_off_c, 2, 43, 79
3, 187680, Note_on_c, 2, 67, 79
3, 187680, Note_on_c, 2, 62, 79
3, 187680, Note_on_c, 2, 55, 79
3, 187680, Note_on_c, 2, 50, 79
3, 187680, Note_on_c, 2, 46, 79
3, 187680, Note_on_c, 2, 43, 79
3, 187920, Note_off_c, 2, 67, 79
3, 187920, Note_off_c, 2, 62, 79
3, 187920, Note_off_c, 2, 55, 79
3, 187920, Note_off_c, 2, 50, 79
3, 187920, Note_off_c, 2, 46, 79
3, 187920, Note_off_c, 2, 43, 79
3, 187920, Note_on_c, 2, 67, 79
3, 187920, Note_on_c, 2, 62, 79
3, 187920, Note_on_c, 2, 55, 79
3, 187920, Note_on_c, 2, 50, 79
3, 187920, Note_on_c, 2, 46, 79
3, 187920, Note_on_c, 2, 43, 79
3, 188160, Note_off_c, 2, 67, 79
3, 188160, Note_off_c, 2, 62, 79
3, 188160, Note_off_c, 2, 55, 79
3, 188160, Note_off_c, 2, 50, 79
3, 188160, Note_off_c, 2, 46, 79
3, 188160, Note_off_c, 2, 43, 79
3, 188160, Note_on_c, 2, 65, 79
3, 188160, Note_on_c, 2, 62, 79
3, 188160, Note_on_c, 2, 58, 79
3, 188160, Note_on_c, 2, 50, 79
3, 188160, Note_on_c, 2, 46, 79
3, 188640, Note_off_c, 2, 65, 79
3, 188640, Note_off_c, 2, 62, 79
3, 188640, Note_off_c, 2, 58, 79
3, 188640, Note_off_c, 2, 50, 79
3, 188640, Note_off_c, 2, 46, 79
3, 188640, Note_on_c, 2, 65, 79
3, 188640, Note_on_c, 2, 62, 79
3, 188640, Note_on_c, 2, 58, 79
3, 188640, Note_on_c, 2, 50, 79
3, 188640, Note_on_c, 2, 46, 79
3, 188880, Note_off_c, 2, 65, 79
3, 188880, Note_off_c, 2, 62, 79
3, 188880, Note_off_c, 2, 58, 79
3, 188880, Note_off_c, 2, 50, 79
3, 188880, Note_off_c, 2, 46, 79
3, 188880, Note_on_c, 2, 65, 79
3, 188880, Note_on_c, 2, 62, 79
3, 188880, Note_on_c, 2, 58, 79
3, 188880, Note_on_c, 2, 50, 79
3, 188880, Note_on_c, 2, 46, 79
3, 189120, Note_off_c, 2, 65, 79
3, 189120, Note_off_c, 2, 62, 79
3, 189120, Note_off_c, 2, 58, 79
3, 189120, Note_off_c, 2, 50, 79
3, 189120, Note_off_c, 2, 46, 79
3, 189120, Note_on_c, 2, 65, 79
3, 189120, Note_on_c, 2, 62, 79
3, 189120, Note_on_c, 2, 58, 79
3, 189120, Note_on_c, 2, 50, 79
3, 189120, Note_on_c, 2, 46, 79
3, 189600, Note_off_c, 2, 65, 79
3, 189600, Note_off_c, 2, 62, 79
3, 189600, Note_off_c, 2, 58, 79
3, 189600, Note_off_c, 2, 50, 79
3, 189600, Note_off_c, 2, 46, 79
3, 189600, Note_on_c, 2, 65, 79
3, 189600, Note_on_c, 2, 62, 79
3, 189600, Note_on_c, 2, 58, 79
3, 189600, Note_on_c, 2, 50, 79
3, 189600, Note_on_c, 2, 46, 79
3, 189840, Note_off_c, 2, 65, 79
3, 189840, Note_off_c, 2, 62, 79
3, 189840, Note_off_c, 2, 58, 79
3, 189840, Note_off_c, 2, 50, 79
3, 189840, Note_off_c, 2, 46, 79
3, 189840, Note_on_c, 2, 65, 79
3, 189840, Note_on_c, 2, 62, 79
3, 189840, Note_on_c, 2, 58, 79
3, 189840, Note_on_c, 2, 50, 79
3, 189840, Note_on_c, 2, 46, 79
3, 190080, Note_off_c, 2, 65, 79
3, 190080, Note_off_c, 2, 62, 79
3, 190080, Note_off_c, 2, 58, 79
3, 190080, Note_off_c, 2, 50, 79
3, 190080, Note_off_c, 2, 46, 79
3, 190080, Note_on_c, 2, 65, 79
3, 190080, Note_on_c, 2, 62, 79
3, 190080, Note_on_c, 2, 58, 79
3, 190080, Note_on_c, 2, 50, 79
3, 190080, Note_on_c, 2, 46, 79
3, 190320, Note_off_c, 2, 65, 79
3, 190320, Note_off_c, 2, 62, 79
3, 190320, Note_off_c, 2, 58, 79
3, 190320, Note_off_c, 2, 50, 79
3, 190320, Note_off_c, 2, 46, 79
3, 190320, Note_on_c, 2, 65, 79
3, 190320, Note_on_c, 2, 62, 79
3, 190320, Note_on_c, 2, 58, 79
3, 190320, Note_on_c, 2, 50, 79
3, 190320, Note_on_c, 2, 46, 79
3, 190560, Note_off_c, 2, 65, 79
3, 190560, Note_off_c, 2, 62, 79
3, 190560, Note_off_c, 2, 58, 79
3, 190560, Note_off_c, 2, 50, 79
3, 190560, Note_off_c, 2, 46, 79
3, 190560, Note_on_c, 2, 65, 79
3, 190560, Note_on_c, 2, 62, 79
3, 190560, Note_on_c, 2, 58, 79
3, 190560, Note_on_c, 2, 50, 79
3, 190560, Note_on_c, 2, 46, 79
3, 190800, Note_off_c, 2, 65, 79
3, 190800, Note_off_c, 2, 62, 79
3, 190800, Note_off_c, 2, 58, 79
3, 190800, Note_off_c, 2, 50, 79
3, 190800, Note_off_c, 2, 46, 79
3, 190800, Note_on_c, 2, 65, 79
3, 190800, Note_on_c, 2, 62, 79
3, 190800, Note_on_c, 2, 58, 79
3, 190800, Note_on_c, 2, 50, 79
3, 190800, Note_on_c, 2, 46, 79
3, 191040, Note_off_c, 2, 65, 79
3, 191040, Note_off_c, 2, 62, 79
3, 191040, Note_off_c, 2, 58, 79
3, 191040, Note_off_c, 2, 50, 79
3, 191040, Note_off_c, 2, 46, 79
3, 191040, Note_on_c, 2, 65, 79
3, 191040, Note_on_c, 2, 62, 79
3, 191040, Note_on_c, 2, 58, 79
3, 191040, Note_on_c, 2, 50, 79
3, 191040, Note_on_c, 2, 46, 79
3, 191280, Note_off_c, 2, 65, 79
3, 191280, Note_off_c, 2, 62, 79
3, 191280, Note_off_c, 2, 58, 79
3, 191280, Note_off_c, 2, 50, 79
3, 191280, Note_off_c, 2, 46, 79
3, 191280, Note_on_c, 2, 65, 79
3, 191280, Note_on_c, 2, 62, 79
3, 191280, Note_on_c, 2, 58, 79
3, 191280, Note_on_c, 2, 50, 79
3, 191280, Note_on_c, 2, 46, 79
3, 191520, Note_off_c, 2, 65, 79
3, 191520, Note_off_c, 2, 62, 79
3, 191520, Note_off_c, 2, 58, 79
3, 191520, Note_off_c, 2, 50, 79
3, 191520, Note_off_c, 2, 46, 79
3, 192000, Note_on_c, 2, 67, 79
3, 192000, Note_on_c, 2, 62, 79
3, 192000, Note_on_c, 2, 55, 79
3, 192000, Note_on_c, 2, 50, 79
3, 192000, Note_on_c, 2, 46, 79
3, 192000, Note_on_c, 2, 43, 79
3, 192480, Note_off_c, 2, 67, 79
3, 192480, Note_off_c, 2, 62, 79
3, 192480, Note_off_c, 2, 55, 79
3, 192480, Note_off_c, 2, 50, 79
3, 192480, Note_off_c, 2, 46, 79
3, 192480, Note_off_c, 2, 43, 79
3, 192480, Note_on_c, 2, 67, 79
3, 192480, Note_on_c, 2, 62, 79
3, 192480, Note_on_c, 2, 55, 79
3, 192480, Note_on_c, 2, 50, 79
3, 192480, Note_on_c, 2, 46, 79
3, 192480, Note_on_c, 2, 43, 79
3, 192720, Note_off_c, 2, 67, 79
3, 192720, Note_off_c, 2, 62, 79
3, 192720, Note_off_c, 2, 55, 79
3, 192720, Note_off_c, 2, 50, 79
3, 192720, Note_off_c, 2, 46, 79
3, 192720, Note_off_c, 2, 43, 79
3, 192720, Note_on_c, 2, 67, 79
3, 192720, Note_on_c, 2, 62, 79
3, 192720, Note_on_c, 2, 55, 79
3, 192720, Note_on_c, 2, 50, 79
3, 192720, Note_on_c, 2, 46, 79
3, 192720, Note_on_c, 2, 43, 79
3, 192960, Note_off_c, 2, 67, 79
3, 192960, Note_off_c, 2, 62, 79
3, 192960, Note_off_c, 2, 55, 79
3, 192960, Note_off_c, 2, 50, 79
3, 192960, Note_off_c, 2, 46, 79
3, 192960, Note_off_c, 2, 43, 79
3, 192960, Note_on_c, 2, 67, 79
3, 192960, Note_on_c, 2, 62, 79
3, 192960, Note_on_c, 2, 55, 79
3, 192960, Note_on_c, 2, 50, 79
3, 192960, Note_on_c, 2, 46, 79
3, 192960, Note_on_c, 2, 43, 79
3, 193440, Note_off_c, 2, 67, 79
3, 193440, Note_off_c, 2, 62, 79
3, 193440, Note_off_c, 2, 55, 79
3, 193440, Note_off_c, 2, 50, 79
3, 193440, Note_off_c, 2, 46, 79
3, 193440, Note_off_c, 2, 43, 79
3, 193440, Note_on_c, 2, 67, 79
3, 193440, Note_on_c, 2, 62, 79
3, 193440, Note_on_c, 2, 55, 79
3, 193440, Note_on_c, 2, 50, 79
3, 193440, Note_on_c, 2, 46, 79
3, 193440, Note_on_c, 2, 43, 79
3, 193680, Note_off_c, 2, 67, 79
3, 193680, Note_off_c, 2, 62, 79
3, 193680, Note_off_c, 2, 55, 79
3, 193680, Note_off_c, 2, 50, 79
3, 193680, Note_off_c, 2, 46, 79
3, 193680, Note_off_c, 2, 43, 79
3, 193680, Note_on_c, 2, 67, 79
3, 193680, Note_on_c, 2, 62, 79
3, 193680, Note_on_c, 2, 55, 79
3, 193680, Note_on_c, 2, 50, 79
3, 193680, Note_on_c, 2, 46, 79
3, 193680, Note_on_c, 2, 43, 79
3, 193920, Note_off_c, 2, 67, 79
3, 193920, Note_off_c, 2, 62, 79
3, 193920, Note_off_c, 2, 55, 79
3, 193920, Note_off_c, 2, 50, 79
3, 193920, Note_off_c, 2, 46, 79
3, 193920, Note_off_c, 2, 43, 79
3, 193920, Note_on_c, 2, 67, 79
3, 193920, Note_on_c, 2, 62, 79
3, 193920, Note_on_c, 2, 55, 79
3, 193920, Note_on_c, 2, 50, 79
3, 193920, Note_on_c, 2, 46, 79
3, 193920, Note_on_c, 2, 43, 79
3, 194160, Note_off_c, 2, 67, 79
3, 194160, Note_off_c, 2, 62, 79
3, 194160, Note_off_c, 2, 55, 79
3, 194160, Note_off_c, 2, 50, 79
3, 194160, Note_off_c, 2, 46, 79
3, 194160, Note_off_c, 2, 43, 79
3, 194160, Note_on_c, 2, 67, 79
3, 194160, Note_on_c, 2, 62, 79
3, 194160, Note_on_c, 2, 55, 79
3, 194160, Note_on_c, 2, 50, 79
3, 194160, Note_on_c, 2, 46, 79
3, 194160, Note_on_c, 2, 43, 79
3, 194400, Note_off_c, 2, 67, 79
3, 194400, Note_off_c, 2, 62, 79
3, 194400, Note_off_c, 2, 55, 79
3, 194400, Note_off_c, 2, 50, 79
3, 194400, Note_off_c, 2, 46, 79
3, 194400, Note_off_c, 2, 43, 79
3, 194400, Note_on_c, 2, 67, 79
3, 194400, Note_on_c, 2, 62, 79
3, 194400, Note_on_c, 2, 55, 79
3, 194400, Note_on_c, 2, 50, 79
3, 194400, Note_on_c, 2, 46, 79
3, 194400, Note_on_c, 2, 43, 79
3, 194640, Note_off_c, 2, 67, 79
3, 194640, Note_off_c, 2, 62, 79
3, 194640, Note_off_c, 2, 55, 79
3, 194640, Note_off_c, 2, 50, 79
3, 194640, Note_off_c, 2, 46, 79
3, 194640, Note_off_c, 2, 43, 79
3, 194640, Note_on_c, 2, 67, 79
3, 194640, Note_on_c, 2, 62, 79
3, 194640, Note_on_c, 2, 55, 79
3, 194640, Note_on_c, 2, 50, 79
3, 194640, Note_on_c, 2, 46, 79
3, 194640, Note_on_c, 2, 43, 79
3, 194880, Note_off_c, 2, 67, 79
3, 194880, Note_off_c, 2, 62, 79
3, 194880, Note_off_c, 2, 55, 79
3, 194880, Note_off_c, 2, 50, 79
3, 194880, Note_off_c, 2, 46, 79
3, 194880, Note_off_c, 2, 43, 79
3, 194880, Note_on_c, 2, 67, 79
3, 194880, Note_on_c, 2, 62, 79
3, 194880, Note_on_c, 2, 55, 79
3, 194880, Note_on_c, 2, 50, 79
3, 194880, Note_on_c, 2, 46, 79
3, 194880, Note_on_c, 2, 43, 79
3, 195120, Note_off_c, 2, 67, 79
3, 195120, Note_off_c, 2, 62, 79
3, 195120, Note_off_c, 2, 55, 79
3, 195120, Note_off_c, 2, 50, 79
3, 195120, Note_off_c, 2, 46, 79
3, 195120, Note_off_c, 2, 43, 79
3, 195120, Note_on_c, 2, 67, 79
3, 195120, Note_on_c, 2, 62, 79
3, 195120, Note_on_c, 2, 55, 79
3, 195120, Note_on_c, 2, 50, 79
3, 195120, Note_on_c, 2, 46, 79
3, 195120, Note_on_c, 2, 43, 79
3, 195360, Note_off_c, 2, 67, 79
3, 195360, Note_off_c, 2, 62, 79
3, 195360, Note_off_c, 2, 55, 79
3, 195360, Note_off_c, 2, 50, 79
3, 195360, Note_off_c, 2, 46, 79
3, 195360, Note_off_c, 2, 43, 79
3, 195360, Note_on_c, 2, 67, 79
3, 195360, Note_on_c, 2, 62, 79
3, 195360, Note_on_c, 2, 55, 79
3, 195360, Note_on_c, 2, 50, 79
3, 195360, Note_on_c, 2, 46, 79
3, 195360, Note_on_c, 2, 43, 79
3, 195600, Note_off_c, 2, 67, 79
3, 195600, Note_off_c, 2, 62, 79
3, 195600, Note_off_c, 2, 55, 79
3, 195600, Note_off_c, 2, 50, 79
3, 195600, Note_off_c, 2, 46, 79
3, 195600, Note_off_c, 2, 43, 79
3, 195600, Note_on_c, 2, 67, 79
3, 195600, Note_on_c, 2, 62, 79
3, 195600, Note_on_c, 2, 55, 79
3, 195600, Note_on_c, 2, 50, 79
3, 195600, Note_on_c, 2, 46, 79
3, 195600, Note_on_c, 2, 43, 79
3, 195840, Note_off_c, 2, 67, 79
3, 195840, Note_off_c, 2, 62, 79
3, 195840, Note_off_c, 2, 55, 79
3, 195840, Note_off_c, 2, 50, 79
3, 195840, Note_off_c, 2, 46, 79
3, 195840, Note_off_c, 2, 43, 79
3, 195840, Note_on_c, 2, 67, 79
3, 195840, Note_on_c, 2, 62, 79
3, 195840, Note_on_c, 2, 55, 79
3, 195840, Note_on_c, 2, 50, 79
3, 195840, Note_on_c, 2, 46, 79
3, 195840, Note_on_c, 2, 43, 79
3, 196320, Note_off_c, 2, 67, 79
3, 196320, Note_off_c, 2, 62, 79
3, 196320, Note_off_c, 2, 55, 79
3, 196320, Note_off_c, 2, 50, 79
3, 196320, Note_off_c, 2, 46, 79
3, 196320, Note_off_c, 2, 43, 79
3, 196320, Note_on_c, 2, 67, 79
3, 196320, Note_on_c, 2, 62, 79
3, 196320, Note_on_c, 2, 55, 79
3, 196320, Note_on_c, 2, 50, 79
3, 196320, Note_on_c, 2, 46, 79
3, 196320, Note_on_c, 2, 43, 79
3, 196560, Note_off_c, 2, 67, 79
3, 196560, Note_off_c, 2, 62, 79
3, 196560, Note_off_c, 2, 55, 79
3, 196560, Note_off_c, 2, 50, 79
3, 196560, Note_off_c, 2, 46, 79
3, 196560, Note_off_c, 2, 43, 79
3, 196560, Note_on_c, 2, 67, 79
3, 196560, Note_on_c, 2, 62, 79
3, 196560, Note_on_c, 2, 55, 79
3, 196560, Note_on_c, 2, 50, 79
3, 196560, Note_on_c, 2, 46, 79
3, 196560, Note_on_c, 2, 43, 79
3, 196800, Note_off_c, 2, 67, 79
3, 196800, Note_off_c, 2, 62, 79
3, 196800, Note_off_c, 2, 55, 79
3, 196800, Note_off_c, 2, 50, 79
3, 196800, Note_off_c, 2, 46, 79
3, 196800, Note_off_c, 2, 43, 79
3, 196800, Note_on_c, 2, 67, 79
3, 196800, Note_on_c, 2, 62, 79
3, 196800, Note_on_c, 2, 55, 79
3, 196800, Note_on_c, 2, 50, 79
3, 196800, Note_on_c, 2, 46, 79
3, 196800, Note_on_c, 2, 43, 79
3, 197280, Note_off_c, 2, 67, 79
3, 197280, Note_off_c, 2, 62, 79
3, 197280, Note_off_c, 2, 55, 79
3, 197280, Note_off_c, 2, 50, 79
3, 197280, Note_off_c, 2, 46, 79
3, 197280, Note_off_c, 2, 43, 79
3, 197280, Note_on_c, 2, 67, 79
3, 197280, Note_on_c, 2, 62, 79
3, 197280, Note_on_c, 2, 55, 79
3, 197280, Note_on_c, 2, 50, 79
3, 197280, Note_on_c, 2, 46, 79
3, 197280, Note_on_c, 2, 43, 79
3, 197520, Note_off_c, 2, 67, 79
3, 197520, Note_off_c, 2, 62, 79
3, 197520, Note_off_c, 2, 55, 79
3, 197520, Note_off_c, 2, 50, 79
3, 197520, Note_off_c, 2, 46, 79
3, 197520, Note_off_c, 2, 43, 79
3, 197520, Note_on_c, 2, 67, 79
3, 197520, Note_on_c, 2, 62, 79
3, 197520, Note_on_c, 2, 55, 79
3, 197520, Note_on_c, 2, 50, 79
3, 197520, Note_on_c, 2, 46, 79
3, 197520, Note_on_c, 2, 43, 79
3, 197760, Note_off_c, 2, 67, 79
3, 197760, Note_off_c, 2, 62, 79
3, 197760, Note_off_c, 2, 55, 79
3, 197760, Note_off_c, 2, 50, 79
3, 197760, Note_off_c, 2, 46, 79
3, 197760, Note_off_c, 2, 43, 79
3, 197760, Note_on_c, 2, 67, 79
3, 197760, Note_on_c, 2, 62, 79
3, 197760, Note_on_c, 2, 55, 79
3, 197760, Note_on_c, 2, 50, 79
3, 197760, Note_on_c, 2, 46, 79
3, 197760, Note_on_c, 2, 43, 79
3, 198000, Note_off_c, 2, 67, 79
3, 198000, Note_off_c, 2, 62, 79
3, 198000, Note_off_c, 2, 55, 79
3, 198000, Note_off_c, 2, 50, 79
3, 198000, Note_off_c, 2, 46, 79
3, 198000, Note_off_c, 2, 43, 79
3, 198000, Note_on_c, 2, 67, 79
3, 198000, Note_on_c, 2, 62, 79
3, 198000, Note_on_c, 2, 55, 79
3, 198000, Note_on_c, 2, 50, 79
3, 198000, Note_on_c, 2, 46, 79
3, 198000, Note_on_c, 2, 43, 79
3, 198240, Note_off_c, 2, 67, 79
3, 198240, Note_off_c, 2, 62, 79
3, 198240, Note_off_c, 2, 55, 79
3, 198240, Note_off_c, 2, 50, 79
3, 198240, Note_off_c, 2, 46, 79
3, 198240, Note_off_c, 2, 43, 79
3, 198240, Note_on_c, 2, 67, 79
3, 198240, Note_on_c, 2, 62, 79
3, 198240, Note_on_c, 2, 55, 79
3, 198240, Note_on_c, 2, 50, 79
3, 198240, Note_on_c, 2, 46, 79
3, 198240, Note_on_c, 2, 43, 79
3, 198480, Note_off_c, 2, 67, 79
3, 198480, Note_off_c, 2, 62, 79
3, 198480, Note_off_c, 2, 55, 79
3, 198480, Note_off_c, 2, 50, 79
3, 198480, Note_off_c, 2, 46, 79
3, 198480, Note_off_c, 2, 43, 79
3, 198480, Note_on_c, 2, 67, 79
3, 198480, Note_on_c, 2, 62, 79
3, 198480, Note_on_c, 2, 55, 79
3, 198480, Note_on_c, 2, 50, 79
3, 198480, Note_on_c, 2, 46, 79
3, 198480, Note_on_c, 2, 43, 79
3, 198720, Note_off_c, 2, 67, 79
3, 198720, Note_off_c, 2, 62, 79
3, 198720, Note_off_c, 2, 55, 79
3, 198720, Note_off_c, 2, 50, 79
3, 198720, Note_off_c, 2, 46, 79
3, 198720, Note_off_c, 2, 43, 79
3, 198720, Note_on_c, 2, 67, 79
3, 198720, Note_on_c, 2, 62, 79
3, 198720, Note_on_c, 2, 55, 79
3, 198720, Note_on_c, 2, 50, 79
3, 198720, Note_on_c, 2, 46, 79
3, 198720, Note_on_c, 2, 43, 79
3, 198960, Note_off_c, 2, 67, 79
3, 198960, Note_off_c, 2, 62, 79
3, 198960, Note_off_c, 2, 55, 79
3, 198960, Note_off_c, 2, 50, 79
3, 198960, Note_off_c, 2, 46, 79
3, 198960, Note_off_c, 2, 43, 79
3, 198960, Note_on_c, 2, 67, 79
3, 198960, Note_on_c, 2, 62, 79
3, 198960, Note_on_c, 2, 55, 79
3, 198960, Note_on_c, 2, 50, 79
3, 198960, Note_on_c, 2, 46, 79
3, 198960, Note_on_c, 2, 43, 79
3, 199200, Note_off_c, 2, 67, 79
3, 199200, Note_off_c, 2, 62, 79
3, 199200, Note_off_c, 2, 55, 79
3, 199200, Note_off_c, 2, 50, 79
3, 199200, Note_off_c, 2, 46, 79
3, 199200, Note_off_c, 2, 43, 79
3, 199200, Note_on_c, 2, 67, 79
3, 199200, Note_on_c, 2, 62, 79
3, 199200, Note_on_c, 2, 55, 79
3, 199200, Note_on_c, 2, 50, 79
3, 199200, Note_on_c, 2, 46, 79
3, 199200, Note_on_c, 2, 43, 79
3, 199440, Note_off_c, 2, 67, 79
3, 199440, Note_off_c, 2, 62, 79
3, 199440, Note_off_c, 2, 55, 79
3, 199440, Note_off_c, 2, 50, 79
3, 199440, Note_off_c, 2, 46, 79
3, 199440, Note_off_c, 2, 43, 79
3, 199440, Note_on_c, 2, 67, 79
3, 199440, Note_on_c, 2, 62, 79
3, 199440, Note_on_c, 2, 55, 79
3, 199440, Note_on_c, 2, 50, 79
3, 199440, Note_on_c, 2, 46, 79
3, 199440, Note_on_c, 2, 43, 79
3, 199680, Note_off_c, 2, 67, 79
3, 199680, Note_off_c, 2, 62, 79
3, 199680, Note_off_c, 2, 55, 79
3, 199680, Note_off_c, 2, 50, 79
3, 199680, Note_off_c, 2, 46, 79
3, 199680, Note_off_c, 2, 43, 79
3, 199680, Note_on_c, 2, 67, 79
3, 199680, Note_on_c, 2, 62, 79
3, 199680, Note_on_c, 2, 55, 79
3, 199680, Note_on_c, 2, 50, 79
3, 199680, Note_on_c, 2, 46, 79
3, 199680, Note_on_c, 2, 43, 79
3, 200160, Note_off_c, 2, 67, 79
3, 200160, Note_off_c, 2, 62, 79
3, 200160, Note_off_c, 2, 55, 79
3, 200160, Note_off_c, 2, 50, 79
3, 200160, Note_off_c, 2, 46, 79
3, 200160, Note_off_c, 2, 43, 79
3, 200160, Note_on_c, 2, 67, 79
3, 200160, Note_on_c, 2, 62, 79
3, 200160, Note_on_c, 2, 55, 79
3, 200160, Note_on_c, 2, 50, 79
3, 200160, Note_on_c, 2, 46, 79
3, 200160, Note_on_c, 2, 43, 79
3, 200400, Note_off_c, 2, 67, 79
3, 200400, Note_off_c, 2, 62, 79
3, 200400, Note_off_c, 2, 55, 79
3, 200400, Note_off_c, 2, 50, 79
3, 200400, Note_off_c, 2, 46, 79
3, 200400, Note_off_c, 2, 43, 79
3, 200400, Note_on_c, 2, 67, 79
3, 200400, Note_on_c, 2, 62, 79
3, 200400, Note_on_c, 2, 55, 79
3, 200400, Note_on_c, 2, 50, 79
3, 200400, Note_on_c, 2, 46, 79
3, 200400, Note_on_c, 2, 43, 79
3, 200640, Note_off_c, 2, 67, 79
3, 200640, Note_off_c, 2, 62, 79
3, 200640, Note_off_c, 2, 55, 79
3, 200640, Note_off_c, 2, 50, 79
3, 200640, Note_off_c, 2, 46, 79
3, 200640, Note_off_c, 2, 43, 79
3, 200640, Note_on_c, 2, 67, 79
3, 200640, Note_on_c, 2, 62, 79
3, 200640, Note_on_c, 2, 55, 79
3, 200640, Note_on_c, 2, 50, 79
3, 200640, Note_on_c, 2, 46, 79
3, 200640, Note_on_c, 2, 43, 79
3, 201120, Note_off_c, 2, 67, 79
3, 201120, Note_off_c, 2, 62, 79
3, 201120, Note_off_c, 2, 55, 79
3, 201120, Note_off_c, 2, 50, 79
3, 201120, Note_off_c, 2, 46, 79
3, 201120, Note_off_c, 2, 43, 79
3, 201120, Note_on_c, 2, 67, 79
3, 201120, Note_on_c, 2, 62, 79
3, 201120, Note_on_c, 2, 55, 79
3, 201120, Note_on_c, 2, 50, 79
3, 201120, Note_on_c, 2, 46, 79
3, 201120, Note_on_c, 2, 43, 79
3, 201360, Note_off_c, 2, 67, 79
3, 201360, Note_off_c, 2, 62, 79
3, 201360, Note_off_c, 2, 55, 79
3, 201360, Note_off_c, 2, 50, 79
3, 201360, Note_off_c, 2, 46, 79
3, 201360, Note_off_c, 2, 43, 79
3, 201360, Note_on_c, 2, 67, 79
3, 201360, Note_on_c, 2, 62, 79
3, 201360, Note_on_c, 2, 55, 79
3, 201360, Note_on_c, 2, 50, 79
3, 201360, Note_on_c, 2, 46, 79
3, 201360, Note_on_c, 2, 43, 79
3, 201600, Note_off_c, 2, 67, 79
3, 201600, Note_off_c, 2, 62, 79
3, 201600, Note_off_c, 2, 55, 79
3, 201600, Note_off_c, 2, 50, 79
3, 201600, Note_off_c, 2, 46, 79
3, 201600, Note_off_c, 2, 43, 79
3, 201600, Note_on_c, 2, 67, 79
3, 201600, Note_on_c, 2, 62, 79
3, 201600, Note_on_c, 2, 55, 79
3, 201600, Note_on_c, 2, 50, 79
3, 201600, Note_on_c, 2, 46, 79
3, 201600, Note_on_c, 2, 43, 79
3, 201840, Note_off_c, 2, 67, 79
3, 201840, Note_off_c, 2, 62, 79
3, 201840, Note_off_c, 2, 55, 79
3, 201840, Note_off_c, 2, 50, 79
3, 201840, Note_off_c, 2, 46, 79
3, 201840, Note_off_c, 2, 43, 79
3, 201840, Note_on_c, 2, 67, 79
3, 201840, Note_on_c, 2, 62, 79
3, 201840, Note_on_c, 2, 55, 79
3, 201840, Note_on_c, 2, 50, 79
3, 201840, Note_on_c, 2, 46, 79
3, 201840, Note_on_c, 2, 43, 79
3, 202080, Note_off_c, 2, 67, 79
3, 202080, Note_off_c, 2, 62, 79
3, 202080, Note_off_c, 2, 55, 79
3, 202080, Note_off_c, 2, 50, 79
3, 202080, Note_off_c, 2, 46, 79
3, 202080, Note_off_c, 2, 43, 79
3, 202080, Note_on_c, 2, 67, 79
3, 202080, Note_on_c, 2, 62, 79
3, 202080, Note_on_c, 2, 55, 79
3, 202080, Note_on_c, 2, 50, 79
3, 202080, Note_on_c, 2, 46, 79
3, 202080, Note_on_c, 2, 43, 79
3, 202320, Note_off_c, 2, 67, 79
3, 202320, Note_off_c, 2, 62, 79
3, 202320, Note_off_c, 2, 55, 79
3, 202320, Note_off_c, 2, 50, 79
3, 202320, Note_off_c, 2, 46, 79
3, 202320, Note_off_c, 2, 43, 79
3, 202320, Note_on_c, 2, 67, 79
3, 202320, Note_on_c, 2, 62, 79
3, 202320, Note_on_c, 2, 55, 79
3, 202320, Note_on_c, 2, 50, 79
3, 202320, Note_on_c, 2, 46, 79
3, 202320, Note_on_c, 2, 43, 79
3, 202560, Note_off_c, 2, 67, 79
3, 202560, Note_off_c, 2, 62, 79
3, 202560, Note_off_c, 2, 55, 79
3, 202560, Note_off_c, 2, 50, 79
3, 202560, Note_off_c, 2, 46, 79
3, 202560, Note_off_c, 2, 43, 79
3, 202560, Note_on_c, 2, 67, 79
3, 202560, Note_on_c, 2, 62, 79
3, 202560, Note_on_c, 2, 55, 79
3, 202560, Note_on_c, 2, 50, 79
3, 202560, Note_on_c, 2, 46, 79
3, 202560, Note_on_c, 2, 43, 79
3, 202800, Note_off_c, 2, 67, 79
3, 202800, Note_off_c, 2, 62, 79
3, 202800, Note_off_c, 2, 55, 79
3, 202800, Note_off_c, 2, 50, 79
3, 202800, Note_off_c, 2, 46, 79
3, 202800, Note_off_c, 2, 43, 79
3, 202800, Note_on_c, 2, 67, 79
3, 202800, Note_on_c, 2, 62, 79
3, 202800, Note_on_c, 2, 55, 79
3, 202800, Note_on_c, 2, 50, 79
3, 202800, Note_on_c, 2, 46, 79
3, 202800, Note_on_c, 2, 43, 79
3, 203040, Note_off_c, 2, 67, 79
3, 203040, Note_off_c, 2, 62, 79
3, 203040, Note_off_c, 2, 55, 79
3, 203040, Note_off_c, 2, 50, 79
3, 203040, Note_off_c, 2, 46, 79
3, 203040, Note_off_c, 2, 43, 79
3, 203040, Note_on_c, 2, 67, 79
3, 203040, Note_on_c, 2, 62, 79
3, 203040, Note_on_c, 2, 55, 79
3, 203040, Note_on_c, 2, 50, 79
3, 203040, Note_on_c, 2, 46, 79
3, 203040, Note_on_c, 2, 43, 79
3, 203280, Note_off_c, 2, 67, 79
3, 203280, Note_off_c, 2, 62, 79
3, 203280, Note_off_c, 2, 55, 79
3, 203280, Note_off_c, 2, 50, 79
3, 203280, Note_off_c, 2, 46, 79
3, 203280, Note_off_c, 2, 43, 79
3, 203280, Note_on_c, 2, 67, 79
3, 203280, Note_on_c, 2, 62, 79
3, 203280, Note_on_c, 2, 55, 79
3, 203280, Note_on_c, 2, 50, 79
3, 203280, Note_on_c, 2, 46, 79
3, 203280, Note_on_c, 2, 43, 79
3, 203520, Note_off_c, 2, 67, 79
3, 203520, Note_off_c, 2, 62, 79
3, 203520, Note_off_c, 2, 55, 79
3, 203520, Note_off_c, 2, 50, 79
3, 203520, Note_off_c, 2, 46, 79
3, 203520, Note_off_c, 2, 43, 79
3, 203520, Note_on_c, 2, 65, 79
3, 203520, Note_on_c, 2, 62, 79
3, 203520, Note_on_c, 2, 58, 79
3, 203520, Note_on_c, 2, 50, 79
3, 203520, Note_on_c, 2, 46, 79
3, 204000, Note_off_c, 2, 65, 79
3, 204000, Note_off_c, 2, 62, 79
3, 204000, Note_off_c, 2, 58, 79
3, 204000, Note_off_c, 2, 50, 79
3, 204000, Note_off_c, 2, 46, 79
3, 204000, Note_on_c, 2, 65, 79
3, 204000, Note_on_c, 2, 62, 79
3, 204000, Note_on_c, 2, 58, 79
3, 204000, Note_on_c, 2, 50, 79
3, 204000, Note_on_c, 2, 46, 79
3, 204240, Note_off_c, 2, 65, 79
3, 204240, Note_off_c, 2, 62, 79
3, 204240, Note_off_c, 2, 58, 79
3, 204240, Note_off_c, 2, 50, 79
3, 204240, Note_off_c, 2, 46, 79
3, 204240, Note_on_c, 2, 65, 79
3, 204240, Note_on_c, 2, 62, 79
3, 204240, Note_on_c, 2, 58, 79
3, 204240, Note_on_c, 2, 50, 79
3, 204240, Note_on_c, 2, 46, 79
3, 204480, Note_off_c, 2, 65, 79
3, 204480, Note_off_c, 2, 62, 79
3, 204480, Note_off_c, 2, 58, 79
3, 204480, Note_off_c, 2, 50, 79
3, 204480, Note_off_c, 2, 46, 79
3, 204480, Note_on_c, 2, 65, 79
3, 204480, Note_on_c, 2, 62, 79
3, 204480, Note_on_c, 2, 58, 79
3, 204480, Note_on_c, 2, 50, 79
3, 204480, Note_on_c, 2, 46, 79
3, 204960, Note_off_c, 2, 65, 79
3, 204960, Note_off_c, 2, 62, 79
3, 204960, Note_off_c, 2, 58, 79
3, 204960, Note_off_c, 2, 50, 79
3, 204960, Note_off_c, 2, 46, 79
3, 204960, Note_on_c, 2, 65, 79
3, 204960, Note_on_c, 2, 62, 79
3, 204960, Note_on_c, 2, 58, 79
3, 204960, Note_on_c, 2, 50, 79
3, 204960, Note_on_c, 2, 46, 79
3, 205200, Note_off_c, 2, 65, 79
3, 205200, Note_off_c, 2, 62, 79
3, 205200, Note_off_c, 2, 58, 79
3, 205200, Note_off_c, 2, 50, 79
3, 205200, Note_off_c, 2, 46, 79
3, 205200, Note_on_c, 2, 65, 79
3, 205200, Note_on_c, 2, 62, 79
3, 205200, Note_on_c, 2, 58, 79
3, 205200, Note_on_c, 2, 50, 79
3, 205200, Note_on_c, 2, 46, 79
3, 205440, Note_off_c, 2, 65, 79
3, 205440, Note_off_c, 2, 62, 79
3, 205440, Note_off_c, 2, 58, 79
3, 205440, Note_off_c, 2, 50, 79
3, 205440, Note_off_c, 2, 46, 79
3, 205440, Note_on_c, 2, 65, 79
3, 205440, Note_on_c, 2, 62, 79
3, 205440, Note_on_c, 2, 58, 79
3, 205440, Note_on_c, 2, 50, 79
3, 205440, Note_on_c, 2, 46, 79
3, 205680, Note_off_c, 2, 65, 79
3, 205680, Note_off_c, 2, 62, 79
3, 205680, Note_off_c, 2, 58, 79
3, 205680, Note_off_c, 2, 50, 79
3, 205680, Note_off_c, 2, 46, 79
3, 205680, Note_on_c, 2, 65, 79
3, 205680, Note_on_c, 2, 62, 79
3, 205680, Note_on_c, 2, 58, 79
3, 205680, Note_on_c, 2, 50, 79
3, 205680, Note_on_c, 2, 46, 79
3, 205920, Note_off_c, 2, 65, 79
3, 205920, Note_off_c, 2, 62, 79
3, 205920, Note_off_c, 2, 58, 79
3, 205920, Note_off_c, 2, 50, 79
3, 205920, Note_off_c, 2, 46, 79
3, 205920, Note_on_c, 2, 65, 79
3, 205920, Note_on_c, 2, 62, 79
3, 205920, Note_on_c, 2, 58, 79
3, 205920, Note_on_c, 2, 50, 79
3, 205920, Note_on_c, 2, 46, 79
3, 206160, Note_off_c, 2, 65, 79
3, 206160, Note_off_c, 2, 62, 79
3, 206160, Note_off_c, 2, 58, 79
3, 206160, Note_off_c, 2, 50, 79
3, 206160, Note_off_c, 2, 46, 79
3, 206160, Note_on_c, 2, 65, 79
3, 206160, Note_on_c, 2, 62, 79
3, 206160, Note_on_c, 2, 58, 79
3, 206160, Note_on_c, 2, 50, 79
3, 206160, Note_on_c, 2, 46, 79
3, 206400, Note_off_c, 2, 65, 79
3, 206400, Note_off_c, 2, 62, 79
3, 206400, Note_off_c, 2, 58, 79
3, 206400, Note_off_c, 2, 50, 79
3, 206400, Note_off_c, 2, 46, 79
3, 206400, Note_on_c, 2, 65, 79
3, 206400, Note_on_c, 2, 62, 79
3, 206400, Note_on_c, 2, 58, 79
3, 206400, Note_on_c, 2, 50, 79
3, 206400, Note_on_c, 2, 46, 79
3, 206640, Note_off_c, 2, 65, 79
3, 206640, Note_off_c, 2, 62, 79
3, 206640, Note_off_c, 2, 58, 79
3, 206640, Note_off_c, 2, 50, 79
3, 206640, Note_off_c, 2, 46, 79
3, 206640, Note_on_c, 2, 65, 79
3, 206640, Note_on_c, 2, 62, 79
3, 206640, Note_on_c, 2, 58, 79
3, 206640, Note_on_c, 2, 50, 79
3, 206640, Note_on_c, 2, 46, 79
3, 206880, Note_off_c, 2, 65, 79
3, 206880, Note_off_c, 2, 62, 79
3, 206880, Note_off_c, 2, 58, 79
3, 206880, Note_off_c, 2, 50, 79
3, 206880, Note_off_c, 2, 46, 79
3, 207360, Note_on_c, 2, 67, 79
3, 207360, Note_on_c, 2, 62, 79
3, 207360, Note_on_c, 2, 55, 79
3, 207360, Note_on_c, 2, 50, 79
3, 207360, Note_on_c, 2, 46, 79
3, 207360, Note_on_c, 2, 43, 79
3, 207840, Note_off_c, 2, 67, 79
3, 207840, Note_off_c, 2, 62, 79
3, 207840, Note_off_c, 2, 55, 79
3, 207840, Note_off_c, 2, 50, 79
3, 207840, Note_off_c, 2, 46, 79
3, 207840, Note_off_c, 2, 43, 79
3, 207840, Note_on_c, 2, 67, 79
3, 207840, Note_on_c, 2, 62, 79
3, 207840, Note_on_c, 2, 55, 79
3, 207840, Note_on_c, 2, 50, 79
3, 207840, Note_on_c, 2, 46, 79
3, 207840, Note_on_c, 2, 43, 79
3, 208080, Note_off_c, 2, 67, 79
3, 208080, Note_off_c, 2, 62, 79
3, 208080, Note_off_c, 2, 55, 79
3, 208080, Note_off_c, 2, 50, 79
3, 208080, Note_off_c, 2, 46, 79
3, 208080, Note_off_c, 2, 43, 79
3, 208080, Note_on_c, 2, 67, 79
3, 208080, Note_on_c, 2, 62, 79
3, 208080, Note_on_c, 2, 55, 79
3, 208080, Note_on_c, 2, 50, 79
3, 208080, Note_on_c, 2, 46, 79
3, 208080, Note_on_c, 2, 43, 79
3, 208320, Note_off_c, 2, 67, 79
3, 208320, Note_off_c, 2, 62, 79
3, 208320, Note_off_c, 2, 55, 79
3, 208320, Note_off_c, 2, 50, 79
3, 208320, Note_off_c, 2, 46, 79
3, 208320, Note_off_c, 2, 43, 79
3, 208320, Note_on_c, 2, 67, 79
3, 208320, Note_on_c, 2, 62, 79
3, 208320, Note_on_c, 2, 55, 79
3, 208320, Note_on_c, 2, 50, 79
3, 208320, Note_on_c, 2, 46, 79
3, 208320, Note_on_c, 2, 43, 79
3, 208800, Note_off_c, 2, 67, 79
3, 208800, Note_off_c, 2, 62, 79
3, 208800, Note_off_c, 2, 55, 79
3, 208800, Note_off_c, 2, 50, 79
3, 208800, Note_off_c, 2, 46, 79
3, 208800, Note_off_c, 2, 43, 79
3, 208800, Note_on_c, 2, 67, 79
3, 208800, Note_on_c, 2, 62, 79
3, 208800, Note_on_c, 2, 55, 79
3, 208800, Note_on_c, 2, 50, 79
3, 208800, Note_on_c, 2, 46, 79
3, 208800, Note_on_c, 2, 43, 79
3, 209040, Note_off_c, 2, 67, 79
3, 209040, Note_off_c, 2, 62, 79
3, 209040, Note_off_c, 2, 55, 79
3, 209040, Note_off_c, 2, 50, 79
3, 209040, Note_off_c, 2, 46, 79
3, 209040, Note_off_c, 2, 43, 79
3, 209040, Note_on_c, 2, 67, 79
3, 209040, Note_on_c, 2, 62, 79
3, 209040, Note_on_c, 2, 55, 79
3, 209040, Note_on_c, 2, 50, 79
3, 209040, Note_on_c, 2, 46, 79
3, 209040, Note_on_c, 2, 43, 79
3, 209280, Note_off_c, 2, 67, 79
3, 209280, Note_off_c, 2, 62, 79
3, 209280, Note_off_c, 2, 55, 79
3, 209280, Note_off_c, 2, 50, 79
3, 209280, Note_off_c, 2, 46, 79
3, 209280, Note_off_c, 2, 43, 79
3, 209280, Note_on_c, 2, 67, 79
3, 209280, Note_on_c, 2, 62, 79
3, 209280, Note_on_c, 2, 55, 79
3, 209280, Note_on_c, 2, 50, 79
3, 209280, Note_on_c, 2, 46, 79
3, 209280, Note_on_c, 2, 43, 79
3, 209520, Note_off_c, 2, 67, 79
3, 209520, Note_off_c, 2, 62, 79
3, 209520, Note_off_c, 2, 55, 79
3, 209520, Note_off_c, 2, 50, 79
3, 209520, Note_off_c, 2, 46, 79
3, 209520, Note_off_c, 2, 43, 79
3, 209520, Note_on_c, 2, 67, 79
3, 209520, Note_on_c, 2, 62, 79
3, 209520, Note_on_c, 2, 55, 79
3, 209520, Note_on_c, 2, 50, 79
3, 209520, Note_on_c, 2, 46, 79
3, 209520, Note_on_c, 2, 43, 79
3, 209760, Note_off_c, 2, 67, 79
3, 209760, Note_off_c, 2, 62, 79
3, 209760, Note_off_c, 2, 55, 79
3, 209760, Note_off_c, 2, 50, 79
3, 209760, Note_off_c, 2, 46, 79
3, 209760, Note_off_c, 2, 43, 79
3, 209760, Note_on_c, 2, 67, 79
3, 209760, Note_on_c, 2, 62, 79
3, 209760, Note_on_c, 2, 55, 79
3, 209760, Note_on_c, 2, 50, 79
3, 209760, Note_on_c, 2, 46, 79
3, 209760, Note_on_c, 2, 43, 79
3, 210000, Note_off_c, 2, 67, 79
3, 210000, Note_off_c, 2, 62, 79
3, 210000, Note_off_c, 2, 55, 79
3, 210000, Note_off_c, 2, 50, 79
3, 210000, Note_off_c, 2, 46, 79
3, 210000, Note_off_c, 2, 43, 79
3, 210000, Note_on_c, 2, 67, 79
3, 210000, Note_on_c, 2, 62, 79
3, 210000, Note_on_c, 2, 55, 79
3, 210000, Note_on_c, 2, 50, 79
3, 210000, Note_on_c, 2, 46, 79
3, 210000, Note_on_c, 2, 43, 79
3, 210240, Note_off_c, 2, 67, 79
3, 210240, Note_off_c, 2, 62, 79
3, 210240, Note_off_c, 2, 55, 79
3, 210240, Note_off_c, 2, 50, 79
3, 210240, Note_off_c, 2, 46, 79
3, 210240, Note_off_c, 2, 43, 79
3, 210240, Note_on_c, 2, 67, 79
3, 210240, Note_on_c, 2, 62, 79
3, 210240, Note_on_c, 2, 55, 79
3, 210240, Note_on_c, 2, 50, 79
3, 210240, Note_on_c, 2, 46, 79
3, 210240, Note_on_c, 2, 43, 79
3, 210480, Note_off_c, 2, 67, 79
3, 210480, Note_off_c, 2, 62, 79
3, 210480, Note_off_c, 2, 55, 79
3, 210480, Note_off_c, 2, 50, 79
3, 210480, Note_off_c, 2, 46, 79
3, 210480, Note_off_c, 2, 43, 79
3, 210480, Note_on_c, 2, 67, 79
3, 210480, Note_on_c, 2, 62, 79
3, 210480, Note_on_c, 2, 55, 79
3, 210480, Note_on_c, 2, 50, 79
3, 210480, Note_on_c, 2, 46, 79
3, 210480, Note_on_c, 2, 43, 79
3, 210720, Note_off_c, 2, 67, 79
3, 210720, Note_off_c, 2, 62, 79
3, 210720, Note_off_c, 2, 55, 79
3, 210720, Note_off_c, 2, 50, 79
3, 210720, Note_off_c, 2, 46, 79
3, 210720, Note_off_c, 2, 43, 79
3, 210720, Note_on_c, 2, 67, 79
3, 210720, Note_on_c, 2, 62, 79
3, 210720, Note_on_c, 2, 55, 79
3, 210720, Note_on_c, 2, 50, 79
3, 210720, Note_on_c, 2, 46, 79
3, 210720, Note_on_c, 2, 43, 79
3, 210960, Note_off_c, 2, 67, 79
3, 210960, Note_off_c, 2, 62, 79
3, 210960, Note_off_c, 2, 55, 79
3, 210960, Note_off_c, 2, 50, 79
3, 210960, Note_off_c, 2, 46, 79
3, 210960, Note_off_c, 2, 43, 79
3, 210960, Note_on_c, 2, 67, 79
3, 210960, Note_on_c, 2, 62, 79
3, 210960, Note_on_c, 2, 55, 79
3, 210960, Note_on_c, 2, 50, 79
3, 210960, Note_on_c, 2, 46, 79
3, 210960, Note_on_c, 2, 43, 79
3, 211200, Note_off_c, 2, 67, 79
3, 211200, Note_off_c, 2, 62, 79
3, 211200, Note_off_c, 2, 55, 79
3, 211200, Note_off_c, 2, 50, 79
3, 211200, Note_off_c, 2, 46, 79
3, 211200, Note_off_c, 2, 43, 79
3, 211200, Note_on_c, 2, 67, 79
3, 211200, Note_on_c, 2, 62, 79
3, 211200, Note_on_c, 2, 55, 79
3, 211200, Note_on_c, 2, 50, 79
3, 211200, Note_on_c, 2, 46, 79
3, 211200, Note_on_c, 2, 43, 79
3, 211680, Note_off_c, 2, 67, 79
3, 211680, Note_off_c, 2, 62, 79
3, 211680, Note_off_c, 2, 55, 79
3, 211680, Note_off_c, 2, 50, 79
3, 211680, Note_off_c, 2, 46, 79
3, 211680, Note_off_c, 2, 43, 79
3, 211680, Note_on_c, 2, 67, 79
3, 211680, Note_on_c, 2, 62, 79
3, 211680, Note_on_c, 2, 55, 79
3, 211680, Note_on_c, 2, 50, 79
3, 211680, Note_on_c, 2, 46, 79
3, 211680, Note_on_c, 2, 43, 79
3, 211920, Note_off_c, 2, 67, 79
3, 211920, Note_off_c, 2, 62, 79
3, 211920, Note_off_c, 2, 55, 79
3, 211920, Note_off_c, 2, 50, 79
3, 211920, Note_off_c, 2, 46, 79
3, 211920, Note_off_c, 2, 43, 79
3, 211920, Note_on_c, 2, 67, 79
3, 211920, Note_on_c, 2, 62, 79
3, 211920, Note_on_c, 2, 55, 79
3, 211920, Note_on_c, 2, 50, 79
3, 211920, Note_on_c, 2, 46, 79
3, 211920, Note_on_c, 2, 43, 79
3, 212160, Note_off_c, 2, 67, 79
3, 212160, Note_off_c, 2, 62, 79
3, 212160, Note_off_c, 2, 55, 79
3, 212160, Note_off_c, 2, 50, 79
3, 212160, Note_off_c, 2, 46, 79
3, 212160, Note_off_c, 2, 43, 79
3, 212160, Note_on_c, 2, 67, 79
3, 212160, Note_on_c, 2, 62, 79
3, 212160, Note_on_c, 2, 55, 79
3, 212160, Note_on_c, 2, 50, 79
3, 212160, Note_on_c, 2, 46, 79
3, 212160, Note_on_c, 2, 43, 79
3, 212640, Note_off_c, 2, 67, 79
3, 212640, Note_off_c, 2, 62, 79
3, 212640, Note_off_c, 2, 55, 79
3, 212640, Note_off_c, 2, 50, 79
3, 212640, Note_off_c, 2, 46, 79
3, 212640, Note_off_c, 2, 43, 79
3, 212640, Note_on_c, 2, 67, 79
3, 212640, Note_on_c, 2, 62, 79
3, 212640, Note_on_c, 2, 55, 79
3, 212640, Note_on_c, 2, 50, 79
3, 212640, Note_on_c, 2, 46, 79
3, 212640, Note_on_c, 2, 43, 79
3, 212880, Note_off_c, 2, 67, 79
3, 212880, Note_off_c, 2, 62, 79
3, 212880, Note_off_c, 2, 55, 79
3, 212880, Note_off_c, 2, 50, 79
3, 212880, Note_off_c, 2, 46, 79
3, 212880, Note_off_c, 2, 43, 79
3, 212880, Note_on_c, 2, 67, 79
3, 212880, Note_on_c, 2, 62, 79
3, 212880, Note_on_c, 2, 55, 79
3, 212880, Note_on_c, 2, 50, 79
3, 212880, Note_on_c, 2, 46, 79
3, 212880, Note_on_c, 2, 43, 79
3, 213120, Note_off_c, 2, 67, 79
3, 213120, Note_off_c, 2, 62, 79
3, 213120, Note_off_c, 2, 55, 79
3, 213120, Note_off_c, 2, 50, 79
3, 213120, Note_off_c, 2, 46, 79
3, 213120, Note_off_c, 2, 43, 79
3, 213120, Note_on_c, 2, 67, 79
3, 213120, Note_on_c, 2, 62, 79
3, 213120, Note_on_c, 2, 55, 79
3, 213120, Note_on_c, 2, 50, 79
3, 213120, Note_on_c, 2, 46, 79
3, 213120, Note_on_c, 2, 43, 79
3, 213360, Note_off_c, 2, 67, 79
3, 213360, Note_off_c, 2, 62, 79
3, 213360, Note_off_c, 2, 55, 79
3, 213360, Note_off_c, 2, 50, 79
3, 213360, Note_off_c, 2, 46, 79
3, 213360, Note_off_c, 2, 43, 79
3, 213360, Note_on_c, 2, 67, 79
3, 213360, Note_on_c, 2, 62, 79
3, 213360, Note_on_c, 2, 55, 79
3, 213360, Note_on_c, 2, 50, 79
3, 213360, Note_on_c, 2, 46, 79
3, 213360, Note_on_c, 2, 43, 79
3, 213600, Note_off_c, 2, 67, 79
3, 213600, Note_off_c, 2, 62, 79
3, 213600, Note_off_c, 2, 55, 79
3, 213600, Note_off_c, 2, 50, 79
3, 213600, Note_off_c, 2, 46, 79
3, 213600, Note_off_c, 2, 43, 79
3, 213600, Note_on_c, 2, 67, 79
3, 213600, Note_on_c, 2, 62, 79
3, 213600, Note_on_c, 2, 55, 79
3, 213600, Note_on_c, 2, 50, 79
3, 213600, Note_on_c, 2, 46, 79
3, 213600, Note_on_c, 2, 43, 79
3, 213840, Note_off_c, 2, 67, 79
3, 213840, Note_off_c, 2, 62, 79
3, 213840, Note_off_c, 2, 55, 79
3, 213840, Note_off_c, 2, 50, 79
3, 213840, Note_off_c, 2, 46, 79
3, 213840, Note_off_c, 2, 43, 79
3, 213840, Note_on_c, 2, 67, 79
3, 213840, Note_on_c, 2, 62, 79
3, 213840, Note_on_c, 2, 55, 79
3, 213840, Note_on_c, 2, 50, 79
3, 213840, Note_on_c, 2, 46, 79
3, 213840, Note_on_c, 2, 43, 79
3, 214080, Note_off_c, 2, 67, 79
3, 214080, Note_off_c, 2, 62, 79
3, 214080, Note_off_c, 2, 55, 79
3, 214080, Note_off_c, 2, 50, 79
3, 214080, Note_off_c, 2, 46, 79
3, 214080, Note_off_c, 2, 43, 79
3, 214080, Note_on_c, 2, 67, 79
3, 214080, Note_on_c, 2, 62, 79
3, 214080, Note_on_c, 2, 55, 79
3, 214080, Note_on_c, 2, 50, 79
3, 214080, Note_on_c, 2, 46, 79
3, 214080, Note_on_c, 2, 43, 79
3, 214320, Note_off_c, 2, 67, 79
3, 214320, Note_off_c, 2, 62, 79
3, 214320, Note_off_c, 2, 55, 79
3, 214320, Note_off_c, 2, 50, 79
3, 214320, Note_off_c, 2, 46, 79
3, 214320, Note_off_c, 2, 43, 79
3, 214320, Note_on_c, 2, 67, 79
3, 214320, Note_on_c, 2, 62, 79
3, 214320, Note_on_c, 2, 55, 79
3, 214320, Note_on_c, 2, 50, 79
3, 214320, Note_on_c, 2, 46, 79
3, 214320, Note_on_c, 2, 43, 79
3, 214560, Note_off_c, 2, 67, 79
3, 214560, Note_off_c, 2, 62, 79
3, 214560, Note_off_c, 2, 55, 79
3, 214560, Note_off_c, 2, 50, 79
3, 214560, Note_off_c, 2, 46, 79
3, 214560, Note_off_c, 2, 43, 79
3, 214560, Note_on_c, 2, 67, 79
3, 214560, Note_on_c, 2, 62, 79
3, 214560, Note_on_c, 2, 55, 79
3, 214560, Note_on_c, 2, 50, 79
3, 214560, Note_on_c, 2, 46, 79
3, 214560, Note_on_c, 2, 43, 79
3, 214800, Note_off_c, 2, 67, 79
3, 214800, Note_off_c, 2, 62, 79
3, 214800, Note_off_c, 2, 55, 79
3, 214800, Note_off_c, 2, 50, 79
3, 214800, Note_off_c, 2, 46, 79
3, 214800, Note_off_c, 2, 43, 79
3, 214800, Note_on_c, 2, 67, 79
3, 214800, Note_on_c, 2, 62, 79
3, 214800, Note_on_c, 2, 55, 79
3, 214800, Note_on_c, 2, 50, 79
3, 214800, Note_on_c, 2, 46, 79
3, 214800, Note_on_c, 2, 43, 79
3, 215040, Note_off_c, 2, 67, 79
3, 215040, Note_off_c, 2, 62, 79
3, 215040, Note_off_c, 2, 55, 79
3, 215040, Note_off_c, 2, 50, 79
3, 215040, Note_off_c, 2, 46, 79
3, 215040, Note_off_c, 2, 43, 79
3, 215040, Note_on_c, 2, 65, 79
3, 215040, Note_on_c, 2, 62, 79
3, 215040, Note_on_c, 2, 58, 79
3, 215040, Note_on_c, 2, 50, 79
3, 215040, Note_on_c, 2, 46, 79
3, 215520, Note_off_c, 2, 65, 79
3, 215520, Note_off_c, 2, 62, 79
3, 215520, Note_off_c, 2, 58, 79
3, 215520, Note_off_c, 2, 50, 79
3, 215520, Note_off_c, 2, 46, 79
3, 215520, Note_on_c, 2, 65, 79
3, 215520, Note_on_c, 2, 62, 79
3, 215520, Note_on_c, 2, 58, 79
3, 215520, Note_on_c, 2, 50, 79
3, 215520, Note_on_c, 2, 46, 79
3, 215760, Note_off_c, 2, 65, 79
3, 215760, Note_off_c, 2, 62, 79
3, 215760, Note_off_c, 2, 58, 79
3, 215760, Note_off_c, 2, 50, 79
3, 215760, Note_off_c, 2, 46, 79
3, 215760, Note_on_c, 2, 65, 79
3, 215760, Note_on_c, 2, 62, 79
3, 215760, Note_on_c, 2, 58, 79
3, 215760, Note_on_c, 2, 50, 79
3, 215760, Note_on_c, 2, 46, 79
3, 216000, Note_off_c, 2, 65, 79
3, 216000, Note_off_c, 2, 62, 79
3, 216000, Note_off_c, 2, 58, 79
3, 216000, Note_off_c, 2, 50, 79
3, 216000, Note_off_c, 2, 46, 79
3, 216000, Note_on_c, 2, 65, 79
3, 216000, Note_on_c, 2, 62, 79
3, 216000, Note_on_c, 2, 58, 79
3, 216000, Note_on_c, 2, 50, 79
3, 216000, Note_on_c, 2, 46, 79
3, 216480, Note_off_c, 2, 65, 79
3, 216480, Note_off_c, 2, 62, 79
3, 216480, Note_off_c, 2, 58, 79
3, 216480, Note_off_c, 2, 50, 79
3, 216480, Note_off_c, 2, 46, 79
3, 216480, Note_on_c, 2, 65, 79
3, 216480, Note_on_c, 2, 62, 79
3, 216480, Note_on_c, 2, 58, 79
3, 216480, Note_on_c, 2, 50, 79
3, 216480, Note_on_c, 2, 46, 79
3, 217200, Note_off_c, 2, 65, 79
3, 217200, Note_off_c, 2, 62, 79
3, 217200, Note_off_c, 2, 58, 79
3, 217200, Note_off_c, 2, 50, 79
3, 217200, Note_off_c, 2, 46, 79
3, 217200, Note_on_c, 2, 65, 79
3, 217200, Note_on_c, 2, 62, 79
3, 217200, Note_on_c, 2, 58, 79
3, 217200, Note_on_c, 2, 50, 79
3, 217200, Note_on_c, 2, 46, 79
3, 217440, Note_off_c, 2, 65, 79
3, 217440, Note_off_c, 2, 62, 79
3, 217440, Note_off_c, 2, 58, 79
3, 217440, Note_off_c, 2, 50, 79
3, 217440, Note_off_c, 2, 46, 79
3, 217440, Note_on_c, 2, 65, 79
3, 217440, Note_on_c, 2, 62, 79
3, 217440, Note_on_c, 2, 58, 79
3, 217440, Note_on_c, 2, 50, 79
3, 217440, Note_on_c, 2, 46, 79
3, 217920, Note_off_c, 2, 65, 79
3, 217920, Note_off_c, 2, 62, 79
3, 217920, Note_off_c, 2, 58, 79
3, 217920, Note_off_c, 2, 50, 79
3, 217920, Note_off_c, 2, 46, 79
3, 217920, Note_on_c, 2, 65, 79
3, 217920, Note_on_c, 2, 62, 79
3, 217920, Note_on_c, 2, 58, 79
3, 217920, Note_on_c, 2, 50, 79
3, 217920, Note_on_c, 2, 46, 79
3, 218400, Note_off_c, 2, 65, 79
3, 218400, Note_off_c, 2, 62, 79
3, 218400, Note_off_c, 2, 58, 79
3, 218400, Note_off_c, 2, 50, 79
3, 218400, Note_off_c, 2, 46, 79
3, 218400, Note_on_c, 2, 65, 79
3, 218400, Note_on_c, 2, 62, 79
3, 218400, Note_on_c, 2, 58, 79
3, 218400, Note_on_c, 2, 50, 79
3, 218400, Note_on_c, 2, 46, 79
3, 218880, Note_off_c, 2, 65, 79
3, 218880, Note_off_c, 2, 62, 79
3, 218880, Note_off_c, 2, 58, 79
3, 218880, Note_off_c, 2, 50, 79
3, 218880, Note_off_c, 2, 46, 79
3, 218880, Note_on_c, 2, 67, 79
3, 218880, Note_on_c, 2, 62, 79
3, 218880, Note_on_c, 2, 55, 79
3, 218880, Note_on_c, 2, 50, 79
3, 218880, Note_on_c, 2, 46, 79
3, 218880, Note_on_c, 2, 43, 79
3, 219600, Note_off_c, 2, 67, 79
3, 219600, Note_off_c, 2, 62, 79
3, 219600, Note_off_c, 2, 55, 79
3, 219600, Note_off_c, 2, 50, 79
3, 219600, Note_off_c, 2, 46, 79
3, 219600, Note_off_c, 2, 43, 79
3, 219600, Note_on_c, 2, 67, 79
3, 219600, Note_on_c, 2, 62, 79
3, 219600, Note_on_c, 2, 55, 79
3, 219600, Note_on_c, 2, 50, 79
3, 219600, Note_on_c, 2, 46, 79
3, 219600, Note_on_c, 2, 43, 79
3, 219840, Note_off_c, 2, 67, 79
3, 219840, Note_off_c, 2, 62, 79
3, 219840, Note_off_c, 2, 55, 79
3, 219840, Note_off_c, 2, 50, 79
3, 219840, Note_off_c, 2, 46, 79
3, 219840, Note_off_c, 2, 43, 79
3, 219840, Note_on_c, 2, 67, 79
3, 219840, Note_on_c, 2, 62, 79
3, 219840, Note_on_c, 2, 55, 79
3, 219840, Note_on_c, 2, 50, 79
3, 219840, Note_on_c, 2, 46, 79
3, 219840, Note_on_c, 2, 43, 79
3, 220320, Note_off_c, 2, 67, 79
3, 220320, Note_off_c, 2, 62, 79
3, 220320, Note_off_c, 2, 55, 79
3, 220320, Note_off_c, 2, 50, 79
3, 220320, Note_off_c, 2, 46, 79
3, 220320, Note_off_c, 2, 43, 79
3, 220320, Note_on_c, 2, 67, 79
3, 220320, Note_on_c, 2, 62, 79
3, 220320, Note_on_c, 2, 55, 79
3, 220320, Note_on_c, 2, 50, 79
3, 220320, Note_on_c, 2, 46, 79
3, 220320, Note_on_c, 2, 43, 79
3, 220800, Note_off_c, 2, 67, 79
3, 220800, Note_off_c, 2, 62, 79
3, 220800, Note_off_c, 2, 55, 79
3, 220800, Note_off_c, 2, 50, 79
3, 220800, Note_off_c, 2, 46, 79
3, 220800, Note_off_c, 2, 43, 79
3, 220800, Note_on_c, 2, 67, 79
3, 220800, Note_on_c, 2, 62, 79
3, 220800, Note_on_c, 2, 55, 79
3, 220800, Note_on_c, 2, 50, 79
3, 220800, Note_on_c, 2, 46, 79
3, 220800, Note_on_c, 2, 43, 79
3, 221040, Note_off_c, 2, 67, 79
3, 221040, Note_off_c, 2, 62, 79
3, 221040, Note_off_c, 2, 55, 79
3, 221040, Note_off_c, 2, 50, 79
3, 221040, Note_off_c, 2, 46, 79
3, 221040, Note_off_c, 2, 43, 79
3, 221040, Note_on_c, 2, 67, 79
3, 221040, Note_on_c, 2, 62, 79
3, 221040, Note_on_c, 2, 55, 79
3, 221040, Note_on_c, 2, 50, 79
3, 221040, Note_on_c, 2, 46, 79
3, 221040, Note_on_c, 2, 43, 79
3, 221280, Note_off_c, 2, 67, 79
3, 221280, Note_off_c, 2, 62, 79
3, 221280, Note_off_c, 2, 55, 79
3, 221280, Note_off_c, 2, 50, 79
3, 221280, Note_off_c, 2, 46, 79
3, 221280, Note_off_c, 2, 43, 79
3, 221280, Note_on_c, 2, 67, 79
3, 221280, Note_on_c, 2, 62, 79
3, 221280, Note_on_c, 2, 55, 79
3, 221280, Note_on_c, 2, 50, 79
3, 221280, Note_on_c, 2, 46, 79
3, 221280, Note_on_c, 2, 43, 79
3, 221760, Note_off_c, 2, 67, 79
3, 221760, Note_off_c, 2, 62, 79
3, 221760, Note_off_c, 2, 55, 79
3, 221760, Note_off_c, 2, 50, 79
3, 221760, Note_off_c, 2, 46, 79
3, 221760, Note_off_c, 2, 43, 79
3, 221760, Note_on_c, 2, 67, 79
3, 221760, Note_on_c, 2, 62, 79
3, 221760, Note_on_c, 2, 55, 79
3, 221760, Note_on_c, 2, 50, 79
3, 221760, Note_on_c, 2, 46, 79
3, 221760, Note_on_c, 2, 43, 79
3, 222240, Note_off_c, 2, 67, 79
3, 222240, Note_off_c, 2, 62, 79
3, 222240, Note_off_c, 2, 55, 79
3, 222240, Note_off_c, 2, 50, 79
3, 222240, Note_off_c, 2, 46, 79
3, 222240, Note_off_c, 2, 43, 79
3, 222240, Note_on_c, 2, 67, 79
3, 222240, Note_on_c, 2, 62, 79
3, 222240, Note_on_c, 2, 55, 79
3, 222240, Note_on_c, 2, 50, 79
3, 222240, Note_on_c, 2, 46, 79
3, 222240, Note_on_c, 2, 43, 79
3, 222720, Note_off_c, 2, 67, 79
3, 222720, Note_off_c, 2, 62, 79
3, 222720, Note_off_c, 2, 55, 79
3, 222720, Note_off_c, 2, 50, 79
3, 222720, Note_off_c, 2, 46, 79
3, 222720, Note_off_c, 2, 43, 79
3, 222720, Note_on_c, 2, 65, 79
3, 222720, Note_on_c, 2, 62, 79
3, 222720, Note_on_c, 2, 58, 79
3, 222720, Note_on_c, 2, 50, 79
3, 222720, Note_on_c, 2, 46, 79
3, 223440, Note_off_c, 2, 65, 79
3, 223440, Note_off_c, 2, 62, 79
3, 223440, Note_off_c, 2, 58, 79
3, 223440, Note_off_c, 2, 50, 79
3, 223440, Note_off_c, 2, 46, 79
3, 223440, Note_on_c, 2, 65, 79
3, 223440, Note_on_c, 2, 62, 79
3, 223440, Note_on_c, 2, 58, 79
3, 223440, Note_on_c, 2, 50, 79
3, 223440, Note_on_c, 2, 46, 79
3, 223680, Note_off_c, 2, 65, 79
3, 223680, Note_off_c, 2, 62, 79
3, 223680, Note_off_c, 2, 58, 79
3, 223680, Note_off_c, 2, 50, 79
3, 223680, Note_off_c, 2, 46, 79
3, 223680, Note_on_c, 2, 65, 79
3, 223680, Note_on_c, 2, 62, 79
3, 223680, Note_on_c, 2, 58, 79
3, 223680, Note_on_c, 2, 50, 79
3, 223680, Note_on_c, 2, 46, 79
3, 224160, Note_off_c, 2, 65, 79
3, 224160, Note_off_c, 2, 62, 79
3, 224160, Note_off_c, 2, 58, 79
3, 224160, Note_off_c, 2, 50, 79
3, 224160, Note_off_c, 2, 46, 79
3, 224160, Note_on_c, 2, 65, 79
3, 224160, Note_on_c, 2, 62, 79
3, 224160, Note_on_c, 2, 58, 79
3, 224160, Note_on_c, 2, 50, 79
3, 224160, Note_on_c, 2, 46, 79
3, 224880, Note_off_c, 2, 65, 79
3, 224880, Note_off_c, 2, 62, 79
3, 224880, Note_off_c, 2, 58, 79
3, 224880, Note_off_c, 2, 50, 79
3, 224880, Note_off_c, 2, 46, 79
3, 224880, Note_on_c, 2, 65, 79
3, 224880, Note_on_c, 2, 62, 79
3, 224880, Note_on_c, 2, 58, 79
3, 224880, Note_on_c, 2, 50, 79
3, 224880, Note_on_c, 2, 46, 79
3, 225120, Note_off_c, 2, 65, 79
3, 225120, Note_off_c, 2, 62, 79
3, 225120, Note_off_c, 2, 58, 79
3, 225120, Note_off_c, 2, 50, 79
3, 225120, Note_off_c, 2, 46, 79
3, 225120, Note_on_c, 2, 65, 79
3, 225120, Note_on_c, 2, 62, 79
3, 225120, Note_on_c, 2, 58, 79
3, 225120, Note_on_c, 2, 50, 79
3, 225120, Note_on_c, 2, 46, 79
3, 225600, Note_off_c, 2, 65, 79
3, 225600, Note_off_c, 2, 62, 79
3, 225600, Note_off_c, 2, 58, 79
3, 225600, Note_off_c, 2, 50, 79
3, 225600, Note_off_c, 2, 46, 79
3, 225600, Note_on_c, 2, 65, 79
3, 225600, Note_on_c, 2, 62, 79
3, 225600, Note_on_c, 2, 58, 79
3, 225600, Note_on_c, 2, 50, 79
3, 225600, Note_on_c, 2, 46, 79
3, 226080, Note_off_c, 2, 65, 79
3, 226080, Note_off_c, 2, 62, 79
3, 226080, Note_off_c, 2, 58, 79
3, 226080, Note_off_c, 2, 50, 79
3, 226080, Note_off_c, 2, 46, 79
3, 226080, Note_on_c, 2, 65, 79
3, 226080, Note_on_c, 2, 62, 79
3, 226080, Note_on_c, 2, 58, 79
3, 226080, Note_on_c, 2, 50, 79
3, 226080, Note_on_c, 2, 46, 79
3, 226560, Note_off_c, 2, 65, 79
3, 226560, Note_off_c, 2, 62, 79
3, 226560, Note_off_c, 2, 58, 79
3, 226560, Note_off_c, 2, 50, 79
3, 226560, Note_off_c, 2, 46, 79
3, 226560, Note_on_c, 2, 67, 79
3, 226560, Note_on_c, 2, 62, 79
3, 226560, Note_on_c, 2, 55, 79
3, 226560, Note_on_c, 2, 50, 79
3, 226560, Note_on_c, 2, 46, 79
3, 226560, Note_on_c, 2, 43, 79
3, 227280, Note_off_c, 2, 67, 79
3, 227280, Note_off_c, 2, 62, 79
3, 227280, Note_off_c, 2, 55, 79
3, 227280, Note_off_c, 2, 50, 79
3, 227280, Note_off_c, 2, 46, 79
3, 227280, Note_off_c, 2, 43, 79
3, 227280, Note_on_c, 2, 67, 79
3, 227280, Note_on_c, 2, 62, 79
3, 227280, Note_on_c, 2, 55, 79
3, 227280, Note_on_c, 2, 50, 79
3, 227280, Note_on_c, 2, 46, 79
3, 227280, Note_on_c, 2, 43, 79
3, 227520, Note_off_c, 2, 67, 79
3, 227520, Note_off_c, 2, 62, 79
3, 227520, Note_off_c, 2, 55, 79
3, 227520, Note_off_c, 2, 50, 79
3, 227520, Note_off_c, 2, 46, 79
3, 227520, Note_off_c, 2, 43, 79
3, 227520, Note_on_c, 2, 67, 79
3, 227520, Note_on_c, 2, 62, 79
3, 227520, Note_on_c, 2, 55, 79
3, 227520, Note_on_c, 2, 50, 79
3, 227520, Note_on_c, 2, 46, 79
3, 227520, Note_on_c, 2, 43, 79
3, 228000, Note_off_c, 2, 67, 79
3, 228000, Note_off_c, 2, 62, 79
3, 228000, Note_off_c, 2, 55, 79
3, 228000, Note_off_c, 2, 50, 79
3, 228000, Note_off_c, 2, 46, 79
3, 228000, Note_off_c, 2, 43, 79
3, 228000, Note_on_c, 2, 67, 79
3, 228000, Note_on_c, 2, 62, 79
3, 228000, Note_on_c, 2, 55, 79
3, 228000, Note_on_c, 2, 50, 79
3, 228000, Note_on_c, 2, 46, 79
3, 228000, Note_on_c, 2, 43, 79
3, 228480, Note_off_c, 2, 67, 79
3, 228480, Note_off_c, 2, 62, 79
3, 228480, Note_off_c, 2, 55, 79
3, 228480, Note_off_c, 2, 50, 79
3, 228480, Note_off_c, 2, 46, 79
3, 228480, Note_off_c, 2, 43, 79
3, 228480, Note_on_c, 2, 67, 79
3, 228480, Note_on_c, 2, 62, 79
3, 228480, Note_on_c, 2, 55, 79
3, 228480, Note_on_c, 2, 50, 79
3, 228480, Note_on_c, 2, 46, 79
3, 228480, Note_on_c, 2, 43, 79
3, 228720, Note_off_c, 2, 67, 79
3, 228720, Note_off_c, 2, 62, 79
3, 228720, Note_off_c, 2, 55, 79
3, 228720, Note_off_c, 2, 50, 79
3, 228720, Note_off_c, 2, 46, 79
3, 228720, Note_off_c, 2, 43, 79
3, 228720, Note_on_c, 2, 67, 79
3, 228720, Note_on_c, 2, 62, 79
3, 228720, Note_on_c, 2, 55, 79
3, 228720, Note_on_c, 2, 50, 79
3, 228720, Note_on_c, 2, 46, 79
3, 228720, Note_on_c, 2, 43, 79
3, 228960, Note_off_c, 2, 67, 79
3, 228960, Note_off_c, 2, 62, 79
3, 228960, Note_off_c, 2, 55, 79
3, 228960, Note_off_c, 2, 50, 79
3, 228960, Note_off_c, 2, 46, 79
3, 228960, Note_off_c, 2, 43, 79
3, 228960, Note_on_c, 2, 67, 79
3, 228960, Note_on_c, 2, 62, 79
3, 228960, Note_on_c, 2, 55, 79
3, 228960, Note_on_c, 2, 50, 79
3, 228960, Note_on_c, 2, 46, 79
3, 228960, Note_on_c, 2, 43, 79
3, 229200, Note_off_c, 2, 67, 79
3, 229200, Note_off_c, 2, 62, 79
3, 229200, Note_off_c, 2, 55, 79
3, 229200, Note_off_c, 2, 50, 79
3, 229200, Note_off_c, 2, 46, 79
3, 229200, Note_off_c, 2, 43, 79
3, 229200, Note_on_c, 2, 67, 79
3, 229200, Note_on_c, 2, 62, 79
3, 229200, Note_on_c, 2, 55, 79
3, 229200, Note_on_c, 2, 50, 79
3, 229200, Note_on_c, 2, 46, 79
3, 229200, Note_on_c, 2, 43, 79
3, 229440, Note_off_c, 2, 67, 79
3, 229440, Note_off_c, 2, 62, 79
3, 229440, Note_off_c, 2, 55, 79
3, 229440, Note_off_c, 2, 50, 79
3, 229440, Note_off_c, 2, 46, 79
3, 229440, Note_off_c, 2, 43, 79
3, 229440, Note_on_c, 2, 67, 79
3, 229440, Note_on_c, 2, 62, 79
3, 229440, Note_on_c, 2, 55, 79
3, 229440, Note_on_c, 2, 50, 79
3, 229440, Note_on_c, 2, 46, 79
3, 229440, Note_on_c, 2, 43, 79
3, 229680, Note_off_c, 2, 67, 79
3, 229680, Note_off_c, 2, 62, 79
3, 229680, Note_off_c, 2, 55, 79
3, 229680, Note_off_c, 2, 50, 79
3, 229680, Note_off_c, 2, 46, 79
3, 229680, Note_off_c, 2, 43, 79
3, 229680, Note_on_c, 2, 67, 79
3, 229680, Note_on_c, 2, 62, 79
3, 229680, Note_on_c, 2, 55, 79
3, 229680, Note_on_c, 2, 50, 79
3, 229680, Note_on_c, 2, 46, 79
3, 229680, Note_on_c, 2, 43, 79
3, 229920, Note_off_c, 2, 67, 79
3, 229920, Note_off_c, 2, 62, 79
3, 229920, Note_off_c, 2, 55, 79
3, 229920, Note_off_c, 2, 50, 79
3, 229920, Note_off_c, 2, 46, 79
3, 229920, Note_off_c, 2, 43, 79
3, 229920, Note_on_c, 2, 67, 79
3, 229920, Note_on_c, 2, 62, 79
3, 229920, Note_on_c, 2, 55, 79
3, 229920, Note_on_c, 2, 50, 79
3, 229920, Note_on_c, 2, 46, 79
3, 229920, Note_on_c, 2, 43, 79
3, 230400, Note_off_c, 2, 67, 79
3, 230400, Note_off_c, 2, 62, 79
3, 230400, Note_off_c, 2, 55, 79
3, 230400, Note_off_c, 2, 50, 79
3, 230400, Note_off_c, 2, 46, 79
3, 230400, Note_off_c, 2, 43, 79
3, 230400, Note_on_c, 2, 67, 79
3, 230400, Note_on_c, 2, 62, 79
3, 230400, Note_on_c, 2, 55, 79
3, 230400, Note_on_c, 2, 50, 79
3, 230400, Note_on_c, 2, 46, 79
3, 230400, Note_on_c, 2, 43, 79
3, 230880, Note_off_c, 2, 67, 79
3, 230880, Note_off_c, 2, 62, 79
3, 230880, Note_off_c, 2, 55, 79
3, 230880, Note_off_c, 2, 50, 79
3, 230880, Note_off_c, 2, 46, 79
3, 230880, Note_off_c, 2, 43, 79
3, 230880, Note_on_c, 2, 67, 79
3, 230880, Note_on_c, 2, 62, 79
3, 230880, Note_on_c, 2, 55, 79
3, 230880, Note_on_c, 2, 50, 79
3, 230880, Note_on_c, 2, 46, 79
3, 230880, Note_on_c, 2, 43, 79
3, 231120, Note_off_c, 2, 67, 79
3, 231120, Note_off_c, 2, 62, 79
3, 231120, Note_off_c, 2, 55, 79
3, 231120, Note_off_c, 2, 50, 79
3, 231120, Note_off_c, 2, 46, 79
3, 231120, Note_off_c, 2, 43, 79
3, 231120, Note_on_c, 2, 67, 79
3, 231120, Note_on_c, 2, 62, 79
3, 231120, Note_on_c, 2, 55, 79
3, 231120, Note_on_c, 2, 50, 79
3, 231120, Note_on_c, 2, 46, 79
3, 231120, Note_on_c, 2, 43, 79
3, 231360, Note_off_c, 2, 67, 79
3, 231360, Note_off_c, 2, 62, 79
3, 231360, Note_off_c, 2, 55, 79
3, 231360, Note_off_c, 2, 50, 79
3, 231360, Note_off_c, 2, 46, 79
3, 231360, Note_off_c, 2, 43, 79
3, 231360, Note_on_c, 2, 67, 79
3, 231360, Note_on_c, 2, 62, 79
3, 231360, Note_on_c, 2, 55, 79
3, 231360, Note_on_c, 2, 50, 79
3, 231360, Note_on_c, 2, 46, 79
3, 231360, Note_on_c, 2, 43, 79
3, 231840, Note_off_c, 2, 67, 79
3, 231840, Note_off_c, 2, 62, 79
3, 231840, Note_off_c, 2, 55, 79
3, 231840, Note_off_c, 2, 50, 79
3, 231840, Note_off_c, 2, 46, 79
3, 231840, Note_off_c, 2, 43, 79
3, 231840, Note_on_c, 2, 67, 79
3, 231840, Note_on_c, 2, 62, 79
3, 231840, Note_on_c, 2, 55, 79
3, 231840, Note_on_c, 2, 50, 79
3, 231840, Note_on_c, 2, 46, 79
3, 231840, Note_on_c, 2, 43, 79
3, 232080, Note_off_c, 2, 67, 79
3, 232080, Note_off_c, 2, 62, 79
3, 232080, Note_off_c, 2, 55, 79
3, 232080, Note_off_c, 2, 50, 79
3, 232080, Note_off_c, 2, 46, 79
3, 232080, Note_off_c, 2, 43, 79
3, 232080, Note_on_c, 2, 67, 79
3, 232080, Note_on_c, 2, 62, 79
3, 232080, Note_on_c, 2, 55, 79
3, 232080, Note_on_c, 2, 50, 79
3, 232080, Note_on_c, 2, 46, 79
3, 232080, Note_on_c, 2, 43, 79
3, 232320, Note_off_c, 2, 67, 79
3, 232320, Note_off_c, 2, 62, 79
3, 232320, Note_off_c, 2, 55, 79
3, 232320, Note_off_c, 2, 50, 79
3, 232320, Note_off_c, 2, 46, 79
3, 232320, Note_off_c, 2, 43, 79
3, 232320, Note_on_c, 2, 67, 79
3, 232320, Note_on_c, 2, 62, 79
3, 232320, Note_on_c, 2, 55, 79
3, 232320, Note_on_c, 2, 50, 79
3, 232320, Note_on_c, 2, 46, 79
3, 232320, Note_on_c, 2, 43, 79
3, 232560, Note_off_c, 2, 67, 79
3, 232560, Note_off_c, 2, 62, 79
3, 232560, Note_off_c, 2, 55, 79
3, 232560, Note_off_c, 2, 50, 79
3, 232560, Note_off_c, 2, 46, 79
3, 232560, Note_off_c, 2, 43, 79
3, 232560, Note_on_c, 2, 67, 79
3, 232560, Note_on_c, 2, 62, 79
3, 232560, Note_on_c, 2, 55, 79
3, 232560, Note_on_c, 2, 50, 79
3, 232560, Note_on_c, 2, 46, 79
3, 232560, Note_on_c, 2, 43, 79
3, 232800, Note_off_c, 2, 67, 79
3, 232800, Note_off_c, 2, 62, 79
3, 232800, Note_off_c, 2, 55, 79
3, 232800, Note_off_c, 2, 50, 79
3, 232800, Note_off_c, 2, 46, 79
3, 232800, Note_off_c, 2, 43, 79
3, 232800, Note_on_c, 2, 67, 79
3, 232800, Note_on_c, 2, 62, 79
3, 232800, Note_on_c, 2, 55, 79
3, 232800, Note_on_c, 2, 50, 79
3, 232800, Note_on_c, 2, 46, 79
3, 232800, Note_on_c, 2, 43, 79
3, 233040, Note_off_c, 2, 67, 79
3, 233040, Note_off_c, 2, 62, 79
3, 233040, Note_off_c, 2, 55, 79
3, 233040, Note_off_c, 2, 50, 79
3, 233040, Note_off_c, 2, 46, 79
3, 233040, Note_off_c, 2, 43, 79
3, 233040, Note_on_c, 2, 67, 79
3, 233040, Note_on_c, 2, 62, 79
3, 233040, Note_on_c, 2, 55, 79
3, 233040, Note_on_c, 2, 50, 79
3, 233040, Note_on_c, 2, 46, 79
3, 233040, Note_on_c, 2, 43, 79
3, 233280, Note_off_c, 2, 67, 79
3, 233280, Note_off_c, 2, 62, 79
3, 233280, Note_off_c, 2, 55, 79
3, 233280, Note_off_c, 2, 50, 79
3, 233280, Note_off_c, 2, 46, 79
3, 233280, Note_off_c, 2, 43, 79
3, 233280, Note_on_c, 2, 67, 79
3, 233280, Note_on_c, 2, 62, 79
3, 233280, Note_on_c, 2, 55, 79
3, 233280, Note_on_c, 2, 50, 79
3, 233280, Note_on_c, 2, 46, 79
3, 233280, Note_on_c, 2, 43, 79
3, 233520, Note_off_c, 2, 67, 79
3, 233520, Note_off_c, 2, 62, 79
3, 233520, Note_off_c, 2, 55, 79
3, 233520, Note_off_c, 2, 50, 79
3, 233520, Note_off_c, 2, 46, 79
3, 233520, Note_off_c, 2, 43, 79
3, 233520, Note_on_c, 2, 67, 79
3, 233520, Note_on_c, 2, 62, 79
3, 233520, Note_on_c, 2, 55, 79
3, 233520, Note_on_c, 2, 50, 79
3, 233520, Note_on_c, 2, 46, 79
3, 233520, Note_on_c, 2, 43, 79
3, 233760, Note_off_c, 2, 67, 79
3, 233760, Note_off_c, 2, 62, 79
3, 233760, Note_off_c, 2, 55, 79
3, 233760, Note_off_c, 2, 50, 79
3, 233760, Note_off_c, 2, 46, 79
3, 233760, Note_off_c, 2, 43, 79
3, 233760, Note_on_c, 2, 67, 79
3, 233760, Note_on_c, 2, 62, 79
3, 233760, Note_on_c, 2, 55, 79
3, 233760, Note_on_c, 2, 50, 79
3, 233760, Note_on_c, 2, 46, 79
3, 233760, Note_on_c, 2, 43, 79
3, 234000, Note_off_c, 2, 67, 79
3, 234000, Note_off_c, 2, 62, 79
3, 234000, Note_off_c, 2, 55, 79
3, 234000, Note_off_c, 2, 50, 79
3, 234000, Note_off_c, 2, 46, 79
3, 234000, Note_off_c, 2, 43, 79
3, 234000, Note_on_c, 2, 67, 79
3, 234000, Note_on_c, 2, 62, 79
3, 234000, Note_on_c, 2, 55, 79
3, 234000, Note_on_c, 2, 50, 79
3, 234000, Note_on_c, 2, 46, 79
3, 234000, Note_on_c, 2, 43, 79
3, 234240, Note_off_c, 2, 67, 79
3, 234240, Note_off_c, 2, 62, 79
3, 234240, Note_off_c, 2, 55, 79
3, 234240, Note_off_c, 2, 50, 79
3, 234240, Note_off_c, 2, 46, 79
3, 234240, Note_off_c, 2, 43, 79
3, 234240, Note_on_c, 2, 65, 79
3, 234240, Note_on_c, 2, 62, 79
3, 234240, Note_on_c, 2, 58, 79
3, 234240, Note_on_c, 2, 50, 79
3, 234240, Note_on_c, 2, 46, 79
3, 234720, Note_off_c, 2, 65, 79
3, 234720, Note_off_c, 2, 62, 79
3, 234720, Note_off_c, 2, 58, 79
3, 234720, Note_off_c, 2, 50, 79
3, 234720, Note_off_c, 2, 46, 79
3, 234720, Note_on_c, 2, 65, 79
3, 234720, Note_on_c, 2, 62, 79
3, 234720, Note_on_c, 2, 58, 79
3, 234720, Note_on_c, 2, 50, 79
3, 234720, Note_on_c, 2, 46, 79
3, 234960, Note_off_c, 2, 65, 79
3, 234960, Note_off_c, 2, 62, 79
3, 234960, Note_off_c, 2, 58, 79
3, 234960, Note_off_c, 2, 50, 79
3, 234960, Note_off_c, 2, 46, 79
3, 234960, Note_on_c, 2, 65, 79
3, 234960, Note_on_c, 2, 62, 79
3, 234960, Note_on_c, 2, 58, 79
3, 234960, Note_on_c, 2, 50, 79
3, 234960, Note_on_c, 2, 46, 79
3, 235200, Note_off_c, 2, 65, 79
3, 235200, Note_off_c, 2, 62, 79
3, 235200, Note_off_c, 2, 58, 79
3, 235200, Note_off_c, 2, 50, 79
3, 235200, Note_off_c, 2, 46, 79
3, 235200, Note_on_c, 2, 65, 79
3, 235200, Note_on_c, 2, 62, 79
3, 235200, Note_on_c, 2, 58, 79
3, 235200, Note_on_c, 2, 50, 79
3, 235200, Note_on_c, 2, 46, 79
3, 235680, Note_off_c, 2, 65, 79
3, 235680, Note_off_c, 2, 62, 79
3, 235680, Note_off_c, 2, 58, 79
3, 235680, Note_off_c, 2, 50, 79
3, 235680, Note_off_c, 2, 46, 79
3, 235680, Note_on_c, 2, 65, 79
3, 235680, Note_on_c, 2, 62, 79
3, 235680, Note_on_c, 2, 58, 79
3, 235680, Note_on_c, 2, 50, 79
3, 235680, Note_on_c, 2, 46, 79
3, 235920, Note_off_c, 2, 65, 79
3, 235920, Note_off_c, 2, 62, 79
3, 235920, Note_off_c, 2, 58, 79
3, 235920, Note_off_c, 2, 50, 79
3, 235920, Note_off_c, 2, 46, 79
3, 235920, Note_on_c, 2, 65, 79
3, 235920, Note_on_c, 2, 62, 79
3, 235920, Note_on_c, 2, 58, 79
3, 235920, Note_on_c, 2, 50, 79
3, 235920, Note_on_c, 2, 46, 79
3, 236160, Note_off_c, 2, 65, 79
3, 236160, Note_off_c, 2, 62, 79
3, 236160, Note_off_c, 2, 58, 79
3, 236160, Note_off_c, 2, 50, 79
3, 236160, Note_off_c, 2, 46, 79
3, 236160, Note_on_c, 2, 65, 79
3, 236160, Note_on_c, 2, 62, 79
3, 236160, Note_on_c, 2, 58, 79
3, 236160, Note_on_c, 2, 50, 79
3, 236160, Note_on_c, 2, 46, 79
3, 236400, Note_off_c, 2, 65, 79
3, 236400, Note_off_c, 2, 62, 79
3, 236400, Note_off_c, 2, 58, 79
3, 236400, Note_off_c, 2, 50, 79
3, 236400, Note_off_c, 2, 46, 79
3, 236400, Note_on_c, 2, 65, 79
3, 236400, Note_on_c, 2, 62, 79
3, 236400, Note_on_c, 2, 58, 79
3, 236400, Note_on_c, 2, 50, 79
3, 236400, Note_on_c, 2, 46, 79
3, 236640, Note_off_c, 2, 65, 79
3, 236640, Note_off_c, 2, 62, 79
3, 236640, Note_off_c, 2, 58, 79
3, 236640, Note_off_c, 2, 50, 79
3, 236640, Note_off_c, 2, 46, 79
3, 236640, Note_on_c, 2, 65, 79
3, 236640, Note_on_c, 2, 62, 79
3, 236640, Note_on_c, 2, 58, 79
3, 236640, Note_on_c, 2, 50, 79
3, 236640, Note_on_c, 2, 46, 79
3, 236880, Note_off_c, 2, 65, 79
3, 236880, Note_off_c, 2, 62, 79
3, 236880, Note_off_c, 2, 58, 79
3, 236880, Note_off_c, 2, 50, 79
3, 236880, Note_off_c, 2, 46, 79
3, 236880, Note_on_c, 2, 65, 79
3, 236880, Note_on_c, 2, 62, 79
3, 236880, Note_on_c, 2, 58, 79
3, 236880, Note_on_c, 2, 50, 79
3, 236880, Note_on_c, 2, 46, 79
3, 237120, Note_off_c, 2, 65, 79
3, 237120, Note_off_c, 2, 62, 79
3, 237120, Note_off_c, 2, 58, 79
3, 237120, Note_off_c, 2, 50, 79
3, 237120, Note_off_c, 2, 46, 79
3, 237120, Note_on_c, 2, 65, 79
3, 237120, Note_on_c, 2, 62, 79
3, 237120, Note_on_c, 2, 58, 79
3, 237120, Note_on_c, 2, 50, 79
3, 237120, Note_on_c, 2, 46, 79
3, 237360, Note_off_c, 2, 65, 79
3, 237360, Note_off_c, 2, 62, 79
3, 237360, Note_off_c, 2, 58, 79
3, 237360, Note_off_c, 2, 50, 79
3, 237360, Note_off_c, 2, 46, 79
3, 237360, Note_on_c, 2, 65, 79
3, 237360, Note_on_c, 2, 62, 79
3, 237360, Note_on_c, 2, 58, 79
3, 237360, Note_on_c, 2, 50, 79
3, 237360, Note_on_c, 2, 46, 79
3, 237600, Note_off_c, 2, 65, 79
3, 237600, Note_off_c, 2, 62, 79
3, 237600, Note_off_c, 2, 58, 79
3, 237600, Note_off_c, 2, 50, 79
3, 237600, Note_off_c, 2, 46, 79
3, 238080, Note_on_c, 2, 67, 79
3, 238080, Note_on_c, 2, 62, 79
3, 238080, Note_on_c, 2, 55, 79
3, 238080, Note_on_c, 2, 50, 79
3, 238080, Note_on_c, 2, 46, 79
3, 238080, Note_on_c, 2, 43, 79
3, 238560, Note_off_c, 2, 67, 79
3, 238560, Note_off_c, 2, 62, 79
3, 238560, Note_off_c, 2, 55, 79
3, 238560, Note_off_c, 2, 50, 79
3, 238560, Note_off_c, 2, 46, 79
3, 238560, Note_off_c, 2, 43, 79
3, 238560, Note_on_c, 2, 67, 79
3, 238560, Note_on_c, 2, 62, 79
3, 238560, Note_on_c, 2, 55, 79
3, 238560, Note_on_c, 2, 50, 79
3, 238560, Note_on_c, 2, 46, 79
3, 238560, Note_on_c, 2, 43, 79
3, 238800, Note_off_c, 2, 67, 79
3, 238800, Note_off_c, 2, 62, 79
3, 238800, Note_off_c, 2, 55, 79
3, 238800, Note_off_c, 2, 50, 79
3, 238800, Note_off_c, 2, 46, 79
3, 238800, Note_off_c, 2, 43, 79
3, 238800, Note_on_c, 2, 67, 79
3, 238800, Note_on_c, 2, 62, 79
3, 238800, Note_on_c, 2, 55, 79
3, 238800, Note_on_c, 2, 50, 79
3, 238800, Note_on_c, 2, 46, 79
3, 238800, Note_on_c, 2, 43, 79
3, 239040, Note_off_c, 2, 67, 79
3, 239040, Note_off_c, 2, 62, 79
3, 239040, Note_off_c, 2, 55, 79
3, 239040, Note_off_c, 2, 50, 79
3, 239040, Note_off_c, 2, 46, 79
3, 239040, Note_off_c, 2, 43, 79
3, 239040, Note_on_c, 2, 67, 79
3, 239040, Note_on_c, 2, 62, 79
3, 239040, Note_on_c, 2, 55, 79
3, 239040, Note_on_c, 2, 50, 79
3, 239040, Note_on_c, 2, 46, 79
3, 239040, Note_on_c, 2, 43, 79
3, 239520, Note_off_c, 2, 67, 79
3, 239520, Note_off_c, 2, 62, 79
3, 239520, Note_off_c, 2, 55, 79
3, 239520, Note_off_c, 2, 50, 79
3, 239520, Note_off_c, 2, 46, 79
3, 239520, Note_off_c, 2, 43, 79
3, 239520, Note_on_c, 2, 67, 79
3, 239520, Note_on_c, 2, 62, 79
3, 239520, Note_on_c, 2, 55, 79
3, 239520, Note_on_c, 2, 50, 79
3, 239520, Note_on_c, 2, 46, 79
3, 239520, Note_on_c, 2, 43, 79
3, 239760, Note_off_c, 2, 67, 79
3, 239760, Note_off_c, 2, 62, 79
3, 239760, Note_off_c, 2, 55, 79
3, 239760, Note_off_c, 2, 50, 79
3, 239760, Note_off_c, 2, 46, 79
3, 239760, Note_off_c, 2, 43, 79
3, 239760, Note_on_c, 2, 67, 79
3, 239760, Note_on_c, 2, 62, 79
3, 239760, Note_on_c, 2, 55, 79
3, 239760, Note_on_c, 2, 50, 79
3, 239760, Note_on_c, 2, 46, 79
3, 239760, Note_on_c, 2, 43, 79
3, 240000, Note_off_c, 2, 67, 79
3, 240000, Note_off_c, 2, 62, 79
3, 240000, Note_off_c, 2, 55, 79
3, 240000, Note_off_c, 2, 50, 79
3, 240000, Note_off_c, 2, 46, 79
3, 240000, Note_off_c, 2, 43, 79
3, 240000, Note_on_c, 2, 67, 79
3, 240000, Note_on_c, 2, 62, 79
3, 240000, Note_on_c, 2, 55, 79
3, 240000, Note_on_c, 2, 50, 79
3, 240000, Note_on_c, 2, 46, 79
3, 240000, Note_on_c, 2, 43, 79
3, 240240, Note_off_c, 2, 67, 79
3, 240240, Note_off_c, 2, 62, 79
3, 240240, Note_off_c, 2, 55, 79
3, 240240, Note_off_c, 2, 50, 79
3, 240240, Note_off_c, 2, 46, 79
3, 240240, Note_off_c, 2, 43, 79
3, 240240, Note_on_c, 2, 67, 79
3, 240240, Note_on_c, 2, 62, 79
3, 240240, Note_on_c, 2, 55, 79
3, 240240, Note_on_c, 2, 50, 79
3, 240240, Note_on_c, 2, 46, 79
3, 240240, Note_on_c, 2, 43, 79
3, 240480, Note_off_c, 2, 67, 79
3, 240480, Note_off_c, 2, 62, 79
3, 240480, Note_off_c, 2, 55, 79
3, 240480, Note_off_c, 2, 50, 79
3, 240480, Note_off_c, 2, 46, 79
3, 240480, Note_off_c, 2, 43, 79
3, 240480, Note_on_c, 2, 67, 79
3, 240480, Note_on_c, 2, 62, 79
3, 240480, Note_on_c, 2, 55, 79
3, 240480, Note_on_c, 2, 50, 79
3, 240480, Note_on_c, 2, 46, 79
3, 240480, Note_on_c, 2, 43, 79
3, 240720, Note_off_c, 2, 67, 79
3, 240720, Note_off_c, 2, 62, 79
3, 240720, Note_off_c, 2, 55, 79
3, 240720, Note_off_c, 2, 50, 79
3, 240720, Note_off_c, 2, 46, 79
3, 240720, Note_off_c, 2, 43, 79
3, 240720, Note_on_c, 2, 67, 79
3, 240720, Note_on_c, 2, 62, 79
3, 240720, Note_on_c, 2, 55, 79
3, 240720, Note_on_c, 2, 50, 79
3, 240720, Note_on_c, 2, 46, 79
3, 240720, Note_on_c, 2, 43, 79
3, 240960, Note_off_c, 2, 67, 79
3, 240960, Note_off_c, 2, 62, 79
3, 240960, Note_off_c, 2, 55, 79
3, 240960, Note_off_c, 2, 50, 79
3, 240960, Note_off_c, 2, 46, 79
3, 240960, Note_off_c, 2, 43, 79
3, 240960, Note_on_c, 2, 67, 79
3, 240960, Note_on_c, 2, 62, 79
3, 240960, Note_on_c, 2, 55, 79
3, 240960, Note_on_c, 2, 50, 79
3, 240960, Note_on_c, 2, 46, 79
3, 240960, Note_on_c, 2, 43, 79
3, 241200, Note_off_c, 2, 67, 79
3, 241200, Note_off_c, 2, 62, 79
3, 241200, Note_off_c, 2, 55, 79
3, 241200, Note_off_c, 2, 50, 79
3, 241200, Note_off_c, 2, 46, 79
3, 241200, Note_off_c, 2, 43, 79
3, 241200, Note_on_c, 2, 67, 79
3, 241200, Note_on_c, 2, 62, 79
3, 241200, Note_on_c, 2, 55, 79
3, 241200, Note_on_c, 2, 50, 79
3, 241200, Note_on_c, 2, 46, 79
3, 241200, Note_on_c, 2, 43, 79
3, 241440, Note_off_c, 2, 67, 79
3, 241440, Note_off_c, 2, 62, 79
3, 241440, Note_off_c, 2, 55, 79
3, 241440, Note_off_c, 2, 50, 79
3, 241440, Note_off_c, 2, 46, 79
3, 241440, Note_off_c, 2, 43, 79
3, 241440, Note_on_c, 2, 67, 79
3, 241440, Note_on_c, 2, 62, 79
3, 241440, Note_on_c, 2, 55, 79
3, 241440, Note_on_c, 2, 50, 79
3, 241440, Note_on_c, 2, 46, 79
3, 241440, Note_on_c, 2, 43, 79
3, 241680, Note_off_c, 2, 67, 79
3, 241680, Note_off_c, 2, 62, 79
3, 241680, Note_off_c, 2, 55, 79
3, 241680, Note_off_c, 2, 50, 79
3, 241680, Note_off_c, 2, 46, 79
3, 241680, Note_off_c, 2, 43, 79
3, 241680, Note_on_c, 2, 67, 79
3, 241680, Note_on_c, 2, 62, 79
3, 241680, Note_on_c, 2, 55, 79
3, 241680, Note_on_c, 2, 50, 79
3, 241680, Note_on_c, 2, 46, 79
3, 241680, Note_on_c, 2, 43, 79
3, 241920, Note_off_c, 2, 67, 79
3, 241920, Note_off_c, 2, 62, 79
3, 241920, Note_off_c, 2, 55, 79
3, 241920, Note_off_c, 2, 50, 79
3, 241920, Note_off_c, 2, 46, 79
3, 241920, Note_off_c, 2, 43, 79
3, 241920, Note_on_c, 2, 67, 79
3, 241920, Note_on_c, 2, 62, 79
3, 241920, Note_on_c, 2, 55, 79
3, 241920, Note_on_c, 2, 50, 79
3, 241920, Note_on_c, 2, 46, 79
3, 241920, Note_on_c, 2, 43, 79
3, 242400, Note_off_c, 2, 67, 79
3, 242400, Note_off_c, 2, 62, 79
3, 242400, Note_off_c, 2, 55, 79
3, 242400, Note_off_c, 2, 50, 79
3, 242400, Note_off_c, 2, 46, 79
3, 242400, Note_off_c, 2, 43, 79
3, 242400, Note_on_c, 2, 67, 79
3, 242400, Note_on_c, 2, 62, 79
3, 242400, Note_on_c, 2, 55, 79
3, 242400, Note_on_c, 2, 50, 79
3, 242400, Note_on_c, 2, 46, 79
3, 242400, Note_on_c, 2, 43, 79
3, 242640, Note_off_c, 2, 67, 79
3, 242640, Note_off_c, 2, 62, 79
3, 242640, Note_off_c, 2, 55, 79
3, 242640, Note_off_c, 2, 50, 79
3, 242640, Note_off_c, 2, 46, 79
3, 242640, Note_off_c, 2, 43, 79
3, 242640, Note_on_c, 2, 67, 79
3, 242640, Note_on_c, 2, 62, 79
3, 242640, Note_on_c, 2, 55, 79
3, 242640, Note_on_c, 2, 50, 79
3, 242640, Note_on_c, 2, 46, 79
3, 242640, Note_on_c, 2, 43, 79
3, 242880, Note_off_c, 2, 67, 79
3, 242880, Note_off_c, 2, 62, 79
3, 242880, Note_off_c, 2, 55, 79
3, 242880, Note_off_c, 2, 50, 79
3, 242880, Note_off_c, 2, 46, 79
3, 242880, Note_off_c, 2, 43, 79
3, 242880, Note_on_c, 2, 67, 79
3, 242880, Note_on_c, 2, 62, 79
3, 242880, Note_on_c, 2, 55, 79
3, 242880, Note_on_c, 2, 50, 79
3, 242880, Note_on_c, 2, 46, 79
3, 242880, Note_on_c, 2, 43, 79
3, 243360, Note_off_c, 2, 67, 79
3, 243360, Note_off_c, 2, 62, 79
3, 243360, Note_off_c, 2, 55, 79
3, 243360, Note_off_c, 2, 50, 79
3, 243360, Note_off_c, 2, 46, 79
3, 243360, Note_off_c, 2, 43, 79
3, 243360, Note_on_c, 2, 67, 79
3, 243360, Note_on_c, 2, 62, 79
3, 243360, Note_on_c, 2, 55, 79
3, 243360, Note_on_c, 2, 50, 79
3, 243360, Note_on_c, 2, 46, 79
3, 243360, Note_on_c, 2, 43, 79
3, 243600, Note_off_c, 2, 67, 79
3, 243600, Note_off_c, 2, 62, 79
3, 243600, Note_off_c, 2, 55, 79
3, 243600, Note_off_c, 2, 50, 79
3, 243600, Note_off_c, 2, 46, 79
3, 243600, Note_off_c, 2, 43, 79
3, 243600, Note_on_c, 2, 67, 79
3, 243600, Note_on_c, 2, 62, 79
3, 243600, Note_on_c, 2, 55, 79
3, 243600, Note_on_c, 2, 50, 79
3, 243600, Note_on_c, 2, 46, 79
3, 243600, Note_on_c, 2, 43, 79
3, 243840, Note_off_c, 2, 67, 79
3, 243840, Note_off_c, 2, 62, 79
3, 243840, Note_off_c, 2, 55, 79
3, 243840, Note_off_c, 2, 50, 79
3, 243840, Note_off_c, 2, 46, 79
3, 243840, Note_off_c, 2, 43, 79
3, 243840, Note_on_c, 2, 67, 79
3, 243840, Note_on_c, 2, 62, 79
3, 243840, Note_on_c, 2, 55, 79
3, 243840, Note_on_c, 2, 50, 79
3, 243840, Note_on_c, 2, 46, 79
3, 243840, Note_on_c, 2, 43, 79
3, 244080, Note_off_c, 2, 67, 79
3, 244080, Note_off_c, 2, 62, 79
3, 244080, Note_off_c, 2, 55, 79
3, 244080, Note_off_c, 2, 50, 79
3, 244080, Note_off_c, 2, 46, 79
3, 244080, Note_off_c, 2, 43, 79
3, 244080, Note_on_c, 2, 67, 79
3, 244080, Note_on_c, 2, 62, 79
3, 244080, Note_on_c, 2, 55, 79
3, 244080, Note_on_c, 2, 50, 79
3, 244080, Note_on_c, 2, 46, 79
3, 244080, Note_on_c, 2, 43, 79
3, 244320, Note_off_c, 2, 67, 79
3, 244320, Note_off_c, 2, 62, 79
3, 244320, Note_off_c, 2, 55, 79
3, 244320, Note_off_c, 2, 50, 79
3, 244320, Note_off_c, 2, 46, 79
3, 244320, Note_off_c, 2, 43, 79
3, 244320, Note_on_c, 2, 67, 79
3, 244320, Note_on_c, 2, 62, 79
3, 244320, Note_on_c, 2, 55, 79
3, 244320, Note_on_c, 2, 50, 79
3, 244320, Note_on_c, 2, 46, 79
3, 244320, Note_on_c, 2, 43, 79
3, 244560, Note_off_c, 2, 67, 79
3, 244560, Note_off_c, 2, 62, 79
3, 244560, Note_off_c, 2, 55, 79
3, 244560, Note_off_c, 2, 50, 79
3, 244560, Note_off_c, 2, 46, 79
3, 244560, Note_off_c, 2, 43, 79
3, 244560, Note_on_c, 2, 67, 79
3, 244560, Note_on_c, 2, 62, 79
3, 244560, Note_on_c, 2, 55, 79
3, 244560, Note_on_c, 2, 50, 79
3, 244560, Note_on_c, 2, 46, 79
3, 244560, Note_on_c, 2, 43, 79
3, 244800, Note_off_c, 2, 67, 79
3, 244800, Note_off_c, 2, 62, 79
3, 244800, Note_off_c, 2, 55, 79
3, 244800, Note_off_c, 2, 50, 79
3, 244800, Note_off_c, 2, 46, 79
3, 244800, Note_off_c, 2, 43, 79
3, 244800, Note_on_c, 2, 67, 79
3, 244800, Note_on_c, 2, 62, 79
3, 244800, Note_on_c, 2, 55, 79
3, 244800, Note_on_c, 2, 50, 79
3, 244800, Note_on_c, 2, 46, 79
3, 244800, Note_on_c, 2, 43, 79
3, 245040, Note_off_c, 2, 67, 79
3, 245040, Note_off_c, 2, 62, 79
3, 245040, Note_off_c, 2, 55, 79
3, 245040, Note_off_c, 2, 50, 79
3, 245040, Note_off_c, 2, 46, 79
3, 245040, Note_off_c, 2, 43, 79
3, 245040, Note_on_c, 2, 67, 79
3, 245040, Note_on_c, 2, 62, 79
3, 245040, Note_on_c, 2, 55, 79
3, 245040, Note_on_c, 2, 50, 79
3, 245040, Note_on_c, 2, 46, 79
3, 245040, Note_on_c, 2, 43, 79
3, 245280, Note_off_c, 2, 67, 79
3, 245280, Note_off_c, 2, 62, 79
3, 245280, Note_off_c, 2, 55, 79
3, 245280, Note_off_c, 2, 50, 79
3, 245280, Note_off_c, 2, 46, 79
3, 245280, Note_off_c, 2, 43, 79
3, 245280, Note_on_c, 2, 67, 79
3, 245280, Note_on_c, 2, 62, 79
3, 245280, Note_on_c, 2, 55, 79
3, 245280, Note_on_c, 2, 50, 79
3, 245280, Note_on_c, 2, 46, 79
3, 245280, Note_on_c, 2, 43, 79
3, 245520, Note_off_c, 2, 67, 79
3, 245520, Note_off_c, 2, 62, 79
3, 245520, Note_off_c, 2, 55, 79
3, 245520, Note_off_c, 2, 50, 79
3, 245520, Note_off_c, 2, 46, 79
3, 245520, Note_off_c, 2, 43, 79
3, 245520, Note_on_c, 2, 67, 79
3, 245520, Note_on_c, 2, 62, 79
3, 245520, Note_on_c, 2, 55, 79
3, 245520, Note_on_c, 2, 50, 79
3, 245520, Note_on_c, 2, 46, 79
3, 245520, Note_on_c, 2, 43, 79
3, 245760, Note_off_c, 2, 67, 79
3, 245760, Note_off_c, 2, 62, 79
3, 245760, Note_off_c, 2, 55, 79
3, 245760, Note_off_c, 2, 50, 79
3, 245760, Note_off_c, 2, 46, 79
3, 245760, Note_off_c, 2, 43, 79
3, 245760, Note_on_c, 2, 67, 79
3, 245760, Note_on_c, 2, 62, 79
3, 245760, Note_on_c, 2, 55, 79
3, 245760, Note_on_c, 2, 50, 79
3, 245760, Note_on_c, 2, 46, 79
3, 245760, Note_on_c, 2, 43, 79
3, 246240, Note_off_c, 2, 67, 79
3, 246240, Note_off_c, 2, 62, 79
3, 246240, Note_off_c, 2, 55, 79
3, 246240, Note_off_c, 2, 50, 79
3, 246240, Note_off_c, 2, 46, 79
3, 246240, Note_off_c, 2, 43, 79
3, 246240, Note_on_c, 2, 67, 79
3, 246240, Note_on_c, 2, 62, 79
3, 246240, Note_on_c, 2, 55, 79
3, 246240, Note_on_c, 2, 50, 79
3, 246240, Note_on_c, 2, 46, 79
3, 246240, Note_on_c, 2, 43, 79
3, 246480, Note_off_c, 2, 67, 79
3, 246480, Note_off_c, 2, 62, 79
3, 246480, Note_off_c, 2, 55, 79
3, 246480, Note_off_c, 2, 50, 79
3, 246480, Note_off_c, 2, 46, 79
3, 246480, Note_off_c, 2, 43, 79
3, 246480, Note_on_c, 2, 67, 79
3, 246480, Note_on_c, 2, 62, 79
3, 246480, Note_on_c, 2, 55, 79
3, 246480, Note_on_c, 2, 50, 79
3, 246480, Note_on_c, 2, 46, 79
3, 246480, Note_on_c, 2, 43, 79
3, 246720, Note_off_c, 2, 67, 79
3, 246720, Note_off_c, 2, 62, 79
3, 246720, Note_off_c, 2, 55, 79
3, 246720, Note_off_c, 2, 50, 79
3, 246720, Note_off_c, 2, 46, 79
3, 246720, Note_off_c, 2, 43, 79
3, 246720, Note_on_c, 2, 67, 79
3, 246720, Note_on_c, 2, 62, 79
3, 246720, Note_on_c, 2, 55, 79
3, 246720, Note_on_c, 2, 50, 79
3, 246720, Note_on_c, 2, 46, 79
3, 246720, Note_on_c, 2, 43, 79
3, 247200, Note_off_c, 2, 67, 79
3, 247200, Note_off_c, 2, 62, 79
3, 247200, Note_off_c, 2, 55, 79
3, 247200, Note_off_c, 2, 50, 79
3, 247200, Note_off_c, 2, 46, 79
3, 247200, Note_off_c, 2, 43, 79
3, 247200, Note_on_c, 2, 67, 79
3, 247200, Note_on_c, 2, 62, 79
3, 247200, Note_on_c, 2, 55, 79
3, 247200, Note_on_c, 2, 50, 79
3, 247200, Note_on_c, 2, 46, 79
3, 247200, Note_on_c, 2, 43, 79
3, 247440, Note_off_c, 2, 67, 79
3, 247440, Note_off_c, 2, 62, 79
3, 247440, Note_off_c, 2, 55, 79
3, 247440, Note_off_c, 2, 50, 79
3, 247440, Note_off_c, 2, 46, 79
3, 247440, Note_off_c, 2, 43, 79
3, 247440, Note_on_c, 2, 67, 79
3, 247440, Note_on_c, 2, 62, 79
3, 247440, Note_on_c, 2, 55, 79
3, 247440, Note_on_c, 2, 50, 79
3, 247440, Note_on_c, 2, 46, 79
3, 247440, Note_on_c, 2, 43, 79
3, 247680, Note_off_c, 2, 67, 79
3, 247680, Note_off_c, 2, 62, 79
3, 247680, Note_off_c, 2, 55, 79
3, 247680, Note_off_c, 2, 50, 79
3, 247680, Note_off_c, 2, 46, 79
3, 247680, Note_off_c, 2, 43, 79
3, 247680, Note_on_c, 2, 67, 79
3, 247680, Note_on_c, 2, 62, 79
3, 247680, Note_on_c, 2, 55, 79
3, 247680, Note_on_c, 2, 50, 79
3, 247680, Note_on_c, 2, 46, 79
3, 247680, Note_on_c, 2, 43, 79
3, 247920, Note_off_c, 2, 67, 79
3, 247920, Note_off_c, 2, 62, 79
3, 247920, Note_off_c, 2, 55, 79
3, 247920, Note_off_c, 2, 50, 79
3, 247920, Note_off_c, 2, 46, 79
3, 247920, Note_off_c, 2, 43, 79
3, 247920, Note_on_c, 2, 67, 79
3, 247920, Note_on_c, 2, 62, 79
3, 247920, Note_on_c, 2, 55, 79
3, 247920, Note_on_c, 2, 50, 79
3, 247920, Note_on_c, 2, 46, 79
3, 247920, Note_on_c, 2, 43, 79
3, 248160, Note_off_c, 2, 67, 79
3, 248160, Note_off_c, 2, 62, 79
3, 248160, Note_off_c, 2, 55, 79
3, 248160, Note_off_c, 2, 50, 79
3, 248160, Note_off_c, 2, 46, 79
3, 248160, Note_off_c, 2, 43, 79
3, 248160, Note_on_c, 2, 67, 79
3, 248160, Note_on_c, 2, 62, 79
3, 248160, Note_on_c, 2, 55, 79
3, 248160, Note_on_c, 2, 50, 79
3, 248160, Note_on_c, 2, 46, 79
3, 248160, Note_on_c, 2, 43, 79
3, 248400, Note_off_c, 2, 67, 79
3, 248400, Note_off_c, 2, 62, 79
3, 248400, Note_off_c, 2, 55, 79
3, 248400, Note_off_c, 2, 50, 79
3, 248400, Note_off_c, 2, 46, 79
3, 248400, Note_off_c, 2, 43, 79
3, 248400, Note_on_c, 2, 67, 79
3, 248400, Note_on_c, 2, 62, 79
3, 248400, Note_on_c, 2, 55, 79
3, 248400, Note_on_c, 2, 50, 79
3, 248400, Note_on_c, 2, 46, 79
3, 248400, Note_on_c, 2, 43, 79
3, 248640, Note_off_c, 2, 67, 79
3, 248640, Note_off_c, 2, 62, 79
3, 248640, Note_off_c, 2, 55, 79
3, 248640, Note_off_c, 2, 50, 79
3, 248640, Note_off_c, 2, 46, 79
3, 248640, Note_off_c, 2, 43, 79
3, 248640, Note_on_c, 2, 67, 79
3, 248640, Note_on_c, 2, 62, 79
3, 248640, Note_on_c, 2, 55, 79
3, 248640, Note_on_c, 2, 50, 79
3, 248640, Note_on_c, 2, 46, 79
3, 248640, Note_on_c, 2, 43, 79
3, 248880, Note_off_c, 2, 67, 79
3, 248880, Note_off_c, 2, 62, 79
3, 248880, Note_off_c, 2, 55, 79
3, 248880, Note_off_c, 2, 50, 79
3, 248880, Note_off_c, 2, 46, 79
3, 248880, Note_off_c, 2, 43, 79
3, 248880, Note_on_c, 2, 67, 79
3, 248880, Note_on_c, 2, 62, 79
3, 248880, Note_on_c, 2, 55, 79
3, 248880, Note_on_c, 2, 50, 79
3, 248880, Note_on_c, 2, 46, 79
3, 248880, Note_on_c, 2, 43, 79
3, 249120, Note_off_c, 2, 67, 79
3, 249120, Note_off_c, 2, 62, 79
3, 249120, Note_off_c, 2, 55, 79
3, 249120, Note_off_c, 2, 50, 79
3, 249120, Note_off_c, 2, 46, 79
3, 249120, Note_off_c, 2, 43, 79
3, 249120, Note_on_c, 2, 67, 79
3, 249120, Note_on_c, 2, 62, 79
3, 249120, Note_on_c, 2, 55, 79
3, 249120, Note_on_c, 2, 50, 79
3, 249120, Note_on_c, 2, 46, 79
3, 249120, Note_on_c, 2, 43, 79
3, 249360, Note_off_c, 2, 67, 79
3, 249360, Note_off_c, 2, 62, 79
3, 249360, Note_off_c, 2, 55, 79
3, 249360, Note_off_c, 2, 50, 79
3, 249360, Note_off_c, 2, 46, 79
3, 249360, Note_off_c, 2, 43, 79
3, 249360, Note_on_c, 2, 67, 79
3, 249360, Note_on_c, 2, 62, 79
3, 249360, Note_on_c, 2, 55, 79
3, 249360, Note_on_c, 2, 50, 79
3, 249360, Note_on_c, 2, 46, 79
3, 249360, Note_on_c, 2, 43, 79
3, 249600, Note_off_c, 2, 67, 79
3, 249600, Note_off_c, 2, 62, 79
3, 249600, Note_off_c, 2, 55, 79
3, 249600, Note_off_c, 2, 50, 79
3, 249600, Note_off_c, 2, 46, 79
3, 249600, Note_off_c, 2, 43, 79
3, 249600, Note_on_c, 2, 65, 79
3, 249600, Note_on_c, 2, 62, 79
3, 249600, Note_on_c, 2, 58, 79
3, 249600, Note_on_c, 2, 50, 79
3, 249600, Note_on_c, 2, 46, 79
3, 250080, Note_off_c, 2, 65, 79
3, 250080, Note_off_c, 2, 62, 79
3, 250080, Note_off_c, 2, 58, 79
3, 250080, Note_off_c, 2, 50, 79
3, 250080, Note_off_c, 2, 46, 79
3, 250080, Note_on_c, 2, 65, 79
3, 250080, Note_on_c, 2, 62, 79
3, 250080, Note_on_c, 2, 58, 79
3, 250080, Note_on_c, 2, 50, 79
3, 250080, Note_on_c, 2, 46, 79
3, 250320, Note_off_c, 2, 65, 79
3, 250320, Note_off_c, 2, 62, 79
3, 250320, Note_off_c, 2, 58, 79
3, 250320, Note_off_c, 2, 50, 79
3, 250320, Note_off_c, 2, 46, 79
3, 250320, Note_on_c, 2, 65, 79
3, 250320, Note_on_c, 2, 62, 79
3, 250320, Note_on_c, 2, 58, 79
3, 250320, Note_on_c, 2, 50, 79
3, 250320, Note_on_c, 2, 46, 79
3, 250560, Note_off_c, 2, 65, 79
3, 250560, Note_off_c, 2, 62, 79
3, 250560, Note_off_c, 2, 58, 79
3, 250560, Note_off_c, 2, 50, 79
3, 250560, Note_off_c, 2, 46, 79
3, 250560, Note_on_c, 2, 65, 79
3, 250560, Note_on_c, 2, 62, 79
3, 250560, Note_on_c, 2, 58, 79
3, 250560, Note_on_c, 2, 50, 79
3, 250560, Note_on_c, 2, 46, 79
3, 251040, Note_off_c, 2, 65, 79
3, 251040, Note_off_c, 2, 62, 79
3, 251040, Note_off_c, 2, 58, 79
3, 251040, Note_off_c, 2, 50, 79
3, 251040, Note_off_c, 2, 46, 79
3, 251040, Note_on_c, 2, 65, 79
3, 251040, Note_on_c, 2, 62, 79
3, 251040, Note_on_c, 2, 58, 79
3, 251040, Note_on_c, 2, 50, 79
3, 251040, Note_on_c, 2, 46, 79
3, 251280, Note_off_c, 2, 65, 79
3, 251280, Note_off_c, 2, 62, 79
3, 251280, Note_off_c, 2, 58, 79
3, 251280, Note_off_c, 2, 50, 79
3, 251280, Note_off_c, 2, 46, 79
3, 251280, Note_on_c, 2, 65, 79
3, 251280, Note_on_c, 2, 62, 79
3, 251280, Note_on_c, 2, 58, 79
3, 251280, Note_on_c, 2, 50, 79
3, 251280, Note_on_c, 2, 46, 79
3, 251520, Note_off_c, 2, 65, 79
3, 251520, Note_off_c, 2, 62, 79
3, 251520, Note_off_c, 2, 58, 79
3, 251520, Note_off_c, 2, 50, 79
3, 251520, Note_off_c, 2, 46, 79
3, 251520, Note_on_c, 2, 65, 79
3, 251520, Note_on_c, 2, 62, 79
3, 251520, Note_on_c, 2, 58, 79
3, 251520, Note_on_c, 2, 50, 79
3, 251520, Note_on_c, 2, 46, 79
3, 251760, Note_off_c, 2, 65, 79
3, 251760, Note_off_c, 2, 62, 79
3, 251760, Note_off_c, 2, 58, 79
3, 251760, Note_off_c, 2, 50, 79
3, 251760, Note_off_c, 2, 46, 79
3, 251760, Note_on_c, 2, 65, 79
3, 251760, Note_on_c, 2, 62, 79
3, 251760, Note_on_c, 2, 58, 79
3, 251760, Note_on_c, 2, 50, 79
3, 251760, Note_on_c, 2, 46, 79
3, 252000, Note_off_c, 2, 65, 79
3, 252000, Note_off_c, 2, 62, 79
3, 252000, Note_off_c, 2, 58, 79
3, 252000, Note_off_c, 2, 50, 79
3, 252000, Note_off_c, 2, 46, 79
3, 252000, Note_on_c, 2, 65, 79
3, 252000, Note_on_c, 2, 62, 79
3, 252000, Note_on_c, 2, 58, 79
3, 252000, Note_on_c, 2, 50, 79
3, 252000, Note_on_c, 2, 46, 79
3, 252240, Note_off_c, 2, 65, 79
3, 252240, Note_off_c, 2, 62, 79
3, 252240, Note_off_c, 2, 58, 79
3, 252240, Note_off_c, 2, 50, 79
3, 252240, Note_off_c, 2, 46, 79
3, 252240, Note_on_c, 2, 65, 79
3, 252240, Note_on_c, 2, 62, 79
3, 252240, Note_on_c, 2, 58, 79
3, 252240, Note_on_c, 2, 50, 79
3, 252240, Note_on_c, 2, 46, 79
3, 252480, Note_off_c, 2, 65, 79
3, 252480, Note_off_c, 2, 62, 79
3, 252480, Note_off_c, 2, 58, 79
3, 252480, Note_off_c, 2, 50, 79
3, 252480, Note_off_c, 2, 46, 79
3, 252480, Note_on_c, 2, 65, 79
3, 252480, Note_on_c, 2, 62, 79
3, 252480, Note_on_c, 2, 58, 79
3, 252480, Note_on_c, 2, 50, 79
3, 252480, Note_on_c, 2, 46, 79
3, 252720, Note_off_c, 2, 65, 79
3, 252720, Note_off_c, 2, 62, 79
3, 252720, Note_off_c, 2, 58, 79
3, 252720, Note_off_c, 2, 50, 79
3, 252720, Note_off_c, 2, 46, 79
3, 252720, Note_on_c, 2, 65, 79
3, 252720, Note_on_c, 2, 62, 79
3, 252720, Note_on_c, 2, 58, 79
3, 252720, Note_on_c, 2, 50, 79
3, 252720, Note_on_c, 2, 46, 79
3, 252960, Note_off_c, 2, 65, 79
3, 252960, Note_off_c, 2, 62, 79
3, 252960, Note_off_c, 2, 58, 79
3, 252960, Note_off_c, 2, 50, 79
3, 252960, Note_off_c, 2, 46, 79
3, 253440, Note_on_c, 2, 67, 79
3, 253440, Note_on_c, 2, 62, 79
3, 253440, Note_on_c, 2, 55, 79
3, 253440, Note_on_c, 2, 50, 79
3, 253440, Note_on_c, 2, 46, 79
3, 253440, Note_on_c, 2, 43, 79
3, 253920, Note_off_c, 2, 67, 79
3, 253920, Note_off_c, 2, 62, 79
3, 253920, Note_off_c, 2, 55, 79
3, 253920, Note_off_c, 2, 50, 79
3, 253920, Note_off_c, 2, 46, 79
3, 253920, Note_off_c, 2, 43, 79
3, 253920, Note_on_c, 2, 67, 79
3, 253920, Note_on_c, 2, 62, 79
3, 253920, Note_on_c, 2, 55, 79
3, 253920, Note_on_c, 2, 50, 79
3, 253920, Note_on_c, 2, 46, 79
3, 253920, Note_on_c, 2, 43, 79
3, 254160, Note_off_c, 2, 67, 79
3, 254160, Note_off_c, 2, 62, 79
3, 254160, Note_off_c, 2, 55, 79
3, 254160, Note_off_c, 2, 50, 79
3, 254160, Note_off_c, 2, 46, 79
3, 254160, Note_off_c, 2, 43, 79
3, 254160, Note_on_c, 2, 67, 79
3, 254160, Note_on_c, 2, 62, 79
3, 254160, Note_on_c, 2, 55, 79
3, 254160, Note_on_c, 2, 50, 79
3, 254160, Note_on_c, 2, 46, 79
3, 254160, Note_on_c, 2, 43, 79
3, 254400, Note_off_c, 2, 67, 79
3, 254400, Note_off_c, 2, 62, 79
3, 254400, Note_off_c, 2, 55, 79
3, 254400, Note_off_c, 2, 50, 79
3, 254400, Note_off_c, 2, 46, 79
3, 254400, Note_off_c, 2, 43, 79
3, 254400, Note_on_c, 2, 67, 79
3, 254400, Note_on_c, 2, 62, 79
3, 254400, Note_on_c, 2, 55, 79
3, 254400, Note_on_c, 2, 50, 79
3, 254400, Note_on_c, 2, 46, 79
3, 254400, Note_on_c, 2, 43, 79
3, 254880, Note_off_c, 2, 67, 79
3, 254880, Note_off_c, 2, 62, 79
3, 254880, Note_off_c, 2, 55, 79
3, 254880, Note_off_c, 2, 50, 79
3, 254880, Note_off_c, 2, 46, 79
3, 254880, Note_off_c, 2, 43, 79
3, 254880, Note_on_c, 2, 67, 79
3, 254880, Note_on_c, 2, 62, 79
3, 254880, Note_on_c, 2, 55, 79
3, 254880, Note_on_c, 2, 50, 79
3, 254880, Note_on_c, 2, 46, 79
3, 254880, Note_on_c, 2, 43, 79
3, 255120, Note_off_c, 2, 67, 79
3, 255120, Note_off_c, 2, 62, 79
3, 255120, Note_off_c, 2, 55, 79
3, 255120, Note_off_c, 2, 50, 79
3, 255120, Note_off_c, 2, 46, 79
3, 255120, Note_off_c, 2, 43, 79
3, 255120, Note_on_c, 2, 67, 79
3, 255120, Note_on_c, 2, 62, 79
3, 255120, Note_on_c, 2, 55, 79
3, 255120, Note_on_c, 2, 50, 79
3, 255120, Note_on_c, 2, 46, 79
3, 255120, Note_on_c, 2, 43, 79
3, 255360, Note_off_c, 2, 67, 79
3, 255360, Note_off_c, 2, 62, 79
3, 255360, Note_off_c, 2, 55, 79
3, 255360, Note_off_c, 2, 50, 79
3, 255360, Note_off_c, 2, 46, 79
3, 255360, Note_off_c, 2, 43, 79
3, 255360, Note_on_c, 2, 67, 79
3, 255360, Note_on_c, 2, 62, 79
3, 255360, Note_on_c, 2, 55, 79
3, 255360, Note_on_c, 2, 50, 79
3, 255360, Note_on_c, 2, 46, 79
3, 255360, Note_on_c, 2, 43, 79
3, 255600, Note_off_c, 2, 67, 79
3, 255600, Note_off_c, 2, 62, 79
3, 255600, Note_off_c, 2, 55, 79
3, 255600, Note_off_c, 2, 50, 79
3, 255600, Note_off_c, 2, 46, 79
3, 255600, Note_off_c, 2, 43, 79
3, 255600, Note_on_c, 2, 67, 79
3, 255600, Note_on_c, 2, 62, 79
3, 255600, Note_on_c, 2, 55, 79
3, 255600, Note_on_c, 2, 50, 79
3, 255600, Note_on_c, 2, 46, 79
3, 255600, Note_on_c, 2, 43, 79
3, 255840, Note_off_c, 2, 67, 79
3, 255840, Note_off_c, 2, 62, 79
3, 255840, Note_off_c, 2, 55, 79
3, 255840, Note_off_c, 2, 50, 79
3, 255840, Note_off_c, 2, 46, 79
3, 255840, Note_off_c, 2, 43, 79
3, 255840, Note_on_c, 2, 67, 79
3, 255840, Note_on_c, 2, 62, 79
3, 255840, Note_on_c, 2, 55, 79
3, 255840, Note_on_c, 2, 50, 79
3, 255840, Note_on_c, 2, 46, 79
3, 255840, Note_on_c, 2, 43, 79
3, 256080, Note_off_c, 2, 67, 79
3, 256080, Note_off_c, 2, 62, 79
3, 256080, Note_off_c, 2, 55, 79
3, 256080, Note_off_c, 2, 50, 79
3, 256080, Note_off_c, 2, 46, 79
3, 256080, Note_off_c, 2, 43, 79
3, 256080, Note_on_c, 2, 67, 79
3, 256080, Note_on_c, 2, 62, 79
3, 256080, Note_on_c, 2, 55, 79
3, 256080, Note_on_c, 2, 50, 79
3, 256080, Note_on_c, 2, 46, 79
3, 256080, Note_on_c, 2, 43, 79
3, 256320, Note_off_c, 2, 67, 79
3, 256320, Note_off_c, 2, 62, 79
3, 256320, Note_off_c, 2, 55, 79
3, 256320, Note_off_c, 2, 50, 79
3, 256320, Note_off_c, 2, 46, 79
3, 256320, Note_off_c, 2, 43, 79
3, 256320, Note_on_c, 2, 67, 79
3, 256320, Note_on_c, 2, 62, 79
3, 256320, Note_on_c, 2, 55, 79
3, 256320, Note_on_c, 2, 50, 79
3, 256320, Note_on_c, 2, 46, 79
3, 256320, Note_on_c, 2, 43, 79
3, 256560, Note_off_c, 2, 67, 79
3, 256560, Note_off_c, 2, 62, 79
3, 256560, Note_off_c, 2, 55, 79
3, 256560, Note_off_c, 2, 50, 79
3, 256560, Note_off_c, 2, 46, 79
3, 256560, Note_off_c, 2, 43, 79
3, 256560, Note_on_c, 2, 67, 79
3, 256560, Note_on_c, 2, 62, 79
3, 256560, Note_on_c, 2, 55, 79
3, 256560, Note_on_c, 2, 50, 79
3, 256560, Note_on_c, 2, 46, 79
3, 256560, Note_on_c, 2, 43, 79
3, 256800, Note_off_c, 2, 67, 79
3, 256800, Note_off_c, 2, 62, 79
3, 256800, Note_off_c, 2, 55, 79
3, 256800, Note_off_c, 2, 50, 79
3, 256800, Note_off_c, 2, 46, 79
3, 256800, Note_off_c, 2, 43, 79
3, 256800, Note_on_c, 2, 67, 79
3, 256800, Note_on_c, 2, 62, 79
3, 256800, Note_on_c, 2, 55, 79
3, 256800, Note_on_c, 2, 50, 79
3, 256800, Note_on_c, 2, 46, 79
3, 256800, Note_on_c, 2, 43, 79
3, 257040, Note_off_c, 2, 67, 79
3, 257040, Note_off_c, 2, 62, 79
3, 257040, Note_off_c, 2, 55, 79
3, 257040, Note_off_c, 2, 50, 79
3, 257040, Note_off_c, 2, 46, 79
3, 257040, Note_off_c, 2, 43, 79
3, 257040, Note_on_c, 2, 67, 79
3, 257040, Note_on_c, 2, 62, 79
3, 257040, Note_on_c, 2, 55, 79
3, 257040, Note_on_c, 2, 50, 79
3, 257040, Note_on_c, 2, 46, 79
3, 257040, Note_on_c, 2, 43, 79
3, 257280, Note_off_c, 2, 67, 79
3, 257280, Note_off_c, 2, 62, 79
3, 257280, Note_off_c, 2, 55, 79
3, 257280, Note_off_c, 2, 50, 79
3, 257280, Note_off_c, 2, 46, 79
3, 257280, Note_off_c, 2, 43, 79
3, 257280, Note_on_c, 2, 67, 79
3, 257280, Note_on_c, 2, 62, 79
3, 257280, Note_on_c, 2, 55, 79
3, 257280, Note_on_c, 2, 50, 79
3, 257280, Note_on_c, 2, 46, 79
3, 257280, Note_on_c, 2, 43, 79
3, 257760, Note_off_c, 2, 67, 79
3, 257760, Note_off_c, 2, 62, 79
3, 257760, Note_off_c, 2, 55, 79
3, 257760, Note_off_c, 2, 50, 79
3, 257760, Note_off_c, 2, 46, 79
3, 257760, Note_off_c, 2, 43, 79
3, 257760, Note_on_c, 2, 67, 79
3, 257760, Note_on_c, 2, 62, 79
3, 257760, Note_on_c, 2, 55, 79
3, 257760, Note_on_c, 2, 50, 79
3, 257760, Note_on_c, 2, 46, 79
3, 257760, Note_on_c, 2, 43, 79
3, 258000, Note_off_c, 2, 67, 79
3, 258000, Note_off_c, 2, 62, 79
3, 258000, Note_off_c, 2, 55, 79
3, 258000, Note_off_c, 2, 50, 79
3, 258000, Note_off_c, 2, 46, 79
3, 258000, Note_off_c, 2, 43, 79
3, 258000, Note_on_c, 2, 67, 79
3, 258000, Note_on_c, 2, 62, 79
3, 258000, Note_on_c, 2, 55, 79
3, 258000, Note_on_c, 2, 50, 79
3, 258000, Note_on_c, 2, 46, 79
3, 258000, Note_on_c, 2, 43, 79
3, 258240, Note_off_c, 2, 67, 79
3, 258240, Note_off_c, 2, 62, 79
3, 258240, Note_off_c, 2, 55, 79
3, 258240, Note_off_c, 2, 50, 79
3, 258240, Note_off_c, 2, 46, 79
3, 258240, Note_off_c, 2, 43, 79
3, 258240, Note_on_c, 2, 67, 79
3, 258240, Note_on_c, 2, 62, 79
3, 258240, Note_on_c, 2, 55, 79
3, 258240, Note_on_c, 2, 50, 79
3, 258240, Note_on_c, 2, 46, 79
3, 258240, Note_on_c, 2, 43, 79
3, 258720, Note_off_c, 2, 67, 79
3, 258720, Note_off_c, 2, 62, 79
3, 258720, Note_off_c, 2, 55, 79
3, 258720, Note_off_c, 2, 50, 79
3, 258720, Note_off_c, 2, 46, 79
3, 258720, Note_off_c, 2, 43, 79
3, 258720, Note_on_c, 2, 67, 79
3, 258720, Note_on_c, 2, 62, 79
3, 258720, Note_on_c, 2, 55, 79
3, 258720, Note_on_c, 2, 50, 79
3, 258720, Note_on_c, 2, 46, 79
3, 258720, Note_on_c, 2, 43, 79
3, 258960, Note_off_c, 2, 67, 79
3, 258960, Note_off_c, 2, 62, 79
3, 258960, Note_off_c, 2, 55, 79
3, 258960, Note_off_c, 2, 50, 79
3, 258960, Note_off_c, 2, 46, 79
3, 258960, Note_off_c, 2, 43, 79
3, 258960, Note_on_c, 2, 67, 79
3, 258960, Note_on_c, 2, 62, 79
3, 258960, Note_on_c, 2, 55, 79
3, 258960, Note_on_c, 2, 50, 79
3, 258960, Note_on_c, 2, 46, 79
3, 258960, Note_on_c, 2, 43, 79
3, 259200, Note_off_c, 2, 67, 79
3, 259200, Note_off_c, 2, 62, 79
3, 259200, Note_off_c, 2, 55, 79
3, 259200, Note_off_c, 2, 50, 79
3, 259200, Note_off_c, 2, 46, 79
3, 259200, Note_off_c, 2, 43, 79
3, 259200, Note_on_c, 2, 67, 79
3, 259200, Note_on_c, 2, 62, 79
3, 259200, Note_on_c, 2, 55, 79
3, 259200, Note_on_c, 2, 50, 79
3, 259200, Note_on_c, 2, 46, 79
3, 259200, Note_on_c, 2, 43, 79
3, 259440, Note_off_c, 2, 67, 79
3, 259440, Note_off_c, 2, 62, 79
3, 259440, Note_off_c, 2, 55, 79
3, 259440, Note_off_c, 2, 50, 79
3, 259440, Note_off_c, 2, 46, 79
3, 259440, Note_off_c, 2, 43, 79
3, 259440, Note_on_c, 2, 67, 79
3, 259440, Note_on_c, 2, 62, 79
3, 259440, Note_on_c, 2, 55, 79
3, 259440, Note_on_c, 2, 50, 79
3, 259440, Note_on_c, 2, 46, 79
3, 259440, Note_on_c, 2, 43, 79
3, 259680, Note_off_c, 2, 67, 79
3, 259680, Note_off_c, 2, 62, 79
3, 259680, Note_off_c, 2, 55, 79
3, 259680, Note_off_c, 2, 50, 79
3, 259680, Note_off_c, 2, 46, 79
3, 259680, Note_off_c, 2, 43, 79
3, 259680, Note_on_c, 2, 67, 79
3, 259680, Note_on_c, 2, 62, 79
3, 259680, Note_on_c, 2, 55, 79
3, 259680, Note_on_c, 2, 50, 79
3, 259680, Note_on_c, 2, 46, 79
3, 259680, Note_on_c, 2, 43, 79
3, 259920, Note_off_c, 2, 67, 79
3, 259920, Note_off_c, 2, 62, 79
3, 259920, Note_off_c, 2, 55, 79
3, 259920, Note_off_c, 2, 50, 79
3, 259920, Note_off_c, 2, 46, 79
3, 259920, Note_off_c, 2, 43, 79
3, 259920, Note_on_c, 2, 67, 79
3, 259920, Note_on_c, 2, 62, 79
3, 259920, Note_on_c, 2, 55, 79
3, 259920, Note_on_c, 2, 50, 79
3, 259920, Note_on_c, 2, 46, 79
3, 259920, Note_on_c, 2, 43, 79
3, 260160, Note_off_c, 2, 67, 79
3, 260160, Note_off_c, 2, 62, 79
3, 260160, Note_off_c, 2, 55, 79
3, 260160, Note_off_c, 2, 50, 79
3, 260160, Note_off_c, 2, 46, 79
3, 260160, Note_off_c, 2, 43, 79
3, 260160, Note_on_c, 2, 67, 79
3, 260160, Note_on_c, 2, 62, 79
3, 260160, Note_on_c, 2, 55, 79
3, 260160, Note_on_c, 2, 50, 79
3, 260160, Note_on_c, 2, 46, 79
3, 260160, Note_on_c, 2, 43, 79
3, 260400, Note_off_c, 2, 67, 79
3, 260400, Note_off_c, 2, 62, 79
3, 260400, Note_off_c, 2, 55, 79
3, 260400, Note_off_c, 2, 50, 79
3, 260400, Note_off_c, 2, 46, 79
3, 260400, Note_off_c, 2, 43, 79
3, 260400, Note_on_c, 2, 67, 79
3, 260400, Note_on_c, 2, 62, 79
3, 260400, Note_on_c, 2, 55, 79
3, 260400, Note_on_c, 2, 50, 79
3, 260400, Note_on_c, 2, 46, 79
3, 260400, Note_on_c, 2, 43, 79
3, 260640, Note_off_c, 2, 67, 79
3, 260640, Note_off_c, 2, 62, 79
3, 260640, Note_off_c, 2, 55, 79
3, 260640, Note_off_c, 2, 50, 79
3, 260640, Note_off_c, 2, 46, 79
3, 260640, Note_off_c, 2, 43, 79
3, 260640, Note_on_c, 2, 67, 79
3, 260640, Note_on_c, 2, 62, 79
3, 260640, Note_on_c, 2, 55, 79
3, 260640, Note_on_c, 2, 50, 79
3, 260640, Note_on_c, 2, 46, 79
3, 260640, Note_on_c, 2, 43, 79
3, 260880, Note_off_c, 2, 67, 79
3, 260880, Note_off_c, 2, 62, 79
3, 260880, Note_off_c, 2, 55, 79
3, 260880, Note_off_c, 2, 50, 79
3, 260880, Note_off_c, 2, 46, 79
3, 260880, Note_off_c, 2, 43, 79
3, 260880, Note_on_c, 2, 67, 79
3, 260880, Note_on_c, 2, 62, 79
3, 260880, Note_on_c, 2, 55, 79
3, 260880, Note_on_c, 2, 50, 79
3, 260880, Note_on_c, 2, 46, 79
3, 260880, Note_on_c, 2, 43, 79
3, 261120, Note_off_c, 2, 67, 79
3, 261120, Note_off_c, 2, 62, 79
3, 261120, Note_off_c, 2, 55, 79
3, 261120, Note_off_c, 2, 50, 79
3, 261120, Note_off_c, 2, 46, 79
3, 261120, Note_off_c, 2, 43, 79
3, 261120, Note_on_c, 2, 67, 79
3, 261120, Note_on_c, 2, 62, 79
3, 261120, Note_on_c, 2, 55, 79
3, 261120, Note_on_c, 2, 50, 79
3, 261120, Note_on_c, 2, 46, 79
3, 261120, Note_on_c, 2, 43, 79
3, 261600, Note_off_c, 2, 67, 79
3, 261600, Note_off_c, 2, 62, 79
3, 261600, Note_off_c, 2, 55, 79
3, 261600, Note_off_c, 2, 50, 79
3, 261600, Note_off_c, 2, 46, 79
3, 261600, Note_off_c, 2, 43, 79
3, 261600, Note_on_c, 2, 67, 79
3, 261600, Note_on_c, 2, 62, 79
3, 261600, Note_on_c, 2, 55, 79
3, 261600, Note_on_c, 2, 50, 79
3, 261600, Note_on_c, 2, 46, 79
3, 261600, Note_on_c, 2, 43, 79
3, 261840, Note_off_c, 2, 67, 79
3, 261840, Note_off_c, 2, 62, 79
3, 261840, Note_off_c, 2, 55, 79
3, 261840, Note_off_c, 2, 50, 79
3, 261840, Note_off_c, 2, 46, 79
3, 261840, Note_off_c, 2, 43, 79
3, 261840, Note_on_c, 2, 67, 79
3, 261840, Note_on_c, 2, 62, 79
3, 261840, Note_on_c, 2, 55, 79
3, 261840, Note_on_c, 2, 50, 79
3, 261840, Note_on_c, 2, 46, 79
3, 261840, Note_on_c, 2, 43, 79
3, 262080, Note_off_c, 2, 67, 79
3, 262080, Note_off_c, 2, 62, 79
3, 262080, Note_off_c, 2, 55, 79
3, 262080, Note_off_c, 2, 50, 79
3, 262080, Note_off_c, 2, 46, 79
3, 262080, Note_off_c, 2, 43, 79
3, 262080, Note_on_c, 2, 67, 79
3, 262080, Note_on_c, 2, 62, 79
3, 262080, Note_on_c, 2, 55, 79
3, 262080, Note_on_c, 2, 50, 79
3, 262080, Note_on_c, 2, 46, 79
3, 262080, Note_on_c, 2, 43, 79
3, 262560, Note_off_c, 2, 67, 79
3, 262560, Note_off_c, 2, 62, 79
3, 262560, Note_off_c, 2, 55, 79
3, 262560, Note_off_c, 2, 50, 79
3, 262560, Note_off_c, 2, 46, 79
3, 262560, Note_off_c, 2, 43, 79
3, 262560, Note_on_c, 2, 67, 79
3, 262560, Note_on_c, 2, 62, 79
3, 262560, Note_on_c, 2, 55, 79
3, 262560, Note_on_c, 2, 50, 79
3, 262560, Note_on_c, 2, 46, 79
3, 262560, Note_on_c, 2, 43, 79
3, 262800, Note_off_c, 2, 67, 79
3, 262800, Note_off_c, 2, 62, 79
3, 262800, Note_off_c, 2, 55, 79
3, 262800, Note_off_c, 2, 50, 79
3, 262800, Note_off_c, 2, 46, 79
3, 262800, Note_off_c, 2, 43, 79
3, 262800, Note_on_c, 2, 67, 79
3, 262800, Note_on_c, 2, 62, 79
3, 262800, Note_on_c, 2, 55, 79
3, 262800, Note_on_c, 2, 50, 79
3, 262800, Note_on_c, 2, 46, 79
3, 262800, Note_on_c, 2, 43, 79
3, 263040, Note_off_c, 2, 67, 79
3, 263040, Note_off_c, 2, 62, 79
3, 263040, Note_off_c, 2, 55, 79
3, 263040, Note_off_c, 2, 50, 79
3, 263040, Note_off_c, 2, 46, 79
3, 263040, Note_off_c, 2, 43, 79
3, 263040, Note_on_c, 2, 67, 79
3, 263040, Note_on_c, 2, 62, 79
3, 263040, Note_on_c, 2, 55, 79
3, 263040, Note_on_c, 2, 50, 79
3, 263040, Note_on_c, 2, 46, 79
3, 263040, Note_on_c, 2, 43, 79
3, 263280, Note_off_c, 2, 67, 79
3, 263280, Note_off_c, 2, 62, 79
3, 263280, Note_off_c, 2, 55, 79
3, 263280, Note_off_c, 2, 50, 79
3, 263280, Note_off_c, 2, 46, 79
3, 263280, Note_off_c, 2, 43, 79
3, 263280, Note_on_c, 2, 67, 79
3, 263280, Note_on_c, 2, 62, 79
3, 263280, Note_on_c, 2, 55, 79
3, 263280, Note_on_c, 2, 50, 79
3, 263280, Note_on_c, 2, 46, 79
3, 263280, Note_on_c, 2, 43, 79
3, 263520, Note_off_c, 2, 67, 79
3, 263520, Note_off_c, 2, 62, 79
3, 263520, Note_off_c, 2, 55, 79
3, 263520, Note_off_c, 2, 50, 79
3, 263520, Note_off_c, 2, 46, 79
3, 263520, Note_off_c, 2, 43, 79
3, 263520, Note_on_c, 2, 67, 79
3, 263520, Note_on_c, 2, 62, 79
3, 263520, Note_on_c, 2, 55, 79
3, 263520, Note_on_c, 2, 50, 79
3, 263520, Note_on_c, 2, 46, 79
3, 263520, Note_on_c, 2, 43, 79
3, 263760, Note_off_c, 2, 67, 79
3, 263760, Note_off_c, 2, 62, 79
3, 263760, Note_off_c, 2, 55, 79
3, 263760, Note_off_c, 2, 50, 79
3, 263760, Note_off_c, 2, 46, 79
3, 263760, Note_off_c, 2, 43, 79
3, 263760, Note_on_c, 2, 67, 79
3, 263760, Note_on_c, 2, 62, 79
3, 263760, Note_on_c, 2, 55, 79
3, 263760, Note_on_c, 2, 50, 79
3, 263760, Note_on_c, 2, 46, 79
3, 263760, Note_on_c, 2, 43, 79
3, 264000, Note_off_c, 2, 67, 79
3, 264000, Note_off_c, 2, 62, 79
3, 264000, Note_off_c, 2, 55, 79
3, 264000, Note_off_c, 2, 50, 79
3, 264000, Note_off_c, 2, 46, 79
3, 264000, Note_off_c, 2, 43, 79
3, 264000, Note_on_c, 2, 67, 79
3, 264000, Note_on_c, 2, 62, 79
3, 264000, Note_on_c, 2, 55, 79
3, 264000, Note_on_c, 2, 50, 79
3, 264000, Note_on_c, 2, 46, 79
3, 264000, Note_on_c, 2, 43, 79
3, 264240, Note_off_c, 2, 67, 79
3, 264240, Note_off_c, 2, 62, 79
3, 264240, Note_off_c, 2, 55, 79
3, 264240, Note_off_c, 2, 50, 79
3, 264240, Note_off_c, 2, 46, 79
3, 264240, Note_off_c, 2, 43, 79
3, 264240, Note_on_c, 2, 67, 79
3, 264240, Note_on_c, 2, 62, 79
3, 264240, Note_on_c, 2, 55, 79
3, 264240, Note_on_c, 2, 50, 79
3, 264240, Note_on_c, 2, 46, 79
3, 264240, Note_on_c, 2, 43, 79
3, 264480, Note_off_c, 2, 67, 79
3, 264480, Note_off_c, 2, 62, 79
3, 264480, Note_off_c, 2, 55, 79
3, 264480, Note_off_c, 2, 50, 79
3, 264480, Note_off_c, 2, 46, 79
3, 264480, Note_off_c, 2, 43, 79
3, 264480, Note_on_c, 2, 67, 79
3, 264480, Note_on_c, 2, 62, 79
3, 264480, Note_on_c, 2, 55, 79
3, 264480, Note_on_c, 2, 50, 79
3, 264480, Note_on_c, 2, 46, 79
3, 264480, Note_on_c, 2, 43, 79
3, 264720, Note_off_c, 2, 67, 79
3, 264720, Note_off_c, 2, 62, 79
3, 264720, Note_off_c, 2, 55, 79
3, 264720, Note_off_c, 2, 50, 79
3, 264720, Note_off_c, 2, 46, 79
3, 264720, Note_off_c, 2, 43, 79
3, 264720, Note_on_c, 2, 67, 79
3, 264720, Note_on_c, 2, 62, 79
3, 264720, Note_on_c, 2, 55, 79
3, 264720, Note_on_c, 2, 50, 79
3, 264720, Note_on_c, 2, 46, 79
3, 264720, Note_on_c, 2, 43, 79
3, 264960, Note_off_c, 2, 67, 79
3, 264960, Note_off_c, 2, 62, 79
3, 264960, Note_off_c, 2, 55, 79
3, 264960, Note_off_c, 2, 50, 79
3, 264960, Note_off_c, 2, 46, 79
3, 264960, Note_off_c, 2, 43, 79
3, 264960, Note_on_c, 2, 65, 79
3, 264960, Note_on_c, 2, 62, 79
3, 264960, Note_on_c, 2, 58, 79
3, 264960, Note_on_c, 2, 50, 79
3, 264960, Note_on_c, 2, 46, 79
3, 265440, Note_off_c, 2, 65, 79
3, 265440, Note_off_c, 2, 62, 79
3, 265440, Note_off_c, 2, 58, 79
3, 265440, Note_off_c, 2, 50, 79
3, 265440, Note_off_c, 2, 46, 79
3, 265440, Note_on_c, 2, 65, 79
3, 265440, Note_on_c, 2, 62, 79
3, 265440, Note_on_c, 2, 58, 79
3, 265440, Note_on_c, 2, 50, 79
3, 265440, Note_on_c, 2, 46, 79
3, 265680, Note_off_c, 2, 65, 79
3, 265680, Note_off_c, 2, 62, 79
3, 265680, Note_off_c, 2, 58, 79
3, 265680, Note_off_c, 2, 50, 79
3, 265680, Note_off_c, 2, 46, 79
3, 265680, Note_on_c, 2, 65, 79
3, 265680, Note_on_c, 2, 62, 79
3, 265680, Note_on_c, 2, 58, 79
3, 265680, Note_on_c, 2, 50, 79
3, 265680, Note_on_c, 2, 46, 79
3, 265920, Note_off_c, 2, 65, 79
3, 265920, Note_off_c, 2, 62, 79
3, 265920, Note_off_c, 2, 58, 79
3, 265920, Note_off_c, 2, 50, 79
3, 265920, Note_off_c, 2, 46, 79
3, 265920, Note_on_c, 2, 65, 79
3, 265920, Note_on_c, 2, 62, 79
3, 265920, Note_on_c, 2, 58, 79
3, 265920, Note_on_c, 2, 50, 79
3, 265920, Note_on_c, 2, 46, 79
3, 266400, Note_off_c, 2, 65, 79
3, 266400, Note_off_c, 2, 62, 79
3, 266400, Note_off_c, 2, 58, 79
3, 266400, Note_off_c, 2, 50, 79
3, 266400, Note_off_c, 2, 46, 79
3, 266400, Note_on_c, 2, 65, 79
3, 266400, Note_on_c, 2, 62, 79
3, 266400, Note_on_c, 2, 58, 79
3, 266400, Note_on_c, 2, 50, 79
3, 266400, Note_on_c, 2, 46, 79
3, 266640, Note_off_c, 2, 65, 79
3, 266640, Note_off_c, 2, 62, 79
3, 266640, Note_off_c, 2, 58, 79
3, 266640, Note_off_c, 2, 50, 79
3, 266640, Note_off_c, 2, 46, 79
3, 266640, Note_on_c, 2, 65, 79
3, 266640, Note_on_c, 2, 62, 79
3, 266640, Note_on_c, 2, 58, 79
3, 266640, Note_on_c, 2, 50, 79
3, 266640, Note_on_c, 2, 46, 79
3, 266880, Note_off_c, 2, 65, 79
3, 266880, Note_off_c, 2, 62, 79
3, 266880, Note_off_c, 2, 58, 79
3, 266880, Note_off_c, 2, 50, 79
3, 266880, Note_off_c, 2, 46, 79
3, 266880, Note_on_c, 2, 65, 79
3, 266880, Note_on_c, 2, 62, 79
3, 266880, Note_on_c, 2, 58, 79
3, 266880, Note_on_c, 2, 50, 79
3, 266880, Note_on_c, 2, 46, 79
3, 267120, Note_off_c, 2, 65, 79
3, 267120, Note_off_c, 2, 62, 79
3, 267120, Note_off_c, 2, 58, 79
3, 267120, Note_off_c, 2, 50, 79
3, 267120, Note_off_c, 2, 46, 79
3, 267120, Note_on_c, 2, 65, 79
3, 267120, Note_on_c, 2, 62, 79
3, 267120, Note_on_c, 2, 58, 79
3, 267120, Note_on_c, 2, 50, 79
3, 267120, Note_on_c, 2, 46, 79
3, 267360, Note_off_c, 2, 65, 79
3, 267360, Note_off_c, 2, 62, 79
3, 267360, Note_off_c, 2, 58, 79
3, 267360, Note_off_c, 2, 50, 79
3, 267360, Note_off_c, 2, 46, 79
3, 267360, Note_on_c, 2, 65, 79
3, 267360, Note_on_c, 2, 62, 79
3, 267360, Note_on_c, 2, 58, 79
3, 267360, Note_on_c, 2, 50, 79
3, 267360, Note_on_c, 2, 46, 79
3, 267600, Note_off_c, 2, 65, 79
3, 267600, Note_off_c, 2, 62, 79
3, 267600, Note_off_c, 2, 58, 79
3, 267600, Note_off_c, 2, 50, 79
3, 267600, Note_off_c, 2, 46, 79
3, 267600, Note_on_c, 2, 65, 79
3, 267600, Note_on_c, 2, 62, 79
3, 267600, Note_on_c, 2, 58, 79
3, 267600, Note_on_c, 2, 50, 79
3, 267600, Note_on_c, 2, 46, 79
3, 267840, Note_off_c, 2, 65, 79
3, 267840, Note_off_c, 2, 62, 79
3, 267840, Note_off_c, 2, 58, 79
3, 267840, Note_off_c, 2, 50, 79
3, 267840, Note_off_c, 2, 46, 79
3, 267840, Note_on_c, 2, 65, 79
3, 267840, Note_on_c, 2, 62, 79
3, 267840, Note_on_c, 2, 58, 79
3, 267840, Note_on_c, 2, 50, 79
3, 267840, Note_on_c, 2, 46, 79
3, 268080, Note_off_c, 2, 65, 79
3, 268080, Note_off_c, 2, 62, 79
3, 268080, Note_off_c, 2, 58, 79
3, 268080, Note_off_c, 2, 50, 79
3, 268080, Note_off_c, 2, 46, 79
3, 268080, Note_on_c, 2, 65, 79
3, 268080, Note_on_c, 2, 62, 79
3, 268080, Note_on_c, 2, 58, 79
3, 268080, Note_on_c, 2, 50, 79
3, 268080, Note_on_c, 2, 46, 79
3, 268320, Note_off_c, 2, 65, 79
3, 268320, Note_off_c, 2, 62, 79
3, 268320, Note_off_c, 2, 58, 79
3, 268320, Note_off_c, 2, 50, 79
3, 268320, Note_off_c, 2, 46, 79
3, 268800, Note_on_c, 2, 67, 79
3, 268800, Note_on_c, 2, 62, 79
3, 268800, Note_on_c, 2, 55, 79
3, 268800, Note_on_c, 2, 50, 79
3, 268800, Note_on_c, 2, 46, 79
3, 268800, Note_on_c, 2, 43, 79
3, 269280, Note_off_c, 2, 67, 79
3, 269280, Note_off_c, 2, 62, 79
3, 269280, Note_off_c, 2, 55, 79
3, 269280, Note_off_c, 2, 50, 79
3, 269280, Note_off_c, 2, 46, 79
3, 269280, Note_off_c, 2, 43, 79
3, 269280, Note_on_c, 2, 67, 79
3, 269280, Note_on_c, 2, 62, 79
3, 269280, Note_on_c, 2, 55, 79
3, 269280, Note_on_c, 2, 50, 79
3, 269280, Note_on_c, 2, 46, 79
3, 269280, Note_on_c, 2, 43, 79
3, 269520, Note_off_c, 2, 67, 79
3, 269520, Note_off_c, 2, 62, 79
3, 269520, Note_off_c, 2, 55, 79
3, 269520, Note_off_c, 2, 50, 79
3, 269520, Note_off_c, 2, 46, 79
3, 269520, Note_off_c, 2, 43, 79
3, 269520, Note_on_c, 2, 67, 79
3, 269520, Note_on_c, 2, 62, 79
3, 269520, Note_on_c, 2, 55, 79
3, 269520, Note_on_c, 2, 50, 79
3, 269520, Note_on_c, 2, 46, 79
3, 269520, Note_on_c, 2, 43, 79
3, 269760, Note_off_c, 2, 67, 79
3, 269760, Note_off_c, 2, 62, 79
3, 269760, Note_off_c, 2, 55, 79
3, 269760, Note_off_c, 2, 50, 79
3, 269760, Note_off_c, 2, 46, 79
3, 269760, Note_off_c, 2, 43, 79
3, 269760, Note_on_c, 2, 67, 79
3, 269760, Note_on_c, 2, 62, 79
3, 269760, Note_on_c, 2, 55, 79
3, 269760, Note_on_c, 2, 50, 79
3, 269760, Note_on_c, 2, 46, 79
3, 269760, Note_on_c, 2, 43, 79
3, 270240, Note_off_c, 2, 67, 79
3, 270240, Note_off_c, 2, 62, 79
3, 270240, Note_off_c, 2, 55, 79
3, 270240, Note_off_c, 2, 50, 79
3, 270240, Note_off_c, 2, 46, 79
3, 270240, Note_off_c, 2, 43, 79
3, 270240, Note_on_c, 2, 67, 79
3, 270240, Note_on_c, 2, 62, 79
3, 270240, Note_on_c, 2, 55, 79
3, 270240, Note_on_c, 2, 50, 79
3, 270240, Note_on_c, 2, 46, 79
3, 270240, Note_on_c, 2, 43, 79
3, 270480, Note_off_c, 2, 67, 79
3, 270480, Note_off_c, 2, 62, 79
3, 270480, Note_off_c, 2, 55, 79
3, 270480, Note_off_c, 2, 50, 79
3, 270480, Note_off_c, 2, 46, 79
3, 270480, Note_off_c, 2, 43, 79
3, 270480, Note_on_c, 2, 67, 79
3, 270480, Note_on_c, 2, 62, 79
3, 270480, Note_on_c, 2, 55, 79
3, 270480, Note_on_c, 2, 50, 79
3, 270480, Note_on_c, 2, 46, 79
3, 270480, Note_on_c, 2, 43, 79
3, 270720, Note_off_c, 2, 67, 79
3, 270720, Note_off_c, 2, 62, 79
3, 270720, Note_off_c, 2, 55, 79
3, 270720, Note_off_c, 2, 50, 79
3, 270720, Note_off_c, 2, 46, 79
3, 270720, Note_off_c, 2, 43, 79
3, 270720, Note_on_c, 2, 67, 79
3, 270720, Note_on_c, 2, 62, 79
3, 270720, Note_on_c, 2, 55, 79
3, 270720, Note_on_c, 2, 50, 79
3, 270720, Note_on_c, 2, 46, 79
3, 270720, Note_on_c, 2, 43, 79
3, 270960, Note_off_c, 2, 67, 79
3, 270960, Note_off_c, 2, 62, 79
3, 270960, Note_off_c, 2, 55, 79
3, 270960, Note_off_c, 2, 50, 79
3, 270960, Note_off_c, 2, 46, 79
3, 270960, Note_off_c, 2, 43, 79
3, 270960, Note_on_c, 2, 67, 79
3, 270960, Note_on_c, 2, 62, 79
3, 270960, Note_on_c, 2, 55, 79
3, 270960, Note_on_c, 2, 50, 79
3, 270960, Note_on_c, 2, 46, 79
3, 270960, Note_on_c, 2, 43, 79
3, 271200, Note_off_c, 2, 67, 79
3, 271200, Note_off_c, 2, 62, 79
3, 271200, Note_off_c, 2, 55, 79
3, 271200, Note_off_c, 2, 50, 79
3, 271200, Note_off_c, 2, 46, 79
3, 271200, Note_off_c, 2, 43, 79
3, 271200, Note_on_c, 2, 67, 79
3, 271200, Note_on_c, 2, 62, 79
3, 271200, Note_on_c, 2, 55, 79
3, 271200, Note_on_c, 2, 50, 79
3, 271200, Note_on_c, 2, 46, 79
3, 271200, Note_on_c, 2, 43, 79
3, 271440, Note_off_c, 2, 67, 79
3, 271440, Note_off_c, 2, 62, 79
3, 271440, Note_off_c, 2, 55, 79
3, 271440, Note_off_c, 2, 50, 79
3, 271440, Note_off_c, 2, 46, 79
3, 271440, Note_off_c, 2, 43, 79
3, 271440, Note_on_c, 2, 67, 79
3, 271440, Note_on_c, 2, 62, 79
3, 271440, Note_on_c, 2, 55, 79
3, 271440, Note_on_c, 2, 50, 79
3, 271440, Note_on_c, 2, 46, 79
3, 271440, Note_on_c, 2, 43, 79
3, 271680, Note_off_c, 2, 67, 79
3, 271680, Note_off_c, 2, 62, 79
3, 271680, Note_off_c, 2, 55, 79
3, 271680, Note_off_c, 2, 50, 79
3, 271680, Note_off_c, 2, 46, 79
3, 271680, Note_off_c, 2, 43, 79
3, 271680, Note_on_c, 2, 67, 79
3, 271680, Note_on_c, 2, 62, 79
3, 271680, Note_on_c, 2, 55, 79
3, 271680, Note_on_c, 2, 50, 79
3, 271680, Note_on_c, 2, 46, 79
3, 271680, Note_on_c, 2, 43, 79
3, 271920, Note_off_c, 2, 67, 79
3, 271920, Note_off_c, 2, 62, 79
3, 271920, Note_off_c, 2, 55, 79
3, 271920, Note_off_c, 2, 50, 79
3, 271920, Note_off_c, 2, 46, 79
3, 271920, Note_off_c, 2, 43, 79
3, 271920, Note_on_c, 2, 67, 79
3, 271920, Note_on_c, 2, 62, 79
3, 271920, Note_on_c, 2, 55, 79
3, 271920, Note_on_c, 2, 50, 79
3, 271920, Note_on_c, 2, 46, 79
3, 271920, Note_on_c, 2, 43, 79
3, 272160, Note_off_c, 2, 67, 79
3, 272160, Note_off_c, 2, 62, 79
3, 272160, Note_off_c, 2, 55, 79
3, 272160, Note_off_c, 2, 50, 79
3, 272160, Note_off_c, 2, 46, 79
3, 272160, Note_off_c, 2, 43, 79
3, 272160, Note_on_c, 2, 67, 79
3, 272160, Note_on_c, 2, 62, 79
3, 272160, Note_on_c, 2, 55, 79
3, 272160, Note_on_c, 2, 50, 79
3, 272160, Note_on_c, 2, 46, 79
3, 272160, Note_on_c, 2, 43, 79
3, 272400, Note_off_c, 2, 67, 79
3, 272400, Note_off_c, 2, 62, 79
3, 272400, Note_off_c, 2, 55, 79
3, 272400, Note_off_c, 2, 50, 79
3, 272400, Note_off_c, 2, 46, 79
3, 272400, Note_off_c, 2, 43, 79
3, 272400, Note_on_c, 2, 67, 79
3, 272400, Note_on_c, 2, 62, 79
3, 272400, Note_on_c, 2, 55, 79
3, 272400, Note_on_c, 2, 50, 79
3, 272400, Note_on_c, 2, 46, 79
3, 272400, Note_on_c, 2, 43, 79
3, 272640, Note_off_c, 2, 67, 79
3, 272640, Note_off_c, 2, 62, 79
3, 272640, Note_off_c, 2, 55, 79
3, 272640, Note_off_c, 2, 50, 79
3, 272640, Note_off_c, 2, 46, 79
3, 272640, Note_off_c, 2, 43, 79
3, 272640, Note_on_c, 2, 67, 79
3, 272640, Note_on_c, 2, 62, 79
3, 272640, Note_on_c, 2, 55, 79
3, 272640, Note_on_c, 2, 50, 79
3, 272640, Note_on_c, 2, 46, 79
3, 272640, Note_on_c, 2, 43, 79
3, 273120, Note_off_c, 2, 67, 79
3, 273120, Note_off_c, 2, 62, 79
3, 273120, Note_off_c, 2, 55, 79
3, 273120, Note_off_c, 2, 50, 79
3, 273120, Note_off_c, 2, 46, 79
3, 273120, Note_off_c, 2, 43, 79
3, 273120, Note_on_c, 2, 67, 79
3, 273120, Note_on_c, 2, 62, 79
3, 273120, Note_on_c, 2, 55, 79
3, 273120, Note_on_c, 2, 50, 79
3, 273120, Note_on_c, 2, 46, 79
3, 273120, Note_on_c, 2, 43, 79
3, 273360, Note_off_c, 2, 67, 79
3, 273360, Note_off_c, 2, 62, 79
3, 273360, Note_off_c, 2, 55, 79
3, 273360, Note_off_c, 2, 50, 79
3, 273360, Note_off_c, 2, 46, 79
3, 273360, Note_off_c, 2, 43, 79
3, 273360, Note_on_c, 2, 67, 79
3, 273360, Note_on_c, 2, 62, 79
3, 273360, Note_on_c, 2, 55, 79
3, 273360, Note_on_c, 2, 50, 79
3, 273360, Note_on_c, 2, 46, 79
3, 273360, Note_on_c, 2, 43, 79
3, 273600, Note_off_c, 2, 67, 79
3, 273600, Note_off_c, 2, 62, 79
3, 273600, Note_off_c, 2, 55, 79
3, 273600, Note_off_c, 2, 50, 79
3, 273600, Note_off_c, 2, 46, 79
3, 273600, Note_off_c, 2, 43, 79
3, 273600, Note_on_c, 2, 67, 79
3, 273600, Note_on_c, 2, 62, 79
3, 273600, Note_on_c, 2, 55, 79
3, 273600, Note_on_c, 2, 50, 79
3, 273600, Note_on_c, 2, 46, 79
3, 273600, Note_on_c, 2, 43, 79
3, 274080, Note_off_c, 2, 67, 79
3, 274080, Note_off_c, 2, 62, 79
3, 274080, Note_off_c, 2, 55, 79
3, 274080, Note_off_c, 2, 50, 79
3, 274080, Note_off_c, 2, 46, 79
3, 274080, Note_off_c, 2, 43, 79
3, 274080, Note_on_c, 2, 67, 79
3, 274080, Note_on_c, 2, 62, 79
3, 274080, Note_on_c, 2, 55, 79
3, 274080, Note_on_c, 2, 50, 79
3, 274080, Note_on_c, 2, 46, 79
3, 274080, Note_on_c, 2, 43, 79
3, 274320, Note_off_c, 2, 67, 79
3, 274320, Note_off_c, 2, 62, 79
3, 274320, Note_off_c, 2, 55, 79
3, 274320, Note_off_c, 2, 50, 79
3, 274320, Note_off_c, 2, 46, 79
3, 274320, Note_off_c, 2, 43, 79
3, 274320, Note_on_c, 2, 67, 79
3, 274320, Note_on_c, 2, 62, 79
3, 274320, Note_on_c, 2, 55, 79
3, 274320, Note_on_c, 2, 50, 79
3, 274320, Note_on_c, 2, 46, 79
3, 274320, Note_on_c, 2, 43, 79
3, 274560, Note_off_c, 2, 67, 79
3, 274560, Note_off_c, 2, 62, 79
3, 274560, Note_off_c, 2, 55, 79
3, 274560, Note_off_c, 2, 50, 79
3, 274560, Note_off_c, 2, 46, 79
3, 274560, Note_off_c, 2, 43, 79
3, 274560, Note_on_c, 2, 67, 79
3, 274560, Note_on_c, 2, 62, 79
3, 274560, Note_on_c, 2, 55, 79
3, 274560, Note_on_c, 2, 50, 79
3, 274560, Note_on_c, 2, 46, 79
3, 274560, Note_on_c, 2, 43, 79
3, 274800, Note_off_c, 2, 67, 79
3, 274800, Note_off_c, 2, 62, 79
3, 274800, Note_off_c, 2, 55, 79
3, 274800, Note_off_c, 2, 50, 79
3, 274800, Note_off_c, 2, 46, 79
3, 274800, Note_off_c, 2, 43, 79
3, 274800, Note_on_c, 2, 67, 79
3, 274800, Note_on_c, 2, 62, 79
3, 274800, Note_on_c, 2, 55, 79
3, 274800, Note_on_c, 2, 50, 79
3, 274800, Note_on_c, 2, 46, 79
3, 274800, Note_on_c, 2, 43, 79
3, 275040, Note_off_c, 2, 67, 79
3, 275040, Note_off_c, 2, 62, 79
3, 275040, Note_off_c, 2, 55, 79
3, 275040, Note_off_c, 2, 50, 79
3, 275040, Note_off_c, 2, 46, 79
3, 275040, Note_off_c, 2, 43, 79
3, 275040, Note_on_c, 2, 67, 79
3, 275040, Note_on_c, 2, 62, 79
3, 275040, Note_on_c, 2, 55, 79
3, 275040, Note_on_c, 2, 50, 79
3, 275040, Note_on_c, 2, 46, 79
3, 275040, Note_on_c, 2, 43, 79
3, 275280, Note_off_c, 2, 67, 79
3, 275280, Note_off_c, 2, 62, 79
3, 275280, Note_off_c, 2, 55, 79
3, 275280, Note_off_c, 2, 50, 79
3, 275280, Note_off_c, 2, 46, 79
3, 275280, Note_off_c, 2, 43, 79
3, 275280, Note_on_c, 2, 67, 79
3, 275280, Note_on_c, 2, 62, 79
3, 275280, Note_on_c, 2, 55, 79
3, 275280, Note_on_c, 2, 50, 79
3, 275280, Note_on_c, 2, 46, 79
3, 275280, Note_on_c, 2, 43, 79
3, 275520, Note_off_c, 2, 67, 79
3, 275520, Note_off_c, 2, 62, 79
3, 275520, Note_off_c, 2, 55, 79
3, 275520, Note_off_c, 2, 50, 79
3, 275520, Note_off_c, 2, 46, 79
3, 275520, Note_off_c, 2, 43, 79
3, 275520, Note_on_c, 2, 67, 79
3, 275520, Note_on_c, 2, 62, 79
3, 275520, Note_on_c, 2, 55, 79
3, 275520, Note_on_c, 2, 50, 79
3, 275520, Note_on_c, 2, 46, 79
3, 275520, Note_on_c, 2, 43, 79
3, 275760, Note_off_c, 2, 67, 79
3, 275760, Note_off_c, 2, 62, 79
3, 275760, Note_off_c, 2, 55, 79
3, 275760, Note_off_c, 2, 50, 79
3, 275760, Note_off_c, 2, 46, 79
3, 275760, Note_off_c, 2, 43, 79
3, 275760, Note_on_c, 2, 67, 79
3, 275760, Note_on_c, 2, 62, 79
3, 275760, Note_on_c, 2, 55, 79
3, 275760, Note_on_c, 2, 50, 79
3, 275760, Note_on_c, 2, 46, 79
3, 275760, Note_on_c, 2, 43, 79
3, 276000, Note_off_c, 2, 67, 79
3, 276000, Note_off_c, 2, 62, 79
3, 276000, Note_off_c, 2, 55, 79
3, 276000, Note_off_c, 2, 50, 79
3, 276000, Note_off_c, 2, 46, 79
3, 276000, Note_off_c, 2, 43, 79
3, 276000, Note_on_c, 2, 67, 79
3, 276000, Note_on_c, 2, 62, 79
3, 276000, Note_on_c, 2, 55, 79
3, 276000, Note_on_c, 2, 50, 79
3, 276000, Note_on_c, 2, 46, 79
3, 276000, Note_on_c, 2, 43, 79
3, 276240, Note_off_c, 2, 67, 79
3, 276240, Note_off_c, 2, 62, 79
3, 276240, Note_off_c, 2, 55, 79
3, 276240, Note_off_c, 2, 50, 79
3, 276240, Note_off_c, 2, 46, 79
3, 276240, Note_off_c, 2, 43, 79
3, 276240, Note_on_c, 2, 67, 79
3, 276240, Note_on_c, 2, 62, 79
3, 276240, Note_on_c, 2, 55, 79
3, 276240, Note_on_c, 2, 50, 79
3, 276240, Note_on_c, 2, 46, 79
3, 276240, Note_on_c, 2, 43, 79
3, 276480, Note_off_c, 2, 67, 79
3, 276480, Note_off_c, 2, 62, 79
3, 276480, Note_off_c, 2, 55, 79
3, 276480, Note_off_c, 2, 50, 79
3, 276480, Note_off_c, 2, 46, 79
3, 276480, Note_off_c, 2, 43, 79
3, 276480, Note_on_c, 2, 65, 79
3, 276480, Note_on_c, 2, 62, 79
3, 276480, Note_on_c, 2, 58, 79
3, 276480, Note_on_c, 2, 50, 79
3, 276480, Note_on_c, 2, 46, 79
3, 276960, Note_off_c, 2, 65, 79
3, 276960, Note_off_c, 2, 62, 79
3, 276960, Note_off_c, 2, 58, 79
3, 276960, Note_off_c, 2, 50, 79
3, 276960, Note_off_c, 2, 46, 79
3, 276960, Note_on_c, 2, 65, 79
3, 276960, Note_on_c, 2, 62, 79
3, 276960, Note_on_c, 2, 58, 79
3, 276960, Note_on_c, 2, 50, 79
3, 276960, Note_on_c, 2, 46, 79
3, 277200, Note_off_c, 2, 65, 79
3, 277200, Note_off_c, 2, 62, 79
3, 277200, Note_off_c, 2, 58, 79
3, 277200, Note_off_c, 2, 50, 79
3, 277200, Note_off_c, 2, 46, 79
3, 277200, Note_on_c, 2, 65, 79
3, 277200, Note_on_c, 2, 62, 79
3, 277200, Note_on_c, 2, 58, 79
3, 277200, Note_on_c, 2, 50, 79
3, 277200, Note_on_c, 2, 46, 79
3, 277440, Note_off_c, 2, 65, 79
3, 277440, Note_off_c, 2, 62, 79
3, 277440, Note_off_c, 2, 58, 79
3, 277440, Note_off_c, 2, 50, 79
3, 277440, Note_off_c, 2, 46, 79
3, 277440, Note_on_c, 2, 65, 79
3, 277440, Note_on_c, 2, 62, 79
3, 277440, Note_on_c, 2, 58, 79
3, 277440, Note_on_c, 2, 50, 79
3, 277440, Note_on_c, 2, 46, 79
3, 277920, Note_off_c, 2, 65, 79
3, 277920, Note_off_c, 2, 62, 79
3, 277920, Note_off_c, 2, 58, 79
3, 277920, Note_off_c, 2, 50, 79
3, 277920, Note_off_c, 2, 46, 79
3, 277920, Note_on_c, 2, 65, 79
3, 277920, Note_on_c, 2, 62, 79
3, 277920, Note_on_c, 2, 58, 79
3, 277920, Note_on_c, 2, 50, 79
3, 277920, Note_on_c, 2, 46, 79
3, 278640, Note_off_c, 2, 65, 79
3, 278640, Note_off_c, 2, 62, 79
3, 278640, Note_off_c, 2, 58, 79
3, 278640, Note_off_c, 2, 50, 79
3, 278640, Note_off_c, 2, 46, 79
3, 278640, Note_on_c, 2, 65, 79
3, 278640, Note_on_c, 2, 62, 79
3, 278640, Note_on_c, 2, 58, 79
3, 278640, Note_on_c, 2, 50, 79
3, 278640, Note_on_c, 2, 46, 79
3, 278880, Note_off_c, 2, 65, 79
3, 278880, Note_off_c, 2, 62, 79
3, 278880, Note_off_c, 2, 58, 79
3, 278880, Note_off_c, 2, 50, 79
3, 278880, Note_off_c, 2, 46, 79
3, 278880, Note_on_c, 2, 65, 79
3, 278880, Note_on_c, 2, 62, 79
3, 278880, Note_on_c, 2, 58, 79
3, 278880, Note_on_c, 2, 50, 79
3, 278880, Note_on_c, 2, 46, 79
3, 279360, Note_off_c, 2, 65, 79
3, 279360, Note_off_c, 2, 62, 79
3, 279360, Note_off_c, 2, 58, 79
3, 279360, Note_off_c, 2, 50, 79
3, 279360, Note_off_c, 2, 46, 79
3, 279360, Note_on_c, 2, 65, 79
3, 279360, Note_on_c, 2, 62, 79
3, 279360, Note_on_c, 2, 58, 79
3, 279360, Note_on_c, 2, 50, 79
3, 279360, Note_on_c, 2, 46, 79
3, 279840, Note_off_c, 2, 65, 79
3, 279840, Note_off_c, 2, 62, 79
3, 279840, Note_off_c, 2, 58, 79
3, 279840, Note_off_c, 2, 50, 79
3, 279840, Note_off_c, 2, 46, 79
3, 279840, Note_on_c, 2, 65, 79
3, 279840, Note_on_c, 2, 62, 79
3, 279840, Note_on_c, 2, 58, 79
3, 279840, Note_on_c, 2, 50, 79
3, 279840, Note_on_c, 2, 46, 79
3, 280320, Note_off_c, 2, 65, 79
3, 280320, Note_off_c, 2, 62, 79
3, 280320, Note_off_c, 2, 58, 79
3, 280320, Note_off_c, 2, 50, 79
3, 280320, Note_off_c, 2, 46, 79
3, 280320, Note_on_c, 2, 67, 79
3, 280320, Note_on_c, 2, 62, 79
3, 280320, Note_on_c, 2, 55, 79
3, 280320, Note_on_c, 2, 50, 79
3, 280320, Note_on_c, 2, 46, 79
3, 280320, Note_on_c, 2, 43, 79
3, 281040, Note_off_c, 2, 67, 79
3, 281040, Note_off_c, 2, 62, 79
3, 281040, Note_off_c, 2, 55, 79
3, 281040, Note_off_c, 2, 50, 79
3, 281040, Note_off_c, 2, 46, 79
3, 281040, Note_off_c, 2, 43, 79
3, 281040, Note_on_c, 2, 67, 79
3, 281040, Note_on_c, 2, 62, 79
3, 281040, Note_on_c, 2, 55, 79
3, 281040, Note_on_c, 2, 50, 79
3, 281040, Note_on_c, 2, 46, 79
3, 281040, Note_on_c, 2, 43, 79
3, 281280, Note_off_c, 2, 67, 79
3, 281280, Note_off_c, 2, 62, 79
3, 281280, Note_off_c, 2, 55, 79
3, 281280, Note_off_c, 2, 50, 79
3, 281280, Note_off_c, 2, 46, 79
3, 281280, Note_off_c, 2, 43, 79
3, 281280, Note_on_c, 2, 67, 79
3, 281280, Note_on_c, 2, 62, 79
3, 281280, Note_on_c, 2, 55, 79
3, 281280, Note_on_c, 2, 50, 79
3, 281280, Note_on_c, 2, 46, 79
3, 281280, Note_on_c, 2, 43, 79
3, 281760, Note_off_c, 2, 67, 79
3, 281760, Note_off_c, 2, 62, 79
3, 281760, Note_off_c, 2, 55, 79
3, 281760, Note_off_c, 2, 50, 79
3, 281760, Note_off_c, 2, 46, 79
3, 281760, Note_off_c, 2, 43, 79
3, 281760, Note_on_c, 2, 67, 79
3, 281760, Note_on_c, 2, 62, 79
3, 281760, Note_on_c, 2, 55, 79
3, 281760, Note_on_c, 2, 50, 79
3, 281760, Note_on_c, 2, 46, 79
3, 281760, Note_on_c, 2, 43, 79
3, 282240, Note_off_c, 2, 67, 79
3, 282240, Note_off_c, 2, 62, 79
3, 282240, Note_off_c, 2, 55, 79
3, 282240, Note_off_c, 2, 50, 79
3, 282240, Note_off_c, 2, 46, 79
3, 282240, Note_off_c, 2, 43, 79
3, 282240, Note_on_c, 2, 67, 79
3, 282240, Note_on_c, 2, 62, 79
3, 282240, Note_on_c, 2, 55, 79
3, 282240, Note_on_c, 2, 50, 79
3, 282240, Note_on_c, 2, 46, 79
3, 282240, Note_on_c, 2, 43, 79
3, 282480, Note_off_c, 2, 67, 79
3, 282480, Note_off_c, 2, 62, 79
3, 282480, Note_off_c, 2, 55, 79
3, 282480, Note_off_c, 2, 50, 79
3, 282480, Note_off_c, 2, 46, 79
3, 282480, Note_off_c, 2, 43, 79
3, 282480, Note_on_c, 2, 67, 79
3, 282480, Note_on_c, 2, 62, 79
3, 282480, Note_on_c, 2, 55, 79
3, 282480, Note_on_c, 2, 50, 79
3, 282480, Note_on_c, 2, 46, 79
3, 282480, Note_on_c, 2, 43, 79
3, 282720, Note_off_c, 2, 67, 79
3, 282720, Note_off_c, 2, 62, 79
3, 282720, Note_off_c, 2, 55, 79
3, 282720, Note_off_c, 2, 50, 79
3, 282720, Note_off_c, 2, 46, 79
3, 282720, Note_off_c, 2, 43, 79
3, 282720, Note_on_c, 2, 67, 79
3, 282720, Note_on_c, 2, 62, 79
3, 282720, Note_on_c, 2, 55, 79
3, 282720, Note_on_c, 2, 50, 79
3, 282720, Note_on_c, 2, 46, 79
3, 282720, Note_on_c, 2, 43, 79
3, 283200, Note_off_c, 2, 67, 79
3, 283200, Note_off_c, 2, 62, 79
3, 283200, Note_off_c, 2, 55, 79
3, 283200, Note_off_c, 2, 50, 79
3, 283200, Note_off_c, 2, 46, 79
3, 283200, Note_off_c, 2, 43, 79
3, 283200, Note_on_c, 2, 67, 79
3, 283200, Note_on_c, 2, 62, 79
3, 283200, Note_on_c, 2, 55, 79
3, 283200, Note_on_c, 2, 50, 79
3, 283200, Note_on_c, 2, 46, 79
3, 283200, Note_on_c, 2, 43, 79
3, 283680, Note_off_c, 2, 67, 79
3, 283680, Note_off_c, 2, 62, 79
3, 283680, Note_off_c, 2, 55, 79
3, 283680, Note_off_c, 2, 50, 79
3, 283680, Note_off_c, 2, 46, 79
3, 283680, Note_off_c, 2, 43, 79
3, 283680, Note_on_c, 2, 67, 79
3, 283680, Note_on_c, 2, 62, 79
3, 283680, Note_on_c, 2, 55, 79
3, 283680, Note_on_c, 2, 50, 79
3, 283680, Note_on_c, 2, 46, 79
3, 283680, Note_on_c, 2, 43, 79
3, 284160, Note_off_c, 2, 67, 79
3, 284160, Note_off_c, 2, 62, 79
3, 284160, Note_off_c, 2, 55, 79
3, 284160, Note_off_c, 2, 50, 79
3, 284160, Note_off_c, 2, 46, 79
3, 284160, Note_off_c, 2, 43, 79
3, 284160, Note_on_c, 2, 65, 79
3, 284160, Note_on_c, 2, 62, 79
3, 284160, Note_on_c, 2, 58, 79
3, 284160, Note_on_c, 2, 50, 79
3, 284160, Note_on_c, 2, 46, 79
3, 284880, Note_off_c, 2, 65, 79
3, 284880, Note_off_c, 2, 62, 79
3, 284880, Note_off_c, 2, 58, 79
3, 284880, Note_off_c, 2, 50, 79
3, 284880, Note_off_c, 2, 46, 79
3, 284880, Note_on_c, 2, 65, 79
3, 284880, Note_on_c, 2, 62, 79
3, 284880, Note_on_c, 2, 58, 79
3, 284880, Note_on_c, 2, 50, 79
3, 284880, Note_on_c, 2, 46, 79
3, 285120, Note_off_c, 2, 65, 79
3, 285120, Note_off_c, 2, 62, 79
3, 285120, Note_off_c, 2, 58, 79
3, 285120, Note_off_c, 2, 50, 79
3, 285120, Note_off_c, 2, 46, 79
3, 285120, Note_on_c, 2, 65, 79
3, 285120, Note_on_c, 2, 62, 79
3, 285120, Note_on_c, 2, 58, 79
3, 285120, Note_on_c, 2, 50, 79
3, 285120, Note_on_c, 2, 46, 79
3, 285600, Note_off_c, 2, 65, 79
3, 285600, Note_off_c, 2, 62, 79
3, 285600, Note_off_c, 2, 58, 79
3, 285600, Note_off_c, 2, 50, 79
3, 285600, Note_off_c, 2, 46, 79
3, 285600, Note_on_c, 2, 65, 79
3, 285600, Note_on_c, 2, 62, 79
3, 285600, Note_on_c, 2, 58, 79
3, 285600, Note_on_c, 2, 50, 79
3, 285600, Note_on_c, 2, 46, 79
3, 286320, Note_off_c, 2, 65, 79
3, 286320, Note_off_c, 2, 62, 79
3, 286320, Note_off_c, 2, 58, 79
3, 286320, Note_off_c, 2, 50, 79
3, 286320, Note_off_c, 2, 46, 79
3, 286320, Note_on_c, 2, 65, 79
3, 286320, Note_on_c, 2, 62, 79
3, 286320, Note_on_c, 2, 58, 79
3, 286320, Note_on_c, 2, 50, 79
3, 286320, Note_on_c, 2, 46, 79
3, 286560, Note_off_c, 2, 65, 79
3, 286560, Note_off_c, 2, 62, 79
3, 286560, Note_off_c, 2, 58, 79
3, 286560, Note_off_c, 2, 50, 79
3, 286560, Note_off_c, 2, 46, 79
3, 286560, Note_on_c, 2, 65, 79
3, 286560, Note_on_c, 2, 62, 79
3, 286560, Note_on_c, 2, 58, 79
3, 286560, Note_on_c, 2, 50, 79
3, 286560, Note_on_c, 2, 46, 79
3, 287040, Note_off_c, 2, 65, 79
3, 287040, Note_off_c, 2, 62, 79
3, 287040, Note_off_c, 2, 58, 79
3, 287040, Note_off_c, 2, 50, 79
3, 287040, Note_off_c, 2, 46, 79
3, 287040, Note_on_c, 2, 65, 79
3, 287040, Note_on_c, 2, 62, 79
3, 287040, Note_on_c, 2, 58, 79
3, 287040, Note_on_c, 2, 50, 79
3, 287040, Note_on_c, 2, 46, 79
3, 287520, Note_off_c, 2, 65, 79
3, 287520, Note_off_c, 2, 62, 79
3, 287520, Note_off_c, 2, 58, 79
3, 287520, Note_off_c, 2, 50, 79
3, 287520, Note_off_c, 2, 46, 79
3, 287520, Note_on_c, 2, 65, 79
3, 287520, Note_on_c, 2, 62, 79
3, 287520, Note_on_c, 2, 58, 79
3, 287520, Note_on_c, 2, 50, 79
3, 287520, Note_on_c, 2, 46, 79
3, 288000, Note_off_c, 2, 65, 79
3, 288000, Note_off_c, 2, 62, 79
3, 288000, Note_off_c, 2, 58, 79
3, 288000, Note_off_c, 2, 50, 79
3, 288000, Note_off_c, 2, 46, 79
3, 288000, Note_on_c, 2, 67, 79
3, 288000, Note_on_c, 2, 62, 79
3, 288000, Note_on_c, 2, 55, 79
3, 288000, Note_on_c, 2, 50, 79
3, 288000, Note_on_c, 2, 46, 79
3, 288000, Note_on_c, 2, 43, 79
3, 288720, Note_off_c, 2, 67, 79
3, 288720, Note_off_c, 2, 62, 79
3, 288720, Note_off_c, 2, 55, 79
3, 288720, Note_off_c, 2, 50, 79
3, 288720, Note_off_c, 2, 46, 79
3, 288720, Note_off_c, 2, 43, 79
3, 288720, Note_on_c, 2, 67, 79
3, 288720, Note_on_c, 2, 62, 79
3, 288720, Note_on_c, 2, 55, 79
3, 288720, Note_on_c, 2, 50, 79
3, 288720, Note_on_c, 2, 46, 79
3, 288720, Note_on_c, 2, 43, 79
3, 288960, Note_off_c, 2, 67, 79
3, 288960, Note_off_c, 2, 62, 79
3, 288960, Note_off_c, 2, 55, 79
3, 288960, Note_off_c, 2, 50, 79
3, 288960, Note_off_c, 2, 46, 79
3, 288960, Note_off_c, 2, 43, 79
3, 288960, Note_on_c, 2, 67, 79
3, 288960, Note_on_c, 2, 62, 79
3, 288960, Note_on_c, 2, 55, 79
3, 288960, Note_on_c, 2, 50, 79
3, 288960, Note_on_c, 2, 46, 79
3, 288960, Note_on_c, 2, 43, 79
3, 289440, Note_off_c, 2, 67, 79
3, 289440, Note_off_c, 2, 62, 79
3, 289440, Note_off_c, 2, 55, 79
3, 289440, Note_off_c, 2, 50, 79
3, 289440, Note_off_c, 2, 46, 79
3, 289440, Note_off_c, 2, 43, 79
3, 289440, Note_on_c, 2, 67, 79
3, 289440, Note_on_c, 2, 62, 79
3, 289440, Note_on_c, 2, 55, 79
3, 289440, Note_on_c, 2, 50, 79
3, 289440, Note_on_c, 2, 46, 79
3, 289440, Note_on_c, 2, 43, 79
3, 289920, Note_off_c, 2, 67, 79
3, 289920, Note_off_c, 2, 62, 79
3, 289920, Note_off_c, 2, 55, 79
3, 289920, Note_off_c, 2, 50, 79
3, 289920, Note_off_c, 2, 46, 79
3, 289920, Note_off_c, 2, 43, 79
3, 289920, Note_on_c, 2, 67, 79
3, 289920, Note_on_c, 2, 62, 79
3, 289920, Note_on_c, 2, 55, 79
3, 289920, Note_on_c, 2, 50, 79
3, 289920, Note_on_c, 2, 46, 79
3, 289920, Note_on_c, 2, 43, 79
3, 290160, Note_off_c, 2, 67, 79
3, 290160, Note_off_c, 2, 62, 79
3, 290160, Note_off_c, 2, 55, 79
3, 290160, Note_off_c, 2, 50, 79
3, 290160, Note_off_c, 2, 46, 79
3, 290160, Note_off_c, 2, 43, 79
3, 290160, Note_on_c, 2, 67, 79
3, 290160, Note_on_c, 2, 62, 79
3, 290160, Note_on_c, 2, 55, 79
3, 290160, Note_on_c, 2, 50, 79
3, 290160, Note_on_c, 2, 46, 79
3, 290160, Note_on_c, 2, 43, 79
3, 290400, Note_off_c, 2, 67, 79
3, 290400, Note_off_c, 2, 62, 79
3, 290400, Note_off_c, 2, 55, 79
3, 290400, Note_off_c, 2, 50, 79
3, 290400, Note_off_c, 2, 46, 79
3, 290400, Note_off_c, 2, 43, 79
3, 290400, Note_on_c, 2, 67, 79
3, 290400, Note_on_c, 2, 62, 79
3, 290400, Note_on_c, 2, 55, 79
3, 290400, Note_on_c, 2, 50, 79
3, 290400, Note_on_c, 2, 46, 79
3, 290400, Note_on_c, 2, 43, 79
3, 290640, Note_off_c, 2, 67, 79
3, 290640, Note_off_c, 2, 62, 79
3, 290640, Note_off_c, 2, 55, 79
3, 290640, Note_off_c, 2, 50, 79
3, 290640, Note_off_c, 2, 46, 79
3, 290640, Note_off_c, 2, 43, 79
3, 290640, Note_on_c, 2, 67, 79
3, 290640, Note_on_c, 2, 62, 79
3, 290640, Note_on_c, 2, 55, 79
3, 290640, Note_on_c, 2, 50, 79
3, 290640, Note_on_c, 2, 46, 79
3, 290640, Note_on_c, 2, 43, 79
3, 290880, Note_off_c, 2, 67, 79
3, 290880, Note_off_c, 2, 62, 79
3, 290880, Note_off_c, 2, 55, 79
3, 290880, Note_off_c, 2, 50, 79
3, 290880, Note_off_c, 2, 46, 79
3, 290880, Note_off_c, 2, 43, 79
3, 290880, Note_on_c, 2, 67, 79
3, 290880, Note_on_c, 2, 62, 79
3, 290880, Note_on_c, 2, 55, 79
3, 290880, Note_on_c, 2, 50, 79
3, 290880, Note_on_c, 2, 46, 79
3, 290880, Note_on_c, 2, 43, 79
3, 291120, Note_off_c, 2, 67, 79
3, 291120, Note_off_c, 2, 62, 79
3, 291120, Note_off_c, 2, 55, 79
3, 291120, Note_off_c, 2, 50, 79
3, 291120, Note_off_c, 2, 46, 79
3, 291120, Note_off_c, 2, 43, 79
3, 291120, Note_on_c, 2, 67, 79
3, 291120, Note_on_c, 2, 62, 79
3, 291120, Note_on_c, 2, 55, 79
3, 291120, Note_on_c, 2, 50, 79
3, 291120, Note_on_c, 2, 46, 79
3, 291120, Note_on_c, 2, 43, 79
3, 291360, Note_off_c, 2, 67, 79
3, 291360, Note_off_c, 2, 62, 79
3, 291360, Note_off_c, 2, 55, 79
3, 291360, Note_off_c, 2, 50, 79
3, 291360, Note_off_c, 2, 46, 79
3, 291360, Note_off_c, 2, 43, 79
3, 291360, Note_on_c, 2, 67, 79
3, 291360, Note_on_c, 2, 62, 79
3, 291360, Note_on_c, 2, 55, 79
3, 291360, Note_on_c, 2, 50, 79
3, 291360, Note_on_c, 2, 46, 79
3, 291360, Note_on_c, 2, 43, 79
3, 291840, Note_off_c, 2, 67, 79
3, 291840, Note_off_c, 2, 62, 79
3, 291840, Note_off_c, 2, 55, 79
3, 291840, Note_off_c, 2, 50, 79
3, 291840, Note_off_c, 2, 46, 79
3, 291840, Note_off_c, 2, 43, 79
3, 291840, Note_on_c, 2, 67, 79
3, 291840, Note_on_c, 2, 62, 79
3, 291840, Note_on_c, 2, 55, 79
3, 291840, Note_on_c, 2, 50, 79
3, 291840, Note_on_c, 2, 46, 79
3, 291840, Note_on_c, 2, 43, 79
3, 292320, Note_off_c, 2, 67, 79
3, 292320, Note_off_c, 2, 62, 79
3, 292320, Note_off_c, 2, 55, 79
3, 292320, Note_off_c, 2, 50, 79
3, 292320, Note_off_c, 2, 46, 79
3, 292320, Note_off_c, 2, 43, 79
3, 292320, Note_on_c, 2, 67, 79
3, 292320, Note_on_c, 2, 62, 79
3, 292320, Note_on_c, 2, 55, 79
3, 292320, Note_on_c, 2, 50, 79
3, 292320, Note_on_c, 2, 46, 79
3, 292320, Note_on_c, 2, 43, 79
3, 292560, Note_off_c, 2, 67, 79
3, 292560, Note_off_c, 2, 62, 79
3, 292560, Note_off_c, 2, 55, 79
3, 292560, Note_off_c, 2, 50, 79
3, 292560, Note_off_c, 2, 46, 79
3, 292560, Note_off_c, 2, 43, 79
3, 292560, Note_on_c, 2, 67, 79
3, 292560, Note_on_c, 2, 62, 79
3, 292560, Note_on_c, 2, 55, 79
3, 292560, Note_on_c, 2, 50, 79
3, 292560, Note_on_c, 2, 46, 79
3, 292560, Note_on_c, 2, 43, 79
3, 292800, Note_off_c, 2, 67, 79
3, 292800, Note_off_c, 2, 62, 79
3, 292800, Note_off_c, 2, 55, 79
3, 292800, Note_off_c, 2, 50, 79
3, 292800, Note_off_c, 2, 46, 79
3, 292800, Note_off_c, 2, 43, 79
3, 292800, Note_on_c, 2, 67, 79
3, 292800, Note_on_c, 2, 62, 79
3, 292800, Note_on_c, 2, 55, 79
3, 292800, Note_on_c, 2, 50, 79
3, 292800, Note_on_c, 2, 46, 79
3, 292800, Note_on_c, 2, 43, 79
3, 293280, Note_off_c, 2, 67, 79
3, 293280, Note_off_c, 2, 62, 79
3, 293280, Note_off_c, 2, 55, 79
3, 293280, Note_off_c, 2, 50, 79
3, 293280, Note_off_c, 2, 46, 79
3, 293280, Note_off_c, 2, 43, 79
3, 293280, Note_on_c, 2, 67, 79
3, 293280, Note_on_c, 2, 62, 79
3, 293280, Note_on_c, 2, 55, 79
3, 293280, Note_on_c, 2, 50, 79
3, 293280, Note_on_c, 2, 46, 79
3, 293280, Note_on_c, 2, 43, 79
3, 293520, Note_off_c, 2, 67, 79
3, 293520, Note_off_c, 2, 62, 79
3, 293520, Note_off_c, 2, 55, 79
3, 293520, Note_off_c, 2, 50, 79
3, 293520, Note_off_c, 2, 46, 79
3, 293520, Note_off_c, 2, 43, 79
3, 293520, Note_on_c, 2, 67, 79
3, 293520, Note_on_c, 2, 62, 79
3, 293520, Note_on_c, 2, 55, 79
3, 293520, Note_on_c, 2, 50, 79
3, 293520, Note_on_c, 2, 46, 79
3, 293520, Note_on_c, 2, 43, 79
3, 293760, Note_off_c, 2, 67, 79
3, 293760, Note_off_c, 2, 62, 79
3, 293760, Note_off_c, 2, 55, 79
3, 293760, Note_off_c, 2, 50, 79
3, 293760, Note_off_c, 2, 46, 79
3, 293760, Note_off_c, 2, 43, 79
3, 293760, Note_on_c, 2, 67, 79
3, 293760, Note_on_c, 2, 62, 79
3, 293760, Note_on_c, 2, 55, 79
3, 293760, Note_on_c, 2, 50, 79
3, 293760, Note_on_c, 2, 46, 79
3, 293760, Note_on_c, 2, 43, 79
3, 294000, Note_off_c, 2, 67, 79
3, 294000, Note_off_c, 2, 62, 79
3, 294000, Note_off_c, 2, 55, 79
3, 294000, Note_off_c, 2, 50, 79
3, 294000, Note_off_c, 2, 46, 79
3, 294000, Note_off_c, 2, 43, 79
3, 294000, Note_on_c, 2, 67, 79
3, 294000, Note_on_c, 2, 62, 79
3, 294000, Note_on_c, 2, 55, 79
3, 294000, Note_on_c, 2, 50, 79
3, 294000, Note_on_c, 2, 46, 79
3, 294000, Note_on_c, 2, 43, 79
3, 294240, Note_off_c, 2, 67, 79
3, 294240, Note_off_c, 2, 62, 79
3, 294240, Note_off_c, 2, 55, 79
3, 294240, Note_off_c, 2, 50, 79
3, 294240, Note_off_c, 2, 46, 79
3, 294240, Note_off_c, 2, 43, 79
3, 294240, Note_on_c, 2, 67, 79
3, 294240, Note_on_c, 2, 62, 79
3, 294240, Note_on_c, 2, 55, 79
3, 294240, Note_on_c, 2, 50, 79
3, 294240, Note_on_c, 2, 46, 79
3, 294240, Note_on_c, 2, 43, 79
3, 294480, Note_off_c, 2, 67, 79
3, 294480, Note_off_c, 2, 62, 79
3, 294480, Note_off_c, 2, 55, 79
3, 294480, Note_off_c, 2, 50, 79
3, 294480, Note_off_c, 2, 46, 79
3, 294480, Note_off_c, 2, 43, 79
3, 294480, Note_on_c, 2, 67, 79
3, 294480, Note_on_c, 2, 62, 79
3, 294480, Note_on_c, 2, 55, 79
3, 294480, Note_on_c, 2, 50, 79
3, 294480, Note_on_c, 2, 46, 79
3, 294480, Note_on_c, 2, 43, 79
3, 294720, Note_off_c, 2, 67, 79
3, 294720, Note_off_c, 2, 62, 79
3, 294720, Note_off_c, 2, 55, 79
3, 294720, Note_off_c, 2, 50, 79
3, 294720, Note_off_c, 2, 46, 79
3, 294720, Note_off_c, 2, 43, 79
3, 294720, Note_on_c, 2, 67, 79
3, 294720, Note_on_c, 2, 62, 79
3, 294720, Note_on_c, 2, 55, 79
3, 294720, Note_on_c, 2, 50, 79
3, 294720, Note_on_c, 2, 46, 79
3, 294720, Note_on_c, 2, 43, 79
3, 294960, Note_off_c, 2, 67, 79
3, 294960, Note_off_c, 2, 62, 79
3, 294960, Note_off_c, 2, 55, 79
3, 294960, Note_off_c, 2, 50, 79
3, 294960, Note_off_c, 2, 46, 79
3, 294960, Note_off_c, 2, 43, 79
3, 294960, Note_on_c, 2, 67, 79
3, 294960, Note_on_c, 2, 62, 79
3, 294960, Note_on_c, 2, 55, 79
3, 294960, Note_on_c, 2, 50, 79
3, 294960, Note_on_c, 2, 46, 79
3, 294960, Note_on_c, 2, 43, 79
3, 295200, Note_off_c, 2, 67, 79
3, 295200, Note_off_c, 2, 62, 79
3, 295200, Note_off_c, 2, 55, 79
3, 295200, Note_off_c, 2, 50, 79
3, 295200, Note_off_c, 2, 46, 79
3, 295200, Note_off_c, 2, 43, 79
3, 295200, Note_on_c, 2, 67, 79
3, 295200, Note_on_c, 2, 62, 79
3, 295200, Note_on_c, 2, 55, 79
3, 295200, Note_on_c, 2, 50, 79
3, 295200, Note_on_c, 2, 46, 79
3, 295200, Note_on_c, 2, 43, 79
3, 295440, Note_off_c, 2, 67, 79
3, 295440, Note_off_c, 2, 62, 79
3, 295440, Note_off_c, 2, 55, 79
3, 295440, Note_off_c, 2, 50, 79
3, 295440, Note_off_c, 2, 46, 79
3, 295440, Note_off_c, 2, 43, 79
3, 295440, Note_on_c, 2, 67, 79
3, 295440, Note_on_c, 2, 62, 79
3, 295440, Note_on_c, 2, 55, 79
3, 295440, Note_on_c, 2, 50, 79
3, 295440, Note_on_c, 2, 46, 79
3, 295440, Note_on_c, 2, 43, 79
3, 295680, Note_off_c, 2, 67, 79
3, 295680, Note_off_c, 2, 62, 79
3, 295680, Note_off_c, 2, 55, 79
3, 295680, Note_off_c, 2, 50, 79
3, 295680, Note_off_c, 2, 46, 79
3, 295680, Note_off_c, 2, 43, 79
3, 295680, Note_on_c, 2, 65, 79
3, 295680, Note_on_c, 2, 62, 79
3, 295680, Note_on_c, 2, 58, 79
3, 295680, Note_on_c, 2, 50, 79
3, 295680, Note_on_c, 2, 46, 79
3, 296160, Note_off_c, 2, 65, 79
3, 296160, Note_off_c, 2, 62, 79
3, 296160, Note_off_c, 2, 58, 79
3, 296160, Note_off_c, 2, 50, 79
3, 296160, Note_off_c, 2, 46, 79
3, 296160, Note_on_c, 2, 65, 79
3, 296160, Note_on_c, 2, 62, 79
3, 296160, Note_on_c, 2, 58, 79
3, 296160, Note_on_c, 2, 50, 79
3, 296160, Note_on_c, 2, 46, 79
3, 296400, Note_off_c, 2, 65, 79
3, 296400, Note_off_c, 2, 62, 79
3, 296400, Note_off_c, 2, 58, 79
3, 296400, Note_off_c, 2, 50, 79
3, 296400, Note_off_c, 2, 46, 79
3, 296400, Note_on_c, 2, 65, 79
3, 296400, Note_on_c, 2, 62, 79
3, 296400, Note_on_c, 2, 58, 79
3, 296400, Note_on_c, 2, 50, 79
3, 296400, Note_on_c, 2, 46, 79
3, 296640, Note_off_c, 2, 65, 79
3, 296640, Note_off_c, 2, 62, 79
3, 296640, Note_off_c, 2, 58, 79
3, 296640, Note_off_c, 2, 50, 79
3, 296640, Note_off_c, 2, 46, 79
3, 296640, Note_on_c, 2, 65, 79
3, 296640, Note_on_c, 2, 62, 79
3, 296640, Note_on_c, 2, 58, 79
3, 296640, Note_on_c, 2, 50, 79
3, 296640, Note_on_c, 2, 46, 79
3, 297120, Note_off_c, 2, 65, 79
3, 297120, Note_off_c, 2, 62, 79
3, 297120, Note_off_c, 2, 58, 79
3, 297120, Note_off_c, 2, 50, 79
3, 297120, Note_off_c, 2, 46, 79
3, 297120, Note_on_c, 2, 65, 79
3, 297120, Note_on_c, 2, 62, 79
3, 297120, Note_on_c, 2, 58, 79
3, 297120, Note_on_c, 2, 50, 79
3, 297120, Note_on_c, 2, 46, 79
3, 297360, Note_off_c, 2, 65, 79
3, 297360, Note_off_c, 2, 62, 79
3, 297360, Note_off_c, 2, 58, 79
3, 297360, Note_off_c, 2, 50, 79
3, 297360, Note_off_c, 2, 46, 79
3, 297360, Note_on_c, 2, 65, 79
3, 297360, Note_on_c, 2, 62, 79
3, 297360, Note_on_c, 2, 58, 79
3, 297360, Note_on_c, 2, 50, 79
3, 297360, Note_on_c, 2, 46, 79
3, 297600, Note_off_c, 2, 65, 79
3, 297600, Note_off_c, 2, 62, 79
3, 297600, Note_off_c, 2, 58, 79
3, 297600, Note_off_c, 2, 50, 79
3, 297600, Note_off_c, 2, 46, 79
3, 297600, Note_on_c, 2, 65, 79
3, 297600, Note_on_c, 2, 62, 79
3, 297600, Note_on_c, 2, 58, 79
3, 297600, Note_on_c, 2, 50, 79
3, 297600, Note_on_c, 2, 46, 79
3, 297840, Note_off_c, 2, 65, 79
3, 297840, Note_off_c, 2, 62, 79
3, 297840, Note_off_c, 2, 58, 79
3, 297840, Note_off_c, 2, 50, 79
3, 297840, Note_off_c, 2, 46, 79
3, 297840, Note_on_c, 2, 65, 79
3, 297840, Note_on_c, 2, 62, 79
3, 297840, Note_on_c, 2, 58, 79
3, 297840, Note_on_c, 2, 50, 79
3, 297840, Note_on_c, 2, 46, 79
3, 298080, Note_off_c, 2, 65, 79
3, 298080, Note_off_c, 2, 62, 79
3, 298080, Note_off_c, 2, 58, 79
3, 298080, Note_off_c, 2, 50, 79
3, 298080, Note_off_c, 2, 46, 79
3, 298080, Note_on_c, 2, 65, 79
3, 298080, Note_on_c, 2, 62, 79
3, 298080, Note_on_c, 2, 58, 79
3, 298080, Note_on_c, 2, 50, 79
3, 298080, Note_on_c, 2, 46, 79
3, 298320, Note_off_c, 2, 65, 79
3, 298320, Note_off_c, 2, 62, 79
3, 298320, Note_off_c, 2, 58, 79
3, 298320, Note_off_c, 2, 50, 79
3, 298320, Note_off_c, 2, 46, 79
3, 298320, Note_on_c, 2, 65, 79
3, 298320, Note_on_c, 2, 62, 79
3, 298320, Note_on_c, 2, 58, 79
3, 298320, Note_on_c, 2, 50, 79
3, 298320, Note_on_c, 2, 46, 79
3, 298560, Note_off_c, 2, 65, 79
3, 298560, Note_off_c, 2, 62, 79
3, 298560, Note_off_c, 2, 58, 79
3, 298560, Note_off_c, 2, 50, 79
3, 298560, Note_off_c, 2, 46, 79
3, 298560, Note_on_c, 2, 65, 79
3, 298560, Note_on_c, 2, 62, 79
3, 298560, Note_on_c, 2, 58, 79
3, 298560, Note_on_c, 2, 50, 79
3, 298560, Note_on_c, 2, 46, 79
3, 298800, Note_off_c, 2, 65, 79
3, 298800, Note_off_c, 2, 62, 79
3, 298800, Note_off_c, 2, 58, 79
3, 298800, Note_off_c, 2, 50, 79
3, 298800, Note_off_c, 2, 46, 79
3, 298800, Note_on_c, 2, 65, 79
3, 298800, Note_on_c, 2, 62, 79
3, 298800, Note_on_c, 2, 58, 79
3, 298800, Note_on_c, 2, 50, 79
3, 298800, Note_on_c, 2, 46, 79
3, 299040, Note_off_c, 2, 65, 79
3, 299040, Note_off_c, 2, 62, 79
3, 299040, Note_off_c, 2, 58, 79
3, 299040, Note_off_c, 2, 50, 79
3, 299040, Note_off_c, 2, 46, 79
3, 299520, Note_on_c, 2, 67, 79
3, 299520, Note_on_c, 2, 62, 79
3, 299520, Note_on_c, 2, 55, 79
3, 299520, Note_on_c, 2, 50, 79
3, 299520, Note_on_c, 2, 46, 79
3, 299520, Note_on_c, 2, 43, 79
3, 300000, Note_off_c, 2, 67, 79
3, 300000, Note_off_c, 2, 62, 79
3, 300000, Note_off_c, 2, 55, 79
3, 300000, Note_off_c, 2, 50, 79
3, 300000, Note_off_c, 2, 46, 79
3, 300000, Note_off_c, 2, 43, 79
3, 300000, Note_on_c, 2, 67, 79
3, 300000, Note_on_c, 2, 62, 79
3, 300000, Note_on_c, 2, 55, 79
3, 300000, Note_on_c, 2, 50, 79
3, 300000, Note_on_c, 2, 46, 79
3, 300000, Note_on_c, 2, 43, 79
3, 300240, Note_off_c, 2, 67, 79
3, 300240, Note_off_c, 2, 62, 79
3, 300240, Note_off_c, 2, 55, 79
3, 300240, Note_off_c, 2, 50, 79
3, 300240, Note_off_c, 2, 46, 79
3, 300240, Note_off_c, 2, 43, 79
3, 300240, Note_on_c, 2, 67, 79
3, 300240, Note_on_c, 2, 62, 79
3, 300240, Note_on_c, 2, 55, 79
3, 300240, Note_on_c, 2, 50, 79
3, 300240, Note_on_c, 2, 46, 79
3, 300240, Note_on_c, 2, 43, 79
3, 300480, Note_off_c, 2, 67, 79
3, 300480, Note_off_c, 2, 62, 79
3, 300480, Note_off_c, 2, 55, 79
3, 300480, Note_off_c, 2, 50, 79
3, 300480, Note_off_c, 2, 46, 79
3, 300480, Note_off_c, 2, 43, 79
3, 300480, Note_on_c, 2, 67, 79
3, 300480, Note_on_c, 2, 62, 79
3, 300480, Note_on_c, 2, 55, 79
3, 300480, Note_on_c, 2, 50, 79
3, 300480, Note_on_c, 2, 46, 79
3, 300480, Note_on_c, 2, 43, 79
3, 300960, Note_off_c, 2, 67, 79
3, 300960, Note_off_c, 2, 62, 79
3, 300960, Note_off_c, 2, 55, 79
3, 300960, Note_off_c, 2, 50, 79
3, 300960, Note_off_c, 2, 46, 79
3, 300960, Note_off_c, 2, 43, 79
3, 300960, Note_on_c, 2, 67, 79
3, 300960, Note_on_c, 2, 62, 79
3, 300960, Note_on_c, 2, 55, 79
3, 300960, Note_on_c, 2, 50, 79
3, 300960, Note_on_c, 2, 46, 79
3, 300960, Note_on_c, 2, 43, 79
3, 301200, Note_off_c, 2, 67, 79
3, 301200, Note_off_c, 2, 62, 79
3, 301200, Note_off_c, 2, 55, 79
3, 301200, Note_off_c, 2, 50, 79
3, 301200, Note_off_c, 2, 46, 79
3, 301200, Note_off_c, 2, 43, 79
3, 301200, Note_on_c, 2, 67, 79
3, 301200, Note_on_c, 2, 62, 79
3, 301200, Note_on_c, 2, 55, 79
3, 301200, Note_on_c, 2, 50, 79
3, 301200, Note_on_c, 2, 46, 79
3, 301200, Note_on_c, 2, 43, 79
3, 301440, Note_off_c, 2, 67, 79
3, 301440, Note_off_c, 2, 62, 79
3, 301440, Note_off_c, 2, 55, 79
3, 301440, Note_off_c, 2, 50, 79
3, 301440, Note_off_c, 2, 46, 79
3, 301440, Note_off_c, 2, 43, 79
3, 301440, Note_on_c, 2, 67, 79
3, 301440, Note_on_c, 2, 62, 79
3, 301440, Note_on_c, 2, 55, 79
3, 301440, Note_on_c, 2, 50, 79
3, 301440, Note_on_c, 2, 46, 79
3, 301440, Note_on_c, 2, 43, 79
3, 301680, Note_off_c, 2, 67, 79
3, 301680, Note_off_c, 2, 62, 79
3, 301680, Note_off_c, 2, 55, 79
3, 301680, Note_off_c, 2, 50, 79
3, 301680, Note_off_c, 2, 46, 79
3, 301680, Note_off_c, 2, 43, 79
3, 301680, Note_on_c, 2, 67, 79
3, 301680, Note_on_c, 2, 62, 79
3, 301680, Note_on_c, 2, 55, 79
3, 301680, Note_on_c, 2, 50, 79
3, 301680, Note_on_c, 2, 46, 79
3, 301680, Note_on_c, 2, 43, 79
3, 301920, Note_off_c, 2, 67, 79
3, 301920, Note_off_c, 2, 62, 79
3, 301920, Note_off_c, 2, 55, 79
3, 301920, Note_off_c, 2, 50, 79
3, 301920, Note_off_c, 2, 46, 79
3, 301920, Note_off_c, 2, 43, 79
3, 301920, Note_on_c, 2, 67, 79
3, 301920, Note_on_c, 2, 62, 79
3, 301920, Note_on_c, 2, 55, 79
3, 301920, Note_on_c, 2, 50, 79
3, 301920, Note_on_c, 2, 46, 79
3, 301920, Note_on_c, 2, 43, 79
3, 302160, Note_off_c, 2, 67, 79
3, 302160, Note_off_c, 2, 62, 79
3, 302160, Note_off_c, 2, 55, 79
3, 302160, Note_off_c, 2, 50, 79
3, 302160, Note_off_c, 2, 46, 79
3, 302160, Note_off_c, 2, 43, 79
3, 302160, Note_on_c, 2, 67, 79
3, 302160, Note_on_c, 2, 62, 79
3, 302160, Note_on_c, 2, 55, 79
3, 302160, Note_on_c, 2, 50, 79
3, 302160, Note_on_c, 2, 46, 79
3, 302160, Note_on_c, 2, 43, 79
3, 302400, Note_off_c, 2, 67, 79
3, 302400, Note_off_c, 2, 62, 79
3, 302400, Note_off_c, 2, 55, 79
3, 302400, Note_off_c, 2, 50, 79
3, 302400, Note_off_c, 2, 46, 79
3, 302400, Note_off_c, 2, 43, 79
3, 302400, Note_on_c, 2, 67, 79
3, 302400, Note_on_c, 2, 62, 79
3, 302400, Note_on_c, 2, 55, 79
3, 302400, Note_on_c, 2, 50, 79
3, 302400, Note_on_c, 2, 46, 79
3, 302400, Note_on_c, 2, 43, 79
3, 302640, Note_off_c, 2, 67, 79
3, 302640, Note_off_c, 2, 62, 79
3, 302640, Note_off_c, 2, 55, 79
3, 302640, Note_off_c, 2, 50, 79
3, 302640, Note_off_c, 2, 46, 79
3, 302640, Note_off_c, 2, 43, 79
3, 302640, Note_on_c, 2, 67, 79
3, 302640, Note_on_c, 2, 62, 79
3, 302640, Note_on_c, 2, 55, 79
3, 302640, Note_on_c, 2, 50, 79
3, 302640, Note_on_c, 2, 46, 79
3, 302640, Note_on_c, 2, 43, 79
3, 302880, Note_off_c, 2, 67, 79
3, 302880, Note_off_c, 2, 62, 79
3, 302880, Note_off_c, 2, 55, 79
3, 302880, Note_off_c, 2, 50, 79
3, 302880, Note_off_c, 2, 46, 79
3, 302880, Note_off_c, 2, 43, 79
3, 302880, Note_on_c, 2, 67, 79
3, 302880, Note_on_c, 2, 62, 79
3, 302880, Note_on_c, 2, 55, 79
3, 302880, Note_on_c, 2, 50, 79
3, 302880, Note_on_c, 2, 46, 79
3, 302880, Note_on_c, 2, 43, 79
3, 303120, Note_off_c, 2, 67, 79
3, 303120, Note_off_c, 2, 62, 79
3, 303120, Note_off_c, 2, 55, 79
3, 303120, Note_off_c, 2, 50, 79
3, 303120, Note_off_c, 2, 46, 79
3, 303120, Note_off_c, 2, 43, 79
3, 303120, Note_on_c, 2, 67, 79
3, 303120, Note_on_c, 2, 62, 79
3, 303120, Note_on_c, 2, 55, 79
3, 303120, Note_on_c, 2, 50, 79
3, 303120, Note_on_c, 2, 46, 79
3, 303120, Note_on_c, 2, 43, 79
3, 303360, Note_off_c, 2, 67, 79
3, 303360, Note_off_c, 2, 62, 79
3, 303360, Note_off_c, 2, 55, 79
3, 303360, Note_off_c, 2, 50, 79
3, 303360, Note_off_c, 2, 46, 79
3, 303360, Note_off_c, 2, 43, 79
3, 303360, Note_on_c, 2, 67, 79
3, 303360, Note_on_c, 2, 62, 79
3, 303360, Note_on_c, 2, 55, 79
3, 303360, Note_on_c, 2, 50, 79
3, 303360, Note_on_c, 2, 46, 79
3, 303360, Note_on_c, 2, 43, 79
3, 303840, Note_off_c, 2, 67, 79
3, 303840, Note_off_c, 2, 62, 79
3, 303840, Note_off_c, 2, 55, 79
3, 303840, Note_off_c, 2, 50, 79
3, 303840, Note_off_c, 2, 46, 79
3, 303840, Note_off_c, 2, 43, 79
3, 303840, Note_on_c, 2, 67, 79
3, 303840, Note_on_c, 2, 62, 79
3, 303840, Note_on_c, 2, 55, 79
3, 303840, Note_on_c, 2, 50, 79
3, 303840, Note_on_c, 2, 46, 79
3, 303840, Note_on_c, 2, 43, 79
3, 304080, Note_off_c, 2, 67, 79
3, 304080, Note_off_c, 2, 62, 79
3, 304080, Note_off_c, 2, 55, 79
3, 304080, Note_off_c, 2, 50, 79
3, 304080, Note_off_c, 2, 46, 79
3, 304080, Note_off_c, 2, 43, 79
3, 304080, Note_on_c, 2, 67, 79
3, 304080, Note_on_c, 2, 62, 79
3, 304080, Note_on_c, 2, 55, 79
3, 304080, Note_on_c, 2, 50, 79
3, 304080, Note_on_c, 2, 46, 79
3, 304080, Note_on_c, 2, 43, 79
3, 304320, Note_off_c, 2, 67, 79
3, 304320, Note_off_c, 2, 62, 79
3, 304320, Note_off_c, 2, 55, 79
3, 304320, Note_off_c, 2, 50, 79
3, 304320, Note_off_c, 2, 46, 79
3, 304320, Note_off_c, 2, 43, 79
3, 304320, Note_on_c, 2, 67, 79
3, 304320, Note_on_c, 2, 62, 79
3, 304320, Note_on_c, 2, 55, 79
3, 304320, Note_on_c, 2, 50, 79
3, 304320, Note_on_c, 2, 46, 79
3, 304320, Note_on_c, 2, 43, 79
3, 304800, Note_off_c, 2, 67, 79
3, 304800, Note_off_c, 2, 62, 79
3, 304800, Note_off_c, 2, 55, 79
3, 304800, Note_off_c, 2, 50, 79
3, 304800, Note_off_c, 2, 46, 79
3, 304800, Note_off_c, 2, 43, 79
3, 304800, Note_on_c, 2, 67, 79
3, 304800, Note_on_c, 2, 62, 79
3, 304800, Note_on_c, 2, 55, 79
3, 304800, Note_on_c, 2, 50, 79
3, 304800, Note_on_c, 2, 46, 79
3, 304800, Note_on_c, 2, 43, 79
3, 305040, Note_off_c, 2, 67, 79
3, 305040, Note_off_c, 2, 62, 79
3, 305040, Note_off_c, 2, 55, 79
3, 305040, Note_off_c, 2, 50, 79
3, 305040, Note_off_c, 2, 46, 79
3, 305040, Note_off_c, 2, 43, 79
3, 305040, Note_on_c, 2, 67, 79
3, 305040, Note_on_c, 2, 62, 79
3, 305040, Note_on_c, 2, 55, 79
3, 305040, Note_on_c, 2, 50, 79
3, 305040, Note_on_c, 2, 46, 79
3, 305040, Note_on_c, 2, 43, 79
3, 305280, Note_off_c, 2, 67, 79
3, 305280, Note_off_c, 2, 62, 79
3, 305280, Note_off_c, 2, 55, 79
3, 305280, Note_off_c, 2, 50, 79
3, 305280, Note_off_c, 2, 46, 79
3, 305280, Note_off_c, 2, 43, 79
3, 305280, Note_on_c, 2, 67, 79
3, 305280, Note_on_c, 2, 62, 79
3, 305280, Note_on_c, 2, 55, 79
3, 305280, Note_on_c, 2, 50, 79
3, 305280, Note_on_c, 2, 46, 79
3, 305280, Note_on_c, 2, 43, 79
3, 305520, Note_off_c, 2, 67, 79
3, 305520, Note_off_c, 2, 62, 79
3, 305520, Note_off_c, 2, 55, 79
3, 305520, Note_off_c, 2, 50, 79
3, 305520, Note_off_c, 2, 46, 79
3, 305520, Note_off_c, 2, 43, 79
3, 305520, Note_on_c, 2, 67, 79
3, 305520, Note_on_c, 2, 62, 79
3, 305520, Note_on_c, 2, 55, 79
3, 305520, Note_on_c, 2, 50, 79
3, 305520, Note_on_c, 2, 46, 79
3, 305520, Note_on_c, 2, 43, 79
3, 305760, Note_off_c, 2, 67, 79
3, 305760, Note_off_c, 2, 62, 79
3, 305760, Note_off_c, 2, 55, 79
3, 305760, Note_off_c, 2, 50, 79
3, 305760, Note_off_c, 2, 46, 79
3, 305760, Note_off_c, 2, 43, 79
3, 305760, Note_on_c, 2, 67, 79
3, 305760, Note_on_c, 2, 62, 79
3, 305760, Note_on_c, 2, 55, 79
3, 305760, Note_on_c, 2, 50, 79
3, 305760, Note_on_c, 2, 46, 79
3, 305760, Note_on_c, 2, 43, 79
3, 306000, Note_off_c, 2, 67, 79
3, 306000, Note_off_c, 2, 62, 79
3, 306000, Note_off_c, 2, 55, 79
3, 306000, Note_off_c, 2, 50, 79
3, 306000, Note_off_c, 2, 46, 79
3, 306000, Note_off_c, 2, 43, 79
3, 306000, Note_on_c, 2, 67, 79
3, 306000, Note_on_c, 2, 62, 79
3, 306000, Note_on_c, 2, 55, 79
3, 306000, Note_on_c, 2, 50, 79
3, 306000, Note_on_c, 2, 46, 79
3, 306000, Note_on_c, 2, 43, 79
3, 306240, Note_off_c, 2, 67, 79
3, 306240, Note_off_c, 2, 62, 79
3, 306240, Note_off_c, 2, 55, 79
3, 306240, Note_off_c, 2, 50, 79
3, 306240, Note_off_c, 2, 46, 79
3, 306240, Note_off_c, 2, 43, 79
3, 306240, Note_on_c, 2, 67, 79
3, 306240, Note_on_c, 2, 62, 79
3, 306240, Note_on_c, 2, 55, 79
3, 306240, Note_on_c, 2, 50, 79
3, 306240, Note_on_c, 2, 46, 79
3, 306240, Note_on_c, 2, 43, 79
3, 306480, Note_off_c, 2, 67, 79
3, 306480, Note_off_c, 2, 62, 79
3, 306480, Note_off_c, 2, 55, 79
3, 306480, Note_off_c, 2, 50, 79
3, 306480, Note_off_c, 2, 46, 79
3, 306480, Note_off_c, 2, 43, 79
3, 306480, Note_on_c, 2, 67, 79
3, 306480, Note_on_c, 2, 62, 79
3, 306480, Note_on_c, 2, 55, 79
3, 306480, Note_on_c, 2, 50, 79
3, 306480, Note_on_c, 2, 46, 79
3, 306480, Note_on_c, 2, 43, 79
3, 306720, Note_off_c, 2, 67, 79
3, 306720, Note_off_c, 2, 62, 79
3, 306720, Note_off_c, 2, 55, 79
3, 306720, Note_off_c, 2, 50, 79
3, 306720, Note_off_c, 2, 46, 79
3, 306720, Note_off_c, 2, 43, 79
3, 306720, Note_on_c, 2, 67, 79
3, 306720, Note_on_c, 2, 62, 79
3, 306720, Note_on_c, 2, 55, 79
3, 306720, Note_on_c, 2, 50, 79
3, 306720, Note_on_c, 2, 46, 79
3, 306720, Note_on_c, 2, 43, 79
3, 306960, Note_off_c, 2, 67, 79
3, 306960, Note_off_c, 2, 62, 79
3, 306960, Note_off_c, 2, 55, 79
3, 306960, Note_off_c, 2, 50, 79
3, 306960, Note_off_c, 2, 46, 79
3, 306960, Note_off_c, 2, 43, 79
3, 306960, Note_on_c, 2, 67, 79
3, 306960, Note_on_c, 2, 62, 79
3, 306960, Note_on_c, 2, 55, 79
3, 306960, Note_on_c, 2, 50, 79
3, 306960, Note_on_c, 2, 46, 79
3, 306960, Note_on_c, 2, 43, 79
3, 307200, Note_off_c, 2, 67, 79
3, 307200, Note_off_c, 2, 62, 79
3, 307200, Note_off_c, 2, 55, 79
3, 307200, Note_off_c, 2, 50, 79
3, 307200, Note_off_c, 2, 46, 79
3, 307200, Note_off_c, 2, 43, 79
3, 307200, Note_on_c, 2, 64, 95
3, 307200, Note_on_c, 2, 60, 95
3, 307200, Note_on_c, 2, 55, 95
3, 307200, Note_on_c, 2, 48, 95
3, 307680, Note_off_c, 2, 64, 95
3, 307680, Note_off_c, 2, 60, 95
3, 307680, Note_off_c, 2, 55, 95
3, 307680, Note_off_c, 2, 48, 95
3, 307680, Note_on_c, 2, 64, 95
3, 307680, Note_on_c, 2, 60, 95
3, 307680, Note_on_c, 2, 55, 95
3, 307680, Note_on_c, 2, 48, 95
3, 307920, Note_off_c, 2, 64, 95
3, 307920, Note_off_c, 2, 60, 95
3, 307920, Note_off_c, 2, 55, 95
3, 307920, Note_off_c, 2, 48, 95
3, 307920, Note_on_c, 2, 64, 95
3, 307920, Note_on_c, 2, 60, 95
3, 307920, Note_on_c, 2, 55, 95
3, 307920, Note_on_c, 2, 48, 95
3, 308160, Note_off_c, 2, 64, 95
3, 308160, Note_off_c, 2, 60, 95
3, 308160, Note_off_c, 2, 55, 95
3, 308160, Note_off_c, 2, 48, 95
3, 308160, Note_on_c, 2, 64, 95
3, 308160, Note_on_c, 2, 60, 95
3, 308160, Note_on_c, 2, 55, 95
3, 308160, Note_on_c, 2, 48, 95
3, 308640, Note_off_c, 2, 64, 95
3, 308640, Note_off_c, 2, 60, 95
3, 308640, Note_off_c, 2, 55, 95
3, 308640, Note_off_c, 2, 48, 95
3, 308640, Note_on_c, 2, 67, 95
3, 308640, Note_on_c, 2, 62, 95
3, 308640, Note_on_c, 2, 58, 95
3, 308640, Note_on_c, 2, 55, 95
3, 308640, Note_on_c, 2, 50, 95
3, 308640, Note_on_c, 2, 43, 95
3, 309600, Note_off_c, 2, 67, 95
3, 309600, Note_off_c, 2, 62, 95
3, 309600, Note_off_c, 2, 58, 95
3, 309600, Note_off_c, 2, 55, 95
3, 309600, Note_off_c, 2, 50, 95
3, 309600, Note_off_c, 2, 43, 95
3, 309600, Note_on_c, 2, 67, 95
3, 309600, Note_on_c, 2, 62, 95
3, 309600, Note_on_c, 2, 58, 95
3, 309600, Note_on_c, 2, 55, 95
3, 309600, Note_on_c, 2, 50, 95
3, 309600, Note_on_c, 2, 43, 95
3, 310080, Note_off_c, 2, 67, 95
3, 310080, Note_off_c, 2, 62, 95
3, 310080, Note_off_c, 2, 58, 95
3, 310080, Note_off_c, 2, 55, 95
3, 310080, Note_off_c, 2, 50, 95
3, 310080, Note_off_c, 2, 43, 95
3, 310080, Note_on_c, 2, 67, 95
3, 310080, Note_on_c, 2, 62, 95
3, 310080, Note_on_c, 2, 58, 95
3, 310080, Note_on_c, 2, 55, 95
3, 310080, Note_on_c, 2, 50, 95
3, 310080, Note_on_c, 2, 43, 95
3, 310560, Note_off_c, 2, 67, 95
3, 310560, Note_off_c, 2, 62, 95
3, 310560, Note_off_c, 2, 58, 95
3, 310560, Note_off_c, 2, 55, 95
3, 310560, Note_off_c, 2, 50, 95
3, 310560, Note_off_c, 2, 43, 95
3, 310560, Note_on_c, 2, 67, 95
3, 310560, Note_on_c, 2, 62, 95
3, 310560, Note_on_c, 2, 58, 95
3, 310560, Note_on_c, 2, 55, 95
3, 310560, Note_on_c, 2, 50, 95
3, 310560, Note_on_c, 2, 43, 95
3, 310800, Note_off_c, 2, 67, 95
3, 310800, Note_off_c, 2, 62, 95
3, 310800, Note_off_c, 2, 58, 95
3, 310800, Note_off_c, 2, 55, 95
3, 310800, Note_off_c, 2, 50, 95
3, 310800, Note_off_c, 2, 43, 95
3, 310800, Note_on_c, 2, 67, 95
3, 310800, Note_on_c, 2, 62, 95
3, 310800, Note_on_c, 2, 58, 95
3, 310800, Note_on_c, 2, 55, 95
3, 310800, Note_on_c, 2, 50, 95
3, 310800, Note_on_c, 2, 43, 95
3, 311040, Note_off_c, 2, 67, 95
3, 311040, Note_off_c, 2, 62, 95
3, 311040, Note_off_c, 2, 58, 95
3, 311040, Note_off_c, 2, 55, 95
3, 311040, Note_off_c, 2, 50, 95
3, 311040, Note_off_c, 2, 43, 95
3, 311040, Note_on_c, 2, 64, 95
3, 311040, Note_on_c, 2, 60, 95
3, 311040, Note_on_c, 2, 55, 95
3, 311040, Note_on_c, 2, 48, 95
3, 311520, Note_off_c, 2, 64, 95
3, 311520, Note_off_c, 2, 60, 95
3, 311520, Note_off_c, 2, 55, 95
3, 311520, Note_off_c, 2, 48, 95
3, 311520, Note_on_c, 2, 64, 95
3, 311520, Note_on_c, 2, 60, 95
3, 311520, Note_on_c, 2, 55, 95
3, 311520, Note_on_c, 2, 48, 95
3, 311760, Note_off_c, 2, 64, 95
3, 311760, Note_off_c, 2, 60, 95
3, 311760, Note_off_c, 2, 55, 95
3, 311760, Note_off_c, 2, 48, 95
3, 311760, Note_on_c, 2, 64, 95
3, 311760, Note_on_c, 2, 60, 95
3, 311760, Note_on_c, 2, 55, 95
3, 311760, Note_on_c, 2, 48, 95
3, 312000, Note_off_c, 2, 64, 95
3, 312000, Note_off_c, 2, 60, 95
3, 312000, Note_off_c, 2, 55, 95
3, 312000, Note_off_c, 2, 48, 95
3, 312000, Note_on_c, 2, 64, 95
3, 312000, Note_on_c, 2, 60, 95
3, 312000, Note_on_c, 2, 55, 95
3, 312000, Note_on_c, 2, 48, 95
3, 312480, Note_off_c, 2, 64, 95
3, 312480, Note_off_c, 2, 60, 95
3, 312480, Note_off_c, 2, 55, 95
3, 312480, Note_off_c, 2, 48, 95
3, 312480, Note_on_c, 2, 67, 95
3, 312480, Note_on_c, 2, 62, 95
3, 312480, Note_on_c, 2, 58, 95
3, 312480, Note_on_c, 2, 55, 95
3, 312480, Note_on_c, 2, 50, 95
3, 312480, Note_on_c, 2, 43, 95
3, 313920, Note_off_c, 2, 67, 95
3, 313920, Note_off_c, 2, 62, 95
3, 313920, Note_off_c, 2, 58, 95
3, 313920, Note_off_c, 2, 55, 95
3, 313920, Note_off_c, 2, 50, 95
3, 313920, Note_off_c, 2, 43, 95
3, 313920, Note_on_c, 2, 67, 95
3, 313920, Note_on_c, 2, 62, 95
3, 313920, Note_on_c, 2, 58, 95
3, 313920, Note_on_c, 2, 55, 95
3, 313920, Note_on_c, 2, 50, 95
3, 313920, Note_on_c, 2, 43, 95
3, 314400, Note_off_c, 2, 67, 95
3, 314400, Note_off_c, 2, 62, 95
3, 314400, Note_off_c, 2, 58, 95
3, 314400, Note_off_c, 2, 55, 95
3, 314400, Note_off_c, 2, 50, 95
3, 314400, Note_off_c, 2, 43, 95
3, 314400, Note_on_c, 2, 67, 95
3, 314400, Note_on_c, 2, 62, 95
3, 314400, Note_on_c, 2, 58, 95
3, 314400, Note_on_c, 2, 55, 95
3, 314400, Note_on_c, 2, 50, 95
3, 314400, Note_on_c, 2, 43, 95
3, 314880, Note_off_c, 2, 67, 95
3, 314880, Note_off_c, 2, 62, 95
3, 314880, Note_off_c, 2, 58, 95
3, 314880, Note_off_c, 2, 55, 95
3, 314880, Note_off_c, 2, 50, 95
3, 314880, Note_off_c, 2, 43, 95
3, 314880, Note_on_c, 2, 64, 95
3, 314880, Note_on_c, 2, 60, 95
3, 314880, Note_on_c, 2, 55, 95
3, 314880, Note_on_c, 2, 48, 95
3, 315840, Note_off_c, 2, 64, 95
3, 315840, Note_off_c, 2, 60, 95
3, 315840, Note_off_c, 2, 55, 95
3, 315840, Note_off_c, 2, 48, 95
3, 315840, Note_on_c, 2, 64, 95
3, 315840, Note_on_c, 2, 60, 95
3, 315840, Note_on_c, 2, 55, 95
3, 315840, Note_on_c, 2, 48, 95
3, 316320, Note_off_c, 2, 64, 95
3, 316320, Note_off_c, 2, 60, 95
3, 316320, Note_off_c, 2, 55, 95
3, 316320, Note_off_c, 2, 48, 95
3, 316320, Note_on_c, 2, 67, 95
3, 316320, Note_on_c, 2, 62, 95
3, 316320, Note_on_c, 2, 58, 95
3, 316320, Note_on_c, 2, 55, 95
3, 316320, Note_on_c, 2, 50, 95
3, 316320, Note_on_c, 2, 43, 95
3, 317760, Note_off_c, 2, 67, 95
3, 317760, Note_off_c, 2, 62, 95
3, 317760, Note_off_c, 2, 58, 95
3, 317760, Note_off_c, 2, 55, 95
3, 317760, Note_off_c, 2, 50, 95
3, 317760, Note_off_c, 2, 43, 95
3, 317760, Note_on_c, 2, 67, 95
3, 317760, Note_on_c, 2, 62, 95
3, 317760, Note_on_c, 2, 58, 95
3, 317760, Note_on_c, 2, 55, 95
3, 317760, Note_on_c, 2, 50, 95
3, 317760, Note_on_c, 2, 43, 95
3, 318720, Note_off_c, 2, 67, 95
3, 318720, Note_off_c, 2, 62, 95
3, 318720, Note_off_c, 2, 58, 95
3, 318720, Note_off_c, 2, 55, 95
3, 318720, Note_off_c, 2, 50, 95
3, 318720, Note_off_c, 2, 43, 95
3, 318720, Note_on_c, 2, 64, 95
3, 318720, Note_on_c, 2, 60, 95
3, 318720, Note_on_c, 2, 55, 95
3, 318720, Note_on_c, 2, 48, 95
3, 320640, Note_off_c, 2, 64, 95
3, 320640, Note_off_c, 2, 60, 95
3, 320640, Note_off_c, 2, 55, 95
3, 320640, Note_off_c, 2, 48, 95
3, 321120, Note_on_c, 2, 67, 95
3, 321120, Note_on_c, 2, 62, 95
3, 321120, Note_on_c, 2, 58, 95
3, 321120, Note_on_c, 2, 55, 95
3, 321120, Note_on_c, 2, 50, 95
3, 321120, Note_on_c, 2, 43, 95
3, 321360, Note_off_c, 2, 67, 95
3, 321360, Note_off_c, 2, 62, 95
3, 321360, Note_off_c, 2, 58, 95
3, 321360, Note_off_c, 2, 55, 95
3, 321360, Note_off_c, 2, 50, 95
3, 321360, Note_off_c, 2, 43, 95
3, 321360, Note_on_c, 2, 67, 95
3, 321360, Note_on_c, 2, 62, 95
3, 321360, Note_on_c, 2, 58, 95
3, 321360, Note_on_c, 2, 55, 95
3, 321360, Note_on_c, 2, 50, 95
3, 321360, Note_on_c, 2, 43, 95
3, 321600, Note_off_c, 2, 67, 95
3, 321600, Note_off_c, 2, 62, 95
3, 321600, Note_off_c, 2, 58, 95
3, 321600, Note_off_c, 2, 55, 95
3, 321600, Note_off_c, 2, 50, 95
3, 321600, Note_off_c, 2, 43, 95
3, 321840, Note_on_c, 2, 67, 95
3, 321840, Note_on_c, 2, 62, 95
3, 321840, Note_on_c, 2, 58, 95
3, 321840, Note_on_c, 2, 55, 95
3, 321840, Note_on_c, 2, 50, 95
3, 321840, Note_on_c, 2, 43, 95
3, 322080, Note_off_c, 2, 67, 95
3, 322080, Note_off_c, 2, 62, 95
3, 322080, Note_off_c, 2, 58, 95
3, 322080, Note_off_c, 2, 55, 95
3, 322080, Note_off_c, 2, 50, 95
3, 322080, Note_off_c, 2, 43, 95
3, 322080, Note_on_c, 2, 67, 95
3, 322080, Note_on_c, 2, 62, 95
3, 322080, Note_on_c, 2, 58, 95
3, 322080, Note_on_c, 2, 55, 95
3, 322080, Note_on_c, 2, 50, 95
3, 322080, Note_on_c, 2, 43, 95
3, 322320, Note_off_c, 2, 67, 95
3, 322320, Note_off_c, 2, 62, 95
3, 322320, Note_off_c, 2, 58, 95
3, 322320, Note_off_c, 2, 55, 95
3, 322320, Note_off_c, 2, 50, 95
3, 322320, Note_off_c, 2, 43, 95
3, 322560, Note_on_c, 2, 67, 79
3, 322560, Note_on_c, 2, 62, 79
3, 322560, Note_on_c, 2, 55, 79
3, 322560, Note_on_c, 2, 50, 79
3, 322560, Note_on_c, 2, 46, 79
3, 322560, Note_on_c, 2, 43, 79
3, 323040, Note_off_c, 2, 67, 79
3, 323040, Note_off_c, 2, 62, 79
3, 323040, Note_off_c, 2, 55, 79
3, 323040, Note_off_c, 2, 50, 79
3, 323040, Note_off_c, 2, 46, 79
3, 323040, Note_off_c, 2, 43, 79
3, 323040, Note_on_c, 2, 67, 79
3, 323040, Note_on_c, 2, 62, 79
3, 323040, Note_on_c, 2, 55, 79
3, 323040, Note_on_c, 2, 50, 79
3, 323040, Note_on_c, 2, 46, 79
3, 323040, Note_on_c, 2, 43, 79
3, 323280, Note_off_c, 2, 67, 79
3, 323280, Note_off_c, 2, 62, 79
3, 323280, Note_off_c, 2, 55, 79
3, 323280, Note_off_c, 2, 50, 79
3, 323280, Note_off_c, 2, 46, 79
3, 323280, Note_off_c, 2, 43, 79
3, 323280, Note_on_c, 2, 67, 79
3, 323280, Note_on_c, 2, 62, 79
3, 323280, Note_on_c, 2, 55, 79
3, 323280, Note_on_c, 2, 50, 79
3, 323280, Note_on_c, 2, 46, 79
3, 323280, Note_on_c, 2, 43, 79
3, 323520, Note_off_c, 2, 67, 79
3, 323520, Note_off_c, 2, 62, 79
3, 323520, Note_off_c, 2, 55, 79
3, 323520, Note_off_c, 2, 50, 79
3, 323520, Note_off_c, 2, 46, 79
3, 323520, Note_off_c, 2, 43, 79
3, 323520, Note_on_c, 2, 67, 79
3, 323520, Note_on_c, 2, 62, 79
3, 323520, Note_on_c, 2, 55, 79
3, 323520, Note_on_c, 2, 50, 79
3, 323520, Note_on_c, 2, 46, 79
3, 323520, Note_on_c, 2, 43, 79
3, 324000, Note_off_c, 2, 67, 79
3, 324000, Note_off_c, 2, 62, 79
3, 324000, Note_off_c, 2, 55, 79
3, 324000, Note_off_c, 2, 50, 79
3, 324000, Note_off_c, 2, 46, 79
3, 324000, Note_off_c, 2, 43, 79
3, 324000, Note_on_c, 2, 67, 79
3, 324000, Note_on_c, 2, 62, 79
3, 324000, Note_on_c, 2, 55, 79
3, 324000, Note_on_c, 2, 50, 79
3, 324000, Note_on_c, 2, 46, 79
3, 324000, Note_on_c, 2, 43, 79
3, 324240, Note_off_c, 2, 67, 79
3, 324240, Note_off_c, 2, 62, 79
3, 324240, Note_off_c, 2, 55, 79
3, 324240, Note_off_c, 2, 50, 79
3, 324240, Note_off_c, 2, 46, 79
3, 324240, Note_off_c, 2, 43, 79
3, 324240, Note_on_c, 2, 67, 79
3, 324240, Note_on_c, 2, 62, 79
3, 324240, Note_on_c, 2, 55, 79
3, 324240, Note_on_c, 2, 50, 79
3, 324240, Note_on_c, 2, 46, 79
3, 324240, Note_on_c, 2, 43, 79
3, 324480, Note_off_c, 2, 67, 79
3, 324480, Note_off_c, 2, 62, 79
3, 324480, Note_off_c, 2, 55, 79
3, 324480, Note_off_c, 2, 50, 79
3, 324480, Note_off_c, 2, 46, 79
3, 324480, Note_off_c, 2, 43, 79
3, 324480, Note_on_c, 2, 67, 79
3, 324480, Note_on_c, 2, 62, 79
3, 324480, Note_on_c, 2, 55, 79
3, 324480, Note_on_c, 2, 50, 79
3, 324480, Note_on_c, 2, 46, 79
3, 324480, Note_on_c, 2, 43, 79
3, 324720, Note_off_c, 2, 67, 79
3, 324720, Note_off_c, 2, 62, 79
3, 324720, Note_off_c, 2, 55, 79
3, 324720, Note_off_c, 2, 50, 79
3, 324720, Note_off_c, 2, 46, 79
3, 324720, Note_off_c, 2, 43, 79
3, 324720, Note_on_c, 2, 67, 79
3, 324720, Note_on_c, 2, 62, 79
3, 324720, Note_on_c, 2, 55, 79
3, 324720, Note_on_c, 2, 50, 79
3, 324720, Note_on_c, 2, 46, 79
3, 324720, Note_on_c, 2, 43, 79
3, 324960, Note_off_c, 2, 67, 79
3, 324960, Note_off_c, 2, 62, 79
3, 324960, Note_off_c, 2, 55, 79
3, 324960, Note_off_c, 2, 50, 79
3, 324960, Note_off_c, 2, 46, 79
3, 324960, Note_off_c, 2, 43, 79
3, 324960, Note_on_c, 2, 67, 79
3, 324960, Note_on_c, 2, 62, 79
3, 324960, Note_on_c, 2, 55, 79
3, 324960, Note_on_c, 2, 50, 79
3, 324960, Note_on_c, 2, 46, 79
3, 324960, Note_on_c, 2, 43, 79
3, 325200, Note_off_c, 2, 67, 79
3, 325200, Note_off_c, 2, 62, 79
3, 325200, Note_off_c, 2, 55, 79
3, 325200, Note_off_c, 2, 50, 79
3, 325200, Note_off_c, 2, 46, 79
3, 325200, Note_off_c, 2, 43, 79
3, 325200, Note_on_c, 2, 67, 79
3, 325200, Note_on_c, 2, 62, 79
3, 325200, Note_on_c, 2, 55, 79
3, 325200, Note_on_c, 2, 50, 79
3, 325200, Note_on_c, 2, 46, 79
3, 325200, Note_on_c, 2, 43, 79
3, 325440, Note_off_c, 2, 67, 79
3, 325440, Note_off_c, 2, 62, 79
3, 325440, Note_off_c, 2, 55, 79
3, 325440, Note_off_c, 2, 50, 79
3, 325440, Note_off_c, 2, 46, 79
3, 325440, Note_off_c, 2, 43, 79
3, 325440, Note_on_c, 2, 67, 79
3, 325440, Note_on_c, 2, 62, 79
3, 325440, Note_on_c, 2, 55, 79
3, 325440, Note_on_c, 2, 50, 79
3, 325440, Note_on_c, 2, 46, 79
3, 325440, Note_on_c, 2, 43, 79
3, 325680, Note_off_c, 2, 67, 79
3, 325680, Note_off_c, 2, 62, 79
3, 325680, Note_off_c, 2, 55, 79
3, 325680, Note_off_c, 2, 50, 79
3, 325680, Note_off_c, 2, 46, 79
3, 325680, Note_off_c, 2, 43, 79
3, 325680, Note_on_c, 2, 67, 79
3, 325680, Note_on_c, 2, 62, 79
3, 325680, Note_on_c, 2, 55, 79
3, 325680, Note_on_c, 2, 50, 79
3, 325680, Note_on_c, 2, 46, 79
3, 325680, Note_on_c, 2, 43, 79
3, 325920, Note_off_c, 2, 67, 79
3, 325920, Note_off_c, 2, 62, 79
3, 325920, Note_off_c, 2, 55, 79
3, 325920, Note_off_c, 2, 50, 79
3, 325920, Note_off_c, 2, 46, 79
3, 325920, Note_off_c, 2, 43, 79
3, 325920, Note_on_c, 2, 67, 79
3, 325920, Note_on_c, 2, 62, 79
3, 325920, Note_on_c, 2, 55, 79
3, 325920, Note_on_c, 2, 50, 79
3, 325920, Note_on_c, 2, 46, 79
3, 325920, Note_on_c, 2, 43, 79
3, 326160, Note_off_c, 2, 67, 79
3, 326160, Note_off_c, 2, 62, 79
3, 326160, Note_off_c, 2, 55, 79
3, 326160, Note_off_c, 2, 50, 79
3, 326160, Note_off_c, 2, 46, 79
3, 326160, Note_off_c, 2, 43, 79
3, 326160, Note_on_c, 2, 67, 79
3, 326160, Note_on_c, 2, 62, 79
3, 326160, Note_on_c, 2, 55, 79
3, 326160, Note_on_c, 2, 50, 79
3, 326160, Note_on_c, 2, 46, 79
3, 326160, Note_on_c, 2, 43, 79
3, 326400, Note_off_c, 2, 67, 79
3, 326400, Note_off_c, 2, 62, 79
3, 326400, Note_off_c, 2, 55, 79
3, 326400, Note_off_c, 2, 50, 79
3, 326400, Note_off_c, 2, 46, 79
3, 326400, Note_off_c, 2, 43, 79
3, 326400, Note_on_c, 2, 67, 79
3, 326400, Note_on_c, 2, 62, 79
3, 326400, Note_on_c, 2, 55, 79
3, 326400, Note_on_c, 2, 50, 79
3, 326400, Note_on_c, 2, 46, 79
3, 326400, Note_on_c, 2, 43, 79
3, 326880, Note_off_c, 2, 67, 79
3, 326880, Note_off_c, 2, 62, 79
3, 326880, Note_off_c, 2, 55, 79
3, 326880, Note_off_c, 2, 50, 79
3, 326880, Note_off_c, 2, 46, 79
3, 326880, Note_off_c, 2, 43, 79
3, 326880, Note_on_c, 2, 67, 79
3, 326880, Note_on_c, 2, 62, 79
3, 326880, Note_on_c, 2, 55, 79
3, 326880, Note_on_c, 2, 50, 79
3, 326880, Note_on_c, 2, 46, 79
3, 326880, Note_on_c, 2, 43, 79
3, 327120, Note_off_c, 2, 67, 79
3, 327120, Note_off_c, 2, 62, 79
3, 327120, Note_off_c, 2, 55, 79
3, 327120, Note_off_c, 2, 50, 79
3, 327120, Note_off_c, 2, 46, 79
3, 327120, Note_off_c, 2, 43, 79
3, 327120, Note_on_c, 2, 67, 79
3, 327120, Note_on_c, 2, 62, 79
3, 327120, Note_on_c, 2, 55, 79
3, 327120, Note_on_c, 2, 50, 79
3, 327120, Note_on_c, 2, 46, 79
3, 327120, Note_on_c, 2, 43, 79
3, 327360, Note_off_c, 2, 67, 79
3, 327360, Note_off_c, 2, 62, 79
3, 327360, Note_off_c, 2, 55, 79
3, 327360, Note_off_c, 2, 50, 79
3, 327360, Note_off_c, 2, 46, 79
3, 327360, Note_off_c, 2, 43, 79
3, 327360, Note_on_c, 2, 67, 79
3, 327360, Note_on_c, 2, 62, 79
3, 327360, Note_on_c, 2, 55, 79
3, 327360, Note_on_c, 2, 50, 79
3, 327360, Note_on_c, 2, 46, 79
3, 327360, Note_on_c, 2, 43, 79
3, 327840, Note_off_c, 2, 67, 79
3, 327840, Note_off_c, 2, 62, 79
3, 327840, Note_off_c, 2, 55, 79
3, 327840, Note_off_c, 2, 50, 79
3, 327840, Note_off_c, 2, 46, 79
3, 327840, Note_off_c, 2, 43, 79
3, 327840, Note_on_c, 2, 67, 79
3, 327840, Note_on_c, 2, 62, 79
3, 327840, Note_on_c, 2, 55, 79
3, 327840, Note_on_c, 2, 50, 79
3, 327840, Note_on_c, 2, 46, 79
3, 327840, Note_on_c, 2, 43, 79
3, 328080, Note_off_c, 2, 67, 79
3, 328080, Note_off_c, 2, 62, 79
3, 328080, Note_off_c, 2, 55, 79
3, 328080, Note_off_c, 2, 50, 79
3, 328080, Note_off_c, 2, 46, 79
3, 328080, Note_off_c, 2, 43, 79
3, 328080, Note_on_c, 2, 67, 79
3, 328080, Note_on_c, 2, 62, 79
3, 328080, Note_on_c, 2, 55, 79
3, 328080, Note_on_c, 2, 50, 79
3, 328080, Note_on_c, 2, 46, 79
3, 328080, Note_on_c, 2, 43, 79
3, 328320, Note_off_c, 2, 67, 79
3, 328320, Note_off_c, 2, 62, 79
3, 328320, Note_off_c, 2, 55, 79
3, 328320, Note_off_c, 2, 50, 79
3, 328320, Note_off_c, 2, 46, 79
3, 328320, Note_off_c, 2, 43, 79
3, 328320, Note_on_c, 2, 67, 79
3, 328320, Note_on_c, 2, 62, 79
3, 328320, Note_on_c, 2, 55, 79
3, 328320, Note_on_c, 2, 50, 79
3, 328320, Note_on_c, 2, 46, 79
3, 328320, Note_on_c, 2, 43, 79
3, 328560, Note_off_c, 2, 67, 79
3, 328560, Note_off_c, 2, 62, 79
3, 328560, Note_off_c, 2, 55, 79
3, 328560, Note_off_c, 2, 50, 79
3, 328560, Note_off_c, 2, 46, 79
3, 328560, Note_off_c, 2, 43, 79
3, 328560, Note_on_c, 2, 67, 79
3, 328560, Note_on_c, 2, 62, 79
3, 328560, Note_on_c, 2, 55, 79
3, 328560, Note_on_c, 2, 50, 79
3, 328560, Note_on_c, 2, 46, 79
3, 328560, Note_on_c, 2, 43, 79
3, 328800, Note_off_c, 2, 67, 79
3, 328800, Note_off_c, 2, 62, 79
3, 328800, Note_off_c, 2, 55, 79
3, 328800, Note_off_c, 2, 50, 79
3, 328800, Note_off_c, 2, 46, 79
3, 328800, Note_off_c, 2, 43, 79
3, 328800, Note_on_c, 2, 67, 79
3, 328800, Note_on_c, 2, 62, 79
3, 328800, Note_on_c, 2, 55, 79
3, 328800, Note_on_c, 2, 50, 79
3, 328800, Note_on_c, 2, 46, 79
3, 328800, Note_on_c, 2, 43, 79
3, 329040, Note_off_c, 2, 67, 79
3, 329040, Note_off_c, 2, 62, 79
3, 329040, Note_off_c, 2, 55, 79
3, 329040, Note_off_c, 2, 50, 79
3, 329040, Note_off_c, 2, 46, 79
3, 329040, Note_off_c, 2, 43, 79
3, 329040, Note_on_c, 2, 67, 79
3, 329040, Note_on_c, 2, 62, 79
3, 329040, Note_on_c, 2, 55, 79
3, 329040, Note_on_c, 2, 50, 79
3, 329040, Note_on_c, 2, 46, 79
3, 329040, Note_on_c, 2, 43, 79
3, 329280, Note_off_c, 2, 67, 79
3, 329280, Note_off_c, 2, 62, 79
3, 329280, Note_off_c, 2, 55, 79
3, 329280, Note_off_c, 2, 50, 79
3, 329280, Note_off_c, 2, 46, 79
3, 329280, Note_off_c, 2, 43, 79
3, 329280, Note_on_c, 2, 67, 79
3, 329280, Note_on_c, 2, 62, 79
3, 329280, Note_on_c, 2, 55, 79
3, 329280, Note_on_c, 2, 50, 79
3, 329280, Note_on_c, 2, 46, 79
3, 329280, Note_on_c, 2, 43, 79
3, 329520, Note_off_c, 2, 67, 79
3, 329520, Note_off_c, 2, 62, 79
3, 329520, Note_off_c, 2, 55, 79
3, 329520, Note_off_c, 2, 50, 79
3, 329520, Note_off_c, 2, 46, 79
3, 329520, Note_off_c, 2, 43, 79
3, 329520, Note_on_c, 2, 67, 79
3, 329520, Note_on_c, 2, 62, 79
3, 329520, Note_on_c, 2, 55, 79
3, 329520, Note_on_c, 2, 50, 79
3, 329520, Note_on_c, 2, 46, 79
3, 329520, Note_on_c, 2, 43, 79
3, 329760, Note_off_c, 2, 67, 79
3, 329760, Note_off_c, 2, 62, 79
3, 329760, Note_off_c, 2, 55, 79
3, 329760, Note_off_c, 2, 50, 79
3, 329760, Note_off_c, 2, 46, 79
3, 329760, Note_off_c, 2, 43, 79
3, 329760, Note_on_c, 2, 67, 79
3, 329760, Note_on_c, 2, 62, 79
3, 329760, Note_on_c, 2, 55, 79
3, 329760, Note_on_c, 2, 50, 79
3, 329760, Note_on_c, 2, 46, 79
3, 329760, Note_on_c, 2, 43, 79
3, 330000, Note_off_c, 2, 67, 79
3, 330000, Note_off_c, 2, 62, 79
3, 330000, Note_off_c, 2, 55, 79
3, 330000, Note_off_c, 2, 50, 79
3, 330000, Note_off_c, 2, 46, 79
3, 330000, Note_off_c, 2, 43, 79
3, 330000, Note_on_c, 2, 67, 79
3, 330000, Note_on_c, 2, 62, 79
3, 330000, Note_on_c, 2, 55, 79
3, 330000, Note_on_c, 2, 50, 79
3, 330000, Note_on_c, 2, 46, 79
3, 330000, Note_on_c, 2, 43, 79
3, 330240, Note_off_c, 2, 67, 79
3, 330240, Note_off_c, 2, 62, 79
3, 330240, Note_off_c, 2, 55, 79
3, 330240, Note_off_c, 2, 50, 79
3, 330240, Note_off_c, 2, 46, 79
3, 330240, Note_off_c, 2, 43, 79
3, 330240, Note_on_c, 2, 67, 79
3, 330240, Note_on_c, 2, 62, 79
3, 330240, Note_on_c, 2, 55, 79
3, 330240, Note_on_c, 2, 50, 79
3, 330240, Note_on_c, 2, 46, 79
3, 330240, Note_on_c, 2, 43, 79
3, 330720, Note_off_c, 2, 67, 79
3, 330720, Note_off_c, 2, 62, 79
3, 330720, Note_off_c, 2, 55, 79
3, 330720, Note_off_c, 2, 50, 79
3, 330720, Note_off_c, 2, 46, 79
3, 330720, Note_off_c, 2, 43, 79
3, 330720, Note_on_c, 2, 67, 79
3, 330720, Note_on_c, 2, 62, 79
3, 330720, Note_on_c, 2, 55, 79
3, 330720, Note_on_c, 2, 50, 79
3, 330720, Note_on_c, 2, 46, 79
3, 330720, Note_on_c, 2, 43, 79
3, 330960, Note_off_c, 2, 67, 79
3, 330960, Note_off_c, 2, 62, 79
3, 330960, Note_off_c, 2, 55, 79
3, 330960, Note_off_c, 2, 50, 79
3, 330960, Note_off_c, 2, 46, 79
3, 330960, Note_off_c, 2, 43, 79
3, 330960, Note_on_c, 2, 67, 79
3, 330960, Note_on_c, 2, 62, 79
3, 330960, Note_on_c, 2, 55, 79
3, 330960, Note_on_c, 2, 50, 79
3, 330960, Note_on_c, 2, 46, 79
3, 330960, Note_on_c, 2, 43, 79
3, 331200, Note_off_c, 2, 67, 79
3, 331200, Note_off_c, 2, 62, 79
3, 331200, Note_off_c, 2, 55, 79
3, 331200, Note_off_c, 2, 50, 79
3, 331200, Note_off_c, 2, 46, 79
3, 331200, Note_off_c, 2, 43, 79
3, 331200, Note_on_c, 2, 67, 79
3, 331200, Note_on_c, 2, 62, 79
3, 331200, Note_on_c, 2, 55, 79
3, 331200, Note_on_c, 2, 50, 79
3, 331200, Note_on_c, 2, 46, 79
3, 331200, Note_on_c, 2, 43, 79
3, 331680, Note_off_c, 2, 67, 79
3, 331680, Note_off_c, 2, 62, 79
3, 331680, Note_off_c, 2, 55, 79
3, 331680, Note_off_c, 2, 50, 79
3, 331680, Note_off_c, 2, 46, 79
3, 331680, Note_off_c, 2, 43, 79
3, 331680, Note_on_c, 2, 67, 79
3, 331680, Note_on_c, 2, 62, 79
3, 331680, Note_on_c, 2, 55, 79
3, 331680, Note_on_c, 2, 50, 79
3, 331680, Note_on_c, 2, 46, 79
3, 331680, Note_on_c, 2, 43, 79
3, 331920, Note_off_c, 2, 67, 79
3, 331920, Note_off_c, 2, 62, 79
3, 331920, Note_off_c, 2, 55, 79
3, 331920, Note_off_c, 2, 50, 79
3, 331920, Note_off_c, 2, 46, 79
3, 331920, Note_off_c, 2, 43, 79
3, 331920, Note_on_c, 2, 67, 79
3, 331920, Note_on_c, 2, 62, 79
3, 331920, Note_on_c, 2, 55, 79
3, 331920, Note_on_c, 2, 50, 79
3, 331920, Note_on_c, 2, 46, 79
3, 331920, Note_on_c, 2, 43, 79
3, 332160, Note_off_c, 2, 67, 79
3, 332160, Note_off_c, 2, 62, 79
3, 332160, Note_off_c, 2, 55, 79
3, 332160, Note_off_c, 2, 50, 79
3, 332160, Note_off_c, 2, 46, 79
3, 332160, Note_off_c, 2, 43, 79
3, 332160, Note_on_c, 2, 67, 79
3, 332160, Note_on_c, 2, 62, 79
3, 332160, Note_on_c, 2, 55, 79
3, 332160, Note_on_c, 2, 50, 79
3, 332160, Note_on_c, 2, 46, 79
3, 332160, Note_on_c, 2, 43, 79
3, 332400, Note_off_c, 2, 67, 79
3, 332400, Note_off_c, 2, 62, 79
3, 332400, Note_off_c, 2, 55, 79
3, 332400, Note_off_c, 2, 50, 79
3, 332400, Note_off_c, 2, 46, 79
3, 332400, Note_off_c, 2, 43, 79
3, 332400, Note_on_c, 2, 67, 79
3, 332400, Note_on_c, 2, 62, 79
3, 332400, Note_on_c, 2, 55, 79
3, 332400, Note_on_c, 2, 50, 79
3, 332400, Note_on_c, 2, 46, 79
3, 332400, Note_on_c, 2, 43, 79
3, 332640, Note_off_c, 2, 67, 79
3, 332640, Note_off_c, 2, 62, 79
3, 332640, Note_off_c, 2, 55, 79
3, 332640, Note_off_c, 2, 50, 79
3, 332640, Note_off_c, 2, 46, 79
3, 332640, Note_off_c, 2, 43, 79
3, 332640, Note_on_c, 2, 67, 79
3, 332640, Note_on_c, 2, 62, 79
3, 332640, Note_on_c, 2, 55, 79
3, 332640, Note_on_c, 2, 50, 79
3, 332640, Note_on_c, 2, 46, 79
3, 332640, Note_on_c, 2, 43, 79
3, 332880, Note_off_c, 2, 67, 79
3, 332880, Note_off_c, 2, 62, 79
3, 332880, Note_off_c, 2, 55, 79
3, 332880, Note_off_c, 2, 50, 79
3, 332880, Note_off_c, 2, 46, 79
3, 332880, Note_off_c, 2, 43, 79
3, 332880, Note_on_c, 2, 67, 79
3, 332880, Note_on_c, 2, 62, 79
3, 332880, Note_on_c, 2, 55, 79
3, 332880, Note_on_c, 2, 50, 79
3, 332880, Note_on_c, 2, 46, 79
3, 332880, Note_on_c, 2, 43, 79
3, 333120, Note_off_c, 2, 67, 79
3, 333120, Note_off_c, 2, 62, 79
3, 333120, Note_off_c, 2, 55, 79
3, 333120, Note_off_c, 2, 50, 79
3, 333120, Note_off_c, 2, 46, 79
3, 333120, Note_off_c, 2, 43, 79
3, 333120, Note_on_c, 2, 67, 79
3, 333120, Note_on_c, 2, 62, 79
3, 333120, Note_on_c, 2, 55, 79
3, 333120, Note_on_c, 2, 50, 79
3, 333120, Note_on_c, 2, 46, 79
3, 333120, Note_on_c, 2, 43, 79
3, 333360, Note_off_c, 2, 67, 79
3, 333360, Note_off_c, 2, 62, 79
3, 333360, Note_off_c, 2, 55, 79
3, 333360, Note_off_c, 2, 50, 79
3, 333360, Note_off_c, 2, 46, 79
3, 333360, Note_off_c, 2, 43, 79
3, 333360, Note_on_c, 2, 67, 79
3, 333360, Note_on_c, 2, 62, 79
3, 333360, Note_on_c, 2, 55, 79
3, 333360, Note_on_c, 2, 50, 79
3, 333360, Note_on_c, 2, 46, 79
3, 333360, Note_on_c, 2, 43, 79
3, 333600, Note_off_c, 2, 67, 79
3, 333600, Note_off_c, 2, 62, 79
3, 333600, Note_off_c, 2, 55, 79
3, 333600, Note_off_c, 2, 50, 79
3, 333600, Note_off_c, 2, 46, 79
3, 333600, Note_off_c, 2, 43, 79
3, 333600, Note_on_c, 2, 67, 79
3, 333600, Note_on_c, 2, 62, 79
3, 333600, Note_on_c, 2, 55, 79
3, 333600, Note_on_c, 2, 50, 79
3, 333600, Note_on_c, 2, 46, 79
3, 333600, Note_on_c, 2, 43, 79
3, 333840, Note_off_c, 2, 67, 79
3, 333840, Note_off_c, 2, 62, 79
3, 333840, Note_off_c, 2, 55, 79
3, 333840, Note_off_c, 2, 50, 79
3, 333840, Note_off_c, 2, 46, 79
3, 333840, Note_off_c, 2, 43, 79
3, 333840, Note_on_c, 2, 67, 79
3, 333840, Note_on_c, 2, 62, 79
3, 333840, Note_on_c, 2, 55, 79
3, 333840, Note_on_c, 2, 50, 79
3, 333840, Note_on_c, 2, 46, 79
3, 333840, Note_on_c, 2, 43, 79
3, 334080, Note_off_c, 2, 67, 79
3, 334080, Note_off_c, 2, 62, 79
3, 334080, Note_off_c, 2, 55, 79
3, 334080, Note_off_c, 2, 50, 79
3, 334080, Note_off_c, 2, 46, 79
3, 334080, Note_off_c, 2, 43, 79
3, 334080, Note_on_c, 2, 67, 79
3, 334080, Note_on_c, 2, 62, 79
3, 334080, Note_on_c, 2, 55, 79
3, 334080, Note_on_c, 2, 50, 79
3, 334080, Note_on_c, 2, 46, 79
3, 334080, Note_on_c, 2, 43, 79
3, 334560, Note_off_c, 2, 67, 79
3, 334560, Note_off_c, 2, 62, 79
3, 334560, Note_off_c, 2, 55, 79
3, 334560, Note_off_c, 2, 50, 79
3, 334560, Note_off_c, 2, 46, 79
3, 334560, Note_off_c, 2, 43, 79
3, 334560, Note_on_c, 2, 67, 79
3, 334560, Note_on_c, 2, 62, 79
3, 334560, Note_on_c, 2, 55, 79
3, 334560, Note_on_c, 2, 50, 79
3, 334560, Note_on_c, 2, 46, 79
3, 334560, Note_on_c, 2, 43, 79
3, 334800, Note_off_c, 2, 67, 79
3, 334800, Note_off_c, 2, 62, 79
3, 334800, Note_off_c, 2, 55, 79
3, 334800, Note_off_c, 2, 50, 79
3, 334800, Note_off_c, 2, 46, 79
3, 334800, Note_off_c, 2, 43, 79
3, 334800, Note_on_c, 2, 67, 79
3, 334800, Note_on_c, 2, 62, 79
3, 334800, Note_on_c, 2, 55, 79
3, 334800, Note_on_c, 2, 50, 79
3, 334800, Note_on_c, 2, 46, 79
3, 334800, Note_on_c, 2, 43, 79
3, 335040, Note_off_c, 2, 67, 79
3, 335040, Note_off_c, 2, 62, 79
3, 335040, Note_off_c, 2, 55, 79
3, 335040, Note_off_c, 2, 50, 79
3, 335040, Note_off_c, 2, 46, 79
3, 335040, Note_off_c, 2, 43, 79
3, 335040, Note_on_c, 2, 67, 79
3, 335040, Note_on_c, 2, 62, 79
3, 335040, Note_on_c, 2, 55, 79
3, 335040, Note_on_c, 2, 50, 79
3, 335040, Note_on_c, 2, 46, 79
3, 335040, Note_on_c, 2, 43, 79
3, 335520, Note_off_c, 2, 67, 79
3, 335520, Note_off_c, 2, 62, 79
3, 335520, Note_off_c, 2, 55, 79
3, 335520, Note_off_c, 2, 50, 79
3, 335520, Note_off_c, 2, 46, 79
3, 335520, Note_off_c, 2, 43, 79
3, 335520, Note_on_c, 2, 67, 79
3, 335520, Note_on_c, 2, 62, 79
3, 335520, Note_on_c, 2, 55, 79
3, 335520, Note_on_c, 2, 50, 79
3, 335520, Note_on_c, 2, 46, 79
3, 335520, Note_on_c, 2, 43, 79
3, 335760, Note_off_c, 2, 67, 79
3, 335760, Note_off_c, 2, 62, 79
3, 335760, Note_off_c, 2, 55, 79
3, 335760, Note_off_c, 2, 50, 79
3, 335760, Note_off_c, 2, 46, 79
3, 335760, Note_off_c, 2, 43, 79
3, 335760, Note_on_c, 2, 67, 79
3, 335760, Note_on_c, 2, 62, 79
3, 335760, Note_on_c, 2, 55, 79
3, 335760, Note_on_c, 2, 50, 79
3, 335760, Note_on_c, 2, 46, 79
3, 335760, Note_on_c, 2, 43, 79
3, 336000, Note_off_c, 2, 67, 79
3, 336000, Note_off_c, 2, 62, 79
3, 336000, Note_off_c, 2, 55, 79
3, 336000, Note_off_c, 2, 50, 79
3, 336000, Note_off_c, 2, 46, 79
3, 336000, Note_off_c, 2, 43, 79
3, 336000, Note_on_c, 2, 67, 79
3, 336000, Note_on_c, 2, 62, 79
3, 336000, Note_on_c, 2, 55, 79
3, 336000, Note_on_c, 2, 50, 79
3, 336000, Note_on_c, 2, 46, 79
3, 336000, Note_on_c, 2, 43, 79
3, 336240, Note_off_c, 2, 67, 79
3, 336240, Note_off_c, 2, 62, 79
3, 336240, Note_off_c, 2, 55, 79
3, 336240, Note_off_c, 2, 50, 79
3, 336240, Note_off_c, 2, 46, 79
3, 336240, Note_off_c, 2, 43, 79
3, 336240, Note_on_c, 2, 67, 79
3, 336240, Note_on_c, 2, 62, 79
3, 336240, Note_on_c, 2, 55, 79
3, 336240, Note_on_c, 2, 50, 79
3, 336240, Note_on_c, 2, 46, 79
3, 336240, Note_on_c, 2, 43, 79
3, 336480, Note_off_c, 2, 67, 79
3, 336480, Note_off_c, 2, 62, 79
3, 336480, Note_off_c, 2, 55, 79
3, 336480, Note_off_c, 2, 50, 79
3, 336480, Note_off_c, 2, 46, 79
3, 336480, Note_off_c, 2, 43, 79
3, 336480, Note_on_c, 2, 67, 79
3, 336480, Note_on_c, 2, 62, 79
3, 336480, Note_on_c, 2, 55, 79
3, 336480, Note_on_c, 2, 50, 79
3, 336480, Note_on_c, 2, 46, 79
3, 336480, Note_on_c, 2, 43, 79
3, 336720, Note_off_c, 2, 67, 79
3, 336720, Note_off_c, 2, 62, 79
3, 336720, Note_off_c, 2, 55, 79
3, 336720, Note_off_c, 2, 50, 79
3, 336720, Note_off_c, 2, 46, 79
3, 336720, Note_off_c, 2, 43, 79
3, 336720, Note_on_c, 2, 67, 79
3, 336720, Note_on_c, 2, 62, 79
3, 336720, Note_on_c, 2, 55, 79
3, 336720, Note_on_c, 2, 50, 79
3, 336720, Note_on_c, 2, 46, 79
3, 336720, Note_on_c, 2, 43, 79
3, 336960, Note_off_c, 2, 67, 79
3, 336960, Note_off_c, 2, 62, 79
3, 336960, Note_off_c, 2, 55, 79
3, 336960, Note_off_c, 2, 50, 79
3, 336960, Note_off_c, 2, 46, 79
3, 336960, Note_off_c, 2, 43, 79
3, 336960, Note_on_c, 2, 67, 79
3, 336960, Note_on_c, 2, 62, 79
3, 336960, Note_on_c, 2, 55, 79
3, 336960, Note_on_c, 2, 50, 79
3, 336960, Note_on_c, 2, 46, 79
3, 336960, Note_on_c, 2, 43, 79
3, 337200, Note_off_c, 2, 67, 79
3, 337200, Note_off_c, 2, 62, 79
3, 337200, Note_off_c, 2, 55, 79
3, 337200, Note_off_c, 2, 50, 79
3, 337200, Note_off_c, 2, 46, 79
3, 337200, Note_off_c, 2, 43, 79
3, 337200, Note_on_c, 2, 67, 79
3, 337200, Note_on_c, 2, 62, 79
3, 337200, Note_on_c, 2, 55, 79
3, 337200, Note_on_c, 2, 50, 79
3, 337200, Note_on_c, 2, 46, 79
3, 337200, Note_on_c, 2, 43, 79
3, 337440, Note_off_c, 2, 67, 79
3, 337440, Note_off_c, 2, 62, 79
3, 337440, Note_off_c, 2, 55, 79
3, 337440, Note_off_c, 2, 50, 79
3, 337440, Note_off_c, 2, 46, 79
3, 337440, Note_off_c, 2, 43, 79
3, 337440, Note_on_c, 2, 67, 79
3, 337440, Note_on_c, 2, 62, 79
3, 337440, Note_on_c, 2, 55, 79
3, 337440, Note_on_c, 2, 50, 79
3, 337440, Note_on_c, 2, 46, 79
3, 337440, Note_on_c, 2, 43, 79
3, 337680, Note_off_c, 2, 67, 79
3, 337680, Note_off_c, 2, 62, 79
3, 337680, Note_off_c, 2, 55, 79
3, 337680, Note_off_c, 2, 50, 79
3, 337680, Note_off_c, 2, 46, 79
3, 337680, Note_off_c, 2, 43, 79
3, 337680, Note_on_c, 2, 67, 79
3, 337680, Note_on_c, 2, 62, 79
3, 337680, Note_on_c, 2, 55, 79
3, 337680, Note_on_c, 2, 50, 79
3, 337680, Note_on_c, 2, 46, 79
3, 337680, Note_on_c, 2, 43, 79
3, 337920, Note_off_c, 2, 67, 79
3, 337920, Note_off_c, 2, 62, 79
3, 337920, Note_off_c, 2, 55, 79
3, 337920, Note_off_c, 2, 50, 79
3, 337920, Note_off_c, 2, 46, 79
3, 337920, Note_off_c, 2, 43, 79
3, 337920, Note_on_c, 2, 67, 79
3, 337920, Note_on_c, 2, 62, 79
3, 337920, Note_on_c, 2, 55, 79
3, 337920, Note_on_c, 2, 50, 79
3, 337920, Note_on_c, 2, 46, 79
3, 337920, Note_on_c, 2, 43, 79
3, 338400, Note_off_c, 2, 67, 79
3, 338400, Note_off_c, 2, 62, 79
3, 338400, Note_off_c, 2, 55, 79
3, 338400, Note_off_c, 2, 50, 79
3, 338400, Note_off_c, 2, 46, 79
3, 338400, Note_off_c, 2, 43, 79
3, 338400, Note_on_c, 2, 67, 79
3, 338400, Note_on_c, 2, 62, 79
3, 338400, Note_on_c, 2, 55, 79
3, 338400, Note_on_c, 2, 50, 79
3, 338400, Note_on_c, 2, 46, 79
3, 338400, Note_on_c, 2, 43, 79
3, 338640, Note_off_c, 2, 67, 79
3, 338640, Note_off_c, 2, 62, 79
3, 338640, Note_off_c, 2, 55, 79
3, 338640, Note_off_c, 2, 50, 79
3, 338640, Note_off_c, 2, 46, 79
3, 338640, Note_off_c, 2, 43, 79
3, 338640, Note_on_c, 2, 67, 79
3, 338640, Note_on_c, 2, 62, 79
3, 338640, Note_on_c, 2, 55, 79
3, 338640, Note_on_c, 2, 50, 79
3, 338640, Note_on_c, 2, 46, 79
3, 338640, Note_on_c, 2, 43, 79
3, 338880, Note_off_c, 2, 67, 79
3, 338880, Note_off_c, 2, 62, 79
3, 338880, Note_off_c, 2, 55, 79
3, 338880, Note_off_c, 2, 50, 79
3, 338880, Note_off_c, 2, 46, 79
3, 338880, Note_off_c, 2, 43, 79
3, 338880, Note_on_c, 2, 67, 79
3, 338880, Note_on_c, 2, 62, 79
3, 338880, Note_on_c, 2, 55, 79
3, 338880, Note_on_c, 2, 50, 79
3, 338880, Note_on_c, 2, 46, 79
3, 338880, Note_on_c, 2, 43, 79
3, 339360, Note_off_c, 2, 67, 79
3, 339360, Note_off_c, 2, 62, 79
3, 339360, Note_off_c, 2, 55, 79
3, 339360, Note_off_c, 2, 50, 79
3, 339360, Note_off_c, 2, 46, 79
3, 339360, Note_off_c, 2, 43, 79
3, 339360, Note_on_c, 2, 67, 79
3, 339360, Note_on_c, 2, 62, 79
3, 339360, Note_on_c, 2, 55, 79
3, 339360, Note_on_c, 2, 50, 79
3, 339360, Note_on_c, 2, 46, 79
3, 339360, Note_on_c, 2, 43, 79
3, 339600, Note_off_c, 2, 67, 79
3, 339600, Note_off_c, 2, 62, 79
3, 339600, Note_off_c, 2, 55, 79
3, 339600, Note_off_c, 2, 50, 79
3, 339600, Note_off_c, 2, 46, 79
3, 339600, Note_off_c, 2, 43, 79
3, 339600, Note_on_c, 2, 67, 79
3, 339600, Note_on_c, 2, 62, 79
3, 339600, Note_on_c, 2, 55, 79
3, 339600, Note_on_c, 2, 50, 79
3, 339600, Note_on_c, 2, 46, 79
3, 339600, Note_on_c, 2, 43, 79
3, 339840, Note_off_c, 2, 67, 79
3, 339840, Note_off_c, 2, 62, 79
3, 339840, Note_off_c, 2, 55, 79
3, 339840, Note_off_c, 2, 50, 79
3, 339840, Note_off_c, 2, 46, 79
3, 339840, Note_off_c, 2, 43, 79
3, 339840, Note_on_c, 2, 67, 79
3, 339840, Note_on_c, 2, 62, 79
3, 339840, Note_on_c, 2, 55, 79
3, 339840, Note_on_c, 2, 50, 79
3, 339840, Note_on_c, 2, 46, 79
3, 339840, Note_on_c, 2, 43, 79
3, 340080, Note_off_c, 2, 67, 79
3, 340080, Note_off_c, 2, 62, 79
3, 340080, Note_off_c, 2, 55, 79
3, 340080, Note_off_c, 2, 50, 79
3, 340080, Note_off_c, 2, 46, 79
3, 340080, Note_off_c, 2, 43, 79
3, 340080, Note_on_c, 2, 67, 79
3, 340080, Note_on_c, 2, 62, 79
3, 340080, Note_on_c, 2, 55, 79
3, 340080, Note_on_c, 2, 50, 79
3, 340080, Note_on_c, 2, 46, 79
3, 340080, Note_on_c, 2, 43, 79
3, 340320, Note_off_c, 2, 67, 79
3, 340320, Note_off_c, 2, 62, 79
3, 340320, Note_off_c, 2, 55, 79
3, 340320, Note_off_c, 2, 50, 79
3, 340320, Note_off_c, 2, 46, 79
3, 340320, Note_off_c, 2, 43, 79
3, 340320, Note_on_c, 2, 67, 79
3, 340320, Note_on_c, 2, 62, 79
3, 340320, Note_on_c, 2, 55, 79
3, 340320, Note_on_c, 2, 50, 79
3, 340320, Note_on_c, 2, 46, 79
3, 340320, Note_on_c, 2, 43, 79
3, 340560, Note_off_c, 2, 67, 79
3, 340560, Note_off_c, 2, 62, 79
3, 340560, Note_off_c, 2, 55, 79
3, 340560, Note_off_c, 2, 50, 79
3, 340560, Note_off_c, 2, 46, 79
3, 340560, Note_off_c, 2, 43, 79
3, 340560, Note_on_c, 2, 67, 79
3, 340560, Note_on_c, 2, 62, 79
3, 340560, Note_on_c, 2, 55, 79
3, 340560, Note_on_c, 2, 50, 79
3, 340560, Note_on_c, 2, 46, 79
3, 340560, Note_on_c, 2, 43, 79
3, 340800, Note_off_c, 2, 67, 79
3, 340800, Note_off_c, 2, 62, 79
3, 340800, Note_off_c, 2, 55, 79
3, 340800, Note_off_c, 2, 50, 79
3, 340800, Note_off_c, 2, 46, 79
3, 340800, Note_off_c, 2, 43, 79
3, 340800, Note_on_c, 2, 67, 79
3, 340800, Note_on_c, 2, 62, 79
3, 340800, Note_on_c, 2, 55, 79
3, 340800, Note_on_c, 2, 50, 79
3, 340800, Note_on_c, 2, 46, 79
3, 340800, Note_on_c, 2, 43, 79
3, 341040, Note_off_c, 2, 67, 79
3, 341040, Note_off_c, 2, 62, 79
3, 341040, Note_off_c, 2, 55, 79
3, 341040, Note_off_c, 2, 50, 79
3, 341040, Note_off_c, 2, 46, 79
3, 341040, Note_off_c, 2, 43, 79
3, 341040, Note_on_c, 2, 67, 79
3, 341040, Note_on_c, 2, 62, 79
3, 341040, Note_on_c, 2, 55, 79
3, 341040, Note_on_c, 2, 50, 79
3, 341040, Note_on_c, 2, 46, 79
3, 341040, Note_on_c, 2, 43, 79
3, 341280, Note_off_c, 2, 67, 79
3, 341280, Note_off_c, 2, 62, 79
3, 341280, Note_off_c, 2, 55, 79
3, 341280, Note_off_c, 2, 50, 79
3, 341280, Note_off_c, 2, 46, 79
3, 341280, Note_off_c, 2, 43, 79
3, 341280, Note_on_c, 2, 67, 79
3, 341280, Note_on_c, 2, 62, 79
3, 341280, Note_on_c, 2, 55, 79
3, 341280, Note_on_c, 2, 50, 79
3, 341280, Note_on_c, 2, 46, 79
3, 341280, Note_on_c, 2, 43, 79
3, 341520, Note_off_c, 2, 67, 79
3, 341520, Note_off_c, 2, 62, 79
3, 341520, Note_off_c, 2, 55, 79
3, 341520, Note_off_c, 2, 50, 79
3, 341520, Note_off_c, 2, 46, 79
3, 341520, Note_off_c, 2, 43, 79
3, 341520, Note_on_c, 2, 67, 79
3, 341520, Note_on_c, 2, 62, 79
3, 341520, Note_on_c, 2, 55, 79
3, 341520, Note_on_c, 2, 50, 79
3, 341520, Note_on_c, 2, 46, 79
3, 341520, Note_on_c, 2, 43, 79
3, 341760, Note_off_c, 2, 67, 79
3, 341760, Note_off_c, 2, 62, 79
3, 341760, Note_off_c, 2, 55, 79
3, 341760, Note_off_c, 2, 50, 79
3, 341760, Note_off_c, 2, 46, 79
3, 341760, Note_off_c, 2, 43, 79
3, 341760, Note_on_c, 2, 65, 79
3, 341760, Note_on_c, 2, 62, 79
3, 341760, Note_on_c, 2, 58, 79
3, 341760, Note_on_c, 2, 50, 79
3, 341760, Note_on_c, 2, 46, 79
3, 342240, Note_off_c, 2, 65, 79
3, 342240, Note_off_c, 2, 62, 79
3, 342240, Note_off_c, 2, 58, 79
3, 342240, Note_off_c, 2, 50, 79
3, 342240, Note_off_c, 2, 46, 79
3, 342240, Note_on_c, 2, 65, 79
3, 342240, Note_on_c, 2, 62, 79
3, 342240, Note_on_c, 2, 58, 79
3, 342240, Note_on_c, 2, 50, 79
3, 342240, Note_on_c, 2, 46, 79
3, 342480, Note_off_c, 2, 65, 79
3, 342480, Note_off_c, 2, 62, 79
3, 342480, Note_off_c, 2, 58, 79
3, 342480, Note_off_c, 2, 50, 79
3, 342480, Note_off_c, 2, 46, 79
3, 342480, Note_on_c, 2, 65, 79
3, 342480, Note_on_c, 2, 62, 79
3, 342480, Note_on_c, 2, 58, 79
3, 342480, Note_on_c, 2, 50, 79
3, 342480, Note_on_c, 2, 46, 79
3, 342720, Note_off_c, 2, 65, 79
3, 342720, Note_off_c, 2, 62, 79
3, 342720, Note_off_c, 2, 58, 79
3, 342720, Note_off_c, 2, 50, 79
3, 342720, Note_off_c, 2, 46, 79
3, 342720, Note_on_c, 2, 65, 79
3, 342720, Note_on_c, 2, 62, 79
3, 342720, Note_on_c, 2, 58, 79
3, 342720, Note_on_c, 2, 50, 79
3, 342720, Note_on_c, 2, 46, 79
3, 343200, Note_off_c, 2, 65, 79
3, 343200, Note_off_c, 2, 62, 79
3, 343200, Note_off_c, 2, 58, 79
3, 343200, Note_off_c, 2, 50, 79
3, 343200, Note_off_c, 2, 46, 79
3, 343200, Note_on_c, 2, 65, 79
3, 343200, Note_on_c, 2, 62, 79
3, 343200, Note_on_c, 2, 58, 79
3, 343200, Note_on_c, 2, 50, 79
3, 343200, Note_on_c, 2, 46, 79
3, 343440, Note_off_c, 2, 65, 79
3, 343440, Note_off_c, 2, 62, 79
3, 343440, Note_off_c, 2, 58, 79
3, 343440, Note_off_c, 2, 50, 79
3, 343440, Note_off_c, 2, 46, 79
3, 343440, Note_on_c, 2, 65, 79
3, 343440, Note_on_c, 2, 62, 79
3, 343440, Note_on_c, 2, 58, 79
3, 343440, Note_on_c, 2, 50, 79
3, 343440, Note_on_c, 2, 46, 79
3, 343680, Note_off_c, 2, 65, 79
3, 343680, Note_off_c, 2, 62, 79
3, 343680, Note_off_c, 2, 58, 79
3, 343680, Note_off_c, 2, 50, 79
3, 343680, Note_off_c, 2, 46, 79
3, 343680, Note_on_c, 2, 65, 79
3, 343680, Note_on_c, 2, 62, 79
3, 343680, Note_on_c, 2, 58, 79
3, 343680, Note_on_c, 2, 50, 79
3, 343680, Note_on_c, 2, 46, 79
3, 343920, Note_off_c, 2, 65, 79
3, 343920, Note_off_c, 2, 62, 79
3, 343920, Note_off_c, 2, 58, 79
3, 343920, Note_off_c, 2, 50, 79
3, 343920, Note_off_c, 2, 46, 79
3, 343920, Note_on_c, 2, 65, 79
3, 343920, Note_on_c, 2, 62, 79
3, 343920, Note_on_c, 2, 58, 79
3, 343920, Note_on_c, 2, 50, 79
3, 343920, Note_on_c, 2, 46, 79
3, 344160, Note_off_c, 2, 65, 79
3, 344160, Note_off_c, 2, 62, 79
3, 344160, Note_off_c, 2, 58, 79
3, 344160, Note_off_c, 2, 50, 79
3, 344160, Note_off_c, 2, 46, 79
3, 344160, Note_on_c, 2, 65, 79
3, 344160, Note_on_c, 2, 62, 79
3, 344160, Note_on_c, 2, 58, 79
3, 344160, Note_on_c, 2, 50, 79
3, 344160, Note_on_c, 2, 46, 79
3, 344400, Note_off_c, 2, 65, 79
3, 344400, Note_off_c, 2, 62, 79
3, 344400, Note_off_c, 2, 58, 79
3, 344400, Note_off_c, 2, 50, 79
3, 344400, Note_off_c, 2, 46, 79
3, 344400, Note_on_c, 2, 65, 79
3, 344400, Note_on_c, 2, 62, 79
3, 344400, Note_on_c, 2, 58, 79
3, 344400, Note_on_c, 2, 50, 79
3, 344400, Note_on_c, 2, 46, 79
3, 344640, Note_off_c, 2, 65, 79
3, 344640, Note_off_c, 2, 62, 79
3, 344640, Note_off_c, 2, 58, 79
3, 344640, Note_off_c, 2, 50, 79
3, 344640, Note_off_c, 2, 46, 79
3, 344640, Note_on_c, 2, 65, 79
3, 344640, Note_on_c, 2, 62, 79
3, 344640, Note_on_c, 2, 58, 79
3, 344640, Note_on_c, 2, 50, 79
3, 344640, Note_on_c, 2, 46, 79
3, 344880, Note_off_c, 2, 65, 79
3, 344880, Note_off_c, 2, 62, 79
3, 344880, Note_off_c, 2, 58, 79
3, 344880, Note_off_c, 2, 50, 79
3, 344880, Note_off_c, 2, 46, 79
3, 344880, Note_on_c, 2, 65, 79
3, 344880, Note_on_c, 2, 62, 79
3, 344880, Note_on_c, 2, 58, 79
3, 344880, Note_on_c, 2, 50, 79
3, 344880, Note_on_c, 2, 46, 79
3, 345120, Note_off_c, 2, 65, 79
3, 345120, Note_off_c, 2, 62, 79
3, 345120, Note_off_c, 2, 58, 79
3, 345120, Note_off_c, 2, 50, 79
3, 345120, Note_off_c, 2, 46, 79
3, 345600, Note_on_c, 2, 67, 79
3, 345600, Note_on_c, 2, 62, 79
3, 345600, Note_on_c, 2, 55, 79
3, 345600, Note_on_c, 2, 50, 79
3, 345600, Note_on_c, 2, 46, 79
3, 345600, Note_on_c, 2, 43, 79
3, 346080, Note_off_c, 2, 67, 79
3, 346080, Note_off_c, 2, 62, 79
3, 346080, Note_off_c, 2, 55, 79
3, 346080, Note_off_c, 2, 50, 79
3, 346080, Note_off_c, 2, 46, 79
3, 346080, Note_off_c, 2, 43, 79
3, 346080, Note_on_c, 2, 67, 79
3, 346080, Note_on_c, 2, 62, 79
3, 346080, Note_on_c, 2, 55, 79
3, 346080, Note_on_c, 2, 50, 79
3, 346080, Note_on_c, 2, 46, 79
3, 346080, Note_on_c, 2, 43, 79
3, 346320, Note_off_c, 2, 67, 79
3, 346320, Note_off_c, 2, 62, 79
3, 346320, Note_off_c, 2, 55, 79
3, 346320, Note_off_c, 2, 50, 79
3, 346320, Note_off_c, 2, 46, 79
3, 346320, Note_off_c, 2, 43, 79
3, 346320, Note_on_c, 2, 67, 79
3, 346320, Note_on_c, 2, 62, 79
3, 346320, Note_on_c, 2, 55, 79
3, 346320, Note_on_c, 2, 50, 79
3, 346320, Note_on_c, 2, 46, 79
3, 346320, Note_on_c, 2, 43, 79
3, 346560, Note_off_c, 2, 67, 79
3, 346560, Note_off_c, 2, 62, 79
3, 346560, Note_off_c, 2, 55, 79
3, 346560, Note_off_c, 2, 50, 79
3, 346560, Note_off_c, 2, 46, 79
3, 346560, Note_off_c, 2, 43, 79
3, 346560, Note_on_c, 2, 67, 79
3, 346560, Note_on_c, 2, 62, 79
3, 346560, Note_on_c, 2, 55, 79
3, 346560, Note_on_c, 2, 50, 79
3, 346560, Note_on_c, 2, 46, 79
3, 346560, Note_on_c, 2, 43, 79
3, 347040, Note_off_c, 2, 67, 79
3, 347040, Note_off_c, 2, 62, 79
3, 347040, Note_off_c, 2, 55, 79
3, 347040, Note_off_c, 2, 50, 79
3, 347040, Note_off_c, 2, 46, 79
3, 347040, Note_off_c, 2, 43, 79
3, 347040, Note_on_c, 2, 67, 79
3, 347040, Note_on_c, 2, 62, 79
3, 347040, Note_on_c, 2, 55, 79
3, 347040, Note_on_c, 2, 50, 79
3, 347040, Note_on_c, 2, 46, 79
3, 347040, Note_on_c, 2, 43, 79
3, 347280, Note_off_c, 2, 67, 79
3, 347280, Note_off_c, 2, 62, 79
3, 347280, Note_off_c, 2, 55, 79
3, 347280, Note_off_c, 2, 50, 79
3, 347280, Note_off_c, 2, 46, 79
3, 347280, Note_off_c, 2, 43, 79
3, 347280, Note_on_c, 2, 67, 79
3, 347280, Note_on_c, 2, 62, 79
3, 347280, Note_on_c, 2, 55, 79
3, 347280, Note_on_c, 2, 50, 79
3, 347280, Note_on_c, 2, 46, 79
3, 347280, Note_on_c, 2, 43, 79
3, 347520, Note_off_c, 2, 67, 79
3, 347520, Note_off_c, 2, 62, 79
3, 347520, Note_off_c, 2, 55, 79
3, 347520, Note_off_c, 2, 50, 79
3, 347520, Note_off_c, 2, 46, 79
3, 347520, Note_off_c, 2, 43, 79
3, 347520, Note_on_c, 2, 67, 79
3, 347520, Note_on_c, 2, 62, 79
3, 347520, Note_on_c, 2, 55, 79
3, 347520, Note_on_c, 2, 50, 79
3, 347520, Note_on_c, 2, 46, 79
3, 347520, Note_on_c, 2, 43, 79
3, 347760, Note_off_c, 2, 67, 79
3, 347760, Note_off_c, 2, 62, 79
3, 347760, Note_off_c, 2, 55, 79
3, 347760, Note_off_c, 2, 50, 79
3, 347760, Note_off_c, 2, 46, 79
3, 347760, Note_off_c, 2, 43, 79
3, 347760, Note_on_c, 2, 67, 79
3, 347760, Note_on_c, 2, 62, 79
3, 347760, Note_on_c, 2, 55, 79
3, 347760, Note_on_c, 2, 50, 79
3, 347760, Note_on_c, 2, 46, 79
3, 347760, Note_on_c, 2, 43, 79
3, 348000, Note_off_c, 2, 67, 79
3, 348000, Note_off_c, 2, 62, 79
3, 348000, Note_off_c, 2, 55, 79
3, 348000, Note_off_c, 2, 50, 79
3, 348000, Note_off_c, 2, 46, 79
3, 348000, Note_off_c, 2, 43, 79
3, 348000, Note_on_c, 2, 67, 79
3, 348000, Note_on_c, 2, 62, 79
3, 348000, Note_on_c, 2, 55, 79
3, 348000, Note_on_c, 2, 50, 79
3, 348000, Note_on_c, 2, 46, 79
3, 348000, Note_on_c, 2, 43, 79
3, 348240, Note_off_c, 2, 67, 79
3, 348240, Note_off_c, 2, 62, 79
3, 348240, Note_off_c, 2, 55, 79
3, 348240, Note_off_c, 2, 50, 79
3, 348240, Note_off_c, 2, 46, 79
3, 348240, Note_off_c, 2, 43, 79
3, 348240, Note_on_c, 2, 67, 79
3, 348240, Note_on_c, 2, 62, 79
3, 348240, Note_on_c, 2, 55, 79
3, 348240, Note_on_c, 2, 50, 79
3, 348240, Note_on_c, 2, 46, 79
3, 348240, Note_on_c, 2, 43, 79
3, 348480, Note_off_c, 2, 67, 79
3, 348480, Note_off_c, 2, 62, 79
3, 348480, Note_off_c, 2, 55, 79
3, 348480, Note_off_c, 2, 50, 79
3, 348480, Note_off_c, 2, 46, 79
3, 348480, Note_off_c, 2, 43, 79
3, 348480, Note_on_c, 2, 67, 79
3, 348480, Note_on_c, 2, 62, 79
3, 348480, Note_on_c, 2, 55, 79
3, 348480, Note_on_c, 2, 50, 79
3, 348480, Note_on_c, 2, 46, 79
3, 348480, Note_on_c, 2, 43, 79
3, 348720, Note_off_c, 2, 67, 79
3, 348720, Note_off_c, 2, 62, 79
3, 348720, Note_off_c, 2, 55, 79
3, 348720, Note_off_c, 2, 50, 79
3, 348720, Note_off_c, 2, 46, 79
3, 348720, Note_off_c, 2, 43, 79
3, 348720, Note_on_c, 2, 67, 79
3, 348720, Note_on_c, 2, 62, 79
3, 348720, Note_on_c, 2, 55, 79
3, 348720, Note_on_c, 2, 50, 79
3, 348720, Note_on_c, 2, 46, 79
3, 348720, Note_on_c, 2, 43, 79
3, 348960, Note_off_c, 2, 67, 79
3, 348960, Note_off_c, 2, 62, 79
3, 348960, Note_off_c, 2, 55, 79
3, 348960, Note_off_c, 2, 50, 79
3, 348960, Note_off_c, 2, 46, 79
3, 348960, Note_off_c, 2, 43, 79
3, 348960, Note_on_c, 2, 67, 79
3, 348960, Note_on_c, 2, 62, 79
3, 348960, Note_on_c, 2, 55, 79
3, 348960, Note_on_c, 2, 50, 79
3, 348960, Note_on_c, 2, 46, 79
3, 348960, Note_on_c, 2, 43, 79
3, 349200, Note_off_c, 2, 67, 79
3, 349200, Note_off_c, 2, 62, 79
3, 349200, Note_off_c, 2, 55, 79
3, 349200, Note_off_c, 2, 50, 79
3, 349200, Note_off_c, 2, 46, 79
3, 349200, Note_off_c, 2, 43, 79
3, 349200, Note_on_c, 2, 67, 79
3, 349200, Note_on_c, 2, 62, 79
3, 349200, Note_on_c, 2, 55, 79
3, 349200, Note_on_c, 2, 50, 79
3, 349200, Note_on_c, 2, 46, 79
3, 349200, Note_on_c, 2, 43, 79
3, 349440, Note_off_c, 2, 67, 79
3, 349440, Note_off_c, 2, 62, 79
3, 349440, Note_off_c, 2, 55, 79
3, 349440, Note_off_c, 2, 50, 79
3, 349440, Note_off_c, 2, 46, 79
3, 349440, Note_off_c, 2, 43, 79
3, 349440, Note_on_c, 2, 67, 79
3, 349440, Note_on_c, 2, 62, 79
3, 349440, Note_on_c, 2, 55, 79
3, 349440, Note_on_c, 2, 50, 79
3, 349440, Note_on_c, 2, 46, 79
3, 349440, Note_on_c, 2, 43, 79
3, 349920, Note_off_c, 2, 67, 79
3, 349920, Note_off_c, 2, 62, 79
3, 349920, Note_off_c, 2, 55, 79
3, 349920, Note_off_c, 2, 50, 79
3, 349920, Note_off_c, 2, 46, 79
3, 349920, Note_off_c, 2, 43, 79
3, 349920, Note_on_c, 2, 67, 79
3, 349920, Note_on_c, 2, 62, 79
3, 349920, Note_on_c, 2, 55, 79
3, 349920, Note_on_c, 2, 50, 79
3, 349920, Note_on_c, 2, 46, 79
3, 349920, Note_on_c, 2, 43, 79
3, 350160, Note_off_c, 2, 67, 79
3, 350160, Note_off_c, 2, 62, 79
3, 350160, Note_off_c, 2, 55, 79
3, 350160, Note_off_c, 2, 50, 79
3, 350160, Note_off_c, 2, 46, 79
3, 350160, Note_off_c, 2, 43, 79
3, 350160, Note_on_c, 2, 67, 79
3, 350160, Note_on_c, 2, 62, 79
3, 350160, Note_on_c, 2, 55, 79
3, 350160, Note_on_c, 2, 50, 79
3, 350160, Note_on_c, 2, 46, 79
3, 350160, Note_on_c, 2, 43, 79
3, 350400, Note_off_c, 2, 67, 79
3, 350400, Note_off_c, 2, 62, 79
3, 350400, Note_off_c, 2, 55, 79
3, 350400, Note_off_c, 2, 50, 79
3, 350400, Note_off_c, 2, 46, 79
3, 350400, Note_off_c, 2, 43, 79
3, 350400, Note_on_c, 2, 67, 79
3, 350400, Note_on_c, 2, 62, 79
3, 350400, Note_on_c, 2, 55, 79
3, 350400, Note_on_c, 2, 50, 79
3, 350400, Note_on_c, 2, 46, 79
3, 350400, Note_on_c, 2, 43, 79
3, 350880, Note_off_c, 2, 67, 79
3, 350880, Note_off_c, 2, 62, 79
3, 350880, Note_off_c, 2, 55, 79
3, 350880, Note_off_c, 2, 50, 79
3, 350880, Note_off_c, 2, 46, 79
3, 350880, Note_off_c, 2, 43, 79
3, 350880, Note_on_c, 2, 67, 79
3, 350880, Note_on_c, 2, 62, 79
3, 350880, Note_on_c, 2, 55, 79
3, 350880, Note_on_c, 2, 50, 79
3, 350880, Note_on_c, 2, 46, 79
3, 350880, Note_on_c, 2, 43, 79
3, 351120, Note_off_c, 2, 67, 79
3, 351120, Note_off_c, 2, 62, 79
3, 351120, Note_off_c, 2, 55, 79
3, 351120, Note_off_c, 2, 50, 79
3, 351120, Note_off_c, 2, 46, 79
3, 351120, Note_off_c, 2, 43, 79
3, 351120, Note_on_c, 2, 67, 79
3, 351120, Note_on_c, 2, 62, 79
3, 351120, Note_on_c, 2, 55, 79
3, 351120, Note_on_c, 2, 50, 79
3, 351120, Note_on_c, 2, 46, 79
3, 351120, Note_on_c, 2, 43, 79
3, 351360, Note_off_c, 2, 67, 79
3, 351360, Note_off_c, 2, 62, 79
3, 351360, Note_off_c, 2, 55, 79
3, 351360, Note_off_c, 2, 50, 79
3, 351360, Note_off_c, 2, 46, 79
3, 351360, Note_off_c, 2, 43, 79
3, 351360, Note_on_c, 2, 67, 79
3, 351360, Note_on_c, 2, 62, 79
3, 351360, Note_on_c, 2, 55, 79
3, 351360, Note_on_c, 2, 50, 79
3, 351360, Note_on_c, 2, 46, 79
3, 351360, Note_on_c, 2, 43, 79
3, 351600, Note_off_c, 2, 67, 79
3, 351600, Note_off_c, 2, 62, 79
3, 351600, Note_off_c, 2, 55, 79
3, 351600, Note_off_c, 2, 50, 79
3, 351600, Note_off_c, 2, 46, 79
3, 351600, Note_off_c, 2, 43, 79
3, 351600, Note_on_c, 2, 67, 79
3, 351600, Note_on_c, 2, 62, 79
3, 351600, Note_on_c, 2, 55, 79
3, 351600, Note_on_c, 2, 50, 79
3, 351600, Note_on_c, 2, 46, 79
3, 351600, Note_on_c, 2, 43, 79
3, 351840, Note_off_c, 2, 67, 79
3, 351840, Note_off_c, 2, 62, 79
3, 351840, Note_off_c, 2, 55, 79
3, 351840, Note_off_c, 2, 50, 79
3, 351840, Note_off_c, 2, 46, 79
3, 351840, Note_off_c, 2, 43, 79
3, 351840, Note_on_c, 2, 67, 79
3, 351840, Note_on_c, 2, 62, 79
3, 351840, Note_on_c, 2, 55, 79
3, 351840, Note_on_c, 2, 50, 79
3, 351840, Note_on_c, 2, 46, 79
3, 351840, Note_on_c, 2, 43, 79
3, 352080, Note_off_c, 2, 67, 79
3, 352080, Note_off_c, 2, 62, 79
3, 352080, Note_off_c, 2, 55, 79
3, 352080, Note_off_c, 2, 50, 79
3, 352080, Note_off_c, 2, 46, 79
3, 352080, Note_off_c, 2, 43, 79
3, 352080, Note_on_c, 2, 67, 79
3, 352080, Note_on_c, 2, 62, 79
3, 352080, Note_on_c, 2, 55, 79
3, 352080, Note_on_c, 2, 50, 79
3, 352080, Note_on_c, 2, 46, 79
3, 352080, Note_on_c, 2, 43, 79
3, 352320, Note_off_c, 2, 67, 79
3, 352320, Note_off_c, 2, 62, 79
3, 352320, Note_off_c, 2, 55, 79
3, 352320, Note_off_c, 2, 50, 79
3, 352320, Note_off_c, 2, 46, 79
3, 352320, Note_off_c, 2, 43, 79
3, 352320, Note_on_c, 2, 67, 79
3, 352320, Note_on_c, 2, 62, 79
3, 352320, Note_on_c, 2, 55, 79
3, 352320, Note_on_c, 2, 50, 79
3, 352320, Note_on_c, 2, 46, 79
3, 352320, Note_on_c, 2, 43, 79
3, 352560, Note_off_c, 2, 67, 79
3, 352560, Note_off_c, 2, 62, 79
3, 352560, Note_off_c, 2, 55, 79
3, 352560, Note_off_c, 2, 50, 79
3, 352560, Note_off_c, 2, 46, 79
3, 352560, Note_off_c, 2, 43, 79
3, 352560, Note_on_c, 2, 67, 79
3, 352560, Note_on_c, 2, 62, 79
3, 352560, Note_on_c, 2, 55, 79
3, 352560, Note_on_c, 2, 50, 79
3, 352560, Note_on_c, 2, 46, 79
3, 352560, Note_on_c, 2, 43, 79
3, 352800, Note_off_c, 2, 67, 79
3, 352800, Note_off_c, 2, 62, 79
3, 352800, Note_off_c, 2, 55, 79
3, 352800, Note_off_c, 2, 50, 79
3, 352800, Note_off_c, 2, 46, 79
3, 352800, Note_off_c, 2, 43, 79
3, 352800, Note_on_c, 2, 67, 79
3, 352800, Note_on_c, 2, 62, 79
3, 352800, Note_on_c, 2, 55, 79
3, 352800, Note_on_c, 2, 50, 79
3, 352800, Note_on_c, 2, 46, 79
3, 352800, Note_on_c, 2, 43, 79
3, 353040, Note_off_c, 2, 67, 79
3, 353040, Note_off_c, 2, 62, 79
3, 353040, Note_off_c, 2, 55, 79
3, 353040, Note_off_c, 2, 50, 79
3, 353040, Note_off_c, 2, 46, 79
3, 353040, Note_off_c, 2, 43, 79
3, 353040, Note_on_c, 2, 67, 79
3, 353040, Note_on_c, 2, 62, 79
3, 353040, Note_on_c, 2, 55, 79
3, 353040, Note_on_c, 2, 50, 79
3, 353040, Note_on_c, 2, 46, 79
3, 353040, Note_on_c, 2, 43, 79
3, 353280, Note_off_c, 2, 67, 79
3, 353280, Note_off_c, 2, 62, 79
3, 353280, Note_off_c, 2, 55, 79
3, 353280, Note_off_c, 2, 50, 79
3, 353280, Note_off_c, 2, 46, 79
3, 353280, Note_off_c, 2, 43, 79
3, 353280, Note_on_c, 2, 67, 79
3, 353280, Note_on_c, 2, 62, 79
3, 353280, Note_on_c, 2, 55, 79
3, 353280, Note_on_c, 2, 50, 79
3, 353280, Note_on_c, 2, 46, 79
3, 353280, Note_on_c, 2, 43, 79
3, 353760, Note_off_c, 2, 67, 79
3, 353760, Note_off_c, 2, 62, 79
3, 353760, Note_off_c, 2, 55, 79
3, 353760, Note_off_c, 2, 50, 79
3, 353760, Note_off_c, 2, 46, 79
3, 353760, Note_off_c, 2, 43, 79
3, 353760, Note_on_c, 2, 67, 79
3, 353760, Note_on_c, 2, 62, 79
3, 353760, Note_on_c, 2, 55, 79
3, 353760, Note_on_c, 2, 50, 79
3, 353760, Note_on_c, 2, 46, 79
3, 353760, Note_on_c, 2, 43, 79
3, 354000, Note_off_c, 2, 67, 79
3, 354000, Note_off_c, 2, 62, 79
3, 354000, Note_off_c, 2, 55, 79
3, 354000, Note_off_c, 2, 50, 79
3, 354000, Note_off_c, 2, 46, 79
3, 354000, Note_off_c, 2, 43, 79
3, 354000, Note_on_c, 2, 67, 79
3, 354000, Note_on_c, 2, 62, 79
3, 354000, Note_on_c, 2, 55, 79
3, 354000, Note_on_c, 2, 50, 79
3, 354000, Note_on_c, 2, 46, 79
3, 354000, Note_on_c, 2, 43, 79
3, 354240, Note_off_c, 2, 67, 79
3, 354240, Note_off_c, 2, 62, 79
3, 354240, Note_off_c, 2, 55, 79
3, 354240, Note_off_c, 2, 50, 79
3, 354240, Note_off_c, 2, 46, 79
3, 354240, Note_off_c, 2, 43, 79
3, 354240, Note_on_c, 2, 67, 79
3, 354240, Note_on_c, 2, 62, 79
3, 354240, Note_on_c, 2, 55, 79
3, 354240, Note_on_c, 2, 50, 79
3, 354240, Note_on_c, 2, 46, 79
3, 354240, Note_on_c, 2, 43, 79
3, 354720, Note_off_c, 2, 67, 79
3, 354720, Note_off_c, 2, 62, 79
3, 354720, Note_off_c, 2, 55, 79
3, 354720, Note_off_c, 2, 50, 79
3, 354720, Note_off_c, 2, 46, 79
3, 354720, Note_off_c, 2, 43, 79
3, 354720, Note_on_c, 2, 67, 79
3, 354720, Note_on_c, 2, 62, 79
3, 354720, Note_on_c, 2, 55, 79
3, 354720, Note_on_c, 2, 50, 79
3, 354720, Note_on_c, 2, 46, 79
3, 354720, Note_on_c, 2, 43, 79
3, 354960, Note_off_c, 2, 67, 79
3, 354960, Note_off_c, 2, 62, 79
3, 354960, Note_off_c, 2, 55, 79
3, 354960, Note_off_c, 2, 50, 79
3, 354960, Note_off_c, 2, 46, 79
3, 354960, Note_off_c, 2, 43, 79
3, 354960, Note_on_c, 2, 67, 79
3, 354960, Note_on_c, 2, 62, 79
3, 354960, Note_on_c, 2, 55, 79
3, 354960, Note_on_c, 2, 50, 79
3, 354960, Note_on_c, 2, 46, 79
3, 354960, Note_on_c, 2, 43, 79
3, 355200, Note_off_c, 2, 67, 79
3, 355200, Note_off_c, 2, 62, 79
3, 355200, Note_off_c, 2, 55, 79
3, 355200, Note_off_c, 2, 50, 79
3, 355200, Note_off_c, 2, 46, 79
3, 355200, Note_off_c, 2, 43, 79
3, 355200, Note_on_c, 2, 67, 79
3, 355200, Note_on_c, 2, 62, 79
3, 355200, Note_on_c, 2, 55, 79
3, 355200, Note_on_c, 2, 50, 79
3, 355200, Note_on_c, 2, 46, 79
3, 355200, Note_on_c, 2, 43, 79
3, 355440, Note_off_c, 2, 67, 79
3, 355440, Note_off_c, 2, 62, 79
3, 355440, Note_off_c, 2, 55, 79
3, 355440, Note_off_c, 2, 50, 79
3, 355440, Note_off_c, 2, 46, 79
3, 355440, Note_off_c, 2, 43, 79
3, 355440, Note_on_c, 2, 67, 79
3, 355440, Note_on_c, 2, 62, 79
3, 355440, Note_on_c, 2, 55, 79
3, 355440, Note_on_c, 2, 50, 79
3, 355440, Note_on_c, 2, 46, 79
3, 355440, Note_on_c, 2, 43, 79
3, 355680, Note_off_c, 2, 67, 79
3, 355680, Note_off_c, 2, 62, 79
3, 355680, Note_off_c, 2, 55, 79
3, 355680, Note_off_c, 2, 50, 79
3, 355680, Note_off_c, 2, 46, 79
3, 355680, Note_off_c, 2, 43, 79
3, 355680, Note_on_c, 2, 67, 79
3, 355680, Note_on_c, 2, 62, 79
3, 355680, Note_on_c, 2, 55, 79
3, 355680, Note_on_c, 2, 50, 79
3, 355680, Note_on_c, 2, 46, 79
3, 355680, Note_on_c, 2, 43, 79
3, 355920, Note_off_c, 2, 67, 79
3, 355920, Note_off_c, 2, 62, 79
3, 355920, Note_off_c, 2, 55, 79
3, 355920, Note_off_c, 2, 50, 79
3, 355920, Note_off_c, 2, 46, 79
3, 355920, Note_off_c, 2, 43, 79
3, 355920, Note_on_c, 2, 67, 79
3, 355920, Note_on_c, 2, 62, 79
3, 355920, Note_on_c, 2, 55, 79
3, 355920, Note_on_c, 2, 50, 79
3, 355920, Note_on_c, 2, 46, 79
3, 355920, Note_on_c, 2, 43, 79
3, 356160, Note_off_c, 2, 67, 79
3, 356160, Note_off_c, 2, 62, 79
3, 356160, Note_off_c, 2, 55, 79
3, 356160, Note_off_c, 2, 50, 79
3, 356160, Note_off_c, 2, 46, 79
3, 356160, Note_off_c, 2, 43, 79
3, 356160, Note_on_c, 2, 67, 79
3, 356160, Note_on_c, 2, 62, 79
3, 356160, Note_on_c, 2, 55, 79
3, 356160, Note_on_c, 2, 50, 79
3, 356160, Note_on_c, 2, 46, 79
3, 356160, Note_on_c, 2, 43, 79
3, 356400, Note_off_c, 2, 67, 79
3, 356400, Note_off_c, 2, 62, 79
3, 356400, Note_off_c, 2, 55, 79
3, 356400, Note_off_c, 2, 50, 79
3, 356400, Note_off_c, 2, 46, 79
3, 356400, Note_off_c, 2, 43, 79
3, 356400, Note_on_c, 2, 67, 79
3, 356400, Note_on_c, 2, 62, 79
3, 356400, Note_on_c, 2, 55, 79
3, 356400, Note_on_c, 2, 50, 79
3, 356400, Note_on_c, 2, 46, 79
3, 356400, Note_on_c, 2, 43, 79
3, 356640, Note_off_c, 2, 67, 79
3, 356640, Note_off_c, 2, 62, 79
3, 356640, Note_off_c, 2, 55, 79
3, 356640, Note_off_c, 2, 50, 79
3, 356640, Note_off_c, 2, 46, 79
3, 356640, Note_off_c, 2, 43, 79
3, 356640, Note_on_c, 2, 67, 79
3, 356640, Note_on_c, 2, 62, 79
3, 356640, Note_on_c, 2, 55, 79
3, 356640, Note_on_c, 2, 50, 79
3, 356640, Note_on_c, 2, 46, 79
3, 356640, Note_on_c, 2, 43, 79
3, 356880, Note_off_c, 2, 67, 79
3, 356880, Note_off_c, 2, 62, 79
3, 356880, Note_off_c, 2, 55, 79
3, 356880, Note_off_c, 2, 50, 79
3, 356880, Note_off_c, 2, 46, 79
3, 356880, Note_off_c, 2, 43, 79
3, 356880, Note_on_c, 2, 67, 79
3, 356880, Note_on_c, 2, 62, 79
3, 356880, Note_on_c, 2, 55, 79
3, 356880, Note_on_c, 2, 50, 79
3, 356880, Note_on_c, 2, 46, 79
3, 356880, Note_on_c, 2, 43, 79
3, 357120, Note_off_c, 2, 67, 79
3, 357120, Note_off_c, 2, 62, 79
3, 357120, Note_off_c, 2, 55, 79
3, 357120, Note_off_c, 2, 50, 79
3, 357120, Note_off_c, 2, 46, 79
3, 357120, Note_off_c, 2, 43, 79
3, 357120, Note_on_c, 2, 65, 79
3, 357120, Note_on_c, 2, 62, 79
3, 357120, Note_on_c, 2, 58, 79
3, 357120, Note_on_c, 2, 50, 79
3, 357120, Note_on_c, 2, 46, 79
3, 357600, Note_off_c, 2, 65, 79
3, 357600, Note_off_c, 2, 62, 79
3, 357600, Note_off_c, 2, 58, 79
3, 357600, Note_off_c, 2, 50, 79
3, 357600, Note_off_c, 2, 46, 79
3, 357600, Note_on_c, 2, 65, 79
3, 357600, Note_on_c, 2, 62, 79
3, 357600, Note_on_c, 2, 58, 79
3, 357600, Note_on_c, 2, 50, 79
3, 357600, Note_on_c, 2, 46, 79
3, 357840, Note_off_c, 2, 65, 79
3, 357840, Note_off_c, 2, 62, 79
3, 357840, Note_off_c, 2, 58, 79
3, 357840, Note_off_c, 2, 50, 79
3, 357840, Note_off_c, 2, 46, 79
3, 357840, Note_on_c, 2, 65, 79
3, 357840, Note_on_c, 2, 62, 79
3, 357840, Note_on_c, 2, 58, 79
3, 357840, Note_on_c, 2, 50, 79
3, 357840, Note_on_c, 2, 46, 79
3, 358080, Note_off_c, 2, 65, 79
3, 358080, Note_off_c, 2, 62, 79
3, 358080, Note_off_c, 2, 58, 79
3, 358080, Note_off_c, 2, 50, 79
3, 358080, Note_off_c, 2, 46, 79
3, 358080, Note_on_c, 2, 65, 79
3, 358080, Note_on_c, 2, 62, 79
3, 358080, Note_on_c, 2, 58, 79
3, 358080, Note_on_c, 2, 50, 79
3, 358080, Note_on_c, 2, 46, 79
3, 358560, Note_off_c, 2, 65, 79
3, 358560, Note_off_c, 2, 62, 79
3, 358560, Note_off_c, 2, 58, 79
3, 358560, Note_off_c, 2, 50, 79
3, 358560, Note_off_c, 2, 46, 79
3, 358560, Note_on_c, 2, 65, 79
3, 358560, Note_on_c, 2, 62, 79
3, 358560, Note_on_c, 2, 58, 79
3, 358560, Note_on_c, 2, 50, 79
3, 358560, Note_on_c, 2, 46, 79
3, 358800, Note_off_c, 2, 65, 79
3, 358800, Note_off_c, 2, 62, 79
3, 358800, Note_off_c, 2, 58, 79
3, 358800, Note_off_c, 2, 50, 79
3, 358800, Note_off_c, 2, 46, 79
3, 358800, Note_on_c, 2, 65, 79
3, 358800, Note_on_c, 2, 62, 79
3, 358800, Note_on_c, 2, 58, 79
3, 358800, Note_on_c, 2, 50, 79
3, 358800, Note_on_c, 2, 46, 79
3, 359040, Note_off_c, 2, 65, 79
3, 359040, Note_off_c, 2, 62, 79
3, 359040, Note_off_c, 2, 58, 79
3, 359040, Note_off_c, 2, 50, 79
3, 359040, Note_off_c, 2, 46, 79
3, 359040, Note_on_c, 2, 65, 79
3, 359040, Note_on_c, 2, 62, 79
3, 359040, Note_on_c, 2, 58, 79
3, 359040, Note_on_c, 2, 50, 79
3, 359040, Note_on_c, 2, 46, 79
3, 359280, Note_off_c, 2, 65, 79
3, 359280, Note_off_c, 2, 62, 79
3, 359280, Note_off_c, 2, 58, 79
3, 359280, Note_off_c, 2, 50, 79
3, 359280, Note_off_c, 2, 46, 79
3, 359280, Note_on_c, 2, 65, 79
3, 359280, Note_on_c, 2, 62, 79
3, 359280, Note_on_c, 2, 58, 79
3, 359280, Note_on_c, 2, 50, 79
3, 359280, Note_on_c, 2, 46, 79
3, 359520, Note_off_c, 2, 65, 79
3, 359520, Note_off_c, 2, 62, 79
3, 359520, Note_off_c, 2, 58, 79
3, 359520, Note_off_c, 2, 50, 79
3, 359520, Note_off_c, 2, 46, 79
3, 359520, Note_on_c, 2, 65, 79
3, 359520, Note_on_c, 2, 62, 79
3, 359520, Note_on_c, 2, 58, 79
3, 359520, Note_on_c, 2, 50, 79
3, 359520, Note_on_c, 2, 46, 79
3, 359760, Note_off_c, 2, 65, 79
3, 359760, Note_off_c, 2, 62, 79
3, 359760, Note_off_c, 2, 58, 79
3, 359760, Note_off_c, 2, 50, 79
3, 359760, Note_off_c, 2, 46, 79
3, 359760, Note_on_c, 2, 65, 79
3, 359760, Note_on_c, 2, 62, 79
3, 359760, Note_on_c, 2, 58, 79
3, 359760, Note_on_c, 2, 50, 79
3, 359760, Note_on_c, 2, 46, 79
3, 360000, Note_off_c, 2, 65, 79
3, 360000, Note_off_c, 2, 62, 79
3, 360000, Note_off_c, 2, 58, 79
3, 360000, Note_off_c, 2, 50, 79
3, 360000, Note_off_c, 2, 46, 79
3, 360000, Note_on_c, 2, 65, 79
3, 360000, Note_on_c, 2, 62, 79
3, 360000, Note_on_c, 2, 58, 79
3, 360000, Note_on_c, 2, 50, 79
3, 360000, Note_on_c, 2, 46, 79
3, 360240, Note_off_c, 2, 65, 79
3, 360240, Note_off_c, 2, 62, 79
3, 360240, Note_off_c, 2, 58, 79
3, 360240, Note_off_c, 2, 50, 79
3, 360240, Note_off_c, 2, 46, 79
3, 360240, Note_on_c, 2, 65, 79
3, 360240, Note_on_c, 2, 62, 79
3, 360240, Note_on_c, 2, 58, 79
3, 360240, Note_on_c, 2, 50, 79
3, 360240, Note_on_c, 2, 46, 79
3, 360480, Note_off_c, 2, 65, 79
3, 360480, Note_off_c, 2, 62, 79
3, 360480, Note_off_c, 2, 58, 79
3, 360480, Note_off_c, 2, 50, 79
3, 360480, Note_off_c, 2, 46, 79
3, 360960, Note_on_c, 2, 67, 79
3, 360960, Note_on_c, 2, 62, 79
3, 360960, Note_on_c, 2, 55, 79
3, 360960, Note_on_c, 2, 50, 79
3, 360960, Note_on_c, 2, 46, 79
3, 360960, Note_on_c, 2, 43, 79
3, 361440, Note_off_c, 2, 67, 79
3, 361440, Note_off_c, 2, 62, 79
3, 361440, Note_off_c, 2, 55, 79
3, 361440, Note_off_c, 2, 50, 79
3, 361440, Note_off_c, 2, 46, 79
3, 361440, Note_off_c, 2, 43, 79
3, 361440, Note_on_c, 2, 67, 79
3, 361440, Note_on_c, 2, 62, 79
3, 361440, Note_on_c, 2, 55, 79
3, 361440, Note_on_c, 2, 50, 79
3, 361440, Note_on_c, 2, 46, 79
3, 361440, Note_on_c, 2, 43, 79
3, 361680, Note_off_c, 2, 67, 79
3, 361680, Note_off_c, 2, 62, 79
3, 361680, Note_off_c, 2, 55, 79
3, 361680, Note_off_c, 2, 50, 79
3, 361680, Note_off_c, 2, 46, 79
3, 361680, Note_off_c, 2, 43, 79
3, 361680, Note_on_c, 2, 67, 79
3, 361680, Note_on_c, 2, 62, 79
3, 361680, Note_on_c, 2, 55, 79
3, 361680, Note_on_c, 2, 50, 79
3, 361680, Note_on_c, 2, 46, 79
3, 361680, Note_on_c, 2, 43, 79
3, 361920, Note_off_c, 2, 67, 79
3, 361920, Note_off_c, 2, 62, 79
3, 361920, Note_off_c, 2, 55, 79
3, 361920, Note_off_c, 2, 50, 79
3, 361920, Note_off_c, 2, 46, 79
3, 361920, Note_off_c, 2, 43, 79
3, 361920, Note_on_c, 2, 67, 79
3, 361920, Note_on_c, 2, 62, 79
3, 361920, Note_on_c, 2, 55, 79
3, 361920, Note_on_c, 2, 50, 79
3, 361920, Note_on_c, 2, 46, 79
3, 361920, Note_on_c, 2, 43, 79
3, 362400, Note_off_c, 2, 67, 79
3, 362400, Note_off_c, 2, 62, 79
3, 362400, Note_off_c, 2, 55, 79
3, 362400, Note_off_c, 2, 50, 79
3, 362400, Note_off_c, 2, 46, 79
3, 362400, Note_off_c, 2, 43, 79
3, 362400, Note_on_c, 2, 67, 79
3, 362400, Note_on_c, 2, 62, 79
3, 362400, Note_on_c, 2, 55, 79
3, 362400, Note_on_c, 2, 50, 79
3, 362400, Note_on_c, 2, 46, 79
3, 362400, Note_on_c, 2, 43, 79
3, 362640, Note_off_c, 2, 67, 79
3, 362640, Note_off_c, 2, 62, 79
3, 362640, Note_off_c, 2, 55, 79
3, 362640, Note_off_c, 2, 50, 79
3, 362640, Note_off_c, 2, 46, 79
3, 362640, Note_off_c, 2, 43, 79
3, 362640, Note_on_c, 2, 67, 79
3, 362640, Note_on_c, 2, 62, 79
3, 362640, Note_on_c, 2, 55, 79
3, 362640, Note_on_c, 2, 50, 79
3, 362640, Note_on_c, 2, 46, 79
3, 362640, Note_on_c, 2, 43, 79
3, 362880, Note_off_c, 2, 67, 79
3, 362880, Note_off_c, 2, 62, 79
3, 362880, Note_off_c, 2, 55, 79
3, 362880, Note_off_c, 2, 50, 79
3, 362880, Note_off_c, 2, 46, 79
3, 362880, Note_off_c, 2, 43, 79
3, 362880, Note_on_c, 2, 67, 79
3, 362880, Note_on_c, 2, 62, 79
3, 362880, Note_on_c, 2, 55, 79
3, 362880, Note_on_c, 2, 50, 79
3, 362880, Note_on_c, 2, 46, 79
3, 362880, Note_on_c, 2, 43, 79
3, 363120, Note_off_c, 2, 67, 79
3, 363120, Note_off_c, 2, 62, 79
3, 363120, Note_off_c, 2, 55, 79
3, 363120, Note_off_c, 2, 50, 79
3, 363120, Note_off_c, 2, 46, 79
3, 363120, Note_off_c, 2, 43, 79
3, 363120, Note_on_c, 2, 67, 79
3, 363120, Note_on_c, 2, 62, 79
3, 363120, Note_on_c, 2, 55, 79
3, 363120, Note_on_c, 2, 50, 79
3, 363120, Note_on_c, 2, 46, 79
3, 363120, Note_on_c, 2, 43, 79
3, 363360, Note_off_c, 2, 67, 79
3, 363360, Note_off_c, 2, 62, 79
3, 363360, Note_off_c, 2, 55, 79
3, 363360, Note_off_c, 2, 50, 79
3, 363360, Note_off_c, 2, 46, 79
3, 363360, Note_off_c, 2, 43, 79
3, 363360, Note_on_c, 2, 67, 79
3, 363360, Note_on_c, 2, 62, 79
3, 363360, Note_on_c, 2, 55, 79
3, 363360, Note_on_c, 2, 50, 79
3, 363360, Note_on_c, 2, 46, 79
3, 363360, Note_on_c, 2, 43, 79
3, 363600, Note_off_c, 2, 67, 79
3, 363600, Note_off_c, 2, 62, 79
3, 363600, Note_off_c, 2, 55, 79
3, 363600, Note_off_c, 2, 50, 79
3, 363600, Note_off_c, 2, 46, 79
3, 363600, Note_off_c, 2, 43, 79
3, 363600, Note_on_c, 2, 67, 79
3, 363600, Note_on_c, 2, 62, 79
3, 363600, Note_on_c, 2, 55, 79
3, 363600, Note_on_c, 2, 50, 79
3, 363600, Note_on_c, 2, 46, 79
3, 363600, Note_on_c, 2, 43, 79
3, 363840, Note_off_c, 2, 67, 79
3, 363840, Note_off_c, 2, 62, 79
3, 363840, Note_off_c, 2, 55, 79
3, 363840, Note_off_c, 2, 50, 79
3, 363840, Note_off_c, 2, 46, 79
3, 363840, Note_off_c, 2, 43, 79
3, 363840, Note_on_c, 2, 67, 79
3, 363840, Note_on_c, 2, 62, 79
3, 363840, Note_on_c, 2, 55, 79
3, 363840, Note_on_c, 2, 50, 79
3, 363840, Note_on_c, 2, 46, 79
3, 363840, Note_on_c, 2, 43, 79
3, 364080, Note_off_c, 2, 67, 79
3, 364080, Note_off_c, 2, 62, 79
3, 364080, Note_off_c, 2, 55, 79
3, 364080, Note_off_c, 2, 50, 79
3, 364080, Note_off_c, 2, 46, 79
3, 364080, Note_off_c, 2, 43, 79
3, 364080, Note_on_c, 2, 67, 79
3, 364080, Note_on_c, 2, 62, 79
3, 364080, Note_on_c, 2, 55, 79
3, 364080, Note_on_c, 2, 50, 79
3, 364080, Note_on_c, 2, 46, 79
3, 364080, Note_on_c, 2, 43, 79
3, 364320, Note_off_c, 2, 67, 79
3, 364320, Note_off_c, 2, 62, 79
3, 364320, Note_off_c, 2, 55, 79
3, 364320, Note_off_c, 2, 50, 79
3, 364320, Note_off_c, 2, 46, 79
3, 364320, Note_off_c, 2, 43, 79
3, 364320, Note_on_c, 2, 67, 79
3, 364320, Note_on_c, 2, 62, 79
3, 364320, Note_on_c, 2, 55, 79
3, 364320, Note_on_c, 2, 50, 79
3, 364320, Note_on_c, 2, 46, 79
3, 364320, Note_on_c, 2, 43, 79
3, 364560, Note_off_c, 2, 67, 79
3, 364560, Note_off_c, 2, 62, 79
3, 364560, Note_off_c, 2, 55, 79
3, 364560, Note_off_c, 2, 50, 79
3, 364560, Note_off_c, 2, 46, 79
3, 364560, Note_off_c, 2, 43, 79
3, 364560, Note_on_c, 2, 67, 79
3, 364560, Note_on_c, 2, 62, 79
3, 364560, Note_on_c, 2, 55, 79
3, 364560, Note_on_c, 2, 50, 79
3, 364560, Note_on_c, 2, 46, 79
3, 364560, Note_on_c, 2, 43, 79
3, 364800, Note_off_c, 2, 67, 79
3, 364800, Note_off_c, 2, 62, 79
3, 364800, Note_off_c, 2, 55, 79
3, 364800, Note_off_c, 2, 50, 79
3, 364800, Note_off_c, 2, 46, 79
3, 364800, Note_off_c, 2, 43, 79
3, 364800, Note_on_c, 2, 67, 79
3, 364800, Note_on_c, 2, 62, 79
3, 364800, Note_on_c, 2, 55, 79
3, 364800, Note_on_c, 2, 50, 79
3, 364800, Note_on_c, 2, 46, 79
3, 364800, Note_on_c, 2, 43, 79
3, 365280, Note_off_c, 2, 67, 79
3, 365280, Note_off_c, 2, 62, 79
3, 365280, Note_off_c, 2, 55, 79
3, 365280, Note_off_c, 2, 50, 79
3, 365280, Note_off_c, 2, 46, 79
3, 365280, Note_off_c, 2, 43, 79
3, 365280, Note_on_c, 2, 67, 79
3, 365280, Note_on_c, 2, 62, 79
3, 365280, Note_on_c, 2, 55, 79
3, 365280, Note_on_c, 2, 50, 79
3, 365280, Note_on_c, 2, 46, 79
3, 365280, Note_on_c, 2, 43, 79
3, 365520, Note_off_c, 2, 67, 79
3, 365520, Note_off_c, 2, 62, 79
3, 365520, Note_off_c, 2, 55, 79
3, 365520, Note_off_c, 2, 50, 79
3, 365520, Note_off_c, 2, 46, 79
3, 365520, Note_off_c, 2, 43, 79
3, 365520, Note_on_c, 2, 67, 79
3, 365520, Note_on_c, 2, 62, 79
3, 365520, Note_on_c, 2, 55, 79
3, 365520, Note_on_c, 2, 50, 79
3, 365520, Note_on_c, 2, 46, 79
3, 365520, Note_on_c, 2, 43, 79
3, 365760, Note_off_c, 2, 67, 79
3, 365760, Note_off_c, 2, 62, 79
3, 365760, Note_off_c, 2, 55, 79
3, 365760, Note_off_c, 2, 50, 79
3, 365760, Note_off_c, 2, 46, 79
3, 365760, Note_off_c, 2, 43, 79
3, 365760, Note_on_c, 2, 67, 79
3, 365760, Note_on_c, 2, 62, 79
3, 365760, Note_on_c, 2, 55, 79
3, 365760, Note_on_c, 2, 50, 79
3, 365760, Note_on_c, 2, 46, 79
3, 365760, Note_on_c, 2, 43, 79
3, 366240, Note_off_c, 2, 67, 79
3, 366240, Note_off_c, 2, 62, 79
3, 366240, Note_off_c, 2, 55, 79
3, 366240, Note_off_c, 2, 50, 79
3, 366240, Note_off_c, 2, 46, 79
3, 366240, Note_off_c, 2, 43, 79
3, 366240, Note_on_c, 2, 67, 79
3, 366240, Note_on_c, 2, 62, 79
3, 366240, Note_on_c, 2, 55, 79
3, 366240, Note_on_c, 2, 50, 79
3, 366240, Note_on_c, 2, 46, 79
3, 366240, Note_on_c, 2, 43, 79
3, 366480, Note_off_c, 2, 67, 79
3, 366480, Note_off_c, 2, 62, 79
3, 366480, Note_off_c, 2, 55, 79
3, 366480, Note_off_c, 2, 50, 79
3, 366480, Note_off_c, 2, 46, 79
3, 366480, Note_off_c, 2, 43, 79
3, 366480, Note_on_c, 2, 67, 79
3, 366480, Note_on_c, 2, 62, 79
3, 366480, Note_on_c, 2, 55, 79
3, 366480, Note_on_c, 2, 50, 79
3, 366480, Note_on_c, 2, 46, 79
3, 366480, Note_on_c, 2, 43, 79
3, 366720, Note_off_c, 2, 67, 79
3, 366720, Note_off_c, 2, 62, 79
3, 366720, Note_off_c, 2, 55, 79
3, 366720, Note_off_c, 2, 50, 79
3, 366720, Note_off_c, 2, 46, 79
3, 366720, Note_off_c, 2, 43, 79
3, 366720, Note_on_c, 2, 67, 79
3, 366720, Note_on_c, 2, 62, 79
3, 366720, Note_on_c, 2, 55, 79
3, 366720, Note_on_c, 2, 50, 79
3, 366720, Note_on_c, 2, 46, 79
3, 366720, Note_on_c, 2, 43, 79
3, 366960, Note_off_c, 2, 67, 79
3, 366960, Note_off_c, 2, 62, 79
3, 366960, Note_off_c, 2, 55, 79
3, 366960, Note_off_c, 2, 50, 79
3, 366960, Note_off_c, 2, 46, 79
3, 366960, Note_off_c, 2, 43, 79
3, 366960, Note_on_c, 2, 67, 79
3, 366960, Note_on_c, 2, 62, 79
3, 366960, Note_on_c, 2, 55, 79
3, 366960, Note_on_c, 2, 50, 79
3, 366960, Note_on_c, 2, 46, 79
3, 366960, Note_on_c, 2, 43, 79
3, 367200, Note_off_c, 2, 67, 79
3, 367200, Note_off_c, 2, 62, 79
3, 367200, Note_off_c, 2, 55, 79
3, 367200, Note_off_c, 2, 50, 79
3, 367200, Note_off_c, 2, 46, 79
3, 367200, Note_off_c, 2, 43, 79
3, 367200, Note_on_c, 2, 67, 79
3, 367200, Note_on_c, 2, 62, 79
3, 367200, Note_on_c, 2, 55, 79
3, 367200, Note_on_c, 2, 50, 79
3, 367200, Note_on_c, 2, 46, 79
3, 367200, Note_on_c, 2, 43, 79
3, 367440, Note_off_c, 2, 67, 79
3, 367440, Note_off_c, 2, 62, 79
3, 367440, Note_off_c, 2, 55, 79
3, 367440, Note_off_c, 2, 50, 79
3, 367440, Note_off_c, 2, 46, 79
3, 367440, Note_off_c, 2, 43, 79
3, 367440, Note_on_c, 2, 67, 79
3, 367440, Note_on_c, 2, 62, 79
3, 367440, Note_on_c, 2, 55, 79
3, 367440, Note_on_c, 2, 50, 79
3, 367440, Note_on_c, 2, 46, 79
3, 367440, Note_on_c, 2, 43, 79
3, 367680, Note_off_c, 2, 67, 79
3, 367680, Note_off_c, 2, 62, 79
3, 367680, Note_off_c, 2, 55, 79
3, 367680, Note_off_c, 2, 50, 79
3, 367680, Note_off_c, 2, 46, 79
3, 367680, Note_off_c, 2, 43, 79
3, 367680, Note_on_c, 2, 67, 79
3, 367680, Note_on_c, 2, 62, 79
3, 367680, Note_on_c, 2, 55, 79
3, 367680, Note_on_c, 2, 50, 79
3, 367680, Note_on_c, 2, 46, 79
3, 367680, Note_on_c, 2, 43, 79
3, 367920, Note_off_c, 2, 67, 79
3, 367920, Note_off_c, 2, 62, 79
3, 367920, Note_off_c, 2, 55, 79
3, 367920, Note_off_c, 2, 50, 79
3, 367920, Note_off_c, 2, 46, 79
3, 367920, Note_off_c, 2, 43, 79
3, 367920, Note_on_c, 2, 67, 79
3, 367920, Note_on_c, 2, 62, 79
3, 367920, Note_on_c, 2, 55, 79
3, 367920, Note_on_c, 2, 50, 79
3, 367920, Note_on_c, 2, 46, 79
3, 367920, Note_on_c, 2, 43, 79
3, 368160, Note_off_c, 2, 67, 79
3, 368160, Note_off_c, 2, 62, 79
3, 368160, Note_off_c, 2, 55, 79
3, 368160, Note_off_c, 2, 50, 79
3, 368160, Note_off_c, 2, 46, 79
3, 368160, Note_off_c, 2, 43, 79
3, 368160, Note_on_c, 2, 67, 79
3, 368160, Note_on_c, 2, 62, 79
3, 368160, Note_on_c, 2, 55, 79
3, 368160, Note_on_c, 2, 50, 79
3, 368160, Note_on_c, 2, 46, 79
3, 368160, Note_on_c, 2, 43, 79
3, 368400, Note_off_c, 2, 67, 79
3, 368400, Note_off_c, 2, 62, 79
3, 368400, Note_off_c, 2, 55, 79
3, 368400, Note_off_c, 2, 50, 79
3, 368400, Note_off_c, 2, 46, 79
3, 368400, Note_off_c, 2, 43, 79
3, 368400, Note_on_c, 2, 67, 79
3, 368400, Note_on_c, 2, 62, 79
3, 368400, Note_on_c, 2, 55, 79
3, 368400, Note_on_c, 2, 50, 79
3, 368400, Note_on_c, 2, 46, 79
3, 368400, Note_on_c, 2, 43, 79
3, 368640, Note_off_c, 2, 67, 79
3, 368640, Note_off_c, 2, 62, 79
3, 368640, Note_off_c, 2, 55, 79
3, 368640, Note_off_c, 2, 50, 79
3, 368640, Note_off_c, 2, 46, 79
3, 368640, Note_off_c, 2, 43, 79
3, 368640, Note_on_c, 2, 65, 79
3, 368640, Note_on_c, 2, 62, 79
3, 368640, Note_on_c, 2, 58, 79
3, 368640, Note_on_c, 2, 50, 79
3, 368640, Note_on_c, 2, 46, 79
3, 369120, Note_off_c, 2, 65, 79
3, 369120, Note_off_c, 2, 62, 79
3, 369120, Note_off_c, 2, 58, 79
3, 369120, Note_off_c, 2, 50, 79
3, 369120, Note_off_c, 2, 46, 79
3, 369120, Note_on_c, 2, 65, 79
3, 369120, Note_on_c, 2, 62, 79
3, 369120, Note_on_c, 2, 58, 79
3, 369120, Note_on_c, 2, 50, 79
3, 369120, Note_on_c, 2, 46, 79
3, 369360, Note_off_c, 2, 65, 79
3, 369360, Note_off_c, 2, 62, 79
3, 369360, Note_off_c, 2, 58, 79
3, 369360, Note_off_c, 2, 50, 79
3, 369360, Note_off_c, 2, 46, 79
3, 369360, Note_on_c, 2, 65, 79
3, 369360, Note_on_c, 2, 62, 79
3, 369360, Note_on_c, 2, 58, 79
3, 369360, Note_on_c, 2, 50, 79
3, 369360, Note_on_c, 2, 46, 79
3, 369600, Note_off_c, 2, 65, 79
3, 369600, Note_off_c, 2, 62, 79
3, 369600, Note_off_c, 2, 58, 79
3, 369600, Note_off_c, 2, 50, 79
3, 369600, Note_off_c, 2, 46, 79
3, 369600, Note_on_c, 2, 65, 79
3, 369600, Note_on_c, 2, 62, 79
3, 369600, Note_on_c, 2, 58, 79
3, 369600, Note_on_c, 2, 50, 79
3, 369600, Note_on_c, 2, 46, 79
3, 370080, Note_off_c, 2, 65, 79
3, 370080, Note_off_c, 2, 62, 79
3, 370080, Note_off_c, 2, 58, 79
3, 370080, Note_off_c, 2, 50, 79
3, 370080, Note_off_c, 2, 46, 79
3, 370080, Note_on_c, 2, 65, 79
3, 370080, Note_on_c, 2, 62, 79
3, 370080, Note_on_c, 2, 58, 79
3, 370080, Note_on_c, 2, 50, 79
3, 370080, Note_on_c, 2, 46, 79
3, 370800, Note_off_c, 2, 65, 79
3, 370800, Note_off_c, 2, 62, 79
3, 370800, Note_off_c, 2, 58, 79
3, 370800, Note_off_c, 2, 50, 79
3, 370800, Note_off_c, 2, 46, 79
3, 370800, Note_on_c, 2, 65, 79
3, 370800, Note_on_c, 2, 62, 79
3, 370800, Note_on_c, 2, 58, 79
3, 370800, Note_on_c, 2, 50, 79
3, 370800, Note_on_c, 2, 46, 79
3, 371040, Note_off_c, 2, 65, 79
3, 371040, Note_off_c, 2, 62, 79
3, 371040, Note_off_c, 2, 58, 79
3, 371040, Note_off_c, 2, 50, 79
3, 371040, Note_off_c, 2, 46, 79
3, 371040, Note_on_c, 2, 65, 79
3, 371040, Note_on_c, 2, 62, 79
3, 371040, Note_on_c, 2, 58, 79
3, 371040, Note_on_c, 2, 50, 79
3, 371040, Note_on_c, 2, 46, 79
3, 371520, Note_off_c, 2, 65, 79
3, 371520, Note_off_c, 2, 62, 79
3, 371520, Note_off_c, 2, 58, 79
3, 371520, Note_off_c, 2, 50, 79
3, 371520, Note_off_c, 2, 46, 79
3, 371520, Note_on_c, 2, 65, 79
3, 371520, Note_on_c, 2, 62, 79
3, 371520, Note_on_c, 2, 58, 79
3, 371520, Note_on_c, 2, 50, 79
3, 371520, Note_on_c, 2, 46, 79
3, 372000, Note_off_c, 2, 65, 79
3, 372000, Note_off_c, 2, 62, 79
3, 372000, Note_off_c, 2, 58, 79
3, 372000, Note_off_c, 2, 50, 79
3, 372000, Note_off_c, 2, 46, 79
3, 372000, Note_on_c, 2, 65, 79
3, 372000, Note_on_c, 2, 62, 79
3, 372000, Note_on_c, 2, 58, 79
3, 372000, Note_on_c, 2, 50, 79
3, 372000, Note_on_c, 2, 46, 79
3, 372480, Note_off_c, 2, 65, 79
3, 372480, Note_off_c, 2, 62, 79
3, 372480, Note_off_c, 2, 58, 79
3, 372480, Note_off_c, 2, 50, 79
3, 372480, Note_off_c, 2, 46, 79
3, 372480, Note_on_c, 2, 67, 79
3, 372480, Note_on_c, 2, 62, 79
3, 372480, Note_on_c, 2, 55, 79
3, 372480, Note_on_c, 2, 50, 79
3, 372480, Note_on_c, 2, 46, 79
3, 372480, Note_on_c, 2, 43, 79
3, 373200, Note_off_c, 2, 67, 79
3, 373200, Note_off_c, 2, 62, 79
3, 373200, Note_off_c, 2, 55, 79
3, 373200, Note_off_c, 2, 50, 79
3, 373200, Note_off_c, 2, 46, 79
3, 373200, Note_off_c, 2, 43, 79
3, 373200, Note_on_c, 2, 67, 79
3, 373200, Note_on_c, 2, 62, 79
3, 373200, Note_on_c, 2, 55, 79
3, 373200, Note_on_c, 2, 50, 79
3, 373200, Note_on_c, 2, 46, 79
3, 373200, Note_on_c, 2, 43, 79
3, 373440, Note_off_c, 2, 67, 79
3, 373440, Note_off_c, 2, 62, 79
3, 373440, Note_off_c, 2, 55, 79
3, 373440, Note_off_c, 2, 50, 79
3, 373440, Note_off_c, 2, 46, 79
3, 373440, Note_off_c, 2, 43, 79
3, 373440, Note_on_c, 2, 67, 79
3, 373440, Note_on_c, 2, 62, 79
3, 373440, Note_on_c, 2, 55, 79
3, 373440, Note_on_c, 2, 50, 79
3, 373440, Note_on_c, 2, 46, 79
3, 373440, Note_on_c, 2, 43, 79
3, 373920, Note_off_c, 2, 67, 79
3, 373920, Note_off_c, 2, 62, 79
3, 373920, Note_off_c, 2, 55, 79
3, 373920, Note_off_c, 2, 50, 79
3, 373920, Note_off_c, 2, 46, 79
3, 373920, Note_off_c, 2, 43, 79
3, 373920, Note_on_c, 2, 67, 79
3, 373920, Note_on_c, 2, 62, 79
3, 373920, Note_on_c, 2, 55, 79
3, 373920, Note_on_c, 2, 50, 79
3, 373920, Note_on_c, 2, 46, 79
3, 373920, Note_on_c, 2, 43, 79
3, 374400, Note_off_c, 2, 67, 79
3, 374400, Note_off_c, 2, 62, 79
3, 374400, Note_off_c, 2, 55, 79
3, 374400, Note_off_c, 2, 50, 79
3, 374400, Note_off_c, 2, 46, 79
3, 374400, Note_off_c, 2, 43, 79
3, 374400, Note_on_c, 2, 67, 79
3, 374400, Note_on_c, 2, 62, 79
3, 374400, Note_on_c, 2, 55, 79
3, 374400, Note_on_c, 2, 50, 79
3, 374400, Note_on_c, 2, 46, 79
3, 374400, Note_on_c, 2, 43, 79
3, 374640, Note_off_c, 2, 67, 79
3, 374640, Note_off_c, 2, 62, 79
3, 374640, Note_off_c, 2, 55, 79
3, 374640, Note_off_c, 2, 50, 79
3, 374640, Note_off_c, 2, 46, 79
3, 374640, Note_off_c, 2, 43, 79
3, 374640, Note_on_c, 2, 67, 79
3, 374640, Note_on_c, 2, 62, 79
3, 374640, Note_on_c, 2, 55, 79
3, 374640, Note_on_c, 2, 50, 79
3, 374640, Note_on_c, 2, 46, 79
3, 374640, Note_on_c, 2, 43, 79
3, 374880, Note_off_c, 2, 67, 79
3, 374880, Note_off_c, 2, 62, 79
3, 374880, Note_off_c, 2, 55, 79
3, 374880, Note_off_c, 2, 50, 79
3, 374880, Note_off_c, 2, 46, 79
3, 374880, Note_off_c, 2, 43, 79
3, 374880, Note_on_c, 2, 67, 79
3, 374880, Note_on_c, 2, 62, 79
3, 374880, Note_on_c, 2, 55, 79
3, 374880, Note_on_c, 2, 50, 79
3, 374880, Note_on_c, 2, 46, 79
3, 374880, Note_on_c, 2, 43, 79
3, 375360, Note_off_c, 2, 67, 79
3, 375360, Note_off_c, 2, 62, 79
3, 375360, Note_off_c, 2, 55, 79
3, 375360, Note_off_c, 2, 50, 79
3, 375360, Note_off_c, 2, 46, 79
3, 375360, Note_off_c, 2, 43, 79
3, 375360, Note_on_c, 2, 67, 79
3, 375360, Note_on_c, 2, 62, 79
3, 375360, Note_on_c, 2, 55, 79
3, 375360, Note_on_c, 2, 50, 79
3, 375360, Note_on_c, 2, 46, 79
3, 375360, Note_on_c, 2, 43, 79
3, 375840, Note_off_c, 2, 67, 79
3, 375840, Note_off_c, 2, 62, 79
3, 375840, Note_off_c, 2, 55, 79
3, 375840, Note_off_c, 2, 50, 79
3, 375840, Note_off_c, 2, 46, 79
3, 375840, Note_off_c, 2, 43, 79
3, 375840, Note_on_c, 2, 67, 79
3, 375840, Note_on_c, 2, 62, 79
3, 375840, Note_on_c, 2, 55, 79
3, 375840, Note_on_c, 2, 50, 79
3, 375840, Note_on_c, 2, 46, 79
3, 375840, Note_on_c, 2, 43, 79
3, 376320, Note_off_c, 2, 67, 79
3, 376320, Note_off_c, 2, 62, 79
3, 376320, Note_off_c, 2, 55, 79
3, 376320, Note_off_c, 2, 50, 79
3, 376320, Note_off_c, 2, 46, 79
3, 376320, Note_off_c, 2, 43, 79
3, 376320, Note_on_c, 2, 65, 79
3, 376320, Note_on_c, 2, 62, 79
3, 376320, Note_on_c, 2, 58, 79
3, 376320, Note_on_c, 2, 50, 79
3, 376320, Note_on_c, 2, 46, 79
3, 377040, Note_off_c, 2, 65, 79
3, 377040, Note_off_c, 2, 62, 79
3, 377040, Note_off_c, 2, 58, 79
3, 377040, Note_off_c, 2, 50, 79
3, 377040, Note_off_c, 2, 46, 79
3, 377040, Note_on_c, 2, 65, 79
3, 377040, Note_on_c, 2, 62, 79
3, 377040, Note_on_c, 2, 58, 79
3, 377040, Note_on_c, 2, 50, 79
3, 377040, Note_on_c, 2, 46, 79
3, 377280, Note_off_c, 2, 65, 79
3, 377280, Note_off_c, 2, 62, 79
3, 377280, Note_off_c, 2, 58, 79
3, 377280, Note_off_c, 2, 50, 79
3, 377280, Note_off_c, 2, 46, 79
3, 377280, Note_on_c, 2, 65, 79
3, 377280, Note_on_c, 2, 62, 79
3, 377280, Note_on_c, 2, 58, 79
3, 377280, Note_on_c, 2, 50, 79
3, 377280, Note_on_c, 2, 46, 79
3, 377760, Note_off_c, 2, 65, 79
3, 377760, Note_off_c, 2, 62, 79
3, 377760, Note_off_c, 2, 58, 79
3, 377760, Note_off_c, 2, 50, 79
3, 377760, Note_off_c, 2, 46, 79
3, 377760, Note_on_c, 2, 65, 79
3, 377760, Note_on_c, 2, 62, 79
3, 377760, Note_on_c, 2, 58, 79
3, 377760, Note_on_c, 2, 50, 79
3, 377760, Note_on_c, 2, 46, 79
3, 378480, Note_off_c, 2, 65, 79
3, 378480, Note_off_c, 2, 62, 79
3, 378480, Note_off_c, 2, 58, 79
3, 378480, Note_off_c, 2, 50, 79
3, 378480, Note_off_c, 2, 46, 79
3, 378480, Note_on_c, 2, 65, 79
3, 378480, Note_on_c, 2, 62, 79
3, 378480, Note_on_c, 2, 58, 79
3, 378480, Note_on_c, 2, 50, 79
3, 378480, Note_on_c, 2, 46, 79
3, 378720, Note_off_c, 2, 65, 79
3, 378720, Note_off_c, 2, 62, 79
3, 378720, Note_off_c, 2, 58, 79
3, 378720, Note_off_c, 2, 50, 79
3, 378720, Note_off_c, 2, 46, 79
3, 378720, Note_on_c, 2, 65, 79
3, 378720, Note_on_c, 2, 62, 79
3, 378720, Note_on_c, 2, 58, 79
3, 378720, Note_on_c, 2, 50, 79
3, 378720, Note_on_c, 2, 46, 79
3, 379200, Note_off_c, 2, 65, 79
3, 379200, Note_off_c, 2, 62, 79
3, 379200, Note_off_c, 2, 58, 79
3, 379200, Note_off_c, 2, 50, 79
3, 379200, Note_off_c, 2, 46, 79
3, 379200, Note_on_c, 2, 65, 79
3, 379200, Note_on_c, 2, 62, 79
3, 379200, Note_on_c, 2, 58, 79
3, 379200, Note_on_c, 2, 50, 79
3, 379200, Note_on_c, 2, 46, 79
3, 379680, Note_off_c, 2, 65, 79
3, 379680, Note_off_c, 2, 62, 79
3, 379680, Note_off_c, 2, 58, 79
3, 379680, Note_off_c, 2, 50, 79
3, 379680, Note_off_c, 2, 46, 79
3, 379680, Note_on_c, 2, 65, 79
3, 379680, Note_on_c, 2, 62, 79
3, 379680, Note_on_c, 2, 58, 79
3, 379680, Note_on_c, 2, 50, 79
3, 379680, Note_on_c, 2, 46, 79
3, 380160, Note_off_c, 2, 65, 79
3, 380160, Note_off_c, 2, 62, 79
3, 380160, Note_off_c, 2, 58, 79
3, 380160, Note_off_c, 2, 50, 79
3, 380160, Note_off_c, 2, 46, 79
3, 380160, Note_on_c, 2, 67, 79
3, 380160, Note_on_c, 2, 62, 79
3, 380160, Note_on_c, 2, 55, 79
3, 380160, Note_on_c, 2, 50, 79
3, 380160, Note_on_c, 2, 46, 79
3, 380160, Note_on_c, 2, 43, 79
3, 380880, Note_off_c, 2, 67, 79
3, 380880, Note_off_c, 2, 62, 79
3, 380880, Note_off_c, 2, 55, 79
3, 380880, Note_off_c, 2, 50, 79
3, 380880, Note_off_c, 2, 46, 79
3, 380880, Note_off_c, 2, 43, 79
3, 380880, Note_on_c, 2, 67, 79
3, 380880, Note_on_c, 2, 62, 79
3, 380880, Note_on_c, 2, 55, 79
3, 380880, Note_on_c, 2, 50, 79
3, 380880, Note_on_c, 2, 46, 79
3, 380880, Note_on_c, 2, 43, 79
3, 381120, Note_off_c, 2, 67, 79
3, 381120, Note_off_c, 2, 62, 79
3, 381120, Note_off_c, 2, 55, 79
3, 381120, Note_off_c, 2, 50, 79
3, 381120, Note_off_c, 2, 46, 79
3, 381120, Note_off_c, 2, 43, 79
3, 381120, Note_on_c, 2, 67, 79
3, 381120, Note_on_c, 2, 62, 79
3, 381120, Note_on_c, 2, 55, 79
3, 381120, Note_on_c, 2, 50, 79
3, 381120, Note_on_c, 2, 46, 79
3, 381120, Note_on_c, 2, 43, 79
3, 381600, Note_off_c, 2, 67, 79
3, 381600, Note_off_c, 2, 62, 79
3, 381600, Note_off_c, 2, 55, 79
3, 381600, Note_off_c, 2, 50, 79
3, 381600, Note_off_c, 2, 46, 79
3, 381600, Note_off_c, 2, 43, 79
3, 381600, Note_on_c, 2, 67, 79
3, 381600, Note_on_c, 2, 62, 79
3, 381600, Note_on_c, 2, 55, 79
3, 381600, Note_on_c, 2, 50, 79
3, 381600, Note_on_c, 2, 46, 79
3, 381600, Note_on_c, 2, 43, 79
3, 382080, Note_off_c, 2, 67, 79
3, 382080, Note_off_c, 2, 62, 79
3, 382080, Note_off_c, 2, 55, 79
3, 382080, Note_off_c, 2, 50, 79
3, 382080, Note_off_c, 2, 46, 79
3, 382080, Note_off_c, 2, 43, 79
3, 382080, Note_on_c, 2, 67, 79
3, 382080, Note_on_c, 2, 62, 79
3, 382080, Note_on_c, 2, 55, 79
3, 382080, Note_on_c, 2, 50, 79
3, 382080, Note_on_c, 2, 46, 79
3, 382080, Note_on_c, 2, 43, 79
3, 382320, Note_off_c, 2, 67, 79
3, 382320, Note_off_c, 2, 62, 79
3, 382320, Note_off_c, 2, 55, 79
3, 382320, Note_off_c, 2, 50, 79
3, 382320, Note_off_c, 2, 46, 79
3, 382320, Note_off_c, 2, 43, 79
3, 382320, Note_on_c, 2, 67, 79
3, 382320, Note_on_c, 2, 62, 79
3, 382320, Note_on_c, 2, 55, 79
3, 382320, Note_on_c, 2, 50, 79
3, 382320, Note_on_c, 2, 46, 79
3, 382320, Note_on_c, 2, 43, 79
3, 382560, Note_off_c, 2, 67, 79
3, 382560, Note_off_c, 2, 62, 79
3, 382560, Note_off_c, 2, 55, 79
3, 382560, Note_off_c, 2, 50, 79
3, 382560, Note_off_c, 2, 46, 79
3, 382560, Note_off_c, 2, 43, 79
3, 382560, Note_on_c, 2, 67, 79
3, 382560, Note_on_c, 2, 62, 79
3, 382560, Note_on_c, 2, 55, 79
3, 382560, Note_on_c, 2, 50, 79
3, 382560, Note_on_c, 2, 46, 79
3, 382560, Note_on_c, 2, 43, 79
3, 382800, Note_off_c, 2, 67, 79
3, 382800, Note_off_c, 2, 62, 79
3, 382800, Note_off_c, 2, 55, 79
3, 382800, Note_off_c, 2, 50, 79
3, 382800, Note_off_c, 2, 46, 79
3, 382800, Note_off_c, 2, 43, 79
3, 382800, Note_on_c, 2, 67, 79
3, 382800, Note_on_c, 2, 62, 79
3, 382800, Note_on_c, 2, 55, 79
3, 382800, Note_on_c, 2, 50, 79
3, 382800, Note_on_c, 2, 46, 79
3, 382800, Note_on_c, 2, 43, 79
3, 383040, Note_off_c, 2, 67, 79
3, 383040, Note_off_c, 2, 62, 79
3, 383040, Note_off_c, 2, 55, 79
3, 383040, Note_off_c, 2, 50, 79
3, 383040, Note_off_c, 2, 46, 79
3, 383040, Note_off_c, 2, 43, 79
3, 383040, Note_on_c, 2, 67, 79
3, 383040, Note_on_c, 2, 62, 79
3, 383040, Note_on_c, 2, 55, 79
3, 383040, Note_on_c, 2, 50, 79
3, 383040, Note_on_c, 2, 46, 79
3, 383040, Note_on_c, 2, 43, 79
3, 383280, Note_off_c, 2, 67, 79
3, 383280, Note_off_c, 2, 62, 79
3, 383280, Note_off_c, 2, 55, 79
3, 383280, Note_off_c, 2, 50, 79
3, 383280, Note_off_c, 2, 46, 79
3, 383280, Note_off_c, 2, 43, 79
3, 383280, Note_on_c, 2, 67, 79
3, 383280, Note_on_c, 2, 62, 79
3, 383280, Note_on_c, 2, 55, 79
3, 383280, Note_on_c, 2, 50, 79
3, 383280, Note_on_c, 2, 46, 79
3, 383280, Note_on_c, 2, 43, 79
3, 383520, Note_off_c, 2, 67, 79
3, 383520, Note_off_c, 2, 62, 79
3, 383520, Note_off_c, 2, 55, 79
3, 383520, Note_off_c, 2, 50, 79
3, 383520, Note_off_c, 2, 46, 79
3, 383520, Note_off_c, 2, 43, 79
3, 383520, Note_on_c, 2, 67, 79
3, 383520, Note_on_c, 2, 62, 79
3, 383520, Note_on_c, 2, 55, 79
3, 383520, Note_on_c, 2, 50, 79
3, 383520, Note_on_c, 2, 46, 79
3, 383520, Note_on_c, 2, 43, 79
3, 384000, Note_off_c, 2, 67, 79
3, 384000, Note_off_c, 2, 62, 79
3, 384000, Note_off_c, 2, 55, 79
3, 384000, Note_off_c, 2, 50, 79
3, 384000, Note_off_c, 2, 46, 79
3, 384000, Note_off_c, 2, 43, 79
3, 384000, Note_on_c, 2, 67, 79
3, 384000, Note_on_c, 2, 62, 79
3, 384000, Note_on_c, 2, 55, 79
3, 384000, Note_on_c, 2, 50, 79
3, 384000, Note_on_c, 2, 46, 79
3, 384000, Note_on_c, 2, 43, 79
3, 384480, Note_off_c, 2, 67, 79
3, 384480, Note_off_c, 2, 62, 79
3, 384480, Note_off_c, 2, 55, 79
3, 384480, Note_off_c, 2, 50, 79
3, 384480, Note_off_c, 2, 46, 79
3, 384480, Note_off_c, 2, 43, 79
3, 384480, Note_on_c, 2, 67, 79
3, 384480, Note_on_c, 2, 62, 79
3, 384480, Note_on_c, 2, 55, 79
3, 384480, Note_on_c, 2, 50, 79
3, 384480, Note_on_c, 2, 46, 79
3, 384480, Note_on_c, 2, 43, 79
3, 384720, Note_off_c, 2, 67, 79
3, 384720, Note_off_c, 2, 62, 79
3, 384720, Note_off_c, 2, 55, 79
3, 384720, Note_off_c, 2, 50, 79
3, 384720, Note_off_c, 2, 46, 79
3, 384720, Note_off_c, 2, 43, 79
3, 384720, Note_on_c, 2, 67, 79
3, 384720, Note_on_c, 2, 62, 79
3, 384720, Note_on_c, 2, 55, 79
3, 384720, Note_on_c, 2, 50, 79
3, 384720, Note_on_c, 2, 46, 79
3, 384720, Note_on_c, 2, 43, 79
3, 384960, Note_off_c, 2, 67, 79
3, 384960, Note_off_c, 2, 62, 79
3, 384960, Note_off_c, 2, 55, 79
3, 384960, Note_off_c, 2, 50, 79
3, 384960, Note_off_c, 2, 46, 79
3, 384960, Note_off_c, 2, 43, 79
3, 384960, Note_on_c, 2, 67, 79
3, 384960, Note_on_c, 2, 62, 79
3, 384960, Note_on_c, 2, 55, 79
3, 384960, Note_on_c, 2, 50, 79
3, 384960, Note_on_c, 2, 46, 79
3, 384960, Note_on_c, 2, 43, 79
3, 385440, Note_off_c, 2, 67, 79
3, 385440, Note_off_c, 2, 62, 79
3, 385440, Note_off_c, 2, 55, 79
3, 385440, Note_off_c, 2, 50, 79
3, 385440, Note_off_c, 2, 46, 79
3, 385440, Note_off_c, 2, 43, 79
3, 385440, Note_on_c, 2, 67, 79
3, 385440, Note_on_c, 2, 62, 79
3, 385440, Note_on_c, 2, 55, 79
3, 385440, Note_on_c, 2, 50, 79
3, 385440, Note_on_c, 2, 46, 79
3, 385440, Note_on_c, 2, 43, 79
3, 385680, Note_off_c, 2, 67, 79
3, 385680, Note_off_c, 2, 62, 79
3, 385680, Note_off_c, 2, 55, 79
3, 385680, Note_off_c, 2, 50, 79
3, 385680, Note_off_c, 2, 46, 79
3, 385680, Note_off_c, 2, 43, 79
3, 385680, Note_on_c, 2, 67, 79
3, 385680, Note_on_c, 2, 62, 79
3, 385680, Note_on_c, 2, 55, 79
3, 385680, Note_on_c, 2, 50, 79
3, 385680, Note_on_c, 2, 46, 79
3, 385680, Note_on_c, 2, 43, 79
3, 385920, Note_off_c, 2, 67, 79
3, 385920, Note_off_c, 2, 62, 79
3, 385920, Note_off_c, 2, 55, 79
3, 385920, Note_off_c, 2, 50, 79
3, 385920, Note_off_c, 2, 46, 79
3, 385920, Note_off_c, 2, 43, 79
3, 385920, Note_on_c, 2, 67, 79
3, 385920, Note_on_c, 2, 62, 79
3, 385920, Note_on_c, 2, 55, 79
3, 385920, Note_on_c, 2, 50, 79
3, 385920, Note_on_c, 2, 46, 79
3, 385920, Note_on_c, 2, 43, 79
3, 386160, Note_off_c, 2, 67, 79
3, 386160, Note_off_c, 2, 62, 79
3, 386160, Note_off_c, 2, 55, 79
3, 386160, Note_off_c, 2, 50, 79
3, 386160, Note_off_c, 2, 46, 79
3, 386160, Note_off_c, 2, 43, 79
3, 386160, Note_on_c, 2, 67, 79
3, 386160, Note_on_c, 2, 62, 79
3, 386160, Note_on_c, 2, 55, 79
3, 386160, Note_on_c, 2, 50, 79
3, 386160, Note_on_c, 2, 46, 79
3, 386160, Note_on_c, 2, 43, 79
3, 386400, Note_off_c, 2, 67, 79
3, 386400, Note_off_c, 2, 62, 79
3, 386400, Note_off_c, 2, 55, 79
3, 386400, Note_off_c, 2, 50, 79
3, 386400, Note_off_c, 2, 46, 79
3, 386400, Note_off_c, 2, 43, 79
3, 386400, Note_on_c, 2, 67, 79
3, 386400, Note_on_c, 2, 62, 79
3, 386400, Note_on_c, 2, 55, 79
3, 386400, Note_on_c, 2, 50, 79
3, 386400, Note_on_c, 2, 46, 79
3, 386400, Note_on_c, 2, 43, 79
3, 386640, Note_off_c, 2, 67, 79
3, 386640, Note_off_c, 2, 62, 79
3, 386640, Note_off_c, 2, 55, 79
3, 386640, Note_off_c, 2, 50, 79
3, 386640, Note_off_c, 2, 46, 79
3, 386640, Note_off_c, 2, 43, 79
3, 386640, Note_on_c, 2, 67, 79
3, 386640, Note_on_c, 2, 62, 79
3, 386640, Note_on_c, 2, 55, 79
3, 386640, Note_on_c, 2, 50, 79
3, 386640, Note_on_c, 2, 46, 79
3, 386640, Note_on_c, 2, 43, 79
3, 386880, Note_off_c, 2, 67, 79
3, 386880, Note_off_c, 2, 62, 79
3, 386880, Note_off_c, 2, 55, 79
3, 386880, Note_off_c, 2, 50, 79
3, 386880, Note_off_c, 2, 46, 79
3, 386880, Note_off_c, 2, 43, 79
3, 386880, Note_on_c, 2, 67, 79
3, 386880, Note_on_c, 2, 62, 79
3, 386880, Note_on_c, 2, 55, 79
3, 386880, Note_on_c, 2, 50, 79
3, 386880, Note_on_c, 2, 46, 79
3, 386880, Note_on_c, 2, 43, 79
3, 387120, Note_off_c, 2, 67, 79
3, 387120, Note_off_c, 2, 62, 79
3, 387120, Note_off_c, 2, 55, 79
3, 387120, Note_off_c, 2, 50, 79
3, 387120, Note_off_c, 2, 46, 79
3, 387120, Note_off_c, 2, 43, 79
3, 387120, Note_on_c, 2, 67, 79
3, 387120, Note_on_c, 2, 62, 79
3, 387120, Note_on_c, 2, 55, 79
3, 387120, Note_on_c, 2, 50, 79
3, 387120, Note_on_c, 2, 46, 79
3, 387120, Note_on_c, 2, 43, 79
3, 387360, Note_off_c, 2, 67, 79
3, 387360, Note_off_c, 2, 62, 79
3, 387360, Note_off_c, 2, 55, 79
3, 387360, Note_off_c, 2, 50, 79
3, 387360, Note_off_c, 2, 46, 79
3, 387360, Note_off_c, 2, 43, 79
3, 387360, Note_on_c, 2, 67, 79
3, 387360, Note_on_c, 2, 62, 79
3, 387360, Note_on_c, 2, 55, 79
3, 387360, Note_on_c, 2, 50, 79
3, 387360, Note_on_c, 2, 46, 79
3, 387360, Note_on_c, 2, 43, 79
3, 387600, Note_off_c, 2, 67, 79
3, 387600, Note_off_c, 2, 62, 79
3, 387600, Note_off_c, 2, 55, 79
3, 387600, Note_off_c, 2, 50, 79
3, 387600, Note_off_c, 2, 46, 79
3, 387600, Note_off_c, 2, 43, 79
3, 387600, Note_on_c, 2, 67, 79
3, 387600, Note_on_c, 2, 62, 79
3, 387600, Note_on_c, 2, 55, 79
3, 387600, Note_on_c, 2, 50, 79
3, 387600, Note_on_c, 2, 46, 79
3, 387600, Note_on_c, 2, 43, 79
3, 387840, Note_off_c, 2, 67, 79
3, 387840, Note_off_c, 2, 62, 79
3, 387840, Note_off_c, 2, 55, 79
3, 387840, Note_off_c, 2, 50, 79
3, 387840, Note_off_c, 2, 46, 79
3, 387840, Note_off_c, 2, 43, 79
3, 387840, Note_on_c, 2, 65, 79
3, 387840, Note_on_c, 2, 62, 79
3, 387840, Note_on_c, 2, 58, 79
3, 387840, Note_on_c, 2, 50, 79
3, 387840, Note_on_c, 2, 46, 79
3, 388320, Note_off_c, 2, 65, 79
3, 388320, Note_off_c, 2, 62, 79
3, 388320, Note_off_c, 2, 58, 79
3, 388320, Note_off_c, 2, 50, 79
3, 388320, Note_off_c, 2, 46, 79
3, 388320, Note_on_c, 2, 65, 79
3, 388320, Note_on_c, 2, 62, 79
3, 388320, Note_on_c, 2, 58, 79
3, 388320, Note_on_c, 2, 50, 79
3, 388320, Note_on_c, 2, 46, 79
3, 388560, Note_off_c, 2, 65, 79
3, 388560, Note_off_c, 2, 62, 79
3, 388560, Note_off_c, 2, 58, 79
3, 388560, Note_off_c, 2, 50, 79
3, 388560, Note_off_c, 2, 46, 79
3, 388560, Note_on_c, 2, 65, 79
3, 388560, Note_on_c, 2, 62, 79
3, 388560, Note_on_c, 2, 58, 79
3, 388560, Note_on_c, 2, 50, 79
3, 388560, Note_on_c, 2, 46, 79
3, 388800, Note_off_c, 2, 65, 79
3, 388800, Note_off_c, 2, 62, 79
3, 388800, Note_off_c, 2, 58, 79
3, 388800, Note_off_c, 2, 50, 79
3, 388800, Note_off_c, 2, 46, 79
3, 388800, Note_on_c, 2, 65, 79
3, 388800, Note_on_c, 2, 62, 79
3, 388800, Note_on_c, 2, 58, 79
3, 388800, Note_on_c, 2, 50, 79
3, 388800, Note_on_c, 2, 46, 79
3, 389280, Note_off_c, 2, 65, 79
3, 389280, Note_off_c, 2, 62, 79
3, 389280, Note_off_c, 2, 58, 79
3, 389280, Note_off_c, 2, 50, 79
3, 389280, Note_off_c, 2, 46, 79
3, 389280, Note_on_c, 2, 65, 79
3, 389280, Note_on_c, 2, 62, 79
3, 389280, Note_on_c, 2, 58, 79
3, 389280, Note_on_c, 2, 50, 79
3, 389280, Note_on_c, 2, 46, 79
3, 389520, Note_off_c, 2, 65, 79
3, 389520, Note_off_c, 2, 62, 79
3, 389520, Note_off_c, 2, 58, 79
3, 389520, Note_off_c, 2, 50, 79
3, 389520, Note_off_c, 2, 46, 79
3, 389520, Note_on_c, 2, 65, 79
3, 389520, Note_on_c, 2, 62, 79
3, 389520, Note_on_c, 2, 58, 79
3, 389520, Note_on_c, 2, 50, 79
3, 389520, Note_on_c, 2, 46, 79
3, 389760, Note_off_c, 2, 65, 79
3, 389760, Note_off_c, 2, 62, 79
3, 389760, Note_off_c, 2, 58, 79
3, 389760, Note_off_c, 2, 50, 79
3, 389760, Note_off_c, 2, 46, 79
3, 389760, Note_on_c, 2, 65, 79
3, 389760, Note_on_c, 2, 62, 79
3, 389760, Note_on_c, 2, 58, 79
3, 389760, Note_on_c, 2, 50, 79
3, 389760, Note_on_c, 2, 46, 79
3, 390000, Note_off_c, 2, 65, 79
3, 390000, Note_off_c, 2, 62, 79
3, 390000, Note_off_c, 2, 58, 79
3, 390000, Note_off_c, 2, 50, 79
3, 390000, Note_off_c, 2, 46, 79
3, 390000, Note_on_c, 2, 65, 79
3, 390000, Note_on_c, 2, 62, 79
3, 390000, Note_on_c, 2, 58, 79
3, 390000, Note_on_c, 2, 50, 79
3, 390000, Note_on_c, 2, 46, 79
3, 390240, Note_off_c, 2, 65, 79
3, 390240, Note_off_c, 2, 62, 79
3, 390240, Note_off_c, 2, 58, 79
3, 390240, Note_off_c, 2, 50, 79
3, 390240, Note_off_c, 2, 46, 79
3, 390240, Note_on_c, 2, 65, 79
3, 390240, Note_on_c, 2, 62, 79
3, 390240, Note_on_c, 2, 58, 79
3, 390240, Note_on_c, 2, 50, 79
3, 390240, Note_on_c, 2, 46, 79
3, 390480, Note_off_c, 2, 65, 79
3, 390480, Note_off_c, 2, 62, 79
3, 390480, Note_off_c, 2, 58, 79
3, 390480, Note_off_c, 2, 50, 79
3, 390480, Note_off_c, 2, 46, 79
3, 390480, Note_on_c, 2, 65, 79
3, 390480, Note_on_c, 2, 62, 79
3, 390480, Note_on_c, 2, 58, 79
3, 390480, Note_on_c, 2, 50, 79
3, 390480, Note_on_c, 2, 46, 79
3, 390720, Note_off_c, 2, 65, 79
3, 390720, Note_off_c, 2, 62, 79
3, 390720, Note_off_c, 2, 58, 79
3, 390720, Note_off_c, 2, 50, 79
3, 390720, Note_off_c, 2, 46, 79
3, 390720, Note_on_c, 2, 65, 79
3, 390720, Note_on_c, 2, 62, 79
3, 390720, Note_on_c, 2, 58, 79
3, 390720, Note_on_c, 2, 50, 79
3, 390720, Note_on_c, 2, 46, 79
3, 390960, Note_off_c, 2, 65, 79
3, 390960, Note_off_c, 2, 62, 79
3, 390960, Note_off_c, 2, 58, 79
3, 390960, Note_off_c, 2, 50, 79
3, 390960, Note_off_c, 2, 46, 79
3, 390960, Note_on_c, 2, 65, 79
3, 390960, Note_on_c, 2, 62, 79
3, 390960, Note_on_c, 2, 58, 79
3, 390960, Note_on_c, 2, 50, 79
3, 390960, Note_on_c, 2, 46, 79
3, 391200, Note_off_c, 2, 65, 79
3, 391200, Note_off_c, 2, 62, 79
3, 391200, Note_off_c, 2, 58, 79
3, 391200, Note_off_c, 2, 50, 79
3, 391200, Note_off_c, 2, 46, 79
3, 391680, Note_on_c, 2, 67, 79
3, 391680, Note_on_c, 2, 62, 79
3, 391680, Note_on_c, 2, 55, 79
3, 391680, Note_on_c, 2, 50, 79
3, 391680, Note_on_c, 2, 46, 79
3, 391680, Note_on_c, 2, 43, 79
3, 392160, Note_off_c, 2, 67, 79
3, 392160, Note_off_c, 2, 62, 79
3, 392160, Note_off_c, 2, 55, 79
3, 392160, Note_off_c, 2, 50, 79
3, 392160, Note_off_c, 2, 46, 79
3, 392160, Note_off_c, 2, 43, 79
3, 392160, Note_on_c, 2, 67, 79
3, 392160, Note_on_c, 2, 62, 79
3, 392160, Note_on_c, 2, 55, 79
3, 392160, Note_on_c, 2, 50, 79
3, 392160, Note_on_c, 2, 46, 79
3, 392160, Note_on_c, 2, 43, 79
3, 392400, Note_off_c, 2, 67, 79
3, 392400, Note_off_c, 2, 62, 79
3, 392400, Note_off_c, 2, 55, 79
3, 392400, Note_off_c, 2, 50, 79
3, 392400, Note_off_c, 2, 46, 79
3, 392400, Note_off_c, 2, 43, 79
3, 392400, Note_on_c, 2, 67, 79
3, 392400, Note_on_c, 2, 62, 79
3, 392400, Note_on_c, 2, 55, 79
3, 392400, Note_on_c, 2, 50, 79
3, 392400, Note_on_c, 2, 46, 79
3, 392400, Note_on_c, 2, 43, 79
3, 392640, Note_off_c, 2, 67, 79
3, 392640, Note_off_c, 2, 62, 79
3, 392640, Note_off_c, 2, 55, 79
3, 392640, Note_off_c, 2, 50, 79
3, 392640, Note_off_c, 2, 46, 79
3, 392640, Note_off_c, 2, 43, 79
3, 392640, Note_on_c, 2, 67, 79
3, 392640, Note_on_c, 2, 62, 79
3, 392640, Note_on_c, 2, 55, 79
3, 392640, Note_on_c, 2, 50, 79
3, 392640, Note_on_c, 2, 46, 79
3, 392640, Note_on_c, 2, 43, 79
3, 393120, Note_off_c, 2, 67, 79
3, 393120, Note_off_c, 2, 62, 79
3, 393120, Note_off_c, 2, 55, 79
3, 393120, Note_off_c, 2, 50, 79
3, 393120, Note_off_c, 2, 46, 79
3, 393120, Note_off_c, 2, 43, 79
3, 393120, Note_on_c, 2, 67, 79
3, 393120, Note_on_c, 2, 62, 79
3, 393120, Note_on_c, 2, 55, 79
3, 393120, Note_on_c, 2, 50, 79
3, 393120, Note_on_c, 2, 46, 79
3, 393120, Note_on_c, 2, 43, 79
3, 393360, Note_off_c, 2, 67, 79
3, 393360, Note_off_c, 2, 62, 79
3, 393360, Note_off_c, 2, 55, 79
3, 393360, Note_off_c, 2, 50, 79
3, 393360, Note_off_c, 2, 46, 79
3, 393360, Note_off_c, 2, 43, 79
3, 393360, Note_on_c, 2, 67, 79
3, 393360, Note_on_c, 2, 62, 79
3, 393360, Note_on_c, 2, 55, 79
3, 393360, Note_on_c, 2, 50, 79
3, 393360, Note_on_c, 2, 46, 79
3, 393360, Note_on_c, 2, 43, 79
3, 393600, Note_off_c, 2, 67, 79
3, 393600, Note_off_c, 2, 62, 79
3, 393600, Note_off_c, 2, 55, 79
3, 393600, Note_off_c, 2, 50, 79
3, 393600, Note_off_c, 2, 46, 79
3, 393600, Note_off_c, 2, 43, 79
3, 393600, Note_on_c, 2, 67, 79
3, 393600, Note_on_c, 2, 62, 79
3, 393600, Note_on_c, 2, 55, 79
3, 393600, Note_on_c, 2, 50, 79
3, 393600, Note_on_c, 2, 46, 79
3, 393600, Note_on_c, 2, 43, 79
3, 393840, Note_off_c, 2, 67, 79
3, 393840, Note_off_c, 2, 62, 79
3, 393840, Note_off_c, 2, 55, 79
3, 393840, Note_off_c, 2, 50, 79
3, 393840, Note_off_c, 2, 46, 79
3, 393840, Note_off_c, 2, 43, 79
3, 393840, Note_on_c, 2, 67, 79
3, 393840, Note_on_c, 2, 62, 79
3, 393840, Note_on_c, 2, 55, 79
3, 393840, Note_on_c, 2, 50, 79
3, 393840, Note_on_c, 2, 46, 79
3, 393840, Note_on_c, 2, 43, 79
3, 394080, Note_off_c, 2, 67, 79
3, 394080, Note_off_c, 2, 62, 79
3, 394080, Note_off_c, 2, 55, 79
3, 394080, Note_off_c, 2, 50, 79
3, 394080, Note_off_c, 2, 46, 79
3, 394080, Note_off_c, 2, 43, 79
3, 394080, Note_on_c, 2, 67, 79
3, 394080, Note_on_c, 2, 62, 79
3, 394080, Note_on_c, 2, 55, 79
3, 394080, Note_on_c, 2, 50, 79
3, 394080, Note_on_c, 2, 46, 79
3, 394080, Note_on_c, 2, 43, 79
3, 394320, Note_off_c, 2, 67, 79
3, 394320, Note_off_c, 2, 62, 79
3, 394320, Note_off_c, 2, 55, 79
3, 394320, Note_off_c, 2, 50, 79
3, 394320, Note_off_c, 2, 46, 79
3, 394320, Note_off_c, 2, 43, 79
3, 394320, Note_on_c, 2, 67, 79
3, 394320, Note_on_c, 2, 62, 79
3, 394320, Note_on_c, 2, 55, 79
3, 394320, Note_on_c, 2, 50, 79
3, 394320, Note_on_c, 2, 46, 79
3, 394320, Note_on_c, 2, 43, 79
3, 394560, Note_off_c, 2, 67, 79
3, 394560, Note_off_c, 2, 62, 79
3, 394560, Note_off_c, 2, 55, 79
3, 394560, Note_off_c, 2, 50, 79
3, 394560, Note_off_c, 2, 46, 79
3, 394560, Note_off_c, 2, 43, 79
3, 394560, Note_on_c, 2, 67, 79
3, 394560, Note_on_c, 2, 62, 79
3, 394560, Note_on_c, 2, 55, 79
3, 394560, Note_on_c, 2, 50, 79
3, 394560, Note_on_c, 2, 46, 79
3, 394560, Note_on_c, 2, 43, 79
3, 394800, Note_off_c, 2, 67, 79
3, 394800, Note_off_c, 2, 62, 79
3, 394800, Note_off_c, 2, 55, 79
3, 394800, Note_off_c, 2, 50, 79
3, 394800, Note_off_c, 2, 46, 79
3, 394800, Note_off_c, 2, 43, 79
3, 394800, Note_on_c, 2, 67, 79
3, 394800, Note_on_c, 2, 62, 79
3, 394800, Note_on_c, 2, 55, 79
3, 394800, Note_on_c, 2, 50, 79
3, 394800, Note_on_c, 2, 46, 79
3, 394800, Note_on_c, 2, 43, 79
3, 395040, Note_off_c, 2, 67, 79
3, 395040, Note_off_c, 2, 62, 79
3, 395040, Note_off_c, 2, 55, 79
3, 395040, Note_off_c, 2, 50, 79
3, 395040, Note_off_c, 2, 46, 79
3, 395040, Note_off_c, 2, 43, 79
3, 395040, Note_on_c, 2, 67, 79
3, 395040, Note_on_c, 2, 62, 79
3, 395040, Note_on_c, 2, 55, 79
3, 395040, Note_on_c, 2, 50, 79
3, 395040, Note_on_c, 2, 46, 79
3, 395040, Note_on_c, 2, 43, 79
3, 395280, Note_off_c, 2, 67, 79
3, 395280, Note_off_c, 2, 62, 79
3, 395280, Note_off_c, 2, 55, 79
3, 395280, Note_off_c, 2, 50, 79
3, 395280, Note_off_c, 2, 46, 79
3, 395280, Note_off_c, 2, 43, 79
3, 395280, Note_on_c, 2, 67, 79
3, 395280, Note_on_c, 2, 62, 79
3, 395280, Note_on_c, 2, 55, 79
3, 395280, Note_on_c, 2, 50, 79
3, 395280, Note_on_c, 2, 46, 79
3, 395280, Note_on_c, 2, 43, 79
3, 395520, Note_off_c, 2, 67, 79
3, 395520, Note_off_c, 2, 62, 79
3, 395520, Note_off_c, 2, 55, 79
3, 395520, Note_off_c, 2, 50, 79
3, 395520, Note_off_c, 2, 46, 79
3, 395520, Note_off_c, 2, 43, 79
3, 395520, Note_on_c, 2, 67, 79
3, 395520, Note_on_c, 2, 62, 79
3, 395520, Note_on_c, 2, 55, 79
3, 395520, Note_on_c, 2, 50, 79
3, 395520, Note_on_c, 2, 46, 79
3, 395520, Note_on_c, 2, 43, 79
3, 396000, Note_off_c, 2, 67, 79
3, 396000, Note_off_c, 2, 62, 79
3, 396000, Note_off_c, 2, 55, 79
3, 396000, Note_off_c, 2, 50, 79
3, 396000, Note_off_c, 2, 46, 79
3, 396000, Note_off_c, 2, 43, 79
3, 396000, Note_on_c, 2, 67, 79
3, 396000, Note_on_c, 2, 62, 79
3, 396000, Note_on_c, 2, 55, 79
3, 396000, Note_on_c, 2, 50, 79
3, 396000, Note_on_c, 2, 46, 79
3, 396000, Note_on_c, 2, 43, 79
3, 396240, Note_off_c, 2, 67, 79
3, 396240, Note_off_c, 2, 62, 79
3, 396240, Note_off_c, 2, 55, 79
3, 396240, Note_off_c, 2, 50, 79
3, 396240, Note_off_c, 2, 46, 79
3, 396240, Note_off_c, 2, 43, 79
3, 396240, Note_on_c, 2, 67, 79
3, 396240, Note_on_c, 2, 62, 79
3, 396240, Note_on_c, 2, 55, 79
3, 396240, Note_on_c, 2, 50, 79
3, 396240, Note_on_c, 2, 46, 79
3, 396240, Note_on_c, 2, 43, 79
3, 396480, Note_off_c, 2, 67, 79
3, 396480, Note_off_c, 2, 62, 79
3, 396480, Note_off_c, 2, 55, 79
3, 396480, Note_off_c, 2, 50, 79
3, 396480, Note_off_c, 2, 46, 79
3, 396480, Note_off_c, 2, 43, 79
3, 396480, Note_on_c, 2, 67, 79
3, 396480, Note_on_c, 2, 62, 79
3, 396480, Note_on_c, 2, 55, 79
3, 396480, Note_on_c, 2, 50, 79
3, 396480, Note_on_c, 2, 46, 79
3, 396480, Note_on_c, 2, 43, 79
3, 396960, Note_off_c, 2, 67, 79
3, 396960, Note_off_c, 2, 62, 79
3, 396960, Note_off_c, 2, 55, 79
3, 396960, Note_off_c, 2, 50, 79
3, 396960, Note_off_c, 2, 46, 79
3, 396960, Note_off_c, 2, 43, 79
3, 396960, Note_on_c, 2, 67, 79
3, 396960, Note_on_c, 2, 62, 79
3, 396960, Note_on_c, 2, 55, 79
3, 396960, Note_on_c, 2, 50, 79
3, 396960, Note_on_c, 2, 46, 79
3, 396960, Note_on_c, 2, 43, 79
3, 397200, Note_off_c, 2, 67, 79
3, 397200, Note_off_c, 2, 62, 79
3, 397200, Note_off_c, 2, 55, 79
3, 397200, Note_off_c, 2, 50, 79
3, 397200, Note_off_c, 2, 46, 79
3, 397200, Note_off_c, 2, 43, 79
3, 397200, Note_on_c, 2, 67, 79
3, 397200, Note_on_c, 2, 62, 79
3, 397200, Note_on_c, 2, 55, 79
3, 397200, Note_on_c, 2, 50, 79
3, 397200, Note_on_c, 2, 46, 79
3, 397200, Note_on_c, 2, 43, 79
3, 397440, Note_off_c, 2, 67, 79
3, 397440, Note_off_c, 2, 62, 79
3, 397440, Note_off_c, 2, 55, 79
3, 397440, Note_off_c, 2, 50, 79
3, 397440, Note_off_c, 2, 46, 79
3, 397440, Note_off_c, 2, 43, 79
3, 397440, Note_on_c, 2, 67, 79
3, 397440, Note_on_c, 2, 62, 79
3, 397440, Note_on_c, 2, 55, 79
3, 397440, Note_on_c, 2, 50, 79
3, 397440, Note_on_c, 2, 46, 79
3, 397440, Note_on_c, 2, 43, 79
3, 397680, Note_off_c, 2, 67, 79
3, 397680, Note_off_c, 2, 62, 79
3, 397680, Note_off_c, 2, 55, 79
3, 397680, Note_off_c, 2, 50, 79
3, 397680, Note_off_c, 2, 46, 79
3, 397680, Note_off_c, 2, 43, 79
3, 397680, Note_on_c, 2, 67, 79
3, 397680, Note_on_c, 2, 62, 79
3, 397680, Note_on_c, 2, 55, 79
3, 397680, Note_on_c, 2, 50, 79
3, 397680, Note_on_c, 2, 46, 79
3, 397680, Note_on_c, 2, 43, 79
3, 397920, Note_off_c, 2, 67, 79
3, 397920, Note_off_c, 2, 62, 79
3, 397920, Note_off_c, 2, 55, 79
3, 397920, Note_off_c, 2, 50, 79
3, 397920, Note_off_c, 2, 46, 79
3, 397920, Note_off_c, 2, 43, 79
3, 397920, Note_on_c, 2, 67, 79
3, 397920, Note_on_c, 2, 62, 79
3, 397920, Note_on_c, 2, 55, 79
3, 397920, Note_on_c, 2, 50, 79
3, 397920, Note_on_c, 2, 46, 79
3, 397920, Note_on_c, 2, 43, 79
3, 398160, Note_off_c, 2, 67, 79
3, 398160, Note_off_c, 2, 62, 79
3, 398160, Note_off_c, 2, 55, 79
3, 398160, Note_off_c, 2, 50, 79
3, 398160, Note_off_c, 2, 46, 79
3, 398160, Note_off_c, 2, 43, 79
3, 398160, Note_on_c, 2, 67, 79
3, 398160, Note_on_c, 2, 62, 79
3, 398160, Note_on_c, 2, 55, 79
3, 398160, Note_on_c, 2, 50, 79
3, 398160, Note_on_c, 2, 46, 79
3, 398160, Note_on_c, 2, 43, 79
3, 398400, Note_off_c, 2, 67, 79
3, 398400, Note_off_c, 2, 62, 79
3, 398400, Note_off_c, 2, 55, 79
3, 398400, Note_off_c, 2, 50, 79
3, 398400, Note_off_c, 2, 46, 79
3, 398400, Note_off_c, 2, 43, 79
3, 398400, Note_on_c, 2, 67, 79
3, 398400, Note_on_c, 2, 62, 79
3, 398400, Note_on_c, 2, 55, 79
3, 398400, Note_on_c, 2, 50, 79
3, 398400, Note_on_c, 2, 46, 79
3, 398400, Note_on_c, 2, 43, 79
3, 398640, Note_off_c, 2, 67, 79
3, 398640, Note_off_c, 2, 62, 79
3, 398640, Note_off_c, 2, 55, 79
3, 398640, Note_off_c, 2, 50, 79
3, 398640, Note_off_c, 2, 46, 79
3, 398640, Note_off_c, 2, 43, 79
3, 398640, Note_on_c, 2, 67, 79
3, 398640, Note_on_c, 2, 62, 79
3, 398640, Note_on_c, 2, 55, 79
3, 398640, Note_on_c, 2, 50, 79
3, 398640, Note_on_c, 2, 46, 79
3, 398640, Note_on_c, 2, 43, 79
3, 398880, Note_off_c, 2, 67, 79
3, 398880, Note_off_c, 2, 62, 79
3, 398880, Note_off_c, 2, 55, 79
3, 398880, Note_off_c, 2, 50, 79
3, 398880, Note_off_c, 2, 46, 79
3, 398880, Note_off_c, 2, 43, 79
3, 398880, Note_on_c, 2, 67, 79
3, 398880, Note_on_c, 2, 62, 79
3, 398880, Note_on_c, 2, 55, 79
3, 398880, Note_on_c, 2, 50, 79
3, 398880, Note_on_c, 2, 46, 79
3, 398880, Note_on_c, 2, 43, 79
3, 399120, Note_off_c, 2, 67, 79
3, 399120, Note_off_c, 2, 62, 79
3, 399120, Note_off_c, 2, 55, 79
3, 399120, Note_off_c, 2, 50, 79
3, 399120, Note_off_c, 2, 46, 79
3, 399120, Note_off_c, 2, 43, 79
3, 399120, Note_on_c, 2, 67, 79
3, 399120, Note_on_c, 2, 62, 79
3, 399120, Note_on_c, 2, 55, 79
3, 399120, Note_on_c, 2, 50, 79
3, 399120, Note_on_c, 2, 46, 79
3, 399120, Note_on_c, 2, 43, 79
3, 399360, Note_off_c, 2, 67, 79
3, 399360, Note_off_c, 2, 62, 79
3, 399360, Note_off_c, 2, 55, 79
3, 399360, Note_off_c, 2, 50, 79
3, 399360, Note_off_c, 2, 46, 79
3, 399360, Note_off_c, 2, 43, 79
3, 399360, Note_on_c, 2, 67, 79
3, 399360, Note_on_c, 2, 62, 79
3, 399360, Note_on_c, 2, 55, 79
3, 399360, Note_on_c, 2, 50, 79
3, 399360, Note_on_c, 2, 46, 79
3, 399360, Note_on_c, 2, 43, 79
3, 399840, Note_off_c, 2, 67, 79
3, 399840, Note_off_c, 2, 62, 79
3, 399840, Note_off_c, 2, 55, 79
3, 399840, Note_off_c, 2, 50, 79
3, 399840, Note_off_c, 2, 46, 79
3, 399840, Note_off_c, 2, 43, 79
3, 399840, Note_on_c, 2, 67, 79
3, 399840, Note_on_c, 2, 62, 79
3, 399840, Note_on_c, 2, 55, 79
3, 399840, Note_on_c, 2, 50, 79
3, 399840, Note_on_c, 2, 46, 79
3, 399840, Note_on_c, 2, 43, 79
3, 400080, Note_off_c, 2, 67, 79
3, 400080, Note_off_c, 2, 62, 79
3, 400080, Note_off_c, 2, 55, 79
3, 400080, Note_off_c, 2, 50, 79
3, 400080, Note_off_c, 2, 46, 79
3, 400080, Note_off_c, 2, 43, 79
3, 400080, Note_on_c, 2, 67, 79
3, 400080, Note_on_c, 2, 62, 79
3, 400080, Note_on_c, 2, 55, 79
3, 400080, Note_on_c, 2, 50, 79
3, 400080, Note_on_c, 2, 46, 79
3, 400080, Note_on_c, 2, 43, 79
3, 400320, Note_off_c, 2, 67, 79
3, 400320, Note_off_c, 2, 62, 79
3, 400320, Note_off_c, 2, 55, 79
3, 400320, Note_off_c, 2, 50, 79
3, 400320, Note_off_c, 2, 46, 79
3, 400320, Note_off_c, 2, 43, 79
3, 400320, Note_on_c, 2, 67, 79
3, 400320, Note_on_c, 2, 62, 79
3, 400320, Note_on_c, 2, 55, 79
3, 400320, Note_on_c, 2, 50, 79
3, 400320, Note_on_c, 2, 46, 79
3, 400320, Note_on_c, 2, 43, 79
3, 400800, Note_off_c, 2, 67, 79
3, 400800, Note_off_c, 2, 62, 79
3, 400800, Note_off_c, 2, 55, 79
3, 400800, Note_off_c, 2, 50, 79
3, 400800, Note_off_c, 2, 46, 79
3, 400800, Note_off_c, 2, 43, 79
3, 400800, Note_on_c, 2, 67, 79
3, 400800, Note_on_c, 2, 62, 79
3, 400800, Note_on_c, 2, 55, 79
3, 400800, Note_on_c, 2, 50, 79
3, 400800, Note_on_c, 2, 46, 79
3, 400800, Note_on_c, 2, 43, 79
3, 401040, Note_off_c, 2, 67, 79
3, 401040, Note_off_c, 2, 62, 79
3, 401040, Note_off_c, 2, 55, 79
3, 401040, Note_off_c, 2, 50, 79
3, 401040, Note_off_c, 2, 46, 79
3, 401040, Note_off_c, 2, 43, 79
3, 401040, Note_on_c, 2, 67, 79
3, 401040, Note_on_c, 2, 62, 79
3, 401040, Note_on_c, 2, 55, 79
3, 401040, Note_on_c, 2, 50, 79
3, 401040, Note_on_c, 2, 46, 79
3, 401040, Note_on_c, 2, 43, 79
3, 401280, Note_off_c, 2, 67, 79
3, 401280, Note_off_c, 2, 62, 79
3, 401280, Note_off_c, 2, 55, 79
3, 401280, Note_off_c, 2, 50, 79
3, 401280, Note_off_c, 2, 46, 79
3, 401280, Note_off_c, 2, 43, 79
3, 401280, Note_on_c, 2, 67, 79
3, 401280, Note_on_c, 2, 62, 79
3, 401280, Note_on_c, 2, 55, 79
3, 401280, Note_on_c, 2, 50, 79
3, 401280, Note_on_c, 2, 46, 79
3, 401280, Note_on_c, 2, 43, 79
3, 401520, Note_off_c, 2, 67, 79
3, 401520, Note_off_c, 2, 62, 79
3, 401520, Note_off_c, 2, 55, 79
3, 401520, Note_off_c, 2, 50, 79
3, 401520, Note_off_c, 2, 46, 79
3, 401520, Note_off_c, 2, 43, 79
3, 401520, Note_on_c, 2, 67, 79
3, 401520, Note_on_c, 2, 62, 79
3, 401520, Note_on_c, 2, 55, 79
3, 401520, Note_on_c, 2, 50, 79
3, 401520, Note_on_c, 2, 46, 79
3, 401520, Note_on_c, 2, 43, 79
3, 401760, Note_off_c, 2, 67, 79
3, 401760, Note_off_c, 2, 62, 79
3, 401760, Note_off_c, 2, 55, 79
3, 401760, Note_off_c, 2, 50, 79
3, 401760, Note_off_c, 2, 46, 79
3, 401760, Note_off_c, 2, 43, 79
3, 401760, Note_on_c, 2, 67, 79
3, 401760, Note_on_c, 2, 62, 79
3, 401760, Note_on_c, 2, 55, 79
3, 401760, Note_on_c, 2, 50, 79
3, 401760, Note_on_c, 2, 46, 79
3, 401760, Note_on_c, 2, 43, 79
3, 402000, Note_off_c, 2, 67, 79
3, 402000, Note_off_c, 2, 62, 79
3, 402000, Note_off_c, 2, 55, 79
3, 402000, Note_off_c, 2, 50, 79
3, 402000, Note_off_c, 2, 46, 79
3, 402000, Note_off_c, 2, 43, 79
3, 402000, Note_on_c, 2, 67, 79
3, 402000, Note_on_c, 2, 62, 79
3, 402000, Note_on_c, 2, 55, 79
3, 402000, Note_on_c, 2, 50, 79
3, 402000, Note_on_c, 2, 46, 79
3, 402000, Note_on_c, 2, 43, 79
3, 402240, Note_off_c, 2, 67, 79
3, 402240, Note_off_c, 2, 62, 79
3, 402240, Note_off_c, 2, 55, 79
3, 402240, Note_off_c, 2, 50, 79
3, 402240, Note_off_c, 2, 46, 79
3, 402240, Note_off_c, 2, 43, 79
3, 402240, Note_on_c, 2, 67, 79
3, 402240, Note_on_c, 2, 62, 79
3, 402240, Note_on_c, 2, 55, 79
3, 402240, Note_on_c, 2, 50, 79
3, 402240, Note_on_c, 2, 46, 79
3, 402240, Note_on_c, 2, 43, 79
3, 402480, Note_off_c, 2, 67, 79
3, 402480, Note_off_c, 2, 62, 79
3, 402480, Note_off_c, 2, 55, 79
3, 402480, Note_off_c, 2, 50, 79
3, 402480, Note_off_c, 2, 46, 79
3, 402480, Note_off_c, 2, 43, 79
3, 402480, Note_on_c, 2, 67, 79
3, 402480, Note_on_c, 2, 62, 79
3, 402480, Note_on_c, 2, 55, 79
3, 402480, Note_on_c, 2, 50, 79
3, 402480, Note_on_c, 2, 46, 79
3, 402480, Note_on_c, 2, 43, 79
3, 402720, Note_off_c, 2, 67, 79
3, 402720, Note_off_c, 2, 62, 79
3, 402720, Note_off_c, 2, 55, 79
3, 402720, Note_off_c, 2, 50, 79
3, 402720, Note_off_c, 2, 46, 79
3, 402720, Note_off_c, 2, 43, 79
3, 402720, Note_on_c, 2, 67, 79
3, 402720, Note_on_c, 2, 62, 79
3, 402720, Note_on_c, 2, 55, 79
3, 402720, Note_on_c, 2, 50, 79
3, 402720, Note_on_c, 2, 46, 79
3, 402720, Note_on_c, 2, 43, 79
3, 402960, Note_off_c, 2, 67, 79
3, 402960, Note_off_c, 2, 62, 79
3, 402960, Note_off_c, 2, 55, 79
3, 402960, Note_off_c, 2, 50, 79
3, 402960, Note_off_c, 2, 46, 79
3, 402960, Note_off_c, 2, 43, 79
3, 402960, Note_on_c, 2, 67, 79
3, 402960, Note_on_c, 2, 62, 79
3, 402960, Note_on_c, 2, 55, 79
3, 402960, Note_on_c, 2, 50, 79
3, 402960, Note_on_c, 2, 46, 79
3, 402960, Note_on_c, 2, 43, 79
3, 403200, Note_off_c, 2, 67, 79
3, 403200, Note_off_c, 2, 62, 79
3, 403200, Note_off_c, 2, 55, 79
3, 403200, Note_off_c, 2, 50, 79
3, 403200, Note_off_c, 2, 46, 79
3, 403200, Note_off_c, 2, 43, 79
3, 403200, Note_on_c, 2, 65, 79
3, 403200, Note_on_c, 2, 62, 79
3, 403200, Note_on_c, 2, 58, 79
3, 403200, Note_on_c, 2, 50, 79
3, 403200, Note_on_c, 2, 46, 79
3, 403680, Note_off_c, 2, 65, 79
3, 403680, Note_off_c, 2, 62, 79
3, 403680, Note_off_c, 2, 58, 79
3, 403680, Note_off_c, 2, 50, 79
3, 403680, Note_off_c, 2, 46, 79
3, 403680, Note_on_c, 2, 65, 79
3, 403680, Note_on_c, 2, 62, 79
3, 403680, Note_on_c, 2, 58, 79
3, 403680, Note_on_c, 2, 50, 79
3, 403680, Note_on_c, 2, 46, 79
3, 403920, Note_off_c, 2, 65, 79
3, 403920, Note_off_c, 2, 62, 79
3, 403920, Note_off_c, 2, 58, 79
3, 403920, Note_off_c, 2, 50, 79
3, 403920, Note_off_c, 2, 46, 79
3, 403920, Note_on_c, 2, 65, 79
3, 403920, Note_on_c, 2, 62, 79
3, 403920, Note_on_c, 2, 58, 79
3, 403920, Note_on_c, 2, 50, 79
3, 403920, Note_on_c, 2, 46, 79
3, 404160, Note_off_c, 2, 65, 79
3, 404160, Note_off_c, 2, 62, 79
3, 404160, Note_off_c, 2, 58, 79
3, 404160, Note_off_c, 2, 50, 79
3, 404160, Note_off_c, 2, 46, 79
3, 404160, Note_on_c, 2, 65, 79
3, 404160, Note_on_c, 2, 62, 79
3, 404160, Note_on_c, 2, 58, 79
3, 404160, Note_on_c, 2, 50, 79
3, 404160, Note_on_c, 2, 46, 79
3, 404640, Note_off_c, 2, 65, 79
3, 404640, Note_off_c, 2, 62, 79
3, 404640, Note_off_c, 2, 58, 79
3, 404640, Note_off_c, 2, 50, 79
3, 404640, Note_off_c, 2, 46, 79
3, 404640, Note_on_c, 2, 65, 79
3, 404640, Note_on_c, 2, 62, 79
3, 404640, Note_on_c, 2, 58, 79
3, 404640, Note_on_c, 2, 50, 79
3, 404640, Note_on_c, 2, 46, 79
3, 404880, Note_off_c, 2, 65, 79
3, 404880, Note_off_c, 2, 62, 79
3, 404880, Note_off_c, 2, 58, 79
3, 404880, Note_off_c, 2, 50, 79
3, 404880, Note_off_c, 2, 46, 79
3, 404880, Note_on_c, 2, 65, 79
3, 404880, Note_on_c, 2, 62, 79
3, 404880, Note_on_c, 2, 58, 79
3, 404880, Note_on_c, 2, 50, 79
3, 404880, Note_on_c, 2, 46, 79
3, 405120, Note_off_c, 2, 65, 79
3, 405120, Note_off_c, 2, 62, 79
3, 405120, Note_off_c, 2, 58, 79
3, 405120, Note_off_c, 2, 50, 79
3, 405120, Note_off_c, 2, 46, 79
3, 405120, Note_on_c, 2, 65, 79
3, 405120, Note_on_c, 2, 62, 79
3, 405120, Note_on_c, 2, 58, 79
3, 405120, Note_on_c, 2, 50, 79
3, 405120, Note_on_c, 2, 46, 79
3, 405360, Note_off_c, 2, 65, 79
3, 405360, Note_off_c, 2, 62, 79
3, 405360, Note_off_c, 2, 58, 79
3, 405360, Note_off_c, 2, 50, 79
3, 405360, Note_off_c, 2, 46, 79
3, 405360, Note_on_c, 2, 65, 79
3, 405360, Note_on_c, 2, 62, 79
3, 405360, Note_on_c, 2, 58, 79
3, 405360, Note_on_c, 2, 50, 79
3, 405360, Note_on_c, 2, 46, 79
3, 405600, Note_off_c, 2, 65, 79
3, 405600, Note_off_c, 2, 62, 79
3, 405600, Note_off_c, 2, 58, 79
3, 405600, Note_off_c, 2, 50, 79
3, 405600, Note_off_c, 2, 46, 79
3, 405600, Note_on_c, 2, 65, 79
3, 405600, Note_on_c, 2, 62, 79
3, 405600, Note_on_c, 2, 58, 79
3, 405600, Note_on_c, 2, 50, 79
3, 405600, Note_on_c, 2, 46, 79
3, 405840, Note_off_c, 2, 65, 79
3, 405840, Note_off_c, 2, 62, 79
3, 405840, Note_off_c, 2, 58, 79
3, 405840, Note_off_c, 2, 50, 79
3, 405840, Note_off_c, 2, 46, 79
3, 405840, Note_on_c, 2, 65, 79
3, 405840, Note_on_c, 2, 62, 79
3, 405840, Note_on_c, 2, 58, 79
3, 405840, Note_on_c, 2, 50, 79
3, 405840, Note_on_c, 2, 46, 79
3, 406080, Note_off_c, 2, 65, 79
3, 406080, Note_off_c, 2, 62, 79
3, 406080, Note_off_c, 2, 58, 79
3, 406080, Note_off_c, 2, 50, 79
3, 406080, Note_off_c, 2, 46, 79
3, 406080, Note_on_c, 2, 65, 79
3, 406080, Note_on_c, 2, 62, 79
3, 406080, Note_on_c, 2, 58, 79
3, 406080, Note_on_c, 2, 50, 79
3, 406080, Note_on_c, 2, 46, 79
3, 406320, Note_off_c, 2, 65, 79
3, 406320, Note_off_c, 2, 62, 79
3, 406320, Note_off_c, 2, 58, 79
3, 406320, Note_off_c, 2, 50, 79
3, 406320, Note_off_c, 2, 46, 79
3, 406320, Note_on_c, 2, 65, 79
3, 406320, Note_on_c, 2, 62, 79
3, 406320, Note_on_c, 2, 58, 79
3, 406320, Note_on_c, 2, 50, 79
3, 406320, Note_on_c, 2, 46, 79
3, 406560, Note_off_c, 2, 65, 79
3, 406560, Note_off_c, 2, 62, 79
3, 406560, Note_off_c, 2, 58, 79
3, 406560, Note_off_c, 2, 50, 79
3, 406560, Note_off_c, 2, 46, 79
3, 407040, Note_on_c, 2, 67, 79
3, 407040, Note_on_c, 2, 62, 79
3, 407040, Note_on_c, 2, 55, 79
3, 407040, Note_on_c, 2, 50, 79
3, 407040, Note_on_c, 2, 46, 79
3, 407040, Note_on_c, 2, 43, 79
3, 407520, Note_off_c, 2, 67, 79
3, 407520, Note_off_c, 2, 62, 79
3, 407520, Note_off_c, 2, 55, 79
3, 407520, Note_off_c, 2, 50, 79
3, 407520, Note_off_c, 2, 46, 79
3, 407520, Note_off_c, 2, 43, 79
3, 407520, Note_on_c, 2, 67, 79
3, 407520, Note_on_c, 2, 62, 79
3, 407520, Note_on_c, 2, 55, 79
3, 407520, Note_on_c, 2, 50, 79
3, 407520, Note_on_c, 2, 46, 79
3, 407520, Note_on_c, 2, 43, 79
3, 407760, Note_off_c, 2, 67, 79
3, 407760, Note_off_c, 2, 62, 79
3, 407760, Note_off_c, 2, 55, 79
3, 407760, Note_off_c, 2, 50, 79
3, 407760, Note_off_c, 2, 46, 79
3, 407760, Note_off_c, 2, 43, 79
3, 407760, Note_on_c, 2, 67, 79
3, 407760, Note_on_c, 2, 62, 79
3, 407760, Note_on_c, 2, 55, 79
3, 407760, Note_on_c, 2, 50, 79
3, 407760, Note_on_c, 2, 46, 79
3, 407760, Note_on_c, 2, 43, 79
3, 408000, Note_off_c, 2, 67, 79
3, 408000, Note_off_c, 2, 62, 79
3, 408000, Note_off_c, 2, 55, 79
3, 408000, Note_off_c, 2, 50, 79
3, 408000, Note_off_c, 2, 46, 79
3, 408000, Note_off_c, 2, 43, 79
3, 408000, Note_on_c, 2, 67, 79
3, 408000, Note_on_c, 2, 62, 79
3, 408000, Note_on_c, 2, 55, 79
3, 408000, Note_on_c, 2, 50, 79
3, 408000, Note_on_c, 2, 46, 79
3, 408000, Note_on_c, 2, 43, 79
3, 408480, Note_off_c, 2, 67, 79
3, 408480, Note_off_c, 2, 62, 79
3, 408480, Note_off_c, 2, 55, 79
3, 408480, Note_off_c, 2, 50, 79
3, 408480, Note_off_c, 2, 46, 79
3, 408480, Note_off_c, 2, 43, 79
3, 408480, Note_on_c, 2, 67, 79
3, 408480, Note_on_c, 2, 62, 79
3, 408480, Note_on_c, 2, 55, 79
3, 408480, Note_on_c, 2, 50, 79
3, 408480, Note_on_c, 2, 46, 79
3, 408480, Note_on_c, 2, 43, 79
3, 408720, Note_off_c, 2, 67, 79
3, 408720, Note_off_c, 2, 62, 79
3, 408720, Note_off_c, 2, 55, 79
3, 408720, Note_off_c, 2, 50, 79
3, 408720, Note_off_c, 2, 46, 79
3, 408720, Note_off_c, 2, 43, 79
3, 408720, Note_on_c, 2, 67, 79
3, 408720, Note_on_c, 2, 62, 79
3, 408720, Note_on_c, 2, 55, 79
3, 408720, Note_on_c, 2, 50, 79
3, 408720, Note_on_c, 2, 46, 79
3, 408720, Note_on_c, 2, 43, 79
3, 408960, Note_off_c, 2, 67, 79
3, 408960, Note_off_c, 2, 62, 79
3, 408960, Note_off_c, 2, 55, 79
3, 408960, Note_off_c, 2, 50, 79
3, 408960, Note_off_c, 2, 46, 79
3, 408960, Note_off_c, 2, 43, 79
3, 408960, Note_on_c, 2, 67, 79
3, 408960, Note_on_c, 2, 62, 79
3, 408960, Note_on_c, 2, 55, 79
3, 408960, Note_on_c, 2, 50, 79
3, 408960, Note_on_c, 2, 46, 79
3, 408960, Note_on_c, 2, 43, 79
3, 409200, Note_off_c, 2, 67, 79
3, 409200, Note_off_c, 2, 62, 79
3, 409200, Note_off_c, 2, 55, 79
3, 409200, Note_off_c, 2, 50, 79
3, 409200, Note_off_c, 2, 46, 79
3, 409200, Note_off_c, 2, 43, 79
3, 409200, Note_on_c, 2, 67, 79
3, 409200, Note_on_c, 2, 62, 79
3, 409200, Note_on_c, 2, 55, 79
3, 409200, Note_on_c, 2, 50, 79
3, 409200, Note_on_c, 2, 46, 79
3, 409200, Note_on_c, 2, 43, 79
3, 409440, Note_off_c, 2, 67, 79
3, 409440, Note_off_c, 2, 62, 79
3, 409440, Note_off_c, 2, 55, 79
3, 409440, Note_off_c, 2, 50, 79
3, 409440, Note_off_c, 2, 46, 79
3, 409440, Note_off_c, 2, 43, 79
3, 409440, Note_on_c, 2, 67, 79
3, 409440, Note_on_c, 2, 62, 79
3, 409440, Note_on_c, 2, 55, 79
3, 409440, Note_on_c, 2, 50, 79
3, 409440, Note_on_c, 2, 46, 79
3, 409440, Note_on_c, 2, 43, 79
3, 409680, Note_off_c, 2, 67, 79
3, 409680, Note_off_c, 2, 62, 79
3, 409680, Note_off_c, 2, 55, 79
3, 409680, Note_off_c, 2, 50, 79
3, 409680, Note_off_c, 2, 46, 79
3, 409680, Note_off_c, 2, 43, 79
3, 409680, Note_on_c, 2, 67, 79
3, 409680, Note_on_c, 2, 62, 79
3, 409680, Note_on_c, 2, 55, 79
3, 409680, Note_on_c, 2, 50, 79
3, 409680, Note_on_c, 2, 46, 79
3, 409680, Note_on_c, 2, 43, 79
3, 409920, Note_off_c, 2, 67, 79
3, 409920, Note_off_c, 2, 62, 79
3, 409920, Note_off_c, 2, 55, 79
3, 409920, Note_off_c, 2, 50, 79
3, 409920, Note_off_c, 2, 46, 79
3, 409920, Note_off_c, 2, 43, 79
3, 409920, Note_on_c, 2, 67, 79
3, 409920, Note_on_c, 2, 62, 79
3, 409920, Note_on_c, 2, 55, 79
3, 409920, Note_on_c, 2, 50, 79
3, 409920, Note_on_c, 2, 46, 79
3, 409920, Note_on_c, 2, 43, 79
3, 410160, Note_off_c, 2, 67, 79
3, 410160, Note_off_c, 2, 62, 79
3, 410160, Note_off_c, 2, 55, 79
3, 410160, Note_off_c, 2, 50, 79
3, 410160, Note_off_c, 2, 46, 79
3, 410160, Note_off_c, 2, 43, 79
3, 410160, Note_on_c, 2, 67, 79
3, 410160, Note_on_c, 2, 62, 79
3, 410160, Note_on_c, 2, 55, 79
3, 410160, Note_on_c, 2, 50, 79
3, 410160, Note_on_c, 2, 46, 79
3, 410160, Note_on_c, 2, 43, 79
3, 410400, Note_off_c, 2, 67, 79
3, 410400, Note_off_c, 2, 62, 79
3, 410400, Note_off_c, 2, 55, 79
3, 410400, Note_off_c, 2, 50, 79
3, 410400, Note_off_c, 2, 46, 79
3, 410400, Note_off_c, 2, 43, 79
3, 410400, Note_on_c, 2, 67, 79
3, 410400, Note_on_c, 2, 62, 79
3, 410400, Note_on_c, 2, 55, 79
3, 410400, Note_on_c, 2, 50, 79
3, 410400, Note_on_c, 2, 46, 79
3, 410400, Note_on_c, 2, 43, 79
3, 410640, Note_off_c, 2, 67, 79
3, 410640, Note_off_c, 2, 62, 79
3, 410640, Note_off_c, 2, 55, 79
3, 410640, Note_off_c, 2, 50, 79
3, 410640, Note_off_c, 2, 46, 79
3, 410640, Note_off_c, 2, 43, 79
3, 410640, Note_on_c, 2, 67, 79
3, 410640, Note_on_c, 2, 62, 79
3, 410640, Note_on_c, 2, 55, 79
3, 410640, Note_on_c, 2, 50, 79
3, 410640, Note_on_c, 2, 46, 79
3, 410640, Note_on_c, 2, 43, 79
3, 410880, Note_off_c, 2, 67, 79
3, 410880, Note_off_c, 2, 62, 79
3, 410880, Note_off_c, 2, 55, 79
3, 410880, Note_off_c, 2, 50, 79
3, 410880, Note_off_c, 2, 46, 79
3, 410880, Note_off_c, 2, 43, 79
3, 410880, Note_on_c, 2, 67, 79
3, 410880, Note_on_c, 2, 62, 79
3, 410880, Note_on_c, 2, 55, 79
3, 410880, Note_on_c, 2, 50, 79
3, 410880, Note_on_c, 2, 46, 79
3, 410880, Note_on_c, 2, 43, 79
3, 411360, Note_off_c, 2, 67, 79
3, 411360, Note_off_c, 2, 62, 79
3, 411360, Note_off_c, 2, 55, 79
3, 411360, Note_off_c, 2, 50, 79
3, 411360, Note_off_c, 2, 46, 79
3, 411360, Note_off_c, 2, 43, 79
3, 411360, Note_on_c, 2, 67, 79
3, 411360, Note_on_c, 2, 62, 79
3, 411360, Note_on_c, 2, 55, 79
3, 411360, Note_on_c, 2, 50, 79
3, 411360, Note_on_c, 2, 46, 79
3, 411360, Note_on_c, 2, 43, 79
3, 411600, Note_off_c, 2, 67, 79
3, 411600, Note_off_c, 2, 62, 79
3, 411600, Note_off_c, 2, 55, 79
3, 411600, Note_off_c, 2, 50, 79
3, 411600, Note_off_c, 2, 46, 79
3, 411600, Note_off_c, 2, 43, 79
3, 411600, Note_on_c, 2, 67, 79
3, 411600, Note_on_c, 2, 62, 79
3, 411600, Note_on_c, 2, 55, 79
3, 411600, Note_on_c, 2, 50, 79
3, 411600, Note_on_c, 2, 46, 79
3, 411600, Note_on_c, 2, 43, 79
3, 411840, Note_off_c, 2, 67, 79
3, 411840, Note_off_c, 2, 62, 79
3, 411840, Note_off_c, 2, 55, 79
3, 411840, Note_off_c, 2, 50, 79
3, 411840, Note_off_c, 2, 46, 79
3, 411840, Note_off_c, 2, 43, 79
3, 411840, Note_on_c, 2, 67, 79
3, 411840, Note_on_c, 2, 62, 79
3, 411840, Note_on_c, 2, 55, 79
3, 411840, Note_on_c, 2, 50, 79
3, 411840, Note_on_c, 2, 46, 79
3, 411840, Note_on_c, 2, 43, 79
3, 412320, Note_off_c, 2, 67, 79
3, 412320, Note_off_c, 2, 62, 79
3, 412320, Note_off_c, 2, 55, 79
3, 412320, Note_off_c, 2, 50, 79
3, 412320, Note_off_c, 2, 46, 79
3, 412320, Note_off_c, 2, 43, 79
3, 412320, Note_on_c, 2, 67, 79
3, 412320, Note_on_c, 2, 62, 79
3, 412320, Note_on_c, 2, 55, 79
3, 412320, Note_on_c, 2, 50, 79
3, 412320, Note_on_c, 2, 46, 79
3, 412320, Note_on_c, 2, 43, 79
3, 412560, Note_off_c, 2, 67, 79
3, 412560, Note_off_c, 2, 62, 79
3, 412560, Note_off_c, 2, 55, 79
3, 412560, Note_off_c, 2, 50, 79
3, 412560, Note_off_c, 2, 46, 79
3, 412560, Note_off_c, 2, 43, 79
3, 412560, Note_on_c, 2, 67, 79
3, 412560, Note_on_c, 2, 62, 79
3, 412560, Note_on_c, 2, 55, 79
3, 412560, Note_on_c, 2, 50, 79
3, 412560, Note_on_c, 2, 46, 79
3, 412560, Note_on_c, 2, 43, 79
3, 412800, Note_off_c, 2, 67, 79
3, 412800, Note_off_c, 2, 62, 79
3, 412800, Note_off_c, 2, 55, 79
3, 412800, Note_off_c, 2, 50, 79
3, 412800, Note_off_c, 2, 46, 79
3, 412800, Note_off_c, 2, 43, 79
3, 412800, Note_on_c, 2, 67, 79
3, 412800, Note_on_c, 2, 62, 79
3, 412800, Note_on_c, 2, 55, 79
3, 412800, Note_on_c, 2, 50, 79
3, 412800, Note_on_c, 2, 46, 79
3, 412800, Note_on_c, 2, 43, 79
3, 413040, Note_off_c, 2, 67, 79
3, 413040, Note_off_c, 2, 62, 79
3, 413040, Note_off_c, 2, 55, 79
3, 413040, Note_off_c, 2, 50, 79
3, 413040, Note_off_c, 2, 46, 79
3, 413040, Note_off_c, 2, 43, 79
3, 413040, Note_on_c, 2, 67, 79
3, 413040, Note_on_c, 2, 62, 79
3, 413040, Note_on_c, 2, 55, 79
3, 413040, Note_on_c, 2, 50, 79
3, 413040, Note_on_c, 2, 46, 79
3, 413040, Note_on_c, 2, 43, 79
3, 413280, Note_off_c, 2, 67, 79
3, 413280, Note_off_c, 2, 62, 79
3, 413280, Note_off_c, 2, 55, 79
3, 413280, Note_off_c, 2, 50, 79
3, 413280, Note_off_c, 2, 46, 79
3, 413280, Note_off_c, 2, 43, 79
3, 413280, Note_on_c, 2, 67, 79
3, 413280, Note_on_c, 2, 62, 79
3, 413280, Note_on_c, 2, 55, 79
3, 413280, Note_on_c, 2, 50, 79
3, 413280, Note_on_c, 2, 46, 79
3, 413280, Note_on_c, 2, 43, 79
3, 413520, Note_off_c, 2, 67, 79
3, 413520, Note_off_c, 2, 62, 79
3, 413520, Note_off_c, 2, 55, 79
3, 413520, Note_off_c, 2, 50, 79
3, 413520, Note_off_c, 2, 46, 79
3, 413520, Note_off_c, 2, 43, 79
3, 413520, Note_on_c, 2, 67, 79
3, 413520, Note_on_c, 2, 62, 79
3, 413520, Note_on_c, 2, 55, 79
3, 413520, Note_on_c, 2, 50, 79
3, 413520, Note_on_c, 2, 46, 79
3, 413520, Note_on_c, 2, 43, 79
3, 413760, Note_off_c, 2, 67, 79
3, 413760, Note_off_c, 2, 62, 79
3, 413760, Note_off_c, 2, 55, 79
3, 413760, Note_off_c, 2, 50, 79
3, 413760, Note_off_c, 2, 46, 79
3, 413760, Note_off_c, 2, 43, 79
3, 413760, Note_on_c, 2, 67, 79
3, 413760, Note_on_c, 2, 62, 79
3, 413760, Note_on_c, 2, 55, 79
3, 413760, Note_on_c, 2, 50, 79
3, 413760, Note_on_c, 2, 46, 79
3, 413760, Note_on_c, 2, 43, 79
3, 414000, Note_off_c, 2, 67, 79
3, 414000, Note_off_c, 2, 62, 79
3, 414000, Note_off_c, 2, 55, 79
3, 414000, Note_off_c, 2, 50, 79
3, 414000, Note_off_c, 2, 46, 79
3, 414000, Note_off_c, 2, 43, 79
3, 414000, Note_on_c, 2, 67, 79
3, 414000, Note_on_c, 2, 62, 79
3, 414000, Note_on_c, 2, 55, 79
3, 414000, Note_on_c, 2, 50, 79
3, 414000, Note_on_c, 2, 46, 79
3, 414000, Note_on_c, 2, 43, 79
3, 414240, Note_off_c, 2, 67, 79
3, 414240, Note_off_c, 2, 62, 79
3, 414240, Note_off_c, 2, 55, 79
3, 414240, Note_off_c, 2, 50, 79
3, 414240, Note_off_c, 2, 46, 79
3, 414240, Note_off_c, 2, 43, 79
3, 414240, Note_on_c, 2, 67, 79
3, 414240, Note_on_c, 2, 62, 79
3, 414240, Note_on_c, 2, 55, 79
3, 414240, Note_on_c, 2, 50, 79
3, 414240, Note_on_c, 2, 46, 79
3, 414240, Note_on_c, 2, 43, 79
3, 414480, Note_off_c, 2, 67, 79
3, 414480, Note_off_c, 2, 62, 79
3, 414480, Note_off_c, 2, 55, 79
3, 414480, Note_off_c, 2, 50, 79
3, 414480, Note_off_c, 2, 46, 79
3, 414480, Note_off_c, 2, 43, 79
3, 414480, Note_on_c, 2, 67, 79
3, 414480, Note_on_c, 2, 62, 79
3, 414480, Note_on_c, 2, 55, 79
3, 414480, Note_on_c, 2, 50, 79
3, 414480, Note_on_c, 2, 46, 79
3, 414480, Note_on_c, 2, 43, 79
3, 414720, Note_off_c, 2, 67, 79
3, 414720, Note_off_c, 2, 62, 79
3, 414720, Note_off_c, 2, 55, 79
3, 414720, Note_off_c, 2, 50, 79
3, 414720, Note_off_c, 2, 46, 79
3, 414720, Note_off_c, 2, 43, 79
3, 414720, Note_on_c, 2, 67, 79
3, 414720, Note_on_c, 2, 62, 79
3, 414720, Note_on_c, 2, 55, 79
3, 414720, Note_on_c, 2, 50, 79
3, 414720, Note_on_c, 2, 46, 79
3, 414720, Note_on_c, 2, 43, 79
3, 415200, Note_off_c, 2, 67, 79
3, 415200, Note_off_c, 2, 62, 79
3, 415200, Note_off_c, 2, 55, 79
3, 415200, Note_off_c, 2, 50, 79
3, 415200, Note_off_c, 2, 46, 79
3, 415200, Note_off_c, 2, 43, 79
3, 415200, Note_on_c, 2, 67, 79
3, 415200, Note_on_c, 2, 62, 79
3, 415200, Note_on_c, 2, 55, 79
3, 415200, Note_on_c, 2, 50, 79
3, 415200, Note_on_c, 2, 46, 79
3, 415200, Note_on_c, 2, 43, 79
3, 415440, Note_off_c, 2, 67, 79
3, 415440, Note_off_c, 2, 62, 79
3, 415440, Note_off_c, 2, 55, 79
3, 415440, Note_off_c, 2, 50, 79
3, 415440, Note_off_c, 2, 46, 79
3, 415440, Note_off_c, 2, 43, 79
3, 415440, Note_on_c, 2, 67, 79
3, 415440, Note_on_c, 2, 62, 79
3, 415440, Note_on_c, 2, 55, 79
3, 415440, Note_on_c, 2, 50, 79
3, 415440, Note_on_c, 2, 46, 79
3, 415440, Note_on_c, 2, 43, 79
3, 415680, Note_off_c, 2, 67, 79
3, 415680, Note_off_c, 2, 62, 79
3, 415680, Note_off_c, 2, 55, 79
3, 415680, Note_off_c, 2, 50, 79
3, 415680, Note_off_c, 2, 46, 79
3, 415680, Note_off_c, 2, 43, 79
3, 415680, Note_on_c, 2, 67, 79
3, 415680, Note_on_c, 2, 62, 79
3, 415680, Note_on_c, 2, 55, 79
3, 415680, Note_on_c, 2, 50, 79
3, 415680, Note_on_c, 2, 46, 79
3, 415680, Note_on_c, 2, 43, 79
3, 416160, Note_off_c, 2, 67, 79
3, 416160, Note_off_c, 2, 62, 79
3, 416160, Note_off_c, 2, 55, 79
3, 416160, Note_off_c, 2, 50, 79
3, 416160, Note_off_c, 2, 46, 79
3, 416160, Note_off_c, 2, 43, 79
3, 416160, Note_on_c, 2, 67, 79
3, 416160, Note_on_c, 2, 62, 79
3, 416160, Note_on_c, 2, 55, 79
3, 416160, Note_on_c, 2, 50, 79
3, 416160, Note_on_c, 2, 46, 79
3, 416160, Note_on_c, 2, 43, 79
3, 416400, Note_off_c, 2, 67, 79
3, 416400, Note_off_c, 2, 62, 79
3, 416400, Note_off_c, 2, 55, 79
3, 416400, Note_off_c, 2, 50, 79
3, 416400, Note_off_c, 2, 46, 79
3, 416400, Note_off_c, 2, 43, 79
3, 416400, Note_on_c, 2, 67, 79
3, 416400, Note_on_c, 2, 62, 79
3, 416400, Note_on_c, 2, 55, 79
3, 416400, Note_on_c, 2, 50, 79
3, 416400, Note_on_c, 2, 46, 79
3, 416400, Note_on_c, 2, 43, 79
3, 416640, Note_off_c, 2, 67, 79
3, 416640, Note_off_c, 2, 62, 79
3, 416640, Note_off_c, 2, 55, 79
3, 416640, Note_off_c, 2, 50, 79
3, 416640, Note_off_c, 2, 46, 79
3, 416640, Note_off_c, 2, 43, 79
3, 416640, Note_on_c, 2, 67, 79
3, 416640, Note_on_c, 2, 62, 79
3, 416640, Note_on_c, 2, 55, 79
3, 416640, Note_on_c, 2, 50, 79
3, 416640, Note_on_c, 2, 46, 79
3, 416640, Note_on_c, 2, 43, 79
3, 416880, Note_off_c, 2, 67, 79
3, 416880, Note_off_c, 2, 62, 79
3, 416880, Note_off_c, 2, 55, 79
3, 416880, Note_off_c, 2, 50, 79
3, 416880, Note_off_c, 2, 46, 79
3, 416880, Note_off_c, 2, 43, 79
3, 416880, Note_on_c, 2, 67, 79
3, 416880, Note_on_c, 2, 62, 79
3, 416880, Note_on_c, 2, 55, 79
3, 416880, Note_on_c, 2, 50, 79
3, 416880, Note_on_c, 2, 46, 79
3, 416880, Note_on_c, 2, 43, 79
3, 417120, Note_off_c, 2, 67, 79
3, 417120, Note_off_c, 2, 62, 79
3, 417120, Note_off_c, 2, 55, 79
3, 417120, Note_off_c, 2, 50, 79
3, 417120, Note_off_c, 2, 46, 79
3, 417120, Note_off_c, 2, 43, 79
3, 417120, Note_on_c, 2, 67, 79
3, 417120, Note_on_c, 2, 62, 79
3, 417120, Note_on_c, 2, 55, 79
3, 417120, Note_on_c, 2, 50, 79
3, 417120, Note_on_c, 2, 46, 79
3, 417120, Note_on_c, 2, 43, 79
3, 417360, Note_off_c, 2, 67, 79
3, 417360, Note_off_c, 2, 62, 79
3, 417360, Note_off_c, 2, 55, 79
3, 417360, Note_off_c, 2, 50, 79
3, 417360, Note_off_c, 2, 46, 79
3, 417360, Note_off_c, 2, 43, 79
3, 417360, Note_on_c, 2, 67, 79
3, 417360, Note_on_c, 2, 62, 79
3, 417360, Note_on_c, 2, 55, 79
3, 417360, Note_on_c, 2, 50, 79
3, 417360, Note_on_c, 2, 46, 79
3, 417360, Note_on_c, 2, 43, 79
3, 417600, Note_off_c, 2, 67, 79
3, 417600, Note_off_c, 2, 62, 79
3, 417600, Note_off_c, 2, 55, 79
3, 417600, Note_off_c, 2, 50, 79
3, 417600, Note_off_c, 2, 46, 79
3, 417600, Note_off_c, 2, 43, 79
3, 417600, Note_on_c, 2, 67, 79
3, 417600, Note_on_c, 2, 62, 79
3, 417600, Note_on_c, 2, 55, 79
3, 417600, Note_on_c, 2, 50, 79
3, 417600, Note_on_c, 2, 46, 79
3, 417600, Note_on_c, 2, 43, 79
3, 417840, Note_off_c, 2, 67, 79
3, 417840, Note_off_c, 2, 62, 79
3, 417840, Note_off_c, 2, 55, 79
3, 417840, Note_off_c, 2, 50, 79
3, 417840, Note_off_c, 2, 46, 79
3, 417840, Note_off_c, 2, 43, 79
3, 417840, Note_on_c, 2, 67, 79
3, 417840, Note_on_c, 2, 62, 79
3, 417840, Note_on_c, 2, 55, 79
3, 417840, Note_on_c, 2, 50, 79
3, 417840, Note_on_c, 2, 46, 79
3, 417840, Note_on_c, 2, 43, 79
3, 418080, Note_off_c, 2, 67, 79
3, 418080, Note_off_c, 2, 62, 79
3, 418080, Note_off_c, 2, 55, 79
3, 418080, Note_off_c, 2, 50, 79
3, 418080, Note_off_c, 2, 46, 79
3, 418080, Note_off_c, 2, 43, 79
3, 418080, Note_on_c, 2, 67, 79
3, 418080, Note_on_c, 2, 62, 79
3, 418080, Note_on_c, 2, 55, 79
3, 418080, Note_on_c, 2, 50, 79
3, 418080, Note_on_c, 2, 46, 79
3, 418080, Note_on_c, 2, 43, 79
3, 418320, Note_off_c, 2, 67, 79
3, 418320, Note_off_c, 2, 62, 79
3, 418320, Note_off_c, 2, 55, 79
3, 418320, Note_off_c, 2, 50, 79
3, 418320, Note_off_c, 2, 46, 79
3, 418320, Note_off_c, 2, 43, 79
3, 418320, Note_on_c, 2, 67, 79
3, 418320, Note_on_c, 2, 62, 79
3, 418320, Note_on_c, 2, 55, 79
3, 418320, Note_on_c, 2, 50, 79
3, 418320, Note_on_c, 2, 46, 79
3, 418320, Note_on_c, 2, 43, 79
3, 418560, Note_off_c, 2, 67, 79
3, 418560, Note_off_c, 2, 62, 79
3, 418560, Note_off_c, 2, 55, 79
3, 418560, Note_off_c, 2, 50, 79
3, 418560, Note_off_c, 2, 46, 79
3, 418560, Note_off_c, 2, 43, 79
3, 418560, Note_on_c, 2, 65, 79
3, 418560, Note_on_c, 2, 62, 79
3, 418560, Note_on_c, 2, 58, 79
3, 418560, Note_on_c, 2, 50, 79
3, 418560, Note_on_c, 2, 46, 79
3, 419040, Note_off_c, 2, 65, 79
3, 419040, Note_off_c, 2, 62, 79
3, 419040, Note_off_c, 2, 58, 79
3, 419040, Note_off_c, 2, 50, 79
3, 419040, Note_off_c, 2, 46, 79
3, 419040, Note_on_c, 2, 65, 79
3, 419040, Note_on_c, 2, 62, 79
3, 419040, Note_on_c, 2, 58, 79
3, 419040, Note_on_c, 2, 50, 79
3, 419040, Note_on_c, 2, 46, 79
3, 419280, Note_off_c, 2, 65, 79
3, 419280, Note_off_c, 2, 62, 79
3, 419280, Note_off_c, 2, 58, 79
3, 419280, Note_off_c, 2, 50, 79
3, 419280, Note_off_c, 2, 46, 79
3, 419280, Note_on_c, 2, 65, 79
3, 419280, Note_on_c, 2, 62, 79
3, 419280, Note_on_c, 2, 58, 79
3, 419280, Note_on_c, 2, 50, 79
3, 419280, Note_on_c, 2, 46, 79
3, 419520, Note_off_c, 2, 65, 79
3, 419520, Note_off_c, 2, 62, 79
3, 419520, Note_off_c, 2, 58, 79
3, 419520, Note_off_c, 2, 50, 79
3, 419520, Note_off_c, 2, 46, 79
3, 419520, Note_on_c, 2, 65, 79
3, 419520, Note_on_c, 2, 62, 79
3, 419520, Note_on_c, 2, 58, 79
3, 419520, Note_on_c, 2, 50, 79
3, 419520, Note_on_c, 2, 46, 79
3, 420000, Note_off_c, 2, 65, 79
3, 420000, Note_off_c, 2, 62, 79
3, 420000, Note_off_c, 2, 58, 79
3, 420000, Note_off_c, 2, 50, 79
3, 420000, Note_off_c, 2, 46, 79
3, 420000, Note_on_c, 2, 65, 79
3, 420000, Note_on_c, 2, 62, 79
3, 420000, Note_on_c, 2, 58, 79
3, 420000, Note_on_c, 2, 50, 79
3, 420000, Note_on_c, 2, 46, 79
3, 420240, Note_off_c, 2, 65, 79
3, 420240, Note_off_c, 2, 62, 79
3, 420240, Note_off_c, 2, 58, 79
3, 420240, Note_off_c, 2, 50, 79
3, 420240, Note_off_c, 2, 46, 79
3, 420240, Note_on_c, 2, 65, 79
3, 420240, Note_on_c, 2, 62, 79
3, 420240, Note_on_c, 2, 58, 79
3, 420240, Note_on_c, 2, 50, 79
3, 420240, Note_on_c, 2, 46, 79
3, 420480, Note_off_c, 2, 65, 79
3, 420480, Note_off_c, 2, 62, 79
3, 420480, Note_off_c, 2, 58, 79
3, 420480, Note_off_c, 2, 50, 79
3, 420480, Note_off_c, 2, 46, 79
3, 420480, Note_on_c, 2, 65, 79
3, 420480, Note_on_c, 2, 62, 79
3, 420480, Note_on_c, 2, 58, 79
3, 420480, Note_on_c, 2, 50, 79
3, 420480, Note_on_c, 2, 46, 79
3, 420720, Note_off_c, 2, 65, 79
3, 420720, Note_off_c, 2, 62, 79
3, 420720, Note_off_c, 2, 58, 79
3, 420720, Note_off_c, 2, 50, 79
3, 420720, Note_off_c, 2, 46, 79
3, 420720, Note_on_c, 2, 65, 79
3, 420720, Note_on_c, 2, 62, 79
3, 420720, Note_on_c, 2, 58, 79
3, 420720, Note_on_c, 2, 50, 79
3, 420720, Note_on_c, 2, 46, 79
3, 420960, Note_off_c, 2, 65, 79
3, 420960, Note_off_c, 2, 62, 79
3, 420960, Note_off_c, 2, 58, 79
3, 420960, Note_off_c, 2, 50, 79
3, 420960, Note_off_c, 2, 46, 79
3, 420960, Note_on_c, 2, 65, 79
3, 420960, Note_on_c, 2, 62, 79
3, 420960, Note_on_c, 2, 58, 79
3, 420960, Note_on_c, 2, 50, 79
3, 420960, Note_on_c, 2, 46, 79
3, 421200, Note_off_c, 2, 65, 79
3, 421200, Note_off_c, 2, 62, 79
3, 421200, Note_off_c, 2, 58, 79
3, 421200, Note_off_c, 2, 50, 79
3, 421200, Note_off_c, 2, 46, 79
3, 421200, Note_on_c, 2, 65, 79
3, 421200, Note_on_c, 2, 62, 79
3, 421200, Note_on_c, 2, 58, 79
3, 421200, Note_on_c, 2, 50, 79
3, 421200, Note_on_c, 2, 46, 79
3, 421440, Note_off_c, 2, 65, 79
3, 421440, Note_off_c, 2, 62, 79
3, 421440, Note_off_c, 2, 58, 79
3, 421440, Note_off_c, 2, 50, 79
3, 421440, Note_off_c, 2, 46, 79
3, 421440, Note_on_c, 2, 65, 79
3, 421440, Note_on_c, 2, 62, 79
3, 421440, Note_on_c, 2, 58, 79
3, 421440, Note_on_c, 2, 50, 79
3, 421440, Note_on_c, 2, 46, 79
3, 421680, Note_off_c, 2, 65, 79
3, 421680, Note_off_c, 2, 62, 79
3, 421680, Note_off_c, 2, 58, 79
3, 421680, Note_off_c, 2, 50, 79
3, 421680, Note_off_c, 2, 46, 79
3, 421680, Note_on_c, 2, 65, 79
3, 421680, Note_on_c, 2, 62, 79
3, 421680, Note_on_c, 2, 58, 79
3, 421680, Note_on_c, 2, 50, 79
3, 421680, Note_on_c, 2, 46, 79
3, 421920, Note_off_c, 2, 65, 79
3, 421920, Note_off_c, 2, 62, 79
3, 421920, Note_off_c, 2, 58, 79
3, 421920, Note_off_c, 2, 50, 79
3, 421920, Note_off_c, 2, 46, 79
3, 422400, Note_on_c, 2, 67, 79
3, 422400, Note_on_c, 2, 62, 79
3, 422400, Note_on_c, 2, 55, 79
3, 422400, Note_on_c, 2, 50, 79
3, 422400, Note_on_c, 2, 46, 79
3, 422400, Note_on_c, 2, 43, 79
3, 422880, Note_off_c, 2, 67, 79
3, 422880, Note_off_c, 2, 62, 79
3, 422880, Note_off_c, 2, 55, 79
3, 422880, Note_off_c, 2, 50, 79
3, 422880, Note_off_c, 2, 46, 79
3, 422880, Note_off_c, 2, 43, 79
3, 422880, Note_on_c, 2, 67, 79
3, 422880, Note_on_c, 2, 62, 79
3, 422880, Note_on_c, 2, 55, 79
3, 422880, Note_on_c, 2, 50, 79
3, 422880, Note_on_c, 2, 46, 79
3, 422880, Note_on_c, 2, 43, 79
3, 423120, Note_off_c, 2, 67, 79
3, 423120, Note_off_c, 2, 62, 79
3, 423120, Note_off_c, 2, 55, 79
3, 423120, Note_off_c, 2, 50, 79
3, 423120, Note_off_c, 2, 46, 79
3, 423120, Note_off_c, 2, 43, 79
3, 423120, Note_on_c, 2, 67, 79
3, 423120, Note_on_c, 2, 62, 79
3, 423120, Note_on_c, 2, 55, 79
3, 423120, Note_on_c, 2, 50, 79
3, 423120, Note_on_c, 2, 46, 79
3, 423120, Note_on_c, 2, 43, 79
3, 423360, Note_off_c, 2, 67, 79
3, 423360, Note_off_c, 2, 62, 79
3, 423360, Note_off_c, 2, 55, 79
3, 423360, Note_off_c, 2, 50, 79
3, 423360, Note_off_c, 2, 46, 79
3, 423360, Note_off_c, 2, 43, 79
3, 423360, Note_on_c, 2, 67, 79
3, 423360, Note_on_c, 2, 62, 79
3, 423360, Note_on_c, 2, 55, 79
3, 423360, Note_on_c, 2, 50, 79
3, 423360, Note_on_c, 2, 46, 79
3, 423360, Note_on_c, 2, 43, 79
3, 423840, Note_off_c, 2, 67, 79
3, 423840, Note_off_c, 2, 62, 79
3, 423840, Note_off_c, 2, 55, 79
3, 423840, Note_off_c, 2, 50, 79
3, 423840, Note_off_c, 2, 46, 79
3, 423840, Note_off_c, 2, 43, 79
3, 423840, Note_on_c, 2, 67, 79
3, 423840, Note_on_c, 2, 62, 79
3, 423840, Note_on_c, 2, 55, 79
3, 423840, Note_on_c, 2, 50, 79
3, 423840, Note_on_c, 2, 46, 79
3, 423840, Note_on_c, 2, 43, 79
3, 424080, Note_off_c, 2, 67, 79
3, 424080, Note_off_c, 2, 62, 79
3, 424080, Note_off_c, 2, 55, 79
3, 424080, Note_off_c, 2, 50, 79
3, 424080, Note_off_c, 2, 46, 79
3, 424080, Note_off_c, 2, 43, 79
3, 424080, Note_on_c, 2, 67, 79
3, 424080, Note_on_c, 2, 62, 79
3, 424080, Note_on_c, 2, 55, 79
3, 424080, Note_on_c, 2, 50, 79
3, 424080, Note_on_c, 2, 46, 79
3, 424080, Note_on_c, 2, 43, 79
3, 424320, Note_off_c, 2, 67, 79
3, 424320, Note_off_c, 2, 62, 79
3, 424320, Note_off_c, 2, 55, 79
3, 424320, Note_off_c, 2, 50, 79
3, 424320, Note_off_c, 2, 46, 79
3, 424320, Note_off_c, 2, 43, 79
3, 424320, Note_on_c, 2, 67, 79
3, 424320, Note_on_c, 2, 62, 79
3, 424320, Note_on_c, 2, 55, 79
3, 424320, Note_on_c, 2, 50, 79
3, 424320, Note_on_c, 2, 46, 79
3, 424320, Note_on_c, 2, 43, 79
3, 424560, Note_off_c, 2, 67, 79
3, 424560, Note_off_c, 2, 62, 79
3, 424560, Note_off_c, 2, 55, 79
3, 424560, Note_off_c, 2, 50, 79
3, 424560, Note_off_c, 2, 46, 79
3, 424560, Note_off_c, 2, 43, 79
3, 424560, Note_on_c, 2, 67, 79
3, 424560, Note_on_c, 2, 62, 79
3, 424560, Note_on_c, 2, 55, 79
3, 424560, Note_on_c, 2, 50, 79
3, 424560, Note_on_c, 2, 46, 79
3, 424560, Note_on_c, 2, 43, 79
3, 424800, Note_off_c, 2, 67, 79
3, 424800, Note_off_c, 2, 62, 79
3, 424800, Note_off_c, 2, 55, 79
3, 424800, Note_off_c, 2, 50, 79
3, 424800, Note_off_c, 2, 46, 79
3, 424800, Note_off_c, 2, 43, 79
3, 424800, Note_on_c, 2, 67, 79
3, 424800, Note_on_c, 2, 62, 79
3, 424800, Note_on_c, 2, 55, 79
3, 424800, Note_on_c, 2, 50, 79
3, 424800, Note_on_c, 2, 46, 79
3, 424800, Note_on_c, 2, 43, 79
3, 425040, Note_off_c, 2, 67, 79
3, 425040, Note_off_c, 2, 62, 79
3, 425040, Note_off_c, 2, 55, 79
3, 425040, Note_off_c, 2, 50, 79
3, 425040, Note_off_c, 2, 46, 79
3, 425040, Note_off_c, 2, 43, 79
3, 425040, Note_on_c, 2, 67, 79
3, 425040, Note_on_c, 2, 62, 79
3, 425040, Note_on_c, 2, 55, 79
3, 425040, Note_on_c, 2, 50, 79
3, 425040, Note_on_c, 2, 46, 79
3, 425040, Note_on_c, 2, 43, 79
3, 425280, Note_off_c, 2, 67, 79
3, 425280, Note_off_c, 2, 62, 79
3, 425280, Note_off_c, 2, 55, 79
3, 425280, Note_off_c, 2, 50, 79
3, 425280, Note_off_c, 2, 46, 79
3, 425280, Note_off_c, 2, 43, 79
3, 425280, Note_on_c, 2, 67, 79
3, 425280, Note_on_c, 2, 62, 79
3, 425280, Note_on_c, 2, 55, 79
3, 425280, Note_on_c, 2, 50, 79
3, 425280, Note_on_c, 2, 46, 79
3, 425280, Note_on_c, 2, 43, 79
3, 425520, Note_off_c, 2, 67, 79
3, 425520, Note_off_c, 2, 62, 79
3, 425520, Note_off_c, 2, 55, 79
3, 425520, Note_off_c, 2, 50, 79
3, 425520, Note_off_c, 2, 46, 79
3, 425520, Note_off_c, 2, 43, 79
3, 425520, Note_on_c, 2, 67, 79
3, 425520, Note_on_c, 2, 62, 79
3, 425520, Note_on_c, 2, 55, 79
3, 425520, Note_on_c, 2, 50, 79
3, 425520, Note_on_c, 2, 46, 79
3, 425520, Note_on_c, 2, 43, 79
3, 425760, Note_off_c, 2, 67, 79
3, 425760, Note_off_c, 2, 62, 79
3, 425760, Note_off_c, 2, 55, 79
3, 425760, Note_off_c, 2, 50, 79
3, 425760, Note_off_c, 2, 46, 79
3, 425760, Note_off_c, 2, 43, 79
3, 425760, Note_on_c, 2, 67, 79
3, 425760, Note_on_c, 2, 62, 79
3, 425760, Note_on_c, 2, 55, 79
3, 425760, Note_on_c, 2, 50, 79
3, 425760, Note_on_c, 2, 46, 79
3, 425760, Note_on_c, 2, 43, 79
3, 426000, Note_off_c, 2, 67, 79
3, 426000, Note_off_c, 2, 62, 79
3, 426000, Note_off_c, 2, 55, 79
3, 426000, Note_off_c, 2, 50, 79
3, 426000, Note_off_c, 2, 46, 79
3, 426000, Note_off_c, 2, 43, 79
3, 426000, Note_on_c, 2, 67, 79
3, 426000, Note_on_c, 2, 62, 79
3, 426000, Note_on_c, 2, 55, 79
3, 426000, Note_on_c, 2, 50, 79
3, 426000, Note_on_c, 2, 46, 79
3, 426000, Note_on_c, 2, 43, 79
3, 426240, Note_off_c, 2, 67, 79
3, 426240, Note_off_c, 2, 62, 79
3, 426240, Note_off_c, 2, 55, 79
3, 426240, Note_off_c, 2, 50, 79
3, 426240, Note_off_c, 2, 46, 79
3, 426240, Note_off_c, 2, 43, 79
3, 426240, Note_on_c, 2, 67, 79
3, 426240, Note_on_c, 2, 62, 79
3, 426240, Note_on_c, 2, 55, 79
3, 426240, Note_on_c, 2, 50, 79
3, 426240, Note_on_c, 2, 46, 79
3, 426240, Note_on_c, 2, 43, 79
3, 426720, Note_off_c, 2, 67, 79
3, 426720, Note_off_c, 2, 62, 79
3, 426720, Note_off_c, 2, 55, 79
3, 426720, Note_off_c, 2, 50, 79
3, 426720, Note_off_c, 2, 46, 79
3, 426720, Note_off_c, 2, 43, 79
3, 426720, Note_on_c, 2, 67, 79
3, 426720, Note_on_c, 2, 62, 79
3, 426720, Note_on_c, 2, 55, 79
3, 426720, Note_on_c, 2, 50, 79
3, 426720, Note_on_c, 2, 46, 79
3, 426720, Note_on_c, 2, 43, 79
3, 426960, Note_off_c, 2, 67, 79
3, 426960, Note_off_c, 2, 62, 79
3, 426960, Note_off_c, 2, 55, 79
3, 426960, Note_off_c, 2, 50, 79
3, 426960, Note_off_c, 2, 46, 79
3, 426960, Note_off_c, 2, 43, 79
3, 426960, Note_on_c, 2, 67, 79
3, 426960, Note_on_c, 2, 62, 79
3, 426960, Note_on_c, 2, 55, 79
3, 426960, Note_on_c, 2, 50, 79
3, 426960, Note_on_c, 2, 46, 79
3, 426960, Note_on_c, 2, 43, 79
3, 427200, Note_off_c, 2, 67, 79
3, 427200, Note_off_c, 2, 62, 79
3, 427200, Note_off_c, 2, 55, 79
3, 427200, Note_off_c, 2, 50, 79
3, 427200, Note_off_c, 2, 46, 79
3, 427200, Note_off_c, 2, 43, 79
3, 427200, Note_on_c, 2, 67, 79
3, 427200, Note_on_c, 2, 62, 79
3, 427200, Note_on_c, 2, 55, 79
3, 427200, Note_on_c, 2, 50, 79
3, 427200, Note_on_c, 2, 46, 79
3, 427200, Note_on_c, 2, 43, 79
3, 427680, Note_off_c, 2, 67, 79
3, 427680, Note_off_c, 2, 62, 79
3, 427680, Note_off_c, 2, 55, 79
3, 427680, Note_off_c, 2, 50, 79
3, 427680, Note_off_c, 2, 46, 79
3, 427680, Note_off_c, 2, 43, 79
3, 427680, Note_on_c, 2, 67, 79
3, 427680, Note_on_c, 2, 62, 79
3, 427680, Note_on_c, 2, 55, 79
3, 427680, Note_on_c, 2, 50, 79
3, 427680, Note_on_c, 2, 46, 79
3, 427680, Note_on_c, 2, 43, 79
3, 427920, Note_off_c, 2, 67, 79
3, 427920, Note_off_c, 2, 62, 79
3, 427920, Note_off_c, 2, 55, 79
3, 427920, Note_off_c, 2, 50, 79
3, 427920, Note_off_c, 2, 46, 79
3, 427920, Note_off_c, 2, 43, 79
3, 427920, Note_on_c, 2, 67, 79
3, 427920, Note_on_c, 2, 62, 79
3, 427920, Note_on_c, 2, 55, 79
3, 427920, Note_on_c, 2, 50, 79
3, 427920, Note_on_c, 2, 46, 79
3, 427920, Note_on_c, 2, 43, 79
3, 428160, Note_off_c, 2, 67, 79
3, 428160, Note_off_c, 2, 62, 79
3, 428160, Note_off_c, 2, 55, 79
3, 428160, Note_off_c, 2, 50, 79
3, 428160, Note_off_c, 2, 46, 79
3, 428160, Note_off_c, 2, 43, 79
3, 428160, Note_on_c, 2, 67, 79
3, 428160, Note_on_c, 2, 62, 79
3, 428160, Note_on_c, 2, 55, 79
3, 428160, Note_on_c, 2, 50, 79
3, 428160, Note_on_c, 2, 46, 79
3, 428160, Note_on_c, 2, 43, 79
3, 428400, Note_off_c, 2, 67, 79
3, 428400, Note_off_c, 2, 62, 79
3, 428400, Note_off_c, 2, 55, 79
3, 428400, Note_off_c, 2, 50, 79
3, 428400, Note_off_c, 2, 46, 79
3, 428400, Note_off_c, 2, 43, 79
3, 428400, Note_on_c, 2, 67, 79
3, 428400, Note_on_c, 2, 62, 79
3, 428400, Note_on_c, 2, 55, 79
3, 428400, Note_on_c, 2, 50, 79
3, 428400, Note_on_c, 2, 46, 79
3, 428400, Note_on_c, 2, 43, 79
3, 428640, Note_off_c, 2, 67, 79
3, 428640, Note_off_c, 2, 62, 79
3, 428640, Note_off_c, 2, 55, 79
3, 428640, Note_off_c, 2, 50, 79
3, 428640, Note_off_c, 2, 46, 79
3, 428640, Note_off_c, 2, 43, 79
3, 428640, Note_on_c, 2, 67, 79
3, 428640, Note_on_c, 2, 62, 79
3, 428640, Note_on_c, 2, 55, 79
3, 428640, Note_on_c, 2, 50, 79
3, 428640, Note_on_c, 2, 46, 79
3, 428640, Note_on_c, 2, 43, 79
3, 428880, Note_off_c, 2, 67, 79
3, 428880, Note_off_c, 2, 62, 79
3, 428880, Note_off_c, 2, 55, 79
3, 428880, Note_off_c, 2, 50, 79
3, 428880, Note_off_c, 2, 46, 79
3, 428880, Note_off_c, 2, 43, 79
3, 428880, Note_on_c, 2, 67, 79
3, 428880, Note_on_c, 2, 62, 79
3, 428880, Note_on_c, 2, 55, 79
3, 428880, Note_on_c, 2, 50, 79
3, 428880, Note_on_c, 2, 46, 79
3, 428880, Note_on_c, 2, 43, 79
3, 429120, Note_off_c, 2, 67, 79
3, 429120, Note_off_c, 2, 62, 79
3, 429120, Note_off_c, 2, 55, 79
3, 429120, Note_off_c, 2, 50, 79
3, 429120, Note_off_c, 2, 46, 79
3, 429120, Note_off_c, 2, 43, 79
3, 429120, Note_on_c, 2, 67, 79
3, 429120, Note_on_c, 2, 62, 79
3, 429120, Note_on_c, 2, 55, 79
3, 429120, Note_on_c, 2, 50, 79
3, 429120, Note_on_c, 2, 46, 79
3, 429120, Note_on_c, 2, 43, 79
3, 429360, Note_off_c, 2, 67, 79
3, 429360, Note_off_c, 2, 62, 79
3, 429360, Note_off_c, 2, 55, 79
3, 429360, Note_off_c, 2, 50, 79
3, 429360, Note_off_c, 2, 46, 79
3, 429360, Note_off_c, 2, 43, 79
3, 429360, Note_on_c, 2, 67, 79
3, 429360, Note_on_c, 2, 62, 79
3, 429360, Note_on_c, 2, 55, 79
3, 429360, Note_on_c, 2, 50, 79
3, 429360, Note_on_c, 2, 46, 79
3, 429360, Note_on_c, 2, 43, 79
3, 429600, Note_off_c, 2, 67, 79
3, 429600, Note_off_c, 2, 62, 79
3, 429600, Note_off_c, 2, 55, 79
3, 429600, Note_off_c, 2, 50, 79
3, 429600, Note_off_c, 2, 46, 79
3, 429600, Note_off_c, 2, 43, 79
3, 429600, Note_on_c, 2, 67, 79
3, 429600, Note_on_c, 2, 62, 79
3, 429600, Note_on_c, 2, 55, 79
3, 429600, Note_on_c, 2, 50, 79
3, 429600, Note_on_c, 2, 46, 79
3, 429600, Note_on_c, 2, 43, 79
3, 429840, Note_off_c, 2, 67, 79
3, 429840, Note_off_c, 2, 62, 79
3, 429840, Note_off_c, 2, 55, 79
3, 429840, Note_off_c, 2, 50, 79
3, 429840, Note_off_c, 2, 46, 79
3, 429840, Note_off_c, 2, 43, 79
3, 429840, Note_on_c, 2, 67, 79
3, 429840, Note_on_c, 2, 62, 79
3, 429840, Note_on_c, 2, 55, 79
3, 429840, Note_on_c, 2, 50, 79
3, 429840, Note_on_c, 2, 46, 79
3, 429840, Note_on_c, 2, 43, 79
3, 430080, Note_off_c, 2, 67, 79
3, 430080, Note_off_c, 2, 62, 79
3, 430080, Note_off_c, 2, 55, 79
3, 430080, Note_off_c, 2, 50, 79
3, 430080, Note_off_c, 2, 46, 79
3, 430080, Note_off_c, 2, 43, 79
3, 430080, Note_on_c, 2, 65, 79
3, 430080, Note_on_c, 2, 62, 79
3, 430080, Note_on_c, 2, 58, 79
3, 430080, Note_on_c, 2, 50, 79
3, 430080, Note_on_c, 2, 46, 79
3, 430560, Note_off_c, 2, 65, 79
3, 430560, Note_off_c, 2, 62, 79
3, 430560, Note_off_c, 2, 58, 79
3, 430560, Note_off_c, 2, 50, 79
3, 430560, Note_off_c, 2, 46, 79
3, 430560, Note_on_c, 2, 65, 79
3, 430560, Note_on_c, 2, 62, 79
3, 430560, Note_on_c, 2, 58, 79
3, 430560, Note_on_c, 2, 50, 79
3, 430560, Note_on_c, 2, 46, 79
3, 430800, Note_off_c, 2, 65, 79
3, 430800, Note_off_c, 2, 62, 79
3, 430800, Note_off_c, 2, 58, 79
3, 430800, Note_off_c, 2, 50, 79
3, 430800, Note_off_c, 2, 46, 79
3, 430800, Note_on_c, 2, 65, 79
3, 430800, Note_on_c, 2, 62, 79
3, 430800, Note_on_c, 2, 58, 79
3, 430800, Note_on_c, 2, 50, 79
3, 430800, Note_on_c, 2, 46, 79
3, 431040, Note_off_c, 2, 65, 79
3, 431040, Note_off_c, 2, 62, 79
3, 431040, Note_off_c, 2, 58, 79
3, 431040, Note_off_c, 2, 50, 79
3, 431040, Note_off_c, 2, 46, 79
3, 431040, Note_on_c, 2, 65, 79
3, 431040, Note_on_c, 2, 62, 79
3, 431040, Note_on_c, 2, 58, 79
3, 431040, Note_on_c, 2, 50, 79
3, 431040, Note_on_c, 2, 46, 79
3, 431520, Note_off_c, 2, 65, 79
3, 431520, Note_off_c, 2, 62, 79
3, 431520, Note_off_c, 2, 58, 79
3, 431520, Note_off_c, 2, 50, 79
3, 431520, Note_off_c, 2, 46, 79
3, 431520, Note_on_c, 2, 65, 79
3, 431520, Note_on_c, 2, 62, 79
3, 431520, Note_on_c, 2, 58, 79
3, 431520, Note_on_c, 2, 50, 79
3, 431520, Note_on_c, 2, 46, 79
3, 432240, Note_off_c, 2, 65, 79
3, 432240, Note_off_c, 2, 62, 79
3, 432240, Note_off_c, 2, 58, 79
3, 432240, Note_off_c, 2, 50, 79
3, 432240, Note_off_c, 2, 46, 79
3, 432240, Note_on_c, 2, 65, 79
3, 432240, Note_on_c, 2, 62, 79
3, 432240, Note_on_c, 2, 58, 79
3, 432240, Note_on_c, 2, 50, 79
3, 432240, Note_on_c, 2, 46, 79
3, 432480, Note_off_c, 2, 65, 79
3, 432480, Note_off_c, 2, 62, 79
3, 432480, Note_off_c, 2, 58, 79
3, 432480, Note_off_c, 2, 50, 79
3, 432480, Note_off_c, 2, 46, 79
3, 432480, Note_on_c, 2, 65, 79
3, 432480, Note_on_c, 2, 62, 79
3, 432480, Note_on_c, 2, 58, 79
3, 432480, Note_on_c, 2, 50, 79
3, 432480, Note_on_c, 2, 46, 79
3, 432960, Note_off_c, 2, 65, 79
3, 432960, Note_off_c, 2, 62, 79
3, 432960, Note_off_c, 2, 58, 79
3, 432960, Note_off_c, 2, 50, 79
3, 432960, Note_off_c, 2, 46, 79
3, 432960, Note_on_c, 2, 65, 79
3, 432960, Note_on_c, 2, 62, 79
3, 432960, Note_on_c, 2, 58, 79
3, 432960, Note_on_c, 2, 50, 79
3, 432960, Note_on_c, 2, 46, 79
3, 433440, Note_off_c, 2, 65, 79
3, 433440, Note_off_c, 2, 62, 79
3, 433440, Note_off_c, 2, 58, 79
3, 433440, Note_off_c, 2, 50, 79
3, 433440, Note_off_c, 2, 46, 79
3, 433440, Note_on_c, 2, 65, 79
3, 433440, Note_on_c, 2, 62, 79
3, 433440, Note_on_c, 2, 58, 79
3, 433440, Note_on_c, 2, 50, 79
3, 433440, Note_on_c, 2, 46, 79
3, 433920, Note_off_c, 2, 65, 79
3, 433920, Note_off_c, 2, 62, 79
3, 433920, Note_off_c, 2, 58, 79
3, 433920, Note_off_c, 2, 50, 79
3, 433920, Note_off_c, 2, 46, 79
3, 433920, Note_on_c, 2, 67, 79
3, 433920, Note_on_c, 2, 62, 79
3, 433920, Note_on_c, 2, 55, 79
3, 433920, Note_on_c, 2, 50, 79
3, 433920, Note_on_c, 2, 46, 79
3, 433920, Note_on_c, 2, 43, 79
3, 434640, Note_off_c, 2, 67, 79
3, 434640, Note_off_c, 2, 62, 79
3, 434640, Note_off_c, 2, 55, 79
3, 434640, Note_off_c, 2, 50, 79
3, 434640, Note_off_c, 2, 46, 79
3, 434640, Note_off_c, 2, 43, 79
3, 434640, Note_on_c, 2, 67, 79
3, 434640, Note_on_c, 2, 62, 79
3, 434640, Note_on_c, 2, 55, 79
3, 434640, Note_on_c, 2, 50, 79
3, 434640, Note_on_c, 2, 46, 79
3, 434640, Note_on_c, 2, 43, 79
3, 434880, Note_off_c, 2, 67, 79
3, 434880, Note_off_c, 2, 62, 79
3, 434880, Note_off_c, 2, 55, 79
3, 434880, Note_off_c, 2, 50, 79
3, 434880, Note_off_c, 2, 46, 79
3, 434880, Note_off_c, 2, 43, 79
3, 434880, Note_on_c, 2, 67, 79
3, 434880, Note_on_c, 2, 62, 79
3, 434880, Note_on_c, 2, 55, 79
3, 434880, Note_on_c, 2, 50, 79
3, 434880, Note_on_c, 2, 46, 79
3, 434880, Note_on_c, 2, 43, 79
3, 435360, Note_off_c, 2, 67, 79
3, 435360, Note_off_c, 2, 62, 79
3, 435360, Note_off_c, 2, 55, 79
3, 435360, Note_off_c, 2, 50, 79
3, 435360, Note_off_c, 2, 46, 79
3, 435360, Note_off_c, 2, 43, 79
3, 435360, Note_on_c, 2, 67, 79
3, 435360, Note_on_c, 2, 62, 79
3, 435360, Note_on_c, 2, 55, 79
3, 435360, Note_on_c, 2, 50, 79
3, 435360, Note_on_c, 2, 46, 79
3, 435360, Note_on_c, 2, 43, 79
3, 435840, Note_off_c, 2, 67, 79
3, 435840, Note_off_c, 2, 62, 79
3, 435840, Note_off_c, 2, 55, 79
3, 435840, Note_off_c, 2, 50, 79
3, 435840, Note_off_c, 2, 46, 79
3, 435840, Note_off_c, 2, 43, 79
3, 435840, Note_on_c, 2, 67, 79
3, 435840, Note_on_c, 2, 62, 79
3, 435840, Note_on_c, 2, 55, 79
3, 435840, Note_on_c, 2, 50, 79
3, 435840, Note_on_c, 2, 46, 79
3, 435840, Note_on_c, 2, 43, 79
3, 436080, Note_off_c, 2, 67, 79
3, 436080, Note_off_c, 2, 62, 79
3, 436080, Note_off_c, 2, 55, 79
3, 436080, Note_off_c, 2, 50, 79
3, 436080, Note_off_c, 2, 46, 79
3, 436080, Note_off_c, 2, 43, 79
3, 436080, Note_on_c, 2, 67, 79
3, 436080, Note_on_c, 2, 62, 79
3, 436080, Note_on_c, 2, 55, 79
3, 436080, Note_on_c, 2, 50, 79
3, 436080, Note_on_c, 2, 46, 79
3, 436080, Note_on_c, 2, 43, 79
3, 436320, Note_off_c, 2, 67, 79
3, 436320, Note_off_c, 2, 62, 79
3, 436320, Note_off_c, 2, 55, 79
3, 436320, Note_off_c, 2, 50, 79
3, 436320, Note_off_c, 2, 46, 79
3, 436320, Note_off_c, 2, 43, 79
3, 436320, Note_on_c, 2, 67, 79
3, 436320, Note_on_c, 2, 62, 79
3, 436320, Note_on_c, 2, 55, 79
3, 436320, Note_on_c, 2, 50, 79
3, 436320, Note_on_c, 2, 46, 79
3, 436320, Note_on_c, 2, 43, 79
3, 436800, Note_off_c, 2, 67, 79
3, 436800, Note_off_c, 2, 62, 79
3, 436800, Note_off_c, 2, 55, 79
3, 436800, Note_off_c, 2, 50, 79
3, 436800, Note_off_c, 2, 46, 79
3, 436800, Note_off_c, 2, 43, 79
3, 436800, Note_on_c, 2, 67, 79
3, 436800, Note_on_c, 2, 62, 79
3, 436800, Note_on_c, 2, 55, 79
3, 436800, Note_on_c, 2, 50, 79
3, 436800, Note_on_c, 2, 46, 79
3, 436800, Note_on_c, 2, 43, 79
3, 437280, Note_off_c, 2, 67, 79
3, 437280, Note_off_c, 2, 62, 79
3, 437280, Note_off_c, 2, 55, 79
3, 437280, Note_off_c, 2, 50, 79
3, 437280, Note_off_c, 2, 46, 79
3, 437280, Note_off_c, 2, 43, 79
3, 437280, Note_on_c, 2, 67, 79
3, 437280, Note_on_c, 2, 62, 79
3, 437280, Note_on_c, 2, 55, 79
3, 437280, Note_on_c, 2, 50, 79
3, 437280, Note_on_c, 2, 46, 79
3, 437280, Note_on_c, 2, 43, 79
3, 437760, Note_off_c, 2, 67, 79
3, 437760, Note_off_c, 2, 62, 79
3, 437760, Note_off_c, 2, 55, 79
3, 437760, Note_off_c, 2, 50, 79
3, 437760, Note_off_c, 2, 46, 79
3, 437760, Note_off_c, 2, 43, 79
3, 437760, Note_on_c, 2, 65, 79
3, 437760, Note_on_c, 2, 62, 79
3, 437760, Note_on_c, 2, 58, 79
3, 437760, Note_on_c, 2, 50, 79
3, 437760, Note_on_c, 2, 46, 79
3, 438480, Note_off_c, 2, 65, 79
3, 438480, Note_off_c, 2, 62, 79
3, 438480, Note_off_c, 2, 58, 79
3, 438480, Note_off_c, 2, 50, 79
3, 438480, Note_off_c, 2, 46, 79
3, 438480, Note_on_c, 2, 65, 79
3, 438480, Note_on_c, 2, 62, 79
3, 438480, Note_on_c, 2, 58, 79
3, 438480, Note_on_c, 2, 50, 79
3, 438480, Note_on_c, 2, 46, 79
3, 438720, Note_off_c, 2, 65, 79
3, 438720, Note_off_c, 2, 62, 79
3, 438720, Note_off_c, 2, 58, 79
3, 438720, Note_off_c, 2, 50, 79
3, 438720, Note_off_c, 2, 46, 79
3, 438720, Note_on_c, 2, 65, 79
3, 438720, Note_on_c, 2, 62, 79
3, 438720, Note_on_c, 2, 58, 79
3, 438720, Note_on_c, 2, 50, 79
3, 438720, Note_on_c, 2, 46, 79
3, 439200, Note_off_c, 2, 65, 79
3, 439200, Note_off_c, 2, 62, 79
3, 439200, Note_off_c, 2, 58, 79
3, 439200, Note_off_c, 2, 50, 79
3, 439200, Note_off_c, 2, 46, 79
3, 439200, Note_on_c, 2, 65, 79
3, 439200, Note_on_c, 2, 62, 79
3, 439200, Note_on_c, 2, 58, 79
3, 439200, Note_on_c, 2, 50, 79
3, 439200, Note_on_c, 2, 46, 79
3, 439920, Note_off_c, 2, 65, 79
3, 439920, Note_off_c, 2, 62, 79
3, 439920, Note_off_c, 2, 58, 79
3, 439920, Note_off_c, 2, 50, 79
3, 439920, Note_off_c, 2, 46, 79
3, 439920, Note_on_c, 2, 65, 79
3, 439920, Note_on_c, 2, 62, 79
3, 439920, Note_on_c, 2, 58, 79
3, 439920, Note_on_c, 2, 50, 79
3, 439920, Note_on_c, 2, 46, 79
3, 440160, Note_off_c, 2, 65, 79
3, 440160, Note_off_c, 2, 62, 79
3, 440160, Note_off_c, 2, 58, 79
3, 440160, Note_off_c, 2, 50, 79
3, 440160, Note_off_c, 2, 46, 79
3, 440160, Note_on_c, 2, 65, 79
3, 440160, Note_on_c, 2, 62, 79
3, 440160, Note_on_c, 2, 58, 79
3, 440160, Note_on_c, 2, 50, 79
3, 440160, Note_on_c, 2, 46, 79
3, 440640, Note_off_c, 2, 65, 79
3, 440640, Note_off_c, 2, 62, 79
3, 440640, Note_off_c, 2, 58, 79
3, 440640, Note_off_c, 2, 50, 79
3, 440640, Note_off_c, 2, 46, 79
3, 440640, Note_on_c, 2, 65, 79
3, 440640, Note_on_c, 2, 62, 79
3, 440640, Note_on_c, 2, 58, 79
3, 440640, Note_on_c, 2, 50, 79
3, 440640, Note_on_c, 2, 46, 79
3, 441120, Note_off_c, 2, 65, 79
3, 441120, Note_off_c, 2, 62, 79
3, 441120, Note_off_c, 2, 58, 79
3, 441120, Note_off_c, 2, 50, 79
3, 441120, Note_off_c, 2, 46, 79
3, 441120, Note_on_c, 2, 65, 79
3, 441120, Note_on_c, 2, 62, 79
3, 441120, Note_on_c, 2, 58, 79
3, 441120, Note_on_c, 2, 50, 79
3, 441120, Note_on_c, 2, 46, 79
3, 441600, Note_off_c, 2, 65, 79
3, 441600, Note_off_c, 2, 62, 79
3, 441600, Note_off_c, 2, 58, 79
3, 441600, Note_off_c, 2, 50, 79
3, 441600, Note_off_c, 2, 46, 79
3, 441600, Note_on_c, 2, 67, 79
3, 441600, Note_on_c, 2, 62, 79
3, 441600, Note_on_c, 2, 55, 79
3, 441600, Note_on_c, 2, 50, 79
3, 441600, Note_on_c, 2, 46, 79
3, 441600, Note_on_c, 2, 43, 79
3, 442320, Note_off_c, 2, 67, 79
3, 442320, Note_off_c, 2, 62, 79
3, 442320, Note_off_c, 2, 55, 79
3, 442320, Note_off_c, 2, 50, 79
3, 442320, Note_off_c, 2, 46, 79
3, 442320, Note_off_c, 2, 43, 79
3, 442320, Note_on_c, 2, 67, 79
3, 442320, Note_on_c, 2, 62, 79
3, 442320, Note_on_c, 2, 55, 79
3, 442320, Note_on_c, 2, 50, 79
3, 442320, Note_on_c, 2, 46, 79
3, 442320, Note_on_c, 2, 43, 79
3, 442560, Note_off_c, 2, 67, 79
3, 442560, Note_off_c, 2, 62, 79
3, 442560, Note_off_c, 2, 55, 79
3, 442560, Note_off_c, 2, 50, 79
3, 442560, Note_off_c, 2, 46, 79
3, 442560, Note_off_c, 2, 43, 79
3, 442560, Note_on_c, 2, 67, 79
3, 442560, Note_on_c, 2, 62, 79
3, 442560, Note_on_c, 2, 55, 79
3, 442560, Note_on_c, 2, 50, 79
3, 442560, Note_on_c, 2, 46, 79
3, 442560, Note_on_c, 2, 43, 79
3, 443040, Note_off_c, 2, 67, 79
3, 443040, Note_off_c, 2, 62, 79
3, 443040, Note_off_c, 2, 55, 79
3, 443040, Note_off_c, 2, 50, 79
3, 443040, Note_off_c, 2, 46, 79
3, 443040, Note_off_c, 2, 43, 79
3, 443040, Note_on_c, 2, 67, 79
3, 443040, Note_on_c, 2, 62, 79
3, 443040, Note_on_c, 2, 55, 79
3, 443040, Note_on_c, 2, 50, 79
3, 443040, Note_on_c, 2, 46, 79
3, 443040, Note_on_c, 2, 43, 79
3, 443520, Note_off_c, 2, 67, 79
3, 443520, Note_off_c, 2, 62, 79
3, 443520, Note_off_c, 2, 55, 79
3, 443520, Note_off_c, 2, 50, 79
3, 443520, Note_off_c, 2, 46, 79
3, 443520, Note_off_c, 2, 43, 79
3, 443520, Note_on_c, 2, 67, 79
3, 443520, Note_on_c, 2, 62, 79
3, 443520, Note_on_c, 2, 55, 79
3, 443520, Note_on_c, 2, 50, 79
3, 443520, Note_on_c, 2, 46, 79
3, 443520, Note_on_c, 2, 43, 79
3, 443760, Note_off_c, 2, 67, 79
3, 443760, Note_off_c, 2, 62, 79
3, 443760, Note_off_c, 2, 55, 79
3, 443760, Note_off_c, 2, 50, 79
3, 443760, Note_off_c, 2, 46, 79
3, 443760, Note_off_c, 2, 43, 79
3, 443760, Note_on_c, 2, 67, 79
3, 443760, Note_on_c, 2, 62, 79
3, 443760, Note_on_c, 2, 55, 79
3, 443760, Note_on_c, 2, 50, 79
3, 443760, Note_on_c, 2, 46, 79
3, 443760, Note_on_c, 2, 43, 79
3, 444000, Note_off_c, 2, 67, 79
3, 444000, Note_off_c, 2, 62, 79
3, 444000, Note_off_c, 2, 55, 79
3, 444000, Note_off_c, 2, 50, 79
3, 444000, Note_off_c, 2, 46, 79
3, 444000, Note_off_c, 2, 43, 79
3, 444000, Note_on_c, 2, 67, 79
3, 444000, Note_on_c, 2, 62, 79
3, 444000, Note_on_c, 2, 55, 79
3, 444000, Note_on_c, 2, 50, 79
3, 444000, Note_on_c, 2, 46, 79
3, 444000, Note_on_c, 2, 43, 79
3, 444240, Note_off_c, 2, 67, 79
3, 444240, Note_off_c, 2, 62, 79
3, 444240, Note_off_c, 2, 55, 79
3, 444240, Note_off_c, 2, 50, 79
3, 444240, Note_off_c, 2, 46, 79
3, 444240, Note_off_c, 2, 43, 79
3, 444240, Note_on_c, 2, 67, 79
3, 444240, Note_on_c, 2, 62, 79
3, 444240, Note_on_c, 2, 55, 79
3, 444240, Note_on_c, 2, 50, 79
3, 444240, Note_on_c, 2, 46, 79
3, 444240, Note_on_c, 2, 43, 79
3, 444480, Note_off_c, 2, 67, 79
3, 444480, Note_off_c, 2, 62, 79
3, 444480, Note_off_c, 2, 55, 79
3, 444480, Note_off_c, 2, 50, 79
3, 444480, Note_off_c, 2, 46, 79
3, 444480, Note_off_c, 2, 43, 79
3, 444480, Note_on_c, 2, 67, 79
3, 444480, Note_on_c, 2, 62, 79
3, 444480, Note_on_c, 2, 55, 79
3, 444480, Note_on_c, 2, 50, 79
3, 444480, Note_on_c, 2, 46, 79
3, 444480, Note_on_c, 2, 43, 79
3, 444720, Note_off_c, 2, 67, 79
3, 444720, Note_off_c, 2, 62, 79
3, 444720, Note_off_c, 2, 55, 79
3, 444720, Note_off_c, 2, 50, 79
3, 444720, Note_off_c, 2, 46, 79
3, 444720, Note_off_c, 2, 43, 79
3, 444720, Note_on_c, 2, 67, 79
3, 444720, Note_on_c, 2, 62, 79
3, 444720, Note_on_c, 2, 55, 79
3, 444720, Note_on_c, 2, 50, 79
3, 444720, Note_on_c, 2, 46, 79
3, 444720, Note_on_c, 2, 43, 79
3, 444960, Note_off_c, 2, 67, 79
3, 444960, Note_off_c, 2, 62, 79
3, 444960, Note_off_c, 2, 55, 79
3, 444960, Note_off_c, 2, 50, 79
3, 444960, Note_off_c, 2, 46, 79
3, 444960, Note_off_c, 2, 43, 79
3, 444960, Note_on_c, 2, 67, 79
3, 444960, Note_on_c, 2, 62, 79
3, 444960, Note_on_c, 2, 55, 79
3, 444960, Note_on_c, 2, 50, 79
3, 444960, Note_on_c, 2, 46, 79
3, 444960, Note_on_c, 2, 43, 79
3, 445440, Note_off_c, 2, 67, 79
3, 445440, Note_off_c, 2, 62, 79
3, 445440, Note_off_c, 2, 55, 79
3, 445440, Note_off_c, 2, 50, 79
3, 445440, Note_off_c, 2, 46, 79
3, 445440, Note_off_c, 2, 43, 79
3, 445440, Note_on_c, 2, 67, 79
3, 445440, Note_on_c, 2, 62, 79
3, 445440, Note_on_c, 2, 55, 79
3, 445440, Note_on_c, 2, 50, 79
3, 445440, Note_on_c, 2, 46, 79
3, 445440, Note_on_c, 2, 43, 79
3, 445920, Note_off_c, 2, 67, 79
3, 445920, Note_off_c, 2, 62, 79
3, 445920, Note_off_c, 2, 55, 79
3, 445920, Note_off_c, 2, 50, 79
3, 445920, Note_off_c, 2, 46, 79
3, 445920, Note_off_c, 2, 43, 79
3, 445920, Note_on_c, 2, 67, 79
3, 445920, Note_on_c, 2, 62, 79
3, 445920, Note_on_c, 2, 55, 79
3, 445920, Note_on_c, 2, 50, 79
3, 445920, Note_on_c, 2, 46, 79
3, 445920, Note_on_c, 2, 43, 79
3, 446160, Note_off_c, 2, 67, 79
3, 446160, Note_off_c, 2, 62, 79
3, 446160, Note_off_c, 2, 55, 79
3, 446160, Note_off_c, 2, 50, 79
3, 446160, Note_off_c, 2, 46, 79
3, 446160, Note_off_c, 2, 43, 79
3, 446160, Note_on_c, 2, 67, 79
3, 446160, Note_on_c, 2, 62, 79
3, 446160, Note_on_c, 2, 55, 79
3, 446160, Note_on_c, 2, 50, 79
3, 446160, Note_on_c, 2, 46, 79
3, 446160, Note_on_c, 2, 43, 79
3, 446400, Note_off_c, 2, 67, 79
3, 446400, Note_off_c, 2, 62, 79
3, 446400, Note_off_c, 2, 55, 79
3, 446400, Note_off_c, 2, 50, 79
3, 446400, Note_off_c, 2, 46, 79
3, 446400, Note_off_c, 2, 43, 79
3, 446400, Note_on_c, 2, 67, 79
3, 446400, Note_on_c, 2, 62, 79
3, 446400, Note_on_c, 2, 55, 79
3, 446400, Note_on_c, 2, 50, 79
3, 446400, Note_on_c, 2, 46, 79
3, 446400, Note_on_c, 2, 43, 79
3, 446880, Note_off_c, 2, 67, 79
3, 446880, Note_off_c, 2, 62, 79
3, 446880, Note_off_c, 2, 55, 79
3, 446880, Note_off_c, 2, 50, 79
3, 446880, Note_off_c, 2, 46, 79
3, 446880, Note_off_c, 2, 43, 79
3, 446880, Note_on_c, 2, 67, 79
3, 446880, Note_on_c, 2, 62, 79
3, 446880, Note_on_c, 2, 55, 79
3, 446880, Note_on_c, 2, 50, 79
3, 446880, Note_on_c, 2, 46, 79
3, 446880, Note_on_c, 2, 43, 79
3, 447120, Note_off_c, 2, 67, 79
3, 447120, Note_off_c, 2, 62, 79
3, 447120, Note_off_c, 2, 55, 79
3, 447120, Note_off_c, 2, 50, 79
3, 447120, Note_off_c, 2, 46, 79
3, 447120, Note_off_c, 2, 43, 79
3, 447120, Note_on_c, 2, 67, 79
3, 447120, Note_on_c, 2, 62, 79
3, 447120, Note_on_c, 2, 55, 79
3, 447120, Note_on_c, 2, 50, 79
3, 447120, Note_on_c, 2, 46, 79
3, 447120, Note_on_c, 2, 43, 79
3, 447360, Note_off_c, 2, 67, 79
3, 447360, Note_off_c, 2, 62, 79
3, 447360, Note_off_c, 2, 55, 79
3, 447360, Note_off_c, 2, 50, 79
3, 447360, Note_off_c, 2, 46, 79
3, 447360, Note_off_c, 2, 43, 79
3, 447360, Note_on_c, 2, 67, 79
3, 447360, Note_on_c, 2, 62, 79
3, 447360, Note_on_c, 2, 55, 79
3, 447360, Note_on_c, 2, 50, 79
3, 447360, Note_on_c, 2, 46, 79
3, 447360, Note_on_c, 2, 43, 79
3, 447600, Note_off_c, 2, 67, 79
3, 447600, Note_off_c, 2, 62, 79
3, 447600, Note_off_c, 2, 55, 79
3, 447600, Note_off_c, 2, 50, 79
3, 447600, Note_off_c, 2, 46, 79
3, 447600, Note_off_c, 2, 43, 79
3, 447600, Note_on_c, 2, 67, 79
3, 447600, Note_on_c, 2, 62, 79
3, 447600, Note_on_c, 2, 55, 79
3, 447600, Note_on_c, 2, 50, 79
3, 447600, Note_on_c, 2, 46, 79
3, 447600, Note_on_c, 2, 43, 79
3, 447840, Note_off_c, 2, 67, 79
3, 447840, Note_off_c, 2, 62, 79
3, 447840, Note_off_c, 2, 55, 79
3, 447840, Note_off_c, 2, 50, 79
3, 447840, Note_off_c, 2, 46, 79
3, 447840, Note_off_c, 2, 43, 79
3, 447840, Note_on_c, 2, 67, 79
3, 447840, Note_on_c, 2, 62, 79
3, 447840, Note_on_c, 2, 55, 79
3, 447840, Note_on_c, 2, 50, 79
3, 447840, Note_on_c, 2, 46, 79
3, 447840, Note_on_c, 2, 43, 79
3, 448080, Note_off_c, 2, 67, 79
3, 448080, Note_off_c, 2, 62, 79
3, 448080, Note_off_c, 2, 55, 79
3, 448080, Note_off_c, 2, 50, 79
3, 448080, Note_off_c, 2, 46, 79
3, 448080, Note_off_c, 2, 43, 79
3, 448080, Note_on_c, 2, 67, 79
3, 448080, Note_on_c, 2, 62, 79
3, 448080, Note_on_c, 2, 55, 79
3, 448080, Note_on_c, 2, 50, 79
3, 448080, Note_on_c, 2, 46, 79
3, 448080, Note_on_c, 2, 43, 79
3, 448320, Note_off_c, 2, 67, 79
3, 448320, Note_off_c, 2, 62, 79
3, 448320, Note_off_c, 2, 55, 79
3, 448320, Note_off_c, 2, 50, 79
3, 448320, Note_off_c, 2, 46, 79
3, 448320, Note_off_c, 2, 43, 79
3, 448320, Note_on_c, 2, 67, 79
3, 448320, Note_on_c, 2, 62, 79
3, 448320, Note_on_c, 2, 55, 79
3, 448320, Note_on_c, 2, 50, 79
3, 448320, Note_on_c, 2, 46, 79
3, 448320, Note_on_c, 2, 43, 79
3, 448560, Note_off_c, 2, 67, 79
3, 448560, Note_off_c, 2, 62, 79
3, 448560, Note_off_c, 2, 55, 79
3, 448560, Note_off_c, 2, 50, 79
3, 448560, Note_off_c, 2, 46, 79
3, 448560, Note_off_c, 2, 43, 79
3, 448560, Note_on_c, 2, 67, 79
3, 448560, Note_on_c, 2, 62, 79
3, 448560, Note_on_c, 2, 55, 79
3, 448560, Note_on_c, 2, 50, 79
3, 448560, Note_on_c, 2, 46, 79
3, 448560, Note_on_c, 2, 43, 79
3, 448800, Note_off_c, 2, 67, 79
3, 448800, Note_off_c, 2, 62, 79
3, 448800, Note_off_c, 2, 55, 79
3, 448800, Note_off_c, 2, 50, 79
3, 448800, Note_off_c, 2, 46, 79
3, 448800, Note_off_c, 2, 43, 79
3, 448800, Note_on_c, 2, 67, 79
3, 448800, Note_on_c, 2, 62, 79
3, 448800, Note_on_c, 2, 55, 79
3, 448800, Note_on_c, 2, 50, 79
3, 448800, Note_on_c, 2, 46, 79
3, 448800, Note_on_c, 2, 43, 79
3, 449040, Note_off_c, 2, 67, 79
3, 449040, Note_off_c, 2, 62, 79
3, 449040, Note_off_c, 2, 55, 79
3, 449040, Note_off_c, 2, 50, 79
3, 449040, Note_off_c, 2, 46, 79
3, 449040, Note_off_c, 2, 43, 79
3, 449040, Note_on_c, 2, 67, 79
3, 449040, Note_on_c, 2, 62, 79
3, 449040, Note_on_c, 2, 55, 79
3, 449040, Note_on_c, 2, 50, 79
3, 449040, Note_on_c, 2, 46, 79
3, 449040, Note_on_c, 2, 43, 79
3, 449280, Note_off_c, 2, 67, 79
3, 449280, Note_off_c, 2, 62, 79
3, 449280, Note_off_c, 2, 55, 79
3, 449280, Note_off_c, 2, 50, 79
3, 449280, Note_off_c, 2, 46, 79
3, 449280, Note_off_c, 2, 43, 79
3, 449280, Note_on_c, 2, 65, 79
3, 449280, Note_on_c, 2, 62, 79
3, 449280, Note_on_c, 2, 58, 79
3, 449280, Note_on_c, 2, 50, 79
3, 449280, Note_on_c, 2, 46, 79
3, 449760, Note_off_c, 2, 65, 79
3, 449760, Note_off_c, 2, 62, 79
3, 449760, Note_off_c, 2, 58, 79
3, 449760, Note_off_c, 2, 50, 79
3, 449760, Note_off_c, 2, 46, 79
3, 449760, Note_on_c, 2, 65, 79
3, 449760, Note_on_c, 2, 62, 79
3, 449760, Note_on_c, 2, 58, 79
3, 449760, Note_on_c, 2, 50, 79
3, 449760, Note_on_c, 2, 46, 79
3, 450000, Note_off_c, 2, 65, 79
3, 450000, Note_off_c, 2, 62, 79
3, 450000, Note_off_c, 2, 58, 79
3, 450000, Note_off_c, 2, 50, 79
3, 450000, Note_off_c, 2, 46, 79
3, 450000, Note_on_c, 2, 65, 79
3, 450000, Note_on_c, 2, 62, 79
3, 450000, Note_on_c, 2, 58, 79
3, 450000, Note_on_c, 2, 50, 79
3, 450000, Note_on_c, 2, 46, 79
3, 450240, Note_off_c, 2, 65, 79
3, 450240, Note_off_c, 2, 62, 79
3, 450240, Note_off_c, 2, 58, 79
3, 450240, Note_off_c, 2, 50, 79
3, 450240, Note_off_c, 2, 46, 79
3, 450240, Note_on_c, 2, 65, 79
3, 450240, Note_on_c, 2, 62, 79
3, 450240, Note_on_c, 2, 58, 79
3, 450240, Note_on_c, 2, 50, 79
3, 450240, Note_on_c, 2, 46, 79
3, 450720, Note_off_c, 2, 65, 79
3, 450720, Note_off_c, 2, 62, 79
3, 450720, Note_off_c, 2, 58, 79
3, 450720, Note_off_c, 2, 50, 79
3, 450720, Note_off_c, 2, 46, 79
3, 450720, Note_on_c, 2, 65, 79
3, 450720, Note_on_c, 2, 62, 79
3, 450720, Note_on_c, 2, 58, 79
3, 450720, Note_on_c, 2, 50, 79
3, 450720, Note_on_c, 2, 46, 79
3, 450960, Note_off_c, 2, 65, 79
3, 450960, Note_off_c, 2, 62, 79
3, 450960, Note_off_c, 2, 58, 79
3, 450960, Note_off_c, 2, 50, 79
3, 450960, Note_off_c, 2, 46, 79
3, 450960, Note_on_c, 2, 65, 79
3, 450960, Note_on_c, 2, 62, 79
3, 450960, Note_on_c, 2, 58, 79
3, 450960, Note_on_c, 2, 50, 79
3, 450960, Note_on_c, 2, 46, 79
3, 451200, Note_off_c, 2, 65, 79
3, 451200, Note_off_c, 2, 62, 79
3, 451200, Note_off_c, 2, 58, 79
3, 451200, Note_off_c, 2, 50, 79
3, 451200, Note_off_c, 2, 46, 79
3, 451200, Note_on_c, 2, 65, 79
3, 451200, Note_on_c, 2, 62, 79
3, 451200, Note_on_c, 2, 58, 79
3, 451200, Note_on_c, 2, 50, 79
3, 451200, Note_on_c, 2, 46, 79
3, 451440, Note_off_c, 2, 65, 79
3, 451440, Note_off_c, 2, 62, 79
3, 451440, Note_off_c, 2, 58, 79
3, 451440, Note_off_c, 2, 50, 79
3, 451440, Note_off_c, 2, 46, 79
3, 451440, Note_on_c, 2, 65, 79
3, 451440, Note_on_c, 2, 62, 79
3, 451440, Note_on_c, 2, 58, 79
3, 451440, Note_on_c, 2, 50, 79
3, 451440, Note_on_c, 2, 46, 79
3, 451680, Note_off_c, 2, 65, 79
3, 451680, Note_off_c, 2, 62, 79
3, 451680, Note_off_c, 2, 58, 79
3, 451680, Note_off_c, 2, 50, 79
3, 451680, Note_off_c, 2, 46, 79
3, 451680, Note_on_c, 2, 65, 79
3, 451680, Note_on_c, 2, 62, 79
3, 451680, Note_on_c, 2, 58, 79
3, 451680, Note_on_c, 2, 50, 79
3, 451680, Note_on_c, 2, 46, 79
3, 451920, Note_off_c, 2, 65, 79
3, 451920, Note_off_c, 2, 62, 79
3, 451920, Note_off_c, 2, 58, 79
3, 451920, Note_off_c, 2, 50, 79
3, 451920, Note_off_c, 2, 46, 79
3, 451920, Note_on_c, 2, 65, 79
3, 451920, Note_on_c, 2, 62, 79
3, 451920, Note_on_c, 2, 58, 79
3, 451920, Note_on_c, 2, 50, 79
3, 451920, Note_on_c, 2, 46, 79
3, 452160, Note_off_c, 2, 65, 79
3, 452160, Note_off_c, 2, 62, 79
3, 452160, Note_off_c, 2, 58, 79
3, 452160, Note_off_c, 2, 50, 79
3, 452160, Note_off_c, 2, 46, 79
3, 452160, Note_on_c, 2, 65, 79
3, 452160, Note_on_c, 2, 62, 79
3, 452160, Note_on_c, 2, 58, 79
3, 452160, Note_on_c, 2, 50, 79
3, 452160, Note_on_c, 2, 46, 79
3, 452400, Note_off_c, 2, 65, 79
3, 452400, Note_off_c, 2, 62, 79
3, 452400, Note_off_c, 2, 58, 79
3, 452400, Note_off_c, 2, 50, 79
3, 452400, Note_off_c, 2, 46, 79
3, 452400, Note_on_c, 2, 65, 79
3, 452400, Note_on_c, 2, 62, 79
3, 452400, Note_on_c, 2, 58, 79
3, 452400, Note_on_c, 2, 50, 79
3, 452400, Note_on_c, 2, 46, 79
3, 452640, Note_off_c, 2, 65, 79
3, 452640, Note_off_c, 2, 62, 79
3, 452640, Note_off_c, 2, 58, 79
3, 452640, Note_off_c, 2, 50, 79
3, 452640, Note_off_c, 2, 46, 79
3, 453120, Note_on_c, 2, 67, 79
3, 453120, Note_on_c, 2, 62, 79
3, 453120, Note_on_c, 2, 55, 79
3, 453120, Note_on_c, 2, 50, 79
3, 453120, Note_on_c, 2, 46, 79
3, 453120, Note_on_c, 2, 43, 79
3, 453600, Note_off_c, 2, 67, 79
3, 453600, Note_off_c, 2, 62, 79
3, 453600, Note_off_c, 2, 55, 79
3, 453600, Note_off_c, 2, 50, 79
3, 453600, Note_off_c, 2, 46, 79
3, 453600, Note_off_c, 2, 43, 79
3, 453600, Note_on_c, 2, 67, 79
3, 453600, Note_on_c, 2, 62, 79
3, 453600, Note_on_c, 2, 55, 79
3, 453600, Note_on_c, 2, 50, 79
3, 453600, Note_on_c, 2, 46, 79
3, 453600, Note_on_c, 2, 43, 79
3, 453840, Note_off_c, 2, 67, 79
3, 453840, Note_off_c, 2, 62, 79
3, 453840, Note_off_c, 2, 55, 79
3, 453840, Note_off_c, 2, 50, 79
3, 453840, Note_off_c, 2, 46, 79
3, 453840, Note_off_c, 2, 43, 79
3, 453840, Note_on_c, 2, 67, 79
3, 453840, Note_on_c, 2, 62, 79
3, 453840, Note_on_c, 2, 55, 79
3, 453840, Note_on_c, 2, 50, 79
3, 453840, Note_on_c, 2, 46, 79
3, 453840, Note_on_c, 2, 43, 79
3, 454080, Note_off_c, 2, 67, 79
3, 454080, Note_off_c, 2, 62, 79
3, 454080, Note_off_c, 2, 55, 79
3, 454080, Note_off_c, 2, 50, 79
3, 454080, Note_off_c, 2, 46, 79
3, 454080, Note_off_c, 2, 43, 79
3, 454080, Note_on_c, 2, 67, 79
3, 454080, Note_on_c, 2, 62, 79
3, 454080, Note_on_c, 2, 55, 79
3, 454080, Note_on_c, 2, 50, 79
3, 454080, Note_on_c, 2, 46, 79
3, 454080, Note_on_c, 2, 43, 79
3, 454560, Note_off_c, 2, 67, 79
3, 454560, Note_off_c, 2, 62, 79
3, 454560, Note_off_c, 2, 55, 79
3, 454560, Note_off_c, 2, 50, 79
3, 454560, Note_off_c, 2, 46, 79
3, 454560, Note_off_c, 2, 43, 79
3, 454560, Note_on_c, 2, 67, 79
3, 454560, Note_on_c, 2, 62, 79
3, 454560, Note_on_c, 2, 55, 79
3, 454560, Note_on_c, 2, 50, 79
3, 454560, Note_on_c, 2, 46, 79
3, 454560, Note_on_c, 2, 43, 79
3, 454800, Note_off_c, 2, 67, 79
3, 454800, Note_off_c, 2, 62, 79
3, 454800, Note_off_c, 2, 55, 79
3, 454800, Note_off_c, 2, 50, 79
3, 454800, Note_off_c, 2, 46, 79
3, 454800, Note_off_c, 2, 43, 79
3, 454800, Note_on_c, 2, 67, 79
3, 454800, Note_on_c, 2, 62, 79
3, 454800, Note_on_c, 2, 55, 79
3, 454800, Note_on_c, 2, 50, 79
3, 454800, Note_on_c, 2, 46, 79
3, 454800, Note_on_c, 2, 43, 79
3, 455040, Note_off_c, 2, 67, 79
3, 455040, Note_off_c, 2, 62, 79
3, 455040, Note_off_c, 2, 55, 79
3, 455040, Note_off_c, 2, 50, 79
3, 455040, Note_off_c, 2, 46, 79
3, 455040, Note_off_c, 2, 43, 79
3, 455040, Note_on_c, 2, 67, 79
3, 455040, Note_on_c, 2, 62, 79
3, 455040, Note_on_c, 2, 55, 79
3, 455040, Note_on_c, 2, 50, 79
3, 455040, Note_on_c, 2, 46, 79
3, 455040, Note_on_c, 2, 43, 79
3, 455280, Note_off_c, 2, 67, 79
3, 455280, Note_off_c, 2, 62, 79
3, 455280, Note_off_c, 2, 55, 79
3, 455280, Note_off_c, 2, 50, 79
3, 455280, Note_off_c, 2, 46, 79
3, 455280, Note_off_c, 2, 43, 79
3, 455280, Note_on_c, 2, 67, 79
3, 455280, Note_on_c, 2, 62, 79
3, 455280, Note_on_c, 2, 55, 79
3, 455280, Note_on_c, 2, 50, 79
3, 455280, Note_on_c, 2, 46, 79
3, 455280, Note_on_c, 2, 43, 79
3, 455520, Note_off_c, 2, 67, 79
3, 455520, Note_off_c, 2, 62, 79
3, 455520, Note_off_c, 2, 55, 79
3, 455520, Note_off_c, 2, 50, 79
3, 455520, Note_off_c, 2, 46, 79
3, 455520, Note_off_c, 2, 43, 79
3, 455520, Note_on_c, 2, 67, 79
3, 455520, Note_on_c, 2, 62, 79
3, 455520, Note_on_c, 2, 55, 79
3, 455520, Note_on_c, 2, 50, 79
3, 455520, Note_on_c, 2, 46, 79
3, 455520, Note_on_c, 2, 43, 79
3, 455760, Note_off_c, 2, 67, 79
3, 455760, Note_off_c, 2, 62, 79
3, 455760, Note_off_c, 2, 55, 79
3, 455760, Note_off_c, 2, 50, 79
3, 455760, Note_off_c, 2, 46, 79
3, 455760, Note_off_c, 2, 43, 79
3, 455760, Note_on_c, 2, 67, 79
3, 455760, Note_on_c, 2, 62, 79
3, 455760, Note_on_c, 2, 55, 79
3, 455760, Note_on_c, 2, 50, 79
3, 455760, Note_on_c, 2, 46, 79
3, 455760, Note_on_c, 2, 43, 79
3, 456000, Note_off_c, 2, 67, 79
3, 456000, Note_off_c, 2, 62, 79
3, 456000, Note_off_c, 2, 55, 79
3, 456000, Note_off_c, 2, 50, 79
3, 456000, Note_off_c, 2, 46, 79
3, 456000, Note_off_c, 2, 43, 79
3, 456000, Note_on_c, 2, 67, 79
3, 456000, Note_on_c, 2, 62, 79
3, 456000, Note_on_c, 2, 55, 79
3, 456000, Note_on_c, 2, 50, 79
3, 456000, Note_on_c, 2, 46, 79
3, 456000, Note_on_c, 2, 43, 79
3, 456240, Note_off_c, 2, 67, 79
3, 456240, Note_off_c, 2, 62, 79
3, 456240, Note_off_c, 2, 55, 79
3, 456240, Note_off_c, 2, 50, 79
3, 456240, Note_off_c, 2, 46, 79
3, 456240, Note_off_c, 2, 43, 79
3, 456240, Note_on_c, 2, 67, 79
3, 456240, Note_on_c, 2, 62, 79
3, 456240, Note_on_c, 2, 55, 79
3, 456240, Note_on_c, 2, 50, 79
3, 456240, Note_on_c, 2, 46, 79
3, 456240, Note_on_c, 2, 43, 79
3, 456480, Note_off_c, 2, 67, 79
3, 456480, Note_off_c, 2, 62, 79
3, 456480, Note_off_c, 2, 55, 79
3, 456480, Note_off_c, 2, 50, 79
3, 456480, Note_off_c, 2, 46, 79
3, 456480, Note_off_c, 2, 43, 79
3, 456480, Note_on_c, 2, 67, 79
3, 456480, Note_on_c, 2, 62, 79
3, 456480, Note_on_c, 2, 55, 79
3, 456480, Note_on_c, 2, 50, 79
3, 456480, Note_on_c, 2, 46, 79
3, 456480, Note_on_c, 2, 43, 79
3, 456720, Note_off_c, 2, 67, 79
3, 456720, Note_off_c, 2, 62, 79
3, 456720, Note_off_c, 2, 55, 79
3, 456720, Note_off_c, 2, 50, 79
3, 456720, Note_off_c, 2, 46, 79
3, 456720, Note_off_c, 2, 43, 79
3, 456720, Note_on_c, 2, 67, 79
3, 456720, Note_on_c, 2, 62, 79
3, 456720, Note_on_c, 2, 55, 79
3, 456720, Note_on_c, 2, 50, 79
3, 456720, Note_on_c, 2, 46, 79
3, 456720, Note_on_c, 2, 43, 79
3, 456960, Note_off_c, 2, 67, 79
3, 456960, Note_off_c, 2, 62, 79
3, 456960, Note_off_c, 2, 55, 79
3, 456960, Note_off_c, 2, 50, 79
3, 456960, Note_off_c, 2, 46, 79
3, 456960, Note_off_c, 2, 43, 79
3, 456960, Note_on_c, 2, 67, 79
3, 456960, Note_on_c, 2, 62, 79
3, 456960, Note_on_c, 2, 55, 79
3, 456960, Note_on_c, 2, 50, 79
3, 456960, Note_on_c, 2, 46, 79
3, 456960, Note_on_c, 2, 43, 79
3, 457440, Note_off_c, 2, 67, 79
3, 457440, Note_off_c, 2, 62, 79
3, 457440, Note_off_c, 2, 55, 79
3, 457440, Note_off_c, 2, 50, 79
3, 457440, Note_off_c, 2, 46, 79
3, 457440, Note_off_c, 2, 43, 79
3, 457440, Note_on_c, 2, 67, 79
3, 457440, Note_on_c, 2, 62, 79
3, 457440, Note_on_c, 2, 55, 79
3, 457440, Note_on_c, 2, 50, 79
3, 457440, Note_on_c, 2, 46, 79
3, 457440, Note_on_c, 2, 43, 79
3, 457680, Note_off_c, 2, 67, 79
3, 457680, Note_off_c, 2, 62, 79
3, 457680, Note_off_c, 2, 55, 79
3, 457680, Note_off_c, 2, 50, 79
3, 457680, Note_off_c, 2, 46, 79
3, 457680, Note_off_c, 2, 43, 79
3, 457680, Note_on_c, 2, 67, 79
3, 457680, Note_on_c, 2, 62, 79
3, 457680, Note_on_c, 2, 55, 79
3, 457680, Note_on_c, 2, 50, 79
3, 457680, Note_on_c, 2, 46, 79
3, 457680, Note_on_c, 2, 43, 79
3, 457920, Note_off_c, 2, 67, 79
3, 457920, Note_off_c, 2, 62, 79
3, 457920, Note_off_c, 2, 55, 79
3, 457920, Note_off_c, 2, 50, 79
3, 457920, Note_off_c, 2, 46, 79
3, 457920, Note_off_c, 2, 43, 79
3, 457920, Note_on_c, 2, 67, 79
3, 457920, Note_on_c, 2, 62, 79
3, 457920, Note_on_c, 2, 55, 79
3, 457920, Note_on_c, 2, 50, 79
3, 457920, Note_on_c, 2, 46, 79
3, 457920, Note_on_c, 2, 43, 79
3, 458400, Note_off_c, 2, 67, 79
3, 458400, Note_off_c, 2, 62, 79
3, 458400, Note_off_c, 2, 55, 79
3, 458400, Note_off_c, 2, 50, 79
3, 458400, Note_off_c, 2, 46, 79
3, 458400, Note_off_c, 2, 43, 79
3, 458400, Note_on_c, 2, 67, 79
3, 458400, Note_on_c, 2, 62, 79
3, 458400, Note_on_c, 2, 55, 79
3, 458400, Note_on_c, 2, 50, 79
3, 458400, Note_on_c, 2, 46, 79
3, 458400, Note_on_c, 2, 43, 79
3, 458640, Note_off_c, 2, 67, 79
3, 458640, Note_off_c, 2, 62, 79
3, 458640, Note_off_c, 2, 55, 79
3, 458640, Note_off_c, 2, 50, 79
3, 458640, Note_off_c, 2, 46, 79
3, 458640, Note_off_c, 2, 43, 79
3, 458640, Note_on_c, 2, 67, 79
3, 458640, Note_on_c, 2, 62, 79
3, 458640, Note_on_c, 2, 55, 79
3, 458640, Note_on_c, 2, 50, 79
3, 458640, Note_on_c, 2, 46, 79
3, 458640, Note_on_c, 2, 43, 79
3, 458880, Note_off_c, 2, 67, 79
3, 458880, Note_off_c, 2, 62, 79
3, 458880, Note_off_c, 2, 55, 79
3, 458880, Note_off_c, 2, 50, 79
3, 458880, Note_off_c, 2, 46, 79
3, 458880, Note_off_c, 2, 43, 79
3, 458880, Note_on_c, 2, 67, 79
3, 458880, Note_on_c, 2, 62, 79
3, 458880, Note_on_c, 2, 55, 79
3, 458880, Note_on_c, 2, 50, 79
3, 458880, Note_on_c, 2, 46, 79
3, 458880, Note_on_c, 2, 43, 79
3, 459120, Note_off_c, 2, 67, 79
3, 459120, Note_off_c, 2, 62, 79
3, 459120, Note_off_c, 2, 55, 79
3, 459120, Note_off_c, 2, 50, 79
3, 459120, Note_off_c, 2, 46, 79
3, 459120, Note_off_c, 2, 43, 79
3, 459120, Note_on_c, 2, 67, 79
3, 459120, Note_on_c, 2, 62, 79
3, 459120, Note_on_c, 2, 55, 79
3, 459120, Note_on_c, 2, 50, 79
3, 459120, Note_on_c, 2, 46, 79
3, 459120, Note_on_c, 2, 43, 79
3, 459360, Note_off_c, 2, 67, 79
3, 459360, Note_off_c, 2, 62, 79
3, 459360, Note_off_c, 2, 55, 79
3, 459360, Note_off_c, 2, 50, 79
3, 459360, Note_off_c, 2, 46, 79
3, 459360, Note_off_c, 2, 43, 79
3, 459360, Note_on_c, 2, 67, 79
3, 459360, Note_on_c, 2, 62, 79
3, 459360, Note_on_c, 2, 55, 79
3, 459360, Note_on_c, 2, 50, 79
3, 459360, Note_on_c, 2, 46, 79
3, 459360, Note_on_c, 2, 43, 79
3, 459600, Note_off_c, 2, 67, 79
3, 459600, Note_off_c, 2, 62, 79
3, 459600, Note_off_c, 2, 55, 79
3, 459600, Note_off_c, 2, 50, 79
3, 459600, Note_off_c, 2, 46, 79
3, 459600, Note_off_c, 2, 43, 79
3, 459600, Note_on_c, 2, 67, 79
3, 459600, Note_on_c, 2, 62, 79
3, 459600, Note_on_c, 2, 55, 79
3, 459600, Note_on_c, 2, 50, 79
3, 459600, Note_on_c, 2, 46, 79
3, 459600, Note_on_c, 2, 43, 79
3, 459840, Note_off_c, 2, 67, 79
3, 459840, Note_off_c, 2, 62, 79
3, 459840, Note_off_c, 2, 55, 79
3, 459840, Note_off_c, 2, 50, 79
3, 459840, Note_off_c, 2, 46, 79
3, 459840, Note_off_c, 2, 43, 79
3, 459840, Note_on_c, 2, 67, 79
3, 459840, Note_on_c, 2, 62, 79
3, 459840, Note_on_c, 2, 55, 79
3, 459840, Note_on_c, 2, 50, 79
3, 459840, Note_on_c, 2, 46, 79
3, 459840, Note_on_c, 2, 43, 79
3, 460080, Note_off_c, 2, 67, 79
3, 460080, Note_off_c, 2, 62, 79
3, 460080, Note_off_c, 2, 55, 79
3, 460080, Note_off_c, 2, 50, 79
3, 460080, Note_off_c, 2, 46, 79
3, 460080, Note_off_c, 2, 43, 79
3, 460080, Note_on_c, 2, 67, 79
3, 460080, Note_on_c, 2, 62, 79
3, 460080, Note_on_c, 2, 55, 79
3, 460080, Note_on_c, 2, 50, 79
3, 460080, Note_on_c, 2, 46, 79
3, 460080, Note_on_c, 2, 43, 79
3, 460320, Note_off_c, 2, 67, 79
3, 460320, Note_off_c, 2, 62, 79
3, 460320, Note_off_c, 2, 55, 79
3, 460320, Note_off_c, 2, 50, 79
3, 460320, Note_off_c, 2, 46, 79
3, 460320, Note_off_c, 2, 43, 79
3, 460320, Note_on_c, 2, 67, 79
3, 460320, Note_on_c, 2, 62, 79
3, 460320, Note_on_c, 2, 55, 79
3, 460320, Note_on_c, 2, 50, 79
3, 460320, Note_on_c, 2, 46, 79
3, 460320, Note_on_c, 2, 43, 79
3, 460560, Note_off_c, 2, 67, 79
3, 460560, Note_off_c, 2, 62, 79
3, 460560, Note_off_c, 2, 55, 79
3, 460560, Note_off_c, 2, 50, 79
3, 460560, Note_off_c, 2, 46, 79
3, 460560, Note_off_c, 2, 43, 79
3, 460560, Note_on_c, 2, 67, 79
3, 460560, Note_on_c, 2, 62, 79
3, 460560, Note_on_c, 2, 55, 79
3, 460560, Note_on_c, 2, 50, 79
3, 460560, Note_on_c, 2, 46, 79
3, 460560, Note_on_c, 2, 43, 79
3, 460800, Note_off_c, 2, 67, 79
3, 460800, Note_off_c, 2, 62, 79
3, 460800, Note_off_c, 2, 55, 79
3, 460800, Note_off_c, 2, 50, 79
3, 460800, Note_off_c, 2, 46, 79
3, 460800, Note_off_c, 2, 43, 79
3, 460800, Note_on_c, 2, 67, 79
3, 460800, Note_on_c, 2, 62, 79
3, 460800, Note_on_c, 2, 55, 79
3, 460800, Note_on_c, 2, 50, 79
3, 460800, Note_on_c, 2, 46, 79
3, 460800, Note_on_c, 2, 43, 79
3, 461280, Note_off_c, 2, 67, 79
3, 461280, Note_off_c, 2, 62, 79
3, 461280, Note_off_c, 2, 55, 79
3, 461280, Note_off_c, 2, 50, 79
3, 461280, Note_off_c, 2, 46, 79
3, 461280, Note_off_c, 2, 43, 79
3, 461280, Note_on_c, 2, 67, 79
3, 461280, Note_on_c, 2, 62, 79
3, 461280, Note_on_c, 2, 55, 79
3, 461280, Note_on_c, 2, 50, 79
3, 461280, Note_on_c, 2, 46, 79
3, 461280, Note_on_c, 2, 43, 79
3, 461520, Note_off_c, 2, 67, 79
3, 461520, Note_off_c, 2, 62, 79
3, 461520, Note_off_c, 2, 55, 79
3, 461520, Note_off_c, 2, 50, 79
3, 461520, Note_off_c, 2, 46, 79
3, 461520, Note_off_c, 2, 43, 79
3, 461520, Note_on_c, 2, 67, 79
3, 461520, Note_on_c, 2, 62, 79
3, 461520, Note_on_c, 2, 55, 79
3, 461520, Note_on_c, 2, 50, 79
3, 461520, Note_on_c, 2, 46, 79
3, 461520, Note_on_c, 2, 43, 79
3, 461760, Note_off_c, 2, 67, 79
3, 461760, Note_off_c, 2, 62, 79
3, 461760, Note_off_c, 2, 55, 79
3, 461760, Note_off_c, 2, 50, 79
3, 461760, Note_off_c, 2, 46, 79
3, 461760, Note_off_c, 2, 43, 79
3, 461760, Note_on_c, 2, 67, 79
3, 461760, Note_on_c, 2, 62, 79
3, 461760, Note_on_c, 2, 55, 79
3, 461760, Note_on_c, 2, 50, 79
3, 461760, Note_on_c, 2, 46, 79
3, 461760, Note_on_c, 2, 43, 79
3, 462240, Note_off_c, 2, 67, 79
3, 462240, Note_off_c, 2, 62, 79
3, 462240, Note_off_c, 2, 55, 79
3, 462240, Note_off_c, 2, 50, 79
3, 462240, Note_off_c, 2, 46, 79
3, 462240, Note_off_c, 2, 43, 79
3, 462240, Note_on_c, 2, 67, 79
3, 462240, Note_on_c, 2, 62, 79
3, 462240, Note_on_c, 2, 55, 79
3, 462240, Note_on_c, 2, 50, 79
3, 462240, Note_on_c, 2, 46, 79
3, 462240, Note_on_c, 2, 43, 79
3, 462480, Note_off_c, 2, 67, 79
3, 462480, Note_off_c, 2, 62, 79
3, 462480, Note_off_c, 2, 55, 79
3, 462480, Note_off_c, 2, 50, 79
3, 462480, Note_off_c, 2, 46, 79
3, 462480, Note_off_c, 2, 43, 79
3, 462480, Note_on_c, 2, 67, 79
3, 462480, Note_on_c, 2, 62, 79
3, 462480, Note_on_c, 2, 55, 79
3, 462480, Note_on_c, 2, 50, 79
3, 462480, Note_on_c, 2, 46, 79
3, 462480, Note_on_c, 2, 43, 79
3, 462720, Note_off_c, 2, 67, 79
3, 462720, Note_off_c, 2, 62, 79
3, 462720, Note_off_c, 2, 55, 79
3, 462720, Note_off_c, 2, 50, 79
3, 462720, Note_off_c, 2, 46, 79
3, 462720, Note_off_c, 2, 43, 79
3, 462720, Note_on_c, 2, 67, 79
3, 462720, Note_on_c, 2, 62, 79
3, 462720, Note_on_c, 2, 55, 79
3, 462720, Note_on_c, 2, 50, 79
3, 462720, Note_on_c, 2, 46, 79
3, 462720, Note_on_c, 2, 43, 79
3, 462960, Note_off_c, 2, 67, 79
3, 462960, Note_off_c, 2, 62, 79
3, 462960, Note_off_c, 2, 55, 79
3, 462960, Note_off_c, 2, 50, 79
3, 462960, Note_off_c, 2, 46, 79
3, 462960, Note_off_c, 2, 43, 79
3, 462960, Note_on_c, 2, 67, 79
3, 462960, Note_on_c, 2, 62, 79
3, 462960, Note_on_c, 2, 55, 79
3, 462960, Note_on_c, 2, 50, 79
3, 462960, Note_on_c, 2, 46, 79
3, 462960, Note_on_c, 2, 43, 79
3, 463200, Note_off_c, 2, 67, 79
3, 463200, Note_off_c, 2, 62, 79
3, 463200, Note_off_c, 2, 55, 79
3, 463200, Note_off_c, 2, 50, 79
3, 463200, Note_off_c, 2, 46, 79
3, 463200, Note_off_c, 2, 43, 79
3, 463200, Note_on_c, 2, 67, 79
3, 463200, Note_on_c, 2, 62, 79
3, 463200, Note_on_c, 2, 55, 79
3, 463200, Note_on_c, 2, 50, 79
3, 463200, Note_on_c, 2, 46, 79
3, 463200, Note_on_c, 2, 43, 79
3, 463440, Note_off_c, 2, 67, 79
3, 463440, Note_off_c, 2, 62, 79
3, 463440, Note_off_c, 2, 55, 79
3, 463440, Note_off_c, 2, 50, 79
3, 463440, Note_off_c, 2, 46, 79
3, 463440, Note_off_c, 2, 43, 79
3, 463440, Note_on_c, 2, 67, 79
3, 463440, Note_on_c, 2, 62, 79
3, 463440, Note_on_c, 2, 55, 79
3, 463440, Note_on_c, 2, 50, 79
3, 463440, Note_on_c, 2, 46, 79
3, 463440, Note_on_c, 2, 43, 79
3, 463680, Note_off_c, 2, 67, 79
3, 463680, Note_off_c, 2, 62, 79
3, 463680, Note_off_c, 2, 55, 79
3, 463680, Note_off_c, 2, 50, 79
3, 463680, Note_off_c, 2, 46, 79
3, 463680, Note_off_c, 2, 43, 79
3, 463680, Note_on_c, 2, 67, 79
3, 463680, Note_on_c, 2, 62, 79
3, 463680, Note_on_c, 2, 55, 79
3, 463680, Note_on_c, 2, 50, 79
3, 463680, Note_on_c, 2, 46, 79
3, 463680, Note_on_c, 2, 43, 79
3, 463920, Note_off_c, 2, 67, 79
3, 463920, Note_off_c, 2, 62, 79
3, 463920, Note_off_c, 2, 55, 79
3, 463920, Note_off_c, 2, 50, 79
3, 463920, Note_off_c, 2, 46, 79
3, 463920, Note_off_c, 2, 43, 79
3, 463920, Note_on_c, 2, 67, 79
3, 463920, Note_on_c, 2, 62, 79
3, 463920, Note_on_c, 2, 55, 79
3, 463920, Note_on_c, 2, 50, 79
3, 463920, Note_on_c, 2, 46, 79
3, 463920, Note_on_c, 2, 43, 79
3, 464160, Note_off_c, 2, 67, 79
3, 464160, Note_off_c, 2, 62, 79
3, 464160, Note_off_c, 2, 55, 79
3, 464160, Note_off_c, 2, 50, 79
3, 464160, Note_off_c, 2, 46, 79
3, 464160, Note_off_c, 2, 43, 79
3, 464160, Note_on_c, 2, 67, 79
3, 464160, Note_on_c, 2, 62, 79
3, 464160, Note_on_c, 2, 55, 79
3, 464160, Note_on_c, 2, 50, 79
3, 464160, Note_on_c, 2, 46, 79
3, 464160, Note_on_c, 2, 43, 79
3, 464400, Note_off_c, 2, 67, 79
3, 464400, Note_off_c, 2, 62, 79
3, 464400, Note_off_c, 2, 55, 79
3, 464400, Note_off_c, 2, 50, 79
3, 464400, Note_off_c, 2, 46, 79
3, 464400, Note_off_c, 2, 43, 79
3, 464400, Note_on_c, 2, 67, 79
3, 464400, Note_on_c, 2, 62, 79
3, 464400, Note_on_c, 2, 55, 79
3, 464400, Note_on_c, 2, 50, 79
3, 464400, Note_on_c, 2, 46, 79
3, 464400, Note_on_c, 2, 43, 79
3, 464640, Note_off_c, 2, 67, 79
3, 464640, Note_off_c, 2, 62, 79
3, 464640, Note_off_c, 2, 55, 79
3, 464640, Note_off_c, 2, 50, 79
3, 464640, Note_off_c, 2, 46, 79
3, 464640, Note_off_c, 2, 43, 79
3, 464640, Note_on_c, 2, 65, 79
3, 464640, Note_on_c, 2, 62, 79
3, 464640, Note_on_c, 2, 58, 79
3, 464640, Note_on_c, 2, 50, 79
3, 464640, Note_on_c, 2, 46, 79
3, 465120, Note_off_c, 2, 65, 79
3, 465120, Note_off_c, 2, 62, 79
3, 465120, Note_off_c, 2, 58, 79
3, 465120, Note_off_c, 2, 50, 79
3, 465120, Note_off_c, 2, 46, 79
3, 465120, Note_on_c, 2, 65, 79
3, 465120, Note_on_c, 2, 62, 79
3, 465120, Note_on_c, 2, 58, 79
3, 465120, Note_on_c, 2, 50, 79
3, 465120, Note_on_c, 2, 46, 79
3, 465360, Note_off_c, 2, 65, 79
3, 465360, Note_off_c, 2, 62, 79
3, 465360, Note_off_c, 2, 58, 79
3, 465360, Note_off_c, 2, 50, 79
3, 465360, Note_off_c, 2, 46, 79
3, 465360, Note_on_c, 2, 65, 79
3, 465360, Note_on_c, 2, 62, 79
3, 465360, Note_on_c, 2, 58, 79
3, 465360, Note_on_c, 2, 50, 79
3, 465360, Note_on_c, 2, 46, 79
3, 465600, Note_off_c, 2, 65, 79
3, 465600, Note_off_c, 2, 62, 79
3, 465600, Note_off_c, 2, 58, 79
3, 465600, Note_off_c, 2, 50, 79
3, 465600, Note_off_c, 2, 46, 79
3, 465600, Note_on_c, 2, 65, 79
3, 465600, Note_on_c, 2, 62, 79
3, 465600, Note_on_c, 2, 58, 79
3, 465600, Note_on_c, 2, 50, 79
3, 465600, Note_on_c, 2, 46, 79
3, 466080, Note_off_c, 2, 65, 79
3, 466080, Note_off_c, 2, 62, 79
3, 466080, Note_off_c, 2, 58, 79
3, 466080, Note_off_c, 2, 50, 79
3, 466080, Note_off_c, 2, 46, 79
3, 466080, Note_on_c, 2, 65, 79
3, 466080, Note_on_c, 2, 62, 79
3, 466080, Note_on_c, 2, 58, 79
3, 466080, Note_on_c, 2, 50, 79
3, 466080, Note_on_c, 2, 46, 79
3, 466320, Note_off_c, 2, 65, 79
3, 466320, Note_off_c, 2, 62, 79
3, 466320, Note_off_c, 2, 58, 79
3, 466320, Note_off_c, 2, 50, 79
3, 466320, Note_off_c, 2, 46, 79
3, 466320, Note_on_c, 2, 65, 79
3, 466320, Note_on_c, 2, 62, 79
3, 466320, Note_on_c, 2, 58, 79
3, 466320, Note_on_c, 2, 50, 79
3, 466320, Note_on_c, 2, 46, 79
3, 466560, Note_off_c, 2, 65, 79
3, 466560, Note_off_c, 2, 62, 79
3, 466560, Note_off_c, 2, 58, 79
3, 466560, Note_off_c, 2, 50, 79
3, 466560, Note_off_c, 2, 46, 79
3, 466560, Note_on_c, 2, 65, 79
3, 466560, Note_on_c, 2, 62, 79
3, 466560, Note_on_c, 2, 58, 79
3, 466560, Note_on_c, 2, 50, 79
3, 466560, Note_on_c, 2, 46, 79
3, 466800, Note_off_c, 2, 65, 79
3, 466800, Note_off_c, 2, 62, 79
3, 466800, Note_off_c, 2, 58, 79
3, 466800, Note_off_c, 2, 50, 79
3, 466800, Note_off_c, 2, 46, 79
3, 466800, Note_on_c, 2, 65, 79
3, 466800, Note_on_c, 2, 62, 79
3, 466800, Note_on_c, 2, 58, 79
3, 466800, Note_on_c, 2, 50, 79
3, 466800, Note_on_c, 2, 46, 79
3, 467040, Note_off_c, 2, 65, 79
3, 467040, Note_off_c, 2, 62, 79
3, 467040, Note_off_c, 2, 58, 79
3, 467040, Note_off_c, 2, 50, 79
3, 467040, Note_off_c, 2, 46, 79
3, 467040, Note_on_c, 2, 65, 79
3, 467040, Note_on_c, 2, 62, 79
3, 467040, Note_on_c, 2, 58, 79
3, 467040, Note_on_c, 2, 50, 79
3, 467040, Note_on_c, 2, 46, 79
3, 467280, Note_off_c, 2, 65, 79
3, 467280, Note_off_c, 2, 62, 79
3, 467280, Note_off_c, 2, 58, 79
3, 467280, Note_off_c, 2, 50, 79
3, 467280, Note_off_c, 2, 46, 79
3, 467280, Note_on_c, 2, 65, 79
3, 467280, Note_on_c, 2, 62, 79
3, 467280, Note_on_c, 2, 58, 79
3, 467280, Note_on_c, 2, 50, 79
3, 467280, Note_on_c, 2, 46, 79
3, 467520, Note_off_c, 2, 65, 79
3, 467520, Note_off_c, 2, 62, 79
3, 467520, Note_off_c, 2, 58, 79
3, 467520, Note_off_c, 2, 50, 79
3, 467520, Note_off_c, 2, 46, 79
3, 467520, Note_on_c, 2, 65, 79
3, 467520, Note_on_c, 2, 62, 79
3, 467520, Note_on_c, 2, 58, 79
3, 467520, Note_on_c, 2, 50, 79
3, 467520, Note_on_c, 2, 46, 79
3, 467760, Note_off_c, 2, 65, 79
3, 467760, Note_off_c, 2, 62, 79
3, 467760, Note_off_c, 2, 58, 79
3, 467760, Note_off_c, 2, 50, 79
3, 467760, Note_off_c, 2, 46, 79
3, 467760, Note_on_c, 2, 65, 79
3, 467760, Note_on_c, 2, 62, 79
3, 467760, Note_on_c, 2, 58, 79
3, 467760, Note_on_c, 2, 50, 79
3, 467760, Note_on_c, 2, 46, 79
3, 468000, Note_off_c, 2, 65, 79
3, 468000, Note_off_c, 2, 62, 79
3, 468000, Note_off_c, 2, 58, 79
3, 468000, Note_off_c, 2, 50, 79
3, 468000, Note_off_c, 2, 46, 79
3, 468480, Note_on_c, 2, 67, 79
3, 468480, Note_on_c, 2, 62, 79
3, 468480, Note_on_c, 2, 55, 79
3, 468480, Note_on_c, 2, 50, 79
3, 468480, Note_on_c, 2, 46, 79
3, 468480, Note_on_c, 2, 43, 79
3, 468960, Note_off_c, 2, 67, 79
3, 468960, Note_off_c, 2, 62, 79
3, 468960, Note_off_c, 2, 55, 79
3, 468960, Note_off_c, 2, 50, 79
3, 468960, Note_off_c, 2, 46, 79
3, 468960, Note_off_c, 2, 43, 79
3, 468960, Note_on_c, 2, 67, 79
3, 468960, Note_on_c, 2, 62, 79
3, 468960, Note_on_c, 2, 55, 79
3, 468960, Note_on_c, 2, 50, 79
3, 468960, Note_on_c, 2, 46, 79
3, 468960, Note_on_c, 2, 43, 79
3, 469200, Note_off_c, 2, 67, 79
3, 469200, Note_off_c, 2, 62, 79
3, 469200, Note_off_c, 2, 55, 79
3, 469200, Note_off_c, 2, 50, 79
3, 469200, Note_off_c, 2, 46, 79
3, 469200, Note_off_c, 2, 43, 79
3, 469200, Note_on_c, 2, 67, 79
3, 469200, Note_on_c, 2, 62, 79
3, 469200, Note_on_c, 2, 55, 79
3, 469200, Note_on_c, 2, 50, 79
3, 469200, Note_on_c, 2, 46, 79
3, 469200, Note_on_c, 2, 43, 79
3, 469440, Note_off_c, 2, 67, 79
3, 469440, Note_off_c, 2, 62, 79
3, 469440, Note_off_c, 2, 55, 79
3, 469440, Note_off_c, 2, 50, 79
3, 469440, Note_off_c, 2, 46, 79
3, 469440, Note_off_c, 2, 43, 79
3, 469440, Note_on_c, 2, 67, 79
3, 469440, Note_on_c, 2, 62, 79
3, 469440, Note_on_c, 2, 55, 79
3, 469440, Note_on_c, 2, 50, 79
3, 469440, Note_on_c, 2, 46, 79
3, 469440, Note_on_c, 2, 43, 79
3, 469920, Note_off_c, 2, 67, 79
3, 469920, Note_off_c, 2, 62, 79
3, 469920, Note_off_c, 2, 55, 79
3, 469920, Note_off_c, 2, 50, 79
3, 469920, Note_off_c, 2, 46, 79
3, 469920, Note_off_c, 2, 43, 79
3, 469920, Note_on_c, 2, 67, 79
3, 469920, Note_on_c, 2, 62, 79
3, 469920, Note_on_c, 2, 55, 79
3, 469920, Note_on_c, 2, 50, 79
3, 469920, Note_on_c, 2, 46, 79
3, 469920, Note_on_c, 2, 43, 79
3, 470160, Note_off_c, 2, 67, 79
3, 470160, Note_off_c, 2, 62, 79
3, 470160, Note_off_c, 2, 55, 79
3, 470160, Note_off_c, 2, 50, 79
3, 470160, Note_off_c, 2, 46, 79
3, 470160, Note_off_c, 2, 43, 79
3, 470160, Note_on_c, 2, 67, 79
3, 470160, Note_on_c, 2, 62, 79
3, 470160, Note_on_c, 2, 55, 79
3, 470160, Note_on_c, 2, 50, 79
3, 470160, Note_on_c, 2, 46, 79
3, 470160, Note_on_c, 2, 43, 79
3, 470400, Note_off_c, 2, 67, 79
3, 470400, Note_off_c, 2, 62, 79
3, 470400, Note_off_c, 2, 55, 79
3, 470400, Note_off_c, 2, 50, 79
3, 470400, Note_off_c, 2, 46, 79
3, 470400, Note_off_c, 2, 43, 79
3, 470400, Note_on_c, 2, 67, 79
3, 470400, Note_on_c, 2, 62, 79
3, 470400, Note_on_c, 2, 55, 79
3, 470400, Note_on_c, 2, 50, 79
3, 470400, Note_on_c, 2, 46, 79
3, 470400, Note_on_c, 2, 43, 79
3, 470640, Note_off_c, 2, 67, 79
3, 470640, Note_off_c, 2, 62, 79
3, 470640, Note_off_c, 2, 55, 79
3, 470640, Note_off_c, 2, 50, 79
3, 470640, Note_off_c, 2, 46, 79
3, 470640, Note_off_c, 2, 43, 79
3, 470640, Note_on_c, 2, 67, 79
3, 470640, Note_on_c, 2, 62, 79
3, 470640, Note_on_c, 2, 55, 79
3, 470640, Note_on_c, 2, 50, 79
3, 470640, Note_on_c, 2, 46, 79
3, 470640, Note_on_c, 2, 43, 79
3, 470880, Note_off_c, 2, 67, 79
3, 470880, Note_off_c, 2, 62, 79
3, 470880, Note_off_c, 2, 55, 79
3, 470880, Note_off_c, 2, 50, 79
3, 470880, Note_off_c, 2, 46, 79
3, 470880, Note_off_c, 2, 43, 79
3, 470880, Note_on_c, 2, 67, 79
3, 470880, Note_on_c, 2, 62, 79
3, 470880, Note_on_c, 2, 55, 79
3, 470880, Note_on_c, 2, 50, 79
3, 470880, Note_on_c, 2, 46, 79
3, 470880, Note_on_c, 2, 43, 79
3, 471120, Note_off_c, 2, 67, 79
3, 471120, Note_off_c, 2, 62, 79
3, 471120, Note_off_c, 2, 55, 79
3, 471120, Note_off_c, 2, 50, 79
3, 471120, Note_off_c, 2, 46, 79
3, 471120, Note_off_c, 2, 43, 79
3, 471120, Note_on_c, 2, 67, 79
3, 471120, Note_on_c, 2, 62, 79
3, 471120, Note_on_c, 2, 55, 79
3, 471120, Note_on_c, 2, 50, 79
3, 471120, Note_on_c, 2, 46, 79
3, 471120, Note_on_c, 2, 43, 79
3, 471360, Note_off_c, 2, 67, 79
3, 471360, Note_off_c, 2, 62, 79
3, 471360, Note_off_c, 2, 55, 79
3, 471360, Note_off_c, 2, 50, 79
3, 471360, Note_off_c, 2, 46, 79
3, 471360, Note_off_c, 2, 43, 79
3, 471360, Note_on_c, 2, 67, 79
3, 471360, Note_on_c, 2, 62, 79
3, 471360, Note_on_c, 2, 55, 79
3, 471360, Note_on_c, 2, 50, 79
3, 471360, Note_on_c, 2, 46, 79
3, 471360, Note_on_c, 2, 43, 79
3, 471600, Note_off_c, 2, 67, 79
3, 471600, Note_off_c, 2, 62, 79
3, 471600, Note_off_c, 2, 55, 79
3, 471600, Note_off_c, 2, 50, 79
3, 471600, Note_off_c, 2, 46, 79
3, 471600, Note_off_c, 2, 43, 79
3, 471600, Note_on_c, 2, 67, 79
3, 471600, Note_on_c, 2, 62, 79
3, 471600, Note_on_c, 2, 55, 79
3, 471600, Note_on_c, 2, 50, 79
3, 471600, Note_on_c, 2, 46, 79
3, 471600, Note_on_c, 2, 43, 79
3, 471840, Note_off_c, 2, 67, 79
3, 471840, Note_off_c, 2, 62, 79
3, 471840, Note_off_c, 2, 55, 79
3, 471840, Note_off_c, 2, 50, 79
3, 471840, Note_off_c, 2, 46, 79
3, 471840, Note_off_c, 2, 43, 79
3, 471840, Note_on_c, 2, 67, 79
3, 471840, Note_on_c, 2, 62, 79
3, 471840, Note_on_c, 2, 55, 79
3, 471840, Note_on_c, 2, 50, 79
3, 471840, Note_on_c, 2, 46, 79
3, 471840, Note_on_c, 2, 43, 79
3, 472080, Note_off_c, 2, 67, 79
3, 472080, Note_off_c, 2, 62, 79
3, 472080, Note_off_c, 2, 55, 79
3, 472080, Note_off_c, 2, 50, 79
3, 472080, Note_off_c, 2, 46, 79
3, 472080, Note_off_c, 2, 43, 79
3, 472080, Note_on_c, 2, 67, 79
3, 472080, Note_on_c, 2, 62, 79
3, 472080, Note_on_c, 2, 55, 79
3, 472080, Note_on_c, 2, 50, 79
3, 472080, Note_on_c, 2, 46, 79
3, 472080, Note_on_c, 2, 43, 79
3, 472320, Note_off_c, 2, 67, 79
3, 472320, Note_off_c, 2, 62, 79
3, 472320, Note_off_c, 2, 55, 79
3, 472320, Note_off_c, 2, 50, 79
3, 472320, Note_off_c, 2, 46, 79
3, 472320, Note_off_c, 2, 43, 79
3, 472320, Note_on_c, 2, 67, 79
3, 472320, Note_on_c, 2, 62, 79
3, 472320, Note_on_c, 2, 55, 79
3, 472320, Note_on_c, 2, 50, 79
3, 472320, Note_on_c, 2, 46, 79
3, 472320, Note_on_c, 2, 43, 79
3, 472800, Note_off_c, 2, 67, 79
3, 472800, Note_off_c, 2, 62, 79
3, 472800, Note_off_c, 2, 55, 79
3, 472800, Note_off_c, 2, 50, 79
3, 472800, Note_off_c, 2, 46, 79
3, 472800, Note_off_c, 2, 43, 79
3, 472800, Note_on_c, 2, 67, 79
3, 472800, Note_on_c, 2, 62, 79
3, 472800, Note_on_c, 2, 55, 79
3, 472800, Note_on_c, 2, 50, 79
3, 472800, Note_on_c, 2, 46, 79
3, 472800, Note_on_c, 2, 43, 79
3, 473040, Note_off_c, 2, 67, 79
3, 473040, Note_off_c, 2, 62, 79
3, 473040, Note_off_c, 2, 55, 79
3, 473040, Note_off_c, 2, 50, 79
3, 473040, Note_off_c, 2, 46, 79
3, 473040, Note_off_c, 2, 43, 79
3, 473040, Note_on_c, 2, 67, 79
3, 473040, Note_on_c, 2, 62, 79
3, 473040, Note_on_c, 2, 55, 79
3, 473040, Note_on_c, 2, 50, 79
3, 473040, Note_on_c, 2, 46, 79
3, 473040, Note_on_c, 2, 43, 79
3, 473280, Note_off_c, 2, 67, 79
3, 473280, Note_off_c, 2, 62, 79
3, 473280, Note_off_c, 2, 55, 79
3, 473280, Note_off_c, 2, 50, 79
3, 473280, Note_off_c, 2, 46, 79
3, 473280, Note_off_c, 2, 43, 79
3, 473280, Note_on_c, 2, 67, 79
3, 473280, Note_on_c, 2, 62, 79
3, 473280, Note_on_c, 2, 55, 79
3, 473280, Note_on_c, 2, 50, 79
3, 473280, Note_on_c, 2, 46, 79
3, 473280, Note_on_c, 2, 43, 79
3, 473760, Note_off_c, 2, 67, 79
3, 473760, Note_off_c, 2, 62, 79
3, 473760, Note_off_c, 2, 55, 79
3, 473760, Note_off_c, 2, 50, 79
3, 473760, Note_off_c, 2, 46, 79
3, 473760, Note_off_c, 2, 43, 79
3, 473760, Note_on_c, 2, 67, 79
3, 473760, Note_on_c, 2, 62, 79
3, 473760, Note_on_c, 2, 55, 79
3, 473760, Note_on_c, 2, 50, 79
3, 473760, Note_on_c, 2, 46, 79
3, 473760, Note_on_c, 2, 43, 79
3, 474000, Note_off_c, 2, 67, 79
3, 474000, Note_off_c, 2, 62, 79
3, 474000, Note_off_c, 2, 55, 79
3, 474000, Note_off_c, 2, 50, 79
3, 474000, Note_off_c, 2, 46, 79
3, 474000, Note_off_c, 2, 43, 79
3, 474000, Note_on_c, 2, 67, 79
3, 474000, Note_on_c, 2, 62, 79
3, 474000, Note_on_c, 2, 55, 79
3, 474000, Note_on_c, 2, 50, 79
3, 474000, Note_on_c, 2, 46, 79
3, 474000, Note_on_c, 2, 43, 79
3, 474240, Note_off_c, 2, 67, 79
3, 474240, Note_off_c, 2, 62, 79
3, 474240, Note_off_c, 2, 55, 79
3, 474240, Note_off_c, 2, 50, 79
3, 474240, Note_off_c, 2, 46, 79
3, 474240, Note_off_c, 2, 43, 79
3, 474240, Note_on_c, 2, 67, 79
3, 474240, Note_on_c, 2, 62, 79
3, 474240, Note_on_c, 2, 55, 79
3, 474240, Note_on_c, 2, 50, 79
3, 474240, Note_on_c, 2, 46, 79
3, 474240, Note_on_c, 2, 43, 79
3, 474480, Note_off_c, 2, 67, 79
3, 474480, Note_off_c, 2, 62, 79
3, 474480, Note_off_c, 2, 55, 79
3, 474480, Note_off_c, 2, 50, 79
3, 474480, Note_off_c, 2, 46, 79
3, 474480, Note_off_c, 2, 43, 79
3, 474480, Note_on_c, 2, 67, 79
3, 474480, Note_on_c, 2, 62, 79
3, 474480, Note_on_c, 2, 55, 79
3, 474480, Note_on_c, 2, 50, 79
3, 474480, Note_on_c, 2, 46, 79
3, 474480, Note_on_c, 2, 43, 79
3, 474720, Note_off_c, 2, 67, 79
3, 474720, Note_off_c, 2, 62, 79
3, 474720, Note_off_c, 2, 55, 79
3, 474720, Note_off_c, 2, 50, 79
3, 474720, Note_off_c, 2, 46, 79
3, 474720, Note_off_c, 2, 43, 79
3, 474720, Note_on_c, 2, 67, 79
3, 474720, Note_on_c, 2, 62, 79
3, 474720, Note_on_c, 2, 55, 79
3, 474720, Note_on_c, 2, 50, 79
3, 474720, Note_on_c, 2, 46, 79
3, 474720, Note_on_c, 2, 43, 79
3, 474960, Note_off_c, 2, 67, 79
3, 474960, Note_off_c, 2, 62, 79
3, 474960, Note_off_c, 2, 55, 79
3, 474960, Note_off_c, 2, 50, 79
3, 474960, Note_off_c, 2, 46, 79
3, 474960, Note_off_c, 2, 43, 79
3, 474960, Note_on_c, 2, 67, 79
3, 474960, Note_on_c, 2, 62, 79
3, 474960, Note_on_c, 2, 55, 79
3, 474960, Note_on_c, 2, 50, 79
3, 474960, Note_on_c, 2, 46, 79
3, 474960, Note_on_c, 2, 43, 79
3, 475200, Note_off_c, 2, 67, 79
3, 475200, Note_off_c, 2, 62, 79
3, 475200, Note_off_c, 2, 55, 79
3, 475200, Note_off_c, 2, 50, 79
3, 475200, Note_off_c, 2, 46, 79
3, 475200, Note_off_c, 2, 43, 79
3, 475200, Note_on_c, 2, 67, 79
3, 475200, Note_on_c, 2, 62, 79
3, 475200, Note_on_c, 2, 55, 79
3, 475200, Note_on_c, 2, 50, 79
3, 475200, Note_on_c, 2, 46, 79
3, 475200, Note_on_c, 2, 43, 79
3, 475440, Note_off_c, 2, 67, 79
3, 475440, Note_off_c, 2, 62, 79
3, 475440, Note_off_c, 2, 55, 79
3, 475440, Note_off_c, 2, 50, 79
3, 475440, Note_off_c, 2, 46, 79
3, 475440, Note_off_c, 2, 43, 79
3, 475440, Note_on_c, 2, 67, 79
3, 475440, Note_on_c, 2, 62, 79
3, 475440, Note_on_c, 2, 55, 79
3, 475440, Note_on_c, 2, 50, 79
3, 475440, Note_on_c, 2, 46, 79
3, 475440, Note_on_c, 2, 43, 79
3, 475680, Note_off_c, 2, 67, 79
3, 475680, Note_off_c, 2, 62, 79
3, 475680, Note_off_c, 2, 55, 79
3, 475680, Note_off_c, 2, 50, 79
3, 475680, Note_off_c, 2, 46, 79
3, 475680, Note_off_c, 2, 43, 79
3, 475680, Note_on_c, 2, 67, 79
3, 475680, Note_on_c, 2, 62, 79
3, 475680, Note_on_c, 2, 55, 79
3, 475680, Note_on_c, 2, 50, 79
3, 475680, Note_on_c, 2, 46, 79
3, 475680, Note_on_c, 2, 43, 79
3, 475920, Note_off_c, 2, 67, 79
3, 475920, Note_off_c, 2, 62, 79
3, 475920, Note_off_c, 2, 55, 79
3, 475920, Note_off_c, 2, 50, 79
3, 475920, Note_off_c, 2, 46, 79
3, 475920, Note_off_c, 2, 43, 79
3, 475920, Note_on_c, 2, 67, 79
3, 475920, Note_on_c, 2, 62, 79
3, 475920, Note_on_c, 2, 55, 79
3, 475920, Note_on_c, 2, 50, 79
3, 475920, Note_on_c, 2, 46, 79
3, 475920, Note_on_c, 2, 43, 79
3, 476160, Note_off_c, 2, 67, 79
3, 476160, Note_off_c, 2, 62, 79
3, 476160, Note_off_c, 2, 55, 79
3, 476160, Note_off_c, 2, 50, 79
3, 476160, Note_off_c, 2, 46, 79
3, 476160, Note_off_c, 2, 43, 79
3, 476160, Note_on_c, 2, 67, 79
3, 476160, Note_on_c, 2, 62, 79
3, 476160, Note_on_c, 2, 55, 79
3, 476160, Note_on_c, 2, 50, 79
3, 476160, Note_on_c, 2, 46, 79
3, 476160, Note_on_c, 2, 43, 79
3, 476640, Note_off_c, 2, 67, 79
3, 476640, Note_off_c, 2, 62, 79
3, 476640, Note_off_c, 2, 55, 79
3, 476640, Note_off_c, 2, 50, 79
3, 476640, Note_off_c, 2, 46, 79
3, 476640, Note_off_c, 2, 43, 79
3, 476640, Note_on_c, 2, 67, 79
3, 476640, Note_on_c, 2, 62, 79
3, 476640, Note_on_c, 2, 55, 79
3, 476640, Note_on_c, 2, 50, 79
3, 476640, Note_on_c, 2, 46, 79
3, 476640, Note_on_c, 2, 43, 79
3, 476880, Note_off_c, 2, 67, 79
3, 476880, Note_off_c, 2, 62, 79
3, 476880, Note_off_c, 2, 55, 79
3, 476880, Note_off_c, 2, 50, 79
3, 476880, Note_off_c, 2, 46, 79
3, 476880, Note_off_c, 2, 43, 79
3, 476880, Note_on_c, 2, 67, 79
3, 476880, Note_on_c, 2, 62, 79
3, 476880, Note_on_c, 2, 55, 79
3, 476880, Note_on_c, 2, 50, 79
3, 476880, Note_on_c, 2, 46, 79
3, 476880, Note_on_c, 2, 43, 79
3, 477120, Note_off_c, 2, 67, 79
3, 477120, Note_off_c, 2, 62, 79
3, 477120, Note_off_c, 2, 55, 79
3, 477120, Note_off_c, 2, 50, 79
3, 477120, Note_off_c, 2, 46, 79
3, 477120, Note_off_c, 2, 43, 79
3, 477120, Note_on_c, 2, 67, 79
3, 477120, Note_on_c, 2, 62, 79
3, 477120, Note_on_c, 2, 55, 79
3, 477120, Note_on_c, 2, 50, 79
3, 477120, Note_on_c, 2, 46, 79
3, 477120, Note_on_c, 2, 43, 79
3, 477600, Note_off_c, 2, 67, 79
3, 477600, Note_off_c, 2, 62, 79
3, 477600, Note_off_c, 2, 55, 79
3, 477600, Note_off_c, 2, 50, 79
3, 477600, Note_off_c, 2, 46, 79
3, 477600, Note_off_c, 2, 43, 79
3, 477600, Note_on_c, 2, 67, 79
3, 477600, Note_on_c, 2, 62, 79
3, 477600, Note_on_c, 2, 55, 79
3, 477600, Note_on_c, 2, 50, 79
3, 477600, Note_on_c, 2, 46, 79
3, 477600, Note_on_c, 2, 43, 79
3, 477840, Note_off_c, 2, 67, 79
3, 477840, Note_off_c, 2, 62, 79
3, 477840, Note_off_c, 2, 55, 79
3, 477840, Note_off_c, 2, 50, 79
3, 477840, Note_off_c, 2, 46, 79
3, 477840, Note_off_c, 2, 43, 79
3, 477840, Note_on_c, 2, 67, 79
3, 477840, Note_on_c, 2, 62, 79
3, 477840, Note_on_c, 2, 55, 79
3, 477840, Note_on_c, 2, 50, 79
3, 477840, Note_on_c, 2, 46, 79
3, 477840, Note_on_c, 2, 43, 79
3, 478080, Note_off_c, 2, 67, 79
3, 478080, Note_off_c, 2, 62, 79
3, 478080, Note_off_c, 2, 55, 79
3, 478080, Note_off_c, 2, 50, 79
3, 478080, Note_off_c, 2, 46, 79
3, 478080, Note_off_c, 2, 43, 79
3, 478080, Note_on_c, 2, 67, 79
3, 478080, Note_on_c, 2, 62, 79
3, 478080, Note_on_c, 2, 55, 79
3, 478080, Note_on_c, 2, 50, 79
3, 478080, Note_on_c, 2, 46, 79
3, 478080, Note_on_c, 2, 43, 79
3, 478320, Note_off_c, 2, 67, 79
3, 478320, Note_off_c, 2, 62, 79
3, 478320, Note_off_c, 2, 55, 79
3, 478320, Note_off_c, 2, 50, 79
3, 478320, Note_off_c, 2, 46, 79
3, 478320, Note_off_c, 2, 43, 79
3, 478320, Note_on_c, 2, 67, 79
3, 478320, Note_on_c, 2, 62, 79
3, 478320, Note_on_c, 2, 55, 79
3, 478320, Note_on_c, 2, 50, 79
3, 478320, Note_on_c, 2, 46, 79
3, 478320, Note_on_c, 2, 43, 79
3, 478560, Note_off_c, 2, 67, 79
3, 478560, Note_off_c, 2, 62, 79
3, 478560, Note_off_c, 2, 55, 79
3, 478560, Note_off_c, 2, 50, 79
3, 478560, Note_off_c, 2, 46, 79
3, 478560, Note_off_c, 2, 43, 79
3, 478560, Note_on_c, 2, 67, 79
3, 478560, Note_on_c, 2, 62, 79
3, 478560, Note_on_c, 2, 55, 79
3, 478560, Note_on_c, 2, 50, 79
3, 478560, Note_on_c, 2, 46, 79
3, 478560, Note_on_c, 2, 43, 79
3, 478800, Note_off_c, 2, 67, 79
3, 478800, Note_off_c, 2, 62, 79
3, 478800, Note_off_c, 2, 55, 79
3, 478800, Note_off_c, 2, 50, 79
3, 478800, Note_off_c, 2, 46, 79
3, 478800, Note_off_c, 2, 43, 79
3, 478800, Note_on_c, 2, 67, 79
3, 478800, Note_on_c, 2, 62, 79
3, 478800, Note_on_c, 2, 55, 79
3, 478800, Note_on_c, 2, 50, 79
3, 478800, Note_on_c, 2, 46, 79
3, 478800, Note_on_c, 2, 43, 79
3, 479040, Note_off_c, 2, 67, 79
3, 479040, Note_off_c, 2, 62, 79
3, 479040, Note_off_c, 2, 55, 79
3, 479040, Note_off_c, 2, 50, 79
3, 479040, Note_off_c, 2, 46, 79
3, 479040, Note_off_c, 2, 43, 79
3, 479040, Note_on_c, 2, 67, 79
3, 479040, Note_on_c, 2, 62, 79
3, 479040, Note_on_c, 2, 55, 79
3, 479040, Note_on_c, 2, 50, 79
3, 479040, Note_on_c, 2, 46, 79
3, 479040, Note_on_c, 2, 43, 79
3, 479280, Note_off_c, 2, 67, 79
3, 479280, Note_off_c, 2, 62, 79
3, 479280, Note_off_c, 2, 55, 79
3, 479280, Note_off_c, 2, 50, 79
3, 479280, Note_off_c, 2, 46, 79
3, 479280, Note_off_c, 2, 43, 79
3, 479280, Note_on_c, 2, 67, 79
3, 479280, Note_on_c, 2, 62, 79
3, 479280, Note_on_c, 2, 55, 79
3, 479280, Note_on_c, 2, 50, 79
3, 479280, Note_on_c, 2, 46, 79
3, 479280, Note_on_c, 2, 43, 79
3, 479520, Note_off_c, 2, 67, 79
3, 479520, Note_off_c, 2, 62, 79
3, 479520, Note_off_c, 2, 55, 79
3, 479520, Note_off_c, 2, 50, 79
3, 479520, Note_off_c, 2, 46, 79
3, 479520, Note_off_c, 2, 43, 79
3, 479520, Note_on_c, 2, 67, 79
3, 479520, Note_on_c, 2, 62, 79
3, 479520, Note_on_c, 2, 55, 79
3, 479520, Note_on_c, 2, 50, 79
3, 479520, Note_on_c, 2, 46, 79
3, 479520, Note_on_c, 2, 43, 79
3, 479760, Note_off_c, 2, 67, 79
3, 479760, Note_off_c, 2, 62, 79
3, 479760, Note_off_c, 2, 55, 79
3, 479760, Note_off_c, 2, 50, 79
3, 479760, Note_off_c, 2, 46, 79
3, 479760, Note_off_c, 2, 43, 79
3, 479760, Note_on_c, 2, 67, 79
3, 479760, Note_on_c, 2, 62, 79
3, 479760, Note_on_c, 2, 55, 79
3, 479760, Note_on_c, 2, 50, 79
3, 479760, Note_on_c, 2, 46, 79
3, 479760, Note_on_c, 2, 43, 79
3, 480000, Note_off_c, 2, 67, 79
3, 480000, Note_off_c, 2, 62, 79
3, 480000, Note_off_c, 2, 55, 79
3, 480000, Note_off_c, 2, 50, 79
3, 480000, Note_off_c, 2, 46, 79
3, 480000, Note_off_c, 2, 43, 79
3, 480000, Note_on_c, 2, 65, 79
3, 480000, Note_on_c, 2, 62, 79
3, 480000, Note_on_c, 2, 58, 79
3, 480000, Note_on_c, 2, 50, 79
3, 480000, Note_on_c, 2, 46, 79
3, 480480, Note_off_c, 2, 65, 79
3, 480480, Note_off_c, 2, 62, 79
3, 480480, Note_off_c, 2, 58, 79
3, 480480, Note_off_c, 2, 50, 79
3, 480480, Note_off_c, 2, 46, 79
3, 480480, Note_on_c, 2, 65, 79
3, 480480, Note_on_c, 2, 62, 79
3, 480480, Note_on_c, 2, 58, 79
3, 480480, Note_on_c, 2, 50, 79
3, 480480, Note_on_c, 2, 46, 79
3, 480720, Note_off_c, 2, 65, 79
3, 480720, Note_off_c, 2, 62, 79
3, 480720, Note_off_c, 2, 58, 79
3, 480720, Note_off_c, 2, 50, 79
3, 480720, Note_off_c, 2, 46, 79
3, 480720, Note_on_c, 2, 65, 79
3, 480720, Note_on_c, 2, 62, 79
3, 480720, Note_on_c, 2, 58, 79
3, 480720, Note_on_c, 2, 50, 79
3, 480720, Note_on_c, 2, 46, 79
3, 480960, Note_off_c, 2, 65, 79
3, 480960, Note_off_c, 2, 62, 79
3, 480960, Note_off_c, 2, 58, 79
3, 480960, Note_off_c, 2, 50, 79
3, 480960, Note_off_c, 2, 46, 79
3, 480960, Note_on_c, 2, 65, 79
3, 480960, Note_on_c, 2, 62, 79
3, 480960, Note_on_c, 2, 58, 79
3, 480960, Note_on_c, 2, 50, 79
3, 480960, Note_on_c, 2, 46, 79
3, 481440, Note_off_c, 2, 65, 79
3, 481440, Note_off_c, 2, 62, 79
3, 481440, Note_off_c, 2, 58, 79
3, 481440, Note_off_c, 2, 50, 79
3, 481440, Note_off_c, 2, 46, 79
3, 481440, Note_on_c, 2, 65, 79
3, 481440, Note_on_c, 2, 62, 79
3, 481440, Note_on_c, 2, 58, 79
3, 481440, Note_on_c, 2, 50, 79
3, 481440, Note_on_c, 2, 46, 79
3, 481680, Note_off_c, 2, 65, 79
3, 481680, Note_off_c, 2, 62, 79
3, 481680, Note_off_c, 2, 58, 79
3, 481680, Note_off_c, 2, 50, 79
3, 481680, Note_off_c, 2, 46, 79
3, 481680, Note_on_c, 2, 65, 79
3, 481680, Note_on_c, 2, 62, 79
3, 481680, Note_on_c, 2, 58, 79
3, 481680, Note_on_c, 2, 50, 79
3, 481680, Note_on_c, 2, 46, 79
3, 481920, Note_off_c, 2, 65, 79
3, 481920, Note_off_c, 2, 62, 79
3, 481920, Note_off_c, 2, 58, 79
3, 481920, Note_off_c, 2, 50, 79
3, 481920, Note_off_c, 2, 46, 79
3, 481920, Note_on_c, 2, 65, 79
3, 481920, Note_on_c, 2, 62, 79
3, 481920, Note_on_c, 2, 58, 79
3, 481920, Note_on_c, 2, 50, 79
3, 481920, Note_on_c, 2, 46, 79
3, 482160, Note_off_c, 2, 65, 79
3, 482160, Note_off_c, 2, 62, 79
3, 482160, Note_off_c, 2, 58, 79
3, 482160, Note_off_c, 2, 50, 79
3, 482160, Note_off_c, 2, 46, 79
3, 482160, Note_on_c, 2, 65, 79
3, 482160, Note_on_c, 2, 62, 79
3, 482160, Note_on_c, 2, 58, 79
3, 482160, Note_on_c, 2, 50, 79
3, 482160, Note_on_c, 2, 46, 79
3, 482400, Note_off_c, 2, 65, 79
3, 482400, Note_off_c, 2, 62, 79
3, 482400, Note_off_c, 2, 58, 79
3, 482400, Note_off_c, 2, 50, 79
3, 482400, Note_off_c, 2, 46, 79
3, 482400, Note_on_c, 2, 65, 79
3, 482400, Note_on_c, 2, 62, 79
3, 482400, Note_on_c, 2, 58, 79
3, 482400, Note_on_c, 2, 50, 79
3, 482400, Note_on_c, 2, 46, 79
3, 482640, Note_off_c, 2, 65, 79
3, 482640, Note_off_c, 2, 62, 79
3, 482640, Note_off_c, 2, 58, 79
3, 482640, Note_off_c, 2, 50, 79
3, 482640, Note_off_c, 2, 46, 79
3, 482640, Note_on_c, 2, 65, 79
3, 482640, Note_on_c, 2, 62, 79
3, 482640, Note_on_c, 2, 58, 79
3, 482640, Note_on_c, 2, 50, 79
3, 482640, Note_on_c, 2, 46, 79
3, 482880, Note_off_c, 2, 65, 79
3, 482880, Note_off_c, 2, 62, 79
3, 482880, Note_off_c, 2, 58, 79
3, 482880, Note_off_c, 2, 50, 79
3, 482880, Note_off_c, 2, 46, 79
3, 482880, Note_on_c, 2, 65, 79
3, 482880, Note_on_c, 2, 62, 79
3, 482880, Note_on_c, 2, 58, 79
3, 482880, Note_on_c, 2, 50, 79
3, 482880, Note_on_c, 2, 46, 79
3, 483120, Note_off_c, 2, 65, 79
3, 483120, Note_off_c, 2, 62, 79
3, 483120, Note_off_c, 2, 58, 79
3, 483120, Note_off_c, 2, 50, 79
3, 483120, Note_off_c, 2, 46, 79
3, 483120, Note_on_c, 2, 65, 79
3, 483120, Note_on_c, 2, 62, 79
3, 483120, Note_on_c, 2, 58, 79
3, 483120, Note_on_c, 2, 50, 79
3, 483120, Note_on_c, 2, 46, 79
3, 483360, Note_off_c, 2, 65, 79
3, 483360, Note_off_c, 2, 62, 79
3, 483360, Note_off_c, 2, 58, 79
3, 483360, Note_off_c, 2, 50, 79
3, 483360, Note_off_c, 2, 46, 79
3, 483840, Note_on_c, 2, 67, 79
3, 483840, Note_on_c, 2, 62, 79
3, 483840, Note_on_c, 2, 55, 79
3, 483840, Note_on_c, 2, 50, 79
3, 483840, Note_on_c, 2, 46, 79
3, 483840, Note_on_c, 2, 43, 79
3, 484320, Note_off_c, 2, 67, 79
3, 484320, Note_off_c, 2, 62, 79
3, 484320, Note_off_c, 2, 55, 79
3, 484320, Note_off_c, 2, 50, 79
3, 484320, Note_off_c, 2, 46, 79
3, 484320, Note_off_c, 2, 43, 79
3, 484320, Note_on_c, 2, 67, 79
3, 484320, Note_on_c, 2, 62, 79
3, 484320, Note_on_c, 2, 55, 79
3, 484320, Note_on_c, 2, 50, 79
3, 484320, Note_on_c, 2, 46, 79
3, 484320, Note_on_c, 2, 43, 79
3, 484560, Note_off_c, 2, 67, 79
3, 484560, Note_off_c, 2, 62, 79
3, 484560, Note_off_c, 2, 55, 79
3, 484560, Note_off_c, 2, 50, 79
3, 484560, Note_off_c, 2, 46, 79
3, 484560, Note_off_c, 2, 43, 79
3, 484560, Note_on_c, 2, 67, 79
3, 484560, Note_on_c, 2, 62, 79
3, 484560, Note_on_c, 2, 55, 79
3, 484560, Note_on_c, 2, 50, 79
3, 484560, Note_on_c, 2, 46, 79
3, 484560, Note_on_c, 2, 43, 79
3, 484800, Note_off_c, 2, 67, 79
3, 484800, Note_off_c, 2, 62, 79
3, 484800, Note_off_c, 2, 55, 79
3, 484800, Note_off_c, 2, 50, 79
3, 484800, Note_off_c, 2, 46, 79
3, 484800, Note_off_c, 2, 43, 79
3, 484800, Note_on_c, 2, 67, 79
3, 484800, Note_on_c, 2, 62, 79
3, 484800, Note_on_c, 2, 55, 79
3, 484800, Note_on_c, 2, 50, 79
3, 484800, Note_on_c, 2, 46, 79
3, 484800, Note_on_c, 2, 43, 79
3, 485280, Note_off_c, 2, 67, 79
3, 485280, Note_off_c, 2, 62, 79
3, 485280, Note_off_c, 2, 55, 79
3, 485280, Note_off_c, 2, 50, 79
3, 485280, Note_off_c, 2, 46, 79
3, 485280, Note_off_c, 2, 43, 79
3, 485280, Note_on_c, 2, 67, 79
3, 485280, Note_on_c, 2, 62, 79
3, 485280, Note_on_c, 2, 55, 79
3, 485280, Note_on_c, 2, 50, 79
3, 485280, Note_on_c, 2, 46, 79
3, 485280, Note_on_c, 2, 43, 79
3, 485520, Note_off_c, 2, 67, 79
3, 485520, Note_off_c, 2, 62, 79
3, 485520, Note_off_c, 2, 55, 79
3, 485520, Note_off_c, 2, 50, 79
3, 485520, Note_off_c, 2, 46, 79
3, 485520, Note_off_c, 2, 43, 79
3, 485520, Note_on_c, 2, 67, 79
3, 485520, Note_on_c, 2, 62, 79
3, 485520, Note_on_c, 2, 55, 79
3, 485520, Note_on_c, 2, 50, 79
3, 485520, Note_on_c, 2, 46, 79
3, 485520, Note_on_c, 2, 43, 79
3, 485760, Note_off_c, 2, 67, 79
3, 485760, Note_off_c, 2, 62, 79
3, 485760, Note_off_c, 2, 55, 79
3, 485760, Note_off_c, 2, 50, 79
3, 485760, Note_off_c, 2, 46, 79
3, 485760, Note_off_c, 2, 43, 79
3, 485760, Note_on_c, 2, 67, 79
3, 485760, Note_on_c, 2, 62, 79
3, 485760, Note_on_c, 2, 55, 79
3, 485760, Note_on_c, 2, 50, 79
3, 485760, Note_on_c, 2, 46, 79
3, 485760, Note_on_c, 2, 43, 79
3, 486000, Note_off_c, 2, 67, 79
3, 486000, Note_off_c, 2, 62, 79
3, 486000, Note_off_c, 2, 55, 79
3, 486000, Note_off_c, 2, 50, 79
3, 486000, Note_off_c, 2, 46, 79
3, 486000, Note_off_c, 2, 43, 79
3, 486000, Note_on_c, 2, 67, 79
3, 486000, Note_on_c, 2, 62, 79
3, 486000, Note_on_c, 2, 55, 79
3, 486000, Note_on_c, 2, 50, 79
3, 486000, Note_on_c, 2, 46, 79
3, 486000, Note_on_c, 2, 43, 79
3, 486240, Note_off_c, 2, 67, 79
3, 486240, Note_off_c, 2, 62, 79
3, 486240, Note_off_c, 2, 55, 79
3, 486240, Note_off_c, 2, 50, 79
3, 486240, Note_off_c, 2, 46, 79
3, 486240, Note_off_c, 2, 43, 79
3, 486240, Note_on_c, 2, 67, 79
3, 486240, Note_on_c, 2, 62, 79
3, 486240, Note_on_c, 2, 55, 79
3, 486240, Note_on_c, 2, 50, 79
3, 486240, Note_on_c, 2, 46, 79
3, 486240, Note_on_c, 2, 43, 79
3, 486480, Note_off_c, 2, 67, 79
3, 486480, Note_off_c, 2, 62, 79
3, 486480, Note_off_c, 2, 55, 79
3, 486480, Note_off_c, 2, 50, 79
3, 486480, Note_off_c, 2, 46, 79
3, 486480, Note_off_c, 2, 43, 79
3, 486480, Note_on_c, 2, 67, 79
3, 486480, Note_on_c, 2, 62, 79
3, 486480, Note_on_c, 2, 55, 79
3, 486480, Note_on_c, 2, 50, 79
3, 486480, Note_on_c, 2, 46, 79
3, 486480, Note_on_c, 2, 43, 79
3, 486720, Note_off_c, 2, 67, 79
3, 486720, Note_off_c, 2, 62, 79
3, 486720, Note_off_c, 2, 55, 79
3, 486720, Note_off_c, 2, 50, 79
3, 486720, Note_off_c, 2, 46, 79
3, 486720, Note_off_c, 2, 43, 79
3, 486720, Note_on_c, 2, 67, 79
3, 486720, Note_on_c, 2, 62, 79
3, 486720, Note_on_c, 2, 55, 79
3, 486720, Note_on_c, 2, 50, 79
3, 486720, Note_on_c, 2, 46, 79
3, 486720, Note_on_c, 2, 43, 79
3, 486960, Note_off_c, 2, 67, 79
3, 486960, Note_off_c, 2, 62, 79
3, 486960, Note_off_c, 2, 55, 79
3, 486960, Note_off_c, 2, 50, 79
3, 486960, Note_off_c, 2, 46, 79
3, 486960, Note_off_c, 2, 43, 79
3, 486960, Note_on_c, 2, 67, 79
3, 486960, Note_on_c, 2, 62, 79
3, 486960, Note_on_c, 2, 55, 79
3, 486960, Note_on_c, 2, 50, 79
3, 486960, Note_on_c, 2, 46, 79
3, 486960, Note_on_c, 2, 43, 79
3, 487200, Note_off_c, 2, 67, 79
3, 487200, Note_off_c, 2, 62, 79
3, 487200, Note_off_c, 2, 55, 79
3, 487200, Note_off_c, 2, 50, 79
3, 487200, Note_off_c, 2, 46, 79
3, 487200, Note_off_c, 2, 43, 79
3, 487200, Note_on_c, 2, 67, 79
3, 487200, Note_on_c, 2, 62, 79
3, 487200, Note_on_c, 2, 55, 79
3, 487200, Note_on_c, 2, 50, 79
3, 487200, Note_on_c, 2, 46, 79
3, 487200, Note_on_c, 2, 43, 79
3, 487440, Note_off_c, 2, 67, 79
3, 487440, Note_off_c, 2, 62, 79
3, 487440, Note_off_c, 2, 55, 79
3, 487440, Note_off_c, 2, 50, 79
3, 487440, Note_off_c, 2, 46, 79
3, 487440, Note_off_c, 2, 43, 79
3, 487440, Note_on_c, 2, 67, 79
3, 487440, Note_on_c, 2, 62, 79
3, 487440, Note_on_c, 2, 55, 79
3, 487440, Note_on_c, 2, 50, 79
3, 487440, Note_on_c, 2, 46, 79
3, 487440, Note_on_c, 2, 43, 79
3, 487680, Note_off_c, 2, 67, 79
3, 487680, Note_off_c, 2, 62, 79
3, 487680, Note_off_c, 2, 55, 79
3, 487680, Note_off_c, 2, 50, 79
3, 487680, Note_off_c, 2, 46, 79
3, 487680, Note_off_c, 2, 43, 79
3, 487680, Note_on_c, 2, 67, 79
3, 487680, Note_on_c, 2, 62, 79
3, 487680, Note_on_c, 2, 55, 79
3, 487680, Note_on_c, 2, 50, 79
3, 487680, Note_on_c, 2, 46, 79
3, 487680, Note_on_c, 2, 43, 79
3, 488160, Note_off_c, 2, 67, 79
3, 488160, Note_off_c, 2, 62, 79
3, 488160, Note_off_c, 2, 55, 79
3, 488160, Note_off_c, 2, 50, 79
3, 488160, Note_off_c, 2, 46, 79
3, 488160, Note_off_c, 2, 43, 79
3, 488160, Note_on_c, 2, 67, 79
3, 488160, Note_on_c, 2, 62, 79
3, 488160, Note_on_c, 2, 55, 79
3, 488160, Note_on_c, 2, 50, 79
3, 488160, Note_on_c, 2, 46, 79
3, 488160, Note_on_c, 2, 43, 79
3, 488400, Note_off_c, 2, 67, 79
3, 488400, Note_off_c, 2, 62, 79
3, 488400, Note_off_c, 2, 55, 79
3, 488400, Note_off_c, 2, 50, 79
3, 488400, Note_off_c, 2, 46, 79
3, 488400, Note_off_c, 2, 43, 79
3, 488400, Note_on_c, 2, 67, 79
3, 488400, Note_on_c, 2, 62, 79
3, 488400, Note_on_c, 2, 55, 79
3, 488400, Note_on_c, 2, 50, 79
3, 488400, Note_on_c, 2, 46, 79
3, 488400, Note_on_c, 2, 43, 79
3, 488640, Note_off_c, 2, 67, 79
3, 488640, Note_off_c, 2, 62, 79
3, 488640, Note_off_c, 2, 55, 79
3, 488640, Note_off_c, 2, 50, 79
3, 488640, Note_off_c, 2, 46, 79
3, 488640, Note_off_c, 2, 43, 79
3, 488640, Note_on_c, 2, 67, 79
3, 488640, Note_on_c, 2, 62, 79
3, 488640, Note_on_c, 2, 55, 79
3, 488640, Note_on_c, 2, 50, 79
3, 488640, Note_on_c, 2, 46, 79
3, 488640, Note_on_c, 2, 43, 79
3, 489120, Note_off_c, 2, 67, 79
3, 489120, Note_off_c, 2, 62, 79
3, 489120, Note_off_c, 2, 55, 79
3, 489120, Note_off_c, 2, 50, 79
3, 489120, Note_off_c, 2, 46, 79
3, 489120, Note_off_c, 2, 43, 79
3, 489120, Note_on_c, 2, 67, 79
3, 489120, Note_on_c, 2, 62, 79
3, 489120, Note_on_c, 2, 55, 79
3, 489120, Note_on_c, 2, 50, 79
3, 489120, Note_on_c, 2, 46, 79
3, 489120, Note_on_c, 2, 43, 79
3, 489360, Note_off_c, 2, 67, 79
3, 489360, Note_off_c, 2, 62, 79
3, 489360, Note_off_c, 2, 55, 79
3, 489360, Note_off_c, 2, 50, 79
3, 489360, Note_off_c, 2, 46, 79
3, 489360, Note_off_c, 2, 43, 79
3, 489360, Note_on_c, 2, 67, 79
3, 489360, Note_on_c, 2, 62, 79
3, 489360, Note_on_c, 2, 55, 79
3, 489360, Note_on_c, 2, 50, 79
3, 489360, Note_on_c, 2, 46, 79
3, 489360, Note_on_c, 2, 43, 79
3, 489600, Note_off_c, 2, 67, 79
3, 489600, Note_off_c, 2, 62, 79
3, 489600, Note_off_c, 2, 55, 79
3, 489600, Note_off_c, 2, 50, 79
3, 489600, Note_off_c, 2, 46, 79
3, 489600, Note_off_c, 2, 43, 79
3, 489600, Note_on_c, 2, 67, 79
3, 489600, Note_on_c, 2, 62, 79
3, 489600, Note_on_c, 2, 55, 79
3, 489600, Note_on_c, 2, 50, 79
3, 489600, Note_on_c, 2, 46, 79
3, 489600, Note_on_c, 2, 43, 79
3, 489840, Note_off_c, 2, 67, 79
3, 489840, Note_off_c, 2, 62, 79
3, 489840, Note_off_c, 2, 55, 79
3, 489840, Note_off_c, 2, 50, 79
3, 489840, Note_off_c, 2, 46, 79
3, 489840, Note_off_c, 2, 43, 79
3, 489840, Note_on_c, 2, 67, 79
3, 489840, Note_on_c, 2, 62, 79
3, 489840, Note_on_c, 2, 55, 79
3, 489840, Note_on_c, 2, 50, 79
3, 489840, Note_on_c, 2, 46, 79
3, 489840, Note_on_c, 2, 43, 79
3, 490080, Note_off_c, 2, 67, 79
3, 490080, Note_off_c, 2, 62, 79
3, 490080, Note_off_c, 2, 55, 79
3, 490080, Note_off_c, 2, 50, 79
3, 490080, Note_off_c, 2, 46, 79
3, 490080, Note_off_c, 2, 43, 79
3, 490080, Note_on_c, 2, 67, 79
3, 490080, Note_on_c, 2, 62, 79
3, 490080, Note_on_c, 2, 55, 79
3, 490080, Note_on_c, 2, 50, 79
3, 490080, Note_on_c, 2, 46, 79
3, 490080, Note_on_c, 2, 43, 79
3, 490320, Note_off_c, 2, 67, 79
3, 490320, Note_off_c, 2, 62, 79
3, 490320, Note_off_c, 2, 55, 79
3, 490320, Note_off_c, 2, 50, 79
3, 490320, Note_off_c, 2, 46, 79
3, 490320, Note_off_c, 2, 43, 79
3, 490320, Note_on_c, 2, 67, 79
3, 490320, Note_on_c, 2, 62, 79
3, 490320, Note_on_c, 2, 55, 79
3, 490320, Note_on_c, 2, 50, 79
3, 490320, Note_on_c, 2, 46, 79
3, 490320, Note_on_c, 2, 43, 79
3, 490560, Note_off_c, 2, 67, 79
3, 490560, Note_off_c, 2, 62, 79
3, 490560, Note_off_c, 2, 55, 79
3, 490560, Note_off_c, 2, 50, 79
3, 490560, Note_off_c, 2, 46, 79
3, 490560, Note_off_c, 2, 43, 79
3, 490560, Note_on_c, 2, 67, 79
3, 490560, Note_on_c, 2, 62, 79
3, 490560, Note_on_c, 2, 55, 79
3, 490560, Note_on_c, 2, 50, 79
3, 490560, Note_on_c, 2, 46, 79
3, 490560, Note_on_c, 2, 43, 79
3, 490800, Note_off_c, 2, 67, 79
3, 490800, Note_off_c, 2, 62, 79
3, 490800, Note_off_c, 2, 55, 79
3, 490800, Note_off_c, 2, 50, 79
3, 490800, Note_off_c, 2, 46, 79
3, 490800, Note_off_c, 2, 43, 79
3, 490800, Note_on_c, 2, 67, 79
3, 490800, Note_on_c, 2, 62, 79
3, 490800, Note_on_c, 2, 55, 79
3, 490800, Note_on_c, 2, 50, 79
3, 490800, Note_on_c, 2, 46, 79
3, 490800, Note_on_c, 2, 43, 79
3, 491040, Note_off_c, 2, 67, 79
3, 491040, Note_off_c, 2, 62, 79
3, 491040, Note_off_c, 2, 55, 79
3, 491040, Note_off_c, 2, 50, 79
3, 491040, Note_off_c, 2, 46, 79
3, 491040, Note_off_c, 2, 43, 79
3, 491040, Note_on_c, 2, 67, 79
3, 491040, Note_on_c, 2, 62, 79
3, 491040, Note_on_c, 2, 55, 79
3, 491040, Note_on_c, 2, 50, 79
3, 491040, Note_on_c, 2, 46, 79
3, 491040, Note_on_c, 2, 43, 79
3, 491280, Note_off_c, 2, 67, 79
3, 491280, Note_off_c, 2, 62, 79
3, 491280, Note_off_c, 2, 55, 79
3, 491280, Note_off_c, 2, 50, 79
3, 491280, Note_off_c, 2, 46, 79
3, 491280, Note_off_c, 2, 43, 79
3, 491280, Note_on_c, 2, 67, 79
3, 491280, Note_on_c, 2, 62, 79
3, 491280, Note_on_c, 2, 55, 79
3, 491280, Note_on_c, 2, 50, 79
3, 491280, Note_on_c, 2, 46, 79
3, 491280, Note_on_c, 2, 43, 79
3, 491520, Note_off_c, 2, 67, 79
3, 491520, Note_off_c, 2, 62, 79
3, 491520, Note_off_c, 2, 55, 79
3, 491520, Note_off_c, 2, 50, 79
3, 491520, Note_off_c, 2, 46, 79
3, 491520, Note_off_c, 2, 43, 79
3, 491520, End_track
4, 0, Start_track
4, 0, Pitch_bend_c, 4, 8192
4, 0, Control_c, 4, 7, 63
4, 0, Control_c, 4, 10, 63
4, 0, Control_c, 4, 93, 0
4, 0, Control_c, 4, 91, 0
4, 0, Control_c, 4, 95, 0
4, 0, Control_c, 4, 92, 0
4, 0, Control_c, 4, 11, 127
4, 0, Program_c, 4, 27
4, 0, Control_c, 5, 7, 63
4, 0, Control_c, 5, 10, 63
4, 0, Control_c, 5, 93, 0
4, 0, Control_c, 5, 91, 0
4, 0, Control_c, 5, 95, 0
4, 0, Control_c, 5, 92, 0
4, 0, Control_c, 5, 11, 127
4, 0, Program_c, 5, 27
4, 0, Note_on_c, 4, 64, 79
4, 0, Note_on_c, 4, 60, 79
4, 0, Note_on_c, 4, 55, 79
4, 0, Note_on_c, 4, 48, 79
4, 1440, Note_off_c, 4, 64, 79
4, 1440, Note_off_c, 4, 60, 79
4, 1440, Note_off_c, 4, 55, 79
4, 1440, Note_off_c, 4, 48, 79
4, 1440, Note_on_c, 4, 67, 79
4, 1440, Note_on_c, 4, 62, 79
4, 1440, Note_on_c, 4, 58, 79
4, 1440, Note_on_c, 4, 55, 79
4, 1440, Note_on_c, 4, 50, 79
4, 1440, Note_on_c, 4, 43, 79
4, 3840, Note_off_c, 4, 67, 79
4, 3840, Note_off_c, 4, 62, 79
4, 3840, Note_off_c, 4, 58, 79
4, 3840, Note_off_c, 4, 55, 79
4, 3840, Note_off_c, 4, 50, 79
4, 3840, Note_off_c, 4, 43, 79
4, 3840, Note_on_c, 4, 64, 79
4, 3840, Note_on_c, 4, 60, 79
4, 3840, Note_on_c, 4, 55, 79
4, 3840, Note_on_c, 4, 48, 79
4, 5280, Note_off_c, 4, 64, 79
4, 5280, Note_off_c, 4, 60, 79
4, 5280, Note_off_c, 4, 55, 79
4, 5280, Note_off_c, 4, 48, 79
4, 5280, Note_on_c, 4, 67, 79
4, 5280, Note_on_c, 4, 62, 79
4, 5280, Note_on_c, 4, 58, 79
4, 5280, Note_on_c, 4, 55, 79
4, 5280, Note_on_c, 4, 50, 79
4, 5280, Note_on_c, 4, 43, 79
4, 7680, Note_off_c, 4, 67, 79
4, 7680, Note_off_c, 4, 62, 79
4, 7680, Note_off_c, 4, 58, 79
4, 7680, Note_off_c, 4, 55, 79
4, 7680, Note_off_c, 4, 50, 79
4, 7680, Note_off_c, 4, 43, 79
4, 7680, Note_on_c, 4, 64, 79
4, 7680, Note_on_c, 4, 60, 79
4, 7680, Note_on_c, 4, 55, 79
4, 7680, Note_on_c, 4, 48, 79
4, 9120, Note_off_c, 4, 64, 79
4, 9120, Note_off_c, 4, 60, 79
4, 9120, Note_off_c, 4, 55, 79
4, 9120, Note_off_c, 4, 48, 79
4, 9120, Note_on_c, 4, 67, 79
4, 9120, Note_on_c, 4, 62, 79
4, 9120, Note_on_c, 4, 58, 79
4, 9120, Note_on_c, 4, 55, 79
4, 9120, Note_on_c, 4, 50, 79
4, 9120, Note_on_c, 4, 43, 79
4, 11520, Note_off_c, 4, 67, 79
4, 11520, Note_off_c, 4, 62, 79
4, 11520, Note_off_c, 4, 58, 79
4, 11520, Note_off_c, 4, 55, 79
4, 11520, Note_off_c, 4, 50, 79
4, 11520, Note_off_c, 4, 43, 79
4, 11520, Note_on_c, 4, 64, 79
4, 11520, Note_on_c, 4, 60, 79
4, 11520, Note_on_c, 4, 55, 79
4, 11520, Note_on_c, 4, 48, 79
4, 14400, Note_off_c, 4, 64, 79
4, 14400, Note_off_c, 4, 60, 79
4, 14400, Note_off_c, 4, 55, 79
4, 14400, Note_off_c, 4, 48, 79
4, 15360, Note_on_c, 4, 74, 79
4, 15360, Note_on_c, 4, 70, 79
4, 15360, Note_on_c, 4, 65, 79
4, 15600, Note_off_c, 4, 74, 79
4, 15600, Note_off_c, 4, 70, 79
4, 15600, Note_off_c, 4, 65, 79
4, 15600, Note_on_c, 4, 74, 79
4, 15600, Note_on_c, 4, 70, 79
4, 15600, Note_on_c, 4, 65, 79
4, 15840, Note_off_c, 4, 74, 79
4, 15840, Note_off_c, 4, 70, 79
4, 15840, Note_off_c, 4, 65, 79
4, 15840, Note_on_c, 4, 64, 95
4, 15840, Note_on_c, 4, 59, 95
4, 15840, Note_on_c, 4, 55, 95
4, 15901, Note_off_c, 4, 64, 95
4, 15901, Note_off_c, 4, 59, 95
4, 15901, Note_off_c, 4, 55, 95
4, 16080, Note_on_c, 4, 64, 95
4, 16080, Note_on_c, 4, 59, 95
4, 16080, Note_on_c, 4, 55, 95
4, 16141, Note_off_c, 4, 64, 95
4, 16141, Note_off_c, 4, 59, 95
4, 16141, Note_off_c, 4, 55, 95
4, 16320, Note_on_c, 4, 64, 95
4, 16320, Note_on_c, 4, 59, 95
4, 16320, Note_on_c, 4, 55, 95
4, 16381, Note_off_c, 4, 64, 95
4, 16381, Note_off_c, 4, 59, 95
4, 16381, Note_off_c, 4, 55, 95
4, 16560, Note_on_c, 4, 64, 95
4, 16560, Note_on_c, 4, 59, 95
4, 16560, Note_on_c, 4, 55, 95
4, 16621, Note_off_c, 4, 64, 95
4, 16621, Note_off_c, 4, 59, 95
4, 16621, Note_off_c, 4, 55, 95
4, 16800, Note_on_c, 4, 74, 79
4, 16800, Note_on_c, 4, 70, 79
4, 16800, Note_on_c, 4, 65, 79
4, 17040, Note_off_c, 4, 74, 79
4, 17040, Note_off_c, 4, 70, 79
4, 17040, Note_off_c, 4, 65, 79
4, 17040, Note_on_c, 4, 74, 79
4, 17040, Note_on_c, 4, 70, 79
4, 17040, Note_on_c, 4, 65, 79
4, 17280, Note_off_c, 4, 74, 79
4, 17280, Note_off_c, 4, 70, 79
4, 17280, Note_off_c, 4, 65, 79
4, 17280, Note_on_c, 4, 64, 95
4, 17280, Note_on_c, 4, 59, 95
4, 17280, Note_on_c, 4, 55, 95
4, 17341, Note_off_c, 4, 64, 95
4, 17341, Note_off_c, 4, 59, 95
4, 17341, Note_off_c, 4, 55, 95
4, 17520, Note_on_c, 4, 64, 95
4, 17520, Note_on_c, 4, 59, 95
4, 17520, Note_on_c, 4, 55, 95
4, 17581, Note_off_c, 4, 64, 95
4, 17581, Note_off_c, 4, 59, 95
4, 17581, Note_off_c, 4, 55, 95
4, 17760, Note_on_c, 4, 64, 95
4, 17760, Note_on_c, 4, 59, 95
4, 17760, Note_on_c, 4, 55, 95
4, 17821, Note_off_c, 4, 64, 95
4, 17821, Note_off_c, 4, 59, 95
4, 17821, Note_off_c, 4, 55, 95
4, 18000, Note_on_c, 4, 64, 95
4, 18000, Note_on_c, 4, 59, 95
4, 18000, Note_on_c, 4, 55, 95
4, 18061, Note_off_c, 4, 64, 95
4, 18061, Note_off_c, 4, 59, 95
4, 18061, Note_off_c, 4, 55, 95
4, 18240, Note_on_c, 4, 64, 95
4, 18240, Note_on_c, 4, 59, 95
4, 18240, Note_on_c, 4, 55, 95
4, 18301, Note_off_c, 4, 64, 95
4, 18301, Note_off_c, 4, 59, 95
4, 18301, Note_off_c, 4, 55, 95
4, 18480, Note_on_c, 4, 64, 95
4, 18480, Note_on_c, 4, 59, 95
4, 18480, Note_on_c, 4, 55, 95
4, 18541, Note_off_c, 4, 64, 95
4, 18541, Note_off_c, 4, 59, 95
4, 18541, Note_off_c, 4, 55, 95
4, 18720, Note_on_c, 4, 64, 95
4, 18720, Note_on_c, 4, 59, 95
4, 18720, Note_on_c, 4, 55, 95
4, 18781, Note_off_c, 4, 64, 95
4, 18781, Note_off_c, 4, 59, 95
4, 18781, Note_off_c, 4, 55, 95
4, 18960, Note_on_c, 4, 64, 95
4, 18960, Note_on_c, 4, 59, 95
4, 18960, Note_on_c, 4, 55, 95
4, 19021, Note_off_c, 4, 64, 95
4, 19021, Note_off_c, 4, 59, 95
4, 19021, Note_off_c, 4, 55, 95
4, 19200, Note_on_c, 4, 74, 79
4, 19200, Note_on_c, 4, 70, 79
4, 19200, Note_on_c, 4, 65, 79
4, 19440, Note_off_c, 4, 74, 79
4, 19440, Note_off_c, 4, 70, 79
4, 19440, Note_off_c, 4, 65, 79
4, 19440, Note_on_c, 4, 74, 79
4, 19440, Note_on_c, 4, 70, 79
4, 19440, Note_on_c, 4, 65, 79
4, 19680, Note_off_c, 4, 74, 79
4, 19680, Note_off_c, 4, 70, 79
4, 19680, Note_off_c, 4, 65, 79
4, 19680, Note_on_c, 4, 64, 95
4, 19680, Note_on_c, 4, 59, 95
4, 19680, Note_on_c, 4, 55, 95
4, 19741, Note_off_c, 4, 64, 95
4, 19741, Note_off_c, 4, 59, 95
4, 19741, Note_off_c, 4, 55, 95
4, 19920, Note_on_c, 4, 64, 95
4, 19920, Note_on_c, 4, 59, 95
4, 19920, Note_on_c, 4, 55, 95
4, 19981, Note_off_c, 4, 64, 95
4, 19981, Note_off_c, 4, 59, 95
4, 19981, Note_off_c, 4, 55, 95
4, 20160, Note_on_c, 4, 64, 95
4, 20160, Note_on_c, 4, 59, 95
4, 20160, Note_on_c, 4, 55, 95
4, 20221, Note_off_c, 4, 64, 95
4, 20221, Note_off_c, 4, 59, 95
4, 20221, Note_off_c, 4, 55, 95
4, 20400, Note_on_c, 4, 64, 95
4, 20400, Note_on_c, 4, 59, 95
4, 20400, Note_on_c, 4, 55, 95
4, 20461, Note_off_c, 4, 64, 95
4, 20461, Note_off_c, 4, 59, 95
4, 20461, Note_off_c, 4, 55, 95
4, 20640, Note_on_c, 4, 74, 79
4, 20640, Note_on_c, 4, 70, 79
4, 20640, Note_on_c, 4, 65, 79
4, 20880, Note_off_c, 4, 74, 79
4, 20880, Note_off_c, 4, 70, 79
4, 20880, Note_off_c, 4, 65, 79
4, 20880, Note_on_c, 4, 74, 79
4, 20880, Note_on_c, 4, 70, 79
4, 20880, Note_on_c, 4, 65, 79
4, 21120, Note_off_c, 4, 74, 79
4, 21120, Note_off_c, 4, 70, 79
4, 21120, Note_off_c, 4, 65, 79
4, 21120, Note_on_c, 4, 64, 95
4, 21120, Note_on_c, 4, 59, 95
4, 21120, Note_on_c, 4, 55, 95
4, 21181, Note_off_c, 4, 64, 95
4, 21181, Note_off_c, 4, 59, 95
4, 21181, Note_off_c, 4, 55, 95
4, 21360, Note_on_c, 4, 64, 95
4, 21360, Note_on_c, 4, 59, 95
4, 21360, Note_on_c, 4, 55, 95
4, 21421, Note_off_c, 4, 64, 95
4, 21421, Note_off_c, 4, 59, 95
4, 21421, Note_off_c, 4, 55, 95
4, 21600, Note_on_c, 4, 64, 95
4, 21600, Note_on_c, 4, 59, 95
4, 21600, Note_on_c, 4, 55, 95
4, 21661, Note_off_c, 4, 64, 95
4, 21661, Note_off_c, 4, 59, 95
4, 21661, Note_off_c, 4, 55, 95
4, 21840, Note_on_c, 4, 64, 95
4, 21840, Note_on_c, 4, 59, 95
4, 21840, Note_on_c, 4, 55, 95
4, 21901, Note_off_c, 4, 64, 95
4, 21901, Note_off_c, 4, 59, 95
4, 21901, Note_off_c, 4, 55, 95
4, 22080, Note_on_c, 4, 64, 95
4, 22080, Note_on_c, 4, 59, 95
4, 22080, Note_on_c, 4, 55, 95
4, 22141, Note_off_c, 4, 64, 95
4, 22141, Note_off_c, 4, 59, 95
4, 22141, Note_off_c, 4, 55, 95
4, 22320, Note_on_c, 4, 64, 95
4, 22320, Note_on_c, 4, 59, 95
4, 22320, Note_on_c, 4, 55, 95
4, 22381, Note_off_c, 4, 64, 95
4, 22381, Note_off_c, 4, 59, 95
4, 22381, Note_off_c, 4, 55, 95
4, 22560, Note_on_c, 4, 64, 95
4, 22560, Note_on_c, 4, 59, 95
4, 22560, Note_on_c, 4, 55, 95
4, 22621, Note_off_c, 4, 64, 95
4, 22621, Note_off_c, 4, 59, 95
4, 22621, Note_off_c, 4, 55, 95
4, 22800, Note_on_c, 4, 64, 95
4, 22800, Note_on_c, 4, 59, 95
4, 22800, Note_on_c, 4, 55, 95
4, 22861, Note_off_c, 4, 64, 95
4, 22861, Note_off_c, 4, 59, 95
4, 22861, Note_off_c, 4, 55, 95
4, 23040, Note_on_c, 4, 74, 79
4, 23040, Note_on_c, 4, 70, 79
4, 23040, Note_on_c, 4, 65, 79
4, 23280, Note_off_c, 4, 74, 79
4, 23280, Note_off_c, 4, 70, 79
4, 23280, Note_off_c, 4, 65, 79
4, 23280, Note_on_c, 4, 74, 79
4, 23280, Note_on_c, 4, 70, 79
4, 23280, Note_on_c, 4, 65, 79
4, 23520, Note_off_c, 4, 74, 79
4, 23520, Note_off_c, 4, 70, 79
4, 23520, Note_off_c, 4, 65, 79
4, 23520, Note_on_c, 4, 64, 95
4, 23520, Note_on_c, 4, 59, 95
4, 23520, Note_on_c, 4, 55, 95
4, 23581, Note_off_c, 4, 64, 95
4, 23581, Note_off_c, 4, 59, 95
4, 23581, Note_off_c, 4, 55, 95
4, 23760, Note_on_c, 4, 64, 95
4, 23760, Note_on_c, 4, 59, 95
4, 23760, Note_on_c, 4, 55, 95
4, 23821, Note_off_c, 4, 64, 95
4, 23821, Note_off_c, 4, 59, 95
4, 23821, Note_off_c, 4, 55, 95
4, 24000, Note_on_c, 4, 64, 95
4, 24000, Note_on_c, 4, 59, 95
4, 24000, Note_on_c, 4, 55, 95
4, 24061, Note_off_c, 4, 64, 95
4, 24061, Note_off_c, 4, 59, 95
4, 24061, Note_off_c, 4, 55, 95
4, 24240, Note_on_c, 4, 64, 95
4, 24240, Note_on_c, 4, 59, 95
4, 24240, Note_on_c, 4, 55, 95
4, 24301, Note_off_c, 4, 64, 95
4, 24301, Note_off_c, 4, 59, 95
4, 24301, Note_off_c, 4, 55, 95
4, 24480, Note_on_c, 4, 74, 79
4, 24480, Note_on_c, 4, 70, 79
4, 24480, Note_on_c, 4, 65, 79
4, 24720, Note_off_c, 4, 74, 79
4, 24720, Note_off_c, 4, 70, 79
4, 24720, Note_off_c, 4, 65, 79
4, 24720, Note_on_c, 4, 74, 79
4, 24720, Note_on_c, 4, 70, 79
4, 24720, Note_on_c, 4, 65, 79
4, 24960, Note_off_c, 4, 74, 79
4, 24960, Note_off_c, 4, 70, 79
4, 24960, Note_off_c, 4, 65, 79
4, 24960, Note_on_c, 4, 64, 95
4, 24960, Note_on_c, 4, 59, 95
4, 24960, Note_on_c, 4, 55, 95
4, 25021, Note_off_c, 4, 64, 95
4, 25021, Note_off_c, 4, 59, 95
4, 25021, Note_off_c, 4, 55, 95
4, 25200, Note_on_c, 4, 64, 95
4, 25200, Note_on_c, 4, 59, 95
4, 25200, Note_on_c, 4, 55, 95
4, 25261, Note_off_c, 4, 64, 95
4, 25261, Note_off_c, 4, 59, 95
4, 25261, Note_off_c, 4, 55, 95
4, 25440, Note_on_c, 4, 64, 95
4, 25440, Note_on_c, 4, 59, 95
4, 25440, Note_on_c, 4, 55, 95
4, 25501, Note_off_c, 4, 64, 95
4, 25501, Note_off_c, 4, 59, 95
4, 25501, Note_off_c, 4, 55, 95
4, 25680, Note_on_c, 4, 64, 95
4, 25680, Note_on_c, 4, 59, 95
4, 25680, Note_on_c, 4, 55, 95
4, 25741, Note_off_c, 4, 64, 95
4, 25741, Note_off_c, 4, 59, 95
4, 25741, Note_off_c, 4, 55, 95
4, 25920, Note_on_c, 4, 64, 95
4, 25920, Note_on_c, 4, 59, 95
4, 25920, Note_on_c, 4, 55, 95
4, 25981, Note_off_c, 4, 64, 95
4, 25981, Note_off_c, 4, 59, 95
4, 25981, Note_off_c, 4, 55, 95
4, 26160, Note_on_c, 4, 64, 95
4, 26160, Note_on_c, 4, 59, 95
4, 26160, Note_on_c, 4, 55, 95
4, 26221, Note_off_c, 4, 64, 95
4, 26221, Note_off_c, 4, 59, 95
4, 26221, Note_off_c, 4, 55, 95
4, 26400, Note_on_c, 4, 64, 95
4, 26400, Note_on_c, 4, 59, 95
4, 26400, Note_on_c, 4, 55, 95
4, 26461, Note_off_c, 4, 64, 95
4, 26461, Note_off_c, 4, 59, 95
4, 26461, Note_off_c, 4, 55, 95
4, 26640, Note_on_c, 4, 64, 95
4, 26640, Note_on_c, 4, 59, 95
4, 26640, Note_on_c, 4, 55, 95
4, 26701, Note_off_c, 4, 64, 95
4, 26701, Note_off_c, 4, 59, 95
4, 26701, Note_off_c, 4, 55, 95
4, 26880, Note_on_c, 4, 74, 79
4, 26880, Note_on_c, 4, 70, 79
4, 26880, Note_on_c, 4, 65, 79
4, 27120, Note_off_c, 4, 74, 79
4, 27120, Note_off_c, 4, 70, 79
4, 27120, Note_off_c, 4, 65, 79
4, 27120, Note_on_c, 4, 74, 79
4, 27120, Note_on_c, 4, 70, 79
4, 27120, Note_on_c, 4, 65, 79
4, 27360, Note_off_c, 4, 74, 79
4, 27360, Note_off_c, 4, 70, 79
4, 27360, Note_off_c, 4, 65, 79
4, 27360, Note_on_c, 4, 64, 95
4, 27360, Note_on_c, 4, 59, 95
4, 27360, Note_on_c, 4, 55, 95
4, 27421, Note_off_c, 4, 64, 95
4, 27421, Note_off_c, 4, 59, 95
4, 27421, Note_off_c, 4, 55, 95
4, 27600, Note_on_c, 4, 64, 95
4, 27600, Note_on_c, 4, 59, 95
4, 27600, Note_on_c, 4, 55, 95
4, 27661, Note_off_c, 4, 64, 95
4, 27661, Note_off_c, 4, 59, 95
4, 27661, Note_off_c, 4, 55, 95
4, 27840, Note_on_c, 4, 64, 95
4, 27840, Note_on_c, 4, 59, 95
4, 27840, Note_on_c, 4, 55, 95
4, 27901, Note_off_c, 4, 64, 95
4, 27901, Note_off_c, 4, 59, 95
4, 27901, Note_off_c, 4, 55, 95
4, 28080, Note_on_c, 4, 64, 95
4, 28080, Note_on_c, 4, 59, 95
4, 28080, Note_on_c, 4, 55, 95
4, 28141, Note_off_c, 4, 64, 95
4, 28141, Note_off_c, 4, 59, 95
4, 28141, Note_off_c, 4, 55, 95
4, 28320, Note_on_c, 4, 74, 79
4, 28320, Note_on_c, 4, 70, 79
4, 28320, Note_on_c, 4, 65, 79
4, 28560, Note_off_c, 4, 74, 79
4, 28560, Note_off_c, 4, 70, 79
4, 28560, Note_off_c, 4, 65, 79
4, 28560, Note_on_c, 4, 74, 79
4, 28560, Note_on_c, 4, 70, 79
4, 28560, Note_on_c, 4, 65, 79
4, 28800, Note_off_c, 4, 74, 79
4, 28800, Note_off_c, 4, 70, 79
4, 28800, Note_off_c, 4, 65, 79
4, 28800, Note_on_c, 4, 74, 79
4, 28800, Note_on_c, 4, 70, 79
4, 28800, Note_on_c, 4, 65, 79
4, 29040, Note_off_c, 4, 74, 79
4, 29040, Note_off_c, 4, 70, 79
4, 29040, Note_off_c, 4, 65, 79
4, 29040, Note_on_c, 4, 74, 79
4, 29040, Note_on_c, 4, 70, 79
4, 29040, Note_on_c, 4, 65, 79
4, 29280, Note_off_c, 4, 74, 79
4, 29280, Note_off_c, 4, 70, 79
4, 29280, Note_off_c, 4, 65, 79
4, 29280, Note_on_c, 4, 74, 79
4, 29280, Note_on_c, 4, 70, 79
4, 29280, Note_on_c, 4, 65, 79
4, 29760, Note_off_c, 4, 74, 79
4, 29760, Note_off_c, 4, 70, 79
4, 29760, Note_off_c, 4, 65, 79
4, 29760, Note_on_c, 4, 74, 79
4, 29760, Note_on_c, 4, 70, 79
4, 29760, Note_on_c, 4, 65, 79
4, 30240, Note_off_c, 4, 74, 79
4, 30240, Note_off_c, 4, 70, 79
4, 30240, Note_off_c, 4, 65, 79
4, 30240, Note_on_c, 4, 74, 79
4, 30240, Note_on_c, 4, 70, 79
4, 30240, Note_on_c, 4, 65, 79
4, 30720, Note_off_c, 4, 74, 79
4, 30720, Note_off_c, 4, 70, 79
4, 30720, Note_off_c, 4, 65, 79
4, 30720, Note_on_c, 4, 74, 79
4, 30720, Note_on_c, 4, 70, 79
4, 30720, Note_on_c, 4, 65, 79
4, 31440, Note_off_c, 4, 74, 79
4, 31440, Note_off_c, 4, 70, 79
4, 31440, Note_off_c, 4, 65, 79
4, 31440, Note_on_c, 4, 74, 79
4, 31440, Note_on_c, 4, 70, 79
4, 31440, Note_on_c, 4, 65, 79
4, 31680, Note_off_c, 4, 74, 79
4, 31680, Note_off_c, 4, 70, 79
4, 31680, Note_off_c, 4, 65, 79
4, 31680, Note_on_c, 4, 64, 95
4, 31680, Note_on_c, 4, 59, 95
4, 31680, Note_on_c, 4, 55, 95
4, 31741, Note_off_c, 4, 64, 95
4, 31741, Note_off_c, 4, 59, 95
4, 31741, Note_off_c, 4, 55, 95
4, 32160, Note_on_c, 4, 64, 95
4, 32160, Note_on_c, 4, 59, 95
4, 32160, Note_on_c, 4, 55, 95
4, 32221, Note_off_c, 4, 64, 95
4, 32221, Note_off_c, 4, 59, 95
4, 32221, Note_off_c, 4, 55, 95
4, 32400, Note_on_c, 4, 64, 95
4, 32400, Note_on_c, 4, 59, 95
4, 32400, Note_on_c, 4, 55, 95
4, 32461, Note_off_c, 4, 64, 95
4, 32461, Note_off_c, 4, 59, 95
4, 32461, Note_off_c, 4, 55, 95
4, 32640, Note_on_c, 4, 74, 79
4, 32640, Note_on_c, 4, 70, 79
4, 32640, Note_on_c, 4, 65, 79
4, 32880, Note_off_c, 4, 74, 79
4, 32880, Note_off_c, 4, 70, 79
4, 32880, Note_off_c, 4, 65, 79
4, 32880, Note_on_c, 4, 74, 79
4, 32880, Note_on_c, 4, 70, 79
4, 32880, Note_on_c, 4, 65, 79
4, 33120, Note_off_c, 4, 74, 79
4, 33120, Note_off_c, 4, 70, 79
4, 33120, Note_off_c, 4, 65, 79
4, 33120, Note_on_c, 4, 64, 95
4, 33120, Note_on_c, 4, 59, 95
4, 33120, Note_on_c, 4, 55, 95
4, 33181, Note_off_c, 4, 64, 95
4, 33181, Note_off_c, 4, 59, 95
4, 33181, Note_off_c, 4, 55, 95
4, 33600, Note_on_c, 4, 74, 79
4, 33600, Note_on_c, 4, 70, 79
4, 33600, Note_on_c, 4, 65, 79
4, 34080, Note_off_c, 4, 74, 79
4, 34080, Note_off_c, 4, 70, 79
4, 34080, Note_off_c, 4, 65, 79
4, 34080, Note_on_c, 4, 70, 79
4, 34080, Note_on_c, 4, 65, 79
4, 34560, Note_off_c, 4, 70, 79
4, 34560, Note_off_c, 4, 65, 79
4, 34560, Note_on_c, 4, 77, 79
4, 34560, Note_on_c, 4, 70, 79
4, 34560, Note_on_c, 4, 65, 79
4, 35040, Note_off_c, 4, 77, 79
4, 35040, Note_off_c, 4, 70, 79
4, 35040, Note_off_c, 4, 65, 79
4, 35040, Note_on_c, 4, 77, 79
4, 35040, Note_on_c, 4, 70, 79
4, 35040, Note_on_c, 4, 65, 79
4, 35280, Note_off_c, 4, 77, 79
4, 35280, Note_off_c, 4, 70, 79
4, 35280, Note_off_c, 4, 65, 79
4, 35280, Note_on_c, 4, 77, 79
4, 35280, Note_on_c, 4, 70, 79
4, 35280, Note_on_c, 4, 65, 79
4, 35520, Note_off_c, 4, 77, 79
4, 35520, Note_off_c, 4, 70, 79
4, 35520, Note_off_c, 4, 65, 79
4, 36000, Note_on_c, 4, 76, 79
4, 36000, Note_on_c, 4, 70, 79
4, 36000, Note_on_c, 4, 65, 79
4, 36480, Note_off_c, 4, 76, 79
4, 36480, Note_off_c, 4, 70, 79
4, 36480, Note_off_c, 4, 65, 79
4, 36480, Note_on_c, 4, 64, 95
4, 36480, Note_on_c, 4, 59, 95
4, 36480, Note_on_c, 4, 55, 95
4, 36541, Note_off_c, 4, 64, 95
4, 36541, Note_off_c, 4, 59, 95
4, 36541, Note_off_c, 4, 55, 95
4, 36720, Note_on_c, 4, 76, 79
4, 36720, Note_on_c, 4, 70, 79
4, 36720, Note_on_c, 4, 65, 79
4, 36960, Note_off_c, 4, 76, 79
4, 36960, Note_off_c, 4, 70, 79
4, 36960, Note_off_c, 4, 65, 79
4, 36960, Note_on_c, 4, 64, 95
4, 36960, Note_on_c, 4, 59, 95
4, 36960, Note_on_c, 4, 55, 95
4, 37021, Note_off_c, 4, 64, 95
4, 37021, Note_off_c, 4, 59, 95
4, 37021, Note_off_c, 4, 55, 95
4, 37200, Note_on_c, 4, 64, 95
4, 37200, Note_on_c, 4, 59, 95
4, 37200, Note_on_c, 4, 55, 95
4, 37261, Note_off_c, 4, 64, 95
4, 37261, Note_off_c, 4, 59, 95
4, 37261, Note_off_c, 4, 55, 95
4, 37440, Note_on_c, 4, 76, 79
4, 37440, Note_on_c, 4, 70, 79
4, 37440, Note_on_c, 4, 65, 79
4, 37680, Note_off_c, 4, 76, 79
4, 37680, Note_off_c, 4, 70, 79
4, 37680, Note_off_c, 4, 65, 79
4, 37680, Note_on_c, 4, 76, 79
4, 37680, Note_on_c, 4, 70, 79
4, 37680, Note_on_c, 4, 65, 79
4, 37920, Note_off_c, 4, 76, 79
4, 37920, Note_off_c, 4, 70, 79
4, 37920, Note_off_c, 4, 65, 79
4, 38400, Note_on_c, 4, 74, 79
4, 38400, Note_on_c, 4, 70, 79
4, 38400, Note_on_c, 4, 65, 79
4, 39120, Note_off_c, 4, 74, 79
4, 39120, Note_off_c, 4, 70, 79
4, 39120, Note_off_c, 4, 65, 79
4, 39120, Note_on_c, 4, 74, 79
4, 39120, Note_on_c, 4, 70, 79
4, 39120, Note_on_c, 4, 65, 79
4, 39360, Note_off_c, 4, 74, 79
4, 39360, Note_off_c, 4, 70, 79
4, 39360, Note_off_c, 4, 65, 79
4, 39360, Note_on_c, 4, 64, 95
4, 39360, Note_on_c, 4, 59, 95
4, 39360, Note_on_c, 4, 55, 95
4, 39421, Note_off_c, 4, 64, 95
4, 39421, Note_off_c, 4, 59, 95
4, 39421, Note_off_c, 4, 55, 95
4, 39840, Note_on_c, 4, 64, 95
4, 39840, Note_on_c, 4, 59, 95
4, 39840, Note_on_c, 4, 55, 95
4, 39901, Note_off_c, 4, 64, 95
4, 39901, Note_off_c, 4, 59, 95
4, 39901, Note_off_c, 4, 55, 95
4, 40080, Note_on_c, 4, 64, 95
4, 40080, Note_on_c, 4, 59, 95
4, 40080, Note_on_c, 4, 55, 95
4, 40141, Note_off_c, 4, 64, 95
4, 40141, Note_off_c, 4, 59, 95
4, 40141, Note_off_c, 4, 55, 95
4, 40320, Note_on_c, 4, 64, 95
4, 40320, Note_on_c, 4, 59, 95
4, 40320, Note_on_c, 4, 55, 95
4, 40381, Note_off_c, 4, 64, 95
4, 40381, Note_off_c, 4, 59, 95
4, 40381, Note_off_c, 4, 55, 95
4, 40560, Note_on_c, 4, 74, 79
4, 40560, Note_on_c, 4, 70, 79
4, 40560, Note_on_c, 4, 65, 79
4, 40800, Note_off_c, 4, 74, 79
4, 40800, Note_off_c, 4, 70, 79
4, 40800, Note_off_c, 4, 65, 79
4, 40800, Note_on_c, 4, 64, 95
4, 40800, Note_on_c, 4, 59, 95
4, 40800, Note_on_c, 4, 55, 95
4, 40861, Note_off_c, 4, 64, 95
4, 40861, Note_off_c, 4, 59, 95
4, 40861, Note_off_c, 4, 55, 95
4, 41040, Note_on_c, 4, 64, 95
4, 41040, Note_on_c, 4, 59, 95
4, 41040, Note_on_c, 4, 55, 95
4, 41101, Note_off_c, 4, 64, 95
4, 41101, Note_off_c, 4, 59, 95
4, 41101, Note_off_c, 4, 55, 95
4, 41280, Note_on_c, 4, 74, 79
4, 41280, Note_on_c, 4, 70, 79
4, 41280, Note_on_c, 4, 65, 79
4, 41520, Note_off_c, 4, 74, 79
4, 41520, Note_off_c, 4, 70, 79
4, 41520, Note_off_c, 4, 65, 79
4, 41520, Note_on_c, 4, 74, 79
4, 41520, Note_on_c, 4, 70, 79
4, 41520, Note_on_c, 4, 65, 79
4, 41760, Note_off_c, 4, 74, 79
4, 41760, Note_off_c, 4, 70, 79
4, 41760, Note_off_c, 4, 65, 79
4, 41760, Note_on_c, 4, 64, 95
4, 41760, Note_on_c, 4, 59, 95
4, 41760, Note_on_c, 4, 55, 95
4, 41821, Note_off_c, 4, 64, 95
4, 41821, Note_off_c, 4, 59, 95
4, 41821, Note_off_c, 4, 55, 95
4, 42000, Note_on_c, 4, 64, 95
4, 42000, Note_on_c, 4, 59, 95
4, 42000, Note_on_c, 4, 55, 95
4, 42061, Note_off_c, 4, 64, 95
4, 42061, Note_off_c, 4, 59, 95
4, 42061, Note_off_c, 4, 55, 95
4, 42240, Note_on_c, 4, 74, 79
4, 42240, Note_on_c, 4, 70, 79
4, 42240, Note_on_c, 4, 65, 79
4, 42960, Note_off_c, 4, 74, 79
4, 42960, Note_off_c, 4, 70, 79
4, 42960, Note_off_c, 4, 65, 79
4, 42960, Note_on_c, 4, 74, 79
4, 42960, Note_on_c, 4, 70, 79
4, 42960, Note_on_c, 4, 65, 79
4, 43200, Note_off_c, 4, 74, 79
4, 43200, Note_off_c, 4, 70, 79
4, 43200, Note_off_c, 4, 65, 79
4, 43200, Note_on_c, 4, 64, 95
4, 43200, Note_on_c, 4, 59, 95
4, 43200, Note_on_c, 4, 55, 95
4, 43261, Note_off_c, 4, 64, 95
4, 43261, Note_off_c, 4, 59, 95
4, 43261, Note_off_c, 4, 55, 95
4, 43680, Note_on_c, 4, 64, 95
4, 43680, Note_on_c, 4, 59, 95
4, 43680, Note_on_c, 4, 55, 95
4, 43741, Note_off_c, 4, 64, 95
4, 43741, Note_off_c, 4, 59, 95
4, 43741, Note_off_c, 4, 55, 95
4, 43920, Note_on_c, 4, 64, 95
4, 43920, Note_on_c, 4, 59, 95
4, 43920, Note_on_c, 4, 55, 95
4, 43981, Note_off_c, 4, 64, 95
4, 43981, Note_off_c, 4, 59, 95
4, 43981, Note_off_c, 4, 55, 95
4, 44160, Note_on_c, 4, 64, 95
4, 44160, Note_on_c, 4, 59, 95
4, 44160, Note_on_c, 4, 55, 95
4, 44221, Note_off_c, 4, 64, 95
4, 44221, Note_off_c, 4, 59, 95
4, 44221, Note_off_c, 4, 55, 95
4, 44400, Note_on_c, 4, 74, 79
4, 44400, Note_on_c, 4, 70, 79
4, 44400, Note_on_c, 4, 65, 79
4, 44640, Note_off_c, 4, 74, 79
4, 44640, Note_off_c, 4, 70, 79
4, 44640, Note_off_c, 4, 65, 79
4, 45120, Note_on_c, 4, 74, 79
4, 45120, Note_on_c, 4, 70, 79
4, 45120, Note_on_c, 4, 65, 79
4, 45360, Note_off_c, 4, 74, 79
4, 45360, Note_off_c, 4, 70, 79
4, 45360, Note_off_c, 4, 65, 79
4, 45360, Note_on_c, 4, 74, 79
4, 45360, Note_on_c, 4, 70, 79
4, 45360, Note_on_c, 4, 65, 79
4, 45600, Note_off_c, 4, 74, 79
4, 45600, Note_off_c, 4, 70, 79
4, 45600, Note_off_c, 4, 65, 79
4, 45600, Note_on_c, 4, 74, 79
4, 45600, Note_on_c, 4, 70, 79
4, 45600, Note_on_c, 4, 65, 79
4, 46080, Note_off_c, 4, 74, 79
4, 46080, Note_off_c, 4, 70, 79
4, 46080, Note_off_c, 4, 65, 79
4, 46080, Note_on_c, 4, 74, 79
4, 46080, Note_on_c, 4, 70, 79
4, 46080, Note_on_c, 4, 65, 79
4, 46800, Note_off_c, 4, 74, 79
4, 46800, Note_off_c, 4, 70, 79
4, 46800, Note_off_c, 4, 65, 79
4, 46800, Note_on_c, 4, 74, 79
4, 46800, Note_on_c, 4, 70, 79
4, 46800, Note_on_c, 4, 65, 79
4, 47040, Note_off_c, 4, 74, 79
4, 47040, Note_off_c, 4, 70, 79
4, 47040, Note_off_c, 4, 65, 79
4, 47040, Note_on_c, 4, 64, 95
4, 47040, Note_on_c, 4, 59, 95
4, 47040, Note_on_c, 4, 55, 95
4, 47101, Note_off_c, 4, 64, 95
4, 47101, Note_off_c, 4, 59, 95
4, 47101, Note_off_c, 4, 55, 95
4, 47520, Note_on_c, 4, 64, 95
4, 47520, Note_on_c, 4, 59, 95
4, 47520, Note_on_c, 4, 55, 95
4, 47581, Note_off_c, 4, 64, 95
4, 47581, Note_off_c, 4, 59, 95
4, 47581, Note_off_c, 4, 55, 95
4, 47760, Note_on_c, 4, 64, 95
4, 47760, Note_on_c, 4, 59, 95
4, 47760, Note_on_c, 4, 55, 95
4, 47821, Note_off_c, 4, 64, 95
4, 47821, Note_off_c, 4, 59, 95
4, 47821, Note_off_c, 4, 55, 95
4, 48000, Note_on_c, 4, 74, 79
4, 48000, Note_on_c, 4, 70, 79
4, 48000, Note_on_c, 4, 65, 79
4, 48240, Note_off_c, 4, 74, 79
4, 48240, Note_off_c, 4, 70, 79
4, 48240, Note_off_c, 4, 65, 79
4, 48240, Note_on_c, 4, 74, 79
4, 48240, Note_on_c, 4, 70, 79
4, 48240, Note_on_c, 4, 65, 79
4, 48480, Note_off_c, 4, 74, 79
4, 48480, Note_off_c, 4, 70, 79
4, 48480, Note_off_c, 4, 65, 79
4, 48480, Note_on_c, 4, 64, 95
4, 48480, Note_on_c, 4, 59, 95
4, 48480, Note_on_c, 4, 55, 95
4, 48541, Note_off_c, 4, 64, 95
4, 48541, Note_off_c, 4, 59, 95
4, 48541, Note_off_c, 4, 55, 95
4, 48960, Note_on_c, 4, 74, 79
4, 48960, Note_on_c, 4, 70, 79
4, 48960, Note_on_c, 4, 65, 79
4, 49440, Note_off_c, 4, 74, 79
4, 49440, Note_off_c, 4, 70, 79
4, 49440, Note_off_c, 4, 65, 79
4, 49440, Note_on_c, 4, 70, 79
4, 49440, Note_on_c, 4, 65, 79
4, 49920, Note_off_c, 4, 70, 79
4, 49920, Note_off_c, 4, 65, 79
4, 49920, Note_on_c, 4, 77, 79
4, 49920, Note_on_c, 4, 70, 79
4, 49920, Note_on_c, 4, 65, 79
4, 50400, Note_off_c, 4, 77, 79
4, 50400, Note_off_c, 4, 70, 79
4, 50400, Note_off_c, 4, 65, 79
4, 50400, Note_on_c, 4, 77, 79
4, 50400, Note_on_c, 4, 70, 79
4, 50400, Note_on_c, 4, 65, 79
4, 50640, Note_off_c, 4, 77, 79
4, 50640, Note_off_c, 4, 70, 79
4, 50640, Note_off_c, 4, 65, 79
4, 50640, Note_on_c, 4, 77, 79
4, 50640, Note_on_c, 4, 70, 79
4, 50640, Note_on_c, 4, 65, 79
4, 50880, Note_off_c, 4, 77, 79
4, 50880, Note_off_c, 4, 70, 79
4, 50880, Note_off_c, 4, 65, 79
4, 51360, Note_on_c, 4, 76, 79
4, 51360, Note_on_c, 4, 70, 79
4, 51360, Note_on_c, 4, 65, 79
4, 51840, Note_off_c, 4, 76, 79
4, 51840, Note_off_c, 4, 70, 79
4, 51840, Note_off_c, 4, 65, 79
4, 51840, Note_on_c, 4, 64, 95
4, 51840, Note_on_c, 4, 59, 95
4, 51840, Note_on_c, 4, 55, 95
4, 51901, Note_off_c, 4, 64, 95
4, 51901, Note_off_c, 4, 59, 95
4, 51901, Note_off_c, 4, 55, 95
4, 52080, Note_on_c, 4, 76, 79
4, 52080, Note_on_c, 4, 70, 79
4, 52080, Note_on_c, 4, 65, 79
4, 52320, Note_off_c, 4, 76, 79
4, 52320, Note_off_c, 4, 70, 79
4, 52320, Note_off_c, 4, 65, 79
4, 52320, Note_on_c, 4, 64, 95
4, 52320, Note_on_c, 4, 59, 95
4, 52320, Note_on_c, 4, 55, 95
4, 52381, Note_off_c, 4, 64, 95
4, 52381, Note_off_c, 4, 59, 95
4, 52381, Note_off_c, 4, 55, 95
4, 52560, Note_on_c, 4, 64, 95
4, 52560, Note_on_c, 4, 59, 95
4, 52560, Note_on_c, 4, 55, 95
4, 52621, Note_off_c, 4, 64, 95
4, 52621, Note_off_c, 4, 59, 95
4, 52621, Note_off_c, 4, 55, 95
4, 52800, Note_on_c, 4, 76, 79
4, 52800, Note_on_c, 4, 70, 79
4, 52800, Note_on_c, 4, 65, 79
4, 53040, Note_off_c, 4, 76, 79
4, 53040, Note_off_c, 4, 70, 79
4, 53040, Note_off_c, 4, 65, 79
4, 53040, Note_on_c, 4, 76, 79
4, 53040, Note_on_c, 4, 70, 79
4, 53040, Note_on_c, 4, 65, 79
4, 53280, Note_off_c, 4, 76, 79
4, 53280, Note_off_c, 4, 70, 79
4, 53280, Note_off_c, 4, 65, 79
4, 53760, Note_on_c, 4, 74, 79
4, 53760, Note_on_c, 4, 70, 79
4, 53760, Note_on_c, 4, 65, 79
4, 54480, Note_off_c, 4, 74, 79
4, 54480, Note_off_c, 4, 70, 79
4, 54480, Note_off_c, 4, 65, 79
4, 54480, Note_on_c, 4, 74, 79
4, 54480, Note_on_c, 4, 70, 79
4, 54480, Note_on_c, 4, 65, 79
4, 54720, Note_off_c, 4, 74, 79
4, 54720, Note_off_c, 4, 70, 79
4, 54720, Note_off_c, 4, 65, 79
4, 54720, Note_on_c, 4, 64, 95
4, 54720, Note_on_c, 4, 59, 95
4, 54720, Note_on_c, 4, 55, 95
4, 54781, Note_off_c, 4, 64, 95
4, 54781, Note_off_c, 4, 59, 95
4, 54781, Note_off_c, 4, 55, 95
4, 55200, Note_on_c, 4, 64, 95
4, 55200, Note_on_c, 4, 59, 95
4, 55200, Note_on_c, 4, 55, 95
4, 55261, Note_off_c, 4, 64, 95
4, 55261, Note_off_c, 4, 59, 95
4, 55261, Note_off_c, 4, 55, 95
4, 55440, Note_on_c, 4, 64, 95
4, 55440, Note_on_c, 4, 59, 95
4, 55440, Note_on_c, 4, 55, 95
4, 55501, Note_off_c, 4, 64, 95
4, 55501, Note_off_c, 4, 59, 95
4, 55501, Note_off_c, 4, 55, 95
4, 55680, Note_on_c, 4, 64, 95
4, 55680, Note_on_c, 4, 59, 95
4, 55680, Note_on_c, 4, 55, 95
4, 55741, Note_off_c, 4, 64, 95
4, 55741, Note_off_c, 4, 59, 95
4, 55741, Note_off_c, 4, 55, 95
4, 55920, Note_on_c, 4, 74, 79
4, 55920, Note_on_c, 4, 70, 79
4, 55920, Note_on_c, 4, 65, 79
4, 56160, Note_off_c, 4, 74, 79
4, 56160, Note_off_c, 4, 70, 79
4, 56160, Note_off_c, 4, 65, 79
4, 56160, Note_on_c, 4, 64, 95
4, 56160, Note_on_c, 4, 59, 95
4, 56160, Note_on_c, 4, 55, 95
4, 56221, Note_off_c, 4, 64, 95
4, 56221, Note_off_c, 4, 59, 95
4, 56221, Note_off_c, 4, 55, 95
4, 56400, Note_on_c, 4, 64, 95
4, 56400, Note_on_c, 4, 59, 95
4, 56400, Note_on_c, 4, 55, 95
4, 56461, Note_off_c, 4, 64, 95
4, 56461, Note_off_c, 4, 59, 95
4, 56461, Note_off_c, 4, 55, 95
4, 56640, Note_on_c, 4, 74, 79
4, 56640, Note_on_c, 4, 70, 79
4, 56640, Note_on_c, 4, 65, 79
4, 56880, Note_off_c, 4, 74, 79
4, 56880, Note_off_c, 4, 70, 79
4, 56880, Note_off_c, 4, 65, 79
4, 56880, Note_on_c, 4, 74, 79
4, 56880, Note_on_c, 4, 70, 79
4, 56880, Note_on_c, 4, 65, 79
4, 57120, Note_off_c, 4, 74, 79
4, 57120, Note_off_c, 4, 70, 79
4, 57120, Note_off_c, 4, 65, 79
4, 57120, Note_on_c, 4, 64, 95
4, 57120, Note_on_c, 4, 59, 95
4, 57120, Note_on_c, 4, 55, 95
4, 57181, Note_off_c, 4, 64, 95
4, 57181, Note_off_c, 4, 59, 95
4, 57181, Note_off_c, 4, 55, 95
4, 57360, Note_on_c, 4, 64, 95
4, 57360, Note_on_c, 4, 59, 95
4, 57360, Note_on_c, 4, 55, 95
4, 57421, Note_off_c, 4, 64, 95
4, 57421, Note_off_c, 4, 59, 95
4, 57421, Note_off_c, 4, 55, 95
4, 57600, Note_on_c, 4, 74, 79
4, 57600, Note_on_c, 4, 70, 79
4, 57600, Note_on_c, 4, 65, 79
4, 58320, Note_off_c, 4, 74, 79
4, 58320, Note_off_c, 4, 70, 79
4, 58320, Note_off_c, 4, 65, 79
4, 58320, Note_on_c, 4, 74, 79
4, 58320, Note_on_c, 4, 70, 79
4, 58320, Note_on_c, 4, 65, 79
4, 58560, Note_off_c, 4, 74, 79
4, 58560, Note_off_c, 4, 70, 79
4, 58560, Note_off_c, 4, 65, 79
4, 58560, Note_on_c, 4, 64, 95
4, 58560, Note_on_c, 4, 59, 95
4, 58560, Note_on_c, 4, 55, 95
4, 58621, Note_off_c, 4, 64, 95
4, 58621, Note_off_c, 4, 59, 95
4, 58621, Note_off_c, 4, 55, 95
4, 59040, Note_on_c, 4, 64, 95
4, 59040, Note_on_c, 4, 59, 95
4, 59040, Note_on_c, 4, 55, 95
4, 59101, Note_off_c, 4, 64, 95
4, 59101, Note_off_c, 4, 59, 95
4, 59101, Note_off_c, 4, 55, 95
4, 59280, Note_on_c, 4, 64, 95
4, 59280, Note_on_c, 4, 59, 95
4, 59280, Note_on_c, 4, 55, 95
4, 59341, Note_off_c, 4, 64, 95
4, 59341, Note_off_c, 4, 59, 95
4, 59341, Note_off_c, 4, 55, 95
4, 59520, Note_on_c, 4, 64, 95
4, 59520, Note_on_c, 4, 59, 95
4, 59520, Note_on_c, 4, 55, 95
4, 59581, Note_off_c, 4, 64, 95
4, 59581, Note_off_c, 4, 59, 95
4, 59581, Note_off_c, 4, 55, 95
4, 59760, Note_on_c, 4, 74, 79
4, 59760, Note_on_c, 4, 70, 79
4, 59760, Note_on_c, 4, 65, 79
4, 60000, Note_off_c, 4, 74, 79
4, 60000, Note_off_c, 4, 70, 79
4, 60000, Note_off_c, 4, 65, 79
4, 60480, Note_on_c, 4, 74, 79
4, 60480, Note_on_c, 4, 70, 79
4, 60480, Note_on_c, 4, 65, 79
4, 60720, Note_off_c, 4, 74, 79
4, 60720, Note_off_c, 4, 70, 79
4, 60720, Note_off_c, 4, 65, 79
4, 60720, Note_on_c, 4, 74, 79
4, 60720, Note_on_c, 4, 70, 79
4, 60720, Note_on_c, 4, 65, 79
4, 60960, Note_off_c, 4, 74, 79
4, 60960, Note_off_c, 4, 70, 79
4, 60960, Note_off_c, 4, 65, 79
4, 60960, Note_on_c, 4, 74, 79
4, 60960, Note_on_c, 4, 70, 79
4, 60960, Note_on_c, 4, 65, 79
4, 61440, Note_off_c, 4, 74, 79
4, 61440, Note_off_c, 4, 70, 79
4, 61440, Note_off_c, 4, 65, 79
4, 61440, Note_on_c, 4, 74, 79
4, 61440, Note_on_c, 4, 70, 79
4, 61440, Note_on_c, 4, 65, 79
4, 62160, Note_off_c, 4, 74, 79
4, 62160, Note_off_c, 4, 70, 79
4, 62160, Note_off_c, 4, 65, 79
4, 62160, Note_on_c, 4, 74, 79
4, 62160, Note_on_c, 4, 70, 79
4, 62160, Note_on_c, 4, 65, 79
4, 62400, Note_off_c, 4, 74, 79
4, 62400, Note_off_c, 4, 70, 79
4, 62400, Note_off_c, 4, 65, 79
4, 62400, Note_on_c, 4, 64, 95
4, 62400, Note_on_c, 4, 59, 95
4, 62400, Note_on_c, 4, 55, 95
4, 62461, Note_off_c, 4, 64, 95
4, 62461, Note_off_c, 4, 59, 95
4, 62461, Note_off_c, 4, 55, 95
4, 62880, Note_on_c, 4, 64, 95
4, 62880, Note_on_c, 4, 59, 95
4, 62880, Note_on_c, 4, 55, 95
4, 62941, Note_off_c, 4, 64, 95
4, 62941, Note_off_c, 4, 59, 95
4, 62941, Note_off_c, 4, 55, 95
4, 63120, Note_on_c, 4, 64, 95
4, 63120, Note_on_c, 4, 59, 95
4, 63120, Note_on_c, 4, 55, 95
4, 63181, Note_off_c, 4, 64, 95
4, 63181, Note_off_c, 4, 59, 95
4, 63181, Note_off_c, 4, 55, 95
4, 63360, Note_on_c, 4, 64, 95
4, 63360, Note_on_c, 4, 59, 95
4, 63360, Note_on_c, 4, 55, 95
4, 63421, Note_off_c, 4, 64, 95
4, 63421, Note_off_c, 4, 59, 95
4, 63421, Note_off_c, 4, 55, 95
4, 63600, Note_on_c, 4, 64, 95
4, 63600, Note_on_c, 4, 59, 95
4, 63600, Note_on_c, 4, 55, 95
4, 63661, Note_off_c, 4, 64, 95
4, 63661, Note_off_c, 4, 59, 95
4, 63661, Note_off_c, 4, 55, 95
4, 63840, Note_on_c, 4, 64, 95
4, 63840, Note_on_c, 4, 59, 95
4, 63840, Note_on_c, 4, 55, 95
4, 63901, Note_off_c, 4, 64, 95
4, 63901, Note_off_c, 4, 59, 95
4, 63901, Note_off_c, 4, 55, 95
4, 64320, Note_on_c, 4, 76, 79
4, 64320, Note_on_c, 4, 72, 79
4, 64320, Note_on_c, 4, 67, 79
4, 64560, Note_off_c, 4, 76, 79
4, 64560, Note_off_c, 4, 72, 79
4, 64560, Note_off_c, 4, 67, 79
4, 64560, Note_on_c, 4, 76, 79
4, 64560, Note_on_c, 4, 72, 79
4, 64560, Note_on_c, 4, 67, 79
4, 64800, Note_off_c, 4, 76, 79
4, 64800, Note_off_c, 4, 72, 79
4, 64800, Note_off_c, 4, 67, 79
4, 65280, Note_on_c, 4, 74, 79
4, 65280, Note_on_c, 4, 70, 79
4, 65280, Note_on_c, 4, 65, 79
4, 66000, Note_off_c, 4, 74, 79
4, 66000, Note_off_c, 4, 70, 79
4, 66000, Note_off_c, 4, 65, 79
4, 66000, Note_on_c, 4, 74, 79
4, 66000, Note_on_c, 4, 70, 79
4, 66000, Note_on_c, 4, 65, 79
4, 66240, Note_off_c, 4, 74, 79
4, 66240, Note_off_c, 4, 70, 79
4, 66240, Note_off_c, 4, 65, 79
4, 66240, Note_on_c, 4, 64, 95
4, 66240, Note_on_c, 4, 59, 95
4, 66240, Note_on_c, 4, 55, 95
4, 66301, Note_off_c, 4, 64, 95
4, 66301, Note_off_c, 4, 59, 95
4, 66301, Note_off_c, 4, 55, 95
4, 66720, Note_on_c, 4, 64, 95
4, 66720, Note_on_c, 4, 59, 95
4, 66720, Note_on_c, 4, 55, 95
4, 66781, Note_off_c, 4, 64, 95
4, 66781, Note_off_c, 4, 59, 95
4, 66781, Note_off_c, 4, 55, 95
4, 66960, Note_on_c, 4, 64, 95
4, 66960, Note_on_c, 4, 59, 95
4, 66960, Note_on_c, 4, 55, 95
4, 67021, Note_off_c, 4, 64, 95
4, 67021, Note_off_c, 4, 59, 95
4, 67021, Note_off_c, 4, 55, 95
4, 67200, Note_on_c, 4, 64, 95
4, 67200, Note_on_c, 4, 59, 95
4, 67200, Note_on_c, 4, 55, 95
4, 67261, Note_off_c, 4, 64, 95
4, 67261, Note_off_c, 4, 59, 95
4, 67261, Note_off_c, 4, 55, 95
4, 67440, Note_on_c, 4, 64, 95
4, 67440, Note_on_c, 4, 59, 95
4, 67440, Note_on_c, 4, 55, 95
4, 67501, Note_off_c, 4, 64, 95
4, 67501, Note_off_c, 4, 59, 95
4, 67501, Note_off_c, 4, 55, 95
4, 67680, Note_on_c, 4, 64, 95
4, 67680, Note_on_c, 4, 59, 95
4, 67680, Note_on_c, 4, 55, 95
4, 67741, Note_off_c, 4, 64, 95
4, 67741, Note_off_c, 4, 59, 95
4, 67741, Note_off_c, 4, 55, 95
4, 68160, Note_on_c, 4, 64, 95
4, 68160, Note_on_c, 4, 59, 95
4, 68160, Note_on_c, 4, 55, 95
4, 68221, Note_off_c, 4, 64, 95
4, 68221, Note_off_c, 4, 59, 95
4, 68221, Note_off_c, 4, 55, 95
4, 68640, Note_on_c, 4, 74, 79
4, 68640, Note_on_c, 4, 70, 79
4, 68640, Note_on_c, 4, 65, 79
4, 69120, Note_off_c, 4, 74, 79
4, 69120, Note_off_c, 4, 70, 79
4, 69120, Note_off_c, 4, 65, 79
4, 69120, Note_on_c, 4, 74, 79
4, 69120, Note_on_c, 4, 70, 79
4, 69120, Note_on_c, 4, 65, 79
4, 69840, Note_off_c, 4, 74, 79
4, 69840, Note_off_c, 4, 70, 79
4, 69840, Note_off_c, 4, 65, 79
4, 69840, Note_on_c, 4, 74, 79
4, 69840, Note_on_c, 4, 70, 79
4, 69840, Note_on_c, 4, 65, 79
4, 70080, Note_off_c, 4, 74, 79
4, 70080, Note_off_c, 4, 70, 79
4, 70080, Note_off_c, 4, 65, 79
4, 70080, Note_on_c, 4, 64, 95
4, 70080, Note_on_c, 4, 59, 95
4, 70080, Note_on_c, 4, 55, 95
4, 70141, Note_off_c, 4, 64, 95
4, 70141, Note_off_c, 4, 59, 95
4, 70141, Note_off_c, 4, 55, 95
4, 70560, Note_on_c, 4, 64, 95
4, 70560, Note_on_c, 4, 59, 95
4, 70560, Note_on_c, 4, 55, 95
4, 70621, Note_off_c, 4, 64, 95
4, 70621, Note_off_c, 4, 59, 95
4, 70621, Note_off_c, 4, 55, 95
4, 70800, Note_on_c, 4, 64, 95
4, 70800, Note_on_c, 4, 59, 95
4, 70800, Note_on_c, 4, 55, 95
4, 70861, Note_off_c, 4, 64, 95
4, 70861, Note_off_c, 4, 59, 95
4, 70861, Note_off_c, 4, 55, 95
4, 71040, Note_on_c, 4, 64, 95
4, 71040, Note_on_c, 4, 59, 95
4, 71040, Note_on_c, 4, 55, 95
4, 71101, Note_off_c, 4, 64, 95
4, 71101, Note_off_c, 4, 59, 95
4, 71101, Note_off_c, 4, 55, 95
4, 71280, Note_on_c, 4, 64, 95
4, 71280, Note_on_c, 4, 59, 95
4, 71280, Note_on_c, 4, 55, 95
4, 71341, Note_off_c, 4, 64, 95
4, 71341, Note_off_c, 4, 59, 95
4, 71341, Note_off_c, 4, 55, 95
4, 71520, Note_on_c, 4, 64, 95
4, 71520, Note_on_c, 4, 59, 95
4, 71520, Note_on_c, 4, 55, 95
4, 71581, Note_off_c, 4, 64, 95
4, 71581, Note_off_c, 4, 59, 95
4, 71581, Note_off_c, 4, 55, 95
4, 72000, Note_on_c, 4, 76, 79
4, 72000, Note_on_c, 4, 72, 79
4, 72000, Note_on_c, 4, 67, 79
4, 72240, Note_off_c, 4, 76, 79
4, 72240, Note_off_c, 4, 72, 79
4, 72240, Note_off_c, 4, 67, 79
4, 72240, Note_on_c, 4, 76, 79
4, 72240, Note_on_c, 4, 72, 79
4, 72240, Note_on_c, 4, 67, 79
4, 72480, Note_off_c, 4, 76, 79
4, 72480, Note_off_c, 4, 72, 79
4, 72480, Note_off_c, 4, 67, 79
4, 72960, Note_on_c, 4, 74, 79
4, 72960, Note_on_c, 4, 70, 79
4, 72960, Note_on_c, 4, 65, 79
4, 73680, Note_off_c, 4, 74, 79
4, 73680, Note_off_c, 4, 70, 79
4, 73680, Note_off_c, 4, 65, 79
4, 73680, Note_on_c, 4, 74, 79
4, 73680, Note_on_c, 4, 70, 79
4, 73680, Note_on_c, 4, 65, 79
4, 73920, Note_off_c, 4, 74, 79
4, 73920, Note_off_c, 4, 70, 79
4, 73920, Note_off_c, 4, 65, 79
4, 73920, Note_on_c, 4, 64, 95
4, 73920, Note_on_c, 4, 59, 79
4, 73920, Note_on_c, 4, 55, 95
4, 73981, Note_off_c, 4, 64, 95
4, 73981, Note_off_c, 4, 59, 79
4, 73981, Note_off_c, 4, 55, 95
4, 74400, Note_on_c, 4, 64, 95
4, 74400, Note_on_c, 4, 59, 79
4, 74400, Note_on_c, 4, 55, 95
4, 74461, Note_off_c, 4, 64, 95
4, 74461, Note_off_c, 4, 59, 79
4, 74461, Note_off_c, 4, 55, 95
4, 74640, Note_on_c, 4, 64, 95
4, 74640, Note_on_c, 4, 59, 79
4, 74640, Note_on_c, 4, 55, 95
4, 74701, Note_off_c, 4, 64, 95
4, 74701, Note_off_c, 4, 59, 79
4, 74701, Note_off_c, 4, 55, 95
4, 74880, Note_on_c, 4, 64, 95
4, 74880, Note_on_c, 4, 59, 79
4, 74880, Note_on_c, 4, 55, 95
4, 74941, Note_off_c, 4, 64, 95
4, 74941, Note_off_c, 4, 59, 79
4, 74941, Note_off_c, 4, 55, 95
4, 75120, Note_on_c, 4, 64, 95
4, 75120, Note_on_c, 4, 59, 79
4, 75120, Note_on_c, 4, 55, 95
4, 75181, Note_off_c, 4, 64, 95
4, 75181, Note_off_c, 4, 59, 79
4, 75181, Note_off_c, 4, 55, 95
4, 75360, Note_on_c, 4, 64, 79
4, 75360, Note_on_c, 4, 59, 79
4, 75360, Note_on_c, 4, 55, 95
4, 75421, Note_off_c, 4, 64, 79
4, 75421, Note_off_c, 4, 59, 79
4, 75421, Note_off_c, 4, 55, 95
4, 75840, Note_on_c, 4, 64, 79
4, 75840, Note_on_c, 4, 59, 79
4, 75840, Note_on_c, 4, 55, 79
4, 75901, Note_off_c, 4, 64, 79
4, 75901, Note_off_c, 4, 59, 79
4, 75901, Note_off_c, 4, 55, 79
4, 76320, Note_on_c, 4, 74, 79
4, 76320, Note_on_c, 4, 70, 79
4, 76320, Note_on_c, 4, 65, 79
4, 76800, Note_off_c, 4, 74, 79
4, 76800, Note_off_c, 4, 70, 79
4, 76800, Note_off_c, 4, 65, 79
4, 76800, Note_on_c, 4, 74, 79
4, 76800, Note_on_c, 4, 70, 79
4, 76800, Note_on_c, 4, 65, 79
4, 77520, Note_off_c, 4, 74, 79
4, 77520, Note_off_c, 4, 70, 79
4, 77520, Note_off_c, 4, 65, 79
4, 77520, Note_on_c, 4, 74, 79
4, 77520, Note_on_c, 4, 70, 79
4, 77520, Note_on_c, 4, 65, 79
4, 77760, Note_off_c, 4, 74, 79
4, 77760, Note_off_c, 4, 70, 79
4, 77760, Note_off_c, 4, 65, 79
4, 77760, Note_on_c, 4, 64, 95
4, 77760, Note_on_c, 4, 59, 95
4, 77760, Note_on_c, 4, 55, 95
4, 77821, Note_off_c, 4, 64, 95
4, 77821, Note_off_c, 4, 59, 95
4, 77821, Note_off_c, 4, 55, 95
4, 78240, Note_on_c, 4, 64, 95
4, 78240, Note_on_c, 4, 59, 95
4, 78240, Note_on_c, 4, 55, 95
4, 78301, Note_off_c, 4, 64, 95
4, 78301, Note_off_c, 4, 59, 95
4, 78301, Note_off_c, 4, 55, 95
4, 78480, Note_on_c, 4, 64, 95
4, 78480, Note_on_c, 4, 59, 95
4, 78480, Note_on_c, 4, 55, 95
4, 78541, Note_off_c, 4, 64, 95
4, 78541, Note_off_c, 4, 59, 95
4, 78541, Note_off_c, 4, 55, 95
4, 78720, Note_on_c, 4, 74, 79
4, 78720, Note_on_c, 4, 70, 79
4, 78720, Note_on_c, 4, 65, 79
4, 78960, Note_off_c, 4, 74, 79
4, 78960, Note_off_c, 4, 70, 79
4, 78960, Note_off_c, 4, 65, 79
4, 78960, Note_on_c, 4, 74, 79
4, 78960, Note_on_c, 4, 70, 79
4, 78960, Note_on_c, 4, 65, 79
4, 79200, Note_off_c, 4, 74, 79
4, 79200, Note_off_c, 4, 70, 79
4, 79200, Note_off_c, 4, 65, 79
4, 79200, Note_on_c, 4, 64, 95
4, 79200, Note_on_c, 4, 59, 95
4, 79200, Note_on_c, 4, 55, 95
4, 79261, Note_off_c, 4, 64, 95
4, 79261, Note_off_c, 4, 59, 95
4, 79261, Note_off_c, 4, 55, 95
4, 79680, Note_on_c, 4, 74, 79
4, 79680, Note_on_c, 4, 70, 79
4, 79680, Note_on_c, 4, 65, 79
4, 80160, Note_off_c, 4, 74, 79
4, 80160, Note_off_c, 4, 70, 79
4, 80160, Note_off_c, 4, 65, 79
4, 80160, Note_on_c, 4, 70, 79
4, 80160, Note_on_c, 4, 65, 79
4, 80640, Note_off_c, 4, 70, 79
4, 80640, Note_off_c, 4, 65, 79
4, 80640, Note_on_c, 4, 77, 79
4, 80640, Note_on_c, 4, 70, 79
4, 80640, Note_on_c, 4, 65, 79
4, 81120, Note_off_c, 4, 77, 79
4, 81120, Note_off_c, 4, 70, 79
4, 81120, Note_off_c, 4, 65, 79
4, 81120, Note_on_c, 4, 77, 79
4, 81120, Note_on_c, 4, 70, 79
4, 81120, Note_on_c, 4, 65, 79
4, 81360, Note_off_c, 4, 77, 79
4, 81360, Note_off_c, 4, 70, 79
4, 81360, Note_off_c, 4, 65, 79
4, 81360, Note_on_c, 4, 77, 79
4, 81360, Note_on_c, 4, 70, 79
4, 81360, Note_on_c, 4, 65, 79
4, 81600, Note_off_c, 4, 77, 79
4, 81600, Note_off_c, 4, 70, 79
4, 81600, Note_off_c, 4, 65, 79
4, 82080, Note_on_c, 4, 76, 79
4, 82080, Note_on_c, 4, 70, 79
4, 82080, Note_on_c, 4, 65, 79
4, 82560, Note_off_c, 4, 76, 79
4, 82560, Note_off_c, 4, 70, 79
4, 82560, Note_off_c, 4, 65, 79
4, 82560, Note_on_c, 4, 64, 95
4, 82560, Note_on_c, 4, 59, 95
4, 82560, Note_on_c, 4, 55, 95
4, 82621, Note_off_c, 4, 64, 95
4, 82621, Note_off_c, 4, 59, 95
4, 82621, Note_off_c, 4, 55, 95
4, 82800, Note_on_c, 4, 76, 79
4, 82800, Note_on_c, 4, 70, 79
4, 82800, Note_on_c, 4, 65, 79
4, 83040, Note_off_c, 4, 76, 79
4, 83040, Note_off_c, 4, 70, 79
4, 83040, Note_off_c, 4, 65, 79
4, 83040, Note_on_c, 4, 64, 95
4, 83040, Note_on_c, 4, 59, 95
4, 83040, Note_on_c, 4, 55, 95
4, 83101, Note_off_c, 4, 64, 95
4, 83101, Note_off_c, 4, 59, 95
4, 83101, Note_off_c, 4, 55, 95
4, 83280, Note_on_c, 4, 64, 95
4, 83280, Note_on_c, 4, 59, 95
4, 83280, Note_on_c, 4, 55, 95
4, 83341, Note_off_c, 4, 64, 95
4, 83341, Note_off_c, 4, 59, 95
4, 83341, Note_off_c, 4, 55, 95
4, 83520, Note_on_c, 4, 76, 79
4, 83520, Note_on_c, 4, 70, 79
4, 83520, Note_on_c, 4, 65, 79
4, 83760, Note_off_c, 4, 76, 79
4, 83760, Note_off_c, 4, 70, 79
4, 83760, Note_off_c, 4, 65, 79
4, 83760, Note_on_c, 4, 76, 79
4, 83760, Note_on_c, 4, 70, 79
4, 83760, Note_on_c, 4, 65, 79
4, 84000, Note_off_c, 4, 76, 79
4, 84000, Note_off_c, 4, 70, 79
4, 84000, Note_off_c, 4, 65, 79
4, 84480, Note_on_c, 4, 74, 79
4, 84480, Note_on_c, 4, 70, 79
4, 84480, Note_on_c, 4, 65, 79
4, 85200, Note_off_c, 4, 74, 79
4, 85200, Note_off_c, 4, 70, 79
4, 85200, Note_off_c, 4, 65, 79
4, 85200, Note_on_c, 4, 74, 79
4, 85200, Note_on_c, 4, 70, 79
4, 85200, Note_on_c, 4, 65, 79
4, 85440, Note_off_c, 4, 74, 79
4, 85440, Note_off_c, 4, 70, 79
4, 85440, Note_off_c, 4, 65, 79
4, 85440, Note_on_c, 4, 64, 95
4, 85440, Note_on_c, 4, 59, 95
4, 85440, Note_on_c, 4, 55, 95
4, 85501, Note_off_c, 4, 64, 95
4, 85501, Note_off_c, 4, 59, 95
4, 85501, Note_off_c, 4, 55, 95
4, 85920, Note_on_c, 4, 64, 95
4, 85920, Note_on_c, 4, 59, 95
4, 85920, Note_on_c, 4, 55, 95
4, 85981, Note_off_c, 4, 64, 95
4, 85981, Note_off_c, 4, 59, 95
4, 85981, Note_off_c, 4, 55, 95
4, 86160, Note_on_c, 4, 64, 95
4, 86160, Note_on_c, 4, 59, 95
4, 86160, Note_on_c, 4, 55, 95
4, 86221, Note_off_c, 4, 64, 95
4, 86221, Note_off_c, 4, 59, 95
4, 86221, Note_off_c, 4, 55, 95
4, 86400, Note_on_c, 4, 64, 95
4, 86400, Note_on_c, 4, 59, 95
4, 86400, Note_on_c, 4, 55, 95
4, 86461, Note_off_c, 4, 64, 95
4, 86461, Note_off_c, 4, 59, 95
4, 86461, Note_off_c, 4, 55, 95
4, 86640, Note_on_c, 4, 74, 79
4, 86640, Note_on_c, 4, 70, 79
4, 86640, Note_on_c, 4, 65, 79
4, 86880, Note_off_c, 4, 74, 79
4, 86880, Note_off_c, 4, 70, 79
4, 86880, Note_off_c, 4, 65, 79
4, 86880, Note_on_c, 4, 64, 95
4, 86880, Note_on_c, 4, 59, 95
4, 86880, Note_on_c, 4, 55, 95
4, 86941, Note_off_c, 4, 64, 95
4, 86941, Note_off_c, 4, 59, 95
4, 86941, Note_off_c, 4, 55, 95
4, 87120, Note_on_c, 4, 64, 95
4, 87120, Note_on_c, 4, 59, 95
4, 87120, Note_on_c, 4, 55, 95
4, 87181, Note_off_c, 4, 64, 95
4, 87181, Note_off_c, 4, 59, 95
4, 87181, Note_off_c, 4, 55, 95
4, 87360, Note_on_c, 4, 74, 79
4, 87360, Note_on_c, 4, 70, 79
4, 87360, Note_on_c, 4, 65, 79
4, 87600, Note_off_c, 4, 74, 79
4, 87600, Note_off_c, 4, 70, 79
4, 87600, Note_off_c, 4, 65, 79
4, 87600, Note_on_c, 4, 74, 79
4, 87600, Note_on_c, 4, 70, 79
4, 87600, Note_on_c, 4, 65, 79
4, 87840, Note_off_c, 4, 74, 79
4, 87840, Note_off_c, 4, 70, 79
4, 87840, Note_off_c, 4, 65, 79
4, 87840, Note_on_c, 4, 64, 95
4, 87840, Note_on_c, 4, 59, 95
4, 87840, Note_on_c, 4, 55, 95
4, 87901, Note_off_c, 4, 64, 95
4, 87901, Note_off_c, 4, 59, 95
4, 87901, Note_off_c, 4, 55, 95
4, 88080, Note_on_c, 4, 64, 95
4, 88080, Note_on_c, 4, 59, 95
4, 88080, Note_on_c, 4, 55, 95
4, 88141, Note_off_c, 4, 64, 95
4, 88141, Note_off_c, 4, 59, 95
4, 88141, Note_off_c, 4, 55, 95
4, 88320, Note_on_c, 4, 74, 79
4, 88320, Note_on_c, 4, 70, 79
4, 88320, Note_on_c, 4, 65, 79
4, 89040, Note_off_c, 4, 74, 79
4, 89040, Note_off_c, 4, 70, 79
4, 89040, Note_off_c, 4, 65, 79
4, 89040, Note_on_c, 4, 74, 79
4, 89040, Note_on_c, 4, 70, 79
4, 89040, Note_on_c, 4, 65, 79
4, 89280, Note_off_c, 4, 74, 79
4, 89280, Note_off_c, 4, 70, 79
4, 89280, Note_off_c, 4, 65, 79
4, 89280, Note_on_c, 4, 64, 95
4, 89280, Note_on_c, 4, 59, 95
4, 89280, Note_on_c, 4, 55, 95
4, 89341, Note_off_c, 4, 64, 95
4, 89341, Note_off_c, 4, 59, 95
4, 89341, Note_off_c, 4, 55, 95
4, 89760, Note_on_c, 4, 64, 95
4, 89760, Note_on_c, 4, 59, 95
4, 89760, Note_on_c, 4, 55, 95
4, 89821, Note_off_c, 4, 64, 95
4, 89821, Note_off_c, 4, 59, 95
4, 89821, Note_off_c, 4, 55, 95
4, 90000, Note_on_c, 4, 64, 95
4, 90000, Note_on_c, 4, 59, 95
4, 90000, Note_on_c, 4, 55, 95
4, 90061, Note_off_c, 4, 64, 95
4, 90061, Note_off_c, 4, 59, 95
4, 90061, Note_off_c, 4, 55, 95
4, 90240, Note_on_c, 4, 64, 95
4, 90240, Note_on_c, 4, 59, 95
4, 90240, Note_on_c, 4, 55, 95
4, 90301, Note_off_c, 4, 64, 95
4, 90301, Note_off_c, 4, 59, 95
4, 90301, Note_off_c, 4, 55, 95
4, 90480, Note_on_c, 4, 74, 79
4, 90480, Note_on_c, 4, 70, 79
4, 90480, Note_on_c, 4, 65, 79
4, 90720, Note_off_c, 4, 74, 79
4, 90720, Note_off_c, 4, 70, 79
4, 90720, Note_off_c, 4, 65, 79
4, 91200, Note_on_c, 4, 74, 79
4, 91200, Note_on_c, 4, 70, 79
4, 91200, Note_on_c, 4, 65, 79
4, 91440, Note_off_c, 4, 74, 79
4, 91440, Note_off_c, 4, 70, 79
4, 91440, Note_off_c, 4, 65, 79
4, 91440, Note_on_c, 4, 74, 79
4, 91440, Note_on_c, 4, 70, 79
4, 91440, Note_on_c, 4, 65, 79
4, 91680, Note_off_c, 4, 74, 79
4, 91680, Note_off_c, 4, 70, 79
4, 91680, Note_off_c, 4, 65, 79
4, 91680, Note_on_c, 4, 74, 79
4, 91680, Note_on_c, 4, 70, 79
4, 91680, Note_on_c, 4, 65, 79
4, 92160, Note_off_c, 4, 74, 79
4, 92160, Note_off_c, 4, 70, 79
4, 92160, Note_off_c, 4, 65, 79
4, 92160, Note_on_c, 4, 74, 79
4, 92160, Note_on_c, 4, 70, 79
4, 92160, Note_on_c, 4, 65, 79
4, 92880, Note_off_c, 4, 74, 79
4, 92880, Note_off_c, 4, 70, 79
4, 92880, Note_off_c, 4, 65, 79
4, 92880, Note_on_c, 4, 74, 79
4, 92880, Note_on_c, 4, 70, 79
4, 92880, Note_on_c, 4, 65, 79
4, 93120, Note_off_c, 4, 74, 79
4, 93120, Note_off_c, 4, 70, 79
4, 93120, Note_off_c, 4, 65, 79
4, 93120, Note_on_c, 4, 64, 95
4, 93120, Note_on_c, 4, 59, 95
4, 93120, Note_on_c, 4, 55, 95
4, 93181, Note_off_c, 4, 64, 95
4, 93181, Note_off_c, 4, 59, 95
4, 93181, Note_off_c, 4, 55, 95
4, 93600, Note_on_c, 4, 64, 95
4, 93600, Note_on_c, 4, 59, 95
4, 93600, Note_on_c, 4, 55, 95
4, 93661, Note_off_c, 4, 64, 95
4, 93661, Note_off_c, 4, 59, 95
4, 93661, Note_off_c, 4, 55, 95
4, 93840, Note_on_c, 4, 64, 95
4, 93840, Note_on_c, 4, 59, 95
4, 93840, Note_on_c, 4, 55, 95
4, 93901, Note_off_c, 4, 64, 95
4, 93901, Note_off_c, 4, 59, 95
4, 93901, Note_off_c, 4, 55, 95
4, 94080, Note_on_c, 4, 74, 79
4, 94080, Note_on_c, 4, 70, 79
4, 94080, Note_on_c, 4, 65, 79
4, 94320, Note_off_c, 4, 74, 79
4, 94320, Note_off_c, 4, 70, 79
4, 94320, Note_off_c, 4, 65, 79
4, 94320, Note_on_c, 4, 74, 79
4, 94320, Note_on_c, 4, 70, 79
4, 94320, Note_on_c, 4, 65, 79
4, 94560, Note_off_c, 4, 74, 79
4, 94560, Note_off_c, 4, 70, 79
4, 94560, Note_off_c, 4, 65, 79
4, 94560, Note_on_c, 4, 64, 95
4, 94560, Note_on_c, 4, 59, 95
4, 94560, Note_on_c, 4, 55, 95
4, 94621, Note_off_c, 4, 64, 95
4, 94621, Note_off_c, 4, 59, 95
4, 94621, Note_off_c, 4, 55, 95
4, 95040, Note_on_c, 4, 74, 79
4, 95040, Note_on_c, 4, 70, 79
4, 95040, Note_on_c, 4, 65, 79
4, 95520, Note_off_c, 4, 74, 79
4, 95520, Note_off_c, 4, 70, 79
4, 95520, Note_off_c, 4, 65, 79
4, 95520, Note_on_c, 4, 70, 79
4, 95520, Note_on_c, 4, 65, 79
4, 96000, Note_off_c, 4, 70, 79
4, 96000, Note_off_c, 4, 65, 79
4, 96000, Note_on_c, 4, 77, 79
4, 96000, Note_on_c, 4, 70, 79
4, 96000, Note_on_c, 4, 65, 79
4, 96480, Note_off_c, 4, 77, 79
4, 96480, Note_off_c, 4, 70, 79
4, 96480, Note_off_c, 4, 65, 79
4, 96480, Note_on_c, 4, 77, 79
4, 96480, Note_on_c, 4, 70, 79
4, 96480, Note_on_c, 4, 65, 79
4, 96720, Note_off_c, 4, 77, 79
4, 96720, Note_off_c, 4, 70, 79
4, 96720, Note_off_c, 4, 65, 79
4, 96720, Note_on_c, 4, 77, 79
4, 96720, Note_on_c, 4, 70, 79
4, 96720, Note_on_c, 4, 65, 79
4, 96960, Note_off_c, 4, 77, 79
4, 96960, Note_off_c, 4, 70, 79
4, 96960, Note_off_c, 4, 65, 79
4, 97440, Note_on_c, 4, 76, 79
4, 97440, Note_on_c, 4, 70, 79
4, 97440, Note_on_c, 4, 65, 79
4, 97920, Note_off_c, 4, 76, 79
4, 97920, Note_off_c, 4, 70, 79
4, 97920, Note_off_c, 4, 65, 79
4, 97920, Note_on_c, 4, 64, 95
4, 97920, Note_on_c, 4, 59, 95
4, 97920, Note_on_c, 4, 55, 95
4, 97981, Note_off_c, 4, 64, 95
4, 97981, Note_off_c, 4, 59, 95
4, 97981, Note_off_c, 4, 55, 95
4, 98160, Note_on_c, 4, 76, 79
4, 98160, Note_on_c, 4, 70, 79
4, 98160, Note_on_c, 4, 65, 79
4, 98400, Note_off_c, 4, 76, 79
4, 98400, Note_off_c, 4, 70, 79
4, 98400, Note_off_c, 4, 65, 79
4, 98400, Note_on_c, 4, 64, 95
4, 98400, Note_on_c, 4, 59, 95
4, 98400, Note_on_c, 4, 55, 95
4, 98461, Note_off_c, 4, 64, 95
4, 98461, Note_off_c, 4, 59, 95
4, 98461, Note_off_c, 4, 55, 95
4, 98640, Note_on_c, 4, 64, 95
4, 98640, Note_on_c, 4, 59, 95
4, 98640, Note_on_c, 4, 55, 95
4, 98701, Note_off_c, 4, 64, 95
4, 98701, Note_off_c, 4, 59, 95
4, 98701, Note_off_c, 4, 55, 95
4, 98880, Note_on_c, 4, 76, 79
4, 98880, Note_on_c, 4, 70, 79
4, 98880, Note_on_c, 4, 65, 79
4, 99120, Note_off_c, 4, 76, 79
4, 99120, Note_off_c, 4, 70, 79
4, 99120, Note_off_c, 4, 65, 79
4, 99120, Note_on_c, 4, 76, 79
4, 99120, Note_on_c, 4, 70, 79
4, 99120, Note_on_c, 4, 65, 79
4, 99360, Note_off_c, 4, 76, 79
4, 99360, Note_off_c, 4, 70, 79
4, 99360, Note_off_c, 4, 65, 79
4, 99840, Note_on_c, 4, 74, 79
4, 99840, Note_on_c, 4, 70, 79
4, 99840, Note_on_c, 4, 65, 79
4, 100560, Note_off_c, 4, 74, 79
4, 100560, Note_off_c, 4, 70, 79
4, 100560, Note_off_c, 4, 65, 79
4, 100560, Note_on_c, 4, 74, 79
4, 100560, Note_on_c, 4, 70, 79
4, 100560, Note_on_c, 4, 65, 79
4, 100800, Note_off_c, 4, 74, 79
4, 100800, Note_off_c, 4, 70, 79
4, 100800, Note_off_c, 4, 65, 79
4, 100800, Note_on_c, 4, 64, 95
4, 100800, Note_on_c, 4, 59, 95
4, 100800, Note_on_c, 4, 55, 95
4, 100861, Note_off_c, 4, 64, 95
4, 100861, Note_off_c, 4, 59, 95
4, 100861, Note_off_c, 4, 55, 95
4, 101280, Note_on_c, 4, 64, 95
4, 101280, Note_on_c, 4, 59, 95
4, 101280, Note_on_c, 4, 55, 95
4, 101341, Note_off_c, 4, 64, 95
4, 101341, Note_off_c, 4, 59, 95
4, 101341, Note_off_c, 4, 55, 95
4, 101520, Note_on_c, 4, 64, 95
4, 101520, Note_on_c, 4, 59, 95
4, 101520, Note_on_c, 4, 55, 95
4, 101581, Note_off_c, 4, 64, 95
4, 101581, Note_off_c, 4, 59, 95
4, 101581, Note_off_c, 4, 55, 95
4, 101760, Note_on_c, 4, 64, 95
4, 101760, Note_on_c, 4, 59, 95
4, 101760, Note_on_c, 4, 55, 95
4, 101821, Note_off_c, 4, 64, 95
4, 101821, Note_off_c, 4, 59, 95
4, 101821, Note_off_c, 4, 55, 95
4, 102000, Note_on_c, 4, 74, 79
4, 102000, Note_on_c, 4, 70, 79
4, 102000, Note_on_c, 4, 65, 79
4, 102240, Note_off_c, 4, 74, 79
4, 102240, Note_off_c, 4, 70, 79
4, 102240, Note_off_c, 4, 65, 79
4, 102240, Note_on_c, 4, 64, 95
4, 102240, Note_on_c, 4, 59, 95
4, 102240, Note_on_c, 4, 55, 95
4, 102301, Note_off_c, 4, 64, 95
4, 102301, Note_off_c, 4, 59, 95
4, 102301, Note_off_c, 4, 55, 95
4, 102480, Note_on_c, 4, 64, 95
4, 102480, Note_on_c, 4, 59, 95
4, 102480, Note_on_c, 4, 55, 95
4, 102541, Note_off_c, 4, 64, 95
4, 102541, Note_off_c, 4, 59, 95
4, 102541, Note_off_c, 4, 55, 95
4, 102720, Note_on_c, 4, 74, 79
4, 102720, Note_on_c, 4, 70, 79
4, 102720, Note_on_c, 4, 65, 79
4, 102960, Note_off_c, 4, 74, 79
4, 102960, Note_off_c, 4, 70, 79
4, 102960, Note_off_c, 4, 65, 79
4, 102960, Note_on_c, 4, 74, 79
4, 102960, Note_on_c, 4, 70, 79
4, 102960, Note_on_c, 4, 65, 79
4, 103200, Note_off_c, 4, 74, 79
4, 103200, Note_off_c, 4, 70, 79
4, 103200, Note_off_c, 4, 65, 79
4, 103200, Note_on_c, 4, 64, 95
4, 103200, Note_on_c, 4, 59, 95
4, 103200, Note_on_c, 4, 55, 95
4, 103261, Note_off_c, 4, 64, 95
4, 103261, Note_off_c, 4, 59, 95
4, 103261, Note_off_c, 4, 55, 95
4, 103440, Note_on_c, 4, 64, 95
4, 103440, Note_on_c, 4, 59, 95
4, 103440, Note_on_c, 4, 55, 95
4, 103501, Note_off_c, 4, 64, 95
4, 103501, Note_off_c, 4, 59, 95
4, 103501, Note_off_c, 4, 55, 95
4, 103680, Note_on_c, 4, 74, 79
4, 103680, Note_on_c, 4, 70, 79
4, 103680, Note_on_c, 4, 65, 79
4, 104400, Note_off_c, 4, 74, 79
4, 104400, Note_off_c, 4, 70, 79
4, 104400, Note_off_c, 4, 65, 79
4, 104400, Note_on_c, 4, 74, 79
4, 104400, Note_on_c, 4, 70, 79
4, 104400, Note_on_c, 4, 65, 79
4, 104640, Note_off_c, 4, 74, 79
4, 104640, Note_off_c, 4, 70, 79
4, 104640, Note_off_c, 4, 65, 79
4, 104640, Note_on_c, 4, 64, 95
4, 104640, Note_on_c, 4, 59, 95
4, 104640, Note_on_c, 4, 55, 95
4, 104701, Note_off_c, 4, 64, 95
4, 104701, Note_off_c, 4, 59, 95
4, 104701, Note_off_c, 4, 55, 95
4, 105120, Note_on_c, 4, 64, 95
4, 105120, Note_on_c, 4, 59, 95
4, 105120, Note_on_c, 4, 55, 95
4, 105181, Note_off_c, 4, 64, 95
4, 105181, Note_off_c, 4, 59, 95
4, 105181, Note_off_c, 4, 55, 95
4, 105360, Note_on_c, 4, 64, 95
4, 105360, Note_on_c, 4, 59, 95
4, 105360, Note_on_c, 4, 55, 95
4, 105421, Note_off_c, 4, 64, 95
4, 105421, Note_off_c, 4, 59, 95
4, 105421, Note_off_c, 4, 55, 95
4, 105600, Note_on_c, 4, 64, 95
4, 105600, Note_on_c, 4, 59, 95
4, 105600, Note_on_c, 4, 55, 95
4, 105661, Note_off_c, 4, 64, 95
4, 105661, Note_off_c, 4, 59, 95
4, 105661, Note_off_c, 4, 55, 95
4, 105840, Note_on_c, 4, 74, 79
4, 105840, Note_on_c, 4, 70, 79
4, 105840, Note_on_c, 4, 65, 79
4, 106080, Note_off_c, 4, 74, 79
4, 106080, Note_off_c, 4, 70, 79
4, 106080, Note_off_c, 4, 65, 79
4, 106560, Note_on_c, 4, 74, 79
4, 106560, Note_on_c, 4, 70, 79
4, 106560, Note_on_c, 4, 65, 79
4, 106800, Note_off_c, 4, 74, 79
4, 106800, Note_off_c, 4, 70, 79
4, 106800, Note_off_c, 4, 65, 79
4, 106800, Note_on_c, 4, 74, 79
4, 106800, Note_on_c, 4, 70, 79
4, 106800, Note_on_c, 4, 65, 79
4, 107040, Note_off_c, 4, 74, 79
4, 107040, Note_off_c, 4, 70, 79
4, 107040, Note_off_c, 4, 65, 79
4, 107040, Note_on_c, 4, 74, 79
4, 107040, Note_on_c, 4, 70, 79
4, 107040, Note_on_c, 4, 65, 79
4, 107520, Note_off_c, 4, 74, 79
4, 107520, Note_off_c, 4, 70, 79
4, 107520, Note_off_c, 4, 65, 79
4, 107520, Note_on_c, 4, 74, 79
4, 107520, Note_on_c, 4, 70, 79
4, 107520, Note_on_c, 4, 65, 79
4, 108240, Note_off_c, 4, 74, 79
4, 108240, Note_off_c, 4, 70, 79
4, 108240, Note_off_c, 4, 65, 79
4, 108240, Note_on_c, 4, 74, 79
4, 108240, Note_on_c, 4, 70, 79
4, 108240, Note_on_c, 4, 65, 79
4, 108480, Note_off_c, 4, 74, 79
4, 108480, Note_off_c, 4, 70, 79
4, 108480, Note_off_c, 4, 65, 79
4, 108480, Note_on_c, 4, 64, 95
4, 108480, Note_on_c, 4, 59, 95
4, 108480, Note_on_c, 4, 55, 95
4, 108541, Note_off_c, 4, 64, 95
4, 108541, Note_off_c, 4, 59, 95
4, 108541, Note_off_c, 4, 55, 95
4, 108960, Note_on_c, 4, 64, 95
4, 108960, Note_on_c, 4, 59, 95
4, 108960, Note_on_c, 4, 55, 95
4, 109021, Note_off_c, 4, 64, 95
4, 109021, Note_off_c, 4, 59, 95
4, 109021, Note_off_c, 4, 55, 95
4, 109200, Note_on_c, 4, 64, 95
4, 109200, Note_on_c, 4, 59, 95
4, 109200, Note_on_c, 4, 55, 95
4, 109261, Note_off_c, 4, 64, 95
4, 109261, Note_off_c, 4, 59, 95
4, 109261, Note_off_c, 4, 55, 95
4, 109440, Note_on_c, 4, 74, 79
4, 109440, Note_on_c, 4, 70, 79
4, 109440, Note_on_c, 4, 65, 79
4, 109680, Note_off_c, 4, 74, 79
4, 109680, Note_off_c, 4, 70, 79
4, 109680, Note_off_c, 4, 65, 79
4, 109680, Note_on_c, 4, 74, 79
4, 109680, Note_on_c, 4, 70, 79
4, 109680, Note_on_c, 4, 65, 79
4, 109920, Note_off_c, 4, 74, 79
4, 109920, Note_off_c, 4, 70, 79
4, 109920, Note_off_c, 4, 65, 79
4, 109920, Note_on_c, 4, 64, 95
4, 109920, Note_on_c, 4, 59, 95
4, 109920, Note_on_c, 4, 55, 95
4, 109981, Note_off_c, 4, 64, 95
4, 109981, Note_off_c, 4, 59, 95
4, 109981, Note_off_c, 4, 55, 95
4, 110400, Note_on_c, 4, 74, 79
4, 110400, Note_on_c, 4, 70, 79
4, 110400, Note_on_c, 4, 65, 79
4, 110880, Note_off_c, 4, 74, 79
4, 110880, Note_off_c, 4, 70, 79
4, 110880, Note_off_c, 4, 65, 79
4, 110880, Note_on_c, 4, 70, 79
4, 110880, Note_on_c, 4, 65, 79
4, 111360, Note_off_c, 4, 70, 79
4, 111360, Note_off_c, 4, 65, 79
4, 111360, Note_on_c, 4, 77, 79
4, 111360, Note_on_c, 4, 70, 79
4, 111360, Note_on_c, 4, 65, 79
4, 111840, Note_off_c, 4, 77, 79
4, 111840, Note_off_c, 4, 70, 79
4, 111840, Note_off_c, 4, 65, 79
4, 111840, Note_on_c, 4, 77, 79
4, 111840, Note_on_c, 4, 70, 79
4, 111840, Note_on_c, 4, 65, 79
4, 112080, Note_off_c, 4, 77, 79
4, 112080, Note_off_c, 4, 70, 79
4, 112080, Note_off_c, 4, 65, 79
4, 112080, Note_on_c, 4, 77, 79
4, 112080, Note_on_c, 4, 70, 79
4, 112080, Note_on_c, 4, 65, 79
4, 112320, Note_off_c, 4, 77, 79
4, 112320, Note_off_c, 4, 70, 79
4, 112320, Note_off_c, 4, 65, 79
4, 112800, Note_on_c, 4, 76, 79
4, 112800, Note_on_c, 4, 70, 79
4, 112800, Note_on_c, 4, 65, 79
4, 113280, Note_off_c, 4, 76, 79
4, 113280, Note_off_c, 4, 70, 79
4, 113280, Note_off_c, 4, 65, 79
4, 113280, Note_on_c, 4, 64, 95
4, 113280, Note_on_c, 4, 59, 95
4, 113280, Note_on_c, 4, 55, 95
4, 113341, Note_off_c, 4, 64, 95
4, 113341, Note_off_c, 4, 59, 95
4, 113341, Note_off_c, 4, 55, 95
4, 113520, Note_on_c, 4, 76, 79
4, 113520, Note_on_c, 4, 70, 79
4, 113520, Note_on_c, 4, 65, 79
4, 113760, Note_off_c, 4, 76, 79
4, 113760, Note_off_c, 4, 70, 79
4, 113760, Note_off_c, 4, 65, 79
4, 113760, Note_on_c, 4, 64, 95
4, 113760, Note_on_c, 4, 59, 95
4, 113760, Note_on_c, 4, 55, 95
4, 113821, Note_off_c, 4, 64, 95
4, 113821, Note_off_c, 4, 59, 95
4, 113821, Note_off_c, 4, 55, 95
4, 114000, Note_on_c, 4, 64, 95
4, 114000, Note_on_c, 4, 59, 95
4, 114000, Note_on_c, 4, 55, 95
4, 114061, Note_off_c, 4, 64, 95
4, 114061, Note_off_c, 4, 59, 95
4, 114061, Note_off_c, 4, 55, 95
4, 114240, Note_on_c, 4, 76, 79
4, 114240, Note_on_c, 4, 70, 79
4, 114240, Note_on_c, 4, 65, 79
4, 114480, Note_off_c, 4, 76, 79
4, 114480, Note_off_c, 4, 70, 79
4, 114480, Note_off_c, 4, 65, 79
4, 114480, Note_on_c, 4, 76, 79
4, 114480, Note_on_c, 4, 70, 79
4, 114480, Note_on_c, 4, 65, 79
4, 114720, Note_off_c, 4, 76, 79
4, 114720, Note_off_c, 4, 70, 79
4, 114720, Note_off_c, 4, 65, 79
4, 115200, Note_on_c, 4, 74, 79
4, 115200, Note_on_c, 4, 70, 79
4, 115200, Note_on_c, 4, 65, 79
4, 115920, Note_off_c, 4, 74, 79
4, 115920, Note_off_c, 4, 70, 79
4, 115920, Note_off_c, 4, 65, 79
4, 115920, Note_on_c, 4, 74, 79
4, 115920, Note_on_c, 4, 70, 79
4, 115920, Note_on_c, 4, 65, 79
4, 116160, Note_off_c, 4, 74, 79
4, 116160, Note_off_c, 4, 70, 79
4, 116160, Note_off_c, 4, 65, 79
4, 116160, Note_on_c, 4, 64, 95
4, 116160, Note_on_c, 4, 59, 95
4, 116160, Note_on_c, 4, 55, 95
4, 116221, Note_off_c, 4, 64, 95
4, 116221, Note_off_c, 4, 59, 95
4, 116221, Note_off_c, 4, 55, 95
4, 116640, Note_on_c, 4, 64, 95
4, 116640, Note_on_c, 4, 59, 95
4, 116640, Note_on_c, 4, 55, 95
4, 116701, Note_off_c, 4, 64, 95
4, 116701, Note_off_c, 4, 59, 95
4, 116701, Note_off_c, 4, 55, 95
4, 116880, Note_on_c, 4, 64, 95
4, 116880, Note_on_c, 4, 59, 95
4, 116880, Note_on_c, 4, 55, 95
4, 116941, Note_off_c, 4, 64, 95
4, 116941, Note_off_c, 4, 59, 95
4, 116941, Note_off_c, 4, 55, 95
4, 117120, Note_on_c, 4, 64, 95
4, 117120, Note_on_c, 4, 59, 95
4, 117120, Note_on_c, 4, 55, 95
4, 117181, Note_off_c, 4, 64, 95
4, 117181, Note_off_c, 4, 59, 95
4, 117181, Note_off_c, 4, 55, 95
4, 117360, Note_on_c, 4, 74, 79
4, 117360, Note_on_c, 4, 70, 79
4, 117360, Note_on_c, 4, 65, 79
4, 117600, Note_off_c, 4, 74, 79
4, 117600, Note_off_c, 4, 70, 79
4, 117600, Note_off_c, 4, 65, 79
4, 117600, Note_on_c, 4, 64, 95
4, 117600, Note_on_c, 4, 59, 95
4, 117600, Note_on_c, 4, 55, 95
4, 117661, Note_off_c, 4, 64, 95
4, 117661, Note_off_c, 4, 59, 95
4, 117661, Note_off_c, 4, 55, 95
4, 117840, Note_on_c, 4, 64, 95
4, 117840, Note_on_c, 4, 59, 95
4, 117840, Note_on_c, 4, 55, 95
4, 117901, Note_off_c, 4, 64, 95
4, 117901, Note_off_c, 4, 59, 95
4, 117901, Note_off_c, 4, 55, 95
4, 118080, Note_on_c, 4, 74, 79
4, 118080, Note_on_c, 4, 70, 79
4, 118080, Note_on_c, 4, 65, 79
4, 118320, Note_off_c, 4, 74, 79
4, 118320, Note_off_c, 4, 70, 79
4, 118320, Note_off_c, 4, 65, 79
4, 118320, Note_on_c, 4, 74, 79
4, 118320, Note_on_c, 4, 70, 79
4, 118320, Note_on_c, 4, 65, 79
4, 118560, Note_off_c, 4, 74, 79
4, 118560, Note_off_c, 4, 70, 79
4, 118560, Note_off_c, 4, 65, 79
4, 118560, Note_on_c, 4, 64, 95
4, 118560, Note_on_c, 4, 59, 95
4, 118560, Note_on_c, 4, 55, 95
4, 118621, Note_off_c, 4, 64, 95
4, 118621, Note_off_c, 4, 59, 95
4, 118621, Note_off_c, 4, 55, 95
4, 118800, Note_on_c, 4, 64, 95
4, 118800, Note_on_c, 4, 59, 95
4, 118800, Note_on_c, 4, 55, 95
4, 118861, Note_off_c, 4, 64, 95
4, 118861, Note_off_c, 4, 59, 95
4, 118861, Note_off_c, 4, 55, 95
4, 119040, Note_on_c, 4, 74, 79
4, 119040, Note_on_c, 4, 70, 79
4, 119040, Note_on_c, 4, 65, 79
4, 119760, Note_off_c, 4, 74, 79
4, 119760, Note_off_c, 4, 70, 79
4, 119760, Note_off_c, 4, 65, 79
4, 119760, Note_on_c, 4, 74, 79
4, 119760, Note_on_c, 4, 70, 79
4, 119760, Note_on_c, 4, 65, 79
4, 120000, Note_off_c, 4, 74, 79
4, 120000, Note_off_c, 4, 70, 79
4, 120000, Note_off_c, 4, 65, 79
4, 120000, Note_on_c, 4, 64, 95
4, 120000, Note_on_c, 4, 59, 95
4, 120000, Note_on_c, 4, 55, 95
4, 120061, Note_off_c, 4, 64, 95
4, 120061, Note_off_c, 4, 59, 95
4, 120061, Note_off_c, 4, 55, 95
4, 120480, Note_on_c, 4, 64, 95
4, 120480, Note_on_c, 4, 59, 95
4, 120480, Note_on_c, 4, 55, 95
4, 120541, Note_off_c, 4, 64, 95
4, 120541, Note_off_c, 4, 59, 95
4, 120541, Note_off_c, 4, 55, 95
4, 120720, Note_on_c, 4, 64, 95
4, 120720, Note_on_c, 4, 59, 95
4, 120720, Note_on_c, 4, 55, 95
4, 120781, Note_off_c, 4, 64, 95
4, 120781, Note_off_c, 4, 59, 95
4, 120781, Note_off_c, 4, 55, 95
4, 120960, Note_on_c, 4, 64, 95
4, 120960, Note_on_c, 4, 59, 95
4, 120960, Note_on_c, 4, 55, 95
4, 121021, Note_off_c, 4, 64, 95
4, 121021, Note_off_c, 4, 59, 95
4, 121021, Note_off_c, 4, 55, 95
4, 121200, Note_on_c, 4, 74, 79
4, 121200, Note_on_c, 4, 70, 79
4, 121200, Note_on_c, 4, 65, 79
4, 121440, Note_off_c, 4, 74, 79
4, 121440, Note_off_c, 4, 70, 79
4, 121440, Note_off_c, 4, 65, 79
4, 121920, Note_on_c, 4, 74, 79
4, 121920, Note_on_c, 4, 70, 79
4, 121920, Note_on_c, 4, 65, 79
4, 122160, Note_off_c, 4, 74, 79
4, 122160, Note_off_c, 4, 70, 79
4, 122160, Note_off_c, 4, 65, 79
4, 122160, Note_on_c, 4, 74, 79
4, 122160, Note_on_c, 4, 70, 79
4, 122160, Note_on_c, 4, 65, 79
4, 122400, Note_off_c, 4, 74, 79
4, 122400, Note_off_c, 4, 70, 79
4, 122400, Note_off_c, 4, 65, 79
4, 122400, Note_on_c, 4, 74, 79
4, 122400, Note_on_c, 4, 70, 79
4, 122400, Note_on_c, 4, 65, 79
4, 122880, Note_off_c, 4, 74, 79
4, 122880, Note_off_c, 4, 70, 79
4, 122880, Note_off_c, 4, 65, 79
4, 122880, Note_on_c, 4, 74, 79
4, 122880, Note_on_c, 4, 70, 79
4, 122880, Note_on_c, 4, 65, 79
4, 123600, Note_off_c, 4, 74, 79
4, 123600, Note_off_c, 4, 70, 79
4, 123600, Note_off_c, 4, 65, 79
4, 123600, Note_on_c, 4, 74, 79
4, 123600, Note_on_c, 4, 70, 79
4, 123600, Note_on_c, 4, 65, 79
4, 123840, Note_off_c, 4, 74, 79
4, 123840, Note_off_c, 4, 70, 79
4, 123840, Note_off_c, 4, 65, 79
4, 123840, Note_on_c, 4, 64, 95
4, 123840, Note_on_c, 4, 59, 95
4, 123840, Note_on_c, 4, 55, 95
4, 123901, Note_off_c, 4, 64, 95
4, 123901, Note_off_c, 4, 59, 95
4, 123901, Note_off_c, 4, 55, 95
4, 124320, Note_on_c, 4, 64, 95
4, 124320, Note_on_c, 4, 59, 95
4, 124320, Note_on_c, 4, 55, 95
4, 124381, Note_off_c, 4, 64, 95
4, 124381, Note_off_c, 4, 59, 95
4, 124381, Note_off_c, 4, 55, 95
4, 124560, Note_on_c, 4, 64, 95
4, 124560, Note_on_c, 4, 59, 95
4, 124560, Note_on_c, 4, 55, 95
4, 124621, Note_off_c, 4, 64, 95
4, 124621, Note_off_c, 4, 59, 95
4, 124621, Note_off_c, 4, 55, 95
4, 124800, Note_on_c, 4, 64, 95
4, 124800, Note_on_c, 4, 59, 95
4, 124800, Note_on_c, 4, 55, 95
4, 124861, Note_off_c, 4, 64, 95
4, 124861, Note_off_c, 4, 59, 95
4, 124861, Note_off_c, 4, 55, 95
4, 125040, Note_on_c, 4, 64, 95
4, 125040, Note_on_c, 4, 59, 95
4, 125040, Note_on_c, 4, 55, 95
4, 125101, Note_off_c, 4, 64, 95
4, 125101, Note_off_c, 4, 59, 95
4, 125101, Note_off_c, 4, 55, 95
4, 125280, Note_on_c, 4, 64, 95
4, 125280, Note_on_c, 4, 59, 95
4, 125280, Note_on_c, 4, 55, 95
4, 125341, Note_off_c, 4, 64, 95
4, 125341, Note_off_c, 4, 59, 95
4, 125341, Note_off_c, 4, 55, 95
4, 125760, Note_on_c, 4, 76, 79
4, 125760, Note_on_c, 4, 72, 79
4, 125760, Note_on_c, 4, 67, 79
4, 126000, Note_off_c, 4, 76, 79
4, 126000, Note_off_c, 4, 72, 79
4, 126000, Note_off_c, 4, 67, 79
4, 126000, Note_on_c, 4, 76, 79
4, 126000, Note_on_c, 4, 72, 79
4, 126000, Note_on_c, 4, 67, 79
4, 126240, Note_off_c, 4, 76, 79
4, 126240, Note_off_c, 4, 72, 79
4, 126240, Note_off_c, 4, 67, 79
4, 126720, Note_on_c, 4, 74, 79
4, 126720, Note_on_c, 4, 70, 79
4, 126720, Note_on_c, 4, 65, 79
4, 127440, Note_off_c, 4, 74, 79
4, 127440, Note_off_c, 4, 70, 79
4, 127440, Note_off_c, 4, 65, 79
4, 127440, Note_on_c, 4, 74, 79
4, 127440, Note_on_c, 4, 70, 79
4, 127440, Note_on_c, 4, 65, 79
4, 127680, Note_off_c, 4, 74, 79
4, 127680, Note_off_c, 4, 70, 79
4, 127680, Note_off_c, 4, 65, 79
4, 127680, Note_on_c, 4, 64, 95
4, 127680, Note_on_c, 4, 59, 95
4, 127680, Note_on_c, 4, 55, 95
4, 127741, Note_off_c, 4, 64, 95
4, 127741, Note_off_c, 4, 59, 95
4, 127741, Note_off_c, 4, 55, 95
4, 128160, Note_on_c, 4, 64, 95
4, 128160, Note_on_c, 4, 59, 95
4, 128160, Note_on_c, 4, 55, 95
4, 128221, Note_off_c, 4, 64, 95
4, 128221, Note_off_c, 4, 59, 95
4, 128221, Note_off_c, 4, 55, 95
4, 128400, Note_on_c, 4, 64, 95
4, 128400, Note_on_c, 4, 59, 95
4, 128400, Note_on_c, 4, 55, 95
4, 128461, Note_off_c, 4, 64, 95
4, 128461, Note_off_c, 4, 59, 95
4, 128461, Note_off_c, 4, 55, 95
4, 128640, Note_on_c, 4, 64, 95
4, 128640, Note_on_c, 4, 59, 95
4, 128640, Note_on_c, 4, 55, 95
4, 128701, Note_off_c, 4, 64, 95
4, 128701, Note_off_c, 4, 59, 95
4, 128701, Note_off_c, 4, 55, 95
4, 128880, Note_on_c, 4, 64, 95
4, 128880, Note_on_c, 4, 59, 95
4, 128880, Note_on_c, 4, 55, 95
4, 128941, Note_off_c, 4, 64, 95
4, 128941, Note_off_c, 4, 59, 95
4, 128941, Note_off_c, 4, 55, 95
4, 129120, Note_on_c, 4, 64, 95
4, 129120, Note_on_c, 4, 59, 95
4, 129120, Note_on_c, 4, 55, 95
4, 129181, Note_off_c, 4, 64, 95
4, 129181, Note_off_c, 4, 59, 95
4, 129181, Note_off_c, 4, 55, 95
4, 129600, Note_on_c, 4, 64, 95
4, 129600, Note_on_c, 4, 59, 95
4, 129600, Note_on_c, 4, 55, 95
4, 129661, Note_off_c, 4, 64, 95
4, 129661, Note_off_c, 4, 59, 95
4, 129661, Note_off_c, 4, 55, 95
4, 130080, Note_on_c, 4, 74, 79
4, 130080, Note_on_c, 4, 70, 79
4, 130080, Note_on_c, 4, 65, 79
4, 130560, Note_off_c, 4, 74, 79
4, 130560, Note_off_c, 4, 70, 79
4, 130560, Note_off_c, 4, 65, 79
4, 130560, Note_on_c, 4, 74, 79
4, 130560, Note_on_c, 4, 70, 79
4, 130560, Note_on_c, 4, 65, 79
4, 131280, Note_off_c, 4, 74, 79
4, 131280, Note_off_c, 4, 70, 79
4, 131280, Note_off_c, 4, 65, 79
4, 131280, Note_on_c, 4, 74, 79
4, 131280, Note_on_c, 4, 70, 79
4, 131280, Note_on_c, 4, 65, 79
4, 131520, Note_off_c, 4, 74, 79
4, 131520, Note_off_c, 4, 70, 79
4, 131520, Note_off_c, 4, 65, 79
4, 131520, Note_on_c, 4, 64, 95
4, 131520, Note_on_c, 4, 59, 95
4, 131520, Note_on_c, 4, 55, 95
4, 131581, Note_off_c, 4, 64, 95
4, 131581, Note_off_c, 4, 59, 95
4, 131581, Note_off_c, 4, 55, 95
4, 132000, Note_on_c, 4, 64, 95
4, 132000, Note_on_c, 4, 59, 95
4, 132000, Note_on_c, 4, 55, 95
4, 132061, Note_off_c, 4, 64, 95
4, 132061, Note_off_c, 4, 59, 95
4, 132061, Note_off_c, 4, 55, 95
4, 132240, Note_on_c, 4, 64, 95
4, 132240, Note_on_c, 4, 59, 95
4, 132240, Note_on_c, 4, 55, 95
4, 132301, Note_off_c, 4, 64, 95
4, 132301, Note_off_c, 4, 59, 95
4, 132301, Note_off_c, 4, 55, 95
4, 132480, Note_on_c, 4, 64, 95
4, 132480, Note_on_c, 4, 59, 95
4, 132480, Note_on_c, 4, 55, 95
4, 132541, Note_off_c, 4, 64, 95
4, 132541, Note_off_c, 4, 59, 95
4, 132541, Note_off_c, 4, 55, 95
4, 132720, Note_on_c, 4, 64, 95
4, 132720, Note_on_c, 4, 59, 95
4, 132720, Note_on_c, 4, 55, 95
4, 132781, Note_off_c, 4, 64, 95
4, 132781, Note_off_c, 4, 59, 95
4, 132781, Note_off_c, 4, 55, 95
4, 132960, Note_on_c, 4, 64, 95
4, 132960, Note_on_c, 4, 59, 95
4, 132960, Note_on_c, 4, 55, 95
4, 133021, Note_off_c, 4, 64, 95
4, 133021, Note_off_c, 4, 59, 95
4, 133021, Note_off_c, 4, 55, 95
4, 133440, Note_on_c, 4, 76, 79
4, 133440, Note_on_c, 4, 72, 79
4, 133440, Note_on_c, 4, 67, 79
4, 133680, Note_off_c, 4, 76, 79
4, 133680, Note_off_c, 4, 72, 79
4, 133680, Note_off_c, 4, 67, 79
4, 133680, Note_on_c, 4, 76, 79
4, 133680, Note_on_c, 4, 72, 79
4, 133680, Note_on_c, 4, 67, 79
4, 133920, Note_off_c, 4, 76, 79
4, 133920, Note_off_c, 4, 72, 79
4, 133920, Note_off_c, 4, 67, 79
4, 134400, Note_on_c, 4, 74, 79
4, 134400, Note_on_c, 4, 70, 79
4, 134400, Note_on_c, 4, 65, 79
4, 135120, Note_off_c, 4, 74, 79
4, 135120, Note_off_c, 4, 70, 79
4, 135120, Note_off_c, 4, 65, 79
4, 135120, Note_on_c, 4, 74, 79
4, 135120, Note_on_c, 4, 70, 79
4, 135120, Note_on_c, 4, 65, 79
4, 135360, Note_off_c, 4, 74, 79
4, 135360, Note_off_c, 4, 70, 79
4, 135360, Note_off_c, 4, 65, 79
4, 135360, Note_on_c, 4, 64, 95
4, 135360, Note_on_c, 4, 59, 79
4, 135360, Note_on_c, 4, 55, 95
4, 135421, Note_off_c, 4, 64, 95
4, 135421, Note_off_c, 4, 59, 79
4, 135421, Note_off_c, 4, 55, 95
4, 135840, Note_on_c, 4, 64, 95
4, 135840, Note_on_c, 4, 59, 79
4, 135840, Note_on_c, 4, 55, 95
4, 135901, Note_off_c, 4, 64, 95
4, 135901, Note_off_c, 4, 59, 79
4, 135901, Note_off_c, 4, 55, 95
4, 136080, Note_on_c, 4, 64, 95
4, 136080, Note_on_c, 4, 59, 79
4, 136080, Note_on_c, 4, 55, 95
4, 136141, Note_off_c, 4, 64, 95
4, 136141, Note_off_c, 4, 59, 79
4, 136141, Note_off_c, 4, 55, 95
4, 136320, Note_on_c, 4, 64, 95
4, 136320, Note_on_c, 4, 59, 79
4, 136320, Note_on_c, 4, 55, 95
4, 136381, Note_off_c, 4, 64, 95
4, 136381, Note_off_c, 4, 59, 79
4, 136381, Note_off_c, 4, 55, 95
4, 136560, Note_on_c, 4, 64, 95
4, 136560, Note_on_c, 4, 59, 79
4, 136560, Note_on_c, 4, 55, 95
4, 136621, Note_off_c, 4, 64, 95
4, 136621, Note_off_c, 4, 59, 79
4, 136621, Note_off_c, 4, 55, 95
4, 136800, Note_on_c, 4, 64, 79
4, 136800, Note_on_c, 4, 59, 79
4, 136800, Note_on_c, 4, 55, 95
4, 136861, Note_off_c, 4, 64, 79
4, 136861, Note_off_c, 4, 59, 79
4, 136861, Note_off_c, 4, 55, 95
4, 137280, Note_on_c, 4, 64, 79
4, 137280, Note_on_c, 4, 59, 79
4, 137280, Note_on_c, 4, 55, 79
4, 137341, Note_off_c, 4, 64, 79
4, 137341, Note_off_c, 4, 59, 79
4, 137341, Note_off_c, 4, 55, 79
4, 137760, Note_on_c, 4, 74, 79
4, 137760, Note_on_c, 4, 70, 79
4, 137760, Note_on_c, 4, 65, 79
4, 138240, Note_off_c, 4, 74, 79
4, 138240, Note_off_c, 4, 70, 79
4, 138240, Note_off_c, 4, 65, 79
4, 138240, Note_on_c, 4, 74, 79
4, 138240, Note_on_c, 4, 70, 79
4, 138240, Note_on_c, 4, 65, 79
4, 138960, Note_off_c, 4, 74, 79
4, 138960, Note_off_c, 4, 70, 79
4, 138960, Note_off_c, 4, 65, 79
4, 138960, Note_on_c, 4, 74, 79
4, 138960, Note_on_c, 4, 70, 79
4, 138960, Note_on_c, 4, 65, 79
4, 139200, Note_off_c, 4, 74, 79
4, 139200, Note_off_c, 4, 70, 79
4, 139200, Note_off_c, 4, 65, 79
4, 139200, Note_on_c, 4, 64, 95
4, 139200, Note_on_c, 4, 59, 95
4, 139200, Note_on_c, 4, 55, 95
4, 139261, Note_off_c, 4, 64, 95
4, 139261, Note_off_c, 4, 59, 95
4, 139261, Note_off_c, 4, 55, 95
4, 139680, Note_on_c, 4, 64, 95
4, 139680, Note_on_c, 4, 59, 95
4, 139680, Note_on_c, 4, 55, 95
4, 139741, Note_off_c, 4, 64, 95
4, 139741, Note_off_c, 4, 59, 95
4, 139741, Note_off_c, 4, 55, 95
4, 139920, Note_on_c, 4, 64, 95
4, 139920, Note_on_c, 4, 59, 95
4, 139920, Note_on_c, 4, 55, 95
4, 139981, Note_off_c, 4, 64, 95
4, 139981, Note_off_c, 4, 59, 95
4, 139981, Note_off_c, 4, 55, 95
4, 140160, Note_on_c, 4, 74, 79
4, 140160, Note_on_c, 4, 70, 79
4, 140160, Note_on_c, 4, 65, 79
4, 140400, Note_off_c, 4, 74, 79
4, 140400, Note_off_c, 4, 70, 79
4, 140400, Note_off_c, 4, 65, 79
4, 140400, Note_on_c, 4, 74, 79
4, 140400, Note_on_c, 4, 70, 79
4, 140400, Note_on_c, 4, 65, 79
4, 140640, Note_off_c, 4, 74, 79
4, 140640, Note_off_c, 4, 70, 79
4, 140640, Note_off_c, 4, 65, 79
4, 140640, Note_on_c, 4, 64, 95
4, 140640, Note_on_c, 4, 59, 95
4, 140640, Note_on_c, 4, 55, 95
4, 140701, Note_off_c, 4, 64, 95
4, 140701, Note_off_c, 4, 59, 95
4, 140701, Note_off_c, 4, 55, 95
4, 141120, Note_on_c, 4, 74, 79
4, 141120, Note_on_c, 4, 70, 79
4, 141120, Note_on_c, 4, 65, 79
4, 141600, Note_off_c, 4, 74, 79
4, 141600, Note_off_c, 4, 70, 79
4, 141600, Note_off_c, 4, 65, 79
4, 141600, Note_on_c, 4, 70, 79
4, 141600, Note_on_c, 4, 65, 79
4, 142080, Note_off_c, 4, 70, 79
4, 142080, Note_off_c, 4, 65, 79
4, 142080, Note_on_c, 4, 77, 79
4, 142080, Note_on_c, 4, 70, 79
4, 142080, Note_on_c, 4, 65, 79
4, 142560, Note_off_c, 4, 77, 79
4, 142560, Note_off_c, 4, 70, 79
4, 142560, Note_off_c, 4, 65, 79
4, 142560, Note_on_c, 4, 77, 79
4, 142560, Note_on_c, 4, 70, 79
4, 142560, Note_on_c, 4, 65, 79
4, 142800, Note_off_c, 4, 77, 79
4, 142800, Note_off_c, 4, 70, 79
4, 142800, Note_off_c, 4, 65, 79
4, 142800, Note_on_c, 4, 77, 79
4, 142800, Note_on_c, 4, 70, 79
4, 142800, Note_on_c, 4, 65, 79
4, 143040, Note_off_c, 4, 77, 79
4, 143040, Note_off_c, 4, 70, 79
4, 143040, Note_off_c, 4, 65, 79
4, 143520, Note_on_c, 4, 76, 79
4, 143520, Note_on_c, 4, 70, 79
4, 143520, Note_on_c, 4, 65, 79
4, 144000, Note_off_c, 4, 76, 79
4, 144000, Note_off_c, 4, 70, 79
4, 144000, Note_off_c, 4, 65, 79
4, 144000, Note_on_c, 4, 64, 95
4, 144000, Note_on_c, 4, 59, 95
4, 144000, Note_on_c, 4, 55, 95
4, 144061, Note_off_c, 4, 64, 95
4, 144061, Note_off_c, 4, 59, 95
4, 144061, Note_off_c, 4, 55, 95
4, 144240, Note_on_c, 4, 76, 79
4, 144240, Note_on_c, 4, 70, 79
4, 144240, Note_on_c, 4, 65, 79
4, 144480, Note_off_c, 4, 76, 79
4, 144480, Note_off_c, 4, 70, 79
4, 144480, Note_off_c, 4, 65, 79
4, 144480, Note_on_c, 4, 64, 95
4, 144480, Note_on_c, 4, 59, 95
4, 144480, Note_on_c, 4, 55, 95
4, 144541, Note_off_c, 4, 64, 95
4, 144541, Note_off_c, 4, 59, 95
4, 144541, Note_off_c, 4, 55, 95
4, 144720, Note_on_c, 4, 64, 95
4, 144720, Note_on_c, 4, 59, 95
4, 144720, Note_on_c, 4, 55, 95
4, 144781, Note_off_c, 4, 64, 95
4, 144781, Note_off_c, 4, 59, 95
4, 144781, Note_off_c, 4, 55, 95
4, 144960, Note_on_c, 4, 76, 79
4, 144960, Note_on_c, 4, 70, 79
4, 144960, Note_on_c, 4, 65, 79
4, 145200, Note_off_c, 4, 76, 79
4, 145200, Note_off_c, 4, 70, 79
4, 145200, Note_off_c, 4, 65, 79
4, 145200, Note_on_c, 4, 76, 79
4, 145200, Note_on_c, 4, 70, 79
4, 145200, Note_on_c, 4, 65, 79
4, 145440, Note_off_c, 4, 76, 79
4, 145440, Note_off_c, 4, 70, 79
4, 145440, Note_off_c, 4, 65, 79
4, 145920, Note_on_c, 4, 74, 79
4, 145920, Note_on_c, 4, 70, 79
4, 145920, Note_on_c, 4, 65, 79
4, 146640, Note_off_c, 4, 74, 79
4, 146640, Note_off_c, 4, 70, 79
4, 146640, Note_off_c, 4, 65, 79
4, 146640, Note_on_c, 4, 74, 79
4, 146640, Note_on_c, 4, 70, 79
4, 146640, Note_on_c, 4, 65, 79
4, 146880, Note_off_c, 4, 74, 79
4, 146880, Note_off_c, 4, 70, 79
4, 146880, Note_off_c, 4, 65, 79
4, 146880, Note_on_c, 4, 64, 95
4, 146880, Note_on_c, 4, 59, 95
4, 146880, Note_on_c, 4, 55, 95
4, 146941, Note_off_c, 4, 64, 95
4, 146941, Note_off_c, 4, 59, 95
4, 146941, Note_off_c, 4, 55, 95
4, 147360, Note_on_c, 4, 64, 95
4, 147360, Note_on_c, 4, 59, 95
4, 147360, Note_on_c, 4, 55, 95
4, 147421, Note_off_c, 4, 64, 95
4, 147421, Note_off_c, 4, 59, 95
4, 147421, Note_off_c, 4, 55, 95
4, 147600, Note_on_c, 4, 64, 95
4, 147600, Note_on_c, 4, 59, 95
4, 147600, Note_on_c, 4, 55, 95
4, 147661, Note_off_c, 4, 64, 95
4, 147661, Note_off_c, 4, 59, 95
4, 147661, Note_off_c, 4, 55, 95
4, 147840, Note_on_c, 4, 64, 95
4, 147840, Note_on_c, 4, 59, 95
4, 147840, Note_on_c, 4, 55, 95
4, 147901, Note_off_c, 4, 64, 95
4, 147901, Note_off_c, 4, 59, 95
4, 147901, Note_off_c, 4, 55, 95
4, 148080, Note_on_c, 4, 74, 79
4, 148080, Note_on_c, 4, 70, 79
4, 148080, Note_on_c, 4, 65, 79
4, 148320, Note_off_c, 4, 74, 79
4, 148320, Note_off_c, 4, 70, 79
4, 148320, Note_off_c, 4, 65, 79
4, 148320, Note_on_c, 4, 64, 95
4, 148320, Note_on_c, 4, 59, 95
4, 148320, Note_on_c, 4, 55, 95
4, 148381, Note_off_c, 4, 64, 95
4, 148381, Note_off_c, 4, 59, 95
4, 148381, Note_off_c, 4, 55, 95
4, 148560, Note_on_c, 4, 64, 95
4, 148560, Note_on_c, 4, 59, 95
4, 148560, Note_on_c, 4, 55, 95
4, 148621, Note_off_c, 4, 64, 95
4, 148621, Note_off_c, 4, 59, 95
4, 148621, Note_off_c, 4, 55, 95
4, 148800, Note_on_c, 4, 74, 79
4, 148800, Note_on_c, 4, 70, 79
4, 148800, Note_on_c, 4, 65, 79
4, 149040, Note_off_c, 4, 74, 79
4, 149040, Note_off_c, 4, 70, 79
4, 149040, Note_off_c, 4, 65, 79
4, 149040, Note_on_c, 4, 74, 79
4, 149040, Note_on_c, 4, 70, 79
4, 149040, Note_on_c, 4, 65, 79
4, 149280, Note_off_c, 4, 74, 79
4, 149280, Note_off_c, 4, 70, 79
4, 149280, Note_off_c, 4, 65, 79
4, 149280, Note_on_c, 4, 64, 95
4, 149280, Note_on_c, 4, 59, 95
4, 149280, Note_on_c, 4, 55, 95
4, 149341, Note_off_c, 4, 64, 95
4, 149341, Note_off_c, 4, 59, 95
4, 149341, Note_off_c, 4, 55, 95
4, 149520, Note_on_c, 4, 64, 95
4, 149520, Note_on_c, 4, 59, 95
4, 149520, Note_on_c, 4, 55, 95
4, 149581, Note_off_c, 4, 64, 95
4, 149581, Note_off_c, 4, 59, 95
4, 149581, Note_off_c, 4, 55, 95
4, 149760, Note_on_c, 4, 74, 79
4, 149760, Note_on_c, 4, 70, 79
4, 149760, Note_on_c, 4, 65, 79
4, 150480, Note_off_c, 4, 74, 79
4, 150480, Note_off_c, 4, 70, 79
4, 150480, Note_off_c, 4, 65, 79
4, 150480, Note_on_c, 4, 74, 79
4, 150480, Note_on_c, 4, 70, 79
4, 150480, Note_on_c, 4, 65, 79
4, 150720, Note_off_c, 4, 74, 79
4, 150720, Note_off_c, 4, 70, 79
4, 150720, Note_off_c, 4, 65, 79
4, 150720, Note_on_c, 4, 64, 95
4, 150720, Note_on_c, 4, 59, 95
4, 150720, Note_on_c, 4, 55, 95
4, 150781, Note_off_c, 4, 64, 95
4, 150781, Note_off_c, 4, 59, 95
4, 150781, Note_off_c, 4, 55, 95
4, 151200, Note_on_c, 4, 64, 95
4, 151200, Note_on_c, 4, 59, 95
4, 151200, Note_on_c, 4, 55, 95
4, 151261, Note_off_c, 4, 64, 95
4, 151261, Note_off_c, 4, 59, 95
4, 151261, Note_off_c, 4, 55, 95
4, 151440, Note_on_c, 4, 64, 95
4, 151440, Note_on_c, 4, 59, 95
4, 151440, Note_on_c, 4, 55, 95
4, 151501, Note_off_c, 4, 64, 95
4, 151501, Note_off_c, 4, 59, 95
4, 151501, Note_off_c, 4, 55, 95
4, 151680, Note_on_c, 4, 64, 95
4, 151680, Note_on_c, 4, 59, 95
4, 151680, Note_on_c, 4, 55, 95
4, 151741, Note_off_c, 4, 64, 95
4, 151741, Note_off_c, 4, 59, 95
4, 151741, Note_off_c, 4, 55, 95
4, 151920, Note_on_c, 4, 74, 79
4, 151920, Note_on_c, 4, 70, 79
4, 151920, Note_on_c, 4, 65, 79
4, 152160, Note_off_c, 4, 74, 79
4, 152160, Note_off_c, 4, 70, 79
4, 152160, Note_off_c, 4, 65, 79
4, 152640, Note_on_c, 4, 74, 79
4, 152640, Note_on_c, 4, 70, 79
4, 152640, Note_on_c, 4, 65, 79
4, 152880, Note_off_c, 4, 74, 79
4, 152880, Note_off_c, 4, 70, 79
4, 152880, Note_off_c, 4, 65, 79
4, 152880, Note_on_c, 4, 74, 79
4, 152880, Note_on_c, 4, 70, 79
4, 152880, Note_on_c, 4, 65, 79
4, 153120, Note_off_c, 4, 74, 79
4, 153120, Note_off_c, 4, 70, 79
4, 153120, Note_off_c, 4, 65, 79
4, 153120, Note_on_c, 4, 74, 79
4, 153120, Note_on_c, 4, 70, 79
4, 153120, Note_on_c, 4, 65, 79
4, 153600, Note_off_c, 4, 74, 79
4, 153600, Note_off_c, 4, 70, 79
4, 153600, Note_off_c, 4, 65, 79
4, 153600, Note_on_c, 4, 64, 79
4, 153600, Note_on_c, 4, 60, 79
4, 153600, Note_on_c, 4, 55, 79
4, 153600, Note_on_c, 4, 48, 79
4, 155040, Note_off_c, 4, 64, 79
4, 155040, Note_off_c, 4, 60, 79
4, 155040, Note_off_c, 4, 55, 79
4, 155040, Note_off_c, 4, 48, 79
4, 155040, Note_on_c, 4, 67, 79
4, 155040, Note_on_c, 4, 62, 79
4, 155040, Note_on_c, 4, 58, 79
4, 155040, Note_on_c, 4, 55, 79
4, 155040, Note_on_c, 4, 50, 79
4, 155040, Note_on_c, 4, 43, 79
4, 157440, Note_off_c, 4, 67, 79
4, 157440, Note_off_c, 4, 62, 79
4, 157440, Note_off_c, 4, 58, 79
4, 157440, Note_off_c, 4, 55, 79
4, 157440, Note_off_c, 4, 50, 79
4, 157440, Note_off_c, 4, 43, 79
4, 157440, Note_on_c, 4, 64, 79
4, 157440, Note_on_c, 4, 60, 79
4, 157440, Note_on_c, 4, 55, 79
4, 157440, Note_on_c, 4, 48, 79
4, 158880, Note_off_c, 4, 64, 79
4, 158880, Note_off_c, 4, 60, 79
4, 158880, Note_off_c, 4, 55, 79
4, 158880, Note_off_c, 4, 48, 79
4, 158880, Note_on_c, 4, 67, 79
4, 158880, Note_on_c, 4, 62, 79
4, 158880, Note_on_c, 4, 58, 79
4, 158880, Note_on_c, 4, 55, 79
4, 158880, Note_on_c, 4, 50, 79
4, 158880, Note_on_c, 4, 43, 79
4, 161280, Note_off_c, 4, 67, 79
4, 161280, Note_off_c, 4, 62, 79
4, 161280, Note_off_c, 4, 58, 79
4, 161280, Note_off_c, 4, 55, 79
4, 161280, Note_off_c, 4, 50, 79
4, 161280, Note_off_c, 4, 43, 79
4, 161280, Note_on_c, 4, 64, 79
4, 161280, Note_on_c, 4, 60, 79
4, 161280, Note_on_c, 4, 55, 79
4, 161280, Note_on_c, 4, 48, 79
4, 162720, Note_off_c, 4, 64, 79
4, 162720, Note_off_c, 4, 60, 79
4, 162720, Note_off_c, 4, 55, 79
4, 162720, Note_off_c, 4, 48, 79
4, 162720, Note_on_c, 4, 67, 79
4, 162720, Note_on_c, 4, 62, 79
4, 162720, Note_on_c, 4, 58, 79
4, 162720, Note_on_c, 4, 55, 79
4, 162720, Note_on_c, 4, 50, 79
4, 162720, Note_on_c, 4, 43, 79
4, 165120, Note_off_c, 4, 67, 79
4, 165120, Note_off_c, 4, 62, 79
4, 165120, Note_off_c, 4, 58, 79
4, 165120, Note_off_c, 4, 55, 79
4, 165120, Note_off_c, 4, 50, 79
4, 165120, Note_off_c, 4, 43, 79
4, 165120, Note_on_c, 4, 64, 79
4, 165120, Note_on_c, 4, 60, 79
4, 165120, Note_on_c, 4, 55, 79
4, 165120, Note_on_c, 4, 48, 79
4, 168000, Note_off_c, 4, 64, 79
4, 168000, Note_off_c, 4, 60, 79
4, 168000, Note_off_c, 4, 55, 79
4, 168000, Note_off_c, 4, 48, 79
4, 168960, Note_on_c, 4, 74, 79
4, 168960, Note_on_c, 4, 70, 79
4, 168960, Note_on_c, 4, 65, 79
4, 169200, Note_off_c, 4, 74, 79
4, 169200, Note_off_c, 4, 70, 79
4, 169200, Note_off_c, 4, 65, 79
4, 169200, Note_on_c, 4, 74, 79
4, 169200, Note_on_c, 4, 70, 79
4, 169200, Note_on_c, 4, 65, 79
4, 169440, Note_off_c, 4, 74, 79
4, 169440, Note_off_c, 4, 70, 79
4, 169440, Note_off_c, 4, 65, 79
4, 169440, Note_on_c, 4, 64, 95
4, 169440, Note_on_c, 4, 59, 95
4, 169440, Note_on_c, 4, 55, 95
4, 169501, Note_off_c, 4, 64, 95
4, 169501, Note_off_c, 4, 59, 95
4, 169501, Note_off_c, 4, 55, 95
4, 169680, Note_on_c, 4, 64, 95
4, 169680, Note_on_c, 4, 59, 95
4, 169680, Note_on_c, 4, 55, 95
4, 169741, Note_off_c, 4, 64, 95
4, 169741, Note_off_c, 4, 59, 95
4, 169741, Note_off_c, 4, 55, 95
4, 169920, Note_on_c, 4, 64, 95
4, 169920, Note_on_c, 4, 59, 95
4, 169920, Note_on_c, 4, 55, 95
4, 169981, Note_off_c, 4, 64, 95
4, 169981, Note_off_c, 4, 59, 95
4, 169981, Note_off_c, 4, 55, 95
4, 170160, Note_on_c, 4, 64, 95
4, 170160, Note_on_c, 4, 59, 95
4, 170160, Note_on_c, 4, 55, 95
4, 170221, Note_off_c, 4, 64, 95
4, 170221, Note_off_c, 4, 59, 95
4, 170221, Note_off_c, 4, 55, 95
4, 170400, Note_on_c, 4, 74, 79
4, 170400, Note_on_c, 4, 70, 79
4, 170400, Note_on_c, 4, 65, 79
4, 170640, Note_off_c, 4, 74, 79
4, 170640, Note_off_c, 4, 70, 79
4, 170640, Note_off_c, 4, 65, 79
4, 170640, Note_on_c, 4, 74, 79
4, 170640, Note_on_c, 4, 70, 79
4, 170640, Note_on_c, 4, 65, 79
4, 170880, Note_off_c, 4, 74, 79
4, 170880, Note_off_c, 4, 70, 79
4, 170880, Note_off_c, 4, 65, 79
4, 170880, Note_on_c, 4, 64, 95
4, 170880, Note_on_c, 4, 59, 95
4, 170880, Note_on_c, 4, 55, 95
4, 170941, Note_off_c, 4, 64, 95
4, 170941, Note_off_c, 4, 59, 95
4, 170941, Note_off_c, 4, 55, 95
4, 171120, Note_on_c, 4, 64, 95
4, 171120, Note_on_c, 4, 59, 95
4, 171120, Note_on_c, 4, 55, 95
4, 171181, Note_off_c, 4, 64, 95
4, 171181, Note_off_c, 4, 59, 95
4, 171181, Note_off_c, 4, 55, 95
4, 171360, Note_on_c, 4, 64, 95
4, 171360, Note_on_c, 4, 59, 95
4, 171360, Note_on_c, 4, 55, 95
4, 171421, Note_off_c, 4, 64, 95
4, 171421, Note_off_c, 4, 59, 95
4, 171421, Note_off_c, 4, 55, 95
4, 171600, Note_on_c, 4, 64, 95
4, 171600, Note_on_c, 4, 59, 95
4, 171600, Note_on_c, 4, 55, 95
4, 171661, Note_off_c, 4, 64, 95
4, 171661, Note_off_c, 4, 59, 95
4, 171661, Note_off_c, 4, 55, 95
4, 171840, Note_on_c, 4, 64, 95
4, 171840, Note_on_c, 4, 59, 95
4, 171840, Note_on_c, 4, 55, 95
4, 171901, Note_off_c, 4, 64, 95
4, 171901, Note_off_c, 4, 59, 95
4, 171901, Note_off_c, 4, 55, 95
4, 172080, Note_on_c, 4, 64, 95
4, 172080, Note_on_c, 4, 59, 95
4, 172080, Note_on_c, 4, 55, 95
4, 172141, Note_off_c, 4, 64, 95
4, 172141, Note_off_c, 4, 59, 95
4, 172141, Note_off_c, 4, 55, 95
4, 172320, Note_on_c, 4, 64, 95
4, 172320, Note_on_c, 4, 59, 95
4, 172320, Note_on_c, 4, 55, 95
4, 172381, Note_off_c, 4, 64, 95
4, 172381, Note_off_c, 4, 59, 95
4, 172381, Note_off_c, 4, 55, 95
4, 172560, Note_on_c, 4, 64, 95
4, 172560, Note_on_c, 4, 59, 95
4, 172560, Note_on_c, 4, 55, 95
4, 172621, Note_off_c, 4, 64, 95
4, 172621, Note_off_c, 4, 59, 95
4, 172621, Note_off_c, 4, 55, 95
4, 172800, Note_on_c, 4, 74, 79
4, 172800, Note_on_c, 4, 70, 79
4, 172800, Note_on_c, 4, 65, 79
4, 173040, Note_off_c, 4, 74, 79
4, 173040, Note_off_c, 4, 70, 79
4, 173040, Note_off_c, 4, 65, 79
4, 173040, Note_on_c, 4, 74, 79
4, 173040, Note_on_c, 4, 70, 79
4, 173040, Note_on_c, 4, 65, 79
4, 173280, Note_off_c, 4, 74, 79
4, 173280, Note_off_c, 4, 70, 79
4, 173280, Note_off_c, 4, 65, 79
4, 173280, Note_on_c, 4, 64, 95
4, 173280, Note_on_c, 4, 59, 95
4, 173280, Note_on_c, 4, 55, 95
4, 173341, Note_off_c, 4, 64, 95
4, 173341, Note_off_c, 4, 59, 95
4, 173341, Note_off_c, 4, 55, 95
4, 173520, Note_on_c, 4, 64, 95
4, 173520, Note_on_c, 4, 59, 95
4, 173520, Note_on_c, 4, 55, 95
4, 173581, Note_off_c, 4, 64, 95
4, 173581, Note_off_c, 4, 59, 95
4, 173581, Note_off_c, 4, 55, 95
4, 173760, Note_on_c, 4, 64, 95
4, 173760, Note_on_c, 4, 59, 95
4, 173760, Note_on_c, 4, 55, 95
4, 173821, Note_off_c, 4, 64, 95
4, 173821, Note_off_c, 4, 59, 95
4, 173821, Note_off_c, 4, 55, 95
4, 174000, Note_on_c, 4, 64, 95
4, 174000, Note_on_c, 4, 59, 95
4, 174000, Note_on_c, 4, 55, 95
4, 174061, Note_off_c, 4, 64, 95
4, 174061, Note_off_c, 4, 59, 95
4, 174061, Note_off_c, 4, 55, 95
4, 174240, Note_on_c, 4, 74, 79
4, 174240, Note_on_c, 4, 70, 79
4, 174240, Note_on_c, 4, 65, 79
4, 174480, Note_off_c, 4, 74, 79
4, 174480, Note_off_c, 4, 70, 79
4, 174480, Note_off_c, 4, 65, 79
4, 174480, Note_on_c, 4, 74, 79
4, 174480, Note_on_c, 4, 70, 79
4, 174480, Note_on_c, 4, 65, 79
4, 174720, Note_off_c, 4, 74, 79
4, 174720, Note_off_c, 4, 70, 79
4, 174720, Note_off_c, 4, 65, 79
4, 174720, Note_on_c, 4, 64, 95
4, 174720, Note_on_c, 4, 59, 95
4, 174720, Note_on_c, 4, 55, 95
4, 174781, Note_off_c, 4, 64, 95
4, 174781, Note_off_c, 4, 59, 95
4, 174781, Note_off_c, 4, 55, 95
4, 174960, Note_on_c, 4, 64, 95
4, 174960, Note_on_c, 4, 59, 95
4, 174960, Note_on_c, 4, 55, 95
4, 175021, Note_off_c, 4, 64, 95
4, 175021, Note_off_c, 4, 59, 95
4, 175021, Note_off_c, 4, 55, 95
4, 175200, Note_on_c, 4, 64, 95
4, 175200, Note_on_c, 4, 59, 95
4, 175200, Note_on_c, 4, 55, 95
4, 175261, Note_off_c, 4, 64, 95
4, 175261, Note_off_c, 4, 59, 95
4, 175261, Note_off_c, 4, 55, 95
4, 175440, Note_on_c, 4, 64, 95
4, 175440, Note_on_c, 4, 59, 95
4, 175440, Note_on_c, 4, 55, 95
4, 175501, Note_off_c, 4, 64, 95
4, 175501, Note_off_c, 4, 59, 95
4, 175501, Note_off_c, 4, 55, 95
4, 175680, Note_on_c, 4, 64, 95
4, 175680, Note_on_c, 4, 59, 95
4, 175680, Note_on_c, 4, 55, 95
4, 175741, Note_off_c, 4, 64, 95
4, 175741, Note_off_c, 4, 59, 95
4, 175741, Note_off_c, 4, 55, 95
4, 175920, Note_on_c, 4, 64, 95
4, 175920, Note_on_c, 4, 59, 95
4, 175920, Note_on_c, 4, 55, 95
4, 175981, Note_off_c, 4, 64, 95
4, 175981, Note_off_c, 4, 59, 95
4, 175981, Note_off_c, 4, 55, 95
4, 176160, Note_on_c, 4, 64, 95
4, 176160, Note_on_c, 4, 59, 95
4, 176160, Note_on_c, 4, 55, 95
4, 176221, Note_off_c, 4, 64, 95
4, 176221, Note_off_c, 4, 59, 95
4, 176221, Note_off_c, 4, 55, 95
4, 176400, Note_on_c, 4, 64, 95
4, 176400, Note_on_c, 4, 59, 95
4, 176400, Note_on_c, 4, 55, 95
4, 176461, Note_off_c, 4, 64, 95
4, 176461, Note_off_c, 4, 59, 95
4, 176461, Note_off_c, 4, 55, 95
4, 176640, Note_on_c, 4, 74, 79
4, 176640, Note_on_c, 4, 70, 79
4, 176640, Note_on_c, 4, 65, 79
4, 176880, Note_off_c, 4, 74, 79
4, 176880, Note_off_c, 4, 70, 79
4, 176880, Note_off_c, 4, 65, 79
4, 176880, Note_on_c, 4, 74, 79
4, 176880, Note_on_c, 4, 70, 79
4, 176880, Note_on_c, 4, 65, 79
4, 177120, Note_off_c, 4, 74, 79
4, 177120, Note_off_c, 4, 70, 79
4, 177120, Note_off_c, 4, 65, 79
4, 177120, Note_on_c, 4, 64, 95
4, 177120, Note_on_c, 4, 59, 95
4, 177120, Note_on_c, 4, 55, 95
4, 177181, Note_off_c, 4, 64, 95
4, 177181, Note_off_c, 4, 59, 95
4, 177181, Note_off_c, 4, 55, 95
4, 177360, Note_on_c, 4, 64, 95
4, 177360, Note_on_c, 4, 59, 95
4, 177360, Note_on_c, 4, 55, 95
4, 177421, Note_off_c, 4, 64, 95
4, 177421, Note_off_c, 4, 59, 95
4, 177421, Note_off_c, 4, 55, 95
4, 177600, Note_on_c, 4, 64, 95
4, 177600, Note_on_c, 4, 59, 95
4, 177600, Note_on_c, 4, 55, 95
4, 177661, Note_off_c, 4, 64, 95
4, 177661, Note_off_c, 4, 59, 95
4, 177661, Note_off_c, 4, 55, 95
4, 177840, Note_on_c, 4, 64, 95
4, 177840, Note_on_c, 4, 59, 95
4, 177840, Note_on_c, 4, 55, 95
4, 177901, Note_off_c, 4, 64, 95
4, 177901, Note_off_c, 4, 59, 95
4, 177901, Note_off_c, 4, 55, 95
4, 178080, Note_on_c, 4, 74, 79
4, 178080, Note_on_c, 4, 70, 79
4, 178080, Note_on_c, 4, 65, 79
4, 178320, Note_off_c, 4, 74, 79
4, 178320, Note_off_c, 4, 70, 79
4, 178320, Note_off_c, 4, 65, 79
4, 178320, Note_on_c, 4, 74, 79
4, 178320, Note_on_c, 4, 70, 79
4, 178320, Note_on_c, 4, 65, 79
4, 178560, Note_off_c, 4, 74, 79
4, 178560, Note_off_c, 4, 70, 79
4, 178560, Note_off_c, 4, 65, 79
4, 178560, Note_on_c, 4, 64, 95
4, 178560, Note_on_c, 4, 59, 95
4, 178560, Note_on_c, 4, 55, 95
4, 178621, Note_off_c, 4, 64, 95
4, 178621, Note_off_c, 4, 59, 95
4, 178621, Note_off_c, 4, 55, 95
4, 178800, Note_on_c, 4, 64, 95
4, 178800, Note_on_c, 4, 59, 95
4, 178800, Note_on_c, 4, 55, 95
4, 178861, Note_off_c, 4, 64, 95
4, 178861, Note_off_c, 4, 59, 95
4, 178861, Note_off_c, 4, 55, 95
4, 179040, Note_on_c, 4, 64, 95
4, 179040, Note_on_c, 4, 59, 95
4, 179040, Note_on_c, 4, 55, 95
4, 179101, Note_off_c, 4, 64, 95
4, 179101, Note_off_c, 4, 59, 95
4, 179101, Note_off_c, 4, 55, 95
4, 179280, Note_on_c, 4, 64, 95
4, 179280, Note_on_c, 4, 59, 95
4, 179280, Note_on_c, 4, 55, 95
4, 179341, Note_off_c, 4, 64, 95
4, 179341, Note_off_c, 4, 59, 95
4, 179341, Note_off_c, 4, 55, 95
4, 179520, Note_on_c, 4, 64, 95
4, 179520, Note_on_c, 4, 59, 95
4, 179520, Note_on_c, 4, 55, 95
4, 179581, Note_off_c, 4, 64, 95
4, 179581, Note_off_c, 4, 59, 95
4, 179581, Note_off_c, 4, 55, 95
4, 179760, Note_on_c, 4, 64, 95
4, 179760, Note_on_c, 4, 59, 95
4, 179760, Note_on_c, 4, 55, 95
4, 179821, Note_off_c, 4, 64, 95
4, 179821, Note_off_c, 4, 59, 95
4, 179821, Note_off_c, 4, 55, 95
4, 180000, Note_on_c, 4, 64, 95
4, 180000, Note_on_c, 4, 59, 95
4, 180000, Note_on_c, 4, 55, 95
4, 180061, Note_off_c, 4, 64, 95
4, 180061, Note_off_c, 4, 59, 95
4, 180061, Note_off_c, 4, 55, 95
4, 180240, Note_on_c, 4, 64, 95
4, 180240, Note_on_c, 4, 59, 95
4, 180240, Note_on_c, 4, 55, 95
4, 180301, Note_off_c, 4, 64, 95
4, 180301, Note_off_c, 4, 59, 95
4, 180301, Note_off_c, 4, 55, 95
4, 180480, Note_on_c, 4, 74, 79
4, 180480, Note_on_c, 4, 70, 79
4, 180480, Note_on_c, 4, 65, 79
4, 180720, Note_off_c, 4, 74, 79
4, 180720, Note_off_c, 4, 70, 79
4, 180720, Note_off_c, 4, 65, 79
4, 180720, Note_on_c, 4, 74, 79
4, 180720, Note_on_c, 4, 70, 79
4, 180720, Note_on_c, 4, 65, 79
4, 180960, Note_off_c, 4, 74, 79
4, 180960, Note_off_c, 4, 70, 79
4, 180960, Note_off_c, 4, 65, 79
4, 180960, Note_on_c, 4, 64, 95
4, 180960, Note_on_c, 4, 59, 95
4, 180960, Note_on_c, 4, 55, 95
4, 181021, Note_off_c, 4, 64, 95
4, 181021, Note_off_c, 4, 59, 95
4, 181021, Note_off_c, 4, 55, 95
4, 181200, Note_on_c, 4, 64, 95
4, 181200, Note_on_c, 4, 59, 95
4, 181200, Note_on_c, 4, 55, 95
4, 181261, Note_off_c, 4, 64, 95
4, 181261, Note_off_c, 4, 59, 95
4, 181261, Note_off_c, 4, 55, 95
4, 181440, Note_on_c, 4, 64, 95
4, 181440, Note_on_c, 4, 59, 95
4, 181440, Note_on_c, 4, 55, 95
4, 181501, Note_off_c, 4, 64, 95
4, 181501, Note_off_c, 4, 59, 95
4, 181501, Note_off_c, 4, 55, 95
4, 181680, Note_on_c, 4, 64, 95
4, 181680, Note_on_c, 4, 59, 95
4, 181680, Note_on_c, 4, 55, 95
4, 181741, Note_off_c, 4, 64, 95
4, 181741, Note_off_c, 4, 59, 95
4, 181741, Note_off_c, 4, 55, 95
4, 181920, Note_on_c, 4, 74, 79
4, 181920, Note_on_c, 4, 70, 79
4, 181920, Note_on_c, 4, 65, 79
4, 182160, Note_off_c, 4, 74, 79
4, 182160, Note_off_c, 4, 70, 79
4, 182160, Note_off_c, 4, 65, 79
4, 182160, Note_on_c, 4, 74, 79
4, 182160, Note_on_c, 4, 70, 79
4, 182160, Note_on_c, 4, 65, 79
4, 182400, Note_off_c, 4, 74, 79
4, 182400, Note_off_c, 4, 70, 79
4, 182400, Note_off_c, 4, 65, 79
4, 182400, Note_on_c, 4, 74, 79
4, 182400, Note_on_c, 4, 70, 79
4, 182400, Note_on_c, 4, 65, 79
4, 182640, Note_off_c, 4, 74, 79
4, 182640, Note_off_c, 4, 70, 79
4, 182640, Note_off_c, 4, 65, 79
4, 182640, Note_on_c, 4, 74, 79
4, 182640, Note_on_c, 4, 70, 79
4, 182640, Note_on_c, 4, 65, 79
4, 182880, Note_off_c, 4, 74, 79
4, 182880, Note_off_c, 4, 70, 79
4, 182880, Note_off_c, 4, 65, 79
4, 182880, Note_on_c, 4, 74, 79
4, 182880, Note_on_c, 4, 70, 79
4, 182880, Note_on_c, 4, 65, 79
4, 183360, Note_off_c, 4, 74, 79
4, 183360, Note_off_c, 4, 70, 79
4, 183360, Note_off_c, 4, 65, 79
4, 183360, Note_on_c, 4, 74, 79
4, 183360, Note_on_c, 4, 70, 79
4, 183360, Note_on_c, 4, 65, 79
4, 183840, Note_off_c, 4, 74, 79
4, 183840, Note_off_c, 4, 70, 79
4, 183840, Note_off_c, 4, 65, 79
4, 183840, Note_on_c, 4, 74, 79
4, 183840, Note_on_c, 4, 70, 79
4, 183840, Note_on_c, 4, 65, 79
4, 184320, Note_off_c, 4, 74, 79
4, 184320, Note_off_c, 4, 70, 79
4, 184320, Note_off_c, 4, 65, 79
4, 184320, Note_on_c, 4, 74, 79
4, 184320, Note_on_c, 4, 70, 79
4, 184320, Note_on_c, 4, 65, 79
4, 185040, Note_off_c, 4, 74, 79
4, 185040, Note_off_c, 4, 70, 79
4, 185040, Note_off_c, 4, 65, 79
4, 185040, Note_on_c, 4, 74, 79
4, 185040, Note_on_c, 4, 70, 79
4, 185040, Note_on_c, 4, 65, 79
4, 185280, Note_off_c, 4, 74, 79
4, 185280, Note_off_c, 4, 70, 79
4, 185280, Note_off_c, 4, 65, 79
4, 185280, Note_on_c, 4, 64, 95
4, 185280, Note_on_c, 4, 59, 95
4, 185280, Note_on_c, 4, 55, 95
4, 185341, Note_off_c, 4, 64, 95
4, 185341, Note_off_c, 4, 59, 95
4, 185341, Note_off_c, 4, 55, 95
4, 185760, Note_on_c, 4, 64, 95
4, 185760, Note_on_c, 4, 59, 95
4, 185760, Note_on_c, 4, 55, 95
4, 185821, Note_off_c, 4, 64, 95
4, 185821, Note_off_c, 4, 59, 95
4, 185821, Note_off_c, 4, 55, 95
4, 186000, Note_on_c, 4, 64, 95
4, 186000, Note_on_c, 4, 59, 95
4, 186000, Note_on_c, 4, 55, 95
4, 186061, Note_off_c, 4, 64, 95
4, 186061, Note_off_c, 4, 59, 95
4, 186061, Note_off_c, 4, 55, 95
4, 186240, Note_on_c, 4, 74, 79
4, 186240, Note_on_c, 4, 70, 79
4, 186240, Note_on_c, 4, 65, 79
4, 186480, Note_off_c, 4, 74, 79
4, 186480, Note_off_c, 4, 70, 79
4, 186480, Note_off_c, 4, 65, 79
4, 186480, Note_on_c, 4, 74, 79
4, 186480, Note_on_c, 4, 70, 79
4, 186480, Note_on_c, 4, 65, 79
4, 186720, Note_off_c, 4, 74, 79
4, 186720, Note_off_c, 4, 70, 79
4, 186720, Note_off_c, 4, 65, 79
4, 186720, Note_on_c, 4, 64, 95
4, 186720, Note_on_c, 4, 59, 95
4, 186720, Note_on_c, 4, 55, 95
4, 186781, Note_off_c, 4, 64, 95
4, 186781, Note_off_c, 4, 59, 95
4, 186781, Note_off_c, 4, 55, 95
4, 187200, Note_on_c, 4, 74, 79
4, 187200, Note_on_c, 4, 70, 79
4, 187200, Note_on_c, 4, 65, 79
4, 187680, Note_off_c, 4, 74, 79
4, 187680, Note_off_c, 4, 70, 79
4, 187680, Note_off_c, 4, 65, 79
4, 187680, Note_on_c, 4, 70, 79
4, 187680, Note_on_c, 4, 65, 79
4, 188160, Note_off_c, 4, 70, 79
4, 188160, Note_off_c, 4, 65, 79
4, 188160, Note_on_c, 4, 77, 79
4, 188160, Note_on_c, 4, 70, 79
4, 188160, Note_on_c, 4, 65, 79
4, 188640, Note_off_c, 4, 77, 79
4, 188640, Note_off_c, 4, 70, 79
4, 188640, Note_off_c, 4, 65, 79
4, 188640, Note_on_c, 4, 77, 79
4, 188640, Note_on_c, 4, 70, 79
4, 188640, Note_on_c, 4, 65, 79
4, 188880, Note_off_c, 4, 77, 79
4, 188880, Note_off_c, 4, 70, 79
4, 188880, Note_off_c, 4, 65, 79
4, 188880, Note_on_c, 4, 77, 79
4, 188880, Note_on_c, 4, 70, 79
4, 188880, Note_on_c, 4, 65, 79
4, 189120, Note_off_c, 4, 77, 79
4, 189120, Note_off_c, 4, 70, 79
4, 189120, Note_off_c, 4, 65, 79
4, 189600, Note_on_c, 4, 76, 79
4, 189600, Note_on_c, 4, 70, 79
4, 189600, Note_on_c, 4, 65, 79
4, 190080, Note_off_c, 4, 76, 79
4, 190080, Note_off_c, 4, 70, 79
4, 190080, Note_off_c, 4, 65, 79
4, 190080, Note_on_c, 4, 64, 95
4, 190080, Note_on_c, 4, 59, 95
4, 190080, Note_on_c, 4, 55, 95
4, 190141, Note_off_c, 4, 64, 95
4, 190141, Note_off_c, 4, 59, 95
4, 190141, Note_off_c, 4, 55, 95
4, 190320, Note_on_c, 4, 76, 79
4, 190320, Note_on_c, 4, 70, 79
4, 190320, Note_on_c, 4, 65, 79
4, 190560, Note_off_c, 4, 76, 79
4, 190560, Note_off_c, 4, 70, 79
4, 190560, Note_off_c, 4, 65, 79
4, 190560, Note_on_c, 4, 64, 95
4, 190560, Note_on_c, 4, 59, 95
4, 190560, Note_on_c, 4, 55, 95
4, 190621, Note_off_c, 4, 64, 95
4, 190621, Note_off_c, 4, 59, 95
4, 190621, Note_off_c, 4, 55, 95
4, 190800, Note_on_c, 4, 64, 95
4, 190800, Note_on_c, 4, 59, 95
4, 190800, Note_on_c, 4, 55, 95
4, 190861, Note_off_c, 4, 64, 95
4, 190861, Note_off_c, 4, 59, 95
4, 190861, Note_off_c, 4, 55, 95
4, 191040, Note_on_c, 4, 76, 79
4, 191040, Note_on_c, 4, 70, 79
4, 191040, Note_on_c, 4, 65, 79
4, 191280, Note_off_c, 4, 76, 79
4, 191280, Note_off_c, 4, 70, 79
4, 191280, Note_off_c, 4, 65, 79
4, 191280, Note_on_c, 4, 76, 79
4, 191280, Note_on_c, 4, 70, 79
4, 191280, Note_on_c, 4, 65, 79
4, 191520, Note_off_c, 4, 76, 79
4, 191520, Note_off_c, 4, 70, 79
4, 191520, Note_off_c, 4, 65, 79
4, 192000, Note_on_c, 4, 74, 79
4, 192000, Note_on_c, 4, 70, 79
4, 192000, Note_on_c, 4, 65, 79
4, 192720, Note_off_c, 4, 74, 79
4, 192720, Note_off_c, 4, 70, 79
4, 192720, Note_off_c, 4, 65, 79
4, 192720, Note_on_c, 4, 74, 79
4, 192720, Note_on_c, 4, 70, 79
4, 192720, Note_on_c, 4, 65, 79
4, 192960, Note_off_c, 4, 74, 79
4, 192960, Note_off_c, 4, 70, 79
4, 192960, Note_off_c, 4, 65, 79
4, 192960, Note_on_c, 4, 64, 95
4, 192960, Note_on_c, 4, 59, 95
4, 192960, Note_on_c, 4, 55, 95
4, 193021, Note_off_c, 4, 64, 95
4, 193021, Note_off_c, 4, 59, 95
4, 193021, Note_off_c, 4, 55, 95
4, 193440, Note_on_c, 4, 64, 95
4, 193440, Note_on_c, 4, 59, 95
4, 193440, Note_on_c, 4, 55, 95
4, 193501, Note_off_c, 4, 64, 95
4, 193501, Note_off_c, 4, 59, 95
4, 193501, Note_off_c, 4, 55, 95
4, 193680, Note_on_c, 4, 64, 95
4, 193680, Note_on_c, 4, 59, 95
4, 193680, Note_on_c, 4, 55, 95
4, 193741, Note_off_c, 4, 64, 95
4, 193741, Note_off_c, 4, 59, 95
4, 193741, Note_off_c, 4, 55, 95
4, 193920, Note_on_c, 4, 64, 95
4, 193920, Note_on_c, 4, 59, 95
4, 193920, Note_on_c, 4, 55, 95
4, 193981, Note_off_c, 4, 64, 95
4, 193981, Note_off_c, 4, 59, 95
4, 193981, Note_off_c, 4, 55, 95
4, 194160, Note_on_c, 4, 74, 79
4, 194160, Note_on_c, 4, 70, 79
4, 194160, Note_on_c, 4, 65, 79
4, 194400, Note_off_c, 4, 74, 79
4, 194400, Note_off_c, 4, 70, 79
4, 194400, Note_off_c, 4, 65, 79
4, 194400, Note_on_c, 4, 64, 95
4, 194400, Note_on_c, 4, 59, 95
4, 194400, Note_on_c, 4, 55, 95
4, 194461, Note_off_c, 4, 64, 95
4, 194461, Note_off_c, 4, 59, 95
4, 194461, Note_off_c, 4, 55, 95
4, 194640, Note_on_c, 4, 64, 95
4, 194640, Note_on_c, 4, 59, 95
4, 194640, Note_on_c, 4, 55, 95
4, 194701, Note_off_c, 4, 64, 95
4, 194701, Note_off_c, 4, 59, 95
4, 194701, Note_off_c, 4, 55, 95
4, 194880, Note_on_c, 4, 74, 79
4, 194880, Note_on_c, 4, 70, 79
4, 194880, Note_on_c, 4, 65, 79
4, 195120, Note_off_c, 4, 74, 79
4, 195120, Note_off_c, 4, 70, 79
4, 195120, Note_off_c, 4, 65, 79
4, 195120, Note_on_c, 4, 74, 79
4, 195120, Note_on_c, 4, 70, 79
4, 195120, Note_on_c, 4, 65, 79
4, 195360, Note_off_c, 4, 74, 79
4, 195360, Note_off_c, 4, 70, 79
4, 195360, Note_off_c, 4, 65, 79
4, 195360, Note_on_c, 4, 64, 95
4, 195360, Note_on_c, 4, 59, 95
4, 195360, Note_on_c, 4, 55, 95
4, 195421, Note_off_c, 4, 64, 95
4, 195421, Note_off_c, 4, 59, 95
4, 195421, Note_off_c, 4, 55, 95
4, 195600, Note_on_c, 4, 64, 95
4, 195600, Note_on_c, 4, 59, 95
4, 195600, Note_on_c, 4, 55, 95
4, 195661, Note_off_c, 4, 64, 95
4, 195661, Note_off_c, 4, 59, 95
4, 195661, Note_off_c, 4, 55, 95
4, 195840, Note_on_c, 4, 74, 79
4, 195840, Note_on_c, 4, 70, 79
4, 195840, Note_on_c, 4, 65, 79
4, 196560, Note_off_c, 4, 74, 79
4, 196560, Note_off_c, 4, 70, 79
4, 196560, Note_off_c, 4, 65, 79
4, 196560, Note_on_c, 4, 74, 79
4, 196560, Note_on_c, 4, 70, 79
4, 196560, Note_on_c, 4, 65, 79
4, 196800, Note_off_c, 4, 74, 79
4, 196800, Note_off_c, 4, 70, 79
4, 196800, Note_off_c, 4, 65, 79
4, 196800, Note_on_c, 4, 64, 95
4, 196800, Note_on_c, 4, 59, 95
4, 196800, Note_on_c, 4, 55, 95
4, 196861, Note_off_c, 4, 64, 95
4, 196861, Note_off_c, 4, 59, 95
4, 196861, Note_off_c, 4, 55, 95
4, 197280, Note_on_c, 4, 64, 95
4, 197280, Note_on_c, 4, 59, 95
4, 197280, Note_on_c, 4, 55, 95
4, 197341, Note_off_c, 4, 64, 95
4, 197341, Note_off_c, 4, 59, 95
4, 197341, Note_off_c, 4, 55, 95
4, 197520, Note_on_c, 4, 64, 95
4, 197520, Note_on_c, 4, 59, 95
4, 197520, Note_on_c, 4, 55, 95
4, 197581, Note_off_c, 4, 64, 95
4, 197581, Note_off_c, 4, 59, 95
4, 197581, Note_off_c, 4, 55, 95
4, 197760, Note_on_c, 4, 64, 95
4, 197760, Note_on_c, 4, 59, 95
4, 197760, Note_on_c, 4, 55, 95
4, 197821, Note_off_c, 4, 64, 95
4, 197821, Note_off_c, 4, 59, 95
4, 197821, Note_off_c, 4, 55, 95
4, 198000, Note_on_c, 4, 74, 79
4, 198000, Note_on_c, 4, 70, 79
4, 198000, Note_on_c, 4, 65, 79
4, 198240, Note_off_c, 4, 74, 79
4, 198240, Note_off_c, 4, 70, 79
4, 198240, Note_off_c, 4, 65, 79
4, 198720, Note_on_c, 4, 74, 79
4, 198720, Note_on_c, 4, 70, 79
4, 198720, Note_on_c, 4, 65, 79
4, 198960, Note_off_c, 4, 74, 79
4, 198960, Note_off_c, 4, 70, 79
4, 198960, Note_off_c, 4, 65, 79
4, 198960, Note_on_c, 4, 74, 79
4, 198960, Note_on_c, 4, 70, 79
4, 198960, Note_on_c, 4, 65, 79
4, 199200, Note_off_c, 4, 74, 79
4, 199200, Note_off_c, 4, 70, 79
4, 199200, Note_off_c, 4, 65, 79
4, 199200, Note_on_c, 4, 74, 79
4, 199200, Note_on_c, 4, 70, 79
4, 199200, Note_on_c, 4, 65, 79
4, 199680, Note_off_c, 4, 74, 79
4, 199680, Note_off_c, 4, 70, 79
4, 199680, Note_off_c, 4, 65, 79
4, 199680, Note_on_c, 4, 74, 79
4, 199680, Note_on_c, 4, 70, 79
4, 199680, Note_on_c, 4, 65, 79
4, 200400, Note_off_c, 4, 74, 79
4, 200400, Note_off_c, 4, 70, 79
4, 200400, Note_off_c, 4, 65, 79
4, 200400, Note_on_c, 4, 74, 79
4, 200400, Note_on_c, 4, 70, 79
4, 200400, Note_on_c, 4, 65, 79
4, 200640, Note_off_c, 4, 74, 79
4, 200640, Note_off_c, 4, 70, 79
4, 200640, Note_off_c, 4, 65, 79
4, 200640, Note_on_c, 4, 64, 95
4, 200640, Note_on_c, 4, 59, 95
4, 200640, Note_on_c, 4, 55, 95
4, 200701, Note_off_c, 4, 64, 95
4, 200701, Note_off_c, 4, 59, 95
4, 200701, Note_off_c, 4, 55, 95
4, 201120, Note_on_c, 4, 64, 95
4, 201120, Note_on_c, 4, 59, 95
4, 201120, Note_on_c, 4, 55, 95
4, 201181, Note_off_c, 4, 64, 95
4, 201181, Note_off_c, 4, 59, 95
4, 201181, Note_off_c, 4, 55, 95
4, 201360, Note_on_c, 4, 64, 95
4, 201360, Note_on_c, 4, 59, 95
4, 201360, Note_on_c, 4, 55, 95
4, 201421, Note_off_c, 4, 64, 95
4, 201421, Note_off_c, 4, 59, 95
4, 201421, Note_off_c, 4, 55, 95
4, 201600, Note_on_c, 4, 74, 79
4, 201600, Note_on_c, 4, 70, 79
4, 201600, Note_on_c, 4, 65, 79
4, 201840, Note_off_c, 4, 74, 79
4, 201840, Note_off_c, 4, 70, 79
4, 201840, Note_off_c, 4, 65, 79
4, 201840, Note_on_c, 4, 74, 79
4, 201840, Note_on_c, 4, 70, 79
4, 201840, Note_on_c, 4, 65, 79
4, 202080, Note_off_c, 4, 74, 79
4, 202080, Note_off_c, 4, 70, 79
4, 202080, Note_off_c, 4, 65, 79
4, 202080, Note_on_c, 4, 64, 95
4, 202080, Note_on_c, 4, 59, 95
4, 202080, Note_on_c, 4, 55, 95
4, 202141, Note_off_c, 4, 64, 95
4, 202141, Note_off_c, 4, 59, 95
4, 202141, Note_off_c, 4, 55, 95
4, 202560, Note_on_c, 4, 74, 79
4, 202560, Note_on_c, 4, 70, 79
4, 202560, Note_on_c, 4, 65, 79
4, 203040, Note_off_c, 4, 74, 79
4, 203040, Note_off_c, 4, 70, 79
4, 203040, Note_off_c, 4, 65, 79
4, 203040, Note_on_c, 4, 70, 79
4, 203040, Note_on_c, 4, 65, 79
4, 203520, Note_off_c, 4, 70, 79
4, 203520, Note_off_c, 4, 65, 79
4, 203520, Note_on_c, 4, 77, 79
4, 203520, Note_on_c, 4, 70, 79
4, 203520, Note_on_c, 4, 65, 79
4, 204000, Note_off_c, 4, 77, 79
4, 204000, Note_off_c, 4, 70, 79
4, 204000, Note_off_c, 4, 65, 79
4, 204000, Note_on_c, 4, 77, 79
4, 204000, Note_on_c, 4, 70, 79
4, 204000, Note_on_c, 4, 65, 79
4, 204240, Note_off_c, 4, 77, 79
4, 204240, Note_off_c, 4, 70, 79
4, 204240, Note_off_c, 4, 65, 79
4, 204240, Note_on_c, 4, 77, 79
4, 204240, Note_on_c, 4, 70, 79
4, 204240, Note_on_c, 4, 65, 79
4, 204480, Note_off_c, 4, 77, 79
4, 204480, Note_off_c, 4, 70, 79
4, 204480, Note_off_c, 4, 65, 79
4, 204960, Note_on_c, 4, 76, 79
4, 204960, Note_on_c, 4, 70, 79
4, 204960, Note_on_c, 4, 65, 79
4, 205440, Note_off_c, 4, 76, 79
4, 205440, Note_off_c, 4, 70, 79
4, 205440, Note_off_c, 4, 65, 79
4, 205440, Note_on_c, 4, 64, 95
4, 205440, Note_on_c, 4, 59, 95
4, 205440, Note_on_c, 4, 55, 95
4, 205501, Note_off_c, 4, 64, 95
4, 205501, Note_off_c, 4, 59, 95
4, 205501, Note_off_c, 4, 55, 95
4, 205680, Note_on_c, 4, 76, 79
4, 205680, Note_on_c, 4, 70, 79
4, 205680, Note_on_c, 4, 65, 79
4, 205920, Note_off_c, 4, 76, 79
4, 205920, Note_off_c, 4, 70, 79
4, 205920, Note_off_c, 4, 65, 79
4, 205920, Note_on_c, 4, 64, 95
4, 205920, Note_on_c, 4, 59, 95
4, 205920, Note_on_c, 4, 55, 95
4, 205981, Note_off_c, 4, 64, 95
4, 205981, Note_off_c, 4, 59, 95
4, 205981, Note_off_c, 4, 55, 95
4, 206160, Note_on_c, 4, 64, 95
4, 206160, Note_on_c, 4, 59, 95
4, 206160, Note_on_c, 4, 55, 95
4, 206221, Note_off_c, 4, 64, 95
4, 206221, Note_off_c, 4, 59, 95
4, 206221, Note_off_c, 4, 55, 95
4, 206400, Note_on_c, 4, 76, 79
4, 206400, Note_on_c, 4, 70, 79
4, 206400, Note_on_c, 4, 65, 79
4, 206640, Note_off_c, 4, 76, 79
4, 206640, Note_off_c, 4, 70, 79
4, 206640, Note_off_c, 4, 65, 79
4, 206640, Note_on_c, 4, 76, 79
4, 206640, Note_on_c, 4, 70, 79
4, 206640, Note_on_c, 4, 65, 79
4, 206880, Note_off_c, 4, 76, 79
4, 206880, Note_off_c, 4, 70, 79
4, 206880, Note_off_c, 4, 65, 79
4, 207360, Note_on_c, 4, 74, 79
4, 207360, Note_on_c, 4, 70, 79
4, 207360, Note_on_c, 4, 65, 79
4, 208080, Note_off_c, 4, 74, 79
4, 208080, Note_off_c, 4, 70, 79
4, 208080, Note_off_c, 4, 65, 79
4, 208080, Note_on_c, 4, 74, 79
4, 208080, Note_on_c, 4, 70, 79
4, 208080, Note_on_c, 4, 65, 79
4, 208320, Note_off_c, 4, 74, 79
4, 208320, Note_off_c, 4, 70, 79
4, 208320, Note_off_c, 4, 65, 79
4, 208320, Note_on_c, 4, 64, 95
4, 208320, Note_on_c, 4, 59, 95
4, 208320, Note_on_c, 4, 55, 95
4, 208381, Note_off_c, 4, 64, 95
4, 208381, Note_off_c, 4, 59, 95
4, 208381, Note_off_c, 4, 55, 95
4, 208800, Note_on_c, 4, 64, 95
4, 208800, Note_on_c, 4, 59, 95
4, 208800, Note_on_c, 4, 55, 95
4, 208861, Note_off_c, 4, 64, 95
4, 208861, Note_off_c, 4, 59, 95
4, 208861, Note_off_c, 4, 55, 95
4, 209040, Note_on_c, 4, 64, 95
4, 209040, Note_on_c, 4, 59, 95
4, 209040, Note_on_c, 4, 55, 95
4, 209101, Note_off_c, 4, 64, 95
4, 209101, Note_off_c, 4, 59, 95
4, 209101, Note_off_c, 4, 55, 95
4, 209280, Note_on_c, 4, 64, 95
4, 209280, Note_on_c, 4, 59, 95
4, 209280, Note_on_c, 4, 55, 95
4, 209341, Note_off_c, 4, 64, 95
4, 209341, Note_off_c, 4, 59, 95
4, 209341, Note_off_c, 4, 55, 95
4, 209520, Note_on_c, 4, 74, 79
4, 209520, Note_on_c, 4, 70, 79
4, 209520, Note_on_c, 4, 65, 79
4, 209760, Note_off_c, 4, 74, 79
4, 209760, Note_off_c, 4, 70, 79
4, 209760, Note_off_c, 4, 65, 79
4, 209760, Note_on_c, 4, 64, 95
4, 209760, Note_on_c, 4, 59, 95
4, 209760, Note_on_c, 4, 55, 95
4, 209821, Note_off_c, 4, 64, 95
4, 209821, Note_off_c, 4, 59, 95
4, 209821, Note_off_c, 4, 55, 95
4, 210000, Note_on_c, 4, 64, 95
4, 210000, Note_on_c, 4, 59, 95
4, 210000, Note_on_c, 4, 55, 95
4, 210061, Note_off_c, 4, 64, 95
4, 210061, Note_off_c, 4, 59, 95
4, 210061, Note_off_c, 4, 55, 95
4, 210240, Note_on_c, 4, 74, 79
4, 210240, Note_on_c, 4, 70, 79
4, 210240, Note_on_c, 4, 65, 79
4, 210480, Note_off_c, 4, 74, 79
4, 210480, Note_off_c, 4, 70, 79
4, 210480, Note_off_c, 4, 65, 79
4, 210480, Note_on_c, 4, 74, 79
4, 210480, Note_on_c, 4, 70, 79
4, 210480, Note_on_c, 4, 65, 79
4, 210720, Note_off_c, 4, 74, 79
4, 210720, Note_off_c, 4, 70, 79
4, 210720, Note_off_c, 4, 65, 79
4, 210720, Note_on_c, 4, 64, 95
4, 210720, Note_on_c, 4, 59, 95
4, 210720, Note_on_c, 4, 55, 95
4, 210781, Note_off_c, 4, 64, 95
4, 210781, Note_off_c, 4, 59, 95
4, 210781, Note_off_c, 4, 55, 95
4, 210960, Note_on_c, 4, 64, 95
4, 210960, Note_on_c, 4, 59, 95
4, 210960, Note_on_c, 4, 55, 95
4, 211021, Note_off_c, 4, 64, 95
4, 211021, Note_off_c, 4, 59, 95
4, 211021, Note_off_c, 4, 55, 95
4, 211200, Note_on_c, 4, 74, 79
4, 211200, Note_on_c, 4, 70, 79
4, 211200, Note_on_c, 4, 65, 79
4, 211920, Note_off_c, 4, 74, 79
4, 211920, Note_off_c, 4, 70, 79
4, 211920, Note_off_c, 4, 65, 79
4, 211920, Note_on_c, 4, 74, 79
4, 211920, Note_on_c, 4, 70, 79
4, 211920, Note_on_c, 4, 65, 79
4, 212160, Note_off_c, 4, 74, 79
4, 212160, Note_off_c, 4, 70, 79
4, 212160, Note_off_c, 4, 65, 79
4, 212160, Note_on_c, 4, 64, 95
4, 212160, Note_on_c, 4, 59, 95
4, 212160, Note_on_c, 4, 55, 95
4, 212221, Note_off_c, 4, 64, 95
4, 212221, Note_off_c, 4, 59, 95
4, 212221, Note_off_c, 4, 55, 95
4, 212640, Note_on_c, 4, 64, 95
4, 212640, Note_on_c, 4, 59, 95
4, 212640, Note_on_c, 4, 55, 95
4, 212701, Note_off_c, 4, 64, 95
4, 212701, Note_off_c, 4, 59, 95
4, 212701, Note_off_c, 4, 55, 95
4, 212880, Note_on_c, 4, 64, 95
4, 212880, Note_on_c, 4, 59, 95
4, 212880, Note_on_c, 4, 55, 95
4, 212941, Note_off_c, 4, 64, 95
4, 212941, Note_off_c, 4, 59, 95
4, 212941, Note_off_c, 4, 55, 95
4, 213120, Note_on_c, 4, 64, 95
4, 213120, Note_on_c, 4, 59, 95
4, 213120, Note_on_c, 4, 55, 95
4, 213181, Note_off_c, 4, 64, 95
4, 213181, Note_off_c, 4, 59, 95
4, 213181, Note_off_c, 4, 55, 95
4, 213360, Note_on_c, 4, 74, 79
4, 213360, Note_on_c, 4, 70, 79
4, 213360, Note_on_c, 4, 65, 79
4, 213600, Note_off_c, 4, 74, 79
4, 213600, Note_off_c, 4, 70, 79
4, 213600, Note_off_c, 4, 65, 79
4, 214080, Note_on_c, 4, 74, 79
4, 214080, Note_on_c, 4, 70, 79
4, 214080, Note_on_c, 4, 65, 79
4, 214320, Note_off_c, 4, 74, 79
4, 214320, Note_off_c, 4, 70, 79
4, 214320, Note_off_c, 4, 65, 79
4, 214320, Note_on_c, 4, 74, 79
4, 214320, Note_on_c, 4, 70, 79
4, 214320, Note_on_c, 4, 65, 79
4, 214560, Note_off_c, 4, 74, 79
4, 214560, Note_off_c, 4, 70, 79
4, 214560, Note_off_c, 4, 65, 79
4, 214560, Note_on_c, 4, 74, 79
4, 214560, Note_on_c, 4, 70, 79
4, 214560, Note_on_c, 4, 65, 79
4, 215040, Note_off_c, 4, 74, 79
4, 215040, Note_off_c, 4, 70, 79
4, 215040, Note_off_c, 4, 65, 79
4, 215040, Note_on_c, 4, 74, 79
4, 215040, Note_on_c, 4, 70, 79
4, 215040, Note_on_c, 4, 65, 79
4, 215760, Note_off_c, 4, 74, 79
4, 215760, Note_off_c, 4, 70, 79
4, 215760, Note_off_c, 4, 65, 79
4, 215760, Note_on_c, 4, 74, 79
4, 215760, Note_on_c, 4, 70, 79
4, 215760, Note_on_c, 4, 65, 79
4, 216000, Note_off_c, 4, 74, 79
4, 216000, Note_off_c, 4, 70, 79
4, 216000, Note_off_c, 4, 65, 79
4, 216000, Note_on_c, 4, 64, 95
4, 216000, Note_on_c, 4, 59, 95
4, 216000, Note_on_c, 4, 55, 95
4, 216061, Note_off_c, 4, 64, 95
4, 216061, Note_off_c, 4, 59, 95
4, 216061, Note_off_c, 4, 55, 95
4, 216480, Note_on_c, 4, 64, 95
4, 216480, Note_on_c, 4, 59, 95
4, 216480, Note_on_c, 4, 55, 95
4, 216541, Note_off_c, 4, 64, 95
4, 216541, Note_off_c, 4, 59, 95
4, 216541, Note_off_c, 4, 55, 95
4, 216720, Note_on_c, 4, 64, 95
4, 216720, Note_on_c, 4, 59, 95
4, 216720, Note_on_c, 4, 55, 95
4, 216781, Note_off_c, 4, 64, 95
4, 216781, Note_off_c, 4, 59, 95
4, 216781, Note_off_c, 4, 55, 95
4, 216960, Note_on_c, 4, 64, 95
4, 216960, Note_on_c, 4, 59, 95
4, 216960, Note_on_c, 4, 55, 95
4, 217021, Note_off_c, 4, 64, 95
4, 217021, Note_off_c, 4, 59, 95
4, 217021, Note_off_c, 4, 55, 95
4, 217200, Note_on_c, 4, 64, 95
4, 217200, Note_on_c, 4, 59, 95
4, 217200, Note_on_c, 4, 55, 95
4, 217261, Note_off_c, 4, 64, 95
4, 217261, Note_off_c, 4, 59, 95
4, 217261, Note_off_c, 4, 55, 95
4, 217440, Note_on_c, 4, 64, 95
4, 217440, Note_on_c, 4, 59, 95
4, 217440, Note_on_c, 4, 55, 95
4, 217501, Note_off_c, 4, 64, 95
4, 217501, Note_off_c, 4, 59, 95
4, 217501, Note_off_c, 4, 55, 95
4, 217920, Note_on_c, 4, 76, 79
4, 217920, Note_on_c, 4, 72, 79
4, 217920, Note_on_c, 4, 67, 79
4, 218160, Note_off_c, 4, 76, 79
4, 218160, Note_off_c, 4, 72, 79
4, 218160, Note_off_c, 4, 67, 79
4, 218160, Note_on_c, 4, 76, 79
4, 218160, Note_on_c, 4, 72, 79
4, 218160, Note_on_c, 4, 67, 79
4, 218400, Note_off_c, 4, 76, 79
4, 218400, Note_off_c, 4, 72, 79
4, 218400, Note_off_c, 4, 67, 79
4, 218880, Note_on_c, 4, 74, 79
4, 218880, Note_on_c, 4, 70, 79
4, 218880, Note_on_c, 4, 65, 79
4, 219600, Note_off_c, 4, 74, 79
4, 219600, Note_off_c, 4, 70, 79
4, 219600, Note_off_c, 4, 65, 79
4, 219600, Note_on_c, 4, 74, 79
4, 219600, Note_on_c, 4, 70, 79
4, 219600, Note_on_c, 4, 65, 79
4, 219840, Note_off_c, 4, 74, 79
4, 219840, Note_off_c, 4, 70, 79
4, 219840, Note_off_c, 4, 65, 79
4, 219840, Note_on_c, 4, 64, 95
4, 219840, Note_on_c, 4, 59, 95
4, 219840, Note_on_c, 4, 55, 95
4, 219901, Note_off_c, 4, 64, 95
4, 219901, Note_off_c, 4, 59, 95
4, 219901, Note_off_c, 4, 55, 95
4, 220320, Note_on_c, 4, 64, 95
4, 220320, Note_on_c, 4, 59, 95
4, 220320, Note_on_c, 4, 55, 95
4, 220381, Note_off_c, 4, 64, 95
4, 220381, Note_off_c, 4, 59, 95
4, 220381, Note_off_c, 4, 55, 95
4, 220560, Note_on_c, 4, 64, 95
4, 220560, Note_on_c, 4, 59, 95
4, 220560, Note_on_c, 4, 55, 95
4, 220621, Note_off_c, 4, 64, 95
4, 220621, Note_off_c, 4, 59, 95
4, 220621, Note_off_c, 4, 55, 95
4, 220800, Note_on_c, 4, 64, 95
4, 220800, Note_on_c, 4, 59, 95
4, 220800, Note_on_c, 4, 55, 95
4, 220861, Note_off_c, 4, 64, 95
4, 220861, Note_off_c, 4, 59, 95
4, 220861, Note_off_c, 4, 55, 95
4, 221040, Note_on_c, 4, 64, 95
4, 221040, Note_on_c, 4, 59, 95
4, 221040, Note_on_c, 4, 55, 95
4, 221101, Note_off_c, 4, 64, 95
4, 221101, Note_off_c, 4, 59, 95
4, 221101, Note_off_c, 4, 55, 95
4, 221280, Note_on_c, 4, 64, 95
4, 221280, Note_on_c, 4, 59, 95
4, 221280, Note_on_c, 4, 55, 95
4, 221341, Note_off_c, 4, 64, 95
4, 221341, Note_off_c, 4, 59, 95
4, 221341, Note_off_c, 4, 55, 95
4, 221760, Note_on_c, 4, 64, 95
4, 221760, Note_on_c, 4, 59, 95
4, 221760, Note_on_c, 4, 55, 95
4, 221821, Note_off_c, 4, 64, 95
4, 221821, Note_off_c, 4, 59, 95
4, 221821, Note_off_c, 4, 55, 95
4, 222240, Note_on_c, 4, 74, 79
4, 222240, Note_on_c, 4, 70, 79
4, 222240, Note_on_c, 4, 65, 79
4, 222720, Note_off_c, 4, 74, 79
4, 222720, Note_off_c, 4, 70, 79
4, 222720, Note_off_c, 4, 65, 79
4, 222720, Note_on_c, 4, 74, 79
4, 222720, Note_on_c, 4, 70, 79
4, 222720, Note_on_c, 4, 65, 79
4, 223440, Note_off_c, 4, 74, 79
4, 223440, Note_off_c, 4, 70, 79
4, 223440, Note_off_c, 4, 65, 79
4, 223440, Note_on_c, 4, 74, 79
4, 223440, Note_on_c, 4, 70, 79
4, 223440, Note_on_c, 4, 65, 79
4, 223680, Note_off_c, 4, 74, 79
4, 223680, Note_off_c, 4, 70, 79
4, 223680, Note_off_c, 4, 65, 79
4, 223680, Note_on_c, 4, 64, 95
4, 223680, Note_on_c, 4, 59, 95
4, 223680, Note_on_c, 4, 55, 95
4, 223741, Note_off_c, 4, 64, 95
4, 223741, Note_off_c, 4, 59, 95
4, 223741, Note_off_c, 4, 55, 95
4, 224160, Note_on_c, 4, 64, 95
4, 224160, Note_on_c, 4, 59, 95
4, 224160, Note_on_c, 4, 55, 95
4, 224221, Note_off_c, 4, 64, 95
4, 224221, Note_off_c, 4, 59, 95
4, 224221, Note_off_c, 4, 55, 95
4, 224400, Note_on_c, 4, 64, 95
4, 224400, Note_on_c, 4, 59, 95
4, 224400, Note_on_c, 4, 55, 95
4, 224461, Note_off_c, 4, 64, 95
4, 224461, Note_off_c, 4, 59, 95
4, 224461, Note_off_c, 4, 55, 95
4, 224640, Note_on_c, 4, 64, 95
4, 224640, Note_on_c, 4, 59, 95
4, 224640, Note_on_c, 4, 55, 95
4, 224701, Note_off_c, 4, 64, 95
4, 224701, Note_off_c, 4, 59, 95
4, 224701, Note_off_c, 4, 55, 95
4, 224880, Note_on_c, 4, 64, 95
4, 224880, Note_on_c, 4, 59, 95
4, 224880, Note_on_c, 4, 55, 95
4, 224941, Note_off_c, 4, 64, 95
4, 224941, Note_off_c, 4, 59, 95
4, 224941, Note_off_c, 4, 55, 95
4, 225120, Note_on_c, 4, 64, 95
4, 225120, Note_on_c, 4, 59, 95
4, 225120, Note_on_c, 4, 55, 95
4, 225181, Note_off_c, 4, 64, 95
4, 225181, Note_off_c, 4, 59, 95
4, 225181, Note_off_c, 4, 55, 95
4, 225600, Note_on_c, 4, 76, 79
4, 225600, Note_on_c, 4, 72, 79
4, 225600, Note_on_c, 4, 67, 79
4, 225840, Note_off_c, 4, 76, 79
4, 225840, Note_off_c, 4, 72, 79
4, 225840, Note_off_c, 4, 67, 79
4, 225840, Note_on_c, 4, 76, 79
4, 225840, Note_on_c, 4, 72, 79
4, 225840, Note_on_c, 4, 67, 79
4, 226080, Note_off_c, 4, 76, 79
4, 226080, Note_off_c, 4, 72, 79
4, 226080, Note_off_c, 4, 67, 79
4, 226560, Note_on_c, 4, 74, 79
4, 226560, Note_on_c, 4, 70, 79
4, 226560, Note_on_c, 4, 65, 79
4, 227280, Note_off_c, 4, 74, 79
4, 227280, Note_off_c, 4, 70, 79
4, 227280, Note_off_c, 4, 65, 79
4, 227280, Note_on_c, 4, 74, 79
4, 227280, Note_on_c, 4, 70, 79
4, 227280, Note_on_c, 4, 65, 79
4, 227520, Note_off_c, 4, 74, 79
4, 227520, Note_off_c, 4, 70, 79
4, 227520, Note_off_c, 4, 65, 79
4, 227520, Note_on_c, 4, 64, 95
4, 227520, Note_on_c, 4, 59, 79
4, 227520, Note_on_c, 4, 55, 95
4, 227581, Note_off_c, 4, 64, 95
4, 227581, Note_off_c, 4, 59, 79
4, 227581, Note_off_c, 4, 55, 95
4, 228000, Note_on_c, 4, 64, 95
4, 228000, Note_on_c, 4, 59, 79
4, 228000, Note_on_c, 4, 55, 95
4, 228061, Note_off_c, 4, 64, 95
4, 228061, Note_off_c, 4, 59, 79
4, 228061, Note_off_c, 4, 55, 95
4, 228240, Note_on_c, 4, 64, 95
4, 228240, Note_on_c, 4, 59, 79
4, 228240, Note_on_c, 4, 55, 95
4, 228301, Note_off_c, 4, 64, 95
4, 228301, Note_off_c, 4, 59, 79
4, 228301, Note_off_c, 4, 55, 95
4, 228480, Note_on_c, 4, 64, 95
4, 228480, Note_on_c, 4, 59, 79
4, 228480, Note_on_c, 4, 55, 95
4, 228541, Note_off_c, 4, 64, 95
4, 228541, Note_off_c, 4, 59, 79
4, 228541, Note_off_c, 4, 55, 95
4, 228720, Note_on_c, 4, 64, 95
4, 228720, Note_on_c, 4, 59, 79
4, 228720, Note_on_c, 4, 55, 95
4, 228781, Note_off_c, 4, 64, 95
4, 228781, Note_off_c, 4, 59, 79
4, 228781, Note_off_c, 4, 55, 95
4, 228960, Note_on_c, 4, 64, 79
4, 228960, Note_on_c, 4, 59, 79
4, 228960, Note_on_c, 4, 55, 95
4, 229021, Note_off_c, 4, 64, 79
4, 229021, Note_off_c, 4, 59, 79
4, 229021, Note_off_c, 4, 55, 95
4, 229440, Note_on_c, 4, 64, 79
4, 229440, Note_on_c, 4, 59, 79
4, 229440, Note_on_c, 4, 55, 79
4, 229501, Note_off_c, 4, 64, 79
4, 229501, Note_off_c, 4, 59, 79
4, 229501, Note_off_c, 4, 55, 79
4, 229920, Note_on_c, 4, 74, 79
4, 229920, Note_on_c, 4, 70, 79
4, 229920, Note_on_c, 4, 65, 79
4, 230400, Note_off_c, 4, 74, 79
4, 230400, Note_off_c, 4, 70, 79
4, 230400, Note_off_c, 4, 65, 79
4, 230400, Note_on_c, 4, 74, 79
4, 230400, Note_on_c, 4, 70, 79
4, 230400, Note_on_c, 4, 65, 79
4, 231120, Note_off_c, 4, 74, 79
4, 231120, Note_off_c, 4, 70, 79
4, 231120, Note_off_c, 4, 65, 79
4, 231120, Note_on_c, 4, 74, 79
4, 231120, Note_on_c, 4, 70, 79
4, 231120, Note_on_c, 4, 65, 79
4, 231360, Note_off_c, 4, 74, 79
4, 231360, Note_off_c, 4, 70, 79
4, 231360, Note_off_c, 4, 65, 79
4, 231360, Note_on_c, 4, 64, 95
4, 231360, Note_on_c, 4, 59, 95
4, 231360, Note_on_c, 4, 55, 95
4, 231421, Note_off_c, 4, 64, 95
4, 231421, Note_off_c, 4, 59, 95
4, 231421, Note_off_c, 4, 55, 95
4, 231840, Note_on_c, 4, 64, 95
4, 231840, Note_on_c, 4, 59, 95
4, 231840, Note_on_c, 4, 55, 95
4, 231901, Note_off_c, 4, 64, 95
4, 231901, Note_off_c, 4, 59, 95
4, 231901, Note_off_c, 4, 55, 95
4, 232080, Note_on_c, 4, 64, 95
4, 232080, Note_on_c, 4, 59, 95
4, 232080, Note_on_c, 4, 55, 95
4, 232141, Note_off_c, 4, 64, 95
4, 232141, Note_off_c, 4, 59, 95
4, 232141, Note_off_c, 4, 55, 95
4, 232320, Note_on_c, 4, 74, 79
4, 232320, Note_on_c, 4, 70, 79
4, 232320, Note_on_c, 4, 65, 79
4, 232560, Note_off_c, 4, 74, 79
4, 232560, Note_off_c, 4, 70, 79
4, 232560, Note_off_c, 4, 65, 79
4, 232560, Note_on_c, 4, 74, 79
4, 232560, Note_on_c, 4, 70, 79
4, 232560, Note_on_c, 4, 65, 79
4, 232800, Note_off_c, 4, 74, 79
4, 232800, Note_off_c, 4, 70, 79
4, 232800, Note_off_c, 4, 65, 79
4, 232800, Note_on_c, 4, 64, 95
4, 232800, Note_on_c, 4, 59, 95
4, 232800, Note_on_c, 4, 55, 95
4, 232861, Note_off_c, 4, 64, 95
4, 232861, Note_off_c, 4, 59, 95
4, 232861, Note_off_c, 4, 55, 95
4, 233280, Note_on_c, 4, 74, 79
4, 233280, Note_on_c, 4, 70, 79
4, 233280, Note_on_c, 4, 65, 79
4, 233760, Note_off_c, 4, 74, 79
4, 233760, Note_off_c, 4, 70, 79
4, 233760, Note_off_c, 4, 65, 79
4, 233760, Note_on_c, 4, 70, 79
4, 233760, Note_on_c, 4, 65, 79
4, 234240, Note_off_c, 4, 70, 79
4, 234240, Note_off_c, 4, 65, 79
4, 234240, Note_on_c, 4, 77, 79
4, 234240, Note_on_c, 4, 70, 79
4, 234240, Note_on_c, 4, 65, 79
4, 234720, Note_off_c, 4, 77, 79
4, 234720, Note_off_c, 4, 70, 79
4, 234720, Note_off_c, 4, 65, 79
4, 234720, Note_on_c, 4, 77, 79
4, 234720, Note_on_c, 4, 70, 79
4, 234720, Note_on_c, 4, 65, 79
4, 234960, Note_off_c, 4, 77, 79
4, 234960, Note_off_c, 4, 70, 79
4, 234960, Note_off_c, 4, 65, 79
4, 234960, Note_on_c, 4, 77, 79
4, 234960, Note_on_c, 4, 70, 79
4, 234960, Note_on_c, 4, 65, 79
4, 235200, Note_off_c, 4, 77, 79
4, 235200, Note_off_c, 4, 70, 79
4, 235200, Note_off_c, 4, 65, 79
4, 235680, Note_on_c, 4, 76, 79
4, 235680, Note_on_c, 4, 70, 79
4, 235680, Note_on_c, 4, 65, 79
4, 236160, Note_off_c, 4, 76, 79
4, 236160, Note_off_c, 4, 70, 79
4, 236160, Note_off_c, 4, 65, 79
4, 236160, Note_on_c, 4, 64, 95
4, 236160, Note_on_c, 4, 59, 95
4, 236160, Note_on_c, 4, 55, 95
4, 236221, Note_off_c, 4, 64, 95
4, 236221, Note_off_c, 4, 59, 95
4, 236221, Note_off_c, 4, 55, 95
4, 236400, Note_on_c, 4, 76, 79
4, 236400, Note_on_c, 4, 70, 79
4, 236400, Note_on_c, 4, 65, 79
4, 236640, Note_off_c, 4, 76, 79
4, 236640, Note_off_c, 4, 70, 79
4, 236640, Note_off_c, 4, 65, 79
4, 236640, Note_on_c, 4, 64, 95
4, 236640, Note_on_c, 4, 59, 95
4, 236640, Note_on_c, 4, 55, 95
4, 236701, Note_off_c, 4, 64, 95
4, 236701, Note_off_c, 4, 59, 95
4, 236701, Note_off_c, 4, 55, 95
4, 236880, Note_on_c, 4, 64, 95
4, 236880, Note_on_c, 4, 59, 95
4, 236880, Note_on_c, 4, 55, 95
4, 236941, Note_off_c, 4, 64, 95
4, 236941, Note_off_c, 4, 59, 95
4, 236941, Note_off_c, 4, 55, 95
4, 237120, Note_on_c, 4, 76, 79
4, 237120, Note_on_c, 4, 70, 79
4, 237120, Note_on_c, 4, 65, 79
4, 237360, Note_off_c, 4, 76, 79
4, 237360, Note_off_c, 4, 70, 79
4, 237360, Note_off_c, 4, 65, 79
4, 237360, Note_on_c, 4, 76, 79
4, 237360, Note_on_c, 4, 70, 79
4, 237360, Note_on_c, 4, 65, 79
4, 237600, Note_off_c, 4, 76, 79
4, 237600, Note_off_c, 4, 70, 79
4, 237600, Note_off_c, 4, 65, 79
4, 238080, Note_on_c, 4, 74, 79
4, 238080, Note_on_c, 4, 70, 79
4, 238080, Note_on_c, 4, 65, 79
4, 238800, Note_off_c, 4, 74, 79
4, 238800, Note_off_c, 4, 70, 79
4, 238800, Note_off_c, 4, 65, 79
4, 238800, Note_on_c, 4, 74, 79
4, 238800, Note_on_c, 4, 70, 79
4, 238800, Note_on_c, 4, 65, 79
4, 239040, Note_off_c, 4, 74, 79
4, 239040, Note_off_c, 4, 70, 79
4, 239040, Note_off_c, 4, 65, 79
4, 239040, Note_on_c, 4, 64, 95
4, 239040, Note_on_c, 4, 59, 95
4, 239040, Note_on_c, 4, 55, 95
4, 239101, Note_off_c, 4, 64, 95
4, 239101, Note_off_c, 4, 59, 95
4, 239101, Note_off_c, 4, 55, 95
4, 239520, Note_on_c, 4, 64, 95
4, 239520, Note_on_c, 4, 59, 95
4, 239520, Note_on_c, 4, 55, 95
4, 239581, Note_off_c, 4, 64, 95
4, 239581, Note_off_c, 4, 59, 95
4, 239581, Note_off_c, 4, 55, 95
4, 239760, Note_on_c, 4, 64, 95
4, 239760, Note_on_c, 4, 59, 95
4, 239760, Note_on_c, 4, 55, 95
4, 239821, Note_off_c, 4, 64, 95
4, 239821, Note_off_c, 4, 59, 95
4, 239821, Note_off_c, 4, 55, 95
4, 240000, Note_on_c, 4, 64, 95
4, 240000, Note_on_c, 4, 59, 95
4, 240000, Note_on_c, 4, 55, 95
4, 240061, Note_off_c, 4, 64, 95
4, 240061, Note_off_c, 4, 59, 95
4, 240061, Note_off_c, 4, 55, 95
4, 240240, Note_on_c, 4, 74, 79
4, 240240, Note_on_c, 4, 70, 79
4, 240240, Note_on_c, 4, 65, 79
4, 240480, Note_off_c, 4, 74, 79
4, 240480, Note_off_c, 4, 70, 79
4, 240480, Note_off_c, 4, 65, 79
4, 240480, Note_on_c, 4, 64, 95
4, 240480, Note_on_c, 4, 59, 95
4, 240480, Note_on_c, 4, 55, 95
4, 240541, Note_off_c, 4, 64, 95
4, 240541, Note_off_c, 4, 59, 95
4, 240541, Note_off_c, 4, 55, 95
4, 240720, Note_on_c, 4, 64, 95
4, 240720, Note_on_c, 4, 59, 95
4, 240720, Note_on_c, 4, 55, 95
4, 240781, Note_off_c, 4, 64, 95
4, 240781, Note_off_c, 4, 59, 95
4, 240781, Note_off_c, 4, 55, 95
4, 240960, Note_on_c, 4, 74, 79
4, 240960, Note_on_c, 4, 70, 79
4, 240960, Note_on_c, 4, 65, 79
4, 241200, Note_off_c, 4, 74, 79
4, 241200, Note_off_c, 4, 70, 79
4, 241200, Note_off_c, 4, 65, 79
4, 241200, Note_on_c, 4, 74, 79
4, 241200, Note_on_c, 4, 70, 79
4, 241200, Note_on_c, 4, 65, 79
4, 241440, Note_off_c, 4, 74, 79
4, 241440, Note_off_c, 4, 70, 79
4, 241440, Note_off_c, 4, 65, 79
4, 241440, Note_on_c, 4, 64, 95
4, 241440, Note_on_c, 4, 59, 95
4, 241440, Note_on_c, 4, 55, 95
4, 241501, Note_off_c, 4, 64, 95
4, 241501, Note_off_c, 4, 59, 95
4, 241501, Note_off_c, 4, 55, 95
4, 241680, Note_on_c, 4, 64, 95
4, 241680, Note_on_c, 4, 59, 95
4, 241680, Note_on_c, 4, 55, 95
4, 241741, Note_off_c, 4, 64, 95
4, 241741, Note_off_c, 4, 59, 95
4, 241741, Note_off_c, 4, 55, 95
4, 241920, Note_on_c, 4, 74, 79
4, 241920, Note_on_c, 4, 70, 79
4, 241920, Note_on_c, 4, 65, 79
4, 242640, Note_off_c, 4, 74, 79
4, 242640, Note_off_c, 4, 70, 79
4, 242640, Note_off_c, 4, 65, 79
4, 242640, Note_on_c, 4, 74, 79
4, 242640, Note_on_c, 4, 70, 79
4, 242640, Note_on_c, 4, 65, 79
4, 242880, Note_off_c, 4, 74, 79
4, 242880, Note_off_c, 4, 70, 79
4, 242880, Note_off_c, 4, 65, 79
4, 242880, Note_on_c, 4, 64, 95
4, 242880, Note_on_c, 4, 59, 95
4, 242880, Note_on_c, 4, 55, 95
4, 242941, Note_off_c, 4, 64, 95
4, 242941, Note_off_c, 4, 59, 95
4, 242941, Note_off_c, 4, 55, 95
4, 243360, Note_on_c, 4, 64, 95
4, 243360, Note_on_c, 4, 59, 95
4, 243360, Note_on_c, 4, 55, 95
4, 243421, Note_off_c, 4, 64, 95
4, 243421, Note_off_c, 4, 59, 95
4, 243421, Note_off_c, 4, 55, 95
4, 243600, Note_on_c, 4, 64, 95
4, 243600, Note_on_c, 4, 59, 95
4, 243600, Note_on_c, 4, 55, 95
4, 243661, Note_off_c, 4, 64, 95
4, 243661, Note_off_c, 4, 59, 95
4, 243661, Note_off_c, 4, 55, 95
4, 243840, Note_on_c, 4, 64, 95
4, 243840, Note_on_c, 4, 59, 95
4, 243840, Note_on_c, 4, 55, 95
4, 243901, Note_off_c, 4, 64, 95
4, 243901, Note_off_c, 4, 59, 95
4, 243901, Note_off_c, 4, 55, 95
4, 244080, Note_on_c, 4, 74, 79
4, 244080, Note_on_c, 4, 70, 79
4, 244080, Note_on_c, 4, 65, 79
4, 244320, Note_off_c, 4, 74, 79
4, 244320, Note_off_c, 4, 70, 79
4, 244320, Note_off_c, 4, 65, 79
4, 244800, Note_on_c, 4, 74, 79
4, 244800, Note_on_c, 4, 70, 79
4, 244800, Note_on_c, 4, 65, 79
4, 245040, Note_off_c, 4, 74, 79
4, 245040, Note_off_c, 4, 70, 79
4, 245040, Note_off_c, 4, 65, 79
4, 245040, Note_on_c, 4, 74, 79
4, 245040, Note_on_c, 4, 70, 79
4, 245040, Note_on_c, 4, 65, 79
4, 245280, Note_off_c, 4, 74, 79
4, 245280, Note_off_c, 4, 70, 79
4, 245280, Note_off_c, 4, 65, 79
4, 245280, Note_on_c, 4, 74, 79
4, 245280, Note_on_c, 4, 70, 79
4, 245280, Note_on_c, 4, 65, 79
4, 245760, Note_off_c, 4, 74, 79
4, 245760, Note_off_c, 4, 70, 79
4, 245760, Note_off_c, 4, 65, 79
4, 245760, Note_on_c, 4, 74, 79
4, 245760, Note_on_c, 4, 70, 79
4, 245760, Note_on_c, 4, 65, 79
4, 246480, Note_off_c, 4, 74, 79
4, 246480, Note_off_c, 4, 70, 79
4, 246480, Note_off_c, 4, 65, 79
4, 246480, Note_on_c, 4, 74, 79
4, 246480, Note_on_c, 4, 70, 79
4, 246480, Note_on_c, 4, 65, 79
4, 246720, Note_off_c, 4, 74, 79
4, 246720, Note_off_c, 4, 70, 79
4, 246720, Note_off_c, 4, 65, 79
4, 246720, Note_on_c, 4, 64, 95
4, 246720, Note_on_c, 4, 59, 95
4, 246720, Note_on_c, 4, 55, 95
4, 246781, Note_off_c, 4, 64, 95
4, 246781, Note_off_c, 4, 59, 95
4, 246781, Note_off_c, 4, 55, 95
4, 247200, Note_on_c, 4, 64, 95
4, 247200, Note_on_c, 4, 59, 95
4, 247200, Note_on_c, 4, 55, 95
4, 247261, Note_off_c, 4, 64, 95
4, 247261, Note_off_c, 4, 59, 95
4, 247261, Note_off_c, 4, 55, 95
4, 247440, Note_on_c, 4, 64, 95
4, 247440, Note_on_c, 4, 59, 95
4, 247440, Note_on_c, 4, 55, 95
4, 247501, Note_off_c, 4, 64, 95
4, 247501, Note_off_c, 4, 59, 95
4, 247501, Note_off_c, 4, 55, 95
4, 247680, Note_on_c, 4, 74, 79
4, 247680, Note_on_c, 4, 70, 79
4, 247680, Note_on_c, 4, 65, 79
4, 247920, Note_off_c, 4, 74, 79
4, 247920, Note_off_c, 4, 70, 79
4, 247920, Note_off_c, 4, 65, 79
4, 247920, Note_on_c, 4, 74, 79
4, 247920, Note_on_c, 4, 70, 79
4, 247920, Note_on_c, 4, 65, 79
4, 248160, Note_off_c, 4, 74, 79
4, 248160, Note_off_c, 4, 70, 79
4, 248160, Note_off_c, 4, 65, 79
4, 248160, Note_on_c, 4, 64, 95
4, 248160, Note_on_c, 4, 59, 95
4, 248160, Note_on_c, 4, 55, 95
4, 248221, Note_off_c, 4, 64, 95
4, 248221, Note_off_c, 4, 59, 95
4, 248221, Note_off_c, 4, 55, 95
4, 248640, Note_on_c, 4, 74, 79
4, 248640, Note_on_c, 4, 70, 79
4, 248640, Note_on_c, 4, 65, 79
4, 249120, Note_off_c, 4, 74, 79
4, 249120, Note_off_c, 4, 70, 79
4, 249120, Note_off_c, 4, 65, 79
4, 249120, Note_on_c, 4, 70, 79
4, 249120, Note_on_c, 4, 65, 79
4, 249600, Note_off_c, 4, 70, 79
4, 249600, Note_off_c, 4, 65, 79
4, 249600, Note_on_c, 4, 77, 79
4, 249600, Note_on_c, 4, 70, 79
4, 249600, Note_on_c, 4, 65, 79
4, 250080, Note_off_c, 4, 77, 79
4, 250080, Note_off_c, 4, 70, 79
4, 250080, Note_off_c, 4, 65, 79
4, 250080, Note_on_c, 4, 77, 79
4, 250080, Note_on_c, 4, 70, 79
4, 250080, Note_on_c, 4, 65, 79
4, 250320, Note_off_c, 4, 77, 79
4, 250320, Note_off_c, 4, 70, 79
4, 250320, Note_off_c, 4, 65, 79
4, 250320, Note_on_c, 4, 77, 79
4, 250320, Note_on_c, 4, 70, 79
4, 250320, Note_on_c, 4, 65, 79
4, 250560, Note_off_c, 4, 77, 79
4, 250560, Note_off_c, 4, 70, 79
4, 250560, Note_off_c, 4, 65, 79
4, 251040, Note_on_c, 4, 76, 79
4, 251040, Note_on_c, 4, 70, 79
4, 251040, Note_on_c, 4, 65, 79
4, 251520, Note_off_c, 4, 76, 79
4, 251520, Note_off_c, 4, 70, 79
4, 251520, Note_off_c, 4, 65, 79
4, 251520, Note_on_c, 4, 64, 95
4, 251520, Note_on_c, 4, 59, 95
4, 251520, Note_on_c, 4, 55, 95
4, 251581, Note_off_c, 4, 64, 95
4, 251581, Note_off_c, 4, 59, 95
4, 251581, Note_off_c, 4, 55, 95
4, 251760, Note_on_c, 4, 76, 79
4, 251760, Note_on_c, 4, 70, 79
4, 251760, Note_on_c, 4, 65, 79
4, 252000, Note_off_c, 4, 76, 79
4, 252000, Note_off_c, 4, 70, 79
4, 252000, Note_off_c, 4, 65, 79
4, 252000, Note_on_c, 4, 64, 95
4, 252000, Note_on_c, 4, 59, 95
4, 252000, Note_on_c, 4, 55, 95
4, 252061, Note_off_c, 4, 64, 95
4, 252061, Note_off_c, 4, 59, 95
4, 252061, Note_off_c, 4, 55, 95
4, 252240, Note_on_c, 4, 64, 95
4, 252240, Note_on_c, 4, 59, 95
4, 252240, Note_on_c, 4, 55, 95
4, 252301, Note_off_c, 4, 64, 95
4, 252301, Note_off_c, 4, 59, 95
4, 252301, Note_off_c, 4, 55, 95
4, 252480, Note_on_c, 4, 76, 79
4, 252480, Note_on_c, 4, 70, 79
4, 252480, Note_on_c, 4, 65, 79
4, 252720, Note_off_c, 4, 76, 79
4, 252720, Note_off_c, 4, 70, 79
4, 252720, Note_off_c, 4, 65, 79
4, 252720, Note_on_c, 4, 76, 79
4, 252720, Note_on_c, 4, 70, 79
4, 252720, Note_on_c, 4, 65, 79
4, 252960, Note_off_c, 4, 76, 79
4, 252960, Note_off_c, 4, 70, 79
4, 252960, Note_off_c, 4, 65, 79
4, 253440, Note_on_c, 4, 74, 79
4, 253440, Note_on_c, 4, 70, 79
4, 253440, Note_on_c, 4, 65, 79
4, 254160, Note_off_c, 4, 74, 79
4, 254160, Note_off_c, 4, 70, 79
4, 254160, Note_off_c, 4, 65, 79
4, 254160, Note_on_c, 4, 74, 79
4, 254160, Note_on_c, 4, 70, 79
4, 254160, Note_on_c, 4, 65, 79
4, 254400, Note_off_c, 4, 74, 79
4, 254400, Note_off_c, 4, 70, 79
4, 254400, Note_off_c, 4, 65, 79
4, 254400, Note_on_c, 4, 64, 95
4, 254400, Note_on_c, 4, 59, 95
4, 254400, Note_on_c, 4, 55, 95
4, 254461, Note_off_c, 4, 64, 95
4, 254461, Note_off_c, 4, 59, 95
4, 254461, Note_off_c, 4, 55, 95
4, 254880, Note_on_c, 4, 64, 95
4, 254880, Note_on_c, 4, 59, 95
4, 254880, Note_on_c, 4, 55, 95
4, 254941, Note_off_c, 4, 64, 95
4, 254941, Note_off_c, 4, 59, 95
4, 254941, Note_off_c, 4, 55, 95
4, 255120, Note_on_c, 4, 64, 95
4, 255120, Note_on_c, 4, 59, 95
4, 255120, Note_on_c, 4, 55, 95
4, 255181, Note_off_c, 4, 64, 95
4, 255181, Note_off_c, 4, 59, 95
4, 255181, Note_off_c, 4, 55, 95
4, 255360, Note_on_c, 4, 64, 95
4, 255360, Note_on_c, 4, 59, 95
4, 255360, Note_on_c, 4, 55, 95
4, 255421, Note_off_c, 4, 64, 95
4, 255421, Note_off_c, 4, 59, 95
4, 255421, Note_off_c, 4, 55, 95
4, 255600, Note_on_c, 4, 74, 79
4, 255600, Note_on_c, 4, 70, 79
4, 255600, Note_on_c, 4, 65, 79
4, 255840, Note_off_c, 4, 74, 79
4, 255840, Note_off_c, 4, 70, 79
4, 255840, Note_off_c, 4, 65, 79
4, 255840, Note_on_c, 4, 64, 95
4, 255840, Note_on_c, 4, 59, 95
4, 255840, Note_on_c, 4, 55, 95
4, 255901, Note_off_c, 4, 64, 95
4, 255901, Note_off_c, 4, 59, 95
4, 255901, Note_off_c, 4, 55, 95
4, 256080, Note_on_c, 4, 64, 95
4, 256080, Note_on_c, 4, 59, 95
4, 256080, Note_on_c, 4, 55, 95
4, 256141, Note_off_c, 4, 64, 95
4, 256141, Note_off_c, 4, 59, 95
4, 256141, Note_off_c, 4, 55, 95
4, 256320, Note_on_c, 4, 74, 79
4, 256320, Note_on_c, 4, 70, 79
4, 256320, Note_on_c, 4, 65, 79
4, 256560, Note_off_c, 4, 74, 79
4, 256560, Note_off_c, 4, 70, 79
4, 256560, Note_off_c, 4, 65, 79
4, 256560, Note_on_c, 4, 74, 79
4, 256560, Note_on_c, 4, 70, 79
4, 256560, Note_on_c, 4, 65, 79
4, 256800, Note_off_c, 4, 74, 79
4, 256800, Note_off_c, 4, 70, 79
4, 256800, Note_off_c, 4, 65, 79
4, 256800, Note_on_c, 4, 64, 95
4, 256800, Note_on_c, 4, 59, 95
4, 256800, Note_on_c, 4, 55, 95
4, 256861, Note_off_c, 4, 64, 95
4, 256861, Note_off_c, 4, 59, 95
4, 256861, Note_off_c, 4, 55, 95
4, 257040, Note_on_c, 4, 64, 95
4, 257040, Note_on_c, 4, 59, 95
4, 257040, Note_on_c, 4, 55, 95
4, 257101, Note_off_c, 4, 64, 95
4, 257101, Note_off_c, 4, 59, 95
4, 257101, Note_off_c, 4, 55, 95
4, 257280, Note_on_c, 4, 74, 79
4, 257280, Note_on_c, 4, 70, 79
4, 257280, Note_on_c, 4, 65, 79
4, 258000, Note_off_c, 4, 74, 79
4, 258000, Note_off_c, 4, 70, 79
4, 258000, Note_off_c, 4, 65, 79
4, 258000, Note_on_c, 4, 74, 79
4, 258000, Note_on_c, 4, 70, 79
4, 258000, Note_on_c, 4, 65, 79
4, 258240, Note_off_c, 4, 74, 79
4, 258240, Note_off_c, 4, 70, 79
4, 258240, Note_off_c, 4, 65, 79
4, 258240, Note_on_c, 4, 64, 95
4, 258240, Note_on_c, 4, 59, 95
4, 258240, Note_on_c, 4, 55, 95
4, 258301, Note_off_c, 4, 64, 95
4, 258301, Note_off_c, 4, 59, 95
4, 258301, Note_off_c, 4, 55, 95
4, 258720, Note_on_c, 4, 64, 95
4, 258720, Note_on_c, 4, 59, 95
4, 258720, Note_on_c, 4, 55, 95
4, 258781, Note_off_c, 4, 64, 95
4, 258781, Note_off_c, 4, 59, 95
4, 258781, Note_off_c, 4, 55, 95
4, 258960, Note_on_c, 4, 64, 95
4, 258960, Note_on_c, 4, 59, 95
4, 258960, Note_on_c, 4, 55, 95
4, 259021, Note_off_c, 4, 64, 95
4, 259021, Note_off_c, 4, 59, 95
4, 259021, Note_off_c, 4, 55, 95
4, 259200, Note_on_c, 4, 64, 95
4, 259200, Note_on_c, 4, 59, 95
4, 259200, Note_on_c, 4, 55, 95
4, 259261, Note_off_c, 4, 64, 95
4, 259261, Note_off_c, 4, 59, 95
4, 259261, Note_off_c, 4, 55, 95
4, 259440, Note_on_c, 4, 74, 79
4, 259440, Note_on_c, 4, 70, 79
4, 259440, Note_on_c, 4, 65, 79
4, 259680, Note_off_c, 4, 74, 79
4, 259680, Note_off_c, 4, 70, 79
4, 259680, Note_off_c, 4, 65, 79
4, 260160, Note_on_c, 4, 74, 79
4, 260160, Note_on_c, 4, 70, 79
4, 260160, Note_on_c, 4, 65, 79
4, 260400, Note_off_c, 4, 74, 79
4, 260400, Note_off_c, 4, 70, 79
4, 260400, Note_off_c, 4, 65, 79
4, 260400, Note_on_c, 4, 74, 79
4, 260400, Note_on_c, 4, 70, 79
4, 260400, Note_on_c, 4, 65, 79
4, 260640, Note_off_c, 4, 74, 79
4, 260640, Note_off_c, 4, 70, 79
4, 260640, Note_off_c, 4, 65, 79
4, 260640, Note_on_c, 4, 74, 79
4, 260640, Note_on_c, 4, 70, 79
4, 260640, Note_on_c, 4, 65, 79
4, 261120, Note_off_c, 4, 74, 79
4, 261120, Note_off_c, 4, 70, 79
4, 261120, Note_off_c, 4, 65, 79
4, 261120, Note_on_c, 4, 74, 79
4, 261120, Note_on_c, 4, 70, 79
4, 261120, Note_on_c, 4, 65, 79
4, 261840, Note_off_c, 4, 74, 79
4, 261840, Note_off_c, 4, 70, 79
4, 261840, Note_off_c, 4, 65, 79
4, 261840, Note_on_c, 4, 74, 79
4, 261840, Note_on_c, 4, 70, 79
4, 261840, Note_on_c, 4, 65, 79
4, 262080, Note_off_c, 4, 74, 79
4, 262080, Note_off_c, 4, 70, 79
4, 262080, Note_off_c, 4, 65, 79
4, 262080, Note_on_c, 4, 64, 95
4, 262080, Note_on_c, 4, 59, 95
4, 262080, Note_on_c, 4, 55, 95
4, 262141, Note_off_c, 4, 64, 95
4, 262141, Note_off_c, 4, 59, 95
4, 262141, Note_off_c, 4, 55, 95
4, 262560, Note_on_c, 4, 64, 95
4, 262560, Note_on_c, 4, 59, 95
4, 262560, Note_on_c, 4, 55, 95
4, 262621, Note_off_c, 4, 64, 95
4, 262621, Note_off_c, 4, 59, 95
4, 262621, Note_off_c, 4, 55, 95
4, 262800, Note_on_c, 4, 64, 95
4, 262800, Note_on_c, 4, 59, 95
4, 262800, Note_on_c, 4, 55, 95
4, 262861, Note_off_c, 4, 64, 95
4, 262861, Note_off_c, 4, 59, 95
4, 262861, Note_off_c, 4, 55, 95
4, 263040, Note_on_c, 4, 74, 79
4, 263040, Note_on_c, 4, 70, 79
4, 263040, Note_on_c, 4, 65, 79
4, 263280, Note_off_c, 4, 74, 79
4, 263280, Note_off_c, 4, 70, 79
4, 263280, Note_off_c, 4, 65, 79
4, 263280, Note_on_c, 4, 74, 79
4, 263280, Note_on_c, 4, 70, 79
4, 263280, Note_on_c, 4, 65, 79
4, 263520, Note_off_c, 4, 74, 79
4, 263520, Note_off_c, 4, 70, 79
4, 263520, Note_off_c, 4, 65, 79
4, 263520, Note_on_c, 4, 64, 95
4, 263520, Note_on_c, 4, 59, 95
4, 263520, Note_on_c, 4, 55, 95
4, 263581, Note_off_c, 4, 64, 95
4, 263581, Note_off_c, 4, 59, 95
4, 263581, Note_off_c, 4, 55, 95
4, 264000, Note_on_c, 4, 74, 79
4, 264000, Note_on_c, 4, 70, 79
4, 264000, Note_on_c, 4, 65, 79
4, 264480, Note_off_c, 4, 74, 79
4, 264480, Note_off_c, 4, 70, 79
4, 264480, Note_off_c, 4, 65, 79
4, 264480, Note_on_c, 4, 70, 79
4, 264480, Note_on_c, 4, 65, 79
4, 264960, Note_off_c, 4, 70, 79
4, 264960, Note_off_c, 4, 65, 79
4, 264960, Note_on_c, 4, 77, 79
4, 264960, Note_on_c, 4, 70, 79
4, 264960, Note_on_c, 4, 65, 79
4, 265440, Note_off_c, 4, 77, 79
4, 265440, Note_off_c, 4, 70, 79
4, 265440, Note_off_c, 4, 65, 79
4, 265440, Note_on_c, 4, 77, 79
4, 265440, Note_on_c, 4, 70, 79
4, 265440, Note_on_c, 4, 65, 79
4, 265680, Note_off_c, 4, 77, 79
4, 265680, Note_off_c, 4, 70, 79
4, 265680, Note_off_c, 4, 65, 79
4, 265680, Note_on_c, 4, 77, 79
4, 265680, Note_on_c, 4, 70, 79
4, 265680, Note_on_c, 4, 65, 79
4, 265920, Note_off_c, 4, 77, 79
4, 265920, Note_off_c, 4, 70, 79
4, 265920, Note_off_c, 4, 65, 79
4, 266400, Note_on_c, 4, 76, 79
4, 266400, Note_on_c, 4, 70, 79
4, 266400, Note_on_c, 4, 65, 79
4, 266880, Note_off_c, 4, 76, 79
4, 266880, Note_off_c, 4, 70, 79
4, 266880, Note_off_c, 4, 65, 79
4, 266880, Note_on_c, 4, 64, 95
4, 266880, Note_on_c, 4, 59, 95
4, 266880, Note_on_c, 4, 55, 95
4, 266941, Note_off_c, 4, 64, 95
4, 266941, Note_off_c, 4, 59, 95
4, 266941, Note_off_c, 4, 55, 95
4, 267120, Note_on_c, 4, 76, 79
4, 267120, Note_on_c, 4, 70, 79
4, 267120, Note_on_c, 4, 65, 79
4, 267360, Note_off_c, 4, 76, 79
4, 267360, Note_off_c, 4, 70, 79
4, 267360, Note_off_c, 4, 65, 79
4, 267360, Note_on_c, 4, 64, 95
4, 267360, Note_on_c, 4, 59, 95
4, 267360, Note_on_c, 4, 55, 95
4, 267421, Note_off_c, 4, 64, 95
4, 267421, Note_off_c, 4, 59, 95
4, 267421, Note_off_c, 4, 55, 95
4, 267600, Note_on_c, 4, 64, 95
4, 267600, Note_on_c, 4, 59, 95
4, 267600, Note_on_c, 4, 55, 95
4, 267661, Note_off_c, 4, 64, 95
4, 267661, Note_off_c, 4, 59, 95
4, 267661, Note_off_c, 4, 55, 95
4, 267840, Note_on_c, 4, 76, 79
4, 267840, Note_on_c, 4, 70, 79
4, 267840, Note_on_c, 4, 65, 79
4, 268080, Note_off_c, 4, 76, 79
4, 268080, Note_off_c, 4, 70, 79
4, 268080, Note_off_c, 4, 65, 79
4, 268080, Note_on_c, 4, 76, 79
4, 268080, Note_on_c, 4, 70, 79
4, 268080, Note_on_c, 4, 65, 79
4, 268320, Note_off_c, 4, 76, 79
4, 268320, Note_off_c, 4, 70, 79
4, 268320, Note_off_c, 4, 65, 79
4, 268800, Note_on_c, 4, 74, 79
4, 268800, Note_on_c, 4, 70, 79
4, 268800, Note_on_c, 4, 65, 79
4, 269520, Note_off_c, 4, 74, 79
4, 269520, Note_off_c, 4, 70, 79
4, 269520, Note_off_c, 4, 65, 79
4, 269520, Note_on_c, 4, 74, 79
4, 269520, Note_on_c, 4, 70, 79
4, 269520, Note_on_c, 4, 65, 79
4, 269760, Note_off_c, 4, 74, 79
4, 269760, Note_off_c, 4, 70, 79
4, 269760, Note_off_c, 4, 65, 79
4, 269760, Note_on_c, 4, 64, 95
4, 269760, Note_on_c, 4, 59, 95
4, 269760, Note_on_c, 4, 55, 95
4, 269821, Note_off_c, 4, 64, 95
4, 269821, Note_off_c, 4, 59, 95
4, 269821, Note_off_c, 4, 55, 95
4, 270240, Note_on_c, 4, 64, 95
4, 270240, Note_on_c, 4, 59, 95
4, 270240, Note_on_c, 4, 55, 95
4, 270301, Note_off_c, 4, 64, 95
4, 270301, Note_off_c, 4, 59, 95
4, 270301, Note_off_c, 4, 55, 95
4, 270480, Note_on_c, 4, 64, 95
4, 270480, Note_on_c, 4, 59, 95
4, 270480, Note_on_c, 4, 55, 95
4, 270541, Note_off_c, 4, 64, 95
4, 270541, Note_off_c, 4, 59, 95
4, 270541, Note_off_c, 4, 55, 95
4, 270720, Note_on_c, 4, 64, 95
4, 270720, Note_on_c, 4, 59, 95
4, 270720, Note_on_c, 4, 55, 95
4, 270781, Note_off_c, 4, 64, 95
4, 270781, Note_off_c, 4, 59, 95
4, 270781, Note_off_c, 4, 55, 95
4, 270960, Note_on_c, 4, 74, 79
4, 270960, Note_on_c, 4, 70, 79
4, 270960, Note_on_c, 4, 65, 79
4, 271200, Note_off_c, 4, 74, 79
4, 271200, Note_off_c, 4, 70, 79
4, 271200, Note_off_c, 4, 65, 79
4, 271200, Note_on_c, 4, 64, 95
4, 271200, Note_on_c, 4, 59, 95
4, 271200, Note_on_c, 4, 55, 95
4, 271261, Note_off_c, 4, 64, 95
4, 271261, Note_off_c, 4, 59, 95
4, 271261, Note_off_c, 4, 55, 95
4, 271440, Note_on_c, 4, 64, 95
4, 271440, Note_on_c, 4, 59, 95
4, 271440, Note_on_c, 4, 55, 95
4, 271501, Note_off_c, 4, 64, 95
4, 271501, Note_off_c, 4, 59, 95
4, 271501, Note_off_c, 4, 55, 95
4, 271680, Note_on_c, 4, 74, 79
4, 271680, Note_on_c, 4, 70, 79
4, 271680, Note_on_c, 4, 65, 79
4, 271920, Note_off_c, 4, 74, 79
4, 271920, Note_off_c, 4, 70, 79
4, 271920, Note_off_c, 4, 65, 79
4, 271920, Note_on_c, 4, 74, 79
4, 271920, Note_on_c, 4, 70, 79
4, 271920, Note_on_c, 4, 65, 79
4, 272160, Note_off_c, 4, 74, 79
4, 272160, Note_off_c, 4, 70, 79
4, 272160, Note_off_c, 4, 65, 79
4, 272160, Note_on_c, 4, 64, 95
4, 272160, Note_on_c, 4, 59, 95
4, 272160, Note_on_c, 4, 55, 95
4, 272221, Note_off_c, 4, 64, 95
4, 272221, Note_off_c, 4, 59, 95
4, 272221, Note_off_c, 4, 55, 95
4, 272400, Note_on_c, 4, 64, 95
4, 272400, Note_on_c, 4, 59, 95
4, 272400, Note_on_c, 4, 55, 95
4, 272461, Note_off_c, 4, 64, 95
4, 272461, Note_off_c, 4, 59, 95
4, 272461, Note_off_c, 4, 55, 95
4, 272640, Note_on_c, 4, 74, 79
4, 272640, Note_on_c, 4, 70, 79
4, 272640, Note_on_c, 4, 65, 79
4, 273360, Note_off_c, 4, 74, 79
4, 273360, Note_off_c, 4, 70, 79
4, 273360, Note_off_c, 4, 65, 79
4, 273360, Note_on_c, 4, 74, 79
4, 273360, Note_on_c, 4, 70, 79
4, 273360, Note_on_c, 4, 65, 79
4, 273600, Note_off_c, 4, 74, 79
4, 273600, Note_off_c, 4, 70, 79
4, 273600, Note_off_c, 4, 65, 79
4, 273600, Note_on_c, 4, 64, 95
4, 273600, Note_on_c, 4, 59, 95
4, 273600, Note_on_c, 4, 55, 95
4, 273661, Note_off_c, 4, 64, 95
4, 273661, Note_off_c, 4, 59, 95
4, 273661, Note_off_c, 4, 55, 95
4, 274080, Note_on_c, 4, 64, 95
4, 274080, Note_on_c, 4, 59, 95
4, 274080, Note_on_c, 4, 55, 95
4, 274141, Note_off_c, 4, 64, 95
4, 274141, Note_off_c, 4, 59, 95
4, 274141, Note_off_c, 4, 55, 95
4, 274320, Note_on_c, 4, 64, 95
4, 274320, Note_on_c, 4, 59, 95
4, 274320, Note_on_c, 4, 55, 95
4, 274381, Note_off_c, 4, 64, 95
4, 274381, Note_off_c, 4, 59, 95
4, 274381, Note_off_c, 4, 55, 95
4, 274560, Note_on_c, 4, 64, 95
4, 274560, Note_on_c, 4, 59, 95
4, 274560, Note_on_c, 4, 55, 95
4, 274621, Note_off_c, 4, 64, 95
4, 274621, Note_off_c, 4, 59, 95
4, 274621, Note_off_c, 4, 55, 95
4, 274800, Note_on_c, 4, 74, 79
4, 274800, Note_on_c, 4, 70, 79
4, 274800, Note_on_c, 4, 65, 79
4, 275040, Note_off_c, 4, 74, 79
4, 275040, Note_off_c, 4, 70, 79
4, 275040, Note_off_c, 4, 65, 79
4, 275520, Note_on_c, 4, 74, 79
4, 275520, Note_on_c, 4, 70, 79
4, 275520, Note_on_c, 4, 65, 79
4, 275760, Note_off_c, 4, 74, 79
4, 275760, Note_off_c, 4, 70, 79
4, 275760, Note_off_c, 4, 65, 79
4, 275760, Note_on_c, 4, 74, 79
4, 275760, Note_on_c, 4, 70, 79
4, 275760, Note_on_c, 4, 65, 79
4, 276000, Note_off_c, 4, 74, 79
4, 276000, Note_off_c, 4, 70, 79
4, 276000, Note_off_c, 4, 65, 79
4, 276000, Note_on_c, 4, 74, 79
4, 276000, Note_on_c, 4, 70, 79
4, 276000, Note_on_c, 4, 65, 79
4, 276480, Note_off_c, 4, 74, 79
4, 276480, Note_off_c, 4, 70, 79
4, 276480, Note_off_c, 4, 65, 79
4, 276480, Note_on_c, 4, 74, 79
4, 276480, Note_on_c, 4, 70, 79
4, 276480, Note_on_c, 4, 65, 79
4, 277200, Note_off_c, 4, 74, 79
4, 277200, Note_off_c, 4, 70, 79
4, 277200, Note_off_c, 4, 65, 79
4, 277200, Note_on_c, 4, 74, 79
4, 277200, Note_on_c, 4, 70, 79
4, 277200, Note_on_c, 4, 65, 79
4, 277440, Note_off_c, 4, 74, 79
4, 277440, Note_off_c, 4, 70, 79
4, 277440, Note_off_c, 4, 65, 79
4, 277440, Note_on_c, 4, 64, 95
4, 277440, Note_on_c, 4, 59, 95
4, 277440, Note_on_c, 4, 55, 95
4, 277501, Note_off_c, 4, 64, 95
4, 277501, Note_off_c, 4, 59, 95
4, 277501, Note_off_c, 4, 55, 95
4, 277920, Note_on_c, 4, 64, 95
4, 277920, Note_on_c, 4, 59, 95
4, 277920, Note_on_c, 4, 55, 95
4, 277981, Note_off_c, 4, 64, 95
4, 277981, Note_off_c, 4, 59, 95
4, 277981, Note_off_c, 4, 55, 95
4, 278160, Note_on_c, 4, 64, 95
4, 278160, Note_on_c, 4, 59, 95
4, 278160, Note_on_c, 4, 55, 95
4, 278221, Note_off_c, 4, 64, 95
4, 278221, Note_off_c, 4, 59, 95
4, 278221, Note_off_c, 4, 55, 95
4, 278400, Note_on_c, 4, 64, 95
4, 278400, Note_on_c, 4, 59, 95
4, 278400, Note_on_c, 4, 55, 95
4, 278461, Note_off_c, 4, 64, 95
4, 278461, Note_off_c, 4, 59, 95
4, 278461, Note_off_c, 4, 55, 95
4, 278640, Note_on_c, 4, 64, 95
4, 278640, Note_on_c, 4, 59, 95
4, 278640, Note_on_c, 4, 55, 95
4, 278701, Note_off_c, 4, 64, 95
4, 278701, Note_off_c, 4, 59, 95
4, 278701, Note_off_c, 4, 55, 95
4, 278880, Note_on_c, 4, 64, 95
4, 278880, Note_on_c, 4, 59, 95
4, 278880, Note_on_c, 4, 55, 95
4, 278941, Note_off_c, 4, 64, 95
4, 278941, Note_off_c, 4, 59, 95
4, 278941, Note_off_c, 4, 55, 95
4, 279360, Note_on_c, 4, 76, 79
4, 279360, Note_on_c, 4, 72, 79
4, 279360, Note_on_c, 4, 67, 79
4, 279600, Note_off_c, 4, 76, 79
4, 279600, Note_off_c, 4, 72, 79
4, 279600, Note_off_c, 4, 67, 79
4, 279600, Note_on_c, 4, 76, 79
4, 279600, Note_on_c, 4, 72, 79
4, 279600, Note_on_c, 4, 67, 79
4, 279840, Note_off_c, 4, 76, 79
4, 279840, Note_off_c, 4, 72, 79
4, 279840, Note_off_c, 4, 67, 79
4, 280320, Note_on_c, 4, 74, 79
4, 280320, Note_on_c, 4, 70, 79
4, 280320, Note_on_c, 4, 65, 79
4, 281040, Note_off_c, 4, 74, 79
4, 281040, Note_off_c, 4, 70, 79
4, 281040, Note_off_c, 4, 65, 79
4, 281040, Note_on_c, 4, 74, 79
4, 281040, Note_on_c, 4, 70, 79
4, 281040, Note_on_c, 4, 65, 79
4, 281280, Note_off_c, 4, 74, 79
4, 281280, Note_off_c, 4, 70, 79
4, 281280, Note_off_c, 4, 65, 79
4, 281280, Note_on_c, 4, 64, 95
4, 281280, Note_on_c, 4, 59, 95
4, 281280, Note_on_c, 4, 55, 95
4, 281341, Note_off_c, 4, 64, 95
4, 281341, Note_off_c, 4, 59, 95
4, 281341, Note_off_c, 4, 55, 95
4, 281760, Note_on_c, 4, 64, 95
4, 281760, Note_on_c, 4, 59, 95
4, 281760, Note_on_c, 4, 55, 95
4, 281821, Note_off_c, 4, 64, 95
4, 281821, Note_off_c, 4, 59, 95
4, 281821, Note_off_c, 4, 55, 95
4, 282000, Note_on_c, 4, 64, 95
4, 282000, Note_on_c, 4, 59, 95
4, 282000, Note_on_c, 4, 55, 95
4, 282061, Note_off_c, 4, 64, 95
4, 282061, Note_off_c, 4, 59, 95
4, 282061, Note_off_c, 4, 55, 95
4, 282240, Note_on_c, 4, 64, 95
4, 282240, Note_on_c, 4, 59, 95
4, 282240, Note_on_c, 4, 55, 95
4, 282301, Note_off_c, 4, 64, 95
4, 282301, Note_off_c, 4, 59, 95
4, 282301, Note_off_c, 4, 55, 95
4, 282480, Note_on_c, 4, 64, 95
4, 282480, Note_on_c, 4, 59, 95
4, 282480, Note_on_c, 4, 55, 95
4, 282541, Note_off_c, 4, 64, 95
4, 282541, Note_off_c, 4, 59, 95
4, 282541, Note_off_c, 4, 55, 95
4, 282720, Note_on_c, 4, 64, 95
4, 282720, Note_on_c, 4, 59, 95
4, 282720, Note_on_c, 4, 55, 95
4, 282781, Note_off_c, 4, 64, 95
4, 282781, Note_off_c, 4, 59, 95
4, 282781, Note_off_c, 4, 55, 95
4, 283200, Note_on_c, 4, 64, 95
4, 283200, Note_on_c, 4, 59, 95
4, 283200, Note_on_c, 4, 55, 95
4, 283261, Note_off_c, 4, 64, 95
4, 283261, Note_off_c, 4, 59, 95
4, 283261, Note_off_c, 4, 55, 95
4, 283680, Note_on_c, 4, 74, 79
4, 283680, Note_on_c, 4, 70, 79
4, 283680, Note_on_c, 4, 65, 79
4, 284160, Note_off_c, 4, 74, 79
4, 284160, Note_off_c, 4, 70, 79
4, 284160, Note_off_c, 4, 65, 79
4, 284160, Note_on_c, 4, 74, 79
4, 284160, Note_on_c, 4, 70, 79
4, 284160, Note_on_c, 4, 65, 79
4, 284880, Note_off_c, 4, 74, 79
4, 284880, Note_off_c, 4, 70, 79
4, 284880, Note_off_c, 4, 65, 79
4, 284880, Note_on_c, 4, 74, 79
4, 284880, Note_on_c, 4, 70, 79
4, 284880, Note_on_c, 4, 65, 79
4, 285120, Note_off_c, 4, 74, 79
4, 285120, Note_off_c, 4, 70, 79
4, 285120, Note_off_c, 4, 65, 79
4, 285120, Note_on_c, 4, 64, 95
4, 285120, Note_on_c, 4, 59, 95
4, 285120, Note_on_c, 4, 55, 95
4, 285181, Note_off_c, 4, 64, 95
4, 285181, Note_off_c, 4, 59, 95
4, 285181, Note_off_c, 4, 55, 95
4, 285600, Note_on_c, 4, 64, 95
4, 285600, Note_on_c, 4, 59, 95
4, 285600, Note_on_c, 4, 55, 95
4, 285661, Note_off_c, 4, 64, 95
4, 285661, Note_off_c, 4, 59, 95
4, 285661, Note_off_c, 4, 55, 95
4, 285840, Note_on_c, 4, 64, 95
4, 285840, Note_on_c, 4, 59, 95
4, 285840, Note_on_c, 4, 55, 95
4, 285901, Note_off_c, 4, 64, 95
4, 285901, Note_off_c, 4, 59, 95
4, 285901, Note_off_c, 4, 55, 95
4, 286080, Note_on_c, 4, 64, 95
4, 286080, Note_on_c, 4, 59, 95
4, 286080, Note_on_c, 4, 55, 95
4, 286141, Note_off_c, 4, 64, 95
4, 286141, Note_off_c, 4, 59, 95
4, 286141, Note_off_c, 4, 55, 95
4, 286320, Note_on_c, 4, 64, 95
4, 286320, Note_on_c, 4, 59, 95
4, 286320, Note_on_c, 4, 55, 95
4, 286381, Note_off_c, 4, 64, 95
4, 286381, Note_off_c, 4, 59, 95
4, 286381, Note_off_c, 4, 55, 95
4, 286560, Note_on_c, 4, 64, 95
4, 286560, Note_on_c, 4, 59, 95
4, 286560, Note_on_c, 4, 55, 95
4, 286621, Note_off_c, 4, 64, 95
4, 286621, Note_off_c, 4, 59, 95
4, 286621, Note_off_c, 4, 55, 95
4, 287040, Note_on_c, 4, 76, 79
4, 287040, Note_on_c, 4, 72, 79
4, 287040, Note_on_c, 4, 67, 79
4, 287280, Note_off_c, 4, 76, 79
4, 287280, Note_off_c, 4, 72, 79
4, 287280, Note_off_c, 4, 67, 79
4, 287280, Note_on_c, 4, 76, 79
4, 287280, Note_on_c, 4, 72, 79
4, 287280, Note_on_c, 4, 67, 79
4, 287520, Note_off_c, 4, 76, 79
4, 287520, Note_off_c, 4, 72, 79
4, 287520, Note_off_c, 4, 67, 79
4, 288000, Note_on_c, 4, 74, 79
4, 288000, Note_on_c, 4, 70, 79
4, 288000, Note_on_c, 4, 65, 79
4, 288720, Note_off_c, 4, 74, 79
4, 288720, Note_off_c, 4, 70, 79
4, 288720, Note_off_c, 4, 65, 79
4, 288720, Note_on_c, 4, 74, 79
4, 288720, Note_on_c, 4, 70, 79
4, 288720, Note_on_c, 4, 65, 79
4, 288960, Note_off_c, 4, 74, 79
4, 288960, Note_off_c, 4, 70, 79
4, 288960, Note_off_c, 4, 65, 79
4, 288960, Note_on_c, 4, 64, 95
4, 288960, Note_on_c, 4, 59, 79
4, 288960, Note_on_c, 4, 55, 95
4, 289021, Note_off_c, 4, 64, 95
4, 289021, Note_off_c, 4, 59, 79
4, 289021, Note_off_c, 4, 55, 95
4, 289440, Note_on_c, 4, 64, 95
4, 289440, Note_on_c, 4, 59, 79
4, 289440, Note_on_c, 4, 55, 95
4, 289501, Note_off_c, 4, 64, 95
4, 289501, Note_off_c, 4, 59, 79
4, 289501, Note_off_c, 4, 55, 95
4, 289680, Note_on_c, 4, 64, 95
4, 289680, Note_on_c, 4, 59, 79
4, 289680, Note_on_c, 4, 55, 95
4, 289741, Note_off_c, 4, 64, 95
4, 289741, Note_off_c, 4, 59, 79
4, 289741, Note_off_c, 4, 55, 95
4, 289920, Note_on_c, 4, 64, 95
4, 289920, Note_on_c, 4, 59, 79
4, 289920, Note_on_c, 4, 55, 95
4, 289981, Note_off_c, 4, 64, 95
4, 289981, Note_off_c, 4, 59, 79
4, 289981, Note_off_c, 4, 55, 95
4, 290160, Note_on_c, 4, 64, 95
4, 290160, Note_on_c, 4, 59, 79
4, 290160, Note_on_c, 4, 55, 95
4, 290221, Note_off_c, 4, 64, 95
4, 290221, Note_off_c, 4, 59, 79
4, 290221, Note_off_c, 4, 55, 95
4, 290400, Note_on_c, 4, 64, 79
4, 290400, Note_on_c, 4, 59, 79
4, 290400, Note_on_c, 4, 55, 95
4, 290461, Note_off_c, 4, 64, 79
4, 290461, Note_off_c, 4, 59, 79
4, 290461, Note_off_c, 4, 55, 95
4, 290880, Note_on_c, 4, 64, 79
4, 290880, Note_on_c, 4, 59, 79
4, 290880, Note_on_c, 4, 55, 79
4, 290941, Note_off_c, 4, 64, 79
4, 290941, Note_off_c, 4, 59, 79
4, 290941, Note_off_c, 4, 55, 79
4, 291360, Note_on_c, 4, 74, 79
4, 291360, Note_on_c, 4, 70, 79
4, 291360, Note_on_c, 4, 65, 79
4, 291840, Note_off_c, 4, 74, 79
4, 291840, Note_off_c, 4, 70, 79
4, 291840, Note_off_c, 4, 65, 79
4, 291840, Note_on_c, 4, 74, 79
4, 291840, Note_on_c, 4, 70, 79
4, 291840, Note_on_c, 4, 65, 79
4, 292560, Note_off_c, 4, 74, 79
4, 292560, Note_off_c, 4, 70, 79
4, 292560, Note_off_c, 4, 65, 79
4, 292560, Note_on_c, 4, 74, 79
4, 292560, Note_on_c, 4, 70, 79
4, 292560, Note_on_c, 4, 65, 79
4, 292800, Note_off_c, 4, 74, 79
4, 292800, Note_off_c, 4, 70, 79
4, 292800, Note_off_c, 4, 65, 79
4, 292800, Note_on_c, 4, 64, 95
4, 292800, Note_on_c, 4, 59, 95
4, 292800, Note_on_c, 4, 55, 95
4, 292861, Note_off_c, 4, 64, 95
4, 292861, Note_off_c, 4, 59, 95
4, 292861, Note_off_c, 4, 55, 95
4, 293280, Note_on_c, 4, 64, 95
4, 293280, Note_on_c, 4, 59, 95
4, 293280, Note_on_c, 4, 55, 95
4, 293341, Note_off_c, 4, 64, 95
4, 293341, Note_off_c, 4, 59, 95
4, 293341, Note_off_c, 4, 55, 95
4, 293520, Note_on_c, 4, 64, 95
4, 293520, Note_on_c, 4, 59, 95
4, 293520, Note_on_c, 4, 55, 95
4, 293581, Note_off_c, 4, 64, 95
4, 293581, Note_off_c, 4, 59, 95
4, 293581, Note_off_c, 4, 55, 95
4, 293760, Note_on_c, 4, 74, 79
4, 293760, Note_on_c, 4, 70, 79
4, 293760, Note_on_c, 4, 65, 79
4, 294000, Note_off_c, 4, 74, 79
4, 294000, Note_off_c, 4, 70, 79
4, 294000, Note_off_c, 4, 65, 79
4, 294000, Note_on_c, 4, 74, 79
4, 294000, Note_on_c, 4, 70, 79
4, 294000, Note_on_c, 4, 65, 79
4, 294240, Note_off_c, 4, 74, 79
4, 294240, Note_off_c, 4, 70, 79
4, 294240, Note_off_c, 4, 65, 79
4, 294240, Note_on_c, 4, 64, 95
4, 294240, Note_on_c, 4, 59, 95
4, 294240, Note_on_c, 4, 55, 95
4, 294301, Note_off_c, 4, 64, 95
4, 294301, Note_off_c, 4, 59, 95
4, 294301, Note_off_c, 4, 55, 95
4, 294720, Note_on_c, 4, 74, 79
4, 294720, Note_on_c, 4, 70, 79
4, 294720, Note_on_c, 4, 65, 79
4, 295200, Note_off_c, 4, 74, 79
4, 295200, Note_off_c, 4, 70, 79
4, 295200, Note_off_c, 4, 65, 79
4, 295200, Note_on_c, 4, 70, 79
4, 295200, Note_on_c, 4, 65, 79
4, 295680, Note_off_c, 4, 70, 79
4, 295680, Note_off_c, 4, 65, 79
4, 295680, Note_on_c, 4, 77, 79
4, 295680, Note_on_c, 4, 70, 79
4, 295680, Note_on_c, 4, 65, 79
4, 296160, Note_off_c, 4, 77, 79
4, 296160, Note_off_c, 4, 70, 79
4, 296160, Note_off_c, 4, 65, 79
4, 296160, Note_on_c, 4, 77, 79
4, 296160, Note_on_c, 4, 70, 79
4, 296160, Note_on_c, 4, 65, 79
4, 296400, Note_off_c, 4, 77, 79
4, 296400, Note_off_c, 4, 70, 79
4, 296400, Note_off_c, 4, 65, 79
4, 296400, Note_on_c, 4, 77, 79
4, 296400, Note_on_c, 4, 70, 79
4, 296400, Note_on_c, 4, 65, 79
4, 296640, Note_off_c, 4, 77, 79
4, 296640, Note_off_c, 4, 70, 79
4, 296640, Note_off_c, 4, 65, 79
4, 297120, Note_on_c, 4, 76, 79
4, 297120, Note_on_c, 4, 70, 79
4, 297120, Note_on_c, 4, 65, 79
4, 297600, Note_off_c, 4, 76, 79
4, 297600, Note_off_c, 4, 70, 79
4, 297600, Note_off_c, 4, 65, 79
4, 297600, Note_on_c, 4, 64, 95
4, 297600, Note_on_c, 4, 59, 95
4, 297600, Note_on_c, 4, 55, 95
4, 297661, Note_off_c, 4, 64, 95
4, 297661, Note_off_c, 4, 59, 95
4, 297661, Note_off_c, 4, 55, 95
4, 297840, Note_on_c, 4, 76, 79
4, 297840, Note_on_c, 4, 70, 79
4, 297840, Note_on_c, 4, 65, 79
4, 298080, Note_off_c, 4, 76, 79
4, 298080, Note_off_c, 4, 70, 79
4, 298080, Note_off_c, 4, 65, 79
4, 298080, Note_on_c, 4, 64, 95
4, 298080, Note_on_c, 4, 59, 95
4, 298080, Note_on_c, 4, 55, 95
4, 298141, Note_off_c, 4, 64, 95
4, 298141, Note_off_c, 4, 59, 95
4, 298141, Note_off_c, 4, 55, 95
4, 298320, Note_on_c, 4, 64, 95
4, 298320, Note_on_c, 4, 59, 95
4, 298320, Note_on_c, 4, 55, 95
4, 298381, Note_off_c, 4, 64, 95
4, 298381, Note_off_c, 4, 59, 95
4, 298381, Note_off_c, 4, 55, 95
4, 298560, Note_on_c, 4, 76, 79
4, 298560, Note_on_c, 4, 70, 79
4, 298560, Note_on_c, 4, 65, 79
4, 298800, Note_off_c, 4, 76, 79
4, 298800, Note_off_c, 4, 70, 79
4, 298800, Note_off_c, 4, 65, 79
4, 298800, Note_on_c, 4, 76, 79
4, 298800, Note_on_c, 4, 70, 79
4, 298800, Note_on_c, 4, 65, 79
4, 299040, Note_off_c, 4, 76, 79
4, 299040, Note_off_c, 4, 70, 79
4, 299040, Note_off_c, 4, 65, 79
4, 299520, Note_on_c, 4, 74, 79
4, 299520, Note_on_c, 4, 70, 79
4, 299520, Note_on_c, 4, 65, 79
4, 300240, Note_off_c, 4, 74, 79
4, 300240, Note_off_c, 4, 70, 79
4, 300240, Note_off_c, 4, 65, 79
4, 300240, Note_on_c, 4, 74, 79
4, 300240, Note_on_c, 4, 70, 79
4, 300240, Note_on_c, 4, 65, 79
4, 300480, Note_off_c, 4, 74, 79
4, 300480, Note_off_c, 4, 70, 79
4, 300480, Note_off_c, 4, 65, 79
4, 300480, Note_on_c, 4, 64, 95
4, 300480, Note_on_c, 4, 59, 95
4, 300480, Note_on_c, 4, 55, 95
4, 300541, Note_off_c, 4, 64, 95
4, 300541, Note_off_c, 4, 59, 95
4, 300541, Note_off_c, 4, 55, 95
4, 300960, Note_on_c, 4, 64, 95
4, 300960, Note_on_c, 4, 59, 95
4, 300960, Note_on_c, 4, 55, 95
4, 301021, Note_off_c, 4, 64, 95
4, 301021, Note_off_c, 4, 59, 95
4, 301021, Note_off_c, 4, 55, 95
4, 301200, Note_on_c, 4, 64, 95
4, 301200, Note_on_c, 4, 59, 95
4, 301200, Note_on_c, 4, 55, 95
4, 301261, Note_off_c, 4, 64, 95
4, 301261, Note_off_c, 4, 59, 95
4, 301261, Note_off_c, 4, 55, 95
4, 301440, Note_on_c, 4, 64, 95
4, 301440, Note_on_c, 4, 59, 95
4, 301440, Note_on_c, 4, 55, 95
4, 301501, Note_off_c, 4, 64, 95
4, 301501, Note_off_c, 4, 59, 95
4, 301501, Note_off_c, 4, 55, 95
4, 301680, Note_on_c, 4, 74, 79
4, 301680, Note_on_c, 4, 70, 79
4, 301680, Note_on_c, 4, 65, 79
4, 301920, Note_off_c, 4, 74, 79
4, 301920, Note_off_c, 4, 70, 79
4, 301920, Note_off_c, 4, 65, 79
4, 301920, Note_on_c, 4, 64, 95
4, 301920, Note_on_c, 4, 59, 95
4, 301920, Note_on_c, 4, 55, 95
4, 301981, Note_off_c, 4, 64, 95
4, 301981, Note_off_c, 4, 59, 95
4, 301981, Note_off_c, 4, 55, 95
4, 302160, Note_on_c, 4, 64, 95
4, 302160, Note_on_c, 4, 59, 95
4, 302160, Note_on_c, 4, 55, 95
4, 302221, Note_off_c, 4, 64, 95
4, 302221, Note_off_c, 4, 59, 95
4, 302221, Note_off_c, 4, 55, 95
4, 302400, Note_on_c, 4, 74, 79
4, 302400, Note_on_c, 4, 70, 79
4, 302400, Note_on_c, 4, 65, 79
4, 302640, Note_off_c, 4, 74, 79
4, 302640, Note_off_c, 4, 70, 79
4, 302640, Note_off_c, 4, 65, 79
4, 302640, Note_on_c, 4, 74, 79
4, 302640, Note_on_c, 4, 70, 79
4, 302640, Note_on_c, 4, 65, 79
4, 302880, Note_off_c, 4, 74, 79
4, 302880, Note_off_c, 4, 70, 79
4, 302880, Note_off_c, 4, 65, 79
4, 302880, Note_on_c, 4, 64, 95
4, 302880, Note_on_c, 4, 59, 95
4, 302880, Note_on_c, 4, 55, 95
4, 302941, Note_off_c, 4, 64, 95
4, 302941, Note_off_c, 4, 59, 95
4, 302941, Note_off_c, 4, 55, 95
4, 303120, Note_on_c, 4, 64, 95
4, 303120, Note_on_c, 4, 59, 95
4, 303120, Note_on_c, 4, 55, 95
4, 303181, Note_off_c, 4, 64, 95
4, 303181, Note_off_c, 4, 59, 95
4, 303181, Note_off_c, 4, 55, 95
4, 303360, Note_on_c, 4, 74, 79
4, 303360, Note_on_c, 4, 70, 79
4, 303360, Note_on_c, 4, 65, 79
4, 304080, Note_off_c, 4, 74, 79
4, 304080, Note_off_c, 4, 70, 79
4, 304080, Note_off_c, 4, 65, 79
4, 304080, Note_on_c, 4, 74, 79
4, 304080, Note_on_c, 4, 70, 79
4, 304080, Note_on_c, 4, 65, 79
4, 304320, Note_off_c, 4, 74, 79
4, 304320, Note_off_c, 4, 70, 79
4, 304320, Note_off_c, 4, 65, 79
4, 304320, Note_on_c, 4, 64, 95
4, 304320, Note_on_c, 4, 59, 95
4, 304320, Note_on_c, 4, 55, 95
4, 304381, Note_off_c, 4, 64, 95
4, 304381, Note_off_c, 4, 59, 95
4, 304381, Note_off_c, 4, 55, 95
4, 304800, Note_on_c, 4, 64, 95
4, 304800, Note_on_c, 4, 59, 95
4, 304800, Note_on_c, 4, 55, 95
4, 304861, Note_off_c, 4, 64, 95
4, 304861, Note_off_c, 4, 59, 95
4, 304861, Note_off_c, 4, 55, 95
4, 305040, Note_on_c, 4, 64, 95
4, 305040, Note_on_c, 4, 59, 95
4, 305040, Note_on_c, 4, 55, 95
4, 305101, Note_off_c, 4, 64, 95
4, 305101, Note_off_c, 4, 59, 95
4, 305101, Note_off_c, 4, 55, 95
4, 305280, Note_on_c, 4, 64, 95
4, 305280, Note_on_c, 4, 59, 95
4, 305280, Note_on_c, 4, 55, 95
4, 305341, Note_off_c, 4, 64, 95
4, 305341, Note_off_c, 4, 59, 95
4, 305341, Note_off_c, 4, 55, 95
4, 305520, Note_on_c, 4, 74, 79
4, 305520, Note_on_c, 4, 70, 79
4, 305520, Note_on_c, 4, 65, 79
4, 305760, Note_off_c, 4, 74, 79
4, 305760, Note_off_c, 4, 70, 79
4, 305760, Note_off_c, 4, 65, 79
4, 306240, Note_on_c, 4, 74, 79
4, 306240, Note_on_c, 4, 70, 79
4, 306240, Note_on_c, 4, 65, 79
4, 306480, Note_off_c, 4, 74, 79
4, 306480, Note_off_c, 4, 70, 79
4, 306480, Note_off_c, 4, 65, 79
4, 306480, Note_on_c, 4, 74, 79
4, 306480, Note_on_c, 4, 70, 79
4, 306480, Note_on_c, 4, 65, 79
4, 306720, Note_off_c, 4, 74, 79
4, 306720, Note_off_c, 4, 70, 79
4, 306720, Note_off_c, 4, 65, 79
4, 306720, Note_on_c, 4, 74, 79
4, 306720, Note_on_c, 4, 70, 79
4, 306720, Note_on_c, 4, 65, 79
4, 307200, Note_off_c, 4, 74, 79
4, 307200, Note_off_c, 4, 70, 79
4, 307200, Note_off_c, 4, 65, 79
4, 307200, Note_on_c, 4, 64, 79
4, 307200, Note_on_c, 4, 60, 79
4, 307200, Note_on_c, 4, 55, 79
4, 307200, Note_on_c, 4, 48, 79
4, 308640, Note_off_c, 4, 64, 79
4, 308640, Note_off_c, 4, 60, 79
4, 308640, Note_off_c, 4, 55, 79
4, 308640, Note_off_c, 4, 48, 79
4, 308640, Note_on_c, 4, 67, 79
4, 308640, Note_on_c, 4, 62, 79
4, 308640, Note_on_c, 4, 58, 79
4, 308640, Note_on_c, 4, 55, 79
4, 308640, Note_on_c, 4, 50, 79
4, 308640, Note_on_c, 4, 43, 79
4, 311040, Note_off_c, 4, 67, 79
4, 311040, Note_off_c, 4, 62, 79
4, 311040, Note_off_c, 4, 58, 79
4, 311040, Note_off_c, 4, 55, 79
4, 311040, Note_off_c, 4, 50, 79
4, 311040, Note_off_c, 4, 43, 79
4, 311040, Note_on_c, 4, 64, 79
4, 311040, Note_on_c, 4, 60, 79
4, 311040, Note_on_c, 4, 55, 79
4, 311040, Note_on_c, 4, 48, 79
4, 312480, Note_off_c, 4, 64, 79
4, 312480, Note_off_c, 4, 60, 79
4, 312480, Note_off_c, 4, 55, 79
4, 312480, Note_off_c, 4, 48, 79
4, 312480, Note_on_c, 4, 67, 79
4, 312480, Note_on_c, 4, 62, 79
4, 312480, Note_on_c, 4, 58, 79
4, 312480, Note_on_c, 4, 55, 79
4, 312480, Note_on_c, 4, 50, 79
4, 312480, Note_on_c, 4, 43, 79
4, 314880, Note_off_c, 4, 67, 79
4, 314880, Note_off_c, 4, 62, 79
4, 314880, Note_off_c, 4, 58, 79
4, 314880, Note_off_c, 4, 55, 79
4, 314880, Note_off_c, 4, 50, 79
4, 314880, Note_off_c, 4, 43, 79
4, 314880, Note_on_c, 4, 64, 79
4, 314880, Note_on_c, 4, 60, 79
4, 314880, Note_on_c, 4, 55, 79
4, 314880, Note_on_c, 4, 48, 79
4, 316320, Note_off_c, 4, 64, 79
4, 316320, Note_off_c, 4, 60, 79
4, 316320, Note_off_c, 4, 55, 79
4, 316320, Note_off_c, 4, 48, 79
4, 316320, Note_on_c, 4, 67, 79
4, 316320, Note_on_c, 4, 62, 79
4, 316320, Note_on_c, 4, 58, 79
4, 316320, Note_on_c, 4, 55, 79
4, 316320, Note_on_c, 4, 50, 79
4, 316320, Note_on_c, 4, 43, 79
4, 318720, Note_off_c, 4, 67, 79
4, 318720, Note_off_c, 4, 62, 79
4, 318720, Note_off_c, 4, 58, 79
4, 318720, Note_off_c, 4, 55, 79
4, 318720, Note_off_c, 4, 50, 79
4, 318720, Note_off_c, 4, 43, 79
4, 318720, Note_on_c, 4, 64, 79
4, 318720, Note_on_c, 4, 60, 79
4, 318720, Note_on_c, 4, 55, 79
4, 318720, Note_on_c, 4, 48, 79
4, 321600, Note_off_c, 4, 64, 79
4, 321600, Note_off_c, 4, 60, 79
4, 321600, Note_off_c, 4, 55, 79
4, 321600, Note_off_c, 4, 48, 79
4, 322560, Note_on_c, 4, 74, 79
4, 322560, Note_on_c, 4, 70, 79
4, 322560, Note_on_c, 4, 65, 79
4, 322800, Note_off_c, 4, 74, 79
4, 322800, Note_off_c, 4, 70, 79
4, 322800, Note_off_c, 4, 65, 79
4, 322800, Note_on_c, 4, 74, 79
4, 322800, Note_on_c, 4, 70, 79
4, 322800, Note_on_c, 4, 65, 79
4, 323040, Note_off_c, 4, 74, 79
4, 323040, Note_off_c, 4, 70, 79
4, 323040, Note_off_c, 4, 65, 79
4, 323040, Note_on_c, 4, 64, 95
4, 323040, Note_on_c, 4, 59, 95
4, 323040, Note_on_c, 4, 55, 95
4, 323101, Note_off_c, 4, 64, 95
4, 323101, Note_off_c, 4, 59, 95
4, 323101, Note_off_c, 4, 55, 95
4, 323280, Note_on_c, 4, 64, 95
4, 323280, Note_on_c, 4, 59, 95
4, 323280, Note_on_c, 4, 55, 95
4, 323341, Note_off_c, 4, 64, 95
4, 323341, Note_off_c, 4, 59, 95
4, 323341, Note_off_c, 4, 55, 95
4, 323520, Note_on_c, 4, 64, 95
4, 323520, Note_on_c, 4, 59, 95
4, 323520, Note_on_c, 4, 55, 95
4, 323581, Note_off_c, 4, 64, 95
4, 323581, Note_off_c, 4, 59, 95
4, 323581, Note_off_c, 4, 55, 95
4, 323760, Note_on_c, 4, 64, 95
4, 323760, Note_on_c, 4, 59, 95
4, 323760, Note_on_c, 4, 55, 95
4, 323821, Note_off_c, 4, 64, 95
4, 323821, Note_off_c, 4, 59, 95
4, 323821, Note_off_c, 4, 55, 95
4, 324000, Note_on_c, 4, 74, 79
4, 324000, Note_on_c, 4, 70, 79
4, 324000, Note_on_c, 4, 65, 79
4, 324240, Note_off_c, 4, 74, 79
4, 324240, Note_off_c, 4, 70, 79
4, 324240, Note_off_c, 4, 65, 79
4, 324240, Note_on_c, 4, 74, 79
4, 324240, Note_on_c, 4, 70, 79
4, 324240, Note_on_c, 4, 65, 79
4, 324480, Note_off_c, 4, 74, 79
4, 324480, Note_off_c, 4, 70, 79
4, 324480, Note_off_c, 4, 65, 79
4, 324480, Note_on_c, 4, 64, 95
4, 324480, Note_on_c, 4, 59, 95
4, 324480, Note_on_c, 4, 55, 95
4, 324541, Note_off_c, 4, 64, 95
4, 324541, Note_off_c, 4, 59, 95
4, 324541, Note_off_c, 4, 55, 95
4, 324720, Note_on_c, 4, 64, 95
4, 324720, Note_on_c, 4, 59, 95
4, 324720, Note_on_c, 4, 55, 95
4, 324781, Note_off_c, 4, 64, 95
4, 324781, Note_off_c, 4, 59, 95
4, 324781, Note_off_c, 4, 55, 95
4, 324960, Note_on_c, 4, 64, 95
4, 324960, Note_on_c, 4, 59, 95
4, 324960, Note_on_c, 4, 55, 95
4, 325021, Note_off_c, 4, 64, 95
4, 325021, Note_off_c, 4, 59, 95
4, 325021, Note_off_c, 4, 55, 95
4, 325200, Note_on_c, 4, 64, 95
4, 325200, Note_on_c, 4, 59, 95
4, 325200, Note_on_c, 4, 55, 95
4, 325261, Note_off_c, 4, 64, 95
4, 325261, Note_off_c, 4, 59, 95
4, 325261, Note_off_c, 4, 55, 95
4, 325440, Note_on_c, 4, 64, 95
4, 325440, Note_on_c, 4, 59, 95
4, 325440, Note_on_c, 4, 55, 95
4, 325501, Note_off_c, 4, 64, 95
4, 325501, Note_off_c, 4, 59, 95
4, 325501, Note_off_c, 4, 55, 95
4, 325680, Note_on_c, 4, 64, 95
4, 325680, Note_on_c, 4, 59, 95
4, 325680, Note_on_c, 4, 55, 95
4, 325741, Note_off_c, 4, 64, 95
4, 325741, Note_off_c, 4, 59, 95
4, 325741, Note_off_c, 4, 55, 95
4, 325920, Note_on_c, 4, 64, 95
4, 325920, Note_on_c, 4, 59, 95
4, 325920, Note_on_c, 4, 55, 95
4, 325981, Note_off_c, 4, 64, 95
4, 325981, Note_off_c, 4, 59, 95
4, 325981, Note_off_c, 4, 55, 95
4, 326160, Note_on_c, 4, 64, 95
4, 326160, Note_on_c, 4, 59, 95
4, 326160, Note_on_c, 4, 55, 95
4, 326221, Note_off_c, 4, 64, 95
4, 326221, Note_off_c, 4, 59, 95
4, 326221, Note_off_c, 4, 55, 95
4, 326400, Note_on_c, 4, 74, 79
4, 326400, Note_on_c, 4, 70, 79
4, 326400, Note_on_c, 4, 65, 79
4, 326640, Note_off_c, 4, 74, 79
4, 326640, Note_off_c, 4, 70, 79
4, 326640, Note_off_c, 4, 65, 79
4, 326640, Note_on_c, 4, 74, 79
4, 326640, Note_on_c, 4, 70, 79
4, 326640, Note_on_c, 4, 65, 79
4, 326880, Note_off_c, 4, 74, 79
4, 326880, Note_off_c, 4, 70, 79
4, 326880, Note_off_c, 4, 65, 79
4, 326880, Note_on_c, 4, 64, 95
4, 326880, Note_on_c, 4, 59, 95
4, 326880, Note_on_c, 4, 55, 95
4, 326941, Note_off_c, 4, 64, 95
4, 326941, Note_off_c, 4, 59, 95
4, 326941, Note_off_c, 4, 55, 95
4, 327120, Note_on_c, 4, 64, 95
4, 327120, Note_on_c, 4, 59, 95
4, 327120, Note_on_c, 4, 55, 95
4, 327181, Note_off_c, 4, 64, 95
4, 327181, Note_off_c, 4, 59, 95
4, 327181, Note_off_c, 4, 55, 95
4, 327360, Note_on_c, 4, 64, 95
4, 327360, Note_on_c, 4, 59, 95
4, 327360, Note_on_c, 4, 55, 95
4, 327421, Note_off_c, 4, 64, 95
4, 327421, Note_off_c, 4, 59, 95
4, 327421, Note_off_c, 4, 55, 95
4, 327600, Note_on_c, 4, 64, 95
4, 327600, Note_on_c, 4, 59, 95
4, 327600, Note_on_c, 4, 55, 95
4, 327661, Note_off_c, 4, 64, 95
4, 327661, Note_off_c, 4, 59, 95
4, 327661, Note_off_c, 4, 55, 95
4, 327840, Note_on_c, 4, 74, 79
4, 327840, Note_on_c, 4, 70, 79
4, 327840, Note_on_c, 4, 65, 79
4, 328080, Note_off_c, 4, 74, 79
4, 328080, Note_off_c, 4, 70, 79
4, 328080, Note_off_c, 4, 65, 79
4, 328080, Note_on_c, 4, 74, 79
4, 328080, Note_on_c, 4, 70, 79
4, 328080, Note_on_c, 4, 65, 79
4, 328320, Note_off_c, 4, 74, 79
4, 328320, Note_off_c, 4, 70, 79
4, 328320, Note_off_c, 4, 65, 79
4, 328320, Note_on_c, 4, 64, 95
4, 328320, Note_on_c, 4, 59, 95
4, 328320, Note_on_c, 4, 55, 95
4, 328381, Note_off_c, 4, 64, 95
4, 328381, Note_off_c, 4, 59, 95
4, 328381, Note_off_c, 4, 55, 95
4, 328560, Note_on_c, 4, 64, 95
4, 328560, Note_on_c, 4, 59, 95
4, 328560, Note_on_c, 4, 55, 95
4, 328621, Note_off_c, 4, 64, 95
4, 328621, Note_off_c, 4, 59, 95
4, 328621, Note_off_c, 4, 55, 95
4, 328800, Note_on_c, 4, 64, 95
4, 328800, Note_on_c, 4, 59, 95
4, 328800, Note_on_c, 4, 55, 95
4, 328861, Note_off_c, 4, 64, 95
4, 328861, Note_off_c, 4, 59, 95
4, 328861, Note_off_c, 4, 55, 95
4, 329040, Note_on_c, 4, 64, 95
4, 329040, Note_on_c, 4, 59, 95
4, 329040, Note_on_c, 4, 55, 95
4, 329101, Note_off_c, 4, 64, 95
4, 329101, Note_off_c, 4, 59, 95
4, 329101, Note_off_c, 4, 55, 95
4, 329280, Note_on_c, 4, 64, 95
4, 329280, Note_on_c, 4, 59, 95
4, 329280, Note_on_c, 4, 55, 95
4, 329341, Note_off_c, 4, 64, 95
4, 329341, Note_off_c, 4, 59, 95
4, 329341, Note_off_c, 4, 55, 95
4, 329520, Note_on_c, 4, 64, 95
4, 329520, Note_on_c, 4, 59, 95
4, 329520, Note_on_c, 4, 55, 95
4, 329581, Note_off_c, 4, 64, 95
4, 329581, Note_off_c, 4, 59, 95
4, 329581, Note_off_c, 4, 55, 95
4, 329760, Note_on_c, 4, 64, 95
4, 329760, Note_on_c, 4, 59, 95
4, 329760, Note_on_c, 4, 55, 95
4, 329821, Note_off_c, 4, 64, 95
4, 329821, Note_off_c, 4, 59, 95
4, 329821, Note_off_c, 4, 55, 95
4, 330000, Note_on_c, 4, 64, 95
4, 330000, Note_on_c, 4, 59, 95
4, 330000, Note_on_c, 4, 55, 95
4, 330061, Note_off_c, 4, 64, 95
4, 330061, Note_off_c, 4, 59, 95
4, 330061, Note_off_c, 4, 55, 95
4, 330240, Note_on_c, 4, 74, 79
4, 330240, Note_on_c, 4, 70, 79
4, 330240, Note_on_c, 4, 65, 79
4, 330480, Note_off_c, 4, 74, 79
4, 330480, Note_off_c, 4, 70, 79
4, 330480, Note_off_c, 4, 65, 79
4, 330480, Note_on_c, 4, 74, 79
4, 330480, Note_on_c, 4, 70, 79
4, 330480, Note_on_c, 4, 65, 79
4, 330720, Note_off_c, 4, 74, 79
4, 330720, Note_off_c, 4, 70, 79
4, 330720, Note_off_c, 4, 65, 79
4, 330720, Note_on_c, 4, 64, 95
4, 330720, Note_on_c, 4, 59, 95
4, 330720, Note_on_c, 4, 55, 95
4, 330781, Note_off_c, 4, 64, 95
4, 330781, Note_off_c, 4, 59, 95
4, 330781, Note_off_c, 4, 55, 95
4, 330960, Note_on_c, 4, 64, 95
4, 330960, Note_on_c, 4, 59, 95
4, 330960, Note_on_c, 4, 55, 95
4, 331021, Note_off_c, 4, 64, 95
4, 331021, Note_off_c, 4, 59, 95
4, 331021, Note_off_c, 4, 55, 95
4, 331200, Note_on_c, 4, 64, 95
4, 331200, Note_on_c, 4, 59, 95
4, 331200, Note_on_c, 4, 55, 95
4, 331261, Note_off_c, 4, 64, 95
4, 331261, Note_off_c, 4, 59, 95
4, 331261, Note_off_c, 4, 55, 95
4, 331440, Note_on_c, 4, 64, 95
4, 331440, Note_on_c, 4, 59, 95
4, 331440, Note_on_c, 4, 55, 95
4, 331501, Note_off_c, 4, 64, 95
4, 331501, Note_off_c, 4, 59, 95
4, 331501, Note_off_c, 4, 55, 95
4, 331680, Note_on_c, 4, 74, 79
4, 331680, Note_on_c, 4, 70, 79
4, 331680, Note_on_c, 4, 65, 79
4, 331920, Note_off_c, 4, 74, 79
4, 331920, Note_off_c, 4, 70, 79
4, 331920, Note_off_c, 4, 65, 79
4, 331920, Note_on_c, 4, 74, 79
4, 331920, Note_on_c, 4, 70, 79
4, 331920, Note_on_c, 4, 65, 79
4, 332160, Note_off_c, 4, 74, 79
4, 332160, Note_off_c, 4, 70, 79
4, 332160, Note_off_c, 4, 65, 79
4, 332160, Note_on_c, 4, 64, 95
4, 332160, Note_on_c, 4, 59, 95
4, 332160, Note_on_c, 4, 55, 95
4, 332221, Note_off_c, 4, 64, 95
4, 332221, Note_off_c, 4, 59, 95
4, 332221, Note_off_c, 4, 55, 95
4, 332400, Note_on_c, 4, 64, 95
4, 332400, Note_on_c, 4, 59, 95
4, 332400, Note_on_c, 4, 55, 95
4, 332461, Note_off_c, 4, 64, 95
4, 332461, Note_off_c, 4, 59, 95
4, 332461, Note_off_c, 4, 55, 95
4, 332640, Note_on_c, 4, 64, 95
4, 332640, Note_on_c, 4, 59, 95
4, 332640, Note_on_c, 4, 55, 95
4, 332701, Note_off_c, 4, 64, 95
4, 332701, Note_off_c, 4, 59, 95
4, 332701, Note_off_c, 4, 55, 95
4, 332880, Note_on_c, 4, 64, 95
4, 332880, Note_on_c, 4, 59, 95
4, 332880, Note_on_c, 4, 55, 95
4, 332941, Note_off_c, 4, 64, 95
4, 332941, Note_off_c, 4, 59, 95
4, 332941, Note_off_c, 4, 55, 95
4, 333120, Note_on_c, 4, 64, 95
4, 333120, Note_on_c, 4, 59, 95
4, 333120, Note_on_c, 4, 55, 95
4, 333181, Note_off_c, 4, 64, 95
4, 333181, Note_off_c, 4, 59, 95
4, 333181, Note_off_c, 4, 55, 95
4, 333360, Note_on_c, 4, 64, 95
4, 333360, Note_on_c, 4, 59, 95
4, 333360, Note_on_c, 4, 55, 95
4, 333421, Note_off_c, 4, 64, 95
4, 333421, Note_off_c, 4, 59, 95
4, 333421, Note_off_c, 4, 55, 95
4, 333600, Note_on_c, 4, 64, 95
4, 333600, Note_on_c, 4, 59, 95
4, 333600, Note_on_c, 4, 55, 95
4, 333661, Note_off_c, 4, 64, 95
4, 333661, Note_off_c, 4, 59, 95
4, 333661, Note_off_c, 4, 55, 95
4, 333840, Note_on_c, 4, 64, 95
4, 333840, Note_on_c, 4, 59, 95
4, 333840, Note_on_c, 4, 55, 95
4, 333901, Note_off_c, 4, 64, 95
4, 333901, Note_off_c, 4, 59, 95
4, 333901, Note_off_c, 4, 55, 95
4, 334080, Note_on_c, 4, 74, 79
4, 334080, Note_on_c, 4, 70, 79
4, 334080, Note_on_c, 4, 65, 79
4, 334320, Note_off_c, 4, 74, 79
4, 334320, Note_off_c, 4, 70, 79
4, 334320, Note_off_c, 4, 65, 79
4, 334320, Note_on_c, 4, 74, 79
4, 334320, Note_on_c, 4, 70, 79
4, 334320, Note_on_c, 4, 65, 79
4, 334560, Note_off_c, 4, 74, 79
4, 334560, Note_off_c, 4, 70, 79
4, 334560, Note_off_c, 4, 65, 79
4, 334560, Note_on_c, 4, 64, 95
4, 334560, Note_on_c, 4, 59, 95
4, 334560, Note_on_c, 4, 55, 95
4, 334621, Note_off_c, 4, 64, 95
4, 334621, Note_off_c, 4, 59, 95
4, 334621, Note_off_c, 4, 55, 95
4, 334800, Note_on_c, 4, 64, 95
4, 334800, Note_on_c, 4, 59, 95
4, 334800, Note_on_c, 4, 55, 95
4, 334861, Note_off_c, 4, 64, 95
4, 334861, Note_off_c, 4, 59, 95
4, 334861, Note_off_c, 4, 55, 95
4, 335040, Note_on_c, 4, 64, 95
4, 335040, Note_on_c, 4, 59, 95
4, 335040, Note_on_c, 4, 55, 95
4, 335101, Note_off_c, 4, 64, 95
4, 335101, Note_off_c, 4, 59, 95
4, 335101, Note_off_c, 4, 55, 95
4, 335280, Note_on_c, 4, 64, 95
4, 335280, Note_on_c, 4, 59, 95
4, 335280, Note_on_c, 4, 55, 95
4, 335341, Note_off_c, 4, 64, 95
4, 335341, Note_off_c, 4, 59, 95
4, 335341, Note_off_c, 4, 55, 95
4, 335520, Note_on_c, 4, 74, 79
4, 335520, Note_on_c, 4, 70, 79
4, 335520, Note_on_c, 4, 65, 79
4, 335760, Note_off_c, 4, 74, 79
4, 335760, Note_off_c, 4, 70, 79
4, 335760, Note_off_c, 4, 65, 79
4, 335760, Note_on_c, 4, 74, 79
4, 335760, Note_on_c, 4, 70, 79
4, 335760, Note_on_c, 4, 65, 79
4, 336000, Note_off_c, 4, 74, 79
4, 336000, Note_off_c, 4, 70, 79
4, 336000, Note_off_c, 4, 65, 79
4, 336000, Note_on_c, 4, 74, 79
4, 336000, Note_on_c, 4, 70, 79
4, 336000, Note_on_c, 4, 65, 79
4, 336240, Note_off_c, 4, 74, 79
4, 336240, Note_off_c, 4, 70, 79
4, 336240, Note_off_c, 4, 65, 79
4, 336240, Note_on_c, 4, 74, 79
4, 336240, Note_on_c, 4, 70, 79
4, 336240, Note_on_c, 4, 65, 79
4, 336480, Note_off_c, 4, 74, 79
4, 336480, Note_off_c, 4, 70, 79
4, 336480, Note_off_c, 4, 65, 79
4, 336480, Note_on_c, 4, 74, 79
4, 336480, Note_on_c, 4, 70, 79
4, 336480, Note_on_c, 4, 65, 79
4, 336960, Note_off_c, 4, 74, 79
4, 336960, Note_off_c, 4, 70, 79
4, 336960, Note_off_c, 4, 65, 79
4, 336960, Note_on_c, 4, 74, 79
4, 336960, Note_on_c, 4, 70, 79
4, 336960, Note_on_c, 4, 65, 79
4, 337440, Note_off_c, 4, 74, 79
4, 337440, Note_off_c, 4, 70, 79
4, 337440, Note_off_c, 4, 65, 79
4, 337440, Note_on_c, 4, 74, 79
4, 337440, Note_on_c, 4, 70, 79
4, 337440, Note_on_c, 4, 65, 79
4, 337920, Note_off_c, 4, 74, 79
4, 337920, Note_off_c, 4, 70, 79
4, 337920, Note_off_c, 4, 65, 79
4, 337920, Note_on_c, 4, 74, 79
4, 337920, Note_on_c, 4, 70, 79
4, 337920, Note_on_c, 4, 65, 79
4, 338640, Note_off_c, 4, 74, 79
4, 338640, Note_off_c, 4, 70, 79
4, 338640, Note_off_c, 4, 65, 79
4, 338640, Note_on_c, 4, 74, 79
4, 338640, Note_on_c, 4, 70, 79
4, 338640, Note_on_c, 4, 65, 79
4, 338880, Note_off_c, 4, 74, 79
4, 338880, Note_off_c, 4, 70, 79
4, 338880, Note_off_c, 4, 65, 79
4, 338880, Note_on_c, 4, 64, 95
4, 338880, Note_on_c, 4, 59, 95
4, 338880, Note_on_c, 4, 55, 95
4, 338941, Note_off_c, 4, 64, 95
4, 338941, Note_off_c, 4, 59, 95
4, 338941, Note_off_c, 4, 55, 95
4, 339360, Note_on_c, 4, 64, 95
4, 339360, Note_on_c, 4, 59, 95
4, 339360, Note_on_c, 4, 55, 95
4, 339421, Note_off_c, 4, 64, 95
4, 339421, Note_off_c, 4, 59, 95
4, 339421, Note_off_c, 4, 55, 95
4, 339600, Note_on_c, 4, 64, 95
4, 339600, Note_on_c, 4, 59, 95
4, 339600, Note_on_c, 4, 55, 95
4, 339661, Note_off_c, 4, 64, 95
4, 339661, Note_off_c, 4, 59, 95
4, 339661, Note_off_c, 4, 55, 95
4, 339840, Note_on_c, 4, 74, 79
4, 339840, Note_on_c, 4, 70, 79
4, 339840, Note_on_c, 4, 65, 79
4, 340080, Note_off_c, 4, 74, 79
4, 340080, Note_off_c, 4, 70, 79
4, 340080, Note_off_c, 4, 65, 79
4, 340080, Note_on_c, 4, 74, 79
4, 340080, Note_on_c, 4, 70, 79
4, 340080, Note_on_c, 4, 65, 79
4, 340320, Note_off_c, 4, 74, 79
4, 340320, Note_off_c, 4, 70, 79
4, 340320, Note_off_c, 4, 65, 79
4, 340320, Note_on_c, 4, 64, 95
4, 340320, Note_on_c, 4, 59, 95
4, 340320, Note_on_c, 4, 55, 95
4, 340381, Note_off_c, 4, 64, 95
4, 340381, Note_off_c, 4, 59, 95
4, 340381, Note_off_c, 4, 55, 95
4, 340800, Note_on_c, 4, 74, 79
4, 340800, Note_on_c, 4, 70, 79
4, 340800, Note_on_c, 4, 65, 79
4, 341280, Note_off_c, 4, 74, 79
4, 341280, Note_off_c, 4, 70, 79
4, 341280, Note_off_c, 4, 65, 79
4, 341280, Note_on_c, 4, 70, 79
4, 341280, Note_on_c, 4, 65, 79
4, 341760, Note_off_c, 4, 70, 79
4, 341760, Note_off_c, 4, 65, 79
4, 341760, Note_on_c, 4, 77, 79
4, 341760, Note_on_c, 4, 70, 79
4, 341760, Note_on_c, 4, 65, 79
4, 342240, Note_off_c, 4, 77, 79
4, 342240, Note_off_c, 4, 70, 79
4, 342240, Note_off_c, 4, 65, 79
4, 342240, Note_on_c, 4, 77, 79
4, 342240, Note_on_c, 4, 70, 79
4, 342240, Note_on_c, 4, 65, 79
4, 342480, Note_off_c, 4, 77, 79
4, 342480, Note_off_c, 4, 70, 79
4, 342480, Note_off_c, 4, 65, 79
4, 342480, Note_on_c, 4, 77, 79
4, 342480, Note_on_c, 4, 70, 79
4, 342480, Note_on_c, 4, 65, 79
4, 342720, Note_off_c, 4, 77, 79
4, 342720, Note_off_c, 4, 70, 79
4, 342720, Note_off_c, 4, 65, 79
4, 343200, Note_on_c, 4, 76, 79
4, 343200, Note_on_c, 4, 70, 79
4, 343200, Note_on_c, 4, 65, 79
4, 343680, Note_off_c, 4, 76, 79
4, 343680, Note_off_c, 4, 70, 79
4, 343680, Note_off_c, 4, 65, 79
4, 343680, Note_on_c, 4, 64, 95
4, 343680, Note_on_c, 4, 59, 95
4, 343680, Note_on_c, 4, 55, 95
4, 343741, Note_off_c, 4, 64, 95
4, 343741, Note_off_c, 4, 59, 95
4, 343741, Note_off_c, 4, 55, 95
4, 343920, Note_on_c, 4, 76, 79
4, 343920, Note_on_c, 4, 70, 79
4, 343920, Note_on_c, 4, 65, 79
4, 344160, Note_off_c, 4, 76, 79
4, 344160, Note_off_c, 4, 70, 79
4, 344160, Note_off_c, 4, 65, 79
4, 344160, Note_on_c, 4, 64, 95
4, 344160, Note_on_c, 4, 59, 95
4, 344160, Note_on_c, 4, 55, 95
4, 344221, Note_off_c, 4, 64, 95
4, 344221, Note_off_c, 4, 59, 95
4, 344221, Note_off_c, 4, 55, 95
4, 344400, Note_on_c, 4, 64, 95
4, 344400, Note_on_c, 4, 59, 95
4, 344400, Note_on_c, 4, 55, 95
4, 344461, Note_off_c, 4, 64, 95
4, 344461, Note_off_c, 4, 59, 95
4, 344461, Note_off_c, 4, 55, 95
4, 344640, Note_on_c, 4, 76, 79
4, 344640, Note_on_c, 4, 70, 79
4, 344640, Note_on_c, 4, 65, 79
4, 344880, Note_off_c, 4, 76, 79
4, 344880, Note_off_c, 4, 70, 79
4, 344880, Note_off_c, 4, 65, 79
4, 344880, Note_on_c, 4, 76, 79
4, 344880, Note_on_c, 4, 70, 79
4, 344880, Note_on_c, 4, 65, 79
4, 345120, Note_off_c, 4, 76, 79
4, 345120, Note_off_c, 4, 70, 79
4, 345120, Note_off_c, 4, 65, 79
4, 345600, Note_on_c, 4, 74, 79
4, 345600, Note_on_c, 4, 70, 79
4, 345600, Note_on_c, 4, 65, 79
4, 346320, Note_off_c, 4, 74, 79
4, 346320, Note_off_c, 4, 70, 79
4, 346320, Note_off_c, 4, 65, 79
4, 346320, Note_on_c, 4, 74, 79
4, 346320, Note_on_c, 4, 70, 79
4, 346320, Note_on_c, 4, 65, 79
4, 346560, Note_off_c, 4, 74, 79
4, 346560, Note_off_c, 4, 70, 79
4, 346560, Note_off_c, 4, 65, 79
4, 346560, Note_on_c, 4, 64, 95
4, 346560, Note_on_c, 4, 59, 95
4, 346560, Note_on_c, 4, 55, 95
4, 346621, Note_off_c, 4, 64, 95
4, 346621, Note_off_c, 4, 59, 95
4, 346621, Note_off_c, 4, 55, 95
4, 347040, Note_on_c, 4, 64, 95
4, 347040, Note_on_c, 4, 59, 95
4, 347040, Note_on_c, 4, 55, 95
4, 347101, Note_off_c, 4, 64, 95
4, 347101, Note_off_c, 4, 59, 95
4, 347101, Note_off_c, 4, 55, 95
4, 347280, Note_on_c, 4, 64, 95
4, 347280, Note_on_c, 4, 59, 95
4, 347280, Note_on_c, 4, 55, 95
4, 347341, Note_off_c, 4, 64, 95
4, 347341, Note_off_c, 4, 59, 95
4, 347341, Note_off_c, 4, 55, 95
4, 347520, Note_on_c, 4, 64, 95
4, 347520, Note_on_c, 4, 59, 95
4, 347520, Note_on_c, 4, 55, 95
4, 347581, Note_off_c, 4, 64, 95
4, 347581, Note_off_c, 4, 59, 95
4, 347581, Note_off_c, 4, 55, 95
4, 347760, Note_on_c, 4, 74, 79
4, 347760, Note_on_c, 4, 70, 79
4, 347760, Note_on_c, 4, 65, 79
4, 348000, Note_off_c, 4, 74, 79
4, 348000, Note_off_c, 4, 70, 79
4, 348000, Note_off_c, 4, 65, 79
4, 348000, Note_on_c, 4, 64, 95
4, 348000, Note_on_c, 4, 59, 95
4, 348000, Note_on_c, 4, 55, 95
4, 348061, Note_off_c, 4, 64, 95
4, 348061, Note_off_c, 4, 59, 95
4, 348061, Note_off_c, 4, 55, 95
4, 348240, Note_on_c, 4, 64, 95
4, 348240, Note_on_c, 4, 59, 95
4, 348240, Note_on_c, 4, 55, 95
4, 348301, Note_off_c, 4, 64, 95
4, 348301, Note_off_c, 4, 59, 95
4, 348301, Note_off_c, 4, 55, 95
4, 348480, Note_on_c, 4, 74, 79
4, 348480, Note_on_c, 4, 70, 79
4, 348480, Note_on_c, 4, 65, 79
4, 348720, Note_off_c, 4, 74, 79
4, 348720, Note_off_c, 4, 70, 79
4, 348720, Note_off_c, 4, 65, 79
4, 348720, Note_on_c, 4, 74, 79
4, 348720, Note_on_c, 4, 70, 79
4, 348720, Note_on_c, 4, 65, 79
4, 348960, Note_off_c, 4, 74, 79
4, 348960, Note_off_c, 4, 70, 79
4, 348960, Note_off_c, 4, 65, 79
4, 348960, Note_on_c, 4, 64, 95
4, 348960, Note_on_c, 4, 59, 95
4, 348960, Note_on_c, 4, 55, 95
4, 349021, Note_off_c, 4, 64, 95
4, 349021, Note_off_c, 4, 59, 95
4, 349021, Note_off_c, 4, 55, 95
4, 349200, Note_on_c, 4, 64, 95
4, 349200, Note_on_c, 4, 59, 95
4, 349200, Note_on_c, 4, 55, 95
4, 349261, Note_off_c, 4, 64, 95
4, 349261, Note_off_c, 4, 59, 95
4, 349261, Note_off_c, 4, 55, 95
4, 349440, Note_on_c, 4, 74, 79
4, 349440, Note_on_c, 4, 70, 79
4, 349440, Note_on_c, 4, 65, 79
4, 350160, Note_off_c, 4, 74, 79
4, 350160, Note_off_c, 4, 70, 79
4, 350160, Note_off_c, 4, 65, 79
4, 350160, Note_on_c, 4, 74, 79
4, 350160, Note_on_c, 4, 70, 79
4, 350160, Note_on_c, 4, 65, 79
4, 350400, Note_off_c, 4, 74, 79
4, 350400, Note_off_c, 4, 70, 79
4, 350400, Note_off_c, 4, 65, 79
4, 350400, Note_on_c, 4, 64, 95
4, 350400, Note_on_c, 4, 59, 95
4, 350400, Note_on_c, 4, 55, 95
4, 350461, Note_off_c, 4, 64, 95
4, 350461, Note_off_c, 4, 59, 95
4, 350461, Note_off_c, 4, 55, 95
4, 350880, Note_on_c, 4, 64, 95
4, 350880, Note_on_c, 4, 59, 95
4, 350880, Note_on_c, 4, 55, 95
4, 350941, Note_off_c, 4, 64, 95
4, 350941, Note_off_c, 4, 59, 95
4, 350941, Note_off_c, 4, 55, 95
4, 351120, Note_on_c, 4, 64, 95
4, 351120, Note_on_c, 4, 59, 95
4, 351120, Note_on_c, 4, 55, 95
4, 351181, Note_off_c, 4, 64, 95
4, 351181, Note_off_c, 4, 59, 95
4, 351181, Note_off_c, 4, 55, 95
4, 351360, Note_on_c, 4, 64, 95
4, 351360, Note_on_c, 4, 59, 95
4, 351360, Note_on_c, 4, 55, 95
4, 351421, Note_off_c, 4, 64, 95
4, 351421, Note_off_c, 4, 59, 95
4, 351421, Note_off_c, 4, 55, 95
4, 351600, Note_on_c, 4, 74, 79
4, 351600, Note_on_c, 4, 70, 79
4, 351600, Note_on_c, 4, 65, 79
4, 351840, Note_off_c, 4, 74, 79
4, 351840, Note_off_c, 4, 70, 79
4, 351840, Note_off_c, 4, 65, 79
4, 352320, Note_on_c, 4, 74, 79
4, 352320, Note_on_c, 4, 70, 79
4, 352320, Note_on_c, 4, 65, 79
4, 352560, Note_off_c, 4, 74, 79
4, 352560, Note_off_c, 4, 70, 79
4, 352560, Note_off_c, 4, 65, 79
4, 352560, Note_on_c, 4, 74, 79
4, 352560, Note_on_c, 4, 70, 79
4, 352560, Note_on_c, 4, 65, 79
4, 352800, Note_off_c, 4, 74, 79
4, 352800, Note_off_c, 4, 70, 79
4, 352800, Note_off_c, 4, 65, 79
4, 352800, Note_on_c, 4, 74, 79
4, 352800, Note_on_c, 4, 70, 79
4, 352800, Note_on_c, 4, 65, 79
4, 353280, Note_off_c, 4, 74, 79
4, 353280, Note_off_c, 4, 70, 79
4, 353280, Note_off_c, 4, 65, 79
4, 353280, Note_on_c, 4, 74, 79
4, 353280, Note_on_c, 4, 70, 79
4, 353280, Note_on_c, 4, 65, 79
4, 354000, Note_off_c, 4, 74, 79
4, 354000, Note_off_c, 4, 70, 79
4, 354000, Note_off_c, 4, 65, 79
4, 354000, Note_on_c, 4, 74, 79
4, 354000, Note_on_c, 4, 70, 79
4, 354000, Note_on_c, 4, 65, 79
4, 354240, Note_off_c, 4, 74, 79
4, 354240, Note_off_c, 4, 70, 79
4, 354240, Note_off_c, 4, 65, 79
4, 354240, Note_on_c, 4, 64, 95
4, 354240, Note_on_c, 4, 59, 95
4, 354240, Note_on_c, 4, 55, 95
4, 354301, Note_off_c, 4, 64, 95
4, 354301, Note_off_c, 4, 59, 95
4, 354301, Note_off_c, 4, 55, 95
4, 354720, Note_on_c, 4, 64, 95
4, 354720, Note_on_c, 4, 59, 95
4, 354720, Note_on_c, 4, 55, 95
4, 354781, Note_off_c, 4, 64, 95
4, 354781, Note_off_c, 4, 59, 95
4, 354781, Note_off_c, 4, 55, 95
4, 354960, Note_on_c, 4, 64, 95
4, 354960, Note_on_c, 4, 59, 95
4, 354960, Note_on_c, 4, 55, 95
4, 355021, Note_off_c, 4, 64, 95
4, 355021, Note_off_c, 4, 59, 95
4, 355021, Note_off_c, 4, 55, 95
4, 355200, Note_on_c, 4, 74, 79
4, 355200, Note_on_c, 4, 70, 79
4, 355200, Note_on_c, 4, 65, 79
4, 355440, Note_off_c, 4, 74, 79
4, 355440, Note_off_c, 4, 70, 79
4, 355440, Note_off_c, 4, 65, 79
4, 355440, Note_on_c, 4, 74, 79
4, 355440, Note_on_c, 4, 70, 79
4, 355440, Note_on_c, 4, 65, 79
4, 355680, Note_off_c, 4, 74, 79
4, 355680, Note_off_c, 4, 70, 79
4, 355680, Note_off_c, 4, 65, 79
4, 355680, Note_on_c, 4, 64, 95
4, 355680, Note_on_c, 4, 59, 95
4, 355680, Note_on_c, 4, 55, 95
4, 355741, Note_off_c, 4, 64, 95
4, 355741, Note_off_c, 4, 59, 95
4, 355741, Note_off_c, 4, 55, 95
4, 356160, Note_on_c, 4, 74, 79
4, 356160, Note_on_c, 4, 70, 79
4, 356160, Note_on_c, 4, 65, 79
4, 356640, Note_off_c, 4, 74, 79
4, 356640, Note_off_c, 4, 70, 79
4, 356640, Note_off_c, 4, 65, 79
4, 356640, Note_on_c, 4, 70, 79
4, 356640, Note_on_c, 4, 65, 79
4, 357120, Note_off_c, 4, 70, 79
4, 357120, Note_off_c, 4, 65, 79
4, 357120, Note_on_c, 4, 77, 79
4, 357120, Note_on_c, 4, 70, 79
4, 357120, Note_on_c, 4, 65, 79
4, 357600, Note_off_c, 4, 77, 79
4, 357600, Note_off_c, 4, 70, 79
4, 357600, Note_off_c, 4, 65, 79
4, 357600, Note_on_c, 4, 77, 79
4, 357600, Note_on_c, 4, 70, 79
4, 357600, Note_on_c, 4, 65, 79
4, 357840, Note_off_c, 4, 77, 79
4, 357840, Note_off_c, 4, 70, 79
4, 357840, Note_off_c, 4, 65, 79
4, 357840, Note_on_c, 4, 77, 79
4, 357840, Note_on_c, 4, 70, 79
4, 357840, Note_on_c, 4, 65, 79
4, 358080, Note_off_c, 4, 77, 79
4, 358080, Note_off_c, 4, 70, 79
4, 358080, Note_off_c, 4, 65, 79
4, 358560, Note_on_c, 4, 76, 79
4, 358560, Note_on_c, 4, 70, 79
4, 358560, Note_on_c, 4, 65, 79
4, 359040, Note_off_c, 4, 76, 79
4, 359040, Note_off_c, 4, 70, 79
4, 359040, Note_off_c, 4, 65, 79
4, 359040, Note_on_c, 4, 64, 95
4, 359040, Note_on_c, 4, 59, 95
4, 359040, Note_on_c, 4, 55, 95
4, 359101, Note_off_c, 4, 64, 95
4, 359101, Note_off_c, 4, 59, 95
4, 359101, Note_off_c, 4, 55, 95
4, 359280, Note_on_c, 4, 76, 79
4, 359280, Note_on_c, 4, 70, 79
4, 359280, Note_on_c, 4, 65, 79
4, 359520, Note_off_c, 4, 76, 79
4, 359520, Note_off_c, 4, 70, 79
4, 359520, Note_off_c, 4, 65, 79
4, 359520, Note_on_c, 4, 64, 95
4, 359520, Note_on_c, 4, 59, 95
4, 359520, Note_on_c, 4, 55, 95
4, 359581, Note_off_c, 4, 64, 95
4, 359581, Note_off_c, 4, 59, 95
4, 359581, Note_off_c, 4, 55, 95
4, 359760, Note_on_c, 4, 64, 95
4, 359760, Note_on_c, 4, 59, 95
4, 359760, Note_on_c, 4, 55, 95
4, 359821, Note_off_c, 4, 64, 95
4, 359821, Note_off_c, 4, 59, 95
4, 359821, Note_off_c, 4, 55, 95
4, 360000, Note_on_c, 4, 76, 79
4, 360000, Note_on_c, 4, 70, 79
4, 360000, Note_on_c, 4, 65, 79
4, 360240, Note_off_c, 4, 76, 79
4, 360240, Note_off_c, 4, 70, 79
4, 360240, Note_off_c, 4, 65, 79
4, 360240, Note_on_c, 4, 76, 79
4, 360240, Note_on_c, 4, 70, 79
4, 360240, Note_on_c, 4, 65, 79
4, 360480, Note_off_c, 4, 76, 79
4, 360480, Note_off_c, 4, 70, 79
4, 360480, Note_off_c, 4, 65, 79
4, 360960, Note_on_c, 4, 74, 79
4, 360960, Note_on_c, 4, 70, 79
4, 360960, Note_on_c, 4, 65, 79
4, 361680, Note_off_c, 4, 74, 79
4, 361680, Note_off_c, 4, 70, 79
4, 361680, Note_off_c, 4, 65, 79
4, 361680, Note_on_c, 4, 74, 79
4, 361680, Note_on_c, 4, 70, 79
4, 361680, Note_on_c, 4, 65, 79
4, 361920, Note_off_c, 4, 74, 79
4, 361920, Note_off_c, 4, 70, 79
4, 361920, Note_off_c, 4, 65, 79
4, 361920, Note_on_c, 4, 64, 95
4, 361920, Note_on_c, 4, 59, 95
4, 361920, Note_on_c, 4, 55, 95
4, 361981, Note_off_c, 4, 64, 95
4, 361981, Note_off_c, 4, 59, 95
4, 361981, Note_off_c, 4, 55, 95
4, 362400, Note_on_c, 4, 64, 95
4, 362400, Note_on_c, 4, 59, 95
4, 362400, Note_on_c, 4, 55, 95
4, 362461, Note_off_c, 4, 64, 95
4, 362461, Note_off_c, 4, 59, 95
4, 362461, Note_off_c, 4, 55, 95
4, 362640, Note_on_c, 4, 64, 95
4, 362640, Note_on_c, 4, 59, 95
4, 362640, Note_on_c, 4, 55, 95
4, 362701, Note_off_c, 4, 64, 95
4, 362701, Note_off_c, 4, 59, 95
4, 362701, Note_off_c, 4, 55, 95
4, 362880, Note_on_c, 4, 64, 95
4, 362880, Note_on_c, 4, 59, 95
4, 362880, Note_on_c, 4, 55, 95
4, 362941, Note_off_c, 4, 64, 95
4, 362941, Note_off_c, 4, 59, 95
4, 362941, Note_off_c, 4, 55, 95
4, 363120, Note_on_c, 4, 74, 79
4, 363120, Note_on_c, 4, 70, 79
4, 363120, Note_on_c, 4, 65, 79
4, 363360, Note_off_c, 4, 74, 79
4, 363360, Note_off_c, 4, 70, 79
4, 363360, Note_off_c, 4, 65, 79
4, 363360, Note_on_c, 4, 64, 95
4, 363360, Note_on_c, 4, 59, 95
4, 363360, Note_on_c, 4, 55, 95
4, 363421, Note_off_c, 4, 64, 95
4, 363421, Note_off_c, 4, 59, 95
4, 363421, Note_off_c, 4, 55, 95
4, 363600, Note_on_c, 4, 64, 95
4, 363600, Note_on_c, 4, 59, 95
4, 363600, Note_on_c, 4, 55, 95
4, 363661, Note_off_c, 4, 64, 95
4, 363661, Note_off_c, 4, 59, 95
4, 363661, Note_off_c, 4, 55, 95
4, 363840, Note_on_c, 4, 74, 79
4, 363840, Note_on_c, 4, 70, 79
4, 363840, Note_on_c, 4, 65, 79
4, 364080, Note_off_c, 4, 74, 79
4, 364080, Note_off_c, 4, 70, 79
4, 364080, Note_off_c, 4, 65, 79
4, 364080, Note_on_c, 4, 74, 79
4, 364080, Note_on_c, 4, 70, 79
4, 364080, Note_on_c, 4, 65, 79
4, 364320, Note_off_c, 4, 74, 79
4, 364320, Note_off_c, 4, 70, 79
4, 364320, Note_off_c, 4, 65, 79
4, 364320, Note_on_c, 4, 64, 95
4, 364320, Note_on_c, 4, 59, 95
4, 364320, Note_on_c, 4, 55, 95
4, 364381, Note_off_c, 4, 64, 95
4, 364381, Note_off_c, 4, 59, 95
4, 364381, Note_off_c, 4, 55, 95
4, 364560, Note_on_c, 4, 64, 95
4, 364560, Note_on_c, 4, 59, 95
4, 364560, Note_on_c, 4, 55, 95
4, 364621, Note_off_c, 4, 64, 95
4, 364621, Note_off_c, 4, 59, 95
4, 364621, Note_off_c, 4, 55, 95
4, 364800, Note_on_c, 4, 74, 79
4, 364800, Note_on_c, 4, 70, 79
4, 364800, Note_on_c, 4, 65, 79
4, 365520, Note_off_c, 4, 74, 79
4, 365520, Note_off_c, 4, 70, 79
4, 365520, Note_off_c, 4, 65, 79
4, 365520, Note_on_c, 4, 74, 79
4, 365520, Note_on_c, 4, 70, 79
4, 365520, Note_on_c, 4, 65, 79
4, 365760, Note_off_c, 4, 74, 79
4, 365760, Note_off_c, 4, 70, 79
4, 365760, Note_off_c, 4, 65, 79
4, 365760, Note_on_c, 4, 64, 95
4, 365760, Note_on_c, 4, 59, 95
4, 365760, Note_on_c, 4, 55, 95
4, 365821, Note_off_c, 4, 64, 95
4, 365821, Note_off_c, 4, 59, 95
4, 365821, Note_off_c, 4, 55, 95
4, 366240, Note_on_c, 4, 64, 95
4, 366240, Note_on_c, 4, 59, 95
4, 366240, Note_on_c, 4, 55, 95
4, 366301, Note_off_c, 4, 64, 95
4, 366301, Note_off_c, 4, 59, 95
4, 366301, Note_off_c, 4, 55, 95
4, 366480, Note_on_c, 4, 64, 95
4, 366480, Note_on_c, 4, 59, 95
4, 366480, Note_on_c, 4, 55, 95
4, 366541, Note_off_c, 4, 64, 95
4, 366541, Note_off_c, 4, 59, 95
4, 366541, Note_off_c, 4, 55, 95
4, 366720, Note_on_c, 4, 64, 95
4, 366720, Note_on_c, 4, 59, 95
4, 366720, Note_on_c, 4, 55, 95
4, 366781, Note_off_c, 4, 64, 95
4, 366781, Note_off_c, 4, 59, 95
4, 366781, Note_off_c, 4, 55, 95
4, 366960, Note_on_c, 4, 74, 79
4, 366960, Note_on_c, 4, 70, 79
4, 366960, Note_on_c, 4, 65, 79
4, 367200, Note_off_c, 4, 74, 79
4, 367200, Note_off_c, 4, 70, 79
4, 367200, Note_off_c, 4, 65, 79
4, 367680, Note_on_c, 4, 74, 79
4, 367680, Note_on_c, 4, 70, 79
4, 367680, Note_on_c, 4, 65, 79
4, 367920, Note_off_c, 4, 74, 79
4, 367920, Note_off_c, 4, 70, 79
4, 367920, Note_off_c, 4, 65, 79
4, 367920, Note_on_c, 4, 74, 79
4, 367920, Note_on_c, 4, 70, 79
4, 367920, Note_on_c, 4, 65, 79
4, 368160, Note_off_c, 4, 74, 79
4, 368160, Note_off_c, 4, 70, 79
4, 368160, Note_off_c, 4, 65, 79
4, 368160, Note_on_c, 4, 74, 79
4, 368160, Note_on_c, 4, 70, 79
4, 368160, Note_on_c, 4, 65, 79
4, 368640, Note_off_c, 4, 74, 79
4, 368640, Note_off_c, 4, 70, 79
4, 368640, Note_off_c, 4, 65, 79
4, 368640, Note_on_c, 4, 74, 79
4, 368640, Note_on_c, 4, 70, 79
4, 368640, Note_on_c, 4, 65, 79
4, 369360, Note_off_c, 4, 74, 79
4, 369360, Note_off_c, 4, 70, 79
4, 369360, Note_off_c, 4, 65, 79
4, 369360, Note_on_c, 4, 74, 79
4, 369360, Note_on_c, 4, 70, 79
4, 369360, Note_on_c, 4, 65, 79
4, 369600, Note_off_c, 4, 74, 79
4, 369600, Note_off_c, 4, 70, 79
4, 369600, Note_off_c, 4, 65, 79
4, 369600, Note_on_c, 4, 64, 95
4, 369600, Note_on_c, 4, 59, 95
4, 369600, Note_on_c, 4, 55, 95
4, 369661, Note_off_c, 4, 64, 95
4, 369661, Note_off_c, 4, 59, 95
4, 369661, Note_off_c, 4, 55, 95
4, 370080, Note_on_c, 4, 64, 95
4, 370080, Note_on_c, 4, 59, 95
4, 370080, Note_on_c, 4, 55, 95
4, 370141, Note_off_c, 4, 64, 95
4, 370141, Note_off_c, 4, 59, 95
4, 370141, Note_off_c, 4, 55, 95
4, 370320, Note_on_c, 4, 64, 95
4, 370320, Note_on_c, 4, 59, 95
4, 370320, Note_on_c, 4, 55, 95
4, 370381, Note_off_c, 4, 64, 95
4, 370381, Note_off_c, 4, 59, 95
4, 370381, Note_off_c, 4, 55, 95
4, 370560, Note_on_c, 4, 64, 95
4, 370560, Note_on_c, 4, 59, 95
4, 370560, Note_on_c, 4, 55, 95
4, 370621, Note_off_c, 4, 64, 95
4, 370621, Note_off_c, 4, 59, 95
4, 370621, Note_off_c, 4, 55, 95
4, 370800, Note_on_c, 4, 64, 95
4, 370800, Note_on_c, 4, 59, 95
4, 370800, Note_on_c, 4, 55, 95
4, 370861, Note_off_c, 4, 64, 95
4, 370861, Note_off_c, 4, 59, 95
4, 370861, Note_off_c, 4, 55, 95
4, 371040, Note_on_c, 4, 64, 95
4, 371040, Note_on_c, 4, 59, 95
4, 371040, Note_on_c, 4, 55, 95
4, 371101, Note_off_c, 4, 64, 95
4, 371101, Note_off_c, 4, 59, 95
4, 371101, Note_off_c, 4, 55, 95
4, 371520, Note_on_c, 4, 76, 79
4, 371520, Note_on_c, 4, 72, 79
4, 371520, Note_on_c, 4, 67, 79
4, 371760, Note_off_c, 4, 76, 79
4, 371760, Note_off_c, 4, 72, 79
4, 371760, Note_off_c, 4, 67, 79
4, 371760, Note_on_c, 4, 76, 79
4, 371760, Note_on_c, 4, 72, 79
4, 371760, Note_on_c, 4, 67, 79
4, 372000, Note_off_c, 4, 76, 79
4, 372000, Note_off_c, 4, 72, 79
4, 372000, Note_off_c, 4, 67, 79
4, 372480, Note_on_c, 4, 74, 79
4, 372480, Note_on_c, 4, 70, 79
4, 372480, Note_on_c, 4, 65, 79
4, 373200, Note_off_c, 4, 74, 79
4, 373200, Note_off_c, 4, 70, 79
4, 373200, Note_off_c, 4, 65, 79
4, 373200, Note_on_c, 4, 74, 79
4, 373200, Note_on_c, 4, 70, 79
4, 373200, Note_on_c, 4, 65, 79
4, 373440, Note_off_c, 4, 74, 79
4, 373440, Note_off_c, 4, 70, 79
4, 373440, Note_off_c, 4, 65, 79
4, 373440, Note_on_c, 4, 64, 95
4, 373440, Note_on_c, 4, 59, 95
4, 373440, Note_on_c, 4, 55, 95
4, 373501, Note_off_c, 4, 64, 95
4, 373501, Note_off_c, 4, 59, 95
4, 373501, Note_off_c, 4, 55, 95
4, 373920, Note_on_c, 4, 64, 95
4, 373920, Note_on_c, 4, 59, 95
4, 373920, Note_on_c, 4, 55, 95
4, 373981, Note_off_c, 4, 64, 95
4, 373981, Note_off_c, 4, 59, 95
4, 373981, Note_off_c, 4, 55, 95
4, 374160, Note_on_c, 4, 64, 95
4, 374160, Note_on_c, 4, 59, 95
4, 374160, Note_on_c, 4, 55, 95
4, 374221, Note_off_c, 4, 64, 95
4, 374221, Note_off_c, 4, 59, 95
4, 374221, Note_off_c, 4, 55, 95
4, 374400, Note_on_c, 4, 64, 95
4, 374400, Note_on_c, 4, 59, 95
4, 374400, Note_on_c, 4, 55, 95
4, 374461, Note_off_c, 4, 64, 95
4, 374461, Note_off_c, 4, 59, 95
4, 374461, Note_off_c, 4, 55, 95
4, 374640, Note_on_c, 4, 64, 95
4, 374640, Note_on_c, 4, 59, 95
4, 374640, Note_on_c, 4, 55, 95
4, 374701, Note_off_c, 4, 64, 95
4, 374701, Note_off_c, 4, 59, 95
4, 374701, Note_off_c, 4, 55, 95
4, 374880, Note_on_c, 4, 64, 95
4, 374880, Note_on_c, 4, 59, 95
4, 374880, Note_on_c, 4, 55, 95
4, 374941, Note_off_c, 4, 64, 95
4, 374941, Note_off_c, 4, 59, 95
4, 374941, Note_off_c, 4, 55, 95
4, 375360, Note_on_c, 4, 64, 95
4, 375360, Note_on_c, 4, 59, 95
4, 375360, Note_on_c, 4, 55, 95
4, 375421, Note_off_c, 4, 64, 95
4, 375421, Note_off_c, 4, 59, 95
4, 375421, Note_off_c, 4, 55, 95
4, 375840, Note_on_c, 4, 74, 79
4, 375840, Note_on_c, 4, 70, 79
4, 375840, Note_on_c, 4, 65, 79
4, 376320, Note_off_c, 4, 74, 79
4, 376320, Note_off_c, 4, 70, 79
4, 376320, Note_off_c, 4, 65, 79
4, 376320, Note_on_c, 4, 74, 79
4, 376320, Note_on_c, 4, 70, 79
4, 376320, Note_on_c, 4, 65, 79
4, 377040, Note_off_c, 4, 74, 79
4, 377040, Note_off_c, 4, 70, 79
4, 377040, Note_off_c, 4, 65, 79
4, 377040, Note_on_c, 4, 74, 79
4, 377040, Note_on_c, 4, 70, 79
4, 377040, Note_on_c, 4, 65, 79
4, 377280, Note_off_c, 4, 74, 79
4, 377280, Note_off_c, 4, 70, 79
4, 377280, Note_off_c, 4, 65, 79
4, 377280, Note_on_c, 4, 64, 95
4, 377280, Note_on_c, 4, 59, 95
4, 377280, Note_on_c, 4, 55, 95
4, 377341, Note_off_c, 4, 64, 95
4, 377341, Note_off_c, 4, 59, 95
4, 377341, Note_off_c, 4, 55, 95
4, 377760, Note_on_c, 4, 64, 95
4, 377760, Note_on_c, 4, 59, 95
4, 377760, Note_on_c, 4, 55, 95
4, 377821, Note_off_c, 4, 64, 95
4, 377821, Note_off_c, 4, 59, 95
4, 377821, Note_off_c, 4, 55, 95
4, 378000, Note_on_c, 4, 64, 95
4, 378000, Note_on_c, 4, 59, 95
4, 378000, Note_on_c, 4, 55, 95
4, 378061, Note_off_c, 4, 64, 95
4, 378061, Note_off_c, 4, 59, 95
4, 378061, Note_off_c, 4, 55, 95
4, 378240, Note_on_c, 4, 64, 95
4, 378240, Note_on_c, 4, 59, 95
4, 378240, Note_on_c, 4, 55, 95
4, 378301, Note_off_c, 4, 64, 95
4, 378301, Note_off_c, 4, 59, 95
4, 378301, Note_off_c, 4, 55, 95
4, 378480, Note_on_c, 4, 64, 95
4, 378480, Note_on_c, 4, 59, 95
4, 378480, Note_on_c, 4, 55, 95
4, 378541, Note_off_c, 4, 64, 95
4, 378541, Note_off_c, 4, 59, 95
4, 378541, Note_off_c, 4, 55, 95
4, 378720, Note_on_c, 4, 64, 95
4, 378720, Note_on_c, 4, 59, 95
4, 378720, Note_on_c, 4, 55, 95
4, 378781, Note_off_c, 4, 64, 95
4, 378781, Note_off_c, 4, 59, 95
4, 378781, Note_off_c, 4, 55, 95
4, 379200, Note_on_c, 4, 76, 79
4, 379200, Note_on_c, 4, 72, 79
4, 379200, Note_on_c, 4, 67, 79
4, 379440, Note_off_c, 4, 76, 79
4, 379440, Note_off_c, 4, 72, 79
4, 379440, Note_off_c, 4, 67, 79
4, 379440, Note_on_c, 4, 76, 79
4, 379440, Note_on_c, 4, 72, 79
4, 379440, Note_on_c, 4, 67, 79
4, 379680, Note_off_c, 4, 76, 79
4, 379680, Note_off_c, 4, 72, 79
4, 379680, Note_off_c, 4, 67, 79
4, 380160, Note_on_c, 4, 74, 79
4, 380160, Note_on_c, 4, 70, 79
4, 380160, Note_on_c, 4, 65, 79
4, 380880, Note_off_c, 4, 74, 79
4, 380880, Note_off_c, 4, 70, 79
4, 380880, Note_off_c, 4, 65, 79
4, 380880, Note_on_c, 4, 74, 79
4, 380880, Note_on_c, 4, 70, 79
4, 380880, Note_on_c, 4, 65, 79
4, 381120, Note_off_c, 4, 74, 79
4, 381120, Note_off_c, 4, 70, 79
4, 381120, Note_off_c, 4, 65, 79
4, 381120, Note_on_c, 4, 64, 95
4, 381120, Note_on_c, 4, 59, 79
4, 381120, Note_on_c, 4, 55, 95
4, 381181, Note_off_c, 4, 64, 95
4, 381181, Note_off_c, 4, 59, 79
4, 381181, Note_off_c, 4, 55, 95
4, 381600, Note_on_c, 4, 64, 95
4, 381600, Note_on_c, 4, 59, 79
4, 381600, Note_on_c, 4, 55, 95
4, 381661, Note_off_c, 4, 64, 95
4, 381661, Note_off_c, 4, 59, 79
4, 381661, Note_off_c, 4, 55, 95
4, 381840, Note_on_c, 4, 64, 95
4, 381840, Note_on_c, 4, 59, 79
4, 381840, Note_on_c, 4, 55, 95
4, 381901, Note_off_c, 4, 64, 95
4, 381901, Note_off_c, 4, 59, 79
4, 381901, Note_off_c, 4, 55, 95
4, 382080, Note_on_c, 4, 64, 95
4, 382080, Note_on_c, 4, 59, 79
4, 382080, Note_on_c, 4, 55, 95
4, 382141, Note_off_c, 4, 64, 95
4, 382141, Note_off_c, 4, 59, 79
4, 382141, Note_off_c, 4, 55, 95
4, 382320, Note_on_c, 4, 64, 95
4, 382320, Note_on_c, 4, 59, 79
4, 382320, Note_on_c, 4, 55, 95
4, 382381, Note_off_c, 4, 64, 95
4, 382381, Note_off_c, 4, 59, 79
4, 382381, Note_off_c, 4, 55, 95
4, 382560, Note_on_c, 4, 64, 79
4, 382560, Note_on_c, 4, 59, 79
4, 382560, Note_on_c, 4, 55, 95
4, 382621, Note_off_c, 4, 64, 79
4, 382621, Note_off_c, 4, 59, 79
4, 382621, Note_off_c, 4, 55, 95
4, 383040, Note_on_c, 4, 64, 79
4, 383040, Note_on_c, 4, 59, 79
4, 383040, Note_on_c, 4, 55, 79
4, 383101, Note_off_c, 4, 64, 79
4, 383101, Note_off_c, 4, 59, 79
4, 383101, Note_off_c, 4, 55, 79
4, 383520, Note_on_c, 4, 74, 79
4, 383520, Note_on_c, 4, 70, 79
4, 383520, Note_on_c, 4, 65, 79
4, 384000, Note_off_c, 4, 74, 79
4, 384000, Note_off_c, 4, 70, 79
4, 384000, Note_off_c, 4, 65, 79
4, 384000, Note_on_c, 4, 74, 79
4, 384000, Note_on_c, 4, 70, 79
4, 384000, Note_on_c, 4, 65, 79
4, 384720, Note_off_c, 4, 74, 79
4, 384720, Note_off_c, 4, 70, 79
4, 384720, Note_off_c, 4, 65, 79
4, 384720, Note_on_c, 4, 74, 79
4, 384720, Note_on_c, 4, 70, 79
4, 384720, Note_on_c, 4, 65, 79
4, 384960, Note_off_c, 4, 74, 79
4, 384960, Note_off_c, 4, 70, 79
4, 384960, Note_off_c, 4, 65, 79
4, 384960, Note_on_c, 4, 64, 95
4, 384960, Note_on_c, 4, 59, 95
4, 384960, Note_on_c, 4, 55, 95
4, 385021, Note_off_c, 4, 64, 95
4, 385021, Note_off_c, 4, 59, 95
4, 385021, Note_off_c, 4, 55, 95
4, 385440, Note_on_c, 4, 64, 95
4, 385440, Note_on_c, 4, 59, 95
4, 385440, Note_on_c, 4, 55, 95
4, 385501, Note_off_c, 4, 64, 95
4, 385501, Note_off_c, 4, 59, 95
4, 385501, Note_off_c, 4, 55, 95
4, 385680, Note_on_c, 4, 64, 95
4, 385680, Note_on_c, 4, 59, 95
4, 385680, Note_on_c, 4, 55, 95
4, 385741, Note_off_c, 4, 64, 95
4, 385741, Note_off_c, 4, 59, 95
4, 385741, Note_off_c, 4, 55, 95
4, 385920, Note_on_c, 4, 74, 79
4, 385920, Note_on_c, 4, 70, 79
4, 385920, Note_on_c, 4, 65, 79
4, 386160, Note_off_c, 4, 74, 79
4, 386160, Note_off_c, 4, 70, 79
4, 386160, Note_off_c, 4, 65, 79
4, 386160, Note_on_c, 4, 74, 79
4, 386160, Note_on_c, 4, 70, 79
4, 386160, Note_on_c, 4, 65, 79
4, 386400, Note_off_c, 4, 74, 79
4, 386400, Note_off_c, 4, 70, 79
4, 386400, Note_off_c, 4, 65, 79
4, 386400, Note_on_c, 4, 64, 95
4, 386400, Note_on_c, 4, 59, 95
4, 386400, Note_on_c, 4, 55, 95
4, 386461, Note_off_c, 4, 64, 95
4, 386461, Note_off_c, 4, 59, 95
4, 386461, Note_off_c, 4, 55, 95
4, 386880, Note_on_c, 4, 74, 79
4, 386880, Note_on_c, 4, 70, 79
4, 386880, Note_on_c, 4, 65, 79
4, 387360, Note_off_c, 4, 74, 79
4, 387360, Note_off_c, 4, 70, 79
4, 387360, Note_off_c, 4, 65, 79
4, 387360, Note_on_c, 4, 70, 79
4, 387360, Note_on_c, 4, 65, 79
4, 387840, Note_off_c, 4, 70, 79
4, 387840, Note_off_c, 4, 65, 79
4, 387840, Note_on_c, 4, 77, 79
4, 387840, Note_on_c, 4, 70, 79
4, 387840, Note_on_c, 4, 65, 79
4, 388320, Note_off_c, 4, 77, 79
4, 388320, Note_off_c, 4, 70, 79
4, 388320, Note_off_c, 4, 65, 79
4, 388320, Note_on_c, 4, 77, 79
4, 388320, Note_on_c, 4, 70, 79
4, 388320, Note_on_c, 4, 65, 79
4, 388560, Note_off_c, 4, 77, 79
4, 388560, Note_off_c, 4, 70, 79
4, 388560, Note_off_c, 4, 65, 79
4, 388560, Note_on_c, 4, 77, 79
4, 388560, Note_on_c, 4, 70, 79
4, 388560, Note_on_c, 4, 65, 79
4, 388800, Note_off_c, 4, 77, 79
4, 388800, Note_off_c, 4, 70, 79
4, 388800, Note_off_c, 4, 65, 79
4, 389280, Note_on_c, 4, 76, 79
4, 389280, Note_on_c, 4, 70, 79
4, 389280, Note_on_c, 4, 65, 79
4, 389760, Note_off_c, 4, 76, 79
4, 389760, Note_off_c, 4, 70, 79
4, 389760, Note_off_c, 4, 65, 79
4, 389760, Note_on_c, 4, 64, 95
4, 389760, Note_on_c, 4, 59, 95
4, 389760, Note_on_c, 4, 55, 95
4, 389821, Note_off_c, 4, 64, 95
4, 389821, Note_off_c, 4, 59, 95
4, 389821, Note_off_c, 4, 55, 95
4, 390000, Note_on_c, 4, 76, 79
4, 390000, Note_on_c, 4, 70, 79
4, 390000, Note_on_c, 4, 65, 79
4, 390240, Note_off_c, 4, 76, 79
4, 390240, Note_off_c, 4, 70, 79
4, 390240, Note_off_c, 4, 65, 79
4, 390240, Note_on_c, 4, 64, 95
4, 390240, Note_on_c, 4, 59, 95
4, 390240, Note_on_c, 4, 55, 95
4, 390301, Note_off_c, 4, 64, 95
4, 390301, Note_off_c, 4, 59, 95
4, 390301, Note_off_c, 4, 55, 95
4, 390480, Note_on_c, 4, 64, 95
4, 390480, Note_on_c, 4, 59, 95
4, 390480, Note_on_c, 4, 55, 95
4, 390541, Note_off_c, 4, 64, 95
4, 390541, Note_off_c, 4, 59, 95
4, 390541, Note_off_c, 4, 55, 95
4, 390720, Note_on_c, 4, 76, 79
4, 390720, Note_on_c, 4, 70, 79
4, 390720, Note_on_c, 4, 65, 79
4, 390960, Note_off_c, 4, 76, 79
4, 390960, Note_off_c, 4, 70, 79
4, 390960, Note_off_c, 4, 65, 79
4, 390960, Note_on_c, 4, 76, 79
4, 390960, Note_on_c, 4, 70, 79
4, 390960, Note_on_c, 4, 65, 79
4, 391200, Note_off_c, 4, 76, 79
4, 391200, Note_off_c, 4, 70, 79
4, 391200, Note_off_c, 4, 65, 79
4, 391680, Note_on_c, 4, 74, 79
4, 391680, Note_on_c, 4, 70, 79
4, 391680, Note_on_c, 4, 65, 79
4, 392400, Note_off_c, 4, 74, 79
4, 392400, Note_off_c, 4, 70, 79
4, 392400, Note_off_c, 4, 65, 79
4, 392400, Note_on_c, 4, 74, 79
4, 392400, Note_on_c, 4, 70, 79
4, 392400, Note_on_c, 4, 65, 79
4, 392640, Note_off_c, 4, 74, 79
4, 392640, Note_off_c, 4, 70, 79
4, 392640, Note_off_c, 4, 65, 79
4, 392640, Note_on_c, 4, 64, 95
4, 392640, Note_on_c, 4, 59, 95
4, 392640, Note_on_c, 4, 55, 95
4, 392701, Note_off_c, 4, 64, 95
4, 392701, Note_off_c, 4, 59, 95
4, 392701, Note_off_c, 4, 55, 95
4, 393120, Note_on_c, 4, 64, 95
4, 393120, Note_on_c, 4, 59, 95
4, 393120, Note_on_c, 4, 55, 95
4, 393181, Note_off_c, 4, 64, 95
4, 393181, Note_off_c, 4, 59, 95
4, 393181, Note_off_c, 4, 55, 95
4, 393360, Note_on_c, 4, 64, 95
4, 393360, Note_on_c, 4, 59, 95
4, 393360, Note_on_c, 4, 55, 95
4, 393421, Note_off_c, 4, 64, 95
4, 393421, Note_off_c, 4, 59, 95
4, 393421, Note_off_c, 4, 55, 95
4, 393600, Note_on_c, 4, 64, 95
4, 393600, Note_on_c, 4, 59, 95
4, 393600, Note_on_c, 4, 55, 95
4, 393661, Note_off_c, 4, 64, 95
4, 393661, Note_off_c, 4, 59, 95
4, 393661, Note_off_c, 4, 55, 95
4, 393840, Note_on_c, 4, 74, 79
4, 393840, Note_on_c, 4, 70, 79
4, 393840, Note_on_c, 4, 65, 79
4, 394080, Note_off_c, 4, 74, 79
4, 394080, Note_off_c, 4, 70, 79
4, 394080, Note_off_c, 4, 65, 79
4, 394080, Note_on_c, 4, 64, 95
4, 394080, Note_on_c, 4, 59, 95
4, 394080, Note_on_c, 4, 55, 95
4, 394141, Note_off_c, 4, 64, 95
4, 394141, Note_off_c, 4, 59, 95
4, 394141, Note_off_c, 4, 55, 95
4, 394320, Note_on_c, 4, 64, 95
4, 394320, Note_on_c, 4, 59, 95
4, 394320, Note_on_c, 4, 55, 95
4, 394381, Note_off_c, 4, 64, 95
4, 394381, Note_off_c, 4, 59, 95
4, 394381, Note_off_c, 4, 55, 95
4, 394560, Note_on_c, 4, 74, 79
4, 394560, Note_on_c, 4, 70, 79
4, 394560, Note_on_c, 4, 65, 79
4, 394800, Note_off_c, 4, 74, 79
4, 394800, Note_off_c, 4, 70, 79
4, 394800, Note_off_c, 4, 65, 79
4, 394800, Note_on_c, 4, 74, 79
4, 394800, Note_on_c, 4, 70, 79
4, 394800, Note_on_c, 4, 65, 79
4, 395040, Note_off_c, 4, 74, 79
4, 395040, Note_off_c, 4, 70, 79
4, 395040, Note_off_c, 4, 65, 79
4, 395040, Note_on_c, 4, 64, 95
4, 395040, Note_on_c, 4, 59, 95
4, 395040, Note_on_c, 4, 55, 95
4, 395101, Note_off_c, 4, 64, 95
4, 395101, Note_off_c, 4, 59, 95
4, 395101, Note_off_c, 4, 55, 95
4, 395280, Note_on_c, 4, 64, 95
4, 395280, Note_on_c, 4, 59, 95
4, 395280, Note_on_c, 4, 55, 95
4, 395341, Note_off_c, 4, 64, 95
4, 395341, Note_off_c, 4, 59, 95
4, 395341, Note_off_c, 4, 55, 95
4, 395520, Note_on_c, 4, 74, 79
4, 395520, Note_on_c, 4, 70, 79
4, 395520, Note_on_c, 4, 65, 79
4, 396240, Note_off_c, 4, 74, 79
4, 396240, Note_off_c, 4, 70, 79
4, 396240, Note_off_c, 4, 65, 79
4, 396240, Note_on_c, 4, 74, 79
4, 396240, Note_on_c, 4, 70, 79
4, 396240, Note_on_c, 4, 65, 79
4, 396480, Note_off_c, 4, 74, 79
4, 396480, Note_off_c, 4, 70, 79
4, 396480, Note_off_c, 4, 65, 79
4, 396480, Note_on_c, 4, 64, 95
4, 396480, Note_on_c, 4, 59, 95
4, 396480, Note_on_c, 4, 55, 95
4, 396541, Note_off_c, 4, 64, 95
4, 396541, Note_off_c, 4, 59, 95
4, 396541, Note_off_c, 4, 55, 95
4, 396960, Note_on_c, 4, 64, 95
4, 396960, Note_on_c, 4, 59, 95
4, 396960, Note_on_c, 4, 55, 95
4, 397021, Note_off_c, 4, 64, 95
4, 397021, Note_off_c, 4, 59, 95
4, 397021, Note_off_c, 4, 55, 95
4, 397200, Note_on_c, 4, 64, 95
4, 397200, Note_on_c, 4, 59, 95
4, 397200, Note_on_c, 4, 55, 95
4, 397261, Note_off_c, 4, 64, 95
4, 397261, Note_off_c, 4, 59, 95
4, 397261, Note_off_c, 4, 55, 95
4, 397440, Note_on_c, 4, 64, 95
4, 397440, Note_on_c, 4, 59, 95
4, 397440, Note_on_c, 4, 55, 95
4, 397501, Note_off_c, 4, 64, 95
4, 397501, Note_off_c, 4, 59, 95
4, 397501, Note_off_c, 4, 55, 95
4, 397680, Note_on_c, 4, 74, 79
4, 397680, Note_on_c, 4, 70, 79
4, 397680, Note_on_c, 4, 65, 79
4, 397920, Note_off_c, 4, 74, 79
4, 397920, Note_off_c, 4, 70, 79
4, 397920, Note_off_c, 4, 65, 79
4, 398400, Note_on_c, 4, 74, 79
4, 398400, Note_on_c, 4, 70, 79
4, 398400, Note_on_c, 4, 65, 79
4, 398640, Note_off_c, 4, 74, 79
4, 398640, Note_off_c, 4, 70, 79
4, 398640, Note_off_c, 4, 65, 79
4, 398640, Note_on_c, 4, 74, 79
4, 398640, Note_on_c, 4, 70, 79
4, 398640, Note_on_c, 4, 65, 79
4, 398880, Note_off_c, 4, 74, 79
4, 398880, Note_off_c, 4, 70, 79
4, 398880, Note_off_c, 4, 65, 79
4, 398880, Note_on_c, 4, 74, 79
4, 398880, Note_on_c, 4, 70, 79
4, 398880, Note_on_c, 4, 65, 79
4, 399360, Note_off_c, 4, 74, 79
4, 399360, Note_off_c, 4, 70, 79
4, 399360, Note_off_c, 4, 65, 79
4, 399360, Note_on_c, 4, 74, 79
4, 399360, Note_on_c, 4, 70, 79
4, 399360, Note_on_c, 4, 65, 79
4, 400080, Note_off_c, 4, 74, 79
4, 400080, Note_off_c, 4, 70, 79
4, 400080, Note_off_c, 4, 65, 79
4, 400080, Note_on_c, 4, 74, 79
4, 400080, Note_on_c, 4, 70, 79
4, 400080, Note_on_c, 4, 65, 79
4, 400320, Note_off_c, 4, 74, 79
4, 400320, Note_off_c, 4, 70, 79
4, 400320, Note_off_c, 4, 65, 79
4, 400320, Note_on_c, 4, 64, 95
4, 400320, Note_on_c, 4, 59, 95
4, 400320, Note_on_c, 4, 55, 95
4, 400381, Note_off_c, 4, 64, 95
4, 400381, Note_off_c, 4, 59, 95
4, 400381, Note_off_c, 4, 55, 95
4, 400800, Note_on_c, 4, 64, 95
4, 400800, Note_on_c, 4, 59, 95
4, 400800, Note_on_c, 4, 55, 95
4, 400861, Note_off_c, 4, 64, 95
4, 400861, Note_off_c, 4, 59, 95
4, 400861, Note_off_c, 4, 55, 95
4, 401040, Note_on_c, 4, 64, 95
4, 401040, Note_on_c, 4, 59, 95
4, 401040, Note_on_c, 4, 55, 95
4, 401101, Note_off_c, 4, 64, 95
4, 401101, Note_off_c, 4, 59, 95
4, 401101, Note_off_c, 4, 55, 95
4, 401280, Note_on_c, 4, 74, 79
4, 401280, Note_on_c, 4, 70, 79
4, 401280, Note_on_c, 4, 65, 79
4, 401520, Note_off_c, 4, 74, 79
4, 401520, Note_off_c, 4, 70, 79
4, 401520, Note_off_c, 4, 65, 79
4, 401520, Note_on_c, 4, 74, 79
4, 401520, Note_on_c, 4, 70, 79
4, 401520, Note_on_c, 4, 65, 79
4, 401760, Note_off_c, 4, 74, 79
4, 401760, Note_off_c, 4, 70, 79
4, 401760, Note_off_c, 4, 65, 79
4, 401760, Note_on_c, 4, 64, 95
4, 401760, Note_on_c, 4, 59, 95
4, 401760, Note_on_c, 4, 55, 95
4, 401821, Note_off_c, 4, 64, 95
4, 401821, Note_off_c, 4, 59, 95
4, 401821, Note_off_c, 4, 55, 95
4, 402240, Note_on_c, 4, 74, 79
4, 402240, Note_on_c, 4, 70, 79
4, 402240, Note_on_c, 4, 65, 79
4, 402720, Note_off_c, 4, 74, 79
4, 402720, Note_off_c, 4, 70, 79
4, 402720, Note_off_c, 4, 65, 79
4, 402720, Note_on_c, 4, 70, 79
4, 402720, Note_on_c, 4, 65, 79
4, 403200, Note_off_c, 4, 70, 79
4, 403200, Note_off_c, 4, 65, 79
4, 403200, Note_on_c, 4, 77, 79
4, 403200, Note_on_c, 4, 70, 79
4, 403200, Note_on_c, 4, 65, 79
4, 403680, Note_off_c, 4, 77, 79
4, 403680, Note_off_c, 4, 70, 79
4, 403680, Note_off_c, 4, 65, 79
4, 403680, Note_on_c, 4, 77, 79
4, 403680, Note_on_c, 4, 70, 79
4, 403680, Note_on_c, 4, 65, 79
4, 403920, Note_off_c, 4, 77, 79
4, 403920, Note_off_c, 4, 70, 79
4, 403920, Note_off_c, 4, 65, 79
4, 403920, Note_on_c, 4, 77, 79
4, 403920, Note_on_c, 4, 70, 79
4, 403920, Note_on_c, 4, 65, 79
4, 404160, Note_off_c, 4, 77, 79
4, 404160, Note_off_c, 4, 70, 79
4, 404160, Note_off_c, 4, 65, 79
4, 404640, Note_on_c, 4, 76, 79
4, 404640, Note_on_c, 4, 70, 79
4, 404640, Note_on_c, 4, 65, 79
4, 405120, Note_off_c, 4, 76, 79
4, 405120, Note_off_c, 4, 70, 79
4, 405120, Note_off_c, 4, 65, 79
4, 405120, Note_on_c, 4, 64, 95
4, 405120, Note_on_c, 4, 59, 95
4, 405120, Note_on_c, 4, 55, 95
4, 405181, Note_off_c, 4, 64, 95
4, 405181, Note_off_c, 4, 59, 95
4, 405181, Note_off_c, 4, 55, 95
4, 405360, Note_on_c, 4, 76, 79
4, 405360, Note_on_c, 4, 70, 79
4, 405360, Note_on_c, 4, 65, 79
4, 405600, Note_off_c, 4, 76, 79
4, 405600, Note_off_c, 4, 70, 79
4, 405600, Note_off_c, 4, 65, 79
4, 405600, Note_on_c, 4, 64, 95
4, 405600, Note_on_c, 4, 59, 95
4, 405600, Note_on_c, 4, 55, 95
4, 405661, Note_off_c, 4, 64, 95
4, 405661, Note_off_c, 4, 59, 95
4, 405661, Note_off_c, 4, 55, 95
4, 405840, Note_on_c, 4, 64, 95
4, 405840, Note_on_c, 4, 59, 95
4, 405840, Note_on_c, 4, 55, 95
4, 405901, Note_off_c, 4, 64, 95
4, 405901, Note_off_c, 4, 59, 95
4, 405901, Note_off_c, 4, 55, 95
4, 406080, Note_on_c, 4, 76, 79
4, 406080, Note_on_c, 4, 70, 79
4, 406080, Note_on_c, 4, 65, 79
4, 406320, Note_off_c, 4, 76, 79
4, 406320, Note_off_c, 4, 70, 79
4, 406320, Note_off_c, 4, 65, 79
4, 406320, Note_on_c, 4, 76, 79
4, 406320, Note_on_c, 4, 70, 79
4, 406320, Note_on_c, 4, 65, 79
4, 406560, Note_off_c, 4, 76, 79
4, 406560, Note_off_c, 4, 70, 79
4, 406560, Note_off_c, 4, 65, 79
4, 407040, Note_on_c, 4, 74, 79
4, 407040, Note_on_c, 4, 70, 79
4, 407040, Note_on_c, 4, 65, 79
4, 407760, Note_off_c, 4, 74, 79
4, 407760, Note_off_c, 4, 70, 79
4, 407760, Note_off_c, 4, 65, 79
4, 407760, Note_on_c, 4, 74, 79
4, 407760, Note_on_c, 4, 70, 79
4, 407760, Note_on_c, 4, 65, 79
4, 408000, Note_off_c, 4, 74, 79
4, 408000, Note_off_c, 4, 70, 79
4, 408000, Note_off_c, 4, 65, 79
4, 408000, Note_on_c, 4, 64, 95
4, 408000, Note_on_c, 4, 59, 95
4, 408000, Note_on_c, 4, 55, 95
4, 408061, Note_off_c, 4, 64, 95
4, 408061, Note_off_c, 4, 59, 95
4, 408061, Note_off_c, 4, 55, 95
4, 408480, Note_on_c, 4, 64, 95
4, 408480, Note_on_c, 4, 59, 95
4, 408480, Note_on_c, 4, 55, 95
4, 408541, Note_off_c, 4, 64, 95
4, 408541, Note_off_c, 4, 59, 95
4, 408541, Note_off_c, 4, 55, 95
4, 408720, Note_on_c, 4, 64, 95
4, 408720, Note_on_c, 4, 59, 95
4, 408720, Note_on_c, 4, 55, 95
4, 408781, Note_off_c, 4, 64, 95
4, 408781, Note_off_c, 4, 59, 95
4, 408781, Note_off_c, 4, 55, 95
4, 408960, Note_on_c, 4, 64, 95
4, 408960, Note_on_c, 4, 59, 95
4, 408960, Note_on_c, 4, 55, 95
4, 409021, Note_off_c, 4, 64, 95
4, 409021, Note_off_c, 4, 59, 95
4, 409021, Note_off_c, 4, 55, 95
4, 409200, Note_on_c, 4, 74, 79
4, 409200, Note_on_c, 4, 70, 79
4, 409200, Note_on_c, 4, 65, 79
4, 409440, Note_off_c, 4, 74, 79
4, 409440, Note_off_c, 4, 70, 79
4, 409440, Note_off_c, 4, 65, 79
4, 409440, Note_on_c, 4, 64, 95
4, 409440, Note_on_c, 4, 59, 95
4, 409440, Note_on_c, 4, 55, 95
4, 409501, Note_off_c, 4, 64, 95
4, 409501, Note_off_c, 4, 59, 95
4, 409501, Note_off_c, 4, 55, 95
4, 409680, Note_on_c, 4, 64, 95
4, 409680, Note_on_c, 4, 59, 95
4, 409680, Note_on_c, 4, 55, 95
4, 409741, Note_off_c, 4, 64, 95
4, 409741, Note_off_c, 4, 59, 95
4, 409741, Note_off_c, 4, 55, 95
4, 409920, Note_on_c, 4, 74, 79
4, 409920, Note_on_c, 4, 70, 79
4, 409920, Note_on_c, 4, 65, 79
4, 410160, Note_off_c, 4, 74, 79
4, 410160, Note_off_c, 4, 70, 79
4, 410160, Note_off_c, 4, 65, 79
4, 410160, Note_on_c, 4, 74, 79
4, 410160, Note_on_c, 4, 70, 79
4, 410160, Note_on_c, 4, 65, 79
4, 410400, Note_off_c, 4, 74, 79
4, 410400, Note_off_c, 4, 70, 79
4, 410400, Note_off_c, 4, 65, 79
4, 410400, Note_on_c, 4, 64, 95
4, 410400, Note_on_c, 4, 59, 95
4, 410400, Note_on_c, 4, 55, 95
4, 410461, Note_off_c, 4, 64, 95
4, 410461, Note_off_c, 4, 59, 95
4, 410461, Note_off_c, 4, 55, 95
4, 410640, Note_on_c, 4, 64, 95
4, 410640, Note_on_c, 4, 59, 95
4, 410640, Note_on_c, 4, 55, 95
4, 410701, Note_off_c, 4, 64, 95
4, 410701, Note_off_c, 4, 59, 95
4, 410701, Note_off_c, 4, 55, 95
4, 410880, Note_on_c, 4, 74, 79
4, 410880, Note_on_c, 4, 70, 79
4, 410880, Note_on_c, 4, 65, 79
4, 411600, Note_off_c, 4, 74, 79
4, 411600, Note_off_c, 4, 70, 79
4, 411600, Note_off_c, 4, 65, 79
4, 411600, Note_on_c, 4, 74, 79
4, 411600, Note_on_c, 4, 70, 79
4, 411600, Note_on_c, 4, 65, 79
4, 411840, Note_off_c, 4, 74, 79
4, 411840, Note_off_c, 4, 70, 79
4, 411840, Note_off_c, 4, 65, 79
4, 411840, Note_on_c, 4, 64, 95
4, 411840, Note_on_c, 4, 59, 95
4, 411840, Note_on_c, 4, 55, 95
4, 411901, Note_off_c, 4, 64, 95
4, 411901, Note_off_c, 4, 59, 95
4, 411901, Note_off_c, 4, 55, 95
4, 412320, Note_on_c, 4, 64, 95
4, 412320, Note_on_c, 4, 59, 95
4, 412320, Note_on_c, 4, 55, 95
4, 412381, Note_off_c, 4, 64, 95
4, 412381, Note_off_c, 4, 59, 95
4, 412381, Note_off_c, 4, 55, 95
4, 412560, Note_on_c, 4, 64, 95
4, 412560, Note_on_c, 4, 59, 95
4, 412560, Note_on_c, 4, 55, 95
4, 412621, Note_off_c, 4, 64, 95
4, 412621, Note_off_c, 4, 59, 95
4, 412621, Note_off_c, 4, 55, 95
4, 412800, Note_on_c, 4, 64, 95
4, 412800, Note_on_c, 4, 59, 95
4, 412800, Note_on_c, 4, 55, 95
4, 412861, Note_off_c, 4, 64, 95
4, 412861, Note_off_c, 4, 59, 95
4, 412861, Note_off_c, 4, 55, 95
4, 413040, Note_on_c, 4, 74, 79
4, 413040, Note_on_c, 4, 70, 79
4, 413040, Note_on_c, 4, 65, 79
4, 413280, Note_off_c, 4, 74, 79
4, 413280, Note_off_c, 4, 70, 79
4, 413280, Note_off_c, 4, 65, 79
4, 413760, Note_on_c, 4, 74, 79
4, 413760, Note_on_c, 4, 70, 79
4, 413760, Note_on_c, 4, 65, 79
4, 414000, Note_off_c, 4, 74, 79
4, 414000, Note_off_c, 4, 70, 79
4, 414000, Note_off_c, 4, 65, 79
4, 414000, Note_on_c, 4, 74, 79
4, 414000, Note_on_c, 4, 70, 79
4, 414000, Note_on_c, 4, 65, 79
4, 414240, Note_off_c, 4, 74, 79
4, 414240, Note_off_c, 4, 70, 79
4, 414240, Note_off_c, 4, 65, 79
4, 414240, Note_on_c, 4, 74, 79
4, 414240, Note_on_c, 4, 70, 79
4, 414240, Note_on_c, 4, 65, 79
4, 414720, Note_off_c, 4, 74, 79
4, 414720, Note_off_c, 4, 70, 79
4, 414720, Note_off_c, 4, 65, 79
4, 414720, Note_on_c, 4, 74, 79
4, 414720, Note_on_c, 4, 70, 79
4, 414720, Note_on_c, 4, 65, 79
4, 415440, Note_off_c, 4, 74, 79
4, 415440, Note_off_c, 4, 70, 79
4, 415440, Note_off_c, 4, 65, 79
4, 415440, Note_on_c, 4, 74, 79
4, 415440, Note_on_c, 4, 70, 79
4, 415440, Note_on_c, 4, 65, 79
4, 415680, Note_off_c, 4, 74, 79
4, 415680, Note_off_c, 4, 70, 79
4, 415680, Note_off_c, 4, 65, 79
4, 415680, Note_on_c, 4, 64, 95
4, 415680, Note_on_c, 4, 59, 95
4, 415680, Note_on_c, 4, 55, 95
4, 415741, Note_off_c, 4, 64, 95
4, 415741, Note_off_c, 4, 59, 95
4, 415741, Note_off_c, 4, 55, 95
4, 416160, Note_on_c, 4, 64, 95
4, 416160, Note_on_c, 4, 59, 95
4, 416160, Note_on_c, 4, 55, 95
4, 416221, Note_off_c, 4, 64, 95
4, 416221, Note_off_c, 4, 59, 95
4, 416221, Note_off_c, 4, 55, 95
4, 416400, Note_on_c, 4, 64, 95
4, 416400, Note_on_c, 4, 59, 95
4, 416400, Note_on_c, 4, 55, 95
4, 416461, Note_off_c, 4, 64, 95
4, 416461, Note_off_c, 4, 59, 95
4, 416461, Note_off_c, 4, 55, 95
4, 416640, Note_on_c, 4, 74, 79
4, 416640, Note_on_c, 4, 70, 79
4, 416640, Note_on_c, 4, 65, 79
4, 416880, Note_off_c, 4, 74, 79
4, 416880, Note_off_c, 4, 70, 79
4, 416880, Note_off_c, 4, 65, 79
4, 416880, Note_on_c, 4, 74, 79
4, 416880, Note_on_c, 4, 70, 79
4, 416880, Note_on_c, 4, 65, 79
4, 417120, Note_off_c, 4, 74, 79
4, 417120, Note_off_c, 4, 70, 79
4, 417120, Note_off_c, 4, 65, 79
4, 417120, Note_on_c, 4, 64, 95
4, 417120, Note_on_c, 4, 59, 95
4, 417120, Note_on_c, 4, 55, 95
4, 417181, Note_off_c, 4, 64, 95
4, 417181, Note_off_c, 4, 59, 95
4, 417181, Note_off_c, 4, 55, 95
4, 417600, Note_on_c, 4, 74, 79
4, 417600, Note_on_c, 4, 70, 79
4, 417600, Note_on_c, 4, 65, 79
4, 418080, Note_off_c, 4, 74, 79
4, 418080, Note_off_c, 4, 70, 79
4, 418080, Note_off_c, 4, 65, 79
4, 418080, Note_on_c, 4, 70, 79
4, 418080, Note_on_c, 4, 65, 79
4, 418560, Note_off_c, 4, 70, 79
4, 418560, Note_off_c, 4, 65, 79
4, 418560, Note_on_c, 4, 77, 79
4, 418560, Note_on_c, 4, 70, 79
4, 418560, Note_on_c, 4, 65, 79
4, 419040, Note_off_c, 4, 77, 79
4, 419040, Note_off_c, 4, 70, 79
4, 419040, Note_off_c, 4, 65, 79
4, 419040, Note_on_c, 4, 77, 79
4, 419040, Note_on_c, 4, 70, 79
4, 419040, Note_on_c, 4, 65, 79
4, 419280, Note_off_c, 4, 77, 79
4, 419280, Note_off_c, 4, 70, 79
4, 419280, Note_off_c, 4, 65, 79
4, 419280, Note_on_c, 4, 77, 79
4, 419280, Note_on_c, 4, 70, 79
4, 419280, Note_on_c, 4, 65, 79
4, 419520, Note_off_c, 4, 77, 79
4, 419520, Note_off_c, 4, 70, 79
4, 419520, Note_off_c, 4, 65, 79
4, 420000, Note_on_c, 4, 76, 79
4, 420000, Note_on_c, 4, 70, 79
4, 420000, Note_on_c, 4, 65, 79
4, 420480, Note_off_c, 4, 76, 79
4, 420480, Note_off_c, 4, 70, 79
4, 420480, Note_off_c, 4, 65, 79
4, 420480, Note_on_c, 4, 64, 95
4, 420480, Note_on_c, 4, 59, 95
4, 420480, Note_on_c, 4, 55, 95
4, 420541, Note_off_c, 4, 64, 95
4, 420541, Note_off_c, 4, 59, 95
4, 420541, Note_off_c, 4, 55, 95
4, 420720, Note_on_c, 4, 76, 79
4, 420720, Note_on_c, 4, 70, 79
4, 420720, Note_on_c, 4, 65, 79
4, 420960, Note_off_c, 4, 76, 79
4, 420960, Note_off_c, 4, 70, 79
4, 420960, Note_off_c, 4, 65, 79
4, 420960, Note_on_c, 4, 64, 95
4, 420960, Note_on_c, 4, 59, 95
4, 420960, Note_on_c, 4, 55, 95
4, 421021, Note_off_c, 4, 64, 95
4, 421021, Note_off_c, 4, 59, 95
4, 421021, Note_off_c, 4, 55, 95
4, 421200, Note_on_c, 4, 64, 95
4, 421200, Note_on_c, 4, 59, 95
4, 421200, Note_on_c, 4, 55, 95
4, 421261, Note_off_c, 4, 64, 95
4, 421261, Note_off_c, 4, 59, 95
4, 421261, Note_off_c, 4, 55, 95
4, 421440, Note_on_c, 4, 76, 79
4, 421440, Note_on_c, 4, 70, 79
4, 421440, Note_on_c, 4, 65, 79
4, 421680, Note_off_c, 4, 76, 79
4, 421680, Note_off_c, 4, 70, 79
4, 421680, Note_off_c, 4, 65, 79
4, 421680, Note_on_c, 4, 76, 79
4, 421680, Note_on_c, 4, 70, 79
4, 421680, Note_on_c, 4, 65, 79
4, 421920, Note_off_c, 4, 76, 79
4, 421920, Note_off_c, 4, 70, 79
4, 421920, Note_off_c, 4, 65, 79
4, 422400, Note_on_c, 4, 74, 79
4, 422400, Note_on_c, 4, 70, 79
4, 422400, Note_on_c, 4, 65, 79
4, 423120, Note_off_c, 4, 74, 79
4, 423120, Note_off_c, 4, 70, 79
4, 423120, Note_off_c, 4, 65, 79
4, 423120, Note_on_c, 4, 74, 79
4, 423120, Note_on_c, 4, 70, 79
4, 423120, Note_on_c, 4, 65, 79
4, 423360, Note_off_c, 4, 74, 79
4, 423360, Note_off_c, 4, 70, 79
4, 423360, Note_off_c, 4, 65, 79
4, 423360, Note_on_c, 4, 64, 95
4, 423360, Note_on_c, 4, 59, 95
4, 423360, Note_on_c, 4, 55, 95
4, 423421, Note_off_c, 4, 64, 95
4, 423421, Note_off_c, 4, 59, 95
4, 423421, Note_off_c, 4, 55, 95
4, 423840, Note_on_c, 4, 64, 95
4, 423840, Note_on_c, 4, 59, 95
4, 423840, Note_on_c, 4, 55, 95
4, 423901, Note_off_c, 4, 64, 95
4, 423901, Note_off_c, 4, 59, 95
4, 423901, Note_off_c, 4, 55, 95
4, 424080, Note_on_c, 4, 64, 95
4, 424080, Note_on_c, 4, 59, 95
4, 424080, Note_on_c, 4, 55, 95
4, 424141, Note_off_c, 4, 64, 95
4, 424141, Note_off_c, 4, 59, 95
4, 424141, Note_off_c, 4, 55, 95
4, 424320, Note_on_c, 4, 64, 95
4, 424320, Note_on_c, 4, 59, 95
4, 424320, Note_on_c, 4, 55, 95
4, 424381, Note_off_c, 4, 64, 95
4, 424381, Note_off_c, 4, 59, 95
4, 424381, Note_off_c, 4, 55, 95
4, 424560, Note_on_c, 4, 74, 79
4, 424560, Note_on_c, 4, 70, 79
4, 424560, Note_on_c, 4, 65, 79
4, 424800, Note_off_c, 4, 74, 79
4, 424800, Note_off_c, 4, 70, 79
4, 424800, Note_off_c, 4, 65, 79
4, 424800, Note_on_c, 4, 64, 95
4, 424800, Note_on_c, 4, 59, 95
4, 424800, Note_on_c, 4, 55, 95
4, 424861, Note_off_c, 4, 64, 95
4, 424861, Note_off_c, 4, 59, 95
4, 424861, Note_off_c, 4, 55, 95
4, 425040, Note_on_c, 4, 64, 95
4, 425040, Note_on_c, 4, 59, 95
4, 425040, Note_on_c, 4, 55, 95
4, 425101, Note_off_c, 4, 64, 95
4, 425101, Note_off_c, 4, 59, 95
4, 425101, Note_off_c, 4, 55, 95
4, 425280, Note_on_c, 4, 74, 79
4, 425280, Note_on_c, 4, 70, 79
4, 425280, Note_on_c, 4, 65, 79
4, 425520, Note_off_c, 4, 74, 79
4, 425520, Note_off_c, 4, 70, 79
4, 425520, Note_off_c, 4, 65, 79
4, 425520, Note_on_c, 4, 74, 79
4, 425520, Note_on_c, 4, 70, 79
4, 425520, Note_on_c, 4, 65, 79
4, 425760, Note_off_c, 4, 74, 79
4, 425760, Note_off_c, 4, 70, 79
4, 425760, Note_off_c, 4, 65, 79
4, 425760, Note_on_c, 4, 64, 95
4, 425760, Note_on_c, 4, 59, 95
4, 425760, Note_on_c, 4, 55, 95
4, 425821, Note_off_c, 4, 64, 95
4, 425821, Note_off_c, 4, 59, 95
4, 425821, Note_off_c, 4, 55, 95
4, 426000, Note_on_c, 4, 64, 95
4, 426000, Note_on_c, 4, 59, 95
4, 426000, Note_on_c, 4, 55, 95
4, 426061, Note_off_c, 4, 64, 95
4, 426061, Note_off_c, 4, 59, 95
4, 426061, Note_off_c, 4, 55, 95
4, 426240, Note_on_c, 4, 74, 79
4, 426240, Note_on_c, 4, 70, 79
4, 426240, Note_on_c, 4, 65, 79
4, 426960, Note_off_c, 4, 74, 79
4, 426960, Note_off_c, 4, 70, 79
4, 426960, Note_off_c, 4, 65, 79
4, 426960, Note_on_c, 4, 74, 79
4, 426960, Note_on_c, 4, 70, 79
4, 426960, Note_on_c, 4, 65, 79
4, 427200, Note_off_c, 4, 74, 79
4, 427200, Note_off_c, 4, 70, 79
4, 427200, Note_off_c, 4, 65, 79
4, 427200, Note_on_c, 4, 64, 95
4, 427200, Note_on_c, 4, 59, 95
4, 427200, Note_on_c, 4, 55, 95
4, 427261, Note_off_c, 4, 64, 95
4, 427261, Note_off_c, 4, 59, 95
4, 427261, Note_off_c, 4, 55, 95
4, 427680, Note_on_c, 4, 64, 95
4, 427680, Note_on_c, 4, 59, 95
4, 427680, Note_on_c, 4, 55, 95
4, 427741, Note_off_c, 4, 64, 95
4, 427741, Note_off_c, 4, 59, 95
4, 427741, Note_off_c, 4, 55, 95
4, 427920, Note_on_c, 4, 64, 95
4, 427920, Note_on_c, 4, 59, 95
4, 427920, Note_on_c, 4, 55, 95
4, 427981, Note_off_c, 4, 64, 95
4, 427981, Note_off_c, 4, 59, 95
4, 427981, Note_off_c, 4, 55, 95
4, 428160, Note_on_c, 4, 64, 95
4, 428160, Note_on_c, 4, 59, 95
4, 428160, Note_on_c, 4, 55, 95
4, 428221, Note_off_c, 4, 64, 95
4, 428221, Note_off_c, 4, 59, 95
4, 428221, Note_off_c, 4, 55, 95
4, 428400, Note_on_c, 4, 74, 79
4, 428400, Note_on_c, 4, 70, 79
4, 428400, Note_on_c, 4, 65, 79
4, 428640, Note_off_c, 4, 74, 79
4, 428640, Note_off_c, 4, 70, 79
4, 428640, Note_off_c, 4, 65, 79
4, 429120, Note_on_c, 4, 74, 79
4, 429120, Note_on_c, 4, 70, 79
4, 429120, Note_on_c, 4, 65, 79
4, 429360, Note_off_c, 4, 74, 79
4, 429360, Note_off_c, 4, 70, 79
4, 429360, Note_off_c, 4, 65, 79
4, 429360, Note_on_c, 4, 74, 79
4, 429360, Note_on_c, 4, 70, 79
4, 429360, Note_on_c, 4, 65, 79
4, 429600, Note_off_c, 4, 74, 79
4, 429600, Note_off_c, 4, 70, 79
4, 429600, Note_off_c, 4, 65, 79
4, 429600, Note_on_c, 4, 74, 79
4, 429600, Note_on_c, 4, 70, 79
4, 429600, Note_on_c, 4, 65, 79
4, 430080, Note_off_c, 4, 74, 79
4, 430080, Note_off_c, 4, 70, 79
4, 430080, Note_off_c, 4, 65, 79
4, 430080, Note_on_c, 4, 74, 79
4, 430080, Note_on_c, 4, 70, 79
4, 430080, Note_on_c, 4, 65, 79
4, 430800, Note_off_c, 4, 74, 79
4, 430800, Note_off_c, 4, 70, 79
4, 430800, Note_off_c, 4, 65, 79
4, 430800, Note_on_c, 4, 74, 79
4, 430800, Note_on_c, 4, 70, 79
4, 430800, Note_on_c, 4, 65, 79
4, 431040, Note_off_c, 4, 74, 79
4, 431040, Note_off_c, 4, 70, 79
4, 431040, Note_off_c, 4, 65, 79
4, 431040, Note_on_c, 4, 64, 95
4, 431040, Note_on_c, 4, 59, 95
4, 431040, Note_on_c, 4, 55, 95
4, 431101, Note_off_c, 4, 64, 95
4, 431101, Note_off_c, 4, 59, 95
4, 431101, Note_off_c, 4, 55, 95
4, 431520, Note_on_c, 4, 64, 95
4, 431520, Note_on_c, 4, 59, 95
4, 431520, Note_on_c, 4, 55, 95
4, 431581, Note_off_c, 4, 64, 95
4, 431581, Note_off_c, 4, 59, 95
4, 431581, Note_off_c, 4, 55, 95
4, 431760, Note_on_c, 4, 64, 95
4, 431760, Note_on_c, 4, 59, 95
4, 431760, Note_on_c, 4, 55, 95
4, 431821, Note_off_c, 4, 64, 95
4, 431821, Note_off_c, 4, 59, 95
4, 431821, Note_off_c, 4, 55, 95
4, 432000, Note_on_c, 4, 64, 95
4, 432000, Note_on_c, 4, 59, 95
4, 432000, Note_on_c, 4, 55, 95
4, 432061, Note_off_c, 4, 64, 95
4, 432061, Note_off_c, 4, 59, 95
4, 432061, Note_off_c, 4, 55, 95
4, 432240, Note_on_c, 4, 64, 95
4, 432240, Note_on_c, 4, 59, 95
4, 432240, Note_on_c, 4, 55, 95
4, 432301, Note_off_c, 4, 64, 95
4, 432301, Note_off_c, 4, 59, 95
4, 432301, Note_off_c, 4, 55, 95
4, 432480, Note_on_c, 4, 64, 95
4, 432480, Note_on_c, 4, 59, 95
4, 432480, Note_on_c, 4, 55, 95
4, 432541, Note_off_c, 4, 64, 95
4, 432541, Note_off_c, 4, 59, 95
4, 432541, Note_off_c, 4, 55, 95
4, 432960, Note_on_c, 4, 76, 79
4, 432960, Note_on_c, 4, 72, 79
4, 432960, Note_on_c, 4, 67, 79
4, 433200, Note_off_c, 4, 76, 79
4, 433200, Note_off_c, 4, 72, 79
4, 433200, Note_off_c, 4, 67, 79
4, 433200, Note_on_c, 4, 76, 79
4, 433200, Note_on_c, 4, 72, 79
4, 433200, Note_on_c, 4, 67, 79
4, 433440, Note_off_c, 4, 76, 79
4, 433440, Note_off_c, 4, 72, 79
4, 433440, Note_off_c, 4, 67, 79
4, 433920, Note_on_c, 4, 74, 79
4, 433920, Note_on_c, 4, 70, 79
4, 433920, Note_on_c, 4, 65, 79
4, 434640, Note_off_c, 4, 74, 79
4, 434640, Note_off_c, 4, 70, 79
4, 434640, Note_off_c, 4, 65, 79
4, 434640, Note_on_c, 4, 74, 79
4, 434640, Note_on_c, 4, 70, 79
4, 434640, Note_on_c, 4, 65, 79
4, 434880, Note_off_c, 4, 74, 79
4, 434880, Note_off_c, 4, 70, 79
4, 434880, Note_off_c, 4, 65, 79
4, 434880, Note_on_c, 4, 64, 95
4, 434880, Note_on_c, 4, 59, 95
4, 434880, Note_on_c, 4, 55, 95
4, 434941, Note_off_c, 4, 64, 95
4, 434941, Note_off_c, 4, 59, 95
4, 434941, Note_off_c, 4, 55, 95
4, 435360, Note_on_c, 4, 64, 95
4, 435360, Note_on_c, 4, 59, 95
4, 435360, Note_on_c, 4, 55, 95
4, 435421, Note_off_c, 4, 64, 95
4, 435421, Note_off_c, 4, 59, 95
4, 435421, Note_off_c, 4, 55, 95
4, 435600, Note_on_c, 4, 64, 95
4, 435600, Note_on_c, 4, 59, 95
4, 435600, Note_on_c, 4, 55, 95
4, 435661, Note_off_c, 4, 64, 95
4, 435661, Note_off_c, 4, 59, 95
4, 435661, Note_off_c, 4, 55, 95
4, 435840, Note_on_c, 4, 64, 95
4, 435840, Note_on_c, 4, 59, 95
4, 435840, Note_on_c, 4, 55, 95
4, 435901, Note_off_c, 4, 64, 95
4, 435901, Note_off_c, 4, 59, 95
4, 435901, Note_off_c, 4, 55, 95
4, 436080, Note_on_c, 4, 64, 95
4, 436080, Note_on_c, 4, 59, 95
4, 436080, Note_on_c, 4, 55, 95
4, 436141, Note_off_c, 4, 64, 95
4, 436141, Note_off_c, 4, 59, 95
4, 436141, Note_off_c, 4, 55, 95
4, 436320, Note_on_c, 4, 64, 95
4, 436320, Note_on_c, 4, 59, 95
4, 436320, Note_on_c, 4, 55, 95
4, 436381, Note_off_c, 4, 64, 95
4, 436381, Note_off_c, 4, 59, 95
4, 436381, Note_off_c, 4, 55, 95
4, 436800, Note_on_c, 4, 64, 95
4, 436800, Note_on_c, 4, 59, 95
4, 436800, Note_on_c, 4, 55, 95
4, 436861, Note_off_c, 4, 64, 95
4, 436861, Note_off_c, 4, 59, 95
4, 436861, Note_off_c, 4, 55, 95
4, 437280, Note_on_c, 4, 74, 79
4, 437280, Note_on_c, 4, 70, 79
4, 437280, Note_on_c, 4, 65, 79
4, 437760, Note_off_c, 4, 74, 79
4, 437760, Note_off_c, 4, 70, 79
4, 437760, Note_off_c, 4, 65, 79
4, 437760, Note_on_c, 4, 74, 79
4, 437760, Note_on_c, 4, 70, 79
4, 437760, Note_on_c, 4, 65, 79
4, 438480, Note_off_c, 4, 74, 79
4, 438480, Note_off_c, 4, 70, 79
4, 438480, Note_off_c, 4, 65, 79
4, 438480, Note_on_c, 4, 74, 79
4, 438480, Note_on_c, 4, 70, 79
4, 438480, Note_on_c, 4, 65, 79
4, 438720, Note_off_c, 4, 74, 79
4, 438720, Note_off_c, 4, 70, 79
4, 438720, Note_off_c, 4, 65, 79
4, 438720, Note_on_c, 4, 64, 95
4, 438720, Note_on_c, 4, 59, 95
4, 438720, Note_on_c, 4, 55, 95
4, 438781, Note_off_c, 4, 64, 95
4, 438781, Note_off_c, 4, 59, 95
4, 438781, Note_off_c, 4, 55, 95
4, 439200, Note_on_c, 4, 64, 95
4, 439200, Note_on_c, 4, 59, 95
4, 439200, Note_on_c, 4, 55, 95
4, 439261, Note_off_c, 4, 64, 95
4, 439261, Note_off_c, 4, 59, 95
4, 439261, Note_off_c, 4, 55, 95
4, 439440, Note_on_c, 4, 64, 95
4, 439440, Note_on_c, 4, 59, 95
4, 439440, Note_on_c, 4, 55, 95
4, 439501, Note_off_c, 4, 64, 95
4, 439501, Note_off_c, 4, 59, 95
4, 439501, Note_off_c, 4, 55, 95
4, 439680, Note_on_c, 4, 64, 95
4, 439680, Note_on_c, 4, 59, 95
4, 439680, Note_on_c, 4, 55, 95
4, 439741, Note_off_c, 4, 64, 95
4, 439741, Note_off_c, 4, 59, 95
4, 439741, Note_off_c, 4, 55, 95
4, 439920, Note_on_c, 4, 64, 95
4, 439920, Note_on_c, 4, 59, 95
4, 439920, Note_on_c, 4, 55, 95
4, 439981, Note_off_c, 4, 64, 95
4, 439981, Note_off_c, 4, 59, 95
4, 439981, Note_off_c, 4, 55, 95
4, 440160, Note_on_c, 4, 64, 95
4, 440160, Note_on_c, 4, 59, 95
4, 440160, Note_on_c, 4, 55, 95
4, 440221, Note_off_c, 4, 64, 95
4, 440221, Note_off_c, 4, 59, 95
4, 440221, Note_off_c, 4, 55, 95
4, 440640, Note_on_c, 4, 76, 79
4, 440640, Note_on_c, 4, 72, 79
4, 440640, Note_on_c, 4, 67, 79
4, 440880, Note_off_c, 4, 76, 79
4, 440880, Note_off_c, 4, 72, 79
4, 440880, Note_off_c, 4, 67, 79
4, 440880, Note_on_c, 4, 76, 79
4, 440880, Note_on_c, 4, 72, 79
4, 440880, Note_on_c, 4, 67, 79
4, 441120, Note_off_c, 4, 76, 79
4, 441120, Note_off_c, 4, 72, 79
4, 441120, Note_off_c, 4, 67, 79
4, 441600, Note_on_c, 4, 74, 79
4, 441600, Note_on_c, 4, 70, 79
4, 441600, Note_on_c, 4, 65, 79
4, 442320, Note_off_c, 4, 74, 79
4, 442320, Note_off_c, 4, 70, 79
4, 442320, Note_off_c, 4, 65, 79
4, 442320, Note_on_c, 4, 74, 79
4, 442320, Note_on_c, 4, 70, 79
4, 442320, Note_on_c, 4, 65, 79
4, 442560, Note_off_c, 4, 74, 79
4, 442560, Note_off_c, 4, 70, 79
4, 442560, Note_off_c, 4, 65, 79
4, 442560, Note_on_c, 4, 64, 95
4, 442560, Note_on_c, 4, 59, 79
4, 442560, Note_on_c, 4, 55, 95
4, 442621, Note_off_c, 4, 64, 95
4, 442621, Note_off_c, 4, 59, 79
4, 442621, Note_off_c, 4, 55, 95
4, 443040, Note_on_c, 4, 64, 95
4, 443040, Note_on_c, 4, 59, 79
4, 443040, Note_on_c, 4, 55, 95
4, 443101, Note_off_c, 4, 64, 95
4, 443101, Note_off_c, 4, 59, 79
4, 443101, Note_off_c, 4, 55, 95
4, 443280, Note_on_c, 4, 64, 95
4, 443280, Note_on_c, 4, 59, 79
4, 443280, Note_on_c, 4, 55, 95
4, 443341, Note_off_c, 4, 64, 95
4, 443341, Note_off_c, 4, 59, 79
4, 443341, Note_off_c, 4, 55, 95
4, 443520, Note_on_c, 4, 64, 95
4, 443520, Note_on_c, 4, 59, 79
4, 443520, Note_on_c, 4, 55, 95
4, 443581, Note_off_c, 4, 64, 95
4, 443581, Note_off_c, 4, 59, 79
4, 443581, Note_off_c, 4, 55, 95
4, 443760, Note_on_c, 4, 64, 95
4, 443760, Note_on_c, 4, 59, 79
4, 443760, Note_on_c, 4, 55, 95
4, 443821, Note_off_c, 4, 64, 95
4, 443821, Note_off_c, 4, 59, 79
4, 443821, Note_off_c, 4, 55, 95
4, 444000, Note_on_c, 4, 64, 79
4, 444000, Note_on_c, 4, 59, 79
4, 444000, Note_on_c, 4, 55, 95
4, 444061, Note_off_c, 4, 64, 79
4, 444061, Note_off_c, 4, 59, 79
4, 444061, Note_off_c, 4, 55, 95
4, 444480, Note_on_c, 4, 64, 79
4, 444480, Note_on_c, 4, 59, 79
4, 444480, Note_on_c, 4, 55, 79
4, 444541, Note_off_c, 4, 64, 79
4, 444541, Note_off_c, 4, 59, 79
4, 444541, Note_off_c, 4, 55, 79
4, 444960, Note_on_c, 4, 74, 79
4, 444960, Note_on_c, 4, 70, 79
4, 444960, Note_on_c, 4, 65, 79
4, 445440, Note_off_c, 4, 74, 79
4, 445440, Note_off_c, 4, 70, 79
4, 445440, Note_off_c, 4, 65, 79
4, 445440, Note_on_c, 4, 74, 79
4, 445440, Note_on_c, 4, 70, 79
4, 445440, Note_on_c, 4, 65, 79
4, 446160, Note_off_c, 4, 74, 79
4, 446160, Note_off_c, 4, 70, 79
4, 446160, Note_off_c, 4, 65, 79
4, 446160, Note_on_c, 4, 74, 79
4, 446160, Note_on_c, 4, 70, 79
4, 446160, Note_on_c, 4, 65, 79
4, 446400, Note_off_c, 4, 74, 79
4, 446400, Note_off_c, 4, 70, 79
4, 446400, Note_off_c, 4, 65, 79
4, 446400, Note_on_c, 4, 64, 95
4, 446400, Note_on_c, 4, 59, 95
4, 446400, Note_on_c, 4, 55, 95
4, 446461, Note_off_c, 4, 64, 95
4, 446461, Note_off_c, 4, 59, 95
4, 446461, Note_off_c, 4, 55, 95
4, 446880, Note_on_c, 4, 64, 95
4, 446880, Note_on_c, 4, 59, 95
4, 446880, Note_on_c, 4, 55, 95
4, 446941, Note_off_c, 4, 64, 95
4, 446941, Note_off_c, 4, 59, 95
4, 446941, Note_off_c, 4, 55, 95
4, 447120, Note_on_c, 4, 64, 95
4, 447120, Note_on_c, 4, 59, 95
4, 447120, Note_on_c, 4, 55, 95
4, 447181, Note_off_c, 4, 64, 95
4, 447181, Note_off_c, 4, 59, 95
4, 447181, Note_off_c, 4, 55, 95
4, 447360, Note_on_c, 4, 74, 79
4, 447360, Note_on_c, 4, 70, 79
4, 447360, Note_on_c, 4, 65, 79
4, 447600, Note_off_c, 4, 74, 79
4, 447600, Note_off_c, 4, 70, 79
4, 447600, Note_off_c, 4, 65, 79
4, 447600, Note_on_c, 4, 74, 79
4, 447600, Note_on_c, 4, 70, 79
4, 447600, Note_on_c, 4, 65, 79
4, 447840, Note_off_c, 4, 74, 79
4, 447840, Note_off_c, 4, 70, 79
4, 447840, Note_off_c, 4, 65, 79
4, 447840, Note_on_c, 4, 64, 95
4, 447840, Note_on_c, 4, 59, 95
4, 447840, Note_on_c, 4, 55, 95
4, 447901, Note_off_c, 4, 64, 95
4, 447901, Note_off_c, 4, 59, 95
4, 447901, Note_off_c, 4, 55, 95
4, 448320, Note_on_c, 4, 74, 79
4, 448320, Note_on_c, 4, 70, 79
4, 448320, Note_on_c, 4, 65, 79
4, 448800, Note_off_c, 4, 74, 79
4, 448800, Note_off_c, 4, 70, 79
4, 448800, Note_off_c, 4, 65, 79
4, 448800, Note_on_c, 4, 70, 79
4, 448800, Note_on_c, 4, 65, 79
4, 449280, Note_off_c, 4, 70, 79
4, 449280, Note_off_c, 4, 65, 79
4, 449280, Note_on_c, 4, 77, 79
4, 449280, Note_on_c, 4, 70, 79
4, 449280, Note_on_c, 4, 65, 79
4, 449760, Note_off_c, 4, 77, 79
4, 449760, Note_off_c, 4, 70, 79
4, 449760, Note_off_c, 4, 65, 79
4, 449760, Note_on_c, 4, 77, 79
4, 449760, Note_on_c, 4, 70, 79
4, 449760, Note_on_c, 4, 65, 79
4, 450000, Note_off_c, 4, 77, 79
4, 450000, Note_off_c, 4, 70, 79
4, 450000, Note_off_c, 4, 65, 79
4, 450000, Note_on_c, 4, 77, 79
4, 450000, Note_on_c, 4, 70, 79
4, 450000, Note_on_c, 4, 65, 79
4, 450240, Note_off_c, 4, 77, 79
4, 450240, Note_off_c, 4, 70, 79
4, 450240, Note_off_c, 4, 65, 79
4, 450720, Note_on_c, 4, 76, 79
4, 450720, Note_on_c, 4, 70, 79
4, 450720, Note_on_c, 4, 65, 79
4, 451200, Note_off_c, 4, 76, 79
4, 451200, Note_off_c, 4, 70, 79
4, 451200, Note_off_c, 4, 65, 79
4, 451200, Note_on_c, 4, 64, 95
4, 451200, Note_on_c, 4, 59, 95
4, 451200, Note_on_c, 4, 55, 95
4, 451261, Note_off_c, 4, 64, 95
4, 451261, Note_off_c, 4, 59, 95
4, 451261, Note_off_c, 4, 55, 95
4, 451440, Note_on_c, 4, 76, 79
4, 451440, Note_on_c, 4, 70, 79
4, 451440, Note_on_c, 4, 65, 79
4, 451680, Note_off_c, 4, 76, 79
4, 451680, Note_off_c, 4, 70, 79
4, 451680, Note_off_c, 4, 65, 79
4, 451680, Note_on_c, 4, 64, 95
4, 451680, Note_on_c, 4, 59, 95
4, 451680, Note_on_c, 4, 55, 95
4, 451741, Note_off_c, 4, 64, 95
4, 451741, Note_off_c, 4, 59, 95
4, 451741, Note_off_c, 4, 55, 95
4, 451920, Note_on_c, 4, 64, 95
4, 451920, Note_on_c, 4, 59, 95
4, 451920, Note_on_c, 4, 55, 95
4, 451981, Note_off_c, 4, 64, 95
4, 451981, Note_off_c, 4, 59, 95
4, 451981, Note_off_c, 4, 55, 95
4, 452160, Note_on_c, 4, 76, 79
4, 452160, Note_on_c, 4, 70, 79
4, 452160, Note_on_c, 4, 65, 79
4, 452400, Note_off_c, 4, 76, 79
4, 452400, Note_off_c, 4, 70, 79
4, 452400, Note_off_c, 4, 65, 79
4, 452400, Note_on_c, 4, 76, 79
4, 452400, Note_on_c, 4, 70, 79
4, 452400, Note_on_c, 4, 65, 79
4, 452640, Note_off_c, 4, 76, 79
4, 452640, Note_off_c, 4, 70, 79
4, 452640, Note_off_c, 4, 65, 79
4, 453120, Note_on_c, 4, 74, 79
4, 453120, Note_on_c, 4, 70, 79
4, 453120, Note_on_c, 4, 65, 79
4, 453840, Note_off_c, 4, 74, 79
4, 453840, Note_off_c, 4, 70, 79
4, 453840, Note_off_c, 4, 65, 79
4, 453840, Note_on_c, 4, 74, 79
4, 453840, Note_on_c, 4, 70, 79
4, 453840, Note_on_c, 4, 65, 79
4, 454080, Note_off_c, 4, 74, 79
4, 454080, Note_off_c, 4, 70, 79
4, 454080, Note_off_c, 4, 65, 79
4, 454080, Note_on_c, 4, 64, 95
4, 454080, Note_on_c, 4, 59, 95
4, 454080, Note_on_c, 4, 55, 95
4, 454141, Note_off_c, 4, 64, 95
4, 454141, Note_off_c, 4, 59, 95
4, 454141, Note_off_c, 4, 55, 95
4, 454560, Note_on_c, 4, 64, 95
4, 454560, Note_on_c, 4, 59, 95
4, 454560, Note_on_c, 4, 55, 95
4, 454621, Note_off_c, 4, 64, 95
4, 454621, Note_off_c, 4, 59, 95
4, 454621, Note_off_c, 4, 55, 95
4, 454800, Note_on_c, 4, 64, 95
4, 454800, Note_on_c, 4, 59, 95
4, 454800, Note_on_c, 4, 55, 95
4, 454861, Note_off_c, 4, 64, 95
4, 454861, Note_off_c, 4, 59, 95
4, 454861, Note_off_c, 4, 55, 95
4, 455040, Note_on_c, 4, 64, 95
4, 455040, Note_on_c, 4, 59, 95
4, 455040, Note_on_c, 4, 55, 95
4, 455101, Note_off_c, 4, 64, 95
4, 455101, Note_off_c, 4, 59, 95
4, 455101, Note_off_c, 4, 55, 95
4, 455280, Note_on_c, 4, 74, 79
4, 455280, Note_on_c, 4, 70, 79
4, 455280, Note_on_c, 4, 65, 79
4, 455520, Note_off_c, 4, 74, 79
4, 455520, Note_off_c, 4, 70, 79
4, 455520, Note_off_c, 4, 65, 79
4, 455520, Note_on_c, 4, 64, 95
4, 455520, Note_on_c, 4, 59, 95
4, 455520, Note_on_c, 4, 55, 95
4, 455581, Note_off_c, 4, 64, 95
4, 455581, Note_off_c, 4, 59, 95
4, 455581, Note_off_c, 4, 55, 95
4, 455760, Note_on_c, 4, 64, 95
4, 455760, Note_on_c, 4, 59, 95
4, 455760, Note_on_c, 4, 55, 95
4, 455821, Note_off_c, 4, 64, 95
4, 455821, Note_off_c, 4, 59, 95
4, 455821, Note_off_c, 4, 55, 95
4, 456000, Note_on_c, 4, 74, 79
4, 456000, Note_on_c, 4, 70, 79
4, 456000, Note_on_c, 4, 65, 79
4, 456240, Note_off_c, 4, 74, 79
4, 456240, Note_off_c, 4, 70, 79
4, 456240, Note_off_c, 4, 65, 79
4, 456240, Note_on_c, 4, 74, 79
4, 456240, Note_on_c, 4, 70, 79
4, 456240, Note_on_c, 4, 65, 79
4, 456480, Note_off_c, 4, 74, 79
4, 456480, Note_off_c, 4, 70, 79
4, 456480, Note_off_c, 4, 65, 79
4, 456480, Note_on_c, 4, 64, 95
4, 456480, Note_on_c, 4, 59, 95
4, 456480, Note_on_c, 4, 55, 95
4, 456541, Note_off_c, 4, 64, 95
4, 456541, Note_off_c, 4, 59, 95
4, 456541, Note_off_c, 4, 55, 95
4, 456720, Note_on_c, 4, 64, 95
4, 456720, Note_on_c, 4, 59, 95
4, 456720, Note_on_c, 4, 55, 95
4, 456781, Note_off_c, 4, 64, 95
4, 456781, Note_off_c, 4, 59, 95
4, 456781, Note_off_c, 4, 55, 95
4, 456960, Note_on_c, 4, 74, 79
4, 456960, Note_on_c, 4, 70, 79
4, 456960, Note_on_c, 4, 65, 79
4, 457680, Note_off_c, 4, 74, 79
4, 457680, Note_off_c, 4, 70, 79
4, 457680, Note_off_c, 4, 65, 79
4, 457680, Note_on_c, 4, 74, 79
4, 457680, Note_on_c, 4, 70, 79
4, 457680, Note_on_c, 4, 65, 79
4, 457920, Note_off_c, 4, 74, 79
4, 457920, Note_off_c, 4, 70, 79
4, 457920, Note_off_c, 4, 65, 79
4, 457920, Note_on_c, 4, 64, 95
4, 457920, Note_on_c, 4, 59, 95
4, 457920, Note_on_c, 4, 55, 95
4, 457981, Note_off_c, 4, 64, 95
4, 457981, Note_off_c, 4, 59, 95
4, 457981, Note_off_c, 4, 55, 95
4, 458400, Note_on_c, 4, 64, 95
4, 458400, Note_on_c, 4, 59, 95
4, 458400, Note_on_c, 4, 55, 95
4, 458461, Note_off_c, 4, 64, 95
4, 458461, Note_off_c, 4, 59, 95
4, 458461, Note_off_c, 4, 55, 95
4, 458640, Note_on_c, 4, 64, 95
4, 458640, Note_on_c, 4, 59, 95
4, 458640, Note_on_c, 4, 55, 95
4, 458701, Note_off_c, 4, 64, 95
4, 458701, Note_off_c, 4, 59, 95
4, 458701, Note_off_c, 4, 55, 95
4, 458880, Note_on_c, 4, 64, 95
4, 458880, Note_on_c, 4, 59, 95
4, 458880, Note_on_c, 4, 55, 95
4, 458941, Note_off_c, 4, 64, 95
4, 458941, Note_off_c, 4, 59, 95
4, 458941, Note_off_c, 4, 55, 95
4, 459120, Note_on_c, 4, 74, 79
4, 459120, Note_on_c, 4, 70, 79
4, 459120, Note_on_c, 4, 65, 79
4, 459360, Note_off_c, 4, 74, 79
4, 459360, Note_off_c, 4, 70, 79
4, 459360, Note_off_c, 4, 65, 79
4, 459840, Note_on_c, 4, 74, 79
4, 459840, Note_on_c, 4, 70, 79
4, 459840, Note_on_c, 4, 65, 79
4, 460080, Note_off_c, 4, 74, 79
4, 460080, Note_off_c, 4, 70, 79
4, 460080, Note_off_c, 4, 65, 79
4, 460080, Note_on_c, 4, 74, 79
4, 460080, Note_on_c, 4, 70, 79
4, 460080, Note_on_c, 4, 65, 79
4, 460320, Note_off_c, 4, 74, 79
4, 460320, Note_off_c, 4, 70, 79
4, 460320, Note_off_c, 4, 65, 79
4, 460320, Note_on_c, 4, 74, 79
4, 460320, Note_on_c, 4, 70, 79
4, 460320, Note_on_c, 4, 65, 79
4, 460800, Note_off_c, 4, 74, 79
4, 460800, Note_off_c, 4, 70, 79
4, 460800, Note_off_c, 4, 65, 79
4, 460800, Note_on_c, 4, 74, 79
4, 460800, Note_on_c, 4, 70, 79
4, 460800, Note_on_c, 4, 65, 79
4, 461520, Note_off_c, 4, 74, 79
4, 461520, Note_off_c, 4, 70, 79
4, 461520, Note_off_c, 4, 65, 79
4, 461520, Note_on_c, 4, 74, 79
4, 461520, Note_on_c, 4, 70, 79
4, 461520, Note_on_c, 4, 65, 79
4, 461760, Note_off_c, 4, 74, 79
4, 461760, Note_off_c, 4, 70, 79
4, 461760, Note_off_c, 4, 65, 79
4, 461760, Note_on_c, 4, 64, 95
4, 461760, Note_on_c, 4, 59, 95
4, 461760, Note_on_c, 4, 55, 95
4, 461821, Note_off_c, 4, 64, 95
4, 461821, Note_off_c, 4, 59, 95
4, 461821, Note_off_c, 4, 55, 95
4, 462240, Note_on_c, 4, 64, 95
4, 462240, Note_on_c, 4, 59, 95
4, 462240, Note_on_c, 4, 55, 95
4, 462301, Note_off_c, 4, 64, 95
4, 462301, Note_off_c, 4, 59, 95
4, 462301, Note_off_c, 4, 55, 95
4, 462480, Note_on_c, 4, 64, 95
4, 462480, Note_on_c, 4, 59, 95
4, 462480, Note_on_c, 4, 55, 95
4, 462541, Note_off_c, 4, 64, 95
4, 462541, Note_off_c, 4, 59, 95
4, 462541, Note_off_c, 4, 55, 95
4, 462720, Note_on_c, 4, 74, 79
4, 462720, Note_on_c, 4, 70, 79
4, 462720, Note_on_c, 4, 65, 79
4, 462960, Note_off_c, 4, 74, 79
4, 462960, Note_off_c, 4, 70, 79
4, 462960, Note_off_c, 4, 65, 79
4, 462960, Note_on_c, 4, 74, 79
4, 462960, Note_on_c, 4, 70, 79
4, 462960, Note_on_c, 4, 65, 79
4, 463200, Note_off_c, 4, 74, 79
4, 463200, Note_off_c, 4, 70, 79
4, 463200, Note_off_c, 4, 65, 79
4, 463200, Note_on_c, 4, 64, 95
4, 463200, Note_on_c, 4, 59, 95
4, 463200, Note_on_c, 4, 55, 95
4, 463261, Note_off_c, 4, 64, 95
4, 463261, Note_off_c, 4, 59, 95
4, 463261, Note_off_c, 4, 55, 95
4, 463680, Note_on_c, 4, 74, 79
4, 463680, Note_on_c, 4, 70, 79
4, 463680, Note_on_c, 4, 65, 79
4, 464160, Note_off_c, 4, 74, 79
4, 464160, Note_off_c, 4, 70, 79
4, 464160, Note_off_c, 4, 65, 79
4, 464160, Note_on_c, 4, 70, 79
4, 464160, Note_on_c, 4, 65, 79
4, 464640, Note_off_c, 4, 70, 79
4, 464640, Note_off_c, 4, 65, 79
4, 464640, Note_on_c, 4, 77, 79
4, 464640, Note_on_c, 4, 70, 79
4, 464640, Note_on_c, 4, 65, 79
4, 465120, Note_off_c, 4, 77, 79
4, 465120, Note_off_c, 4, 70, 79
4, 465120, Note_off_c, 4, 65, 79
4, 465120, Note_on_c, 4, 77, 79
4, 465120, Note_on_c, 4, 70, 79
4, 465120, Note_on_c, 4, 65, 79
4, 465360, Note_off_c, 4, 77, 79
4, 465360, Note_off_c, 4, 70, 79
4, 465360, Note_off_c, 4, 65, 79
4, 465360, Note_on_c, 4, 77, 79
4, 465360, Note_on_c, 4, 70, 79
4, 465360, Note_on_c, 4, 65, 79
4, 465600, Note_off_c, 4, 77, 79
4, 465600, Note_off_c, 4, 70, 79
4, 465600, Note_off_c, 4, 65, 79
4, 466080, Note_on_c, 4, 76, 79
4, 466080, Note_on_c, 4, 70, 79
4, 466080, Note_on_c, 4, 65, 79
4, 466560, Note_off_c, 4, 76, 79
4, 466560, Note_off_c, 4, 70, 79
4, 466560, Note_off_c, 4, 65, 79
4, 466560, Note_on_c, 4, 64, 95
4, 466560, Note_on_c, 4, 59, 95
4, 466560, Note_on_c, 4, 55, 95
4, 466621, Note_off_c, 4, 64, 95
4, 466621, Note_off_c, 4, 59, 95
4, 466621, Note_off_c, 4, 55, 95
4, 466800, Note_on_c, 4, 76, 79
4, 466800, Note_on_c, 4, 70, 79
4, 466800, Note_on_c, 4, 65, 79
4, 467040, Note_off_c, 4, 76, 79
4, 467040, Note_off_c, 4, 70, 79
4, 467040, Note_off_c, 4, 65, 79
4, 467040, Note_on_c, 4, 64, 95
4, 467040, Note_on_c, 4, 59, 95
4, 467040, Note_on_c, 4, 55, 95
4, 467101, Note_off_c, 4, 64, 95
4, 467101, Note_off_c, 4, 59, 95
4, 467101, Note_off_c, 4, 55, 95
4, 467280, Note_on_c, 4, 64, 95
4, 467280, Note_on_c, 4, 59, 95
4, 467280, Note_on_c, 4, 55, 95
4, 467341, Note_off_c, 4, 64, 95
4, 467341, Note_off_c, 4, 59, 95
4, 467341, Note_off_c, 4, 55, 95
4, 467520, Note_on_c, 4, 76, 79
4, 467520, Note_on_c, 4, 70, 79
4, 467520, Note_on_c, 4, 65, 79
4, 467760, Note_off_c, 4, 76, 79
4, 467760, Note_off_c, 4, 70, 79
4, 467760, Note_off_c, 4, 65, 79
4, 467760, Note_on_c, 4, 76, 79
4, 467760, Note_on_c, 4, 70, 79
4, 467760, Note_on_c, 4, 65, 79
4, 468000, Note_off_c, 4, 76, 79
4, 468000, Note_off_c, 4, 70, 79
4, 468000, Note_off_c, 4, 65, 79
4, 468480, Note_on_c, 4, 74, 79
4, 468480, Note_on_c, 4, 70, 79
4, 468480, Note_on_c, 4, 65, 79
4, 469200, Note_off_c, 4, 74, 79
4, 469200, Note_off_c, 4, 70, 79
4, 469200, Note_off_c, 4, 65, 79
4, 469200, Note_on_c, 4, 74, 79
4, 469200, Note_on_c, 4, 70, 79
4, 469200, Note_on_c, 4, 65, 79
4, 469440, Note_off_c, 4, 74, 79
4, 469440, Note_off_c, 4, 70, 79
4, 469440, Note_off_c, 4, 65, 79
4, 469440, Note_on_c, 4, 64, 95
4, 469440, Note_on_c, 4, 59, 95
4, 469440, Note_on_c, 4, 55, 95
4, 469501, Note_off_c, 4, 64, 95
4, 469501, Note_off_c, 4, 59, 95
4, 469501, Note_off_c, 4, 55, 95
4, 469920, Note_on_c, 4, 64, 95
4, 469920, Note_on_c, 4, 59, 95
4, 469920, Note_on_c, 4, 55, 95
4, 469981, Note_off_c, 4, 64, 95
4, 469981, Note_off_c, 4, 59, 95
4, 469981, Note_off_c, 4, 55, 95
4, 470160, Note_on_c, 4, 64, 95
4, 470160, Note_on_c, 4, 59, 95
4, 470160, Note_on_c, 4, 55, 95
4, 470221, Note_off_c, 4, 64, 95
4, 470221, Note_off_c, 4, 59, 95
4, 470221, Note_off_c, 4, 55, 95
4, 470400, Note_on_c, 4, 64, 95
4, 470400, Note_on_c, 4, 59, 95
4, 470400, Note_on_c, 4, 55, 95
4, 470461, Note_off_c, 4, 64, 95
4, 470461, Note_off_c, 4, 59, 95
4, 470461, Note_off_c, 4, 55, 95
4, 470640, Note_on_c, 4, 74, 79
4, 470640, Note_on_c, 4, 70, 79
4, 470640, Note_on_c, 4, 65, 79
4, 470880, Note_off_c, 4, 74, 79
4, 470880, Note_off_c, 4, 70, 79
4, 470880, Note_off_c, 4, 65, 79
4, 470880, Note_on_c, 4, 64, 95
4, 470880, Note_on_c, 4, 59, 95
4, 470880, Note_on_c, 4, 55, 95
4, 470941, Note_off_c, 4, 64, 95
4, 470941, Note_off_c, 4, 59, 95
4, 470941, Note_off_c, 4, 55, 95
4, 471120, Note_on_c, 4, 64, 95
4, 471120, Note_on_c, 4, 59, 95
4, 471120, Note_on_c, 4, 55, 95
4, 471181, Note_off_c, 4, 64, 95
4, 471181, Note_off_c, 4, 59, 95
4, 471181, Note_off_c, 4, 55, 95
4, 471360, Note_on_c, 4, 74, 79
4, 471360, Note_on_c, 4, 70, 79
4, 471360, Note_on_c, 4, 65, 79
4, 471600, Note_off_c, 4, 74, 79
4, 471600, Note_off_c, 4, 70, 79
4, 471600, Note_off_c, 4, 65, 79
4, 471600, Note_on_c, 4, 74, 79
4, 471600, Note_on_c, 4, 70, 79
4, 471600, Note_on_c, 4, 65, 79
4, 471840, Note_off_c, 4, 74, 79
4, 471840, Note_off_c, 4, 70, 79
4, 471840, Note_off_c, 4, 65, 79
4, 471840, Note_on_c, 4, 64, 95
4, 471840, Note_on_c, 4, 59, 95
4, 471840, Note_on_c, 4, 55, 95
4, 471901, Note_off_c, 4, 64, 95
4, 471901, Note_off_c, 4, 59, 95
4, 471901, Note_off_c, 4, 55, 95
4, 472080, Note_on_c, 4, 64, 95
4, 472080, Note_on_c, 4, 59, 95
4, 472080, Note_on_c, 4, 55, 95
4, 472141, Note_off_c, 4, 64, 95
4, 472141, Note_off_c, 4, 59, 95
4, 472141, Note_off_c, 4, 55, 95
4, 472320, Note_on_c, 4, 74, 79
4, 472320, Note_on_c, 4, 70, 79
4, 472320, Note_on_c, 4, 65, 79
4, 473040, Note_off_c, 4, 74, 79
4, 473040, Note_off_c, 4, 70, 79
4, 473040, Note_off_c, 4, 65, 79
4, 473040, Note_on_c, 4, 74, 79
4, 473040, Note_on_c, 4, 70, 79
4, 473040, Note_on_c, 4, 65, 79
4, 473280, Note_off_c, 4, 74, 79
4, 473280, Note_off_c, 4, 70, 79
4, 473280, Note_off_c, 4, 65, 79
4, 473280, Note_on_c, 4, 64, 95
4, 473280, Note_on_c, 4, 59, 95
4, 473280, Note_on_c, 4, 55, 95
4, 473341, Note_off_c, 4, 64, 95
4, 473341, Note_off_c, 4, 59, 95
4, 473341, Note_off_c, 4, 55, 95
4, 473760, Note_on_c, 4, 64, 95
4, 473760, Note_on_c, 4, 59, 95
4, 473760, Note_on_c, 4, 55, 95
4, 473821, Note_off_c, 4, 64, 95
4, 473821, Note_off_c, 4, 59, 95
4, 473821, Note_off_c, 4, 55, 95
4, 474000, Note_on_c, 4, 64, 95
4, 474000, Note_on_c, 4, 59, 95
4, 474000, Note_on_c, 4, 55, 95
4, 474061, Note_off_c, 4, 64, 95
4, 474061, Note_off_c, 4, 59, 95
4, 474061, Note_off_c, 4, 55, 95
4, 474240, Note_on_c, 4, 64, 95
4, 474240, Note_on_c, 4, 59, 95
4, 474240, Note_on_c, 4, 55, 95
4, 474301, Note_off_c, 4, 64, 95
4, 474301, Note_off_c, 4, 59, 95
4, 474301, Note_off_c, 4, 55, 95
4, 474480, Note_on_c, 4, 74, 79
4, 474480, Note_on_c, 4, 70, 79
4, 474480, Note_on_c, 4, 65, 79
4, 474720, Note_off_c, 4, 74, 79
4, 474720, Note_off_c, 4, 70, 79
4, 474720, Note_off_c, 4, 65, 79
4, 475200, Note_on_c, 4, 74, 79
4, 475200, Note_on_c, 4, 70, 79
4, 475200, Note_on_c, 4, 65, 79
4, 475440, Note_off_c, 4, 74, 79
4, 475440, Note_off_c, 4, 70, 79
4, 475440, Note_off_c, 4, 65, 79
4, 475440, Note_on_c, 4, 74, 79
4, 475440, Note_on_c, 4, 70, 79
4, 475440, Note_on_c, 4, 65, 79
4, 475680, Note_off_c, 4, 74, 79
4, 475680, Note_off_c, 4, 70, 79
4, 475680, Note_off_c, 4, 65, 79
4, 475680, Note_on_c, 4, 74, 79
4, 475680, Note_on_c, 4, 70, 79
4, 475680, Note_on_c, 4, 65, 79
4, 476160, Note_off_c, 4, 74, 79
4, 476160, Note_off_c, 4, 70, 79
4, 476160, Note_off_c, 4, 65, 79
4, 476160, Note_on_c, 4, 74, 79
4, 476160, Note_on_c, 4, 70, 79
4, 476160, Note_on_c, 4, 65, 79
4, 476880, Note_off_c, 4, 74, 79
4, 476880, Note_off_c, 4, 70, 79
4, 476880, Note_off_c, 4, 65, 79
4, 476880, Note_on_c, 4, 74, 79
4, 476880, Note_on_c, 4, 70, 79
4, 476880, Note_on_c, 4, 65, 79
4, 477120, Note_off_c, 4, 74, 79
4, 477120, Note_off_c, 4, 70, 79
4, 477120, Note_off_c, 4, 65, 79
4, 477120, Note_on_c, 4, 64, 95
4, 477120, Note_on_c, 4, 59, 95
4, 477120, Note_on_c, 4, 55, 95
4, 477181, Note_off_c, 4, 64, 95
4, 477181, Note_off_c, 4, 59, 95
4, 477181, Note_off_c, 4, 55, 95
4, 477600, Note_on_c, 4, 64, 95
4, 477600, Note_on_c, 4, 59, 95
4, 477600, Note_on_c, 4, 55, 95
4, 477661, Note_off_c, 4, 64, 95
4, 477661, Note_off_c, 4, 59, 95
4, 477661, Note_off_c, 4, 55, 95
4, 477840, Note_on_c, 4, 64, 95
4, 477840, Note_on_c, 4, 59, 95
4, 477840, Note_on_c, 4, 55, 95
4, 477901, Note_off_c, 4, 64, 95
4, 477901, Note_off_c, 4, 59, 95
4, 477901, Note_off_c, 4, 55, 95
4, 478080, Note_on_c, 4, 74, 79
4, 478080, Note_on_c, 4, 70, 79
4, 478080, Note_on_c, 4, 65, 79
4, 478320, Note_off_c, 4, 74, 79
4, 478320, Note_off_c, 4, 70, 79
4, 478320, Note_off_c, 4, 65, 79
4, 478320, Note_on_c, 4, 74, 79
4, 478320, Note_on_c, 4, 70, 79
4, 478320, Note_on_c, 4, 65, 79
4, 478560, Note_off_c, 4, 74, 79
4, 478560, Note_off_c, 4, 70, 79
4, 478560, Note_off_c, 4, 65, 79
4, 478560, Note_on_c, 4, 64, 95
4, 478560, Note_on_c, 4, 59, 95
4, 478560, Note_on_c, 4, 55, 95
4, 478621, Note_off_c, 4, 64, 95
4, 478621, Note_off_c, 4, 59, 95
4, 478621, Note_off_c, 4, 55, 95
4, 479040, Note_on_c, 4, 74, 79
4, 479040, Note_on_c, 4, 70, 79
4, 479040, Note_on_c, 4, 65, 79
4, 479520, Note_off_c, 4, 74, 79
4, 479520, Note_off_c, 4, 70, 79
4, 479520, Note_off_c, 4, 65, 79
4, 479520, Note_on_c, 4, 70, 79
4, 479520, Note_on_c, 4, 65, 79
4, 480000, Note_off_c, 4, 70, 79
4, 480000, Note_off_c, 4, 65, 79
4, 480000, Note_on_c, 4, 77, 79
4, 480000, Note_on_c, 4, 70, 79
4, 480000, Note_on_c, 4, 65, 79
4, 480480, Note_off_c, 4, 77, 79
4, 480480, Note_off_c, 4, 70, 79
4, 480480, Note_off_c, 4, 65, 79
4, 480480, Note_on_c, 4, 77, 79
4, 480480, Note_on_c, 4, 70, 79
4, 480480, Note_on_c, 4, 65, 79
4, 480720, Note_off_c, 4, 77, 79
4, 480720, Note_off_c, 4, 70, 79
4, 480720, Note_off_c, 4, 65, 79
4, 480720, Note_on_c, 4, 77, 79
4, 480720, Note_on_c, 4, 70, 79
4, 480720, Note_on_c, 4, 65, 79
4, 480960, Note_off_c, 4, 77, 79
4, 480960, Note_off_c, 4, 70, 79
4, 480960, Note_off_c, 4, 65, 79
4, 481440, Note_on_c, 4, 76, 79
4, 481440, Note_on_c, 4, 70, 79
4, 481440, Note_on_c, 4, 65, 79
4, 481920, Note_off_c, 4, 76, 79
4, 481920, Note_off_c, 4, 70, 79
4, 481920, Note_off_c, 4, 65, 79
4, 481920, Note_on_c, 4, 64, 95
4, 481920, Note_on_c, 4, 59, 95
4, 481920, Note_on_c, 4, 55, 95
4, 481981, Note_off_c, 4, 64, 95
4, 481981, Note_off_c, 4, 59, 95
4, 481981, Note_off_c, 4, 55, 95
4, 482160, Note_on_c, 4, 76, 79
4, 482160, Note_on_c, 4, 70, 79
4, 482160, Note_on_c, 4, 65, 79
4, 482400, Note_off_c, 4, 76, 79
4, 482400, Note_off_c, 4, 70, 79
4, 482400, Note_off_c, 4, 65, 79
4, 482400, Note_on_c, 4, 64, 95
4, 482400, Note_on_c, 4, 59, 95
4, 482400, Note_on_c, 4, 55, 95
4, 482461, Note_off_c, 4, 64, 95
4, 482461, Note_off_c, 4, 59, 95
4, 482461, Note_off_c, 4, 55, 95
4, 482640, Note_on_c, 4, 64, 95
4, 482640, Note_on_c, 4, 59, 95
4, 482640, Note_on_c, 4, 55, 95
4, 482701, Note_off_c, 4, 64, 95
4, 482701, Note_off_c, 4, 59, 95
4, 482701, Note_off_c, 4, 55, 95
4, 482880, Note_on_c, 4, 76, 79
4, 482880, Note_on_c, 4, 70, 79
4, 482880, Note_on_c, 4, 65, 79
4, 483120, Note_off_c, 4, 76, 79
4, 483120, Note_off_c, 4, 70, 79
4, 483120, Note_off_c, 4, 65, 79
4, 483120, Note_on_c, 4, 76, 79
4, 483120, Note_on_c, 4, 70, 79
4, 483120, Note_on_c, 4, 65, 79
4, 483360, Note_off_c, 4, 76, 79
4, 483360, Note_off_c, 4, 70, 79
4, 483360, Note_off_c, 4, 65, 79
4, 483840, Note_on_c, 4, 74, 79
4, 483840, Note_on_c, 4, 70, 79
4, 483840, Note_on_c, 4, 65, 79
4, 484560, Note_off_c, 4, 74, 79
4, 484560, Note_off_c, 4, 70, 79
4, 484560, Note_off_c, 4, 65, 79
4, 484560, Note_on_c, 4, 74, 79
4, 484560, Note_on_c, 4, 70, 79
4, 484560, Note_on_c, 4, 65, 79
4, 484800, Note_off_c, 4, 74, 79
4, 484800, Note_off_c, 4, 70, 79
4, 484800, Note_off_c, 4, 65, 79
4, 484800, Note_on_c, 4, 64, 95
4, 484800, Note_on_c, 4, 59, 95
4, 484800, Note_on_c, 4, 55, 95
4, 484861, Note_off_c, 4, 64, 95
4, 484861, Note_off_c, 4, 59, 95
4, 484861, Note_off_c, 4, 55, 95
4, 485280, Note_on_c, 4, 64, 95
4, 485280, Note_on_c, 4, 59, 95
4, 485280, Note_on_c, 4, 55, 95
4, 485341, Note_off_c, 4, 64, 95
4, 485341, Note_off_c, 4, 59, 95
4, 485341, Note_off_c, 4, 55, 95
4, 485520, Note_on_c, 4, 64, 95
4, 485520, Note_on_c, 4, 59, 95
4, 485520, Note_on_c, 4, 55, 95
4, 485581, Note_off_c, 4, 64, 95
4, 485581, Note_off_c, 4, 59, 95
4, 485581, Note_off_c, 4, 55, 95
4, 485760, Note_on_c, 4, 64, 95
4, 485760, Note_on_c, 4, 59, 95
4, 485760, Note_on_c, 4, 55, 95
4, 485821, Note_off_c, 4, 64, 95
4, 485821, Note_off_c, 4, 59, 95
4, 485821, Note_off_c, 4, 55, 95
4, 486000, Note_on_c, 4, 74, 79
4, 486000, Note_on_c, 4, 70, 79
4, 486000, Note_on_c, 4, 65, 79
4, 486240, Note_off_c, 4, 74, 79
4, 486240, Note_off_c, 4, 70, 79
4, 486240, Note_off_c, 4, 65, 79
4, 486240, Note_on_c, 4, 64, 95
4, 486240, Note_on_c, 4, 59, 95
4, 486240, Note_on_c, 4, 55, 95
4, 486301, Note_off_c, 4, 64, 95
4, 486301, Note_off_c, 4, 59, 95
4, 486301, Note_off_c, 4, 55, 95
4, 486480, Note_on_c, 4, 64, 95
4, 486480, Note_on_c, 4, 59, 95
4, 486480, Note_on_c, 4, 55, 95
4, 486541, Note_off_c, 4, 64, 95
4, 486541, Note_off_c, 4, 59, 95
4, 486541, Note_off_c, 4, 55, 95
4, 486720, Note_on_c, 4, 74, 79
4, 486720, Note_on_c, 4, 70, 79
4, 486720, Note_on_c, 4, 65, 79
4, 486960, Note_off_c, 4, 74, 79
4, 486960, Note_off_c, 4, 70, 79
4, 486960, Note_off_c, 4, 65, 79
4, 486960, Note_on_c, 4, 74, 79
4, 486960, Note_on_c, 4, 70, 79
4, 486960, Note_on_c, 4, 65, 79
4, 487200, Note_off_c, 4, 74, 79
4, 487200, Note_off_c, 4, 70, 79
4, 487200, Note_off_c, 4, 65, 79
4, 487200, Note_on_c, 4, 64, 95
4, 487200, Note_on_c, 4, 59, 95
4, 487200, Note_on_c, 4, 55, 95
4, 487261, Note_off_c, 4, 64, 95
4, 487261, Note_off_c, 4, 59, 95
4, 487261, Note_off_c, 4, 55, 95
4, 487440, Note_on_c, 4, 64, 95
4, 487440, Note_on_c, 4, 59, 95
4, 487440, Note_on_c, 4, 55, 95
4, 487501, Note_off_c, 4, 64, 95
4, 487501, Note_off_c, 4, 59, 95
4, 487501, Note_off_c, 4, 55, 95
4, 487680, Note_on_c, 4, 74, 79
4, 487680, Note_on_c, 4, 70, 79
4, 487680, Note_on_c, 4, 65, 79
4, 488400, Note_off_c, 4, 74, 79
4, 488400, Note_off_c, 4, 70, 79
4, 488400, Note_off_c, 4, 65, 79
4, 488400, Note_on_c, 4, 74, 79
4, 488400, Note_on_c, 4, 70, 79
4, 488400, Note_on_c, 4, 65, 79
4, 488640, Note_off_c, 4, 74, 79
4, 488640, Note_off_c, 4, 70, 79
4, 488640, Note_off_c, 4, 65, 79
4, 488640, Note_on_c, 4, 64, 95
4, 488640, Note_on_c, 4, 59, 95
4, 488640, Note_on_c, 4, 55, 95
4, 488701, Note_off_c, 4, 64, 95
4, 488701, Note_off_c, 4, 59, 95
4, 488701, Note_off_c, 4, 55, 95
4, 489120, Note_on_c, 4, 64, 95
4, 489120, Note_on_c, 4, 59, 95
4, 489120, Note_on_c, 4, 55, 95
4, 489181, Note_off_c, 4, 64, 95
4, 489181, Note_off_c, 4, 59, 95
4, 489181, Note_off_c, 4, 55, 95
4, 489360, Note_on_c, 4, 64, 95
4, 489360, Note_on_c, 4, 59, 95
4, 489360, Note_on_c, 4, 55, 95
4, 489421, Note_off_c, 4, 64, 95
4, 489421, Note_off_c, 4, 59, 95
4, 489421, Note_off_c, 4, 55, 95
4, 489600, Note_on_c, 4, 64, 95
4, 489600, Note_on_c, 4, 59, 95
4, 489600, Note_on_c, 4, 55, 95
4, 489661, Note_off_c, 4, 64, 95
4, 489661, Note_off_c, 4, 59, 95
4, 489661, Note_off_c, 4, 55, 95
4, 489840, Note_on_c, 4, 74, 79
4, 489840, Note_on_c, 4, 70, 79
4, 489840, Note_on_c, 4, 65, 79
4, 490080, Note_off_c, 4, 74, 79
4, 490080, Note_off_c, 4, 70, 79
4, 490080, Note_off_c, 4, 65, 79
4, 490560, Note_on_c, 4, 74, 79
4, 490560, Note_on_c, 4, 70, 79
4, 490560, Note_on_c, 4, 65, 79
4, 490800, Note_off_c, 4, 74, 79
4, 490800, Note_off_c, 4, 70, 79
4, 490800, Note_off_c, 4, 65, 79
4, 490800, Note_on_c, 4, 74, 79
4, 490800, Note_on_c, 4, 70, 79
4, 490800, Note_on_c, 4, 65, 79
4, 491040, Note_off_c, 4, 74, 79
4, 491040, Note_off_c, 4, 70, 79
4, 491040, Note_off_c, 4, 65, 79
4, 491040, Note_on_c, 4, 74, 79
4, 491040, Note_on_c, 4, 70, 79
4, 491040, Note_on_c, 4, 65, 79
4, 491520, Note_off_c, 4, 74, 79
4, 491520, Note_off_c, 4, 70, 79
4, 491520, Note_off_c, 4, 65, 79
4, 491520, End_track
5, 0, Start_track
5, 0, Pitch_bend_c, 6, 8192
5, 0, Control_c, 6, 7, 111
5, 0, Control_c, 6, 10, 63
5, 0, Control_c, 6, 93, 0
5, 0, Control_c, 6, 91, 0
5, 0, Control_c, 6, 95, 0
5, 0, Control_c, 6, 92, 0
5, 0, Control_c, 6, 11, 127
5, 0, Program_c, 6, 30
5, 0, Control_c, 7, 7, 111
5, 0, Control_c, 7, 10, 63
5, 0, Control_c, 7, 93, 0
5, 0, Control_c, 7, 91, 0
5, 0, Control_c, 7, 95, 0
5, 0, Control_c, 7, 92, 0
5, 0, Control_c, 7, 11, 127
5, 0, Program_c, 7, 30
5, 2280, Note_on_c, 7, 65, 95
5, 2400, Note_off_c, 7, 65, 95
5, 2400, Note_on_c, 7, 67, 95
5, 2560, Pitch_bend_c, 7, 8192
5, 2720, Pitch_bend_c, 7, 8320
5, 2880, Pitch_bend_c, 7, 8192
5, 3040, Pitch_bend_c, 7, 8320
5, 3200, Pitch_bend_c, 7, 8192
5, 3360, Pitch_bend_c, 7, 8320
5, 3520, Pitch_bend_c, 7, 8192
5, 3680, Pitch_bend_c, 7, 8320
5, 3840, Pitch_bend_c, 7, 8192
5, 4000, Pitch_bend_c, 7, 8320
5, 4160, Pitch_bend_c, 7, 8192
5, 4320, Pitch_bend_c, 7, 8320
5, 4480, Pitch_bend_c, 7, 8192
5, 4640, Pitch_bend_c, 7, 8320
5, 4800, Pitch_bend_c, 7, 8192
5, 4960, Pitch_bend_c, 7, 8320
5, 5120, Pitch_bend_c, 7, 8192
5, 5280, Pitch_bend_c, 7, 8320
5, 5440, Pitch_bend_c, 7, 8192
5, 5600, Pitch_bend_c, 7, 8320
5, 5760, Pitch_bend_c, 7, 8192
5, 5920, Pitch_bend_c, 7, 8320
5, 6080, Pitch_bend_c, 7, 8192
5, 6240, Pitch_bend_c, 7, 8320
5, 6240, Pitch_bend_c, 7, 8192
5, 6240, Note_off_c, 7, 67, 95
5, 6240, Note_on_c, 6, 70, 95
5, 7200, Note_off_c, 6, 70, 95
5, 7200, Pitch_bend_c, 7, 8192
5, 7200, Note_on_c, 7, 70, 47
5, 7320, Pitch_bend_c, 7, 8320
5, 7440, Pitch_bend_c, 7, 8448
5, 7440, Pitch_bend_c, 7, 8448
5, 7680, Pitch_bend_c, 7, 8448
5, 7680, Pitch_bend_c, 7, 8192
5, 7680, Note_off_c, 7, 70, 47
5, 7680, Note_on_c, 7, 67, 95
5, 7840, Pitch_bend_c, 7, 8192
5, 8000, Pitch_bend_c, 7, 8320
5, 8160, Pitch_bend_c, 7, 8192
5, 8320, Pitch_bend_c, 7, 8320
5, 8480, Pitch_bend_c, 7, 8192
5, 8640, Pitch_bend_c, 7, 8320
5, 8800, Pitch_bend_c, 7, 8192
5, 8960, Pitch_bend_c, 7, 8320
5, 9120, Pitch_bend_c, 7, 8192
5, 9280, Pitch_bend_c, 7, 8320
5, 9440, Pitch_bend_c, 7, 8192
5, 9600, Pitch_bend_c, 7, 8320
5, 9760, Pitch_bend_c, 7, 8192
5, 9920, Pitch_bend_c, 7, 8320
5, 10080, Pitch_bend_c, 7, 8192
5, 10240, Pitch_bend_c, 7, 8320
5, 10400, Pitch_bend_c, 7, 8192
5, 10560, Pitch_bend_c, 7, 8320
5, 10720, Pitch_bend_c, 7, 8192
5, 10880, Pitch_bend_c, 7, 8320
5, 11040, Pitch_bend_c, 7, 8192
5, 11040, Pitch_bend_c, 7, 8320
5, 11040, Pitch_bend_c, 7, 8192
5, 11040, Note_off_c, 7, 67, 95
5, 11040, Note_on_c, 7, 67, 47
5, 11520, Note_off_c, 7, 67, 47
5, 12040, Note_on_c, 7, 63, 95
5, 12160, Note_off_c, 7, 63, 95
5, 12160, Note_on_c, 7, 65, 95
5, 12800, Note_off_c, 7, 65, 95
5, 12800, Note_on_c, 6, 64, 95
5, 13440, Note_off_c, 6, 64, 95
5, 13440, Note_on_c, 6, 62, 95
5, 14080, Note_off_c, 6, 62, 95
5, 14080, Note_on_c, 6, 60, 95
5, 14720, Note_off_c, 6, 60, 95
5, 14720, Note_on_c, 6, 58, 95
5, 15360, Note_off_c, 6, 58, 95
5, 15360, Note_on_c, 6, 57, 95
5, 16320, Note_off_c, 6, 57, 95
5, 16320, Note_on_c, 6, 53, 95
5, 16800, Note_off_c, 6, 53, 95
5, 16800, Note_on_c, 7, 53, 95
5, 16960, Pitch_bend_c, 7, 8192
5, 17120, Pitch_bend_c, 7, 8320
5, 17280, Pitch_bend_c, 7, 8192
5, 17440, Pitch_bend_c, 7, 8320
5, 17600, Pitch_bend_c, 7, 8192
5, 17760, Pitch_bend_c, 7, 8320
5, 17920, Pitch_bend_c, 7, 8192
5, 18080, Pitch_bend_c, 7, 8320
5, 18240, Pitch_bend_c, 7, 8192
5, 18400, Pitch_bend_c, 7, 8320
5, 18560, Pitch_bend_c, 7, 8192
5, 18720, Pitch_bend_c, 7, 8320
5, 18880, Pitch_bend_c, 7, 8192
5, 19040, Pitch_bend_c, 7, 8320
5, 19200, Pitch_bend_c, 7, 8192
5, 19200, Pitch_bend_c, 7, 8320
5, 19200, Pitch_bend_c, 7, 8192
5, 19200, Note_off_c, 7, 53, 95
5, 19440, Note_on_c, 6, 48, 95
5, 19680, Note_off_c, 6, 48, 95
5, 19680, Note_on_c, 6, 50, 70
5, 20160, Note_off_c, 6, 50, 70
5, 20160, Note_on_c, 6, 53, 95
5, 20640, Note_off_c, 6, 53, 95
5, 20640, Note_on_c, 6, 50, 95
5, 21000, Note_on_c, 7, 53, 95
5, 21120, Note_off_c, 6, 50, 95
5, 21120, Note_off_c, 7, 53, 95
5, 21120, Note_on_c, 7, 55, 95
5, 22080, Note_off_c, 7, 55, 95
5, 22080, Note_on_c, 6, 58, 95
5, 22560, Note_off_c, 6, 58, 95
5, 22560, Note_on_c, 7, 55, 95
5, 22720, Pitch_bend_c, 7, 8192
5, 22880, Pitch_bend_c, 7, 8320
5, 23040, Pitch_bend_c, 7, 8192
5, 23200, Pitch_bend_c, 7, 8320
5, 23360, Pitch_bend_c, 7, 8192
5, 23520, Pitch_bend_c, 7, 8320
5, 23680, Pitch_bend_c, 7, 8192
5, 23840, Pitch_bend_c, 7, 8320
5, 24000, Pitch_bend_c, 7, 8192
5, 24000, Pitch_bend_c, 7, 8320
5, 24000, Pitch_bend_c, 7, 8192
5, 24000, Note_off_c, 7, 55, 95
5, 26400, Note_on_c, 7, 60, 95
5, 26520, Pitch_bend_c, 7, 8832
5, 26640, Pitch_bend_c, 7, 9600
5, 26640, Pitch_bend_c, 7, 8192
5, 26640, Note_off_c, 7, 60, 95
5, 26640, Note_on_c, 7, 62, 95
5, 26800, Pitch_bend_c, 7, 8192
5, 26880, Pitch_bend_c, 7, 8320
5, 26880, Pitch_bend_c, 7, 8192
5, 26880, Note_off_c, 7, 62, 95
5, 26880, Note_on_c, 7, 62, 47
5, 27040, Pitch_bend_c, 7, 8192
5, 27200, Pitch_bend_c, 7, 8320
5, 27360, Pitch_bend_c, 7, 8192
5, 27520, Pitch_bend_c, 7, 8320
5, 27680, Pitch_bend_c, 7, 8192
5, 27840, Pitch_bend_c, 7, 8320
5, 28000, Pitch_bend_c, 7, 8192
5, 28160, Pitch_bend_c, 7, 8320
5, 28320, Pitch_bend_c, 7, 8192
5, 28320, Pitch_bend_c, 7, 8320
5, 28320, Pitch_bend_c, 7, 8192
5, 28320, Note_off_c, 7, 62, 47
5, 28320, Note_on_c, 6, 65, 95
5, 28680, Note_on_c, 7, 61, 95
5, 28800, Note_off_c, 6, 65, 95
5, 28800, Note_off_c, 7, 61, 95
5, 28800, Note_on_c, 7, 60, 95
5, 30240, Note_off_c, 7, 60, 95
5, 30240, Note_on_c, 6, 58, 95
5, 30720, Note_off_c, 6, 58, 95
5, 30720, Note_on_c, 6, 55, 95
5, 31680, Note_off_c, 6, 55, 95
5, 34080, Note_on_c, 7, 44, 63
5, 34200, Pitch_bend_c, 7, 8832
5, 34320, Pitch_bend_c, 7, 9600
5, 34320, Pitch_bend_c, 7, 8192
5, 34320, Note_off_c, 7, 44, 63
5, 34320, Note_on_c, 6, 46, 63
5, 34560, Note_off_c, 6, 46, 63
5, 34560, Note_on_c, 6, 46, 63
5, 35520, Note_off_c, 6, 46, 63
5, 39840, Note_on_c, 6, 48, 79
5, 40080, Note_off_c, 6, 48, 79
5, 40080, Note_on_c, 6, 50, 54
5, 40320, Note_off_c, 6, 50, 54
5, 40320, Note_on_c, 6, 53, 79
5, 40800, Note_off_c, 6, 53, 79
5, 40800, Note_on_c, 6, 43, 79
5, 41280, Note_off_c, 6, 43, 79
5, 41280, Note_on_c, 7, 55, 79
5, 41440, Pitch_bend_c, 7, 8192
5, 41600, Pitch_bend_c, 7, 8320
5, 41760, Pitch_bend_c, 7, 8192
5, 41920, Pitch_bend_c, 7, 8320
5, 42080, Pitch_bend_c, 7, 8192
5, 42240, Pitch_bend_c, 7, 8320
5, 42240, Pitch_bend_c, 7, 8192
5, 42240, Note_off_c, 7, 55, 79
5, 43680, Note_on_c, 6, 48, 79
5, 43920, Note_off_c, 6, 48, 79
5, 43920, Note_on_c, 6, 50, 54
5, 44160, Note_off_c, 6, 50, 54
5, 44160, Note_on_c, 6, 53, 79
5, 44640, Note_off_c, 6, 53, 79
5, 44640, Note_on_c, 6, 40, 79
5, 45120, Note_off_c, 6, 40, 79
5, 47520, Note_on_c, 6, 48, 79
5, 47760, Note_off_c, 6, 48, 79
5, 47760, Note_on_c, 6, 50, 54
5, 48000, Note_off_c, 6, 50, 54
5, 48000, Note_on_c, 6, 53, 79
5, 48480, Note_off_c, 6, 53, 79
5, 48480, Note_on_c, 6, 43, 79
5, 48960, Note_off_c, 6, 43, 79
5, 48960, Note_on_c, 7, 55, 79
5, 49120, Pitch_bend_c, 7, 8192
5, 49280, Pitch_bend_c, 7, 8320
5, 49440, Pitch_bend_c, 7, 8192
5, 49600, Pitch_bend_c, 7, 8320
5, 49760, Pitch_bend_c, 7, 8192
5, 49920, Pitch_bend_c, 7, 8320
5, 49920, Pitch_bend_c, 7, 8192
5, 49920, Note_off_c, 7, 55, 79
5, 51360, Note_on_c, 6, 48, 79
5, 51600, Note_off_c, 6, 48, 79
5, 51600, Note_on_c, 6, 50, 54
5, 51840, Note_off_c, 6, 50, 54
5, 51840, Note_on_c, 6, 53, 79
5, 52320, Note_off_c, 6, 53, 79
5, 52320, Note_on_c, 6, 40, 79
5, 52800, Note_off_c, 6, 40, 79
5, 55200, Note_on_c, 6, 48, 79
5, 55440, Note_off_c, 6, 48, 79
5, 55440, Note_on_c, 6, 50, 54
5, 55680, Note_off_c, 6, 50, 54
5, 55680, Note_on_c, 6, 53, 79
5, 56160, Note_off_c, 6, 53, 79
5, 56160, Note_on_c, 6, 43, 79
5, 56640, Note_off_c, 6, 43, 79
5, 56640, Note_on_c, 7, 55, 79
5, 56800, Pitch_bend_c, 7, 8192
5, 56960, Pitch_bend_c, 7, 8320
5, 57120, Pitch_bend_c, 7, 8192
5, 57280, Pitch_bend_c, 7, 8320
5, 57440, Pitch_bend_c, 7, 8192
5, 57480, Note_on_c, 7, 65, 79
5, 57600, Pitch_bend_c, 7, 8320
5, 57600, Pitch_bend_c, 7, 8192
5, 57600, Note_off_c, 7, 55, 79
5, 57600, Note_off_c, 7, 65, 79
5, 57600, Note_on_c, 7, 67, 79
5, 57760, Pitch_bend_c, 7, 8192
5, 57920, Pitch_bend_c, 7, 8320
5, 58080, Pitch_bend_c, 7, 8192
5, 58240, Pitch_bend_c, 7, 8320
5, 58400, Pitch_bend_c, 7, 8192
5, 58560, Pitch_bend_c, 7, 8320
5, 58560, Pitch_bend_c, 7, 8192
5, 58560, Note_off_c, 7, 67, 79
5, 58560, Note_on_c, 6, 65, 79
5, 59400, Note_on_c, 7, 61, 79
5, 59520, Note_off_c, 6, 65, 79
5, 59520, Note_off_c, 7, 61, 79
5, 59520, Note_on_c, 7, 60, 79
5, 60240, Note_off_c, 7, 60, 79
5, 60240, Note_on_c, 6, 58, 79
5, 60480, Note_off_c, 6, 58, 79
5, 60480, Note_on_c, 6, 55, 79
5, 60960, Note_off_c, 6, 55, 79
5, 60960, Note_on_c, 7, 55, 79
5, 61120, Pitch_bend_c, 7, 8192
5, 61280, Pitch_bend_c, 7, 8320
5, 61440, Pitch_bend_c, 7, 8192
5, 61440, Pitch_bend_c, 7, 8320
5, 61440, Pitch_bend_c, 7, 8192
5, 61440, Note_off_c, 7, 55, 79
5, 61440, Note_on_c, 7, 55, 79
5, 61600, Pitch_bend_c, 7, 8192
5, 61760, Pitch_bend_c, 7, 8320
5, 61920, Pitch_bend_c, 7, 8192
5, 62080, Pitch_bend_c, 7, 8320
5, 62240, Pitch_bend_c, 7, 8192
5, 62400, Pitch_bend_c, 7, 8320
5, 62400, Pitch_bend_c, 7, 8192
5, 62400, Note_off_c, 7, 55, 79
5, 67320, Note_on_c, 7, 60, 79
5, 67440, Note_off_c, 7, 60, 79
5, 67440, Note_on_c, 7, 61, 95
5, 67680, Note_off_c, 7, 61, 95
5, 68160, Note_on_c, 6, 58, 95
5, 69120, Note_off_c, 6, 58, 95
5, 69120, Note_on_c, 7, 55, 95
5, 69280, Pitch_bend_c, 7, 8192
5, 69440, Pitch_bend_c, 7, 8320
5, 69600, Pitch_bend_c, 7, 8192
5, 69760, Pitch_bend_c, 7, 8320
5, 69920, Pitch_bend_c, 7, 8192
5, 70080, Pitch_bend_c, 7, 8320
5, 70080, Pitch_bend_c, 7, 8192
5, 70080, Note_off_c, 7, 55, 95
5, 73920, Note_on_c, 6, 65, 95
5, 74400, Note_off_c, 6, 65, 95
5, 75360, Note_on_c, 7, 60, 95
5, 75480, Pitch_bend_c, 7, 8832
5, 75600, Pitch_bend_c, 7, 9600
5, 75600, Pitch_bend_c, 7, 8192
5, 75600, Note_off_c, 7, 60, 95
5, 75600, Note_on_c, 6, 62, 95
5, 75840, Note_off_c, 6, 62, 95
5, 75840, Note_on_c, 7, 65, 95
5, 75960, Pitch_bend_c, 7, 8448
5, 76080, Pitch_bend_c, 7, 8832
5, 76200, Pitch_bend_c, 7, 9216
5, 76320, Pitch_bend_c, 7, 9600
5, 76320, Pitch_bend_c, 7, 8192
5, 76320, Note_off_c, 7, 65, 95
5, 76320, Note_on_c, 6, 67, 95
5, 76800, Note_off_c, 6, 67, 95
5, 76800, Note_on_c, 7, 67, 95
5, 76960, Pitch_bend_c, 7, 8192
5, 77120, Pitch_bend_c, 7, 8320
5, 77280, Pitch_bend_c, 7, 8192
5, 77440, Pitch_bend_c, 7, 8320
5, 77600, Pitch_bend_c, 7, 8192
5, 77760, Pitch_bend_c, 7, 8320
5, 77920, Pitch_bend_c, 7, 8192
5, 78080, Pitch_bend_c, 7, 8320
5, 78240, Pitch_bend_c, 7, 8192
5, 78400, Pitch_bend_c, 7, 8320
5, 78560, Pitch_bend_c, 7, 8192
5, 78720, Pitch_bend_c, 7, 8320
5, 78880, Pitch_bend_c, 7, 8192
5, 79040, Pitch_bend_c, 7, 8320
5, 79200, Pitch_bend_c, 7, 8192
5, 79360, Pitch_bend_c, 7, 8320
5, 79520, Pitch_bend_c, 7, 8192
5, 79680, Pitch_bend_c, 7, 8320
5, 79680, Pitch_bend_c, 7, 8192
5, 79680, Note_off_c, 7, 67, 95
5, 79680, Note_on_c, 6, 70, 95
5, 79920, Note_off_c, 6, 70, 95
5, 79920, Note_on_c, 6, 72, 70
5, 80640, Note_off_c, 6, 72, 70
5, 80640, Note_on_c, 7, 70, 95
5, 80800, Pitch_bend_c, 7, 8192
5, 80960, Pitch_bend_c, 7, 8320
5, 81120, Pitch_bend_c, 7, 8192
5, 81280, Pitch_bend_c, 7, 8320
5, 81440, Pitch_bend_c, 7, 8192
5, 81600, Pitch_bend_c, 7, 8320
5, 81600, Pitch_bend_c, 7, 8192
5, 81600, Note_off_c, 7, 70, 95
5, 81600, Note_on_c, 7, 70, 47
5, 82080, Note_off_c, 7, 70, 47
5, 87840, Note_on_c, 6, 65, 95
5, 88200, Note_on_c, 7, 61, 95
5, 88320, Note_off_c, 6, 65, 95
5, 88320, Note_off_c, 7, 61, 95
5, 88320, Note_on_c, 7, 60, 95
5, 89040, Note_off_c, 7, 60, 95
5, 89040, Note_on_c, 6, 58, 95
5, 89280, Note_off_c, 6, 58, 95
5, 89280, Note_on_c, 6, 55, 95
5, 89760, Note_off_c, 6, 55, 95
5, 89760, Note_on_c, 7, 55, 95
5, 89920, Pitch_bend_c, 7, 8192
5, 90080, Pitch_bend_c, 7, 8320
5, 90240, Pitch_bend_c, 7, 8192
5, 90400, Pitch_bend_c, 7, 8320
5, 90560, Pitch_bend_c, 7, 8192
5, 90720, Pitch_bend_c, 7, 8320
5, 90880, Pitch_bend_c, 7, 8192
5, 91040, Pitch_bend_c, 7, 8320
5, 91200, Pitch_bend_c, 7, 8192
5, 91200, Pitch_bend_c, 7, 8320
5, 91200, Pitch_bend_c, 7, 8192
5, 91200, Note_off_c, 7, 55, 95
5, 102240, Note_on_c, 6, 48, 95
5, 102720, Note_off_c, 6, 48, 95
5, 102720, Note_on_c, 6, 50, 95
5, 103200, Note_off_c, 6, 50, 95
5, 103200, Note_on_c, 6, 53, 95
5, 103680, Note_off_c, 6, 53, 95
5, 103680, Note_on_c, 6, 48, 95
5, 104640, Note_off_c, 6, 48, 95
5, 104640, Note_on_c, 6, 46, 95
5, 105120, Note_off_c, 6, 46, 95
5, 105120, Note_on_c, 6, 43, 95
5, 106080, Note_off_c, 6, 43, 95
5, 106080, Note_on_c, 6, 40, 95
5, 106560, Note_off_c, 6, 40, 95
5, 106560, Note_on_c, 6, 41, 95
5, 107040, Note_off_c, 6, 41, 95
5, 107040, Note_on_c, 6, 42, 95
5, 107520, Note_off_c, 6, 42, 95
5, 107520, Note_on_c, 6, 43, 95
5, 111360, Note_off_c, 6, 43, 95
5, 115840, Note_on_c, 7, 65, 95
5, 115840, Note_on_c, 7, 62, 95
5, 115968, Pitch_bend_c, 7, 8192
5, 115968, Pitch_bend_c, 7, 8192
5, 116096, Pitch_bend_c, 7, 8192
5, 116096, Pitch_bend_c, 7, 8192
5, 116224, Pitch_bend_c, 7, 8192
5, 116224, Pitch_bend_c, 7, 8192
5, 116352, Pitch_bend_c, 7, 8192
5, 116352, Pitch_bend_c, 7, 8192
5, 116480, Pitch_bend_c, 7, 8192
5, 116480, Pitch_bend_c, 7, 8192
5, 116480, Note_off_c, 7, 65, 95
5, 116480, Pitch_bend_c, 7, 8192
5, 116480, Pitch_bend_c, 7, 8192
5, 116480, Note_off_c, 7, 62, 95
5, 116480, Note_on_c, 7, 65, 95
5, 116480, Note_on_c, 7, 62, 95
5, 116608, Pitch_bend_c, 7, 8192
5, 116608, Pitch_bend_c, 7, 8192
5, 116736, Pitch_bend_c, 7, 8192
5, 116736, Pitch_bend_c, 7, 8192
5, 116864, Pitch_bend_c, 7, 8192
5, 116864, Pitch_bend_c, 7, 8192
5, 116992, Pitch_bend_c, 7, 8192
5, 116992, Pitch_bend_c, 7, 8192
5, 117120, Pitch_bend_c, 7, 8192
5, 117120, Pitch_bend_c, 7, 8192
5, 117120, Note_off_c, 7, 65, 95
5, 117120, Pitch_bend_c, 7, 8192
5, 117120, Pitch_bend_c, 7, 8192
5, 117120, Note_off_c, 7, 62, 95
5, 117120, Note_on_c, 7, 65, 95
5, 117120, Note_on_c, 7, 62, 95
5, 117248, Pitch_bend_c, 7, 8192
5, 117248, Pitch_bend_c, 7, 8192
5, 117376, Pitch_bend_c, 7, 8192
5, 117376, Pitch_bend_c, 7, 8192
5, 117504, Pitch_bend_c, 7, 8192
5, 117504, Pitch_bend_c, 7, 8192
5, 117632, Pitch_bend_c, 7, 8192
5, 117632, Pitch_bend_c, 7, 8192
5, 117760, Pitch_bend_c, 7, 8192
5, 117760, Pitch_bend_c, 7, 8192
5, 117760, Note_off_c, 7, 65, 95
5, 117760, Pitch_bend_c, 7, 8192
5, 117760, Pitch_bend_c, 7, 8192
5, 117760, Note_off_c, 7, 62, 95
5, 117760, Note_on_c, 7, 65, 95
5, 117760, Note_on_c, 7, 62, 95
5, 117888, Pitch_bend_c, 7, 8192
5, 117888, Pitch_bend_c, 7, 8192
5, 118016, Pitch_bend_c, 7, 8192
5, 118016, Pitch_bend_c, 7, 8192
5, 118144, Pitch_bend_c, 7, 8192
5, 118144, Pitch_bend_c, 7, 8192
5, 118272, Pitch_bend_c, 7, 8192
5, 118272, Pitch_bend_c, 7, 8192
5, 118400, Pitch_bend_c, 7, 8192
5, 118400, Pitch_bend_c, 7, 8192
5, 118400, Note_off_c, 7, 65, 95
5, 118400, Pitch_bend_c, 7, 8192
5, 118400, Pitch_bend_c, 7, 8192
5, 118400, Note_off_c, 7, 62, 95
5, 118400, Note_on_c, 7, 65, 95
5, 118400, Note_on_c, 7, 62, 95
5, 118528, Pitch_bend_c, 7, 8192
5, 118528, Pitch_bend_c, 7, 8192
5, 118656, Pitch_bend_c, 7, 8192
5, 118656, Pitch_bend_c, 7, 8192
5, 118784, Pitch_bend_c, 7, 8192
5, 118784, Pitch_bend_c, 7, 8192
5, 118912, Pitch_bend_c, 7, 8192
5, 118912, Pitch_bend_c, 7, 8192
5, 119040, Pitch_bend_c, 7, 8192
5, 119040, Pitch_bend_c, 7, 8192
5, 119040, Note_off_c, 7, 65, 95
5, 119040, Pitch_bend_c, 7, 8192
5, 119040, Pitch_bend_c, 7, 8192
5, 119040, Note_off_c, 7, 62, 95
5, 119040, Note_on_c, 6, 65, 95
5, 119040, Note_on_c, 6, 62, 95
5, 119680, Note_off_c, 6, 65, 95
5, 119680, Note_off_c, 6, 62, 95
5, 119680, Note_on_c, 6, 61, 95
5, 120320, Note_off_c, 6, 61, 95
5, 120320, Note_on_c, 6, 60, 95
5, 120840, Note_on_c, 7, 58, 95
5, 120960, Note_off_c, 6, 60, 95
5, 120960, Note_off_c, 7, 58, 95
5, 120960, Note_on_c, 7, 60, 95
5, 121600, Note_off_c, 7, 60, 95
5, 121600, Note_on_c, 6, 58, 95
5, 122240, Note_off_c, 6, 58, 95
5, 122240, Note_on_c, 6, 55, 95
5, 122560, Note_off_c, 6, 55, 95
5, 122560, Note_on_c, 6, 53, 70
5, 122880, Note_off_c, 6, 53, 70
5, 122880, Note_on_c, 7, 55, 95
5, 123040, Pitch_bend_c, 7, 8192
5, 123200, Pitch_bend_c, 7, 8320
5, 123360, Pitch_bend_c, 7, 8192
5, 123520, Pitch_bend_c, 7, 8320
5, 123680, Pitch_bend_c, 7, 8192
5, 123840, Pitch_bend_c, 7, 8320
5, 123840, Pitch_bend_c, 7, 8192
5, 123840, Note_off_c, 7, 55, 95
5, 129480, Note_on_c, 7, 70, 95
5, 129600, Note_off_c, 7, 70, 95
5, 129600, Note_on_c, 7, 72, 95
5, 130560, Note_off_c, 7, 72, 95
5, 130560, Note_on_c, 7, 70, 95
5, 130720, Pitch_bend_c, 7, 8192
5, 130880, Pitch_bend_c, 7, 8320
5, 131040, Pitch_bend_c, 7, 8192
5, 131200, Pitch_bend_c, 7, 8320
5, 131360, Pitch_bend_c, 7, 8192
5, 131520, Pitch_bend_c, 7, 8320
5, 131520, Pitch_bend_c, 7, 8192
5, 131520, Note_off_c, 7, 70, 95
5, 131520, Note_on_c, 7, 70, 47
5, 132480, Note_off_c, 7, 70, 47
5, 147360, Note_on_c, 6, 58, 95
5, 147600, Note_off_c, 6, 58, 95
5, 147600, Note_on_c, 6, 60, 70
5, 147840, Note_off_c, 6, 60, 70
5, 147840, Note_on_c, 6, 62, 95
5, 148080, Note_off_c, 6, 62, 95
5, 148080, Note_on_c, 6, 60, 95
5, 148320, Note_off_c, 6, 60, 95
5, 148320, Note_on_c, 6, 58, 70
5, 148800, Note_off_c, 6, 58, 70
5, 148800, Note_on_c, 6, 58, 95
5, 149040, Note_off_c, 6, 58, 95
5, 149040, Note_on_c, 6, 60, 70
5, 149280, Note_off_c, 6, 60, 70
5, 149280, Note_on_c, 6, 62, 95
5, 149520, Note_off_c, 6, 62, 95
5, 149520, Note_on_c, 6, 60, 95
5, 149760, Note_off_c, 6, 60, 95
5, 149760, Note_on_c, 6, 58, 70
5, 150240, Note_off_c, 6, 58, 70
5, 150240, Note_on_c, 6, 58, 95
5, 150480, Note_off_c, 6, 58, 95
5, 150480, Note_on_c, 6, 60, 70
5, 150720, Note_off_c, 6, 60, 70
5, 150720, Note_on_c, 6, 62, 95
5, 150960, Note_off_c, 6, 62, 95
5, 150960, Note_on_c, 6, 60, 95
5, 151200, Note_off_c, 6, 60, 95
5, 151200, Note_on_c, 6, 58, 70
5, 151440, Note_off_c, 6, 58, 70
5, 151440, Note_on_c, 6, 55, 95
5, 151680, Note_off_c, 6, 55, 95
5, 151680, Pitch_bend_c, 7, 8192
5, 151680, Note_on_c, 7, 58, 95
5, 151920, Pitch_bend_c, 7, 8320
5, 152160, Pitch_bend_c, 7, 8448
5, 152160, Pitch_bend_c, 7, 8448
5, 152640, Pitch_bend_c, 7, 8448
5, 152640, Pitch_bend_c, 7, 8192
5, 152640, Note_off_c, 7, 58, 95
5, 152640, Note_on_c, 6, 55, 95
5, 152880, Note_off_c, 6, 55, 95
5, 152880, Note_on_c, 6, 53, 70
5, 153120, Note_off_c, 6, 53, 70
5, 153120, Note_on_c, 7, 55, 95
5, 153280, Pitch_bend_c, 7, 8192
5, 153440, Pitch_bend_c, 7, 8320
5, 153600, Pitch_bend_c, 7, 8192
5, 153600, Pitch_bend_c, 7, 8320
5, 153600, Pitch_bend_c, 7, 8192
5, 153600, Note_off_c, 7, 55, 95
5, 153600, Note_on_c, 7, 55, 47
5, 153760, Pitch_bend_c, 7, 8192
5, 153920, Pitch_bend_c, 7, 8320
5, 154080, Pitch_bend_c, 7, 8192
5, 154240, Pitch_bend_c, 7, 8320
5, 154400, Pitch_bend_c, 7, 8192
5, 154440, Note_on_c, 7, 60, 95
5, 154560, Pitch_bend_c, 7, 8320
5, 154560, Pitch_bend_c, 7, 8192
5, 154560, Note_off_c, 7, 55, 47
5, 154560, Note_off_c, 7, 60, 95
5, 154560, Note_on_c, 7, 62, 95
5, 154720, Pitch_bend_c, 7, 8192
5, 154880, Pitch_bend_c, 7, 8320
5, 155040, Pitch_bend_c, 7, 8192
5, 155200, Pitch_bend_c, 7, 8320
5, 155360, Pitch_bend_c, 7, 8192
5, 155520, Pitch_bend_c, 7, 8320
5, 155680, Pitch_bend_c, 7, 8192
5, 155840, Pitch_bend_c, 7, 8320
5, 156000, Pitch_bend_c, 7, 8192
5, 156160, Pitch_bend_c, 7, 8320
5, 156320, Pitch_bend_c, 7, 8192
5, 156480, Pitch_bend_c, 7, 8320
5, 156640, Pitch_bend_c, 7, 8192
5, 156800, Pitch_bend_c, 7, 8320
5, 156960, Pitch_bend_c, 7, 8192
5, 156960, Pitch_bend_c, 7, 8320
5, 156960, Pitch_bend_c, 7, 8192
5, 156960, Note_off_c, 7, 62, 95
5, 156960, Note_on_c, 6, 65, 95
5, 157320, Note_on_c, 7, 61, 95
5, 157440, Note_off_c, 6, 65, 95
5, 157440, Note_off_c, 7, 61, 95
5, 157440, Note_on_c, 7, 60, 95
5, 158400, Note_off_c, 7, 60, 95
5, 159840, Note_on_c, 6, 58, 95
5, 160320, Note_off_c, 6, 58, 95
5, 160320, Note_on_c, 6, 60, 95
5, 160800, Note_off_c, 6, 60, 95
5, 160800, Note_on_c, 6, 62, 95
5, 161280, Note_off_c, 6, 62, 95
5, 161280, Note_on_c, 6, 65, 95
5, 162240, Note_off_c, 6, 65, 95
5, 162240, Note_on_c, 6, 67, 95
5, 162720, Note_off_c, 6, 67, 95
5, 162720, Note_on_c, 6, 69, 95
5, 163080, Note_on_c, 7, 69, 95
5, 163200, Note_off_c, 6, 69, 95
5, 163200, Note_off_c, 7, 69, 95
5, 163200, Note_on_c, 7, 70, 95
5, 164160, Note_off_c, 7, 70, 95
5, 164160, Note_on_c, 6, 69, 95
5, 164640, Note_off_c, 6, 69, 95
5, 164640, Note_on_c, 6, 67, 95
5, 165120, Note_off_c, 6, 67, 95
5, 165120, Note_on_c, 6, 65, 95
5, 165280, Note_off_c, 6, 65, 95
5, 165280, Note_on_c, 6, 67, 95
5, 165440, Note_off_c, 6, 67, 95
5, 165440, Note_on_c, 6, 69, 70
5, 165600, Note_off_c, 6, 69, 70
5, 165600, Note_on_c, 7, 67, 95
5, 165760, Pitch_bend_c, 7, 8192
5, 165920, Pitch_bend_c, 7, 8320
5, 166080, Pitch_bend_c, 7, 8192
5, 166240, Pitch_bend_c, 7, 8320
5, 166400, Pitch_bend_c, 7, 8192
5, 166560, Pitch_bend_c, 7, 8320
5, 166720, Pitch_bend_c, 7, 8192
5, 166880, Pitch_bend_c, 7, 8320
5, 167040, Pitch_bend_c, 7, 8192
5, 167200, Pitch_bend_c, 7, 8320
5, 167360, Pitch_bend_c, 7, 8192
5, 167520, Pitch_bend_c, 7, 8320
5, 167680, Pitch_bend_c, 7, 8192
5, 167840, Pitch_bend_c, 7, 8320
5, 168000, Pitch_bend_c, 7, 8192
5, 168160, Pitch_bend_c, 7, 8320
5, 168320, Pitch_bend_c, 7, 8192
5, 168480, Pitch_bend_c, 7, 8320
5, 168640, Pitch_bend_c, 7, 8192
5, 168800, Pitch_bend_c, 7, 8320
5, 168960, Pitch_bend_c, 7, 8192
5, 168960, Pitch_bend_c, 7, 8320
5, 168960, Pitch_bend_c, 7, 8192
5, 168960, Note_off_c, 7, 67, 95
5, 192480, Note_on_c, 6, 62, 95
5, 192480, Note_on_c, 6, 55, 95
5, 192720, Note_off_c, 6, 62, 95
5, 192720, Note_off_c, 6, 55, 95
5, 192720, Note_on_c, 6, 60, 70
5, 192960, Note_off_c, 6, 60, 70
5, 192960, Note_on_c, 6, 58, 70
5, 193200, Note_off_c, 6, 58, 70
5, 193200, Note_on_c, 6, 62, 95
5, 193200, Note_on_c, 6, 55, 95
5, 193440, Note_off_c, 6, 62, 95
5, 193440, Note_off_c, 6, 55, 95
5, 193440, Note_on_c, 6, 60, 70
5, 193920, Note_off_c, 6, 60, 70
5, 193920, Note_on_c, 6, 62, 95
5, 193920, Note_on_c, 6, 55, 95
5, 194880, Note_off_c, 6, 62, 95
5, 194880, Note_off_c, 6, 55, 95
5, 194880, Note_on_c, 6, 55, 95
5, 195360, Note_off_c, 6, 55, 95
5, 196320, Note_on_c, 6, 61, 95
5, 196480, Note_off_c, 6, 61, 95
5, 196480, Note_on_c, 6, 60, 70
5, 196640, Note_off_c, 6, 60, 70
5, 196640, Note_on_c, 6, 58, 70
5, 196800, Note_off_c, 6, 58, 70
5, 196800, Note_on_c, 7, 60, 95
5, 196960, Pitch_bend_c, 7, 8192
5, 197120, Pitch_bend_c, 7, 8320
5, 197280, Pitch_bend_c, 7, 8192
5, 197440, Pitch_bend_c, 7, 8320
5, 197600, Pitch_bend_c, 7, 8192
5, 197760, Pitch_bend_c, 7, 8320
5, 197760, Pitch_bend_c, 7, 8192
5, 197760, Note_off_c, 7, 60, 95
5, 197760, Note_on_c, 6, 58, 95
5, 198000, Note_off_c, 6, 58, 95
5, 198240, Note_on_c, 6, 53, 95
5, 198480, Note_off_c, 6, 53, 95
5, 198720, Note_on_c, 6, 53, 95
5, 199200, Note_off_c, 6, 53, 95
5, 199200, Note_on_c, 6, 55, 70
5, 199680, Note_off_c, 6, 55, 70
5, 201120, Note_on_c, 6, 50, 95
5, 201600, Note_off_c, 6, 50, 95
5, 201840, Note_on_c, 6, 53, 95
5, 202080, Note_off_c, 6, 53, 95
5, 202080, Note_on_c, 6, 55, 70
5, 202560, Note_off_c, 6, 55, 70
5, 202560, Note_on_c, 6, 58, 95
5, 203040, Note_off_c, 6, 58, 95
5, 203040, Note_on_c, 6, 60, 95
5, 203520, Note_off_c, 6, 60, 95
5, 203520, Note_on_c, 7, 58, 95
5, 203680, Pitch_bend_c, 7, 8192
5, 203840, Pitch_bend_c, 7, 8320
5, 204000, Pitch_bend_c, 7, 8192
5, 204160, Pitch_bend_c, 7, 8320
5, 204320, Pitch_bend_c, 7, 8192
5, 204480, Pitch_bend_c, 7, 8320
5, 204480, Pitch_bend_c, 7, 8192
5, 204480, Note_off_c, 7, 58, 95
5, 204480, Note_on_c, 6, 53, 95
5, 204960, Note_off_c, 6, 53, 95
5, 204960, Note_on_c, 6, 50, 95
5, 205440, Note_off_c, 6, 50, 95
5, 209280, Note_on_c, 6, 67, 95
5, 209280, Note_on_c, 6, 65, 95
5, 209760, Note_off_c, 6, 67, 95
5, 209760, Note_off_c, 6, 65, 95
5, 209760, Note_on_c, 6, 65, 95
5, 209920, Note_off_c, 6, 65, 95
5, 209920, Note_on_c, 6, 67, 95
5, 210400, Note_off_c, 6, 67, 95
5, 210400, Note_on_c, 6, 65, 95
5, 210560, Note_off_c, 6, 65, 95
5, 210560, Note_on_c, 6, 67, 95
5, 211040, Note_off_c, 6, 67, 95
5, 211040, Note_on_c, 6, 65, 95
5, 211200, Note_off_c, 6, 65, 95
5, 211200, Note_on_c, 6, 67, 95
5, 211322, Note_off_c, 6, 67, 95
5, 211520, Note_on_c, 6, 65, 95
5, 211642, Note_off_c, 6, 65, 95
5, 211840, Note_on_c, 6, 67, 95
5, 211962, Note_off_c, 6, 67, 95
5, 212160, Note_on_c, 6, 65, 95
5, 212282, Note_off_c, 6, 65, 95
5, 212480, Note_on_c, 6, 67, 95
5, 212602, Note_off_c, 6, 67, 95
5, 212800, Note_on_c, 6, 65, 95
5, 212922, Note_off_c, 6, 65, 95
5, 213120, Note_on_c, 6, 67, 95
5, 213242, Note_off_c, 6, 67, 95
5, 213440, Note_on_c, 6, 65, 95
5, 213562, Note_off_c, 6, 65, 95
5, 213760, Note_on_c, 6, 67, 95
5, 213882, Note_off_c, 6, 67, 95
5, 214080, Note_on_c, 6, 65, 95
5, 214202, Note_off_c, 6, 65, 95
5, 214400, Note_on_c, 6, 67, 95
5, 214522, Note_off_c, 6, 67, 95
5, 214720, Note_on_c, 6, 65, 95
5, 214842, Note_off_c, 6, 65, 95
5, 215040, Note_on_c, 7, 67, 95
5, 215200, Pitch_bend_c, 7, 8192
5, 215360, Pitch_bend_c, 7, 8320
5, 215520, Pitch_bend_c, 7, 8192
5, 215680, Pitch_bend_c, 7, 8320
5, 215840, Pitch_bend_c, 7, 8192
5, 216000, Pitch_bend_c, 7, 8320
5, 216000, Pitch_bend_c, 7, 8192
5, 216000, Note_off_c, 7, 67, 95
5, 216000, Note_on_c, 7, 67, 47
5, 216480, Note_off_c, 7, 67, 47
5, 219840, Note_on_c, 6, 70, 95
5, 220800, Note_off_c, 6, 70, 95
5, 220800, Note_on_c, 7, 67, 95
5, 220960, Pitch_bend_c, 7, 8192
5, 221120, Pitch_bend_c, 7, 8320
5, 221280, Pitch_bend_c, 7, 8192
5, 221440, Pitch_bend_c, 7, 8320
5, 221600, Pitch_bend_c, 7, 8192
5, 221760, Pitch_bend_c, 7, 8320
5, 221760, Pitch_bend_c, 7, 8192
5, 221760, Note_off_c, 7, 67, 95
5, 221760, Note_on_c, 6, 62, 95
5, 222240, Note_off_c, 6, 62, 95
5, 223680, Note_on_c, 6, 62, 95
5, 223920, Note_off_c, 6, 62, 95
5, 223920, Note_on_c, 6, 65, 70
5, 224640, Note_off_c, 6, 65, 70
5, 227040, Note_on_c, 7, 60, 95
5, 227160, Pitch_bend_c, 7, 8832
5, 227280, Pitch_bend_c, 7, 9600
5, 227280, Pitch_bend_c, 7, 8192
5, 227280, Note_off_c, 7, 60, 95
5, 227280, Note_on_c, 6, 62, 95
5, 227520, Note_off_c, 6, 62, 95
5, 227520, Note_on_c, 6, 60, 95
5, 227760, Note_off_c, 6, 60, 95
5, 227760, Note_on_c, 6, 60, 95
5, 228000, Note_off_c, 6, 60, 95
5, 228480, Note_on_c, 6, 58, 95
5, 228720, Note_off_c, 6, 58, 95
5, 228720, Note_on_c, 6, 58, 95
5, 229200, Note_off_c, 6, 58, 95
5, 229200, Note_on_c, 6, 57, 95
5, 229680, Note_off_c, 6, 57, 95
5, 229680, Note_on_c, 6, 53, 95
5, 230160, Note_off_c, 6, 53, 95
5, 230160, Note_on_c, 6, 50, 95
5, 230400, Note_off_c, 6, 50, 95
5, 230400, Note_on_c, 7, 55, 95
5, 230560, Pitch_bend_c, 7, 8192
5, 230720, Pitch_bend_c, 7, 8320
5, 230880, Pitch_bend_c, 7, 8192
5, 231040, Pitch_bend_c, 7, 8320
5, 231200, Pitch_bend_c, 7, 8192
5, 231360, Pitch_bend_c, 7, 8320
5, 231360, Pitch_bend_c, 7, 8192
5, 231360, Note_off_c, 7, 55, 95
5, 232800, Note_on_c, 6, 53, 95
5, 233280, Note_off_c, 6, 53, 95
5, 238080, Note_on_c, 6, 48, 95
5, 238200, Note_off_c, 6, 48, 95
5, 238200, Note_on_c, 6, 50, 95
5, 238320, Note_off_c, 6, 50, 95
5, 238320, Note_on_c, 6, 48, 95
5, 238440, Note_off_c, 6, 48, 95
5, 238440, Note_on_c, 6, 50, 95
5, 238560, Note_off_c, 6, 50, 95
5, 238560, Note_on_c, 6, 48, 95
5, 238680, Note_off_c, 6, 48, 95
5, 238680, Note_on_c, 6, 50, 95
5, 238800, Note_off_c, 6, 50, 95
5, 238800, Note_on_c, 6, 48, 95
5, 238920, Note_off_c, 6, 48, 95
5, 238920, Note_on_c, 6, 50, 95
5, 239040, Note_off_c, 6, 50, 95
5, 239040, Note_on_c, 6, 48, 95
5, 239160, Note_off_c, 6, 48, 95
5, 239160, Note_on_c, 6, 50, 95
5, 239280, Note_off_c, 6, 50, 95
5, 239280, Note_on_c, 6, 48, 95
5, 239400, Note_off_c, 6, 48, 95
5, 239400, Note_on_c, 6, 50, 95
5, 239520, Note_off_c, 6, 50, 95
5, 239520, Note_on_c, 6, 48, 95
5, 239640, Note_off_c, 6, 48, 95
5, 239640, Note_on_c, 6, 50, 95
5, 239760, Note_off_c, 6, 50, 95
5, 239760, Note_on_c, 6, 48, 95
5, 239880, Note_off_c, 6, 48, 95
5, 239880, Note_on_c, 6, 50, 95
5, 240000, Note_off_c, 6, 50, 95
5, 240000, Note_on_c, 6, 48, 95
5, 240120, Note_off_c, 6, 48, 95
5, 240120, Note_on_c, 6, 50, 95
5, 240240, Note_off_c, 6, 50, 95
5, 240240, Note_on_c, 6, 48, 95
5, 240360, Note_off_c, 6, 48, 95
5, 240360, Note_on_c, 6, 50, 95
5, 240480, Note_off_c, 6, 50, 95
5, 240480, Note_on_c, 6, 48, 95
5, 240600, Note_off_c, 6, 48, 95
5, 240600, Note_on_c, 6, 50, 95
5, 240720, Note_off_c, 6, 50, 95
5, 240720, Note_on_c, 6, 48, 95
5, 240840, Note_off_c, 6, 48, 95
5, 240840, Note_on_c, 6, 50, 95
5, 240960, Note_off_c, 6, 50, 95
5, 240960, Note_on_c, 6, 48, 95
5, 241080, Note_off_c, 6, 48, 95
5, 241080, Note_on_c, 6, 50, 95
5, 241200, Note_off_c, 6, 50, 95
5, 241200, Note_on_c, 6, 48, 95
5, 241320, Note_off_c, 6, 48, 95
5, 241320, Note_on_c, 6, 50, 95
5, 241440, Note_off_c, 6, 50, 95
5, 241440, Note_on_c, 6, 48, 95
5, 241560, Note_off_c, 6, 48, 95
5, 241560, Note_on_c, 6, 50, 95
5, 241680, Note_off_c, 6, 50, 95
5, 241680, Note_on_c, 6, 48, 95
5, 241800, Note_off_c, 6, 48, 95
5, 241800, Note_on_c, 6, 50, 95
5, 241920, Note_off_c, 6, 50, 95
5, 241920, Note_on_c, 6, 48, 95
5, 242040, Note_off_c, 6, 48, 95
5, 242040, Note_on_c, 6, 50, 95
5, 242160, Note_off_c, 6, 50, 95
5, 242160, Note_on_c, 6, 48, 95
5, 242280, Note_off_c, 6, 48, 95
5, 242280, Note_on_c, 6, 50, 95
5, 242400, Note_off_c, 6, 50, 95
5, 242400, Note_on_c, 6, 48, 95
5, 242520, Note_off_c, 6, 48, 95
5, 242520, Note_on_c, 6, 50, 95
5, 242640, Note_off_c, 6, 50, 95
5, 242640, Note_on_c, 6, 48, 95
5, 242760, Note_off_c, 6, 48, 95
5, 242760, Note_on_c, 6, 50, 95
5, 242880, Note_off_c, 6, 50, 95
5, 242880, Note_on_c, 6, 48, 95
5, 243000, Note_off_c, 6, 48, 95
5, 243000, Note_on_c, 6, 50, 95
5, 243120, Note_off_c, 6, 50, 95
5, 243120, Note_on_c, 6, 48, 95
5, 243240, Note_off_c, 6, 48, 95
5, 243240, Note_on_c, 6, 50, 95
5, 243360, Note_off_c, 6, 50, 95
5, 243360, Note_on_c, 6, 48, 95
5, 243480, Note_off_c, 6, 48, 95
5, 243480, Note_on_c, 6, 50, 95
5, 243600, Note_off_c, 6, 50, 95
5, 243600, Note_on_c, 6, 48, 95
5, 243720, Note_off_c, 6, 48, 95
5, 243720, Note_on_c, 6, 50, 95
5, 243839, Note_off_c, 6, 50, 95
5, 269760, Note_on_c, 6, 65, 95
5, 270000, Note_off_c, 6, 65, 95
5, 270000, Note_on_c, 6, 62, 70
5, 270240, Note_off_c, 6, 62, 70
5, 270240, Note_on_c, 6, 60, 95
5, 270480, Note_off_c, 6, 60, 95
5, 270480, Note_on_c, 6, 65, 95
5, 270720, Note_off_c, 6, 65, 95
5, 270720, Note_on_c, 6, 62, 70
5, 270960, Note_off_c, 6, 62, 70
5, 270960, Note_on_c, 6, 60, 47
5, 271200, Note_off_c, 6, 60, 47
5, 271200, Note_on_c, 6, 65, 95
5, 271440, Note_off_c, 6, 65, 95
5, 271440, Note_on_c, 6, 62, 70
5, 271680, Note_off_c, 6, 62, 70
5, 271680, Note_on_c, 6, 60, 95
5, 271920, Note_off_c, 6, 60, 95
5, 271920, Note_on_c, 6, 65, 95
5, 272160, Note_off_c, 6, 65, 95
5, 272160, Note_on_c, 6, 62, 70
5, 272400, Note_off_c, 6, 62, 70
5, 272400, Note_on_c, 6, 60, 95
5, 272640, Note_off_c, 6, 60, 95
5, 272640, Note_on_c, 6, 65, 95
5, 272880, Note_off_c, 6, 65, 95
5, 272880, Note_on_c, 6, 62, 70
5, 273120, Note_off_c, 6, 62, 70
5, 273120, Note_on_c, 6, 60, 95
5, 273360, Note_off_c, 6, 60, 95
5, 273360, Note_on_c, 6, 65, 95
5, 273600, Note_off_c, 6, 65, 95
5, 273600, Note_on_c, 6, 62, 70
5, 273840, Note_off_c, 6, 62, 70
5, 273840, Note_on_c, 6, 60, 95
5, 274080, Note_off_c, 6, 60, 95
5, 274080, Note_on_c, 6, 65, 95
5, 274320, Note_off_c, 6, 65, 95
5, 274320, Note_on_c, 6, 62, 70
5, 274560, Note_off_c, 6, 62, 70
5, 274560, Note_on_c, 6, 60, 95
5, 274800, Note_off_c, 6, 60, 95
5, 274800, Note_on_c, 6, 65, 95
5, 275040, Note_off_c, 6, 65, 95
5, 275040, Note_on_c, 6, 62, 70
5, 275280, Note_off_c, 6, 62, 70
5, 275280, Note_on_c, 6, 60, 95
5, 275520, Note_off_c, 6, 60, 95
5, 275520, Note_on_c, 6, 62, 95
5, 275760, Note_off_c, 6, 62, 95
5, 275760, Note_on_c, 6, 60, 95
5, 276000, Note_off_c, 6, 60, 95
5, 276000, Note_on_c, 6, 58, 70
5, 276240, Note_off_c, 6, 58, 70
5, 276240, Note_on_c, 6, 55, 95
5, 276480, Note_off_c, 6, 55, 95
5, 276480, Note_on_c, 6, 58, 95
5, 277440, Note_off_c, 6, 58, 95
5, 280320, Note_on_c, 6, 61, 95
5, 280560, Note_off_c, 6, 61, 95
5, 280560, Note_on_c, 6, 60, 70
5, 280800, Note_off_c, 6, 60, 70
5, 280800, Note_on_c, 6, 58, 22
5, 281280, Note_off_c, 6, 58, 22
5, 281280, Note_on_c, 6, 55, 95
5, 281760, Note_off_c, 6, 55, 95
5, 281760, Note_on_c, 7, 55, 95
5, 281920, Pitch_bend_c, 7, 8192
5, 282080, Pitch_bend_c, 7, 8320
5, 282240, Pitch_bend_c, 7, 8192
5, 282400, Pitch_bend_c, 7, 8320
5, 282560, Pitch_bend_c, 7, 8192
5, 282720, Pitch_bend_c, 7, 8320
5, 282720, Pitch_bend_c, 7, 8192
5, 282720, Note_off_c, 7, 55, 95
5, 282720, Note_on_c, 6, 58, 95
5, 283200, Note_off_c, 6, 58, 95
5, 283200, Note_on_c, 7, 60, 95
5, 283320, Pitch_bend_c, 7, 8832
5, 283440, Pitch_bend_c, 7, 9600
5, 283440, Pitch_bend_c, 7, 8192
5, 283440, Note_off_c, 7, 60, 95
5, 283440, Note_on_c, 6, 62, 95
5, 283680, Note_off_c, 6, 62, 95
5, 283680, Note_on_c, 6, 65, 95
5, 284160, Note_off_c, 6, 65, 95
5, 284160, Note_on_c, 7, 67, 95
5, 284320, Pitch_bend_c, 7, 8192
5, 284480, Pitch_bend_c, 7, 8320
5, 284640, Pitch_bend_c, 7, 8192
5, 284800, Pitch_bend_c, 7, 8320
5, 284960, Pitch_bend_c, 7, 8192
5, 285120, Pitch_bend_c, 7, 8320
5, 285120, Pitch_bend_c, 7, 8192
5, 285120, Note_off_c, 7, 67, 95
5, 285120, Note_on_c, 7, 67, 47
5, 285600, Note_off_c, 7, 67, 47
5, 287040, Pitch_bend_c, 7, 8192
5, 287040, Note_on_c, 7, 70, 95
5, 287280, Pitch_bend_c, 7, 8320
5, 287520, Pitch_bend_c, 7, 8448
5, 287520, Pitch_bend_c, 7, 8448
5, 288000, Pitch_bend_c, 7, 8448
5, 288000, Pitch_bend_c, 7, 8192
5, 288000, Note_off_c, 7, 70, 95
5, 288000, Note_on_c, 7, 67, 95
5, 288160, Pitch_bend_c, 7, 8192
5, 288320, Pitch_bend_c, 7, 8320
5, 288480, Pitch_bend_c, 7, 8192
5, 288640, Pitch_bend_c, 7, 8320
5, 288800, Pitch_bend_c, 7, 8192
5, 288960, Pitch_bend_c, 7, 8320
5, 289120, Pitch_bend_c, 7, 8192
5, 289280, Pitch_bend_c, 7, 8320
5, 289440, Pitch_bend_c, 7, 8192
5, 289600, Pitch_bend_c, 7, 8320
5, 289760, Pitch_bend_c, 7, 8192
5, 289920, Pitch_bend_c, 7, 8320
5, 289920, Pitch_bend_c, 7, 8192
5, 289920, Note_off_c, 7, 67, 95
5, 290880, Note_on_c, 6, 65, 95
5, 291120, Note_off_c, 6, 65, 95
5, 291120, Note_on_c, 6, 67, 70
5, 291840, Note_off_c, 6, 67, 70
5, 291840, Pitch_bend_c, 7, 8192
5, 291840, Note_on_c, 7, 70, 95
5, 291927, Pitch_bend_c, 7, 8320
5, 292014, Pitch_bend_c, 7, 8448
5, 292101, Pitch_bend_c, 7, 8576
5, 292188, Pitch_bend_c, 7, 8704
5, 292275, Pitch_bend_c, 7, 8832
5, 292362, Pitch_bend_c, 7, 8960
5, 292449, Pitch_bend_c, 7, 9088
5, 292536, Pitch_bend_c, 7, 9216
5, 292623, Pitch_bend_c, 7, 9344
5, 292710, Pitch_bend_c, 7, 9472
5, 292797, Pitch_bend_c, 7, 9600
5, 292800, Pitch_bend_c, 7, 9600
5, 293760, Pitch_bend_c, 7, 9600
5, 293760, Pitch_bend_c, 7, 8192
5, 293760, Note_off_c, 7, 70, 95
5, 293760, Pitch_bend_c, 7, 8192
5, 293760, Note_on_c, 7, 70, 95
5, 293825, Pitch_bend_c, 7, 8320
5, 293890, Pitch_bend_c, 7, 8448
5, 293955, Pitch_bend_c, 7, 8576
5, 294020, Pitch_bend_c, 7, 8704
5, 294085, Pitch_bend_c, 7, 8832
5, 294150, Pitch_bend_c, 7, 8960
5, 294215, Pitch_bend_c, 7, 9088
5, 294280, Pitch_bend_c, 7, 9216
5, 294345, Pitch_bend_c, 7, 9344
5, 294410, Pitch_bend_c, 7, 9472
5, 294475, Pitch_bend_c, 7, 9600
5, 294480, Pitch_bend_c, 7, 9600
5, 295200, Pitch_bend_c, 7, 9600
5, 295200, Pitch_bend_c, 7, 8192
5, 295200, Note_off_c, 7, 70, 95
5, 295680, Note_on_c, 7, 67, 95
5, 295840, Pitch_bend_c, 7, 8192
5, 296000, Pitch_bend_c, 7, 8320
5, 296160, Pitch_bend_c, 7, 8192
5, 296320, Pitch_bend_c, 7, 8320
5, 296480, Pitch_bend_c, 7, 8192
5, 296640, Pitch_bend_c, 7, 8320
5, 296800, Pitch_bend_c, 7, 8192
5, 296960, Pitch_bend_c, 7, 8320
5, 297120, Pitch_bend_c, 7, 8192
5, 297120, Pitch_bend_c, 7, 8320
5, 297120, Pitch_bend_c, 7, 8192
5, 297120, Note_off_c, 7, 67, 95
5, 297120, Note_on_c, 7, 67, 47
5, 297600, Note_off_c, 7, 67, 47
5, 300960, Note_on_c, 6, 48, 95
5, 301200, Note_off_c, 6, 48, 95
5, 301200, Note_on_c, 6, 50, 70
5, 301440, Note_off_c, 6, 50, 70
5, 301440, Note_on_c, 6, 53, 95
5, 301680, Note_off_c, 6, 53, 95
5, 301920, Note_on_c, 6, 43, 95
5, 302160, Note_off_c, 6, 43, 95
5, 302400, Note_on_c, 7, 55, 95
5, 302560, Pitch_bend_c, 7, 8192
5, 302720, Pitch_bend_c, 7, 8320
5, 302880, Pitch_bend_c, 7, 8192
5, 303040, Pitch_bend_c, 7, 8320
5, 303200, Pitch_bend_c, 7, 8192
5, 303360, Pitch_bend_c, 7, 8320
5, 303360, Pitch_bend_c, 7, 8192
5, 303360, Note_off_c, 7, 55, 95
5, 304800, Note_on_c, 6, 48, 95
5, 305040, Note_off_c, 6, 48, 95
5, 305040, Note_on_c, 6, 50, 70
5, 305280, Note_off_c, 6, 50, 70
5, 305280, Note_on_c, 6, 53, 95
5, 305520, Note_off_c, 6, 53, 95
5, 305760, Note_on_c, 6, 46, 95
5, 306000, Note_off_c, 6, 46, 95
5, 308640, Note_on_c, 7, 60, 95
5, 308760, Pitch_bend_c, 7, 8832
5, 308880, Pitch_bend_c, 7, 9600
5, 308880, Pitch_bend_c, 7, 8192
5, 308880, Note_off_c, 7, 60, 95
5, 308880, Note_on_c, 6, 62, 95
5, 309120, Note_off_c, 6, 62, 95
5, 309120, Note_on_c, 6, 65, 95
5, 309600, Note_off_c, 6, 65, 95
5, 309600, Note_on_c, 6, 67, 95
5, 310080, Note_off_c, 6, 67, 95
5, 310080, Pitch_bend_c, 7, 8192
5, 310080, Note_on_c, 7, 70, 95
5, 310320, Pitch_bend_c, 7, 8320
5, 310560, Pitch_bend_c, 7, 8448
5, 310560, Pitch_bend_c, 7, 8448
5, 311040, Pitch_bend_c, 7, 8448
5, 311040, Pitch_bend_c, 7, 8192
5, 311040, Note_off_c, 7, 70, 95
5, 312000, Pitch_bend_c, 7, 9600
5, 312000, Note_on_c, 7, 72, 95
5, 312080, Pitch_bend_c, 7, 9600
5, 312087, Pitch_bend_c, 7, 9472
5, 312094, Pitch_bend_c, 7, 9344
5, 312101, Pitch_bend_c, 7, 9216
5, 312108, Pitch_bend_c, 7, 9088
5, 312115, Pitch_bend_c, 7, 8960
5, 312122, Pitch_bend_c, 7, 8832
5, 312129, Pitch_bend_c, 7, 8704
5, 312136, Pitch_bend_c, 7, 8576
5, 312143, Pitch_bend_c, 7, 8448
5, 312150, Pitch_bend_c, 7, 8320
5, 312157, Pitch_bend_c, 7, 8192
5, 312160, Pitch_bend_c, 7, 8192
5, 312240, Pitch_bend_c, 7, 8192
5, 312240, Pitch_bend_c, 7, 8192
5, 312240, Note_off_c, 7, 72, 95
5, 312240, Note_on_c, 6, 72, 47
5, 312720, Note_off_c, 6, 72, 47
5, 312720, Note_on_c, 6, 70, 95
5, 312960, Note_off_c, 6, 70, 95
5, 312960, Note_on_c, 6, 67, 95
5, 313440, Note_off_c, 6, 67, 95
5, 313440, Note_on_c, 6, 67, 95
5, 313920, Note_off_c, 6, 67, 95
5, 313920, Pitch_bend_c, 7, 8192
5, 313920, Note_on_c, 7, 70, 95
5, 314160, Pitch_bend_c, 7, 8320
5, 314400, Pitch_bend_c, 7, 8448
5, 314400, Pitch_bend_c, 7, 8448
5, 314880, Pitch_bend_c, 7, 8448
5, 314880, Pitch_bend_c, 7, 8192
5, 314880, Note_off_c, 7, 70, 95
5, 315840, Pitch_bend_c, 7, 8192
5, 315840, Note_on_c, 7, 70, 95
5, 315960, Pitch_bend_c, 7, 8320
5, 316080, Pitch_bend_c, 7, 8448
5, 316080, Pitch_bend_c, 7, 8448
5, 316320, Pitch_bend_c, 7, 8448
5, 316320, Pitch_bend_c, 7, 8192
5, 316320, Note_off_c, 7, 70, 95
5, 316320, Note_on_c, 6, 72, 95
5, 316800, Note_off_c, 6, 72, 95
5, 316800, Pitch_bend_c, 7, 8192
5, 316800, Note_on_c, 7, 70, 95
5, 317040, Pitch_bend_c, 7, 8320
5, 317280, Pitch_bend_c, 7, 8448
5, 317280, Pitch_bend_c, 7, 8448
5, 317760, Pitch_bend_c, 7, 8448
5, 317760, Pitch_bend_c, 7, 8192
5, 317760, Note_off_c, 7, 70, 95
5, 317760, Note_on_c, 6, 67, 95
5, 318240, Note_off_c, 6, 67, 95
5, 318240, Note_on_c, 7, 67, 95
5, 318400, Pitch_bend_c, 7, 8192
5, 318560, Pitch_bend_c, 7, 8320
5, 318720, Pitch_bend_c, 7, 8192
5, 318880, Pitch_bend_c, 7, 8320
5, 319040, Pitch_bend_c, 7, 8192
5, 319200, Pitch_bend_c, 7, 8320
5, 319360, Pitch_bend_c, 7, 8192
5, 319520, Pitch_bend_c, 7, 8320
5, 319680, Pitch_bend_c, 7, 8192
5, 319840, Pitch_bend_c, 7, 8320
5, 320000, Pitch_bend_c, 7, 8192
5, 320160, Pitch_bend_c, 7, 8320
5, 320320, Pitch_bend_c, 7, 8192
5, 320480, Pitch_bend_c, 7, 8320
5, 320640, Pitch_bend_c, 7, 8192
5, 320800, Pitch_bend_c, 7, 8320
5, 320960, Pitch_bend_c, 7, 8192
5, 321120, Pitch_bend_c, 7, 8320
5, 321120, Pitch_bend_c, 7, 8192
5, 321120, Note_off_c, 7, 67, 95
5, 321120, Note_on_c, 6, 65, 95
5, 321360, Note_off_c, 6, 65, 95
5, 321360, Note_on_c, 6, 62, 70
5, 321600, Note_off_c, 6, 62, 70
5, 321600, Note_on_c, 6, 60, 95
5, 321840, Note_off_c, 6, 60, 95
5, 321840, Note_on_c, 6, 58, 70
5, 322080, Note_off_c, 6, 58, 70
5, 322080, Note_on_c, 6, 55, 95
5, 322320, Note_off_c, 6, 55, 95
5, 322320, Note_on_c, 6, 53, 70
5, 322560, Note_off_c, 6, 53, 70
5, 322560, Note_on_c, 6, 58, 95
5, 324000, Note_off_c, 6, 58, 95
5, 324000, Note_on_c, 6, 55, 95
5, 325920, Note_off_c, 6, 55, 95
5, 325920, Note_on_c, 6, 62, 95
5, 326040, Note_on_c, 7, 58, 95
5, 326160, Note_off_c, 6, 62, 95
5, 326160, Note_off_c, 7, 58, 95
5, 326160, Note_on_c, 7, 60, 95
5, 326400, Note_off_c, 7, 60, 95
5, 326520, Note_on_c, 7, 58, 95
5, 326640, Note_off_c, 7, 58, 95
5, 326640, Note_on_c, 7, 60, 95
5, 326880, Note_off_c, 7, 60, 95
5, 327240, Note_on_c, 7, 58, 95
5, 327360, Note_off_c, 7, 58, 95
5, 327360, Note_on_c, 7, 60, 95
5, 328080, Note_off_c, 7, 60, 95
5, 328080, Note_on_c, 6, 62, 95
5, 328320, Note_off_c, 6, 62, 95
5, 328320, Note_on_c, 6, 61, 95
5, 328560, Note_off_c, 6, 61, 95
5, 328560, Note_on_c, 6, 60, 70
5, 328800, Note_off_c, 6, 60, 70
5, 328800, Note_on_c, 6, 58, 70
5, 329280, Note_off_c, 6, 58, 70
5, 329280, Note_on_c, 6, 55, 95
5, 329760, Note_off_c, 6, 55, 95
5, 329760, Note_on_c, 6, 53, 70
5, 330240, Note_off_c, 6, 53, 70
5, 330240, Note_on_c, 7, 55, 95
5, 330400, Pitch_bend_c, 7, 8192
5, 330560, Pitch_bend_c, 7, 8320
5, 330720, Pitch_bend_c, 7, 8192
5, 330880, Pitch_bend_c, 7, 8320
5, 331040, Pitch_bend_c, 7, 8192
5, 331200, Pitch_bend_c, 7, 8320
5, 331200, Pitch_bend_c, 7, 8192
5, 331200, Note_off_c, 7, 55, 95
5, 395520, Note_on_c, 7, 67, 95
5, 395680, Pitch_bend_c, 7, 8192
5, 395840, Pitch_bend_c, 7, 8320
5, 396000, Pitch_bend_c, 7, 8192
5, 396160, Pitch_bend_c, 7, 8320
5, 396320, Pitch_bend_c, 7, 8192
5, 396480, Pitch_bend_c, 7, 8320
5, 396640, Pitch_bend_c, 7, 8192
5, 396800, Pitch_bend_c, 7, 8320
5, 396960, Pitch_bend_c, 7, 8192
5, 396960, Pitch_bend_c, 7, 8320
5, 396960, Pitch_bend_c, 7, 8192
5, 396960, Note_off_c, 7, 67, 95
5, 396960, Note_on_c, 6, 70, 95
5, 397440, Note_off_c, 6, 70, 95
5, 397440, Note_on_c, 7, 67, 95
5, 397600, Pitch_bend_c, 7, 8192
5, 397760, Pitch_bend_c, 7, 8320
5, 397920, Pitch_bend_c, 7, 8192
5, 398080, Pitch_bend_c, 7, 8320
5, 398240, Pitch_bend_c, 7, 8192
5, 398400, Pitch_bend_c, 7, 8320
5, 398400, Pitch_bend_c, 7, 8192
5, 398400, Note_off_c, 7, 67, 95
5, 398400, Note_on_c, 6, 70, 95
5, 398880, Note_off_c, 6, 70, 95
5, 398880, Note_on_c, 6, 67, 95
5, 399360, Note_off_c, 6, 67, 95
5, 399360, Note_on_c, 7, 67, 47
5, 400320, Note_off_c, 7, 67, 47
5, 403560, Note_on_c, 7, 60, 95
5, 403680, Note_off_c, 7, 60, 95
5, 403680, Note_on_c, 7, 61, 95
5, 404160, Note_off_c, 7, 61, 95
5, 404400, Note_on_c, 6, 60, 95
5, 405120, Note_off_c, 6, 60, 95
5, 405120, Note_on_c, 6, 58, 95
5, 406080, Note_off_c, 6, 58, 95
5, 406080, Note_on_c, 6, 55, 95
5, 406320, Note_off_c, 6, 55, 95
5, 406560, Note_on_c, 6, 55, 95
5, 407040, Note_off_c, 6, 55, 95
5, 407040, Note_on_c, 7, 55, 47
5, 408000, Note_off_c, 7, 55, 47
5, 408480, Note_on_c, 6, 48, 95
5, 408720, Note_off_c, 6, 48, 95
5, 408720, Note_on_c, 6, 50, 70
5, 408960, Note_off_c, 6, 50, 70
5, 408960, Note_on_c, 6, 53, 95
5, 409920, Note_off_c, 6, 53, 95
5, 409920, Note_on_c, 6, 48, 95
5, 410880, Note_off_c, 6, 48, 95
5, 413760, Note_on_c, 6, 48, 95
5, 414000, Note_off_c, 6, 48, 95
5, 414000, Note_on_c, 6, 50, 70
5, 414240, Note_off_c, 6, 50, 70
5, 414240, Note_on_c, 6, 53, 95
5, 414720, Note_off_c, 6, 53, 95
5, 414720, Note_on_c, 6, 53, 95
5, 414960, Note_off_c, 6, 53, 95
5, 414960, Note_on_c, 6, 55, 70
5, 415680, Note_off_c, 6, 55, 70
5, 416640, Note_on_c, 6, 53, 95
5, 416880, Note_off_c, 6, 53, 95
5, 416880, Note_on_c, 6, 55, 70
5, 417600, Note_off_c, 6, 55, 70
5, 424840, Note_on_c, 7, 53, 95
5, 424960, Note_off_c, 7, 53, 95
5, 424960, Note_on_c, 7, 55, 95
5, 425480, Note_on_c, 7, 53, 95
5, 425600, Note_off_c, 7, 55, 95
5, 425600, Note_off_c, 7, 53, 95
5, 425600, Note_on_c, 7, 55, 95
5, 426120, Note_on_c, 7, 53, 95
5, 426240, Note_off_c, 7, 55, 95
5, 426240, Note_off_c, 7, 53, 95
5, 426240, Note_on_c, 7, 55, 95
5, 428160, Note_off_c, 7, 55, 95
5, 432240, Note_on_c, 6, 48, 95
5, 432480, Note_off_c, 6, 48, 95
5, 432480, Note_on_c, 6, 50, 70
5, 432960, Note_off_c, 6, 50, 70
5, 432960, Note_on_c, 6, 48, 95
5, 433920, Note_off_c, 6, 48, 95
5, 436080, Note_on_c, 6, 48, 95
5, 436320, Note_off_c, 6, 48, 95
5, 436320, Note_on_c, 6, 50, 70
5, 436800, Note_off_c, 6, 50, 70
5, 436800, Note_on_c, 6, 53, 95
5, 437760, Note_off_c, 6, 53, 95
5, 437760, Note_on_c, 7, 55, 95
5, 437920, Pitch_bend_c, 7, 8192
5, 438080, Pitch_bend_c, 7, 8320
5, 438240, Pitch_bend_c, 7, 8192
5, 438400, Pitch_bend_c, 7, 8320
5, 438560, Pitch_bend_c, 7, 8192
5, 438720, Pitch_bend_c, 7, 8320
5, 438720, Pitch_bend_c, 7, 8192
5, 438720, Note_off_c, 7, 55, 95
5, 439920, Note_on_c, 6, 48, 95
5, 440160, Note_off_c, 6, 48, 95
5, 440160, Note_on_c, 6, 50, 70
5, 440640, Note_off_c, 6, 50, 70
5, 440640, Note_on_c, 6, 48, 95
5, 441120, Note_off_c, 6, 48, 95
5, 443040, Note_on_c, 6, 48, 95
5, 443280, Note_off_c, 6, 48, 95
5, 443280, Note_on_c, 6, 50, 70
5, 443520, Note_off_c, 6, 50, 70
5, 443520, Note_on_c, 6, 53, 95
5, 444000, Note_off_c, 6, 53, 95
5, 444000, Note_on_c, 6, 55, 95
5, 444480, Note_off_c, 6, 55, 95
5, 444480, Note_on_c, 6, 58, 95
5, 444960, Note_off_c, 6, 58, 95
5, 444960, Note_on_c, 6, 53, 95
5, 445440, Note_off_c, 6, 53, 95
5, 445440, Note_on_c, 6, 55, 95
5, 446400, Note_off_c, 6, 55, 95
5, 448800, Note_on_c, 7, 60, 95
5, 448920, Pitch_bend_c, 7, 8832
5, 449040, Pitch_bend_c, 7, 9600
5, 449040, Pitch_bend_c, 7, 8192
5, 449040, Note_off_c, 7, 60, 95
5, 449040, Note_on_c, 6, 62, 95
5, 449280, Note_off_c, 6, 62, 95
5, 449280, Note_on_c, 7, 65, 95
5, 449440, Pitch_bend_c, 7, 8192
5, 449600, Pitch_bend_c, 7, 8320
5, 449760, Pitch_bend_c, 7, 8192
5, 449920, Pitch_bend_c, 7, 8320
5, 450080, Pitch_bend_c, 7, 8192
5, 450240, Pitch_bend_c, 7, 8320
5, 450400, Pitch_bend_c, 7, 8192
5, 450560, Pitch_bend_c, 7, 8320
5, 450600, Note_on_c, 7, 60, 95
5, 450720, Pitch_bend_c, 7, 8192
5, 450720, Pitch_bend_c, 7, 8320
5, 450720, Pitch_bend_c, 7, 8192
5, 450720, Note_off_c, 7, 65, 95
5, 450720, Note_off_c, 7, 60, 95
5, 450720, Note_on_c, 7, 61, 95
5, 451200, Note_off_c, 7, 61, 95
5, 451200, Note_on_c, 6, 61, 95
5, 452160, Note_off_c, 6, 61, 95
5, 452640, Note_on_c, 6, 58, 95
5, 453120, Note_off_c, 6, 58, 95
5, 453120, Note_on_c, 6, 55, 95
5, 454080, Note_off_c, 6, 55, 95
5, 455400, Note_on_c, 7, 48, 95
5, 455520, Note_off_c, 7, 48, 95
5, 455520, Note_on_c, 7, 50, 95
5, 456000, Note_off_c, 7, 50, 95
5, 456000, Note_on_c, 6, 48, 95
5, 456720, Note_off_c, 6, 48, 95
5, 456720, Note_on_c, 6, 46, 95
5, 456960, Note_off_c, 6, 46, 95
5, 456960, Note_on_c, 6, 43, 95
5, 457920, Note_off_c, 6, 43, 95
5, 458400, Note_on_c, 6, 48, 95
5, 458640, Note_off_c, 6, 48, 95
5, 458640, Note_on_c, 6, 50, 70
5, 458880, Note_off_c, 6, 50, 70
5, 458880, Note_on_c, 6, 53, 95
5, 459360, Note_off_c, 6, 53, 95
5, 459360, Note_on_c, 6, 50, 95
5, 459840, Note_off_c, 6, 50, 95
5, 459840, Pitch_bend_c, 7, 8192
5, 459840, Note_on_c, 7, 58, 95
5, 460080, Pitch_bend_c, 7, 8320
5, 460320, Pitch_bend_c, 7, 8448
5, 460320, Pitch_bend_c, 7, 8448
5, 460800, Pitch_bend_c, 7, 8448
5, 460800, Pitch_bend_c, 7, 8192
5, 460800, Note_off_c, 7, 58, 95
5, 462240, Note_on_c, 6, 55, 95
5, 462720, Note_off_c, 6, 55, 95
5, 463680, Note_on_c, 7, 55, 95
5, 463840, Pitch_bend_c, 7, 8192
5, 464000, Pitch_bend_c, 7, 8320
5, 464160, Pitch_bend_c, 7, 8192
5, 464320, Pitch_bend_c, 7, 8320
5, 464480, Pitch_bend_c, 7, 8192
5, 464640, Pitch_bend_c, 7, 8320
5, 464640, Pitch_bend_c, 7, 8192
5, 464640, Note_off_c, 7, 55, 95
5, 464880, Note_on_c, 7, 60, 95
5, 465000, Pitch_bend_c, 7, 8832
5, 465120, Pitch_bend_c, 7, 9600
5, 465120, Pitch_bend_c, 7, 8192
5, 465120, Note_off_c, 7, 60, 95
5, 465120, Note_on_c, 6, 62, 95
5, 465600, Note_off_c, 6, 62, 95
5, 465600, Note_on_c, 7, 65, 95
5, 465760, Pitch_bend_c, 7, 8192
5, 465920, Pitch_bend_c, 7, 8320
5, 466080, Pitch_bend_c, 7, 8192
5, 466240, Pitch_bend_c, 7, 8320
5, 466400, Pitch_bend_c, 7, 8192
5, 466560, Pitch_bend_c, 7, 8320
5, 466720, Pitch_bend_c, 7, 8192
5, 466880, Pitch_bend_c, 7, 8320
5, 467040, Pitch_bend_c, 7, 8192
5, 467200, Pitch_bend_c, 7, 8320
5, 467360, Pitch_bend_c, 7, 8192
5, 467520, Pitch_bend_c, 7, 8320
5, 467680, Pitch_bend_c, 7, 8192
5, 467840, Pitch_bend_c, 7, 8320
5, 468000, Pitch_bend_c, 7, 8192
5, 468160, Pitch_bend_c, 7, 8320
5, 468320, Pitch_bend_c, 7, 8192
5, 468480, Pitch_bend_c, 7, 8320
5, 468480, Pitch_bend_c, 7, 8192
5, 468480, Note_off_c, 7, 65, 95
5, 470600, Note_on_c, 7, 60, 95
5, 470720, Note_off_c, 7, 60, 95
5, 470720, Note_on_c, 7, 62, 95
5, 471040, Note_off_c, 7, 62, 95
5, 471040, Note_on_c, 6, 65, 95
5, 471360, Note_off_c, 6, 65, 95
5, 471360, Note_on_c, 6, 60, 95
5, 471680, Note_off_c, 6, 60, 95
5, 471680, Note_on_c, 6, 58, 95
5, 472000, Note_off_c, 6, 58, 95
5, 472000, Note_on_c, 6, 60, 95
5, 472320, Note_off_c, 6, 60, 95
5, 472320, Note_on_c, 6, 58, 95
5, 473040, Note_off_c, 6, 58, 95
5, 473040, Note_on_c, 6, 55, 95
5, 473280, Note_off_c, 6, 55, 95
5, 473280, Note_on_c, 6, 53, 95
5, 474240, Note_off_c, 6, 53, 95
5, 474240, Note_on_c, 6, 53, 95
5, 474720, Note_off_c, 6, 53, 95
5, 474720, Note_on_c, 6, 53, 95
5, 474840, Note_off_c, 6, 53, 95
5, 474840, Note_on_c, 6, 55, 95
5, 474960, Note_off_c, 6, 55, 95
5, 474960, Note_on_c, 6, 53, 95
5, 475080, Note_off_c, 6, 53, 95
5, 475080, Note_on_c, 6, 55, 95
5, 475200, Note_off_c, 6, 55, 95
5, 475200, Note_on_c, 6, 53, 95
5, 475320, Note_off_c, 6, 53, 95
5, 475320, Note_on_c, 6, 55, 95
5, 475440, Note_off_c, 6, 55, 95
5, 475440, Note_on_c, 6, 53, 95
5, 475560, Note_off_c, 6, 53, 95
5, 475560, Note_on_c, 6, 55, 95
5, 475680, Note_off_c, 6, 55, 95
5, 475680, Note_on_c, 6, 53, 95
5, 475800, Note_off_c, 6, 53, 95
5, 475800, Note_on_c, 6, 55, 95
5, 475920, Note_off_c, 6, 55, 95
5, 475920, Note_on_c, 6, 53, 95
5, 476040, Note_off_c, 6, 53, 95
5, 476040, Note_on_c, 6, 55, 95
5, 476159, Note_off_c, 6, 55, 95
5, 479400, Note_on_c, 7, 64, 95
5, 479520, Note_off_c, 7, 64, 95
5, 479520, Note_on_c, 7, 65, 95
5, 480000, Note_off_c, 7, 65, 95
5, 480000, Note_on_c, 6, 64, 95
5, 480640, Note_off_c, 6, 64, 95
5, 480640, Note_on_c, 6, 62, 95
5, 480960, Note_off_c, 6, 62, 95
5, 480960, Note_on_c, 6, 60, 95
5, 481280, Note_off_c, 6, 60, 95
5, 481280, Note_on_c, 6, 62, 95
5, 481600, Note_off_c, 6, 62, 95
5, 481600, Note_on_c, 6, 60, 95
5, 481920, Note_off_c, 6, 60, 95
5, 481920, Note_on_c, 6, 58, 95
5, 482240, Note_off_c, 6, 58, 95
5, 482240, Note_on_c, 6, 57, 95
5, 482560, Note_off_c, 6, 57, 95
5, 482560, Note_on_c, 6, 60, 95
5, 483520, Note_off_c, 6, 60, 95
5, 483520, Note_on_c, 6, 58, 95
5, 483680, Note_off_c, 6, 58, 95
5, 483680, Note_on_c, 6, 57, 95
5, 483840, Note_off_c, 6, 57, 95
5, 483840, Note_on_c, 6, 55, 95
5, 484320, Note_off_c, 6, 55, 95
5, 489600, Note_on_c, 6, 69, 95
5, 489760, Note_off_c, 6, 69, 95
5, 489760, Note_on_c, 6, 70, 70
5, 489920, Note_off_c, 6, 70, 70
5, 489920, Note_on_c, 6, 69, 70
5, 490080, Note_off_c, 6, 69, 70
5, 490080, Note_on_c, 6, 70, 70
5, 491520, Note_off_c, 6, 70, 70
5, 491520, End_track
6, 0, Start_track
6, 0, Pitch_bend_c, 8, 8192
6, 0, Control_c, 8, 7, 103
6, 0, Control_c, 8, 10, 63
6, 0, Control_c, 8, 93, 0
6, 0, Control_c, 8, 91, 0
6, 0, Control_c, 8, 95, 0
6, 0, Control_c, 8, 92, 0
6, 0, Control_c, 8, 11, 127
6, 0, Program_c, 8, 27
6, 0, Control_c, 10, 7, 103
6, 0, Control_c, 10, 10, 63
6, 0, Control_c, 10, 93, 0
6, 0, Control_c, 10, 91, 0
6, 0, Control_c, 10, 95, 0
6, 0, Control_c, 10, 92, 0
6, 0, Control_c, 10, 11, 127
6, 0, Program_c, 10, 27
6, 49920, Note_on_c, 10, 58, 79
6, 49920, Note_on_c, 10, 53, 79
6, 50040, Pitch_bend_c, 10, 8192
6, 50080, Pitch_bend_c, 10, 8192
6, 50160, Pitch_bend_c, 10, 8192
6, 50240, Pitch_bend_c, 10, 8320
6, 50280, Pitch_bend_c, 10, 8192
6, 50400, Pitch_bend_c, 10, 8192
6, 50400, Pitch_bend_c, 10, 8192
6, 50520, Pitch_bend_c, 10, 8192
6, 50560, Pitch_bend_c, 10, 8320
6, 50640, Pitch_bend_c, 10, 8192
6, 50720, Pitch_bend_c, 10, 8192
6, 50760, Pitch_bend_c, 10, 8192
6, 50880, Pitch_bend_c, 10, 8192
6, 50880, Pitch_bend_c, 10, 8320
6, 51000, Pitch_bend_c, 10, 8192
6, 51040, Pitch_bend_c, 10, 8192
6, 51120, Pitch_bend_c, 10, 8192
6, 51200, Pitch_bend_c, 10, 8320
6, 51240, Pitch_bend_c, 10, 8192
6, 51360, Pitch_bend_c, 10, 8192
6, 51360, Pitch_bend_c, 10, 8192
6, 51480, Pitch_bend_c, 10, 8192
6, 51520, Pitch_bend_c, 10, 8320
6, 51600, Pitch_bend_c, 10, 8192
6, 51680, Pitch_bend_c, 10, 8192
6, 51720, Pitch_bend_c, 10, 8192
6, 51840, Pitch_bend_c, 10, 8192
6, 51840, Pitch_bend_c, 10, 8192
6, 51840, Note_off_c, 10, 58, 79
6, 51840, Pitch_bend_c, 10, 8320
6, 51840, Pitch_bend_c, 10, 8192
6, 51840, Note_off_c, 10, 53, 79
6, 51840, Note_on_c, 10, 58, 31
6, 51840, Note_on_c, 10, 53, 31
6, 51960, Pitch_bend_c, 10, 8192
6, 51960, Pitch_bend_c, 10, 8192
6, 52080, Pitch_bend_c, 10, 8064
6, 52080, Pitch_bend_c, 10, 8064
6, 52200, Pitch_bend_c, 10, 7936
6, 52200, Pitch_bend_c, 10, 7936
6, 52320, Pitch_bend_c, 10, 7936
6, 52320, Pitch_bend_c, 10, 7936
6, 52440, Pitch_bend_c, 10, 7808
6, 52440, Pitch_bend_c, 10, 7808
6, 52560, Pitch_bend_c, 10, 7680
6, 52560, Pitch_bend_c, 10, 7680
6, 52680, Pitch_bend_c, 10, 7680
6, 52680, Pitch_bend_c, 10, 7680
6, 52800, Pitch_bend_c, 10, 7552
6, 52800, Pitch_bend_c, 10, 8192
6, 52800, Note_off_c, 10, 58, 31
6, 52800, Pitch_bend_c, 10, 7552
6, 52800, Pitch_bend_c, 10, 8192
6, 52800, Note_off_c, 10, 53, 31
6, 52800, Note_on_c, 10, 57, 79
6, 52800, Note_on_c, 10, 52, 79
6, 52920, Pitch_bend_c, 10, 7936
6, 52920, Pitch_bend_c, 10, 7936
6, 53040, Pitch_bend_c, 10, 7552
6, 53040, Pitch_bend_c, 10, 7552
6, 53160, Pitch_bend_c, 10, 7168
6, 53160, Pitch_bend_c, 10, 7168
6, 53280, Pitch_bend_c, 10, 6784
6, 53280, Pitch_bend_c, 10, 8192
6, 53280, Note_off_c, 10, 57, 79
6, 53280, Pitch_bend_c, 10, 6784
6, 53280, Pitch_bend_c, 10, 8192
6, 53280, Note_off_c, 10, 52, 79
6, 53280, Note_on_c, 8, 55, 79
6, 53280, Note_on_c, 8, 50, 79
6, 53760, Note_off_c, 8, 55, 79
6, 53760, Note_off_c, 8, 50, 79
6, 57480, Note_on_c, 10, 65, 79
6, 57600, Note_off_c, 10, 65, 79
6, 57600, Note_on_c, 10, 67, 79
6, 57760, Pitch_bend_c, 10, 8192
6, 57920, Pitch_bend_c, 10, 8320
6, 58080, Pitch_bend_c, 10, 8192
6, 58240, Pitch_bend_c, 10, 8320
6, 58400, Pitch_bend_c, 10, 8192
6, 58560, Pitch_bend_c, 10, 8320
6, 58560, Pitch_bend_c, 10, 8192
6, 58560, Note_off_c, 10, 67, 79
6, 58560, Note_on_c, 8, 65, 79
6, 59400, Note_on_c, 10, 61, 79
6, 59520, Note_off_c, 8, 65, 79
6, 59520, Note_off_c, 10, 61, 79
6, 59520, Note_on_c, 10, 60, 79
6, 60240, Note_off_c, 10, 60, 79
6, 60240, Note_on_c, 8, 58, 79
6, 60480, Note_off_c, 8, 58, 79
6, 60480, Note_on_c, 8, 55, 79
6, 60960, Note_off_c, 8, 55, 79
6, 60960, Note_on_c, 10, 55, 79
6, 61120, Pitch_bend_c, 10, 8192
6, 61280, Pitch_bend_c, 10, 8320
6, 61440, Pitch_bend_c, 10, 8192
6, 61440, Pitch_bend_c, 10, 8320
6, 61440, Pitch_bend_c, 10, 8192
6, 61440, Note_off_c, 10, 55, 79
6, 96000, Note_on_c, 10, 58, 79
6, 96000, Note_on_c, 10, 53, 79
6, 96120, Pitch_bend_c, 10, 8192
6, 96160, Pitch_bend_c, 10, 8192
6, 96240, Pitch_bend_c, 10, 8192
6, 96320, Pitch_bend_c, 10, 8320
6, 96360, Pitch_bend_c, 10, 8192
6, 96480, Pitch_bend_c, 10, 8192
6, 96480, Pitch_bend_c, 10, 8192
6, 96600, Pitch_bend_c, 10, 8192
6, 96640, Pitch_bend_c, 10, 8320
6, 96720, Pitch_bend_c, 10, 8192
6, 96800, Pitch_bend_c, 10, 8192
6, 96840, Pitch_bend_c, 10, 8192
6, 96960, Pitch_bend_c, 10, 8192
6, 96960, Pitch_bend_c, 10, 8320
6, 97080, Pitch_bend_c, 10, 8192
6, 97120, Pitch_bend_c, 10, 8192
6, 97200, Pitch_bend_c, 10, 8192
6, 97280, Pitch_bend_c, 10, 8320
6, 97320, Pitch_bend_c, 10, 8192
6, 97440, Pitch_bend_c, 10, 8192
6, 97440, Pitch_bend_c, 10, 8192
6, 97560, Pitch_bend_c, 10, 8192
6, 97600, Pitch_bend_c, 10, 8320
6, 97680, Pitch_bend_c, 10, 8192
6, 97760, Pitch_bend_c, 10, 8192
6, 97800, Pitch_bend_c, 10, 8192
6, 97920, Pitch_bend_c, 10, 8192
6, 97920, Pitch_bend_c, 10, 8192
6, 97920, Note_off_c, 10, 58, 79
6, 97920, Pitch_bend_c, 10, 8320
6, 97920, Pitch_bend_c, 10, 8192
6, 97920, Note_off_c, 10, 53, 79
6, 97920, Note_on_c, 10, 58, 31
6, 97920, Note_on_c, 10, 53, 31
6, 98040, Pitch_bend_c, 10, 8192
6, 98040, Pitch_bend_c, 10, 8192
6, 98160, Pitch_bend_c, 10, 8064
6, 98160, Pitch_bend_c, 10, 8064
6, 98280, Pitch_bend_c, 10, 7936
6, 98280, Pitch_bend_c, 10, 7936
6, 98400, Pitch_bend_c, 10, 7936
6, 98400, Pitch_bend_c, 10, 7936
6, 98520, Pitch_bend_c, 10, 7808
6, 98520, Pitch_bend_c, 10, 7808
6, 98640, Pitch_bend_c, 10, 7680
6, 98640, Pitch_bend_c, 10, 7680
6, 98760, Pitch_bend_c, 10, 7680
6, 98760, Pitch_bend_c, 10, 7680
6, 98880, Pitch_bend_c, 10, 7552
6, 98880, Pitch_bend_c, 10, 8192
6, 98880, Note_off_c, 10, 58, 31
6, 98880, Pitch_bend_c, 10, 7552
6, 98880, Pitch_bend_c, 10, 8192
6, 98880, Note_off_c, 10, 53, 31
6, 98880, Note_on_c, 10, 57, 79
6, 98880, Note_on_c, 10, 52, 79
6, 99000, Pitch_bend_c, 10, 7936
6, 99000, Pitch_bend_c, 10, 7936
6, 99120, Pitch_bend_c, 10, 7552
6, 99120, Pitch_bend_c, 10, 7552
6, 99240, Pitch_bend_c, 10, 7168
6, 99240, Pitch_bend_c, 10, 7168
6, 99360, Pitch_bend_c, 10, 6784
6, 99360, Pitch_bend_c, 10, 8192
6, 99360, Note_off_c, 10, 57, 79
6, 99360, Pitch_bend_c, 10, 6784
6, 99360, Pitch_bend_c, 10, 8192
6, 99360, Note_off_c, 10, 52, 79
6, 99360, Note_on_c, 8, 55, 79
6, 99360, Note_on_c, 8, 50, 79
6, 99840, Note_off_c, 8, 55, 79
6, 99840, Note_off_c, 8, 50, 79
6, 111360, Note_on_c, 10, 58, 79
6, 111360, Note_on_c, 10, 53, 79
6, 111480, Pitch_bend_c, 10, 8192
6, 111520, Pitch_bend_c, 10, 8192
6, 111600, Pitch_bend_c, 10, 8192
6, 111680, Pitch_bend_c, 10, 8320
6, 111720, Pitch_bend_c, 10, 8192
6, 111840, Pitch_bend_c, 10, 8192
6, 111840, Pitch_bend_c, 10, 8192
6, 111960, Pitch_bend_c, 10, 8192
6, 112000, Pitch_bend_c, 10, 8320
6, 112080, Pitch_bend_c, 10, 8192
6, 112160, Pitch_bend_c, 10, 8192
6, 112200, Pitch_bend_c, 10, 8192
6, 112320, Pitch_bend_c, 10, 8192
6, 112320, Pitch_bend_c, 10, 8320
6, 112440, Pitch_bend_c, 10, 8192
6, 112480, Pitch_bend_c, 10, 8192
6, 112560, Pitch_bend_c, 10, 8192
6, 112640, Pitch_bend_c, 10, 8320
6, 112680, Pitch_bend_c, 10, 8192
6, 112800, Pitch_bend_c, 10, 8192
6, 112800, Pitch_bend_c, 10, 8192
6, 112920, Pitch_bend_c, 10, 8192
6, 112960, Pitch_bend_c, 10, 8320
6, 113040, Pitch_bend_c, 10, 8192
6, 113120, Pitch_bend_c, 10, 8192
6, 113160, Pitch_bend_c, 10, 8192
6, 113280, Pitch_bend_c, 10, 8192
6, 113280, Pitch_bend_c, 10, 8192
6, 113280, Note_off_c, 10, 58, 79
6, 113280, Pitch_bend_c, 10, 8320
6, 113280, Pitch_bend_c, 10, 8192
6, 113280, Note_off_c, 10, 53, 79
6, 113280, Note_on_c, 10, 58, 31
6, 113280, Note_on_c, 10, 53, 31
6, 113400, Pitch_bend_c, 10, 8192
6, 113400, Pitch_bend_c, 10, 8192
6, 113520, Pitch_bend_c, 10, 8064
6, 113520, Pitch_bend_c, 10, 8064
6, 113640, Pitch_bend_c, 10, 7936
6, 113640, Pitch_bend_c, 10, 7936
6, 113760, Pitch_bend_c, 10, 7936
6, 113760, Pitch_bend_c, 10, 7936
6, 113880, Pitch_bend_c, 10, 7808
6, 113880, Pitch_bend_c, 10, 7808
6, 114000, Pitch_bend_c, 10, 7680
6, 114000, Pitch_bend_c, 10, 7680
6, 114120, Pitch_bend_c, 10, 7680
6, 114120, Pitch_bend_c, 10, 7680
6, 114240, Pitch_bend_c, 10, 7552
6, 114240, Pitch_bend_c, 10, 8192
6, 114240, Note_off_c, 10, 58, 31
6, 114240, Pitch_bend_c, 10, 7552
6, 114240, Pitch_bend_c, 10, 8192
6, 114240, Note_off_c, 10, 53, 31
6, 114240, Note_on_c, 10, 57, 79
6, 114240, Note_on_c, 10, 52, 79
6, 114360, Pitch_bend_c, 10, 7936
6, 114360, Pitch_bend_c, 10, 7936
6, 114480, Pitch_bend_c, 10, 7552
6, 114480, Pitch_bend_c, 10, 7552
6, 114600, Pitch_bend_c, 10, 7168
6, 114600, Pitch_bend_c, 10, 7168
6, 114720, Pitch_bend_c, 10, 6784
6, 114720, Pitch_bend_c, 10, 8192
6, 114720, Note_off_c, 10, 57, 79
6, 114720, Pitch_bend_c, 10, 6784
6, 114720, Pitch_bend_c, 10, 8192
6, 114720, Note_off_c, 10, 52, 79
6, 114720, Note_on_c, 8, 55, 79
6, 114720, Note_on_c, 8, 50, 79
6, 115200, Note_off_c, 8, 55, 79
6, 115200, Note_off_c, 8, 50, 79
6, 122880, Note_on_c, 10, 58, 95
6, 122880, Note_on_c, 8, 53, 95
6, 123040, Pitch_bend_c, 10, 8192
6, 123200, Pitch_bend_c, 10, 8320
6, 123360, Pitch_bend_c, 10, 8192
6, 123520, Pitch_bend_c, 10, 8320
6, 123680, Pitch_bend_c, 10, 8192
6, 123840, Pitch_bend_c, 10, 8320
6, 124000, Pitch_bend_c, 10, 8192
6, 124160, Pitch_bend_c, 10, 8320
6, 124320, Pitch_bend_c, 10, 8192
6, 124480, Pitch_bend_c, 10, 8320
6, 124640, Pitch_bend_c, 10, 8192
6, 124800, Pitch_bend_c, 10, 8320
6, 124960, Pitch_bend_c, 10, 8192
6, 125120, Pitch_bend_c, 10, 8320
6, 125280, Pitch_bend_c, 10, 8192
6, 125440, Pitch_bend_c, 10, 8320
6, 125600, Pitch_bend_c, 10, 8192
6, 125760, Pitch_bend_c, 10, 8320
6, 125760, Pitch_bend_c, 10, 8192
6, 125760, Note_off_c, 10, 58, 95
6, 125760, Note_off_c, 8, 53, 95
6, 125760, Note_on_c, 10, 58, 47
6, 125760, Note_on_c, 10, 53, 47
6, 125880, Pitch_bend_c, 10, 8064
6, 125880, Pitch_bend_c, 10, 8064
6, 126000, Pitch_bend_c, 10, 7936
6, 126000, Pitch_bend_c, 10, 7936
6, 126120, Pitch_bend_c, 10, 7680
6, 126120, Pitch_bend_c, 10, 7680
6, 126240, Pitch_bend_c, 10, 7552
6, 126240, Pitch_bend_c, 10, 8192
6, 126240, Note_off_c, 10, 58, 47
6, 126240, Pitch_bend_c, 10, 7552
6, 126240, Pitch_bend_c, 10, 8192
6, 126240, Note_off_c, 10, 53, 47
6, 126240, Note_on_c, 10, 57, 95
6, 126240, Note_on_c, 8, 52, 95
6, 126360, Pitch_bend_c, 10, 7936
6, 126480, Pitch_bend_c, 10, 7552
6, 126600, Pitch_bend_c, 10, 7168
6, 126720, Pitch_bend_c, 10, 6784
6, 126720, Pitch_bend_c, 10, 8192
6, 126720, Note_off_c, 10, 57, 95
6, 126720, Note_off_c, 8, 52, 95
6, 126720, Note_on_c, 8, 55, 95
6, 130560, Note_off_c, 8, 55, 95
6, 133440, Note_on_c, 10, 60, 95
6, 133440, Note_on_c, 10, 55, 95
6, 133560, Pitch_bend_c, 10, 7936
6, 133560, Pitch_bend_c, 10, 7936
6, 133680, Pitch_bend_c, 10, 7552
6, 133680, Pitch_bend_c, 10, 7552
6, 133800, Pitch_bend_c, 10, 7168
6, 133800, Pitch_bend_c, 10, 7168
6, 133920, Pitch_bend_c, 10, 6784
6, 133920, Pitch_bend_c, 10, 8192
6, 133920, Note_off_c, 10, 60, 95
6, 133920, Pitch_bend_c, 10, 6784
6, 133920, Pitch_bend_c, 10, 8192
6, 133920, Note_off_c, 10, 55, 95
6, 133920, Note_on_c, 10, 58, 95
6, 133920, Note_on_c, 8, 53, 95
6, 134040, Pitch_bend_c, 10, 7680
6, 134160, Pitch_bend_c, 10, 7168
6, 134280, Pitch_bend_c, 10, 6656
6, 134400, Pitch_bend_c, 10, 6144
6, 134400, Pitch_bend_c, 10, 8192
6, 134400, Note_off_c, 10, 58, 95
6, 134400, Note_off_c, 8, 53, 95
6, 134400, Note_on_c, 8, 55, 95
6, 138240, Note_off_c, 8, 55, 95
6, 139560, Note_on_c, 10, 54, 95
6, 139680, Note_off_c, 10, 54, 95
6, 139680, Note_on_c, 10, 55, 95
6, 142080, Note_off_c, 10, 55, 95
6, 142080, Note_on_c, 8, 55, 47
6, 143520, Note_off_c, 8, 55, 47
6, 143520, Note_on_c, 8, 50, 95
6, 144000, Note_off_c, 8, 50, 95
6, 144960, Note_on_c, 10, 48, 95
6, 145080, Pitch_bend_c, 10, 7680
6, 145200, Pitch_bend_c, 10, 7168
6, 145320, Pitch_bend_c, 10, 6656
6, 145440, Pitch_bend_c, 10, 6144
6, 145440, Pitch_bend_c, 10, 8192
6, 145440, Note_off_c, 10, 48, 95
6, 145440, Note_on_c, 8, 45, 95
6, 145920, Note_off_c, 8, 45, 95
6, 152640, Note_on_c, 10, 58, 95
6, 152640, Note_on_c, 10, 53, 95
6, 152760, Pitch_bend_c, 10, 8320
6, 152760, Pitch_bend_c, 10, 8320
6, 152880, Pitch_bend_c, 10, 8448
6, 152880, Pitch_bend_c, 10, 8448
6, 153000, Pitch_bend_c, 10, 8704
6, 153000, Pitch_bend_c, 10, 8704
6, 153120, Pitch_bend_c, 10, 8832
6, 153120, Pitch_bend_c, 10, 8832
6, 153240, Pitch_bend_c, 10, 8960
6, 153240, Pitch_bend_c, 10, 8960
6, 153360, Pitch_bend_c, 10, 9216
6, 153360, Pitch_bend_c, 10, 9216
6, 153480, Pitch_bend_c, 10, 9344
6, 153480, Pitch_bend_c, 10, 9344
6, 153600, Pitch_bend_c, 10, 9600
6, 153600, Pitch_bend_c, 10, 8192
6, 153600, Note_off_c, 10, 58, 95
6, 153600, Pitch_bend_c, 10, 9600
6, 153600, Pitch_bend_c, 10, 8192
6, 153600, Note_off_c, 10, 53, 95
6, 153600, Note_on_c, 8, 60, 95
6, 153600, Note_on_c, 8, 55, 95
6, 154560, Note_off_c, 8, 60, 95
6, 154560, Note_off_c, 8, 55, 95
6, 154560, Note_on_c, 10, 55, 95
6, 154560, Note_on_c, 8, 50, 95
6, 154680, Pitch_bend_c, 10, 8704
6, 154800, Pitch_bend_c, 10, 9216
6, 154920, Pitch_bend_c, 10, 9728
6, 155040, Pitch_bend_c, 10, 10240
6, 155040, Pitch_bend_c, 10, 8192
6, 155040, Note_off_c, 10, 55, 95
6, 155040, Note_off_c, 8, 50, 95
6, 155040, Note_on_c, 10, 58, 95
6, 155200, Pitch_bend_c, 10, 8192
6, 155360, Pitch_bend_c, 10, 8320
6, 155520, Pitch_bend_c, 10, 8192
6, 155680, Pitch_bend_c, 10, 8320
6, 155840, Pitch_bend_c, 10, 8192
6, 156000, Pitch_bend_c, 10, 8320
6, 156160, Pitch_bend_c, 10, 8192
6, 156320, Pitch_bend_c, 10, 8320
6, 156480, Pitch_bend_c, 10, 8192
6, 156480, Pitch_bend_c, 10, 8320
6, 156480, Pitch_bend_c, 10, 8192
6, 156480, Note_off_c, 10, 58, 95
6, 156480, Note_on_c, 10, 58, 47
6, 156600, Pitch_bend_c, 10, 7680
6, 156720, Pitch_bend_c, 10, 7168
6, 156840, Pitch_bend_c, 10, 6656
6, 156960, Pitch_bend_c, 10, 6144
6, 156960, Pitch_bend_c, 10, 8192
6, 156960, Note_off_c, 10, 58, 47
6, 156960, Note_on_c, 8, 55, 95
6, 157440, Note_off_c, 8, 55, 95
6, 157440, Note_on_c, 8, 64, 95
6, 157440, Note_on_c, 8, 60, 95
6, 158400, Note_off_c, 8, 64, 95
6, 158400, Note_off_c, 8, 60, 95
6, 158400, Note_on_c, 10, 55, 95
6, 158520, Pitch_bend_c, 10, 8704
6, 158640, Pitch_bend_c, 10, 9216
6, 158760, Pitch_bend_c, 10, 9728
6, 158880, Pitch_bend_c, 10, 10240
6, 158880, Pitch_bend_c, 10, 8192
6, 158880, Note_off_c, 10, 55, 95
6, 158880, Note_on_c, 10, 58, 95
6, 159040, Pitch_bend_c, 10, 8192
6, 159200, Pitch_bend_c, 10, 8320
6, 159360, Pitch_bend_c, 10, 8192
6, 159520, Pitch_bend_c, 10, 8320
6, 159680, Pitch_bend_c, 10, 8192
6, 159840, Pitch_bend_c, 10, 8320
6, 160000, Pitch_bend_c, 10, 8192
6, 160160, Pitch_bend_c, 10, 8320
6, 160320, Pitch_bend_c, 10, 8192
6, 160320, Pitch_bend_c, 10, 8320
6, 160320, Pitch_bend_c, 10, 8192
6, 160320, Note_off_c, 10, 58, 95
6, 160320, Note_on_c, 10, 58, 95
6, 160440, Pitch_bend_c, 10, 7680
6, 160560, Pitch_bend_c, 10, 7168
6, 160680, Pitch_bend_c, 10, 6656
6, 160800, Pitch_bend_c, 10, 6144
6, 160800, Pitch_bend_c, 10, 8192
6, 160800, Note_off_c, 10, 58, 95
6, 160800, Note_on_c, 8, 55, 95
6, 161280, Note_off_c, 8, 55, 95
6, 161280, Note_on_c, 8, 64, 95
6, 161280, Note_on_c, 8, 60, 95
6, 162240, Note_off_c, 8, 64, 95
6, 162240, Note_off_c, 8, 60, 95
6, 162240, Note_on_c, 8, 55, 95
6, 162720, Note_off_c, 8, 55, 95
6, 162720, Note_on_c, 8, 58, 95
6, 163200, Note_off_c, 8, 58, 95
6, 163200, Note_on_c, 10, 58, 47
6, 163320, Pitch_bend_c, 10, 8192
6, 163440, Pitch_bend_c, 10, 8064
6, 163560, Pitch_bend_c, 10, 7936
6, 163680, Pitch_bend_c, 10, 7936
6, 163800, Pitch_bend_c, 10, 7808
6, 163920, Pitch_bend_c, 10, 7680
6, 164040, Pitch_bend_c, 10, 7680
6, 164160, Pitch_bend_c, 10, 7552
6, 164160, Pitch_bend_c, 10, 8192
6, 164160, Note_off_c, 10, 58, 47
6, 164160, Note_on_c, 8, 57, 95
6, 164640, Note_off_c, 8, 57, 95
6, 164640, Note_on_c, 8, 55, 95
6, 165120, Note_off_c, 8, 55, 95
6, 165120, Note_on_c, 8, 64, 95
6, 165120, Note_on_c, 8, 60, 95
6, 165960, Note_on_c, 10, 64, 95
6, 166080, Note_off_c, 8, 64, 95
6, 166080, Note_off_c, 8, 60, 95
6, 166080, Note_off_c, 10, 64, 95
6, 166080, Note_on_c, 10, 69, 95
6, 166240, Pitch_bend_c, 10, 8192
6, 166400, Pitch_bend_c, 10, 8320
6, 166560, Pitch_bend_c, 10, 8192
6, 166720, Pitch_bend_c, 10, 8320
6, 166880, Pitch_bend_c, 10, 8192
6, 167040, Pitch_bend_c, 10, 8320
6, 167200, Pitch_bend_c, 10, 8192
6, 167360, Pitch_bend_c, 10, 8320
6, 167520, Pitch_bend_c, 10, 8192
6, 167680, Pitch_bend_c, 10, 8320
6, 167840, Pitch_bend_c, 10, 8192
6, 168000, Pitch_bend_c, 10, 8320
6, 168160, Pitch_bend_c, 10, 8192
6, 168320, Pitch_bend_c, 10, 8320
6, 168480, Pitch_bend_c, 10, 8192
6, 168640, Pitch_bend_c, 10, 8320
6, 168800, Pitch_bend_c, 10, 8192
6, 168960, Pitch_bend_c, 10, 8320
6, 168960, Pitch_bend_c, 10, 8192
6, 168960, Note_off_c, 10, 69, 95
6, 168960, Note_on_c, 10, 69, 95
6, 169120, Pitch_bend_c, 10, 8192
6, 169280, Pitch_bend_c, 10, 8320
6, 169440, Pitch_bend_c, 10, 8192
6, 169600, Pitch_bend_c, 10, 8320
6, 169760, Pitch_bend_c, 10, 8192
6, 169920, Pitch_bend_c, 10, 8320
6, 169920, Pitch_bend_c, 10, 8192
6, 169920, Note_off_c, 10, 69, 95
6, 169920, Note_on_c, 10, 69, 47
6, 170040, Pitch_bend_c, 10, 7424
6, 170160, Pitch_bend_c, 10, 6528
6, 170280, Pitch_bend_c, 10, 5632
6, 170400, Pitch_bend_c, 10, 4736
6, 170400, Pitch_bend_c, 10, 8192
6, 170400, Note_off_c, 10, 69, 47
6, 170400, Note_on_c, 8, 64, 95
6, 172320, Note_off_c, 8, 64, 95
6, 172320, Note_on_c, 8, 67, 95
6, 172320, Note_on_c, 8, 62, 95
6, 173280, Note_off_c, 8, 67, 95
6, 173280, Note_off_c, 8, 62, 95
6, 173280, Note_on_c, 8, 62, 95
6, 173760, Note_off_c, 8, 62, 95
6, 173760, Note_on_c, 8, 67, 95
6, 174720, Note_off_c, 8, 67, 95
6, 174720, Note_on_c, 10, 58, 95
6, 174840, Pitch_bend_c, 10, 7936
6, 174960, Pitch_bend_c, 10, 7552
6, 174960, Pitch_bend_c, 10, 8192
6, 174960, Note_off_c, 10, 58, 95
6, 174960, Note_on_c, 8, 57, 95
6, 175680, Note_off_c, 8, 57, 95
6, 175680, Note_on_c, 8, 55, 95
6, 176160, Note_off_c, 8, 55, 95
6, 176160, Note_on_c, 8, 55, 95
6, 182400, Note_off_c, 8, 55, 95
6, 182400, Note_on_c, 10, 76, 95
6, 182520, Pitch_bend_c, 10, 8192
6, 182640, Pitch_bend_c, 10, 8192
6, 182760, Pitch_bend_c, 10, 8064
6, 182880, Pitch_bend_c, 10, 8064
6, 183000, Pitch_bend_c, 10, 7936
6, 183120, Pitch_bend_c, 10, 7936
6, 183240, Pitch_bend_c, 10, 7808
6, 183360, Pitch_bend_c, 10, 7808
6, 183480, Pitch_bend_c, 10, 7680
6, 183600, Pitch_bend_c, 10, 7680
6, 183720, Pitch_bend_c, 10, 7552
6, 183840, Pitch_bend_c, 10, 7552
6, 183840, Pitch_bend_c, 10, 8192
6, 183840, Note_off_c, 10, 76, 95
6, 183840, Note_on_c, 8, 75, 95
6, 184320, Note_off_c, 8, 75, 95
6, 184320, Note_on_c, 10, 75, 47
6, 184440, Pitch_bend_c, 10, 8064
6, 184560, Pitch_bend_c, 10, 7936
6, 184680, Pitch_bend_c, 10, 7680
6, 184800, Pitch_bend_c, 10, 7552
6, 184800, Pitch_bend_c, 10, 8192
6, 184800, Note_off_c, 10, 75, 47
6, 184800, Note_on_c, 8, 74, 95
6, 185280, Note_off_c, 8, 74, 95
6, 185280, Note_on_c, 8, 71, 95
6, 185760, Note_off_c, 8, 71, 95
6, 185760, Note_on_c, 8, 67, 95
6, 188800, Note_off_c, 8, 67, 95
6, 188800, Note_on_c, 8, 65, 95
6, 189440, Note_off_c, 8, 65, 95
6, 189440, Note_on_c, 8, 65, 95
6, 190080, Note_off_c, 8, 65, 95
6, 190080, Note_on_c, 8, 65, 95
6, 190560, Note_off_c, 8, 65, 95
6, 190560, Note_on_c, 8, 65, 95
6, 191040, Note_off_c, 8, 65, 95
6, 191040, Note_on_c, 8, 67, 95
6, 191520, Note_off_c, 8, 67, 95
6, 191520, Note_on_c, 10, 67, 95
6, 191680, Pitch_bend_c, 10, 8192
6, 191840, Pitch_bend_c, 10, 8320
6, 192000, Pitch_bend_c, 10, 8192
6, 192160, Pitch_bend_c, 10, 8320
6, 192320, Pitch_bend_c, 10, 8192
6, 192480, Pitch_bend_c, 10, 8320
6, 192640, Pitch_bend_c, 10, 8192
6, 192800, Pitch_bend_c, 10, 8320
6, 192960, Pitch_bend_c, 10, 8192
6, 193120, Pitch_bend_c, 10, 8320
6, 193280, Pitch_bend_c, 10, 8192
6, 193440, Pitch_bend_c, 10, 8320
6, 193600, Pitch_bend_c, 10, 8192
6, 193760, Pitch_bend_c, 10, 8320
6, 193920, Pitch_bend_c, 10, 8192
6, 194080, Pitch_bend_c, 10, 8320
6, 194240, Pitch_bend_c, 10, 8192
6, 194400, Pitch_bend_c, 10, 8320
6, 194560, Pitch_bend_c, 10, 8192
6, 194720, Pitch_bend_c, 10, 8320
6, 194880, Pitch_bend_c, 10, 8192
6, 194880, Pitch_bend_c, 10, 8320
6, 194880, Pitch_bend_c, 10, 8192
6, 194880, Note_off_c, 10, 67, 95
6, 194880, Note_on_c, 10, 67, 47
6, 195000, Pitch_bend_c, 10, 6144
6, 195120, Pitch_bend_c, 10, 3968
6, 195240, Pitch_bend_c, 10, 1920
6, 195360, Pitch_bend_c, 10, 0
6, 195360, Pitch_bend_c, 10, 8192
6, 195360, Note_off_c, 10, 67, 47
6, 195360, Note_on_c, 8, 55, 95
6, 198240, Note_off_c, 8, 55, 95
6, 198240, Note_on_c, 10, 76, 95
6, 198360, Pitch_bend_c, 10, 8192
6, 198480, Pitch_bend_c, 10, 8192
6, 198600, Pitch_bend_c, 10, 8064
6, 198720, Pitch_bend_c, 10, 8064
6, 198840, Pitch_bend_c, 10, 7936
6, 198960, Pitch_bend_c, 10, 7936
6, 199080, Pitch_bend_c, 10, 7808
6, 199200, Pitch_bend_c, 10, 7808
6, 199320, Pitch_bend_c, 10, 7680
6, 199440, Pitch_bend_c, 10, 7680
6, 199560, Pitch_bend_c, 10, 7552
6, 199680, Pitch_bend_c, 10, 7552
6, 199680, Pitch_bend_c, 10, 8192
6, 199680, Note_off_c, 10, 76, 95
6, 199680, Note_on_c, 10, 75, 95
6, 199800, Pitch_bend_c, 10, 8064
6, 199920, Pitch_bend_c, 10, 7936
6, 200040, Pitch_bend_c, 10, 7680
6, 200160, Pitch_bend_c, 10, 7552
6, 200160, Pitch_bend_c, 10, 8192
6, 200160, Note_off_c, 10, 75, 95
6, 200160, Note_on_c, 8, 74, 95
6, 200640, Note_off_c, 8, 74, 95
6, 200640, Note_on_c, 8, 71, 95
6, 201120, Note_off_c, 8, 71, 95
6, 201120, Note_on_c, 10, 67, 95
6, 201280, Pitch_bend_c, 10, 8192
6, 201440, Pitch_bend_c, 10, 8320
6, 201600, Pitch_bend_c, 10, 8192
6, 201760, Pitch_bend_c, 10, 8320
6, 201920, Pitch_bend_c, 10, 8192
6, 202080, Pitch_bend_c, 10, 8320
6, 202240, Pitch_bend_c, 10, 8192
6, 202400, Pitch_bend_c, 10, 8320
6, 202560, Pitch_bend_c, 10, 8192
6, 202720, Pitch_bend_c, 10, 8320
6, 202880, Pitch_bend_c, 10, 8192
6, 203040, Pitch_bend_c, 10, 8320
6, 203040, Pitch_bend_c, 10, 8192
6, 203040, Note_off_c, 10, 67, 95
6, 203040, Note_on_c, 8, 79, 95
6, 203520, Note_off_c, 8, 79, 95
6, 203520, Note_on_c, 10, 79, 47
6, 203640, Pitch_bend_c, 10, 8064
6, 203760, Pitch_bend_c, 10, 7936
6, 203880, Pitch_bend_c, 10, 7680
6, 204000, Pitch_bend_c, 10, 7552
6, 204000, Pitch_bend_c, 10, 8192
6, 204000, Note_off_c, 10, 79, 47
6, 204000, Note_on_c, 8, 78, 95
6, 204240, Note_off_c, 8, 78, 95
6, 204240, Note_on_c, 8, 64, 95
6, 204360, Note_on_c, 10, 73, 95
6, 204480, Note_off_c, 8, 64, 95
6, 204480, Note_off_c, 10, 73, 95
6, 204480, Note_on_c, 10, 74, 95
6, 204600, Pitch_bend_c, 10, 7936
6, 204720, Pitch_bend_c, 10, 7552
6, 204840, Pitch_bend_c, 10, 7168
6, 204960, Pitch_bend_c, 10, 6784
6, 204960, Pitch_bend_c, 10, 8192
6, 204960, Note_off_c, 10, 74, 95
6, 204960, Note_on_c, 8, 72, 95
6, 205440, Note_off_c, 8, 72, 95
6, 205440, Note_on_c, 10, 70, 95
6, 205560, Pitch_bend_c, 10, 8320
6, 205680, Pitch_bend_c, 10, 8448
6, 205800, Pitch_bend_c, 10, 8704
6, 205920, Pitch_bend_c, 10, 8832
6, 205920, Pitch_bend_c, 10, 8192
6, 205920, Note_off_c, 10, 70, 95
6, 205920, Note_on_c, 8, 71, 95
6, 206400, Note_off_c, 8, 71, 95
6, 206400, Note_on_c, 8, 67, 95
6, 206880, Note_off_c, 8, 67, 95
6, 206880, Note_on_c, 10, 67, 95
6, 207040, Pitch_bend_c, 10, 8192
6, 207200, Pitch_bend_c, 10, 8320
6, 207360, Pitch_bend_c, 10, 8192
6, 207520, Pitch_bend_c, 10, 8320
6, 207680, Pitch_bend_c, 10, 8192
6, 207840, Pitch_bend_c, 10, 8320
6, 208000, Pitch_bend_c, 10, 8192
6, 208160, Pitch_bend_c, 10, 8320
6, 208320, Pitch_bend_c, 10, 8192
6, 208480, Pitch_bend_c, 10, 8320
6, 208640, Pitch_bend_c, 10, 8192
6, 208800, Pitch_bend_c, 10, 8320
6, 208960, Pitch_bend_c, 10, 8192
6, 209120, Pitch_bend_c, 10, 8320
6, 209280, Pitch_bend_c, 10, 8192
6, 209280, Pitch_bend_c, 10, 8320
6, 209280, Pitch_bend_c, 10, 8192
6, 209280, Note_off_c, 10, 67, 95
6, 209280, Note_on_c, 8, 55, 95
6, 209760, Note_off_c, 8, 55, 95
6, 209760, Note_on_c, 8, 69, 95
6, 209760, Note_on_c, 8, 65, 95
6, 211200, Note_off_c, 8, 69, 95
6, 211200, Note_off_c, 8, 65, 95
6, 211200, Note_on_c, 10, 69, 47
6, 211200, Note_on_c, 10, 65, 47
6, 211320, Pitch_bend_c, 10, 8320
6, 211320, Pitch_bend_c, 10, 8320
6, 211440, Pitch_bend_c, 10, 8448
6, 211440, Pitch_bend_c, 10, 8448
6, 211560, Pitch_bend_c, 10, 8704
6, 211560, Pitch_bend_c, 10, 8704
6, 211680, Pitch_bend_c, 10, 8832
6, 211680, Pitch_bend_c, 10, 8832
6, 211800, Pitch_bend_c, 10, 8960
6, 211800, Pitch_bend_c, 10, 8960
6, 211920, Pitch_bend_c, 10, 9216
6, 211920, Pitch_bend_c, 10, 9216
6, 212040, Pitch_bend_c, 10, 9344
6, 212040, Pitch_bend_c, 10, 9344
6, 212160, Pitch_bend_c, 10, 9600
6, 212160, Pitch_bend_c, 10, 8192
6, 212160, Note_off_c, 10, 69, 47
6, 212160, Pitch_bend_c, 10, 9600
6, 212160, Pitch_bend_c, 10, 8192
6, 212160, Note_off_c, 10, 65, 47
6, 212160, Note_on_c, 8, 71, 95
6, 212160, Note_on_c, 8, 67, 95
6, 212640, Note_off_c, 8, 71, 95
6, 212640, Note_off_c, 8, 67, 95
6, 212640, Note_on_c, 10, 67, 95
6, 212800, Pitch_bend_c, 10, 8192
6, 212960, Pitch_bend_c, 10, 8320
6, 213120, Pitch_bend_c, 10, 8192
6, 213280, Pitch_bend_c, 10, 8320
6, 213440, Pitch_bend_c, 10, 8192
6, 213600, Pitch_bend_c, 10, 8320
6, 213760, Pitch_bend_c, 10, 8192
6, 213920, Pitch_bend_c, 10, 8320
6, 214080, Pitch_bend_c, 10, 8192
6, 214080, Pitch_bend_c, 10, 8320
6, 214080, Pitch_bend_c, 10, 8192
6, 214080, Note_off_c, 10, 67, 95
6, 214080, Note_on_c, 10, 55, 95
6, 214080, Note_on_c, 10, 50, 95
6, 214200, Pitch_bend_c, 10, 8448
6, 214200, Pitch_bend_c, 10, 8448
6, 214320, Pitch_bend_c, 10, 8704
6, 214320, Pitch_bend_c, 10, 8704
6, 214440, Pitch_bend_c, 10, 8960
6, 214440, Pitch_bend_c, 10, 8960
6, 214560, Pitch_bend_c, 10, 9216
6, 214560, Pitch_bend_c, 10, 9216
6, 214680, Pitch_bend_c, 10, 9472
6, 214680, Pitch_bend_c, 10, 9472
6, 214800, Pitch_bend_c, 10, 9728
6, 214800, Pitch_bend_c, 10, 9728
6, 214920, Pitch_bend_c, 10, 9984
6, 214920, Pitch_bend_c, 10, 9984
6, 215040, Pitch_bend_c, 10, 10240
6, 215040, Pitch_bend_c, 10, 8192
6, 215040, Note_off_c, 10, 55, 95
6, 215040, Pitch_bend_c, 10, 10240
6, 215040, Pitch_bend_c, 10, 8192
6, 215040, Note_off_c, 10, 50, 95
6, 215040, Note_on_c, 8, 58, 95
6, 215040, Note_on_c, 10, 53, 95
6, 215200, Pitch_bend_c, 10, 8192
6, 215360, Pitch_bend_c, 10, 8320
6, 215520, Pitch_bend_c, 10, 8192
6, 215680, Pitch_bend_c, 10, 8320
6, 215840, Pitch_bend_c, 10, 8192
6, 216000, Pitch_bend_c, 10, 8320
6, 216160, Pitch_bend_c, 10, 8192
6, 216320, Pitch_bend_c, 10, 8320
6, 216480, Pitch_bend_c, 10, 8192
6, 216640, Pitch_bend_c, 10, 8320
6, 216800, Pitch_bend_c, 10, 8192
6, 216960, Pitch_bend_c, 10, 8320
6, 217120, Pitch_bend_c, 10, 8192
6, 217200, Note_off_c, 8, 58, 95
6, 217200, Pitch_bend_c, 10, 8320
6, 217200, Pitch_bend_c, 10, 8192
6, 217200, Note_off_c, 10, 53, 95
6, 217200, Note_on_c, 8, 62, 95
6, 217200, Note_on_c, 8, 58, 95
6, 217920, Note_off_c, 8, 62, 95
6, 217920, Note_off_c, 8, 58, 95
6, 217920, Note_on_c, 10, 60, 95
6, 218040, Pitch_bend_c, 10, 8064
6, 218160, Pitch_bend_c, 10, 7808
6, 218280, Pitch_bend_c, 10, 7552
6, 218400, Pitch_bend_c, 10, 7296
6, 218520, Pitch_bend_c, 10, 7040
6, 218640, Pitch_bend_c, 10, 6784
6, 218640, Pitch_bend_c, 10, 8192
6, 218640, Note_off_c, 10, 60, 95
6, 218640, Note_on_c, 8, 58, 95
6, 218880, Note_off_c, 8, 58, 95
6, 218880, Note_on_c, 8, 55, 95
6, 221440, Note_off_c, 8, 55, 95
6, 221440, Note_on_c, 8, 58, 95
6, 222080, Note_off_c, 8, 58, 95
6, 222080, Note_on_c, 8, 58, 95
6, 222720, Note_off_c, 8, 58, 95
6, 222720, Note_on_c, 8, 58, 95
6, 223680, Note_off_c, 8, 58, 95
6, 223680, Note_on_c, 10, 58, 47
6, 223800, Pitch_bend_c, 10, 8448
6, 223920, Pitch_bend_c, 10, 8832
6, 224040, Pitch_bend_c, 10, 9216
6, 224160, Pitch_bend_c, 10, 9600
6, 224160, Pitch_bend_c, 10, 8192
6, 224160, Note_off_c, 10, 58, 47
6, 224160, Note_on_c, 8, 60, 95
6, 224640, Note_off_c, 8, 60, 95
6, 224640, Note_on_c, 10, 60, 47
6, 224760, Pitch_bend_c, 10, 8448
6, 224880, Pitch_bend_c, 10, 8832
6, 225000, Pitch_bend_c, 10, 9216
6, 225120, Pitch_bend_c, 10, 9600
6, 225120, Pitch_bend_c, 10, 8192
6, 225120, Note_off_c, 10, 60, 47
6, 225120, Note_on_c, 10, 62, 95
6, 225280, Pitch_bend_c, 10, 6784
6, 225280, Pitch_bend_c, 10, 8192
6, 225280, Note_off_c, 10, 62, 95
6, 225280, Note_on_c, 8, 60, 95
6, 225440, Note_off_c, 8, 60, 95
6, 225440, Note_on_c, 8, 55, 95
6, 225600, Note_off_c, 8, 55, 95
6, 225600, Note_on_c, 10, 58, 95
6, 225720, Pitch_bend_c, 10, 8192
6, 225840, Pitch_bend_c, 10, 8320
6, 225960, Pitch_bend_c, 10, 8448
6, 226080, Pitch_bend_c, 10, 8576
6, 226200, Pitch_bend_c, 10, 8704
6, 226320, Pitch_bend_c, 10, 8832
6, 226320, Pitch_bend_c, 10, 8192
6, 226320, Note_off_c, 10, 58, 95
6, 226320, Note_on_c, 8, 59, 95
6, 226560, Note_off_c, 8, 59, 95
6, 226560, Note_on_c, 10, 55, 95
6, 226720, Pitch_bend_c, 10, 8192
6, 226880, Pitch_bend_c, 10, 8320
6, 227040, Pitch_bend_c, 10, 8192
6, 227200, Pitch_bend_c, 10, 8320
6, 227360, Pitch_bend_c, 10, 8192
6, 227520, Pitch_bend_c, 10, 8320
6, 227680, Pitch_bend_c, 10, 8192
6, 227840, Pitch_bend_c, 10, 8320
6, 228000, Pitch_bend_c, 10, 8192
6, 228000, Pitch_bend_c, 10, 8320
6, 228000, Pitch_bend_c, 10, 8192
6, 228000, Note_off_c, 10, 55, 95
6, 228000, Note_on_c, 8, 53, 95
6, 228240, Note_off_c, 8, 53, 95
6, 228240, Note_on_c, 8, 50, 70
6, 228480, Note_off_c, 8, 50, 70
6, 228480, Note_on_c, 8, 53, 95
6, 229440, Note_off_c, 8, 53, 95
6, 229440, Note_on_c, 10, 50, 95
6, 229560, Pitch_bend_c, 10, 7552
6, 229680, Pitch_bend_c, 10, 6784
6, 229680, Pitch_bend_c, 10, 8192
6, 229680, Note_off_c, 10, 50, 95
6, 229680, Note_on_c, 8, 48, 95
6, 230400, Note_off_c, 8, 48, 95
6, 230400, Note_on_c, 8, 45, 95
6, 231840, Note_off_c, 8, 45, 95
6, 231840, Note_on_c, 8, 64, 95
6, 232080, Note_off_c, 8, 64, 95
6, 232080, Note_on_c, 8, 66, 95
6, 232320, Note_off_c, 8, 66, 95
6, 232320, Note_on_c, 8, 69, 95
6, 232320, Note_on_c, 10, 59, 95
6, 232480, Pitch_bend_c, 10, 8192
6, 232640, Pitch_bend_c, 10, 8320
6, 232800, Pitch_bend_c, 10, 8192
6, 232960, Pitch_bend_c, 10, 8320
6, 233120, Pitch_bend_c, 10, 8192
6, 233280, Pitch_bend_c, 10, 8320
6, 233440, Pitch_bend_c, 10, 8192
6, 233600, Pitch_bend_c, 10, 8320
6, 233760, Pitch_bend_c, 10, 8192
6, 233920, Pitch_bend_c, 10, 8320
6, 234080, Pitch_bend_c, 10, 8192
6, 234240, Note_off_c, 8, 69, 95
6, 234240, Pitch_bend_c, 10, 8320
6, 234240, Pitch_bend_c, 10, 8192
6, 234240, Note_off_c, 10, 59, 95
6, 234240, Note_on_c, 8, 59, 47
6, 234560, Note_off_c, 8, 59, 47
6, 234560, Note_on_c, 8, 67, 95
6, 234880, Note_off_c, 8, 67, 95
6, 234880, Note_on_c, 8, 64, 70
6, 235200, Note_off_c, 8, 64, 70
6, 235200, Note_on_c, 8, 67, 95
6, 235520, Note_off_c, 8, 67, 95
6, 235520, Note_on_c, 8, 64, 70
6, 235840, Note_off_c, 8, 64, 70
6, 235840, Note_on_c, 8, 67, 95
6, 236160, Note_off_c, 8, 67, 95
6, 236160, Note_on_c, 8, 64, 70
6, 236480, Note_off_c, 8, 64, 70
6, 236480, Note_on_c, 8, 62, 95
6, 236800, Note_off_c, 8, 62, 95
6, 236800, Note_on_c, 8, 64, 95
6, 237120, Note_off_c, 8, 64, 95
6, 237120, Note_on_c, 8, 62, 95
6, 237440, Note_off_c, 8, 62, 95
6, 237440, Note_on_c, 8, 61, 95
6, 237760, Note_off_c, 8, 61, 95
6, 237760, Note_on_c, 8, 58, 95
6, 238560, Note_off_c, 8, 58, 95
6, 238560, Note_on_c, 8, 55, 95
6, 238800, Note_off_c, 8, 55, 95
6, 238800, Note_on_c, 8, 50, 95
6, 239040, Note_off_c, 8, 50, 95
6, 239040, Note_on_c, 8, 55, 95
6, 239520, Note_off_c, 8, 55, 95
6, 239520, Note_on_c, 10, 55, 95
6, 239680, Pitch_bend_c, 10, 8192
6, 239840, Pitch_bend_c, 10, 8320
6, 240000, Pitch_bend_c, 10, 8192
6, 240000, Pitch_bend_c, 10, 8320
6, 240000, Pitch_bend_c, 10, 8192
6, 240000, Note_off_c, 10, 55, 95
6, 240000, Note_on_c, 10, 55, 47
6, 240120, Pitch_bend_c, 10, 7936
6, 240240, Pitch_bend_c, 10, 7552
6, 240360, Pitch_bend_c, 10, 7168
6, 240480, Pitch_bend_c, 10, 6784
6, 240480, Pitch_bend_c, 10, 8192
6, 240480, Note_off_c, 10, 55, 47
6, 240480, Note_on_c, 8, 53, 95
6, 240720, Note_off_c, 8, 53, 95
6, 240720, Note_on_c, 8, 50, 95
6, 240960, Note_off_c, 8, 50, 95
6, 240960, Note_on_c, 8, 50, 95
6, 241200, Note_off_c, 8, 50, 95
6, 241200, Note_on_c, 8, 50, 95
6, 241440, Note_off_c, 8, 50, 95
6, 241440, Note_on_c, 8, 48, 95
6, 241920, Note_off_c, 8, 48, 95
6, 241920, Note_on_c, 8, 50, 95
6, 241920, Note_on_c, 8, 45, 95
6, 243840, Note_off_c, 8, 50, 95
6, 243840, Note_off_c, 8, 45, 95
6, 243840, Note_on_c, 10, 79, 95
6, 243840, Note_on_c, 10, 74, 95
6, 243840, Note_on_c, 10, 70, 95
6, 243960, Pitch_bend_c, 10, 7680
6, 243960, Pitch_bend_c, 10, 7680
6, 244080, Pitch_bend_c, 10, 7168
6, 244080, Pitch_bend_c, 10, 7168
6, 244200, Pitch_bend_c, 10, 6656
6, 244200, Pitch_bend_c, 10, 6656
6, 244320, Pitch_bend_c, 10, 6144
6, 244320, Pitch_bend_c, 10, 6144
6, 244440, Pitch_bend_c, 10, 5632
6, 244440, Pitch_bend_c, 10, 5632
6, 244560, Pitch_bend_c, 10, 5120
6, 244560, Pitch_bend_c, 10, 5120
6, 244680, Pitch_bend_c, 10, 4608
6, 244680, Pitch_bend_c, 10, 4608
6, 244800, Pitch_bend_c, 10, 3968
6, 244800, Pitch_bend_c, 10, 3968
6, 244920, Pitch_bend_c, 10, 3456
6, 244920, Pitch_bend_c, 10, 3456
6, 245040, Pitch_bend_c, 10, 2944
6, 245040, Pitch_bend_c, 10, 2944
6, 245160, Pitch_bend_c, 10, 2432
6, 245160, Pitch_bend_c, 10, 2432
6, 245280, Pitch_bend_c, 10, 1920
6, 245280, Pitch_bend_c, 10, 1920
6, 245400, Pitch_bend_c, 10, 1408
6, 245400, Pitch_bend_c, 10, 1408
6, 245520, Pitch_bend_c, 10, 896
6, 245520, Pitch_bend_c, 10, 896
6, 245640, Pitch_bend_c, 10, 384
6, 245640, Pitch_bend_c, 10, 384
6, 245760, Note_off_c, 10, 79, 95
6, 245760, Pitch_bend_c, 10, 0
6, 245760, Pitch_bend_c, 10, 8192
6, 245760, Note_off_c, 10, 74, 95
6, 245760, Pitch_bend_c, 10, 0
6, 245760, Pitch_bend_c, 10, 8192
6, 245760, Note_off_c, 10, 70, 95
6, 245760, Note_on_c, 10, 62, 95
6, 245760, Note_on_c, 10, 58, 95
6, 245880, Pitch_bend_c, 10, 8064
6, 245880, Pitch_bend_c, 10, 8064
6, 246000, Pitch_bend_c, 10, 7936
6, 246000, Pitch_bend_c, 10, 7936
6, 246120, Pitch_bend_c, 10, 7680
6, 246120, Pitch_bend_c, 10, 7680
6, 246240, Pitch_bend_c, 10, 7552
6, 246240, Pitch_bend_c, 10, 8192
6, 246240, Note_off_c, 10, 62, 95
6, 246240, Pitch_bend_c, 10, 7552
6, 246240, Pitch_bend_c, 10, 8192
6, 246240, Note_off_c, 10, 58, 95
6, 246240, Note_on_c, 8, 61, 95
6, 246240, Note_on_c, 8, 57, 95
6, 246720, Note_off_c, 8, 61, 95
6, 246720, Note_off_c, 8, 57, 95
6, 246720, Note_on_c, 8, 59, 95
6, 246720, Note_on_c, 8, 55, 95
6, 246720, Note_on_c, 8, 50, 95
6, 249600, Note_off_c, 8, 59, 95
6, 249600, Note_off_c, 8, 55, 95
6, 249600, Note_off_c, 8, 50, 95
6, 249600, Note_on_c, 8, 53, 95
6, 249600, Note_on_c, 8, 48, 95
6, 253440, Note_off_c, 8, 53, 95
6, 253440, Note_off_c, 8, 48, 95
6, 306240, Note_on_c, 10, 57, 95
6, 306240, Note_on_c, 10, 52, 95
6, 306360, Pitch_bend_c, 10, 8704
6, 306360, Pitch_bend_c, 10, 8704
6, 306480, Pitch_bend_c, 10, 9216
6, 306480, Pitch_bend_c, 10, 9216
6, 306600, Pitch_bend_c, 10, 9728
6, 306600, Pitch_bend_c, 10, 9728
6, 306720, Pitch_bend_c, 10, 10240
6, 306720, Pitch_bend_c, 10, 8192
6, 306720, Note_off_c, 10, 57, 95
6, 306720, Pitch_bend_c, 10, 10240
6, 306720, Pitch_bend_c, 10, 8192
6, 306720, Note_off_c, 10, 52, 95
6, 306720, Note_on_c, 8, 60, 95
6, 306720, Note_on_c, 8, 55, 95
6, 307200, Note_off_c, 8, 60, 95
6, 307200, Note_off_c, 8, 55, 95
6, 307200, Note_on_c, 8, 60, 95
6, 307200, Note_on_c, 8, 55, 95
6, 308160, Note_off_c, 8, 60, 95
6, 308160, Note_off_c, 8, 55, 95
6, 308160, Note_on_c, 10, 55, 95
6, 308280, Pitch_bend_c, 10, 8704
6, 308400, Pitch_bend_c, 10, 9216
6, 308520, Pitch_bend_c, 10, 9728
6, 308640, Pitch_bend_c, 10, 10240
6, 308640, Pitch_bend_c, 10, 8192
6, 308640, Note_off_c, 10, 55, 95
6, 308640, Note_on_c, 10, 58, 95
6, 308800, Pitch_bend_c, 10, 8192
6, 308960, Pitch_bend_c, 10, 8320
6, 309120, Pitch_bend_c, 10, 8192
6, 309280, Pitch_bend_c, 10, 8320
6, 309440, Pitch_bend_c, 10, 8192
6, 309600, Pitch_bend_c, 10, 8320
6, 309760, Pitch_bend_c, 10, 8192
6, 309920, Pitch_bend_c, 10, 8320
6, 310080, Pitch_bend_c, 10, 8192
6, 310240, Pitch_bend_c, 10, 8320
6, 310400, Pitch_bend_c, 10, 8192
6, 310560, Pitch_bend_c, 10, 8320
6, 310560, Pitch_bend_c, 10, 8192
6, 310560, Note_off_c, 10, 58, 95
6, 310560, Note_on_c, 8, 55, 95
6, 311040, Note_off_c, 8, 55, 95
6, 311040, Note_on_c, 8, 60, 95
6, 311040, Note_on_c, 8, 55, 95
6, 312000, Note_off_c, 8, 60, 95
6, 312000, Note_off_c, 8, 55, 95
6, 312000, Note_on_c, 10, 55, 95
6, 312000, Note_on_c, 8, 50, 95
6, 312120, Pitch_bend_c, 10, 8704
6, 312240, Pitch_bend_c, 10, 9216
6, 312360, Pitch_bend_c, 10, 9728
6, 312480, Pitch_bend_c, 10, 10240
6, 312480, Pitch_bend_c, 10, 8192
6, 312480, Note_off_c, 10, 55, 95
6, 312480, Note_off_c, 8, 50, 95
6, 312480, Note_on_c, 10, 58, 95
6, 312640, Pitch_bend_c, 10, 8192
6, 312800, Pitch_bend_c, 10, 8320
6, 312960, Pitch_bend_c, 10, 8192
6, 313120, Pitch_bend_c, 10, 8320
6, 313280, Pitch_bend_c, 10, 8192
6, 313440, Pitch_bend_c, 10, 8320
6, 313600, Pitch_bend_c, 10, 8192
6, 313760, Pitch_bend_c, 10, 8320
6, 313920, Pitch_bend_c, 10, 8192
6, 313920, Pitch_bend_c, 10, 8320
6, 313920, Pitch_bend_c, 10, 8192
6, 313920, Note_off_c, 10, 58, 95
6, 313920, Note_on_c, 10, 58, 47
6, 314040, Pitch_bend_c, 10, 7680
6, 314160, Pitch_bend_c, 10, 7168
6, 314280, Pitch_bend_c, 10, 6656
6, 314400, Pitch_bend_c, 10, 6144
6, 314400, Pitch_bend_c, 10, 8192
6, 314400, Note_off_c, 10, 58, 47
6, 314400, Note_on_c, 8, 55, 95
6, 314880, Note_off_c, 8, 55, 95
6, 314880, Note_on_c, 8, 60, 95
6, 315840, Note_off_c, 8, 60, 95
6, 315840, Note_on_c, 10, 55, 95
6, 315960, Pitch_bend_c, 10, 8704
6, 316080, Pitch_bend_c, 10, 9216
6, 316200, Pitch_bend_c, 10, 9728
6, 316320, Pitch_bend_c, 10, 10240
6, 316320, Pitch_bend_c, 10, 8192
6, 316320, Note_off_c, 10, 55, 95
6, 316320, Note_on_c, 8, 58, 95
6, 316800, Note_off_c, 8, 58, 95
6, 316800, Note_on_c, 10, 58, 47
6, 316920, Pitch_bend_c, 10, 8192
6, 317040, Pitch_bend_c, 10, 8064
6, 317160, Pitch_bend_c, 10, 7936
6, 317280, Pitch_bend_c, 10, 7936
6, 317400, Pitch_bend_c, 10, 7808
6, 317520, Pitch_bend_c, 10, 7680
6, 317640, Pitch_bend_c, 10, 7680
6, 317760, Pitch_bend_c, 10, 7552
6, 317760, Pitch_bend_c, 10, 8192
6, 317760, Note_off_c, 10, 58, 47
6, 317760, Note_on_c, 8, 57, 95
6, 318240, Note_off_c, 8, 57, 95
6, 318240, Note_on_c, 8, 55, 95
6, 318720, Note_off_c, 8, 55, 95
6, 318720, Note_on_c, 10, 60, 95
6, 318880, Pitch_bend_c, 10, 8192
6, 319040, Pitch_bend_c, 10, 8320
6, 319200, Pitch_bend_c, 10, 8192
6, 319360, Pitch_bend_c, 10, 8320
6, 319520, Pitch_bend_c, 10, 8192
6, 319680, Pitch_bend_c, 10, 8320
6, 319840, Pitch_bend_c, 10, 8192
6, 320000, Pitch_bend_c, 10, 8320
6, 320160, Pitch_bend_c, 10, 8192
6, 320320, Pitch_bend_c, 10, 8320
6, 320480, Pitch_bend_c, 10, 8192
6, 320640, Pitch_bend_c, 10, 8320
6, 320800, Pitch_bend_c, 10, 8192
6, 320960, Pitch_bend_c, 10, 8320
6, 321120, Pitch_bend_c, 10, 8192
6, 321280, Pitch_bend_c, 10, 8320
6, 321440, Pitch_bend_c, 10, 8192
6, 321600, Pitch_bend_c, 10, 8320
6, 321760, Pitch_bend_c, 10, 8192
6, 321920, Pitch_bend_c, 10, 8320
6, 322080, Pitch_bend_c, 10, 8192
6, 322080, Pitch_bend_c, 10, 8320
6, 322080, Pitch_bend_c, 10, 8192
6, 322080, Note_off_c, 10, 60, 95
6, 322080, Note_on_c, 10, 58, 95
6, 322080, Note_on_c, 10, 53, 95
6, 322200, Pitch_bend_c, 10, 7936
6, 322200, Pitch_bend_c, 10, 7936
6, 322320, Pitch_bend_c, 10, 7552
6, 322320, Pitch_bend_c, 10, 8192
6, 322320, Note_off_c, 10, 58, 95
6, 322320, Pitch_bend_c, 10, 7552
6, 322320, Pitch_bend_c, 10, 8192
6, 322320, Note_off_c, 10, 53, 95
6, 322320, Note_on_c, 10, 57, 95
6, 322320, Note_on_c, 10, 52, 95
6, 322440, Pitch_bend_c, 10, 8448
6, 322440, Pitch_bend_c, 10, 8448
6, 322560, Pitch_bend_c, 10, 8832
6, 322560, Pitch_bend_c, 10, 8192
6, 322560, Note_off_c, 10, 57, 95
6, 322560, Pitch_bend_c, 10, 8832
6, 322560, Pitch_bend_c, 10, 8192
6, 322560, Note_off_c, 10, 52, 95
6, 322560, Note_on_c, 8, 58, 95
6, 322560, Note_on_c, 8, 53, 95
6, 324000, Note_off_c, 8, 58, 95
6, 324000, Note_off_c, 8, 53, 95
6, 324000, Note_on_c, 8, 55, 95
6, 326400, Note_off_c, 8, 55, 95
6, 326400, Note_on_c, 8, 55, 47
6, 334080, Note_off_c, 8, 55, 47
6, 335280, Note_on_c, 10, 60, 95
6, 335400, Pitch_bend_c, 10, 8320
6, 335520, Pitch_bend_c, 10, 8576
6, 335640, Pitch_bend_c, 10, 8832
6, 335760, Pitch_bend_c, 10, 9088
6, 335880, Pitch_bend_c, 10, 9344
6, 336000, Pitch_bend_c, 10, 9600
6, 336000, Pitch_bend_c, 10, 8192
6, 336000, Note_off_c, 10, 60, 95
6, 336000, Note_on_c, 8, 62, 95
6, 336640, Note_off_c, 8, 62, 95
6, 336640, Note_on_c, 10, 65, 95
6, 336768, Pitch_bend_c, 10, 8448
6, 336896, Pitch_bend_c, 10, 8704
6, 337024, Pitch_bend_c, 10, 8960
6, 337152, Pitch_bend_c, 10, 9216
6, 337280, Pitch_bend_c, 10, 9600
6, 337280, Pitch_bend_c, 10, 8192
6, 337280, Note_off_c, 10, 65, 95
6, 337280, Note_on_c, 8, 67, 95
6, 337920, Note_off_c, 8, 67, 95
6, 337920, Note_on_c, 10, 67, 95
6, 338080, Pitch_bend_c, 10, 8192
6, 338240, Pitch_bend_c, 10, 8320
6, 338400, Pitch_bend_c, 10, 8192
6, 338560, Pitch_bend_c, 10, 8320
6, 338720, Pitch_bend_c, 10, 8192
6, 338880, Pitch_bend_c, 10, 8320
6, 339040, Pitch_bend_c, 10, 8192
6, 339200, Pitch_bend_c, 10, 8320
6, 339360, Pitch_bend_c, 10, 8192
6, 339520, Pitch_bend_c, 10, 8320
6, 339680, Pitch_bend_c, 10, 8192
6, 339840, Pitch_bend_c, 10, 8320
6, 340000, Pitch_bend_c, 10, 8192
6, 340160, Pitch_bend_c, 10, 8320
6, 340320, Pitch_bend_c, 10, 8192
6, 340480, Pitch_bend_c, 10, 8320
6, 340640, Pitch_bend_c, 10, 8192
6, 340800, Pitch_bend_c, 10, 8320
6, 340960, Pitch_bend_c, 10, 8192
6, 341120, Pitch_bend_c, 10, 8320
6, 341280, Pitch_bend_c, 10, 8192
6, 341440, Pitch_bend_c, 10, 8320
6, 341600, Pitch_bend_c, 10, 8192
6, 341760, Pitch_bend_c, 10, 8320
6, 341920, Pitch_bend_c, 10, 8192
6, 342080, Pitch_bend_c, 10, 8320
6, 342240, Pitch_bend_c, 10, 8192
6, 342400, Pitch_bend_c, 10, 8320
6, 342560, Pitch_bend_c, 10, 8192
6, 342720, Pitch_bend_c, 10, 8320
6, 342720, Pitch_bend_c, 10, 8192
6, 342720, Note_off_c, 10, 67, 95
6, 342720, Note_on_c, 8, 55, 47
6, 343200, Note_off_c, 8, 55, 47
6, 343200, Note_on_c, 8, 70, 95
6, 343680, Note_off_c, 8, 70, 95
6, 343680, Note_on_c, 10, 70, 47
6, 343800, Pitch_bend_c, 10, 8064
6, 343920, Pitch_bend_c, 10, 7936
6, 344040, Pitch_bend_c, 10, 7680
6, 344160, Pitch_bend_c, 10, 7552
6, 344160, Pitch_bend_c, 10, 8192
6, 344160, Note_off_c, 10, 70, 47
6, 344160, Note_on_c, 8, 69, 95
6, 344640, Note_off_c, 8, 69, 95
6, 344640, Note_on_c, 8, 67, 95
6, 345120, Note_off_c, 8, 67, 95
6, 345120, Note_on_c, 8, 67, 95
6, 345600, Note_off_c, 8, 67, 95
6, 345600, Note_on_c, 10, 67, 47
6, 345760, Pitch_bend_c, 10, 8192
6, 345920, Pitch_bend_c, 10, 8320
6, 346080, Pitch_bend_c, 10, 8192
6, 346240, Pitch_bend_c, 10, 8320
6, 346400, Pitch_bend_c, 10, 8192
6, 346560, Pitch_bend_c, 10, 8320
6, 346720, Pitch_bend_c, 10, 8192
6, 346880, Pitch_bend_c, 10, 8320
6, 347040, Pitch_bend_c, 10, 8192
6, 347200, Pitch_bend_c, 10, 8320
6, 347360, Pitch_bend_c, 10, 8192
6, 347520, Pitch_bend_c, 10, 8320
6, 347680, Pitch_bend_c, 10, 8192
6, 347840, Pitch_bend_c, 10, 8320
6, 348000, Pitch_bend_c, 10, 8192
6, 348160, Pitch_bend_c, 10, 8320
6, 348320, Pitch_bend_c, 10, 8192
6, 348480, Pitch_bend_c, 10, 8320
6, 348480, Pitch_bend_c, 10, 8192
6, 348480, Note_off_c, 10, 67, 47
6, 348480, Note_on_c, 8, 59, 95
6, 348480, Note_on_c, 8, 55, 95
6, 348960, Note_off_c, 8, 59, 95
6, 348960, Note_off_c, 8, 55, 95
6, 348960, Note_on_c, 8, 76, 95
6, 349440, Note_off_c, 8, 76, 95
6, 349440, Note_on_c, 10, 76, 47
6, 349560, Pitch_bend_c, 10, 8192
6, 349680, Pitch_bend_c, 10, 8192
6, 349800, Pitch_bend_c, 10, 8064
6, 349920, Pitch_bend_c, 10, 8064
6, 350040, Pitch_bend_c, 10, 8064
6, 350160, Pitch_bend_c, 10, 7936
6, 350280, Pitch_bend_c, 10, 7936
6, 350400, Pitch_bend_c, 10, 7936
6, 350520, Pitch_bend_c, 10, 7808
6, 350640, Pitch_bend_c, 10, 7808
6, 350760, Pitch_bend_c, 10, 7808
6, 350880, Pitch_bend_c, 10, 7680
6, 351000, Pitch_bend_c, 10, 7680
6, 351120, Pitch_bend_c, 10, 7680
6, 351240, Pitch_bend_c, 10, 7552
6, 351360, Pitch_bend_c, 10, 7552
6, 351360, Pitch_bend_c, 10, 8192
6, 351360, Note_off_c, 10, 76, 47
6, 351360, Note_on_c, 10, 75, 95
6, 351480, Pitch_bend_c, 10, 8064
6, 351600, Pitch_bend_c, 10, 7936
6, 351720, Pitch_bend_c, 10, 7680
6, 351840, Pitch_bend_c, 10, 7552
6, 351840, Pitch_bend_c, 10, 8192
6, 351840, Note_off_c, 10, 75, 95
6, 351840, Note_on_c, 8, 74, 95
6, 352320, Note_off_c, 8, 74, 95
6, 352320, Note_on_c, 8, 71, 95
6, 353280, Note_off_c, 8, 71, 95
6, 353280, Note_on_c, 10, 71, 47
6, 353400, Pitch_bend_c, 10, 7936
6, 353520, Pitch_bend_c, 10, 7552
6, 353640, Pitch_bend_c, 10, 7168
6, 353760, Pitch_bend_c, 10, 6784
6, 353760, Pitch_bend_c, 10, 8192
6, 353760, Note_off_c, 10, 71, 47
6, 353760, Note_on_c, 8, 69, 95
6, 354240, Note_off_c, 8, 69, 95
6, 354240, Note_on_c, 8, 67, 95
6, 354720, Note_off_c, 8, 67, 95
6, 354720, Note_on_c, 10, 67, 95
6, 354880, Pitch_bend_c, 10, 8192
6, 355040, Pitch_bend_c, 10, 8320
6, 355200, Pitch_bend_c, 10, 8192
6, 355360, Pitch_bend_c, 10, 8320
6, 355520, Pitch_bend_c, 10, 8192
6, 355680, Pitch_bend_c, 10, 8320
6, 355840, Pitch_bend_c, 10, 8192
6, 356000, Pitch_bend_c, 10, 8320
6, 356160, Pitch_bend_c, 10, 8192
6, 356160, Pitch_bend_c, 10, 8320
6, 356160, Pitch_bend_c, 10, 8192
6, 356160, Note_off_c, 10, 67, 95
6, 356160, Note_on_c, 8, 55, 95
6, 356480, Note_off_c, 8, 55, 95
6, 356480, Note_on_c, 8, 65, 95
6, 356800, Note_off_c, 8, 65, 95
6, 356800, Note_on_c, 8, 55, 70
6, 357120, Note_off_c, 8, 55, 70
6, 357120, Note_on_c, 8, 65, 95
6, 357440, Note_off_c, 8, 65, 95
6, 357440, Note_on_c, 8, 55, 70
6, 357760, Note_off_c, 8, 55, 70
6, 357760, Note_on_c, 8, 65, 95
6, 358080, Note_off_c, 8, 65, 95
6, 358080, Note_on_c, 8, 55, 70
6, 358400, Note_off_c, 8, 55, 70
6, 358400, Note_on_c, 8, 65, 95
6, 358720, Note_off_c, 8, 65, 95
6, 358720, Note_on_c, 8, 55, 70
6, 359040, Note_off_c, 8, 55, 70
6, 359040, Note_on_c, 8, 65, 95
6, 359360, Note_off_c, 8, 65, 95
6, 359360, Note_on_c, 8, 55, 70
6, 359680, Note_off_c, 8, 55, 70
6, 359680, Note_on_c, 8, 65, 95
6, 360000, Note_off_c, 8, 65, 95
6, 360000, Note_on_c, 8, 55, 70
6, 360320, Note_off_c, 8, 55, 70
6, 360320, Note_on_c, 10, 65, 95
6, 360480, Pitch_bend_c, 10, 7936
6, 360640, Pitch_bend_c, 10, 7552
6, 360640, Pitch_bend_c, 10, 8192
6, 360640, Note_off_c, 10, 65, 95
6, 360640, Note_on_c, 10, 64, 95
6, 360800, Pitch_bend_c, 10, 9216
6, 360960, Pitch_bend_c, 10, 10240
6, 360960, Pitch_bend_c, 10, 8192
6, 360960, Note_off_c, 10, 64, 95
6, 360960, Note_on_c, 10, 67, 95
6, 361120, Pitch_bend_c, 10, 8192
6, 361280, Pitch_bend_c, 10, 8320
6, 361440, Pitch_bend_c, 10, 8192
6, 361600, Pitch_bend_c, 10, 8320
6, 361760, Pitch_bend_c, 10, 8192
6, 361920, Pitch_bend_c, 10, 8320
6, 362080, Pitch_bend_c, 10, 8192
6, 362240, Pitch_bend_c, 10, 8320
6, 362400, Pitch_bend_c, 10, 8192
6, 362560, Pitch_bend_c, 10, 8320
6, 362720, Pitch_bend_c, 10, 8192
6, 362880, Pitch_bend_c, 10, 8320
6, 362880, Pitch_bend_c, 10, 8192
6, 362880, Note_off_c, 10, 67, 95
6, 362880, Note_on_c, 8, 55, 95
6, 363120, Note_off_c, 8, 55, 95
6, 363120, Note_on_c, 8, 65, 95
6, 363840, Note_off_c, 8, 65, 95
6, 363840, Note_on_c, 8, 60, 95
6, 364800, Note_off_c, 8, 60, 95
6, 364800, Note_on_c, 10, 60, 47
6, 364920, Pitch_bend_c, 10, 7680
6, 365040, Pitch_bend_c, 10, 7040
6, 365160, Pitch_bend_c, 10, 6400
6, 365280, Pitch_bend_c, 10, 5760
6, 365400, Pitch_bend_c, 10, 5120
6, 365520, Pitch_bend_c, 10, 4608
6, 365640, Pitch_bend_c, 10, 3968
6, 365760, Pitch_bend_c, 10, 3328
6, 365760, Pitch_bend_c, 10, 8192
6, 365760, Note_off_c, 10, 60, 47
6, 365760, Note_on_c, 8, 58, 95
6, 365760, Note_on_c, 8, 53, 95
6, 366720, Note_off_c, 8, 58, 95
6, 366720, Note_off_c, 8, 53, 95
6, 366720, Note_on_c, 8, 55, 95
6, 366720, Note_on_c, 8, 50, 95
6, 367680, Note_off_c, 8, 55, 95
6, 367680, Note_off_c, 8, 50, 95
6, 367680, Note_on_c, 10, 62, 95
6, 367800, Pitch_bend_c, 10, 8832
6, 367920, Pitch_bend_c, 10, 9600
6, 367920, Pitch_bend_c, 10, 8192
6, 367920, Note_off_c, 10, 62, 95
6, 367920, Note_on_c, 8, 64, 95
6, 368640, Note_off_c, 8, 64, 95
6, 368640, Note_on_c, 10, 69, 95
6, 368800, Pitch_bend_c, 10, 8192
6, 368960, Pitch_bend_c, 10, 8320
6, 369120, Pitch_bend_c, 10, 8192
6, 369280, Pitch_bend_c, 10, 8320
6, 369440, Pitch_bend_c, 10, 8192
6, 369600, Pitch_bend_c, 10, 8320
6, 369760, Pitch_bend_c, 10, 8192
6, 369920, Pitch_bend_c, 10, 8320
6, 370080, Pitch_bend_c, 10, 8192
6, 370240, Pitch_bend_c, 10, 8320
6, 370400, Pitch_bend_c, 10, 8192
6, 370560, Pitch_bend_c, 10, 8320
6, 370720, Pitch_bend_c, 10, 8192
6, 370880, Pitch_bend_c, 10, 8320
6, 371040, Pitch_bend_c, 10, 8192
6, 371200, Pitch_bend_c, 10, 8320
6, 371360, Pitch_bend_c, 10, 8192
6, 371520, Pitch_bend_c, 10, 8320
6, 371680, Pitch_bend_c, 10, 8192
6, 371840, Pitch_bend_c, 10, 8320
6, 372000, Pitch_bend_c, 10, 8192
6, 372160, Pitch_bend_c, 10, 8320
6, 372320, Pitch_bend_c, 10, 8192
6, 372480, Pitch_bend_c, 10, 8320
6, 372480, Pitch_bend_c, 10, 8192
6, 372480, Note_off_c, 10, 69, 95
6, 372480, Note_on_c, 10, 69, 95
6, 372600, Pitch_bend_c, 10, 7936
6, 372720, Pitch_bend_c, 10, 7552
6, 372720, Pitch_bend_c, 10, 8192
6, 372720, Note_off_c, 10, 69, 95
6, 372720, Note_on_c, 10, 68, 95
6, 372840, Pitch_bend_c, 10, 7936
6, 372960, Pitch_bend_c, 10, 7552
6, 372960, Pitch_bend_c, 10, 8192
6, 372960, Note_off_c, 10, 68, 95
6, 372960, Note_on_c, 8, 67, 95
6, 373200, Note_off_c, 8, 67, 95
6, 373200, Note_on_c, 8, 64, 95
6, 373440, Note_off_c, 8, 64, 95
6, 373440, Note_on_c, 10, 67, 95
6, 373600, Pitch_bend_c, 10, 8192
6, 373760, Pitch_bend_c, 10, 8320
6, 373920, Pitch_bend_c, 10, 8192
6, 374080, Pitch_bend_c, 10, 8320
6, 374240, Pitch_bend_c, 10, 8192
6, 374400, Pitch_bend_c, 10, 8320
6, 374560, Pitch_bend_c, 10, 8192
6, 374720, Pitch_bend_c, 10, 8320
6, 374880, Pitch_bend_c, 10, 8192
6, 375040, Pitch_bend_c, 10, 8320
6, 375200, Pitch_bend_c, 10, 8192
6, 375360, Pitch_bend_c, 10, 8320
6, 375360, Pitch_bend_c, 10, 8192
6, 375360, Note_off_c, 10, 67, 95
6, 375360, Note_on_c, 8, 64, 95
6, 375840, Note_off_c, 8, 64, 95
6, 375840, Note_on_c, 8, 64, 95
6, 376200, Note_on_c, 10, 67, 95
6, 376320, Note_off_c, 8, 64, 95
6, 376320, Note_off_c, 10, 67, 95
6, 376320, Note_on_c, 10, 69, 95
6, 376640, Note_off_c, 10, 69, 95
6, 376640, Note_on_c, 8, 69, 95
6, 376960, Note_off_c, 8, 69, 95
6, 376960, Note_on_c, 8, 69, 95
6, 377280, Note_off_c, 8, 69, 95
6, 377280, Note_on_c, 8, 69, 95
6, 377600, Note_off_c, 8, 69, 95
6, 377600, Note_on_c, 8, 69, 95
6, 377920, Note_off_c, 8, 69, 95
6, 377920, Note_on_c, 8, 69, 95
6, 378240, Note_off_c, 8, 69, 95
6, 378240, Note_on_c, 10, 69, 95
6, 378360, Pitch_bend_c, 10, 8064
6, 378480, Pitch_bend_c, 10, 7808
6, 378600, Pitch_bend_c, 10, 7552
6, 378720, Pitch_bend_c, 10, 7296
6, 378840, Pitch_bend_c, 10, 7040
6, 378960, Pitch_bend_c, 10, 6784
6, 378960, Pitch_bend_c, 10, 8192
6, 378960, Note_off_c, 10, 69, 95
6, 378960, Note_on_c, 8, 67, 95
6, 379200, Note_off_c, 8, 67, 95
6, 379200, Note_on_c, 8, 64, 95
6, 379440, Note_off_c, 8, 64, 95
6, 379440, Note_on_c, 8, 67, 95
6, 379920, Note_off_c, 8, 67, 95
6, 379920, Note_on_c, 8, 64, 95
6, 380160, Note_off_c, 8, 64, 95
6, 380160, Note_on_c, 8, 67, 70
6, 380400, Note_off_c, 8, 67, 70
6, 380400, Note_on_c, 8, 64, 70
6, 380640, Note_off_c, 8, 64, 70
6, 380640, Note_on_c, 8, 62, 95
6, 380880, Note_off_c, 8, 62, 95
6, 380880, Note_on_c, 8, 62, 95
6, 381120, Note_off_c, 8, 62, 95
6, 381120, Note_on_c, 8, 62, 95
6, 381360, Note_off_c, 8, 62, 95
6, 381360, Note_on_c, 8, 61, 70
6, 381600, Note_off_c, 8, 61, 70
6, 381600, Note_on_c, 8, 59, 95
6, 382320, Note_off_c, 8, 59, 95
6, 382320, Note_on_c, 8, 55, 95
6, 382560, Note_off_c, 8, 55, 95
6, 382560, Note_on_c, 8, 53, 95
6, 382800, Note_off_c, 8, 53, 95
6, 382800, Note_on_c, 8, 55, 95
6, 383040, Note_off_c, 8, 55, 95
6, 383040, Note_on_c, 10, 58, 95
6, 383040, Note_on_c, 10, 53, 95
6, 383160, Pitch_bend_c, 10, 8320
6, 383280, Pitch_bend_c, 10, 8448
6, 383400, Pitch_bend_c, 10, 8704
6, 383520, Pitch_bend_c, 10, 8832
6, 383640, Pitch_bend_c, 10, 8960
6, 383760, Pitch_bend_c, 10, 9216
6, 383880, Pitch_bend_c, 10, 9344
6, 384000, Pitch_bend_c, 10, 9600
6, 384000, Pitch_bend_c, 10, 8192
6, 384000, Note_off_c, 10, 58, 95
6, 384000, Note_off_c, 10, 53, 95
6, 384000, Note_on_c, 8, 60, 95
6, 384840, Note_on_c, 10, 58, 95
6, 384960, Note_off_c, 8, 60, 95
6, 384960, Note_off_c, 10, 58, 95
6, 384960, Note_on_c, 10, 59, 95
6, 385440, Note_off_c, 10, 59, 95
6, 385440, Note_on_c, 8, 55, 95
6, 386880, Note_off_c, 8, 55, 95
6, 386880, Note_on_c, 8, 64, 95
6, 387200, Note_off_c, 8, 64, 95
6, 387200, Note_on_c, 8, 64, 95
6, 387520, Note_off_c, 8, 64, 95
6, 387520, Note_on_c, 8, 69, 95
6, 387840, Note_off_c, 8, 69, 95
6, 387840, Note_on_c, 10, 69, 95
6, 388000, Pitch_bend_c, 10, 8192
6, 388160, Pitch_bend_c, 10, 8320
6, 388320, Pitch_bend_c, 10, 8192
6, 388480, Pitch_bend_c, 10, 8320
6, 388640, Pitch_bend_c, 10, 8192
6, 388800, Pitch_bend_c, 10, 8320
6, 388800, Pitch_bend_c, 10, 8192
6, 388800, Note_off_c, 10, 69, 95
6, 388800, Note_on_c, 8, 64, 95
6, 389280, Note_off_c, 8, 64, 95
6, 389280, Note_on_c, 8, 67, 95
6, 389520, Note_off_c, 8, 67, 95
6, 389520, Note_on_c, 8, 64, 70
6, 389760, Note_off_c, 8, 64, 70
6, 389760, Note_on_c, 8, 67, 95
6, 390720, Note_off_c, 8, 67, 95
6, 390720, Note_on_c, 8, 62, 95
6, 390960, Note_off_c, 8, 62, 95
6, 390960, Note_on_c, 8, 61, 70
6, 391200, Note_off_c, 8, 61, 70
6, 391200, Note_on_c, 10, 58, 95
6, 391320, Pitch_bend_c, 10, 8448
6, 391440, Pitch_bend_c, 10, 8832
6, 391560, Pitch_bend_c, 10, 9216
6, 391680, Pitch_bend_c, 10, 9600
6, 391680, Pitch_bend_c, 10, 8192
6, 391680, Note_off_c, 10, 58, 95
6, 391680, Note_on_c, 8, 60, 95
6, 392160, Note_off_c, 8, 60, 95
6, 392160, Note_on_c, 8, 55, 95
6, 393120, Note_off_c, 8, 55, 95
6, 393120, Note_on_c, 8, 50, 95
6, 395520, Note_off_c, 8, 50, 95
6, 395520, Note_on_c, 8, 50, 47
6, 397680, Note_off_c, 8, 50, 47
6, 397680, Note_on_c, 8, 55, 95
6, 397680, Note_on_c, 8, 50, 95
6, 397920, Note_off_c, 8, 55, 95
6, 397920, Note_off_c, 8, 50, 95
6, 397920, Note_on_c, 8, 55, 95
6, 397920, Note_on_c, 8, 50, 95
6, 398400, Note_off_c, 8, 55, 95
6, 398400, Note_off_c, 8, 50, 95
6, 398400, Note_on_c, 8, 76, 95
6, 398400, Note_on_c, 8, 72, 95
6, 399360, Note_off_c, 8, 76, 95
6, 399360, Note_off_c, 8, 72, 95
6, 399360, Note_on_c, 10, 81, 95
6, 399520, Pitch_bend_c, 10, 8192
6, 399680, Pitch_bend_c, 10, 8320
6, 399840, Pitch_bend_c, 10, 8192
6, 400000, Pitch_bend_c, 10, 8320
6, 400160, Pitch_bend_c, 10, 8192
6, 400320, Pitch_bend_c, 10, 8320
6, 400480, Pitch_bend_c, 10, 8192
6, 400640, Pitch_bend_c, 10, 8320
6, 400800, Pitch_bend_c, 10, 8192
6, 400960, Pitch_bend_c, 10, 8320
6, 401120, Pitch_bend_c, 10, 8192
6, 401280, Pitch_bend_c, 10, 8320
6, 401280, Pitch_bend_c, 10, 8192
6, 401280, Note_off_c, 10, 81, 95
6, 401280, Note_on_c, 10, 81, 95
6, 401440, Pitch_bend_c, 10, 8192
6, 401600, Pitch_bend_c, 10, 8320
6, 401760, Pitch_bend_c, 10, 8192
6, 401920, Pitch_bend_c, 10, 8320
6, 402080, Pitch_bend_c, 10, 8192
6, 402240, Pitch_bend_c, 10, 8320
6, 402400, Pitch_bend_c, 10, 8192
6, 402560, Pitch_bend_c, 10, 8320
6, 402720, Pitch_bend_c, 10, 8192
6, 402720, Pitch_bend_c, 10, 8320
6, 402720, Pitch_bend_c, 10, 8192
6, 402720, Note_off_c, 10, 81, 95
6, 402720, Note_on_c, 10, 81, 95
6, 403200, Note_off_c, 10, 81, 95
6, 403200, Note_on_c, 8, 59, 95
6, 403680, Note_off_c, 8, 59, 95
6, 403680, Note_on_c, 8, 67, 95
6, 404640, Note_off_c, 8, 67, 95
6, 404640, Note_on_c, 8, 62, 95
6, 405120, Note_off_c, 8, 62, 95
6, 405120, Note_on_c, 10, 62, 47
6, 405240, Pitch_bend_c, 10, 7936
6, 405360, Pitch_bend_c, 10, 7552
6, 405480, Pitch_bend_c, 10, 7168
6, 405600, Pitch_bend_c, 10, 6784
6, 405600, Pitch_bend_c, 10, 8192
6, 405600, Note_off_c, 10, 62, 47
6, 405600, Note_on_c, 8, 60, 95
6, 406080, Note_off_c, 8, 60, 95
6, 406080, Note_on_c, 8, 58, 95
6, 407040, Note_off_c, 8, 58, 95
6, 407040, Note_on_c, 8, 69, 95
6, 407520, Note_off_c, 8, 69, 95
6, 407520, Note_on_c, 8, 69, 95
6, 407760, Note_off_c, 8, 69, 95
6, 407760, Note_on_c, 10, 69, 95
6, 407920, Pitch_bend_c, 10, 8192
6, 408080, Pitch_bend_c, 10, 8320
6, 408240, Pitch_bend_c, 10, 8192
6, 408400, Pitch_bend_c, 10, 8320
6, 408560, Pitch_bend_c, 10, 8192
6, 408720, Pitch_bend_c, 10, 8320
6, 408880, Pitch_bend_c, 10, 8192
6, 409040, Pitch_bend_c, 10, 8320
6, 409200, Pitch_bend_c, 10, 8192
6, 409360, Pitch_bend_c, 10, 8320
6, 409520, Pitch_bend_c, 10, 8192
6, 409680, Pitch_bend_c, 10, 8320
6, 409840, Pitch_bend_c, 10, 8192
6, 410000, Pitch_bend_c, 10, 8320
6, 410160, Pitch_bend_c, 10, 8192
6, 410320, Pitch_bend_c, 10, 8320
6, 410480, Pitch_bend_c, 10, 8192
6, 410640, Pitch_bend_c, 10, 8320
6, 410640, Pitch_bend_c, 10, 8192
6, 410640, Note_off_c, 10, 69, 95
6, 410640, Note_on_c, 8, 64, 95
6, 411360, Note_off_c, 8, 64, 95
6, 411360, Note_on_c, 10, 61, 95
6, 411480, Pitch_bend_c, 10, 8192
6, 411600, Pitch_bend_c, 10, 8192
6, 411720, Pitch_bend_c, 10, 8320
6, 411840, Pitch_bend_c, 10, 8320
6, 411960, Pitch_bend_c, 10, 8448
6, 412080, Pitch_bend_c, 10, 8448
6, 412200, Pitch_bend_c, 10, 8576
6, 412320, Pitch_bend_c, 10, 8576
6, 412440, Pitch_bend_c, 10, 8704
6, 412560, Pitch_bend_c, 10, 8704
6, 412680, Pitch_bend_c, 10, 8832
6, 412800, Pitch_bend_c, 10, 8832
6, 412800, Pitch_bend_c, 10, 8192
6, 412800, Note_off_c, 10, 61, 95
6, 412800, Note_on_c, 8, 62, 95
6, 413760, Note_off_c, 8, 62, 95
6, 413760, Note_on_c, 10, 62, 47
6, 413880, Pitch_bend_c, 10, 8064
6, 414000, Pitch_bend_c, 10, 7936
6, 414120, Pitch_bend_c, 10, 7680
6, 414240, Pitch_bend_c, 10, 7552
6, 414240, Pitch_bend_c, 10, 8192
6, 414240, Note_off_c, 10, 62, 47
6, 414240, Note_on_c, 8, 61, 95
6, 414720, Note_off_c, 8, 61, 95
6, 414720, Note_on_c, 8, 55, 95
6, 414720, Note_on_c, 8, 50, 95
6, 415440, Note_off_c, 8, 55, 95
6, 415440, Note_off_c, 8, 50, 95
6, 415440, Note_on_c, 8, 62, 95
6, 415440, Note_on_c, 8, 58, 95
6, 415680, Note_off_c, 8, 62, 95
6, 415680, Note_off_c, 8, 58, 95
6, 415680, Note_on_c, 10, 62, 47
6, 415680, Note_on_c, 10, 58, 47
6, 415800, Pitch_bend_c, 10, 7936
6, 415800, Pitch_bend_c, 10, 7936
6, 415920, Pitch_bend_c, 10, 7552
6, 415920, Pitch_bend_c, 10, 8192
6, 415920, Note_off_c, 10, 62, 47
6, 415920, Pitch_bend_c, 10, 7552
6, 415920, Pitch_bend_c, 10, 8192
6, 415920, Note_off_c, 10, 58, 47
6, 415920, Note_on_c, 10, 61, 95
6, 415920, Note_on_c, 10, 57, 95
6, 416040, Pitch_bend_c, 10, 8448
6, 416040, Pitch_bend_c, 10, 8448
6, 416160, Pitch_bend_c, 10, 8832
6, 416160, Pitch_bend_c, 10, 8192
6, 416160, Note_off_c, 10, 61, 95
6, 416160, Pitch_bend_c, 10, 8832
6, 416160, Pitch_bend_c, 10, 8192
6, 416160, Note_off_c, 10, 57, 95
6, 416160, Note_on_c, 8, 62, 95
6, 416160, Note_on_c, 8, 58, 95
6, 416640, Note_off_c, 8, 62, 95
6, 416640, Note_off_c, 8, 58, 95
6, 416640, Note_on_c, 10, 62, 47
6, 416640, Note_on_c, 10, 58, 47
6, 416760, Pitch_bend_c, 10, 8192
6, 416760, Pitch_bend_c, 10, 8192
6, 416880, Pitch_bend_c, 10, 8064
6, 416880, Pitch_bend_c, 10, 8064
6, 417000, Pitch_bend_c, 10, 7936
6, 417000, Pitch_bend_c, 10, 7936
6, 417120, Pitch_bend_c, 10, 7808
6, 417120, Pitch_bend_c, 10, 7808
6, 417240, Pitch_bend_c, 10, 7680
6, 417240, Pitch_bend_c, 10, 7680
6, 417360, Pitch_bend_c, 10, 7552
6, 417360, Pitch_bend_c, 10, 8192
6, 417360, Note_off_c, 10, 62, 47
6, 417360, Pitch_bend_c, 10, 7552
6, 417360, Pitch_bend_c, 10, 8192
6, 417360, Note_off_c, 10, 58, 47
6, 417360, Note_on_c, 10, 61, 95
6, 417360, Note_on_c, 10, 57, 95
6, 417480, Pitch_bend_c, 10, 8448
6, 417480, Pitch_bend_c, 10, 8448
6, 417600, Pitch_bend_c, 10, 8832
6, 417600, Pitch_bend_c, 10, 8192
6, 417600, Note_off_c, 10, 61, 95
6, 417600, Pitch_bend_c, 10, 8832
6, 417600, Pitch_bend_c, 10, 8192
6, 417600, Note_off_c, 10, 57, 95
6, 417600, Note_on_c, 10, 62, 95
6, 417600, Note_on_c, 10, 58, 95
6, 417720, Pitch_bend_c, 10, 8192
6, 417720, Pitch_bend_c, 10, 8192
6, 417840, Pitch_bend_c, 10, 8064
6, 417840, Pitch_bend_c, 10, 8064
6, 417960, Pitch_bend_c, 10, 7936
6, 417960, Pitch_bend_c, 10, 7936
6, 418080, Pitch_bend_c, 10, 7936
6, 418080, Pitch_bend_c, 10, 7936
6, 418200, Pitch_bend_c, 10, 7808
6, 418200, Pitch_bend_c, 10, 7808
6, 418320, Pitch_bend_c, 10, 7680
6, 418320, Pitch_bend_c, 10, 7680
6, 418440, Pitch_bend_c, 10, 7680
6, 418440, Pitch_bend_c, 10, 7680
6, 418560, Pitch_bend_c, 10, 7552
6, 418560, Pitch_bend_c, 10, 8192
6, 418560, Note_off_c, 10, 62, 95
6, 418560, Pitch_bend_c, 10, 7552
6, 418560, Pitch_bend_c, 10, 8192
6, 418560, Note_off_c, 10, 58, 95
6, 418560, Note_on_c, 10, 61, 95
6, 418560, Note_on_c, 10, 57, 95
6, 418680, Pitch_bend_c, 10, 8320
6, 418680, Pitch_bend_c, 10, 8320
6, 418800, Pitch_bend_c, 10, 8448
6, 418800, Pitch_bend_c, 10, 8448
6, 418920, Pitch_bend_c, 10, 8704
6, 418920, Pitch_bend_c, 10, 8704
6, 419040, Pitch_bend_c, 10, 8832
6, 419040, Pitch_bend_c, 10, 8192
6, 419040, Note_off_c, 10, 61, 95
6, 419040, Pitch_bend_c, 10, 8832
6, 419040, Pitch_bend_c, 10, 8192
6, 419040, Note_off_c, 10, 57, 95
6, 419040, Note_on_c, 10, 62, 95
6, 419040, Note_on_c, 10, 58, 95
6, 419160, Pitch_bend_c, 10, 8192
6, 419160, Pitch_bend_c, 10, 8192
6, 419280, Pitch_bend_c, 10, 8064
6, 419280, Pitch_bend_c, 10, 8064
6, 419400, Pitch_bend_c, 10, 7936
6, 419400, Pitch_bend_c, 10, 7936
6, 419520, Pitch_bend_c, 10, 7936
6, 419520, Pitch_bend_c, 10, 7936
6, 419640, Pitch_bend_c, 10, 7808
6, 419640, Pitch_bend_c, 10, 7808
6, 419760, Pitch_bend_c, 10, 7680
6, 419760, Pitch_bend_c, 10, 7680
6, 419880, Pitch_bend_c, 10, 7680
6, 419880, Pitch_bend_c, 10, 7680
6, 420000, Pitch_bend_c, 10, 7552
6, 420000, Pitch_bend_c, 10, 8192
6, 420000, Note_off_c, 10, 62, 95
6, 420000, Pitch_bend_c, 10, 7552
6, 420000, Pitch_bend_c, 10, 8192
6, 420000, Note_off_c, 10, 58, 95
6, 420000, Note_on_c, 10, 61, 95
6, 420000, Note_on_c, 10, 57, 95
6, 420120, Pitch_bend_c, 10, 8320
6, 420120, Pitch_bend_c, 10, 8320
6, 420240, Pitch_bend_c, 10, 8448
6, 420240, Pitch_bend_c, 10, 8448
6, 420360, Pitch_bend_c, 10, 8704
6, 420360, Pitch_bend_c, 10, 8704
6, 420480, Pitch_bend_c, 10, 8832
6, 420480, Pitch_bend_c, 10, 8192
6, 420480, Note_off_c, 10, 61, 95
6, 420480, Pitch_bend_c, 10, 8832
6, 420480, Pitch_bend_c, 10, 8192
6, 420480, Note_off_c, 10, 57, 95
6, 420480, Note_on_c, 10, 62, 95
6, 420480, Note_on_c, 8, 58, 95
6, 420600, Pitch_bend_c, 10, 8064
6, 420720, Pitch_bend_c, 10, 7936
6, 420840, Pitch_bend_c, 10, 7680
6, 420960, Pitch_bend_c, 10, 7552
6, 421080, Pitch_bend_c, 10, 7424
6, 421200, Pitch_bend_c, 10, 7168
6, 421320, Pitch_bend_c, 10, 7040
6, 421440, Pitch_bend_c, 10, 6784
6, 421440, Pitch_bend_c, 10, 8192
6, 421440, Note_off_c, 10, 62, 95
6, 421440, Note_off_c, 8, 58, 95
6, 421440, Note_on_c, 8, 60, 95
6, 421920, Note_off_c, 8, 60, 95
6, 421920, Note_on_c, 8, 58, 95
6, 422400, Note_off_c, 8, 58, 95
6, 422400, Note_on_c, 10, 58, 47
6, 422520, Pitch_bend_c, 10, 8064
6, 422640, Pitch_bend_c, 10, 7936
6, 422760, Pitch_bend_c, 10, 7680
6, 422880, Pitch_bend_c, 10, 7552
6, 422880, Pitch_bend_c, 10, 8192
6, 422880, Note_off_c, 10, 58, 47
6, 422880, Note_on_c, 8, 57, 95
6, 423840, Note_off_c, 8, 57, 95
6, 423840, Note_on_c, 8, 55, 95
6, 424960, Note_off_c, 8, 55, 95
6, 424960, Note_on_c, 8, 60, 95
6, 424960, Note_on_c, 8, 55, 95
6, 425600, Note_off_c, 8, 60, 95
6, 425600, Note_off_c, 8, 55, 95
6, 425600, Note_on_c, 8, 60, 95
6, 425600, Note_on_c, 8, 55, 95
6, 426240, Note_off_c, 8, 60, 95
6, 426240, Note_off_c, 8, 55, 95
6, 426240, Note_on_c, 10, 60, 95
6, 426240, Note_on_c, 8, 55, 95
6, 426400, Pitch_bend_c, 10, 8192
6, 426560, Pitch_bend_c, 10, 8320
6, 426720, Pitch_bend_c, 10, 8192
6, 426880, Pitch_bend_c, 10, 8320
6, 427040, Pitch_bend_c, 10, 8192
6, 427200, Pitch_bend_c, 10, 8320
6, 427360, Pitch_bend_c, 10, 8192
6, 427520, Pitch_bend_c, 10, 8320
6, 427680, Pitch_bend_c, 10, 8192
6, 427840, Pitch_bend_c, 10, 8320
6, 428000, Pitch_bend_c, 10, 8192
6, 428160, Pitch_bend_c, 10, 8320
6, 428160, Pitch_bend_c, 10, 8192
6, 428160, Note_off_c, 10, 60, 95
6, 428160, Note_off_c, 8, 55, 95
6, 428160, Note_on_c, 8, 50, 95
6, 428640, Note_off_c, 8, 50, 95
6, 428640, Note_on_c, 10, 70, 95
6, 428760, Pitch_bend_c, 10, 9216
6, 428880, Pitch_bend_c, 10, 10240
6, 429000, Pitch_bend_c, 10, 11264
6, 429120, Pitch_bend_c, 10, 12416
6, 429120, Pitch_bend_c, 10, 8192
6, 429120, Note_off_c, 10, 70, 95
6, 429120, Note_on_c, 8, 76, 95
6, 431520, Note_off_c, 8, 76, 95
6, 431520, Note_on_c, 8, 81, 95
6, 432000, Note_off_c, 8, 81, 95
6, 432000, Note_on_c, 8, 81, 95
6, 433440, Note_off_c, 8, 81, 95
6, 433440, Note_on_c, 8, 64, 95
6, 433920, Note_off_c, 8, 64, 95
6, 433920, Note_on_c, 10, 83, 95
6, 434040, Pitch_bend_c, 10, 8192
6, 434160, Pitch_bend_c, 10, 8320
6, 434280, Pitch_bend_c, 10, 8448
6, 434400, Pitch_bend_c, 10, 8448
6, 434520, Pitch_bend_c, 10, 8576
6, 434640, Pitch_bend_c, 10, 8704
6, 434760, Pitch_bend_c, 10, 8704
6, 434880, Pitch_bend_c, 10, 8832
6, 434880, Pitch_bend_c, 10, 8192
6, 434880, Note_off_c, 10, 83, 95
6, 434880, Note_on_c, 8, 84, 95
6, 435840, Note_off_c, 8, 84, 95
6, 435840, Note_on_c, 10, 64, 95
6, 435960, Pitch_bend_c, 10, 11648
6, 436080, Pitch_bend_c, 10, 15232
6, 436200, Pitch_bend_c, 10, 16256
6, 436320, Pitch_bend_c, 10, 16256
6, 436320, Pitch_bend_c, 10, 8192
6, 436320, Note_off_c, 10, 64, 95
6, 436320, Note_on_c, 10, 84, 95
6, 436440, Pitch_bend_c, 10, 8192
6, 436560, Pitch_bend_c, 10, 8064
6, 436680, Pitch_bend_c, 10, 7936
6, 436800, Pitch_bend_c, 10, 7936
6, 436920, Pitch_bend_c, 10, 7808
6, 437040, Pitch_bend_c, 10, 7680
6, 437160, Pitch_bend_c, 10, 7680
6, 437280, Pitch_bend_c, 10, 7552
6, 437280, Pitch_bend_c, 10, 8192
6, 437280, Note_off_c, 10, 84, 95
6, 437280, Note_on_c, 10, 83, 95
6, 437440, Pitch_bend_c, 10, 8192
6, 437600, Pitch_bend_c, 10, 8320
6, 437760, Pitch_bend_c, 10, 8192
6, 437760, Pitch_bend_c, 10, 8320
6, 437760, Pitch_bend_c, 10, 8192
6, 437760, Note_off_c, 10, 83, 95
6, 437760, Note_on_c, 10, 83, 47
6, 437920, Pitch_bend_c, 10, 8192
6, 438080, Pitch_bend_c, 10, 8320
6, 438240, Pitch_bend_c, 10, 8192
6, 438400, Pitch_bend_c, 10, 8320
6, 438560, Pitch_bend_c, 10, 8192
6, 438720, Pitch_bend_c, 10, 8320
6, 438880, Pitch_bend_c, 10, 8192
6, 439040, Pitch_bend_c, 10, 8320
6, 439200, Pitch_bend_c, 10, 8192
6, 439360, Pitch_bend_c, 10, 8320
6, 439520, Pitch_bend_c, 10, 8192
6, 439680, Pitch_bend_c, 10, 8320
6, 439680, Pitch_bend_c, 10, 8192
6, 439680, Note_off_c, 10, 83, 47
6, 440640, Note_on_c, 8, 81, 95
6, 441120, Note_off_c, 8, 81, 95
6, 441120, Note_on_c, 8, 81, 95
6, 441600, Note_off_c, 8, 81, 95
6, 441600, Note_on_c, 10, 81, 47
6, 441760, Pitch_bend_c, 10, 7552
6, 441920, Pitch_bend_c, 10, 6784
6, 441920, Pitch_bend_c, 10, 8192
6, 441920, Note_off_c, 10, 81, 47
6, 441920, Note_on_c, 8, 79, 95
6, 442240, Note_off_c, 8, 79, 95
6, 442240, Note_on_c, 8, 64, 95
6, 442560, Note_off_c, 8, 64, 95
6, 442560, Note_on_c, 8, 79, 95
6, 443040, Note_off_c, 8, 79, 95
6, 443040, Note_on_c, 10, 79, 95
6, 443200, Pitch_bend_c, 10, 8192
6, 443360, Pitch_bend_c, 10, 8320
6, 443520, Pitch_bend_c, 10, 8192
6, 443520, Pitch_bend_c, 10, 8320
6, 443520, Pitch_bend_c, 10, 8192
6, 443520, Note_off_c, 10, 79, 95
6, 443520, Note_on_c, 10, 79, 47
6, 443640, Pitch_bend_c, 10, 6912
6, 443760, Pitch_bend_c, 10, 5632
6, 443880, Pitch_bend_c, 10, 4352
6, 444000, Pitch_bend_c, 10, 2944
6, 444120, Pitch_bend_c, 10, 1664
6, 444240, Pitch_bend_c, 10, 384
6, 444360, Pitch_bend_c, 10, 0
6, 444480, Pitch_bend_c, 10, 0
6, 444480, Pitch_bend_c, 10, 8192
6, 444480, Note_off_c, 10, 79, 47
6, 444480, Note_on_c, 8, 64, 95
6, 444960, Note_off_c, 8, 64, 95
6, 444960, Note_on_c, 10, 64, 95
6, 445080, Pitch_bend_c, 10, 9856
6, 445200, Pitch_bend_c, 10, 11648
6, 445320, Pitch_bend_c, 10, 13440
6, 445440, Pitch_bend_c, 10, 15232
6, 445440, Pitch_bend_c, 10, 8192
6, 445440, Note_off_c, 10, 64, 95
6, 445440, Note_on_c, 8, 74, 95
6, 445920, Note_off_c, 8, 74, 95
6, 445920, Note_on_c, 8, 79, 95
6, 446160, Note_off_c, 8, 79, 95
6, 446160, Note_on_c, 8, 74, 95
6, 446720, Note_off_c, 8, 74, 95
6, 446720, Note_on_c, 8, 79, 95
6, 447040, Note_off_c, 8, 79, 95
6, 447040, Note_on_c, 8, 74, 95
6, 447360, Note_off_c, 8, 74, 95
6, 447360, Note_on_c, 8, 79, 95
6, 447680, Note_off_c, 8, 79, 95
6, 447680, Note_on_c, 8, 74, 95
6, 448000, Note_off_c, 8, 74, 95
6, 448000, Note_on_c, 8, 79, 95
6, 448320, Note_off_c, 8, 79, 95
6, 448320, Note_on_c, 8, 74, 95
6, 448640, Note_off_c, 8, 74, 95
6, 448640, Note_on_c, 8, 79, 95
6, 448960, Note_off_c, 8, 79, 95
6, 448960, Note_on_c, 8, 74, 95
6, 449280, Note_off_c, 8, 74, 95
6, 449280, Note_on_c, 8, 79, 95
6, 449600, Note_off_c, 8, 79, 95
6, 449600, Note_on_c, 8, 73, 95
6, 449920, Note_off_c, 8, 73, 95
6, 449920, Note_on_c, 8, 78, 95
6, 450240, Note_off_c, 8, 78, 95
6, 450240, Note_on_c, 8, 73, 95
6, 450560, Note_off_c, 8, 73, 95
6, 450560, Note_on_c, 8, 78, 95
6, 450880, Note_off_c, 8, 78, 95
6, 450880, Note_on_c, 8, 73, 95
6, 451200, Note_off_c, 8, 73, 95
6, 451200, Note_on_c, 8, 78, 95
6, 451520, Note_off_c, 8, 78, 95
6, 451520, Note_on_c, 8, 72, 95
6, 451840, Note_off_c, 8, 72, 95
6, 451840, Note_on_c, 8, 77, 95
6, 452160, Note_off_c, 8, 77, 95
6, 452160, Note_on_c, 8, 72, 95
6, 452480, Note_off_c, 8, 72, 95
6, 452480, Note_on_c, 8, 77, 95
6, 453120, Note_off_c, 8, 77, 95
6, 453120, Note_on_c, 8, 76, 95
6, 453120, Note_on_c, 10, 71, 95
6, 453280, Pitch_bend_c, 10, 8192
6, 453440, Pitch_bend_c, 10, 8320
6, 453600, Pitch_bend_c, 10, 8192
6, 453760, Pitch_bend_c, 10, 8320
6, 453920, Pitch_bend_c, 10, 8192
6, 454080, Pitch_bend_c, 10, 8320
6, 454240, Pitch_bend_c, 10, 8192
6, 454400, Pitch_bend_c, 10, 8320
6, 454560, Pitch_bend_c, 10, 8192
6, 454720, Pitch_bend_c, 10, 8320
6, 454880, Pitch_bend_c, 10, 8192
6, 455040, Pitch_bend_c, 10, 8320
6, 455040, Pitch_bend_c, 10, 8192
6, 455040, Note_off_c, 10, 71, 95
6, 456000, Note_off_c, 8, 76, 95
6, 456000, Note_on_c, 8, 67, 95
6, 456480, Note_off_c, 8, 67, 95
6, 456480, Note_on_c, 8, 67, 95
6, 456960, Note_off_c, 8, 67, 95
6, 456960, Note_on_c, 10, 67, 47
6, 457080, Pitch_bend_c, 10, 7424
6, 457200, Pitch_bend_c, 10, 6528
6, 457320, Pitch_bend_c, 10, 5632
6, 457440, Pitch_bend_c, 10, 4736
6, 457560, Pitch_bend_c, 10, 3840
6, 457680, Pitch_bend_c, 10, 2944
6, 457800, Pitch_bend_c, 10, 2048
6, 457920, Pitch_bend_c, 10, 1152
6, 457920, Pitch_bend_c, 10, 8192
6, 457920, Note_off_c, 10, 67, 47
6, 457920, Note_on_c, 10, 61, 95
6, 457920, Note_on_c, 10, 57, 95
6, 458040, Pitch_bend_c, 10, 8320
6, 458040, Pitch_bend_c, 10, 8320
6, 458160, Pitch_bend_c, 10, 8448
6, 458160, Pitch_bend_c, 10, 8448
6, 458280, Pitch_bend_c, 10, 8704
6, 458280, Pitch_bend_c, 10, 8704
6, 458400, Pitch_bend_c, 10, 8832
6, 458400, Pitch_bend_c, 10, 8192
6, 458400, Note_off_c, 10, 61, 95
6, 458400, Pitch_bend_c, 10, 8832
6, 458400, Pitch_bend_c, 10, 8192
6, 458400, Note_off_c, 10, 57, 95
6, 458400, Note_on_c, 8, 62, 95
6, 458400, Note_on_c, 8, 58, 95
6, 458880, Note_off_c, 8, 62, 95
6, 458880, Note_off_c, 8, 58, 95
6, 458880, Note_on_c, 8, 55, 95
6, 458880, Note_on_c, 8, 50, 95
6, 459840, Note_off_c, 8, 55, 95
6, 459840, Note_off_c, 8, 50, 95
6, 459840, Note_on_c, 10, 58, 95
6, 459840, Note_on_c, 10, 53, 95
6, 459960, Pitch_bend_c, 10, 8192
6, 459960, Pitch_bend_c, 10, 8192
6, 460080, Pitch_bend_c, 10, 8192
6, 460080, Pitch_bend_c, 10, 8192
6, 460200, Pitch_bend_c, 10, 8192
6, 460200, Pitch_bend_c, 10, 8192
6, 460320, Pitch_bend_c, 10, 8192
6, 460320, Pitch_bend_c, 10, 8192
6, 460320, Note_off_c, 10, 58, 95
6, 460320, Pitch_bend_c, 10, 8192
6, 460320, Pitch_bend_c, 10, 8192
6, 460320, Note_off_c, 10, 53, 95
6, 460320, Note_on_c, 8, 58, 95
6, 460320, Note_on_c, 8, 53, 95
6, 460800, Note_off_c, 8, 58, 95
6, 460800, Note_off_c, 8, 53, 95
6, 460800, Note_on_c, 8, 50, 95
6, 460800, Note_on_c, 8, 45, 95
6, 464160, Note_off_c, 8, 50, 95
6, 464160, Note_off_c, 8, 45, 95
6, 464160, Note_on_c, 10, 51, 95
6, 464160, Note_on_c, 10, 46, 95
6, 464280, Pitch_bend_c, 10, 8448
6, 464280, Pitch_bend_c, 10, 8448
6, 464400, Pitch_bend_c, 10, 8832
6, 464400, Pitch_bend_c, 10, 8832
6, 464520, Pitch_bend_c, 10, 9216
6, 464520, Pitch_bend_c, 10, 9216
6, 464640, Pitch_bend_c, 10, 9600
6, 464640, Pitch_bend_c, 10, 8192
6, 464640, Note_off_c, 10, 51, 95
6, 464640, Pitch_bend_c, 10, 9600
6, 464640, Pitch_bend_c, 10, 8192
6, 464640, Note_off_c, 10, 46, 95
6, 464640, Note_on_c, 8, 53, 95
6, 464640, Note_on_c, 8, 48, 95
6, 466560, Note_off_c, 8, 53, 95
6, 466560, Note_off_c, 8, 48, 95
6, 466560, Note_on_c, 8, 60, 95
6, 466560, Note_on_c, 8, 55, 95
6, 467520, Note_off_c, 8, 60, 95
6, 467520, Note_off_c, 8, 55, 95
6, 467520, Note_on_c, 10, 58, 95
6, 467520, Note_on_c, 10, 53, 95
6, 467640, Pitch_bend_c, 10, 7936
6, 467640, Pitch_bend_c, 10, 7936
6, 467760, Pitch_bend_c, 10, 7680
6, 467760, Pitch_bend_c, 10, 7680
6, 467880, Pitch_bend_c, 10, 7424
6, 467880, Pitch_bend_c, 10, 7424
6, 468000, Pitch_bend_c, 10, 7168
6, 468000, Pitch_bend_c, 10, 7168
6, 468120, Pitch_bend_c, 10, 6912
6, 468120, Pitch_bend_c, 10, 6912
6, 468240, Pitch_bend_c, 10, 6656
6, 468240, Pitch_bend_c, 10, 6656
6, 468360, Pitch_bend_c, 10, 6400
6, 468360, Pitch_bend_c, 10, 6400
6, 468480, Pitch_bend_c, 10, 6144
6, 468480, Pitch_bend_c, 10, 8192
6, 468480, Note_off_c, 10, 58, 95
6, 468480, Pitch_bend_c, 10, 6144
6, 468480, Pitch_bend_c, 10, 8192
6, 468480, Note_off_c, 10, 53, 95
6, 468480, Note_on_c, 8, 55, 95
6, 468480, Note_on_c, 8, 50, 95
6, 471360, Note_off_c, 8, 55, 95
6, 471360, Note_off_c, 8, 50, 95
6, 471360, Note_on_c, 8, 48, 95
6, 472320, Note_off_c, 8, 48, 95
6, 472320, Note_on_c, 8, 55, 95
6, 472320, Note_on_c, 8, 50, 95
6, 472320, Note_on_c, 8, 45, 95
6, 474240, Note_off_c, 8, 55, 95
6, 474240, Note_off_c, 8, 50, 95
6, 474240, Note_off_c, 8, 45, 95
6, 474240, Note_on_c, 8, 45, 95
6, 474560, Note_off_c, 8, 45, 95
6, 474560, Note_on_c, 8, 45, 95
6, 474880, Note_off_c, 8, 45, 95
6, 474880, Note_on_c, 8, 45, 95
6, 475200, Note_off_c, 8, 45, 95
6, 475200, Note_on_c, 8, 48, 95
6, 475680, Note_off_c, 8, 48, 95
6, 475680, Note_on_c, 8, 55, 95
6, 475680, Note_on_c, 8, 50, 95
6, 476160, Note_off_c, 8, 55, 95
6, 476160, Note_off_c, 8, 50, 95
6, 476160, Note_on_c, 8, 55, 95
6, 476160, Note_on_c, 8, 50, 95
6, 477120, Note_off_c, 8, 55, 95
6, 477120, Note_off_c, 8, 50, 95
6, 477120, Note_on_c, 10, 53, 95
6, 477120, Note_on_c, 10, 50, 95
6, 477240, Pitch_bend_c, 10, 8448
6, 477240, Pitch_bend_c, 10, 8192
6, 477360, Pitch_bend_c, 10, 8832
6, 477360, Pitch_bend_c, 10, 8192
6, 477480, Pitch_bend_c, 10, 9216
6, 477480, Pitch_bend_c, 10, 8192
6, 477600, Pitch_bend_c, 10, 9600
6, 477600, Pitch_bend_c, 10, 8192
6, 477600, Note_off_c, 10, 53, 95
6, 477600, Pitch_bend_c, 10, 8192
6, 477600, Pitch_bend_c, 10, 8192
6, 477600, Note_off_c, 10, 50, 95
6, 477600, Note_on_c, 8, 55, 95
6, 477600, Note_on_c, 8, 50, 95
6, 479520, Note_off_c, 8, 55, 95
6, 479520, Note_off_c, 8, 50, 95
6, 479520, Note_on_c, 10, 64, 95
6, 479640, Pitch_bend_c, 10, 8704
6, 479760, Pitch_bend_c, 10, 9216
6, 479880, Pitch_bend_c, 10, 9728
6, 480000, Pitch_bend_c, 10, 10240
6, 480000, Pitch_bend_c, 10, 8192
6, 480000, Note_off_c, 10, 64, 95
6, 480000, Note_on_c, 8, 67, 95
6, 480960, Note_off_c, 8, 67, 95
6, 480960, Note_on_c, 10, 67, 47
6, 481080, Pitch_bend_c, 10, 7936
6, 481200, Pitch_bend_c, 10, 7552
6, 481320, Pitch_bend_c, 10, 7168
6, 481440, Pitch_bend_c, 10, 6784
6, 481440, Pitch_bend_c, 10, 8192
6, 481440, Note_off_c, 10, 67, 47
6, 481440, Note_on_c, 8, 65, 95
6, 481920, Note_off_c, 8, 65, 95
6, 481920, Note_on_c, 8, 65, 95
6, 483360, Note_off_c, 8, 65, 95
6, 483360, Note_on_c, 10, 65, 47
6, 483480, Pitch_bend_c, 10, 8448
6, 483600, Pitch_bend_c, 10, 8832
6, 483720, Pitch_bend_c, 10, 9216
6, 483840, Pitch_bend_c, 10, 9600
6, 483840, Pitch_bend_c, 10, 8192
6, 483840, Note_off_c, 10, 65, 47
6, 483840, Note_on_c, 8, 67, 95
6, 484680, Note_on_c, 10, 65, 95
6, 484800, Note_off_c, 8, 67, 95
6, 484800, Note_off_c, 10, 65, 95
6, 484800, Note_on_c, 10, 67, 95
6, 486240, Note_off_c, 10, 67, 95
6, 486240, Note_on_c, 8, 71, 95
6, 487680, Note_off_c, 8, 71, 95
6, 487680, Note_on_c, 10, 71, 47
6, 487800, Pitch_bend_c, 10, 8192
6, 487920, Pitch_bend_c, 10, 8320
6, 488040, Pitch_bend_c, 10, 8448
6, 488160, Pitch_bend_c, 10, 8448
6, 488280, Pitch_bend_c, 10, 8576
6, 488400, Pitch_bend_c, 10, 8704
6, 488520, Pitch_bend_c, 10, 8704
6, 488640, Pitch_bend_c, 10, 8832
6, 488640, Pitch_bend_c, 10, 8192
6, 488640, Note_off_c, 10, 71, 47
6, 488640, Note_on_c, 8, 72, 95
6, 489120, Note_off_c, 8, 72, 95
6, 489120, Note_on_c, 8, 72, 95
6, 490080, Note_off_c, 8, 72, 95
6, 490080, Note_on_c, 8, 72, 95
6, 490560, Note_off_c, 8, 72, 95
6, 490560, Note_on_c, 8, 72, 95
6, 491040, Note_off_c, 8, 72, 95
6, 491040, Note_on_c, 8, 72, 95
6, 491520, Note_off_c, 8, 72, 95
6, 491520, End_track
0, 0, End_of_file
