0, 0, Header, 1, 3, 960
1, 0, Start_track
1, 0, Control_c, 0, 101, 0
1, 0, Control_c, 0, 100, 0
1, 0, Control_c, 0, 6, 12
1, 0, Control_c, 0, 38, 0
1, 0, Control_c, 1, 101, 0
1, 0, Control_c, 1, 100, 0
1, 0, Control_c, 1, 6, 12
1, 0, Control_c, 1, 38, 0
1, 0, Control_c, 2, 101, 0
1, 0, Control_c, 2, 100, 0
1, 0, Control_c, 2, 6, 12
1, 0, Control_c, 2, 38, 0
1, 0, Control_c, 3, 101, 0
1, 0, Control_c, 3, 100, 0
1, 0, Control_c, 3, 6, 12
1, 0, Control_c, 3, 38, 0
1, 0, Control_c, 4, 101, 0
1, 0, Control_c, 4, 100, 0
1, 0, Control_c, 4, 6, 12
1, 0, Control_c, 4, 38, 0
1, 0, Control_c, 5, 101, 0
1, 0, Control_c, 5, 100, 0
1, 0, Control_c, 5, 6, 12
1, 0, Control_c, 5, 38, 0
1, 0, Control_c, 6, 101, 0
1, 0, Control_c, 6, 100, 0
1, 0, Control_c, 6, 6, 12
1, 0, Control_c, 6, 38, 0
1, 0, Control_c, 7, 101, 0
1, 0, Control_c, 7, 100, 0
1, 0, Control_c, 7, 6, 12
1, 0, Control_c, 7, 38, 0
1, 0, Control_c, 8, 101, 0
1, 0, Control_c, 8, 100, 0
1, 0, Control_c, 8, 6, 12
1, 0, Control_c, 8, 38, 0
1, 0, Control_c, 9, 101, 0
1, 0, Control_c, 9, 100, 0
1, 0, Control_c, 9, 6, 12
1, 0, Control_c, 9, 38, 0
1, 0, Control_c, 10, 101, 0
1, 0, Control_c, 10, 100, 0
1, 0, Control_c, 10, 6, 12
1, 0, Control_c, 10, 38, 0
1, 0, Control_c, 11, 101, 0
1, 0, Control_c, 11, 100, 0
1, 0, Control_c, 11, 6, 12
1, 0, Control_c, 11, 38, 0
1, 0, Control_c, 12, 101, 0
1, 0, Control_c, 12, 100, 0
1, 0, Control_c, 12, 6, 12
1, 0, Control_c, 12, 38, 0
1, 0, Control_c, 13, 101, 0
1, 0, Control_c, 13, 100, 0
1, 0, Control_c, 13, 6, 12
1, 0, Control_c, 13, 38, 0
1, 0, Control_c, 14, 101, 0
1, 0, Control_c, 14, 100, 0
1, 0, Control_c, 14, 6, 12
1, 0, Control_c, 14, 38, 0
1, 0, Control_c, 15, 101, 0
1, 0, Control_c, 15, 100, 0
1, 0, Control_c, 15, 6, 12
1, 0, Control_c, 15, 38, 0
1, 0, Time_signature, 4, 2, 24, 8
1, 0, Tempo, 666666
1, 30720, Time_signature, 2, 2, 24, 8
1, 32640, Time_signature, 4, 2, 24, 8
1, 48000, Time_signature, 2, 2, 24, 8
1, 49920, Time_signature, 4, 2, 24, 8
1, 65280, Time_signature, 2, 2, 24, 8
1, 67200, Time_signature, 4, 2, 24, 8
1, 82560, Time_signature, 2, 2, 24, 8
1, 84480, Time_signature, 4, 2, 24, 8
1, 99840, Time_signature, 2, 2, 24, 8
1, 101760, Time_signature, 4, 2, 24, 8
1, 117120, Time_signature, 2, 2, 24, 8
1, 119040, Time_signature, 4, 2, 24, 8
1, 134400, Time_signature, 2, 2, 24, 8
1, 136320, Time_signature, 4, 2, 24, 8
1, 151680, Time_signature, 2, 2, 24, 8
1, 153600, Time_signature, 4, 2, 24, 8
1, 168960, Time_signature, 2, 2, 24, 8
1, 170880, Time_signature, 4, 2, 24, 8
1, 186240, Time_signature, 2, 2, 24, 8
1, 188160, Time_signature, 4, 2, 24, 8
1, 203520, Time_signature, 2, 2, 24, 8
1, 205440, Time_signature, 4, 2, 24, 8
1, 220800, Time_signature, 2, 2, 24, 8
1, 222720, Time_signature, 4, 2, 24, 8
1, 238080, Time_signature, 2, 2, 24, 8
1, 240000, Time_signature, 4, 2, 24, 8
1, 255360, Time_signature, 2, 2, 24, 8
1, 257280, Time_signature, 4, 2, 24, 8
1, 274560, Time_signature, 4, 2, 24, 8
1, 289920, Time_signature, 2, 2, 24, 8
1, 291840, Time_signature, 4, 2, 24, 8
1, 307200, Time_signature, 2, 2, 24, 8
1, 309120, Time_signature, 4, 2, 24, 8
1, 324480, Time_signature, 2, 2, 24, 8
1, 326400, Time_signature, 4, 2, 24, 8
1, 341760, Time_signature, 2, 2, 24, 8
1, 343680, Time_signature, 4, 2, 24, 8
1, 359040, Time_signature, 2, 2, 24, 8
1, 360960, Time_signature, 4, 2, 24, 8
1, 360960, End_track
2, 0, Start_track
2, 0, Pitch_bend_c, 0, 8192
2, 0, Control_c, 0, 7, 127
2, 0, Control_c, 0, 10, 63
2, 0, Control_c, 0, 93, 0
2, 0, Control_c, 0, 91, 0
2, 0, Control_c, 0, 95, 0
2, 0, Control_c, 0, 92, 0
2, 0, Control_c, 0, 11, 127
2, 0, Program_c, 0, 30
2, 0, Control_c, 1, 7, 127
2, 0, Control_c, 1, 10, 63
2, 0, Control_c, 1, 93, 0
2, 0, Control_c, 1, 91, 0
2, 0, Control_c, 1, 95, 0
2, 0, Control_c, 1, 92, 0
2, 0, Control_c, 1, 11, 127
2, 0, Program_c, 1, 30
2, 3360, Note_on_c, 0, 73, 95
2, 3360, Note_on_c, 0, 57, 95
2, 3840, Note_off_c, 0, 73, 95
2, 3840, Note_off_c, 0, 57, 95
2, 3840, Note_on_c, 1, 76, 95
2, 3840, Note_on_c, 1, 57, 95
2, 4000, Pitch_bend_c, 1, 8192
2, 4000, Pitch_bend_c, 1, 8192
2, 4160, Pitch_bend_c, 1, 8320
2, 4160, Pitch_bend_c, 1, 8320
2, 4320, Pitch_bend_c, 1, 8192
2, 4320, Pitch_bend_c, 1, 8192
2, 4480, Pitch_bend_c, 1, 8320
2, 4480, Pitch_bend_c, 1, 8320
2, 4640, Pitch_bend_c, 1, 8192
2, 4640, Pitch_bend_c, 1, 8192
2, 4800, Pitch_bend_c, 1, 8320
2, 4800, Pitch_bend_c, 1, 8192
2, 4800, Note_off_c, 1, 76, 95
2, 4800, Pitch_bend_c, 1, 8320
2, 4800, Pitch_bend_c, 1, 8192
2, 4800, Note_off_c, 1, 57, 95
2, 4800, Note_on_c, 1, 76, 95
2, 4800, Note_on_c, 1, 57, 95
2, 4960, Pitch_bend_c, 1, 7552
2, 4960, Pitch_bend_c, 1, 7552
2, 5120, Pitch_bend_c, 1, 6784
2, 5120, Pitch_bend_c, 1, 8192
2, 5120, Note_off_c, 1, 76, 95
2, 5120, Pitch_bend_c, 1, 6784
2, 5120, Pitch_bend_c, 1, 8192
2, 5120, Note_off_c, 1, 57, 95
2, 5120, Note_on_c, 0, 74, 95
2, 5120, Note_on_c, 0, 55, 95
2, 5440, Note_off_c, 0, 74, 95
2, 5440, Note_off_c, 0, 55, 95
2, 5440, Note_on_c, 0, 73, 95
2, 5440, Note_on_c, 0, 57, 95
2, 5760, Note_off_c, 0, 73, 95
2, 5760, Note_off_c, 0, 57, 95
2, 5760, Note_on_c, 1, 76, 95
2, 5920, Pitch_bend_c, 1, 8192
2, 6080, Pitch_bend_c, 1, 8320
2, 6240, Pitch_bend_c, 1, 8192
2, 6240, Pitch_bend_c, 1, 8320
2, 6240, Pitch_bend_c, 1, 8192
2, 6240, Note_off_c, 1, 76, 95
2, 6720, Note_on_c, 1, 67, 95
2, 6720, Note_on_c, 1, 64, 95
2, 6880, Pitch_bend_c, 1, 7936
2, 6880, Pitch_bend_c, 1, 7936
2, 7040, Pitch_bend_c, 1, 7552
2, 7040, Pitch_bend_c, 1, 8192
2, 7040, Note_off_c, 1, 67, 95
2, 7040, Pitch_bend_c, 1, 7552
2, 7040, Pitch_bend_c, 1, 8192
2, 7040, Note_off_c, 1, 64, 95
2, 7040, Note_on_c, 0, 66, 95
2, 7040, Note_on_c, 0, 63, 95
2, 7360, Note_off_c, 0, 66, 95
2, 7360, Note_off_c, 0, 63, 95
2, 7360, Note_on_c, 0, 64, 70
2, 7360, Note_on_c, 0, 61, 70
2, 7680, Note_off_c, 0, 64, 70
2, 7680, Note_off_c, 0, 61, 70
2, 7680, Note_on_c, 0, 45, 95
2, 7680, Note_on_c, 0, 40, 95
2, 8160, Note_off_c, 0, 45, 95
2, 8160, Note_off_c, 0, 40, 95
2, 8160, Note_on_c, 0, 57, 95
2, 8640, Note_off_c, 0, 57, 95
2, 8640, Note_on_c, 0, 57, 95
2, 8640, Note_on_c, 0, 55, 95
2, 8880, Note_off_c, 0, 57, 95
2, 8880, Note_off_c, 0, 55, 95
2, 8880, Note_on_c, 0, 57, 95
2, 9120, Note_off_c, 0, 57, 95
2, 9120, Note_on_c, 0, 57, 95
2, 9120, Note_on_c, 0, 55, 95
2, 9600, Note_off_c, 0, 57, 95
2, 9600, Note_off_c, 0, 55, 95
2, 9600, Note_on_c, 0, 57, 95
2, 9600, Note_on_c, 0, 54, 95
2, 9840, Note_off_c, 0, 57, 95
2, 9840, Note_off_c, 0, 54, 95
2, 9840, Note_on_c, 0, 57, 95
2, 10080, Note_off_c, 0, 57, 95
2, 10080, Note_on_c, 0, 57, 95
2, 10080, Note_on_c, 0, 54, 95
2, 10560, Note_off_c, 0, 57, 95
2, 10560, Note_off_c, 0, 54, 95
2, 10560, Note_on_c, 0, 57, 95
2, 10560, Note_on_c, 0, 52, 95
2, 10800, Note_off_c, 0, 57, 95
2, 10800, Note_off_c, 0, 52, 95
2, 11040, Note_on_c, 0, 49, 95
2, 11520, Note_off_c, 0, 49, 95
2, 11520, Note_on_c, 0, 45, 95
2, 12000, Note_off_c, 0, 45, 95
2, 12000, Note_on_c, 1, 69, 95
2, 12160, Pitch_bend_c, 1, 8192
2, 12320, Pitch_bend_c, 1, 8320
2, 12480, Pitch_bend_c, 1, 8192
2, 12640, Pitch_bend_c, 1, 8320
2, 12800, Pitch_bend_c, 1, 8192
2, 12960, Pitch_bend_c, 1, 8320
2, 13120, Pitch_bend_c, 1, 8192
2, 13280, Pitch_bend_c, 1, 8320
2, 13440, Pitch_bend_c, 1, 8192
2, 13600, Pitch_bend_c, 1, 8320
2, 13760, Pitch_bend_c, 1, 8192
2, 13920, Pitch_bend_c, 1, 8320
2, 14080, Pitch_bend_c, 1, 8192
2, 14240, Pitch_bend_c, 1, 8320
2, 14400, Pitch_bend_c, 1, 8192
2, 14560, Pitch_bend_c, 1, 8320
2, 14720, Pitch_bend_c, 1, 8192
2, 14880, Pitch_bend_c, 1, 8320
2, 15040, Pitch_bend_c, 1, 8192
2, 15200, Pitch_bend_c, 1, 8320
2, 15360, Pitch_bend_c, 1, 8192
2, 15360, Pitch_bend_c, 1, 8320
2, 15360, Pitch_bend_c, 1, 8192
2, 15360, Note_off_c, 1, 69, 95
2, 15360, Note_on_c, 1, 62, 95
2, 15360, Note_on_c, 1, 57, 95
2, 15360, Note_on_c, 1, 50, 95
2, 15520, Pitch_bend_c, 1, 8192
2, 15520, Pitch_bend_c, 1, 8192
2, 15520, Pitch_bend_c, 1, 8192
2, 15680, Pitch_bend_c, 1, 8320
2, 15680, Pitch_bend_c, 1, 8320
2, 15680, Pitch_bend_c, 1, 8320
2, 15840, Pitch_bend_c, 1, 8192
2, 15840, Pitch_bend_c, 1, 8192
2, 15840, Pitch_bend_c, 1, 8192
2, 16000, Pitch_bend_c, 1, 8320
2, 16000, Pitch_bend_c, 1, 8320
2, 16000, Pitch_bend_c, 1, 8320
2, 16160, Pitch_bend_c, 1, 8192
2, 16160, Pitch_bend_c, 1, 8192
2, 16160, Pitch_bend_c, 1, 8192
2, 16320, Pitch_bend_c, 1, 8320
2, 16320, Pitch_bend_c, 1, 8320
2, 16320, Pitch_bend_c, 1, 8320
2, 16480, Pitch_bend_c, 1, 8192
2, 16480, Pitch_bend_c, 1, 8192
2, 16480, Pitch_bend_c, 1, 8192
2, 16640, Pitch_bend_c, 1, 8320
2, 16640, Pitch_bend_c, 1, 8320
2, 16640, Pitch_bend_c, 1, 8320
2, 16800, Pitch_bend_c, 1, 8192
2, 16800, Pitch_bend_c, 1, 8192
2, 16800, Pitch_bend_c, 1, 8192
2, 16960, Pitch_bend_c, 1, 8320
2, 16960, Pitch_bend_c, 1, 8320
2, 16960, Pitch_bend_c, 1, 8320
2, 17120, Pitch_bend_c, 1, 8192
2, 17120, Pitch_bend_c, 1, 8192
2, 17120, Pitch_bend_c, 1, 8192
2, 17280, Pitch_bend_c, 1, 8320
2, 17280, Pitch_bend_c, 1, 8192
2, 17280, Note_off_c, 1, 62, 95
2, 17280, Pitch_bend_c, 1, 8320
2, 17280, Pitch_bend_c, 1, 8192
2, 17280, Note_off_c, 1, 57, 95
2, 17280, Pitch_bend_c, 1, 8320
2, 17280, Pitch_bend_c, 1, 8192
2, 17280, Note_off_c, 1, 50, 95
2, 17280, Note_on_c, 0, 52, 95
2, 17280, Note_on_c, 0, 45, 95
2, 17325, Note_off_c, 0, 52, 95
2, 17325, Note_off_c, 0, 45, 95
2, 18240, Note_on_c, 0, 52, 95
2, 18240, Note_on_c, 0, 45, 95
2, 18285, Note_off_c, 0, 52, 95
2, 18285, Note_off_c, 0, 45, 95
2, 18720, Note_on_c, 1, 57, 95
2, 18720, Note_on_c, 1, 50, 95
2, 18880, Pitch_bend_c, 1, 8192
2, 18880, Pitch_bend_c, 1, 8192
2, 19040, Pitch_bend_c, 1, 8320
2, 19040, Pitch_bend_c, 1, 8320
2, 19200, Pitch_bend_c, 1, 8192
2, 19200, Pitch_bend_c, 1, 8192
2, 19360, Pitch_bend_c, 1, 8320
2, 19360, Pitch_bend_c, 1, 8320
2, 19520, Pitch_bend_c, 1, 8192
2, 19520, Pitch_bend_c, 1, 8192
2, 19680, Pitch_bend_c, 1, 8320
2, 19680, Pitch_bend_c, 1, 8320
2, 19840, Pitch_bend_c, 1, 8192
2, 19840, Pitch_bend_c, 1, 8192
2, 20000, Pitch_bend_c, 1, 8320
2, 20000, Pitch_bend_c, 1, 8320
2, 20160, Pitch_bend_c, 1, 8192
2, 20160, Pitch_bend_c, 1, 8192
2, 20320, Pitch_bend_c, 1, 8320
2, 20320, Pitch_bend_c, 1, 8320
2, 20480, Pitch_bend_c, 1, 8192
2, 20480, Pitch_bend_c, 1, 8192
2, 20640, Pitch_bend_c, 1, 8320
2, 20640, Pitch_bend_c, 1, 8320
2, 20800, Pitch_bend_c, 1, 8192
2, 20800, Pitch_bend_c, 1, 8192
2, 20960, Pitch_bend_c, 1, 8320
2, 20960, Pitch_bend_c, 1, 8320
2, 21120, Pitch_bend_c, 1, 8192
2, 21120, Pitch_bend_c, 1, 8320
2, 21120, Pitch_bend_c, 1, 8192
2, 21120, Note_off_c, 1, 57, 95
2, 21120, Pitch_bend_c, 1, 8192
2, 21120, Pitch_bend_c, 1, 8320
2, 21120, Pitch_bend_c, 1, 8192
2, 21120, Note_off_c, 1, 50, 95
2, 21120, Note_on_c, 0, 60, 95
2, 21120, Note_on_c, 0, 55, 95
2, 21120, Note_on_c, 0, 48, 95
2, 22080, Note_off_c, 0, 60, 95
2, 22080, Note_off_c, 0, 55, 95
2, 22080, Note_off_c, 0, 48, 95
2, 22080, Note_on_c, 0, 45, 95
2, 22560, Note_off_c, 0, 45, 95
2, 22560, Note_on_c, 0, 45, 95
2, 23520, Note_off_c, 0, 45, 95
2, 24000, Note_on_c, 0, 55, 95
2, 24720, Note_off_c, 0, 55, 95
2, 24720, Note_on_c, 0, 52, 95
2, 24960, Note_off_c, 0, 52, 95
2, 24960, Note_on_c, 0, 48, 95
2, 25440, Note_off_c, 0, 48, 95
2, 25440, Note_on_c, 0, 57, 95
2, 25440, Note_on_c, 0, 52, 95
2, 25920, Note_off_c, 0, 57, 95
2, 25920, Note_off_c, 0, 52, 95
2, 25920, Note_on_c, 0, 57, 95
2, 25920, Note_on_c, 0, 54, 95
2, 26400, Note_off_c, 0, 57, 95
2, 26400, Note_off_c, 0, 54, 95
2, 26400, Note_on_c, 0, 57, 95
2, 26400, Note_on_c, 0, 52, 95
2, 27360, Note_off_c, 0, 57, 95
2, 27360, Note_off_c, 0, 52, 95
2, 27720, Note_on_c, 1, 54, 95
2, 27840, Note_off_c, 1, 54, 95
2, 27840, Note_on_c, 1, 55, 95
2, 28320, Note_off_c, 1, 55, 95
2, 28320, Note_on_c, 0, 54, 70
2, 28560, Note_off_c, 0, 54, 70
2, 28560, Note_on_c, 0, 52, 70
2, 28800, Note_off_c, 0, 52, 70
2, 28800, Note_on_c, 0, 48, 95
2, 29280, Note_off_c, 0, 48, 95
2, 29280, Note_on_c, 0, 57, 95
2, 29280, Note_on_c, 0, 52, 95
2, 29760, Note_off_c, 0, 57, 95
2, 29760, Note_off_c, 0, 52, 95
2, 29760, Note_on_c, 0, 54, 95
2, 30240, Note_off_c, 0, 54, 95
2, 30240, Note_on_c, 0, 61, 95
2, 30240, Note_on_c, 0, 57, 95
2, 30240, Note_on_c, 0, 52, 95
2, 30720, Note_off_c, 0, 61, 95
2, 30720, Note_off_c, 0, 57, 95
2, 30720, Note_off_c, 0, 52, 95
2, 30720, Note_on_c, 0, 45, 95
2, 31200, Note_off_c, 0, 45, 95
2, 31200, Note_on_c, 0, 57, 95
2, 31200, Note_on_c, 0, 52, 95
2, 31680, Note_off_c, 0, 57, 95
2, 31680, Note_off_c, 0, 52, 95
2, 32160, Note_on_c, 0, 50, 95
2, 33120, Note_off_c, 0, 50, 95
2, 33120, Note_on_c, 1, 62, 95
2, 33120, Note_on_c, 1, 57, 95
2, 33120, Note_on_c, 1, 50, 95
2, 33280, Pitch_bend_c, 1, 8192
2, 33280, Pitch_bend_c, 1, 8192
2, 33280, Pitch_bend_c, 1, 8192
2, 33440, Pitch_bend_c, 1, 8320
2, 33440, Pitch_bend_c, 1, 8320
2, 33440, Pitch_bend_c, 1, 8320
2, 33600, Pitch_bend_c, 1, 8192
2, 33600, Pitch_bend_c, 1, 8192
2, 33600, Pitch_bend_c, 1, 8192
2, 33760, Pitch_bend_c, 1, 8320
2, 33760, Pitch_bend_c, 1, 8320
2, 33760, Pitch_bend_c, 1, 8320
2, 33920, Pitch_bend_c, 1, 8192
2, 33920, Pitch_bend_c, 1, 8192
2, 33920, Pitch_bend_c, 1, 8192
2, 34080, Pitch_bend_c, 1, 8320
2, 34080, Pitch_bend_c, 1, 8192
2, 34080, Note_off_c, 1, 62, 95
2, 34080, Pitch_bend_c, 1, 8320
2, 34080, Pitch_bend_c, 1, 8192
2, 34080, Note_off_c, 1, 57, 95
2, 34080, Pitch_bend_c, 1, 8320
2, 34080, Pitch_bend_c, 1, 8192
2, 34080, Note_off_c, 1, 50, 95
2, 34080, Note_on_c, 0, 50, 95
2, 35040, Note_off_c, 0, 50, 95
2, 35040, Note_on_c, 0, 50, 95
2, 35520, Note_off_c, 0, 50, 95
2, 36000, Note_on_c, 1, 50, 95
2, 36160, Pitch_bend_c, 1, 8192
2, 36320, Pitch_bend_c, 1, 8320
2, 36480, Pitch_bend_c, 1, 8192
2, 36640, Pitch_bend_c, 1, 8320
2, 36800, Pitch_bend_c, 1, 8192
2, 36960, Pitch_bend_c, 1, 8320
2, 37120, Pitch_bend_c, 1, 8192
2, 37280, Pitch_bend_c, 1, 8320
2, 37440, Pitch_bend_c, 1, 8192
2, 37440, Pitch_bend_c, 1, 8320
2, 37440, Pitch_bend_c, 1, 8192
2, 37440, Note_off_c, 1, 50, 95
2, 38400, Note_on_c, 0, 48, 95
2, 39360, Note_off_c, 0, 48, 95
2, 39360, Note_on_c, 0, 45, 95
2, 39840, Note_off_c, 0, 45, 95
2, 39840, Note_on_c, 0, 45, 95
2, 40320, Note_off_c, 0, 45, 95
2, 41280, Note_on_c, 0, 55, 95
2, 42000, Note_off_c, 0, 55, 95
2, 42000, Note_on_c, 0, 52, 95
2, 42240, Note_off_c, 0, 52, 95
2, 42240, Note_on_c, 0, 48, 95
2, 42720, Note_off_c, 0, 48, 95
2, 42720, Note_on_c, 0, 57, 95
2, 42720, Note_on_c, 0, 52, 95
2, 43200, Note_off_c, 0, 57, 95
2, 43200, Note_off_c, 0, 52, 95
2, 43200, Note_on_c, 0, 54, 95
2, 43680, Note_off_c, 0, 54, 95
2, 43680, Note_on_c, 0, 57, 95
2, 43680, Note_on_c, 0, 52, 95
2, 44160, Note_off_c, 0, 57, 95
2, 44160, Note_off_c, 0, 52, 95
2, 45000, Note_on_c, 1, 54, 95
2, 45120, Note_off_c, 1, 54, 95
2, 45120, Note_on_c, 1, 55, 95
2, 45600, Note_off_c, 1, 55, 95
2, 45600, Note_on_c, 0, 55, 47
2, 45760, Note_off_c, 0, 55, 47
2, 45760, Note_on_c, 0, 54, 70
2, 45920, Note_off_c, 0, 54, 70
2, 45920, Note_on_c, 0, 52, 70
2, 46080, Note_off_c, 0, 52, 70
2, 46080, Note_on_c, 0, 48, 95
2, 46560, Note_off_c, 0, 48, 95
2, 46560, Note_on_c, 0, 52, 95
2, 47040, Note_off_c, 0, 52, 95
2, 47040, Note_on_c, 0, 54, 95
2, 47520, Note_off_c, 0, 54, 95
2, 47520, Note_on_c, 0, 57, 95
2, 47520, Note_on_c, 0, 52, 70
2, 48000, Note_off_c, 0, 57, 95
2, 48000, Note_off_c, 0, 52, 70
2, 48000, Note_on_c, 0, 45, 95
2, 48960, Note_off_c, 0, 45, 95
2, 48960, Note_on_c, 0, 52, 95
2, 49200, Note_off_c, 0, 52, 95
2, 49200, Note_on_c, 0, 54, 70
2, 49440, Note_off_c, 0, 54, 70
2, 49440, Note_on_c, 1, 58, 95
2, 49440, Note_on_c, 1, 51, 95
2, 49560, Pitch_bend_c, 1, 8320
2, 49560, Pitch_bend_c, 1, 8320
2, 49680, Pitch_bend_c, 1, 8448
2, 49680, Pitch_bend_c, 1, 8448
2, 49800, Pitch_bend_c, 1, 8704
2, 49800, Pitch_bend_c, 1, 8704
2, 49920, Pitch_bend_c, 1, 8832
2, 49920, Pitch_bend_c, 1, 8192
2, 49920, Note_off_c, 1, 58, 95
2, 49920, Pitch_bend_c, 1, 8832
2, 49920, Pitch_bend_c, 1, 8192
2, 49920, Note_off_c, 1, 51, 95
2, 49920, Note_on_c, 1, 59, 95
2, 49920, Note_on_c, 1, 52, 95
2, 50080, Pitch_bend_c, 1, 8192
2, 50080, Pitch_bend_c, 1, 8192
2, 50240, Pitch_bend_c, 1, 8320
2, 50240, Pitch_bend_c, 1, 8320
2, 50400, Pitch_bend_c, 1, 8192
2, 50400, Pitch_bend_c, 1, 8192
2, 50560, Pitch_bend_c, 1, 8320
2, 50560, Pitch_bend_c, 1, 8320
2, 50720, Pitch_bend_c, 1, 8192
2, 50720, Pitch_bend_c, 1, 8192
2, 50880, Pitch_bend_c, 1, 8320
2, 50880, Pitch_bend_c, 1, 8320
2, 51040, Pitch_bend_c, 1, 8192
2, 51040, Pitch_bend_c, 1, 8192
2, 51200, Pitch_bend_c, 1, 8320
2, 51200, Pitch_bend_c, 1, 8320
2, 51360, Pitch_bend_c, 1, 8192
2, 51360, Pitch_bend_c, 1, 8192
2, 51520, Pitch_bend_c, 1, 8320
2, 51520, Pitch_bend_c, 1, 8320
2, 51680, Pitch_bend_c, 1, 8192
2, 51680, Pitch_bend_c, 1, 8192
2, 51840, Pitch_bend_c, 1, 8320
2, 51840, Pitch_bend_c, 1, 8320
2, 52000, Pitch_bend_c, 1, 8192
2, 52000, Pitch_bend_c, 1, 8192
2, 52160, Pitch_bend_c, 1, 8320
2, 52160, Pitch_bend_c, 1, 8320
2, 52320, Pitch_bend_c, 1, 8192
2, 52320, Pitch_bend_c, 1, 8192
2, 52480, Pitch_bend_c, 1, 8320
2, 52480, Pitch_bend_c, 1, 8320
2, 52640, Pitch_bend_c, 1, 8192
2, 52640, Pitch_bend_c, 1, 8192
2, 52800, Pitch_bend_c, 1, 8320
2, 52800, Pitch_bend_c, 1, 8192
2, 52800, Note_off_c, 1, 59, 95
2, 52800, Pitch_bend_c, 1, 8320
2, 52800, Pitch_bend_c, 1, 8192
2, 52800, Note_off_c, 1, 52, 95
2, 52800, Note_on_c, 0, 52, 95
2, 52800, Note_on_c, 0, 45, 95
2, 52845, Note_off_c, 0, 52, 95
2, 52845, Note_off_c, 0, 45, 95
2, 53760, Note_on_c, 1, 50, 95
2, 53920, Pitch_bend_c, 1, 8192
2, 54080, Pitch_bend_c, 1, 8320
2, 54240, Pitch_bend_c, 1, 8192
2, 54400, Pitch_bend_c, 1, 8320
2, 54560, Pitch_bend_c, 1, 8192
2, 54720, Pitch_bend_c, 1, 8320
2, 54720, Pitch_bend_c, 1, 8192
2, 54720, Note_off_c, 1, 50, 95
2, 54720, Note_on_c, 0, 48, 95
2, 55680, Note_off_c, 0, 48, 95
2, 55680, Note_on_c, 0, 55, 95
2, 56520, Note_on_c, 1, 55, 95
2, 56640, Note_off_c, 0, 55, 95
2, 56640, Note_off_c, 1, 55, 95
2, 56640, Note_on_c, 1, 57, 95
2, 56800, Pitch_bend_c, 1, 8192
2, 56960, Pitch_bend_c, 1, 8320
2, 57120, Pitch_bend_c, 1, 8192
2, 57280, Pitch_bend_c, 1, 8320
2, 57440, Pitch_bend_c, 1, 8192
2, 57600, Pitch_bend_c, 1, 8320
2, 57600, Pitch_bend_c, 1, 8192
2, 57600, Note_off_c, 1, 57, 95
2, 57600, Note_on_c, 0, 57, 47
2, 58560, Note_off_c, 0, 57, 47
2, 58560, Note_on_c, 0, 55, 95
2, 59280, Note_off_c, 0, 55, 95
2, 59280, Note_on_c, 0, 52, 95
2, 59520, Note_off_c, 0, 52, 95
2, 59520, Note_on_c, 0, 48, 95
2, 60000, Note_off_c, 0, 48, 95
2, 60000, Note_on_c, 0, 57, 95
2, 60000, Note_on_c, 0, 52, 95
2, 60480, Note_off_c, 0, 57, 95
2, 60480, Note_off_c, 0, 52, 95
2, 60480, Note_on_c, 0, 54, 95
2, 60960, Note_off_c, 0, 54, 95
2, 60960, Note_on_c, 0, 57, 95
2, 60960, Note_on_c, 0, 52, 95
2, 61440, Note_off_c, 0, 57, 95
2, 61440, Note_off_c, 0, 52, 95
2, 62400, Note_on_c, 0, 55, 95
2, 63120, Note_off_c, 0, 55, 95
2, 63120, Note_on_c, 0, 52, 95
2, 63360, Note_off_c, 0, 52, 95
2, 63360, Note_on_c, 0, 48, 95
2, 63840, Note_off_c, 0, 48, 95
2, 63840, Note_on_c, 0, 57, 95
2, 63840, Note_on_c, 0, 52, 95
2, 64320, Note_off_c, 0, 57, 95
2, 64320, Note_off_c, 0, 52, 95
2, 64320, Note_on_c, 0, 54, 95
2, 64800, Note_off_c, 0, 54, 95
2, 64800, Note_on_c, 0, 57, 95
2, 64800, Note_on_c, 0, 52, 95
2, 65280, Note_off_c, 0, 57, 95
2, 65280, Note_off_c, 0, 52, 95
2, 65280, Note_on_c, 0, 45, 95
2, 65760, Note_off_c, 0, 45, 95
2, 65760, Note_on_c, 0, 57, 95
2, 65760, Note_on_c, 0, 52, 95
2, 66240, Note_off_c, 0, 57, 95
2, 66240, Note_off_c, 0, 52, 95
2, 66720, Note_on_c, 0, 62, 95
2, 66720, Note_on_c, 0, 57, 95
2, 66720, Note_on_c, 0, 50, 95
2, 67200, Note_off_c, 0, 62, 95
2, 67200, Note_off_c, 0, 57, 95
2, 67200, Note_off_c, 0, 50, 95
2, 67200, Note_on_c, 1, 62, 95
2, 67200, Note_on_c, 1, 57, 95
2, 67200, Note_on_c, 1, 50, 95
2, 67360, Pitch_bend_c, 1, 8192
2, 67360, Pitch_bend_c, 1, 8192
2, 67360, Pitch_bend_c, 1, 8192
2, 67520, Pitch_bend_c, 1, 8320
2, 67520, Pitch_bend_c, 1, 8320
2, 67520, Pitch_bend_c, 1, 8320
2, 67680, Pitch_bend_c, 1, 8192
2, 67680, Pitch_bend_c, 1, 8192
2, 67680, Pitch_bend_c, 1, 8192
2, 67840, Pitch_bend_c, 1, 8320
2, 67840, Pitch_bend_c, 1, 8320
2, 67840, Pitch_bend_c, 1, 8320
2, 68000, Pitch_bend_c, 1, 8192
2, 68000, Pitch_bend_c, 1, 8192
2, 68000, Pitch_bend_c, 1, 8192
2, 68160, Pitch_bend_c, 1, 8320
2, 68160, Pitch_bend_c, 1, 8320
2, 68160, Pitch_bend_c, 1, 8320
2, 68320, Pitch_bend_c, 1, 8192
2, 68320, Pitch_bend_c, 1, 8192
2, 68320, Pitch_bend_c, 1, 8192
2, 68480, Pitch_bend_c, 1, 8320
2, 68480, Pitch_bend_c, 1, 8320
2, 68480, Pitch_bend_c, 1, 8320
2, 68640, Pitch_bend_c, 1, 8192
2, 68640, Pitch_bend_c, 1, 8192
2, 68640, Pitch_bend_c, 1, 8192
2, 68800, Pitch_bend_c, 1, 8320
2, 68800, Pitch_bend_c, 1, 8320
2, 68800, Pitch_bend_c, 1, 8320
2, 68960, Pitch_bend_c, 1, 8192
2, 68960, Pitch_bend_c, 1, 8192
2, 68960, Pitch_bend_c, 1, 8192
2, 69120, Pitch_bend_c, 1, 8320
2, 69120, Pitch_bend_c, 1, 8192
2, 69120, Note_off_c, 1, 62, 95
2, 69120, Pitch_bend_c, 1, 8320
2, 69120, Pitch_bend_c, 1, 8192
2, 69120, Note_off_c, 1, 57, 95
2, 69120, Pitch_bend_c, 1, 8320
2, 69120, Pitch_bend_c, 1, 8192
2, 69120, Note_off_c, 1, 50, 95
2, 69120, Note_on_c, 0, 52, 95
2, 69120, Note_on_c, 0, 45, 95
2, 69165, Note_off_c, 0, 52, 95
2, 69165, Note_off_c, 0, 45, 95
2, 70080, Note_on_c, 0, 52, 95
2, 70080, Note_on_c, 0, 45, 95
2, 70125, Note_off_c, 0, 52, 95
2, 70125, Note_off_c, 0, 45, 95
2, 70560, Note_on_c, 1, 57, 95
2, 70560, Note_on_c, 1, 50, 95
2, 70720, Pitch_bend_c, 1, 8192
2, 70720, Pitch_bend_c, 1, 8192
2, 70880, Pitch_bend_c, 1, 8320
2, 70880, Pitch_bend_c, 1, 8320
2, 71040, Pitch_bend_c, 1, 8192
2, 71040, Pitch_bend_c, 1, 8192
2, 71200, Pitch_bend_c, 1, 8320
2, 71200, Pitch_bend_c, 1, 8320
2, 71360, Pitch_bend_c, 1, 8192
2, 71360, Pitch_bend_c, 1, 8192
2, 71520, Pitch_bend_c, 1, 8320
2, 71520, Pitch_bend_c, 1, 8320
2, 71680, Pitch_bend_c, 1, 8192
2, 71680, Pitch_bend_c, 1, 8192
2, 71840, Pitch_bend_c, 1, 8320
2, 71840, Pitch_bend_c, 1, 8320
2, 72000, Pitch_bend_c, 1, 8192
2, 72000, Pitch_bend_c, 1, 8192
2, 72160, Pitch_bend_c, 1, 8320
2, 72160, Pitch_bend_c, 1, 8320
2, 72320, Pitch_bend_c, 1, 8192
2, 72320, Pitch_bend_c, 1, 8192
2, 72480, Pitch_bend_c, 1, 8320
2, 72480, Pitch_bend_c, 1, 8320
2, 72640, Pitch_bend_c, 1, 8192
2, 72640, Pitch_bend_c, 1, 8192
2, 72800, Pitch_bend_c, 1, 8320
2, 72800, Pitch_bend_c, 1, 8320
2, 72960, Pitch_bend_c, 1, 8192
2, 72960, Pitch_bend_c, 1, 8320
2, 72960, Pitch_bend_c, 1, 8192
2, 72960, Note_off_c, 1, 57, 95
2, 72960, Pitch_bend_c, 1, 8192
2, 72960, Pitch_bend_c, 1, 8320
2, 72960, Pitch_bend_c, 1, 8192
2, 72960, Note_off_c, 1, 50, 95
2, 72960, Note_on_c, 0, 60, 95
2, 72960, Note_on_c, 0, 55, 95
2, 72960, Note_on_c, 0, 48, 95
2, 73920, Note_off_c, 0, 60, 95
2, 73920, Note_off_c, 0, 55, 95
2, 73920, Note_off_c, 0, 48, 95
2, 73920, Note_on_c, 0, 45, 95
2, 74400, Note_off_c, 0, 45, 95
2, 74400, Note_on_c, 0, 45, 95
2, 75360, Note_off_c, 0, 45, 95
2, 75840, Note_on_c, 0, 55, 95
2, 76560, Note_off_c, 0, 55, 95
2, 76560, Note_on_c, 0, 52, 95
2, 76800, Note_off_c, 0, 52, 95
2, 76800, Note_on_c, 0, 48, 95
2, 77280, Note_off_c, 0, 48, 95
2, 77280, Note_on_c, 0, 57, 95
2, 77280, Note_on_c, 0, 52, 95
2, 77760, Note_off_c, 0, 57, 95
2, 77760, Note_off_c, 0, 52, 95
2, 77760, Note_on_c, 0, 57, 95
2, 77760, Note_on_c, 0, 54, 95
2, 78240, Note_off_c, 0, 57, 95
2, 78240, Note_off_c, 0, 54, 95
2, 78240, Note_on_c, 0, 57, 95
2, 78240, Note_on_c, 0, 52, 95
2, 79200, Note_off_c, 0, 57, 95
2, 79200, Note_off_c, 0, 52, 95
2, 79560, Note_on_c, 1, 54, 95
2, 79680, Note_off_c, 1, 54, 95
2, 79680, Note_on_c, 1, 55, 95
2, 80160, Note_off_c, 1, 55, 95
2, 80160, Note_on_c, 0, 54, 70
2, 80400, Note_off_c, 0, 54, 70
2, 80400, Note_on_c, 0, 52, 70
2, 80640, Note_off_c, 0, 52, 70
2, 80640, Note_on_c, 0, 48, 95
2, 81120, Note_off_c, 0, 48, 95
2, 81120, Note_on_c, 0, 57, 95
2, 81120, Note_on_c, 0, 52, 95
2, 81600, Note_off_c, 0, 57, 95
2, 81600, Note_off_c, 0, 52, 95
2, 81600, Note_on_c, 0, 54, 95
2, 82080, Note_off_c, 0, 54, 95
2, 82080, Note_on_c, 0, 61, 95
2, 82080, Note_on_c, 0, 57, 95
2, 82080, Note_on_c, 0, 52, 95
2, 82560, Note_off_c, 0, 61, 95
2, 82560, Note_off_c, 0, 57, 95
2, 82560, Note_off_c, 0, 52, 95
2, 82560, Note_on_c, 0, 45, 95
2, 83040, Note_off_c, 0, 45, 95
2, 83040, Note_on_c, 0, 57, 95
2, 83040, Note_on_c, 0, 52, 95
2, 83520, Note_off_c, 0, 57, 95
2, 83520, Note_off_c, 0, 52, 95
2, 84000, Note_on_c, 0, 50, 95
2, 84960, Note_off_c, 0, 50, 95
2, 84960, Note_on_c, 1, 62, 95
2, 84960, Note_on_c, 1, 57, 95
2, 84960, Note_on_c, 1, 50, 95
2, 85120, Pitch_bend_c, 1, 8192
2, 85120, Pitch_bend_c, 1, 8192
2, 85120, Pitch_bend_c, 1, 8192
2, 85280, Pitch_bend_c, 1, 8320
2, 85280, Pitch_bend_c, 1, 8320
2, 85280, Pitch_bend_c, 1, 8320
2, 85440, Pitch_bend_c, 1, 8192
2, 85440, Pitch_bend_c, 1, 8192
2, 85440, Pitch_bend_c, 1, 8192
2, 85600, Pitch_bend_c, 1, 8320
2, 85600, Pitch_bend_c, 1, 8320
2, 85600, Pitch_bend_c, 1, 8320
2, 85760, Pitch_bend_c, 1, 8192
2, 85760, Pitch_bend_c, 1, 8192
2, 85760, Pitch_bend_c, 1, 8192
2, 85920, Pitch_bend_c, 1, 8320
2, 85920, Pitch_bend_c, 1, 8192
2, 85920, Note_off_c, 1, 62, 95
2, 85920, Pitch_bend_c, 1, 8320
2, 85920, Pitch_bend_c, 1, 8192
2, 85920, Note_off_c, 1, 57, 95
2, 85920, Pitch_bend_c, 1, 8320
2, 85920, Pitch_bend_c, 1, 8192
2, 85920, Note_off_c, 1, 50, 95
2, 85920, Note_on_c, 0, 50, 95
2, 86880, Note_off_c, 0, 50, 95
2, 86880, Note_on_c, 0, 50, 95
2, 87360, Note_off_c, 0, 50, 95
2, 87840, Note_on_c, 1, 50, 95
2, 88000, Pitch_bend_c, 1, 8192
2, 88160, Pitch_bend_c, 1, 8320
2, 88320, Pitch_bend_c, 1, 8192
2, 88480, Pitch_bend_c, 1, 8320
2, 88640, Pitch_bend_c, 1, 8192
2, 88800, Pitch_bend_c, 1, 8320
2, 88960, Pitch_bend_c, 1, 8192
2, 89120, Pitch_bend_c, 1, 8320
2, 89280, Pitch_bend_c, 1, 8192
2, 89280, Pitch_bend_c, 1, 8320
2, 89280, Pitch_bend_c, 1, 8192
2, 89280, Note_off_c, 1, 50, 95
2, 90240, Note_on_c, 0, 48, 95
2, 91200, Note_off_c, 0, 48, 95
2, 91200, Note_on_c, 0, 45, 95
2, 91680, Note_off_c, 0, 45, 95
2, 91680, Note_on_c, 0, 45, 95
2, 92160, Note_off_c, 0, 45, 95
2, 93120, Note_on_c, 0, 55, 95
2, 93840, Note_off_c, 0, 55, 95
2, 93840, Note_on_c, 0, 52, 95
2, 94080, Note_off_c, 0, 52, 95
2, 94080, Note_on_c, 0, 48, 95
2, 94560, Note_off_c, 0, 48, 95
2, 94560, Note_on_c, 0, 57, 95
2, 94560, Note_on_c, 0, 52, 95
2, 95040, Note_off_c, 0, 57, 95
2, 95040, Note_off_c, 0, 52, 95
2, 95040, Note_on_c, 0, 54, 95
2, 95520, Note_off_c, 0, 54, 95
2, 95520, Note_on_c, 0, 57, 95
2, 95520, Note_on_c, 0, 52, 95
2, 96000, Note_off_c, 0, 57, 95
2, 96000, Note_off_c, 0, 52, 95
2, 96840, Note_on_c, 1, 54, 95
2, 96960, Note_off_c, 1, 54, 95
2, 96960, Note_on_c, 1, 55, 95
2, 97440, Note_off_c, 1, 55, 95
2, 97440, Note_on_c, 0, 55, 47
2, 97600, Note_off_c, 0, 55, 47
2, 97600, Note_on_c, 0, 54, 70
2, 97760, Note_off_c, 0, 54, 70
2, 97760, Note_on_c, 0, 52, 70
2, 97920, Note_off_c, 0, 52, 70
2, 97920, Note_on_c, 0, 48, 95
2, 98400, Note_off_c, 0, 48, 95
2, 98400, Note_on_c, 0, 52, 95
2, 98880, Note_off_c, 0, 52, 95
2, 98880, Note_on_c, 0, 54, 95
2, 99360, Note_off_c, 0, 54, 95
2, 99360, Note_on_c, 0, 57, 95
2, 99360, Note_on_c, 0, 52, 70
2, 99840, Note_off_c, 0, 57, 95
2, 99840, Note_off_c, 0, 52, 70
2, 99840, Note_on_c, 0, 45, 95
2, 100800, Note_off_c, 0, 45, 95
2, 100800, Note_on_c, 0, 52, 95
2, 101040, Note_off_c, 0, 52, 95
2, 101040, Note_on_c, 0, 54, 70
2, 101280, Note_off_c, 0, 54, 70
2, 101280, Note_on_c, 1, 58, 95
2, 101280, Note_on_c, 1, 51, 95
2, 101400, Pitch_bend_c, 1, 8320
2, 101400, Pitch_bend_c, 1, 8320
2, 101520, Pitch_bend_c, 1, 8448
2, 101520, Pitch_bend_c, 1, 8448
2, 101640, Pitch_bend_c, 1, 8704
2, 101640, Pitch_bend_c, 1, 8704
2, 101760, Pitch_bend_c, 1, 8832
2, 101760, Pitch_bend_c, 1, 8192
2, 101760, Note_off_c, 1, 58, 95
2, 101760, Pitch_bend_c, 1, 8832
2, 101760, Pitch_bend_c, 1, 8192
2, 101760, Note_off_c, 1, 51, 95
2, 101760, Note_on_c, 1, 59, 95
2, 101760, Note_on_c, 1, 52, 95
2, 101920, Pitch_bend_c, 1, 8192
2, 101920, Pitch_bend_c, 1, 8192
2, 102080, Pitch_bend_c, 1, 8320
2, 102080, Pitch_bend_c, 1, 8320
2, 102240, Pitch_bend_c, 1, 8192
2, 102240, Pitch_bend_c, 1, 8192
2, 102400, Pitch_bend_c, 1, 8320
2, 102400, Pitch_bend_c, 1, 8320
2, 102560, Pitch_bend_c, 1, 8192
2, 102560, Pitch_bend_c, 1, 8192
2, 102720, Pitch_bend_c, 1, 8320
2, 102720, Pitch_bend_c, 1, 8320
2, 102880, Pitch_bend_c, 1, 8192
2, 102880, Pitch_bend_c, 1, 8192
2, 103040, Pitch_bend_c, 1, 8320
2, 103040, Pitch_bend_c, 1, 8320
2, 103200, Pitch_bend_c, 1, 8192
2, 103200, Pitch_bend_c, 1, 8192
2, 103360, Pitch_bend_c, 1, 8320
2, 103360, Pitch_bend_c, 1, 8320
2, 103520, Pitch_bend_c, 1, 8192
2, 103520, Pitch_bend_c, 1, 8192
2, 103680, Pitch_bend_c, 1, 8320
2, 103680, Pitch_bend_c, 1, 8320
2, 103840, Pitch_bend_c, 1, 8192
2, 103840, Pitch_bend_c, 1, 8192
2, 104000, Pitch_bend_c, 1, 8320
2, 104000, Pitch_bend_c, 1, 8320
2, 104160, Pitch_bend_c, 1, 8192
2, 104160, Pitch_bend_c, 1, 8192
2, 104320, Pitch_bend_c, 1, 8320
2, 104320, Pitch_bend_c, 1, 8320
2, 104480, Pitch_bend_c, 1, 8192
2, 104480, Pitch_bend_c, 1, 8192
2, 104640, Pitch_bend_c, 1, 8320
2, 104640, Pitch_bend_c, 1, 8192
2, 104640, Note_off_c, 1, 59, 95
2, 104640, Pitch_bend_c, 1, 8320
2, 104640, Pitch_bend_c, 1, 8192
2, 104640, Note_off_c, 1, 52, 95
2, 104640, Note_on_c, 0, 52, 95
2, 104640, Note_on_c, 0, 45, 95
2, 104685, Note_off_c, 0, 52, 95
2, 104685, Note_off_c, 0, 45, 95
2, 105600, Note_on_c, 1, 50, 95
2, 105760, Pitch_bend_c, 1, 8192
2, 105920, Pitch_bend_c, 1, 8320
2, 106080, Pitch_bend_c, 1, 8192
2, 106240, Pitch_bend_c, 1, 8320
2, 106400, Pitch_bend_c, 1, 8192
2, 106560, Pitch_bend_c, 1, 8320
2, 106560, Pitch_bend_c, 1, 8192
2, 106560, Note_off_c, 1, 50, 95
2, 106560, Note_on_c, 0, 48, 95
2, 107520, Note_off_c, 0, 48, 95
2, 107520, Note_on_c, 0, 55, 95
2, 108360, Note_on_c, 1, 55, 95
2, 108480, Note_off_c, 0, 55, 95
2, 108480, Note_off_c, 1, 55, 95
2, 108480, Note_on_c, 1, 57, 95
2, 108640, Pitch_bend_c, 1, 8192
2, 108800, Pitch_bend_c, 1, 8320
2, 108960, Pitch_bend_c, 1, 8192
2, 109120, Pitch_bend_c, 1, 8320
2, 109280, Pitch_bend_c, 1, 8192
2, 109440, Pitch_bend_c, 1, 8320
2, 109440, Pitch_bend_c, 1, 8192
2, 109440, Note_off_c, 1, 57, 95
2, 110400, Note_on_c, 0, 55, 95
2, 111120, Note_off_c, 0, 55, 95
2, 111120, Note_on_c, 0, 52, 95
2, 111360, Note_off_c, 0, 52, 95
2, 111360, Note_on_c, 0, 48, 95
2, 111840, Note_off_c, 0, 48, 95
2, 111840, Note_on_c, 0, 57, 95
2, 111840, Note_on_c, 0, 52, 95
2, 112320, Note_off_c, 0, 57, 95
2, 112320, Note_off_c, 0, 52, 95
2, 112320, Note_on_c, 0, 54, 95
2, 112800, Note_off_c, 0, 54, 95
2, 112800, Note_on_c, 0, 57, 95
2, 112800, Note_on_c, 0, 52, 95
2, 113760, Note_off_c, 0, 57, 95
2, 113760, Note_off_c, 0, 52, 95
2, 114240, Note_on_c, 0, 55, 95
2, 114960, Note_off_c, 0, 55, 95
2, 114960, Note_on_c, 0, 52, 95
2, 115200, Note_off_c, 0, 52, 95
2, 115200, Note_on_c, 0, 48, 95
2, 115680, Note_off_c, 0, 48, 95
2, 115680, Note_on_c, 0, 57, 95
2, 115680, Note_on_c, 0, 52, 95
2, 116160, Note_off_c, 0, 57, 95
2, 116160, Note_off_c, 0, 52, 95
2, 116160, Note_on_c, 0, 54, 95
2, 116640, Note_off_c, 0, 54, 95
2, 116640, Note_on_c, 0, 57, 95
2, 116640, Note_on_c, 0, 52, 95
2, 117120, Note_off_c, 0, 57, 95
2, 117120, Note_off_c, 0, 52, 95
2, 117120, Note_on_c, 0, 45, 95
2, 117600, Note_off_c, 0, 45, 95
2, 117600, Note_on_c, 0, 64, 95
2, 117600, Note_on_c, 0, 61, 95
2, 118080, Note_off_c, 0, 64, 95
2, 118080, Note_off_c, 0, 61, 95
2, 118080, Note_on_c, 0, 64, 95
2, 118080, Note_on_c, 0, 61, 95
2, 118560, Note_off_c, 0, 64, 95
2, 118560, Note_off_c, 0, 61, 95
2, 118560, Note_on_c, 0, 64, 95
2, 118560, Note_on_c, 0, 61, 95
2, 119040, Note_off_c, 0, 64, 95
2, 119040, Note_off_c, 0, 61, 95
2, 119040, Note_on_c, 0, 69, 95
2, 119040, Note_on_c, 0, 66, 95
2, 119520, Note_off_c, 0, 69, 95
2, 119520, Note_off_c, 0, 66, 95
2, 119520, Note_on_c, 1, 69, 95
2, 119680, Pitch_bend_c, 1, 8192
2, 119840, Pitch_bend_c, 1, 8320
2, 120000, Pitch_bend_c, 1, 8192
2, 120160, Pitch_bend_c, 1, 8320
2, 120320, Pitch_bend_c, 1, 8192
2, 120480, Pitch_bend_c, 1, 8320
2, 120480, Pitch_bend_c, 1, 8192
2, 120480, Note_off_c, 1, 69, 95
2, 120480, Note_on_c, 1, 69, 95
2, 120480, Note_on_c, 1, 66, 95
2, 120640, Pitch_bend_c, 1, 8192
2, 120640, Pitch_bend_c, 1, 8192
2, 120800, Pitch_bend_c, 1, 8320
2, 120800, Pitch_bend_c, 1, 8320
2, 120960, Pitch_bend_c, 1, 8192
2, 120960, Pitch_bend_c, 1, 8192
2, 121120, Pitch_bend_c, 1, 8320
2, 121120, Pitch_bend_c, 1, 8320
2, 121280, Pitch_bend_c, 1, 8192
2, 121280, Pitch_bend_c, 1, 8192
2, 121440, Pitch_bend_c, 1, 8320
2, 121440, Pitch_bend_c, 1, 8192
2, 121440, Note_off_c, 1, 69, 95
2, 121440, Pitch_bend_c, 1, 8320
2, 121440, Pitch_bend_c, 1, 8192
2, 121440, Note_off_c, 1, 66, 95
2, 121440, Note_on_c, 1, 69, 95
2, 121440, Note_on_c, 1, 66, 95
2, 121600, Pitch_bend_c, 1, 8192
2, 121600, Pitch_bend_c, 1, 8192
2, 121760, Pitch_bend_c, 1, 8320
2, 121760, Pitch_bend_c, 1, 8320
2, 121920, Pitch_bend_c, 1, 8192
2, 121920, Pitch_bend_c, 1, 8320
2, 121920, Pitch_bend_c, 1, 8192
2, 121920, Note_off_c, 1, 69, 95
2, 121920, Pitch_bend_c, 1, 8192
2, 121920, Pitch_bend_c, 1, 8320
2, 121920, Pitch_bend_c, 1, 8192
2, 121920, Note_off_c, 1, 66, 95
2, 121920, Note_on_c, 1, 69, 47
2, 121920, Note_on_c, 1, 66, 47
2, 122040, Pitch_bend_c, 1, 7424
2, 122040, Pitch_bend_c, 1, 7424
2, 122160, Pitch_bend_c, 1, 6528
2, 122160, Pitch_bend_c, 1, 6528
2, 122280, Pitch_bend_c, 1, 5632
2, 122280, Pitch_bend_c, 1, 5632
2, 122400, Pitch_bend_c, 1, 4736
2, 122400, Pitch_bend_c, 1, 8192
2, 122400, Note_off_c, 1, 69, 47
2, 122400, Pitch_bend_c, 1, 4736
2, 122400, Pitch_bend_c, 1, 8192
2, 122400, Note_off_c, 1, 66, 47
2, 122400, Note_on_c, 0, 64, 95
2, 122400, Note_on_c, 0, 61, 95
2, 122880, Note_off_c, 0, 64, 95
2, 122880, Note_off_c, 0, 61, 95
2, 122880, Note_on_c, 0, 69, 95
2, 122880, Note_on_c, 0, 66, 95
2, 123360, Note_off_c, 0, 69, 95
2, 123360, Note_off_c, 0, 66, 95
2, 123360, Note_on_c, 1, 69, 95
2, 123360, Note_on_c, 1, 66, 95
2, 123520, Pitch_bend_c, 1, 8192
2, 123520, Pitch_bend_c, 1, 8192
2, 123680, Pitch_bend_c, 1, 8320
2, 123680, Pitch_bend_c, 1, 8320
2, 123840, Pitch_bend_c, 1, 8192
2, 123840, Pitch_bend_c, 1, 8192
2, 124000, Pitch_bend_c, 1, 8320
2, 124000, Pitch_bend_c, 1, 8320
2, 124160, Pitch_bend_c, 1, 8192
2, 124160, Pitch_bend_c, 1, 8192
2, 124320, Pitch_bend_c, 1, 8320
2, 124320, Pitch_bend_c, 1, 8192
2, 124320, Note_off_c, 1, 69, 95
2, 124320, Pitch_bend_c, 1, 8320
2, 124320, Pitch_bend_c, 1, 8192
2, 124320, Note_off_c, 1, 66, 95
2, 124320, Note_on_c, 0, 64, 95
2, 124320, Note_on_c, 0, 61, 95
2, 125280, Note_off_c, 0, 64, 95
2, 125280, Note_off_c, 0, 61, 95
2, 125280, Note_on_c, 1, 67, 95
2, 125280, Note_on_c, 0, 64, 95
2, 125440, Pitch_bend_c, 1, 8192
2, 125600, Pitch_bend_c, 1, 8320
2, 125760, Pitch_bend_c, 1, 8192
2, 125760, Pitch_bend_c, 1, 8320
2, 125760, Pitch_bend_c, 1, 8192
2, 125760, Note_off_c, 1, 67, 95
2, 125760, Note_off_c, 0, 64, 95
2, 125760, Note_on_c, 0, 61, 70
2, 126240, Note_off_c, 0, 61, 70
2, 126240, Note_on_c, 0, 64, 95
2, 126720, Note_off_c, 0, 64, 95
2, 126720, Note_on_c, 1, 64, 47
2, 126840, Pitch_bend_c, 1, 7936
2, 126960, Pitch_bend_c, 1, 7552
2, 126960, Pitch_bend_c, 1, 8192
2, 126960, Note_off_c, 1, 64, 47
2, 126960, Note_on_c, 0, 63, 95
2, 127200, Note_off_c, 0, 63, 95
2, 127200, Note_on_c, 0, 61, 70
2, 127680, Note_off_c, 0, 61, 70
2, 127680, Note_on_c, 0, 55, 95
2, 127680, Note_on_c, 0, 48, 95
2, 128400, Note_off_c, 0, 55, 95
2, 128400, Note_off_c, 0, 48, 95
2, 128400, Note_on_c, 0, 52, 95
2, 128640, Note_off_c, 0, 52, 95
2, 128640, Note_on_c, 0, 48, 95
2, 129120, Note_off_c, 0, 48, 95
2, 129120, Note_on_c, 0, 52, 95
2, 129120, Note_on_c, 0, 45, 95
2, 129600, Note_off_c, 0, 52, 95
2, 129600, Note_off_c, 0, 45, 95
2, 129600, Note_on_c, 0, 61, 95
2, 129600, Note_on_c, 0, 57, 95
2, 129600, Note_on_c, 0, 54, 95
2, 130080, Note_off_c, 0, 61, 95
2, 130080, Note_off_c, 0, 57, 95
2, 130080, Note_off_c, 0, 54, 95
2, 130080, Note_on_c, 0, 57, 95
2, 130080, Note_on_c, 0, 52, 95
2, 130560, Note_off_c, 0, 57, 95
2, 130560, Note_off_c, 0, 52, 95
2, 131040, Note_on_c, 0, 61, 95
2, 131520, Note_off_c, 0, 61, 95
2, 131520, Note_on_c, 0, 48, 95
2, 132000, Note_off_c, 0, 48, 95
2, 132000, Note_on_c, 0, 45, 95
2, 132240, Note_off_c, 0, 45, 95
2, 132240, Note_on_c, 0, 52, 95
2, 132480, Note_off_c, 0, 52, 95
2, 132480, Note_on_c, 0, 48, 95
2, 132960, Note_off_c, 0, 48, 95
2, 132960, Note_on_c, 0, 52, 95
2, 132960, Note_on_c, 0, 45, 95
2, 133440, Note_off_c, 0, 52, 95
2, 133440, Note_off_c, 0, 45, 95
2, 133440, Note_on_c, 0, 54, 95
2, 133920, Note_off_c, 0, 54, 95
2, 133920, Note_on_c, 0, 57, 95
2, 133920, Note_on_c, 0, 52, 95
2, 134400, Note_off_c, 0, 57, 95
2, 134400, Note_off_c, 0, 52, 95
2, 134880, Note_on_c, 0, 64, 95
2, 134880, Note_on_c, 0, 61, 95
2, 135360, Note_off_c, 0, 64, 95
2, 135360, Note_off_c, 0, 61, 95
2, 135360, Note_on_c, 0, 64, 95
2, 135360, Note_on_c, 0, 61, 95
2, 135840, Note_off_c, 0, 64, 95
2, 135840, Note_off_c, 0, 61, 95
2, 135840, Note_on_c, 0, 64, 95
2, 135840, Note_on_c, 0, 61, 95
2, 136320, Note_off_c, 0, 64, 95
2, 136320, Note_off_c, 0, 61, 95
2, 136320, Note_on_c, 1, 69, 95
2, 136320, Note_on_c, 1, 66, 95
2, 136480, Pitch_bend_c, 1, 8192
2, 136480, Pitch_bend_c, 1, 8192
2, 136640, Pitch_bend_c, 1, 8320
2, 136640, Pitch_bend_c, 1, 8320
2, 136800, Pitch_bend_c, 1, 8192
2, 136800, Pitch_bend_c, 1, 8320
2, 136800, Pitch_bend_c, 1, 8192
2, 136800, Note_off_c, 1, 69, 95
2, 136800, Pitch_bend_c, 1, 8192
2, 136800, Pitch_bend_c, 1, 8320
2, 136800, Pitch_bend_c, 1, 8192
2, 136800, Note_off_c, 1, 66, 95
2, 136800, Note_on_c, 1, 69, 95
2, 136800, Note_on_c, 1, 66, 95
2, 136960, Pitch_bend_c, 1, 8192
2, 136960, Pitch_bend_c, 1, 8192
2, 137120, Pitch_bend_c, 1, 8320
2, 137120, Pitch_bend_c, 1, 8320
2, 137280, Pitch_bend_c, 1, 8192
2, 137280, Pitch_bend_c, 1, 8192
2, 137440, Pitch_bend_c, 1, 8320
2, 137440, Pitch_bend_c, 1, 8320
2, 137600, Pitch_bend_c, 1, 8192
2, 137600, Pitch_bend_c, 1, 8192
2, 137760, Pitch_bend_c, 1, 8320
2, 137760, Pitch_bend_c, 1, 8192
2, 137760, Note_off_c, 1, 69, 95
2, 137760, Pitch_bend_c, 1, 8320
2, 137760, Pitch_bend_c, 1, 8192
2, 137760, Note_off_c, 1, 66, 95
2, 137760, Note_on_c, 1, 69, 95
2, 137760, Note_on_c, 1, 66, 95
2, 137920, Pitch_bend_c, 1, 8192
2, 137920, Pitch_bend_c, 1, 8192
2, 138080, Pitch_bend_c, 1, 8320
2, 138080, Pitch_bend_c, 1, 8320
2, 138240, Pitch_bend_c, 1, 8192
2, 138240, Pitch_bend_c, 1, 8192
2, 138400, Pitch_bend_c, 1, 8320
2, 138400, Pitch_bend_c, 1, 8320
2, 138560, Pitch_bend_c, 1, 8192
2, 138560, Pitch_bend_c, 1, 8192
2, 138720, Pitch_bend_c, 1, 8320
2, 138720, Pitch_bend_c, 1, 8192
2, 138720, Note_off_c, 1, 69, 95
2, 138720, Pitch_bend_c, 1, 8320
2, 138720, Pitch_bend_c, 1, 8192
2, 138720, Note_off_c, 1, 66, 95
2, 138720, Note_on_c, 1, 69, 95
2, 138720, Note_on_c, 1, 66, 95
2, 138880, Pitch_bend_c, 1, 8192
2, 138880, Pitch_bend_c, 1, 8192
2, 139040, Pitch_bend_c, 1, 8320
2, 139040, Pitch_bend_c, 1, 8320
2, 139200, Pitch_bend_c, 1, 8192
2, 139200, Pitch_bend_c, 1, 8320
2, 139200, Pitch_bend_c, 1, 8192
2, 139200, Note_off_c, 1, 69, 95
2, 139200, Pitch_bend_c, 1, 8192
2, 139200, Pitch_bend_c, 1, 8320
2, 139200, Pitch_bend_c, 1, 8192
2, 139200, Note_off_c, 1, 66, 95
2, 139200, Note_on_c, 1, 69, 47
2, 139200, Note_on_c, 1, 66, 47
2, 139320, Pitch_bend_c, 1, 7424
2, 139320, Pitch_bend_c, 1, 7424
2, 139440, Pitch_bend_c, 1, 6528
2, 139440, Pitch_bend_c, 1, 6528
2, 139560, Pitch_bend_c, 1, 5632
2, 139560, Pitch_bend_c, 1, 5632
2, 139680, Pitch_bend_c, 1, 4736
2, 139680, Pitch_bend_c, 1, 8192
2, 139680, Note_off_c, 1, 69, 47
2, 139680, Pitch_bend_c, 1, 4736
2, 139680, Pitch_bend_c, 1, 8192
2, 139680, Note_off_c, 1, 66, 47
2, 139680, Note_on_c, 0, 64, 95
2, 139680, Note_on_c, 0, 61, 95
2, 140160, Note_off_c, 0, 64, 95
2, 140160, Note_off_c, 0, 61, 95
2, 140160, Note_on_c, 1, 69, 95
2, 140160, Note_on_c, 1, 66, 95
2, 140320, Pitch_bend_c, 1, 8192
2, 140320, Pitch_bend_c, 1, 8192
2, 140480, Pitch_bend_c, 1, 8320
2, 140480, Pitch_bend_c, 1, 8320
2, 140640, Pitch_bend_c, 1, 8192
2, 140640, Pitch_bend_c, 1, 8320
2, 140640, Pitch_bend_c, 1, 8192
2, 140640, Note_off_c, 1, 69, 95
2, 140640, Pitch_bend_c, 1, 8192
2, 140640, Pitch_bend_c, 1, 8320
2, 140640, Pitch_bend_c, 1, 8192
2, 140640, Note_off_c, 1, 66, 95
2, 140640, Note_on_c, 0, 69, 95
2, 141600, Note_off_c, 0, 69, 95
2, 141600, Note_on_c, 0, 64, 95
2, 141600, Note_on_c, 0, 61, 95
2, 142080, Note_off_c, 0, 64, 95
2, 142080, Note_off_c, 0, 61, 95
2, 142080, Note_on_c, 0, 67, 95
2, 142080, Note_on_c, 0, 64, 95
2, 143040, Note_off_c, 0, 67, 95
2, 143040, Note_off_c, 0, 64, 95
2, 143040, Note_on_c, 0, 61, 95
2, 143085, Note_off_c, 0, 61, 95
2, 143520, Note_on_c, 0, 64, 95
2, 144000, Note_off_c, 0, 64, 95
2, 144000, Note_on_c, 1, 64, 47
2, 144120, Pitch_bend_c, 1, 7936
2, 144240, Pitch_bend_c, 1, 7552
2, 144240, Pitch_bend_c, 1, 8192
2, 144240, Note_off_c, 1, 64, 47
2, 144240, Note_on_c, 0, 63, 95
2, 144480, Note_off_c, 0, 63, 95
2, 144480, Note_on_c, 0, 61, 70
2, 144960, Note_off_c, 0, 61, 70
2, 144960, Note_on_c, 0, 55, 95
2, 144960, Note_on_c, 0, 48, 95
2, 145920, Note_off_c, 0, 55, 95
2, 145920, Note_off_c, 0, 48, 95
2, 145920, Note_on_c, 0, 48, 95
2, 146400, Note_off_c, 0, 48, 95
2, 146400, Note_on_c, 0, 52, 95
2, 146400, Note_on_c, 0, 45, 95
2, 146880, Note_off_c, 0, 52, 95
2, 146880, Note_off_c, 0, 45, 95
2, 146880, Note_on_c, 0, 54, 95
2, 147360, Note_off_c, 0, 54, 95
2, 147360, Note_on_c, 0, 52, 95
2, 147840, Note_off_c, 0, 52, 95
2, 147840, Note_on_c, 0, 45, 95
2, 148320, Note_off_c, 0, 45, 95
2, 148800, Note_on_c, 0, 55, 95
2, 149520, Note_off_c, 0, 55, 95
2, 149520, Note_on_c, 0, 52, 95
2, 149760, Note_off_c, 0, 52, 95
2, 149760, Note_on_c, 0, 48, 95
2, 150240, Note_off_c, 0, 48, 95
2, 150240, Note_on_c, 0, 57, 95
2, 150240, Note_on_c, 0, 52, 95
2, 150720, Note_off_c, 0, 57, 95
2, 150720, Note_off_c, 0, 52, 95
2, 150720, Note_on_c, 0, 57, 95
2, 150720, Note_on_c, 0, 54, 95
2, 151200, Note_off_c, 0, 57, 95
2, 151200, Note_off_c, 0, 54, 95
2, 151200, Note_on_c, 0, 52, 95
2, 151680, Note_off_c, 0, 52, 95
2, 152160, Note_on_c, 0, 45, 95
2, 153120, Note_off_c, 0, 45, 95
2, 153120, Note_on_c, 0, 45, 95
2, 153600, Note_off_c, 0, 45, 95
2, 153600, Note_on_c, 1, 52, 95
2, 153760, Pitch_bend_c, 1, 8192
2, 153920, Pitch_bend_c, 1, 8320
2, 154080, Pitch_bend_c, 1, 8192
2, 154240, Pitch_bend_c, 1, 8320
2, 154400, Pitch_bend_c, 1, 8192
2, 154560, Pitch_bend_c, 1, 8320
2, 154720, Pitch_bend_c, 1, 8192
2, 154880, Pitch_bend_c, 1, 8320
2, 155040, Pitch_bend_c, 1, 8192
2, 155040, Pitch_bend_c, 1, 8320
2, 155040, Pitch_bend_c, 1, 8192
2, 155040, Note_off_c, 1, 52, 95
2, 155040, Note_on_c, 1, 52, 95
2, 155200, Pitch_bend_c, 1, 8192
2, 155360, Pitch_bend_c, 1, 8320
2, 155520, Pitch_bend_c, 1, 8192
2, 155680, Pitch_bend_c, 1, 8320
2, 155840, Pitch_bend_c, 1, 8192
2, 156000, Pitch_bend_c, 1, 8320
2, 156000, Pitch_bend_c, 1, 8192
2, 156000, Note_off_c, 1, 52, 95
2, 156000, Note_on_c, 0, 52, 95
2, 156960, Note_off_c, 0, 52, 95
2, 156960, Note_on_c, 0, 45, 95
2, 157440, Note_off_c, 0, 45, 95
2, 157440, Note_on_c, 0, 50, 95
2, 157920, Note_off_c, 0, 50, 95
2, 157920, Note_on_c, 1, 50, 95
2, 158080, Pitch_bend_c, 1, 8192
2, 158240, Pitch_bend_c, 1, 8320
2, 158400, Pitch_bend_c, 1, 8192
2, 158400, Pitch_bend_c, 1, 8320
2, 158400, Pitch_bend_c, 1, 8192
2, 158400, Note_off_c, 1, 50, 95
2, 158400, Note_on_c, 1, 50, 95
2, 158520, Pitch_bend_c, 1, 7936
2, 158640, Pitch_bend_c, 1, 7552
2, 158760, Pitch_bend_c, 1, 7168
2, 158880, Pitch_bend_c, 1, 6784
2, 158880, Pitch_bend_c, 1, 8192
2, 158880, Note_off_c, 1, 50, 95
2, 158880, Note_on_c, 0, 48, 95
2, 159360, Note_off_c, 0, 48, 95
2, 159360, Note_on_c, 0, 55, 95
2, 160320, Note_off_c, 0, 55, 95
2, 160320, Note_on_c, 0, 48, 95
2, 161280, Note_off_c, 0, 48, 95
2, 162240, Note_on_c, 0, 55, 95
2, 162960, Note_off_c, 0, 55, 95
2, 162960, Note_on_c, 0, 52, 95
2, 163200, Note_off_c, 0, 52, 95
2, 163200, Note_on_c, 0, 48, 95
2, 163680, Note_off_c, 0, 48, 95
2, 163680, Note_on_c, 0, 57, 95
2, 163680, Note_on_c, 0, 52, 95
2, 164160, Note_off_c, 0, 57, 95
2, 164160, Note_off_c, 0, 52, 95
2, 164160, Note_on_c, 0, 54, 95
2, 164640, Note_off_c, 0, 54, 95
2, 164640, Note_on_c, 0, 57, 95
2, 164640, Note_on_c, 0, 52, 95
2, 165120, Note_off_c, 0, 57, 95
2, 165120, Note_off_c, 0, 52, 95
2, 166080, Note_on_c, 0, 55, 95
2, 166800, Note_off_c, 0, 55, 95
2, 166800, Note_on_c, 0, 52, 95
2, 167040, Note_off_c, 0, 52, 95
2, 167040, Note_on_c, 0, 48, 95
2, 167520, Note_off_c, 0, 48, 95
2, 167520, Note_on_c, 0, 57, 95
2, 167520, Note_on_c, 0, 52, 95
2, 168000, Note_off_c, 0, 57, 95
2, 168000, Note_off_c, 0, 52, 95
2, 168000, Note_on_c, 0, 54, 95
2, 168480, Note_off_c, 0, 54, 95
2, 168480, Note_on_c, 0, 57, 95
2, 168480, Note_on_c, 0, 52, 95
2, 169920, Note_off_c, 0, 57, 95
2, 169920, Note_off_c, 0, 52, 95
2, 170880, Note_on_c, 1, 62, 95
2, 170880, Note_on_c, 1, 57, 95
2, 170880, Note_on_c, 1, 50, 95
2, 171040, Pitch_bend_c, 1, 8192
2, 171040, Pitch_bend_c, 1, 8192
2, 171040, Pitch_bend_c, 1, 8192
2, 171200, Pitch_bend_c, 1, 8320
2, 171200, Pitch_bend_c, 1, 8320
2, 171200, Pitch_bend_c, 1, 8320
2, 171360, Pitch_bend_c, 1, 8192
2, 171360, Pitch_bend_c, 1, 8192
2, 171360, Pitch_bend_c, 1, 8192
2, 171520, Pitch_bend_c, 1, 8320
2, 171520, Pitch_bend_c, 1, 8320
2, 171520, Pitch_bend_c, 1, 8320
2, 171680, Pitch_bend_c, 1, 8192
2, 171680, Pitch_bend_c, 1, 8192
2, 171680, Pitch_bend_c, 1, 8192
2, 171840, Pitch_bend_c, 1, 8320
2, 171840, Pitch_bend_c, 1, 8320
2, 171840, Pitch_bend_c, 1, 8320
2, 172000, Pitch_bend_c, 1, 8192
2, 172000, Pitch_bend_c, 1, 8192
2, 172000, Pitch_bend_c, 1, 8192
2, 172160, Pitch_bend_c, 1, 8320
2, 172160, Pitch_bend_c, 1, 8320
2, 172160, Pitch_bend_c, 1, 8320
2, 172320, Pitch_bend_c, 1, 8192
2, 172320, Pitch_bend_c, 1, 8192
2, 172320, Pitch_bend_c, 1, 8192
2, 172480, Pitch_bend_c, 1, 8320
2, 172480, Pitch_bend_c, 1, 8320
2, 172480, Pitch_bend_c, 1, 8320
2, 172640, Pitch_bend_c, 1, 8192
2, 172640, Pitch_bend_c, 1, 8192
2, 172640, Pitch_bend_c, 1, 8192
2, 172800, Pitch_bend_c, 1, 8320
2, 172800, Pitch_bend_c, 1, 8192
2, 172800, Note_off_c, 1, 62, 95
2, 172800, Pitch_bend_c, 1, 8320
2, 172800, Pitch_bend_c, 1, 8192
2, 172800, Note_off_c, 1, 57, 95
2, 172800, Pitch_bend_c, 1, 8320
2, 172800, Pitch_bend_c, 1, 8192
2, 172800, Note_off_c, 1, 50, 95
2, 172800, Note_on_c, 0, 52, 95
2, 172800, Note_on_c, 0, 45, 95
2, 172845, Note_off_c, 0, 52, 95
2, 172845, Note_off_c, 0, 45, 95
2, 173760, Note_on_c, 0, 52, 95
2, 173760, Note_on_c, 0, 45, 95
2, 173805, Note_off_c, 0, 52, 95
2, 173805, Note_off_c, 0, 45, 95
2, 174240, Note_on_c, 1, 57, 95
2, 174240, Note_on_c, 1, 50, 95
2, 174400, Pitch_bend_c, 1, 8192
2, 174400, Pitch_bend_c, 1, 8192
2, 174560, Pitch_bend_c, 1, 8320
2, 174560, Pitch_bend_c, 1, 8320
2, 174720, Pitch_bend_c, 1, 8192
2, 174720, Pitch_bend_c, 1, 8192
2, 174880, Pitch_bend_c, 1, 8320
2, 174880, Pitch_bend_c, 1, 8320
2, 175040, Pitch_bend_c, 1, 8192
2, 175040, Pitch_bend_c, 1, 8192
2, 175200, Pitch_bend_c, 1, 8320
2, 175200, Pitch_bend_c, 1, 8320
2, 175360, Pitch_bend_c, 1, 8192
2, 175360, Pitch_bend_c, 1, 8192
2, 175520, Pitch_bend_c, 1, 8320
2, 175520, Pitch_bend_c, 1, 8320
2, 175680, Pitch_bend_c, 1, 8192
2, 175680, Pitch_bend_c, 1, 8192
2, 175840, Pitch_bend_c, 1, 8320
2, 175840, Pitch_bend_c, 1, 8320
2, 176000, Pitch_bend_c, 1, 8192
2, 176000, Pitch_bend_c, 1, 8192
2, 176160, Pitch_bend_c, 1, 8320
2, 176160, Pitch_bend_c, 1, 8320
2, 176320, Pitch_bend_c, 1, 8192
2, 176320, Pitch_bend_c, 1, 8192
2, 176480, Pitch_bend_c, 1, 8320
2, 176480, Pitch_bend_c, 1, 8320
2, 176640, Pitch_bend_c, 1, 8192
2, 176640, Pitch_bend_c, 1, 8320
2, 176640, Pitch_bend_c, 1, 8192
2, 176640, Note_off_c, 1, 57, 95
2, 176640, Pitch_bend_c, 1, 8192
2, 176640, Pitch_bend_c, 1, 8320
2, 176640, Pitch_bend_c, 1, 8192
2, 176640, Note_off_c, 1, 50, 95
2, 176640, Note_on_c, 0, 60, 95
2, 176640, Note_on_c, 0, 55, 95
2, 176640, Note_on_c, 0, 48, 95
2, 177600, Note_off_c, 0, 60, 95
2, 177600, Note_off_c, 0, 55, 95
2, 177600, Note_off_c, 0, 48, 95
2, 177600, Note_on_c, 0, 45, 95
2, 178080, Note_off_c, 0, 45, 95
2, 178080, Note_on_c, 0, 45, 95
2, 179040, Note_off_c, 0, 45, 95
2, 179520, Note_on_c, 0, 55, 95
2, 180240, Note_off_c, 0, 55, 95
2, 180240, Note_on_c, 0, 52, 95
2, 180480, Note_off_c, 0, 52, 95
2, 180480, Note_on_c, 0, 48, 95
2, 180960, Note_off_c, 0, 48, 95
2, 180960, Note_on_c, 0, 57, 95
2, 180960, Note_on_c, 0, 52, 95
2, 181440, Note_off_c, 0, 57, 95
2, 181440, Note_off_c, 0, 52, 95
2, 181440, Note_on_c, 0, 57, 95
2, 181440, Note_on_c, 0, 54, 95
2, 181920, Note_off_c, 0, 57, 95
2, 181920, Note_off_c, 0, 54, 95
2, 181920, Note_on_c, 0, 57, 95
2, 181920, Note_on_c, 0, 52, 95
2, 182880, Note_off_c, 0, 57, 95
2, 182880, Note_off_c, 0, 52, 95
2, 183240, Note_on_c, 1, 54, 95
2, 183360, Note_off_c, 1, 54, 95
2, 183360, Note_on_c, 1, 55, 95
2, 183840, Note_off_c, 1, 55, 95
2, 183840, Note_on_c, 0, 54, 70
2, 184080, Note_off_c, 0, 54, 70
2, 184080, Note_on_c, 0, 52, 70
2, 184320, Note_off_c, 0, 52, 70
2, 184320, Note_on_c, 0, 48, 95
2, 184800, Note_off_c, 0, 48, 95
2, 184800, Note_on_c, 0, 57, 95
2, 184800, Note_on_c, 0, 52, 95
2, 185280, Note_off_c, 0, 57, 95
2, 185280, Note_off_c, 0, 52, 95
2, 185280, Note_on_c, 0, 54, 95
2, 185760, Note_off_c, 0, 54, 95
2, 185760, Note_on_c, 0, 61, 95
2, 185760, Note_on_c, 0, 57, 95
2, 185760, Note_on_c, 0, 52, 95
2, 186240, Note_off_c, 0, 61, 95
2, 186240, Note_off_c, 0, 57, 95
2, 186240, Note_off_c, 0, 52, 95
2, 186240, Note_on_c, 0, 45, 95
2, 186720, Note_off_c, 0, 45, 95
2, 186720, Note_on_c, 0, 57, 95
2, 186720, Note_on_c, 0, 52, 95
2, 187200, Note_off_c, 0, 57, 95
2, 187200, Note_off_c, 0, 52, 95
2, 187680, Note_on_c, 0, 50, 95
2, 188640, Note_off_c, 0, 50, 95
2, 188640, Note_on_c, 1, 62, 95
2, 188640, Note_on_c, 1, 57, 95
2, 188640, Note_on_c, 1, 50, 95
2, 188800, Pitch_bend_c, 1, 8192
2, 188800, Pitch_bend_c, 1, 8192
2, 188800, Pitch_bend_c, 1, 8192
2, 188960, Pitch_bend_c, 1, 8320
2, 188960, Pitch_bend_c, 1, 8320
2, 188960, Pitch_bend_c, 1, 8320
2, 189120, Pitch_bend_c, 1, 8192
2, 189120, Pitch_bend_c, 1, 8192
2, 189120, Pitch_bend_c, 1, 8192
2, 189280, Pitch_bend_c, 1, 8320
2, 189280, Pitch_bend_c, 1, 8320
2, 189280, Pitch_bend_c, 1, 8320
2, 189440, Pitch_bend_c, 1, 8192
2, 189440, Pitch_bend_c, 1, 8192
2, 189440, Pitch_bend_c, 1, 8192
2, 189600, Pitch_bend_c, 1, 8320
2, 189600, Pitch_bend_c, 1, 8192
2, 189600, Note_off_c, 1, 62, 95
2, 189600, Pitch_bend_c, 1, 8320
2, 189600, Pitch_bend_c, 1, 8192
2, 189600, Note_off_c, 1, 57, 95
2, 189600, Pitch_bend_c, 1, 8320
2, 189600, Pitch_bend_c, 1, 8192
2, 189600, Note_off_c, 1, 50, 95
2, 189600, Note_on_c, 0, 50, 95
2, 190560, Note_off_c, 0, 50, 95
2, 190560, Note_on_c, 0, 50, 95
2, 191040, Note_off_c, 0, 50, 95
2, 191520, Note_on_c, 1, 50, 95
2, 191680, Pitch_bend_c, 1, 8192
2, 191840, Pitch_bend_c, 1, 8320
2, 192000, Pitch_bend_c, 1, 8192
2, 192160, Pitch_bend_c, 1, 8320
2, 192320, Pitch_bend_c, 1, 8192
2, 192480, Pitch_bend_c, 1, 8320
2, 192640, Pitch_bend_c, 1, 8192
2, 192800, Pitch_bend_c, 1, 8320
2, 192960, Pitch_bend_c, 1, 8192
2, 192960, Pitch_bend_c, 1, 8320
2, 192960, Pitch_bend_c, 1, 8192
2, 192960, Note_off_c, 1, 50, 95
2, 193920, Note_on_c, 0, 48, 95
2, 194880, Note_off_c, 0, 48, 95
2, 194880, Note_on_c, 0, 45, 95
2, 195360, Note_off_c, 0, 45, 95
2, 195360, Note_on_c, 0, 45, 95
2, 195840, Note_off_c, 0, 45, 95
2, 196800, Note_on_c, 0, 55, 95
2, 197520, Note_off_c, 0, 55, 95
2, 197520, Note_on_c, 0, 52, 95
2, 197760, Note_off_c, 0, 52, 95
2, 197760, Note_on_c, 0, 48, 95
2, 198240, Note_off_c, 0, 48, 95
2, 198240, Note_on_c, 0, 57, 95
2, 198240, Note_on_c, 0, 52, 95
2, 198720, Note_off_c, 0, 57, 95
2, 198720, Note_off_c, 0, 52, 95
2, 198720, Note_on_c, 0, 54, 95
2, 199200, Note_off_c, 0, 54, 95
2, 199200, Note_on_c, 0, 57, 95
2, 199200, Note_on_c, 0, 52, 95
2, 199680, Note_off_c, 0, 57, 95
2, 199680, Note_off_c, 0, 52, 95
2, 200520, Note_on_c, 1, 54, 95
2, 200640, Note_off_c, 1, 54, 95
2, 200640, Note_on_c, 1, 55, 95
2, 201120, Note_off_c, 1, 55, 95
2, 201120, Note_on_c, 0, 55, 47
2, 201280, Note_off_c, 0, 55, 47
2, 201280, Note_on_c, 0, 54, 70
2, 201440, Note_off_c, 0, 54, 70
2, 201440, Note_on_c, 0, 52, 70
2, 201600, Note_off_c, 0, 52, 70
2, 201600, Note_on_c, 0, 48, 95
2, 202080, Note_off_c, 0, 48, 95
2, 202080, Note_on_c, 0, 52, 95
2, 202560, Note_off_c, 0, 52, 95
2, 202560, Note_on_c, 0, 54, 95
2, 203040, Note_off_c, 0, 54, 95
2, 203040, Note_on_c, 0, 57, 95
2, 203040, Note_on_c, 0, 52, 70
2, 203520, Note_off_c, 0, 57, 95
2, 203520, Note_off_c, 0, 52, 70
2, 203520, Note_on_c, 0, 45, 95
2, 204480, Note_off_c, 0, 45, 95
2, 204480, Note_on_c, 0, 52, 95
2, 204720, Note_off_c, 0, 52, 95
2, 204720, Note_on_c, 0, 54, 70
2, 204960, Note_off_c, 0, 54, 70
2, 204960, Note_on_c, 1, 58, 95
2, 204960, Note_on_c, 1, 51, 95
2, 205080, Pitch_bend_c, 1, 8320
2, 205080, Pitch_bend_c, 1, 8320
2, 205200, Pitch_bend_c, 1, 8448
2, 205200, Pitch_bend_c, 1, 8448
2, 205320, Pitch_bend_c, 1, 8704
2, 205320, Pitch_bend_c, 1, 8704
2, 205440, Pitch_bend_c, 1, 8832
2, 205440, Pitch_bend_c, 1, 8192
2, 205440, Note_off_c, 1, 58, 95
2, 205440, Pitch_bend_c, 1, 8832
2, 205440, Pitch_bend_c, 1, 8192
2, 205440, Note_off_c, 1, 51, 95
2, 205440, Note_on_c, 1, 59, 95
2, 205440, Note_on_c, 1, 52, 95
2, 205600, Pitch_bend_c, 1, 8192
2, 205600, Pitch_bend_c, 1, 8192
2, 205760, Pitch_bend_c, 1, 8320
2, 205760, Pitch_bend_c, 1, 8320
2, 205920, Pitch_bend_c, 1, 8192
2, 205920, Pitch_bend_c, 1, 8192
2, 206080, Pitch_bend_c, 1, 8320
2, 206080, Pitch_bend_c, 1, 8320
2, 206240, Pitch_bend_c, 1, 8192
2, 206240, Pitch_bend_c, 1, 8192
2, 206400, Pitch_bend_c, 1, 8320
2, 206400, Pitch_bend_c, 1, 8320
2, 206560, Pitch_bend_c, 1, 8192
2, 206560, Pitch_bend_c, 1, 8192
2, 206720, Pitch_bend_c, 1, 8320
2, 206720, Pitch_bend_c, 1, 8320
2, 206880, Pitch_bend_c, 1, 8192
2, 206880, Pitch_bend_c, 1, 8192
2, 207040, Pitch_bend_c, 1, 8320
2, 207040, Pitch_bend_c, 1, 8320
2, 207200, Pitch_bend_c, 1, 8192
2, 207200, Pitch_bend_c, 1, 8192
2, 207360, Pitch_bend_c, 1, 8320
2, 207360, Pitch_bend_c, 1, 8320
2, 207520, Pitch_bend_c, 1, 8192
2, 207520, Pitch_bend_c, 1, 8192
2, 207680, Pitch_bend_c, 1, 8320
2, 207680, Pitch_bend_c, 1, 8320
2, 207840, Pitch_bend_c, 1, 8192
2, 207840, Pitch_bend_c, 1, 8192
2, 208000, Pitch_bend_c, 1, 8320
2, 208000, Pitch_bend_c, 1, 8320
2, 208160, Pitch_bend_c, 1, 8192
2, 208160, Pitch_bend_c, 1, 8192
2, 208320, Pitch_bend_c, 1, 8320
2, 208320, Pitch_bend_c, 1, 8192
2, 208320, Note_off_c, 1, 59, 95
2, 208320, Pitch_bend_c, 1, 8320
2, 208320, Pitch_bend_c, 1, 8192
2, 208320, Note_off_c, 1, 52, 95
2, 208320, Note_on_c, 0, 52, 95
2, 208320, Note_on_c, 0, 45, 95
2, 208365, Note_off_c, 0, 52, 95
2, 208365, Note_off_c, 0, 45, 95
2, 209280, Note_on_c, 1, 50, 95
2, 209440, Pitch_bend_c, 1, 8192
2, 209600, Pitch_bend_c, 1, 8320
2, 209760, Pitch_bend_c, 1, 8192
2, 209920, Pitch_bend_c, 1, 8320
2, 210080, Pitch_bend_c, 1, 8192
2, 210240, Pitch_bend_c, 1, 8320
2, 210240, Pitch_bend_c, 1, 8192
2, 210240, Note_off_c, 1, 50, 95
2, 210240, Note_on_c, 0, 48, 95
2, 211200, Note_off_c, 0, 48, 95
2, 211200, Note_on_c, 0, 55, 95
2, 212040, Note_on_c, 1, 55, 95
2, 212160, Note_off_c, 0, 55, 95
2, 212160, Note_off_c, 1, 55, 95
2, 212160, Note_on_c, 1, 57, 95
2, 212320, Pitch_bend_c, 1, 8192
2, 212480, Pitch_bend_c, 1, 8320
2, 212640, Pitch_bend_c, 1, 8192
2, 212800, Pitch_bend_c, 1, 8320
2, 212960, Pitch_bend_c, 1, 8192
2, 213120, Pitch_bend_c, 1, 8320
2, 213120, Pitch_bend_c, 1, 8192
2, 213120, Note_off_c, 1, 57, 95
2, 213120, Note_on_c, 0, 57, 47
2, 214080, Note_off_c, 0, 57, 47
2, 214080, Note_on_c, 0, 55, 95
2, 214800, Note_off_c, 0, 55, 95
2, 214800, Note_on_c, 0, 52, 95
2, 215040, Note_off_c, 0, 52, 95
2, 215040, Note_on_c, 0, 48, 95
2, 215520, Note_off_c, 0, 48, 95
2, 215520, Note_on_c, 0, 57, 95
2, 215520, Note_on_c, 0, 52, 95
2, 216000, Note_off_c, 0, 57, 95
2, 216000, Note_off_c, 0, 52, 95
2, 216000, Note_on_c, 0, 54, 95
2, 216480, Note_off_c, 0, 54, 95
2, 216480, Note_on_c, 0, 57, 95
2, 216480, Note_on_c, 0, 52, 95
2, 216960, Note_off_c, 0, 57, 95
2, 216960, Note_off_c, 0, 52, 95
2, 217920, Note_on_c, 0, 55, 95
2, 218640, Note_off_c, 0, 55, 95
2, 218640, Note_on_c, 0, 52, 95
2, 218880, Note_off_c, 0, 52, 95
2, 218880, Note_on_c, 0, 48, 95
2, 219360, Note_off_c, 0, 48, 95
2, 219360, Note_on_c, 0, 57, 95
2, 219360, Note_on_c, 0, 52, 95
2, 219840, Note_off_c, 0, 57, 95
2, 219840, Note_off_c, 0, 52, 95
2, 219840, Note_on_c, 0, 54, 95
2, 220320, Note_off_c, 0, 54, 95
2, 220320, Note_on_c, 0, 57, 95
2, 220320, Note_on_c, 0, 52, 95
2, 220800, Note_off_c, 0, 57, 95
2, 220800, Note_off_c, 0, 52, 95
2, 220800, Note_on_c, 0, 45, 95
2, 221280, Note_off_c, 0, 45, 95
2, 221280, Note_on_c, 0, 57, 95
2, 221280, Note_on_c, 0, 52, 95
2, 221760, Note_off_c, 0, 57, 95
2, 221760, Note_off_c, 0, 52, 95
2, 222240, Note_on_c, 0, 62, 95
2, 222240, Note_on_c, 0, 57, 95
2, 222240, Note_on_c, 0, 50, 95
2, 222720, Note_off_c, 0, 62, 95
2, 222720, Note_off_c, 0, 57, 95
2, 222720, Note_off_c, 0, 50, 95
2, 222720, Note_on_c, 1, 62, 95
2, 222720, Note_on_c, 1, 57, 95
2, 222720, Note_on_c, 1, 50, 95
2, 222880, Pitch_bend_c, 1, 8192
2, 222880, Pitch_bend_c, 1, 8192
2, 222880, Pitch_bend_c, 1, 8192
2, 223040, Pitch_bend_c, 1, 8320
2, 223040, Pitch_bend_c, 1, 8320
2, 223040, Pitch_bend_c, 1, 8320
2, 223200, Pitch_bend_c, 1, 8192
2, 223200, Pitch_bend_c, 1, 8192
2, 223200, Pitch_bend_c, 1, 8192
2, 223360, Pitch_bend_c, 1, 8320
2, 223360, Pitch_bend_c, 1, 8320
2, 223360, Pitch_bend_c, 1, 8320
2, 223520, Pitch_bend_c, 1, 8192
2, 223520, Pitch_bend_c, 1, 8192
2, 223520, Pitch_bend_c, 1, 8192
2, 223680, Pitch_bend_c, 1, 8320
2, 223680, Pitch_bend_c, 1, 8320
2, 223680, Pitch_bend_c, 1, 8320
2, 223840, Pitch_bend_c, 1, 8192
2, 223840, Pitch_bend_c, 1, 8192
2, 223840, Pitch_bend_c, 1, 8192
2, 224000, Pitch_bend_c, 1, 8320
2, 224000, Pitch_bend_c, 1, 8320
2, 224000, Pitch_bend_c, 1, 8320
2, 224160, Pitch_bend_c, 1, 8192
2, 224160, Pitch_bend_c, 1, 8192
2, 224160, Pitch_bend_c, 1, 8192
2, 224320, Pitch_bend_c, 1, 8320
2, 224320, Pitch_bend_c, 1, 8320
2, 224320, Pitch_bend_c, 1, 8320
2, 224480, Pitch_bend_c, 1, 8192
2, 224480, Pitch_bend_c, 1, 8192
2, 224480, Pitch_bend_c, 1, 8192
2, 224640, Pitch_bend_c, 1, 8320
2, 224640, Pitch_bend_c, 1, 8192
2, 224640, Note_off_c, 1, 62, 95
2, 224640, Pitch_bend_c, 1, 8320
2, 224640, Pitch_bend_c, 1, 8192
2, 224640, Note_off_c, 1, 57, 95
2, 224640, Pitch_bend_c, 1, 8320
2, 224640, Pitch_bend_c, 1, 8192
2, 224640, Note_off_c, 1, 50, 95
2, 224640, Note_on_c, 0, 52, 95
2, 224640, Note_on_c, 0, 45, 95
2, 224685, Note_off_c, 0, 52, 95
2, 224685, Note_off_c, 0, 45, 95
2, 225600, Note_on_c, 0, 52, 95
2, 225600, Note_on_c, 0, 45, 95
2, 225645, Note_off_c, 0, 52, 95
2, 225645, Note_off_c, 0, 45, 95
2, 226080, Note_on_c, 1, 57, 95
2, 226080, Note_on_c, 1, 50, 95
2, 226240, Pitch_bend_c, 1, 8192
2, 226240, Pitch_bend_c, 1, 8192
2, 226400, Pitch_bend_c, 1, 8320
2, 226400, Pitch_bend_c, 1, 8320
2, 226560, Pitch_bend_c, 1, 8192
2, 226560, Pitch_bend_c, 1, 8192
2, 226720, Pitch_bend_c, 1, 8320
2, 226720, Pitch_bend_c, 1, 8320
2, 226880, Pitch_bend_c, 1, 8192
2, 226880, Pitch_bend_c, 1, 8192
2, 227040, Pitch_bend_c, 1, 8320
2, 227040, Pitch_bend_c, 1, 8320
2, 227200, Pitch_bend_c, 1, 8192
2, 227200, Pitch_bend_c, 1, 8192
2, 227360, Pitch_bend_c, 1, 8320
2, 227360, Pitch_bend_c, 1, 8320
2, 227520, Pitch_bend_c, 1, 8192
2, 227520, Pitch_bend_c, 1, 8192
2, 227680, Pitch_bend_c, 1, 8320
2, 227680, Pitch_bend_c, 1, 8320
2, 227840, Pitch_bend_c, 1, 8192
2, 227840, Pitch_bend_c, 1, 8192
2, 228000, Pitch_bend_c, 1, 8320
2, 228000, Pitch_bend_c, 1, 8320
2, 228160, Pitch_bend_c, 1, 8192
2, 228160, Pitch_bend_c, 1, 8192
2, 228320, Pitch_bend_c, 1, 8320
2, 228320, Pitch_bend_c, 1, 8320
2, 228480, Pitch_bend_c, 1, 8192
2, 228480, Pitch_bend_c, 1, 8320
2, 228480, Pitch_bend_c, 1, 8192
2, 228480, Note_off_c, 1, 57, 95
2, 228480, Pitch_bend_c, 1, 8192
2, 228480, Pitch_bend_c, 1, 8320
2, 228480, Pitch_bend_c, 1, 8192
2, 228480, Note_off_c, 1, 50, 95
2, 228480, Note_on_c, 0, 60, 95
2, 228480, Note_on_c, 0, 55, 95
2, 228480, Note_on_c, 0, 48, 95
2, 229440, Note_off_c, 0, 60, 95
2, 229440, Note_off_c, 0, 55, 95
2, 229440, Note_off_c, 0, 48, 95
2, 229440, Note_on_c, 0, 45, 95
2, 229920, Note_off_c, 0, 45, 95
2, 229920, Note_on_c, 0, 45, 95
2, 230880, Note_off_c, 0, 45, 95
2, 231360, Note_on_c, 0, 55, 95
2, 232080, Note_off_c, 0, 55, 95
2, 232080, Note_on_c, 0, 52, 95
2, 232320, Note_off_c, 0, 52, 95
2, 232320, Note_on_c, 0, 48, 95
2, 232800, Note_off_c, 0, 48, 95
2, 232800, Note_on_c, 0, 57, 95
2, 232800, Note_on_c, 0, 52, 95
2, 233280, Note_off_c, 0, 57, 95
2, 233280, Note_off_c, 0, 52, 95
2, 233280, Note_on_c, 0, 57, 95
2, 233280, Note_on_c, 0, 54, 95
2, 233760, Note_off_c, 0, 57, 95
2, 233760, Note_off_c, 0, 54, 95
2, 233760, Note_on_c, 0, 57, 95
2, 233760, Note_on_c, 0, 52, 95
2, 234720, Note_off_c, 0, 57, 95
2, 234720, Note_off_c, 0, 52, 95
2, 235080, Note_on_c, 1, 54, 95
2, 235200, Note_off_c, 1, 54, 95
2, 235200, Note_on_c, 1, 55, 95
2, 235680, Note_off_c, 1, 55, 95
2, 235680, Note_on_c, 0, 54, 70
2, 235920, Note_off_c, 0, 54, 70
2, 235920, Note_on_c, 0, 52, 70
2, 236160, Note_off_c, 0, 52, 70
2, 236160, Note_on_c, 0, 48, 95
2, 236640, Note_off_c, 0, 48, 95
2, 236640, Note_on_c, 0, 57, 95
2, 236640, Note_on_c, 0, 52, 95
2, 237120, Note_off_c, 0, 57, 95
2, 237120, Note_off_c, 0, 52, 95
2, 237120, Note_on_c, 0, 54, 95
2, 237600, Note_off_c, 0, 54, 95
2, 237600, Note_on_c, 0, 61, 95
2, 237600, Note_on_c, 0, 57, 95
2, 237600, Note_on_c, 0, 52, 95
2, 238080, Note_off_c, 0, 61, 95
2, 238080, Note_off_c, 0, 57, 95
2, 238080, Note_off_c, 0, 52, 95
2, 238080, Note_on_c, 0, 45, 95
2, 238560, Note_off_c, 0, 45, 95
2, 238560, Note_on_c, 0, 57, 95
2, 238560, Note_on_c, 0, 52, 95
2, 239040, Note_off_c, 0, 57, 95
2, 239040, Note_off_c, 0, 52, 95
2, 239520, Note_on_c, 0, 50, 95
2, 240480, Note_off_c, 0, 50, 95
2, 240480, Note_on_c, 1, 62, 95
2, 240480, Note_on_c, 1, 57, 95
2, 240480, Note_on_c, 1, 50, 95
2, 240640, Pitch_bend_c, 1, 8192
2, 240640, Pitch_bend_c, 1, 8192
2, 240640, Pitch_bend_c, 1, 8192
2, 240800, Pitch_bend_c, 1, 8320
2, 240800, Pitch_bend_c, 1, 8320
2, 240800, Pitch_bend_c, 1, 8320
2, 240960, Pitch_bend_c, 1, 8192
2, 240960, Pitch_bend_c, 1, 8192
2, 240960, Pitch_bend_c, 1, 8192
2, 241120, Pitch_bend_c, 1, 8320
2, 241120, Pitch_bend_c, 1, 8320
2, 241120, Pitch_bend_c, 1, 8320
2, 241280, Pitch_bend_c, 1, 8192
2, 241280, Pitch_bend_c, 1, 8192
2, 241280, Pitch_bend_c, 1, 8192
2, 241440, Pitch_bend_c, 1, 8320
2, 241440, Pitch_bend_c, 1, 8192
2, 241440, Note_off_c, 1, 62, 95
2, 241440, Pitch_bend_c, 1, 8320
2, 241440, Pitch_bend_c, 1, 8192
2, 241440, Note_off_c, 1, 57, 95
2, 241440, Pitch_bend_c, 1, 8320
2, 241440, Pitch_bend_c, 1, 8192
2, 241440, Note_off_c, 1, 50, 95
2, 241440, Note_on_c, 0, 50, 95
2, 242400, Note_off_c, 0, 50, 95
2, 242400, Note_on_c, 0, 50, 95
2, 242880, Note_off_c, 0, 50, 95
2, 243360, Note_on_c, 1, 50, 95
2, 243520, Pitch_bend_c, 1, 8192
2, 243680, Pitch_bend_c, 1, 8320
2, 243840, Pitch_bend_c, 1, 8192
2, 244000, Pitch_bend_c, 1, 8320
2, 244160, Pitch_bend_c, 1, 8192
2, 244320, Pitch_bend_c, 1, 8320
2, 244480, Pitch_bend_c, 1, 8192
2, 244640, Pitch_bend_c, 1, 8320
2, 244800, Pitch_bend_c, 1, 8192
2, 244800, Pitch_bend_c, 1, 8320
2, 244800, Pitch_bend_c, 1, 8192
2, 244800, Note_off_c, 1, 50, 95
2, 245760, Note_on_c, 0, 48, 95
2, 246720, Note_off_c, 0, 48, 95
2, 246720, Note_on_c, 0, 45, 95
2, 247200, Note_off_c, 0, 45, 95
2, 247200, Note_on_c, 0, 45, 95
2, 247680, Note_off_c, 0, 45, 95
2, 248640, Note_on_c, 0, 55, 95
2, 249360, Note_off_c, 0, 55, 95
2, 249360, Note_on_c, 0, 52, 95
2, 249600, Note_off_c, 0, 52, 95
2, 249600, Note_on_c, 0, 48, 95
2, 250080, Note_off_c, 0, 48, 95
2, 250080, Note_on_c, 0, 57, 95
2, 250080, Note_on_c, 0, 52, 95
2, 250560, Note_off_c, 0, 57, 95
2, 250560, Note_off_c, 0, 52, 95
2, 250560, Note_on_c, 0, 54, 95
2, 251040, Note_off_c, 0, 54, 95
2, 251040, Note_on_c, 0, 57, 95
2, 251040, Note_on_c, 0, 52, 95
2, 251520, Note_off_c, 0, 57, 95
2, 251520, Note_off_c, 0, 52, 95
2, 252360, Note_on_c, 1, 54, 95
2, 252480, Note_off_c, 1, 54, 95
2, 252480, Note_on_c, 1, 55, 95
2, 252960, Note_off_c, 1, 55, 95
2, 252960, Note_on_c, 0, 55, 47
2, 253120, Note_off_c, 0, 55, 47
2, 253120, Note_on_c, 0, 54, 70
2, 253280, Note_off_c, 0, 54, 70
2, 253280, Note_on_c, 0, 52, 70
2, 253440, Note_off_c, 0, 52, 70
2, 253440, Note_on_c, 0, 48, 95
2, 253920, Note_off_c, 0, 48, 95
2, 253920, Note_on_c, 0, 52, 95
2, 254400, Note_off_c, 0, 52, 95
2, 254400, Note_on_c, 0, 54, 95
2, 254880, Note_off_c, 0, 54, 95
2, 254880, Note_on_c, 0, 57, 95
2, 254880, Note_on_c, 0, 52, 70
2, 255360, Note_off_c, 0, 57, 95
2, 255360, Note_off_c, 0, 52, 70
2, 255360, Note_on_c, 0, 45, 95
2, 256320, Note_off_c, 0, 45, 95
2, 256320, Note_on_c, 0, 52, 95
2, 256560, Note_off_c, 0, 52, 95
2, 256560, Note_on_c, 0, 54, 70
2, 256800, Note_off_c, 0, 54, 70
2, 256800, Note_on_c, 1, 58, 95
2, 256800, Note_on_c, 1, 51, 95
2, 256920, Pitch_bend_c, 1, 8320
2, 256920, Pitch_bend_c, 1, 8320
2, 257040, Pitch_bend_c, 1, 8448
2, 257040, Pitch_bend_c, 1, 8448
2, 257160, Pitch_bend_c, 1, 8704
2, 257160, Pitch_bend_c, 1, 8704
2, 257280, Pitch_bend_c, 1, 8832
2, 257280, Pitch_bend_c, 1, 8192
2, 257280, Note_off_c, 1, 58, 95
2, 257280, Pitch_bend_c, 1, 8832
2, 257280, Pitch_bend_c, 1, 8192
2, 257280, Note_off_c, 1, 51, 95
2, 257280, Note_on_c, 1, 59, 95
2, 257280, Note_on_c, 1, 52, 95
2, 257440, Pitch_bend_c, 1, 8192
2, 257440, Pitch_bend_c, 1, 8192
2, 257600, Pitch_bend_c, 1, 8320
2, 257600, Pitch_bend_c, 1, 8320
2, 257760, Pitch_bend_c, 1, 8192
2, 257760, Pitch_bend_c, 1, 8192
2, 257920, Pitch_bend_c, 1, 8320
2, 257920, Pitch_bend_c, 1, 8320
2, 258080, Pitch_bend_c, 1, 8192
2, 258080, Pitch_bend_c, 1, 8192
2, 258240, Pitch_bend_c, 1, 8320
2, 258240, Pitch_bend_c, 1, 8320
2, 258400, Pitch_bend_c, 1, 8192
2, 258400, Pitch_bend_c, 1, 8192
2, 258560, Pitch_bend_c, 1, 8320
2, 258560, Pitch_bend_c, 1, 8320
2, 258720, Pitch_bend_c, 1, 8192
2, 258720, Pitch_bend_c, 1, 8192
2, 258880, Pitch_bend_c, 1, 8320
2, 258880, Pitch_bend_c, 1, 8320
2, 259040, Pitch_bend_c, 1, 8192
2, 259040, Pitch_bend_c, 1, 8192
2, 259200, Pitch_bend_c, 1, 8320
2, 259200, Pitch_bend_c, 1, 8320
2, 259360, Pitch_bend_c, 1, 8192
2, 259360, Pitch_bend_c, 1, 8192
2, 259520, Pitch_bend_c, 1, 8320
2, 259520, Pitch_bend_c, 1, 8320
2, 259680, Pitch_bend_c, 1, 8192
2, 259680, Pitch_bend_c, 1, 8192
2, 259840, Pitch_bend_c, 1, 8320
2, 259840, Pitch_bend_c, 1, 8320
2, 260000, Pitch_bend_c, 1, 8192
2, 260000, Pitch_bend_c, 1, 8192
2, 260160, Pitch_bend_c, 1, 8320
2, 260160, Pitch_bend_c, 1, 8192
2, 260160, Note_off_c, 1, 59, 95
2, 260160, Pitch_bend_c, 1, 8320
2, 260160, Pitch_bend_c, 1, 8192
2, 260160, Note_off_c, 1, 52, 95
2, 260160, Note_on_c, 0, 52, 95
2, 260160, Note_on_c, 0, 45, 95
2, 260205, Note_off_c, 0, 52, 95
2, 260205, Note_off_c, 0, 45, 95
2, 261120, Note_on_c, 1, 50, 95
2, 261280, Pitch_bend_c, 1, 8192
2, 261440, Pitch_bend_c, 1, 8320
2, 261600, Pitch_bend_c, 1, 8192
2, 261760, Pitch_bend_c, 1, 8320
2, 261920, Pitch_bend_c, 1, 8192
2, 262080, Pitch_bend_c, 1, 8320
2, 262080, Pitch_bend_c, 1, 8192
2, 262080, Note_off_c, 1, 50, 95
2, 262080, Note_on_c, 0, 48, 95
2, 263040, Note_off_c, 0, 48, 95
2, 263040, Note_on_c, 0, 55, 95
2, 263880, Note_on_c, 1, 55, 95
2, 264000, Note_off_c, 0, 55, 95
2, 264000, Note_off_c, 1, 55, 95
2, 264000, Note_on_c, 1, 57, 95
2, 264160, Pitch_bend_c, 1, 8192
2, 264320, Pitch_bend_c, 1, 8320
2, 264480, Pitch_bend_c, 1, 8192
2, 264640, Pitch_bend_c, 1, 8320
2, 264800, Pitch_bend_c, 1, 8192
2, 264960, Pitch_bend_c, 1, 8320
2, 264960, Pitch_bend_c, 1, 8192
2, 264960, Note_off_c, 1, 57, 95
2, 264960, Note_on_c, 0, 57, 47
2, 265920, Note_off_c, 0, 57, 47
2, 265920, Note_on_c, 0, 55, 95
2, 266640, Note_off_c, 0, 55, 95
2, 266640, Note_on_c, 0, 52, 95
2, 266880, Note_off_c, 0, 52, 95
2, 266880, Note_on_c, 0, 48, 95
2, 267360, Note_off_c, 0, 48, 95
2, 267360, Note_on_c, 0, 57, 95
2, 267360, Note_on_c, 0, 52, 95
2, 267840, Note_off_c, 0, 57, 95
2, 267840, Note_off_c, 0, 52, 95
2, 267840, Note_on_c, 0, 54, 95
2, 268320, Note_off_c, 0, 54, 95
2, 268320, Note_on_c, 0, 57, 95
2, 268320, Note_on_c, 0, 52, 95
2, 268800, Note_off_c, 0, 57, 95
2, 268800, Note_off_c, 0, 52, 95
2, 269760, Note_on_c, 0, 55, 95
2, 270480, Note_off_c, 0, 55, 95
2, 270480, Note_on_c, 0, 52, 95
2, 270720, Note_off_c, 0, 52, 95
2, 270720, Note_on_c, 0, 48, 95
2, 271200, Note_off_c, 0, 48, 95
2, 271200, Note_on_c, 0, 57, 95
2, 271200, Note_on_c, 0, 52, 95
2, 271680, Note_off_c, 0, 57, 95
2, 271680, Note_off_c, 0, 52, 95
2, 271680, Note_on_c, 0, 54, 95
2, 272160, Note_off_c, 0, 54, 95
2, 272160, Note_on_c, 0, 57, 95
2, 272160, Note_on_c, 0, 52, 95
2, 272640, Note_off_c, 0, 57, 95
2, 272640, Note_off_c, 0, 52, 95
2, 273600, Note_on_c, 0, 64, 95
2, 274080, Note_off_c, 0, 64, 95
2, 274080, Note_on_c, 0, 57, 95
2, 274080, Note_on_c, 0, 52, 95
2, 274560, Note_off_c, 0, 57, 95
2, 274560, Note_off_c, 0, 52, 95
2, 274560, Note_on_c, 0, 66, 95
2, 275040, Note_off_c, 0, 66, 95
2, 275040, Note_on_c, 0, 69, 95
2, 275520, Note_off_c, 0, 69, 95
2, 275520, Note_on_c, 0, 69, 95
2, 276000, Note_off_c, 0, 69, 95
2, 276000, Note_on_c, 1, 69, 95
2, 276000, Note_on_c, 1, 66, 95
2, 276160, Pitch_bend_c, 1, 8192
2, 276160, Pitch_bend_c, 1, 8192
2, 276320, Pitch_bend_c, 1, 8320
2, 276320, Pitch_bend_c, 1, 8320
2, 276480, Pitch_bend_c, 1, 8192
2, 276480, Pitch_bend_c, 1, 8192
2, 276640, Pitch_bend_c, 1, 8320
2, 276640, Pitch_bend_c, 1, 8320
2, 276800, Pitch_bend_c, 1, 8192
2, 276800, Pitch_bend_c, 1, 8192
2, 276960, Pitch_bend_c, 1, 8320
2, 276960, Pitch_bend_c, 1, 8192
2, 276960, Note_off_c, 1, 69, 95
2, 276960, Pitch_bend_c, 1, 8320
2, 276960, Pitch_bend_c, 1, 8192
2, 276960, Note_off_c, 1, 66, 95
2, 276960, Note_on_c, 0, 69, 95
2, 276960, Note_on_c, 0, 66, 95
2, 277800, Note_on_c, 1, 69, 95
2, 277920, Note_off_c, 0, 69, 95
2, 277920, Note_off_c, 0, 66, 95
2, 277920, Note_off_c, 1, 69, 95
2, 277920, Note_on_c, 1, 67, 95
2, 278400, Note_off_c, 1, 67, 95
2, 278880, Note_on_c, 0, 69, 95
2, 278880, Note_on_c, 0, 66, 95
2, 279360, Note_off_c, 0, 69, 95
2, 279360, Note_off_c, 0, 66, 95
2, 279360, Note_on_c, 0, 69, 95
2, 279840, Note_off_c, 0, 69, 95
2, 280320, Note_on_c, 0, 67, 95
2, 280320, Note_on_c, 0, 64, 95
2, 281160, Note_on_c, 1, 64, 95
2, 281280, Note_off_c, 0, 67, 95
2, 281280, Note_off_c, 0, 64, 95
2, 281280, Note_off_c, 1, 64, 95
2, 281280, Note_on_c, 1, 62, 95
2, 281760, Note_off_c, 1, 62, 95
2, 281760, Note_on_c, 0, 60, 95
2, 282240, Note_off_c, 0, 60, 95
2, 282240, Note_on_c, 0, 61, 95
2, 282480, Note_off_c, 0, 61, 95
2, 282480, Note_on_c, 0, 57, 95
2, 282720, Note_off_c, 0, 57, 95
2, 282720, Note_on_c, 0, 64, 95
2, 283200, Note_off_c, 0, 64, 95
2, 283680, Note_on_c, 0, 64, 95
2, 283680, Note_on_c, 0, 61, 95
2, 284160, Note_off_c, 0, 64, 95
2, 284160, Note_off_c, 0, 61, 95
2, 284640, Note_on_c, 1, 69, 95
2, 284800, Pitch_bend_c, 1, 8192
2, 284960, Pitch_bend_c, 1, 8320
2, 285120, Pitch_bend_c, 1, 8192
2, 285280, Pitch_bend_c, 1, 8320
2, 285360, Pitch_bend_c, 1, 8192
2, 285360, Pitch_bend_c, 1, 8320
2, 285360, Pitch_bend_c, 1, 8192
2, 285360, Note_off_c, 1, 69, 95
2, 285360, Note_on_c, 0, 64, 95
2, 285600, Note_off_c, 0, 64, 95
2, 285600, Note_on_c, 0, 67, 95
2, 286080, Note_off_c, 0, 67, 95
2, 286560, Note_on_c, 0, 69, 95
2, 286560, Note_on_c, 0, 57, 95
2, 287040, Note_off_c, 0, 69, 95
2, 287040, Note_off_c, 0, 57, 95
2, 287520, Note_on_c, 1, 69, 95
2, 287680, Pitch_bend_c, 1, 8192
2, 287840, Pitch_bend_c, 1, 8320
2, 288000, Pitch_bend_c, 1, 8192
2, 288160, Pitch_bend_c, 1, 8320
2, 288320, Pitch_bend_c, 1, 8192
2, 288480, Pitch_bend_c, 1, 8320
2, 288640, Pitch_bend_c, 1, 8192
2, 288800, Pitch_bend_c, 1, 8320
2, 288960, Pitch_bend_c, 1, 8192
2, 289120, Pitch_bend_c, 1, 8320
2, 289280, Pitch_bend_c, 1, 8192
2, 289440, Pitch_bend_c, 1, 8320
2, 289600, Pitch_bend_c, 1, 8192
2, 289760, Pitch_bend_c, 1, 8320
2, 289920, Pitch_bend_c, 1, 8192
2, 290080, Pitch_bend_c, 1, 8320
2, 290240, Pitch_bend_c, 1, 8192
2, 290400, Pitch_bend_c, 1, 8320
2, 290400, Pitch_bend_c, 1, 8192
2, 290400, Note_off_c, 1, 69, 95
2, 290400, Note_on_c, 0, 49, 95
2, 290880, Note_off_c, 0, 49, 95
2, 290880, Note_on_c, 0, 49, 47
2, 291120, Note_off_c, 0, 49, 47
2, 291120, Note_on_c, 1, 61, 95
2, 291120, Note_on_c, 1, 56, 95
2, 291240, Pitch_bend_c, 1, 8448
2, 291240, Pitch_bend_c, 1, 8448
2, 291360, Pitch_bend_c, 1, 8832
2, 291360, Pitch_bend_c, 1, 8192
2, 291360, Note_off_c, 1, 61, 95
2, 291360, Pitch_bend_c, 1, 8832
2, 291360, Pitch_bend_c, 1, 8192
2, 291360, Note_off_c, 1, 56, 95
2, 291360, Note_on_c, 0, 62, 95
2, 291360, Note_on_c, 0, 57, 95
2, 291840, Note_off_c, 0, 62, 95
2, 291840, Note_off_c, 0, 57, 95
2, 291840, Note_on_c, 0, 57, 95
2, 291840, Note_on_c, 0, 50, 95
2, 292320, Note_off_c, 0, 57, 95
2, 292320, Note_off_c, 0, 50, 95
2, 292320, Note_on_c, 0, 69, 95
2, 292800, Note_off_c, 0, 69, 95
2, 292800, Note_on_c, 0, 69, 95
2, 292800, Note_on_c, 0, 66, 95
2, 293280, Note_off_c, 0, 69, 95
2, 293280, Note_off_c, 0, 66, 95
2, 293280, Note_on_c, 0, 69, 95
2, 293280, Note_on_c, 0, 66, 95
2, 294120, Note_on_c, 1, 69, 95
2, 294120, Note_on_c, 1, 66, 95
2, 294240, Note_off_c, 0, 69, 95
2, 294240, Note_off_c, 0, 66, 95
2, 294240, Note_off_c, 1, 69, 95
2, 294240, Note_on_c, 1, 72, 95
2, 294240, Note_off_c, 1, 66, 95
2, 294240, Note_on_c, 1, 69, 95
2, 294720, Note_off_c, 1, 72, 95
2, 294720, Note_off_c, 1, 69, 95
2, 296160, Note_on_c, 0, 69, 95
2, 296160, Note_on_c, 0, 66, 95
2, 296640, Note_off_c, 0, 69, 95
2, 296640, Note_off_c, 0, 66, 95
2, 296640, Note_on_c, 0, 69, 95
2, 296640, Note_on_c, 0, 66, 95
2, 296800, Note_off_c, 0, 69, 95
2, 296800, Note_off_c, 0, 66, 95
2, 296960, Note_on_c, 0, 69, 95
2, 297120, Note_off_c, 0, 69, 95
2, 297280, Note_on_c, 0, 69, 95
2, 297440, Note_off_c, 0, 69, 95
2, 297600, Note_on_c, 0, 69, 95
2, 297600, Note_on_c, 0, 66, 95
2, 297760, Note_off_c, 0, 69, 95
2, 297760, Note_off_c, 0, 66, 95
2, 297920, Note_on_c, 0, 72, 95
2, 297920, Note_on_c, 0, 69, 95
2, 298080, Note_off_c, 0, 72, 95
2, 298080, Note_off_c, 0, 69, 95
2, 298240, Note_on_c, 0, 74, 95
2, 298240, Note_on_c, 0, 71, 95
2, 298400, Note_off_c, 0, 74, 95
2, 298400, Note_off_c, 0, 71, 95
2, 298440, Note_on_c, 1, 72, 95
2, 298440, Note_on_c, 1, 69, 95
2, 298560, Note_off_c, 1, 72, 95
2, 298560, Note_on_c, 1, 74, 95
2, 298560, Note_off_c, 1, 69, 95
2, 298560, Note_on_c, 1, 71, 95
2, 299280, Note_off_c, 1, 74, 95
2, 299280, Note_off_c, 1, 71, 95
2, 299280, Note_on_c, 1, 72, 95
2, 299400, Pitch_bend_c, 1, 6144
2, 299400, Pitch_bend_c, 1, 8192
2, 299400, Note_off_c, 1, 72, 95
2, 299400, Note_on_c, 0, 69, 95
2, 299520, Note_off_c, 0, 69, 95
2, 299520, Note_on_c, 0, 64, 70
2, 299760, Note_off_c, 0, 64, 70
2, 300000, Note_on_c, 0, 64, 95
2, 300000, Note_on_c, 0, 61, 95
2, 300240, Note_off_c, 0, 64, 95
2, 300240, Note_off_c, 0, 61, 95
2, 300480, Note_on_c, 1, 69, 95
2, 300640, Pitch_bend_c, 1, 8192
2, 300800, Pitch_bend_c, 1, 8320
2, 300960, Pitch_bend_c, 1, 8192
2, 301120, Pitch_bend_c, 1, 8320
2, 301280, Pitch_bend_c, 1, 8192
2, 301440, Pitch_bend_c, 1, 8320
2, 301440, Pitch_bend_c, 1, 8192
2, 301440, Note_off_c, 1, 69, 95
2, 301920, Note_on_c, 0, 61, 95
2, 302400, Note_off_c, 0, 61, 95
2, 302400, Note_on_c, 0, 63, 95
2, 302880, Note_off_c, 0, 63, 95
2, 302880, Note_on_c, 0, 60, 95
2, 303120, Note_off_c, 0, 60, 95
2, 303120, Note_on_c, 0, 61, 95
2, 303120, Note_on_c, 0, 57, 70
2, 303360, Note_off_c, 0, 61, 95
2, 303360, Note_off_c, 0, 57, 70
2, 303840, Note_on_c, 0, 64, 95
2, 303840, Note_on_c, 0, 61, 95
2, 304080, Note_off_c, 0, 64, 95
2, 304080, Note_off_c, 0, 61, 95
2, 304320, Note_on_c, 1, 69, 95
2, 304320, Note_on_c, 1, 66, 95
2, 304480, Pitch_bend_c, 1, 8192
2, 304480, Pitch_bend_c, 1, 8192
2, 304640, Pitch_bend_c, 1, 8320
2, 304640, Pitch_bend_c, 1, 8320
2, 304800, Pitch_bend_c, 1, 8192
2, 304800, Pitch_bend_c, 1, 8192
2, 304960, Pitch_bend_c, 1, 8320
2, 304960, Pitch_bend_c, 1, 8320
2, 305120, Pitch_bend_c, 1, 8192
2, 305120, Pitch_bend_c, 1, 8192
2, 305280, Pitch_bend_c, 1, 8320
2, 305280, Pitch_bend_c, 1, 8192
2, 305280, Note_off_c, 1, 69, 95
2, 305280, Pitch_bend_c, 1, 8320
2, 305280, Pitch_bend_c, 1, 8192
2, 305280, Note_off_c, 1, 66, 95
2, 305760, Note_on_c, 0, 64, 95
2, 305760, Note_on_c, 0, 61, 95
2, 306240, Note_off_c, 0, 64, 95
2, 306240, Note_off_c, 0, 61, 95
2, 306720, Note_on_c, 0, 64, 95
2, 306720, Note_on_c, 0, 61, 95
2, 307200, Note_off_c, 0, 64, 95
2, 307200, Note_off_c, 0, 61, 95
2, 307200, Note_on_c, 0, 64, 47
2, 307200, Note_on_c, 0, 61, 47
2, 307680, Note_off_c, 0, 64, 47
2, 307680, Note_off_c, 0, 61, 47
2, 307680, Note_on_c, 0, 54, 95
2, 308160, Note_off_c, 0, 54, 95
2, 308160, Note_on_c, 0, 57, 95
2, 308160, Note_on_c, 0, 52, 95
2, 309120, Note_off_c, 0, 57, 95
2, 309120, Note_off_c, 0, 52, 95
2, 309120, Note_on_c, 0, 66, 95
2, 309360, Note_off_c, 0, 66, 95
2, 309360, Note_on_c, 1, 69, 95
2, 309520, Pitch_bend_c, 1, 8192
2, 309680, Pitch_bend_c, 1, 8320
2, 309840, Pitch_bend_c, 1, 8192
2, 310000, Pitch_bend_c, 1, 8320
2, 310160, Pitch_bend_c, 1, 8192
2, 310320, Pitch_bend_c, 1, 8320
2, 310320, Pitch_bend_c, 1, 8192
2, 310320, Note_off_c, 1, 69, 95
2, 310320, Note_on_c, 0, 66, 95
2, 310560, Note_off_c, 0, 66, 95
2, 310920, Note_on_c, 1, 69, 95
2, 310920, Note_on_c, 1, 66, 95
2, 311040, Note_off_c, 1, 69, 95
2, 311040, Note_on_c, 1, 67, 95
2, 311040, Note_off_c, 1, 66, 95
2, 311040, Note_on_c, 1, 64, 95
2, 311760, Note_off_c, 1, 67, 95
2, 311760, Note_off_c, 1, 64, 95
2, 311760, Pitch_bend_c, 1, 8192
2, 311760, Note_on_c, 1, 67, 95
2, 311760, Pitch_bend_c, 1, 8192
2, 311760, Note_on_c, 1, 64, 95
2, 311820, Pitch_bend_c, 1, 8320
2, 311820, Pitch_bend_c, 1, 8320
2, 311880, Pitch_bend_c, 1, 8448
2, 311880, Pitch_bend_c, 1, 8448
2, 311880, Pitch_bend_c, 1, 8448
2, 311880, Pitch_bend_c, 1, 8448
2, 312000, Pitch_bend_c, 1, 8448
2, 312000, Pitch_bend_c, 1, 8192
2, 312000, Note_off_c, 1, 67, 95
2, 312000, Pitch_bend_c, 1, 8448
2, 312000, Pitch_bend_c, 1, 8192
2, 312000, Note_off_c, 1, 64, 95
2, 312000, Note_on_c, 0, 64, 95
2, 312000, Note_on_c, 0, 61, 95
2, 312960, Note_off_c, 0, 64, 95
2, 312960, Note_off_c, 0, 61, 95
2, 312960, Note_on_c, 0, 67, 95
2, 313440, Note_off_c, 0, 67, 95
2, 313440, Note_on_c, 0, 69, 95
2, 313920, Note_off_c, 0, 69, 95
2, 313920, Note_on_c, 0, 69, 95
2, 314280, Note_on_c, 1, 69, 95
2, 314400, Note_off_c, 0, 69, 95
2, 314400, Note_off_c, 1, 69, 95
2, 314400, Note_on_c, 1, 72, 95
2, 314880, Note_off_c, 1, 72, 95
2, 314880, Note_on_c, 0, 72, 95
2, 315120, Note_off_c, 0, 72, 95
2, 315120, Note_on_c, 1, 72, 95
2, 315120, Note_on_c, 1, 69, 95
2, 315240, Pitch_bend_c, 1, 8832
2, 315240, Pitch_bend_c, 1, 8832
2, 315360, Pitch_bend_c, 1, 9600
2, 315360, Pitch_bend_c, 1, 8192
2, 315360, Note_off_c, 1, 72, 95
2, 315360, Pitch_bend_c, 1, 9600
2, 315360, Pitch_bend_c, 1, 8192
2, 315360, Note_off_c, 1, 69, 95
2, 315360, Note_on_c, 0, 74, 95
2, 315360, Note_on_c, 0, 71, 95
2, 315720, Note_on_c, 1, 72, 95
2, 315840, Note_off_c, 0, 74, 95
2, 315840, Note_off_c, 0, 71, 95
2, 315840, Note_off_c, 1, 72, 95
2, 315840, Note_on_c, 1, 73, 95
2, 316320, Note_off_c, 1, 73, 95
2, 316320, Note_on_c, 1, 69, 95
2, 316480, Pitch_bend_c, 1, 8192
2, 316640, Pitch_bend_c, 1, 8320
2, 316800, Pitch_bend_c, 1, 8192
2, 316960, Pitch_bend_c, 1, 8320
2, 317120, Pitch_bend_c, 1, 8192
2, 317280, Pitch_bend_c, 1, 8320
2, 317440, Pitch_bend_c, 1, 8192
2, 317600, Pitch_bend_c, 1, 8320
2, 317760, Pitch_bend_c, 1, 8192
2, 317920, Pitch_bend_c, 1, 8320
2, 318080, Pitch_bend_c, 1, 8192
2, 318240, Pitch_bend_c, 1, 8320
2, 318400, Pitch_bend_c, 1, 8192
2, 318560, Pitch_bend_c, 1, 8320
2, 318720, Pitch_bend_c, 1, 8192
2, 318720, Pitch_bend_c, 1, 8320
2, 318720, Pitch_bend_c, 1, 8192
2, 318720, Note_off_c, 1, 69, 95
2, 319200, Note_on_c, 0, 57, 95
2, 319440, Note_off_c, 0, 57, 95
2, 320160, Note_on_c, 1, 69, 95
2, 320320, Pitch_bend_c, 1, 8192
2, 320480, Pitch_bend_c, 1, 8320
2, 320640, Pitch_bend_c, 1, 8192
2, 320640, Pitch_bend_c, 1, 8320
2, 320640, Pitch_bend_c, 1, 8192
2, 320640, Note_off_c, 1, 69, 95
2, 321120, Note_on_c, 0, 64, 95
2, 321120, Note_on_c, 0, 61, 95
2, 321360, Note_off_c, 0, 64, 95
2, 321360, Note_off_c, 0, 61, 95
2, 321600, Note_on_c, 1, 60, 95
2, 321760, Pitch_bend_c, 1, 8192
2, 321920, Pitch_bend_c, 1, 8320
2, 322080, Pitch_bend_c, 1, 8192
2, 322240, Pitch_bend_c, 1, 8320
2, 322400, Pitch_bend_c, 1, 8192
2, 322560, Pitch_bend_c, 1, 8320
2, 322560, Pitch_bend_c, 1, 8192
2, 322560, Note_off_c, 1, 60, 95
2, 322560, Note_on_c, 0, 57, 95
2, 322560, Note_on_c, 0, 52, 95
2, 322800, Note_off_c, 0, 57, 95
2, 322800, Note_off_c, 0, 52, 95
2, 323520, Note_on_c, 0, 61, 95
2, 324000, Note_off_c, 0, 61, 95
2, 324000, Note_on_c, 1, 69, 95
2, 324160, Pitch_bend_c, 1, 8192
2, 324320, Pitch_bend_c, 1, 8320
2, 324480, Pitch_bend_c, 1, 8192
2, 324480, Pitch_bend_c, 1, 8320
2, 324480, Pitch_bend_c, 1, 8192
2, 324480, Note_off_c, 1, 69, 95
2, 324480, Note_on_c, 1, 69, 47
2, 324960, Note_off_c, 1, 69, 47
2, 326400, Note_on_c, 1, 62, 95
2, 326400, Note_on_c, 1, 57, 95
2, 326400, Note_on_c, 1, 50, 95
2, 326560, Pitch_bend_c, 1, 8192
2, 326560, Pitch_bend_c, 1, 8192
2, 326560, Pitch_bend_c, 1, 8192
2, 326720, Pitch_bend_c, 1, 8320
2, 326720, Pitch_bend_c, 1, 8320
2, 326720, Pitch_bend_c, 1, 8320
2, 326880, Pitch_bend_c, 1, 8192
2, 326880, Pitch_bend_c, 1, 8192
2, 326880, Pitch_bend_c, 1, 8192
2, 327040, Pitch_bend_c, 1, 8320
2, 327040, Pitch_bend_c, 1, 8320
2, 327040, Pitch_bend_c, 1, 8320
2, 327200, Pitch_bend_c, 1, 8192
2, 327200, Pitch_bend_c, 1, 8192
2, 327200, Pitch_bend_c, 1, 8192
2, 327360, Pitch_bend_c, 1, 8320
2, 327360, Pitch_bend_c, 1, 8320
2, 327360, Pitch_bend_c, 1, 8320
2, 327520, Pitch_bend_c, 1, 8192
2, 327520, Pitch_bend_c, 1, 8192
2, 327520, Pitch_bend_c, 1, 8192
2, 327680, Pitch_bend_c, 1, 8320
2, 327680, Pitch_bend_c, 1, 8320
2, 327680, Pitch_bend_c, 1, 8320
2, 327840, Pitch_bend_c, 1, 8192
2, 327840, Pitch_bend_c, 1, 8192
2, 327840, Pitch_bend_c, 1, 8192
2, 328000, Pitch_bend_c, 1, 8320
2, 328000, Pitch_bend_c, 1, 8320
2, 328000, Pitch_bend_c, 1, 8320
2, 328160, Pitch_bend_c, 1, 8192
2, 328160, Pitch_bend_c, 1, 8192
2, 328160, Pitch_bend_c, 1, 8192
2, 328320, Pitch_bend_c, 1, 8320
2, 328320, Pitch_bend_c, 1, 8192
2, 328320, Note_off_c, 1, 62, 95
2, 328320, Pitch_bend_c, 1, 8320
2, 328320, Pitch_bend_c, 1, 8192
2, 328320, Note_off_c, 1, 57, 95
2, 328320, Pitch_bend_c, 1, 8320
2, 328320, Pitch_bend_c, 1, 8192
2, 328320, Note_off_c, 1, 50, 95
2, 328320, Note_on_c, 0, 52, 95
2, 328320, Note_on_c, 0, 45, 95
2, 328365, Note_off_c, 0, 52, 95
2, 328365, Note_off_c, 0, 45, 95
2, 329280, Note_on_c, 0, 52, 95
2, 329280, Note_on_c, 0, 45, 95
2, 329325, Note_off_c, 0, 52, 95
2, 329325, Note_off_c, 0, 45, 95
2, 329760, Note_on_c, 1, 57, 95
2, 329760, Note_on_c, 1, 50, 95
2, 329920, Pitch_bend_c, 1, 8192
2, 329920, Pitch_bend_c, 1, 8192
2, 330080, Pitch_bend_c, 1, 8320
2, 330080, Pitch_bend_c, 1, 8320
2, 330240, Pitch_bend_c, 1, 8192
2, 330240, Pitch_bend_c, 1, 8192
2, 330400, Pitch_bend_c, 1, 8320
2, 330400, Pitch_bend_c, 1, 8320
2, 330560, Pitch_bend_c, 1, 8192
2, 330560, Pitch_bend_c, 1, 8192
2, 330720, Pitch_bend_c, 1, 8320
2, 330720, Pitch_bend_c, 1, 8320
2, 330880, Pitch_bend_c, 1, 8192
2, 330880, Pitch_bend_c, 1, 8192
2, 331040, Pitch_bend_c, 1, 8320
2, 331040, Pitch_bend_c, 1, 8320
2, 331200, Pitch_bend_c, 1, 8192
2, 331200, Pitch_bend_c, 1, 8192
2, 331360, Pitch_bend_c, 1, 8320
2, 331360, Pitch_bend_c, 1, 8320
2, 331520, Pitch_bend_c, 1, 8192
2, 331520, Pitch_bend_c, 1, 8192
2, 331680, Pitch_bend_c, 1, 8320
2, 331680, Pitch_bend_c, 1, 8320
2, 331840, Pitch_bend_c, 1, 8192
2, 331840, Pitch_bend_c, 1, 8192
2, 332000, Pitch_bend_c, 1, 8320
2, 332000, Pitch_bend_c, 1, 8320
2, 332160, Pitch_bend_c, 1, 8192
2, 332160, Pitch_bend_c, 1, 8320
2, 332160, Pitch_bend_c, 1, 8192
2, 332160, Note_off_c, 1, 57, 95
2, 332160, Pitch_bend_c, 1, 8192
2, 332160, Pitch_bend_c, 1, 8320
2, 332160, Pitch_bend_c, 1, 8192
2, 332160, Note_off_c, 1, 50, 95
2, 332160, Note_on_c, 0, 60, 95
2, 332160, Note_on_c, 0, 55, 95
2, 332160, Note_on_c, 0, 48, 95
2, 333120, Note_off_c, 0, 60, 95
2, 333120, Note_off_c, 0, 55, 95
2, 333120, Note_off_c, 0, 48, 95
2, 333120, Note_on_c, 0, 45, 95
2, 333600, Note_off_c, 0, 45, 95
2, 333600, Note_on_c, 0, 45, 95
2, 334560, Note_off_c, 0, 45, 95
2, 335040, Note_on_c, 0, 55, 95
2, 335760, Note_off_c, 0, 55, 95
2, 335760, Note_on_c, 0, 52, 95
2, 336000, Note_off_c, 0, 52, 95
2, 336000, Note_on_c, 0, 48, 95
2, 336480, Note_off_c, 0, 48, 95
2, 336480, Note_on_c, 0, 57, 95
2, 336480, Note_on_c, 0, 52, 95
2, 336960, Note_off_c, 0, 57, 95
2, 336960, Note_off_c, 0, 52, 95
2, 336960, Note_on_c, 0, 57, 95
2, 336960, Note_on_c, 0, 54, 95
2, 337440, Note_off_c, 0, 57, 95
2, 337440, Note_off_c, 0, 54, 95
2, 337440, Note_on_c, 0, 57, 95
2, 337440, Note_on_c, 0, 52, 95
2, 338400, Note_off_c, 0, 57, 95
2, 338400, Note_off_c, 0, 52, 95
2, 338760, Note_on_c, 1, 54, 95
2, 338880, Note_off_c, 1, 54, 95
2, 338880, Note_on_c, 1, 55, 95
2, 339360, Note_off_c, 1, 55, 95
2, 339360, Note_on_c, 0, 54, 70
2, 339600, Note_off_c, 0, 54, 70
2, 339600, Note_on_c, 0, 52, 70
2, 339840, Note_off_c, 0, 52, 70
2, 339840, Note_on_c, 0, 48, 95
2, 340320, Note_off_c, 0, 48, 95
2, 340320, Note_on_c, 0, 57, 95
2, 340320, Note_on_c, 0, 52, 95
2, 340800, Note_off_c, 0, 57, 95
2, 340800, Note_off_c, 0, 52, 95
2, 340800, Note_on_c, 0, 54, 95
2, 341280, Note_off_c, 0, 54, 95
2, 341280, Note_on_c, 0, 61, 95
2, 341280, Note_on_c, 0, 57, 95
2, 341280, Note_on_c, 0, 52, 95
2, 341760, Note_off_c, 0, 61, 95
2, 341760, Note_off_c, 0, 57, 95
2, 341760, Note_off_c, 0, 52, 95
2, 341760, Note_on_c, 0, 45, 95
2, 342240, Note_off_c, 0, 45, 95
2, 342240, Note_on_c, 0, 57, 95
2, 342240, Note_on_c, 0, 52, 95
2, 342720, Note_off_c, 0, 57, 95
2, 342720, Note_off_c, 0, 52, 95
2, 343200, Note_on_c, 0, 50, 95
2, 344160, Note_off_c, 0, 50, 95
2, 344160, Note_on_c, 1, 62, 95
2, 344160, Note_on_c, 1, 57, 95
2, 344160, Note_on_c, 1, 50, 95
2, 344320, Pitch_bend_c, 1, 8192
2, 344320, Pitch_bend_c, 1, 8192
2, 344320, Pitch_bend_c, 1, 8192
2, 344480, Pitch_bend_c, 1, 8320
2, 344480, Pitch_bend_c, 1, 8320
2, 344480, Pitch_bend_c, 1, 8320
2, 344640, Pitch_bend_c, 1, 8192
2, 344640, Pitch_bend_c, 1, 8192
2, 344640, Pitch_bend_c, 1, 8192
2, 344800, Pitch_bend_c, 1, 8320
2, 344800, Pitch_bend_c, 1, 8320
2, 344800, Pitch_bend_c, 1, 8320
2, 344960, Pitch_bend_c, 1, 8192
2, 344960, Pitch_bend_c, 1, 8192
2, 344960, Pitch_bend_c, 1, 8192
2, 345120, Pitch_bend_c, 1, 8320
2, 345120, Pitch_bend_c, 1, 8192
2, 345120, Note_off_c, 1, 62, 95
2, 345120, Pitch_bend_c, 1, 8320
2, 345120, Pitch_bend_c, 1, 8192
2, 345120, Note_off_c, 1, 57, 95
2, 345120, Pitch_bend_c, 1, 8320
2, 345120, Pitch_bend_c, 1, 8192
2, 345120, Note_off_c, 1, 50, 95
2, 345120, Note_on_c, 0, 50, 95
2, 346080, Note_off_c, 0, 50, 95
2, 346080, Note_on_c, 0, 50, 95
2, 346560, Note_off_c, 0, 50, 95
2, 347040, Note_on_c, 1, 50, 95
2, 347200, Pitch_bend_c, 1, 8192
2, 347360, Pitch_bend_c, 1, 8320
2, 347520, Pitch_bend_c, 1, 8192
2, 347680, Pitch_bend_c, 1, 8320
2, 347840, Pitch_bend_c, 1, 8192
2, 348000, Pitch_bend_c, 1, 8320
2, 348160, Pitch_bend_c, 1, 8192
2, 348320, Pitch_bend_c, 1, 8320
2, 348480, Pitch_bend_c, 1, 8192
2, 348480, Pitch_bend_c, 1, 8320
2, 348480, Pitch_bend_c, 1, 8192
2, 348480, Note_off_c, 1, 50, 95
2, 349440, Note_on_c, 0, 48, 95
2, 350400, Note_off_c, 0, 48, 95
2, 350400, Note_on_c, 0, 45, 95
2, 350880, Note_off_c, 0, 45, 95
2, 350880, Note_on_c, 0, 45, 95
2, 351360, Note_off_c, 0, 45, 95
2, 352320, Note_on_c, 0, 55, 95
2, 353040, Note_off_c, 0, 55, 95
2, 353040, Note_on_c, 0, 52, 95
2, 353280, Note_off_c, 0, 52, 95
2, 353280, Note_on_c, 0, 48, 95
2, 353760, Note_off_c, 0, 48, 95
2, 353760, Note_on_c, 0, 57, 95
2, 353760, Note_on_c, 0, 52, 95
2, 354240, Note_off_c, 0, 57, 95
2, 354240, Note_off_c, 0, 52, 95
2, 354240, Note_on_c, 0, 54, 95
2, 354720, Note_off_c, 0, 54, 95
2, 354720, Note_on_c, 0, 57, 95
2, 354720, Note_on_c, 0, 52, 95
2, 355200, Note_off_c, 0, 57, 95
2, 355200, Note_off_c, 0, 52, 95
2, 356040, Note_on_c, 1, 54, 95
2, 356160, Note_off_c, 1, 54, 95
2, 356160, Note_on_c, 1, 55, 95
2, 356640, Note_off_c, 1, 55, 95
2, 356640, Note_on_c, 0, 55, 47
2, 356800, Note_off_c, 0, 55, 47
2, 356800, Note_on_c, 0, 54, 70
2, 356960, Note_off_c, 0, 54, 70
2, 356960, Note_on_c, 0, 52, 70
2, 357120, Note_off_c, 0, 52, 70
2, 357120, Note_on_c, 0, 48, 95
2, 357600, Note_off_c, 0, 48, 95
2, 357600, Note_on_c, 0, 52, 95
2, 358080, Note_off_c, 0, 52, 95
2, 358080, Note_on_c, 0, 54, 95
2, 358560, Note_off_c, 0, 54, 95
2, 358560, Note_on_c, 0, 57, 95
2, 358560, Note_on_c, 0, 52, 70
2, 359040, Note_off_c, 0, 57, 95
2, 359040, Note_off_c, 0, 52, 70
2, 359040, Note_on_c, 0, 45, 95
2, 360000, Note_off_c, 0, 45, 95
2, 360000, Note_on_c, 0, 52, 95
2, 360240, Note_off_c, 0, 52, 95
2, 360240, Note_on_c, 0, 54, 70
2, 360480, Note_off_c, 0, 54, 70
2, 360480, Note_on_c, 1, 58, 95
2, 360480, Note_on_c, 1, 51, 95
2, 360600, Pitch_bend_c, 1, 8320
2, 360600, Pitch_bend_c, 1, 8320
2, 360720, Pitch_bend_c, 1, 8448
2, 360720, Pitch_bend_c, 1, 8448
2, 360840, Pitch_bend_c, 1, 8704
2, 360840, Pitch_bend_c, 1, 8704
2, 360960, Pitch_bend_c, 1, 8832
2, 360960, Pitch_bend_c, 1, 8192
2, 360960, Note_off_c, 1, 58, 95
2, 360960, Pitch_bend_c, 1, 8832
2, 360960, Pitch_bend_c, 1, 8192
2, 360960, Note_off_c, 1, 51, 95
2, 360960, Note_on_c, 1, 59, 95
2, 360960, Note_on_c, 1, 52, 95
2, 361120, Pitch_bend_c, 1, 8192
2, 361120, Pitch_bend_c, 1, 8192
2, 361280, Pitch_bend_c, 1, 8320
2, 361280, Pitch_bend_c, 1, 8320
2, 361440, Pitch_bend_c, 1, 8192
2, 361440, Pitch_bend_c, 1, 8192
2, 361600, Pitch_bend_c, 1, 8320
2, 361600, Pitch_bend_c, 1, 8320
2, 361760, Pitch_bend_c, 1, 8192
2, 361760, Pitch_bend_c, 1, 8192
2, 361920, Pitch_bend_c, 1, 8320
2, 361920, Pitch_bend_c, 1, 8320
2, 362080, Pitch_bend_c, 1, 8192
2, 362080, Pitch_bend_c, 1, 8192
2, 362240, Pitch_bend_c, 1, 8320
2, 362240, Pitch_bend_c, 1, 8320
2, 362400, Pitch_bend_c, 1, 8192
2, 362400, Pitch_bend_c, 1, 8192
2, 362560, Pitch_bend_c, 1, 8320
2, 362560, Pitch_bend_c, 1, 8320
2, 362720, Pitch_bend_c, 1, 8192
2, 362720, Pitch_bend_c, 1, 8192
2, 362880, Pitch_bend_c, 1, 8320
2, 362880, Pitch_bend_c, 1, 8320
2, 363040, Pitch_bend_c, 1, 8192
2, 363040, Pitch_bend_c, 1, 8192
2, 363200, Pitch_bend_c, 1, 8320
2, 363200, Pitch_bend_c, 1, 8320
2, 363360, Pitch_bend_c, 1, 8192
2, 363360, Pitch_bend_c, 1, 8192
2, 363520, Pitch_bend_c, 1, 8320
2, 363520, Pitch_bend_c, 1, 8320
2, 363680, Pitch_bend_c, 1, 8192
2, 363680, Pitch_bend_c, 1, 8192
2, 363840, Pitch_bend_c, 1, 8320
2, 363840, Pitch_bend_c, 1, 8192
2, 363840, Note_off_c, 1, 59, 95
2, 363840, Pitch_bend_c, 1, 8320
2, 363840, Pitch_bend_c, 1, 8192
2, 363840, Note_off_c, 1, 52, 95
2, 363840, Note_on_c, 0, 52, 95
2, 363840, Note_on_c, 0, 45, 95
2, 363885, Note_off_c, 0, 52, 95
2, 363885, Note_off_c, 0, 45, 95
2, 364800, Note_on_c, 1, 50, 95
2, 364960, Pitch_bend_c, 1, 8192
2, 365120, Pitch_bend_c, 1, 8320
2, 365280, Pitch_bend_c, 1, 8192
2, 365440, Pitch_bend_c, 1, 8320
2, 365600, Pitch_bend_c, 1, 8192
2, 365760, Pitch_bend_c, 1, 8320
2, 365760, Pitch_bend_c, 1, 8192
2, 365760, Note_off_c, 1, 50, 95
2, 365760, Note_on_c, 0, 48, 95
2, 366720, Note_off_c, 0, 48, 95
2, 366720, Note_on_c, 0, 55, 95
2, 367560, Note_on_c, 1, 55, 95
2, 367680, Note_off_c, 0, 55, 95
2, 367680, Note_off_c, 1, 55, 95
2, 367680, Note_on_c, 1, 57, 95
2, 367840, Pitch_bend_c, 1, 8192
2, 368000, Pitch_bend_c, 1, 8320
2, 368160, Pitch_bend_c, 1, 8192
2, 368320, Pitch_bend_c, 1, 8320
2, 368480, Pitch_bend_c, 1, 8192
2, 368640, Pitch_bend_c, 1, 8320
2, 368640, Pitch_bend_c, 1, 8192
2, 368640, Note_off_c, 1, 57, 95
2, 368640, Note_on_c, 0, 57, 47
2, 369600, Note_off_c, 0, 57, 47
2, 369600, Note_on_c, 0, 55, 95
2, 370320, Note_off_c, 0, 55, 95
2, 370320, Note_on_c, 0, 52, 95
2, 370560, Note_off_c, 0, 52, 95
2, 370560, Note_on_c, 0, 48, 95
2, 371040, Note_off_c, 0, 48, 95
2, 371040, Note_on_c, 0, 57, 95
2, 371040, Note_on_c, 0, 52, 95
2, 371520, Note_off_c, 0, 57, 95
2, 371520, Note_off_c, 0, 52, 95
2, 371520, Note_on_c, 0, 54, 95
2, 372000, Note_off_c, 0, 54, 95
2, 372000, Note_on_c, 0, 57, 95
2, 372000, Note_on_c, 0, 52, 95
2, 372480, Note_off_c, 0, 57, 95
2, 372480, Note_off_c, 0, 52, 95
2, 373440, Note_on_c, 0, 55, 95
2, 374160, Note_off_c, 0, 55, 95
2, 374160, Note_on_c, 0, 52, 95
2, 374400, Note_off_c, 0, 52, 95
2, 374400, Note_on_c, 0, 48, 95
2, 374880, Note_off_c, 0, 48, 95
2, 374880, Note_on_c, 0, 57, 95
2, 374880, Note_on_c, 0, 52, 95
2, 375360, Note_off_c, 0, 57, 95
2, 375360, Note_off_c, 0, 52, 95
2, 375360, Note_on_c, 0, 54, 95
2, 375840, Note_off_c, 0, 54, 95
2, 375840, Note_on_c, 0, 57, 95
2, 375840, Note_on_c, 0, 52, 95
2, 376320, Note_off_c, 0, 57, 95
2, 376320, Note_off_c, 0, 52, 95
2, 377280, Note_on_c, 1, 55, 95
2, 377440, Pitch_bend_c, 1, 8192
2, 377600, Pitch_bend_c, 1, 8320
2, 377760, Pitch_bend_c, 1, 8192
2, 377920, Pitch_bend_c, 1, 8320
2, 378000, Pitch_bend_c, 1, 8192
2, 378000, Pitch_bend_c, 1, 8320
2, 378000, Pitch_bend_c, 1, 8192
2, 378000, Note_off_c, 1, 55, 95
2, 378000, Note_on_c, 0, 52, 95
2, 378240, Note_off_c, 0, 52, 95
2, 378240, Note_on_c, 0, 48, 95
2, 378720, Note_off_c, 0, 48, 95
2, 378720, Note_on_c, 0, 57, 95
2, 378720, Note_on_c, 0, 52, 95
2, 379200, Note_off_c, 0, 57, 95
2, 379200, Note_off_c, 0, 52, 95
2, 379200, Note_on_c, 0, 54, 95
2, 379680, Note_off_c, 0, 54, 95
2, 379680, Note_on_c, 0, 52, 95
2, 380160, Note_off_c, 0, 52, 95
2, 380640, Note_on_c, 0, 69, 95
2, 380640, Note_on_c, 0, 64, 95
2, 381120, Note_off_c, 0, 69, 95
2, 381120, Note_off_c, 0, 64, 95
2, 381120, Note_on_c, 0, 69, 95
2, 381120, Note_on_c, 0, 64, 95
2, 381600, Note_off_c, 0, 69, 95
2, 381600, Note_off_c, 0, 64, 95
2, 381600, Note_on_c, 0, 69, 95
2, 381600, Note_on_c, 0, 64, 95
2, 381600, Note_on_c, 0, 57, 95
2, 384000, Note_off_c, 0, 69, 95
2, 384000, Note_off_c, 0, 64, 95
2, 384000, Note_off_c, 0, 57, 95
2, 384000, Note_on_c, 1, 69, 47
2, 384000, Note_on_c, 1, 64, 47
2, 384000, Note_on_c, 1, 57, 47
2, 384960, Note_off_c, 1, 69, 47
2, 384960, Note_off_c, 1, 64, 47
2, 384960, Note_off_c, 1, 57, 47
2, 384960, End_track
3, 0, Start_track
3, 0, Pitch_bend_c, 2, 8192
3, 0, Control_c, 2, 7, 103
3, 0, Control_c, 2, 10, 63
3, 0, Control_c, 2, 93, 0
3, 0, Control_c, 2, 91, 0
3, 0, Control_c, 2, 95, 0
3, 0, Control_c, 2, 92, 0
3, 0, Control_c, 2, 11, 127
3, 0, Program_c, 2, 30
3, 0, Control_c, 3, 7, 103
3, 0, Control_c, 3, 10, 63
3, 0, Control_c, 3, 93, 0
3, 0, Control_c, 3, 91, 0
3, 0, Control_c, 3, 95, 0
3, 0, Control_c, 3, 92, 0
3, 0, Control_c, 3, 11, 127
3, 0, Program_c, 3, 30
3, 3360, Note_on_c, 2, 73, 95
3, 3360, Note_on_c, 2, 57, 95
3, 3840, Note_off_c, 2, 73, 95
3, 3840, Note_off_c, 2, 57, 95
3, 3840, Note_on_c, 3, 76, 95
3, 3840, Note_on_c, 3, 57, 95
3, 4000, Pitch_bend_c, 3, 8192
3, 4000, Pitch_bend_c, 3, 8192
3, 4160, Pitch_bend_c, 3, 8320
3, 4160, Pitch_bend_c, 3, 8320
3, 4320, Pitch_bend_c, 3, 8192
3, 4320, Pitch_bend_c, 3, 8192
3, 4480, Pitch_bend_c, 3, 8320
3, 4480, Pitch_bend_c, 3, 8320
3, 4640, Pitch_bend_c, 3, 8192
3, 4640, Pitch_bend_c, 3, 8192
3, 4800, Pitch_bend_c, 3, 8320
3, 4800, Pitch_bend_c, 3, 8192
3, 4800, Note_off_c, 3, 76, 95
3, 4800, Pitch_bend_c, 3, 8320
3, 4800, Pitch_bend_c, 3, 8192
3, 4800, Note_off_c, 3, 57, 95
3, 4800, Note_on_c, 3, 76, 95
3, 4800, Note_on_c, 3, 57, 95
3, 4960, Pitch_bend_c, 3, 7552
3, 4960, Pitch_bend_c, 3, 7552
3, 5120, Pitch_bend_c, 3, 6784
3, 5120, Pitch_bend_c, 3, 8192
3, 5120, Note_off_c, 3, 76, 95
3, 5120, Pitch_bend_c, 3, 6784
3, 5120, Pitch_bend_c, 3, 8192
3, 5120, Note_off_c, 3, 57, 95
3, 5120, Note_on_c, 2, 74, 95
3, 5120, Note_on_c, 2, 55, 95
3, 5440, Note_off_c, 2, 74, 95
3, 5440, Note_off_c, 2, 55, 95
3, 5440, Note_on_c, 2, 73, 95
3, 5440, Note_on_c, 2, 57, 95
3, 5760, Note_off_c, 2, 73, 95
3, 5760, Note_off_c, 2, 57, 95
3, 5760, Note_on_c, 3, 76, 95
3, 5920, Pitch_bend_c, 3, 8192
3, 6080, Pitch_bend_c, 3, 8320
3, 6240, Pitch_bend_c, 3, 8192
3, 6240, Pitch_bend_c, 3, 8320
3, 6240, Pitch_bend_c, 3, 8192
3, 6240, Note_off_c, 3, 76, 95
3, 6720, Note_on_c, 3, 67, 95
3, 6720, Note_on_c, 3, 64, 95
3, 6880, Pitch_bend_c, 3, 7936
3, 6880, Pitch_bend_c, 3, 7936
3, 7040, Pitch_bend_c, 3, 7552
3, 7040, Pitch_bend_c, 3, 8192
3, 7040, Note_off_c, 3, 67, 95
3, 7040, Pitch_bend_c, 3, 7552
3, 7040, Pitch_bend_c, 3, 8192
3, 7040, Note_off_c, 3, 64, 95
3, 7040, Note_on_c, 2, 66, 95
3, 7040, Note_on_c, 2, 63, 95
3, 7360, Note_off_c, 2, 66, 95
3, 7360, Note_off_c, 2, 63, 95
3, 7360, Note_on_c, 2, 64, 70
3, 7360, Note_on_c, 2, 61, 70
3, 7680, Note_off_c, 2, 64, 70
3, 7680, Note_off_c, 2, 61, 70
3, 8160, Note_on_c, 2, 52, 95
3, 8640, Note_off_c, 2, 52, 95
3, 8640, Note_on_c, 2, 57, 95
3, 8640, Note_on_c, 2, 55, 95
3, 9120, Note_off_c, 2, 57, 95
3, 9120, Note_off_c, 2, 55, 95
3, 9120, Note_on_c, 2, 57, 95
3, 9120, Note_on_c, 2, 55, 95
3, 9600, Note_off_c, 2, 57, 95
3, 9600, Note_off_c, 2, 55, 95
3, 9600, Note_on_c, 2, 57, 95
3, 9600, Note_on_c, 2, 54, 95
3, 9840, Note_off_c, 2, 57, 95
3, 9840, Note_off_c, 2, 54, 95
3, 9840, Note_on_c, 2, 54, 95
3, 10080, Note_off_c, 2, 54, 95
3, 10080, Note_on_c, 2, 57, 95
3, 10080, Note_on_c, 2, 54, 95
3, 10560, Note_off_c, 2, 57, 95
3, 10560, Note_off_c, 2, 54, 95
3, 10560, Note_on_c, 2, 57, 95
3, 10560, Note_on_c, 2, 52, 95
3, 11040, Note_off_c, 2, 57, 95
3, 11040, Note_off_c, 2, 52, 95
3, 11040, Note_on_c, 2, 61, 95
3, 11040, Note_on_c, 2, 49, 95
3, 11520, Note_off_c, 2, 61, 95
3, 11520, Note_off_c, 2, 49, 95
3, 11520, Note_on_c, 2, 57, 95
3, 11520, Note_on_c, 2, 45, 95
3, 12000, Note_off_c, 2, 57, 95
3, 12000, Note_off_c, 2, 45, 95
3, 12000, Note_on_c, 2, 61, 95
3, 12480, Note_off_c, 2, 61, 95
3, 12480, Note_on_c, 2, 45, 95
3, 12960, Note_off_c, 2, 45, 95
3, 12960, Note_on_c, 3, 69, 95
3, 13120, Pitch_bend_c, 3, 8192
3, 13280, Pitch_bend_c, 3, 8320
3, 13440, Pitch_bend_c, 3, 8192
3, 13600, Pitch_bend_c, 3, 8320
3, 13760, Pitch_bend_c, 3, 8192
3, 13920, Pitch_bend_c, 3, 8320
3, 14080, Pitch_bend_c, 3, 8192
3, 14240, Pitch_bend_c, 3, 8320
3, 14400, Pitch_bend_c, 3, 8192
3, 14560, Pitch_bend_c, 3, 8320
3, 14720, Pitch_bend_c, 3, 8192
3, 14880, Pitch_bend_c, 3, 8320
3, 14880, Pitch_bend_c, 3, 8192
3, 14880, Note_off_c, 3, 69, 95
3, 14880, Note_on_c, 3, 60, 95
3, 14880, Note_on_c, 3, 55, 95
3, 14880, Note_on_c, 3, 48, 95
3, 15000, Pitch_bend_c, 3, 8448
3, 15000, Pitch_bend_c, 3, 8448
3, 15000, Pitch_bend_c, 3, 8448
3, 15120, Pitch_bend_c, 3, 8832
3, 15120, Pitch_bend_c, 3, 8832
3, 15120, Pitch_bend_c, 3, 8832
3, 15240, Pitch_bend_c, 3, 9216
3, 15240, Pitch_bend_c, 3, 9216
3, 15240, Pitch_bend_c, 3, 9216
3, 15360, Pitch_bend_c, 3, 9600
3, 15360, Pitch_bend_c, 3, 8192
3, 15360, Note_off_c, 3, 60, 95
3, 15360, Pitch_bend_c, 3, 9600
3, 15360, Pitch_bend_c, 3, 8192
3, 15360, Note_off_c, 3, 55, 95
3, 15360, Pitch_bend_c, 3, 9600
3, 15360, Pitch_bend_c, 3, 8192
3, 15360, Note_off_c, 3, 48, 95
3, 15360, Note_on_c, 3, 62, 95
3, 15360, Note_on_c, 3, 57, 95
3, 15360, Note_on_c, 3, 50, 95
3, 15520, Pitch_bend_c, 3, 8192
3, 15520, Pitch_bend_c, 3, 8192
3, 15520, Pitch_bend_c, 3, 8192
3, 15680, Pitch_bend_c, 3, 8320
3, 15680, Pitch_bend_c, 3, 8320
3, 15680, Pitch_bend_c, 3, 8320
3, 15840, Pitch_bend_c, 3, 8192
3, 15840, Pitch_bend_c, 3, 8192
3, 15840, Pitch_bend_c, 3, 8192
3, 16000, Pitch_bend_c, 3, 8320
3, 16000, Pitch_bend_c, 3, 8320
3, 16000, Pitch_bend_c, 3, 8320
3, 16160, Pitch_bend_c, 3, 8192
3, 16160, Pitch_bend_c, 3, 8192
3, 16160, Pitch_bend_c, 3, 8192
3, 16320, Pitch_bend_c, 3, 8320
3, 16320, Pitch_bend_c, 3, 8320
3, 16320, Pitch_bend_c, 3, 8320
3, 16480, Pitch_bend_c, 3, 8192
3, 16480, Pitch_bend_c, 3, 8192
3, 16480, Pitch_bend_c, 3, 8192
3, 16640, Pitch_bend_c, 3, 8320
3, 16640, Pitch_bend_c, 3, 8320
3, 16640, Pitch_bend_c, 3, 8320
3, 16800, Pitch_bend_c, 3, 8192
3, 16800, Pitch_bend_c, 3, 8192
3, 16800, Pitch_bend_c, 3, 8192
3, 16960, Pitch_bend_c, 3, 8320
3, 16960, Pitch_bend_c, 3, 8320
3, 16960, Pitch_bend_c, 3, 8320
3, 17120, Pitch_bend_c, 3, 8192
3, 17120, Pitch_bend_c, 3, 8192
3, 17120, Pitch_bend_c, 3, 8192
3, 17280, Pitch_bend_c, 3, 8320
3, 17280, Pitch_bend_c, 3, 8192
3, 17280, Note_off_c, 3, 62, 95
3, 17280, Pitch_bend_c, 3, 8320
3, 17280, Pitch_bend_c, 3, 8192
3, 17280, Note_off_c, 3, 57, 95
3, 17280, Pitch_bend_c, 3, 8320
3, 17280, Pitch_bend_c, 3, 8192
3, 17280, Note_off_c, 3, 50, 95
3, 17280, Note_on_c, 2, 52, 95
3, 17280, Note_on_c, 2, 45, 95
3, 17325, Note_off_c, 2, 52, 95
3, 17325, Note_off_c, 2, 45, 95
3, 18240, Note_on_c, 2, 52, 95
3, 18240, Note_on_c, 2, 45, 95
3, 18285, Note_off_c, 2, 52, 95
3, 18285, Note_off_c, 2, 45, 95
3, 18720, Note_on_c, 3, 57, 95
3, 18720, Note_on_c, 3, 50, 95
3, 18880, Pitch_bend_c, 3, 8192
3, 18880, Pitch_bend_c, 3, 8192
3, 19040, Pitch_bend_c, 3, 8320
3, 19040, Pitch_bend_c, 3, 8320
3, 19200, Pitch_bend_c, 3, 8192
3, 19200, Pitch_bend_c, 3, 8192
3, 19360, Pitch_bend_c, 3, 8320
3, 19360, Pitch_bend_c, 3, 8320
3, 19520, Pitch_bend_c, 3, 8192
3, 19520, Pitch_bend_c, 3, 8192
3, 19680, Pitch_bend_c, 3, 8320
3, 19680, Pitch_bend_c, 3, 8320
3, 19840, Pitch_bend_c, 3, 8192
3, 19840, Pitch_bend_c, 3, 8192
3, 20000, Pitch_bend_c, 3, 8320
3, 20000, Pitch_bend_c, 3, 8320
3, 20160, Pitch_bend_c, 3, 8192
3, 20160, Pitch_bend_c, 3, 8192
3, 20320, Pitch_bend_c, 3, 8320
3, 20320, Pitch_bend_c, 3, 8320
3, 20480, Pitch_bend_c, 3, 8192
3, 20480, Pitch_bend_c, 3, 8192
3, 20640, Pitch_bend_c, 3, 8320
3, 20640, Pitch_bend_c, 3, 8320
3, 20800, Pitch_bend_c, 3, 8192
3, 20800, Pitch_bend_c, 3, 8192
3, 20960, Pitch_bend_c, 3, 8320
3, 20960, Pitch_bend_c, 3, 8320
3, 21120, Pitch_bend_c, 3, 8192
3, 21120, Pitch_bend_c, 3, 8320
3, 21120, Pitch_bend_c, 3, 8192
3, 21120, Note_off_c, 3, 57, 95
3, 21120, Pitch_bend_c, 3, 8192
3, 21120, Pitch_bend_c, 3, 8320
3, 21120, Pitch_bend_c, 3, 8192
3, 21120, Note_off_c, 3, 50, 95
3, 21120, Note_on_c, 2, 60, 95
3, 21120, Note_on_c, 2, 55, 95
3, 21120, Note_on_c, 2, 48, 95
3, 22080, Note_off_c, 2, 60, 95
3, 22080, Note_off_c, 2, 55, 95
3, 22080, Note_off_c, 2, 48, 95
3, 22080, Note_on_c, 2, 45, 95
3, 22560, Note_off_c, 2, 45, 95
3, 22560, Note_on_c, 2, 45, 95
3, 23520, Note_off_c, 2, 45, 95
3, 24000, Note_on_c, 2, 55, 95
3, 24720, Note_off_c, 2, 55, 95
3, 24720, Note_on_c, 2, 52, 95
3, 24960, Note_off_c, 2, 52, 95
3, 24960, Note_on_c, 2, 48, 95
3, 25440, Note_off_c, 2, 48, 95
3, 25440, Note_on_c, 2, 57, 95
3, 25440, Note_on_c, 2, 52, 95
3, 25920, Note_off_c, 2, 57, 95
3, 25920, Note_off_c, 2, 52, 95
3, 25920, Note_on_c, 2, 57, 95
3, 25920, Note_on_c, 2, 54, 95
3, 26400, Note_off_c, 2, 57, 95
3, 26400, Note_off_c, 2, 54, 95
3, 26400, Note_on_c, 2, 57, 95
3, 26400, Note_on_c, 2, 52, 95
3, 27360, Note_off_c, 2, 57, 95
3, 27360, Note_off_c, 2, 52, 95
3, 27720, Note_on_c, 3, 54, 95
3, 27840, Note_off_c, 3, 54, 95
3, 27840, Note_on_c, 3, 55, 95
3, 28320, Note_off_c, 3, 55, 95
3, 28320, Note_on_c, 2, 54, 70
3, 28560, Note_off_c, 2, 54, 70
3, 28560, Note_on_c, 2, 52, 70
3, 28800, Note_off_c, 2, 52, 70
3, 28800, Note_on_c, 2, 48, 95
3, 29280, Note_off_c, 2, 48, 95
3, 29280, Note_on_c, 2, 57, 95
3, 29280, Note_on_c, 2, 52, 95
3, 29760, Note_off_c, 2, 57, 95
3, 29760, Note_off_c, 2, 52, 95
3, 29760, Note_on_c, 2, 54, 95
3, 30240, Note_off_c, 2, 54, 95
3, 30240, Note_on_c, 2, 61, 95
3, 30240, Note_on_c, 2, 57, 95
3, 30240, Note_on_c, 2, 52, 95
3, 30720, Note_off_c, 2, 61, 95
3, 30720, Note_off_c, 2, 57, 95
3, 30720, Note_off_c, 2, 52, 95
3, 30720, Note_on_c, 2, 45, 95
3, 31200, Note_off_c, 2, 45, 95
3, 31200, Note_on_c, 2, 57, 95
3, 31200, Note_on_c, 2, 52, 95
3, 31680, Note_off_c, 2, 57, 95
3, 31680, Note_off_c, 2, 52, 95
3, 32160, Note_on_c, 2, 50, 95
3, 33120, Note_off_c, 2, 50, 95
3, 33120, Note_on_c, 3, 62, 95
3, 33120, Note_on_c, 3, 57, 95
3, 33120, Note_on_c, 3, 50, 95
3, 33280, Pitch_bend_c, 3, 8192
3, 33280, Pitch_bend_c, 3, 8192
3, 33280, Pitch_bend_c, 3, 8192
3, 33440, Pitch_bend_c, 3, 8320
3, 33440, Pitch_bend_c, 3, 8320
3, 33440, Pitch_bend_c, 3, 8320
3, 33600, Pitch_bend_c, 3, 8192
3, 33600, Pitch_bend_c, 3, 8192
3, 33600, Pitch_bend_c, 3, 8192
3, 33760, Pitch_bend_c, 3, 8320
3, 33760, Pitch_bend_c, 3, 8320
3, 33760, Pitch_bend_c, 3, 8320
3, 33920, Pitch_bend_c, 3, 8192
3, 33920, Pitch_bend_c, 3, 8192
3, 33920, Pitch_bend_c, 3, 8192
3, 34080, Pitch_bend_c, 3, 8320
3, 34080, Pitch_bend_c, 3, 8192
3, 34080, Note_off_c, 3, 62, 95
3, 34080, Pitch_bend_c, 3, 8320
3, 34080, Pitch_bend_c, 3, 8192
3, 34080, Note_off_c, 3, 57, 95
3, 34080, Pitch_bend_c, 3, 8320
3, 34080, Pitch_bend_c, 3, 8192
3, 34080, Note_off_c, 3, 50, 95
3, 34080, Note_on_c, 2, 50, 95
3, 35040, Note_off_c, 2, 50, 95
3, 35040, Note_on_c, 2, 50, 95
3, 35520, Note_off_c, 2, 50, 95
3, 36000, Note_on_c, 3, 50, 95
3, 36160, Pitch_bend_c, 3, 8192
3, 36320, Pitch_bend_c, 3, 8320
3, 36480, Pitch_bend_c, 3, 8192
3, 36640, Pitch_bend_c, 3, 8320
3, 36800, Pitch_bend_c, 3, 8192
3, 36960, Pitch_bend_c, 3, 8320
3, 37120, Pitch_bend_c, 3, 8192
3, 37280, Pitch_bend_c, 3, 8320
3, 37440, Pitch_bend_c, 3, 8192
3, 37440, Pitch_bend_c, 3, 8320
3, 37440, Pitch_bend_c, 3, 8192
3, 37440, Note_off_c, 3, 50, 95
3, 38400, Note_on_c, 2, 48, 95
3, 39360, Note_off_c, 2, 48, 95
3, 39360, Note_on_c, 2, 45, 95
3, 39840, Note_off_c, 2, 45, 95
3, 39840, Note_on_c, 2, 45, 95
3, 40320, Note_off_c, 2, 45, 95
3, 41280, Note_on_c, 2, 55, 95
3, 42000, Note_off_c, 2, 55, 95
3, 42000, Note_on_c, 2, 52, 95
3, 42240, Note_off_c, 2, 52, 95
3, 42240, Note_on_c, 2, 48, 95
3, 42720, Note_off_c, 2, 48, 95
3, 42720, Note_on_c, 2, 57, 95
3, 42720, Note_on_c, 2, 52, 95
3, 43200, Note_off_c, 2, 57, 95
3, 43200, Note_off_c, 2, 52, 95
3, 43200, Note_on_c, 2, 54, 95
3, 43680, Note_off_c, 2, 54, 95
3, 43680, Note_on_c, 2, 57, 95
3, 43680, Note_on_c, 2, 52, 95
3, 44160, Note_off_c, 2, 57, 95
3, 44160, Note_off_c, 2, 52, 95
3, 45000, Note_on_c, 3, 54, 95
3, 45120, Note_off_c, 3, 54, 95
3, 45120, Note_on_c, 3, 55, 95
3, 45600, Note_off_c, 3, 55, 95
3, 45600, Note_on_c, 2, 55, 47
3, 45760, Note_off_c, 2, 55, 47
3, 45760, Note_on_c, 2, 54, 70
3, 45920, Note_off_c, 2, 54, 70
3, 45920, Note_on_c, 2, 52, 70
3, 46080, Note_off_c, 2, 52, 70
3, 46080, Note_on_c, 2, 48, 95
3, 46560, Note_off_c, 2, 48, 95
3, 46560, Note_on_c, 2, 52, 95
3, 47040, Note_off_c, 2, 52, 95
3, 47040, Note_on_c, 2, 54, 95
3, 47520, Note_off_c, 2, 54, 95
3, 47520, Note_on_c, 2, 57, 95
3, 47520, Note_on_c, 2, 52, 70
3, 48000, Note_off_c, 2, 57, 95
3, 48000, Note_off_c, 2, 52, 70
3, 48000, Note_on_c, 2, 45, 95
3, 48960, Note_off_c, 2, 45, 95
3, 48960, Note_on_c, 2, 52, 95
3, 49200, Note_off_c, 2, 52, 95
3, 49200, Note_on_c, 2, 54, 70
3, 49440, Note_off_c, 2, 54, 70
3, 49440, Note_on_c, 3, 58, 95
3, 49440, Note_on_c, 3, 51, 95
3, 49560, Pitch_bend_c, 3, 8320
3, 49560, Pitch_bend_c, 3, 8320
3, 49680, Pitch_bend_c, 3, 8448
3, 49680, Pitch_bend_c, 3, 8448
3, 49800, Pitch_bend_c, 3, 8704
3, 49800, Pitch_bend_c, 3, 8704
3, 49920, Pitch_bend_c, 3, 8832
3, 49920, Pitch_bend_c, 3, 8192
3, 49920, Note_off_c, 3, 58, 95
3, 49920, Pitch_bend_c, 3, 8832
3, 49920, Pitch_bend_c, 3, 8192
3, 49920, Note_off_c, 3, 51, 95
3, 49920, Note_on_c, 3, 59, 95
3, 49920, Note_on_c, 3, 52, 95
3, 50080, Pitch_bend_c, 3, 8192
3, 50080, Pitch_bend_c, 3, 8192
3, 50240, Pitch_bend_c, 3, 8320
3, 50240, Pitch_bend_c, 3, 8320
3, 50400, Pitch_bend_c, 3, 8192
3, 50400, Pitch_bend_c, 3, 8192
3, 50560, Pitch_bend_c, 3, 8320
3, 50560, Pitch_bend_c, 3, 8320
3, 50720, Pitch_bend_c, 3, 8192
3, 50720, Pitch_bend_c, 3, 8192
3, 50880, Pitch_bend_c, 3, 8320
3, 50880, Pitch_bend_c, 3, 8320
3, 51040, Pitch_bend_c, 3, 8192
3, 51040, Pitch_bend_c, 3, 8192
3, 51200, Pitch_bend_c, 3, 8320
3, 51200, Pitch_bend_c, 3, 8320
3, 51360, Pitch_bend_c, 3, 8192
3, 51360, Pitch_bend_c, 3, 8192
3, 51520, Pitch_bend_c, 3, 8320
3, 51520, Pitch_bend_c, 3, 8320
3, 51680, Pitch_bend_c, 3, 8192
3, 51680, Pitch_bend_c, 3, 8192
3, 51840, Pitch_bend_c, 3, 8320
3, 51840, Pitch_bend_c, 3, 8320
3, 52000, Pitch_bend_c, 3, 8192
3, 52000, Pitch_bend_c, 3, 8192
3, 52160, Pitch_bend_c, 3, 8320
3, 52160, Pitch_bend_c, 3, 8320
3, 52320, Pitch_bend_c, 3, 8192
3, 52320, Pitch_bend_c, 3, 8192
3, 52480, Pitch_bend_c, 3, 8320
3, 52480, Pitch_bend_c, 3, 8320
3, 52640, Pitch_bend_c, 3, 8192
3, 52640, Pitch_bend_c, 3, 8192
3, 52800, Pitch_bend_c, 3, 8320
3, 52800, Pitch_bend_c, 3, 8192
3, 52800, Note_off_c, 3, 59, 95
3, 52800, Pitch_bend_c, 3, 8320
3, 52800, Pitch_bend_c, 3, 8192
3, 52800, Note_off_c, 3, 52, 95
3, 52800, Note_on_c, 2, 52, 95
3, 52800, Note_on_c, 2, 45, 95
3, 52845, Note_off_c, 2, 52, 95
3, 52845, Note_off_c, 2, 45, 95
3, 53760, Note_on_c, 3, 50, 95
3, 53920, Pitch_bend_c, 3, 8192
3, 54080, Pitch_bend_c, 3, 8320
3, 54240, Pitch_bend_c, 3, 8192
3, 54400, Pitch_bend_c, 3, 8320
3, 54560, Pitch_bend_c, 3, 8192
3, 54720, Pitch_bend_c, 3, 8320
3, 54720, Pitch_bend_c, 3, 8192
3, 54720, Note_off_c, 3, 50, 95
3, 54720, Note_on_c, 2, 48, 95
3, 55680, Note_off_c, 2, 48, 95
3, 55680, Note_on_c, 2, 55, 95
3, 56520, Note_on_c, 3, 55, 95
3, 56640, Note_off_c, 2, 55, 95
3, 56640, Note_off_c, 3, 55, 95
3, 56640, Note_on_c, 3, 57, 95
3, 56800, Pitch_bend_c, 3, 8192
3, 56960, Pitch_bend_c, 3, 8320
3, 57120, Pitch_bend_c, 3, 8192
3, 57280, Pitch_bend_c, 3, 8320
3, 57440, Pitch_bend_c, 3, 8192
3, 57600, Pitch_bend_c, 3, 8320
3, 57600, Pitch_bend_c, 3, 8192
3, 57600, Note_off_c, 3, 57, 95
3, 57600, Note_on_c, 2, 57, 47
3, 58560, Note_off_c, 2, 57, 47
3, 58560, Note_on_c, 2, 55, 95
3, 59280, Note_off_c, 2, 55, 95
3, 59280, Note_on_c, 2, 52, 95
3, 59520, Note_off_c, 2, 52, 95
3, 59520, Note_on_c, 2, 48, 95
3, 60000, Note_off_c, 2, 48, 95
3, 60000, Note_on_c, 2, 57, 95
3, 60000, Note_on_c, 2, 52, 95
3, 60480, Note_off_c, 2, 57, 95
3, 60480, Note_off_c, 2, 52, 95
3, 60480, Note_on_c, 2, 54, 95
3, 60960, Note_off_c, 2, 54, 95
3, 60960, Note_on_c, 2, 57, 95
3, 60960, Note_on_c, 2, 52, 95
3, 61440, Note_off_c, 2, 57, 95
3, 61440, Note_off_c, 2, 52, 95
3, 62400, Note_on_c, 2, 55, 95
3, 63120, Note_off_c, 2, 55, 95
3, 63120, Note_on_c, 2, 52, 95
3, 63360, Note_off_c, 2, 52, 95
3, 63360, Note_on_c, 2, 48, 95
3, 63840, Note_off_c, 2, 48, 95
3, 63840, Note_on_c, 2, 57, 95
3, 63840, Note_on_c, 2, 52, 95
3, 64320, Note_off_c, 2, 57, 95
3, 64320, Note_off_c, 2, 52, 95
3, 64320, Note_on_c, 2, 54, 95
3, 64800, Note_off_c, 2, 54, 95
3, 64800, Note_on_c, 2, 57, 95
3, 64800, Note_on_c, 2, 52, 95
3, 65280, Note_off_c, 2, 57, 95
3, 65280, Note_off_c, 2, 52, 95
3, 65280, Note_on_c, 2, 45, 95
3, 65760, Note_off_c, 2, 45, 95
3, 65760, Note_on_c, 2, 57, 95
3, 65760, Note_on_c, 2, 52, 95
3, 66240, Note_off_c, 2, 57, 95
3, 66240, Note_off_c, 2, 52, 95
3, 66720, Note_on_c, 2, 62, 95
3, 66720, Note_on_c, 2, 57, 95
3, 66720, Note_on_c, 2, 50, 95
3, 67200, Note_off_c, 2, 62, 95
3, 67200, Note_off_c, 2, 57, 95
3, 67200, Note_off_c, 2, 50, 95
3, 67200, Note_on_c, 3, 62, 95
3, 67200, Note_on_c, 3, 57, 95
3, 67200, Note_on_c, 3, 50, 95
3, 67360, Pitch_bend_c, 3, 8192
3, 67360, Pitch_bend_c, 3, 8192
3, 67360, Pitch_bend_c, 3, 8192
3, 67520, Pitch_bend_c, 3, 8320
3, 67520, Pitch_bend_c, 3, 8320
3, 67520, Pitch_bend_c, 3, 8320
3, 67680, Pitch_bend_c, 3, 8192
3, 67680, Pitch_bend_c, 3, 8192
3, 67680, Pitch_bend_c, 3, 8192
3, 67840, Pitch_bend_c, 3, 8320
3, 67840, Pitch_bend_c, 3, 8320
3, 67840, Pitch_bend_c, 3, 8320
3, 68000, Pitch_bend_c, 3, 8192
3, 68000, Pitch_bend_c, 3, 8192
3, 68000, Pitch_bend_c, 3, 8192
3, 68160, Pitch_bend_c, 3, 8320
3, 68160, Pitch_bend_c, 3, 8320
3, 68160, Pitch_bend_c, 3, 8320
3, 68320, Pitch_bend_c, 3, 8192
3, 68320, Pitch_bend_c, 3, 8192
3, 68320, Pitch_bend_c, 3, 8192
3, 68480, Pitch_bend_c, 3, 8320
3, 68480, Pitch_bend_c, 3, 8320
3, 68480, Pitch_bend_c, 3, 8320
3, 68640, Pitch_bend_c, 3, 8192
3, 68640, Pitch_bend_c, 3, 8192
3, 68640, Pitch_bend_c, 3, 8192
3, 68800, Pitch_bend_c, 3, 8320
3, 68800, Pitch_bend_c, 3, 8320
3, 68800, Pitch_bend_c, 3, 8320
3, 68960, Pitch_bend_c, 3, 8192
3, 68960, Pitch_bend_c, 3, 8192
3, 68960, Pitch_bend_c, 3, 8192
3, 69120, Pitch_bend_c, 3, 8320
3, 69120, Pitch_bend_c, 3, 8192
3, 69120, Note_off_c, 3, 62, 95
3, 69120, Pitch_bend_c, 3, 8320
3, 69120, Pitch_bend_c, 3, 8192
3, 69120, Note_off_c, 3, 57, 95
3, 69120, Pitch_bend_c, 3, 8320
3, 69120, Pitch_bend_c, 3, 8192
3, 69120, Note_off_c, 3, 50, 95
3, 69120, Note_on_c, 2, 52, 95
3, 69120, Note_on_c, 2, 45, 95
3, 69165, Note_off_c, 2, 52, 95
3, 69165, Note_off_c, 2, 45, 95
3, 70080, Note_on_c, 2, 52, 95
3, 70080, Note_on_c, 2, 45, 95
3, 70125, Note_off_c, 2, 52, 95
3, 70125, Note_off_c, 2, 45, 95
3, 70560, Note_on_c, 3, 57, 95
3, 70560, Note_on_c, 3, 50, 95
3, 70720, Pitch_bend_c, 3, 8192
3, 70720, Pitch_bend_c, 3, 8192
3, 70880, Pitch_bend_c, 3, 8320
3, 70880, Pitch_bend_c, 3, 8320
3, 71040, Pitch_bend_c, 3, 8192
3, 71040, Pitch_bend_c, 3, 8192
3, 71200, Pitch_bend_c, 3, 8320
3, 71200, Pitch_bend_c, 3, 8320
3, 71360, Pitch_bend_c, 3, 8192
3, 71360, Pitch_bend_c, 3, 8192
3, 71520, Pitch_bend_c, 3, 8320
3, 71520, Pitch_bend_c, 3, 8320
3, 71680, Pitch_bend_c, 3, 8192
3, 71680, Pitch_bend_c, 3, 8192
3, 71840, Pitch_bend_c, 3, 8320
3, 71840, Pitch_bend_c, 3, 8320
3, 72000, Pitch_bend_c, 3, 8192
3, 72000, Pitch_bend_c, 3, 8192
3, 72160, Pitch_bend_c, 3, 8320
3, 72160, Pitch_bend_c, 3, 8320
3, 72320, Pitch_bend_c, 3, 8192
3, 72320, Pitch_bend_c, 3, 8192
3, 72480, Pitch_bend_c, 3, 8320
3, 72480, Pitch_bend_c, 3, 8320
3, 72640, Pitch_bend_c, 3, 8192
3, 72640, Pitch_bend_c, 3, 8192
3, 72800, Pitch_bend_c, 3, 8320
3, 72800, Pitch_bend_c, 3, 8320
3, 72960, Pitch_bend_c, 3, 8192
3, 72960, Pitch_bend_c, 3, 8320
3, 72960, Pitch_bend_c, 3, 8192
3, 72960, Note_off_c, 3, 57, 95
3, 72960, Pitch_bend_c, 3, 8192
3, 72960, Pitch_bend_c, 3, 8320
3, 72960, Pitch_bend_c, 3, 8192
3, 72960, Note_off_c, 3, 50, 95
3, 72960, Note_on_c, 2, 60, 95
3, 72960, Note_on_c, 2, 55, 95
3, 72960, Note_on_c, 2, 48, 95
3, 73920, Note_off_c, 2, 60, 95
3, 73920, Note_off_c, 2, 55, 95
3, 73920, Note_off_c, 2, 48, 95
3, 73920, Note_on_c, 2, 45, 95
3, 74400, Note_off_c, 2, 45, 95
3, 74400, Note_on_c, 2, 45, 95
3, 75360, Note_off_c, 2, 45, 95
3, 75840, Note_on_c, 2, 55, 95
3, 76560, Note_off_c, 2, 55, 95
3, 76560, Note_on_c, 2, 52, 95
3, 76800, Note_off_c, 2, 52, 95
3, 76800, Note_on_c, 2, 48, 95
3, 77280, Note_off_c, 2, 48, 95
3, 77280, Note_on_c, 2, 57, 95
3, 77280, Note_on_c, 2, 52, 95
3, 77760, Note_off_c, 2, 57, 95
3, 77760, Note_off_c, 2, 52, 95
3, 77760, Note_on_c, 2, 57, 95
3, 77760, Note_on_c, 2, 54, 95
3, 78240, Note_off_c, 2, 57, 95
3, 78240, Note_off_c, 2, 54, 95
3, 78240, Note_on_c, 2, 57, 95
3, 78240, Note_on_c, 2, 52, 95
3, 79200, Note_off_c, 2, 57, 95
3, 79200, Note_off_c, 2, 52, 95
3, 79560, Note_on_c, 3, 54, 95
3, 79680, Note_off_c, 3, 54, 95
3, 79680, Note_on_c, 3, 55, 95
3, 80160, Note_off_c, 3, 55, 95
3, 80160, Note_on_c, 2, 54, 70
3, 80400, Note_off_c, 2, 54, 70
3, 80400, Note_on_c, 2, 52, 70
3, 80640, Note_off_c, 2, 52, 70
3, 80640, Note_on_c, 2, 48, 95
3, 81120, Note_off_c, 2, 48, 95
3, 81120, Note_on_c, 2, 57, 95
3, 81120, Note_on_c, 2, 52, 95
3, 81600, Note_off_c, 2, 57, 95
3, 81600, Note_off_c, 2, 52, 95
3, 81600, Note_on_c, 2, 54, 95
3, 82080, Note_off_c, 2, 54, 95
3, 82080, Note_on_c, 2, 61, 95
3, 82080, Note_on_c, 2, 57, 95
3, 82080, Note_on_c, 2, 52, 95
3, 82560, Note_off_c, 2, 61, 95
3, 82560, Note_off_c, 2, 57, 95
3, 82560, Note_off_c, 2, 52, 95
3, 82560, Note_on_c, 2, 45, 95
3, 83040, Note_off_c, 2, 45, 95
3, 83040, Note_on_c, 2, 57, 95
3, 83040, Note_on_c, 2, 52, 95
3, 83520, Note_off_c, 2, 57, 95
3, 83520, Note_off_c, 2, 52, 95
3, 84000, Note_on_c, 2, 50, 95
3, 84960, Note_off_c, 2, 50, 95
3, 84960, Note_on_c, 3, 62, 95
3, 84960, Note_on_c, 3, 57, 95
3, 84960, Note_on_c, 3, 50, 95
3, 85120, Pitch_bend_c, 3, 8192
3, 85120, Pitch_bend_c, 3, 8192
3, 85120, Pitch_bend_c, 3, 8192
3, 85280, Pitch_bend_c, 3, 8320
3, 85280, Pitch_bend_c, 3, 8320
3, 85280, Pitch_bend_c, 3, 8320
3, 85440, Pitch_bend_c, 3, 8192
3, 85440, Pitch_bend_c, 3, 8192
3, 85440, Pitch_bend_c, 3, 8192
3, 85600, Pitch_bend_c, 3, 8320
3, 85600, Pitch_bend_c, 3, 8320
3, 85600, Pitch_bend_c, 3, 8320
3, 85760, Pitch_bend_c, 3, 8192
3, 85760, Pitch_bend_c, 3, 8192
3, 85760, Pitch_bend_c, 3, 8192
3, 85920, Pitch_bend_c, 3, 8320
3, 85920, Pitch_bend_c, 3, 8192
3, 85920, Note_off_c, 3, 62, 95
3, 85920, Pitch_bend_c, 3, 8320
3, 85920, Pitch_bend_c, 3, 8192
3, 85920, Note_off_c, 3, 57, 95
3, 85920, Pitch_bend_c, 3, 8320
3, 85920, Pitch_bend_c, 3, 8192
3, 85920, Note_off_c, 3, 50, 95
3, 85920, Note_on_c, 2, 50, 95
3, 86880, Note_off_c, 2, 50, 95
3, 86880, Note_on_c, 2, 50, 95
3, 87360, Note_off_c, 2, 50, 95
3, 87840, Note_on_c, 3, 50, 95
3, 88000, Pitch_bend_c, 3, 8192
3, 88160, Pitch_bend_c, 3, 8320
3, 88320, Pitch_bend_c, 3, 8192
3, 88480, Pitch_bend_c, 3, 8320
3, 88640, Pitch_bend_c, 3, 8192
3, 88800, Pitch_bend_c, 3, 8320
3, 88960, Pitch_bend_c, 3, 8192
3, 89120, Pitch_bend_c, 3, 8320
3, 89280, Pitch_bend_c, 3, 8192
3, 89280, Pitch_bend_c, 3, 8320
3, 89280, Pitch_bend_c, 3, 8192
3, 89280, Note_off_c, 3, 50, 95
3, 90240, Note_on_c, 2, 48, 95
3, 91200, Note_off_c, 2, 48, 95
3, 91200, Note_on_c, 2, 45, 95
3, 91680, Note_off_c, 2, 45, 95
3, 91680, Note_on_c, 2, 45, 95
3, 92160, Note_off_c, 2, 45, 95
3, 93120, Note_on_c, 2, 55, 95
3, 93840, Note_off_c, 2, 55, 95
3, 93840, Note_on_c, 2, 52, 95
3, 94080, Note_off_c, 2, 52, 95
3, 94080, Note_on_c, 2, 48, 95
3, 94560, Note_off_c, 2, 48, 95
3, 94560, Note_on_c, 2, 57, 95
3, 94560, Note_on_c, 2, 52, 95
3, 95040, Note_off_c, 2, 57, 95
3, 95040, Note_off_c, 2, 52, 95
3, 95040, Note_on_c, 2, 54, 95
3, 95520, Note_off_c, 2, 54, 95
3, 95520, Note_on_c, 2, 57, 95
3, 95520, Note_on_c, 2, 52, 95
3, 96000, Note_off_c, 2, 57, 95
3, 96000, Note_off_c, 2, 52, 95
3, 96840, Note_on_c, 3, 54, 95
3, 96960, Note_off_c, 3, 54, 95
3, 96960, Note_on_c, 3, 55, 95
3, 97440, Note_off_c, 3, 55, 95
3, 97440, Note_on_c, 2, 55, 47
3, 97600, Note_off_c, 2, 55, 47
3, 97600, Note_on_c, 2, 54, 70
3, 97760, Note_off_c, 2, 54, 70
3, 97760, Note_on_c, 2, 52, 70
3, 97920, Note_off_c, 2, 52, 70
3, 97920, Note_on_c, 2, 48, 95
3, 98400, Note_off_c, 2, 48, 95
3, 98400, Note_on_c, 2, 52, 95
3, 98880, Note_off_c, 2, 52, 95
3, 98880, Note_on_c, 2, 54, 95
3, 99360, Note_off_c, 2, 54, 95
3, 99360, Note_on_c, 2, 57, 95
3, 99360, Note_on_c, 2, 52, 70
3, 99840, Note_off_c, 2, 57, 95
3, 99840, Note_off_c, 2, 52, 70
3, 99840, Note_on_c, 2, 45, 95
3, 100800, Note_off_c, 2, 45, 95
3, 100800, Note_on_c, 2, 52, 95
3, 101040, Note_off_c, 2, 52, 95
3, 101040, Note_on_c, 2, 54, 70
3, 101280, Note_off_c, 2, 54, 70
3, 101280, Note_on_c, 3, 58, 95
3, 101280, Note_on_c, 3, 51, 95
3, 101400, Pitch_bend_c, 3, 8320
3, 101400, Pitch_bend_c, 3, 8320
3, 101520, Pitch_bend_c, 3, 8448
3, 101520, Pitch_bend_c, 3, 8448
3, 101640, Pitch_bend_c, 3, 8704
3, 101640, Pitch_bend_c, 3, 8704
3, 101760, Pitch_bend_c, 3, 8832
3, 101760, Pitch_bend_c, 3, 8192
3, 101760, Note_off_c, 3, 58, 95
3, 101760, Pitch_bend_c, 3, 8832
3, 101760, Pitch_bend_c, 3, 8192
3, 101760, Note_off_c, 3, 51, 95
3, 101760, Note_on_c, 3, 59, 95
3, 101760, Note_on_c, 3, 52, 95
3, 101920, Pitch_bend_c, 3, 8192
3, 101920, Pitch_bend_c, 3, 8192
3, 102080, Pitch_bend_c, 3, 8320
3, 102080, Pitch_bend_c, 3, 8320
3, 102240, Pitch_bend_c, 3, 8192
3, 102240, Pitch_bend_c, 3, 8192
3, 102400, Pitch_bend_c, 3, 8320
3, 102400, Pitch_bend_c, 3, 8320
3, 102560, Pitch_bend_c, 3, 8192
3, 102560, Pitch_bend_c, 3, 8192
3, 102720, Pitch_bend_c, 3, 8320
3, 102720, Pitch_bend_c, 3, 8320
3, 102880, Pitch_bend_c, 3, 8192
3, 102880, Pitch_bend_c, 3, 8192
3, 103040, Pitch_bend_c, 3, 8320
3, 103040, Pitch_bend_c, 3, 8320
3, 103200, Pitch_bend_c, 3, 8192
3, 103200, Pitch_bend_c, 3, 8192
3, 103360, Pitch_bend_c, 3, 8320
3, 103360, Pitch_bend_c, 3, 8320
3, 103520, Pitch_bend_c, 3, 8192
3, 103520, Pitch_bend_c, 3, 8192
3, 103680, Pitch_bend_c, 3, 8320
3, 103680, Pitch_bend_c, 3, 8320
3, 103840, Pitch_bend_c, 3, 8192
3, 103840, Pitch_bend_c, 3, 8192
3, 104000, Pitch_bend_c, 3, 8320
3, 104000, Pitch_bend_c, 3, 8320
3, 104160, Pitch_bend_c, 3, 8192
3, 104160, Pitch_bend_c, 3, 8192
3, 104320, Pitch_bend_c, 3, 8320
3, 104320, Pitch_bend_c, 3, 8320
3, 104480, Pitch_bend_c, 3, 8192
3, 104480, Pitch_bend_c, 3, 8192
3, 104640, Pitch_bend_c, 3, 8320
3, 104640, Pitch_bend_c, 3, 8192
3, 104640, Note_off_c, 3, 59, 95
3, 104640, Pitch_bend_c, 3, 8320
3, 104640, Pitch_bend_c, 3, 8192
3, 104640, Note_off_c, 3, 52, 95
3, 104640, Note_on_c, 2, 52, 95
3, 104640, Note_on_c, 2, 45, 95
3, 104685, Note_off_c, 2, 52, 95
3, 104685, Note_off_c, 2, 45, 95
3, 105600, Note_on_c, 3, 50, 95
3, 105760, Pitch_bend_c, 3, 8192
3, 105920, Pitch_bend_c, 3, 8320
3, 106080, Pitch_bend_c, 3, 8192
3, 106240, Pitch_bend_c, 3, 8320
3, 106400, Pitch_bend_c, 3, 8192
3, 106560, Pitch_bend_c, 3, 8320
3, 106560, Pitch_bend_c, 3, 8192
3, 106560, Note_off_c, 3, 50, 95
3, 106560, Note_on_c, 2, 48, 95
3, 107520, Note_off_c, 2, 48, 95
3, 107520, Note_on_c, 2, 55, 95
3, 108360, Note_on_c, 3, 55, 95
3, 108480, Note_off_c, 2, 55, 95
3, 108480, Note_off_c, 3, 55, 95
3, 108480, Note_on_c, 3, 57, 95
3, 108640, Pitch_bend_c, 3, 8192
3, 108800, Pitch_bend_c, 3, 8320
3, 108960, Pitch_bend_c, 3, 8192
3, 109120, Pitch_bend_c, 3, 8320
3, 109280, Pitch_bend_c, 3, 8192
3, 109440, Pitch_bend_c, 3, 8320
3, 109440, Pitch_bend_c, 3, 8192
3, 109440, Note_off_c, 3, 57, 95
3, 110400, Note_on_c, 2, 55, 95
3, 111120, Note_off_c, 2, 55, 95
3, 111120, Note_on_c, 2, 52, 95
3, 111360, Note_off_c, 2, 52, 95
3, 111360, Note_on_c, 2, 48, 95
3, 111840, Note_off_c, 2, 48, 95
3, 111840, Note_on_c, 2, 57, 95
3, 111840, Note_on_c, 2, 52, 95
3, 112320, Note_off_c, 2, 57, 95
3, 112320, Note_off_c, 2, 52, 95
3, 112320, Note_on_c, 2, 54, 95
3, 112800, Note_off_c, 2, 54, 95
3, 112800, Note_on_c, 2, 57, 95
3, 112800, Note_on_c, 2, 52, 95
3, 113760, Note_off_c, 2, 57, 95
3, 113760, Note_off_c, 2, 52, 95
3, 114240, Note_on_c, 2, 55, 95
3, 114960, Note_off_c, 2, 55, 95
3, 114960, Note_on_c, 2, 52, 95
3, 115200, Note_off_c, 2, 52, 95
3, 115200, Note_on_c, 2, 48, 95
3, 115680, Note_off_c, 2, 48, 95
3, 115680, Note_on_c, 2, 57, 95
3, 115680, Note_on_c, 2, 52, 95
3, 116160, Note_off_c, 2, 57, 95
3, 116160, Note_off_c, 2, 52, 95
3, 116160, Note_on_c, 2, 54, 95
3, 116640, Note_off_c, 2, 54, 95
3, 116640, Note_on_c, 2, 57, 95
3, 116640, Note_on_c, 2, 52, 95
3, 117120, Note_off_c, 2, 57, 95
3, 117120, Note_off_c, 2, 52, 95
3, 117120, Note_on_c, 2, 45, 95
3, 117600, Note_off_c, 2, 45, 95
3, 117600, Note_on_c, 2, 64, 95
3, 117600, Note_on_c, 2, 61, 95
3, 118080, Note_off_c, 2, 64, 95
3, 118080, Note_off_c, 2, 61, 95
3, 118080, Note_on_c, 2, 64, 95
3, 118080, Note_on_c, 2, 61, 95
3, 118560, Note_off_c, 2, 64, 95
3, 118560, Note_off_c, 2, 61, 95
3, 118560, Note_on_c, 2, 64, 95
3, 118560, Note_on_c, 2, 61, 95
3, 119040, Note_off_c, 2, 64, 95
3, 119040, Note_off_c, 2, 61, 95
3, 119040, Note_on_c, 2, 69, 95
3, 119040, Note_on_c, 2, 66, 95
3, 119520, Note_off_c, 2, 69, 95
3, 119520, Note_off_c, 2, 66, 95
3, 119520, Note_on_c, 3, 69, 95
3, 119680, Pitch_bend_c, 3, 8192
3, 119840, Pitch_bend_c, 3, 8320
3, 120000, Pitch_bend_c, 3, 8192
3, 120160, Pitch_bend_c, 3, 8320
3, 120320, Pitch_bend_c, 3, 8192
3, 120480, Pitch_bend_c, 3, 8320
3, 120480, Pitch_bend_c, 3, 8192
3, 120480, Note_off_c, 3, 69, 95
3, 120480, Note_on_c, 3, 69, 95
3, 120480, Note_on_c, 3, 66, 95
3, 120640, Pitch_bend_c, 3, 8192
3, 120640, Pitch_bend_c, 3, 8192
3, 120800, Pitch_bend_c, 3, 8320
3, 120800, Pitch_bend_c, 3, 8320
3, 120960, Pitch_bend_c, 3, 8192
3, 120960, Pitch_bend_c, 3, 8192
3, 121120, Pitch_bend_c, 3, 8320
3, 121120, Pitch_bend_c, 3, 8320
3, 121280, Pitch_bend_c, 3, 8192
3, 121280, Pitch_bend_c, 3, 8192
3, 121440, Pitch_bend_c, 3, 8320
3, 121440, Pitch_bend_c, 3, 8192
3, 121440, Note_off_c, 3, 69, 95
3, 121440, Pitch_bend_c, 3, 8320
3, 121440, Pitch_bend_c, 3, 8192
3, 121440, Note_off_c, 3, 66, 95
3, 121440, Note_on_c, 3, 69, 95
3, 121440, Note_on_c, 3, 66, 95
3, 121600, Pitch_bend_c, 3, 8192
3, 121600, Pitch_bend_c, 3, 8192
3, 121760, Pitch_bend_c, 3, 8320
3, 121760, Pitch_bend_c, 3, 8320
3, 121920, Pitch_bend_c, 3, 8192
3, 121920, Pitch_bend_c, 3, 8320
3, 121920, Pitch_bend_c, 3, 8192
3, 121920, Note_off_c, 3, 69, 95
3, 121920, Pitch_bend_c, 3, 8192
3, 121920, Pitch_bend_c, 3, 8320
3, 121920, Pitch_bend_c, 3, 8192
3, 121920, Note_off_c, 3, 66, 95
3, 121920, Note_on_c, 3, 69, 47
3, 121920, Note_on_c, 3, 66, 47
3, 122040, Pitch_bend_c, 3, 7424
3, 122040, Pitch_bend_c, 3, 7424
3, 122160, Pitch_bend_c, 3, 6528
3, 122160, Pitch_bend_c, 3, 6528
3, 122280, Pitch_bend_c, 3, 5632
3, 122280, Pitch_bend_c, 3, 5632
3, 122400, Pitch_bend_c, 3, 4736
3, 122400, Pitch_bend_c, 3, 8192
3, 122400, Note_off_c, 3, 69, 47
3, 122400, Pitch_bend_c, 3, 4736
3, 122400, Pitch_bend_c, 3, 8192
3, 122400, Note_off_c, 3, 66, 47
3, 122400, Note_on_c, 2, 64, 95
3, 122400, Note_on_c, 2, 61, 95
3, 122880, Note_off_c, 2, 64, 95
3, 122880, Note_off_c, 2, 61, 95
3, 122880, Note_on_c, 2, 69, 95
3, 122880, Note_on_c, 2, 66, 95
3, 123360, Note_off_c, 2, 69, 95
3, 123360, Note_off_c, 2, 66, 95
3, 123360, Note_on_c, 3, 69, 95
3, 123360, Note_on_c, 3, 66, 95
3, 123520, Pitch_bend_c, 3, 8192
3, 123520, Pitch_bend_c, 3, 8192
3, 123680, Pitch_bend_c, 3, 8320
3, 123680, Pitch_bend_c, 3, 8320
3, 123840, Pitch_bend_c, 3, 8192
3, 123840, Pitch_bend_c, 3, 8192
3, 124000, Pitch_bend_c, 3, 8320
3, 124000, Pitch_bend_c, 3, 8320
3, 124160, Pitch_bend_c, 3, 8192
3, 124160, Pitch_bend_c, 3, 8192
3, 124320, Pitch_bend_c, 3, 8320
3, 124320, Pitch_bend_c, 3, 8192
3, 124320, Note_off_c, 3, 69, 95
3, 124320, Pitch_bend_c, 3, 8320
3, 124320, Pitch_bend_c, 3, 8192
3, 124320, Note_off_c, 3, 66, 95
3, 124320, Note_on_c, 2, 64, 95
3, 124320, Note_on_c, 2, 61, 95
3, 125280, Note_off_c, 2, 64, 95
3, 125280, Note_off_c, 2, 61, 95
3, 125280, Note_on_c, 3, 67, 95
3, 125280, Note_on_c, 2, 64, 95
3, 125440, Pitch_bend_c, 3, 8192
3, 125600, Pitch_bend_c, 3, 8320
3, 125760, Pitch_bend_c, 3, 8192
3, 125760, Pitch_bend_c, 3, 8320
3, 125760, Pitch_bend_c, 3, 8192
3, 125760, Note_off_c, 3, 67, 95
3, 125760, Note_off_c, 2, 64, 95
3, 125760, Note_on_c, 2, 61, 70
3, 126240, Note_off_c, 2, 61, 70
3, 126240, Note_on_c, 2, 64, 95
3, 126720, Note_off_c, 2, 64, 95
3, 126720, Note_on_c, 3, 64, 47
3, 126840, Pitch_bend_c, 3, 7936
3, 126960, Pitch_bend_c, 3, 7552
3, 126960, Pitch_bend_c, 3, 8192
3, 126960, Note_off_c, 3, 64, 47
3, 126960, Note_on_c, 2, 63, 95
3, 127200, Note_off_c, 2, 63, 95
3, 127200, Note_on_c, 2, 61, 70
3, 127680, Note_off_c, 2, 61, 70
3, 127680, Note_on_c, 2, 55, 95
3, 127680, Note_on_c, 2, 48, 95
3, 128400, Note_off_c, 2, 55, 95
3, 128400, Note_off_c, 2, 48, 95
3, 128400, Note_on_c, 2, 52, 95
3, 128640, Note_off_c, 2, 52, 95
3, 128640, Note_on_c, 2, 48, 95
3, 129120, Note_off_c, 2, 48, 95
3, 129120, Note_on_c, 2, 52, 95
3, 129120, Note_on_c, 2, 45, 95
3, 129600, Note_off_c, 2, 52, 95
3, 129600, Note_off_c, 2, 45, 95
3, 129600, Note_on_c, 2, 61, 95
3, 129600, Note_on_c, 2, 57, 95
3, 129600, Note_on_c, 2, 54, 95
3, 130080, Note_off_c, 2, 61, 95
3, 130080, Note_off_c, 2, 57, 95
3, 130080, Note_off_c, 2, 54, 95
3, 130080, Note_on_c, 2, 57, 95
3, 130080, Note_on_c, 2, 52, 95
3, 130560, Note_off_c, 2, 57, 95
3, 130560, Note_off_c, 2, 52, 95
3, 131040, Note_on_c, 2, 61, 95
3, 131520, Note_off_c, 2, 61, 95
3, 131520, Note_on_c, 2, 48, 95
3, 132000, Note_off_c, 2, 48, 95
3, 132000, Note_on_c, 2, 45, 95
3, 132240, Note_off_c, 2, 45, 95
3, 132240, Note_on_c, 2, 52, 95
3, 132480, Note_off_c, 2, 52, 95
3, 132480, Note_on_c, 2, 48, 95
3, 132960, Note_off_c, 2, 48, 95
3, 132960, Note_on_c, 2, 52, 95
3, 132960, Note_on_c, 2, 45, 95
3, 133440, Note_off_c, 2, 52, 95
3, 133440, Note_off_c, 2, 45, 95
3, 133440, Note_on_c, 2, 54, 95
3, 133920, Note_off_c, 2, 54, 95
3, 133920, Note_on_c, 2, 57, 95
3, 133920, Note_on_c, 2, 52, 95
3, 134400, Note_off_c, 2, 57, 95
3, 134400, Note_off_c, 2, 52, 95
3, 134880, Note_on_c, 2, 64, 95
3, 134880, Note_on_c, 2, 61, 95
3, 135360, Note_off_c, 2, 64, 95
3, 135360, Note_off_c, 2, 61, 95
3, 135360, Note_on_c, 2, 64, 95
3, 135360, Note_on_c, 2, 61, 95
3, 135840, Note_off_c, 2, 64, 95
3, 135840, Note_off_c, 2, 61, 95
3, 135840, Note_on_c, 2, 64, 95
3, 135840, Note_on_c, 2, 61, 95
3, 136320, Note_off_c, 2, 64, 95
3, 136320, Note_off_c, 2, 61, 95
3, 136320, Note_on_c, 3, 69, 95
3, 136320, Note_on_c, 3, 66, 95
3, 136480, Pitch_bend_c, 3, 8192
3, 136480, Pitch_bend_c, 3, 8192
3, 136640, Pitch_bend_c, 3, 8320
3, 136640, Pitch_bend_c, 3, 8320
3, 136800, Pitch_bend_c, 3, 8192
3, 136800, Pitch_bend_c, 3, 8320
3, 136800, Pitch_bend_c, 3, 8192
3, 136800, Note_off_c, 3, 69, 95
3, 136800, Pitch_bend_c, 3, 8192
3, 136800, Pitch_bend_c, 3, 8320
3, 136800, Pitch_bend_c, 3, 8192
3, 136800, Note_off_c, 3, 66, 95
3, 136800, Note_on_c, 3, 69, 95
3, 136800, Note_on_c, 3, 66, 95
3, 136960, Pitch_bend_c, 3, 8192
3, 136960, Pitch_bend_c, 3, 8192
3, 137120, Pitch_bend_c, 3, 8320
3, 137120, Pitch_bend_c, 3, 8320
3, 137280, Pitch_bend_c, 3, 8192
3, 137280, Pitch_bend_c, 3, 8192
3, 137440, Pitch_bend_c, 3, 8320
3, 137440, Pitch_bend_c, 3, 8320
3, 137600, Pitch_bend_c, 3, 8192
3, 137600, Pitch_bend_c, 3, 8192
3, 137760, Pitch_bend_c, 3, 8320
3, 137760, Pitch_bend_c, 3, 8192
3, 137760, Note_off_c, 3, 69, 95
3, 137760, Pitch_bend_c, 3, 8320
3, 137760, Pitch_bend_c, 3, 8192
3, 137760, Note_off_c, 3, 66, 95
3, 137760, Note_on_c, 3, 69, 95
3, 137760, Note_on_c, 3, 66, 95
3, 137920, Pitch_bend_c, 3, 8192
3, 137920, Pitch_bend_c, 3, 8192
3, 138080, Pitch_bend_c, 3, 8320
3, 138080, Pitch_bend_c, 3, 8320
3, 138240, Pitch_bend_c, 3, 8192
3, 138240, Pitch_bend_c, 3, 8192
3, 138400, Pitch_bend_c, 3, 8320
3, 138400, Pitch_bend_c, 3, 8320
3, 138560, Pitch_bend_c, 3, 8192
3, 138560, Pitch_bend_c, 3, 8192
3, 138720, Pitch_bend_c, 3, 8320
3, 138720, Pitch_bend_c, 3, 8192
3, 138720, Note_off_c, 3, 69, 95
3, 138720, Pitch_bend_c, 3, 8320
3, 138720, Pitch_bend_c, 3, 8192
3, 138720, Note_off_c, 3, 66, 95
3, 138720, Note_on_c, 3, 69, 95
3, 138720, Note_on_c, 3, 66, 95
3, 138880, Pitch_bend_c, 3, 8192
3, 138880, Pitch_bend_c, 3, 8192
3, 139040, Pitch_bend_c, 3, 8320
3, 139040, Pitch_bend_c, 3, 8320
3, 139200, Pitch_bend_c, 3, 8192
3, 139200, Pitch_bend_c, 3, 8320
3, 139200, Pitch_bend_c, 3, 8192
3, 139200, Note_off_c, 3, 69, 95
3, 139200, Pitch_bend_c, 3, 8192
3, 139200, Pitch_bend_c, 3, 8320
3, 139200, Pitch_bend_c, 3, 8192
3, 139200, Note_off_c, 3, 66, 95
3, 139200, Note_on_c, 3, 69, 47
3, 139200, Note_on_c, 3, 66, 47
3, 139320, Pitch_bend_c, 3, 7424
3, 139320, Pitch_bend_c, 3, 7424
3, 139440, Pitch_bend_c, 3, 6528
3, 139440, Pitch_bend_c, 3, 6528
3, 139560, Pitch_bend_c, 3, 5632
3, 139560, Pitch_bend_c, 3, 5632
3, 139680, Pitch_bend_c, 3, 4736
3, 139680, Pitch_bend_c, 3, 8192
3, 139680, Note_off_c, 3, 69, 47
3, 139680, Pitch_bend_c, 3, 4736
3, 139680, Pitch_bend_c, 3, 8192
3, 139680, Note_off_c, 3, 66, 47
3, 139680, Note_on_c, 2, 64, 95
3, 139680, Note_on_c, 2, 61, 95
3, 140160, Note_off_c, 2, 64, 95
3, 140160, Note_off_c, 2, 61, 95
3, 140160, Note_on_c, 3, 69, 95
3, 140160, Note_on_c, 3, 66, 95
3, 140320, Pitch_bend_c, 3, 8192
3, 140320, Pitch_bend_c, 3, 8192
3, 140480, Pitch_bend_c, 3, 8320
3, 140480, Pitch_bend_c, 3, 8320
3, 140640, Pitch_bend_c, 3, 8192
3, 140640, Pitch_bend_c, 3, 8320
3, 140640, Pitch_bend_c, 3, 8192
3, 140640, Note_off_c, 3, 69, 95
3, 140640, Pitch_bend_c, 3, 8192
3, 140640, Pitch_bend_c, 3, 8320
3, 140640, Pitch_bend_c, 3, 8192
3, 140640, Note_off_c, 3, 66, 95
3, 140640, Note_on_c, 2, 69, 95
3, 141600, Note_off_c, 2, 69, 95
3, 141600, Note_on_c, 2, 64, 95
3, 141600, Note_on_c, 2, 61, 95
3, 142080, Note_off_c, 2, 64, 95
3, 142080, Note_off_c, 2, 61, 95
3, 142080, Note_on_c, 2, 67, 95
3, 142080, Note_on_c, 2, 64, 95
3, 143040, Note_off_c, 2, 67, 95
3, 143040, Note_off_c, 2, 64, 95
3, 143040, Note_on_c, 2, 61, 95
3, 143085, Note_off_c, 2, 61, 95
3, 143520, Note_on_c, 2, 64, 95
3, 144000, Note_off_c, 2, 64, 95
3, 144000, Note_on_c, 3, 64, 47
3, 144120, Pitch_bend_c, 3, 7936
3, 144240, Pitch_bend_c, 3, 7552
3, 144240, Pitch_bend_c, 3, 8192
3, 144240, Note_off_c, 3, 64, 47
3, 144240, Note_on_c, 2, 63, 95
3, 144480, Note_off_c, 2, 63, 95
3, 144480, Note_on_c, 2, 61, 70
3, 144960, Note_off_c, 2, 61, 70
3, 144960, Note_on_c, 2, 55, 95
3, 144960, Note_on_c, 2, 48, 95
3, 145920, Note_off_c, 2, 55, 95
3, 145920, Note_off_c, 2, 48, 95
3, 145920, Note_on_c, 2, 48, 95
3, 146400, Note_off_c, 2, 48, 95
3, 146400, Note_on_c, 2, 52, 95
3, 146400, Note_on_c, 2, 45, 95
3, 146880, Note_off_c, 2, 52, 95
3, 146880, Note_off_c, 2, 45, 95
3, 146880, Note_on_c, 2, 54, 95
3, 147360, Note_off_c, 2, 54, 95
3, 147360, Note_on_c, 2, 52, 95
3, 147840, Note_off_c, 2, 52, 95
3, 147840, Note_on_c, 2, 45, 95
3, 148320, Note_off_c, 2, 45, 95
3, 148800, Note_on_c, 2, 55, 95
3, 149520, Note_off_c, 2, 55, 95
3, 149520, Note_on_c, 2, 52, 95
3, 149760, Note_off_c, 2, 52, 95
3, 149760, Note_on_c, 2, 48, 95
3, 150240, Note_off_c, 2, 48, 95
3, 150240, Note_on_c, 2, 57, 95
3, 150240, Note_on_c, 2, 52, 95
3, 150720, Note_off_c, 2, 57, 95
3, 150720, Note_off_c, 2, 52, 95
3, 150720, Note_on_c, 2, 57, 95
3, 150720, Note_on_c, 2, 54, 95
3, 151200, Note_off_c, 2, 57, 95
3, 151200, Note_off_c, 2, 54, 95
3, 151200, Note_on_c, 2, 52, 95
3, 151680, Note_off_c, 2, 52, 95
3, 152160, Note_on_c, 2, 45, 95
3, 153120, Note_off_c, 2, 45, 95
3, 153120, Note_on_c, 2, 45, 95
3, 153600, Note_off_c, 2, 45, 95
3, 153600, Note_on_c, 3, 52, 95
3, 153760, Pitch_bend_c, 3, 8192
3, 153920, Pitch_bend_c, 3, 8320
3, 154080, Pitch_bend_c, 3, 8192
3, 154240, Pitch_bend_c, 3, 8320
3, 154400, Pitch_bend_c, 3, 8192
3, 154560, Pitch_bend_c, 3, 8320
3, 154720, Pitch_bend_c, 3, 8192
3, 154880, Pitch_bend_c, 3, 8320
3, 155040, Pitch_bend_c, 3, 8192
3, 155040, Pitch_bend_c, 3, 8320
3, 155040, Pitch_bend_c, 3, 8192
3, 155040, Note_off_c, 3, 52, 95
3, 155040, Note_on_c, 3, 52, 95
3, 155200, Pitch_bend_c, 3, 8192
3, 155360, Pitch_bend_c, 3, 8320
3, 155520, Pitch_bend_c, 3, 8192
3, 155680, Pitch_bend_c, 3, 8320
3, 155840, Pitch_bend_c, 3, 8192
3, 156000, Pitch_bend_c, 3, 8320
3, 156000, Pitch_bend_c, 3, 8192
3, 156000, Note_off_c, 3, 52, 95
3, 156000, Note_on_c, 2, 52, 95
3, 156960, Note_off_c, 2, 52, 95
3, 156960, Note_on_c, 2, 45, 95
3, 157440, Note_off_c, 2, 45, 95
3, 157440, Note_on_c, 2, 50, 95
3, 157920, Note_off_c, 2, 50, 95
3, 157920, Note_on_c, 3, 50, 95
3, 158080, Pitch_bend_c, 3, 8192
3, 158240, Pitch_bend_c, 3, 8320
3, 158400, Pitch_bend_c, 3, 8192
3, 158400, Pitch_bend_c, 3, 8320
3, 158400, Pitch_bend_c, 3, 8192
3, 158400, Note_off_c, 3, 50, 95
3, 158400, Note_on_c, 3, 50, 95
3, 158520, Pitch_bend_c, 3, 7936
3, 158640, Pitch_bend_c, 3, 7552
3, 158760, Pitch_bend_c, 3, 7168
3, 158880, Pitch_bend_c, 3, 6784
3, 158880, Pitch_bend_c, 3, 8192
3, 158880, Note_off_c, 3, 50, 95
3, 158880, Note_on_c, 2, 48, 95
3, 159360, Note_off_c, 2, 48, 95
3, 159360, Note_on_c, 2, 55, 95
3, 160320, Note_off_c, 2, 55, 95
3, 160320, Note_on_c, 2, 48, 95
3, 161280, Note_off_c, 2, 48, 95
3, 162240, Note_on_c, 2, 55, 95
3, 162960, Note_off_c, 2, 55, 95
3, 162960, Note_on_c, 2, 52, 95
3, 163200, Note_off_c, 2, 52, 95
3, 163200, Note_on_c, 2, 48, 95
3, 163680, Note_off_c, 2, 48, 95
3, 163680, Note_on_c, 2, 57, 95
3, 163680, Note_on_c, 2, 52, 95
3, 164160, Note_off_c, 2, 57, 95
3, 164160, Note_off_c, 2, 52, 95
3, 164160, Note_on_c, 2, 54, 95
3, 164640, Note_off_c, 2, 54, 95
3, 164640, Note_on_c, 2, 57, 95
3, 164640, Note_on_c, 2, 52, 95
3, 165120, Note_off_c, 2, 57, 95
3, 165120, Note_off_c, 2, 52, 95
3, 166080, Note_on_c, 2, 55, 95
3, 166800, Note_off_c, 2, 55, 95
3, 166800, Note_on_c, 2, 52, 95
3, 167040, Note_off_c, 2, 52, 95
3, 167040, Note_on_c, 2, 48, 95
3, 167520, Note_off_c, 2, 48, 95
3, 167520, Note_on_c, 2, 57, 95
3, 167520, Note_on_c, 2, 52, 95
3, 168000, Note_off_c, 2, 57, 95
3, 168000, Note_off_c, 2, 52, 95
3, 168000, Note_on_c, 2, 54, 95
3, 168480, Note_off_c, 2, 54, 95
3, 168480, Note_on_c, 2, 57, 95
3, 168480, Note_on_c, 2, 52, 95
3, 169920, Note_off_c, 2, 57, 95
3, 169920, Note_off_c, 2, 52, 95
3, 170880, Note_on_c, 3, 62, 95
3, 170880, Note_on_c, 3, 57, 95
3, 170880, Note_on_c, 3, 50, 95
3, 171040, Pitch_bend_c, 3, 8192
3, 171040, Pitch_bend_c, 3, 8192
3, 171040, Pitch_bend_c, 3, 8192
3, 171200, Pitch_bend_c, 3, 8320
3, 171200, Pitch_bend_c, 3, 8320
3, 171200, Pitch_bend_c, 3, 8320
3, 171360, Pitch_bend_c, 3, 8192
3, 171360, Pitch_bend_c, 3, 8192
3, 171360, Pitch_bend_c, 3, 8192
3, 171520, Pitch_bend_c, 3, 8320
3, 171520, Pitch_bend_c, 3, 8320
3, 171520, Pitch_bend_c, 3, 8320
3, 171680, Pitch_bend_c, 3, 8192
3, 171680, Pitch_bend_c, 3, 8192
3, 171680, Pitch_bend_c, 3, 8192
3, 171840, Pitch_bend_c, 3, 8320
3, 171840, Pitch_bend_c, 3, 8320
3, 171840, Pitch_bend_c, 3, 8320
3, 172000, Pitch_bend_c, 3, 8192
3, 172000, Pitch_bend_c, 3, 8192
3, 172000, Pitch_bend_c, 3, 8192
3, 172160, Pitch_bend_c, 3, 8320
3, 172160, Pitch_bend_c, 3, 8320
3, 172160, Pitch_bend_c, 3, 8320
3, 172320, Pitch_bend_c, 3, 8192
3, 172320, Pitch_bend_c, 3, 8192
3, 172320, Pitch_bend_c, 3, 8192
3, 172480, Pitch_bend_c, 3, 8320
3, 172480, Pitch_bend_c, 3, 8320
3, 172480, Pitch_bend_c, 3, 8320
3, 172640, Pitch_bend_c, 3, 8192
3, 172640, Pitch_bend_c, 3, 8192
3, 172640, Pitch_bend_c, 3, 8192
3, 172800, Pitch_bend_c, 3, 8320
3, 172800, Pitch_bend_c, 3, 8192
3, 172800, Note_off_c, 3, 62, 95
3, 172800, Pitch_bend_c, 3, 8320
3, 172800, Pitch_bend_c, 3, 8192
3, 172800, Note_off_c, 3, 57, 95
3, 172800, Pitch_bend_c, 3, 8320
3, 172800, Pitch_bend_c, 3, 8192
3, 172800, Note_off_c, 3, 50, 95
3, 172800, Note_on_c, 2, 52, 95
3, 172800, Note_on_c, 2, 45, 95
3, 172845, Note_off_c, 2, 52, 95
3, 172845, Note_off_c, 2, 45, 95
3, 173760, Note_on_c, 2, 52, 95
3, 173760, Note_on_c, 2, 45, 95
3, 173805, Note_off_c, 2, 52, 95
3, 173805, Note_off_c, 2, 45, 95
3, 174240, Note_on_c, 3, 57, 95
3, 174240, Note_on_c, 3, 50, 95
3, 174400, Pitch_bend_c, 3, 8192
3, 174400, Pitch_bend_c, 3, 8192
3, 174560, Pitch_bend_c, 3, 8320
3, 174560, Pitch_bend_c, 3, 8320
3, 174720, Pitch_bend_c, 3, 8192
3, 174720, Pitch_bend_c, 3, 8192
3, 174880, Pitch_bend_c, 3, 8320
3, 174880, Pitch_bend_c, 3, 8320
3, 175040, Pitch_bend_c, 3, 8192
3, 175040, Pitch_bend_c, 3, 8192
3, 175200, Pitch_bend_c, 3, 8320
3, 175200, Pitch_bend_c, 3, 8320
3, 175360, Pitch_bend_c, 3, 8192
3, 175360, Pitch_bend_c, 3, 8192
3, 175520, Pitch_bend_c, 3, 8320
3, 175520, Pitch_bend_c, 3, 8320
3, 175680, Pitch_bend_c, 3, 8192
3, 175680, Pitch_bend_c, 3, 8192
3, 175840, Pitch_bend_c, 3, 8320
3, 175840, Pitch_bend_c, 3, 8320
3, 176000, Pitch_bend_c, 3, 8192
3, 176000, Pitch_bend_c, 3, 8192
3, 176160, Pitch_bend_c, 3, 8320
3, 176160, Pitch_bend_c, 3, 8320
3, 176320, Pitch_bend_c, 3, 8192
3, 176320, Pitch_bend_c, 3, 8192
3, 176480, Pitch_bend_c, 3, 8320
3, 176480, Pitch_bend_c, 3, 8320
3, 176640, Pitch_bend_c, 3, 8192
3, 176640, Pitch_bend_c, 3, 8320
3, 176640, Pitch_bend_c, 3, 8192
3, 176640, Note_off_c, 3, 57, 95
3, 176640, Pitch_bend_c, 3, 8192
3, 176640, Pitch_bend_c, 3, 8320
3, 176640, Pitch_bend_c, 3, 8192
3, 176640, Note_off_c, 3, 50, 95
3, 176640, Note_on_c, 2, 60, 95
3, 176640, Note_on_c, 2, 55, 95
3, 176640, Note_on_c, 2, 48, 95
3, 177600, Note_off_c, 2, 60, 95
3, 177600, Note_off_c, 2, 55, 95
3, 177600, Note_off_c, 2, 48, 95
3, 177600, Note_on_c, 2, 45, 95
3, 178080, Note_off_c, 2, 45, 95
3, 178080, Note_on_c, 2, 45, 95
3, 179040, Note_off_c, 2, 45, 95
3, 179520, Note_on_c, 2, 55, 95
3, 180240, Note_off_c, 2, 55, 95
3, 180240, Note_on_c, 2, 52, 95
3, 180480, Note_off_c, 2, 52, 95
3, 180480, Note_on_c, 2, 48, 95
3, 180960, Note_off_c, 2, 48, 95
3, 180960, Note_on_c, 2, 57, 95
3, 180960, Note_on_c, 2, 52, 95
3, 181440, Note_off_c, 2, 57, 95
3, 181440, Note_off_c, 2, 52, 95
3, 181440, Note_on_c, 2, 57, 95
3, 181440, Note_on_c, 2, 54, 95
3, 181920, Note_off_c, 2, 57, 95
3, 181920, Note_off_c, 2, 54, 95
3, 181920, Note_on_c, 2, 57, 95
3, 181920, Note_on_c, 2, 52, 95
3, 182880, Note_off_c, 2, 57, 95
3, 182880, Note_off_c, 2, 52, 95
3, 183240, Note_on_c, 3, 54, 95
3, 183360, Note_off_c, 3, 54, 95
3, 183360, Note_on_c, 3, 55, 95
3, 183840, Note_off_c, 3, 55, 95
3, 183840, Note_on_c, 2, 54, 70
3, 184080, Note_off_c, 2, 54, 70
3, 184080, Note_on_c, 2, 52, 70
3, 184320, Note_off_c, 2, 52, 70
3, 184320, Note_on_c, 2, 48, 95
3, 184800, Note_off_c, 2, 48, 95
3, 184800, Note_on_c, 2, 57, 95
3, 184800, Note_on_c, 2, 52, 95
3, 185280, Note_off_c, 2, 57, 95
3, 185280, Note_off_c, 2, 52, 95
3, 185280, Note_on_c, 2, 54, 95
3, 185760, Note_off_c, 2, 54, 95
3, 185760, Note_on_c, 2, 61, 95
3, 185760, Note_on_c, 2, 57, 95
3, 185760, Note_on_c, 2, 52, 95
3, 186240, Note_off_c, 2, 61, 95
3, 186240, Note_off_c, 2, 57, 95
3, 186240, Note_off_c, 2, 52, 95
3, 186240, Note_on_c, 2, 45, 95
3, 186720, Note_off_c, 2, 45, 95
3, 186720, Note_on_c, 2, 57, 95
3, 186720, Note_on_c, 2, 52, 95
3, 187200, Note_off_c, 2, 57, 95
3, 187200, Note_off_c, 2, 52, 95
3, 187680, Note_on_c, 2, 50, 95
3, 188640, Note_off_c, 2, 50, 95
3, 188640, Note_on_c, 3, 62, 95
3, 188640, Note_on_c, 3, 57, 95
3, 188640, Note_on_c, 3, 50, 95
3, 188800, Pitch_bend_c, 3, 8192
3, 188800, Pitch_bend_c, 3, 8192
3, 188800, Pitch_bend_c, 3, 8192
3, 188960, Pitch_bend_c, 3, 8320
3, 188960, Pitch_bend_c, 3, 8320
3, 188960, Pitch_bend_c, 3, 8320
3, 189120, Pitch_bend_c, 3, 8192
3, 189120, Pitch_bend_c, 3, 8192
3, 189120, Pitch_bend_c, 3, 8192
3, 189280, Pitch_bend_c, 3, 8320
3, 189280, Pitch_bend_c, 3, 8320
3, 189280, Pitch_bend_c, 3, 8320
3, 189440, Pitch_bend_c, 3, 8192
3, 189440, Pitch_bend_c, 3, 8192
3, 189440, Pitch_bend_c, 3, 8192
3, 189600, Pitch_bend_c, 3, 8320
3, 189600, Pitch_bend_c, 3, 8192
3, 189600, Note_off_c, 3, 62, 95
3, 189600, Pitch_bend_c, 3, 8320
3, 189600, Pitch_bend_c, 3, 8192
3, 189600, Note_off_c, 3, 57, 95
3, 189600, Pitch_bend_c, 3, 8320
3, 189600, Pitch_bend_c, 3, 8192
3, 189600, Note_off_c, 3, 50, 95
3, 189600, Note_on_c, 2, 50, 95
3, 190560, Note_off_c, 2, 50, 95
3, 190560, Note_on_c, 2, 50, 95
3, 191040, Note_off_c, 2, 50, 95
3, 191520, Note_on_c, 3, 50, 95
3, 191680, Pitch_bend_c, 3, 8192
3, 191840, Pitch_bend_c, 3, 8320
3, 192000, Pitch_bend_c, 3, 8192
3, 192160, Pitch_bend_c, 3, 8320
3, 192320, Pitch_bend_c, 3, 8192
3, 192480, Pitch_bend_c, 3, 8320
3, 192640, Pitch_bend_c, 3, 8192
3, 192800, Pitch_bend_c, 3, 8320
3, 192960, Pitch_bend_c, 3, 8192
3, 192960, Pitch_bend_c, 3, 8320
3, 192960, Pitch_bend_c, 3, 8192
3, 192960, Note_off_c, 3, 50, 95
3, 193920, Note_on_c, 2, 48, 95
3, 194880, Note_off_c, 2, 48, 95
3, 194880, Note_on_c, 2, 45, 95
3, 195360, Note_off_c, 2, 45, 95
3, 195360, Note_on_c, 2, 45, 95
3, 195840, Note_off_c, 2, 45, 95
3, 196800, Note_on_c, 2, 55, 95
3, 197520, Note_off_c, 2, 55, 95
3, 197520, Note_on_c, 2, 52, 95
3, 197760, Note_off_c, 2, 52, 95
3, 197760, Note_on_c, 2, 48, 95
3, 198240, Note_off_c, 2, 48, 95
3, 198240, Note_on_c, 2, 57, 95
3, 198240, Note_on_c, 2, 52, 95
3, 198720, Note_off_c, 2, 57, 95
3, 198720, Note_off_c, 2, 52, 95
3, 198720, Note_on_c, 2, 54, 95
3, 199200, Note_off_c, 2, 54, 95
3, 199200, Note_on_c, 2, 57, 95
3, 199200, Note_on_c, 2, 52, 95
3, 199680, Note_off_c, 2, 57, 95
3, 199680, Note_off_c, 2, 52, 95
3, 200520, Note_on_c, 3, 54, 95
3, 200640, Note_off_c, 3, 54, 95
3, 200640, Note_on_c, 3, 55, 95
3, 201120, Note_off_c, 3, 55, 95
3, 201120, Note_on_c, 2, 55, 47
3, 201280, Note_off_c, 2, 55, 47
3, 201280, Note_on_c, 2, 54, 70
3, 201440, Note_off_c, 2, 54, 70
3, 201440, Note_on_c, 2, 52, 70
3, 201600, Note_off_c, 2, 52, 70
3, 201600, Note_on_c, 2, 48, 95
3, 202080, Note_off_c, 2, 48, 95
3, 202080, Note_on_c, 2, 52, 95
3, 202560, Note_off_c, 2, 52, 95
3, 202560, Note_on_c, 2, 54, 95
3, 203040, Note_off_c, 2, 54, 95
3, 203040, Note_on_c, 2, 57, 95
3, 203040, Note_on_c, 2, 52, 70
3, 203520, Note_off_c, 2, 57, 95
3, 203520, Note_off_c, 2, 52, 70
3, 203520, Note_on_c, 2, 45, 95
3, 204480, Note_off_c, 2, 45, 95
3, 204480, Note_on_c, 2, 52, 95
3, 204720, Note_off_c, 2, 52, 95
3, 204720, Note_on_c, 2, 54, 70
3, 204960, Note_off_c, 2, 54, 70
3, 204960, Note_on_c, 3, 58, 95
3, 204960, Note_on_c, 3, 51, 95
3, 205080, Pitch_bend_c, 3, 8320
3, 205080, Pitch_bend_c, 3, 8320
3, 205200, Pitch_bend_c, 3, 8448
3, 205200, Pitch_bend_c, 3, 8448
3, 205320, Pitch_bend_c, 3, 8704
3, 205320, Pitch_bend_c, 3, 8704
3, 205440, Pitch_bend_c, 3, 8832
3, 205440, Pitch_bend_c, 3, 8192
3, 205440, Note_off_c, 3, 58, 95
3, 205440, Pitch_bend_c, 3, 8832
3, 205440, Pitch_bend_c, 3, 8192
3, 205440, Note_off_c, 3, 51, 95
3, 205440, Note_on_c, 3, 59, 95
3, 205440, Note_on_c, 3, 52, 95
3, 205600, Pitch_bend_c, 3, 8192
3, 205600, Pitch_bend_c, 3, 8192
3, 205760, Pitch_bend_c, 3, 8320
3, 205760, Pitch_bend_c, 3, 8320
3, 205920, Pitch_bend_c, 3, 8192
3, 205920, Pitch_bend_c, 3, 8192
3, 206080, Pitch_bend_c, 3, 8320
3, 206080, Pitch_bend_c, 3, 8320
3, 206240, Pitch_bend_c, 3, 8192
3, 206240, Pitch_bend_c, 3, 8192
3, 206400, Pitch_bend_c, 3, 8320
3, 206400, Pitch_bend_c, 3, 8320
3, 206560, Pitch_bend_c, 3, 8192
3, 206560, Pitch_bend_c, 3, 8192
3, 206720, Pitch_bend_c, 3, 8320
3, 206720, Pitch_bend_c, 3, 8320
3, 206880, Pitch_bend_c, 3, 8192
3, 206880, Pitch_bend_c, 3, 8192
3, 207040, Pitch_bend_c, 3, 8320
3, 207040, Pitch_bend_c, 3, 8320
3, 207200, Pitch_bend_c, 3, 8192
3, 207200, Pitch_bend_c, 3, 8192
3, 207360, Pitch_bend_c, 3, 8320
3, 207360, Pitch_bend_c, 3, 8320
3, 207520, Pitch_bend_c, 3, 8192
3, 207520, Pitch_bend_c, 3, 8192
3, 207680, Pitch_bend_c, 3, 8320
3, 207680, Pitch_bend_c, 3, 8320
3, 207840, Pitch_bend_c, 3, 8192
3, 207840, Pitch_bend_c, 3, 8192
3, 208000, Pitch_bend_c, 3, 8320
3, 208000, Pitch_bend_c, 3, 8320
3, 208160, Pitch_bend_c, 3, 8192
3, 208160, Pitch_bend_c, 3, 8192
3, 208320, Pitch_bend_c, 3, 8320
3, 208320, Pitch_bend_c, 3, 8192
3, 208320, Note_off_c, 3, 59, 95
3, 208320, Pitch_bend_c, 3, 8320
3, 208320, Pitch_bend_c, 3, 8192
3, 208320, Note_off_c, 3, 52, 95
3, 208320, Note_on_c, 2, 52, 95
3, 208320, Note_on_c, 2, 45, 95
3, 208365, Note_off_c, 2, 52, 95
3, 208365, Note_off_c, 2, 45, 95
3, 209280, Note_on_c, 3, 50, 95
3, 209440, Pitch_bend_c, 3, 8192
3, 209600, Pitch_bend_c, 3, 8320
3, 209760, Pitch_bend_c, 3, 8192
3, 209920, Pitch_bend_c, 3, 8320
3, 210080, Pitch_bend_c, 3, 8192
3, 210240, Pitch_bend_c, 3, 8320
3, 210240, Pitch_bend_c, 3, 8192
3, 210240, Note_off_c, 3, 50, 95
3, 210240, Note_on_c, 2, 48, 95
3, 211200, Note_off_c, 2, 48, 95
3, 211200, Note_on_c, 2, 55, 95
3, 212040, Note_on_c, 3, 55, 95
3, 212160, Note_off_c, 2, 55, 95
3, 212160, Note_off_c, 3, 55, 95
3, 212160, Note_on_c, 3, 57, 95
3, 212320, Pitch_bend_c, 3, 8192
3, 212480, Pitch_bend_c, 3, 8320
3, 212640, Pitch_bend_c, 3, 8192
3, 212800, Pitch_bend_c, 3, 8320
3, 212960, Pitch_bend_c, 3, 8192
3, 213120, Pitch_bend_c, 3, 8320
3, 213120, Pitch_bend_c, 3, 8192
3, 213120, Note_off_c, 3, 57, 95
3, 213120, Note_on_c, 2, 57, 47
3, 214080, Note_off_c, 2, 57, 47
3, 214080, Note_on_c, 2, 55, 95
3, 214800, Note_off_c, 2, 55, 95
3, 214800, Note_on_c, 2, 52, 95
3, 215040, Note_off_c, 2, 52, 95
3, 215040, Note_on_c, 2, 48, 95
3, 215520, Note_off_c, 2, 48, 95
3, 215520, Note_on_c, 2, 57, 95
3, 215520, Note_on_c, 2, 52, 95
3, 216000, Note_off_c, 2, 57, 95
3, 216000, Note_off_c, 2, 52, 95
3, 216000, Note_on_c, 2, 54, 95
3, 216480, Note_off_c, 2, 54, 95
3, 216480, Note_on_c, 2, 57, 95
3, 216480, Note_on_c, 2, 52, 95
3, 216960, Note_off_c, 2, 57, 95
3, 216960, Note_off_c, 2, 52, 95
3, 217920, Note_on_c, 2, 55, 95
3, 218640, Note_off_c, 2, 55, 95
3, 218640, Note_on_c, 2, 52, 95
3, 218880, Note_off_c, 2, 52, 95
3, 218880, Note_on_c, 2, 48, 95
3, 219360, Note_off_c, 2, 48, 95
3, 219360, Note_on_c, 2, 57, 95
3, 219360, Note_on_c, 2, 52, 95
3, 219840, Note_off_c, 2, 57, 95
3, 219840, Note_off_c, 2, 52, 95
3, 219840, Note_on_c, 2, 54, 95
3, 220320, Note_off_c, 2, 54, 95
3, 220320, Note_on_c, 2, 57, 95
3, 220320, Note_on_c, 2, 52, 95
3, 220800, Note_off_c, 2, 57, 95
3, 220800, Note_off_c, 2, 52, 95
3, 220800, Note_on_c, 2, 45, 95
3, 221280, Note_off_c, 2, 45, 95
3, 221280, Note_on_c, 2, 57, 95
3, 221280, Note_on_c, 2, 52, 95
3, 221760, Note_off_c, 2, 57, 95
3, 221760, Note_off_c, 2, 52, 95
3, 222240, Note_on_c, 2, 62, 95
3, 222240, Note_on_c, 2, 57, 95
3, 222240, Note_on_c, 2, 50, 95
3, 222720, Note_off_c, 2, 62, 95
3, 222720, Note_off_c, 2, 57, 95
3, 222720, Note_off_c, 2, 50, 95
3, 222720, Note_on_c, 3, 62, 95
3, 222720, Note_on_c, 3, 57, 95
3, 222720, Note_on_c, 3, 50, 95
3, 222880, Pitch_bend_c, 3, 8192
3, 222880, Pitch_bend_c, 3, 8192
3, 222880, Pitch_bend_c, 3, 8192
3, 223040, Pitch_bend_c, 3, 8320
3, 223040, Pitch_bend_c, 3, 8320
3, 223040, Pitch_bend_c, 3, 8320
3, 223200, Pitch_bend_c, 3, 8192
3, 223200, Pitch_bend_c, 3, 8192
3, 223200, Pitch_bend_c, 3, 8192
3, 223360, Pitch_bend_c, 3, 8320
3, 223360, Pitch_bend_c, 3, 8320
3, 223360, Pitch_bend_c, 3, 8320
3, 223520, Pitch_bend_c, 3, 8192
3, 223520, Pitch_bend_c, 3, 8192
3, 223520, Pitch_bend_c, 3, 8192
3, 223680, Pitch_bend_c, 3, 8320
3, 223680, Pitch_bend_c, 3, 8320
3, 223680, Pitch_bend_c, 3, 8320
3, 223840, Pitch_bend_c, 3, 8192
3, 223840, Pitch_bend_c, 3, 8192
3, 223840, Pitch_bend_c, 3, 8192
3, 224000, Pitch_bend_c, 3, 8320
3, 224000, Pitch_bend_c, 3, 8320
3, 224000, Pitch_bend_c, 3, 8320
3, 224160, Pitch_bend_c, 3, 8192
3, 224160, Pitch_bend_c, 3, 8192
3, 224160, Pitch_bend_c, 3, 8192
3, 224320, Pitch_bend_c, 3, 8320
3, 224320, Pitch_bend_c, 3, 8320
3, 224320, Pitch_bend_c, 3, 8320
3, 224480, Pitch_bend_c, 3, 8192
3, 224480, Pitch_bend_c, 3, 8192
3, 224480, Pitch_bend_c, 3, 8192
3, 224640, Pitch_bend_c, 3, 8320
3, 224640, Pitch_bend_c, 3, 8192
3, 224640, Note_off_c, 3, 62, 95
3, 224640, Pitch_bend_c, 3, 8320
3, 224640, Pitch_bend_c, 3, 8192
3, 224640, Note_off_c, 3, 57, 95
3, 224640, Pitch_bend_c, 3, 8320
3, 224640, Pitch_bend_c, 3, 8192
3, 224640, Note_off_c, 3, 50, 95
3, 224640, Note_on_c, 2, 52, 95
3, 224640, Note_on_c, 2, 45, 95
3, 224685, Note_off_c, 2, 52, 95
3, 224685, Note_off_c, 2, 45, 95
3, 225600, Note_on_c, 2, 52, 95
3, 225600, Note_on_c, 2, 45, 95
3, 225645, Note_off_c, 2, 52, 95
3, 225645, Note_off_c, 2, 45, 95
3, 226080, Note_on_c, 3, 57, 95
3, 226080, Note_on_c, 3, 50, 95
3, 226240, Pitch_bend_c, 3, 8192
3, 226240, Pitch_bend_c, 3, 8192
3, 226400, Pitch_bend_c, 3, 8320
3, 226400, Pitch_bend_c, 3, 8320
3, 226560, Pitch_bend_c, 3, 8192
3, 226560, Pitch_bend_c, 3, 8192
3, 226720, Pitch_bend_c, 3, 8320
3, 226720, Pitch_bend_c, 3, 8320
3, 226880, Pitch_bend_c, 3, 8192
3, 226880, Pitch_bend_c, 3, 8192
3, 227040, Pitch_bend_c, 3, 8320
3, 227040, Pitch_bend_c, 3, 8320
3, 227200, Pitch_bend_c, 3, 8192
3, 227200, Pitch_bend_c, 3, 8192
3, 227360, Pitch_bend_c, 3, 8320
3, 227360, Pitch_bend_c, 3, 8320
3, 227520, Pitch_bend_c, 3, 8192
3, 227520, Pitch_bend_c, 3, 8192
3, 227680, Pitch_bend_c, 3, 8320
3, 227680, Pitch_bend_c, 3, 8320
3, 227840, Pitch_bend_c, 3, 8192
3, 227840, Pitch_bend_c, 3, 8192
3, 228000, Pitch_bend_c, 3, 8320
3, 228000, Pitch_bend_c, 3, 8320
3, 228160, Pitch_bend_c, 3, 8192
3, 228160, Pitch_bend_c, 3, 8192
3, 228320, Pitch_bend_c, 3, 8320
3, 228320, Pitch_bend_c, 3, 8320
3, 228480, Pitch_bend_c, 3, 8192
3, 228480, Pitch_bend_c, 3, 8320
3, 228480, Pitch_bend_c, 3, 8192
3, 228480, Note_off_c, 3, 57, 95
3, 228480, Pitch_bend_c, 3, 8192
3, 228480, Pitch_bend_c, 3, 8320
3, 228480, Pitch_bend_c, 3, 8192
3, 228480, Note_off_c, 3, 50, 95
3, 228480, Note_on_c, 2, 60, 95
3, 228480, Note_on_c, 2, 55, 95
3, 228480, Note_on_c, 2, 48, 95
3, 229440, Note_off_c, 2, 60, 95
3, 229440, Note_off_c, 2, 55, 95
3, 229440, Note_off_c, 2, 48, 95
3, 229440, Note_on_c, 2, 45, 95
3, 229920, Note_off_c, 2, 45, 95
3, 229920, Note_on_c, 2, 45, 95
3, 230880, Note_off_c, 2, 45, 95
3, 231360, Note_on_c, 2, 55, 95
3, 232080, Note_off_c, 2, 55, 95
3, 232080, Note_on_c, 2, 52, 95
3, 232320, Note_off_c, 2, 52, 95
3, 232320, Note_on_c, 2, 48, 95
3, 232800, Note_off_c, 2, 48, 95
3, 232800, Note_on_c, 2, 57, 95
3, 232800, Note_on_c, 2, 52, 95
3, 233280, Note_off_c, 2, 57, 95
3, 233280, Note_off_c, 2, 52, 95
3, 233280, Note_on_c, 2, 57, 95
3, 233280, Note_on_c, 2, 54, 95
3, 233760, Note_off_c, 2, 57, 95
3, 233760, Note_off_c, 2, 54, 95
3, 233760, Note_on_c, 2, 57, 95
3, 233760, Note_on_c, 2, 52, 95
3, 234720, Note_off_c, 2, 57, 95
3, 234720, Note_off_c, 2, 52, 95
3, 235080, Note_on_c, 3, 54, 95
3, 235200, Note_off_c, 3, 54, 95
3, 235200, Note_on_c, 3, 55, 95
3, 235680, Note_off_c, 3, 55, 95
3, 235680, Note_on_c, 2, 54, 70
3, 235920, Note_off_c, 2, 54, 70
3, 235920, Note_on_c, 2, 52, 70
3, 236160, Note_off_c, 2, 52, 70
3, 236160, Note_on_c, 2, 48, 95
3, 236640, Note_off_c, 2, 48, 95
3, 236640, Note_on_c, 2, 57, 95
3, 236640, Note_on_c, 2, 52, 95
3, 237120, Note_off_c, 2, 57, 95
3, 237120, Note_off_c, 2, 52, 95
3, 237120, Note_on_c, 2, 54, 95
3, 237600, Note_off_c, 2, 54, 95
3, 237600, Note_on_c, 2, 61, 95
3, 237600, Note_on_c, 2, 57, 95
3, 237600, Note_on_c, 2, 52, 95
3, 238080, Note_off_c, 2, 61, 95
3, 238080, Note_off_c, 2, 57, 95
3, 238080, Note_off_c, 2, 52, 95
3, 238080, Note_on_c, 2, 45, 95
3, 238560, Note_off_c, 2, 45, 95
3, 238560, Note_on_c, 2, 57, 95
3, 238560, Note_on_c, 2, 52, 95
3, 239040, Note_off_c, 2, 57, 95
3, 239040, Note_off_c, 2, 52, 95
3, 239520, Note_on_c, 2, 50, 95
3, 240480, Note_off_c, 2, 50, 95
3, 240480, Note_on_c, 3, 62, 95
3, 240480, Note_on_c, 3, 57, 95
3, 240480, Note_on_c, 3, 50, 95
3, 240640, Pitch_bend_c, 3, 8192
3, 240640, Pitch_bend_c, 3, 8192
3, 240640, Pitch_bend_c, 3, 8192
3, 240800, Pitch_bend_c, 3, 8320
3, 240800, Pitch_bend_c, 3, 8320
3, 240800, Pitch_bend_c, 3, 8320
3, 240960, Pitch_bend_c, 3, 8192
3, 240960, Pitch_bend_c, 3, 8192
3, 240960, Pitch_bend_c, 3, 8192
3, 241120, Pitch_bend_c, 3, 8320
3, 241120, Pitch_bend_c, 3, 8320
3, 241120, Pitch_bend_c, 3, 8320
3, 241280, Pitch_bend_c, 3, 8192
3, 241280, Pitch_bend_c, 3, 8192
3, 241280, Pitch_bend_c, 3, 8192
3, 241440, Pitch_bend_c, 3, 8320
3, 241440, Pitch_bend_c, 3, 8192
3, 241440, Note_off_c, 3, 62, 95
3, 241440, Pitch_bend_c, 3, 8320
3, 241440, Pitch_bend_c, 3, 8192
3, 241440, Note_off_c, 3, 57, 95
3, 241440, Pitch_bend_c, 3, 8320
3, 241440, Pitch_bend_c, 3, 8192
3, 241440, Note_off_c, 3, 50, 95
3, 241440, Note_on_c, 2, 50, 95
3, 242400, Note_off_c, 2, 50, 95
3, 242400, Note_on_c, 2, 50, 95
3, 242880, Note_off_c, 2, 50, 95
3, 243360, Note_on_c, 3, 50, 95
3, 243520, Pitch_bend_c, 3, 8192
3, 243680, Pitch_bend_c, 3, 8320
3, 243840, Pitch_bend_c, 3, 8192
3, 244000, Pitch_bend_c, 3, 8320
3, 244160, Pitch_bend_c, 3, 8192
3, 244320, Pitch_bend_c, 3, 8320
3, 244480, Pitch_bend_c, 3, 8192
3, 244640, Pitch_bend_c, 3, 8320
3, 244800, Pitch_bend_c, 3, 8192
3, 244800, Pitch_bend_c, 3, 8320
3, 244800, Pitch_bend_c, 3, 8192
3, 244800, Note_off_c, 3, 50, 95
3, 245760, Note_on_c, 2, 48, 95
3, 246720, Note_off_c, 2, 48, 95
3, 246720, Note_on_c, 2, 45, 95
3, 247200, Note_off_c, 2, 45, 95
3, 247200, Note_on_c, 2, 45, 95
3, 247680, Note_off_c, 2, 45, 95
3, 248640, Note_on_c, 2, 55, 95
3, 249360, Note_off_c, 2, 55, 95
3, 249360, Note_on_c, 2, 52, 95
3, 249600, Note_off_c, 2, 52, 95
3, 249600, Note_on_c, 2, 48, 95
3, 250080, Note_off_c, 2, 48, 95
3, 250080, Note_on_c, 2, 57, 95
3, 250080, Note_on_c, 2, 52, 95
3, 250560, Note_off_c, 2, 57, 95
3, 250560, Note_off_c, 2, 52, 95
3, 250560, Note_on_c, 2, 54, 95
3, 251040, Note_off_c, 2, 54, 95
3, 251040, Note_on_c, 2, 57, 95
3, 251040, Note_on_c, 2, 52, 95
3, 251520, Note_off_c, 2, 57, 95
3, 251520, Note_off_c, 2, 52, 95
3, 252360, Note_on_c, 3, 54, 95
3, 252480, Note_off_c, 3, 54, 95
3, 252480, Note_on_c, 3, 55, 95
3, 252960, Note_off_c, 3, 55, 95
3, 252960, Note_on_c, 2, 55, 47
3, 253120, Note_off_c, 2, 55, 47
3, 253120, Note_on_c, 2, 54, 70
3, 253280, Note_off_c, 2, 54, 70
3, 253280, Note_on_c, 2, 52, 70
3, 253440, Note_off_c, 2, 52, 70
3, 253440, Note_on_c, 2, 48, 95
3, 253920, Note_off_c, 2, 48, 95
3, 253920, Note_on_c, 2, 52, 95
3, 254400, Note_off_c, 2, 52, 95
3, 254400, Note_on_c, 2, 54, 95
3, 254880, Note_off_c, 2, 54, 95
3, 254880, Note_on_c, 2, 57, 95
3, 254880, Note_on_c, 2, 52, 70
3, 255360, Note_off_c, 2, 57, 95
3, 255360, Note_off_c, 2, 52, 70
3, 255360, Note_on_c, 2, 45, 95
3, 256320, Note_off_c, 2, 45, 95
3, 256320, Note_on_c, 2, 52, 95
3, 256560, Note_off_c, 2, 52, 95
3, 256560, Note_on_c, 2, 54, 70
3, 256800, Note_off_c, 2, 54, 70
3, 256800, Note_on_c, 3, 58, 95
3, 256800, Note_on_c, 3, 51, 95
3, 256920, Pitch_bend_c, 3, 8320
3, 256920, Pitch_bend_c, 3, 8320
3, 257040, Pitch_bend_c, 3, 8448
3, 257040, Pitch_bend_c, 3, 8448
3, 257160, Pitch_bend_c, 3, 8704
3, 257160, Pitch_bend_c, 3, 8704
3, 257280, Pitch_bend_c, 3, 8832
3, 257280, Pitch_bend_c, 3, 8192
3, 257280, Note_off_c, 3, 58, 95
3, 257280, Pitch_bend_c, 3, 8832
3, 257280, Pitch_bend_c, 3, 8192
3, 257280, Note_off_c, 3, 51, 95
3, 257280, Note_on_c, 3, 59, 95
3, 257280, Note_on_c, 3, 52, 95
3, 257440, Pitch_bend_c, 3, 8192
3, 257440, Pitch_bend_c, 3, 8192
3, 257600, Pitch_bend_c, 3, 8320
3, 257600, Pitch_bend_c, 3, 8320
3, 257760, Pitch_bend_c, 3, 8192
3, 257760, Pitch_bend_c, 3, 8192
3, 257920, Pitch_bend_c, 3, 8320
3, 257920, Pitch_bend_c, 3, 8320
3, 258080, Pitch_bend_c, 3, 8192
3, 258080, Pitch_bend_c, 3, 8192
3, 258240, Pitch_bend_c, 3, 8320
3, 258240, Pitch_bend_c, 3, 8320
3, 258400, Pitch_bend_c, 3, 8192
3, 258400, Pitch_bend_c, 3, 8192
3, 258560, Pitch_bend_c, 3, 8320
3, 258560, Pitch_bend_c, 3, 8320
3, 258720, Pitch_bend_c, 3, 8192
3, 258720, Pitch_bend_c, 3, 8192
3, 258880, Pitch_bend_c, 3, 8320
3, 258880, Pitch_bend_c, 3, 8320
3, 259040, Pitch_bend_c, 3, 8192
3, 259040, Pitch_bend_c, 3, 8192
3, 259200, Pitch_bend_c, 3, 8320
3, 259200, Pitch_bend_c, 3, 8320
3, 259360, Pitch_bend_c, 3, 8192
3, 259360, Pitch_bend_c, 3, 8192
3, 259520, Pitch_bend_c, 3, 8320
3, 259520, Pitch_bend_c, 3, 8320
3, 259680, Pitch_bend_c, 3, 8192
3, 259680, Pitch_bend_c, 3, 8192
3, 259840, Pitch_bend_c, 3, 8320
3, 259840, Pitch_bend_c, 3, 8320
3, 260000, Pitch_bend_c, 3, 8192
3, 260000, Pitch_bend_c, 3, 8192
3, 260160, Pitch_bend_c, 3, 8320
3, 260160, Pitch_bend_c, 3, 8192
3, 260160, Note_off_c, 3, 59, 95
3, 260160, Pitch_bend_c, 3, 8320
3, 260160, Pitch_bend_c, 3, 8192
3, 260160, Note_off_c, 3, 52, 95
3, 260160, Note_on_c, 2, 52, 95
3, 260160, Note_on_c, 2, 45, 95
3, 260205, Note_off_c, 2, 52, 95
3, 260205, Note_off_c, 2, 45, 95
3, 261120, Note_on_c, 3, 50, 95
3, 261280, Pitch_bend_c, 3, 8192
3, 261440, Pitch_bend_c, 3, 8320
3, 261600, Pitch_bend_c, 3, 8192
3, 261760, Pitch_bend_c, 3, 8320
3, 261920, Pitch_bend_c, 3, 8192
3, 262080, Pitch_bend_c, 3, 8320
3, 262080, Pitch_bend_c, 3, 8192
3, 262080, Note_off_c, 3, 50, 95
3, 262080, Note_on_c, 2, 48, 95
3, 263040, Note_off_c, 2, 48, 95
3, 263040, Note_on_c, 2, 55, 95
3, 263880, Note_on_c, 3, 55, 95
3, 264000, Note_off_c, 2, 55, 95
3, 264000, Note_off_c, 3, 55, 95
3, 264000, Note_on_c, 3, 57, 95
3, 264160, Pitch_bend_c, 3, 8192
3, 264320, Pitch_bend_c, 3, 8320
3, 264480, Pitch_bend_c, 3, 8192
3, 264640, Pitch_bend_c, 3, 8320
3, 264800, Pitch_bend_c, 3, 8192
3, 264960, Pitch_bend_c, 3, 8320
3, 264960, Pitch_bend_c, 3, 8192
3, 264960, Note_off_c, 3, 57, 95
3, 264960, Note_on_c, 2, 57, 47
3, 265920, Note_off_c, 2, 57, 47
3, 265920, Note_on_c, 2, 55, 95
3, 266640, Note_off_c, 2, 55, 95
3, 266640, Note_on_c, 2, 52, 95
3, 266880, Note_off_c, 2, 52, 95
3, 266880, Note_on_c, 2, 48, 95
3, 267360, Note_off_c, 2, 48, 95
3, 267360, Note_on_c, 2, 57, 95
3, 267360, Note_on_c, 2, 52, 95
3, 267840, Note_off_c, 2, 57, 95
3, 267840, Note_off_c, 2, 52, 95
3, 267840, Note_on_c, 2, 54, 95
3, 268320, Note_off_c, 2, 54, 95
3, 268320, Note_on_c, 2, 57, 95
3, 268320, Note_on_c, 2, 52, 95
3, 268800, Note_off_c, 2, 57, 95
3, 268800, Note_off_c, 2, 52, 95
3, 269760, Note_on_c, 2, 55, 95
3, 270480, Note_off_c, 2, 55, 95
3, 270480, Note_on_c, 2, 52, 95
3, 270720, Note_off_c, 2, 52, 95
3, 270720, Note_on_c, 2, 48, 95
3, 271200, Note_off_c, 2, 48, 95
3, 271200, Note_on_c, 2, 57, 95
3, 271200, Note_on_c, 2, 52, 95
3, 271680, Note_off_c, 2, 57, 95
3, 271680, Note_off_c, 2, 52, 95
3, 271680, Note_on_c, 2, 54, 95
3, 272160, Note_off_c, 2, 54, 95
3, 272160, Note_on_c, 2, 57, 95
3, 272160, Note_on_c, 2, 52, 95
3, 272640, Note_off_c, 2, 57, 95
3, 272640, Note_off_c, 2, 52, 95
3, 273600, Note_on_c, 2, 64, 95
3, 274080, Note_off_c, 2, 64, 95
3, 274080, Note_on_c, 2, 57, 95
3, 274080, Note_on_c, 2, 52, 95
3, 274560, Note_off_c, 2, 57, 95
3, 274560, Note_off_c, 2, 52, 95
3, 274560, Note_on_c, 3, 62, 95
3, 274560, Note_on_c, 3, 57, 95
3, 274560, Note_on_c, 3, 50, 95
3, 274720, Pitch_bend_c, 3, 8192
3, 274720, Pitch_bend_c, 3, 8192
3, 274720, Pitch_bend_c, 3, 8192
3, 274880, Pitch_bend_c, 3, 8320
3, 274880, Pitch_bend_c, 3, 8320
3, 274880, Pitch_bend_c, 3, 8320
3, 275040, Pitch_bend_c, 3, 8192
3, 275040, Pitch_bend_c, 3, 8192
3, 275040, Pitch_bend_c, 3, 8192
3, 275200, Pitch_bend_c, 3, 8320
3, 275200, Pitch_bend_c, 3, 8320
3, 275200, Pitch_bend_c, 3, 8320
3, 275360, Pitch_bend_c, 3, 8192
3, 275360, Pitch_bend_c, 3, 8192
3, 275360, Pitch_bend_c, 3, 8192
3, 275520, Pitch_bend_c, 3, 8320
3, 275520, Pitch_bend_c, 3, 8320
3, 275520, Pitch_bend_c, 3, 8320
3, 275680, Pitch_bend_c, 3, 8192
3, 275680, Pitch_bend_c, 3, 8192
3, 275680, Pitch_bend_c, 3, 8192
3, 275840, Pitch_bend_c, 3, 8320
3, 275840, Pitch_bend_c, 3, 8320
3, 275840, Pitch_bend_c, 3, 8320
3, 276000, Pitch_bend_c, 3, 8192
3, 276000, Pitch_bend_c, 3, 8192
3, 276000, Pitch_bend_c, 3, 8192
3, 276160, Pitch_bend_c, 3, 8320
3, 276160, Pitch_bend_c, 3, 8320
3, 276160, Pitch_bend_c, 3, 8320
3, 276320, Pitch_bend_c, 3, 8192
3, 276320, Pitch_bend_c, 3, 8192
3, 276320, Pitch_bend_c, 3, 8192
3, 276480, Pitch_bend_c, 3, 8320
3, 276480, Pitch_bend_c, 3, 8192
3, 276480, Note_off_c, 3, 62, 95
3, 276480, Pitch_bend_c, 3, 8320
3, 276480, Pitch_bend_c, 3, 8192
3, 276480, Note_off_c, 3, 57, 95
3, 276480, Pitch_bend_c, 3, 8320
3, 276480, Pitch_bend_c, 3, 8192
3, 276480, Note_off_c, 3, 50, 95
3, 276480, Note_on_c, 2, 52, 95
3, 276480, Note_on_c, 2, 45, 95
3, 276525, Note_off_c, 2, 52, 95
3, 276525, Note_off_c, 2, 45, 95
3, 277440, Note_on_c, 2, 52, 95
3, 277440, Note_on_c, 2, 45, 95
3, 277485, Note_off_c, 2, 52, 95
3, 277485, Note_off_c, 2, 45, 95
3, 277920, Note_on_c, 3, 57, 95
3, 277920, Note_on_c, 3, 50, 95
3, 278080, Pitch_bend_c, 3, 8192
3, 278080, Pitch_bend_c, 3, 8192
3, 278240, Pitch_bend_c, 3, 8320
3, 278240, Pitch_bend_c, 3, 8320
3, 278400, Pitch_bend_c, 3, 8192
3, 278400, Pitch_bend_c, 3, 8192
3, 278560, Pitch_bend_c, 3, 8320
3, 278560, Pitch_bend_c, 3, 8320
3, 278720, Pitch_bend_c, 3, 8192
3, 278720, Pitch_bend_c, 3, 8192
3, 278880, Pitch_bend_c, 3, 8320
3, 278880, Pitch_bend_c, 3, 8320
3, 279040, Pitch_bend_c, 3, 8192
3, 279040, Pitch_bend_c, 3, 8192
3, 279200, Pitch_bend_c, 3, 8320
3, 279200, Pitch_bend_c, 3, 8320
3, 279360, Pitch_bend_c, 3, 8192
3, 279360, Pitch_bend_c, 3, 8192
3, 279520, Pitch_bend_c, 3, 8320
3, 279520, Pitch_bend_c, 3, 8320
3, 279680, Pitch_bend_c, 3, 8192
3, 279680, Pitch_bend_c, 3, 8192
3, 279840, Pitch_bend_c, 3, 8320
3, 279840, Pitch_bend_c, 3, 8320
3, 280000, Pitch_bend_c, 3, 8192
3, 280000, Pitch_bend_c, 3, 8192
3, 280160, Pitch_bend_c, 3, 8320
3, 280160, Pitch_bend_c, 3, 8320
3, 280320, Pitch_bend_c, 3, 8192
3, 280320, Pitch_bend_c, 3, 8320
3, 280320, Pitch_bend_c, 3, 8192
3, 280320, Note_off_c, 3, 57, 95
3, 280320, Pitch_bend_c, 3, 8192
3, 280320, Pitch_bend_c, 3, 8320
3, 280320, Pitch_bend_c, 3, 8192
3, 280320, Note_off_c, 3, 50, 95
3, 280320, Note_on_c, 2, 60, 95
3, 280320, Note_on_c, 2, 55, 95
3, 280320, Note_on_c, 2, 48, 95
3, 281280, Note_off_c, 2, 60, 95
3, 281280, Note_off_c, 2, 55, 95
3, 281280, Note_off_c, 2, 48, 95
3, 281280, Note_on_c, 2, 45, 95
3, 281760, Note_off_c, 2, 45, 95
3, 281760, Note_on_c, 2, 45, 95
3, 282720, Note_off_c, 2, 45, 95
3, 283200, Note_on_c, 2, 55, 95
3, 283920, Note_off_c, 2, 55, 95
3, 283920, Note_on_c, 2, 52, 95
3, 284160, Note_off_c, 2, 52, 95
3, 284160, Note_on_c, 2, 48, 95
3, 284640, Note_off_c, 2, 48, 95
3, 284640, Note_on_c, 2, 57, 95
3, 284640, Note_on_c, 2, 52, 95
3, 285120, Note_off_c, 2, 57, 95
3, 285120, Note_off_c, 2, 52, 95
3, 285120, Note_on_c, 2, 57, 95
3, 285120, Note_on_c, 2, 54, 95
3, 285600, Note_off_c, 2, 57, 95
3, 285600, Note_off_c, 2, 54, 95
3, 285600, Note_on_c, 2, 57, 95
3, 285600, Note_on_c, 2, 52, 95
3, 286560, Note_off_c, 2, 57, 95
3, 286560, Note_off_c, 2, 52, 95
3, 286920, Note_on_c, 3, 54, 95
3, 287040, Note_off_c, 3, 54, 95
3, 287040, Note_on_c, 3, 55, 95
3, 287520, Note_off_c, 3, 55, 95
3, 287520, Note_on_c, 2, 54, 70
3, 287760, Note_off_c, 2, 54, 70
3, 287760, Note_on_c, 2, 52, 70
3, 288000, Note_off_c, 2, 52, 70
3, 288000, Note_on_c, 2, 48, 95
3, 288480, Note_off_c, 2, 48, 95
3, 288480, Note_on_c, 2, 57, 95
3, 288480, Note_on_c, 2, 52, 95
3, 288960, Note_off_c, 2, 57, 95
3, 288960, Note_off_c, 2, 52, 95
3, 288960, Note_on_c, 2, 54, 95
3, 289440, Note_off_c, 2, 54, 95
3, 289440, Note_on_c, 2, 61, 95
3, 289440, Note_on_c, 2, 57, 95
3, 289440, Note_on_c, 2, 52, 95
3, 289920, Note_off_c, 2, 61, 95
3, 289920, Note_off_c, 2, 57, 95
3, 289920, Note_off_c, 2, 52, 95
3, 289920, Note_on_c, 2, 45, 95
3, 290400, Note_off_c, 2, 45, 95
3, 290400, Note_on_c, 2, 57, 95
3, 290400, Note_on_c, 2, 52, 95
3, 290880, Note_off_c, 2, 57, 95
3, 290880, Note_off_c, 2, 52, 95
3, 291360, Note_on_c, 2, 50, 95
3, 292320, Note_off_c, 2, 50, 95
3, 292320, Note_on_c, 3, 62, 95
3, 292320, Note_on_c, 3, 57, 95
3, 292320, Note_on_c, 3, 50, 95
3, 292480, Pitch_bend_c, 3, 8192
3, 292480, Pitch_bend_c, 3, 8192
3, 292480, Pitch_bend_c, 3, 8192
3, 292640, Pitch_bend_c, 3, 8320
3, 292640, Pitch_bend_c, 3, 8320
3, 292640, Pitch_bend_c, 3, 8320
3, 292800, Pitch_bend_c, 3, 8192
3, 292800, Pitch_bend_c, 3, 8192
3, 292800, Pitch_bend_c, 3, 8192
3, 292960, Pitch_bend_c, 3, 8320
3, 292960, Pitch_bend_c, 3, 8320
3, 292960, Pitch_bend_c, 3, 8320
3, 293120, Pitch_bend_c, 3, 8192
3, 293120, Pitch_bend_c, 3, 8192
3, 293120, Pitch_bend_c, 3, 8192
3, 293280, Pitch_bend_c, 3, 8320
3, 293280, Pitch_bend_c, 3, 8192
3, 293280, Note_off_c, 3, 62, 95
3, 293280, Pitch_bend_c, 3, 8320
3, 293280, Pitch_bend_c, 3, 8192
3, 293280, Note_off_c, 3, 57, 95
3, 293280, Pitch_bend_c, 3, 8320
3, 293280, Pitch_bend_c, 3, 8192
3, 293280, Note_off_c, 3, 50, 95
3, 293280, Note_on_c, 2, 50, 95
3, 294240, Note_off_c, 2, 50, 95
3, 294240, Note_on_c, 2, 50, 95
3, 294720, Note_off_c, 2, 50, 95
3, 295200, Note_on_c, 3, 50, 95
3, 295360, Pitch_bend_c, 3, 8192
3, 295520, Pitch_bend_c, 3, 8320
3, 295680, Pitch_bend_c, 3, 8192
3, 295840, Pitch_bend_c, 3, 8320
3, 296000, Pitch_bend_c, 3, 8192
3, 296160, Pitch_bend_c, 3, 8320
3, 296320, Pitch_bend_c, 3, 8192
3, 296480, Pitch_bend_c, 3, 8320
3, 296640, Pitch_bend_c, 3, 8192
3, 296640, Pitch_bend_c, 3, 8320
3, 296640, Pitch_bend_c, 3, 8192
3, 296640, Note_off_c, 3, 50, 95
3, 297600, Note_on_c, 2, 48, 95
3, 298560, Note_off_c, 2, 48, 95
3, 298560, Note_on_c, 2, 45, 95
3, 299040, Note_off_c, 2, 45, 95
3, 299040, Note_on_c, 2, 45, 95
3, 299520, Note_off_c, 2, 45, 95
3, 300480, Note_on_c, 2, 55, 95
3, 301200, Note_off_c, 2, 55, 95
3, 301200, Note_on_c, 2, 52, 95
3, 301440, Note_off_c, 2, 52, 95
3, 301440, Note_on_c, 2, 48, 95
3, 301920, Note_off_c, 2, 48, 95
3, 301920, Note_on_c, 2, 57, 95
3, 301920, Note_on_c, 2, 52, 95
3, 302400, Note_off_c, 2, 57, 95
3, 302400, Note_off_c, 2, 52, 95
3, 302400, Note_on_c, 2, 54, 95
3, 302880, Note_off_c, 2, 54, 95
3, 302880, Note_on_c, 2, 57, 95
3, 302880, Note_on_c, 2, 52, 95
3, 303360, Note_off_c, 2, 57, 95
3, 303360, Note_off_c, 2, 52, 95
3, 304200, Note_on_c, 3, 54, 95
3, 304320, Note_off_c, 3, 54, 95
3, 304320, Note_on_c, 3, 55, 95
3, 304800, Note_off_c, 3, 55, 95
3, 304800, Note_on_c, 2, 55, 47
3, 304960, Note_off_c, 2, 55, 47
3, 304960, Note_on_c, 2, 54, 70
3, 305120, Note_off_c, 2, 54, 70
3, 305120, Note_on_c, 2, 52, 70
3, 305280, Note_off_c, 2, 52, 70
3, 305280, Note_on_c, 2, 48, 95
3, 305760, Note_off_c, 2, 48, 95
3, 305760, Note_on_c, 2, 52, 95
3, 306240, Note_off_c, 2, 52, 95
3, 306240, Note_on_c, 2, 54, 95
3, 306720, Note_off_c, 2, 54, 95
3, 306720, Note_on_c, 2, 57, 95
3, 306720, Note_on_c, 2, 52, 70
3, 307200, Note_off_c, 2, 57, 95
3, 307200, Note_off_c, 2, 52, 70
3, 307200, Note_on_c, 2, 45, 95
3, 308160, Note_off_c, 2, 45, 95
3, 308160, Note_on_c, 2, 52, 95
3, 308400, Note_off_c, 2, 52, 95
3, 308400, Note_on_c, 2, 54, 70
3, 308640, Note_off_c, 2, 54, 70
3, 308640, Note_on_c, 3, 58, 95
3, 308640, Note_on_c, 3, 51, 95
3, 308760, Pitch_bend_c, 3, 8320
3, 308760, Pitch_bend_c, 3, 8320
3, 308880, Pitch_bend_c, 3, 8448
3, 308880, Pitch_bend_c, 3, 8448
3, 309000, Pitch_bend_c, 3, 8704
3, 309000, Pitch_bend_c, 3, 8704
3, 309120, Pitch_bend_c, 3, 8832
3, 309120, Pitch_bend_c, 3, 8192
3, 309120, Note_off_c, 3, 58, 95
3, 309120, Pitch_bend_c, 3, 8832
3, 309120, Pitch_bend_c, 3, 8192
3, 309120, Note_off_c, 3, 51, 95
3, 309120, Note_on_c, 3, 59, 95
3, 309120, Note_on_c, 3, 52, 95
3, 309280, Pitch_bend_c, 3, 8192
3, 309280, Pitch_bend_c, 3, 8192
3, 309440, Pitch_bend_c, 3, 8320
3, 309440, Pitch_bend_c, 3, 8320
3, 309600, Pitch_bend_c, 3, 8192
3, 309600, Pitch_bend_c, 3, 8192
3, 309760, Pitch_bend_c, 3, 8320
3, 309760, Pitch_bend_c, 3, 8320
3, 309920, Pitch_bend_c, 3, 8192
3, 309920, Pitch_bend_c, 3, 8192
3, 310080, Pitch_bend_c, 3, 8320
3, 310080, Pitch_bend_c, 3, 8320
3, 310240, Pitch_bend_c, 3, 8192
3, 310240, Pitch_bend_c, 3, 8192
3, 310400, Pitch_bend_c, 3, 8320
3, 310400, Pitch_bend_c, 3, 8320
3, 310560, Pitch_bend_c, 3, 8192
3, 310560, Pitch_bend_c, 3, 8192
3, 310720, Pitch_bend_c, 3, 8320
3, 310720, Pitch_bend_c, 3, 8320
3, 310880, Pitch_bend_c, 3, 8192
3, 310880, Pitch_bend_c, 3, 8192
3, 311040, Pitch_bend_c, 3, 8320
3, 311040, Pitch_bend_c, 3, 8320
3, 311200, Pitch_bend_c, 3, 8192
3, 311200, Pitch_bend_c, 3, 8192
3, 311360, Pitch_bend_c, 3, 8320
3, 311360, Pitch_bend_c, 3, 8320
3, 311520, Pitch_bend_c, 3, 8192
3, 311520, Pitch_bend_c, 3, 8192
3, 311680, Pitch_bend_c, 3, 8320
3, 311680, Pitch_bend_c, 3, 8320
3, 311840, Pitch_bend_c, 3, 8192
3, 311840, Pitch_bend_c, 3, 8192
3, 312000, Pitch_bend_c, 3, 8320
3, 312000, Pitch_bend_c, 3, 8192
3, 312000, Note_off_c, 3, 59, 95
3, 312000, Pitch_bend_c, 3, 8320
3, 312000, Pitch_bend_c, 3, 8192
3, 312000, Note_off_c, 3, 52, 95
3, 312000, Note_on_c, 2, 52, 95
3, 312000, Note_on_c, 2, 45, 95
3, 312045, Note_off_c, 2, 52, 95
3, 312045, Note_off_c, 2, 45, 95
3, 312960, Note_on_c, 3, 50, 95
3, 313120, Pitch_bend_c, 3, 8192
3, 313280, Pitch_bend_c, 3, 8320
3, 313440, Pitch_bend_c, 3, 8192
3, 313600, Pitch_bend_c, 3, 8320
3, 313760, Pitch_bend_c, 3, 8192
3, 313920, Pitch_bend_c, 3, 8320
3, 313920, Pitch_bend_c, 3, 8192
3, 313920, Note_off_c, 3, 50, 95
3, 313920, Note_on_c, 2, 48, 95
3, 314880, Note_off_c, 2, 48, 95
3, 314880, Note_on_c, 2, 55, 95
3, 315720, Note_on_c, 3, 55, 95
3, 315840, Note_off_c, 2, 55, 95
3, 315840, Note_off_c, 3, 55, 95
3, 315840, Note_on_c, 3, 57, 95
3, 316000, Pitch_bend_c, 3, 8192
3, 316160, Pitch_bend_c, 3, 8320
3, 316320, Pitch_bend_c, 3, 8192
3, 316480, Pitch_bend_c, 3, 8320
3, 316640, Pitch_bend_c, 3, 8192
3, 316800, Pitch_bend_c, 3, 8320
3, 316800, Pitch_bend_c, 3, 8192
3, 316800, Note_off_c, 3, 57, 95
3, 316800, Note_on_c, 2, 57, 47
3, 317760, Note_off_c, 2, 57, 47
3, 317760, Note_on_c, 2, 55, 95
3, 318480, Note_off_c, 2, 55, 95
3, 318480, Note_on_c, 2, 52, 95
3, 318720, Note_off_c, 2, 52, 95
3, 318720, Note_on_c, 2, 48, 95
3, 319200, Note_off_c, 2, 48, 95
3, 319200, Note_on_c, 2, 57, 95
3, 319200, Note_on_c, 2, 52, 95
3, 319680, Note_off_c, 2, 57, 95
3, 319680, Note_off_c, 2, 52, 95
3, 319680, Note_on_c, 2, 54, 95
3, 320160, Note_off_c, 2, 54, 95
3, 320160, Note_on_c, 2, 57, 95
3, 320160, Note_on_c, 2, 52, 95
3, 320640, Note_off_c, 2, 57, 95
3, 320640, Note_off_c, 2, 52, 95
3, 321600, Note_on_c, 2, 55, 95
3, 322320, Note_off_c, 2, 55, 95
3, 322320, Note_on_c, 2, 52, 95
3, 322560, Note_off_c, 2, 52, 95
3, 322560, Note_on_c, 2, 48, 95
3, 323040, Note_off_c, 2, 48, 95
3, 323040, Note_on_c, 2, 57, 95
3, 323040, Note_on_c, 2, 52, 95
3, 323520, Note_off_c, 2, 57, 95
3, 323520, Note_off_c, 2, 52, 95
3, 323520, Note_on_c, 2, 54, 95
3, 324000, Note_off_c, 2, 54, 95
3, 324000, Note_on_c, 2, 57, 95
3, 324000, Note_on_c, 2, 52, 95
3, 324480, Note_off_c, 2, 57, 95
3, 324480, Note_off_c, 2, 52, 95
3, 324480, Note_on_c, 2, 45, 95
3, 324960, Note_off_c, 2, 45, 95
3, 324960, Note_on_c, 2, 57, 95
3, 324960, Note_on_c, 2, 52, 95
3, 325440, Note_off_c, 2, 57, 95
3, 325440, Note_off_c, 2, 52, 95
3, 325920, Note_on_c, 2, 62, 95
3, 325920, Note_on_c, 2, 57, 95
3, 325920, Note_on_c, 2, 50, 95
3, 326400, Note_off_c, 2, 62, 95
3, 326400, Note_off_c, 2, 57, 95
3, 326400, Note_off_c, 2, 50, 95
3, 326400, Note_on_c, 3, 62, 95
3, 326400, Note_on_c, 3, 57, 95
3, 326400, Note_on_c, 3, 50, 95
3, 326560, Pitch_bend_c, 3, 8192
3, 326560, Pitch_bend_c, 3, 8192
3, 326560, Pitch_bend_c, 3, 8192
3, 326720, Pitch_bend_c, 3, 8320
3, 326720, Pitch_bend_c, 3, 8320
3, 326720, Pitch_bend_c, 3, 8320
3, 326880, Pitch_bend_c, 3, 8192
3, 326880, Pitch_bend_c, 3, 8192
3, 326880, Pitch_bend_c, 3, 8192
3, 327040, Pitch_bend_c, 3, 8320
3, 327040, Pitch_bend_c, 3, 8320
3, 327040, Pitch_bend_c, 3, 8320
3, 327200, Pitch_bend_c, 3, 8192
3, 327200, Pitch_bend_c, 3, 8192
3, 327200, Pitch_bend_c, 3, 8192
3, 327360, Pitch_bend_c, 3, 8320
3, 327360, Pitch_bend_c, 3, 8320
3, 327360, Pitch_bend_c, 3, 8320
3, 327520, Pitch_bend_c, 3, 8192
3, 327520, Pitch_bend_c, 3, 8192
3, 327520, Pitch_bend_c, 3, 8192
3, 327680, Pitch_bend_c, 3, 8320
3, 327680, Pitch_bend_c, 3, 8320
3, 327680, Pitch_bend_c, 3, 8320
3, 327840, Pitch_bend_c, 3, 8192
3, 327840, Pitch_bend_c, 3, 8192
3, 327840, Pitch_bend_c, 3, 8192
3, 328000, Pitch_bend_c, 3, 8320
3, 328000, Pitch_bend_c, 3, 8320
3, 328000, Pitch_bend_c, 3, 8320
3, 328160, Pitch_bend_c, 3, 8192
3, 328160, Pitch_bend_c, 3, 8192
3, 328160, Pitch_bend_c, 3, 8192
3, 328320, Pitch_bend_c, 3, 8320
3, 328320, Pitch_bend_c, 3, 8192
3, 328320, Note_off_c, 3, 62, 95
3, 328320, Pitch_bend_c, 3, 8320
3, 328320, Pitch_bend_c, 3, 8192
3, 328320, Note_off_c, 3, 57, 95
3, 328320, Pitch_bend_c, 3, 8320
3, 328320, Pitch_bend_c, 3, 8192
3, 328320, Note_off_c, 3, 50, 95
3, 328320, Note_on_c, 2, 52, 95
3, 328320, Note_on_c, 2, 45, 95
3, 328365, Note_off_c, 2, 52, 95
3, 328365, Note_off_c, 2, 45, 95
3, 329280, Note_on_c, 2, 52, 95
3, 329280, Note_on_c, 2, 45, 95
3, 329325, Note_off_c, 2, 52, 95
3, 329325, Note_off_c, 2, 45, 95
3, 329760, Note_on_c, 3, 57, 95
3, 329760, Note_on_c, 3, 50, 95
3, 329920, Pitch_bend_c, 3, 8192
3, 329920, Pitch_bend_c, 3, 8192
3, 330080, Pitch_bend_c, 3, 8320
3, 330080, Pitch_bend_c, 3, 8320
3, 330240, Pitch_bend_c, 3, 8192
3, 330240, Pitch_bend_c, 3, 8192
3, 330400, Pitch_bend_c, 3, 8320
3, 330400, Pitch_bend_c, 3, 8320
3, 330560, Pitch_bend_c, 3, 8192
3, 330560, Pitch_bend_c, 3, 8192
3, 330720, Pitch_bend_c, 3, 8320
3, 330720, Pitch_bend_c, 3, 8320
3, 330880, Pitch_bend_c, 3, 8192
3, 330880, Pitch_bend_c, 3, 8192
3, 331040, Pitch_bend_c, 3, 8320
3, 331040, Pitch_bend_c, 3, 8320
3, 331200, Pitch_bend_c, 3, 8192
3, 331200, Pitch_bend_c, 3, 8192
3, 331360, Pitch_bend_c, 3, 8320
3, 331360, Pitch_bend_c, 3, 8320
3, 331520, Pitch_bend_c, 3, 8192
3, 331520, Pitch_bend_c, 3, 8192
3, 331680, Pitch_bend_c, 3, 8320
3, 331680, Pitch_bend_c, 3, 8320
3, 331840, Pitch_bend_c, 3, 8192
3, 331840, Pitch_bend_c, 3, 8192
3, 332000, Pitch_bend_c, 3, 8320
3, 332000, Pitch_bend_c, 3, 8320
3, 332160, Pitch_bend_c, 3, 8192
3, 332160, Pitch_bend_c, 3, 8320
3, 332160, Pitch_bend_c, 3, 8192
3, 332160, Note_off_c, 3, 57, 95
3, 332160, Pitch_bend_c, 3, 8192
3, 332160, Pitch_bend_c, 3, 8320
3, 332160, Pitch_bend_c, 3, 8192
3, 332160, Note_off_c, 3, 50, 95
3, 332160, Note_on_c, 2, 60, 95
3, 332160, Note_on_c, 2, 55, 95
3, 332160, Note_on_c, 2, 48, 95
3, 333120, Note_off_c, 2, 60, 95
3, 333120, Note_off_c, 2, 55, 95
3, 333120, Note_off_c, 2, 48, 95
3, 333120, Note_on_c, 2, 45, 95
3, 333600, Note_off_c, 2, 45, 95
3, 333600, Note_on_c, 2, 45, 95
3, 334560, Note_off_c, 2, 45, 95
3, 335040, Note_on_c, 2, 55, 95
3, 335760, Note_off_c, 2, 55, 95
3, 335760, Note_on_c, 2, 52, 95
3, 336000, Note_off_c, 2, 52, 95
3, 336000, Note_on_c, 2, 48, 95
3, 336480, Note_off_c, 2, 48, 95
3, 336480, Note_on_c, 2, 57, 95
3, 336480, Note_on_c, 2, 52, 95
3, 336960, Note_off_c, 2, 57, 95
3, 336960, Note_off_c, 2, 52, 95
3, 336960, Note_on_c, 2, 57, 95
3, 336960, Note_on_c, 2, 54, 95
3, 337440, Note_off_c, 2, 57, 95
3, 337440, Note_off_c, 2, 54, 95
3, 337440, Note_on_c, 2, 57, 95
3, 337440, Note_on_c, 2, 52, 95
3, 338400, Note_off_c, 2, 57, 95
3, 338400, Note_off_c, 2, 52, 95
3, 338760, Note_on_c, 3, 54, 95
3, 338880, Note_off_c, 3, 54, 95
3, 338880, Note_on_c, 3, 55, 95
3, 339360, Note_off_c, 3, 55, 95
3, 339360, Note_on_c, 2, 54, 70
3, 339600, Note_off_c, 2, 54, 70
3, 339600, Note_on_c, 2, 52, 70
3, 339840, Note_off_c, 2, 52, 70
3, 339840, Note_on_c, 2, 48, 95
3, 340320, Note_off_c, 2, 48, 95
3, 340320, Note_on_c, 2, 57, 95
3, 340320, Note_on_c, 2, 52, 95
3, 340800, Note_off_c, 2, 57, 95
3, 340800, Note_off_c, 2, 52, 95
3, 340800, Note_on_c, 2, 54, 95
3, 341280, Note_off_c, 2, 54, 95
3, 341280, Note_on_c, 2, 61, 95
3, 341280, Note_on_c, 2, 57, 95
3, 341280, Note_on_c, 2, 52, 95
3, 341760, Note_off_c, 2, 61, 95
3, 341760, Note_off_c, 2, 57, 95
3, 341760, Note_off_c, 2, 52, 95
3, 341760, Note_on_c, 2, 45, 95
3, 342240, Note_off_c, 2, 45, 95
3, 342240, Note_on_c, 2, 57, 95
3, 342240, Note_on_c, 2, 52, 95
3, 342720, Note_off_c, 2, 57, 95
3, 342720, Note_off_c, 2, 52, 95
3, 343200, Note_on_c, 2, 50, 95
3, 344160, Note_off_c, 2, 50, 95
3, 344160, Note_on_c, 3, 62, 95
3, 344160, Note_on_c, 3, 57, 95
3, 344160, Note_on_c, 3, 50, 95
3, 344320, Pitch_bend_c, 3, 8192
3, 344320, Pitch_bend_c, 3, 8192
3, 344320, Pitch_bend_c, 3, 8192
3, 344480, Pitch_bend_c, 3, 8320
3, 344480, Pitch_bend_c, 3, 8320
3, 344480, Pitch_bend_c, 3, 8320
3, 344640, Pitch_bend_c, 3, 8192
3, 344640, Pitch_bend_c, 3, 8192
3, 344640, Pitch_bend_c, 3, 8192
3, 344800, Pitch_bend_c, 3, 8320
3, 344800, Pitch_bend_c, 3, 8320
3, 344800, Pitch_bend_c, 3, 8320
3, 344960, Pitch_bend_c, 3, 8192
3, 344960, Pitch_bend_c, 3, 8192
3, 344960, Pitch_bend_c, 3, 8192
3, 345120, Pitch_bend_c, 3, 8320
3, 345120, Pitch_bend_c, 3, 8192
3, 345120, Note_off_c, 3, 62, 95
3, 345120, Pitch_bend_c, 3, 8320
3, 345120, Pitch_bend_c, 3, 8192
3, 345120, Note_off_c, 3, 57, 95
3, 345120, Pitch_bend_c, 3, 8320
3, 345120, Pitch_bend_c, 3, 8192
3, 345120, Note_off_c, 3, 50, 95
3, 345120, Note_on_c, 2, 50, 95
3, 346080, Note_off_c, 2, 50, 95
3, 346080, Note_on_c, 2, 50, 95
3, 346560, Note_off_c, 2, 50, 95
3, 347040, Note_on_c, 3, 50, 95
3, 347200, Pitch_bend_c, 3, 8192
3, 347360, Pitch_bend_c, 3, 8320
3, 347520, Pitch_bend_c, 3, 8192
3, 347680, Pitch_bend_c, 3, 8320
3, 347840, Pitch_bend_c, 3, 8192
3, 348000, Pitch_bend_c, 3, 8320
3, 348160, Pitch_bend_c, 3, 8192
3, 348320, Pitch_bend_c, 3, 8320
3, 348480, Pitch_bend_c, 3, 8192
3, 348480, Pitch_bend_c, 3, 8320
3, 348480, Pitch_bend_c, 3, 8192
3, 348480, Note_off_c, 3, 50, 95
3, 349440, Note_on_c, 2, 48, 95
3, 350400, Note_off_c, 2, 48, 95
3, 350400, Note_on_c, 2, 45, 95
3, 350880, Note_off_c, 2, 45, 95
3, 350880, Note_on_c, 2, 45, 95
3, 351360, Note_off_c, 2, 45, 95
3, 352320, Note_on_c, 2, 55, 95
3, 353040, Note_off_c, 2, 55, 95
3, 353040, Note_on_c, 2, 52, 95
3, 353280, Note_off_c, 2, 52, 95
3, 353280, Note_on_c, 2, 48, 95
3, 353760, Note_off_c, 2, 48, 95
3, 353760, Note_on_c, 2, 57, 95
3, 353760, Note_on_c, 2, 52, 95
3, 354240, Note_off_c, 2, 57, 95
3, 354240, Note_off_c, 2, 52, 95
3, 354240, Note_on_c, 2, 54, 95
3, 354720, Note_off_c, 2, 54, 95
3, 354720, Note_on_c, 2, 57, 95
3, 354720, Note_on_c, 2, 52, 95
3, 355200, Note_off_c, 2, 57, 95
3, 355200, Note_off_c, 2, 52, 95
3, 356040, Note_on_c, 3, 54, 95
3, 356160, Note_off_c, 3, 54, 95
3, 356160, Note_on_c, 3, 55, 95
3, 356640, Note_off_c, 3, 55, 95
3, 356640, Note_on_c, 2, 55, 47
3, 356800, Note_off_c, 2, 55, 47
3, 356800, Note_on_c, 2, 54, 70
3, 356960, Note_off_c, 2, 54, 70
3, 356960, Note_on_c, 2, 52, 70
3, 357120, Note_off_c, 2, 52, 70
3, 357120, Note_on_c, 2, 48, 95
3, 357600, Note_off_c, 2, 48, 95
3, 357600, Note_on_c, 2, 52, 95
3, 358080, Note_off_c, 2, 52, 95
3, 358080, Note_on_c, 2, 54, 95
3, 358560, Note_off_c, 2, 54, 95
3, 358560, Note_on_c, 2, 57, 95
3, 358560, Note_on_c, 2, 52, 70
3, 359040, Note_off_c, 2, 57, 95
3, 359040, Note_off_c, 2, 52, 70
3, 359040, Note_on_c, 2, 45, 95
3, 360000, Note_off_c, 2, 45, 95
3, 360000, Note_on_c, 2, 52, 95
3, 360240, Note_off_c, 2, 52, 95
3, 360240, Note_on_c, 2, 54, 70
3, 360480, Note_off_c, 2, 54, 70
3, 360480, Note_on_c, 3, 58, 95
3, 360480, Note_on_c, 3, 51, 95
3, 360600, Pitch_bend_c, 3, 8320
3, 360600, Pitch_bend_c, 3, 8320
3, 360720, Pitch_bend_c, 3, 8448
3, 360720, Pitch_bend_c, 3, 8448
3, 360840, Pitch_bend_c, 3, 8704
3, 360840, Pitch_bend_c, 3, 8704
3, 360960, Pitch_bend_c, 3, 8832
3, 360960, Pitch_bend_c, 3, 8192
3, 360960, Note_off_c, 3, 58, 95
3, 360960, Pitch_bend_c, 3, 8832
3, 360960, Pitch_bend_c, 3, 8192
3, 360960, Note_off_c, 3, 51, 95
3, 360960, Note_on_c, 3, 59, 95
3, 360960, Note_on_c, 3, 52, 95
3, 361120, Pitch_bend_c, 3, 8192
3, 361120, Pitch_bend_c, 3, 8192
3, 361280, Pitch_bend_c, 3, 8320
3, 361280, Pitch_bend_c, 3, 8320
3, 361440, Pitch_bend_c, 3, 8192
3, 361440, Pitch_bend_c, 3, 8192
3, 361600, Pitch_bend_c, 3, 8320
3, 361600, Pitch_bend_c, 3, 8320
3, 361760, Pitch_bend_c, 3, 8192
3, 361760, Pitch_bend_c, 3, 8192
3, 361920, Pitch_bend_c, 3, 8320
3, 361920, Pitch_bend_c, 3, 8320
3, 362080, Pitch_bend_c, 3, 8192
3, 362080, Pitch_bend_c, 3, 8192
3, 362240, Pitch_bend_c, 3, 8320
3, 362240, Pitch_bend_c, 3, 8320
3, 362400, Pitch_bend_c, 3, 8192
3, 362400, Pitch_bend_c, 3, 8192
3, 362560, Pitch_bend_c, 3, 8320
3, 362560, Pitch_bend_c, 3, 8320
3, 362720, Pitch_bend_c, 3, 8192
3, 362720, Pitch_bend_c, 3, 8192
3, 362880, Pitch_bend_c, 3, 8320
3, 362880, Pitch_bend_c, 3, 8320
3, 363040, Pitch_bend_c, 3, 8192
3, 363040, Pitch_bend_c, 3, 8192
3, 363200, Pitch_bend_c, 3, 8320
3, 363200, Pitch_bend_c, 3, 8320
3, 363360, Pitch_bend_c, 3, 8192
3, 363360, Pitch_bend_c, 3, 8192
3, 363520, Pitch_bend_c, 3, 8320
3, 363520, Pitch_bend_c, 3, 8320
3, 363680, Pitch_bend_c, 3, 8192
3, 363680, Pitch_bend_c, 3, 8192
3, 363840, Pitch_bend_c, 3, 8320
3, 363840, Pitch_bend_c, 3, 8192
3, 363840, Note_off_c, 3, 59, 95
3, 363840, Pitch_bend_c, 3, 8320
3, 363840, Pitch_bend_c, 3, 8192
3, 363840, Note_off_c, 3, 52, 95
3, 363840, Note_on_c, 2, 52, 95
3, 363840, Note_on_c, 2, 45, 95
3, 363885, Note_off_c, 2, 52, 95
3, 363885, Note_off_c, 2, 45, 95
3, 364800, Note_on_c, 3, 50, 95
3, 364960, Pitch_bend_c, 3, 8192
3, 365120, Pitch_bend_c, 3, 8320
3, 365280, Pitch_bend_c, 3, 8192
3, 365440, Pitch_bend_c, 3, 8320
3, 365600, Pitch_bend_c, 3, 8192
3, 365760, Pitch_bend_c, 3, 8320
3, 365760, Pitch_bend_c, 3, 8192
3, 365760, Note_off_c, 3, 50, 95
3, 365760, Note_on_c, 2, 48, 95
3, 366720, Note_off_c, 2, 48, 95
3, 366720, Note_on_c, 2, 55, 95
3, 367560, Note_on_c, 3, 55, 95
3, 367680, Note_off_c, 2, 55, 95
3, 367680, Note_off_c, 3, 55, 95
3, 367680, Note_on_c, 3, 57, 95
3, 367840, Pitch_bend_c, 3, 8192
3, 368000, Pitch_bend_c, 3, 8320
3, 368160, Pitch_bend_c, 3, 8192
3, 368320, Pitch_bend_c, 3, 8320
3, 368480, Pitch_bend_c, 3, 8192
3, 368640, Pitch_bend_c, 3, 8320
3, 368640, Pitch_bend_c, 3, 8192
3, 368640, Note_off_c, 3, 57, 95
3, 368640, Note_on_c, 2, 57, 47
3, 369600, Note_off_c, 2, 57, 47
3, 369600, Note_on_c, 2, 55, 95
3, 370320, Note_off_c, 2, 55, 95
3, 370320, Note_on_c, 2, 52, 95
3, 370560, Note_off_c, 2, 52, 95
3, 370560, Note_on_c, 2, 48, 95
3, 371040, Note_off_c, 2, 48, 95
3, 371040, Note_on_c, 2, 57, 95
3, 371040, Note_on_c, 2, 52, 95
3, 371520, Note_off_c, 2, 57, 95
3, 371520, Note_off_c, 2, 52, 95
3, 371520, Note_on_c, 2, 54, 95
3, 372000, Note_off_c, 2, 54, 95
3, 372000, Note_on_c, 2, 57, 95
3, 372000, Note_on_c, 2, 52, 95
3, 372480, Note_off_c, 2, 57, 95
3, 372480, Note_off_c, 2, 52, 95
3, 373440, Note_on_c, 2, 55, 95
3, 374160, Note_off_c, 2, 55, 95
3, 374160, Note_on_c, 2, 52, 95
3, 374400, Note_off_c, 2, 52, 95
3, 374400, Note_on_c, 2, 48, 95
3, 374880, Note_off_c, 2, 48, 95
3, 374880, Note_on_c, 2, 57, 95
3, 374880, Note_on_c, 2, 52, 95
3, 375360, Note_off_c, 2, 57, 95
3, 375360, Note_off_c, 2, 52, 95
3, 375360, Note_on_c, 2, 54, 95
3, 375840, Note_off_c, 2, 54, 95
3, 375840, Note_on_c, 2, 57, 95
3, 375840, Note_on_c, 2, 52, 95
3, 376320, Note_off_c, 2, 57, 95
3, 376320, Note_off_c, 2, 52, 95
3, 377280, Note_on_c, 3, 55, 95
3, 377440, Pitch_bend_c, 3, 8192
3, 377600, Pitch_bend_c, 3, 8320
3, 377760, Pitch_bend_c, 3, 8192
3, 377920, Pitch_bend_c, 3, 8320
3, 378000, Pitch_bend_c, 3, 8192
3, 378000, Pitch_bend_c, 3, 8320
3, 378000, Pitch_bend_c, 3, 8192
3, 378000, Note_off_c, 3, 55, 95
3, 378000, Note_on_c, 2, 52, 95
3, 378240, Note_off_c, 2, 52, 95
3, 378240, Note_on_c, 2, 48, 95
3, 378720, Note_off_c, 2, 48, 95
3, 378720, Note_on_c, 2, 57, 95
3, 378720, Note_on_c, 2, 52, 95
3, 379200, Note_off_c, 2, 57, 95
3, 379200, Note_off_c, 2, 52, 95
3, 379200, Note_on_c, 2, 54, 95
3, 379680, Note_off_c, 2, 54, 95
3, 379680, Note_on_c, 2, 52, 95
3, 380160, Note_off_c, 2, 52, 95
3, 380640, Note_on_c, 2, 69, 95
3, 380640, Note_on_c, 2, 64, 95
3, 381120, Note_off_c, 2, 69, 95
3, 381120, Note_off_c, 2, 64, 95
3, 381120, Note_on_c, 2, 69, 95
3, 381120, Note_on_c, 2, 64, 95
3, 381600, Note_off_c, 2, 69, 95
3, 381600, Note_off_c, 2, 64, 95
3, 381600, Note_on_c, 2, 69, 95
3, 381600, Note_on_c, 2, 64, 95
3, 381600, Note_on_c, 2, 57, 95
3, 384000, Note_off_c, 2, 69, 95
3, 384000, Note_off_c, 2, 64, 95
3, 384000, Note_off_c, 2, 57, 95
3, 384000, Note_on_c, 3, 69, 47
3, 384000, Note_on_c, 3, 64, 47
3, 384000, Note_on_c, 3, 57, 47
3, 384960, Note_off_c, 3, 69, 47
3, 384960, Note_off_c, 3, 64, 47
3, 384960, Note_off_c, 3, 57, 47
3, 384960, End_track
0, 0, End_of_file
