0, 0, Header, 0, 1, 120
1, 0, Start_track
1, 0, Title_t, "Treasure"
1, 0, Copyright_t, "www.midiart.de"
1, 0, Time_signature, 4, 2, 24, 8
1, 0, Key_signature, 0, "major"
1, 0, Tempo, 517241
1, 0, Lyric_t, "All_Right_Reserved_www.midiart.de "
1, 0, Lyric_t, "\015"
1, 30, System_exclusive, 5, 126, 127, 9, 1, 247
1, 30, System_exclusive, 10, 65, 16, 66, 18, 64, 0, 127, 0, 65, 247
1, 40, System_exclusive, 10, 65, 16, 66, 18, 64, 1, 48, 5, 10, 247
1, 270, Control_c, 0, 7, 100
1, 272, Control_c, 0, 10, 76
1, 272, Control_c, 0, 0, 0
1, 273, Control_c, 0, 32, 0
1, 274, Program_c, 0, 27
1, 276, Control_c, 0, 91, 50
1, 278, Control_c, 0, 93, 20
1, 279, Control_c, 0, 74, 59
1, 280, Control_c, 1, 7, 112
1, 282, Control_c, 1, 10, 64
1, 282, Control_c, 1, 0, 0
1, 283, Control_c, 1, 32, 0
1, 284, Program_c, 1, 36
1, 286, Control_c, 1, 91, 0
1, 288, Control_c, 1, 93, 20
1, 289, Control_c, 1, 74, 54
1, 290, Control_c, 2, 7, 80
1, 292, Control_c, 2, 10, 23
1, 292, Control_c, 2, 0, 0
1, 293, Control_c, 2, 32, 0
1, 294, Program_c, 2, 4
1, 296, Control_c, 2, 91, 30
1, 298, Control_c, 2, 93, 30
1, 300, Control_c, 3, 7, 120
1, 302, Control_c, 3, 10, 64
1, 302, Control_c, 3, 0, 0
1, 303, Control_c, 3, 32, 0
1, 304, Program_c, 3, 26
1, 306, Control_c, 3, 91, 50
1, 308, Control_c, 3, 93, 0
1, 310, Control_c, 4, 7, 100
1, 312, Control_c, 4, 10, 79
1, 312, Control_c, 4, 0, 0
1, 313, Control_c, 4, 32, 0
1, 314, Program_c, 4, 53
1, 316, Control_c, 4, 91, 0
1, 318, Control_c, 4, 93, 50
1, 319, Control_c, 4, 74, 54
1, 320, Control_c, 5, 7, 100
1, 322, Control_c, 5, 10, 42
1, 322, Control_c, 5, 0, 0
1, 323, Control_c, 5, 32, 0
1, 324, Program_c, 5, 53
1, 326, Control_c, 5, 91, 40
1, 328, Control_c, 5, 93, 20
1, 330, Control_c, 6, 7, 80
1, 332, Control_c, 6, 10, 71
1, 332, Control_c, 6, 0, 0
1, 333, Control_c, 6, 32, 0
1, 334, Program_c, 6, 88
1, 336, Control_c, 6, 91, 40
1, 338, Control_c, 6, 93, 20
1, 340, Control_c, 7, 7, 90
1, 342, Control_c, 7, 10, 52
1, 342, Control_c, 7, 0, 0
1, 343, Control_c, 7, 32, 0
1, 344, Program_c, 7, 62
1, 346, Control_c, 7, 91, 30
1, 348, Control_c, 7, 93, 50
1, 350, Control_c, 8, 7, 60
1, 352, Control_c, 8, 10, 77
1, 352, Control_c, 8, 0, 0
1, 353, Control_c, 8, 32, 0
1, 354, Program_c, 8, 50
1, 356, Control_c, 8, 91, 0
1, 358, Control_c, 8, 93, 10
1, 360, Control_c, 9, 7, 120
1, 362, Control_c, 9, 10, 64
1, 362, Control_c, 9, 0, 0
1, 363, Control_c, 9, 32, 0
1, 364, Program_c, 9, 0
1, 366, Control_c, 9, 91, 20
1, 368, Control_c, 9, 93, 0
1, 370, Control_c, 10, 7, 94
1, 372, Control_c, 10, 10, 45
1, 372, Control_c, 10, 0, 0
1, 373, Control_c, 10, 32, 0
1, 374, Program_c, 10, 27
1, 376, Control_c, 10, 91, 0
1, 378, Control_c, 10, 93, 0
1, 379, Control_c, 10, 74, 74
1, 380, Control_c, 11, 7, 80
1, 382, Control_c, 11, 10, 32
1, 382, Control_c, 11, 0, 1
1, 383, Control_c, 11, 32, 0
1, 384, Program_c, 11, 81
1, 386, Control_c, 11, 91, 70
1, 388, Control_c, 11, 93, 0
1, 390, Control_c, 12, 7, 60
1, 392, Control_c, 12, 10, 95
1, 392, Control_c, 12, 0, 1
1, 393, Control_c, 12, 32, 0
1, 394, Program_c, 12, 81
1, 396, Control_c, 12, 91, 70
1, 398, Control_c, 12, 93, 0
1, 420, Control_c, 15, 121, 0
1, 422, Pitch_bend_c, 15, 8192
1, 424, Control_c, 15, 11, 127
1, 426, Control_c, 15, 91, 0
1, 428, Control_c, 15, 93, 0
1, 430, Program_c, 15, 0
1, 432, Control_c, 15, 94, 0
1, 469, Control_c, 12, 101, 0
1, 470, Control_c, 12, 100, 0
1, 471, Control_c, 12, 6, 12
1, 472, Control_c, 12, 38, 36
1, 473, Control_c, 11, 101, 0
1, 474, Control_c, 11, 100, 0
1, 475, Control_c, 11, 6, 12
1, 476, Control_c, 11, 38, 36
1, 480, Note_on_c, 9, 42, 111
1, 480, Lyric_t, "www.midiart.de "
1, 480, Lyric_t, "\015"
1, 497, Note_on_c, 9, 42, 0
1, 600, Note_on_c, 9, 42, 78
1, 624, Note_on_c, 9, 42, 0
1, 720, Note_on_c, 9, 42, 74
1, 745, Note_on_c, 9, 42, 0
1, 840, Note_on_c, 9, 42, 77
1, 860, Note_on_c, 9, 42, 0
1, 930, Note_on_c, 0, 60, 98
1, 930, Note_on_c, 0, 63, 119
1, 930, Note_on_c, 0, 70, 109
1, 930, Note_on_c, 1, 29, 116
1, 948, Note_on_c, 1, 29, 0
1, 955, Note_on_c, 0, 60, 0
1, 959, Note_on_c, 0, 63, 0
1, 960, Note_on_c, 0, 60, 94
1, 960, Note_on_c, 0, 63, 119
1, 960, Note_on_c, 0, 70, 119
1, 960, Note_on_c, 1, 34, 115
1, 960, Note_on_c, 9, 38, 120
1, 961, Note_on_c, 0, 70, 0
1, 982, Note_on_c, 1, 34, 0
1, 988, Note_on_c, 0, 63, 0
1, 988, Note_on_c, 9, 38, 0
1, 989, Note_on_c, 0, 60, 0
1, 991, Note_on_c, 0, 70, 0
1, 1020, Note_on_c, 0, 60, 94
1, 1020, Note_on_c, 0, 63, 115
1, 1020, Note_on_c, 0, 70, 109
1, 1020, Note_on_c, 1, 34, 120
1, 1020, Note_on_c, 9, 38, 120
1, 1044, Note_on_c, 1, 34, 0
1, 1045, Note_on_c, 9, 38, 0
1, 1050, Note_on_c, 0, 60, 0
1, 1050, Note_on_c, 0, 63, 0
1, 1052, Note_on_c, 0, 70, 0
1, 1080, Note_on_c, 0, 60, 105
1, 1080, Note_on_c, 0, 63, 119
1, 1080, Note_on_c, 0, 70, 106
1, 1080, Note_on_c, 1, 34, 120
1, 1080, Note_on_c, 9, 38, 120
1, 1101, Note_on_c, 1, 34, 0
1, 1105, Note_on_c, 9, 38, 0
1, 1112, Note_on_c, 0, 60, 0
1, 1112, Note_on_c, 0, 63, 0
1, 1114, Note_on_c, 0, 70, 0
1, 1140, Note_on_c, 0, 60, 98
1, 1140, Note_on_c, 0, 63, 111
1, 1140, Note_on_c, 0, 70, 91
1, 1140, Note_on_c, 1, 34, 120
1, 1140, Note_on_c, 9, 38, 119
1, 1165, Note_on_c, 9, 38, 0
1, 1165, Note_on_c, 1, 34, 0
1, 1173, Note_on_c, 0, 63, 0
1, 1174, Note_on_c, 0, 60, 0
1, 1176, Note_on_c, 0, 70, 0
1, 1200, Note_on_c, 0, 60, 95
1, 1200, Note_on_c, 0, 63, 104
1, 1200, Note_on_c, 0, 70, 89
1, 1200, Note_on_c, 1, 34, 120
1, 1200, Note_on_c, 9, 38, 120
1, 1229, Note_on_c, 1, 34, 0
1, 1236, Note_on_c, 9, 38, 0
1, 1239, Note_on_c, 0, 63, 0
1, 1242, Note_on_c, 0, 60, 0
1, 1243, Note_on_c, 0, 70, 0
1, 1320, Note_on_c, 9, 38, 120
1, 1320, Note_on_c, 9, 39, 120
1, 1348, Note_on_c, 9, 39, 0
1, 1352, Note_on_c, 9, 38, 0
1, 1438, Note_on_c, 3, 67, 120
1, 1438, Lyric_t, "Give "
1, 1440, Note_on_c, 0, 60, 105
1, 1440, Note_on_c, 0, 63, 98
1, 1440, Note_on_c, 0, 67, 118
1, 1440, Note_on_c, 1, 32, 120
1, 1440, Note_on_c, 3, 67, 120
1, 1440, Note_on_c, 9, 36, 120
1, 1443, Note_on_c, 3, 67, 0
1, 1459, Note_on_c, 3, 67, 0
1, 1470, Note_on_c, 3, 67, 107
1, 1470, Lyric_t, "me "
1, 1483, Note_on_c, 9, 36, 0
1, 1494, Note_on_c, 3, 67, 0
1, 1499, Note_on_c, 1, 32, 0
1, 1500, Note_on_c, 1, 44, 120
1, 1500, Note_on_c, 3, 67, 120
1, 1500, Lyric_t, "your, "
1, 1535, Note_on_c, 1, 44, 0
1, 1537, Note_on_c, 3, 67, 0
1, 1550, Note_on_c, 0, 67, 0
1, 1556, Note_on_c, 0, 63, 0
1, 1558, Note_on_c, 0, 60, 0
1, 1560, Note_on_c, 3, 67, 119
1, 1560, Note_on_c, 9, 38, 120
1, 1560, Lyric_t, "give "
1, 1579, Note_on_c, 3, 67, 0
1, 1590, Note_on_c, 0, 60, 83
1, 1590, Note_on_c, 0, 63, 73
1, 1590, Note_on_c, 0, 67, 82
1, 1590, Note_on_c, 3, 67, 100
1, 1590, Lyric_t, "me "
1, 1591, Note_on_c, 0, 67, 0
1, 1591, Note_on_c, 0, 63, 0
1, 1591, Note_on_c, 0, 60, 0
1, 1599, Note_on_c, 9, 38, 0
1, 1613, Note_on_c, 3, 67, 0
1, 1620, Note_on_c, 0, 60, 98
1, 1620, Note_on_c, 0, 63, 80
1, 1620, Note_on_c, 0, 67, 91
1, 1620, Note_on_c, 3, 67, 120
1, 1620, Lyric_t, "your, "
1, 1620, Lyric_t, "\015"
1, 1621, Note_on_c, 0, 67, 0
1, 1621, Note_on_c, 0, 60, 0
1, 1621, Note_on_c, 0, 63, 0
1, 1650, Note_on_c, 3, 67, 0
1, 1650, Note_on_c, 0, 60, 98
1, 1650, Note_on_c, 0, 63, 77
1, 1650, Note_on_c, 0, 67, 90
1, 1651, Note_on_c, 0, 67, 0
1, 1651, Note_on_c, 0, 63, 0
1, 1651, Note_on_c, 0, 60, 0
1, 1680, Note_on_c, 0, 56, 96
1, 1680, Note_on_c, 0, 60, 119
1, 1680, Note_on_c, 0, 63, 91
1, 1680, Note_on_c, 1, 32, 120
1, 1680, Note_on_c, 3, 67, 120
1, 1680, Note_on_c, 9, 36, 120
1, 1680, Lyric_t, "give "
1, 1697, Note_on_c, 3, 67, 0
1, 1709, Note_on_c, 0, 56, 0
1, 1710, Note_on_c, 3, 67, 113
1, 1710, Lyric_t, "me "
1, 1711, Note_on_c, 1, 32, 0
1, 1711, Note_on_c, 0, 60, 0
1, 1714, Note_on_c, 0, 63, 0
1, 1718, Note_on_c, 9, 36, 0
1, 1726, Note_on_c, 3, 67, 0
1, 1740, Note_on_c, 0, 56, 82
1, 1740, Note_on_c, 0, 60, 111
1, 1740, Note_on_c, 0, 63, 80
1, 1740, Note_on_c, 3, 67, 107
1, 1740, Lyric_t, "your "
1, 1741, Note_on_c, 0, 63, 0
1, 1741, Note_on_c, 0, 56, 0
1, 1741, Note_on_c, 0, 60, 0
1, 1751, Note_on_c, 3, 67, 0
1, 1770, Note_on_c, 0, 58, 91
1, 1770, Note_on_c, 0, 62, 119
1, 1770, Note_on_c, 0, 65, 89
1, 1770, Note_on_c, 1, 31, 116
1, 1770, Note_on_c, 3, 67, 100
1, 1770, Lyric_t, "at"
1, 1788, Note_on_c, 3, 67, 0
1, 1792, Note_on_c, 1, 31, 0
1, 1796, Note_on_c, 0, 58, 0
1, 1798, Note_on_c, 0, 65, 0
1, 1799, Note_on_c, 0, 62, 0
1, 1800, Note_on_c, 3, 63, 120
1, 1800, Note_on_c, 9, 38, 120
1, 1800, Lyric_t, "ten"
1, 1830, Note_on_c, 0, 58, 60
1, 1830, Note_on_c, 0, 62, 109
1, 1830, Note_on_c, 0, 65, 77
1, 1831, Note_on_c, 0, 65, 0
1, 1831, Note_on_c, 0, 58, 0
1, 1831, Note_on_c, 0, 62, 0
1, 1838, Note_on_c, 9, 38, 0
1, 1846, Note_on_c, 3, 63, 0
1, 1860, Note_on_c, 0, 56, 91
1, 1860, Note_on_c, 0, 60, 119
1, 1860, Note_on_c, 0, 63, 91
1, 1860, Note_on_c, 1, 29, 120
1, 1860, Note_on_c, 3, 60, 119
1, 1860, Lyric_t, "tion, "
1, 1877, Note_on_c, 3, 60, 0
1, 1890, Note_on_c, 3, 65, 120
1, 1890, Lyric_t, "ba"
1, 1920, Note_on_c, 9, 36, 120
1, 1957, Note_on_c, 9, 36, 0
1, 1961, Note_on_c, 1, 29, 0
1, 1966, Note_on_c, 3, 65, 0
1, 1980, Note_on_c, 1, 41, 120
1, 1980, Note_on_c, 3, 65, 120
1, 1980, Lyric_t, "by "
1, 1980, Lyric_t, "\015"
1, 2004, Note_on_c, 3, 65, 0
1, 2014, Note_on_c, 1, 41, 0
1, 2034, Note_on_c, 0, 60, 0
1, 2036, Note_on_c, 0, 63, 0
1, 2039, Note_on_c, 0, 56, 0
1, 2040, Note_on_c, 0, 56, 86
1, 2040, Note_on_c, 0, 60, 116
1, 2040, Note_on_c, 0, 63, 78
1, 2040, Note_on_c, 1, 41, 120
1, 2040, Note_on_c, 9, 38, 120
1, 2067, Note_on_c, 0, 60, 0
1, 2069, Note_on_c, 0, 56, 0
1, 2070, Note_on_c, 0, 63, 0
1, 2072, Note_on_c, 1, 41, 0
1, 2081, Note_on_c, 9, 38, 0
1, 2100, Note_on_c, 0, 56, 53
1, 2100, Note_on_c, 0, 60, 98
1, 2100, Note_on_c, 0, 63, 60
1, 2101, Note_on_c, 0, 63, 0
1, 2101, Note_on_c, 0, 60, 0
1, 2101, Note_on_c, 0, 56, 0
1, 2130, Note_on_c, 0, 56, 70
1, 2130, Note_on_c, 0, 60, 101
1, 2130, Note_on_c, 0, 63, 62
1, 2131, Note_on_c, 0, 63, 0
1, 2131, Note_on_c, 0, 60, 0
1, 2131, Note_on_c, 0, 56, 0
1, 2160, Note_on_c, 0, 56, 92
1, 2160, Note_on_c, 0, 60, 118
1, 2160, Note_on_c, 0, 63, 92
1, 2160, Note_on_c, 1, 29, 120
1, 2160, Note_on_c, 9, 36, 120
1, 2195, Note_on_c, 1, 29, 0
1, 2198, Note_on_c, 0, 60, 0
1, 2199, Note_on_c, 9, 36, 0
1, 2201, Note_on_c, 0, 56, 0
1, 2202, Note_on_c, 0, 63, 0
1, 2220, Note_on_c, 0, 56, 62
1, 2220, Note_on_c, 0, 60, 97
1, 2220, Note_on_c, 0, 63, 62
1, 2221, Note_on_c, 0, 63, 0
1, 2221, Note_on_c, 0, 60, 0
1, 2221, Note_on_c, 0, 56, 0
1, 2280, Note_on_c, 0, 60, 116
1, 2280, Note_on_c, 0, 63, 92
1, 2280, Note_on_c, 0, 67, 111
1, 2280, Note_on_c, 1, 29, 116
1, 2280, Note_on_c, 9, 38, 120
1, 2310, Note_on_c, 1, 29, 0
1, 2313, Note_on_c, 9, 38, 0
1, 2319, Note_on_c, 0, 60, 0
1, 2322, Note_on_c, 0, 67, 0
1, 2322, Note_on_c, 0, 63, 0
1, 2370, Note_on_c, 3, 63, 115
1, 2370, Lyric_t, "I "
1, 2390, Note_on_c, 3, 63, 0
1, 2400, Note_on_c, 0, 58, 92
1, 2400, Note_on_c, 0, 62, 116
1, 2400, Note_on_c, 0, 65, 94
1, 2400, Note_on_c, 1, 31, 120
1, 2400, Note_on_c, 3, 65, 119
1, 2400, Note_on_c, 9, 36, 120
1, 2400, Lyric_t, "got"
1, 2421, Note_on_c, 3, 65, 0
1, 2430, Note_on_c, 3, 63, 119
1, 2430, Lyric_t, "ta "
1, 2431, Note_on_c, 9, 36, 0
1, 2445, Note_on_c, 3, 63, 0
1, 2446, Note_on_c, 1, 31, 0
1, 2460, Note_on_c, 1, 43, 119
1, 2460, Note_on_c, 3, 65, 100
1, 2460, Lyric_t, "tell "
1, 2493, Note_on_c, 3, 65, 0
1, 2502, Note_on_c, 0, 65, 0
1, 2511, Note_on_c, 1, 43, 0
1, 2511, Note_on_c, 0, 62, 0
1, 2515, Note_on_c, 0, 58, 0
1, 2520, Note_on_c, 3, 65, 109
1, 2520, Note_on_c, 9, 38, 120
1, 2520, Lyric_t, "you "
1, 2529, Note_on_c, 3, 65, 0
1, 2546, Note_on_c, 9, 38, 0
1, 2550, Note_on_c, 3, 65, 95
1, 2550, Lyric_t, "a "
1, 2568, Note_on_c, 3, 65, 0
1, 2580, Note_on_c, 0, 58, 48
1, 2580, Note_on_c, 0, 62, 100
1, 2580, Note_on_c, 0, 65, 71
1, 2580, Note_on_c, 3, 63, 119
1, 2580, Lyric_t, "litt"
1, 2581, Note_on_c, 0, 65, 0
1, 2581, Note_on_c, 0, 58, 0
1, 2581, Note_on_c, 0, 62, 0
1, 2609, Note_on_c, 3, 63, 0
1, 2610, Note_on_c, 0, 58, 71
1, 2610, Note_on_c, 0, 62, 98
1, 2610, Note_on_c, 0, 65, 78
1, 2610, Note_on_c, 3, 63, 119
1, 2610, Lyric_t, "le "
1, 2610, Lyric_t, "\015"
1, 2611, Note_on_c, 0, 65, 0
1, 2611, Note_on_c, 0, 58, 0
1, 2611, Note_on_c, 0, 62, 0
1, 2639, Note_on_c, 3, 63, 0
1, 2640, Note_on_c, 0, 55, 103
1, 2640, Note_on_c, 0, 58, 92
1, 2640, Note_on_c, 0, 62, 113
1, 2640, Note_on_c, 0, 65, 83
1, 2640, Note_on_c, 1, 31, 119
1, 2640, Note_on_c, 3, 65, 107
1, 2640, Note_on_c, 9, 36, 120
1, 2640, Lyric_t, "some"
1, 2667, Note_on_c, 9, 36, 0
1, 2669, Note_on_c, 1, 31, 0
1, 2680, Note_on_c, 3, 65, 0
1, 2682, Note_on_c, 0, 62, 0
1, 2683, Note_on_c, 0, 55, 0
1, 2684, Note_on_c, 0, 58, 0
1, 2691, Note_on_c, 0, 65, 0
1, 2700, Note_on_c, 0, 58, 57
1, 2700, Note_on_c, 0, 62, 94
1, 2700, Note_on_c, 0, 65, 59
1, 2700, Note_on_c, 3, 65, 120
1, 2700, Lyric_t, "thing "
1, 2701, Note_on_c, 0, 65, 0
1, 2701, Note_on_c, 0, 58, 0
1, 2701, Note_on_c, 0, 62, 0
1, 2719, Note_on_c, 3, 65, 0
1, 2730, Note_on_c, 0, 58, 92
1, 2730, Note_on_c, 0, 62, 111
1, 2730, Note_on_c, 0, 65, 87
1, 2730, Note_on_c, 1, 34, 120
1, 2730, Note_on_c, 3, 63, 120
1, 2730, Lyric_t, "a"
1, 2749, Note_on_c, 3, 63, 0
1, 2760, Note_on_c, 3, 65, 98
1, 2760, Note_on_c, 9, 38, 120
1, 2760, Lyric_t, "bout "
1, 2761, Note_on_c, 1, 34, 0
1, 2766, Note_on_c, 0, 62, 0
1, 2768, Note_on_c, 0, 58, 0
1, 2771, Note_on_c, 0, 65, 0
1, 2781, Note_on_c, 3, 65, 0
1, 2786, Note_on_c, 9, 38, 0
1, 2790, Note_on_c, 0, 58, 70
1, 2790, Note_on_c, 0, 62, 78
1, 2790, Note_on_c, 0, 65, 72
1, 2790, Note_on_c, 3, 63, 120
1, 2790, Lyric_t, "your"
1, 2791, Note_on_c, 0, 65, 0
1, 2791, Note_on_c, 0, 58, 0
1, 2791, Note_on_c, 0, 62, 0
1, 2820, Note_on_c, 0, 60, 113
1, 2820, Note_on_c, 0, 63, 87
1, 2820, Note_on_c, 0, 67, 105
1, 2820, Note_on_c, 1, 36, 120
1, 2831, Note_on_c, 3, 63, 0
1, 2880, Note_on_c, 3, 67, 119
1, 2880, Note_on_c, 9, 36, 120
1, 2880, Lyric_t, "self "
1, 2880, Lyric_t, "\015"
1, 2909, Note_on_c, 9, 36, 0
1, 2937, Note_on_c, 1, 36, 0
1, 2940, Note_on_c, 1, 48, 120
1, 2976, Note_on_c, 1, 48, 0
1, 2999, Note_on_c, 0, 60, 0
1, 2999, Note_on_c, 0, 67, 0
1, 3000, Note_on_c, 0, 60, 105
1, 3000, Note_on_c, 0, 63, 92
1, 3000, Note_on_c, 0, 67, 61
1, 3000, Note_on_c, 9, 38, 120
1, 3001, Note_on_c, 0, 67, 0
1, 3001, Note_on_c, 0, 63, 0
1, 3001, Note_on_c, 0, 60, 0
1, 3001, Note_on_c, 0, 63, 0
1, 3018, Note_on_c, 3, 67, 0
1, 3027, Note_on_c, 9, 38, 0
1, 3060, Note_on_c, 1, 34, 98
1, 3089, Note_on_c, 1, 34, 0
1, 3090, Note_on_c, 1, 36, 111
1, 3119, Note_on_c, 1, 36, 0
1, 3120, Note_on_c, 0, 60, 94
1, 3120, Note_on_c, 0, 63, 94
1, 3120, Note_on_c, 0, 67, 100
1, 3120, Note_on_c, 1, 39, 94
1, 3120, Note_on_c, 9, 36, 120
1, 3146, Note_on_c, 9, 36, 0
1, 3149, Note_on_c, 1, 39, 0
1, 3150, Note_on_c, 1, 36, 118
1, 3153, Note_on_c, 0, 67, 0
1, 3153, Note_on_c, 0, 60, 0
1, 3157, Note_on_c, 0, 63, 0
1, 3186, Note_on_c, 1, 36, 0
1, 3240, Note_on_c, 0, 58, 92
1, 3240, Note_on_c, 0, 62, 119
1, 3240, Note_on_c, 0, 65, 105
1, 3240, Note_on_c, 1, 34, 109
1, 3240, Note_on_c, 9, 38, 120
1, 3262, Note_on_c, 9, 38, 0
1, 3268, Note_on_c, 0, 62, 0
1, 3273, Note_on_c, 0, 58, 0
1, 3274, Note_on_c, 0, 65, 0
1, 3300, Note_on_c, 3, 67, 120
1, 3300, Lyric_t, "You're "
1, 3321, Note_on_c, 3, 67, 0
1, 3343, Note_on_c, 1, 34, 0
1, 3360, Note_on_c, 0, 60, 105
1, 3360, Note_on_c, 0, 63, 98
1, 3360, Note_on_c, 0, 67, 118
1, 3360, Note_on_c, 1, 32, 120
1, 3360, Note_on_c, 3, 67, 107
1, 3360, Note_on_c, 9, 36, 120
1, 3360, Lyric_t, "won"
1, 3383, Note_on_c, 3, 67, 0
1, 3390, Note_on_c, 3, 67, 92
1, 3390, Lyric_t, "der"
1, 3403, Note_on_c, 9, 36, 0
1, 3410, Note_on_c, 3, 67, 0
1, 3419, Note_on_c, 1, 32, 0
1, 3420, Note_on_c, 1, 44, 120
1, 3420, Note_on_c, 3, 67, 120
1, 3420, Lyric_t, "ful, "
1, 3452, Note_on_c, 3, 67, 0
1, 3455, Note_on_c, 1, 44, 0
1, 3470, Note_on_c, 0, 67, 0
1, 3476, Note_on_c, 0, 63, 0
1, 3478, Note_on_c, 0, 60, 0
1, 3480, Note_on_c, 3, 67, 120
1, 3480, Note_on_c, 9, 38, 120
1, 3480, Lyric_t, "flaw"
1, 3510, Note_on_c, 0, 60, 83
1, 3510, Note_on_c, 0, 63, 73
1, 3510, Note_on_c, 0, 67, 82
1, 3511, Note_on_c, 0, 67, 0
1, 3511, Note_on_c, 0, 60, 0
1, 3511, Note_on_c, 0, 63, 0
1, 3519, Note_on_c, 9, 38, 0
1, 3530, Note_on_c, 3, 67, 0
1, 3540, Note_on_c, 0, 60, 98
1, 3540, Note_on_c, 0, 63, 80
1, 3540, Note_on_c, 0, 67, 91
1, 3540, Note_on_c, 3, 67, 119
1, 3540, Lyric_t, "less, "
1, 3540, Lyric_t, "\015"
1, 3541, Note_on_c, 0, 67, 0
1, 3541, Note_on_c, 0, 60, 0
1, 3541, Note_on_c, 0, 63, 0
1, 3570, Note_on_c, 0, 60, 98
1, 3570, Note_on_c, 0, 63, 77
1, 3570, Note_on_c, 0, 67, 90
1, 3571, Note_on_c, 0, 67, 0
1, 3571, Note_on_c, 0, 63, 0
1, 3571, Note_on_c, 0, 60, 0
1, 3574, Note_on_c, 3, 67, 0
1, 3600, Note_on_c, 0, 56, 96
1, 3600, Note_on_c, 0, 60, 119
1, 3600, Note_on_c, 0, 63, 91
1, 3600, Note_on_c, 1, 32, 120
1, 3600, Note_on_c, 3, 67, 120
1, 3600, Note_on_c, 9, 36, 120
1, 3600, Lyric_t, "ooh, "
1, 3629, Note_on_c, 0, 56, 0
1, 3631, Note_on_c, 1, 32, 0
1, 3631, Note_on_c, 0, 60, 0
1, 3634, Note_on_c, 0, 63, 0
1, 3638, Note_on_c, 9, 36, 0
1, 3649, Note_on_c, 3, 67, 0
1, 3660, Note_on_c, 0, 56, 82
1, 3660, Note_on_c, 0, 60, 111
1, 3660, Note_on_c, 0, 63, 80
1, 3660, Note_on_c, 3, 67, 111
1, 3660, Lyric_t, "you're "
1, 3661, Note_on_c, 0, 63, 0
1, 3661, Note_on_c, 0, 56, 0
1, 3661, Note_on_c, 0, 60, 0
1, 3689, Note_on_c, 3, 67, 0
1, 3690, Note_on_c, 0, 58, 91
1, 3690, Note_on_c, 0, 62, 119
1, 3690, Note_on_c, 0, 65, 89
1, 3690, Note_on_c, 1, 31, 116
1, 3690, Note_on_c, 3, 67, 120
1, 3690, Lyric_t, "a "
1, 3709, Note_on_c, 3, 67, 0
1, 3712, Note_on_c, 1, 31, 0
1, 3716, Note_on_c, 0, 58, 0
1, 3718, Note_on_c, 0, 65, 0
1, 3719, Note_on_c, 0, 62, 0
1, 3720, Note_on_c, 3, 63, 115
1, 3720, Note_on_c, 9, 38, 120
1, 3720, Lyric_t, "se"
1, 3750, Note_on_c, 0, 58, 60
1, 3750, Note_on_c, 0, 62, 109
1, 3750, Note_on_c, 0, 65, 77
1, 3751, Note_on_c, 0, 65, 0
1, 3751, Note_on_c, 0, 58, 0
1, 3751, Note_on_c, 0, 62, 0
1, 3752, Note_on_c, 3, 63, 0
1, 3758, Note_on_c, 9, 38, 0
1, 3780, Note_on_c, 0, 56, 91
1, 3780, Note_on_c, 0, 60, 119
1, 3780, Note_on_c, 0, 63, 91
1, 3780, Note_on_c, 1, 29, 120
1, 3780, Note_on_c, 3, 60, 116
1, 3780, Lyric_t, "xy "
1, 3798, Note_on_c, 3, 60, 0
1, 3810, Note_on_c, 3, 65, 120
1, 3810, Lyric_t, "la"
1, 3840, Note_on_c, 9, 36, 120
1, 3877, Note_on_c, 9, 36, 0
1, 3881, Note_on_c, 1, 29, 0
1, 3887, Note_on_c, 3, 65, 0
1, 3900, Note_on_c, 1, 41, 120
1, 3900, Note_on_c, 3, 65, 119
1, 3900, Lyric_t, "dy "
1, 3900, Lyric_t, "\015"
1, 3931, Note_on_c, 3, 65, 0
1, 3934, Note_on_c, 1, 41, 0
1, 3954, Note_on_c, 0, 60, 0
1, 3956, Note_on_c, 0, 63, 0
1, 3959, Note_on_c, 0, 56, 0
1, 3960, Note_on_c, 0, 56, 86
1, 3960, Note_on_c, 0, 60, 116
1, 3960, Note_on_c, 0, 63, 78
1, 3960, Note_on_c, 1, 41, 120
1, 3960, Note_on_c, 9, 38, 120
1, 3987, Note_on_c, 0, 60, 0
1, 3989, Note_on_c, 0, 56, 0
1, 3990, Note_on_c, 0, 63, 0
1, 3992, Note_on_c, 1, 41, 0
1, 4001, Note_on_c, 9, 38, 0
1, 4020, Note_on_c, 0, 56, 53
1, 4020, Note_on_c, 0, 60, 98
1, 4020, Note_on_c, 0, 63, 60
1, 4021, Note_on_c, 0, 63, 0
1, 4021, Note_on_c, 0, 60, 0
1, 4021, Note_on_c, 0, 56, 0
1, 4050, Note_on_c, 0, 56, 70
1, 4050, Note_on_c, 0, 60, 101
1, 4050, Note_on_c, 0, 63, 62
1, 4051, Note_on_c, 0, 63, 0
1, 4051, Note_on_c, 0, 60, 0
1, 4051, Note_on_c, 0, 56, 0
1, 4080, Note_on_c, 0, 56, 92
1, 4080, Note_on_c, 0, 60, 118
1, 4080, Note_on_c, 0, 63, 92
1, 4080, Note_on_c, 1, 29, 120
1, 4080, Note_on_c, 9, 36, 120
1, 4115, Note_on_c, 1, 29, 0
1, 4118, Note_on_c, 0, 60, 0
1, 4119, Note_on_c, 9, 36, 0
1, 4121, Note_on_c, 0, 56, 0
1, 4122, Note_on_c, 0, 63, 0
1, 4140, Note_on_c, 0, 56, 62
1, 4140, Note_on_c, 0, 60, 97
1, 4140, Note_on_c, 0, 63, 62
1, 4141, Note_on_c, 0, 63, 0
1, 4141, Note_on_c, 0, 60, 0
1, 4141, Note_on_c, 0, 56, 0
1, 4200, Note_on_c, 0, 60, 116
1, 4200, Note_on_c, 0, 63, 92
1, 4200, Note_on_c, 0, 67, 111
1, 4200, Note_on_c, 1, 29, 116
1, 4200, Note_on_c, 9, 38, 120
1, 4230, Note_on_c, 1, 29, 0
1, 4233, Note_on_c, 9, 38, 0
1, 4239, Note_on_c, 0, 60, 0
1, 4242, Note_on_c, 0, 67, 0
1, 4242, Note_on_c, 0, 63, 0
1, 4260, Note_on_c, 3, 65, 118
1, 4260, Lyric_t, "But "
1, 4281, Note_on_c, 3, 65, 0
1, 4290, Note_on_c, 3, 63, 119
1, 4290, Lyric_t, "you "
1, 4312, Note_on_c, 3, 63, 0
1, 4320, Note_on_c, 0, 58, 92
1, 4320, Note_on_c, 0, 62, 116
1, 4320, Note_on_c, 0, 65, 94
1, 4320, Note_on_c, 1, 31, 120
1, 4320, Note_on_c, 3, 65, 119
1, 4320, Note_on_c, 9, 36, 120
1, 4320, Lyric_t, "walk "
1, 4338, Note_on_c, 3, 65, 0
1, 4350, Note_on_c, 3, 65, 90
1, 4350, Lyric_t, "a"
1, 4351, Note_on_c, 9, 36, 0
1, 4366, Note_on_c, 1, 31, 0
1, 4366, Note_on_c, 3, 65, 0
1, 4380, Note_on_c, 1, 43, 119
1, 4380, Note_on_c, 3, 65, 98
1, 4380, Lyric_t, "round "
1, 4399, Note_on_c, 3, 65, 0
1, 4422, Note_on_c, 0, 65, 0
1, 4431, Note_on_c, 1, 43, 0
1, 4431, Note_on_c, 0, 62, 0
1, 4435, Note_on_c, 0, 58, 0
1, 4440, Note_on_c, 3, 65, 120
1, 4440, Note_on_c, 9, 38, 120
1, 4440, Lyric_t, "here "
1, 4440, Lyric_t, "\015"
1, 4466, Note_on_c, 9, 38, 0
1, 4472, Note_on_c, 3, 65, 0
1, 4500, Note_on_c, 0, 58, 48
1, 4500, Note_on_c, 0, 62, 100
1, 4500, Note_on_c, 0, 65, 71
1, 4500, Note_on_c, 3, 65, 118
1, 4500, Lyric_t, "like "
1, 4501, Note_on_c, 0, 65, 0
1, 4501, Note_on_c, 0, 58, 0
1, 4501, Note_on_c, 0, 62, 0
1, 4523, Note_on_c, 3, 65, 0
1, 4530, Note_on_c, 0, 58, 71
1, 4530, Note_on_c, 0, 62, 98
1, 4530, Note_on_c, 0, 65, 78
1, 4530, Note_on_c, 3, 63, 119
1, 4530, Lyric_t, "you "
1, 4531, Note_on_c, 0, 65, 0
1, 4531, Note_on_c, 0, 58, 0
1, 4531, Note_on_c, 0, 62, 0
1, 4546, Note_on_c, 3, 63, 0
1, 4560, Note_on_c, 0, 55, 103
1, 4560, Note_on_c, 0, 58, 92
1, 4560, Note_on_c, 0, 62, 113
1, 4560, Note_on_c, 0, 65, 83
1, 4560, Note_on_c, 1, 31, 119
1, 4560, Note_on_c, 3, 65, 113
1, 4560, Note_on_c, 9, 36, 120
1, 4560, Lyric_t, "wan"
1, 4577, Note_on_c, 3, 65, 0
1, 4587, Note_on_c, 9, 36, 0
1, 4589, Note_on_c, 1, 31, 0
1, 4590, Note_on_c, 3, 65, 91
1, 4590, Lyric_t, "na "
1, 4602, Note_on_c, 0, 62, 0
1, 4603, Note_on_c, 0, 55, 0
1, 4604, Note_on_c, 3, 65, 0
1, 4604, Note_on_c, 0, 58, 0
1, 4611, Note_on_c, 0, 65, 0
1, 4620, Note_on_c, 0, 58, 57
1, 4620, Note_on_c, 0, 62, 94
1, 4620, Note_on_c, 0, 65, 59
1, 4620, Note_on_c, 3, 65, 119
1, 4620, Lyric_t, "be "
1, 4621, Note_on_c, 0, 65, 0
1, 4621, Note_on_c, 0, 58, 0
1, 4621, Note_on_c, 0, 62, 0
1, 4650, Note_on_c, 0, 58, 92
1, 4650, Note_on_c, 0, 62, 111
1, 4650, Note_on_c, 0, 65, 87
1, 4650, Note_on_c, 1, 34, 120
1, 4653, Note_on_c, 3, 65, 0
1, 4680, Note_on_c, 3, 65, 119
1, 4680, Note_on_c, 9, 38, 120
1, 4680, Lyric_t, "some"
1, 4681, Note_on_c, 1, 34, 0
1, 4686, Note_on_c, 0, 62, 0
1, 4688, Note_on_c, 0, 58, 0
1, 4691, Note_on_c, 0, 65, 0
1, 4701, Note_on_c, 3, 65, 0
1, 4706, Note_on_c, 9, 38, 0
1, 4710, Note_on_c, 0, 58, 70
1, 4710, Note_on_c, 0, 62, 78
1, 4710, Note_on_c, 0, 65, 72
1, 4710, Note_on_c, 3, 63, 120
1, 4710, Lyric_t, "one "
1, 4711, Note_on_c, 0, 65, 0
1, 4711, Note_on_c, 0, 58, 0
1, 4711, Note_on_c, 0, 62, 0
1, 4740, Note_on_c, 0, 60, 113
1, 4740, Note_on_c, 0, 63, 87
1, 4740, Note_on_c, 0, 67, 105
1, 4740, Note_on_c, 1, 36, 120
1, 4782, Note_on_c, 3, 63, 0
1, 4800, Note_on_c, 3, 67, 120
1, 4800, Note_on_c, 9, 36, 120
1, 4800, Lyric_t, "else "
1, 4800, Lyric_t, "\015"
1, 4829, Note_on_c, 9, 36, 0
1, 4857, Note_on_c, 1, 36, 0
1, 4860, Note_on_c, 1, 48, 120
1, 4882, Note_on_c, 3, 67, 0
1, 4896, Note_on_c, 1, 48, 0
1, 4919, Note_on_c, 0, 60, 0
1, 4919, Note_on_c, 0, 67, 0
1, 4920, Note_on_c, 0, 60, 105
1, 4920, Note_on_c, 0, 63, 92
1, 4920, Note_on_c, 0, 67, 61
1, 4920, Note_on_c, 9, 38, 120
1, 4921, Note_on_c, 0, 67, 0
1, 4921, Note_on_c, 0, 63, 0
1, 4921, Note_on_c, 0, 63, 0
1, 4921, Note_on_c, 0, 60, 0
1, 4947, Note_on_c, 9, 38, 0
1, 4980, Note_on_c, 1, 34, 98
1, 5009, Note_on_c, 1, 34, 0
1, 5010, Note_on_c, 1, 36, 111
1, 5039, Note_on_c, 1, 36, 0
1, 5040, Note_on_c, 0, 60, 94
1, 5040, Note_on_c, 0, 63, 94
1, 5040, Note_on_c, 0, 67, 100
1, 5040, Note_on_c, 1, 39, 94
1, 5040, Note_on_c, 9, 36, 120
1, 5066, Note_on_c, 9, 36, 0
1, 5069, Note_on_c, 1, 39, 0
1, 5070, Note_on_c, 1, 36, 118
1, 5073, Note_on_c, 0, 67, 0
1, 5073, Note_on_c, 0, 60, 0
1, 5077, Note_on_c, 0, 63, 0
1, 5106, Note_on_c, 1, 36, 0
1, 5160, Note_on_c, 0, 58, 92
1, 5160, Note_on_c, 0, 62, 119
1, 5160, Note_on_c, 0, 65, 105
1, 5160, Note_on_c, 1, 34, 109
1, 5160, Note_on_c, 3, 58, 120
1, 5160, Note_on_c, 4, 55, 120
1, 5160, Note_on_c, 4, 58, 120
1, 5160, Note_on_c, 9, 38, 120
1, 5160, Note_on_c, 15, 58, 1
1, 5160, Note_on_c, 15, 55, 1
1, 5160, Lyric_t, "Oh "
1, 5182, Note_on_c, 9, 38, 0
1, 5188, Note_on_c, 0, 62, 0
1, 5193, Note_on_c, 0, 58, 0
1, 5194, Note_on_c, 0, 65, 0
1, 5263, Note_on_c, 1, 34, 0
1, 5268, Note_on_c, 15, 58, 0
1, 5268, Note_on_c, 4, 58, 0
1, 5274, Note_on_c, 3, 58, 0
1, 5280, Note_on_c, 4, 55, 0
1, 5280, Note_on_c, 15, 55, 0
1, 5280, Note_on_c, 0, 60, 105
1, 5280, Note_on_c, 0, 63, 98
1, 5280, Note_on_c, 0, 67, 118
1, 5280, Note_on_c, 1, 32, 120
1, 5280, Note_on_c, 3, 70, 120
1, 5280, Note_on_c, 4, 63, 119
1, 5280, Note_on_c, 4, 67, 113
1, 5280, Note_on_c, 6, 82, 120
1, 5280, Note_on_c, 7, 82, 92
1, 5280, Note_on_c, 9, 36, 120
1, 5280, Note_on_c, 15, 63, 1
1, 5280, Note_on_c, 15, 67, 1
1, 5280, Lyric_t, "whoa"
1, 5323, Note_on_c, 9, 36, 0
1, 5339, Note_on_c, 1, 32, 0
1, 5340, Note_on_c, 1, 44, 120
1, 5359, Note_on_c, 15, 63, 0
1, 5359, Note_on_c, 4, 63, 0
1, 5361, Note_on_c, 15, 67, 0
1, 5361, Note_on_c, 4, 67, 0
1, 5370, Note_on_c, 3, 68, 120
1, 5370, Note_on_c, 4, 58, 120
1, 5370, Note_on_c, 4, 63, 94
1, 5370, Note_on_c, 15, 58, 1
1, 5370, Note_on_c, 15, 63, 1
1, 5375, Note_on_c, 1, 44, 0
1, 5382, Note_on_c, 3, 70, 0
1, 5384, Note_on_c, 4, 63, 0
1, 5384, Note_on_c, 15, 63, 0
1, 5385, Note_on_c, 4, 58, 0
1, 5385, Note_on_c, 15, 58, 0
1, 5390, Note_on_c, 3, 68, 0
1, 5390, Note_on_c, 0, 67, 0
1, 5392, Note_on_c, 7, 82, 0
1, 5396, Note_on_c, 0, 63, 0
1, 5398, Note_on_c, 0, 60, 0
1, 5400, Note_on_c, 3, 67, 107
1, 5400, Note_on_c, 4, 58, 102
1, 5400, Note_on_c, 4, 63, 119
1, 5400, Note_on_c, 6, 79, 109
1, 5400, Note_on_c, 7, 79, 98
1, 5400, Note_on_c, 9, 38, 120
1, 5400, Note_on_c, 15, 58, 1
1, 5400, Note_on_c, 15, 63, 1
1, 5400, Lyric_t, "oh"
1, 5410, Note_on_c, 6, 82, 0
1, 5430, Note_on_c, 0, 60, 83
1, 5430, Note_on_c, 0, 63, 73
1, 5430, Note_on_c, 0, 67, 82
1, 5431, Note_on_c, 0, 67, 0
1, 5431, Note_on_c, 0, 63, 0
1, 5431, Note_on_c, 0, 60, 0
1, 5439, Note_on_c, 9, 38, 0
1, 5460, Note_on_c, 0, 60, 98
1, 5460, Note_on_c, 0, 63, 80
1, 5460, Note_on_c, 0, 67, 91
1, 5461, Note_on_c, 0, 67, 0
1, 5461, Note_on_c, 0, 63, 0
1, 5461, Note_on_c, 0, 60, 0
1, 5475, Note_on_c, 15, 63, 0
1, 5475, Note_on_c, 4, 63, 0
1, 5480, Note_on_c, 4, 58, 0
1, 5480, Note_on_c, 3, 67, 0
1, 5480, Note_on_c, 15, 58, 0
1, 5490, Note_on_c, 0, 60, 98
1, 5490, Note_on_c, 0, 63, 77
1, 5490, Note_on_c, 0, 67, 90
1, 5490, Note_on_c, 3, 65, 105
1, 5490, Note_on_c, 4, 55, 119
1, 5490, Note_on_c, 4, 58, 111
1, 5490, Note_on_c, 15, 55, 1
1, 5490, Note_on_c, 15, 58, 1
1, 5491, Note_on_c, 0, 67, 0
1, 5491, Note_on_c, 0, 63, 0
1, 5491, Note_on_c, 0, 60, 0
1, 5501, Note_on_c, 15, 55, 0
1, 5501, Note_on_c, 4, 55, 0
1, 5505, Note_on_c, 4, 58, 0
1, 5505, Note_on_c, 15, 58, 0
1, 5516, Note_on_c, 3, 65, 0
1, 5520, Note_on_c, 0, 56, 96
1, 5520, Note_on_c, 0, 60, 119
1, 5520, Note_on_c, 0, 63, 91
1, 5520, Note_on_c, 1, 32, 120
1, 5520, Note_on_c, 3, 63, 120
1, 5520, Note_on_c, 4, 55, 120
1, 5520, Note_on_c, 4, 58, 115
1, 5520, Note_on_c, 6, 75, 119
1, 5520, Note_on_c, 7, 75, 100
1, 5520, Note_on_c, 9, 36, 120
1, 5520, Note_on_c, 15, 55, 1
1, 5520, Note_on_c, 15, 58, 1
1, 5520, Lyric_t, "oh "
1, 5520, Lyric_t, "\015"
1, 5523, Note_on_c, 7, 79, 0
1, 5528, Note_on_c, 6, 79, 0
1, 5549, Note_on_c, 0, 56, 0
1, 5551, Note_on_c, 0, 60, 0
1, 5551, Note_on_c, 1, 32, 0
1, 5554, Note_on_c, 0, 63, 0
1, 5558, Note_on_c, 9, 36, 0
1, 5580, Note_on_c, 0, 56, 82
1, 5580, Note_on_c, 0, 60, 111
1, 5580, Note_on_c, 0, 63, 80
1, 5581, Note_on_c, 0, 63, 0
1, 5581, Note_on_c, 0, 60, 0
1, 5581, Note_on_c, 0, 56, 0
1, 5610, Note_on_c, 0, 58, 91
1, 5610, Note_on_c, 0, 62, 119
1, 5610, Note_on_c, 0, 65, 89
1, 5610, Note_on_c, 1, 31, 116
1, 5623, Note_on_c, 15, 55, 0
1, 5623, Note_on_c, 4, 55, 0
1, 5631, Note_on_c, 6, 75, 0
1, 5632, Note_on_c, 1, 31, 0
1, 5636, Note_on_c, 0, 58, 0
1, 5637, Note_on_c, 15, 58, 0
1, 5637, Note_on_c, 4, 58, 0
1, 5638, Note_on_c, 0, 65, 0
1, 5639, Note_on_c, 0, 62, 0
1, 5639, Note_on_c, 7, 75, 0
1, 5639, Note_on_c, 3, 63, 0
1, 5640, Note_on_c, 6, 72, 120
1, 5640, Note_on_c, 7, 72, 111
1, 5640, Note_on_c, 9, 38, 120
1, 5670, Note_on_c, 0, 58, 60
1, 5670, Note_on_c, 0, 62, 109
1, 5670, Note_on_c, 0, 65, 77
1, 5671, Note_on_c, 0, 65, 0
1, 5671, Note_on_c, 0, 58, 0
1, 5671, Note_on_c, 0, 62, 0
1, 5678, Note_on_c, 9, 38, 0
1, 5700, Note_on_c, 0, 56, 91
1, 5700, Note_on_c, 0, 60, 119
1, 5700, Note_on_c, 0, 63, 91
1, 5700, Note_on_c, 1, 29, 120
1, 5700, Note_on_c, 3, 72, 119
1, 5700, Lyric_t, "I "
1, 5723, Note_on_c, 3, 72, 0
1, 5760, Note_on_c, 3, 67, 119
1, 5760, Note_on_c, 6, 70, 120
1, 5760, Note_on_c, 7, 70, 102
1, 5760, Note_on_c, 9, 36, 120
1, 5760, Lyric_t, "know "
1, 5763, Note_on_c, 6, 72, 0
1, 5764, Note_on_c, 7, 72, 0
1, 5797, Note_on_c, 9, 36, 0
1, 5801, Note_on_c, 1, 29, 0
1, 5818, Note_on_c, 3, 67, 0
1, 5820, Note_on_c, 1, 41, 120
1, 5820, Note_on_c, 3, 65, 111
1, 5820, Lyric_t, "that "
1, 5841, Note_on_c, 3, 65, 0
1, 5854, Note_on_c, 1, 41, 0
1, 5874, Note_on_c, 0, 60, 0
1, 5876, Note_on_c, 0, 63, 0
1, 5879, Note_on_c, 0, 56, 0
1, 5880, Note_on_c, 0, 56, 86
1, 5880, Note_on_c, 0, 60, 116
1, 5880, Note_on_c, 0, 63, 78
1, 5880, Note_on_c, 1, 41, 120
1, 5880, Note_on_c, 3, 65, 92
1, 5880, Note_on_c, 9, 38, 120
1, 5880, Lyric_t, "you "
1, 5907, Note_on_c, 0, 60, 0
1, 5909, Note_on_c, 0, 56, 0
1, 5910, Note_on_c, 0, 63, 0
1, 5912, Note_on_c, 1, 41, 0
1, 5921, Note_on_c, 9, 38, 0
1, 5934, Note_on_c, 3, 65, 0
1, 5940, Note_on_c, 0, 56, 53
1, 5940, Note_on_c, 0, 60, 98
1, 5940, Note_on_c, 0, 63, 60
1, 5940, Note_on_c, 3, 63, 109
1, 5940, Lyric_t, "don't "
1, 5941, Note_on_c, 0, 63, 0
1, 5941, Note_on_c, 0, 60, 0
1, 5941, Note_on_c, 0, 56, 0
1, 5967, Note_on_c, 3, 63, 0
1, 5970, Note_on_c, 0, 56, 70
1, 5970, Note_on_c, 0, 60, 101
1, 5970, Note_on_c, 0, 63, 62
1, 5971, Note_on_c, 0, 63, 0
1, 5971, Note_on_c, 0, 56, 0
1, 5971, Note_on_c, 0, 60, 0
1, 6000, Note_on_c, 0, 56, 92
1, 6000, Note_on_c, 0, 60, 118
1, 6000, Note_on_c, 0, 63, 92
1, 6000, Note_on_c, 1, 29, 120
1, 6000, Note_on_c, 3, 63, 120
1, 6000, Note_on_c, 9, 36, 120
1, 6000, Lyric_t, "know "
1, 6035, Note_on_c, 1, 29, 0
1, 6038, Note_on_c, 0, 60, 0
1, 6039, Note_on_c, 9, 36, 0
1, 6041, Note_on_c, 0, 56, 0
1, 6042, Note_on_c, 0, 63, 0
1, 6046, Note_on_c, 3, 63, 0
1, 6060, Note_on_c, 0, 56, 62
1, 6060, Note_on_c, 0, 60, 97
1, 6060, Note_on_c, 0, 63, 62
1, 6060, Note_on_c, 3, 58, 120
1, 6060, Lyric_t, "it, "
1, 6060, Lyric_t, "\015"
1, 6061, Note_on_c, 0, 63, 0
1, 6061, Note_on_c, 0, 60, 0
1, 6061, Note_on_c, 0, 56, 0
1, 6097, Note_on_c, 3, 58, 0
1, 6098, Note_on_c, 6, 70, 0
1, 6114, Note_on_c, 7, 70, 0
1, 6120, Note_on_c, 0, 60, 116
1, 6120, Note_on_c, 0, 63, 92
1, 6120, Note_on_c, 0, 67, 111
1, 6120, Note_on_c, 1, 29, 116
1, 6120, Note_on_c, 3, 60, 116
1, 6120, Note_on_c, 9, 38, 120
1, 6120, Lyric_t, "but "
1, 6150, Note_on_c, 1, 29, 0
1, 6153, Note_on_c, 9, 38, 0
1, 6156, Note_on_c, 3, 60, 0
1, 6159, Note_on_c, 0, 60, 0
1, 6162, Note_on_c, 0, 67, 0
1, 6162, Note_on_c, 0, 63, 0
1, 6180, Note_on_c, 3, 58, 120
1, 6180, Lyric_t, "you're "
1, 6215, Note_on_c, 3, 58, 0
1, 6240, Note_on_c, 0, 58, 92
1, 6240, Note_on_c, 0, 62, 116
1, 6240, Note_on_c, 0, 65, 94
1, 6240, Note_on_c, 1, 31, 120
1, 6240, Note_on_c, 3, 67, 120
1, 6240, Note_on_c, 9, 36, 120
1, 6240, Lyric_t, "fine, "
1, 6271, Note_on_c, 9, 36, 0
1, 6286, Note_on_c, 1, 31, 0
1, 6300, Note_on_c, 1, 43, 119
1, 6322, Note_on_c, 3, 67, 0
1, 6342, Note_on_c, 0, 65, 0
1, 6351, Note_on_c, 1, 43, 0
1, 6351, Note_on_c, 0, 62, 0
1, 6355, Note_on_c, 0, 58, 0
1, 6360, Note_on_c, 3, 68, 119
1, 6360, Note_on_c, 9, 38, 120
1, 6360, Lyric_t, "so "
1, 6386, Note_on_c, 9, 38, 0
1, 6420, Note_on_c, 0, 58, 48
1, 6420, Note_on_c, 0, 62, 100
1, 6420, Note_on_c, 0, 65, 71
1, 6421, Note_on_c, 0, 65, 0
1, 6421, Note_on_c, 0, 62, 0
1, 6421, Note_on_c, 0, 58, 0
1, 6450, Note_on_c, 0, 58, 71
1, 6450, Note_on_c, 0, 62, 98
1, 6450, Note_on_c, 0, 65, 78
1, 6451, Note_on_c, 0, 65, 0
1, 6451, Note_on_c, 0, 62, 0
1, 6451, Note_on_c, 0, 58, 0
1, 6460, Note_on_c, 3, 68, 0
1, 6480, Note_on_c, 0, 55, 103
1, 6480, Note_on_c, 0, 58, 92
1, 6480, Note_on_c, 0, 62, 113
1, 6480, Note_on_c, 0, 65, 83
1, 6480, Note_on_c, 1, 31, 119
1, 6480, Note_on_c, 3, 67, 119
1, 6480, Note_on_c, 9, 36, 120
1, 6480, Lyric_t, "fine "
1, 6480, Lyric_t, "\015"
1, 6507, Note_on_c, 9, 36, 0
1, 6509, Note_on_c, 1, 31, 0
1, 6522, Note_on_c, 0, 62, 0
1, 6523, Note_on_c, 0, 55, 0
1, 6524, Note_on_c, 0, 58, 0
1, 6531, Note_on_c, 0, 65, 0
1, 6540, Note_on_c, 0, 58, 57
1, 6540, Note_on_c, 0, 62, 94
1, 6540, Note_on_c, 0, 65, 59
1, 6541, Note_on_c, 0, 65, 0
1, 6541, Note_on_c, 0, 62, 0
1, 6541, Note_on_c, 0, 58, 0
1, 6566, Note_on_c, 3, 67, 0
1, 6570, Note_on_c, 0, 58, 92
1, 6570, Note_on_c, 0, 62, 111
1, 6570, Note_on_c, 0, 65, 87
1, 6570, Note_on_c, 1, 34, 120
1, 6600, Note_on_c, 9, 38, 120
1, 6601, Note_on_c, 1, 34, 0
1, 6606, Note_on_c, 0, 62, 0
1, 6608, Note_on_c, 0, 58, 0
1, 6611, Note_on_c, 0, 65, 0
1, 6626, Note_on_c, 9, 38, 0
1, 6630, Note_on_c, 0, 58, 70
1, 6630, Note_on_c, 0, 62, 78
1, 6630, Note_on_c, 0, 65, 72
1, 6631, Note_on_c, 0, 65, 0
1, 6631, Note_on_c, 0, 62, 0
1, 6631, Note_on_c, 0, 58, 0
1, 6660, Note_on_c, 0, 60, 113
1, 6660, Note_on_c, 0, 63, 87
1, 6660, Note_on_c, 0, 67, 105
1, 6660, Note_on_c, 1, 36, 120
1, 6720, Note_on_c, 4, 58, 120
1, 6720, Note_on_c, 4, 63, 119
1, 6720, Note_on_c, 5, 67, 120
1, 6720, Note_on_c, 9, 36, 120
1, 6720, Note_on_c, 15, 58, 1
1, 6720, Note_on_c, 15, 63, 1
1, 6720, Lyric_t, "(fine, "
1, 6749, Note_on_c, 9, 36, 0
1, 6777, Note_on_c, 1, 36, 0
1, 6780, Note_on_c, 1, 48, 120
1, 6812, Note_on_c, 15, 58, 0
1, 6812, Note_on_c, 4, 58, 0
1, 6816, Note_on_c, 1, 48, 0
1, 6816, Note_on_c, 15, 63, 0
1, 6816, Note_on_c, 4, 63, 0
1, 6818, Note_on_c, 5, 67, 0
1, 6839, Note_on_c, 0, 67, 0
1, 6839, Note_on_c, 0, 60, 0
1, 6840, Note_on_c, 0, 60, 105
1, 6840, Note_on_c, 0, 63, 92
1, 6840, Note_on_c, 0, 67, 61
1, 6840, Note_on_c, 4, 58, 119
1, 6840, Note_on_c, 4, 65, 101
1, 6840, Note_on_c, 5, 68, 119
1, 6840, Note_on_c, 9, 38, 120
1, 6840, Note_on_c, 15, 58, 1
1, 6840, Note_on_c, 15, 65, 1
1, 6840, Lyric_t, "so "
1, 6841, Note_on_c, 0, 67, 0
1, 6841, Note_on_c, 0, 63, 0
1, 6841, Note_on_c, 0, 63, 0
1, 6841, Note_on_c, 0, 60, 0
1, 6867, Note_on_c, 9, 38, 0
1, 6900, Note_on_c, 1, 34, 98
1, 6929, Note_on_c, 1, 34, 0
1, 6930, Note_on_c, 1, 36, 111
1, 6931, Note_on_c, 4, 58, 0
1, 6931, Note_on_c, 15, 58, 0
1, 6934, Note_on_c, 4, 65, 0
1, 6934, Note_on_c, 15, 65, 0
1, 6936, Note_on_c, 5, 68, 0
1, 6959, Note_on_c, 1, 36, 0
1, 6960, Note_on_c, 0, 60, 94
1, 6960, Note_on_c, 0, 63, 94
1, 6960, Note_on_c, 0, 67, 100
1, 6960, Note_on_c, 1, 39, 94
1, 6960, Note_on_c, 4, 58, 109
1, 6960, Note_on_c, 4, 63, 111
1, 6960, Note_on_c, 5, 67, 120
1, 6960, Note_on_c, 9, 36, 120
1, 6960, Note_on_c, 15, 58, 1
1, 6960, Note_on_c, 15, 63, 1
1, 6960, Lyric_t, "fi"
1, 6986, Note_on_c, 9, 36, 0
1, 6989, Note_on_c, 1, 39, 0
1, 6990, Note_on_c, 1, 36, 118
1, 6993, Note_on_c, 0, 67, 0
1, 6993, Note_on_c, 0, 60, 0
1, 6997, Note_on_c, 0, 63, 0
1, 7005, Note_on_c, 15, 58, 0
1, 7005, Note_on_c, 4, 58, 0
1, 7007, Note_on_c, 15, 63, 0
1, 7007, Note_on_c, 4, 63, 0
1, 7020, Note_on_c, 4, 58, 111
1, 7020, Note_on_c, 4, 63, 98
1, 7020, Note_on_c, 5, 65, 111
1, 7020, Note_on_c, 15, 58, 1
1, 7020, Note_on_c, 15, 63, 1
1, 7020, Lyric_t, "ne) "
1, 7020, Lyric_t, "\015"
1, 7024, Note_on_c, 5, 67, 0
1, 7026, Note_on_c, 1, 36, 0
1, 7056, Note_on_c, 4, 58, 0
1, 7056, Note_on_c, 15, 58, 0
1, 7057, Note_on_c, 4, 63, 0
1, 7057, Note_on_c, 15, 63, 0
1, 7059, Note_on_c, 5, 65, 0
1, 7080, Note_on_c, 0, 58, 92
1, 7080, Note_on_c, 0, 62, 119
1, 7080, Note_on_c, 0, 65, 105
1, 7080, Note_on_c, 1, 34, 109
1, 7080, Note_on_c, 3, 58, 119
1, 7080, Note_on_c, 4, 55, 120
1, 7080, Note_on_c, 4, 58, 120
1, 7080, Note_on_c, 9, 38, 120
1, 7080, Note_on_c, 15, 55, 1
1, 7080, Note_on_c, 15, 58, 1
1, 7080, Lyric_t, "Oh "
1, 7102, Note_on_c, 9, 38, 0
1, 7108, Note_on_c, 0, 62, 0
1, 7113, Note_on_c, 0, 58, 0
1, 7114, Note_on_c, 0, 65, 0
1, 7178, Note_on_c, 15, 58, 0
1, 7178, Note_on_c, 4, 58, 0
1, 7179, Note_on_c, 15, 55, 0
1, 7179, Note_on_c, 4, 55, 0
1, 7183, Note_on_c, 1, 34, 0
1, 7184, Note_on_c, 3, 58, 0
1, 7200, Note_on_c, 0, 60, 105
1, 7200, Note_on_c, 0, 63, 98
1, 7200, Note_on_c, 0, 67, 118
1, 7200, Note_on_c, 1, 32, 120
1, 7200, Note_on_c, 3, 70, 119
1, 7200, Note_on_c, 4, 63, 119
1, 7200, Note_on_c, 4, 67, 116
1, 7200, Note_on_c, 6, 82, 120
1, 7200, Note_on_c, 7, 82, 92
1, 7200, Note_on_c, 9, 36, 120
1, 7200, Note_on_c, 15, 63, 1
1, 7200, Note_on_c, 15, 67, 1
1, 7200, Lyric_t, "whoa"
1, 7243, Note_on_c, 9, 36, 0
1, 7259, Note_on_c, 1, 32, 0
1, 7260, Note_on_c, 1, 44, 120
1, 7269, Note_on_c, 15, 67, 0
1, 7269, Note_on_c, 4, 67, 0
1, 7273, Note_on_c, 15, 63, 0
1, 7273, Note_on_c, 4, 63, 0
1, 7290, Note_on_c, 3, 68, 119
1, 7290, Note_on_c, 4, 58, 98
1, 7290, Note_on_c, 4, 63, 102
1, 7290, Note_on_c, 15, 58, 1
1, 7290, Note_on_c, 15, 63, 1
1, 7295, Note_on_c, 1, 44, 0
1, 7295, Note_on_c, 3, 70, 0
1, 7298, Note_on_c, 15, 58, 0
1, 7298, Note_on_c, 4, 58, 0
1, 7304, Note_on_c, 4, 63, 0
1, 7304, Note_on_c, 15, 63, 0
1, 7310, Note_on_c, 0, 67, 0
1, 7312, Note_on_c, 3, 68, 0
1, 7312, Note_on_c, 7, 82, 0
1, 7316, Note_on_c, 0, 63, 0
1, 7318, Note_on_c, 0, 60, 0
1, 7320, Note_on_c, 3, 67, 111
1, 7320, Note_on_c, 4, 58, 109
1, 7320, Note_on_c, 4, 63, 106
1, 7320, Note_on_c, 6, 79, 109
1, 7320, Note_on_c, 7, 79, 98
1, 7320, Note_on_c, 9, 38, 120
1, 7320, Note_on_c, 15, 58, 1
1, 7320, Note_on_c, 15, 63, 1
1, 7320, Lyric_t, "oh"
1, 7330, Note_on_c, 6, 82, 0
1, 7350, Note_on_c, 0, 60, 83
1, 7350, Note_on_c, 0, 63, 73
1, 7350, Note_on_c, 0, 67, 82
1, 7351, Note_on_c, 0, 67, 0
1, 7351, Note_on_c, 0, 63, 0
1, 7351, Note_on_c, 0, 60, 0
1, 7359, Note_on_c, 9, 38, 0
1, 7380, Note_on_c, 0, 60, 98
1, 7380, Note_on_c, 0, 63, 80
1, 7380, Note_on_c, 0, 67, 91
1, 7381, Note_on_c, 0, 67, 0
1, 7381, Note_on_c, 0, 63, 0
1, 7381, Note_on_c, 0, 60, 0
1, 7388, Note_on_c, 15, 58, 0
1, 7388, Note_on_c, 4, 58, 0
1, 7399, Note_on_c, 15, 63, 0
1, 7399, Note_on_c, 4, 63, 0
1, 7410, Note_on_c, 0, 60, 98
1, 7410, Note_on_c, 0, 63, 77
1, 7410, Note_on_c, 0, 67, 90
1, 7410, Note_on_c, 3, 65, 111
1, 7410, Note_on_c, 4, 55, 120
1, 7410, Note_on_c, 4, 58, 119
1, 7410, Note_on_c, 15, 55, 1
1, 7410, Note_on_c, 15, 58, 1
1, 7411, Note_on_c, 0, 67, 0
1, 7411, Note_on_c, 0, 60, 0
1, 7411, Note_on_c, 0, 63, 0
1, 7412, Note_on_c, 3, 67, 0
1, 7426, Note_on_c, 4, 55, 0
1, 7426, Note_on_c, 4, 58, 0
1, 7426, Note_on_c, 15, 58, 0
1, 7426, Note_on_c, 15, 55, 0
1, 7431, Note_on_c, 3, 65, 0
1, 7440, Note_on_c, 0, 56, 96
1, 7440, Note_on_c, 0, 60, 119
1, 7440, Note_on_c, 0, 63, 91
1, 7440, Note_on_c, 1, 32, 120
1, 7440, Note_on_c, 3, 63, 119
1, 7440, Note_on_c, 4, 55, 111
1, 7440, Note_on_c, 4, 58, 115
1, 7440, Note_on_c, 6, 75, 119
1, 7440, Note_on_c, 7, 75, 100
1, 7440, Note_on_c, 9, 36, 120
1, 7440, Note_on_c, 15, 55, 1
1, 7440, Note_on_c, 15, 58, 1
1, 7440, Lyric_t, "oh "
1, 7440, Lyric_t, "\015"
1, 7443, Note_on_c, 7, 79, 0
1, 7448, Note_on_c, 6, 79, 0
1, 7469, Note_on_c, 0, 56, 0
1, 7471, Note_on_c, 0, 60, 0
1, 7471, Note_on_c, 1, 32, 0
1, 7474, Note_on_c, 0, 63, 0
1, 7478, Note_on_c, 9, 36, 0
1, 7500, Note_on_c, 0, 56, 82
1, 7500, Note_on_c, 0, 60, 111
1, 7500, Note_on_c, 0, 63, 80
1, 7501, Note_on_c, 0, 63, 0
1, 7501, Note_on_c, 0, 60, 0
1, 7501, Note_on_c, 0, 56, 0
1, 7530, Note_on_c, 0, 58, 91
1, 7530, Note_on_c, 0, 62, 119
1, 7530, Note_on_c, 0, 65, 89
1, 7530, Note_on_c, 1, 31, 116
1, 7549, Note_on_c, 4, 58, 0
1, 7549, Note_on_c, 4, 55, 0
1, 7549, Note_on_c, 15, 55, 0
1, 7549, Note_on_c, 15, 58, 0
1, 7551, Note_on_c, 6, 75, 0
1, 7552, Note_on_c, 1, 31, 0
1, 7556, Note_on_c, 0, 58, 0
1, 7558, Note_on_c, 0, 65, 0
1, 7559, Note_on_c, 0, 62, 0
1, 7559, Note_on_c, 7, 75, 0
1, 7560, Note_on_c, 6, 72, 120
1, 7560, Note_on_c, 7, 72, 111
1, 7560, Note_on_c, 9, 38, 120
1, 7590, Note_on_c, 0, 58, 60
1, 7590, Note_on_c, 0, 62, 109
1, 7590, Note_on_c, 0, 65, 77
1, 7591, Note_on_c, 0, 65, 0
1, 7591, Note_on_c, 0, 58, 0
1, 7591, Note_on_c, 0, 62, 0
1, 7596, Note_on_c, 3, 63, 0
1, 7598, Note_on_c, 9, 38, 0
1, 7620, Note_on_c, 0, 56, 91
1, 7620, Note_on_c, 0, 60, 119
1, 7620, Note_on_c, 0, 63, 91
1, 7620, Note_on_c, 1, 29, 120
1, 7620, Note_on_c, 3, 72, 116
1, 7620, Lyric_t, "Oh "
1, 7651, Note_on_c, 3, 72, 0
1, 7680, Note_on_c, 3, 67, 118
1, 7680, Note_on_c, 6, 70, 120
1, 7680, Note_on_c, 7, 70, 102
1, 7680, Note_on_c, 9, 36, 120
1, 7680, Lyric_t, "girl, "
1, 7683, Note_on_c, 6, 72, 0
1, 7684, Note_on_c, 7, 72, 0
1, 7717, Note_on_c, 9, 36, 0
1, 7721, Note_on_c, 1, 29, 0
1, 7728, Note_on_c, 3, 67, 0
1, 7740, Note_on_c, 1, 41, 120
1, 7740, Note_on_c, 3, 65, 97
1, 7740, Lyric_t, "I'm "
1, 7765, Note_on_c, 3, 65, 0
1, 7774, Note_on_c, 1, 41, 0
1, 7794, Note_on_c, 0, 60, 0
1, 7796, Note_on_c, 0, 63, 0
1, 7799, Note_on_c, 0, 56, 0
1, 7800, Note_on_c, 0, 56, 86
1, 7800, Note_on_c, 0, 60, 116
1, 7800, Note_on_c, 0, 63, 78
1, 7800, Note_on_c, 1, 41, 120
1, 7800, Note_on_c, 3, 65, 95
1, 7800, Note_on_c, 9, 38, 120
1, 7800, Lyric_t, "gon"
1, 7827, Note_on_c, 0, 60, 0
1, 7829, Note_on_c, 0, 56, 0
1, 7830, Note_on_c, 0, 63, 0
1, 7832, Note_on_c, 1, 41, 0
1, 7841, Note_on_c, 9, 38, 0
1, 7857, Note_on_c, 3, 65, 0
1, 7860, Note_on_c, 0, 56, 53
1, 7860, Note_on_c, 0, 60, 98
1, 7860, Note_on_c, 0, 63, 60
1, 7860, Note_on_c, 3, 63, 119
1, 7860, Lyric_t, "na "
1, 7861, Note_on_c, 0, 63, 0
1, 7861, Note_on_c, 0, 60, 0
1, 7861, Note_on_c, 0, 56, 0
1, 7890, Note_on_c, 0, 56, 70
1, 7890, Note_on_c, 0, 60, 101
1, 7890, Note_on_c, 0, 63, 62
1, 7891, Note_on_c, 0, 63, 0
1, 7891, Note_on_c, 0, 56, 0
1, 7891, Note_on_c, 0, 60, 0
1, 7893, Note_on_c, 3, 63, 0
1, 7920, Note_on_c, 0, 56, 92
1, 7920, Note_on_c, 0, 60, 118
1, 7920, Note_on_c, 0, 63, 92
1, 7920, Note_on_c, 1, 29, 120
1, 7920, Note_on_c, 3, 63, 120
1, 7920, Note_on_c, 9, 36, 120
1, 7920, Lyric_t, "show "
1, 7955, Note_on_c, 1, 29, 0
1, 7958, Note_on_c, 0, 60, 0
1, 7959, Note_on_c, 9, 36, 0
1, 7961, Note_on_c, 0, 56, 0
1, 7962, Note_on_c, 0, 63, 0
1, 7968, Note_on_c, 3, 63, 0
1, 7980, Note_on_c, 0, 56, 62
1, 7980, Note_on_c, 0, 60, 97
1, 7980, Note_on_c, 0, 63, 62
1, 7980, Note_on_c, 3, 58, 120
1, 7980, Lyric_t, "you "
1, 7980, Lyric_t, "\015"
1, 7981, Note_on_c, 0, 63, 0
1, 7981, Note_on_c, 0, 60, 0
1, 7981, Note_on_c, 0, 56, 0
1, 8015, Note_on_c, 3, 58, 0
1, 8018, Note_on_c, 6, 70, 0
1, 8034, Note_on_c, 7, 70, 0
1, 8040, Note_on_c, 0, 60, 116
1, 8040, Note_on_c, 0, 63, 92
1, 8040, Note_on_c, 0, 67, 111
1, 8040, Note_on_c, 1, 29, 116
1, 8040, Note_on_c, 3, 60, 119
1, 8040, Note_on_c, 9, 38, 120
1, 8040, Lyric_t, "when "
1, 8070, Note_on_c, 1, 29, 0
1, 8071, Note_on_c, 3, 60, 0
1, 8073, Note_on_c, 9, 38, 0
1, 8079, Note_on_c, 0, 60, 0
1, 8082, Note_on_c, 0, 67, 0
1, 8082, Note_on_c, 0, 63, 0
1, 8100, Note_on_c, 3, 58, 120
1, 8100, Lyric_t, "you're "
1, 8134, Note_on_c, 3, 58, 0
1, 8160, Note_on_c, 0, 58, 120
1, 8160, Note_on_c, 0, 70, 120
1, 8160, Pitch_bend_c, 1, 7201
1, 8160, Pitch_bend_c, 1, 5740
1, 8160, Pitch_bend_c, 1, 4801
1, 8160, Pitch_bend_c, 1, 3966
1, 8160, Pitch_bend_c, 1, 2922
1, 8160, Pitch_bend_c, 1, 2088
1, 8160, Pitch_bend_c, 1, 1253
1, 8160, Pitch_bend_c, 1, 1148
1, 8160, Pitch_bend_c, 1, 1044
1, 8160, Pitch_bend_c, 1, 5740
1, 8160, Pitch_bend_c, 1, 8192
1, 8160, Pitch_bend_c, 1, 8140
1, 8160, Pitch_bend_c, 1, 8192
1, 8160, Note_on_c, 1, 34, 120
1, 8160, Note_on_c, 3, 67, 120
1, 8160, Note_on_c, 6, 82, 115
1, 8160, Note_on_c, 7, 82, 100
1, 8160, Note_on_c, 8, 82, 100
1, 8160, Note_on_c, 9, 36, 120
1, 8160, Note_on_c, 9, 38, 120
1, 8160, Lyric_t, "mine, "
1, 8177, Note_on_c, 0, 70, 0
1, 8180, Note_on_c, 0, 58, 0
1, 8190, Note_on_c, 0, 58, 109
1, 8190, Note_on_c, 0, 70, 84
1, 8195, Note_on_c, 9, 36, 0
1, 8195, Note_on_c, 9, 38, 0
1, 8225, Note_on_c, 0, 70, 0
1, 8227, Note_on_c, 0, 58, 0
1, 8250, Note_on_c, 0, 58, 119
1, 8250, Note_on_c, 0, 70, 120
1, 8252, Note_on_c, 3, 67, 0
1, 8263, Note_on_c, 1, 34, 0
1, 8270, Note_on_c, 0, 70, 0
1, 8276, Note_on_c, 0, 58, 0
1, 8280, Note_on_c, 0, 58, 115
1, 8280, Note_on_c, 0, 70, 115
1, 8280, Note_on_c, 1, 34, 109
1, 8280, Note_on_c, 3, 68, 120
1, 8280, Note_on_c, 9, 36, 120
1, 8280, Note_on_c, 9, 38, 120
1, 8280, Lyric_t, "oh "
1, 8311, Note_on_c, 0, 70, 0
1, 8312, Note_on_c, 0, 58, 0
1, 8314, Note_on_c, 9, 36, 0
1, 8317, Note_on_c, 9, 38, 0
1, 8340, Note_on_c, 0, 58, 100
1, 8340, Note_on_c, 0, 70, 115
1, 8363, Note_on_c, 0, 70, 0
1, 8368, Note_on_c, 0, 58, 0
1, 8369, Note_on_c, 1, 34, 0
1, 8370, Note_on_c, 0, 58, 109
1, 8370, Note_on_c, 0, 70, 102
1, 8381, Note_on_c, 3, 68, 0
1, 8399, Note_on_c, 0, 58, 0
1, 8400, Note_on_c, 0, 70, 0
1, 8400, Note_on_c, 1, 34, 120
1, 8400, Note_on_c, 3, 67, 120
1, 8400, Note_on_c, 9, 36, 120
1, 8400, Note_on_c, 9, 38, 120
1, 8400, Lyric_t, "mine "
1, 8400, Lyric_t, "\015"
1, 8430, Note_on_c, 0, 58, 102
1, 8430, Note_on_c, 0, 70, 120
1, 8436, Note_on_c, 9, 38, 0
1, 8439, Note_on_c, 9, 36, 0
1, 8447, Note_on_c, 0, 70, 0
1, 8455, Note_on_c, 0, 58, 0
1, 8460, Note_on_c, 0, 58, 111
1, 8460, Note_on_c, 0, 70, 109
1, 8470, Note_on_c, 1, 34, 0
1, 8496, Note_on_c, 3, 67, 0
1, 8499, Note_on_c, 6, 82, 0
1, 8502, Note_on_c, 0, 70, 0
1, 8507, Note_on_c, 0, 58, 0
1, 8520, Note_on_c, 1, 34, 120
1, 8520, Note_on_c, 9, 36, 120
1, 8520, Note_on_c, 9, 38, 120
1, 8524, Note_on_c, 7, 82, 0
1, 8524, Note_on_c, 8, 82, 0
1, 8561, Note_on_c, 9, 38, 0
1, 8563, Note_on_c, 9, 36, 0
1, 8580, Note_on_c, 1, 41, 111
1, 8585, Note_on_c, 1, 34, 0
1, 8638, Note_on_c, 1, 41, 0
1, 8640, Note_on_c, 0, 58, 120
1, 8640, Note_on_c, 0, 70, 120
1, 8640, Note_on_c, 1, 46, 120
1, 8640, Note_on_c, 4, 58, 98
1, 8640, Note_on_c, 4, 63, 111
1, 8640, Note_on_c, 5, 67, 120
1, 8640, Note_on_c, 6, 82, 115
1, 8640, Note_on_c, 7, 82, 100
1, 8640, Note_on_c, 8, 82, 100
1, 8640, Note_on_c, 9, 36, 120
1, 8640, Note_on_c, 9, 38, 120
1, 8640, Note_on_c, 15, 58, 1
1, 8640, Note_on_c, 15, 63, 1
1, 8640, Lyric_t, "(mine, "
1, 8657, Note_on_c, 0, 70, 0
1, 8662, Note_on_c, 9, 38, 0
1, 8664, Note_on_c, 0, 58, 0
1, 8670, Note_on_c, 0, 58, 115
1, 8670, Note_on_c, 0, 70, 104
1, 8672, Note_on_c, 9, 36, 0
1, 8698, Note_on_c, 0, 70, 0
1, 8700, Note_on_c, 0, 58, 0
1, 8700, Note_on_c, 9, 38, 120
1, 8725, Note_on_c, 9, 38, 0
1, 8730, Note_on_c, 0, 58, 119
1, 8730, Note_on_c, 0, 70, 119
1, 8737, Note_on_c, 4, 58, 0
1, 8737, Note_on_c, 15, 58, 0
1, 8739, Note_on_c, 4, 63, 0
1, 8739, Note_on_c, 15, 63, 0
1, 8748, Note_on_c, 0, 70, 0
1, 8750, Note_on_c, 5, 67, 0
1, 8750, Note_on_c, 1, 46, 0
1, 8760, Note_on_c, 0, 70, 106
1, 8760, Note_on_c, 1, 46, 120
1, 8760, Note_on_c, 4, 58, 109
1, 8760, Note_on_c, 4, 65, 103
1, 8760, Note_on_c, 5, 68, 120
1, 8760, Note_on_c, 9, 36, 120
1, 8760, Note_on_c, 9, 38, 120
1, 8760, Note_on_c, 15, 58, 1
1, 8760, Note_on_c, 15, 65, 1
1, 8760, Lyric_t, "oh "
1, 8784, Note_on_c, 9, 38, 0
1, 8786, Note_on_c, 0, 58, 0
1, 8789, Note_on_c, 0, 70, 0
1, 8811, Note_on_c, 9, 36, 0
1, 8820, Note_on_c, 0, 58, 115
1, 8820, Note_on_c, 0, 70, 111
1, 8820, Note_on_c, 9, 38, 120
1, 8837, Note_on_c, 9, 38, 0
1, 8837, Note_on_c, 0, 70, 0
1, 8850, Note_on_c, 0, 70, 106
1, 8859, Note_on_c, 4, 65, 0
1, 8859, Note_on_c, 4, 58, 0
1, 8859, Note_on_c, 15, 58, 0
1, 8859, Note_on_c, 15, 65, 0
1, 8863, Note_on_c, 1, 46, 0
1, 8865, Note_on_c, 5, 68, 0
1, 8874, Note_on_c, 0, 58, 0
1, 8878, Note_on_c, 0, 70, 0
1, 8880, Note_on_c, 1, 46, 120
1, 8880, Note_on_c, 4, 58, 96
1, 8880, Note_on_c, 4, 63, 115
1, 8880, Note_on_c, 5, 67, 111
1, 8880, Note_on_c, 9, 36, 120
1, 8880, Note_on_c, 9, 38, 120
1, 8880, Note_on_c, 15, 58, 1
1, 8880, Note_on_c, 15, 63, 1
1, 8880, Lyric_t, "mi"
1, 8899, Note_on_c, 9, 38, 0
1, 8910, Note_on_c, 0, 58, 119
1, 8910, Note_on_c, 0, 70, 120
1, 8910, Note_on_c, 9, 38, 119
1, 8921, Note_on_c, 9, 38, 0
1, 8923, Note_on_c, 9, 36, 0
1, 8927, Note_on_c, 4, 63, 0
1, 8927, Note_on_c, 15, 63, 0
1, 8928, Note_on_c, 0, 70, 0
1, 8929, Note_on_c, 15, 58, 0
1, 8929, Note_on_c, 4, 58, 0
1, 8933, Note_on_c, 0, 58, 0
1, 8934, Note_on_c, 1, 46, 0
1, 8935, Note_on_c, 5, 67, 0
1, 8940, Note_on_c, 0, 58, 109
1, 8940, Note_on_c, 0, 70, 100
1, 8940, Note_on_c, 1, 34, 120
1, 8940, Note_on_c, 4, 58, 96
1, 8940, Note_on_c, 4, 63, 115
1, 8940, Note_on_c, 5, 65, 113
1, 8940, Note_on_c, 9, 38, 120
1, 8940, Note_on_c, 15, 58, 1
1, 8940, Note_on_c, 15, 63, 1
1, 8940, Lyric_t, "ne) "
1, 8940, Lyric_t, "\015"
1, 8965, Note_on_c, 9, 38, 0
1, 8979, Note_on_c, 6, 82, 0
1, 8980, Note_on_c, 4, 63, 0
1, 8980, Note_on_c, 15, 63, 0
1, 8983, Note_on_c, 0, 70, 0
1, 8983, Note_on_c, 15, 58, 0
1, 8983, Note_on_c, 4, 58, 0
1, 8988, Note_on_c, 5, 65, 0
1, 8989, Note_on_c, 0, 58, 0
1, 8992, Note_on_c, 1, 34, 0
1, 9000, Note_on_c, 9, 36, 120
1, 9000, Note_on_c, 9, 38, 120
1, 9000, Note_on_c, 9, 39, 120
1, 9000, Note_on_c, 9, 40, 120
1, 9004, Note_on_c, 7, 82, 0
1, 9004, Note_on_c, 8, 82, 0
1, 9017, Note_on_c, 9, 39, 0
1, 9027, Note_on_c, 9, 38, 0
1, 9028, Note_on_c, 9, 36, 0
1, 9036, Note_on_c, 9, 40, 0
1, 9120, Note_on_c, 0, 63, 98
1, 9120, Note_on_c, 0, 67, 118
1, 9120, Note_on_c, 0, 72, 105
1, 9120, Note_on_c, 1, 32, 120
1, 9120, Note_on_c, 2, 63, 81
1, 9120, Note_on_c, 2, 67, 116
1, 9120, Note_on_c, 2, 72, 107
1, 9120, Note_on_c, 3, 67, 120
1, 9120, Note_on_c, 4, 60, 107
1, 9120, Note_on_c, 4, 63, 120
1, 9120, Note_on_c, 4, 70, 119
1, 9120, Note_on_c, 5, 55, 120
1, 9120, Note_on_c, 7, 56, 92
1, 9120, Note_on_c, 7, 60, 120
1, 9120, Note_on_c, 7, 67, 113
1, 9120, Note_on_c, 8, 56, 92
1, 9120, Note_on_c, 8, 60, 120
1, 9120, Note_on_c, 8, 67, 113
1, 9120, Note_on_c, 9, 36, 120
1, 9120, Note_on_c, 11, 96, 120
1, 9120, Pitch_bend_c, 11, 8125
1, 9120, Note_on_c, 15, 70, 1
1, 9120, Note_on_c, 15, 60, 1
1, 9120, Note_on_c, 15, 63, 1
1, 9120, Lyric_t, "Trea"
1, 9121, Pitch_bend_c, 11, 8102
1, 9122, Pitch_bend_c, 11, 8079
1, 9123, Pitch_bend_c, 11, 8057
1, 9124, Control_c, 11, 11, 127
1, 9124, Pitch_bend_c, 11, 8034
1, 9125, Pitch_bend_c, 11, 8011
1, 9126, Pitch_bend_c, 11, 7989
1, 9127, Pitch_bend_c, 11, 7966
1, 9128, Control_c, 11, 11, 126
1, 9128, Pitch_bend_c, 11, 7943
1, 9129, Pitch_bend_c, 11, 7921
1, 9130, Pitch_bend_c, 11, 7898
1, 9131, Pitch_bend_c, 11, 7875
1, 9132, Pitch_bend_c, 11, 7853
1, 9133, Control_c, 11, 11, 125
1, 9133, Pitch_bend_c, 11, 7830
1, 9134, Pitch_bend_c, 11, 7807
1, 9135, Pitch_bend_c, 11, 7785
1, 9136, Pitch_bend_c, 11, 7762
1, 9137, Control_c, 11, 11, 124
1, 9137, Pitch_bend_c, 11, 7739
1, 9138, Pitch_bend_c, 11, 7717
1, 9139, Pitch_bend_c, 11, 7694
1, 9140, Pitch_bend_c, 11, 7671
1, 9141, Pitch_bend_c, 11, 7649
1, 9142, Control_c, 11, 11, 123
1, 9142, Pitch_bend_c, 11, 7626
1, 9143, Pitch_bend_c, 11, 7603
1, 9144, Pitch_bend_c, 11, 7581
1, 9145, Pitch_bend_c, 11, 7558
1, 9146, Control_c, 11, 11, 122
1, 9146, Pitch_bend_c, 11, 7535
1, 9147, Pitch_bend_c, 11, 7513
1, 9148, Pitch_bend_c, 11, 7490
1, 9149, Pitch_bend_c, 11, 7467
1, 9150, Pitch_bend_c, 11, 7445
1, 9151, Control_c, 11, 11, 121
1, 9151, Pitch_bend_c, 11, 7422
1, 9152, Note_on_c, 5, 55, 0
1, 9152, Note_on_c, 3, 67, 0
1, 9152, Pitch_bend_c, 11, 7399
1, 9153, Note_on_c, 9, 36, 0
1, 9153, Pitch_bend_c, 11, 7377
1, 9154, Pitch_bend_c, 11, 7354
1, 9155, Control_c, 11, 11, 120
1, 9155, Pitch_bend_c, 11, 7331
1, 9156, Pitch_bend_c, 11, 7309
1, 9157, Pitch_bend_c, 11, 7286
1, 9158, Pitch_bend_c, 11, 7263
1, 9159, Pitch_bend_c, 11, 7241
1, 9160, Control_c, 11, 11, 119
1, 9160, Pitch_bend_c, 11, 7218
1, 9161, Pitch_bend_c, 11, 7195
1, 9162, Note_on_c, 4, 70, 0
1, 9162, Note_on_c, 15, 70, 0
1, 9162, Pitch_bend_c, 11, 7173
1, 9163, Note_on_c, 4, 60, 0
1, 9163, Note_on_c, 15, 60, 0
1, 9163, Pitch_bend_c, 11, 7150
1, 9164, Note_on_c, 4, 63, 0
1, 9164, Note_on_c, 15, 63, 0
1, 9164, Control_c, 11, 11, 118
1, 9164, Pitch_bend_c, 11, 7127
1, 9165, Pitch_bend_c, 11, 7105
1, 9166, Pitch_bend_c, 11, 7082
1, 9167, Pitch_bend_c, 11, 7059
1, 9168, Pitch_bend_c, 11, 7037
1, 9169, Control_c, 11, 11, 117
1, 9169, Pitch_bend_c, 11, 7014
1, 9170, Pitch_bend_c, 11, 6991
1, 9171, Pitch_bend_c, 11, 6969
1, 9172, Pitch_bend_c, 11, 6946
1, 9173, Control_c, 11, 11, 116
1, 9173, Pitch_bend_c, 11, 6923
1, 9174, Pitch_bend_c, 11, 6901
1, 9175, Pitch_bend_c, 11, 6878
1, 9176, Pitch_bend_c, 11, 6855
1, 9177, Pitch_bend_c, 11, 6833
1, 9178, Control_c, 11, 11, 115
1, 9178, Pitch_bend_c, 11, 6810
1, 9179, Note_on_c, 1, 32, 0
1, 9179, Pitch_bend_c, 11, 6788
1, 9180, Note_on_c, 1, 44, 120
1, 9180, Note_on_c, 3, 67, 120
1, 9180, Note_on_c, 4, 60, 118
1, 9180, Note_on_c, 4, 63, 119
1, 9180, Note_on_c, 4, 70, 98
1, 9180, Note_on_c, 5, 55, 120
1, 9180, Note_on_c, 9, 42, 120
1, 9180, Pitch_bend_c, 11, 6765
1, 9180, Note_on_c, 15, 63, 1
1, 9180, Note_on_c, 15, 60, 1
1, 9180, Note_on_c, 15, 70, 1
1, 9180, Lyric_t, "sure, "
1, 9181, Pitch_bend_c, 11, 6742
1, 9182, Control_c, 11, 11, 114
1, 9182, Pitch_bend_c, 11, 6720
1, 9183, Pitch_bend_c, 11, 6697
1, 9184, Pitch_bend_c, 11, 6674
1, 9185, Pitch_bend_c, 11, 6652
1, 9186, Pitch_bend_c, 11, 6629
1, 9187, Control_c, 11, 11, 113
1, 9187, Pitch_bend_c, 11, 6606
1, 9188, Pitch_bend_c, 11, 6584
1, 9189, Pitch_bend_c, 11, 6561
1, 9190, Pitch_bend_c, 11, 6538
1, 9191, Control_c, 11, 11, 112
1, 9191, Pitch_bend_c, 11, 6516
1, 9192, Pitch_bend_c, 11, 6493
1, 9193, Pitch_bend_c, 11, 6470
1, 9194, Pitch_bend_c, 11, 6448
1, 9195, Pitch_bend_c, 11, 6425
1, 9196, Control_c, 11, 11, 111
1, 9196, Pitch_bend_c, 11, 6402
1, 9197, Pitch_bend_c, 11, 6380
1, 9198, Pitch_bend_c, 11, 6357
1, 9199, Pitch_bend_c, 11, 6334
1, 9200, Control_c, 11, 11, 110
1, 9200, Pitch_bend_c, 11, 6312
1, 9201, Pitch_bend_c, 11, 6289
1, 9202, Pitch_bend_c, 11, 6266
1, 9203, Pitch_bend_c, 11, 6244
1, 9204, Pitch_bend_c, 11, 6221
1, 9205, Control_c, 11, 11, 109
1, 9205, Pitch_bend_c, 11, 6198
1, 9206, Pitch_bend_c, 11, 6176
1, 9207, Pitch_bend_c, 11, 6153
1, 9208, Pitch_bend_c, 11, 6130
1, 9209, Control_c, 11, 11, 108
1, 9209, Pitch_bend_c, 11, 6108
1, 9210, Pitch_bend_c, 11, 6085
1, 9211, Note_on_c, 9, 42, 0
1, 9211, Pitch_bend_c, 11, 6062
1, 9212, Pitch_bend_c, 11, 6040
1, 9213, Pitch_bend_c, 11, 6017
1, 9214, Control_c, 11, 11, 107
1, 9214, Pitch_bend_c, 11, 5994
1, 9215, Note_on_c, 1, 44, 0
1, 9215, Pitch_bend_c, 11, 5972
1, 9216, Pitch_bend_c, 11, 5949
1, 9217, Pitch_bend_c, 11, 5926
1, 9218, Control_c, 11, 11, 106
1, 9218, Pitch_bend_c, 11, 5904
1, 9219, Pitch_bend_c, 11, 5881
1, 9220, Pitch_bend_c, 11, 5858
1, 9221, Pitch_bend_c, 11, 5836
1, 9222, Pitch_bend_c, 11, 5813
1, 9223, Control_c, 11, 11, 105
1, 9223, Pitch_bend_c, 11, 5790
1, 9224, Pitch_bend_c, 11, 5768
1, 9225, Pitch_bend_c, 11, 5745
1, 9226, Pitch_bend_c, 11, 5722
1, 9227, Control_c, 11, 11, 104
1, 9227, Pitch_bend_c, 11, 5700
1, 9228, Pitch_bend_c, 11, 5677
1, 9229, Pitch_bend_c, 11, 5654
1, 9230, Note_on_c, 0, 67, 0
1, 9230, Pitch_bend_c, 11, 5632
1, 9231, Pitch_bend_c, 11, 5609
1, 9232, Control_c, 11, 11, 103
1, 9232, Pitch_bend_c, 11, 5586
1, 9233, Pitch_bend_c, 11, 5564
1, 9234, Note_on_c, 8, 67, 0
1, 9234, Note_on_c, 7, 67, 0
1, 9234, Pitch_bend_c, 11, 5541
1, 9235, Note_on_c, 8, 56, 0
1, 9235, Note_on_c, 7, 56, 0
1, 9235, Pitch_bend_c, 11, 5518
1, 9236, Note_on_c, 4, 60, 0
1, 9236, Note_on_c, 8, 60, 0
1, 9236, Note_on_c, 7, 60, 0
1, 9236, Note_on_c, 15, 60, 0
1, 9236, Note_on_c, 0, 63, 0
1, 9236, Control_c, 11, 11, 102
1, 9236, Pitch_bend_c, 11, 5496
1, 9237, Note_on_c, 4, 63, 0
1, 9237, Note_on_c, 15, 63, 0
1, 9237, Note_on_c, 4, 70, 0
1, 9237, Note_on_c, 15, 70, 0
1, 9237, Pitch_bend_c, 11, 5473
1, 9238, Note_on_c, 0, 72, 0
1, 9238, Pitch_bend_c, 11, 5451
1, 9239, Pitch_bend_c, 11, 5428
1, 9240, Note_on_c, 9, 38, 120
1, 9240, Pitch_bend_c, 11, 5405
1, 9240, Note_on_c, 12, 96, 120
1, 9240, Pitch_bend_c, 12, 8125
1, 9241, Control_c, 11, 11, 101
1, 9241, Pitch_bend_c, 11, 5383
1, 9241, Pitch_bend_c, 12, 8102
1, 9242, Note_on_c, 3, 67, 0
1, 9242, Note_on_c, 5, 55, 0
1, 9242, Pitch_bend_c, 11, 5360
1, 9242, Pitch_bend_c, 12, 8079
1, 9243, Pitch_bend_c, 11, 5337
1, 9243, Pitch_bend_c, 12, 8057
1, 9244, Pitch_bend_c, 11, 5315
1, 9244, Control_c, 12, 11, 127
1, 9244, Pitch_bend_c, 12, 8034
1, 9245, Control_c, 11, 11, 100
1, 9245, Pitch_bend_c, 11, 5292
1, 9245, Pitch_bend_c, 12, 8011
1, 9246, Pitch_bend_c, 11, 5269
1, 9246, Pitch_bend_c, 12, 7989
1, 9247, Pitch_bend_c, 11, 5247
1, 9247, Pitch_bend_c, 12, 7966
1, 9248, Pitch_bend_c, 11, 5224
1, 9248, Control_c, 12, 11, 126
1, 9248, Pitch_bend_c, 12, 7943
1, 9249, Pitch_bend_c, 11, 5201
1, 9249, Pitch_bend_c, 12, 7921
1, 9250, Control_c, 11, 11, 99
1, 9250, Pitch_bend_c, 11, 5179
1, 9250, Pitch_bend_c, 12, 7898
1, 9251, Pitch_bend_c, 11, 5156
1, 9251, Pitch_bend_c, 12, 7875
1, 9252, Pitch_bend_c, 11, 5133
1, 9252, Pitch_bend_c, 12, 7853
1, 9253, Pitch_bend_c, 11, 5111
1, 9253, Control_c, 12, 11, 125
1, 9253, Pitch_bend_c, 12, 7830
1, 9254, Control_c, 11, 11, 98
1, 9254, Pitch_bend_c, 11, 5088
1, 9254, Pitch_bend_c, 12, 7807
1, 9255, Pitch_bend_c, 11, 5065
1, 9255, Pitch_bend_c, 12, 7785
1, 9256, Pitch_bend_c, 11, 5043
1, 9256, Pitch_bend_c, 12, 7762
1, 9257, Pitch_bend_c, 11, 5020
1, 9257, Control_c, 12, 11, 124
1, 9257, Pitch_bend_c, 12, 7739
1, 9258, Pitch_bend_c, 11, 4997
1, 9258, Pitch_bend_c, 12, 7717
1, 9259, Control_c, 11, 11, 97
1, 9259, Pitch_bend_c, 11, 4975
1, 9259, Pitch_bend_c, 12, 7694
1, 9260, Pitch_bend_c, 11, 4952
1, 9260, Pitch_bend_c, 12, 7671
1, 9261, Pitch_bend_c, 11, 4929
1, 9261, Pitch_bend_c, 12, 7649
1, 9262, Pitch_bend_c, 11, 4907
1, 9262, Control_c, 12, 11, 123
1, 9262, Pitch_bend_c, 12, 7626
1, 9263, Control_c, 11, 11, 96
1, 9263, Pitch_bend_c, 11, 4884
1, 9263, Pitch_bend_c, 12, 7603
1, 9264, Pitch_bend_c, 11, 4861
1, 9264, Pitch_bend_c, 12, 7581
1, 9265, Pitch_bend_c, 11, 4839
1, 9265, Pitch_bend_c, 12, 7558
1, 9266, Pitch_bend_c, 11, 4816
1, 9266, Control_c, 12, 11, 122
1, 9266, Pitch_bend_c, 12, 7535
1, 9267, Pitch_bend_c, 11, 4793
1, 9267, Pitch_bend_c, 12, 7513
1, 9268, Control_c, 11, 11, 95
1, 9268, Pitch_bend_c, 11, 4771
1, 9268, Pitch_bend_c, 12, 7490
1, 9269, Pitch_bend_c, 11, 4748
1, 9269, Pitch_bend_c, 12, 7467
1, 9270, Note_on_c, 0, 63, 73
1, 9270, Note_on_c, 0, 67, 82
1, 9270, Note_on_c, 0, 72, 83
1, 9270, Pitch_bend_c, 11, 4725
1, 9270, Pitch_bend_c, 12, 7445
1, 9271, Note_on_c, 0, 72, 0
1, 9271, Note_on_c, 0, 67, 0
1, 9271, Note_on_c, 0, 63, 0
1, 9271, Pitch_bend_c, 11, 4703
1, 9271, Control_c, 12, 11, 121
1, 9271, Pitch_bend_c, 12, 7422
1, 9272, Control_c, 11, 11, 94
1, 9272, Pitch_bend_c, 11, 4680
1, 9272, Pitch_bend_c, 12, 7399
1, 9273, Note_on_c, 9, 38, 0
1, 9273, Pitch_bend_c, 11, 4657
1, 9273, Pitch_bend_c, 12, 7377
1, 9274, Pitch_bend_c, 11, 4635
1, 9274, Pitch_bend_c, 12, 7354
1, 9275, Pitch_bend_c, 11, 4612
1, 9275, Control_c, 12, 11, 120
1, 9275, Pitch_bend_c, 12, 7331
1, 9276, Pitch_bend_c, 11, 4589
1, 9276, Pitch_bend_c, 12, 7309
1, 9277, Control_c, 11, 11, 93
1, 9277, Pitch_bend_c, 11, 4567
1, 9277, Pitch_bend_c, 12, 7286
1, 9278, Pitch_bend_c, 11, 4544
1, 9278, Pitch_bend_c, 12, 7263
1, 9279, Pitch_bend_c, 11, 4521
1, 9279, Pitch_bend_c, 12, 7241
1, 9280, Pitch_bend_c, 11, 4499
1, 9280, Control_c, 12, 11, 119
1, 9280, Pitch_bend_c, 12, 7218
1, 9281, Control_c, 11, 11, 92
1, 9281, Pitch_bend_c, 11, 4476
1, 9281, Pitch_bend_c, 12, 7195
1, 9282, Pitch_bend_c, 11, 4453
1, 9282, Pitch_bend_c, 12, 7173
1, 9283, Pitch_bend_c, 11, 4431
1, 9283, Pitch_bend_c, 12, 7150
1, 9284, Pitch_bend_c, 11, 4408
1, 9284, Control_c, 12, 11, 118
1, 9284, Pitch_bend_c, 12, 7127
1, 9285, Pitch_bend_c, 11, 4385
1, 9285, Pitch_bend_c, 12, 7105
1, 9286, Control_c, 11, 11, 91
1, 9286, Pitch_bend_c, 11, 4363
1, 9286, Pitch_bend_c, 12, 7082
1, 9287, Note_on_c, 10, 70, 89
1, 9287, Pitch_bend_c, 11, 4340
1, 9287, Pitch_bend_c, 12, 7059
1, 9288, Pitch_bend_c, 11, 4317
1, 9288, Pitch_bend_c, 12, 7037
1, 9289, Pitch_bend_c, 11, 4295
1, 9289, Control_c, 12, 11, 117
1, 9289, Pitch_bend_c, 12, 7014
1, 9290, Control_c, 11, 11, 90
1, 9290, Pitch_bend_c, 11, 4272
1, 9290, Pitch_bend_c, 12, 6991
1, 9291, Pitch_bend_c, 11, 4249
1, 9291, Pitch_bend_c, 12, 6969
1, 9292, Pitch_bend_c, 11, 4227
1, 9292, Pitch_bend_c, 12, 6946
1, 9293, Pitch_bend_c, 11, 4204
1, 9293, Control_c, 12, 11, 116
1, 9293, Pitch_bend_c, 12, 6923
1, 9294, Pitch_bend_c, 11, 4181
1, 9294, Pitch_bend_c, 12, 6901
1, 9295, Control_c, 11, 11, 89
1, 9295, Pitch_bend_c, 11, 4159
1, 9295, Pitch_bend_c, 12, 6878
1, 9296, Pitch_bend_c, 11, 4136
1, 9296, Pitch_bend_c, 12, 6855
1, 9297, Pitch_bend_c, 11, 4113
1, 9297, Pitch_bend_c, 12, 6833
1, 9298, Pitch_bend_c, 11, 4091
1, 9298, Control_c, 12, 11, 115
1, 9298, Pitch_bend_c, 12, 6810
1, 9299, Control_c, 11, 11, 88
1, 9299, Pitch_bend_c, 11, 4068
1, 9299, Pitch_bend_c, 12, 6788
1, 9300, Note_on_c, 0, 63, 80
1, 9300, Note_on_c, 0, 67, 91
1, 9300, Note_on_c, 0, 72, 98
1, 9300, Note_on_c, 9, 42, 120
1, 9300, Note_on_c, 10, 72, 118
1, 9300, Pitch_bend_c, 11, 4046
1, 9300, Pitch_bend_c, 12, 6765
1, 9301, Note_on_c, 0, 72, 0
1, 9301, Note_on_c, 0, 67, 0
1, 9301, Note_on_c, 0, 63, 0
1, 9301, Pitch_bend_c, 11, 4023
1, 9301, Pitch_bend_c, 12, 6742
1, 9302, Pitch_bend_c, 11, 4000
1, 9302, Control_c, 12, 11, 114
1, 9302, Pitch_bend_c, 12, 6720
1, 9303, Pitch_bend_c, 11, 3978
1, 9303, Pitch_bend_c, 12, 6697
1, 9304, Control_c, 11, 11, 87
1, 9304, Pitch_bend_c, 11, 3955
1, 9304, Pitch_bend_c, 12, 6674
1, 9305, Note_on_c, 10, 70, 0
1, 9305, Pitch_bend_c, 11, 3932
1, 9305, Pitch_bend_c, 12, 6652
1, 9306, Pitch_bend_c, 11, 3910
1, 9306, Pitch_bend_c, 12, 6629
1, 9307, Pitch_bend_c, 11, 3887
1, 9307, Control_c, 12, 11, 113
1, 9307, Pitch_bend_c, 12, 6606
1, 9308, Control_c, 11, 11, 86
1, 9308, Pitch_bend_c, 11, 3864
1, 9308, Pitch_bend_c, 12, 6584
1, 9309, Pitch_bend_c, 11, 3842
1, 9309, Pitch_bend_c, 12, 6561
1, 9310, Pitch_bend_c, 11, 3819
1, 9310, Pitch_bend_c, 12, 6538
1, 9311, Pitch_bend_c, 11, 3796
1, 9311, Control_c, 12, 11, 112
1, 9311, Pitch_bend_c, 12, 6516
1, 9312, Pitch_bend_c, 11, 3774
1, 9312, Pitch_bend_c, 12, 6493
1, 9313, Pitch_bend_c, 11, 3751
1, 9313, Pitch_bend_c, 12, 6470
1, 9314, Pitch_bend_c, 11, 3728
1, 9314, Pitch_bend_c, 12, 6448
1, 9315, Pitch_bend_c, 11, 3706
1, 9315, Pitch_bend_c, 12, 6425
1, 9316, Pitch_bend_c, 11, 3683
1, 9316, Control_c, 12, 11, 111
1, 9316, Pitch_bend_c, 12, 6402
1, 9317, Control_c, 11, 11, 85
1, 9317, Pitch_bend_c, 11, 3660
1, 9317, Pitch_bend_c, 12, 6380
1, 9318, Pitch_bend_c, 11, 3638
1, 9318, Pitch_bend_c, 12, 6357
1, 9319, Pitch_bend_c, 11, 3615
1, 9319, Pitch_bend_c, 12, 6334
1, 9320, Pitch_bend_c, 11, 3592
1, 9320, Control_c, 12, 11, 110
1, 9320, Pitch_bend_c, 12, 6312
1, 9321, Pitch_bend_c, 11, 3570
1, 9321, Pitch_bend_c, 12, 6289
1, 9322, Control_c, 11, 11, 84
1, 9322, Pitch_bend_c, 11, 3547
1, 9322, Pitch_bend_c, 12, 6266
1, 9323, Note_on_c, 10, 72, 0
1, 9323, Pitch_bend_c, 11, 3524
1, 9323, Pitch_bend_c, 12, 6244
1, 9324, Pitch_bend_c, 11, 3502
1, 9324, Pitch_bend_c, 12, 6221
1, 9325, Pitch_bend_c, 11, 3479
1, 9325, Control_c, 12, 11, 109
1, 9325, Pitch_bend_c, 12, 6198
1, 9326, Note_on_c, 9, 42, 0
1, 9326, Control_c, 11, 11, 83
1, 9326, Pitch_bend_c, 11, 3456
1, 9326, Pitch_bend_c, 12, 6176
1, 9327, Pitch_bend_c, 11, 3434
1, 9327, Pitch_bend_c, 12, 6153
1, 9328, Pitch_bend_c, 11, 3411
1, 9328, Pitch_bend_c, 12, 6130
1, 9329, Pitch_bend_c, 11, 3388
1, 9329, Control_c, 12, 11, 108
1, 9329, Pitch_bend_c, 12, 6108
1, 9330, Note_on_c, 0, 63, 77
1, 9330, Note_on_c, 0, 67, 90
1, 9330, Note_on_c, 0, 72, 98
1, 9330, Pitch_bend_c, 11, 3366
1, 9330, Pitch_bend_c, 12, 6085
1, 9331, Note_on_c, 0, 72, 0
1, 9331, Note_on_c, 0, 67, 0
1, 9331, Note_on_c, 0, 63, 0
1, 9331, Control_c, 11, 11, 82
1, 9331, Pitch_bend_c, 11, 3343
1, 9331, Pitch_bend_c, 12, 6062
1, 9332, Pitch_bend_c, 11, 3320
1, 9332, Pitch_bend_c, 12, 6040
1, 9333, Pitch_bend_c, 11, 3298
1, 9333, Pitch_bend_c, 12, 6017
1, 9334, Pitch_bend_c, 11, 3275
1, 9334, Control_c, 12, 11, 107
1, 9334, Pitch_bend_c, 12, 5994
1, 9335, Control_c, 11, 11, 81
1, 9335, Pitch_bend_c, 11, 3252
1, 9335, Pitch_bend_c, 12, 5972
1, 9336, Pitch_bend_c, 11, 3230
1, 9336, Pitch_bend_c, 12, 5949
1, 9337, Pitch_bend_c, 11, 3207
1, 9337, Pitch_bend_c, 12, 5926
1, 9338, Pitch_bend_c, 11, 3184
1, 9338, Control_c, 12, 11, 106
1, 9338, Pitch_bend_c, 12, 5904
1, 9339, Pitch_bend_c, 11, 3162
1, 9339, Pitch_bend_c, 12, 5881
1, 9340, Control_c, 11, 11, 80
1, 9340, Pitch_bend_c, 11, 3139
1, 9340, Pitch_bend_c, 12, 5858
1, 9341, Pitch_bend_c, 11, 3116
1, 9341, Pitch_bend_c, 12, 5836
1, 9342, Pitch_bend_c, 11, 3094
1, 9342, Pitch_bend_c, 12, 5813
1, 9343, Pitch_bend_c, 11, 3071
1, 9343, Control_c, 12, 11, 105
1, 9343, Pitch_bend_c, 12, 5790
1, 9344, Control_c, 11, 11, 79
1, 9344, Pitch_bend_c, 11, 3048
1, 9344, Pitch_bend_c, 12, 5768
1, 9345, Pitch_bend_c, 11, 3026
1, 9345, Pitch_bend_c, 12, 5745
1, 9346, Pitch_bend_c, 11, 3003
1, 9346, Pitch_bend_c, 12, 5722
1, 9347, Pitch_bend_c, 11, 2980
1, 9347, Control_c, 12, 11, 104
1, 9347, Pitch_bend_c, 12, 5700
1, 9348, Pitch_bend_c, 11, 2958
1, 9348, Pitch_bend_c, 12, 5677
1, 9349, Control_c, 11, 11, 78
1, 9349, Pitch_bend_c, 11, 2935
1, 9349, Pitch_bend_c, 12, 5654
1, 9350, Pitch_bend_c, 11, 2912
1, 9350, Pitch_bend_c, 12, 5632
1, 9351, Pitch_bend_c, 11, 2890
1, 9351, Pitch_bend_c, 12, 5609
1, 9352, Pitch_bend_c, 11, 2867
1, 9352, Control_c, 12, 11, 103
1, 9352, Pitch_bend_c, 12, 5586
1, 9353, Control_c, 11, 11, 77
1, 9353, Pitch_bend_c, 11, 2844
1, 9353, Pitch_bend_c, 12, 5564
1, 9354, Pitch_bend_c, 11, 2822
1, 9354, Pitch_bend_c, 12, 5541
1, 9355, Pitch_bend_c, 11, 2799
1, 9355, Pitch_bend_c, 12, 5518
1, 9356, Pitch_bend_c, 11, 2776
1, 9356, Control_c, 12, 11, 102
1, 9356, Pitch_bend_c, 12, 5496
1, 9357, Pitch_bend_c, 11, 2754
1, 9357, Pitch_bend_c, 12, 5473
1, 9358, Control_c, 11, 11, 76
1, 9358, Pitch_bend_c, 11, 2731
1, 9358, Pitch_bend_c, 12, 5451
1, 9359, Pitch_bend_c, 11, 2709
1, 9359, Pitch_bend_c, 12, 5428
1, 9360, Note_on_c, 0, 63, 91
1, 9360, Note_on_c, 0, 67, 119
1, 9360, Note_on_c, 0, 72, 96
1, 9360, Note_on_c, 1, 32, 120
1, 9360, Note_on_c, 7, 56, 111
1, 9360, Note_on_c, 7, 60, 119
1, 9360, Note_on_c, 7, 67, 116
1, 9360, Note_on_c, 8, 56, 111
1, 9360, Note_on_c, 8, 60, 119
1, 9360, Note_on_c, 8, 67, 116
1, 9360, Note_on_c, 9, 36, 120
1, 9360, Note_on_c, 10, 70, 120
1, 9360, Pitch_bend_c, 11, 2686
1, 9360, Pitch_bend_c, 12, 5405
1, 9361, Pitch_bend_c, 11, 2663
1, 9361, Control_c, 12, 11, 101
1, 9361, Pitch_bend_c, 12, 5383
1, 9362, Control_c, 11, 11, 75
1, 9362, Pitch_bend_c, 11, 2641
1, 9362, Pitch_bend_c, 12, 5360
1, 9363, Pitch_bend_c, 11, 2618
1, 9363, Pitch_bend_c, 12, 5337
1, 9364, Pitch_bend_c, 11, 2595
1, 9364, Pitch_bend_c, 12, 5315
1, 9365, Pitch_bend_c, 11, 2573
1, 9365, Control_c, 12, 11, 100
1, 9365, Pitch_bend_c, 12, 5292
1, 9366, Pitch_bend_c, 11, 2550
1, 9366, Pitch_bend_c, 12, 5269
1, 9367, Control_c, 11, 11, 74
1, 9367, Pitch_bend_c, 11, 2527
1, 9367, Pitch_bend_c, 12, 5247
1, 9368, Pitch_bend_c, 11, 2505
1, 9368, Pitch_bend_c, 12, 5224
1, 9369, Pitch_bend_c, 11, 2482
1, 9369, Pitch_bend_c, 12, 5201
1, 9370, Pitch_bend_c, 11, 2459
1, 9370, Control_c, 12, 11, 99
1, 9370, Pitch_bend_c, 12, 5179
1, 9371, Control_c, 11, 11, 73
1, 9371, Pitch_bend_c, 11, 2437
1, 9371, Pitch_bend_c, 12, 5156
1, 9372, Pitch_bend_c, 11, 2414
1, 9372, Pitch_bend_c, 12, 5133
1, 9373, Pitch_bend_c, 11, 2391
1, 9373, Pitch_bend_c, 12, 5111
1, 9374, Pitch_bend_c, 11, 2369
1, 9374, Control_c, 12, 11, 98
1, 9374, Pitch_bend_c, 12, 5088
1, 9375, Pitch_bend_c, 11, 2346
1, 9375, Pitch_bend_c, 12, 5065
1, 9376, Control_c, 11, 11, 72
1, 9376, Pitch_bend_c, 11, 2323
1, 9376, Pitch_bend_c, 12, 5043
1, 9377, Pitch_bend_c, 11, 2301
1, 9377, Pitch_bend_c, 12, 5020
1, 9378, Pitch_bend_c, 11, 2278
1, 9378, Pitch_bend_c, 12, 4997
1, 9379, Pitch_bend_c, 11, 2255
1, 9379, Control_c, 12, 11, 97
1, 9379, Pitch_bend_c, 12, 4975
1, 9380, Control_c, 11, 11, 71
1, 9380, Pitch_bend_c, 11, 2233
1, 9380, Pitch_bend_c, 12, 4952
1, 9381, Pitch_bend_c, 11, 2210
1, 9381, Pitch_bend_c, 12, 4929
1, 9382, Pitch_bend_c, 11, 2187
1, 9382, Pitch_bend_c, 12, 4907
1, 9383, Pitch_bend_c, 11, 2165
1, 9383, Control_c, 12, 11, 96
1, 9383, Pitch_bend_c, 12, 4884
1, 9384, Pitch_bend_c, 11, 2142
1, 9384, Pitch_bend_c, 12, 4861
1, 9385, Control_c, 11, 11, 70
1, 9385, Pitch_bend_c, 11, 2119
1, 9385, Pitch_bend_c, 12, 4839
1, 9386, Pitch_bend_c, 11, 2097
1, 9386, Pitch_bend_c, 12, 4816
1, 9387, Pitch_bend_c, 11, 2074
1, 9387, Pitch_bend_c, 12, 4793
1, 9388, Pitch_bend_c, 11, 2051
1, 9388, Control_c, 12, 11, 95
1, 9388, Pitch_bend_c, 12, 4771
1, 9389, Note_on_c, 0, 72, 0
1, 9389, Control_c, 11, 11, 69
1, 9389, Pitch_bend_c, 11, 2029
1, 9389, Pitch_bend_c, 12, 4748
1, 9390, Pitch_bend_c, 11, 2006
1, 9390, Pitch_bend_c, 12, 4725
1, 9391, Note_on_c, 1, 32, 0
1, 9391, Note_on_c, 0, 67, 0
1, 9391, Pitch_bend_c, 11, 1983
1, 9391, Pitch_bend_c, 12, 4703
1, 9392, Note_on_c, 9, 36, 0
1, 9392, Pitch_bend_c, 11, 1961
1, 9392, Control_c, 12, 11, 94
1, 9392, Pitch_bend_c, 12, 4680
1, 9393, Note_on_c, 7, 67, 0
1, 9393, Note_on_c, 7, 60, 0
1, 9393, Note_on_c, 8, 67, 0
1, 9393, Note_on_c, 8, 60, 0
1, 9393, Pitch_bend_c, 11, 1938
1, 9393, Pitch_bend_c, 12, 4657
1, 9394, Note_on_c, 0, 63, 0
1, 9394, Control_c, 11, 11, 68
1, 9394, Pitch_bend_c, 11, 1915
1, 9394, Pitch_bend_c, 12, 4635
1, 9395, Pitch_bend_c, 11, 1893
1, 9395, Pitch_bend_c, 12, 4612
1, 9396, Pitch_bend_c, 11, 1870
1, 9396, Pitch_bend_c, 12, 4589
1, 9397, Pitch_bend_c, 11, 1847
1, 9397, Control_c, 12, 11, 93
1, 9397, Pitch_bend_c, 12, 4567
1, 9398, Control_c, 11, 11, 67
1, 9398, Pitch_bend_c, 11, 1825
1, 9398, Pitch_bend_c, 12, 4544
1, 9399, Pitch_bend_c, 11, 1802
1, 9399, Pitch_bend_c, 12, 4521
1, 9400, Note_on_c, 8, 56, 0
1, 9400, Note_on_c, 7, 56, 0
1, 9400, Pitch_bend_c, 11, 1779
1, 9400, Pitch_bend_c, 12, 4499
1, 9401, Pitch_bend_c, 11, 1757
1, 9401, Control_c, 12, 11, 92
1, 9401, Pitch_bend_c, 12, 4476
1, 9402, Pitch_bend_c, 11, 1734
1, 9402, Pitch_bend_c, 12, 4453
1, 9403, Control_c, 11, 11, 66
1, 9403, Pitch_bend_c, 11, 1711
1, 9403, Pitch_bend_c, 12, 4431
1, 9404, Pitch_bend_c, 11, 1689
1, 9404, Pitch_bend_c, 12, 4408
1, 9405, Pitch_bend_c, 11, 1666
1, 9405, Pitch_bend_c, 12, 4385
1, 9406, Pitch_bend_c, 11, 1643
1, 9406, Control_c, 12, 11, 91
1, 9406, Pitch_bend_c, 12, 4363
1, 9407, Control_c, 11, 11, 65
1, 9407, Pitch_bend_c, 11, 1621
1, 9407, Pitch_bend_c, 12, 4340
1, 9408, Pitch_bend_c, 11, 1598
1, 9408, Pitch_bend_c, 12, 4317
1, 9409, Pitch_bend_c, 11, 1575
1, 9409, Pitch_bend_c, 12, 4295
1, 9410, Pitch_bend_c, 11, 1553
1, 9410, Control_c, 12, 11, 90
1, 9410, Pitch_bend_c, 12, 4272
1, 9411, Pitch_bend_c, 11, 1530
1, 9411, Pitch_bend_c, 12, 4249
1, 9412, Control_c, 11, 11, 64
1, 9412, Pitch_bend_c, 11, 1507
1, 9412, Pitch_bend_c, 12, 4227
1, 9413, Pitch_bend_c, 11, 1485
1, 9413, Pitch_bend_c, 12, 4204
1, 9414, Pitch_bend_c, 11, 1462
1, 9414, Pitch_bend_c, 12, 4181
1, 9415, Pitch_bend_c, 11, 1439
1, 9415, Control_c, 12, 11, 89
1, 9415, Pitch_bend_c, 12, 4159
1, 9416, Control_c, 11, 11, 63
1, 9416, Pitch_bend_c, 11, 1417
1, 9416, Pitch_bend_c, 12, 4136
1, 9417, Pitch_bend_c, 11, 1394
1, 9417, Pitch_bend_c, 12, 4113
1, 9418, Pitch_bend_c, 11, 1371
1, 9418, Pitch_bend_c, 12, 4091
1, 9419, Pitch_bend_c, 11, 1349
1, 9419, Control_c, 12, 11, 88
1, 9419, Pitch_bend_c, 12, 4068
1, 9420, Note_on_c, 0, 63, 80
1, 9420, Note_on_c, 0, 67, 111
1, 9420, Note_on_c, 0, 72, 82
1, 9420, Note_on_c, 9, 42, 120
1, 9420, Pitch_bend_c, 11, 1326
1, 9420, Pitch_bend_c, 12, 4046
1, 9421, Note_on_c, 0, 72, 0
1, 9421, Note_on_c, 0, 67, 0
1, 9421, Note_on_c, 0, 63, 0
1, 9421, Control_c, 11, 11, 62
1, 9421, Pitch_bend_c, 11, 1304
1, 9421, Pitch_bend_c, 12, 4023
1, 9422, Pitch_bend_c, 11, 1281
1, 9422, Pitch_bend_c, 12, 4000
1, 9423, Pitch_bend_c, 11, 1258
1, 9423, Pitch_bend_c, 12, 3978
1, 9424, Pitch_bend_c, 11, 1236
1, 9424, Control_c, 12, 11, 87
1, 9424, Pitch_bend_c, 12, 3955
1, 9425, Control_c, 11, 11, 61
1, 9425, Pitch_bend_c, 11, 1213
1, 9425, Pitch_bend_c, 12, 3932
1, 9426, Pitch_bend_c, 11, 1190
1, 9426, Pitch_bend_c, 12, 3910
1, 9427, Pitch_bend_c, 11, 1168
1, 9427, Pitch_bend_c, 12, 3887
1, 9428, Pitch_bend_c, 11, 1145
1, 9428, Control_c, 12, 11, 86
1, 9428, Pitch_bend_c, 12, 3864
1, 9429, Pitch_bend_c, 11, 1122
1, 9429, Pitch_bend_c, 12, 3842
1, 9430, Control_c, 11, 11, 60
1, 9430, Pitch_bend_c, 11, 1100
1, 9430, Pitch_bend_c, 12, 3819
1, 9431, Pitch_bend_c, 11, 1077
1, 9431, Pitch_bend_c, 12, 3796
1, 9432, Pitch_bend_c, 11, 1054
1, 9432, Pitch_bend_c, 12, 3774
1, 9433, Pitch_bend_c, 11, 1032
1, 9433, Pitch_bend_c, 12, 3751
1, 9434, Control_c, 11, 11, 59
1, 9434, Pitch_bend_c, 11, 1009
1, 9434, Pitch_bend_c, 12, 3728
1, 9435, Pitch_bend_c, 11, 986
1, 9435, Pitch_bend_c, 12, 3706
1, 9436, Pitch_bend_c, 11, 964
1, 9436, Pitch_bend_c, 12, 3683
1, 9437, Pitch_bend_c, 11, 941
1, 9437, Control_c, 12, 11, 85
1, 9437, Pitch_bend_c, 12, 3660
1, 9438, Pitch_bend_c, 11, 918
1, 9438, Pitch_bend_c, 12, 3638
1, 9439, Control_c, 11, 11, 58
1, 9439, Pitch_bend_c, 11, 896
1, 9439, Pitch_bend_c, 12, 3615
1, 9440, Pitch_bend_c, 11, 873
1, 9440, Pitch_bend_c, 12, 3592
1, 9441, Pitch_bend_c, 11, 850
1, 9441, Pitch_bend_c, 12, 3570
1, 9442, Pitch_bend_c, 11, 828
1, 9442, Control_c, 12, 11, 84
1, 9442, Pitch_bend_c, 12, 3547
1, 9443, Control_c, 11, 11, 57
1, 9443, Pitch_bend_c, 11, 805
1, 9443, Pitch_bend_c, 12, 3524
1, 9444, Pitch_bend_c, 11, 782
1, 9444, Pitch_bend_c, 12, 3502
1, 9445, Note_on_c, 9, 42, 0
1, 9445, Pitch_bend_c, 11, 760
1, 9445, Pitch_bend_c, 12, 3479
1, 9446, Pitch_bend_c, 11, 737
1, 9446, Control_c, 12, 11, 83
1, 9446, Pitch_bend_c, 12, 3456
1, 9447, Pitch_bend_c, 11, 714
1, 9447, Pitch_bend_c, 12, 3434
1, 9448, Control_c, 11, 11, 56
1, 9448, Pitch_bend_c, 11, 692
1, 9448, Pitch_bend_c, 12, 3411
1, 9449, Pitch_bend_c, 11, 669
1, 9449, Pitch_bend_c, 12, 3388
1, 9450, Note_on_c, 0, 62, 119
1, 9450, Note_on_c, 0, 65, 89
1, 9450, Note_on_c, 0, 70, 91
1, 9450, Note_on_c, 1, 31, 116
1, 9450, Note_on_c, 7, 55, 118
1, 9450, Note_on_c, 7, 58, 120
1, 9450, Note_on_c, 7, 65, 98
1, 9450, Note_on_c, 8, 55, 118
1, 9450, Note_on_c, 8, 58, 120
1, 9450, Note_on_c, 8, 65, 98
1, 9450, Note_on_c, 10, 72, 118
1, 9450, Pitch_bend_c, 11, 646
1, 9450, Pitch_bend_c, 12, 3366
1, 9451, Pitch_bend_c, 11, 624
1, 9451, Control_c, 12, 11, 82
1, 9451, Pitch_bend_c, 12, 3343
1, 9452, Control_c, 11, 11, 55
1, 9452, Pitch_bend_c, 11, 601
1, 9452, Pitch_bend_c, 12, 3320
1, 9453, Pitch_bend_c, 11, 578
1, 9453, Pitch_bend_c, 12, 3298
1, 9454, Note_on_c, 10, 70, 0
1, 9454, Pitch_bend_c, 11, 556
1, 9454, Pitch_bend_c, 12, 3275
1, 9455, Pitch_bend_c, 11, 533
1, 9455, Control_c, 12, 11, 81
1, 9455, Pitch_bend_c, 12, 3252
1, 9456, Pitch_bend_c, 11, 510
1, 9456, Pitch_bend_c, 12, 3230
1, 9457, Control_c, 11, 11, 54
1, 9457, Pitch_bend_c, 11, 488
1, 9457, Pitch_bend_c, 12, 3207
1, 9458, Pitch_bend_c, 11, 465
1, 9458, Pitch_bend_c, 12, 3184
1, 9459, Pitch_bend_c, 11, 442
1, 9459, Pitch_bend_c, 12, 3162
1, 9460, Pitch_bend_c, 11, 420
1, 9460, Control_c, 12, 11, 80
1, 9460, Pitch_bend_c, 12, 3139
1, 9461, Control_c, 11, 11, 53
1, 9461, Pitch_bend_c, 11, 397
1, 9461, Pitch_bend_c, 12, 3116
1, 9462, Pitch_bend_c, 11, 374
1, 9462, Pitch_bend_c, 12, 3094
1, 9463, Pitch_bend_c, 11, 352
1, 9463, Pitch_bend_c, 12, 3071
1, 9464, Pitch_bend_c, 11, 329
1, 9464, Control_c, 12, 11, 79
1, 9464, Pitch_bend_c, 12, 3048
1, 9465, Pitch_bend_c, 11, 306
1, 9465, Pitch_bend_c, 12, 3026
1, 9466, Control_c, 11, 11, 52
1, 9466, Pitch_bend_c, 11, 284
1, 9466, Pitch_bend_c, 12, 3003
1, 9467, Pitch_bend_c, 11, 261
1, 9467, Pitch_bend_c, 12, 2980
1, 9468, Pitch_bend_c, 11, 238
1, 9468, Pitch_bend_c, 12, 2958
1, 9469, Pitch_bend_c, 11, 216
1, 9469, Control_c, 12, 11, 78
1, 9469, Pitch_bend_c, 12, 2935
1, 9470, Note_on_c, 2, 72, 0
1, 9470, Control_c, 11, 11, 51
1, 9470, Pitch_bend_c, 11, 193
1, 9470, Pitch_bend_c, 12, 2912
1, 9471, Pitch_bend_c, 11, 170
1, 9471, Pitch_bend_c, 12, 2890
1, 9472, Note_on_c, 1, 31, 0
1, 9472, Pitch_bend_c, 11, 148
1, 9472, Pitch_bend_c, 12, 2867
1, 9473, Note_on_c, 10, 72, 0
1, 9473, Pitch_bend_c, 11, 125
1, 9473, Control_c, 12, 11, 77
1, 9473, Pitch_bend_c, 12, 2844
1, 9474, Note_on_c, 2, 67, 0
1, 9474, Pitch_bend_c, 11, 102
1, 9474, Pitch_bend_c, 12, 2822
1, 9475, Control_c, 11, 11, 50
1, 9475, Pitch_bend_c, 11, 80
1, 9475, Pitch_bend_c, 12, 2799
1, 9476, Note_on_c, 0, 70, 0
1, 9476, Note_on_c, 7, 55, 0
1, 9476, Note_on_c, 8, 55, 0
1, 9476, Pitch_bend_c, 11, 57
1, 9476, Pitch_bend_c, 12, 2776
1, 9477, Pitch_bend_c, 11, 34
1, 9477, Pitch_bend_c, 12, 2754
1, 9478, Note_on_c, 0, 65, 0
1, 9478, Pitch_bend_c, 11, 12
1, 9478, Control_c, 12, 11, 76
1, 9478, Pitch_bend_c, 12, 2731
1, 9479, Note_on_c, 2, 63, 0
1, 9479, Note_on_c, 11, 96, 0
1, 9479, Note_on_c, 0, 62, 0
1, 9479, Pitch_bend_c, 12, 2709
1, 9480, Note_on_c, 9, 38, 120
1, 9480, Pitch_bend_c, 12, 2686
1, 9481, Pitch_bend_c, 12, 2663
1, 9482, Note_on_c, 8, 65, 0
1, 9482, Note_on_c, 7, 65, 0
1, 9482, Control_c, 12, 11, 75
1, 9482, Pitch_bend_c, 12, 2641
1, 9483, Note_on_c, 7, 58, 0
1, 9483, Note_on_c, 8, 58, 0
1, 9483, Pitch_bend_c, 12, 2618
1, 9484, Pitch_bend_c, 12, 2595
1, 9485, Pitch_bend_c, 12, 2573
1, 9486, Pitch_bend_c, 12, 2550
1, 9487, Control_c, 12, 11, 74
1, 9487, Pitch_bend_c, 12, 2527
1, 9488, Pitch_bend_c, 12, 2505
1, 9489, Pitch_bend_c, 12, 2482
1, 9490, Pitch_bend_c, 12, 2459
1, 9491, Control_c, 12, 11, 73
1, 9491, Pitch_bend_c, 12, 2437
1, 9492, Pitch_bend_c, 12, 2414
1, 9493, Pitch_bend_c, 12, 2391
1, 9494, Pitch_bend_c, 12, 2369
1, 9495, Pitch_bend_c, 12, 2346
1, 9496, Control_c, 12, 11, 72
1, 9496, Pitch_bend_c, 12, 2323
1, 9497, Pitch_bend_c, 12, 2301
1, 9498, Pitch_bend_c, 12, 2278
1, 9499, Pitch_bend_c, 12, 2255
1, 9500, Control_c, 12, 11, 71
1, 9500, Pitch_bend_c, 12, 2233
1, 9501, Pitch_bend_c, 12, 2210
1, 9502, Pitch_bend_c, 12, 2187
1, 9503, Pitch_bend_c, 12, 2165
1, 9504, Pitch_bend_c, 12, 2142
1, 9505, Control_c, 12, 11, 70
1, 9505, Pitch_bend_c, 12, 2119
1, 9506, Note_on_c, 9, 38, 0
1, 9506, Pitch_bend_c, 12, 2097
1, 9507, Pitch_bend_c, 12, 2074
1, 9508, Pitch_bend_c, 12, 2051
1, 9509, Control_c, 12, 11, 69
1, 9509, Pitch_bend_c, 12, 2029
1, 9510, Note_on_c, 0, 62, 109
1, 9510, Note_on_c, 0, 65, 77
1, 9510, Note_on_c, 0, 70, 60
1, 9510, Pitch_bend_c, 12, 2006
1, 9511, Note_on_c, 0, 70, 0
1, 9511, Note_on_c, 0, 65, 0
1, 9511, Note_on_c, 0, 62, 0
1, 9511, Pitch_bend_c, 12, 1983
1, 9512, Pitch_bend_c, 12, 1961
1, 9513, Pitch_bend_c, 12, 1938
1, 9514, Control_c, 12, 11, 68
1, 9514, Pitch_bend_c, 12, 1915
1, 9515, Pitch_bend_c, 12, 1893
1, 9516, Pitch_bend_c, 12, 1870
1, 9517, Pitch_bend_c, 12, 1847
1, 9518, Control_c, 12, 11, 67
1, 9518, Pitch_bend_c, 12, 1825
1, 9519, Pitch_bend_c, 12, 1802
1, 9520, Pitch_bend_c, 12, 1779
1, 9521, Pitch_bend_c, 12, 1757
1, 9522, Pitch_bend_c, 12, 1734
1, 9523, Control_c, 12, 11, 66
1, 9523, Pitch_bend_c, 12, 1711
1, 9524, Pitch_bend_c, 12, 1689
1, 9525, Pitch_bend_c, 12, 1666
1, 9526, Pitch_bend_c, 12, 1643
1, 9527, Control_c, 12, 11, 65
1, 9527, Pitch_bend_c, 12, 1621
1, 9528, Pitch_bend_c, 12, 1598
1, 9529, Pitch_bend_c, 12, 1575
1, 9530, Pitch_bend_c, 12, 1553
1, 9531, Pitch_bend_c, 12, 1530
1, 9532, Control_c, 12, 11, 64
1, 9532, Pitch_bend_c, 12, 1507
1, 9533, Pitch_bend_c, 12, 1485
1, 9534, Pitch_bend_c, 12, 1462
1, 9535, Pitch_bend_c, 12, 1439
1, 9536, Control_c, 12, 11, 63
1, 9536, Pitch_bend_c, 12, 1417
1, 9537, Pitch_bend_c, 12, 1394
1, 9538, Pitch_bend_c, 12, 1371
1, 9539, Pitch_bend_c, 12, 1349
1, 9540, Note_on_c, 0, 60, 119
1, 9540, Note_on_c, 0, 63, 91
1, 9540, Note_on_c, 0, 68, 91
1, 9540, Note_on_c, 1, 29, 120
1, 9540, Note_on_c, 2, 60, 105
1, 9540, Note_on_c, 2, 63, 98
1, 9540, Note_on_c, 2, 68, 92
1, 9540, Note_on_c, 7, 53, 95
1, 9540, Note_on_c, 7, 56, 119
1, 9540, Note_on_c, 7, 63, 109
1, 9540, Note_on_c, 8, 53, 95
1, 9540, Note_on_c, 8, 56, 119
1, 9540, Note_on_c, 8, 63, 109
1, 9540, Note_on_c, 9, 42, 120
1, 9540, Pitch_bend_c, 12, 1326
1, 9541, Control_c, 12, 11, 62
1, 9541, Pitch_bend_c, 12, 1304
1, 9542, Pitch_bend_c, 12, 1281
1, 9543, Pitch_bend_c, 12, 1258
1, 9544, Pitch_bend_c, 12, 1236
1, 9545, Control_c, 12, 11, 61
1, 9545, Pitch_bend_c, 12, 1213
1, 9546, Pitch_bend_c, 12, 1190
1, 9547, Pitch_bend_c, 12, 1168
1, 9548, Pitch_bend_c, 12, 1145
1, 9549, Pitch_bend_c, 12, 1122
1, 9550, Control_c, 12, 11, 60
1, 9550, Pitch_bend_c, 12, 1100
1, 9551, Pitch_bend_c, 12, 1077
1, 9552, Pitch_bend_c, 12, 1054
1, 9553, Pitch_bend_c, 12, 1032
1, 9554, Control_c, 12, 11, 59
1, 9554, Pitch_bend_c, 12, 1009
1, 9555, Pitch_bend_c, 12, 986
1, 9556, Pitch_bend_c, 12, 964
1, 9557, Pitch_bend_c, 12, 941
1, 9558, Pitch_bend_c, 12, 918
1, 9559, Control_c, 12, 11, 58
1, 9559, Pitch_bend_c, 12, 896
1, 9560, Pitch_bend_c, 12, 873
1, 9561, Pitch_bend_c, 12, 850
1, 9562, Pitch_bend_c, 12, 828
1, 9563, Control_c, 12, 11, 57
1, 9563, Pitch_bend_c, 12, 805
1, 9564, Pitch_bend_c, 12, 782
1, 9565, Note_on_c, 9, 42, 0
1, 9565, Pitch_bend_c, 12, 760
1, 9566, Pitch_bend_c, 12, 737
1, 9567, Pitch_bend_c, 12, 714
1, 9568, Control_c, 12, 11, 56
1, 9568, Pitch_bend_c, 12, 692
1, 9569, Pitch_bend_c, 12, 669
1, 9570, Pitch_bend_c, 12, 646
1, 9571, Pitch_bend_c, 12, 624
1, 9572, Control_c, 12, 11, 55
1, 9572, Pitch_bend_c, 12, 601
1, 9573, Pitch_bend_c, 12, 578
1, 9574, Pitch_bend_c, 12, 556
1, 9575, Pitch_bend_c, 12, 533
1, 9576, Pitch_bend_c, 12, 510
1, 9577, Control_c, 12, 11, 54
1, 9577, Pitch_bend_c, 12, 488
1, 9578, Pitch_bend_c, 12, 465
1, 9579, Pitch_bend_c, 12, 442
1, 9580, Pitch_bend_c, 12, 420
1, 9581, Control_c, 12, 11, 53
1, 9581, Pitch_bend_c, 12, 397
1, 9582, Pitch_bend_c, 12, 374
1, 9583, Pitch_bend_c, 12, 352
1, 9584, Pitch_bend_c, 12, 329
1, 9585, Pitch_bend_c, 12, 306
1, 9586, Control_c, 12, 11, 52
1, 9586, Pitch_bend_c, 12, 284
1, 9587, Pitch_bend_c, 12, 261
1, 9588, Pitch_bend_c, 12, 238
1, 9589, Pitch_bend_c, 12, 216
1, 9590, Control_c, 12, 11, 51
1, 9590, Pitch_bend_c, 12, 193
1, 9591, Pitch_bend_c, 12, 170
1, 9592, Pitch_bend_c, 12, 148
1, 9593, Pitch_bend_c, 12, 125
1, 9594, Pitch_bend_c, 12, 102
1, 9595, Control_c, 12, 11, 50
1, 9595, Pitch_bend_c, 12, 80
1, 9596, Pitch_bend_c, 12, 57
1, 9597, Pitch_bend_c, 12, 34
1, 9598, Pitch_bend_c, 12, 12
1, 9599, Note_on_c, 12, 96, 0
1, 9600, Note_on_c, 3, 68, 120
1, 9600, Note_on_c, 4, 60, 111
1, 9600, Note_on_c, 4, 63, 119
1, 9600, Note_on_c, 4, 72, 109
1, 9600, Note_on_c, 5, 56, 120
1, 9600, Note_on_c, 9, 36, 120
1, 9600, Note_on_c, 15, 60, 1
1, 9600, Note_on_c, 15, 72, 1
1, 9600, Note_on_c, 15, 63, 1
1, 9600, Lyric_t, "that "
1, 9627, Note_on_c, 9, 36, 0
1, 9641, Note_on_c, 1, 29, 0
1, 9660, Note_on_c, 1, 41, 120
1, 9660, Note_on_c, 9, 42, 120
1, 9667, Note_on_c, 15, 60, 0
1, 9667, Note_on_c, 4, 60, 0
1, 9668, Note_on_c, 4, 63, 0
1, 9668, Note_on_c, 15, 63, 0
1, 9669, Note_on_c, 4, 72, 0
1, 9669, Note_on_c, 15, 72, 0
1, 9685, Note_on_c, 5, 56, 0
1, 9685, Note_on_c, 3, 68, 0
1, 9686, Note_on_c, 9, 42, 0
1, 9694, Note_on_c, 1, 41, 0
1, 9714, Note_on_c, 0, 60, 0
1, 9716, Note_on_c, 0, 63, 0
1, 9719, Note_on_c, 0, 68, 0
1, 9719, Note_on_c, 7, 63, 0
1, 9719, Note_on_c, 8, 63, 0
1, 9720, Note_on_c, 7, 53, 0
1, 9720, Note_on_c, 8, 53, 0
1, 9720, Note_on_c, 1, 41, 120
1, 9720, Note_on_c, 3, 67, 118
1, 9720, Note_on_c, 4, 60, 105
1, 9720, Note_on_c, 4, 63, 115
1, 9720, Note_on_c, 4, 70, 119
1, 9720, Note_on_c, 5, 55, 118
1, 9720, Note_on_c, 9, 38, 120
1, 9720, Note_on_c, 15, 63, 1
1, 9720, Note_on_c, 15, 60, 1
1, 9720, Note_on_c, 15, 70, 1
1, 9720, Lyric_t, "is "
1, 9721, Note_on_c, 7, 56, 0
1, 9721, Note_on_c, 8, 56, 0
1, 9751, Note_on_c, 9, 38, 0
1, 9752, Note_on_c, 1, 41, 0
1, 9779, Note_on_c, 4, 63, 0
1, 9779, Note_on_c, 15, 63, 0
1, 9780, Note_on_c, 0, 60, 98
1, 9780, Note_on_c, 0, 63, 60
1, 9780, Note_on_c, 0, 68, 53
1, 9780, Note_on_c, 9, 42, 120
1, 9781, Note_on_c, 0, 68, 0
1, 9781, Note_on_c, 0, 60, 0
1, 9781, Note_on_c, 4, 60, 0
1, 9781, Note_on_c, 0, 63, 0
1, 9781, Note_on_c, 15, 60, 0
1, 9782, Note_on_c, 15, 70, 0
1, 9782, Note_on_c, 4, 70, 0
1, 9801, Note_on_c, 3, 67, 0
1, 9801, Note_on_c, 5, 55, 0
1, 9810, Note_on_c, 0, 60, 101
1, 9810, Note_on_c, 0, 63, 62
1, 9810, Note_on_c, 0, 68, 70
1, 9811, Note_on_c, 0, 68, 0
1, 9811, Note_on_c, 0, 60, 0
1, 9811, Note_on_c, 0, 63, 0
1, 9813, Note_on_c, 9, 42, 0
1, 9839, Control_c, 11, 11, 127
1, 9840, Note_on_c, 0, 60, 118
1, 9840, Note_on_c, 0, 63, 92
1, 9840, Note_on_c, 0, 68, 92
1, 9840, Note_on_c, 1, 29, 120
1, 9840, Note_on_c, 3, 63, 109
1, 9840, Note_on_c, 4, 60, 111
1, 9840, Note_on_c, 4, 63, 119
1, 9840, Note_on_c, 4, 70, 104
1, 9840, Note_on_c, 5, 51, 109
1, 9840, Note_on_c, 7, 53, 101
1, 9840, Note_on_c, 7, 56, 120
1, 9840, Note_on_c, 7, 63, 98
1, 9840, Note_on_c, 8, 53, 101
1, 9840, Note_on_c, 8, 56, 120
1, 9840, Note_on_c, 8, 63, 98
1, 9840, Note_on_c, 9, 36, 120
1, 9840, Note_on_c, 15, 70, 1
1, 9840, Note_on_c, 15, 60, 1
1, 9840, Note_on_c, 15, 63, 1
1, 9840, Lyric_t, "what "
1, 9867, Note_on_c, 9, 36, 0
1, 9875, Note_on_c, 1, 29, 0
1, 9878, Note_on_c, 0, 60, 0
1, 9881, Note_on_c, 0, 68, 0
1, 9882, Note_on_c, 0, 63, 0
1, 9896, Note_on_c, 8, 63, 0
1, 9896, Note_on_c, 8, 53, 0
1, 9896, Note_on_c, 7, 53, 0
1, 9896, Note_on_c, 7, 63, 0
1, 9897, Note_on_c, 8, 56, 0
1, 9897, Note_on_c, 7, 56, 0
1, 9900, Note_on_c, 0, 60, 97
1, 9900, Note_on_c, 0, 63, 62
1, 9900, Note_on_c, 0, 68, 62
1, 9900, Note_on_c, 9, 42, 120
1, 9901, Note_on_c, 0, 68, 0
1, 9901, Note_on_c, 0, 63, 0
1, 9901, Note_on_c, 0, 60, 0
1, 9906, Note_on_c, 4, 70, 0
1, 9906, Note_on_c, 15, 70, 0
1, 9907, Note_on_c, 4, 60, 0
1, 9907, Note_on_c, 15, 60, 0
1, 9909, Note_on_c, 4, 63, 0
1, 9909, Note_on_c, 15, 63, 0
1, 9927, Note_on_c, 3, 63, 0
1, 9927, Note_on_c, 5, 51, 0
1, 9929, Note_on_c, 9, 42, 0
1, 9959, Control_c, 12, 11, 127
1, 9960, Note_on_c, 0, 60, 116
1, 9960, Note_on_c, 0, 63, 92
1, 9960, Note_on_c, 0, 68, 111
1, 9960, Note_on_c, 1, 29, 116
1, 9960, Note_on_c, 3, 67, 120
1, 9960, Note_on_c, 4, 60, 116
1, 9960, Note_on_c, 4, 63, 119
1, 9960, Note_on_c, 4, 70, 109
1, 9960, Note_on_c, 5, 55, 120
1, 9960, Note_on_c, 7, 53, 113
1, 9960, Note_on_c, 7, 56, 120
1, 9960, Note_on_c, 7, 63, 115
1, 9960, Note_on_c, 8, 53, 113
1, 9960, Note_on_c, 8, 56, 120
1, 9960, Note_on_c, 8, 63, 115
1, 9960, Note_on_c, 9, 38, 120
1, 9960, Note_on_c, 15, 63, 1
1, 9960, Note_on_c, 15, 60, 1
1, 9960, Note_on_c, 15, 70, 1
1, 9960, Lyric_t, "you "
1, 9963, Note_on_c, 2, 60, 0
1, 9967, Note_on_c, 2, 63, 0
1, 9969, Note_on_c, 2, 68, 0
1, 9988, Note_on_c, 9, 38, 0
1, 9990, Note_on_c, 1, 29, 0
1, 9999, Note_on_c, 0, 60, 0
1, 10002, Note_on_c, 0, 63, 0
1, 10002, Note_on_c, 0, 68, 0
1, 10011, Note_on_c, 8, 53, 0
1, 10011, Note_on_c, 7, 53, 0
1, 10012, Note_on_c, 8, 56, 0
1, 10012, Note_on_c, 7, 56, 0
1, 10015, Note_on_c, 7, 63, 0
1, 10015, Note_on_c, 8, 63, 0
1, 10016, Note_on_c, 15, 70, 0
1, 10016, Note_on_c, 4, 70, 0
1, 10019, Note_on_c, 4, 60, 0
1, 10019, Note_on_c, 15, 60, 0
1, 10020, Note_on_c, 9, 42, 120
1, 10021, Note_on_c, 4, 63, 0
1, 10021, Note_on_c, 15, 63, 0
1, 10047, Note_on_c, 9, 42, 0
1, 10050, Note_on_c, 4, 62, 101
1, 10050, Note_on_c, 4, 65, 111
1, 10050, Note_on_c, 4, 70, 92
1, 10050, Note_on_c, 15, 62, 1
1, 10050, Note_on_c, 15, 65, 1
1, 10050, Note_on_c, 15, 70, 1
1, 10054, Note_on_c, 3, 67, 0
1, 10054, Note_on_c, 5, 55, 0
1, 10080, Note_on_c, 0, 62, 116
1, 10080, Note_on_c, 0, 65, 94
1, 10080, Note_on_c, 0, 70, 92
1, 10080, Note_on_c, 1, 31, 120
1, 10080, Note_on_c, 2, 62, 101
1, 10080, Note_on_c, 2, 65, 109
1, 10080, Note_on_c, 2, 70, 89
1, 10080, Note_on_c, 3, 65, 120
1, 10080, Note_on_c, 5, 53, 120
1, 10080, Note_on_c, 7, 55, 120
1, 10080, Note_on_c, 7, 58, 120
1, 10080, Note_on_c, 7, 65, 90
1, 10080, Note_on_c, 8, 55, 120
1, 10080, Note_on_c, 8, 58, 120
1, 10080, Note_on_c, 8, 65, 90
1, 10080, Note_on_c, 9, 36, 120
1, 10080, Lyric_t, "are "
1, 10080, Lyric_t, "\015"
1, 10108, Note_on_c, 9, 36, 0
1, 10126, Note_on_c, 1, 31, 0
1, 10140, Note_on_c, 1, 43, 119
1, 10140, Note_on_c, 9, 42, 120
1, 10142, Note_on_c, 4, 65, 0
1, 10142, Note_on_c, 15, 65, 0
1, 10144, Note_on_c, 4, 70, 0
1, 10144, Note_on_c, 15, 70, 0
1, 10145, Note_on_c, 15, 62, 0
1, 10145, Note_on_c, 4, 62, 0
1, 10167, Note_on_c, 9, 42, 0
1, 10173, Note_on_c, 5, 53, 0
1, 10173, Note_on_c, 3, 65, 0
1, 10182, Note_on_c, 0, 65, 0
1, 10191, Note_on_c, 1, 43, 0
1, 10191, Note_on_c, 0, 62, 0
1, 10195, Note_on_c, 0, 70, 0
1, 10200, Note_on_c, 7, 55, 0
1, 10200, Note_on_c, 8, 55, 0
1, 10200, Note_on_c, 9, 38, 120
1, 10202, Note_on_c, 7, 58, 0
1, 10202, Note_on_c, 8, 58, 0
1, 10205, Note_on_c, 7, 65, 0
1, 10205, Note_on_c, 8, 65, 0
1, 10227, Note_on_c, 9, 38, 0
1, 10247, Note_on_c, 10, 70, 89
1, 10260, Note_on_c, 0, 62, 100
1, 10260, Note_on_c, 0, 65, 71
1, 10260, Note_on_c, 0, 70, 48
1, 10260, Note_on_c, 9, 42, 120
1, 10260, Note_on_c, 10, 72, 118
1, 10261, Note_on_c, 0, 70, 0
1, 10261, Note_on_c, 0, 65, 0
1, 10261, Note_on_c, 0, 62, 0
1, 10265, Note_on_c, 10, 70, 0
1, 10283, Note_on_c, 10, 72, 0
1, 10290, Note_on_c, 0, 62, 98
1, 10290, Note_on_c, 0, 65, 78
1, 10290, Note_on_c, 0, 70, 71
1, 10291, Note_on_c, 0, 70, 0
1, 10291, Note_on_c, 0, 62, 0
1, 10291, Note_on_c, 0, 65, 0
1, 10292, Note_on_c, 9, 42, 0
1, 10320, Note_on_c, 0, 62, 113
1, 10320, Note_on_c, 0, 65, 83
1, 10320, Note_on_c, 0, 70, 92
1, 10320, Note_on_c, 1, 31, 119
1, 10320, Note_on_c, 7, 55, 116
1, 10320, Note_on_c, 7, 58, 120
1, 10320, Note_on_c, 7, 65, 101
1, 10320, Note_on_c, 8, 55, 116
1, 10320, Note_on_c, 8, 58, 120
1, 10320, Note_on_c, 8, 65, 101
1, 10320, Note_on_c, 9, 36, 120
1, 10320, Note_on_c, 10, 70, 120
1, 10347, Note_on_c, 9, 36, 0
1, 10349, Note_on_c, 1, 31, 0
1, 10352, Note_on_c, 8, 55, 0
1, 10352, Note_on_c, 7, 55, 0
1, 10352, Note_on_c, 7, 58, 0
1, 10352, Note_on_c, 8, 58, 0
1, 10353, Note_on_c, 7, 65, 0
1, 10353, Note_on_c, 8, 65, 0
1, 10362, Note_on_c, 0, 62, 0
1, 10364, Note_on_c, 0, 70, 0
1, 10371, Note_on_c, 0, 65, 0
1, 10380, Note_on_c, 0, 62, 94
1, 10380, Note_on_c, 0, 65, 59
1, 10380, Note_on_c, 0, 70, 57
1, 10380, Note_on_c, 9, 42, 120
1, 10381, Note_on_c, 0, 70, 0
1, 10381, Note_on_c, 0, 65, 0
1, 10381, Note_on_c, 0, 62, 0
1, 10406, Note_on_c, 9, 42, 0
1, 10410, Note_on_c, 2, 65, 0
1, 10410, Note_on_c, 0, 62, 111
1, 10410, Note_on_c, 0, 65, 87
1, 10410, Note_on_c, 0, 70, 92
1, 10410, Note_on_c, 1, 34, 120
1, 10410, Note_on_c, 7, 55, 120
1, 10410, Note_on_c, 7, 58, 120
1, 10410, Note_on_c, 7, 65, 105
1, 10410, Note_on_c, 8, 55, 120
1, 10410, Note_on_c, 8, 58, 120
1, 10410, Note_on_c, 8, 65, 105
1, 10410, Note_on_c, 10, 72, 118
1, 10412, Note_on_c, 2, 62, 0
1, 10414, Note_on_c, 10, 70, 0
1, 10419, Note_on_c, 2, 70, 0
1, 10433, Note_on_c, 7, 55, 0
1, 10433, Note_on_c, 8, 55, 0
1, 10433, Note_on_c, 10, 72, 0
1, 10434, Note_on_c, 7, 58, 0
1, 10434, Note_on_c, 8, 58, 0
1, 10440, Note_on_c, 8, 65, 0
1, 10440, Note_on_c, 7, 65, 0
1, 10440, Note_on_c, 3, 63, 120
1, 10440, Note_on_c, 4, 62, 101
1, 10440, Note_on_c, 4, 65, 101
1, 10440, Note_on_c, 4, 70, 115
1, 10440, Note_on_c, 5, 51, 120
1, 10440, Note_on_c, 9, 38, 120
1, 10440, Note_on_c, 15, 62, 1
1, 10440, Note_on_c, 15, 65, 1
1, 10440, Note_on_c, 15, 70, 1
1, 10440, Lyric_t, "Ho"
1, 10441, Note_on_c, 1, 34, 0
1, 10446, Note_on_c, 0, 62, 0
1, 10448, Note_on_c, 0, 70, 0
1, 10451, Note_on_c, 0, 65, 0
1, 10465, Note_on_c, 9, 38, 0
1, 10470, Note_on_c, 0, 62, 78
1, 10470, Note_on_c, 0, 65, 72
1, 10470, Note_on_c, 0, 70, 70
1, 10471, Note_on_c, 0, 70, 0
1, 10471, Note_on_c, 0, 65, 0
1, 10471, Note_on_c, 0, 62, 0
1, 10477, Note_on_c, 15, 62, 0
1, 10477, Note_on_c, 4, 62, 0
1, 10480, Note_on_c, 4, 65, 0
1, 10480, Note_on_c, 4, 70, 0
1, 10480, Note_on_c, 15, 70, 0
1, 10480, Note_on_c, 15, 65, 0
1, 10490, Note_on_c, 5, 51, 0
1, 10490, Note_on_c, 3, 63, 0
1, 10500, Note_on_c, 0, 63, 87
1, 10500, Note_on_c, 0, 67, 105
1, 10500, Note_on_c, 0, 72, 113
1, 10500, Note_on_c, 1, 36, 120
1, 10500, Note_on_c, 2, 63, 81
1, 10500, Note_on_c, 2, 67, 116
1, 10500, Note_on_c, 2, 72, 105
1, 10500, Note_on_c, 3, 60, 120
1, 10500, Note_on_c, 4, 62, 91
1, 10500, Note_on_c, 4, 65, 100
1, 10500, Note_on_c, 4, 67, 103
1, 10500, Note_on_c, 5, 48, 120
1, 10500, Note_on_c, 7, 60, 116
1, 10500, Note_on_c, 7, 63, 104
1, 10500, Note_on_c, 7, 67, 116
1, 10500, Note_on_c, 8, 60, 116
1, 10500, Note_on_c, 8, 63, 104
1, 10500, Note_on_c, 8, 67, 116
1, 10500, Note_on_c, 9, 42, 120
1, 10500, Note_on_c, 15, 62, 1
1, 10500, Note_on_c, 15, 67, 1
1, 10500, Note_on_c, 15, 65, 1
1, 10500, Lyric_t, "ney, "
1, 10523, Note_on_c, 15, 65, 0
1, 10523, Note_on_c, 4, 65, 0
1, 10524, Note_on_c, 15, 62, 0
1, 10524, Note_on_c, 4, 62, 0
1, 10527, Note_on_c, 9, 42, 0
1, 10529, Note_on_c, 4, 67, 0
1, 10529, Note_on_c, 15, 67, 0
1, 10533, Note_on_c, 3, 60, 0
1, 10533, Note_on_c, 5, 48, 0
1, 10560, Note_on_c, 3, 68, 119
1, 10560, Note_on_c, 4, 63, 86
1, 10560, Note_on_c, 4, 67, 118
1, 10560, Note_on_c, 4, 72, 95
1, 10560, Note_on_c, 5, 56, 119
1, 10560, Note_on_c, 9, 36, 120
1, 10560, Note_on_c, 15, 63, 1
1, 10560, Note_on_c, 15, 72, 1
1, 10560, Note_on_c, 15, 67, 1
1, 10560, Lyric_t, "you're "
1, 10586, Note_on_c, 9, 36, 0
1, 10617, Note_on_c, 1, 36, 0
1, 10620, Note_on_c, 1, 48, 120
1, 10620, Note_on_c, 9, 42, 120
1, 10643, Note_on_c, 15, 63, 0
1, 10643, Note_on_c, 4, 63, 0
1, 10645, Note_on_c, 4, 72, 0
1, 10645, Note_on_c, 15, 72, 0
1, 10647, Note_on_c, 4, 67, 0
1, 10647, Note_on_c, 9, 42, 0
1, 10647, Note_on_c, 15, 67, 0
1, 10655, Note_on_c, 5, 56, 0
1, 10655, Note_on_c, 3, 68, 0
1, 10656, Note_on_c, 1, 48, 0
1, 10672, Note_on_c, 8, 67, 0
1, 10672, Note_on_c, 7, 67, 0
1, 10673, Note_on_c, 8, 60, 0
1, 10673, Note_on_c, 7, 60, 0
1, 10674, Note_on_c, 8, 63, 0
1, 10674, Note_on_c, 7, 63, 0
1, 10679, Note_on_c, 0, 72, 0
1, 10679, Note_on_c, 0, 67, 0
1, 10680, Note_on_c, 0, 63, 92
1, 10680, Note_on_c, 0, 67, 61
1, 10680, Note_on_c, 0, 72, 105
1, 10680, Note_on_c, 3, 67, 120
1, 10680, Note_on_c, 4, 63, 100
1, 10680, Note_on_c, 4, 67, 118
1, 10680, Note_on_c, 4, 70, 92
1, 10680, Note_on_c, 5, 55, 120
1, 10680, Note_on_c, 9, 38, 120
1, 10680, Note_on_c, 15, 67, 1
1, 10680, Note_on_c, 15, 63, 1
1, 10680, Note_on_c, 15, 70, 1
1, 10680, Lyric_t, "my "
1, 10681, Note_on_c, 0, 72, 0
1, 10681, Note_on_c, 0, 63, 0
1, 10681, Note_on_c, 0, 67, 0
1, 10681, Note_on_c, 0, 63, 0
1, 10704, Note_on_c, 9, 38, 0
1, 10740, Note_on_c, 1, 34, 98
1, 10740, Note_on_c, 9, 42, 120
1, 10743, Note_on_c, 4, 67, 0
1, 10743, Note_on_c, 15, 67, 0
1, 10755, Note_on_c, 15, 70, 0
1, 10755, Note_on_c, 4, 63, 0
1, 10755, Note_on_c, 4, 70, 0
1, 10755, Note_on_c, 15, 63, 0
1, 10768, Note_on_c, 9, 42, 0
1, 10769, Note_on_c, 1, 34, 0
1, 10770, Note_on_c, 1, 36, 111
1, 10772, Note_on_c, 3, 67, 0
1, 10772, Note_on_c, 2, 67, 0
1, 10772, Note_on_c, 5, 55, 0
1, 10775, Note_on_c, 2, 72, 0
1, 10779, Note_on_c, 2, 63, 0
1, 10799, Note_on_c, 1, 36, 0
1, 10800, Note_on_c, 0, 63, 94
1, 10800, Note_on_c, 0, 67, 100
1, 10800, Note_on_c, 0, 72, 94
1, 10800, Note_on_c, 1, 39, 94
1, 10800, Note_on_c, 2, 63, 81
1, 10800, Note_on_c, 2, 67, 119
1, 10800, Note_on_c, 2, 72, 91
1, 10800, Note_on_c, 3, 65, 118
1, 10800, Note_on_c, 4, 62, 103
1, 10800, Note_on_c, 4, 65, 103
1, 10800, Note_on_c, 4, 70, 109
1, 10800, Note_on_c, 5, 53, 118
1, 10800, Note_on_c, 7, 60, 107
1, 10800, Note_on_c, 7, 63, 119
1, 10800, Note_on_c, 7, 67, 103
1, 10800, Note_on_c, 8, 60, 107
1, 10800, Note_on_c, 8, 63, 119
1, 10800, Note_on_c, 8, 67, 103
1, 10800, Note_on_c, 9, 36, 120
1, 10800, Note_on_c, 15, 70, 1
1, 10800, Note_on_c, 15, 62, 1
1, 10800, Note_on_c, 15, 65, 1
1, 10800, Lyric_t, "gol"
1, 10826, Note_on_c, 9, 36, 0
1, 10829, Note_on_c, 1, 39, 0
1, 10830, Note_on_c, 1, 36, 118
1, 10833, Note_on_c, 0, 72, 0
1, 10833, Note_on_c, 0, 67, 0
1, 10837, Note_on_c, 0, 63, 0
1, 10848, Note_on_c, 2, 72, 0
1, 10851, Note_on_c, 8, 67, 0
1, 10851, Note_on_c, 7, 67, 0
1, 10852, Note_on_c, 8, 60, 0
1, 10852, Note_on_c, 7, 60, 0
1, 10856, Note_on_c, 8, 63, 0
1, 10856, Note_on_c, 2, 67, 0
1, 10856, Note_on_c, 7, 63, 0
1, 10858, Note_on_c, 2, 63, 0
1, 10860, Note_on_c, 9, 42, 120
1, 10866, Note_on_c, 1, 36, 0
1, 10874, Note_on_c, 4, 62, 0
1, 10874, Note_on_c, 15, 62, 0
1, 10877, Note_on_c, 4, 70, 0
1, 10877, Note_on_c, 15, 70, 0
1, 10877, Note_on_c, 15, 65, 0
1, 10877, Note_on_c, 4, 65, 0
1, 10883, Note_on_c, 9, 42, 0
1, 10892, Note_on_c, 3, 65, 0
1, 10892, Note_on_c, 5, 53, 0
1, 10920, Note_on_c, 0, 62, 119
1, 10920, Note_on_c, 0, 65, 105
1, 10920, Note_on_c, 0, 70, 92
1, 10920, Note_on_c, 1, 34, 109
1, 10920, Note_on_c, 2, 62, 98
1, 10920, Note_on_c, 2, 65, 116
1, 10920, Note_on_c, 2, 70, 91
1, 10920, Note_on_c, 3, 67, 120
1, 10920, Note_on_c, 4, 62, 105
1, 10920, Note_on_c, 4, 65, 109
1, 10920, Note_on_c, 4, 70, 111
1, 10920, Note_on_c, 5, 55, 120
1, 10920, Note_on_c, 7, 58, 98
1, 10920, Note_on_c, 7, 62, 120
1, 10920, Note_on_c, 7, 65, 107
1, 10920, Note_on_c, 8, 58, 98
1, 10920, Note_on_c, 8, 62, 120
1, 10920, Note_on_c, 8, 65, 107
1, 10920, Note_on_c, 9, 38, 120
1, 10920, Note_on_c, 15, 65, 1
1, 10920, Note_on_c, 15, 62, 1
1, 10920, Note_on_c, 15, 70, 1
1, 10920, Lyric_t, "den "
1, 10948, Note_on_c, 9, 38, 0
1, 10948, Note_on_c, 0, 62, 0
1, 10953, Note_on_c, 0, 70, 0
1, 10954, Note_on_c, 0, 65, 0
1, 10969, Note_on_c, 4, 62, 0
1, 10969, Note_on_c, 15, 62, 0
1, 10972, Note_on_c, 15, 65, 0
1, 10972, Note_on_c, 4, 65, 0
1, 10975, Note_on_c, 8, 62, 0
1, 10975, Note_on_c, 7, 62, 0
1, 10976, Note_on_c, 4, 70, 0
1, 10976, Note_on_c, 15, 70, 0
1, 10978, Note_on_c, 8, 58, 0
1, 10978, Note_on_c, 7, 58, 0
1, 10980, Note_on_c, 9, 42, 120
1, 10981, Note_on_c, 8, 65, 0
1, 10981, Note_on_c, 7, 65, 0
1, 10989, Note_on_c, 2, 65, 0
1, 10990, Note_on_c, 2, 62, 0
1, 10992, Note_on_c, 5, 55, 0
1, 10992, Note_on_c, 3, 67, 0
1, 10992, Note_on_c, 2, 70, 0
1, 11000, Note_on_c, 9, 42, 0
1, 11010, Note_on_c, 3, 60, 120
1, 11010, Note_on_c, 4, 60, 97
1, 11010, Note_on_c, 4, 63, 119
1, 11010, Note_on_c, 4, 70, 120
1, 11010, Note_on_c, 5, 48, 120
1, 11010, Note_on_c, 15, 60, 1
1, 11010, Note_on_c, 15, 70, 1
1, 11010, Note_on_c, 15, 63, 1
1, 11010, Lyric_t, "star "
1, 11010, Lyric_t, "\015"
1, 11021, Note_on_c, 15, 70, 0
1, 11021, Note_on_c, 4, 70, 0
1, 11023, Note_on_c, 1, 34, 0
1, 11026, Note_on_c, 4, 60, 0
1, 11026, Note_on_c, 15, 63, 0
1, 11026, Note_on_c, 4, 63, 0
1, 11026, Note_on_c, 15, 60, 0
1, 11040, Note_on_c, 3, 60, 0
1, 11040, Note_on_c, 5, 48, 0
1, 11040, Note_on_c, 0, 63, 98
1, 11040, Note_on_c, 0, 67, 118
1, 11040, Note_on_c, 0, 72, 105
1, 11040, Note_on_c, 1, 32, 120
1, 11040, Note_on_c, 2, 63, 81
1, 11040, Note_on_c, 2, 67, 116
1, 11040, Note_on_c, 2, 72, 107
1, 11040, Note_on_c, 7, 56, 92
1, 11040, Note_on_c, 7, 60, 120
1, 11040, Note_on_c, 7, 67, 113
1, 11040, Note_on_c, 8, 56, 92
1, 11040, Note_on_c, 8, 60, 120
1, 11040, Note_on_c, 8, 67, 113
1, 11040, Note_on_c, 9, 36, 120
1, 11040, Note_on_c, 11, 96, 120
1, 11040, Pitch_bend_c, 11, 8125
1, 11041, Pitch_bend_c, 11, 8102
1, 11042, Pitch_bend_c, 11, 8079
1, 11043, Pitch_bend_c, 11, 8057
1, 11044, Pitch_bend_c, 11, 8034
1, 11045, Pitch_bend_c, 11, 8011
1, 11046, Pitch_bend_c, 11, 7989
1, 11047, Pitch_bend_c, 11, 7966
1, 11048, Control_c, 11, 11, 126
1, 11048, Pitch_bend_c, 11, 7943
1, 11049, Pitch_bend_c, 11, 7921
1, 11050, Pitch_bend_c, 11, 7898
1, 11051, Pitch_bend_c, 11, 7875
1, 11052, Pitch_bend_c, 11, 7853
1, 11053, Control_c, 11, 11, 125
1, 11053, Pitch_bend_c, 11, 7830
1, 11054, Pitch_bend_c, 11, 7807
1, 11055, Pitch_bend_c, 11, 7785
1, 11056, Pitch_bend_c, 11, 7762
1, 11057, Control_c, 11, 11, 124
1, 11057, Pitch_bend_c, 11, 7739
1, 11058, Pitch_bend_c, 11, 7717
1, 11059, Pitch_bend_c, 11, 7694
1, 11060, Pitch_bend_c, 11, 7671
1, 11061, Pitch_bend_c, 11, 7649
1, 11062, Control_c, 11, 11, 123
1, 11062, Pitch_bend_c, 11, 7626
1, 11063, Pitch_bend_c, 11, 7603
1, 11064, Pitch_bend_c, 11, 7581
1, 11065, Pitch_bend_c, 11, 7558
1, 11066, Control_c, 11, 11, 122
1, 11066, Pitch_bend_c, 11, 7535
1, 11067, Pitch_bend_c, 11, 7513
1, 11068, Pitch_bend_c, 11, 7490
1, 11069, Pitch_bend_c, 11, 7467
1, 11070, Pitch_bend_c, 11, 7445
1, 11071, Control_c, 11, 11, 121
1, 11071, Pitch_bend_c, 11, 7422
1, 11072, Pitch_bend_c, 11, 7399
1, 11073, Note_on_c, 9, 36, 0
1, 11073, Pitch_bend_c, 11, 7377
1, 11074, Pitch_bend_c, 11, 7354
1, 11075, Control_c, 11, 11, 120
1, 11075, Pitch_bend_c, 11, 7331
1, 11076, Pitch_bend_c, 11, 7309
1, 11077, Pitch_bend_c, 11, 7286
1, 11078, Pitch_bend_c, 11, 7263
1, 11079, Pitch_bend_c, 11, 7241
1, 11080, Control_c, 11, 11, 119
1, 11080, Pitch_bend_c, 11, 7218
1, 11081, Pitch_bend_c, 11, 7195
1, 11082, Pitch_bend_c, 11, 7173
1, 11083, Pitch_bend_c, 11, 7150
1, 11084, Control_c, 11, 11, 118
1, 11084, Pitch_bend_c, 11, 7127
1, 11085, Pitch_bend_c, 11, 7105
1, 11086, Pitch_bend_c, 11, 7082
1, 11087, Pitch_bend_c, 11, 7059
1, 11088, Pitch_bend_c, 11, 7037
1, 11089, Control_c, 11, 11, 117
1, 11089, Pitch_bend_c, 11, 7014
1, 11090, Pitch_bend_c, 11, 6991
1, 11091, Pitch_bend_c, 11, 6969
1, 11092, Pitch_bend_c, 11, 6946
1, 11093, Control_c, 11, 11, 116
1, 11093, Pitch_bend_c, 11, 6923
1, 11094, Pitch_bend_c, 11, 6901
1, 11095, Pitch_bend_c, 11, 6878
1, 11096, Pitch_bend_c, 11, 6855
1, 11097, Pitch_bend_c, 11, 6833
1, 11098, Control_c, 11, 11, 115
1, 11098, Pitch_bend_c, 11, 6810
1, 11099, Note_on_c, 1, 32, 0
1, 11099, Pitch_bend_c, 11, 6788
1, 11100, Note_on_c, 1, 44, 120
1, 11100, Note_on_c, 9, 42, 120
1, 11100, Pitch_bend_c, 11, 6765
1, 11101, Pitch_bend_c, 11, 6742
1, 11102, Control_c, 11, 11, 114
1, 11102, Pitch_bend_c, 11, 6720
1, 11103, Pitch_bend_c, 11, 6697
1, 11104, Pitch_bend_c, 11, 6674
1, 11105, Pitch_bend_c, 11, 6652
1, 11106, Pitch_bend_c, 11, 6629
1, 11107, Control_c, 11, 11, 113
1, 11107, Pitch_bend_c, 11, 6606
1, 11108, Pitch_bend_c, 11, 6584
1, 11109, Pitch_bend_c, 11, 6561
1, 11110, Pitch_bend_c, 11, 6538
1, 11111, Control_c, 11, 11, 112
1, 11111, Pitch_bend_c, 11, 6516
1, 11112, Pitch_bend_c, 11, 6493
1, 11113, Pitch_bend_c, 11, 6470
1, 11114, Pitch_bend_c, 11, 6448
1, 11115, Pitch_bend_c, 11, 6425
1, 11116, Control_c, 11, 11, 111
1, 11116, Pitch_bend_c, 11, 6402
1, 11117, Pitch_bend_c, 11, 6380
1, 11118, Pitch_bend_c, 11, 6357
1, 11119, Pitch_bend_c, 11, 6334
1, 11120, Control_c, 11, 11, 110
1, 11120, Pitch_bend_c, 11, 6312
1, 11121, Pitch_bend_c, 11, 6289
1, 11122, Pitch_bend_c, 11, 6266
1, 11123, Pitch_bend_c, 11, 6244
1, 11124, Pitch_bend_c, 11, 6221
1, 11125, Control_c, 11, 11, 109
1, 11125, Pitch_bend_c, 11, 6198
1, 11126, Pitch_bend_c, 11, 6176
1, 11127, Pitch_bend_c, 11, 6153
1, 11128, Pitch_bend_c, 11, 6130
1, 11129, Control_c, 11, 11, 108
1, 11129, Pitch_bend_c, 11, 6108
1, 11130, Pitch_bend_c, 11, 6085
1, 11131, Note_on_c, 9, 42, 0
1, 11131, Pitch_bend_c, 11, 6062
1, 11132, Pitch_bend_c, 11, 6040
1, 11133, Pitch_bend_c, 11, 6017
1, 11134, Control_c, 11, 11, 107
1, 11134, Pitch_bend_c, 11, 5994
1, 11135, Note_on_c, 1, 44, 0
1, 11135, Pitch_bend_c, 11, 5972
1, 11136, Pitch_bend_c, 11, 5949
1, 11137, Pitch_bend_c, 11, 5926
1, 11138, Control_c, 11, 11, 106
1, 11138, Pitch_bend_c, 11, 5904
1, 11139, Pitch_bend_c, 11, 5881
1, 11140, Pitch_bend_c, 11, 5858
1, 11141, Pitch_bend_c, 11, 5836
1, 11142, Pitch_bend_c, 11, 5813
1, 11143, Control_c, 11, 11, 105
1, 11143, Pitch_bend_c, 11, 5790
1, 11144, Pitch_bend_c, 11, 5768
1, 11145, Pitch_bend_c, 11, 5745
1, 11146, Pitch_bend_c, 11, 5722
1, 11147, Control_c, 11, 11, 104
1, 11147, Pitch_bend_c, 11, 5700
1, 11148, Pitch_bend_c, 11, 5677
1, 11149, Pitch_bend_c, 11, 5654
1, 11150, Note_on_c, 0, 67, 0
1, 11150, Pitch_bend_c, 11, 5632
1, 11151, Pitch_bend_c, 11, 5609
1, 11152, Control_c, 11, 11, 103
1, 11152, Pitch_bend_c, 11, 5586
1, 11153, Pitch_bend_c, 11, 5564
1, 11154, Note_on_c, 7, 67, 0
1, 11154, Note_on_c, 8, 67, 0
1, 11154, Pitch_bend_c, 11, 5541
1, 11155, Note_on_c, 7, 56, 0
1, 11155, Note_on_c, 8, 56, 0
1, 11155, Pitch_bend_c, 11, 5518
1, 11156, Note_on_c, 0, 63, 0
1, 11156, Note_on_c, 7, 60, 0
1, 11156, Note_on_c, 8, 60, 0
1, 11156, Control_c, 11, 11, 102
1, 11156, Pitch_bend_c, 11, 5496
1, 11157, Pitch_bend_c, 11, 5473
1, 11158, Note_on_c, 0, 72, 0
1, 11158, Pitch_bend_c, 11, 5451
1, 11159, Pitch_bend_c, 11, 5428
1, 11160, Note_on_c, 9, 38, 120
1, 11160, Pitch_bend_c, 11, 5405
1, 11160, Note_on_c, 12, 96, 120
1, 11160, Pitch_bend_c, 12, 8125
1, 11161, Control_c, 11, 11, 101
1, 11161, Pitch_bend_c, 11, 5383
1, 11161, Pitch_bend_c, 12, 8102
1, 11162, Pitch_bend_c, 11, 5360
1, 11162, Pitch_bend_c, 12, 8079
1, 11163, Pitch_bend_c, 11, 5337
1, 11163, Pitch_bend_c, 12, 8057
1, 11164, Pitch_bend_c, 11, 5315
1, 11164, Pitch_bend_c, 12, 8034
1, 11165, Control_c, 11, 11, 100
1, 11165, Pitch_bend_c, 11, 5292
1, 11165, Pitch_bend_c, 12, 8011
1, 11166, Pitch_bend_c, 11, 5269
1, 11166, Pitch_bend_c, 12, 7989
1, 11167, Pitch_bend_c, 11, 5247
1, 11167, Pitch_bend_c, 12, 7966
1, 11168, Pitch_bend_c, 11, 5224
1, 11168, Control_c, 12, 11, 126
1, 11168, Pitch_bend_c, 12, 7943
1, 11169, Pitch_bend_c, 11, 5201
1, 11169, Pitch_bend_c, 12, 7921
1, 11170, Control_c, 11, 11, 99
1, 11170, Pitch_bend_c, 11, 5179
1, 11170, Pitch_bend_c, 12, 7898
1, 11171, Pitch_bend_c, 11, 5156
1, 11171, Pitch_bend_c, 12, 7875
1, 11172, Pitch_bend_c, 11, 5133
1, 11172, Pitch_bend_c, 12, 7853
1, 11173, Pitch_bend_c, 11, 5111
1, 11173, Control_c, 12, 11, 125
1, 11173, Pitch_bend_c, 12, 7830
1, 11174, Control_c, 11, 11, 98
1, 11174, Pitch_bend_c, 11, 5088
1, 11174, Pitch_bend_c, 12, 7807
1, 11175, Pitch_bend_c, 11, 5065
1, 11175, Pitch_bend_c, 12, 7785
1, 11176, Pitch_bend_c, 11, 5043
1, 11176, Pitch_bend_c, 12, 7762
1, 11177, Pitch_bend_c, 11, 5020
1, 11177, Control_c, 12, 11, 124
1, 11177, Pitch_bend_c, 12, 7739
1, 11178, Pitch_bend_c, 11, 4997
1, 11178, Pitch_bend_c, 12, 7717
1, 11179, Control_c, 11, 11, 97
1, 11179, Pitch_bend_c, 11, 4975
1, 11179, Pitch_bend_c, 12, 7694
1, 11180, Pitch_bend_c, 11, 4952
1, 11180, Pitch_bend_c, 12, 7671
1, 11181, Pitch_bend_c, 11, 4929
1, 11181, Pitch_bend_c, 12, 7649
1, 11182, Pitch_bend_c, 11, 4907
1, 11182, Control_c, 12, 11, 123
1, 11182, Pitch_bend_c, 12, 7626
1, 11183, Control_c, 11, 11, 96
1, 11183, Pitch_bend_c, 11, 4884
1, 11183, Pitch_bend_c, 12, 7603
1, 11184, Pitch_bend_c, 11, 4861
1, 11184, Pitch_bend_c, 12, 7581
1, 11185, Pitch_bend_c, 11, 4839
1, 11185, Pitch_bend_c, 12, 7558
1, 11186, Pitch_bend_c, 11, 4816
1, 11186, Control_c, 12, 11, 122
1, 11186, Pitch_bend_c, 12, 7535
1, 11187, Pitch_bend_c, 11, 4793
1, 11187, Pitch_bend_c, 12, 7513
1, 11188, Control_c, 11, 11, 95
1, 11188, Pitch_bend_c, 11, 4771
1, 11188, Pitch_bend_c, 12, 7490
1, 11189, Pitch_bend_c, 11, 4748
1, 11189, Pitch_bend_c, 12, 7467
1, 11190, Note_on_c, 0, 63, 73
1, 11190, Note_on_c, 0, 67, 82
1, 11190, Note_on_c, 0, 72, 83
1, 11190, Pitch_bend_c, 11, 4725
1, 11190, Pitch_bend_c, 12, 7445
1, 11191, Note_on_c, 0, 72, 0
1, 11191, Note_on_c, 0, 67, 0
1, 11191, Note_on_c, 0, 63, 0
1, 11191, Pitch_bend_c, 11, 4703
1, 11191, Control_c, 12, 11, 121
1, 11191, Pitch_bend_c, 12, 7422
1, 11192, Control_c, 11, 11, 94
1, 11192, Pitch_bend_c, 11, 4680
1, 11192, Pitch_bend_c, 12, 7399
1, 11193, Note_on_c, 9, 38, 0
1, 11193, Pitch_bend_c, 11, 4657
1, 11193, Pitch_bend_c, 12, 7377
1, 11194, Pitch_bend_c, 11, 4635
1, 11194, Pitch_bend_c, 12, 7354
1, 11195, Pitch_bend_c, 11, 4612
1, 11195, Control_c, 12, 11, 120
1, 11195, Pitch_bend_c, 12, 7331
1, 11196, Pitch_bend_c, 11, 4589
1, 11196, Pitch_bend_c, 12, 7309
1, 11197, Control_c, 11, 11, 93
1, 11197, Pitch_bend_c, 11, 4567
1, 11197, Pitch_bend_c, 12, 7286
1, 11198, Pitch_bend_c, 11, 4544
1, 11198, Pitch_bend_c, 12, 7263
1, 11199, Pitch_bend_c, 11, 4521
1, 11199, Pitch_bend_c, 12, 7241
1, 11200, Pitch_bend_c, 11, 4499
1, 11200, Control_c, 12, 11, 119
1, 11200, Pitch_bend_c, 12, 7218
1, 11201, Control_c, 11, 11, 92
1, 11201, Pitch_bend_c, 11, 4476
1, 11201, Pitch_bend_c, 12, 7195
1, 11202, Pitch_bend_c, 11, 4453
1, 11202, Pitch_bend_c, 12, 7173
1, 11203, Pitch_bend_c, 11, 4431
1, 11203, Pitch_bend_c, 12, 7150
1, 11204, Pitch_bend_c, 11, 4408
1, 11204, Control_c, 12, 11, 118
1, 11204, Pitch_bend_c, 12, 7127
1, 11205, Pitch_bend_c, 11, 4385
1, 11205, Pitch_bend_c, 12, 7105
1, 11206, Control_c, 11, 11, 91
1, 11206, Pitch_bend_c, 11, 4363
1, 11206, Pitch_bend_c, 12, 7082
1, 11207, Note_on_c, 10, 70, 89
1, 11207, Pitch_bend_c, 11, 4340
1, 11207, Pitch_bend_c, 12, 7059
1, 11208, Pitch_bend_c, 11, 4317
1, 11208, Pitch_bend_c, 12, 7037
1, 11209, Pitch_bend_c, 11, 4295
1, 11209, Control_c, 12, 11, 117
1, 11209, Pitch_bend_c, 12, 7014
1, 11210, Control_c, 11, 11, 90
1, 11210, Pitch_bend_c, 11, 4272
1, 11210, Pitch_bend_c, 12, 6991
1, 11211, Pitch_bend_c, 11, 4249
1, 11211, Pitch_bend_c, 12, 6969
1, 11212, Pitch_bend_c, 11, 4227
1, 11212, Pitch_bend_c, 12, 6946
1, 11213, Pitch_bend_c, 11, 4204
1, 11213, Control_c, 12, 11, 116
1, 11213, Pitch_bend_c, 12, 6923
1, 11214, Pitch_bend_c, 11, 4181
1, 11214, Pitch_bend_c, 12, 6901
1, 11215, Control_c, 11, 11, 89
1, 11215, Pitch_bend_c, 11, 4159
1, 11215, Pitch_bend_c, 12, 6878
1, 11216, Pitch_bend_c, 11, 4136
1, 11216, Pitch_bend_c, 12, 6855
1, 11217, Pitch_bend_c, 11, 4113
1, 11217, Pitch_bend_c, 12, 6833
1, 11218, Pitch_bend_c, 11, 4091
1, 11218, Control_c, 12, 11, 115
1, 11218, Pitch_bend_c, 12, 6810
1, 11219, Control_c, 11, 11, 88
1, 11219, Pitch_bend_c, 11, 4068
1, 11219, Pitch_bend_c, 12, 6788
1, 11220, Note_on_c, 0, 63, 80
1, 11220, Note_on_c, 0, 67, 91
1, 11220, Note_on_c, 0, 72, 98
1, 11220, Note_on_c, 9, 42, 120
1, 11220, Note_on_c, 10, 72, 118
1, 11220, Pitch_bend_c, 11, 4046
1, 11220, Pitch_bend_c, 12, 6765
1, 11221, Note_on_c, 0, 72, 0
1, 11221, Note_on_c, 0, 67, 0
1, 11221, Note_on_c, 0, 63, 0
1, 11221, Pitch_bend_c, 11, 4023
1, 11221, Pitch_bend_c, 12, 6742
1, 11222, Pitch_bend_c, 11, 4000
1, 11222, Control_c, 12, 11, 114
1, 11222, Pitch_bend_c, 12, 6720
1, 11223, Pitch_bend_c, 11, 3978
1, 11223, Pitch_bend_c, 12, 6697
1, 11224, Control_c, 11, 11, 87
1, 11224, Pitch_bend_c, 11, 3955
1, 11224, Pitch_bend_c, 12, 6674
1, 11225, Note_on_c, 10, 70, 0
1, 11225, Pitch_bend_c, 11, 3932
1, 11225, Pitch_bend_c, 12, 6652
1, 11226, Pitch_bend_c, 11, 3910
1, 11226, Pitch_bend_c, 12, 6629
1, 11227, Pitch_bend_c, 11, 3887
1, 11227, Control_c, 12, 11, 113
1, 11227, Pitch_bend_c, 12, 6606
1, 11228, Control_c, 11, 11, 86
1, 11228, Pitch_bend_c, 11, 3864
1, 11228, Pitch_bend_c, 12, 6584
1, 11229, Pitch_bend_c, 11, 3842
1, 11229, Pitch_bend_c, 12, 6561
1, 11230, Pitch_bend_c, 11, 3819
1, 11230, Pitch_bend_c, 12, 6538
1, 11231, Pitch_bend_c, 11, 3796
1, 11231, Control_c, 12, 11, 112
1, 11231, Pitch_bend_c, 12, 6516
1, 11232, Pitch_bend_c, 11, 3774
1, 11232, Pitch_bend_c, 12, 6493
1, 11233, Pitch_bend_c, 11, 3751
1, 11233, Pitch_bend_c, 12, 6470
1, 11234, Pitch_bend_c, 11, 3728
1, 11234, Pitch_bend_c, 12, 6448
1, 11235, Pitch_bend_c, 11, 3706
1, 11235, Pitch_bend_c, 12, 6425
1, 11236, Pitch_bend_c, 11, 3683
1, 11236, Control_c, 12, 11, 111
1, 11236, Pitch_bend_c, 12, 6402
1, 11237, Control_c, 11, 11, 85
1, 11237, Pitch_bend_c, 11, 3660
1, 11237, Pitch_bend_c, 12, 6380
1, 11238, Pitch_bend_c, 11, 3638
1, 11238, Pitch_bend_c, 12, 6357
1, 11239, Pitch_bend_c, 11, 3615
1, 11239, Pitch_bend_c, 12, 6334
1, 11240, Pitch_bend_c, 11, 3592
1, 11240, Control_c, 12, 11, 110
1, 11240, Pitch_bend_c, 12, 6312
1, 11241, Pitch_bend_c, 11, 3570
1, 11241, Pitch_bend_c, 12, 6289
1, 11242, Control_c, 11, 11, 84
1, 11242, Pitch_bend_c, 11, 3547
1, 11242, Pitch_bend_c, 12, 6266
1, 11243, Note_on_c, 10, 72, 0
1, 11243, Pitch_bend_c, 11, 3524
1, 11243, Pitch_bend_c, 12, 6244
1, 11244, Pitch_bend_c, 11, 3502
1, 11244, Pitch_bend_c, 12, 6221
1, 11245, Pitch_bend_c, 11, 3479
1, 11245, Control_c, 12, 11, 109
1, 11245, Pitch_bend_c, 12, 6198
1, 11246, Note_on_c, 9, 42, 0
1, 11246, Control_c, 11, 11, 83
1, 11246, Pitch_bend_c, 11, 3456
1, 11246, Pitch_bend_c, 12, 6176
1, 11247, Pitch_bend_c, 11, 3434
1, 11247, Pitch_bend_c, 12, 6153
1, 11248, Pitch_bend_c, 11, 3411
1, 11248, Pitch_bend_c, 12, 6130
1, 11249, Pitch_bend_c, 11, 3388
1, 11249, Control_c, 12, 11, 108
1, 11249, Pitch_bend_c, 12, 6108
1, 11250, Note_on_c, 0, 63, 77
1, 11250, Note_on_c, 0, 67, 90
1, 11250, Note_on_c, 0, 72, 98
1, 11250, Pitch_bend_c, 11, 3366
1, 11250, Pitch_bend_c, 12, 6085
1, 11251, Note_on_c, 0, 72, 0
1, 11251, Note_on_c, 0, 67, 0
1, 11251, Note_on_c, 0, 63, 0
1, 11251, Control_c, 11, 11, 82
1, 11251, Pitch_bend_c, 11, 3343
1, 11251, Pitch_bend_c, 12, 6062
1, 11252, Pitch_bend_c, 11, 3320
1, 11252, Pitch_bend_c, 12, 6040
1, 11253, Pitch_bend_c, 11, 3298
1, 11253, Pitch_bend_c, 12, 6017
1, 11254, Pitch_bend_c, 11, 3275
1, 11254, Control_c, 12, 11, 107
1, 11254, Pitch_bend_c, 12, 5994
1, 11255, Control_c, 11, 11, 81
1, 11255, Pitch_bend_c, 11, 3252
1, 11255, Pitch_bend_c, 12, 5972
1, 11256, Pitch_bend_c, 11, 3230
1, 11256, Pitch_bend_c, 12, 5949
1, 11257, Pitch_bend_c, 11, 3207
1, 11257, Pitch_bend_c, 12, 5926
1, 11258, Pitch_bend_c, 11, 3184
1, 11258, Control_c, 12, 11, 106
1, 11258, Pitch_bend_c, 12, 5904
1, 11259, Pitch_bend_c, 11, 3162
1, 11259, Pitch_bend_c, 12, 5881
1, 11260, Control_c, 11, 11, 80
1, 11260, Pitch_bend_c, 11, 3139
1, 11260, Pitch_bend_c, 12, 5858
1, 11261, Pitch_bend_c, 11, 3116
1, 11261, Pitch_bend_c, 12, 5836
1, 11262, Pitch_bend_c, 11, 3094
1, 11262, Pitch_bend_c, 12, 5813
1, 11263, Pitch_bend_c, 11, 3071
1, 11263, Control_c, 12, 11, 105
1, 11263, Pitch_bend_c, 12, 5790
1, 11264, Control_c, 11, 11, 79
1, 11264, Pitch_bend_c, 11, 3048
1, 11264, Pitch_bend_c, 12, 5768
1, 11265, Pitch_bend_c, 11, 3026
1, 11265, Pitch_bend_c, 12, 5745
1, 11266, Pitch_bend_c, 11, 3003
1, 11266, Pitch_bend_c, 12, 5722
1, 11267, Pitch_bend_c, 11, 2980
1, 11267, Control_c, 12, 11, 104
1, 11267, Pitch_bend_c, 12, 5700
1, 11268, Pitch_bend_c, 11, 2958
1, 11268, Pitch_bend_c, 12, 5677
1, 11269, Control_c, 11, 11, 78
1, 11269, Pitch_bend_c, 11, 2935
1, 11269, Pitch_bend_c, 12, 5654
1, 11270, Pitch_bend_c, 11, 2912
1, 11270, Pitch_bend_c, 12, 5632
1, 11271, Pitch_bend_c, 11, 2890
1, 11271, Pitch_bend_c, 12, 5609
1, 11272, Pitch_bend_c, 11, 2867
1, 11272, Control_c, 12, 11, 103
1, 11272, Pitch_bend_c, 12, 5586
1, 11273, Control_c, 11, 11, 77
1, 11273, Pitch_bend_c, 11, 2844
1, 11273, Pitch_bend_c, 12, 5564
1, 11274, Pitch_bend_c, 11, 2822
1, 11274, Pitch_bend_c, 12, 5541
1, 11275, Pitch_bend_c, 11, 2799
1, 11275, Pitch_bend_c, 12, 5518
1, 11276, Pitch_bend_c, 11, 2776
1, 11276, Control_c, 12, 11, 102
1, 11276, Pitch_bend_c, 12, 5496
1, 11277, Pitch_bend_c, 11, 2754
1, 11277, Pitch_bend_c, 12, 5473
1, 11278, Control_c, 11, 11, 76
1, 11278, Pitch_bend_c, 11, 2731
1, 11278, Pitch_bend_c, 12, 5451
1, 11279, Pitch_bend_c, 11, 2709
1, 11279, Pitch_bend_c, 12, 5428
1, 11280, Note_on_c, 0, 63, 91
1, 11280, Note_on_c, 0, 67, 119
1, 11280, Note_on_c, 0, 72, 96
1, 11280, Note_on_c, 1, 32, 120
1, 11280, Note_on_c, 7, 56, 111
1, 11280, Note_on_c, 7, 60, 119
1, 11280, Note_on_c, 7, 67, 116
1, 11280, Note_on_c, 8, 56, 111
1, 11280, Note_on_c, 8, 60, 119
1, 11280, Note_on_c, 8, 67, 116
1, 11280, Note_on_c, 9, 36, 120
1, 11280, Note_on_c, 10, 70, 120
1, 11280, Pitch_bend_c, 11, 2686
1, 11280, Pitch_bend_c, 12, 5405
1, 11281, Pitch_bend_c, 11, 2663
1, 11281, Control_c, 12, 11, 101
1, 11281, Pitch_bend_c, 12, 5383
1, 11282, Control_c, 11, 11, 75
1, 11282, Pitch_bend_c, 11, 2641
1, 11282, Pitch_bend_c, 12, 5360
1, 11283, Pitch_bend_c, 11, 2618
1, 11283, Pitch_bend_c, 12, 5337
1, 11284, Pitch_bend_c, 11, 2595
1, 11284, Pitch_bend_c, 12, 5315
1, 11285, Pitch_bend_c, 11, 2573
1, 11285, Control_c, 12, 11, 100
1, 11285, Pitch_bend_c, 12, 5292
1, 11286, Pitch_bend_c, 11, 2550
1, 11286, Pitch_bend_c, 12, 5269
1, 11287, Control_c, 11, 11, 74
1, 11287, Pitch_bend_c, 11, 2527
1, 11287, Pitch_bend_c, 12, 5247
1, 11288, Pitch_bend_c, 11, 2505
1, 11288, Pitch_bend_c, 12, 5224
1, 11289, Pitch_bend_c, 11, 2482
1, 11289, Pitch_bend_c, 12, 5201
1, 11290, Pitch_bend_c, 11, 2459
1, 11290, Control_c, 12, 11, 99
1, 11290, Pitch_bend_c, 12, 5179
1, 11291, Control_c, 11, 11, 73
1, 11291, Pitch_bend_c, 11, 2437
1, 11291, Pitch_bend_c, 12, 5156
1, 11292, Pitch_bend_c, 11, 2414
1, 11292, Pitch_bend_c, 12, 5133
1, 11293, Pitch_bend_c, 11, 2391
1, 11293, Pitch_bend_c, 12, 5111
1, 11294, Pitch_bend_c, 11, 2369
1, 11294, Control_c, 12, 11, 98
1, 11294, Pitch_bend_c, 12, 5088
1, 11295, Pitch_bend_c, 11, 2346
1, 11295, Pitch_bend_c, 12, 5065
1, 11296, Control_c, 11, 11, 72
1, 11296, Pitch_bend_c, 11, 2323
1, 11296, Pitch_bend_c, 12, 5043
1, 11297, Pitch_bend_c, 11, 2301
1, 11297, Pitch_bend_c, 12, 5020
1, 11298, Pitch_bend_c, 11, 2278
1, 11298, Pitch_bend_c, 12, 4997
1, 11299, Pitch_bend_c, 11, 2255
1, 11299, Control_c, 12, 11, 97
1, 11299, Pitch_bend_c, 12, 4975
1, 11300, Control_c, 11, 11, 71
1, 11300, Pitch_bend_c, 11, 2233
1, 11300, Pitch_bend_c, 12, 4952
1, 11301, Pitch_bend_c, 11, 2210
1, 11301, Pitch_bend_c, 12, 4929
1, 11302, Pitch_bend_c, 11, 2187
1, 11302, Pitch_bend_c, 12, 4907
1, 11303, Pitch_bend_c, 11, 2165
1, 11303, Control_c, 12, 11, 96
1, 11303, Pitch_bend_c, 12, 4884
1, 11304, Pitch_bend_c, 11, 2142
1, 11304, Pitch_bend_c, 12, 4861
1, 11305, Control_c, 11, 11, 70
1, 11305, Pitch_bend_c, 11, 2119
1, 11305, Pitch_bend_c, 12, 4839
1, 11306, Pitch_bend_c, 11, 2097
1, 11306, Pitch_bend_c, 12, 4816
1, 11307, Pitch_bend_c, 11, 2074
1, 11307, Pitch_bend_c, 12, 4793
1, 11308, Pitch_bend_c, 11, 2051
1, 11308, Control_c, 12, 11, 95
1, 11308, Pitch_bend_c, 12, 4771
1, 11309, Note_on_c, 0, 72, 0
1, 11309, Control_c, 11, 11, 69
1, 11309, Pitch_bend_c, 11, 2029
1, 11309, Pitch_bend_c, 12, 4748
1, 11310, Pitch_bend_c, 11, 2006
1, 11310, Pitch_bend_c, 12, 4725
1, 11311, Note_on_c, 1, 32, 0
1, 11311, Note_on_c, 0, 67, 0
1, 11311, Pitch_bend_c, 11, 1983
1, 11311, Pitch_bend_c, 12, 4703
1, 11312, Note_on_c, 9, 36, 0
1, 11312, Pitch_bend_c, 11, 1961
1, 11312, Control_c, 12, 11, 94
1, 11312, Pitch_bend_c, 12, 4680
1, 11313, Note_on_c, 7, 67, 0
1, 11313, Note_on_c, 7, 60, 0
1, 11313, Note_on_c, 8, 67, 0
1, 11313, Note_on_c, 8, 60, 0
1, 11313, Pitch_bend_c, 11, 1938
1, 11313, Pitch_bend_c, 12, 4657
1, 11314, Note_on_c, 0, 63, 0
1, 11314, Control_c, 11, 11, 68
1, 11314, Pitch_bend_c, 11, 1915
1, 11314, Pitch_bend_c, 12, 4635
1, 11315, Pitch_bend_c, 11, 1893
1, 11315, Pitch_bend_c, 12, 4612
1, 11316, Pitch_bend_c, 11, 1870
1, 11316, Pitch_bend_c, 12, 4589
1, 11317, Pitch_bend_c, 11, 1847
1, 11317, Control_c, 12, 11, 93
1, 11317, Pitch_bend_c, 12, 4567
1, 11318, Control_c, 11, 11, 67
1, 11318, Pitch_bend_c, 11, 1825
1, 11318, Pitch_bend_c, 12, 4544
1, 11319, Pitch_bend_c, 11, 1802
1, 11319, Pitch_bend_c, 12, 4521
1, 11320, Note_on_c, 8, 56, 0
1, 11320, Note_on_c, 7, 56, 0
1, 11320, Pitch_bend_c, 11, 1779
1, 11320, Pitch_bend_c, 12, 4499
1, 11321, Pitch_bend_c, 11, 1757
1, 11321, Control_c, 12, 11, 92
1, 11321, Pitch_bend_c, 12, 4476
1, 11322, Pitch_bend_c, 11, 1734
1, 11322, Pitch_bend_c, 12, 4453
1, 11323, Control_c, 11, 11, 66
1, 11323, Pitch_bend_c, 11, 1711
1, 11323, Pitch_bend_c, 12, 4431
1, 11324, Pitch_bend_c, 11, 1689
1, 11324, Pitch_bend_c, 12, 4408
1, 11325, Pitch_bend_c, 11, 1666
1, 11325, Pitch_bend_c, 12, 4385
1, 11326, Pitch_bend_c, 11, 1643
1, 11326, Control_c, 12, 11, 91
1, 11326, Pitch_bend_c, 12, 4363
1, 11327, Control_c, 11, 11, 65
1, 11327, Pitch_bend_c, 11, 1621
1, 11327, Pitch_bend_c, 12, 4340
1, 11328, Pitch_bend_c, 11, 1598
1, 11328, Pitch_bend_c, 12, 4317
1, 11329, Pitch_bend_c, 11, 1575
1, 11329, Pitch_bend_c, 12, 4295
1, 11330, Pitch_bend_c, 11, 1553
1, 11330, Control_c, 12, 11, 90
1, 11330, Pitch_bend_c, 12, 4272
1, 11331, Pitch_bend_c, 11, 1530
1, 11331, Pitch_bend_c, 12, 4249
1, 11332, Control_c, 11, 11, 64
1, 11332, Pitch_bend_c, 11, 1507
1, 11332, Pitch_bend_c, 12, 4227
1, 11333, Pitch_bend_c, 11, 1485
1, 11333, Pitch_bend_c, 12, 4204
1, 11334, Pitch_bend_c, 11, 1462
1, 11334, Pitch_bend_c, 12, 4181
1, 11335, Pitch_bend_c, 11, 1439
1, 11335, Control_c, 12, 11, 89
1, 11335, Pitch_bend_c, 12, 4159
1, 11336, Control_c, 11, 11, 63
1, 11336, Pitch_bend_c, 11, 1417
1, 11336, Pitch_bend_c, 12, 4136
1, 11337, Pitch_bend_c, 11, 1394
1, 11337, Pitch_bend_c, 12, 4113
1, 11338, Pitch_bend_c, 11, 1371
1, 11338, Pitch_bend_c, 12, 4091
1, 11339, Pitch_bend_c, 11, 1349
1, 11339, Control_c, 12, 11, 88
1, 11339, Pitch_bend_c, 12, 4068
1, 11340, Note_on_c, 0, 63, 80
1, 11340, Note_on_c, 0, 67, 111
1, 11340, Note_on_c, 0, 72, 82
1, 11340, Note_on_c, 9, 42, 120
1, 11340, Pitch_bend_c, 11, 1326
1, 11340, Pitch_bend_c, 12, 4046
1, 11341, Note_on_c, 0, 72, 0
1, 11341, Note_on_c, 0, 67, 0
1, 11341, Note_on_c, 0, 63, 0
1, 11341, Control_c, 11, 11, 62
1, 11341, Pitch_bend_c, 11, 1304
1, 11341, Pitch_bend_c, 12, 4023
1, 11342, Pitch_bend_c, 11, 1281
1, 11342, Pitch_bend_c, 12, 4000
1, 11343, Pitch_bend_c, 11, 1258
1, 11343, Pitch_bend_c, 12, 3978
1, 11344, Pitch_bend_c, 11, 1236
1, 11344, Control_c, 12, 11, 87
1, 11344, Pitch_bend_c, 12, 3955
1, 11345, Control_c, 11, 11, 61
1, 11345, Pitch_bend_c, 11, 1213
1, 11345, Pitch_bend_c, 12, 3932
1, 11346, Pitch_bend_c, 11, 1190
1, 11346, Pitch_bend_c, 12, 3910
1, 11347, Pitch_bend_c, 11, 1168
1, 11347, Pitch_bend_c, 12, 3887
1, 11348, Pitch_bend_c, 11, 1145
1, 11348, Control_c, 12, 11, 86
1, 11348, Pitch_bend_c, 12, 3864
1, 11349, Pitch_bend_c, 11, 1122
1, 11349, Pitch_bend_c, 12, 3842
1, 11350, Control_c, 11, 11, 60
1, 11350, Pitch_bend_c, 11, 1100
1, 11350, Pitch_bend_c, 12, 3819
1, 11351, Pitch_bend_c, 11, 1077
1, 11351, Pitch_bend_c, 12, 3796
1, 11352, Pitch_bend_c, 11, 1054
1, 11352, Pitch_bend_c, 12, 3774
1, 11353, Pitch_bend_c, 11, 1032
1, 11353, Pitch_bend_c, 12, 3751
1, 11354, Control_c, 11, 11, 59
1, 11354, Pitch_bend_c, 11, 1009
1, 11354, Pitch_bend_c, 12, 3728
1, 11355, Pitch_bend_c, 11, 986
1, 11355, Pitch_bend_c, 12, 3706
1, 11356, Pitch_bend_c, 11, 964
1, 11356, Pitch_bend_c, 12, 3683
1, 11357, Pitch_bend_c, 11, 941
1, 11357, Control_c, 12, 11, 85
1, 11357, Pitch_bend_c, 12, 3660
1, 11358, Pitch_bend_c, 11, 918
1, 11358, Pitch_bend_c, 12, 3638
1, 11359, Control_c, 11, 11, 58
1, 11359, Pitch_bend_c, 11, 896
1, 11359, Pitch_bend_c, 12, 3615
1, 11360, Pitch_bend_c, 11, 873
1, 11360, Pitch_bend_c, 12, 3592
1, 11361, Pitch_bend_c, 11, 850
1, 11361, Pitch_bend_c, 12, 3570
1, 11362, Pitch_bend_c, 11, 828
1, 11362, Control_c, 12, 11, 84
1, 11362, Pitch_bend_c, 12, 3547
1, 11363, Control_c, 11, 11, 57
1, 11363, Pitch_bend_c, 11, 805
1, 11363, Pitch_bend_c, 12, 3524
1, 11364, Pitch_bend_c, 11, 782
1, 11364, Pitch_bend_c, 12, 3502
1, 11365, Note_on_c, 9, 42, 0
1, 11365, Pitch_bend_c, 11, 760
1, 11365, Pitch_bend_c, 12, 3479
1, 11366, Pitch_bend_c, 11, 737
1, 11366, Control_c, 12, 11, 83
1, 11366, Pitch_bend_c, 12, 3456
1, 11367, Pitch_bend_c, 11, 714
1, 11367, Pitch_bend_c, 12, 3434
1, 11368, Control_c, 11, 11, 56
1, 11368, Pitch_bend_c, 11, 692
1, 11368, Pitch_bend_c, 12, 3411
1, 11369, Pitch_bend_c, 11, 669
1, 11369, Pitch_bend_c, 12, 3388
1, 11370, Note_on_c, 0, 62, 119
1, 11370, Note_on_c, 0, 65, 89
1, 11370, Note_on_c, 0, 70, 91
1, 11370, Note_on_c, 1, 31, 116
1, 11370, Note_on_c, 3, 60, 119
1, 11370, Note_on_c, 4, 60, 118
1, 11370, Note_on_c, 4, 63, 119
1, 11370, Note_on_c, 4, 70, 120
1, 11370, Note_on_c, 5, 48, 119
1, 11370, Note_on_c, 7, 55, 118
1, 11370, Note_on_c, 7, 58, 120
1, 11370, Note_on_c, 7, 65, 98
1, 11370, Note_on_c, 8, 55, 118
1, 11370, Note_on_c, 8, 58, 120
1, 11370, Note_on_c, 8, 65, 98
1, 11370, Note_on_c, 10, 72, 118
1, 11370, Pitch_bend_c, 11, 646
1, 11370, Pitch_bend_c, 12, 3366
1, 11370, Note_on_c, 15, 63, 1
1, 11370, Note_on_c, 15, 60, 1
1, 11370, Note_on_c, 15, 70, 1
1, 11370, Lyric_t, "You "
1, 11371, Pitch_bend_c, 11, 624
1, 11371, Control_c, 12, 11, 82
1, 11371, Pitch_bend_c, 12, 3343
1, 11372, Control_c, 11, 11, 55
1, 11372, Pitch_bend_c, 11, 601
1, 11372, Pitch_bend_c, 12, 3320
1, 11373, Pitch_bend_c, 11, 578
1, 11373, Pitch_bend_c, 12, 3298
1, 11374, Note_on_c, 10, 70, 0
1, 11374, Pitch_bend_c, 11, 556
1, 11374, Pitch_bend_c, 12, 3275
1, 11375, Pitch_bend_c, 11, 533
1, 11375, Control_c, 12, 11, 81
1, 11375, Pitch_bend_c, 12, 3252
1, 11376, Pitch_bend_c, 11, 510
1, 11376, Pitch_bend_c, 12, 3230
1, 11377, Control_c, 11, 11, 54
1, 11377, Pitch_bend_c, 11, 488
1, 11377, Pitch_bend_c, 12, 3207
1, 11378, Pitch_bend_c, 11, 465
1, 11378, Pitch_bend_c, 12, 3184
1, 11379, Note_on_c, 3, 60, 0
1, 11379, Note_on_c, 5, 48, 0
1, 11379, Pitch_bend_c, 11, 442
1, 11379, Pitch_bend_c, 12, 3162
1, 11380, Pitch_bend_c, 11, 420
1, 11380, Control_c, 12, 11, 80
1, 11380, Pitch_bend_c, 12, 3139
1, 11381, Control_c, 11, 11, 53
1, 11381, Pitch_bend_c, 11, 397
1, 11381, Pitch_bend_c, 12, 3116
1, 11382, Note_on_c, 15, 70, 0
1, 11382, Note_on_c, 4, 70, 0
1, 11382, Pitch_bend_c, 11, 374
1, 11382, Pitch_bend_c, 12, 3094
1, 11383, Pitch_bend_c, 11, 352
1, 11383, Pitch_bend_c, 12, 3071
1, 11384, Pitch_bend_c, 11, 329
1, 11384, Control_c, 12, 11, 79
1, 11384, Pitch_bend_c, 12, 3048
1, 11385, Pitch_bend_c, 11, 306
1, 11385, Pitch_bend_c, 12, 3026
1, 11386, Control_c, 11, 11, 52
1, 11386, Pitch_bend_c, 11, 284
1, 11386, Pitch_bend_c, 12, 3003
1, 11387, Note_on_c, 15, 63, 0
1, 11387, Note_on_c, 4, 63, 0
1, 11387, Pitch_bend_c, 11, 261
1, 11387, Pitch_bend_c, 12, 2980
1, 11388, Pitch_bend_c, 11, 238
1, 11388, Pitch_bend_c, 12, 2958
1, 11389, Pitch_bend_c, 11, 216
1, 11389, Control_c, 12, 11, 78
1, 11389, Pitch_bend_c, 12, 2935
1, 11390, Note_on_c, 4, 60, 0
1, 11390, Note_on_c, 15, 60, 0
1, 11390, Note_on_c, 2, 72, 0
1, 11390, Control_c, 11, 11, 51
1, 11390, Pitch_bend_c, 11, 193
1, 11390, Pitch_bend_c, 12, 2912
1, 11391, Pitch_bend_c, 11, 170
1, 11391, Pitch_bend_c, 12, 2890
1, 11392, Note_on_c, 1, 31, 0
1, 11392, Pitch_bend_c, 11, 148
1, 11392, Pitch_bend_c, 12, 2867
1, 11393, Note_on_c, 10, 72, 0
1, 11393, Pitch_bend_c, 11, 125
1, 11393, Control_c, 12, 11, 77
1, 11393, Pitch_bend_c, 12, 2844
1, 11394, Note_on_c, 2, 67, 0
1, 11394, Pitch_bend_c, 11, 102
1, 11394, Pitch_bend_c, 12, 2822
1, 11395, Control_c, 11, 11, 50
1, 11395, Pitch_bend_c, 11, 80
1, 11395, Pitch_bend_c, 12, 2799
1, 11396, Note_on_c, 8, 55, 0
1, 11396, Note_on_c, 0, 70, 0
1, 11396, Note_on_c, 7, 55, 0
1, 11396, Pitch_bend_c, 11, 57
1, 11396, Pitch_bend_c, 12, 2776
1, 11397, Pitch_bend_c, 11, 34
1, 11397, Pitch_bend_c, 12, 2754
1, 11398, Note_on_c, 0, 65, 0
1, 11398, Pitch_bend_c, 11, 12
1, 11398, Control_c, 12, 11, 76
1, 11398, Pitch_bend_c, 12, 2731
1, 11399, Note_on_c, 2, 63, 0
1, 11399, Note_on_c, 11, 96, 0
1, 11399, Note_on_c, 0, 62, 0
1, 11399, Pitch_bend_c, 12, 2709
1, 11400, Note_on_c, 3, 60, 116
1, 11400, Note_on_c, 4, 60, 113
1, 11400, Note_on_c, 4, 63, 115
1, 11400, Note_on_c, 4, 70, 109
1, 11400, Note_on_c, 5, 48, 116
1, 11400, Note_on_c, 9, 38, 120
1, 11400, Pitch_bend_c, 12, 2686
1, 11400, Note_on_c, 15, 70, 1
1, 11400, Note_on_c, 15, 60, 1
1, 11400, Note_on_c, 15, 63, 1
1, 11400, Lyric_t, "know "
1, 11401, Pitch_bend_c, 12, 2663
1, 11402, Note_on_c, 8, 65, 0
1, 11402, Note_on_c, 7, 65, 0
1, 11402, Control_c, 12, 11, 75
1, 11402, Pitch_bend_c, 12, 2641
1, 11403, Note_on_c, 7, 58, 0
1, 11403, Note_on_c, 8, 58, 0
1, 11403, Pitch_bend_c, 12, 2618
1, 11404, Pitch_bend_c, 12, 2595
1, 11405, Pitch_bend_c, 12, 2573
1, 11406, Pitch_bend_c, 12, 2550
1, 11407, Control_c, 12, 11, 74
1, 11407, Pitch_bend_c, 12, 2527
1, 11408, Pitch_bend_c, 12, 2505
1, 11409, Pitch_bend_c, 12, 2482
1, 11410, Pitch_bend_c, 12, 2459
1, 11411, Control_c, 12, 11, 73
1, 11411, Pitch_bend_c, 12, 2437
1, 11412, Pitch_bend_c, 12, 2414
1, 11413, Pitch_bend_c, 12, 2391
1, 11414, Pitch_bend_c, 12, 2369
1, 11415, Pitch_bend_c, 12, 2346
1, 11416, Control_c, 12, 11, 72
1, 11416, Pitch_bend_c, 12, 2323
1, 11417, Note_on_c, 5, 48, 0
1, 11417, Note_on_c, 3, 60, 0
1, 11417, Pitch_bend_c, 12, 2301
1, 11418, Pitch_bend_c, 12, 2278
1, 11419, Note_on_c, 15, 60, 0
1, 11419, Note_on_c, 4, 60, 0
1, 11419, Pitch_bend_c, 12, 2255
1, 11420, Control_c, 12, 11, 71
1, 11420, Pitch_bend_c, 12, 2233
1, 11421, Pitch_bend_c, 12, 2210
1, 11422, Note_on_c, 4, 70, 0
1, 11422, Note_on_c, 4, 63, 0
1, 11422, Note_on_c, 15, 70, 0
1, 11422, Note_on_c, 15, 63, 0
1, 11422, Pitch_bend_c, 12, 2187
1, 11423, Pitch_bend_c, 12, 2165
1, 11424, Pitch_bend_c, 12, 2142
1, 11425, Control_c, 12, 11, 70
1, 11425, Pitch_bend_c, 12, 2119
1, 11426, Note_on_c, 9, 38, 0
1, 11426, Pitch_bend_c, 12, 2097
1, 11427, Pitch_bend_c, 12, 2074
1, 11428, Pitch_bend_c, 12, 2051
1, 11429, Control_c, 12, 11, 69
1, 11429, Pitch_bend_c, 12, 2029
1, 11430, Note_on_c, 0, 62, 109
1, 11430, Note_on_c, 0, 65, 77
1, 11430, Note_on_c, 0, 70, 60
1, 11430, Note_on_c, 3, 63, 120
1, 11430, Note_on_c, 4, 60, 118
1, 11430, Note_on_c, 4, 63, 109
1, 11430, Note_on_c, 4, 70, 120
1, 11430, Note_on_c, 5, 51, 120
1, 11430, Pitch_bend_c, 12, 2006
1, 11430, Note_on_c, 15, 63, 1
1, 11430, Note_on_c, 15, 60, 1
1, 11430, Note_on_c, 15, 70, 1
1, 11430, Lyric_t, "you "
1, 11431, Note_on_c, 0, 70, 0
1, 11431, Note_on_c, 0, 65, 0
1, 11431, Note_on_c, 0, 62, 0
1, 11431, Pitch_bend_c, 12, 1983
1, 11432, Pitch_bend_c, 12, 1961
1, 11433, Pitch_bend_c, 12, 1938
1, 11434, Control_c, 12, 11, 68
1, 11434, Pitch_bend_c, 12, 1915
1, 11435, Pitch_bend_c, 12, 1893
1, 11436, Pitch_bend_c, 12, 1870
1, 11437, Pitch_bend_c, 12, 1847
1, 11438, Control_c, 12, 11, 67
1, 11438, Pitch_bend_c, 12, 1825
1, 11439, Pitch_bend_c, 12, 1802
1, 11440, Pitch_bend_c, 12, 1779
1, 11441, Pitch_bend_c, 12, 1757
1, 11442, Pitch_bend_c, 12, 1734
1, 11443, Control_c, 12, 11, 66
1, 11443, Pitch_bend_c, 12, 1711
1, 11444, Note_on_c, 5, 51, 0
1, 11444, Note_on_c, 3, 63, 0
1, 11444, Pitch_bend_c, 12, 1689
1, 11445, Note_on_c, 4, 70, 0
1, 11445, Note_on_c, 15, 70, 0
1, 11445, Pitch_bend_c, 12, 1666
1, 11446, Pitch_bend_c, 12, 1643
1, 11447, Note_on_c, 4, 60, 0
1, 11447, Note_on_c, 15, 60, 0
1, 11447, Control_c, 12, 11, 65
1, 11447, Pitch_bend_c, 12, 1621
1, 11448, Note_on_c, 4, 63, 0
1, 11448, Note_on_c, 15, 63, 0
1, 11448, Pitch_bend_c, 12, 1598
1, 11449, Pitch_bend_c, 12, 1575
1, 11450, Pitch_bend_c, 12, 1553
1, 11451, Pitch_bend_c, 12, 1530
1, 11452, Control_c, 12, 11, 64
1, 11452, Pitch_bend_c, 12, 1507
1, 11453, Pitch_bend_c, 12, 1485
1, 11454, Pitch_bend_c, 12, 1462
1, 11455, Pitch_bend_c, 12, 1439
1, 11456, Control_c, 12, 11, 63
1, 11456, Pitch_bend_c, 12, 1417
1, 11457, Pitch_bend_c, 12, 1394
1, 11458, Pitch_bend_c, 12, 1371
1, 11459, Pitch_bend_c, 12, 1349
1, 11460, Note_on_c, 0, 60, 119
1, 11460, Note_on_c, 0, 63, 91
1, 11460, Note_on_c, 0, 68, 91
1, 11460, Note_on_c, 1, 29, 120
1, 11460, Note_on_c, 2, 60, 105
1, 11460, Note_on_c, 2, 63, 98
1, 11460, Note_on_c, 2, 68, 92
1, 11460, Note_on_c, 3, 67, 109
1, 11460, Note_on_c, 4, 60, 118
1, 11460, Note_on_c, 4, 63, 120
1, 11460, Note_on_c, 4, 70, 98
1, 11460, Note_on_c, 5, 55, 109
1, 11460, Note_on_c, 7, 53, 95
1, 11460, Note_on_c, 7, 56, 119
1, 11460, Note_on_c, 7, 63, 109
1, 11460, Note_on_c, 8, 53, 95
1, 11460, Note_on_c, 8, 56, 119
1, 11460, Note_on_c, 8, 63, 109
1, 11460, Note_on_c, 9, 42, 120
1, 11460, Pitch_bend_c, 12, 1326
1, 11460, Note_on_c, 15, 60, 1
1, 11460, Note_on_c, 15, 70, 1
1, 11460, Note_on_c, 15, 63, 1
1, 11460, Lyric_t, "can "
1, 11461, Control_c, 12, 11, 62
1, 11461, Pitch_bend_c, 12, 1304
1, 11462, Pitch_bend_c, 12, 1281
1, 11463, Pitch_bend_c, 12, 1258
1, 11464, Pitch_bend_c, 12, 1236
1, 11465, Control_c, 12, 11, 61
1, 11465, Pitch_bend_c, 12, 1213
1, 11466, Pitch_bend_c, 12, 1190
1, 11467, Pitch_bend_c, 12, 1168
1, 11468, Pitch_bend_c, 12, 1145
1, 11469, Pitch_bend_c, 12, 1122
1, 11470, Control_c, 12, 11, 60
1, 11470, Pitch_bend_c, 12, 1100
1, 11471, Pitch_bend_c, 12, 1077
1, 11472, Pitch_bend_c, 12, 1054
1, 11473, Pitch_bend_c, 12, 1032
1, 11474, Note_on_c, 15, 63, 0
1, 11474, Note_on_c, 15, 70, 0
1, 11474, Note_on_c, 4, 70, 0
1, 11474, Note_on_c, 4, 63, 0
1, 11474, Control_c, 12, 11, 59
1, 11474, Pitch_bend_c, 12, 1009
1, 11475, Pitch_bend_c, 12, 986
1, 11476, Note_on_c, 4, 60, 0
1, 11476, Note_on_c, 15, 60, 0
1, 11476, Pitch_bend_c, 12, 964
1, 11477, Pitch_bend_c, 12, 941
1, 11478, Pitch_bend_c, 12, 918
1, 11479, Control_c, 12, 11, 58
1, 11479, Pitch_bend_c, 12, 896
1, 11480, Pitch_bend_c, 12, 873
1, 11481, Pitch_bend_c, 12, 850
1, 11482, Pitch_bend_c, 12, 828
1, 11483, Control_c, 12, 11, 57
1, 11483, Pitch_bend_c, 12, 805
1, 11484, Note_on_c, 3, 67, 0
1, 11484, Note_on_c, 5, 55, 0
1, 11484, Pitch_bend_c, 12, 782
1, 11485, Note_on_c, 9, 42, 0
1, 11485, Pitch_bend_c, 12, 760
1, 11486, Pitch_bend_c, 12, 737
1, 11487, Pitch_bend_c, 12, 714
1, 11488, Control_c, 12, 11, 56
1, 11488, Pitch_bend_c, 12, 692
1, 11489, Pitch_bend_c, 12, 669
1, 11490, Note_on_c, 3, 68, 120
1, 11490, Note_on_c, 4, 60, 119
1, 11490, Note_on_c, 4, 63, 120
1, 11490, Note_on_c, 4, 72, 100
1, 11490, Note_on_c, 5, 56, 120
1, 11490, Pitch_bend_c, 12, 646
1, 11490, Note_on_c, 15, 63, 1
1, 11490, Note_on_c, 15, 60, 1
1, 11490, Note_on_c, 15, 72, 1
1, 11490, Lyric_t, "make "
1, 11490, Lyric_t, "\015"
1, 11491, Pitch_bend_c, 12, 624
1, 11492, Control_c, 12, 11, 55
1, 11492, Pitch_bend_c, 12, 601
1, 11493, Pitch_bend_c, 12, 578
1, 11494, Pitch_bend_c, 12, 556
1, 11495, Pitch_bend_c, 12, 533
1, 11496, Pitch_bend_c, 12, 510
1, 11497, Control_c, 12, 11, 54
1, 11497, Pitch_bend_c, 12, 488
1, 11498, Pitch_bend_c, 12, 465
1, 11499, Pitch_bend_c, 12, 442
1, 11500, Pitch_bend_c, 12, 420
1, 11501, Control_c, 12, 11, 53
1, 11501, Pitch_bend_c, 12, 397
1, 11502, Pitch_bend_c, 12, 374
1, 11503, Pitch_bend_c, 12, 352
1, 11504, Pitch_bend_c, 12, 329
1, 11505, Pitch_bend_c, 12, 306
1, 11506, Control_c, 12, 11, 52
1, 11506, Pitch_bend_c, 12, 284
1, 11507, Pitch_bend_c, 12, 261
1, 11508, Pitch_bend_c, 12, 238
1, 11509, Pitch_bend_c, 12, 216
1, 11510, Control_c, 12, 11, 51
1, 11510, Pitch_bend_c, 12, 193
1, 11511, Pitch_bend_c, 12, 170
1, 11512, Pitch_bend_c, 12, 148
1, 11513, Pitch_bend_c, 12, 125
1, 11514, Pitch_bend_c, 12, 102
1, 11515, Control_c, 12, 11, 50
1, 11515, Pitch_bend_c, 12, 80
1, 11516, Pitch_bend_c, 12, 57
1, 11517, Pitch_bend_c, 12, 34
1, 11518, Pitch_bend_c, 12, 12
1, 11519, Note_on_c, 12, 96, 0
1, 11520, Note_on_c, 9, 36, 120
1, 11547, Note_on_c, 9, 36, 0
1, 11561, Note_on_c, 1, 29, 0
1, 11580, Note_on_c, 1, 41, 120
1, 11580, Note_on_c, 9, 42, 120
1, 11606, Note_on_c, 9, 42, 0
1, 11608, Note_on_c, 4, 72, 0
1, 11608, Note_on_c, 15, 72, 0
1, 11611, Note_on_c, 5, 56, 0
1, 11611, Note_on_c, 4, 60, 0
1, 11611, Note_on_c, 15, 60, 0
1, 11611, Note_on_c, 3, 68, 0
1, 11612, Note_on_c, 4, 63, 0
1, 11612, Note_on_c, 15, 63, 0
1, 11614, Note_on_c, 1, 41, 0
1, 11634, Note_on_c, 0, 60, 0
1, 11636, Note_on_c, 0, 63, 0
1, 11639, Note_on_c, 7, 63, 0
1, 11639, Note_on_c, 8, 63, 0
1, 11639, Note_on_c, 0, 68, 0
1, 11640, Note_on_c, 8, 53, 0
1, 11640, Note_on_c, 7, 53, 0
1, 11640, Note_on_c, 1, 41, 120
1, 11640, Note_on_c, 3, 67, 120
1, 11640, Note_on_c, 4, 60, 111
1, 11640, Note_on_c, 4, 63, 115
1, 11640, Note_on_c, 4, 72, 54
1, 11640, Note_on_c, 5, 55, 120
1, 11640, Note_on_c, 9, 38, 120
1, 11640, Note_on_c, 15, 72, 1
1, 11640, Note_on_c, 15, 60, 1
1, 11640, Note_on_c, 15, 63, 1
1, 11640, Lyric_t, "my "
1, 11641, Note_on_c, 7, 56, 0
1, 11641, Note_on_c, 8, 56, 0
1, 11671, Note_on_c, 9, 38, 0
1, 11672, Note_on_c, 1, 41, 0
1, 11700, Note_on_c, 0, 60, 98
1, 11700, Note_on_c, 0, 63, 60
1, 11700, Note_on_c, 0, 68, 53
1, 11700, Note_on_c, 9, 42, 120
1, 11701, Note_on_c, 0, 68, 0
1, 11701, Note_on_c, 0, 63, 0
1, 11701, Note_on_c, 0, 60, 0
1, 11730, Note_on_c, 0, 60, 101
1, 11730, Note_on_c, 0, 63, 62
1, 11730, Note_on_c, 0, 68, 70
1, 11731, Note_on_c, 0, 68, 0
1, 11731, Note_on_c, 0, 63, 0
1, 11731, Note_on_c, 0, 60, 0
1, 11733, Note_on_c, 9, 42, 0
1, 11735, Note_on_c, 4, 72, 0
1, 11735, Note_on_c, 4, 60, 0
1, 11735, Note_on_c, 15, 72, 0
1, 11735, Note_on_c, 15, 60, 0
1, 11739, Note_on_c, 15, 63, 0
1, 11739, Note_on_c, 4, 63, 0
1, 11750, Note_on_c, 5, 55, 0
1, 11750, Note_on_c, 3, 67, 0
1, 11759, Control_c, 11, 11, 127
1, 11760, Note_on_c, 0, 60, 118
1, 11760, Note_on_c, 0, 63, 92
1, 11760, Note_on_c, 0, 68, 92
1, 11760, Note_on_c, 1, 29, 120
1, 11760, Note_on_c, 3, 63, 120
1, 11760, Note_on_c, 4, 60, 113
1, 11760, Note_on_c, 4, 63, 115
1, 11760, Note_on_c, 4, 72, 94
1, 11760, Note_on_c, 5, 51, 120
1, 11760, Note_on_c, 7, 53, 101
1, 11760, Note_on_c, 7, 56, 120
1, 11760, Note_on_c, 7, 63, 98
1, 11760, Note_on_c, 8, 53, 101
1, 11760, Note_on_c, 8, 56, 120
1, 11760, Note_on_c, 8, 63, 98
1, 11760, Note_on_c, 9, 36, 120
1, 11760, Note_on_c, 15, 63, 1
1, 11760, Note_on_c, 15, 60, 1
1, 11760, Note_on_c, 15, 72, 1
1, 11760, Lyric_t, "wish "
1, 11787, Note_on_c, 9, 36, 0
1, 11795, Note_on_c, 1, 29, 0
1, 11798, Note_on_c, 0, 60, 0
1, 11801, Note_on_c, 0, 68, 0
1, 11802, Note_on_c, 0, 63, 0
1, 11816, Note_on_c, 8, 63, 0
1, 11816, Note_on_c, 8, 53, 0
1, 11816, Note_on_c, 7, 53, 0
1, 11816, Note_on_c, 7, 63, 0
1, 11817, Note_on_c, 8, 56, 0
1, 11817, Note_on_c, 7, 56, 0
1, 11820, Note_on_c, 0, 60, 97
1, 11820, Note_on_c, 0, 63, 62
1, 11820, Note_on_c, 0, 68, 62
1, 11820, Note_on_c, 9, 42, 120
1, 11821, Note_on_c, 0, 68, 0
1, 11821, Note_on_c, 0, 63, 0
1, 11821, Note_on_c, 0, 60, 0
1, 11849, Note_on_c, 9, 42, 0
1, 11851, Note_on_c, 4, 72, 0
1, 11851, Note_on_c, 15, 72, 0
1, 11853, Note_on_c, 4, 60, 0
1, 11853, Note_on_c, 15, 60, 0
1, 11855, Note_on_c, 4, 63, 0
1, 11855, Note_on_c, 15, 63, 0
1, 11867, Note_on_c, 3, 63, 0
1, 11867, Note_on_c, 5, 51, 0
1, 11879, Control_c, 12, 11, 127
1, 11880, Note_on_c, 0, 60, 116
1, 11880, Note_on_c, 0, 63, 92
1, 11880, Note_on_c, 0, 68, 111
1, 11880, Note_on_c, 1, 29, 116
1, 11880, Note_on_c, 3, 67, 119
1, 11880, Note_on_c, 4, 60, 105
1, 11880, Note_on_c, 4, 63, 115
1, 11880, Note_on_c, 4, 72, 90
1, 11880, Note_on_c, 5, 55, 119
1, 11880, Note_on_c, 7, 53, 113
1, 11880, Note_on_c, 7, 56, 120
1, 11880, Note_on_c, 7, 63, 115
1, 11880, Note_on_c, 8, 53, 113
1, 11880, Note_on_c, 8, 56, 120
1, 11880, Note_on_c, 8, 63, 115
1, 11880, Note_on_c, 9, 38, 120
1, 11880, Note_on_c, 15, 60, 1
1, 11880, Note_on_c, 15, 72, 1
1, 11880, Note_on_c, 15, 63, 1
1, 11880, Lyric_t, "come "
1, 11883, Note_on_c, 2, 60, 0
1, 11887, Note_on_c, 2, 63, 0
1, 11889, Note_on_c, 2, 68, 0
1, 11908, Note_on_c, 9, 38, 0
1, 11910, Note_on_c, 1, 29, 0
1, 11919, Note_on_c, 0, 60, 0
1, 11922, Note_on_c, 0, 63, 0
1, 11922, Note_on_c, 0, 68, 0
1, 11931, Note_on_c, 8, 53, 0
1, 11931, Note_on_c, 7, 53, 0
1, 11932, Note_on_c, 8, 56, 0
1, 11932, Note_on_c, 7, 56, 0
1, 11935, Note_on_c, 7, 63, 0
1, 11935, Note_on_c, 8, 63, 0
1, 11940, Note_on_c, 9, 42, 120
1, 11949, Note_on_c, 15, 60, 0
1, 11949, Note_on_c, 4, 60, 0
1, 11955, Note_on_c, 15, 63, 0
1, 11955, Note_on_c, 15, 72, 0
1, 11955, Note_on_c, 4, 63, 0
1, 11955, Note_on_c, 4, 72, 0
1, 11967, Note_on_c, 9, 42, 0
1, 11983, Note_on_c, 3, 67, 0
1, 11983, Note_on_c, 5, 55, 0
1, 12000, Note_on_c, 0, 62, 116
1, 12000, Note_on_c, 0, 65, 94
1, 12000, Note_on_c, 0, 70, 92
1, 12000, Note_on_c, 1, 31, 120
1, 12000, Note_on_c, 2, 62, 101
1, 12000, Note_on_c, 2, 65, 109
1, 12000, Note_on_c, 2, 70, 89
1, 12000, Note_on_c, 3, 65, 119
1, 12000, Note_on_c, 4, 62, 107
1, 12000, Note_on_c, 4, 65, 101
1, 12000, Note_on_c, 4, 70, 109
1, 12000, Note_on_c, 5, 53, 119
1, 12000, Note_on_c, 7, 55, 120
1, 12000, Note_on_c, 7, 58, 120
1, 12000, Note_on_c, 7, 65, 90
1, 12000, Note_on_c, 8, 55, 120
1, 12000, Note_on_c, 8, 58, 120
1, 12000, Note_on_c, 8, 65, 90
1, 12000, Note_on_c, 9, 36, 120
1, 12000, Note_on_c, 15, 65, 1
1, 12000, Note_on_c, 15, 62, 1
1, 12000, Note_on_c, 15, 70, 1
1, 12000, Lyric_t, "true "
1, 12000, Lyric_t, "\015"
1, 12028, Note_on_c, 9, 36, 0
1, 12046, Note_on_c, 1, 31, 0
1, 12060, Note_on_c, 1, 43, 119
1, 12060, Note_on_c, 9, 42, 120
1, 12087, Note_on_c, 9, 42, 0
1, 12098, Note_on_c, 3, 65, 0
1, 12098, Note_on_c, 5, 53, 0
1, 12102, Note_on_c, 0, 65, 0
1, 12111, Note_on_c, 0, 62, 0
1, 12111, Note_on_c, 1, 43, 0
1, 12112, Note_on_c, 15, 70, 0
1, 12112, Note_on_c, 4, 70, 0
1, 12115, Note_on_c, 4, 65, 0
1, 12115, Note_on_c, 15, 65, 0
1, 12115, Note_on_c, 0, 70, 0
1, 12117, Note_on_c, 15, 62, 0
1, 12117, Note_on_c, 4, 62, 0
1, 12120, Note_on_c, 8, 55, 0
1, 12120, Note_on_c, 7, 55, 0
1, 12120, Note_on_c, 9, 38, 120
1, 12122, Note_on_c, 8, 58, 0
1, 12122, Note_on_c, 7, 58, 0
1, 12125, Note_on_c, 8, 65, 0
1, 12125, Note_on_c, 7, 65, 0
1, 12147, Note_on_c, 9, 38, 0
1, 12167, Note_on_c, 10, 70, 89
1, 12180, Note_on_c, 0, 62, 100
1, 12180, Note_on_c, 0, 65, 71
1, 12180, Note_on_c, 0, 70, 48
1, 12180, Note_on_c, 9, 42, 120
1, 12180, Note_on_c, 10, 72, 118
1, 12181, Note_on_c, 0, 70, 0
1, 12181, Note_on_c, 0, 65, 0
1, 12181, Note_on_c, 0, 62, 0
1, 12185, Note_on_c, 10, 70, 0
1, 12203, Note_on_c, 10, 72, 0
1, 12210, Note_on_c, 0, 62, 98
1, 12210, Note_on_c, 0, 65, 78
1, 12210, Note_on_c, 0, 70, 71
1, 12211, Note_on_c, 0, 70, 0
1, 12211, Note_on_c, 0, 62, 0
1, 12211, Note_on_c, 0, 65, 0
1, 12212, Note_on_c, 9, 42, 0
1, 12240, Note_on_c, 0, 62, 113
1, 12240, Note_on_c, 0, 65, 83
1, 12240, Note_on_c, 0, 70, 92
1, 12240, Note_on_c, 1, 31, 119
1, 12240, Note_on_c, 7, 55, 116
1, 12240, Note_on_c, 7, 58, 120
1, 12240, Note_on_c, 7, 65, 101
1, 12240, Note_on_c, 8, 55, 116
1, 12240, Note_on_c, 8, 58, 120
1, 12240, Note_on_c, 8, 65, 101
1, 12240, Note_on_c, 9, 36, 120
1, 12240, Note_on_c, 10, 70, 120
1, 12267, Note_on_c, 9, 36, 0
1, 12269, Note_on_c, 1, 31, 0
1, 12272, Note_on_c, 8, 55, 0
1, 12272, Note_on_c, 7, 55, 0
1, 12272, Note_on_c, 7, 58, 0
1, 12272, Note_on_c, 8, 58, 0
1, 12273, Note_on_c, 7, 65, 0
1, 12273, Note_on_c, 8, 65, 0
1, 12282, Note_on_c, 0, 62, 0
1, 12284, Note_on_c, 0, 70, 0
1, 12291, Note_on_c, 0, 65, 0
1, 12300, Note_on_c, 0, 62, 94
1, 12300, Note_on_c, 0, 65, 59
1, 12300, Note_on_c, 0, 70, 57
1, 12300, Note_on_c, 9, 42, 120
1, 12301, Note_on_c, 0, 70, 0
1, 12301, Note_on_c, 0, 65, 0
1, 12301, Note_on_c, 0, 62, 0
1, 12326, Note_on_c, 9, 42, 0
1, 12330, Note_on_c, 2, 65, 0
1, 12330, Note_on_c, 0, 62, 111
1, 12330, Note_on_c, 0, 65, 87
1, 12330, Note_on_c, 0, 70, 92
1, 12330, Note_on_c, 1, 34, 120
1, 12330, Note_on_c, 7, 55, 120
1, 12330, Note_on_c, 7, 58, 120
1, 12330, Note_on_c, 7, 65, 105
1, 12330, Note_on_c, 8, 55, 120
1, 12330, Note_on_c, 8, 58, 120
1, 12330, Note_on_c, 8, 65, 105
1, 12330, Note_on_c, 10, 72, 118
1, 12332, Note_on_c, 2, 62, 0
1, 12334, Note_on_c, 10, 70, 0
1, 12339, Note_on_c, 2, 70, 0
1, 12353, Note_on_c, 7, 55, 0
1, 12353, Note_on_c, 8, 55, 0
1, 12353, Note_on_c, 10, 72, 0
1, 12354, Note_on_c, 7, 58, 0
1, 12354, Note_on_c, 8, 58, 0
1, 12360, Note_on_c, 8, 65, 0
1, 12360, Note_on_c, 7, 65, 0
1, 12360, Note_on_c, 3, 63, 120
1, 12360, Note_on_c, 4, 67, 113
1, 12360, Note_on_c, 5, 51, 120
1, 12360, Note_on_c, 9, 38, 120
1, 12360, Note_on_c, 15, 67, 1
1, 12360, Lyric_t, "If "
1, 12361, Note_on_c, 1, 34, 0
1, 12366, Note_on_c, 0, 62, 0
1, 12368, Note_on_c, 0, 70, 0
1, 12371, Note_on_c, 0, 65, 0
1, 12385, Note_on_c, 9, 38, 0
1, 12388, Note_on_c, 4, 67, 0
1, 12388, Note_on_c, 15, 67, 0
1, 12390, Note_on_c, 0, 62, 78
1, 12390, Note_on_c, 0, 65, 72
1, 12390, Note_on_c, 0, 70, 70
1, 12391, Note_on_c, 0, 70, 0
1, 12391, Note_on_c, 0, 62, 0
1, 12391, Note_on_c, 0, 65, 0
1, 12403, Note_on_c, 5, 51, 0
1, 12403, Note_on_c, 3, 63, 0
1, 12420, Note_on_c, 0, 63, 87
1, 12420, Note_on_c, 0, 67, 105
1, 12420, Note_on_c, 0, 72, 113
1, 12420, Note_on_c, 1, 36, 120
1, 12420, Note_on_c, 2, 63, 81
1, 12420, Note_on_c, 2, 67, 116
1, 12420, Note_on_c, 2, 72, 105
1, 12420, Note_on_c, 3, 60, 118
1, 12420, Note_on_c, 4, 63, 92
1, 12420, Note_on_c, 5, 48, 118
1, 12420, Note_on_c, 7, 60, 116
1, 12420, Note_on_c, 7, 63, 104
1, 12420, Note_on_c, 7, 67, 116
1, 12420, Note_on_c, 8, 60, 116
1, 12420, Note_on_c, 8, 63, 104
1, 12420, Note_on_c, 8, 67, 116
1, 12420, Note_on_c, 9, 42, 120
1, 12420, Note_on_c, 15, 63, 1
1, 12420, Lyric_t, "you "
1, 12447, Note_on_c, 9, 42, 0
1, 12449, Note_on_c, 15, 63, 0
1, 12449, Note_on_c, 4, 63, 0
1, 12455, Note_on_c, 5, 48, 0
1, 12455, Note_on_c, 3, 60, 0
1, 12480, Note_on_c, 3, 68, 115
1, 12480, Note_on_c, 4, 63, 74
1, 12480, Note_on_c, 4, 67, 111
1, 12480, Note_on_c, 4, 72, 105
1, 12480, Note_on_c, 5, 56, 115
1, 12480, Note_on_c, 9, 36, 120
1, 12480, Note_on_c, 15, 63, 1
1, 12480, Note_on_c, 15, 72, 1
1, 12480, Note_on_c, 15, 67, 1
1, 12480, Lyric_t, "let "
1, 12506, Note_on_c, 9, 36, 0
1, 12537, Note_on_c, 1, 36, 0
1, 12540, Note_on_c, 1, 48, 120
1, 12540, Note_on_c, 9, 42, 120
1, 12558, Note_on_c, 15, 63, 0
1, 12558, Note_on_c, 4, 63, 0
1, 12559, Note_on_c, 4, 72, 0
1, 12559, Note_on_c, 4, 67, 0
1, 12559, Note_on_c, 15, 72, 0
1, 12559, Note_on_c, 15, 67, 0
1, 12567, Note_on_c, 9, 42, 0
1, 12573, Note_on_c, 5, 56, 0
1, 12573, Note_on_c, 3, 68, 0
1, 12576, Note_on_c, 1, 48, 0
1, 12592, Note_on_c, 8, 67, 0
1, 12592, Note_on_c, 7, 67, 0
1, 12593, Note_on_c, 7, 60, 0
1, 12593, Note_on_c, 8, 60, 0
1, 12594, Note_on_c, 8, 63, 0
1, 12594, Note_on_c, 7, 63, 0
1, 12599, Note_on_c, 0, 72, 0
1, 12599, Note_on_c, 0, 67, 0
1, 12600, Note_on_c, 0, 63, 92
1, 12600, Note_on_c, 0, 67, 61
1, 12600, Note_on_c, 0, 72, 105
1, 12600, Note_on_c, 3, 67, 116
1, 12600, Note_on_c, 4, 63, 74
1, 12600, Note_on_c, 4, 67, 113
1, 12600, Note_on_c, 4, 72, 98
1, 12600, Note_on_c, 5, 55, 116
1, 12600, Note_on_c, 9, 38, 120
1, 12600, Note_on_c, 15, 67, 1
1, 12600, Note_on_c, 15, 63, 1
1, 12600, Note_on_c, 15, 72, 1
1, 12600, Lyric_t, "me "
1, 12601, Note_on_c, 0, 72, 0
1, 12601, Note_on_c, 0, 63, 0
1, 12601, Note_on_c, 0, 67, 0
1, 12601, Note_on_c, 0, 63, 0
1, 12624, Note_on_c, 9, 38, 0
1, 12660, Note_on_c, 1, 34, 98
1, 12660, Note_on_c, 9, 42, 120
1, 12672, Note_on_c, 4, 67, 0
1, 12672, Note_on_c, 15, 67, 0
1, 12676, Note_on_c, 15, 72, 0
1, 12676, Note_on_c, 4, 72, 0
1, 12678, Note_on_c, 4, 63, 0
1, 12678, Note_on_c, 15, 63, 0
1, 12688, Note_on_c, 9, 42, 0
1, 12689, Note_on_c, 1, 34, 0
1, 12690, Note_on_c, 1, 36, 111
1, 12692, Note_on_c, 5, 55, 0
1, 12692, Note_on_c, 2, 67, 0
1, 12692, Note_on_c, 3, 67, 0
1, 12695, Note_on_c, 2, 72, 0
1, 12699, Note_on_c, 2, 63, 0
1, 12719, Note_on_c, 1, 36, 0
1, 12720, Note_on_c, 0, 63, 94
1, 12720, Note_on_c, 0, 67, 100
1, 12720, Note_on_c, 0, 72, 94
1, 12720, Note_on_c, 1, 39, 94
1, 12720, Note_on_c, 2, 63, 81
1, 12720, Note_on_c, 2, 67, 119
1, 12720, Note_on_c, 2, 72, 91
1, 12720, Note_on_c, 3, 65, 116
1, 12720, Note_on_c, 4, 62, 101
1, 12720, Note_on_c, 4, 65, 97
1, 12720, Note_on_c, 4, 70, 92
1, 12720, Note_on_c, 5, 53, 116
1, 12720, Note_on_c, 7, 60, 107
1, 12720, Note_on_c, 7, 63, 119
1, 12720, Note_on_c, 7, 67, 103
1, 12720, Note_on_c, 8, 60, 107
1, 12720, Note_on_c, 8, 63, 119
1, 12720, Note_on_c, 8, 67, 103
1, 12720, Note_on_c, 9, 36, 120
1, 12720, Note_on_c, 15, 70, 1
1, 12720, Note_on_c, 15, 62, 1
1, 12720, Note_on_c, 15, 65, 1
1, 12720, Lyric_t, "trea"
1, 12746, Note_on_c, 9, 36, 0
1, 12749, Note_on_c, 1, 39, 0
1, 12750, Note_on_c, 1, 36, 118
1, 12753, Note_on_c, 0, 72, 0
1, 12753, Note_on_c, 0, 67, 0
1, 12757, Note_on_c, 0, 63, 0
1, 12768, Note_on_c, 2, 72, 0
1, 12771, Note_on_c, 8, 67, 0
1, 12771, Note_on_c, 7, 67, 0
1, 12772, Note_on_c, 8, 60, 0
1, 12772, Note_on_c, 7, 60, 0
1, 12776, Note_on_c, 8, 63, 0
1, 12776, Note_on_c, 2, 67, 0
1, 12776, Note_on_c, 7, 63, 0
1, 12778, Note_on_c, 2, 63, 0
1, 12780, Note_on_c, 9, 42, 120
1, 12786, Note_on_c, 1, 36, 0
1, 12790, Note_on_c, 4, 62, 0
1, 12790, Note_on_c, 15, 62, 0
1, 12795, Note_on_c, 4, 65, 0
1, 12795, Note_on_c, 15, 65, 0
1, 12797, Note_on_c, 4, 70, 0
1, 12797, Note_on_c, 15, 70, 0
1, 12803, Note_on_c, 9, 42, 0
1, 12813, Note_on_c, 5, 53, 0
1, 12813, Note_on_c, 3, 65, 0
1, 12840, Note_on_c, 0, 62, 119
1, 12840, Note_on_c, 0, 65, 105
1, 12840, Note_on_c, 0, 70, 92
1, 12840, Note_on_c, 1, 34, 109
1, 12840, Note_on_c, 2, 62, 98
1, 12840, Note_on_c, 2, 65, 116
1, 12840, Note_on_c, 2, 70, 91
1, 12840, Note_on_c, 3, 67, 120
1, 12840, Note_on_c, 4, 62, 109
1, 12840, Note_on_c, 4, 65, 91
1, 12840, Note_on_c, 4, 70, 109
1, 12840, Note_on_c, 5, 55, 120
1, 12840, Note_on_c, 7, 58, 98
1, 12840, Note_on_c, 7, 62, 120
1, 12840, Note_on_c, 7, 65, 107
1, 12840, Note_on_c, 8, 58, 98
1, 12840, Note_on_c, 8, 62, 120
1, 12840, Note_on_c, 8, 65, 107
1, 12840, Note_on_c, 9, 38, 120
1, 12840, Note_on_c, 15, 65, 1
1, 12840, Note_on_c, 15, 62, 1
1, 12840, Note_on_c, 15, 70, 1
1, 12840, Lyric_t, "sure "
1, 12868, Note_on_c, 9, 38, 0
1, 12868, Note_on_c, 0, 62, 0
1, 12873, Note_on_c, 0, 70, 0
1, 12874, Note_on_c, 0, 65, 0
1, 12891, Note_on_c, 4, 62, 0
1, 12891, Note_on_c, 15, 62, 0
1, 12895, Note_on_c, 8, 62, 0
1, 12895, Note_on_c, 7, 62, 0
1, 12898, Note_on_c, 8, 58, 0
1, 12898, Note_on_c, 7, 58, 0
1, 12899, Note_on_c, 15, 65, 0
1, 12899, Note_on_c, 4, 65, 0
1, 12900, Note_on_c, 4, 70, 0
1, 12900, Note_on_c, 15, 70, 0
1, 12900, Note_on_c, 9, 42, 120
1, 12901, Note_on_c, 8, 65, 0
1, 12901, Note_on_c, 7, 65, 0
1, 12909, Note_on_c, 2, 65, 0
1, 12910, Note_on_c, 2, 62, 0
1, 12912, Note_on_c, 2, 70, 0
1, 12916, Note_on_c, 3, 67, 0
1, 12916, Note_on_c, 5, 55, 0
1, 12920, Note_on_c, 9, 42, 0
1, 12930, Note_on_c, 3, 60, 120
1, 12930, Note_on_c, 4, 60, 87
1, 12930, Note_on_c, 4, 63, 109
1, 12930, Note_on_c, 4, 70, 106
1, 12930, Note_on_c, 5, 48, 120
1, 12930, Note_on_c, 15, 60, 1
1, 12930, Note_on_c, 15, 63, 1
1, 12930, Note_on_c, 15, 70, 1
1, 12930, Lyric_t, "you "
1, 12930, Lyric_t, "\015"
1, 12943, Note_on_c, 1, 34, 0
1, 12960, Note_on_c, 15, 60, 0
1, 12960, Note_on_c, 4, 60, 0
1, 12960, Note_on_c, 0, 63, 98
1, 12960, Note_on_c, 0, 67, 118
1, 12960, Note_on_c, 0, 72, 105
1, 12960, Note_on_c, 1, 32, 120
1, 12960, Note_on_c, 2, 63, 81
1, 12960, Note_on_c, 2, 67, 116
1, 12960, Note_on_c, 2, 72, 107
1, 12960, Note_on_c, 7, 56, 92
1, 12960, Note_on_c, 7, 60, 120
1, 12960, Note_on_c, 7, 67, 113
1, 12960, Note_on_c, 8, 56, 92
1, 12960, Note_on_c, 8, 60, 120
1, 12960, Note_on_c, 8, 67, 113
1, 12960, Note_on_c, 9, 36, 120
1, 12960, Note_on_c, 11, 96, 120
1, 12960, Pitch_bend_c, 11, 8125
1, 12961, Note_on_c, 15, 70, 0
1, 12961, Note_on_c, 4, 70, 0
1, 12961, Pitch_bend_c, 11, 8102
1, 12962, Note_on_c, 4, 63, 0
1, 12962, Note_on_c, 15, 63, 0
1, 12962, Pitch_bend_c, 11, 8079
1, 12963, Pitch_bend_c, 11, 8057
1, 12964, Pitch_bend_c, 11, 8034
1, 12965, Pitch_bend_c, 11, 8011
1, 12966, Pitch_bend_c, 11, 7989
1, 12967, Pitch_bend_c, 11, 7966
1, 12968, Control_c, 11, 11, 126
1, 12968, Pitch_bend_c, 11, 7943
1, 12969, Pitch_bend_c, 11, 7921
1, 12970, Pitch_bend_c, 11, 7898
1, 12971, Pitch_bend_c, 11, 7875
1, 12972, Pitch_bend_c, 11, 7853
1, 12973, Control_c, 11, 11, 125
1, 12973, Pitch_bend_c, 11, 7830
1, 12974, Note_on_c, 3, 60, 0
1, 12974, Note_on_c, 5, 48, 0
1, 12974, Pitch_bend_c, 11, 7807
1, 12975, Pitch_bend_c, 11, 7785
1, 12976, Pitch_bend_c, 11, 7762
1, 12977, Control_c, 11, 11, 124
1, 12977, Pitch_bend_c, 11, 7739
1, 12978, Pitch_bend_c, 11, 7717
1, 12979, Pitch_bend_c, 11, 7694
1, 12980, Pitch_bend_c, 11, 7671
1, 12981, Pitch_bend_c, 11, 7649
1, 12982, Control_c, 11, 11, 123
1, 12982, Pitch_bend_c, 11, 7626
1, 12983, Pitch_bend_c, 11, 7603
1, 12984, Pitch_bend_c, 11, 7581
1, 12985, Pitch_bend_c, 11, 7558
1, 12986, Control_c, 11, 11, 122
1, 12986, Pitch_bend_c, 11, 7535
1, 12987, Pitch_bend_c, 11, 7513
1, 12988, Pitch_bend_c, 11, 7490
1, 12989, Pitch_bend_c, 11, 7467
1, 12990, Pitch_bend_c, 11, 7445
1, 12991, Control_c, 11, 11, 121
1, 12991, Pitch_bend_c, 11, 7422
1, 12992, Pitch_bend_c, 11, 7399
1, 12993, Note_on_c, 9, 36, 0
1, 12993, Pitch_bend_c, 11, 7377
1, 12994, Pitch_bend_c, 11, 7354
1, 12995, Control_c, 11, 11, 120
1, 12995, Pitch_bend_c, 11, 7331
1, 12996, Pitch_bend_c, 11, 7309
1, 12997, Pitch_bend_c, 11, 7286
1, 12998, Pitch_bend_c, 11, 7263
1, 12999, Pitch_bend_c, 11, 7241
1, 13000, Control_c, 11, 11, 119
1, 13000, Pitch_bend_c, 11, 7218
1, 13001, Pitch_bend_c, 11, 7195
1, 13002, Pitch_bend_c, 11, 7173
1, 13003, Pitch_bend_c, 11, 7150
1, 13004, Control_c, 11, 11, 118
1, 13004, Pitch_bend_c, 11, 7127
1, 13005, Pitch_bend_c, 11, 7105
1, 13006, Pitch_bend_c, 11, 7082
1, 13007, Pitch_bend_c, 11, 7059
1, 13008, Pitch_bend_c, 11, 7037
1, 13009, Control_c, 11, 11, 117
1, 13009, Pitch_bend_c, 11, 7014
1, 13010, Pitch_bend_c, 11, 6991
1, 13011, Pitch_bend_c, 11, 6969
1, 13012, Pitch_bend_c, 11, 6946
1, 13013, Control_c, 11, 11, 116
1, 13013, Pitch_bend_c, 11, 6923
1, 13014, Pitch_bend_c, 11, 6901
1, 13015, Pitch_bend_c, 11, 6878
1, 13016, Pitch_bend_c, 11, 6855
1, 13017, Pitch_bend_c, 11, 6833
1, 13018, Control_c, 11, 11, 115
1, 13018, Pitch_bend_c, 11, 6810
1, 13019, Note_on_c, 1, 32, 0
1, 13019, Pitch_bend_c, 11, 6788
1, 13020, Note_on_c, 1, 44, 120
1, 13020, Note_on_c, 9, 42, 120
1, 13020, Pitch_bend_c, 11, 6765
1, 13021, Pitch_bend_c, 11, 6742
1, 13022, Control_c, 11, 11, 114
1, 13022, Pitch_bend_c, 11, 6720
1, 13023, Pitch_bend_c, 11, 6697
1, 13024, Pitch_bend_c, 11, 6674
1, 13025, Pitch_bend_c, 11, 6652
1, 13026, Pitch_bend_c, 11, 6629
1, 13027, Control_c, 11, 11, 113
1, 13027, Pitch_bend_c, 11, 6606
1, 13028, Pitch_bend_c, 11, 6584
1, 13029, Pitch_bend_c, 11, 6561
1, 13030, Pitch_bend_c, 11, 6538
1, 13031, Control_c, 11, 11, 112
1, 13031, Pitch_bend_c, 11, 6516
1, 13032, Pitch_bend_c, 11, 6493
1, 13033, Pitch_bend_c, 11, 6470
1, 13034, Pitch_bend_c, 11, 6448
1, 13035, Pitch_bend_c, 11, 6425
1, 13036, Control_c, 11, 11, 111
1, 13036, Pitch_bend_c, 11, 6402
1, 13037, Pitch_bend_c, 11, 6380
1, 13038, Pitch_bend_c, 11, 6357
1, 13039, Pitch_bend_c, 11, 6334
1, 13040, Control_c, 11, 11, 110
1, 13040, Pitch_bend_c, 11, 6312
1, 13041, Pitch_bend_c, 11, 6289
1, 13042, Pitch_bend_c, 11, 6266
1, 13043, Pitch_bend_c, 11, 6244
1, 13044, Pitch_bend_c, 11, 6221
1, 13045, Control_c, 11, 11, 109
1, 13045, Pitch_bend_c, 11, 6198
1, 13046, Pitch_bend_c, 11, 6176
1, 13047, Pitch_bend_c, 11, 6153
1, 13048, Pitch_bend_c, 11, 6130
1, 13049, Control_c, 11, 11, 108
1, 13049, Pitch_bend_c, 11, 6108
1, 13050, Pitch_bend_c, 11, 6085
1, 13051, Note_on_c, 9, 42, 0
1, 13051, Pitch_bend_c, 11, 6062
1, 13052, Pitch_bend_c, 11, 6040
1, 13053, Pitch_bend_c, 11, 6017
1, 13054, Control_c, 11, 11, 107
1, 13054, Pitch_bend_c, 11, 5994
1, 13055, Note_on_c, 1, 44, 0
1, 13055, Pitch_bend_c, 11, 5972
1, 13056, Pitch_bend_c, 11, 5949
1, 13057, Pitch_bend_c, 11, 5926
1, 13058, Control_c, 11, 11, 106
1, 13058, Pitch_bend_c, 11, 5904
1, 13059, Pitch_bend_c, 11, 5881
1, 13060, Pitch_bend_c, 11, 5858
1, 13061, Pitch_bend_c, 11, 5836
1, 13062, Pitch_bend_c, 11, 5813
1, 13063, Control_c, 11, 11, 105
1, 13063, Pitch_bend_c, 11, 5790
1, 13064, Pitch_bend_c, 11, 5768
1, 13065, Pitch_bend_c, 11, 5745
1, 13066, Pitch_bend_c, 11, 5722
1, 13067, Control_c, 11, 11, 104
1, 13067, Pitch_bend_c, 11, 5700
1, 13068, Pitch_bend_c, 11, 5677
1, 13069, Pitch_bend_c, 11, 5654
1, 13070, Note_on_c, 0, 67, 0
1, 13070, Pitch_bend_c, 11, 5632
1, 13071, Pitch_bend_c, 11, 5609
1, 13072, Control_c, 11, 11, 103
1, 13072, Pitch_bend_c, 11, 5586
1, 13073, Pitch_bend_c, 11, 5564
1, 13074, Note_on_c, 7, 67, 0
1, 13074, Note_on_c, 8, 67, 0
1, 13074, Pitch_bend_c, 11, 5541
1, 13075, Note_on_c, 7, 56, 0
1, 13075, Note_on_c, 8, 56, 0
1, 13075, Pitch_bend_c, 11, 5518
1, 13076, Note_on_c, 7, 60, 0
1, 13076, Note_on_c, 0, 63, 0
1, 13076, Note_on_c, 8, 60, 0
1, 13076, Control_c, 11, 11, 102
1, 13076, Pitch_bend_c, 11, 5496
1, 13077, Pitch_bend_c, 11, 5473
1, 13078, Note_on_c, 0, 72, 0
1, 13078, Pitch_bend_c, 11, 5451
1, 13079, Pitch_bend_c, 11, 5428
1, 13080, Note_on_c, 9, 38, 120
1, 13080, Pitch_bend_c, 11, 5405
1, 13080, Note_on_c, 12, 96, 120
1, 13080, Pitch_bend_c, 12, 8125
1, 13081, Control_c, 11, 11, 101
1, 13081, Pitch_bend_c, 11, 5383
1, 13081, Pitch_bend_c, 12, 8102
1, 13082, Pitch_bend_c, 11, 5360
1, 13082, Pitch_bend_c, 12, 8079
1, 13083, Pitch_bend_c, 11, 5337
1, 13083, Pitch_bend_c, 12, 8057
1, 13084, Pitch_bend_c, 11, 5315
1, 13084, Pitch_bend_c, 12, 8034
1, 13085, Control_c, 11, 11, 100
1, 13085, Pitch_bend_c, 11, 5292
1, 13085, Pitch_bend_c, 12, 8011
1, 13086, Pitch_bend_c, 11, 5269
1, 13086, Pitch_bend_c, 12, 7989
1, 13087, Pitch_bend_c, 11, 5247
1, 13087, Pitch_bend_c, 12, 7966
1, 13088, Pitch_bend_c, 11, 5224
1, 13088, Control_c, 12, 11, 126
1, 13088, Pitch_bend_c, 12, 7943
1, 13089, Pitch_bend_c, 11, 5201
1, 13089, Pitch_bend_c, 12, 7921
1, 13090, Control_c, 11, 11, 99
1, 13090, Pitch_bend_c, 11, 5179
1, 13090, Pitch_bend_c, 12, 7898
1, 13091, Pitch_bend_c, 11, 5156
1, 13091, Pitch_bend_c, 12, 7875
1, 13092, Pitch_bend_c, 11, 5133
1, 13092, Pitch_bend_c, 12, 7853
1, 13093, Pitch_bend_c, 11, 5111
1, 13093, Control_c, 12, 11, 125
1, 13093, Pitch_bend_c, 12, 7830
1, 13094, Control_c, 11, 11, 98
1, 13094, Pitch_bend_c, 11, 5088
1, 13094, Pitch_bend_c, 12, 7807
1, 13095, Pitch_bend_c, 11, 5065
1, 13095, Pitch_bend_c, 12, 7785
1, 13096, Pitch_bend_c, 11, 5043
1, 13096, Pitch_bend_c, 12, 7762
1, 13097, Pitch_bend_c, 11, 5020
1, 13097, Control_c, 12, 11, 124
1, 13097, Pitch_bend_c, 12, 7739
1, 13098, Pitch_bend_c, 11, 4997
1, 13098, Pitch_bend_c, 12, 7717
1, 13099, Control_c, 11, 11, 97
1, 13099, Pitch_bend_c, 11, 4975
1, 13099, Pitch_bend_c, 12, 7694
1, 13100, Pitch_bend_c, 11, 4952
1, 13100, Pitch_bend_c, 12, 7671
1, 13101, Pitch_bend_c, 11, 4929
1, 13101, Pitch_bend_c, 12, 7649
1, 13102, Pitch_bend_c, 11, 4907
1, 13102, Control_c, 12, 11, 123
1, 13102, Pitch_bend_c, 12, 7626
1, 13103, Control_c, 11, 11, 96
1, 13103, Pitch_bend_c, 11, 4884
1, 13103, Pitch_bend_c, 12, 7603
1, 13104, Pitch_bend_c, 11, 4861
1, 13104, Pitch_bend_c, 12, 7581
1, 13105, Pitch_bend_c, 11, 4839
1, 13105, Pitch_bend_c, 12, 7558
1, 13106, Pitch_bend_c, 11, 4816
1, 13106, Control_c, 12, 11, 122
1, 13106, Pitch_bend_c, 12, 7535
1, 13107, Pitch_bend_c, 11, 4793
1, 13107, Pitch_bend_c, 12, 7513
1, 13108, Control_c, 11, 11, 95
1, 13108, Pitch_bend_c, 11, 4771
1, 13108, Pitch_bend_c, 12, 7490
1, 13109, Pitch_bend_c, 11, 4748
1, 13109, Pitch_bend_c, 12, 7467
1, 13110, Note_on_c, 0, 63, 73
1, 13110, Note_on_c, 0, 67, 82
1, 13110, Note_on_c, 0, 72, 83
1, 13110, Pitch_bend_c, 11, 4725
1, 13110, Pitch_bend_c, 12, 7445
1, 13111, Note_on_c, 0, 72, 0
1, 13111, Note_on_c, 0, 67, 0
1, 13111, Note_on_c, 0, 63, 0
1, 13111, Pitch_bend_c, 11, 4703
1, 13111, Control_c, 12, 11, 121
1, 13111, Pitch_bend_c, 12, 7422
1, 13112, Control_c, 11, 11, 94
1, 13112, Pitch_bend_c, 11, 4680
1, 13112, Pitch_bend_c, 12, 7399
1, 13113, Note_on_c, 9, 38, 0
1, 13113, Pitch_bend_c, 11, 4657
1, 13113, Pitch_bend_c, 12, 7377
1, 13114, Pitch_bend_c, 11, 4635
1, 13114, Pitch_bend_c, 12, 7354
1, 13115, Pitch_bend_c, 11, 4612
1, 13115, Control_c, 12, 11, 120
1, 13115, Pitch_bend_c, 12, 7331
1, 13116, Pitch_bend_c, 11, 4589
1, 13116, Pitch_bend_c, 12, 7309
1, 13117, Control_c, 11, 11, 93
1, 13117, Pitch_bend_c, 11, 4567
1, 13117, Pitch_bend_c, 12, 7286
1, 13118, Pitch_bend_c, 11, 4544
1, 13118, Pitch_bend_c, 12, 7263
1, 13119, Pitch_bend_c, 11, 4521
1, 13119, Pitch_bend_c, 12, 7241
1, 13120, Pitch_bend_c, 11, 4499
1, 13120, Control_c, 12, 11, 119
1, 13120, Pitch_bend_c, 12, 7218
1, 13121, Control_c, 11, 11, 92
1, 13121, Pitch_bend_c, 11, 4476
1, 13121, Pitch_bend_c, 12, 7195
1, 13122, Pitch_bend_c, 11, 4453
1, 13122, Pitch_bend_c, 12, 7173
1, 13123, Pitch_bend_c, 11, 4431
1, 13123, Pitch_bend_c, 12, 7150
1, 13124, Pitch_bend_c, 11, 4408
1, 13124, Control_c, 12, 11, 118
1, 13124, Pitch_bend_c, 12, 7127
1, 13125, Pitch_bend_c, 11, 4385
1, 13125, Pitch_bend_c, 12, 7105
1, 13126, Control_c, 11, 11, 91
1, 13126, Pitch_bend_c, 11, 4363
1, 13126, Pitch_bend_c, 12, 7082
1, 13127, Note_on_c, 10, 70, 89
1, 13127, Pitch_bend_c, 11, 4340
1, 13127, Pitch_bend_c, 12, 7059
1, 13128, Pitch_bend_c, 11, 4317
1, 13128, Pitch_bend_c, 12, 7037
1, 13129, Pitch_bend_c, 11, 4295
1, 13129, Control_c, 12, 11, 117
1, 13129, Pitch_bend_c, 12, 7014
1, 13130, Control_c, 11, 11, 90
1, 13130, Pitch_bend_c, 11, 4272
1, 13130, Pitch_bend_c, 12, 6991
1, 13131, Pitch_bend_c, 11, 4249
1, 13131, Pitch_bend_c, 12, 6969
1, 13132, Pitch_bend_c, 11, 4227
1, 13132, Pitch_bend_c, 12, 6946
1, 13133, Pitch_bend_c, 11, 4204
1, 13133, Control_c, 12, 11, 116
1, 13133, Pitch_bend_c, 12, 6923
1, 13134, Pitch_bend_c, 11, 4181
1, 13134, Pitch_bend_c, 12, 6901
1, 13135, Control_c, 11, 11, 89
1, 13135, Pitch_bend_c, 11, 4159
1, 13135, Pitch_bend_c, 12, 6878
1, 13136, Pitch_bend_c, 11, 4136
1, 13136, Pitch_bend_c, 12, 6855
1, 13137, Pitch_bend_c, 11, 4113
1, 13137, Pitch_bend_c, 12, 6833
1, 13138, Pitch_bend_c, 11, 4091
1, 13138, Control_c, 12, 11, 115
1, 13138, Pitch_bend_c, 12, 6810
1, 13139, Control_c, 11, 11, 88
1, 13139, Pitch_bend_c, 11, 4068
1, 13139, Pitch_bend_c, 12, 6788
1, 13140, Note_on_c, 0, 63, 80
1, 13140, Note_on_c, 0, 67, 91
1, 13140, Note_on_c, 0, 72, 98
1, 13140, Note_on_c, 9, 42, 120
1, 13140, Note_on_c, 10, 72, 118
1, 13140, Pitch_bend_c, 11, 4046
1, 13140, Pitch_bend_c, 12, 6765
1, 13141, Note_on_c, 0, 72, 0
1, 13141, Note_on_c, 0, 67, 0
1, 13141, Note_on_c, 0, 63, 0
1, 13141, Pitch_bend_c, 11, 4023
1, 13141, Pitch_bend_c, 12, 6742
1, 13142, Pitch_bend_c, 11, 4000
1, 13142, Control_c, 12, 11, 114
1, 13142, Pitch_bend_c, 12, 6720
1, 13143, Pitch_bend_c, 11, 3978
1, 13143, Pitch_bend_c, 12, 6697
1, 13144, Control_c, 11, 11, 87
1, 13144, Pitch_bend_c, 11, 3955
1, 13144, Pitch_bend_c, 12, 6674
1, 13145, Note_on_c, 10, 70, 0
1, 13145, Pitch_bend_c, 11, 3932
1, 13145, Pitch_bend_c, 12, 6652
1, 13146, Pitch_bend_c, 11, 3910
1, 13146, Pitch_bend_c, 12, 6629
1, 13147, Pitch_bend_c, 11, 3887
1, 13147, Control_c, 12, 11, 113
1, 13147, Pitch_bend_c, 12, 6606
1, 13148, Control_c, 11, 11, 86
1, 13148, Pitch_bend_c, 11, 3864
1, 13148, Pitch_bend_c, 12, 6584
1, 13149, Pitch_bend_c, 11, 3842
1, 13149, Pitch_bend_c, 12, 6561
1, 13150, Pitch_bend_c, 11, 3819
1, 13150, Pitch_bend_c, 12, 6538
1, 13151, Pitch_bend_c, 11, 3796
1, 13151, Control_c, 12, 11, 112
1, 13151, Pitch_bend_c, 12, 6516
1, 13152, Pitch_bend_c, 11, 3774
1, 13152, Pitch_bend_c, 12, 6493
1, 13153, Pitch_bend_c, 11, 3751
1, 13153, Pitch_bend_c, 12, 6470
1, 13154, Pitch_bend_c, 11, 3728
1, 13154, Pitch_bend_c, 12, 6448
1, 13155, Pitch_bend_c, 11, 3706
1, 13155, Pitch_bend_c, 12, 6425
1, 13156, Pitch_bend_c, 11, 3683
1, 13156, Control_c, 12, 11, 111
1, 13156, Pitch_bend_c, 12, 6402
1, 13157, Control_c, 11, 11, 85
1, 13157, Pitch_bend_c, 11, 3660
1, 13157, Pitch_bend_c, 12, 6380
1, 13158, Pitch_bend_c, 11, 3638
1, 13158, Pitch_bend_c, 12, 6357
1, 13159, Pitch_bend_c, 11, 3615
1, 13159, Pitch_bend_c, 12, 6334
1, 13160, Pitch_bend_c, 11, 3592
1, 13160, Control_c, 12, 11, 110
1, 13160, Pitch_bend_c, 12, 6312
1, 13161, Pitch_bend_c, 11, 3570
1, 13161, Pitch_bend_c, 12, 6289
1, 13162, Control_c, 11, 11, 84
1, 13162, Pitch_bend_c, 11, 3547
1, 13162, Pitch_bend_c, 12, 6266
1, 13163, Note_on_c, 10, 72, 0
1, 13163, Pitch_bend_c, 11, 3524
1, 13163, Pitch_bend_c, 12, 6244
1, 13164, Pitch_bend_c, 11, 3502
1, 13164, Pitch_bend_c, 12, 6221
1, 13165, Pitch_bend_c, 11, 3479
1, 13165, Control_c, 12, 11, 109
1, 13165, Pitch_bend_c, 12, 6198
1, 13166, Note_on_c, 9, 42, 0
1, 13166, Control_c, 11, 11, 83
1, 13166, Pitch_bend_c, 11, 3456
1, 13166, Pitch_bend_c, 12, 6176
1, 13167, Pitch_bend_c, 11, 3434
1, 13167, Pitch_bend_c, 12, 6153
1, 13168, Pitch_bend_c, 11, 3411
1, 13168, Pitch_bend_c, 12, 6130
1, 13169, Pitch_bend_c, 11, 3388
1, 13169, Control_c, 12, 11, 108
1, 13169, Pitch_bend_c, 12, 6108
1, 13170, Note_on_c, 0, 63, 77
1, 13170, Note_on_c, 0, 67, 90
1, 13170, Note_on_c, 0, 72, 98
1, 13170, Pitch_bend_c, 11, 3366
1, 13170, Pitch_bend_c, 12, 6085
1, 13171, Note_on_c, 0, 72, 0
1, 13171, Note_on_c, 0, 67, 0
1, 13171, Note_on_c, 0, 63, 0
1, 13171, Control_c, 11, 11, 82
1, 13171, Pitch_bend_c, 11, 3343
1, 13171, Pitch_bend_c, 12, 6062
1, 13172, Pitch_bend_c, 11, 3320
1, 13172, Pitch_bend_c, 12, 6040
1, 13173, Pitch_bend_c, 11, 3298
1, 13173, Pitch_bend_c, 12, 6017
1, 13174, Pitch_bend_c, 11, 3275
1, 13174, Control_c, 12, 11, 107
1, 13174, Pitch_bend_c, 12, 5994
1, 13175, Control_c, 11, 11, 81
1, 13175, Pitch_bend_c, 11, 3252
1, 13175, Pitch_bend_c, 12, 5972
1, 13176, Pitch_bend_c, 11, 3230
1, 13176, Pitch_bend_c, 12, 5949
1, 13177, Pitch_bend_c, 11, 3207
1, 13177, Pitch_bend_c, 12, 5926
1, 13178, Pitch_bend_c, 11, 3184
1, 13178, Control_c, 12, 11, 106
1, 13178, Pitch_bend_c, 12, 5904
1, 13179, Pitch_bend_c, 11, 3162
1, 13179, Pitch_bend_c, 12, 5881
1, 13180, Control_c, 11, 11, 80
1, 13180, Pitch_bend_c, 11, 3139
1, 13180, Pitch_bend_c, 12, 5858
1, 13181, Pitch_bend_c, 11, 3116
1, 13181, Pitch_bend_c, 12, 5836
1, 13182, Pitch_bend_c, 11, 3094
1, 13182, Pitch_bend_c, 12, 5813
1, 13183, Pitch_bend_c, 11, 3071
1, 13183, Control_c, 12, 11, 105
1, 13183, Pitch_bend_c, 12, 5790
1, 13184, Control_c, 11, 11, 79
1, 13184, Pitch_bend_c, 11, 3048
1, 13184, Pitch_bend_c, 12, 5768
1, 13185, Pitch_bend_c, 11, 3026
1, 13185, Pitch_bend_c, 12, 5745
1, 13186, Pitch_bend_c, 11, 3003
1, 13186, Pitch_bend_c, 12, 5722
1, 13187, Pitch_bend_c, 11, 2980
1, 13187, Control_c, 12, 11, 104
1, 13187, Pitch_bend_c, 12, 5700
1, 13188, Pitch_bend_c, 11, 2958
1, 13188, Pitch_bend_c, 12, 5677
1, 13189, Control_c, 11, 11, 78
1, 13189, Pitch_bend_c, 11, 2935
1, 13189, Pitch_bend_c, 12, 5654
1, 13190, Pitch_bend_c, 11, 2912
1, 13190, Pitch_bend_c, 12, 5632
1, 13191, Pitch_bend_c, 11, 2890
1, 13191, Pitch_bend_c, 12, 5609
1, 13192, Pitch_bend_c, 11, 2867
1, 13192, Control_c, 12, 11, 103
1, 13192, Pitch_bend_c, 12, 5586
1, 13193, Control_c, 11, 11, 77
1, 13193, Pitch_bend_c, 11, 2844
1, 13193, Pitch_bend_c, 12, 5564
1, 13194, Pitch_bend_c, 11, 2822
1, 13194, Pitch_bend_c, 12, 5541
1, 13195, Pitch_bend_c, 11, 2799
1, 13195, Pitch_bend_c, 12, 5518
1, 13196, Pitch_bend_c, 11, 2776
1, 13196, Control_c, 12, 11, 102
1, 13196, Pitch_bend_c, 12, 5496
1, 13197, Pitch_bend_c, 11, 2754
1, 13197, Pitch_bend_c, 12, 5473
1, 13198, Control_c, 11, 11, 76
1, 13198, Pitch_bend_c, 11, 2731
1, 13198, Pitch_bend_c, 12, 5451
1, 13199, Pitch_bend_c, 11, 2709
1, 13199, Pitch_bend_c, 12, 5428
1, 13200, Note_on_c, 0, 63, 91
1, 13200, Note_on_c, 0, 67, 119
1, 13200, Note_on_c, 0, 72, 96
1, 13200, Note_on_c, 1, 32, 120
1, 13200, Note_on_c, 7, 56, 111
1, 13200, Note_on_c, 7, 60, 119
1, 13200, Note_on_c, 7, 67, 116
1, 13200, Note_on_c, 8, 56, 111
1, 13200, Note_on_c, 8, 60, 119
1, 13200, Note_on_c, 8, 67, 116
1, 13200, Note_on_c, 9, 36, 120
1, 13200, Note_on_c, 10, 70, 120
1, 13200, Pitch_bend_c, 11, 2686
1, 13200, Pitch_bend_c, 12, 5405
1, 13201, Pitch_bend_c, 11, 2663
1, 13201, Control_c, 12, 11, 101
1, 13201, Pitch_bend_c, 12, 5383
1, 13202, Control_c, 11, 11, 75
1, 13202, Pitch_bend_c, 11, 2641
1, 13202, Pitch_bend_c, 12, 5360
1, 13203, Pitch_bend_c, 11, 2618
1, 13203, Pitch_bend_c, 12, 5337
1, 13204, Pitch_bend_c, 11, 2595
1, 13204, Pitch_bend_c, 12, 5315
1, 13205, Pitch_bend_c, 11, 2573
1, 13205, Control_c, 12, 11, 100
1, 13205, Pitch_bend_c, 12, 5292
1, 13206, Pitch_bend_c, 11, 2550
1, 13206, Pitch_bend_c, 12, 5269
1, 13207, Control_c, 11, 11, 74
1, 13207, Pitch_bend_c, 11, 2527
1, 13207, Pitch_bend_c, 12, 5247
1, 13208, Pitch_bend_c, 11, 2505
1, 13208, Pitch_bend_c, 12, 5224
1, 13209, Pitch_bend_c, 11, 2482
1, 13209, Pitch_bend_c, 12, 5201
1, 13210, Pitch_bend_c, 11, 2459
1, 13210, Control_c, 12, 11, 99
1, 13210, Pitch_bend_c, 12, 5179
1, 13211, Control_c, 11, 11, 73
1, 13211, Pitch_bend_c, 11, 2437
1, 13211, Pitch_bend_c, 12, 5156
1, 13212, Pitch_bend_c, 11, 2414
1, 13212, Pitch_bend_c, 12, 5133
1, 13213, Pitch_bend_c, 11, 2391
1, 13213, Pitch_bend_c, 12, 5111
1, 13214, Pitch_bend_c, 11, 2369
1, 13214, Control_c, 12, 11, 98
1, 13214, Pitch_bend_c, 12, 5088
1, 13215, Pitch_bend_c, 11, 2346
1, 13215, Pitch_bend_c, 12, 5065
1, 13216, Control_c, 11, 11, 72
1, 13216, Pitch_bend_c, 11, 2323
1, 13216, Pitch_bend_c, 12, 5043
1, 13217, Pitch_bend_c, 11, 2301
1, 13217, Pitch_bend_c, 12, 5020
1, 13218, Pitch_bend_c, 11, 2278
1, 13218, Pitch_bend_c, 12, 4997
1, 13219, Pitch_bend_c, 11, 2255
1, 13219, Control_c, 12, 11, 97
1, 13219, Pitch_bend_c, 12, 4975
1, 13220, Control_c, 11, 11, 71
1, 13220, Pitch_bend_c, 11, 2233
1, 13220, Pitch_bend_c, 12, 4952
1, 13221, Pitch_bend_c, 11, 2210
1, 13221, Pitch_bend_c, 12, 4929
1, 13222, Pitch_bend_c, 11, 2187
1, 13222, Pitch_bend_c, 12, 4907
1, 13223, Pitch_bend_c, 11, 2165
1, 13223, Control_c, 12, 11, 96
1, 13223, Pitch_bend_c, 12, 4884
1, 13224, Pitch_bend_c, 11, 2142
1, 13224, Pitch_bend_c, 12, 4861
1, 13225, Control_c, 11, 11, 70
1, 13225, Pitch_bend_c, 11, 2119
1, 13225, Pitch_bend_c, 12, 4839
1, 13226, Pitch_bend_c, 11, 2097
1, 13226, Pitch_bend_c, 12, 4816
1, 13227, Pitch_bend_c, 11, 2074
1, 13227, Pitch_bend_c, 12, 4793
1, 13228, Pitch_bend_c, 11, 2051
1, 13228, Control_c, 12, 11, 95
1, 13228, Pitch_bend_c, 12, 4771
1, 13229, Note_on_c, 0, 72, 0
1, 13229, Control_c, 11, 11, 69
1, 13229, Pitch_bend_c, 11, 2029
1, 13229, Pitch_bend_c, 12, 4748
1, 13230, Pitch_bend_c, 11, 2006
1, 13230, Pitch_bend_c, 12, 4725
1, 13231, Note_on_c, 1, 32, 0
1, 13231, Note_on_c, 0, 67, 0
1, 13231, Pitch_bend_c, 11, 1983
1, 13231, Pitch_bend_c, 12, 4703
1, 13232, Note_on_c, 9, 36, 0
1, 13232, Pitch_bend_c, 11, 1961
1, 13232, Control_c, 12, 11, 94
1, 13232, Pitch_bend_c, 12, 4680
1, 13233, Note_on_c, 7, 67, 0
1, 13233, Note_on_c, 7, 60, 0
1, 13233, Note_on_c, 8, 67, 0
1, 13233, Note_on_c, 8, 60, 0
1, 13233, Pitch_bend_c, 11, 1938
1, 13233, Pitch_bend_c, 12, 4657
1, 13234, Note_on_c, 0, 63, 0
1, 13234, Control_c, 11, 11, 68
1, 13234, Pitch_bend_c, 11, 1915
1, 13234, Pitch_bend_c, 12, 4635
1, 13235, Pitch_bend_c, 11, 1893
1, 13235, Pitch_bend_c, 12, 4612
1, 13236, Pitch_bend_c, 11, 1870
1, 13236, Pitch_bend_c, 12, 4589
1, 13237, Pitch_bend_c, 11, 1847
1, 13237, Control_c, 12, 11, 93
1, 13237, Pitch_bend_c, 12, 4567
1, 13238, Control_c, 11, 11, 67
1, 13238, Pitch_bend_c, 11, 1825
1, 13238, Pitch_bend_c, 12, 4544
1, 13239, Pitch_bend_c, 11, 1802
1, 13239, Pitch_bend_c, 12, 4521
1, 13240, Note_on_c, 8, 56, 0
1, 13240, Note_on_c, 7, 56, 0
1, 13240, Pitch_bend_c, 11, 1779
1, 13240, Pitch_bend_c, 12, 4499
1, 13241, Pitch_bend_c, 11, 1757
1, 13241, Control_c, 12, 11, 92
1, 13241, Pitch_bend_c, 12, 4476
1, 13242, Pitch_bend_c, 11, 1734
1, 13242, Pitch_bend_c, 12, 4453
1, 13243, Control_c, 11, 11, 66
1, 13243, Pitch_bend_c, 11, 1711
1, 13243, Pitch_bend_c, 12, 4431
1, 13244, Pitch_bend_c, 11, 1689
1, 13244, Pitch_bend_c, 12, 4408
1, 13245, Pitch_bend_c, 11, 1666
1, 13245, Pitch_bend_c, 12, 4385
1, 13246, Pitch_bend_c, 11, 1643
1, 13246, Control_c, 12, 11, 91
1, 13246, Pitch_bend_c, 12, 4363
1, 13247, Control_c, 11, 11, 65
1, 13247, Pitch_bend_c, 11, 1621
1, 13247, Pitch_bend_c, 12, 4340
1, 13248, Pitch_bend_c, 11, 1598
1, 13248, Pitch_bend_c, 12, 4317
1, 13249, Pitch_bend_c, 11, 1575
1, 13249, Pitch_bend_c, 12, 4295
1, 13250, Pitch_bend_c, 11, 1553
1, 13250, Control_c, 12, 11, 90
1, 13250, Pitch_bend_c, 12, 4272
1, 13251, Pitch_bend_c, 11, 1530
1, 13251, Pitch_bend_c, 12, 4249
1, 13252, Control_c, 11, 11, 64
1, 13252, Pitch_bend_c, 11, 1507
1, 13252, Pitch_bend_c, 12, 4227
1, 13253, Pitch_bend_c, 11, 1485
1, 13253, Pitch_bend_c, 12, 4204
1, 13254, Pitch_bend_c, 11, 1462
1, 13254, Pitch_bend_c, 12, 4181
1, 13255, Pitch_bend_c, 11, 1439
1, 13255, Control_c, 12, 11, 89
1, 13255, Pitch_bend_c, 12, 4159
1, 13256, Control_c, 11, 11, 63
1, 13256, Pitch_bend_c, 11, 1417
1, 13256, Pitch_bend_c, 12, 4136
1, 13257, Pitch_bend_c, 11, 1394
1, 13257, Pitch_bend_c, 12, 4113
1, 13258, Pitch_bend_c, 11, 1371
1, 13258, Pitch_bend_c, 12, 4091
1, 13259, Pitch_bend_c, 11, 1349
1, 13259, Control_c, 12, 11, 88
1, 13259, Pitch_bend_c, 12, 4068
1, 13260, Note_on_c, 0, 63, 80
1, 13260, Note_on_c, 0, 67, 111
1, 13260, Note_on_c, 0, 72, 82
1, 13260, Note_on_c, 9, 42, 120
1, 13260, Pitch_bend_c, 11, 1326
1, 13260, Pitch_bend_c, 12, 4046
1, 13261, Note_on_c, 0, 72, 0
1, 13261, Note_on_c, 0, 67, 0
1, 13261, Note_on_c, 0, 63, 0
1, 13261, Control_c, 11, 11, 62
1, 13261, Pitch_bend_c, 11, 1304
1, 13261, Pitch_bend_c, 12, 4023
1, 13262, Pitch_bend_c, 11, 1281
1, 13262, Pitch_bend_c, 12, 4000
1, 13263, Pitch_bend_c, 11, 1258
1, 13263, Pitch_bend_c, 12, 3978
1, 13264, Pitch_bend_c, 11, 1236
1, 13264, Control_c, 12, 11, 87
1, 13264, Pitch_bend_c, 12, 3955
1, 13265, Control_c, 11, 11, 61
1, 13265, Pitch_bend_c, 11, 1213
1, 13265, Pitch_bend_c, 12, 3932
1, 13266, Pitch_bend_c, 11, 1190
1, 13266, Pitch_bend_c, 12, 3910
1, 13267, Pitch_bend_c, 11, 1168
1, 13267, Pitch_bend_c, 12, 3887
1, 13268, Pitch_bend_c, 11, 1145
1, 13268, Control_c, 12, 11, 86
1, 13268, Pitch_bend_c, 12, 3864
1, 13269, Pitch_bend_c, 11, 1122
1, 13269, Pitch_bend_c, 12, 3842
1, 13270, Control_c, 11, 11, 60
1, 13270, Pitch_bend_c, 11, 1100
1, 13270, Pitch_bend_c, 12, 3819
1, 13271, Pitch_bend_c, 11, 1077
1, 13271, Pitch_bend_c, 12, 3796
1, 13272, Pitch_bend_c, 11, 1054
1, 13272, Pitch_bend_c, 12, 3774
1, 13273, Pitch_bend_c, 11, 1032
1, 13273, Pitch_bend_c, 12, 3751
1, 13274, Control_c, 11, 11, 59
1, 13274, Pitch_bend_c, 11, 1009
1, 13274, Pitch_bend_c, 12, 3728
1, 13275, Pitch_bend_c, 11, 986
1, 13275, Pitch_bend_c, 12, 3706
1, 13276, Pitch_bend_c, 11, 964
1, 13276, Pitch_bend_c, 12, 3683
1, 13277, Pitch_bend_c, 11, 941
1, 13277, Control_c, 12, 11, 85
1, 13277, Pitch_bend_c, 12, 3660
1, 13278, Pitch_bend_c, 11, 918
1, 13278, Pitch_bend_c, 12, 3638
1, 13279, Control_c, 11, 11, 58
1, 13279, Pitch_bend_c, 11, 896
1, 13279, Pitch_bend_c, 12, 3615
1, 13280, Pitch_bend_c, 11, 873
1, 13280, Pitch_bend_c, 12, 3592
1, 13281, Pitch_bend_c, 11, 850
1, 13281, Pitch_bend_c, 12, 3570
1, 13282, Pitch_bend_c, 11, 828
1, 13282, Control_c, 12, 11, 84
1, 13282, Pitch_bend_c, 12, 3547
1, 13283, Control_c, 11, 11, 57
1, 13283, Pitch_bend_c, 11, 805
1, 13283, Pitch_bend_c, 12, 3524
1, 13284, Pitch_bend_c, 11, 782
1, 13284, Pitch_bend_c, 12, 3502
1, 13285, Note_on_c, 9, 42, 0
1, 13285, Pitch_bend_c, 11, 760
1, 13285, Pitch_bend_c, 12, 3479
1, 13286, Pitch_bend_c, 11, 737
1, 13286, Control_c, 12, 11, 83
1, 13286, Pitch_bend_c, 12, 3456
1, 13287, Pitch_bend_c, 11, 714
1, 13287, Pitch_bend_c, 12, 3434
1, 13288, Control_c, 11, 11, 56
1, 13288, Pitch_bend_c, 11, 692
1, 13288, Pitch_bend_c, 12, 3411
1, 13289, Pitch_bend_c, 11, 669
1, 13289, Pitch_bend_c, 12, 3388
1, 13290, Note_on_c, 0, 62, 119
1, 13290, Note_on_c, 0, 65, 89
1, 13290, Note_on_c, 0, 70, 91
1, 13290, Note_on_c, 1, 31, 116
1, 13290, Note_on_c, 7, 55, 118
1, 13290, Note_on_c, 7, 58, 120
1, 13290, Note_on_c, 7, 65, 98
1, 13290, Note_on_c, 8, 55, 118
1, 13290, Note_on_c, 8, 58, 120
1, 13290, Note_on_c, 8, 65, 98
1, 13290, Note_on_c, 10, 72, 118
1, 13290, Pitch_bend_c, 11, 646
1, 13290, Pitch_bend_c, 12, 3366
1, 13291, Pitch_bend_c, 11, 624
1, 13291, Control_c, 12, 11, 82
1, 13291, Pitch_bend_c, 12, 3343
1, 13292, Control_c, 11, 11, 55
1, 13292, Pitch_bend_c, 11, 601
1, 13292, Pitch_bend_c, 12, 3320
1, 13293, Pitch_bend_c, 11, 578
1, 13293, Pitch_bend_c, 12, 3298
1, 13294, Note_on_c, 10, 70, 0
1, 13294, Pitch_bend_c, 11, 556
1, 13294, Pitch_bend_c, 12, 3275
1, 13295, Pitch_bend_c, 11, 533
1, 13295, Control_c, 12, 11, 81
1, 13295, Pitch_bend_c, 12, 3252
1, 13296, Pitch_bend_c, 11, 510
1, 13296, Pitch_bend_c, 12, 3230
1, 13297, Control_c, 11, 11, 54
1, 13297, Pitch_bend_c, 11, 488
1, 13297, Pitch_bend_c, 12, 3207
1, 13298, Pitch_bend_c, 11, 465
1, 13298, Pitch_bend_c, 12, 3184
1, 13299, Pitch_bend_c, 11, 442
1, 13299, Pitch_bend_c, 12, 3162
1, 13300, Pitch_bend_c, 11, 420
1, 13300, Control_c, 12, 11, 80
1, 13300, Pitch_bend_c, 12, 3139
1, 13301, Control_c, 11, 11, 53
1, 13301, Pitch_bend_c, 11, 397
1, 13301, Pitch_bend_c, 12, 3116
1, 13302, Pitch_bend_c, 11, 374
1, 13302, Pitch_bend_c, 12, 3094
1, 13303, Pitch_bend_c, 11, 352
1, 13303, Pitch_bend_c, 12, 3071
1, 13304, Pitch_bend_c, 11, 329
1, 13304, Control_c, 12, 11, 79
1, 13304, Pitch_bend_c, 12, 3048
1, 13305, Pitch_bend_c, 11, 306
1, 13305, Pitch_bend_c, 12, 3026
1, 13306, Control_c, 11, 11, 52
1, 13306, Pitch_bend_c, 11, 284
1, 13306, Pitch_bend_c, 12, 3003
1, 13307, Pitch_bend_c, 11, 261
1, 13307, Pitch_bend_c, 12, 2980
1, 13308, Pitch_bend_c, 11, 238
1, 13308, Pitch_bend_c, 12, 2958
1, 13309, Pitch_bend_c, 11, 216
1, 13309, Control_c, 12, 11, 78
1, 13309, Pitch_bend_c, 12, 2935
1, 13310, Note_on_c, 2, 72, 0
1, 13310, Control_c, 11, 11, 51
1, 13310, Pitch_bend_c, 11, 193
1, 13310, Pitch_bend_c, 12, 2912
1, 13311, Pitch_bend_c, 11, 170
1, 13311, Pitch_bend_c, 12, 2890
1, 13312, Note_on_c, 1, 31, 0
1, 13312, Pitch_bend_c, 11, 148
1, 13312, Pitch_bend_c, 12, 2867
1, 13313, Note_on_c, 10, 72, 0
1, 13313, Pitch_bend_c, 11, 125
1, 13313, Control_c, 12, 11, 77
1, 13313, Pitch_bend_c, 12, 2844
1, 13314, Note_on_c, 2, 67, 0
1, 13314, Pitch_bend_c, 11, 102
1, 13314, Pitch_bend_c, 12, 2822
1, 13315, Control_c, 11, 11, 50
1, 13315, Pitch_bend_c, 11, 80
1, 13315, Pitch_bend_c, 12, 2799
1, 13316, Note_on_c, 0, 70, 0
1, 13316, Note_on_c, 7, 55, 0
1, 13316, Note_on_c, 8, 55, 0
1, 13316, Pitch_bend_c, 11, 57
1, 13316, Pitch_bend_c, 12, 2776
1, 13317, Pitch_bend_c, 11, 34
1, 13317, Pitch_bend_c, 12, 2754
1, 13318, Note_on_c, 0, 65, 0
1, 13318, Pitch_bend_c, 11, 12
1, 13318, Control_c, 12, 11, 76
1, 13318, Pitch_bend_c, 12, 2731
1, 13319, Note_on_c, 0, 62, 0
1, 13319, Note_on_c, 2, 63, 0
1, 13319, Note_on_c, 11, 96, 0
1, 13319, Pitch_bend_c, 12, 2709
1, 13320, Note_on_c, 3, 63, 115
1, 13320, Note_on_c, 4, 58, 91
1, 13320, Note_on_c, 4, 67, 103
1, 13320, Note_on_c, 5, 51, 115
1, 13320, Note_on_c, 9, 38, 120
1, 13320, Pitch_bend_c, 12, 2686
1, 13320, Note_on_c, 15, 58, 1
1, 13320, Note_on_c, 15, 67, 1
1, 13320, Lyric_t, "If "
1, 13321, Pitch_bend_c, 12, 2663
1, 13322, Note_on_c, 8, 65, 0
1, 13322, Note_on_c, 7, 65, 0
1, 13322, Control_c, 12, 11, 75
1, 13322, Pitch_bend_c, 12, 2641
1, 13323, Note_on_c, 8, 58, 0
1, 13323, Note_on_c, 7, 58, 0
1, 13323, Pitch_bend_c, 12, 2618
1, 13324, Pitch_bend_c, 12, 2595
1, 13325, Pitch_bend_c, 12, 2573
1, 13326, Pitch_bend_c, 12, 2550
1, 13327, Control_c, 12, 11, 74
1, 13327, Pitch_bend_c, 12, 2527
1, 13328, Pitch_bend_c, 12, 2505
1, 13329, Pitch_bend_c, 12, 2482
1, 13330, Pitch_bend_c, 12, 2459
1, 13331, Control_c, 12, 11, 73
1, 13331, Pitch_bend_c, 12, 2437
1, 13332, Pitch_bend_c, 12, 2414
1, 13333, Pitch_bend_c, 12, 2391
1, 13334, Pitch_bend_c, 12, 2369
1, 13335, Pitch_bend_c, 12, 2346
1, 13336, Control_c, 12, 11, 72
1, 13336, Pitch_bend_c, 12, 2323
1, 13337, Pitch_bend_c, 12, 2301
1, 13338, Pitch_bend_c, 12, 2278
1, 13339, Pitch_bend_c, 12, 2255
1, 13340, Control_c, 12, 11, 71
1, 13340, Pitch_bend_c, 12, 2233
1, 13341, Pitch_bend_c, 12, 2210
1, 13342, Pitch_bend_c, 12, 2187
1, 13343, Pitch_bend_c, 12, 2165
1, 13344, Pitch_bend_c, 12, 2142
1, 13345, Control_c, 12, 11, 70
1, 13345, Pitch_bend_c, 12, 2119
1, 13346, Note_on_c, 9, 38, 0
1, 13346, Pitch_bend_c, 12, 2097
1, 13347, Pitch_bend_c, 12, 2074
1, 13348, Pitch_bend_c, 12, 2051
1, 13349, Note_on_c, 4, 67, 0
1, 13349, Note_on_c, 15, 67, 0
1, 13349, Control_c, 12, 11, 69
1, 13349, Pitch_bend_c, 12, 2029
1, 13350, Note_on_c, 0, 62, 109
1, 13350, Note_on_c, 0, 65, 77
1, 13350, Note_on_c, 0, 70, 60
1, 13350, Pitch_bend_c, 12, 2006
1, 13351, Note_on_c, 0, 70, 0
1, 13351, Note_on_c, 0, 65, 0
1, 13351, Note_on_c, 15, 58, 0
1, 13351, Note_on_c, 4, 58, 0
1, 13351, Note_on_c, 0, 62, 0
1, 13351, Pitch_bend_c, 12, 1983
1, 13352, Pitch_bend_c, 12, 1961
1, 13353, Pitch_bend_c, 12, 1938
1, 13354, Control_c, 12, 11, 68
1, 13354, Pitch_bend_c, 12, 1915
1, 13355, Pitch_bend_c, 12, 1893
1, 13356, Pitch_bend_c, 12, 1870
1, 13357, Pitch_bend_c, 12, 1847
1, 13358, Control_c, 12, 11, 67
1, 13358, Pitch_bend_c, 12, 1825
1, 13359, Pitch_bend_c, 12, 1802
1, 13360, Pitch_bend_c, 12, 1779
1, 13361, Note_on_c, 3, 63, 0
1, 13361, Note_on_c, 5, 51, 0
1, 13361, Pitch_bend_c, 12, 1757
1, 13362, Pitch_bend_c, 12, 1734
1, 13363, Control_c, 12, 11, 66
1, 13363, Pitch_bend_c, 12, 1711
1, 13364, Pitch_bend_c, 12, 1689
1, 13365, Pitch_bend_c, 12, 1666
1, 13366, Pitch_bend_c, 12, 1643
1, 13367, Control_c, 12, 11, 65
1, 13367, Pitch_bend_c, 12, 1621
1, 13368, Pitch_bend_c, 12, 1598
1, 13369, Pitch_bend_c, 12, 1575
1, 13370, Pitch_bend_c, 12, 1553
1, 13371, Pitch_bend_c, 12, 1530
1, 13372, Control_c, 12, 11, 64
1, 13372, Pitch_bend_c, 12, 1507
1, 13373, Pitch_bend_c, 12, 1485
1, 13374, Pitch_bend_c, 12, 1462
1, 13375, Pitch_bend_c, 12, 1439
1, 13376, Control_c, 12, 11, 63
1, 13376, Pitch_bend_c, 12, 1417
1, 13377, Pitch_bend_c, 12, 1394
1, 13378, Pitch_bend_c, 12, 1371
1, 13379, Pitch_bend_c, 12, 1349
1, 13380, Note_on_c, 0, 60, 119
1, 13380, Note_on_c, 0, 63, 91
1, 13380, Note_on_c, 0, 68, 91
1, 13380, Note_on_c, 1, 29, 120
1, 13380, Note_on_c, 2, 60, 105
1, 13380, Note_on_c, 2, 63, 98
1, 13380, Note_on_c, 2, 68, 92
1, 13380, Note_on_c, 3, 60, 116
1, 13380, Note_on_c, 4, 55, 101
1, 13380, Note_on_c, 4, 63, 102
1, 13380, Note_on_c, 5, 48, 116
1, 13380, Note_on_c, 7, 53, 95
1, 13380, Note_on_c, 7, 56, 119
1, 13380, Note_on_c, 7, 63, 109
1, 13380, Note_on_c, 8, 53, 95
1, 13380, Note_on_c, 8, 56, 119
1, 13380, Note_on_c, 8, 63, 109
1, 13380, Note_on_c, 9, 42, 120
1, 13380, Pitch_bend_c, 12, 1326
1, 13380, Note_on_c, 15, 55, 1
1, 13380, Note_on_c, 15, 63, 1
1, 13380, Lyric_t, "you "
1, 13381, Control_c, 12, 11, 62
1, 13381, Pitch_bend_c, 12, 1304
1, 13382, Pitch_bend_c, 12, 1281
1, 13383, Pitch_bend_c, 12, 1258
1, 13384, Pitch_bend_c, 12, 1236
1, 13385, Control_c, 12, 11, 61
1, 13385, Pitch_bend_c, 12, 1213
1, 13386, Pitch_bend_c, 12, 1190
1, 13387, Pitch_bend_c, 12, 1168
1, 13388, Pitch_bend_c, 12, 1145
1, 13389, Pitch_bend_c, 12, 1122
1, 13390, Control_c, 12, 11, 60
1, 13390, Pitch_bend_c, 12, 1100
1, 13391, Pitch_bend_c, 12, 1077
1, 13392, Pitch_bend_c, 12, 1054
1, 13393, Pitch_bend_c, 12, 1032
1, 13394, Control_c, 12, 11, 59
1, 13394, Pitch_bend_c, 12, 1009
1, 13395, Pitch_bend_c, 12, 986
1, 13396, Pitch_bend_c, 12, 964
1, 13397, Pitch_bend_c, 12, 941
1, 13398, Pitch_bend_c, 12, 918
1, 13399, Control_c, 12, 11, 58
1, 13399, Pitch_bend_c, 12, 896
1, 13400, Pitch_bend_c, 12, 873
1, 13401, Pitch_bend_c, 12, 850
1, 13402, Pitch_bend_c, 12, 828
1, 13403, Control_c, 12, 11, 57
1, 13403, Pitch_bend_c, 12, 805
1, 13404, Pitch_bend_c, 12, 782
1, 13405, Note_on_c, 9, 42, 0
1, 13405, Pitch_bend_c, 12, 760
1, 13406, Pitch_bend_c, 12, 737
1, 13407, Note_on_c, 15, 63, 0
1, 13407, Note_on_c, 4, 63, 0
1, 13407, Pitch_bend_c, 12, 714
1, 13408, Control_c, 12, 11, 56
1, 13408, Pitch_bend_c, 12, 692
1, 13409, Pitch_bend_c, 12, 669
1, 13410, Pitch_bend_c, 12, 646
1, 13411, Note_on_c, 4, 55, 0
1, 13411, Note_on_c, 3, 60, 0
1, 13411, Note_on_c, 15, 55, 0
1, 13411, Note_on_c, 5, 48, 0
1, 13411, Pitch_bend_c, 12, 624
1, 13412, Control_c, 12, 11, 55
1, 13412, Pitch_bend_c, 12, 601
1, 13413, Pitch_bend_c, 12, 578
1, 13414, Pitch_bend_c, 12, 556
1, 13415, Pitch_bend_c, 12, 533
1, 13416, Pitch_bend_c, 12, 510
1, 13417, Control_c, 12, 11, 54
1, 13417, Pitch_bend_c, 12, 488
1, 13418, Pitch_bend_c, 12, 465
1, 13419, Pitch_bend_c, 12, 442
1, 13420, Pitch_bend_c, 12, 420
1, 13421, Control_c, 12, 11, 53
1, 13421, Pitch_bend_c, 12, 397
1, 13422, Pitch_bend_c, 12, 374
1, 13423, Pitch_bend_c, 12, 352
1, 13424, Pitch_bend_c, 12, 329
1, 13425, Pitch_bend_c, 12, 306
1, 13426, Control_c, 12, 11, 52
1, 13426, Pitch_bend_c, 12, 284
1, 13427, Pitch_bend_c, 12, 261
1, 13428, Pitch_bend_c, 12, 238
1, 13429, Pitch_bend_c, 12, 216
1, 13430, Control_c, 12, 11, 51
1, 13430, Pitch_bend_c, 12, 193
1, 13431, Pitch_bend_c, 12, 170
1, 13432, Pitch_bend_c, 12, 148
1, 13433, Pitch_bend_c, 12, 125
1, 13434, Pitch_bend_c, 12, 102
1, 13435, Control_c, 12, 11, 50
1, 13435, Pitch_bend_c, 12, 80
1, 13436, Pitch_bend_c, 12, 57
1, 13437, Pitch_bend_c, 12, 34
1, 13438, Pitch_bend_c, 12, 12
1, 13439, Note_on_c, 12, 96, 0
1, 13440, Note_on_c, 3, 68, 120
1, 13440, Note_on_c, 4, 63, 86
1, 13440, Note_on_c, 4, 68, 96
1, 13440, Note_on_c, 4, 72, 109
1, 13440, Note_on_c, 5, 56, 120
1, 13440, Note_on_c, 9, 36, 120
1, 13440, Note_on_c, 15, 68, 1
1, 13440, Note_on_c, 15, 72, 1
1, 13440, Note_on_c, 15, 63, 1
1, 13440, Lyric_t, "let "
1, 13467, Note_on_c, 9, 36, 0
1, 13481, Note_on_c, 1, 29, 0
1, 13500, Note_on_c, 1, 41, 120
1, 13500, Note_on_c, 9, 42, 120
1, 13521, Note_on_c, 4, 72, 0
1, 13521, Note_on_c, 15, 72, 0
1, 13526, Note_on_c, 15, 63, 0
1, 13526, Note_on_c, 4, 68, 0
1, 13526, Note_on_c, 9, 42, 0
1, 13526, Note_on_c, 15, 68, 0
1, 13526, Note_on_c, 4, 63, 0
1, 13532, Note_on_c, 5, 56, 0
1, 13532, Note_on_c, 3, 68, 0
1, 13534, Note_on_c, 1, 41, 0
1, 13554, Note_on_c, 0, 60, 0
1, 13556, Note_on_c, 0, 63, 0
1, 13559, Note_on_c, 8, 63, 0
1, 13559, Note_on_c, 0, 68, 0
1, 13559, Note_on_c, 7, 63, 0
1, 13560, Note_on_c, 8, 53, 0
1, 13560, Note_on_c, 7, 53, 0
1, 13560, Note_on_c, 1, 41, 120
1, 13560, Note_on_c, 3, 67, 113
1, 13560, Note_on_c, 4, 63, 89
1, 13560, Note_on_c, 4, 68, 92
1, 13560, Note_on_c, 4, 72, 105
1, 13560, Note_on_c, 5, 55, 113
1, 13560, Note_on_c, 9, 38, 120
1, 13560, Note_on_c, 15, 68, 1
1, 13560, Note_on_c, 15, 63, 1
1, 13560, Note_on_c, 15, 72, 1
1, 13560, Lyric_t, "me "
1, 13561, Note_on_c, 7, 56, 0
1, 13561, Note_on_c, 8, 56, 0
1, 13591, Note_on_c, 9, 38, 0
1, 13592, Note_on_c, 1, 41, 0
1, 13620, Note_on_c, 0, 60, 98
1, 13620, Note_on_c, 0, 63, 60
1, 13620, Note_on_c, 0, 68, 53
1, 13620, Note_on_c, 9, 42, 120
1, 13621, Note_on_c, 0, 68, 0
1, 13621, Note_on_c, 0, 63, 0
1, 13621, Note_on_c, 0, 60, 0
1, 13642, Note_on_c, 4, 72, 0
1, 13642, Note_on_c, 15, 72, 0
1, 13649, Note_on_c, 4, 68, 0
1, 13649, Note_on_c, 15, 68, 0
1, 13650, Note_on_c, 4, 63, 0
1, 13650, Note_on_c, 15, 63, 0
1, 13650, Note_on_c, 0, 60, 101
1, 13650, Note_on_c, 0, 63, 62
1, 13650, Note_on_c, 0, 68, 70
1, 13651, Note_on_c, 0, 68, 0
1, 13651, Note_on_c, 0, 63, 0
1, 13651, Note_on_c, 0, 60, 0
1, 13653, Note_on_c, 9, 42, 0
1, 13659, Note_on_c, 5, 55, 0
1, 13659, Note_on_c, 3, 67, 0
1, 13679, Control_c, 11, 11, 127
1, 13680, Note_on_c, 0, 60, 118
1, 13680, Note_on_c, 0, 63, 92
1, 13680, Note_on_c, 0, 68, 92
1, 13680, Note_on_c, 1, 29, 120
1, 13680, Note_on_c, 3, 65, 111
1, 13680, Note_on_c, 4, 63, 86
1, 13680, Note_on_c, 4, 68, 92
1, 13680, Note_on_c, 4, 72, 105
1, 13680, Note_on_c, 5, 53, 111
1, 13680, Note_on_c, 7, 53, 101
1, 13680, Note_on_c, 7, 56, 120
1, 13680, Note_on_c, 7, 63, 98
1, 13680, Note_on_c, 8, 53, 101
1, 13680, Note_on_c, 8, 56, 120
1, 13680, Note_on_c, 8, 63, 98
1, 13680, Note_on_c, 9, 36, 120
1, 13680, Note_on_c, 15, 63, 1
1, 13680, Note_on_c, 15, 72, 1
1, 13680, Note_on_c, 15, 68, 1
1, 13680, Lyric_t, "trea"
1, 13707, Note_on_c, 9, 36, 0
1, 13715, Note_on_c, 1, 29, 0
1, 13718, Note_on_c, 0, 60, 0
1, 13721, Note_on_c, 0, 68, 0
1, 13722, Note_on_c, 0, 63, 0
1, 13736, Note_on_c, 8, 63, 0
1, 13736, Note_on_c, 8, 53, 0
1, 13736, Note_on_c, 7, 53, 0
1, 13736, Note_on_c, 7, 63, 0
1, 13737, Note_on_c, 8, 56, 0
1, 13737, Note_on_c, 7, 56, 0
1, 13740, Note_on_c, 0, 60, 97
1, 13740, Note_on_c, 0, 63, 62
1, 13740, Note_on_c, 0, 68, 62
1, 13740, Note_on_c, 9, 42, 120
1, 13741, Note_on_c, 0, 68, 0
1, 13741, Note_on_c, 0, 63, 0
1, 13741, Note_on_c, 0, 60, 0
1, 13754, Note_on_c, 4, 72, 0
1, 13754, Note_on_c, 15, 72, 0
1, 13756, Note_on_c, 4, 68, 0
1, 13756, Note_on_c, 15, 68, 0
1, 13759, Note_on_c, 4, 63, 0
1, 13759, Note_on_c, 15, 63, 0
1, 13769, Note_on_c, 9, 42, 0
1, 13781, Note_on_c, 3, 65, 0
1, 13781, Note_on_c, 5, 53, 0
1, 13799, Control_c, 12, 11, 127
1, 13800, Note_on_c, 0, 60, 116
1, 13800, Note_on_c, 0, 63, 92
1, 13800, Note_on_c, 0, 68, 111
1, 13800, Note_on_c, 1, 29, 116
1, 13800, Note_on_c, 3, 67, 120
1, 13800, Note_on_c, 4, 63, 84
1, 13800, Note_on_c, 4, 68, 92
1, 13800, Note_on_c, 4, 72, 98
1, 13800, Note_on_c, 5, 55, 120
1, 13800, Note_on_c, 7, 53, 113
1, 13800, Note_on_c, 7, 56, 120
1, 13800, Note_on_c, 7, 63, 115
1, 13800, Note_on_c, 8, 53, 113
1, 13800, Note_on_c, 8, 56, 120
1, 13800, Note_on_c, 8, 63, 115
1, 13800, Note_on_c, 9, 38, 120
1, 13800, Note_on_c, 15, 68, 1
1, 13800, Note_on_c, 15, 63, 1
1, 13800, Note_on_c, 15, 72, 1
1, 13800, Lyric_t, "sure "
1, 13803, Note_on_c, 2, 60, 0
1, 13807, Note_on_c, 2, 63, 0
1, 13809, Note_on_c, 2, 68, 0
1, 13828, Note_on_c, 9, 38, 0
1, 13830, Note_on_c, 1, 29, 0
1, 13839, Note_on_c, 0, 60, 0
1, 13840, Note_on_c, 15, 72, 0
1, 13840, Note_on_c, 4, 72, 0
1, 13842, Note_on_c, 0, 68, 0
1, 13842, Note_on_c, 0, 63, 0
1, 13851, Note_on_c, 8, 53, 0
1, 13851, Note_on_c, 7, 53, 0
1, 13852, Note_on_c, 8, 56, 0
1, 13852, Note_on_c, 7, 56, 0
1, 13855, Note_on_c, 8, 63, 0
1, 13855, Note_on_c, 7, 63, 0
1, 13860, Note_on_c, 9, 42, 120
1, 13862, Note_on_c, 4, 63, 0
1, 13862, Note_on_c, 15, 63, 0
1, 13868, Note_on_c, 15, 68, 0
1, 13868, Note_on_c, 4, 68, 0
1, 13884, Note_on_c, 3, 67, 0
1, 13884, Note_on_c, 5, 55, 0
1, 13887, Note_on_c, 9, 42, 0
1, 13920, Note_on_c, 0, 60, 95
1, 13920, Note_on_c, 0, 63, 119
1, 13920, Note_on_c, 0, 70, 120
1, 13920, Note_on_c, 1, 34, 120
1, 13920, Note_on_c, 3, 70, 119
1, 13920, Note_on_c, 4, 63, 81
1, 13920, Note_on_c, 4, 67, 94
1, 13920, Note_on_c, 4, 70, 120
1, 13920, Note_on_c, 5, 58, 119
1, 13920, Note_on_c, 7, 56, 98
1, 13920, Note_on_c, 7, 60, 119
1, 13920, Note_on_c, 7, 67, 116
1, 13920, Note_on_c, 8, 56, 98
1, 13920, Note_on_c, 8, 60, 119
1, 13920, Note_on_c, 8, 67, 116
1, 13920, Note_on_c, 9, 36, 120
1, 13920, Note_on_c, 9, 42, 120
1, 13920, Note_on_c, 9, 57, 81
1, 13920, Note_on_c, 15, 70, 1
1, 13920, Note_on_c, 15, 63, 1
1, 13920, Note_on_c, 15, 67, 1
1, 13920, Lyric_t, "you "
1, 13920, Lyric_t, "\015"
1, 13934, Note_on_c, 9, 36, 0
1, 13939, Note_on_c, 9, 42, 0
1, 13946, Note_on_c, 9, 57, 0
1, 13973, Note_on_c, 15, 70, 0
1, 13973, Note_on_c, 4, 70, 0
1, 13975, Note_on_c, 4, 67, 0
1, 13975, Note_on_c, 15, 67, 0
1, 13979, Note_on_c, 15, 63, 0
1, 13979, Note_on_c, 4, 63, 0
1, 13980, Note_on_c, 9, 36, 120
1, 13980, Note_on_c, 9, 42, 119
1, 13980, Note_on_c, 9, 57, 75
1, 13987, Note_on_c, 5, 58, 0
1, 13987, Note_on_c, 3, 70, 0
1, 14002, Note_on_c, 9, 42, 0
1, 14003, Note_on_c, 9, 36, 0
1, 14004, Note_on_c, 9, 57, 0
1, 14040, Note_on_c, 9, 36, 120
1, 14040, Note_on_c, 9, 42, 119
1, 14040, Note_on_c, 9, 57, 69
1, 14062, Note_on_c, 9, 36, 0
1, 14063, Note_on_c, 9, 42, 0
1, 14064, Note_on_c, 9, 57, 0
1, 14100, Note_on_c, 3, 72, 118
1, 14100, Note_on_c, 4, 63, 81
1, 14100, Note_on_c, 4, 67, 103
1, 14100, Note_on_c, 4, 72, 119
1, 14100, Note_on_c, 5, 60, 118
1, 14100, Note_on_c, 9, 36, 120
1, 14100, Note_on_c, 9, 42, 115
1, 14100, Note_on_c, 9, 57, 70
1, 14100, Note_on_c, 15, 67, 1
1, 14100, Note_on_c, 15, 63, 1
1, 14100, Note_on_c, 15, 72, 1
1, 14100, Lyric_t, "oh "
1, 14121, Note_on_c, 9, 36, 0
1, 14122, Note_on_c, 9, 42, 0
1, 14125, Note_on_c, 9, 57, 0
1, 14151, Note_on_c, 15, 67, 0
1, 14151, Note_on_c, 4, 67, 0
1, 14154, Note_on_c, 15, 72, 0
1, 14154, Note_on_c, 4, 72, 0
1, 14155, Note_on_c, 15, 63, 0
1, 14155, Note_on_c, 4, 63, 0
1, 14160, Note_on_c, 9, 36, 120
1, 14160, Note_on_c, 9, 42, 119
1, 14160, Note_on_c, 9, 57, 62
1, 14164, Note_on_c, 3, 72, 0
1, 14164, Note_on_c, 5, 60, 0
1, 14180, Note_on_c, 9, 36, 0
1, 14181, Note_on_c, 9, 42, 0
1, 14185, Note_on_c, 9, 57, 0
1, 14220, Note_on_c, 9, 36, 120
1, 14220, Note_on_c, 9, 42, 109
1, 14220, Note_on_c, 9, 57, 71
1, 14241, Note_on_c, 9, 36, 0
1, 14242, Note_on_c, 9, 42, 0
1, 14244, Note_on_c, 9, 57, 0
1, 14280, Note_on_c, 3, 75, 115
1, 14280, Note_on_c, 4, 67, 120
1, 14280, Note_on_c, 4, 70, 120
1, 14280, Note_on_c, 4, 77, 120
1, 14280, Note_on_c, 5, 63, 115
1, 14280, Note_on_c, 9, 36, 120
1, 14280, Note_on_c, 9, 42, 104
1, 14280, Note_on_c, 9, 57, 62
1, 14280, Note_on_c, 15, 67, 1
1, 14280, Note_on_c, 15, 77, 1
1, 14280, Note_on_c, 15, 70, 1
1, 14280, Lyric_t, "oh "
1, 14280, Lyric_t, "\015"
1, 14299, Note_on_c, 9, 36, 0
1, 14302, Note_on_c, 9, 57, 0
1, 14302, Note_on_c, 9, 42, 0
1, 14303, Note_on_c, 15, 67, 0
1, 14303, Note_on_c, 4, 67, 0
1, 14304, Note_on_c, 15, 70, 0
1, 14304, Note_on_c, 4, 70, 0
1, 14305, Note_on_c, 15, 77, 0
1, 14305, Note_on_c, 4, 77, 0
1, 14310, Note_on_c, 4, 70, 120
1, 14310, Note_on_c, 4, 75, 81
1, 14310, Note_on_c, 4, 79, 116
1, 14310, Note_on_c, 15, 75, 1
1, 14310, Note_on_c, 15, 70, 1
1, 14310, Note_on_c, 15, 79, 1
1, 14340, Note_on_c, 9, 36, 120
1, 14340, Note_on_c, 9, 42, 111
1, 14340, Note_on_c, 9, 57, 80
1, 14352, Note_on_c, 1, 34, 0
1, 14353, Note_on_c, 0, 63, 0
1, 14354, Note_on_c, 0, 70, 0
1, 14357, Note_on_c, 0, 60, 0
1, 14359, Note_on_c, 9, 36, 0
1, 14360, Note_on_c, 9, 42, 0
1, 14361, Note_on_c, 9, 57, 0
1, 14387, Note_on_c, 7, 60, 0
1, 14387, Note_on_c, 8, 60, 0
1, 14388, Note_on_c, 8, 67, 0
1, 14388, Note_on_c, 7, 67, 0
1, 14391, Note_on_c, 7, 56, 0
1, 14391, Note_on_c, 8, 56, 0
1, 14400, Note_on_c, 0, 60, 91
1, 14400, Note_on_c, 0, 63, 119
1, 14400, Note_on_c, 0, 70, 100
1, 14400, Note_on_c, 1, 46, 120
1, 14400, Note_on_c, 9, 38, 120
1, 14413, Note_on_c, 1, 46, 0
1, 14414, Note_on_c, 0, 63, 0
1, 14414, Note_on_c, 0, 70, 0
1, 14416, Note_on_c, 0, 60, 0
1, 14422, Note_on_c, 9, 38, 0
1, 14430, Note_on_c, 0, 60, 94
1, 14430, Note_on_c, 0, 63, 92
1, 14430, Note_on_c, 0, 70, 94
1, 14430, Note_on_c, 1, 46, 109
1, 14430, Note_on_c, 9, 38, 116
1, 14454, Note_on_c, 9, 38, 0
1, 14455, Note_on_c, 1, 46, 0
1, 14461, Note_on_c, 0, 60, 0
1, 14461, Note_on_c, 0, 63, 0
1, 14462, Note_on_c, 0, 70, 0
1, 14490, Note_on_c, 0, 60, 94
1, 14490, Note_on_c, 0, 63, 104
1, 14490, Note_on_c, 0, 70, 89
1, 14490, Note_on_c, 1, 46, 120
1, 14490, Note_on_c, 9, 38, 120
1, 14502, Note_on_c, 1, 46, 0
1, 14508, Note_on_c, 0, 70, 0
1, 14509, Note_on_c, 0, 63, 0
1, 14509, Note_on_c, 0, 60, 0
1, 14510, Note_on_c, 9, 38, 0
1, 14520, Note_on_c, 0, 60, 95
1, 14520, Note_on_c, 0, 63, 106
1, 14520, Note_on_c, 0, 70, 100
1, 14520, Note_on_c, 1, 46, 115
1, 14520, Note_on_c, 9, 38, 113
1, 14543, Note_on_c, 9, 38, 0
1, 14550, Note_on_c, 1, 46, 0
1, 14554, Note_on_c, 0, 63, 0
1, 14555, Note_on_c, 0, 60, 0
1, 14557, Note_on_c, 0, 70, 0
1, 14580, Note_on_c, 0, 60, 80
1, 14580, Note_on_c, 0, 63, 94
1, 14580, Note_on_c, 0, 70, 86
1, 14580, Note_on_c, 1, 46, 120
1, 14580, Note_on_c, 9, 38, 120
1, 14594, Note_on_c, 1, 46, 0
1, 14595, Note_on_c, 0, 63, 0
1, 14596, Note_on_c, 0, 70, 0
1, 14596, Note_on_c, 0, 60, 0
1, 14601, Note_on_c, 9, 38, 0
1, 14610, Note_on_c, 0, 60, 107
1, 14610, Note_on_c, 0, 63, 111
1, 14610, Note_on_c, 0, 70, 96
1, 14610, Note_on_c, 1, 46, 119
1, 14610, Note_on_c, 9, 38, 116
1, 14634, Note_on_c, 9, 38, 0
1, 14641, Note_on_c, 1, 46, 0
1, 14642, Note_on_c, 0, 63, 0
1, 14643, Note_on_c, 0, 60, 0
1, 14646, Note_on_c, 0, 70, 0
1, 14670, Note_on_c, 0, 60, 98
1, 14670, Note_on_c, 0, 63, 111
1, 14670, Note_on_c, 0, 70, 89
1, 14670, Note_on_c, 1, 46, 120
1, 14670, Note_on_c, 9, 38, 120
1, 14686, Note_on_c, 1, 46, 0
1, 14689, Note_on_c, 0, 63, 0
1, 14689, Note_on_c, 0, 60, 0
1, 14689, Note_on_c, 0, 70, 0
1, 14691, Note_on_c, 9, 38, 0
1, 14700, Note_on_c, 0, 60, 113
1, 14700, Note_on_c, 0, 63, 111
1, 14700, Note_on_c, 0, 70, 104
1, 14700, Note_on_c, 1, 46, 119
1, 14700, Note_on_c, 9, 38, 116
1, 14730, Note_on_c, 9, 38, 0
1, 14740, Note_on_c, 1, 46, 0
1, 14742, Note_on_c, 0, 63, 0
1, 14744, Note_on_c, 0, 70, 0
1, 14744, Note_on_c, 0, 60, 0
1, 14760, Note_on_c, 9, 38, 119
1, 14760, Note_on_c, 9, 39, 91
1, 14760, Note_on_c, 9, 40, 120
1, 14768, Note_on_c, 5, 63, 0
1, 14768, Note_on_c, 3, 75, 0
1, 14772, Note_on_c, 4, 70, 0
1, 14772, Note_on_c, 15, 70, 0
1, 14780, Note_on_c, 15, 75, 0
1, 14780, Note_on_c, 4, 75, 0
1, 14784, Note_on_c, 4, 79, 0
1, 14784, Note_on_c, 15, 79, 0
1, 14807, Note_on_c, 9, 38, 0
1, 14811, Note_on_c, 9, 40, 0
1, 14817, Note_on_c, 9, 39, 0
1, 14880, Note_on_c, 0, 60, 105
1, 14880, Note_on_c, 0, 63, 98
1, 14880, Note_on_c, 0, 67, 118
1, 14880, Note_on_c, 1, 32, 120
1, 14880, Note_on_c, 3, 67, 120
1, 14880, Note_on_c, 9, 36, 120
1, 14880, Lyric_t, "Pret"
1, 14910, Note_on_c, 3, 67, 111
1, 14910, Lyric_t, "ty "
1, 14913, Note_on_c, 3, 67, 0
1, 14923, Note_on_c, 9, 36, 0
1, 14933, Note_on_c, 3, 67, 0
1, 14939, Note_on_c, 1, 32, 0
1, 14940, Note_on_c, 1, 44, 120
1, 14940, Note_on_c, 3, 67, 120
1, 14940, Lyric_t, "girl, "
1, 14967, Note_on_c, 3, 67, 0
1, 14975, Note_on_c, 1, 44, 0
1, 14990, Note_on_c, 0, 67, 0
1, 14996, Note_on_c, 0, 63, 0
1, 14998, Note_on_c, 0, 60, 0
1, 15000, Note_on_c, 3, 67, 119
1, 15000, Note_on_c, 9, 38, 120
1, 15000, Lyric_t, "pret"
1, 15020, Note_on_c, 3, 67, 0
1, 15030, Note_on_c, 0, 60, 83
1, 15030, Note_on_c, 0, 63, 73
1, 15030, Note_on_c, 0, 67, 82
1, 15030, Note_on_c, 3, 67, 101
1, 15030, Lyric_t, "ty "
1, 15031, Note_on_c, 0, 67, 0
1, 15031, Note_on_c, 0, 63, 0
1, 15031, Note_on_c, 0, 60, 0
1, 15039, Note_on_c, 9, 38, 0
1, 15052, Note_on_c, 3, 67, 0
1, 15060, Note_on_c, 0, 60, 98
1, 15060, Note_on_c, 0, 63, 80
1, 15060, Note_on_c, 0, 67, 91
1, 15060, Note_on_c, 3, 67, 120
1, 15060, Lyric_t, "girl, "
1, 15060, Lyric_t, "\015"
1, 15061, Note_on_c, 0, 67, 0
1, 15061, Note_on_c, 0, 60, 0
1, 15061, Note_on_c, 0, 63, 0
1, 15086, Note_on_c, 3, 67, 0
1, 15090, Note_on_c, 0, 60, 98
1, 15090, Note_on_c, 0, 63, 77
1, 15090, Note_on_c, 0, 67, 90
1, 15091, Note_on_c, 0, 67, 0
1, 15091, Note_on_c, 0, 63, 0
1, 15091, Note_on_c, 0, 60, 0
1, 15120, Note_on_c, 0, 56, 96
1, 15120, Note_on_c, 0, 60, 119
1, 15120, Note_on_c, 0, 63, 91
1, 15120, Note_on_c, 1, 32, 120
1, 15120, Note_on_c, 3, 67, 120
1, 15120, Note_on_c, 9, 36, 120
1, 15120, Lyric_t, "pret"
1, 15136, Note_on_c, 3, 67, 0
1, 15149, Note_on_c, 0, 56, 0
1, 15150, Note_on_c, 3, 67, 116
1, 15150, Lyric_t, "ty "
1, 15151, Note_on_c, 1, 32, 0
1, 15151, Note_on_c, 0, 60, 0
1, 15154, Note_on_c, 0, 63, 0
1, 15158, Note_on_c, 9, 36, 0
1, 15174, Note_on_c, 3, 67, 0
1, 15180, Note_on_c, 0, 56, 82
1, 15180, Note_on_c, 0, 60, 111
1, 15180, Note_on_c, 0, 63, 80
1, 15180, Note_on_c, 3, 67, 120
1, 15180, Lyric_t, "girl, "
1, 15181, Note_on_c, 0, 63, 0
1, 15181, Note_on_c, 0, 56, 0
1, 15181, Note_on_c, 0, 60, 0
1, 15208, Note_on_c, 3, 67, 0
1, 15210, Note_on_c, 0, 58, 91
1, 15210, Note_on_c, 0, 62, 119
1, 15210, Note_on_c, 0, 65, 89
1, 15210, Note_on_c, 1, 31, 116
1, 15232, Note_on_c, 1, 31, 0
1, 15236, Note_on_c, 0, 58, 0
1, 15238, Note_on_c, 0, 65, 0
1, 15239, Note_on_c, 0, 62, 0
1, 15240, Note_on_c, 3, 67, 116
1, 15240, Note_on_c, 9, 38, 120
1, 15240, Lyric_t, "you "
1, 15263, Note_on_c, 3, 67, 0
1, 15270, Note_on_c, 0, 58, 60
1, 15270, Note_on_c, 0, 62, 109
1, 15270, Note_on_c, 0, 65, 77
1, 15270, Note_on_c, 3, 65, 82
1, 15270, Lyric_t, "should "
1, 15271, Note_on_c, 0, 65, 0
1, 15271, Note_on_c, 0, 62, 0
1, 15271, Note_on_c, 0, 58, 0
1, 15278, Note_on_c, 9, 38, 0
1, 15289, Note_on_c, 3, 65, 0
1, 15300, Note_on_c, 0, 56, 91
1, 15300, Note_on_c, 0, 60, 119
1, 15300, Note_on_c, 0, 63, 91
1, 15300, Note_on_c, 1, 29, 120
1, 15300, Note_on_c, 3, 63, 120
1, 15300, Lyric_t, "be "
1, 15320, Note_on_c, 3, 63, 0
1, 15330, Note_on_c, 3, 65, 116
1, 15330, Lyric_t, "smi"
1, 15360, Note_on_c, 9, 36, 120
1, 15397, Note_on_c, 9, 36, 0
1, 15401, Note_on_c, 1, 29, 0
1, 15419, Note_on_c, 3, 65, 0
1, 15420, Note_on_c, 1, 41, 120
1, 15420, Note_on_c, 3, 65, 120
1, 15420, Lyric_t, "ling "
1, 15420, Lyric_t, "\015"
1, 15447, Note_on_c, 3, 65, 0
1, 15454, Note_on_c, 1, 41, 0
1, 15474, Note_on_c, 0, 60, 0
1, 15476, Note_on_c, 0, 63, 0
1, 15479, Note_on_c, 0, 56, 0
1, 15480, Note_on_c, 0, 56, 86
1, 15480, Note_on_c, 0, 60, 116
1, 15480, Note_on_c, 0, 63, 78
1, 15480, Note_on_c, 1, 41, 120
1, 15480, Note_on_c, 9, 38, 120
1, 15507, Note_on_c, 0, 60, 0
1, 15509, Note_on_c, 0, 56, 0
1, 15510, Note_on_c, 0, 63, 0
1, 15512, Note_on_c, 1, 41, 0
1, 15521, Note_on_c, 9, 38, 0
1, 15540, Note_on_c, 0, 56, 53
1, 15540, Note_on_c, 0, 60, 98
1, 15540, Note_on_c, 0, 63, 60
1, 15541, Note_on_c, 0, 63, 0
1, 15541, Note_on_c, 0, 60, 0
1, 15541, Note_on_c, 0, 56, 0
1, 15570, Note_on_c, 0, 56, 70
1, 15570, Note_on_c, 0, 60, 101
1, 15570, Note_on_c, 0, 63, 62
1, 15571, Note_on_c, 0, 63, 0
1, 15571, Note_on_c, 0, 60, 0
1, 15571, Note_on_c, 0, 56, 0
1, 15600, Note_on_c, 0, 56, 92
1, 15600, Note_on_c, 0, 60, 118
1, 15600, Note_on_c, 0, 63, 92
1, 15600, Note_on_c, 1, 29, 120
1, 15600, Note_on_c, 9, 36, 120
1, 15635, Note_on_c, 1, 29, 0
1, 15638, Note_on_c, 0, 60, 0
1, 15639, Note_on_c, 9, 36, 0
1, 15641, Note_on_c, 0, 56, 0
1, 15642, Note_on_c, 0, 63, 0
1, 15660, Note_on_c, 0, 56, 62
1, 15660, Note_on_c, 0, 60, 97
1, 15660, Note_on_c, 0, 63, 62
1, 15661, Note_on_c, 0, 63, 0
1, 15661, Note_on_c, 0, 60, 0
1, 15661, Note_on_c, 0, 56, 0
1, 15720, Note_on_c, 0, 60, 116
1, 15720, Note_on_c, 0, 63, 92
1, 15720, Note_on_c, 0, 67, 111
1, 15720, Note_on_c, 1, 29, 116
1, 15720, Note_on_c, 9, 38, 120
1, 15750, Note_on_c, 1, 29, 0
1, 15753, Note_on_c, 9, 38, 0
1, 15759, Note_on_c, 0, 60, 0
1, 15762, Note_on_c, 0, 67, 0
1, 15762, Note_on_c, 0, 63, 0
1, 15810, Note_on_c, 3, 63, 119
1, 15810, Lyric_t, "A "
1, 15827, Note_on_c, 3, 63, 0
1, 15840, Note_on_c, 0, 58, 92
1, 15840, Note_on_c, 0, 62, 116
1, 15840, Note_on_c, 0, 65, 94
1, 15840, Note_on_c, 1, 31, 120
1, 15840, Note_on_c, 3, 65, 116
1, 15840, Note_on_c, 9, 36, 120
1, 15840, Lyric_t, "girl "
1, 15870, Note_on_c, 3, 65, 0
1, 15871, Note_on_c, 9, 36, 0
1, 15886, Note_on_c, 1, 31, 0
1, 15900, Note_on_c, 1, 43, 119
1, 15900, Note_on_c, 3, 65, 111
1, 15900, Lyric_t, "like "
1, 15929, Note_on_c, 3, 65, 0
1, 15942, Note_on_c, 0, 65, 0
1, 15951, Note_on_c, 1, 43, 0
1, 15951, Note_on_c, 0, 62, 0
1, 15955, Note_on_c, 0, 58, 0
1, 15960, Note_on_c, 3, 65, 111
1, 15960, Note_on_c, 9, 38, 120
1, 15960, Lyric_t, "you "
1, 15986, Note_on_c, 9, 38, 0
1, 16002, Note_on_c, 3, 65, 0
1, 16020, Note_on_c, 0, 58, 48
1, 16020, Note_on_c, 0, 62, 100
1, 16020, Note_on_c, 0, 65, 71
1, 16020, Note_on_c, 3, 63, 119
1, 16020, Lyric_t, "should "
1, 16020, Lyric_t, "\015"
1, 16021, Note_on_c, 0, 65, 0
1, 16021, Note_on_c, 0, 58, 0
1, 16021, Note_on_c, 0, 62, 0
1, 16050, Note_on_c, 0, 58, 71
1, 16050, Note_on_c, 0, 62, 98
1, 16050, Note_on_c, 0, 65, 78
1, 16051, Note_on_c, 0, 65, 0
1, 16051, Note_on_c, 0, 62, 0
1, 16051, Note_on_c, 0, 58, 0
1, 16060, Note_on_c, 3, 63, 0
1, 16080, Note_on_c, 0, 55, 103
1, 16080, Note_on_c, 0, 58, 92
1, 16080, Note_on_c, 0, 62, 113
1, 16080, Note_on_c, 0, 65, 83
1, 16080, Note_on_c, 1, 31, 119
1, 16080, Note_on_c, 3, 65, 116
1, 16080, Note_on_c, 9, 36, 120
1, 16080, Lyric_t, "ne"
1, 16102, Note_on_c, 3, 65, 0
1, 16107, Note_on_c, 9, 36, 0
1, 16109, Note_on_c, 1, 31, 0
1, 16110, Note_on_c, 3, 63, 111
1, 16110, Lyric_t, "ver "
1, 16122, Note_on_c, 0, 62, 0
1, 16123, Note_on_c, 0, 55, 0
1, 16124, Note_on_c, 0, 58, 0
1, 16131, Note_on_c, 0, 65, 0
1, 16140, Note_on_c, 0, 58, 57
1, 16140, Note_on_c, 0, 62, 94
1, 16140, Note_on_c, 0, 65, 59
1, 16141, Note_on_c, 0, 65, 0
1, 16141, Note_on_c, 0, 62, 0
1, 16141, Note_on_c, 0, 58, 0
1, 16170, Note_on_c, 0, 58, 92
1, 16170, Note_on_c, 0, 62, 111
1, 16170, Note_on_c, 0, 65, 87
1, 16170, Note_on_c, 1, 34, 120
1, 16180, Note_on_c, 3, 63, 0
1, 16200, Note_on_c, 3, 65, 101
1, 16200, Note_on_c, 9, 38, 120
1, 16200, Lyric_t, "look "
1, 16201, Note_on_c, 1, 34, 0
1, 16206, Note_on_c, 0, 62, 0
1, 16208, Note_on_c, 0, 58, 0
1, 16211, Note_on_c, 0, 65, 0
1, 16223, Note_on_c, 3, 65, 0
1, 16226, Note_on_c, 9, 38, 0
1, 16230, Note_on_c, 0, 58, 70
1, 16230, Note_on_c, 0, 62, 78
1, 16230, Note_on_c, 0, 65, 72
1, 16230, Note_on_c, 3, 63, 111
1, 16230, Lyric_t, "so "
1, 16231, Note_on_c, 0, 65, 0
1, 16231, Note_on_c, 0, 58, 0
1, 16231, Note_on_c, 0, 62, 0
1, 16260, Note_on_c, 0, 60, 113
1, 16260, Note_on_c, 0, 63, 87
1, 16260, Note_on_c, 0, 67, 105
1, 16260, Note_on_c, 1, 36, 120
1, 16297, Note_on_c, 3, 63, 0
1, 16320, Note_on_c, 3, 67, 120
1, 16320, Note_on_c, 9, 36, 120
1, 16320, Lyric_t, "blue "
1, 16320, Lyric_t, "\015"
1, 16349, Note_on_c, 9, 36, 0
1, 16373, Note_on_c, 3, 67, 0
1, 16377, Note_on_c, 1, 36, 0
1, 16380, Note_on_c, 1, 48, 120
1, 16416, Note_on_c, 1, 48, 0
1, 16439, Note_on_c, 0, 67, 0
1, 16439, Note_on_c, 0, 60, 0
1, 16440, Note_on_c, 0, 60, 105
1, 16440, Note_on_c, 0, 63, 92
1, 16440, Note_on_c, 0, 67, 61
1, 16440, Note_on_c, 9, 38, 120
1, 16441, Note_on_c, 0, 67, 0
1, 16441, Note_on_c, 0, 63, 0
1, 16441, Note_on_c, 0, 63, 0
1, 16441, Note_on_c, 0, 60, 0
1, 16467, Note_on_c, 9, 38, 0
1, 16500, Note_on_c, 1, 34, 98
1, 16529, Note_on_c, 1, 34, 0
1, 16530, Note_on_c, 1, 36, 111
1, 16559, Note_on_c, 1, 36, 0
1, 16560, Note_on_c, 0, 60, 94
1, 16560, Note_on_c, 0, 63, 94
1, 16560, Note_on_c, 0, 67, 100
1, 16560, Note_on_c, 1, 39, 94
1, 16560, Note_on_c, 9, 36, 120
1, 16586, Note_on_c, 9, 36, 0
1, 16589, Note_on_c, 1, 39, 0
1, 16590, Note_on_c, 1, 36, 118
1, 16593, Note_on_c, 0, 67, 0
1, 16593, Note_on_c, 0, 60, 0
1, 16597, Note_on_c, 0, 63, 0
1, 16626, Note_on_c, 1, 36, 0
1, 16680, Note_on_c, 0, 58, 92
1, 16680, Note_on_c, 0, 62, 119
1, 16680, Note_on_c, 0, 65, 105
1, 16680, Note_on_c, 1, 34, 109
1, 16680, Note_on_c, 3, 58, 120
1, 16680, Note_on_c, 4, 58, 119
1, 16680, Note_on_c, 9, 38, 120
1, 16680, Note_on_c, 15, 58, 1
1, 16680, Lyric_t, "You're "
1, 16688, Note_on_c, 3, 58, 0
1, 16691, Note_on_c, 15, 58, 0
1, 16691, Note_on_c, 4, 58, 0
1, 16702, Note_on_c, 9, 38, 0
1, 16708, Note_on_c, 0, 62, 0
1, 16713, Note_on_c, 0, 58, 0
1, 16714, Note_on_c, 0, 65, 0
1, 16740, Note_on_c, 3, 70, 120
1, 16740, Note_on_c, 4, 67, 119
1, 16740, Note_on_c, 15, 67, 1
1, 16740, Lyric_t, "eve"
1, 16783, Note_on_c, 1, 34, 0
1, 16800, Note_on_c, 0, 60, 105
1, 16800, Note_on_c, 0, 63, 98
1, 16800, Note_on_c, 0, 67, 118
1, 16800, Note_on_c, 1, 32, 120
1, 16800, Note_on_c, 9, 36, 120
1, 16843, Note_on_c, 9, 36, 0
1, 16859, Note_on_c, 1, 32, 0
1, 16860, Note_on_c, 1, 44, 120
1, 16895, Note_on_c, 1, 44, 0
1, 16910, Note_on_c, 0, 67, 0
1, 16916, Note_on_c, 0, 63, 0
1, 16918, Note_on_c, 0, 60, 0
1, 16920, Note_on_c, 9, 38, 120
1, 16939, Note_on_c, 15, 67, 0
1, 16939, Note_on_c, 4, 67, 0
1, 16950, Note_on_c, 0, 60, 83
1, 16950, Note_on_c, 0, 63, 73
1, 16950, Note_on_c, 0, 67, 82
1, 16950, Note_on_c, 3, 72, 119
1, 16950, Note_on_c, 4, 68, 109
1, 16950, Note_on_c, 15, 68, 1
1, 16950, Lyric_t, "ry"
1, 16951, Note_on_c, 0, 67, 0
1, 16951, Note_on_c, 0, 63, 0
1, 16951, Note_on_c, 0, 60, 0
1, 16957, Note_on_c, 3, 70, 0
1, 16959, Note_on_c, 9, 38, 0
1, 16972, Note_on_c, 3, 72, 0
1, 16974, Note_on_c, 4, 68, 0
1, 16974, Note_on_c, 15, 68, 0
1, 16980, Note_on_c, 0, 60, 98
1, 16980, Note_on_c, 0, 63, 80
1, 16980, Note_on_c, 0, 67, 91
1, 16981, Note_on_c, 0, 67, 0
1, 16981, Note_on_c, 0, 63, 0
1, 16981, Note_on_c, 0, 60, 0
1, 17010, Note_on_c, 0, 60, 98
1, 17010, Note_on_c, 0, 63, 77
1, 17010, Note_on_c, 0, 67, 90
1, 17010, Note_on_c, 3, 68, 119
1, 17010, Note_on_c, 4, 63, 119
1, 17010, Note_on_c, 15, 63, 1
1, 17010, Lyric_t, "thi"
1, 17011, Note_on_c, 0, 67, 0
1, 17011, Note_on_c, 0, 60, 0
1, 17011, Note_on_c, 0, 63, 0
1, 17040, Note_on_c, 0, 56, 96
1, 17040, Note_on_c, 0, 60, 119
1, 17040, Note_on_c, 0, 63, 91
1, 17040, Note_on_c, 1, 32, 120
1, 17040, Note_on_c, 9, 36, 120
1, 17068, Note_on_c, 3, 68, 0
1, 17069, Note_on_c, 0, 56, 0
1, 17070, Note_on_c, 3, 67, 120
1, 17070, Lyric_t, "ng "
1, 17071, Note_on_c, 0, 60, 0
1, 17071, Note_on_c, 1, 32, 0
1, 17074, Note_on_c, 0, 63, 0
1, 17078, Note_on_c, 9, 36, 0
1, 17100, Note_on_c, 0, 56, 82
1, 17100, Note_on_c, 0, 60, 111
1, 17100, Note_on_c, 0, 63, 80
1, 17101, Note_on_c, 0, 63, 0
1, 17101, Note_on_c, 0, 56, 0
1, 17101, Note_on_c, 0, 60, 0
1, 17130, Note_on_c, 0, 58, 91
1, 17130, Note_on_c, 0, 62, 119
1, 17130, Note_on_c, 0, 65, 89
1, 17130, Note_on_c, 1, 31, 116
1, 17152, Note_on_c, 1, 31, 0
1, 17156, Note_on_c, 0, 58, 0
1, 17158, Note_on_c, 0, 65, 0
1, 17159, Note_on_c, 0, 62, 0
1, 17160, Note_on_c, 9, 38, 120
1, 17171, Note_on_c, 4, 63, 0
1, 17171, Note_on_c, 15, 63, 0
1, 17189, Note_on_c, 3, 67, 0
1, 17190, Note_on_c, 0, 58, 60
1, 17190, Note_on_c, 0, 62, 109
1, 17190, Note_on_c, 0, 65, 77
1, 17190, Note_on_c, 3, 68, 120
1, 17190, Note_on_c, 4, 63, 119
1, 17190, Note_on_c, 15, 63, 1
1, 17190, Lyric_t, "I "
1, 17191, Note_on_c, 0, 65, 0
1, 17191, Note_on_c, 0, 62, 0
1, 17191, Note_on_c, 0, 58, 0
1, 17198, Note_on_c, 9, 38, 0
1, 17218, Note_on_c, 3, 68, 0
1, 17220, Note_on_c, 0, 56, 91
1, 17220, Note_on_c, 0, 60, 119
1, 17220, Note_on_c, 0, 63, 91
1, 17220, Note_on_c, 1, 29, 120
1, 17221, Note_on_c, 4, 63, 0
1, 17221, Note_on_c, 15, 63, 0
1, 17250, Note_on_c, 3, 65, 113
1, 17250, Note_on_c, 4, 60, 120
1, 17250, Note_on_c, 15, 60, 1
1, 17250, Lyric_t, "see "
1, 17280, Note_on_c, 9, 36, 120
1, 17317, Note_on_c, 9, 36, 0
1, 17321, Note_on_c, 1, 29, 0
1, 17340, Note_on_c, 1, 41, 120
1, 17374, Note_on_c, 1, 41, 0
1, 17394, Note_on_c, 0, 60, 0
1, 17396, Note_on_c, 0, 63, 0
1, 17399, Note_on_c, 0, 56, 0
1, 17400, Note_on_c, 0, 56, 86
1, 17400, Note_on_c, 0, 60, 116
1, 17400, Note_on_c, 0, 63, 78
1, 17400, Note_on_c, 1, 41, 120
1, 17400, Note_on_c, 9, 38, 120
1, 17403, Note_on_c, 15, 60, 0
1, 17403, Note_on_c, 4, 60, 0
1, 17415, Note_on_c, 3, 65, 0
1, 17427, Note_on_c, 0, 60, 0
1, 17429, Note_on_c, 0, 56, 0
1, 17430, Note_on_c, 0, 63, 0
1, 17430, Note_on_c, 3, 67, 120
1, 17430, Note_on_c, 4, 63, 120
1, 17430, Note_on_c, 15, 63, 1
1, 17430, Lyric_t, "in "
1, 17432, Note_on_c, 1, 41, 0
1, 17441, Note_on_c, 9, 38, 0
1, 17451, Note_on_c, 3, 67, 0
1, 17453, Note_on_c, 4, 63, 0
1, 17453, Note_on_c, 15, 63, 0
1, 17460, Note_on_c, 0, 56, 53
1, 17460, Note_on_c, 0, 60, 98
1, 17460, Note_on_c, 0, 63, 60
1, 17460, Note_on_c, 3, 68, 115
1, 17460, Note_on_c, 4, 65, 105
1, 17460, Note_on_c, 15, 65, 1
1, 17460, Lyric_t, "my "
1, 17461, Note_on_c, 0, 63, 0
1, 17461, Note_on_c, 0, 56, 0
1, 17461, Note_on_c, 0, 60, 0
1, 17481, Note_on_c, 3, 68, 0
1, 17486, Note_on_c, 4, 65, 0
1, 17486, Note_on_c, 15, 65, 0
1, 17490, Note_on_c, 0, 56, 70
1, 17490, Note_on_c, 0, 60, 101
1, 17490, Note_on_c, 0, 63, 62
1, 17490, Note_on_c, 3, 67, 118
1, 17490, Note_on_c, 4, 63, 120
1, 17490, Note_on_c, 15, 63, 1
1, 17490, Lyric_t, "dreams "
1, 17490, Lyric_t, "\015"
1, 17491, Note_on_c, 0, 63, 0
1, 17491, Note_on_c, 0, 56, 0
1, 17491, Note_on_c, 0, 60, 0
1, 17520, Note_on_c, 0, 56, 92
1, 17520, Note_on_c, 0, 60, 118
1, 17520, Note_on_c, 0, 63, 92
1, 17520, Note_on_c, 1, 29, 120
1, 17520, Note_on_c, 9, 36, 120
1, 17555, Note_on_c, 1, 29, 0
1, 17558, Note_on_c, 0, 60, 0
1, 17559, Note_on_c, 9, 36, 0
1, 17561, Note_on_c, 0, 56, 0
1, 17562, Note_on_c, 0, 63, 0
1, 17580, Note_on_c, 0, 56, 62
1, 17580, Note_on_c, 0, 60, 97
1, 17580, Note_on_c, 0, 63, 62
1, 17581, Note_on_c, 0, 63, 0
1, 17581, Note_on_c, 0, 56, 0
1, 17581, Note_on_c, 0, 60, 0
1, 17640, Note_on_c, 0, 60, 116
1, 17640, Note_on_c, 0, 63, 92
1, 17640, Note_on_c, 0, 67, 111
1, 17640, Note_on_c, 1, 29, 116
1, 17640, Note_on_c, 9, 38, 120
1, 17653, Note_on_c, 15, 63, 0
1, 17653, Note_on_c, 4, 63, 0
1, 17670, Note_on_c, 1, 29, 0
1, 17673, Note_on_c, 9, 38, 0
1, 17679, Note_on_c, 0, 60, 0
1, 17682, Note_on_c, 0, 63, 0
1, 17682, Note_on_c, 0, 67, 0
1, 17695, Note_on_c, 3, 67, 0
1, 17730, Note_on_c, 3, 63, 120
1, 17730, Lyric_t, "I "
1, 17750, Note_on_c, 3, 63, 0
1, 17760, Note_on_c, 0, 58, 92
1, 17760, Note_on_c, 0, 62, 116
1, 17760, Note_on_c, 0, 65, 94
1, 17760, Note_on_c, 1, 31, 120
1, 17760, Note_on_c, 3, 65, 89
1, 17760, Note_on_c, 9, 36, 120
1, 17760, Lyric_t, "would"
1, 17783, Note_on_c, 3, 65, 0
1, 17790, Note_on_c, 3, 63, 115
1, 17790, Lyric_t, "n't "
1, 17791, Note_on_c, 9, 36, 0
1, 17806, Note_on_c, 1, 31, 0
1, 17810, Note_on_c, 3, 63, 0
1, 17820, Note_on_c, 1, 43, 119
1, 17820, Note_on_c, 3, 65, 98
1, 17820, Lyric_t, "say "
1, 17860, Note_on_c, 3, 65, 0
1, 17862, Note_on_c, 0, 65, 0
1, 17871, Note_on_c, 1, 43, 0
1, 17871, Note_on_c, 0, 62, 0
1, 17875, Note_on_c, 0, 58, 0
1, 17880, Note_on_c, 3, 65, 116
1, 17880, Note_on_c, 9, 38, 120
1, 17880, Lyric_t, "that "
1, 17906, Note_on_c, 9, 38, 0
1, 17906, Note_on_c, 3, 65, 0
1, 17940, Note_on_c, 0, 58, 48
1, 17940, Note_on_c, 0, 62, 100
1, 17940, Note_on_c, 0, 65, 71
1, 17940, Note_on_c, 3, 65, 116
1, 17940, Lyric_t, "to "
1, 17941, Note_on_c, 0, 65, 0
1, 17941, Note_on_c, 0, 58, 0
1, 17941, Note_on_c, 0, 62, 0
1, 17966, Note_on_c, 3, 65, 0
1, 17970, Note_on_c, 0, 58, 71
1, 17970, Note_on_c, 0, 62, 98
1, 17970, Note_on_c, 0, 65, 78
1, 17970, Note_on_c, 3, 63, 87
1, 17970, Lyric_t, "you "
1, 17970, Lyric_t, "\015"
1, 17971, Note_on_c, 0, 65, 0
1, 17971, Note_on_c, 0, 58, 0
1, 17971, Note_on_c, 0, 62, 0
1, 17993, Note_on_c, 3, 63, 0
1, 18000, Note_on_c, 0, 55, 103
1, 18000, Note_on_c, 0, 58, 92
1, 18000, Note_on_c, 0, 62, 113
1, 18000, Note_on_c, 0, 65, 83
1, 18000, Note_on_c, 1, 31, 119
1, 18000, Note_on_c, 3, 65, 97
1, 18000, Note_on_c, 9, 36, 120
1, 18000, Lyric_t, "if "
1, 18020, Note_on_c, 3, 65, 0
1, 18027, Note_on_c, 9, 36, 0
1, 18029, Note_on_c, 1, 31, 0
1, 18030, Note_on_c, 3, 63, 119
1, 18030, Lyric_t, "it "
1, 18042, Note_on_c, 0, 62, 0
1, 18043, Note_on_c, 0, 55, 0
1, 18044, Note_on_c, 0, 58, 0
1, 18051, Note_on_c, 0, 65, 0
1, 18060, Note_on_c, 0, 58, 57
1, 18060, Note_on_c, 0, 62, 94
1, 18060, Note_on_c, 0, 65, 59
1, 18061, Note_on_c, 0, 65, 0
1, 18061, Note_on_c, 3, 63, 0
1, 18061, Note_on_c, 0, 58, 0
1, 18061, Note_on_c, 0, 62, 0
1, 18090, Note_on_c, 0, 58, 92
1, 18090, Note_on_c, 0, 62, 111
1, 18090, Note_on_c, 0, 65, 87
1, 18090, Note_on_c, 1, 34, 120
1, 18120, Note_on_c, 3, 65, 119
1, 18120, Note_on_c, 9, 38, 120
1, 18120, Lyric_t, "was"
1, 18121, Note_on_c, 1, 34, 0
1, 18126, Note_on_c, 0, 62, 0
1, 18128, Note_on_c, 0, 58, 0
1, 18131, Note_on_c, 0, 65, 0
1, 18142, Note_on_c, 3, 65, 0
1, 18146, Note_on_c, 9, 38, 0
1, 18150, Note_on_c, 0, 58, 70
1, 18150, Note_on_c, 0, 62, 78
1, 18150, Note_on_c, 0, 65, 72
1, 18150, Note_on_c, 3, 63, 119
1, 18150, Lyric_t, "n't "
1, 18151, Note_on_c, 0, 65, 0
1, 18151, Note_on_c, 0, 58, 0
1, 18151, Note_on_c, 0, 62, 0
1, 18180, Note_on_c, 0, 60, 113
1, 18180, Note_on_c, 0, 63, 87
1, 18180, Note_on_c, 0, 67, 105
1, 18180, Note_on_c, 1, 36, 120
1, 18214, Note_on_c, 3, 63, 0
1, 18240, Note_on_c, 3, 67, 120
1, 18240, Note_on_c, 9, 36, 120
1, 18240, Lyric_t, "true "
1, 18240, Lyric_t, "\015"
1, 18269, Note_on_c, 9, 36, 0
1, 18297, Note_on_c, 1, 36, 0
1, 18300, Note_on_c, 1, 48, 120
1, 18306, Note_on_c, 3, 67, 0
1, 18336, Note_on_c, 1, 48, 0
1, 18359, Note_on_c, 0, 60, 0
1, 18359, Note_on_c, 0, 67, 0
1, 18360, Note_on_c, 0, 60, 105
1, 18360, Note_on_c, 0, 63, 92
1, 18360, Note_on_c, 0, 67, 61
1, 18360, Note_on_c, 9, 38, 120
1, 18361, Note_on_c, 0, 67, 0
1, 18361, Note_on_c, 0, 63, 0
1, 18361, Note_on_c, 0, 63, 0
1, 18361, Note_on_c, 0, 60, 0
1, 18387, Note_on_c, 9, 38, 0
1, 18420, Note_on_c, 1, 34, 98
1, 18449, Note_on_c, 1, 34, 0
1, 18450, Note_on_c, 1, 36, 111
1, 18479, Note_on_c, 1, 36, 0
1, 18480, Note_on_c, 0, 60, 94
1, 18480, Note_on_c, 0, 63, 94
1, 18480, Note_on_c, 0, 67, 100
1, 18480, Note_on_c, 1, 39, 94
1, 18480, Note_on_c, 9, 36, 120
1, 18506, Note_on_c, 9, 36, 0
1, 18509, Note_on_c, 1, 39, 0
1, 18510, Note_on_c, 1, 36, 118
1, 18513, Note_on_c, 0, 67, 0
1, 18513, Note_on_c, 0, 60, 0
1, 18517, Note_on_c, 0, 63, 0
1, 18546, Note_on_c, 1, 36, 0
1, 18600, Note_on_c, 0, 58, 92
1, 18600, Note_on_c, 0, 62, 119
1, 18600, Note_on_c, 0, 65, 105
1, 18600, Note_on_c, 1, 34, 109
1, 18600, Note_on_c, 3, 58, 120
1, 18600, Note_on_c, 4, 55, 120
1, 18600, Note_on_c, 4, 58, 120
1, 18600, Note_on_c, 9, 38, 120
1, 18600, Note_on_c, 15, 58, 1
1, 18600, Note_on_c, 15, 55, 1
1, 18600, Lyric_t, "Oh "
1, 18622, Note_on_c, 9, 38, 0
1, 18628, Note_on_c, 0, 62, 0
1, 18633, Note_on_c, 0, 58, 0
1, 18634, Note_on_c, 0, 65, 0
1, 18703, Note_on_c, 1, 34, 0
1, 18708, Note_on_c, 15, 58, 0
1, 18708, Note_on_c, 4, 58, 0
1, 18714, Note_on_c, 3, 58, 0
1, 18720, Note_on_c, 4, 55, 0
1, 18720, Note_on_c, 15, 55, 0
1, 18720, Note_on_c, 0, 60, 105
1, 18720, Note_on_c, 0, 63, 98
1, 18720, Note_on_c, 0, 67, 118
1, 18720, Note_on_c, 1, 32, 120
1, 18720, Note_on_c, 3, 70, 120
1, 18720, Note_on_c, 4, 63, 119
1, 18720, Note_on_c, 4, 67, 113
1, 18720, Note_on_c, 6, 82, 120
1, 18720, Note_on_c, 7, 82, 92
1, 18720, Note_on_c, 9, 36, 120
1, 18720, Note_on_c, 15, 67, 1
1, 18720, Note_on_c, 15, 63, 1
1, 18720, Lyric_t, "whoa"
1, 18763, Note_on_c, 9, 36, 0
1, 18779, Note_on_c, 1, 32, 0
1, 18780, Note_on_c, 1, 44, 120
1, 18799, Note_on_c, 15, 63, 0
1, 18799, Note_on_c, 4, 63, 0
1, 18801, Note_on_c, 15, 67, 0
1, 18801, Note_on_c, 4, 67, 0
1, 18810, Note_on_c, 3, 68, 120
1, 18810, Note_on_c, 4, 58, 120
1, 18810, Note_on_c, 4, 63, 94
1, 18810, Note_on_c, 15, 63, 1
1, 18810, Note_on_c, 15, 58, 1
1, 18815, Note_on_c, 1, 44, 0
1, 18822, Note_on_c, 3, 70, 0
1, 18824, Note_on_c, 15, 63, 0
1, 18824, Note_on_c, 4, 63, 0
1, 18825, Note_on_c, 4, 58, 0
1, 18825, Note_on_c, 15, 58, 0
1, 18830, Note_on_c, 0, 67, 0
1, 18830, Note_on_c, 3, 68, 0
1, 18832, Note_on_c, 7, 82, 0
1, 18836, Note_on_c, 0, 63, 0
1, 18838, Note_on_c, 0, 60, 0
1, 18840, Note_on_c, 3, 67, 107
1, 18840, Note_on_c, 4, 58, 102
1, 18840, Note_on_c, 4, 63, 119
1, 18840, Note_on_c, 6, 79, 109
1, 18840, Note_on_c, 7, 79, 98
1, 18840, Note_on_c, 9, 38, 120
1, 18840, Note_on_c, 15, 63, 1
1, 18840, Note_on_c, 15, 58, 1
1, 18840, Lyric_t, "oh"
1, 18850, Note_on_c, 6, 82, 0
1, 18870, Note_on_c, 0, 60, 83
1, 18870, Note_on_c, 0, 63, 73
1, 18870, Note_on_c, 0, 67, 82
1, 18871, Note_on_c, 0, 67, 0
1, 18871, Note_on_c, 0, 63, 0
1, 18871, Note_on_c, 0, 60, 0
1, 18879, Note_on_c, 9, 38, 0
1, 18900, Note_on_c, 0, 60, 98
1, 18900, Note_on_c, 0, 63, 80
1, 18900, Note_on_c, 0, 67, 91
1, 18901, Note_on_c, 0, 67, 0
1, 18901, Note_on_c, 0, 63, 0
1, 18901, Note_on_c, 0, 60, 0
1, 18915, Note_on_c, 15, 63, 0
1, 18915, Note_on_c, 4, 63, 0
1, 18920, Note_on_c, 4, 58, 0
1, 18920, Note_on_c, 3, 67, 0
1, 18920, Note_on_c, 15, 58, 0
1, 18930, Note_on_c, 0, 60, 98
1, 18930, Note_on_c, 0, 63, 77
1, 18930, Note_on_c, 0, 67, 90
1, 18930, Note_on_c, 3, 65, 105
1, 18930, Note_on_c, 4, 55, 119
1, 18930, Note_on_c, 4, 58, 111
1, 18930, Note_on_c, 15, 58, 1
1, 18930, Note_on_c, 15, 55, 1
1, 18931, Note_on_c, 0, 67, 0
1, 18931, Note_on_c, 0, 63, 0
1, 18931, Note_on_c, 0, 60, 0
1, 18941, Note_on_c, 15, 55, 0
1, 18941, Note_on_c, 4, 55, 0
1, 18945, Note_on_c, 15, 58, 0
1, 18945, Note_on_c, 4, 58, 0
1, 18956, Note_on_c, 3, 65, 0
1, 18960, Note_on_c, 0, 56, 96
1, 18960, Note_on_c, 0, 60, 119
1, 18960, Note_on_c, 0, 63, 91
1, 18960, Note_on_c, 1, 32, 120
1, 18960, Note_on_c, 3, 63, 120
1, 18960, Note_on_c, 4, 55, 120
1, 18960, Note_on_c, 4, 58, 115
1, 18960, Note_on_c, 6, 75, 119
1, 18960, Note_on_c, 7, 75, 100
1, 18960, Note_on_c, 9, 36, 120
1, 18960, Note_on_c, 15, 58, 1
1, 18960, Note_on_c, 15, 55, 1
1, 18960, Lyric_t, "oh "
1, 18960, Lyric_t, "\015"
1, 18963, Note_on_c, 7, 79, 0
1, 18968, Note_on_c, 6, 79, 0
1, 18989, Note_on_c, 0, 56, 0
1, 18991, Note_on_c, 0, 60, 0
1, 18991, Note_on_c, 1, 32, 0
1, 18994, Note_on_c, 0, 63, 0
1, 18998, Note_on_c, 9, 36, 0
1, 19020, Note_on_c, 0, 56, 82
1, 19020, Note_on_c, 0, 60, 111
1, 19020, Note_on_c, 0, 63, 80
1, 19021, Note_on_c, 0, 63, 0
1, 19021, Note_on_c, 0, 60, 0
1, 19021, Note_on_c, 0, 56, 0
1, 19050, Note_on_c, 0, 58, 91
1, 19050, Note_on_c, 0, 62, 119
1, 19050, Note_on_c, 0, 65, 89
1, 19050, Note_on_c, 1, 31, 116
1, 19063, Note_on_c, 4, 55, 0
1, 19063, Note_on_c, 15, 55, 0
1, 19071, Note_on_c, 6, 75, 0
1, 19072, Note_on_c, 1, 31, 0
1, 19076, Note_on_c, 0, 58, 0
1, 19077, Note_on_c, 15, 58, 0
1, 19077, Note_on_c, 4, 58, 0
1, 19078, Note_on_c, 0, 65, 0
1, 19079, Note_on_c, 0, 62, 0
1, 19079, Note_on_c, 7, 75, 0
1, 19079, Note_on_c, 3, 63, 0
1, 19080, Note_on_c, 6, 72, 120
1, 19080, Note_on_c, 7, 72, 111
1, 19080, Note_on_c, 9, 38, 120
1, 19110, Note_on_c, 0, 58, 60
1, 19110, Note_on_c, 0, 62, 109
1, 19110, Note_on_c, 0, 65, 77
1, 19111, Note_on_c, 0, 65, 0
1, 19111, Note_on_c, 0, 58, 0
1, 19111, Note_on_c, 0, 62, 0
1, 19118, Note_on_c, 9, 38, 0
1, 19140, Note_on_c, 0, 56, 91
1, 19140, Note_on_c, 0, 60, 119
1, 19140, Note_on_c, 0, 63, 91
1, 19140, Note_on_c, 1, 29, 120
1, 19140, Note_on_c, 3, 72, 119
1, 19140, Lyric_t, "I "
1, 19163, Note_on_c, 3, 72, 0
1, 19200, Note_on_c, 3, 67, 119
1, 19200, Note_on_c, 6, 70, 120
1, 19200, Note_on_c, 7, 70, 102
1, 19200, Note_on_c, 9, 36, 120
1, 19200, Lyric_t, "know "
1, 19203, Note_on_c, 6, 72, 0
1, 19204, Note_on_c, 7, 72, 0
1, 19237, Note_on_c, 9, 36, 0
1, 19241, Note_on_c, 1, 29, 0
1, 19258, Note_on_c, 3, 67, 0
1, 19260, Note_on_c, 1, 41, 120
1, 19260, Note_on_c, 3, 65, 111
1, 19260, Lyric_t, "that "
1, 19281, Note_on_c, 3, 65, 0
1, 19294, Note_on_c, 1, 41, 0
1, 19314, Note_on_c, 0, 60, 0
1, 19316, Note_on_c, 0, 63, 0
1, 19319, Note_on_c, 0, 56, 0
1, 19320, Note_on_c, 0, 56, 86
1, 19320, Note_on_c, 0, 60, 116
1, 19320, Note_on_c, 0, 63, 78
1, 19320, Note_on_c, 1, 41, 120
1, 19320, Note_on_c, 3, 65, 92
1, 19320, Note_on_c, 9, 38, 120
1, 19320, Lyric_t, "you "
1, 19347, Note_on_c, 0, 60, 0
1, 19349, Note_on_c, 0, 56, 0
1, 19350, Note_on_c, 0, 63, 0
1, 19352, Note_on_c, 1, 41, 0
1, 19361, Note_on_c, 9, 38, 0
1, 19374, Note_on_c, 3, 65, 0
1, 19380, Note_on_c, 0, 56, 53
1, 19380, Note_on_c, 0, 60, 98
1, 19380, Note_on_c, 0, 63, 60
1, 19380, Note_on_c, 3, 63, 109
1, 19380, Lyric_t, "don't "
1, 19381, Note_on_c, 0, 63, 0
1, 19381, Note_on_c, 0, 60, 0
1, 19381, Note_on_c, 0, 56, 0
1, 19407, Note_on_c, 3, 63, 0
1, 19410, Note_on_c, 0, 56, 70
1, 19410, Note_on_c, 0, 60, 101
1, 19410, Note_on_c, 0, 63, 62
1, 19411, Note_on_c, 0, 63, 0
1, 19411, Note_on_c, 0, 56, 0
1, 19411, Note_on_c, 0, 60, 0
1, 19440, Note_on_c, 0, 56, 92
1, 19440, Note_on_c, 0, 60, 118
1, 19440, Note_on_c, 0, 63, 92
1, 19440, Note_on_c, 1, 29, 120
1, 19440, Note_on_c, 3, 63, 120
1, 19440, Note_on_c, 9, 36, 120
1, 19440, Lyric_t, "know "
1, 19475, Note_on_c, 1, 29, 0
1, 19478, Note_on_c, 0, 60, 0
1, 19479, Note_on_c, 9, 36, 0
1, 19481, Note_on_c, 0, 56, 0
1, 19482, Note_on_c, 0, 63, 0
1, 19486, Note_on_c, 3, 63, 0
1, 19500, Note_on_c, 0, 56, 62
1, 19500, Note_on_c, 0, 60, 97
1, 19500, Note_on_c, 0, 63, 62
1, 19500, Note_on_c, 3, 58, 120
1, 19500, Lyric_t, "it, "
1, 19500, Lyric_t, "\015"
1, 19501, Note_on_c, 0, 63, 0
1, 19501, Note_on_c, 0, 60, 0
1, 19501, Note_on_c, 0, 56, 0
1, 19537, Note_on_c, 3, 58, 0
1, 19538, Note_on_c, 6, 70, 0
1, 19554, Note_on_c, 7, 70, 0
1, 19560, Note_on_c, 0, 60, 116
1, 19560, Note_on_c, 0, 63, 92
1, 19560, Note_on_c, 0, 67, 111
1, 19560, Note_on_c, 1, 29, 116
1, 19560, Note_on_c, 3, 60, 116
1, 19560, Note_on_c, 9, 38, 120
1, 19560, Lyric_t, "but "
1, 19590, Note_on_c, 1, 29, 0
1, 19593, Note_on_c, 9, 38, 0
1, 19596, Note_on_c, 3, 60, 0
1, 19599, Note_on_c, 0, 60, 0
1, 19602, Note_on_c, 0, 67, 0
1, 19602, Note_on_c, 0, 63, 0
1, 19620, Note_on_c, 3, 58, 120
1, 19620, Lyric_t, "you're "
1, 19655, Note_on_c, 3, 58, 0
1, 19680, Note_on_c, 0, 58, 92
1, 19680, Note_on_c, 0, 62, 116
1, 19680, Note_on_c, 0, 65, 94
1, 19680, Note_on_c, 1, 31, 120
1, 19680, Note_on_c, 3, 67, 120
1, 19680, Note_on_c, 9, 36, 120
1, 19680, Lyric_t, "fine, "
1, 19711, Note_on_c, 9, 36, 0
1, 19726, Note_on_c, 1, 31, 0
1, 19740, Note_on_c, 1, 43, 119
1, 19762, Note_on_c, 3, 67, 0
1, 19782, Note_on_c, 0, 65, 0
1, 19791, Note_on_c, 1, 43, 0
1, 19791, Note_on_c, 0, 62, 0
1, 19795, Note_on_c, 0, 58, 0
1, 19800, Note_on_c, 3, 68, 119
1, 19800, Note_on_c, 9, 38, 120
1, 19800, Lyric_t, "so "
1, 19826, Note_on_c, 9, 38, 0
1, 19860, Note_on_c, 0, 58, 48
1, 19860, Note_on_c, 0, 62, 100
1, 19860, Note_on_c, 0, 65, 71
1, 19861, Note_on_c, 0, 65, 0
1, 19861, Note_on_c, 0, 62, 0
1, 19861, Note_on_c, 0, 58, 0
1, 19890, Note_on_c, 0, 58, 71
1, 19890, Note_on_c, 0, 62, 98
1, 19890, Note_on_c, 0, 65, 78
1, 19891, Note_on_c, 0, 65, 0
1, 19891, Note_on_c, 0, 62, 0
1, 19891, Note_on_c, 0, 58, 0
1, 19900, Note_on_c, 3, 68, 0
1, 19920, Note_on_c, 0, 55, 103
1, 19920, Note_on_c, 0, 58, 92
1, 19920, Note_on_c, 0, 62, 113
1, 19920, Note_on_c, 0, 65, 83
1, 19920, Note_on_c, 1, 31, 119
1, 19920, Note_on_c, 3, 67, 119
1, 19920, Note_on_c, 9, 36, 120
1, 19920, Lyric_t, "fine "
1, 19920, Lyric_t, "\015"
1, 19947, Note_on_c, 9, 36, 0
1, 19949, Note_on_c, 1, 31, 0
1, 19962, Note_on_c, 0, 62, 0
1, 19963, Note_on_c, 0, 55, 0
1, 19964, Note_on_c, 0, 58, 0
1, 19971, Note_on_c, 0, 65, 0
1, 19980, Note_on_c, 0, 58, 57
1, 19980, Note_on_c, 0, 62, 94
1, 19980, Note_on_c, 0, 65, 59
1, 19981, Note_on_c, 0, 65, 0
1, 19981, Note_on_c, 0, 62, 0
1, 19981, Note_on_c, 0, 58, 0
1, 20006, Note_on_c, 3, 67, 0
1, 20010, Note_on_c, 0, 58, 92
1, 20010, Note_on_c, 0, 62, 111
1, 20010, Note_on_c, 0, 65, 87
1, 20010, Note_on_c, 1, 34, 120
1, 20040, Note_on_c, 9, 38, 120
1, 20041, Note_on_c, 1, 34, 0
1, 20046, Note_on_c, 0, 62, 0
1, 20048, Note_on_c, 0, 58, 0
1, 20051, Note_on_c, 0, 65, 0
1, 20066, Note_on_c, 9, 38, 0
1, 20070, Note_on_c, 0, 58, 70
1, 20070, Note_on_c, 0, 62, 78
1, 20070, Note_on_c, 0, 65, 72
1, 20071, Note_on_c, 0, 65, 0
1, 20071, Note_on_c, 0, 62, 0
1, 20071, Note_on_c, 0, 58, 0
1, 20100, Note_on_c, 0, 60, 113
1, 20100, Note_on_c, 0, 63, 87
1, 20100, Note_on_c, 0, 67, 105
1, 20100, Note_on_c, 1, 36, 120
1, 20160, Note_on_c, 4, 58, 120
1, 20160, Note_on_c, 4, 63, 119
1, 20160, Note_on_c, 5, 67, 120
1, 20160, Note_on_c, 9, 36, 120
1, 20160, Note_on_c, 15, 63, 1
1, 20160, Note_on_c, 15, 58, 1
1, 20160, Lyric_t, "(fine, "
1, 20189, Note_on_c, 9, 36, 0
1, 20217, Note_on_c, 1, 36, 0
1, 20220, Note_on_c, 1, 48, 120
1, 20252, Note_on_c, 4, 58, 0
1, 20252, Note_on_c, 15, 58, 0
1, 20256, Note_on_c, 15, 63, 0
1, 20256, Note_on_c, 1, 48, 0
1, 20256, Note_on_c, 4, 63, 0
1, 20258, Note_on_c, 5, 67, 0
1, 20279, Note_on_c, 0, 67, 0
1, 20279, Note_on_c, 0, 60, 0
1, 20280, Note_on_c, 0, 60, 105
1, 20280, Note_on_c, 0, 63, 92
1, 20280, Note_on_c, 0, 67, 61
1, 20280, Note_on_c, 4, 58, 119
1, 20280, Note_on_c, 4, 65, 101
1, 20280, Note_on_c, 5, 68, 119
1, 20280, Note_on_c, 9, 38, 120
1, 20280, Note_on_c, 15, 65, 1
1, 20280, Note_on_c, 15, 58, 1
1, 20280, Lyric_t, "so "
1, 20281, Note_on_c, 0, 67, 0
1, 20281, Note_on_c, 0, 63, 0
1, 20281, Note_on_c, 0, 63, 0
1, 20281, Note_on_c, 0, 60, 0
1, 20307, Note_on_c, 9, 38, 0
1, 20340, Note_on_c, 1, 34, 98
1, 20369, Note_on_c, 1, 34, 0
1, 20370, Note_on_c, 1, 36, 111
1, 20371, Note_on_c, 15, 58, 0
1, 20371, Note_on_c, 4, 58, 0
1, 20374, Note_on_c, 4, 65, 0
1, 20374, Note_on_c, 15, 65, 0
1, 20376, Note_on_c, 5, 68, 0
1, 20399, Note_on_c, 1, 36, 0
1, 20400, Note_on_c, 0, 60, 94
1, 20400, Note_on_c, 0, 63, 94
1, 20400, Note_on_c, 0, 67, 100
1, 20400, Note_on_c, 1, 39, 94
1, 20400, Note_on_c, 4, 58, 109
1, 20400, Note_on_c, 4, 63, 111
1, 20400, Note_on_c, 5, 67, 120
1, 20400, Note_on_c, 9, 36, 120
1, 20400, Note_on_c, 15, 63, 1
1, 20400, Note_on_c, 15, 58, 1
1, 20400, Lyric_t, "fi"
1, 20426, Note_on_c, 9, 36, 0
1, 20429, Note_on_c, 1, 39, 0
1, 20430, Note_on_c, 1, 36, 118
1, 20433, Note_on_c, 0, 67, 0
1, 20433, Note_on_c, 0, 60, 0
1, 20437, Note_on_c, 0, 63, 0
1, 20445, Note_on_c, 4, 58, 0
1, 20445, Note_on_c, 15, 58, 0
1, 20447, Note_on_c, 15, 63, 0
1, 20447, Note_on_c, 4, 63, 0
1, 20460, Note_on_c, 4, 58, 111
1, 20460, Note_on_c, 4, 63, 98
1, 20460, Note_on_c, 5, 65, 111
1, 20460, Note_on_c, 15, 63, 1
1, 20460, Note_on_c, 15, 58, 1
1, 20460, Lyric_t, "ne) "
1, 20460, Lyric_t, "\015"
1, 20464, Note_on_c, 5, 67, 0
1, 20466, Note_on_c, 1, 36, 0
1, 20496, Note_on_c, 4, 58, 0
1, 20496, Note_on_c, 15, 58, 0
1, 20497, Note_on_c, 4, 63, 0
1, 20497, Note_on_c, 15, 63, 0
1, 20499, Note_on_c, 5, 65, 0
1, 20520, Note_on_c, 0, 58, 92
1, 20520, Note_on_c, 0, 62, 119
1, 20520, Note_on_c, 0, 65, 105
1, 20520, Note_on_c, 1, 34, 109
1, 20520, Note_on_c, 3, 58, 119
1, 20520, Note_on_c, 4, 55, 120
1, 20520, Note_on_c, 4, 58, 120
1, 20520, Note_on_c, 9, 38, 120
1, 20520, Note_on_c, 15, 58, 1
1, 20520, Note_on_c, 15, 55, 1
1, 20520, Lyric_t, "Oh "
1, 20542, Note_on_c, 9, 38, 0
1, 20548, Note_on_c, 0, 62, 0
1, 20553, Note_on_c, 0, 58, 0
1, 20554, Note_on_c, 0, 65, 0
1, 20618, Note_on_c, 15, 58, 0
1, 20618, Note_on_c, 4, 58, 0
1, 20619, Note_on_c, 15, 55, 0
1, 20619, Note_on_c, 4, 55, 0
1, 20623, Note_on_c, 1, 34, 0
1, 20624, Note_on_c, 3, 58, 0
1, 20640, Note_on_c, 0, 60, 105
1, 20640, Note_on_c, 0, 63, 98
1, 20640, Note_on_c, 0, 67, 118
1, 20640, Note_on_c, 1, 32, 120
1, 20640, Note_on_c, 3, 70, 119
1, 20640, Note_on_c, 4, 63, 119
1, 20640, Note_on_c, 4, 67, 116
1, 20640, Note_on_c, 6, 82, 120
1, 20640, Note_on_c, 7, 82, 92
1, 20640, Note_on_c, 9, 36, 120
1, 20640, Note_on_c, 15, 67, 1
1, 20640, Note_on_c, 15, 63, 1
1, 20640, Lyric_t, "whoa"
1, 20683, Note_on_c, 9, 36, 0
1, 20699, Note_on_c, 1, 32, 0
1, 20700, Note_on_c, 1, 44, 120
1, 20709, Note_on_c, 15, 67, 0
1, 20709, Note_on_c, 4, 67, 0
1, 20713, Note_on_c, 15, 63, 0
1, 20713, Note_on_c, 4, 63, 0
1, 20730, Note_on_c, 3, 68, 119
1, 20730, Note_on_c, 4, 58, 98
1, 20730, Note_on_c, 4, 63, 102
1, 20730, Note_on_c, 15, 63, 1
1, 20730, Note_on_c, 15, 58, 1
1, 20735, Note_on_c, 1, 44, 0
1, 20735, Note_on_c, 3, 70, 0
1, 20738, Note_on_c, 4, 58, 0
1, 20738, Note_on_c, 15, 58, 0
1, 20744, Note_on_c, 4, 63, 0
1, 20744, Note_on_c, 15, 63, 0
1, 20750, Note_on_c, 0, 67, 0
1, 20752, Note_on_c, 7, 82, 0
1, 20752, Note_on_c, 3, 68, 0
1, 20756, Note_on_c, 0, 63, 0
1, 20758, Note_on_c, 0, 60, 0
1, 20760, Note_on_c, 3, 67, 111
1, 20760, Note_on_c, 4, 58, 109
1, 20760, Note_on_c, 4, 63, 106
1, 20760, Note_on_c, 6, 79, 109
1, 20760, Note_on_c, 7, 79, 98
1, 20760, Note_on_c, 9, 38, 120
1, 20760, Note_on_c, 15, 58, 1
1, 20760, Note_on_c, 15, 63, 1
1, 20760, Lyric_t, "oh"
1, 20770, Note_on_c, 6, 82, 0
1, 20790, Note_on_c, 0, 60, 83
1, 20790, Note_on_c, 0, 63, 73
1, 20790, Note_on_c, 0, 67, 82
1, 20791, Note_on_c, 0, 67, 0
1, 20791, Note_on_c, 0, 63, 0
1, 20791, Note_on_c, 0, 60, 0
1, 20799, Note_on_c, 9, 38, 0
1, 20820, Note_on_c, 0, 60, 98
1, 20820, Note_on_c, 0, 63, 80
1, 20820, Note_on_c, 0, 67, 91
1, 20821, Note_on_c, 0, 67, 0
1, 20821, Note_on_c, 0, 63, 0
1, 20821, Note_on_c, 0, 60, 0
1, 20828, Note_on_c, 15, 58, 0
1, 20828, Note_on_c, 4, 58, 0
1, 20839, Note_on_c, 15, 63, 0
1, 20839, Note_on_c, 4, 63, 0
1, 20850, Note_on_c, 0, 60, 98
1, 20850, Note_on_c, 0, 63, 77
1, 20850, Note_on_c, 0, 67, 90
1, 20850, Note_on_c, 3, 65, 111
1, 20850, Note_on_c, 4, 55, 120
1, 20850, Note_on_c, 4, 58, 119
1, 20850, Note_on_c, 15, 55, 1
1, 20850, Note_on_c, 15, 58, 1
1, 20851, Note_on_c, 0, 67, 0
1, 20851, Note_on_c, 0, 60, 0
1, 20851, Note_on_c, 0, 63, 0
1, 20852, Note_on_c, 3, 67, 0
1, 20866, Note_on_c, 4, 55, 0
1, 20866, Note_on_c, 4, 58, 0
1, 20866, Note_on_c, 15, 58, 0
1, 20866, Note_on_c, 15, 55, 0
1, 20871, Note_on_c, 3, 65, 0
1, 20880, Note_on_c, 0, 56, 96
1, 20880, Note_on_c, 0, 60, 119
1, 20880, Note_on_c, 0, 63, 91
1, 20880, Note_on_c, 1, 32, 120
1, 20880, Note_on_c, 3, 63, 119
1, 20880, Note_on_c, 4, 55, 111
1, 20880, Note_on_c, 4, 58, 115
1, 20880, Note_on_c, 6, 75, 119
1, 20880, Note_on_c, 7, 75, 100
1, 20880, Note_on_c, 9, 36, 120
1, 20880, Note_on_c, 15, 55, 1
1, 20880, Note_on_c, 15, 58, 1
1, 20880, Lyric_t, "oh "
1, 20880, Lyric_t, "\015"
1, 20883, Note_on_c, 7, 79, 0
1, 20888, Note_on_c, 6, 79, 0
1, 20909, Note_on_c, 0, 56, 0
1, 20911, Note_on_c, 0, 60, 0
1, 20911, Note_on_c, 1, 32, 0
1, 20914, Note_on_c, 0, 63, 0
1, 20918, Note_on_c, 9, 36, 0
1, 20940, Note_on_c, 0, 56, 82
1, 20940, Note_on_c, 0, 60, 111
1, 20940, Note_on_c, 0, 63, 80
1, 20941, Note_on_c, 0, 63, 0
1, 20941, Note_on_c, 0, 60, 0
1, 20941, Note_on_c, 0, 56, 0
1, 20970, Note_on_c, 0, 58, 91
1, 20970, Note_on_c, 0, 62, 119
1, 20970, Note_on_c, 0, 65, 89
1, 20970, Note_on_c, 1, 31, 116
1, 20989, Note_on_c, 4, 58, 0
1, 20989, Note_on_c, 4, 55, 0
1, 20989, Note_on_c, 15, 55, 0
1, 20989, Note_on_c, 15, 58, 0
1, 20991, Note_on_c, 6, 75, 0
1, 20992, Note_on_c, 1, 31, 0
1, 20996, Note_on_c, 0, 58, 0
1, 20998, Note_on_c, 0, 65, 0
1, 20999, Note_on_c, 0, 62, 0
1, 20999, Note_on_c, 7, 75, 0
1, 21000, Note_on_c, 6, 72, 120
1, 21000, Note_on_c, 7, 72, 111
1, 21000, Note_on_c, 9, 38, 120
1, 21030, Note_on_c, 0, 58, 60
1, 21030, Note_on_c, 0, 62, 109
1, 21030, Note_on_c, 0, 65, 77
1, 21031, Note_on_c, 0, 65, 0
1, 21031, Note_on_c, 0, 58, 0
1, 21031, Note_on_c, 0, 62, 0
1, 21036, Note_on_c, 3, 63, 0
1, 21038, Note_on_c, 9, 38, 0
1, 21060, Note_on_c, 0, 56, 91
1, 21060, Note_on_c, 0, 60, 119
1, 21060, Note_on_c, 0, 63, 91
1, 21060, Note_on_c, 1, 29, 120
1, 21060, Note_on_c, 3, 72, 116
1, 21060, Lyric_t, "Oh "
1, 21091, Note_on_c, 3, 72, 0
1, 21120, Note_on_c, 3, 67, 118
1, 21120, Note_on_c, 6, 70, 120
1, 21120, Note_on_c, 7, 70, 102
1, 21120, Note_on_c, 9, 36, 120
1, 21120, Lyric_t, "girl, "
1, 21123, Note_on_c, 6, 72, 0
1, 21124, Note_on_c, 7, 72, 0
1, 21157, Note_on_c, 9, 36, 0
1, 21161, Note_on_c, 1, 29, 0
1, 21168, Note_on_c, 3, 67, 0
1, 21180, Note_on_c, 1, 41, 120
1, 21180, Note_on_c, 3, 65, 97
1, 21180, Lyric_t, "I'm "
1, 21205, Note_on_c, 3, 65, 0
1, 21214, Note_on_c, 1, 41, 0
1, 21234, Note_on_c, 0, 60, 0
1, 21236, Note_on_c, 0, 63, 0
1, 21239, Note_on_c, 0, 56, 0
1, 21240, Note_on_c, 0, 56, 86
1, 21240, Note_on_c, 0, 60, 116
1, 21240, Note_on_c, 0, 63, 78
1, 21240, Note_on_c, 1, 41, 120
1, 21240, Note_on_c, 3, 65, 95
1, 21240, Note_on_c, 9, 38, 120
1, 21240, Lyric_t, "gon"
1, 21267, Note_on_c, 0, 60, 0
1, 21269, Note_on_c, 0, 56, 0
1, 21270, Note_on_c, 0, 63, 0
1, 21272, Note_on_c, 1, 41, 0
1, 21281, Note_on_c, 9, 38, 0
1, 21297, Note_on_c, 3, 65, 0
1, 21300, Note_on_c, 0, 56, 53
1, 21300, Note_on_c, 0, 60, 98
1, 21300, Note_on_c, 0, 63, 60
1, 21300, Note_on_c, 3, 63, 119
1, 21300, Lyric_t, "na "
1, 21301, Note_on_c, 0, 63, 0
1, 21301, Note_on_c, 0, 60, 0
1, 21301, Note_on_c, 0, 56, 0
1, 21330, Note_on_c, 0, 56, 70
1, 21330, Note_on_c, 0, 60, 101
1, 21330, Note_on_c, 0, 63, 62
1, 21331, Note_on_c, 0, 63, 0
1, 21331, Note_on_c, 0, 56, 0
1, 21331, Note_on_c, 0, 60, 0
1, 21333, Note_on_c, 3, 63, 0
1, 21360, Note_on_c, 0, 56, 92
1, 21360, Note_on_c, 0, 60, 118
1, 21360, Note_on_c, 0, 63, 92
1, 21360, Note_on_c, 1, 29, 120
1, 21360, Note_on_c, 3, 63, 120
1, 21360, Note_on_c, 9, 36, 120
1, 21360, Lyric_t, "show "
1, 21395, Note_on_c, 1, 29, 0
1, 21398, Note_on_c, 0, 60, 0
1, 21399, Note_on_c, 9, 36, 0
1, 21401, Note_on_c, 0, 56, 0
1, 21402, Note_on_c, 0, 63, 0
1, 21408, Note_on_c, 3, 63, 0
1, 21420, Note_on_c, 0, 56, 62
1, 21420, Note_on_c, 0, 60, 97
1, 21420, Note_on_c, 0, 63, 62
1, 21420, Note_on_c, 3, 58, 120
1, 21420, Lyric_t, "you "
1, 21420, Lyric_t, "\015"
1, 21421, Note_on_c, 0, 63, 0
1, 21421, Note_on_c, 0, 60, 0
1, 21421, Note_on_c, 0, 56, 0
1, 21455, Note_on_c, 3, 58, 0
1, 21458, Note_on_c, 6, 70, 0
1, 21474, Note_on_c, 7, 70, 0
1, 21480, Note_on_c, 0, 60, 116
1, 21480, Note_on_c, 0, 63, 92
1, 21480, Note_on_c, 0, 67, 111
1, 21480, Note_on_c, 1, 29, 116
1, 21480, Note_on_c, 3, 60, 119
1, 21480, Note_on_c, 9, 38, 120
1, 21480, Lyric_t, "when "
1, 21510, Note_on_c, 1, 29, 0
1, 21511, Note_on_c, 3, 60, 0
1, 21513, Note_on_c, 9, 38, 0
1, 21519, Note_on_c, 0, 60, 0
1, 21522, Note_on_c, 0, 67, 0
1, 21522, Note_on_c, 0, 63, 0
1, 21540, Note_on_c, 3, 58, 120
1, 21540, Lyric_t, "you're "
1, 21574, Note_on_c, 3, 58, 0
1, 21600, Note_on_c, 0, 58, 120
1, 21600, Note_on_c, 0, 70, 120
1, 21600, Pitch_bend_c, 1, 7201
1, 21600, Pitch_bend_c, 1, 5740
1, 21600, Pitch_bend_c, 1, 4801
1, 21600, Pitch_bend_c, 1, 3966
1, 21600, Pitch_bend_c, 1, 2922
1, 21600, Pitch_bend_c, 1, 2088
1, 21600, Pitch_bend_c, 1, 1253
1, 21600, Pitch_bend_c, 1, 1148
1, 21600, Pitch_bend_c, 1, 1044
1, 21600, Pitch_bend_c, 1, 5740
1, 21600, Pitch_bend_c, 1, 8192
1, 21600, Pitch_bend_c, 1, 8140
1, 21600, Pitch_bend_c, 1, 8192
1, 21600, Note_on_c, 1, 34, 120
1, 21600, Note_on_c, 3, 67, 120
1, 21600, Note_on_c, 6, 82, 115
1, 21600, Note_on_c, 7, 82, 100
1, 21600, Note_on_c, 8, 82, 100
1, 21600, Note_on_c, 9, 36, 120
1, 21600, Note_on_c, 9, 38, 120
1, 21600, Lyric_t, "mine, "
1, 21617, Note_on_c, 0, 70, 0
1, 21620, Note_on_c, 0, 58, 0
1, 21630, Note_on_c, 0, 58, 109
1, 21630, Note_on_c, 0, 70, 84
1, 21635, Note_on_c, 9, 36, 0
1, 21635, Note_on_c, 9, 38, 0
1, 21665, Note_on_c, 0, 70, 0
1, 21667, Note_on_c, 0, 58, 0
1, 21690, Note_on_c, 0, 58, 119
1, 21690, Note_on_c, 0, 70, 120
1, 21692, Note_on_c, 3, 67, 0
1, 21703, Note_on_c, 1, 34, 0
1, 21710, Note_on_c, 0, 70, 0
1, 21716, Note_on_c, 0, 58, 0
1, 21720, Note_on_c, 0, 58, 115
1, 21720, Note_on_c, 0, 70, 115
1, 21720, Note_on_c, 1, 34, 109
1, 21720, Note_on_c, 3, 68, 120
1, 21720, Note_on_c, 9, 36, 120
1, 21720, Note_on_c, 9, 38, 120
1, 21720, Lyric_t, "oh "
1, 21751, Note_on_c, 0, 70, 0
1, 21752, Note_on_c, 0, 58, 0
1, 21754, Note_on_c, 9, 36, 0
1, 21757, Note_on_c, 9, 38, 0
1, 21780, Note_on_c, 0, 58, 100
1, 21780, Note_on_c, 0, 70, 115
1, 21803, Note_on_c, 0, 70, 0
1, 21808, Note_on_c, 0, 58, 0
1, 21809, Note_on_c, 1, 34, 0
1, 21810, Note_on_c, 0, 58, 109
1, 21810, Note_on_c, 0, 70, 102
1, 21821, Note_on_c, 3, 68, 0
1, 21839, Note_on_c, 0, 58, 0
1, 21840, Note_on_c, 0, 70, 0
1, 21840, Note_on_c, 1, 34, 120
1, 21840, Note_on_c, 3, 67, 120
1, 21840, Note_on_c, 9, 36, 120
1, 21840, Note_on_c, 9, 38, 120
1, 21840, Lyric_t, "mine "
1, 21840, Lyric_t, "\015"
1, 21870, Note_on_c, 0, 58, 102
1, 21870, Note_on_c, 0, 70, 120
1, 21876, Note_on_c, 9, 38, 0
1, 21879, Note_on_c, 9, 36, 0
1, 21887, Note_on_c, 0, 70, 0
1, 21895, Note_on_c, 0, 58, 0
1, 21900, Note_on_c, 0, 58, 111
1, 21900, Note_on_c, 0, 70, 109
1, 21910, Note_on_c, 1, 34, 0
1, 21936, Note_on_c, 3, 67, 0
1, 21939, Note_on_c, 6, 82, 0
1, 21942, Note_on_c, 0, 70, 0
1, 21947, Note_on_c, 0, 58, 0
1, 21960, Note_on_c, 1, 34, 120
1, 21960, Note_on_c, 9, 36, 120
1, 21960, Note_on_c, 9, 38, 120
1, 21964, Note_on_c, 7, 82, 0
1, 21964, Note_on_c, 8, 82, 0
1, 22001, Note_on_c, 9, 38, 0
1, 22003, Note_on_c, 9, 36, 0
1, 22020, Note_on_c, 1, 41, 111
1, 22025, Note_on_c, 1, 34, 0
1, 22078, Note_on_c, 1, 41, 0
1, 22080, Note_on_c, 0, 58, 120
1, 22080, Note_on_c, 0, 70, 120
1, 22080, Note_on_c, 1, 46, 120
1, 22080, Note_on_c, 4, 58, 98
1, 22080, Note_on_c, 4, 63, 111
1, 22080, Note_on_c, 5, 67, 120
1, 22080, Note_on_c, 6, 82, 115
1, 22080, Note_on_c, 7, 82, 100
1, 22080, Note_on_c, 8, 82, 100
1, 22080, Note_on_c, 9, 36, 120
1, 22080, Note_on_c, 9, 38, 120
1, 22080, Note_on_c, 15, 63, 1
1, 22080, Note_on_c, 15, 58, 1
1, 22080, Lyric_t, "(mine, "
1, 22097, Note_on_c, 0, 70, 0
1, 22102, Note_on_c, 9, 38, 0
1, 22104, Note_on_c, 0, 58, 0
1, 22110, Note_on_c, 0, 58, 115
1, 22110, Note_on_c, 0, 70, 104
1, 22112, Note_on_c, 9, 36, 0
1, 22138, Note_on_c, 0, 70, 0
1, 22140, Note_on_c, 0, 58, 0
1, 22140, Note_on_c, 9, 38, 120
1, 22165, Note_on_c, 9, 38, 0
1, 22170, Note_on_c, 0, 58, 119
1, 22170, Note_on_c, 0, 70, 119
1, 22177, Note_on_c, 4, 58, 0
1, 22177, Note_on_c, 15, 58, 0
1, 22179, Note_on_c, 4, 63, 0
1, 22179, Note_on_c, 15, 63, 0
1, 22188, Note_on_c, 0, 70, 0
1, 22190, Note_on_c, 5, 67, 0
1, 22190, Note_on_c, 1, 46, 0
1, 22200, Note_on_c, 0, 70, 106
1, 22200, Note_on_c, 1, 46, 120
1, 22200, Note_on_c, 4, 58, 109
1, 22200, Note_on_c, 4, 65, 103
1, 22200, Note_on_c, 5, 68, 120
1, 22200, Note_on_c, 9, 36, 120
1, 22200, Note_on_c, 9, 38, 120
1, 22200, Note_on_c, 15, 58, 1
1, 22200, Note_on_c, 15, 65, 1
1, 22200, Lyric_t, "oh "
1, 22224, Note_on_c, 9, 38, 0
1, 22226, Note_on_c, 0, 58, 0
1, 22229, Note_on_c, 0, 70, 0
1, 22251, Note_on_c, 9, 36, 0
1, 22260, Note_on_c, 0, 58, 115
1, 22260, Note_on_c, 0, 70, 111
1, 22260, Note_on_c, 9, 38, 120
1, 22277, Note_on_c, 9, 38, 0
1, 22277, Note_on_c, 0, 70, 0
1, 22290, Note_on_c, 0, 70, 106
1, 22299, Note_on_c, 4, 65, 0
1, 22299, Note_on_c, 4, 58, 0
1, 22299, Note_on_c, 15, 58, 0
1, 22299, Note_on_c, 15, 65, 0
1, 22303, Note_on_c, 1, 46, 0
1, 22305, Note_on_c, 5, 68, 0
1, 22314, Note_on_c, 0, 58, 0
1, 22318, Note_on_c, 0, 70, 0
1, 22320, Note_on_c, 1, 46, 120
1, 22320, Note_on_c, 4, 58, 96
1, 22320, Note_on_c, 4, 63, 115
1, 22320, Note_on_c, 5, 67, 111
1, 22320, Note_on_c, 9, 36, 120
1, 22320, Note_on_c, 9, 38, 120
1, 22320, Note_on_c, 15, 58, 1
1, 22320, Note_on_c, 15, 63, 1
1, 22320, Lyric_t, "mi"
1, 22339, Note_on_c, 9, 38, 0
1, 22350, Note_on_c, 0, 58, 119
1, 22350, Note_on_c, 0, 70, 120
1, 22350, Note_on_c, 9, 38, 119
1, 22361, Note_on_c, 9, 38, 0
1, 22363, Note_on_c, 9, 36, 0
1, 22367, Note_on_c, 4, 63, 0
1, 22367, Note_on_c, 15, 63, 0
1, 22368, Note_on_c, 0, 70, 0
1, 22369, Note_on_c, 15, 58, 0
1, 22369, Note_on_c, 4, 58, 0
1, 22373, Note_on_c, 0, 58, 0
1, 22374, Note_on_c, 1, 46, 0
1, 22375, Note_on_c, 5, 67, 0
1, 22380, Note_on_c, 0, 58, 109
1, 22380, Note_on_c, 0, 70, 100
1, 22380, Note_on_c, 1, 34, 120
1, 22380, Note_on_c, 4, 58, 96
1, 22380, Note_on_c, 4, 63, 115
1, 22380, Note_on_c, 5, 65, 113
1, 22380, Note_on_c, 9, 38, 120
1, 22380, Note_on_c, 15, 58, 1
1, 22380, Note_on_c, 15, 63, 1
1, 22380, Lyric_t, "ne) "
1, 22380, Lyric_t, "\015"
1, 22405, Note_on_c, 9, 38, 0
1, 22419, Note_on_c, 6, 82, 0
1, 22420, Note_on_c, 4, 63, 0
1, 22420, Note_on_c, 15, 63, 0
1, 22423, Note_on_c, 0, 70, 0
1, 22423, Note_on_c, 15, 58, 0
1, 22423, Note_on_c, 4, 58, 0
1, 22428, Note_on_c, 5, 65, 0
1, 22429, Note_on_c, 0, 58, 0
1, 22432, Note_on_c, 1, 34, 0
1, 22440, Note_on_c, 9, 36, 120
1, 22440, Note_on_c, 9, 38, 120
1, 22440, Note_on_c, 9, 39, 120
1, 22440, Note_on_c, 9, 40, 120
1, 22444, Note_on_c, 7, 82, 0
1, 22444, Note_on_c, 8, 82, 0
1, 22457, Note_on_c, 9, 39, 0
1, 22467, Note_on_c, 9, 38, 0
1, 22468, Note_on_c, 9, 36, 0
1, 22476, Note_on_c, 9, 40, 0
1, 22560, Note_on_c, 0, 63, 98
1, 22560, Note_on_c, 0, 67, 118
1, 22560, Note_on_c, 0, 72, 105
1, 22560, Note_on_c, 1, 32, 120
1, 22560, Note_on_c, 2, 63, 81
1, 22560, Note_on_c, 2, 67, 116
1, 22560, Note_on_c, 2, 72, 107
1, 22560, Note_on_c, 3, 67, 120
1, 22560, Note_on_c, 4, 60, 107
1, 22560, Note_on_c, 4, 63, 120
1, 22560, Note_on_c, 4, 70, 119
1, 22560, Note_on_c, 5, 55, 120
1, 22560, Note_on_c, 7, 56, 92
1, 22560, Note_on_c, 7, 60, 120
1, 22560, Note_on_c, 7, 67, 113
1, 22560, Note_on_c, 8, 56, 92
1, 22560, Note_on_c, 8, 60, 120
1, 22560, Note_on_c, 8, 67, 113
1, 22560, Note_on_c, 9, 36, 120
1, 22560, Note_on_c, 11, 96, 120
1, 22560, Pitch_bend_c, 11, 8125
1, 22560, Note_on_c, 15, 70, 1
1, 22560, Note_on_c, 15, 60, 1
1, 22560, Note_on_c, 15, 63, 1
1, 22560, Lyric_t, "Trea"
1, 22561, Pitch_bend_c, 11, 8102
1, 22562, Pitch_bend_c, 11, 8079
1, 22563, Pitch_bend_c, 11, 8057
1, 22564, Control_c, 11, 11, 127
1, 22564, Pitch_bend_c, 11, 8034
1, 22565, Pitch_bend_c, 11, 8011
1, 22566, Pitch_bend_c, 11, 7989
1, 22567, Pitch_bend_c, 11, 7966
1, 22568, Control_c, 11, 11, 126
1, 22568, Pitch_bend_c, 11, 7943
1, 22569, Pitch_bend_c, 11, 7921
1, 22570, Pitch_bend_c, 11, 7898
1, 22571, Pitch_bend_c, 11, 7875
1, 22572, Pitch_bend_c, 11, 7853
1, 22573, Control_c, 11, 11, 125
1, 22573, Pitch_bend_c, 11, 7830
1, 22574, Pitch_bend_c, 11, 7807
1, 22575, Pitch_bend_c, 11, 7785
1, 22576, Pitch_bend_c, 11, 7762
1, 22577, Control_c, 11, 11, 124
1, 22577, Pitch_bend_c, 11, 7739
1, 22578, Pitch_bend_c, 11, 7717
1, 22579, Pitch_bend_c, 11, 7694
1, 22580, Pitch_bend_c, 11, 7671
1, 22581, Pitch_bend_c, 11, 7649
1, 22582, Control_c, 11, 11, 123
1, 22582, Pitch_bend_c, 11, 7626
1, 22583, Pitch_bend_c, 11, 7603
1, 22584, Pitch_bend_c, 11, 7581
1, 22585, Pitch_bend_c, 11, 7558
1, 22586, Control_c, 11, 11, 122
1, 22586, Pitch_bend_c, 11, 7535
1, 22587, Pitch_bend_c, 11, 7513
1, 22588, Pitch_bend_c, 11, 7490
1, 22589, Pitch_bend_c, 11, 7467
1, 22590, Pitch_bend_c, 11, 7445
1, 22591, Control_c, 11, 11, 121
1, 22591, Pitch_bend_c, 11, 7422
1, 22592, Note_on_c, 5, 55, 0
1, 22592, Note_on_c, 3, 67, 0
1, 22592, Pitch_bend_c, 11, 7399
1, 22593, Note_on_c, 9, 36, 0
1, 22593, Pitch_bend_c, 11, 7377
1, 22594, Pitch_bend_c, 11, 7354
1, 22595, Control_c, 11, 11, 120
1, 22595, Pitch_bend_c, 11, 7331
1, 22596, Pitch_bend_c, 11, 7309
1, 22597, Pitch_bend_c, 11, 7286
1, 22598, Pitch_bend_c, 11, 7263
1, 22599, Pitch_bend_c, 11, 7241
1, 22600, Control_c, 11, 11, 119
1, 22600, Pitch_bend_c, 11, 7218
1, 22601, Pitch_bend_c, 11, 7195
1, 22602, Note_on_c, 4, 70, 0
1, 22602, Note_on_c, 15, 70, 0
1, 22602, Pitch_bend_c, 11, 7173
1, 22603, Note_on_c, 4, 60, 0
1, 22603, Note_on_c, 15, 60, 0
1, 22603, Pitch_bend_c, 11, 7150
1, 22604, Note_on_c, 4, 63, 0
1, 22604, Note_on_c, 15, 63, 0
1, 22604, Control_c, 11, 11, 118
1, 22604, Pitch_bend_c, 11, 7127
1, 22605, Pitch_bend_c, 11, 7105
1, 22606, Pitch_bend_c, 11, 7082
1, 22607, Pitch_bend_c, 11, 7059
1, 22608, Pitch_bend_c, 11, 7037
1, 22609, Control_c, 11, 11, 117
1, 22609, Pitch_bend_c, 11, 7014
1, 22610, Pitch_bend_c, 11, 6991
1, 22611, Pitch_bend_c, 11, 6969
1, 22612, Pitch_bend_c, 11, 6946
1, 22613, Control_c, 11, 11, 116
1, 22613, Pitch_bend_c, 11, 6923
1, 22614, Pitch_bend_c, 11, 6901
1, 22615, Pitch_bend_c, 11, 6878
1, 22616, Pitch_bend_c, 11, 6855
1, 22617, Pitch_bend_c, 11, 6833
1, 22618, Control_c, 11, 11, 115
1, 22618, Pitch_bend_c, 11, 6810
1, 22619, Note_on_c, 1, 32, 0
1, 22619, Pitch_bend_c, 11, 6788
1, 22620, Note_on_c, 1, 44, 120
1, 22620, Note_on_c, 3, 67, 120
1, 22620, Note_on_c, 4, 60, 118
1, 22620, Note_on_c, 4, 63, 119
1, 22620, Note_on_c, 4, 70, 98
1, 22620, Note_on_c, 5, 55, 120
1, 22620, Note_on_c, 9, 42, 120
1, 22620, Pitch_bend_c, 11, 6765
1, 22620, Note_on_c, 15, 63, 1
1, 22620, Note_on_c, 15, 60, 1
1, 22620, Note_on_c, 15, 70, 1
1, 22620, Lyric_t, "sure, "
1, 22621, Pitch_bend_c, 11, 6742
1, 22622, Control_c, 11, 11, 114
1, 22622, Pitch_bend_c, 11, 6720
1, 22623, Pitch_bend_c, 11, 6697
1, 22624, Pitch_bend_c, 11, 6674
1, 22625, Pitch_bend_c, 11, 6652
1, 22626, Pitch_bend_c, 11, 6629
1, 22627, Control_c, 11, 11, 113
1, 22627, Pitch_bend_c, 11, 6606
1, 22628, Pitch_bend_c, 11, 6584
1, 22629, Pitch_bend_c, 11, 6561
1, 22630, Pitch_bend_c, 11, 6538
1, 22631, Control_c, 11, 11, 112
1, 22631, Pitch_bend_c, 11, 6516
1, 22632, Pitch_bend_c, 11, 6493
1, 22633, Pitch_bend_c, 11, 6470
1, 22634, Pitch_bend_c, 11, 6448
1, 22635, Pitch_bend_c, 11, 6425
1, 22636, Control_c, 11, 11, 111
1, 22636, Pitch_bend_c, 11, 6402
1, 22637, Pitch_bend_c, 11, 6380
1, 22638, Pitch_bend_c, 11, 6357
1, 22639, Pitch_bend_c, 11, 6334
1, 22640, Control_c, 11, 11, 110
1, 22640, Pitch_bend_c, 11, 6312
1, 22641, Pitch_bend_c, 11, 6289
1, 22642, Pitch_bend_c, 11, 6266
1, 22643, Pitch_bend_c, 11, 6244
1, 22644, Pitch_bend_c, 11, 6221
1, 22645, Control_c, 11, 11, 109
1, 22645, Pitch_bend_c, 11, 6198
1, 22646, Pitch_bend_c, 11, 6176
1, 22647, Pitch_bend_c, 11, 6153
1, 22648, Pitch_bend_c, 11, 6130
1, 22649, Control_c, 11, 11, 108
1, 22649, Pitch_bend_c, 11, 6108
1, 22650, Pitch_bend_c, 11, 6085
1, 22651, Note_on_c, 9, 42, 0
1, 22651, Pitch_bend_c, 11, 6062
1, 22652, Pitch_bend_c, 11, 6040
1, 22653, Pitch_bend_c, 11, 6017
1, 22654, Control_c, 11, 11, 107
1, 22654, Pitch_bend_c, 11, 5994
1, 22655, Note_on_c, 1, 44, 0
1, 22655, Pitch_bend_c, 11, 5972
1, 22656, Pitch_bend_c, 11, 5949
1, 22657, Pitch_bend_c, 11, 5926
1, 22658, Control_c, 11, 11, 106
1, 22658, Pitch_bend_c, 11, 5904
1, 22659, Pitch_bend_c, 11, 5881
1, 22660, Pitch_bend_c, 11, 5858
1, 22661, Pitch_bend_c, 11, 5836
1, 22662, Pitch_bend_c, 11, 5813
1, 22663, Control_c, 11, 11, 105
1, 22663, Pitch_bend_c, 11, 5790
1, 22664, Pitch_bend_c, 11, 5768
1, 22665, Pitch_bend_c, 11, 5745
1, 22666, Pitch_bend_c, 11, 5722
1, 22667, Control_c, 11, 11, 104
1, 22667, Pitch_bend_c, 11, 5700
1, 22668, Pitch_bend_c, 11, 5677
1, 22669, Pitch_bend_c, 11, 5654
1, 22670, Note_on_c, 0, 67, 0
1, 22670, Pitch_bend_c, 11, 5632
1, 22671, Pitch_bend_c, 11, 5609
1, 22672, Control_c, 11, 11, 103
1, 22672, Pitch_bend_c, 11, 5586
1, 22673, Pitch_bend_c, 11, 5564
1, 22674, Note_on_c, 8, 67, 0
1, 22674, Note_on_c, 7, 67, 0
1, 22674, Pitch_bend_c, 11, 5541
1, 22675, Note_on_c, 8, 56, 0
1, 22675, Note_on_c, 7, 56, 0
1, 22675, Pitch_bend_c, 11, 5518
1, 22676, Note_on_c, 4, 60, 0
1, 22676, Note_on_c, 8, 60, 0
1, 22676, Note_on_c, 7, 60, 0
1, 22676, Note_on_c, 15, 60, 0
1, 22676, Note_on_c, 0, 63, 0
1, 22676, Control_c, 11, 11, 102
1, 22676, Pitch_bend_c, 11, 5496
1, 22677, Note_on_c, 4, 63, 0
1, 22677, Note_on_c, 15, 63, 0
1, 22677, Note_on_c, 4, 70, 0
1, 22677, Note_on_c, 15, 70, 0
1, 22677, Pitch_bend_c, 11, 5473
1, 22678, Note_on_c, 0, 72, 0
1, 22678, Pitch_bend_c, 11, 5451
1, 22679, Pitch_bend_c, 11, 5428
1, 22680, Note_on_c, 9, 38, 120
1, 22680, Pitch_bend_c, 11, 5405
1, 22680, Note_on_c, 12, 96, 120
1, 22680, Pitch_bend_c, 12, 8125
1, 22681, Control_c, 11, 11, 101
1, 22681, Pitch_bend_c, 11, 5383
1, 22681, Pitch_bend_c, 12, 8102
1, 22682, Note_on_c, 3, 67, 0
1, 22682, Note_on_c, 5, 55, 0
1, 22682, Pitch_bend_c, 11, 5360
1, 22682, Pitch_bend_c, 12, 8079
1, 22683, Pitch_bend_c, 11, 5337
1, 22683, Pitch_bend_c, 12, 8057
1, 22684, Pitch_bend_c, 11, 5315
1, 22684, Control_c, 12, 11, 127
1, 22684, Pitch_bend_c, 12, 8034
1, 22685, Control_c, 11, 11, 100
1, 22685, Pitch_bend_c, 11, 5292
1, 22685, Pitch_bend_c, 12, 8011
1, 22686, Pitch_bend_c, 11, 5269
1, 22686, Pitch_bend_c, 12, 7989
1, 22687, Pitch_bend_c, 11, 5247
1, 22687, Pitch_bend_c, 12, 7966
1, 22688, Pitch_bend_c, 11, 5224
1, 22688, Control_c, 12, 11, 126
1, 22688, Pitch_bend_c, 12, 7943
1, 22689, Pitch_bend_c, 11, 5201
1, 22689, Pitch_bend_c, 12, 7921
1, 22690, Control_c, 11, 11, 99
1, 22690, Pitch_bend_c, 11, 5179
1, 22690, Pitch_bend_c, 12, 7898
1, 22691, Pitch_bend_c, 11, 5156
1, 22691, Pitch_bend_c, 12, 7875
1, 22692, Pitch_bend_c, 11, 5133
1, 22692, Pitch_bend_c, 12, 7853
1, 22693, Pitch_bend_c, 11, 5111
1, 22693, Control_c, 12, 11, 125
1, 22693, Pitch_bend_c, 12, 7830
1, 22694, Control_c, 11, 11, 98
1, 22694, Pitch_bend_c, 11, 5088
1, 22694, Pitch_bend_c, 12, 7807
1, 22695, Pitch_bend_c, 11, 5065
1, 22695, Pitch_bend_c, 12, 7785
1, 22696, Pitch_bend_c, 11, 5043
1, 22696, Pitch_bend_c, 12, 7762
1, 22697, Pitch_bend_c, 11, 5020
1, 22697, Control_c, 12, 11, 124
1, 22697, Pitch_bend_c, 12, 7739
1, 22698, Pitch_bend_c, 11, 4997
1, 22698, Pitch_bend_c, 12, 7717
1, 22699, Control_c, 11, 11, 97
1, 22699, Pitch_bend_c, 11, 4975
1, 22699, Pitch_bend_c, 12, 7694
1, 22700, Pitch_bend_c, 11, 4952
1, 22700, Pitch_bend_c, 12, 7671
1, 22701, Pitch_bend_c, 11, 4929
1, 22701, Pitch_bend_c, 12, 7649
1, 22702, Pitch_bend_c, 11, 4907
1, 22702, Control_c, 12, 11, 123
1, 22702, Pitch_bend_c, 12, 7626
1, 22703, Control_c, 11, 11, 96
1, 22703, Pitch_bend_c, 11, 4884
1, 22703, Pitch_bend_c, 12, 7603
1, 22704, Pitch_bend_c, 11, 4861
1, 22704, Pitch_bend_c, 12, 7581
1, 22705, Pitch_bend_c, 11, 4839
1, 22705, Pitch_bend_c, 12, 7558
1, 22706, Pitch_bend_c, 11, 4816
1, 22706, Control_c, 12, 11, 122
1, 22706, Pitch_bend_c, 12, 7535
1, 22707, Pitch_bend_c, 11, 4793
1, 22707, Pitch_bend_c, 12, 7513
1, 22708, Control_c, 11, 11, 95
1, 22708, Pitch_bend_c, 11, 4771
1, 22708, Pitch_bend_c, 12, 7490
1, 22709, Pitch_bend_c, 11, 4748
1, 22709, Pitch_bend_c, 12, 7467
1, 22710, Note_on_c, 0, 63, 73
1, 22710, Note_on_c, 0, 67, 82
1, 22710, Note_on_c, 0, 72, 83
1, 22710, Pitch_bend_c, 11, 4725
1, 22710, Pitch_bend_c, 12, 7445
1, 22711, Note_on_c, 0, 72, 0
1, 22711, Note_on_c, 0, 67, 0
1, 22711, Note_on_c, 0, 63, 0
1, 22711, Pitch_bend_c, 11, 4703
1, 22711, Control_c, 12, 11, 121
1, 22711, Pitch_bend_c, 12, 7422
1, 22712, Control_c, 11, 11, 94
1, 22712, Pitch_bend_c, 11, 4680
1, 22712, Pitch_bend_c, 12, 7399
1, 22713, Note_on_c, 9, 38, 0
1, 22713, Pitch_bend_c, 11, 4657
1, 22713, Pitch_bend_c, 12, 7377
1, 22714, Pitch_bend_c, 11, 4635
1, 22714, Pitch_bend_c, 12, 7354
1, 22715, Pitch_bend_c, 11, 4612
1, 22715, Control_c, 12, 11, 120
1, 22715, Pitch_bend_c, 12, 7331
1, 22716, Pitch_bend_c, 11, 4589
1, 22716, Pitch_bend_c, 12, 7309
1, 22717, Control_c, 11, 11, 93
1, 22717, Pitch_bend_c, 11, 4567
1, 22717, Pitch_bend_c, 12, 7286
1, 22718, Pitch_bend_c, 11, 4544
1, 22718, Pitch_bend_c, 12, 7263
1, 22719, Pitch_bend_c, 11, 4521
1, 22719, Pitch_bend_c, 12, 7241
1, 22720, Pitch_bend_c, 11, 4499
1, 22720, Control_c, 12, 11, 119
1, 22720, Pitch_bend_c, 12, 7218
1, 22721, Control_c, 11, 11, 92
1, 22721, Pitch_bend_c, 11, 4476
1, 22721, Pitch_bend_c, 12, 7195
1, 22722, Pitch_bend_c, 11, 4453
1, 22722, Pitch_bend_c, 12, 7173
1, 22723, Pitch_bend_c, 11, 4431
1, 22723, Pitch_bend_c, 12, 7150
1, 22724, Pitch_bend_c, 11, 4408
1, 22724, Control_c, 12, 11, 118
1, 22724, Pitch_bend_c, 12, 7127
1, 22725, Pitch_bend_c, 11, 4385
1, 22725, Pitch_bend_c, 12, 7105
1, 22726, Control_c, 11, 11, 91
1, 22726, Pitch_bend_c, 11, 4363
1, 22726, Pitch_bend_c, 12, 7082
1, 22727, Note_on_c, 10, 70, 89
1, 22727, Pitch_bend_c, 11, 4340
1, 22727, Pitch_bend_c, 12, 7059
1, 22728, Pitch_bend_c, 11, 4317
1, 22728, Pitch_bend_c, 12, 7037
1, 22729, Pitch_bend_c, 11, 4295
1, 22729, Control_c, 12, 11, 117
1, 22729, Pitch_bend_c, 12, 7014
1, 22730, Control_c, 11, 11, 90
1, 22730, Pitch_bend_c, 11, 4272
1, 22730, Pitch_bend_c, 12, 6991
1, 22731, Pitch_bend_c, 11, 4249
1, 22731, Pitch_bend_c, 12, 6969
1, 22732, Pitch_bend_c, 11, 4227
1, 22732, Pitch_bend_c, 12, 6946
1, 22733, Pitch_bend_c, 11, 4204
1, 22733, Control_c, 12, 11, 116
1, 22733, Pitch_bend_c, 12, 6923
1, 22734, Pitch_bend_c, 11, 4181
1, 22734, Pitch_bend_c, 12, 6901
1, 22735, Control_c, 11, 11, 89
1, 22735, Pitch_bend_c, 11, 4159
1, 22735, Pitch_bend_c, 12, 6878
1, 22736, Pitch_bend_c, 11, 4136
1, 22736, Pitch_bend_c, 12, 6855
1, 22737, Pitch_bend_c, 11, 4113
1, 22737, Pitch_bend_c, 12, 6833
1, 22738, Pitch_bend_c, 11, 4091
1, 22738, Control_c, 12, 11, 115
1, 22738, Pitch_bend_c, 12, 6810
1, 22739, Control_c, 11, 11, 88
1, 22739, Pitch_bend_c, 11, 4068
1, 22739, Pitch_bend_c, 12, 6788
1, 22740, Note_on_c, 0, 63, 80
1, 22740, Note_on_c, 0, 67, 91
1, 22740, Note_on_c, 0, 72, 98
1, 22740, Note_on_c, 9, 42, 120
1, 22740, Note_on_c, 10, 72, 118
1, 22740, Pitch_bend_c, 11, 4046
1, 22740, Pitch_bend_c, 12, 6765
1, 22741, Note_on_c, 0, 72, 0
1, 22741, Note_on_c, 0, 67, 0
1, 22741, Note_on_c, 0, 63, 0
1, 22741, Pitch_bend_c, 11, 4023
1, 22741, Pitch_bend_c, 12, 6742
1, 22742, Pitch_bend_c, 11, 4000
1, 22742, Control_c, 12, 11, 114
1, 22742, Pitch_bend_c, 12, 6720
1, 22743, Pitch_bend_c, 11, 3978
1, 22743, Pitch_bend_c, 12, 6697
1, 22744, Control_c, 11, 11, 87
1, 22744, Pitch_bend_c, 11, 3955
1, 22744, Pitch_bend_c, 12, 6674
1, 22745, Note_on_c, 10, 70, 0
1, 22745, Pitch_bend_c, 11, 3932
1, 22745, Pitch_bend_c, 12, 6652
1, 22746, Pitch_bend_c, 11, 3910
1, 22746, Pitch_bend_c, 12, 6629
1, 22747, Pitch_bend_c, 11, 3887
1, 22747, Control_c, 12, 11, 113
1, 22747, Pitch_bend_c, 12, 6606
1, 22748, Control_c, 11, 11, 86
1, 22748, Pitch_bend_c, 11, 3864
1, 22748, Pitch_bend_c, 12, 6584
1, 22749, Pitch_bend_c, 11, 3842
1, 22749, Pitch_bend_c, 12, 6561
1, 22750, Pitch_bend_c, 11, 3819
1, 22750, Pitch_bend_c, 12, 6538
1, 22751, Pitch_bend_c, 11, 3796
1, 22751, Control_c, 12, 11, 112
1, 22751, Pitch_bend_c, 12, 6516
1, 22752, Pitch_bend_c, 11, 3774
1, 22752, Pitch_bend_c, 12, 6493
1, 22753, Pitch_bend_c, 11, 3751
1, 22753, Pitch_bend_c, 12, 6470
1, 22754, Pitch_bend_c, 11, 3728
1, 22754, Pitch_bend_c, 12, 6448
1, 22755, Pitch_bend_c, 11, 3706
1, 22755, Pitch_bend_c, 12, 6425
1, 22756, Pitch_bend_c, 11, 3683
1, 22756, Control_c, 12, 11, 111
1, 22756, Pitch_bend_c, 12, 6402
1, 22757, Control_c, 11, 11, 85
1, 22757, Pitch_bend_c, 11, 3660
1, 22757, Pitch_bend_c, 12, 6380
1, 22758, Pitch_bend_c, 11, 3638
1, 22758, Pitch_bend_c, 12, 6357
1, 22759, Pitch_bend_c, 11, 3615
1, 22759, Pitch_bend_c, 12, 6334
1, 22760, Pitch_bend_c, 11, 3592
1, 22760, Control_c, 12, 11, 110
1, 22760, Pitch_bend_c, 12, 6312
1, 22761, Pitch_bend_c, 11, 3570
1, 22761, Pitch_bend_c, 12, 6289
1, 22762, Control_c, 11, 11, 84
1, 22762, Pitch_bend_c, 11, 3547
1, 22762, Pitch_bend_c, 12, 6266
1, 22763, Note_on_c, 10, 72, 0
1, 22763, Pitch_bend_c, 11, 3524
1, 22763, Pitch_bend_c, 12, 6244
1, 22764, Pitch_bend_c, 11, 3502
1, 22764, Pitch_bend_c, 12, 6221
1, 22765, Pitch_bend_c, 11, 3479
1, 22765, Control_c, 12, 11, 109
1, 22765, Pitch_bend_c, 12, 6198
1, 22766, Note_on_c, 9, 42, 0
1, 22766, Control_c, 11, 11, 83
1, 22766, Pitch_bend_c, 11, 3456
1, 22766, Pitch_bend_c, 12, 6176
1, 22767, Pitch_bend_c, 11, 3434
1, 22767, Pitch_bend_c, 12, 6153
1, 22768, Pitch_bend_c, 11, 3411
1, 22768, Pitch_bend_c, 12, 6130
1, 22769, Pitch_bend_c, 11, 3388
1, 22769, Control_c, 12, 11, 108
1, 22769, Pitch_bend_c, 12, 6108
1, 22770, Note_on_c, 0, 63, 77
1, 22770, Note_on_c, 0, 67, 90
1, 22770, Note_on_c, 0, 72, 98
1, 22770, Pitch_bend_c, 11, 3366
1, 22770, Pitch_bend_c, 12, 6085
1, 22771, Note_on_c, 0, 72, 0
1, 22771, Note_on_c, 0, 67, 0
1, 22771, Note_on_c, 0, 63, 0
1, 22771, Control_c, 11, 11, 82
1, 22771, Pitch_bend_c, 11, 3343
1, 22771, Pitch_bend_c, 12, 6062
1, 22772, Pitch_bend_c, 11, 3320
1, 22772, Pitch_bend_c, 12, 6040
1, 22773, Pitch_bend_c, 11, 3298
1, 22773, Pitch_bend_c, 12, 6017
1, 22774, Pitch_bend_c, 11, 3275
1, 22774, Control_c, 12, 11, 107
1, 22774, Pitch_bend_c, 12, 5994
1, 22775, Control_c, 11, 11, 81
1, 22775, Pitch_bend_c, 11, 3252
1, 22775, Pitch_bend_c, 12, 5972
1, 22776, Pitch_bend_c, 11, 3230
1, 22776, Pitch_bend_c, 12, 5949
1, 22777, Pitch_bend_c, 11, 3207
1, 22777, Pitch_bend_c, 12, 5926
1, 22778, Pitch_bend_c, 11, 3184
1, 22778, Control_c, 12, 11, 106
1, 22778, Pitch_bend_c, 12, 5904
1, 22779, Pitch_bend_c, 11, 3162
1, 22779, Pitch_bend_c, 12, 5881
1, 22780, Control_c, 11, 11, 80
1, 22780, Pitch_bend_c, 11, 3139
1, 22780, Pitch_bend_c, 12, 5858
1, 22781, Pitch_bend_c, 11, 3116
1, 22781, Pitch_bend_c, 12, 5836
1, 22782, Pitch_bend_c, 11, 3094
1, 22782, Pitch_bend_c, 12, 5813
1, 22783, Pitch_bend_c, 11, 3071
1, 22783, Control_c, 12, 11, 105
1, 22783, Pitch_bend_c, 12, 5790
1, 22784, Control_c, 11, 11, 79
1, 22784, Pitch_bend_c, 11, 3048
1, 22784, Pitch_bend_c, 12, 5768
1, 22785, Pitch_bend_c, 11, 3026
1, 22785, Pitch_bend_c, 12, 5745
1, 22786, Pitch_bend_c, 11, 3003
1, 22786, Pitch_bend_c, 12, 5722
1, 22787, Pitch_bend_c, 11, 2980
1, 22787, Control_c, 12, 11, 104
1, 22787, Pitch_bend_c, 12, 5700
1, 22788, Pitch_bend_c, 11, 2958
1, 22788, Pitch_bend_c, 12, 5677
1, 22789, Control_c, 11, 11, 78
1, 22789, Pitch_bend_c, 11, 2935
1, 22789, Pitch_bend_c, 12, 5654
1, 22790, Pitch_bend_c, 11, 2912
1, 22790, Pitch_bend_c, 12, 5632
1, 22791, Pitch_bend_c, 11, 2890
1, 22791, Pitch_bend_c, 12, 5609
1, 22792, Pitch_bend_c, 11, 2867
1, 22792, Control_c, 12, 11, 103
1, 22792, Pitch_bend_c, 12, 5586
1, 22793, Control_c, 11, 11, 77
1, 22793, Pitch_bend_c, 11, 2844
1, 22793, Pitch_bend_c, 12, 5564
1, 22794, Pitch_bend_c, 11, 2822
1, 22794, Pitch_bend_c, 12, 5541
1, 22795, Pitch_bend_c, 11, 2799
1, 22795, Pitch_bend_c, 12, 5518
1, 22796, Pitch_bend_c, 11, 2776
1, 22796, Control_c, 12, 11, 102
1, 22796, Pitch_bend_c, 12, 5496
1, 22797, Pitch_bend_c, 11, 2754
1, 22797, Pitch_bend_c, 12, 5473
1, 22798, Control_c, 11, 11, 76
1, 22798, Pitch_bend_c, 11, 2731
1, 22798, Pitch_bend_c, 12, 5451
1, 22799, Pitch_bend_c, 11, 2709
1, 22799, Pitch_bend_c, 12, 5428
1, 22800, Note_on_c, 0, 63, 91
1, 22800, Note_on_c, 0, 67, 119
1, 22800, Note_on_c, 0, 72, 96
1, 22800, Note_on_c, 1, 32, 120
1, 22800, Note_on_c, 7, 56, 111
1, 22800, Note_on_c, 7, 60, 119
1, 22800, Note_on_c, 7, 67, 116
1, 22800, Note_on_c, 8, 56, 111
1, 22800, Note_on_c, 8, 60, 119
1, 22800, Note_on_c, 8, 67, 116
1, 22800, Note_on_c, 9, 36, 120
1, 22800, Note_on_c, 10, 70, 120
1, 22800, Pitch_bend_c, 11, 2686
1, 22800, Pitch_bend_c, 12, 5405
1, 22801, Pitch_bend_c, 11, 2663
1, 22801, Control_c, 12, 11, 101
1, 22801, Pitch_bend_c, 12, 5383
1, 22802, Control_c, 11, 11, 75
1, 22802, Pitch_bend_c, 11, 2641
1, 22802, Pitch_bend_c, 12, 5360
1, 22803, Pitch_bend_c, 11, 2618
1, 22803, Pitch_bend_c, 12, 5337
1, 22804, Pitch_bend_c, 11, 2595
1, 22804, Pitch_bend_c, 12, 5315
1, 22805, Pitch_bend_c, 11, 2573
1, 22805, Control_c, 12, 11, 100
1, 22805, Pitch_bend_c, 12, 5292
1, 22806, Pitch_bend_c, 11, 2550
1, 22806, Pitch_bend_c, 12, 5269
1, 22807, Control_c, 11, 11, 74
1, 22807, Pitch_bend_c, 11, 2527
1, 22807, Pitch_bend_c, 12, 5247
1, 22808, Pitch_bend_c, 11, 2505
1, 22808, Pitch_bend_c, 12, 5224
1, 22809, Pitch_bend_c, 11, 2482
1, 22809, Pitch_bend_c, 12, 5201
1, 22810, Pitch_bend_c, 11, 2459
1, 22810, Control_c, 12, 11, 99
1, 22810, Pitch_bend_c, 12, 5179
1, 22811, Control_c, 11, 11, 73
1, 22811, Pitch_bend_c, 11, 2437
1, 22811, Pitch_bend_c, 12, 5156
1, 22812, Pitch_bend_c, 11, 2414
1, 22812, Pitch_bend_c, 12, 5133
1, 22813, Pitch_bend_c, 11, 2391
1, 22813, Pitch_bend_c, 12, 5111
1, 22814, Pitch_bend_c, 11, 2369
1, 22814, Control_c, 12, 11, 98
1, 22814, Pitch_bend_c, 12, 5088
1, 22815, Pitch_bend_c, 11, 2346
1, 22815, Pitch_bend_c, 12, 5065
1, 22816, Control_c, 11, 11, 72
1, 22816, Pitch_bend_c, 11, 2323
1, 22816, Pitch_bend_c, 12, 5043
1, 22817, Pitch_bend_c, 11, 2301
1, 22817, Pitch_bend_c, 12, 5020
1, 22818, Pitch_bend_c, 11, 2278
1, 22818, Pitch_bend_c, 12, 4997
1, 22819, Pitch_bend_c, 11, 2255
1, 22819, Control_c, 12, 11, 97
1, 22819, Pitch_bend_c, 12, 4975
1, 22820, Control_c, 11, 11, 71
1, 22820, Pitch_bend_c, 11, 2233
1, 22820, Pitch_bend_c, 12, 4952
1, 22821, Pitch_bend_c, 11, 2210
1, 22821, Pitch_bend_c, 12, 4929
1, 22822, Pitch_bend_c, 11, 2187
1, 22822, Pitch_bend_c, 12, 4907
1, 22823, Pitch_bend_c, 11, 2165
1, 22823, Control_c, 12, 11, 96
1, 22823, Pitch_bend_c, 12, 4884
1, 22824, Pitch_bend_c, 11, 2142
1, 22824, Pitch_bend_c, 12, 4861
1, 22825, Control_c, 11, 11, 70
1, 22825, Pitch_bend_c, 11, 2119
1, 22825, Pitch_bend_c, 12, 4839
1, 22826, Pitch_bend_c, 11, 2097
1, 22826, Pitch_bend_c, 12, 4816
1, 22827, Pitch_bend_c, 11, 2074
1, 22827, Pitch_bend_c, 12, 4793
1, 22828, Pitch_bend_c, 11, 2051
1, 22828, Control_c, 12, 11, 95
1, 22828, Pitch_bend_c, 12, 4771
1, 22829, Note_on_c, 0, 72, 0
1, 22829, Control_c, 11, 11, 69
1, 22829, Pitch_bend_c, 11, 2029
1, 22829, Pitch_bend_c, 12, 4748
1, 22830, Pitch_bend_c, 11, 2006
1, 22830, Pitch_bend_c, 12, 4725
1, 22831, Note_on_c, 1, 32, 0
1, 22831, Note_on_c, 0, 67, 0
1, 22831, Pitch_bend_c, 11, 1983
1, 22831, Pitch_bend_c, 12, 4703
1, 22832, Note_on_c, 9, 36, 0
1, 22832, Pitch_bend_c, 11, 1961
1, 22832, Control_c, 12, 11, 94
1, 22832, Pitch_bend_c, 12, 4680
1, 22833, Note_on_c, 7, 67, 0
1, 22833, Note_on_c, 7, 60, 0
1, 22833, Note_on_c, 8, 67, 0
1, 22833, Note_on_c, 8, 60, 0
1, 22833, Pitch_bend_c, 11, 1938
1, 22833, Pitch_bend_c, 12, 4657
1, 22834, Note_on_c, 0, 63, 0
1, 22834, Control_c, 11, 11, 68
1, 22834, Pitch_bend_c, 11, 1915
1, 22834, Pitch_bend_c, 12, 4635
1, 22835, Pitch_bend_c, 11, 1893
1, 22835, Pitch_bend_c, 12, 4612
1, 22836, Pitch_bend_c, 11, 1870
1, 22836, Pitch_bend_c, 12, 4589
1, 22837, Pitch_bend_c, 11, 1847
1, 22837, Control_c, 12, 11, 93
1, 22837, Pitch_bend_c, 12, 4567
1, 22838, Control_c, 11, 11, 67
1, 22838, Pitch_bend_c, 11, 1825
1, 22838, Pitch_bend_c, 12, 4544
1, 22839, Pitch_bend_c, 11, 1802
1, 22839, Pitch_bend_c, 12, 4521
1, 22840, Note_on_c, 8, 56, 0
1, 22840, Note_on_c, 7, 56, 0
1, 22840, Pitch_bend_c, 11, 1779
1, 22840, Pitch_bend_c, 12, 4499
1, 22841, Pitch_bend_c, 11, 1757
1, 22841, Control_c, 12, 11, 92
1, 22841, Pitch_bend_c, 12, 4476
1, 22842, Pitch_bend_c, 11, 1734
1, 22842, Pitch_bend_c, 12, 4453
1, 22843, Control_c, 11, 11, 66
1, 22843, Pitch_bend_c, 11, 1711
1, 22843, Pitch_bend_c, 12, 4431
1, 22844, Pitch_bend_c, 11, 1689
1, 22844, Pitch_bend_c, 12, 4408
1, 22845, Pitch_bend_c, 11, 1666
1, 22845, Pitch_bend_c, 12, 4385
1, 22846, Pitch_bend_c, 11, 1643
1, 22846, Control_c, 12, 11, 91
1, 22846, Pitch_bend_c, 12, 4363
1, 22847, Control_c, 11, 11, 65
1, 22847, Pitch_bend_c, 11, 1621
1, 22847, Pitch_bend_c, 12, 4340
1, 22848, Pitch_bend_c, 11, 1598
1, 22848, Pitch_bend_c, 12, 4317
1, 22849, Pitch_bend_c, 11, 1575
1, 22849, Pitch_bend_c, 12, 4295
1, 22850, Pitch_bend_c, 11, 1553
1, 22850, Control_c, 12, 11, 90
1, 22850, Pitch_bend_c, 12, 4272
1, 22851, Pitch_bend_c, 11, 1530
1, 22851, Pitch_bend_c, 12, 4249
1, 22852, Control_c, 11, 11, 64
1, 22852, Pitch_bend_c, 11, 1507
1, 22852, Pitch_bend_c, 12, 4227
1, 22853, Pitch_bend_c, 11, 1485
1, 22853, Pitch_bend_c, 12, 4204
1, 22854, Pitch_bend_c, 11, 1462
1, 22854, Pitch_bend_c, 12, 4181
1, 22855, Pitch_bend_c, 11, 1439
1, 22855, Control_c, 12, 11, 89
1, 22855, Pitch_bend_c, 12, 4159
1, 22856, Control_c, 11, 11, 63
1, 22856, Pitch_bend_c, 11, 1417
1, 22856, Pitch_bend_c, 12, 4136
1, 22857, Pitch_bend_c, 11, 1394
1, 22857, Pitch_bend_c, 12, 4113
1, 22858, Pitch_bend_c, 11, 1371
1, 22858, Pitch_bend_c, 12, 4091
1, 22859, Pitch_bend_c, 11, 1349
1, 22859, Control_c, 12, 11, 88
1, 22859, Pitch_bend_c, 12, 4068
1, 22860, Note_on_c, 0, 63, 80
1, 22860, Note_on_c, 0, 67, 111
1, 22860, Note_on_c, 0, 72, 82
1, 22860, Note_on_c, 9, 42, 120
1, 22860, Pitch_bend_c, 11, 1326
1, 22860, Pitch_bend_c, 12, 4046
1, 22861, Note_on_c, 0, 72, 0
1, 22861, Note_on_c, 0, 67, 0
1, 22861, Note_on_c, 0, 63, 0
1, 22861, Control_c, 11, 11, 62
1, 22861, Pitch_bend_c, 11, 1304
1, 22861, Pitch_bend_c, 12, 4023
1, 22862, Pitch_bend_c, 11, 1281
1, 22862, Pitch_bend_c, 12, 4000
1, 22863, Pitch_bend_c, 11, 1258
1, 22863, Pitch_bend_c, 12, 3978
1, 22864, Pitch_bend_c, 11, 1236
1, 22864, Control_c, 12, 11, 87
1, 22864, Pitch_bend_c, 12, 3955
1, 22865, Control_c, 11, 11, 61
1, 22865, Pitch_bend_c, 11, 1213
1, 22865, Pitch_bend_c, 12, 3932
1, 22866, Pitch_bend_c, 11, 1190
1, 22866, Pitch_bend_c, 12, 3910
1, 22867, Pitch_bend_c, 11, 1168
1, 22867, Pitch_bend_c, 12, 3887
1, 22868, Pitch_bend_c, 11, 1145
1, 22868, Control_c, 12, 11, 86
1, 22868, Pitch_bend_c, 12, 3864
1, 22869, Pitch_bend_c, 11, 1122
1, 22869, Pitch_bend_c, 12, 3842
1, 22870, Control_c, 11, 11, 60
1, 22870, Pitch_bend_c, 11, 1100
1, 22870, Pitch_bend_c, 12, 3819
1, 22871, Pitch_bend_c, 11, 1077
1, 22871, Pitch_bend_c, 12, 3796
1, 22872, Pitch_bend_c, 11, 1054
1, 22872, Pitch_bend_c, 12, 3774
1, 22873, Pitch_bend_c, 11, 1032
1, 22873, Pitch_bend_c, 12, 3751
1, 22874, Control_c, 11, 11, 59
1, 22874, Pitch_bend_c, 11, 1009
1, 22874, Pitch_bend_c, 12, 3728
1, 22875, Pitch_bend_c, 11, 986
1, 22875, Pitch_bend_c, 12, 3706
1, 22876, Pitch_bend_c, 11, 964
1, 22876, Pitch_bend_c, 12, 3683
1, 22877, Pitch_bend_c, 11, 941
1, 22877, Control_c, 12, 11, 85
1, 22877, Pitch_bend_c, 12, 3660
1, 22878, Pitch_bend_c, 11, 918
1, 22878, Pitch_bend_c, 12, 3638
1, 22879, Control_c, 11, 11, 58
1, 22879, Pitch_bend_c, 11, 896
1, 22879, Pitch_bend_c, 12, 3615
1, 22880, Pitch_bend_c, 11, 873
1, 22880, Pitch_bend_c, 12, 3592
1, 22881, Pitch_bend_c, 11, 850
1, 22881, Pitch_bend_c, 12, 3570
1, 22882, Pitch_bend_c, 11, 828
1, 22882, Control_c, 12, 11, 84
1, 22882, Pitch_bend_c, 12, 3547
1, 22883, Control_c, 11, 11, 57
1, 22883, Pitch_bend_c, 11, 805
1, 22883, Pitch_bend_c, 12, 3524
1, 22884, Pitch_bend_c, 11, 782
1, 22884, Pitch_bend_c, 12, 3502
1, 22885, Note_on_c, 9, 42, 0
1, 22885, Pitch_bend_c, 11, 760
1, 22885, Pitch_bend_c, 12, 3479
1, 22886, Pitch_bend_c, 11, 737
1, 22886, Control_c, 12, 11, 83
1, 22886, Pitch_bend_c, 12, 3456
1, 22887, Pitch_bend_c, 11, 714
1, 22887, Pitch_bend_c, 12, 3434
1, 22888, Control_c, 11, 11, 56
1, 22888, Pitch_bend_c, 11, 692
1, 22888, Pitch_bend_c, 12, 3411
1, 22889, Pitch_bend_c, 11, 669
1, 22889, Pitch_bend_c, 12, 3388
1, 22890, Note_on_c, 0, 62, 119
1, 22890, Note_on_c, 0, 65, 89
1, 22890, Note_on_c, 0, 70, 91
1, 22890, Note_on_c, 1, 31, 116
1, 22890, Note_on_c, 7, 55, 118
1, 22890, Note_on_c, 7, 58, 120
1, 22890, Note_on_c, 7, 65, 98
1, 22890, Note_on_c, 8, 55, 118
1, 22890, Note_on_c, 8, 58, 120
1, 22890, Note_on_c, 8, 65, 98
1, 22890, Note_on_c, 10, 72, 118
1, 22890, Pitch_bend_c, 11, 646
1, 22890, Pitch_bend_c, 12, 3366
1, 22891, Pitch_bend_c, 11, 624
1, 22891, Control_c, 12, 11, 82
1, 22891, Pitch_bend_c, 12, 3343
1, 22892, Control_c, 11, 11, 55
1, 22892, Pitch_bend_c, 11, 601
1, 22892, Pitch_bend_c, 12, 3320
1, 22893, Pitch_bend_c, 11, 578
1, 22893, Pitch_bend_c, 12, 3298
1, 22894, Note_on_c, 10, 70, 0
1, 22894, Pitch_bend_c, 11, 556
1, 22894, Pitch_bend_c, 12, 3275
1, 22895, Pitch_bend_c, 11, 533
1, 22895, Control_c, 12, 11, 81
1, 22895, Pitch_bend_c, 12, 3252
1, 22896, Pitch_bend_c, 11, 510
1, 22896, Pitch_bend_c, 12, 3230
1, 22897, Control_c, 11, 11, 54
1, 22897, Pitch_bend_c, 11, 488
1, 22897, Pitch_bend_c, 12, 3207
1, 22898, Pitch_bend_c, 11, 465
1, 22898, Pitch_bend_c, 12, 3184
1, 22899, Pitch_bend_c, 11, 442
1, 22899, Pitch_bend_c, 12, 3162
1, 22900, Pitch_bend_c, 11, 420
1, 22900, Control_c, 12, 11, 80
1, 22900, Pitch_bend_c, 12, 3139
1, 22901, Control_c, 11, 11, 53
1, 22901, Pitch_bend_c, 11, 397
1, 22901, Pitch_bend_c, 12, 3116
1, 22902, Pitch_bend_c, 11, 374
1, 22902, Pitch_bend_c, 12, 3094
1, 22903, Pitch_bend_c, 11, 352
1, 22903, Pitch_bend_c, 12, 3071
1, 22904, Pitch_bend_c, 11, 329
1, 22904, Control_c, 12, 11, 79
1, 22904, Pitch_bend_c, 12, 3048
1, 22905, Pitch_bend_c, 11, 306
1, 22905, Pitch_bend_c, 12, 3026
1, 22906, Control_c, 11, 11, 52
1, 22906, Pitch_bend_c, 11, 284
1, 22906, Pitch_bend_c, 12, 3003
1, 22907, Pitch_bend_c, 11, 261
1, 22907, Pitch_bend_c, 12, 2980
1, 22908, Pitch_bend_c, 11, 238
1, 22908, Pitch_bend_c, 12, 2958
1, 22909, Pitch_bend_c, 11, 216
1, 22909, Control_c, 12, 11, 78
1, 22909, Pitch_bend_c, 12, 2935
1, 22910, Note_on_c, 2, 72, 0
1, 22910, Control_c, 11, 11, 51
1, 22910, Pitch_bend_c, 11, 193
1, 22910, Pitch_bend_c, 12, 2912
1, 22911, Pitch_bend_c, 11, 170
1, 22911, Pitch_bend_c, 12, 2890
1, 22912, Note_on_c, 1, 31, 0
1, 22912, Pitch_bend_c, 11, 148
1, 22912, Pitch_bend_c, 12, 2867
1, 22913, Note_on_c, 10, 72, 0
1, 22913, Pitch_bend_c, 11, 125
1, 22913, Control_c, 12, 11, 77
1, 22913, Pitch_bend_c, 12, 2844
1, 22914, Note_on_c, 2, 67, 0
1, 22914, Pitch_bend_c, 11, 102
1, 22914, Pitch_bend_c, 12, 2822
1, 22915, Control_c, 11, 11, 50
1, 22915, Pitch_bend_c, 11, 80
1, 22915, Pitch_bend_c, 12, 2799
1, 22916, Note_on_c, 0, 70, 0
1, 22916, Note_on_c, 7, 55, 0
1, 22916, Note_on_c, 8, 55, 0
1, 22916, Pitch_bend_c, 11, 57
1, 22916, Pitch_bend_c, 12, 2776
1, 22917, Pitch_bend_c, 11, 34
1, 22917, Pitch_bend_c, 12, 2754
1, 22918, Note_on_c, 0, 65, 0
1, 22918, Pitch_bend_c, 11, 12
1, 22918, Control_c, 12, 11, 76
1, 22918, Pitch_bend_c, 12, 2731
1, 22919, Note_on_c, 2, 63, 0
1, 22919, Note_on_c, 11, 96, 0
1, 22919, Note_on_c, 0, 62, 0
1, 22919, Pitch_bend_c, 12, 2709
1, 22920, Note_on_c, 9, 38, 120
1, 22920, Pitch_bend_c, 12, 2686
1, 22921, Pitch_bend_c, 12, 2663
1, 22922, Note_on_c, 8, 65, 0
1, 22922, Note_on_c, 7, 65, 0
1, 22922, Control_c, 12, 11, 75
1, 22922, Pitch_bend_c, 12, 2641
1, 22923, Note_on_c, 7, 58, 0
1, 22923, Note_on_c, 8, 58, 0
1, 22923, Pitch_bend_c, 12, 2618
1, 22924, Pitch_bend_c, 12, 2595
1, 22925, Pitch_bend_c, 12, 2573
1, 22926, Pitch_bend_c, 12, 2550
1, 22927, Control_c, 12, 11, 74
1, 22927, Pitch_bend_c, 12, 2527
1, 22928, Pitch_bend_c, 12, 2505
1, 22929, Pitch_bend_c, 12, 2482
1, 22930, Pitch_bend_c, 12, 2459
1, 22931, Control_c, 12, 11, 73
1, 22931, Pitch_bend_c, 12, 2437
1, 22932, Pitch_bend_c, 12, 2414
1, 22933, Pitch_bend_c, 12, 2391
1, 22934, Pitch_bend_c, 12, 2369
1, 22935, Pitch_bend_c, 12, 2346
1, 22936, Control_c, 12, 11, 72
1, 22936, Pitch_bend_c, 12, 2323
1, 22937, Pitch_bend_c, 12, 2301
1, 22938, Pitch_bend_c, 12, 2278
1, 22939, Pitch_bend_c, 12, 2255
1, 22940, Control_c, 12, 11, 71
1, 22940, Pitch_bend_c, 12, 2233
1, 22941, Pitch_bend_c, 12, 2210
1, 22942, Pitch_bend_c, 12, 2187
1, 22943, Pitch_bend_c, 12, 2165
1, 22944, Pitch_bend_c, 12, 2142
1, 22945, Control_c, 12, 11, 70
1, 22945, Pitch_bend_c, 12, 2119
1, 22946, Note_on_c, 9, 38, 0
1, 22946, Pitch_bend_c, 12, 2097
1, 22947, Pitch_bend_c, 12, 2074
1, 22948, Pitch_bend_c, 12, 2051
1, 22949, Control_c, 12, 11, 69
1, 22949, Pitch_bend_c, 12, 2029
1, 22950, Note_on_c, 0, 62, 109
1, 22950, Note_on_c, 0, 65, 77
1, 22950, Note_on_c, 0, 70, 60
1, 22950, Pitch_bend_c, 12, 2006
1, 22951, Note_on_c, 0, 70, 0
1, 22951, Note_on_c, 0, 65, 0
1, 22951, Note_on_c, 0, 62, 0
1, 22951, Pitch_bend_c, 12, 1983
1, 22952, Pitch_bend_c, 12, 1961
1, 22953, Pitch_bend_c, 12, 1938
1, 22954, Control_c, 12, 11, 68
1, 22954, Pitch_bend_c, 12, 1915
1, 22955, Pitch_bend_c, 12, 1893
1, 22956, Pitch_bend_c, 12, 1870
1, 22957, Pitch_bend_c, 12, 1847
1, 22958, Control_c, 12, 11, 67
1, 22958, Pitch_bend_c, 12, 1825
1, 22959, Pitch_bend_c, 12, 1802
1, 22960, Pitch_bend_c, 12, 1779
1, 22961, Pitch_bend_c, 12, 1757
1, 22962, Pitch_bend_c, 12, 1734
1, 22963, Control_c, 12, 11, 66
1, 22963, Pitch_bend_c, 12, 1711
1, 22964, Pitch_bend_c, 12, 1689
1, 22965, Pitch_bend_c, 12, 1666
1, 22966, Pitch_bend_c, 12, 1643
1, 22967, Control_c, 12, 11, 65
1, 22967, Pitch_bend_c, 12, 1621
1, 22968, Pitch_bend_c, 12, 1598
1, 22969, Pitch_bend_c, 12, 1575
1, 22970, Pitch_bend_c, 12, 1553
1, 22971, Pitch_bend_c, 12, 1530
1, 22972, Control_c, 12, 11, 64
1, 22972, Pitch_bend_c, 12, 1507
1, 22973, Pitch_bend_c, 12, 1485
1, 22974, Pitch_bend_c, 12, 1462
1, 22975, Pitch_bend_c, 12, 1439
1, 22976, Control_c, 12, 11, 63
1, 22976, Pitch_bend_c, 12, 1417
1, 22977, Pitch_bend_c, 12, 1394
1, 22978, Pitch_bend_c, 12, 1371
1, 22979, Pitch_bend_c, 12, 1349
1, 22980, Note_on_c, 0, 60, 119
1, 22980, Note_on_c, 0, 63, 91
1, 22980, Note_on_c, 0, 68, 91
1, 22980, Note_on_c, 1, 29, 120
1, 22980, Note_on_c, 2, 60, 105
1, 22980, Note_on_c, 2, 63, 98
1, 22980, Note_on_c, 2, 68, 92
1, 22980, Note_on_c, 7, 53, 95
1, 22980, Note_on_c, 7, 56, 119
1, 22980, Note_on_c, 7, 63, 109
1, 22980, Note_on_c, 8, 53, 95
1, 22980, Note_on_c, 8, 56, 119
1, 22980, Note_on_c, 8, 63, 109
1, 22980, Note_on_c, 9, 42, 120
1, 22980, Pitch_bend_c, 12, 1326
1, 22981, Control_c, 12, 11, 62
1, 22981, Pitch_bend_c, 12, 1304
1, 22982, Pitch_bend_c, 12, 1281
1, 22983, Pitch_bend_c, 12, 1258
1, 22984, Pitch_bend_c, 12, 1236
1, 22985, Control_c, 12, 11, 61
1, 22985, Pitch_bend_c, 12, 1213
1, 22986, Pitch_bend_c, 12, 1190
1, 22987, Pitch_bend_c, 12, 1168
1, 22988, Pitch_bend_c, 12, 1145
1, 22989, Pitch_bend_c, 12, 1122
1, 22990, Control_c, 12, 11, 60
1, 22990, Pitch_bend_c, 12, 1100
1, 22991, Pitch_bend_c, 12, 1077
1, 22992, Pitch_bend_c, 12, 1054
1, 22993, Pitch_bend_c, 12, 1032
1, 22994, Control_c, 12, 11, 59
1, 22994, Pitch_bend_c, 12, 1009
1, 22995, Pitch_bend_c, 12, 986
1, 22996, Pitch_bend_c, 12, 964
1, 22997, Pitch_bend_c, 12, 941
1, 22998, Pitch_bend_c, 12, 918
1, 22999, Control_c, 12, 11, 58
1, 22999, Pitch_bend_c, 12, 896
1, 23000, Pitch_bend_c, 12, 873
1, 23001, Pitch_bend_c, 12, 850
1, 23002, Pitch_bend_c, 12, 828
1, 23003, Control_c, 12, 11, 57
1, 23003, Pitch_bend_c, 12, 805
1, 23004, Pitch_bend_c, 12, 782
1, 23005, Note_on_c, 9, 42, 0
1, 23005, Pitch_bend_c, 12, 760
1, 23006, Pitch_bend_c, 12, 737
1, 23007, Pitch_bend_c, 12, 714
1, 23008, Control_c, 12, 11, 56
1, 23008, Pitch_bend_c, 12, 692
1, 23009, Pitch_bend_c, 12, 669
1, 23010, Pitch_bend_c, 12, 646
1, 23011, Pitch_bend_c, 12, 624
1, 23012, Control_c, 12, 11, 55
1, 23012, Pitch_bend_c, 12, 601
1, 23013, Pitch_bend_c, 12, 578
1, 23014, Pitch_bend_c, 12, 556
1, 23015, Pitch_bend_c, 12, 533
1, 23016, Pitch_bend_c, 12, 510
1, 23017, Control_c, 12, 11, 54
1, 23017, Pitch_bend_c, 12, 488
1, 23018, Pitch_bend_c, 12, 465
1, 23019, Pitch_bend_c, 12, 442
1, 23020, Pitch_bend_c, 12, 420
1, 23021, Control_c, 12, 11, 53
1, 23021, Pitch_bend_c, 12, 397
1, 23022, Pitch_bend_c, 12, 374
1, 23023, Pitch_bend_c, 12, 352
1, 23024, Pitch_bend_c, 12, 329
1, 23025, Pitch_bend_c, 12, 306
1, 23026, Control_c, 12, 11, 52
1, 23026, Pitch_bend_c, 12, 284
1, 23027, Pitch_bend_c, 12, 261
1, 23028, Pitch_bend_c, 12, 238
1, 23029, Pitch_bend_c, 12, 216
1, 23030, Control_c, 12, 11, 51
1, 23030, Pitch_bend_c, 12, 193
1, 23031, Pitch_bend_c, 12, 170
1, 23032, Pitch_bend_c, 12, 148
1, 23033, Pitch_bend_c, 12, 125
1, 23034, Pitch_bend_c, 12, 102
1, 23035, Control_c, 12, 11, 50
1, 23035, Pitch_bend_c, 12, 80
1, 23036, Pitch_bend_c, 12, 57
1, 23037, Pitch_bend_c, 12, 34
1, 23038, Pitch_bend_c, 12, 12
1, 23039, Note_on_c, 12, 96, 0
1, 23040, Note_on_c, 3, 68, 120
1, 23040, Note_on_c, 4, 60, 111
1, 23040, Note_on_c, 4, 63, 119
1, 23040, Note_on_c, 4, 72, 109
1, 23040, Note_on_c, 5, 56, 120
1, 23040, Note_on_c, 9, 36, 120
1, 23040, Note_on_c, 15, 60, 1
1, 23040, Note_on_c, 15, 72, 1
1, 23040, Note_on_c, 15, 63, 1
1, 23040, Lyric_t, "that "
1, 23067, Note_on_c, 9, 36, 0
1, 23081, Note_on_c, 1, 29, 0
1, 23100, Note_on_c, 1, 41, 120
1, 23100, Note_on_c, 9, 42, 120
1, 23107, Note_on_c, 15, 60, 0
1, 23107, Note_on_c, 4, 60, 0
1, 23108, Note_on_c, 4, 63, 0
1, 23108, Note_on_c, 15, 63, 0
1, 23109, Note_on_c, 4, 72, 0
1, 23109, Note_on_c, 15, 72, 0
1, 23125, Note_on_c, 5, 56, 0
1, 23125, Note_on_c, 3, 68, 0
1, 23126, Note_on_c, 9, 42, 0
1, 23134, Note_on_c, 1, 41, 0
1, 23154, Note_on_c, 0, 60, 0
1, 23156, Note_on_c, 0, 63, 0
1, 23159, Note_on_c, 0, 68, 0
1, 23159, Note_on_c, 7, 63, 0
1, 23159, Note_on_c, 8, 63, 0
1, 23160, Note_on_c, 7, 53, 0
1, 23160, Note_on_c, 8, 53, 0
1, 23160, Note_on_c, 1, 41, 120
1, 23160, Note_on_c, 3, 67, 118
1, 23160, Note_on_c, 4, 60, 105
1, 23160, Note_on_c, 4, 63, 115
1, 23160, Note_on_c, 4, 70, 119
1, 23160, Note_on_c, 5, 55, 118
1, 23160, Note_on_c, 9, 38, 120
1, 23160, Note_on_c, 15, 63, 1
1, 23160, Note_on_c, 15, 60, 1
1, 23160, Note_on_c, 15, 70, 1
1, 23160, Lyric_t, "is "
1, 23161, Note_on_c, 7, 56, 0
1, 23161, Note_on_c, 8, 56, 0
1, 23191, Note_on_c, 9, 38, 0
1, 23192, Note_on_c, 1, 41, 0
1, 23219, Note_on_c, 4, 63, 0
1, 23219, Note_on_c, 15, 63, 0
1, 23220, Note_on_c, 0, 60, 98
1, 23220, Note_on_c, 0, 63, 60
1, 23220, Note_on_c, 0, 68, 53
1, 23220, Note_on_c, 9, 42, 120
1, 23221, Note_on_c, 0, 68, 0
1, 23221, Note_on_c, 0, 60, 0
1, 23221, Note_on_c, 4, 60, 0
1, 23221, Note_on_c, 0, 63, 0
1, 23221, Note_on_c, 15, 60, 0
1, 23222, Note_on_c, 15, 70, 0
1, 23222, Note_on_c, 4, 70, 0
1, 23241, Note_on_c, 3, 67, 0
1, 23241, Note_on_c, 5, 55, 0
1, 23250, Note_on_c, 0, 60, 101
1, 23250, Note_on_c, 0, 63, 62
1, 23250, Note_on_c, 0, 68, 70
1, 23251, Note_on_c, 0, 68, 0
1, 23251, Note_on_c, 0, 60, 0
1, 23251, Note_on_c, 0, 63, 0
1, 23253, Note_on_c, 9, 42, 0
1, 23279, Control_c, 11, 11, 127
1, 23280, Note_on_c, 0, 60, 118
1, 23280, Note_on_c, 0, 63, 92
1, 23280, Note_on_c, 0, 68, 92
1, 23280, Note_on_c, 1, 29, 120
1, 23280, Note_on_c, 3, 63, 109
1, 23280, Note_on_c, 4, 60, 111
1, 23280, Note_on_c, 4, 63, 119
1, 23280, Note_on_c, 4, 70, 104
1, 23280, Note_on_c, 5, 51, 109
1, 23280, Note_on_c, 7, 53, 101
1, 23280, Note_on_c, 7, 56, 120
1, 23280, Note_on_c, 7, 63, 98
1, 23280, Note_on_c, 8, 53, 101
1, 23280, Note_on_c, 8, 56, 120
1, 23280, Note_on_c, 8, 63, 98
1, 23280, Note_on_c, 9, 36, 120
1, 23280, Note_on_c, 15, 70, 1
1, 23280, Note_on_c, 15, 60, 1
1, 23280, Note_on_c, 15, 63, 1
1, 23280, Lyric_t, "what "
1, 23307, Note_on_c, 9, 36, 0
1, 23315, Note_on_c, 1, 29, 0
1, 23318, Note_on_c, 0, 60, 0
1, 23321, Note_on_c, 0, 68, 0
1, 23322, Note_on_c, 0, 63, 0
1, 23336, Note_on_c, 8, 63, 0
1, 23336, Note_on_c, 8, 53, 0
1, 23336, Note_on_c, 7, 53, 0
1, 23336, Note_on_c, 7, 63, 0
1, 23337, Note_on_c, 8, 56, 0
1, 23337, Note_on_c, 7, 56, 0
1, 23340, Note_on_c, 0, 60, 97
1, 23340, Note_on_c, 0, 63, 62
1, 23340, Note_on_c, 0, 68, 62
1, 23340, Note_on_c, 9, 42, 120
1, 23341, Note_on_c, 0, 68, 0
1, 23341, Note_on_c, 0, 63, 0
1, 23341, Note_on_c, 0, 60, 0
1, 23346, Note_on_c, 4, 70, 0
1, 23346, Note_on_c, 15, 70, 0
1, 23347, Note_on_c, 4, 60, 0
1, 23347, Note_on_c, 15, 60, 0
1, 23349, Note_on_c, 4, 63, 0
1, 23349, Note_on_c, 15, 63, 0
1, 23367, Note_on_c, 3, 63, 0
1, 23367, Note_on_c, 5, 51, 0
1, 23369, Note_on_c, 9, 42, 0
1, 23399, Control_c, 12, 11, 127
1, 23400, Note_on_c, 0, 60, 116
1, 23400, Note_on_c, 0, 63, 92
1, 23400, Note_on_c, 0, 68, 111
1, 23400, Note_on_c, 1, 29, 116
1, 23400, Note_on_c, 3, 67, 120
1, 23400, Note_on_c, 4, 60, 116
1, 23400, Note_on_c, 4, 63, 119
1, 23400, Note_on_c, 4, 70, 109
1, 23400, Note_on_c, 5, 55, 120
1, 23400, Note_on_c, 7, 53, 113
1, 23400, Note_on_c, 7, 56, 120
1, 23400, Note_on_c, 7, 63, 115
1, 23400, Note_on_c, 8, 53, 113
1, 23400, Note_on_c, 8, 56, 120
1, 23400, Note_on_c, 8, 63, 115
1, 23400, Note_on_c, 9, 38, 120
1, 23400, Note_on_c, 15, 63, 1
1, 23400, Note_on_c, 15, 60, 1
1, 23400, Note_on_c, 15, 70, 1
1, 23400, Lyric_t, "you "
1, 23403, Note_on_c, 2, 60, 0
1, 23407, Note_on_c, 2, 63, 0
1, 23409, Note_on_c, 2, 68, 0
1, 23428, Note_on_c, 9, 38, 0
1, 23430, Note_on_c, 1, 29, 0
1, 23439, Note_on_c, 0, 60, 0
1, 23442, Note_on_c, 0, 63, 0
1, 23442, Note_on_c, 0, 68, 0
1, 23451, Note_on_c, 8, 53, 0
1, 23451, Note_on_c, 7, 53, 0
1, 23452, Note_on_c, 8, 56, 0
1, 23452, Note_on_c, 7, 56, 0
1, 23455, Note_on_c, 7, 63, 0
1, 23455, Note_on_c, 8, 63, 0
1, 23456, Note_on_c, 15, 70, 0
1, 23456, Note_on_c, 4, 70, 0
1, 23459, Note_on_c, 4, 60, 0
1, 23459, Note_on_c, 15, 60, 0
1, 23460, Note_on_c, 9, 42, 120
1, 23461, Note_on_c, 4, 63, 0
1, 23461, Note_on_c, 15, 63, 0
1, 23487, Note_on_c, 9, 42, 0
1, 23490, Note_on_c, 4, 62, 101
1, 23490, Note_on_c, 4, 65, 111
1, 23490, Note_on_c, 4, 70, 92
1, 23490, Note_on_c, 15, 62, 1
1, 23490, Note_on_c, 15, 70, 1
1, 23490, Note_on_c, 15, 65, 1
1, 23494, Note_on_c, 3, 67, 0
1, 23494, Note_on_c, 5, 55, 0
1, 23520, Note_on_c, 0, 62, 116
1, 23520, Note_on_c, 0, 65, 94
1, 23520, Note_on_c, 0, 70, 92
1, 23520, Note_on_c, 1, 31, 120
1, 23520, Note_on_c, 2, 62, 101
1, 23520, Note_on_c, 2, 65, 109
1, 23520, Note_on_c, 2, 70, 89
1, 23520, Note_on_c, 3, 65, 120
1, 23520, Note_on_c, 5, 53, 120
1, 23520, Note_on_c, 7, 55, 120
1, 23520, Note_on_c, 7, 58, 120
1, 23520, Note_on_c, 7, 65, 90
1, 23520, Note_on_c, 8, 55, 120
1, 23520, Note_on_c, 8, 58, 120
1, 23520, Note_on_c, 8, 65, 90
1, 23520, Note_on_c, 9, 36, 120
1, 23520, Lyric_t, "are "
1, 23520, Lyric_t, "\015"
1, 23548, Note_on_c, 9, 36, 0
1, 23566, Note_on_c, 1, 31, 0
1, 23580, Note_on_c, 1, 43, 119
1, 23580, Note_on_c, 9, 42, 120
1, 23582, Note_on_c, 4, 65, 0
1, 23582, Note_on_c, 15, 65, 0
1, 23584, Note_on_c, 4, 70, 0
1, 23584, Note_on_c, 15, 70, 0
1, 23585, Note_on_c, 15, 62, 0
1, 23585, Note_on_c, 4, 62, 0
1, 23607, Note_on_c, 9, 42, 0
1, 23613, Note_on_c, 5, 53, 0
1, 23613, Note_on_c, 3, 65, 0
1, 23622, Note_on_c, 0, 65, 0
1, 23631, Note_on_c, 1, 43, 0
1, 23631, Note_on_c, 0, 62, 0
1, 23635, Note_on_c, 0, 70, 0
1, 23640, Note_on_c, 7, 55, 0
1, 23640, Note_on_c, 8, 55, 0
1, 23640, Note_on_c, 9, 38, 120
1, 23642, Note_on_c, 7, 58, 0
1, 23642, Note_on_c, 8, 58, 0
1, 23645, Note_on_c, 7, 65, 0
1, 23645, Note_on_c, 8, 65, 0
1, 23667, Note_on_c, 9, 38, 0
1, 23687, Note_on_c, 10, 70, 89
1, 23700, Note_on_c, 0, 62, 100
1, 23700, Note_on_c, 0, 65, 71
1, 23700, Note_on_c, 0, 70, 48
1, 23700, Note_on_c, 9, 42, 120
1, 23700, Note_on_c, 10, 72, 118
1, 23701, Note_on_c, 0, 70, 0
1, 23701, Note_on_c, 0, 65, 0
1, 23701, Note_on_c, 0, 62, 0
1, 23705, Note_on_c, 10, 70, 0
1, 23723, Note_on_c, 10, 72, 0
1, 23730, Note_on_c, 0, 62, 98
1, 23730, Note_on_c, 0, 65, 78
1, 23730, Note_on_c, 0, 70, 71
1, 23731, Note_on_c, 0, 70, 0
1, 23731, Note_on_c, 0, 62, 0
1, 23731, Note_on_c, 0, 65, 0
1, 23732, Note_on_c, 9, 42, 0
1, 23760, Note_on_c, 0, 62, 113
1, 23760, Note_on_c, 0, 65, 83
1, 23760, Note_on_c, 0, 70, 92
1, 23760, Note_on_c, 1, 31, 119
1, 23760, Note_on_c, 7, 55, 116
1, 23760, Note_on_c, 7, 58, 120
1, 23760, Note_on_c, 7, 65, 101
1, 23760, Note_on_c, 8, 55, 116
1, 23760, Note_on_c, 8, 58, 120
1, 23760, Note_on_c, 8, 65, 101
1, 23760, Note_on_c, 9, 36, 120
1, 23760, Note_on_c, 10, 70, 120
1, 23787, Note_on_c, 9, 36, 0
1, 23789, Note_on_c, 1, 31, 0
1, 23792, Note_on_c, 8, 55, 0
1, 23792, Note_on_c, 7, 55, 0
1, 23792, Note_on_c, 7, 58, 0
1, 23792, Note_on_c, 8, 58, 0
1, 23793, Note_on_c, 7, 65, 0
1, 23793, Note_on_c, 8, 65, 0
1, 23802, Note_on_c, 0, 62, 0
1, 23804, Note_on_c, 0, 70, 0
1, 23811, Note_on_c, 0, 65, 0
1, 23820, Note_on_c, 0, 62, 94
1, 23820, Note_on_c, 0, 65, 59
1, 23820, Note_on_c, 0, 70, 57
1, 23820, Note_on_c, 9, 42, 120
1, 23821, Note_on_c, 0, 70, 0
1, 23821, Note_on_c, 0, 65, 0
1, 23821, Note_on_c, 0, 62, 0
1, 23846, Note_on_c, 9, 42, 0
1, 23850, Note_on_c, 2, 65, 0
1, 23850, Note_on_c, 0, 62, 111
1, 23850, Note_on_c, 0, 65, 87
1, 23850, Note_on_c, 0, 70, 92
1, 23850, Note_on_c, 1, 34, 120
1, 23850, Note_on_c, 7, 55, 120
1, 23850, Note_on_c, 7, 58, 120
1, 23850, Note_on_c, 7, 65, 105
1, 23850, Note_on_c, 8, 55, 120
1, 23850, Note_on_c, 8, 58, 120
1, 23850, Note_on_c, 8, 65, 105
1, 23850, Note_on_c, 10, 72, 118
1, 23852, Note_on_c, 2, 62, 0
1, 23854, Note_on_c, 10, 70, 0
1, 23859, Note_on_c, 2, 70, 0
1, 23873, Note_on_c, 7, 55, 0
1, 23873, Note_on_c, 8, 55, 0
1, 23873, Note_on_c, 10, 72, 0
1, 23874, Note_on_c, 7, 58, 0
1, 23874, Note_on_c, 8, 58, 0
1, 23880, Note_on_c, 7, 65, 0
1, 23880, Note_on_c, 8, 65, 0
1, 23880, Note_on_c, 3, 63, 120
1, 23880, Note_on_c, 4, 62, 101
1, 23880, Note_on_c, 4, 65, 101
1, 23880, Note_on_c, 4, 70, 115
1, 23880, Note_on_c, 5, 51, 120
1, 23880, Note_on_c, 9, 38, 120
1, 23880, Note_on_c, 15, 65, 1
1, 23880, Note_on_c, 15, 62, 1
1, 23880, Note_on_c, 15, 70, 1
1, 23880, Lyric_t, "Ho"
1, 23881, Note_on_c, 1, 34, 0
1, 23886, Note_on_c, 0, 62, 0
1, 23888, Note_on_c, 0, 70, 0
1, 23891, Note_on_c, 0, 65, 0
1, 23905, Note_on_c, 9, 38, 0
1, 23910, Note_on_c, 0, 62, 78
1, 23910, Note_on_c, 0, 65, 72
1, 23910, Note_on_c, 0, 70, 70
1, 23911, Note_on_c, 0, 70, 0
1, 23911, Note_on_c, 0, 65, 0
1, 23911, Note_on_c, 0, 62, 0
1, 23917, Note_on_c, 4, 62, 0
1, 23917, Note_on_c, 15, 62, 0
1, 23920, Note_on_c, 4, 65, 0
1, 23920, Note_on_c, 4, 70, 0
1, 23920, Note_on_c, 15, 70, 0
1, 23920, Note_on_c, 15, 65, 0
1, 23930, Note_on_c, 5, 51, 0
1, 23930, Note_on_c, 3, 63, 0
1, 23940, Note_on_c, 0, 63, 87
1, 23940, Note_on_c, 0, 67, 105
1, 23940, Note_on_c, 0, 72, 113
1, 23940, Note_on_c, 1, 36, 120
1, 23940, Note_on_c, 2, 63, 81
1, 23940, Note_on_c, 2, 67, 116
1, 23940, Note_on_c, 2, 72, 105
1, 23940, Note_on_c, 3, 60, 120
1, 23940, Note_on_c, 4, 62, 91
1, 23940, Note_on_c, 4, 65, 100
1, 23940, Note_on_c, 4, 67, 103
1, 23940, Note_on_c, 5, 48, 120
1, 23940, Note_on_c, 7, 60, 116
1, 23940, Note_on_c, 7, 63, 104
1, 23940, Note_on_c, 7, 67, 116
1, 23940, Note_on_c, 8, 60, 116
1, 23940, Note_on_c, 8, 63, 104
1, 23940, Note_on_c, 8, 67, 116
1, 23940, Note_on_c, 9, 42, 120
1, 23940, Note_on_c, 15, 67, 1
1, 23940, Note_on_c, 15, 62, 1
1, 23940, Note_on_c, 15, 65, 1
1, 23940, Lyric_t, "ney, "
1, 23963, Note_on_c, 15, 65, 0
1, 23963, Note_on_c, 4, 65, 0
1, 23964, Note_on_c, 15, 62, 0
1, 23964, Note_on_c, 4, 62, 0
1, 23967, Note_on_c, 9, 42, 0
1, 23969, Note_on_c, 4, 67, 0
1, 23969, Note_on_c, 15, 67, 0
1, 23973, Note_on_c, 3, 60, 0
1, 23973, Note_on_c, 5, 48, 0
1, 24000, Note_on_c, 3, 68, 119
1, 24000, Note_on_c, 4, 63, 86
1, 24000, Note_on_c, 4, 67, 118
1, 24000, Note_on_c, 4, 72, 95
1, 24000, Note_on_c, 5, 56, 119
1, 24000, Note_on_c, 9, 36, 120
1, 24000, Note_on_c, 15, 67, 1
1, 24000, Note_on_c, 15, 63, 1
1, 24000, Note_on_c, 15, 72, 1
1, 24000, Lyric_t, "you're "
1, 24026, Note_on_c, 9, 36, 0
1, 24057, Note_on_c, 1, 36, 0
1, 24060, Note_on_c, 1, 48, 120
1, 24060, Note_on_c, 9, 42, 120
1, 24083, Note_on_c, 15, 63, 0
1, 24083, Note_on_c, 4, 63, 0
1, 24085, Note_on_c, 4, 72, 0
1, 24085, Note_on_c, 15, 72, 0
1, 24087, Note_on_c, 4, 67, 0
1, 24087, Note_on_c, 15, 67, 0
1, 24087, Note_on_c, 9, 42, 0
1, 24095, Note_on_c, 5, 56, 0
1, 24095, Note_on_c, 3, 68, 0
1, 24096, Note_on_c, 1, 48, 0
1, 24112, Note_on_c, 8, 67, 0
1, 24112, Note_on_c, 7, 67, 0
1, 24113, Note_on_c, 8, 60, 0
1, 24113, Note_on_c, 7, 60, 0
1, 24114, Note_on_c, 8, 63, 0
1, 24114, Note_on_c, 7, 63, 0
1, 24119, Note_on_c, 0, 67, 0
1, 24119, Note_on_c, 0, 72, 0
1, 24120, Note_on_c, 0, 63, 92
1, 24120, Note_on_c, 0, 67, 61
1, 24120, Note_on_c, 0, 72, 105
1, 24120, Note_on_c, 3, 67, 120
1, 24120, Note_on_c, 4, 63, 100
1, 24120, Note_on_c, 4, 67, 118
1, 24120, Note_on_c, 4, 70, 92
1, 24120, Note_on_c, 5, 55, 120
1, 24120, Note_on_c, 9, 38, 120
1, 24120, Note_on_c, 15, 63, 1
1, 24120, Note_on_c, 15, 70, 1
1, 24120, Note_on_c, 15, 67, 1
1, 24120, Lyric_t, "my "
1, 24121, Note_on_c, 0, 72, 0
1, 24121, Note_on_c, 0, 63, 0
1, 24121, Note_on_c, 0, 67, 0
1, 24121, Note_on_c, 0, 63, 0
1, 24144, Note_on_c, 9, 38, 0
1, 24180, Note_on_c, 1, 34, 98
1, 24180, Note_on_c, 9, 42, 120
1, 24183, Note_on_c, 15, 67, 0
1, 24183, Note_on_c, 4, 67, 0
1, 24195, Note_on_c, 4, 63, 0
1, 24195, Note_on_c, 4, 70, 0
1, 24195, Note_on_c, 15, 63, 0
1, 24195, Note_on_c, 15, 70, 0
1, 24208, Note_on_c, 9, 42, 0
1, 24209, Note_on_c, 1, 34, 0
1, 24210, Note_on_c, 1, 36, 111
1, 24212, Note_on_c, 2, 67, 0
1, 24212, Note_on_c, 5, 55, 0
1, 24212, Note_on_c, 3, 67, 0
1, 24215, Note_on_c, 2, 72, 0
1, 24219, Note_on_c, 2, 63, 0
1, 24239, Note_on_c, 1, 36, 0
1, 24240, Note_on_c, 0, 63, 94
1, 24240, Note_on_c, 0, 67, 100
1, 24240, Note_on_c, 0, 72, 94
1, 24240, Note_on_c, 1, 39, 94
1, 24240, Note_on_c, 2, 63, 81
1, 24240, Note_on_c, 2, 67, 119
1, 24240, Note_on_c, 2, 72, 91
1, 24240, Note_on_c, 3, 65, 118
1, 24240, Note_on_c, 4, 62, 103
1, 24240, Note_on_c, 4, 65, 103
1, 24240, Note_on_c, 4, 70, 109
1, 24240, Note_on_c, 5, 53, 118
1, 24240, Note_on_c, 7, 60, 107
1, 24240, Note_on_c, 7, 63, 119
1, 24240, Note_on_c, 7, 67, 103
1, 24240, Note_on_c, 8, 60, 107
1, 24240, Note_on_c, 8, 63, 119
1, 24240, Note_on_c, 8, 67, 103
1, 24240, Note_on_c, 9, 36, 120
1, 24240, Note_on_c, 15, 65, 1
1, 24240, Note_on_c, 15, 62, 1
1, 24240, Note_on_c, 15, 70, 1
1, 24240, Lyric_t, "gol"
1, 24266, Note_on_c, 9, 36, 0
1, 24269, Note_on_c, 1, 39, 0
1, 24270, Note_on_c, 1, 36, 118
1, 24273, Note_on_c, 0, 72, 0
1, 24273, Note_on_c, 0, 67, 0
1, 24277, Note_on_c, 0, 63, 0
1, 24288, Note_on_c, 2, 72, 0
1, 24291, Note_on_c, 8, 67, 0
1, 24291, Note_on_c, 7, 67, 0
1, 24292, Note_on_c, 8, 60, 0
1, 24292, Note_on_c, 7, 60, 0
1, 24296, Note_on_c, 8, 63, 0
1, 24296, Note_on_c, 2, 67, 0
1, 24296, Note_on_c, 7, 63, 0
1, 24298, Note_on_c, 2, 63, 0
1, 24300, Note_on_c, 9, 42, 120
1, 24306, Note_on_c, 1, 36, 0
1, 24314, Note_on_c, 4, 62, 0
1, 24314, Note_on_c, 15, 62, 0
1, 24317, Note_on_c, 4, 70, 0
1, 24317, Note_on_c, 15, 65, 0
1, 24317, Note_on_c, 15, 70, 0
1, 24317, Note_on_c, 4, 65, 0
1, 24323, Note_on_c, 9, 42, 0
1, 24332, Note_on_c, 3, 65, 0
1, 24332, Note_on_c, 5, 53, 0
1, 24360, Note_on_c, 0, 62, 119
1, 24360, Note_on_c, 0, 65, 105
1, 24360, Note_on_c, 0, 70, 92
1, 24360, Note_on_c, 1, 34, 109
1, 24360, Note_on_c, 2, 62, 98
1, 24360, Note_on_c, 2, 65, 116
1, 24360, Note_on_c, 2, 70, 91
1, 24360, Note_on_c, 3, 67, 120
1, 24360, Note_on_c, 4, 62, 105
1, 24360, Note_on_c, 4, 65, 109
1, 24360, Note_on_c, 4, 70, 111
1, 24360, Note_on_c, 5, 55, 120
1, 24360, Note_on_c, 7, 58, 98
1, 24360, Note_on_c, 7, 62, 120
1, 24360, Note_on_c, 7, 65, 107
1, 24360, Note_on_c, 8, 58, 98
1, 24360, Note_on_c, 8, 62, 120
1, 24360, Note_on_c, 8, 65, 107
1, 24360, Note_on_c, 9, 38, 120
1, 24360, Note_on_c, 15, 70, 1
1, 24360, Note_on_c, 15, 62, 1
1, 24360, Note_on_c, 15, 65, 1
1, 24360, Lyric_t, "den "
1, 24388, Note_on_c, 9, 38, 0
1, 24388, Note_on_c, 0, 62, 0
1, 24393, Note_on_c, 0, 70, 0
1, 24394, Note_on_c, 0, 65, 0
1, 24409, Note_on_c, 4, 62, 0
1, 24409, Note_on_c, 15, 62, 0
1, 24412, Note_on_c, 4, 65, 0
1, 24412, Note_on_c, 15, 65, 0
1, 24415, Note_on_c, 8, 62, 0
1, 24415, Note_on_c, 7, 62, 0
1, 24416, Note_on_c, 4, 70, 0
1, 24416, Note_on_c, 15, 70, 0
1, 24418, Note_on_c, 8, 58, 0
1, 24418, Note_on_c, 7, 58, 0
1, 24420, Note_on_c, 9, 42, 120
1, 24421, Note_on_c, 7, 65, 0
1, 24421, Note_on_c, 8, 65, 0
1, 24429, Note_on_c, 2, 65, 0
1, 24430, Note_on_c, 2, 62, 0
1, 24432, Note_on_c, 5, 55, 0
1, 24432, Note_on_c, 3, 67, 0
1, 24432, Note_on_c, 2, 70, 0
1, 24440, Note_on_c, 9, 42, 0
1, 24450, Note_on_c, 3, 60, 120
1, 24450, Note_on_c, 4, 60, 97
1, 24450, Note_on_c, 4, 63, 119
1, 24450, Note_on_c, 4, 70, 120
1, 24450, Note_on_c, 5, 48, 120
1, 24450, Note_on_c, 15, 63, 1
1, 24450, Note_on_c, 15, 60, 1
1, 24450, Note_on_c, 15, 70, 1
1, 24450, Lyric_t, "star "
1, 24450, Lyric_t, "\015"
1, 24461, Note_on_c, 15, 70, 0
1, 24461, Note_on_c, 4, 70, 0
1, 24463, Note_on_c, 1, 34, 0
1, 24466, Note_on_c, 4, 60, 0
1, 24466, Note_on_c, 15, 60, 0
1, 24466, Note_on_c, 4, 63, 0
1, 24466, Note_on_c, 15, 63, 0
1, 24480, Note_on_c, 3, 60, 0
1, 24480, Note_on_c, 5, 48, 0
1, 24480, Note_on_c, 0, 63, 98
1, 24480, Note_on_c, 0, 67, 118
1, 24480, Note_on_c, 0, 72, 105
1, 24480, Note_on_c, 1, 32, 120
1, 24480, Note_on_c, 2, 63, 81
1, 24480, Note_on_c, 2, 67, 116
1, 24480, Note_on_c, 2, 72, 107
1, 24480, Note_on_c, 7, 56, 92
1, 24480, Note_on_c, 7, 60, 120
1, 24480, Note_on_c, 7, 67, 113
1, 24480, Note_on_c, 8, 56, 92
1, 24480, Note_on_c, 8, 60, 120
1, 24480, Note_on_c, 8, 67, 113
1, 24480, Note_on_c, 9, 36, 120
1, 24480, Note_on_c, 11, 96, 120
1, 24480, Pitch_bend_c, 11, 8125
1, 24481, Pitch_bend_c, 11, 8102
1, 24482, Pitch_bend_c, 11, 8079
1, 24483, Pitch_bend_c, 11, 8057
1, 24484, Pitch_bend_c, 11, 8034
1, 24485, Pitch_bend_c, 11, 8011
1, 24486, Pitch_bend_c, 11, 7989
1, 24487, Pitch_bend_c, 11, 7966
1, 24488, Control_c, 11, 11, 126
1, 24488, Pitch_bend_c, 11, 7943
1, 24489, Pitch_bend_c, 11, 7921
1, 24490, Pitch_bend_c, 11, 7898
1, 24491, Pitch_bend_c, 11, 7875
1, 24492, Pitch_bend_c, 11, 7853
1, 24493, Control_c, 11, 11, 125
1, 24493, Pitch_bend_c, 11, 7830
1, 24494, Pitch_bend_c, 11, 7807
1, 24495, Pitch_bend_c, 11, 7785
1, 24496, Pitch_bend_c, 11, 7762
1, 24497, Control_c, 11, 11, 124
1, 24497, Pitch_bend_c, 11, 7739
1, 24498, Pitch_bend_c, 11, 7717
1, 24499, Pitch_bend_c, 11, 7694
1, 24500, Pitch_bend_c, 11, 7671
1, 24501, Pitch_bend_c, 11, 7649
1, 24502, Control_c, 11, 11, 123
1, 24502, Pitch_bend_c, 11, 7626
1, 24503, Pitch_bend_c, 11, 7603
1, 24504, Pitch_bend_c, 11, 7581
1, 24505, Pitch_bend_c, 11, 7558
1, 24506, Control_c, 11, 11, 122
1, 24506, Pitch_bend_c, 11, 7535
1, 24507, Pitch_bend_c, 11, 7513
1, 24508, Pitch_bend_c, 11, 7490
1, 24509, Pitch_bend_c, 11, 7467
1, 24510, Pitch_bend_c, 11, 7445
1, 24511, Control_c, 11, 11, 121
1, 24511, Pitch_bend_c, 11, 7422
1, 24512, Pitch_bend_c, 11, 7399
1, 24513, Note_on_c, 9, 36, 0
1, 24513, Pitch_bend_c, 11, 7377
1, 24514, Pitch_bend_c, 11, 7354
1, 24515, Control_c, 11, 11, 120
1, 24515, Pitch_bend_c, 11, 7331
1, 24516, Pitch_bend_c, 11, 7309
1, 24517, Pitch_bend_c, 11, 7286
1, 24518, Pitch_bend_c, 11, 7263
1, 24519, Pitch_bend_c, 11, 7241
1, 24520, Control_c, 11, 11, 119
1, 24520, Pitch_bend_c, 11, 7218
1, 24521, Pitch_bend_c, 11, 7195
1, 24522, Pitch_bend_c, 11, 7173
1, 24523, Pitch_bend_c, 11, 7150
1, 24524, Control_c, 11, 11, 118
1, 24524, Pitch_bend_c, 11, 7127
1, 24525, Pitch_bend_c, 11, 7105
1, 24526, Pitch_bend_c, 11, 7082
1, 24527, Pitch_bend_c, 11, 7059
1, 24528, Pitch_bend_c, 11, 7037
1, 24529, Control_c, 11, 11, 117
1, 24529, Pitch_bend_c, 11, 7014
1, 24530, Pitch_bend_c, 11, 6991
1, 24531, Pitch_bend_c, 11, 6969
1, 24532, Pitch_bend_c, 11, 6946
1, 24533, Control_c, 11, 11, 116
1, 24533, Pitch_bend_c, 11, 6923
1, 24534, Pitch_bend_c, 11, 6901
1, 24535, Pitch_bend_c, 11, 6878
1, 24536, Pitch_bend_c, 11, 6855
1, 24537, Pitch_bend_c, 11, 6833
1, 24538, Control_c, 11, 11, 115
1, 24538, Pitch_bend_c, 11, 6810
1, 24539, Note_on_c, 1, 32, 0
1, 24539, Pitch_bend_c, 11, 6788
1, 24540, Note_on_c, 1, 44, 120
1, 24540, Note_on_c, 9, 42, 120
1, 24540, Pitch_bend_c, 11, 6765
1, 24541, Pitch_bend_c, 11, 6742
1, 24542, Control_c, 11, 11, 114
1, 24542, Pitch_bend_c, 11, 6720
1, 24543, Pitch_bend_c, 11, 6697
1, 24544, Pitch_bend_c, 11, 6674
1, 24545, Pitch_bend_c, 11, 6652
1, 24546, Pitch_bend_c, 11, 6629
1, 24547, Control_c, 11, 11, 113
1, 24547, Pitch_bend_c, 11, 6606
1, 24548, Pitch_bend_c, 11, 6584
1, 24549, Pitch_bend_c, 11, 6561
1, 24550, Pitch_bend_c, 11, 6538
1, 24551, Control_c, 11, 11, 112
1, 24551, Pitch_bend_c, 11, 6516
1, 24552, Pitch_bend_c, 11, 6493
1, 24553, Pitch_bend_c, 11, 6470
1, 24554, Pitch_bend_c, 11, 6448
1, 24555, Pitch_bend_c, 11, 6425
1, 24556, Control_c, 11, 11, 111
1, 24556, Pitch_bend_c, 11, 6402
1, 24557, Pitch_bend_c, 11, 6380
1, 24558, Pitch_bend_c, 11, 6357
1, 24559, Pitch_bend_c, 11, 6334
1, 24560, Control_c, 11, 11, 110
1, 24560, Pitch_bend_c, 11, 6312
1, 24561, Pitch_bend_c, 11, 6289
1, 24562, Pitch_bend_c, 11, 6266
1, 24563, Pitch_bend_c, 11, 6244
1, 24564, Pitch_bend_c, 11, 6221
1, 24565, Control_c, 11, 11, 109
1, 24565, Pitch_bend_c, 11, 6198
1, 24566, Pitch_bend_c, 11, 6176
1, 24567, Pitch_bend_c, 11, 6153
1, 24568, Pitch_bend_c, 11, 6130
1, 24569, Control_c, 11, 11, 108
1, 24569, Pitch_bend_c, 11, 6108
1, 24570, Pitch_bend_c, 11, 6085
1, 24571, Note_on_c, 9, 42, 0
1, 24571, Pitch_bend_c, 11, 6062
1, 24572, Pitch_bend_c, 11, 6040
1, 24573, Pitch_bend_c, 11, 6017
1, 24574, Control_c, 11, 11, 107
1, 24574, Pitch_bend_c, 11, 5994
1, 24575, Note_on_c, 1, 44, 0
1, 24575, Pitch_bend_c, 11, 5972
1, 24576, Pitch_bend_c, 11, 5949
1, 24577, Pitch_bend_c, 11, 5926
1, 24578, Control_c, 11, 11, 106
1, 24578, Pitch_bend_c, 11, 5904
1, 24579, Pitch_bend_c, 11, 5881
1, 24580, Pitch_bend_c, 11, 5858
1, 24581, Pitch_bend_c, 11, 5836
1, 24582, Pitch_bend_c, 11, 5813
1, 24583, Control_c, 11, 11, 105
1, 24583, Pitch_bend_c, 11, 5790
1, 24584, Pitch_bend_c, 11, 5768
1, 24585, Pitch_bend_c, 11, 5745
1, 24586, Pitch_bend_c, 11, 5722
1, 24587, Control_c, 11, 11, 104
1, 24587, Pitch_bend_c, 11, 5700
1, 24588, Pitch_bend_c, 11, 5677
1, 24589, Pitch_bend_c, 11, 5654
1, 24590, Note_on_c, 0, 67, 0
1, 24590, Pitch_bend_c, 11, 5632
1, 24591, Pitch_bend_c, 11, 5609
1, 24592, Control_c, 11, 11, 103
1, 24592, Pitch_bend_c, 11, 5586
1, 24593, Pitch_bend_c, 11, 5564
1, 24594, Note_on_c, 7, 67, 0
1, 24594, Note_on_c, 8, 67, 0
1, 24594, Pitch_bend_c, 11, 5541
1, 24595, Note_on_c, 7, 56, 0
1, 24595, Note_on_c, 8, 56, 0
1, 24595, Pitch_bend_c, 11, 5518
1, 24596, Note_on_c, 0, 63, 0
1, 24596, Note_on_c, 7, 60, 0
1, 24596, Note_on_c, 8, 60, 0
1, 24596, Control_c, 11, 11, 102
1, 24596, Pitch_bend_c, 11, 5496
1, 24597, Pitch_bend_c, 11, 5473
1, 24598, Note_on_c, 0, 72, 0
1, 24598, Pitch_bend_c, 11, 5451
1, 24599, Pitch_bend_c, 11, 5428
1, 24600, Note_on_c, 9, 38, 120
1, 24600, Pitch_bend_c, 11, 5405
1, 24600, Note_on_c, 12, 96, 120
1, 24600, Pitch_bend_c, 12, 8125
1, 24601, Control_c, 11, 11, 101
1, 24601, Pitch_bend_c, 11, 5383
1, 24601, Pitch_bend_c, 12, 8102
1, 24602, Pitch_bend_c, 11, 5360
1, 24602, Pitch_bend_c, 12, 8079
1, 24603, Pitch_bend_c, 11, 5337
1, 24603, Pitch_bend_c, 12, 8057
1, 24604, Pitch_bend_c, 11, 5315
1, 24604, Pitch_bend_c, 12, 8034
1, 24605, Control_c, 11, 11, 100
1, 24605, Pitch_bend_c, 11, 5292
1, 24605, Pitch_bend_c, 12, 8011
1, 24606, Pitch_bend_c, 11, 5269
1, 24606, Pitch_bend_c, 12, 7989
1, 24607, Pitch_bend_c, 11, 5247
1, 24607, Pitch_bend_c, 12, 7966
1, 24608, Pitch_bend_c, 11, 5224
1, 24608, Control_c, 12, 11, 126
1, 24608, Pitch_bend_c, 12, 7943
1, 24609, Pitch_bend_c, 11, 5201
1, 24609, Pitch_bend_c, 12, 7921
1, 24610, Control_c, 11, 11, 99
1, 24610, Pitch_bend_c, 11, 5179
1, 24610, Pitch_bend_c, 12, 7898
1, 24611, Pitch_bend_c, 11, 5156
1, 24611, Pitch_bend_c, 12, 7875
1, 24612, Pitch_bend_c, 11, 5133
1, 24612, Pitch_bend_c, 12, 7853
1, 24613, Pitch_bend_c, 11, 5111
1, 24613, Control_c, 12, 11, 125
1, 24613, Pitch_bend_c, 12, 7830
1, 24614, Control_c, 11, 11, 98
1, 24614, Pitch_bend_c, 11, 5088
1, 24614, Pitch_bend_c, 12, 7807
1, 24615, Pitch_bend_c, 11, 5065
1, 24615, Pitch_bend_c, 12, 7785
1, 24616, Pitch_bend_c, 11, 5043
1, 24616, Pitch_bend_c, 12, 7762
1, 24617, Pitch_bend_c, 11, 5020
1, 24617, Control_c, 12, 11, 124
1, 24617, Pitch_bend_c, 12, 7739
1, 24618, Pitch_bend_c, 11, 4997
1, 24618, Pitch_bend_c, 12, 7717
1, 24619, Control_c, 11, 11, 97
1, 24619, Pitch_bend_c, 11, 4975
1, 24619, Pitch_bend_c, 12, 7694
1, 24620, Pitch_bend_c, 11, 4952
1, 24620, Pitch_bend_c, 12, 7671
1, 24621, Pitch_bend_c, 11, 4929
1, 24621, Pitch_bend_c, 12, 7649
1, 24622, Pitch_bend_c, 11, 4907
1, 24622, Control_c, 12, 11, 123
1, 24622, Pitch_bend_c, 12, 7626
1, 24623, Control_c, 11, 11, 96
1, 24623, Pitch_bend_c, 11, 4884
1, 24623, Pitch_bend_c, 12, 7603
1, 24624, Pitch_bend_c, 11, 4861
1, 24624, Pitch_bend_c, 12, 7581
1, 24625, Pitch_bend_c, 11, 4839
1, 24625, Pitch_bend_c, 12, 7558
1, 24626, Pitch_bend_c, 11, 4816
1, 24626, Control_c, 12, 11, 122
1, 24626, Pitch_bend_c, 12, 7535
1, 24627, Pitch_bend_c, 11, 4793
1, 24627, Pitch_bend_c, 12, 7513
1, 24628, Control_c, 11, 11, 95
1, 24628, Pitch_bend_c, 11, 4771
1, 24628, Pitch_bend_c, 12, 7490
1, 24629, Pitch_bend_c, 11, 4748
1, 24629, Pitch_bend_c, 12, 7467
1, 24630, Note_on_c, 0, 63, 73
1, 24630, Note_on_c, 0, 67, 82
1, 24630, Note_on_c, 0, 72, 83
1, 24630, Pitch_bend_c, 11, 4725
1, 24630, Pitch_bend_c, 12, 7445
1, 24631, Note_on_c, 0, 72, 0
1, 24631, Note_on_c, 0, 67, 0
1, 24631, Note_on_c, 0, 63, 0
1, 24631, Pitch_bend_c, 11, 4703
1, 24631, Control_c, 12, 11, 121
1, 24631, Pitch_bend_c, 12, 7422
1, 24632, Control_c, 11, 11, 94
1, 24632, Pitch_bend_c, 11, 4680
1, 24632, Pitch_bend_c, 12, 7399
1, 24633, Note_on_c, 9, 38, 0
1, 24633, Pitch_bend_c, 11, 4657
1, 24633, Pitch_bend_c, 12, 7377
1, 24634, Pitch_bend_c, 11, 4635
1, 24634, Pitch_bend_c, 12, 7354
1, 24635, Pitch_bend_c, 11, 4612
1, 24635, Control_c, 12, 11, 120
1, 24635, Pitch_bend_c, 12, 7331
1, 24636, Pitch_bend_c, 11, 4589
1, 24636, Pitch_bend_c, 12, 7309
1, 24637, Control_c, 11, 11, 93
1, 24637, Pitch_bend_c, 11, 4567
1, 24637, Pitch_bend_c, 12, 7286
1, 24638, Pitch_bend_c, 11, 4544
1, 24638, Pitch_bend_c, 12, 7263
1, 24639, Pitch_bend_c, 11, 4521
1, 24639, Pitch_bend_c, 12, 7241
1, 24640, Pitch_bend_c, 11, 4499
1, 24640, Control_c, 12, 11, 119
1, 24640, Pitch_bend_c, 12, 7218
1, 24641, Control_c, 11, 11, 92
1, 24641, Pitch_bend_c, 11, 4476
1, 24641, Pitch_bend_c, 12, 7195
1, 24642, Pitch_bend_c, 11, 4453
1, 24642, Pitch_bend_c, 12, 7173
1, 24643, Pitch_bend_c, 11, 4431
1, 24643, Pitch_bend_c, 12, 7150
1, 24644, Pitch_bend_c, 11, 4408
1, 24644, Control_c, 12, 11, 118
1, 24644, Pitch_bend_c, 12, 7127
1, 24645, Pitch_bend_c, 11, 4385
1, 24645, Pitch_bend_c, 12, 7105
1, 24646, Control_c, 11, 11, 91
1, 24646, Pitch_bend_c, 11, 4363
1, 24646, Pitch_bend_c, 12, 7082
1, 24647, Note_on_c, 10, 70, 89
1, 24647, Pitch_bend_c, 11, 4340
1, 24647, Pitch_bend_c, 12, 7059
1, 24648, Pitch_bend_c, 11, 4317
1, 24648, Pitch_bend_c, 12, 7037
1, 24649, Pitch_bend_c, 11, 4295
1, 24649, Control_c, 12, 11, 117
1, 24649, Pitch_bend_c, 12, 7014
1, 24650, Control_c, 11, 11, 90
1, 24650, Pitch_bend_c, 11, 4272
1, 24650, Pitch_bend_c, 12, 6991
1, 24651, Pitch_bend_c, 11, 4249
1, 24651, Pitch_bend_c, 12, 6969
1, 24652, Pitch_bend_c, 11, 4227
1, 24652, Pitch_bend_c, 12, 6946
1, 24653, Pitch_bend_c, 11, 4204
1, 24653, Control_c, 12, 11, 116
1, 24653, Pitch_bend_c, 12, 6923
1, 24654, Pitch_bend_c, 11, 4181
1, 24654, Pitch_bend_c, 12, 6901
1, 24655, Control_c, 11, 11, 89
1, 24655, Pitch_bend_c, 11, 4159
1, 24655, Pitch_bend_c, 12, 6878
1, 24656, Pitch_bend_c, 11, 4136
1, 24656, Pitch_bend_c, 12, 6855
1, 24657, Pitch_bend_c, 11, 4113
1, 24657, Pitch_bend_c, 12, 6833
1, 24658, Pitch_bend_c, 11, 4091
1, 24658, Control_c, 12, 11, 115
1, 24658, Pitch_bend_c, 12, 6810
1, 24659, Control_c, 11, 11, 88
1, 24659, Pitch_bend_c, 11, 4068
1, 24659, Pitch_bend_c, 12, 6788
1, 24660, Note_on_c, 0, 63, 80
1, 24660, Note_on_c, 0, 67, 91
1, 24660, Note_on_c, 0, 72, 98
1, 24660, Note_on_c, 9, 42, 120
1, 24660, Note_on_c, 10, 72, 118
1, 24660, Pitch_bend_c, 11, 4046
1, 24660, Pitch_bend_c, 12, 6765
1, 24661, Note_on_c, 0, 72, 0
1, 24661, Note_on_c, 0, 67, 0
1, 24661, Note_on_c, 0, 63, 0
1, 24661, Pitch_bend_c, 11, 4023
1, 24661, Pitch_bend_c, 12, 6742
1, 24662, Pitch_bend_c, 11, 4000
1, 24662, Control_c, 12, 11, 114
1, 24662, Pitch_bend_c, 12, 6720
1, 24663, Pitch_bend_c, 11, 3978
1, 24663, Pitch_bend_c, 12, 6697
1, 24664, Control_c, 11, 11, 87
1, 24664, Pitch_bend_c, 11, 3955
1, 24664, Pitch_bend_c, 12, 6674
1, 24665, Note_on_c, 10, 70, 0
1, 24665, Pitch_bend_c, 11, 3932
1, 24665, Pitch_bend_c, 12, 6652
1, 24666, Pitch_bend_c, 11, 3910
1, 24666, Pitch_bend_c, 12, 6629
1, 24667, Pitch_bend_c, 11, 3887
1, 24667, Control_c, 12, 11, 113
1, 24667, Pitch_bend_c, 12, 6606
1, 24668, Control_c, 11, 11, 86
1, 24668, Pitch_bend_c, 11, 3864
1, 24668, Pitch_bend_c, 12, 6584
1, 24669, Pitch_bend_c, 11, 3842
1, 24669, Pitch_bend_c, 12, 6561
1, 24670, Pitch_bend_c, 11, 3819
1, 24670, Pitch_bend_c, 12, 6538
1, 24671, Pitch_bend_c, 11, 3796
1, 24671, Control_c, 12, 11, 112
1, 24671, Pitch_bend_c, 12, 6516
1, 24672, Pitch_bend_c, 11, 3774
1, 24672, Pitch_bend_c, 12, 6493
1, 24673, Pitch_bend_c, 11, 3751
1, 24673, Pitch_bend_c, 12, 6470
1, 24674, Pitch_bend_c, 11, 3728
1, 24674, Pitch_bend_c, 12, 6448
1, 24675, Pitch_bend_c, 11, 3706
1, 24675, Pitch_bend_c, 12, 6425
1, 24676, Pitch_bend_c, 11, 3683
1, 24676, Control_c, 12, 11, 111
1, 24676, Pitch_bend_c, 12, 6402
1, 24677, Control_c, 11, 11, 85
1, 24677, Pitch_bend_c, 11, 3660
1, 24677, Pitch_bend_c, 12, 6380
1, 24678, Pitch_bend_c, 11, 3638
1, 24678, Pitch_bend_c, 12, 6357
1, 24679, Pitch_bend_c, 11, 3615
1, 24679, Pitch_bend_c, 12, 6334
1, 24680, Pitch_bend_c, 11, 3592
1, 24680, Control_c, 12, 11, 110
1, 24680, Pitch_bend_c, 12, 6312
1, 24681, Pitch_bend_c, 11, 3570
1, 24681, Pitch_bend_c, 12, 6289
1, 24682, Control_c, 11, 11, 84
1, 24682, Pitch_bend_c, 11, 3547
1, 24682, Pitch_bend_c, 12, 6266
1, 24683, Note_on_c, 10, 72, 0
1, 24683, Pitch_bend_c, 11, 3524
1, 24683, Pitch_bend_c, 12, 6244
1, 24684, Pitch_bend_c, 11, 3502
1, 24684, Pitch_bend_c, 12, 6221
1, 24685, Pitch_bend_c, 11, 3479
1, 24685, Control_c, 12, 11, 109
1, 24685, Pitch_bend_c, 12, 6198
1, 24686, Note_on_c, 9, 42, 0
1, 24686, Control_c, 11, 11, 83
1, 24686, Pitch_bend_c, 11, 3456
1, 24686, Pitch_bend_c, 12, 6176
1, 24687, Pitch_bend_c, 11, 3434
1, 24687, Pitch_bend_c, 12, 6153
1, 24688, Pitch_bend_c, 11, 3411
1, 24688, Pitch_bend_c, 12, 6130
1, 24689, Pitch_bend_c, 11, 3388
1, 24689, Control_c, 12, 11, 108
1, 24689, Pitch_bend_c, 12, 6108
1, 24690, Note_on_c, 0, 63, 77
1, 24690, Note_on_c, 0, 67, 90
1, 24690, Note_on_c, 0, 72, 98
1, 24690, Pitch_bend_c, 11, 3366
1, 24690, Pitch_bend_c, 12, 6085
1, 24691, Note_on_c, 0, 72, 0
1, 24691, Note_on_c, 0, 67, 0
1, 24691, Note_on_c, 0, 63, 0
1, 24691, Control_c, 11, 11, 82
1, 24691, Pitch_bend_c, 11, 3343
1, 24691, Pitch_bend_c, 12, 6062
1, 24692, Pitch_bend_c, 11, 3320
1, 24692, Pitch_bend_c, 12, 6040
1, 24693, Pitch_bend_c, 11, 3298
1, 24693, Pitch_bend_c, 12, 6017
1, 24694, Pitch_bend_c, 11, 3275
1, 24694, Control_c, 12, 11, 107
1, 24694, Pitch_bend_c, 12, 5994
1, 24695, Control_c, 11, 11, 81
1, 24695, Pitch_bend_c, 11, 3252
1, 24695, Pitch_bend_c, 12, 5972
1, 24696, Pitch_bend_c, 11, 3230
1, 24696, Pitch_bend_c, 12, 5949
1, 24697, Pitch_bend_c, 11, 3207
1, 24697, Pitch_bend_c, 12, 5926
1, 24698, Pitch_bend_c, 11, 3184
1, 24698, Control_c, 12, 11, 106
1, 24698, Pitch_bend_c, 12, 5904
1, 24699, Pitch_bend_c, 11, 3162
1, 24699, Pitch_bend_c, 12, 5881
1, 24700, Control_c, 11, 11, 80
1, 24700, Pitch_bend_c, 11, 3139
1, 24700, Pitch_bend_c, 12, 5858
1, 24701, Pitch_bend_c, 11, 3116
1, 24701, Pitch_bend_c, 12, 5836
1, 24702, Pitch_bend_c, 11, 3094
1, 24702, Pitch_bend_c, 12, 5813
1, 24703, Pitch_bend_c, 11, 3071
1, 24703, Control_c, 12, 11, 105
1, 24703, Pitch_bend_c, 12, 5790
1, 24704, Control_c, 11, 11, 79
1, 24704, Pitch_bend_c, 11, 3048
1, 24704, Pitch_bend_c, 12, 5768
1, 24705, Pitch_bend_c, 11, 3026
1, 24705, Pitch_bend_c, 12, 5745
1, 24706, Pitch_bend_c, 11, 3003
1, 24706, Pitch_bend_c, 12, 5722
1, 24707, Pitch_bend_c, 11, 2980
1, 24707, Control_c, 12, 11, 104
1, 24707, Pitch_bend_c, 12, 5700
1, 24708, Pitch_bend_c, 11, 2958
1, 24708, Pitch_bend_c, 12, 5677
1, 24709, Control_c, 11, 11, 78
1, 24709, Pitch_bend_c, 11, 2935
1, 24709, Pitch_bend_c, 12, 5654
1, 24710, Pitch_bend_c, 11, 2912
1, 24710, Pitch_bend_c, 12, 5632
1, 24711, Pitch_bend_c, 11, 2890
1, 24711, Pitch_bend_c, 12, 5609
1, 24712, Pitch_bend_c, 11, 2867
1, 24712, Control_c, 12, 11, 103
1, 24712, Pitch_bend_c, 12, 5586
1, 24713, Control_c, 11, 11, 77
1, 24713, Pitch_bend_c, 11, 2844
1, 24713, Pitch_bend_c, 12, 5564
1, 24714, Pitch_bend_c, 11, 2822
1, 24714, Pitch_bend_c, 12, 5541
1, 24715, Pitch_bend_c, 11, 2799
1, 24715, Pitch_bend_c, 12, 5518
1, 24716, Pitch_bend_c, 11, 2776
1, 24716, Control_c, 12, 11, 102
1, 24716, Pitch_bend_c, 12, 5496
1, 24717, Pitch_bend_c, 11, 2754
1, 24717, Pitch_bend_c, 12, 5473
1, 24718, Control_c, 11, 11, 76
1, 24718, Pitch_bend_c, 11, 2731
1, 24718, Pitch_bend_c, 12, 5451
1, 24719, Pitch_bend_c, 11, 2709
1, 24719, Pitch_bend_c, 12, 5428
1, 24720, Note_on_c, 0, 63, 91
1, 24720, Note_on_c, 0, 67, 119
1, 24720, Note_on_c, 0, 72, 96
1, 24720, Note_on_c, 1, 32, 120
1, 24720, Note_on_c, 7, 56, 111
1, 24720, Note_on_c, 7, 60, 119
1, 24720, Note_on_c, 7, 67, 116
1, 24720, Note_on_c, 8, 56, 111
1, 24720, Note_on_c, 8, 60, 119
1, 24720, Note_on_c, 8, 67, 116
1, 24720, Note_on_c, 9, 36, 120
1, 24720, Note_on_c, 10, 70, 120
1, 24720, Pitch_bend_c, 11, 2686
1, 24720, Pitch_bend_c, 12, 5405
1, 24721, Pitch_bend_c, 11, 2663
1, 24721, Control_c, 12, 11, 101
1, 24721, Pitch_bend_c, 12, 5383
1, 24722, Control_c, 11, 11, 75
1, 24722, Pitch_bend_c, 11, 2641
1, 24722, Pitch_bend_c, 12, 5360
1, 24723, Pitch_bend_c, 11, 2618
1, 24723, Pitch_bend_c, 12, 5337
1, 24724, Pitch_bend_c, 11, 2595
1, 24724, Pitch_bend_c, 12, 5315
1, 24725, Pitch_bend_c, 11, 2573
1, 24725, Control_c, 12, 11, 100
1, 24725, Pitch_bend_c, 12, 5292
1, 24726, Pitch_bend_c, 11, 2550
1, 24726, Pitch_bend_c, 12, 5269
1, 24727, Control_c, 11, 11, 74
1, 24727, Pitch_bend_c, 11, 2527
1, 24727, Pitch_bend_c, 12, 5247
1, 24728, Pitch_bend_c, 11, 2505
1, 24728, Pitch_bend_c, 12, 5224
1, 24729, Pitch_bend_c, 11, 2482
1, 24729, Pitch_bend_c, 12, 5201
1, 24730, Pitch_bend_c, 11, 2459
1, 24730, Control_c, 12, 11, 99
1, 24730, Pitch_bend_c, 12, 5179
1, 24731, Control_c, 11, 11, 73
1, 24731, Pitch_bend_c, 11, 2437
1, 24731, Pitch_bend_c, 12, 5156
1, 24732, Pitch_bend_c, 11, 2414
1, 24732, Pitch_bend_c, 12, 5133
1, 24733, Pitch_bend_c, 11, 2391
1, 24733, Pitch_bend_c, 12, 5111
1, 24734, Pitch_bend_c, 11, 2369
1, 24734, Control_c, 12, 11, 98
1, 24734, Pitch_bend_c, 12, 5088
1, 24735, Pitch_bend_c, 11, 2346
1, 24735, Pitch_bend_c, 12, 5065
1, 24736, Control_c, 11, 11, 72
1, 24736, Pitch_bend_c, 11, 2323
1, 24736, Pitch_bend_c, 12, 5043
1, 24737, Pitch_bend_c, 11, 2301
1, 24737, Pitch_bend_c, 12, 5020
1, 24738, Pitch_bend_c, 11, 2278
1, 24738, Pitch_bend_c, 12, 4997
1, 24739, Pitch_bend_c, 11, 2255
1, 24739, Control_c, 12, 11, 97
1, 24739, Pitch_bend_c, 12, 4975
1, 24740, Control_c, 11, 11, 71
1, 24740, Pitch_bend_c, 11, 2233
1, 24740, Pitch_bend_c, 12, 4952
1, 24741, Pitch_bend_c, 11, 2210
1, 24741, Pitch_bend_c, 12, 4929
1, 24742, Pitch_bend_c, 11, 2187
1, 24742, Pitch_bend_c, 12, 4907
1, 24743, Pitch_bend_c, 11, 2165
1, 24743, Control_c, 12, 11, 96
1, 24743, Pitch_bend_c, 12, 4884
1, 24744, Pitch_bend_c, 11, 2142
1, 24744, Pitch_bend_c, 12, 4861
1, 24745, Control_c, 11, 11, 70
1, 24745, Pitch_bend_c, 11, 2119
1, 24745, Pitch_bend_c, 12, 4839
1, 24746, Pitch_bend_c, 11, 2097
1, 24746, Pitch_bend_c, 12, 4816
1, 24747, Pitch_bend_c, 11, 2074
1, 24747, Pitch_bend_c, 12, 4793
1, 24748, Pitch_bend_c, 11, 2051
1, 24748, Control_c, 12, 11, 95
1, 24748, Pitch_bend_c, 12, 4771
1, 24749, Note_on_c, 0, 72, 0
1, 24749, Control_c, 11, 11, 69
1, 24749, Pitch_bend_c, 11, 2029
1, 24749, Pitch_bend_c, 12, 4748
1, 24750, Pitch_bend_c, 11, 2006
1, 24750, Pitch_bend_c, 12, 4725
1, 24751, Note_on_c, 1, 32, 0
1, 24751, Note_on_c, 0, 67, 0
1, 24751, Pitch_bend_c, 11, 1983
1, 24751, Pitch_bend_c, 12, 4703
1, 24752, Note_on_c, 9, 36, 0
1, 24752, Pitch_bend_c, 11, 1961
1, 24752, Control_c, 12, 11, 94
1, 24752, Pitch_bend_c, 12, 4680
1, 24753, Note_on_c, 7, 67, 0
1, 24753, Note_on_c, 7, 60, 0
1, 24753, Note_on_c, 8, 67, 0
1, 24753, Note_on_c, 8, 60, 0
1, 24753, Pitch_bend_c, 11, 1938
1, 24753, Pitch_bend_c, 12, 4657
1, 24754, Note_on_c, 0, 63, 0
1, 24754, Control_c, 11, 11, 68
1, 24754, Pitch_bend_c, 11, 1915
1, 24754, Pitch_bend_c, 12, 4635
1, 24755, Pitch_bend_c, 11, 1893
1, 24755, Pitch_bend_c, 12, 4612
1, 24756, Pitch_bend_c, 11, 1870
1, 24756, Pitch_bend_c, 12, 4589
1, 24757, Pitch_bend_c, 11, 1847
1, 24757, Control_c, 12, 11, 93
1, 24757, Pitch_bend_c, 12, 4567
1, 24758, Control_c, 11, 11, 67
1, 24758, Pitch_bend_c, 11, 1825
1, 24758, Pitch_bend_c, 12, 4544
1, 24759, Pitch_bend_c, 11, 1802
1, 24759, Pitch_bend_c, 12, 4521
1, 24760, Note_on_c, 8, 56, 0
1, 24760, Note_on_c, 7, 56, 0
1, 24760, Pitch_bend_c, 11, 1779
1, 24760, Pitch_bend_c, 12, 4499
1, 24761, Pitch_bend_c, 11, 1757
1, 24761, Control_c, 12, 11, 92
1, 24761, Pitch_bend_c, 12, 4476
1, 24762, Pitch_bend_c, 11, 1734
1, 24762, Pitch_bend_c, 12, 4453
1, 24763, Control_c, 11, 11, 66
1, 24763, Pitch_bend_c, 11, 1711
1, 24763, Pitch_bend_c, 12, 4431
1, 24764, Pitch_bend_c, 11, 1689
1, 24764, Pitch_bend_c, 12, 4408
1, 24765, Pitch_bend_c, 11, 1666
1, 24765, Pitch_bend_c, 12, 4385
1, 24766, Pitch_bend_c, 11, 1643
1, 24766, Control_c, 12, 11, 91
1, 24766, Pitch_bend_c, 12, 4363
1, 24767, Control_c, 11, 11, 65
1, 24767, Pitch_bend_c, 11, 1621
1, 24767, Pitch_bend_c, 12, 4340
1, 24768, Pitch_bend_c, 11, 1598
1, 24768, Pitch_bend_c, 12, 4317
1, 24769, Pitch_bend_c, 11, 1575
1, 24769, Pitch_bend_c, 12, 4295
1, 24770, Pitch_bend_c, 11, 1553
1, 24770, Control_c, 12, 11, 90
1, 24770, Pitch_bend_c, 12, 4272
1, 24771, Pitch_bend_c, 11, 1530
1, 24771, Pitch_bend_c, 12, 4249
1, 24772, Control_c, 11, 11, 64
1, 24772, Pitch_bend_c, 11, 1507
1, 24772, Pitch_bend_c, 12, 4227
1, 24773, Pitch_bend_c, 11, 1485
1, 24773, Pitch_bend_c, 12, 4204
1, 24774, Pitch_bend_c, 11, 1462
1, 24774, Pitch_bend_c, 12, 4181
1, 24775, Pitch_bend_c, 11, 1439
1, 24775, Control_c, 12, 11, 89
1, 24775, Pitch_bend_c, 12, 4159
1, 24776, Control_c, 11, 11, 63
1, 24776, Pitch_bend_c, 11, 1417
1, 24776, Pitch_bend_c, 12, 4136
1, 24777, Pitch_bend_c, 11, 1394
1, 24777, Pitch_bend_c, 12, 4113
1, 24778, Pitch_bend_c, 11, 1371
1, 24778, Pitch_bend_c, 12, 4091
1, 24779, Pitch_bend_c, 11, 1349
1, 24779, Control_c, 12, 11, 88
1, 24779, Pitch_bend_c, 12, 4068
1, 24780, Note_on_c, 0, 63, 80
1, 24780, Note_on_c, 0, 67, 111
1, 24780, Note_on_c, 0, 72, 82
1, 24780, Note_on_c, 9, 42, 120
1, 24780, Pitch_bend_c, 11, 1326
1, 24780, Pitch_bend_c, 12, 4046
1, 24781, Note_on_c, 0, 72, 0
1, 24781, Note_on_c, 0, 67, 0
1, 24781, Note_on_c, 0, 63, 0
1, 24781, Control_c, 11, 11, 62
1, 24781, Pitch_bend_c, 11, 1304
1, 24781, Pitch_bend_c, 12, 4023
1, 24782, Pitch_bend_c, 11, 1281
1, 24782, Pitch_bend_c, 12, 4000
1, 24783, Pitch_bend_c, 11, 1258
1, 24783, Pitch_bend_c, 12, 3978
1, 24784, Pitch_bend_c, 11, 1236
1, 24784, Control_c, 12, 11, 87
1, 24784, Pitch_bend_c, 12, 3955
1, 24785, Control_c, 11, 11, 61
1, 24785, Pitch_bend_c, 11, 1213
1, 24785, Pitch_bend_c, 12, 3932
1, 24786, Pitch_bend_c, 11, 1190
1, 24786, Pitch_bend_c, 12, 3910
1, 24787, Pitch_bend_c, 11, 1168
1, 24787, Pitch_bend_c, 12, 3887
1, 24788, Pitch_bend_c, 11, 1145
1, 24788, Control_c, 12, 11, 86
1, 24788, Pitch_bend_c, 12, 3864
1, 24789, Pitch_bend_c, 11, 1122
1, 24789, Pitch_bend_c, 12, 3842
1, 24790, Control_c, 11, 11, 60
1, 24790, Pitch_bend_c, 11, 1100
1, 24790, Pitch_bend_c, 12, 3819
1, 24791, Pitch_bend_c, 11, 1077
1, 24791, Pitch_bend_c, 12, 3796
1, 24792, Pitch_bend_c, 11, 1054
1, 24792, Pitch_bend_c, 12, 3774
1, 24793, Pitch_bend_c, 11, 1032
1, 24793, Pitch_bend_c, 12, 3751
1, 24794, Control_c, 11, 11, 59
1, 24794, Pitch_bend_c, 11, 1009
1, 24794, Pitch_bend_c, 12, 3728
1, 24795, Pitch_bend_c, 11, 986
1, 24795, Pitch_bend_c, 12, 3706
1, 24796, Pitch_bend_c, 11, 964
1, 24796, Pitch_bend_c, 12, 3683
1, 24797, Pitch_bend_c, 11, 941
1, 24797, Control_c, 12, 11, 85
1, 24797, Pitch_bend_c, 12, 3660
1, 24798, Pitch_bend_c, 11, 918
1, 24798, Pitch_bend_c, 12, 3638
1, 24799, Control_c, 11, 11, 58
1, 24799, Pitch_bend_c, 11, 896
1, 24799, Pitch_bend_c, 12, 3615
1, 24800, Pitch_bend_c, 11, 873
1, 24800, Pitch_bend_c, 12, 3592
1, 24801, Pitch_bend_c, 11, 850
1, 24801, Pitch_bend_c, 12, 3570
1, 24802, Pitch_bend_c, 11, 828
1, 24802, Control_c, 12, 11, 84
1, 24802, Pitch_bend_c, 12, 3547
1, 24803, Control_c, 11, 11, 57
1, 24803, Pitch_bend_c, 11, 805
1, 24803, Pitch_bend_c, 12, 3524
1, 24804, Pitch_bend_c, 11, 782
1, 24804, Pitch_bend_c, 12, 3502
1, 24805, Note_on_c, 9, 42, 0
1, 24805, Pitch_bend_c, 11, 760
1, 24805, Pitch_bend_c, 12, 3479
1, 24806, Pitch_bend_c, 11, 737
1, 24806, Control_c, 12, 11, 83
1, 24806, Pitch_bend_c, 12, 3456
1, 24807, Pitch_bend_c, 11, 714
1, 24807, Pitch_bend_c, 12, 3434
1, 24808, Control_c, 11, 11, 56
1, 24808, Pitch_bend_c, 11, 692
1, 24808, Pitch_bend_c, 12, 3411
1, 24809, Pitch_bend_c, 11, 669
1, 24809, Pitch_bend_c, 12, 3388
1, 24810, Note_on_c, 0, 62, 119
1, 24810, Note_on_c, 0, 65, 89
1, 24810, Note_on_c, 0, 70, 91
1, 24810, Note_on_c, 1, 31, 116
1, 24810, Note_on_c, 3, 60, 119
1, 24810, Note_on_c, 4, 60, 118
1, 24810, Note_on_c, 4, 63, 119
1, 24810, Note_on_c, 4, 70, 120
1, 24810, Note_on_c, 5, 48, 119
1, 24810, Note_on_c, 7, 55, 118
1, 24810, Note_on_c, 7, 58, 120
1, 24810, Note_on_c, 7, 65, 98
1, 24810, Note_on_c, 8, 55, 118
1, 24810, Note_on_c, 8, 58, 120
1, 24810, Note_on_c, 8, 65, 98
1, 24810, Note_on_c, 10, 72, 118
1, 24810, Pitch_bend_c, 11, 646
1, 24810, Pitch_bend_c, 12, 3366
1, 24810, Note_on_c, 15, 60, 1
1, 24810, Note_on_c, 15, 70, 1
1, 24810, Note_on_c, 15, 63, 1
1, 24810, Lyric_t, "You "
1, 24811, Pitch_bend_c, 11, 624
1, 24811, Control_c, 12, 11, 82
1, 24811, Pitch_bend_c, 12, 3343
1, 24812, Control_c, 11, 11, 55
1, 24812, Pitch_bend_c, 11, 601
1, 24812, Pitch_bend_c, 12, 3320
1, 24813, Pitch_bend_c, 11, 578
1, 24813, Pitch_bend_c, 12, 3298
1, 24814, Note_on_c, 10, 70, 0
1, 24814, Pitch_bend_c, 11, 556
1, 24814, Pitch_bend_c, 12, 3275
1, 24815, Pitch_bend_c, 11, 533
1, 24815, Control_c, 12, 11, 81
1, 24815, Pitch_bend_c, 12, 3252
1, 24816, Pitch_bend_c, 11, 510
1, 24816, Pitch_bend_c, 12, 3230
1, 24817, Control_c, 11, 11, 54
1, 24817, Pitch_bend_c, 11, 488
1, 24817, Pitch_bend_c, 12, 3207
1, 24818, Pitch_bend_c, 11, 465
1, 24818, Pitch_bend_c, 12, 3184
1, 24819, Note_on_c, 3, 60, 0
1, 24819, Note_on_c, 5, 48, 0
1, 24819, Pitch_bend_c, 11, 442
1, 24819, Pitch_bend_c, 12, 3162
1, 24820, Pitch_bend_c, 11, 420
1, 24820, Control_c, 12, 11, 80
1, 24820, Pitch_bend_c, 12, 3139
1, 24821, Control_c, 11, 11, 53
1, 24821, Pitch_bend_c, 11, 397
1, 24821, Pitch_bend_c, 12, 3116
1, 24822, Note_on_c, 15, 70, 0
1, 24822, Note_on_c, 4, 70, 0
1, 24822, Pitch_bend_c, 11, 374
1, 24822, Pitch_bend_c, 12, 3094
1, 24823, Pitch_bend_c, 11, 352
1, 24823, Pitch_bend_c, 12, 3071
1, 24824, Pitch_bend_c, 11, 329
1, 24824, Control_c, 12, 11, 79
1, 24824, Pitch_bend_c, 12, 3048
1, 24825, Pitch_bend_c, 11, 306
1, 24825, Pitch_bend_c, 12, 3026
1, 24826, Control_c, 11, 11, 52
1, 24826, Pitch_bend_c, 11, 284
1, 24826, Pitch_bend_c, 12, 3003
1, 24827, Note_on_c, 15, 63, 0
1, 24827, Note_on_c, 4, 63, 0
1, 24827, Pitch_bend_c, 11, 261
1, 24827, Pitch_bend_c, 12, 2980
1, 24828, Pitch_bend_c, 11, 238
1, 24828, Pitch_bend_c, 12, 2958
1, 24829, Pitch_bend_c, 11, 216
1, 24829, Control_c, 12, 11, 78
1, 24829, Pitch_bend_c, 12, 2935
1, 24830, Note_on_c, 4, 60, 0
1, 24830, Note_on_c, 15, 60, 0
1, 24830, Note_on_c, 2, 72, 0
1, 24830, Control_c, 11, 11, 51
1, 24830, Pitch_bend_c, 11, 193
1, 24830, Pitch_bend_c, 12, 2912
1, 24831, Pitch_bend_c, 11, 170
1, 24831, Pitch_bend_c, 12, 2890
1, 24832, Note_on_c, 1, 31, 0
1, 24832, Pitch_bend_c, 11, 148
1, 24832, Pitch_bend_c, 12, 2867
1, 24833, Note_on_c, 10, 72, 0
1, 24833, Pitch_bend_c, 11, 125
1, 24833, Control_c, 12, 11, 77
1, 24833, Pitch_bend_c, 12, 2844
1, 24834, Note_on_c, 2, 67, 0
1, 24834, Pitch_bend_c, 11, 102
1, 24834, Pitch_bend_c, 12, 2822
1, 24835, Control_c, 11, 11, 50
1, 24835, Pitch_bend_c, 11, 80
1, 24835, Pitch_bend_c, 12, 2799
1, 24836, Note_on_c, 8, 55, 0
1, 24836, Note_on_c, 0, 70, 0
1, 24836, Note_on_c, 7, 55, 0
1, 24836, Pitch_bend_c, 11, 57
1, 24836, Pitch_bend_c, 12, 2776
1, 24837, Pitch_bend_c, 11, 34
1, 24837, Pitch_bend_c, 12, 2754
1, 24838, Note_on_c, 0, 65, 0
1, 24838, Pitch_bend_c, 11, 12
1, 24838, Control_c, 12, 11, 76
1, 24838, Pitch_bend_c, 12, 2731
1, 24839, Note_on_c, 2, 63, 0
1, 24839, Note_on_c, 11, 96, 0
1, 24839, Note_on_c, 0, 62, 0
1, 24839, Pitch_bend_c, 12, 2709
1, 24840, Note_on_c, 3, 60, 116
1, 24840, Note_on_c, 4, 60, 113
1, 24840, Note_on_c, 4, 63, 115
1, 24840, Note_on_c, 4, 70, 109
1, 24840, Note_on_c, 5, 48, 116
1, 24840, Note_on_c, 9, 38, 120
1, 24840, Pitch_bend_c, 12, 2686
1, 24840, Note_on_c, 15, 63, 1
1, 24840, Note_on_c, 15, 60, 1
1, 24840, Note_on_c, 15, 70, 1
1, 24840, Lyric_t, "know "
1, 24841, Pitch_bend_c, 12, 2663
1, 24842, Note_on_c, 7, 65, 0
1, 24842, Note_on_c, 8, 65, 0
1, 24842, Control_c, 12, 11, 75
1, 24842, Pitch_bend_c, 12, 2641
1, 24843, Note_on_c, 7, 58, 0
1, 24843, Note_on_c, 8, 58, 0
1, 24843, Pitch_bend_c, 12, 2618
1, 24844, Pitch_bend_c, 12, 2595
1, 24845, Pitch_bend_c, 12, 2573
1, 24846, Pitch_bend_c, 12, 2550
1, 24847, Control_c, 12, 11, 74
1, 24847, Pitch_bend_c, 12, 2527
1, 24848, Pitch_bend_c, 12, 2505
1, 24849, Pitch_bend_c, 12, 2482
1, 24850, Pitch_bend_c, 12, 2459
1, 24851, Control_c, 12, 11, 73
1, 24851, Pitch_bend_c, 12, 2437
1, 24852, Pitch_bend_c, 12, 2414
1, 24853, Pitch_bend_c, 12, 2391
1, 24854, Pitch_bend_c, 12, 2369
1, 24855, Pitch_bend_c, 12, 2346
1, 24856, Control_c, 12, 11, 72
1, 24856, Pitch_bend_c, 12, 2323
1, 24857, Note_on_c, 5, 48, 0
1, 24857, Note_on_c, 3, 60, 0
1, 24857, Pitch_bend_c, 12, 2301
1, 24858, Pitch_bend_c, 12, 2278
1, 24859, Note_on_c, 15, 60, 0
1, 24859, Note_on_c, 4, 60, 0
1, 24859, Pitch_bend_c, 12, 2255
1, 24860, Control_c, 12, 11, 71
1, 24860, Pitch_bend_c, 12, 2233
1, 24861, Pitch_bend_c, 12, 2210
1, 24862, Note_on_c, 4, 70, 0
1, 24862, Note_on_c, 4, 63, 0
1, 24862, Note_on_c, 15, 63, 0
1, 24862, Note_on_c, 15, 70, 0
1, 24862, Pitch_bend_c, 12, 2187
1, 24863, Pitch_bend_c, 12, 2165
1, 24864, Pitch_bend_c, 12, 2142
1, 24865, Control_c, 12, 11, 70
1, 24865, Pitch_bend_c, 12, 2119
1, 24866, Note_on_c, 9, 38, 0
1, 24866, Pitch_bend_c, 12, 2097
1, 24867, Pitch_bend_c, 12, 2074
1, 24868, Pitch_bend_c, 12, 2051
1, 24869, Control_c, 12, 11, 69
1, 24869, Pitch_bend_c, 12, 2029
1, 24870, Note_on_c, 0, 62, 109
1, 24870, Note_on_c, 0, 65, 77
1, 24870, Note_on_c, 0, 70, 60
1, 24870, Note_on_c, 3, 63, 120
1, 24870, Note_on_c, 4, 60, 118
1, 24870, Note_on_c, 4, 63, 109
1, 24870, Note_on_c, 4, 70, 120
1, 24870, Note_on_c, 5, 51, 120
1, 24870, Pitch_bend_c, 12, 2006
1, 24870, Note_on_c, 15, 70, 1
1, 24870, Note_on_c, 15, 60, 1
1, 24870, Note_on_c, 15, 63, 1
1, 24870, Lyric_t, "you "
1, 24871, Note_on_c, 0, 70, 0
1, 24871, Note_on_c, 0, 65, 0
1, 24871, Note_on_c, 0, 62, 0
1, 24871, Pitch_bend_c, 12, 1983
1, 24872, Pitch_bend_c, 12, 1961
1, 24873, Pitch_bend_c, 12, 1938
1, 24874, Control_c, 12, 11, 68
1, 24874, Pitch_bend_c, 12, 1915
1, 24875, Pitch_bend_c, 12, 1893
1, 24876, Pitch_bend_c, 12, 1870
1, 24877, Pitch_bend_c, 12, 1847
1, 24878, Control_c, 12, 11, 67
1, 24878, Pitch_bend_c, 12, 1825
1, 24879, Pitch_bend_c, 12, 1802
1, 24880, Pitch_bend_c, 12, 1779
1, 24881, Pitch_bend_c, 12, 1757
1, 24882, Pitch_bend_c, 12, 1734
1, 24883, Control_c, 12, 11, 66
1, 24883, Pitch_bend_c, 12, 1711
1, 24884, Note_on_c, 5, 51, 0
1, 24884, Note_on_c, 3, 63, 0
1, 24884, Pitch_bend_c, 12, 1689
1, 24885, Note_on_c, 4, 70, 0
1, 24885, Note_on_c, 15, 70, 0
1, 24885, Pitch_bend_c, 12, 1666
1, 24886, Pitch_bend_c, 12, 1643
1, 24887, Note_on_c, 4, 60, 0
1, 24887, Note_on_c, 15, 60, 0
1, 24887, Control_c, 12, 11, 65
1, 24887, Pitch_bend_c, 12, 1621
1, 24888, Note_on_c, 15, 63, 0
1, 24888, Note_on_c, 4, 63, 0
1, 24888, Pitch_bend_c, 12, 1598
1, 24889, Pitch_bend_c, 12, 1575
1, 24890, Pitch_bend_c, 12, 1553
1, 24891, Pitch_bend_c, 12, 1530
1, 24892, Control_c, 12, 11, 64
1, 24892, Pitch_bend_c, 12, 1507
1, 24893, Pitch_bend_c, 12, 1485
1, 24894, Pitch_bend_c, 12, 1462
1, 24895, Pitch_bend_c, 12, 1439
1, 24896, Control_c, 12, 11, 63
1, 24896, Pitch_bend_c, 12, 1417
1, 24897, Pitch_bend_c, 12, 1394
1, 24898, Pitch_bend_c, 12, 1371
1, 24899, Pitch_bend_c, 12, 1349
1, 24900, Note_on_c, 0, 60, 119
1, 24900, Note_on_c, 0, 63, 91
1, 24900, Note_on_c, 0, 68, 91
1, 24900, Note_on_c, 1, 29, 120
1, 24900, Note_on_c, 2, 60, 105
1, 24900, Note_on_c, 2, 63, 98
1, 24900, Note_on_c, 2, 68, 92
1, 24900, Note_on_c, 3, 67, 109
1, 24900, Note_on_c, 4, 60, 118
1, 24900, Note_on_c, 4, 63, 120
1, 24900, Note_on_c, 4, 70, 98
1, 24900, Note_on_c, 5, 55, 109
1, 24900, Note_on_c, 7, 53, 95
1, 24900, Note_on_c, 7, 56, 119
1, 24900, Note_on_c, 7, 63, 109
1, 24900, Note_on_c, 8, 53, 95
1, 24900, Note_on_c, 8, 56, 119
1, 24900, Note_on_c, 8, 63, 109
1, 24900, Note_on_c, 9, 42, 120
1, 24900, Pitch_bend_c, 12, 1326
1, 24900, Note_on_c, 15, 63, 1
1, 24900, Note_on_c, 15, 70, 1
1, 24900, Note_on_c, 15, 60, 1
1, 24900, Lyric_t, "can "
1, 24901, Control_c, 12, 11, 62
1, 24901, Pitch_bend_c, 12, 1304
1, 24902, Pitch_bend_c, 12, 1281
1, 24903, Pitch_bend_c, 12, 1258
1, 24904, Pitch_bend_c, 12, 1236
1, 24905, Control_c, 12, 11, 61
1, 24905, Pitch_bend_c, 12, 1213
1, 24906, Pitch_bend_c, 12, 1190
1, 24907, Pitch_bend_c, 12, 1168
1, 24908, Pitch_bend_c, 12, 1145
1, 24909, Pitch_bend_c, 12, 1122
1, 24910, Control_c, 12, 11, 60
1, 24910, Pitch_bend_c, 12, 1100
1, 24911, Pitch_bend_c, 12, 1077
1, 24912, Pitch_bend_c, 12, 1054
1, 24913, Pitch_bend_c, 12, 1032
1, 24914, Note_on_c, 15, 70, 0
1, 24914, Note_on_c, 15, 63, 0
1, 24914, Note_on_c, 4, 70, 0
1, 24914, Note_on_c, 4, 63, 0
1, 24914, Control_c, 12, 11, 59
1, 24914, Pitch_bend_c, 12, 1009
1, 24915, Pitch_bend_c, 12, 986
1, 24916, Note_on_c, 4, 60, 0
1, 24916, Note_on_c, 15, 60, 0
1, 24916, Pitch_bend_c, 12, 964
1, 24917, Pitch_bend_c, 12, 941
1, 24918, Pitch_bend_c, 12, 918
1, 24919, Control_c, 12, 11, 58
1, 24919, Pitch_bend_c, 12, 896
1, 24920, Pitch_bend_c, 12, 873
1, 24921, Pitch_bend_c, 12, 850
1, 24922, Pitch_bend_c, 12, 828
1, 24923, Control_c, 12, 11, 57
1, 24923, Pitch_bend_c, 12, 805
1, 24924, Note_on_c, 3, 67, 0
1, 24924, Note_on_c, 5, 55, 0
1, 24924, Pitch_bend_c, 12, 782
1, 24925, Note_on_c, 9, 42, 0
1, 24925, Pitch_bend_c, 12, 760
1, 24926, Pitch_bend_c, 12, 737
1, 24927, Pitch_bend_c, 12, 714
1, 24928, Control_c, 12, 11, 56
1, 24928, Pitch_bend_c, 12, 692
1, 24929, Pitch_bend_c, 12, 669
1, 24930, Note_on_c, 3, 68, 120
1, 24930, Note_on_c, 4, 60, 119
1, 24930, Note_on_c, 4, 63, 120
1, 24930, Note_on_c, 4, 72, 100
1, 24930, Note_on_c, 5, 56, 120
1, 24930, Pitch_bend_c, 12, 646
1, 24930, Note_on_c, 15, 60, 1
1, 24930, Note_on_c, 15, 72, 1
1, 24930, Note_on_c, 15, 63, 1
1, 24930, Lyric_t, "make "
1, 24930, Lyric_t, "\015"
1, 24931, Pitch_bend_c, 12, 624
1, 24932, Control_c, 12, 11, 55
1, 24932, Pitch_bend_c, 12, 601
1, 24933, Pitch_bend_c, 12, 578
1, 24934, Pitch_bend_c, 12, 556
1, 24935, Pitch_bend_c, 12, 533
1, 24936, Pitch_bend_c, 12, 510
1, 24937, Control_c, 12, 11, 54
1, 24937, Pitch_bend_c, 12, 488
1, 24938, Pitch_bend_c, 12, 465
1, 24939, Pitch_bend_c, 12, 442
1, 24940, Pitch_bend_c, 12, 420
1, 24941, Control_c, 12, 11, 53
1, 24941, Pitch_bend_c, 12, 397
1, 24942, Pitch_bend_c, 12, 374
1, 24943, Pitch_bend_c, 12, 352
1, 24944, Pitch_bend_c, 12, 329
1, 24945, Pitch_bend_c, 12, 306
1, 24946, Control_c, 12, 11, 52
1, 24946, Pitch_bend_c, 12, 284
1, 24947, Pitch_bend_c, 12, 261
1, 24948, Pitch_bend_c, 12, 238
1, 24949, Pitch_bend_c, 12, 216
1, 24950, Control_c, 12, 11, 51
1, 24950, Pitch_bend_c, 12, 193
1, 24951, Pitch_bend_c, 12, 170
1, 24952, Pitch_bend_c, 12, 148
1, 24953, Pitch_bend_c, 12, 125
1, 24954, Pitch_bend_c, 12, 102
1, 24955, Control_c, 12, 11, 50
1, 24955, Pitch_bend_c, 12, 80
1, 24956, Pitch_bend_c, 12, 57
1, 24957, Pitch_bend_c, 12, 34
1, 24958, Pitch_bend_c, 12, 12
1, 24959, Note_on_c, 12, 96, 0
1, 24960, Note_on_c, 9, 36, 120
1, 24987, Note_on_c, 9, 36, 0
1, 25001, Note_on_c, 1, 29, 0
1, 25020, Note_on_c, 1, 41, 120
1, 25020, Note_on_c, 9, 42, 120
1, 25046, Note_on_c, 9, 42, 0
1, 25048, Note_on_c, 4, 72, 0
1, 25048, Note_on_c, 15, 72, 0
1, 25051, Note_on_c, 5, 56, 0
1, 25051, Note_on_c, 4, 60, 0
1, 25051, Note_on_c, 15, 60, 0
1, 25051, Note_on_c, 3, 68, 0
1, 25052, Note_on_c, 4, 63, 0
1, 25052, Note_on_c, 15, 63, 0
1, 25054, Note_on_c, 1, 41, 0
1, 25074, Note_on_c, 0, 60, 0
1, 25076, Note_on_c, 0, 63, 0
1, 25079, Note_on_c, 7, 63, 0
1, 25079, Note_on_c, 8, 63, 0
1, 25079, Note_on_c, 0, 68, 0
1, 25080, Note_on_c, 8, 53, 0
1, 25080, Note_on_c, 7, 53, 0
1, 25080, Note_on_c, 1, 41, 120
1, 25080, Note_on_c, 3, 67, 120
1, 25080, Note_on_c, 4, 60, 111
1, 25080, Note_on_c, 4, 63, 115
1, 25080, Note_on_c, 4, 72, 54
1, 25080, Note_on_c, 5, 55, 120
1, 25080, Note_on_c, 9, 38, 120
1, 25080, Note_on_c, 15, 63, 1
1, 25080, Note_on_c, 15, 72, 1
1, 25080, Note_on_c, 15, 60, 1
1, 25080, Lyric_t, "my "
1, 25081, Note_on_c, 8, 56, 0
1, 25081, Note_on_c, 7, 56, 0
1, 25111, Note_on_c, 9, 38, 0
1, 25112, Note_on_c, 1, 41, 0
1, 25140, Note_on_c, 0, 60, 98
1, 25140, Note_on_c, 0, 63, 60
1, 25140, Note_on_c, 0, 68, 53
1, 25140, Note_on_c, 9, 42, 120
1, 25141, Note_on_c, 0, 68, 0
1, 25141, Note_on_c, 0, 63, 0
1, 25141, Note_on_c, 0, 60, 0
1, 25170, Note_on_c, 0, 60, 101
1, 25170, Note_on_c, 0, 63, 62
1, 25170, Note_on_c, 0, 68, 70
1, 25171, Note_on_c, 0, 68, 0
1, 25171, Note_on_c, 0, 63, 0
1, 25171, Note_on_c, 0, 60, 0
1, 25173, Note_on_c, 9, 42, 0
1, 25175, Note_on_c, 4, 60, 0
1, 25175, Note_on_c, 4, 72, 0
1, 25175, Note_on_c, 15, 72, 0
1, 25175, Note_on_c, 15, 60, 0
1, 25179, Note_on_c, 4, 63, 0
1, 25179, Note_on_c, 15, 63, 0
1, 25190, Note_on_c, 5, 55, 0
1, 25190, Note_on_c, 3, 67, 0
1, 25199, Control_c, 11, 11, 127
1, 25200, Note_on_c, 0, 60, 118
1, 25200, Note_on_c, 0, 63, 92
1, 25200, Note_on_c, 0, 68, 92
1, 25200, Note_on_c, 1, 29, 120
1, 25200, Note_on_c, 3, 63, 120
1, 25200, Note_on_c, 4, 60, 113
1, 25200, Note_on_c, 4, 63, 115
1, 25200, Note_on_c, 4, 72, 94
1, 25200, Note_on_c, 5, 51, 120
1, 25200, Note_on_c, 7, 53, 101
1, 25200, Note_on_c, 7, 56, 120
1, 25200, Note_on_c, 7, 63, 98
1, 25200, Note_on_c, 8, 53, 101
1, 25200, Note_on_c, 8, 56, 120
1, 25200, Note_on_c, 8, 63, 98
1, 25200, Note_on_c, 9, 36, 120
1, 25200, Note_on_c, 15, 60, 1
1, 25200, Note_on_c, 15, 72, 1
1, 25200, Note_on_c, 15, 63, 1
1, 25200, Lyric_t, "wish "
1, 25227, Note_on_c, 9, 36, 0
1, 25235, Note_on_c, 1, 29, 0
1, 25238, Note_on_c, 0, 60, 0
1, 25241, Note_on_c, 0, 68, 0
1, 25242, Note_on_c, 0, 63, 0
1, 25256, Note_on_c, 8, 63, 0
1, 25256, Note_on_c, 8, 53, 0
1, 25256, Note_on_c, 7, 53, 0
1, 25256, Note_on_c, 7, 63, 0
1, 25257, Note_on_c, 8, 56, 0
1, 25257, Note_on_c, 7, 56, 0
1, 25260, Note_on_c, 0, 60, 97
1, 25260, Note_on_c, 0, 63, 62
1, 25260, Note_on_c, 0, 68, 62
1, 25260, Note_on_c, 9, 42, 120
1, 25261, Note_on_c, 0, 68, 0
1, 25261, Note_on_c, 0, 63, 0
1, 25261, Note_on_c, 0, 60, 0
1, 25289, Note_on_c, 9, 42, 0
1, 25291, Note_on_c, 4, 72, 0
1, 25291, Note_on_c, 15, 72, 0
1, 25293, Note_on_c, 4, 60, 0
1, 25293, Note_on_c, 15, 60, 0
1, 25295, Note_on_c, 4, 63, 0
1, 25295, Note_on_c, 15, 63, 0
1, 25307, Note_on_c, 3, 63, 0
1, 25307, Note_on_c, 5, 51, 0
1, 25319, Control_c, 12, 11, 127
1, 25320, Note_on_c, 0, 60, 116
1, 25320, Note_on_c, 0, 63, 92
1, 25320, Note_on_c, 0, 68, 111
1, 25320, Note_on_c, 1, 29, 116
1, 25320, Note_on_c, 3, 67, 119
1, 25320, Note_on_c, 4, 60, 105
1, 25320, Note_on_c, 4, 63, 115
1, 25320, Note_on_c, 4, 72, 90
1, 25320, Note_on_c, 5, 55, 119
1, 25320, Note_on_c, 7, 53, 113
1, 25320, Note_on_c, 7, 56, 120
1, 25320, Note_on_c, 7, 63, 115
1, 25320, Note_on_c, 8, 53, 113
1, 25320, Note_on_c, 8, 56, 120
1, 25320, Note_on_c, 8, 63, 115
1, 25320, Note_on_c, 9, 38, 120
1, 25320, Note_on_c, 15, 63, 1
1, 25320, Note_on_c, 15, 60, 1
1, 25320, Note_on_c, 15, 72, 1
1, 25320, Lyric_t, "come "
1, 25323, Note_on_c, 2, 60, 0
1, 25327, Note_on_c, 2, 63, 0
1, 25329, Note_on_c, 2, 68, 0
1, 25348, Note_on_c, 9, 38, 0
1, 25350, Note_on_c, 1, 29, 0
1, 25359, Note_on_c, 0, 60, 0
1, 25362, Note_on_c, 0, 63, 0
1, 25362, Note_on_c, 0, 68, 0
1, 25371, Note_on_c, 8, 53, 0
1, 25371, Note_on_c, 7, 53, 0
1, 25372, Note_on_c, 8, 56, 0
1, 25372, Note_on_c, 7, 56, 0
1, 25375, Note_on_c, 7, 63, 0
1, 25375, Note_on_c, 8, 63, 0
1, 25380, Note_on_c, 9, 42, 120
1, 25389, Note_on_c, 15, 60, 0
1, 25389, Note_on_c, 4, 60, 0
1, 25395, Note_on_c, 15, 72, 0
1, 25395, Note_on_c, 15, 63, 0
1, 25395, Note_on_c, 4, 63, 0
1, 25395, Note_on_c, 4, 72, 0
1, 25407, Note_on_c, 9, 42, 0
1, 25423, Note_on_c, 3, 67, 0
1, 25423, Note_on_c, 5, 55, 0
1, 25440, Note_on_c, 0, 62, 116
1, 25440, Note_on_c, 0, 65, 94
1, 25440, Note_on_c, 0, 70, 92
1, 25440, Note_on_c, 1, 31, 120
1, 25440, Note_on_c, 2, 62, 101
1, 25440, Note_on_c, 2, 65, 109
1, 25440, Note_on_c, 2, 70, 89
1, 25440, Note_on_c, 3, 65, 119
1, 25440, Note_on_c, 4, 62, 107
1, 25440, Note_on_c, 4, 65, 101
1, 25440, Note_on_c, 4, 70, 109
1, 25440, Note_on_c, 5, 53, 119
1, 25440, Note_on_c, 7, 55, 120
1, 25440, Note_on_c, 7, 58, 120
1, 25440, Note_on_c, 7, 65, 90
1, 25440, Note_on_c, 8, 55, 120
1, 25440, Note_on_c, 8, 58, 120
1, 25440, Note_on_c, 8, 65, 90
1, 25440, Note_on_c, 9, 36, 120
1, 25440, Note_on_c, 15, 70, 1
1, 25440, Note_on_c, 15, 62, 1
1, 25440, Note_on_c, 15, 65, 1
1, 25440, Lyric_t, "true "
1, 25440, Lyric_t, "\015"
1, 25468, Note_on_c, 9, 36, 0
1, 25486, Note_on_c, 1, 31, 0
1, 25500, Note_on_c, 1, 43, 119
1, 25500, Note_on_c, 9, 42, 120
1, 25527, Note_on_c, 9, 42, 0
1, 25538, Note_on_c, 3, 65, 0
1, 25538, Note_on_c, 5, 53, 0
1, 25542, Note_on_c, 0, 65, 0
1, 25551, Note_on_c, 0, 62, 0
1, 25551, Note_on_c, 1, 43, 0
1, 25552, Note_on_c, 15, 70, 0
1, 25552, Note_on_c, 4, 70, 0
1, 25555, Note_on_c, 4, 65, 0
1, 25555, Note_on_c, 15, 65, 0
1, 25555, Note_on_c, 0, 70, 0
1, 25557, Note_on_c, 15, 62, 0
1, 25557, Note_on_c, 4, 62, 0
1, 25560, Note_on_c, 8, 55, 0
1, 25560, Note_on_c, 7, 55, 0
1, 25560, Note_on_c, 9, 38, 120
1, 25562, Note_on_c, 8, 58, 0
1, 25562, Note_on_c, 7, 58, 0
1, 25565, Note_on_c, 8, 65, 0
1, 25565, Note_on_c, 7, 65, 0
1, 25587, Note_on_c, 9, 38, 0
1, 25607, Note_on_c, 10, 70, 89
1, 25620, Note_on_c, 0, 62, 100
1, 25620, Note_on_c, 0, 65, 71
1, 25620, Note_on_c, 0, 70, 48
1, 25620, Note_on_c, 9, 42, 120
1, 25620, Note_on_c, 10, 72, 118
1, 25621, Note_on_c, 0, 70, 0
1, 25621, Note_on_c, 0, 65, 0
1, 25621, Note_on_c, 0, 62, 0
1, 25625, Note_on_c, 10, 70, 0
1, 25643, Note_on_c, 10, 72, 0
1, 25650, Note_on_c, 0, 62, 98
1, 25650, Note_on_c, 0, 65, 78
1, 25650, Note_on_c, 0, 70, 71
1, 25651, Note_on_c, 0, 70, 0
1, 25651, Note_on_c, 0, 62, 0
1, 25651, Note_on_c, 0, 65, 0
1, 25652, Note_on_c, 9, 42, 0
1, 25680, Note_on_c, 0, 62, 113
1, 25680, Note_on_c, 0, 65, 83
1, 25680, Note_on_c, 0, 70, 92
1, 25680, Note_on_c, 1, 31, 119
1, 25680, Note_on_c, 7, 55, 116
1, 25680, Note_on_c, 7, 58, 120
1, 25680, Note_on_c, 7, 65, 101
1, 25680, Note_on_c, 8, 55, 116
1, 25680, Note_on_c, 8, 58, 120
1, 25680, Note_on_c, 8, 65, 101
1, 25680, Note_on_c, 9, 36, 120
1, 25680, Note_on_c, 10, 70, 120
1, 25707, Note_on_c, 9, 36, 0
1, 25709, Note_on_c, 1, 31, 0
1, 25712, Note_on_c, 8, 55, 0
1, 25712, Note_on_c, 7, 55, 0
1, 25712, Note_on_c, 7, 58, 0
1, 25712, Note_on_c, 8, 58, 0
1, 25713, Note_on_c, 7, 65, 0
1, 25713, Note_on_c, 8, 65, 0
1, 25722, Note_on_c, 0, 62, 0
1, 25724, Note_on_c, 0, 70, 0
1, 25731, Note_on_c, 0, 65, 0
1, 25740, Note_on_c, 0, 62, 94
1, 25740, Note_on_c, 0, 65, 59
1, 25740, Note_on_c, 0, 70, 57
1, 25740, Note_on_c, 9, 42, 120
1, 25741, Note_on_c, 0, 70, 0
1, 25741, Note_on_c, 0, 65, 0
1, 25741, Note_on_c, 0, 62, 0
1, 25766, Note_on_c, 9, 42, 0
1, 25770, Note_on_c, 2, 65, 0
1, 25770, Note_on_c, 0, 62, 111
1, 25770, Note_on_c, 0, 65, 87
1, 25770, Note_on_c, 0, 70, 92
1, 25770, Note_on_c, 1, 34, 120
1, 25770, Note_on_c, 7, 55, 120
1, 25770, Note_on_c, 7, 58, 120
1, 25770, Note_on_c, 7, 65, 105
1, 25770, Note_on_c, 8, 55, 120
1, 25770, Note_on_c, 8, 58, 120
1, 25770, Note_on_c, 8, 65, 105
1, 25770, Note_on_c, 10, 72, 118
1, 25772, Note_on_c, 2, 62, 0
1, 25774, Note_on_c, 10, 70, 0
1, 25779, Note_on_c, 2, 70, 0
1, 25793, Note_on_c, 7, 55, 0
1, 25793, Note_on_c, 8, 55, 0
1, 25793, Note_on_c, 10, 72, 0
1, 25794, Note_on_c, 7, 58, 0
1, 25794, Note_on_c, 8, 58, 0
1, 25800, Note_on_c, 8, 65, 0
1, 25800, Note_on_c, 7, 65, 0
1, 25800, Note_on_c, 3, 63, 120
1, 25800, Note_on_c, 4, 67, 113
1, 25800, Note_on_c, 5, 51, 120
1, 25800, Note_on_c, 9, 38, 120
1, 25800, Note_on_c, 15, 67, 1
1, 25800, Lyric_t, "If "
1, 25801, Note_on_c, 1, 34, 0
1, 25806, Note_on_c, 0, 62, 0
1, 25808, Note_on_c, 0, 70, 0
1, 25811, Note_on_c, 0, 65, 0
1, 25825, Note_on_c, 9, 38, 0
1, 25828, Note_on_c, 4, 67, 0
1, 25828, Note_on_c, 15, 67, 0
1, 25830, Note_on_c, 0, 62, 78
1, 25830, Note_on_c, 0, 65, 72
1, 25830, Note_on_c, 0, 70, 70
1, 25831, Note_on_c, 0, 70, 0
1, 25831, Note_on_c, 0, 62, 0
1, 25831, Note_on_c, 0, 65, 0
1, 25843, Note_on_c, 5, 51, 0
1, 25843, Note_on_c, 3, 63, 0
1, 25860, Note_on_c, 0, 63, 87
1, 25860, Note_on_c, 0, 67, 105
1, 25860, Note_on_c, 0, 72, 113
1, 25860, Note_on_c, 1, 36, 120
1, 25860, Note_on_c, 2, 63, 81
1, 25860, Note_on_c, 2, 67, 116
1, 25860, Note_on_c, 2, 72, 105
1, 25860, Note_on_c, 3, 60, 118
1, 25860, Note_on_c, 4, 63, 92
1, 25860, Note_on_c, 5, 48, 118
1, 25860, Note_on_c, 7, 60, 116
1, 25860, Note_on_c, 7, 63, 104
1, 25860, Note_on_c, 7, 67, 116
1, 25860, Note_on_c, 8, 60, 116
1, 25860, Note_on_c, 8, 63, 104
1, 25860, Note_on_c, 8, 67, 116
1, 25860, Note_on_c, 9, 42, 120
1, 25860, Note_on_c, 15, 63, 1
1, 25860, Lyric_t, "you "
1, 25887, Note_on_c, 9, 42, 0
1, 25889, Note_on_c, 15, 63, 0
1, 25889, Note_on_c, 4, 63, 0
1, 25895, Note_on_c, 5, 48, 0
1, 25895, Note_on_c, 3, 60, 0
1, 25920, Note_on_c, 3, 68, 115
1, 25920, Note_on_c, 4, 63, 74
1, 25920, Note_on_c, 4, 67, 111
1, 25920, Note_on_c, 4, 72, 105
1, 25920, Note_on_c, 5, 56, 115
1, 25920, Note_on_c, 9, 36, 120
1, 25920, Note_on_c, 15, 67, 1
1, 25920, Note_on_c, 15, 63, 1
1, 25920, Note_on_c, 15, 72, 1
1, 25920, Lyric_t, "let "
1, 25946, Note_on_c, 9, 36, 0
1, 25977, Note_on_c, 1, 36, 0
1, 25980, Note_on_c, 1, 48, 120
1, 25980, Note_on_c, 9, 42, 120
1, 25998, Note_on_c, 15, 63, 0
1, 25998, Note_on_c, 4, 63, 0
1, 25999, Note_on_c, 4, 72, 0
1, 25999, Note_on_c, 4, 67, 0
1, 25999, Note_on_c, 15, 67, 0
1, 25999, Note_on_c, 15, 72, 0
1, 26007, Note_on_c, 9, 42, 0
1, 26013, Note_on_c, 5, 56, 0
1, 26013, Note_on_c, 3, 68, 0
1, 26016, Note_on_c, 1, 48, 0
1, 26032, Note_on_c, 8, 67, 0
1, 26032, Note_on_c, 7, 67, 0
1, 26033, Note_on_c, 7, 60, 0
1, 26033, Note_on_c, 8, 60, 0
1, 26034, Note_on_c, 8, 63, 0
1, 26034, Note_on_c, 7, 63, 0
1, 26039, Note_on_c, 0, 72, 0
1, 26039, Note_on_c, 0, 67, 0
1, 26040, Note_on_c, 0, 63, 92
1, 26040, Note_on_c, 0, 67, 61
1, 26040, Note_on_c, 0, 72, 105
1, 26040, Note_on_c, 3, 67, 116
1, 26040, Note_on_c, 4, 63, 74
1, 26040, Note_on_c, 4, 67, 113
1, 26040, Note_on_c, 4, 72, 98
1, 26040, Note_on_c, 5, 55, 116
1, 26040, Note_on_c, 9, 38, 120
1, 26040, Note_on_c, 15, 72, 1
1, 26040, Note_on_c, 15, 63, 1
1, 26040, Note_on_c, 15, 67, 1
1, 26040, Lyric_t, "me "
1, 26041, Note_on_c, 0, 72, 0
1, 26041, Note_on_c, 0, 63, 0
1, 26041, Note_on_c, 0, 67, 0
1, 26041, Note_on_c, 0, 63, 0
1, 26064, Note_on_c, 9, 38, 0
1, 26100, Note_on_c, 1, 34, 98
1, 26100, Note_on_c, 9, 42, 120
1, 26112, Note_on_c, 15, 67, 0
1, 26112, Note_on_c, 4, 67, 0
1, 26116, Note_on_c, 4, 72, 0
1, 26116, Note_on_c, 15, 72, 0
1, 26118, Note_on_c, 4, 63, 0
1, 26118, Note_on_c, 15, 63, 0
1, 26128, Note_on_c, 9, 42, 0
1, 26129, Note_on_c, 1, 34, 0
1, 26130, Note_on_c, 1, 36, 111
1, 26132, Note_on_c, 2, 67, 0
1, 26132, Note_on_c, 5, 55, 0
1, 26132, Note_on_c, 3, 67, 0
1, 26135, Note_on_c, 2, 72, 0
1, 26139, Note_on_c, 2, 63, 0
1, 26159, Note_on_c, 1, 36, 0
1, 26160, Note_on_c, 0, 63, 94
1, 26160, Note_on_c, 0, 67, 100
1, 26160, Note_on_c, 0, 72, 94
1, 26160, Note_on_c, 1, 39, 94
1, 26160, Note_on_c, 2, 63, 81
1, 26160, Note_on_c, 2, 67, 119
1, 26160, Note_on_c, 2, 72, 91
1, 26160, Note_on_c, 3, 65, 116
1, 26160, Note_on_c, 4, 62, 101
1, 26160, Note_on_c, 4, 65, 97
1, 26160, Note_on_c, 4, 70, 92
1, 26160, Note_on_c, 5, 53, 116
1, 26160, Note_on_c, 7, 60, 107
1, 26160, Note_on_c, 7, 63, 119
1, 26160, Note_on_c, 7, 67, 103
1, 26160, Note_on_c, 8, 60, 107
1, 26160, Note_on_c, 8, 63, 119
1, 26160, Note_on_c, 8, 67, 103
1, 26160, Note_on_c, 9, 36, 120
1, 26160, Note_on_c, 15, 65, 1
1, 26160, Note_on_c, 15, 62, 1
1, 26160, Note_on_c, 15, 70, 1
1, 26160, Lyric_t, "trea"
1, 26186, Note_on_c, 9, 36, 0
1, 26189, Note_on_c, 1, 39, 0
1, 26190, Note_on_c, 1, 36, 118
1, 26193, Note_on_c, 0, 72, 0
1, 26193, Note_on_c, 0, 67, 0
1, 26197, Note_on_c, 0, 63, 0
1, 26208, Note_on_c, 2, 72, 0
1, 26211, Note_on_c, 8, 67, 0
1, 26211, Note_on_c, 7, 67, 0
1, 26212, Note_on_c, 8, 60, 0
1, 26212, Note_on_c, 7, 60, 0
1, 26216, Note_on_c, 8, 63, 0
1, 26216, Note_on_c, 2, 67, 0
1, 26216, Note_on_c, 7, 63, 0
1, 26218, Note_on_c, 2, 63, 0
1, 26220, Note_on_c, 9, 42, 120
1, 26226, Note_on_c, 1, 36, 0
1, 26230, Note_on_c, 4, 62, 0
1, 26230, Note_on_c, 15, 62, 0
1, 26235, Note_on_c, 15, 65, 0
1, 26235, Note_on_c, 4, 65, 0
1, 26237, Note_on_c, 4, 70, 0
1, 26237, Note_on_c, 15, 70, 0
1, 26243, Note_on_c, 9, 42, 0
1, 26253, Note_on_c, 3, 65, 0
1, 26253, Note_on_c, 5, 53, 0
1, 26280, Note_on_c, 0, 62, 119
1, 26280, Note_on_c, 0, 65, 105
1, 26280, Note_on_c, 0, 70, 92
1, 26280, Note_on_c, 1, 34, 109
1, 26280, Note_on_c, 2, 62, 98
1, 26280, Note_on_c, 2, 65, 116
1, 26280, Note_on_c, 2, 70, 91
1, 26280, Note_on_c, 3, 67, 120
1, 26280, Note_on_c, 4, 62, 109
1, 26280, Note_on_c, 4, 65, 91
1, 26280, Note_on_c, 4, 70, 109
1, 26280, Note_on_c, 5, 55, 120
1, 26280, Note_on_c, 7, 58, 98
1, 26280, Note_on_c, 7, 62, 120
1, 26280, Note_on_c, 7, 65, 107
1, 26280, Note_on_c, 8, 58, 98
1, 26280, Note_on_c, 8, 62, 120
1, 26280, Note_on_c, 8, 65, 107
1, 26280, Note_on_c, 9, 38, 120
1, 26280, Note_on_c, 15, 62, 1
1, 26280, Note_on_c, 15, 70, 1
1, 26280, Note_on_c, 15, 65, 1
1, 26280, Lyric_t, "sure "
1, 26308, Note_on_c, 9, 38, 0
1, 26308, Note_on_c, 0, 62, 0
1, 26313, Note_on_c, 0, 70, 0
1, 26314, Note_on_c, 0, 65, 0
1, 26331, Note_on_c, 4, 62, 0
1, 26331, Note_on_c, 15, 62, 0
1, 26335, Note_on_c, 8, 62, 0
1, 26335, Note_on_c, 7, 62, 0
1, 26338, Note_on_c, 8, 58, 0
1, 26338, Note_on_c, 7, 58, 0
1, 26339, Note_on_c, 4, 65, 0
1, 26339, Note_on_c, 15, 65, 0
1, 26340, Note_on_c, 4, 70, 0
1, 26340, Note_on_c, 15, 70, 0
1, 26340, Note_on_c, 9, 42, 120
1, 26341, Note_on_c, 7, 65, 0
1, 26341, Note_on_c, 8, 65, 0
1, 26349, Note_on_c, 2, 65, 0
1, 26350, Note_on_c, 2, 62, 0
1, 26352, Note_on_c, 2, 70, 0
1, 26356, Note_on_c, 3, 67, 0
1, 26356, Note_on_c, 5, 55, 0
1, 26360, Note_on_c, 9, 42, 0
1, 26370, Note_on_c, 3, 60, 120
1, 26370, Note_on_c, 4, 60, 87
1, 26370, Note_on_c, 4, 63, 109
1, 26370, Note_on_c, 4, 70, 106
1, 26370, Note_on_c, 5, 48, 120
1, 26370, Note_on_c, 15, 63, 1
1, 26370, Note_on_c, 15, 60, 1
1, 26370, Note_on_c, 15, 70, 1
1, 26370, Lyric_t, "you "
1, 26370, Lyric_t, "\015"
1, 26383, Note_on_c, 1, 34, 0
1, 26400, Note_on_c, 15, 60, 0
1, 26400, Note_on_c, 4, 60, 0
1, 26400, Note_on_c, 0, 63, 98
1, 26400, Note_on_c, 0, 67, 118
1, 26400, Note_on_c, 0, 72, 105
1, 26400, Note_on_c, 1, 32, 120
1, 26400, Note_on_c, 2, 63, 81
1, 26400, Note_on_c, 2, 67, 116
1, 26400, Note_on_c, 2, 72, 107
1, 26400, Note_on_c, 7, 56, 92
1, 26400, Note_on_c, 7, 60, 120
1, 26400, Note_on_c, 7, 67, 113
1, 26400, Note_on_c, 8, 56, 92
1, 26400, Note_on_c, 8, 60, 120
1, 26400, Note_on_c, 8, 67, 113
1, 26400, Note_on_c, 9, 36, 120
1, 26400, Note_on_c, 11, 96, 120
1, 26400, Pitch_bend_c, 11, 8125
1, 26401, Note_on_c, 4, 70, 0
1, 26401, Note_on_c, 15, 70, 0
1, 26401, Pitch_bend_c, 11, 8102
1, 26402, Note_on_c, 4, 63, 0
1, 26402, Note_on_c, 15, 63, 0
1, 26402, Pitch_bend_c, 11, 8079
1, 26403, Pitch_bend_c, 11, 8057
1, 26404, Pitch_bend_c, 11, 8034
1, 26405, Pitch_bend_c, 11, 8011
1, 26406, Pitch_bend_c, 11, 7989
1, 26407, Pitch_bend_c, 11, 7966
1, 26408, Control_c, 11, 11, 126
1, 26408, Pitch_bend_c, 11, 7943
1, 26409, Pitch_bend_c, 11, 7921
1, 26410, Pitch_bend_c, 11, 7898
1, 26411, Pitch_bend_c, 11, 7875
1, 26412, Pitch_bend_c, 11, 7853
1, 26413, Control_c, 11, 11, 125
1, 26413, Pitch_bend_c, 11, 7830
1, 26414, Note_on_c, 3, 60, 0
1, 26414, Note_on_c, 5, 48, 0
1, 26414, Pitch_bend_c, 11, 7807
1, 26415, Pitch_bend_c, 11, 7785
1, 26416, Pitch_bend_c, 11, 7762
1, 26417, Control_c, 11, 11, 124
1, 26417, Pitch_bend_c, 11, 7739
1, 26418, Pitch_bend_c, 11, 7717
1, 26419, Pitch_bend_c, 11, 7694
1, 26420, Pitch_bend_c, 11, 7671
1, 26421, Pitch_bend_c, 11, 7649
1, 26422, Control_c, 11, 11, 123
1, 26422, Pitch_bend_c, 11, 7626
1, 26423, Pitch_bend_c, 11, 7603
1, 26424, Pitch_bend_c, 11, 7581
1, 26425, Pitch_bend_c, 11, 7558
1, 26426, Control_c, 11, 11, 122
1, 26426, Pitch_bend_c, 11, 7535
1, 26427, Pitch_bend_c, 11, 7513
1, 26428, Pitch_bend_c, 11, 7490
1, 26429, Pitch_bend_c, 11, 7467
1, 26430, Pitch_bend_c, 11, 7445
1, 26431, Control_c, 11, 11, 121
1, 26431, Pitch_bend_c, 11, 7422
1, 26432, Pitch_bend_c, 11, 7399
1, 26433, Note_on_c, 9, 36, 0
1, 26433, Pitch_bend_c, 11, 7377
1, 26434, Pitch_bend_c, 11, 7354
1, 26435, Control_c, 11, 11, 120
1, 26435, Pitch_bend_c, 11, 7331
1, 26436, Pitch_bend_c, 11, 7309
1, 26437, Pitch_bend_c, 11, 7286
1, 26438, Pitch_bend_c, 11, 7263
1, 26439, Pitch_bend_c, 11, 7241
1, 26440, Control_c, 11, 11, 119
1, 26440, Pitch_bend_c, 11, 7218
1, 26441, Pitch_bend_c, 11, 7195
1, 26442, Pitch_bend_c, 11, 7173
1, 26443, Pitch_bend_c, 11, 7150
1, 26444, Control_c, 11, 11, 118
1, 26444, Pitch_bend_c, 11, 7127
1, 26445, Pitch_bend_c, 11, 7105
1, 26446, Pitch_bend_c, 11, 7082
1, 26447, Pitch_bend_c, 11, 7059
1, 26448, Pitch_bend_c, 11, 7037
1, 26449, Control_c, 11, 11, 117
1, 26449, Pitch_bend_c, 11, 7014
1, 26450, Pitch_bend_c, 11, 6991
1, 26451, Pitch_bend_c, 11, 6969
1, 26452, Pitch_bend_c, 11, 6946
1, 26453, Control_c, 11, 11, 116
1, 26453, Pitch_bend_c, 11, 6923
1, 26454, Pitch_bend_c, 11, 6901
1, 26455, Pitch_bend_c, 11, 6878
1, 26456, Pitch_bend_c, 11, 6855
1, 26457, Pitch_bend_c, 11, 6833
1, 26458, Control_c, 11, 11, 115
1, 26458, Pitch_bend_c, 11, 6810
1, 26459, Note_on_c, 1, 32, 0
1, 26459, Pitch_bend_c, 11, 6788
1, 26460, Note_on_c, 1, 44, 120
1, 26460, Note_on_c, 9, 42, 120
1, 26460, Pitch_bend_c, 11, 6765
1, 26461, Pitch_bend_c, 11, 6742
1, 26462, Control_c, 11, 11, 114
1, 26462, Pitch_bend_c, 11, 6720
1, 26463, Pitch_bend_c, 11, 6697
1, 26464, Pitch_bend_c, 11, 6674
1, 26465, Pitch_bend_c, 11, 6652
1, 26466, Pitch_bend_c, 11, 6629
1, 26467, Control_c, 11, 11, 113
1, 26467, Pitch_bend_c, 11, 6606
1, 26468, Pitch_bend_c, 11, 6584
1, 26469, Pitch_bend_c, 11, 6561
1, 26470, Pitch_bend_c, 11, 6538
1, 26471, Control_c, 11, 11, 112
1, 26471, Pitch_bend_c, 11, 6516
1, 26472, Pitch_bend_c, 11, 6493
1, 26473, Pitch_bend_c, 11, 6470
1, 26474, Pitch_bend_c, 11, 6448
1, 26475, Pitch_bend_c, 11, 6425
1, 26476, Control_c, 11, 11, 111
1, 26476, Pitch_bend_c, 11, 6402
1, 26477, Pitch_bend_c, 11, 6380
1, 26478, Pitch_bend_c, 11, 6357
1, 26479, Pitch_bend_c, 11, 6334
1, 26480, Control_c, 11, 11, 110
1, 26480, Pitch_bend_c, 11, 6312
1, 26481, Pitch_bend_c, 11, 6289
1, 26482, Pitch_bend_c, 11, 6266
1, 26483, Pitch_bend_c, 11, 6244
1, 26484, Pitch_bend_c, 11, 6221
1, 26485, Control_c, 11, 11, 109
1, 26485, Pitch_bend_c, 11, 6198
1, 26486, Pitch_bend_c, 11, 6176
1, 26487, Pitch_bend_c, 11, 6153
1, 26488, Pitch_bend_c, 11, 6130
1, 26489, Control_c, 11, 11, 108
1, 26489, Pitch_bend_c, 11, 6108
1, 26490, Pitch_bend_c, 11, 6085
1, 26491, Note_on_c, 9, 42, 0
1, 26491, Pitch_bend_c, 11, 6062
1, 26492, Pitch_bend_c, 11, 6040
1, 26493, Pitch_bend_c, 11, 6017
1, 26494, Control_c, 11, 11, 107
1, 26494, Pitch_bend_c, 11, 5994
1, 26495, Note_on_c, 1, 44, 0
1, 26495, Pitch_bend_c, 11, 5972
1, 26496, Pitch_bend_c, 11, 5949
1, 26497, Pitch_bend_c, 11, 5926
1, 26498, Control_c, 11, 11, 106
1, 26498, Pitch_bend_c, 11, 5904
1, 26499, Pitch_bend_c, 11, 5881
1, 26500, Pitch_bend_c, 11, 5858
1, 26501, Pitch_bend_c, 11, 5836
1, 26502, Pitch_bend_c, 11, 5813
1, 26503, Control_c, 11, 11, 105
1, 26503, Pitch_bend_c, 11, 5790
1, 26504, Pitch_bend_c, 11, 5768
1, 26505, Pitch_bend_c, 11, 5745
1, 26506, Pitch_bend_c, 11, 5722
1, 26507, Control_c, 11, 11, 104
1, 26507, Pitch_bend_c, 11, 5700
1, 26508, Pitch_bend_c, 11, 5677
1, 26509, Pitch_bend_c, 11, 5654
1, 26510, Note_on_c, 0, 67, 0
1, 26510, Pitch_bend_c, 11, 5632
1, 26511, Pitch_bend_c, 11, 5609
1, 26512, Control_c, 11, 11, 103
1, 26512, Pitch_bend_c, 11, 5586
1, 26513, Pitch_bend_c, 11, 5564
1, 26514, Note_on_c, 7, 67, 0
1, 26514, Note_on_c, 8, 67, 0
1, 26514, Pitch_bend_c, 11, 5541
1, 26515, Note_on_c, 7, 56, 0
1, 26515, Note_on_c, 8, 56, 0
1, 26515, Pitch_bend_c, 11, 5518
1, 26516, Note_on_c, 7, 60, 0
1, 26516, Note_on_c, 0, 63, 0
1, 26516, Note_on_c, 8, 60, 0
1, 26516, Control_c, 11, 11, 102
1, 26516, Pitch_bend_c, 11, 5496
1, 26517, Pitch_bend_c, 11, 5473
1, 26518, Note_on_c, 0, 72, 0
1, 26518, Pitch_bend_c, 11, 5451
1, 26519, Pitch_bend_c, 11, 5428
1, 26520, Note_on_c, 9, 38, 120
1, 26520, Pitch_bend_c, 11, 5405
1, 26520, Note_on_c, 12, 96, 120
1, 26520, Pitch_bend_c, 12, 8125
1, 26521, Control_c, 11, 11, 101
1, 26521, Pitch_bend_c, 11, 5383
1, 26521, Pitch_bend_c, 12, 8102
1, 26522, Pitch_bend_c, 11, 5360
1, 26522, Pitch_bend_c, 12, 8079
1, 26523, Pitch_bend_c, 11, 5337
1, 26523, Pitch_bend_c, 12, 8057
1, 26524, Pitch_bend_c, 11, 5315
1, 26524, Pitch_bend_c, 12, 8034
1, 26525, Control_c, 11, 11, 100
1, 26525, Pitch_bend_c, 11, 5292
1, 26525, Pitch_bend_c, 12, 8011
1, 26526, Pitch_bend_c, 11, 5269
1, 26526, Pitch_bend_c, 12, 7989
1, 26527, Pitch_bend_c, 11, 5247
1, 26527, Pitch_bend_c, 12, 7966
1, 26528, Pitch_bend_c, 11, 5224
1, 26528, Control_c, 12, 11, 126
1, 26528, Pitch_bend_c, 12, 7943
1, 26529, Pitch_bend_c, 11, 5201
1, 26529, Pitch_bend_c, 12, 7921
1, 26530, Control_c, 11, 11, 99
1, 26530, Pitch_bend_c, 11, 5179
1, 26530, Pitch_bend_c, 12, 7898
1, 26531, Pitch_bend_c, 11, 5156
1, 26531, Pitch_bend_c, 12, 7875
1, 26532, Pitch_bend_c, 11, 5133
1, 26532, Pitch_bend_c, 12, 7853
1, 26533, Pitch_bend_c, 11, 5111
1, 26533, Control_c, 12, 11, 125
1, 26533, Pitch_bend_c, 12, 7830
1, 26534, Control_c, 11, 11, 98
1, 26534, Pitch_bend_c, 11, 5088
1, 26534, Pitch_bend_c, 12, 7807
1, 26535, Pitch_bend_c, 11, 5065
1, 26535, Pitch_bend_c, 12, 7785
1, 26536, Pitch_bend_c, 11, 5043
1, 26536, Pitch_bend_c, 12, 7762
1, 26537, Pitch_bend_c, 11, 5020
1, 26537, Control_c, 12, 11, 124
1, 26537, Pitch_bend_c, 12, 7739
1, 26538, Pitch_bend_c, 11, 4997
1, 26538, Pitch_bend_c, 12, 7717
1, 26539, Control_c, 11, 11, 97
1, 26539, Pitch_bend_c, 11, 4975
1, 26539, Pitch_bend_c, 12, 7694
1, 26540, Pitch_bend_c, 11, 4952
1, 26540, Pitch_bend_c, 12, 7671
1, 26541, Pitch_bend_c, 11, 4929
1, 26541, Pitch_bend_c, 12, 7649
1, 26542, Pitch_bend_c, 11, 4907
1, 26542, Control_c, 12, 11, 123
1, 26542, Pitch_bend_c, 12, 7626
1, 26543, Control_c, 11, 11, 96
1, 26543, Pitch_bend_c, 11, 4884
1, 26543, Pitch_bend_c, 12, 7603
1, 26544, Pitch_bend_c, 11, 4861
1, 26544, Pitch_bend_c, 12, 7581
1, 26545, Pitch_bend_c, 11, 4839
1, 26545, Pitch_bend_c, 12, 7558
1, 26546, Pitch_bend_c, 11, 4816
1, 26546, Control_c, 12, 11, 122
1, 26546, Pitch_bend_c, 12, 7535
1, 26547, Pitch_bend_c, 11, 4793
1, 26547, Pitch_bend_c, 12, 7513
1, 26548, Control_c, 11, 11, 95
1, 26548, Pitch_bend_c, 11, 4771
1, 26548, Pitch_bend_c, 12, 7490
1, 26549, Pitch_bend_c, 11, 4748
1, 26549, Pitch_bend_c, 12, 7467
1, 26550, Note_on_c, 0, 63, 73
1, 26550, Note_on_c, 0, 67, 82
1, 26550, Note_on_c, 0, 72, 83
1, 26550, Pitch_bend_c, 11, 4725
1, 26550, Pitch_bend_c, 12, 7445
1, 26551, Note_on_c, 0, 72, 0
1, 26551, Note_on_c, 0, 67, 0
1, 26551, Note_on_c, 0, 63, 0
1, 26551, Pitch_bend_c, 11, 4703
1, 26551, Control_c, 12, 11, 121
1, 26551, Pitch_bend_c, 12, 7422
1, 26552, Control_c, 11, 11, 94
1, 26552, Pitch_bend_c, 11, 4680
1, 26552, Pitch_bend_c, 12, 7399
1, 26553, Note_on_c, 9, 38, 0
1, 26553, Pitch_bend_c, 11, 4657
1, 26553, Pitch_bend_c, 12, 7377
1, 26554, Pitch_bend_c, 11, 4635
1, 26554, Pitch_bend_c, 12, 7354
1, 26555, Pitch_bend_c, 11, 4612
1, 26555, Control_c, 12, 11, 120
1, 26555, Pitch_bend_c, 12, 7331
1, 26556, Pitch_bend_c, 11, 4589
1, 26556, Pitch_bend_c, 12, 7309
1, 26557, Control_c, 11, 11, 93
1, 26557, Pitch_bend_c, 11, 4567
1, 26557, Pitch_bend_c, 12, 7286
1, 26558, Pitch_bend_c, 11, 4544
1, 26558, Pitch_bend_c, 12, 7263
1, 26559, Pitch_bend_c, 11, 4521
1, 26559, Pitch_bend_c, 12, 7241
1, 26560, Pitch_bend_c, 11, 4499
1, 26560, Control_c, 12, 11, 119
1, 26560, Pitch_bend_c, 12, 7218
1, 26561, Control_c, 11, 11, 92
1, 26561, Pitch_bend_c, 11, 4476
1, 26561, Pitch_bend_c, 12, 7195
1, 26562, Pitch_bend_c, 11, 4453
1, 26562, Pitch_bend_c, 12, 7173
1, 26563, Pitch_bend_c, 11, 4431
1, 26563, Pitch_bend_c, 12, 7150
1, 26564, Pitch_bend_c, 11, 4408
1, 26564, Control_c, 12, 11, 118
1, 26564, Pitch_bend_c, 12, 7127
1, 26565, Pitch_bend_c, 11, 4385
1, 26565, Pitch_bend_c, 12, 7105
1, 26566, Control_c, 11, 11, 91
1, 26566, Pitch_bend_c, 11, 4363
1, 26566, Pitch_bend_c, 12, 7082
1, 26567, Note_on_c, 10, 70, 89
1, 26567, Pitch_bend_c, 11, 4340
1, 26567, Pitch_bend_c, 12, 7059
1, 26568, Pitch_bend_c, 11, 4317
1, 26568, Pitch_bend_c, 12, 7037
1, 26569, Pitch_bend_c, 11, 4295
1, 26569, Control_c, 12, 11, 117
1, 26569, Pitch_bend_c, 12, 7014
1, 26570, Control_c, 11, 11, 90
1, 26570, Pitch_bend_c, 11, 4272
1, 26570, Pitch_bend_c, 12, 6991
1, 26571, Pitch_bend_c, 11, 4249
1, 26571, Pitch_bend_c, 12, 6969
1, 26572, Pitch_bend_c, 11, 4227
1, 26572, Pitch_bend_c, 12, 6946
1, 26573, Pitch_bend_c, 11, 4204
1, 26573, Control_c, 12, 11, 116
1, 26573, Pitch_bend_c, 12, 6923
1, 26574, Pitch_bend_c, 11, 4181
1, 26574, Pitch_bend_c, 12, 6901
1, 26575, Control_c, 11, 11, 89
1, 26575, Pitch_bend_c, 11, 4159
1, 26575, Pitch_bend_c, 12, 6878
1, 26576, Pitch_bend_c, 11, 4136
1, 26576, Pitch_bend_c, 12, 6855
1, 26577, Pitch_bend_c, 11, 4113
1, 26577, Pitch_bend_c, 12, 6833
1, 26578, Pitch_bend_c, 11, 4091
1, 26578, Control_c, 12, 11, 115
1, 26578, Pitch_bend_c, 12, 6810
1, 26579, Control_c, 11, 11, 88
1, 26579, Pitch_bend_c, 11, 4068
1, 26579, Pitch_bend_c, 12, 6788
1, 26580, Note_on_c, 0, 63, 80
1, 26580, Note_on_c, 0, 67, 91
1, 26580, Note_on_c, 0, 72, 98
1, 26580, Note_on_c, 9, 42, 120
1, 26580, Note_on_c, 10, 72, 118
1, 26580, Pitch_bend_c, 11, 4046
1, 26580, Pitch_bend_c, 12, 6765
1, 26581, Note_on_c, 0, 72, 0
1, 26581, Note_on_c, 0, 67, 0
1, 26581, Note_on_c, 0, 63, 0
1, 26581, Pitch_bend_c, 11, 4023
1, 26581, Pitch_bend_c, 12, 6742
1, 26582, Pitch_bend_c, 11, 4000
1, 26582, Control_c, 12, 11, 114
1, 26582, Pitch_bend_c, 12, 6720
1, 26583, Pitch_bend_c, 11, 3978
1, 26583, Pitch_bend_c, 12, 6697
1, 26584, Control_c, 11, 11, 87
1, 26584, Pitch_bend_c, 11, 3955
1, 26584, Pitch_bend_c, 12, 6674
1, 26585, Note_on_c, 10, 70, 0
1, 26585, Pitch_bend_c, 11, 3932
1, 26585, Pitch_bend_c, 12, 6652
1, 26586, Pitch_bend_c, 11, 3910
1, 26586, Pitch_bend_c, 12, 6629
1, 26587, Pitch_bend_c, 11, 3887
1, 26587, Control_c, 12, 11, 113
1, 26587, Pitch_bend_c, 12, 6606
1, 26588, Control_c, 11, 11, 86
1, 26588, Pitch_bend_c, 11, 3864
1, 26588, Pitch_bend_c, 12, 6584
1, 26589, Pitch_bend_c, 11, 3842
1, 26589, Pitch_bend_c, 12, 6561
1, 26590, Pitch_bend_c, 11, 3819
1, 26590, Pitch_bend_c, 12, 6538
1, 26591, Pitch_bend_c, 11, 3796
1, 26591, Control_c, 12, 11, 112
1, 26591, Pitch_bend_c, 12, 6516
1, 26592, Pitch_bend_c, 11, 3774
1, 26592, Pitch_bend_c, 12, 6493
1, 26593, Pitch_bend_c, 11, 3751
1, 26593, Pitch_bend_c, 12, 6470
1, 26594, Pitch_bend_c, 11, 3728
1, 26594, Pitch_bend_c, 12, 6448
1, 26595, Pitch_bend_c, 11, 3706
1, 26595, Pitch_bend_c, 12, 6425
1, 26596, Pitch_bend_c, 11, 3683
1, 26596, Control_c, 12, 11, 111
1, 26596, Pitch_bend_c, 12, 6402
1, 26597, Control_c, 11, 11, 85
1, 26597, Pitch_bend_c, 11, 3660
1, 26597, Pitch_bend_c, 12, 6380
1, 26598, Pitch_bend_c, 11, 3638
1, 26598, Pitch_bend_c, 12, 6357
1, 26599, Pitch_bend_c, 11, 3615
1, 26599, Pitch_bend_c, 12, 6334
1, 26600, Pitch_bend_c, 11, 3592
1, 26600, Control_c, 12, 11, 110
1, 26600, Pitch_bend_c, 12, 6312
1, 26601, Pitch_bend_c, 11, 3570
1, 26601, Pitch_bend_c, 12, 6289
1, 26602, Control_c, 11, 11, 84
1, 26602, Pitch_bend_c, 11, 3547
1, 26602, Pitch_bend_c, 12, 6266
1, 26603, Note_on_c, 10, 72, 0
1, 26603, Pitch_bend_c, 11, 3524
1, 26603, Pitch_bend_c, 12, 6244
1, 26604, Pitch_bend_c, 11, 3502
1, 26604, Pitch_bend_c, 12, 6221
1, 26605, Pitch_bend_c, 11, 3479
1, 26605, Control_c, 12, 11, 109
1, 26605, Pitch_bend_c, 12, 6198
1, 26606, Note_on_c, 9, 42, 0
1, 26606, Control_c, 11, 11, 83
1, 26606, Pitch_bend_c, 11, 3456
1, 26606, Pitch_bend_c, 12, 6176
1, 26607, Pitch_bend_c, 11, 3434
1, 26607, Pitch_bend_c, 12, 6153
1, 26608, Pitch_bend_c, 11, 3411
1, 26608, Pitch_bend_c, 12, 6130
1, 26609, Pitch_bend_c, 11, 3388
1, 26609, Control_c, 12, 11, 108
1, 26609, Pitch_bend_c, 12, 6108
1, 26610, Note_on_c, 0, 63, 77
1, 26610, Note_on_c, 0, 67, 90
1, 26610, Note_on_c, 0, 72, 98
1, 26610, Pitch_bend_c, 11, 3366
1, 26610, Pitch_bend_c, 12, 6085
1, 26611, Note_on_c, 0, 72, 0
1, 26611, Note_on_c, 0, 67, 0
1, 26611, Note_on_c, 0, 63, 0
1, 26611, Control_c, 11, 11, 82
1, 26611, Pitch_bend_c, 11, 3343
1, 26611, Pitch_bend_c, 12, 6062
1, 26612, Pitch_bend_c, 11, 3320
1, 26612, Pitch_bend_c, 12, 6040
1, 26613, Pitch_bend_c, 11, 3298
1, 26613, Pitch_bend_c, 12, 6017
1, 26614, Pitch_bend_c, 11, 3275
1, 26614, Control_c, 12, 11, 107
1, 26614, Pitch_bend_c, 12, 5994
1, 26615, Control_c, 11, 11, 81
1, 26615, Pitch_bend_c, 11, 3252
1, 26615, Pitch_bend_c, 12, 5972
1, 26616, Pitch_bend_c, 11, 3230
1, 26616, Pitch_bend_c, 12, 5949
1, 26617, Pitch_bend_c, 11, 3207
1, 26617, Pitch_bend_c, 12, 5926
1, 26618, Pitch_bend_c, 11, 3184
1, 26618, Control_c, 12, 11, 106
1, 26618, Pitch_bend_c, 12, 5904
1, 26619, Pitch_bend_c, 11, 3162
1, 26619, Pitch_bend_c, 12, 5881
1, 26620, Control_c, 11, 11, 80
1, 26620, Pitch_bend_c, 11, 3139
1, 26620, Pitch_bend_c, 12, 5858
1, 26621, Pitch_bend_c, 11, 3116
1, 26621, Pitch_bend_c, 12, 5836
1, 26622, Pitch_bend_c, 11, 3094
1, 26622, Pitch_bend_c, 12, 5813
1, 26623, Pitch_bend_c, 11, 3071
1, 26623, Control_c, 12, 11, 105
1, 26623, Pitch_bend_c, 12, 5790
1, 26624, Control_c, 11, 11, 79
1, 26624, Pitch_bend_c, 11, 3048
1, 26624, Pitch_bend_c, 12, 5768
1, 26625, Pitch_bend_c, 11, 3026
1, 26625, Pitch_bend_c, 12, 5745
1, 26626, Pitch_bend_c, 11, 3003
1, 26626, Pitch_bend_c, 12, 5722
1, 26627, Pitch_bend_c, 11, 2980
1, 26627, Control_c, 12, 11, 104
1, 26627, Pitch_bend_c, 12, 5700
1, 26628, Pitch_bend_c, 11, 2958
1, 26628, Pitch_bend_c, 12, 5677
1, 26629, Control_c, 11, 11, 78
1, 26629, Pitch_bend_c, 11, 2935
1, 26629, Pitch_bend_c, 12, 5654
1, 26630, Pitch_bend_c, 11, 2912
1, 26630, Pitch_bend_c, 12, 5632
1, 26631, Pitch_bend_c, 11, 2890
1, 26631, Pitch_bend_c, 12, 5609
1, 26632, Pitch_bend_c, 11, 2867
1, 26632, Control_c, 12, 11, 103
1, 26632, Pitch_bend_c, 12, 5586
1, 26633, Control_c, 11, 11, 77
1, 26633, Pitch_bend_c, 11, 2844
1, 26633, Pitch_bend_c, 12, 5564
1, 26634, Pitch_bend_c, 11, 2822
1, 26634, Pitch_bend_c, 12, 5541
1, 26635, Pitch_bend_c, 11, 2799
1, 26635, Pitch_bend_c, 12, 5518
1, 26636, Pitch_bend_c, 11, 2776
1, 26636, Control_c, 12, 11, 102
1, 26636, Pitch_bend_c, 12, 5496
1, 26637, Pitch_bend_c, 11, 2754
1, 26637, Pitch_bend_c, 12, 5473
1, 26638, Control_c, 11, 11, 76
1, 26638, Pitch_bend_c, 11, 2731
1, 26638, Pitch_bend_c, 12, 5451
1, 26639, Pitch_bend_c, 11, 2709
1, 26639, Pitch_bend_c, 12, 5428
1, 26640, Note_on_c, 0, 63, 91
1, 26640, Note_on_c, 0, 67, 119
1, 26640, Note_on_c, 0, 72, 96
1, 26640, Note_on_c, 1, 32, 120
1, 26640, Note_on_c, 7, 56, 111
1, 26640, Note_on_c, 7, 60, 119
1, 26640, Note_on_c, 7, 67, 116
1, 26640, Note_on_c, 8, 56, 111
1, 26640, Note_on_c, 8, 60, 119
1, 26640, Note_on_c, 8, 67, 116
1, 26640, Note_on_c, 9, 36, 120
1, 26640, Note_on_c, 10, 70, 120
1, 26640, Pitch_bend_c, 11, 2686
1, 26640, Pitch_bend_c, 12, 5405
1, 26641, Pitch_bend_c, 11, 2663
1, 26641, Control_c, 12, 11, 101
1, 26641, Pitch_bend_c, 12, 5383
1, 26642, Control_c, 11, 11, 75
1, 26642, Pitch_bend_c, 11, 2641
1, 26642, Pitch_bend_c, 12, 5360
1, 26643, Pitch_bend_c, 11, 2618
1, 26643, Pitch_bend_c, 12, 5337
1, 26644, Pitch_bend_c, 11, 2595
1, 26644, Pitch_bend_c, 12, 5315
1, 26645, Pitch_bend_c, 11, 2573
1, 26645, Control_c, 12, 11, 100
1, 26645, Pitch_bend_c, 12, 5292
1, 26646, Pitch_bend_c, 11, 2550
1, 26646, Pitch_bend_c, 12, 5269
1, 26647, Control_c, 11, 11, 74
1, 26647, Pitch_bend_c, 11, 2527
1, 26647, Pitch_bend_c, 12, 5247
1, 26648, Pitch_bend_c, 11, 2505
1, 26648, Pitch_bend_c, 12, 5224
1, 26649, Pitch_bend_c, 11, 2482
1, 26649, Pitch_bend_c, 12, 5201
1, 26650, Pitch_bend_c, 11, 2459
1, 26650, Control_c, 12, 11, 99
1, 26650, Pitch_bend_c, 12, 5179
1, 26651, Control_c, 11, 11, 73
1, 26651, Pitch_bend_c, 11, 2437
1, 26651, Pitch_bend_c, 12, 5156
1, 26652, Pitch_bend_c, 11, 2414
1, 26652, Pitch_bend_c, 12, 5133
1, 26653, Pitch_bend_c, 11, 2391
1, 26653, Pitch_bend_c, 12, 5111
1, 26654, Pitch_bend_c, 11, 2369
1, 26654, Control_c, 12, 11, 98
1, 26654, Pitch_bend_c, 12, 5088
1, 26655, Pitch_bend_c, 11, 2346
1, 26655, Pitch_bend_c, 12, 5065
1, 26656, Control_c, 11, 11, 72
1, 26656, Pitch_bend_c, 11, 2323
1, 26656, Pitch_bend_c, 12, 5043
1, 26657, Pitch_bend_c, 11, 2301
1, 26657, Pitch_bend_c, 12, 5020
1, 26658, Pitch_bend_c, 11, 2278
1, 26658, Pitch_bend_c, 12, 4997
1, 26659, Pitch_bend_c, 11, 2255
1, 26659, Control_c, 12, 11, 97
1, 26659, Pitch_bend_c, 12, 4975
1, 26660, Control_c, 11, 11, 71
1, 26660, Pitch_bend_c, 11, 2233
1, 26660, Pitch_bend_c, 12, 4952
1, 26661, Pitch_bend_c, 11, 2210
1, 26661, Pitch_bend_c, 12, 4929
1, 26662, Pitch_bend_c, 11, 2187
1, 26662, Pitch_bend_c, 12, 4907
1, 26663, Pitch_bend_c, 11, 2165
1, 26663, Control_c, 12, 11, 96
1, 26663, Pitch_bend_c, 12, 4884
1, 26664, Pitch_bend_c, 11, 2142
1, 26664, Pitch_bend_c, 12, 4861
1, 26665, Control_c, 11, 11, 70
1, 26665, Pitch_bend_c, 11, 2119
1, 26665, Pitch_bend_c, 12, 4839
1, 26666, Pitch_bend_c, 11, 2097
1, 26666, Pitch_bend_c, 12, 4816
1, 26667, Pitch_bend_c, 11, 2074
1, 26667, Pitch_bend_c, 12, 4793
1, 26668, Pitch_bend_c, 11, 2051
1, 26668, Control_c, 12, 11, 95
1, 26668, Pitch_bend_c, 12, 4771
1, 26669, Note_on_c, 0, 72, 0
1, 26669, Control_c, 11, 11, 69
1, 26669, Pitch_bend_c, 11, 2029
1, 26669, Pitch_bend_c, 12, 4748
1, 26670, Pitch_bend_c, 11, 2006
1, 26670, Pitch_bend_c, 12, 4725
1, 26671, Note_on_c, 1, 32, 0
1, 26671, Note_on_c, 0, 67, 0
1, 26671, Pitch_bend_c, 11, 1983
1, 26671, Pitch_bend_c, 12, 4703
1, 26672, Note_on_c, 9, 36, 0
1, 26672, Pitch_bend_c, 11, 1961
1, 26672, Control_c, 12, 11, 94
1, 26672, Pitch_bend_c, 12, 4680
1, 26673, Note_on_c, 7, 67, 0
1, 26673, Note_on_c, 7, 60, 0
1, 26673, Note_on_c, 8, 67, 0
1, 26673, Note_on_c, 8, 60, 0
1, 26673, Pitch_bend_c, 11, 1938
1, 26673, Pitch_bend_c, 12, 4657
1, 26674, Note_on_c, 0, 63, 0
1, 26674, Control_c, 11, 11, 68
1, 26674, Pitch_bend_c, 11, 1915
1, 26674, Pitch_bend_c, 12, 4635
1, 26675, Pitch_bend_c, 11, 1893
1, 26675, Pitch_bend_c, 12, 4612
1, 26676, Pitch_bend_c, 11, 1870
1, 26676, Pitch_bend_c, 12, 4589
1, 26677, Pitch_bend_c, 11, 1847
1, 26677, Control_c, 12, 11, 93
1, 26677, Pitch_bend_c, 12, 4567
1, 26678, Control_c, 11, 11, 67
1, 26678, Pitch_bend_c, 11, 1825
1, 26678, Pitch_bend_c, 12, 4544
1, 26679, Pitch_bend_c, 11, 1802
1, 26679, Pitch_bend_c, 12, 4521
1, 26680, Note_on_c, 8, 56, 0
1, 26680, Note_on_c, 7, 56, 0
1, 26680, Pitch_bend_c, 11, 1779
1, 26680, Pitch_bend_c, 12, 4499
1, 26681, Pitch_bend_c, 11, 1757
1, 26681, Control_c, 12, 11, 92
1, 26681, Pitch_bend_c, 12, 4476
1, 26682, Pitch_bend_c, 11, 1734
1, 26682, Pitch_bend_c, 12, 4453
1, 26683, Control_c, 11, 11, 66
1, 26683, Pitch_bend_c, 11, 1711
1, 26683, Pitch_bend_c, 12, 4431
1, 26684, Pitch_bend_c, 11, 1689
1, 26684, Pitch_bend_c, 12, 4408
1, 26685, Pitch_bend_c, 11, 1666
1, 26685, Pitch_bend_c, 12, 4385
1, 26686, Pitch_bend_c, 11, 1643
1, 26686, Control_c, 12, 11, 91
1, 26686, Pitch_bend_c, 12, 4363
1, 26687, Control_c, 11, 11, 65
1, 26687, Pitch_bend_c, 11, 1621
1, 26687, Pitch_bend_c, 12, 4340
1, 26688, Pitch_bend_c, 11, 1598
1, 26688, Pitch_bend_c, 12, 4317
1, 26689, Pitch_bend_c, 11, 1575
1, 26689, Pitch_bend_c, 12, 4295
1, 26690, Pitch_bend_c, 11, 1553
1, 26690, Control_c, 12, 11, 90
1, 26690, Pitch_bend_c, 12, 4272
1, 26691, Pitch_bend_c, 11, 1530
1, 26691, Pitch_bend_c, 12, 4249
1, 26692, Control_c, 11, 11, 64
1, 26692, Pitch_bend_c, 11, 1507
1, 26692, Pitch_bend_c, 12, 4227
1, 26693, Pitch_bend_c, 11, 1485
1, 26693, Pitch_bend_c, 12, 4204
1, 26694, Pitch_bend_c, 11, 1462
1, 26694, Pitch_bend_c, 12, 4181
1, 26695, Pitch_bend_c, 11, 1439
1, 26695, Control_c, 12, 11, 89
1, 26695, Pitch_bend_c, 12, 4159
1, 26696, Control_c, 11, 11, 63
1, 26696, Pitch_bend_c, 11, 1417
1, 26696, Pitch_bend_c, 12, 4136
1, 26697, Pitch_bend_c, 11, 1394
1, 26697, Pitch_bend_c, 12, 4113
1, 26698, Pitch_bend_c, 11, 1371
1, 26698, Pitch_bend_c, 12, 4091
1, 26699, Pitch_bend_c, 11, 1349
1, 26699, Control_c, 12, 11, 88
1, 26699, Pitch_bend_c, 12, 4068
1, 26700, Note_on_c, 0, 63, 80
1, 26700, Note_on_c, 0, 67, 111
1, 26700, Note_on_c, 0, 72, 82
1, 26700, Note_on_c, 9, 42, 120
1, 26700, Pitch_bend_c, 11, 1326
1, 26700, Pitch_bend_c, 12, 4046
1, 26701, Note_on_c, 0, 72, 0
1, 26701, Note_on_c, 0, 67, 0
1, 26701, Note_on_c, 0, 63, 0
1, 26701, Control_c, 11, 11, 62
1, 26701, Pitch_bend_c, 11, 1304
1, 26701, Pitch_bend_c, 12, 4023
1, 26702, Pitch_bend_c, 11, 1281
1, 26702, Pitch_bend_c, 12, 4000
1, 26703, Pitch_bend_c, 11, 1258
1, 26703, Pitch_bend_c, 12, 3978
1, 26704, Pitch_bend_c, 11, 1236
1, 26704, Control_c, 12, 11, 87
1, 26704, Pitch_bend_c, 12, 3955
1, 26705, Control_c, 11, 11, 61
1, 26705, Pitch_bend_c, 11, 1213
1, 26705, Pitch_bend_c, 12, 3932
1, 26706, Pitch_bend_c, 11, 1190
1, 26706, Pitch_bend_c, 12, 3910
1, 26707, Pitch_bend_c, 11, 1168
1, 26707, Pitch_bend_c, 12, 3887
1, 26708, Pitch_bend_c, 11, 1145
1, 26708, Control_c, 12, 11, 86
1, 26708, Pitch_bend_c, 12, 3864
1, 26709, Pitch_bend_c, 11, 1122
1, 26709, Pitch_bend_c, 12, 3842
1, 26710, Control_c, 11, 11, 60
1, 26710, Pitch_bend_c, 11, 1100
1, 26710, Pitch_bend_c, 12, 3819
1, 26711, Pitch_bend_c, 11, 1077
1, 26711, Pitch_bend_c, 12, 3796
1, 26712, Pitch_bend_c, 11, 1054
1, 26712, Pitch_bend_c, 12, 3774
1, 26713, Pitch_bend_c, 11, 1032
1, 26713, Pitch_bend_c, 12, 3751
1, 26714, Control_c, 11, 11, 59
1, 26714, Pitch_bend_c, 11, 1009
1, 26714, Pitch_bend_c, 12, 3728
1, 26715, Pitch_bend_c, 11, 986
1, 26715, Pitch_bend_c, 12, 3706
1, 26716, Pitch_bend_c, 11, 964
1, 26716, Pitch_bend_c, 12, 3683
1, 26717, Pitch_bend_c, 11, 941
1, 26717, Control_c, 12, 11, 85
1, 26717, Pitch_bend_c, 12, 3660
1, 26718, Pitch_bend_c, 11, 918
1, 26718, Pitch_bend_c, 12, 3638
1, 26719, Control_c, 11, 11, 58
1, 26719, Pitch_bend_c, 11, 896
1, 26719, Pitch_bend_c, 12, 3615
1, 26720, Pitch_bend_c, 11, 873
1, 26720, Pitch_bend_c, 12, 3592
1, 26721, Pitch_bend_c, 11, 850
1, 26721, Pitch_bend_c, 12, 3570
1, 26722, Pitch_bend_c, 11, 828
1, 26722, Control_c, 12, 11, 84
1, 26722, Pitch_bend_c, 12, 3547
1, 26723, Control_c, 11, 11, 57
1, 26723, Pitch_bend_c, 11, 805
1, 26723, Pitch_bend_c, 12, 3524
1, 26724, Pitch_bend_c, 11, 782
1, 26724, Pitch_bend_c, 12, 3502
1, 26725, Note_on_c, 9, 42, 0
1, 26725, Pitch_bend_c, 11, 760
1, 26725, Pitch_bend_c, 12, 3479
1, 26726, Pitch_bend_c, 11, 737
1, 26726, Control_c, 12, 11, 83
1, 26726, Pitch_bend_c, 12, 3456
1, 26727, Pitch_bend_c, 11, 714
1, 26727, Pitch_bend_c, 12, 3434
1, 26728, Control_c, 11, 11, 56
1, 26728, Pitch_bend_c, 11, 692
1, 26728, Pitch_bend_c, 12, 3411
1, 26729, Pitch_bend_c, 11, 669
1, 26729, Pitch_bend_c, 12, 3388
1, 26730, Note_on_c, 0, 62, 119
1, 26730, Note_on_c, 0, 65, 89
1, 26730, Note_on_c, 0, 70, 91
1, 26730, Note_on_c, 1, 31, 116
1, 26730, Note_on_c, 7, 55, 118
1, 26730, Note_on_c, 7, 58, 120
1, 26730, Note_on_c, 7, 65, 98
1, 26730, Note_on_c, 8, 55, 118
1, 26730, Note_on_c, 8, 58, 120
1, 26730, Note_on_c, 8, 65, 98
1, 26730, Note_on_c, 10, 72, 118
1, 26730, Pitch_bend_c, 11, 646
1, 26730, Pitch_bend_c, 12, 3366
1, 26731, Pitch_bend_c, 11, 624
1, 26731, Control_c, 12, 11, 82
1, 26731, Pitch_bend_c, 12, 3343
1, 26732, Control_c, 11, 11, 55
1, 26732, Pitch_bend_c, 11, 601
1, 26732, Pitch_bend_c, 12, 3320
1, 26733, Pitch_bend_c, 11, 578
1, 26733, Pitch_bend_c, 12, 3298
1, 26734, Note_on_c, 10, 70, 0
1, 26734, Pitch_bend_c, 11, 556
1, 26734, Pitch_bend_c, 12, 3275
1, 26735, Pitch_bend_c, 11, 533
1, 26735, Control_c, 12, 11, 81
1, 26735, Pitch_bend_c, 12, 3252
1, 26736, Pitch_bend_c, 11, 510
1, 26736, Pitch_bend_c, 12, 3230
1, 26737, Control_c, 11, 11, 54
1, 26737, Pitch_bend_c, 11, 488
1, 26737, Pitch_bend_c, 12, 3207
1, 26738, Pitch_bend_c, 11, 465
1, 26738, Pitch_bend_c, 12, 3184
1, 26739, Pitch_bend_c, 11, 442
1, 26739, Pitch_bend_c, 12, 3162
1, 26740, Pitch_bend_c, 11, 420
1, 26740, Control_c, 12, 11, 80
1, 26740, Pitch_bend_c, 12, 3139
1, 26741, Control_c, 11, 11, 53
1, 26741, Pitch_bend_c, 11, 397
1, 26741, Pitch_bend_c, 12, 3116
1, 26742, Pitch_bend_c, 11, 374
1, 26742, Pitch_bend_c, 12, 3094
1, 26743, Pitch_bend_c, 11, 352
1, 26743, Pitch_bend_c, 12, 3071
1, 26744, Pitch_bend_c, 11, 329
1, 26744, Control_c, 12, 11, 79
1, 26744, Pitch_bend_c, 12, 3048
1, 26745, Pitch_bend_c, 11, 306
1, 26745, Pitch_bend_c, 12, 3026
1, 26746, Control_c, 11, 11, 52
1, 26746, Pitch_bend_c, 11, 284
1, 26746, Pitch_bend_c, 12, 3003
1, 26747, Pitch_bend_c, 11, 261
1, 26747, Pitch_bend_c, 12, 2980
1, 26748, Pitch_bend_c, 11, 238
1, 26748, Pitch_bend_c, 12, 2958
1, 26749, Pitch_bend_c, 11, 216
1, 26749, Control_c, 12, 11, 78
1, 26749, Pitch_bend_c, 12, 2935
1, 26750, Note_on_c, 2, 72, 0
1, 26750, Control_c, 11, 11, 51
1, 26750, Pitch_bend_c, 11, 193
1, 26750, Pitch_bend_c, 12, 2912
1, 26751, Pitch_bend_c, 11, 170
1, 26751, Pitch_bend_c, 12, 2890
1, 26752, Note_on_c, 1, 31, 0
1, 26752, Pitch_bend_c, 11, 148
1, 26752, Pitch_bend_c, 12, 2867
1, 26753, Note_on_c, 10, 72, 0
1, 26753, Pitch_bend_c, 11, 125
1, 26753, Control_c, 12, 11, 77
1, 26753, Pitch_bend_c, 12, 2844
1, 26754, Note_on_c, 2, 67, 0
1, 26754, Pitch_bend_c, 11, 102
1, 26754, Pitch_bend_c, 12, 2822
1, 26755, Control_c, 11, 11, 50
1, 26755, Pitch_bend_c, 11, 80
1, 26755, Pitch_bend_c, 12, 2799
1, 26756, Note_on_c, 0, 70, 0
1, 26756, Note_on_c, 7, 55, 0
1, 26756, Note_on_c, 8, 55, 0
1, 26756, Pitch_bend_c, 11, 57
1, 26756, Pitch_bend_c, 12, 2776
1, 26757, Pitch_bend_c, 11, 34
1, 26757, Pitch_bend_c, 12, 2754
1, 26758, Note_on_c, 0, 65, 0
1, 26758, Pitch_bend_c, 11, 12
1, 26758, Control_c, 12, 11, 76
1, 26758, Pitch_bend_c, 12, 2731
1, 26759, Note_on_c, 0, 62, 0
1, 26759, Note_on_c, 2, 63, 0
1, 26759, Note_on_c, 11, 96, 0
1, 26759, Pitch_bend_c, 12, 2709
1, 26760, Note_on_c, 3, 63, 115
1, 26760, Note_on_c, 4, 58, 91
1, 26760, Note_on_c, 4, 67, 103
1, 26760, Note_on_c, 5, 51, 115
1, 26760, Note_on_c, 9, 38, 120
1, 26760, Pitch_bend_c, 12, 2686
1, 26760, Note_on_c, 15, 58, 1
1, 26760, Note_on_c, 15, 67, 1
1, 26760, Lyric_t, "If "
1, 26761, Pitch_bend_c, 12, 2663
1, 26762, Note_on_c, 8, 65, 0
1, 26762, Note_on_c, 7, 65, 0
1, 26762, Control_c, 12, 11, 75
1, 26762, Pitch_bend_c, 12, 2641
1, 26763, Note_on_c, 8, 58, 0
1, 26763, Note_on_c, 7, 58, 0
1, 26763, Pitch_bend_c, 12, 2618
1, 26764, Pitch_bend_c, 12, 2595
1, 26765, Pitch_bend_c, 12, 2573
1, 26766, Pitch_bend_c, 12, 2550
1, 26767, Control_c, 12, 11, 74
1, 26767, Pitch_bend_c, 12, 2527
1, 26768, Pitch_bend_c, 12, 2505
1, 26769, Pitch_bend_c, 12, 2482
1, 26770, Pitch_bend_c, 12, 2459
1, 26771, Control_c, 12, 11, 73
1, 26771, Pitch_bend_c, 12, 2437
1, 26772, Pitch_bend_c, 12, 2414
1, 26773, Pitch_bend_c, 12, 2391
1, 26774, Pitch_bend_c, 12, 2369
1, 26775, Pitch_bend_c, 12, 2346
1, 26776, Control_c, 12, 11, 72
1, 26776, Pitch_bend_c, 12, 2323
1, 26777, Pitch_bend_c, 12, 2301
1, 26778, Pitch_bend_c, 12, 2278
1, 26779, Pitch_bend_c, 12, 2255
1, 26780, Control_c, 12, 11, 71
1, 26780, Pitch_bend_c, 12, 2233
1, 26781, Pitch_bend_c, 12, 2210
1, 26782, Pitch_bend_c, 12, 2187
1, 26783, Pitch_bend_c, 12, 2165
1, 26784, Pitch_bend_c, 12, 2142
1, 26785, Control_c, 12, 11, 70
1, 26785, Pitch_bend_c, 12, 2119
1, 26786, Note_on_c, 9, 38, 0
1, 26786, Pitch_bend_c, 12, 2097
1, 26787, Pitch_bend_c, 12, 2074
1, 26788, Pitch_bend_c, 12, 2051
1, 26789, Note_on_c, 4, 67, 0
1, 26789, Note_on_c, 15, 67, 0
1, 26789, Control_c, 12, 11, 69
1, 26789, Pitch_bend_c, 12, 2029
1, 26790, Note_on_c, 0, 62, 109
1, 26790, Note_on_c, 0, 65, 77
1, 26790, Note_on_c, 0, 70, 60
1, 26790, Pitch_bend_c, 12, 2006
1, 26791, Note_on_c, 0, 70, 0
1, 26791, Note_on_c, 0, 65, 0
1, 26791, Note_on_c, 15, 58, 0
1, 26791, Note_on_c, 4, 58, 0
1, 26791, Note_on_c, 0, 62, 0
1, 26791, Pitch_bend_c, 12, 1983
1, 26792, Pitch_bend_c, 12, 1961
1, 26793, Pitch_bend_c, 12, 1938
1, 26794, Control_c, 12, 11, 68
1, 26794, Pitch_bend_c, 12, 1915
1, 26795, Pitch_bend_c, 12, 1893
1, 26796, Pitch_bend_c, 12, 1870
1, 26797, Pitch_bend_c, 12, 1847
1, 26798, Control_c, 12, 11, 67
1, 26798, Pitch_bend_c, 12, 1825
1, 26799, Pitch_bend_c, 12, 1802
1, 26800, Pitch_bend_c, 12, 1779
1, 26801, Note_on_c, 3, 63, 0
1, 26801, Note_on_c, 5, 51, 0
1, 26801, Pitch_bend_c, 12, 1757
1, 26802, Pitch_bend_c, 12, 1734
1, 26803, Control_c, 12, 11, 66
1, 26803, Pitch_bend_c, 12, 1711
1, 26804, Pitch_bend_c, 12, 1689
1, 26805, Pitch_bend_c, 12, 1666
1, 26806, Pitch_bend_c, 12, 1643
1, 26807, Control_c, 12, 11, 65
1, 26807, Pitch_bend_c, 12, 1621
1, 26808, Pitch_bend_c, 12, 1598
1, 26809, Pitch_bend_c, 12, 1575
1, 26810, Pitch_bend_c, 12, 1553
1, 26811, Pitch_bend_c, 12, 1530
1, 26812, Control_c, 12, 11, 64
1, 26812, Pitch_bend_c, 12, 1507
1, 26813, Pitch_bend_c, 12, 1485
1, 26814, Pitch_bend_c, 12, 1462
1, 26815, Pitch_bend_c, 12, 1439
1, 26816, Control_c, 12, 11, 63
1, 26816, Pitch_bend_c, 12, 1417
1, 26817, Pitch_bend_c, 12, 1394
1, 26818, Pitch_bend_c, 12, 1371
1, 26819, Pitch_bend_c, 12, 1349
1, 26820, Note_on_c, 0, 60, 119
1, 26820, Note_on_c, 0, 63, 91
1, 26820, Note_on_c, 0, 68, 91
1, 26820, Note_on_c, 1, 29, 120
1, 26820, Note_on_c, 2, 60, 105
1, 26820, Note_on_c, 2, 63, 98
1, 26820, Note_on_c, 2, 68, 92
1, 26820, Note_on_c, 3, 60, 116
1, 26820, Note_on_c, 4, 55, 101
1, 26820, Note_on_c, 4, 63, 102
1, 26820, Note_on_c, 5, 48, 116
1, 26820, Note_on_c, 7, 53, 95
1, 26820, Note_on_c, 7, 56, 119
1, 26820, Note_on_c, 7, 63, 109
1, 26820, Note_on_c, 8, 53, 95
1, 26820, Note_on_c, 8, 56, 119
1, 26820, Note_on_c, 8, 63, 109
1, 26820, Note_on_c, 9, 42, 120
1, 26820, Pitch_bend_c, 12, 1326
1, 26820, Note_on_c, 15, 55, 1
1, 26820, Note_on_c, 15, 63, 1
1, 26820, Lyric_t, "you "
1, 26821, Control_c, 12, 11, 62
1, 26821, Pitch_bend_c, 12, 1304
1, 26822, Pitch_bend_c, 12, 1281
1, 26823, Pitch_bend_c, 12, 1258
1, 26824, Pitch_bend_c, 12, 1236
1, 26825, Control_c, 12, 11, 61
1, 26825, Pitch_bend_c, 12, 1213
1, 26826, Pitch_bend_c, 12, 1190
1, 26827, Pitch_bend_c, 12, 1168
1, 26828, Pitch_bend_c, 12, 1145
1, 26829, Pitch_bend_c, 12, 1122
1, 26830, Control_c, 12, 11, 60
1, 26830, Pitch_bend_c, 12, 1100
1, 26831, Pitch_bend_c, 12, 1077
1, 26832, Pitch_bend_c, 12, 1054
1, 26833, Pitch_bend_c, 12, 1032
1, 26834, Control_c, 12, 11, 59
1, 26834, Pitch_bend_c, 12, 1009
1, 26835, Pitch_bend_c, 12, 986
1, 26836, Pitch_bend_c, 12, 964
1, 26837, Pitch_bend_c, 12, 941
1, 26838, Pitch_bend_c, 12, 918
1, 26839, Control_c, 12, 11, 58
1, 26839, Pitch_bend_c, 12, 896
1, 26840, Pitch_bend_c, 12, 873
1, 26841, Pitch_bend_c, 12, 850
1, 26842, Pitch_bend_c, 12, 828
1, 26843, Control_c, 12, 11, 57
1, 26843, Pitch_bend_c, 12, 805
1, 26844, Pitch_bend_c, 12, 782
1, 26845, Note_on_c, 9, 42, 0
1, 26845, Pitch_bend_c, 12, 760
1, 26846, Pitch_bend_c, 12, 737
1, 26847, Note_on_c, 15, 63, 0
1, 26847, Note_on_c, 4, 63, 0
1, 26847, Pitch_bend_c, 12, 714
1, 26848, Control_c, 12, 11, 56
1, 26848, Pitch_bend_c, 12, 692
1, 26849, Pitch_bend_c, 12, 669
1, 26850, Pitch_bend_c, 12, 646
1, 26851, Note_on_c, 4, 55, 0
1, 26851, Note_on_c, 3, 60, 0
1, 26851, Note_on_c, 15, 55, 0
1, 26851, Note_on_c, 5, 48, 0
1, 26851, Pitch_bend_c, 12, 624
1, 26852, Control_c, 12, 11, 55
1, 26852, Pitch_bend_c, 12, 601
1, 26853, Pitch_bend_c, 12, 578
1, 26854, Pitch_bend_c, 12, 556
1, 26855, Pitch_bend_c, 12, 533
1, 26856, Pitch_bend_c, 12, 510
1, 26857, Control_c, 12, 11, 54
1, 26857, Pitch_bend_c, 12, 488
1, 26858, Pitch_bend_c, 12, 465
1, 26859, Pitch_bend_c, 12, 442
1, 26860, Pitch_bend_c, 12, 420
1, 26861, Control_c, 12, 11, 53
1, 26861, Pitch_bend_c, 12, 397
1, 26862, Pitch_bend_c, 12, 374
1, 26863, Pitch_bend_c, 12, 352
1, 26864, Pitch_bend_c, 12, 329
1, 26865, Pitch_bend_c, 12, 306
1, 26866, Control_c, 12, 11, 52
1, 26866, Pitch_bend_c, 12, 284
1, 26867, Pitch_bend_c, 12, 261
1, 26868, Pitch_bend_c, 12, 238
1, 26869, Pitch_bend_c, 12, 216
1, 26870, Control_c, 12, 11, 51
1, 26870, Pitch_bend_c, 12, 193
1, 26871, Pitch_bend_c, 12, 170
1, 26872, Pitch_bend_c, 12, 148
1, 26873, Pitch_bend_c, 12, 125
1, 26874, Pitch_bend_c, 12, 102
1, 26875, Control_c, 12, 11, 50
1, 26875, Pitch_bend_c, 12, 80
1, 26876, Pitch_bend_c, 12, 57
1, 26877, Pitch_bend_c, 12, 34
1, 26878, Pitch_bend_c, 12, 12
1, 26879, Note_on_c, 12, 96, 0
1, 26880, Note_on_c, 3, 68, 120
1, 26880, Note_on_c, 4, 63, 86
1, 26880, Note_on_c, 4, 68, 96
1, 26880, Note_on_c, 4, 72, 109
1, 26880, Note_on_c, 5, 56, 120
1, 26880, Note_on_c, 9, 36, 120
1, 26880, Note_on_c, 15, 72, 1
1, 26880, Note_on_c, 15, 63, 1
1, 26880, Note_on_c, 15, 68, 1
1, 26880, Lyric_t, "let "
1, 26907, Note_on_c, 9, 36, 0
1, 26921, Note_on_c, 1, 29, 0
1, 26940, Note_on_c, 1, 41, 120
1, 26940, Note_on_c, 9, 42, 120
1, 26961, Note_on_c, 4, 72, 0
1, 26961, Note_on_c, 15, 72, 0
1, 26966, Note_on_c, 15, 68, 0
1, 26966, Note_on_c, 4, 68, 0
1, 26966, Note_on_c, 9, 42, 0
1, 26966, Note_on_c, 15, 63, 0
1, 26966, Note_on_c, 4, 63, 0
1, 26972, Note_on_c, 5, 56, 0
1, 26972, Note_on_c, 3, 68, 0
1, 26974, Note_on_c, 1, 41, 0
1, 26994, Note_on_c, 0, 60, 0
1, 26996, Note_on_c, 0, 63, 0
1, 26999, Note_on_c, 8, 63, 0
1, 26999, Note_on_c, 0, 68, 0
1, 26999, Note_on_c, 7, 63, 0
1, 27000, Note_on_c, 8, 53, 0
1, 27000, Note_on_c, 7, 53, 0
1, 27000, Note_on_c, 1, 41, 120
1, 27000, Note_on_c, 3, 67, 113
1, 27000, Note_on_c, 4, 63, 89
1, 27000, Note_on_c, 4, 68, 92
1, 27000, Note_on_c, 4, 72, 105
1, 27000, Note_on_c, 5, 55, 113
1, 27000, Note_on_c, 9, 38, 120
1, 27000, Note_on_c, 15, 68, 1
1, 27000, Note_on_c, 15, 63, 1
1, 27000, Note_on_c, 15, 72, 1
1, 27000, Lyric_t, "me "
1, 27001, Note_on_c, 7, 56, 0
1, 27001, Note_on_c, 8, 56, 0
1, 27031, Note_on_c, 9, 38, 0
1, 27032, Note_on_c, 1, 41, 0
1, 27060, Note_on_c, 0, 60, 98
1, 27060, Note_on_c, 0, 63, 60
1, 27060, Note_on_c, 0, 68, 53
1, 27060, Note_on_c, 9, 42, 120
1, 27061, Note_on_c, 0, 68, 0
1, 27061, Note_on_c, 0, 63, 0
1, 27061, Note_on_c, 0, 60, 0
1, 27082, Note_on_c, 4, 72, 0
1, 27082, Note_on_c, 15, 72, 0
1, 27089, Note_on_c, 4, 68, 0
1, 27089, Note_on_c, 15, 68, 0
1, 27090, Note_on_c, 4, 63, 0
1, 27090, Note_on_c, 15, 63, 0
1, 27090, Note_on_c, 0, 60, 101
1, 27090, Note_on_c, 0, 63, 62
1, 27090, Note_on_c, 0, 68, 70
1, 27091, Note_on_c, 0, 68, 0
1, 27091, Note_on_c, 0, 63, 0
1, 27091, Note_on_c, 0, 60, 0
1, 27093, Note_on_c, 9, 42, 0
1, 27099, Note_on_c, 5, 55, 0
1, 27099, Note_on_c, 3, 67, 0
1, 27119, Control_c, 11, 11, 127
1, 27120, Note_on_c, 0, 60, 118
1, 27120, Note_on_c, 0, 63, 92
1, 27120, Note_on_c, 0, 68, 92
1, 27120, Note_on_c, 1, 29, 120
1, 27120, Note_on_c, 3, 65, 111
1, 27120, Note_on_c, 4, 63, 86
1, 27120, Note_on_c, 4, 68, 92
1, 27120, Note_on_c, 4, 72, 105
1, 27120, Note_on_c, 5, 53, 111
1, 27120, Note_on_c, 7, 53, 101
1, 27120, Note_on_c, 7, 56, 120
1, 27120, Note_on_c, 7, 63, 98
1, 27120, Note_on_c, 8, 53, 101
1, 27120, Note_on_c, 8, 56, 120
1, 27120, Note_on_c, 8, 63, 98
1, 27120, Note_on_c, 9, 36, 120
1, 27120, Note_on_c, 15, 63, 1
1, 27120, Note_on_c, 15, 72, 1
1, 27120, Note_on_c, 15, 68, 1
1, 27120, Lyric_t, "trea"
1, 27147, Note_on_c, 9, 36, 0
1, 27155, Note_on_c, 1, 29, 0
1, 27158, Note_on_c, 0, 60, 0
1, 27161, Note_on_c, 0, 68, 0
1, 27162, Note_on_c, 0, 63, 0
1, 27176, Note_on_c, 8, 63, 0
1, 27176, Note_on_c, 8, 53, 0
1, 27176, Note_on_c, 7, 53, 0
1, 27176, Note_on_c, 7, 63, 0
1, 27177, Note_on_c, 8, 56, 0
1, 27177, Note_on_c, 7, 56, 0
1, 27180, Note_on_c, 0, 60, 97
1, 27180, Note_on_c, 0, 63, 62
1, 27180, Note_on_c, 0, 68, 62
1, 27180, Note_on_c, 9, 42, 120
1, 27181, Note_on_c, 0, 68, 0
1, 27181, Note_on_c, 0, 63, 0
1, 27181, Note_on_c, 0, 60, 0
1, 27194, Note_on_c, 4, 72, 0
1, 27194, Note_on_c, 15, 72, 0
1, 27196, Note_on_c, 4, 68, 0
1, 27196, Note_on_c, 15, 68, 0
1, 27199, Note_on_c, 4, 63, 0
1, 27199, Note_on_c, 15, 63, 0
1, 27209, Note_on_c, 9, 42, 0
1, 27221, Note_on_c, 3, 65, 0
1, 27221, Note_on_c, 5, 53, 0
1, 27239, Control_c, 12, 11, 127
1, 27240, Note_on_c, 0, 60, 116
1, 27240, Note_on_c, 0, 63, 92
1, 27240, Note_on_c, 0, 68, 111
1, 27240, Note_on_c, 1, 29, 116
1, 27240, Note_on_c, 3, 67, 120
1, 27240, Note_on_c, 4, 63, 84
1, 27240, Note_on_c, 4, 68, 92
1, 27240, Note_on_c, 4, 72, 98
1, 27240, Note_on_c, 5, 55, 120
1, 27240, Note_on_c, 7, 53, 113
1, 27240, Note_on_c, 7, 56, 120
1, 27240, Note_on_c, 7, 63, 115
1, 27240, Note_on_c, 8, 53, 113
1, 27240, Note_on_c, 8, 56, 120
1, 27240, Note_on_c, 8, 63, 115
1, 27240, Note_on_c, 9, 38, 120
1, 27240, Note_on_c, 15, 68, 1
1, 27240, Note_on_c, 15, 63, 1
1, 27240, Note_on_c, 15, 72, 1
1, 27240, Lyric_t, "sure "
1, 27243, Note_on_c, 2, 60, 0
1, 27247, Note_on_c, 2, 63, 0
1, 27249, Note_on_c, 2, 68, 0
1, 27268, Note_on_c, 9, 38, 0
1, 27270, Note_on_c, 1, 29, 0
1, 27279, Note_on_c, 0, 60, 0
1, 27280, Note_on_c, 15, 72, 0
1, 27280, Note_on_c, 4, 72, 0
1, 27282, Note_on_c, 0, 68, 0
1, 27282, Note_on_c, 0, 63, 0
1, 27291, Note_on_c, 8, 53, 0
1, 27291, Note_on_c, 7, 53, 0
1, 27292, Note_on_c, 8, 56, 0
1, 27292, Note_on_c, 7, 56, 0
1, 27295, Note_on_c, 8, 63, 0
1, 27295, Note_on_c, 7, 63, 0
1, 27300, Note_on_c, 9, 42, 120
1, 27302, Note_on_c, 4, 63, 0
1, 27302, Note_on_c, 15, 63, 0
1, 27308, Note_on_c, 15, 68, 0
1, 27308, Note_on_c, 4, 68, 0
1, 27324, Note_on_c, 3, 67, 0
1, 27324, Note_on_c, 5, 55, 0
1, 27327, Note_on_c, 9, 42, 0
1, 27360, Note_on_c, 0, 60, 95
1, 27360, Note_on_c, 0, 63, 119
1, 27360, Note_on_c, 0, 70, 120
1, 27360, Note_on_c, 1, 34, 120
1, 27360, Note_on_c, 3, 70, 119
1, 27360, Note_on_c, 4, 63, 81
1, 27360, Note_on_c, 4, 67, 94
1, 27360, Note_on_c, 4, 70, 120
1, 27360, Note_on_c, 5, 58, 119
1, 27360, Note_on_c, 7, 56, 98
1, 27360, Note_on_c, 7, 60, 119
1, 27360, Note_on_c, 7, 67, 116
1, 27360, Note_on_c, 8, 56, 98
1, 27360, Note_on_c, 8, 60, 119
1, 27360, Note_on_c, 8, 67, 116
1, 27360, Note_on_c, 9, 36, 120
1, 27360, Note_on_c, 9, 42, 120
1, 27360, Note_on_c, 9, 57, 81
1, 27360, Note_on_c, 15, 70, 1
1, 27360, Note_on_c, 15, 63, 1
1, 27360, Note_on_c, 15, 67, 1
1, 27360, Lyric_t, "you "
1, 27360, Lyric_t, "\015"
1, 27374, Note_on_c, 9, 36, 0
1, 27379, Note_on_c, 9, 42, 0
1, 27386, Note_on_c, 9, 57, 0
1, 27413, Note_on_c, 15, 70, 0
1, 27413, Note_on_c, 4, 70, 0
1, 27415, Note_on_c, 4, 67, 0
1, 27415, Note_on_c, 15, 67, 0
1, 27419, Note_on_c, 15, 63, 0
1, 27419, Note_on_c, 4, 63, 0
1, 27420, Note_on_c, 9, 36, 120
1, 27420, Note_on_c, 9, 42, 119
1, 27420, Note_on_c, 9, 57, 75
1, 27427, Note_on_c, 5, 58, 0
1, 27427, Note_on_c, 3, 70, 0
1, 27442, Note_on_c, 9, 42, 0
1, 27443, Note_on_c, 9, 36, 0
1, 27444, Note_on_c, 9, 57, 0
1, 27480, Note_on_c, 9, 36, 120
1, 27480, Note_on_c, 9, 42, 119
1, 27480, Note_on_c, 9, 57, 69
1, 27502, Note_on_c, 9, 36, 0
1, 27503, Note_on_c, 9, 42, 0
1, 27504, Note_on_c, 9, 57, 0
1, 27540, Note_on_c, 3, 72, 118
1, 27540, Note_on_c, 4, 63, 81
1, 27540, Note_on_c, 4, 67, 103
1, 27540, Note_on_c, 4, 72, 119
1, 27540, Note_on_c, 5, 60, 118
1, 27540, Note_on_c, 9, 36, 120
1, 27540, Note_on_c, 9, 42, 115
1, 27540, Note_on_c, 9, 57, 70
1, 27540, Note_on_c, 15, 67, 1
1, 27540, Note_on_c, 15, 63, 1
1, 27540, Note_on_c, 15, 72, 1
1, 27540, Lyric_t, "oh "
1, 27561, Note_on_c, 9, 36, 0
1, 27562, Note_on_c, 9, 42, 0
1, 27565, Note_on_c, 9, 57, 0
1, 27591, Note_on_c, 15, 67, 0
1, 27591, Note_on_c, 4, 67, 0
1, 27594, Note_on_c, 15, 72, 0
1, 27594, Note_on_c, 4, 72, 0
1, 27595, Note_on_c, 15, 63, 0
1, 27595, Note_on_c, 4, 63, 0
1, 27600, Note_on_c, 9, 36, 120
1, 27600, Note_on_c, 9, 42, 119
1, 27600, Note_on_c, 9, 57, 62
1, 27604, Note_on_c, 3, 72, 0
1, 27604, Note_on_c, 5, 60, 0
1, 27620, Note_on_c, 9, 36, 0
1, 27621, Note_on_c, 9, 42, 0
1, 27625, Note_on_c, 9, 57, 0
1, 27660, Note_on_c, 9, 36, 120
1, 27660, Note_on_c, 9, 42, 109
1, 27660, Note_on_c, 9, 57, 71
1, 27681, Note_on_c, 9, 36, 0
1, 27682, Note_on_c, 9, 42, 0
1, 27684, Note_on_c, 9, 57, 0
1, 27720, Note_on_c, 3, 75, 115
1, 27720, Note_on_c, 4, 67, 120
1, 27720, Note_on_c, 4, 70, 120
1, 27720, Note_on_c, 4, 77, 120
1, 27720, Note_on_c, 5, 63, 115
1, 27720, Note_on_c, 9, 36, 120
1, 27720, Note_on_c, 9, 42, 104
1, 27720, Note_on_c, 9, 57, 62
1, 27720, Note_on_c, 15, 67, 1
1, 27720, Note_on_c, 15, 77, 1
1, 27720, Note_on_c, 15, 70, 1
1, 27720, Lyric_t, "oh "
1, 27720, Lyric_t, "\015"
1, 27739, Note_on_c, 9, 36, 0
1, 27742, Note_on_c, 9, 57, 0
1, 27742, Note_on_c, 9, 42, 0
1, 27743, Note_on_c, 15, 67, 0
1, 27743, Note_on_c, 4, 67, 0
1, 27744, Note_on_c, 15, 70, 0
1, 27744, Note_on_c, 4, 70, 0
1, 27745, Note_on_c, 15, 77, 0
1, 27745, Note_on_c, 4, 77, 0
1, 27750, Note_on_c, 4, 70, 120
1, 27750, Note_on_c, 4, 75, 81
1, 27750, Note_on_c, 4, 79, 116
1, 27750, Note_on_c, 15, 75, 1
1, 27750, Note_on_c, 15, 70, 1
1, 27750, Note_on_c, 15, 79, 1
1, 27780, Note_on_c, 9, 36, 120
1, 27780, Note_on_c, 9, 42, 111
1, 27780, Note_on_c, 9, 57, 80
1, 27792, Note_on_c, 1, 34, 0
1, 27793, Note_on_c, 0, 63, 0
1, 27794, Note_on_c, 0, 70, 0
1, 27797, Note_on_c, 0, 60, 0
1, 27799, Note_on_c, 9, 36, 0
1, 27800, Note_on_c, 9, 42, 0
1, 27801, Note_on_c, 9, 57, 0
1, 27827, Note_on_c, 7, 60, 0
1, 27827, Note_on_c, 8, 60, 0
1, 27828, Note_on_c, 8, 67, 0
1, 27828, Note_on_c, 7, 67, 0
1, 27831, Note_on_c, 7, 56, 0
1, 27831, Note_on_c, 8, 56, 0
1, 27840, Note_on_c, 0, 60, 91
1, 27840, Note_on_c, 0, 63, 119
1, 27840, Note_on_c, 0, 70, 100
1, 27840, Note_on_c, 1, 46, 120
1, 27840, Note_on_c, 7, 56, 98
1, 27840, Note_on_c, 7, 60, 119
1, 27840, Note_on_c, 7, 67, 116
1, 27840, Note_on_c, 8, 56, 98
1, 27840, Note_on_c, 8, 60, 119
1, 27840, Note_on_c, 8, 67, 116
1, 27840, Note_on_c, 9, 38, 120
1, 27853, Note_on_c, 1, 46, 0
1, 27854, Note_on_c, 0, 63, 0
1, 27854, Note_on_c, 0, 70, 0
1, 27856, Note_on_c, 0, 60, 0
1, 27862, Note_on_c, 9, 38, 0
1, 27870, Note_on_c, 0, 60, 94
1, 27870, Note_on_c, 0, 63, 92
1, 27870, Note_on_c, 0, 70, 94
1, 27870, Note_on_c, 1, 46, 109
1, 27870, Note_on_c, 9, 38, 116
1, 27894, Note_on_c, 9, 38, 0
1, 27895, Note_on_c, 1, 46, 0
1, 27901, Note_on_c, 0, 63, 0
1, 27901, Note_on_c, 0, 60, 0
1, 27902, Note_on_c, 0, 70, 0
1, 27930, Note_on_c, 0, 60, 94
1, 27930, Note_on_c, 0, 63, 104
1, 27930, Note_on_c, 0, 70, 89
1, 27930, Note_on_c, 1, 46, 120
1, 27930, Note_on_c, 9, 38, 120
1, 27942, Note_on_c, 1, 46, 0
1, 27948, Note_on_c, 0, 70, 0
1, 27949, Note_on_c, 0, 63, 0
1, 27949, Note_on_c, 0, 60, 0
1, 27950, Note_on_c, 9, 38, 0
1, 27960, Note_on_c, 0, 60, 95
1, 27960, Note_on_c, 0, 63, 106
1, 27960, Note_on_c, 0, 70, 100
1, 27960, Note_on_c, 1, 46, 115
1, 27960, Note_on_c, 9, 38, 113
1, 27983, Note_on_c, 9, 38, 0
1, 27990, Note_on_c, 1, 46, 0
1, 27994, Note_on_c, 0, 63, 0
1, 27995, Note_on_c, 0, 60, 0
1, 27997, Note_on_c, 0, 70, 0
1, 28020, Note_on_c, 0, 60, 80
1, 28020, Note_on_c, 0, 63, 94
1, 28020, Note_on_c, 0, 70, 86
1, 28020, Note_on_c, 1, 46, 120
1, 28020, Note_on_c, 9, 38, 120
1, 28034, Note_on_c, 1, 46, 0
1, 28035, Note_on_c, 0, 63, 0
1, 28036, Note_on_c, 0, 70, 0
1, 28036, Note_on_c, 0, 60, 0
1, 28041, Note_on_c, 9, 38, 0
1, 28050, Note_on_c, 0, 60, 107
1, 28050, Note_on_c, 0, 63, 111
1, 28050, Note_on_c, 0, 70, 96
1, 28050, Note_on_c, 1, 46, 119
1, 28050, Note_on_c, 9, 38, 116
1, 28074, Note_on_c, 9, 38, 0
1, 28081, Note_on_c, 1, 46, 0
1, 28082, Note_on_c, 0, 63, 0
1, 28083, Note_on_c, 0, 60, 0
1, 28086, Note_on_c, 0, 70, 0
1, 28110, Note_on_c, 0, 60, 98
1, 28110, Note_on_c, 0, 63, 111
1, 28110, Note_on_c, 0, 70, 89
1, 28110, Note_on_c, 1, 46, 120
1, 28110, Note_on_c, 9, 38, 120
1, 28126, Note_on_c, 1, 46, 0
1, 28129, Note_on_c, 0, 70, 0
1, 28129, Note_on_c, 0, 63, 0
1, 28129, Note_on_c, 0, 60, 0
1, 28131, Note_on_c, 9, 38, 0
1, 28140, Note_on_c, 0, 60, 113
1, 28140, Note_on_c, 0, 63, 111
1, 28140, Note_on_c, 0, 70, 104
1, 28140, Note_on_c, 1, 46, 119
1, 28140, Note_on_c, 9, 38, 116
1, 28170, Note_on_c, 9, 38, 0
1, 28180, Note_on_c, 1, 46, 0
1, 28182, Note_on_c, 0, 63, 0
1, 28184, Note_on_c, 0, 60, 0
1, 28184, Note_on_c, 0, 70, 0
1, 28194, Note_on_c, 8, 60, 0
1, 28194, Note_on_c, 7, 60, 0
1, 28195, Note_on_c, 8, 67, 0
1, 28195, Note_on_c, 7, 67, 0
1, 28198, Note_on_c, 8, 56, 0
1, 28198, Note_on_c, 7, 56, 0
1, 28200, Note_on_c, 9, 38, 119
1, 28200, Note_on_c, 9, 39, 91
1, 28200, Note_on_c, 9, 40, 120
1, 28208, Note_on_c, 3, 75, 0
1, 28208, Note_on_c, 5, 63, 0
1, 28212, Note_on_c, 4, 70, 0
1, 28212, Note_on_c, 15, 70, 0
1, 28220, Note_on_c, 15, 75, 0
1, 28220, Note_on_c, 4, 75, 0
1, 28224, Note_on_c, 4, 79, 0
1, 28224, Note_on_c, 15, 79, 0
1, 28247, Note_on_c, 9, 38, 0
1, 28251, Note_on_c, 9, 40, 0
1, 28257, Note_on_c, 9, 39, 0
1, 28320, Note_on_c, 0, 60, 105
1, 28320, Note_on_c, 0, 63, 98
1, 28320, Note_on_c, 0, 67, 118
1, 28320, Note_on_c, 6, 82, 120
1, 28320, Note_on_c, 7, 56, 92
1, 28320, Note_on_c, 7, 60, 120
1, 28320, Note_on_c, 7, 67, 113
1, 28320, Note_on_c, 7, 82, 92
1, 28320, Note_on_c, 11, 96, 120
1, 28320, Pitch_bend_c, 11, 8125
1, 28321, Pitch_bend_c, 11, 8102
1, 28322, Pitch_bend_c, 11, 8079
1, 28323, Pitch_bend_c, 11, 8057
1, 28324, Pitch_bend_c, 11, 8034
1, 28325, Pitch_bend_c, 11, 8011
1, 28326, Pitch_bend_c, 11, 7989
1, 28327, Pitch_bend_c, 11, 7966
1, 28328, Control_c, 11, 11, 126
1, 28328, Pitch_bend_c, 11, 7943
1, 28329, Pitch_bend_c, 11, 7921
1, 28330, Pitch_bend_c, 11, 7898
1, 28331, Pitch_bend_c, 11, 7875
1, 28332, Pitch_bend_c, 11, 7853
1, 28333, Control_c, 11, 11, 125
1, 28333, Pitch_bend_c, 11, 7830
1, 28334, Pitch_bend_c, 11, 7807
1, 28335, Pitch_bend_c, 11, 7785
1, 28336, Pitch_bend_c, 11, 7762
1, 28337, Control_c, 11, 11, 124
1, 28337, Pitch_bend_c, 11, 7739
1, 28338, Pitch_bend_c, 11, 7717
1, 28339, Pitch_bend_c, 11, 7694
1, 28340, Pitch_bend_c, 11, 7671
1, 28341, Pitch_bend_c, 11, 7649
1, 28342, Control_c, 11, 11, 123
1, 28342, Pitch_bend_c, 11, 7626
1, 28343, Pitch_bend_c, 11, 7603
1, 28344, Pitch_bend_c, 11, 7581
1, 28345, Pitch_bend_c, 11, 7558
1, 28346, Control_c, 11, 11, 122
1, 28346, Pitch_bend_c, 11, 7535
1, 28347, Pitch_bend_c, 11, 7513
1, 28348, Pitch_bend_c, 11, 7490
1, 28349, Pitch_bend_c, 11, 7467
1, 28350, Pitch_bend_c, 11, 7445
1, 28351, Control_c, 11, 11, 121
1, 28351, Pitch_bend_c, 11, 7422
1, 28352, Pitch_bend_c, 11, 7399
1, 28353, Pitch_bend_c, 11, 7377
1, 28354, Pitch_bend_c, 11, 7354
1, 28355, Control_c, 11, 11, 120
1, 28355, Pitch_bend_c, 11, 7331
1, 28356, Pitch_bend_c, 11, 7309
1, 28357, Pitch_bend_c, 11, 7286
1, 28358, Pitch_bend_c, 11, 7263
1, 28359, Pitch_bend_c, 11, 7241
1, 28360, Control_c, 11, 11, 119
1, 28360, Pitch_bend_c, 11, 7218
1, 28361, Pitch_bend_c, 11, 7195
1, 28362, Pitch_bend_c, 11, 7173
1, 28363, Pitch_bend_c, 11, 7150
1, 28364, Control_c, 11, 11, 118
1, 28364, Pitch_bend_c, 11, 7127
1, 28365, Pitch_bend_c, 11, 7105
1, 28366, Pitch_bend_c, 11, 7082
1, 28367, Pitch_bend_c, 11, 7059
1, 28368, Pitch_bend_c, 11, 7037
1, 28369, Control_c, 11, 11, 117
1, 28369, Pitch_bend_c, 11, 7014
1, 28370, Pitch_bend_c, 11, 6991
1, 28371, Pitch_bend_c, 11, 6969
1, 28372, Pitch_bend_c, 11, 6946
1, 28373, Control_c, 11, 11, 116
1, 28373, Pitch_bend_c, 11, 6923
1, 28374, Pitch_bend_c, 11, 6901
1, 28375, Pitch_bend_c, 11, 6878
1, 28376, Pitch_bend_c, 11, 6855
1, 28377, Pitch_bend_c, 11, 6833
1, 28378, Control_c, 11, 11, 115
1, 28378, Pitch_bend_c, 11, 6810
1, 28379, Pitch_bend_c, 11, 6788
1, 28380, Note_on_c, 3, 67, 105
1, 28380, Note_on_c, 4, 63, 78
1, 28380, Note_on_c, 4, 67, 118
1, 28380, Note_on_c, 5, 55, 116
1, 28380, Pitch_bend_c, 11, 6765
1, 28380, Note_on_c, 15, 63, 1
1, 28380, Note_on_c, 15, 67, 1
1, 28380, Lyric_t, "You "
1, 28381, Pitch_bend_c, 11, 6742
1, 28382, Control_c, 11, 11, 114
1, 28382, Pitch_bend_c, 11, 6720
1, 28383, Pitch_bend_c, 11, 6697
1, 28384, Pitch_bend_c, 11, 6674
1, 28385, Pitch_bend_c, 11, 6652
1, 28386, Pitch_bend_c, 11, 6629
1, 28387, Control_c, 11, 11, 113
1, 28387, Pitch_bend_c, 11, 6606
1, 28388, Pitch_bend_c, 11, 6584
1, 28389, Pitch_bend_c, 11, 6561
1, 28390, Pitch_bend_c, 11, 6538
1, 28391, Control_c, 11, 11, 112
1, 28391, Pitch_bend_c, 11, 6516
1, 28392, Pitch_bend_c, 11, 6493
1, 28393, Pitch_bend_c, 11, 6470
1, 28394, Pitch_bend_c, 11, 6448
1, 28395, Pitch_bend_c, 11, 6425
1, 28396, Control_c, 11, 11, 111
1, 28396, Pitch_bend_c, 11, 6402
1, 28397, Pitch_bend_c, 11, 6380
1, 28398, Pitch_bend_c, 11, 6357
1, 28399, Pitch_bend_c, 11, 6334
1, 28400, Control_c, 11, 11, 110
1, 28400, Pitch_bend_c, 11, 6312
1, 28401, Pitch_bend_c, 11, 6289
1, 28402, Pitch_bend_c, 11, 6266
1, 28403, Pitch_bend_c, 11, 6244
1, 28404, Pitch_bend_c, 11, 6221
1, 28405, Control_c, 11, 11, 109
1, 28405, Pitch_bend_c, 11, 6198
1, 28406, Pitch_bend_c, 11, 6176
1, 28407, Pitch_bend_c, 11, 6153
1, 28408, Pitch_bend_c, 11, 6130
1, 28409, Control_c, 11, 11, 108
1, 28409, Pitch_bend_c, 11, 6108
1, 28410, Pitch_bend_c, 11, 6085
1, 28411, Pitch_bend_c, 11, 6062
1, 28412, Pitch_bend_c, 11, 6040
1, 28413, Pitch_bend_c, 11, 6017
1, 28414, Control_c, 11, 11, 107
1, 28414, Pitch_bend_c, 11, 5994
1, 28415, Pitch_bend_c, 11, 5972
1, 28416, Pitch_bend_c, 11, 5949
1, 28417, Pitch_bend_c, 11, 5926
1, 28418, Control_c, 11, 11, 106
1, 28418, Pitch_bend_c, 11, 5904
1, 28419, Pitch_bend_c, 11, 5881
1, 28420, Pitch_bend_c, 11, 5858
1, 28421, Pitch_bend_c, 11, 5836
1, 28422, Pitch_bend_c, 11, 5813
1, 28423, Control_c, 11, 11, 105
1, 28423, Pitch_bend_c, 11, 5790
1, 28424, Pitch_bend_c, 11, 5768
1, 28425, Pitch_bend_c, 11, 5745
1, 28426, Pitch_bend_c, 11, 5722
1, 28427, Note_on_c, 3, 67, 0
1, 28427, Control_c, 11, 11, 104
1, 28427, Pitch_bend_c, 11, 5700
1, 28428, Pitch_bend_c, 11, 5677
1, 28429, Note_on_c, 5, 55, 0
1, 28429, Pitch_bend_c, 11, 5654
1, 28430, Note_on_c, 0, 67, 0
1, 28430, Pitch_bend_c, 11, 5632
1, 28431, Note_on_c, 4, 67, 0
1, 28431, Note_on_c, 15, 67, 0
1, 28431, Pitch_bend_c, 11, 5609
1, 28432, Note_on_c, 4, 63, 0
1, 28432, Note_on_c, 7, 82, 0
1, 28432, Note_on_c, 15, 63, 0
1, 28432, Control_c, 11, 11, 103
1, 28432, Pitch_bend_c, 11, 5586
1, 28433, Pitch_bend_c, 11, 5564
1, 28434, Note_on_c, 7, 67, 0
1, 28434, Pitch_bend_c, 11, 5541
1, 28435, Note_on_c, 7, 56, 0
1, 28435, Pitch_bend_c, 11, 5518
1, 28436, Note_on_c, 7, 60, 0
1, 28436, Note_on_c, 0, 63, 0
1, 28436, Control_c, 11, 11, 102
1, 28436, Pitch_bend_c, 11, 5496
1, 28437, Pitch_bend_c, 11, 5473
1, 28438, Note_on_c, 0, 60, 0
1, 28438, Pitch_bend_c, 11, 5451
1, 28439, Pitch_bend_c, 11, 5428
1, 28440, Note_on_c, 3, 60, 116
1, 28440, Note_on_c, 4, 63, 80
1, 28440, Note_on_c, 4, 67, 116
1, 28440, Note_on_c, 5, 55, 113
1, 28440, Note_on_c, 6, 79, 109
1, 28440, Note_on_c, 7, 79, 98
1, 28440, Note_on_c, 9, 39, 120
1, 28440, Pitch_bend_c, 11, 5405
1, 28440, Note_on_c, 12, 96, 120
1, 28440, Pitch_bend_c, 12, 8125
1, 28440, Note_on_c, 15, 63, 1
1, 28440, Note_on_c, 15, 67, 1
1, 28440, Lyric_t, "are "
1, 28441, Control_c, 11, 11, 101
1, 28441, Pitch_bend_c, 11, 5383
1, 28441, Pitch_bend_c, 12, 8102
1, 28442, Pitch_bend_c, 11, 5360
1, 28442, Pitch_bend_c, 12, 8079
1, 28443, Pitch_bend_c, 11, 5337
1, 28443, Pitch_bend_c, 12, 8057
1, 28444, Pitch_bend_c, 11, 5315
1, 28444, Pitch_bend_c, 12, 8034
1, 28445, Control_c, 11, 11, 100
1, 28445, Pitch_bend_c, 11, 5292
1, 28445, Pitch_bend_c, 12, 8011
1, 28446, Pitch_bend_c, 11, 5269
1, 28446, Pitch_bend_c, 12, 7989
1, 28447, Pitch_bend_c, 11, 5247
1, 28447, Pitch_bend_c, 12, 7966
1, 28448, Pitch_bend_c, 11, 5224
1, 28448, Control_c, 12, 11, 126
1, 28448, Pitch_bend_c, 12, 7943
1, 28449, Pitch_bend_c, 11, 5201
1, 28449, Pitch_bend_c, 12, 7921
1, 28450, Note_on_c, 6, 82, 0
1, 28450, Control_c, 11, 11, 99
1, 28450, Pitch_bend_c, 11, 5179
1, 28450, Pitch_bend_c, 12, 7898
1, 28451, Pitch_bend_c, 11, 5156
1, 28451, Pitch_bend_c, 12, 7875
1, 28452, Pitch_bend_c, 11, 5133
1, 28452, Pitch_bend_c, 12, 7853
1, 28453, Pitch_bend_c, 11, 5111
1, 28453, Control_c, 12, 11, 125
1, 28453, Pitch_bend_c, 12, 7830
1, 28454, Control_c, 11, 11, 98
1, 28454, Pitch_bend_c, 11, 5088
1, 28454, Pitch_bend_c, 12, 7807
1, 28455, Pitch_bend_c, 11, 5065
1, 28455, Pitch_bend_c, 12, 7785
1, 28456, Pitch_bend_c, 11, 5043
1, 28456, Pitch_bend_c, 12, 7762
1, 28457, Pitch_bend_c, 11, 5020
1, 28457, Control_c, 12, 11, 124
1, 28457, Pitch_bend_c, 12, 7739
1, 28458, Pitch_bend_c, 11, 4997
1, 28458, Pitch_bend_c, 12, 7717
1, 28459, Note_on_c, 3, 60, 0
1, 28459, Control_c, 11, 11, 97
1, 28459, Pitch_bend_c, 11, 4975
1, 28459, Pitch_bend_c, 12, 7694
1, 28460, Pitch_bend_c, 11, 4952
1, 28460, Pitch_bend_c, 12, 7671
1, 28461, Note_on_c, 4, 67, 0
1, 28461, Note_on_c, 5, 55, 0
1, 28461, Note_on_c, 15, 67, 0
1, 28461, Pitch_bend_c, 11, 4929
1, 28461, Pitch_bend_c, 12, 7649
1, 28462, Pitch_bend_c, 11, 4907
1, 28462, Control_c, 12, 11, 123
1, 28462, Pitch_bend_c, 12, 7626
1, 28463, Control_c, 11, 11, 96
1, 28463, Pitch_bend_c, 11, 4884
1, 28463, Pitch_bend_c, 12, 7603
1, 28464, Pitch_bend_c, 11, 4861
1, 28464, Pitch_bend_c, 12, 7581
1, 28465, Pitch_bend_c, 11, 4839
1, 28465, Pitch_bend_c, 12, 7558
1, 28466, Note_on_c, 4, 63, 0
1, 28466, Note_on_c, 9, 39, 0
1, 28466, Note_on_c, 15, 63, 0
1, 28466, Pitch_bend_c, 11, 4816
1, 28466, Control_c, 12, 11, 122
1, 28466, Pitch_bend_c, 12, 7535
1, 28467, Pitch_bend_c, 11, 4793
1, 28467, Pitch_bend_c, 12, 7513
1, 28468, Control_c, 11, 11, 95
1, 28468, Pitch_bend_c, 11, 4771
1, 28468, Pitch_bend_c, 12, 7490
1, 28469, Pitch_bend_c, 11, 4748
1, 28469, Pitch_bend_c, 12, 7467
1, 28470, Note_on_c, 0, 60, 83
1, 28470, Note_on_c, 0, 63, 73
1, 28470, Note_on_c, 0, 67, 82
1, 28470, Pitch_bend_c, 11, 4725
1, 28470, Pitch_bend_c, 12, 7445
1, 28471, Note_on_c, 0, 67, 0
1, 28471, Note_on_c, 0, 60, 0
1, 28471, Note_on_c, 0, 63, 0
1, 28471, Pitch_bend_c, 11, 4703
1, 28471, Control_c, 12, 11, 121
1, 28471, Pitch_bend_c, 12, 7422
1, 28472, Control_c, 11, 11, 94
1, 28472, Pitch_bend_c, 11, 4680
1, 28472, Pitch_bend_c, 12, 7399
1, 28473, Pitch_bend_c, 11, 4657
1, 28473, Pitch_bend_c, 12, 7377
1, 28474, Pitch_bend_c, 11, 4635
1, 28474, Pitch_bend_c, 12, 7354
1, 28475, Pitch_bend_c, 11, 4612
1, 28475, Control_c, 12, 11, 120
1, 28475, Pitch_bend_c, 12, 7331
1, 28476, Pitch_bend_c, 11, 4589
1, 28476, Pitch_bend_c, 12, 7309
1, 28477, Control_c, 11, 11, 93
1, 28477, Pitch_bend_c, 11, 4567
1, 28477, Pitch_bend_c, 12, 7286
1, 28478, Pitch_bend_c, 11, 4544
1, 28478, Pitch_bend_c, 12, 7263
1, 28479, Pitch_bend_c, 11, 4521
1, 28479, Pitch_bend_c, 12, 7241
1, 28480, Pitch_bend_c, 11, 4499
1, 28480, Control_c, 12, 11, 119
1, 28480, Pitch_bend_c, 12, 7218
1, 28481, Control_c, 11, 11, 92
1, 28481, Pitch_bend_c, 11, 4476
1, 28481, Pitch_bend_c, 12, 7195
1, 28482, Pitch_bend_c, 11, 4453
1, 28482, Pitch_bend_c, 12, 7173
1, 28483, Pitch_bend_c, 11, 4431
1, 28483, Pitch_bend_c, 12, 7150
1, 28484, Pitch_bend_c, 11, 4408
1, 28484, Control_c, 12, 11, 118
1, 28484, Pitch_bend_c, 12, 7127
1, 28485, Pitch_bend_c, 11, 4385
1, 28485, Pitch_bend_c, 12, 7105
1, 28486, Control_c, 11, 11, 91
1, 28486, Pitch_bend_c, 11, 4363
1, 28486, Pitch_bend_c, 12, 7082
1, 28487, Pitch_bend_c, 11, 4340
1, 28487, Pitch_bend_c, 12, 7059
1, 28488, Pitch_bend_c, 11, 4317
1, 28488, Pitch_bend_c, 12, 7037
1, 28489, Pitch_bend_c, 11, 4295
1, 28489, Control_c, 12, 11, 117
1, 28489, Pitch_bend_c, 12, 7014
1, 28490, Control_c, 11, 11, 90
1, 28490, Pitch_bend_c, 11, 4272
1, 28490, Pitch_bend_c, 12, 6991
1, 28491, Pitch_bend_c, 11, 4249
1, 28491, Pitch_bend_c, 12, 6969
1, 28492, Pitch_bend_c, 11, 4227
1, 28492, Pitch_bend_c, 12, 6946
1, 28493, Pitch_bend_c, 11, 4204
1, 28493, Control_c, 12, 11, 116
1, 28493, Pitch_bend_c, 12, 6923
1, 28494, Pitch_bend_c, 11, 4181
1, 28494, Pitch_bend_c, 12, 6901
1, 28495, Control_c, 11, 11, 89
1, 28495, Pitch_bend_c, 11, 4159
1, 28495, Pitch_bend_c, 12, 6878
1, 28496, Pitch_bend_c, 11, 4136
1, 28496, Pitch_bend_c, 12, 6855
1, 28497, Pitch_bend_c, 11, 4113
1, 28497, Pitch_bend_c, 12, 6833
1, 28498, Pitch_bend_c, 11, 4091
1, 28498, Control_c, 12, 11, 115
1, 28498, Pitch_bend_c, 12, 6810
1, 28499, Control_c, 11, 11, 88
1, 28499, Pitch_bend_c, 11, 4068
1, 28499, Pitch_bend_c, 12, 6788
1, 28500, Note_on_c, 0, 60, 98
1, 28500, Note_on_c, 0, 63, 80
1, 28500, Note_on_c, 0, 67, 91
1, 28500, Note_on_c, 3, 60, 116
1, 28500, Note_on_c, 4, 63, 84
1, 28500, Note_on_c, 4, 67, 116
1, 28500, Note_on_c, 5, 55, 116
1, 28500, Pitch_bend_c, 11, 4046
1, 28500, Pitch_bend_c, 12, 6765
1, 28500, Note_on_c, 15, 63, 1
1, 28500, Note_on_c, 15, 67, 1
1, 28500, Lyric_t, "my "
1, 28501, Note_on_c, 0, 67, 0
1, 28501, Note_on_c, 0, 63, 0
1, 28501, Note_on_c, 0, 60, 0
1, 28501, Pitch_bend_c, 11, 4023
1, 28501, Pitch_bend_c, 12, 6742
1, 28502, Pitch_bend_c, 11, 4000
1, 28502, Control_c, 12, 11, 114
1, 28502, Pitch_bend_c, 12, 6720
1, 28503, Pitch_bend_c, 11, 3978
1, 28503, Pitch_bend_c, 12, 6697
1, 28504, Control_c, 11, 11, 87
1, 28504, Pitch_bend_c, 11, 3955
1, 28504, Pitch_bend_c, 12, 6674
1, 28505, Pitch_bend_c, 11, 3932
1, 28505, Pitch_bend_c, 12, 6652
1, 28506, Pitch_bend_c, 11, 3910
1, 28506, Pitch_bend_c, 12, 6629
1, 28507, Pitch_bend_c, 11, 3887
1, 28507, Control_c, 12, 11, 113
1, 28507, Pitch_bend_c, 12, 6606
1, 28508, Control_c, 11, 11, 86
1, 28508, Pitch_bend_c, 11, 3864
1, 28508, Pitch_bend_c, 12, 6584
1, 28509, Pitch_bend_c, 11, 3842
1, 28509, Pitch_bend_c, 12, 6561
1, 28510, Pitch_bend_c, 11, 3819
1, 28510, Pitch_bend_c, 12, 6538
1, 28511, Pitch_bend_c, 11, 3796
1, 28511, Control_c, 12, 11, 112
1, 28511, Pitch_bend_c, 12, 6516
1, 28512, Pitch_bend_c, 11, 3774
1, 28512, Pitch_bend_c, 12, 6493
1, 28513, Pitch_bend_c, 11, 3751
1, 28513, Pitch_bend_c, 12, 6470
1, 28514, Pitch_bend_c, 11, 3728
1, 28514, Pitch_bend_c, 12, 6448
1, 28515, Pitch_bend_c, 11, 3706
1, 28515, Pitch_bend_c, 12, 6425
1, 28516, Note_on_c, 3, 60, 0
1, 28516, Pitch_bend_c, 11, 3683
1, 28516, Control_c, 12, 11, 111
1, 28516, Pitch_bend_c, 12, 6402
1, 28517, Control_c, 11, 11, 85
1, 28517, Pitch_bend_c, 11, 3660
1, 28517, Pitch_bend_c, 12, 6380
1, 28518, Pitch_bend_c, 11, 3638
1, 28518, Pitch_bend_c, 12, 6357
1, 28519, Pitch_bend_c, 11, 3615
1, 28519, Pitch_bend_c, 12, 6334
1, 28520, Note_on_c, 5, 55, 0
1, 28520, Pitch_bend_c, 11, 3592
1, 28520, Control_c, 12, 11, 110
1, 28520, Pitch_bend_c, 12, 6312
1, 28521, Pitch_bend_c, 11, 3570
1, 28521, Pitch_bend_c, 12, 6289
1, 28522, Note_on_c, 4, 67, 0
1, 28522, Note_on_c, 15, 67, 0
1, 28522, Control_c, 11, 11, 84
1, 28522, Pitch_bend_c, 11, 3547
1, 28522, Pitch_bend_c, 12, 6266
1, 28523, Pitch_bend_c, 11, 3524
1, 28523, Pitch_bend_c, 12, 6244
1, 28524, Pitch_bend_c, 11, 3502
1, 28524, Pitch_bend_c, 12, 6221
1, 28525, Pitch_bend_c, 11, 3479
1, 28525, Control_c, 12, 11, 109
1, 28525, Pitch_bend_c, 12, 6198
1, 28526, Control_c, 11, 11, 83
1, 28526, Pitch_bend_c, 11, 3456
1, 28526, Pitch_bend_c, 12, 6176
1, 28527, Pitch_bend_c, 11, 3434
1, 28527, Pitch_bend_c, 12, 6153
1, 28528, Pitch_bend_c, 11, 3411
1, 28528, Pitch_bend_c, 12, 6130
1, 28529, Pitch_bend_c, 11, 3388
1, 28529, Control_c, 12, 11, 108
1, 28529, Pitch_bend_c, 12, 6108
1, 28530, Note_on_c, 0, 60, 98
1, 28530, Note_on_c, 0, 63, 77
1, 28530, Note_on_c, 0, 67, 90
1, 28530, Pitch_bend_c, 11, 3366
1, 28530, Pitch_bend_c, 12, 6085
1, 28531, Note_on_c, 0, 67, 0
1, 28531, Note_on_c, 0, 63, 0
1, 28531, Note_on_c, 0, 60, 0
1, 28531, Control_c, 11, 11, 82
1, 28531, Pitch_bend_c, 11, 3343
1, 28531, Pitch_bend_c, 12, 6062
1, 28532, Pitch_bend_c, 11, 3320
1, 28532, Pitch_bend_c, 12, 6040
1, 28533, Note_on_c, 15, 63, 0
1, 28533, Note_on_c, 4, 63, 0
1, 28533, Pitch_bend_c, 11, 3298
1, 28533, Pitch_bend_c, 12, 6017
1, 28534, Pitch_bend_c, 11, 3275
1, 28534, Control_c, 12, 11, 107
1, 28534, Pitch_bend_c, 12, 5994
1, 28535, Control_c, 11, 11, 81
1, 28535, Pitch_bend_c, 11, 3252
1, 28535, Pitch_bend_c, 12, 5972
1, 28536, Pitch_bend_c, 11, 3230
1, 28536, Pitch_bend_c, 12, 5949
1, 28537, Pitch_bend_c, 11, 3207
1, 28537, Pitch_bend_c, 12, 5926
1, 28538, Pitch_bend_c, 11, 3184
1, 28538, Control_c, 12, 11, 106
1, 28538, Pitch_bend_c, 12, 5904
1, 28539, Pitch_bend_c, 11, 3162
1, 28539, Pitch_bend_c, 12, 5881
1, 28540, Control_c, 11, 11, 80
1, 28540, Pitch_bend_c, 11, 3139
1, 28540, Pitch_bend_c, 12, 5858
1, 28541, Pitch_bend_c, 11, 3116
1, 28541, Pitch_bend_c, 12, 5836
1, 28542, Pitch_bend_c, 11, 3094
1, 28542, Pitch_bend_c, 12, 5813
1, 28543, Pitch_bend_c, 11, 3071
1, 28543, Control_c, 12, 11, 105
1, 28543, Pitch_bend_c, 12, 5790
1, 28544, Control_c, 11, 11, 79
1, 28544, Pitch_bend_c, 11, 3048
1, 28544, Pitch_bend_c, 12, 5768
1, 28545, Pitch_bend_c, 11, 3026
1, 28545, Pitch_bend_c, 12, 5745
1, 28546, Pitch_bend_c, 11, 3003
1, 28546, Pitch_bend_c, 12, 5722
1, 28547, Pitch_bend_c, 11, 2980
1, 28547, Control_c, 12, 11, 104
1, 28547, Pitch_bend_c, 12, 5700
1, 28548, Pitch_bend_c, 11, 2958
1, 28548, Pitch_bend_c, 12, 5677
1, 28549, Control_c, 11, 11, 78
1, 28549, Pitch_bend_c, 11, 2935
1, 28549, Pitch_bend_c, 12, 5654
1, 28550, Pitch_bend_c, 11, 2912
1, 28550, Pitch_bend_c, 12, 5632
1, 28551, Pitch_bend_c, 11, 2890
1, 28551, Pitch_bend_c, 12, 5609
1, 28552, Pitch_bend_c, 11, 2867
1, 28552, Control_c, 12, 11, 103
1, 28552, Pitch_bend_c, 12, 5586
1, 28553, Control_c, 11, 11, 77
1, 28553, Pitch_bend_c, 11, 2844
1, 28553, Pitch_bend_c, 12, 5564
1, 28554, Pitch_bend_c, 11, 2822
1, 28554, Pitch_bend_c, 12, 5541
1, 28555, Pitch_bend_c, 11, 2799
1, 28555, Pitch_bend_c, 12, 5518
1, 28556, Pitch_bend_c, 11, 2776
1, 28556, Control_c, 12, 11, 102
1, 28556, Pitch_bend_c, 12, 5496
1, 28557, Pitch_bend_c, 11, 2754
1, 28557, Pitch_bend_c, 12, 5473
1, 28558, Control_c, 11, 11, 76
1, 28558, Pitch_bend_c, 11, 2731
1, 28558, Pitch_bend_c, 12, 5451
1, 28559, Pitch_bend_c, 11, 2709
1, 28559, Pitch_bend_c, 12, 5428
1, 28560, Note_on_c, 0, 56, 96
1, 28560, Note_on_c, 0, 60, 119
1, 28560, Note_on_c, 0, 63, 91
1, 28560, Note_on_c, 3, 63, 119
1, 28560, Note_on_c, 4, 63, 74
1, 28560, Note_on_c, 4, 67, 116
1, 28560, Note_on_c, 5, 55, 105
1, 28560, Note_on_c, 6, 75, 119
1, 28560, Note_on_c, 7, 56, 111
1, 28560, Note_on_c, 7, 60, 119
1, 28560, Note_on_c, 7, 67, 116
1, 28560, Note_on_c, 7, 75, 100
1, 28560, Pitch_bend_c, 11, 2686
1, 28560, Pitch_bend_c, 12, 5405
1, 28560, Note_on_c, 15, 63, 1
1, 28560, Note_on_c, 15, 67, 1
1, 28560, Lyric_t, "trea"
1, 28561, Pitch_bend_c, 11, 2663
1, 28561, Control_c, 12, 11, 101
1, 28561, Pitch_bend_c, 12, 5383
1, 28562, Control_c, 11, 11, 75
1, 28562, Pitch_bend_c, 11, 2641
1, 28562, Pitch_bend_c, 12, 5360
1, 28563, Note_on_c, 7, 79, 0
1, 28563, Pitch_bend_c, 11, 2618
1, 28563, Pitch_bend_c, 12, 5337
1, 28564, Pitch_bend_c, 11, 2595
1, 28564, Pitch_bend_c, 12, 5315
1, 28565, Pitch_bend_c, 11, 2573
1, 28565, Control_c, 12, 11, 100
1, 28565, Pitch_bend_c, 12, 5292
1, 28566, Pitch_bend_c, 11, 2550
1, 28566, Pitch_bend_c, 12, 5269
1, 28567, Control_c, 11, 11, 74
1, 28567, Pitch_bend_c, 11, 2527
1, 28567, Pitch_bend_c, 12, 5247
1, 28568, Note_on_c, 6, 79, 0
1, 28568, Pitch_bend_c, 11, 2505
1, 28568, Pitch_bend_c, 12, 5224
1, 28569, Pitch_bend_c, 11, 2482
1, 28569, Pitch_bend_c, 12, 5201
1, 28570, Pitch_bend_c, 11, 2459
1, 28570, Control_c, 12, 11, 99
1, 28570, Pitch_bend_c, 12, 5179
1, 28571, Control_c, 11, 11, 73
1, 28571, Pitch_bend_c, 11, 2437
1, 28571, Pitch_bend_c, 12, 5156
1, 28572, Pitch_bend_c, 11, 2414
1, 28572, Pitch_bend_c, 12, 5133
1, 28573, Pitch_bend_c, 11, 2391
1, 28573, Pitch_bend_c, 12, 5111
1, 28574, Pitch_bend_c, 11, 2369
1, 28574, Control_c, 12, 11, 98
1, 28574, Pitch_bend_c, 12, 5088
1, 28575, Pitch_bend_c, 11, 2346
1, 28575, Pitch_bend_c, 12, 5065
1, 28576, Control_c, 11, 11, 72
1, 28576, Pitch_bend_c, 11, 2323
1, 28576, Pitch_bend_c, 12, 5043
1, 28577, Pitch_bend_c, 11, 2301
1, 28577, Pitch_bend_c, 12, 5020
1, 28578, Pitch_bend_c, 11, 2278
1, 28578, Pitch_bend_c, 12, 4997
1, 28579, Pitch_bend_c, 11, 2255
1, 28579, Control_c, 12, 11, 97
1, 28579, Pitch_bend_c, 12, 4975
1, 28580, Control_c, 11, 11, 71
1, 28580, Pitch_bend_c, 11, 2233
1, 28580, Pitch_bend_c, 12, 4952
1, 28581, Pitch_bend_c, 11, 2210
1, 28581, Pitch_bend_c, 12, 4929
1, 28582, Pitch_bend_c, 11, 2187
1, 28582, Pitch_bend_c, 12, 4907
1, 28583, Pitch_bend_c, 11, 2165
1, 28583, Control_c, 12, 11, 96
1, 28583, Pitch_bend_c, 12, 4884
1, 28584, Pitch_bend_c, 11, 2142
1, 28584, Pitch_bend_c, 12, 4861
1, 28585, Control_c, 11, 11, 70
1, 28585, Pitch_bend_c, 11, 2119
1, 28585, Pitch_bend_c, 12, 4839
1, 28586, Pitch_bend_c, 11, 2097
1, 28586, Pitch_bend_c, 12, 4816
1, 28587, Pitch_bend_c, 11, 2074
1, 28587, Pitch_bend_c, 12, 4793
1, 28588, Pitch_bend_c, 11, 2051
1, 28588, Control_c, 12, 11, 95
1, 28588, Pitch_bend_c, 12, 4771
1, 28589, Note_on_c, 0, 56, 0
1, 28589, Control_c, 11, 11, 69
1, 28589, Pitch_bend_c, 11, 2029
1, 28589, Pitch_bend_c, 12, 4748
1, 28590, Pitch_bend_c, 11, 2006
1, 28590, Pitch_bend_c, 12, 4725
1, 28591, Note_on_c, 0, 60, 0
1, 28591, Pitch_bend_c, 11, 1983
1, 28591, Pitch_bend_c, 12, 4703
1, 28592, Pitch_bend_c, 11, 1961
1, 28592, Control_c, 12, 11, 94
1, 28592, Pitch_bend_c, 12, 4680
1, 28593, Note_on_c, 7, 67, 0
1, 28593, Note_on_c, 7, 60, 0
1, 28593, Pitch_bend_c, 11, 1938
1, 28593, Pitch_bend_c, 12, 4657
1, 28594, Note_on_c, 0, 63, 0
1, 28594, Control_c, 11, 11, 68
1, 28594, Pitch_bend_c, 11, 1915
1, 28594, Pitch_bend_c, 12, 4635
1, 28595, Pitch_bend_c, 11, 1893
1, 28595, Pitch_bend_c, 12, 4612
1, 28596, Pitch_bend_c, 11, 1870
1, 28596, Pitch_bend_c, 12, 4589
1, 28597, Pitch_bend_c, 11, 1847
1, 28597, Control_c, 12, 11, 93
1, 28597, Pitch_bend_c, 12, 4567
1, 28598, Control_c, 11, 11, 67
1, 28598, Pitch_bend_c, 11, 1825
1, 28598, Pitch_bend_c, 12, 4544
1, 28599, Pitch_bend_c, 11, 1802
1, 28599, Pitch_bend_c, 12, 4521
1, 28600, Note_on_c, 7, 56, 0
1, 28600, Pitch_bend_c, 11, 1779
1, 28600, Pitch_bend_c, 12, 4499
1, 28601, Pitch_bend_c, 11, 1757
1, 28601, Control_c, 12, 11, 92
1, 28601, Pitch_bend_c, 12, 4476
1, 28602, Pitch_bend_c, 11, 1734
1, 28602, Pitch_bend_c, 12, 4453
1, 28603, Control_c, 11, 11, 66
1, 28603, Pitch_bend_c, 11, 1711
1, 28603, Pitch_bend_c, 12, 4431
1, 28604, Pitch_bend_c, 11, 1689
1, 28604, Pitch_bend_c, 12, 4408
1, 28605, Pitch_bend_c, 11, 1666
1, 28605, Pitch_bend_c, 12, 4385
1, 28606, Pitch_bend_c, 11, 1643
1, 28606, Control_c, 12, 11, 91
1, 28606, Pitch_bend_c, 12, 4363
1, 28607, Control_c, 11, 11, 65
1, 28607, Pitch_bend_c, 11, 1621
1, 28607, Pitch_bend_c, 12, 4340
1, 28608, Pitch_bend_c, 11, 1598
1, 28608, Pitch_bend_c, 12, 4317
1, 28609, Pitch_bend_c, 11, 1575
1, 28609, Pitch_bend_c, 12, 4295
1, 28610, Pitch_bend_c, 11, 1553
1, 28610, Control_c, 12, 11, 90
1, 28610, Pitch_bend_c, 12, 4272
1, 28611, Pitch_bend_c, 11, 1530
1, 28611, Pitch_bend_c, 12, 4249
1, 28612, Control_c, 11, 11, 64
1, 28612, Pitch_bend_c, 11, 1507
1, 28612, Pitch_bend_c, 12, 4227
1, 28613, Pitch_bend_c, 11, 1485
1, 28613, Pitch_bend_c, 12, 4204
1, 28614, Pitch_bend_c, 11, 1462
1, 28614, Pitch_bend_c, 12, 4181
1, 28615, Pitch_bend_c, 11, 1439
1, 28615, Control_c, 12, 11, 89
1, 28615, Pitch_bend_c, 12, 4159
1, 28616, Control_c, 11, 11, 63
1, 28616, Pitch_bend_c, 11, 1417
1, 28616, Pitch_bend_c, 12, 4136
1, 28617, Pitch_bend_c, 11, 1394
1, 28617, Pitch_bend_c, 12, 4113
1, 28618, Pitch_bend_c, 11, 1371
1, 28618, Pitch_bend_c, 12, 4091
1, 28619, Pitch_bend_c, 11, 1349
1, 28619, Control_c, 12, 11, 88
1, 28619, Pitch_bend_c, 12, 4068
1, 28620, Note_on_c, 0, 56, 82
1, 28620, Note_on_c, 0, 60, 111
1, 28620, Note_on_c, 0, 63, 80
1, 28620, Pitch_bend_c, 11, 1326
1, 28620, Pitch_bend_c, 12, 4046
1, 28621, Note_on_c, 0, 63, 0
1, 28621, Note_on_c, 0, 60, 0
1, 28621, Note_on_c, 0, 56, 0
1, 28621, Control_c, 11, 11, 62
1, 28621, Pitch_bend_c, 11, 1304
1, 28621, Pitch_bend_c, 12, 4023
1, 28622, Pitch_bend_c, 11, 1281
1, 28622, Pitch_bend_c, 12, 4000
1, 28623, Pitch_bend_c, 11, 1258
1, 28623, Pitch_bend_c, 12, 3978
1, 28624, Pitch_bend_c, 11, 1236
1, 28624, Control_c, 12, 11, 87
1, 28624, Pitch_bend_c, 12, 3955
1, 28625, Control_c, 11, 11, 61
1, 28625, Pitch_bend_c, 11, 1213
1, 28625, Pitch_bend_c, 12, 3932
1, 28626, Pitch_bend_c, 11, 1190
1, 28626, Pitch_bend_c, 12, 3910
1, 28627, Pitch_bend_c, 11, 1168
1, 28627, Pitch_bend_c, 12, 3887
1, 28628, Pitch_bend_c, 11, 1145
1, 28628, Control_c, 12, 11, 86
1, 28628, Pitch_bend_c, 12, 3864
1, 28629, Pitch_bend_c, 11, 1122
1, 28629, Pitch_bend_c, 12, 3842
1, 28630, Note_on_c, 5, 55, 0
1, 28630, Control_c, 11, 11, 60
1, 28630, Pitch_bend_c, 11, 1100
1, 28630, Pitch_bend_c, 12, 3819
1, 28631, Pitch_bend_c, 11, 1077
1, 28631, Pitch_bend_c, 12, 3796
1, 28632, Pitch_bend_c, 11, 1054
1, 28632, Pitch_bend_c, 12, 3774
1, 28633, Note_on_c, 4, 67, 0
1, 28633, Note_on_c, 15, 67, 0
1, 28633, Pitch_bend_c, 11, 1032
1, 28633, Pitch_bend_c, 12, 3751
1, 28634, Control_c, 11, 11, 59
1, 28634, Pitch_bend_c, 11, 1009
1, 28634, Pitch_bend_c, 12, 3728
1, 28635, Pitch_bend_c, 11, 986
1, 28635, Pitch_bend_c, 12, 3706
1, 28636, Pitch_bend_c, 11, 964
1, 28636, Pitch_bend_c, 12, 3683
1, 28637, Note_on_c, 15, 63, 0
1, 28637, Note_on_c, 4, 63, 0
1, 28637, Pitch_bend_c, 11, 941
1, 28637, Control_c, 12, 11, 85
1, 28637, Pitch_bend_c, 12, 3660
1, 28638, Pitch_bend_c, 11, 918
1, 28638, Pitch_bend_c, 12, 3638
1, 28639, Control_c, 11, 11, 58
1, 28639, Pitch_bend_c, 11, 896
1, 28639, Pitch_bend_c, 12, 3615
1, 28640, Pitch_bend_c, 11, 873
1, 28640, Pitch_bend_c, 12, 3592
1, 28641, Note_on_c, 3, 63, 0
1, 28641, Pitch_bend_c, 11, 850
1, 28641, Pitch_bend_c, 12, 3570
1, 28642, Pitch_bend_c, 11, 828
1, 28642, Control_c, 12, 11, 84
1, 28642, Pitch_bend_c, 12, 3547
1, 28643, Control_c, 11, 11, 57
1, 28643, Pitch_bend_c, 11, 805
1, 28643, Pitch_bend_c, 12, 3524
1, 28644, Pitch_bend_c, 11, 782
1, 28644, Pitch_bend_c, 12, 3502
1, 28645, Pitch_bend_c, 11, 760
1, 28645, Pitch_bend_c, 12, 3479
1, 28646, Pitch_bend_c, 11, 737
1, 28646, Control_c, 12, 11, 83
1, 28646, Pitch_bend_c, 12, 3456
1, 28647, Pitch_bend_c, 11, 714
1, 28647, Pitch_bend_c, 12, 3434
1, 28648, Control_c, 11, 11, 56
1, 28648, Pitch_bend_c, 11, 692
1, 28648, Pitch_bend_c, 12, 3411
1, 28649, Pitch_bend_c, 11, 669
1, 28649, Pitch_bend_c, 12, 3388
1, 28650, Note_on_c, 0, 58, 91
1, 28650, Note_on_c, 0, 62, 119
1, 28650, Note_on_c, 0, 65, 89
1, 28650, Note_on_c, 3, 60, 119
1, 28650, Note_on_c, 4, 63, 78
1, 28650, Note_on_c, 4, 67, 113
1, 28650, Note_on_c, 5, 55, 116
1, 28650, Note_on_c, 7, 55, 118
1, 28650, Note_on_c, 7, 58, 120
1, 28650, Note_on_c, 7, 65, 98
1, 28650, Pitch_bend_c, 11, 646
1, 28650, Pitch_bend_c, 12, 3366
1, 28650, Note_on_c, 15, 63, 1
1, 28650, Note_on_c, 15, 67, 1
1, 28650, Lyric_t, "sure, "
1, 28650, Lyric_t, "\015"
1, 28651, Pitch_bend_c, 11, 624
1, 28651, Control_c, 12, 11, 82
1, 28651, Pitch_bend_c, 12, 3343
1, 28652, Control_c, 11, 11, 55
1, 28652, Pitch_bend_c, 11, 601
1, 28652, Pitch_bend_c, 12, 3320
1, 28653, Pitch_bend_c, 11, 578
1, 28653, Pitch_bend_c, 12, 3298
1, 28654, Pitch_bend_c, 11, 556
1, 28654, Pitch_bend_c, 12, 3275
1, 28655, Pitch_bend_c, 11, 533
1, 28655, Control_c, 12, 11, 81
1, 28655, Pitch_bend_c, 12, 3252
1, 28656, Pitch_bend_c, 11, 510
1, 28656, Pitch_bend_c, 12, 3230
1, 28657, Control_c, 11, 11, 54
1, 28657, Pitch_bend_c, 11, 488
1, 28657, Pitch_bend_c, 12, 3207
1, 28658, Pitch_bend_c, 11, 465
1, 28658, Pitch_bend_c, 12, 3184
1, 28659, Pitch_bend_c, 11, 442
1, 28659, Pitch_bend_c, 12, 3162
1, 28660, Pitch_bend_c, 11, 420
1, 28660, Control_c, 12, 11, 80
1, 28660, Pitch_bend_c, 12, 3139
1, 28661, Control_c, 11, 11, 53
1, 28661, Pitch_bend_c, 11, 397
1, 28661, Pitch_bend_c, 12, 3116
1, 28662, Note_on_c, 15, 67, 0
1, 28662, Note_on_c, 4, 67, 0
1, 28662, Pitch_bend_c, 11, 374
1, 28662, Pitch_bend_c, 12, 3094
1, 28663, Pitch_bend_c, 11, 352
1, 28663, Pitch_bend_c, 12, 3071
1, 28664, Pitch_bend_c, 11, 329
1, 28664, Control_c, 12, 11, 79
1, 28664, Pitch_bend_c, 12, 3048
1, 28665, Pitch_bend_c, 11, 306
1, 28665, Pitch_bend_c, 12, 3026
1, 28666, Note_on_c, 4, 63, 0
1, 28666, Note_on_c, 15, 63, 0
1, 28666, Control_c, 11, 11, 52
1, 28666, Pitch_bend_c, 11, 284
1, 28666, Pitch_bend_c, 12, 3003
1, 28667, Pitch_bend_c, 11, 261
1, 28667, Pitch_bend_c, 12, 2980
1, 28668, Pitch_bend_c, 11, 238
1, 28668, Pitch_bend_c, 12, 2958
1, 28669, Pitch_bend_c, 11, 216
1, 28669, Control_c, 12, 11, 78
1, 28669, Pitch_bend_c, 12, 2935
1, 28670, Note_on_c, 5, 55, 0
1, 28670, Note_on_c, 3, 60, 0
1, 28670, Control_c, 11, 11, 51
1, 28670, Pitch_bend_c, 11, 193
1, 28670, Pitch_bend_c, 12, 2912
1, 28671, Note_on_c, 6, 75, 0
1, 28671, Pitch_bend_c, 11, 170
1, 28671, Pitch_bend_c, 12, 2890
1, 28672, Pitch_bend_c, 11, 148
1, 28672, Pitch_bend_c, 12, 2867
1, 28673, Pitch_bend_c, 11, 125
1, 28673, Control_c, 12, 11, 77
1, 28673, Pitch_bend_c, 12, 2844
1, 28674, Pitch_bend_c, 11, 102
1, 28674, Pitch_bend_c, 12, 2822
1, 28675, Control_c, 11, 11, 50
1, 28675, Pitch_bend_c, 11, 80
1, 28675, Pitch_bend_c, 12, 2799
1, 28676, Note_on_c, 0, 58, 0
1, 28676, Note_on_c, 7, 55, 0
1, 28676, Pitch_bend_c, 11, 57
1, 28676, Pitch_bend_c, 12, 2776
1, 28677, Pitch_bend_c, 11, 34
1, 28677, Pitch_bend_c, 12, 2754
1, 28678, Note_on_c, 0, 65, 0
1, 28678, Pitch_bend_c, 11, 12
1, 28678, Control_c, 12, 11, 76
1, 28678, Pitch_bend_c, 12, 2731
1, 28679, Note_on_c, 0, 62, 0
1, 28679, Note_on_c, 7, 75, 0
1, 28679, Note_on_c, 11, 96, 0
1, 28679, Pitch_bend_c, 12, 2709
1, 28680, Note_on_c, 6, 72, 120
1, 28680, Note_on_c, 7, 72, 111
1, 28680, Note_on_c, 9, 39, 120
1, 28680, Pitch_bend_c, 12, 2686
1, 28681, Pitch_bend_c, 12, 2663
1, 28682, Note_on_c, 7, 65, 0
1, 28682, Control_c, 12, 11, 75
1, 28682, Pitch_bend_c, 12, 2641
1, 28683, Note_on_c, 7, 58, 0
1, 28683, Pitch_bend_c, 12, 2618
1, 28684, Pitch_bend_c, 12, 2595
1, 28685, Pitch_bend_c, 12, 2573
1, 28686, Pitch_bend_c, 12, 2550
1, 28687, Control_c, 12, 11, 74
1, 28687, Pitch_bend_c, 12, 2527
1, 28688, Pitch_bend_c, 12, 2505
1, 28689, Pitch_bend_c, 12, 2482
1, 28690, Pitch_bend_c, 12, 2459
1, 28691, Control_c, 12, 11, 73
1, 28691, Pitch_bend_c, 12, 2437
1, 28692, Pitch_bend_c, 12, 2414
1, 28693, Pitch_bend_c, 12, 2391
1, 28694, Pitch_bend_c, 12, 2369
1, 28695, Pitch_bend_c, 12, 2346
1, 28696, Control_c, 12, 11, 72
1, 28696, Pitch_bend_c, 12, 2323
1, 28697, Pitch_bend_c, 12, 2301
1, 28698, Pitch_bend_c, 12, 2278
1, 28699, Pitch_bend_c, 12, 2255
1, 28700, Control_c, 12, 11, 71
1, 28700, Pitch_bend_c, 12, 2233
1, 28701, Pitch_bend_c, 12, 2210
1, 28702, Pitch_bend_c, 12, 2187
1, 28703, Pitch_bend_c, 12, 2165
1, 28704, Note_on_c, 9, 39, 0
1, 28704, Pitch_bend_c, 12, 2142
1, 28705, Control_c, 12, 11, 70
1, 28705, Pitch_bend_c, 12, 2119
1, 28706, Pitch_bend_c, 12, 2097
1, 28707, Pitch_bend_c, 12, 2074
1, 28708, Pitch_bend_c, 12, 2051
1, 28709, Control_c, 12, 11, 69
1, 28709, Pitch_bend_c, 12, 2029
1, 28710, Note_on_c, 0, 58, 60
1, 28710, Note_on_c, 0, 62, 109
1, 28710, Note_on_c, 0, 65, 77
1, 28710, Pitch_bend_c, 12, 2006
1, 28711, Note_on_c, 0, 65, 0
1, 28711, Note_on_c, 0, 58, 0
1, 28711, Note_on_c, 0, 62, 0
1, 28711, Pitch_bend_c, 12, 1983
1, 28712, Pitch_bend_c, 12, 1961
1, 28713, Pitch_bend_c, 12, 1938
1, 28714, Control_c, 12, 11, 68
1, 28714, Pitch_bend_c, 12, 1915
1, 28715, Pitch_bend_c, 12, 1893
1, 28716, Pitch_bend_c, 12, 1870
1, 28717, Pitch_bend_c, 12, 1847
1, 28718, Control_c, 12, 11, 67
1, 28718, Pitch_bend_c, 12, 1825
1, 28719, Pitch_bend_c, 12, 1802
1, 28720, Pitch_bend_c, 12, 1779
1, 28721, Pitch_bend_c, 12, 1757
1, 28722, Pitch_bend_c, 12, 1734
1, 28723, Control_c, 12, 11, 66
1, 28723, Pitch_bend_c, 12, 1711
1, 28724, Pitch_bend_c, 12, 1689
1, 28725, Pitch_bend_c, 12, 1666
1, 28726, Pitch_bend_c, 12, 1643
1, 28727, Control_c, 12, 11, 65
1, 28727, Pitch_bend_c, 12, 1621
1, 28728, Pitch_bend_c, 12, 1598
1, 28729, Pitch_bend_c, 12, 1575
1, 28730, Pitch_bend_c, 12, 1553
1, 28731, Pitch_bend_c, 12, 1530
1, 28732, Control_c, 12, 11, 64
1, 28732, Pitch_bend_c, 12, 1507
1, 28733, Pitch_bend_c, 12, 1485
1, 28734, Pitch_bend_c, 12, 1462
1, 28735, Pitch_bend_c, 12, 1439
1, 28736, Control_c, 12, 11, 63
1, 28736, Pitch_bend_c, 12, 1417
1, 28737, Pitch_bend_c, 12, 1394
1, 28738, Pitch_bend_c, 12, 1371
1, 28739, Pitch_bend_c, 12, 1349
1, 28740, Note_on_c, 0, 56, 91
1, 28740, Note_on_c, 0, 60, 119
1, 28740, Note_on_c, 0, 63, 91
1, 28740, Note_on_c, 7, 53, 95
1, 28740, Note_on_c, 7, 56, 119
1, 28740, Note_on_c, 7, 63, 109
1, 28740, Pitch_bend_c, 12, 1326
1, 28741, Control_c, 12, 11, 62
1, 28741, Pitch_bend_c, 12, 1304
1, 28742, Pitch_bend_c, 12, 1281
1, 28743, Pitch_bend_c, 12, 1258
1, 28744, Pitch_bend_c, 12, 1236
1, 28745, Control_c, 12, 11, 61
1, 28745, Pitch_bend_c, 12, 1213
1, 28746, Pitch_bend_c, 12, 1190
1, 28747, Pitch_bend_c, 12, 1168
1, 28748, Pitch_bend_c, 12, 1145
1, 28749, Pitch_bend_c, 12, 1122
1, 28750, Control_c, 12, 11, 60
1, 28750, Pitch_bend_c, 12, 1100
1, 28751, Pitch_bend_c, 12, 1077
1, 28752, Pitch_bend_c, 12, 1054
1, 28753, Pitch_bend_c, 12, 1032
1, 28754, Control_c, 12, 11, 59
1, 28754, Pitch_bend_c, 12, 1009
1, 28755, Pitch_bend_c, 12, 986
1, 28756, Pitch_bend_c, 12, 964
1, 28757, Pitch_bend_c, 12, 941
1, 28758, Pitch_bend_c, 12, 918
1, 28759, Control_c, 12, 11, 58
1, 28759, Pitch_bend_c, 12, 896
1, 28760, Pitch_bend_c, 12, 873
1, 28761, Pitch_bend_c, 12, 850
1, 28762, Pitch_bend_c, 12, 828
1, 28763, Control_c, 12, 11, 57
1, 28763, Pitch_bend_c, 12, 805
1, 28764, Pitch_bend_c, 12, 782
1, 28765, Pitch_bend_c, 12, 760
1, 28766, Pitch_bend_c, 12, 737
1, 28767, Pitch_bend_c, 12, 714
1, 28768, Control_c, 12, 11, 56
1, 28768, Pitch_bend_c, 12, 692
1, 28769, Pitch_bend_c, 12, 669
1, 28770, Pitch_bend_c, 12, 646
1, 28771, Pitch_bend_c, 12, 624
1, 28772, Control_c, 12, 11, 55
1, 28772, Pitch_bend_c, 12, 601
1, 28773, Pitch_bend_c, 12, 578
1, 28774, Pitch_bend_c, 12, 556
1, 28775, Pitch_bend_c, 12, 533
1, 28776, Pitch_bend_c, 12, 510
1, 28777, Control_c, 12, 11, 54
1, 28777, Pitch_bend_c, 12, 488
1, 28778, Pitch_bend_c, 12, 465
1, 28779, Pitch_bend_c, 12, 442
1, 28780, Pitch_bend_c, 12, 420
1, 28781, Control_c, 12, 11, 53
1, 28781, Pitch_bend_c, 12, 397
1, 28782, Pitch_bend_c, 12, 374
1, 28783, Pitch_bend_c, 12, 352
1, 28784, Pitch_bend_c, 12, 329
1, 28785, Pitch_bend_c, 12, 306
1, 28786, Control_c, 12, 11, 52
1, 28786, Pitch_bend_c, 12, 284
1, 28787, Pitch_bend_c, 12, 261
1, 28788, Pitch_bend_c, 12, 238
1, 28789, Pitch_bend_c, 12, 216
1, 28790, Control_c, 12, 11, 51
1, 28790, Pitch_bend_c, 12, 193
1, 28791, Pitch_bend_c, 12, 170
1, 28792, Pitch_bend_c, 12, 148
1, 28793, Pitch_bend_c, 12, 125
1, 28794, Pitch_bend_c, 12, 102
1, 28795, Control_c, 12, 11, 50
1, 28795, Pitch_bend_c, 12, 80
1, 28796, Pitch_bend_c, 12, 57
1, 28797, Pitch_bend_c, 12, 34
1, 28798, Pitch_bend_c, 12, 12
1, 28799, Note_on_c, 12, 96, 0
1, 28800, Note_on_c, 6, 70, 120
1, 28800, Note_on_c, 7, 70, 102
1, 28803, Note_on_c, 6, 72, 0
1, 28804, Note_on_c, 7, 72, 0
1, 28860, Note_on_c, 3, 67, 116
1, 28860, Note_on_c, 4, 63, 98
1, 28860, Note_on_c, 4, 68, 115
1, 28860, Note_on_c, 5, 56, 115
1, 28860, Note_on_c, 15, 68, 1
1, 28860, Note_on_c, 15, 63, 1
1, 28860, Lyric_t, "you "
1, 28905, Note_on_c, 3, 67, 0
1, 28910, Note_on_c, 4, 68, 0
1, 28910, Note_on_c, 4, 63, 0
1, 28910, Note_on_c, 15, 63, 0
1, 28910, Note_on_c, 15, 68, 0
1, 28911, Note_on_c, 5, 56, 0
1, 28914, Note_on_c, 0, 60, 0
1, 28916, Note_on_c, 0, 63, 0
1, 28919, Note_on_c, 7, 63, 0
1, 28919, Note_on_c, 0, 56, 0
1, 28920, Note_on_c, 7, 53, 0
1, 28920, Note_on_c, 0, 56, 86
1, 28920, Note_on_c, 0, 60, 116
1, 28920, Note_on_c, 0, 63, 78
1, 28920, Note_on_c, 3, 60, 109
1, 28920, Note_on_c, 4, 63, 89
1, 28920, Note_on_c, 4, 68, 106
1, 28920, Note_on_c, 5, 56, 106
1, 28920, Note_on_c, 9, 39, 120
1, 28920, Note_on_c, 15, 68, 1
1, 28920, Note_on_c, 15, 63, 1
1, 28920, Lyric_t, "are "
1, 28921, Note_on_c, 7, 56, 0
1, 28937, Note_on_c, 4, 68, 0
1, 28937, Note_on_c, 15, 68, 0
1, 28938, Note_on_c, 4, 63, 0
1, 28938, Note_on_c, 15, 63, 0
1, 28940, Note_on_c, 3, 60, 0
1, 28941, Note_on_c, 5, 56, 0
1, 28945, Note_on_c, 9, 39, 0
1, 28947, Note_on_c, 0, 60, 0
1, 28949, Note_on_c, 0, 56, 0
1, 28950, Note_on_c, 0, 63, 0
1, 28980, Note_on_c, 0, 56, 53
1, 28980, Note_on_c, 0, 60, 98
1, 28980, Note_on_c, 0, 63, 60
1, 28980, Note_on_c, 3, 60, 103
1, 28980, Note_on_c, 4, 63, 96
1, 28980, Note_on_c, 4, 68, 119
1, 28980, Note_on_c, 5, 56, 119
1, 28980, Note_on_c, 15, 68, 1
1, 28980, Note_on_c, 15, 63, 1
1, 28980, Lyric_t, "my "
1, 28981, Note_on_c, 0, 63, 0
1, 28981, Note_on_c, 0, 60, 0
1, 28981, Note_on_c, 0, 56, 0
1, 28994, Note_on_c, 3, 60, 0
1, 28998, Note_on_c, 15, 63, 0
1, 28998, Note_on_c, 4, 63, 0
1, 28999, Note_on_c, 4, 68, 0
1, 28999, Note_on_c, 15, 68, 0
1, 29003, Note_on_c, 5, 56, 0
1, 29010, Note_on_c, 0, 56, 70
1, 29010, Note_on_c, 0, 60, 101
1, 29010, Note_on_c, 0, 63, 62
1, 29011, Note_on_c, 0, 63, 0
1, 29011, Note_on_c, 0, 56, 0
1, 29011, Note_on_c, 0, 60, 0
1, 29039, Control_c, 11, 11, 127
1, 29040, Note_on_c, 0, 56, 92
1, 29040, Note_on_c, 0, 60, 118
1, 29040, Note_on_c, 0, 63, 92
1, 29040, Note_on_c, 3, 63, 115
1, 29040, Note_on_c, 4, 63, 94
1, 29040, Note_on_c, 4, 68, 119
1, 29040, Note_on_c, 5, 56, 115
1, 29040, Note_on_c, 7, 53, 101
1, 29040, Note_on_c, 7, 56, 120
1, 29040, Note_on_c, 7, 63, 98
1, 29040, Note_on_c, 15, 68, 1
1, 29040, Note_on_c, 15, 63, 1
1, 29040, Lyric_t, "trea"
1, 29078, Note_on_c, 0, 60, 0
1, 29081, Note_on_c, 0, 56, 0
1, 29082, Note_on_c, 0, 63, 0
1, 29096, Note_on_c, 7, 53, 0
1, 29096, Note_on_c, 7, 63, 0
1, 29097, Note_on_c, 7, 56, 0
1, 29100, Note_on_c, 0, 56, 62
1, 29100, Note_on_c, 0, 60, 97
1, 29100, Note_on_c, 0, 63, 62
1, 29101, Note_on_c, 0, 63, 0
1, 29101, Note_on_c, 0, 60, 0
1, 29101, Note_on_c, 0, 56, 0
1, 29105, Note_on_c, 4, 63, 0
1, 29105, Note_on_c, 4, 68, 0
1, 29105, Note_on_c, 15, 63, 0
1, 29105, Note_on_c, 15, 68, 0
1, 29106, Note_on_c, 5, 56, 0
1, 29128, Note_on_c, 3, 63, 0
1, 29130, Note_on_c, 3, 65, 101
1, 29130, Note_on_c, 4, 63, 86
1, 29130, Note_on_c, 4, 68, 102
1, 29130, Note_on_c, 5, 56, 106
1, 29130, Note_on_c, 15, 68, 1
1, 29130, Note_on_c, 15, 63, 1
1, 29130, Lyric_t, "sure "
1, 29130, Lyric_t, "\015"
1, 29138, Note_on_c, 6, 70, 0
1, 29145, Note_on_c, 4, 68, 0
1, 29145, Note_on_c, 15, 68, 0
1, 29148, Note_on_c, 15, 63, 0
1, 29148, Note_on_c, 4, 63, 0
1, 29150, Note_on_c, 5, 56, 0
1, 29154, Note_on_c, 7, 70, 0
1, 29154, Note_on_c, 3, 65, 0
1, 29159, Control_c, 12, 11, 127
1, 29160, Note_on_c, 0, 60, 116
1, 29160, Note_on_c, 0, 63, 92
1, 29160, Note_on_c, 0, 67, 111
1, 29160, Note_on_c, 7, 53, 113
1, 29160, Note_on_c, 7, 56, 120
1, 29160, Note_on_c, 7, 63, 115
1, 29160, Note_on_c, 9, 39, 120
1, 29186, Note_on_c, 9, 39, 0
1, 29199, Note_on_c, 0, 60, 0
1, 29202, Note_on_c, 0, 63, 0
1, 29202, Note_on_c, 0, 67, 0
1, 29211, Note_on_c, 7, 53, 0
1, 29212, Note_on_c, 7, 56, 0
1, 29215, Note_on_c, 7, 63, 0
1, 29280, Note_on_c, 0, 58, 92
1, 29280, Note_on_c, 0, 62, 116
1, 29280, Note_on_c, 0, 65, 94
1, 29280, Note_on_c, 7, 55, 120
1, 29280, Note_on_c, 7, 58, 120
1, 29280, Note_on_c, 7, 65, 90
1, 29340, Note_on_c, 3, 67, 105
1, 29340, Note_on_c, 4, 65, 111
1, 29340, Note_on_c, 4, 70, 92
1, 29340, Note_on_c, 5, 55, 118
1, 29340, Note_on_c, 15, 70, 1
1, 29340, Note_on_c, 15, 65, 1
1, 29340, Lyric_t, "You "
1, 29382, Note_on_c, 15, 65, 0
1, 29382, Note_on_c, 0, 65, 0
1, 29382, Note_on_c, 4, 65, 0
1, 29386, Note_on_c, 4, 70, 0
1, 29386, Note_on_c, 15, 70, 0
1, 29387, Note_on_c, 3, 67, 0
1, 29388, Note_on_c, 5, 55, 0
1, 29391, Note_on_c, 0, 62, 0
1, 29395, Note_on_c, 0, 58, 0
1, 29400, Note_on_c, 7, 55, 0
1, 29400, Note_on_c, 3, 60, 100
1, 29400, Note_on_c, 4, 65, 101
1, 29400, Note_on_c, 4, 70, 89
1, 29400, Note_on_c, 5, 55, 105
1, 29400, Note_on_c, 9, 39, 120
1, 29400, Note_on_c, 15, 70, 1
1, 29400, Note_on_c, 15, 65, 1
1, 29400, Lyric_t, "are "
1, 29402, Note_on_c, 7, 58, 0
1, 29405, Note_on_c, 7, 65, 0
1, 29418, Note_on_c, 4, 65, 0
1, 29418, Note_on_c, 15, 65, 0
1, 29421, Note_on_c, 3, 60, 0
1, 29422, Note_on_c, 5, 55, 0
1, 29424, Note_on_c, 15, 70, 0
1, 29424, Note_on_c, 4, 70, 0
1, 29427, Note_on_c, 9, 39, 0
1, 29460, Note_on_c, 0, 58, 48
1, 29460, Note_on_c, 0, 62, 100
1, 29460, Note_on_c, 0, 65, 71
1, 29460, Note_on_c, 3, 60, 113
1, 29460, Note_on_c, 4, 65, 109
1, 29460, Note_on_c, 4, 70, 104
1, 29460, Note_on_c, 5, 55, 101
1, 29460, Note_on_c, 15, 70, 1
1, 29460, Note_on_c, 15, 65, 1
1, 29460, Lyric_t, "my "
1, 29461, Note_on_c, 0, 65, 0
1, 29461, Note_on_c, 0, 58, 0
1, 29461, Note_on_c, 0, 62, 0
1, 29480, Note_on_c, 15, 65, 0
1, 29480, Note_on_c, 4, 65, 0
1, 29481, Note_on_c, 5, 55, 0
1, 29482, Note_on_c, 3, 60, 0
1, 29486, Note_on_c, 15, 70, 0
1, 29486, Note_on_c, 4, 70, 0
1, 29490, Note_on_c, 0, 58, 71
1, 29490, Note_on_c, 0, 62, 98
1, 29490, Note_on_c, 0, 65, 78
1, 29491, Note_on_c, 0, 65, 0
1, 29491, Note_on_c, 0, 62, 0
1, 29491, Note_on_c, 0, 58, 0
1, 29520, Note_on_c, 0, 55, 103
1, 29520, Note_on_c, 0, 58, 92
1, 29520, Note_on_c, 0, 62, 113
1, 29520, Note_on_c, 0, 65, 83
1, 29520, Note_on_c, 3, 63, 119
1, 29520, Note_on_c, 4, 65, 111
1, 29520, Note_on_c, 4, 70, 106
1, 29520, Note_on_c, 5, 55, 120
1, 29520, Note_on_c, 7, 55, 116
1, 29520, Note_on_c, 7, 58, 120
1, 29520, Note_on_c, 7, 65, 101
1, 29520, Note_on_c, 15, 70, 1
1, 29520, Note_on_c, 15, 65, 1
1, 29520, Lyric_t, "trea"
1, 29552, Note_on_c, 7, 58, 0
1, 29552, Note_on_c, 7, 55, 0
1, 29553, Note_on_c, 7, 65, 0
1, 29562, Note_on_c, 0, 62, 0
1, 29563, Note_on_c, 0, 55, 0
1, 29564, Note_on_c, 0, 58, 0
1, 29571, Note_on_c, 0, 65, 0
1, 29580, Note_on_c, 0, 58, 57
1, 29580, Note_on_c, 0, 62, 94
1, 29580, Note_on_c, 0, 65, 59
1, 29580, Note_on_c, 4, 65, 101
1, 29580, Note_on_c, 4, 70, 78
1, 29580, Note_on_c, 15, 70, 1
1, 29580, Note_on_c, 15, 65, 1
1, 29581, Note_on_c, 0, 65, 0
1, 29581, Note_on_c, 0, 62, 0
1, 29581, Note_on_c, 0, 58, 0
1, 29581, Note_on_c, 4, 65, 0
1, 29581, Note_on_c, 5, 55, 0
1, 29581, Note_on_c, 15, 65, 0
1, 29583, Note_on_c, 15, 70, 0
1, 29583, Note_on_c, 4, 70, 0
1, 29590, Note_on_c, 3, 63, 0
1, 29599, Note_on_c, 4, 65, 0
1, 29599, Note_on_c, 15, 65, 0
1, 29607, Note_on_c, 4, 70, 0
1, 29607, Note_on_c, 15, 70, 0
1, 29610, Note_on_c, 0, 58, 92
1, 29610, Note_on_c, 0, 62, 111
1, 29610, Note_on_c, 0, 65, 87
1, 29610, Note_on_c, 3, 60, 118
1, 29610, Note_on_c, 5, 55, 116
1, 29610, Note_on_c, 7, 55, 120
1, 29610, Note_on_c, 7, 58, 120
1, 29610, Note_on_c, 7, 65, 105
1, 29610, Lyric_t, "sure, "
1, 29610, Lyric_t, "\015"
1, 29627, Note_on_c, 5, 55, 0
1, 29630, Note_on_c, 3, 60, 0
1, 29633, Note_on_c, 7, 55, 0
1, 29634, Note_on_c, 7, 58, 0
1, 29640, Note_on_c, 7, 65, 0
1, 29640, Note_on_c, 9, 39, 120
1, 29646, Note_on_c, 0, 62, 0
1, 29648, Note_on_c, 0, 58, 0
1, 29651, Note_on_c, 0, 65, 0
1, 29666, Note_on_c, 9, 39, 0
1, 29670, Note_on_c, 0, 58, 70
1, 29670, Note_on_c, 0, 62, 78
1, 29670, Note_on_c, 0, 65, 72
1, 29671, Note_on_c, 0, 65, 0
1, 29671, Note_on_c, 0, 62, 0
1, 29671, Note_on_c, 0, 58, 0
1, 29700, Note_on_c, 0, 60, 113
1, 29700, Note_on_c, 0, 63, 87
1, 29700, Note_on_c, 0, 67, 105
1, 29700, Note_on_c, 3, 63, 119
1, 29700, Note_on_c, 4, 65, 105
1, 29700, Note_on_c, 4, 70, 89
1, 29700, Note_on_c, 5, 55, 87
1, 29700, Note_on_c, 7, 60, 116
1, 29700, Note_on_c, 7, 63, 104
1, 29700, Note_on_c, 7, 67, 116
1, 29700, Note_on_c, 15, 70, 1
1, 29700, Note_on_c, 15, 65, 1
1, 29700, Lyric_t, "yeah, "
1, 29731, Note_on_c, 5, 55, 0
1, 29734, Note_on_c, 3, 63, 0
1, 29741, Note_on_c, 15, 70, 0
1, 29741, Note_on_c, 4, 70, 0
1, 29743, Note_on_c, 4, 65, 0
1, 29743, Note_on_c, 15, 65, 0
1, 29760, Note_on_c, 3, 67, 109
1, 29760, Note_on_c, 4, 63, 96
1, 29760, Note_on_c, 4, 67, 118
1, 29760, Note_on_c, 5, 60, 113
1, 29760, Note_on_c, 15, 67, 1
1, 29760, Note_on_c, 15, 63, 1
1, 29760, Lyric_t, "you, "
1, 29811, Note_on_c, 5, 60, 0
1, 29814, Note_on_c, 15, 67, 0
1, 29814, Note_on_c, 4, 67, 0
1, 29817, Note_on_c, 3, 67, 0
1, 29820, Note_on_c, 4, 63, 0
1, 29820, Note_on_c, 15, 63, 0
1, 29872, Note_on_c, 7, 67, 0
1, 29873, Note_on_c, 7, 60, 0
1, 29874, Note_on_c, 7, 63, 0
1, 29879, Note_on_c, 0, 60, 0
1, 29879, Note_on_c, 0, 67, 0
1, 29880, Note_on_c, 0, 60, 105
1, 29880, Note_on_c, 0, 63, 92
1, 29880, Note_on_c, 0, 67, 61
1, 29880, Note_on_c, 3, 65, 111
1, 29880, Note_on_c, 4, 63, 87
1, 29880, Note_on_c, 4, 67, 116
1, 29880, Note_on_c, 5, 58, 115
1, 29880, Note_on_c, 9, 39, 120
1, 29880, Note_on_c, 15, 67, 1
1, 29880, Note_on_c, 15, 63, 1
1, 29880, Lyric_t, "you, "
1, 29881, Note_on_c, 0, 67, 0
1, 29881, Note_on_c, 0, 63, 0
1, 29881, Note_on_c, 0, 63, 0
1, 29881, Note_on_c, 0, 60, 0
1, 29901, Note_on_c, 9, 39, 0
1, 29929, Note_on_c, 5, 58, 0
1, 29930, Note_on_c, 15, 67, 0
1, 29930, Note_on_c, 4, 67, 0
1, 29932, Note_on_c, 4, 63, 0
1, 29932, Note_on_c, 15, 63, 0
1, 29935, Note_on_c, 3, 65, 0
1, 30000, Note_on_c, 0, 60, 94
1, 30000, Note_on_c, 0, 63, 94
1, 30000, Note_on_c, 0, 67, 100
1, 30000, Note_on_c, 3, 63, 115
1, 30000, Note_on_c, 4, 63, 81
1, 30000, Note_on_c, 4, 67, 116
1, 30000, Note_on_c, 5, 55, 120
1, 30000, Note_on_c, 7, 60, 107
1, 30000, Note_on_c, 7, 63, 119
1, 30000, Note_on_c, 7, 67, 103
1, 30000, Note_on_c, 15, 67, 1
1, 30000, Note_on_c, 15, 63, 1
1, 30000, Lyric_t, "you, "
1, 30033, Note_on_c, 0, 67, 0
1, 30033, Note_on_c, 0, 60, 0
1, 30037, Note_on_c, 0, 63, 0
1, 30047, Note_on_c, 3, 63, 0
1, 30051, Note_on_c, 7, 67, 0
1, 30052, Note_on_c, 7, 60, 0
1, 30053, Note_on_c, 15, 67, 0
1, 30053, Note_on_c, 4, 67, 0
1, 30055, Note_on_c, 5, 55, 0
1, 30056, Note_on_c, 7, 63, 0
1, 30058, Note_on_c, 15, 63, 0
1, 30058, Note_on_c, 4, 63, 0
1, 30120, Note_on_c, 0, 58, 92
1, 30120, Note_on_c, 0, 62, 119
1, 30120, Note_on_c, 0, 65, 105
1, 30120, Note_on_c, 3, 68, 119
1, 30120, Note_on_c, 4, 67, 119
1, 30120, Note_on_c, 4, 72, 103
1, 30120, Note_on_c, 5, 60, 113
1, 30120, Note_on_c, 7, 58, 98
1, 30120, Note_on_c, 7, 62, 120
1, 30120, Note_on_c, 7, 65, 107
1, 30120, Note_on_c, 9, 39, 120
1, 30120, Note_on_c, 15, 72, 1
1, 30120, Note_on_c, 15, 67, 1
1, 30120, Lyric_t, "you "
1, 30146, Note_on_c, 9, 39, 0
1, 30148, Note_on_c, 0, 62, 0
1, 30153, Note_on_c, 0, 58, 0
1, 30154, Note_on_c, 0, 65, 0
1, 30164, Note_on_c, 4, 72, 0
1, 30164, Note_on_c, 15, 72, 0
1, 30166, Note_on_c, 15, 67, 0
1, 30166, Note_on_c, 4, 67, 0
1, 30172, Note_on_c, 5, 60, 0
1, 30175, Note_on_c, 7, 62, 0
1, 30175, Note_on_c, 3, 68, 0
1, 30178, Note_on_c, 7, 58, 0
1, 30180, Note_on_c, 3, 67, 111
1, 30180, Note_on_c, 4, 67, 120
1, 30180, Note_on_c, 4, 72, 107
1, 30180, Note_on_c, 5, 60, 116
1, 30180, Note_on_c, 15, 72, 1
1, 30180, Note_on_c, 15, 67, 1
1, 30180, Lyric_t, "are "
1, 30180, Lyric_t, "\015"
1, 30181, Note_on_c, 7, 65, 0
1, 30231, Note_on_c, 4, 72, 0
1, 30231, Note_on_c, 15, 72, 0
1, 30232, Note_on_c, 5, 60, 0
1, 30233, Note_on_c, 15, 67, 0
1, 30233, Note_on_c, 4, 67, 0
1, 30240, Note_on_c, 0, 60, 105
1, 30240, Note_on_c, 0, 63, 98
1, 30240, Note_on_c, 0, 67, 118
1, 30240, Note_on_c, 6, 82, 120
1, 30240, Note_on_c, 7, 56, 92
1, 30240, Note_on_c, 7, 60, 120
1, 30240, Note_on_c, 7, 67, 113
1, 30240, Note_on_c, 7, 82, 92
1, 30240, Note_on_c, 11, 96, 120
1, 30240, Pitch_bend_c, 11, 8125
1, 30241, Pitch_bend_c, 11, 8102
1, 30242, Pitch_bend_c, 11, 8079
1, 30243, Pitch_bend_c, 11, 8057
1, 30244, Pitch_bend_c, 11, 8034
1, 30245, Pitch_bend_c, 11, 8011
1, 30246, Pitch_bend_c, 11, 7989
1, 30247, Pitch_bend_c, 11, 7966
1, 30248, Control_c, 11, 11, 126
1, 30248, Pitch_bend_c, 11, 7943
1, 30249, Pitch_bend_c, 11, 7921
1, 30250, Pitch_bend_c, 11, 7898
1, 30251, Pitch_bend_c, 11, 7875
1, 30252, Pitch_bend_c, 11, 7853
1, 30253, Control_c, 11, 11, 125
1, 30253, Pitch_bend_c, 11, 7830
1, 30254, Pitch_bend_c, 11, 7807
1, 30255, Pitch_bend_c, 11, 7785
1, 30256, Pitch_bend_c, 11, 7762
1, 30257, Control_c, 11, 11, 124
1, 30257, Pitch_bend_c, 11, 7739
1, 30258, Pitch_bend_c, 11, 7717
1, 30259, Pitch_bend_c, 11, 7694
1, 30260, Pitch_bend_c, 11, 7671
1, 30261, Pitch_bend_c, 11, 7649
1, 30262, Note_on_c, 3, 67, 0
1, 30262, Control_c, 11, 11, 123
1, 30262, Pitch_bend_c, 11, 7626
1, 30263, Pitch_bend_c, 11, 7603
1, 30264, Pitch_bend_c, 11, 7581
1, 30265, Pitch_bend_c, 11, 7558
1, 30266, Control_c, 11, 11, 122
1, 30266, Pitch_bend_c, 11, 7535
1, 30267, Pitch_bend_c, 11, 7513
1, 30268, Pitch_bend_c, 11, 7490
1, 30269, Pitch_bend_c, 11, 7467
1, 30270, Pitch_bend_c, 11, 7445
1, 30271, Control_c, 11, 11, 121
1, 30271, Pitch_bend_c, 11, 7422
1, 30272, Pitch_bend_c, 11, 7399
1, 30273, Pitch_bend_c, 11, 7377
1, 30274, Pitch_bend_c, 11, 7354
1, 30275, Control_c, 11, 11, 120
1, 30275, Pitch_bend_c, 11, 7331
1, 30276, Pitch_bend_c, 11, 7309
1, 30277, Pitch_bend_c, 11, 7286
1, 30278, Pitch_bend_c, 11, 7263
1, 30279, Pitch_bend_c, 11, 7241
1, 30280, Control_c, 11, 11, 119
1, 30280, Pitch_bend_c, 11, 7218
1, 30281, Pitch_bend_c, 11, 7195
1, 30282, Pitch_bend_c, 11, 7173
1, 30283, Pitch_bend_c, 11, 7150
1, 30284, Control_c, 11, 11, 118
1, 30284, Pitch_bend_c, 11, 7127
1, 30285, Pitch_bend_c, 11, 7105
1, 30286, Pitch_bend_c, 11, 7082
1, 30287, Pitch_bend_c, 11, 7059
1, 30288, Pitch_bend_c, 11, 7037
1, 30289, Control_c, 11, 11, 117
1, 30289, Pitch_bend_c, 11, 7014
1, 30290, Pitch_bend_c, 11, 6991
1, 30291, Pitch_bend_c, 11, 6969
1, 30292, Pitch_bend_c, 11, 6946
1, 30293, Control_c, 11, 11, 116
1, 30293, Pitch_bend_c, 11, 6923
1, 30294, Pitch_bend_c, 11, 6901
1, 30295, Pitch_bend_c, 11, 6878
1, 30296, Pitch_bend_c, 11, 6855
1, 30297, Pitch_bend_c, 11, 6833
1, 30298, Control_c, 11, 11, 115
1, 30298, Pitch_bend_c, 11, 6810
1, 30299, Pitch_bend_c, 11, 6788
1, 30300, Note_on_c, 3, 67, 113
1, 30300, Note_on_c, 4, 63, 98
1, 30300, Note_on_c, 4, 67, 105
1, 30300, Note_on_c, 5, 55, 119
1, 30300, Pitch_bend_c, 11, 6765
1, 30300, Note_on_c, 15, 67, 1
1, 30300, Note_on_c, 15, 63, 1
1, 30300, Lyric_t, "You "
1, 30301, Pitch_bend_c, 11, 6742
1, 30302, Control_c, 11, 11, 114
1, 30302, Pitch_bend_c, 11, 6720
1, 30303, Pitch_bend_c, 11, 6697
1, 30304, Pitch_bend_c, 11, 6674
1, 30305, Pitch_bend_c, 11, 6652
1, 30306, Pitch_bend_c, 11, 6629
1, 30307, Control_c, 11, 11, 113
1, 30307, Pitch_bend_c, 11, 6606
1, 30308, Pitch_bend_c, 11, 6584
1, 30309, Pitch_bend_c, 11, 6561
1, 30310, Pitch_bend_c, 11, 6538
1, 30311, Control_c, 11, 11, 112
1, 30311, Pitch_bend_c, 11, 6516
1, 30312, Pitch_bend_c, 11, 6493
1, 30313, Pitch_bend_c, 11, 6470
1, 30314, Pitch_bend_c, 11, 6448
1, 30315, Pitch_bend_c, 11, 6425
1, 30316, Control_c, 11, 11, 111
1, 30316, Pitch_bend_c, 11, 6402
1, 30317, Pitch_bend_c, 11, 6380
1, 30318, Pitch_bend_c, 11, 6357
1, 30319, Pitch_bend_c, 11, 6334
1, 30320, Control_c, 11, 11, 110
1, 30320, Pitch_bend_c, 11, 6312
1, 30321, Note_on_c, 5, 55, 0
1, 30321, Pitch_bend_c, 11, 6289
1, 30322, Pitch_bend_c, 11, 6266
1, 30323, Pitch_bend_c, 11, 6244
1, 30324, Pitch_bend_c, 11, 6221
1, 30325, Control_c, 11, 11, 109
1, 30325, Pitch_bend_c, 11, 6198
1, 30326, Pitch_bend_c, 11, 6176
1, 30327, Pitch_bend_c, 11, 6153
1, 30328, Pitch_bend_c, 11, 6130
1, 30329, Control_c, 11, 11, 108
1, 30329, Pitch_bend_c, 11, 6108
1, 30330, Pitch_bend_c, 11, 6085
1, 30331, Pitch_bend_c, 11, 6062
1, 30332, Pitch_bend_c, 11, 6040
1, 30333, Pitch_bend_c, 11, 6017
1, 30334, Control_c, 11, 11, 107
1, 30334, Pitch_bend_c, 11, 5994
1, 30335, Pitch_bend_c, 11, 5972
1, 30336, Pitch_bend_c, 11, 5949
1, 30337, Pitch_bend_c, 11, 5926
1, 30338, Control_c, 11, 11, 106
1, 30338, Pitch_bend_c, 11, 5904
1, 30339, Pitch_bend_c, 11, 5881
1, 30340, Pitch_bend_c, 11, 5858
1, 30341, Pitch_bend_c, 11, 5836
1, 30342, Note_on_c, 4, 67, 0
1, 30342, Note_on_c, 15, 63, 0
1, 30342, Note_on_c, 4, 63, 0
1, 30342, Note_on_c, 15, 67, 0
1, 30342, Pitch_bend_c, 11, 5813
1, 30343, Control_c, 11, 11, 105
1, 30343, Pitch_bend_c, 11, 5790
1, 30344, Pitch_bend_c, 11, 5768
1, 30345, Pitch_bend_c, 11, 5745
1, 30346, Pitch_bend_c, 11, 5722
1, 30347, Control_c, 11, 11, 104
1, 30347, Pitch_bend_c, 11, 5700
1, 30348, Pitch_bend_c, 11, 5677
1, 30349, Pitch_bend_c, 11, 5654
1, 30350, Note_on_c, 0, 67, 0
1, 30350, Pitch_bend_c, 11, 5632
1, 30351, Pitch_bend_c, 11, 5609
1, 30352, Note_on_c, 7, 82, 0
1, 30352, Control_c, 11, 11, 103
1, 30352, Pitch_bend_c, 11, 5586
1, 30353, Note_on_c, 3, 67, 0
1, 30353, Pitch_bend_c, 11, 5564
1, 30354, Note_on_c, 7, 67, 0
1, 30354, Pitch_bend_c, 11, 5541
1, 30355, Note_on_c, 7, 56, 0
1, 30355, Pitch_bend_c, 11, 5518
1, 30356, Note_on_c, 0, 63, 0
1, 30356, Note_on_c, 7, 60, 0
1, 30356, Control_c, 11, 11, 102
1, 30356, Pitch_bend_c, 11, 5496
1, 30357, Pitch_bend_c, 11, 5473
1, 30358, Note_on_c, 0, 60, 0
1, 30358, Pitch_bend_c, 11, 5451
1, 30359, Pitch_bend_c, 11, 5428
1, 30360, Note_on_c, 3, 60, 103
1, 30360, Note_on_c, 4, 63, 86
1, 30360, Note_on_c, 4, 67, 101
1, 30360, Note_on_c, 5, 55, 113
1, 30360, Note_on_c, 6, 79, 109
1, 30360, Note_on_c, 7, 79, 98
1, 30360, Note_on_c, 9, 39, 120
1, 30360, Pitch_bend_c, 11, 5405
1, 30360, Note_on_c, 12, 96, 120
1, 30360, Pitch_bend_c, 12, 8125
1, 30360, Note_on_c, 15, 67, 1
1, 30360, Note_on_c, 15, 63, 1
1, 30360, Lyric_t, "are "
1, 30361, Control_c, 11, 11, 101
1, 30361, Pitch_bend_c, 11, 5383
1, 30361, Pitch_bend_c, 12, 8102
1, 30362, Pitch_bend_c, 11, 5360
1, 30362, Pitch_bend_c, 12, 8079
1, 30363, Pitch_bend_c, 11, 5337
1, 30363, Pitch_bend_c, 12, 8057
1, 30364, Pitch_bend_c, 11, 5315
1, 30364, Pitch_bend_c, 12, 8034
1, 30365, Control_c, 11, 11, 100
1, 30365, Pitch_bend_c, 11, 5292
1, 30365, Pitch_bend_c, 12, 8011
1, 30366, Pitch_bend_c, 11, 5269
1, 30366, Pitch_bend_c, 12, 7989
1, 30367, Pitch_bend_c, 11, 5247
1, 30367, Pitch_bend_c, 12, 7966
1, 30368, Pitch_bend_c, 11, 5224
1, 30368, Control_c, 12, 11, 126
1, 30368, Pitch_bend_c, 12, 7943
1, 30369, Pitch_bend_c, 11, 5201
1, 30369, Pitch_bend_c, 12, 7921
1, 30370, Note_on_c, 6, 82, 0
1, 30370, Control_c, 11, 11, 99
1, 30370, Pitch_bend_c, 11, 5179
1, 30370, Pitch_bend_c, 12, 7898
1, 30371, Pitch_bend_c, 11, 5156
1, 30371, Pitch_bend_c, 12, 7875
1, 30372, Pitch_bend_c, 11, 5133
1, 30372, Pitch_bend_c, 12, 7853
1, 30373, Pitch_bend_c, 11, 5111
1, 30373, Control_c, 12, 11, 125
1, 30373, Pitch_bend_c, 12, 7830
1, 30374, Control_c, 11, 11, 98
1, 30374, Pitch_bend_c, 11, 5088
1, 30374, Pitch_bend_c, 12, 7807
1, 30375, Pitch_bend_c, 11, 5065
1, 30375, Pitch_bend_c, 12, 7785
1, 30376, Note_on_c, 15, 67, 0
1, 30376, Note_on_c, 4, 67, 0
1, 30376, Note_on_c, 4, 63, 0
1, 30376, Note_on_c, 15, 63, 0
1, 30376, Pitch_bend_c, 11, 5043
1, 30376, Pitch_bend_c, 12, 7762
1, 30377, Pitch_bend_c, 11, 5020
1, 30377, Control_c, 12, 11, 124
1, 30377, Pitch_bend_c, 12, 7739
1, 30378, Note_on_c, 5, 55, 0
1, 30378, Pitch_bend_c, 11, 4997
1, 30378, Pitch_bend_c, 12, 7717
1, 30379, Control_c, 11, 11, 97
1, 30379, Pitch_bend_c, 11, 4975
1, 30379, Pitch_bend_c, 12, 7694
1, 30380, Pitch_bend_c, 11, 4952
1, 30380, Pitch_bend_c, 12, 7671
1, 30381, Pitch_bend_c, 11, 4929
1, 30381, Pitch_bend_c, 12, 7649
1, 30382, Note_on_c, 9, 39, 0
1, 30382, Pitch_bend_c, 11, 4907
1, 30382, Control_c, 12, 11, 123
1, 30382, Pitch_bend_c, 12, 7626
1, 30383, Note_on_c, 3, 60, 0
1, 30383, Control_c, 11, 11, 96
1, 30383, Pitch_bend_c, 11, 4884
1, 30383, Pitch_bend_c, 12, 7603
1, 30384, Pitch_bend_c, 11, 4861
1, 30384, Pitch_bend_c, 12, 7581
1, 30385, Pitch_bend_c, 11, 4839
1, 30385, Pitch_bend_c, 12, 7558
1, 30386, Pitch_bend_c, 11, 4816
1, 30386, Control_c, 12, 11, 122
1, 30386, Pitch_bend_c, 12, 7535
1, 30387, Pitch_bend_c, 11, 4793
1, 30387, Pitch_bend_c, 12, 7513
1, 30388, Control_c, 11, 11, 95
1, 30388, Pitch_bend_c, 11, 4771
1, 30388, Pitch_bend_c, 12, 7490
1, 30389, Pitch_bend_c, 11, 4748
1, 30389, Pitch_bend_c, 12, 7467
1, 30390, Note_on_c, 0, 60, 83
1, 30390, Note_on_c, 0, 63, 73
1, 30390, Note_on_c, 0, 67, 82
1, 30390, Pitch_bend_c, 11, 4725
1, 30390, Pitch_bend_c, 12, 7445
1, 30391, Note_on_c, 0, 67, 0
1, 30391, Note_on_c, 0, 60, 0
1, 30391, Note_on_c, 0, 63, 0
1, 30391, Pitch_bend_c, 11, 4703
1, 30391, Control_c, 12, 11, 121
1, 30391, Pitch_bend_c, 12, 7422
1, 30392, Control_c, 11, 11, 94
1, 30392, Pitch_bend_c, 11, 4680
1, 30392, Pitch_bend_c, 12, 7399
1, 30393, Pitch_bend_c, 11, 4657
1, 30393, Pitch_bend_c, 12, 7377
1, 30394, Pitch_bend_c, 11, 4635
1, 30394, Pitch_bend_c, 12, 7354
1, 30395, Pitch_bend_c, 11, 4612
1, 30395, Control_c, 12, 11, 120
1, 30395, Pitch_bend_c, 12, 7331
1, 30396, Pitch_bend_c, 11, 4589
1, 30396, Pitch_bend_c, 12, 7309
1, 30397, Control_c, 11, 11, 93
1, 30397, Pitch_bend_c, 11, 4567
1, 30397, Pitch_bend_c, 12, 7286
1, 30398, Pitch_bend_c, 11, 4544
1, 30398, Pitch_bend_c, 12, 7263
1, 30399, Pitch_bend_c, 11, 4521
1, 30399, Pitch_bend_c, 12, 7241
1, 30400, Pitch_bend_c, 11, 4499
1, 30400, Control_c, 12, 11, 119
1, 30400, Pitch_bend_c, 12, 7218
1, 30401, Control_c, 11, 11, 92
1, 30401, Pitch_bend_c, 11, 4476
1, 30401, Pitch_bend_c, 12, 7195
1, 30402, Pitch_bend_c, 11, 4453
1, 30402, Pitch_bend_c, 12, 7173
1, 30403, Pitch_bend_c, 11, 4431
1, 30403, Pitch_bend_c, 12, 7150
1, 30404, Pitch_bend_c, 11, 4408
1, 30404, Control_c, 12, 11, 118
1, 30404, Pitch_bend_c, 12, 7127
1, 30405, Pitch_bend_c, 11, 4385
1, 30405, Pitch_bend_c, 12, 7105
1, 30406, Control_c, 11, 11, 91
1, 30406, Pitch_bend_c, 11, 4363
1, 30406, Pitch_bend_c, 12, 7082
1, 30407, Pitch_bend_c, 11, 4340
1, 30407, Pitch_bend_c, 12, 7059
1, 30408, Pitch_bend_c, 11, 4317
1, 30408, Pitch_bend_c, 12, 7037
1, 30409, Pitch_bend_c, 11, 4295
1, 30409, Control_c, 12, 11, 117
1, 30409, Pitch_bend_c, 12, 7014
1, 30410, Control_c, 11, 11, 90
1, 30410, Pitch_bend_c, 11, 4272
1, 30410, Pitch_bend_c, 12, 6991
1, 30411, Pitch_bend_c, 11, 4249
1, 30411, Pitch_bend_c, 12, 6969
1, 30412, Pitch_bend_c, 11, 4227
1, 30412, Pitch_bend_c, 12, 6946
1, 30413, Pitch_bend_c, 11, 4204
1, 30413, Control_c, 12, 11, 116
1, 30413, Pitch_bend_c, 12, 6923
1, 30414, Pitch_bend_c, 11, 4181
1, 30414, Pitch_bend_c, 12, 6901
1, 30415, Control_c, 11, 11, 89
1, 30415, Pitch_bend_c, 11, 4159
1, 30415, Pitch_bend_c, 12, 6878
1, 30416, Pitch_bend_c, 11, 4136
1, 30416, Pitch_bend_c, 12, 6855
1, 30417, Pitch_bend_c, 11, 4113
1, 30417, Pitch_bend_c, 12, 6833
1, 30418, Pitch_bend_c, 11, 4091
1, 30418, Control_c, 12, 11, 115
1, 30418, Pitch_bend_c, 12, 6810
1, 30419, Control_c, 11, 11, 88
1, 30419, Pitch_bend_c, 11, 4068
1, 30419, Pitch_bend_c, 12, 6788
1, 30420, Note_on_c, 0, 60, 98
1, 30420, Note_on_c, 0, 63, 80
1, 30420, Note_on_c, 0, 67, 91
1, 30420, Note_on_c, 3, 60, 111
1, 30420, Note_on_c, 4, 63, 111
1, 30420, Note_on_c, 4, 67, 105
1, 30420, Note_on_c, 5, 55, 116
1, 30420, Pitch_bend_c, 11, 4046
1, 30420, Pitch_bend_c, 12, 6765
1, 30420, Note_on_c, 15, 67, 1
1, 30420, Note_on_c, 15, 63, 1
1, 30420, Lyric_t, "my "
1, 30421, Note_on_c, 0, 67, 0
1, 30421, Note_on_c, 0, 63, 0
1, 30421, Note_on_c, 0, 60, 0
1, 30421, Pitch_bend_c, 11, 4023
1, 30421, Pitch_bend_c, 12, 6742
1, 30422, Pitch_bend_c, 11, 4000
1, 30422, Control_c, 12, 11, 114
1, 30422, Pitch_bend_c, 12, 6720
1, 30423, Pitch_bend_c, 11, 3978
1, 30423, Pitch_bend_c, 12, 6697
1, 30424, Control_c, 11, 11, 87
1, 30424, Pitch_bend_c, 11, 3955
1, 30424, Pitch_bend_c, 12, 6674
1, 30425, Pitch_bend_c, 11, 3932
1, 30425, Pitch_bend_c, 12, 6652
1, 30426, Pitch_bend_c, 11, 3910
1, 30426, Pitch_bend_c, 12, 6629
1, 30427, Pitch_bend_c, 11, 3887
1, 30427, Control_c, 12, 11, 113
1, 30427, Pitch_bend_c, 12, 6606
1, 30428, Control_c, 11, 11, 86
1, 30428, Pitch_bend_c, 11, 3864
1, 30428, Pitch_bend_c, 12, 6584
1, 30429, Pitch_bend_c, 11, 3842
1, 30429, Pitch_bend_c, 12, 6561
1, 30430, Pitch_bend_c, 11, 3819
1, 30430, Pitch_bend_c, 12, 6538
1, 30431, Pitch_bend_c, 11, 3796
1, 30431, Control_c, 12, 11, 112
1, 30431, Pitch_bend_c, 12, 6516
1, 30432, Pitch_bend_c, 11, 3774
1, 30432, Pitch_bend_c, 12, 6493
1, 30433, Pitch_bend_c, 11, 3751
1, 30433, Pitch_bend_c, 12, 6470
1, 30434, Pitch_bend_c, 11, 3728
1, 30434, Pitch_bend_c, 12, 6448
1, 30435, Pitch_bend_c, 11, 3706
1, 30435, Pitch_bend_c, 12, 6425
1, 30436, Pitch_bend_c, 11, 3683
1, 30436, Control_c, 12, 11, 111
1, 30436, Pitch_bend_c, 12, 6402
1, 30437, Control_c, 11, 11, 85
1, 30437, Pitch_bend_c, 11, 3660
1, 30437, Pitch_bend_c, 12, 6380
1, 30438, Note_on_c, 5, 55, 0
1, 30438, Pitch_bend_c, 11, 3638
1, 30438, Pitch_bend_c, 12, 6357
1, 30439, Note_on_c, 4, 63, 0
1, 30439, Note_on_c, 15, 63, 0
1, 30439, Pitch_bend_c, 11, 3615
1, 30439, Pitch_bend_c, 12, 6334
1, 30440, Pitch_bend_c, 11, 3592
1, 30440, Control_c, 12, 11, 110
1, 30440, Pitch_bend_c, 12, 6312
1, 30441, Note_on_c, 4, 67, 0
1, 30441, Note_on_c, 15, 67, 0
1, 30441, Pitch_bend_c, 11, 3570
1, 30441, Pitch_bend_c, 12, 6289
1, 30442, Control_c, 11, 11, 84
1, 30442, Pitch_bend_c, 11, 3547
1, 30442, Pitch_bend_c, 12, 6266
1, 30443, Pitch_bend_c, 11, 3524
1, 30443, Pitch_bend_c, 12, 6244
1, 30444, Note_on_c, 3, 60, 0
1, 30444, Pitch_bend_c, 11, 3502
1, 30444, Pitch_bend_c, 12, 6221
1, 30445, Pitch_bend_c, 11, 3479
1, 30445, Control_c, 12, 11, 109
1, 30445, Pitch_bend_c, 12, 6198
1, 30446, Control_c, 11, 11, 83
1, 30446, Pitch_bend_c, 11, 3456
1, 30446, Pitch_bend_c, 12, 6176
1, 30447, Pitch_bend_c, 11, 3434
1, 30447, Pitch_bend_c, 12, 6153
1, 30448, Pitch_bend_c, 11, 3411
1, 30448, Pitch_bend_c, 12, 6130
1, 30449, Pitch_bend_c, 11, 3388
1, 30449, Control_c, 12, 11, 108
1, 30449, Pitch_bend_c, 12, 6108
1, 30450, Note_on_c, 0, 60, 98
1, 30450, Note_on_c, 0, 63, 77
1, 30450, Note_on_c, 0, 67, 90
1, 30450, Pitch_bend_c, 11, 3366
1, 30450, Pitch_bend_c, 12, 6085
1, 30451, Note_on_c, 0, 67, 0
1, 30451, Note_on_c, 0, 60, 0
1, 30451, Note_on_c, 0, 63, 0
1, 30451, Control_c, 11, 11, 82
1, 30451, Pitch_bend_c, 11, 3343
1, 30451, Pitch_bend_c, 12, 6062
1, 30452, Pitch_bend_c, 11, 3320
1, 30452, Pitch_bend_c, 12, 6040
1, 30453, Pitch_bend_c, 11, 3298
1, 30453, Pitch_bend_c, 12, 6017
1, 30454, Pitch_bend_c, 11, 3275
1, 30454, Control_c, 12, 11, 107
1, 30454, Pitch_bend_c, 12, 5994
1, 30455, Control_c, 11, 11, 81
1, 30455, Pitch_bend_c, 11, 3252
1, 30455, Pitch_bend_c, 12, 5972
1, 30456, Pitch_bend_c, 11, 3230
1, 30456, Pitch_bend_c, 12, 5949
1, 30457, Pitch_bend_c, 11, 3207
1, 30457, Pitch_bend_c, 12, 5926
1, 30458, Pitch_bend_c, 11, 3184
1, 30458, Control_c, 12, 11, 106
1, 30458, Pitch_bend_c, 12, 5904
1, 30459, Pitch_bend_c, 11, 3162
1, 30459, Pitch_bend_c, 12, 5881
1, 30460, Control_c, 11, 11, 80
1, 30460, Pitch_bend_c, 11, 3139
1, 30460, Pitch_bend_c, 12, 5858
1, 30461, Pitch_bend_c, 11, 3116
1, 30461, Pitch_bend_c, 12, 5836
1, 30462, Pitch_bend_c, 11, 3094
1, 30462, Pitch_bend_c, 12, 5813
1, 30463, Pitch_bend_c, 11, 3071
1, 30463, Control_c, 12, 11, 105
1, 30463, Pitch_bend_c, 12, 5790
1, 30464, Control_c, 11, 11, 79
1, 30464, Pitch_bend_c, 11, 3048
1, 30464, Pitch_bend_c, 12, 5768
1, 30465, Pitch_bend_c, 11, 3026
1, 30465, Pitch_bend_c, 12, 5745
1, 30466, Pitch_bend_c, 11, 3003
1, 30466, Pitch_bend_c, 12, 5722
1, 30467, Pitch_bend_c, 11, 2980
1, 30467, Control_c, 12, 11, 104
1, 30467, Pitch_bend_c, 12, 5700
1, 30468, Pitch_bend_c, 11, 2958
1, 30468, Pitch_bend_c, 12, 5677
1, 30469, Control_c, 11, 11, 78
1, 30469, Pitch_bend_c, 11, 2935
1, 30469, Pitch_bend_c, 12, 5654
1, 30470, Pitch_bend_c, 11, 2912
1, 30470, Pitch_bend_c, 12, 5632
1, 30471, Pitch_bend_c, 11, 2890
1, 30471, Pitch_bend_c, 12, 5609
1, 30472, Pitch_bend_c, 11, 2867
1, 30472, Control_c, 12, 11, 103
1, 30472, Pitch_bend_c, 12, 5586
1, 30473, Control_c, 11, 11, 77
1, 30473, Pitch_bend_c, 11, 2844
1, 30473, Pitch_bend_c, 12, 5564
1, 30474, Pitch_bend_c, 11, 2822
1, 30474, Pitch_bend_c, 12, 5541
1, 30475, Pitch_bend_c, 11, 2799
1, 30475, Pitch_bend_c, 12, 5518
1, 30476, Pitch_bend_c, 11, 2776
1, 30476, Control_c, 12, 11, 102
1, 30476, Pitch_bend_c, 12, 5496
1, 30477, Pitch_bend_c, 11, 2754
1, 30477, Pitch_bend_c, 12, 5473
1, 30478, Control_c, 11, 11, 76
1, 30478, Pitch_bend_c, 11, 2731
1, 30478, Pitch_bend_c, 12, 5451
1, 30479, Pitch_bend_c, 11, 2709
1, 30479, Pitch_bend_c, 12, 5428
1, 30480, Note_on_c, 0, 56, 96
1, 30480, Note_on_c, 0, 60, 119
1, 30480, Note_on_c, 0, 63, 91
1, 30480, Note_on_c, 3, 63, 106
1, 30480, Note_on_c, 4, 63, 111
1, 30480, Note_on_c, 4, 67, 109
1, 30480, Note_on_c, 5, 55, 119
1, 30480, Note_on_c, 6, 75, 119
1, 30480, Note_on_c, 7, 56, 111
1, 30480, Note_on_c, 7, 60, 119
1, 30480, Note_on_c, 7, 67, 116
1, 30480, Note_on_c, 7, 75, 100
1, 30480, Pitch_bend_c, 11, 2686
1, 30480, Pitch_bend_c, 12, 5405
1, 30480, Note_on_c, 15, 67, 1
1, 30480, Note_on_c, 15, 63, 1
1, 30480, Lyric_t, "trea"
1, 30481, Pitch_bend_c, 11, 2663
1, 30481, Control_c, 12, 11, 101
1, 30481, Pitch_bend_c, 12, 5383
1, 30482, Control_c, 11, 11, 75
1, 30482, Pitch_bend_c, 11, 2641
1, 30482, Pitch_bend_c, 12, 5360
1, 30483, Note_on_c, 7, 79, 0
1, 30483, Pitch_bend_c, 11, 2618
1, 30483, Pitch_bend_c, 12, 5337
1, 30484, Pitch_bend_c, 11, 2595
1, 30484, Pitch_bend_c, 12, 5315
1, 30485, Pitch_bend_c, 11, 2573
1, 30485, Control_c, 12, 11, 100
1, 30485, Pitch_bend_c, 12, 5292
1, 30486, Pitch_bend_c, 11, 2550
1, 30486, Pitch_bend_c, 12, 5269
1, 30487, Control_c, 11, 11, 74
1, 30487, Pitch_bend_c, 11, 2527
1, 30487, Pitch_bend_c, 12, 5247
1, 30488, Note_on_c, 6, 79, 0
1, 30488, Pitch_bend_c, 11, 2505
1, 30488, Pitch_bend_c, 12, 5224
1, 30489, Pitch_bend_c, 11, 2482
1, 30489, Pitch_bend_c, 12, 5201
1, 30490, Pitch_bend_c, 11, 2459
1, 30490, Control_c, 12, 11, 99
1, 30490, Pitch_bend_c, 12, 5179
1, 30491, Control_c, 11, 11, 73
1, 30491, Pitch_bend_c, 11, 2437
1, 30491, Pitch_bend_c, 12, 5156
1, 30492, Pitch_bend_c, 11, 2414
1, 30492, Pitch_bend_c, 12, 5133
1, 30493, Pitch_bend_c, 11, 2391
1, 30493, Pitch_bend_c, 12, 5111
1, 30494, Pitch_bend_c, 11, 2369
1, 30494, Control_c, 12, 11, 98
1, 30494, Pitch_bend_c, 12, 5088
1, 30495, Pitch_bend_c, 11, 2346
1, 30495, Pitch_bend_c, 12, 5065
1, 30496, Control_c, 11, 11, 72
1, 30496, Pitch_bend_c, 11, 2323
1, 30496, Pitch_bend_c, 12, 5043
1, 30497, Pitch_bend_c, 11, 2301
1, 30497, Pitch_bend_c, 12, 5020
1, 30498, Pitch_bend_c, 11, 2278
1, 30498, Pitch_bend_c, 12, 4997
1, 30499, Pitch_bend_c, 11, 2255
1, 30499, Control_c, 12, 11, 97
1, 30499, Pitch_bend_c, 12, 4975
1, 30500, Control_c, 11, 11, 71
1, 30500, Pitch_bend_c, 11, 2233
1, 30500, Pitch_bend_c, 12, 4952
1, 30501, Pitch_bend_c, 11, 2210
1, 30501, Pitch_bend_c, 12, 4929
1, 30502, Pitch_bend_c, 11, 2187
1, 30502, Pitch_bend_c, 12, 4907
1, 30503, Pitch_bend_c, 11, 2165
1, 30503, Control_c, 12, 11, 96
1, 30503, Pitch_bend_c, 12, 4884
1, 30504, Pitch_bend_c, 11, 2142
1, 30504, Pitch_bend_c, 12, 4861
1, 30505, Control_c, 11, 11, 70
1, 30505, Pitch_bend_c, 11, 2119
1, 30505, Pitch_bend_c, 12, 4839
1, 30506, Pitch_bend_c, 11, 2097
1, 30506, Pitch_bend_c, 12, 4816
1, 30507, Pitch_bend_c, 11, 2074
1, 30507, Pitch_bend_c, 12, 4793
1, 30508, Pitch_bend_c, 11, 2051
1, 30508, Control_c, 12, 11, 95
1, 30508, Pitch_bend_c, 12, 4771
1, 30509, Note_on_c, 0, 56, 0
1, 30509, Control_c, 11, 11, 69
1, 30509, Pitch_bend_c, 11, 2029
1, 30509, Pitch_bend_c, 12, 4748
1, 30510, Pitch_bend_c, 11, 2006
1, 30510, Pitch_bend_c, 12, 4725
1, 30511, Note_on_c, 0, 60, 0
1, 30511, Pitch_bend_c, 11, 1983
1, 30511, Pitch_bend_c, 12, 4703
1, 30512, Pitch_bend_c, 11, 1961
1, 30512, Control_c, 12, 11, 94
1, 30512, Pitch_bend_c, 12, 4680
1, 30513, Note_on_c, 7, 67, 0
1, 30513, Note_on_c, 7, 60, 0
1, 30513, Pitch_bend_c, 11, 1938
1, 30513, Pitch_bend_c, 12, 4657
1, 30514, Note_on_c, 0, 63, 0
1, 30514, Control_c, 11, 11, 68
1, 30514, Pitch_bend_c, 11, 1915
1, 30514, Pitch_bend_c, 12, 4635
1, 30515, Pitch_bend_c, 11, 1893
1, 30515, Pitch_bend_c, 12, 4612
1, 30516, Pitch_bend_c, 11, 1870
1, 30516, Pitch_bend_c, 12, 4589
1, 30517, Pitch_bend_c, 11, 1847
1, 30517, Control_c, 12, 11, 93
1, 30517, Pitch_bend_c, 12, 4567
1, 30518, Control_c, 11, 11, 67
1, 30518, Pitch_bend_c, 11, 1825
1, 30518, Pitch_bend_c, 12, 4544
1, 30519, Pitch_bend_c, 11, 1802
1, 30519, Pitch_bend_c, 12, 4521
1, 30520, Note_on_c, 7, 56, 0
1, 30520, Pitch_bend_c, 11, 1779
1, 30520, Pitch_bend_c, 12, 4499
1, 30521, Pitch_bend_c, 11, 1757
1, 30521, Control_c, 12, 11, 92
1, 30521, Pitch_bend_c, 12, 4476
1, 30522, Pitch_bend_c, 11, 1734
1, 30522, Pitch_bend_c, 12, 4453
1, 30523, Control_c, 11, 11, 66
1, 30523, Pitch_bend_c, 11, 1711
1, 30523, Pitch_bend_c, 12, 4431
1, 30524, Pitch_bend_c, 11, 1689
1, 30524, Pitch_bend_c, 12, 4408
1, 30525, Pitch_bend_c, 11, 1666
1, 30525, Pitch_bend_c, 12, 4385
1, 30526, Pitch_bend_c, 11, 1643
1, 30526, Control_c, 12, 11, 91
1, 30526, Pitch_bend_c, 12, 4363
1, 30527, Control_c, 11, 11, 65
1, 30527, Pitch_bend_c, 11, 1621
1, 30527, Pitch_bend_c, 12, 4340
1, 30528, Pitch_bend_c, 11, 1598
1, 30528, Pitch_bend_c, 12, 4317
1, 30529, Pitch_bend_c, 11, 1575
1, 30529, Pitch_bend_c, 12, 4295
1, 30530, Pitch_bend_c, 11, 1553
1, 30530, Control_c, 12, 11, 90
1, 30530, Pitch_bend_c, 12, 4272
1, 30531, Pitch_bend_c, 11, 1530
1, 30531, Pitch_bend_c, 12, 4249
1, 30532, Control_c, 11, 11, 64
1, 30532, Pitch_bend_c, 11, 1507
1, 30532, Pitch_bend_c, 12, 4227
1, 30533, Pitch_bend_c, 11, 1485
1, 30533, Pitch_bend_c, 12, 4204
1, 30534, Pitch_bend_c, 11, 1462
1, 30534, Pitch_bend_c, 12, 4181
1, 30535, Pitch_bend_c, 11, 1439
1, 30535, Control_c, 12, 11, 89
1, 30535, Pitch_bend_c, 12, 4159
1, 30536, Control_c, 11, 11, 63
1, 30536, Pitch_bend_c, 11, 1417
1, 30536, Pitch_bend_c, 12, 4136
1, 30537, Pitch_bend_c, 11, 1394
1, 30537, Pitch_bend_c, 12, 4113
1, 30538, Note_on_c, 5, 55, 0
1, 30538, Pitch_bend_c, 11, 1371
1, 30538, Pitch_bend_c, 12, 4091
1, 30539, Pitch_bend_c, 11, 1349
1, 30539, Control_c, 12, 11, 88
1, 30539, Pitch_bend_c, 12, 4068
1, 30540, Note_on_c, 0, 56, 82
1, 30540, Note_on_c, 0, 60, 111
1, 30540, Note_on_c, 0, 63, 80
1, 30540, Pitch_bend_c, 11, 1326
1, 30540, Pitch_bend_c, 12, 4046
1, 30541, Note_on_c, 0, 63, 0
1, 30541, Note_on_c, 0, 56, 0
1, 30541, Note_on_c, 15, 67, 0
1, 30541, Note_on_c, 4, 67, 0
1, 30541, Note_on_c, 0, 60, 0
1, 30541, Control_c, 11, 11, 62
1, 30541, Pitch_bend_c, 11, 1304
1, 30541, Pitch_bend_c, 12, 4023
1, 30542, Pitch_bend_c, 11, 1281
1, 30542, Pitch_bend_c, 12, 4000
1, 30543, Note_on_c, 4, 63, 0
1, 30543, Note_on_c, 15, 63, 0
1, 30543, Pitch_bend_c, 11, 1258
1, 30543, Pitch_bend_c, 12, 3978
1, 30544, Pitch_bend_c, 11, 1236
1, 30544, Control_c, 12, 11, 87
1, 30544, Pitch_bend_c, 12, 3955
1, 30545, Control_c, 11, 11, 61
1, 30545, Pitch_bend_c, 11, 1213
1, 30545, Pitch_bend_c, 12, 3932
1, 30546, Pitch_bend_c, 11, 1190
1, 30546, Pitch_bend_c, 12, 3910
1, 30547, Pitch_bend_c, 11, 1168
1, 30547, Pitch_bend_c, 12, 3887
1, 30548, Pitch_bend_c, 11, 1145
1, 30548, Control_c, 12, 11, 86
1, 30548, Pitch_bend_c, 12, 3864
1, 30549, Note_on_c, 3, 63, 0
1, 30549, Pitch_bend_c, 11, 1122
1, 30549, Pitch_bend_c, 12, 3842
1, 30550, Control_c, 11, 11, 60
1, 30550, Pitch_bend_c, 11, 1100
1, 30550, Pitch_bend_c, 12, 3819
1, 30551, Pitch_bend_c, 11, 1077
1, 30551, Pitch_bend_c, 12, 3796
1, 30552, Pitch_bend_c, 11, 1054
1, 30552, Pitch_bend_c, 12, 3774
1, 30553, Pitch_bend_c, 11, 1032
1, 30553, Pitch_bend_c, 12, 3751
1, 30554, Control_c, 11, 11, 59
1, 30554, Pitch_bend_c, 11, 1009
1, 30554, Pitch_bend_c, 12, 3728
1, 30555, Pitch_bend_c, 11, 986
1, 30555, Pitch_bend_c, 12, 3706
1, 30556, Pitch_bend_c, 11, 964
1, 30556, Pitch_bend_c, 12, 3683
1, 30557, Pitch_bend_c, 11, 941
1, 30557, Control_c, 12, 11, 85
1, 30557, Pitch_bend_c, 12, 3660
1, 30558, Pitch_bend_c, 11, 918
1, 30558, Pitch_bend_c, 12, 3638
1, 30559, Control_c, 11, 11, 58
1, 30559, Pitch_bend_c, 11, 896
1, 30559, Pitch_bend_c, 12, 3615
1, 30560, Pitch_bend_c, 11, 873
1, 30560, Pitch_bend_c, 12, 3592
1, 30561, Pitch_bend_c, 11, 850
1, 30561, Pitch_bend_c, 12, 3570
1, 30562, Pitch_bend_c, 11, 828
1, 30562, Control_c, 12, 11, 84
1, 30562, Pitch_bend_c, 12, 3547
1, 30563, Control_c, 11, 11, 57
1, 30563, Pitch_bend_c, 11, 805
1, 30563, Pitch_bend_c, 12, 3524
1, 30564, Pitch_bend_c, 11, 782
1, 30564, Pitch_bend_c, 12, 3502
1, 30565, Pitch_bend_c, 11, 760
1, 30565, Pitch_bend_c, 12, 3479
1, 30566, Pitch_bend_c, 11, 737
1, 30566, Control_c, 12, 11, 83
1, 30566, Pitch_bend_c, 12, 3456
1, 30567, Pitch_bend_c, 11, 714
1, 30567, Pitch_bend_c, 12, 3434
1, 30568, Control_c, 11, 11, 56
1, 30568, Pitch_bend_c, 11, 692
1, 30568, Pitch_bend_c, 12, 3411
1, 30569, Pitch_bend_c, 11, 669
1, 30569, Pitch_bend_c, 12, 3388
1, 30570, Note_on_c, 0, 58, 91
1, 30570, Note_on_c, 0, 62, 119
1, 30570, Note_on_c, 0, 65, 89
1, 30570, Note_on_c, 3, 60, 119
1, 30570, Note_on_c, 4, 63, 109
1, 30570, Note_on_c, 4, 67, 101
1, 30570, Note_on_c, 5, 55, 120
1, 30570, Note_on_c, 7, 55, 118
1, 30570, Note_on_c, 7, 58, 120
1, 30570, Note_on_c, 7, 65, 98
1, 30570, Pitch_bend_c, 11, 646
1, 30570, Pitch_bend_c, 12, 3366
1, 30570, Note_on_c, 15, 67, 1
1, 30570, Note_on_c, 15, 63, 1
1, 30570, Lyric_t, "sure, "
1, 30570, Lyric_t, "\015"
1, 30571, Pitch_bend_c, 11, 624
1, 30571, Control_c, 12, 11, 82
1, 30571, Pitch_bend_c, 12, 3343
1, 30572, Control_c, 11, 11, 55
1, 30572, Pitch_bend_c, 11, 601
1, 30572, Pitch_bend_c, 12, 3320
1, 30573, Pitch_bend_c, 11, 578
1, 30573, Pitch_bend_c, 12, 3298
1, 30574, Pitch_bend_c, 11, 556
1, 30574, Pitch_bend_c, 12, 3275
1, 30575, Pitch_bend_c, 11, 533
1, 30575, Control_c, 12, 11, 81
1, 30575, Pitch_bend_c, 12, 3252
1, 30576, Pitch_bend_c, 11, 510
1, 30576, Pitch_bend_c, 12, 3230
1, 30577, Control_c, 11, 11, 54
1, 30577, Pitch_bend_c, 11, 488
1, 30577, Pitch_bend_c, 12, 3207
1, 30578, Pitch_bend_c, 11, 465
1, 30578, Pitch_bend_c, 12, 3184
1, 30579, Pitch_bend_c, 11, 442
1, 30579, Pitch_bend_c, 12, 3162
1, 30580, Pitch_bend_c, 11, 420
1, 30580, Control_c, 12, 11, 80
1, 30580, Pitch_bend_c, 12, 3139
1, 30581, Control_c, 11, 11, 53
1, 30581, Pitch_bend_c, 11, 397
1, 30581, Pitch_bend_c, 12, 3116
1, 30582, Pitch_bend_c, 11, 374
1, 30582, Pitch_bend_c, 12, 3094
1, 30583, Pitch_bend_c, 11, 352
1, 30583, Pitch_bend_c, 12, 3071
1, 30584, Pitch_bend_c, 11, 329
1, 30584, Control_c, 12, 11, 79
1, 30584, Pitch_bend_c, 12, 3048
1, 30585, Pitch_bend_c, 11, 306
1, 30585, Pitch_bend_c, 12, 3026
1, 30586, Note_on_c, 15, 63, 0
1, 30586, Note_on_c, 5, 55, 0
1, 30586, Note_on_c, 4, 63, 0
1, 30586, Control_c, 11, 11, 52
1, 30586, Pitch_bend_c, 11, 284
1, 30586, Pitch_bend_c, 12, 3003
1, 30587, Pitch_bend_c, 11, 261
1, 30587, Pitch_bend_c, 12, 2980
1, 30588, Pitch_bend_c, 11, 238
1, 30588, Pitch_bend_c, 12, 2958
1, 30589, Pitch_bend_c, 11, 216
1, 30589, Control_c, 12, 11, 78
1, 30589, Pitch_bend_c, 12, 2935
1, 30590, Note_on_c, 4, 67, 0
1, 30590, Note_on_c, 15, 67, 0
1, 30590, Control_c, 11, 11, 51
1, 30590, Pitch_bend_c, 11, 193
1, 30590, Pitch_bend_c, 12, 2912
1, 30591, Note_on_c, 6, 75, 0
1, 30591, Pitch_bend_c, 11, 170
1, 30591, Pitch_bend_c, 12, 2890
1, 30592, Pitch_bend_c, 11, 148
1, 30592, Pitch_bend_c, 12, 2867
1, 30593, Pitch_bend_c, 11, 125
1, 30593, Control_c, 12, 11, 77
1, 30593, Pitch_bend_c, 12, 2844
1, 30594, Pitch_bend_c, 11, 102
1, 30594, Pitch_bend_c, 12, 2822
1, 30595, Control_c, 11, 11, 50
1, 30595, Pitch_bend_c, 11, 80
1, 30595, Pitch_bend_c, 12, 2799
1, 30596, Note_on_c, 0, 58, 0
1, 30596, Note_on_c, 7, 55, 0
1, 30596, Pitch_bend_c, 11, 57
1, 30596, Pitch_bend_c, 12, 2776
1, 30597, Note_on_c, 3, 60, 0
1, 30597, Pitch_bend_c, 11, 34
1, 30597, Pitch_bend_c, 12, 2754
1, 30598, Note_on_c, 0, 65, 0
1, 30598, Pitch_bend_c, 11, 12
1, 30598, Control_c, 12, 11, 76
1, 30598, Pitch_bend_c, 12, 2731
1, 30599, Note_on_c, 11, 96, 0
1, 30599, Note_on_c, 0, 62, 0
1, 30599, Note_on_c, 7, 75, 0
1, 30599, Pitch_bend_c, 12, 2709
1, 30600, Note_on_c, 6, 72, 120
1, 30600, Note_on_c, 7, 72, 111
1, 30600, Note_on_c, 9, 39, 120
1, 30600, Pitch_bend_c, 12, 2686
1, 30601, Pitch_bend_c, 12, 2663
1, 30602, Note_on_c, 7, 65, 0
1, 30602, Control_c, 12, 11, 75
1, 30602, Pitch_bend_c, 12, 2641
1, 30603, Note_on_c, 7, 58, 0
1, 30603, Pitch_bend_c, 12, 2618
1, 30604, Pitch_bend_c, 12, 2595
1, 30605, Pitch_bend_c, 12, 2573
1, 30606, Pitch_bend_c, 12, 2550
1, 30607, Control_c, 12, 11, 74
1, 30607, Pitch_bend_c, 12, 2527
1, 30608, Pitch_bend_c, 12, 2505
1, 30609, Pitch_bend_c, 12, 2482
1, 30610, Pitch_bend_c, 12, 2459
1, 30611, Control_c, 12, 11, 73
1, 30611, Pitch_bend_c, 12, 2437
1, 30612, Pitch_bend_c, 12, 2414
1, 30613, Pitch_bend_c, 12, 2391
1, 30614, Pitch_bend_c, 12, 2369
1, 30615, Pitch_bend_c, 12, 2346
1, 30616, Control_c, 12, 11, 72
1, 30616, Pitch_bend_c, 12, 2323
1, 30617, Pitch_bend_c, 12, 2301
1, 30618, Pitch_bend_c, 12, 2278
1, 30619, Pitch_bend_c, 12, 2255
1, 30620, Control_c, 12, 11, 71
1, 30620, Pitch_bend_c, 12, 2233
1, 30621, Pitch_bend_c, 12, 2210
1, 30622, Note_on_c, 9, 39, 0
1, 30622, Pitch_bend_c, 12, 2187
1, 30623, Pitch_bend_c, 12, 2165
1, 30624, Pitch_bend_c, 12, 2142
1, 30625, Control_c, 12, 11, 70
1, 30625, Pitch_bend_c, 12, 2119
1, 30626, Pitch_bend_c, 12, 2097
1, 30627, Pitch_bend_c, 12, 2074
1, 30628, Pitch_bend_c, 12, 2051
1, 30629, Control_c, 12, 11, 69
1, 30629, Pitch_bend_c, 12, 2029
1, 30630, Note_on_c, 0, 58, 60
1, 30630, Note_on_c, 0, 62, 109
1, 30630, Note_on_c, 0, 65, 77
1, 30630, Pitch_bend_c, 12, 2006
1, 30631, Note_on_c, 0, 65, 0
1, 30631, Note_on_c, 0, 58, 0
1, 30631, Note_on_c, 0, 62, 0
1, 30631, Pitch_bend_c, 12, 1983
1, 30632, Pitch_bend_c, 12, 1961
1, 30633, Pitch_bend_c, 12, 1938
1, 30634, Control_c, 12, 11, 68
1, 30634, Pitch_bend_c, 12, 1915
1, 30635, Pitch_bend_c, 12, 1893
1, 30636, Pitch_bend_c, 12, 1870
1, 30637, Pitch_bend_c, 12, 1847
1, 30638, Control_c, 12, 11, 67
1, 30638, Pitch_bend_c, 12, 1825
1, 30639, Pitch_bend_c, 12, 1802
1, 30640, Pitch_bend_c, 12, 1779
1, 30641, Pitch_bend_c, 12, 1757
1, 30642, Pitch_bend_c, 12, 1734
1, 30643, Control_c, 12, 11, 66
1, 30643, Pitch_bend_c, 12, 1711
1, 30644, Pitch_bend_c, 12, 1689
1, 30645, Pitch_bend_c, 12, 1666
1, 30646, Pitch_bend_c, 12, 1643
1, 30647, Control_c, 12, 11, 65
1, 30647, Pitch_bend_c, 12, 1621
1, 30648, Pitch_bend_c, 12, 1598
1, 30649, Pitch_bend_c, 12, 1575
1, 30650, Pitch_bend_c, 12, 1553
1, 30651, Pitch_bend_c, 12, 1530
1, 30652, Control_c, 12, 11, 64
1, 30652, Pitch_bend_c, 12, 1507
1, 30653, Pitch_bend_c, 12, 1485
1, 30654, Pitch_bend_c, 12, 1462
1, 30655, Pitch_bend_c, 12, 1439
1, 30656, Control_c, 12, 11, 63
1, 30656, Pitch_bend_c, 12, 1417
1, 30657, Pitch_bend_c, 12, 1394
1, 30658, Pitch_bend_c, 12, 1371
1, 30659, Pitch_bend_c, 12, 1349
1, 30660, Note_on_c, 0, 56, 91
1, 30660, Note_on_c, 0, 60, 119
1, 30660, Note_on_c, 0, 63, 91
1, 30660, Note_on_c, 7, 53, 95
1, 30660, Note_on_c, 7, 56, 119
1, 30660, Note_on_c, 7, 63, 109
1, 30660, Pitch_bend_c, 12, 1326
1, 30661, Control_c, 12, 11, 62
1, 30661, Pitch_bend_c, 12, 1304
1, 30662, Pitch_bend_c, 12, 1281
1, 30663, Pitch_bend_c, 12, 1258
1, 30664, Pitch_bend_c, 12, 1236
1, 30665, Control_c, 12, 11, 61
1, 30665, Pitch_bend_c, 12, 1213
1, 30666, Pitch_bend_c, 12, 1190
1, 30667, Pitch_bend_c, 12, 1168
1, 30668, Pitch_bend_c, 12, 1145
1, 30669, Pitch_bend_c, 12, 1122
1, 30670, Control_c, 12, 11, 60
1, 30670, Pitch_bend_c, 12, 1100
1, 30671, Pitch_bend_c, 12, 1077
1, 30672, Pitch_bend_c, 12, 1054
1, 30673, Pitch_bend_c, 12, 1032
1, 30674, Control_c, 12, 11, 59
1, 30674, Pitch_bend_c, 12, 1009
1, 30675, Pitch_bend_c, 12, 986
1, 30676, Pitch_bend_c, 12, 964
1, 30677, Pitch_bend_c, 12, 941
1, 30678, Pitch_bend_c, 12, 918
1, 30679, Control_c, 12, 11, 58
1, 30679, Pitch_bend_c, 12, 896
1, 30680, Pitch_bend_c, 12, 873
1, 30681, Pitch_bend_c, 12, 850
1, 30682, Pitch_bend_c, 12, 828
1, 30683, Control_c, 12, 11, 57
1, 30683, Pitch_bend_c, 12, 805
1, 30684, Pitch_bend_c, 12, 782
1, 30685, Pitch_bend_c, 12, 760
1, 30686, Pitch_bend_c, 12, 737
1, 30687, Pitch_bend_c, 12, 714
1, 30688, Control_c, 12, 11, 56
1, 30688, Pitch_bend_c, 12, 692
1, 30689, Pitch_bend_c, 12, 669
1, 30690, Pitch_bend_c, 12, 646
1, 30691, Pitch_bend_c, 12, 624
1, 30692, Control_c, 12, 11, 55
1, 30692, Pitch_bend_c, 12, 601
1, 30693, Pitch_bend_c, 12, 578
1, 30694, Pitch_bend_c, 12, 556
1, 30695, Pitch_bend_c, 12, 533
1, 30696, Pitch_bend_c, 12, 510
1, 30697, Control_c, 12, 11, 54
1, 30697, Pitch_bend_c, 12, 488
1, 30698, Pitch_bend_c, 12, 465
1, 30699, Pitch_bend_c, 12, 442
1, 30700, Pitch_bend_c, 12, 420
1, 30701, Control_c, 12, 11, 53
1, 30701, Pitch_bend_c, 12, 397
1, 30702, Pitch_bend_c, 12, 374
1, 30703, Pitch_bend_c, 12, 352
1, 30704, Pitch_bend_c, 12, 329
1, 30705, Pitch_bend_c, 12, 306
1, 30706, Control_c, 12, 11, 52
1, 30706, Pitch_bend_c, 12, 284
1, 30707, Pitch_bend_c, 12, 261
1, 30708, Pitch_bend_c, 12, 238
1, 30709, Pitch_bend_c, 12, 216
1, 30710, Control_c, 12, 11, 51
1, 30710, Pitch_bend_c, 12, 193
1, 30711, Pitch_bend_c, 12, 170
1, 30712, Pitch_bend_c, 12, 148
1, 30713, Pitch_bend_c, 12, 125
1, 30714, Pitch_bend_c, 12, 102
1, 30715, Control_c, 12, 11, 50
1, 30715, Pitch_bend_c, 12, 80
1, 30716, Pitch_bend_c, 12, 57
1, 30717, Pitch_bend_c, 12, 34
1, 30718, Pitch_bend_c, 12, 12
1, 30719, Note_on_c, 12, 96, 0
1, 30720, Note_on_c, 6, 70, 120
1, 30720, Note_on_c, 7, 70, 102
1, 30723, Note_on_c, 6, 72, 0
1, 30724, Note_on_c, 7, 72, 0
1, 30780, Note_on_c, 3, 67, 105
1, 30780, Note_on_c, 4, 63, 111
1, 30780, Note_on_c, 4, 68, 115
1, 30780, Note_on_c, 5, 56, 120
1, 30780, Note_on_c, 15, 68, 1
1, 30780, Note_on_c, 15, 63, 1
1, 30780, Lyric_t, "you "
1, 30823, Note_on_c, 15, 63, 0
1, 30823, Note_on_c, 4, 63, 0
1, 30824, Note_on_c, 4, 68, 0
1, 30824, Note_on_c, 3, 67, 0
1, 30824, Note_on_c, 15, 68, 0
1, 30825, Note_on_c, 5, 56, 0
1, 30834, Note_on_c, 0, 60, 0
1, 30836, Note_on_c, 0, 63, 0
1, 30839, Note_on_c, 7, 63, 0
1, 30839, Note_on_c, 0, 56, 0
1, 30840, Note_on_c, 7, 53, 0
1, 30840, Note_on_c, 0, 56, 86
1, 30840, Note_on_c, 0, 60, 116
1, 30840, Note_on_c, 0, 63, 78
1, 30840, Note_on_c, 3, 60, 111
1, 30840, Note_on_c, 4, 63, 92
1, 30840, Note_on_c, 4, 68, 92
1, 30840, Note_on_c, 5, 56, 119
1, 30840, Note_on_c, 9, 39, 120
1, 30840, Note_on_c, 15, 68, 1
1, 30840, Note_on_c, 15, 63, 1
1, 30840, Lyric_t, "are "
1, 30841, Note_on_c, 7, 56, 0
1, 30858, Note_on_c, 5, 56, 0
1, 30860, Note_on_c, 4, 63, 0
1, 30860, Note_on_c, 15, 63, 0
1, 30861, Note_on_c, 3, 60, 0
1, 30863, Note_on_c, 4, 68, 0
1, 30863, Note_on_c, 15, 68, 0
1, 30863, Note_on_c, 9, 39, 0
1, 30867, Note_on_c, 0, 60, 0
1, 30869, Note_on_c, 0, 56, 0
1, 30870, Note_on_c, 0, 63, 0
1, 30900, Note_on_c, 0, 56, 53
1, 30900, Note_on_c, 0, 60, 98
1, 30900, Note_on_c, 0, 63, 60
1, 30900, Note_on_c, 3, 60, 116
1, 30900, Note_on_c, 4, 63, 106
1, 30900, Note_on_c, 4, 68, 100
1, 30900, Note_on_c, 5, 56, 120
1, 30900, Note_on_c, 15, 68, 1
1, 30900, Note_on_c, 15, 63, 1
1, 30900, Lyric_t, "my "
1, 30901, Note_on_c, 0, 63, 0
1, 30901, Note_on_c, 0, 60, 0
1, 30901, Note_on_c, 0, 56, 0
1, 30920, Note_on_c, 3, 60, 0
1, 30922, Note_on_c, 15, 63, 0
1, 30922, Note_on_c, 4, 63, 0
1, 30923, Note_on_c, 5, 56, 0
1, 30927, Note_on_c, 15, 68, 0
1, 30927, Note_on_c, 4, 68, 0
1, 30930, Note_on_c, 0, 56, 70
1, 30930, Note_on_c, 0, 60, 101
1, 30930, Note_on_c, 0, 63, 62
1, 30931, Note_on_c, 0, 63, 0
1, 30931, Note_on_c, 0, 56, 0
1, 30931, Note_on_c, 0, 60, 0
1, 30959, Control_c, 11, 11, 127
1, 30960, Note_on_c, 0, 56, 92
1, 30960, Note_on_c, 0, 60, 118
1, 30960, Note_on_c, 0, 63, 92
1, 30960, Note_on_c, 3, 63, 119
1, 30960, Note_on_c, 4, 63, 109
1, 30960, Note_on_c, 4, 68, 102
1, 30960, Note_on_c, 5, 56, 120
1, 30960, Note_on_c, 7, 53, 101
1, 30960, Note_on_c, 7, 56, 120
1, 30960, Note_on_c, 7, 63, 98
1, 30960, Note_on_c, 15, 68, 1
1, 30960, Note_on_c, 15, 63, 1
1, 30960, Lyric_t, "trea"
1, 30998, Note_on_c, 0, 60, 0
1, 31001, Note_on_c, 0, 56, 0
1, 31002, Note_on_c, 0, 63, 0
1, 31016, Note_on_c, 7, 53, 0
1, 31016, Note_on_c, 7, 63, 0
1, 31017, Note_on_c, 7, 56, 0
1, 31019, Note_on_c, 5, 56, 0
1, 31020, Note_on_c, 0, 56, 62
1, 31020, Note_on_c, 0, 60, 97
1, 31020, Note_on_c, 0, 63, 62
1, 31021, Note_on_c, 0, 63, 0
1, 31021, Note_on_c, 0, 60, 0
1, 31021, Note_on_c, 0, 56, 0
1, 31022, Note_on_c, 4, 63, 0
1, 31022, Note_on_c, 15, 63, 0
1, 31022, Note_on_c, 4, 68, 0
1, 31022, Note_on_c, 15, 68, 0
1, 31032, Note_on_c, 3, 63, 0
1, 31050, Note_on_c, 3, 65, 109
1, 31050, Note_on_c, 4, 63, 102
1, 31050, Note_on_c, 4, 68, 91
1, 31050, Note_on_c, 5, 56, 119
1, 31050, Note_on_c, 15, 68, 1
1, 31050, Note_on_c, 15, 63, 1
1, 31050, Lyric_t, "sure "
1, 31050, Lyric_t, "\015"
1, 31058, Note_on_c, 6, 70, 0
1, 31066, Note_on_c, 5, 56, 0
1, 31068, Note_on_c, 15, 63, 0
1, 31068, Note_on_c, 4, 63, 0
1, 31072, Note_on_c, 4, 68, 0
1, 31072, Note_on_c, 15, 68, 0
1, 31074, Note_on_c, 7, 70, 0
1, 31079, Control_c, 12, 11, 127
1, 31080, Note_on_c, 0, 60, 116
1, 31080, Note_on_c, 0, 63, 92
1, 31080, Note_on_c, 0, 67, 111
1, 31080, Note_on_c, 1, 29, 120
1, 31080, Note_on_c, 7, 53, 113
1, 31080, Note_on_c, 7, 56, 120
1, 31080, Note_on_c, 7, 63, 115
1, 31080, Note_on_c, 9, 39, 120
1, 31084, Note_on_c, 3, 65, 0
1, 31099, Note_on_c, 9, 39, 0
1, 31119, Note_on_c, 0, 60, 0
1, 31122, Note_on_c, 0, 67, 0
1, 31122, Note_on_c, 0, 63, 0
1, 31131, Note_on_c, 7, 53, 0
1, 31132, Note_on_c, 7, 56, 0
1, 31135, Note_on_c, 7, 63, 0
1, 31190, Note_on_c, 1, 29, 0
1, 31200, Note_on_c, 0, 60, 95
1, 31200, Note_on_c, 0, 63, 119
1, 31200, Note_on_c, 0, 70, 120
1, 31200, Note_on_c, 1, 34, 120
1, 31200, Note_on_c, 7, 56, 98
1, 31200, Note_on_c, 7, 60, 119
1, 31200, Note_on_c, 7, 67, 116
1, 31200, Note_on_c, 8, 56, 98
1, 31200, Note_on_c, 8, 60, 119
1, 31200, Note_on_c, 8, 67, 116
1, 31200, Note_on_c, 9, 36, 120
1, 31200, Note_on_c, 9, 38, 120
1, 31235, Note_on_c, 9, 38, 0
1, 31235, Note_on_c, 9, 36, 0
1, 31260, Note_on_c, 3, 67, 105
1, 31260, Note_on_c, 4, 63, 115
1, 31260, Note_on_c, 4, 68, 119
1, 31260, Note_on_c, 5, 56, 119
1, 31260, Note_on_c, 15, 68, 1
1, 31260, Note_on_c, 15, 63, 1
1, 31260, Lyric_t, "You "
1, 31298, Note_on_c, 5, 56, 0
1, 31305, Note_on_c, 15, 63, 0
1, 31305, Note_on_c, 4, 63, 0
1, 31305, Note_on_c, 15, 68, 0
1, 31305, Note_on_c, 4, 68, 0
1, 31309, Note_on_c, 3, 67, 0
1, 31320, Note_on_c, 3, 60, 119
1, 31320, Note_on_c, 4, 63, 92
1, 31320, Note_on_c, 4, 68, 86
1, 31320, Note_on_c, 5, 56, 106
1, 31320, Note_on_c, 9, 36, 120
1, 31320, Note_on_c, 9, 38, 120
1, 31320, Note_on_c, 15, 68, 1
1, 31320, Note_on_c, 15, 63, 1
1, 31320, Lyric_t, "are "
1, 31338, Note_on_c, 15, 63, 0
1, 31338, Note_on_c, 4, 63, 0
1, 31339, Note_on_c, 3, 60, 0
1, 31341, Note_on_c, 15, 68, 0
1, 31341, Note_on_c, 4, 68, 0
1, 31346, Note_on_c, 5, 56, 0
1, 31354, Note_on_c, 9, 36, 0
1, 31357, Note_on_c, 9, 38, 0
1, 31380, Note_on_c, 3, 60, 119
1, 31380, Note_on_c, 4, 63, 115
1, 31380, Note_on_c, 4, 68, 104
1, 31380, Note_on_c, 5, 56, 111
1, 31380, Note_on_c, 15, 68, 1
1, 31380, Note_on_c, 15, 63, 1
1, 31380, Lyric_t, "my "
1, 31403, Note_on_c, 15, 63, 0
1, 31403, Note_on_c, 4, 63, 0
1, 31403, Note_on_c, 3, 60, 0
1, 31405, Note_on_c, 4, 68, 0
1, 31405, Note_on_c, 15, 68, 0
1, 31414, Note_on_c, 5, 56, 0
1, 31440, Note_on_c, 3, 63, 119
1, 31440, Note_on_c, 4, 63, 115
1, 31440, Note_on_c, 4, 68, 102
1, 31440, Note_on_c, 5, 56, 115
1, 31440, Note_on_c, 9, 36, 120
1, 31440, Note_on_c, 9, 38, 120
1, 31440, Note_on_c, 15, 63, 1
1, 31440, Note_on_c, 15, 68, 1
1, 31440, Lyric_t, "trea"
1, 31476, Note_on_c, 9, 38, 0
1, 31479, Note_on_c, 9, 36, 0
1, 31498, Note_on_c, 5, 56, 0
1, 31504, Note_on_c, 15, 68, 0
1, 31504, Note_on_c, 4, 68, 0
1, 31505, Note_on_c, 15, 63, 0
1, 31505, Note_on_c, 4, 63, 0
1, 31520, Note_on_c, 3, 63, 0
1, 31530, Note_on_c, 3, 60, 119
1, 31530, Note_on_c, 4, 63, 109
1, 31530, Note_on_c, 4, 68, 92
1, 31530, Note_on_c, 5, 56, 115
1, 31530, Note_on_c, 15, 63, 1
1, 31530, Note_on_c, 15, 68, 1
1, 31530, Lyric_t, "sure, "
1, 31530, Lyric_t, "\015"
1, 31552, Note_on_c, 3, 60, 0
1, 31554, Note_on_c, 15, 63, 0
1, 31554, Note_on_c, 5, 56, 0
1, 31554, Note_on_c, 4, 63, 0
1, 31558, Note_on_c, 15, 68, 0
1, 31558, Note_on_c, 4, 68, 0
1, 31560, Note_on_c, 9, 36, 120
1, 31560, Note_on_c, 9, 38, 120
1, 31601, Note_on_c, 9, 38, 0
1, 31603, Note_on_c, 9, 36, 0
1, 31620, Note_on_c, 3, 63, 119
1, 31620, Note_on_c, 4, 63, 34
1, 31620, Note_on_c, 4, 68, 120
1, 31620, Note_on_c, 5, 56, 119
1, 31620, Note_on_c, 15, 63, 1
1, 31620, Note_on_c, 15, 68, 1
1, 31620, Lyric_t, "yeah, "
1, 31632, Note_on_c, 1, 34, 0
1, 31633, Note_on_c, 0, 63, 0
1, 31634, Note_on_c, 0, 70, 0
1, 31637, Note_on_c, 0, 60, 0
1, 31642, Note_on_c, 4, 63, 0
1, 31642, Note_on_c, 15, 63, 0
1, 31647, Note_on_c, 15, 68, 0
1, 31647, Note_on_c, 4, 68, 0
1, 31649, Note_on_c, 5, 56, 0
1, 31655, Note_on_c, 3, 63, 0
1, 31667, Note_on_c, 8, 60, 0
1, 31667, Note_on_c, 7, 60, 0
1, 31668, Note_on_c, 8, 67, 0
1, 31668, Note_on_c, 7, 67, 0
1, 31671, Note_on_c, 7, 56, 0
1, 31671, Note_on_c, 8, 56, 0
1, 31680, Note_on_c, 0, 60, 91
1, 31680, Note_on_c, 0, 63, 119
1, 31680, Note_on_c, 0, 70, 100
1, 31680, Note_on_c, 1, 46, 120
1, 31680, Note_on_c, 3, 67, 116
1, 31680, Note_on_c, 4, 67, 90
1, 31680, Note_on_c, 4, 72, 105
1, 31680, Note_on_c, 5, 60, 118
1, 31680, Note_on_c, 7, 56, 98
1, 31680, Note_on_c, 7, 60, 119
1, 31680, Note_on_c, 7, 67, 116
1, 31680, Note_on_c, 8, 56, 98
1, 31680, Note_on_c, 8, 60, 119
1, 31680, Note_on_c, 8, 67, 116
1, 31680, Note_on_c, 9, 36, 120
1, 31680, Note_on_c, 9, 38, 120
1, 31680, Note_on_c, 15, 72, 1
1, 31680, Note_on_c, 15, 67, 1
1, 31680, Lyric_t, "you, "
1, 31693, Note_on_c, 1, 46, 0
1, 31694, Note_on_c, 0, 70, 0
1, 31694, Note_on_c, 0, 63, 0
1, 31696, Note_on_c, 0, 60, 0
1, 31702, Note_on_c, 9, 38, 0
1, 31710, Note_on_c, 0, 60, 94
1, 31710, Note_on_c, 0, 63, 92
1, 31710, Note_on_c, 0, 70, 94
1, 31710, Note_on_c, 1, 46, 109
1, 31712, Note_on_c, 9, 36, 0
1, 31732, Note_on_c, 5, 60, 0
1, 31734, Note_on_c, 15, 67, 0
1, 31734, Note_on_c, 3, 67, 0
1, 31734, Note_on_c, 4, 67, 0
1, 31735, Note_on_c, 1, 46, 0
1, 31740, Note_on_c, 9, 38, 120
1, 31741, Note_on_c, 0, 60, 0
1, 31741, Note_on_c, 0, 63, 0
1, 31742, Note_on_c, 0, 70, 0
1, 31742, Note_on_c, 4, 72, 0
1, 31742, Note_on_c, 15, 72, 0
1, 31765, Note_on_c, 9, 38, 0
1, 31770, Note_on_c, 0, 60, 94
1, 31770, Note_on_c, 0, 63, 104
1, 31770, Note_on_c, 0, 70, 89
1, 31770, Note_on_c, 1, 46, 120
1, 31782, Note_on_c, 1, 46, 0
1, 31788, Note_on_c, 0, 70, 0
1, 31789, Note_on_c, 0, 60, 0
1, 31789, Note_on_c, 0, 63, 0
1, 31800, Note_on_c, 0, 60, 95
1, 31800, Note_on_c, 0, 63, 106
1, 31800, Note_on_c, 0, 70, 100
1, 31800, Note_on_c, 1, 46, 115
1, 31800, Note_on_c, 3, 65, 113
1, 31800, Note_on_c, 4, 65, 107
1, 31800, Note_on_c, 4, 70, 120
1, 31800, Note_on_c, 5, 58, 119
1, 31800, Note_on_c, 9, 36, 120
1, 31800, Note_on_c, 9, 38, 120
1, 31800, Note_on_c, 15, 65, 1
1, 31800, Note_on_c, 15, 70, 1
1, 31800, Lyric_t, "you, "
1, 31824, Note_on_c, 9, 38, 0
1, 31830, Note_on_c, 1, 46, 0
1, 31834, Note_on_c, 0, 63, 0
1, 31835, Note_on_c, 0, 60, 0
1, 31837, Note_on_c, 0, 70, 0
1, 31850, Note_on_c, 15, 70, 0
1, 31850, Note_on_c, 4, 70, 0
1, 31851, Note_on_c, 9, 36, 0
1, 31856, Note_on_c, 15, 65, 0
1, 31856, Note_on_c, 4, 65, 0
1, 31859, Note_on_c, 3, 65, 0
1, 31860, Note_on_c, 5, 58, 0
1, 31860, Note_on_c, 0, 60, 80
1, 31860, Note_on_c, 0, 63, 94
1, 31860, Note_on_c, 0, 70, 86
1, 31860, Note_on_c, 1, 46, 120
1, 31860, Note_on_c, 9, 38, 120
1, 31874, Note_on_c, 1, 46, 0
1, 31875, Note_on_c, 0, 63, 0
1, 31876, Note_on_c, 0, 60, 0
1, 31876, Note_on_c, 0, 70, 0
1, 31877, Note_on_c, 9, 38, 0
1, 31890, Note_on_c, 0, 60, 107
1, 31890, Note_on_c, 0, 63, 111
1, 31890, Note_on_c, 0, 70, 96
1, 31890, Note_on_c, 1, 46, 119
1, 31920, Note_on_c, 3, 63, 120
1, 31920, Note_on_c, 4, 63, 98
1, 31920, Note_on_c, 4, 67, 120
1, 31920, Note_on_c, 5, 55, 120
1, 31920, Note_on_c, 9, 36, 120
1, 31920, Note_on_c, 9, 38, 120
1, 31920, Note_on_c, 15, 63, 1
1, 31920, Note_on_c, 15, 67, 1
1, 31920, Lyric_t, "you, "
1, 31921, Note_on_c, 1, 46, 0
1, 31922, Note_on_c, 0, 63, 0
1, 31923, Note_on_c, 0, 60, 0
1, 31926, Note_on_c, 0, 70, 0
1, 31939, Note_on_c, 9, 38, 0
1, 31950, Note_on_c, 0, 60, 98
1, 31950, Note_on_c, 0, 63, 111
1, 31950, Note_on_c, 0, 70, 89
1, 31950, Note_on_c, 1, 46, 120
1, 31950, Note_on_c, 9, 38, 119
1, 31961, Note_on_c, 9, 38, 0
1, 31963, Note_on_c, 9, 36, 0
1, 31966, Note_on_c, 1, 46, 0
1, 31968, Note_on_c, 5, 55, 0
1, 31969, Note_on_c, 0, 70, 0
1, 31969, Note_on_c, 0, 63, 0
1, 31969, Note_on_c, 0, 60, 0
1, 31971, Note_on_c, 15, 67, 0
1, 31971, Note_on_c, 4, 67, 0
1, 31976, Note_on_c, 15, 63, 0
1, 31976, Note_on_c, 4, 63, 0
1, 31979, Note_on_c, 3, 63, 0
1, 31980, Note_on_c, 0, 60, 113
1, 31980, Note_on_c, 0, 63, 111
1, 31980, Note_on_c, 0, 70, 104
1, 31980, Note_on_c, 1, 46, 119
1, 31980, Note_on_c, 9, 38, 120
1, 32005, Note_on_c, 9, 38, 0
1, 32020, Note_on_c, 1, 46, 0
1, 32022, Note_on_c, 0, 63, 0
1, 32024, Note_on_c, 0, 60, 0
1, 32024, Note_on_c, 0, 70, 0
1, 32036, Note_on_c, 8, 60, 0
1, 32036, Note_on_c, 7, 60, 0
1, 32037, Note_on_c, 8, 67, 0
1, 32037, Note_on_c, 7, 67, 0
1, 32039, Note_on_c, 7, 56, 0
1, 32039, Note_on_c, 8, 56, 0
1, 32040, Note_on_c, 3, 67, 120
1, 32040, Note_on_c, 4, 67, 120
1, 32040, Note_on_c, 4, 72, 109
1, 32040, Note_on_c, 5, 60, 119
1, 32040, Note_on_c, 9, 36, 120
1, 32040, Note_on_c, 9, 38, 120
1, 32040, Note_on_c, 9, 39, 120
1, 32040, Note_on_c, 9, 40, 120
1, 32040, Note_on_c, 15, 67, 1
1, 32040, Note_on_c, 15, 72, 1
1, 32040, Lyric_t, "you "
1, 32057, Note_on_c, 9, 39, 0
1, 32067, Note_on_c, 9, 38, 0
1, 32068, Note_on_c, 9, 36, 0
1, 32076, Note_on_c, 9, 40, 0
1, 32083, Note_on_c, 3, 67, 0
1, 32084, Note_on_c, 15, 72, 0
1, 32084, Note_on_c, 4, 72, 0
1, 32086, Note_on_c, 4, 67, 0
1, 32086, Note_on_c, 5, 60, 0
1, 32086, Note_on_c, 15, 67, 0
1, 32100, Note_on_c, 3, 67, 111
1, 32100, Note_on_c, 4, 67, 119
1, 32100, Note_on_c, 4, 72, 105
1, 32100, Note_on_c, 5, 60, 118
1, 32100, Note_on_c, 15, 67, 1
1, 32100, Note_on_c, 15, 72, 1
1, 32100, Lyric_t, "are "
1, 32100, Lyric_t, "\015"
1, 32143, Note_on_c, 5, 60, 0
1, 32146, Note_on_c, 15, 67, 0
1, 32146, Note_on_c, 4, 67, 0
1, 32147, Note_on_c, 3, 67, 0
1, 32147, Note_on_c, 15, 72, 0
1, 32147, Note_on_c, 4, 72, 0
1, 32160, Note_on_c, 0, 63, 98
1, 32160, Note_on_c, 0, 67, 118
1, 32160, Note_on_c, 0, 72, 105
1, 32160, Note_on_c, 1, 32, 120
1, 32160, Note_on_c, 2, 63, 81
1, 32160, Note_on_c, 2, 67, 116
1, 32160, Note_on_c, 2, 72, 107
1, 32160, Note_on_c, 3, 67, 120
1, 32160, Note_on_c, 4, 60, 107
1, 32160, Note_on_c, 4, 63, 120
1, 32160, Note_on_c, 4, 70, 119
1, 32160, Note_on_c, 5, 55, 120
1, 32160, Note_on_c, 7, 56, 92
1, 32160, Note_on_c, 7, 60, 120
1, 32160, Note_on_c, 7, 67, 113
1, 32160, Note_on_c, 8, 56, 92
1, 32160, Note_on_c, 8, 60, 120
1, 32160, Note_on_c, 8, 67, 113
1, 32160, Note_on_c, 9, 36, 120
1, 32160, Note_on_c, 11, 96, 120
1, 32160, Pitch_bend_c, 11, 8125
1, 32160, Note_on_c, 15, 60, 1
1, 32160, Note_on_c, 15, 70, 1
1, 32160, Note_on_c, 15, 63, 1
1, 32160, Lyric_t, "Trea"
1, 32161, Pitch_bend_c, 11, 8102
1, 32162, Pitch_bend_c, 11, 8079
1, 32163, Pitch_bend_c, 11, 8057
1, 32164, Pitch_bend_c, 11, 8034
1, 32165, Pitch_bend_c, 11, 8011
1, 32166, Pitch_bend_c, 11, 7989
1, 32167, Pitch_bend_c, 11, 7966
1, 32168, Control_c, 11, 11, 126
1, 32168, Pitch_bend_c, 11, 7943
1, 32169, Pitch_bend_c, 11, 7921
1, 32170, Pitch_bend_c, 11, 7898
1, 32171, Pitch_bend_c, 11, 7875
1, 32172, Pitch_bend_c, 11, 7853
1, 32173, Control_c, 11, 11, 125
1, 32173, Pitch_bend_c, 11, 7830
1, 32174, Pitch_bend_c, 11, 7807
1, 32175, Pitch_bend_c, 11, 7785
1, 32176, Pitch_bend_c, 11, 7762
1, 32177, Control_c, 11, 11, 124
1, 32177, Pitch_bend_c, 11, 7739
1, 32178, Pitch_bend_c, 11, 7717
1, 32179, Pitch_bend_c, 11, 7694
1, 32180, Pitch_bend_c, 11, 7671
1, 32181, Pitch_bend_c, 11, 7649
1, 32182, Control_c, 11, 11, 123
1, 32182, Pitch_bend_c, 11, 7626
1, 32183, Pitch_bend_c, 11, 7603
1, 32184, Pitch_bend_c, 11, 7581
1, 32185, Pitch_bend_c, 11, 7558
1, 32186, Control_c, 11, 11, 122
1, 32186, Pitch_bend_c, 11, 7535
1, 32187, Pitch_bend_c, 11, 7513
1, 32188, Pitch_bend_c, 11, 7490
1, 32189, Pitch_bend_c, 11, 7467
1, 32190, Pitch_bend_c, 11, 7445
1, 32191, Control_c, 11, 11, 121
1, 32191, Pitch_bend_c, 11, 7422
1, 32192, Note_on_c, 5, 55, 0
1, 32192, Note_on_c, 3, 67, 0
1, 32192, Pitch_bend_c, 11, 7399
1, 32193, Note_on_c, 9, 36, 0
1, 32193, Pitch_bend_c, 11, 7377
1, 32194, Pitch_bend_c, 11, 7354
1, 32195, Control_c, 11, 11, 120
1, 32195, Pitch_bend_c, 11, 7331
1, 32196, Pitch_bend_c, 11, 7309
1, 32197, Pitch_bend_c, 11, 7286
1, 32198, Pitch_bend_c, 11, 7263
1, 32199, Pitch_bend_c, 11, 7241
1, 32200, Control_c, 11, 11, 119
1, 32200, Pitch_bend_c, 11, 7218
1, 32201, Pitch_bend_c, 11, 7195
1, 32202, Note_on_c, 4, 70, 0
1, 32202, Note_on_c, 15, 70, 0
1, 32202, Pitch_bend_c, 11, 7173
1, 32203, Note_on_c, 4, 60, 0
1, 32203, Note_on_c, 15, 60, 0
1, 32203, Pitch_bend_c, 11, 7150
1, 32204, Note_on_c, 4, 63, 0
1, 32204, Note_on_c, 15, 63, 0
1, 32204, Control_c, 11, 11, 118
1, 32204, Pitch_bend_c, 11, 7127
1, 32205, Pitch_bend_c, 11, 7105
1, 32206, Pitch_bend_c, 11, 7082
1, 32207, Pitch_bend_c, 11, 7059
1, 32208, Pitch_bend_c, 11, 7037
1, 32209, Control_c, 11, 11, 117
1, 32209, Pitch_bend_c, 11, 7014
1, 32210, Pitch_bend_c, 11, 6991
1, 32211, Pitch_bend_c, 11, 6969
1, 32212, Pitch_bend_c, 11, 6946
1, 32213, Control_c, 11, 11, 116
1, 32213, Pitch_bend_c, 11, 6923
1, 32214, Pitch_bend_c, 11, 6901
1, 32215, Pitch_bend_c, 11, 6878
1, 32216, Pitch_bend_c, 11, 6855
1, 32217, Pitch_bend_c, 11, 6833
1, 32218, Control_c, 11, 11, 115
1, 32218, Pitch_bend_c, 11, 6810
1, 32219, Note_on_c, 1, 32, 0
1, 32219, Pitch_bend_c, 11, 6788
1, 32220, Note_on_c, 1, 44, 120
1, 32220, Note_on_c, 3, 67, 120
1, 32220, Note_on_c, 4, 60, 118
1, 32220, Note_on_c, 4, 63, 119
1, 32220, Note_on_c, 4, 70, 98
1, 32220, Note_on_c, 5, 55, 120
1, 32220, Note_on_c, 5, 60, 113
1, 32220, Note_on_c, 9, 42, 120
1, 32220, Pitch_bend_c, 11, 6765
1, 32220, Note_on_c, 15, 63, 1
1, 32220, Note_on_c, 15, 60, 1
1, 32220, Note_on_c, 15, 70, 1
1, 32220, Lyric_t, "sure, "
1, 32221, Pitch_bend_c, 11, 6742
1, 32222, Control_c, 11, 11, 114
1, 32222, Pitch_bend_c, 11, 6720
1, 32223, Pitch_bend_c, 11, 6697
1, 32224, Pitch_bend_c, 11, 6674
1, 32225, Pitch_bend_c, 11, 6652
1, 32226, Pitch_bend_c, 11, 6629
1, 32227, Control_c, 11, 11, 113
1, 32227, Pitch_bend_c, 11, 6606
1, 32228, Pitch_bend_c, 11, 6584
1, 32229, Pitch_bend_c, 11, 6561
1, 32230, Pitch_bend_c, 11, 6538
1, 32231, Control_c, 11, 11, 112
1, 32231, Pitch_bend_c, 11, 6516
1, 32232, Pitch_bend_c, 11, 6493
1, 32233, Pitch_bend_c, 11, 6470
1, 32234, Pitch_bend_c, 11, 6448
1, 32235, Pitch_bend_c, 11, 6425
1, 32236, Control_c, 11, 11, 111
1, 32236, Pitch_bend_c, 11, 6402
1, 32237, Pitch_bend_c, 11, 6380
1, 32238, Pitch_bend_c, 11, 6357
1, 32239, Pitch_bend_c, 11, 6334
1, 32240, Control_c, 11, 11, 110
1, 32240, Pitch_bend_c, 11, 6312
1, 32241, Pitch_bend_c, 11, 6289
1, 32242, Pitch_bend_c, 11, 6266
1, 32243, Pitch_bend_c, 11, 6244
1, 32244, Pitch_bend_c, 11, 6221
1, 32245, Control_c, 11, 11, 109
1, 32245, Pitch_bend_c, 11, 6198
1, 32246, Pitch_bend_c, 11, 6176
1, 32247, Pitch_bend_c, 11, 6153
1, 32248, Pitch_bend_c, 11, 6130
1, 32249, Control_c, 11, 11, 108
1, 32249, Pitch_bend_c, 11, 6108
1, 32250, Pitch_bend_c, 11, 6085
1, 32251, Note_on_c, 9, 42, 0
1, 32251, Pitch_bend_c, 11, 6062
1, 32252, Pitch_bend_c, 11, 6040
1, 32253, Pitch_bend_c, 11, 6017
1, 32254, Control_c, 11, 11, 107
1, 32254, Pitch_bend_c, 11, 5994
1, 32255, Note_on_c, 1, 44, 0
1, 32255, Pitch_bend_c, 11, 5972
1, 32256, Pitch_bend_c, 11, 5949
1, 32257, Note_on_c, 5, 55, 0
1, 32257, Pitch_bend_c, 11, 5926
1, 32258, Control_c, 11, 11, 106
1, 32258, Pitch_bend_c, 11, 5904
1, 32259, Pitch_bend_c, 11, 5881
1, 32260, Note_on_c, 5, 60, 0
1, 32260, Pitch_bend_c, 11, 5858
1, 32261, Pitch_bend_c, 11, 5836
1, 32262, Pitch_bend_c, 11, 5813
1, 32263, Control_c, 11, 11, 105
1, 32263, Pitch_bend_c, 11, 5790
1, 32264, Pitch_bend_c, 11, 5768
1, 32265, Pitch_bend_c, 11, 5745
1, 32266, Pitch_bend_c, 11, 5722
1, 32267, Control_c, 11, 11, 104
1, 32267, Pitch_bend_c, 11, 5700
1, 32268, Pitch_bend_c, 11, 5677
1, 32269, Pitch_bend_c, 11, 5654
1, 32270, Note_on_c, 0, 67, 0
1, 32270, Pitch_bend_c, 11, 5632
1, 32271, Pitch_bend_c, 11, 5609
1, 32272, Control_c, 11, 11, 103
1, 32272, Pitch_bend_c, 11, 5586
1, 32273, Pitch_bend_c, 11, 5564
1, 32274, Note_on_c, 8, 67, 0
1, 32274, Note_on_c, 7, 67, 0
1, 32274, Pitch_bend_c, 11, 5541
1, 32275, Note_on_c, 8, 56, 0
1, 32275, Note_on_c, 7, 56, 0
1, 32275, Pitch_bend_c, 11, 5518
1, 32276, Note_on_c, 4, 60, 0
1, 32276, Note_on_c, 8, 60, 0
1, 32276, Note_on_c, 7, 60, 0
1, 32276, Note_on_c, 15, 60, 0
1, 32276, Note_on_c, 0, 63, 0
1, 32276, Control_c, 11, 11, 102
1, 32276, Pitch_bend_c, 11, 5496
1, 32277, Note_on_c, 4, 63, 0
1, 32277, Note_on_c, 4, 70, 0
1, 32277, Note_on_c, 15, 63, 0
1, 32277, Note_on_c, 15, 70, 0
1, 32277, Pitch_bend_c, 11, 5473
1, 32278, Note_on_c, 0, 72, 0
1, 32278, Pitch_bend_c, 11, 5451
1, 32279, Pitch_bend_c, 11, 5428
1, 32280, Note_on_c, 5, 55, 89
1, 32280, Note_on_c, 5, 60, 105
1, 32280, Note_on_c, 9, 38, 120
1, 32280, Pitch_bend_c, 11, 5405
1, 32280, Note_on_c, 12, 96, 120
1, 32280, Pitch_bend_c, 12, 8125
1, 32281, Control_c, 11, 11, 101
1, 32281, Pitch_bend_c, 11, 5383
1, 32281, Pitch_bend_c, 12, 8102
1, 32282, Note_on_c, 3, 67, 0
1, 32282, Pitch_bend_c, 11, 5360
1, 32282, Pitch_bend_c, 12, 8079
1, 32283, Pitch_bend_c, 11, 5337
1, 32283, Pitch_bend_c, 12, 8057
1, 32284, Pitch_bend_c, 11, 5315
1, 32284, Pitch_bend_c, 12, 8034
1, 32285, Control_c, 11, 11, 100
1, 32285, Pitch_bend_c, 11, 5292
1, 32285, Pitch_bend_c, 12, 8011
1, 32286, Pitch_bend_c, 11, 5269
1, 32286, Pitch_bend_c, 12, 7989
1, 32287, Pitch_bend_c, 11, 5247
1, 32287, Pitch_bend_c, 12, 7966
1, 32288, Pitch_bend_c, 11, 5224
1, 32288, Control_c, 12, 11, 126
1, 32288, Pitch_bend_c, 12, 7943
1, 32289, Pitch_bend_c, 11, 5201
1, 32289, Pitch_bend_c, 12, 7921
1, 32290, Control_c, 11, 11, 99
1, 32290, Pitch_bend_c, 11, 5179
1, 32290, Pitch_bend_c, 12, 7898
1, 32291, Pitch_bend_c, 11, 5156
1, 32291, Pitch_bend_c, 12, 7875
1, 32292, Pitch_bend_c, 11, 5133
1, 32292, Pitch_bend_c, 12, 7853
1, 32293, Pitch_bend_c, 11, 5111
1, 32293, Control_c, 12, 11, 125
1, 32293, Pitch_bend_c, 12, 7830
1, 32294, Control_c, 11, 11, 98
1, 32294, Pitch_bend_c, 11, 5088
1, 32294, Pitch_bend_c, 12, 7807
1, 32295, Pitch_bend_c, 11, 5065
1, 32295, Pitch_bend_c, 12, 7785
1, 32296, Pitch_bend_c, 11, 5043
1, 32296, Pitch_bend_c, 12, 7762
1, 32297, Pitch_bend_c, 11, 5020
1, 32297, Control_c, 12, 11, 124
1, 32297, Pitch_bend_c, 12, 7739
1, 32298, Pitch_bend_c, 11, 4997
1, 32298, Pitch_bend_c, 12, 7717
1, 32299, Control_c, 11, 11, 97
1, 32299, Pitch_bend_c, 11, 4975
1, 32299, Pitch_bend_c, 12, 7694
1, 32300, Pitch_bend_c, 11, 4952
1, 32300, Pitch_bend_c, 12, 7671
1, 32301, Note_on_c, 5, 55, 0
1, 32301, Pitch_bend_c, 11, 4929
1, 32301, Pitch_bend_c, 12, 7649
1, 32302, Pitch_bend_c, 11, 4907
1, 32302, Control_c, 12, 11, 123
1, 32302, Pitch_bend_c, 12, 7626
1, 32303, Control_c, 11, 11, 96
1, 32303, Pitch_bend_c, 11, 4884
1, 32303, Pitch_bend_c, 12, 7603
1, 32304, Note_on_c, 5, 60, 0
1, 32304, Pitch_bend_c, 11, 4861
1, 32304, Pitch_bend_c, 12, 7581
1, 32305, Pitch_bend_c, 11, 4839
1, 32305, Pitch_bend_c, 12, 7558
1, 32306, Pitch_bend_c, 11, 4816
1, 32306, Control_c, 12, 11, 122
1, 32306, Pitch_bend_c, 12, 7535
1, 32307, Pitch_bend_c, 11, 4793
1, 32307, Pitch_bend_c, 12, 7513
1, 32308, Control_c, 11, 11, 95
1, 32308, Pitch_bend_c, 11, 4771
1, 32308, Pitch_bend_c, 12, 7490
1, 32309, Pitch_bend_c, 11, 4748
1, 32309, Pitch_bend_c, 12, 7467
1, 32310, Note_on_c, 0, 63, 73
1, 32310, Note_on_c, 0, 67, 82
1, 32310, Note_on_c, 0, 72, 83
1, 32310, Pitch_bend_c, 11, 4725
1, 32310, Pitch_bend_c, 12, 7445
1, 32311, Note_on_c, 0, 72, 0
1, 32311, Note_on_c, 0, 67, 0
1, 32311, Note_on_c, 0, 63, 0
1, 32311, Pitch_bend_c, 11, 4703
1, 32311, Control_c, 12, 11, 121
1, 32311, Pitch_bend_c, 12, 7422
1, 32312, Control_c, 11, 11, 94
1, 32312, Pitch_bend_c, 11, 4680
1, 32312, Pitch_bend_c, 12, 7399
1, 32313, Note_on_c, 9, 38, 0
1, 32313, Pitch_bend_c, 11, 4657
1, 32313, Pitch_bend_c, 12, 7377
1, 32314, Pitch_bend_c, 11, 4635
1, 32314, Pitch_bend_c, 12, 7354
1, 32315, Pitch_bend_c, 11, 4612
1, 32315, Control_c, 12, 11, 120
1, 32315, Pitch_bend_c, 12, 7331
1, 32316, Pitch_bend_c, 11, 4589
1, 32316, Pitch_bend_c, 12, 7309
1, 32317, Control_c, 11, 11, 93
1, 32317, Pitch_bend_c, 11, 4567
1, 32317, Pitch_bend_c, 12, 7286
1, 32318, Pitch_bend_c, 11, 4544
1, 32318, Pitch_bend_c, 12, 7263
1, 32319, Pitch_bend_c, 11, 4521
1, 32319, Pitch_bend_c, 12, 7241
1, 32320, Pitch_bend_c, 11, 4499
1, 32320, Control_c, 12, 11, 119
1, 32320, Pitch_bend_c, 12, 7218
1, 32321, Control_c, 11, 11, 92
1, 32321, Pitch_bend_c, 11, 4476
1, 32321, Pitch_bend_c, 12, 7195
1, 32322, Pitch_bend_c, 11, 4453
1, 32322, Pitch_bend_c, 12, 7173
1, 32323, Pitch_bend_c, 11, 4431
1, 32323, Pitch_bend_c, 12, 7150
1, 32324, Pitch_bend_c, 11, 4408
1, 32324, Control_c, 12, 11, 118
1, 32324, Pitch_bend_c, 12, 7127
1, 32325, Pitch_bend_c, 11, 4385
1, 32325, Pitch_bend_c, 12, 7105
1, 32326, Control_c, 11, 11, 91
1, 32326, Pitch_bend_c, 11, 4363
1, 32326, Pitch_bend_c, 12, 7082
1, 32327, Note_on_c, 10, 70, 89
1, 32327, Pitch_bend_c, 11, 4340
1, 32327, Pitch_bend_c, 12, 7059
1, 32328, Pitch_bend_c, 11, 4317
1, 32328, Pitch_bend_c, 12, 7037
1, 32329, Pitch_bend_c, 11, 4295
1, 32329, Control_c, 12, 11, 117
1, 32329, Pitch_bend_c, 12, 7014
1, 32330, Control_c, 11, 11, 90
1, 32330, Pitch_bend_c, 11, 4272
1, 32330, Pitch_bend_c, 12, 6991
1, 32331, Pitch_bend_c, 11, 4249
1, 32331, Pitch_bend_c, 12, 6969
1, 32332, Pitch_bend_c, 11, 4227
1, 32332, Pitch_bend_c, 12, 6946
1, 32333, Pitch_bend_c, 11, 4204
1, 32333, Control_c, 12, 11, 116
1, 32333, Pitch_bend_c, 12, 6923
1, 32334, Pitch_bend_c, 11, 4181
1, 32334, Pitch_bend_c, 12, 6901
1, 32335, Control_c, 11, 11, 89
1, 32335, Pitch_bend_c, 11, 4159
1, 32335, Pitch_bend_c, 12, 6878
1, 32336, Pitch_bend_c, 11, 4136
1, 32336, Pitch_bend_c, 12, 6855
1, 32337, Pitch_bend_c, 11, 4113
1, 32337, Pitch_bend_c, 12, 6833
1, 32338, Pitch_bend_c, 11, 4091
1, 32338, Control_c, 12, 11, 115
1, 32338, Pitch_bend_c, 12, 6810
1, 32339, Control_c, 11, 11, 88
1, 32339, Pitch_bend_c, 11, 4068
1, 32339, Pitch_bend_c, 12, 6788
1, 32340, Note_on_c, 0, 63, 80
1, 32340, Note_on_c, 0, 67, 91
1, 32340, Note_on_c, 0, 72, 98
1, 32340, Note_on_c, 5, 55, 94
1, 32340, Note_on_c, 5, 60, 116
1, 32340, Note_on_c, 9, 42, 120
1, 32340, Note_on_c, 10, 72, 118
1, 32340, Pitch_bend_c, 11, 4046
1, 32340, Pitch_bend_c, 12, 6765
1, 32341, Note_on_c, 0, 72, 0
1, 32341, Note_on_c, 0, 67, 0
1, 32341, Note_on_c, 0, 63, 0
1, 32341, Pitch_bend_c, 11, 4023
1, 32341, Pitch_bend_c, 12, 6742
1, 32342, Pitch_bend_c, 11, 4000
1, 32342, Control_c, 12, 11, 114
1, 32342, Pitch_bend_c, 12, 6720
1, 32343, Pitch_bend_c, 11, 3978
1, 32343, Pitch_bend_c, 12, 6697
1, 32344, Control_c, 11, 11, 87
1, 32344, Pitch_bend_c, 11, 3955
1, 32344, Pitch_bend_c, 12, 6674
1, 32345, Note_on_c, 10, 70, 0
1, 32345, Pitch_bend_c, 11, 3932
1, 32345, Pitch_bend_c, 12, 6652
1, 32346, Pitch_bend_c, 11, 3910
1, 32346, Pitch_bend_c, 12, 6629
1, 32347, Pitch_bend_c, 11, 3887
1, 32347, Control_c, 12, 11, 113
1, 32347, Pitch_bend_c, 12, 6606
1, 32348, Control_c, 11, 11, 86
1, 32348, Pitch_bend_c, 11, 3864
1, 32348, Pitch_bend_c, 12, 6584
1, 32349, Pitch_bend_c, 11, 3842
1, 32349, Pitch_bend_c, 12, 6561
1, 32350, Pitch_bend_c, 11, 3819
1, 32350, Pitch_bend_c, 12, 6538
1, 32351, Pitch_bend_c, 11, 3796
1, 32351, Control_c, 12, 11, 112
1, 32351, Pitch_bend_c, 12, 6516
1, 32352, Pitch_bend_c, 11, 3774
1, 32352, Pitch_bend_c, 12, 6493
1, 32353, Pitch_bend_c, 11, 3751
1, 32353, Pitch_bend_c, 12, 6470
1, 32354, Pitch_bend_c, 11, 3728
1, 32354, Pitch_bend_c, 12, 6448
1, 32355, Note_on_c, 5, 55, 0
1, 32355, Pitch_bend_c, 11, 3706
1, 32355, Pitch_bend_c, 12, 6425
1, 32356, Pitch_bend_c, 11, 3683
1, 32356, Control_c, 12, 11, 111
1, 32356, Pitch_bend_c, 12, 6402
1, 32357, Control_c, 11, 11, 85
1, 32357, Pitch_bend_c, 11, 3660
1, 32357, Pitch_bend_c, 12, 6380
1, 32358, Note_on_c, 5, 60, 0
1, 32358, Pitch_bend_c, 11, 3638
1, 32358, Pitch_bend_c, 12, 6357
1, 32359, Pitch_bend_c, 11, 3615
1, 32359, Pitch_bend_c, 12, 6334
1, 32360, Pitch_bend_c, 11, 3592
1, 32360, Control_c, 12, 11, 110
1, 32360, Pitch_bend_c, 12, 6312
1, 32361, Pitch_bend_c, 11, 3570
1, 32361, Pitch_bend_c, 12, 6289
1, 32362, Control_c, 11, 11, 84
1, 32362, Pitch_bend_c, 11, 3547
1, 32362, Pitch_bend_c, 12, 6266
1, 32363, Note_on_c, 10, 72, 0
1, 32363, Pitch_bend_c, 11, 3524
1, 32363, Pitch_bend_c, 12, 6244
1, 32364, Pitch_bend_c, 11, 3502
1, 32364, Pitch_bend_c, 12, 6221
1, 32365, Pitch_bend_c, 11, 3479
1, 32365, Control_c, 12, 11, 109
1, 32365, Pitch_bend_c, 12, 6198
1, 32366, Note_on_c, 9, 42, 0
1, 32366, Control_c, 11, 11, 83
1, 32366, Pitch_bend_c, 11, 3456
1, 32366, Pitch_bend_c, 12, 6176
1, 32367, Pitch_bend_c, 11, 3434
1, 32367, Pitch_bend_c, 12, 6153
1, 32368, Pitch_bend_c, 11, 3411
1, 32368, Pitch_bend_c, 12, 6130
1, 32369, Pitch_bend_c, 11, 3388
1, 32369, Control_c, 12, 11, 108
1, 32369, Pitch_bend_c, 12, 6108
1, 32370, Note_on_c, 0, 63, 77
1, 32370, Note_on_c, 0, 67, 90
1, 32370, Note_on_c, 0, 72, 98
1, 32370, Pitch_bend_c, 11, 3366
1, 32370, Pitch_bend_c, 12, 6085
1, 32371, Note_on_c, 0, 72, 0
1, 32371, Note_on_c, 0, 67, 0
1, 32371, Note_on_c, 0, 63, 0
1, 32371, Control_c, 11, 11, 82
1, 32371, Pitch_bend_c, 11, 3343
1, 32371, Pitch_bend_c, 12, 6062
1, 32372, Pitch_bend_c, 11, 3320
1, 32372, Pitch_bend_c, 12, 6040
1, 32373, Pitch_bend_c, 11, 3298
1, 32373, Pitch_bend_c, 12, 6017
1, 32374, Pitch_bend_c, 11, 3275
1, 32374, Control_c, 12, 11, 107
1, 32374, Pitch_bend_c, 12, 5994
1, 32375, Control_c, 11, 11, 81
1, 32375, Pitch_bend_c, 11, 3252
1, 32375, Pitch_bend_c, 12, 5972
1, 32376, Pitch_bend_c, 11, 3230
1, 32376, Pitch_bend_c, 12, 5949
1, 32377, Pitch_bend_c, 11, 3207
1, 32377, Pitch_bend_c, 12, 5926
1, 32378, Pitch_bend_c, 11, 3184
1, 32378, Control_c, 12, 11, 106
1, 32378, Pitch_bend_c, 12, 5904
1, 32379, Pitch_bend_c, 11, 3162
1, 32379, Pitch_bend_c, 12, 5881
1, 32380, Control_c, 11, 11, 80
1, 32380, Pitch_bend_c, 11, 3139
1, 32380, Pitch_bend_c, 12, 5858
1, 32381, Pitch_bend_c, 11, 3116
1, 32381, Pitch_bend_c, 12, 5836
1, 32382, Pitch_bend_c, 11, 3094
1, 32382, Pitch_bend_c, 12, 5813
1, 32383, Pitch_bend_c, 11, 3071
1, 32383, Control_c, 12, 11, 105
1, 32383, Pitch_bend_c, 12, 5790
1, 32384, Control_c, 11, 11, 79
1, 32384, Pitch_bend_c, 11, 3048
1, 32384, Pitch_bend_c, 12, 5768
1, 32385, Pitch_bend_c, 11, 3026
1, 32385, Pitch_bend_c, 12, 5745
1, 32386, Pitch_bend_c, 11, 3003
1, 32386, Pitch_bend_c, 12, 5722
1, 32387, Pitch_bend_c, 11, 2980
1, 32387, Control_c, 12, 11, 104
1, 32387, Pitch_bend_c, 12, 5700
1, 32388, Pitch_bend_c, 11, 2958
1, 32388, Pitch_bend_c, 12, 5677
1, 32389, Control_c, 11, 11, 78
1, 32389, Pitch_bend_c, 11, 2935
1, 32389, Pitch_bend_c, 12, 5654
1, 32390, Pitch_bend_c, 11, 2912
1, 32390, Pitch_bend_c, 12, 5632
1, 32391, Pitch_bend_c, 11, 2890
1, 32391, Pitch_bend_c, 12, 5609
1, 32392, Pitch_bend_c, 11, 2867
1, 32392, Control_c, 12, 11, 103
1, 32392, Pitch_bend_c, 12, 5586
1, 32393, Control_c, 11, 11, 77
1, 32393, Pitch_bend_c, 11, 2844
1, 32393, Pitch_bend_c, 12, 5564
1, 32394, Pitch_bend_c, 11, 2822
1, 32394, Pitch_bend_c, 12, 5541
1, 32395, Pitch_bend_c, 11, 2799
1, 32395, Pitch_bend_c, 12, 5518
1, 32396, Pitch_bend_c, 11, 2776
1, 32396, Control_c, 12, 11, 102
1, 32396, Pitch_bend_c, 12, 5496
1, 32397, Pitch_bend_c, 11, 2754
1, 32397, Pitch_bend_c, 12, 5473
1, 32398, Control_c, 11, 11, 76
1, 32398, Pitch_bend_c, 11, 2731
1, 32398, Pitch_bend_c, 12, 5451
1, 32399, Pitch_bend_c, 11, 2709
1, 32399, Pitch_bend_c, 12, 5428
1, 32400, Note_on_c, 0, 63, 91
1, 32400, Note_on_c, 0, 67, 119
1, 32400, Note_on_c, 0, 72, 96
1, 32400, Note_on_c, 1, 32, 120
1, 32400, Note_on_c, 5, 55, 107
1, 32400, Note_on_c, 5, 60, 116
1, 32400, Note_on_c, 7, 56, 111
1, 32400, Note_on_c, 7, 60, 119
1, 32400, Note_on_c, 7, 67, 116
1, 32400, Note_on_c, 8, 56, 111
1, 32400, Note_on_c, 8, 60, 119
1, 32400, Note_on_c, 8, 67, 116
1, 32400, Note_on_c, 9, 36, 120
1, 32400, Note_on_c, 10, 70, 120
1, 32400, Pitch_bend_c, 11, 2686
1, 32400, Pitch_bend_c, 12, 5405
1, 32401, Pitch_bend_c, 11, 2663
1, 32401, Control_c, 12, 11, 101
1, 32401, Pitch_bend_c, 12, 5383
1, 32402, Control_c, 11, 11, 75
1, 32402, Pitch_bend_c, 11, 2641
1, 32402, Pitch_bend_c, 12, 5360
1, 32403, Pitch_bend_c, 11, 2618
1, 32403, Pitch_bend_c, 12, 5337
1, 32404, Pitch_bend_c, 11, 2595
1, 32404, Pitch_bend_c, 12, 5315
1, 32405, Pitch_bend_c, 11, 2573
1, 32405, Control_c, 12, 11, 100
1, 32405, Pitch_bend_c, 12, 5292
1, 32406, Pitch_bend_c, 11, 2550
1, 32406, Pitch_bend_c, 12, 5269
1, 32407, Control_c, 11, 11, 74
1, 32407, Pitch_bend_c, 11, 2527
1, 32407, Pitch_bend_c, 12, 5247
1, 32408, Pitch_bend_c, 11, 2505
1, 32408, Pitch_bend_c, 12, 5224
1, 32409, Pitch_bend_c, 11, 2482
1, 32409, Pitch_bend_c, 12, 5201
1, 32410, Pitch_bend_c, 11, 2459
1, 32410, Control_c, 12, 11, 99
1, 32410, Pitch_bend_c, 12, 5179
1, 32411, Control_c, 11, 11, 73
1, 32411, Pitch_bend_c, 11, 2437
1, 32411, Pitch_bend_c, 12, 5156
1, 32412, Pitch_bend_c, 11, 2414
1, 32412, Pitch_bend_c, 12, 5133
1, 32413, Pitch_bend_c, 11, 2391
1, 32413, Pitch_bend_c, 12, 5111
1, 32414, Pitch_bend_c, 11, 2369
1, 32414, Control_c, 12, 11, 98
1, 32414, Pitch_bend_c, 12, 5088
1, 32415, Pitch_bend_c, 11, 2346
1, 32415, Pitch_bend_c, 12, 5065
1, 32416, Control_c, 11, 11, 72
1, 32416, Pitch_bend_c, 11, 2323
1, 32416, Pitch_bend_c, 12, 5043
1, 32417, Pitch_bend_c, 11, 2301
1, 32417, Pitch_bend_c, 12, 5020
1, 32418, Pitch_bend_c, 11, 2278
1, 32418, Pitch_bend_c, 12, 4997
1, 32419, Pitch_bend_c, 11, 2255
1, 32419, Control_c, 12, 11, 97
1, 32419, Pitch_bend_c, 12, 4975
1, 32420, Control_c, 11, 11, 71
1, 32420, Pitch_bend_c, 11, 2233
1, 32420, Pitch_bend_c, 12, 4952
1, 32421, Pitch_bend_c, 11, 2210
1, 32421, Pitch_bend_c, 12, 4929
1, 32422, Pitch_bend_c, 11, 2187
1, 32422, Pitch_bend_c, 12, 4907
1, 32423, Pitch_bend_c, 11, 2165
1, 32423, Control_c, 12, 11, 96
1, 32423, Pitch_bend_c, 12, 4884
1, 32424, Pitch_bend_c, 11, 2142
1, 32424, Pitch_bend_c, 12, 4861
1, 32425, Control_c, 11, 11, 70
1, 32425, Pitch_bend_c, 11, 2119
1, 32425, Pitch_bend_c, 12, 4839
1, 32426, Pitch_bend_c, 11, 2097
1, 32426, Pitch_bend_c, 12, 4816
1, 32427, Pitch_bend_c, 11, 2074
1, 32427, Pitch_bend_c, 12, 4793
1, 32428, Pitch_bend_c, 11, 2051
1, 32428, Control_c, 12, 11, 95
1, 32428, Pitch_bend_c, 12, 4771
1, 32429, Note_on_c, 0, 72, 0
1, 32429, Control_c, 11, 11, 69
1, 32429, Pitch_bend_c, 11, 2029
1, 32429, Pitch_bend_c, 12, 4748
1, 32430, Pitch_bend_c, 11, 2006
1, 32430, Pitch_bend_c, 12, 4725
1, 32431, Note_on_c, 1, 32, 0
1, 32431, Note_on_c, 0, 67, 0
1, 32431, Pitch_bend_c, 11, 1983
1, 32431, Pitch_bend_c, 12, 4703
1, 32432, Note_on_c, 9, 36, 0
1, 32432, Pitch_bend_c, 11, 1961
1, 32432, Control_c, 12, 11, 94
1, 32432, Pitch_bend_c, 12, 4680
1, 32433, Note_on_c, 8, 67, 0
1, 32433, Note_on_c, 8, 60, 0
1, 32433, Note_on_c, 7, 67, 0
1, 32433, Note_on_c, 7, 60, 0
1, 32433, Pitch_bend_c, 11, 1938
1, 32433, Pitch_bend_c, 12, 4657
1, 32434, Note_on_c, 0, 63, 0
1, 32434, Control_c, 11, 11, 68
1, 32434, Pitch_bend_c, 11, 1915
1, 32434, Pitch_bend_c, 12, 4635
1, 32435, Pitch_bend_c, 11, 1893
1, 32435, Pitch_bend_c, 12, 4612
1, 32436, Pitch_bend_c, 11, 1870
1, 32436, Pitch_bend_c, 12, 4589
1, 32437, Pitch_bend_c, 11, 1847
1, 32437, Control_c, 12, 11, 93
1, 32437, Pitch_bend_c, 12, 4567
1, 32438, Control_c, 11, 11, 67
1, 32438, Pitch_bend_c, 11, 1825
1, 32438, Pitch_bend_c, 12, 4544
1, 32439, Pitch_bend_c, 11, 1802
1, 32439, Pitch_bend_c, 12, 4521
1, 32440, Note_on_c, 8, 56, 0
1, 32440, Note_on_c, 7, 56, 0
1, 32440, Pitch_bend_c, 11, 1779
1, 32440, Pitch_bend_c, 12, 4499
1, 32441, Pitch_bend_c, 11, 1757
1, 32441, Control_c, 12, 11, 92
1, 32441, Pitch_bend_c, 12, 4476
1, 32442, Pitch_bend_c, 11, 1734
1, 32442, Pitch_bend_c, 12, 4453
1, 32443, Control_c, 11, 11, 66
1, 32443, Pitch_bend_c, 11, 1711
1, 32443, Pitch_bend_c, 12, 4431
1, 32444, Pitch_bend_c, 11, 1689
1, 32444, Pitch_bend_c, 12, 4408
1, 32445, Pitch_bend_c, 11, 1666
1, 32445, Pitch_bend_c, 12, 4385
1, 32446, Pitch_bend_c, 11, 1643
1, 32446, Control_c, 12, 11, 91
1, 32446, Pitch_bend_c, 12, 4363
1, 32447, Control_c, 11, 11, 65
1, 32447, Pitch_bend_c, 11, 1621
1, 32447, Pitch_bend_c, 12, 4340
1, 32448, Pitch_bend_c, 11, 1598
1, 32448, Pitch_bend_c, 12, 4317
1, 32449, Pitch_bend_c, 11, 1575
1, 32449, Pitch_bend_c, 12, 4295
1, 32450, Pitch_bend_c, 11, 1553
1, 32450, Control_c, 12, 11, 90
1, 32450, Pitch_bend_c, 12, 4272
1, 32451, Pitch_bend_c, 11, 1530
1, 32451, Pitch_bend_c, 12, 4249
1, 32452, Control_c, 11, 11, 64
1, 32452, Pitch_bend_c, 11, 1507
1, 32452, Pitch_bend_c, 12, 4227
1, 32453, Pitch_bend_c, 11, 1485
1, 32453, Pitch_bend_c, 12, 4204
1, 32454, Pitch_bend_c, 11, 1462
1, 32454, Pitch_bend_c, 12, 4181
1, 32455, Pitch_bend_c, 11, 1439
1, 32455, Control_c, 12, 11, 89
1, 32455, Pitch_bend_c, 12, 4159
1, 32456, Control_c, 11, 11, 63
1, 32456, Pitch_bend_c, 11, 1417
1, 32456, Pitch_bend_c, 12, 4136
1, 32457, Pitch_bend_c, 11, 1394
1, 32457, Pitch_bend_c, 12, 4113
1, 32458, Pitch_bend_c, 11, 1371
1, 32458, Pitch_bend_c, 12, 4091
1, 32459, Pitch_bend_c, 11, 1349
1, 32459, Control_c, 12, 11, 88
1, 32459, Pitch_bend_c, 12, 4068
1, 32460, Note_on_c, 0, 63, 80
1, 32460, Note_on_c, 0, 67, 111
1, 32460, Note_on_c, 0, 72, 82
1, 32460, Note_on_c, 9, 42, 120
1, 32460, Pitch_bend_c, 11, 1326
1, 32460, Pitch_bend_c, 12, 4046
1, 32461, Note_on_c, 0, 72, 0
1, 32461, Note_on_c, 0, 67, 0
1, 32461, Note_on_c, 0, 63, 0
1, 32461, Control_c, 11, 11, 62
1, 32461, Pitch_bend_c, 11, 1304
1, 32461, Pitch_bend_c, 12, 4023
1, 32462, Note_on_c, 5, 55, 0
1, 32462, Pitch_bend_c, 11, 1281
1, 32462, Pitch_bend_c, 12, 4000
1, 32463, Pitch_bend_c, 11, 1258
1, 32463, Pitch_bend_c, 12, 3978
1, 32464, Pitch_bend_c, 11, 1236
1, 32464, Control_c, 12, 11, 87
1, 32464, Pitch_bend_c, 12, 3955
1, 32465, Note_on_c, 5, 60, 0
1, 32465, Control_c, 11, 11, 61
1, 32465, Pitch_bend_c, 11, 1213
1, 32465, Pitch_bend_c, 12, 3932
1, 32466, Pitch_bend_c, 11, 1190
1, 32466, Pitch_bend_c, 12, 3910
1, 32467, Pitch_bend_c, 11, 1168
1, 32467, Pitch_bend_c, 12, 3887
1, 32468, Pitch_bend_c, 11, 1145
1, 32468, Control_c, 12, 11, 86
1, 32468, Pitch_bend_c, 12, 3864
1, 32469, Pitch_bend_c, 11, 1122
1, 32469, Pitch_bend_c, 12, 3842
1, 32470, Control_c, 11, 11, 60
1, 32470, Pitch_bend_c, 11, 1100
1, 32470, Pitch_bend_c, 12, 3819
1, 32471, Pitch_bend_c, 11, 1077
1, 32471, Pitch_bend_c, 12, 3796
1, 32472, Pitch_bend_c, 11, 1054
1, 32472, Pitch_bend_c, 12, 3774
1, 32473, Pitch_bend_c, 11, 1032
1, 32473, Pitch_bend_c, 12, 3751
1, 32474, Control_c, 11, 11, 59
1, 32474, Pitch_bend_c, 11, 1009
1, 32474, Pitch_bend_c, 12, 3728
1, 32475, Pitch_bend_c, 11, 986
1, 32475, Pitch_bend_c, 12, 3706
1, 32476, Pitch_bend_c, 11, 964
1, 32476, Pitch_bend_c, 12, 3683
1, 32477, Pitch_bend_c, 11, 941
1, 32477, Control_c, 12, 11, 85
1, 32477, Pitch_bend_c, 12, 3660
1, 32478, Pitch_bend_c, 11, 918
1, 32478, Pitch_bend_c, 12, 3638
1, 32479, Control_c, 11, 11, 58
1, 32479, Pitch_bend_c, 11, 896
1, 32479, Pitch_bend_c, 12, 3615
1, 32480, Pitch_bend_c, 11, 873
1, 32480, Pitch_bend_c, 12, 3592
1, 32481, Pitch_bend_c, 11, 850
1, 32481, Pitch_bend_c, 12, 3570
1, 32482, Pitch_bend_c, 11, 828
1, 32482, Control_c, 12, 11, 84
1, 32482, Pitch_bend_c, 12, 3547
1, 32483, Control_c, 11, 11, 57
1, 32483, Pitch_bend_c, 11, 805
1, 32483, Pitch_bend_c, 12, 3524
1, 32484, Pitch_bend_c, 11, 782
1, 32484, Pitch_bend_c, 12, 3502
1, 32485, Note_on_c, 9, 42, 0
1, 32485, Pitch_bend_c, 11, 760
1, 32485, Pitch_bend_c, 12, 3479
1, 32486, Pitch_bend_c, 11, 737
1, 32486, Control_c, 12, 11, 83
1, 32486, Pitch_bend_c, 12, 3456
1, 32487, Pitch_bend_c, 11, 714
1, 32487, Pitch_bend_c, 12, 3434
1, 32488, Control_c, 11, 11, 56
1, 32488, Pitch_bend_c, 11, 692
1, 32488, Pitch_bend_c, 12, 3411
1, 32489, Pitch_bend_c, 11, 669
1, 32489, Pitch_bend_c, 12, 3388
1, 32490, Note_on_c, 0, 62, 119
1, 32490, Note_on_c, 0, 65, 89
1, 32490, Note_on_c, 0, 70, 91
1, 32490, Note_on_c, 1, 31, 116
1, 32490, Note_on_c, 5, 55, 101
1, 32490, Note_on_c, 5, 60, 111
1, 32490, Note_on_c, 7, 55, 118
1, 32490, Note_on_c, 7, 58, 120
1, 32490, Note_on_c, 7, 65, 98
1, 32490, Note_on_c, 8, 55, 118
1, 32490, Note_on_c, 8, 58, 120
1, 32490, Note_on_c, 8, 65, 98
1, 32490, Note_on_c, 10, 72, 118
1, 32490, Pitch_bend_c, 11, 646
1, 32490, Pitch_bend_c, 12, 3366
1, 32491, Pitch_bend_c, 11, 624
1, 32491, Control_c, 12, 11, 82
1, 32491, Pitch_bend_c, 12, 3343
1, 32492, Control_c, 11, 11, 55
1, 32492, Pitch_bend_c, 11, 601
1, 32492, Pitch_bend_c, 12, 3320
1, 32493, Pitch_bend_c, 11, 578
1, 32493, Pitch_bend_c, 12, 3298
1, 32494, Note_on_c, 10, 70, 0
1, 32494, Pitch_bend_c, 11, 556
1, 32494, Pitch_bend_c, 12, 3275
1, 32495, Pitch_bend_c, 11, 533
1, 32495, Control_c, 12, 11, 81
1, 32495, Pitch_bend_c, 12, 3252
1, 32496, Pitch_bend_c, 11, 510
1, 32496, Pitch_bend_c, 12, 3230
1, 32497, Control_c, 11, 11, 54
1, 32497, Pitch_bend_c, 11, 488
1, 32497, Pitch_bend_c, 12, 3207
1, 32498, Pitch_bend_c, 11, 465
1, 32498, Pitch_bend_c, 12, 3184
1, 32499, Pitch_bend_c, 11, 442
1, 32499, Pitch_bend_c, 12, 3162
1, 32500, Pitch_bend_c, 11, 420
1, 32500, Control_c, 12, 11, 80
1, 32500, Pitch_bend_c, 12, 3139
1, 32501, Control_c, 11, 11, 53
1, 32501, Pitch_bend_c, 11, 397
1, 32501, Pitch_bend_c, 12, 3116
1, 32502, Pitch_bend_c, 11, 374
1, 32502, Pitch_bend_c, 12, 3094
1, 32503, Pitch_bend_c, 11, 352
1, 32503, Pitch_bend_c, 12, 3071
1, 32504, Pitch_bend_c, 11, 329
1, 32504, Control_c, 12, 11, 79
1, 32504, Pitch_bend_c, 12, 3048
1, 32505, Pitch_bend_c, 11, 306
1, 32505, Pitch_bend_c, 12, 3026
1, 32506, Control_c, 11, 11, 52
1, 32506, Pitch_bend_c, 11, 284
1, 32506, Pitch_bend_c, 12, 3003
1, 32507, Note_on_c, 5, 60, 0
1, 32507, Pitch_bend_c, 11, 261
1, 32507, Pitch_bend_c, 12, 2980
1, 32508, Pitch_bend_c, 11, 238
1, 32508, Pitch_bend_c, 12, 2958
1, 32509, Note_on_c, 5, 55, 0
1, 32509, Pitch_bend_c, 11, 216
1, 32509, Control_c, 12, 11, 78
1, 32509, Pitch_bend_c, 12, 2935
1, 32510, Note_on_c, 2, 72, 0
1, 32510, Control_c, 11, 11, 51
1, 32510, Pitch_bend_c, 11, 193
1, 32510, Pitch_bend_c, 12, 2912
1, 32511, Pitch_bend_c, 11, 170
1, 32511, Pitch_bend_c, 12, 2890
1, 32512, Note_on_c, 1, 31, 0
1, 32512, Pitch_bend_c, 11, 148
1, 32512, Pitch_bend_c, 12, 2867
1, 32513, Note_on_c, 10, 72, 0
1, 32513, Pitch_bend_c, 11, 125
1, 32513, Control_c, 12, 11, 77
1, 32513, Pitch_bend_c, 12, 2844
1, 32514, Note_on_c, 2, 67, 0
1, 32514, Pitch_bend_c, 11, 102
1, 32514, Pitch_bend_c, 12, 2822
1, 32515, Control_c, 11, 11, 50
1, 32515, Pitch_bend_c, 11, 80
1, 32515, Pitch_bend_c, 12, 2799
1, 32516, Note_on_c, 0, 70, 0
1, 32516, Note_on_c, 8, 55, 0
1, 32516, Note_on_c, 7, 55, 0
1, 32516, Pitch_bend_c, 11, 57
1, 32516, Pitch_bend_c, 12, 2776
1, 32517, Pitch_bend_c, 11, 34
1, 32517, Pitch_bend_c, 12, 2754
1, 32518, Note_on_c, 0, 65, 0
1, 32518, Pitch_bend_c, 11, 12
1, 32518, Control_c, 12, 11, 76
1, 32518, Pitch_bend_c, 12, 2731
1, 32519, Note_on_c, 2, 63, 0
1, 32519, Note_on_c, 11, 96, 0
1, 32519, Note_on_c, 0, 62, 0
1, 32519, Pitch_bend_c, 12, 2709
1, 32520, Note_on_c, 9, 38, 120
1, 32520, Pitch_bend_c, 12, 2686
1, 32521, Pitch_bend_c, 12, 2663
1, 32522, Note_on_c, 8, 65, 0
1, 32522, Note_on_c, 7, 65, 0
1, 32522, Control_c, 12, 11, 75
1, 32522, Pitch_bend_c, 12, 2641
1, 32523, Note_on_c, 7, 58, 0
1, 32523, Note_on_c, 8, 58, 0
1, 32523, Pitch_bend_c, 12, 2618
1, 32524, Pitch_bend_c, 12, 2595
1, 32525, Pitch_bend_c, 12, 2573
1, 32526, Pitch_bend_c, 12, 2550
1, 32527, Control_c, 12, 11, 74
1, 32527, Pitch_bend_c, 12, 2527
1, 32528, Pitch_bend_c, 12, 2505
1, 32529, Pitch_bend_c, 12, 2482
1, 32530, Pitch_bend_c, 12, 2459
1, 32531, Control_c, 12, 11, 73
1, 32531, Pitch_bend_c, 12, 2437
1, 32532, Pitch_bend_c, 12, 2414
1, 32533, Pitch_bend_c, 12, 2391
1, 32534, Pitch_bend_c, 12, 2369
1, 32535, Pitch_bend_c, 12, 2346
1, 32536, Control_c, 12, 11, 72
1, 32536, Pitch_bend_c, 12, 2323
1, 32537, Pitch_bend_c, 12, 2301
1, 32538, Pitch_bend_c, 12, 2278
1, 32539, Pitch_bend_c, 12, 2255
1, 32540, Control_c, 12, 11, 71
1, 32540, Pitch_bend_c, 12, 2233
1, 32541, Pitch_bend_c, 12, 2210
1, 32542, Pitch_bend_c, 12, 2187
1, 32543, Pitch_bend_c, 12, 2165
1, 32544, Pitch_bend_c, 12, 2142
1, 32545, Control_c, 12, 11, 70
1, 32545, Pitch_bend_c, 12, 2119
1, 32546, Note_on_c, 9, 38, 0
1, 32546, Pitch_bend_c, 12, 2097
1, 32547, Pitch_bend_c, 12, 2074
1, 32548, Pitch_bend_c, 12, 2051
1, 32549, Control_c, 12, 11, 69
1, 32549, Pitch_bend_c, 12, 2029
1, 32550, Note_on_c, 0, 62, 109
1, 32550, Note_on_c, 0, 65, 77
1, 32550, Note_on_c, 0, 70, 60
1, 32550, Pitch_bend_c, 12, 2006
1, 32551, Note_on_c, 0, 70, 0
1, 32551, Note_on_c, 0, 65, 0
1, 32551, Note_on_c, 0, 62, 0
1, 32551, Pitch_bend_c, 12, 1983
1, 32552, Pitch_bend_c, 12, 1961
1, 32553, Pitch_bend_c, 12, 1938
1, 32554, Control_c, 12, 11, 68
1, 32554, Pitch_bend_c, 12, 1915
1, 32555, Pitch_bend_c, 12, 1893
1, 32556, Pitch_bend_c, 12, 1870
1, 32557, Pitch_bend_c, 12, 1847
1, 32558, Control_c, 12, 11, 67
1, 32558, Pitch_bend_c, 12, 1825
1, 32559, Pitch_bend_c, 12, 1802
1, 32560, Pitch_bend_c, 12, 1779
1, 32561, Pitch_bend_c, 12, 1757
1, 32562, Pitch_bend_c, 12, 1734
1, 32563, Control_c, 12, 11, 66
1, 32563, Pitch_bend_c, 12, 1711
1, 32564, Pitch_bend_c, 12, 1689
1, 32565, Pitch_bend_c, 12, 1666
1, 32566, Pitch_bend_c, 12, 1643
1, 32567, Control_c, 12, 11, 65
1, 32567, Pitch_bend_c, 12, 1621
1, 32568, Pitch_bend_c, 12, 1598
1, 32569, Pitch_bend_c, 12, 1575
1, 32570, Pitch_bend_c, 12, 1553
1, 32571, Pitch_bend_c, 12, 1530
1, 32572, Control_c, 12, 11, 64
1, 32572, Pitch_bend_c, 12, 1507
1, 32573, Pitch_bend_c, 12, 1485
1, 32574, Pitch_bend_c, 12, 1462
1, 32575, Pitch_bend_c, 12, 1439
1, 32576, Control_c, 12, 11, 63
1, 32576, Pitch_bend_c, 12, 1417
1, 32577, Pitch_bend_c, 12, 1394
1, 32578, Pitch_bend_c, 12, 1371
1, 32579, Pitch_bend_c, 12, 1349
1, 32580, Note_on_c, 0, 60, 119
1, 32580, Note_on_c, 0, 63, 91
1, 32580, Note_on_c, 0, 68, 91
1, 32580, Note_on_c, 1, 29, 120
1, 32580, Note_on_c, 2, 60, 105
1, 32580, Note_on_c, 2, 63, 98
1, 32580, Note_on_c, 2, 68, 92
1, 32580, Note_on_c, 7, 53, 95
1, 32580, Note_on_c, 7, 56, 119
1, 32580, Note_on_c, 7, 63, 109
1, 32580, Note_on_c, 8, 53, 95
1, 32580, Note_on_c, 8, 56, 119
1, 32580, Note_on_c, 8, 63, 109
1, 32580, Note_on_c, 9, 42, 120
1, 32580, Pitch_bend_c, 12, 1326
1, 32581, Control_c, 12, 11, 62
1, 32581, Pitch_bend_c, 12, 1304
1, 32582, Pitch_bend_c, 12, 1281
1, 32583, Pitch_bend_c, 12, 1258
1, 32584, Pitch_bend_c, 12, 1236
1, 32585, Control_c, 12, 11, 61
1, 32585, Pitch_bend_c, 12, 1213
1, 32586, Pitch_bend_c, 12, 1190
1, 32587, Pitch_bend_c, 12, 1168
1, 32588, Pitch_bend_c, 12, 1145
1, 32589, Pitch_bend_c, 12, 1122
1, 32590, Control_c, 12, 11, 60
1, 32590, Pitch_bend_c, 12, 1100
1, 32591, Pitch_bend_c, 12, 1077
1, 32592, Pitch_bend_c, 12, 1054
1, 32593, Pitch_bend_c, 12, 1032
1, 32594, Control_c, 12, 11, 59
1, 32594, Pitch_bend_c, 12, 1009
1, 32595, Pitch_bend_c, 12, 986
1, 32596, Pitch_bend_c, 12, 964
1, 32597, Pitch_bend_c, 12, 941
1, 32598, Pitch_bend_c, 12, 918
1, 32599, Control_c, 12, 11, 58
1, 32599, Pitch_bend_c, 12, 896
1, 32600, Pitch_bend_c, 12, 873
1, 32601, Pitch_bend_c, 12, 850
1, 32602, Pitch_bend_c, 12, 828
1, 32603, Control_c, 12, 11, 57
1, 32603, Pitch_bend_c, 12, 805
1, 32604, Pitch_bend_c, 12, 782
1, 32605, Note_on_c, 9, 42, 0
1, 32605, Pitch_bend_c, 12, 760
1, 32606, Pitch_bend_c, 12, 737
1, 32607, Pitch_bend_c, 12, 714
1, 32608, Control_c, 12, 11, 56
1, 32608, Pitch_bend_c, 12, 692
1, 32609, Pitch_bend_c, 12, 669
1, 32610, Pitch_bend_c, 12, 646
1, 32611, Pitch_bend_c, 12, 624
1, 32612, Control_c, 12, 11, 55
1, 32612, Pitch_bend_c, 12, 601
1, 32613, Pitch_bend_c, 12, 578
1, 32614, Pitch_bend_c, 12, 556
1, 32615, Pitch_bend_c, 12, 533
1, 32616, Pitch_bend_c, 12, 510
1, 32617, Control_c, 12, 11, 54
1, 32617, Pitch_bend_c, 12, 488
1, 32618, Pitch_bend_c, 12, 465
1, 32619, Pitch_bend_c, 12, 442
1, 32620, Pitch_bend_c, 12, 420
1, 32621, Control_c, 12, 11, 53
1, 32621, Pitch_bend_c, 12, 397
1, 32622, Pitch_bend_c, 12, 374
1, 32623, Pitch_bend_c, 12, 352
1, 32624, Pitch_bend_c, 12, 329
1, 32625, Pitch_bend_c, 12, 306
1, 32626, Control_c, 12, 11, 52
1, 32626, Pitch_bend_c, 12, 284
1, 32627, Pitch_bend_c, 12, 261
1, 32628, Pitch_bend_c, 12, 238
1, 32629, Pitch_bend_c, 12, 216
1, 32630, Control_c, 12, 11, 51
1, 32630, Pitch_bend_c, 12, 193
1, 32631, Pitch_bend_c, 12, 170
1, 32632, Pitch_bend_c, 12, 148
1, 32633, Pitch_bend_c, 12, 125
1, 32634, Pitch_bend_c, 12, 102
1, 32635, Control_c, 12, 11, 50
1, 32635, Pitch_bend_c, 12, 80
1, 32636, Pitch_bend_c, 12, 57
1, 32637, Pitch_bend_c, 12, 34
1, 32638, Pitch_bend_c, 12, 12
1, 32639, Note_on_c, 12, 96, 0
1, 32640, Note_on_c, 3, 68, 120
1, 32640, Note_on_c, 4, 60, 111
1, 32640, Note_on_c, 4, 63, 119
1, 32640, Note_on_c, 4, 72, 109
1, 32640, Note_on_c, 5, 56, 120
1, 32640, Note_on_c, 9, 36, 120
1, 32640, Note_on_c, 15, 72, 1
1, 32640, Note_on_c, 15, 60, 1
1, 32640, Note_on_c, 15, 63, 1
1, 32640, Lyric_t, "that "
1, 32667, Note_on_c, 9, 36, 0
1, 32681, Note_on_c, 1, 29, 0
1, 32700, Note_on_c, 1, 41, 120
1, 32700, Note_on_c, 5, 56, 115
1, 32700, Note_on_c, 5, 60, 111
1, 32700, Note_on_c, 9, 42, 120
1, 32707, Note_on_c, 15, 60, 0
1, 32707, Note_on_c, 4, 60, 0
1, 32708, Note_on_c, 4, 63, 0
1, 32708, Note_on_c, 15, 63, 0
1, 32709, Note_on_c, 4, 72, 0
1, 32709, Note_on_c, 15, 72, 0
1, 32725, Note_on_c, 5, 56, 0
1, 32725, Note_on_c, 3, 68, 0
1, 32726, Note_on_c, 9, 42, 0
1, 32734, Note_on_c, 1, 41, 0
1, 32744, Note_on_c, 5, 56, 0
1, 32744, Note_on_c, 5, 60, 0
1, 32754, Note_on_c, 0, 60, 0
1, 32756, Note_on_c, 0, 63, 0
1, 32759, Note_on_c, 0, 68, 0
1, 32759, Note_on_c, 7, 63, 0
1, 32759, Note_on_c, 8, 63, 0
1, 32760, Note_on_c, 7, 53, 0
1, 32760, Note_on_c, 8, 53, 0
1, 32760, Note_on_c, 1, 41, 120
1, 32760, Note_on_c, 3, 67, 118
1, 32760, Note_on_c, 4, 60, 105
1, 32760, Note_on_c, 4, 63, 115
1, 32760, Note_on_c, 4, 70, 119
1, 32760, Note_on_c, 5, 55, 118
1, 32760, Note_on_c, 5, 56, 94
1, 32760, Note_on_c, 5, 60, 111
1, 32760, Note_on_c, 9, 38, 120
1, 32760, Note_on_c, 15, 63, 1
1, 32760, Note_on_c, 15, 60, 1
1, 32760, Note_on_c, 15, 70, 1
1, 32760, Lyric_t, "is "
1, 32761, Note_on_c, 7, 56, 0
1, 32761, Note_on_c, 8, 56, 0
1, 32779, Note_on_c, 5, 56, 0
1, 32780, Note_on_c, 5, 60, 0
1, 32791, Note_on_c, 9, 38, 0
1, 32792, Note_on_c, 1, 41, 0
1, 32819, Note_on_c, 4, 63, 0
1, 32819, Note_on_c, 15, 63, 0
1, 32820, Note_on_c, 0, 60, 98
1, 32820, Note_on_c, 0, 63, 60
1, 32820, Note_on_c, 0, 68, 53
1, 32820, Note_on_c, 5, 56, 104
1, 32820, Note_on_c, 5, 60, 101
1, 32820, Note_on_c, 9, 42, 120
1, 32821, Note_on_c, 0, 68, 0
1, 32821, Note_on_c, 0, 60, 0
1, 32821, Note_on_c, 15, 60, 0
1, 32821, Note_on_c, 4, 60, 0
1, 32821, Note_on_c, 0, 63, 0
1, 32822, Note_on_c, 15, 70, 0
1, 32822, Note_on_c, 4, 70, 0
1, 32839, Note_on_c, 5, 56, 0
1, 32840, Note_on_c, 5, 60, 0
1, 32841, Note_on_c, 5, 55, 0
1, 32841, Note_on_c, 3, 67, 0
1, 32850, Note_on_c, 0, 60, 101
1, 32850, Note_on_c, 0, 63, 62
1, 32850, Note_on_c, 0, 68, 70
1, 32851, Note_on_c, 0, 68, 0
1, 32851, Note_on_c, 0, 60, 0
1, 32851, Note_on_c, 0, 63, 0
1, 32853, Note_on_c, 9, 42, 0
1, 32879, Control_c, 11, 11, 127
1, 32880, Note_on_c, 0, 60, 118
1, 32880, Note_on_c, 0, 63, 92
1, 32880, Note_on_c, 0, 68, 92
1, 32880, Note_on_c, 1, 29, 120
1, 32880, Note_on_c, 3, 63, 109
1, 32880, Note_on_c, 4, 60, 111
1, 32880, Note_on_c, 4, 63, 119
1, 32880, Note_on_c, 4, 70, 104
1, 32880, Note_on_c, 5, 51, 109
1, 32880, Note_on_c, 5, 56, 109
1, 32880, Note_on_c, 5, 60, 105
1, 32880, Note_on_c, 7, 53, 101
1, 32880, Note_on_c, 7, 56, 120
1, 32880, Note_on_c, 7, 63, 98
1, 32880, Note_on_c, 8, 53, 101
1, 32880, Note_on_c, 8, 56, 120
1, 32880, Note_on_c, 8, 63, 98
1, 32880, Note_on_c, 9, 36, 120
1, 32880, Note_on_c, 15, 60, 1
1, 32880, Note_on_c, 15, 70, 1
1, 32880, Note_on_c, 15, 63, 1
1, 32880, Lyric_t, "what "
1, 32907, Note_on_c, 9, 36, 0
1, 32915, Note_on_c, 1, 29, 0
1, 32918, Note_on_c, 0, 60, 0
1, 32921, Note_on_c, 0, 68, 0
1, 32922, Note_on_c, 0, 63, 0
1, 32936, Note_on_c, 8, 53, 0
1, 32936, Note_on_c, 7, 63, 0
1, 32936, Note_on_c, 8, 63, 0
1, 32936, Note_on_c, 7, 53, 0
1, 32937, Note_on_c, 7, 56, 0
1, 32937, Note_on_c, 8, 56, 0
1, 32940, Note_on_c, 0, 60, 97
1, 32940, Note_on_c, 0, 63, 62
1, 32940, Note_on_c, 0, 68, 62
1, 32940, Note_on_c, 9, 42, 120
1, 32941, Note_on_c, 0, 68, 0
1, 32941, Note_on_c, 0, 63, 0
1, 32941, Note_on_c, 0, 60, 0
1, 32943, Note_on_c, 5, 60, 0
1, 32944, Note_on_c, 5, 56, 0
1, 32946, Note_on_c, 4, 70, 0
1, 32946, Note_on_c, 15, 70, 0
1, 32947, Note_on_c, 4, 60, 0
1, 32947, Note_on_c, 15, 60, 0
1, 32949, Note_on_c, 15, 63, 0
1, 32949, Note_on_c, 4, 63, 0
1, 32967, Note_on_c, 3, 63, 0
1, 32967, Note_on_c, 5, 51, 0
1, 32969, Note_on_c, 9, 42, 0
1, 32970, Note_on_c, 5, 56, 111
1, 32970, Note_on_c, 5, 60, 101
1, 32988, Note_on_c, 5, 56, 0
1, 32991, Note_on_c, 5, 60, 0
1, 32999, Control_c, 12, 11, 127
1, 33000, Note_on_c, 0, 60, 116
1, 33000, Note_on_c, 0, 63, 92
1, 33000, Note_on_c, 0, 68, 111
1, 33000, Note_on_c, 1, 29, 116
1, 33000, Note_on_c, 3, 67, 120
1, 33000, Note_on_c, 4, 60, 116
1, 33000, Note_on_c, 4, 63, 119
1, 33000, Note_on_c, 4, 70, 109
1, 33000, Note_on_c, 5, 55, 120
1, 33000, Note_on_c, 7, 53, 113
1, 33000, Note_on_c, 7, 56, 120
1, 33000, Note_on_c, 7, 63, 115
1, 33000, Note_on_c, 8, 53, 113
1, 33000, Note_on_c, 8, 56, 120
1, 33000, Note_on_c, 8, 63, 115
1, 33000, Note_on_c, 9, 38, 120
1, 33000, Note_on_c, 15, 63, 1
1, 33000, Note_on_c, 15, 60, 1
1, 33000, Note_on_c, 15, 70, 1
1, 33000, Lyric_t, "you "
1, 33003, Note_on_c, 2, 60, 0
1, 33007, Note_on_c, 2, 63, 0
1, 33009, Note_on_c, 2, 68, 0
1, 33028, Note_on_c, 9, 38, 0
1, 33030, Note_on_c, 1, 29, 0
1, 33039, Note_on_c, 0, 60, 0
1, 33042, Note_on_c, 0, 63, 0
1, 33042, Note_on_c, 0, 68, 0
1, 33051, Note_on_c, 8, 53, 0
1, 33051, Note_on_c, 7, 53, 0
1, 33052, Note_on_c, 8, 56, 0
1, 33052, Note_on_c, 7, 56, 0
1, 33055, Note_on_c, 7, 63, 0
1, 33055, Note_on_c, 8, 63, 0
1, 33056, Note_on_c, 15, 70, 0
1, 33056, Note_on_c, 4, 70, 0
1, 33059, Note_on_c, 4, 60, 0
1, 33059, Note_on_c, 15, 60, 0
1, 33060, Note_on_c, 9, 42, 120
1, 33061, Note_on_c, 4, 63, 0
1, 33061, Note_on_c, 15, 63, 0
1, 33087, Note_on_c, 9, 42, 0
1, 33090, Note_on_c, 4, 62, 101
1, 33090, Note_on_c, 4, 65, 111
1, 33090, Note_on_c, 4, 70, 92
1, 33090, Note_on_c, 15, 70, 1
1, 33090, Note_on_c, 15, 62, 1
1, 33090, Note_on_c, 15, 65, 1
1, 33094, Note_on_c, 3, 67, 0
1, 33094, Note_on_c, 5, 55, 0
1, 33120, Note_on_c, 0, 62, 116
1, 33120, Note_on_c, 0, 65, 94
1, 33120, Note_on_c, 0, 70, 92
1, 33120, Note_on_c, 1, 31, 120
1, 33120, Note_on_c, 2, 62, 101
1, 33120, Note_on_c, 2, 65, 109
1, 33120, Note_on_c, 2, 70, 89
1, 33120, Note_on_c, 3, 65, 120
1, 33120, Note_on_c, 5, 53, 120
1, 33120, Note_on_c, 7, 55, 120
1, 33120, Note_on_c, 7, 58, 120
1, 33120, Note_on_c, 7, 65, 90
1, 33120, Note_on_c, 8, 55, 120
1, 33120, Note_on_c, 8, 58, 120
1, 33120, Note_on_c, 8, 65, 90
1, 33120, Note_on_c, 9, 36, 120
1, 33120, Lyric_t, "are "
1, 33120, Lyric_t, "\015"
1, 33148, Note_on_c, 9, 36, 0
1, 33166, Note_on_c, 1, 31, 0
1, 33180, Note_on_c, 1, 43, 119
1, 33180, Note_on_c, 5, 55, 94
1, 33180, Note_on_c, 5, 62, 103
1, 33180, Note_on_c, 9, 42, 120
1, 33182, Note_on_c, 4, 65, 0
1, 33182, Note_on_c, 15, 65, 0
1, 33184, Note_on_c, 4, 70, 0
1, 33184, Note_on_c, 15, 70, 0
1, 33185, Note_on_c, 15, 62, 0
1, 33185, Note_on_c, 4, 62, 0
1, 33207, Note_on_c, 9, 42, 0
1, 33213, Note_on_c, 5, 53, 0
1, 33213, Note_on_c, 3, 65, 0
1, 33219, Note_on_c, 5, 55, 0
1, 33222, Note_on_c, 0, 65, 0
1, 33226, Note_on_c, 5, 62, 0
1, 33231, Note_on_c, 1, 43, 0
1, 33231, Note_on_c, 0, 62, 0
1, 33235, Note_on_c, 0, 70, 0
1, 33240, Note_on_c, 7, 55, 0
1, 33240, Note_on_c, 8, 55, 0
1, 33240, Note_on_c, 5, 55, 94
1, 33240, Note_on_c, 5, 62, 105
1, 33240, Note_on_c, 9, 38, 120
1, 33242, Note_on_c, 8, 58, 0
1, 33242, Note_on_c, 7, 58, 0
1, 33245, Note_on_c, 7, 65, 0
1, 33245, Note_on_c, 8, 65, 0
1, 33258, Note_on_c, 5, 55, 0
1, 33259, Note_on_c, 5, 62, 0
1, 33267, Note_on_c, 9, 38, 0
1, 33287, Note_on_c, 10, 70, 89
1, 33300, Note_on_c, 0, 62, 100
1, 33300, Note_on_c, 0, 65, 71
1, 33300, Note_on_c, 0, 70, 48
1, 33300, Note_on_c, 5, 55, 109
1, 33300, Note_on_c, 5, 62, 113
1, 33300, Note_on_c, 9, 42, 120
1, 33300, Note_on_c, 10, 72, 118
1, 33301, Note_on_c, 0, 70, 0
1, 33301, Note_on_c, 0, 65, 0
1, 33301, Note_on_c, 0, 62, 0
1, 33305, Note_on_c, 10, 70, 0
1, 33317, Note_on_c, 5, 55, 0
1, 33321, Note_on_c, 5, 62, 0
1, 33323, Note_on_c, 10, 72, 0
1, 33330, Note_on_c, 0, 62, 98
1, 33330, Note_on_c, 0, 65, 78
1, 33330, Note_on_c, 0, 70, 71
1, 33331, Note_on_c, 0, 70, 0
1, 33331, Note_on_c, 0, 62, 0
1, 33331, Note_on_c, 0, 65, 0
1, 33332, Note_on_c, 9, 42, 0
1, 33360, Note_on_c, 0, 62, 113
1, 33360, Note_on_c, 0, 65, 83
1, 33360, Note_on_c, 0, 70, 92
1, 33360, Note_on_c, 1, 31, 119
1, 33360, Note_on_c, 5, 55, 101
1, 33360, Note_on_c, 5, 62, 119
1, 33360, Note_on_c, 7, 55, 116
1, 33360, Note_on_c, 7, 58, 120
1, 33360, Note_on_c, 7, 65, 101
1, 33360, Note_on_c, 8, 55, 116
1, 33360, Note_on_c, 8, 58, 120
1, 33360, Note_on_c, 8, 65, 101
1, 33360, Note_on_c, 9, 36, 120
1, 33360, Note_on_c, 10, 70, 120
1, 33387, Note_on_c, 9, 36, 0
1, 33389, Note_on_c, 1, 31, 0
1, 33392, Note_on_c, 7, 58, 0
1, 33392, Note_on_c, 7, 55, 0
1, 33392, Note_on_c, 8, 58, 0
1, 33392, Note_on_c, 8, 55, 0
1, 33393, Note_on_c, 8, 65, 0
1, 33393, Note_on_c, 7, 65, 0
1, 33402, Note_on_c, 0, 62, 0
1, 33404, Note_on_c, 0, 70, 0
1, 33411, Note_on_c, 0, 65, 0
1, 33420, Note_on_c, 5, 55, 0
1, 33420, Note_on_c, 0, 62, 94
1, 33420, Note_on_c, 0, 65, 59
1, 33420, Note_on_c, 0, 70, 57
1, 33420, Note_on_c, 9, 42, 120
1, 33421, Note_on_c, 0, 70, 0
1, 33421, Note_on_c, 0, 65, 0
1, 33421, Note_on_c, 0, 62, 0
1, 33421, Note_on_c, 5, 62, 0
1, 33446, Note_on_c, 9, 42, 0
1, 33450, Note_on_c, 2, 65, 0
1, 33450, Note_on_c, 0, 62, 111
1, 33450, Note_on_c, 0, 65, 87
1, 33450, Note_on_c, 0, 70, 92
1, 33450, Note_on_c, 1, 34, 120
1, 33450, Note_on_c, 5, 55, 101
1, 33450, Note_on_c, 5, 62, 105
1, 33450, Note_on_c, 7, 55, 120
1, 33450, Note_on_c, 7, 58, 120
1, 33450, Note_on_c, 7, 65, 105
1, 33450, Note_on_c, 8, 55, 120
1, 33450, Note_on_c, 8, 58, 120
1, 33450, Note_on_c, 8, 65, 105
1, 33450, Note_on_c, 10, 72, 118
1, 33452, Note_on_c, 2, 62, 0
1, 33454, Note_on_c, 10, 70, 0
1, 33459, Note_on_c, 2, 70, 0
1, 33465, Note_on_c, 5, 55, 0
1, 33469, Note_on_c, 5, 62, 0
1, 33473, Note_on_c, 10, 72, 0
1, 33473, Note_on_c, 7, 55, 0
1, 33473, Note_on_c, 8, 55, 0
1, 33474, Note_on_c, 7, 58, 0
1, 33474, Note_on_c, 8, 58, 0
1, 33480, Note_on_c, 7, 65, 0
1, 33480, Note_on_c, 8, 65, 0
1, 33480, Note_on_c, 3, 63, 120
1, 33480, Note_on_c, 4, 62, 101
1, 33480, Note_on_c, 4, 65, 101
1, 33480, Note_on_c, 4, 70, 115
1, 33480, Note_on_c, 5, 51, 120
1, 33480, Note_on_c, 9, 38, 120
1, 33480, Note_on_c, 15, 65, 1
1, 33480, Note_on_c, 15, 62, 1
1, 33480, Note_on_c, 15, 70, 1
1, 33480, Lyric_t, "Ho"
1, 33481, Note_on_c, 1, 34, 0
1, 33486, Note_on_c, 0, 62, 0
1, 33488, Note_on_c, 0, 70, 0
1, 33491, Note_on_c, 0, 65, 0
1, 33505, Note_on_c, 9, 38, 0
1, 33510, Note_on_c, 0, 62, 78
1, 33510, Note_on_c, 0, 65, 72
1, 33510, Note_on_c, 0, 70, 70
1, 33511, Note_on_c, 0, 70, 0
1, 33511, Note_on_c, 0, 65, 0
1, 33511, Note_on_c, 0, 62, 0
1, 33517, Note_on_c, 15, 62, 0
1, 33517, Note_on_c, 4, 62, 0
1, 33520, Note_on_c, 4, 70, 0
1, 33520, Note_on_c, 15, 70, 0
1, 33520, Note_on_c, 15, 65, 0
1, 33520, Note_on_c, 4, 65, 0
1, 33530, Note_on_c, 3, 63, 0
1, 33530, Note_on_c, 5, 51, 0
1, 33540, Note_on_c, 0, 63, 87
1, 33540, Note_on_c, 0, 67, 105
1, 33540, Note_on_c, 0, 72, 113
1, 33540, Note_on_c, 1, 36, 120
1, 33540, Note_on_c, 2, 63, 81
1, 33540, Note_on_c, 2, 67, 116
1, 33540, Note_on_c, 2, 72, 105
1, 33540, Note_on_c, 3, 60, 120
1, 33540, Note_on_c, 4, 62, 91
1, 33540, Note_on_c, 4, 65, 100
1, 33540, Note_on_c, 4, 67, 103
1, 33540, Note_on_c, 5, 48, 120
1, 33540, Note_on_c, 7, 60, 116
1, 33540, Note_on_c, 7, 63, 104
1, 33540, Note_on_c, 7, 67, 116
1, 33540, Note_on_c, 8, 60, 116
1, 33540, Note_on_c, 8, 63, 104
1, 33540, Note_on_c, 8, 67, 116
1, 33540, Note_on_c, 9, 42, 120
1, 33540, Note_on_c, 15, 62, 1
1, 33540, Note_on_c, 15, 67, 1
1, 33540, Note_on_c, 15, 65, 1
1, 33540, Lyric_t, "ney, "
1, 33563, Note_on_c, 15, 65, 0
1, 33563, Note_on_c, 4, 65, 0
1, 33564, Note_on_c, 15, 62, 0
1, 33564, Note_on_c, 4, 62, 0
1, 33567, Note_on_c, 9, 42, 0
1, 33569, Note_on_c, 4, 67, 0
1, 33569, Note_on_c, 15, 67, 0
1, 33573, Note_on_c, 3, 60, 0
1, 33573, Note_on_c, 5, 48, 0
1, 33600, Note_on_c, 3, 68, 119
1, 33600, Note_on_c, 4, 63, 86
1, 33600, Note_on_c, 4, 67, 118
1, 33600, Note_on_c, 4, 72, 95
1, 33600, Note_on_c, 5, 56, 119
1, 33600, Note_on_c, 5, 60, 101
1, 33600, Note_on_c, 5, 63, 96
1, 33600, Note_on_c, 9, 36, 120
1, 33600, Note_on_c, 15, 67, 1
1, 33600, Note_on_c, 15, 63, 1
1, 33600, Note_on_c, 15, 72, 1
1, 33600, Lyric_t, "you're "
1, 33626, Note_on_c, 9, 36, 0
1, 33649, Note_on_c, 5, 60, 0
1, 33652, Note_on_c, 5, 63, 0
1, 33657, Note_on_c, 1, 36, 0
1, 33660, Note_on_c, 1, 48, 120
1, 33660, Note_on_c, 9, 42, 120
1, 33683, Note_on_c, 15, 63, 0
1, 33683, Note_on_c, 4, 63, 0
1, 33685, Note_on_c, 4, 72, 0
1, 33685, Note_on_c, 15, 72, 0
1, 33687, Note_on_c, 4, 67, 0
1, 33687, Note_on_c, 9, 42, 0
1, 33687, Note_on_c, 15, 67, 0
1, 33695, Note_on_c, 5, 56, 0
1, 33695, Note_on_c, 3, 68, 0
1, 33696, Note_on_c, 1, 48, 0
1, 33712, Note_on_c, 8, 67, 0
1, 33712, Note_on_c, 7, 67, 0
1, 33713, Note_on_c, 8, 60, 0
1, 33713, Note_on_c, 7, 60, 0
1, 33714, Note_on_c, 8, 63, 0
1, 33714, Note_on_c, 7, 63, 0
1, 33719, Note_on_c, 0, 67, 0
1, 33719, Note_on_c, 0, 72, 0
1, 33720, Note_on_c, 0, 63, 92
1, 33720, Note_on_c, 0, 67, 61
1, 33720, Note_on_c, 0, 72, 105
1, 33720, Note_on_c, 3, 67, 120
1, 33720, Note_on_c, 4, 63, 100
1, 33720, Note_on_c, 4, 67, 118
1, 33720, Note_on_c, 4, 70, 92
1, 33720, Note_on_c, 5, 55, 120
1, 33720, Note_on_c, 5, 60, 109
1, 33720, Note_on_c, 5, 63, 104
1, 33720, Note_on_c, 9, 38, 120
1, 33720, Note_on_c, 15, 70, 1
1, 33720, Note_on_c, 15, 63, 1
1, 33720, Note_on_c, 15, 67, 1
1, 33720, Lyric_t, "my "
1, 33721, Note_on_c, 0, 72, 0
1, 33721, Note_on_c, 0, 63, 0
1, 33721, Note_on_c, 0, 67, 0
1, 33721, Note_on_c, 0, 63, 0
1, 33744, Note_on_c, 9, 38, 0
1, 33768, Note_on_c, 5, 60, 0
1, 33773, Note_on_c, 5, 63, 0
1, 33780, Note_on_c, 1, 34, 98
1, 33780, Note_on_c, 9, 42, 120
1, 33783, Note_on_c, 15, 67, 0
1, 33783, Note_on_c, 4, 67, 0
1, 33795, Note_on_c, 15, 70, 0
1, 33795, Note_on_c, 4, 63, 0
1, 33795, Note_on_c, 15, 63, 0
1, 33795, Note_on_c, 4, 70, 0
1, 33808, Note_on_c, 9, 42, 0
1, 33809, Note_on_c, 1, 34, 0
1, 33810, Note_on_c, 1, 36, 111
1, 33812, Note_on_c, 3, 67, 0
1, 33812, Note_on_c, 5, 55, 0
1, 33812, Note_on_c, 2, 67, 0
1, 33815, Note_on_c, 2, 72, 0
1, 33819, Note_on_c, 2, 63, 0
1, 33839, Note_on_c, 1, 36, 0
1, 33840, Note_on_c, 0, 63, 94
1, 33840, Note_on_c, 0, 67, 100
1, 33840, Note_on_c, 0, 72, 94
1, 33840, Note_on_c, 1, 39, 94
1, 33840, Note_on_c, 2, 63, 81
1, 33840, Note_on_c, 2, 67, 119
1, 33840, Note_on_c, 2, 72, 91
1, 33840, Note_on_c, 3, 65, 118
1, 33840, Note_on_c, 4, 62, 103
1, 33840, Note_on_c, 4, 65, 103
1, 33840, Note_on_c, 4, 70, 109
1, 33840, Note_on_c, 5, 53, 118
1, 33840, Note_on_c, 5, 60, 111
1, 33840, Note_on_c, 5, 63, 98
1, 33840, Note_on_c, 7, 60, 107
1, 33840, Note_on_c, 7, 63, 119
1, 33840, Note_on_c, 7, 67, 103
1, 33840, Note_on_c, 8, 60, 107
1, 33840, Note_on_c, 8, 63, 119
1, 33840, Note_on_c, 8, 67, 103
1, 33840, Note_on_c, 9, 36, 120
1, 33840, Note_on_c, 15, 65, 1
1, 33840, Note_on_c, 15, 62, 1
1, 33840, Note_on_c, 15, 70, 1
1, 33840, Lyric_t, "gol"
1, 33866, Note_on_c, 9, 36, 0
1, 33869, Note_on_c, 1, 39, 0
1, 33870, Note_on_c, 1, 36, 118
1, 33873, Note_on_c, 0, 72, 0
1, 33873, Note_on_c, 0, 67, 0
1, 33877, Note_on_c, 0, 63, 0
1, 33888, Note_on_c, 2, 72, 0
1, 33891, Note_on_c, 7, 67, 0
1, 33891, Note_on_c, 8, 67, 0
1, 33892, Note_on_c, 8, 60, 0
1, 33892, Note_on_c, 7, 60, 0
1, 33893, Note_on_c, 5, 60, 0
1, 33895, Note_on_c, 5, 63, 0
1, 33896, Note_on_c, 7, 63, 0
1, 33896, Note_on_c, 8, 63, 0
1, 33896, Note_on_c, 2, 67, 0
1, 33898, Note_on_c, 2, 63, 0
1, 33900, Note_on_c, 9, 42, 120
1, 33906, Note_on_c, 1, 36, 0
1, 33914, Note_on_c, 4, 62, 0
1, 33914, Note_on_c, 15, 62, 0
1, 33917, Note_on_c, 4, 65, 0
1, 33917, Note_on_c, 4, 70, 0
1, 33917, Note_on_c, 15, 65, 0
1, 33917, Note_on_c, 15, 70, 0
1, 33923, Note_on_c, 9, 42, 0
1, 33932, Note_on_c, 3, 65, 0
1, 33932, Note_on_c, 5, 53, 0
1, 33960, Note_on_c, 0, 62, 119
1, 33960, Note_on_c, 0, 65, 105
1, 33960, Note_on_c, 0, 70, 92
1, 33960, Note_on_c, 1, 34, 109
1, 33960, Note_on_c, 2, 62, 98
1, 33960, Note_on_c, 2, 65, 116
1, 33960, Note_on_c, 2, 70, 91
1, 33960, Note_on_c, 3, 67, 120
1, 33960, Note_on_c, 4, 62, 105
1, 33960, Note_on_c, 4, 65, 109
1, 33960, Note_on_c, 4, 70, 111
1, 33960, Note_on_c, 5, 55, 120
1, 33960, Note_on_c, 5, 60, 116
1, 33960, Note_on_c, 5, 63, 109
1, 33960, Note_on_c, 7, 58, 98
1, 33960, Note_on_c, 7, 62, 120
1, 33960, Note_on_c, 7, 65, 107
1, 33960, Note_on_c, 8, 58, 98
1, 33960, Note_on_c, 8, 62, 120
1, 33960, Note_on_c, 8, 65, 107
1, 33960, Note_on_c, 9, 38, 120
1, 33960, Note_on_c, 15, 62, 1
1, 33960, Note_on_c, 15, 70, 1
1, 33960, Note_on_c, 15, 65, 1
1, 33960, Lyric_t, "den "
1, 33988, Note_on_c, 9, 38, 0
1, 33988, Note_on_c, 0, 62, 0
1, 33993, Note_on_c, 0, 70, 0
1, 33994, Note_on_c, 0, 65, 0
1, 33995, Note_on_c, 5, 60, 0
1, 34000, Note_on_c, 5, 63, 0
1, 34009, Note_on_c, 4, 62, 0
1, 34009, Note_on_c, 15, 62, 0
1, 34012, Note_on_c, 4, 65, 0
1, 34012, Note_on_c, 15, 65, 0
1, 34015, Note_on_c, 7, 62, 0
1, 34015, Note_on_c, 8, 62, 0
1, 34016, Note_on_c, 4, 70, 0
1, 34016, Note_on_c, 15, 70, 0
1, 34018, Note_on_c, 8, 58, 0
1, 34018, Note_on_c, 7, 58, 0
1, 34020, Note_on_c, 9, 42, 120
1, 34021, Note_on_c, 8, 65, 0
1, 34021, Note_on_c, 7, 65, 0
1, 34029, Note_on_c, 2, 65, 0
1, 34030, Note_on_c, 2, 62, 0
1, 34032, Note_on_c, 5, 55, 0
1, 34032, Note_on_c, 2, 70, 0
1, 34032, Note_on_c, 3, 67, 0
1, 34040, Note_on_c, 9, 42, 0
1, 34050, Note_on_c, 3, 60, 120
1, 34050, Note_on_c, 4, 60, 97
1, 34050, Note_on_c, 4, 63, 119
1, 34050, Note_on_c, 4, 70, 120
1, 34050, Note_on_c, 5, 48, 120
1, 34050, Note_on_c, 5, 60, 116
1, 34050, Note_on_c, 5, 63, 106
1, 34050, Note_on_c, 15, 63, 1
1, 34050, Note_on_c, 15, 60, 1
1, 34050, Note_on_c, 15, 70, 1
1, 34050, Lyric_t, "star "
1, 34050, Lyric_t, "\015"
1, 34061, Note_on_c, 15, 70, 0
1, 34061, Note_on_c, 4, 70, 0
1, 34063, Note_on_c, 1, 34, 0
1, 34066, Note_on_c, 4, 63, 0
1, 34066, Note_on_c, 15, 63, 0
1, 34066, Note_on_c, 15, 60, 0
1, 34066, Note_on_c, 4, 60, 0
1, 34069, Note_on_c, 5, 60, 0
1, 34073, Note_on_c, 5, 63, 0
1, 34080, Note_on_c, 5, 48, 0
1, 34080, Note_on_c, 3, 60, 0
1, 34080, Note_on_c, 0, 63, 98
1, 34080, Note_on_c, 0, 67, 118
1, 34080, Note_on_c, 0, 72, 105
1, 34080, Note_on_c, 1, 32, 120
1, 34080, Note_on_c, 2, 63, 81
1, 34080, Note_on_c, 2, 67, 116
1, 34080, Note_on_c, 2, 72, 107
1, 34080, Note_on_c, 7, 56, 92
1, 34080, Note_on_c, 7, 60, 120
1, 34080, Note_on_c, 7, 67, 113
1, 34080, Note_on_c, 8, 56, 92
1, 34080, Note_on_c, 8, 60, 120
1, 34080, Note_on_c, 8, 67, 113
1, 34080, Note_on_c, 9, 36, 120
1, 34080, Note_on_c, 11, 96, 120
1, 34080, Pitch_bend_c, 11, 8125
1, 34081, Pitch_bend_c, 11, 8102
1, 34082, Pitch_bend_c, 11, 8079
1, 34083, Pitch_bend_c, 11, 8057
1, 34084, Pitch_bend_c, 11, 8034
1, 34085, Pitch_bend_c, 11, 8011
1, 34086, Pitch_bend_c, 11, 7989
1, 34087, Pitch_bend_c, 11, 7966
1, 34088, Control_c, 11, 11, 126
1, 34088, Pitch_bend_c, 11, 7943
1, 34089, Pitch_bend_c, 11, 7921
1, 34090, Pitch_bend_c, 11, 7898
1, 34091, Pitch_bend_c, 11, 7875
1, 34092, Pitch_bend_c, 11, 7853
1, 34093, Control_c, 11, 11, 125
1, 34093, Pitch_bend_c, 11, 7830
1, 34094, Pitch_bend_c, 11, 7807
1, 34095, Pitch_bend_c, 11, 7785
1, 34096, Pitch_bend_c, 11, 7762
1, 34097, Control_c, 11, 11, 124
1, 34097, Pitch_bend_c, 11, 7739
1, 34098, Pitch_bend_c, 11, 7717
1, 34099, Pitch_bend_c, 11, 7694
1, 34100, Pitch_bend_c, 11, 7671
1, 34101, Pitch_bend_c, 11, 7649
1, 34102, Control_c, 11, 11, 123
1, 34102, Pitch_bend_c, 11, 7626
1, 34103, Pitch_bend_c, 11, 7603
1, 34104, Pitch_bend_c, 11, 7581
1, 34105, Pitch_bend_c, 11, 7558
1, 34106, Control_c, 11, 11, 122
1, 34106, Pitch_bend_c, 11, 7535
1, 34107, Pitch_bend_c, 11, 7513
1, 34108, Pitch_bend_c, 11, 7490
1, 34109, Pitch_bend_c, 11, 7467
1, 34110, Pitch_bend_c, 11, 7445
1, 34111, Control_c, 11, 11, 121
1, 34111, Pitch_bend_c, 11, 7422
1, 34112, Pitch_bend_c, 11, 7399
1, 34113, Note_on_c, 9, 36, 0
1, 34113, Pitch_bend_c, 11, 7377
1, 34114, Pitch_bend_c, 11, 7354
1, 34115, Control_c, 11, 11, 120
1, 34115, Pitch_bend_c, 11, 7331
1, 34116, Pitch_bend_c, 11, 7309
1, 34117, Pitch_bend_c, 11, 7286
1, 34118, Pitch_bend_c, 11, 7263
1, 34119, Pitch_bend_c, 11, 7241
1, 34120, Control_c, 11, 11, 119
1, 34120, Pitch_bend_c, 11, 7218
1, 34121, Pitch_bend_c, 11, 7195
1, 34122, Pitch_bend_c, 11, 7173
1, 34123, Pitch_bend_c, 11, 7150
1, 34124, Control_c, 11, 11, 118
1, 34124, Pitch_bend_c, 11, 7127
1, 34125, Pitch_bend_c, 11, 7105
1, 34126, Pitch_bend_c, 11, 7082
1, 34127, Pitch_bend_c, 11, 7059
1, 34128, Pitch_bend_c, 11, 7037
1, 34129, Control_c, 11, 11, 117
1, 34129, Pitch_bend_c, 11, 7014
1, 34130, Pitch_bend_c, 11, 6991
1, 34131, Pitch_bend_c, 11, 6969
1, 34132, Pitch_bend_c, 11, 6946
1, 34133, Control_c, 11, 11, 116
1, 34133, Pitch_bend_c, 11, 6923
1, 34134, Pitch_bend_c, 11, 6901
1, 34135, Pitch_bend_c, 11, 6878
1, 34136, Pitch_bend_c, 11, 6855
1, 34137, Pitch_bend_c, 11, 6833
1, 34138, Control_c, 11, 11, 115
1, 34138, Pitch_bend_c, 11, 6810
1, 34139, Note_on_c, 1, 32, 0
1, 34139, Pitch_bend_c, 11, 6788
1, 34140, Note_on_c, 1, 44, 120
1, 34140, Note_on_c, 5, 55, 105
1, 34140, Note_on_c, 5, 60, 111
1, 34140, Note_on_c, 9, 42, 120
1, 34140, Pitch_bend_c, 11, 6765
1, 34141, Pitch_bend_c, 11, 6742
1, 34142, Control_c, 11, 11, 114
1, 34142, Pitch_bend_c, 11, 6720
1, 34143, Pitch_bend_c, 11, 6697
1, 34144, Pitch_bend_c, 11, 6674
1, 34145, Pitch_bend_c, 11, 6652
1, 34146, Pitch_bend_c, 11, 6629
1, 34147, Control_c, 11, 11, 113
1, 34147, Pitch_bend_c, 11, 6606
1, 34148, Pitch_bend_c, 11, 6584
1, 34149, Pitch_bend_c, 11, 6561
1, 34150, Pitch_bend_c, 11, 6538
1, 34151, Control_c, 11, 11, 112
1, 34151, Pitch_bend_c, 11, 6516
1, 34152, Pitch_bend_c, 11, 6493
1, 34153, Pitch_bend_c, 11, 6470
1, 34154, Pitch_bend_c, 11, 6448
1, 34155, Pitch_bend_c, 11, 6425
1, 34156, Control_c, 11, 11, 111
1, 34156, Pitch_bend_c, 11, 6402
1, 34157, Pitch_bend_c, 11, 6380
1, 34158, Pitch_bend_c, 11, 6357
1, 34159, Pitch_bend_c, 11, 6334
1, 34160, Control_c, 11, 11, 110
1, 34160, Pitch_bend_c, 11, 6312
1, 34161, Pitch_bend_c, 11, 6289
1, 34162, Pitch_bend_c, 11, 6266
1, 34163, Pitch_bend_c, 11, 6244
1, 34164, Pitch_bend_c, 11, 6221
1, 34165, Control_c, 11, 11, 109
1, 34165, Pitch_bend_c, 11, 6198
1, 34166, Pitch_bend_c, 11, 6176
1, 34167, Pitch_bend_c, 11, 6153
1, 34168, Pitch_bend_c, 11, 6130
1, 34169, Control_c, 11, 11, 108
1, 34169, Pitch_bend_c, 11, 6108
1, 34170, Pitch_bend_c, 11, 6085
1, 34171, Note_on_c, 9, 42, 0
1, 34171, Pitch_bend_c, 11, 6062
1, 34172, Pitch_bend_c, 11, 6040
1, 34173, Pitch_bend_c, 11, 6017
1, 34174, Note_on_c, 5, 55, 0
1, 34174, Control_c, 11, 11, 107
1, 34174, Pitch_bend_c, 11, 5994
1, 34175, Note_on_c, 1, 44, 0
1, 34175, Pitch_bend_c, 11, 5972
1, 34176, Pitch_bend_c, 11, 5949
1, 34177, Note_on_c, 5, 60, 0
1, 34177, Pitch_bend_c, 11, 5926
1, 34178, Control_c, 11, 11, 106
1, 34178, Pitch_bend_c, 11, 5904
1, 34179, Pitch_bend_c, 11, 5881
1, 34180, Pitch_bend_c, 11, 5858
1, 34181, Pitch_bend_c, 11, 5836
1, 34182, Pitch_bend_c, 11, 5813
1, 34183, Control_c, 11, 11, 105
1, 34183, Pitch_bend_c, 11, 5790
1, 34184, Pitch_bend_c, 11, 5768
1, 34185, Pitch_bend_c, 11, 5745
1, 34186, Pitch_bend_c, 11, 5722
1, 34187, Control_c, 11, 11, 104
1, 34187, Pitch_bend_c, 11, 5700
1, 34188, Pitch_bend_c, 11, 5677
1, 34189, Pitch_bend_c, 11, 5654
1, 34190, Note_on_c, 0, 67, 0
1, 34190, Pitch_bend_c, 11, 5632
1, 34191, Pitch_bend_c, 11, 5609
1, 34192, Control_c, 11, 11, 103
1, 34192, Pitch_bend_c, 11, 5586
1, 34193, Pitch_bend_c, 11, 5564
1, 34194, Note_on_c, 7, 67, 0
1, 34194, Note_on_c, 8, 67, 0
1, 34194, Pitch_bend_c, 11, 5541
1, 34195, Note_on_c, 7, 56, 0
1, 34195, Note_on_c, 8, 56, 0
1, 34195, Pitch_bend_c, 11, 5518
1, 34196, Note_on_c, 0, 63, 0
1, 34196, Note_on_c, 7, 60, 0
1, 34196, Note_on_c, 8, 60, 0
1, 34196, Control_c, 11, 11, 102
1, 34196, Pitch_bend_c, 11, 5496
1, 34197, Pitch_bend_c, 11, 5473
1, 34198, Note_on_c, 0, 72, 0
1, 34198, Pitch_bend_c, 11, 5451
1, 34199, Pitch_bend_c, 11, 5428
1, 34200, Note_on_c, 5, 55, 100
1, 34200, Note_on_c, 5, 60, 105
1, 34200, Note_on_c, 9, 38, 120
1, 34200, Pitch_bend_c, 11, 5405
1, 34200, Note_on_c, 12, 96, 120
1, 34200, Pitch_bend_c, 12, 8125
1, 34201, Control_c, 11, 11, 101
1, 34201, Pitch_bend_c, 11, 5383
1, 34201, Pitch_bend_c, 12, 8102
1, 34202, Pitch_bend_c, 11, 5360
1, 34202, Pitch_bend_c, 12, 8079
1, 34203, Pitch_bend_c, 11, 5337
1, 34203, Pitch_bend_c, 12, 8057
1, 34204, Pitch_bend_c, 11, 5315
1, 34204, Pitch_bend_c, 12, 8034
1, 34205, Control_c, 11, 11, 100
1, 34205, Pitch_bend_c, 11, 5292
1, 34205, Pitch_bend_c, 12, 8011
1, 34206, Pitch_bend_c, 11, 5269
1, 34206, Pitch_bend_c, 12, 7989
1, 34207, Pitch_bend_c, 11, 5247
1, 34207, Pitch_bend_c, 12, 7966
1, 34208, Pitch_bend_c, 11, 5224
1, 34208, Control_c, 12, 11, 126
1, 34208, Pitch_bend_c, 12, 7943
1, 34209, Pitch_bend_c, 11, 5201
1, 34209, Pitch_bend_c, 12, 7921
1, 34210, Control_c, 11, 11, 99
1, 34210, Pitch_bend_c, 11, 5179
1, 34210, Pitch_bend_c, 12, 7898
1, 34211, Pitch_bend_c, 11, 5156
1, 34211, Pitch_bend_c, 12, 7875
1, 34212, Pitch_bend_c, 11, 5133
1, 34212, Pitch_bend_c, 12, 7853
1, 34213, Pitch_bend_c, 11, 5111
1, 34213, Control_c, 12, 11, 125
1, 34213, Pitch_bend_c, 12, 7830
1, 34214, Control_c, 11, 11, 98
1, 34214, Pitch_bend_c, 11, 5088
1, 34214, Pitch_bend_c, 12, 7807
1, 34215, Pitch_bend_c, 11, 5065
1, 34215, Pitch_bend_c, 12, 7785
1, 34216, Pitch_bend_c, 11, 5043
1, 34216, Pitch_bend_c, 12, 7762
1, 34217, Pitch_bend_c, 11, 5020
1, 34217, Control_c, 12, 11, 124
1, 34217, Pitch_bend_c, 12, 7739
1, 34218, Pitch_bend_c, 11, 4997
1, 34218, Pitch_bend_c, 12, 7717
1, 34219, Note_on_c, 5, 55, 0
1, 34219, Control_c, 11, 11, 97
1, 34219, Pitch_bend_c, 11, 4975
1, 34219, Pitch_bend_c, 12, 7694
1, 34220, Pitch_bend_c, 11, 4952
1, 34220, Pitch_bend_c, 12, 7671
1, 34221, Note_on_c, 5, 60, 0
1, 34221, Pitch_bend_c, 11, 4929
1, 34221, Pitch_bend_c, 12, 7649
1, 34222, Pitch_bend_c, 11, 4907
1, 34222, Control_c, 12, 11, 123
1, 34222, Pitch_bend_c, 12, 7626
1, 34223, Control_c, 11, 11, 96
1, 34223, Pitch_bend_c, 11, 4884
1, 34223, Pitch_bend_c, 12, 7603
1, 34224, Pitch_bend_c, 11, 4861
1, 34224, Pitch_bend_c, 12, 7581
1, 34225, Pitch_bend_c, 11, 4839
1, 34225, Pitch_bend_c, 12, 7558
1, 34226, Pitch_bend_c, 11, 4816
1, 34226, Control_c, 12, 11, 122
1, 34226, Pitch_bend_c, 12, 7535
1, 34227, Pitch_bend_c, 11, 4793
1, 34227, Pitch_bend_c, 12, 7513
1, 34228, Control_c, 11, 11, 95
1, 34228, Pitch_bend_c, 11, 4771
1, 34228, Pitch_bend_c, 12, 7490
1, 34229, Pitch_bend_c, 11, 4748
1, 34229, Pitch_bend_c, 12, 7467
1, 34230, Note_on_c, 0, 63, 73
1, 34230, Note_on_c, 0, 67, 82
1, 34230, Note_on_c, 0, 72, 83
1, 34230, Pitch_bend_c, 11, 4725
1, 34230, Pitch_bend_c, 12, 7445
1, 34231, Note_on_c, 0, 72, 0
1, 34231, Note_on_c, 0, 67, 0
1, 34231, Note_on_c, 0, 63, 0
1, 34231, Pitch_bend_c, 11, 4703
1, 34231, Control_c, 12, 11, 121
1, 34231, Pitch_bend_c, 12, 7422
1, 34232, Control_c, 11, 11, 94
1, 34232, Pitch_bend_c, 11, 4680
1, 34232, Pitch_bend_c, 12, 7399
1, 34233, Note_on_c, 9, 38, 0
1, 34233, Pitch_bend_c, 11, 4657
1, 34233, Pitch_bend_c, 12, 7377
1, 34234, Pitch_bend_c, 11, 4635
1, 34234, Pitch_bend_c, 12, 7354
1, 34235, Pitch_bend_c, 11, 4612
1, 34235, Control_c, 12, 11, 120
1, 34235, Pitch_bend_c, 12, 7331
1, 34236, Pitch_bend_c, 11, 4589
1, 34236, Pitch_bend_c, 12, 7309
1, 34237, Control_c, 11, 11, 93
1, 34237, Pitch_bend_c, 11, 4567
1, 34237, Pitch_bend_c, 12, 7286
1, 34238, Pitch_bend_c, 11, 4544
1, 34238, Pitch_bend_c, 12, 7263
1, 34239, Pitch_bend_c, 11, 4521
1, 34239, Pitch_bend_c, 12, 7241
1, 34240, Pitch_bend_c, 11, 4499
1, 34240, Control_c, 12, 11, 119
1, 34240, Pitch_bend_c, 12, 7218
1, 34241, Control_c, 11, 11, 92
1, 34241, Pitch_bend_c, 11, 4476
1, 34241, Pitch_bend_c, 12, 7195
1, 34242, Pitch_bend_c, 11, 4453
1, 34242, Pitch_bend_c, 12, 7173
1, 34243, Pitch_bend_c, 11, 4431
1, 34243, Pitch_bend_c, 12, 7150
1, 34244, Pitch_bend_c, 11, 4408
1, 34244, Control_c, 12, 11, 118
1, 34244, Pitch_bend_c, 12, 7127
1, 34245, Pitch_bend_c, 11, 4385
1, 34245, Pitch_bend_c, 12, 7105
1, 34246, Control_c, 11, 11, 91
1, 34246, Pitch_bend_c, 11, 4363
1, 34246, Pitch_bend_c, 12, 7082
1, 34247, Note_on_c, 10, 70, 89
1, 34247, Pitch_bend_c, 11, 4340
1, 34247, Pitch_bend_c, 12, 7059
1, 34248, Pitch_bend_c, 11, 4317
1, 34248, Pitch_bend_c, 12, 7037
1, 34249, Pitch_bend_c, 11, 4295
1, 34249, Control_c, 12, 11, 117
1, 34249, Pitch_bend_c, 12, 7014
1, 34250, Control_c, 11, 11, 90
1, 34250, Pitch_bend_c, 11, 4272
1, 34250, Pitch_bend_c, 12, 6991
1, 34251, Pitch_bend_c, 11, 4249
1, 34251, Pitch_bend_c, 12, 6969
1, 34252, Pitch_bend_c, 11, 4227
1, 34252, Pitch_bend_c, 12, 6946
1, 34253, Pitch_bend_c, 11, 4204
1, 34253, Control_c, 12, 11, 116
1, 34253, Pitch_bend_c, 12, 6923
1, 34254, Pitch_bend_c, 11, 4181
1, 34254, Pitch_bend_c, 12, 6901
1, 34255, Control_c, 11, 11, 89
1, 34255, Pitch_bend_c, 11, 4159
1, 34255, Pitch_bend_c, 12, 6878
1, 34256, Pitch_bend_c, 11, 4136
1, 34256, Pitch_bend_c, 12, 6855
1, 34257, Pitch_bend_c, 11, 4113
1, 34257, Pitch_bend_c, 12, 6833
1, 34258, Pitch_bend_c, 11, 4091
1, 34258, Control_c, 12, 11, 115
1, 34258, Pitch_bend_c, 12, 6810
1, 34259, Control_c, 11, 11, 88
1, 34259, Pitch_bend_c, 11, 4068
1, 34259, Pitch_bend_c, 12, 6788
1, 34260, Note_on_c, 0, 63, 80
1, 34260, Note_on_c, 0, 67, 91
1, 34260, Note_on_c, 0, 72, 98
1, 34260, Note_on_c, 5, 55, 105
1, 34260, Note_on_c, 5, 60, 111
1, 34260, Note_on_c, 9, 42, 120
1, 34260, Note_on_c, 10, 72, 118
1, 34260, Pitch_bend_c, 11, 4046
1, 34260, Pitch_bend_c, 12, 6765
1, 34261, Note_on_c, 0, 72, 0
1, 34261, Note_on_c, 0, 67, 0
1, 34261, Note_on_c, 0, 63, 0
1, 34261, Pitch_bend_c, 11, 4023
1, 34261, Pitch_bend_c, 12, 6742
1, 34262, Pitch_bend_c, 11, 4000
1, 34262, Control_c, 12, 11, 114
1, 34262, Pitch_bend_c, 12, 6720
1, 34263, Pitch_bend_c, 11, 3978
1, 34263, Pitch_bend_c, 12, 6697
1, 34264, Control_c, 11, 11, 87
1, 34264, Pitch_bend_c, 11, 3955
1, 34264, Pitch_bend_c, 12, 6674
1, 34265, Note_on_c, 10, 70, 0
1, 34265, Pitch_bend_c, 11, 3932
1, 34265, Pitch_bend_c, 12, 6652
1, 34266, Pitch_bend_c, 11, 3910
1, 34266, Pitch_bend_c, 12, 6629
1, 34267, Pitch_bend_c, 11, 3887
1, 34267, Control_c, 12, 11, 113
1, 34267, Pitch_bend_c, 12, 6606
1, 34268, Control_c, 11, 11, 86
1, 34268, Pitch_bend_c, 11, 3864
1, 34268, Pitch_bend_c, 12, 6584
1, 34269, Pitch_bend_c, 11, 3842
1, 34269, Pitch_bend_c, 12, 6561
1, 34270, Pitch_bend_c, 11, 3819
1, 34270, Pitch_bend_c, 12, 6538
1, 34271, Pitch_bend_c, 11, 3796
1, 34271, Control_c, 12, 11, 112
1, 34271, Pitch_bend_c, 12, 6516
1, 34272, Pitch_bend_c, 11, 3774
1, 34272, Pitch_bend_c, 12, 6493
1, 34273, Pitch_bend_c, 11, 3751
1, 34273, Pitch_bend_c, 12, 6470
1, 34274, Pitch_bend_c, 11, 3728
1, 34274, Pitch_bend_c, 12, 6448
1, 34275, Pitch_bend_c, 11, 3706
1, 34275, Pitch_bend_c, 12, 6425
1, 34276, Pitch_bend_c, 11, 3683
1, 34276, Control_c, 12, 11, 111
1, 34276, Pitch_bend_c, 12, 6402
1, 34277, Control_c, 11, 11, 85
1, 34277, Pitch_bend_c, 11, 3660
1, 34277, Pitch_bend_c, 12, 6380
1, 34278, Note_on_c, 5, 55, 0
1, 34278, Pitch_bend_c, 11, 3638
1, 34278, Pitch_bend_c, 12, 6357
1, 34279, Note_on_c, 5, 60, 0
1, 34279, Pitch_bend_c, 11, 3615
1, 34279, Pitch_bend_c, 12, 6334
1, 34280, Pitch_bend_c, 11, 3592
1, 34280, Control_c, 12, 11, 110
1, 34280, Pitch_bend_c, 12, 6312
1, 34281, Pitch_bend_c, 11, 3570
1, 34281, Pitch_bend_c, 12, 6289
1, 34282, Control_c, 11, 11, 84
1, 34282, Pitch_bend_c, 11, 3547
1, 34282, Pitch_bend_c, 12, 6266
1, 34283, Note_on_c, 10, 72, 0
1, 34283, Pitch_bend_c, 11, 3524
1, 34283, Pitch_bend_c, 12, 6244
1, 34284, Pitch_bend_c, 11, 3502
1, 34284, Pitch_bend_c, 12, 6221
1, 34285, Pitch_bend_c, 11, 3479
1, 34285, Control_c, 12, 11, 109
1, 34285, Pitch_bend_c, 12, 6198
1, 34286, Note_on_c, 9, 42, 0
1, 34286, Control_c, 11, 11, 83
1, 34286, Pitch_bend_c, 11, 3456
1, 34286, Pitch_bend_c, 12, 6176
1, 34287, Pitch_bend_c, 11, 3434
1, 34287, Pitch_bend_c, 12, 6153
1, 34288, Pitch_bend_c, 11, 3411
1, 34288, Pitch_bend_c, 12, 6130
1, 34289, Pitch_bend_c, 11, 3388
1, 34289, Control_c, 12, 11, 108
1, 34289, Pitch_bend_c, 12, 6108
1, 34290, Note_on_c, 0, 63, 77
1, 34290, Note_on_c, 0, 67, 90
1, 34290, Note_on_c, 0, 72, 98
1, 34290, Pitch_bend_c, 11, 3366
1, 34290, Pitch_bend_c, 12, 6085
1, 34291, Note_on_c, 0, 72, 0
1, 34291, Note_on_c, 0, 67, 0
1, 34291, Note_on_c, 0, 63, 0
1, 34291, Control_c, 11, 11, 82
1, 34291, Pitch_bend_c, 11, 3343
1, 34291, Pitch_bend_c, 12, 6062
1, 34292, Pitch_bend_c, 11, 3320
1, 34292, Pitch_bend_c, 12, 6040
1, 34293, Pitch_bend_c, 11, 3298
1, 34293, Pitch_bend_c, 12, 6017
1, 34294, Pitch_bend_c, 11, 3275
1, 34294, Control_c, 12, 11, 107
1, 34294, Pitch_bend_c, 12, 5994
1, 34295, Control_c, 11, 11, 81
1, 34295, Pitch_bend_c, 11, 3252
1, 34295, Pitch_bend_c, 12, 5972
1, 34296, Pitch_bend_c, 11, 3230
1, 34296, Pitch_bend_c, 12, 5949
1, 34297, Pitch_bend_c, 11, 3207
1, 34297, Pitch_bend_c, 12, 5926
1, 34298, Pitch_bend_c, 11, 3184
1, 34298, Control_c, 12, 11, 106
1, 34298, Pitch_bend_c, 12, 5904
1, 34299, Pitch_bend_c, 11, 3162
1, 34299, Pitch_bend_c, 12, 5881
1, 34300, Control_c, 11, 11, 80
1, 34300, Pitch_bend_c, 11, 3139
1, 34300, Pitch_bend_c, 12, 5858
1, 34301, Pitch_bend_c, 11, 3116
1, 34301, Pitch_bend_c, 12, 5836
1, 34302, Pitch_bend_c, 11, 3094
1, 34302, Pitch_bend_c, 12, 5813
1, 34303, Pitch_bend_c, 11, 3071
1, 34303, Control_c, 12, 11, 105
1, 34303, Pitch_bend_c, 12, 5790
1, 34304, Control_c, 11, 11, 79
1, 34304, Pitch_bend_c, 11, 3048
1, 34304, Pitch_bend_c, 12, 5768
1, 34305, Pitch_bend_c, 11, 3026
1, 34305, Pitch_bend_c, 12, 5745
1, 34306, Pitch_bend_c, 11, 3003
1, 34306, Pitch_bend_c, 12, 5722
1, 34307, Pitch_bend_c, 11, 2980
1, 34307, Control_c, 12, 11, 104
1, 34307, Pitch_bend_c, 12, 5700
1, 34308, Pitch_bend_c, 11, 2958
1, 34308, Pitch_bend_c, 12, 5677
1, 34309, Control_c, 11, 11, 78
1, 34309, Pitch_bend_c, 11, 2935
1, 34309, Pitch_bend_c, 12, 5654
1, 34310, Pitch_bend_c, 11, 2912
1, 34310, Pitch_bend_c, 12, 5632
1, 34311, Pitch_bend_c, 11, 2890
1, 34311, Pitch_bend_c, 12, 5609
1, 34312, Pitch_bend_c, 11, 2867
1, 34312, Control_c, 12, 11, 103
1, 34312, Pitch_bend_c, 12, 5586
1, 34313, Control_c, 11, 11, 77
1, 34313, Pitch_bend_c, 11, 2844
1, 34313, Pitch_bend_c, 12, 5564
1, 34314, Pitch_bend_c, 11, 2822
1, 34314, Pitch_bend_c, 12, 5541
1, 34315, Pitch_bend_c, 11, 2799
1, 34315, Pitch_bend_c, 12, 5518
1, 34316, Pitch_bend_c, 11, 2776
1, 34316, Control_c, 12, 11, 102
1, 34316, Pitch_bend_c, 12, 5496
1, 34317, Pitch_bend_c, 11, 2754
1, 34317, Pitch_bend_c, 12, 5473
1, 34318, Control_c, 11, 11, 76
1, 34318, Pitch_bend_c, 11, 2731
1, 34318, Pitch_bend_c, 12, 5451
1, 34319, Pitch_bend_c, 11, 2709
1, 34319, Pitch_bend_c, 12, 5428
1, 34320, Note_on_c, 0, 63, 91
1, 34320, Note_on_c, 0, 67, 119
1, 34320, Note_on_c, 0, 72, 96
1, 34320, Note_on_c, 1, 32, 120
1, 34320, Note_on_c, 5, 55, 105
1, 34320, Note_on_c, 5, 60, 111
1, 34320, Note_on_c, 7, 56, 111
1, 34320, Note_on_c, 7, 60, 119
1, 34320, Note_on_c, 7, 67, 116
1, 34320, Note_on_c, 8, 56, 111
1, 34320, Note_on_c, 8, 60, 119
1, 34320, Note_on_c, 8, 67, 116
1, 34320, Note_on_c, 9, 36, 120
1, 34320, Note_on_c, 10, 70, 120
1, 34320, Pitch_bend_c, 11, 2686
1, 34320, Pitch_bend_c, 12, 5405
1, 34321, Pitch_bend_c, 11, 2663
1, 34321, Control_c, 12, 11, 101
1, 34321, Pitch_bend_c, 12, 5383
1, 34322, Control_c, 11, 11, 75
1, 34322, Pitch_bend_c, 11, 2641
1, 34322, Pitch_bend_c, 12, 5360
1, 34323, Pitch_bend_c, 11, 2618
1, 34323, Pitch_bend_c, 12, 5337
1, 34324, Pitch_bend_c, 11, 2595
1, 34324, Pitch_bend_c, 12, 5315
1, 34325, Pitch_bend_c, 11, 2573
1, 34325, Control_c, 12, 11, 100
1, 34325, Pitch_bend_c, 12, 5292
1, 34326, Pitch_bend_c, 11, 2550
1, 34326, Pitch_bend_c, 12, 5269
1, 34327, Control_c, 11, 11, 74
1, 34327, Pitch_bend_c, 11, 2527
1, 34327, Pitch_bend_c, 12, 5247
1, 34328, Pitch_bend_c, 11, 2505
1, 34328, Pitch_bend_c, 12, 5224
1, 34329, Pitch_bend_c, 11, 2482
1, 34329, Pitch_bend_c, 12, 5201
1, 34330, Pitch_bend_c, 11, 2459
1, 34330, Control_c, 12, 11, 99
1, 34330, Pitch_bend_c, 12, 5179
1, 34331, Control_c, 11, 11, 73
1, 34331, Pitch_bend_c, 11, 2437
1, 34331, Pitch_bend_c, 12, 5156
1, 34332, Pitch_bend_c, 11, 2414
1, 34332, Pitch_bend_c, 12, 5133
1, 34333, Pitch_bend_c, 11, 2391
1, 34333, Pitch_bend_c, 12, 5111
1, 34334, Pitch_bend_c, 11, 2369
1, 34334, Control_c, 12, 11, 98
1, 34334, Pitch_bend_c, 12, 5088
1, 34335, Pitch_bend_c, 11, 2346
1, 34335, Pitch_bend_c, 12, 5065
1, 34336, Control_c, 11, 11, 72
1, 34336, Pitch_bend_c, 11, 2323
1, 34336, Pitch_bend_c, 12, 5043
1, 34337, Pitch_bend_c, 11, 2301
1, 34337, Pitch_bend_c, 12, 5020
1, 34338, Pitch_bend_c, 11, 2278
1, 34338, Pitch_bend_c, 12, 4997
1, 34339, Pitch_bend_c, 11, 2255
1, 34339, Control_c, 12, 11, 97
1, 34339, Pitch_bend_c, 12, 4975
1, 34340, Control_c, 11, 11, 71
1, 34340, Pitch_bend_c, 11, 2233
1, 34340, Pitch_bend_c, 12, 4952
1, 34341, Pitch_bend_c, 11, 2210
1, 34341, Pitch_bend_c, 12, 4929
1, 34342, Pitch_bend_c, 11, 2187
1, 34342, Pitch_bend_c, 12, 4907
1, 34343, Pitch_bend_c, 11, 2165
1, 34343, Control_c, 12, 11, 96
1, 34343, Pitch_bend_c, 12, 4884
1, 34344, Pitch_bend_c, 11, 2142
1, 34344, Pitch_bend_c, 12, 4861
1, 34345, Control_c, 11, 11, 70
1, 34345, Pitch_bend_c, 11, 2119
1, 34345, Pitch_bend_c, 12, 4839
1, 34346, Pitch_bend_c, 11, 2097
1, 34346, Pitch_bend_c, 12, 4816
1, 34347, Pitch_bend_c, 11, 2074
1, 34347, Pitch_bend_c, 12, 4793
1, 34348, Pitch_bend_c, 11, 2051
1, 34348, Control_c, 12, 11, 95
1, 34348, Pitch_bend_c, 12, 4771
1, 34349, Note_on_c, 0, 72, 0
1, 34349, Control_c, 11, 11, 69
1, 34349, Pitch_bend_c, 11, 2029
1, 34349, Pitch_bend_c, 12, 4748
1, 34350, Pitch_bend_c, 11, 2006
1, 34350, Pitch_bend_c, 12, 4725
1, 34351, Note_on_c, 1, 32, 0
1, 34351, Note_on_c, 0, 67, 0
1, 34351, Pitch_bend_c, 11, 1983
1, 34351, Pitch_bend_c, 12, 4703
1, 34352, Note_on_c, 9, 36, 0
1, 34352, Pitch_bend_c, 11, 1961
1, 34352, Control_c, 12, 11, 94
1, 34352, Pitch_bend_c, 12, 4680
1, 34353, Note_on_c, 8, 67, 0
1, 34353, Note_on_c, 8, 60, 0
1, 34353, Note_on_c, 7, 67, 0
1, 34353, Note_on_c, 7, 60, 0
1, 34353, Pitch_bend_c, 11, 1938
1, 34353, Pitch_bend_c, 12, 4657
1, 34354, Note_on_c, 0, 63, 0
1, 34354, Control_c, 11, 11, 68
1, 34354, Pitch_bend_c, 11, 1915
1, 34354, Pitch_bend_c, 12, 4635
1, 34355, Pitch_bend_c, 11, 1893
1, 34355, Pitch_bend_c, 12, 4612
1, 34356, Pitch_bend_c, 11, 1870
1, 34356, Pitch_bend_c, 12, 4589
1, 34357, Pitch_bend_c, 11, 1847
1, 34357, Control_c, 12, 11, 93
1, 34357, Pitch_bend_c, 12, 4567
1, 34358, Control_c, 11, 11, 67
1, 34358, Pitch_bend_c, 11, 1825
1, 34358, Pitch_bend_c, 12, 4544
1, 34359, Pitch_bend_c, 11, 1802
1, 34359, Pitch_bend_c, 12, 4521
1, 34360, Note_on_c, 8, 56, 0
1, 34360, Note_on_c, 7, 56, 0
1, 34360, Pitch_bend_c, 11, 1779
1, 34360, Pitch_bend_c, 12, 4499
1, 34361, Pitch_bend_c, 11, 1757
1, 34361, Control_c, 12, 11, 92
1, 34361, Pitch_bend_c, 12, 4476
1, 34362, Pitch_bend_c, 11, 1734
1, 34362, Pitch_bend_c, 12, 4453
1, 34363, Control_c, 11, 11, 66
1, 34363, Pitch_bend_c, 11, 1711
1, 34363, Pitch_bend_c, 12, 4431
1, 34364, Pitch_bend_c, 11, 1689
1, 34364, Pitch_bend_c, 12, 4408
1, 34365, Pitch_bend_c, 11, 1666
1, 34365, Pitch_bend_c, 12, 4385
1, 34366, Pitch_bend_c, 11, 1643
1, 34366, Control_c, 12, 11, 91
1, 34366, Pitch_bend_c, 12, 4363
1, 34367, Control_c, 11, 11, 65
1, 34367, Pitch_bend_c, 11, 1621
1, 34367, Pitch_bend_c, 12, 4340
1, 34368, Pitch_bend_c, 11, 1598
1, 34368, Pitch_bend_c, 12, 4317
1, 34369, Pitch_bend_c, 11, 1575
1, 34369, Pitch_bend_c, 12, 4295
1, 34370, Pitch_bend_c, 11, 1553
1, 34370, Control_c, 12, 11, 90
1, 34370, Pitch_bend_c, 12, 4272
1, 34371, Pitch_bend_c, 11, 1530
1, 34371, Pitch_bend_c, 12, 4249
1, 34372, Control_c, 11, 11, 64
1, 34372, Pitch_bend_c, 11, 1507
1, 34372, Pitch_bend_c, 12, 4227
1, 34373, Pitch_bend_c, 11, 1485
1, 34373, Pitch_bend_c, 12, 4204
1, 34374, Pitch_bend_c, 11, 1462
1, 34374, Pitch_bend_c, 12, 4181
1, 34375, Pitch_bend_c, 11, 1439
1, 34375, Control_c, 12, 11, 89
1, 34375, Pitch_bend_c, 12, 4159
1, 34376, Control_c, 11, 11, 63
1, 34376, Pitch_bend_c, 11, 1417
1, 34376, Pitch_bend_c, 12, 4136
1, 34377, Pitch_bend_c, 11, 1394
1, 34377, Pitch_bend_c, 12, 4113
1, 34378, Note_on_c, 5, 55, 0
1, 34378, Pitch_bend_c, 11, 1371
1, 34378, Pitch_bend_c, 12, 4091
1, 34379, Note_on_c, 5, 60, 0
1, 34379, Pitch_bend_c, 11, 1349
1, 34379, Control_c, 12, 11, 88
1, 34379, Pitch_bend_c, 12, 4068
1, 34380, Note_on_c, 0, 63, 80
1, 34380, Note_on_c, 0, 67, 111
1, 34380, Note_on_c, 0, 72, 82
1, 34380, Note_on_c, 9, 42, 120
1, 34380, Pitch_bend_c, 11, 1326
1, 34380, Pitch_bend_c, 12, 4046
1, 34381, Note_on_c, 0, 72, 0
1, 34381, Note_on_c, 0, 67, 0
1, 34381, Note_on_c, 0, 63, 0
1, 34381, Control_c, 11, 11, 62
1, 34381, Pitch_bend_c, 11, 1304
1, 34381, Pitch_bend_c, 12, 4023
1, 34382, Pitch_bend_c, 11, 1281
1, 34382, Pitch_bend_c, 12, 4000
1, 34383, Pitch_bend_c, 11, 1258
1, 34383, Pitch_bend_c, 12, 3978
1, 34384, Pitch_bend_c, 11, 1236
1, 34384, Control_c, 12, 11, 87
1, 34384, Pitch_bend_c, 12, 3955
1, 34385, Control_c, 11, 11, 61
1, 34385, Pitch_bend_c, 11, 1213
1, 34385, Pitch_bend_c, 12, 3932
1, 34386, Pitch_bend_c, 11, 1190
1, 34386, Pitch_bend_c, 12, 3910
1, 34387, Pitch_bend_c, 11, 1168
1, 34387, Pitch_bend_c, 12, 3887
1, 34388, Pitch_bend_c, 11, 1145
1, 34388, Control_c, 12, 11, 86
1, 34388, Pitch_bend_c, 12, 3864
1, 34389, Pitch_bend_c, 11, 1122
1, 34389, Pitch_bend_c, 12, 3842
1, 34390, Control_c, 11, 11, 60
1, 34390, Pitch_bend_c, 11, 1100
1, 34390, Pitch_bend_c, 12, 3819
1, 34391, Pitch_bend_c, 11, 1077
1, 34391, Pitch_bend_c, 12, 3796
1, 34392, Pitch_bend_c, 11, 1054
1, 34392, Pitch_bend_c, 12, 3774
1, 34393, Pitch_bend_c, 11, 1032
1, 34393, Pitch_bend_c, 12, 3751
1, 34394, Control_c, 11, 11, 59
1, 34394, Pitch_bend_c, 11, 1009
1, 34394, Pitch_bend_c, 12, 3728
1, 34395, Pitch_bend_c, 11, 986
1, 34395, Pitch_bend_c, 12, 3706
1, 34396, Pitch_bend_c, 11, 964
1, 34396, Pitch_bend_c, 12, 3683
1, 34397, Pitch_bend_c, 11, 941
1, 34397, Control_c, 12, 11, 85
1, 34397, Pitch_bend_c, 12, 3660
1, 34398, Pitch_bend_c, 11, 918
1, 34398, Pitch_bend_c, 12, 3638
1, 34399, Control_c, 11, 11, 58
1, 34399, Pitch_bend_c, 11, 896
1, 34399, Pitch_bend_c, 12, 3615
1, 34400, Pitch_bend_c, 11, 873
1, 34400, Pitch_bend_c, 12, 3592
1, 34401, Pitch_bend_c, 11, 850
1, 34401, Pitch_bend_c, 12, 3570
1, 34402, Pitch_bend_c, 11, 828
1, 34402, Control_c, 12, 11, 84
1, 34402, Pitch_bend_c, 12, 3547
1, 34403, Control_c, 11, 11, 57
1, 34403, Pitch_bend_c, 11, 805
1, 34403, Pitch_bend_c, 12, 3524
1, 34404, Pitch_bend_c, 11, 782
1, 34404, Pitch_bend_c, 12, 3502
1, 34405, Note_on_c, 9, 42, 0
1, 34405, Pitch_bend_c, 11, 760
1, 34405, Pitch_bend_c, 12, 3479
1, 34406, Pitch_bend_c, 11, 737
1, 34406, Control_c, 12, 11, 83
1, 34406, Pitch_bend_c, 12, 3456
1, 34407, Pitch_bend_c, 11, 714
1, 34407, Pitch_bend_c, 12, 3434
1, 34408, Control_c, 11, 11, 56
1, 34408, Pitch_bend_c, 11, 692
1, 34408, Pitch_bend_c, 12, 3411
1, 34409, Pitch_bend_c, 11, 669
1, 34409, Pitch_bend_c, 12, 3388
1, 34410, Note_on_c, 0, 62, 119
1, 34410, Note_on_c, 0, 65, 89
1, 34410, Note_on_c, 0, 70, 91
1, 34410, Note_on_c, 1, 31, 116
1, 34410, Note_on_c, 3, 60, 119
1, 34410, Note_on_c, 4, 60, 118
1, 34410, Note_on_c, 4, 63, 119
1, 34410, Note_on_c, 4, 70, 120
1, 34410, Note_on_c, 5, 48, 119
1, 34410, Note_on_c, 5, 55, 107
1, 34410, Note_on_c, 5, 60, 107
1, 34410, Note_on_c, 7, 55, 118
1, 34410, Note_on_c, 7, 58, 120
1, 34410, Note_on_c, 7, 65, 98
1, 34410, Note_on_c, 8, 55, 118
1, 34410, Note_on_c, 8, 58, 120
1, 34410, Note_on_c, 8, 65, 98
1, 34410, Note_on_c, 10, 72, 118
1, 34410, Pitch_bend_c, 11, 646
1, 34410, Pitch_bend_c, 12, 3366
1, 34410, Note_on_c, 15, 70, 1
1, 34410, Note_on_c, 15, 60, 1
1, 34410, Note_on_c, 15, 63, 1
1, 34410, Lyric_t, "You "
1, 34411, Pitch_bend_c, 11, 624
1, 34411, Control_c, 12, 11, 82
1, 34411, Pitch_bend_c, 12, 3343
1, 34412, Control_c, 11, 11, 55
1, 34412, Pitch_bend_c, 11, 601
1, 34412, Pitch_bend_c, 12, 3320
1, 34413, Pitch_bend_c, 11, 578
1, 34413, Pitch_bend_c, 12, 3298
1, 34414, Note_on_c, 10, 70, 0
1, 34414, Pitch_bend_c, 11, 556
1, 34414, Pitch_bend_c, 12, 3275
1, 34415, Pitch_bend_c, 11, 533
1, 34415, Control_c, 12, 11, 81
1, 34415, Pitch_bend_c, 12, 3252
1, 34416, Pitch_bend_c, 11, 510
1, 34416, Pitch_bend_c, 12, 3230
1, 34417, Control_c, 11, 11, 54
1, 34417, Pitch_bend_c, 11, 488
1, 34417, Pitch_bend_c, 12, 3207
1, 34418, Pitch_bend_c, 11, 465
1, 34418, Pitch_bend_c, 12, 3184
1, 34419, Note_on_c, 3, 60, 0
1, 34419, Note_on_c, 5, 48, 0
1, 34419, Pitch_bend_c, 11, 442
1, 34419, Pitch_bend_c, 12, 3162
1, 34420, Pitch_bend_c, 11, 420
1, 34420, Control_c, 12, 11, 80
1, 34420, Pitch_bend_c, 12, 3139
1, 34421, Control_c, 11, 11, 53
1, 34421, Pitch_bend_c, 11, 397
1, 34421, Pitch_bend_c, 12, 3116
1, 34422, Note_on_c, 15, 70, 0
1, 34422, Note_on_c, 4, 70, 0
1, 34422, Pitch_bend_c, 11, 374
1, 34422, Pitch_bend_c, 12, 3094
1, 34423, Pitch_bend_c, 11, 352
1, 34423, Pitch_bend_c, 12, 3071
1, 34424, Pitch_bend_c, 11, 329
1, 34424, Control_c, 12, 11, 79
1, 34424, Pitch_bend_c, 12, 3048
1, 34425, Pitch_bend_c, 11, 306
1, 34425, Pitch_bend_c, 12, 3026
1, 34426, Note_on_c, 5, 55, 0
1, 34426, Control_c, 11, 11, 52
1, 34426, Pitch_bend_c, 11, 284
1, 34426, Pitch_bend_c, 12, 3003
1, 34427, Note_on_c, 5, 60, 0
1, 34427, Note_on_c, 15, 63, 0
1, 34427, Note_on_c, 4, 63, 0
1, 34427, Pitch_bend_c, 11, 261
1, 34427, Pitch_bend_c, 12, 2980
1, 34428, Pitch_bend_c, 11, 238
1, 34428, Pitch_bend_c, 12, 2958
1, 34429, Pitch_bend_c, 11, 216
1, 34429, Control_c, 12, 11, 78
1, 34429, Pitch_bend_c, 12, 2935
1, 34430, Note_on_c, 15, 60, 0
1, 34430, Note_on_c, 4, 60, 0
1, 34430, Note_on_c, 2, 72, 0
1, 34430, Control_c, 11, 11, 51
1, 34430, Pitch_bend_c, 11, 193
1, 34430, Pitch_bend_c, 12, 2912
1, 34431, Pitch_bend_c, 11, 170
1, 34431, Pitch_bend_c, 12, 2890
1, 34432, Note_on_c, 1, 31, 0
1, 34432, Pitch_bend_c, 11, 148
1, 34432, Pitch_bend_c, 12, 2867
1, 34433, Note_on_c, 10, 72, 0
1, 34433, Pitch_bend_c, 11, 125
1, 34433, Control_c, 12, 11, 77
1, 34433, Pitch_bend_c, 12, 2844
1, 34434, Note_on_c, 2, 67, 0
1, 34434, Pitch_bend_c, 11, 102
1, 34434, Pitch_bend_c, 12, 2822
1, 34435, Control_c, 11, 11, 50
1, 34435, Pitch_bend_c, 11, 80
1, 34435, Pitch_bend_c, 12, 2799
1, 34436, Note_on_c, 0, 70, 0
1, 34436, Note_on_c, 7, 55, 0
1, 34436, Note_on_c, 8, 55, 0
1, 34436, Pitch_bend_c, 11, 57
1, 34436, Pitch_bend_c, 12, 2776
1, 34437, Pitch_bend_c, 11, 34
1, 34437, Pitch_bend_c, 12, 2754
1, 34438, Note_on_c, 0, 65, 0
1, 34438, Pitch_bend_c, 11, 12
1, 34438, Control_c, 12, 11, 76
1, 34438, Pitch_bend_c, 12, 2731
1, 34439, Note_on_c, 11, 96, 0
1, 34439, Note_on_c, 2, 63, 0
1, 34439, Note_on_c, 0, 62, 0
1, 34439, Pitch_bend_c, 12, 2709
1, 34440, Note_on_c, 3, 60, 116
1, 34440, Note_on_c, 4, 60, 113
1, 34440, Note_on_c, 4, 63, 115
1, 34440, Note_on_c, 4, 70, 109
1, 34440, Note_on_c, 5, 48, 116
1, 34440, Note_on_c, 9, 38, 120
1, 34440, Pitch_bend_c, 12, 2686
1, 34440, Note_on_c, 15, 63, 1
1, 34440, Note_on_c, 15, 60, 1
1, 34440, Note_on_c, 15, 70, 1
1, 34440, Lyric_t, "know "
1, 34441, Pitch_bend_c, 12, 2663
1, 34442, Note_on_c, 7, 65, 0
1, 34442, Note_on_c, 8, 65, 0
1, 34442, Control_c, 12, 11, 75
1, 34442, Pitch_bend_c, 12, 2641
1, 34443, Note_on_c, 7, 58, 0
1, 34443, Note_on_c, 8, 58, 0
1, 34443, Pitch_bend_c, 12, 2618
1, 34444, Pitch_bend_c, 12, 2595
1, 34445, Pitch_bend_c, 12, 2573
1, 34446, Pitch_bend_c, 12, 2550
1, 34447, Control_c, 12, 11, 74
1, 34447, Pitch_bend_c, 12, 2527
1, 34448, Pitch_bend_c, 12, 2505
1, 34449, Pitch_bend_c, 12, 2482
1, 34450, Pitch_bend_c, 12, 2459
1, 34451, Control_c, 12, 11, 73
1, 34451, Pitch_bend_c, 12, 2437
1, 34452, Pitch_bend_c, 12, 2414
1, 34453, Pitch_bend_c, 12, 2391
1, 34454, Pitch_bend_c, 12, 2369
1, 34455, Pitch_bend_c, 12, 2346
1, 34456, Control_c, 12, 11, 72
1, 34456, Pitch_bend_c, 12, 2323
1, 34457, Note_on_c, 5, 48, 0
1, 34457, Note_on_c, 3, 60, 0
1, 34457, Pitch_bend_c, 12, 2301
1, 34458, Pitch_bend_c, 12, 2278
1, 34459, Note_on_c, 15, 60, 0
1, 34459, Note_on_c, 4, 60, 0
1, 34459, Pitch_bend_c, 12, 2255
1, 34460, Control_c, 12, 11, 71
1, 34460, Pitch_bend_c, 12, 2233
1, 34461, Pitch_bend_c, 12, 2210
1, 34462, Note_on_c, 4, 63, 0
1, 34462, Note_on_c, 4, 70, 0
1, 34462, Note_on_c, 15, 70, 0
1, 34462, Note_on_c, 15, 63, 0
1, 34462, Pitch_bend_c, 12, 2187
1, 34463, Pitch_bend_c, 12, 2165
1, 34464, Pitch_bend_c, 12, 2142
1, 34465, Control_c, 12, 11, 70
1, 34465, Pitch_bend_c, 12, 2119
1, 34466, Note_on_c, 9, 38, 0
1, 34466, Pitch_bend_c, 12, 2097
1, 34467, Pitch_bend_c, 12, 2074
1, 34468, Pitch_bend_c, 12, 2051
1, 34469, Control_c, 12, 11, 69
1, 34469, Pitch_bend_c, 12, 2029
1, 34470, Note_on_c, 0, 62, 109
1, 34470, Note_on_c, 0, 65, 77
1, 34470, Note_on_c, 0, 70, 60
1, 34470, Note_on_c, 3, 63, 120
1, 34470, Note_on_c, 4, 60, 118
1, 34470, Note_on_c, 4, 63, 109
1, 34470, Note_on_c, 4, 70, 120
1, 34470, Note_on_c, 5, 51, 120
1, 34470, Pitch_bend_c, 12, 2006
1, 34470, Note_on_c, 15, 60, 1
1, 34470, Note_on_c, 15, 63, 1
1, 34470, Note_on_c, 15, 70, 1
1, 34470, Lyric_t, "you "
1, 34471, Note_on_c, 0, 70, 0
1, 34471, Note_on_c, 0, 65, 0
1, 34471, Note_on_c, 0, 62, 0
1, 34471, Pitch_bend_c, 12, 1983
1, 34472, Pitch_bend_c, 12, 1961
1, 34473, Pitch_bend_c, 12, 1938
1, 34474, Control_c, 12, 11, 68
1, 34474, Pitch_bend_c, 12, 1915
1, 34475, Pitch_bend_c, 12, 1893
1, 34476, Pitch_bend_c, 12, 1870
1, 34477, Pitch_bend_c, 12, 1847
1, 34478, Control_c, 12, 11, 67
1, 34478, Pitch_bend_c, 12, 1825
1, 34479, Pitch_bend_c, 12, 1802
1, 34480, Pitch_bend_c, 12, 1779
1, 34481, Pitch_bend_c, 12, 1757
1, 34482, Pitch_bend_c, 12, 1734
1, 34483, Control_c, 12, 11, 66
1, 34483, Pitch_bend_c, 12, 1711
1, 34484, Note_on_c, 5, 51, 0
1, 34484, Note_on_c, 3, 63, 0
1, 34484, Pitch_bend_c, 12, 1689
1, 34485, Note_on_c, 4, 70, 0
1, 34485, Note_on_c, 15, 70, 0
1, 34485, Pitch_bend_c, 12, 1666
1, 34486, Pitch_bend_c, 12, 1643
1, 34487, Note_on_c, 4, 60, 0
1, 34487, Note_on_c, 15, 60, 0
1, 34487, Control_c, 12, 11, 65
1, 34487, Pitch_bend_c, 12, 1621
1, 34488, Note_on_c, 15, 63, 0
1, 34488, Note_on_c, 4, 63, 0
1, 34488, Pitch_bend_c, 12, 1598
1, 34489, Pitch_bend_c, 12, 1575
1, 34490, Pitch_bend_c, 12, 1553
1, 34491, Pitch_bend_c, 12, 1530
1, 34492, Control_c, 12, 11, 64
1, 34492, Pitch_bend_c, 12, 1507
1, 34493, Pitch_bend_c, 12, 1485
1, 34494, Pitch_bend_c, 12, 1462
1, 34495, Pitch_bend_c, 12, 1439
1, 34496, Control_c, 12, 11, 63
1, 34496, Pitch_bend_c, 12, 1417
1, 34497, Pitch_bend_c, 12, 1394
1, 34498, Pitch_bend_c, 12, 1371
1, 34499, Pitch_bend_c, 12, 1349
1, 34500, Note_on_c, 0, 60, 119
1, 34500, Note_on_c, 0, 63, 91
1, 34500, Note_on_c, 0, 68, 91
1, 34500, Note_on_c, 1, 29, 120
1, 34500, Note_on_c, 2, 60, 105
1, 34500, Note_on_c, 2, 63, 98
1, 34500, Note_on_c, 2, 68, 92
1, 34500, Note_on_c, 3, 67, 109
1, 34500, Note_on_c, 4, 60, 118
1, 34500, Note_on_c, 4, 63, 120
1, 34500, Note_on_c, 4, 70, 98
1, 34500, Note_on_c, 5, 55, 109
1, 34500, Note_on_c, 7, 53, 95
1, 34500, Note_on_c, 7, 56, 119
1, 34500, Note_on_c, 7, 63, 109
1, 34500, Note_on_c, 8, 53, 95
1, 34500, Note_on_c, 8, 56, 119
1, 34500, Note_on_c, 8, 63, 109
1, 34500, Note_on_c, 9, 42, 120
1, 34500, Pitch_bend_c, 12, 1326
1, 34500, Note_on_c, 15, 60, 1
1, 34500, Note_on_c, 15, 63, 1
1, 34500, Note_on_c, 15, 70, 1
1, 34500, Lyric_t, "can "
1, 34501, Control_c, 12, 11, 62
1, 34501, Pitch_bend_c, 12, 1304
1, 34502, Pitch_bend_c, 12, 1281
1, 34503, Pitch_bend_c, 12, 1258
1, 34504, Pitch_bend_c, 12, 1236
1, 34505, Control_c, 12, 11, 61
1, 34505, Pitch_bend_c, 12, 1213
1, 34506, Pitch_bend_c, 12, 1190
1, 34507, Pitch_bend_c, 12, 1168
1, 34508, Pitch_bend_c, 12, 1145
1, 34509, Pitch_bend_c, 12, 1122
1, 34510, Control_c, 12, 11, 60
1, 34510, Pitch_bend_c, 12, 1100
1, 34511, Pitch_bend_c, 12, 1077
1, 34512, Pitch_bend_c, 12, 1054
1, 34513, Pitch_bend_c, 12, 1032
1, 34514, Note_on_c, 15, 70, 0
1, 34514, Note_on_c, 15, 63, 0
1, 34514, Note_on_c, 4, 70, 0
1, 34514, Note_on_c, 4, 63, 0
1, 34514, Control_c, 12, 11, 59
1, 34514, Pitch_bend_c, 12, 1009
1, 34515, Pitch_bend_c, 12, 986
1, 34516, Note_on_c, 4, 60, 0
1, 34516, Note_on_c, 15, 60, 0
1, 34516, Pitch_bend_c, 12, 964
1, 34517, Pitch_bend_c, 12, 941
1, 34518, Pitch_bend_c, 12, 918
1, 34519, Control_c, 12, 11, 58
1, 34519, Pitch_bend_c, 12, 896
1, 34520, Pitch_bend_c, 12, 873
1, 34521, Pitch_bend_c, 12, 850
1, 34522, Pitch_bend_c, 12, 828
1, 34523, Control_c, 12, 11, 57
1, 34523, Pitch_bend_c, 12, 805
1, 34524, Note_on_c, 3, 67, 0
1, 34524, Note_on_c, 5, 55, 0
1, 34524, Pitch_bend_c, 12, 782
1, 34525, Note_on_c, 9, 42, 0
1, 34525, Pitch_bend_c, 12, 760
1, 34526, Pitch_bend_c, 12, 737
1, 34527, Pitch_bend_c, 12, 714
1, 34528, Control_c, 12, 11, 56
1, 34528, Pitch_bend_c, 12, 692
1, 34529, Pitch_bend_c, 12, 669
1, 34530, Note_on_c, 3, 68, 120
1, 34530, Note_on_c, 4, 60, 119
1, 34530, Note_on_c, 4, 63, 120
1, 34530, Note_on_c, 4, 72, 100
1, 34530, Note_on_c, 5, 56, 120
1, 34530, Pitch_bend_c, 12, 646
1, 34530, Note_on_c, 15, 60, 1
1, 34530, Note_on_c, 15, 72, 1
1, 34530, Note_on_c, 15, 63, 1
1, 34530, Lyric_t, "make "
1, 34530, Lyric_t, "\015"
1, 34531, Pitch_bend_c, 12, 624
1, 34532, Control_c, 12, 11, 55
1, 34532, Pitch_bend_c, 12, 601
1, 34533, Pitch_bend_c, 12, 578
1, 34534, Pitch_bend_c, 12, 556
1, 34535, Pitch_bend_c, 12, 533
1, 34536, Pitch_bend_c, 12, 510
1, 34537, Control_c, 12, 11, 54
1, 34537, Pitch_bend_c, 12, 488
1, 34538, Pitch_bend_c, 12, 465
1, 34539, Pitch_bend_c, 12, 442
1, 34540, Pitch_bend_c, 12, 420
1, 34541, Control_c, 12, 11, 53
1, 34541, Pitch_bend_c, 12, 397
1, 34542, Pitch_bend_c, 12, 374
1, 34543, Pitch_bend_c, 12, 352
1, 34544, Pitch_bend_c, 12, 329
1, 34545, Pitch_bend_c, 12, 306
1, 34546, Control_c, 12, 11, 52
1, 34546, Pitch_bend_c, 12, 284
1, 34547, Pitch_bend_c, 12, 261
1, 34548, Pitch_bend_c, 12, 238
1, 34549, Pitch_bend_c, 12, 216
1, 34550, Control_c, 12, 11, 51
1, 34550, Pitch_bend_c, 12, 193
1, 34551, Pitch_bend_c, 12, 170
1, 34552, Pitch_bend_c, 12, 148
1, 34553, Pitch_bend_c, 12, 125
1, 34554, Pitch_bend_c, 12, 102
1, 34555, Control_c, 12, 11, 50
1, 34555, Pitch_bend_c, 12, 80
1, 34556, Pitch_bend_c, 12, 57
1, 34557, Pitch_bend_c, 12, 34
1, 34558, Pitch_bend_c, 12, 12
1, 34559, Note_on_c, 12, 96, 0
1, 34560, Note_on_c, 9, 36, 120
1, 34587, Note_on_c, 9, 36, 0
1, 34601, Note_on_c, 1, 29, 0
1, 34620, Note_on_c, 1, 41, 120
1, 34620, Note_on_c, 5, 56, 115
1, 34620, Note_on_c, 5, 60, 105
1, 34620, Note_on_c, 9, 42, 120
1, 34646, Note_on_c, 9, 42, 0
1, 34648, Note_on_c, 15, 72, 0
1, 34648, Note_on_c, 4, 72, 0
1, 34651, Note_on_c, 5, 56, 0
1, 34651, Note_on_c, 4, 60, 0
1, 34651, Note_on_c, 15, 60, 0
1, 34651, Note_on_c, 3, 68, 0
1, 34652, Note_on_c, 4, 63, 0
1, 34652, Note_on_c, 15, 63, 0
1, 34654, Note_on_c, 1, 41, 0
1, 34660, Note_on_c, 5, 56, 0
1, 34663, Note_on_c, 5, 60, 0
1, 34674, Note_on_c, 0, 60, 0
1, 34676, Note_on_c, 0, 63, 0
1, 34679, Note_on_c, 7, 63, 0
1, 34679, Note_on_c, 8, 63, 0
1, 34679, Note_on_c, 0, 68, 0
1, 34680, Note_on_c, 7, 53, 0
1, 34680, Note_on_c, 8, 53, 0
1, 34680, Note_on_c, 1, 41, 120
1, 34680, Note_on_c, 3, 67, 120
1, 34680, Note_on_c, 4, 60, 111
1, 34680, Note_on_c, 4, 63, 115
1, 34680, Note_on_c, 4, 72, 54
1, 34680, Note_on_c, 5, 55, 120
1, 34680, Note_on_c, 5, 56, 92
1, 34680, Note_on_c, 5, 60, 103
1, 34680, Note_on_c, 9, 38, 120
1, 34680, Note_on_c, 15, 60, 1
1, 34680, Note_on_c, 15, 72, 1
1, 34680, Note_on_c, 15, 63, 1
1, 34680, Lyric_t, "my "
1, 34681, Note_on_c, 7, 56, 0
1, 34681, Note_on_c, 8, 56, 0
1, 34696, Note_on_c, 5, 56, 0
1, 34698, Note_on_c, 5, 60, 0
1, 34711, Note_on_c, 9, 38, 0
1, 34712, Note_on_c, 1, 41, 0
1, 34740, Note_on_c, 0, 60, 98
1, 34740, Note_on_c, 0, 63, 60
1, 34740, Note_on_c, 0, 68, 53
1, 34740, Note_on_c, 5, 56, 111
1, 34740, Note_on_c, 5, 60, 105
1, 34740, Note_on_c, 9, 42, 120
1, 34741, Note_on_c, 0, 68, 0
1, 34741, Note_on_c, 0, 63, 0
1, 34741, Note_on_c, 0, 60, 0
1, 34756, Note_on_c, 5, 56, 0
1, 34759, Note_on_c, 5, 60, 0
1, 34770, Note_on_c, 0, 60, 101
1, 34770, Note_on_c, 0, 63, 62
1, 34770, Note_on_c, 0, 68, 70
1, 34771, Note_on_c, 0, 68, 0
1, 34771, Note_on_c, 0, 63, 0
1, 34771, Note_on_c, 0, 60, 0
1, 34773, Note_on_c, 9, 42, 0
1, 34775, Note_on_c, 4, 60, 0
1, 34775, Note_on_c, 4, 72, 0
1, 34775, Note_on_c, 15, 60, 0
1, 34775, Note_on_c, 15, 72, 0
1, 34779, Note_on_c, 4, 63, 0
1, 34779, Note_on_c, 15, 63, 0
1, 34790, Note_on_c, 5, 55, 0
1, 34790, Note_on_c, 3, 67, 0
1, 34799, Control_c, 11, 11, 127
1, 34800, Note_on_c, 0, 60, 118
1, 34800, Note_on_c, 0, 63, 92
1, 34800, Note_on_c, 0, 68, 92
1, 34800, Note_on_c, 1, 29, 120
1, 34800, Note_on_c, 3, 63, 120
1, 34800, Note_on_c, 4, 60, 113
1, 34800, Note_on_c, 4, 63, 115
1, 34800, Note_on_c, 4, 72, 94
1, 34800, Note_on_c, 5, 51, 120
1, 34800, Note_on_c, 5, 56, 111
1, 34800, Note_on_c, 5, 60, 107
1, 34800, Note_on_c, 7, 53, 101
1, 34800, Note_on_c, 7, 56, 120
1, 34800, Note_on_c, 7, 63, 98
1, 34800, Note_on_c, 8, 53, 101
1, 34800, Note_on_c, 8, 56, 120
1, 34800, Note_on_c, 8, 63, 98
1, 34800, Note_on_c, 9, 36, 120
1, 34800, Note_on_c, 15, 63, 1
1, 34800, Note_on_c, 15, 60, 1
1, 34800, Note_on_c, 15, 72, 1
1, 34800, Lyric_t, "wish "
1, 34827, Note_on_c, 9, 36, 0
1, 34835, Note_on_c, 1, 29, 0
1, 34838, Note_on_c, 0, 60, 0
1, 34841, Note_on_c, 0, 68, 0
1, 34842, Note_on_c, 0, 63, 0
1, 34856, Note_on_c, 8, 53, 0
1, 34856, Note_on_c, 7, 63, 0
1, 34856, Note_on_c, 8, 63, 0
1, 34856, Note_on_c, 7, 53, 0
1, 34857, Note_on_c, 7, 56, 0
1, 34857, Note_on_c, 8, 56, 0
1, 34860, Note_on_c, 5, 60, 0
1, 34860, Note_on_c, 0, 60, 97
1, 34860, Note_on_c, 0, 63, 62
1, 34860, Note_on_c, 0, 68, 62
1, 34860, Note_on_c, 9, 42, 120
1, 34861, Note_on_c, 0, 68, 0
1, 34861, Note_on_c, 0, 63, 0
1, 34861, Note_on_c, 0, 60, 0
1, 34861, Note_on_c, 5, 56, 0
1, 34889, Note_on_c, 9, 42, 0
1, 34890, Note_on_c, 5, 56, 111
1, 34890, Note_on_c, 5, 60, 103
1, 34891, Note_on_c, 4, 72, 0
1, 34891, Note_on_c, 15, 72, 0
1, 34893, Note_on_c, 4, 60, 0
1, 34893, Note_on_c, 15, 60, 0
1, 34895, Note_on_c, 15, 63, 0
1, 34895, Note_on_c, 4, 63, 0
1, 34907, Note_on_c, 3, 63, 0
1, 34907, Note_on_c, 5, 51, 0
1, 34907, Note_on_c, 5, 56, 0
1, 34912, Note_on_c, 5, 60, 0
1, 34919, Control_c, 12, 11, 127
1, 34920, Note_on_c, 0, 60, 116
1, 34920, Note_on_c, 0, 63, 92
1, 34920, Note_on_c, 0, 68, 111
1, 34920, Note_on_c, 1, 29, 116
1, 34920, Note_on_c, 3, 67, 119
1, 34920, Note_on_c, 4, 60, 105
1, 34920, Note_on_c, 4, 63, 115
1, 34920, Note_on_c, 4, 72, 90
1, 34920, Note_on_c, 5, 55, 119
1, 34920, Note_on_c, 7, 53, 113
1, 34920, Note_on_c, 7, 56, 120
1, 34920, Note_on_c, 7, 63, 115
1, 34920, Note_on_c, 8, 53, 113
1, 34920, Note_on_c, 8, 56, 120
1, 34920, Note_on_c, 8, 63, 115
1, 34920, Note_on_c, 9, 38, 120
1, 34920, Note_on_c, 15, 72, 1
1, 34920, Note_on_c, 15, 60, 1
1, 34920, Note_on_c, 15, 63, 1
1, 34920, Lyric_t, "come "
1, 34923, Note_on_c, 2, 60, 0
1, 34927, Note_on_c, 2, 63, 0
1, 34929, Note_on_c, 2, 68, 0
1, 34948, Note_on_c, 9, 38, 0
1, 34950, Note_on_c, 1, 29, 0
1, 34959, Note_on_c, 0, 60, 0
1, 34962, Note_on_c, 0, 63, 0
1, 34962, Note_on_c, 0, 68, 0
1, 34971, Note_on_c, 8, 53, 0
1, 34971, Note_on_c, 7, 53, 0
1, 34972, Note_on_c, 8, 56, 0
1, 34972, Note_on_c, 7, 56, 0
1, 34975, Note_on_c, 7, 63, 0
1, 34975, Note_on_c, 8, 63, 0
1, 34980, Note_on_c, 9, 42, 120
1, 34989, Note_on_c, 15, 60, 0
1, 34989, Note_on_c, 4, 60, 0
1, 34995, Note_on_c, 15, 63, 0
1, 34995, Note_on_c, 15, 72, 0
1, 34995, Note_on_c, 4, 63, 0
1, 34995, Note_on_c, 4, 72, 0
1, 35007, Note_on_c, 9, 42, 0
1, 35023, Note_on_c, 3, 67, 0
1, 35023, Note_on_c, 5, 55, 0
1, 35040, Note_on_c, 0, 62, 116
1, 35040, Note_on_c, 0, 65, 94
1, 35040, Note_on_c, 0, 70, 92
1, 35040, Note_on_c, 1, 31, 120
1, 35040, Note_on_c, 2, 62, 101
1, 35040, Note_on_c, 2, 65, 109
1, 35040, Note_on_c, 2, 70, 89
1, 35040, Note_on_c, 3, 65, 119
1, 35040, Note_on_c, 4, 62, 107
1, 35040, Note_on_c, 4, 65, 101
1, 35040, Note_on_c, 4, 70, 109
1, 35040, Note_on_c, 5, 53, 119
1, 35040, Note_on_c, 7, 55, 120
1, 35040, Note_on_c, 7, 58, 120
1, 35040, Note_on_c, 7, 65, 90
1, 35040, Note_on_c, 8, 55, 120
1, 35040, Note_on_c, 8, 58, 120
1, 35040, Note_on_c, 8, 65, 90
1, 35040, Note_on_c, 9, 36, 120
1, 35040, Note_on_c, 15, 65, 1
1, 35040, Note_on_c, 15, 62, 1
1, 35040, Note_on_c, 15, 70, 1
1, 35040, Lyric_t, "true "
1, 35040, Lyric_t, "\015"
1, 35068, Note_on_c, 9, 36, 0
1, 35086, Note_on_c, 1, 31, 0
1, 35100, Note_on_c, 1, 43, 119
1, 35100, Note_on_c, 5, 55, 105
1, 35100, Note_on_c, 5, 62, 107
1, 35100, Note_on_c, 9, 42, 120
1, 35127, Note_on_c, 9, 42, 0
1, 35138, Note_on_c, 3, 65, 0
1, 35138, Note_on_c, 5, 53, 0
1, 35140, Note_on_c, 5, 55, 0
1, 35142, Note_on_c, 0, 65, 0
1, 35143, Note_on_c, 5, 62, 0
1, 35151, Note_on_c, 0, 62, 0
1, 35151, Note_on_c, 1, 43, 0
1, 35152, Note_on_c, 15, 70, 0
1, 35152, Note_on_c, 4, 70, 0
1, 35155, Note_on_c, 4, 65, 0
1, 35155, Note_on_c, 15, 65, 0
1, 35155, Note_on_c, 0, 70, 0
1, 35157, Note_on_c, 15, 62, 0
1, 35157, Note_on_c, 4, 62, 0
1, 35160, Note_on_c, 8, 55, 0
1, 35160, Note_on_c, 7, 55, 0
1, 35160, Note_on_c, 5, 55, 91
1, 35160, Note_on_c, 5, 62, 105
1, 35160, Note_on_c, 9, 38, 120
1, 35162, Note_on_c, 8, 58, 0
1, 35162, Note_on_c, 7, 58, 0
1, 35165, Note_on_c, 7, 65, 0
1, 35165, Note_on_c, 8, 65, 0
1, 35177, Note_on_c, 5, 55, 0
1, 35180, Note_on_c, 5, 62, 0
1, 35187, Note_on_c, 9, 38, 0
1, 35207, Note_on_c, 10, 70, 89
1, 35220, Note_on_c, 0, 62, 100
1, 35220, Note_on_c, 0, 65, 71
1, 35220, Note_on_c, 0, 70, 48
1, 35220, Note_on_c, 5, 55, 107
1, 35220, Note_on_c, 5, 62, 105
1, 35220, Note_on_c, 9, 42, 120
1, 35220, Note_on_c, 10, 72, 118
1, 35221, Note_on_c, 0, 70, 0
1, 35221, Note_on_c, 0, 65, 0
1, 35221, Note_on_c, 0, 62, 0
1, 35225, Note_on_c, 10, 70, 0
1, 35240, Note_on_c, 5, 55, 0
1, 35240, Note_on_c, 5, 62, 0
1, 35243, Note_on_c, 10, 72, 0
1, 35250, Note_on_c, 0, 62, 98
1, 35250, Note_on_c, 0, 65, 78
1, 35250, Note_on_c, 0, 70, 71
1, 35251, Note_on_c, 0, 70, 0
1, 35251, Note_on_c, 0, 62, 0
1, 35251, Note_on_c, 0, 65, 0
1, 35252, Note_on_c, 9, 42, 0
1, 35280, Note_on_c, 0, 62, 113
1, 35280, Note_on_c, 0, 65, 83
1, 35280, Note_on_c, 0, 70, 92
1, 35280, Note_on_c, 1, 31, 119
1, 35280, Note_on_c, 5, 55, 105
1, 35280, Note_on_c, 5, 62, 105
1, 35280, Note_on_c, 7, 55, 116
1, 35280, Note_on_c, 7, 58, 120
1, 35280, Note_on_c, 7, 65, 101
1, 35280, Note_on_c, 8, 55, 116
1, 35280, Note_on_c, 8, 58, 120
1, 35280, Note_on_c, 8, 65, 101
1, 35280, Note_on_c, 9, 36, 120
1, 35280, Note_on_c, 10, 70, 120
1, 35307, Note_on_c, 9, 36, 0
1, 35309, Note_on_c, 1, 31, 0
1, 35312, Note_on_c, 7, 58, 0
1, 35312, Note_on_c, 7, 55, 0
1, 35312, Note_on_c, 8, 58, 0
1, 35312, Note_on_c, 8, 55, 0
1, 35313, Note_on_c, 8, 65, 0
1, 35313, Note_on_c, 7, 65, 0
1, 35322, Note_on_c, 0, 62, 0
1, 35324, Note_on_c, 0, 70, 0
1, 35331, Note_on_c, 0, 65, 0
1, 35336, Note_on_c, 5, 55, 0
1, 35338, Note_on_c, 5, 62, 0
1, 35340, Note_on_c, 0, 62, 94
1, 35340, Note_on_c, 0, 65, 59
1, 35340, Note_on_c, 0, 70, 57
1, 35340, Note_on_c, 9, 42, 120
1, 35341, Note_on_c, 0, 70, 0
1, 35341, Note_on_c, 0, 65, 0
1, 35341, Note_on_c, 0, 62, 0
1, 35366, Note_on_c, 9, 42, 0
1, 35370, Note_on_c, 2, 65, 0
1, 35370, Note_on_c, 0, 62, 111
1, 35370, Note_on_c, 0, 65, 87
1, 35370, Note_on_c, 0, 70, 92
1, 35370, Note_on_c, 1, 34, 120
1, 35370, Note_on_c, 5, 55, 98
1, 35370, Note_on_c, 5, 62, 107
1, 35370, Note_on_c, 7, 55, 120
1, 35370, Note_on_c, 7, 58, 120
1, 35370, Note_on_c, 7, 65, 105
1, 35370, Note_on_c, 8, 55, 120
1, 35370, Note_on_c, 8, 58, 120
1, 35370, Note_on_c, 8, 65, 105
1, 35370, Note_on_c, 10, 72, 118
1, 35372, Note_on_c, 2, 62, 0
1, 35374, Note_on_c, 10, 70, 0
1, 35379, Note_on_c, 2, 70, 0
1, 35384, Note_on_c, 5, 55, 0
1, 35385, Note_on_c, 5, 62, 0
1, 35393, Note_on_c, 10, 72, 0
1, 35393, Note_on_c, 7, 55, 0
1, 35393, Note_on_c, 8, 55, 0
1, 35394, Note_on_c, 7, 58, 0
1, 35394, Note_on_c, 8, 58, 0
1, 35400, Note_on_c, 8, 65, 0
1, 35400, Note_on_c, 7, 65, 0
1, 35400, Note_on_c, 3, 63, 120
1, 35400, Note_on_c, 4, 67, 113
1, 35400, Note_on_c, 5, 51, 120
1, 35400, Note_on_c, 9, 38, 120
1, 35400, Note_on_c, 15, 67, 1
1, 35400, Lyric_t, "If "
1, 35401, Note_on_c, 1, 34, 0
1, 35406, Note_on_c, 0, 62, 0
1, 35408, Note_on_c, 0, 70, 0
1, 35411, Note_on_c, 0, 65, 0
1, 35425, Note_on_c, 9, 38, 0
1, 35428, Note_on_c, 4, 67, 0
1, 35428, Note_on_c, 15, 67, 0
1, 35430, Note_on_c, 0, 62, 78
1, 35430, Note_on_c, 0, 65, 72
1, 35430, Note_on_c, 0, 70, 70
1, 35431, Note_on_c, 0, 70, 0
1, 35431, Note_on_c, 0, 62, 0
1, 35431, Note_on_c, 0, 65, 0
1, 35443, Note_on_c, 5, 51, 0
1, 35443, Note_on_c, 3, 63, 0
1, 35460, Note_on_c, 0, 63, 87
1, 35460, Note_on_c, 0, 67, 105
1, 35460, Note_on_c, 0, 72, 113
1, 35460, Note_on_c, 1, 36, 120
1, 35460, Note_on_c, 2, 63, 81
1, 35460, Note_on_c, 2, 67, 116
1, 35460, Note_on_c, 2, 72, 105
1, 35460, Note_on_c, 3, 60, 118
1, 35460, Note_on_c, 4, 63, 92
1, 35460, Note_on_c, 5, 48, 118
1, 35460, Note_on_c, 5, 55, 98
1, 35460, Note_on_c, 5, 62, 107
1, 35460, Note_on_c, 7, 60, 116
1, 35460, Note_on_c, 7, 63, 104
1, 35460, Note_on_c, 7, 67, 116
1, 35460, Note_on_c, 8, 60, 116
1, 35460, Note_on_c, 8, 63, 104
1, 35460, Note_on_c, 8, 67, 116
1, 35460, Note_on_c, 9, 42, 120
1, 35460, Note_on_c, 15, 63, 1
1, 35460, Lyric_t, "you "
1, 35479, Note_on_c, 5, 62, 0
1, 35480, Note_on_c, 5, 55, 0
1, 35487, Note_on_c, 9, 42, 0
1, 35489, Note_on_c, 4, 63, 0
1, 35489, Note_on_c, 15, 63, 0
1, 35495, Note_on_c, 5, 48, 0
1, 35495, Note_on_c, 3, 60, 0
1, 35520, Note_on_c, 3, 68, 115
1, 35520, Note_on_c, 4, 63, 74
1, 35520, Note_on_c, 4, 67, 111
1, 35520, Note_on_c, 4, 72, 105
1, 35520, Note_on_c, 5, 55, 107
1, 35520, Note_on_c, 5, 56, 115
1, 35520, Note_on_c, 5, 63, 119
1, 35520, Note_on_c, 9, 36, 120
1, 35520, Note_on_c, 15, 72, 1
1, 35520, Note_on_c, 15, 63, 1
1, 35520, Note_on_c, 15, 67, 1
1, 35520, Lyric_t, "let "
1, 35546, Note_on_c, 9, 36, 0
1, 35558, Note_on_c, 5, 55, 0
1, 35565, Note_on_c, 5, 63, 0
1, 35577, Note_on_c, 1, 36, 0
1, 35580, Note_on_c, 1, 48, 120
1, 35580, Note_on_c, 9, 42, 120
1, 35598, Note_on_c, 15, 63, 0
1, 35598, Note_on_c, 4, 63, 0
1, 35599, Note_on_c, 4, 72, 0
1, 35599, Note_on_c, 4, 67, 0
1, 35599, Note_on_c, 15, 72, 0
1, 35599, Note_on_c, 15, 67, 0
1, 35607, Note_on_c, 9, 42, 0
1, 35613, Note_on_c, 5, 56, 0
1, 35613, Note_on_c, 3, 68, 0
1, 35616, Note_on_c, 1, 48, 0
1, 35632, Note_on_c, 8, 67, 0
1, 35632, Note_on_c, 7, 67, 0
1, 35633, Note_on_c, 8, 60, 0
1, 35633, Note_on_c, 7, 60, 0
1, 35634, Note_on_c, 8, 63, 0
1, 35634, Note_on_c, 7, 63, 0
1, 35639, Note_on_c, 0, 67, 0
1, 35639, Note_on_c, 0, 72, 0
1, 35640, Note_on_c, 0, 63, 92
1, 35640, Note_on_c, 0, 67, 61
1, 35640, Note_on_c, 0, 72, 105
1, 35640, Note_on_c, 3, 67, 116
1, 35640, Note_on_c, 4, 63, 74
1, 35640, Note_on_c, 4, 67, 113
1, 35640, Note_on_c, 4, 72, 98
1, 35640, Note_on_c, 5, 55, 103
1, 35640, Note_on_c, 5, 60, 118
1, 35640, Note_on_c, 9, 38, 120
1, 35640, Note_on_c, 15, 67, 1
1, 35640, Note_on_c, 15, 63, 1
1, 35640, Note_on_c, 15, 72, 1
1, 35640, Lyric_t, "me "
1, 35641, Note_on_c, 0, 72, 0
1, 35641, Note_on_c, 0, 63, 0
1, 35641, Note_on_c, 0, 67, 0
1, 35641, Note_on_c, 0, 63, 0
1, 35664, Note_on_c, 9, 38, 0
1, 35690, Note_on_c, 5, 60, 0
1, 35690, Note_on_c, 5, 55, 0
1, 35700, Note_on_c, 1, 34, 98
1, 35700, Note_on_c, 9, 42, 120
1, 35712, Note_on_c, 4, 67, 0
1, 35712, Note_on_c, 15, 67, 0
1, 35716, Note_on_c, 15, 72, 0
1, 35716, Note_on_c, 4, 72, 0
1, 35718, Note_on_c, 4, 63, 0
1, 35718, Note_on_c, 15, 63, 0
1, 35728, Note_on_c, 9, 42, 0
1, 35729, Note_on_c, 1, 34, 0
1, 35730, Note_on_c, 1, 36, 111
1, 35732, Note_on_c, 2, 67, 0
1, 35732, Note_on_c, 3, 67, 0
1, 35735, Note_on_c, 2, 72, 0
1, 35739, Note_on_c, 2, 63, 0
1, 35759, Note_on_c, 1, 36, 0
1, 35760, Note_on_c, 0, 63, 94
1, 35760, Note_on_c, 0, 67, 100
1, 35760, Note_on_c, 0, 72, 94
1, 35760, Note_on_c, 1, 39, 94
1, 35760, Note_on_c, 2, 63, 81
1, 35760, Note_on_c, 2, 67, 119
1, 35760, Note_on_c, 2, 72, 91
1, 35760, Note_on_c, 3, 65, 116
1, 35760, Note_on_c, 4, 62, 101
1, 35760, Note_on_c, 4, 65, 97
1, 35760, Note_on_c, 4, 70, 92
1, 35760, Note_on_c, 5, 53, 116
1, 35760, Note_on_c, 5, 55, 103
1, 35760, Note_on_c, 5, 58, 119
1, 35760, Note_on_c, 7, 60, 107
1, 35760, Note_on_c, 7, 63, 119
1, 35760, Note_on_c, 7, 67, 103
1, 35760, Note_on_c, 8, 60, 107
1, 35760, Note_on_c, 8, 63, 119
1, 35760, Note_on_c, 8, 67, 103
1, 35760, Note_on_c, 9, 36, 120
1, 35760, Note_on_c, 15, 62, 1
1, 35760, Note_on_c, 15, 70, 1
1, 35760, Note_on_c, 15, 65, 1
1, 35760, Lyric_t, "trea"
1, 35786, Note_on_c, 9, 36, 0
1, 35789, Note_on_c, 1, 39, 0
1, 35790, Note_on_c, 1, 36, 118
1, 35793, Note_on_c, 0, 72, 0
1, 35793, Note_on_c, 0, 67, 0
1, 35797, Note_on_c, 0, 63, 0
1, 35808, Note_on_c, 5, 58, 0
1, 35808, Note_on_c, 2, 72, 0
1, 35811, Note_on_c, 7, 67, 0
1, 35811, Note_on_c, 8, 67, 0
1, 35812, Note_on_c, 8, 60, 0
1, 35812, Note_on_c, 5, 55, 0
1, 35812, Note_on_c, 7, 60, 0
1, 35816, Note_on_c, 7, 63, 0
1, 35816, Note_on_c, 8, 63, 0
1, 35816, Note_on_c, 2, 67, 0
1, 35818, Note_on_c, 2, 63, 0
1, 35820, Note_on_c, 9, 42, 120
1, 35826, Note_on_c, 1, 36, 0
1, 35830, Note_on_c, 4, 62, 0
1, 35830, Note_on_c, 15, 62, 0
1, 35835, Note_on_c, 4, 65, 0
1, 35835, Note_on_c, 15, 65, 0
1, 35837, Note_on_c, 4, 70, 0
1, 35837, Note_on_c, 15, 70, 0
1, 35843, Note_on_c, 9, 42, 0
1, 35853, Note_on_c, 5, 53, 0
1, 35853, Note_on_c, 3, 65, 0
1, 35880, Note_on_c, 0, 62, 119
1, 35880, Note_on_c, 0, 65, 105
1, 35880, Note_on_c, 0, 70, 92
1, 35880, Note_on_c, 1, 34, 109
1, 35880, Note_on_c, 2, 62, 98
1, 35880, Note_on_c, 2, 65, 116
1, 35880, Note_on_c, 2, 70, 91
1, 35880, Note_on_c, 3, 67, 120
1, 35880, Note_on_c, 4, 62, 109
1, 35880, Note_on_c, 4, 65, 91
1, 35880, Note_on_c, 4, 70, 109
1, 35880, Note_on_c, 5, 55, 116
1, 35880, Note_on_c, 5, 63, 120
1, 35880, Note_on_c, 7, 58, 98
1, 35880, Note_on_c, 7, 62, 120
1, 35880, Note_on_c, 7, 65, 107
1, 35880, Note_on_c, 8, 58, 98
1, 35880, Note_on_c, 8, 62, 120
1, 35880, Note_on_c, 8, 65, 107
1, 35880, Note_on_c, 9, 38, 120
1, 35880, Note_on_c, 15, 65, 1
1, 35880, Note_on_c, 15, 62, 1
1, 35880, Note_on_c, 15, 70, 1
1, 35880, Lyric_t, "sure "
1, 35908, Note_on_c, 9, 38, 0
1, 35908, Note_on_c, 0, 62, 0
1, 35913, Note_on_c, 0, 70, 0
1, 35914, Note_on_c, 0, 65, 0
1, 35917, Note_on_c, 5, 55, 0
1, 35919, Note_on_c, 5, 63, 0
1, 35931, Note_on_c, 4, 62, 0
1, 35931, Note_on_c, 15, 62, 0
1, 35935, Note_on_c, 8, 62, 0
1, 35935, Note_on_c, 7, 62, 0
1, 35938, Note_on_c, 8, 58, 0
1, 35938, Note_on_c, 7, 58, 0
1, 35939, Note_on_c, 4, 65, 0
1, 35939, Note_on_c, 15, 65, 0
1, 35940, Note_on_c, 15, 70, 0
1, 35940, Note_on_c, 4, 70, 0
1, 35940, Note_on_c, 5, 55, 113
1, 35940, Note_on_c, 5, 63, 115
1, 35940, Note_on_c, 9, 42, 120
1, 35941, Note_on_c, 7, 65, 0
1, 35941, Note_on_c, 8, 65, 0
1, 35949, Note_on_c, 2, 65, 0
1, 35950, Note_on_c, 2, 62, 0
1, 35952, Note_on_c, 2, 70, 0
1, 35956, Note_on_c, 3, 67, 0
1, 35960, Note_on_c, 9, 42, 0
1, 35970, Note_on_c, 3, 60, 120
1, 35970, Note_on_c, 4, 60, 87
1, 35970, Note_on_c, 4, 63, 109
1, 35970, Note_on_c, 4, 70, 106
1, 35970, Note_on_c, 5, 48, 120
1, 35970, Note_on_c, 15, 70, 1
1, 35970, Note_on_c, 15, 60, 1
1, 35970, Note_on_c, 15, 63, 1
1, 35970, Lyric_t, "you "
1, 35970, Lyric_t, "\015"
1, 35983, Note_on_c, 1, 34, 0
1, 35989, Note_on_c, 5, 55, 0
1, 35989, Note_on_c, 5, 63, 0
1, 36000, Note_on_c, 15, 60, 0
1, 36000, Note_on_c, 4, 60, 0
1, 36000, Note_on_c, 0, 63, 98
1, 36000, Note_on_c, 0, 67, 118
1, 36000, Note_on_c, 0, 72, 105
1, 36000, Note_on_c, 1, 32, 120
1, 36000, Note_on_c, 2, 63, 81
1, 36000, Note_on_c, 2, 67, 116
1, 36000, Note_on_c, 2, 72, 107
1, 36000, Note_on_c, 7, 56, 92
1, 36000, Note_on_c, 7, 60, 120
1, 36000, Note_on_c, 7, 67, 113
1, 36000, Note_on_c, 8, 56, 92
1, 36000, Note_on_c, 8, 60, 120
1, 36000, Note_on_c, 8, 67, 113
1, 36000, Note_on_c, 9, 36, 120
1, 36000, Note_on_c, 11, 96, 120
1, 36000, Pitch_bend_c, 11, 8125
1, 36001, Note_on_c, 15, 70, 0
1, 36001, Note_on_c, 4, 70, 0
1, 36001, Pitch_bend_c, 11, 8102
1, 36002, Note_on_c, 15, 63, 0
1, 36002, Note_on_c, 4, 63, 0
1, 36002, Pitch_bend_c, 11, 8079
1, 36003, Pitch_bend_c, 11, 8057
1, 36004, Pitch_bend_c, 11, 8034
1, 36005, Pitch_bend_c, 11, 8011
1, 36006, Pitch_bend_c, 11, 7989
1, 36007, Pitch_bend_c, 11, 7966
1, 36008, Control_c, 11, 11, 126
1, 36008, Pitch_bend_c, 11, 7943
1, 36009, Pitch_bend_c, 11, 7921
1, 36010, Pitch_bend_c, 11, 7898
1, 36011, Pitch_bend_c, 11, 7875
1, 36012, Pitch_bend_c, 11, 7853
1, 36013, Control_c, 11, 11, 125
1, 36013, Pitch_bend_c, 11, 7830
1, 36014, Note_on_c, 3, 60, 0
1, 36014, Note_on_c, 5, 48, 0
1, 36014, Pitch_bend_c, 11, 7807
1, 36015, Pitch_bend_c, 11, 7785
1, 36016, Pitch_bend_c, 11, 7762
1, 36017, Control_c, 11, 11, 124
1, 36017, Pitch_bend_c, 11, 7739
1, 36018, Pitch_bend_c, 11, 7717
1, 36019, Pitch_bend_c, 11, 7694
1, 36020, Pitch_bend_c, 11, 7671
1, 36021, Pitch_bend_c, 11, 7649
1, 36022, Control_c, 11, 11, 123
1, 36022, Pitch_bend_c, 11, 7626
1, 36023, Pitch_bend_c, 11, 7603
1, 36024, Pitch_bend_c, 11, 7581
1, 36025, Pitch_bend_c, 11, 7558
1, 36026, Control_c, 11, 11, 122
1, 36026, Pitch_bend_c, 11, 7535
1, 36027, Pitch_bend_c, 11, 7513
1, 36028, Pitch_bend_c, 11, 7490
1, 36029, Pitch_bend_c, 11, 7467
1, 36030, Pitch_bend_c, 11, 7445
1, 36031, Control_c, 11, 11, 121
1, 36031, Pitch_bend_c, 11, 7422
1, 36032, Pitch_bend_c, 11, 7399
1, 36033, Note_on_c, 9, 36, 0
1, 36033, Pitch_bend_c, 11, 7377
1, 36034, Pitch_bend_c, 11, 7354
1, 36035, Control_c, 11, 11, 120
1, 36035, Pitch_bend_c, 11, 7331
1, 36036, Pitch_bend_c, 11, 7309
1, 36037, Pitch_bend_c, 11, 7286
1, 36038, Pitch_bend_c, 11, 7263
1, 36039, Pitch_bend_c, 11, 7241
1, 36040, Control_c, 11, 11, 119
1, 36040, Pitch_bend_c, 11, 7218
1, 36041, Pitch_bend_c, 11, 7195
1, 36042, Pitch_bend_c, 11, 7173
1, 36043, Pitch_bend_c, 11, 7150
1, 36044, Control_c, 11, 11, 118
1, 36044, Pitch_bend_c, 11, 7127
1, 36045, Pitch_bend_c, 11, 7105
1, 36046, Pitch_bend_c, 11, 7082
1, 36047, Pitch_bend_c, 11, 7059
1, 36048, Pitch_bend_c, 11, 7037
1, 36049, Control_c, 11, 11, 117
1, 36049, Pitch_bend_c, 11, 7014
1, 36050, Pitch_bend_c, 11, 6991
1, 36051, Pitch_bend_c, 11, 6969
1, 36052, Pitch_bend_c, 11, 6946
1, 36053, Control_c, 11, 11, 116
1, 36053, Pitch_bend_c, 11, 6923
1, 36054, Pitch_bend_c, 11, 6901
1, 36055, Pitch_bend_c, 11, 6878
1, 36056, Pitch_bend_c, 11, 6855
1, 36057, Pitch_bend_c, 11, 6833
1, 36058, Control_c, 11, 11, 115
1, 36058, Pitch_bend_c, 11, 6810
1, 36059, Note_on_c, 1, 32, 0
1, 36059, Pitch_bend_c, 11, 6788
1, 36060, Note_on_c, 1, 44, 120
1, 36060, Note_on_c, 5, 55, 103
1, 36060, Note_on_c, 5, 60, 111
1, 36060, Note_on_c, 9, 42, 120
1, 36060, Pitch_bend_c, 11, 6765
1, 36061, Pitch_bend_c, 11, 6742
1, 36062, Control_c, 11, 11, 114
1, 36062, Pitch_bend_c, 11, 6720
1, 36063, Pitch_bend_c, 11, 6697
1, 36064, Pitch_bend_c, 11, 6674
1, 36065, Pitch_bend_c, 11, 6652
1, 36066, Pitch_bend_c, 11, 6629
1, 36067, Control_c, 11, 11, 113
1, 36067, Pitch_bend_c, 11, 6606
1, 36068, Pitch_bend_c, 11, 6584
1, 36069, Pitch_bend_c, 11, 6561
1, 36070, Pitch_bend_c, 11, 6538
1, 36071, Control_c, 11, 11, 112
1, 36071, Pitch_bend_c, 11, 6516
1, 36072, Pitch_bend_c, 11, 6493
1, 36073, Pitch_bend_c, 11, 6470
1, 36074, Pitch_bend_c, 11, 6448
1, 36075, Pitch_bend_c, 11, 6425
1, 36076, Control_c, 11, 11, 111
1, 36076, Pitch_bend_c, 11, 6402
1, 36077, Pitch_bend_c, 11, 6380
1, 36078, Pitch_bend_c, 11, 6357
1, 36079, Pitch_bend_c, 11, 6334
1, 36080, Control_c, 11, 11, 110
1, 36080, Pitch_bend_c, 11, 6312
1, 36081, Note_on_c, 5, 55, 0
1, 36081, Pitch_bend_c, 11, 6289
1, 36082, Note_on_c, 5, 60, 0
1, 36082, Pitch_bend_c, 11, 6266
1, 36083, Pitch_bend_c, 11, 6244
1, 36084, Pitch_bend_c, 11, 6221
1, 36085, Control_c, 11, 11, 109
1, 36085, Pitch_bend_c, 11, 6198
1, 36086, Pitch_bend_c, 11, 6176
1, 36087, Pitch_bend_c, 11, 6153
1, 36088, Pitch_bend_c, 11, 6130
1, 36089, Control_c, 11, 11, 108
1, 36089, Pitch_bend_c, 11, 6108
1, 36090, Pitch_bend_c, 11, 6085
1, 36091, Note_on_c, 9, 42, 0
1, 36091, Pitch_bend_c, 11, 6062
1, 36092, Pitch_bend_c, 11, 6040
1, 36093, Pitch_bend_c, 11, 6017
1, 36094, Control_c, 11, 11, 107
1, 36094, Pitch_bend_c, 11, 5994
1, 36095, Note_on_c, 1, 44, 0
1, 36095, Pitch_bend_c, 11, 5972
1, 36096, Pitch_bend_c, 11, 5949
1, 36097, Pitch_bend_c, 11, 5926
1, 36098, Control_c, 11, 11, 106
1, 36098, Pitch_bend_c, 11, 5904
1, 36099, Pitch_bend_c, 11, 5881
1, 36100, Pitch_bend_c, 11, 5858
1, 36101, Pitch_bend_c, 11, 5836
1, 36102, Pitch_bend_c, 11, 5813
1, 36103, Control_c, 11, 11, 105
1, 36103, Pitch_bend_c, 11, 5790
1, 36104, Pitch_bend_c, 11, 5768
1, 36105, Pitch_bend_c, 11, 5745
1, 36106, Pitch_bend_c, 11, 5722
1, 36107, Control_c, 11, 11, 104
1, 36107, Pitch_bend_c, 11, 5700
1, 36108, Pitch_bend_c, 11, 5677
1, 36109, Pitch_bend_c, 11, 5654
1, 36110, Note_on_c, 0, 67, 0
1, 36110, Pitch_bend_c, 11, 5632
1, 36111, Pitch_bend_c, 11, 5609
1, 36112, Control_c, 11, 11, 103
1, 36112, Pitch_bend_c, 11, 5586
1, 36113, Pitch_bend_c, 11, 5564
1, 36114, Note_on_c, 8, 67, 0
1, 36114, Note_on_c, 7, 67, 0
1, 36114, Pitch_bend_c, 11, 5541
1, 36115, Note_on_c, 8, 56, 0
1, 36115, Note_on_c, 7, 56, 0
1, 36115, Pitch_bend_c, 11, 5518
1, 36116, Note_on_c, 7, 60, 0
1, 36116, Note_on_c, 0, 63, 0
1, 36116, Note_on_c, 8, 60, 0
1, 36116, Control_c, 11, 11, 102
1, 36116, Pitch_bend_c, 11, 5496
1, 36117, Pitch_bend_c, 11, 5473
1, 36118, Note_on_c, 0, 72, 0
1, 36118, Pitch_bend_c, 11, 5451
1, 36119, Pitch_bend_c, 11, 5428
1, 36120, Note_on_c, 5, 55, 105
1, 36120, Note_on_c, 5, 60, 118
1, 36120, Note_on_c, 9, 38, 120
1, 36120, Pitch_bend_c, 11, 5405
1, 36120, Note_on_c, 12, 96, 120
1, 36120, Pitch_bend_c, 12, 8125
1, 36121, Control_c, 11, 11, 101
1, 36121, Pitch_bend_c, 11, 5383
1, 36121, Pitch_bend_c, 12, 8102
1, 36122, Pitch_bend_c, 11, 5360
1, 36122, Pitch_bend_c, 12, 8079
1, 36123, Pitch_bend_c, 11, 5337
1, 36123, Pitch_bend_c, 12, 8057
1, 36124, Pitch_bend_c, 11, 5315
1, 36124, Pitch_bend_c, 12, 8034
1, 36125, Control_c, 11, 11, 100
1, 36125, Pitch_bend_c, 11, 5292
1, 36125, Pitch_bend_c, 12, 8011
1, 36126, Pitch_bend_c, 11, 5269
1, 36126, Pitch_bend_c, 12, 7989
1, 36127, Pitch_bend_c, 11, 5247
1, 36127, Pitch_bend_c, 12, 7966
1, 36128, Pitch_bend_c, 11, 5224
1, 36128, Control_c, 12, 11, 126
1, 36128, Pitch_bend_c, 12, 7943
1, 36129, Pitch_bend_c, 11, 5201
1, 36129, Pitch_bend_c, 12, 7921
1, 36130, Control_c, 11, 11, 99
1, 36130, Pitch_bend_c, 11, 5179
1, 36130, Pitch_bend_c, 12, 7898
1, 36131, Pitch_bend_c, 11, 5156
1, 36131, Pitch_bend_c, 12, 7875
1, 36132, Pitch_bend_c, 11, 5133
1, 36132, Pitch_bend_c, 12, 7853
1, 36133, Pitch_bend_c, 11, 5111
1, 36133, Control_c, 12, 11, 125
1, 36133, Pitch_bend_c, 12, 7830
1, 36134, Control_c, 11, 11, 98
1, 36134, Pitch_bend_c, 11, 5088
1, 36134, Pitch_bend_c, 12, 7807
1, 36135, Pitch_bend_c, 11, 5065
1, 36135, Pitch_bend_c, 12, 7785
1, 36136, Pitch_bend_c, 11, 5043
1, 36136, Pitch_bend_c, 12, 7762
1, 36137, Pitch_bend_c, 11, 5020
1, 36137, Control_c, 12, 11, 124
1, 36137, Pitch_bend_c, 12, 7739
1, 36138, Pitch_bend_c, 11, 4997
1, 36138, Pitch_bend_c, 12, 7717
1, 36139, Control_c, 11, 11, 97
1, 36139, Pitch_bend_c, 11, 4975
1, 36139, Pitch_bend_c, 12, 7694
1, 36140, Pitch_bend_c, 11, 4952
1, 36140, Pitch_bend_c, 12, 7671
1, 36141, Pitch_bend_c, 11, 4929
1, 36141, Pitch_bend_c, 12, 7649
1, 36142, Pitch_bend_c, 11, 4907
1, 36142, Control_c, 12, 11, 123
1, 36142, Pitch_bend_c, 12, 7626
1, 36143, Note_on_c, 5, 60, 0
1, 36143, Note_on_c, 5, 55, 0
1, 36143, Control_c, 11, 11, 96
1, 36143, Pitch_bend_c, 11, 4884
1, 36143, Pitch_bend_c, 12, 7603
1, 36144, Pitch_bend_c, 11, 4861
1, 36144, Pitch_bend_c, 12, 7581
1, 36145, Pitch_bend_c, 11, 4839
1, 36145, Pitch_bend_c, 12, 7558
1, 36146, Pitch_bend_c, 11, 4816
1, 36146, Control_c, 12, 11, 122
1, 36146, Pitch_bend_c, 12, 7535
1, 36147, Pitch_bend_c, 11, 4793
1, 36147, Pitch_bend_c, 12, 7513
1, 36148, Control_c, 11, 11, 95
1, 36148, Pitch_bend_c, 11, 4771
1, 36148, Pitch_bend_c, 12, 7490
1, 36149, Pitch_bend_c, 11, 4748
1, 36149, Pitch_bend_c, 12, 7467
1, 36150, Note_on_c, 0, 63, 73
1, 36150, Note_on_c, 0, 67, 82
1, 36150, Note_on_c, 0, 72, 83
1, 36150, Pitch_bend_c, 11, 4725
1, 36150, Pitch_bend_c, 12, 7445
1, 36151, Note_on_c, 0, 72, 0
1, 36151, Note_on_c, 0, 67, 0
1, 36151, Note_on_c, 0, 63, 0
1, 36151, Pitch_bend_c, 11, 4703
1, 36151, Control_c, 12, 11, 121
1, 36151, Pitch_bend_c, 12, 7422
1, 36152, Control_c, 11, 11, 94
1, 36152, Pitch_bend_c, 11, 4680
1, 36152, Pitch_bend_c, 12, 7399
1, 36153, Note_on_c, 9, 38, 0
1, 36153, Pitch_bend_c, 11, 4657
1, 36153, Pitch_bend_c, 12, 7377
1, 36154, Pitch_bend_c, 11, 4635
1, 36154, Pitch_bend_c, 12, 7354
1, 36155, Pitch_bend_c, 11, 4612
1, 36155, Control_c, 12, 11, 120
1, 36155, Pitch_bend_c, 12, 7331
1, 36156, Pitch_bend_c, 11, 4589
1, 36156, Pitch_bend_c, 12, 7309
1, 36157, Control_c, 11, 11, 93
1, 36157, Pitch_bend_c, 11, 4567
1, 36157, Pitch_bend_c, 12, 7286
1, 36158, Pitch_bend_c, 11, 4544
1, 36158, Pitch_bend_c, 12, 7263
1, 36159, Pitch_bend_c, 11, 4521
1, 36159, Pitch_bend_c, 12, 7241
1, 36160, Pitch_bend_c, 11, 4499
1, 36160, Control_c, 12, 11, 119
1, 36160, Pitch_bend_c, 12, 7218
1, 36161, Control_c, 11, 11, 92
1, 36161, Pitch_bend_c, 11, 4476
1, 36161, Pitch_bend_c, 12, 7195
1, 36162, Pitch_bend_c, 11, 4453
1, 36162, Pitch_bend_c, 12, 7173
1, 36163, Pitch_bend_c, 11, 4431
1, 36163, Pitch_bend_c, 12, 7150
1, 36164, Pitch_bend_c, 11, 4408
1, 36164, Control_c, 12, 11, 118
1, 36164, Pitch_bend_c, 12, 7127
1, 36165, Pitch_bend_c, 11, 4385
1, 36165, Pitch_bend_c, 12, 7105
1, 36166, Control_c, 11, 11, 91
1, 36166, Pitch_bend_c, 11, 4363
1, 36166, Pitch_bend_c, 12, 7082
1, 36167, Note_on_c, 10, 70, 89
1, 36167, Pitch_bend_c, 11, 4340
1, 36167, Pitch_bend_c, 12, 7059
1, 36168, Pitch_bend_c, 11, 4317
1, 36168, Pitch_bend_c, 12, 7037
1, 36169, Pitch_bend_c, 11, 4295
1, 36169, Control_c, 12, 11, 117
1, 36169, Pitch_bend_c, 12, 7014
1, 36170, Control_c, 11, 11, 90
1, 36170, Pitch_bend_c, 11, 4272
1, 36170, Pitch_bend_c, 12, 6991
1, 36171, Pitch_bend_c, 11, 4249
1, 36171, Pitch_bend_c, 12, 6969
1, 36172, Pitch_bend_c, 11, 4227
1, 36172, Pitch_bend_c, 12, 6946
1, 36173, Pitch_bend_c, 11, 4204
1, 36173, Control_c, 12, 11, 116
1, 36173, Pitch_bend_c, 12, 6923
1, 36174, Pitch_bend_c, 11, 4181
1, 36174, Pitch_bend_c, 12, 6901
1, 36175, Control_c, 11, 11, 89
1, 36175, Pitch_bend_c, 11, 4159
1, 36175, Pitch_bend_c, 12, 6878
1, 36176, Pitch_bend_c, 11, 4136
1, 36176, Pitch_bend_c, 12, 6855
1, 36177, Pitch_bend_c, 11, 4113
1, 36177, Pitch_bend_c, 12, 6833
1, 36178, Pitch_bend_c, 11, 4091
1, 36178, Control_c, 12, 11, 115
1, 36178, Pitch_bend_c, 12, 6810
1, 36179, Control_c, 11, 11, 88
1, 36179, Pitch_bend_c, 11, 4068
1, 36179, Pitch_bend_c, 12, 6788
1, 36180, Note_on_c, 0, 63, 80
1, 36180, Note_on_c, 0, 67, 91
1, 36180, Note_on_c, 0, 72, 98
1, 36180, Note_on_c, 5, 55, 105
1, 36180, Note_on_c, 5, 60, 116
1, 36180, Note_on_c, 9, 42, 120
1, 36180, Note_on_c, 10, 72, 118
1, 36180, Pitch_bend_c, 11, 4046
1, 36180, Pitch_bend_c, 12, 6765
1, 36181, Note_on_c, 0, 72, 0
1, 36181, Note_on_c, 0, 67, 0
1, 36181, Note_on_c, 0, 63, 0
1, 36181, Pitch_bend_c, 11, 4023
1, 36181, Pitch_bend_c, 12, 6742
1, 36182, Pitch_bend_c, 11, 4000
1, 36182, Control_c, 12, 11, 114
1, 36182, Pitch_bend_c, 12, 6720
1, 36183, Pitch_bend_c, 11, 3978
1, 36183, Pitch_bend_c, 12, 6697
1, 36184, Control_c, 11, 11, 87
1, 36184, Pitch_bend_c, 11, 3955
1, 36184, Pitch_bend_c, 12, 6674
1, 36185, Note_on_c, 10, 70, 0
1, 36185, Pitch_bend_c, 11, 3932
1, 36185, Pitch_bend_c, 12, 6652
1, 36186, Pitch_bend_c, 11, 3910
1, 36186, Pitch_bend_c, 12, 6629
1, 36187, Pitch_bend_c, 11, 3887
1, 36187, Control_c, 12, 11, 113
1, 36187, Pitch_bend_c, 12, 6606
1, 36188, Control_c, 11, 11, 86
1, 36188, Pitch_bend_c, 11, 3864
1, 36188, Pitch_bend_c, 12, 6584
1, 36189, Pitch_bend_c, 11, 3842
1, 36189, Pitch_bend_c, 12, 6561
1, 36190, Pitch_bend_c, 11, 3819
1, 36190, Pitch_bend_c, 12, 6538
1, 36191, Pitch_bend_c, 11, 3796
1, 36191, Control_c, 12, 11, 112
1, 36191, Pitch_bend_c, 12, 6516
1, 36192, Pitch_bend_c, 11, 3774
1, 36192, Pitch_bend_c, 12, 6493
1, 36193, Pitch_bend_c, 11, 3751
1, 36193, Pitch_bend_c, 12, 6470
1, 36194, Pitch_bend_c, 11, 3728
1, 36194, Pitch_bend_c, 12, 6448
1, 36195, Pitch_bend_c, 11, 3706
1, 36195, Pitch_bend_c, 12, 6425
1, 36196, Pitch_bend_c, 11, 3683
1, 36196, Control_c, 12, 11, 111
1, 36196, Pitch_bend_c, 12, 6402
1, 36197, Control_c, 11, 11, 85
1, 36197, Pitch_bend_c, 11, 3660
1, 36197, Pitch_bend_c, 12, 6380
1, 36198, Pitch_bend_c, 11, 3638
1, 36198, Pitch_bend_c, 12, 6357
1, 36199, Pitch_bend_c, 11, 3615
1, 36199, Pitch_bend_c, 12, 6334
1, 36200, Pitch_bend_c, 11, 3592
1, 36200, Control_c, 12, 11, 110
1, 36200, Pitch_bend_c, 12, 6312
1, 36201, Note_on_c, 5, 60, 0
1, 36201, Pitch_bend_c, 11, 3570
1, 36201, Pitch_bend_c, 12, 6289
1, 36202, Note_on_c, 5, 55, 0
1, 36202, Control_c, 11, 11, 84
1, 36202, Pitch_bend_c, 11, 3547
1, 36202, Pitch_bend_c, 12, 6266
1, 36203, Note_on_c, 10, 72, 0
1, 36203, Pitch_bend_c, 11, 3524
1, 36203, Pitch_bend_c, 12, 6244
1, 36204, Pitch_bend_c, 11, 3502
1, 36204, Pitch_bend_c, 12, 6221
1, 36205, Pitch_bend_c, 11, 3479
1, 36205, Control_c, 12, 11, 109
1, 36205, Pitch_bend_c, 12, 6198
1, 36206, Note_on_c, 9, 42, 0
1, 36206, Control_c, 11, 11, 83
1, 36206, Pitch_bend_c, 11, 3456
1, 36206, Pitch_bend_c, 12, 6176
1, 36207, Pitch_bend_c, 11, 3434
1, 36207, Pitch_bend_c, 12, 6153
1, 36208, Pitch_bend_c, 11, 3411
1, 36208, Pitch_bend_c, 12, 6130
1, 36209, Pitch_bend_c, 11, 3388
1, 36209, Control_c, 12, 11, 108
1, 36209, Pitch_bend_c, 12, 6108
1, 36210, Note_on_c, 0, 63, 77
1, 36210, Note_on_c, 0, 67, 90
1, 36210, Note_on_c, 0, 72, 98
1, 36210, Pitch_bend_c, 11, 3366
1, 36210, Pitch_bend_c, 12, 6085
1, 36211, Note_on_c, 0, 72, 0
1, 36211, Note_on_c, 0, 67, 0
1, 36211, Note_on_c, 0, 63, 0
1, 36211, Control_c, 11, 11, 82
1, 36211, Pitch_bend_c, 11, 3343
1, 36211, Pitch_bend_c, 12, 6062
1, 36212, Pitch_bend_c, 11, 3320
1, 36212, Pitch_bend_c, 12, 6040
1, 36213, Pitch_bend_c, 11, 3298
1, 36213, Pitch_bend_c, 12, 6017
1, 36214, Pitch_bend_c, 11, 3275
1, 36214, Control_c, 12, 11, 107
1, 36214, Pitch_bend_c, 12, 5994
1, 36215, Control_c, 11, 11, 81
1, 36215, Pitch_bend_c, 11, 3252
1, 36215, Pitch_bend_c, 12, 5972
1, 36216, Pitch_bend_c, 11, 3230
1, 36216, Pitch_bend_c, 12, 5949
1, 36217, Pitch_bend_c, 11, 3207
1, 36217, Pitch_bend_c, 12, 5926
1, 36218, Pitch_bend_c, 11, 3184
1, 36218, Control_c, 12, 11, 106
1, 36218, Pitch_bend_c, 12, 5904
1, 36219, Pitch_bend_c, 11, 3162
1, 36219, Pitch_bend_c, 12, 5881
1, 36220, Control_c, 11, 11, 80
1, 36220, Pitch_bend_c, 11, 3139
1, 36220, Pitch_bend_c, 12, 5858
1, 36221, Pitch_bend_c, 11, 3116
1, 36221, Pitch_bend_c, 12, 5836
1, 36222, Pitch_bend_c, 11, 3094
1, 36222, Pitch_bend_c, 12, 5813
1, 36223, Pitch_bend_c, 11, 3071
1, 36223, Control_c, 12, 11, 105
1, 36223, Pitch_bend_c, 12, 5790
1, 36224, Control_c, 11, 11, 79
1, 36224, Pitch_bend_c, 11, 3048
1, 36224, Pitch_bend_c, 12, 5768
1, 36225, Pitch_bend_c, 11, 3026
1, 36225, Pitch_bend_c, 12, 5745
1, 36226, Pitch_bend_c, 11, 3003
1, 36226, Pitch_bend_c, 12, 5722
1, 36227, Pitch_bend_c, 11, 2980
1, 36227, Control_c, 12, 11, 104
1, 36227, Pitch_bend_c, 12, 5700
1, 36228, Pitch_bend_c, 11, 2958
1, 36228, Pitch_bend_c, 12, 5677
1, 36229, Control_c, 11, 11, 78
1, 36229, Pitch_bend_c, 11, 2935
1, 36229, Pitch_bend_c, 12, 5654
1, 36230, Pitch_bend_c, 11, 2912
1, 36230, Pitch_bend_c, 12, 5632
1, 36231, Pitch_bend_c, 11, 2890
1, 36231, Pitch_bend_c, 12, 5609
1, 36232, Pitch_bend_c, 11, 2867
1, 36232, Control_c, 12, 11, 103
1, 36232, Pitch_bend_c, 12, 5586
1, 36233, Control_c, 11, 11, 77
1, 36233, Pitch_bend_c, 11, 2844
1, 36233, Pitch_bend_c, 12, 5564
1, 36234, Pitch_bend_c, 11, 2822
1, 36234, Pitch_bend_c, 12, 5541
1, 36235, Pitch_bend_c, 11, 2799
1, 36235, Pitch_bend_c, 12, 5518
1, 36236, Pitch_bend_c, 11, 2776
1, 36236, Control_c, 12, 11, 102
1, 36236, Pitch_bend_c, 12, 5496
1, 36237, Pitch_bend_c, 11, 2754
1, 36237, Pitch_bend_c, 12, 5473
1, 36238, Control_c, 11, 11, 76
1, 36238, Pitch_bend_c, 11, 2731
1, 36238, Pitch_bend_c, 12, 5451
1, 36239, Pitch_bend_c, 11, 2709
1, 36239, Pitch_bend_c, 12, 5428
1, 36240, Note_on_c, 0, 63, 91
1, 36240, Note_on_c, 0, 67, 119
1, 36240, Note_on_c, 0, 72, 96
1, 36240, Note_on_c, 1, 32, 120
1, 36240, Note_on_c, 5, 55, 107
1, 36240, Note_on_c, 5, 60, 119
1, 36240, Note_on_c, 7, 56, 111
1, 36240, Note_on_c, 7, 60, 119
1, 36240, Note_on_c, 7, 67, 116
1, 36240, Note_on_c, 8, 56, 111
1, 36240, Note_on_c, 8, 60, 119
1, 36240, Note_on_c, 8, 67, 116
1, 36240, Note_on_c, 9, 36, 120
1, 36240, Note_on_c, 10, 70, 120
1, 36240, Pitch_bend_c, 11, 2686
1, 36240, Pitch_bend_c, 12, 5405
1, 36241, Pitch_bend_c, 11, 2663
1, 36241, Control_c, 12, 11, 101
1, 36241, Pitch_bend_c, 12, 5383
1, 36242, Control_c, 11, 11, 75
1, 36242, Pitch_bend_c, 11, 2641
1, 36242, Pitch_bend_c, 12, 5360
1, 36243, Pitch_bend_c, 11, 2618
1, 36243, Pitch_bend_c, 12, 5337
1, 36244, Pitch_bend_c, 11, 2595
1, 36244, Pitch_bend_c, 12, 5315
1, 36245, Pitch_bend_c, 11, 2573
1, 36245, Control_c, 12, 11, 100
1, 36245, Pitch_bend_c, 12, 5292
1, 36246, Pitch_bend_c, 11, 2550
1, 36246, Pitch_bend_c, 12, 5269
1, 36247, Control_c, 11, 11, 74
1, 36247, Pitch_bend_c, 11, 2527
1, 36247, Pitch_bend_c, 12, 5247
1, 36248, Pitch_bend_c, 11, 2505
1, 36248, Pitch_bend_c, 12, 5224
1, 36249, Pitch_bend_c, 11, 2482
1, 36249, Pitch_bend_c, 12, 5201
1, 36250, Pitch_bend_c, 11, 2459
1, 36250, Control_c, 12, 11, 99
1, 36250, Pitch_bend_c, 12, 5179
1, 36251, Control_c, 11, 11, 73
1, 36251, Pitch_bend_c, 11, 2437
1, 36251, Pitch_bend_c, 12, 5156
1, 36252, Pitch_bend_c, 11, 2414
1, 36252, Pitch_bend_c, 12, 5133
1, 36253, Pitch_bend_c, 11, 2391
1, 36253, Pitch_bend_c, 12, 5111
1, 36254, Pitch_bend_c, 11, 2369
1, 36254, Control_c, 12, 11, 98
1, 36254, Pitch_bend_c, 12, 5088
1, 36255, Pitch_bend_c, 11, 2346
1, 36255, Pitch_bend_c, 12, 5065
1, 36256, Control_c, 11, 11, 72
1, 36256, Pitch_bend_c, 11, 2323
1, 36256, Pitch_bend_c, 12, 5043
1, 36257, Pitch_bend_c, 11, 2301
1, 36257, Pitch_bend_c, 12, 5020
1, 36258, Pitch_bend_c, 11, 2278
1, 36258, Pitch_bend_c, 12, 4997
1, 36259, Pitch_bend_c, 11, 2255
1, 36259, Control_c, 12, 11, 97
1, 36259, Pitch_bend_c, 12, 4975
1, 36260, Control_c, 11, 11, 71
1, 36260, Pitch_bend_c, 11, 2233
1, 36260, Pitch_bend_c, 12, 4952
1, 36261, Pitch_bend_c, 11, 2210
1, 36261, Pitch_bend_c, 12, 4929
1, 36262, Pitch_bend_c, 11, 2187
1, 36262, Pitch_bend_c, 12, 4907
1, 36263, Pitch_bend_c, 11, 2165
1, 36263, Control_c, 12, 11, 96
1, 36263, Pitch_bend_c, 12, 4884
1, 36264, Pitch_bend_c, 11, 2142
1, 36264, Pitch_bend_c, 12, 4861
1, 36265, Control_c, 11, 11, 70
1, 36265, Pitch_bend_c, 11, 2119
1, 36265, Pitch_bend_c, 12, 4839
1, 36266, Pitch_bend_c, 11, 2097
1, 36266, Pitch_bend_c, 12, 4816
1, 36267, Pitch_bend_c, 11, 2074
1, 36267, Pitch_bend_c, 12, 4793
1, 36268, Pitch_bend_c, 11, 2051
1, 36268, Control_c, 12, 11, 95
1, 36268, Pitch_bend_c, 12, 4771
1, 36269, Note_on_c, 0, 72, 0
1, 36269, Control_c, 11, 11, 69
1, 36269, Pitch_bend_c, 11, 2029
1, 36269, Pitch_bend_c, 12, 4748
1, 36270, Pitch_bend_c, 11, 2006
1, 36270, Pitch_bend_c, 12, 4725
1, 36271, Note_on_c, 1, 32, 0
1, 36271, Note_on_c, 0, 67, 0
1, 36271, Pitch_bend_c, 11, 1983
1, 36271, Pitch_bend_c, 12, 4703
1, 36272, Note_on_c, 9, 36, 0
1, 36272, Pitch_bend_c, 11, 1961
1, 36272, Control_c, 12, 11, 94
1, 36272, Pitch_bend_c, 12, 4680
1, 36273, Note_on_c, 8, 67, 0
1, 36273, Note_on_c, 8, 60, 0
1, 36273, Note_on_c, 7, 67, 0
1, 36273, Note_on_c, 7, 60, 0
1, 36273, Pitch_bend_c, 11, 1938
1, 36273, Pitch_bend_c, 12, 4657
1, 36274, Note_on_c, 0, 63, 0
1, 36274, Control_c, 11, 11, 68
1, 36274, Pitch_bend_c, 11, 1915
1, 36274, Pitch_bend_c, 12, 4635
1, 36275, Pitch_bend_c, 11, 1893
1, 36275, Pitch_bend_c, 12, 4612
1, 36276, Pitch_bend_c, 11, 1870
1, 36276, Pitch_bend_c, 12, 4589
1, 36277, Pitch_bend_c, 11, 1847
1, 36277, Control_c, 12, 11, 93
1, 36277, Pitch_bend_c, 12, 4567
1, 36278, Control_c, 11, 11, 67
1, 36278, Pitch_bend_c, 11, 1825
1, 36278, Pitch_bend_c, 12, 4544
1, 36279, Pitch_bend_c, 11, 1802
1, 36279, Pitch_bend_c, 12, 4521
1, 36280, Note_on_c, 8, 56, 0
1, 36280, Note_on_c, 7, 56, 0
1, 36280, Pitch_bend_c, 11, 1779
1, 36280, Pitch_bend_c, 12, 4499
1, 36281, Pitch_bend_c, 11, 1757
1, 36281, Control_c, 12, 11, 92
1, 36281, Pitch_bend_c, 12, 4476
1, 36282, Pitch_bend_c, 11, 1734
1, 36282, Pitch_bend_c, 12, 4453
1, 36283, Control_c, 11, 11, 66
1, 36283, Pitch_bend_c, 11, 1711
1, 36283, Pitch_bend_c, 12, 4431
1, 36284, Pitch_bend_c, 11, 1689
1, 36284, Pitch_bend_c, 12, 4408
1, 36285, Pitch_bend_c, 11, 1666
1, 36285, Pitch_bend_c, 12, 4385
1, 36286, Pitch_bend_c, 11, 1643
1, 36286, Control_c, 12, 11, 91
1, 36286, Pitch_bend_c, 12, 4363
1, 36287, Control_c, 11, 11, 65
1, 36287, Pitch_bend_c, 11, 1621
1, 36287, Pitch_bend_c, 12, 4340
1, 36288, Pitch_bend_c, 11, 1598
1, 36288, Pitch_bend_c, 12, 4317
1, 36289, Pitch_bend_c, 11, 1575
1, 36289, Pitch_bend_c, 12, 4295
1, 36290, Pitch_bend_c, 11, 1553
1, 36290, Control_c, 12, 11, 90
1, 36290, Pitch_bend_c, 12, 4272
1, 36291, Pitch_bend_c, 11, 1530
1, 36291, Pitch_bend_c, 12, 4249
1, 36292, Control_c, 11, 11, 64
1, 36292, Pitch_bend_c, 11, 1507
1, 36292, Pitch_bend_c, 12, 4227
1, 36293, Pitch_bend_c, 11, 1485
1, 36293, Pitch_bend_c, 12, 4204
1, 36294, Pitch_bend_c, 11, 1462
1, 36294, Pitch_bend_c, 12, 4181
1, 36295, Pitch_bend_c, 11, 1439
1, 36295, Control_c, 12, 11, 89
1, 36295, Pitch_bend_c, 12, 4159
1, 36296, Control_c, 11, 11, 63
1, 36296, Pitch_bend_c, 11, 1417
1, 36296, Pitch_bend_c, 12, 4136
1, 36297, Pitch_bend_c, 11, 1394
1, 36297, Pitch_bend_c, 12, 4113
1, 36298, Pitch_bend_c, 11, 1371
1, 36298, Pitch_bend_c, 12, 4091
1, 36299, Note_on_c, 5, 55, 0
1, 36299, Pitch_bend_c, 11, 1349
1, 36299, Control_c, 12, 11, 88
1, 36299, Pitch_bend_c, 12, 4068
1, 36300, Note_on_c, 5, 60, 0
1, 36300, Note_on_c, 0, 63, 80
1, 36300, Note_on_c, 0, 67, 111
1, 36300, Note_on_c, 0, 72, 82
1, 36300, Note_on_c, 9, 42, 120
1, 36300, Pitch_bend_c, 11, 1326
1, 36300, Pitch_bend_c, 12, 4046
1, 36301, Note_on_c, 0, 72, 0
1, 36301, Note_on_c, 0, 67, 0
1, 36301, Note_on_c, 0, 63, 0
1, 36301, Control_c, 11, 11, 62
1, 36301, Pitch_bend_c, 11, 1304
1, 36301, Pitch_bend_c, 12, 4023
1, 36302, Pitch_bend_c, 11, 1281
1, 36302, Pitch_bend_c, 12, 4000
1, 36303, Pitch_bend_c, 11, 1258
1, 36303, Pitch_bend_c, 12, 3978
1, 36304, Pitch_bend_c, 11, 1236
1, 36304, Control_c, 12, 11, 87
1, 36304, Pitch_bend_c, 12, 3955
1, 36305, Control_c, 11, 11, 61
1, 36305, Pitch_bend_c, 11, 1213
1, 36305, Pitch_bend_c, 12, 3932
1, 36306, Pitch_bend_c, 11, 1190
1, 36306, Pitch_bend_c, 12, 3910
1, 36307, Pitch_bend_c, 11, 1168
1, 36307, Pitch_bend_c, 12, 3887
1, 36308, Pitch_bend_c, 11, 1145
1, 36308, Control_c, 12, 11, 86
1, 36308, Pitch_bend_c, 12, 3864
1, 36309, Pitch_bend_c, 11, 1122
1, 36309, Pitch_bend_c, 12, 3842
1, 36310, Control_c, 11, 11, 60
1, 36310, Pitch_bend_c, 11, 1100
1, 36310, Pitch_bend_c, 12, 3819
1, 36311, Pitch_bend_c, 11, 1077
1, 36311, Pitch_bend_c, 12, 3796
1, 36312, Pitch_bend_c, 11, 1054
1, 36312, Pitch_bend_c, 12, 3774
1, 36313, Pitch_bend_c, 11, 1032
1, 36313, Pitch_bend_c, 12, 3751
1, 36314, Control_c, 11, 11, 59
1, 36314, Pitch_bend_c, 11, 1009
1, 36314, Pitch_bend_c, 12, 3728
1, 36315, Pitch_bend_c, 11, 986
1, 36315, Pitch_bend_c, 12, 3706
1, 36316, Pitch_bend_c, 11, 964
1, 36316, Pitch_bend_c, 12, 3683
1, 36317, Pitch_bend_c, 11, 941
1, 36317, Control_c, 12, 11, 85
1, 36317, Pitch_bend_c, 12, 3660
1, 36318, Pitch_bend_c, 11, 918
1, 36318, Pitch_bend_c, 12, 3638
1, 36319, Control_c, 11, 11, 58
1, 36319, Pitch_bend_c, 11, 896
1, 36319, Pitch_bend_c, 12, 3615
1, 36320, Pitch_bend_c, 11, 873
1, 36320, Pitch_bend_c, 12, 3592
1, 36321, Pitch_bend_c, 11, 850
1, 36321, Pitch_bend_c, 12, 3570
1, 36322, Pitch_bend_c, 11, 828
1, 36322, Control_c, 12, 11, 84
1, 36322, Pitch_bend_c, 12, 3547
1, 36323, Control_c, 11, 11, 57
1, 36323, Pitch_bend_c, 11, 805
1, 36323, Pitch_bend_c, 12, 3524
1, 36324, Pitch_bend_c, 11, 782
1, 36324, Pitch_bend_c, 12, 3502
1, 36325, Note_on_c, 9, 42, 0
1, 36325, Pitch_bend_c, 11, 760
1, 36325, Pitch_bend_c, 12, 3479
1, 36326, Pitch_bend_c, 11, 737
1, 36326, Control_c, 12, 11, 83
1, 36326, Pitch_bend_c, 12, 3456
1, 36327, Pitch_bend_c, 11, 714
1, 36327, Pitch_bend_c, 12, 3434
1, 36328, Control_c, 11, 11, 56
1, 36328, Pitch_bend_c, 11, 692
1, 36328, Pitch_bend_c, 12, 3411
1, 36329, Pitch_bend_c, 11, 669
1, 36329, Pitch_bend_c, 12, 3388
1, 36330, Note_on_c, 0, 62, 119
1, 36330, Note_on_c, 0, 65, 89
1, 36330, Note_on_c, 0, 70, 91
1, 36330, Note_on_c, 1, 31, 116
1, 36330, Note_on_c, 5, 55, 111
1, 36330, Note_on_c, 5, 60, 111
1, 36330, Note_on_c, 7, 55, 118
1, 36330, Note_on_c, 7, 58, 120
1, 36330, Note_on_c, 7, 65, 98
1, 36330, Note_on_c, 8, 55, 118
1, 36330, Note_on_c, 8, 58, 120
1, 36330, Note_on_c, 8, 65, 98
1, 36330, Note_on_c, 10, 72, 118
1, 36330, Pitch_bend_c, 11, 646
1, 36330, Pitch_bend_c, 12, 3366
1, 36331, Pitch_bend_c, 11, 624
1, 36331, Control_c, 12, 11, 82
1, 36331, Pitch_bend_c, 12, 3343
1, 36332, Control_c, 11, 11, 55
1, 36332, Pitch_bend_c, 11, 601
1, 36332, Pitch_bend_c, 12, 3320
1, 36333, Pitch_bend_c, 11, 578
1, 36333, Pitch_bend_c, 12, 3298
1, 36334, Note_on_c, 10, 70, 0
1, 36334, Pitch_bend_c, 11, 556
1, 36334, Pitch_bend_c, 12, 3275
1, 36335, Pitch_bend_c, 11, 533
1, 36335, Control_c, 12, 11, 81
1, 36335, Pitch_bend_c, 12, 3252
1, 36336, Pitch_bend_c, 11, 510
1, 36336, Pitch_bend_c, 12, 3230
1, 36337, Control_c, 11, 11, 54
1, 36337, Pitch_bend_c, 11, 488
1, 36337, Pitch_bend_c, 12, 3207
1, 36338, Pitch_bend_c, 11, 465
1, 36338, Pitch_bend_c, 12, 3184
1, 36339, Pitch_bend_c, 11, 442
1, 36339, Pitch_bend_c, 12, 3162
1, 36340, Pitch_bend_c, 11, 420
1, 36340, Control_c, 12, 11, 80
1, 36340, Pitch_bend_c, 12, 3139
1, 36341, Control_c, 11, 11, 53
1, 36341, Pitch_bend_c, 11, 397
1, 36341, Pitch_bend_c, 12, 3116
1, 36342, Pitch_bend_c, 11, 374
1, 36342, Pitch_bend_c, 12, 3094
1, 36343, Pitch_bend_c, 11, 352
1, 36343, Pitch_bend_c, 12, 3071
1, 36344, Pitch_bend_c, 11, 329
1, 36344, Control_c, 12, 11, 79
1, 36344, Pitch_bend_c, 12, 3048
1, 36345, Pitch_bend_c, 11, 306
1, 36345, Pitch_bend_c, 12, 3026
1, 36346, Control_c, 11, 11, 52
1, 36346, Pitch_bend_c, 11, 284
1, 36346, Pitch_bend_c, 12, 3003
1, 36347, Note_on_c, 5, 60, 0
1, 36347, Pitch_bend_c, 11, 261
1, 36347, Pitch_bend_c, 12, 2980
1, 36348, Pitch_bend_c, 11, 238
1, 36348, Pitch_bend_c, 12, 2958
1, 36349, Pitch_bend_c, 11, 216
1, 36349, Control_c, 12, 11, 78
1, 36349, Pitch_bend_c, 12, 2935
1, 36350, Note_on_c, 5, 55, 0
1, 36350, Note_on_c, 2, 72, 0
1, 36350, Control_c, 11, 11, 51
1, 36350, Pitch_bend_c, 11, 193
1, 36350, Pitch_bend_c, 12, 2912
1, 36351, Pitch_bend_c, 11, 170
1, 36351, Pitch_bend_c, 12, 2890
1, 36352, Note_on_c, 1, 31, 0
1, 36352, Pitch_bend_c, 11, 148
1, 36352, Pitch_bend_c, 12, 2867
1, 36353, Note_on_c, 10, 72, 0
1, 36353, Pitch_bend_c, 11, 125
1, 36353, Control_c, 12, 11, 77
1, 36353, Pitch_bend_c, 12, 2844
1, 36354, Note_on_c, 2, 67, 0
1, 36354, Pitch_bend_c, 11, 102
1, 36354, Pitch_bend_c, 12, 2822
1, 36355, Control_c, 11, 11, 50
1, 36355, Pitch_bend_c, 11, 80
1, 36355, Pitch_bend_c, 12, 2799
1, 36356, Note_on_c, 0, 70, 0
1, 36356, Note_on_c, 8, 55, 0
1, 36356, Note_on_c, 7, 55, 0
1, 36356, Pitch_bend_c, 11, 57
1, 36356, Pitch_bend_c, 12, 2776
1, 36357, Pitch_bend_c, 11, 34
1, 36357, Pitch_bend_c, 12, 2754
1, 36358, Note_on_c, 0, 65, 0
1, 36358, Pitch_bend_c, 11, 12
1, 36358, Control_c, 12, 11, 76
1, 36358, Pitch_bend_c, 12, 2731
1, 36359, Note_on_c, 11, 96, 0
1, 36359, Note_on_c, 2, 63, 0
1, 36359, Note_on_c, 0, 62, 0
1, 36359, Pitch_bend_c, 12, 2709
1, 36360, Note_on_c, 3, 63, 115
1, 36360, Note_on_c, 4, 58, 91
1, 36360, Note_on_c, 4, 67, 103
1, 36360, Note_on_c, 5, 51, 115
1, 36360, Note_on_c, 9, 38, 120
1, 36360, Pitch_bend_c, 12, 2686
1, 36360, Note_on_c, 15, 67, 1
1, 36360, Note_on_c, 15, 58, 1
1, 36360, Lyric_t, "If "
1, 36361, Pitch_bend_c, 12, 2663
1, 36362, Note_on_c, 8, 65, 0
1, 36362, Note_on_c, 7, 65, 0
1, 36362, Control_c, 12, 11, 75
1, 36362, Pitch_bend_c, 12, 2641
1, 36363, Note_on_c, 8, 58, 0
1, 36363, Note_on_c, 7, 58, 0
1, 36363, Pitch_bend_c, 12, 2618
1, 36364, Pitch_bend_c, 12, 2595
1, 36365, Pitch_bend_c, 12, 2573
1, 36366, Pitch_bend_c, 12, 2550
1, 36367, Control_c, 12, 11, 74
1, 36367, Pitch_bend_c, 12, 2527
1, 36368, Pitch_bend_c, 12, 2505
1, 36369, Pitch_bend_c, 12, 2482
1, 36370, Pitch_bend_c, 12, 2459
1, 36371, Control_c, 12, 11, 73
1, 36371, Pitch_bend_c, 12, 2437
1, 36372, Pitch_bend_c, 12, 2414
1, 36373, Pitch_bend_c, 12, 2391
1, 36374, Pitch_bend_c, 12, 2369
1, 36375, Pitch_bend_c, 12, 2346
1, 36376, Control_c, 12, 11, 72
1, 36376, Pitch_bend_c, 12, 2323
1, 36377, Pitch_bend_c, 12, 2301
1, 36378, Pitch_bend_c, 12, 2278
1, 36379, Pitch_bend_c, 12, 2255
1, 36380, Control_c, 12, 11, 71
1, 36380, Pitch_bend_c, 12, 2233
1, 36381, Pitch_bend_c, 12, 2210
1, 36382, Pitch_bend_c, 12, 2187
1, 36383, Pitch_bend_c, 12, 2165
1, 36384, Pitch_bend_c, 12, 2142
1, 36385, Control_c, 12, 11, 70
1, 36385, Pitch_bend_c, 12, 2119
1, 36386, Note_on_c, 9, 38, 0
1, 36386, Pitch_bend_c, 12, 2097
1, 36387, Pitch_bend_c, 12, 2074
1, 36388, Pitch_bend_c, 12, 2051
1, 36389, Note_on_c, 4, 67, 0
1, 36389, Note_on_c, 15, 67, 0
1, 36389, Control_c, 12, 11, 69
1, 36389, Pitch_bend_c, 12, 2029
1, 36390, Note_on_c, 0, 62, 109
1, 36390, Note_on_c, 0, 65, 77
1, 36390, Note_on_c, 0, 70, 60
1, 36390, Pitch_bend_c, 12, 2006
1, 36391, Note_on_c, 0, 70, 0
1, 36391, Note_on_c, 0, 65, 0
1, 36391, Note_on_c, 4, 58, 0
1, 36391, Note_on_c, 15, 58, 0
1, 36391, Note_on_c, 0, 62, 0
1, 36391, Pitch_bend_c, 12, 1983
1, 36392, Pitch_bend_c, 12, 1961
1, 36393, Pitch_bend_c, 12, 1938
1, 36394, Control_c, 12, 11, 68
1, 36394, Pitch_bend_c, 12, 1915
1, 36395, Pitch_bend_c, 12, 1893
1, 36396, Pitch_bend_c, 12, 1870
1, 36397, Pitch_bend_c, 12, 1847
1, 36398, Control_c, 12, 11, 67
1, 36398, Pitch_bend_c, 12, 1825
1, 36399, Pitch_bend_c, 12, 1802
1, 36400, Pitch_bend_c, 12, 1779
1, 36401, Note_on_c, 3, 63, 0
1, 36401, Note_on_c, 5, 51, 0
1, 36401, Pitch_bend_c, 12, 1757
1, 36402, Pitch_bend_c, 12, 1734
1, 36403, Control_c, 12, 11, 66
1, 36403, Pitch_bend_c, 12, 1711
1, 36404, Pitch_bend_c, 12, 1689
1, 36405, Pitch_bend_c, 12, 1666
1, 36406, Pitch_bend_c, 12, 1643
1, 36407, Control_c, 12, 11, 65
1, 36407, Pitch_bend_c, 12, 1621
1, 36408, Pitch_bend_c, 12, 1598
1, 36409, Pitch_bend_c, 12, 1575
1, 36410, Pitch_bend_c, 12, 1553
1, 36411, Pitch_bend_c, 12, 1530
1, 36412, Control_c, 12, 11, 64
1, 36412, Pitch_bend_c, 12, 1507
1, 36413, Pitch_bend_c, 12, 1485
1, 36414, Pitch_bend_c, 12, 1462
1, 36415, Pitch_bend_c, 12, 1439
1, 36416, Control_c, 12, 11, 63
1, 36416, Pitch_bend_c, 12, 1417
1, 36417, Pitch_bend_c, 12, 1394
1, 36418, Pitch_bend_c, 12, 1371
1, 36419, Pitch_bend_c, 12, 1349
1, 36420, Note_on_c, 0, 60, 119
1, 36420, Note_on_c, 0, 63, 91
1, 36420, Note_on_c, 0, 68, 91
1, 36420, Note_on_c, 1, 29, 120
1, 36420, Note_on_c, 2, 60, 105
1, 36420, Note_on_c, 2, 63, 98
1, 36420, Note_on_c, 2, 68, 92
1, 36420, Note_on_c, 3, 60, 116
1, 36420, Note_on_c, 4, 55, 101
1, 36420, Note_on_c, 4, 63, 102
1, 36420, Note_on_c, 5, 48, 116
1, 36420, Note_on_c, 7, 53, 95
1, 36420, Note_on_c, 7, 56, 119
1, 36420, Note_on_c, 7, 63, 109
1, 36420, Note_on_c, 8, 53, 95
1, 36420, Note_on_c, 8, 56, 119
1, 36420, Note_on_c, 8, 63, 109
1, 36420, Note_on_c, 9, 42, 120
1, 36420, Pitch_bend_c, 12, 1326
1, 36420, Note_on_c, 15, 63, 1
1, 36420, Note_on_c, 15, 55, 1
1, 36420, Lyric_t, "you "
1, 36421, Control_c, 12, 11, 62
1, 36421, Pitch_bend_c, 12, 1304
1, 36422, Pitch_bend_c, 12, 1281
1, 36423, Pitch_bend_c, 12, 1258
1, 36424, Pitch_bend_c, 12, 1236
1, 36425, Control_c, 12, 11, 61
1, 36425, Pitch_bend_c, 12, 1213
1, 36426, Pitch_bend_c, 12, 1190
1, 36427, Pitch_bend_c, 12, 1168
1, 36428, Pitch_bend_c, 12, 1145
1, 36429, Pitch_bend_c, 12, 1122
1, 36430, Control_c, 12, 11, 60
1, 36430, Pitch_bend_c, 12, 1100
1, 36431, Pitch_bend_c, 12, 1077
1, 36432, Pitch_bend_c, 12, 1054
1, 36433, Pitch_bend_c, 12, 1032
1, 36434, Control_c, 12, 11, 59
1, 36434, Pitch_bend_c, 12, 1009
1, 36435, Pitch_bend_c, 12, 986
1, 36436, Pitch_bend_c, 12, 964
1, 36437, Pitch_bend_c, 12, 941
1, 36438, Pitch_bend_c, 12, 918
1, 36439, Control_c, 12, 11, 58
1, 36439, Pitch_bend_c, 12, 896
1, 36440, Pitch_bend_c, 12, 873
1, 36441, Pitch_bend_c, 12, 850
1, 36442, Pitch_bend_c, 12, 828
1, 36443, Control_c, 12, 11, 57
1, 36443, Pitch_bend_c, 12, 805
1, 36444, Pitch_bend_c, 12, 782
1, 36445, Note_on_c, 9, 42, 0
1, 36445, Pitch_bend_c, 12, 760
1, 36446, Pitch_bend_c, 12, 737
1, 36447, Note_on_c, 15, 63, 0
1, 36447, Note_on_c, 4, 63, 0
1, 36447, Pitch_bend_c, 12, 714
1, 36448, Control_c, 12, 11, 56
1, 36448, Pitch_bend_c, 12, 692
1, 36449, Pitch_bend_c, 12, 669
1, 36450, Pitch_bend_c, 12, 646
1, 36451, Note_on_c, 4, 55, 0
1, 36451, Note_on_c, 3, 60, 0
1, 36451, Note_on_c, 15, 55, 0
1, 36451, Note_on_c, 5, 48, 0
1, 36451, Pitch_bend_c, 12, 624
1, 36452, Control_c, 12, 11, 55
1, 36452, Pitch_bend_c, 12, 601
1, 36453, Pitch_bend_c, 12, 578
1, 36454, Pitch_bend_c, 12, 556
1, 36455, Pitch_bend_c, 12, 533
1, 36456, Pitch_bend_c, 12, 510
1, 36457, Control_c, 12, 11, 54
1, 36457, Pitch_bend_c, 12, 488
1, 36458, Pitch_bend_c, 12, 465
1, 36459, Pitch_bend_c, 12, 442
1, 36460, Pitch_bend_c, 12, 420
1, 36461, Control_c, 12, 11, 53
1, 36461, Pitch_bend_c, 12, 397
1, 36462, Pitch_bend_c, 12, 374
1, 36463, Pitch_bend_c, 12, 352
1, 36464, Pitch_bend_c, 12, 329
1, 36465, Pitch_bend_c, 12, 306
1, 36466, Control_c, 12, 11, 52
1, 36466, Pitch_bend_c, 12, 284
1, 36467, Pitch_bend_c, 12, 261
1, 36468, Pitch_bend_c, 12, 238
1, 36469, Pitch_bend_c, 12, 216
1, 36470, Control_c, 12, 11, 51
1, 36470, Pitch_bend_c, 12, 193
1, 36471, Pitch_bend_c, 12, 170
1, 36472, Pitch_bend_c, 12, 148
1, 36473, Pitch_bend_c, 12, 125
1, 36474, Pitch_bend_c, 12, 102
1, 36475, Control_c, 12, 11, 50
1, 36475, Pitch_bend_c, 12, 80
1, 36476, Pitch_bend_c, 12, 57
1, 36477, Pitch_bend_c, 12, 34
1, 36478, Pitch_bend_c, 12, 12
1, 36479, Note_on_c, 12, 96, 0
1, 36480, Note_on_c, 3, 68, 120
1, 36480, Note_on_c, 4, 63, 86
1, 36480, Note_on_c, 4, 68, 96
1, 36480, Note_on_c, 4, 72, 109
1, 36480, Note_on_c, 5, 56, 120
1, 36480, Note_on_c, 9, 36, 120
1, 36480, Note_on_c, 15, 68, 1
1, 36480, Note_on_c, 15, 63, 1
1, 36480, Note_on_c, 15, 72, 1
1, 36480, Lyric_t, "let "
1, 36507, Note_on_c, 9, 36, 0
1, 36521, Note_on_c, 1, 29, 0
1, 36540, Note_on_c, 1, 41, 120
1, 36540, Note_on_c, 5, 56, 119
1, 36540, Note_on_c, 5, 60, 109
1, 36540, Note_on_c, 9, 42, 120
1, 36561, Note_on_c, 4, 72, 0
1, 36561, Note_on_c, 15, 72, 0
1, 36566, Note_on_c, 4, 68, 0
1, 36566, Note_on_c, 15, 68, 0
1, 36566, Note_on_c, 15, 63, 0
1, 36566, Note_on_c, 9, 42, 0
1, 36566, Note_on_c, 4, 63, 0
1, 36572, Note_on_c, 5, 56, 0
1, 36572, Note_on_c, 3, 68, 0
1, 36574, Note_on_c, 1, 41, 0
1, 36581, Note_on_c, 5, 56, 0
1, 36583, Note_on_c, 5, 60, 0
1, 36594, Note_on_c, 0, 60, 0
1, 36596, Note_on_c, 0, 63, 0
1, 36599, Note_on_c, 8, 63, 0
1, 36599, Note_on_c, 0, 68, 0
1, 36599, Note_on_c, 7, 63, 0
1, 36600, Note_on_c, 8, 53, 0
1, 36600, Note_on_c, 7, 53, 0
1, 36600, Note_on_c, 1, 41, 120
1, 36600, Note_on_c, 3, 67, 113
1, 36600, Note_on_c, 4, 63, 89
1, 36600, Note_on_c, 4, 68, 92
1, 36600, Note_on_c, 4, 72, 105
1, 36600, Note_on_c, 5, 55, 113
1, 36600, Note_on_c, 5, 56, 102
1, 36600, Note_on_c, 5, 60, 109
1, 36600, Note_on_c, 9, 38, 120
1, 36600, Note_on_c, 15, 63, 1
1, 36600, Note_on_c, 15, 72, 1
1, 36600, Note_on_c, 15, 68, 1
1, 36600, Lyric_t, "me "
1, 36601, Note_on_c, 7, 56, 0
1, 36601, Note_on_c, 8, 56, 0
1, 36619, Note_on_c, 5, 56, 0
1, 36621, Note_on_c, 5, 60, 0
1, 36631, Note_on_c, 9, 38, 0
1, 36632, Note_on_c, 1, 41, 0
1, 36660, Note_on_c, 0, 60, 98
1, 36660, Note_on_c, 0, 63, 60
1, 36660, Note_on_c, 0, 68, 53
1, 36660, Note_on_c, 5, 56, 115
1, 36660, Note_on_c, 5, 60, 111
1, 36660, Note_on_c, 9, 42, 120
1, 36661, Note_on_c, 0, 68, 0
1, 36661, Note_on_c, 0, 63, 0
1, 36661, Note_on_c, 0, 60, 0
1, 36678, Note_on_c, 5, 56, 0
1, 36681, Note_on_c, 5, 60, 0
1, 36682, Note_on_c, 4, 72, 0
1, 36682, Note_on_c, 15, 72, 0
1, 36689, Note_on_c, 15, 68, 0
1, 36689, Note_on_c, 4, 68, 0
1, 36690, Note_on_c, 4, 63, 0
1, 36690, Note_on_c, 15, 63, 0
1, 36690, Note_on_c, 0, 60, 101
1, 36690, Note_on_c, 0, 63, 62
1, 36690, Note_on_c, 0, 68, 70
1, 36691, Note_on_c, 0, 68, 0
1, 36691, Note_on_c, 0, 63, 0
1, 36691, Note_on_c, 0, 60, 0
1, 36693, Note_on_c, 9, 42, 0
1, 36699, Note_on_c, 5, 55, 0
1, 36699, Note_on_c, 3, 67, 0
1, 36719, Control_c, 11, 11, 127
1, 36720, Note_on_c, 0, 60, 118
1, 36720, Note_on_c, 0, 63, 92
1, 36720, Note_on_c, 0, 68, 92
1, 36720, Note_on_c, 1, 29, 120
1, 36720, Note_on_c, 3, 65, 111
1, 36720, Note_on_c, 4, 63, 86
1, 36720, Note_on_c, 4, 68, 92
1, 36720, Note_on_c, 4, 72, 105
1, 36720, Note_on_c, 5, 53, 111
1, 36720, Note_on_c, 5, 56, 111
1, 36720, Note_on_c, 5, 60, 107
1, 36720, Note_on_c, 7, 53, 101
1, 36720, Note_on_c, 7, 56, 120
1, 36720, Note_on_c, 7, 63, 98
1, 36720, Note_on_c, 8, 53, 101
1, 36720, Note_on_c, 8, 56, 120
1, 36720, Note_on_c, 8, 63, 98
1, 36720, Note_on_c, 9, 36, 120
1, 36720, Note_on_c, 15, 68, 1
1, 36720, Note_on_c, 15, 63, 1
1, 36720, Note_on_c, 15, 72, 1
1, 36720, Lyric_t, "trea"
1, 36747, Note_on_c, 9, 36, 0
1, 36755, Note_on_c, 1, 29, 0
1, 36758, Note_on_c, 0, 60, 0
1, 36761, Note_on_c, 0, 68, 0
1, 36762, Note_on_c, 0, 63, 0
1, 36776, Note_on_c, 8, 53, 0
1, 36776, Note_on_c, 7, 63, 0
1, 36776, Note_on_c, 8, 63, 0
1, 36776, Note_on_c, 7, 53, 0
1, 36777, Note_on_c, 7, 56, 0
1, 36777, Note_on_c, 8, 56, 0
1, 36780, Note_on_c, 5, 60, 0
1, 36780, Note_on_c, 0, 60, 97
1, 36780, Note_on_c, 0, 63, 62
1, 36780, Note_on_c, 0, 68, 62
1, 36780, Note_on_c, 9, 42, 120
1, 36781, Note_on_c, 0, 68, 0
1, 36781, Note_on_c, 0, 63, 0
1, 36781, Note_on_c, 0, 60, 0
1, 36781, Note_on_c, 5, 56, 0
1, 36794, Note_on_c, 4, 72, 0
1, 36794, Note_on_c, 15, 72, 0
1, 36796, Note_on_c, 15, 68, 0
1, 36796, Note_on_c, 4, 68, 0
1, 36799, Note_on_c, 4, 63, 0
1, 36799, Note_on_c, 15, 63, 0
1, 36809, Note_on_c, 9, 42, 0
1, 36810, Note_on_c, 5, 56, 109
1, 36810, Note_on_c, 5, 60, 101
1, 36821, Note_on_c, 3, 65, 0
1, 36821, Note_on_c, 5, 53, 0
1, 36828, Note_on_c, 5, 56, 0
1, 36831, Note_on_c, 5, 60, 0
1, 36839, Control_c, 12, 11, 127
1, 36840, Note_on_c, 0, 60, 116
1, 36840, Note_on_c, 0, 63, 92
1, 36840, Note_on_c, 0, 68, 111
1, 36840, Note_on_c, 1, 29, 116
1, 36840, Note_on_c, 3, 67, 120
1, 36840, Note_on_c, 4, 63, 84
1, 36840, Note_on_c, 4, 68, 92
1, 36840, Note_on_c, 4, 72, 98
1, 36840, Note_on_c, 5, 55, 120
1, 36840, Note_on_c, 7, 53, 113
1, 36840, Note_on_c, 7, 56, 120
1, 36840, Note_on_c, 7, 63, 115
1, 36840, Note_on_c, 8, 53, 113
1, 36840, Note_on_c, 8, 56, 120
1, 36840, Note_on_c, 8, 63, 115
1, 36840, Note_on_c, 9, 38, 120
1, 36840, Note_on_c, 15, 72, 1
1, 36840, Note_on_c, 15, 63, 1
1, 36840, Note_on_c, 15, 68, 1
1, 36840, Lyric_t, "sure "
1, 36843, Note_on_c, 2, 60, 0
1, 36847, Note_on_c, 2, 63, 0
1, 36849, Note_on_c, 2, 68, 0
1, 36868, Note_on_c, 9, 38, 0
1, 36870, Note_on_c, 1, 29, 0
1, 36879, Note_on_c, 0, 60, 0
1, 36880, Note_on_c, 15, 72, 0
1, 36880, Note_on_c, 4, 72, 0
1, 36882, Note_on_c, 0, 63, 0
1, 36882, Note_on_c, 0, 68, 0
1, 36891, Note_on_c, 8, 53, 0
1, 36891, Note_on_c, 7, 53, 0
1, 36892, Note_on_c, 8, 56, 0
1, 36892, Note_on_c, 7, 56, 0
1, 36895, Note_on_c, 7, 63, 0
1, 36895, Note_on_c, 8, 63, 0
1, 36900, Note_on_c, 9, 42, 120
1, 36902, Note_on_c, 4, 63, 0
1, 36902, Note_on_c, 15, 63, 0
1, 36908, Note_on_c, 4, 68, 0
1, 36908, Note_on_c, 15, 68, 0
1, 36924, Note_on_c, 5, 55, 0
1, 36924, Note_on_c, 3, 67, 0
1, 36927, Note_on_c, 9, 42, 0
1, 36960, Note_on_c, 0, 60, 95
1, 36960, Note_on_c, 0, 63, 119
1, 36960, Note_on_c, 0, 70, 120
1, 36960, Note_on_c, 1, 34, 120
1, 36960, Note_on_c, 3, 70, 119
1, 36960, Note_on_c, 4, 63, 81
1, 36960, Note_on_c, 4, 67, 94
1, 36960, Note_on_c, 4, 70, 120
1, 36960, Note_on_c, 5, 58, 119
1, 36960, Note_on_c, 7, 56, 98
1, 36960, Note_on_c, 7, 60, 119
1, 36960, Note_on_c, 7, 67, 116
1, 36960, Note_on_c, 8, 56, 98
1, 36960, Note_on_c, 8, 60, 119
1, 36960, Note_on_c, 8, 67, 116
1, 36960, Note_on_c, 9, 36, 120
1, 36960, Note_on_c, 9, 42, 120
1, 36960, Note_on_c, 9, 57, 81
1, 36960, Note_on_c, 15, 67, 1
1, 36960, Note_on_c, 15, 63, 1
1, 36960, Note_on_c, 15, 70, 1
1, 36960, Lyric_t, "you "
1, 36960, Lyric_t, "\015"
1, 36974, Note_on_c, 9, 36, 0
1, 36979, Note_on_c, 9, 42, 0
1, 36986, Note_on_c, 9, 57, 0
1, 37013, Note_on_c, 4, 70, 0
1, 37013, Note_on_c, 15, 70, 0
1, 37015, Note_on_c, 4, 67, 0
1, 37015, Note_on_c, 15, 67, 0
1, 37019, Note_on_c, 15, 63, 0
1, 37019, Note_on_c, 4, 63, 0
1, 37020, Note_on_c, 9, 36, 120
1, 37020, Note_on_c, 9, 42, 119
1, 37020, Note_on_c, 9, 57, 75
1, 37027, Note_on_c, 5, 58, 0
1, 37027, Note_on_c, 3, 70, 0
1, 37042, Note_on_c, 9, 42, 0
1, 37043, Note_on_c, 9, 36, 0
1, 37044, Note_on_c, 9, 57, 0
1, 37080, Note_on_c, 9, 36, 120
1, 37080, Note_on_c, 9, 42, 119
1, 37080, Note_on_c, 9, 57, 69
1, 37102, Note_on_c, 9, 36, 0
1, 37103, Note_on_c, 9, 42, 0
1, 37104, Note_on_c, 9, 57, 0
1, 37140, Note_on_c, 3, 72, 118
1, 37140, Note_on_c, 4, 63, 81
1, 37140, Note_on_c, 4, 67, 103
1, 37140, Note_on_c, 4, 72, 119
1, 37140, Note_on_c, 5, 60, 118
1, 37140, Note_on_c, 9, 36, 120
1, 37140, Note_on_c, 9, 42, 115
1, 37140, Note_on_c, 9, 57, 70
1, 37140, Note_on_c, 15, 63, 1
1, 37140, Note_on_c, 15, 72, 1
1, 37140, Note_on_c, 15, 67, 1
1, 37140, Lyric_t, "oh "
1, 37161, Note_on_c, 9, 36, 0
1, 37162, Note_on_c, 9, 42, 0
1, 37165, Note_on_c, 9, 57, 0
1, 37191, Note_on_c, 4, 67, 0
1, 37191, Note_on_c, 15, 67, 0
1, 37194, Note_on_c, 15, 72, 0
1, 37194, Note_on_c, 4, 72, 0
1, 37195, Note_on_c, 15, 63, 0
1, 37195, Note_on_c, 4, 63, 0
1, 37200, Note_on_c, 9, 36, 120
1, 37200, Note_on_c, 9, 42, 119
1, 37200, Note_on_c, 9, 57, 62
1, 37204, Note_on_c, 3, 72, 0
1, 37204, Note_on_c, 5, 60, 0
1, 37220, Note_on_c, 9, 36, 0
1, 37221, Note_on_c, 9, 42, 0
1, 37225, Note_on_c, 9, 57, 0
1, 37260, Note_on_c, 9, 36, 120
1, 37260, Note_on_c, 9, 42, 109
1, 37260, Note_on_c, 9, 57, 71
1, 37281, Note_on_c, 9, 36, 0
1, 37282, Note_on_c, 9, 42, 0
1, 37284, Note_on_c, 9, 57, 0
1, 37320, Note_on_c, 3, 75, 115
1, 37320, Note_on_c, 4, 67, 120
1, 37320, Note_on_c, 4, 70, 120
1, 37320, Note_on_c, 4, 77, 120
1, 37320, Note_on_c, 5, 63, 115
1, 37320, Note_on_c, 9, 36, 120
1, 37320, Note_on_c, 9, 42, 104
1, 37320, Note_on_c, 9, 57, 62
1, 37320, Note_on_c, 15, 70, 1
1, 37320, Note_on_c, 15, 67, 1
1, 37320, Note_on_c, 15, 77, 1
1, 37320, Lyric_t, "oh "
1, 37320, Lyric_t, "\015"
1, 37339, Note_on_c, 9, 36, 0
1, 37342, Note_on_c, 9, 57, 0
1, 37342, Note_on_c, 9, 42, 0
1, 37343, Note_on_c, 4, 67, 0
1, 37343, Note_on_c, 15, 67, 0
1, 37344, Note_on_c, 15, 70, 0
1, 37344, Note_on_c, 4, 70, 0
1, 37345, Note_on_c, 15, 77, 0
1, 37345, Note_on_c, 4, 77, 0
1, 37350, Note_on_c, 4, 70, 120
1, 37350, Note_on_c, 4, 75, 81
1, 37350, Note_on_c, 4, 79, 116
1, 37350, Note_on_c, 15, 79, 1
1, 37350, Note_on_c, 15, 70, 1
1, 37350, Note_on_c, 15, 75, 1
1, 37380, Note_on_c, 9, 36, 120
1, 37380, Note_on_c, 9, 42, 111
1, 37380, Note_on_c, 9, 57, 80
1, 37392, Note_on_c, 1, 34, 0
1, 37393, Note_on_c, 0, 63, 0
1, 37394, Note_on_c, 0, 70, 0
1, 37397, Note_on_c, 0, 60, 0
1, 37399, Note_on_c, 9, 36, 0
1, 37400, Note_on_c, 9, 42, 0
1, 37401, Note_on_c, 9, 57, 0
1, 37427, Note_on_c, 7, 60, 0
1, 37427, Note_on_c, 8, 60, 0
1, 37428, Note_on_c, 8, 67, 0
1, 37428, Note_on_c, 7, 67, 0
1, 37431, Note_on_c, 8, 56, 0
1, 37431, Note_on_c, 7, 56, 0
1, 37440, Note_on_c, 0, 60, 91
1, 37440, Note_on_c, 0, 63, 119
1, 37440, Note_on_c, 0, 70, 100
1, 37440, Note_on_c, 1, 46, 120
1, 37440, Note_on_c, 7, 56, 98
1, 37440, Note_on_c, 7, 60, 119
1, 37440, Note_on_c, 7, 67, 116
1, 37440, Note_on_c, 8, 56, 98
1, 37440, Note_on_c, 8, 60, 119
1, 37440, Note_on_c, 8, 67, 116
1, 37440, Note_on_c, 9, 38, 120
1, 37453, Note_on_c, 1, 46, 0
1, 37454, Note_on_c, 0, 63, 0
1, 37454, Note_on_c, 0, 70, 0
1, 37456, Note_on_c, 0, 60, 0
1, 37462, Note_on_c, 9, 38, 0
1, 37470, Note_on_c, 0, 60, 94
1, 37470, Note_on_c, 0, 63, 92
1, 37470, Note_on_c, 0, 70, 94
1, 37470, Note_on_c, 1, 46, 109
1, 37470, Note_on_c, 9, 38, 116
1, 37494, Note_on_c, 9, 38, 0
1, 37495, Note_on_c, 1, 46, 0
1, 37501, Note_on_c, 0, 63, 0
1, 37501, Note_on_c, 0, 60, 0
1, 37502, Note_on_c, 0, 70, 0
1, 37530, Note_on_c, 0, 60, 94
1, 37530, Note_on_c, 0, 63, 104
1, 37530, Note_on_c, 0, 70, 89
1, 37530, Note_on_c, 1, 46, 120
1, 37530, Note_on_c, 9, 38, 120
1, 37542, Note_on_c, 1, 46, 0
1, 37548, Note_on_c, 0, 70, 0
1, 37549, Note_on_c, 0, 63, 0
1, 37549, Note_on_c, 0, 60, 0
1, 37550, Note_on_c, 9, 38, 0
1, 37560, Note_on_c, 0, 60, 95
1, 37560, Note_on_c, 0, 63, 106
1, 37560, Note_on_c, 0, 70, 100
1, 37560, Note_on_c, 1, 46, 115
1, 37560, Note_on_c, 9, 38, 113
1, 37583, Note_on_c, 9, 38, 0
1, 37590, Note_on_c, 1, 46, 0
1, 37594, Note_on_c, 0, 63, 0
1, 37595, Note_on_c, 0, 60, 0
1, 37597, Note_on_c, 0, 70, 0
1, 37620, Note_on_c, 0, 60, 80
1, 37620, Note_on_c, 0, 63, 94
1, 37620, Note_on_c, 0, 70, 86
1, 37620, Note_on_c, 1, 46, 120
1, 37620, Note_on_c, 9, 38, 120
1, 37634, Note_on_c, 1, 46, 0
1, 37635, Note_on_c, 0, 63, 0
1, 37636, Note_on_c, 0, 70, 0
1, 37636, Note_on_c, 0, 60, 0
1, 37641, Note_on_c, 9, 38, 0
1, 37650, Note_on_c, 0, 60, 107
1, 37650, Note_on_c, 0, 63, 111
1, 37650, Note_on_c, 0, 70, 96
1, 37650, Note_on_c, 1, 46, 119
1, 37650, Note_on_c, 9, 38, 116
1, 37674, Note_on_c, 9, 38, 0
1, 37681, Note_on_c, 1, 46, 0
1, 37682, Note_on_c, 0, 63, 0
1, 37683, Note_on_c, 0, 60, 0
1, 37686, Note_on_c, 0, 70, 0
1, 37710, Note_on_c, 0, 60, 98
1, 37710, Note_on_c, 0, 63, 111
1, 37710, Note_on_c, 0, 70, 89
1, 37710, Note_on_c, 1, 46, 120
1, 37710, Note_on_c, 9, 38, 120
1, 37726, Note_on_c, 1, 46, 0
1, 37729, Note_on_c, 0, 70, 0
1, 37729, Note_on_c, 0, 63, 0
1, 37729, Note_on_c, 0, 60, 0
1, 37731, Note_on_c, 9, 38, 0
1, 37740, Note_on_c, 0, 60, 113
1, 37740, Note_on_c, 0, 63, 111
1, 37740, Note_on_c, 0, 70, 104
1, 37740, Note_on_c, 1, 46, 119
1, 37740, Note_on_c, 9, 38, 116
1, 37770, Note_on_c, 9, 38, 0
1, 37780, Note_on_c, 1, 46, 0
1, 37782, Note_on_c, 0, 63, 0
1, 37784, Note_on_c, 0, 60, 0
1, 37784, Note_on_c, 0, 70, 0
1, 37793, Note_on_c, 8, 60, 0
1, 37793, Note_on_c, 7, 60, 0
1, 37794, Note_on_c, 8, 67, 0
1, 37794, Note_on_c, 7, 67, 0
1, 37796, Note_on_c, 8, 56, 0
1, 37796, Note_on_c, 7, 56, 0
1, 37800, Note_on_c, 9, 38, 119
1, 37800, Note_on_c, 9, 39, 91
1, 37800, Note_on_c, 9, 40, 120
1, 37808, Note_on_c, 3, 75, 0
1, 37808, Note_on_c, 5, 63, 0
1, 37812, Note_on_c, 15, 70, 0
1, 37812, Note_on_c, 4, 70, 0
1, 37820, Note_on_c, 15, 75, 0
1, 37820, Note_on_c, 4, 75, 0
1, 37824, Note_on_c, 4, 79, 0
1, 37824, Note_on_c, 15, 79, 0
1, 37847, Note_on_c, 9, 38, 0
1, 37851, Note_on_c, 9, 40, 0
1, 37857, Note_on_c, 9, 39, 0
1, 37920, Note_on_c, 0, 60, 105
1, 37920, Note_on_c, 0, 63, 98
1, 37920, Note_on_c, 0, 67, 118
1, 37920, Note_on_c, 1, 32, 120
1, 37920, Note_on_c, 9, 36, 120
1, 37963, Note_on_c, 9, 36, 0
1, 37979, Note_on_c, 1, 32, 0
1, 37980, Note_on_c, 1, 44, 120
1, 38015, Note_on_c, 1, 44, 0
1, 38030, Note_on_c, 0, 67, 0
1, 38036, Note_on_c, 0, 63, 0
1, 38038, Note_on_c, 0, 60, 0
1, 38040, Note_on_c, 9, 38, 120
1, 38070, Note_on_c, 0, 60, 83
1, 38070, Note_on_c, 0, 63, 73
1, 38070, Note_on_c, 0, 67, 82
1, 38071, Note_on_c, 0, 67, 0
1, 38071, Note_on_c, 0, 63, 0
1, 38071, Note_on_c, 0, 60, 0
1, 38079, Note_on_c, 9, 38, 0
1, 38100, Note_on_c, 0, 60, 98
1, 38100, Note_on_c, 0, 63, 80
1, 38100, Note_on_c, 0, 67, 91
1, 38101, Note_on_c, 0, 67, 0
1, 38101, Note_on_c, 0, 63, 0
1, 38101, Note_on_c, 0, 60, 0
1, 38130, Note_on_c, 0, 60, 98
1, 38130, Note_on_c, 0, 63, 77
1, 38130, Note_on_c, 0, 67, 90
1, 38131, Note_on_c, 0, 67, 0
1, 38131, Note_on_c, 0, 63, 0
1, 38131, Note_on_c, 0, 60, 0
1, 38160, Note_on_c, 0, 56, 96
1, 38160, Note_on_c, 0, 60, 119
1, 38160, Note_on_c, 0, 63, 91
1, 38160, Note_on_c, 1, 32, 120
1, 38160, Note_on_c, 9, 36, 120
1, 38189, Note_on_c, 0, 56, 0
1, 38191, Note_on_c, 1, 32, 0
1, 38191, Note_on_c, 0, 60, 0
1, 38194, Note_on_c, 0, 63, 0
1, 38198, Note_on_c, 9, 36, 0
1, 38220, Note_on_c, 0, 56, 82
1, 38220, Note_on_c, 0, 60, 111
1, 38220, Note_on_c, 0, 63, 80
1, 38221, Note_on_c, 0, 63, 0
1, 38221, Note_on_c, 0, 60, 0
1, 38221, Note_on_c, 0, 56, 0
1, 38250, Note_on_c, 0, 58, 91
1, 38250, Note_on_c, 0, 62, 119
1, 38250, Note_on_c, 0, 65, 89
1, 38250, Note_on_c, 1, 31, 116
1, 38272, Note_on_c, 1, 31, 0
1, 38276, Note_on_c, 0, 58, 0
1, 38278, Note_on_c, 0, 65, 0
1, 38279, Note_on_c, 0, 62, 0
1, 38280, Note_on_c, 9, 38, 120
1, 38310, Note_on_c, 0, 58, 60
1, 38310, Note_on_c, 0, 62, 109
1, 38310, Note_on_c, 0, 65, 77
1, 38311, Note_on_c, 0, 65, 0
1, 38311, Note_on_c, 0, 62, 0
1, 38311, Note_on_c, 0, 58, 0
1, 38318, Note_on_c, 9, 38, 0
1, 38340, Note_on_c, 0, 56, 91
1, 38340, Note_on_c, 0, 60, 119
1, 38340, Note_on_c, 0, 63, 91
1, 38340, Note_on_c, 1, 29, 120
1, 38400, Note_on_c, 9, 36, 120
1, 38437, Note_on_c, 9, 36, 0
1, 38441, Note_on_c, 1, 29, 0
1, 38460, Note_on_c, 1, 41, 120
1, 38494, Note_on_c, 1, 41, 0
1, 38514, Note_on_c, 0, 60, 0
1, 38516, Note_on_c, 0, 63, 0
1, 38519, Note_on_c, 0, 56, 0
1, 38520, Note_on_c, 0, 56, 86
1, 38520, Note_on_c, 0, 60, 116
1, 38520, Note_on_c, 0, 63, 78
1, 38520, Note_on_c, 1, 41, 120
1, 38520, Note_on_c, 9, 38, 120
1, 38547, Note_on_c, 0, 60, 0
1, 38549, Note_on_c, 0, 56, 0
1, 38550, Note_on_c, 0, 63, 0
1, 38552, Note_on_c, 1, 41, 0
1, 38561, Note_on_c, 9, 38, 0
1, 38580, Note_on_c, 0, 56, 53
1, 38580, Note_on_c, 0, 60, 98
1, 38580, Note_on_c, 0, 63, 60
1, 38581, Note_on_c, 0, 63, 0
1, 38581, Note_on_c, 0, 60, 0
1, 38581, Note_on_c, 0, 56, 0
1, 38610, Note_on_c, 0, 56, 70
1, 38610, Note_on_c, 0, 60, 101
1, 38610, Note_on_c, 0, 63, 62
1, 38611, Note_on_c, 0, 63, 0
1, 38611, Note_on_c, 0, 60, 0
1, 38611, Note_on_c, 0, 56, 0
1, 38640, Note_on_c, 0, 56, 92
1, 38640, Note_on_c, 0, 60, 118
1, 38640, Note_on_c, 0, 63, 92
1, 38640, Note_on_c, 1, 29, 120
1, 38640, Note_on_c, 9, 36, 120
1, 38675, Note_on_c, 1, 29, 0
1, 38678, Note_on_c, 0, 60, 0
1, 38679, Note_on_c, 9, 36, 0
1, 38681, Note_on_c, 0, 56, 0
1, 38682, Note_on_c, 0, 63, 0
1, 38700, Note_on_c, 0, 56, 62
1, 38700, Note_on_c, 0, 60, 97
1, 38700, Note_on_c, 0, 63, 62
1, 38701, Note_on_c, 0, 63, 0
1, 38701, Note_on_c, 0, 60, 0
1, 38701, Note_on_c, 0, 56, 0
1, 38760, Note_on_c, 0, 60, 116
1, 38760, Note_on_c, 0, 63, 92
1, 38760, Note_on_c, 0, 67, 111
1, 38760, Note_on_c, 1, 29, 116
1, 38760, Note_on_c, 9, 38, 120
1, 38790, Note_on_c, 1, 29, 0
1, 38793, Note_on_c, 9, 38, 0
1, 38799, Note_on_c, 0, 60, 0
1, 38802, Note_on_c, 0, 67, 0
1, 38802, Note_on_c, 0, 63, 0
1, 38880, Note_on_c, 0, 58, 92
1, 38880, Note_on_c, 0, 62, 116
1, 38880, Note_on_c, 0, 65, 94
1, 38880, Note_on_c, 1, 31, 120
1, 38880, Note_on_c, 9, 36, 120
1, 38911, Note_on_c, 9, 36, 0
1, 38926, Note_on_c, 1, 31, 0
1, 38940, Note_on_c, 1, 43, 119
1, 38982, Note_on_c, 0, 65, 0
1, 38991, Note_on_c, 1, 43, 0
1, 38991, Note_on_c, 0, 62, 0
1, 38995, Note_on_c, 0, 58, 0
1, 39000, Note_on_c, 9, 38, 120
1, 39026, Note_on_c, 9, 38, 0
1, 39060, Note_on_c, 0, 58, 48
1, 39060, Note_on_c, 0, 62, 100
1, 39060, Note_on_c, 0, 65, 71
1, 39061, Note_on_c, 0, 65, 0
1, 39061, Note_on_c, 0, 62, 0
1, 39061, Note_on_c, 0, 58, 0
1, 39090, Note_on_c, 0, 58, 71
1, 39090, Note_on_c, 0, 62, 98
1, 39090, Note_on_c, 0, 65, 78
1, 39091, Note_on_c, 0, 65, 0
1, 39091, Note_on_c, 0, 62, 0
1, 39091, Note_on_c, 0, 58, 0
1, 39120, Note_on_c, 0, 55, 103
1, 39120, Note_on_c, 0, 58, 92
1, 39120, Note_on_c, 0, 62, 113
1, 39120, Note_on_c, 0, 65, 83
1, 39120, Note_on_c, 1, 31, 119
1, 39120, Note_on_c, 9, 36, 120
1, 39147, Note_on_c, 9, 36, 0
1, 39149, Note_on_c, 1, 31, 0
1, 39162, Note_on_c, 0, 62, 0
1, 39163, Note_on_c, 0, 55, 0
1, 39164, Note_on_c, 0, 58, 0
1, 39171, Note_on_c, 0, 65, 0
1, 39180, Note_on_c, 0, 58, 57
1, 39180, Note_on_c, 0, 62, 94
1, 39180, Note_on_c, 0, 65, 59
1, 39181, Note_on_c, 0, 65, 0
1, 39181, Note_on_c, 0, 62, 0
1, 39181, Note_on_c, 0, 58, 0
1, 39210, Note_on_c, 0, 58, 92
1, 39210, Note_on_c, 0, 62, 111
1, 39210, Note_on_c, 0, 65, 87
1, 39210, Note_on_c, 1, 34, 120
1, 39240, Note_on_c, 9, 38, 120
1, 39241, Note_on_c, 1, 34, 0
1, 39246, Note_on_c, 0, 62, 0
1, 39248, Note_on_c, 0, 58, 0
1, 39251, Note_on_c, 0, 65, 0
1, 39266, Note_on_c, 9, 38, 0
1, 39270, Note_on_c, 0, 58, 70
1, 39270, Note_on_c, 0, 62, 78
1, 39270, Note_on_c, 0, 65, 72
1, 39271, Note_on_c, 0, 65, 0
1, 39271, Note_on_c, 0, 62, 0
1, 39271, Note_on_c, 0, 58, 0
1, 39300, Note_on_c, 0, 60, 113
1, 39300, Note_on_c, 0, 63, 87
1, 39300, Note_on_c, 0, 67, 105
1, 39300, Note_on_c, 1, 36, 120
1, 39360, Note_on_c, 9, 36, 120
1, 39389, Note_on_c, 9, 36, 0
1, 39417, Note_on_c, 1, 36, 0
1, 39420, Note_on_c, 1, 48, 120
1, 39456, Note_on_c, 1, 48, 0
1, 39479, Note_on_c, 0, 67, 0
1, 39479, Note_on_c, 0, 60, 0
1, 39480, Note_on_c, 0, 60, 105
1, 39480, Note_on_c, 0, 63, 92
1, 39480, Note_on_c, 0, 67, 61
1, 39480, Note_on_c, 9, 38, 120
1, 39481, Note_on_c, 0, 67, 0
1, 39481, Note_on_c, 0, 63, 0
1, 39481, Note_on_c, 0, 63, 0
1, 39481, Note_on_c, 0, 60, 0
1, 39507, Note_on_c, 9, 38, 0
1, 39540, Note_on_c, 1, 34, 98
1, 39569, Note_on_c, 1, 34, 0
1, 39570, Note_on_c, 1, 36, 111
1, 39599, Note_on_c, 1, 36, 0
1, 39600, Note_on_c, 0, 60, 94
1, 39600, Note_on_c, 0, 63, 94
1, 39600, Note_on_c, 0, 67, 100
1, 39600, Note_on_c, 1, 39, 94
1, 39600, Note_on_c, 9, 36, 120
1, 39626, Note_on_c, 9, 36, 0
1, 39629, Note_on_c, 1, 39, 0
1, 39630, Note_on_c, 1, 36, 118
1, 39633, Note_on_c, 0, 67, 0
1, 39633, Note_on_c, 0, 60, 0
1, 39637, Note_on_c, 0, 63, 0
1, 39666, Note_on_c, 1, 36, 0
1, 39720, Note_on_c, 0, 58, 92
1, 39720, Note_on_c, 0, 62, 119
1, 39720, Note_on_c, 0, 65, 105
1, 39720, Note_on_c, 1, 34, 109
1, 39720, Note_on_c, 9, 38, 120
1, 39742, Note_on_c, 9, 38, 0
1, 39748, Note_on_c, 0, 62, 0
1, 39753, Note_on_c, 0, 58, 0
1, 39754, Note_on_c, 0, 65, 0
1, 39823, Note_on_c, 1, 34, 0
1, 39840, Note_on_c, 0, 60, 105
1, 39840, Note_on_c, 0, 63, 98
1, 39840, Note_on_c, 0, 67, 118
1, 39840, Note_on_c, 1, 32, 120
1, 39840, Note_on_c, 9, 36, 120
1, 39883, Note_on_c, 9, 36, 0
1, 39899, Note_on_c, 1, 32, 0
1, 39900, Note_on_c, 1, 44, 120
1, 39935, Note_on_c, 1, 44, 0
1, 39950, Note_on_c, 0, 67, 0
1, 39956, Note_on_c, 0, 63, 0
1, 39958, Note_on_c, 0, 60, 0
1, 39960, Note_on_c, 9, 38, 120
1, 39990, Note_on_c, 0, 60, 83
1, 39990, Note_on_c, 0, 63, 73
1, 39990, Note_on_c, 0, 67, 82
1, 39991, Note_on_c, 0, 67, 0
1, 39991, Note_on_c, 0, 63, 0
1, 39991, Note_on_c, 0, 60, 0
1, 39999, Note_on_c, 9, 38, 0
1, 40020, Note_on_c, 0, 60, 98
1, 40020, Note_on_c, 0, 63, 80
1, 40020, Note_on_c, 0, 67, 91
1, 40021, Note_on_c, 0, 67, 0
1, 40021, Note_on_c, 0, 63, 0
1, 40021, Note_on_c, 0, 60, 0
1, 40050, Note_on_c, 0, 60, 98
1, 40050, Note_on_c, 0, 63, 77
1, 40050, Note_on_c, 0, 67, 90
1, 40051, Note_on_c, 0, 67, 0
1, 40051, Note_on_c, 0, 63, 0
1, 40051, Note_on_c, 0, 60, 0
1, 40080, Note_on_c, 0, 56, 96
1, 40080, Note_on_c, 0, 60, 119
1, 40080, Note_on_c, 0, 63, 91
1, 40080, Note_on_c, 1, 32, 120
1, 40080, Note_on_c, 9, 36, 120
1, 40109, Note_on_c, 0, 56, 0
1, 40111, Note_on_c, 1, 32, 0
1, 40111, Note_on_c, 0, 60, 0
1, 40114, Note_on_c, 0, 63, 0
1, 40118, Note_on_c, 9, 36, 0
1, 40140, Note_on_c, 0, 56, 82
1, 40140, Note_on_c, 0, 60, 111
1, 40140, Note_on_c, 0, 63, 80
1, 40141, Note_on_c, 0, 63, 0
1, 40141, Note_on_c, 0, 60, 0
1, 40141, Note_on_c, 0, 56, 0
1, 40170, Note_on_c, 0, 58, 91
1, 40170, Note_on_c, 0, 62, 119
1, 40170, Note_on_c, 0, 65, 89
1, 40170, Note_on_c, 1, 31, 116
1, 40192, Note_on_c, 1, 31, 0
1, 40196, Note_on_c, 0, 58, 0
1, 40198, Note_on_c, 0, 65, 0
1, 40199, Note_on_c, 0, 62, 0
1, 40200, Note_on_c, 9, 38, 120
1, 40230, Note_on_c, 0, 58, 60
1, 40230, Note_on_c, 0, 62, 109
1, 40230, Note_on_c, 0, 65, 77
1, 40231, Note_on_c, 0, 65, 0
1, 40231, Note_on_c, 0, 62, 0
1, 40231, Note_on_c, 0, 58, 0
1, 40238, Note_on_c, 9, 38, 0
1, 40260, Note_on_c, 0, 56, 91
1, 40260, Note_on_c, 0, 60, 119
1, 40260, Note_on_c, 0, 63, 91
1, 40260, Note_on_c, 1, 29, 120
1, 40320, Note_on_c, 9, 36, 120
1, 40357, Note_on_c, 9, 36, 0
1, 40361, Note_on_c, 1, 29, 0
1, 40380, Note_on_c, 1, 41, 120
1, 40414, Note_on_c, 1, 41, 0
1, 40434, Note_on_c, 0, 60, 0
1, 40436, Note_on_c, 0, 63, 0
1, 40439, Note_on_c, 0, 56, 0
1, 40440, Note_on_c, 0, 56, 86
1, 40440, Note_on_c, 0, 60, 116
1, 40440, Note_on_c, 0, 63, 78
1, 40440, Note_on_c, 1, 41, 120
1, 40440, Note_on_c, 9, 38, 120
1, 40467, Note_on_c, 0, 60, 0
1, 40469, Note_on_c, 0, 56, 0
1, 40470, Note_on_c, 0, 63, 0
1, 40472, Note_on_c, 1, 41, 0
1, 40481, Note_on_c, 9, 38, 0
1, 40500, Note_on_c, 0, 56, 53
1, 40500, Note_on_c, 0, 60, 98
1, 40500, Note_on_c, 0, 63, 60
1, 40501, Note_on_c, 0, 63, 0
1, 40501, Note_on_c, 0, 60, 0
1, 40501, Note_on_c, 0, 56, 0
1, 40530, Note_on_c, 0, 56, 70
1, 40530, Note_on_c, 0, 60, 101
1, 40530, Note_on_c, 0, 63, 62
1, 40531, Note_on_c, 0, 63, 0
1, 40531, Note_on_c, 0, 60, 0
1, 40531, Note_on_c, 0, 56, 0
1, 40560, Note_on_c, 0, 56, 92
1, 40560, Note_on_c, 0, 60, 118
1, 40560, Note_on_c, 0, 63, 92
1, 40560, Note_on_c, 1, 29, 120
1, 40560, Note_on_c, 9, 36, 120
1, 40595, Note_on_c, 1, 29, 0
1, 40598, Note_on_c, 0, 60, 0
1, 40599, Note_on_c, 9, 36, 0
1, 40601, Note_on_c, 0, 56, 0
1, 40602, Note_on_c, 0, 63, 0
1, 40620, Note_on_c, 0, 56, 62
1, 40620, Note_on_c, 0, 60, 97
1, 40620, Note_on_c, 0, 63, 62
1, 40621, Note_on_c, 0, 63, 0
1, 40621, Note_on_c, 0, 60, 0
1, 40621, Note_on_c, 0, 56, 0
1, 40680, Note_on_c, 0, 60, 116
1, 40680, Note_on_c, 0, 63, 92
1, 40680, Note_on_c, 0, 67, 111
1, 40680, Note_on_c, 1, 29, 116
1, 40680, Note_on_c, 9, 38, 120
1, 40710, Note_on_c, 1, 29, 0
1, 40713, Note_on_c, 9, 38, 0
1, 40719, Note_on_c, 0, 60, 0
1, 40722, Note_on_c, 0, 67, 0
1, 40722, Note_on_c, 0, 63, 0
1, 40800, Note_on_c, 0, 58, 120
1, 40800, Note_on_c, 0, 70, 120
1, 40800, Pitch_bend_c, 1, 7201
1, 40800, Pitch_bend_c, 1, 5740
1, 40800, Pitch_bend_c, 1, 4801
1, 40800, Pitch_bend_c, 1, 3966
1, 40800, Pitch_bend_c, 1, 2922
1, 40800, Pitch_bend_c, 1, 2088
1, 40800, Pitch_bend_c, 1, 1253
1, 40800, Pitch_bend_c, 1, 1148
1, 40800, Pitch_bend_c, 1, 1044
1, 40800, Pitch_bend_c, 1, 5740
1, 40800, Pitch_bend_c, 1, 8192
1, 40800, Pitch_bend_c, 1, 8140
1, 40800, Pitch_bend_c, 1, 8192
1, 40800, Note_on_c, 1, 34, 120
1, 40800, Note_on_c, 7, 56, 98
1, 40800, Note_on_c, 7, 60, 119
1, 40800, Note_on_c, 7, 67, 116
1, 40800, Note_on_c, 9, 36, 120
1, 40800, Note_on_c, 9, 38, 120
1, 40817, Note_on_c, 0, 70, 0
1, 40820, Note_on_c, 0, 58, 0
1, 40830, Note_on_c, 0, 58, 109
1, 40830, Note_on_c, 0, 70, 84
1, 40835, Note_on_c, 9, 38, 0
1, 40835, Note_on_c, 9, 36, 0
1, 40865, Note_on_c, 0, 70, 0
1, 40867, Note_on_c, 0, 58, 0
1, 40890, Note_on_c, 0, 58, 119
1, 40890, Note_on_c, 0, 70, 120
1, 40903, Note_on_c, 1, 34, 0
1, 40910, Note_on_c, 0, 70, 0
1, 40916, Note_on_c, 0, 58, 0
1, 40920, Note_on_c, 0, 58, 115
1, 40920, Note_on_c, 0, 70, 115
1, 40920, Note_on_c, 1, 34, 109
1, 40920, Note_on_c, 9, 36, 120
1, 40920, Note_on_c, 9, 38, 120
1, 40951, Note_on_c, 0, 70, 0
1, 40952, Note_on_c, 0, 58, 0
1, 40954, Note_on_c, 9, 36, 0
1, 40957, Note_on_c, 9, 38, 0
1, 40980, Note_on_c, 0, 58, 100
1, 40980, Note_on_c, 0, 70, 115
1, 41003, Note_on_c, 0, 70, 0
1, 41008, Note_on_c, 0, 58, 0
1, 41009, Note_on_c, 1, 34, 0
1, 41010, Note_on_c, 0, 58, 109
1, 41010, Note_on_c, 0, 70, 102
1, 41039, Note_on_c, 0, 58, 0
1, 41040, Note_on_c, 0, 70, 0
1, 41040, Note_on_c, 1, 34, 120
1, 41040, Note_on_c, 9, 36, 120
1, 41040, Note_on_c, 9, 38, 120
1, 41070, Note_on_c, 0, 58, 102
1, 41070, Note_on_c, 0, 70, 120
1, 41076, Note_on_c, 9, 38, 0
1, 41079, Note_on_c, 9, 36, 0
1, 41087, Note_on_c, 0, 70, 0
1, 41095, Note_on_c, 0, 58, 0
1, 41100, Note_on_c, 0, 58, 111
1, 41100, Note_on_c, 0, 70, 109
1, 41110, Note_on_c, 1, 34, 0
1, 41142, Note_on_c, 0, 70, 0
1, 41147, Note_on_c, 0, 58, 0
1, 41160, Note_on_c, 1, 34, 120
1, 41160, Note_on_c, 9, 36, 120
1, 41160, Note_on_c, 9, 38, 120
1, 41201, Note_on_c, 9, 38, 0
1, 41203, Note_on_c, 9, 36, 0
1, 41220, Note_on_c, 1, 41, 111
1, 41225, Note_on_c, 1, 34, 0
1, 41267, Note_on_c, 7, 60, 0
1, 41268, Note_on_c, 7, 67, 0
1, 41271, Note_on_c, 7, 56, 0
1, 41278, Note_on_c, 1, 41, 0
1, 41280, Note_on_c, 0, 60, 94
1, 41280, Note_on_c, 0, 63, 119
1, 41280, Note_on_c, 0, 70, 119
1, 41280, Note_on_c, 1, 34, 115
1, 41280, Note_on_c, 9, 38, 120
1, 41302, Note_on_c, 1, 34, 0
1, 41308, Note_on_c, 0, 63, 0
1, 41308, Note_on_c, 9, 38, 0
1, 41309, Note_on_c, 0, 60, 0
1, 41311, Note_on_c, 0, 70, 0
1, 41340, Note_on_c, 0, 60, 94
1, 41340, Note_on_c, 0, 63, 115
1, 41340, Note_on_c, 0, 70, 109
1, 41340, Note_on_c, 1, 34, 120
1, 41340, Note_on_c, 9, 38, 120
1, 41364, Note_on_c, 1, 34, 0
1, 41365, Note_on_c, 9, 38, 0
1, 41370, Note_on_c, 0, 60, 0
1, 41370, Note_on_c, 0, 63, 0
1, 41372, Note_on_c, 0, 70, 0
1, 41400, Note_on_c, 0, 60, 105
1, 41400, Note_on_c, 0, 63, 119
1, 41400, Note_on_c, 0, 70, 106
1, 41400, Note_on_c, 1, 34, 120
1, 41400, Note_on_c, 9, 38, 120
1, 41421, Note_on_c, 1, 34, 0
1, 41425, Note_on_c, 9, 38, 0
1, 41432, Note_on_c, 0, 60, 0
1, 41432, Note_on_c, 0, 63, 0
1, 41434, Note_on_c, 0, 70, 0
1, 41460, Note_on_c, 0, 60, 98
1, 41460, Note_on_c, 0, 63, 111
1, 41460, Note_on_c, 0, 70, 91
1, 41460, Note_on_c, 1, 34, 120
1, 41460, Note_on_c, 9, 38, 119
1, 41485, Note_on_c, 9, 38, 0
1, 41485, Note_on_c, 1, 34, 0
1, 41493, Note_on_c, 0, 63, 0
1, 41494, Note_on_c, 0, 60, 0
1, 41496, Note_on_c, 0, 70, 0
1, 41520, Note_on_c, 0, 60, 95
1, 41520, Note_on_c, 0, 63, 104
1, 41520, Note_on_c, 0, 70, 89
1, 41520, Note_on_c, 1, 34, 120
1, 41520, Note_on_c, 9, 38, 120
1, 41549, Note_on_c, 1, 34, 0
1, 41556, Note_on_c, 9, 38, 0
1, 41559, Note_on_c, 0, 63, 0
1, 41562, Note_on_c, 0, 60, 0
1, 41563, Note_on_c, 0, 70, 0
1, 42000, System_exclusive, 5, 126, 127, 9, 1, 247
1, 42000, System_exclusive, 10, 65, 16, 66, 18, 64, 0, 127, 0, 65, 247
1, 42000, End_track
0, 0, End_of_file
